<svg width="706" height="420" fill="none" xmlns="http://www.w3.org/2000/svg"><g filter="url(#filter0_d)"><path d="M352.448 414L700 281.532l-347.552-135.37L2 281.532 352.448 414z" fill="#F1F1F1"/></g><g filter="url(#filter1_f)"><path d="M362.587 243.469l-176.912 66.908-139.286-50.875 175.927-63.822 140.271 47.789z" fill="url(#paint0_linear)"/></g><path d="M338.414 368.434l-156.751-59.362-.054-190.207 156.805 59.362v190.207z" fill="#053866"/><path d="M495.546 308.639l-156.913-59.633.162-189.72 157.074 59.416-.323 189.937z" fill="#083556"/><path d="M338.359 368.434l157.453-60.011.054-189.721-157.453 59.525-.054 190.207z" fill="#054270"/><path d="M181.663 309.072l157.021-60.445.108-189.341-157.183 59.578.054 190.208z" fill="#063D66"/><g filter="url(#filter2_f)"><ellipse cx="338.784" cy="217.047" rx="105.651" ry="105.011" fill="url(#paint1_radial)"/></g><path d="M338.364 368.434l-156.697-59.362-.054-190.207 156.805 59.361-.054 190.208z" fill="#053866"/><path d="M220.788 181.581l-39.121-14.935-.054-47.782 39.175 15.26v47.457z" fill="#053866"/><path d="M192.081 164.807a25.988 25.988 0 01-10.414-1.894l-.108-5.087c8.039 3.084 15.756 2.489 21.691-1.623 7.069-4.871 11.547-12.933 11.547-24.622l4.749 1.894c0 13.312-3.939 20.779-12.303 26.57a27.93 27.93 0 01-15.162 4.762z" fill="#D1D1D1"/><path d="M259.963 196.516l-39.174-14.935v-47.457l39.174 14.935v47.457z" fill="#0E2951"/><path d="M299.081 211.454l-39.12-14.935v-47.458l39.12 14.881v47.512z" fill="#D1D1D1"/><path d="M338.202 226.171l-39.12-14.718v-47.512l39.336 14.286-.216 47.944zm-117.418 2.868l-39.12-14.881v-47.512l39.12 14.936v47.457z" fill="#848484"/><path d="M259.959 243.973l-39.174-14.935v-47.457l39.174 14.935v47.457z" fill="#A5A5A5"/><path d="M299.077 258.909l-39.12-14.935v-47.457l39.12 14.935v47.457z" fill="#053866"/><path d="M338.198 273.629l-39.12-14.719v-47.457l39.12 14.719v47.457z" fill="#132F7C"/><path d="M259.959 291.431l-39.174-14.881v-47.511l39.174 14.935v47.457z" fill="#D1D1D1"/><path d="M299.077 306.365l-39.12-14.935v-47.457l39.12 14.935v47.457z" fill="#0E2951"/><path d="M338.198 321.085l-39.12-14.719v-47.457l39.12 14.719v47.457z" fill="#053866"/><path d="M220.784 324.006l-39.12-14.935v-47.457l39.12 14.935v47.457z" fill="#A5A5A5"/><path d="M259.959 338.888l-39.174-14.881V276.55l39.174 14.881v47.457z" fill="#053866"/><path d="M299.077 353.823l-39.12-14.935v-47.457l39.12 14.935v47.457z" fill="#D1D1D1"/><path d="M338.364 368.435l-39.282-14.611v-47.457l39.12 14.719.162 47.349z" fill="#848484"/><path d="M189.65 154.957a19.614 19.614 0 01-7.986-1.569v-5.682c5.612 2.165 12.573 1.407 16.026-.866 5.774-3.842 8.579-9.794 8.579-18.074l4.749 1.894c0 10.174-3.615 16.397-10.091 20.888a20.19 20.19 0 01-11.277 3.409z" fill="#C5C5C5"/><path d="M186.844 143.974a12.92 12.92 0 01-5.18-.974v-5.682c3.346 1.299 8.526.974 11.385-1.894 2.968-2.976 3.778-5.411 3.778-10.444l4.748 1.894c0 6.926-2.374 11.634-6.853 14.719a14.06 14.06 0 01-7.878 2.381z" fill="#A5A5A5"/><path d="M184.254 132.988a4.922 4.922 0 01-2.59-.487v-5.682c.863.325 3.669.542 4.748 0 1.889-.974 1.889-2.868.972-5.681l5.665 1.894c0 3.95-1.403 6.71-4.047 8.549a8.84 8.84 0 01-4.748 1.407z" fill="#767676"/><path d="M337.228 314.429l-33.185-12.609v-82.035l33.778 12.392v6.656l-28.058-10.823v69.86l27.141 10.282.324 6.277z" fill="#A5A5A5"/><path d="M337.821 315.727l-33.778-13.907v-41.829l5.72 1.894v35.985l28.058 11.201v6.656z" fill="#ADADAD"/><path d="M337.23 302.092l-23.742-9.037v-59.254l24.336 8.821v6.655l-18.67-7.197v47.999l18.67 6.656-.594 5.357z" fill="#A5A5A5"/><path d="M337.227 290.729l-13.598-5.195v-34.578l14.191 4.978v6.656l-8.525-3.355v22.403l8.525 3.734-.593 5.357z" fill="#A5A5A5"/><path d="M337.82 291.052l-14.191-5.52v-18.074l5.666 1.894v12.284l8.525 2.76v6.656z" fill="#ADADAD"/><path d="M337.824 303.39l-24.336-9.362v-30.466l5.666 1.894v24.622l18.67 6.656v6.656z" fill="#ADADAD"/><path d="M211.396 320.437l-29.732-11.364V272.98l29.732 11.364v36.093z" fill="#053866"/><path d="M201.197 316.541l-19.533-7.467v-23.756l19.533 7.468v23.755z" fill="#D1D1D1"/><path d="M298.918 181.311l-14.192 24.459-24.605-26.623 14.191-24.459 24.606 26.623z" fill="#A5A5A5"/><path d="M289.42 180.77l-7.284 12.5-12.519-13.582 7.231-12.446 12.572 13.528z" fill="#848484"/><path d="M299.077 353.824l-39.12-14.935v-37.933l39.12 14.881v37.987z" fill="#A5A5A5"/><path d="M299.077 353.825l-39.12-14.935v-27.489l39.12 14.881v27.543z" fill="#848484"/><path d="M299.077 353.825l-39.12-14.935v-17.046l39.12 14.881v17.1z" fill="#053866"/><path d="M299.077 353.823l-39.12-14.935v-8.495l39.12 14.881v8.549z" fill="#0E2951"/><path d="M220.785 192.945l39.174 14.935-39.174 11.688 39.174 14.936-39.174-41.559z" fill="#848484"/><path d="M186.359 216.051l-4.695-1.894V166.7l4.695 1.894v47.457zm7.612 2.869l-4.748-1.894v-47.511l4.748 1.948v47.457zm24.598 9.47l-4.749-1.894v-47.457l4.749 1.894v47.457zm-8.251-3.462l-5.666-1.894v-47.457l5.666 1.894v47.457zm-8.796-3.194l-4.749-1.894v-47.457l4.749 1.894v47.457z" fill="#D1D1D1"/><path d="M220.784 276.551l-39.12-14.935v-47.457l39.12 14.881v47.511z" fill="#0E2951"/><path d="M220.786 276.549l-19.587-7.468v-23.755l19.587 7.467v23.756zm-19.589-31.221l-19.533-7.468v-23.701l19.533 7.467v23.702z" fill="#848484"/><path d="M243.72 313.348l-6.691-2.543v-7.793l11.655 4.438v13.636l-16.619-6.331v-19.481l21.638 8.225v25.433l-26.656-10.119v-32.305l26.656 10.119" stroke="#ADADAD" stroke-width="4" stroke-miterlimit="10"/><path d="M306.148 350.848l26.602-25.974m0 36.092l-26.602-46.212" stroke="#0E2951" stroke-width="6" stroke-miterlimit="10"/><path d="M274.04 266.43l-6.259-2.381v-7.575l6.259 2.381v7.575zm8.583 13.744l-6.26-2.38v-7.629l6.26 2.38v7.629zm8.636 13.692L285 291.485v-7.575l6.259 2.381v7.575z" fill="#848484"/><path d="M338.413 178.227l157.453-59.525v189.937l-157.507 59.795.054-190.207z" fill="#053866"/><path d="M456.473 228.605l39.39-14.936v47.512l-39.39 14.935v-47.511z" fill="#848484"/><path d="M417.031 243.539l39.444-14.935v47.511l-39.444 14.881v-47.457z" fill="#A5A5A5"/><path d="M377.637 258.476l39.39-14.936v47.457l-39.39 14.936v-47.457z" fill="#053866"/><path d="M338.195 273.628l39.444-15.152v47.458l-39.444 15.151v-47.457z" fill="#132F7C"/><path d="M417.031 196.085l39.444-14.935v47.457l-39.444 14.935v-47.457z" fill="#D1D1D1"/><path d="M377.637 211.018l39.39-14.935v47.457l-39.39 14.936v-47.458z" fill="#0E2951"/><path d="M338.195 226.171l39.444-15.152v47.457l-39.444 15.152v-47.457z" fill="#053866"/><path d="M417.031 290.999l39.444-14.881v47.457l-39.444 14.935v-47.511z" fill="#0E2951"/><path d="M377.637 305.934l39.39-14.935v47.511l-39.39 14.881v-47.457z" fill="#D1D1D1"/><path d="M338.195 321.085l39.444-15.151v47.457l-39.282 15.043-.162-47.349z" fill="#848484"/><path d="M456.477 133.692l39.39-14.99v47.511l-39.39 14.936v-47.457z" fill="#A5A5A5"/><path d="M417.031 148.626l39.444-14.935v47.457l-39.444 14.935v-47.457z" fill="#053866"/><path d="M377.641 163.562l39.39-14.935v47.457l-39.39 14.935v-47.457z" fill="#D1D1D1"/><path d="M338.411 178.227l39.228-14.665v47.457l-39.444 15.152.216-47.944z" fill="#848484"/><path d="M337.82 315.727v-6.656l29.084-11.58v-69.86l-27.681 10.444-1.996-5.303 35.343-13.42v82.035l-34.75 14.34z" fill="#A5A5A5"/><path d="M372.57 261.452l-5.666 1.894v-35.715l-29.084 11.202v-6.656l34.75-12.825v42.1z" fill="#ADADAD"/><path d="M337.82 303.391v-6.656l19.641-8.009v-47.078l-19.641 7.63v-6.656l25.307-7.305v57.359l-25.307 10.715z" fill="#A5A5A5"/><path d="M337.82 291.053v-6.656l9.389-3.193v-22.403l-7.986 3.031-1.996-5.303 15.648-5.953v34.578l-15.055 5.899z" fill="#A5A5A5"/><path d="M352.875 268l-5.666 1.894v-11.093l-9.389 3.788v-6.656l15.055-5.357V268z" fill="#ADADAD"/><path d="M363.127 265.026l-5.666 1.948v-25.325l-19.641 7.63v-6.656l25.307-9.199v31.602z" fill="#ADADAD"/><path d="M476.168 126.224l19.695-7.522v23.81l-19.695 7.468v-23.756z" fill="#D1D1D1"/><path d="M377.805 335.913l14.299-35.228 24.767 7.846-14.299 35.228-24.767-7.846z" fill="#A5A5A5"/><path d="M387.355 329.204l7.285-17.966 12.68 4.005-7.338 17.965-12.627-4.004z" fill="#848484"/><path d="M377.641 163.562l39.39-14.935v37.987l-39.39 14.881v-37.933z" fill="#A5A5A5"/><path d="M377.641 163.562l39.39-14.935v27.543l-39.39 14.882v-27.49z" fill="#848484"/><path d="M377.641 163.562l39.39-14.935v17.1l-39.39 14.881v-17.046z" fill="#053866"/><path d="M377.641 163.562l39.39-14.935v8.55l-39.39 14.935v-8.55z" fill="#0E2951"/><path d="M456.475 264.753l-39.444 14.935 39.444-41.559-39.444 14.935" fill="#848484"/><path d="M495.923 261.615l-5.665 1.894v-48.377l5.665-1.948v48.431zm-7.449 2.489l-5.72 1.894v-47.457l5.72-1.894v47.457zm-23.689 8.929l-5.665 1.894-.108-47.457 5.665-1.894.108 47.457zm7.881-2.976L467 271.951v-47.457l5.666-1.894v47.457zm7.933-2.977l-5.72 1.894v-47.457l5.72-1.894v47.457z" fill="#D1D1D1"/><path d="M456.477 181.149l39.39-14.936v47.457l-39.39 14.936v-47.457z" fill="#0E2951"/><path d="M456.477 276.118l39.39-14.935v47.457l-39.39 14.935v-47.457z" fill="#053866"/><path d="M456.477 181.148l19.695-7.467v23.755l-19.695 7.468v-23.756z" fill="#848484"/><path d="M461.873 321.41l-4.748 1.894c0-32.252 17.807-51.841 38.797-59.795v4.762c-18.94 7.197-34.049 31.331-34.049 53.139z" fill="#D1D1D1"/><path d="M472.287 317.623l-5.666 1.894c0-22.782 13.544-40.747 29.354-46.7v5.682c-13.814 5.249-23.688 22.403-23.688 39.124z" fill="#C5C5C5"/><path d="M482.323 313.834l-5.288 1.894c0-14.232 8.04-27.923 18.778-32.035l.108 5.411c-8.364 3.247-13.598 14.502-13.598 24.73z" fill="#A5A5A5"/><path d="M491.226 310.047l-4.748 1.894c-.971-7.576 3.453-15.098 9.335-17.317l.108 5.953c-3.669 1.353-4.695 4.87-4.695 9.47z" fill="#767676"/><path d="M433.384 161.829l6.691-2.543v7.738l-11.709 4.437v-13.582l16.781-6.331v19.481l-21.799 8.225v-25.433l26.817-10.174v32.306l-26.817 10.173" stroke="#ADADAD" stroke-width="4" stroke-miterlimit="10"/><path d="M370.522 171.949l-26.764 46.213m0-36.094l26.764 25.92" stroke="#0E2951" stroke-width="6" stroke-miterlimit="10"/><path d="M402.844 231.853l6.313-2.381v7.575l-6.313 2.381v-7.575zm-8.637-7.197l6.259-2.381v7.629l-6.259 2.381v-7.629zm-8.687-7.144l6.313-2.381v7.575l-6.313 2.381v-7.575z" fill="#848484"/><path d="M465.918 130.12l29.947-11.418v36.148l-29.947 11.309V130.12z" fill="#053866"/><path d="M476.168 197.436l19.695-7.467v23.701l-19.695 7.468v-23.702z" fill="#848484"/><path d="M554.629 60.369l-58.761 58.333-157.075-59.416L397.5.574l157.129 59.795z" fill="#084C7F"/><path d="M338.523 178.281l-58.491 58.117-157.075-59.254 58.654-58.279 156.912 59.416z" fill="#094573"/><path d="M338.793 59.287L280.032.574 122.957 59.882l58.654 58.983 157.182-59.578zm215.839 117.37l-58.761-57.955-157.453 59.525 59.085 58.225 157.129-59.795z" fill="#084C7F"/><defs><filter id="filter0_d" x="0" y="144.162" width="706" height="275.838" filterUnits="userSpaceOnUse" color-interpolation-filters="sRGB"><feFlood flood-opacity="0" result="BackgroundImageFix"/><feColorMatrix in="SourceAlpha" values="0 0 0 0 0 0 0 0 0 0 0 0 0 0 0 0 0 0 127 0"/><feOffset dx="2" dy="2"/><feGaussianBlur stdDeviation="2"/><feColorMatrix values="0 0 0 0 0 0 0 0 0 0 0 0 0 0 0 0 0 0 0.1 0"/><feBlend in2="BackgroundImageFix" result="effect1_dropShadow"/><feBlend in="SourceGraphic" in2="effect1_dropShadow" result="shape"/></filter><filter id="filter1_f" x="41.391" y="190.68" width="326.198" height="124.697" filterUnits="userSpaceOnUse" color-interpolation-filters="sRGB"><feFlood flood-opacity="0" result="BackgroundImageFix"/><feBlend in="SourceGraphic" in2="BackgroundImageFix" result="shape"/><feGaussianBlur stdDeviation="2.5" result="effect1_foregroundBlur"/></filter><filter id="filter2_f" x="153.133" y="32.036" width="371.302" height="370.022" filterUnits="userSpaceOnUse" color-interpolation-filters="sRGB"><feFlood flood-opacity="0" result="BackgroundImageFix"/><feBlend in="SourceGraphic" in2="BackgroundImageFix" result="shape"/><feGaussianBlur stdDeviation="40" result="effect1_foregroundBlur"/></filter><radialGradient id="paint1_radial" cx="0" cy="0" r="1" gradientUnits="userSpaceOnUse" gradientTransform="scale(83.7922 83.2845) rotate(90 .929 3.1)"><stop stop-color="#0095FF"/><stop offset="1" stop-color="#BCE3FF"/></radialGradient><linearGradient id="paint0_linear" x1="353.22" y1="312.31" x2="271.456" y2="135.141" gradientUnits="userSpaceOnUse"><stop offset=".096"/><stop offset=".978" stop-color="#fff" stop-opacity="0"/></linearGradient></defs></svg>