<svg width="1134" height="177" fill="none" xmlns="http://www.w3.org/2000/svg"><path d="M9.857 67.175h40.784c5.445 0 9.859 4.978 9.859 11.118v10.364c0 6.14-4.414 11.118-9.859 11.118H9.857c-5.445 0-9.859-4.978-9.859-11.118V78.293c0-6.14 4.414-11.118 9.86-11.118z" fill="#F0C49F"/><path d="M9.857 67.175h40.784c5.445 0 9.859 4.978 9.859 11.118v10.364c0 6.14-4.414 11.118-9.859 11.118H9.857c-5.445 0-9.859-4.978-9.859-11.118V78.293c0-6.14 4.414-11.118 9.86-11.118z" fill="#F0C49F" opacity=".6"/><path d="M.002 78.293V92.38c.008 2.746.873 5.4 2.444 7.498 1.57 2.098 3.746 3.505 6.145 3.973-1.478.962-2.706 2.344-3.56 4.009a12.076 12.076 0 00-1.312 5.478v7.22c.006 2.296.649 4.533 1.839 6.397 1.19 1.863 2.866 3.26 4.796 3.995a10.189 10.189 0 00-2.155 3.386 11.244 11.244 0 00-.763 4.078v4.688c.006 2.69.957 5.268 2.643 7.171 1.687 1.902 3.972 2.975 6.358 2.983h.78a10.362 10.362 0 00-2.344 3.531 11.488 11.488 0 00-.83 4.311v5.386c.006 2.753.979 5.391 2.705 7.337 1.726 1.947 4.065 3.044 6.506 3.051H60.38a8.226 8.226 0 001.93-.234h36.152c8.165-.307 18.922-5.401 18.922-5.401s7.162-3.608 9.625-3.821l11.889-2.548-1.269-80.804h-22.301s-19.459-16.889-23.54-53.932c-2.07-8.296-1.921-20.057-1.707-25.57a4.21 4.21 0 00-.724-2.544c-.502-.725-1.216-1.224-2.014-1.41C80.315-1.048 71.352-2.05 70.588 36.23c-.192 9.638 5.465 17.194 0 36.998H19.101c-1.123 0-2.199-.504-2.992-1.4-.794-.895-1.24-2.109-1.24-3.374v-1.279H9.853c-2.611.011-5.112 1.186-6.958 3.27C1.05 72.526.01 75.348.002 78.292z" fill="#F0C49F"/><path d="M73.28 42.6c.046.567 4.402 26.691 4.241 27.232a4.222 4.222 0 01-.76 1.46c-.34.422-3.02 2.033-3.482 2.263a3.29 3.29 0 01-1.468.351l-1.305-.74c2.773-10.825 3.406-14.558 1.019-28.656C69.26 31.137 70.959-.068 82.782.006c.324.075.637.202.929.377C72.737 3.207 71.525 27.316 73.279 42.6zM9.849 67.175h5.018v1.282a5.14 5.14 0 00.709 2.64c-1.524 2.004-2.362 4.556-2.363 7.196V92.38c.008 2.745.874 5.4 2.444 7.497 1.57 2.098 3.746 3.505 6.145 3.974-1.478.962-2.706 2.345-3.561 4.011a12.082 12.082 0 00-1.311 5.479v7.217c.006 2.297.65 4.534 1.84 6.397 1.19 1.864 2.867 3.26 4.797 3.995a10.183 10.183 0 00-2.157 3.387 11.245 11.245 0 00-.764 4.081v4.687c.007 2.691.958 5.269 2.645 7.172 1.687 1.903 3.974 2.975 6.36 2.982h.78a10.357 10.357 0 00-2.344 3.529 11.494 11.494 0 00-.83 4.309v5.383c.006 2.752.978 5.39 2.703 7.336 1.726 1.947 4.064 3.044 6.505 3.052H23.25c-2.44-.007-4.78-1.104-6.506-3.051-1.726-1.946-2.699-4.584-2.705-7.337v-5.383c0-1.484.285-2.951.833-4.301a10.357 10.357 0 012.342-3.523h-.781c-2.386-.008-4.671-1.081-6.358-2.983-1.686-1.903-2.637-4.481-2.643-7.171v-4.701c0-1.405.26-2.795.762-4.08a10.183 10.183 0 012.156-3.388c-1.93-.735-3.607-2.132-4.797-3.995-1.19-1.864-1.832-4.101-1.838-6.397v-7.217a12.081 12.081 0 011.311-5.479c.855-1.666 2.083-3.049 3.561-4.011-2.399-.469-4.574-1.875-6.145-3.973C.873 97.78.007 95.126-.001 92.38V78.293c.007-2.944 1.047-5.766 2.893-7.849 1.845-2.083 4.346-3.258 6.957-3.27zm106.098 16.883h21.682v80.419l-9.912 2.547V99.451a11.78 11.78 0 00-.981-4.718c-.645-1.467-1.581-2.746-2.736-3.738l-8.053-6.937z" fill="#F0C49F" opacity=".3"/><path d="M134 83.923v89.15c-.001.516.209 1.026.618 1.503.409.476 1.008.909 1.765 1.274.756.364 1.654.654 2.643.851a16.08 16.08 0 003.118.299H1134V80H142.144c-2.16 0-4.231.413-5.759 1.149-1.527.736-2.385 1.734-2.385 2.774z" fill="url(#paint0_linear)"/><path d="M134 158v15.021c-.002.522.4 1.04 1.184 1.522.783.483 1.932.922 3.38 1.291 1.449.37 3.17.663 5.063.863 1.894.2 3.924.303 5.974.303h968.789c2.05 0 4.08-.103 5.97-.303 1.9-.2 3.62-.493 5.07-.862 1.45-.37 2.6-.809 3.38-1.291.79-.483 1.19-1.001 1.19-1.523V158H134z" fill="url(#paint1_linear)" opacity=".3"/><path d="M142.905 160.545c-.978-4.618 1.549-9.255 5.644-10.358 4.095-1.102 8.207 1.747 9.184 6.365.978 4.618-1.549 9.255-5.643 10.358-4.095 1.102-8.207-1.747-9.185-6.365z" fill="#0A3D76" opacity=".3"/><path d="M152.303 166.274c-4.21 0-7.623-3.848-7.623-8.596 0-4.747 3.413-8.596 7.623-8.596 4.21 0 7.623 3.849 7.623 8.596 0 4.748-3.413 8.596-7.623 8.596z" fill="#B4D1FA"/><path d="M149.543 149.676a7.437 7.437 0 00-1.286 2.617 7.987 7.987 0 00-.22 2.982 7.718 7.718 0 00.884 2.822 6.839 6.839 0 001.833 2.164c.74.566 1.578.95 2.459 1.124a5.616 5.616 0 002.652-.113 6.062 6.062 0 002.377-1.33 7.02 7.02 0 001.684-2.313v.049a9.46 9.46 0 01-1.091 4.443c-.716 1.341-1.743 2.436-2.97 3.168a6.915 6.915 0 01-3.994.982c-1.385-.088-2.723-.602-3.869-1.485-1.146-.883-2.056-2.103-2.633-3.527a9.594 9.594 0 01-.639-4.553 9.232 9.232 0 011.539-4.27c.848-1.239 1.98-2.194 3.274-2.76z" fill="#71A0DD" opacity=".3"/><path d="M153.458 155.11c-1.073-1.115-1.373-2.717-.669-3.578.703-.861 2.144-.656 3.217.459s1.373 2.717.669 3.578c-.703.861-2.143.656-3.217-.459z" fill="#fff"/><path d="M196.184 112c2.286 0 3.492-1.44 3.492-3.24 0-1.512-1.026-2.754-2.304-2.952 1.134-.234 2.07-1.242 2.07-2.754 0-1.602-1.17-3.06-3.456-3.06h-6.318V112h6.516zm-.756-7.2h-3.204v-2.61h3.204c.864 0 1.404.558 1.404 1.314s-.54 1.296-1.404 1.296zm.09 4.986h-3.294v-2.79h3.294c1.008 0 1.548.648 1.548 1.404 0 .864-.576 1.386-1.548 1.386zm10.082 2.43c1.782 0 2.862-.774 3.438-1.584l-1.494-1.386a2.194 2.194 0 01-1.836.936c-1.386 0-2.358-1.026-2.358-2.538 0-1.512.972-2.52 2.358-2.52.792 0 1.422.324 1.836.936l1.494-1.404c-.576-.792-1.656-1.566-3.438-1.566-2.682 0-4.608 1.89-4.608 4.554 0 2.682 1.926 4.572 4.608 4.572zm9.018 0c1.35 0 2.718-.414 3.582-1.206l-1.008-1.476c-.558.54-1.584.864-2.322.864-1.476 0-2.358-.918-2.502-2.016h6.462v-.504c0-2.844-1.764-4.788-4.356-4.788-2.646 0-4.5 2.034-4.5 4.554 0 2.79 1.998 4.572 4.644 4.572zm1.998-5.382h-4.284c.108-.864.72-1.926 2.142-1.926 1.512 0 2.088 1.098 2.142 1.926zm15.311 7.38h2.286v-4.212h-.954v-6.696h-2.286v6.696h-3.6v-6.696h-2.286V112h6.84v2.214zm7.811-1.998c1.35 0 2.718-.414 3.582-1.206l-1.008-1.476c-.558.54-1.584.864-2.322.864-1.476 0-2.358-.918-2.502-2.016h6.462v-.504c0-2.844-1.764-4.788-4.356-4.788-2.646 0-4.5 2.034-4.5 4.554 0 2.79 1.998 4.572 4.644 4.572zm1.998-5.382h-4.284c.108-.864.72-1.926 2.142-1.926 1.512 0 2.088 1.098 2.142 1.926zm3.055 5.382c2.214 0 3.294-1.422 3.654-4.428l.288-2.484h2.754V112h2.286v-8.694h-7.038l-.558 4.212c-.27 2.106-.684 2.826-1.386 2.826v1.872zm13.447-.216l3.69-5.454V112h2.286v-8.694h-2.304l-3.582 5.256v-5.256h-2.286V112h2.196zm12.041 2.214h2.304V112h5.346v2.214h2.286v-4.212h-.954v-6.696h-7.038l-.558 4.212c-.27 2.106-.684 2.448-1.386 2.574v4.122zm3.942-8.91h2.754v4.698h-4.032c.54-.504.882-1.278 1.008-2.34l.27-2.358zm11.465 6.912c2.88 0 4.608-2.088 4.608-4.572 0-2.466-1.728-4.554-4.608-4.554-2.862 0-4.59 2.088-4.59 4.554 0 2.484 1.728 4.572 4.59 4.572zm0-2.034c-1.422 0-2.214-1.17-2.214-2.538 0-1.35.792-2.52 2.214-2.52s2.232 1.17 2.232 2.52c0 1.368-.81 2.538-2.232 2.538zm10.353 2.034c1.782 0 2.862-.774 3.438-1.584l-1.494-1.386a2.194 2.194 0 01-1.836.936c-1.386 0-2.358-1.026-2.358-2.538 0-1.512.972-2.52 2.358-2.52.792 0 1.422.324 1.836.936l1.494-1.404c-.576-.792-1.656-1.566-3.438-1.566-2.682 0-4.608 1.89-4.608 4.554 0 2.682 1.926 4.572 4.608 4.572zm8.839-.216v-6.696h2.43v-1.998h-7.164v1.998h2.43V112h2.304zm6.059 0l3.69-5.454V112h2.286v-8.694h-2.304l-3.582 5.256v-5.256h-2.286V112h2.196zm14.96-8.694h-6.714V112h2.286v-6.696h4.428v-1.998zm3.746 8.694v-3.474h3.6V112h2.286v-8.694h-2.286v3.222h-3.6v-3.222h-2.286V112h2.286zm7.849 3.402c.288.072.864.126 1.134.126 1.494-.036 2.646-.468 3.294-2.106l4.086-10.116h-2.466l-2.268 6.048-2.268-6.048h-2.448l3.528 8.82-.324.738c-.216.468-.612.63-1.206.63-.216 0-.522-.054-.72-.144l-.342 2.052zM350.933 112v-6.696h2.43v-1.998h-7.164v1.998h2.43V112h2.304zm3.863-8.694V112h5.256c1.944 0 3.024-1.314 3.024-2.862 0-1.53-1.008-2.844-3.024-2.844h-2.97v-2.988h-2.286zm4.914 4.896c.648 0 1.026.396 1.026.936s-.378.936-1.026.936h-2.628v-1.872h2.628zm6.804 3.798v-8.694h-2.304V112h2.304zm4.993-.882c0-1.17-.774-1.836-1.62-1.836-.756 0-1.404.648-1.404 1.44 0 .774.54 1.296 1.224 1.296.126 0 .288-.036.342-.054-.144.63-.81 1.386-1.386 1.692l.99.81c1.098-.792 1.854-1.998 1.854-3.348zm9.643 1.098c2.592 0 4.194-1.08 4.194-2.61 0-1.314-1.386-1.998-2.448-2.07 1.152-.18 2.268-.936 2.268-2.052 0-1.476-1.53-2.394-4.248-2.376-1.584 0-2.844.594-3.69 1.44l1.116 1.35c.684-.666 1.566-.99 2.7-.99 1.026 0 1.746.36 1.746.882 0 .612-.594.936-1.782.936h-1.782v1.764h1.782c1.188 0 1.944.306 1.944.972 0 .558-.63.936-1.8.936-1.044 0-2.196-.306-3.006-.99l-1.044 1.422c.846.828 2.25 1.386 4.05 1.386zm13.408-.216v-5.616c0-2.502-1.818-3.294-3.798-3.294-1.368 0-2.736.432-3.798 1.368l.864 1.53c.738-.684 1.602-1.026 2.538-1.026 1.152 0 1.908.576 1.908 1.458v1.17c-.576-.684-1.602-1.062-2.754-1.062-1.386 0-3.024.774-3.024 2.808 0 1.944 1.638 2.88 3.024 2.88 1.134 0 2.16-.414 2.754-1.116v.9h2.286zm-4.122-1.332c-.9 0-1.638-.468-1.638-1.278 0-.846.738-1.314 1.638-1.314.738 0 1.458.252 1.836.756v1.08c-.378.504-1.098.756-1.836.756zM405.321 112l-3.546-4.752 3.438-3.942h-2.808l-3.294 3.87v-3.87h-2.286V112h2.286v-2.232l1.044-1.116 2.304 3.348h2.862zm8.643 0v-5.616c0-2.502-1.818-3.294-3.798-3.294-1.368 0-2.736.432-3.798 1.368l.864 1.53c.738-.684 1.602-1.026 2.538-1.026 1.152 0 1.908.576 1.908 1.458v1.17c-.576-.684-1.602-1.062-2.754-1.062-1.386 0-3.024.774-3.024 2.808 0 1.944 1.638 2.88 3.024 2.88 1.134 0 2.16-.414 2.754-1.116v.9h2.286zm-4.122-1.332c-.9 0-1.638-.468-1.638-1.278 0-.846.738-1.314 1.638-1.314.738 0 1.458.252 1.836.756v1.08c-.378.504-1.098.756-1.836.756zm9.558 1.548c2.592 0 4.194-1.08 4.194-2.61 0-1.314-1.386-1.998-2.448-2.07 1.152-.18 2.268-.936 2.268-2.052 0-1.476-1.53-2.394-4.248-2.376-1.584 0-2.844.594-3.69 1.44l1.116 1.35c.684-.666 1.566-.99 2.7-.99 1.026 0 1.746.36 1.746.882 0 .612-.594.936-1.782.936h-1.782v1.764h1.782c1.188 0 1.944.306 1.944.972 0 .558-.63.936-1.8.936-1.044 0-2.196-.306-3.006-.99l-1.044 1.422c.846.828 2.25 1.386 4.05 1.386zm5.632-8.91v3.15c0 1.8.9 2.862 3.33 2.862 1.08 0 1.98-.234 2.538-.54V112h2.304v-8.694H430.9v3.636c-.396.198-.954.342-1.746.342-1.206 0-1.836-.396-1.836-1.62v-2.358h-2.286zM437.658 112l3.69-5.454V112h2.286v-8.694h-2.304l-3.582 5.256v-5.256h-2.286V112h2.196zm16.742 0l-3.546-4.752 3.438-3.942h-2.808l-3.294 3.87v-3.87h-2.286V112h2.286v-2.232l1.044-1.116 2.304 3.348h2.862zm-265.092 26.402c.288.072.864.126 1.134.126 1.494-.036 2.646-.468 3.294-2.106l4.086-10.116h-2.466l-2.268 6.048-2.268-6.048h-2.448l3.528 8.82-.324.738c-.216.468-.612.63-1.206.63-.216 0-.522-.054-.72-.144l-.342 2.052zm8.725-1.188h2.304V135h5.346v2.214h2.286v-4.212h-.954v-6.696h-7.038l-.558 4.212c-.27 2.106-.684 2.448-1.386 2.574v4.122zm3.942-8.91h2.754v4.698h-4.032c.54-.504.882-1.278 1.008-2.34l.27-2.358zm11.464 6.912c2.88 0 4.608-2.088 4.608-4.572 0-2.466-1.728-4.554-4.608-4.554-2.862 0-4.59 2.088-4.59 4.554 0 2.484 1.728 4.572 4.59 4.572zm0-2.034c-1.422 0-2.214-1.17-2.214-2.538 0-1.35.792-2.52 2.214-2.52s2.232 1.17 2.232 2.52c0 1.368-.81 2.538-2.232 2.538zM225.413 135c1.746 0 2.682-1.044 2.682-2.358 0-1.044-.702-1.908-1.656-2.124.81-.234 1.476-.936 1.476-1.98 0-1.17-.9-2.232-2.664-2.232h-5.508V135h5.67zm-.558-1.872h-2.826v-1.62h2.826c.576 0 .9.378.9.81 0 .504-.342.81-.9.81zm-.072-3.492h-2.754v-1.458h2.754c.504 0 .81.306.81.738 0 .396-.306.72-.81.72zm4.697 5.58c2.214 0 3.294-1.422 3.654-4.428l.288-2.484h2.754V135h2.286v-8.694h-7.038l-.558 4.212c-.27 2.106-.684 2.826-1.386 2.826v1.872zm15.338 0c1.35 0 2.718-.414 3.582-1.206l-1.008-1.476c-.558.54-1.584.864-2.322.864-1.476 0-2.358-.918-2.502-2.016h6.462v-.504c0-2.844-1.764-4.788-4.356-4.788-2.646 0-4.5 2.034-4.5 4.554 0 2.79 1.998 4.572 4.644 4.572zm1.998-5.382h-4.284c.108-.864.72-1.926 2.142-1.926 1.512 0 2.088 1.098 2.142 1.926zm7.771 5.166v-6.696h2.43v-1.998h-7.164v1.998h2.43V135h2.304zm9.533 0c1.746 0 2.682-1.044 2.682-2.358 0-1.044-.702-1.908-1.656-2.124.81-.234 1.476-.936 1.476-1.98 0-1.17-.9-2.232-2.664-2.232h-5.508V135h5.67zm-.558-1.872h-2.826v-1.62h2.826c.576 0 .9.378.9.81 0 .504-.342.81-.9.81zm-.072-3.492h-2.754v-1.458h2.754c.504 0 .81.306.81.738 0 .396-.306.72-.81.72zm9.539 5.58c2.88 0 4.608-2.088 4.608-4.572 0-2.466-1.728-4.554-4.608-4.554-2.862 0-4.59 2.088-4.59 4.554 0 2.484 1.728 4.572 4.59 4.572zm0-2.034c-1.422 0-2.214-1.17-2.214-2.538 0-1.35.792-2.52 2.214-2.52s2.232 1.17 2.232 2.52c0 1.368-.81 2.538-2.232 2.538zm11.272 2.034c2.232 0 3.852-1.674 3.852-4.572s-1.62-4.554-3.852-4.554a3.359 3.359 0 00-2.682 1.314v-1.098h-2.286v12.006h2.286v-4.428c.702.9 1.656 1.332 2.682 1.332zm-.72-2.034c-.738 0-1.584-.45-1.962-.99v-3.078c.378-.558 1.224-.99 1.962-.99 1.314 0 2.196 1.026 2.196 2.52 0 1.512-.882 2.538-2.196 2.538zm10.332 2.034c1.35 0 2.718-.414 3.582-1.206l-1.008-1.476c-.558.54-1.584.864-2.322.864-1.476 0-2.358-.918-2.502-2.016h6.462v-.504c0-2.844-1.764-4.788-4.356-4.788-2.646 0-4.5 2.034-4.5 4.554 0 2.79 1.998 4.572 4.644 4.572zm1.998-5.382h-4.284c.108-.864.72-1.926 2.142-1.926 1.512 0 2.088 1.098 2.142 1.926zm6.152 5.166v-3.474h3.6V135h2.286v-8.694h-2.286v3.222h-3.6v-3.222h-2.286V135h2.286zm20.932 0v-8.694h-8.172V135h2.286v-6.696h3.6V135h2.286zm6.302.216c2.88 0 4.608-2.088 4.608-4.572 0-2.466-1.728-4.554-4.608-4.554-2.862 0-4.59 2.088-4.59 4.554 0 2.484 1.728 4.572 4.59 4.572zm0-2.034c-1.422 0-2.214-1.17-2.214-2.538 0-1.35.792-2.52 2.214-2.52s2.232 1.17 2.232 2.52c0 1.368-.81 2.538-2.232 2.538zm5.494 2.034c2.214 0 3.294-1.422 3.654-4.428l.288-2.484h2.754V135h2.286v-8.694h-7.038l-.558 4.212c-.27 2.106-.684 2.826-1.386 2.826v1.872zm10.945 3.186c.288.072.864.126 1.134.126 1.494-.036 2.646-.468 3.294-2.106l4.086-10.116h-2.466l-2.268 6.048-2.268-6.048H344.8l3.528 8.82-.324.738c-.216.468-.612.63-1.206.63-.216 0-.522-.054-.72-.144l-.342 2.052zm9.265-12.096v3.15c0 1.8.9 2.862 3.33 2.862 1.08 0 1.98-.234 2.538-.54V135h2.304v-8.694h-2.304v3.636c-.396.198-.954.342-1.746.342-1.206 0-1.836-.396-1.836-1.62v-2.358h-2.286zm14.516 8.91c1.35 0 2.718-.414 3.582-1.206l-1.008-1.476c-.558.54-1.584.864-2.322.864-1.476 0-2.358-.918-2.502-2.016h6.462v-.504c0-2.844-1.764-4.788-4.356-4.788-2.646 0-4.5 2.034-4.5 4.554 0 2.79 1.998 4.572 4.644 4.572zm1.998-5.382h-4.284c.108-.864.72-1.926 2.142-1.926 1.512 0 2.088 1.098 2.142 1.926zm6.151 5.166v-3.474h3.6V135h2.286v-8.694h-2.286v3.222h-3.6v-3.222h-2.286V135h2.286zm10.442 0v-3.474h3.6V135h2.286v-8.694h-2.286v3.222h-3.6v-3.222h-2.286V135h2.286zm8.155-8.694V135h5.256c1.944 0 3.024-1.314 3.024-2.862 0-1.53-1.008-2.844-3.024-2.844h-2.97v-2.988h-2.286zm4.914 4.896c.648 0 1.026.396 1.026.936s-.378.936-1.026.936h-2.628v-1.872h2.628zm6.804 3.798v-8.694h-2.304V135h2.304zm12.535 0v-8.694h-3.024l-2.106 5.184-2.142-5.184h-3.006V135h2.286v-5.652l2.34 5.652h1.044l2.322-5.652V135h2.286zm4.468 0l3.69-5.454V135h2.286v-8.694h-2.304l-3.582 5.256v-5.256h-2.286V135h2.196zm-230.402 23.216c2.232 0 3.852-1.674 3.852-4.572s-1.62-4.554-3.852-4.554a3.359 3.359 0 00-2.682 1.314v-1.098h-2.286v12.006h2.286v-4.428c.702.9 1.656 1.332 2.682 1.332zm-.72-2.034c-.738 0-1.584-.45-1.962-.99v-3.078c.378-.558 1.224-.99 1.962-.99 1.314 0 2.196 1.026 2.196 2.52 0 1.512-.882 2.538-2.196 2.538zm10.333 2.034c1.35 0 2.718-.414 3.582-1.206l-1.008-1.476c-.558.54-1.584.864-2.322.864-1.476 0-2.358-.918-2.502-2.016h6.462v-.504c0-2.844-1.764-4.788-4.356-4.788-2.646 0-4.5 2.034-4.5 4.554 0 2.79 1.998 4.572 4.644 4.572zm1.998-5.382h-4.284c.108-.864.72-1.926 2.142-1.926 1.512 0 2.088 1.098 2.142 1.926zm7.033 5.382c2.592 0 4.194-1.08 4.194-2.61 0-1.314-1.386-1.998-2.448-2.07 1.152-.18 2.268-.936 2.268-2.052 0-1.476-1.53-2.394-4.248-2.376-1.584 0-2.844.594-3.69 1.44l1.116 1.35c.684-.666 1.566-.99 2.7-.99 1.026 0 1.746.36 1.746.882 0 .612-.594.936-1.782.936H211.3v1.764h1.782c1.188 0 1.944.306 1.944.972 0 .558-.63.936-1.8.936-1.044 0-2.196-.306-3.006-.99l-1.044 1.422c.846.828 2.25 1.386 4.05 1.386zm5.596 3.186c.288.072.864.126 1.134.126 1.494-.036 2.646-.468 3.294-2.106l4.086-10.116h-2.466l-2.268 6.048-2.268-6.048h-2.448l3.528 8.82-.324.738c-.216.468-.612.63-1.206.63-.216 0-.522-.054-.72-.144l-.342 2.052zm8.725-3.186c2.214 0 3.294-1.422 3.654-4.428l.288-2.484h2.754V158h2.286v-8.694h-7.038l-.558 4.212c-.27 2.106-.684 2.826-1.386 2.826v1.872zm11.251-8.91V158h5.256c1.944 0 3.024-1.314 3.024-2.862 0-1.53-1.008-2.844-3.024-2.844h-2.97v-2.988h-2.286zm4.914 4.896c.648 0 1.026.396 1.026.936s-.378.936-1.026.936h-2.628v-1.872h2.628zM251.81 158v-6.696h2.43v-1.998h-7.164v1.998h2.43V158h2.304zm11.369 0v-5.616c0-2.502-1.818-3.294-3.798-3.294-1.368 0-2.736.432-3.798 1.368l.864 1.53c.738-.684 1.602-1.026 2.538-1.026 1.152 0 1.908.576 1.908 1.458v1.17c-.576-.684-1.602-1.062-2.754-1.062-1.386 0-3.024.774-3.024 2.808 0 1.944 1.638 2.88 3.024 2.88 1.134 0 2.16-.414 2.754-1.116v.9h2.286zm-4.122-1.332c-.9 0-1.638-.468-1.638-1.278 0-.846.738-1.314 1.638-1.314.738 0 1.458.252 1.836.756v1.08c-.378.504-1.098.756-1.836.756zM269.353 158v-6.696h2.43v-1.998h-7.164v1.998h2.43V158h2.304zm11.369 0v-5.616c0-2.502-1.818-3.294-3.798-3.294-1.368 0-2.736.432-3.798 1.368l.864 1.53c.738-.684 1.602-1.026 2.538-1.026 1.152 0 1.908.576 1.908 1.458v1.17c-.576-.684-1.602-1.062-2.754-1.062-1.386 0-3.024.774-3.024 2.808 0 1.944 1.638 2.88 3.024 2.88 1.134 0 2.16-.414 2.754-1.116v.9h2.286zm-4.122-1.332c-.9 0-1.638-.468-1.638-1.278 0-.846.738-1.314 1.638-1.314.738 0 1.458.252 1.836.756v1.08c-.378.504-1.098.756-1.836.756zM293.267 158v-8.694h-3.024l-2.106 5.184-2.142-5.184h-3.006V158h2.286v-5.652l2.34 5.652h1.044l2.322-5.652V158h2.286zm4.469 0l3.69-5.454V158h2.286v-8.694h-2.304l-3.582 5.256v-5.256h-2.286V158h2.196zm9.416.198c.792 0 1.458-.666 1.458-1.458 0-.792-.666-1.458-1.458-1.458-.792 0-1.458.666-1.458 1.458 0 .792.666 1.458 1.458 1.458z" fill="#F5F9FF"/><defs><linearGradient id="paint0_linear" x1="634" y1="80" x2="634" y2="177" gradientUnits="userSpaceOnUse"><stop stop-color="#0A3D76"/><stop offset="1" stop-color="#0C53A3"/></linearGradient><linearGradient id="paint1_linear" x1="634" y1="158" x2="634" y2="177" gradientUnits="userSpaceOnUse"><stop stop-color="#0A3D76"/><stop offset="1" stop-color="#0C53A3"/></linearGradient></defs></svg>