<svg width="450" height="210" fill="none" xmlns="http://www.w3.org/2000/svg"><g clip-path="url(#clip0)"><path d="M335.268 182.239l-25.984-15.003 25.984-15.003v30.006zm-68.257 0l25.983-15.003-25.983-15.003v30.006zm-8.568 0l-25.984-15.003 25.984-15.003v30.006zm-67.935 0l25.983-15.003-25.983-15.003v30.006zm-8.567 0l-25.984-15.003 25.984-15.003v30.006zm-67.936 0l25.983-15.003-25.983-15.003v30.006zm-8.567 0l-25.984-15.003 25.984-15.003v30.006zm-67.936 0l25.944-15.003-25.944-15.003v30.006zm-8.567 0L2.952 167.236l25.983-15.003v30.006zm382.956 0l-25.984-15.003 25.984-15.003v30.006zm-68.257 0l25.983-15.003-25.983-15.003v30.006zm76.623 0l25.944-15.003-25.944-15.003v30.006z" fill="#0A3D76"/><path d="M332.774 135.098l-21.037-12.147 21.037-12.147v24.294z" fill="#0E4E96"/><path d="M409.397 135.098l-21.036-12.147 21.036-12.147v24.294zm-63.31 0l21.037-12.147-21.037-12.147v24.294z" fill="#2B6BB3"/><path d="M269.504 110.804l21.036 12.147-21.036 12.147v-24.294z" fill="#0E4E96"/><path d="M256.191 110.804l-21.037 12.147 21.037 12.147v-24.294z" fill="#2B6BB3"/><path d="M422.71 135.098l21.037-12.147-21.037-12.147v24.294z" fill="#0E4E96"/><path d="M270.43 88.52l17.054-9.853-17.054-9.855v19.709zm61.419 0l-17.055-9.853 17.055-9.855v19.709z" fill="#2B6BB3"/><path d="M347.053 88.52l17.014-9.853-17.014-9.855v19.709z" fill="#639CDC"/><path d="M408.472 88.52l-17.054-9.853 17.054-9.855v19.709z" fill="#2B6BB3"/><path d="M423.636 88.52l17.054-9.853-17.054-9.855v19.709z" fill="#639CDC"/><path d="M272.601 40.737l10.739-6.235-10.739-6.194v12.429z" fill="#2B6BB3"/><path d="M329.677 40.737l-10.739-6.235 10.739-6.194v12.429z" fill="#639CDC"/><path d="M349.225 40.737l10.739-6.235-10.739-6.194v12.429z" fill="#2B6BB3"/><path d="M406.34 40.737l-10.739-6.235 10.739-6.194v12.429z" fill="#639CDC"/><path d="M425.848 40.737l10.739-6.235-10.739-6.194v12.429zm-232.967 70.107l21.036 12.107-21.036 12.187v-24.294zm-76.624 0l21.037 12.107-21.037 12.187v-24.294z" fill="#2B6BB3"/><path d="M179.567 110.844l-21.036 12.107 21.036 12.187v-24.294zm-76.623 0l-21.036 12.107 21.036 12.187v-24.294zm-63.31-.04l21.036 12.147-21.036 12.147v-24.294zm-13.274 0L5.326 122.951l21.036 12.147v-24.294z" fill="#0E4E96"/><path d="M372.272 158.668l-23.369-13.474 23.369-13.515v26.989zm1.287 45.773l-25.983-15.003 25.983-15.002v30.005z" fill="#0A3D76"/><path d="M370.06 111.85l-18.945-10.941 18.945-10.94v21.881z" fill="#2B6BB3"/><path d="M383.253 158.668l23.369-13.474-23.369-13.515v26.989z" fill="#0E4D94"/><path d="M381.925 204.441l25.984-15.003-25.984-15.002v30.005z" fill="#0A3D76"/><path d="M385.465 111.85l18.945-10.941-18.945-10.94v21.881z" fill="#0E4E96"/><path d="M448.896 158.668l-23.41-13.474 23.41-13.515v26.989zm1.286 45.773l-25.983-15.003 25.983-15.002v30.005z" fill="#0A3D76"/><path d="M446.643 111.85l-18.905-10.941 18.905-10.94v21.881z" fill="#0E4E96"/><path d="M142.442 158.668l-23.369-13.474 23.369-13.515v26.989z" fill="#0A3D76"/><path d="M153.383 158.668l23.409-13.474-23.409-13.515v26.989z" fill="#0E4D94"/><path d="M219.025 158.668l-23.369-13.474 23.369-13.515v26.989z" fill="#0A3D76"/><path d="M230.006 158.668l23.369-13.474-23.369-13.515v26.989z" fill="#2B6BB3"/><path d="M76.8 131.679l23.368 13.475-23.369 13.514v-26.989z" fill="#0A3D76"/><path d="M65.819 131.679l-23.37 13.475 23.37 13.514v-26.989z" fill="#0E4D94"/><path d="M.176 131.679l23.37 13.475-23.37 13.514v-26.989z" fill="#0A3D76"/><path d="M295.648 158.668l-23.369-13.474 23.369-13.515v26.989z" fill="#2B6BB3"/><path d="M296.936 204.441l-25.944-15.003 25.944-15.002v30.005z" fill="#0A3D76"/><path d="M293.436 111.85l-18.944-10.941 18.944-10.94v21.881zm-3.298-96.332l-5.349-3.098 5.349-3.097v6.194zm22.002 0l5.349-3.098-5.349-3.097v6.194zm-306.252 0l5.35-3.098-5.35-3.097v6.194zm382.835 0l5.389-3.098-5.389-3.097v6.194zm-328.656 0l-5.35-3.098 5.35-3.097v6.194zm76.623 0l-5.349-3.098 5.349-3.097v6.194zm98.585 0l5.349-3.098-5.349-3.097v6.194z" fill="#639CDC"/><path d="M306.629 158.668l23.369-13.474-23.369-13.515v26.989zm-1.287 45.773l25.944-15.003-25.944-15.002v30.005zm-84.989 0l-25.984-15.003 25.984-15.002v30.005zm8.366 0l25.983-15.003-25.983-15.002v30.005zm-84.99 0l-25.983-15.003 25.983-15.002v30.005zm8.367 0l25.983-15.003-25.983-15.002v30.005zm-84.99 0l-25.943-15.003 25.943-15.002v30.005zm8.366 0l25.984-15.003-25.984-15.002v30.005zm-76.582 0l25.942-15.003-25.943-15.002v30.005z" fill="#0A3D76"/><path d="M308.842 111.85l18.944-10.941-18.944-10.94v21.881zm-306.454 0l18.945-10.941-18.945-10.94v21.881z" fill="#0E4E96"/><path d="M155.032 89.969l18.904 10.94-18.904 10.941V89.969z" fill="#2B6BB3"/><path d="M140.914 89.969l-18.945 10.94 18.945 10.941V89.969zm-62.506 0l18.945 10.94-18.945 10.941V89.969z" fill="#0E4E96"/><path d="M64.491 89.969l-18.904 10.94L64.49 111.85V89.969zm167.727 0l18.945 10.94-18.945 10.941V89.969z" fill="#639CDC"/><path d="M216.813 89.969l-18.904 10.94 18.904 10.941V89.969z" fill="#0E4E96"/><path d="M309.002 65.514l15.325-8.85-15.325-8.848v17.698zm76.583 0l15.365-8.85-15.365-8.848v17.698zm60.937 0l-15.325-8.85 15.325-8.848v17.698zM25.395 88.52L8.341 78.668l17.054-9.855v19.709z" fill="#2B6BB3"/><path d="M40.6 88.52l17.054-9.853L40.6 68.811V88.52z" fill="#639CDC"/><path d="M102.019 88.52l-17.054-9.853 17.054-9.855v19.709zm15.204 0l17.014-9.853-17.014-9.855v19.709z" fill="#2B6BB3"/><path d="M23.264 40.737l-10.74-6.235 10.74-6.194v12.429z" fill="#639CDC"/><path d="M42.812 40.737l10.739-6.235-10.74-6.194v12.429z" fill="#2B6BB3"/><path d="M99.887 40.737l-10.74-6.235 10.74-6.194v12.429zm19.548 0l10.739-6.235-10.739-6.194v12.429z" fill="#639CDC"/><path d="M2.55 65.514l15.324-8.85-15.325-8.848v17.698zm60.896 0l-15.325-8.85 15.325-8.848v17.698z" fill="#2B6BB3"/><path d="M178.844 88.52l-17.014-9.853 17.014-9.855v19.709z" fill="#639CDC"/><path d="M194.047 88.52l17.055-9.853-17.055-9.855v19.709zm61.419 0l-17.054-9.853 17.054-9.855v19.709zm-78.714-47.783l-10.74-6.235 10.74-6.194v12.429z" fill="#2B6BB3"/><path d="M196.3 40.737l10.739-6.235-10.739-6.194v12.429zm57.075 0l-10.739-6.235 10.739-6.194v12.429z" fill="#639CDC"/><path d="M155.997 65.514l15.325-8.85-15.325-8.848v17.698zm76.624 0l15.324-8.85-15.324-8.848v17.698z" fill="#2B6BB3"/></g><defs><clipPath id="clip0"><path fill="#fff" d="M0 0h450v210H0z"/></clipPath></defs></svg>