<svg width="450" height="210" fill="none" xmlns="http://www.w3.org/2000/svg"><path d="M335.311 165.797l-25.959-14.989 25.959-14.989v29.978zm0 44.203l-25.959-14.989 25.959-14.989V210zm8.377 0l25.959-14.989-25.959-14.989V210zm-76.931-44.203l25.96-14.989-25.96-14.989v29.978zm-9.008 0l-25.96-14.989 25.96-14.989v29.978zm-67.922 0l25.96-14.989-25.96-14.989v29.978zm-9.008 0l-25.96-14.989 25.96-14.989v29.978zm-67.922 0l25.96-14.989-25.96-14.989v29.978zm-8.009 0l-25.96-14.989 25.96-14.989v29.978zm-68.071 0l25.92-14.989-25.92-14.989v29.978zm-8.859 0l-25.96-14.989 25.96-14.989v29.978zM266.757 210l25.96-14.989-25.96-14.989V210zm-9.008 0l-25.96-14.989 25.96-14.989V210zm-67.922 0l25.96-14.989-25.96-14.989V210zm-9.008 0l-25.96-14.989 25.96-14.989V210zm-67.922 0l25.96-14.989-25.96-14.989V210zm-8.009 0l-25.96-14.989 25.96-14.989V210zm-68.071 0l25.92-14.989-25.92-14.989V210zm-8.859 0l-25.96-14.989 25.96-14.989V210zm383.907-44.203l-25.96-14.989 25.96-14.989v29.978zm-68.177 0l25.959-14.989-25.959-14.989v29.978zm76.929 0l25.92-14.989-25.92-14.989v29.978zM411.865 210l-25.96-14.989 25.96-14.989V210zm8.752 0l25.92-14.989-25.92-14.989V210z" fill="#0A3D76"/><path d="M332.733 118.7l-21.017-12.136 21.017-12.136V118.7z" fill="#0E4E96"/><path d="M409.374 118.7l-21.018-12.136 21.018-12.136V118.7zm-65.686 0l21.017-12.136-21.017-12.136V118.7z" fill="#2B6BB3"/><path d="M266.757 94.428l21.017 12.136-21.017 12.136V94.428z" fill="#0E4E96"/><path d="M257.802 94.428l-21.017 12.136 21.017 12.136V94.428z" fill="#2B6BB3"/><path d="M420.617 118.7l21.017-12.136-21.017-12.136V118.7z" fill="#0E4E96"/><path d="M266.757 72.166l17.039-9.845-17.039-9.846v19.691zm65.995 0l-17.039-9.845 17.039-9.846v19.691z" fill="#2B6BB3"/><path d="M343.688 72.166l16.998-9.845-16.998-9.846v19.691z" fill="#639CDC"/><path d="M408.449 72.166l-17.038-9.845 17.038-9.846v19.691z" fill="#2B6BB3"/><path d="M420.617 72.166l17.039-9.845-17.039-9.846v19.691z" fill="#639CDC"/><path d="M189.827 94.469l21.017 12.095-21.017 12.176V94.469zm-76.93 0l21.018 12.095-21.018 12.176V94.469z" fill="#2B6BB3"/><path d="M180.872 94.469l-21.018 12.095 21.018 12.176V94.469zm-75.931 0l-21.017 12.095 21.017 12.176V94.469zm-65.994-.041l21.017 12.136L38.947 118.7V94.428zm-10.937 0L6.995 106.564 28.01 118.7V94.428z" fill="#0E4E96"/><path d="M372.03 142.248l-23.347-13.462 23.347-13.502v26.964zm-73.932 0l-23.348-13.462 23.348-13.502v26.964zm73.547 45.731l-25.959-14.989 25.959-14.989v29.978zm-73.932 0l-25.96-14.989 25.96-14.989v29.978z" fill="#0A3D76"/><path d="M371.607 95.473l-18.928-10.93 18.928-10.93v21.86z" fill="#2B6BB3"/><path d="M383.651 142.248l23.348-13.462-23.348-13.502v26.964z" fill="#0E4D94"/><path d="M383.651 187.979l25.96-14.989-25.96-14.989v29.978z" fill="#0A3D76"/><path d="M383.651 95.473l18.927-10.93-18.927-10.93v21.86z" fill="#0E4E96"/><path d="M450 142.248l-23.388-13.462L450 115.284v26.964zm-.425 45.731l-25.96-14.989 25.96-14.989v29.978z" fill="#0A3D76"/><path d="M449.496 95.473l-18.888-10.93 18.888-10.93v21.86z" fill="#0E4E96"/><path d="M141.662 142.248l-23.348-13.462 23.348-13.502v26.964z" fill="#0A3D76"/><path d="M152.593 142.248l23.388-13.462-23.388-13.502v26.964z" fill="#0E4D94"/><path d="M66.309 142.248L42.96 128.786l23.348-13.502v26.964z" fill="#0A3D76"/><path d="M77.24 142.248l23.388-13.462-23.388-13.502v26.964zm-77.24 0l23.388-13.462L0 115.284v26.964z" fill="#0E4D94"/><path d="M220.169 142.248l-23.348-13.462 23.348-13.502v26.964z" fill="#0A3D76"/><path d="M227.793 142.248l23.348-13.462-23.348-13.502v26.964z" fill="#2B6BB3"/><path d="M306.721 142.248l23.348-13.462-23.348-13.502v26.964zm0 45.731l25.92-14.989-25.92-14.989v29.978zm-86.937 0l-25.96-14.989 25.96-14.989v29.978zm8.009 0l25.96-14.989-25.96-14.989v29.978zm-84.845 0l-25.96-14.989 25.96-14.989v29.978zm8.359 0l25.96-14.989-25.96-14.989v29.978zm-84.913 0l-25.92-14.989 25.92-14.989v29.978zm8.359 0l25.96-14.989-25.96-14.989v29.978zm-74.753 0l25.92-14.989L0 158.001v29.978z" fill="#0A3D76"/><path d="M306.721 95.473l18.928-10.93-18.928-10.93v21.86zM0 95.473l18.927-10.93L0 73.613v21.86z" fill="#0E4E96"/><path d="M154.24 73.613l18.887 10.93-18.887 10.93v-21.86z" fill="#2B6BB3"/><path d="M140.135 73.613l-18.927 10.93 18.927 10.93v-21.86zm-62.449 0l18.927 10.93-18.927 10.93v-21.86z" fill="#0E4E96"/><path d="M63.782 73.613l-18.887 10.93 18.887 10.93v-21.86zm164.011 0l18.927 10.93-18.927 10.93v-21.86z" fill="#639CDC"/><path d="M219.705 73.613l-18.888 10.93 18.888 10.93v-21.86zm77.929 0l-18.887 10.93 18.887 10.93v-21.86z" fill="#0E4E96"/><path d="M309.07 53.177l15.311-8.841-15.311-8.84v17.68zm74.581 0l15.351-8.841-15.351-8.84v17.68zm66.264 0l-15.311-8.841 15.311-8.84v17.68zM28.029 72.166L10.99 62.321l17.039-9.846v19.691z" fill="#2B6BB3"/><path d="M39.912 72.166l17.039-9.845-17.039-9.846v19.691z" fill="#639CDC"/><path d="M104.959 72.166l-17.04-9.845 17.04-9.846v19.691zm7.938 0l16.999-9.845-16.999-9.846v19.691zM0 53.177l15.31-8.841L0 35.496v17.68zm62.737 0l-15.31-8.841 15.31-8.84v17.68z" fill="#2B6BB3"/><path d="M180.85 72.166l-16.999-9.845 16.999-9.846v19.691z" fill="#639CDC"/><path d="M189.827 72.166l17.039-9.845-17.039-9.846v19.691zm67.992 0l-17.038-9.845 17.038-9.846v19.691zM155.205 53.177l15.31-8.841-15.31-8.84v17.68zm72.588 0l15.311-8.841-15.311-8.84v17.68z" fill="#2B6BB3"/></svg>