<svg width="375" height="680" fill="none" xmlns="http://www.w3.org/2000/svg"><g clip-path="url(#clip0)"><path fill="#fff" d="M0 680h375V0H0z"/><path d="M212.396 400.426l-46.069-80.01c0 2.148 36.104 63.363 46.069 80.163v-.153z" fill="#C2D5E5"/><path d="M212.396 532.907l-46.069 37.282s22.536-17.874 46.069-36.745v-.537z" fill="#B9D0E2"/><path d="M212.396 341.358c-23.379-11.123-46.069-21.786-46.069-20.942l46.069 21.556v-.614z" fill="#C2D5E5"/><path d="M212.396 485.959l-46.069-2.608 46.069 3.145v-.537z" fill="#B9D0E2"/><path d="M195.528 638.89l-29.201 46.137 46.069.69h27.985l-44.853-46.827z" fill="#D3E1ED"/><path d="M260.457 628.243l-65.439 10.392 45.059 47.142 20.38-57.534z" fill="#E1EAF2"/><path d="M213.31 597.193l-46.982-26.927 29.201 68.369 65.841-10.392-48.06-31.05z" fill="#D0DFEB"/><path d="M271.457 489.435c-23.532 18.871-105.13 80.831-105.13 80.831l94.434 58.282 10.696-139.113z" fill="#E1EAF2"/><path d="M284.841 372.278l119.35-51.814-132.813 169.527 13.463-117.713z" fill="#E6EEF5"/><path d="M214.83 486.082l-48.503-2.731v86.915l46.982-35.782 58.148-44.776-56.627-3.626z" fill="#B9D0E2"/><path d="M215.134 405.109l-48.807 78.242 46.069 2.609 59.061 3.748-56.323-84.599zm69.964-32.831l-118.77-51.862 48.807 84.693 69.963-32.831z" fill="#C2D5E5"/><path d="M192.21 198.366l-25.96 122.05c0-.844 22.689 9.819 46.069 20.942l73.033 31.175-93.142-174.167z" fill="#ADC7DC"/><path d="M-14.115 646.287l-54.654 52.625 100.953-96.504-46.299 43.879z" fill="#D0DFEB"/><path d="M75.647 724.84s30.814-70.575 30.814-71.035L75.647 724.84zm45.378-391.307l-40.703 10.28-100.953 28.383c0 .077 86.312-23.857 141.656-38.663z" fill="#C2D5E5"/><path d="M-52.671 465.324c5.595 11.737 84.855 137.161 84.855 137.161l-85.239-138.081.154.307c0 .153.076.383.23.613z" fill="#E1EAF2"/><path d="M106.461 653.805l-74.277-51.397c1.993 1.841 74.277 51.397 74.277 51.397z" fill="#ADC7DC"/><path d="M-69.842 559.143l102.026 43.265-40.32-17.106-61.706-26.159z" fill="#E1EAF2"/><path d="M.832 463.33l-21.463-91.057 52.814 230.135L.833 463.33zm105.629 190.475c0 .384-30.814 71.035-30.814 71.035l54.653-23.78-23.839-47.255z" fill="#E6EEF5"/><path d="M166.327 685.564l-59.866-31.759-30.358 70.636 90.224-38.877z" fill="#ADC7DC"/><path d="M166.327 685.564v-.537l29.456-46.137-89.322 14.915 59.866 31.759z" fill="#E1EAF2"/><path d="M71.89 685.947l-47.678 43.88 51.434-4.987 30.815-71.035-34.57 32.142z" fill="#C2D5E5"/><path d="M-7.063 695.153l78.954-9.206-39.707-83.539-39.246 92.745z" fill="#C2D5E5"/><path d="M-68.769 698.912l61.707-3.759 39.246-92.745-100.953 96.504z" fill="#D0DFEB"/><path d="M71.89 685.947l34.571-32.142s-72.284-49.556-74.277-51.397l39.706 83.539z" fill="#B9D0E2"/><path d="M106.461 653.805s7.512-108.624 7.512-110.311l-81.79 58.914 74.278 51.397z" fill="#ADC7DC"/><path d="M106.461 653.805l60.642-84.269-53.207-25.966c.077 1.611-7.435 110.235-7.435 110.235z" fill="#C2D5E5"/><path d="M195.783 639.146l-29.456-68.88v-.537l-59.866 84.076 89.322-14.659z" fill="#E6EEF5"/><path d="M166.327 569.729v-85.841c0 .537-53.313 59.95-53.313 59.95l53.313 25.891z" fill="#E1EAF2"/><path d="M-69.841 559.143l-36.507 87.145h92.31l46.3-43.88-102.103-43.265z" fill="#D3E1ED"/><path d="M113.973 543.494l-24.3-91.901-57.49 150.815 81.79-58.914z" fill="#E1EAF2"/><path d="M285.097 372.278l-70.267 32.831 56.578 84.627 8.821-66.971s4.178-49.106 4.868-50.487z" fill="#ADC7DC"/><path d="M-52.978 464.48l-16.788 94.663 61.707 26.158 40.32 17.107c-.077 0-79.644-126.191-85.24-137.928z" fill="#B9D0E2"/><path d="M113.973 543.494s52.354-59.069 52.354-59.606l-76.653-32.295 24.299 91.901zm-81.789 58.914L-20.63 372.273l-32.425 92.131 85.239 138.004z" fill="#E6EEF5"/><path d="M166.327 483.889V320.482c-2.529 8.899-76.653 131.111-76.653 131.111l76.653 32.296z" fill="#D0DFEB"/><path d="M32.183 602.408l57.49-150.815L.833 463.33l31.351 139.078z" fill="#D3E1ED"/><path d="M89.674 451.593l-110.305-79.32L.832 463.33l88.842-11.737z" fill="#D0DFEB"/><path d="M-20.63 372.273L89.673 451.67s74.08-122.016 76.61-130.914l-45.259 12.854C65.68 348.339-20.632 372.273-20.632 372.273z" fill="#C2D5E5"/><path d="M166.328 483.352V319.415c0 2.224 38.842 68.894 48.807 85.694l-2.434 3.958-46.373 74.285z" fill="#E1EAF2"/><path d="M5.673 146.27l-26.304 226.003 81.678-107.764L5.673 146.27z" fill="#E6EEF5"/><path d="M60.792 263.743l-80.638 108.024 140.782-37.889 45.074-12.849-105.218-57.286z" fill="#E1EAF2"/><path d="M61.048 263.88l106.002 57.833 25.161-123.347L61.048 263.88z" fill="#D3E1ED"/><path d="M192.211 198.366l92.885 173.867 113.155-47.793-206.04-126.074z" fill="#D3E1ED"/><path d="M469.305 402.158l-197.848 87.55 138.837 25.691 59.011-113.241z" fill="#B9D0E2"/><path d="M398.251 325.353L271.457 489.708l196.147-85.816-69.353-78.539z" fill="#C4D7E6"/><path d="M-95.124 244.59l74.494 127.683L5.673 145.504-95.124 244.59z" fill="#D3E1ED"/><path d="M416.359 715.926l-29.638-46.281-61.011 33.182 90.649 13.099z" fill="#B9D0E2"/><path d="M348.301 749.08c-9.45-19.441-22.615-46.926-22.482-46.405l-85.778-16.95 117.739 82.289c-.581-1.356-4.717-9.223-9.479-18.934z" fill="#E6EEF5"/><path d="M259.544 628.547l-19.503 57.178 85.65 17.026c.019.075-65.306-73.072-66.147-74.204z" fill="#D0DFEB"/><path d="M325.71 702.826l-16.7-82.819-49.77 8.54 66.47 74.279z" fill="#C4D7E6"/><path d="M325.71 702.826l61.011-33.181-77.71-49.638 16.699 82.819z" fill="#ADC7DC"/><path d="M386.389 669.947l87.603-19.178-38.935-49.619-48.668 68.797z" fill="#ADC7DC"/><path d="M309.01 620.007l77.71 49.638 49.858-70.017-127.568 20.379z" fill="#B9D0E2"/><path d="M260.457 628.852l48.554-8.845-37.554-130.573-11 139.418z" fill="#D3E1ED"/><path d="M410.907 514.915L309.01 620.007l88.501-12.158s37.564-6.015 37.545-6.09c.49-3.053-24.478-85.335-24.149-86.844z" fill="#D3E1ED"/><path d="M410.907 514.915l-139.45-25.207 37.553 130.299 101.897-105.092z" fill="#C4D7E6"/><path d="M398.251 325.962l-16.44-82.139-189.6-45.457 206.04 127.596zM310.87 147.063l119.351 51.813L297.346 29.308l13.524 117.755z" fill="#E6EEF5"/><path d="M240.858 33.258L171.796 43.89l20.559-94.817 46.982 35.782 58.149 44.776-56.628 3.626z" fill="#ADC7DC"/><path d="M241.162 114.231l-69.366-70.34 66.628-10.51 59.062-3.749-56.324 84.599zm69.964 32.831l-119.17 51.305 49.207-84.136 69.963 32.831z" fill="#C2D5E5"/><path d="M192.357-50.389l-20.561 94.535c0-.537-32.753-68.644-32.753-68.644l53.314-25.89z" fill="#E1EAF2"/><path d="M140.002-24.153l-24.299 91.9-57.49-150.815 81.789 58.915z" fill="#E1EAF2"/><path d="M-26.225 55.867l-17.512-95.67 61.706-26.159 40.32-17.106c-.077 0-78.918 127.198-84.514 138.935z" fill="#E1EAF2"/><path d="M140.002-24.153s31.795 67.762 31.795 68.299l-56.094 23.601 24.299-91.9zM59.261-85.1L5.398 147.067l-32.424-92.132L59.26-85.1z" fill="#E6EEF5"/><path d="M171.797 43.89l20.56 154.968c-2.53-8.899-76.654-131.111-76.654-131.111l56.094-23.857z" fill="#D0DFEB"/><path d="M58.213-83.068l57.49 150.815-88.842-11.736L58.213-83.07z" fill="#D3E1ED"/><path d="M115.702 67.748L5.397 147.067 26.86 56.011l88.842 11.736z" fill="#D0DFEB"/><path d="M5.397 147.067L115.702 67.67s74.081 122.016 76.61 130.914l-45.259-12.854C91.709 171.001 5.397 147.067 5.397 147.067z" fill="#C2D5E5"/><path d="M-27.026 54.937l32.424 92.131-136.443-6.674 104.019-85.458z" fill="#D0DFEB"/><path d="M171.796 43.89l20.414 154.732c.582-1.892 39.559-67.266 48.953-84.391l-2.434-3.958-66.933-66.383z" fill="#E1EAF2"/><path d="M60.282 264.764L5.672 147.036l186.794 51.331-132.184 66.397z" fill="#E1EAF2"/><path d="M191.956 198.367l119.169-51.259L424.28 194.9l-232.324 3.467z" fill="#D3E1ED"/><path d="M495.333 117.182l-197.848-87.55L436.322 3.941l59.011 113.241z" fill="#B9D0E2"/><path d="M-95.124 244.334l-35.921-103.941 136.443 6.674-100.522 97.267zm519.404-50.347L297.486 29.632l196.147 85.817-69.353 78.538z" fill="#C4D7E6"/><path d="M436.936 4.425L335.039-100.667l88.501 12.158 37.633 6.244s-24.565 85.181-24.237 86.69z" fill="#D3E1ED"/><path d="M436.935 4.425l-139.45 25.207 37.554-130.299L436.935 4.425z" fill="#C7D9E8"/><path d="M423.916 194.281l-231.705 4.086 190.621 46.223 41.084-50.309z" fill="#ADC7DC"/><path d="M297.346 29.563l-56.395 84.785 69.92 32.688-13.525-117.473z" fill="#D3E1ED"/><path d="M336.389-101.189L297.346 30.074l-20.925-161.909 59.968 30.646z" fill="#C2D5E5"/><path d="M191.956-49.859l84.465-83.508 20.925 163.185-105.39-79.677z" fill="#B9D0E2"/></g><defs><clipPath id="clip0"><path fill="#fff" transform="matrix(1 0 0 -1 0 680)" d="M0 0h375v680H0z"/></clipPath></defs></svg>