<svg width="1920" height="1080" fill="none" xmlns="http://www.w3.org/2000/svg"><g clip-path="url(#clip0)"><path fill="#fff" d="M0 0h1920v1080H0z"/><path d="M1130.55 263.112l-90.27-156.653c0 4.206 70.75 124.061 90.27 156.953v-.3z" fill="#C2D5E5"/><path d="M1130.55 892.574c-36.2-29.288-90.27-73.145-90.27-72.394v1.052l90.27 71.792v-.45zm0-370.078l-90.27 72.994s44.16-34.995 90.27-71.943v-1.051z" fill="#B9D0E2"/><path d="M1130.55 147.462c-45.81-21.778-90.27-42.655-90.27-41.003l90.27 42.205v-1.202z" fill="#C2D5E5"/><path d="M1130.55 430.577l-90.27-5.106 90.27 6.158v-1.052z" fill="#B9D0E2"/><path d="M1162.74 915.373l-122.46 45.539L968 984.5l72.28 18.17 108.75 26.54 13.71-113.837z" fill="#ADC7DC"/><path d="M1129.59 1024.56l-89.3-21.89-71.79-18.17 162 115 18.53-70.29-19.44-4.65z" fill="#E1EAF2"/><path d="M1185.25 821.698l-144.97-1.367c0-.751 85.07 66.946 121.26 96.234l23.71-94.867z" fill="#B9D0E2"/><path d="M1130.55 789.582l-90.27-51.107v81.856l90.27 1.352h54.83l-54.83-32.101z" fill="#D3E1ED"/><path d="M1224.72 709.154l-184.44 29.321 144.51 83.324 39.93-112.645z" fill="#E1EAF2"/><path d="M1132.34 648.361l-92.06-52.72v142.834l90.27-8.11 95.96-21.211-94.17-60.793z" fill="#D0DFEB"/><path d="M1246.27 437.381c-46.11 36.948-205.99 158.259-205.99 158.259l185.04 114.11 20.95-272.369z" fill="#E1EAF2"/><path d="M1272.5 208l233.85-101.445-260.23 331.916L1272.5 208z" fill="#E6EEF5"/><path d="M1135.32 430.818L1000 410l40.28 185.641 92.06-70.058 113.93-87.667-110.95-7.098z" fill="#B9D0E2"/><path d="M1135.92 272.28L1000 410l130.55 20.577 115.72 7.339-110.35-165.636z" fill="#C2D5E5"/><path d="M1273 208l-232.72-101.541 95.64 165.822L1273 208z" fill="#C2D5E5"/><path d="M1792.72 218.64l-162.13 51.205 92.66 18.659 69.47-69.864z" fill="#D3E1ED"/><path d="M1623.5 837.5L1472 790l56.96 90.935 94.54-43.435z" fill="#C2D5E5"/><path d="M1097.43-8.439h-57.3v114.898c0-1.652 44.46 19.225 90.27 41.003l143.1 61.038L1097.43-8.439z" fill="#ADC7DC"/><path d="M915.775 1171.48l214.725-71.98-163-116" fill="#E6EEF5"/><path d="M968.343 984.493l-105.737-86.212 40.252 201.109-1.051.3 13.968 71.79" fill="#D0DFEB"/><path d="M227.435-8.439c20.576 70.29 39.951 136.226 39.951 136.226L227.735-8.439h-.3z" fill="#ADC7DC"/><path d="M325.063 889.27L216.022 783.684c1.052 2.553 109.041 105.586 109.041 105.586z" fill="#D0DFEB"/><path d="M579.64 847.516l-122.708 8.26 243.614-15.62-120.906 7.36z" fill="#D3E1ED"/><path d="M969.244 985.244l24.031 19.526-23.73-19.676-.301.15z" fill="#D0DFEB"/><path d="M969.695 851.571l-107.089 46.711 177.684-76.9-70.595 30.189z" fill="#E1EAF2"/><path d="M18.364 964.216L37.89 1074.31 3.646 873.649l14.718 90.567z" fill="#D3E1ED"/><path d="M686.729 744.483L579.641 847.516l197.805-188.944-90.717 85.911z" fill="#D0DFEB"/><path d="M647.378 923.664l-190.446-67.887c3.454 3.003 190.446 67.887 190.446 67.887z" fill="#D3E1ED"/><path d="M862.606 898.281s60.378-138.178 60.378-139.079l-60.378 139.079z" fill="#C2D5E5"/><path d="M788.861 1018.89c-9.312-6.31-142.234-96.878-141.483-95.376l141.483 95.376z" fill="#D3E1ED"/><path d="M456.932 855.776l30.789 33.193c-17.572-19.074-29.738-32.141-30.789-33.193 0 0 0-.15 0 0zm50.467-112.194l70.141-169.719c-1.352 2.703-67.888 164.161-70.141 169.719z" fill="#ADC7DC"/><path d="M113.587 26.406l293.028 194.651-139.229-93.27L113.587 26.406z" fill="#B9D0E2"/><path d="M173.065 607.806l-86.662-54.07.15.151a90874.665 90874.665 0 0085.611 54.82l.901-.901z" fill="#D0DFEB"/><path d="M-36.607 474.584c1.05.901 39.2 25.533 82.606 53.319l-82.606-53.319z" fill="#D3E1ED"/><path d="M951.519 132.143l-79.753 20.126-197.805 55.571c0 .151 169.118-46.71 277.558-75.697z" fill="#C2D5E5"/><path d="M789.161 1018.29c-2.253-10.82-27.336-110.246-27.336-110.246l27.336 110.246z" fill="#ADC7DC"/><path d="M-71 1083.32l89.365-119.103-63.532 82.903L-71 1082.87v.45zm682.181-693.145c10.964 22.98 166.264 268.547 166.264 268.547L610.43 388.373l.3.601c0 .3.15.751.451 1.201z" fill="#E1EAF2"/><path d="M168.107 1099.39l11.716 34.4-11.565-34.4-44.908-134.122 23.129 70.892 21.628 63.23z" fill="#C2D5E5"/><path d="M922.983 759.202l-145.538-100.63c3.905 3.604 145.538 100.63 145.538 100.63z" fill="#ADC7DC"/><path d="M88.355 161.43L76.94 222.709l.902.901c1.802-10.513 5.707-34.394 10.513-62.18z" fill="#E6EEF5"/><path d="M324.762 455.96l252.776 117.903-141.633-66.536-111.143-51.367z" fill="#C4D7E6"/><path d="M577.537 573.863l199.908 84.709-79.002-33.493-120.906-51.216z" fill="#E1EAF2"/><path d="M716.015 386.27l-42.054-178.28 103.484 450.582-61.43-272.302z" fill="#E6EEF5"/><path d="M490.875 957.908l47.612 141.482-81.555-243.613 33.943 102.131z" fill="#ADC7DC"/><path d="M354.048 1028.2l-8.411-40.252c4.355 20.722 7.81 37.402 8.411 40.252z" fill="#E1EAF2"/><path d="M968.343 984.493l.157.007 71.79-163.118-71.947 163.111z" fill="#D3E1ED"/><path d="M212.116 349.923L324.762 455.96 212.417 350.223l-.301-.3zm689.69 749.767l1.202-.15-40.252-201.259s-73.295 123.459-73.295 121.059" fill="#E1EAF2"/><path d="M789.699 1018.14l-49.952 81.25-18.174 29.59 180.233-29.29" fill="#E6EEF5"/><path d="M789.31 1019.34c0-.15-.15-.45-.15-.9v.15l.15.75z" fill="#E6EEF5"/><path d="M788.861 1018.89l-141.542-96.564-17.129 125.784 159.121-28.77-.45-.45z" fill="#D3E1ED"/><path d="M789.311 1019.34l-157.403 26.13 57.975 53.92 31.691 29.59 18.173-29.59 49.564-80.05z" fill="#C2D5E5"/><path d="M456.932 855.777c1.051 1.051 13.217 14.118 30.639 33.042l44.307 47.912s98.828 107.089 99.879 108.739l15.621-121.806s-186.992-64.884-190.446-67.887z" fill="#E6EEF5"/><path d="M532.028 936.731l6.459 162.809 93.42-53.92c-1.051-1.8-99.879-108.889-99.879-108.889z" fill="#D3E1ED"/><path d="M487.721 888.819l-30.789-33.042 81.555 243.613-6.458-162.659-44.308-47.912z" fill="#ADC7DC"/><path d="M399.107 1099.39l-22.83 35.3 162.21-35.3-47.612-141.481-91.768 141.481z" fill="#C2D5E5"/><path d="M345.639 987.947l8.411 40.253.3.15 14.719 71.19 7.209 35.15 22.83-35.15 93.52-141.887-168.071-69.583c.15-1.202 12.521 58.424 21.082 99.877z" fill="#E1EAF2"/><path d="M490.876 957.908l-33.944-102.131-131.87 33.493 165.814 68.638z" fill="#B9D0E2"/><path d="M345.638 987.947c-8.561-41.453-20.576-99.728-20.576-98.677l-72.394 96.575 104.005 46.205c-.451-2.85-6.679-23.38-11.035-44.103z" fill="#E6EEF5"/><path d="M354.349 1028.35l-.3-.15h-.15l-101.231-42.505 94.472 113.695 29.138 35.3-7.21-35.3-14.719-71.04z" fill="#D3E1ED"/><path d="M216.022 783.684l36.275 205.55 72.766-100.114c0 .15-107.989-102.883-109.041-105.436z" fill="#D0DFEB"/><path d="M123.35 965.268l129.317 20.426-36.648-202.01-92.669 181.584z" fill="#E1EAF2"/><path d="M252.667 985.695L123.35 965.268l44.908 134.122 11.565 34.4v.15l.6 1.5 17.273-36.05 54.971-113.695z" fill="#C2D5E5"/><path d="M123.351 965.268l-85.46 109.042 108.59-38.15-23.13-70.892z" fill="#C2D5E5"/><path d="M3.646 873.649L37.89 1074.31l85.46-109.042L3.646 873.649z" fill="#D3E1ED"/><path d="M142.875 815.675L3.645 873.65l119.705 91.618 92.67-181.584-73.145 31.991z" fill="#C9D9E6"/><path d="M-71 1096.99l108.89-22.68L3.5 874-71 1083.32v13.67z" fill="#C7D6E3"/><path d="M1040.29 819.556L968.5 984.5l71.79-23.588 90.26-31.39 31.59-13.553-121.85-96.413z" fill="#D3E1ED"/><path d="M862.606 898.282l105.737 86.211 71.947-163.111-177.684 76.9z" fill="#E1EAF2"/><path d="M325.063 889.27l8.261-165.214-117.302 59.627L325.063 889.27z" fill="#C4D7E6"/><path d="M24.673 723.306c.9 2.253-21.027 150.494-21.027 150.494l139.229-58.125 73.295-31.841-191.497-60.528z" fill="#D3E1ED"/><path d="M325.062 889.27l131.87-33.493-123.61-131.721-8.26 165.214zm463.798 129.62l.601.3-.15-.9-27.185-110.396-114.448 15.47c-1.202-1.352 131.87 89.216 141.182 95.526z" fill="#C2D5E5"/><path d="M789.162 1019.74c0 2.41 76.007-122.571 76.007-122.571l-103.344 10.725c0 .15 25.234 101.186 27.337 111.846zm658.468 93.51l-32.21-130.439-88.78 119.709 120.99 10.73z" fill="#ADC7DC"/><path d="M922.984 759.202c0 .751-60.378 139.079-60.378 139.079l107.089-46.56-46.711-92.519z" fill="#E6EEF5"/><path d="M1040.28 821.382l-117.297-62.18 46.711 92.369 70.586-30.189z" fill="#ADC7DC"/><path d="M1040.28 821.382v-82.607l-117.297 20.427 117.297 62.18z" fill="#E1EAF2"/><path d="M855.246 822.133l-93.421 85.911 100.78-9.763 60.378-139.079-67.737 62.931z" fill="#C2D5E5"/><path d="M647.378 923.664l114.448-15.62-61.279-67.888-53.169 83.508z" fill="#E1EAF2"/><path d="M700.546 840.156l-243.614 15.62 190.446 67.888 53.168-83.508z" fill="#D3E1ED"/><path d="M761.825 908.044l93.421-85.911-154.7 18.024 61.279 67.887z" fill="#B9D0E2"/><path d="M700.546 840.156l154.7-18.023-77.801-163.561-76.899 181.584z" fill="#C2D5E5"/><path d="M579.641 847.516l120.906-7.36 76.899-181.584-197.805 188.944z" fill="#D0DFEB"/><path d="M507.247 743.732l-50.315 112.044 122.708-8.26-72.393-103.784z" fill="#E6EEF5"/><path d="M507.246 743.732l72.394 103.784 107.088-103.033-179.482-.751z" fill="#C2D5E5"/><path d="M333.321 724.056l123.61 131.721 50.315-112.045-173.925-19.676zm521.925 98.077l67.737-62.931s-141.633-97.026-145.538-100.63l77.801 163.561z" fill="#B9D0E2"/><path d="M1159.76 915.969l255.66 66.842s-226.26-157.509-230.17-161.113l-25.49 94.271z" fill="#C2D5E5"/><path d="M922.983 759.202s14.719-212.675 14.719-215.979L777.445 658.572l145.538 100.63z" fill="#ADC7DC"/><path d="M922.983 759.202l118.817-164.99-104.248-50.839c.15 3.154-14.569 215.829-14.569 215.829z" fill="#C2D5E5"/><path d="M1040.28 738.775V594.589L922.983 759.202l117.297-20.427z" fill="#E6EEF5"/><path d="M1471 790l152.27 47.607L1728 842.5 1471 790z" fill="#D0DFEB"/><path d="M1728 842.5l-84.88-89.837L1470.5 790l257.5 52.5z" fill="#E6EEF5"/><path d="M-71 822.283v36.798L3.646 873.65-71 822.283z" fill="#C4D7E6"/><path d="M24.674 723.155L-71 721.954-33 984 3.646 873.8c0-.15 21.929-148.392 21.027-150.645z" fill="#E1EAF2"/><path d="M-71 721.954l95.674 1.201-89.366-55.571-6.308-3.906v58.276z" fill="#ADC7DC"/><path d="M-64.692 667.584l89.365 55.571 147.49-114.447-236.855 58.876z" fill="#D0DFEB"/><path d="M-47.57 553.136l-17.122 113.997v.451l236.855-58.876-219.733-55.572z" fill="#E1EAF2"/><path d="M172.165 608.707s-40.402-25.833-85.61-54.821l.15.301-40.703-26.284c-43.406-27.786-81.555-52.418-82.606-53.319l-10.964 78.551 219.733 55.572z" fill="#E6EEF5"/><path d="M1040.29 594.589L1000 409.5c0 1.051-64.176 134.398-64.176 134.398l104.466 50.691z" fill="#E1EAF2"/><path d="M1817.93 1036.87l-89.84-50.951L1670.5 1195l267-38.5-8.77-55.4-110.8-64.23z" fill="#D3E1ED"/><path d="M1930.34 951.23l-202.25 34.689L1930.34 1102V951.23z" fill="#E1EAF2"/><path d="M1826.5 896.099l-98.41-53.599v143.419l93.05-13.278 111.87-19.805-106.51-56.737z" fill="#D0DFEB"/><path d="M1834.5 704L1728 842.5l203.41 110.336L1834.5 704zM1671 1195l57.09-208.781-117.3 20.431L1671 1195z" fill="#E1EAF2"/><path d="M1610.79 1006.65L1728 842.5l-105-5c.15 3.154-12.21 169.15-12.21 169.15z" fill="#C2D5E5"/><path d="M1728.09 986.219V842.308l-117.3 164.342 117.3-20.431z" fill="#E6EEF5"/><path d="M23.206 723.745l148.958-115.037 44.271 175.521-193.229-60.484z" fill="#C2D5E5"/><path d="M577.54 573.863l-71.53 170.62h180.871l90.717-85.911-200.058-84.709z" fill="#D3E1ED"/><path d="M937.702 543.223l-47.611-179.932-112.646 295.281 160.257-115.349z" fill="#E1EAF2"/><path d="M278.35 502.971L171.473 608.664l44.547 175.02L324.76 455.96l-46.41 47.011z" fill="#E6EEF5"/><path d="M610.729 388.974l.451 1.051c-.3-.3-.451-.751-.451-1.051z" fill="#7EA7C9"/><path d="M46 527.904l40.702 26.284-.15-.301-.15-.15-.901-.601-50.766-104.685-73.895-161.459 2.553 187.593L46 527.904z" fill="#D3E1ED"/><path d="M171.472 609.735L278.35 502.971 85.501 553.136l.901.601 85.07 55.998z" fill="#D0DFEB"/><path d="M216.022 783.684l117.302-59.628-8.561-268.096-108.741 327.724z" fill="#D3E1ED"/><path d="M577.537 573.863L333.321 724.056l173.925 19.676v-.15c2.403-5.558 68.939-167.016 70.291-169.719zM1273 208l-137.68 64.281 110.86 165.69 17.28-131.122s8.19-96.146 9.54-98.849z" fill="#ADC7DC"/><path d="M610.73 388.974l-.3-.601c0 .15.15.751.6 1.652l-.3-1.051z" fill="#E6EEF5"/><path d="M610.579 388.523l-32.892 185.339 120.906 51.216 79.002 33.494c-.15 0-156.052-247.069-167.016-270.049z" fill="#E1EAF2"/><path d="M1907.5 727l-73-23s94.79 246.649 95.84 248.301L1907.5 727z" fill="#C2D5E5"/><path d="M1988.14 647.203l-128.46-12.311L1833 705l74.5 22 80.64-79.797z" fill="#D3E1ED"/><path d="M1859.68 634.892l125.79 13.381 49.24-184.664-175.03 171.283z" fill="#E1EAF2"/><path d="M1769.76 550.856l89.92 84.036 87.95-85.63-177.87 1.594z" fill="#C2D5E5"/><path d="M1822.21 328.188l-52.99 222.668 178.57-1.594 96.02-88.33-221.6-132.744z" fill="#D3E1ED"/><path d="M937.702 543.223S1000 410.551 1000 409.5l-109.909-46.209 47.611 179.932z" fill="#E6EEF5"/><path d="M-39.16 286.992l73.895 161.459L76.94 222.709" fill="#E1EAF2"/><path d="M78.337 222.742l10.017-61.312c9.313-54.37 21.328-123.309 24.482-133.823L-39.16 286.992" fill="#E6EEF5"/><path d="M577.538 573.862L324.762 455.96l8.561 268.096 244.215-150.194z" fill="#C4D7E6"/><path d="M777.445 658.572L673.962 207.99 610.43 388.373l167.015 270.199z" fill="#E6EEF5"/><path d="M1000 410l40.28-303.41c-4.95 17.423-150.189 256.701-150.189 256.701L1000 410z" fill="#D0DFEB"/><path d="M34.735 448.451l50.766 104.685 192.849-50.165-243.615-54.52z" fill="#C2D5E5"/><path d="M324.76 455.96l-290.025-7.509 243.615 54.52 46.41-47.011z" fill="#E1EAF2"/><path d="M777.446 658.572l112.645-295.281-174.074 22.979 61.429 272.302z" fill="#D3E1ED"/><path d="M577.537 573.862c0-.15 0-.15 0 0l34.454-188.401-176.087 121.865 141.633 66.536z" fill="#E6EEF5"/><path d="M34.735 448.45l290.025 7.51-112.646-106.037" fill="#D0DFEB"/><path d="M212.116 349.924L75.662 222.207 33.376 449.692" fill="#D3E1ED"/><path d="M890.09 363.291L673.961 207.99l42.054 178.28 174.075-22.979z" fill="#D0DFEB"/><path d="M673.961 207.99L890.09 363.441s145.15-238.893 150.11-256.316l-88.681 25.168c-108.44 28.837-277.558 75.697-277.558 75.697zM1821.14 328.188l211.43 129.533s144.38-206.852 149.34-224.274l-86.71 20.875c-108.44 28.837-274.06 73.866-274.06 73.866z" fill="#C2D5E5"/><path d="M-71-7.538v113.246l31.841 181.284L112.837 27.607c.151-.75 2.283-3.296 2.433-3.447L-71-7.538z" fill="#D5E2ED"/><path d="M610.431 388.373L406.617 221.057l-81.855 234.904 285.669-67.588z" fill="#D3E1ED"/><path d="M435.905 507.327l174.526-118.954-285.669 67.587 111.143 51.367z" fill="#E1EAF2"/><path d="M610.429 388.373l63.532-180.383-267.345 13.067 203.813 167.316z" fill="#D0DFEB"/><path d="M84.901-8.439H-71v.901l184.288 33.794.15-.15L84.901-8.44z" fill="#C2D5E5"/><path d="M1040.29-8.439h-59.632l59.632 118.203L1000 410l131.15-129.971 4.77-7.748c-19.53-32.893-95.63-161.466-95.63-165.822V-8.439zm-715.53 464.4l81.856-234.904-194.201 129.167L324.76 455.961z" fill="#E1EAF2"/><path d="M704.901-8.439l-30.94 216.43 197.805-55.722L720.371-8.439h-15.47z" fill="#E6EEF5"/><path d="M720.37-8.439l151.396 160.708 79.58-19.451 88.314-25.157-296.761-116.1H720.37zM76.731 224.347l135.384 125.577.3.3-98.827-323.818-.15-.15-.151.15c-.15.15-.3.6-.45 1.201-3.154 10.514-15.17 79.453-24.482 133.823-4.656 27.786-9.821 52.404-11.624 62.917z" fill="#E1EAF2"/><path d="M84.901-8.439l28.537 34.695.15.15s4.506-14.118 11.265-34.845H84.901z" fill="#ADC7DC"/><path d="M212.415 350.224l194.201-129.167-139.681-92.819" fill="#E6EEF5"/><path d="M266.935 128.238L113.587 26.406l98.828 323.818" fill="#C4D7E6"/><path d="M742.9-8.439l297.3 117.17-59.543-117.17H742.9zm349.76-1.657L1273 207.912l221.71-93.573-402.05-124.435z" fill="#D3E1ED"/><path d="M527.824-8.439L267.388 127.787l139.229 93.27L540.29-8.439h-12.466zM1633.93 266.503l-387.66 171.413 272.04 50.302 115.62-221.715z" fill="#B9D0E2"/><path d="M226.604-8.439l40.68 138.046L527.822-8.439H226.604z" fill="#ADC7DC"/><path d="M540.289-8.439L406.616 221.057l267.345-13.066L551.103-8.439h-10.814z" fill="#C4D7E6"/><path d="M1630.59 269.844l-139.17-156.295 199.98 36.55-60.81 119.745z" fill="#ADC7DC"/><path d="M1630.59 269.844l58.35-119.898 103.84 69.584-162.19 50.314zm-135.88-153.717l-248.44 321.789 384.33-168.019-135.89-153.77z" fill="#C4D7E6"/><path d="M551.104-8.439l122.858 216.43 30.94-216.43H551.104zM1694.82 70.728l-200.18 45.497-48.18-135.956 248.36 90.459zm-64.23 199.116l2.91 153.656 90.68-135.723-93.59-17.933z" fill="#D3E1ED"/><path d="M124.703-8.439a6456.17 6456.17 0 00-11.265 34.845l153.799 101.381S247.862 61.852 227.285-8.439H124.703z" fill="#D5E2ED"/><path d="M689.882 1099.39l-57.975-53.92-93.421 53.92 183.087 29.59-31.691-29.59z" fill="#ADC7DC"/><path d="M347.139 1099.39l-94.472-113.695-54.971 113.695-17.272 36.05h2.854l128.716-.6 64.283-.15-29.138-35.3z" fill="#E6EEF5"/><path d="M1529.28 879.016l81.93 127.194 12.29-168.71-94.22 41.516z" fill="#ADC7DC"/><path d="M1476.13 1040.57l-28.5 73.27 163.58-107.63-81.02-125.383-54.06 159.743z" fill="#C2D5E5"/><path d="M1396.84 945.741l18.08 36.936.32.072 13.32 56.001 19.07 74.5 28.54-72.54 53.92-159.7-177.83-26.126c-.16-1.202 26.07 52.793 44.58 90.857z" fill="#E1EAF2"/><path d="M1530.19 880.827l-58.07-90.613-119.54 64.967 177.61 25.646z" fill="#B9D0E2"/><path d="M1396.84 945.74c-18.51-38.064-44.31-91.876-44.05-90.857l-168.07-33.186 230.7 161.113c-1.14-2.654-9.25-18.056-18.58-37.07z" fill="#E6EEF5"/><path d="M1415.42 982.811l-255.07-67.438 166.29 187.747 88.78-120.309z" fill="#D3E1ED"/><path d="M1222.93 709.75l-38.21 111.948 167.82 33.336c.04.146-127.96-143.069-129.61-145.284z" fill="#D0DFEB"/><path d="M1352.58 855.18l-32.72-162.151-97.52 16.721 130.24 145.43z" fill="#C4D7E6"/><path d="M1352.58 855.18l119.54-64.966-152.26-97.185 32.72 162.151z" fill="#ADC7DC"/><path d="M1471.5 790.5l171.62-37.241L1567 657l-95.5 133.5z" fill="#ADC7DC"/><path d="M1319.85 693.029l152.27 97.185L1567 657l-247.15 36.029z" fill="#B9D0E2"/><path d="M1224.72 710.346l95.14-17.317-73.59-255.648-21.55 272.965z" fill="#D3E1ED"/><path d="M1519.51 487.269l-199.65 205.76 173.4-23.805L1567 657s-48.13-166.777-47.49-169.731z" fill="#D3E1ED"/><path d="M1519.51 487.269l-273.24-49.353 73.58 255.113 199.66-205.76z" fill="#C4D7E6"/><path d="M1671 1195l-59.79-188.79-164.77 107.04L1671 1195z" fill="#ADC7DC"/><path d="M1296.07 1066.02l-133.93-150.051-13.71 113.841-17.93 69.69 130.43 1.97h64.52l-29.38-35.45z" fill="#E6EEF5"/><path d="M1838.01 149.503h-150.19c0-.751 104.95 70.562 104.95 70.562l45.24-70.562zM1994.57 8.102l-196.44-18.19s44.62 28.512 80.82 57.8l115.62-39.61z" fill="#B9D0E2"/><path d="M1783.93 118.366l-90.26-48.48-4.74 80.06 95 3.147h58.09l-58.09-34.727z" fill="#D3E1ED"/><path d="M1878.1 40.565l-184.43 29.32 144.5 83.325 39.93-112.645z" fill="#E1EAF2"/><path d="M1785.72-20.228l-92.05-52.72V69.886l90.26-8.11 95.96-21.211-94.17-60.793z" fill="#D0DFEB"/><path d="M1688.93 149.946l4.74-79.76-197.96 45.504 193.22 34.256z" fill="#E1EAF2"/><path d="M1791.52 221.62l210.99-37.548s-162.98-30.368-166.88-33.973l-44.11 71.521z" fill="#C2D5E5"/><path d="M1693.67 70.186V-74l-244.85 62.58 244.85 81.606z" fill="#E6EEF5"/><path d="M1999.53 184.072l-206.75 34.923 156.09 75.934 55.33-15.985-4.67-94.872z" fill="#D3E1ED"/><path d="M1876.31 41.16l-39.33 112.05 168.94 33.234c.04.146-127.96-143.068-129.61-145.284z" fill="#D0DFEB"/><path d="M2005.96 186.591L1993.5 7.032l-117.76 33.722 130.22 145.837z" fill="#C4D7E6"/><path d="M1950.14 293.931l-157.37-74.936 29.15 109.31 128.22-34.374z" fill="#E6EEF5"/><path d="M179.824 1133.79l-11.715-34.4L123 965l-85.11 109.31 58.426 25.08 84.109 36.05-.601-1.5v-.15z" fill="#E1EAF2"/><path d="M196.5 1192.5c-8.561-29.74-14.573-51.2-16.075-57.06l-83.959-36.05-58.575-25.08L-71 1096.99v4.2l249.773 34.1c-2.253 5.86-59.961 161.52-69.273 190.21l87-133zm1531.5-350L1835 704l-192.38 49.395.9.601L1728 842.5z" fill="#D0DFEB"/><path d="M1517.96 487.251L1567 657l67.06-234.032" fill="#E1EAF2"/><path d="M1633.5 423.5l-2.91-153.656-112.4 217.851" fill="#E6EEF5"/><path d="M1567 657l75.62 96.395L1835 704l-268-47z" fill="#C2D5E5"/><path d="M1859.5 635L1567 657l267.57 46.893L1859.5 635z" fill="#E1EAF2"/><path d="M1567 657l292.68-22.108-90.45-84.71" fill="#D0DFEB"/><path d="M1769.23 550.182l-135.65-127.111L1567 657" fill="#D3E1ED"/><path d="M1633.5 423.5l135.73 126.682.3.301-45.8-261.904L1633.5 423.5z" fill="#E1EAF2"/><path d="M1822.75 328.188l-99.17-39.815 45.95 262.11" fill="#C4D7E6"/><path d="M1723.19 288.578l99.56 39.61s-9.46-39.258-30.03-109.548l-69.53 69.938z" fill="#ADC7DC"/><path d="M1494.71 117.318L1452.4-10.823h-360.82l403.13 128.141z" fill="#E6EEF5"/><path d="M2018.12 715.181l-33.72-64.767-76.9 76.086 110.62-11.319z" fill="#E1EAF2"/><path d="M1985.47 810.992v-93.135l-77.97 8.643 77.97 84.492z" fill="#ADC7DC"/><path d="M1923.38 897.169l77.61-69.048s-89.58-98.016-93.49-101.621l15.88 170.669z" fill="#B9D0E2"/></g><defs><clipPath id="clip0"><path fill="#fff" d="M0 0h1920v1080H0z"/></clipPath></defs></svg>