<svg width="650" height="400" fill="none" xmlns="http://www.w3.org/2000/svg"><g clip-path="url(#clip0)"><g filter="url(#filter0_d)"><path d="M331 399.5l247-94L253.5 183 7 277l324 122.5z" fill="#FFF5F7"/></g><g clip-path="url(#clip1)"><g filter="url(#filter1_f)"><path d="M351.849 241.213l-164.02 61.674-129.136-46.895 163.107-58.83 130.049 44.051z" fill="url(#paint0_linear)"/></g><path d="M328.163 357.573l-144.904-54.587-.049-174.904 144.953 54.586v174.905z" fill="#053866"/><path d="M474.576 302.123l-146.412-54.625L327.5 72.57l2.5-2.07 144.567 56.319.009 175.304z" fill="#083556"/><path d="M328.164 357.572l146.353-55.494.05-175.44-146.353 55.044-.05 175.89z" fill="#054270"/><path d="M183.259 302.726L330.5 243.5l-2.257-171.55-1.743-1.45-143.29 56.373.049 175.853z" fill="#063D66"/><g filter="url(#filter2_f)"><ellipse cx="327.605" cy="229.307" rx="99.954" ry="99.552" fill="url(#paint1_radial)"/></g><path d="M328.167 357.575l-144.903-54.589-.05-174.904 144.953 54.586v174.907z" fill="#053866"/><path d="M219.452 185.815l-36.188-13.748-.05-43.985 36.238 14.047v43.686z" fill="#053866"/><path d="M192.847 169.931a23.875 23.875 0 01-9.537-1.728l-.099-4.639c7.363 2.813 14.429 2.27 19.865-1.48 6.473-4.442 10.575-11.796 10.575-22.456l4.348 1.728c0 12.14-3.607 18.951-11.266 24.232a25.65 25.65 0 01-13.886 4.343z" fill="#FF8098"/><path d="M255.689 198.805l-36.238-13.82v-43.913l36.238 13.82v43.913z" fill="#0E2951"/><path d="M291.926 213.238l-36.238-13.82v-43.913l36.238 13.769v43.964z" fill="#FF8098"/><path d="M328.164 226.224l-36.239-13.651v-44.078l36.485 13.544-.246 44.185z" fill="#6780B3"/><path d="M219.449 229.116l-36.238-13.77v-43.964l36.238 13.82v43.914z" fill="#911A31"/><path d="M255.689 242.106l-36.238-13.475v-42.816l36.238 13.475v42.816z" fill="#C43B55"/><path d="M291.926 256.538l-36.238-13.82v-43.913l36.238 13.82v43.913z" fill="#053866"/><path d="M328.164 269.529l-36.239-13.326.048-43.62 36.191 13.605v43.341z" fill="#132F7C"/><path d="M255.689 286.849l-36.238-13.77v-44.44l36.238 13.454v44.756z" fill="#FF8098"/><path d="M291.929 299.838l-36.238-13.82v-43.913l36.238 13.82v43.913z" fill="#0E2951"/><path d="M328.169 314.272l-36.238-13.667v-44.066l36.238 13.667v44.066z" fill="#053866"/><path d="M219.449 316.57l-36.238-13.61v-44.123l36.238 13.579v44.154z" fill="#6780B3"/><path d="M255.689 330.149l-36.238-13.782v-43.952l36.238 13.782v43.952z" fill="#053866"/><path d="M291.926 343.767l-36.238-13.82v-43.914l36.238 13.82v43.914z" fill="#FF8098"/><path d="M328.164 357.572l-36.239-13.59v-44.143l36.239 14.186v43.547z" fill="#3D95D1"/><path d="M190.703 161.276a18.416 18.416 0 01-7.492-1.47v-5.322c5.265 2.027 11.796 1.318 15.036-.811 5.417-3.6 8.05-9.176 8.05-16.931l4.455 1.774c0 9.53-3.392 15.359-9.467 19.567a18.97 18.97 0 01-10.582 3.193z" fill="#D6516B"/><path d="M188.113 151.173a11.782 11.782 0 01-4.902-.962v-5.613c3.166 1.283 8.068.962 10.775-1.87 2.809-2.94 3.575-5.345 3.575-10.316l4.494 1.87c0 6.842-2.247 11.492-6.486 14.539a12.912 12.912 0 01-7.456 2.352z" fill="#C43B55"/><path d="M185.519 141.054a4.07 4.07 0 01-2.308-.474v-5.528c.769.316 3.269.527 4.231 0 1.683-.947 1.683-2.79.865-5.527l5.049 1.842c0 3.843-1.25 6.528-3.606 8.318a7.405 7.405 0 01-4.231 1.369z" fill="#A62E41"/><path d="M327.602 307.055l-31.33-11.537v-75.063l31.89 11.339v6.09l-26.49-9.903v64.937l25.481 10.46.449 3.677z" fill="#B9D5FD"/><path d="M328.162 308.498l-31.89-12.604v-38.117l5.4 1.942v32.594l26.49 10.153v6.032z" fill="#F985A0"/><path d="M327.572 295.428l-22.6-7.113v-54.87l23.192 8.202v6.19l-17.793-6.693v44.636l17.793 6.19-.592 3.458z" fill="#B9D5FD"/><path d="M327.572 283.294l-12.451-3.347v-30.626l13.046 4.517v6.038l-7.837-3.043v20.324l7.837 3.388-.595 2.749z" fill="#B9D5FD"/><path d="M328.167 285.405l-13.046-5.065v-15.628l5.209 1.884v10.169l7.837 2.532v6.108z" fill="#F985A0"/><path d="M328.164 296.952l-23.192-8.481V261l5.399 2v21.892l17.793 6.03v6.03z" fill="#F985A0"/><path d="M210.752 313.33l-27.541-10.37v-33.432l27.541 10.368v33.434z" fill="#053866"/><path d="M200.605 309.499l-17.394-6.539v-21.886l17.394 6.904v21.521z" fill="#709FDC"/><path d="M291.926 184.659l-13.256 22.806-22.982-24.825 13.255-22.806 22.983 24.825z" fill="#C43B55"/><path d="M283.231 184.135l-6.932 11.784-11.912-12.804 6.88-11.733 11.964 12.753z" fill="#911A31"/><path d="M291.926 343.665l-36.238-13.863v-35.21l36.238 13.812v35.261z" fill="#C43B55"/><path d="M291.926 343.373l-36.238-14.227V302.96l36.238 14.175v26.238z" fill="#911A31"/><path d="M291.926 343.312l-36.238-14.155v-16.155l36.238 14.103v16.207z" fill="#053866"/><path d="M291.926 343.857l-36.238-13.8v-7.85l36.238 13.75v7.9z" fill="#0E2951"/><path d="M219.451 195.918l36.238 13.487-36.238 10.554 36.238 13.486-36.238-37.527z" fill="#911A31"/><path d="M187.559 217.569l-4.348-1.773v-44.414l4.348 1.772v44.415zm7.247 1.443l-4.348-1.715v-43.029l4.348 1.765v42.979zm23.192 8.659l-5.797-1.717v-43.027l5.797 1.717v43.027zm-8.697-2.887l-4.348-1.717v-43.026l4.348 1.717v43.026zm-7.245-2.886l-4.348-1.717v-43.026l4.348 1.717v43.026z" fill="#FF8098"/><path d="M219.449 272.416l-36.238-13.82v-43.914l36.238 13.77v43.964z" fill="#0E2951"/><path d="M219.449 272.415l-18.844-6.904v-21.963l18.844 6.904v21.963zm-18.844-28.866l-17.394-6.916v-21.951l17.394 6.55v22.317z" fill="#3D95D1"/><path fill-rule="evenodd" clip-rule="evenodd" d="M223.799 279.632l26.272 10.311-1.393 3.807-20.947-8.221v25.228l19.678 7.723v-18.936l-15.234-5.987v13.485l10.789 4.249v-8.131l-6.392-2.516v2.78l4.658 1.831-1.395 3.805-7.194-2.827v-11.491l14.254 5.611v16.842l-18.651-7.346v-22.191l23.096 9.077v27.641l-27.541-10.809v-33.935z" fill="#3D95D1"/><path fill-rule="evenodd" clip-rule="evenodd" d="M325.263 319.974l-24.679 23.165-4.312-4.258 24.679-23.166 4.312 4.259z" fill="#0E2951"/><path fill-rule="evenodd" clip-rule="evenodd" d="M301.438 307.055l23.825 41.736-5.166 3.008-23.825-41.736 5.166-3.008z" fill="#0E2951"/><path d="M268.731 263.755l-5.797-2.416v-7.687l5.797 2.416v7.687zm7.247 12.99l-5.797-2.403v-7.7l5.797 2.403v7.7zm8.699 11.548l-5.797-2.071v-6.59l5.797 2.071v6.59z" fill="#B9D5FD"/><path d="M328.409 182.039l146.156-55.4v175.64l-146.403 55.294.247-175.534z" fill="#053866"/><path d="M438.329 228.49l36.238-13.808v43.925l-36.238 13.808V228.49z" fill="#B9D5FD"/><path d="M400.641 242.59l37.688-13.475v42.865l-37.688 13.426V242.59z" fill="#C43B55"/><path d="M364.406 255.925l36.238-13.82v43.913l-36.238 13.82v-43.913z" fill="#053866"/><path d="M328.165 269.5l36.238-13v43.8l-36.238 13.972V269.5z" fill="#132F7C"/><path d="M400.64 198.192l37.688-13.82v44.948l-37.688 13.389v-44.517z" fill="#FF8098"/><path d="M364.406 212.626l36.238-13.82v43.913l-36.238 13.82v-43.913z" fill="#0E2951"/><path d="M328.165 225.767l36.238-13.972v43.762l-36.238 13.972v-43.762z" fill="#053866"/><path d="M400.645 285.386l37.745-13.411-.251 43.956-37.494 14.261v-44.806z" fill="#0E2951"/><path d="M364.406 300.031l36.238-14.624v44.792l-36.238 13.644v-43.812z" fill="#709FDC"/><path d="M328.165 314.027l36.238-13.996v43.838l-36.238 13.701v-43.543z" fill="#911A31"/><path d="M438.327 140.497l36.238-13.858v43.925l-36.238 13.808v-43.875z" fill="#C43B55"/><path d="M400.637 154.893l37.688-13.82v43.913l-37.688 13.82v-43.913z" fill="#053866"/><path d="M364.399 168.98l36.238-13.475v42.816l-36.238 13.474V168.98z" fill="#FF8098"/><path d="M328.361 182.018l36.04-13.523v43.762l-36.238 13.972.198-44.211z" fill="#3D95D1"/><path d="M328.158 308.46v-5.941l26.548-10.679v-63.821l-26.111 9.541-1.884-4.844 33.339-12.26v74.943l-31.892 13.061z" fill="#B9D5FD"/><path d="M360.053 258.229L354.711 260v-31.939l-26.548 9.831v-6.062l31.89-11.374v37.773z" fill="#F985A0"/><path d="M328.163 296.953v-6.068l18-7.302v-42.922l-18 6.957v-6.068l23.193-6.661v52.296l-23.193 9.768z" fill="#B9D5FD"/><path d="M328.158 285.448v-6.154l7.8-2.667v-19.971l-7.397 2.701-1.85-4.727 14.496-5.307v30.826l-13.049 5.299z" fill="#B9D5FD"/><path d="M341.209 264.945l-5.261 1.698v-9.945l-7.785 3.166v-6.034l13.046-4.507v15.622z" fill="#F985A0"/><path d="M351.356 261.268L346.163 263v-22.123l-18 6.944v-6.175l23.193-8.2v27.822z" fill="#F985A0"/><path d="M455.719 133.581l18.844-6.942v21.975l-18.844 6.892v-21.925z" fill="#FF8098"/><path d="M364.399 327.381l13.264-31.871 22.974 7.098-13.264 31.872-22.974-7.099z" fill="#0E2951"/><path d="M373.095 320.693l6.876-16.523 11.968 3.683-6.926 16.523-11.918-3.683z" fill="#6780B3"/><path d="M364.399 168.961l36.238-13.456v34.224l-36.238 13.406v-34.174z" fill="#C43B55"/><path d="M364.399 169.224l36.238-13.719v25.301l-36.238 13.669v-25.251z" fill="#911A31"/><path d="M364.399 168.986l36.238-13.481v15.435l-36.238 13.432v-15.386z" fill="#053866"/><path d="M364.399 169.274l36.238-13.769v7.882l-36.238 13.768v-7.881z" fill="#0E2951"/><path d="M438.325 261.817l-37.688 13.486 37.688-37.526-37.688 13.486" fill="#911A31"/><path d="M474.561 259.131l-5.797 1.739v-44.399l5.797-1.788v44.448zm-7.247 1.926l-5.722 2.154-.075-43.925 5.797-1.717v43.488zm-21.744 8.199l-5.756 2.323-.041-43.632 5.689-1.718.108 43.027zm7.25-2.887l-5.797 2.7v-44.01l5.797-1.717v43.027zm7.247-2.887l-5.797 3.713v-45.022l5.797-1.717v43.026z" fill="#709FDC"/><path d="M438.327 185.203l36.238-13.82v43.913l-36.238 13.82v-43.913z" fill="#0E2951"/><path d="M438.327 271.803l36.238-13.82v43.914l-36.238 13.82v-43.914z" fill="#053866"/><path d="M438.327 185.158l17.394-6.559v20.865l-17.394 6.559v-20.865z" fill="#911A31"/><path d="M442.746 314.257l-4.607 1.673c0-29.582 16.82-47.764 36.426-55.06v4.367c-17.691 6.602-31.819 29.017-31.819 49.02z" fill="#B9D5FD"/><path d="M452.797 310.491l-5.444 2.092c0-21.123 12.378-37.534 27.211-43.053v5.268c-12.96 4.867-21.767 20.189-21.767 35.693z" fill="#3D95D1"/><path d="M461.593 307.144l-4.189 1.673c0-12.824 7.268-25.582 17.158-29.288v4.98c-7.704 2.926-12.969 13.419-12.969 22.635z" fill="#3376B3"/><path d="M470.298 303.877l-4.099 1.593c-.882-6.946 3.036-13.865 8.376-15.899l-.014 5.624c-3.332 1.24-4.263 4.465-4.263 8.682z" fill="#709FDC"/><path fill-rule="evenodd" clip-rule="evenodd" d="M433.976 146.845v34.707l-26.203 10.037-1.458-3.893 23.544-9.019v-25.803l-20.757 7.951v19.372l16.103-6.134v-13.796l-11.448 4.361v8.267l6.743-2.58v-2.793l-3.417 1.312-1.461-3.892 8.995-3.453v11.702l-14.977 5.731v-17.174l19.682-7.498v22.693l-24.337 9.272V157.95l28.991-11.105z" fill="#F985A0"/><path fill-rule="evenodd" clip-rule="evenodd" d="M331.06 217.338l25.05-43.069 5.391 3.118-25.05 43.069-5.391-3.118z" fill="#0E2951"/><path fill-rule="evenodd" clip-rule="evenodd" d="M355.777 211.796l-24.717-24.362 4.275-4.505 24.716 24.362-4.274 4.505z" fill="#0E2951"/><path d="M387.593 231.532l5.797-2.416v7.687l-5.797 2.416v-7.687z" fill="#B9D5FD"/><path d="M380.346 225.402l5.797-2.06v6.6l-5.797 2.06v-6.6zm-8.7-7.205l5.797-2.071v6.589l-5.797 2.071v-6.589z" fill="#911A31"/><path d="M447.023 137.404l27.541-10.765v34.08l-27.541 10.663v-33.978z" fill="#053866"/><path d="M455.719 199.948l18.844-6.916v22.48l-18.834 6.923-.01-22.487z" fill="#911A31"/><path opacity=".3" d="M183.799 127.186l144.451 54.593v175.982l-145.096-54.593.645-175.982z" fill="#000"/><path d="M528.2 73.184l-54.46 53.456-145.49-54.688 54.324-53.563L528.2 73.184z" fill="#084C80"/><path d="M328.41 182.039l-54.523 54.293-145.758-54.574 55.953-54.446 144.328 54.727z" fill="#094573"/><path d="M328.249 71.95L274.729 18 129.153 72.997l54.36 54.697 144.736-55.743zm199.95 108.678l-54.364-53.99-145.671 55.452 54.664 54.242 145.371-55.704z" fill="#084C80"/></g></g><defs><filter id="filter0_d" x="5" y="181" width="579" height="224.5" filterUnits="userSpaceOnUse" color-interpolation-filters="sRGB"><feFlood flood-opacity="0" result="BackgroundImageFix"/><feColorMatrix in="SourceAlpha" values="0 0 0 0 0 0 0 0 0 0 0 0 0 0 0 0 0 0 127 0"/><feOffset dx="2" dy="2"/><feGaussianBlur stdDeviation="2"/><feColorMatrix values="0 0 0 0 0 0 0 0 0 0 0 0 0 0 0 0 0 0 0.1 0"/><feBlend in2="BackgroundImageFix" result="effect1_dropShadow"/><feBlend in="SourceGraphic" in2="effect1_dropShadow" result="shape"/></filter><filter id="filter1_f" x="53.693" y="192.162" width="303.156" height="115.726" filterUnits="userSpaceOnUse" color-interpolation-filters="sRGB"><feFlood flood-opacity="0" result="BackgroundImageFix"/><feBlend in="SourceGraphic" in2="BackgroundImageFix" result="shape"/><feGaussianBlur stdDeviation="2.5" result="effect1_foregroundBlur"/></filter><filter id="filter2_f" x="147.65" y="49.755" width="359.909" height="359.104" filterUnits="userSpaceOnUse" color-interpolation-filters="sRGB"><feFlood flood-opacity="0" result="BackgroundImageFix"/><feBlend in="SourceGraphic" in2="BackgroundImageFix" result="shape"/><feGaussianBlur stdDeviation="40" result="effect1_foregroundBlur"/></filter><clipPath id="clip0"><path fill="#fff" d="M0 0h650v400H0z"/></clipPath><clipPath id="clip1"><path fill="#fff" transform="translate(58.693 18)" d="M0 0h469.504v339.761H0z"/></clipPath><radialGradient id="paint1_radial" cx="0" cy="0" r="1" gradientUnits="userSpaceOnUse" gradientTransform="matrix(0 78.9549 -79.2743 0 326.452 195.019)"><stop stop-color="#0095FF"/><stop offset="1" stop-color="#BCE3FF"/></radialGradient><linearGradient id="paint0_linear" x1="343.165" y1="304.669" x2="268.078" y2="141.028" gradientUnits="userSpaceOnUse"><stop offset=".096"/><stop offset=".978" stop-color="#B4D1FA" stop-opacity="0"/></linearGradient></defs></svg>