<svg width="635" height="690" fill="none" xmlns="http://www.w3.org/2000/svg"><g clip-path="url(#clip0)"><g filter="url(#filter0_f)"><path d="M349.982 550.213l-195.814 73.701L0 567.873l194.724-70.302 155.258 52.642z" fill="url(#paint0_linear)"/></g><path d="M321.705 689.262l-172.992-65.23-.06-209.011 173.052 65.23v209.011z" fill="#053866"/><path d="M496.5 623l-174.793-65.277.102-209.779 174.68 65.567L496.5 623z" fill="#083556"/><path d="M321.707 689.262l174.722-66.316.06-209.651-174.722 65.778-.06 210.189z" fill="#054270"/><path d="M148.713 623.72l173.096-63.175V347.944l-173.156 65.633.06 210.143z" fill="#063D66"/><g filter="url(#filter1_f)"><ellipse cx="321.039" cy="535.985" rx="119.33" ry="118.964" fill="url(#paint1_radial)"/></g><path d="M321.71 689.266l-172.992-65.234-.06-209.011 173.052 65.23v209.015z" fill="#053866"/><path d="M191.921 484.012l-43.203-16.429-.06-52.562 43.263 16.786v52.205z" fill="#053866"/><path d="M160.158 465.03a28.47 28.47 0 01-11.386-2.064l-.118-5.544c8.791 3.362 17.227 2.713 23.716-1.769 7.729-5.308 12.625-14.095 12.625-26.834l5.192 2.064c0 14.508-4.307 22.647-13.451 28.957a30.588 30.588 0 01-16.578 5.19z" fill="#FF8098"/><path d="M235.182 499.535l-43.263-16.515v-52.477l43.263 16.515v52.477z" fill="#0E2951"/><path d="M278.444 516.783l-43.263-16.515v-52.477l43.263 16.455v52.537z" fill="#FF8098"/><path d="M321.706 532.301l-43.263-16.313v-52.674L322 479.5l-.294 52.801zm-129.789 3.455l-43.263-16.455v-52.536l43.263 16.515v52.476z" fill="#911A31"/><path d="M235.182 551.28l-43.263-16.102v-51.165l43.263 16.102v51.165z" fill="#C43B55"/><path d="M278.444 568.527l-43.263-16.515v-52.477l43.263 16.515v52.477z" fill="#053866"/><path d="M321.706 584.05l-43.263-15.924L278.5 516l43.206 16.258v51.792z" fill="#132F7C"/><path d="M235.182 604.747l-43.263-16.455v-53.106l43.263 16.079v53.482z" fill="#FF8098"/><path d="M278.447 620.27l-43.263-16.515v-52.477l43.263 16.515v52.477z" fill="#0E2951"/><path d="M321.712 637.518l-43.263-16.332v-52.659l43.263 16.332v52.659z" fill="#053866"/><path d="M191.917 640.265L148.654 624v-52.727l43.263 16.227v52.765z" fill="#C43B55"/><path d="M235.182 656.491l-43.263-16.469v-52.523l43.263 16.47v52.522z" fill="#053866"/><path d="M278.444 672.765l-43.263-16.515v-52.477l43.263 16.515v52.477z" fill="#FF8098"/><path d="M321.706 689.262l-43.263-16.24v-52.751l43.263 16.952v52.039z" fill="#911A31"/><path d="M157.6 454.688a21.972 21.972 0 01-8.946-1.756v-6.361c6.286 2.423 14.083 1.575 17.951-.969 6.467-4.301 9.61-10.964 9.61-20.233l5.319 2.121c0 11.388-4.049 18.354-11.302 23.382a22.628 22.628 0 01-12.632 3.816z" fill="#D6516B"/><path d="M154.507 442.614a14.045 14.045 0 01-5.853-1.149v-6.707c3.78 1.533 9.633 1.15 12.864-2.235 3.353-3.513 4.268-6.388 4.268-12.328l5.365 2.236c0 8.175-2.683 13.732-7.743 17.373a15.397 15.397 0 01-8.901 2.81z" fill="#C43B55"/><path d="M151.41 430.523a4.869 4.869 0 01-2.756-.566v-6.606c.919.377 3.904.629 5.052 0 2.009-1.133 2.009-3.334 1.033-6.606l6.027 2.202c0 4.593-1.493 7.801-4.305 9.94-1.508 1.06-3.26 1.628-5.051 1.636z" fill="#A62E41"/><path d="M321.035 628.894l-37.402-13.786v-89.701l38.071 13.55v7.277L290.079 534.4V612l30.421 12.5.535 4.394z" fill="#C43B55"/><path d="M321.704 630.619l-38.071-15.063v-45.305l6.446 2.051v38.976l31.625 12.132v7.209z" fill="#F985A0"/><path d="M321 615l-26.981-8.5v-65.57l27.688 9.802v7.396l-21.242-7.998v53.34l21.242 7.397L321 615z" fill="#C43B55"/><path d="M320.999 600.5l-14.864-4v-36.598l15.574 5.397v7.216l-9.356-3.637v24.288l9.356 4.048-.71 3.286z" fill="#C43B55"/><path d="M321.709 603.022l-15.574-6.052v-19.82l6.218 2.077v13.47l9.356 3.027v7.298z" fill="#F985A0"/><path d="M321.707 616.821l-27.688-10.136v-32.984l6.446 2.051v26.657l21.242 7.206v7.206z" fill="#F985A0"/><path d="M181.534 636.392L148.654 624v-39.951l32.88 12.39v39.953z" fill="#053866"/><path d="M169.421 631.814L148.654 624v-26.153l20.767 8.25v25.717z" fill="#FF8098"/><path d="M278.444 482.63l-15.825 27.253-27.438-29.665 15.825-27.253 27.438 29.665z" fill="#C43B55"/><path d="M268.063 482.004l-8.275 14.082-14.222-15.301 8.214-14.02 14.283 15.239z" fill="#911A31"/><path d="M278.444 672.643l-43.263-16.567V614l43.263 16.506v42.137z" fill="#C43B55"/><path d="M278.444 672.294l-43.263-17.001V624l43.263 16.94v31.354z" fill="#911A31"/><path d="M278.444 672.221l-43.263-16.916V636l43.263 16.854v19.367z" fill="#053866"/><path d="M278.444 672.872l-43.263-16.491V647l43.263 16.431v9.441z" fill="#0E2951"/><path d="M191.919 496.086l43.263 16.116-43.263 12.612 43.263 16.116-43.263-44.844z" fill="#911A31"/><path d="M153.845 521.958l-5.191-2.118v-53.075l5.191 2.118v53.075zm8.652 1.724l-5.19-2.049v-51.419l5.19 2.108v51.36zm27.688 10.348l-6.921-2.052v-51.417l6.921 2.052v51.417zm-10.383-3.449l-5.191-2.052v-51.417l5.191 2.052v51.417zm-8.649-3.449l-5.191-2.052v-51.417l5.191 2.052v51.417z" fill="#FF8098"/><path d="M191.917 587.5l-43.263-16.515v-52.477l43.263 16.455V587.5z" fill="#0E2951"/><path d="M191.918 587.499l-22.497-8.25v-26.245l22.497 8.25v26.245zm-22.497-34.495l-20.767-8.264v-26.232l20.767 7.828v26.668z" fill="#911A31"/><path fill-rule="evenodd" clip-rule="evenodd" d="M197.11 596.124l31.365 12.321-1.663 4.549-25.008-9.824v30.147l23.493 9.229v-22.628l-18.187-7.154v16.115l12.88 5.077v-9.717l-7.63-3.006v3.322l5.561 2.187-1.666 4.548-8.589-3.379V614.18l17.018 6.705v20.126l-22.267-8.778v-26.519l27.573 10.847v33.031l-32.88-12.916v-40.552z" fill="#F985A0"/><path fill-rule="evenodd" clip-rule="evenodd" d="M318.243 644.332l-29.462 27.682-5.148-5.088 29.462-27.683 5.148 5.089z" fill="#0E2951"/><path fill-rule="evenodd" clip-rule="evenodd" d="M289.8 628.894l28.443 49.874-6.167 3.595-28.443-49.875 6.167-3.594z" fill="#0E2951"/><path d="M250.753 577.151l-6.921-2.887v-9.187l6.921 2.888v9.186zm8.651 15.522l-6.921-2.871V580.6l6.921 2.871v9.202zm10.385 13.8l-6.921-2.475v-7.874l6.921 2.474v7.875z" fill="#911A31"/><path d="M322 479.5l174.487-66.203v209.89l-174.782 66.076L322 479.5z" fill="#053866"/><path d="M453.227 535.009l43.262-16.501v52.491L453.227 587.5v-52.491z" fill="#911A31"/><path d="M408.233 551.858l44.994-16.102v51.223l-44.994 16.044v-51.165z" fill="#C43B55"/><path d="M364.975 567.793l43.263-16.515v52.477l-43.263 16.515v-52.477z" fill="#053866"/><path d="M321.708 585.223l43.263-16.697v52.296l-43.263 16.696v-52.295z" fill="#132F7C"/><path d="M408.232 498.803l44.994-16.515V536l-44.994 16v-53.197z" fill="#FF8098"/><path d="M364.975 516.051l43.263-16.515v52.477l-43.263 16.515v-52.477z" fill="#0E2951"/><path d="M321.708 531.754l43.263-16.696v52.295l-43.263 16.697v-52.296z" fill="#053866"/><path d="M408.238 603l45.062-16.027-.3 52.527-44.762 17.043V603z" fill="#0E2951"/><path d="M364.975 620.5l43.263-17.476v53.527l-43.263 16.304V620.5z" fill="#FF8098"/><path d="M321.708 637.225l43.263-16.725v52.386l-43.263 16.373v-52.034z" fill="#911A31"/><path d="M453.225 429.857l43.263-16.56v52.491l-43.263 16.5v-52.431z" fill="#C43B55"/><path d="M408.229 447.06l44.993-16.515v52.476l-44.993 16.515V447.06z" fill="#053866"/><path d="M364.966 463.894l43.263-16.102v51.165l-43.263 16.102v-51.165z" fill="#FF8098"/><path d="M321.943 479.475l43.026-16.16v52.295l-43.263 16.697.237-52.832z" fill="#911A31"/><path d="M321.7 630.573v-7.1l31.694-12.761v-76.266l-31.173 11.402-2.248-5.79 39.802-14.65v89.557L321.7 630.573z" fill="#C43B55"/><path d="M359.777 571.623L353.4 573.5v-39.004l-31.694 11.748V539l38.071-13.592v46.215z" fill="#F985A0"/><path d="M321.706 616.822v-7.252l21.489-8.725v-51.291l-21.489 8.312v-7.251l27.688-7.959v62.493l-27.688 11.673z" fill="#C43B55"/><path d="M321.7 603.073v-7.354l9.312-3.187v-23.865l-8.831 3.228-2.208-5.65 17.305-6.341v36.837l-15.578 6.332z" fill="#C43B55"/><path d="M337.281 578.573L331 580.602v-11.885l-9.294 3.783v-7.211l15.575-5.385v18.669z" fill="#F985A0"/><path d="M349.394 575.048l-6.199 2.103v-27.34l-21.489 8.298v-7.379l27.688-9.799v34.117z" fill="#F985A0"/><path d="M473.988 421.592l22.497-8.295v26.259l-22.497 8.236v-26.2z" fill="#FF8098"/><path d="M364.966 653.183l15.835-38.086 27.428 8.483-15.835 38.087-27.428-8.484z" fill="#C43B55"/><path d="M375.348 645.192l8.208-19.746 14.288 4.401-8.269 19.746-14.227-4.401z" fill="#911A31"/><path d="M364.966 463.871l43.263-16.079v40.897l-43.263 16.021v-40.839z" fill="#C43B55"/><path d="M364.966 464.186l43.263-16.394v30.234l-43.263 16.335v-30.175z" fill="#911A31"/><path d="M364.966 463.902l43.263-16.11v18.444l-43.263 16.052v-18.386z" fill="#053866"/><path d="M364.966 464.245l43.263-16.453v9.419l-43.263 16.453v-9.419z" fill="#0E2951"/><path d="M453.222 574.835l-44.993 16.116 44.993-44.845-44.993 16.116" fill="#911A31"/><path d="M496.483 571.625l-6.921 2.078v-53.057l6.921-2.137v53.116zm-8.652 2.301L481 576.5l-.09-52.49 6.921-2.052v51.968zm-25.959 9.798L455 586.5l-.049-52.141 6.792-2.052.129 51.417zm8.655-3.451l-6.921 3.227v-52.591l6.921-2.052v51.416zm8.652-3.449l-6.921 4.437V527.46l6.921-2.052v51.416z" fill="#FF8098"/><path d="M453.225 483.28l43.262-16.515v52.477l-43.262 16.515V483.28z" fill="#0E2951"/><path d="M453.225 586.768l43.262-16.515v52.477l-43.262 16.515v-52.477z" fill="#053866"/><path d="M453.225 483.227l20.766-7.838v24.934l-20.766 7.837v-24.933z" fill="#911A31"/><path d="M458.5 637.5l-5.5 2c0-35.351 20.081-57.079 43.487-65.798v5.22c-21.119 7.889-37.987 34.674-37.987 58.578z" fill="#FF8098"/><path d="M470.5 633l-6.5 2.5c0-25.242 14.777-44.854 32.486-51.449v6.296C481.013 596.163 470.5 614.473 470.5 633z" fill="#D6516B"/><path d="M481 629l-5 2c0-15.325 8.676-30.571 20.483-35v5.952C487.287 605.448 481 617.987 481 629z" fill="#C43B55"/><path d="M491.394 625.096L486.5 627c-1.053-8.301 3.624-16.569 10-19l-.017 6.721c-3.978 1.482-5.089 5.336-5.089 10.375z" fill="#A62E41"/><path fill-rule="evenodd" clip-rule="evenodd" d="M448.03 437.443v41.475l-31.282 11.994-1.741-4.653 28.108-10.777v-30.834l-24.78 9.501v23.15l19.224-7.331v-16.485l-13.667 5.211v9.879l8.05-3.084v-3.337l-4.079 1.568-1.744-4.652 10.738-4.125v13.983l-17.88 6.849v-20.523l23.497-8.96v27.118l-29.054 11.08v-33.777l34.61-13.27z" fill="#F985A0"/><path fill-rule="evenodd" clip-rule="evenodd" d="M325.165 521.682l29.905-51.467 6.436 3.726-29.905 51.467-6.436-3.726z" fill="#0E2951"/><path fill-rule="evenodd" clip-rule="evenodd" d="M354.672 515.059l-29.507-29.112 5.103-5.384 29.507 29.113-5.103 5.383z" fill="#0E2951"/><path d="M392.656 538.644l6.921-2.887v9.186l-6.921 2.887v-9.186zm-8.652-7.326l6.921-2.461v7.887l-6.921 2.462v-7.888zm-10.387-8.61l6.921-2.475v7.874l-6.921 2.475v-7.874z" fill="#911A31"/><path d="M463.606 426.161l32.88-12.864v40.726l-32.88 12.742v-40.604z" fill="#053866"/><path d="M473.988 500.901l22.497-8.265V519.5L474 527.773l-.012-26.872z" fill="#911A31"/><path d="M560.519 349.418l-65.017 63.879-173.692-65.352 64.854-64.007 173.855 65.48z" fill="#084C80"/><path d="M322 479.5l-65.092 64.88-174.013-65.216 66.8-65.062L322 479.5z" fill="#094573"/><path d="M321.808 347.944l-63.895-64.471-173.795 65.722 64.897 65.362 172.793-66.613zm238.71 129.869l-64.903-64.518-173.908 66.265 65.26 64.819 173.551-66.566z" fill="#084C80"/></g><path fill-rule="evenodd" clip-rule="evenodd" d="M118.128 186.102l43.283 59.737-35.03 48.33 71.086 23.446-25.744 37.92 69.743-23.385 103.421 80.444 14.175-102.071 74.599 23.073 110.528 52.09-47.187-78.568 73.605-40.508-85.765-23.848 31.02-39.215 82.94-57.036-154.242-41.312-145.291-39.195-70.813 40.942-27.539 39.485-82.789 39.671zm83.448-39.972l26.865-38.518 2.024 25.382-28.889 13.136zm29.245-13.299l-2.038-25.567 61.964-1.683-59.926 27.25zm60.677-27.638l-62.194 1.688 69.733-40.317-7.539 38.629zm8.405-38.636l144.083 38.868-71.783 34.486-72.3-73.354zm72.688 73.576c12.097 5.718 28.858 12.531 45.071 18.931l43.622-3.057-16.88-50.374-71.813 34.5zm72.205-34.49l16.867 50.338 135.595-9.502-152.462-40.836zm150.339 42.943l-79.416 54.612-10.134-5.049 89.55-49.563zm-89.941 49.78l10.255 5.109-30.992 39.18-39.459-10.972 60.196-33.317zm-60.063 33.736l39.078 10.866-12.631 15.968-26.447-26.834zm26.708 27.098l12.755-16.125 84.453 23.484-84.045 5.997-13.163-13.356zm13.344 13.712l84.115-6.002-72.449 39.872-11.666-33.87zm11.487 34.368l46.002 76.596-64.565-68.826 18.563-7.77zm-18.926 7.921l65.18 69.482-108.743-51.249 43.563-18.233zm-44.131 17.995l-74.038-22.9 90.631-24.143-16.593 47.043zm16.086-47.289l-90.606 24.136-.173-43.096 90.779 18.96zm-90.468-19.588l46.877-68.803 38.065 34.164-84.942 34.639zm85.226-34.879l-38.005-34.11 62.878-16.585-24.873 50.695zm24.795-51.055l-63.09 16.64-20.972-35.317 32.415-2.271c4.493 1.773 8.942 3.514 13.237 5.191l4.555 1.778c8.2 3.198 15.65 6.104 21.506 8.474 3.462 1.401 6.365 2.614 8.537 3.588 1.086.487 1.987.914 2.683 1.275.481.249.858.463 1.129.642zm-50.795-21.008l42.947-3.009 7.916 23.623a14.947 14.947 0 00-1.027-.575 55.922 55.922 0 00-2.702-1.284c-2.178-.977-5.086-2.192-8.55-3.593-5.858-2.371-13.31-5.277-21.509-8.476l-4.556-1.778a3588.107 3588.107 0 01-12.519-4.908zm51.366 20.956l35.362 17.617 92.366-51.122-135.767 9.513 8.039 23.992zm-53.012-21.209l-31.832 2.23-12.349-20.796c11.913 5.62 28.277 12.282 44.181 18.566zm-32.033 2.613l20.858 35.123-76.397-31.231 55.539-3.892zm-56.053 4.08l76.612 31.319-65.064 7.262-11.548-38.581zm11.655 38.939l64.731-7.224-57.901 30.041-6.83-22.817zm6.497 22.99l-6.869-22.948-14.98 1.672 9.147 27.867 12.702-6.591zm.44.187l58.194-30.195-46.711 68.559-11.483-38.364zm12.045 38.73l84.997-34.661 5.925 53.651-90.922-18.99zm91.267 18.756l20.719-26.192-26.591-26.98 5.872 53.172zm.426.056l20.553-25.984 12.993 13.183-33.546 12.801zm-.084.426l33.847-12.916 11.614 33.718-45.461-20.802zm45.316 21.14l-18.449 7.722-26.567-28.321 45.016 20.599zm-45.719-20.809l26.907 28.683-43.435 18.179 16.528-46.862zm-5.629-54.937l59.855-33.129-35.037-17.455-24.818 50.584zm-86.388 35.609l-13.691-.016 13.861 42.229-.17-42.213zm-.051 43.267l-37.174 6.859-12.36-49.85 49.534 42.991zm-49.991-43.301l12.454 50.227-34.391 6.345-31.33-47.648 53.267-8.924zm-53.496 9.246l31.166 47.398-44.433 8.198 13.267-55.596zm-14.095 55.83l-32.972-10.875-35.046 33.681 68.018-22.806zm-67.597 21.891l34.23-32.896-9.72-3.206-24.51 36.102zm24.361-36.539l-69.311-22.861 79.139 8.385-9.828 14.476zm10.113-14.816l-79.63-8.437 125.842-18.067-46.212 26.504zm46.901-26.975L127.41 293.782l109.759-77.405 17.527 59.13zm-18.781-58.696l-108.438 76.473 34.279-47.294 74.159-29.179zm-74.324 28.648l-42.738-58.984 60.145 15.132-17.407 43.852zm17.544-44.197l-60.189-15.144 81.75-39.173-21.561 54.317zm22.159-54.599l29.202-13.279 6.521 81.806-35.723-68.527zm36.109 68.732l-6.551-82.173 60.406-27.469-53.855 109.642zm.294.238l53.919-109.773 22.175 67.556-76.094 42.217zm76.422-42.399l-21.801-66.416 35.863 58.615-14.062 7.801zm14.382-7.983l43.254-25.093-79.645-34.386 36.391 59.479zm-36.642-59.989l7.55-38.682 71.961 73.011-79.511-34.329zm80.239 35.123l12.47 20.998-55.351 3.878 42.881-24.876zm-43.771 25.388l11.574 38.666-14.99 1.673-10.675-32.522 14.091-7.817zm-3.79 40.381l-10.629-32.382-75.743 42.022 86.372-9.64zm.117.357l9.19 27.997-40.555 21.042-55.516-39.342 86.881-9.697zm-87.982 9.606l-57.314-14.42-17.392 43.815 74.706-29.395zm.247-.317l-57.424-14.448 21.568-54.334 35.856 68.782zm.681.737l55.321 39.204-37.875 19.651-17.446-58.855zm17.008 59.689l-13.239 55.481-33.122-10.925 46.361-44.556zm-46.757 44.426l-9.805-3.234 9.918-14.608 45.762-26.247-45.875 44.089zm48.204-45.368l37.204-19.303 14.917 10.571-52.121 8.732zm53.086-8.439l35.331.042 14.055 42.82-49.386-42.862zm35.21-.326l-35.645-.043-15.079-10.686 40.333-20.927 10.391 31.656zm-10.06-31.828l12.693-6.586 11.503 38.431-13.748-.017-10.448-31.828zm-92.353 97.36l44.461-8.203 57.584 87.577-102.045-79.374zm102.372 79.2l-57.518-87.475 34.26-6.321 23.258 93.796zm-22.895-93.863l37.277-6.878-13.995 100.772-23.282-93.894z" fill="#E0E0E0"/><path fill-rule="evenodd" clip-rule="evenodd" d="M135.222 168.619l23.31 44.85L140.5 232.5l-68.389 73.142 3.138 1.368 137.197 59.819 93.863 87.508 97.267-77.408 200.822-19.672-81.898-83.249L540 238.5l93.078-34.73-85.987-37.721 19.476-83.828-163.083 35.4L369.803 3.953 276.53 83.838l-79.786-35.794 12.008 67.108-127.45-15.915 53.92 69.382zm24.618 43.707l74.565 27.668-96.834-69.758 22.269 42.09zm75.454 30.386L73.435 305.478h150.257l11.602-62.766zm-22.848 122.112l10.962-57.814-148.159-.757 137.197 58.571zm2.411 2.576l90.331 84.215-20.206-74.726-70.125-9.489zm71.358 9.344l20.378 75.364 74.32-105.271-94.698 29.907zm96.239-29.962l-73.136 103.594 93.19-74.164-20.054-29.43zm23.209 28.711l193.212-18.926-132.133-22.686-61.079 41.612zm62.537-42.605l133.191 22.867-79.83-80.944-21.448 36.335-.05.034-31.863 21.708zm-1.74-.299l28.326-19.298c-2.628.87-6.107 1.922-10.232 3.12-7.04 2.044-15.982 4.517-25.818 7.237l-.003.001-3.38.935-2.082.577a4926.187 4926.187 0 00-11.485 3.192l24.674 4.236zm33.503-23.041l20.667-35.54-42.257-24.332 21.59 59.872zm-21.553-61.46l43.081 25.043 17.006-34.48-60.087 9.437zm.681-1.344l59.406-8.862-10.82-31.543-9.663 8.036-38.923 32.369zm38.095-33.275l10.279-8.549-36.608-18.434-12.879 59.589 39.208-32.606zm-25.115-28.158l36.209 18.65 16.937-36.717-53.146 18.067zm54.494-18.06l-17.138 37.154 100.571-.635-83.433-36.519zm-.51-1.925l17.847-78.235-21.876 37.35 4.029 40.885zm-5.121-41.493L563.902 84.5 405.5 118.725l135.434 5.108zm-53.022 61.012l-84.428-65.485-20.328 76.176 104.756-10.691zm-103.955 12.889l44.759 84.569 47.145-34.543-91.904-50.026zm157.265-72.338l-48.828 58.511 52.474-17.839-3.646-40.672zm-51.492 60.495l-105.234 10.74 92.08 50.123 13.154-60.863zm-122.643 8.083l14.832 1.575 20.006-73.205-34.838 71.63zm34.493-75.249l-55.87 14.593-19.72 55.156 75.59-69.749zm-77.208 70.626l20.161-56.387-32.545-9.774-46.862 49.439 59.246 16.722zm-59.944-17.769l46.244-48.787-33.555-37.383-12.689 86.17zm-25.236-67.23L275.14 84.2l-75.048-31.216 39.1 51.368zm-1.247.273l-38.982-51.148 10.989 61.412 27.993-10.264zm-28.977 11.735L87.366 100.939l124.931 34.021-3.329-18.6zm3.86 19.825L87.366 101.708 261.06 171.56l-48.232-35.375zm50.32 37.176L86.596 102.478l149.522 136.821 27.03-65.938zm-26.598 69.31l-11.826 63.976 59.075 66.874-47.249-130.85zm50.57 132.502l94.013-29.69-45.816-33.955-48.197 63.645zm50.506-63.46l44.708 33.133 16.651-22.598-61.359-10.535zm62.712 10.767l-16.199 21.986c14.329-4.997 33.488-10.596 52.081-15.826l-35.882-6.16zm.813-1.104l37.817 6.493c4.743-1.329 9.431-2.631 13.975-3.889l2.566-.71 2.782-.77.119-.033c9.836-2.721 18.769-5.191 25.801-7.233 4.158-1.207 7.645-2.262 10.259-3.129a62.875 62.875 0 003.224-1.149c.184-.073.354-.142.511-.208l-69.483-26.791-27.571 37.419zm97.533-11.757l-21.981-60.956-46.931 34.385 68.912 26.571zm-71.86-28.267l-44.292-83.688-17.467 42.293 61.759 41.395zm-62.799-42.092l17.559-42.514-15.019-1.595-15.672 35.307 13.132 8.802zm-.478 1.156l-13.159-8.821-13.553 30.535 16.247 3.626 10.465-25.34zm-13.689-10.652l15.425-34.749-40.393-4.288-18.007 10.232 42.975 28.805zm-.505 1.138l-43.662-29.265-67.649 38.444 97.571 21.776 13.74-30.955zm-43.608-30.706l17.435-9.908-55.655-15.709 38.22 25.617zm-42.79-30.455l12.909-84.446-36.068 20.179 23.159 64.267zm-24.406-63.994l-28.381 10.349 3.423 19.128 48.564 35.618-23.606-65.095zm66.004 95.127l-40.287-27.003-26.667 65.051 66.954-38.048zm-66.951 41.096l47.925 132.722 33.265-74.939-81.19-57.783zm82.21 58.509l-31.631 71.26 46.143-60.932-14.512-10.328zm18.087 10.038l61.899 10.627 27.133-36.825-89.032 26.198zm-1.649-.793l89.808-26.426-72.235-16.121-17.573 42.547zm16.357-42.819l-16.279-3.633-16.008 36.063 14.601 10.392 17.686-42.822zm-33.308 31.704l15.807-35.61-95.923-21.408 80.116 57.018zm45.288-57.496l-10.289 24.914 71.152 15.88-60.863-40.794zm-80.668 134.396l-59.478-67.33-10.691 57.835 70.169 9.495zm42.519-185.85l39.367 4.179 35.691-73.552-75.058 69.373zm138.565 143.923l-25.97-4.459c-19.844 5.563-40.584 11.591-55.615 16.894l20.079 29.468 61.506-41.903zm-232.844-96.161L85.827 103.247l50.591 64.993 95.741 69.181zm46.095-152.947l33.362 37.325L366 10l-87.746 74.474zm90.448-76.55l-55.77 114.27 32.014 9.615L368.702 7.924zm-22.579 124.238l56.042-14.541L369.803 7.924l-23.68 124.238zm144.704 51.703l49.303-59.076-132.63-4.503 83.327 63.579zM631.5 203.961l-91.37 32.821-10.703-31.552 102.073-1.269zm-454.832 41.615l-36.095-11.54-63.985 68.471 100.08-56.931zm-16.828-31.543l-18.412 19.12 36.834 11.654 54.605-4.426-73.027-26.348zm-82.482 89.244l100.904-56.932 54.615-4.375-155.519 61.307z" fill="#71A0DD"/><path d="M203.63 50.637a4.323 4.323 0 01-4.325 4.322 4.324 4.324 0 01-4.326-4.322 4.324 4.324 0 014.326-4.322 4.323 4.323 0 014.325 4.322zM86.775 99.876a4.324 4.324 0 01-4.326 4.322 4.324 4.324 0 01-4.325-4.322 4.324 4.324 0 014.325-4.322 4.324 4.324 0 014.326 4.322zm-8.749 205.931a4.324 4.324 0 01-4.326 4.322 4.324 4.324 0 01-4.325-4.322 4.324 4.324 0 014.325-4.322 4.324 4.324 0 014.326 4.322zM374.651 4.322a4.324 4.324 0 01-4.326 4.323A4.324 4.324 0 01366 4.322 4.324 4.324 0 01370.325 0a4.324 4.324 0 014.326 4.322zm194.05 80.167a4.324 4.324 0 01-4.326 4.322 4.323 4.323 0 110-8.645 4.324 4.324 0 014.326 4.323zm65.95 118.833a4.325 4.325 0 01-8.651 0 4.324 4.324 0 014.325-4.322 4.324 4.324 0 014.326 4.322zm-26.091 155.06a4.324 4.324 0 01-4.325 4.322 4.324 4.324 0 01-4.326-4.322 4.324 4.324 0 014.326-4.322 4.324 4.324 0 014.325 4.322z" fill="#0A3D76"/><path d="M207.589 260.188c5.64 0 8.615-3.408 8.615-7.667 0-3.579-2.531-6.518-5.684-6.986 2.798-.554 5.107-2.939 5.107-6.517 0-3.792-2.887-7.242-8.526-7.242h-15.586v28.412h16.074zm-1.865-17.039h-7.904v-6.176h7.904c2.132 0 3.464 1.32 3.464 3.109s-1.332 3.067-3.464 3.067zm.222 11.8h-8.126v-6.603h8.126c2.487 0 3.819 1.534 3.819 3.323 0 2.044-1.421 3.28-3.819 3.28z" fill="url(#paint2_linear)"/><path d="M253.02 260.188l-11.412-28.412h-7.905l-11.456 28.412h7.194l1.865-4.814h12.699l1.821 4.814h7.194zm-10.746-10.138h-9.237l4.618-12.225 4.619 12.225z" fill="url(#paint3_linear)"/><path d="M291.634 231.776v23.087h-9.369v-23.087h-6.35v23.087h-9.414v-23.087h-6.306v28.412h37.789v-28.412h-6.35z" fill="url(#paint4_linear)"/><path d="M324.106 231.776v28.412h13.988c6.349 0 9.813-4.132 9.813-9.031 0-4.898-3.508-9.03-9.813-9.03h-7.683v-5.026h15.32v-5.325h-21.625zm13.144 15.676c2.442 0 4.218 1.405 4.218 3.705 0 2.258-1.776 3.706-4.218 3.706h-6.839v-7.411h6.839z" fill="url(#paint5_linear)"/><path d="M362.34 260.188l14.121-19.041v19.041h6.305v-28.412h-6.483l-13.721 18.359v-18.359h-6.306v28.412h6.084z" fill="url(#paint6_linear)"/><path d="M403.215 260.699c7.061 0 12.168-3.45 12.168-8.349 0-4.259-3.908-6.517-6.883-6.815 3.241-.554 6.438-2.897 6.438-6.475 0-4.728-4.795-7.71-11.723-7.71-5.195 0-9.413 1.917-11.811 4.515l3.152 3.791c2.088-1.916 5.151-2.939 8.038-2.939 3.375 0 6.039 1.108 6.039 3.365 0 2.088-2.531 3.025-6.039 3.025h-5.995v5.324h5.995c4.44 0 6.527 1.023 6.527 3.28 0 2.13-2.264 3.621-6.172 3.621-2.886 0-6.616-1.193-8.659-3.237l-3.286 4.046c2.176 2.556 6.75 4.558 12.211 4.558z" fill="url(#paint7_linear)"/><path d="M451.233 260.188v-28.412h-6.35v11.16h-13.987v-11.16h-6.306v28.412h6.306v-11.927h13.987v11.927h6.35z" fill="url(#paint8_linear)"/><path d="M482.47 260.188v-5.325h-14.654v-6.432h14.343v-5.324h-14.343v-6.006h14.654v-5.325h-20.959v28.412h20.959z" fill="url(#paint9_linear)"/><path d="M506.183 260.699c6.527 0 10.257-3.45 12.389-6.986l-5.418-2.513c-1.243 2.343-3.908 4.132-6.971 4.132-5.374 0-9.281-3.962-9.281-9.329 0-5.367 3.907-9.328 9.281-9.328 3.063 0 5.728 1.831 6.971 4.132l5.418-2.556c-2.087-3.536-5.862-6.943-12.389-6.943-8.882 0-15.764 5.963-15.764 14.695 0 8.733 6.882 14.696 15.764 14.696z" fill="url(#paint10_linear)"/><defs><linearGradient id="paint0_linear" x1="339.615" y1="626.043" x2="249.83" y2="430.557" gradientUnits="userSpaceOnUse"><stop offset=".096"/><stop offset=".978" stop-color="#B4D1FA" stop-opacity="0"/></linearGradient><linearGradient id="paint2_linear" x1="508.49" y1="246.003" x2="217.653" y2="176.516" gradientUnits="userSpaceOnUse"><stop stop-color="#A62E41"/><stop offset="1" stop-color="#E13152"/></linearGradient><linearGradient id="paint3_linear" x1="508.49" y1="246.003" x2="217.653" y2="176.516" gradientUnits="userSpaceOnUse"><stop stop-color="#A62E41"/><stop offset="1" stop-color="#E13152"/></linearGradient><linearGradient id="paint4_linear" x1="508.49" y1="246.003" x2="217.653" y2="176.516" gradientUnits="userSpaceOnUse"><stop stop-color="#A62E41"/><stop offset="1" stop-color="#E13152"/></linearGradient><linearGradient id="paint5_linear" x1="508.49" y1="246.003" x2="217.653" y2="176.516" gradientUnits="userSpaceOnUse"><stop stop-color="#A62E41"/><stop offset="1" stop-color="#E13152"/></linearGradient><linearGradient id="paint6_linear" x1="508.49" y1="246.003" x2="217.653" y2="176.516" gradientUnits="userSpaceOnUse"><stop stop-color="#A62E41"/><stop offset="1" stop-color="#E13152"/></linearGradient><linearGradient id="paint7_linear" x1="508.49" y1="246.003" x2="217.653" y2="176.516" gradientUnits="userSpaceOnUse"><stop stop-color="#A62E41"/><stop offset="1" stop-color="#E13152"/></linearGradient><linearGradient id="paint8_linear" x1="508.49" y1="246.003" x2="217.653" y2="176.516" gradientUnits="userSpaceOnUse"><stop stop-color="#A62E41"/><stop offset="1" stop-color="#E13152"/></linearGradient><linearGradient id="paint9_linear" x1="508.49" y1="246.003" x2="217.653" y2="176.516" gradientUnits="userSpaceOnUse"><stop stop-color="#A62E41"/><stop offset="1" stop-color="#E13152"/></linearGradient><linearGradient id="paint10_linear" x1="508.49" y1="246.003" x2="217.653" y2="176.516" gradientUnits="userSpaceOnUse"><stop stop-color="#A62E41"/><stop offset="1" stop-color="#E13152"/></linearGradient><filter id="filter0_f" x="-5" y="492.572" width="359.983" height="136.342" filterUnits="userSpaceOnUse" color-interpolation-filters="sRGB"><feFlood flood-opacity="0" result="BackgroundImageFix"/><feBlend in="SourceGraphic" in2="BackgroundImageFix" result="shape"/><feGaussianBlur stdDeviation="2.5" result="effect1_foregroundBlur"/></filter><filter id="filter1_f" x="121.709" y="337.021" width="398.661" height="397.929" filterUnits="userSpaceOnUse" color-interpolation-filters="sRGB"><feFlood flood-opacity="0" result="BackgroundImageFix"/><feBlend in="SourceGraphic" in2="BackgroundImageFix" result="shape"/><feGaussianBlur stdDeviation="40" result="effect1_foregroundBlur"/></filter><radialGradient id="paint1_radial" cx="0" cy="0" r="1" gradientUnits="userSpaceOnUse" gradientTransform="matrix(0 94.3511 -94.6413 0 319.668 494.963)"><stop stop-color="#0095FF"/><stop offset="1" stop-color="#BCE3FF"/></radialGradient><clipPath id="clip0"><path fill="#fff" transform="translate(0 283.473)" d="M0 0h560.516v406.014H0z"/></clipPath></defs></svg>