<svg width="170" height="124" fill="none" xmlns="http://www.w3.org/2000/svg"><g clip-path="url(#clip0)"><g filter="url(#filter0_f)"><path d="M106.146 80.808l-59.389 22.327L0 86.158 59.057 64.86l47.089 15.948z" fill="url(#paint0_linear)"/></g><path d="M97.571 122.932L45.104 103.17l-.018-63.318 52.485 19.76v63.32z" fill="#053866"/><path d="M150.471 103.076l-52.9-19.993.03-63.552 52.979 19.864-.109 63.681z" fill="#083556"/><path d="M97.57 122.932l52.992-20.09.018-63.513-52.992 19.927-.018 63.676z" fill="#054270"/><path d="M45.104 103.076l52.499-19.138V19.53L45.086 39.414l.018 63.662z" fill="#063D66"/><g filter="url(#filter1_f)"><ellipse cx="97.368" cy="76.497" rx="36.192" ry="36.04" fill="url(#paint1_radial)"/></g><path d="M97.553 122.932L45.104 103.17l-.018-63.318 52.485 19.76-.018 63.32z" fill="#053866"/><path d="M58.207 60.752l-13.103-4.977-.018-15.923 13.121 5.085v15.815z" fill="#053866"/><path d="M48.575 55.002a8.643 8.643 0 01-3.453-.626l-.036-1.679c2.666 1.018 5.225.822 7.193-.536 2.344-1.608 3.829-4.27 3.829-8.13l1.574.626c0 4.395-1.306 6.86-4.08 8.773a9.287 9.287 0 01-5.027 1.572z" fill="#FF8098"/><path d="M71.328 65.455l-13.121-5.003V44.554l13.121 5.003v15.898z" fill="#0E2951"/><path d="M84.45 70.68l-13.122-5.003V49.779l13.121 4.985V70.68z" fill="#FF8098"/><path d="M97.499 75.383l-13.05-4.944V54.482L97.57 59.28l-.07 16.103z" fill="#6780B3"/><path d="M58.207 76.428l-13.121-4.985V55.527l13.121 5.004v15.897z" fill="#911A31"/><path d="M71.328 81.13l-13.121-4.877v-15.5l13.121 4.877v15.5z" fill="#C43B55"/><path d="M84.45 86.355l-13.122-5.003V65.455l13.121 5.003v15.897z" fill="#053866"/><path d="M97.57 91.058l-13.12-4.824V70.68l13.12 4.824v15.554z" fill="#132F7C"/><path d="M71.332 97.328l-13.121-4.985V76.428l13.121 5.003v15.897z" fill="#FF8098"/><path d="M84.453 102.031l-13.121-5.003V81.13l13.121 5.004v15.897z" fill="#0E2951"/><path d="M97.574 107.256l-13.12-4.948V86.355l13.12 4.948v15.953z" fill="#053866"/><path d="M58.207 108.301l-13.121-5.003V87.4l13.121 5.003v15.898z" fill="#6780B3"/><path d="M71.332 113.004l-13.121-4.99V92.103l13.121 4.99v15.911z" fill="#053866"/><path d="M84.45 118.229l-13.122-5.003V97.328l13.121 5.003v15.898z" fill="#FF8098"/><path d="M97.57 122.931l-13.12-4.92v-15.98l13.066 4.956.054 15.944z" fill="#3D95D1"/><path d="M47.799 51.869a6.672 6.672 0 01-2.713-.532V49.41c1.906.734 4.271.477 5.444-.294 1.962-1.303 2.915-3.321 2.915-6.13l1.613.643c0 3.45-1.228 5.56-3.428 7.084a6.869 6.869 0 01-3.831 1.156z" fill="#D6516B"/><path d="M46.861 48.211a4.266 4.266 0 01-1.775-.348v-2.032c1.146.465 2.922.348 3.901-.677 1.017-1.064 1.295-1.935 1.295-3.735l1.627.678c0 2.477-.814 4.16-2.348 5.263a4.675 4.675 0 01-2.7.851z" fill="#C43B55"/><path d="M45.922 44.548a1.476 1.476 0 01-.836-.171v-2.001c.279.114 1.184.19 1.532 0 .61-.343.61-1.01.314-2.002l1.828.668c0 1.39-.453 2.363-1.306 3.01a2.683 2.683 0 01-1.532.496z" fill="#A62E41"/><path d="M97.367 104.643l-11.344-4.176V73.293l11.547 4.104v2.205l-9.591-3.585v23.141l9.278 3.406.11 2.079z" fill="#A7C3EE"/><path d="M97.57 105.166l-11.547-4.563V86.878l1.956.621v11.808l9.591 3.675v2.184z" fill="#F985A0"/><path d="M97.365 100.986l-8.193-3.043V77.995l8.398 2.97v2.24l-6.443-2.423v16.16l6.443 2.24-.205 1.804z" fill="#A7C3EE"/><path d="M97.374 96.806l-4.526-1.707V83.743l4.723 1.635v2.186l-2.837-1.102v7.358l2.837 1.226-.197 1.76z" fill="#A7C3EE"/><path d="M97.571 96.805l-4.723-1.833v-6.004l1.886.629v4.08l2.837.917v2.212z" fill="#F985A0"/><path d="M97.57 100.986l-8.398-3.07v-9.993l1.955.621v8.076l6.443 2.183v2.183z" fill="#F985A0"/><path d="M55.058 106.734l-9.972-3.754V91.058l9.972 3.754v11.922z" fill="#053866"/><path d="M51.384 105.688l-6.298-2.499v-7.951l6.298 2.5v7.95z" fill="#709FDC"/><path d="M84.45 60.334l-4.8 8.256-8.322-8.987 4.8-8.256 8.321 8.986z" fill="#C43B55"/><path d="M81.3 60.144l-2.51 4.266-4.313-4.635 2.49-4.248 4.333 4.617z" fill="#911A31"/><path d="M84.45 118.229l-13.122-5.019v-12.747l13.121 5.001v12.765z" fill="#C43B55"/><path d="M84.45 118.229l-13.122-5.151v-9.48l13.121 5.132v9.499z" fill="#911A31"/><path d="M84.45 118.229l-13.122-5.125v-5.848l13.121 5.106v5.867z" fill="#053866"/><path d="M84.45 118.229l-13.122-4.996v-2.842l13.121 4.978v2.86z" fill="#0E2951"/><path d="M58.21 64.41l13.122 4.882-13.121 3.821 13.121 4.883L58.211 64.41z" fill="#911A31"/><path d="M46.66 72.248l-1.574-.642V55.527l1.575.642v16.079zm2.625.522l-1.574-.621V56.572l1.575.639V72.77zm8.396 3.135l-2.099-.622V59.707l2.1.622v15.576zm-3.149-1.045l-1.575-.622V58.662l1.575.621V74.86zm-2.622-1.045l-1.574-.622V57.617l1.575.621v15.577z" fill="#FF8098"/><path d="M58.207 92.103L45.086 87.1V71.203l13.121 4.985v15.915z" fill="#0E2951"/><path d="M58.21 92.103l-6.823-2.5v-7.95l6.823 2.5v7.95zm-6.826-10.45l-6.298-2.504v-7.946l6.298 2.503v7.947z" fill="#3D95D1"/><path fill-rule="evenodd" clip-rule="evenodd" d="M59.781 94.716l9.513 3.733-.505 1.377-7.584-2.976v9.133l7.125 2.796v-6.855l-5.516-2.167v4.882l3.907 1.538v-2.944l-2.315-.91v1.006l1.687.663-.505 1.377-2.605-1.023v-4.16l5.161 2.031v6.097l-6.753-2.659v-8.034l8.362 3.286v10.007l-9.972-3.913V94.716z" fill="#3D95D1"/><path fill-rule="evenodd" clip-rule="evenodd" d="M96.52 109.32l-8.935 8.387-1.562-1.542 8.936-8.386 1.561 1.541z" fill="#0E2951"/><path fill-rule="evenodd" clip-rule="evenodd" d="M87.894 104.644l8.626 15.109-1.87 1.089-8.627-15.11 1.871-1.088z" fill="#0E2951"/><path d="M76.052 88.968l-2.099-.874V85.31l2.1.874v2.783zm2.625 4.702l-2.099-.87v-2.787l2.1.87v2.787zm3.149 4.18l-2.1-.749v-2.385l2.1.75v2.385z" fill="#B9D5FD"/><path d="M97.588 59.256L150.58 39.33v63.585l-53.01 20.018.019-63.676z" fill="#053866"/><path d="M137.457 76.201l13.121-4.998v15.901l-13.121 5V76.2z" fill="#B9D5FD"/><path d="M123.812 81.306l13.647-4.878v15.517l-13.647 4.86v-15.5z" fill="#C43B55"/><path d="M110.691 86.133l13.122-5.003v15.898l-13.122 5.003V86.133z" fill="#053866"/><path d="M97.57 91.413l13.122-5.057v15.842l-13.122 5.058V91.413z" fill="#132F7C"/><path d="M123.812 65.233l13.647-5.004v16.135l-13.647 5.016V65.233z" fill="#FF8098"/><path d="M110.691 70.458l13.122-5.003v15.897l-13.122 5.003V70.458z" fill="#0E2951"/><path d="M97.57 75.215l13.122-5.058V86L97.57 91.058V75.215z" fill="#053866"/><path d="M123.812 97.088l13.647-4.984V108l-13.647 5.003V97.088z" fill="#0E2951"/><path d="M110.691 101.809l13.122-5.003v15.916l-13.122 4.985v-15.898z" fill="#709FDC"/><path d="M97.57 107.098l13.122-5.067v15.87l-13.068 5.031-.054-15.834z" fill="#911A31"/><path d="M137.457 44.346l13.121-5.017v15.902l-13.121 4.999V44.346z" fill="#C43B55"/><path d="M123.809 49.557l13.646-5.003v15.898l-13.646 5.003V49.557z" fill="#053866"/><path d="M110.688 54.657l13.121-4.878v15.5l-13.121 4.878v-15.5z" fill="#FF8098"/><path d="M97.642 59.377l13.05-4.895v15.843L97.57 75.382l.072-16.006z" fill="#3D95D1"/><path d="M97.246 105.166v-2.201l9.933-3.83V76.03l-9.454 3.454-.682-1.754 12.072-4.438v27.13l-11.87 4.743z" fill="#B9D5FD"/><path d="M109.117 87.293l-1.883.63V76.046L97.57 79.77v-2.214l11.547-4.264v14z" fill="#F985A0"/><path d="M97.57 100.986v-2.197l6.518-2.643V80.608l-6.518 2.518v-2.197l8.398-2.41V97.45l-8.398 3.536z" fill="#B9D5FD"/><path d="M97.242 96.806v-2.148l3.149-1.03v-7.23l-2.678.978-.67-1.712 5.248-1.92v11.159l-5.049 1.903z" fill="#B9D5FD"/><path d="M102.294 89.399l-1.778.614v-3.6l-2.946 1.23v-2.161l4.724-1.739V89.4z" fill="#F985A0"/><path d="M105.968 88.33l-1.88.638v-8.283l-6.518 2.496v-2.177l8.398-3.009v10.336z" fill="#F985A0"/><path d="M143.754 41.842l6.823-2.513v7.955l-6.823 2.495v-7.937z" fill="#FF8098"/><path d="M110.688 112.001l4.802-11.538 8.319 2.57-4.803 11.538-8.318-2.57z" fill="#0E2951"/><path d="M113.84 109.581l2.489-5.982 4.334 1.333-2.508 5.982-4.315-1.333z" fill="#6780B3"/><path d="M110.688 54.65l13.121-4.87v12.389l-13.121 4.853V54.65z" fill="#C43B55"/><path d="M110.688 54.746l13.121-4.967v9.16l-13.121 4.948v-9.141z" fill="#911A31"/><path d="M110.688 54.66l13.121-4.88v5.587l-13.121 4.863v-5.57z" fill="#053866"/><path d="M110.688 54.764l13.121-4.985v2.854l-13.121 4.984v-2.853z" fill="#0E2951"/><path d="M137.455 88.266l-13.646 4.882 13.646-13.585-13.646 4.882" fill="#911A31"/><path d="M150.576 87.294l-2.099.63V71.85l2.099-.647v16.09zm-2.621.53l-2.1.622V72.869l2.1-.621v15.576zm-7.875 3.136l-2.06.62-.04-15.576 2.061-.621.039 15.576zm2.625-1.046l-2.1.622V74.96l2.1-.622v15.576zm2.625-1.045l-2.1.621V73.915l2.1-.621V88.87z" fill="#709FDC"/><path d="M137.457 60.53l13.121-5.003v15.898l-13.121 5.003V60.531z" fill="#0E2951"/><path d="M137.457 91.882l13.121-5.004v15.898l-13.121 5.003V91.882z" fill="#053866"/><path d="M137.457 60.514l6.298-2.374v7.553l-6.298 2.374v-7.553z" fill="#911A31"/><path d="M139.063 107.15l-1.606.629c0-10.71 6.022-17.214 13.121-19.856v1.582c-6.405 2.39-11.515 10.404-11.515 17.645z" fill="#B9D5FD"/><path d="M142.53 106.098l-1.925.636c0-7.647 4.602-13.677 9.973-15.675v1.907c-4.693 1.762-8.048 7.52-8.048 13.132z" fill="#3D95D1"/><path d="M146.045 104.548l-1.764.618c0-4.642 2.682-9.109 6.263-10.45l.035 1.765c-2.789 1.06-4.534 4.731-4.534 8.067z" fill="#3376B3"/><path d="M149.031 103.493l-1.561.628c-.319-2.514 1.135-5.011 3.069-5.747l.036 1.975c-1.207.449-1.544 1.617-1.544 3.144z" fill="#709FDC"/><path fill-rule="evenodd" clip-rule="evenodd" d="M135.88 46.644v12.565l-9.488 3.633-.528-1.41 8.525-3.264v-9.341l-7.515 2.878v7.013l5.83-2.22v-4.995l-4.145 1.579v2.992L131 55.14v-1.01l-1.237.474-.529-1.409 3.257-1.25v4.237l-5.423 2.074V52.04l7.127-2.714v8.215l-8.812 3.357V50.663l10.497-4.02z" fill="#F985A0"/><path fill-rule="evenodd" clip-rule="evenodd" d="M98.617 72.164l9.07-15.592 1.952 1.129-9.07 15.592-1.952-1.129z" fill="#0E2951"/><path fill-rule="evenodd" clip-rule="evenodd" d="M107.567 70.157l-8.95-8.819 1.548-1.631 8.949 8.82-1.547 1.63z" fill="#0E2951"/><path d="M119.086 77.302l2.099-.874v2.783l-2.099.874v-2.783zm-2.625-2.218l2.099-.746v2.39l-2.099.745v-2.39zm-3.149-2.609l2.1-.75v2.386l-2.1.75v-2.386z" fill="#911A31"/><path d="M140.605 43.226l9.973-3.897v12.338l-9.973 3.86v-12.3z" fill="#053866"/><path d="M143.754 65.868l6.823-2.503v8.168l-6.823 2.601v-8.266z" fill="#911A31"/><path d="M170 19.978L150.281 39.33l-52.68-19.798 19.67-19.39L170 19.977z" fill="#084C80"/><path d="M97.817 59.296l-19.9 19.744-52.776-19.756 20.26-19.71 52.416 19.722z" fill="#094573"/><path d="M97.601 19.531L78.222 0l-52.71 19.91 19.682 19.801 52.407-20.18zM170 58.874L150.315 39.33 97.57 59.404l19.793 19.636L170 58.874z" fill="#084C80"/></g><defs><filter id="filter0_f" x="-5" y="59.86" width="116.147" height="48.275" filterUnits="userSpaceOnUse" color-interpolation-filters="sRGB"><feFlood flood-opacity="0" result="BackgroundImageFix"/><feBlend in="SourceGraphic" in2="BackgroundImageFix" result="shape"/><feGaussianBlur stdDeviation="2.5" result="effect1_foregroundBlur"/></filter><filter id="filter1_f" x="-18.824" y="-39.542" width="232.384" height="232.079" filterUnits="userSpaceOnUse" color-interpolation-filters="sRGB"><feFlood flood-opacity="0" result="BackgroundImageFix"/><feBlend in="SourceGraphic" in2="BackgroundImageFix" result="shape"/><feGaussianBlur stdDeviation="40" result="effect1_foregroundBlur"/></filter><radialGradient id="paint1_radial" cx="0" cy="0" r="1" gradientUnits="userSpaceOnUse" gradientTransform="matrix(0 28.5832 -28.704 0 96.952 64.07)"><stop stop-color="#0095FF"/><stop offset="1" stop-color="#BCE3FF"/></radialGradient><linearGradient id="paint0_linear" x1="103.002" y1="103.78" x2="75.822" y2="44.535" gradientUnits="userSpaceOnUse"><stop offset=".096"/><stop offset=".978" stop-color="#B4D1FA" stop-opacity="0"/></linearGradient><clipPath id="clip0"><path fill="#fff" d="M0 0h170v123H0z"/></clipPath></defs></svg>