<svg width="660" height="700" fill="none" xmlns="http://www.w3.org/2000/svg"><g clip-path="url(#clip0)"><g filter="url(#filter0_d)"><path d="M359.961 700.074l288.144-109.658-361.01-134.695L2.119 565.368 359.96 700.074z" fill="#FFF5F7"/></g><g clip-path="url(#clip1)"><g filter="url(#filter1_f)"><path d="M384.282 515.42L191.75 587.615 66.212 539.943l176.388-68.86 141.682 44.337z" fill="url(#paint0_linear)"/></g><path d="M356.651 651.163L187.61 587.484l-.058-204.04 169.099 63.679v204.04z" fill="#053866"/><path d="M527.453 586.476l-170.8-63.724-.775-204.066 2.916-2.415 168.648 65.7.011 204.505z" fill="#083556"/><path d="M356.653 651.162l170.731-64.738.058-204.664-170.731 64.213-.058 205.189z" fill="#054270"/><path d="M187.61 587.179l171.767-69.091-2.633-200.126-2.033-1.691-167.159 65.763.058 205.145z" fill="#063D66"/><g filter="url(#filter2_f)"><ellipse cx="356" cy="501.531" rx="116.604" ry="116.135" fill="url(#paint1_radial)"/></g><path d="M356.655 651.166l-169.04-63.682-.058-204.04 169.098 63.679v204.043z" fill="#053866"/><path d="M229.831 450.795l-42.216-16.039-.059-51.312 42.275 16.387v50.964z" fill="#053866"/><path d="M198.795 432.264a27.82 27.82 0 01-11.126-2.015l-.116-5.412c8.59 3.282 16.833 2.649 23.175-1.727 7.551-5.181 12.336-13.76 12.336-26.196l5.073 2.015c0 14.163-4.208 22.108-13.144 28.269a29.911 29.911 0 01-16.198 5.066z" fill="#FF8098"/><path d="M272.105 465.948l-42.275-16.122v-51.228l42.275 16.122v51.228z" fill="#0E2951"/><path d="M314.378 482.786l-42.275-16.122v-51.229l42.275 16.064v51.287z" fill="#FF8098"/><path d="M356.652 497.935l-42.275-15.925v-51.421l42.562 15.801-.287 51.545zm-126.824 3.373l-42.275-16.064v-51.287l42.275 16.122v51.229z" fill="#911A31"/><path d="M272.105 516.462l-42.275-15.719v-49.948l42.275 15.719v49.948z" fill="#C43B55"/><path d="M314.378 533.298l-42.275-16.122v-51.228l42.275 16.122v51.228z" fill="#053866"/><path d="M356.652 548.453l-42.275-15.546.056-50.886 42.219 15.872v50.56z" fill="#132F7C"/><path d="M272.105 568.658l-42.275-16.064v-51.843l42.275 15.696v52.211z" fill="#FF8098"/><path d="M314.381 583.811l-42.274-16.122v-51.228l42.274 16.122v51.228z" fill="#0E2951"/><path d="M356.658 600.649l-42.275-15.943v-51.407l42.275 15.944v51.406z" fill="#053866"/><path d="M229.828 603.33l-42.275-15.877V535.98l42.275 15.841v51.509z" fill="#C43B55"/><path d="M272.105 619.171l-42.275-16.078V551.82l42.275 16.078v51.273z" fill="#053866"/><path d="M314.378 635.057l-42.275-16.122v-51.228l42.275 16.122v51.228z" fill="#FF8098"/><path d="M356.652 651.162l-42.275-15.854v-51.496l42.275 16.549v50.801z" fill="#911A31"/><path d="M196.294 422.168a21.495 21.495 0 01-8.741-1.715v-6.209c6.143 2.366 13.761 1.538 17.541-.946 6.32-4.199 9.391-10.704 9.391-19.751l5.197 2.069c0 11.118-3.957 17.919-11.044 22.827a22.122 22.122 0 01-12.344 3.725z" fill="#D6516B"/><path d="M193.272 410.382a13.737 13.737 0 01-5.719-1.123v-6.547c3.694 1.497 9.413 1.122 12.57-2.182 3.277-3.43 4.171-6.236 4.171-12.035l5.242 2.183c0 7.981-2.621 13.406-7.566 16.96a15.06 15.06 0 01-8.698 2.744z" fill="#C43B55"/><path d="M190.246 398.578a4.753 4.753 0 01-2.693-.553v-6.449c.898.369 3.814.614 4.936 0 1.963-1.105 1.963-3.255 1.01-6.448l5.889 2.149c0 4.484-1.458 7.616-4.206 9.704-1.474 1.035-3.186 1.589-4.936 1.597z" fill="#A62E41"/><path d="M355.996 592.23l-36.548-13.458v-87.567l37.202 13.227v7.105l-30.902-11.553v75.754l29.725 12.203.523 4.289z" fill="#C43B55"/><path d="M356.65 593.914l-37.202-14.704v-44.467l6.3 2.267v38.023l30.902 11.843v7.038z" fill="#F985A0"/><path d="M355.962 578.667l-26.365-8.298v-64.011l27.056 9.569v7.221l-20.757-7.808v52.071l20.757 7.221-.691 4.035z" fill="#C43B55"/><path d="M355.962 564.512l-14.525-3.905v-35.728l15.219 5.269v7.045l-9.143-3.551v23.71l9.143 3.952-.694 3.208z" fill="#C43B55"/><path d="M356.656 566.974l-15.219-5.909v-18.231l6.076 2.198v11.862l9.143 2.955v7.125z" fill="#F985A0"/><path d="M356.653 580.444l-27.056-9.894v-32.047l6.299 2.334v25.538l20.757 7.035v7.034z" fill="#F985A0"/><path d="M219.682 599.55l-32.129-12.097v-39.001l32.129 12.095v39.003z" fill="#053866"/><path d="M207.845 595.081l-20.292-7.629v-25.53l20.292 8.054v25.105z" fill="#FF8098"/><path d="M314.378 449.446l-15.464 26.604-26.811-28.959 15.464-26.605 26.811 28.96z" fill="#C43B55"/><path d="M304.234 448.834l-8.086 13.747-13.896-14.937 8.026-13.687 13.956 14.877z" fill="#911A31"/><path d="M314.378 634.939l-42.275-16.173v-41.075l42.275 16.113v41.135z" fill="#C43B55"/><path d="M314.378 634.598l-42.275-16.597v-30.548l42.275 16.537v30.608z" fill="#911A31"/><path d="M314.378 634.526l-42.275-16.513v-18.846l42.275 16.453v18.906z" fill="#053866"/><path d="M314.378 635.162l-42.275-16.099v-9.157l42.275 16.04v9.216z" fill="#0E2951"/><path d="M229.83 462.581l42.275 15.732-42.275 12.313 42.275 15.733-42.275-43.778z" fill="#911A31"/><path d="M192.625 487.838l-5.072-2.068v-51.813l5.072 2.068v51.813zm8.455 1.683l-5.072-2.001v-50.196l5.072 2.058v50.139zm27.056 10.101l-6.763-2.003v-50.193l6.763 2.003v50.193zm-10.146-3.367l-5.072-2.003v-50.193l5.072 2.003v50.193zm-8.453-3.367l-5.072-2.003v-50.193l5.072 2.003v50.193z" fill="#FF8098"/><path d="M229.828 551.821l-42.275-16.122V484.47l42.275 16.064v51.287z" fill="#0E2951"/><path d="M229.828 551.82l-21.983-8.054v-25.621l21.983 8.054v25.621zm-21.983-33.675l-20.292-8.068V484.47l20.292 7.641v26.034z" fill="#911A31"/><path fill-rule="evenodd" clip-rule="evenodd" d="M234.903 560.24l30.648 12.028-1.626 4.44-24.436-9.59v29.43l22.956 9.01v-22.09l-17.771-6.984v15.731l12.586 4.957v-9.486l-7.457-2.934v3.242l5.434 2.136-1.627 4.439-8.393-3.298v-13.405l16.629 6.545v19.648l-21.758-8.569v-25.888l26.943 10.589v32.245l-32.128-12.609V560.24z" fill="#F985A0"/><path fill-rule="evenodd" clip-rule="evenodd" d="M353.268 607.301l-28.79 27.024-5.03-4.968 28.79-27.024 5.03 4.968z" fill="#0E2951"/><path fill-rule="evenodd" clip-rule="evenodd" d="M325.475 592.23l27.793 48.688-6.027 3.509-27.793-48.688 6.027-3.509z" fill="#0E2951"/><path d="M287.32 541.718l-6.763-2.819v-8.967l6.763 2.818v8.968zm8.454 15.153l-6.763-2.803v-8.983l6.763 2.803v8.983zm10.147 13.471l-6.763-2.416v-7.686l6.763 2.415v7.687z" fill="#911A31"/><path d="M356.939 446.39l170.501-64.629v204.898l-170.79 64.504.289-204.773z" fill="#053866"/><path d="M485.168 500.578l42.274-16.108v51.242l-42.274 16.108v-51.242z" fill="#911A31"/><path d="M441.202 517.027l43.965-15.719v50.004l-43.965 15.662v-49.947z" fill="#C43B55"/><path d="M398.932 532.583l42.274-16.122v51.228l-42.274 16.122v-51.228z" fill="#053866"/><path d="M356.653 548.419l42.275-15.165v51.096l-42.275 16.299v-52.23z" fill="#132F7C"/><path d="M441.201 465.233l43.966-16.122v52.435l-43.966 15.619v-51.932z" fill="#FF8098"/><path d="M398.932 482.071l42.274-16.122v51.229L398.932 533.3v-51.229z" fill="#0E2951"/><path d="M356.653 497.401l42.275-16.299v51.052l-42.275 16.299v-51.052z" fill="#053866"/><path d="M441.207 566.952l44.032-15.646-.293 51.278-43.739 16.638v-52.27z" fill="#0E2951"/><path d="M398.932 584.036l42.274-17.06v52.253l-42.274 15.917v-51.11z" fill="#FF8098"/><path d="M356.653 600.363l42.275-16.327v51.14l-42.275 15.984v-50.797z" fill="#911A31"/><path d="M485.165 397.928l42.275-16.167v51.243l-42.275 16.108v-51.184z" fill="#C43B55"/><path d="M441.197 414.721l43.966-16.122v51.228l-43.966 16.123v-51.229z" fill="#053866"/><path d="M398.923 431.155l42.275-15.719v49.948l-42.275 15.719v-49.948z" fill="#FF8098"/><path d="M356.883 446.365l42.043-15.775v51.051l-42.275 16.299.232-51.575z" fill="#911A31"/><path d="M356.645 593.869v-6.931l30.971-12.458v-74.451l-30.461 11.13-2.197-5.651 38.892-14.303v87.428l-37.205 15.236z" fill="#C43B55"/><path d="M393.853 535.271l-6.232 2.066v-37.259l-30.97 11.468v-7.072l37.202-13.269v44.066z" fill="#F985A0"/><path d="M356.651 580.445v-7.079l20.999-8.518v-50.071l-20.999 8.115v-7.079l27.056-7.77v61.007l-27.056 11.395z" fill="#C43B55"/><path d="M356.645 567.024v-7.179l9.1-3.111v-23.298l-8.63 3.151-2.157-5.515 16.909-6.19v35.96l-15.222 6.182z" fill="#C43B55"/><path d="M371.87 543.106l-6.137 1.981v-11.603l-9.082 3.694v-7.039l15.219-5.257v18.224z" fill="#F985A0"/><path d="M383.707 538.816l-6.057 2.021v-25.809l-20.999 8.101v-7.203l27.056-9.567v32.457z" fill="#F985A0"/><path d="M505.455 389.859l21.983-8.098v25.635l-21.983 8.04v-25.577z" fill="#FF8098"/><path d="M398.923 615.942l15.473-37.181 26.802 8.282-15.474 37.18-26.801-8.281z" fill="#C43B55"/><path d="M409.068 608.14l8.021-19.276 13.962 4.297-8.08 19.276-13.903-4.297z" fill="#911A31"/><path d="M398.923 431.133l42.275-15.697v39.924L398.923 471v-39.867z" fill="#C43B55"/><path d="M398.923 431.44l42.275-16.004v29.515l-42.275 15.946V431.44z" fill="#911A31"/><path d="M398.923 431.162l42.275-15.726v18.006l-42.275 15.669v-17.949z" fill="#053866"/><path d="M398.923 431.498l42.275-16.062v9.195l-42.275 16.061v-9.194z" fill="#0E2951"/><path d="M485.163 539.457l-43.966 15.732 43.966-43.777-43.966 15.732" fill="#911A31"/><path d="M527.436 536.324l-6.763 2.027v-51.794l6.763-2.086v51.853zm-8.455 2.246l-6.675 2.512-.088-51.241 6.763-2.003v50.732zm-25.366 9.564l-6.714 2.711-.049-50.901 6.637-2.003.126 50.193zm8.458-3.368l-6.763 3.15v-51.34l6.763-2.003v50.193zm8.454-3.367l-6.763 4.331v-52.521l6.763-2.004v50.194z" fill="#FF8098"/><path d="M485.165 450.08l42.275-16.122v51.228l-42.275 16.123V450.08z" fill="#0E2951"/><path d="M485.165 551.106l42.275-16.122v51.228l-42.275 16.123v-51.229z" fill="#053866"/><path d="M485.165 450.028l20.292-7.651v24.34l-20.292 7.651v-24.34z" fill="#911A31"/><path d="M490.32 600.632l-5.374 1.952c0-34.51 19.622-55.721 42.494-64.233v5.096c-20.638 7.701-37.12 33.85-37.12 57.185z" fill="#FF8098"/><path d="M502.047 596.238l-6.352 2.441c0-24.642 14.44-43.787 31.744-50.225v6.146c-15.119 5.677-25.392 23.552-25.392 41.638z" fill="#D6516B"/><path d="M512.307 592.334l-4.886 1.952c0-14.96 8.478-29.844 20.015-34.167v5.81c-8.986 3.413-15.129 15.654-15.129 26.405z" fill="#C43B55"/><path d="M522.463 588.523l-4.782 1.858c-1.029-8.103 3.541-16.175 9.771-18.548l-.017 6.561c-3.886 1.447-4.972 5.209-4.972 10.129z" fill="#A62E41"/><path fill-rule="evenodd" clip-rule="evenodd" d="M480.09 405.333v40.489l-30.568 11.708-1.701-4.542 27.466-10.52v-30.101l-24.214 9.274v22.6l18.784-7.156v-16.094l-13.354 5.088v9.643l7.866-3.01v-3.257l-3.986 1.53-1.704-4.541 10.493-4.027v13.65l-17.472 6.686v-20.035l22.96-8.746v26.473l-28.39 10.816v-32.973l33.82-12.955z" fill="#F985A0"/><path fill-rule="evenodd" clip-rule="evenodd" d="M360.031 487.568l29.222-50.243 6.289 3.638-29.222 50.243-6.289-3.638z" fill="#0E2951"/><path fill-rule="evenodd" clip-rule="evenodd" d="M388.865 481.103l-28.834-28.419 4.987-5.256 28.833 28.419-4.986 5.256z" fill="#0E2951"/><path d="M425.98 504.127l6.763-2.819v8.968l-6.763 2.819v-8.968zm-8.454-7.151l6.763-2.403v7.7l-6.763 2.402v-7.699zm-10.149-8.406l6.763-2.416v7.687l-6.763 2.416v-7.687z" fill="#911A31"/><path d="M495.311 394.319l32.128-12.558v39.758l-32.128 12.439v-39.639z" fill="#053866"/><path d="M505.455 467.282l21.983-8.068v26.224l-21.972 8.077-.011-26.233z" fill="#911A31"/><path opacity=".3" d="M188.24 382.399l168.512 63.687v205.296l-169.264-63.687.752-205.296z" fill="#000"/><path d="M590.009 319.402l-63.531 62.36-169.725-63.798 63.373-62.484 169.883 63.922z" fill="#084C80"/><path d="M356.939 446.39l-63.605 63.337-170.038-63.665 65.274-63.515 168.369 63.843z" fill="#094573"/><path d="M356.751 317.963l-62.435-62.937-169.825 64.158 63.415 63.808 168.845-65.029zm233.258 126.78l-63.42-62.983-169.936 64.689 63.769 63.277 169.587-64.983z" fill="#084C80"/></g><path fill-rule="evenodd" clip-rule="evenodd" d="M131.992 188.001l42.331 58.461-34.259 47.299 69.523 22.945-25.178 37.111 68.21-22.885 103.74 107.083 11.27-128.249 72.959 22.58 108.097 50.979-46.149-76.891 71.986-39.644-83.879-23.339 30.338-38.377 81.116-55.818-150.85-40.431-142.096-38.358-69.256 40.068-26.934 38.642-80.969 38.824zm81.613-39.118l26.275-37.697 1.979 24.84-28.254 12.857zm28.603-13.015l-1.994-25.022 60.601-1.647-58.607 26.669zm59.342-27.049l-60.826 1.652 68.2-39.456-7.374 37.804zm8.221-37.811l140.914 38.038-70.204 33.75-70.71-71.788zm71.09 72.005c11.83 5.597 28.223 12.264 44.08 18.527l42.662-2.991-16.509-49.3-70.233 33.764zm70.617-33.754l16.496 49.264 132.614-9.299-149.11-39.965zm147.033 42.027l-77.669 53.446-9.911-4.941 87.58-48.505zm-87.963 48.717l10.029 5-30.311 38.344-38.591-10.738 58.873-32.606zm-58.743 33.016l38.219 10.634-12.353 15.627-25.866-26.261zm26.121 26.52l12.475-15.781 82.596 22.982-82.197 5.869-12.874-13.07zm13.05 13.419l82.267-5.874-70.857 39.021-11.41-33.147zm11.235 33.634l44.991 74.961-63.146-67.357 18.155-7.604zm-18.51 7.752l63.747 67.999-106.352-50.155 42.605-17.844zm-43.16 17.611l-72.41-22.411 88.638-23.628-16.228 46.039zm15.732-46.28l-88.614 23.622-.169-42.177 88.783 18.555zm-88.479-19.169l45.847-67.334 37.228 33.434-83.075 33.9zm83.352-34.135l-37.169-33.382 61.495-16.231-24.326 49.613zm24.25-49.965l-61.703 16.285-20.511-34.563 31.702-2.223c4.394 1.736 8.746 3.44 12.947 5.081l4.454 1.739c8.02 3.131 15.306 5.974 21.034 8.294 3.386 1.371 6.225 2.557 8.349 3.511 1.062.477 1.944.895 2.624 1.247.471.244.839.454 1.104.629zm-49.678-20.559l42.003-2.945 7.742 23.119a14.175 14.175 0 00-1.005-.563 54.043 54.043 0 00-2.642-1.257c-2.13-.956-4.975-2.145-8.362-3.516-5.73-2.32-13.017-5.165-21.037-8.295l-4.455-1.74a3880.47 3880.47 0 01-12.244-4.803zm50.237 20.508l34.584 17.241 90.336-50.031-132.783 9.311 7.863 23.479zm-51.847-20.757l-31.132 2.183-12.078-20.352c11.652 5.501 27.656 12.02 43.21 18.169zm-31.328 2.558l20.399 34.374-74.718-30.565 54.319-3.809zm-54.821 3.993l74.927 30.65-63.633 7.107-11.294-37.757zm11.399 38.108l63.307-7.07-56.628 29.4-6.679-22.33zm6.354 22.499l-6.718-22.458-14.651 1.636 8.946 27.272 12.423-6.45zm.43.183l56.915-29.55-45.684 67.095-11.231-37.545zm11.78 37.904l83.128-33.921 5.796 52.505-88.924-18.584zm89.261 18.355l20.263-25.633-26.007-26.404 5.744 52.037zm.416.054l20.102-25.428 12.707 12.901-32.809 12.527zm-.081.417l33.102-12.639 11.358 32.997-44.46-20.358zm44.319 20.69l-18.044 7.556-25.983-27.716 44.027 20.16zm-44.714-20.365l26.315 28.07-42.48 17.791 16.165-45.861zm-5.506-53.765l58.54-32.421-34.267-17.083-24.273 49.504zm-84.488 34.849l-13.39-.016 13.556 41.328-.166-41.312zm-.05 42.344l-36.356 6.712-12.089-48.785 48.445 42.073zm-48.892-42.378l12.181 49.155-33.635 6.21-30.641-46.631 52.095-8.734zm-52.319 9.049l30.481 46.387-43.457 8.023 12.976-54.41zm-13.786 54.639l-32.246-10.643-34.276 32.962 66.522-22.319zm-66.11 21.423l33.477-32.194-9.506-3.137-23.971 35.331zm23.825-35.759l-67.787-22.373 77.399 8.206-9.612 14.167zm9.891-14.5l-77.879-8.256 123.075-17.682-45.196 25.938zm45.87-26.399L141.07 293.382l107.346-75.752 17.142 57.867zm-18.368-57.443l-106.054 74.841 33.525-46.284 72.529-28.557zm-72.691 28.037l-41.798-57.725 58.823 14.809-17.025 42.916zm17.159-43.254l-58.866-14.82 79.953-38.337-21.087 53.157zm21.671-53.433l28.56-12.996 6.378 80.06-34.938-67.064zm35.316 67.265l-6.407-80.419 59.078-26.883-52.671 107.302zm.287.232l52.734-107.429 21.687 66.114-74.421 41.315zm74.742-41.493l-21.321-64.999 35.073 57.364-13.752 7.635zm14.066-7.813l42.303-24.557-77.894-33.652 35.591 58.209zm-35.836-58.708l7.384-37.856 70.378 71.452-77.762-33.596zm78.475 34.373l12.195 20.55-54.134 3.795 41.939-24.345zm-42.809 24.846l11.319 37.841-14.661 1.637-10.44-31.828 13.782-7.65zm-3.707 39.519l-10.396-31.69-74.077 41.124 84.473-9.434zm.114.35l8.988 27.399-39.663 20.593-54.295-38.503 84.97-9.489zm-86.048 9.401l-56.053-14.112-17.009 42.878 73.062-28.766zm.243-.311l-56.162-14.139 21.094-53.175 35.068 67.314zm.666.721l54.104 38.368-37.042 19.231-17.062-57.599zm16.634 58.415l-12.949 54.297-32.394-10.692 45.343-43.605zm-45.73 43.478l-9.589-3.165 9.7-14.297 44.756-25.686-44.867 43.148zm47.145-44.4l36.386-18.891 14.589 10.346-50.975 8.545zm51.918-8.259l34.554.042 13.746 41.905-48.3-41.947zm34.436-.319l-34.861-.042-14.748-10.458 39.447-20.48 10.162 30.98zm-9.838-31.148l12.414-6.445 11.25 37.61-13.446-.016-10.218-31.149zm-90.323 95.282l43.483-8.028 58.912 114.063L253.08 330.835zm102.715 105.866l-58.847-113.965 33.507-6.186 25.34 120.151zM330.81 316.484l36.457-6.731-11.093 126.977-25.364-120.246z" fill="#E0E0E0"/><path fill-rule="evenodd" clip-rule="evenodd" d="M100.044 102.816l52.735 67.9-101.08 29.813L48 201.62l108.919 33.117-65.864 70.078 3.07 1.339 134.18 58.542L357.826 443l71.165-57.376 182.648-30.296-31.89-49.93 78.87-43.434.673-1.368-109.846-22.095 76.045-61.739-69.899-8.56 19.048-82.04-87.787 43.846-30.769-66.801-57.605 47.967-70.068-108.46-57.969 105.583-57.494-55.581 11.744 65.675-124.648-15.575zm76.812 110.675l72.925 27.077-94.705-68.269 21.78 41.192zm-1.28.184l-22.167-41.861-98.635 29.042 120.802 12.819zm0 .935l-123.01-13.252 105.446 32.25 17.564-18.998zm75.074 28.618l-158.3 61.427h146.953l11.347-61.427zm-22.345 119.506l10.721-56.58-144.901-.742 134.18 57.322zm2.358 2.521l126.067 75.081-57.484-65.795-68.583-9.286zm69.789 9.144l57.652 66.419 34.964-95.687-92.616 29.268zm94.123-29.323l-33.807 94.047 67.178-54.201-33.371-39.846zm36.456 39.143l175.207-29.567-129.228-22.201-45.979 51.768zm47.404-52.74l130.263 22.379-78.075-79.216-20.977 35.559-.048.033-31.163 21.245zm-1.701-.292l27.703-18.886c-2.57.851-5.973 1.88-10.007 3.052-6.886 2.001-15.631 4.421-25.25 7.084l-.003.001-3.306.915-2.036.564c-3.666 1.015-7.426 2.06-11.232 3.124l24.131 4.146zm32.766-22.55l20.213-34.781-41.328-23.813 21.115 58.594zm-21.079-60.147l42.134 24.508 16.632-33.744-58.766 9.236zm13.361-61.437l35.413 18.252 16.564-35.934-51.977 17.682zm53.295-17.676l-16.761 36.362 84.163-28.977-67.402-7.385zm-.498-1.883l17.455-76.565-21.396 36.553 3.941 40.012zm-5.009-40.607l20.958-35.958-82.178 39.692 61.22-3.734zm-51.856 59.709l-99.198-73.873-3.255 84.337 102.453-10.464zM396.045 199.21l43.774 82.764 46.109-33.805-89.883-48.959zm153.807-70.793l-47.754 57.262 51.319-17.459-3.565-39.803zm-50.36 59.203l-102.92 10.511 90.055 49.053 12.865-59.564zm-119.946 7.911l14.506 1.541 2.939-81.429-17.445 79.888zm17.108-83.43l-38.015 24.068-19.287 53.979 57.302-78.047zm-58.884 78.905l19.718-55.183-31.83-9.565-45.832 48.383 57.944 16.365zm-58.626-17.39l45.227-47.745-53.356-16.034 8.129 63.779zm-24.681-65.795l14.619.83-52.86-51.101 38.241 50.271zm-1.22.268l-38.124-50.056 10.747 60.101 27.377-10.045zm-28.34 11.484l-118.928-15.092 122.184 33.295-3.256-18.203zm3.776 19.402l-122.704-33.741 169.875 68.36-47.171-34.619zm49.213 36.382l-172.67-69.37 146.234 133.901 26.436-64.531zm-26.014 67.831l-11.565 62.61 57.776 65.446-46.211-128.056zm49.459 129.673l91.946-29.056-44.809-33.23-47.137 62.286zm49.395-62.105l43.726 32.426 16.284-22.116-60.01-10.31zm61.333 10.537l-15.843 21.517c14.015-4.89 32.753-10.37 50.936-15.488l-35.093-6.029zm.796-1.08l36.985 6.354c4.639-1.301 9.224-2.575 13.668-3.806l2.51-.695 2.721-.753.115-.032c9.621-2.663 18.357-5.081 25.235-7.079 4.066-1.181 7.476-2.214 10.032-3.062a62.64 62.64 0 003.154-1.124c.18-.072.347-.14.499-.205l-67.955-26.218-26.964 36.62zm95.388-11.506l-21.497-59.655-45.899 33.652 67.396 26.003zm-70.28-27.664l-43.318-81.901-17.083 41.39 60.401 40.511zm-61.418-41.193l17.173-41.607-14.689-1.56-15.327 34.553 12.843 8.614zm-.467 1.131l-12.87-8.632-13.256 29.882 15.89 3.549 10.236-24.799zm-13.388-10.424l15.085-34.008-39.505-4.196-17.611 10.014 42.031 28.19zm-.494 1.113L319.5 203.03l-66.162 37.623 95.425 21.311 13.439-30.294zm-42.65-30.05l17.052-9.697-54.431-15.373 37.379 25.07zm-41.848-29.806l-7.914-62.091-14.737-.804 22.651 62.895zm-23.87-62.627l-27.757 10.128 3.348 18.719 47.495 34.858-23.086-63.705zm64.552 93.096l-39.401-26.427-26.08 63.663 65.481-37.236zm-65.479 40.219l46.872 129.889 32.533-73.34-79.405-56.549zm80.403 57.26l-30.935 69.739 45.128-59.632-14.193-10.107zm17.689 9.823l60.539 10.401 26.536-36.039-87.075 25.638zm-1.612-.775l87.833-25.862-70.647-15.777-17.186 41.639zm15.997-41.905l-15.922-3.556-15.655 35.294 14.28 10.17 17.297-41.908zm-32.575 31.027l15.459-34.85-93.814-20.951 78.355 55.801zm44.292-56.269l-10.064 24.382 69.589 15.542-59.525-39.924zM298.206 373.19l-58.17-65.892-10.456 56.6 68.626 9.292zm41.585-181.882l38.501 4.09 18.28-81.769-56.781 77.679zm135.517 140.85l-25.398-4.363c-19.408 5.444-39.692 11.343-54.392 16.533l33.396 39.883 46.394-52.053zM247.584 238.05L104.469 106.74l49.479 63.606 93.636 67.704zm24.543-129.131l53.167 15.977 1.143-116.788-54.31 100.811zM327.334 6.602l-.753 118.681 31.311 9.409-30.558-128.09zm31.709 128.436l38.183-24.017-68.815-104.42 30.632 128.437zm141.522 50.599l48.219-57.815-60.845 3.943 12.626 53.872zm108.363 166.835l-31.624-48.467-44.994-29.363 76.618 77.83zm-77.463-79.396l16.765-33.363 43.836 32.428-60.601.935zm1.515.84l45.83 29.899 13.643-30.863-59.473.964zm90.968-96.967l-75.164 60.476-10.468-30.878 85.632-29.598zm32.121 84.792l-76.198 41.926 13.997-30.591 62.201-11.335zm-105.87-21.733l107.531 20.837-64.073 11.296-43.458-32.133zM400.136 112.066l98.111 73.037-56.086-81.783-42.025 8.746zm43.901-8.337l41.411 26.892 13.743 54.482-55.154-81.374zm-2.259-1.725l-40.407 9.017 53.207-45.054-12.8 36.037zm43.035 27.324l-41.146-27.324 12.417-36.037 28.729 63.361zM193.314 246.031l-35.302-11.294-62.578 67.01 97.88-55.716zm-16.458-30.87l-18.008 18.712 36.024 11.405 53.405-4.331-71.421-25.786zM96.187 302.5l98.685-55.716 53.415-4.282-152.1 59.998zm451-63.998l-58.1 8.672 38.067-31.678 9.451-7.864 10.582 30.87zm-20.843-23.892l10.054-8.367-35.804-18.04-12.595 58.316 38.345-31.909z" fill="#71A0DD"/><path d="M217.462 54.23a4.23 4.23 0 11-8.46 0 4.23 4.23 0 018.46 0zm-112 49a4.23 4.23 0 11-8.46 0 4.23 4.23 0 018.46 0zm-11 202a4.23 4.23 0 11-8.461-.001 4.23 4.23 0 018.461.001zm236.897-301a4.23 4.23 0 11-8.46 0 4.23 4.23 0 018.46 0zm247.103 82a4.23 4.23 0 11-8.46 0 4.23 4.23 0 018.46 0zm-118-24a4.23 4.23 0 11-8.46 0 4.23 4.23 0 018.46 0zm169 114a4.23 4.23 0 11-8.46 0 4.23 4.23 0 018.46 0zm-577 25a4.23 4.23 0 11-8.461-.001 4.23 4.23 0 018.461.001zM660 260.223a4.23 4.23 0 11-8.46 0 4.23 4.23 0 018.46 0zm-43.538 95.007a4.23 4.23 0 11-8.46 0 4.23 4.23 0 018.46 0z" fill="#0A3D76"/><path d="M208.721 237.264c5.516 0 8.425-3.335 8.425-7.504 0-3.502-2.475-6.378-5.558-6.837 2.736-.541 4.994-2.876 4.994-6.378 0-3.71-2.823-7.086-8.338-7.086H193v27.805h15.721zm-1.824-16.675h-7.73v-6.045h7.73c2.085 0 3.388 1.293 3.388 3.044 0 1.75-1.303 3.001-3.388 3.001zm.217 11.547h-7.947v-6.461h7.947c2.432 0 3.735 1.5 3.735 3.251 0 2.001-1.389 3.21-3.735 3.21z" fill="url(#paint2_linear)"/><path d="M253.153 237.264l-11.161-27.805h-7.731l-11.204 27.805h7.035l1.824-4.711h12.421l1.78 4.711h7.036zm-10.51-9.922h-9.033l4.516-11.964 4.517 11.964z" fill="url(#paint3_linear)"/><path d="M290.918 209.459v22.594h-9.163v-22.594h-6.211v22.594h-9.207v-22.594h-6.166v27.805h36.958v-27.805h-6.211z" fill="url(#paint4_linear)"/><path d="M322.676 209.459v27.805h13.68c6.21 0 9.598-4.044 9.598-8.838s-3.431-8.838-9.598-8.838h-7.513v-4.919h14.983v-5.21h-21.15zm12.855 15.34c2.388 0 4.126 1.376 4.126 3.627 0 2.21-1.738 3.627-4.126 3.627h-6.688v-7.254h6.688z" fill="url(#paint5_linear)"/><path d="M360.069 237.264l13.811-18.634v18.634h6.167v-27.805h-6.341l-13.42 17.967v-17.967h-6.167v27.805h5.95z" fill="url(#paint6_linear)"/><path d="M400.046 237.764c6.905 0 11.9-3.377 11.9-8.171 0-4.168-3.822-6.378-6.732-6.67 3.171-.541 6.297-2.834 6.297-6.336 0-4.627-4.69-7.545-11.465-7.545-5.081 0-9.207 1.876-11.552 4.418l3.084 3.711c2.041-1.876 5.037-2.877 7.86-2.877 3.301 0 5.907 1.084 5.907 3.294 0 2.042-2.476 2.959-5.907 2.959h-5.863v5.211h5.863c4.343 0 6.384 1.001 6.384 3.21 0 2.084-2.215 3.543-6.036 3.543-2.823 0-6.471-1.167-8.469-3.168l-3.214 3.96c2.128 2.502 6.601 4.461 11.943 4.461z" fill="url(#paint7_linear)"/><path d="M447.008 237.264v-27.805h-6.21v10.922h-13.68v-10.922h-6.167v27.805h6.167v-11.673h13.68v11.673h6.21z" fill="url(#paint8_linear)"/><path d="M477.558 237.264v-5.211h-14.332v-6.295h14.028v-5.211h-14.028v-5.878h14.332v-5.21H457.06v27.805h20.498z" fill="url(#paint9_linear)"/><path d="M500.749 237.764c6.384 0 10.032-3.377 12.117-6.837l-5.298-2.459c-1.216 2.293-3.822 4.043-6.819 4.043-5.255 0-9.076-3.876-9.076-9.129s3.821-9.129 9.076-9.129c2.997 0 5.603 1.792 6.819 4.043l5.298-2.501c-2.041-3.46-5.733-6.795-12.117-6.795-8.685 0-15.417 5.836-15.417 14.382s6.732 14.382 15.417 14.382z" fill="url(#paint10_linear)"/></g><defs><linearGradient id="paint0_linear" x1="373.688" y1="582.006" x2="296.258" y2="411.458" gradientUnits="userSpaceOnUse"><stop offset=".096"/><stop offset=".978" stop-color="#B4D1FA" stop-opacity="0"/></linearGradient><linearGradient id="paint2_linear" x1="210.29" y1="223.382" x2="479.283" y2="223.382" gradientUnits="userSpaceOnUse"><stop stop-color="#8D2716"/><stop offset="1" stop-color="#C9081F"/></linearGradient><linearGradient id="paint3_linear" x1="210.29" y1="223.382" x2="479.283" y2="223.382" gradientUnits="userSpaceOnUse"><stop stop-color="#8D2716"/><stop offset="1" stop-color="#C9081F"/></linearGradient><linearGradient id="paint4_linear" x1="210.29" y1="223.382" x2="479.283" y2="223.382" gradientUnits="userSpaceOnUse"><stop stop-color="#8D2716"/><stop offset="1" stop-color="#C9081F"/></linearGradient><linearGradient id="paint5_linear" x1="210.29" y1="223.382" x2="479.283" y2="223.382" gradientUnits="userSpaceOnUse"><stop stop-color="#8D2716"/><stop offset="1" stop-color="#C9081F"/></linearGradient><linearGradient id="paint6_linear" x1="210.29" y1="223.382" x2="479.283" y2="223.382" gradientUnits="userSpaceOnUse"><stop stop-color="#8D2716"/><stop offset="1" stop-color="#C9081F"/></linearGradient><linearGradient id="paint7_linear" x1="210.29" y1="223.382" x2="479.283" y2="223.382" gradientUnits="userSpaceOnUse"><stop stop-color="#8D2716"/><stop offset="1" stop-color="#C9081F"/></linearGradient><linearGradient id="paint8_linear" x1="210.29" y1="223.382" x2="479.283" y2="223.382" gradientUnits="userSpaceOnUse"><stop stop-color="#8D2716"/><stop offset="1" stop-color="#C9081F"/></linearGradient><linearGradient id="paint9_linear" x1="210.29" y1="223.382" x2="479.283" y2="223.382" gradientUnits="userSpaceOnUse"><stop stop-color="#8D2716"/><stop offset="1" stop-color="#C9081F"/></linearGradient><linearGradient id="paint10_linear" x1="210.29" y1="223.382" x2="479.283" y2="223.382" gradientUnits="userSpaceOnUse"><stop stop-color="#8D2716"/><stop offset="1" stop-color="#C9081F"/></linearGradient><filter id="filter0_d" x=".119" y="453.721" width="653.986" height="252.353" filterUnits="userSpaceOnUse" color-interpolation-filters="sRGB"><feFlood flood-opacity="0" result="BackgroundImageFix"/><feColorMatrix in="SourceAlpha" values="0 0 0 0 0 0 0 0 0 0 0 0 0 0 0 0 0 0 127 0"/><feOffset dx="2" dy="2"/><feGaussianBlur stdDeviation="2"/><feColorMatrix values="0 0 0 0 0 0 0 0 0 0 0 0 0 0 0 0 0 0 0.1 0"/><feBlend in2="BackgroundImageFix" result="effect1_dropShadow"/><feBlend in="SourceGraphic" in2="effect1_dropShadow" result="shape"/></filter><filter id="filter1_f" x="61.212" y="466.083" width="328.071" height="126.533" filterUnits="userSpaceOnUse" color-interpolation-filters="sRGB"><feFlood flood-opacity="0" result="BackgroundImageFix"/><feBlend in="SourceGraphic" in2="BackgroundImageFix" result="shape"/><feGaussianBlur stdDeviation="2.5" result="effect1_foregroundBlur"/></filter><filter id="filter2_f" x="159.395" y="305.396" width="393.209" height="392.269" filterUnits="userSpaceOnUse" color-interpolation-filters="sRGB"><feFlood flood-opacity="0" result="BackgroundImageFix"/><feBlend in="SourceGraphic" in2="BackgroundImageFix" result="shape"/><feGaussianBlur stdDeviation="40" result="effect1_foregroundBlur"/></filter><clipPath id="clip0"><path fill="#fff" d="M0 0h660v700H0z"/></clipPath><clipPath id="clip1"><path fill="#fff" transform="translate(42.295 255.026)" d="M0 0h547.712v396.357H0z"/></clipPath><radialGradient id="paint1_radial" cx="0" cy="0" r="1" gradientUnits="userSpaceOnUse" gradientTransform="matrix(0 92.1068 -92.4794 0 354.659 461.485)"><stop stop-color="#0095FF"/><stop offset="1" stop-color="#BCE3FF"/></radialGradient></defs></svg>