<svg width="235" height="251" fill="none" xmlns="http://www.w3.org/2000/svg"><g filter="url(#filter0_f)"><path d="M148.61 193.319l-80.35 30.432L5 200.611l79.902-29.028 63.708 21.736z" fill="url(#paint0_linear)"/></g><path d="M137.006 250.734L66.022 223.8l-.025-86.303 71.009 26.934v86.303z" fill="#053866"/><path d="M208.579 223.671l-71.571-27.251.042-86.62 71.677 27.074-.148 86.797z" fill="#083556"/><path d="M137.008 250.734l71.694-27.383.025-86.566-71.695 27.16-.024 86.789z" fill="#054270"/><path d="M66.021 223.671l71.028-26.086V109.8l-71.052 27.101.024 86.77z" fill="#063D66"/><g filter="url(#filter1_f)"><ellipse cx="136.733" cy="169.467" rx="48.965" ry="31.144" fill="url(#paint1_radial)"/></g><path d="M136.985 250.734L66.025 223.8 66 137.497l71.01 26.934-.025 86.303z" fill="#053866"/><path d="M83.752 165.984L66.025 159.2 66 137.497l17.752 6.931v21.556z" fill="#053866"/><path d="M70.719 158.146a11.611 11.611 0 01-4.672-.852l-.049-2.289c3.607 1.388 7.069 1.12 9.731-.731 3.172-2.191 5.181-5.82 5.181-11.08l2.13.853c0 5.99-1.767 9.351-5.52 11.956a12.496 12.496 0 01-6.801 2.143z" fill="#FF8098"/><path d="M101.503 172.394l-17.752-6.819v-21.669l17.752 6.82v21.668z" fill="#0E2951"/><path d="M119.255 179.515l-17.753-6.819v-21.668l17.753 6.795v21.692z" fill="#FF8098"/><path d="M136.91 185.925l-17.655-6.738v-21.749l17.752 6.539-.097 21.948zm-53.16 1.425l-17.752-6.795v-21.693l17.752 6.819v21.669z" fill="#911A31"/><path d="M101.503 193.759l-17.752-6.648v-21.127l17.752 6.649v21.126z" fill="#C43B55"/><path d="M119.255 200.881l-17.753-6.82v-21.668l17.753 6.819v21.669z" fill="#053866"/><path d="M137.007 207.29l-17.752-6.575v-21.2l17.752 6.576v21.199z" fill="#132F7C"/><path d="M101.503 215.837l-17.752-6.795v-21.693l17.752 6.82v21.668z" fill="#FF8098"/><path d="M119.256 222.246l-17.752-6.819v-21.668l17.752 6.819v21.668z" fill="#0E2951"/><path d="M137.01 229.368l-17.753-6.743v-21.744l17.753 6.744v21.743z" fill="#053866"/><path d="M83.75 230.792l-17.752-6.819v-21.668l17.752 6.819v21.668z" fill="#C43B55"/><path d="M101.503 237.202l-17.752-6.8v-21.687l17.752 6.8v21.687z" fill="#053866"/><path d="M119.255 244.324l-17.753-6.819v-21.668l17.753 6.819v21.668z" fill="#FF8098"/><path d="M137.007 250.734l-17.752-6.706v-21.782l17.679 6.756.073 21.732z" fill="#911A31"/><path d="M69.669 153.876a8.976 8.976 0 01-3.671-.725v-2.627c2.58 1.001 5.779.651 7.366-.4 2.654-1.776 3.943-4.527 3.943-8.354l2.183.875c0 4.703-1.662 7.579-4.638 9.655a9.243 9.243 0 01-5.183 1.576z" fill="#D6516B"/><path d="M68.4 148.891a5.736 5.736 0 01-2.402-.475v-2.769c1.551.633 3.953.474 5.279-.923 1.376-1.451 1.75-2.638 1.75-5.09l2.202.923c0 3.375-1.1 5.67-3.177 7.173a6.29 6.29 0 01-3.652 1.161z" fill="#C43B55"/><path d="M67.129 143.898a1.99 1.99 0 01-1.131-.234v-2.728c.377.156 1.602.26 2.073 0 .825-.467.825-1.376.424-2.727l2.474.909c0 1.896-.613 3.221-1.767 4.104a3.616 3.616 0 01-2.073.676z" fill="#A62E41"/><path d="M136.731 225.807l-15.347-5.692v-37.039l15.622 5.595v3.005l-12.977-4.886v31.541l12.553 4.642.149 2.834z" fill="#C43B55"/><path d="M137.006 226.519l-15.622-6.219v-18.707l2.645.847v16.093l12.977 5.009v2.977z" fill="#F985A0"/><path d="M136.73 220.822l-11.084-4.147v-27.189l11.361 4.047v3.054l-8.716-3.302v22.025l8.716 3.054-.277 2.458z" fill="#C43B55"/><path d="M136.742 215.124l-6.124-2.325V197.32l6.391 2.228v2.98l-3.839-1.502v10.029l3.839 1.671-.267 2.398z" fill="#C43B55"/><path d="M137.009 215.124l-6.391-2.499v-8.183l2.552.857v5.562l3.839 1.25v3.013z" fill="#F985A0"/><path d="M137.007 220.822l-11.361-4.185v-13.62l2.645.847v11.007l8.716 2.976v2.975z" fill="#F985A0"/><path d="M79.49 228.656l-13.492-5.116v-16.25l13.492 5.116v16.25z" fill="#053866"/><path d="M74.52 227.231l-8.522-3.406v-10.837l8.521 3.406v10.837z" fill="#FF8098"/><path d="M119.255 165.413l-6.494 11.254-11.259-12.249 6.494-11.253 11.259 12.248z" fill="#C43B55"/><path d="M114.996 165.155l-3.396 5.814-5.835-6.317 3.37-5.79 5.861 6.293z" fill="#911A31"/><path d="M119.255 244.324l-17.753-6.84V220.11l17.753 6.816v17.398z" fill="#C43B55"/><path d="M119.255 244.324l-17.753-7.02v-12.921l17.753 6.994v12.947z" fill="#911A31"/><path d="M119.255 244.324l-17.753-6.985v-7.971l17.753 6.959v7.997z" fill="#053866"/><path d="M119.255 244.324l-17.753-6.809v-3.874l17.753 6.785v3.898z" fill="#0E2951"/><path d="M83.751 170.969l17.752 6.655-17.752 5.208 17.752 6.654-17.752-18.517z" fill="#911A31"/><path d="M68.128 181.652l-2.13-.874v-21.916l2.13.875v21.915zm3.552.712l-2.131-.846v-21.232l2.13.871v21.207zm11.36 4.273l-2.84-.848v-21.23l2.84.847v21.231zm-4.26-1.424l-2.13-.848v-21.23l2.13.847v21.231zm-3.55-1.425l-2.13-.847v-21.23l2.13.847v21.23z" fill="#FF8098"/><path d="M83.75 208.715l-17.752-6.819v-21.668l17.752 6.794v21.693z" fill="#0E2951"/><path d="M83.75 208.715l-9.231-3.407v-10.837l9.231 3.407v10.837z" fill="#911A31"/><path d="M74.52 194.472l-8.522-3.413v-10.831l8.521 3.412v10.832z" fill="#911A31"/><path fill-rule="evenodd" clip-rule="evenodd" d="M85.881 212.276l12.87 5.088-.682 1.878-10.262-4.057v12.449l9.64 3.81v-9.343l-7.462-2.954v6.654l5.285 2.096v-4.012l-3.131-1.241v1.372l2.282.903-.684 1.878-3.524-1.395v-5.67l6.983 2.768v8.31l-9.137-3.624v-10.95l11.314 4.479v13.639l-13.492-5.334v-16.744z" fill="#F985A0"/><path fill-rule="evenodd" clip-rule="evenodd" d="M135.586 232.182l-12.09 11.43-2.112-2.101 12.089-11.431 2.113 2.102z" fill="#0E2951"/><path fill-rule="evenodd" clip-rule="evenodd" d="M123.915 225.807l11.671 20.594-2.531 1.484-11.671-20.594 2.531-1.484z" fill="#0E2951"/><path d="M107.893 204.442l-2.84-1.192v-3.793l2.84 1.192v3.793zm3.55 6.409l-2.84-1.185v-3.8l2.84 1.186v3.799zm4.261 5.698l-2.84-1.022v-3.251l2.84 1.022v3.251z" fill="#911A31"/><path d="M137.032 163.945l71.695-27.16v86.666l-71.72 27.283.025-86.789z" fill="#053866"/><path d="M190.975 187.041l17.752-6.813v21.674l-17.752 6.813v-21.674z" fill="#911A31"/><path d="M172.512 193.999l18.463-6.649v21.15l-18.463 6.625v-21.126z" fill="#C43B55"/><path d="M154.762 200.578l17.752-6.819v21.668l-17.752 6.819v-21.668z" fill="#053866"/><path d="M137.008 207.775l17.753-6.894v21.593l-17.753 6.894v-21.593z" fill="#132F7C"/><path d="M172.512 172.092l18.462-6.82v21.669l-18.462 6.819v-21.668z" fill="#FF8098"/><path d="M154.762 179.214l17.752-6.82v21.669l-17.752 6.819v-21.668z" fill="#0E2951"/><path d="M137.008 185.698l17.753-6.894v21.593l-17.753 6.894v-21.593z" fill="#053866"/><path d="M172.515 215.51l18.462-6.794v21.668l-18.462 6.819V215.51z" fill="#0E2951"/><path d="M154.762 221.945l17.752-6.82v21.693l-17.752 6.795v-21.668z" fill="#FF8098"/><path d="M137.008 229.153l17.753-6.906v21.631l-17.68 6.857-.073-21.582z" fill="#911A31"/><path d="M190.974 143.623l17.752-6.838v21.674l-17.752 6.813v-21.649z" fill="#C43B55"/><path d="M172.511 150.726l18.462-6.819v21.668l-18.462 6.819v-21.668z" fill="#053866"/><path d="M154.759 157.677l17.752-6.648v21.126l-17.752 6.649v-21.127z" fill="#FF8098"/><path d="M137.105 164.111l17.655-6.673v21.594l-17.752 6.894.097-21.815z" fill="#911A31"/><path d="M136.57 226.52v-3l13.44-5.22v-31.491l-12.792 4.708-.922-2.391 16.332-6.049v36.979l-16.058 6.464z" fill="#C43B55"/><path d="M152.63 202.16l-2.547.858V186.83l-13.075 5.077v-3.017l15.622-5.813v19.083z" fill="#F985A0"/><path d="M137.008 220.823v-2.995l8.818-3.602v-21.179l-8.818 3.432v-2.994l11.361-3.286v25.804l-11.361 4.82z" fill="#C43B55"/><path d="M136.565 215.125v-2.927l4.261-1.405v-9.854l-3.624 1.333-.906-2.333 7.101-2.618v15.21l-6.832 2.594z" fill="#C43B55"/><path d="M143.399 205.029l-2.406.838v-4.907l-3.985 1.675v-2.944l6.391-2.37v7.708z" fill="#F985A0"/><path d="M148.369 203.574l-2.543.868v-11.289l-8.818 3.401v-2.967l11.361-4.1v14.087z" fill="#F985A0"/><path d="M199.495 140.211l9.231-3.426v10.843l-9.231 3.401v-10.818z" fill="#FF8098"/><path d="M154.759 235.837l6.498-15.726 11.254 3.502-6.498 15.727-11.254-3.503z" fill="#C43B55"/><path d="M159.019 232.537l3.368-8.153 5.863 1.817-3.393 8.153-5.838-1.817z" fill="#911A31"/><path d="M154.759 157.668l17.752-6.639v16.886l-17.752 6.616v-16.863z" fill="#C43B55"/><path d="M154.759 157.798l17.752-6.769v12.484l-17.752 6.745v-12.46z" fill="#911A31"/><path d="M154.759 157.681l17.752-6.652v7.616l-17.752 6.627v-7.591z" fill="#053866"/><path d="M154.759 157.822l17.752-6.793v3.889l-17.752 6.793v-3.889z" fill="#0E2951"/><path d="M190.973 203.486l-18.462 6.654 18.462-18.516-18.462 6.654" fill="#911A31"/><path d="M208.725 202.161l-2.84.857v-21.907l2.84-.883v21.933zm-3.551.722l-2.84.847V182.5l2.84-.847v21.23zm-10.652 4.273l-2.787.847-.053-21.23 2.787-.847.053 21.23zm3.552-1.424l-2.84.847v-21.231l2.84-.847v21.231zm3.551-1.425l-2.841.848v-21.231l2.841-.847v21.23z" fill="#FF8098"/><path d="M190.974 165.682l17.752-6.819v21.668l-17.752 6.819v-21.668z" fill="#0E2951"/><path d="M190.974 208.413l17.752-6.819v21.668l-17.752 6.819v-21.668z" fill="#053866"/><path d="M190.974 165.66l8.521-3.236v10.295l-8.521 3.236V165.66z" fill="#911A31"/><path d="M193.146 229.224l-2.172.857c0-14.597 8.147-23.463 17.752-27.063v2.155c-8.666 3.258-15.58 14.181-15.58 24.051z" fill="#FF8098"/><path d="M197.838 227.79l-2.604.867c0-10.423 6.225-18.642 13.492-21.366v2.6c-6.349 2.401-10.888 10.249-10.888 17.899z" fill="#D6516B"/><path d="M202.589 225.678l-2.386.842c0-6.327 3.628-12.415 8.473-14.243l.048 2.406c-3.773 1.443-6.135 6.448-6.135 10.995z" fill="#C43B55"/><path d="M206.636 224.239l-2.112.857c-.432-3.427 1.536-6.83 4.153-7.834l.048 2.693c-1.632.612-2.089 2.203-2.089 4.284z" fill="#A62E41"/><path fill-rule="evenodd" clip-rule="evenodd" d="M188.842 146.756v17.125l-12.836 4.952-.714-1.921 11.534-4.45v-12.731l-10.169 3.923v9.559l7.889-3.027v-6.807l-5.608 2.151v4.079l3.303-1.273v-1.378l-1.674.647-.716-1.92 4.407-1.704v5.774l-7.337 2.828v-8.474l9.641-3.7v11.198l-11.921 4.575v-13.947l14.201-5.479z" fill="#F985A0"/><path fill-rule="evenodd" clip-rule="evenodd" d="M138.427 181.538l12.271-21.251 2.641 1.539-12.272 21.251-2.64-1.539z" fill="#0E2951"/><path fill-rule="evenodd" clip-rule="evenodd" d="M150.535 178.804l-12.108-12.021 2.094-2.223 12.108 12.021-2.094 2.223z" fill="#0E2951"/><path d="M166.12 188.542l2.84-1.192v3.793l-2.84 1.192v-3.793zm-3.55-3.024l2.841-1.017v3.257l-2.841 1.016v-3.256zm-4.261-3.556l2.84-1.022v3.252l-2.84 1.022v-3.252z" fill="#911A31"/><path d="M195.234 142.097l13.492-5.312v16.816l-13.492 5.262v-16.766z" fill="#053866"/><path d="M199.494 172.958l9.231-3.413v10.831l-9.231 3.413v-10.831z" fill="#911A31"/><path opacity=".3" d="M66.286 137.055l70.763 26.938v86.834L65.97 223.889l.316-86.834z" fill="#000"/><path d="M234.999 110.408l-26.678 26.377-71.272-26.985 26.612-26.429 71.338 27.037z" fill="#084C80"/><path d="M137.341 164l-26.923 26.911-71.403-26.929 27.41-26.865L137.34 164z" fill="#094573"/><path d="M137.049 109.801L110.831 83.18l-71.314 27.137 26.63 26.989 70.902-27.505zM235 163.425l-26.632-26.64-71.36 27.361 26.778 26.764L235 163.425z" fill="#084C80"/><path d="M194.329 23.59l-5.632-3.076h1.102l5.632 3.076h-1.102z" fill="#40689D"/><path d="M195.554 23.713l-5.633-3.076c.123 0 .368.123.49.246l5.633 3.076c-.245-.246-.368-.246-.49-.246zm.49.123l-5.633-3.076h.123l5.51 3.076zm-61.469 89.454l-5.633-3.076c-.367-.246-.735-.492-.98-.984l5.633 3.076c.245.369.612.738.98.984zm3.061-7.506l-6.49-4.798 55.102-78.872 5.633 3.076-54.245 80.594z" fill="#40689D"/><path d="M133.473 112.306l-5.51-3.076-22.164-35.683 6.735 1.722 20.939 37.037zm58.408-87.116l-7.224-.861c.122-.123 1.836-2.461 1.836-2.584l5.633 3.076c-.122.123-.122.246-.245.369z" fill="#40689D"/><path d="M191.269 26.051l-4.775-4.306c.122-.124 1.102-1.6 3.428-1.108l6.123 3.322c-.123.123-4.286 1.723-4.408 1.846" fill="#40689D"/><path d="M192.493 24.452l-5.632-3.077.367-.369 5.633 3.076c-.123.247-.245.37-.368.37z" fill="#40689D"/><path d="M192.861 24.206l-5.633-3.077c.122-.123.367-.246.49-.246l5.632 3.076c-.122 0-.244.123-.489.247zm.612-.37l-5.633-3.076c.368-.123.613-.246.98-.246l5.633 3.076c-.368 0-.735.123-.98.246zm-82.041 52.787l-5.633-3.076c-.612-.985-.612-2.092-.245-3.2l5.633 3.077c-.367 1.107-.367 2.214.245 3.199zm-.245-3.199l-5.632-3.077c.122-.246.122-.369.245-.492l5.632 3.076c-.122.124-.245.247-.245.493zm.245-.616l-5.633-3.076c.123-.123.123-.246.245-.492l5.633 3.076c-.123.246-.245.37-.245.492z" fill="#40689D"/><path d="M111.677 72.44l-5.633-3.077c.122-.123.245-.246.245-.369l5.633 3.076c-.123.123-.123.246-.245.37z" fill="#40689D"/><path d="M111.922 72.07l-5.633-3.076.367-.37 5.633 3.077-.367.37z" fill="#40689D"/><path d="M112.289 71.701l-5.633-3.076.123-.123c.122-.123.122-.123.245-.123l5.632 3.076c-.122 0-.122.123-.367.246zm.368-.369l-5.633-3.076c.122-.123.367-.246.49-.246l5.632 3.076c-.122.123-.245.246-.489.246z" fill="#40689D"/><path d="M111.065 73.67l-5.878-1.723c.245-4.184 2.939-4.306 3.306-4.306h1.102l6.612 3.69c-.367-.122-1.714-.122-2.081 0-.368 0-1.102.985-1.347 1.108" fill="#40689D"/><path d="M115.35 70.84l-5.633-3.077c.123 0 .368.123.49.246l5.633 3.076c-.123-.123-.368-.123-.49-.246z" fill="#40689D"/><path d="M115.84 71.086l-5.632-3.076h.122l5.51 3.076z" fill="#40689D"/><path d="M194.344 23.69h0l.002-.001c.7-.117 1.408.115 2.007.475 1.297 1.072 1.539 3.22.346 4.78h0l-.002.003-58.041 83.055s0 0 0 0c-.598.841-1.553 1.438-2.379 1.558-.658.06-1.19-.031-1.63-.237-.439-.206-.793-.531-1.091-.95l-22.162-35.68h0l-.002-.002c-.945-1.426-.477-3.707 1.08-4.911h.001l.009-.009c.472-.474 1.059-.708 1.643-.708v0l.011-.001c1.075-.12 2.134.24 2.721 1.184 0 0 0 0 0 0l19.714 31.868.08.13.087-.125 55.1-78.746.001-.002c.723-.967 1.681-1.563 2.505-1.682z" fill="#B4D1FA" stroke="#000" stroke-width=".2"/><path d="M110.575 129.163l-5.633-3.076c.49.246.98.492 1.592.738l5.633 3.076c-.612-.246-1.102-.492-1.592-.738z" fill="#671D28"/><path d="M111.799 130.024l-5.387-3.199a45.198 45.198 0 008.081 2.953l5.633 3.076c-2.816-.615-5.755-1.476-8.327-2.83z" fill="#6A1D2A"/><path d="M120.126 133.593l-5.632-3.692c5.51 1.477 11.51 1.846 17.755.985 5.265-.739 10.286-2.338 15.061-4.553l5.633 3.076c-4.776 2.215-9.796 3.815-15.062 4.553-6.244.861-12.244.492-17.755-.985" fill="#6E1E2B"/><path d="M152.452 129.655l-5.632-3.076c2.816-1.353 5.632-2.953 8.204-4.799l6.735 3.076c-2.449 1.846-6.368 3.446-9.307 4.799z" fill="#6A1D2A"/><path d="M160.167 125.595l-5.388-3.692c2.204-1.476 5.143-3.691 7.102-5.414l5.633 3.077c-2.082 1.845-1.47 4.675-3.552 6.152" fill="#671D28"/><path d="M167.392 121.165l-5.511-4.676a106.82 106.82 0 005.266-5.291l5.632 3.077c-1.714 1.845 0 3.937-1.836 5.537" fill="#641C27"/><path d="M173.391 116.612l-6.367-5.414c.49-.615.98-1.23 1.469-1.722 1.102-1.354 2.082-2.707 3.062-4.061l10.04 1.846c-.979 1.353-3.796 4.307-4.898 5.66-.489.492-.857 1.231-1.347 1.846" fill="#601B26"/><path d="M177.187 108.491l-5.51-3.076c1.47-2.215 2.939-4.429 4.164-6.767l8.693 3.076c-1.347 2.215-5.755 4.553-7.347 6.767z" fill="#5D1A24"/><path d="M182.575 103.693l-6.735-5.168c1.47-2.83 2.817-5.66 3.919-8.613l8.939 2.091c-1.225 2.954-2.817 8.367-4.286 11.074" fill="#5A1923"/><path d="M188.82 94.464l-9.184-4.552c2.572-6.89 3.919-14.274 3.919-21.902 0-.493.122-.985.245-1.354l8.449 1.107c-.123.493-1.103 3.569-1.103 4.061 0 7.629 1.47 12.058-1.102 18.949" fill="#561822"/><path d="M189.555 69.732l-5.633-3.076c.122-.246.122-.37.245-.492l5.632 3.076c-.122.123-.244.246-.244.492z" fill="#5A1923"/><path d="M183.677 66.902l.49-.861c.122-.123.245-.246.367-.492l5.511 3.076c-.123.246-.245.369-.245.492" fill="#5D1A24"/><path d="M190.045 68.748l-5.633-3.076c0-.123.123-.246.245-.37l5.633 3.077c-.123.123-.123.246-.245.369z" fill="#601B26"/><path d="M190.289 68.502l-5.632-3.2.367-.369 6 2.953c-.122.124-.612.493-.735.616z" fill="#641C27"/><path d="M190.657 68.01l-5.633-3.077.368-.369 6.245 2.953c-.123.124-.857.37-.98.493z" fill="#671D28"/><path d="M191.024 67.64l-5.633-3.076c.123-.123.367-.246.49-.246l5.633 3.076c-.123.123-.245.123-.49.246z" fill="#6A1D2A"/><path d="M191.147 70.47l-7.47-3.445c.245-.123.49-2.584 3.184-2.83.367 0 1.102-.123 1.837.246l6.245 3.445c-.368-.123-.858.738-1.225.861-.245 0-.857.123-1.224.246" fill="#561822"/><path d="M193.718 67.148l-5.633-3.076c.123 0 .368.123.49.246l5.633 3.076c-.245-.123-.367-.246-.49-.246z" fill="#6A1D2A"/><path d="M194.208 67.394l-5.633-3.076h.123l5.51 3.076z" fill="#671D28"/><path d="M133.473 17.561l-.979-4.922h1.102l6.245 3.322c-.245-.123-2.327.616-2.694.739" fill="#6E1E2B"/><path d="M139.228 15.715l-5.632-3.076c.122 0 .367.123.489.246l5.633 3.076c-.122-.123-.245-.123-.49-.246z" fill="#6A1D2A"/><path d="M139.841 15.961l-5.633-3.076h.122l5.511 3.076z" fill="#671D28"/><path d="M107.147 135.684l-5.633-3.076c-3.55-1.969-6.98-4.429-9.918-7.259-10.408-9.844-16.898-24.609-16.898-41.959 0-8.49 1.592-16.857 4.408-24.732l5.633 3.076c-2.082 5.906-4.409 16.12-4.409 24.732 0 17.227 6.368 32.115 16.898 41.959 3.062 2.83 6.368 5.291 9.919 7.259z" fill="#561822"/><path d="M84.739 61.857l-5.633-3.076c1.224-3.322 2.694-6.767 4.408-9.843l6 2.584c-1.714 3.076-3.55 6.89-4.775 10.335z" fill="#5A1923"/><path d="M91.228 52.998l-7.714-4.06c1.47-2.708 2.939-5.168 4.653-7.63l11.265-.122c-1.714 2.46-5.143 7.013-6.49 9.597" fill="#5D1A24"/><path d="M93.8 44.385l-5.633-3.076a63.015 63.015 0 013.429-4.553c.612-.738 1.469-1.722 2.081-2.46l8.817 2.091c-.613.615-2.94 5.414-3.429 6.152-.98 1.477-4.163.246-5.265 1.846z" fill="#601B26"/><path d="M93.677 34.295l5.51-5.537c2.205-1.968 5.388-4.43 7.837-6.152l4.776 3.691c-2.327 1.6-9.429 9.475-11.755 11.567" fill="#671D28"/><path d="M110.085 27.897l-3.918-4.676c2.939-2.091 6.245-4.06 9.429-5.537l11.755 1.846c-3.306 1.6-12.49 8.982-15.429 10.95" fill="#6A1D2A"/><path d="M121.228 20.883l-5.632-3.076a58.451 58.451 0 0116.898-5.168l7.102 3.322c-5.878.739-12.98 2.461-18.368 4.922z" fill="#6E1E2B"/><path d="M101.691 122.961h-.001l.004.002c9.446 8.136 21.474 13.071 35.711 11.098 14.231-1.973 27.6-9.862 36.921-21.323 9.32-11.337 15.084-26.124 15.084-41.53 0-1.918 1.434-3.6 3.223-3.961 1.769-.235 3.189 1.064 3.189 2.977 0 17.202-6.48 33.791-16.997 46.571h-.001c-10.394 12.781-24.944 21.87-40.834 24.081-15.889 2.211-30.43-2.702-40.815-12.524-10.388-9.824-16.99-24.439-16.99-41.763 0-17.324 6.603-34.036 17.12-46.816l.002-.002c10.271-12.9 24.942-21.745 40.833-23.956 1.771-.238 3.193 1.063 3.193 2.976 0 1.92-1.434 3.601-3.223 3.962-14.232 1.974-26.987 9.987-36.306 21.446-9.32 11.46-15.084 26.124-15.084 41.53 0 15.404 5.642 28.475 14.971 37.232z" fill="#A62E41" stroke="#000" stroke-width=".2"/><defs><filter id="filter0_f" x="0" y="166.583" width="153.61" height="62.168" filterUnits="userSpaceOnUse" color-interpolation-filters="sRGB"><feFlood flood-opacity="0" result="BackgroundImageFix"/><feBlend in="SourceGraphic" in2="BackgroundImageFix" result="shape"/><feGaussianBlur stdDeviation="2.5" result="effect1_foregroundBlur"/></filter><filter id="filter1_f" x="47.768" y="98.323" width="177.931" height="142.288" filterUnits="userSpaceOnUse" color-interpolation-filters="sRGB"><feFlood flood-opacity="0" result="BackgroundImageFix"/><feBlend in="SourceGraphic" in2="BackgroundImageFix" result="shape"/><feGaussianBlur stdDeviation="20" result="effect1_foregroundBlur"/></filter><radialGradient id="paint1_radial" cx="0" cy="0" r="1" gradientUnits="userSpaceOnUse" gradientTransform="matrix(0 24.7006 -38.8346 0 136.17 158.728)"><stop stop-color="#0095FF"/><stop offset="1" stop-color="#BCE3FF"/></radialGradient><linearGradient id="paint0_linear" x1="144.356" y1="224.63" x2="107.132" y2="144.089" gradientUnits="userSpaceOnUse"><stop offset=".096"/><stop offset=".978" stop-color="#B4D1FA" stop-opacity="0"/></linearGradient></defs></svg>