<svg width="310" height="150" fill="none" xmlns="http://www.w3.org/2000/svg"><rect width="310" height="150" rx="10" fill="#fff"/><path opacity=".1" stroke="#0A3D76" d="M38 31.5h240m-240-20h240m-240 40h240m-240 20h240m-241 20h240m-239 20h240"/><path stroke="#0A3D76" d="M38 131.5h247"/><path d="M35 8.5L37.5 5 40 8.5M282 129l3.5 2.5-3.5 2.5" stroke="#0A3D76" stroke-linecap="round"/><path stroke="#0A3D76" d="M35 51.5h2m-2-20h2m-2-20h2m-2 60h2m-2 20h2m-2 20h2M96.5 134v-2m70 2v-2m-105 2v-2m70 2v-2m70 2v-2m35 2v-2m35 2v-2m-234 0V5.5"/><path d="M18.207 110.723l.434-4.254h4.37v1.002h-3.45l-.258 2.326a2.754 2.754 0 011.424-.369c.777 0 1.394.258 1.851.773.457.512.686 1.205.686 2.08 0 .879-.239 1.573-.715 2.08-.473.504-1.135.756-1.986.756-.754 0-1.37-.209-1.846-.627-.477-.418-.748-.996-.815-1.734h1.026c.066.488.24.857.521 1.107.281.246.653.369 1.113.369.504 0 .899-.171 1.184-.515.29-.344.434-.819.434-1.424 0-.57-.157-1.027-.47-1.371-.308-.348-.72-.522-1.235-.522-.473 0-.844.104-1.114.311l-.287.234-.867-.222zm11.59.638c0 1.27-.217 2.213-.65 2.83-.434.618-1.112.926-2.034.926-.91 0-1.584-.301-2.021-.902-.438-.606-.664-1.508-.68-2.707v-1.447c0-1.254.217-2.186.65-2.795.434-.61 1.114-.914 2.04-.914.918 0 1.593.294 2.027.884.433.586.656 1.493.668 2.719v1.406zm-1.084-1.482c0-.918-.129-1.586-.387-2.004-.258-.422-.666-.633-1.224-.633-.555 0-.96.209-1.213.627-.254.418-.385 1.061-.393 1.928v1.734c0 .922.133 1.604.399 2.045.27.438.675.656 1.218.656.535 0 .932-.207 1.19-.621.261-.414.398-1.066.41-1.957v-1.775zm-1.654 27.482c0 1.27-.217 2.213-.65 2.83-.434.618-1.112.926-2.034.926-.91 0-1.584-.301-2.021-.902-.438-.606-.665-1.508-.68-2.707v-1.447c0-1.254.217-2.186.65-2.795.434-.61 1.113-.914 2.04-.914.917 0 1.593.294 2.027.884.433.586.656 1.493.668 2.719v1.406zm-1.084-1.482c0-.918-.13-1.586-.387-2.004-.258-.422-.666-.633-1.225-.633-.554 0-.959.209-1.213.627-.253.418-.384 1.061-.392 1.928v1.734c0 .922.133 1.604.398 2.045.27.438.676.656 1.219.656.535 0 .932-.207 1.19-.621.261-.414.398-1.066.41-1.957v-1.775zM17.271 95h-1.09v-7.225l-2.185.803v-.984l3.106-1.166h.17V95zm8.526-3.639c0 1.27-.217 2.213-.65 2.83-.434.618-1.112.926-2.034.926-.91 0-1.584-.3-2.021-.902-.438-.606-.664-1.508-.68-2.707V90.06c0-1.254.217-2.186.65-2.795.434-.61 1.114-.914 2.04-.914.918 0 1.593.294 2.027.884.433.586.656 1.492.668 2.72v1.405zm-1.084-1.482c0-.918-.129-1.586-.387-2.004-.258-.422-.666-.633-1.224-.633-.555 0-.96.21-1.213.627-.254.418-.385 1.06-.393 1.928v1.734c0 .922.133 1.604.399 2.045.27.438.675.656 1.218.656.535 0 .932-.207 1.19-.62.261-.415.398-1.067.41-1.958V89.88zm7.822 1.482c0 1.27-.217 2.213-.65 2.83-.434.618-1.112.926-2.033.926-.91 0-1.584-.3-2.022-.902-.437-.606-.664-1.508-.68-2.707V90.06c0-1.254.217-2.186.65-2.795.434-.61 1.114-.914 2.04-.914.918 0 1.594.294 2.027.884.434.586.656 1.492.668 2.72v1.405zm-1.084-1.482c0-.918-.129-1.586-.387-2.004-.257-.422-.666-.633-1.224-.633-.555 0-.96.21-1.213.627-.254.418-.385 1.06-.393 1.928v1.734c0 .922.133 1.604.399 2.045.27.438.676.656 1.219.656.535 0 .931-.207 1.189-.62.262-.415.398-1.067.41-1.958V89.88zM17.271 76h-1.09v-7.225l-2.185.803v-.984l3.106-1.166h.17V76zm3.674-4.277l.434-4.254h4.371v1.002h-3.451l-.258 2.326c.418-.246.893-.37 1.424-.37.777 0 1.394.258 1.851.774.457.512.686 1.205.686 2.08 0 .88-.238 1.572-.715 2.08-.473.504-1.135.756-1.986.756-.754 0-1.37-.209-1.846-.627-.476-.418-.748-.996-.814-1.734h1.025c.066.488.24.857.521 1.107.282.246.653.37 1.114.37.504 0 .898-.172 1.183-.516.29-.344.434-.819.434-1.424 0-.57-.156-1.027-.469-1.371-.308-.348-.72-.522-1.236-.522-.473 0-.844.104-1.113.31l-.288.235-.867-.222zm11.59.638c0 1.27-.217 2.213-.65 2.83-.434.618-1.112.926-2.033.926-.91 0-1.584-.3-2.022-.902-.437-.606-.664-1.508-.68-2.707V71.06c0-1.254.217-2.186.65-2.795.434-.61 1.114-.914 2.04-.914.918 0 1.594.294 2.027.884.434.586.656 1.492.668 2.72v1.405zm-1.084-1.482c0-.918-.129-1.586-.387-2.004-.257-.422-.666-.633-1.224-.633-.555 0-.96.21-1.213.627-.254.418-.385 1.06-.393 1.928v1.734c0 .922.133 1.604.399 2.045.27.438.676.656 1.219.656.535 0 .931-.207 1.189-.62.262-.415.398-1.067.41-1.958V70.88zM20.299 55h-5.59v-.78l2.953-3.28c.438-.497.738-.899.902-1.208.168-.312.252-.634.252-.966 0-.446-.134-.81-.404-1.096-.27-.285-.629-.428-1.078-.428-.54 0-.959.155-1.26.463-.297.305-.445.73-.445 1.277h-1.084c0-.785.252-1.42.756-1.904.508-.484 1.185-.726 2.033-.726.793 0 1.42.209 1.88.627.462.414.692.966.692 1.658 0 .84-.535 1.84-1.605 3l-2.285 2.478h4.283V55zm6.498-3.639c0 1.27-.217 2.213-.65 2.83-.434.618-1.112.926-2.034.926-.91 0-1.584-.3-2.021-.902-.438-.606-.664-1.508-.68-2.707V50.06c0-1.253.217-2.185.65-2.794.434-.61 1.114-.914 2.04-.914.918 0 1.593.295 2.027.884.433.586.656 1.492.668 2.72v1.405zm-1.084-1.482c0-.918-.129-1.586-.387-2.004-.258-.422-.666-.633-1.224-.633-.555 0-.96.21-1.213.627-.254.418-.385 1.06-.393 1.928v1.734c0 .922.133 1.604.399 2.045.27.438.675.656 1.218.656.535 0 .932-.207 1.19-.62.261-.415.398-1.067.41-1.958V49.88zm7.822 1.482c0 1.27-.217 2.213-.65 2.83-.434.618-1.112.926-2.033.926-.91 0-1.584-.3-2.022-.902-.437-.606-.664-1.508-.68-2.707V50.06c0-1.253.217-2.185.65-2.794.434-.61 1.114-.914 2.04-.914.918 0 1.594.295 2.027.884.434.586.656 1.492.668 2.72v1.405zm-1.084-1.482c0-.918-.129-1.586-.386-2.004-.258-.422-.667-.633-1.225-.633-.555 0-.96.21-1.213.627-.254.418-.385 1.06-.393 1.928v1.734c0 .922.133 1.604.399 2.045.27.438.676.656 1.219.656.535 0 .931-.207 1.189-.62.262-.415.399-1.067.41-1.958V49.88zM15.285 11.207h.815c.511-.008.914-.143 1.207-.404.293-.262.44-.616.44-1.06 0-1-.499-1.5-1.495-1.5-.469 0-.844.134-1.125.403-.277.266-.416.62-.416 1.061h-1.084c0-.676.246-1.236.738-1.682.496-.449 1.125-.673 1.887-.673.805 0 1.436.212 1.893.638.457.426.685 1.018.685 1.776 0 .37-.121.73-.363 1.078a2.157 2.157 0 01-.979.779c.469.149.83.395 1.084.738.258.344.387.764.387 1.26 0 .766-.25 1.373-.75 1.822-.5.45-1.15.674-1.951.674-.801 0-1.453-.217-1.957-.65-.5-.434-.75-1.006-.75-1.717h1.09c0 .45.146.809.44 1.078.292.27.685.404 1.177.404.523 0 .924-.136 1.201-.41.277-.273.416-.666.416-1.177 0-.497-.152-.877-.457-1.143-.305-.266-.744-.402-1.318-.41h-.815v-.885zm10.512 1.154c0 1.27-.217 2.213-.65 2.83-.434.618-1.112.926-2.034.926-.91 0-1.584-.3-2.021-.902-.438-.606-.664-1.508-.68-2.707V11.06c0-1.254.217-2.186.65-2.795.434-.61 1.114-.914 2.04-.914.918 0 1.593.294 2.027.884.433.586.656 1.493.668 2.72v1.405zm-1.084-1.482c0-.918-.129-1.586-.387-2.004-.258-.422-.666-.633-1.224-.633-.555 0-.96.21-1.213.627-.254.418-.385 1.06-.393 1.928v1.734c0 .922.133 1.604.399 2.045.27.438.675.656 1.218.656.535 0 .932-.207 1.19-.62.261-.415.398-1.067.41-1.958V10.88zm7.822 1.482c0 1.27-.217 2.213-.65 2.83-.434.618-1.112.926-2.033.926-.91 0-1.584-.3-2.022-.902-.437-.606-.664-1.508-.68-2.707V11.06c0-1.254.217-2.186.65-2.795.434-.61 1.114-.914 2.04-.914.918 0 1.594.294 2.027.884.434.586.656 1.493.668 2.72v1.405zm-1.084-1.482c0-.918-.129-1.586-.387-2.004-.257-.422-.666-.633-1.224-.633-.555 0-.96.21-1.213.627-.254.418-.385 1.06-.393 1.928v1.734c0 .922.133 1.604.399 2.045.27.438.676.656 1.219.656.535 0 .931-.207 1.189-.62.262-.415.398-1.067.41-1.958V10.88zM19.299 36h-5.59v-.78l2.953-3.28c.438-.497.738-.899.902-1.208.168-.312.252-.634.252-.966 0-.446-.134-.81-.404-1.096-.27-.285-.629-.428-1.078-.428-.54 0-.959.154-1.26.463-.297.305-.445.73-.445 1.277h-1.084c0-.785.252-1.42.756-1.904.508-.484 1.185-.726 2.033-.726.793 0 1.42.209 1.88.627.462.414.692.966.692 1.658 0 .84-.535 1.84-1.605 3l-2.285 2.478h4.283V36zm1.646-4.277l.434-4.254h4.371v1.002h-3.451l-.258 2.326c.418-.246.893-.37 1.424-.37.777 0 1.394.259 1.851.774.457.512.686 1.205.686 2.08 0 .88-.238 1.572-.715 2.08-.473.504-1.135.756-1.986.756-.754 0-1.37-.209-1.846-.627-.476-.418-.748-.996-.814-1.734h1.025c.066.488.24.857.521 1.107.282.246.653.37 1.114.37.504 0 .898-.172 1.183-.516.29-.344.434-.819.434-1.424 0-.57-.156-1.027-.469-1.371-.308-.348-.72-.522-1.236-.522-.473 0-.844.104-1.113.31l-.288.235-.867-.222zm11.59.638c0 1.27-.217 2.213-.65 2.83-.434.618-1.112.926-2.033.926-.91 0-1.584-.3-2.022-.902-.437-.606-.664-1.508-.68-2.707V31.06c0-1.253.217-2.185.65-2.794.434-.61 1.114-.914 2.04-.914.918 0 1.594.294 2.027.884.434.586.656 1.492.668 2.72v1.405zm-1.084-1.482c0-.918-.129-1.586-.387-2.004-.257-.422-.666-.633-1.224-.633-.555 0-.96.21-1.213.627-.254.418-.385 1.06-.393 1.928v1.734c0 .922.133 1.604.399 2.045.27.438.676.656 1.219.656.535 0 .931-.207 1.189-.62.262-.415.398-1.067.41-1.958V30.88zM62.272 145h-1.09v-7.225l-2.186.803v-.984l3.106-1.166h.17V145zm38.027 0h-5.59v-.779l2.953-3.282c.438-.496.738-.898.902-1.207.168-.312.252-.634.252-.966 0-.446-.134-.811-.404-1.096-.27-.285-.629-.428-1.078-.428-.54 0-.959.154-1.26.463-.297.305-.445.731-.445 1.277h-1.084c0-.785.252-1.42.756-1.904.508-.484 1.185-.726 2.033-.726.793 0 1.42.209 1.88.627.462.414.692.966.692 1.658 0 .84-.535 1.84-1.605 3l-2.285 2.478h4.283V145zm29.986-4.793h.815c.511-.008.914-.143 1.207-.404.293-.262.439-.615.439-1.061 0-1-.498-1.5-1.494-1.5-.469 0-.844.135-1.125.404-.277.266-.416.62-.416 1.061h-1.084c0-.676.246-1.236.738-1.682.496-.449 1.125-.673 1.887-.673.805 0 1.436.212 1.893.638.457.426.685 1.018.685 1.776 0 .371-.121.73-.363 1.078a2.162 2.162 0 01-.979.779c.469.148.83.395 1.084.738.258.344.387.764.387 1.26 0 .766-.25 1.373-.75 1.822-.5.45-1.15.674-1.951.674-.801 0-1.453-.217-1.957-.65-.5-.434-.75-1.006-.75-1.717h1.09c0 .449.146.809.439 1.078.293.27.686.404 1.178.404.523 0 .924-.136 1.201-.41.277-.273.416-.666.416-1.177 0-.497-.152-.877-.457-1.143-.305-.266-.744-.402-1.318-.41h-.815v-.885zm37 1.928h1.184v.885h-1.184V145h-1.09v-1.98h-3.884v-.639l3.82-5.912h1.154v5.666zm-3.744 0h2.654v-4.184l-.129.235-2.525 3.949zm35.666-1.412l.434-4.254h4.371v1.002h-3.451l-.258 2.326a2.753 2.753 0 011.424-.369c.777 0 1.394.258 1.851.773.457.512.686 1.205.686 2.08 0 .879-.239 1.573-.715 2.08-.473.504-1.135.756-1.987.756-.753 0-1.369-.209-1.845-.627-.477-.418-.748-.996-.815-1.734h1.026c.066.488.24.857.521 1.107.281.246.653.369 1.113.369.504 0 .899-.171 1.184-.515.289-.344.434-.819.434-1.424 0-.57-.157-1.027-.469-1.371-.309-.348-.721-.522-1.236-.522-.473 0-.844.104-1.114.311l-.287.234-.867-.222zm38.756-4.26v.92h-.199c-.844.015-1.516.265-2.016.75-.5.484-.789 1.166-.867 2.045.449-.516 1.062-.774 1.84-.774.742 0 1.334.262 1.775.785.445.524.668 1.2.668 2.028 0 .879-.24 1.582-.721 2.109-.476.528-1.117.791-1.922.791-.816 0-1.478-.312-1.986-.937-.508-.629-.762-1.438-.762-2.426v-.416c0-1.57.334-2.77 1.002-3.598.672-.832 1.67-1.258 2.995-1.277h.193zm-1.424 3.844c-.371 0-.713.111-1.025.334-.313.222-.53.502-.651.838v.398c0 .703.158 1.269.475 1.699.316.43.711.645 1.183.645.489 0 .872-.18 1.149-.539.281-.36.422-.83.422-1.412 0-.586-.143-1.059-.428-1.418a1.349 1.349 0 00-1.125-.545zm38.678-3.229L271.684 145h-1.137l3.521-7.641h-4.617v-.89h5.766v.609z" fill="#0A3D76"/><path d="M38 108l24.5 1 34.5-4.5 35.5-3 14.5-8 18.5-10 36-3 36-26.5L264 36.5 278 11" stroke="url(#paint0_linear)" stroke-width="2"/><circle cx="264" cy="36" r="3" fill="#A62E41"/><circle cx="278" cy="11" r="3" fill="#A62E41"/><circle cx="237" cy="54" r="3" fill="#A62E41"/><circle cx="203" cy="80" r="3" fill="#A62E41"/><circle cx="166" cy="84" r="3" fill="#A62E41"/><path d="M135 101.5a3 3 0 11-6 0 3 3 0 016 0zm-35 2.5a3 3 0 11-6 0 3 3 0 016 0zm-35 5a3 3 0 11-6 0 3 3 0 016 0z" fill="#A62E41"/><circle cx="38" cy="108" r="3" fill="#A62E41"/><defs><linearGradient id="paint0_linear" x1="270.602" y1="60" x2="45.62" y2="48.17" gradientUnits="userSpaceOnUse"><stop stop-color="#A62E41"/><stop offset="1" stop-color="#E13152"/></linearGradient></defs></svg>