<svg width="430" height="280" fill="none" xmlns="http://www.w3.org/2000/svg"><path d="M360 67l4.358 2.451A4.999 4.999 0 00360 62v5zm-13.358 13.549a5 5 0 108.716 4.902l-8.716-4.902zM341 62a5 5 0 000 10V62zm14.642 2.549l-9 16 8.716 4.902 9-16-8.716-4.902zM360 62h-19v10h19V62zm-2.496.668l-318.5 183.5 4.992 8.664 318.5-183.5-4.992-8.664z" fill="url(#paint0_linear)"/><path fill-rule="evenodd" clip-rule="evenodd" d="M430 254H40v-3h390v3z" fill="#000"/><path fill-rule="evenodd" clip-rule="evenodd" d="M40.924 252.638v8.75h-1.932v-8.75h1.932zm319.106 0v8.75h-2.897v-8.75h2.897z" fill="#000"/><path d="M44.64 274.001c0 2.028-.363 3.535-1.089 4.52-.725.986-1.86 1.479-3.402 1.479-1.523 0-2.65-.48-3.383-1.441-.732-.967-1.11-2.408-1.137-4.324v-2.311c0-2.003.363-3.491 1.088-4.464.726-.973 1.863-1.46 3.412-1.46 1.536 0 2.667.471 3.393 1.413.725.936 1.098 2.383 1.117 4.342v2.246zm-1.814-2.367c0-1.466-.216-2.533-.648-3.201-.43-.674-1.114-1.011-2.049-1.011-.928 0-1.604.334-2.03 1.002-.424.667-.643 1.694-.656 3.079v2.77c0 1.472.222 2.561.666 3.266.451.699 1.131 1.048 2.04 1.048.895 0 1.559-.331 1.99-.992.438-.661.667-1.703.687-3.126v-2.835zM361.007 280h-2.427v-11.202l-3.58 1.169v-1.964l5.696-2.003h.311v14z" fill="#000"/><path fill-rule="evenodd" clip-rule="evenodd" d="M39 253V0h2v253h-2z" fill="#000"/><path fill-rule="evenodd" clip-rule="evenodd" d="M39.95 253.61h-8.692v-2.917h8.692v2.917z" fill="#000"/><path d="M18.608 253.001c0 2.028-.363 3.535-1.088 4.52-.726.986-1.86 1.479-3.402 1.479-1.523 0-2.65-.48-3.383-1.441-.732-.967-1.111-2.408-1.137-4.324v-2.311c0-2.003.362-3.491 1.088-4.464.726-.973 1.863-1.46 3.412-1.46 1.536 0 2.667.471 3.393 1.413.725.936 1.098 2.383 1.117 4.342v2.246zm-1.814-2.367c0-1.466-.215-2.533-.647-3.201-.431-.674-1.114-1.011-2.049-1.011-.928 0-1.605.334-2.03 1.002-.424.667-.643 1.694-.656 3.079v2.77c0 1.472.222 2.561.666 3.266.451.699 1.131 1.048 2.04 1.048.895 0 1.559-.331 1.99-.992.438-.661.667-1.703.686-3.126v-2.835z" fill="#000"/><path fill-rule="evenodd" clip-rule="evenodd" d="M39.962 192.36H31.27v-2.917h8.693v2.917zm-.004-61.251h-8.692v-2.917h8.692v2.917zm0-61.249h-8.692v-2.917h8.692v2.917zm.004-61.25H31.27V5.693h8.693V8.61z" fill="#000"/><path d="M5.286 195.378H3.832v-9.633l-2.918 1.07v-1.312l4.146-1.555h.226v11.43zm11.381-4.852c0 1.693-.29 2.951-.868 3.774-.579.823-1.484 1.234-2.714 1.234-1.215 0-2.115-.401-2.699-1.203-.584-.807-.886-2.01-.907-3.609v-1.93c0-1.672.29-2.914.868-3.727.579-.812 1.486-1.218 2.722-1.218 1.225 0 2.127.393 2.706 1.179.58.782.876 1.99.892 3.625v1.875zm-1.447-1.976c0-1.224-.172-2.115-.516-2.672-.344-.563-.89-.844-1.635-.844-.74 0-1.28.279-1.62.836-.338.557-.513 1.414-.523 2.57v2.313c0 1.229.177 2.138.532 2.726.36.584.902.875 1.627.875.714 0 1.243-.276 1.587-.828.35-.552.532-1.422.548-2.609v-2.367zm3.176-2.36c0-.682.216-1.244.649-1.687.438-.443.998-.664 1.681-.664.694 0 1.255.224 1.682.672.433.442.65 1.018.65 1.726v.555c0 .687-.22 1.25-.658 1.687-.432.433-.985.649-1.658.649-.678 0-1.238-.216-1.682-.649-.443-.437-.664-1.018-.664-1.742v-.547zm1.079.602c0 .406.115.742.344 1.008.23.26.537.39.923.39.37 0 .668-.127.892-.382.23-.256.344-.605.344-1.047v-.571c0-.406-.112-.742-.336-1.007-.225-.266-.53-.399-.915-.399-.386 0-.692.133-.916.399-.224.265-.336.612-.336 1.039v.57zm4.466 5.797c0-.682.217-1.242.65-1.68.437-.443.998-.664 1.681-.664s1.244.219 1.682.656c.438.438.657 1.019.657 1.743v.554c0 .683-.22 1.245-.657 1.688-.433.437-.988.656-1.666.656-.678 0-1.239-.216-1.682-.648-.443-.438-.665-1.019-.665-1.743v-.562zm1.08.609c0 .412.114.75.344 1.016.23.26.537.39.923.39.375 0 .675-.127.9-.382.223-.261.335-.612.335-1.055v-.578c0-.412-.114-.748-.344-1.008-.224-.26-.526-.391-.907-.391-.37 0-.673.131-.907.391-.23.255-.344.602-.344 1.039v.578zm-3.95 1.321l-.822-.516 5.562-8.891.82.516-5.56 8.891zM7.993 134.551H.532v-1.039l3.942-4.375c.584-.662.985-1.198 1.204-1.61.224-.416.337-.846.337-1.289 0-.593-.18-1.08-.54-1.461-.36-.38-.84-.57-1.44-.57-.719 0-1.28.206-1.681.617-.396.406-.594.974-.594 1.703H.312c0-1.047.337-1.893 1.01-2.539.677-.646 1.582-.968 2.714-.968 1.058 0 1.895.278 2.51.835.616.553.923 1.29.923 2.211 0 1.12-.714 2.454-2.143 4l-3.05 3.305h5.717v1.18zm8.675-4.852c0 1.693-.29 2.951-.868 3.774-.58.823-1.484 1.234-2.715 1.234-1.215 0-2.114-.401-2.698-1.203-.584-.807-.887-2.011-.907-3.609v-1.93c0-1.672.289-2.914.868-3.727.579-.812 1.486-1.218 2.722-1.218 1.225 0 2.127.393 2.706 1.179.579.781.876 1.99.892 3.625v1.875zm-1.447-1.976c0-1.224-.172-2.115-.517-2.672-.344-.563-.889-.844-1.634-.844-.74 0-1.28.279-1.62.836-.338.557-.513 1.414-.523 2.57v2.313c0 1.229.177 2.138.531 2.726.36.584.902.875 1.627.875.715 0 1.244-.276 1.588-.828.35-.552.532-1.422.548-2.609v-2.367zm3.175-2.36c0-.682.217-1.245.65-1.687.438-.443.998-.664 1.681-.664.694 0 1.254.224 1.682.672.433.442.649 1.018.649 1.726v.555c0 .687-.219 1.25-.657 1.687-.433.433-.985.649-1.658.649-.678 0-1.239-.216-1.682-.649-.443-.437-.665-1.018-.665-1.742v-.547zm1.08.602c0 .406.114.742.344 1.008.23.26.537.39.923.39.37 0 .667-.127.892-.383.229-.255.344-.604.344-1.046v-.571c0-.406-.113-.742-.337-1.008-.224-.265-.529-.398-.915-.398s-.69.133-.915.398c-.224.266-.336.612-.336 1.04v.57zm4.466 5.797c0-.683.216-1.242.65-1.68.437-.443.998-.664 1.68-.664.684 0 1.244.219 1.682.656.438.438.657 1.018.657 1.742v.555c0 .682-.219 1.245-.657 1.688-.432.437-.988.656-1.666.656-.678 0-1.238-.216-1.681-.649-.444-.437-.665-1.018-.665-1.742v-.562zm1.08.609c0 .412.114.75.344 1.016.229.26.537.39.922.39.376 0 .676-.127.9-.382.224-.261.336-.612.336-1.055v-.578c0-.412-.114-.748-.344-1.008-.224-.261-.527-.391-.907-.391-.37 0-.673.13-.907.391-.23.255-.345.601-.345 1.039v.578zm-3.95 1.32l-.822-.515 5.561-8.891.822.516-5.562 8.89zM2.636 68.299h1.087c.683-.01 1.22-.19 1.611-.54.391-.348.587-.82.587-1.413 0-1.334-.665-2-1.995-2-.626 0-1.126.18-1.502.539-.37.354-.555.825-.555 1.414H.422c0-.901.329-1.649.986-2.242.662-.6 1.501-.899 2.518-.899 1.074 0 1.916.284 2.527.852.61.567.915 1.356.915 2.367 0 .495-.162.974-.485 1.438a2.88 2.88 0 01-1.306 1.038c.625.198 1.108.527 1.447.985.344.458.516 1.018.516 1.68 0 1.02-.334 1.83-1.001 2.43-.668.598-1.536.898-2.605.898s-1.94-.29-2.613-.868c-.667-.578-1-1.34-1-2.288h1.454c0 .598.196 1.078.587 1.437.39.36.915.539 1.572.539.699 0 1.233-.182 1.603-.547.37-.364.556-.888.556-1.57 0-.662-.204-1.17-.61-1.524-.407-.354-.994-.536-1.76-.547H2.636v-1.18zm14.032 1.539c0 1.693-.29 2.95-.868 3.773-.58.823-1.484 1.235-2.715 1.235-1.215 0-2.114-.401-2.698-1.203-.584-.808-.887-2.01-.907-3.61v-1.93c0-1.671.289-2.913.868-3.726.579-.812 1.486-1.219 2.722-1.219 1.225 0 2.127.393 2.706 1.18.579.781.876 1.99.892 3.625v1.875zM15.22 67.86c0-1.224-.172-2.114-.517-2.672-.344-.562-.889-.843-1.634-.843-.74 0-1.28.278-1.62.836-.338.557-.513 1.414-.523 2.57v2.313c0 1.229.177 2.138.531 2.726.36.583.902.875 1.627.875.715 0 1.244-.276 1.588-.828.35-.552.532-1.422.548-2.61V67.86zm3.176-2.358c0-.682.217-1.245.65-1.687.438-.443.998-.665 1.681-.665.694 0 1.254.224 1.682.672.433.443.649 1.019.649 1.727v.554c0 .688-.219 1.25-.657 1.688-.433.432-.985.648-1.658.648-.678 0-1.239-.216-1.682-.648-.443-.438-.665-1.018-.665-1.742v-.547zm1.08.602c0 .406.114.742.344 1.007.23.26.537.391.923.391.37 0 .667-.128.892-.383.229-.255.344-.604.344-1.047v-.57c0-.406-.113-.742-.337-1.008-.224-.266-.529-.398-.915-.398s-.69.132-.915.398c-.224.266-.336.612-.336 1.04v.57zm4.466 5.796c0-.682.216-1.242.65-1.68.437-.442.998-.663 1.68-.663.684 0 1.244.218 1.682.656.438.437.657 1.018.657 1.742v.555c0 .682-.219 1.245-.657 1.687-.432.438-.988.656-1.666.656-.678 0-1.238-.216-1.681-.648-.444-.437-.665-1.018-.665-1.742V71.9zm1.08.61c0 .411.114.75.343 1.015.23.26.538.391.923.391.376 0 .676-.128.9-.383.224-.26.336-.612.336-1.055V71.9c0-.411-.114-.747-.344-1.007-.224-.26-.527-.391-.907-.391-.37 0-.673.13-.908.39-.229.256-.344.602-.344 1.04v.578zm-3.95 1.32l-.822-.516 5.561-8.89.822.515-5.562 8.891zM6.64 9.076h1.58v1.18H6.64v2.64H5.187v-2.64H0v-.852l5.1-7.883h1.54v7.555zm-4.997 0h3.543V3.498l-.172.313-3.371 5.265zm15.025-1.031c0 1.693-.29 2.95-.868 3.773-.579.823-1.484 1.235-2.714 1.235-1.215 0-2.115-.401-2.699-1.203-.584-.808-.886-2.01-.907-3.61V6.31c0-1.671.29-2.914.868-3.726.579-.813 1.486-1.219 2.722-1.219 1.226 0 2.128.393 2.706 1.18.58.781.876 1.99.892 3.625v1.875zm-1.447-1.977c0-1.224-.172-2.114-.516-2.672-.344-.562-.89-.843-1.635-.843-.74 0-1.28.278-1.619.836-.339.557-.514 1.414-.524 2.57v2.312c0 1.23.177 2.138.532 2.727.36.583.902.875 1.627.875.714 0 1.243-.276 1.588-.828.349-.552.531-1.422.547-2.61V6.069zm3.176-2.359c0-.682.216-1.245.649-1.688.438-.442.998-.664 1.681-.664.694 0 1.255.224 1.682.672.433.443.65 1.019.65 1.727v.555c0 .687-.22 1.25-.658 1.687-.432.432-.985.648-1.658.648-.678 0-1.238-.216-1.681-.648-.444-.437-.665-1.018-.665-1.742v-.547zm1.08.602c0 .406.114.742.343 1.007.23.26.537.391.923.391.37 0 .668-.128.892-.383.23-.255.344-.604.344-1.047v-.57c0-.406-.112-.742-.336-1.008-.224-.265-.53-.398-.916-.398-.385 0-.69.133-.915.398-.224.266-.336.612-.336 1.04v.57zm4.465 5.796c0-.682.217-1.242.65-1.68.438-.442.998-.663 1.681-.663s1.244.218 1.682.656c.438.437.657 1.018.657 1.742v.555c0 .682-.22 1.245-.657 1.687-.433.438-.988.656-1.666.656-.678 0-1.239-.216-1.682-.648-.443-.437-.665-1.018-.665-1.742v-.563zm1.08.61c0 .411.114.75.344 1.015.23.26.537.391.923.391.375 0 .675-.128.9-.383.224-.26.336-.612.336-1.055v-.578c0-.411-.115-.747-.345-1.007-.224-.26-.526-.391-.907-.391-.37 0-.672.13-.907.39-.23.256-.344.602-.344 1.04v.578zm-3.95 1.32l-.822-.516 5.562-8.89.82.515-5.56 8.891z" fill="#000"/><defs><linearGradient id="paint0_linear" x1="350.182" y1="158.75" x2="51.202" y2="147.608" gradientUnits="userSpaceOnUse"><stop stop-color="#A62E41"/><stop offset="1" stop-color="#E13152"/></linearGradient></defs></svg>