<svg width="30" height="30" fill="none" xmlns="http://www.w3.org/2000/svg"><path d="M20.03 21.283a2 2 0 00-3.523 1.263l.477 1.331a2 2 0 003.045-2.594zm-3.405-11.018a2 2 0 00-2.031-3.142l-1.188.767a2 2 0 003.219 2.375zm-5.02 4.521a2 2 0 00-2.03-3.143l-1.188.768a2 2 0 003.218 2.375z" fill="#C43B55"/><path d="M29 15.5C29 22.127 23.627 28 17 28c-1.167 0-3-.5-3.5-1-.765-.766 2.178-6.05-5.5-8-1-.334-3-1.5-3-3.5 0-6.628 5.373-12 12-12 4.337 0 8.137 2.301 10.246 5.75" stroke="#000" stroke-linecap="round" stroke-linejoin="round"/><path d="M7.5 7c0-8-3-8-3 0v12h3V7z" fill="#C43B55"/><path d="M4.5 7c0-8 3-8 3 0v12m-3 0v3h3v-3m-3 0h3m-3 0V9.5" stroke="#000" stroke-linecap="round"/><path d="M3.5 26.5c0-3.5.5-4 2.5-4h1.5C11.5 27 6 30 1 29c2 0 2.5-1.5 2.5-2.5z" fill="#C43B55"/><path d="M5.903 28.973c-1.415.545-3.189.69-4.903.325 1.961 0 2.452-1.569 2.451-2.614 0-3.661.49-4.184 2.452-4.184h.087c1.188 0 2.434.483 2.82 1.606.548 1.59-.165 2.922-1.216 3.865" stroke="#000" stroke-linecap="round" stroke-linejoin="round"/><path d="M15 11a2 2 0 10-1.5-.677" stroke="#000" stroke-linecap="round"/><path d="M20.068 11.517a2 2 0 003.723.372l.14-1.407a2 2 0 00-3.863 1.035zm2.447 4.163a2 2 0 00.466 3.714l1.403-.176a2 2 0 00-1.869-3.537z" fill="#C43B55"/><path d="M22 9a2 2 0 101.323.5m2.177 8a2 2 0 10-.677 1.5M18.5 24.5a2 2 0 111.732-1M10 15.5a2 2 0 111.678-.912" stroke="#000" stroke-linecap="round"/></svg>