<svg width="208" height="163" fill="none" xmlns="http://www.w3.org/2000/svg"><path d="M101.432 123.289c-3.696-11.242-23.926-17.791-46.019-17.791-19.191 0-42.317 6.544-46.018 17.791-4.388 13.391 15.686 28.943 46.018 28.943 30.333 0 50.426-15.552 46.019-28.943z" fill="url(#paint0_radial)"/><path style="mix-blend-mode:multiply" d="M55.076 162.998c26.551 0 48.076-12.077 48.076-26.974S81.627 109.05 55.076 109.05C28.524 109.05 7 121.127 7 136.024s21.524 26.974 48.076 26.974z" fill="url(#paint1_radial)"/><path d="M55.417 151.124c-24.33 0-40.411-9.589-45.063-18.499-1.57-3.015-1.902-5.972-.975-8.797 1.653-5.025 7.26-9.692 15.783-13.143 8.523-3.45 19.318-5.376 30.255-5.376 10.936 0 21.683 1.911 30.254 5.376 8.572 3.466 14.14 8.118 15.788 13.143.922 2.81.595 5.767-.975 8.797-4.651 8.91-20.737 18.499-45.067 18.499z" fill="url(#paint2_linear)"/><path d="M55.416 150.101c-23.521 0-39.07-9.287-43.566-17.889-1.516-2.932-1.838-5.772-.941-8.489 1.595-4.858 7.016-9.37 15.257-12.708 8.24-3.338 18.679-5.2 29.255-5.2 10.575 0 20.966 1.847 29.255 5.2 8.289 3.353 13.652 7.82 15.261 12.708.892 2.717.576 5.571-.946 8.489-4.5 8.617-20.05 17.889-43.575 17.889z" fill="url(#paint3_radial)"/><g filter="url(#filter0_f)"><path d="M10.147 124.677c-.922 2.721-.59 5.565.967 8.502 4.62 8.615 20.6 17.915 44.772 17.915 24.177 0 40.157-9.286 44.782-17.915 1.563-2.922 1.889-5.781.972-8.502" stroke="#fff" stroke-width="2"/></g><path opacity=".22" d="M83.9 126.054c-2.276-5.592-14.89-9.507-28.484-9.507-13.594 0-26.208 3.91-28.48 9.507-2.71 6.656 9.796 14.403 28.48 14.403s31.196-7.747 28.485-14.403z" fill="url(#paint4_linear)"/><g filter="url(#filter1_f)" opacity=".34"><path d="M96.22 136.796c-4.291 1.76-15.603-3.177-20.723-5.865l1.95-2.688 23.161 3.91c.325.815-.098 2.884-4.389 4.643z" fill="#341E01" fill-opacity=".6"/></g><g filter="url(#filter2_f)" opacity=".34"><path d="M97.926 119.929c10.239 6.598-35.106 15.64-36.081 15.64l11.214-27.37 18.04 1.222 8.29 5.621-1.463 4.887z" fill="#2B1800" fill-opacity=".7"/></g><path style="mix-blend-mode:multiply" d="M54.94 143.983c16.2 0 29.334-7.197 29.334-16.075 0-8.877-13.133-16.075-29.334-16.075-16.2 0-29.333 7.198-29.333 16.075 0 8.878 13.133 16.075 29.334 16.075z" fill="url(#paint5_radial)"/><path d="M89.96 95.003s0 10.856-2.404 19.697c0 0-5.617 10.181-13.102 15.542 0 0-7.04 5.807-19.503 5.807-6.928.018-13.709-2-19.503-5.807C27.963 124.866 22.35 114.7 22.35 114.7c-2.428-8.866-2.428-19.697-2.428-19.697" fill="url(#paint6_radial)"/><path style="mix-blend-mode:multiply" d="M84.975 118.784s-6.305 2.19-7.143 3.192c0 0-1.95 4.276-2.355 7.463 3.968-3.157 7.333-7.488 9.498-10.655z" fill="url(#paint7_linear)"/><path d="M54.941 125.306c14.832 0 27.978-4.257 32.615-10.63 2.404-8.847 2.404-19.673 2.404-19.673H19.922s0 10.851 2.404 19.692c4.456 6.349 17.782 10.611 32.614 10.611z" fill="url(#paint8_linear)"/><path style="mix-blend-mode:multiply" opacity=".3" d="M85.522 106.929s-.8-3.866-7.84-3.954c-7.041-.088-9.08 5.811-9.08 10.601 0 4.345 1.044 11.349 6.992 12.263 5.949.914 11.873-5.508 9.162-6.589a4.871 4.871 0 00-4.637.778c-1.433 1.246-5.578 3.714-5.578-5.137 0-4.462 1.819-6.843 3.555-6.789 1.35.049 2.652 1.569 2.998 4.731 0 0 2.263 1.374 3.662-.366 1.4-1.74.766-5.538.766-5.538z" fill="url(#paint9_linear)"/><path style="mix-blend-mode:multiply" opacity=".4" d="M81.294 111.439a32.231 32.231 0 00-3.116 8.842 45.316 45.316 0 006.441-3.177 20.45 20.45 0 001.814-3.499c.522-1.809-5.14-2.166-5.14-2.166z" fill="url(#paint10_linear)"/><path d="M54.941 108.244c19.34 0 35.019-5.939 35.019-13.265 0-7.326-15.679-13.265-35.019-13.265-19.34 0-35.018 5.94-35.018 13.265 0 7.326 15.678 13.265 35.018 13.265z" fill="url(#paint11_linear)"/><path d="M54.941 107.127c18.11 0 32.79-5.56 32.79-12.42 0-6.858-14.68-12.418-32.79-12.418-18.109 0-32.79 5.56-32.79 12.419 0 6.859 14.681 12.419 32.79 12.419z" fill="url(#paint12_linear)"/><path d="M82.295 115.83a2.2 2.2 0 01-1.463-2.341 8.805 8.805 0 013.12-5.777c1.561-1.359 4.311-2.19 7.344-2.19 7.484 0 14.51 5.69 14.51 14.076 0 5.753-4.32 9.639-6.738 11.056-1.434.845-3.9 1.466-6.646 1.466-7.528 0-12.297-5.454-14.14-8.074a2.32 2.32 0 01.093-2.825 11.058 11.058 0 012.209-2.028 6.282 6.282 0 014.461-1.144s1.39 4.076 5.037 5.288c4.876 1.628 7.86 0 7.86 0s2.106-8.308-6.339-10.263c-6.036-1.393-4.52 4.281-9.264 2.805l-.044-.049z" fill="url(#paint13_linear)"/><g filter="url(#filter3_f)"><path d="M93.05 132.148c-5.852.586-11.703-4.48-13.897-7.087 2.146 2.15 5.302 4.229 9.264 4.154 3.917-.073 7.07-.977 9.508-5.62.545-1.038 2.763 3.665 3.657 4.887-.406.978-2.681 3.079-8.532 3.666z" fill="url(#paint14_linear)"/></g><g filter="url(#filter4_f)"><path d="M81.44 114.916c.267.425.67.747 1.143.912l.044.049c.438.24 1.768.1 2.38 0l-.766-8.167a8.803 8.803 0 00-3.12 5.777 2.21 2.21 0 00.32 1.429z" fill="url(#paint15_linear)" fill-opacity=".28"/></g><path d="M97.928 123.269s.048-.283.092-.792c.06-.692.06-1.389 0-2.082a8.817 8.817 0 00-.716-2.805 6.762 6.762 0 00-.83-1.393 6.24 6.24 0 00-1.16-1.193 9.014 9.014 0 00-2.925-1.539 12.936 12.936 0 00-1.487-.386 5.99 5.99 0 00-1.356-.122 3.735 3.735 0 00-1.95.557c-.21.132-.37.249-.488.332l-.16.132.14-.151a4.09 4.09 0 01.444-.391 3.717 3.717 0 011.985-.753 6.485 6.485 0 011.433.044 10.47 10.47 0 011.556.327 9.887 9.887 0 011.594.616c.536.268 1.04.596 1.502.978a7.015 7.015 0 012.072 2.795c.373.944.576 1.947.6 2.962.02.708-.034 1.415-.161 2.111a6.156 6.156 0 01-.185.753z" fill="#fff"/><path d="M97.925 123.265s-2.984 1.647-7.86 0c-3.647-1.212-5.037-5.288-5.037-5.288a6.281 6.281 0 00-4.461 1.143 10.959 10.959 0 00-2.404 2.278c1.16 2.507 3.272 5.347 6.587 6.598 8.055 3.065 12.624-2.429 13.175-4.731z" fill="url(#paint16_linear)"/><path d="M78.178 121.417s.18.352.532.944c.175.293.4.65.677 1.036.278.386.61.811.976 1.256.414.472.864.911 1.345 1.315.535.447 1.11.845 1.717 1.187.157.094.32.179.487.255.159.084.322.161.488.229.17.064.35.152.512.201l.55.171c.732.242 1.482.422 2.244.537l1.15.118h1.141c.376 0 .751-.093 1.122-.132.37-.039.712-.176 1.067-.254.356-.079.668-.25.976-.362.307-.113.624-.293.916-.45.293-.156.566-.337.82-.518.253-.181.487-.362.716-.557.4-.349.772-.726 1.117-1.129.146-.191.292-.362.41-.528l.307-.489c.13-.23.245-.468.346-.713l.097-.269-.073.274c-.075.258-.17.51-.287.752l-.279.489c-.107.181-.243.362-.375.567a9.099 9.099 0 01-1.078 1.222c-.214.21-.487.396-.716.606-.23.21-.541.371-.824.572-.283.2-.615.332-.931.489-.317.156-.683.273-1.04.395a8.845 8.845 0 01-1.11.284c-.381.078-.771.122-1.166.156-.395.035-.795.03-1.195.025l-1.2-.103a15.075 15.075 0 01-2.31-.586l-.551-.181c-.205-.064-.366-.152-.551-.225-.186-.073-.351-.161-.522-.244a4.785 4.785 0 01-.488-.274 11.273 11.273 0 01-3.066-2.693 13.872 13.872 0 01-1.541-2.444 9.427 9.427 0 01-.337-.728l-.073-.201z" fill="#fff"/><path style="mix-blend-mode:screen" d="M68.62 122.797a59.96 59.96 0 004.777-1.036l.659-14.833-5.061 1.241-.376 14.628z" fill="url(#paint17_linear)"/><path style="mix-blend-mode:screen" d="M66.55 123.135l1.155-.18.643-14.712-1.462.352-.336 14.54z" fill="url(#paint18_linear)"/><g filter="url(#filter5_f)"><ellipse cx="55.507" cy="94.026" rx="33.4" ry="12.219" fill="#fff"/></g><ellipse cx="55.507" cy="94.516" rx="33.4" ry="12.219" fill="#9C6720"/><g filter="url(#filter6_f)"><ellipse cx="55.507" cy="94.514" rx="30.962" ry="11.241" fill="#E4AA60"/></g><g filter="url(#filter7_f)"><ellipse cx="55.504" cy="94.515" rx="25.598" ry="8.797" fill="#F1C998"/></g><g filter="url(#filter8_f)"><ellipse cx="55.507" cy="94.513" rx="21.21" ry="6.354" fill="#FFE0BA"/></g><g filter="url(#filter9_f)"><path d="M91.588 105.511c7.484 0 14.267 5.934 14.267 14.321 0 5.752-4.047 9.188-6.466 10.605" stroke="url(#paint19_linear)" stroke-opacity=".5"/></g><g filter="url(#filter10_f)"><path d="M89.707 95.003c0 7.326-15.679 13.265-35.019 13.265-19.34 0-35.018-5.939-35.018-13.265" stroke="#fff" stroke-width="2"/></g><g clip-path="url(#clip0)"><g filter="url(#filter11_d)"><path fill-rule="evenodd" clip-rule="evenodd" d="M86.565 16.317l103.992 9.523c3.318.307 5.931 3.745 5.012 6.937l-16.757 58.07c-.919 3.193-3.654 5.526-6.94 4.992l-57.85-9.387-17.94 12.797 4.208-15.025-14.107-2.29c-3.314-.537-4.918-3.624-5.013-6.93l-1.522-53.697c-.122-3.317 3.6-5.297 6.917-4.99z" fill="url(#paint20_linear)"/></g><path d="M110.493 46.759c-2.265-.272-4.155-1.007-5.668-2.205.057-.479.323-1.22.797-2.224.471.675 1.142 1.253 2.013 1.733.895.46 1.876.755 2.943.883 1.394.167 2.509-.008 3.345-.527.86-.538 1.356-1.362 1.49-2.473.107-.893-.051-1.697-.474-2.41-.42-.736-1.078-1.323-1.976-1.762a3.793 3.793 0 00-1.815.213c-.555.199-.968.514-1.241.945-.174-.02-.372-.122-.593-.303-.219-.203-.322-.359-.309-.468.254-.455.678-.858 1.272-1.206l7.02-4.362c-.189-.089-2.298-.375-6.328-.858-.784-.095-1.421-.127-1.911-.097-.489.03-.932.131-1.329.305a8.969 8.969 0 01-.232-1.652 10.12 10.12 0 01.04-1.72c.799.34 2.32.644 4.564.913 1.699.204 3.014.295 3.945.274.955-.04 1.738-.211 2.348-.514.369.243.639.574.809.992.193.421.261.871.203 1.35a2.853 2.853 0 01-.686 1.575c-.384.44-1.031.948-1.939 1.524l-3.223 2c1.628.24 2.9.878 3.814 1.916.936 1.04 1.317 2.28 1.145 3.717-.209 1.743-1 2.996-2.373 3.76-1.349.744-3.233.97-5.651.68zm19.317 1.765a10.4 10.4 0 01.804-.53c.156-.082.271-.165.345-.247a.452.452 0 00.123-.267c.03-.346.046-.567.047-.663l.019-.22c.062-.706.128-1.256.2-1.65.071-.394.14-.636.208-.727l.007-.332-.06-.084.018-.209a1.67 1.67 0 00.026-.164c.035-.405-.123-.678-.475-.82-.344-.142-.501-.382-.472-.72.009-.103.123-.219.342-.348.22-.136.539-.293.955-.471.083-.356.173-.745.269-1.166.096-.421.207-.886.333-1.393a5.378 5.378 0 01-.046-.238.857.857 0 01-.007-.178 2.692 2.692 0 01.447-1.284c.075-.097.169-.2.283-.308.114-.116.251-.241.411-.375.128-.1.225-.188.291-.264.066-.083.102-.15.106-.201a.166.166 0 00-.065-.15c-.041-.041-.105-.065-.194-.073-.272-.024-.682.029-1.228.158-.546.123-.951.172-1.216.149a.47.47 0 01-.197-.05c-.035-.026-.05-.064-.045-.116.013-.147.031-.275.056-.384a.802.802 0 01.075-.227c.134-.084.238-.168.312-.25a.412.412 0 00.133-.255c.003-.037.044-.081.123-.134.087-.051.216-.092.39-.121a835.775 835.775 0 012.221-.427 9.48 9.48 0 011.202-.116 7.786 7.786 0 011.057.015c.037.003.11.02.219.052a.526.526 0 00.221.02c.149-.01.306-.021.471-.036a3.1 3.1 0 01.381.1c.211.055.505.137.881.244.083-.007.173-.018.271-.032.213.02.387.068.522.146a.81.81 0 01.318.306c.102.031.2.051.296.06.192.017.36.087.505.21.154.118.281.281.381.49.087.2.151.399.193.595.043.19.056.383.039.581-.034.39-.151.754-.352 1.092a3.103 3.103 0 01-.825.905 15.69 15.69 0 00-.577.35c-.337.207-.83.497-1.479.87a1.986 1.986 0 00-.249.167 3.21 3.21 0 01-.343.225c-.636.307-1.248.602-1.837.883a10.55 10.55 0 00-1.13.557c-.258.155-.391.27-.397.343a.535.535 0 00.153.413c.116.122.299.238.549.349.365.165.775.353 1.232.564.457.21.945.457 1.462.74.051.02.111.054.181.105l.253.167c.613.29 1.056.622 1.328.995.28.365.4.772.361 1.22-.057.655-.704 1.224-1.942 1.708-1.231.484-3.049.888-5.454 1.21a2.762 2.762 0 01-.16.296 8.62 8.62 0 00-.147.288.508.508 0 01-.238.168.692.692 0 01-.338.048.403.403 0 01-.319-.184c-.072-.103-.114-.262-.125-.478-.055-.057-.101-.083-.138-.079l-.645.11a7.765 7.765 0 00-.221-.142 5.522 5.522 0 01-.202-.117.541.541 0 01-.162-.181.32.32 0 01-.049-.205.221.221 0 01.08-.16c.055-.032.133-.073.234-.123zm3.851-4.93c-.118-.01-.231.084-.337.282-.098.191-.191.483-.277.876l-.186 1.106-.184 1.095c-.06.18-.114.372-.162.575l.013.112.084.052c.302-.055.638-.11 1.007-.167.25.022.4.013.448-.027.056-.047.677-.274 1.864-.68.505-.164.886-.323 1.145-.478.259-.162.395-.31.406-.442a.344.344 0 00-.079-.24 1.357 1.357 0 00-.279-.258 7.674 7.674 0 00-1.098-.697 11.6 11.6 0 00-1.339-.618 3.012 3.012 0 00-.226-.087 3.965 3.965 0 00-.269-.112 12.058 12.058 0 01-.36-.21.455.455 0 00-.171-.082zm2.866-8.083a2.917 2.917 0 00-.691.005c-.173.022-.3.074-.381.156-.065.053-.137.162-.218.325-.074.164-.161.39-.26.678a5.322 5.322 0 00-.113.534 9.294 9.294 0 00-.057.651 2.976 2.976 0 01-.297.463l.031.292c-.121.36-.209.648-.265.865a3.178 3.178 0 00-.094.437c-.01.11.006.19.046.237.04.048.101.076.182.083.074.006.254-.06.541-.197.294-.137.699-.346 1.213-.627l1.298-.697a8.69 8.69 0 01.526-.276l.306-.317.306-.318c.139-.143.243-.271.312-.384a.79.79 0 00.117-.323.746.746 0 00-.124-.489 1.348 1.348 0 00-.466-.408 6.937 6.937 0 00-1.09-.407 63.487 63.487 0 00-.561-.205 1.49 1.49 0 00-.261-.078zm13.631-.812c.162.014.276.076.34.185.065.11.089.264.072.462a9.4 9.4 0 01-.147 1.043 3.99 3.99 0 01-.241.846c-.138.307-.272.61-.402.91-.122.292-.249.593-.38.9a1.94 1.94 0 00-.246.267 8.18 8.18 0 01-.095.447.28.28 0 01-.102.158 1.964 1.964 0 01-.193.16 4.816 4.816 0 01-.111.258l-.163.33c-.224.358-.521.784-.891 1.278a51.83 51.83 0 01-1.317 1.684 5.082 5.082 0 00-.04.33l-.735 1.27a22.4 22.4 0 00-.684 1.328 9.2 9.2 0 00-.462 1.216l-.159.541a2.226 2.226 0 00-.059.295c-.007.074.028.192.103.354.075.155.112.25.108.287-.014.162-.249.353-.707.572-.45.22-.726.321-.829.305a14.226 14.226 0 00-.348-.098 4.041 4.041 0 01-.327-.084.886.886 0 01-.34-.186.273.273 0 01-.101-.242c.006-.074.044-.215.114-.423.095-.318.202-.605.321-.861.127-.263.274-.502.441-.717l.037-.042a.405.405 0 01-.046-.115.633.633 0 00-.031-.147 8.115 8.115 0 01.52-1.11 2.73 2.73 0 00.261-.444c.091-.192.177-.41.258-.655a3.711 3.711 0 01-.583-.73 2.21 2.21 0 01-.289-.77c-.048-.13-.112-.295-.191-.494a12.837 12.837 0 01-.248-.733l-.573-2.885a17.71 17.71 0 00-.031-.792 10.24 10.24 0 00-.097-1.065l.122-.244-.167-.26a1.81 1.81 0 00-.001-.244 5.334 5.334 0 00-.009-.401 4.977 4.977 0 01-.012-.38l.024-.275c.024-.272.083-.478.177-.618a.535.535 0 01.389-.243l.165.014a1.72 1.72 0 01.212.008c.088.007.367-.087.837-.282.207.018.368.087.484.209a.789.789 0 01.215.474 2.7 2.7 0 01.005.446c-.008.184-.024.405-.046.662a6.1 6.1 0 01-.098.603 7.985 7.985 0 00-.084.582 1.293 1.293 0 00-.002.155c.01.053.019.128.025.225a9.874 9.874 0 00-.001.9c.022.35.05.753.085 1.208.021.268.058.605.112 1.01l.19 1.395c.053.079.104.172.154.28.058.102.111.218.159.348l.074.05c.044.004.165-.152.364-.468.206-.322.49-.805.85-1.447.052-.085.114-.194.185-.329.072-.141.156-.304.254-.488.041-.041.087-.097.137-.166.051-.07.11-.154.178-.251.048-.122.117-.275.207-.46a19.3 19.3 0 01.337-.67 18.64 18.64 0 00.861-1.436c.011-.044.168-.27.472-.681.311-.418.756-1.012 1.336-1.783a.846.846 0 01.207-.204c.072-.053.137-.077.196-.072zm1.319 3.528l-.114-.732.171-.43c.058-.15.111-.297.161-.441a.454.454 0 01.241-.213.92.92 0 01.439-.05c.067.006.167 0 .303-.018.142-.017.243-.023.302-.018.066.006.15.066.252.178.102.113.174.179.217.197a1.1 1.1 0 00.204-.17c.089-.082.195-.191.318-.328.107-.11.207-.197.302-.263a.783.783 0 01.301-.129c.113.07.212.126.297.17.049.035.079.07.091.109a.309.309 0 01.02.157 1.228 1.228 0 01-.077.238c-.047.114-.116.271-.208.47-.1.214-.179.392-.236.535a3.205 3.205 0 00-.118.335 3.84 3.84 0 00-.306.44.915.915 0 00-.121.367c-.013.147.012.371.075.673.063.295.161.666.292 1.115.185.61.371 1.244.558 1.906.16.725.333 1.43.518 2.112.186.676.386 1.328.599 1.954.217.656.401 1.147.551 1.471.15.325.269.49.358.498.073.007.129-.03.165-.107.045-.085.075-.22.091-.404.006-.073.022-.168.047-.284a3.34 3.34 0 01.133-.378 7.73 7.73 0 00.247-.656c.107-.376.202-.705.286-.986.092-.281.169-.523.231-.725a8.17 8.17 0 00.172-.83c.074-.422.162-.996.262-1.721.006-.074.026-.176.06-.306.041-.13.08-.278.117-.446.044-.166.079-.308.104-.424.025-.124.042-.233.051-.329.014-.169.018-.42.01-.755a7.465 7.465 0 01.011-.766c.151-.453.294-.896.428-1.33.114-.374.219-.684.315-.927.096-.251.176-.44.239-.568.141-.255.304-.47.491-.646a2.32 2.32 0 01.606-.436l.088.008c.074.006.121.025.14.057.027.032.038.08.032.147a3.47 3.47 0 01-.13.344c.01.134.02.276.029.425a4.403 4.403 0 01-.117.457 6.51 6.51 0 00-.151.965c-.008.088-.036.278-.084.57a28.35 28.35 0 01-.222 1.148c-.105.687-.22 1.37-.346 2.048a206.9 206.9 0 01-.367 2.035 26.016 26.016 0 01-.451 2.238c-.17.667-.355 1.262-.557 1.785-.065.32-.167.675-.304 1.063a16.14 16.14 0 01-.489 1.257l-.391.521c-.024.028-.265.103-.721.226-.456.115-.71.17-.761.166-.111-.01-.264-.167-.461-.474-.195-.313-.418-.781-.668-1.403a42.042 42.042 0 01-.57-1.384c-.139-.368-.223-.642-.252-.823a4.163 4.163 0 00-.044-.26l-.069-.361a71.437 71.437 0 00-.459-1.252c-.179-.497-.388-1.086-.626-1.767a2.575 2.575 0 00-.158-.48 4.48 4.48 0 00-.234-.51l-.081.026a5.623 5.623 0 00-.203.538c-.07.216-.153.476-.246.779a4.635 4.635 0 01-.278.509c-.148.416-.314.869-.497 1.356l-.594 1.57a38.39 38.39 0 00-.185.585c-.062.202-.132.41-.21.626l-.231.346a18.85 18.85 0 01-.156.642c-.067.165-.151.365-.253.6-.095.23-.211.504-.351.825-.037.168-.103.288-.198.36a.48.48 0 01-.356.114.246.246 0 01-.096.08.623.623 0 01-.23.08c-.075.009-.126-.037-.155-.136a1.1 1.1 0 01-.021-.401c.009-.103.042-.264.098-.481.056-.217.136-.492.239-.824l.266-.877.136-.41c.045-.174.098-.402.16-.686.062-.284.131-.61.208-.982a7.41 7.41 0 01.097-.347c.05-.144.109-.31.177-.496.05-.144.158-.534.325-1.172.168-.644.391-1.54.669-2.686.291-1.123.576-2.254.853-3.393z" fill="#fff"/><path fill-rule="evenodd" clip-rule="evenodd" d="M95.372 50.375a.558.558 0 01-.622.486l-.555-.068a.559.559 0 11.133-1.107l.556.068a.559.559 0 01.488.62zm71.303 8.829a.558.558 0 01-.623.485l-.549-.068a.559.559 0 11.136-1.108l.549.068a.559.559 0 01.487.623zm-2.74-.34a.559.559 0 01-.623.486l-1.099-.136a.559.559 0 11.137-1.108l1.098.136a.559.559 0 01.487.623zm-3.289-.406a.559.559 0 01-.624.485l-1.098-.136a.56.56 0 11.137-1.108l1.098.136a.56.56 0 01.487.623zm-3.289-.408a.559.559 0 01-.624.486l-1.098-.136a.559.559 0 11.136-1.108l1.099.136a.56.56 0 01.487.622zm-3.289-.407a.559.559 0 01-.624.486l-1.098-.136a.559.559 0 11.136-1.108l1.098.136a.56.56 0 01.488.622zm-3.29-.407a.557.557 0 01-.623.485l-1.098-.136a.559.559 0 11.136-1.108l1.098.136a.559.559 0 01.487.623zm-3.289-.407a.557.557 0 01-.623.485l-1.098-.136a.559.559 0 11.136-1.108l1.098.136a.559.559 0 01.487.623zm-3.289-.407a.558.558 0 01-.623.485l-1.099-.136a.559.559 0 11.137-1.108l1.098.136a.559.559 0 01.487.623zm-3.289-.407a.558.558 0 01-.623.485l-1.099-.136a.559.559 0 11.137-1.108l1.098.136a.559.559 0 01.487.623zm-3.289-.408a.559.559 0 01-.624.486l-1.098-.136a.559.559 0 11.136-1.108l1.099.136a.56.56 0 01.487.622zm-3.289-.407a.559.559 0 01-.624.485l-1.098-.136a.559.559 0 11.136-1.107l1.099.136a.56.56 0 01.487.622zm-3.289-.407a.559.559 0 01-.624.485l-1.098-.136a.559.559 0 11.136-1.108l1.098.136a.56.56 0 01.488.623zm-3.29-.407a.557.557 0 01-.623.485l-1.098-.136a.559.559 0 11.136-1.108l1.098.136a.559.559 0 01.487.623zm-3.289-.407a.558.558 0 01-.623.485l-1.098-.136a.559.559 0 11.136-1.108l1.098.136a.559.559 0 01.487.623zm-3.289-.407a.558.558 0 01-.623.485l-1.099-.136a.559.559 0 11.137-1.108l1.098.136a.559.559 0 01.487.623zm-3.289-.408a.559.559 0 01-.624.486l-1.098-.136a.559.559 0 11.137-1.108l1.098.136a.56.56 0 01.487.622zm-3.289-.407a.559.559 0 01-.624.486l-1.098-.137a.559.559 0 11.136-1.107l1.099.136a.56.56 0 01.487.622zm-3.289-.407a.559.559 0 01-.624.485l-1.098-.136a.559.559 0 11.136-1.108l1.098.136a.56.56 0 01.488.623zm-3.29-.407a.557.557 0 01-.623.485l-1.098-.136a.559.559 0 11.136-1.108l1.098.136a.559.559 0 01.487.623zm-3.289-.407a.557.557 0 01-.623.485l-1.098-.136a.559.559 0 11.136-1.108l1.098.136a.559.559 0 01.487.623zm-3.289-.407a.558.558 0 01-.623.485l-1.099-.136a.558.558 0 11.136-1.108l1.099.136a.559.559 0 01.487.623zm-3.289-.408a.558.558 0 01-.624.486l-.549-.068a.558.558 0 11.136-1.108l.55.068a.56.56 0 01.487.622z" fill="#fff"/><path fill-rule="evenodd" clip-rule="evenodd" d="M168.346 59.41a.558.558 0 01-.622.487l-.555-.067a.558.558 0 11.134-1.108l.555.068a.56.56 0 01.488.62z" fill="#fff"/><path d="M99.578 74.118a8.392 8.392 0 01-2.533-.738 7.556 7.556 0 01-2.064-1.424c.058-.446.149-.841.272-1.188.123-.346.297-.709.522-1.087.356.703.864 1.29 1.523 1.761a5.26 5.26 0 002.257.838c1.321.172 2.416-.229 3.283-1.203.867-.974 1.478-2.3 1.832-3.975-1.471.828-2.934 1.147-4.39.957-1.398-.182-2.457-.875-3.176-2.079-.72-1.204-.963-2.697-.731-4.479.157-1.203.526-2.242 1.108-3.118.6-.873 1.355-1.51 2.265-1.913.931-.423 1.943-.563 3.034-.42 1.188.154 2.194.648 3.021 1.48.826.833 1.404 1.928 1.734 3.285.351 1.337.418 2.841.2 4.512-.415 3.185-1.314 5.526-2.697 7.022-1.38 1.474-3.2 2.064-5.46 1.77zm2.382-7.743c1.119-.217 2.124-.607 3.016-1.17.218-2.124.106-3.803-.337-5.04-.42-1.255-1.129-1.947-2.124-2.077-.881-.115-1.627.15-2.237.796-.607.623-.987 1.525-1.141 2.706-.174 1.336-.015 2.433.477 3.29.511.86 1.293 1.358 2.346 1.495zm13.51 9.815c-1.341-.175-2.472-.685-3.394-1.53-.919-.868-1.581-1.996-1.984-3.385-.384-1.387-.463-2.949-.236-4.687.238-1.826.785-3.409 1.641-4.747.878-1.358 1.982-2.358 3.312-3 1.33-.643 2.771-.863 4.322-.66 1.283.167 2.367.67 3.251 1.51.903.843 1.538 1.945 1.906 3.307.39 1.342.474 2.86.254 4.553-.244 1.871-.797 3.498-1.659 4.88-.843 1.386-1.911 2.414-3.206 3.083-1.292.647-2.694.872-4.207.675zm.753-2.417c1.436.187 2.665-.276 3.687-1.389 1.021-1.113 1.668-2.716 1.941-4.81.25-1.916.074-3.558-.526-4.928-.579-1.39-1.51-2.315-2.794-2.777-.938-.122-1.829.068-2.674.57-.844.501-1.555 1.247-2.132 2.236-.557.992-.923 2.157-1.098 3.493-.18 1.381-.157 2.63.067 3.747.244 1.119.663 2.012 1.258 2.678a3.63 3.63 0 002.271 1.18zm18.216-2.243c-.017.135.054.33.213.585.167.249.422.564.764.945.223.243.453.482.69.72.245.23.486.465.724.703.102.11.235.254.397.433.163.172.353.376.57.61.159.159.324.318.495.478.179.16.371.323.576.487.134.135.284.282.448.44.165.16.356.332.573.519.124.099.21.261.256.487.047.22.055.499.025.839l-.126.252-.108.037a.643.643 0 01-.262-.127 4.871 4.871 0 01-.384-.297 124.64 124.64 0 00-1.543-.985 5.674 5.674 0 01-.728-.508 6.226 6.226 0 01-.586-.572 4.274 4.274 0 00-.403-.392 9.824 9.824 0 00-.577-.478 7.806 7.806 0 01-.99-.872c-.327-.345-.595-.61-.804-.796-.21-.185-.359-.284-.447-.295a.572.572 0 00-.15.28 23.56 23.56 0 00-.421 1.172c-.15.469-.321 1.017-.513 1.646-.015.115-.047.197-.094.245a.207.207 0 01-.195.068c-.263-.034-.454-.125-.573-.27-.118-.147-.161-.349-.128-.606.045-.344.113-.704.203-1.077.096-.372.223-.762.379-1.168.058-.178.102-.337.134-.477.04-.147.068-.28.084-.402.04-.311-.06-.596-.302-.854-.234-.258-.345-.434-.333-.529.019-.148.056-.274.111-.377a.65.65 0 01.239-.248c.241-.113.465-.221.671-.325a.194.194 0 00.109-.12 1 1 0 00.066-.27l.028-.213.029-.223c.098-.6.197-1.222.295-1.87l.029-.223c.013-.102.024-.234.031-.398.003-.124.014-.236.034-.336.021-.108.037-.205.048-.293a8.02 8.02 0 00-.066-.36 1.13 1.13 0 01-.004-.289c.011-.081.034-.205.069-.373a4.92 4.92 0 00.069-.372c.013-.095.02-.228.022-.4.008-.17.018-.3.03-.388.031-.243.116-.47.253-.679.144-.208.345-.405.603-.592a2.61 2.61 0 01.735-.337c.25-.07.497-.09.74-.058.115.015.283.047.504.096.228.044.406.074.535.09.088.012.318.118.691.318.154.033.29.072.408.115a1.7 1.7 0 01.285.109c.158.103.282.184.37.244.09.053.154.086.194.098l.281.14a.71.71 0 01.2.129l.285.181.382.236c.228.153.436.325.624.514.196.19.376.393.54.607.185.272.316.533.393.784.079.244.103.48.073.71a3.249 3.249 0 01-.059.292 3.825 3.825 0 01-.105.41c-.046.193-.175.393-.387.599a5.09 5.09 0 01-.888.637 9.65 9.65 0 01-.93.488 3.44 3.44 0 01-.774.24 1.122 1.122 0 00-.226.145c-.076.06-.23.135-.463.229a18.6 18.6 0 01-.942.341c-.719.243-1.228.4-1.526.472-.297.064-.454.157-.47.28zm-.427-5.028c.14-.078.274-.153.4-.226a.687.687 0 01.465-.084c.081.01.168.115.259.312.099.192.142.332.131.42a2.237 2.237 0 01-.093.317c-.056.165-.14.388-.252.67-.241.635-.383 1.036-.425 1.202-.042.16-.119.411-.233.754-.038.084-.08.196-.126.334-.008.061-.003.107.013.136a.14.14 0 00.096.054c1.434-.5 2.177-.762 2.228-.783.055-.006.115-.016.179-.028.064-.019.125-.039.183-.059l.177-.172c.425-.2.865-.414 1.322-.643a2.58 2.58 0 00.666-.522c.154-.18.244-.367.269-.563.033-.25-.08-.516-.339-.798-.259-.28-.665-.571-1.218-.87a8.754 8.754 0 00-1.293-.602 4.964 4.964 0 00-1.087-.286c-.433-.056-.771-.021-1.015.105-.236.12-.373.33-.412.627-.03.23-.036.408-.018.534.019.12.06.177.123.171zm7.702 6.915a3.54 3.54 0 00-.014-.683 3.542 3.542 0 01-.012-.703c.012-.088.036-.222.073-.403.045-.187.074-.324.085-.412.033-.25.065-.628.096-1.132.039-.511.075-.892.107-1.142.055-.42.149-.957.283-1.613.134-.657.303-1.426.507-2.307.083-.32.186-.557.309-.713.131-.155.284-.22.46-.198.06.008.113.056.156.144.05.09.099.22.145.39.136.17.274.325.414.467.108.124.181.271.221.442.041.163.047.353.019.57-.026.195-.107.47-.242.824-.128.348-.204.613-.228.796a8.362 8.362 0 01-.156.887 2.262 2.262 0 01-.173.535l-.154.31c0 .206-.002.436-.008.69-.07.383-.136.783-.197 1.202a8.485 8.485 0 00-.066 1.291c.012.442.046.89.104 1.344.085.617.222 1.092.412 1.426.198.328.443.511.733.55a.818.818 0 00.419-.05c.139-.057.275-.153.409-.286.104-.11.205-.225.303-.343.098-.117.195-.232.292-.343.102-.097.214-.22.337-.369.123-.156.261-.34.413-.555.167-.39.349-.783.545-1.177.196-.394.392-.791.589-1.192l.199-.5c.082-.21.169-.45.259-.72.172-.32.359-.775.559-1.36.207-.586.444-1.297.711-2.136.072-.128.159-.292.261-.492.108-.2.231-.43.369-.695.04-.098.111-.25.214-.457.102-.207.243-.467.421-.78a.647.647 0 01.342-.327.995.995 0 01.545-.064c.128.017.209.114.241.29.039.17.037.424-.007.762-.084.643-.267 1.42-.551 2.332a30.93 30.93 0 01-1.156 3.089c-.034.105-.086.24-.156.402-.061.157-.136.337-.224.538-.024.128-.06.275-.109.44a10 10 0 01-.166.556c-.157.365-.301.759-.432 1.182-.124.424-.237.867-.338 1.328a1.8 1.8 0 01-.08.299 8.95 8.95 0 01-.155.475 4.22 4.22 0 00-.222.91c-.003.185-.006.36-.007.525.076.106.13.196.161.269.04.067.057.12.052.16a1.56 1.56 0 01-.265.369c-.113.13-.258.265-.435.407-.186.162-.363.28-.531.354a.842.842 0 01-.444.087c-.122-.016-.231-.106-.326-.27-.095-.17-.133-.323-.116-.459l.011-.08a1.71 1.71 0 00.101-.225.19.19 0 00-.017-.105 1.789 1.789 0 01-.021-.158l.081-.144c.036-.064.073-.138.112-.222l-.035-.129a1.118 1.118 0 00-.049-.181c.019-.04.039-.085.059-.137.022-.06.052-.131.09-.215.007-.055.009-.123.006-.206l.057-.199a57.9 57.9 0 01.096-.338c.042-.112.075-.204.098-.276a.81.81 0 00.054-.179.295.295 0 00-.013-.136c-.009-.042-.025-.072-.051-.089-.042.008-.106.052-.192.13a3.21 3.21 0 00-.281.335 6.967 6.967 0 01-.342.409l-.181.203-.059.137a11.83 11.83 0 01-.569.565 4.472 4.472 0 01-.37.303 2.251 2.251 0 01-.507.254 3.037 3.037 0 01-.671.16 2.45 2.45 0 00-.368.055 2.109 2.109 0 01-.667-.19.992.992 0 01-.409-.342 4.895 4.895 0 01-.713-1.733 6.202 6.202 0 01-.045-2.028zm8.814 5.904a10.535 10.535 0 01.761-.458c.147-.07.256-.142.327-.215a.421.421 0 00.125-.242c.041-.318.064-.52.069-.61l.026-.203c.085-.649.168-1.154.249-1.514.082-.361.155-.582.221-.663l.019-.307-.051-.079.025-.192c.014-.06.024-.11.03-.151.048-.372-.087-.63-.405-.775-.311-.144-.447-.371-.406-.682.012-.095.122-.198.329-.308.208-.118.507-.25.898-.399.09-.325.188-.68.293-1.066.106-.385.226-.81.362-1.273a6.176 6.176 0 01-.033-.22.815.815 0 01.001-.166 2.452 2.452 0 01.462-1.167c.073-.087.164-.178.273-.274a4.98 4.98 0 01.393-.33c.122-.088.214-.165.278-.233.065-.074.1-.134.106-.182a.153.153 0 00-.053-.14c-.037-.04-.095-.065-.176-.075-.251-.033-.63 0-1.138.1-.507.091-.882.121-1.126.09a.424.424 0 01-.178-.055c-.031-.024-.044-.06-.038-.108.018-.135.04-.252.067-.352a.784.784 0 01.078-.206 1.33 1.33 0 00.297-.22.382.382 0 00.133-.23c.005-.034.044-.073.119-.118.081-.045.202-.077.363-.098a189.57 189.57 0 001.473-.22l.589-.089a8.731 8.731 0 011.112-.061c.351-.002.676.016.973.055.034.004.1.023.199.056.1.027.167.036.203.027.138-.003.283-.008.435-.016.041.006.156.041.347.108.192.059.459.145.802.259.076-.004.16-.01.25-.02.196.026.355.078.475.155a.753.753 0 01.282.295c.092.033.182.055.269.066a.806.806 0 01.457.215c.137.114.247.269.332.466a3 3 0 01.154.556c.032.176.036.356.013.538-.047.359-.169.69-.367.994a2.893 2.893 0 01-.796.804 14.73 14.73 0 00-.545.3c-.319.18-.785.428-1.397.747a1.8 1.8 0 00-.235.145c-.091.064-.2.129-.325.195-.598.259-1.173.507-1.727.744-.464.18-.818.337-1.062.47-.244.134-.371.234-.38.302a.498.498 0 00.125.388c.102.116.266.23.492.342.329.167.7.356 1.112.568.413.212.852.459 1.317.74.046.019.1.053.162.103l.226.163c.554.293.948.616 1.184.97.244.348.339.728.285 1.14-.079.602-.697 1.103-1.857 1.502-1.152.4-2.842.702-5.07.907-.046.09-.099.18-.158.268-.053.09-.102.176-.148.26a.467.467 0 01-.225.146.64.64 0 01-.314.031.369.369 0 01-.285-.181c-.063-.098-.095-.247-.097-.446-.048-.055-.089-.08-.124-.078l-.598.076a7.076 7.076 0 00-.198-.139 4 4 0 01-.181-.116.503.503 0 01-.143-.174.301.301 0 01-.037-.19.208.208 0 01.081-.144c.052-.028.125-.063.22-.106zm3.741-4.402c-.109-.014-.216.068-.321.247-.099.173-.195.439-.29.798l-.215 1.014-.213 1.004c-.063.163-.12.338-.172.524l.008.104.075.051c.281-.039.592-.078.934-.116.23.03.367.028.413-.008.054-.04.635-.226 1.744-.556.471-.131.829-.264 1.073-.397.245-.14.376-.27.392-.392a.322.322 0 00-.064-.225 1.255 1.255 0 00-.246-.25 7.016 7.016 0 00-.984-.684 10.668 10.668 0 00-1.413-.71 3.953 3.953 0 00-.243-.115c-.14-.087-.248-.156-.324-.207a.405.405 0 00-.154-.082zm2.959-7.351a2.686 2.686 0 00-.637-.022c-.16.014-.279.057-.357.13-.061.046-.132.144-.213.291a7.664 7.664 0 00-.266.615 4.58 4.58 0 00-.126.49 8.352 8.352 0 00-.078.598 2.718 2.718 0 01-.291.416l.016.27c-.125.328-.218.59-.278.79a3.067 3.067 0 00-.104.398c-.013.102-.002.176.033.222a.24.24 0 00.165.083c.067.009.236-.045.506-.161.276-.115.657-.293 1.142-.532l1.222-.594c.287-.141.452-.22.495-.235l.295-.281c.102-.097.2-.19.294-.282a2.11 2.11 0 00.303-.342.73.73 0 00.12-.293.684.684 0 00-.095-.457 1.242 1.242 0 00-.413-.394 6.353 6.353 0 00-.987-.418 62.77 62.77 0 00-.509-.21 1.369 1.369 0 00-.237-.082z" fill="#fff"/></g><defs><linearGradient id="paint2_linear" x1="53.41" y1="152.17" x2="53.41" y2="106.581" gradientUnits="userSpaceOnUse"><stop stop-color="#fff"/><stop offset="1" stop-color="#fff"/></linearGradient><linearGradient id="paint4_linear" x1="57.166" y1="140.447" x2="57.166" y2="116.547" gradientUnits="userSpaceOnUse"><stop offset=".33" stop-color="#D8D8D8"/><stop offset="1" stop-color="#B5B5B5"/></linearGradient><linearGradient id="paint7_linear" x1="81.059" y1="120.896" x2="75.894" y2="128.587" gradientUnits="userSpaceOnUse"><stop offset=".24" stop-color="#B6AAA0"/><stop offset=".27" stop-color="#BBB0A7"/><stop offset=".48" stop-color="#DCD5D1"/><stop offset=".64" stop-color="#F0ECEA"/><stop offset=".73" stop-color="#F7F5F4"/></linearGradient><linearGradient id="paint8_linear" x1="20.069" y1="111.719" x2="89.869" y2="105.935" gradientUnits="userSpaceOnUse"><stop stop-color="#FEFEFE"/><stop offset=".01" stop-color="#E8E4E1"/><stop offset=".02" stop-color="#D6CFC9"/><stop offset=".03" stop-color="#C7BEB7"/><stop offset=".05" stop-color="#BDB3AA"/><stop offset=".06" stop-color="#B8ACA2"/><stop offset=".1" stop-color="#B6AAA0"/><stop offset=".21" stop-color="#D2CBC5"/><stop offset=".68" stop-color="#F7F5F4"/><stop offset="1" stop-color="#E1DCD8"/></linearGradient><linearGradient id="paint9_linear" x1="67.413" y1="110.546" x2="83.869" y2="116.712" gradientUnits="userSpaceOnUse"><stop stop-color="#fff"/><stop offset=".22" stop-color="#F9F8F7"/><stop offset=".56" stop-color="#E9E4E1"/><stop offset=".89" stop-color="#D5CBC5"/><stop offset=".98" stop-color="#D5CBC5"/></linearGradient><linearGradient id="paint10_linear" x1="84.527" y1="110.589" x2="80.909" y2="119.649" gradientUnits="userSpaceOnUse"><stop offset=".11" stop-color="#D5CBC5"/><stop offset=".44" stop-color="#E9E4E1"/><stop offset=".78" stop-color="#F9F8F7"/><stop offset="1" stop-color="#fff"/></linearGradient><linearGradient id="paint11_linear" x1="54.941" y1="108.244" x2="54.941" y2="81.714" gradientUnits="userSpaceOnUse"><stop stop-color="#F2F2F2"/><stop offset=".24" stop-color="#E5E4E4"/><stop offset=".69" stop-color="#C3BFBE"/><stop offset="1" stop-color="#A9A2A0"/></linearGradient><linearGradient id="paint12_linear" x1="22.146" y1="94.708" x2="87.731" y2="94.708" gradientUnits="userSpaceOnUse"><stop stop-color="#B6ADA4"/><stop offset=".13" stop-color="#C9C3BD"/><stop offset=".39" stop-color="#F6F6F6"/><stop offset=".47" stop-color="#F2F2F2"/><stop offset=".55" stop-color="#E5E5E5"/><stop offset=".56" stop-color="#E2E2E2"/><stop offset=".68" stop-color="#DAD8D5"/><stop offset=".79" stop-color="#D7D3CF"/><stop offset=".84" stop-color="#C1B9B2"/><stop offset=".9" stop-color="#B1A79D"/><stop offset=".95" stop-color="#A79C91"/><stop offset="1" stop-color="#A4988D"/></linearGradient><linearGradient id="paint13_linear" x1="77.834" y1="118.787" x2="105.806" y2="118.787" gradientUnits="userSpaceOnUse"><stop offset=".02" stop-color="#D5CBC5"/><stop offset=".11" stop-color="#D5CBC5"/><stop offset=".44" stop-color="#E9E4E1"/><stop offset=".78" stop-color="#F9F8F7"/><stop offset="1" stop-color="#fff"/></linearGradient><linearGradient id="paint14_linear" x1="90.368" y1="123.446" x2="90.368" y2="132.195" gradientUnits="userSpaceOnUse"><stop offset=".385" stop-color="#361F00" stop-opacity="0"/><stop offset="1" stop-color="#563408" stop-opacity=".43"/></linearGradient><linearGradient id="paint15_linear" x1="81.106" y1="114.064" x2="84.285" y2="109.672" gradientUnits="userSpaceOnUse"><stop stop-color="#5A380B"/><stop offset="1" stop-color="#5A380B" stop-opacity="0"/></linearGradient><linearGradient id="paint16_linear" x1="80.391" y1="119.482" x2="94.846" y2="127.668" gradientUnits="userSpaceOnUse"><stop stop-color="#CECAC7"/><stop offset=".28" stop-color="#F0EEED"/><stop offset=".45" stop-color="#ECEAE9"/><stop offset=".64" stop-color="#E1DEDC"/><stop offset=".83" stop-color="#CFCAC7"/><stop offset="1" stop-color="#B8B2AE"/></linearGradient><linearGradient id="paint17_linear" x1="71.496" y1="108.389" x2="71.114" y2="123.658" gradientUnits="userSpaceOnUse"><stop stop-color="#fff"/><stop offset=".06" stop-color="#ECECEC"/><stop offset=".33" stop-color="#999"/><stop offset=".57" stop-color="#575757"/><stop offset=".76" stop-color="#282828"/><stop offset=".91" stop-color="#0B0B0B"/><stop offset="1"/></linearGradient><linearGradient id="paint18_linear" x1="349.233" y1="1492.62" x2="263.919" y2="1909.54" gradientUnits="userSpaceOnUse"><stop stop-color="#fff"/><stop offset=".06" stop-color="#ECECEC"/><stop offset=".33" stop-color="#999"/><stop offset=".57" stop-color="#575757"/><stop offset=".76" stop-color="#282828"/><stop offset=".91" stop-color="#0B0B0B"/><stop offset="1"/></linearGradient><linearGradient id="paint19_linear" x1="101.096" y1="128.727" x2="91.305" y2="105.772" gradientUnits="userSpaceOnUse"><stop stop-color="#4A2F0A" stop-opacity=".5"/><stop offset="1" stop-color="#4A2F0A" stop-opacity="0"/></linearGradient><linearGradient id="paint20_linear" x1="120.006" y1="7.817" x2="162.046" y2="112.797" gradientUnits="userSpaceOnUse"><stop stop-color="#E20613"/><stop offset=".31" stop-color="#CF0B14"/><stop offset=".93" stop-color="#9F1815"/><stop offset="1" stop-color="#991915"/></linearGradient><filter id="filter0_f" x=".637" y="116.356" width="110.511" height="43.738" filterUnits="userSpaceOnUse" color-interpolation-filters="sRGB"><feFlood flood-opacity="0" result="BackgroundImageFix"/><feBlend in="SourceGraphic" in2="BackgroundImageFix" result="shape"/><feGaussianBlur stdDeviation="4" result="effect1_foregroundBlur"/></filter><filter id="filter1_f" x="67.497" y="120.243" width="41.197" height="24.923" filterUnits="userSpaceOnUse" color-interpolation-filters="sRGB"><feFlood flood-opacity="0" result="BackgroundImageFix"/><feBlend in="SourceGraphic" in2="BackgroundImageFix" result="shape"/><feGaussianBlur stdDeviation="4" result="effect1_foregroundBlur"/></filter><filter id="filter2_f" x="57.845" y="104.199" width="45.586" height="35.37" filterUnits="userSpaceOnUse" color-interpolation-filters="sRGB"><feFlood flood-opacity="0" result="BackgroundImageFix"/><feBlend in="SourceGraphic" in2="BackgroundImageFix" result="shape"/><feGaussianBlur stdDeviation="2" result="effect1_foregroundBlur"/></filter><filter id="filter3_f" x="75.153" y="119.446" width="30.429" height="16.748" filterUnits="userSpaceOnUse" color-interpolation-filters="sRGB"><feFlood flood-opacity="0" result="BackgroundImageFix"/><feBlend in="SourceGraphic" in2="BackgroundImageFix" result="shape"/><feGaussianBlur stdDeviation="2" result="effect1_foregroundBlur"/></filter><filter id="filter4_f" x="77.106" y="103.71" width="11.901" height="16.299" filterUnits="userSpaceOnUse" color-interpolation-filters="sRGB"><feFlood flood-opacity="0" result="BackgroundImageFix"/><feBlend in="SourceGraphic" in2="BackgroundImageFix" result="shape"/><feGaussianBlur stdDeviation="2" result="effect1_foregroundBlur"/></filter><filter id="filter5_f" x="20.107" y="79.807" width="70.799" height="28.438" filterUnits="userSpaceOnUse" color-interpolation-filters="sRGB"><feFlood flood-opacity="0" result="BackgroundImageFix"/><feBlend in="SourceGraphic" in2="BackgroundImageFix" result="shape"/><feGaussianBlur stdDeviation="1" result="effect1_foregroundBlur"/></filter><filter id="filter6_f" x="20.545" y="79.273" width="69.923" height="30.483" filterUnits="userSpaceOnUse" color-interpolation-filters="sRGB"><feFlood flood-opacity="0" result="BackgroundImageFix"/><feBlend in="SourceGraphic" in2="BackgroundImageFix" result="shape"/><feGaussianBlur stdDeviation="2" result="effect1_foregroundBlur"/></filter><filter id="filter7_f" x="25.906" y="81.717" width="59.196" height="25.595" filterUnits="userSpaceOnUse" color-interpolation-filters="sRGB"><feFlood flood-opacity="0" result="BackgroundImageFix"/><feBlend in="SourceGraphic" in2="BackgroundImageFix" result="shape"/><feGaussianBlur stdDeviation="2" result="effect1_foregroundBlur"/></filter><filter id="filter8_f" x="30.297" y="84.159" width="50.42" height="20.707" filterUnits="userSpaceOnUse" color-interpolation-filters="sRGB"><feFlood flood-opacity="0" result="BackgroundImageFix"/><feBlend in="SourceGraphic" in2="BackgroundImageFix" result="shape"/><feGaussianBlur stdDeviation="2" result="effect1_foregroundBlur"/></filter><filter id="filter9_f" x="89.588" y="103.011" width="18.767" height="29.858" filterUnits="userSpaceOnUse" color-interpolation-filters="sRGB"><feFlood flood-opacity="0" result="BackgroundImageFix"/><feBlend in="SourceGraphic" in2="BackgroundImageFix" result="shape"/><feGaussianBlur stdDeviation="1" result="effect1_foregroundBlur"/></filter><filter id="filter10_f" x="10.67" y="87.003" width="88.037" height="30.265" filterUnits="userSpaceOnUse" color-interpolation-filters="sRGB"><feFlood flood-opacity="0" result="BackgroundImageFix"/><feBlend in="SourceGraphic" in2="BackgroundImageFix" result="shape"/><feGaussianBlur stdDeviation="4" result="effect1_foregroundBlur"/></filter><filter id="filter11_d" x="78.645" y="15.286" width="124.11" height="90.963" filterUnits="userSpaceOnUse" color-interpolation-filters="sRGB"><feFlood flood-opacity="0" result="BackgroundImageFix"/><feColorMatrix in="SourceAlpha" values="0 0 0 0 0 0 0 0 0 0 0 0 0 0 0 0 0 0 127 0"/><feOffset dx="3" dy="3"/><feGaussianBlur stdDeviation="2"/><feColorMatrix values="0 0 0 0 0 0 0 0 0 0 0 0 0 0 0 0 0 0 0.5 0"/><feBlend in2="BackgroundImageFix" result="effect1_dropShadow"/><feBlend in="SourceGraphic" in2="effect1_dropShadow" result="shape"/></filter><radialGradient id="paint0_radial" cx="0" cy="0" r="1" gradientUnits="userSpaceOnUse" gradientTransform="matrix(34.9208 0 0 50.056 55.413 128.589)"><stop offset=".01" stop-color="#F0F0F0"/><stop offset="1" stop-color="#C7C7C7"/></radialGradient><radialGradient id="paint1_radial" cx="0" cy="0" r="1" gradientUnits="userSpaceOnUse" gradientTransform="matrix(44.5387 0 0 20.6634 58.451 133.796)"><stop offset=".12" stop-color="#1C0B05"/><stop offset=".21" stop-color="#20100A"/><stop offset=".32" stop-color="#2D1E18"/><stop offset=".44" stop-color="#433530"/><stop offset=".56" stop-color="#615550"/><stop offset=".69" stop-color="#877E7B"/><stop offset=".83" stop-color="#B6B1AF"/><stop offset=".96" stop-color="#ECEBEB"/><stop offset="1" stop-color="#fff"/></radialGradient><radialGradient id="paint3_radial" cx="0" cy="0" r="1" gradientUnits="userSpaceOnUse" gradientTransform="matrix(48.9803 0 0 23.5667 53.41 128.407)"><stop offset=".82" stop-color="#fff"/><stop offset=".88" stop-color="#F8F7F7"/><stop offset=".98" stop-color="#E4E2E1"/><stop offset="1" stop-color="#E0DDDC"/></radialGradient><radialGradient id="paint5_radial" cx="0" cy="0" r="1" gradientUnits="userSpaceOnUse" gradientTransform="matrix(21.8261 0 0 9.89013 57.314 126.471)"><stop offset=".51" stop-color="#1C0B05"/><stop offset=".56" stop-color="#2A1A14"/><stop offset=".65" stop-color="#4D403B"/><stop offset=".77" stop-color="#877E7B"/><stop offset=".92" stop-color="#D5D2D1"/><stop offset="1" stop-color="#fff"/></radialGradient><radialGradient id="paint6_radial" cx="0" cy="0" r="1" gradientUnits="userSpaceOnUse" gradientTransform="matrix(32.2586 0 0 16.8145 56.545 120.526)"><stop stop-color="#fff"/><stop offset=".23" stop-color="#FCFCFB"/><stop offset=".43" stop-color="#F5F2F1"/><stop offset=".62" stop-color="#E7E2DE"/><stop offset=".8" stop-color="#D5CBC5"/><stop offset=".99" stop-color="#BDAEA4"/><stop offset="1" stop-color="#BBABA1"/></radialGradient><clipPath id="clip0"><path fill="#fff" transform="rotate(9.217 37.874 469.855) skewX(.033)" d="M0 0h133.742v104.928H0z"/></clipPath></defs></svg>