<svg width="263" height="175" fill="none" xmlns="http://www.w3.org/2000/svg"><path d="M161.034 107.074c-6.302-19.228-40.799-30.431-78.472-30.431-32.725 0-72.16 11.194-78.471 30.431-7.483 22.907 26.747 49.509 78.471 49.509 51.724 0 85.988-26.602 78.472-49.509z" fill="url(#paint0_radial)"/><path style="mix-blend-mode:multiply" d="M81.98 175c45.277 0 81.981-20.657 81.981-46.14 0-25.482-36.704-46.14-81.98-46.14C36.703 82.72 0 103.379 0 128.86 0 154.343 36.704 175 81.98 175z" fill="url(#paint1_radial)"/><path d="M82.562 154.693c-41.489 0-68.91-16.402-76.842-31.643-2.677-5.158-3.242-10.216-1.663-15.048 2.819-8.594 12.38-16.578 26.914-22.48 14.534-5.903 32.942-9.197 51.591-9.197s36.974 3.27 51.591 9.197c14.617 5.927 24.112 13.886 26.922 22.48 1.572 4.807 1.015 9.865-1.662 15.048-7.932 15.241-35.362 31.643-76.85 31.643z" fill="url(#paint2_linear)"/><path d="M82.562 152.938c-40.109 0-66.624-15.885-74.29-30.599-2.585-5.016-3.134-9.873-1.604-14.521 2.719-8.31 11.964-16.026 26.016-21.736 14.051-5.71 31.852-8.896 49.886-8.896 18.034 0 35.752 3.16 49.887 8.896 14.134 5.735 23.28 13.376 26.024 21.736 1.522 4.648.981 9.53-1.613 14.521-7.674 14.739-34.189 30.599-74.306 30.599z" fill="url(#paint3_radial)"/><g filter="url(#filter0_f)"><path d="M5.365 109.453c-1.572 4.655-1.008 9.519 1.65 14.543 7.878 14.735 35.126 30.643 76.346 30.643 41.227 0 68.476-15.882 76.363-30.643 2.665-4.999 3.221-9.888 1.657-14.543" stroke="#fff" stroke-width="2"/></g><path opacity=".22" d="M131.135 111.806c-3.882-9.564-25.392-16.26-48.572-16.26-23.181 0-44.69 6.687-48.565 16.26-4.623 11.386 16.704 24.637 48.565 24.637 31.86 0 53.195-13.251 48.572-24.637z" fill="url(#paint4_linear)"/><g filter="url(#filter1_f)" opacity=".34"><path d="M152.138 130.173c-7.317 3.01-26.607-5.434-35.337-10.032l3.326-4.598 39.494 6.688c.554 1.393-.167 4.932-7.483 7.942z" fill="#341E01" fill-opacity=".6"/></g><g filter="url(#filter2_f)" opacity=".34"><path d="M155.048 101.33c17.46 11.287-59.864 26.753-61.527 26.753l19.123-46.817 30.763 2.09 14.135 9.614-2.494 8.36z" fill="#2B1800" fill-opacity=".7"/></g><path style="mix-blend-mode:multiply" d="M81.747 142.479c27.626 0 50.02-12.311 50.02-27.496 0-15.186-22.394-27.497-50.02-27.497-27.625 0-50.02 12.31-50.02 27.497 0 15.185 22.395 27.496 50.02 27.496z" fill="url(#paint5_radial)"/><path d="M141.462 58.694s0 18.568-4.099 33.691c0 0-9.578 17.414-22.341 26.585 0 0-12.006 9.932-33.258 9.932a60.14 60.14 0 01-33.258-9.932c-12.762-9.196-22.332-26.585-22.332-26.585-4.14-15.165-4.14-33.691-4.14-33.691" fill="url(#paint6_radial)"/><path style="mix-blend-mode:multiply" d="M132.964 99.374s-10.75 3.745-12.18 5.459c0 0-3.326 7.315-4.016 12.766 6.768-5.4 12.505-12.807 16.196-18.225z" fill="url(#paint7_linear)"/><path d="M81.748 110.527c25.292 0 47.708-7.282 55.615-18.184 4.099-15.132 4.099-33.65 4.099-33.65H22.033s0 18.56 4.1 33.684c7.599 10.86 30.322 18.15 55.615 18.15z" fill="url(#paint8_linear)"/><path style="mix-blend-mode:multiply" opacity=".3" d="M133.896 79.093s-1.364-6.613-13.37-6.764c-12.006-.15-15.481 9.94-15.481 18.133 0 7.432 1.779 19.413 11.923 20.976 10.143 1.563 20.245-9.422 15.622-11.27a8.274 8.274 0 00-7.907 1.33c-2.444 2.132-9.511 6.353-9.511-8.787 0-7.633 3.101-11.704 6.061-11.612 2.303.084 4.523 2.684 5.113 8.093 0 0 3.858 2.349 6.244-.627 2.387-2.977 1.306-9.472 1.306-9.472z" fill="url(#paint9_linear)"/><path style="mix-blend-mode:multiply" opacity=".4" d="M126.687 86.809a55.237 55.237 0 00-5.313 15.123 77.027 77.027 0 0010.983-5.434 34.94 34.94 0 003.093-5.986c.89-3.093-8.763-3.703-8.763-3.703z" fill="url(#paint10_linear)"/><path d="M81.748 81.341c32.979 0 59.714-10.158 59.714-22.689s-26.735-22.69-59.714-22.69c-32.98 0-59.715 10.159-59.715 22.69s26.735 22.69 59.715 22.69z" fill="url(#paint11_linear)"/><path d="M81.748 79.435c30.88 0 55.914-9.511 55.914-21.244 0-11.732-25.034-21.243-55.914-21.243-30.881 0-55.915 9.511-55.915 21.243 0 11.733 25.034 21.244 55.915 21.244z" fill="url(#paint12_linear)"/><path d="M128.392 94.316a3.753 3.753 0 01-1.949-1.56 3.793 3.793 0 01-.546-2.444 15.068 15.068 0 015.322-9.882c2.66-2.324 7.349-3.745 12.521-3.745 12.763 0 24.744 9.731 24.744 24.077 0 9.84-7.367 16.486-11.491 18.911-2.444 1.446-6.651 2.508-11.332 2.508-12.838 0-20.969-9.33-24.112-13.811a3.978 3.978 0 01.158-4.832 18.882 18.882 0 013.766-3.47 10.69 10.69 0 017.608-1.956s2.37 6.972 8.589 9.046c8.314 2.783 13.403 0 13.403 0s3.591-14.213-10.809-17.557c-10.293-2.382-7.708 7.324-15.798 4.799l-.074-.084z" fill="url(#paint13_linear)"/><g filter="url(#filter3_f)"><path d="M146.733 122.231c-9.977 1.003-19.954-7.664-23.696-12.122 3.658 3.678 9.04 7.233 15.798 7.106 6.678-.126 12.055-1.672 16.213-9.614.929-1.776 4.711 6.27 6.236 8.36-.693 1.672-4.573 5.267-14.551 6.27z" fill="url(#paint14_linear)"/></g><g filter="url(#filter4_f)"><path d="M126.935 92.756a3.752 3.752 0 001.948 1.56l.075.084c.746.41 3.015.171 4.056 0l-1.304-13.97a15.071 15.071 0 00-5.321 9.882 3.78 3.78 0 00.546 2.444z" fill="url(#paint15_linear)" fill-opacity=".28"/></g><path d="M155.048 107.04s.083-.484.158-1.354a20.758 20.758 0 000-3.561 15.095 15.095 0 00-1.223-4.799 11.588 11.588 0 00-1.413-2.383 10.663 10.663 0 00-1.979-2.04 15.35 15.35 0 00-4.989-2.633c-.831-.27-1.678-.49-2.536-.66a10.275 10.275 0 00-2.311-.21 6.379 6.379 0 00-3.326.954c-.357.225-.632.426-.831.568l-.275.226.242-.26c.236-.24.489-.463.756-.668a6.333 6.333 0 013.384-1.288 11.05 11.05 0 012.445.076c.897.118 1.783.306 2.652.56a16.72 16.72 0 012.719 1.053c.913.459 1.772 1.02 2.561 1.672a12.001 12.001 0 013.533 4.782c.637 1.615.983 3.33 1.023 5.066a17.487 17.487 0 01-.274 3.612c-.079.435-.184.865-.316 1.287z" fill="#fff"/><path d="M155.048 107.04s-5.089 2.818-13.403 0c-6.22-2.073-8.589-9.045-8.589-9.045a10.69 10.69 0 00-7.608 1.956 18.688 18.688 0 00-4.099 3.896c1.979 4.289 5.579 9.146 11.233 11.286 13.735 5.242 21.526-4.155 22.466-8.093z" fill="url(#paint16_linear)"/><path d="M121.374 103.88s.308.602.906 1.614c.3.501.682 1.112 1.156 1.772a42.774 42.774 0 001.663 2.149 21.1 21.1 0 002.295 2.249 19.512 19.512 0 002.926 2.031c.27.16.547.305.832.435.27.145.548.276.831.393.291.108.599.259.873.342l.94.293c1.247.415 2.526.722 3.824.92l1.963.2h1.945c.64 0 1.281-.159 1.913-.225.631-.067 1.213-.301 1.82-.435s1.139-.426 1.663-.619c.524-.192 1.065-.501 1.563-.769.499-.267.965-.577 1.397-.886a17.35 17.35 0 001.222-.953 18.662 18.662 0 001.904-1.931c.25-.326.499-.619.699-.903l.524-.836c.222-.394.419-.802.59-1.221l.166-.46-.124.469a8.34 8.34 0 01-.491 1.287l-.474.836c-.183.309-.416.619-.64.97-.549.75-1.164 1.45-1.838 2.09-.365.359-.831.677-1.222 1.036-.391.36-.923.636-1.405.979-.482.342-1.048.568-1.588.836-.54.267-1.164.468-1.771.677-.607.209-1.247.351-1.896.485-.648.133-1.313.209-1.987.267-.673.059-1.355.05-2.037.042l-2.045-.176a25.38 25.38 0 01-3.941-1.003l-.94-.309c-.349-.109-.623-.259-.939-.385-.316-.125-.599-.276-.89-.418a7.888 7.888 0 01-.831-.468 19.243 19.243 0 01-5.23-4.606 23.762 23.762 0 01-2.628-4.18 15.918 15.918 0 01-.573-1.246l-.125-.343z" fill="#fff"/><path style="mix-blend-mode:screen" d="M105.069 106.238a103.103 103.103 0 008.148-1.772l1.123-25.373-8.63 2.123-.641 25.022z" fill="url(#paint17_linear)"/><path style="mix-blend-mode:screen" d="M101.544 106.815l1.971-.31 1.097-25.164-2.494.602-.574 24.872z" fill="url(#paint18_linear)"/><g filter="url(#filter5_f)"><ellipse cx="82.712" cy="57.022" rx="56.954" ry="20.9" fill="#fff"/></g><ellipse cx="82.712" cy="57.858" rx="56.954" ry="20.9" fill="#9C6720"/><g filter="url(#filter6_f)"><ellipse cx="82.712" cy="57.858" rx="52.797" ry="19.228" fill="#E4AA60"/></g><g filter="url(#filter7_f)"><ellipse cx="82.712" cy="57.858" rx="43.651" ry="15.048" fill="#F1C998"/></g><g filter="url(#filter8_f)"><ellipse cx="82.712" cy="57.858" rx="36.168" ry="10.868" fill="#FFE0BA"/></g><g filter="url(#filter9_f)"><path d="M144.239 76.668c12.762 0 24.328 10.15 24.328 24.495 0 9.84-6.901 15.717-11.025 18.142" stroke="url(#paint19_linear)" stroke-opacity=".5"/></g><g filter="url(#filter10_f)"><path d="M141.029 58.694c0 12.53-26.735 22.69-59.714 22.69-32.98 0-59.714-10.16-59.714-22.69" stroke="#fff" stroke-width="2"/></g><g clip-path="url(#clip0)"><g filter="url(#filter11_d)"><path fill-rule="evenodd" clip-rule="evenodd" d="M157.947 14.051l89.284 8.202c2.849.264 5.092 3.225 4.303 5.975l-14.387 50.011c-.788 2.75-3.137 4.759-5.959 4.3l-49.667-8.085-15.404 11.021 3.614-12.94-12.112-1.971c-2.846-.463-4.223-3.122-4.304-5.97l-1.307-46.245c-.104-2.856 3.091-4.562 5.939-4.298z" fill="url(#paint20_linear)"/></g><path d="M185.552 34.566c.045-.171.085-.362.122-.572a18.2 18.2 0 00.127-.95c.26-2.275-.016-4.046-.829-5.312-.799-1.277-2.118-2.022-3.957-2.236-1.777-.206-3.243.166-4.396 1.116-1.14.94-1.815 2.33-2.025 4.17-.198 1.728.105 3.106.907 4.131.802 1.026 2.055 1.637 3.757 1.834a7.213 7.213 0 003.232-.343c1.036-.36 2.056-.972 3.062-1.838zm-.546 2.961c-.856.77-1.888 1.319-3.097 1.645-1.196.327-2.477.412-3.844.253-2.411-.28-4.227-1.201-5.446-2.767-1.217-1.578-1.685-3.604-1.402-6.079.308-2.698 1.4-4.765 3.276-6.198 1.877-1.433 4.232-1.986 7.065-1.657 2.772.321 4.82 1.466 6.144 3.434 1.324 1.968 1.801 4.575 1.43 7.821-.365 3.197-1.311 6.03-2.84 8.498-1.529 2.47-3.51 4.382-5.944 5.738a13.255 13.255 0 01-3.4 1.326c-1.192.29-2.223.385-3.093.284-.646-.075-1.115-.268-1.407-.579-.292-.311-.407-.74-.344-1.287.018-.162.128-.515.328-1.059.036-.096.07-.168.1-.215.122.04.263.075.423.106.16.031.364.061.613.09 2.374.275 4.615-.442 6.724-2.15 2.122-1.708 3.693-4.109 4.714-7.204zm9.947 11.261a10.961 10.961 0 01.829-.516c.16-.08.279-.161.357-.243a.463.463 0 00.132-.268c.04-.351.062-.575.066-.673l.025-.224c.082-.716.165-1.274.248-1.672.084-.4.161-.643.231-.733l.016-.339-.058-.086.024-.213c.016-.066.026-.121.031-.166.047-.41-.106-.693-.459-.847-.345-.154-.498-.402-.459-.745.012-.105.131-.22.357-.345.227-.132.554-.283.981-.453.094-.36.196-.752.305-1.178.109-.426.234-.895.376-1.408a4.406 4.406 0 01-.04-.243.856.856 0 01-.002-.182 2.729 2.729 0 01.488-1.293 2.9 2.9 0 01.295-.306c.119-.115.262-.238.428-.37a2.21 2.21 0 00.302-.26c.07-.082.108-.15.114-.202a.175.175 0 00-.062-.155c-.041-.042-.106-.069-.195-.079-.276-.032-.693.01-1.25.127-.557.11-.969.149-1.238.118a.468.468 0 01-.197-.057c-.035-.027-.049-.066-.043-.118.017-.15.039-.28.067-.39a.821.821 0 01.083-.228c.138-.082.245-.164.323-.246a.425.425 0 00.142-.256c.004-.037.047-.081.129-.133a1.16 1.16 0 01.398-.112c.708-.115 1.247-.203 1.617-.266l.647-.107a9.602 9.602 0 011.222-.085c.387-.008.744.007 1.072.044.037.005.111.025.22.06.11.028.185.037.224.026.151-.005.311-.013.478-.024.045.005.173.043.384.112.212.063.508.154.887.273.084-.005.175-.013.275-.025.216.025.391.08.525.163a.815.815 0 01.315.32c.102.035.201.058.298.069a.891.891 0 01.507.229c.152.123.276.293.372.508.083.206.142.41.18.61.038.194.046.391.023.593a2.59 2.59 0 01-.387 1.1 3.152 3.152 0 01-.862.899c-.039.018-.237.13-.594.34-.348.2-.856.482-1.524.843a2.052 2.052 0 00-.257.163 3.315 3.315 0 01-.354.22 643.6 643.6 0 01-1.887.848c-.507.206-.894.384-1.161.534-.266.15-.404.264-.412.338a.546.546 0 00.144.425c.114.127.296.25.547.37.365.178.776.38 1.234.607.457.227.945.492 1.462.794a.87.87 0 01.18.111l.252.177c.614.313 1.054.662 1.319 1.049.274.38.385.796.333 1.252-.076.664-.748 1.225-2.017 1.683-1.261.459-3.116.818-5.564 1.08-.049.1-.105.199-.17.297-.056.1-.109.195-.157.288a.517.517 0 01-.246.164.698.698 0 01-.344.04.407.407 0 01-.318-.196c-.071-.106-.109-.27-.114-.49-.054-.058-.099-.086-.138-.083l-.656.094a8.142 8.142 0 00-.221-.15 4.83 4.83 0 01-.201-.126.552.552 0 01-.16-.189.327.327 0 01-.044-.209.23.23 0 01.086-.16 4.9 4.9 0 01.241-.12zm4.04-4.908c-.119-.014-.236.078-.349.277-.105.192-.207.486-.305.883l-.219 1.12-.217 1.11a6.612 6.612 0 00-.18.58l.01.114.084.055a36.96 36.96 0 011.025-.142c.254.03.405.024.455-.015.058-.047.695-.26 1.909-.641.517-.152.908-.303 1.174-.454.268-.158.409-.304.425-.438a.356.356 0 00-.074-.247 1.416 1.416 0 00-.275-.27 7.79 7.79 0 00-1.095-.74 11.732 11.732 0 00-1.568-.76 4.069 4.069 0 00-.269-.121 12.529 12.529 0 01-.36-.223.452.452 0 00-.171-.088zm3.129-8.144a2.96 2.96 0 00-.701-.013c-.176.018-.306.067-.391.148-.066.052-.143.16-.23.325a8.885 8.885 0 00-.282.681 5.483 5.483 0 00-.129.541c-.031.2-.056.421-.076.66a3.061 3.061 0 01-.313.463l.022.298c-.132.363-.229.654-.292.873-.063.22-.099.367-.107.441-.013.112 0 .193.04.243.04.05.1.08.182.09.075.008.26-.054.554-.186.302-.131.718-.333 1.248-.604l1.335-.673c.313-.16.493-.25.541-.267.11-.108.217-.212.319-.314l.319-.315c.145-.142.254-.269.327-.381a.814.814 0 00.128-.326.764.764 0 00-.113-.5 1.371 1.371 0 00-.461-.428 6.949 6.949 0 00-1.094-.444l-.564-.225a1.48 1.48 0 00-.262-.087zm13.845-.449c.164.02.277.085.34.198s.082.27.059.472c-.043.38-.102.733-.177 1.057-.067.325-.157.61-.268.854-.148.307-.293.612-.433.913-.132.295-.268.597-.409.906a1.878 1.878 0 00-.257.265 8.229 8.229 0 01-.109.452.287.287 0 01-.108.158c-.051.047-.117.1-.2.158a6.04 6.04 0 01-.294.59c-.237.358-.55.783-.939 1.275-.38.485-.841 1.044-1.382 1.677-.021.118-.037.23-.049.334l-.78 1.271c-.272.46-.515.904-.73 1.333-.207.422-.375.83-.503 1.223l-.176.547c-.038.14-.061.239-.068.298-.008.075.023.196.095.363.072.16.106.258.102.295-.019.164-.263.352-.733.562-.462.21-.745.307-.849.287a16.406 16.406 0 00-.35-.108 3.905 3.905 0 01-.329-.095.896.896 0 01-.34-.199.28.28 0 01-.096-.249c.008-.074.051-.217.128-.427.104-.32.221-.61.348-.867.136-.264.292-.503.468-.717l.038-.041a.4.4 0 01-.043-.119.647.647 0 00-.028-.15 8.804 8.804 0 01.558-1.115c.088-.11.181-.259.278-.444.097-.193.19-.413.279-.66a3.73 3.73 0 01-.571-.758 2.251 2.251 0 01-.272-.791 21.521 21.521 0 00-.18-.508 12.346 12.346 0 01-.231-.753l-.502-2.95c.003-.227 0-.495-.01-.807-.001-.317-.024-.68-.068-1.085l.13-.246-.162-.268a2.04 2.04 0 00.005-.249 5.39 5.39 0 00.002-.408 5.044 5.044 0 01-.002-.386l.032-.28c.032-.276.097-.483.196-.623a.544.544 0 01.401-.237l.168.02c.068 0 .14.004.214.012.09.01.375-.077.858-.263.208.024.37.1.484.226.115.12.183.282.205.489.01.107.008.258-.007.453-.014.187-.036.412-.065.673a6.469 6.469 0 01-.115.61 7.847 7.847 0 00-.102.59 1.457 1.457 0 00-.007.157c.009.054.016.13.02.23a9.78 9.78 0 00-.026.915c.012.357.03.767.052 1.231.014.274.043.617.087 1.03l.154 1.425c.051.081.101.178.148.29.056.104.107.223.152.357l.073.054c.045.005.172-.15.382-.466.219-.323.519-.806.903-1.45.055-.084.12-.193.196-.328a27.5 27.5 0 01.271-.49c.043-.041.09-.096.144-.165l.187-.25c.052-.123.126-.277.223-.463.097-.193.218-.417.36-.672.117-.16.249-.357.396-.59.156-.239.328-.521.516-.847.013-.044.179-.27.497-.68.327-.416.796-1.008 1.405-1.776a.824.824 0 01.215-.202c.074-.052.141-.075.201-.068zm1.24 3.626l-.096-.749.186-.432c.063-.151.121-.3.175-.445a.463.463 0 01.251-.209.928.928 0 01.446-.039c.068.008.17.005.308-.01.145-.013.247-.016.307-.01.067.008.15.071.25.189.1.117.172.186.215.206.056-.032.127-.088.212-.169.092-.08.202-.188.331-.324.111-.108.215-.194.313-.259a.793.793 0 01.309-.123c.112.074.211.134.297.182a.225.225 0 01.089.113c.018.04.023.093.015.16a1.158 1.158 0 01-.084.24c-.051.115-.125.273-.224.473-.107.214-.192.393-.254.538a3.328 3.328 0 00-.129.336 4.087 4.087 0 00-.322.44.935.935 0 00-.133.37c-.017.149.002.378.057.687.057.3.145.682.266 1.142.171.624.342 1.276.514 1.953.142.742.297 1.464.467 2.164.17.692.354 1.36.553 2.003.202.674.375 1.178.518 1.512.144.334.26.506.349.517.075.008.132-.027.171-.105.048-.086.082-.222.103-.408.009-.075.027-.17.056-.288a3.32 3.32 0 01.145-.38c.091-.194.18-.415.269-.661.118-.38.224-.712.317-.996.101-.283.185-.526.254-.73.045-.13.111-.41.198-.84.086-.428.191-1.009.312-1.743.009-.075.032-.178.07-.31.045-.13.088-.28.13-.45.05-.168.089-.31.117-.428.03-.126.05-.237.061-.334.02-.171.03-.427.031-.767a7.77 7.77 0 01.033-.78c.165-.456.322-.903.47-1.34.126-.378.241-.69.345-.935a6.85 6.85 0 01.258-.571c.15-.255.322-.47.516-.644a2.36 2.36 0 01.626-.426l.09.01c.074.009.121.03.14.062.026.033.036.084.028.15a3.533 3.533 0 01-.141.347c.007.137.013.281.018.433a4.567 4.567 0 01-.132.461c-.024.08-.054.206-.088.376a7.013 7.013 0 00-.092.601c-.01.09-.043.283-.1.579-.055.288-.141.675-.257 1.16a66.063 66.063 0 01-.407 2.074c-.139.687-.282 1.374-.428 2.06a26.006 26.006 0 01-.52 2.265c-.19.673-.394 1.274-.613 1.8a8.177 8.177 0 01-.338 1.073c-.143.391-.32.813-.53 1.265l-.411.52c-.026.027-.272.096-.738.209-.465.105-.724.154-.776.148-.112-.013-.263-.178-.454-.495-.189-.324-.402-.806-.639-1.446a42.642 42.642 0 01-.54-1.423c-.131-.379-.208-.66-.232-.844a5.41 5.41 0 00-.038-.265 48.125 48.125 0 01-.06-.37 68.853 68.853 0 00-.431-1.286c-.168-.511-.363-1.116-.586-1.815a2.685 2.685 0 00-.147-.493 4.4 4.4 0 00-.224-.525l-.082.025a5.697 5.697 0 00-.221.541c-.077.218-.168.48-.271.785a4.535 4.535 0 01-.296.51c-.161.42-.342.876-.541 1.367-.2.49-.415 1.018-.646 1.58-.067.19-.134.386-.203.59-.069.203-.146.414-.231.63l-.243.347c-.056.22-.115.436-.177.648a20.31 20.31 0 01-.273.604c-.101.23-.227.507-.378.83-.042.168-.112.289-.211.36a.482.482 0 01-.363.106.26.26 0 01-.1.079.631.631 0 01-.235.075c-.077.006-.128-.041-.154-.143a1.122 1.122 0 01-.01-.41c.012-.104.049-.266.112-.485.063-.22.152-.497.265-.831.127-.379.225-.674.294-.885l.149-.414c.051-.175.111-.406.182-.693.07-.287.15-.618.238-.993a6.59 6.59 0 01.108-.35c.054-.146.119-.312.193-.5a24.5 24.5 0 00.362-1.183c.188-.651.438-1.556.752-2.714.326-1.134.645-2.277.958-3.428z" fill="#F1F2F2"/><path fill-rule="evenodd" clip-rule="evenodd" d="M165.511 56.319a.48.48 0 01-.534.418l-.478-.058a.481.481 0 01.115-.954l.478.059a.48.48 0 01.419.535zm61.216 7.603a.48.48 0 01-.535.418l-.471-.059a.482.482 0 01.117-.954l.471.059a.481.481 0 01.418.536zm-2.352-.292a.48.48 0 01-.535.418l-.943-.117a.482.482 0 01.117-.954l.943.117c.263.032.45.273.418.536zm-2.824-.35a.48.48 0 01-.535.417l-.943-.117a.482.482 0 01.117-.954l.943.117c.263.033.45.273.418.536zm-2.824-.351a.48.48 0 01-.535.417l-.943-.116a.482.482 0 01.117-.955l.943.117c.263.033.45.273.418.537zm-2.824-.351a.48.48 0 01-.535.418l-.943-.117a.482.482 0 01.117-.954l.943.117c.263.032.45.273.418.536zm-2.824-.35a.48.48 0 01-.535.417l-.943-.117a.482.482 0 01.117-.954l.943.117c.263.033.45.273.418.536zm-2.824-.351a.48.48 0 01-.535.418l-.943-.117a.481.481 0 01.117-.955l.943.117c.263.033.45.273.418.537zm-2.824-.351a.48.48 0 01-.535.418l-.943-.117a.481.481 0 01.117-.954l.943.117c.263.032.45.273.418.536zm-2.824-.35a.48.48 0 01-.535.417l-.943-.117a.481.481 0 01.117-.954l.943.117c.263.033.45.273.418.536zm-2.824-.351a.48.48 0 01-.535.418l-.943-.117a.481.481 0 01.117-.955l.943.117c.263.033.45.273.418.537zm-2.824-.351a.48.48 0 01-.535.418l-.943-.117a.481.481 0 01.117-.954l.943.117c.263.032.45.273.418.536zm-2.824-.35a.48.48 0 01-.535.417l-.943-.117a.481.481 0 01.117-.954l.943.117c.263.033.45.273.418.536zm-2.824-.351a.48.48 0 01-.535.418l-.943-.117a.481.481 0 01.117-.955l.943.117a.481.481 0 01.418.537zm-2.824-.351a.48.48 0 01-.535.418l-.943-.117a.48.48 0 01.117-.954l.943.117a.481.481 0 01.418.536zm-2.824-.35a.48.48 0 01-.535.417l-.943-.117a.481.481 0 01.117-.954l.943.117a.481.481 0 01.418.536zm-2.824-.351a.48.48 0 01-.535.418l-.943-.117a.482.482 0 01.117-.955l.943.117a.481.481 0 01.418.537zm-2.824-.35a.48.48 0 01-.535.417l-.943-.117a.482.482 0 01.117-.954l.943.117a.48.48 0 01.418.536zm-2.824-.352a.48.48 0 01-.535.418l-.943-.117a.482.482 0 01.117-.954l.943.117a.481.481 0 01.418.536zm-2.824-.35a.48.48 0 01-.535.418l-.943-.118a.482.482 0 01.117-.954l.943.117a.481.481 0 01.418.537zm-2.824-.35a.48.48 0 01-.535.417l-.943-.117a.482.482 0 01.117-.954l.943.117a.481.481 0 01.418.536zm-2.824-.352a.479.479 0 01-.535.418l-.943-.117a.482.482 0 01.117-.954l.943.117a.48.48 0 01.418.536zm-2.823-.35a.48.48 0 01-.536.418l-.471-.059a.482.482 0 01.117-.954l.471.058a.482.482 0 01.419.537z" fill="#fff"/><path fill-rule="evenodd" clip-rule="evenodd" d="M228.163 64.101a.479.479 0 01-.534.419l-.477-.058a.48.48 0 11.115-.954l.477.058a.481.481 0 01.419.535z" fill="#fff"/></g><defs><linearGradient id="paint2_linear" x1="79.141" y1="156.482" x2="79.141" y2="78.501" gradientUnits="userSpaceOnUse"><stop stop-color="#fff"/><stop offset="1" stop-color="#fff"/></linearGradient><linearGradient id="paint4_linear" x1="85.546" y1="136.426" x2="85.546" y2="95.545" gradientUnits="userSpaceOnUse"><stop offset=".33" stop-color="#D8D8D8"/><stop offset="1" stop-color="#B5B5B5"/></linearGradient><linearGradient id="paint7_linear" x1="126.288" y1="102.986" x2="117.441" y2="116.116" gradientUnits="userSpaceOnUse"><stop offset=".24" stop-color="#B6AAA0"/><stop offset=".27" stop-color="#BBB0A7"/><stop offset=".48" stop-color="#DCD5D1"/><stop offset=".64" stop-color="#F0ECEA"/><stop offset=".73" stop-color="#F7F5F4"/></linearGradient><linearGradient id="paint8_linear" x1="22.283" y1="87.285" x2="141.313" y2="77.453" gradientUnits="userSpaceOnUse"><stop stop-color="#FEFEFE"/><stop offset=".01" stop-color="#E8E4E1"/><stop offset=".02" stop-color="#D6CFC9"/><stop offset=".03" stop-color="#C7BEB7"/><stop offset=".05" stop-color="#BDB3AA"/><stop offset=".06" stop-color="#B8ACA2"/><stop offset=".1" stop-color="#B6AAA0"/><stop offset=".21" stop-color="#D2CBC5"/><stop offset=".68" stop-color="#F7F5F4"/><stop offset="1" stop-color="#E1DCD8"/></linearGradient><linearGradient id="paint9_linear" x1="103.016" y1="85.279" x2="131.098" y2="95.77" gradientUnits="userSpaceOnUse"><stop stop-color="#fff"/><stop offset=".22" stop-color="#F9F8F7"/><stop offset=".56" stop-color="#E9E4E1"/><stop offset=".89" stop-color="#D5CBC5"/><stop offset=".98" stop-color="#D5CBC5"/></linearGradient><linearGradient id="paint10_linear" x1="132.199" y1="85.354" x2="125.997" y2="100.839" gradientUnits="userSpaceOnUse"><stop offset=".11" stop-color="#D5CBC5"/><stop offset=".44" stop-color="#E9E4E1"/><stop offset=".78" stop-color="#F9F8F7"/><stop offset="1" stop-color="#fff"/></linearGradient><linearGradient id="paint11_linear" x1="81.748" y1="81.341" x2="81.748" y2="35.963" gradientUnits="userSpaceOnUse"><stop stop-color="#F2F2F2"/><stop offset=".24" stop-color="#E5E4E4"/><stop offset=".69" stop-color="#C3BFBE"/><stop offset="1" stop-color="#A9A2A0"/></linearGradient><linearGradient id="paint12_linear" x1="25.825" y1="58.191" x2="137.662" y2="58.191" gradientUnits="userSpaceOnUse"><stop stop-color="#B6ADA4"/><stop offset=".13" stop-color="#C9C3BD"/><stop offset=".39" stop-color="#F6F6F6"/><stop offset=".47" stop-color="#F2F2F2"/><stop offset=".55" stop-color="#E5E5E5"/><stop offset=".56" stop-color="#E2E2E2"/><stop offset=".68" stop-color="#DAD8D5"/><stop offset=".79" stop-color="#D7D3CF"/><stop offset=".84" stop-color="#C1B9B2"/><stop offset=".9" stop-color="#B1A79D"/><stop offset=".95" stop-color="#A79C91"/><stop offset="1" stop-color="#A4988D"/></linearGradient><linearGradient id="paint13_linear" x1="120.784" y1="99.374" x2="168.484" y2="99.374" gradientUnits="userSpaceOnUse"><stop offset=".02" stop-color="#D5CBC5"/><stop offset=".11" stop-color="#D5CBC5"/><stop offset=".44" stop-color="#E9E4E1"/><stop offset=".78" stop-color="#F9F8F7"/><stop offset="1" stop-color="#fff"/></linearGradient><linearGradient id="paint14_linear" x1="142.16" y1="107.347" x2="142.16" y2="122.311" gradientUnits="userSpaceOnUse"><stop offset=".385" stop-color="#361F00" stop-opacity="0"/><stop offset="1" stop-color="#563408" stop-opacity=".43"/></linearGradient><linearGradient id="paint15_linear" x1="126.363" y1="91.298" x2="131.806" y2="83.803" gradientUnits="userSpaceOnUse"><stop stop-color="#5A380B"/><stop offset="1" stop-color="#5A380B" stop-opacity="0"/></linearGradient><linearGradient id="paint16_linear" x1="125.149" y1="100.57" x2="149.833" y2="114.507" gradientUnits="userSpaceOnUse"><stop stop-color="#CECAC7"/><stop offset=".28" stop-color="#F0EEED"/><stop offset=".45" stop-color="#ECEAE9"/><stop offset=".64" stop-color="#E1DEDC"/><stop offset=".83" stop-color="#CFCAC7"/><stop offset="1" stop-color="#B8B2AE"/></linearGradient><linearGradient id="paint17_linear" x1="109.975" y1="81.592" x2="109.319" y2="107.709" gradientUnits="userSpaceOnUse"><stop stop-color="#fff"/><stop offset=".06" stop-color="#ECECEC"/><stop offset=".33" stop-color="#999"/><stop offset=".57" stop-color="#575757"/><stop offset=".76" stop-color="#282828"/><stop offset=".91" stop-color="#0B0B0B"/><stop offset="1"/></linearGradient><linearGradient id="paint18_linear" x1="584.023" y1="2449.34" x2="437.799" y2="3162.36" gradientUnits="userSpaceOnUse"><stop stop-color="#fff"/><stop offset=".06" stop-color="#ECECEC"/><stop offset=".33" stop-color="#999"/><stop offset=".57" stop-color="#575757"/><stop offset=".76" stop-color="#282828"/><stop offset=".91" stop-color="#0B0B0B"/><stop offset="1"/></linearGradient><linearGradient id="paint19_linear" x1="160.452" y1="116.379" x2="143.668" y2="77.152" gradientUnits="userSpaceOnUse"><stop stop-color="#4A2F0A" stop-opacity=".5"/><stop offset="1" stop-color="#4A2F0A" stop-opacity="0"/></linearGradient><linearGradient id="paint20_linear" x1="186.659" y1="6.731" x2="222.945" y2="97.065" gradientUnits="userSpaceOnUse"><stop stop-color="#E20613"/><stop offset=".31" stop-color="#CF0B14"/><stop offset=".93" stop-color="#9F1815"/><stop offset="1" stop-color="#991915"/></linearGradient><filter id="filter0_f" x="1.495" y="107.133" width="163.752" height="50.507" filterUnits="userSpaceOnUse" color-interpolation-filters="sRGB"><feFlood flood-opacity="0" result="BackgroundImageFix"/><feBlend in="SourceGraphic" in2="BackgroundImageFix" result="shape"/><feGaussianBlur stdDeviation="1" result="effect1_foregroundBlur"/></filter><filter id="filter1_f" x="108.801" y="107.543" width="58.966" height="31.264" filterUnits="userSpaceOnUse" color-interpolation-filters="sRGB"><feFlood flood-opacity="0" result="BackgroundImageFix"/><feBlend in="SourceGraphic" in2="BackgroundImageFix" result="shape"/><feGaussianBlur stdDeviation="4" result="effect1_foregroundBlur"/></filter><filter id="filter2_f" x="89.521" y="77.266" width="72.092" height="54.817" filterUnits="userSpaceOnUse" color-interpolation-filters="sRGB"><feFlood flood-opacity="0" result="BackgroundImageFix"/><feBlend in="SourceGraphic" in2="BackgroundImageFix" result="shape"/><feGaussianBlur stdDeviation="2" result="effect1_foregroundBlur"/></filter><filter id="filter3_f" x="119.037" y="103.347" width="46.246" height="22.964" filterUnits="userSpaceOnUse" color-interpolation-filters="sRGB"><feFlood flood-opacity="0" result="BackgroundImageFix"/><feBlend in="SourceGraphic" in2="BackgroundImageFix" result="shape"/><feGaussianBlur stdDeviation="2" result="effect1_foregroundBlur"/></filter><filter id="filter4_f" x="122.363" y="76.43" width="14.652" height="22.196" filterUnits="userSpaceOnUse" color-interpolation-filters="sRGB"><feFlood flood-opacity="0" result="BackgroundImageFix"/><feBlend in="SourceGraphic" in2="BackgroundImageFix" result="shape"/><feGaussianBlur stdDeviation="2" result="effect1_foregroundBlur"/></filter><filter id="filter5_f" x="23.758" y="34.121" width="117.908" height="45.801" filterUnits="userSpaceOnUse" color-interpolation-filters="sRGB"><feFlood flood-opacity="0" result="BackgroundImageFix"/><feBlend in="SourceGraphic" in2="BackgroundImageFix" result="shape"/><feGaussianBlur stdDeviation="1" result="effect1_foregroundBlur"/></filter><filter id="filter6_f" x="25.915" y="34.629" width="113.593" height="46.457" filterUnits="userSpaceOnUse" color-interpolation-filters="sRGB"><feFlood flood-opacity="0" result="BackgroundImageFix"/><feBlend in="SourceGraphic" in2="BackgroundImageFix" result="shape"/><feGaussianBlur stdDeviation="2" result="effect1_foregroundBlur"/></filter><filter id="filter7_f" x="35.061" y="38.809" width="95.302" height="38.096" filterUnits="userSpaceOnUse" color-interpolation-filters="sRGB"><feFlood flood-opacity="0" result="BackgroundImageFix"/><feBlend in="SourceGraphic" in2="BackgroundImageFix" result="shape"/><feGaussianBlur stdDeviation="2" result="effect1_foregroundBlur"/></filter><filter id="filter8_f" x="42.544" y="42.99" width="80.336" height="29.736" filterUnits="userSpaceOnUse" color-interpolation-filters="sRGB"><feFlood flood-opacity="0" result="BackgroundImageFix"/><feBlend in="SourceGraphic" in2="BackgroundImageFix" result="shape"/><feGaussianBlur stdDeviation="2" result="effect1_foregroundBlur"/></filter><filter id="filter9_f" x="142.239" y="74.168" width="28.828" height="47.568" filterUnits="userSpaceOnUse" color-interpolation-filters="sRGB"><feFlood flood-opacity="0" result="BackgroundImageFix"/><feBlend in="SourceGraphic" in2="BackgroundImageFix" result="shape"/><feGaussianBlur stdDeviation="1" result="effect1_foregroundBlur"/></filter><filter id="filter10_f" x="16.601" y="54.694" width="129.429" height="31.689" filterUnits="userSpaceOnUse" color-interpolation-filters="sRGB"><feFlood flood-opacity="0" result="BackgroundImageFix"/><feBlend in="SourceGraphic" in2="BackgroundImageFix" result="shape"/><feGaussianBlur stdDeviation="2" result="effect1_foregroundBlur"/></filter><filter id="filter11_d" x="151.005" y="13.024" width="107.689" height="79.45" filterUnits="userSpaceOnUse" color-interpolation-filters="sRGB"><feFlood flood-opacity="0" result="BackgroundImageFix"/><feColorMatrix in="SourceAlpha" values="0 0 0 0 0 0 0 0 0 0 0 0 0 0 0 0 0 0 127 0"/><feOffset dx="3" dy="3"/><feGaussianBlur stdDeviation="2"/><feColorMatrix values="0 0 0 0 0 0 0 0 0 0 0 0 0 0 0 0 0 0 0.5 0"/><feBlend in2="BackgroundImageFix" result="effect1_dropShadow"/><feBlend in="SourceGraphic" in2="effect1_dropShadow" result="shape"/></filter><radialGradient id="paint0_radial" cx="0" cy="0" r="1" gradientUnits="userSpaceOnUse" gradientTransform="matrix(59.548 0 0 85.6216 82.562 116.14)"><stop offset=".01" stop-color="#F0F0F0"/><stop offset="1" stop-color="#C7C7C7"/></radialGradient><radialGradient id="paint1_radial" cx="0" cy="0" r="1" gradientUnits="userSpaceOnUse" gradientTransform="matrix(75.9487 0 0 35.3451 87.736 125.05)"><stop offset=".12" stop-color="#1C0B05"/><stop offset=".21" stop-color="#20100A"/><stop offset=".32" stop-color="#2D1E18"/><stop offset=".44" stop-color="#433530"/><stop offset=".56" stop-color="#615550"/><stop offset=".69" stop-color="#877E7B"/><stop offset=".83" stop-color="#B6B1AF"/><stop offset=".96" stop-color="#ECEBEB"/><stop offset="1" stop-color="#fff"/></radialGradient><radialGradient id="paint3_radial" cx="0" cy="0" r="1" gradientUnits="userSpaceOnUse" gradientTransform="matrix(83.5227 0 0 40.3112 79.14 115.83)"><stop offset=".82" stop-color="#fff"/><stop offset=".88" stop-color="#F8F7F7"/><stop offset=".98" stop-color="#E4E2E1"/><stop offset="1" stop-color="#E0DDDC"/></radialGradient><radialGradient id="paint5_radial" cx="0" cy="0" r="1" gradientUnits="userSpaceOnUse" gradientTransform="matrix(37.2184 0 0 16.9172 85.794 112.524)"><stop offset=".51" stop-color="#1C0B05"/><stop offset=".56" stop-color="#2A1A14"/><stop offset=".65" stop-color="#4D403B"/><stop offset=".77" stop-color="#877E7B"/><stop offset=".92" stop-color="#D5D2D1"/><stop offset="1" stop-color="#fff"/></radialGradient><radialGradient id="paint6_radial" cx="0" cy="0" r="1" gradientUnits="userSpaceOnUse" gradientTransform="matrix(55.0083 0 0 28.7615 84.483 102.351)"><stop stop-color="#fff"/><stop offset=".23" stop-color="#FCFCFB"/><stop offset=".43" stop-color="#F5F2F1"/><stop offset=".62" stop-color="#E7E2DE"/><stop offset=".8" stop-color="#D5CBC5"/><stop offset=".99" stop-color="#BDAEA4"/><stop offset="1" stop-color="#BBABA1"/></radialGradient><clipPath id="clip0"><path fill="#fff" transform="rotate(9.245 74.329 919.326) skewX(.089)" d="M0 0h114.836v90.36H0z"/></clipPath></defs></svg>