<svg version="1.1" id="Слой_1" xmlns="http://www.w3.org/2000/svg" x="0" y="0" viewBox="0 0 200 200" xml:space="preserve"><style>.st0{fill:#40689d}.st1{fill:#a2bee6;stroke:#000;stroke-width:.2}</style><path class="st0" d="M102.1 153.9l-7-11.2c2.1-.3 4.3-.2 6.3.3l9.6 5.3c-2.1-.5-4.2-.6-6.3-.3"/><path class="st0" d="M107.1 151.9l-5.7-8.8c1 .3 2 .6 2.9 1.1l9.6 5.3c-.9-.4-1.9-.8-2.9-1.1m3 1l-9.6-5.3.6.3 9.6 5.3-.6-.3zm-19.3 36.8l-9.6-5.3c-5.1-2.8-8.6-8.6-8.6-15.6 0-2.7.5-5.3 1.4-7.9l9.6 5.3c-.9 2.5 6 6.4 6 9.1.1 7.1-3.9 11.6 1.2 14.4"/><path class="st0" d="M90.1 179.2L78 157.4c.4-1.1.9-2.1 1.4-3.1l9.6 5.3c-.5 1 8.1 10.2 7.7 11.2"/><path class="st0" d="M89.6 167.4l-10.3-13.1 1.5-2.4 9.6 5.3-1.5 2.4"/><path class="st0" d="M91.6 163.6l-10.7-11.7c.5-.7 1.1-1.4 1.7-2.1l9.6 5.3c-.6.7-1.2 1.4-1.7 2.1"/><path class="st0" d="M92.2 162.8l-9.6-13.1c.6-.7 1.2-1.3 1.9-1.9l20.3 4.4c-.7.6-11.9 2.1-12.5 2.8"/><path class="st0" d="M94.1 153.1l-9.6-5.3c.7-.6 1.5-1.2 2.2-1.8l22.4 4.2c-.8.6-14.3 2.3-15 2.9"/><path class="st0" d="M96.3 151.4l-9.6-5.3c1-.7 2-1.2 3-1.7l9.6 5.3c-1.1.4-2.1 1-3 1.7"/><path class="st0" d="M96.8 156.5l-7.1-12.2c1.7-.8 3.5-1.3 5.4-1.6l9.6 5.3c-1.9.3-3.7.8-5.4 1.6"/><path class="st1" d="M104.7 148.1c10.1-1.4 18.3 6.3 18.3 17.2 0 10.9-8.3 21-18.4 22.4-10.1 1.4-18.3-6.3-18.3-17.2 0-10.9 8.3-21 18.4-22.4z"/><path class="st0" d="M87.3 111L76.7 99.6l25.7-27.1 15.2 2.4L87.3 111z"/><path class="st0" d="M86.2 140.6l-9.6-5.2.1-35.8 9.6 5.2-.1 35.8zM112 77.7L100.9 74l1.8-2 9.6 5.3-.3.4z"/><path class="st0" d="M108.9 83l-6.3-11c.4-.4.7-.8 1-1.3l9.6 5.3c-.3.4-.7.9-1.1 1.3"/><path class="st0" d="M108.5 86.6l-4.9-15.8.9-1.5 9.6 5.3c-.2.5-5.2 11.5-5.6 12z"/><path class="st0" d="M109.5 84.9l-5-15.6c.3-.6.6-1.2.8-1.9l9.6 5.3c-.1.7-5 11.6-5.4 12.2z"/><path class="st0" d="M109.8 84.2l-4.4-16.8c.6-1.5.9-3.1.9-4.7.1-1.9-.4-3.8-1.3-5.4-.9-1.7-2.2-3-3.9-4l9.6 5.3c1.6.9 3 2.3 3.9 4 .9 1.7 1.3 3.5 1.3 5.4 0 1.6-1.2 11.7-1.7 13.2m-9.3-63.5l-9.6-5.3c5.5-.8 11.1-.5 16.5.8l14.5 6.7c-5.4-1.3-15.9-3-21.4-2.2"/><path class="st0" d="M121.5 18.6l-9.6-5.3c2.6.7 5.2 1.6 7.6 2.8l9.6 5.3c-2.5-1.2-5-2.1-7.6-2.8"/><path class="st0" d="M129 21.4l-9.6-5.3 1.5.8 9.6 5.3c-.5-.3-1-.5-1.5-.8M56.8 81.3l-9.6-5.2v-5l16.9-1.8-7.3 12z"/><path class="st0" d="M56.9 76.3L47.2 71c0-6.9 1.3-13.8 3.7-20.3l13.2 1.6c-2.4 6.5-7.2 17.1-7.2 24"/><path class="st0" d="M60.5 56l-9.6-5.3c1-2.8 2.2-5.5 3.6-8.1l18 .8c-1.4 2.7-11 9.8-12 12.6"/><path class="st0" d="M64.2 47.9l-9.7-5.2c1.2-2.2 2.5-4.3 3.9-6.3l11.7 3.5c-1.4 1.9-4.8 5.8-5.9 8"/><path class="st0" d="M56.5 39.2l2-3c1.3-1.9 2.8-3.8 4.3-5.5L79 34.3c-1.5 1.8-9.5 5.3-10.8 7.2"/><path class="st0" d="M58.9 35.6l3.9-5c1.5-1.7 3.2-3.4 4.9-5l9.6 5.3c-1.7 1.6-3.4 3.2-4.9 5"/><path class="st0" d="M68.8 48.4l-1.1-22.7c1.8-1.7 3.8-3.2 5.8-4.6l12.8 4.6c-2 1.4-9.6 17.8-11.4 19.5"/><path class="st0" d="M83.1 26.4l-9.6-5.3c2.5-1.7 5.1-3.2 7.8-4.5l15.8 4.5c-2.7 1.3-11.5 3.6-14 5.3"/><path class="st0" d="M90.9 21.9l-9.6-5.3c4.4-2.1 9.1-3.5 14-4.2l14.5 6.2c-4.8.7-14.4 1.2-18.9 3.3"/><path class="st1" d="M104.9 17.8c26.4-3.7 47.8 16.5 47.8 45-.2 15.6-6.2 30.5-17 41.8L123.1 118v17.3l-36.8 5.2.1-35.7 25.6-27c2.5-2.6 3.9-6.1 4-9.7 0-6.7-5-11.4-11.2-10.5-6.2.9-11.2 7-11.2 13.6v4.9l-36.7 5.1v-4.9c.1-28.5 21.6-54.7 48-58.5z"/></svg>