<svg width="137" height="106" fill="none" xmlns="http://www.w3.org/2000/svg"><path d="M5.864 73.534l1.563.24c.268-1.167.691-2.31 1.428-3.406l-1.293-.715C6.63 70.89 6.169 72.2 5.864 73.534zm-.33 4.264c.164 1.406.522 2.669 1.231 3.813l1.362-1c-.553-1.12-.949-2.216-1.033-3.264l-1.56.451zm4.588-11.55l1.022 1.192c.854-.904 1.827-1.618 2.994-2.475l-.827-1.335c-1.167.857-2.335 1.714-3.19 2.618zM25.219 3.156c-.15 1.358-.298 2.716-.253 3.93l1.64-.093c.15-1.358.26-2.549.41-3.907l-1.797.07zm-.35 7.885c.008 1.382.053 2.597.06 3.979l1.679-.261c-.046-1.215-.053-2.597-.098-3.812l-1.64.094zM9.32 84.591c.943.834 2.079 1.526 3.059 2.194l.85-1.596c-1.017-.5-1.997-1.169-2.783-1.98L9.32 84.59zm15.865-65.736c.202 1.239.365 2.645.567 3.883l1.56-.45c-.201-1.24-.403-2.479-.449-3.694l-1.678.261zm-8.486 42.706l.633 1.477c1.09-.523 2.182-1.046 3.429-1.545l-.438-1.62c-1.247.498-2.495.998-3.624 1.688zm9.62-34.94l.48 2.145c.199.548.24 1.072.477 1.454l1.598-.618c-.198-.548-.278-.906-.476-1.454l-.48-2.144-1.599.618zm2.226 7.244c.358 1.263.754 2.36 1.269 3.646l1.48-.809c-.396-1.096-.755-2.358-1.151-3.455l-1.598.618zM16.134 88.05c1.251.192 2.54.217 3.906-.092l-.088-1.739a11.58 11.58 0 01-3.398-.003l-.42 1.834zm7.891-29.509l.282 1.597c1.21-.333 2.457-.832 3.666-1.165l-.282-1.596c-1.21.332-2.418.665-3.666 1.164zm6.939-17.575c.396 1.096.754 2.36 1.307 3.48l1.598-.619c-.358-1.262-.754-2.359-1.269-3.645l-1.636.784zm-7.54 44.231l.476 1.454c1.247-.5 2.414-1.356 3.581-2.213l-.827-1.334c-1.167.856-2.14 1.57-3.23 2.093zm8.05-28.794L31.756 58c1.21-.333 2.418-.665 3.59-.831.16.715.163 1.405.167 2.096l1.678-.26c-.046-1.215-.21-2.621-.568-3.884l-1.56.451c-1.17.166-2.38.499-3.589.831zm1.91-8.336c.198.548.278.906.476 1.454.16.715.32 1.43.636 2.168l1.598-.618c-.16-.715-.32-1.43-.636-2.168-.198-.548-.24-1.072-.476-1.454l-1.598.618zm-4.048 32.514l1.216 1.049c.893-1.071 1.786-2.143 2.522-3.238l-1.254-.882c-.893 1.071-1.63 2.166-2.484 3.07zm6.47-17.647c.007 1.382-.104 2.573-.215 3.764l1.601.073c.15-1.358.299-2.716.253-3.93l-1.64.093zM33.56 74.152l1.487.573c.385-.976.77-1.953 1.195-3.096l.19-.833-1.563-.24-.191.834c-.347.81-.733 1.786-1.118 2.762zM38.847 54.6l.087 1.739c1.171-.166 2.537-.474 3.708-.64l-.088-1.74c-1.17.166-2.38.499-3.707.64zm7.571-1.256l.087 1.738c1.171-.165 2.498-.307 3.67-.473l.068-1.715c-1.327.142-2.498.308-3.825.45zm7.575-.566l-.07 1.715c1.328-.142 2.46-.14 3.75-.116l.069-1.715c-1.251-.192-2.579-.05-3.75.116zm7.536-.399l-.226 1.691c1.29.025 2.422.026 3.711.05l.226-1.69c-1.29-.025-2.578-.05-3.711-.051zm7.383.268l-.225 1.691c1.289.025 2.383.193 3.672.218l.226-1.691c-1.133-.002-2.422-.026-3.673-.218zm7.426.792l-.382 1.667 2.502.384 1.094.167.382-1.667-1.094-.168-2.502-.383zm6.81 2.77c1.251.19 2.308.525 3.559.717l.538-1.644c-1.213-.358-2.464-.55-3.558-.717l-.538 1.643zm7.04 1.768c1.213.358 2.27.692 3.482 1.05l.538-1.643c-1.212-.358-2.269-.692-3.481-1.05l-.539 1.643zm6.964 2.102c1.213.358 2.23.859 3.444 1.217l.694-1.619c-1.213-.358-2.23-.86-3.444-1.218l-.694 1.62zm6.731 2.411c1.174.525 2.192 1.026 3.249 1.36l.851-1.595c-1.175-.525-2.193-1.026-3.368-1.551l-.732 1.786zm6.578 3.078c1.018.502 2.193 1.027 3.172 1.694l.851-1.595c-1.018-.501-2.154-1.193-3.172-1.694l-.851 1.595zm6.307 3.555c.98.668 1.998 1.169 3.134 1.86l.97-1.404c-.98-.668-2.117-1.36-3.135-1.86l-.969 1.404z" fill="#000"/><path d="M114.235 75.079l-.239-1.727 7.716-1.862-1.534-7.842 1.527-.443 1.927 9.593-9.397 2.28z" fill="#000"/></svg>