<svg width="99" height="89" fill="none" xmlns="http://www.w3.org/2000/svg"><path d="M74.487 8.185a15.39 15.39 0 00-4.064.406l.532 1.77a13.036 13.036 0 013.739-.328l-.207-1.848zm-7.22 3.251l-.858-1.692c-1.248.49-2.443 1.156-3.422 1.96l.966 1.476c1.249-.489 2.281-1.116 3.313-1.744zm-5.82 4.433l-1.292-1.398c-.926.982-1.799 2.14-2.346 3.22l1.564 1.143c.385-1.041 1.148-1.983 2.074-2.965zm-3.826 6.422l-1.62-.75a20.035 20.035 0 00-.836 4.186l1.677.357c.169-1.18.285-2.535.779-3.793zm6.917 32.311l-1.627.39c.426 1.417.688 2.872 1.06 4.11l1.68-.212c-.425-1.417-.688-2.872-1.113-4.288zm-1.44-4.21c-.425-1.416-1.013-2.793-1.548-3.993l-1.573.568c.588 1.377.96 2.616 1.548 3.993l1.574-.567zm-6.225-20.14l-1.733.036c.047 1.317.31 2.772.788 4.366l1.68-.214c-.478-1.593-.525-2.91-.735-4.188zm3.129 12.154c-.589-1.377-.96-2.616-1.386-4.032l-1.627.39c.425 1.416 1.014 2.793 1.386 4.032l1.627-.39zm5.897 20.79l-1.787-.142c-.059.964.044 1.888-.015 2.851l-.17 1.18 1.73.533.17-1.18c.169-1.179.175-2.319.072-3.243zm-1.508 8.332l-1.511-.966a18.208 18.208 0 01-2.021 3.142l1.292 1.398a23.195 23.195 0 002.24-3.574zm-5.503 6.065l-1.02-1.653c-.76.372-1.358.705-2.172.9l-1.138.274.369 1.81c.488-.118 1.03-.058 1.355-.136.976-.234 1.899-.646 2.606-1.195zm-7.794-.976c-1.135-.297-2.215-.987-3.51-1.815l-.766 1.512c1.51.966 2.753 1.617 3.888 1.914l.388-1.611zm-6.854-4.239c-1.133-.867-2.265-1.733-3.507-2.384l-.767 1.512c1.08.69 2.212 1.557 3.344 2.424l.93-1.552zm-7.56-4.258c-1.351-.434-2.76-.476-4.167-.518l.206 1.849c1.192-.097 2.49.161 3.626.458l.335-1.789zm-7.54 2.19l-.694-1.732a15.623 15.623 0 00-3.586 2l1.13 1.436c.98-.804 2.012-1.431 3.15-1.705zm-5.656 4.393l-1.402-1.181c-.71 1.119-1.257 2.2-1.536 3.594l1.62.75c.332-1.218.717-2.26 1.318-3.163z" fill="#000"/><path d="M72.275 17.049L70.9 15.887l5.307-6.309-6.88-5.807 1.126-1.39 8.308 7.143-6.485 7.525z" fill="#000"/></svg>