<svg width="48" height="48" fill="none" xmlns="http://www.w3.org/2000/svg"><path d="M26.502 32.41c-2.8.6-5 .25-5.75 0v2.25c2.8 1.6 5 .667 5.75 0v-2.25zm-8.251-3.25l-2.5-4.25c6 2.2 13.584 1 16.25 0l-3 4.25c-4.8 1.4-9.166.583-10.75 0zM11 18.16l2.25 3.5c4.2 2.4 15.25 1.75 20 .75l3.5-4.75c-9.6 4-21.167 2-25.75.5z" fill="#C43B55"/><path fill-rule="evenodd" clip-rule="evenodd" d="M23.53 12.984c-.748 0-1.481.015-2.196.045a.492.492 0 11-.041-.983A53.91 53.91 0 0123.53 12c3.906 0 7.46.415 10.05 1.097 1.293.339 2.374.752 3.144 1.23.744.462 1.336 1.075 1.336 1.853s-.592 1.392-1.336 1.853c-.77.479-1.85.891-3.143 1.23-2.592.682-6.145 1.097-10.051 1.097-3.906 0-7.46-.415-10.051-1.096-1.293-.34-2.374-.752-3.143-1.23C9.591 17.571 9 16.957 9 16.18c0-.63.392-1.151.915-1.56.53-.416 1.272-.78 2.16-1.095 1.78-.632 4.258-1.105 7.104-1.346a.492.492 0 11.083.98c-2.799.237-5.185.699-6.857 1.292-.84.298-1.47.62-1.882.942-.42.328-.538.596-.538.787 0 .24.194.598.87 1.018.652.405 1.626.787 2.874 1.115 2.489.654 5.954 1.064 9.8 1.064 3.847 0 7.313-.41 9.801-1.064 1.248-.328 2.223-.71 2.874-1.115.677-.42.87-.777.87-1.018 0-.24-.193-.597-.87-1.018-.651-.404-1.626-.786-2.874-1.114-2.488-.654-5.954-1.064-9.8-1.064z" fill="#000"/><path fill-rule="evenodd" clip-rule="evenodd" d="M37.102 17a.491.491 0 01.136.683L27.1 32.804v1.276c0 .75-.491 1.445-1.254 1.632-1.594.39-2.792.378-4.374-.003-.768-.185-1.267-.882-1.267-1.638V33.05L10.069 17.929a.491.491 0 11.818-.547l10.22 15.245a.491.491 0 01.084.274v1.17c0 .334.218.61.513.681 1.436.346 2.473.356 3.908.005a.684.684 0 00.504-.677v-1.425c0-.098.029-.193.083-.274l10.22-15.245a.493.493 0 01.684-.135z" fill="#000"/><path fill-rule="evenodd" clip-rule="evenodd" d="M34.167 21.578a.491.491 0 01-.161.677c-.883.542-2.26.946-3.87 1.224-1.626.28-3.542.439-5.54.462-3.986.047-8.367-.446-11.467-1.647l.356-.917c2.934 1.136 7.172 1.627 11.099 1.58 1.957-.022 3.82-.178 5.384-.447 1.579-.272 2.803-.652 3.521-1.093a.493.493 0 01.678.161zm-18.864 3.668a.493.493 0 01.623-.311c3.597 1.197 7.7 1.48 11.71.84a.492.492 0 11.156.971c-4.152.663-8.417.373-12.178-.878a.492.492 0 01-.311-.622zm16.575.01a.492.492 0 01-.324.615 27.36 27.36 0 01-1.882.508.493.493 0 01-.222-.958c.61-.142 1.214-.305 1.812-.49.26-.08.536.065.616.325zm-7.931 5.017c-2.07.016-4.288-.33-6.261-1.093l.355-.918c1.843.713 3.936 1.043 5.898 1.027 1.969-.015 3.766-.376 5.032-1.008l.44.88c-1.442.72-3.4 1.096-5.464 1.112zm-2.11 3.03a7.778 7.778 0 01-1.843-.571l.417-.891c.462.215 1.01.384 1.606.495a.492.492 0 11-.18.967zm5.358-.577c-1.114.556-2.488.776-3.804.74a.492.492 0 11.027-.983c1.204.033 2.406-.172 3.337-.637l.44.88z" fill="#000"/></svg>