<svg width="104" height="87" fill="none" xmlns="http://www.w3.org/2000/svg"><g clip-path="url(#clip0)"><g filter="url(#filter0_d)"><path fill-rule="evenodd" clip-rule="evenodd" d="M19.561 11.312l72.092 6.602c2.3.212 4.111 2.595 3.475 4.809L83.51 62.98c-.637 2.213-2.533 3.83-4.811 3.46l-40.104-6.507-12.438 8.871 2.918-10.416-9.78-1.587c-2.297-.373-3.41-2.513-3.475-4.805l-1.056-37.225c-.084-2.3 2.496-3.672 4.796-3.46z" fill="url(#paint0_linear)"/></g><path d="M36.149 32.416c-1.57-.189-2.88-.698-3.93-1.529.04-.332.224-.846.553-1.542.327.468.792.869 1.395 1.202.62.32 1.3.523 2.04.612.967.116 1.74-.006 2.32-.365.596-.373.94-.945 1.032-1.715.075-.619-.035-1.176-.328-1.67-.291-.51-.748-.918-1.37-1.222a2.63 2.63 0 00-1.258.148c-.385.138-.671.356-.86.655-.121-.014-.258-.084-.412-.21-.151-.14-.223-.249-.214-.325.176-.315.47-.594.882-.836l4.866-3.024c-.13-.061-1.592-.26-4.386-.595-.544-.065-.985-.087-1.325-.067a2.69 2.69 0 00-.921.211A6.235 6.235 0 0134.072 21a7.05 7.05 0 01.027-1.191c.554.235 1.61.445 3.165.632 1.177.141 2.089.204 2.734.19.662-.028 1.205-.147 1.628-.356.256.168.443.398.561.687.134.292.18.604.14.936-.05.423-.209.787-.475 1.092-.266.305-.714.657-1.344 1.057l-2.235 1.386c1.13.166 2.01.61 2.644 1.328.65.722.914 1.58.794 2.577-.145 1.208-.693 2.077-1.645 2.606-.935.516-2.24.674-3.917.473zM49.54 33.64a7.453 7.453 0 01.557-.367.873.873 0 00.24-.172.314.314 0 00.085-.186c.021-.24.032-.392.033-.46l.013-.152c.043-.49.089-.87.139-1.144.05-.273.097-.44.144-.503l.005-.23-.042-.058.013-.146a1.09 1.09 0 00.018-.114c.024-.28-.086-.47-.33-.568-.238-.098-.347-.264-.327-.499.007-.071.086-.152.238-.241a5.18 5.18 0 01.662-.327 169 169 0 00.186-.808c.067-.292.144-.614.23-.966a3.422 3.422 0 01-.031-.165.574.574 0 01-.005-.123 1.836 1.836 0 01.31-.89 4.044 4.044 0 01.482-.474c.088-.07.155-.13.2-.182a.305.305 0 00.075-.14.117.117 0 00-.046-.105c-.028-.028-.073-.044-.134-.05-.19-.017-.473.02-.852.11-.378.085-.659.12-.843.103a.323.323 0 01-.136-.035c-.024-.018-.035-.044-.032-.08.01-.102.022-.19.04-.266a.563.563 0 01.051-.157 1.03 1.03 0 00.216-.174.287.287 0 00.093-.177c.002-.025.03-.056.085-.092a.802.802 0 01.27-.084c.482-.092.849-.162 1.1-.212l.44-.084a6.5 6.5 0 01.834-.081 5.34 5.34 0 01.733.01.996.996 0 01.15.037.365.365 0 00.154.013c.104-.006.213-.014.327-.025.03.003.119.026.264.07.146.038.35.095.611.169.057-.005.12-.013.187-.022a.865.865 0 01.362.101.56.56 0 01.221.212.99.99 0 00.205.041c.133.012.25.06.35.147a.919.919 0 01.264.339c.06.139.105.276.134.413.03.13.04.265.027.402-.023.27-.105.523-.244.757a2.14 2.14 0 01-.572.628c-.027.013-.16.094-.4.242a42.79 42.79 0 01-1.025.603 1.393 1.393 0 00-.173.116 2.27 2.27 0 01-.237.156l-1.274.613c-.343.15-.604.278-.783.385-.18.108-.271.187-.276.238a.372.372 0 00.107.287c.08.084.207.164.38.241l.855.391c.316.146.654.317 1.013.513a.579.579 0 01.125.073l.175.116c.425.201.733.431.921.69.194.253.278.535.25.846-.039.454-.488.848-1.346 1.184-.853.335-2.114.615-3.781.838a1.92 1.92 0 01-.11.206 5.798 5.798 0 00-.103.199.351.351 0 01-.165.117.48.48 0 01-.234.033.278.278 0 01-.22-.127c-.051-.072-.08-.182-.088-.332-.038-.04-.07-.057-.096-.054l-.446.076a5.277 5.277 0 00-.294-.18.38.38 0 01-.112-.126.223.223 0 01-.034-.141.156.156 0 01.056-.111c.038-.022.092-.05.162-.086zm2.67-3.418c-.082-.007-.16.058-.233.195a2.647 2.647 0 00-.192.607l-.129.767-.128.76c-.042.124-.08.257-.112.398l.009.078.058.036c.21-.038.442-.077.698-.116.174.015.277.009.31-.019.04-.032.47-.19 1.293-.472a4.06 4.06 0 00.794-.33c.18-.113.273-.215.281-.307a.24.24 0 00-.055-.167.947.947 0 00-.193-.179 5.341 5.341 0 00-.76-.483 8.068 8.068 0 00-1.086-.488 2.912 2.912 0 00-.186-.078 8.384 8.384 0 01-.25-.145.31.31 0 00-.119-.057zm1.987-5.604a2.027 2.027 0 00-.479.004.441.441 0 00-.264.108.733.733 0 00-.151.225c-.051.114-.111.27-.18.47-.03.11-.057.234-.079.37a6.65 6.65 0 00-.04.451 2.058 2.058 0 01-.205.322l.021.202c-.084.25-.145.45-.184.6-.039.15-.06.251-.065.302-.006.077.004.132.032.165s.07.052.127.057c.05.005.176-.04.375-.136.204-.095.484-.24.84-.435l.9-.483c.211-.115.333-.179.365-.191l.212-.22.212-.22c.096-.1.169-.189.217-.267a.552.552 0 00.081-.224.518.518 0 00-.086-.339.936.936 0 00-.323-.282 4.786 4.786 0 00-.755-.282 48.96 48.96 0 00-.39-.143 1.04 1.04 0 00-.18-.054zm9.45-.563c.112.01.191.053.236.129a.538.538 0 01.05.32c-.023.26-.057.501-.102.723-.04.223-.096.418-.168.586-.095.213-.188.423-.278.63l-.263.625c-.085.08-.142.141-.171.185a5.72 5.72 0 01-.066.31.196.196 0 01-.071.11c-.034.033-.078.07-.133.111a3.956 3.956 0 01-.19.407c-.156.248-.362.544-.618.886-.251.337-.555.727-.913 1.168a3.615 3.615 0 00-.028.228l-.51.88c-.176.319-.334.626-.473.922-.134.29-.24.572-.321.842l-.11.376a1.518 1.518 0 00-.041.204c-.005.051.02.133.071.245.053.108.078.174.075.2-.01.112-.173.244-.49.395-.312.153-.503.223-.574.212a11.54 11.54 0 00-.242-.068 2.68 2.68 0 01-.226-.058.614.614 0 01-.236-.129.19.19 0 01-.07-.168 1.6 1.6 0 01.08-.293c.065-.22.139-.42.221-.597.088-.182.19-.348.306-.497l.026-.029a.27.27 0 01-.032-.08.444.444 0 00-.022-.102 5.833 5.833 0 01.36-.77c.059-.076.12-.179.182-.307.063-.133.123-.284.179-.454a2.542 2.542 0 01-.404-.506 1.534 1.534 0 01-.2-.534c-.034-.09-.078-.204-.133-.343a8.58 8.58 0 01-.172-.508l-.397-2c-.002-.154-.01-.337-.022-.549a7.178 7.178 0 00-.067-.738l.084-.17-.115-.179c.003-.04.003-.097 0-.17 0-.076-.002-.17-.008-.278a3.494 3.494 0 01-.008-.262l.017-.191c.017-.19.057-.332.122-.429a.372.372 0 01.27-.169l.115.01c.047 0 .095.001.146.005.062.006.255-.06.581-.195a.505.505 0 01.335.145c.08.08.13.189.15.33.008.072.01.175.003.308-.006.128-.017.28-.032.46a4.208 4.208 0 01-.068.417 6.6 6.6 0 00-.058.403.885.885 0 00-.002.108c.008.037.013.088.018.156-.01.168-.01.376 0 .624.014.242.034.522.058.837.014.186.04.42.078.7l.132.968c.036.054.072.119.106.194.04.07.077.15.11.24l.052.036c.03.003.114-.106.252-.325.143-.223.34-.558.59-1.003.035-.059.078-.135.127-.228.05-.098.11-.211.177-.339a.98.98 0 00.095-.115l.123-.174a11.865 11.865 0 01.377-.783 12.842 12.842 0 00.597-.995c.008-.03.117-.188.327-.473l.927-1.236a.57.57 0 01.143-.141c.05-.037.095-.053.136-.05zm.914 2.446l-.079-.508.119-.297a9.01 9.01 0 00.111-.307.314.314 0 01.168-.147.638.638 0 01.304-.035c.046.005.116 0 .21-.012a1.17 1.17 0 01.21-.012c.045.004.103.045.174.123.07.078.12.124.15.136a.773.773 0 00.142-.118c.061-.056.135-.132.22-.227.074-.076.144-.137.21-.182a.543.543 0 01.208-.09c.078.048.147.088.206.119a.15.15 0 01.063.075.21.21 0 01.014.109.81.81 0 01-.053.165 9.572 9.572 0 01-.145.326c-.07.148-.124.271-.163.37-.04.1-.067.177-.082.232-.087.11-.158.212-.212.305a.641.641 0 00-.084.255c-.01.102.008.258.052.467.044.204.111.462.203.773.128.422.257.862.387 1.32a25.216 25.216 0 00.773 2.819c.151.456.279.796.383 1.02.104.225.186.34.248.346.05.004.089-.02.114-.075a.786.786 0 00.063-.28 1.67 1.67 0 01.033-.197 2.24 2.24 0 01.092-.261c.058-.134.115-.286.171-.455.075-.26.14-.489.199-.684.063-.195.117-.362.16-.502a5.65 5.65 0 00.12-.575c.05-.294.111-.692.18-1.194.005-.051.019-.122.042-.212.029-.09.056-.193.081-.309.03-.115.055-.213.072-.294.018-.086.03-.162.036-.228a5.39 5.39 0 00.007-.524 5.367 5.367 0 01.007-.53 47.8 47.8 0 00.297-.922c.08-.26.152-.475.218-.643a4.88 4.88 0 01.166-.394 1.838 1.838 0 01.76-.75l.062.005c.05.005.083.018.097.04.018.022.026.056.022.102a2.39 2.39 0 01-.09.238l.02.295a2.984 2.984 0 01-.082.316 4.67 4.67 0 00-.105.669 7.042 7.042 0 01-.057.396c-.033.197-.084.462-.154.795-.073.477-.153.95-.24 1.42-.082.47-.167.94-.254 1.41a17.97 17.97 0 01-.313 1.553c-.118.462-.247.875-.386 1.237a5.494 5.494 0 01-.211.737c-.09.27-.203.56-.339.871l-.27.362c-.018.019-.185.071-.501.156-.316.08-.492.119-.528.116-.076-.007-.183-.117-.319-.329a6.583 6.583 0 01-.463-.973c-.167-.39-.299-.71-.395-.96a3.29 3.29 0 01-.175-.57 3.184 3.184 0 00-.03-.18l-.048-.25a51.47 51.47 0 00-.318-.868c-.125-.345-.27-.753-.434-1.225a1.8 1.8 0 00-.11-.333 2.932 2.932 0 00-.163-.354l-.055.019a3.82 3.82 0 00-.14.372c-.05.15-.107.33-.171.54-.064.133-.128.25-.194.353-.102.289-.217.602-.344.94-.127.339-.265.702-.412 1.09-.042.13-.085.264-.128.404a9.25 9.25 0 01-.146.434l-.16.24c-.034.152-.07.3-.108.445a16.65 16.65 0 01-.175.416c-.066.16-.147.35-.243.572a.414.414 0 01-.138.25.332.332 0 01-.246.079.174.174 0 01-.067.056.434.434 0 01-.16.055c-.051.005-.087-.026-.107-.094a.754.754 0 01-.014-.279c.006-.071.029-.182.067-.333.04-.15.095-.341.166-.571.08-.26.14-.463.184-.608l.095-.284a45.823 45.823 0 00.255-1.156c.016-.066.038-.146.067-.242l.123-.343c.035-.1.11-.37.225-.813.117-.447.271-1.067.464-1.862.202-.778.399-1.562.591-2.352z" fill="#fff"/><path fill-rule="evenodd" clip-rule="evenodd" d="M25.666 34.922a.387.387 0 01-.43.337l-.386-.047a.388.388 0 11.093-.767l.385.047a.387.387 0 01.338.43zm49.431 6.121a.387.387 0 01-.432.336l-.38-.047a.388.388 0 11.094-.768l.38.047c.213.026.364.22.338.432zm-1.9-.235a.387.387 0 01-.432.336l-.761-.094a.388.388 0 11.094-.768l.762.094c.212.026.364.22.337.432zm-2.28-.283a.387.387 0 01-.432.337l-.761-.095a.388.388 0 11.094-.768l.761.095c.213.026.364.22.338.431zm-2.28-.282a.387.387 0 01-.432.336l-.761-.094a.388.388 0 11.094-.768l.761.094c.213.027.364.22.338.432zm-2.28-.282a.387.387 0 01-.432.336l-.762-.094a.388.388 0 11.095-.768l.761.094c.213.026.364.22.338.432zm-2.28-.282a.387.387 0 01-.433.336l-.76-.094a.388.388 0 11.094-.768l.76.094c.214.026.365.22.339.431zm-2.28-.283a.387.387 0 01-.433.337l-.761-.095a.388.388 0 11.094-.768l.762.095c.212.026.364.22.337.431zm-2.28-.282a.387.387 0 01-.433.336l-.761-.094a.388.388 0 11.094-.768l.761.094c.213.027.364.22.338.432zm-2.28-.282a.387.387 0 01-.433.336l-.762-.094a.388.388 0 11.095-.768l.761.094c.213.026.364.22.338.432zm-2.281-.283a.387.387 0 01-.432.337l-.762-.094a.388.388 0 11.095-.769l.761.095c.213.026.364.22.338.431zm-2.28-.282a.387.387 0 01-.433.337l-.76-.095a.388.388 0 11.094-.768l.76.095c.213.026.365.22.339.431zm-2.28-.282a.387.387 0 01-.433.336l-.761-.094a.388.388 0 11.094-.768l.762.094c.212.027.364.22.337.432zm-2.28-.282a.387.387 0 01-.433.336l-.761-.094a.388.388 0 11.094-.768l.762.094c.212.026.363.22.337.432zm-2.28-.283a.387.387 0 01-.433.337l-.761-.094a.388.388 0 11.094-.769l.761.095c.213.026.364.22.338.431zm-2.281-.282a.387.387 0 01-.432.337l-.762-.095a.388.388 0 11.095-.768l.761.094c.213.027.364.22.338.432zm-2.28-.282a.387.387 0 01-.432.336l-.762-.094a.388.388 0 11.095-.768l.76.094c.214.026.365.22.339.432zm-2.28-.282a.387.387 0 01-.433.336l-.761-.094a.388.388 0 11.094-.768l.762.094c.212.026.364.22.338.432zm-2.28-.283a.387.387 0 01-.433.337l-.761-.095a.388.388 0 11.094-.768l.761.095c.213.026.364.22.338.431zm-2.28-.282a.387.387 0 01-.433.336l-.762-.094a.388.388 0 11.095-.768l.761.094c.213.027.364.22.338.432zm-2.281-.282a.387.387 0 01-.432.336l-.762-.094a.388.388 0 11.095-.768l.761.094c.213.026.364.22.338.432zm-2.28-.282a.387.387 0 01-.432.336l-.762-.094a.388.388 0 11.095-.768l.76.094c.214.026.365.22.339.431zm-2.28-.283a.387.387 0 01-.433.337l-.38-.047a.388.388 0 11.094-.769l.38.047c.213.027.365.22.338.432z" fill="#fff"/><path fill-rule="evenodd" clip-rule="evenodd" d="M76.256 41.186a.387.387 0 01-.43.337l-.386-.046a.388.388 0 11.093-.768l.385.047a.387.387 0 01.338.43z" fill="#fff"/><path d="M28.583 51.382a5.818 5.818 0 01-1.756-.511 5.24 5.24 0 01-1.43-.988c.04-.309.102-.583.187-.823.086-.24.206-.492.362-.754a3.33 3.33 0 001.056 1.221 3.65 3.65 0 001.565.581c.916.12 1.674-.159 2.275-.834.602-.676 1.025-1.594 1.27-2.756-1.019.574-2.034.795-3.043.664-.969-.127-1.703-.607-2.201-1.442-.5-.834-.668-1.869-.507-3.104.108-.834.364-1.555.768-2.162a3.709 3.709 0 011.57-1.326c.646-.293 1.347-.39 2.104-.292.823.108 1.52.45 2.094 1.027.572.577.973 1.336 1.202 2.277.243.927.29 1.97.139 3.128-.288 2.208-.911 3.83-1.87 4.868-.957 1.022-2.219 1.43-3.785 1.226zm1.651-5.368a6.011 6.011 0 002.09-.81c.152-1.473.074-2.638-.233-3.494-.291-.87-.782-1.35-1.473-1.44a1.718 1.718 0 00-1.55.551c-.42.432-.684 1.057-.791 1.876-.12.926-.01 1.687.33 2.28.355.597.897.942 1.627 1.037zm9.366 6.804c-.93-.121-1.714-.475-2.353-1.06-.637-.602-1.096-1.384-1.375-2.347-.267-.961-.321-2.044-.164-3.249.165-1.266.544-2.363 1.138-3.29.608-.942 1.374-1.636 2.296-2.08.922-.446 1.92-.599 2.996-.458.89.115 1.64.465 2.253 1.047.626.584 1.067 1.348 1.322 2.292.27.93.329 1.983.176 3.157-.17 1.297-.553 2.425-1.15 3.383-.584.96-1.325 1.673-2.223 2.137-.895.449-1.867.605-2.916.468zm.522-1.675c.995.13 1.847-.191 2.556-.963.708-.771 1.156-1.883 1.346-3.334.172-1.328.05-2.467-.365-3.417-.401-.963-1.047-1.605-1.937-1.925a2.825 2.825 0 00-1.854.395c-.585.347-1.078.864-1.478 1.55-.386.688-.64 1.495-.76 2.422-.126.957-.11 1.823.045 2.597.17.776.46 1.395.872 1.857.426.464.95.736 1.575.818zm12.628-1.555c-.012.094.037.23.148.406.115.172.292.39.53.655.154.168.313.334.478.499.17.16.337.323.501.487l.276.3c.113.12.245.261.395.424a8.516 8.516 0 00.743.669c.092.093.196.195.31.305.114.11.247.23.397.36.086.068.145.18.177.337.033.152.039.346.017.581l-.087.175-.075.026a.447.447 0 01-.181-.088 3.319 3.319 0 01-.266-.206 82.332 82.332 0 00-1.07-.683 3.937 3.937 0 01-.505-.352 4.387 4.387 0 01-.406-.396 2.966 2.966 0 00-.279-.273c-.11-.1-.244-.21-.4-.33a5.601 5.601 0 01-.687-.605 9.299 9.299 0 00-.557-.552c-.146-.128-.249-.197-.31-.205a.397.397 0 00-.104.194c-.084.213-.182.484-.291.813-.105.325-.223.705-.356 1.14-.01.08-.033.137-.066.171a.143.143 0 01-.134.047c-.183-.024-.316-.086-.398-.188-.082-.1-.111-.24-.088-.419.03-.239.078-.488.14-.747.067-.258.155-.528.263-.81.04-.123.07-.233.093-.33.028-.102.047-.195.058-.279.028-.216-.042-.413-.21-.592-.162-.179-.239-.3-.23-.367a.767.767 0 01.077-.261.453.453 0 01.165-.172c.168-.078.323-.153.466-.225a.133.133 0 00.075-.083.689.689 0 00.046-.187l.019-.148.02-.155c.069-.415.137-.847.205-1.296l.02-.155c.01-.07.016-.162.022-.276.001-.085.01-.163.023-.233.014-.074.026-.142.034-.203a5.005 5.005 0 00-.047-.25.77.77 0 01-.002-.2 3.64 3.64 0 01.048-.258c.025-.12.041-.207.048-.258a2.6 2.6 0 00.014-.277c.006-.119.013-.209.021-.27a1.1 1.1 0 01.176-.47c.1-.144.24-.281.418-.41a1.78 1.78 0 01.51-.234c.173-.05.344-.063.513-.04.08.01.196.032.349.066.158.03.282.051.37.063.062.008.221.081.48.22.106.023.2.05.282.08.083.025.149.05.198.075.11.072.196.128.257.17a.727.727 0 00.134.067c.076.039.141.07.195.097a.485.485 0 01.138.09l.198.126c.08.048.168.102.265.163.158.106.302.225.433.356.135.133.26.273.374.421.128.188.219.37.273.543.054.17.07.334.05.493-.006.047-.02.115-.04.202a2.55 2.55 0 01-.073.284c-.032.134-.122.273-.27.416a3.558 3.558 0 01-.615.442 6.72 6.72 0 01-.644.337c-.197.084-.376.14-.537.166a.774.774 0 00-.156.102c-.053.04-.16.093-.321.158s-.379.144-.653.237c-.499.168-.852.277-1.058.327-.206.044-.315.109-.326.193zm-.297-3.485c.098-.054.19-.107.278-.157a.475.475 0 01.323-.058c.056.007.116.08.179.216.068.133.099.23.09.29a1.587 1.587 0 01-.064.221 9.948 9.948 0 01-.175.464c-.167.44-.265.718-.294.834-.03.11-.083.285-.161.522a2.339 2.339 0 00-.088.232c-.005.042-.002.074.01.094a.096.096 0 00.066.038 176.29 176.29 0 001.544-.543c.039-.004.08-.01.124-.02a2.81 2.81 0 00.127-.04l.123-.12c.294-.138.6-.287.916-.446a1.79 1.79 0 00.462-.361.746.746 0 00.187-.39c.022-.174-.056-.358-.236-.553-.18-.196-.46-.397-.844-.604a6.075 6.075 0 00-.896-.417 3.425 3.425 0 00-.754-.199c-.3-.039-.534-.014-.703.073-.164.084-.259.229-.286.435-.02.16-.025.283-.012.37.013.083.041.122.084.119zm5.34 4.793c.013-.098.01-.256-.01-.473a2.433 2.433 0 01-.008-.487c.008-.061.025-.154.051-.28.031-.13.05-.224.059-.285.022-.174.044-.436.066-.785.027-.355.052-.618.075-.792.038-.29.103-.663.196-1.118.092-.456.21-.989.351-1.6.057-.22.129-.386.215-.494.09-.107.196-.153.318-.137.042.006.078.039.108.1.035.062.069.152.101.27.094.118.19.226.287.324a.702.702 0 01.153.306c.028.113.032.245.013.395a2.72 2.72 0 01-.168.572 2.824 2.824 0 00-.157.551 5.779 5.779 0 01-.109.616 1.539 1.539 0 01-.12.37l-.106.215c0 .143-.002.303-.006.479a23.8 23.8 0 00-.137.833 5.881 5.881 0 00-.045.895c.008.306.032.617.072.932.058.427.154.757.286.988.137.228.306.355.508.381.103.014.2.002.29-.033a.899.899 0 00.284-.2c.072-.076.142-.155.21-.237.067-.082.135-.161.202-.238a2.87 2.87 0 00.234-.256c.085-.108.18-.236.286-.384a16.3 16.3 0 01.378-.816c.136-.274.272-.549.408-.827l.138-.347c.057-.145.117-.31.18-.498.12-.223.248-.538.387-.944.143-.405.308-.899.493-1.48.05-.09.11-.203.18-.341.076-.139.161-.299.256-.482.028-.068.078-.173.15-.317.07-.143.168-.323.291-.541a.445.445 0 01.237-.227.688.688 0 01.378-.043c.089.011.144.078.167.2.027.118.026.294-.005.529-.058.445-.185.984-.382 1.616a21.262 21.262 0 01-.801 2.142c-.024.073-.06.166-.108.279a11.68 11.68 0 01-.156.373 3.02 3.02 0 01-.075.304c-.03.111-.067.24-.115.386-.11.253-.21.526-.3.82-.086.293-.164.6-.234.92a1.194 1.194 0 01-.056.207 5.667 5.667 0 01-.107.33 3.043 3.043 0 00-.154.63c-.002.128-.004.25-.004.364.052.074.09.136.111.186.028.047.04.084.036.112-.04.081-.1.166-.184.255-.078.09-.179.184-.301.283a1.51 1.51 0 01-.368.245.584.584 0 01-.308.06c-.085-.01-.16-.073-.226-.187a.524.524 0 01-.08-.318l.007-.056a1.08 1.08 0 00.07-.155.137.137 0 00-.012-.073 1.106 1.106 0 01-.014-.11l.056-.1a2.13 2.13 0 00.077-.154 4.295 4.295 0 00-.024-.089.723.723 0 00-.034-.126c.013-.027.027-.058.041-.095.015-.04.036-.09.063-.149a.896.896 0 00.004-.142l.04-.138c.017-.065.04-.143.066-.235.029-.077.051-.14.067-.191a.584.584 0 00.038-.124.203.203 0 00-.01-.094c-.005-.03-.017-.05-.034-.062-.03.006-.074.036-.133.09-.055.055-.12.132-.195.232-.092.117-.17.212-.237.284a15.83 15.83 0 00-.126.14l-.04.096c-.15.157-.281.287-.395.392-.113.1-.199.17-.256.21-.1.067-.217.126-.352.175a2.11 2.11 0 01-.465.111c-.092.008-.177.02-.256.039a1.455 1.455 0 01-.462-.132.685.685 0 01-.283-.237 3.398 3.398 0 01-.495-1.202 4.29 4.29 0 01-.03-1.406zm6.11 4.094a6.852 6.852 0 01.528-.317.804.804 0 00.227-.15.291.291 0 00.086-.168 7.48 7.48 0 00.048-.422l.018-.141c.06-.45.117-.8.173-1.05.056-.25.107-.404.153-.46l.013-.212-.035-.055.017-.134a.838.838 0 00.02-.104c.034-.258-.06-.437-.28-.538-.216-.1-.31-.257-.281-.472.008-.066.084-.137.228-.214a4.79 4.79 0 01.622-.276l.204-.739c.073-.267.156-.561.25-.883a3.055 3.055 0 01-.022-.153.527.527 0 010-.114 1.698 1.698 0 01.32-.81 3.728 3.728 0 01.462-.419c.085-.06.149-.114.193-.16.045-.052.07-.094.074-.127a.109.109 0 00-.038-.097c-.025-.027-.065-.045-.121-.052-.174-.023-.437 0-.789.069-.352.064-.612.085-.78.063a.298.298 0 01-.124-.038c-.022-.017-.03-.042-.026-.075.012-.094.027-.175.046-.244a.522.522 0 01.054-.143.953.953 0 00.206-.152.266.266 0 00.092-.16c.003-.023.03-.05.082-.082a.74.74 0 01.252-.067c.448-.066.788-.117 1.021-.153l.409-.062a6.06 6.06 0 01.77-.042c.244-.002.469.01.675.038.024.003.07.016.138.04.07.018.116.024.14.017.096-.002.197-.005.303-.01.028.003.108.028.24.074.133.041.318.101.556.18.053-.003.11-.007.173-.014a.795.795 0 01.33.108.516.516 0 01.195.204.919.919 0 00.187.046.56.56 0 01.317.148.88.88 0 01.23.323c.049.13.085.26.106.386.023.122.025.247.009.373a1.638 1.638 0 01-.254.69 1.994 1.994 0 01-.552.557c-.025.01-.151.08-.378.208-.22.124-.544.296-.968.518-.046.022-.1.056-.163.1-.064.044-.138.09-.226.135-.414.18-.813.352-1.197.516a6.648 6.648 0 00-.736.326c-.17.093-.257.162-.263.21a.344.344 0 00.086.268c.07.08.185.16.341.237l.771.394c.286.147.59.318.913.512a.528.528 0 01.113.072l.156.114c.384.202.658.426.821.672.169.24.235.505.198.79-.055.418-.484.765-1.288 1.041-.798.278-1.97.487-3.514.63a1.796 1.796 0 01-.11.185 4.391 4.391 0 00-.102.18.325.325 0 01-.157.101.443.443 0 01-.217.022.256.256 0 01-.198-.126.588.588 0 01-.067-.31c-.033-.037-.062-.055-.086-.053l-.415.053a4.562 4.562 0 00-.263-.177.352.352 0 01-.098-.12.208.208 0 01-.026-.132.144.144 0 01.056-.1c.036-.02.087-.044.152-.074zm2.594-3.052c-.075-.01-.15.047-.223.17-.068.12-.135.305-.2.554l-.15.703-.147.696a4.102 4.102 0 00-.12.363l.006.072.052.036c.194-.027.41-.054.647-.08.16.02.255.019.287-.006.037-.028.44-.157 1.209-.386.326-.09.574-.182.744-.275.17-.097.26-.188.271-.272a.22.22 0 00-.044-.156.869.869 0 00-.17-.172 4.898 4.898 0 00-.683-.475 7.41 7.41 0 00-.98-.493 2.64 2.64 0 00-.168-.079 8.02 8.02 0 01-.224-.143.284.284 0 00-.107-.057zm2.051-5.097a1.869 1.869 0 00-.441-.014.407.407 0 00-.248.089.68.68 0 00-.148.202 5.466 5.466 0 00-.184.427 3.39 3.39 0 00-.087.339 6.12 6.12 0 00-.054.415 1.9 1.9 0 01-.202.288l.01.188c-.086.227-.15.41-.192.547a2.14 2.14 0 00-.072.276c-.009.07-.001.122.023.154a.163.163 0 00.114.057c.047.006.164-.03.35-.111.192-.08.456-.203.793-.37l.847-.41c.199-.099.313-.153.343-.163a38.14 38.14 0 00.409-.39c.092-.089.162-.168.21-.238a.512.512 0 00.083-.204.479.479 0 00-.066-.316.86.86 0 00-.286-.273 4.361 4.361 0 00-.685-.29 42.06 42.06 0 00-.353-.145.952.952 0 00-.164-.058z" fill="#fff"/></g><defs><linearGradient id="paint0_linear" x1="42.744" y1="5.419" x2="71.888" y2="78.196" gradientUnits="userSpaceOnUse"><stop stop-color="#E20613"/><stop offset=".31" stop-color="#CF0B14"/><stop offset=".93" stop-color="#9F1815"/><stop offset="1" stop-color="#991915"/></linearGradient><clipPath id="clip0"><path fill="#fff" transform="rotate(9.217 6.03 74.812) skewX(.033)" d="M0 0h92.716v72.741H0z"/></clipPath><filter id="filter0_d" x="13.764" y="10.29" width="88.493" height="65.514" filterUnits="userSpaceOnUse" color-interpolation-filters="sRGB"><feFlood flood-opacity="0" result="BackgroundImageFix"/><feColorMatrix in="SourceAlpha" values="0 0 0 0 0 0 0 0 0 0 0 0 0 0 0 0 0 0 127 0"/><feOffset dx="3" dy="3"/><feGaussianBlur stdDeviation="2"/><feColorMatrix values="0 0 0 0 0 0 0 0 0 0 0 0 0 0 0 0 0 0 0.5 0"/><feBlend in2="BackgroundImageFix" result="effect1_dropShadow"/><feBlend in="SourceGraphic" in2="effect1_dropShadow" result="shape"/></filter></defs></svg>