<svg width="24" height="24" fill="none" xmlns="http://www.w3.org/2000/svg"><path opacity=".7" d="M23.537 4.366a9.313 9.313 0 01-2.772.796 5.038 5.038 0 002.122-2.793 9.479 9.479 0 01-3.068 1.227C18.938 2.612 17.685 2 16.295 2c-2.667 0-4.829 2.262-4.829 5.05 0 .395.043.781.125 1.15-4.011-.21-7.57-2.22-9.951-5.277a5.19 5.19 0 00-.653 2.539c0 1.752.853 3.299 2.147 4.203a4.668 4.668 0 01-2.187-.634v.063c0 2.447 1.665 4.488 3.873 4.953a4.69 4.69 0 01-1.272.177c-.312 0-.614-.032-.91-.094.615 2.008 2.398 3.468 4.51 3.508A9.42 9.42 0 010 19.728 13.216 13.216 0 007.401 22c8.882 0 13.737-7.696 13.737-14.37l-.016-.654a9.898 9.898 0 002.415-2.61z" fill="#000"/></svg>