<svg width="40" height="40" fill="none" xmlns="http://www.w3.org/2000/svg"><path fill-rule="evenodd" clip-rule="evenodd" d="M20.813 7.784c-4.436 0-7.99 3.33-7.99 7.387 0 .978.405 2.322 1.09 3.866.679 1.527 1.602 3.187 2.577 4.778a80.759 80.759 0 004.308 6.3 103.924 103.924 0 003.806-5.643c1.065-1.703 2.123-3.531 2.913-5.2.802-1.692 1.287-3.136 1.287-4.1 0-4.058-3.554-7.388-7.99-7.388zm0 23.278l.469.327-.45.603-.474-.586c-.728-.9-2.884-3.796-4.86-7.021-.99-1.613-1.94-3.32-2.645-4.907-.698-1.572-1.185-3.09-1.185-4.307 0-4.719 4.118-8.504 9.145-8.504 5.027 0 9.145 3.785 9.145 8.504 0 1.23-.586 2.868-1.391 4.567-.816 1.723-1.9 3.593-2.976 5.313a105.044 105.044 0 01-4.211 6.205l-.073.098-.019.026-.006.008-.469-.326zm0-18.51c-2.047 0-3.706 1.606-3.706 3.586 0 1.981 1.659 3.587 3.706 3.587 2.047 0 3.707-1.606 3.707-3.587 0-1.98-1.66-3.586-3.707-3.586zm-4.861 3.586c0-2.598 2.176-4.704 4.861-4.704 2.685 0 4.861 2.106 4.861 4.704s-2.176 4.704-4.86 4.704c-2.686 0-4.862-2.106-4.862-4.704z" fill="#fff"/></svg>