<svg width="48" height="48" fill="none" xmlns="http://www.w3.org/2000/svg"><path d="M16.995 25.963l-.395.395v8.693l.79.593h1.976l.79-.79v-8.1l-.395-.791h-2.765zm6.279-2.371l-.464.575v11l.816.675h1.756l.702-1v-10.25c.142-.487.133-.73-.351-1h-2.459zm5.516-5.013l-.392.883v15.344l.785 1.046h1.96l.98-1.3V20.16l-.391-1.581H28.79z" fill="#C43B55"/><path fill-rule="evenodd" clip-rule="evenodd" d="M30.671 12.013c.14.033.26.127.324.256l.563 1.126a.487.487 0 01-.87.436c-1.144 3.42-3.532 5.747-6.115 7.272-2.875 1.697-6.018 2.42-8.052 2.564a.487.487 0 11-.069-.97c1.907-.137 4.9-.822 7.626-2.432 2.375-1.403 4.527-3.492 5.608-6.518a.487.487 0 01-.544-.805l1.125-.845a.487.487 0 01.404-.084zm-2.759 7.864c0-.986.799-1.785 1.785-1.785h1.129c.986 0 1.785.8 1.785 1.785v6.861a.487.487 0 01-.974 0v-6.861a.811.811 0 00-.811-.811h-1.13a.811.811 0 00-.81.81v14.339a.81.81 0 00.81.811h1.13a.811.811 0 00.811-.811V28.43a.487.487 0 11.974 0v5.784c0 .986-.8 1.785-1.785 1.785h-1.13c-.985 0-1.784-.8-1.784-1.785V19.877zm-5.758 5.08c0-.986.799-1.785 1.785-1.785h1.129c.986 0 1.785.8 1.785 1.785v9.258c0 .985-.8 1.784-1.785 1.784h-1.386a1.528 1.528 0 01-1.528-1.527.487.487 0 11.973 0c0 .306.248.554.555.554h1.386a.811.811 0 00.811-.811v-9.258a.811.811 0 00-.811-.811h-1.13a.811.811 0 00-.81.81v8.474a.487.487 0 11-.974 0v-8.473zm-6.097 1.963c0-.948.768-1.715 1.715-1.715h1.2c.985 0 1.784.799 1.784 1.784v7.226c0 .986-.799 1.785-1.784 1.785h-1.13c-.985 0-1.785-.8-1.785-1.785v-6.068a.487.487 0 11.974 0v6.068a.81.81 0 00.811.811h1.13a.811.811 0 00.81-.81v-7.227a.811.811 0 00-.81-.81h-1.2a.741.741 0 00-.741.74.487.487 0 01-.974 0z" fill="#000"/></svg>