<svg width="91" height="55" fill="none" xmlns="http://www.w3.org/2000/svg"><path d="M45.5.378C28.113.378 12.346 9.89.712 25.34a3.602 3.602 0 000 4.3C12.347 45.11 28.113 54.622 45.5 54.622c17.386 0 33.153-9.512 44.788-24.962a3.602 3.602 0 000-4.3C78.653 9.89 62.887.377 45.5.377zm1.247 46.221c-11.541.726-21.072-8.786-20.346-20.346.596-9.531 8.32-17.256 17.852-17.852 11.541-.726 21.072 8.786 20.346 20.346-.614 9.513-8.34 17.238-17.852 17.852zm-.577-8.823c-6.217.39-11.355-4.729-10.946-10.946.317-5.138 4.487-9.289 9.625-9.624 6.217-.39 11.355 4.728 10.945 10.946-.335 5.156-4.505 9.307-9.624 9.624z" fill="#FFF5F7"/></svg>