<svg width="40" height="40" fill="none" xmlns="http://www.w3.org/2000/svg"><path fill-rule="evenodd" clip-rule="evenodd" d="M30.24 12.976H9.286a1.31 1.31 0 00-1.31 1.31v13.095c0 .724.587 1.31 1.31 1.31h20.952a1.31 1.31 0 001.31-1.31V14.286a1.31 1.31 0 00-1.31-1.31zM9.286 11.668a2.619 2.619 0 00-2.619 2.619v13.095a2.619 2.619 0 002.619 2.62h20.952a2.619 2.619 0 002.62-2.62V14.286a2.619 2.619 0 00-2.62-2.619H9.287z" fill="#fff"/><path fill-rule="evenodd" clip-rule="evenodd" d="M17.717 21.446l-9.822-7.858.818-1.023 9.822 7.858a1.964 1.964 0 002.454 0l9.822-7.858.818 1.023-9.822 7.858a3.274 3.274 0 01-4.09 0z" fill="#fff"/></svg>