<svg width="100" height="100" fill="none" xmlns="http://www.w3.org/2000/svg"><g clip-path="url(#clip0)"><path d="M50 94c-9.62 0-18.384-3.619-24.964-9.551C17.639 77.78 13 68.19 13 57.532m59.024-29.307C81.11 34.87 87 45.523 87 57.532c0 6.642-1.802 12.87-4.95 18.234M34.143 24.573A37.089 37.089 0 0141.63 22" stroke="#C43B55" stroke-width="3" stroke-linecap="round"/><path d="M11.577 73.67c-4.188-10-4.24-20.686-.938-30.109 3.712-10.591 11.663-19.588 22.743-24.228m56.158 48.6c-2.953 12.34-11.464 23.099-23.947 28.326a40.46 40.46 0 01-21.11 2.792m32.364-72.086a41.801 41.801 0 015.934 6.665" stroke="#B4D1FA" stroke-width="3" stroke-linecap="round"/><path d="M27.323 27.97a1.973 1.973 0 00-2.863-.066l-3.58 3.579a1.964 1.964 0 00.064 2.858 2.067 2.067 0 002.684.157l2.062 2.058 3.812-3.807-2.027-2.067a2.067 2.067 0 00-.152-2.711z" fill="#0A3D76"/><circle cx="50" cy="57.421" r="31.316" fill="#D3E1F4"/><path d="M50.376 91.076A33.478 33.478 0 1183.848 57.6a33.517 33.517 0 01-33.472 33.476zm0-63.078A29.61 29.61 0 1079.978 57.6a29.643 29.643 0 00-29.602-29.603z" fill="#0A3D76"/><path d="M50.87 30.579h-.684a1 1 0 00-1 1v2.474a1 1 0 001 1h.684a1 1 0 001-1v-2.474a1 1 0 00-1-1zm-19.372 7.636l-.408.407a1 1 0 000 1.415l1.774 1.774a1 1 0 001.414 0l.408-.407a1 1 0 000-1.414l-1.774-1.775a1 1 0 00-1.414 0zM27.16 56.526h-2.922a1 1 0 00-1 1v.685a1 1 0 001 1h2.921a1 1 0 001-1v-.685a1 1 0 00-1-1zm5.7 16.755l-1.77 1.772a1 1 0 000 1.414l.407.408a1 1 0 001.415 0l1.77-1.772a1 1 0 000-1.414l-.407-.408a1 1 0 00-1.415 0zm18.01 6.956h-.684a1 1 0 00-1 1v2.474a1 1 0 001 1h.684a1 1 0 001-1v-2.474a1 1 0 00-1-1zm15.687-6.969l-.407.408a1 1 0 000 1.415l1.77 1.77a1 1 0 001.415 0l.408-.407a1 1 0 000-1.414l-1.771-1.772a1 1 0 00-1.415 0zm9.813-16.742h-2.474a1 1 0 00-1 1v.685a1 1 0 001 1h2.474a1 1 0 001-1v-.685a1 1 0 00-1-1zm-8.442-18.309l-1.775 1.774a1 1 0 000 1.414l.408.408a1 1 0 001.414 0l1.775-1.774a1 1 0 000-1.414l-.408-.408a1 1 0 00-1.414 0zM55.002 16.71h-8.5v10.737h8.5V16.711z" fill="#0A3D76"/><path d="M57.489 10H44.014a.644.644 0 00-.644.644v7.212c0 .356.288.644.644.644h13.475a.644.644 0 00.644-.644v-7.212a.644.644 0 00-.644-.644z" fill="#0A3D76"/><path d="M70.66 57.524v.076a19.983 19.983 0 01-5.995 14.128h-.108a20.082 20.082 0 01-14.181 5.816h-.032a19.81 19.81 0 01-14.083-5.816h.058L50.528 57.42V37.44c2.63-.028 5.237.482 7.662 1.501 2.425 1.02 4.771 2.556 6.591 4.454a20.065 20.065 0 015.878 14.128z" fill="#C1272D"/><path d="M64.772 43.392c-3.588-3.866-8.896-5.968-14.235-5.968V57.42l14.235-14.03z" fill="#219653"/><path d="M52.364 59.05c-1.617 1.68-4.011 1.797-5.538.056l-.133-.157c-1.53-1.759-1.054-4.111.814-5.477 4.207-3.057 13.06-8.32 16.932-10.746a.725.725 0 01.95 1.086c-3.479 4.041-9.406 11.502-13.025 15.237z" fill="#0A3D76"/></g><defs><clipPath id="clip0"><path fill="#fff" d="M0 0h100v100H0z"/></clipPath></defs></svg>