<svg width="172" height="141" fill="none" xmlns="http://www.w3.org/2000/svg"><path d="M161.034 73.074c-6.302-19.228-40.799-30.431-78.472-30.431-32.725 0-72.16 11.194-78.471 30.43-7.483 22.908 26.747 49.51 78.471 49.51 51.724 0 85.988-26.602 78.472-49.51z" fill="url(#paint0_radial)"/><path style="mix-blend-mode:multiply" d="M81.98 141c45.277 0 81.981-20.657 81.981-46.14 0-25.482-36.704-46.14-81.98-46.14C36.703 48.72 0 69.379 0 94.86 0 120.343 36.704 141 81.98 141z" fill="url(#paint1_radial)"/><path d="M82.562 120.693c-41.489 0-68.91-16.402-76.842-31.643-2.677-5.158-3.242-10.216-1.663-15.048 2.819-8.594 12.38-16.578 26.914-22.48 14.534-5.903 32.942-9.197 51.591-9.197s36.974 3.27 51.591 9.197c14.617 5.927 24.112 13.886 26.922 22.48 1.572 4.807 1.015 9.865-1.662 15.048-7.932 15.241-35.362 31.643-76.85 31.643z" fill="url(#paint2_linear)"/><path d="M82.562 118.938c-40.109 0-66.624-15.885-74.29-30.599-2.585-5.016-3.134-9.873-1.604-14.521 2.719-8.31 11.964-16.026 26.016-21.736 14.051-5.71 31.852-8.896 49.886-8.896 18.034 0 35.752 3.16 49.887 8.896 14.134 5.735 23.28 13.376 26.024 21.736 1.522 4.648.981 9.53-1.613 14.522-7.674 14.738-34.189 30.598-74.306 30.598z" fill="url(#paint3_radial)"/><g filter="url(#filter0_f)"><path d="M5.365 75.453c-1.572 4.655-1.008 9.52 1.65 14.543 7.878 14.735 35.126 30.643 76.346 30.643 41.227 0 68.476-15.882 76.363-30.643 2.665-4.999 3.221-9.888 1.657-14.543" stroke="#fff" stroke-width="2"/></g><path opacity=".22" d="M131.135 77.806c-3.882-9.564-25.392-16.26-48.572-16.26-23.181 0-44.69 6.687-48.565 16.26-4.623 11.386 16.704 24.637 48.565 24.637 31.86 0 53.195-13.25 48.572-24.637z" fill="url(#paint4_linear)"/><g filter="url(#filter1_f)" opacity=".34"><path d="M152.138 96.173c-7.317 3.01-26.607-5.434-35.337-10.032l3.326-4.598 39.494 6.688c.554 1.393-.167 4.932-7.483 7.942z" fill="#341E01" fill-opacity=".6"/></g><g filter="url(#filter2_f)" opacity=".34"><path d="M155.048 67.33c17.46 11.287-59.864 26.753-61.527 26.753l19.123-46.817 30.763 2.09 14.135 9.614-2.494 8.36z" fill="#2B1800" fill-opacity=".7"/></g><path style="mix-blend-mode:multiply" d="M81.747 108.479c27.626 0 50.02-12.31 50.02-27.496 0-15.186-22.394-27.497-50.02-27.497-27.625 0-50.02 12.31-50.02 27.497 0 15.185 22.395 27.496 50.02 27.496z" fill="url(#paint5_radial)"/><path d="M141.462 24.694s0 18.568-4.099 33.691c0 0-9.578 17.414-22.341 26.585 0 0-12.006 9.932-33.258 9.932a60.142 60.142 0 01-33.258-9.932c-12.762-9.196-22.332-26.585-22.332-26.585-4.14-15.165-4.14-33.691-4.14-33.691" fill="url(#paint6_radial)"/><path style="mix-blend-mode:multiply" d="M132.964 65.374s-10.75 3.746-12.18 5.46c0 0-3.326 7.314-4.016 12.765 6.768-5.4 12.505-12.808 16.196-18.225z" fill="url(#paint7_linear)"/><path d="M81.748 76.527c25.292 0 47.708-7.282 55.615-18.184 4.099-15.132 4.099-33.65 4.099-33.65H22.033s0 18.56 4.1 33.684c7.599 10.86 30.322 18.15 55.615 18.15z" fill="url(#paint8_linear)"/><path style="mix-blend-mode:multiply" opacity=".3" d="M133.896 45.093s-1.364-6.613-13.37-6.764c-12.006-.15-15.481 9.94-15.481 18.133 0 7.432 1.779 19.412 11.923 20.976 10.143 1.563 20.245-9.422 15.622-11.27a8.27 8.27 0 00-7.907 1.33c-2.444 2.131-9.511 6.353-9.511-8.787 0-7.633 3.101-11.704 6.061-11.612 2.303.084 4.523 2.684 5.113 8.093 0 0 3.858 2.349 6.244-.627 2.387-2.977 1.306-9.472 1.306-9.472z" fill="url(#paint9_linear)"/><path style="mix-blend-mode:multiply" opacity=".4" d="M126.687 52.809a55.235 55.235 0 00-5.313 15.123 77.061 77.061 0 0010.983-5.434 34.94 34.94 0 003.093-5.985c.89-3.094-8.763-3.704-8.763-3.704z" fill="url(#paint10_linear)"/><path d="M81.748 47.342c32.979 0 59.714-10.159 59.714-22.69s-26.735-22.69-59.714-22.69c-32.98 0-59.715 10.159-59.715 22.69s26.735 22.69 59.715 22.69z" fill="url(#paint11_linear)"/><path d="M81.748 45.435c30.88 0 55.914-9.511 55.914-21.244 0-11.732-25.034-21.243-55.914-21.243-30.881 0-55.915 9.511-55.915 21.244 0 11.732 25.034 21.243 55.915 21.243z" fill="url(#paint12_linear)"/><path d="M128.392 60.316a3.753 3.753 0 01-1.949-1.56 3.793 3.793 0 01-.546-2.444 15.068 15.068 0 015.322-9.882c2.66-2.324 7.349-3.745 12.521-3.745 12.763 0 24.744 9.731 24.744 24.077 0 9.84-7.367 16.486-11.491 18.91-2.444 1.447-6.651 2.509-11.332 2.509-12.838 0-20.969-9.33-24.112-13.811a3.973 3.973 0 01.158-4.832 18.883 18.883 0 013.766-3.47 10.69 10.69 0 017.608-1.956s2.37 6.972 8.589 9.046c8.314 2.783 13.403 0 13.403 0s3.591-14.213-10.809-17.557c-10.293-2.382-7.708 7.324-15.798 4.799l-.074-.084z" fill="url(#paint13_linear)"/><g filter="url(#filter3_f)"><path d="M146.733 88.23c-9.977 1.004-19.954-7.663-23.696-12.121 3.658 3.678 9.04 7.233 15.798 7.106 6.678-.126 12.055-1.672 16.213-9.614.929-1.776 4.711 6.27 6.236 8.36-.693 1.672-4.573 5.267-14.551 6.27z" fill="url(#paint14_linear)"/></g><g filter="url(#filter4_f)"><path d="M126.935 58.756a3.752 3.752 0 001.948 1.56l.075.084c.746.41 3.015.171 4.056 0l-1.304-13.97a15.071 15.071 0 00-5.321 9.882 3.78 3.78 0 00.546 2.444z" fill="url(#paint15_linear)" fill-opacity=".28"/></g><path d="M155.048 73.04s.083-.484.158-1.354a20.763 20.763 0 000-3.561 15.096 15.096 0 00-1.223-4.799 11.588 11.588 0 00-1.413-2.383 10.663 10.663 0 00-1.979-2.04 15.35 15.35 0 00-4.989-2.633c-.831-.27-1.678-.49-2.536-.66a10.275 10.275 0 00-2.311-.21 6.379 6.379 0 00-3.326.954c-.357.225-.632.426-.831.568l-.275.226.242-.26c.236-.24.489-.463.756-.668a6.333 6.333 0 013.384-1.288 11.05 11.05 0 012.445.076 17.54 17.54 0 012.652.56 16.72 16.72 0 012.719 1.053c.913.459 1.772 1.02 2.561 1.672a12.001 12.001 0 013.533 4.782c.637 1.615.983 3.33 1.023 5.066a17.492 17.492 0 01-.274 3.612c-.079.435-.184.865-.316 1.287z" fill="#fff"/><path d="M155.048 73.04s-5.089 2.818-13.403 0c-6.22-2.073-8.589-9.045-8.589-9.045a10.69 10.69 0 00-7.608 1.956 18.7 18.7 0 00-4.099 3.896c1.979 4.289 5.579 9.146 11.233 11.286 13.735 5.242 21.526-4.155 22.466-8.093z" fill="url(#paint16_linear)"/><path d="M121.374 69.88s.308.602.906 1.614c.3.501.682 1.112 1.156 1.772.474.66 1.039 1.388 1.663 2.149a21.06 21.06 0 002.295 2.248 19.522 19.522 0 002.926 2.032c.27.16.547.305.832.435.27.145.548.276.831.393.291.108.599.259.873.343l.94.292c1.247.415 2.526.722 3.824.92l1.963.2h1.945c.64 0 1.281-.159 1.913-.225.631-.067 1.213-.301 1.82-.435s1.139-.426 1.663-.619c.524-.192 1.065-.501 1.563-.769.499-.267.965-.577 1.397-.886.433-.31.832-.619 1.222-.953a18.634 18.634 0 001.904-1.931c.25-.326.499-.619.699-.903l.524-.836c.222-.394.419-.802.59-1.22l.166-.46-.124.468a8.323 8.323 0 01-.491 1.287l-.474.836c-.183.31-.416.619-.64.97-.549.75-1.164 1.45-1.838 2.09-.365.36-.831.677-1.222 1.037-.391.359-.923.635-1.405.978-.482.342-1.048.568-1.588.836-.54.267-1.164.468-1.771.677-.607.209-1.247.35-1.896.485-.648.133-1.313.209-1.987.267-.673.059-1.355.05-2.037.042l-2.045-.175a25.425 25.425 0 01-3.941-1.004l-.94-.31c-.349-.108-.623-.258-.939-.384-.316-.125-.599-.276-.89-.418a7.87 7.87 0 01-.831-.468 19.236 19.236 0 01-5.23-4.606 23.71 23.71 0 01-2.628-4.18 15.939 15.939 0 01-.573-1.246l-.125-.343z" fill="#fff"/><path style="mix-blend-mode:screen" d="M105.069 72.238a102.478 102.478 0 008.148-1.772l1.123-25.373-8.63 2.123-.641 25.022z" fill="url(#paint17_linear)"/><path style="mix-blend-mode:screen" d="M101.544 72.815l1.971-.31 1.097-25.164-2.494.602-.574 24.872z" fill="url(#paint18_linear)"/><g filter="url(#filter5_f)"><ellipse cx="82.712" cy="23.022" rx="56.954" ry="20.9" fill="#fff"/></g><ellipse cx="82.712" cy="23.858" rx="56.954" ry="20.9" fill="#9C6720"/><g filter="url(#filter6_f)"><ellipse cx="82.712" cy="23.858" rx="52.797" ry="19.228" fill="#E4AA60"/></g><g filter="url(#filter7_f)"><ellipse cx="82.712" cy="23.858" rx="43.651" ry="15.048" fill="#F1C998"/></g><g filter="url(#filter8_f)"><ellipse cx="82.712" cy="23.858" rx="36.168" ry="10.868" fill="#FFE0BA"/></g><g filter="url(#filter9_f)"><path d="M144.239 42.668c12.762 0 24.328 10.15 24.328 24.495 0 9.84-6.901 15.717-11.025 18.142" stroke="url(#paint19_linear)" stroke-opacity=".5"/></g><g filter="url(#filter10_f)"><path d="M141.029 24.694c0 12.53-26.735 22.69-59.714 22.69-32.98 0-59.714-10.16-59.714-22.69" stroke="#fff" stroke-width="2"/></g><defs><linearGradient id="paint2_linear" x1="79.141" y1="122.482" x2="79.141" y2="44.501" gradientUnits="userSpaceOnUse"><stop stop-color="#fff"/><stop offset="1" stop-color="#fff"/></linearGradient><linearGradient id="paint4_linear" x1="85.546" y1="102.426" x2="85.546" y2="61.545" gradientUnits="userSpaceOnUse"><stop offset=".33" stop-color="#D8D8D8"/><stop offset="1" stop-color="#B5B5B5"/></linearGradient><linearGradient id="paint7_linear" x1="126.288" y1="68.986" x2="117.441" y2="82.116" gradientUnits="userSpaceOnUse"><stop offset=".24" stop-color="#B6AAA0"/><stop offset=".27" stop-color="#BBB0A7"/><stop offset=".48" stop-color="#DCD5D1"/><stop offset=".64" stop-color="#F0ECEA"/><stop offset=".73" stop-color="#F7F5F4"/></linearGradient><linearGradient id="paint8_linear" x1="22.283" y1="53.285" x2="141.313" y2="43.453" gradientUnits="userSpaceOnUse"><stop stop-color="#FEFEFE"/><stop offset=".01" stop-color="#E8E4E1"/><stop offset=".02" stop-color="#D6CFC9"/><stop offset=".03" stop-color="#C7BEB7"/><stop offset=".05" stop-color="#BDB3AA"/><stop offset=".06" stop-color="#B8ACA2"/><stop offset=".1" stop-color="#B6AAA0"/><stop offset=".21" stop-color="#D2CBC5"/><stop offset=".68" stop-color="#F7F5F4"/><stop offset="1" stop-color="#E1DCD8"/></linearGradient><linearGradient id="paint9_linear" x1="103.016" y1="51.279" x2="131.098" y2="61.77" gradientUnits="userSpaceOnUse"><stop stop-color="#fff"/><stop offset=".22" stop-color="#F9F8F7"/><stop offset=".56" stop-color="#E9E4E1"/><stop offset=".89" stop-color="#D5CBC5"/><stop offset=".98" stop-color="#D5CBC5"/></linearGradient><linearGradient id="paint10_linear" x1="132.199" y1="51.354" x2="125.997" y2="66.839" gradientUnits="userSpaceOnUse"><stop offset=".11" stop-color="#D5CBC5"/><stop offset=".44" stop-color="#E9E4E1"/><stop offset=".78" stop-color="#F9F8F7"/><stop offset="1" stop-color="#fff"/></linearGradient><linearGradient id="paint11_linear" x1="81.748" y1="47.342" x2="81.748" y2="1.963" gradientUnits="userSpaceOnUse"><stop stop-color="#F2F2F2"/><stop offset=".24" stop-color="#E5E4E4"/><stop offset=".69" stop-color="#C3BFBE"/><stop offset="1" stop-color="#A9A2A0"/></linearGradient><linearGradient id="paint12_linear" x1="25.825" y1="24.192" x2="137.662" y2="24.192" gradientUnits="userSpaceOnUse"><stop stop-color="#B6ADA4"/><stop offset=".13" stop-color="#C9C3BD"/><stop offset=".39" stop-color="#F6F6F6"/><stop offset=".47" stop-color="#F2F2F2"/><stop offset=".55" stop-color="#E5E5E5"/><stop offset=".56" stop-color="#E2E2E2"/><stop offset=".68" stop-color="#DAD8D5"/><stop offset=".79" stop-color="#D7D3CF"/><stop offset=".84" stop-color="#C1B9B2"/><stop offset=".9" stop-color="#B1A79D"/><stop offset=".95" stop-color="#A79C91"/><stop offset="1" stop-color="#A4988D"/></linearGradient><linearGradient id="paint13_linear" x1="120.784" y1="65.374" x2="168.484" y2="65.374" gradientUnits="userSpaceOnUse"><stop offset=".02" stop-color="#D5CBC5"/><stop offset=".11" stop-color="#D5CBC5"/><stop offset=".44" stop-color="#E9E4E1"/><stop offset=".78" stop-color="#F9F8F7"/><stop offset="1" stop-color="#fff"/></linearGradient><linearGradient id="paint14_linear" x1="142.16" y1="73.347" x2="142.16" y2="88.311" gradientUnits="userSpaceOnUse"><stop offset=".385" stop-color="#361F00" stop-opacity="0"/><stop offset="1" stop-color="#563408" stop-opacity=".43"/></linearGradient><linearGradient id="paint15_linear" x1="126.363" y1="57.298" x2="131.806" y2="49.803" gradientUnits="userSpaceOnUse"><stop stop-color="#5A380B"/><stop offset="1" stop-color="#5A380B" stop-opacity="0"/></linearGradient><linearGradient id="paint16_linear" x1="125.149" y1="66.57" x2="149.833" y2="80.507" gradientUnits="userSpaceOnUse"><stop stop-color="#CECAC7"/><stop offset=".28" stop-color="#F0EEED"/><stop offset=".45" stop-color="#ECEAE9"/><stop offset=".64" stop-color="#E1DEDC"/><stop offset=".83" stop-color="#CFCAC7"/><stop offset="1" stop-color="#B8B2AE"/></linearGradient><linearGradient id="paint17_linear" x1="109.975" y1="47.592" x2="109.319" y2="73.709" gradientUnits="userSpaceOnUse"><stop stop-color="#fff"/><stop offset=".06" stop-color="#ECECEC"/><stop offset=".33" stop-color="#999"/><stop offset=".57" stop-color="#575757"/><stop offset=".76" stop-color="#282828"/><stop offset=".91" stop-color="#0B0B0B"/><stop offset="1"/></linearGradient><linearGradient id="paint18_linear" x1="584.023" y1="2415.34" x2="437.799" y2="3128.36" gradientUnits="userSpaceOnUse"><stop stop-color="#fff"/><stop offset=".06" stop-color="#ECECEC"/><stop offset=".33" stop-color="#999"/><stop offset=".57" stop-color="#575757"/><stop offset=".76" stop-color="#282828"/><stop offset=".91" stop-color="#0B0B0B"/><stop offset="1"/></linearGradient><linearGradient id="paint19_linear" x1="160.452" y1="82.379" x2="143.668" y2="43.152" gradientUnits="userSpaceOnUse"><stop stop-color="#4A2F0A" stop-opacity=".5"/><stop offset="1" stop-color="#4A2F0A" stop-opacity="0"/></linearGradient><filter id="filter0_f" x="1.495" y="73.132" width="163.752" height="50.507" filterUnits="userSpaceOnUse" color-interpolation-filters="sRGB"><feFlood flood-opacity="0" result="BackgroundImageFix"/><feBlend in="SourceGraphic" in2="BackgroundImageFix" result="shape"/><feGaussianBlur stdDeviation="1" result="effect1_foregroundBlur"/></filter><filter id="filter1_f" x="108.801" y="73.543" width="58.966" height="31.264" filterUnits="userSpaceOnUse" color-interpolation-filters="sRGB"><feFlood flood-opacity="0" result="BackgroundImageFix"/><feBlend in="SourceGraphic" in2="BackgroundImageFix" result="shape"/><feGaussianBlur stdDeviation="4" result="effect1_foregroundBlur"/></filter><filter id="filter2_f" x="89.521" y="43.266" width="72.092" height="54.817" filterUnits="userSpaceOnUse" color-interpolation-filters="sRGB"><feFlood flood-opacity="0" result="BackgroundImageFix"/><feBlend in="SourceGraphic" in2="BackgroundImageFix" result="shape"/><feGaussianBlur stdDeviation="2" result="effect1_foregroundBlur"/></filter><filter id="filter3_f" x="119.037" y="69.347" width="46.246" height="22.964" filterUnits="userSpaceOnUse" color-interpolation-filters="sRGB"><feFlood flood-opacity="0" result="BackgroundImageFix"/><feBlend in="SourceGraphic" in2="BackgroundImageFix" result="shape"/><feGaussianBlur stdDeviation="2" result="effect1_foregroundBlur"/></filter><filter id="filter4_f" x="122.363" y="42.43" width="14.652" height="22.196" filterUnits="userSpaceOnUse" color-interpolation-filters="sRGB"><feFlood flood-opacity="0" result="BackgroundImageFix"/><feBlend in="SourceGraphic" in2="BackgroundImageFix" result="shape"/><feGaussianBlur stdDeviation="2" result="effect1_foregroundBlur"/></filter><filter id="filter5_f" x="23.758" y=".121" width="117.908" height="45.801" filterUnits="userSpaceOnUse" color-interpolation-filters="sRGB"><feFlood flood-opacity="0" result="BackgroundImageFix"/><feBlend in="SourceGraphic" in2="BackgroundImageFix" result="shape"/><feGaussianBlur stdDeviation="1" result="effect1_foregroundBlur"/></filter><filter id="filter6_f" x="25.915" y=".629" width="113.593" height="46.457" filterUnits="userSpaceOnUse" color-interpolation-filters="sRGB"><feFlood flood-opacity="0" result="BackgroundImageFix"/><feBlend in="SourceGraphic" in2="BackgroundImageFix" result="shape"/><feGaussianBlur stdDeviation="2" result="effect1_foregroundBlur"/></filter><filter id="filter7_f" x="35.061" y="4.81" width="95.302" height="38.096" filterUnits="userSpaceOnUse" color-interpolation-filters="sRGB"><feFlood flood-opacity="0" result="BackgroundImageFix"/><feBlend in="SourceGraphic" in2="BackgroundImageFix" result="shape"/><feGaussianBlur stdDeviation="2" result="effect1_foregroundBlur"/></filter><filter id="filter8_f" x="42.544" y="8.99" width="80.336" height="29.736" filterUnits="userSpaceOnUse" color-interpolation-filters="sRGB"><feFlood flood-opacity="0" result="BackgroundImageFix"/><feBlend in="SourceGraphic" in2="BackgroundImageFix" result="shape"/><feGaussianBlur stdDeviation="2" result="effect1_foregroundBlur"/></filter><filter id="filter9_f" x="142.239" y="40.168" width="28.828" height="47.568" filterUnits="userSpaceOnUse" color-interpolation-filters="sRGB"><feFlood flood-opacity="0" result="BackgroundImageFix"/><feBlend in="SourceGraphic" in2="BackgroundImageFix" result="shape"/><feGaussianBlur stdDeviation="1" result="effect1_foregroundBlur"/></filter><filter id="filter10_f" x="16.601" y="20.694" width="129.429" height="31.689" filterUnits="userSpaceOnUse" color-interpolation-filters="sRGB"><feFlood flood-opacity="0" result="BackgroundImageFix"/><feBlend in="SourceGraphic" in2="BackgroundImageFix" result="shape"/><feGaussianBlur stdDeviation="2" result="effect1_foregroundBlur"/></filter><radialGradient id="paint0_radial" cx="0" cy="0" r="1" gradientUnits="userSpaceOnUse" gradientTransform="matrix(59.548 0 0 85.6216 82.562 82.14)"><stop offset=".01" stop-color="#F0F0F0"/><stop offset="1" stop-color="#C7C7C7"/></radialGradient><radialGradient id="paint1_radial" cx="0" cy="0" r="1" gradientUnits="userSpaceOnUse" gradientTransform="matrix(75.9487 0 0 35.3451 87.736 91.05)"><stop offset=".12" stop-color="#1C0B05"/><stop offset=".21" stop-color="#20100A"/><stop offset=".32" stop-color="#2D1E18"/><stop offset=".44" stop-color="#433530"/><stop offset=".56" stop-color="#615550"/><stop offset=".69" stop-color="#877E7B"/><stop offset=".83" stop-color="#B6B1AF"/><stop offset=".96" stop-color="#ECEBEB"/><stop offset="1" stop-color="#fff"/></radialGradient><radialGradient id="paint3_radial" cx="0" cy="0" r="1" gradientUnits="userSpaceOnUse" gradientTransform="matrix(83.5227 0 0 40.3112 79.14 81.83)"><stop offset=".82" stop-color="#fff"/><stop offset=".88" stop-color="#F8F7F7"/><stop offset=".98" stop-color="#E4E2E1"/><stop offset="1" stop-color="#E0DDDC"/></radialGradient><radialGradient id="paint5_radial" cx="0" cy="0" r="1" gradientUnits="userSpaceOnUse" gradientTransform="matrix(37.2184 0 0 16.9172 85.794 78.524)"><stop offset=".51" stop-color="#1C0B05"/><stop offset=".56" stop-color="#2A1A14"/><stop offset=".65" stop-color="#4D403B"/><stop offset=".77" stop-color="#877E7B"/><stop offset=".92" stop-color="#D5D2D1"/><stop offset="1" stop-color="#fff"/></radialGradient><radialGradient id="paint6_radial" cx="0" cy="0" r="1" gradientUnits="userSpaceOnUse" gradientTransform="matrix(55.0083 0 0 28.7615 84.483 68.351)"><stop stop-color="#fff"/><stop offset=".23" stop-color="#FCFCFB"/><stop offset=".43" stop-color="#F5F2F1"/><stop offset=".62" stop-color="#E7E2DE"/><stop offset=".8" stop-color="#D5CBC5"/><stop offset=".99" stop-color="#BDAEA4"/><stop offset="1" stop-color="#BBABA1"/></radialGradient></defs></svg>