<svg width="100" height="100" fill="none" xmlns="http://www.w3.org/2000/svg"><path fill-rule="evenodd" clip-rule="evenodd" d="M40.165 2.438a1 1 0 00-1.654 0L15.175 36.756a1 1 0 00.827 1.563h10.695v57.53a1 1 0 001 1H49.88a1 1 0 001-1V38.32h11.795a1 1 0 00.827-1.563L40.165 2.438z" fill="url(#paint0_linear)"/><path d="M52.369 35.334c14.757 17.994 3.063 11.16-6.581 25.572-5.558 8.54-6.707 20.992-.609 29.151 6.274 8.348 15.904 7.275 24.678 6.865 5.295-.252 9.098-3.447 12.52-8.167 3.143-4.336 3.691-11.528 2.594-16.271-1.612-7.401-5.08-14.165-10.817-18.72-6.268-4.932-13.992-7.094-1.884-18.405-1.255-.35-2.544-1.26-3.803-1.083-1.593.554-2.714.846-4.09.947-.585.043-2.743-1.803-3.291-1.904-.908.191-1.92.632-2.912.778a25.647 25.647 0 01-5.578.315c-.142 0-.345.295-.298.418l.07.504z" fill="#DDA749"/><path d="M72.27 35.36c-1.257-.35-2.606-1.482-3.804-1.084-1.645.544-2.715.847-4.091.947" fill="#8C6D17"/><g opacity=".1"><path d="M84.98 72.589c-1.578-7.252-4.935-13.886-10.47-18.422 3.21 4.063 5.314 9.036 6.467 14.335 1.068 4.727.531 11.894-2.584 16.201-3.404 4.704-7.181 7.89-12.447 8.138-7.13.334-14.834 1.11-20.813-3.178.098.14.193.287.297.425 6.238 8.318 15.807 7.25 24.528 6.84 5.266-.251 9.043-3.434 12.447-8.136 3.107-4.31 3.644-11.476 2.576-16.203z" fill="#000" opacity=".5"/></g><path d="M68.52 34.367s-3.911 8.03-4.868 17.81c0 0-.337-11.641.803-16.773-.052.027.724-.091 1.766-.276.653-.138 1.566-.618 2.298-.761zm-10.34-.152s1.13 11.883 3.697 17.462c0 0-2.33-13.568-.795-18.358 0 0-.628.223-1.336.427-.408.124-1.173.22-1.565.47z" fill="#000" opacity=".1"/><path d="M58.693 79.718c.985.924 2.5 1.804 3.866 1.804.897 0 2.008-.516 2.008-1.566 0-1.206-1.665-1.42-3.354-2.041-1.689-.62-3.35-1.591-3.35-4.211 0-2.535 1.749-4.876 4.354-5.047v-2.598h1.988v2.598a8.623 8.623 0 013.885 1.246l-1.58 3.128a4.42 4.42 0 00-2.741-1.054c-.94 0-1.816.345-1.816 1.203 0 .99 1.347 1.417 2.093 1.676 2.434.828 4.633 1.719 4.633 4.703 0 2.983-1.708 4.555-4.483 5.24v2.682h-1.985v-2.556a7.696 7.696 0 01-2.742-.535c-.897-.345-1.815-.753-2.52-1.417l1.744-3.255z" fill="#362C19"/><path d="M66.003 47.66l-6.517.388a.402.402 0 01-.428-.389v-.386a.409.409 0 01.38-.419l6.519-.378a.402.402 0 01.427.395v.388a.406.406 0 01-.38.4z" fill="#4D3F24"/><path d="M66.334 47.805H59.48a.374.374 0 00-.373.375v.232c0 .207.167.375.373.375h6.853a.374.374 0 00.373-.375v-.232a.374.374 0 00-.373-.375z" fill="#362C19"/><path d="M58.032 57.185a31.544 31.544 0 013.523-8.809c.107-.275-.131-.344-.4-.452l-.206-.083a.524.524 0 00-.682.293 27.075 27.075 0 00-3.368 8.425.765.765 0 00.244.827l.395.248c.269.119.387-.179.494-.45z" fill="#362C19"/><path d="M62.039 60.491c-.354-4.25-.943-8.825-1.664-12.997-.05-.397.24-.406.578-.45l.258-.033a.675.675 0 01.7.648c.85 4.633 1.422 8.362 1.606 12.112.041.795-.425 1.103-1.058 1.437-.338.041-.37-.311-.42-.717z" fill="#4D3F24"/><path d="M47.462 97.683c4.225 0 7.65-3.404 7.65-7.602s-3.425-7.6-7.65-7.6c-4.224 0-7.649 3.403-7.649 7.6 0 4.198 3.425 7.602 7.65 7.602z" fill="#FFD01F"/><path d="M51.8 94.392a6.069 6.069 0 000-8.62 6.161 6.161 0 00-8.675 0 6.069 6.069 0 000 8.62 6.161 6.161 0 008.674 0z" fill="#F2C94C" opacity=".5"/><path d="M49.322 88.511l-.047-.048a.822.822 0 00-.201-.152l-.002-.001h0a3.766 3.766 0 00-.365-.191h0a4.006 4.006 0 00-.467-.179 2.707 2.707 0 00-.467-.1v1.54l.2.047h.002c.325.089.626.184.902.285.253.09.488.221.699.387h0c.189.151.341.343.447.56v.002h0c.112.252.165.525.157.8a2.01 2.01 0 01-.191.91h0c-.121.246-.3.46-.52.623h0c-.228.166-.485.29-.758.362a3.938 3.938 0 01-.852.137v1.042h-.67v-1.053a4.97 4.97 0 01-1.265-.268c-.41-.143-.8-.34-1.157-.587l-.036-.025.02-.039.581-1.128.03-.058.048.044c.079.072.164.136.254.193h0c.14.091.287.17.44.238.188.083.38.156.576.22h0c.194.063.394.107.596.132v-1.52a3.288 3.288 0 01-.136-.035h-.001a2.396 2.396 0 01-.163-.052 6.073 6.073 0 01-.845-.29m3.191-1.796l-3.172 1.75m3.172-1.75l.033-.059.586-1.057.022-.04-.038-.026a4.631 4.631 0 00-.938-.489l-.018.047m.353 1.624l-1.508-1.88m-1.683 3.675s0 0 0 0l.02-.046m-.02.046s0 0 0 0l.02-.046m-.02.046a2.284 2.284 0 01-.609-.375h0a1.433 1.433 0 01-.37-.501v-.002h0a1.745 1.745 0 01-.122-.686m1.12 1.518a2.233 2.233 0 01-.595-.367 1.386 1.386 0 01-.357-.484 1.694 1.694 0 01-.118-.667l-.05.001v-.001m0 0c-.007-.297.05-.592.166-.866h0c.107-.25.267-.476.468-.662h0c.205-.186.445-.33.706-.425.265-.1.541-.164.823-.19v-.969h.671v.953a4.01 4.01 0 011.123.256l-.018.047m-3.94 1.855l4.307-.36m-.062.01a.871.871 0 00-.177-.125 3.83 3.83 0 00-.842-.374 2.746 2.746 0 00-.482-.103l1.501.602zm0 0l-.007.012.044.024m-.037-.036l.037.036m0 0l.036-.035a1.07 1.07 0 00-.01-.01m-.026.045l.026-.046m0 0l.56-1.011a4.526 4.526 0 00-.928-.484m0 0a3.966 3.966 0 00-1.155-.256m0 0v-.952h-.57v.967l.57-.014zm-.488 5.63v-.05.05zm-.855-3.737h0v-.003c0-.216.07-.378.208-.492.13-.109.326-.179.595-.203v1.412a2.141 2.141 0 01-.602-.274.514.514 0 01-.201-.44zm2.211 3.068h0v.001a.524.524 0 01-.23.463c-.15.103-.373.165-.679.183v-1.403c.234.071.457.171.665.299a.522.522 0 01.244.457z" fill="#D4A907" stroke="#D5A907" stroke-width=".1"/><path d="M41.785 90.422c0-1.106.304-2.19.877-3.138a6.12 6.12 0 012.376-2.242 6.168 6.168 0 016.307.322 6.16 6.16 0 00-8.63.868 6.068 6.068 0 00.874 8.575 6.383 6.383 0 01-1.803-4.385z" fill="#F2C94C" opacity=".5"/><path d="M23 44v21m0 6v10.5" stroke="#FFB900" stroke-width="3" stroke-linecap="round"/><path d="M89.65 46.042a1.545 1.545 0 01-.262 2.157l-7.23 5.67a1.54 1.54 0 01-2.155-.262 1.541 1.541 0 01.263-2.154l7.23-5.67a1.537 1.537 0 012.154.259zm.859 9.804a1.538 1.538 0 01-1.232 1.784l-5.32.95a1.537 1.537 0 01-1.78-1.238 1.542 1.542 0 011.234-1.783l5.316-.95a1.534 1.534 0 011.782 1.237zm-9.764-13.714a1.537 1.537 0 00-2.025.772l-2.587 5.661a1.542 1.542 0 00.77 2.031 1.534 1.534 0 002.025-.775l2.59-5.658a1.543 1.543 0 00-.773-2.03z" fill="#FFB900"/><defs><linearGradient id="paint0_linear" x1="46.316" y1="47.438" x2="27.501" y2="48.311" gradientUnits="userSpaceOnUse"><stop stop-color="#035827"/><stop offset="1" stop-color="#1F9F4B"/></linearGradient></defs></svg>