<svg width="117" height="99" fill="none" xmlns="http://www.w3.org/2000/svg"><path d="M90.772 71.597l-1.409-1.408c-1.137 1.274-2.274 2.548-3.604 3.76l1.409 1.407c1.25-1.002 2.467-2.485 3.604-3.76zm-7.401 7.454l-1.329-1.617c-1.33 1.211-2.579 2.213-3.828 3.214l1.056 1.763c1.442-.938 2.691-1.94 4.101-3.36zm-8.506 6.383l-.784-1.908-1.361.729c-1.01.374-1.826.811-2.835 1.185l.511 2.054c1.01-.374 2.21-.684 3.108-1.33l1.361-.73zm-9.658 3.175l-.047-2.136c-1.585.183-3.09.158-4.516-.077l-.417 2.219c1.425.235 3.203.114 4.98-.006zm-8.87-3.4c-1.265-.653-2.53-1.306-3.635-2.377l-1.49 1.629c1.105 1.071 2.674 2.06 4.13 2.777l.995-2.028zm-6.132-6.03c-.56-1.363-1.12-2.726-1.328-4.444l-2.018.748c.4 1.781.8 3.563 1.552 4.99l1.794-1.294zm-1.726-9.053c-.096-1.446.08-3.037.146-4.901l-2.162-.007c-.065 1.864-.322 3.665-.226 5.11l2.242-.202zm.644-10.157l.177-1.591c.208-1.11.225-2.282.513-3.601l-2.162-.007c-.208 1.11-.225 2.282-.433 3.392l-.177 1.591 2.082.216zM50.23 49.73c-.015-1.654.05-3.518.034-5.173l-2.05.266.047 4.964 1.97-.057zm-.396-10.264c-.208-1.718-.416-3.437-.703-4.946l-2.018.748c.287 1.51.495 3.227.783 4.736l1.938-.538zm-1.87-9.809l-1.44-4.717-1.906 1.02c.48 1.573 1.04 2.936 1.52 4.509l1.825-.812zm-3.344-9.351c-.753-1.427-1.425-3.063-2.177-4.49L40.65 17.11c.752 1.426 1.505 2.853 2.065 4.216l1.906-1.02zm-4.786-8.414c-1.024-1.281-1.776-2.708-2.8-3.989L35.351 9.47c1.025 1.28 1.857 2.498 2.69 3.716l1.793-1.293zM33.881 4.27l-1.825-2.016-1.49 1.629c.608.672 1.297 1.135 1.905 1.807l1.41-1.42z" fill="#000"/><path d="M92.522 83.27l-2.162-.006.884-10.79-10.285.849-.047-2.138 12.608-1.26-.998 13.345z" fill="#000"/></svg>