<svg width="100" height="100" fill="none" xmlns="http://www.w3.org/2000/svg"><path d="M69.413 56.871c6.377-6.48 9.599-16.086 7.145-26.317a27.15 27.15 0 00-6.998-12.64 27.098 27.098 0 00-12.485-7.252C38.602 5.883 22.013 19.718 22.013 37.43a27.652 27.652 0 007.97 19.454c5.183 6.01 6.475 11.826 6.79 14.55a1.864 1.864 0 001.848 1.634H60.78a1.853 1.853 0 001.848-1.635c.316-2.736 1.61-8.54 6.794-14.549l-.01-.013z" fill="#FFAD00"/><path d="M64.196 13.845a27.634 27.634 0 00-19.261-3.682 27.657 27.657 0 00-16.86 10.026 27.725 27.725 0 001.905 36.67 31.624 31.624 0 012.9 3.942c32.102-7.692 34.238-30.762 31.316-46.956z" fill="#FFB900"/><path d="M58.515 20.698v-1.581l-2.028-.355a5.722 5.722 0 00-.84-2.027l1.184-1.689-1.124-1.129-1.69 1.174a5.68 5.68 0 00-2.022-.842l-.357-2.03h-1.58l-.353 2.033a5.682 5.682 0 00-2.021.842l-1.69-1.19-1.125 1.13 1.185 1.688a5.722 5.722 0 00-.84 2.028l-2.029.354v1.582l2.028.357c.147.723.432 1.41.84 2.024l-1.184 1.69 1.125 1.128 1.69-1.186a5.77 5.77 0 002.021.841l.354 2.044h1.58l.353-2.03a5.787 5.787 0 002.022-.842l1.69 1.186 1.124-1.13-1.184-1.688a5.7 5.7 0 00.84-2.024l2.03-.358zm-7.673 2.053a2.84 2.84 0 01-2.626-1.757 2.85 2.85 0 01.616-3.102 2.841 2.841 0 014.853 2.012 2.848 2.848 0 01-2.843 2.847z" fill="#FF9800"/><path d="M50.842 21.565c.918 0 1.662-.745 1.662-1.664a1.663 1.663 0 10-1.662 1.664z" fill="#FF9800"/><path d="M51.563 38.337v-1.224l-1.557-.272a4.41 4.41 0 00-.648-1.556l.913-1.3-.866-.866-1.298.914c-.472-.309-1-.524-1.554-.633l-.271-1.56h-1.226l-.272 1.56a4.397 4.397 0 00-1.554.633l-1.295-.914-.865.866.91 1.3a4.4 4.4 0 00-.633 1.556l-1.56.272v1.224l1.56.275c.11.555.325 1.083.632 1.557l-.91 1.296.866.867 1.295-.91c.473.308 1 .523 1.554.632l.272 1.562h1.213l.272-1.562a4.39 4.39 0 001.554-.633l1.298.911.865-.867-.913-1.296a4.422 4.422 0 00.648-1.556l1.57-.276zm-5.894 1.582a2.184 2.184 0 01-2.02-1.351 2.192 2.192 0 011.593-2.985 2.183 2.183 0 012.244.931 2.19 2.19 0 01-.273 2.762c-.41.41-.965.64-1.544.64v.003z" fill="#FF0"/><path d="M46.948 37.727a1.267 1.267 0 01-1.504 1.242 1.262 1.262 0 01-.931-1.715 1.265 1.265 0 012.06-.427 1.262 1.262 0 01.375.9z" fill="#FF0"/><path d="M32.187 43.629v-.744l-.947-.167a2.615 2.615 0 00-.395-.95l.556-.79-.528-.525-.79.554a2.66 2.66 0 00-.947-.392l-.164-.95h-.746l-.167.95a2.71 2.71 0 00-.948.392l-.79-.554-.524.525.553.79c-.19.289-.324.611-.392.95l-.947.167v.744l.947.167c.068.339.201.661.392.95l-.553.79.525.528.79-.557c.288.19.61.324.947.396l.167.949h.746l.164-.95c.338-.07.66-.204.948-.395l.79.557.527-.528-.556-.79c.193-.288.327-.61.395-.95l.947-.167zm-3.585.949a1.329 1.329 0 01-1.304-1.592 1.333 1.333 0 011.813-.97 1.33 1.33 0 01.821 1.23 1.334 1.334 0 01-1.33 1.344v-.013z" fill="#FF9800"/><path d="M29.38 43.259a.778.778 0 11-1.557-.006.778.778 0 011.556.006z" fill="#FF9800"/><path d="M56.53 85.977a7.577 7.577 0 00-3.597-10.085 7.558 7.558 0 00-10.071 3.601c-1.788 3.78-.178 8.294 3.596 10.085a7.558 7.558 0 0010.071-3.601z" fill="#001D45"/><path d="M38.334 73.072h22.72v7.325a5.029 5.029 0 01-1.47 3.553 5.016 5.016 0 01-3.549 1.472H43.353a5.016 5.016 0 01-3.549-1.472 5.029 5.029 0 01-1.47-3.553V73.07z" fill="#0A3D76"/><path d="M61.078 75.168H38.313a.54.54 0 00-.54.541v.193a.54.54 0 00.54.541h22.765a.54.54 0 00.54-.54v-.194a.54.54 0 00-.54-.54zm0 2.802H38.313a.54.54 0 00-.54.542v.193c0 .298.241.54.54.54h22.765a.54.54 0 00.54-.54v-.193a.54.54 0 00-.54-.541zm0 2.803H38.313a.54.54 0 00-.54.54v.194c0 .298.241.54.54.54h22.765a.54.54 0 00.54-.54v-.193a.54.54 0 00-.54-.541z" fill="#E5F4FF"/><path d="M38.334 74.46a47.733 47.733 0 0122.724 0v-1.401H38.334v1.401z" fill="#71A0DD"/><path opacity=".27" d="M46.6 37.213c4.117-6.308 3.145-14.242-2.171-17.722-5.317-3.48-12.965-1.187-17.083 5.12-4.117 6.308-3.145 14.242 2.171 17.722 5.317 3.48 12.965 1.187 17.083-5.12z" fill="#FFF76D"/><path opacity=".27" d="M38.473 31.897c1.854-2.841 1.416-6.415-.979-7.982-2.394-1.568-5.84-.535-7.694 2.306-1.854 2.84-1.416 6.414.979 7.982 2.394 1.567 5.84.535 7.694-2.306z" fill="#FFF76D"/><path d="M58.217 63.121v-1.77l-2.255-.4a6.299 6.299 0 00-.932-2.248l1.317-1.879-1.263-1.265-1.867 1.335a6.39 6.39 0 00-2.246-.95l-.395-2.254h-1.769l-.394 2.255a6.34 6.34 0 00-2.246.949l-1.873-1.32-1.264 1.266 1.343 1.866a6.36 6.36 0 00-.948 2.249l-2.252.395v1.771l2.252.396c.168.803.49 1.567.948 2.248l-1.317 1.88 1.263 1.264 1.876-1.319a6.261 6.261 0 002.246.933l.395 2.259h1.769L51 68.523a6.314 6.314 0 002.217-.93l1.876 1.32 1.264-1.266-1.317-1.878c.453-.683.77-1.446.931-2.25l2.246-.398zm-8.528 2.277a3.156 3.156 0 01-2.919-1.952 3.167 3.167 0 01.685-3.447 3.158 3.158 0 015.392 2.237 3.157 3.157 0 01-3.152 3.163h-.006z" fill="#FFDA00"/><path d="M51.542 62.236a1.852 1.852 0 01-1.14 1.709 1.845 1.845 0 01-2.52-1.348 1.853 1.853 0 01.786-1.9 1.846 1.846 0 012.874 1.539zM76.33 36.038V33.71l-2.96-.519a8.344 8.344 0 00-1.225-2.954l1.73-2.467-1.645-1.644-2.46 1.73a8.346 8.346 0 00-2.95-1.228l-.519-2.963h-2.325l-.518 2.963a8.321 8.321 0 00-2.95 1.228l-2.464-1.73-1.642 1.644 1.728 2.467a8.346 8.346 0 00-1.226 2.954l-2.96.52v2.327l2.96.519a8.368 8.368 0 001.226 2.954l-1.728 2.464 1.642 1.647 2.464-1.733a8.325 8.325 0 002.95 1.227l.519 2.964H66.3l.518-2.964a8.348 8.348 0 002.95-1.227l2.461 1.733 1.646-1.647-1.731-2.464a8.394 8.394 0 001.226-2.954l2.96-.52zM65.14 39.03a4.148 4.148 0 01-3.835-2.566 4.162 4.162 0 01.9-4.529 4.15 4.15 0 017.085 2.939 4.16 4.16 0 01-1.215 2.939 4.148 4.148 0 01-2.935 1.217z" fill="#FFDA00"/><path d="M67.527 35.275a2.426 2.426 0 10-4.783-.813 2.426 2.426 0 104.783.813z" fill="#FFDA00"/><path d="M43.173 51.311v-1.113l-1.428-.25a4.045 4.045 0 00-.594-1.426l.834-1.19-.79-.794-1.19.839a3.993 3.993 0 00-1.422-.595l-.25-1.43h-1.12l-.25 1.43a4.034 4.034 0 00-1.425.595l-1.187-.839-.793.794.834 1.19a4.039 4.039 0 00-.591 1.426l-1.43.25v1.123l1.427.25c.103.509.304.993.59 1.426l-.833 1.19.792.793 1.188-.835c.434.286.917.486 1.425.592l.25 1.43h1.12l.25-1.43c.507-.105.99-.306 1.422-.592l1.19.835.79-.794-.834-1.189c.288-.433.49-.917.594-1.426l1.431-.26zm-5.401 1.443a2 2 0 01-1.85-1.24 2.008 2.008 0 011.46-2.733 2 2 0 012.392 1.97 2 2 0 01-2.002 2.003z" fill="#FFF700"/><path d="M37.771 51.922a1.17 1.17 0 10-.001-2.34 1.17 1.17 0 00.001 2.34z" fill="#FFF700"/><path d="M59.159 49.021v-1.084l-1.38-.24a3.894 3.894 0 00-.57-1.377l.806-1.151-.767-.765-1.147.806a3.889 3.889 0 00-1.374-.572l-.243-1.38h-1.08l-.244 1.38c-.49.1-.957.295-1.374.572l-1.147-.806-.767.765.806 1.151c-.277.418-.47.885-.57 1.376l-1.38.24v1.085l1.38.244c.1.49.293.958.57 1.376l-.806 1.138.767.766 1.147-.807a3.83 3.83 0 001.374.573l.243 1.382h1.078l.243-1.382c.49-.1.958-.294 1.374-.573l1.147.807.767-.766-.805-1.148c.276-.417.469-.885.568-1.376l1.384-.234zm-5.215 1.395A1.935 1.935 0 0152.04 48.1a1.94 1.94 0 011.522-1.524 1.935 1.935 0 012.314 1.904 1.937 1.937 0 01-1.933 1.936z" fill="#FF9800"/><path d="M55.074 48.48a1.133 1.133 0 01-1.35 1.114 1.13 1.13 0 01-.826-1.543 1.132 1.132 0 011.844-.37c.212.213.331.5.332.8zM40.64 61.246v-.557l-.712-.123a1.93 1.93 0 00-.293-.709l.417-.591-.395-.396-.59.415a2.06 2.06 0 00-.709-.294l-.123-.709h-.559l-.123.709a2.06 2.06 0 00-.707.294l-.591-.415-.395.396.417.591a1.93 1.93 0 00-.294.709l-.71.123v.557l.71.126c.05.254.15.494.294.709l-.417.591.395.392.59-.414c.215.143.456.243.708.294l.123.712h.56l.123-.712a1.99 1.99 0 00.707-.294l.59.414.396-.392-.417-.591a1.95 1.95 0 00.293-.709l.711-.126zm-2.686.718a.994.994 0 01-.972-1.193.996.996 0 11.972 1.193z" fill="#FF9800"/><path d="M37.953 61.55a.582.582 0 100-1.164.582.582 0 000 1.163z" fill="#FF9800"/><path d="M66.13 58.826v-.721l-.928-.161a2.66 2.66 0 00-.386-.93l.543-.775-.518-.516-.773.544a2.603 2.603 0 00-.926-.386l-.164-.939h-.73l-.164.933c-.33.067-.645.198-.926.386l-.773-.544-.519.516.544.775a2.66 2.66 0 00-.386.93l-.928.16v.731l.928.165c.069.331.2.647.386.93l-.544.775.519.515.773-.544c.281.187.596.318.926.386l.164.933h.73l.164-.933c.33-.069.644-.2.925-.386l.774.544.519-.515-.544-.775a2.66 2.66 0 00.385-.93l.93-.168zm-3.519.949a1.303 1.303 0 01-1.28-1.561 1.307 1.307 0 011.78-.952 1.305 1.305 0 01.42 2.126 1.3 1.3 0 01-.92.38v.007z" fill="#FF8700"/><path d="M62.61 59.225a.762.762 0 100-1.524.762.762 0 000 1.524zm-2.042 10.722v-.339l-.433-.076c-.03-.154-.092-.3-.18-.43l.253-.36-.24-.24-.357.252a1.223 1.223 0 00-.433-.18l-.076-.43h-.338l-.076.43a1.23 1.23 0 00-.43.18l-.36-.253-.24.24.253.361c-.087.13-.147.277-.177.43l-.432.076v.339l.432.075c.03.154.09.3.177.43l-.252.361.24.24.36-.252c.13.087.276.148.43.18l.075.43h.338l.076-.43c.155-.032.302-.093.433-.18l.357.253.24-.24-.253-.361c.088-.13.15-.276.18-.43l.433-.076zm-1.633.436a.606.606 0 01-.438-1.034.607.607 0 11.438 1.034z" fill="#FF8700"/><path d="M59.29 69.776a.355.355 0 01-.423.347.353.353 0 01-.128-.642.353.353 0 01.55.295z" fill="#FF8700"/><path opacity=".27" d="M67.408 55.975c1.448-2.218 1.312-4.873-.303-5.93-1.615-1.057-4.098-.116-5.546 2.102-1.448 2.218-1.312 4.873.303 5.93 1.615 1.057 4.098.116 5.546-2.102z" fill="#FFF76D"/><path d="M16.758 63.684a1.545 1.545 0 01.262-2.157l7.23-5.67a1.54 1.54 0 012.155.262 1.542 1.542 0 01-.262 2.154l-7.23 5.67a1.537 1.537 0 01-2.155-.259zM15.9 53.88a1.539 1.539 0 011.231-1.784l5.32-.95a1.537 1.537 0 011.781 1.238 1.542 1.542 0 01-1.235 1.783l-5.316.95a1.533 1.533 0 01-1.782-1.237zm9.763 13.714a1.537 1.537 0 002.025-.772l2.587-5.662a1.542 1.542 0 00-.77-2.03 1.533 1.533 0 00-2.025.775l-2.59 5.658a1.542 1.542 0 00.773 2.03zM22.069 6.311a1.545 1.545 0 012.165.189l5.914 7.032a1.54 1.54 0 01-.19 2.162 1.541 1.541 0 01-2.16-.188l-5.915-7.033a1.537 1.537 0 01.186-2.162zm9.77-1.193a1.539 1.539 0 011.825 1.17l1.13 5.284a1.537 1.537 0 01-1.176 1.823 1.541 1.541 0 01-1.825-1.173l-1.13-5.281a1.533 1.533 0 011.176-1.823zM18.466 15.344a1.536 1.536 0 00.84 1.997l5.746 2.393a1.542 1.542 0 002.003-.84 1.533 1.533 0 00-.843-1.997l-5.743-2.396a1.542 1.542 0 00-2.003.843zM88.253 7h-6.181l-4 7.613h2.641l-5.284 9.052L87.86 12.314h-3.427L88.254 7zm.964 15.723L86.402 19.9l-5.287 1.645 1.203 1.205-6.526 1.711 10.828.5-1.56-1.563 4.157-.677zM71.618 69.216a.773.773 0 01-.774-.775v-6.085a.779.779 0 01.774-.775.776.776 0 01.773.775v6.085a.775.775 0 01-.773.775z" fill="#FFB900"/><path d="M75.43 65.399a.775.775 0 01-.774.775h-6.077a.773.773 0 01-.547-1.323.776.776 0 01.547-.227h6.077a.777.777 0 01.774.775zm-8.89 24.55a.597.597 0 01-.598-.598v-4.703a.602.602 0 01.597-.601.603.603 0 01.6.6v4.704a.6.6 0 01-.6.598z" fill="#FFB900"/><path d="M69.487 86.998a.601.601 0 01-.597.6h-4.697a.603.603 0 01-.6-.6.601.601 0 01.6-.598h4.697a.597.597 0 01.597.598zm9.495-34.412a.438.438 0 01-.439-.44v-3.46a.44.44 0 11.878 0v3.46a.44.44 0 01-.439.44z" fill="#FFB900"/><path d="M81.15 50.416a.44.44 0 01-.44.44h-3.456a.439.439 0 010-.88h3.444a.44.44 0 01.451.44zM32.169 84.913a.442.442 0 01-.44-.442v-3.46a.44.44 0 11.879 0v3.46a.443.443 0 01-.44.442z" fill="#FFB900"/><path d="M34.336 82.74a.443.443 0 01-.44.443h-3.455a.442.442 0 010-.882h3.456a.439.439 0 01.439.44zM11.565 52.586a.438.438 0 01-.439-.44v-3.46a.44.44 0 11.878 0v3.46a.44.44 0 01-.439.44z" fill="#FFB900"/><path d="M13.732 50.416a.443.443 0 01-.442.44H9.838a.439.439 0 010-.88h3.455a.442.442 0 01.44.44zM62.038 93.31a.316.316 0 01-.315-.316V90.62a.316.316 0 11.631 0v2.388a.317.317 0 01-.316.304z" fill="#FFB900"/><path d="M63.532 91.811a.317.317 0 01-.316.317h-2.385a.316.316 0 010-.633h2.385a.316.316 0 01.316.316z" fill="#FFB900"/></svg>