<svg width="48" height="48" fill="none" xmlns="http://www.w3.org/2000/svg"><path fill-rule="evenodd" clip-rule="evenodd" d="M23.837 11.818c-.968 0-1.876.249-2.666.685a.41.41 0 01-.396-.716 6.342 6.342 0 11-2.299 2.165.41.41 0 11.692.438 5.524 5.524 0 104.67-2.572z" fill="#000"/><path fill-rule="evenodd" clip-rule="evenodd" d="M33.812 31.093c.48-.84.715-1.75.728-2.65a.41.41 0 01.82.008 6.287 6.287 0 01-.835 3.044 6.39 6.39 0 01-8.673 2.39 6.294 6.294 0 01-2.376-8.619 6.39 6.39 0 018.674-2.39 6.283 6.283 0 012.465 2.516.41.41 0 01-.725.385 5.468 5.468 0 00-2.147-2.19 5.565 5.565 0 00-7.554 2.081 5.482 5.482 0 002.069 7.507 5.566 5.566 0 007.554-2.082z" fill="#000"/><path fill-rule="evenodd" clip-rule="evenodd" d="M11.285 27.22a5.51 5.51 0 00.486 2.71.41.41 0 01-.744.342 6.35 6.35 0 016.236-8.973 6.334 6.334 0 015.856 6.787 6.35 6.35 0 01-10.102 4.636.409.409 0 11.488-.657 5.53 5.53 0 008.799-4.039 5.517 5.517 0 00-5.101-5.911 5.53 5.53 0 00-5.918 5.105z" fill="#000"/><path d="M25.567 15.182v-1.3h-1.425a1.21 1.21 0 00-1.22 1.2v1.3h-.815v1.198h.814v3.798h1.221V17.58h1.015l.206-1.199h-1.22v-1a.2.2 0 01.203-.199h1.22z" fill="#000"/><path fill-rule="evenodd" clip-rule="evenodd" d="M18.379 24.837a2.574 2.574 0 012.574 2.575v.616a2.574 2.574 0 01-2.574 2.575h-2.922a2.574 2.574 0 01-2.574-2.575v-.616a2.574 2.574 0 012.574-2.575h2.922zm-2.108 2.189v1.709c0 .254.28.408.495.271l1.34-.854a.322.322 0 000-.543l-1.34-.854a.322.322 0 00-.495.27z" fill="#C43B55"/><path fill-rule="evenodd" clip-rule="evenodd" d="M12.498 26.768a2.317 2.317 0 012.317-2.317h4.209a2.317 2.317 0 012.317 2.317v1.904a2.317 2.317 0 01-2.317 2.316h-4.21a2.317 2.317 0 01-2.316-2.316v-1.904zm2.317-1.545c-.853 0-1.545.692-1.545 1.545v1.904c0 .853.692 1.544 1.545 1.544h4.209c.853 0 1.544-.691 1.544-1.544v-1.904c0-.854-.691-1.545-1.544-1.545h-4.21z" fill="#000"/><path fill-rule="evenodd" clip-rule="evenodd" d="M16.629 26.971a.064.064 0 00-.1.055v1.708c0 .051.057.082.1.055l1.34-.855a.064.064 0 000-.108l-1.34-.855zm-.614.055a.58.58 0 01.89-.489l1.34.855a.58.58 0 010 .976l-1.34.855a.58.58 0 01-.89-.489v-1.709z" fill="#000"/><path fill-rule="evenodd" clip-rule="evenodd" d="M26.143 26.031v4.324l.994.824h3.579l1.193-1.03v-3.912l-.994-.823h-3.977l-.795.617zm1.79 2.883v-1.647l1.192-.618 1.193.824v1.441l-1.193.618-1.192-.618z" fill="#C43B55"/><path fill-rule="evenodd" clip-rule="evenodd" d="M25.757 27.345a2.317 2.317 0 012.317-2.317h1.904a2.317 2.317 0 012.317 2.317v1.903a2.317 2.317 0 01-2.317 2.317h-1.904a2.317 2.317 0 01-2.317-2.317v-1.904zm2.317-1.545c-.853 0-1.545.691-1.545 1.544v1.904c0 .854.692 1.545 1.545 1.545h1.904c.853 0 1.544-.691 1.544-1.545v-1.904c0-.853-.691-1.544-1.544-1.544h-1.904z" fill="#000"/><path fill-rule="evenodd" clip-rule="evenodd" d="M29.025 29.254a.957.957 0 100-1.915.957.957 0 000 1.915zm0 .772a1.73 1.73 0 100-3.46 1.73 1.73 0 000 3.46z" fill="#000"/><path d="M31.043 26.567a.288.288 0 11-.576 0 .288.288 0 01.576 0z" fill="#000"/></svg>