<svg width="30" height="30" fill="none" xmlns="http://www.w3.org/2000/svg"><path d="M7.5 21L4 17l2.5-3H10l4.5-3 1 1.5-4.5 3V18h3.5v4m-7-1v-2.5L6 17l1.5-1.5V21zm0 0v4.5h2V20h3v2m0 0h2m-2 0h-1v3.5H18V22h-3.5" stroke="#EB5757" stroke-linejoin="round"/><circle cx="9" cy="12" r="2" stroke="#EB5757"/><path d="M17 10.41l1.452-1.068M14 15.41l1.452-1.068M17 13.41L20.5 11" stroke="#EB5757" stroke-linecap="round"/><path d="M20 7c2.182-.504 2.564-1.343 3-3 .397 2.018 1.086 2.64 3 3-2.308.606-2.628 1.43-3 3-.334-1.939-1.01-2.576-3-3z" stroke="#EB5757" stroke-linejoin="round"/></svg>