<svg width="41" height="31" fill="none" xmlns="http://www.w3.org/2000/svg"><path d="M19.134 16.264a4.358 4.358 0 11-8.716 0 4.358 4.358 0 018.716 0z" fill="#C43B55"/><path d="M28.64 16.264c0 7.659-6.208 13.867-13.867 13.867-7.658 0-13.867-6.208-13.867-13.867 0-7.659 6.209-13.867 13.867-13.867 7.66 0 13.868 6.208 13.868 13.867zm-24.544 0c0 5.897 4.78 10.678 10.677 10.678 5.898 0 10.678-4.78 10.678-10.678 0-5.897-4.78-10.678-10.678-10.678-5.897 0-10.677 4.78-10.677 10.678z" fill="#C43B55"/><path fill-rule="evenodd" clip-rule="evenodd" d="M14.774 2.991c-7.33 0-13.273 5.943-13.273 13.273s5.943 13.273 13.273 13.273 13.273-5.943 13.273-13.273c0-5.143-2.925-9.604-7.206-11.808a.594.594 0 01.544-1.057c4.66 2.4 7.85 7.26 7.85 12.865 0 7.987-6.474 14.462-14.461 14.462S.313 24.25.313 16.264 6.787 1.802 14.774 1.802a.594.594 0 010 1.19z" fill="#000"/><path fill-rule="evenodd" clip-rule="evenodd" d="M14.776 26.367c-5.58 0-10.103-4.523-10.103-10.103S9.196 6.161 14.776 6.161 24.88 10.684 24.88 16.264c0 3.915-2.227 7.31-5.485 8.988a.594.594 0 00.544 1.057 11.291 11.291 0 006.13-10.045c0-6.236-5.056-11.292-11.293-11.292-6.236 0-11.292 5.056-11.292 11.292S8.54 27.556 14.776 27.556a.594.594 0 100-1.189z" fill="#000"/><path fill-rule="evenodd" clip-rule="evenodd" d="M8.132 14.485a6.874 6.874 0 11-.081 3.231.594.594 0 10-1.162.252 8.063 8.063 0 10.094-3.791.594.594 0 001.149.308z" fill="#000"/><path fill-rule="evenodd" clip-rule="evenodd" d="M18.417 15.287a3.773 3.773 0 10.045 1.774.594.594 0 111.161.252 4.962 4.962 0 11-.058-2.333.594.594 0 01-1.148.308z" fill="#000"/><path fill-rule="evenodd" clip-rule="evenodd" d="M18.12 16.439a.594.594 0 00-.548-.638l-.859-.066 16.53-9.543 2.386.288a.594.594 0 00.142-1.18l-.813-.098.312-.18 2.386.287a.594.594 0 10.143-1.18l-.813-.098.312-.18 2.386.287a.594.594 0 00.143-1.18l-1.797-.216.711-1.664A.594.594 0 0037.648.61l-.944 2.21-.313.18.322-.752a.594.594 0 10-1.093-.467l-.944 2.21-.313.18.322-.753a.594.594 0 00-1.093-.466l-.944 2.21-16.541 9.55.388-.82a.594.594 0 00-1.074-.509l-1.206 2.543a.594.594 0 00.492.847l2.774.212a.594.594 0 00.638-.547z" fill="#000"/></svg>