<svg width="96" height="96" fill="none" xmlns="http://www.w3.org/2000/svg"><path d="M86.385 17.574l-.536 1.47c-.998-.343-2.203-.649-3.2-.992l.535-1.47c.998.344 2.203.649 3.201.992zm-6.49-1.862l-.33 1.432-3.262-.664.33-1.432c.97.138 2.174.443 3.261.664zm-6.818-1.168l-.213 1.515c-1.176-.1-2.352-.199-3.322-.336l.124-1.394c1.148-.106 2.323-.007 3.41.215zm-6.91-.308l-.007 1.477c-.941.069-2.088.175-3.001.448l-.206.038-.2-1.44.206-.037c1.03-.19 2.178-.296 3.208-.486zm-6.977 1.497l.406 1.401a28.682 28.682 0 00-2.977 1.393l-.7-1.242 3.271-1.552zm-6.162 3.561l.906 1.204c-.856.685-1.8 1.492-2.539 2.261l-1.084-.96c.828-.89 1.655-1.782 2.717-2.505zm-3.703 6.061c-.593 1.059-1.097 1.995-1.484 3.016l-1.439-.473c.476-1.142.951-2.285 1.544-3.343l1.379.8zm-1.998 6.169c-.06.328-.032.533-.092.86-.003.74.11 1.562.225 2.385l-1.443.266c-.114-.823-.139-1.767-.253-2.59.06-.328.003-.739-.025-.945l1.588.024zm1 6.46c.232.906.786 1.858 1.163 3.054l-1.385.677c-.494-1.28-.932-2.148-1.28-3.138l1.502-.594zm2.532 6.071c.437.868.903 1.943 1.28 3.139l-1.385.677c-.466-1.074-.932-2.148-1.37-3.017l1.475-.799zm2.382 6.521c.288 1.318.43 2.346.396 3.618l-1.47.06c.063-1.066-.08-2.094-.34-3.206l1.414-.472zm-.061 7.182c-.27 1.105-.745 2.247-1.427 3.427l-1.261-.716c.504-.937.98-2.08 1.277-2.978l1.41.267zm-4.641 5.39l1.083.961c-.738.769-1.566 1.66-2.6 2.588l-.994-1.082c1.033-.928 1.772-1.697 2.51-2.466zm-5.196 4.439l.906 1.204c-.973.6-1.829 1.286-3.008 1.925l-.7-1.242c.973-.6 1.946-1.202 2.802-1.887zm-5.84 3.607l.701 1.242-.884.48c-.679.44-1.474.799-2.153 1.24l-.7-1.242c.678-.441 1.474-.799 2.152-1.24l.885-.48zm-6.073 3.44l.7 1.242c-1.061.723-2.035 1.324-2.802 1.887l-.906-1.204a77.588 77.588 0 003.008-1.925zm-5.636 4.308l.995 1.082c-.945.807-1.566 1.66-2.305 2.429l-1.172-.838c.621-.853 1.449-1.744 2.482-2.673zm-3.145 6.275c-.504.936-.774 2.04-1.044 3.145l-1.41-.267c.152-1.188.628-2.33 1.104-3.473l1.35.595z" fill="#000"/><path d="M83.426 11.62l-1.487.808 3.647 6.353-6.78 3.383.616 1.377 8.267-4.19-4.263-7.73z" fill="#000"/></svg>