<svg width="24" height="24" fill="none" xmlns="http://www.w3.org/2000/svg"><rect width="24" height="24" rx="6" fill="#834995"/><path d="M19.345 3.947c-.496-.456-2.504-1.913-6.98-1.933 0 0-5.277-.316-7.847 2.043-1.43 1.43-1.933 3.527-1.988 6.124-.054 2.598-.12 7.464 4.57 8.784h.004L7.1 20.98s-.031.817.508.98c.648.204 1.03-.417 1.652-1.085.34-.367.808-.906 1.164-1.316 3.21.27 5.675-.348 5.956-.438.648-.21 4.316-.68 4.91-5.546.617-5.023-.297-8.194-1.945-9.628z" fill="#fff"/><path d="M19.888 13.208c-.504 4.062-3.476 4.32-4.023 4.496-.235.074-2.402.613-5.124.437 0 0-2.032 2.449-2.664 3.086-.207.207-.434.187-.43-.223 0-.27.016-3.347.016-3.347-.004 0-.004 0 0 0-3.976-1.102-3.742-5.246-3.7-7.413.044-2.168.454-3.945 1.665-5.14 2.175-1.973 6.655-1.68 6.655-1.68 3.785.016 5.597 1.156 6.019 1.539 1.394 1.195 2.105 4.054 1.586 8.245z" fill="#834995"/><path d="M14.459 10.052c.016.336-.488.36-.504.024-.043-.86-.445-1.278-1.273-1.325-.336-.02-.305-.523.027-.503 1.09.058 1.695.683 1.75 1.804z" fill="#fff"/><path d="M15.251 10.493c.04-1.656-.996-2.952-2.96-3.097-.332-.023-.297-.527.035-.504 2.265.165 3.472 1.723 3.43 3.613-.005.336-.513.32-.505-.012z" fill="#fff"/><path d="M17.087 11.017c.004.336-.504.34-.504.004-.023-3.183-2.144-4.917-4.718-4.937-.332-.004-.332-.504 0-.504 2.879.02 5.195 2.008 5.222 5.437zm-.441 3.831v.008c-.422.742-1.21 1.563-2.023 1.3l-.008-.01c-.824-.231-2.765-1.231-3.991-2.208-.633-.5-1.211-1.09-1.656-1.656a12.684 12.684 0 01-1.203-1.82c-.832-1.504-1.016-2.175-1.016-2.175-.262-.813.555-1.602 1.3-2.023h.009c.359-.188.703-.125.933.152 0 0 .484.578.691.863.196.266.457.691.594.93.238.425.09.859-.144 1.038l-.47.375c-.237.192-.206.547-.206.547s.695 2.629 3.292 3.293c0 0 .356.031.547-.207l.375-.469c.18-.234.613-.383 1.04-.144.573.324 1.304.828 1.788 1.285.273.222.336.562.148.921z" fill="#fff"/></svg>