<svg width="24" height="24" fill="none" xmlns="http://www.w3.org/2000/svg"><g filter="url(#filter0_i)"><rect width="24" height="24" rx="6" fill="#00B5EE"/><path d="M15.708 21a5.35 5.35 0 01-2.277-.508 8.208 8.208 0 01-1.342.121c-4.76 0-8.632-3.825-8.632-8.527 0-.458.045-.934.138-1.449A5.172 5.172 0 013 8.227C3 5.346 5.374 3 8.293 3c.908 0 1.796.23 2.583.666.359-.047.75-.068 1.213-.068 2.3 0 4.458.88 6.079 2.48a8.384 8.384 0 012.516 6.008 8.66 8.66 0 01-.129 1.586 5.1 5.1 0 01.445 2.1C21 18.655 18.626 21 15.708 21zm-2.055-1.976l.216.115a3.928 3.928 0 001.839.455c2.143 0 3.886-1.715 3.886-3.822a3.7 3.7 0 00-.402-1.692l-.114-.225.055-.247c.099-.437.144-.92.144-1.522 0-3.905-3.225-7.082-7.188-7.082-.495 0-.888.027-1.238.087l-.262.044-.226-.14a3.916 3.916 0 00-2.07-.589c-2.143 0-3.887 1.715-3.887 3.822 0 .68.184 1.347.532 1.93l.14.234-.055.268a7.02 7.02 0 00-.16 1.426c0 3.927 3.242 7.121 7.226 7.121.384 0 .805-.044 1.324-.139l.24-.044zm2.882-5.095c0-.506-.1-.94-.299-1.293a2.526 2.526 0 00-.831-.872 5.31 5.31 0 00-1.262-.573 17.663 17.663 0 00-1.632-.424 28.35 28.35 0 01-1.02-.249c-.2-.054-.4-.132-.594-.229a1.351 1.351 0 01-.44-.33c-.1-.121-.18-.26-.18-.428 0-.273.182-.502.49-.703.32-.208.75-.294 1.278-.294.568 0 .984.076 1.232.263a2.4 2.4 0 01.661.815c.16.271.303.461.441.582.148.13.363.189.636.189.3 0 .556-.098.757-.306.201-.208.341-.446.341-.708 0-.272-.116-.553-.269-.836-.152-.28-.392-.55-.717-.802-.322-.25-.732-.453-1.218-.603-.484-.15-1.064-.226-1.723-.226-.823 0-1.552.113-2.163.339-.62.227-1.103.561-1.432.988-.333.43-.528.93-.528 1.484 0 .582.187 1.075.503 1.47.313.387.738.697 1.268.921.517.218 1.167.411 1.933.574.563.119 1.018.23 1.354.334.32.1.586.245.788.432a.91.91 0 01.295.695c0 .366-.19.666-.558.916-.375.255-.875.355-1.485.355-.444 0-.804-.035-1.072-.161a1.623 1.623 0 01-.618-.475 3.66 3.66 0 01-.425-.747c-.117-.273-.261-.485-.432-.628a.993.993 0 00-.65-.239c-.308 0-.567.11-.77.298a.92.92 0 00-.307.693c0 .43.159.876.473 1.324a3.44 3.44 0 001.214 1.072c.693.366 1.582.55 2.641.55.882 0 1.658-.135 2.305-.402.653-.27 1.157-.65 1.499-1.13a2.772 2.772 0 00.516-1.636z" fill="#fff"/></g><defs><filter id="filter0_i" x="-4" y="-4" width="28" height="28" filterUnits="userSpaceOnUse" color-interpolation-filters="sRGB"><feFlood flood-opacity="0" result="BackgroundImageFix"/><feBlend in="SourceGraphic" in2="BackgroundImageFix" result="shape"/><feColorMatrix in="SourceAlpha" values="0 0 0 0 0 0 0 0 0 0 0 0 0 0 0 0 0 0 127 0" result="hardAlpha"/><feOffset dx="-4" dy="-4"/><feGaussianBlur stdDeviation="4"/><feComposite in2="hardAlpha" operator="arithmetic" k2="-1" k3="1"/><feColorMatrix values="0 0 0 0 0 0 0 0 0 0 0 0 0 0 0 0 0 0 0.15 0"/><feBlend in2="shape" result="effect1_innerShadow"/></filter></defs></svg>