<svg width="26" height="26" fill="none" xmlns="http://www.w3.org/2000/svg"><path fill-rule="evenodd" clip-rule="evenodd" d="M5.862 3.42c0-1.29 1.108-2.337 2.474-2.337h8.248c1.367 0 2.474 1.047 2.474 2.337v20.244c0 1.29-1.107 2.336-2.474 2.336H8.336c-1.366 0-2.474-1.047-2.474-2.336V3.42zm10.722-1.168H8.336c-.683 0-1.237.523-1.237 1.168v19.658c0 .16.132.293.293.293h10.136a.293.293 0 00.293-.293V3.42c0-.645-.554-1.168-1.237-1.168z" fill="#A62E41"/><path d="M9.16 2.208c0-.467.37-1.125.825-1.125h4.949c.454 0 .825.66.825 1.125a.835.835 0 01-.825.842H9.985a.834.834 0 01-.825-.842z" fill="#A62E41"/><path d="M11.838 24.546c0-.343.28-.621.626-.621a.625.625 0 01.579.86.623.623 0 01-.58.384.624.624 0 01-.625-.623z" fill="#fff"/></svg>