<svg width="26" height="26" fill="none" xmlns="http://www.w3.org/2000/svg"><path d="M22.167 8.942l2.634-2.655a.352.352 0 00-.082-.557l-8.648-4.687a.352.352 0 00-.416.06L13 3.758l-2.655-2.654a.348.348 0 00-.416-.06L7.152 2.547a.35.35 0 00-.142.477.353.353 0 00.477.142l2.546-1.38 2.385 2.384-8.025 4.337-2.365-2.383L6.25 3.836a.348.348 0 00.142-.476.351.351 0 00-.476-.142L1.28 5.732a.351.351 0 00-.082.556l2.634 2.656-2.634 2.655a.352.352 0 00.082.557l2.696 1.46v6.345c0 .012 0 .024.002.036l.002.015c0 .006.001.013.003.019l.005.022.003.01.008.023.003.01.01.019.005.012.009.015.009.015.008.011.012.016.008.009.015.017.009.008.016.015.017.012.01.008.031.019 8.67 4.686a.336.336 0 00.038.018l.009.003.03.01.01.002a.37.37 0 00.03.006l.01.002a.356.356 0 00.081 0l.01-.002a.367.367 0 00.03-.006l.011-.002a.333.333 0 00.078-.031l8.669-4.686a.366.366 0 00.031-.019l.01-.008a.316.316 0 00.017-.012l.016-.015.009-.008a.344.344 0 00.015-.017l.008-.009.012-.016.008-.011.009-.015a.292.292 0 00.009-.015l.006-.012a.38.38 0 00.009-.02l.003-.01.008-.021.003-.01.005-.023c.002-.006.002-.013.003-.019l.002-.015a.364.364 0 00.002-.036v-6.344l2.696-1.461a.353.353 0 00.082-.557l-2.634-2.656zm-6.2-7.156l8.005 4.339-2.365 2.383-8.025-4.338 2.384-2.384zM4.493 13.096L2.028 11.76l2.365-2.383 8.025 4.337-2.384 2.385-5.537-3a.036.036 0 00-.003-.002zM12.65 24.06l-7.97-4.31v-5.754l5.25 2.845a.35.35 0 00.415-.06l2.303-2.304v9.58zM13 13.229L5.07 8.944 13 4.655l7.932 4.288L13 13.23zm8.507-.133a.16.16 0 00-.006.003l-1.751.95a.35.35 0 10.335.618l1.235-.67v5.755l-7.968 4.307v-9.58l2.303 2.303a.349.349 0 00.416.06l2.778-1.506a.349.349 0 00.142-.476.352.352 0 00-.478-.141l-2.546 1.38-2.385-2.384 8.026-4.339 2.364 2.384-2.465 1.336z" fill="#000" stroke="#000" stroke-width=".6"/></svg>