<svg width="72" height="61" fill="none" xmlns="http://www.w3.org/2000/svg"><path d="M3.453 2.016l1.839-.97 1.639 3.5-1.84.97-1.638-3.5zM7.302 9.64l1.839-.97c.733 1.443 1.476 2.683 2.01 4.12l-1.839.97c-.743-1.24-1.476-2.683-2.01-4.12zm4.21 8.448l1.84-.97c.733 1.443 1.476 2.683 2.219 3.922l-1.65 1.178c-.932-1.448-1.666-2.89-2.408-4.13zm4.828 8.057l1.649-1.178c.742 1.24 1.684 2.485 2.626 3.73l-1.649 1.177c-.942-1.245-1.883-2.49-2.626-3.729zm5.452 7.463l1.658-1.38c.942 1.244 1.893 2.286 3.034 3.536l-1.458 1.386a26.732 26.732 0 01-3.234-3.542zm6.476 6.88l1.468-1.59c1.15 1.048 2.3 2.094 3.46 2.938l-1.268 1.594c-1.36-.849-2.51-1.895-3.66-2.942zm7.328 5.681l1.078-1.802a36.047 36.047 0 003.895 2.134l-.879 1.808c-1.377-.442-2.735-1.29-4.094-2.14zm8.587 4.29l.689-2.016c1.377.443 2.944 1.094 4.33 1.333l-.49 2.021c-1.585-.244-3.161-.692-4.529-1.337zm9.077 2.27l.29-2.027c1.186.234 2.582.27 3.777.301l.598.016-.09 2.031-.798-.02c-1.196-.031-2.391-.062-3.777-.301zm9.267-1.998c1.404-.167 3.017-.532 4.43-.902l.507 2.047c-1.613.365-3.026.735-4.638 1.1l-.299-2.245z" fill="#000"/><path d="M59.401 44.142l-1.062 1.592 8.495 5.08-5.527 8.36 1.54 1.053 6.993-10.145-10.439-5.94z" fill="#000"/></svg>