<svg width="48" height="48" fill="none" xmlns="http://www.w3.org/2000/svg"><path d="M29.031 30.283a2 2 0 00-3.522 1.263l.477 1.331a2 2 0 003.045-2.594zm-3.408-11.018a2 2 0 00-2.03-3.142l-1.189.767a2 2 0 103.219 2.375zm-5.018 4.52a2 2 0 00-2.03-3.142l-1.188.767a2 2 0 003.218 2.375z" fill="#C43B55"/><path d="M38 24.5C38 31.127 32.627 37 26 37c-1.167 0-3-.5-3.5-1-.765-.766 2.178-6.05-5.5-8-1-.334-3-1.5-3-3.5 0-6.628 5.373-12 12-12 4.337 0 8.138 2.301 10.246 5.75" stroke="#000" stroke-linecap="round" stroke-linejoin="round"/><path d="M16.5 16c0-8-3-8-3 0v12h3V16z" fill="#C43B55"/><path d="M13.5 16c0-8 3-8 3 0v12m-3 0v3h3v-3m-3 0h3m-3 0v-9.5" stroke="#000" stroke-linecap="round"/><path d="M12.5 35.5c0-3.5.5-4 2.5-4h1.5C20.5 36 15 39 10 38c2 0 2.5-1.5 2.5-2.5z" fill="#C43B55"/><path d="M14.903 37.973c-1.415.545-3.189.69-4.903.325 1.961 0 2.452-1.569 2.451-2.614 0-3.661.49-4.184 2.452-4.184h.088c1.187 0 2.433.483 2.82 1.606.547 1.59-.166 2.922-1.217 3.865" stroke="#000" stroke-linecap="round" stroke-linejoin="round"/><path d="M24 20a2 2 0 10-1.5-.677" stroke="#000" stroke-linecap="round"/><path d="M29.068 20.517a2 2 0 003.723.372l.14-1.407a2 2 0 00-3.863 1.035zm2.447 4.163a2 2 0 00.466 3.714l1.403-.176a2 2 0 00-1.869-3.537z" fill="#C43B55"/><path d="M31 18a2 2 0 101.323.5m2.177 8a2 2 0 10-.677 1.5M27.5 33.5a2 2 0 111.732-1M19 24.5a2 2 0 111.678-.912" stroke="#000" stroke-linecap="round"/></svg>