<svg width="48" height="48" fill="none" xmlns="http://www.w3.org/2000/svg"><g clip-path="url(#clip0)"><path d="M28.002 29.643L26.64 28.28l1.377-1.65 1.09 1.089 1.095-.006 6.805 7.08-2.753 2.753-6.805-7.08.552-.824z" fill="#C43B55"/><path fill-rule="evenodd" clip-rule="evenodd" d="M20.179 12.685c-4.125.04-7.493 3.428-7.522 7.566a7.332 7.332 0 007.418 7.42c4.125-.04 7.492-3.427 7.521-7.566a7.376 7.376 0 00-1.103-3.955.497.497 0 01.16-.679.485.485 0 01.674.15 8.35 8.35 0 011.249 4.475c-.033 4.68-3.842 8.512-8.508 8.558a8.294 8.294 0 01-8.39-8.394c.032-4.68 3.841-8.512 8.508-8.558 1.748-.017 3.37.5 4.712 1.4.223.15.28.455.127.681a.493.493 0 01-.681.14 7.318 7.318 0 00-4.165-1.238z" fill="#000"/><path fill-rule="evenodd" clip-rule="evenodd" d="M20.06 29.637c5.207-.05 9.458-4.326 9.494-9.55.037-5.223-4.155-9.417-9.363-9.366-5.207.05-9.458 4.326-9.494 9.55a9.312 9.312 0 001.393 4.992.497.497 0 01-.16.68.485.485 0 01-.674-.15 10.286 10.286 0 01-1.539-5.513c.04-5.766 4.733-10.486 10.481-10.542 5.748-.056 10.376 4.573 10.336 10.34-.04 5.766-4.733 10.486-10.481 10.542a10.2 10.2 0 01-5.805-1.725.489.489 0 01-.127-.681.492.492 0 01.681-.139 9.237 9.237 0 005.258 1.562z" fill="#000"/><path fill-rule="evenodd" clip-rule="evenodd" d="M27.95 26.015l1.456 1.459.364-.055a1.687 1.687 0 011.45.474l5.668 5.685a1.7 1.7 0 01.473 1.455l-.031.203a1.755 1.755 0 01-.493.977l-.99.992a1.746 1.746 0 01-.973.495l-.203.03a1.687 1.687 0 01-1.45-.474l-5.667-5.685a1.7 1.7 0 01-.473-1.455l.055-.365-1.455-1.46 2.27-2.276zm.167 3.785l-.067.447c-.035.23.04.46.202.623l5.667 5.685a.723.723 0 00.622.204l.202-.031a.749.749 0 00.418-.212l.99-.993a.753.753 0 00.21-.418l.03-.203a.729.729 0 00-.202-.624l-5.667-5.684a.723.723 0 00-.621-.204l-.446.068-1.338 1.343zm.418-1.798l-.596-.598-.873.876.597.598.872-.876z" fill="#000"/></g><defs><clipPath id="clip0"><path fill="#fff" d="M0 0h48v48H0z"/></clipPath></defs></svg>