<svg width="120" height="99" fill="none" xmlns="http://www.w3.org/2000/svg"><path d="M31.793 25.123l1.183 1.484c1.196-1.092 2.391-2.183 3.761-3.194l-1.183-1.484c-1.274.821-2.566 2.103-3.761 3.194zm7.697-6.308l1.087 1.674c1.37-1.01 2.644-1.832 3.917-2.653l-.816-1.783c-1.448.74-2.722 1.561-4.188 2.762zm8.628-5.175l.546 1.894 1.352-.55c.985-.25 1.796-.58 2.782-.83l-.276-2.004c-.986.25-2.145.42-3.052.94l-1.352.55zm9.39-2.008l-.168 2.034c1.507-.01 2.92.171 4.235.543l.613-2.064c-1.316-.371-2.998-.442-4.68-.513zm7.995 4.152c1.124.752 2.247 1.504 3.178 2.637l1.562-1.392c-.93-1.133-2.306-2.236-3.604-3.068l-1.135 1.823zm5.16 6.365c.39 1.353.78 2.706.804 4.359l1.97-.5c-.198-1.733-.395-3.467-.96-4.9l-1.815 1.041zm.719 8.777c-.055 1.383-.38 2.875-.626 4.639l2.03.231c.247-1.763.668-3.446.722-4.829l-2.126-.04zm-1.619 9.578l-.325 1.492c-.306 1.032-.439 2.144-.841 3.366l2.03.232c.307-1.032.44-2.144.746-3.176l.325-1.493-1.935-.421zM67.7 50.11c-.15 1.573-.397 3.336-.547 4.909l1.952-.04.452-4.718-1.856-.151zm-.65 9.788c.023 1.653.047 3.306.167 4.77l1.97-.5c-.12-1.464-.143-3.117-.263-4.58l-1.875.31zm.778 9.508l.882 4.63 1.893-.77c-.294-1.544-.684-2.896-.978-4.44l-1.797.58zm2.209 9.23c.564 1.432 1.033 3.056 1.597 4.489l1.814-1.041c-.564-1.433-1.128-2.866-1.518-4.22l-1.893.771zm3.657 8.487c.834 1.324 1.399 2.757 2.234 4.08l1.736-1.312c-.835-1.323-1.495-2.566-2.156-3.808l-1.814 1.04zm4.834 7.858l1.513 2.105 1.563-1.392c-.505-.701-1.105-1.213-1.61-1.914l-1.466 1.201z" fill="#000"/><path d="M31.13 14.075l2.032.232-1.907 10.152 9.748.266-.169 2.035-11.971-.118 2.267-12.567z" fill="#000"/></svg>