<svg width="60" height="60" fill="none" xmlns="http://www.w3.org/2000/svg"><rect width="60" height="60" rx="10" fill="#A62E41"/><path d="M39.267 30c-1.267 0-3.8 2.533-8.867 2.533-5.067 0-7.6-2.533-8.867-2.533A2.54 2.54 0 0019 32.533c0 1.267.76 1.9 1.267 2.154 1.52.886 6.333 2.913 6.333 2.913l-5.447 6.84s-1.013 1.14-1.013 2.027A2.54 2.54 0 0022.673 49c1.267 0 1.9-.887 1.9-.887L30.4 41.4l5.7 6.713S36.733 49 38 49a2.54 2.54 0 002.533-2.533c0-.76-1.013-2.027-1.013-2.027L34.2 37.6s4.813-2.027 6.333-2.913c.507-.38 1.267-.887 1.267-2.154A2.54 2.54 0 0039.267 30zM30.4 11a8.812 8.812 0 00-8.867 8.867 8.812 8.812 0 008.867 8.866 8.812 8.812 0 008.867-8.866A8.812 8.812 0 0030.4 11zm0 13.3c-2.407 0-4.433-2.027-4.433-4.433 0-2.407 2.026-4.434 4.433-4.434s4.433 2.027 4.433 4.434c0 2.406-2.026 4.433-4.433 4.433z" fill="#fff"/></svg>