<svg width="24" height="24" fill="none" xmlns="http://www.w3.org/2000/svg"><path fill-rule="evenodd" clip-rule="evenodd" d="M7 4.594C7 3.714 7.756 3 8.688 3h5.627c.933 0 1.688.714 1.688 1.594v13.812c0 .88-.755 1.594-1.688 1.594H8.688C7.756 20 7 19.286 7 18.406V4.594zm7.315-.797H8.688c-.466 0-.844.357-.844.797v13.412c0 .11.09.2.2.2h6.915a.2.2 0 00.2-.2V4.594c0-.44-.378-.797-.844-.797z" fill="#A62E41"/><path d="M9.25 3.767c0-.318.252-.767.563-.767h3.376c.31 0 .563.45.563.767a.57.57 0 01-.563.575H9.813a.569.569 0 01-.563-.575z" fill="#A62E41"/><path d="M11.077 19.008c0-.234.191-.424.427-.424s.428.19.428.424a.426.426 0 01-.428.425.426.426 0 01-.427-.425z" fill="#fff"/></svg>