<svg width="48" height="48" fill="none" xmlns="http://www.w3.org/2000/svg"><path d="M10 33.537l4.514-8.384c1.473-.278 1.854-.07 2.365.43l-3.876 7.954H10zm14.403-9.459c3.268-3.955 7.238-2.794 8.814-1.72l2.15-2.58c-2.795-2.22-9.416-4.815-13.543 2.58l2.58 1.72z" fill="#C43B55"/><path fill-rule="evenodd" clip-rule="evenodd" d="M15.098 12.686c1.882-.731 4.037-.777 5.507-.598a.708.708 0 01.622.705v20.11c0 .394-.32.713-.714.713h-1.666a.713.713 0 01-.714-.713v-6.89h-.539l-3.61 7.209a.714.714 0 01-.639.394H11.04a.713.713 0 01-.625-1.057l3.958-7.157c-1.258-.676-2.867-2.363-3.172-5.402l.947-.095c.312 3.108 2.117 4.498 3.05 4.827l.53.187-4.285 7.747h1.755l3.808-7.604h2.08v7.604h1.19V13.008c-1.36-.137-3.23-.06-4.832.564-1.665.648-3.01 1.864-3.264 4.059l-.945-.109c.304-2.63 1.958-4.095 3.864-4.836zm3.204.995a.71.71 0 01.783.706v9.172c0 .336-.24.643-.595.699-.67.106-1.57.131-2.454-.251-.9-.39-1.724-1.174-2.273-2.574l-.007-.018-.005-.017c-.35-1.15-.554-2.91 0-4.478.28-.793.757-1.542 1.508-2.125s1.75-.98 3.043-1.114zm-.169.978c-1.01.141-1.75.467-2.29.886a3.626 3.626 0 00-1.194 1.69c-.461 1.307-.302 2.837.008 3.869.467 1.183 1.122 1.756 1.757 2.03.578.25 1.188.274 1.72.213V14.66z" fill="#000"/><path fill-rule="evenodd" clip-rule="evenodd" d="M22.567 22.423a.233.233 0 01-.055-.315 8.325 8.325 0 016.924-3.692c1.698 0 3.44.62 4.825 1.545a.232.232 0 01.05.34l-1.338 1.666a.246.246 0 01-.33.046 5.693 5.693 0 00-3.207-.983 5.71 5.71 0 00-4.804 2.616.247.247 0 01-.355.067l-1.71-1.29zm-.4.89a.23.23 0 00-.353.094c-.409 1.005-.589 2.126-.589 3.326 0 1.061.125 2.055.438 2.96a.23.23 0 00.365.097l1.776-1.462a.244.244 0 00.08-.246 5.704 5.704 0 01.135-3.162.244.244 0 00-.083-.274l-1.768-1.333zm.197 7.431a.233.233 0 00-.052.3 8.327 8.327 0 007.123 4.005 8.3 8.3 0 005.152-1.78.231.231 0 00-.008-.368l-1.8-1.348a.245.245 0 00-.277-.008 5.693 5.693 0 01-3.067.89 5.712 5.712 0 01-5.113-3.159.09.09 0 00-.137-.03l-1.82 1.498zm12.982 1.544a.233.233 0 00.315-.03 8.301 8.301 0 001.729-3.05.242.242 0 01.296-.163l.459.128c.126.035.2.167.162.292a9.268 9.268 0 01-2.525 4.03A9.259 9.259 0 0129.436 36a9.283 9.283 0 01-8.31-5.134c-.634-1.268-.853-2.68-.853-4.133 0-1.661.321-3.25 1.123-4.634a9.28 9.28 0 018.04-4.634c2.281 0 4.582.983 6.203 2.34.1.085.11.236.023.334l-.007.008-2.381 2.965-.157.195a.238.238 0 01-.343.03l-.187-.166a4.744 4.744 0 00-3.152-1.19 4.759 4.759 0 00-4.344 2.808 4.728 4.728 0 00-.415 1.944 4.74 4.74 0 00.498 2.119 4.76 4.76 0 004.262 2.633 4.741 4.741 0 003.254-1.284c.395-.37.765-.911 1.043-1.48a.227.227 0 00-.21-.325h-4.325a.238.238 0 01-.239-.238v-3.564c0-.131.107-.238.239-.238h9.027c.112 0 .21.078.233.187l.041.186a9.286 9.286 0 01.217 2.142.233.233 0 01-.244.228l-.476-.02a.243.243 0 01-.232-.246 8.321 8.321 0 00-.09-1.328.233.233 0 00-.231-.198h-7.294a.238.238 0 00-.238.238v1.663c0 .131.107.238.238.238h4.718c.158 0 .272.15.229.302l-.086.302c-.25.88-.77 1.874-1.413 2.583a.249.249 0 00.03.366l1.72 1.289z" fill="#000"/></svg>