<svg width="24" height="24" fill="none" xmlns="http://www.w3.org/2000/svg"><path fill-rule="evenodd" clip-rule="evenodd" d="M11.764 18.683h1.315s.397-.044.6-.266c.186-.203.18-.586.18-.586s-.025-1.79.794-2.054c.807-.26 1.844 1.73 2.943 2.496.83.579 1.462.452 1.462.452l2.938-.042s1.537-.096.808-1.322c-.06-.1-.424-.907-2.184-2.565-1.843-1.735-1.596-1.454.623-4.456 1.352-1.828 1.892-2.944 1.723-3.422-.16-.455-1.155-.335-1.155-.335l-3.308.02s-.245-.033-.427.077c-.178.109-.292.36-.292.36s-.524 1.415-1.222 2.618c-1.473 2.539-2.062 2.673-2.303 2.515-.56-.367-.42-1.476-.42-2.263 0-2.46.368-3.486-.716-3.751-.36-.089-.624-.147-1.543-.156-1.18-.013-2.18.004-2.746.285-.376.187-.666.604-.49.628.22.03.714.135.977.498.339.468.327 1.519.327 1.519s.195 2.896-.455 3.255c-.446.247-1.057-.257-2.37-2.56A21.553 21.553 0 015.64 7.146s-.098-.244-.272-.374c-.212-.158-.509-.208-.509-.208l-3.143.02s-.472.014-.645.222c-.154.185-.012.568-.012.568s2.46 5.844 5.247 8.788c2.555 2.7 5.457 2.522 5.457 2.522z" fill="#A62E41"/></svg>