<svg width="162" height="152" fill="none" xmlns="http://www.w3.org/2000/svg"><path d="M159.618 89.957l-2.156 3.185-5.741-3.882 2.156-3.185 5.741 3.882zm-12.961-8.202L144.5 84.94c-2.461-1.547-4.759-2.773-6.89-4.495l2.157-3.185c2.298 1.226 4.759 2.773 6.89 4.495zm-14.274-9.136l-2.156 3.185c-2.461-1.547-4.759-2.773-7.057-3.999l1.663-3.33c2.791 1.371 5.252 2.918 7.55 4.144zm-14.938-7.968l-1.663 3.331c-2.298-1.226-4.926-2.276-7.555-3.327l1.664-3.33c2.628 1.05 5.256 2.1 7.554 3.326zm-15.439-6.477l-1.501 3.651c-2.628-1.05-5.093-1.78-8.052-2.654l1.17-3.477a48.736 48.736 0 018.383 2.48zm-16.602-4.637l-1.007 3.797c-2.796-.553-5.591-1.107-8.224-1.34l.678-3.622c2.962.057 5.758.61 8.553 1.165zM68.46 51.529l-.184 3.768a69.25 69.25 0 00-8.232.296L59.898 52c2.637-.586 5.6-.529 8.562-.471zm-17.785 1.293l.64 3.738c-2.637.586-5.767 1.025-8.241 1.932l-.97-3.563c2.805-1.082 5.772-1.843 8.571-2.107zM33.86 57.678l1.3 3.388c-2.145.731-4.455 1.959-6.436 3.011l-.99.527-1.63-3.213 1.32-.701c1.981-1.053 3.962-2.105 6.436-3.012zM20.466 69.28c-2.148 1.55-4.463 3.595-6.448 5.466l-2.62-2.687c2.315-2.045 4.3-3.916 6.616-5.961l2.452 3.182z" fill="#000"/><path d="M31.34 76.555l.341-3.429-18.325-.008 1.713-17.961-3.435-.205-2.55 22.059 22.255-.456z" fill="#000"/></svg>