<svg width="11" height="16" fill="none" xmlns="http://www.w3.org/2000/svg"><path fill-rule="evenodd" clip-rule="evenodd" d="M5.487.67C2.825.67.693 2.668.693 5.102c0 .587.243 1.394.654 2.32.407.916.961 1.912 1.546 2.867a48.472 48.472 0 002.585 3.78 62.425 62.425 0 002.283-3.386c.64-1.022 1.275-2.119 1.749-3.12.48-1.015.771-1.882.771-2.46C10.281 2.667 8.15.67 5.487.67zm0 13.967l.281.196-.27.362-.284-.351c-.437-.541-1.73-2.278-2.916-4.213C1.704 9.663 1.134 8.639.71 7.686.292 6.743 0 5.832 0 5.102 0 2.272 2.47 0 5.487 0c3.016 0 5.487 2.271 5.487 5.102 0 .738-.352 1.721-.835 2.74C9.65 8.877 9 9.999 8.354 11.032a63.104 63.104 0 01-2.527 3.722l-.044.06-.01.015-.005.005-.28-.196zm0-11.106c-1.228 0-2.224.963-2.224 2.152 0 1.188.996 2.152 2.224 2.152 1.228 0 2.224-.964 2.224-2.152 0-1.189-.996-2.152-2.224-2.152zM2.57 5.683c0-1.559 1.306-2.823 2.917-2.823 1.61 0 2.917 1.264 2.917 2.823S7.098 8.505 5.487 8.505c-1.61 0-2.917-1.263-2.917-2.822z" fill="#A62E41"/></svg>