<svg width="26" height="26" fill="none" xmlns="http://www.w3.org/2000/svg"><path d="M13.5 4L16 1.5 24 6l-2.5 2.5-8-4.5zm-9 4.5l8-4-2.5-3L2 6l2.5 2.5zm8.5 5L4.5 9l-3 3 8.5 4.5 3-3zm3 2.5l-2.5-2.5L22 9l2.5 2.5L16 16z" fill="#C43B55"/><path d="M22.167 8.942l2.634-2.655a.352.352 0 00-.082-.557l-8.648-4.687a.352.352 0 00-.416.06L13 3.758l-2.655-2.654a.348.348 0 00-.416-.06L7.151 2.547a.35.35 0 00-.141.477.353.353 0 00.477.142l2.546-1.38 2.385 2.384-8.026 4.337-2.364-2.383L6.25 3.836a.348.348 0 00.142-.476.351.351 0 00-.477-.142L1.281 5.732a.351.351 0 00-.082.556l2.634 2.656-2.634 2.655a.352.352 0 00.082.557l2.696 1.46v6.345l.001.036.003.015.002.019.006.022c0 .004.002.007.003.01l.007.023.004.01.009.019.006.012.009.015.008.015.009.011.012.016.008.009.015.017.008.008.017.015.017.012.01.008.031.019 8.669 4.686a.334.334 0 00.118.039l.01.002a.357.357 0 00.081 0l.01-.002a.367.367 0 00.071-.018l.009-.003a.334.334 0 00.039-.018l8.668-4.686a.382.382 0 00.032-.019l.01-.008.017-.012.016-.015.009-.008.015-.017.008-.009.012-.016.008-.011.009-.015.009-.015.006-.012a.308.308 0 00.008-.02l.004-.01a.327.327 0 00.008-.021c0-.004.002-.007.003-.01l.005-.023.003-.019.002-.015a.364.364 0 00.002-.036v-6.344l2.696-1.461a.353.353 0 00.082-.557l-2.634-2.656zm-6.2-7.156l8.004 4.339-2.364 2.383-8.025-4.338 2.384-2.384zM4.493 13.096L2.028 11.76l2.364-2.383 8.026 4.337-2.385 2.385-5.536-3a.033.033 0 00-.003-.002zm8.154 10.963L4.68 19.75v-5.754l5.249 2.845a.35.35 0 00.416-.06l2.303-2.304v9.58zM13 13.229L5.068 8.944 13 4.655l7.932 4.288L13 13.23zm8.507-.133a.103.103 0 00-.006.003l-1.751.95a.35.35 0 10.335.618l1.235-.67v5.755l-7.969 4.307v-9.58l2.304 2.303a.349.349 0 00.416.06l2.777-1.506a.349.349 0 00.142-.476.352.352 0 00-.477-.141l-2.547 1.38-2.384-2.384 8.025-4.339 2.365 2.384-2.465 1.336z" fill="#000" stroke="#000" stroke-width=".6"/></svg>