<svg width="60" height="60" fill="none" xmlns="http://www.w3.org/2000/svg"><rect width="60" height="60" rx="10" fill="#A62E41"/><path fill-rule="evenodd" clip-rule="evenodd" d="M48.62 21.855s-.372-2.66-1.51-3.83c-1.446-1.538-3.065-1.545-3.808-1.634C37.985 16 30.008 16 30.008 16h-.016s-7.977 0-13.294.39c-.744.09-2.362.097-3.809 1.635-1.138 1.17-1.509 3.83-1.509 3.83S11 24.978 11 28.1v2.928c0 3.123.38 6.246.38 6.246s.37 2.659 1.51 3.83c1.446 1.537 3.345 1.49 4.19 1.65 3.04.296 12.92.388 12.92.388s7.985-.012 13.302-.403c.743-.09 2.362-.097 3.807-1.635 1.14-1.171 1.511-3.83 1.511-3.83s.38-3.123.38-6.246V28.1c0-3.122-.38-6.246-.38-6.246zM26.077 34.577l-.002-10.843 10.267 5.44-10.265 5.403z" fill="#fff"/></svg>