<svg width="10" height="18" fill="none" xmlns="http://www.w3.org/2000/svg"><path fill-rule="evenodd" clip-rule="evenodd" d="M.21 1.688C.21.756 1.007 0 1.988 0h5.92c.982 0 1.777.756 1.777 1.688v14.624c0 .932-.795 1.688-1.776 1.688H1.987C1.006 18 .21 17.244.21 16.312V1.688zM7.909.844H1.987c-.49 0-.888.378-.888.844V15.9c0 .11.09.2.2.2h7.297a.2.2 0 00.2-.2V1.688c0-.466-.398-.844-.888-.844z" fill="#A62E41"/><path d="M2.579.812c0-.336.265-.812.592-.812h3.553c.327 0 .592.476.592.812a.6.6 0 01-.592.609H3.17a.6.6 0 01-.59-.609z" fill="#A62E41"/><path d="M4.5 16.95a.45.45 0 01.9 0 .45.45 0 01-.9 0z" fill="#fff"/></svg>