<svg width="24" height="24" fill="none" xmlns="http://www.w3.org/2000/svg"><path d="M1 11.595V21.5a.5.5 0 00.5.5h21a.5.5 0 00.5-.5v-9.905m-22 0V7.12a.5.5 0 01.5-.5h4.083M1 11.595l.176.348A5.968 5.968 0 006.5 15.214v0M23 11.595V7.12a.5.5 0 00-.5-.5h-4.083M23 11.595l-.176.348a5.968 5.968 0 01-5.324 3.271v0m-11 0v1.762a.5.5 0 00.5.5h1.292a.5.5 0 00.5-.5v-1.762m-2.292 0h2.292m0 0h6.416m2.292 0v1.762a.5.5 0 01-.5.5h-1.292a.5.5 0 01-.5-.5v-1.762m2.292 0h-2.292M5.583 6.62l1.278-2.523A2 2 0 018.645 3h6.71a2 2 0 011.784 1.096l1.278 2.523m-12.834 0h12.834" stroke="#D6516B" stroke-width="1.5"/></svg>