<svg width="109" height="106" fill="none" xmlns="http://www.w3.org/2000/svg"><path d="M102.67 19.055c.702.695.265 2.444-1.924 4.063-1.765 1.306-4.176 2.593-6.656 3.81-1.234.604-2.49 1.194-3.696 1.76l-.027.013a192.253 192.253 0 00-3.431 1.637l-.012.006-.013.005c-3.125 1.26-7.522 3.83-10.228 7.69-1.35 1.923-2.275 4.163-2.42 6.722-.146 2.558-.862 5.327 7.35 18.739.147.265-6.306-8.616-6.317-7.639l-.702-2.083c-1.86-3.347-1.186-6.348-1.032-9.056.154-2.708 1.134-5.069 2.544-7.08 2.81-4.006 7.336-6.642 10.528-7.93 1.053-.522 2.222-1.07 3.432-1.639l.024-.01a247.11 247.11 0 003.688-1.758c2.477-1.214 4.838-2.479 6.548-3.743.855-.632.42-3.237 2.344-3.507z" fill="#000"/><g filter="url(#filter0_dd)"><path d="M20.548 51.694L5.808 99.611h96.863C95.886 88.268 82.175 64.89 75.998 53.778c-7.335-13.195 4.212-21.065 10.53-23.611 8.422-4.167 24.284-10.14 11.93-14.584-12.353-4.444-11.23-5.555-9.124-6.25l10.528-2.777-10.528-.695c-9.593.695-24.006 2.222-18.952 5.556 6.317 4.166 7.721 4.166 7.721 5.555 0 2.083-3.65 3.89-26.672 11.111-23.023 7.223-30.182 18.75-30.884 23.611z" fill="#3E3E3E"/></g><path fill-rule="evenodd" clip-rule="evenodd" d="M95.578 6.216l.832.062-10.493 2.696a6.177 6.177 0 00-.655.248c-.19.09-.295.167-.343.225-.03.036-.031.05-.018.09.025.074.111.21.35.413.47.404 1.39.952 2.98 1.71 1.582.752 3.8 1.7 6.849 2.906 1.334.528 2.309 1.079 2.96 1.657.655.582 1.002 1.213 1.022 1.89.02.666-.282 1.304-.767 1.9-.485.598-1.178 1.184-2.003 1.757-1.649 1.147-3.888 2.286-6.224 3.393-.932.441-1.877.877-2.81 1.306-1.42.655-2.267 1.302-3.538 1.93-3.144 1.268-8.045 4.028-12.117 8.257-2.033 2.111-3.354 4.583-4.027 7.4-.498 2.083.702 6.25 2.808 11.805 1.284 3.389 5.39 13.193 9.124 21.528 3.926 8.762 7.156 16.583 10.529 22.222h-4.913c-2.808-7.639-5.496-13.984-9.126-22.917-3.62-8.91-7.174-18.054-9.442-22.767-1.788-5.01-2.062-7.061-1.351-10.038.71-2.97 2.395-5.54 4.486-7.712 4.17-4.33 10.005-7.129 13.182-8.41 1.273-.63 2.68-1.278 4.106-1.935.931-.43 1.87-.862 2.785-1.295 2.336-1.107 4.528-2.225 6.125-3.335.798-.555 1.432-1.098 1.86-1.624.428-.526.625-1.006.612-1.445-.013-.431-.23-.896-.79-1.394-.564-.5-1.454-1.014-2.752-1.528-3.054-1.209-5.29-2.163-6.892-2.926-1.594-.759-2.588-1.34-3.136-1.81-.271-.232-.47-.467-.555-.717a.756.756 0 01.137-.747c.149-.183.37-.314.588-.416.225-.105.488-.198.753-.286l.018-.006 9.846-2.087z" fill="#F5F9FF"/><path fill-rule="evenodd" clip-rule="evenodd" d="M73.4 10.216c.16.237.558.541 1.337.883l.015.007-.157.31.157-.31h.001l.004.003.016.008.06.03.225.115c.194.1.47.245.802.426.663.36 1.549.864 2.436 1.434.884.569 1.782 1.212 2.463 1.852.34.32.635.647.848.973.21.323.358.671.358 1.025 0 .66-.362 1.32-1.157 2.027-.794.706-2.062 1.497-3.977 2.423-3.835 1.854-10.348 4.29-21.081 7.686-10.636 4.53-15.825 8.036-19.76 12.17-3.933 4.13-4.924 8.374-5.616 11.11L21.95 99.534h-5.255L27.928 51.61c.712-2.818 2.214-6.908 6.25-11.149 4.035-4.237 10.584-8.605 21.358-12.014 10.73-3.395 17.201-5.82 20.986-7.65 1.895-.915 3.095-1.673 3.817-2.314.722-.642.924-1.13.924-1.51 0-.168-.072-.383-.246-.65a4.873 4.873 0 00-.742-.846c-.635-.597-1.492-1.213-2.362-1.773a38.839 38.839 0 00-3.179-1.826c-.095-.05-.17-.087-.22-.113l-.057-.028-.012-.006c-.797-.351-1.355-.72-1.63-1.132a1.057 1.057 0 01-.192-.706c.026-.246.143-.463.305-.65.314-.363.85-.675 1.502-.952.663-.28 1.49-.542 2.425-.785 3.74-.968 9.405-1.318 13.883-1.645h.702c-4.464.326-10.73 1.365-14.407 2.317-.918.238-1.707.49-2.326.752-.63.266-1.04.527-1.246.764a.508.508 0 00-.14.27c-.006.063.007.143.08.252z" fill="#F5F9FF"/><g clip-path="url(#clip0)"><ellipse cx="91.442" cy="3.083" rx="1.404" ry="2.083" fill="url(#paint0_linear)"/><path d="M91.44 1a2.025 2.025 0 00-2.033 2.012c0 1.377 1.82 3.398 1.898 3.483.072.08.2.08.272 0 .078-.085 1.898-2.106 1.898-3.483 0-1.11-.913-2.012-2.034-2.012zm0 3.024a1.019 1.019 0 01-1.022-1.012c0-.558.459-1.012 1.023-1.012.564 0 1.023.454 1.023 1.012s-.459 1.012-1.023 1.012z" fill="#F985A0"/></g><g clip-path="url(#clip1)"><ellipse cx="16.335" cy="71.139" rx="7.721" ry="7.639" fill="url(#paint1_linear)"/><path d="M17.037 60.722c-5.606 0-10.168 4.513-10.168 10.06 0 6.884 9.1 16.99 9.487 17.417.364.401 1 .4 1.363 0 .387-.426 9.486-10.533 9.486-17.417 0-5.547-4.561-10.06-10.168-10.06zm0 15.122c-2.82 0-5.115-2.27-5.115-5.062 0-2.79 2.294-5.061 5.115-5.061s5.116 2.27 5.116 5.061-2.295 5.062-5.116 5.062z" fill="#A62E41"/></g><path fill="#000" d="M5.808 99.611h96.863V101H5.808z"/><path d="M49.327 99.611l-.702-12.5h6.317l1.404 12.5h-7.02zm-1.404-22.916l-.702-9.723h4.211l1.404 9.723h-4.913zm-1.404-16.667v-6.945h3.51l.701 6.25-4.211.695zm0-11.806l1.403-4.166h2.808l-.702 4.166h-3.51zm3.509-8.333l3.51-3.472h2.808l-2.808 3.472h-3.51zm7.721-6.25l4.212-2.084h2.105l-4.211 2.778-2.106-.694zM74.595 26l2.807-1.389h2.106L76.701 26h-2.106zm7.018-2.778l2.808-1.389h2.106l-2.808 1.39h-2.106zm4.212-2.778l2.808-1.389h2.106l-2.808 1.39h-2.106zm3.51-2.083v-1.389h1.404v1.39h-1.404zm-.703-2.083l-1.404-.695h1.404l2.106.695h-2.106zm-2.806-2.084l-1.404-.694h1.404l1.404.694h-1.404zm-2.809-1.388l-1.404-.695h1.404l1.404.694h-1.404zM80.21 8.639l1.404-.695h.702l-.702.695H80.21z" fill="#F5F9FF"/><g clip-path="url(#clip2)"><ellipse cx="72.49" cy="29.472" rx="4.913" ry="4.861" fill="url(#paint2_linear)"/><path d="M71.787 21.833c-4.486 0-8.135 3.61-8.135 8.048 0 5.508 7.28 13.593 7.59 13.934.291.321.8.32 1.09 0 .31-.341 7.59-8.426 7.59-13.934 0-4.437-3.65-8.048-8.135-8.048zm0 12.098c-2.257 0-4.093-1.817-4.093-4.05 0-2.232 1.836-4.049 4.093-4.049 2.257 0 4.092 1.817 4.092 4.05 0 2.232-1.835 4.049-4.092 4.049z" fill="#D6516B"/></g><g clip-path="url(#clip3)"><ellipse cx="78.806" cy="9.333" rx="2.808" ry="2.778" fill="url(#paint3_linear)"/><path d="M78.806 5.167c-2.243 0-4.068 1.805-4.068 4.024 0 2.753 3.64 6.796 3.795 6.966.146.16.4.16.545 0 .155-.17 3.795-4.213 3.795-6.966 0-2.22-1.825-4.024-4.067-4.024zm0 6.048c-1.129 0-2.047-.908-2.047-2.024 0-1.117.918-2.025 2.047-2.025 1.128 0 2.046.908 2.046 2.025 0 1.116-.918 2.024-2.046 2.024z" fill="url(#paint4_linear)"/></g><defs><linearGradient id="paint0_linear" x1="91.442" y1="1" x2="91.442" y2="5.167" gradientUnits="userSpaceOnUse"><stop stop-color="#0A3D76"/><stop offset="1" stop-color="#0C53A3"/></linearGradient><linearGradient id="paint1_linear" x1="16.335" y1="63.5" x2="16.335" y2="78.778" gradientUnits="userSpaceOnUse"><stop stop-color="#0A3D76"/><stop offset="1" stop-color="#0C53A3"/></linearGradient><linearGradient id="paint2_linear" x1="72.49" y1="24.611" x2="72.49" y2="34.333" gradientUnits="userSpaceOnUse"><stop stop-color="#0A3D76"/><stop offset="1" stop-color="#0C53A3"/></linearGradient><linearGradient id="paint3_linear" x1="78.806" y1="6.556" x2="78.806" y2="12.111" gradientUnits="userSpaceOnUse"><stop stop-color="#0A3D76"/><stop offset="1" stop-color="#0C53A3"/></linearGradient><linearGradient id="paint4_linear" x1="82.622" y1="10.722" x2="74.977" y2="10.602" gradientUnits="userSpaceOnUse"><stop stop-color="#A62E41"/><stop offset="1" stop-color="#E13152"/></linearGradient><clipPath id="clip0"><path fill="#fff" transform="translate(88.633 1)" d="M0 0h5.615v5.556H0z"/></clipPath><clipPath id="clip1"><path fill="#fff" transform="translate(3 60.722)" d="M0 0h28.076v27.778H0z"/></clipPath><clipPath id="clip2"><path fill="#fff" transform="translate(60.557 21.833)" d="M0 0h22.461v22.222H0z"/></clipPath><clipPath id="clip3"><path fill="#fff" transform="translate(73.19 5.167)" d="M0 0h11.23v11.111H0z"/></clipPath><filter id="filter0_dd" x=".808" y=".861" width="108.192" height="104.75" filterUnits="userSpaceOnUse" color-interpolation-filters="sRGB"><feFlood flood-opacity="0" result="BackgroundImageFix"/><feColorMatrix in="SourceAlpha" values="0 0 0 0 0 0 0 0 0 0 0 0 0 0 0 0 0 0 127 0"/><feOffset dx="2" dy="2"/><feGaussianBlur stdDeviation="2"/><feColorMatrix values="0 0 0 0 0 0 0 0 0 0 0 0 0 0 0 0 0 0 0.3 0"/><feBlend in2="BackgroundImageFix" result="effect1_dropShadow"/><feColorMatrix in="SourceAlpha" values="0 0 0 0 0 0 0 0 0 0 0 0 0 0 0 0 0 0 127 0"/><feOffset dx="-1" dy="-1"/><feGaussianBlur stdDeviation="2"/><feColorMatrix values="0 0 0 0 0 0 0 0 0 0 0 0 0 0 0 0 0 0 0.2 0"/><feBlend in2="effect1_dropShadow" result="effect2_dropShadow"/><feBlend in="SourceGraphic" in2="effect2_dropShadow" result="shape"/></filter></defs></svg>