<svg width="30" height="30" fill="none" xmlns="http://www.w3.org/2000/svg"><path d="M12.172 8.014l-3.775 6.794m0 0l2.643 3.775m-2.643-3.775l-1.806 1.405a2.168 2.168 0 00-.473 2.915v0a2.168 2.168 0 002.92.656l.492-.295m1.51-.906l.754-.084m-.755.084l-1.51.906m7.55-1.66l-5.285.67m0 0l2.784 4.4a1.12 1.12 0 01-.37 1.559v0a1.12 1.12 0 01-1.5-.328L9.53 19.49m8.306-8.07c.865 1.44 1.349 2.896 1.45 4.07.103 1.21-.205 1.947-.68 2.233-.475.285-1.27.21-2.29-.451-.988-.641-2.046-1.753-2.91-3.194-.865-1.44-1.349-2.896-1.45-4.07-.103-1.21.204-1.948.68-2.233.475-.286 1.27-.21 2.29.45.988.642 2.045 1.753 2.91 3.194z" stroke="#EB5757"/><path d="M15.66 14.62c.805-.55 1.033-1.615.511-2.38-.522-.764-1.597-.939-2.401-.39m4.687-3.842L18.721 5m2.132 4.659l2.533-1.645M21.38 12.4l2.99.421" stroke="#EB5757" stroke-linecap="round"/></svg>