<svg width="24" height="24" fill="none" xmlns="http://www.w3.org/2000/svg"><path d="M3.375 3.97l-.485-.485-.53.53.75.75a.374.374 0 00.53 0L5.515 2.89l-.53-.53-1.61 1.61z" fill="url(#paint0_linear)"/><path d="M10.875 3.97l-.485-.485-.53.53.75.75a.374.374 0 00.53 0l1.875-1.875-.53-.53-1.61 1.61z" fill="url(#paint1_linear)"/><path d="M18.375 3.97l-.485-.485-.53.53.75.75a.374.374 0 00.53 0l1.875-1.875-.53-.53-1.61 1.61z" fill="url(#paint2_linear)"/><path d="M4.875 21.375a.374.374 0 00.265-.11l1.875-1.875-.53-.53-1.61 1.61-.485-.485-.53.53.75.75c.073.073.169.11.265.11z" fill="url(#paint3_linear)"/><path d="M12.375 21.375a.374.374 0 00.265-.11l1.875-1.875-.53-.53-1.61 1.61-.485-.485-.53.53.75.75c.073.073.169.11.265.11z" fill="url(#paint4_linear)"/><path d="M19.875 21.375a.374.374 0 00.265-.11l1.875-1.875-.53-.53-1.61 1.61-.485-.485-.53.53.75.75c.073.073.169.11.265.11z" fill="url(#paint5_linear)"/><path d="M23.25 10.5V5.25c0-.912-.656-1.673-1.52-1.839A3.003 3.003 0 0018.75.75a3.003 3.003 0 00-2.974 2.625h-1.552A3.002 3.002 0 0011.25.75a3.003 3.003 0 00-2.974 2.625H6.724A3.002 3.002 0 003.75.75c-1.654 0-3 1.346-3 3s1.346 3 3 3a3.003 3.003 0 002.974-2.625h1.552A3.003 3.003 0 0011.25 6.75a3.003 3.003 0 002.975-2.625h1.552A3.003 3.003 0 0018.75 6.75a3.002 3.002 0 002.965-2.567c.453.145.784.566.784 1.067v5.25c0 .62-.505 1.125-1.125 1.125h-6.22l.86-.86-.53-.53-1.39 1.39h-1.94l.86-.86-.53-.53-1.39 1.39h-1.94l.86-.86-.53-.53-1.39 1.39h-5.47A1.877 1.877 0 00.75 13.5v5.25c0 .912.656 1.673 1.52 1.839a3.003 3.003 0 002.98 2.661 3.003 3.003 0 002.974-2.625h1.552a3.003 3.003 0 002.974 2.625 3.003 3.003 0 002.975-2.625h1.552a3.003 3.003 0 002.974 2.625c1.654 0 3-1.346 3-3s-1.346-3-3-3a3.003 3.003 0 00-2.974 2.625h-1.553a3.003 3.003 0 00-2.974-2.625 3.003 3.003 0 00-2.974 2.625H8.224A3.003 3.003 0 005.25 17.25a3.002 3.002 0 00-2.965 2.567A1.123 1.123 0 011.5 18.75V13.5c0-.62.505-1.125 1.125-1.125h5.47l1.39 1.39.53-.53-.86-.86h1.94l1.39 1.39.53-.53-.86-.86h1.94l1.39 1.39.53-.53-.86-.86h6.22A1.877 1.877 0 0023.25 10.5zM3.75 6C2.51 6 1.5 4.99 1.5 3.75S2.51 1.5 3.75 1.5 6 2.51 6 3.75 4.99 6 3.75 6zm7.5 0C10.01 6 9 4.99 9 3.75s1.01-2.25 2.25-2.25 2.25 1.01 2.25 2.25S12.49 6 11.25 6zm7.5 0c-1.24 0-2.25-1.01-2.25-2.25s1.01-2.25 2.25-2.25S21 2.51 21 3.75 19.99 6 18.75 6zm1.5 12c1.24 0 2.25 1.01 2.25 2.25s-1.01 2.25-2.25 2.25S18 21.49 18 20.25 19.01 18 20.25 18zm-7.5 0c1.24 0 2.25 1.01 2.25 2.25s-1.01 2.25-2.25 2.25-2.25-1.01-2.25-2.25S11.51 18 12.75 18zm-7.5 0c1.24 0 2.25 1.01 2.25 2.25S6.49 22.5 5.25 22.5 3 21.49 3 20.25 4.01 18 5.25 18z" fill="#0A3D76"/><defs><linearGradient id="paint0_linear" x1="5.418" y1="3.617" x2="2.454" y2="3.538" gradientUnits="userSpaceOnUse"><stop stop-color="#A62E41"/><stop offset="1" stop-color="#E13152"/></linearGradient><linearGradient id="paint1_linear" x1="12.918" y1="3.617" x2="9.954" y2="3.538" gradientUnits="userSpaceOnUse"><stop stop-color="#A62E41"/><stop offset="1" stop-color="#E13152"/></linearGradient><linearGradient id="paint2_linear" x1="20.418" y1="3.617" x2="17.454" y2="3.538" gradientUnits="userSpaceOnUse"><stop stop-color="#A62E41"/><stop offset="1" stop-color="#E13152"/></linearGradient><linearGradient id="paint3_linear" x1="6.918" y1="20.117" x2="3.954" y2="20.038" gradientUnits="userSpaceOnUse"><stop stop-color="#A62E41"/><stop offset="1" stop-color="#E13152"/></linearGradient><linearGradient id="paint4_linear" x1="14.418" y1="20.117" x2="11.454" y2="20.038" gradientUnits="userSpaceOnUse"><stop stop-color="#A62E41"/><stop offset="1" stop-color="#E13152"/></linearGradient><linearGradient id="paint5_linear" x1="21.918" y1="20.117" x2="18.954" y2="20.038" gradientUnits="userSpaceOnUse"><stop stop-color="#A62E41"/><stop offset="1" stop-color="#E13152"/></linearGradient></defs></svg>