<svg width="60" height="60" fill="none" xmlns="http://www.w3.org/2000/svg"><rect width="60" height="60" rx="10" fill="#A62E41"/><path d="M11.615 23.618h7.881V49h-7.88V23.618zM15.57 11a4.58 4.58 0 014.571 4.578 4.58 4.58 0 01-4.57 4.577A4.57 4.57 0 0111 15.578 4.57 4.57 0 0115.57 11zm8.877 12.618h7.544v3.477h.103c1.055-1.995 3.618-4.093 7.456-4.093 7.97 0 9.449 5.252 9.449 12.089V49h-7.867V36.66c0-2.948-.043-6.733-4.087-6.733-4.101 0-4.717 3.213-4.717 6.514V49h-7.866l-.015-25.382z" fill="#fff"/></svg>