<svg width="112" height="110" fill="none" xmlns="http://www.w3.org/2000/svg"><path d="M84.8 89.522l-1.63-1.395c.953-1.223 1.905-2.446 2.756-3.864l1.63 1.395c-.672 1.327-1.804 2.641-2.757 3.864zm5.41-7.924l-1.81-1.304c.852-1.419 1.523-2.746 2.195-4.073l1.887 1.017a19.503 19.503 0 01-2.273 4.36zm4.162-9.02l-1.965-.73c.156-.573.313-1.146.39-1.433.134-1.054.369-1.914.502-2.968l2.043.445c-.133 1.055-.165 2.305-.579 3.255-.078.286-.235.859-.39 1.432zm.895-10.077l-2.02.037a19.483 19.483 0 00-1.05-4.65l1.997-.519c.53 1.46.802 3.295 1.073 5.132zm-5.118-9.004c-.889-1.277-1.777-2.554-3.025-3.65l1.21-1.6c1.248 1.095 2.518 2.672 3.508 4.145l-1.693 1.105zm-7-6.076c-1.404-.523-2.808-1.045-4.47-1.19l.267-2.11c1.763.341 3.525.682 5.03 1.4l-.828 1.9zm-8.892-1.417c-1.38-.04-2.839.206-4.578.347l-.475-2.227c1.74-.142 3.378-.478 4.758-.438l.295 2.318zm-9.415 1.07l-1.458.246c-.999.26-2.099.323-3.276.674l-.475-2.228c.999-.259 2.098-.323 3.097-.582l1.459-.246.654 2.136zm-9.391 1.552c-1.56.05-3.3.192-4.86.242l-.193-2.122 4.68-.151.373 2.031zm-9.742.002c-1.661-.145-3.323-.29-4.804-.526l.266-2.11c1.482.237 3.143.382 4.625.618l-.087 2.018zm-9.632-1.534l-4.749-1.295.547-2.004c1.583.431 2.987.954 4.57 1.385l-.368 1.914zm-9.521-3.071c-1.505-.718-3.19-1.345-4.694-2.063l.828-1.9c1.504.718 3.01 1.436 4.413 1.958l-.547 2.005zm-8.951-4.594c-1.427-1.004-2.932-1.722-4.359-2.726l1.109-1.796c1.426 1.004 2.752 1.813 4.077 2.622l-.827 1.9zm-8.46-5.83l-2.292-1.8 1.21-1.6c.764.6 1.349 1.29 2.113 1.89l-1.03 1.51z" fill="#000"/><path d="M94.818 87.256l-.474-2.226-9.95 1.342-1.428-10.623-2.02.037 1.544 13.031 12.328-1.56z" fill="#000"/></svg>