<svg width="24" height="24" fill="none" xmlns="http://www.w3.org/2000/svg"><path d="M17.43 14.031a.309.309 0 01-.277-.174l-3.071-6.352a.41.41 0 01-.017-.042c0-.012-.364-1.174-.705-2.344-.727-2.498-.67-2.59-.574-2.74.057-.09.176-.277 3.173-1.553a.314.314 0 01.408.165.31.31 0 01.022.16c0 .024-.279 2.524.907 3.887.495.571 1.19.864 2.066.879a.305.305 0 01.302.277.32.32 0 01-.02.147c-.042.105-.968 2.66 3.681 4.745a.31.31 0 01-.01.572L17.55 14.01a.296.296 0 01-.12.021z" fill="#794E26"/><path d="M16.079 1.112s-.597 5.048 3.275 5.113c0 0-1.169 2.899 3.841 5.142L17.43 13.72l-3.07-6.352s-1.438-4.627-1.314-4.824c.124-.196 3.035-1.434 3.035-1.434l-.002.002zm.002-.622a.609.609 0 00-.24.05c-3.086 1.312-3.202 1.495-3.313 1.672-.171.269-.12.56.075 1.322.106.415.261.977.463 1.67.341 1.173.703 2.338.707 2.35.008.029.02.057.033.085l3.07 6.351a.62.62 0 00.788.304l5.766-2.353a.616.616 0 00.389-.565.621.621 0 00-.37-.578c-4.415-1.98-3.531-4.324-3.522-4.347a.623.623 0 00-.275-.776.615.615 0 00-.286-.076c-.797-.014-1.4-.267-1.84-.775-.56-.643-.76-1.592-.826-2.273a7.19 7.19 0 01-.006-1.371.624.624 0 00-.36-.64.616.616 0 00-.253-.054V.49z" fill="#291D11"/><path d="M11.957 23.78c-.59 0-1.179-.056-1.759-.165a10.154 10.154 0 01-2.18-.552c-.926-.349-1.81-.8-2.637-1.344a12.124 12.124 0 01-2.328-1.982 10.935 10.935 0 01-2.13-3.568c-1.212-3.254-.853-6.885.994-9.962C3.745 3.16 6.71 1.16 10.05.731c.877-.126 1.784-.256 2.685-.256a7.13 7.13 0 012.028.27c.425.113.843.254 1.25.42a.217.217 0 01.132.156.222.222 0 01-.05.198l-.155.17a3.15 3.15 0 00-.54 1.475v.097l.035.871c.12.671.455 1.284.955 1.746a3.095 3.095 0 001.81.811h.075a.22.22 0 01.188.301 3.111 3.111 0 00.518 3.134l.608.555c.435.303.94.49 1.468.543h.1l.867-.036c.308-.057.605-.16.882-.304a.216.216 0 01.207.002.22.22 0 01.115.172c.037.372.057.713.061 1.043.104 2.844-1.085 5.775-3.259 8.04-2.221 2.313-5.163 3.64-8.07 3.64h-.003z" fill="#EDC175"/><path d="M12.74.69a6.94 6.94 0 011.965.261c.417.112.827.25 1.226.415l-.164.181a3.351 3.351 0 00-.588 1.602v.112l.037.896c.1.584.354 1.132.735 1.585a3.345 3.345 0 002.225 1.165h.077a3.31 3.31 0 00-.072 2.205c.133.425.349.82.635 1.16l.63.572a3.31 3.31 0 001.595.59h.11l.892-.036c.334-.06.658-.17.96-.329.033.337.055.678.06 1.025.216 5.965-5.251 11.455-11.11 11.455a9.2 9.2 0 01-1.723-.162 9.816 9.816 0 01-2.134-.541 13.17 13.17 0 01-2.594-1.321 11.896 11.896 0 01-2.285-1.947 10.654 10.654 0 01-2.085-3.496c-2.508-6.726 2.12-14.25 8.95-15.135.886-.126 1.772-.254 2.656-.254l.001-.004zm-.003-.44c-.915 0-1.83.13-2.716.258a10.891 10.891 0 00-4.82 1.864 12.085 12.085 0 00-3.47 3.714C-.148 9.221-.517 12.922.72 16.242a11.105 11.105 0 002.17 3.638 12.302 12.302 0 002.371 2.022c.84.553 1.739 1.01 2.68 1.365.718.27 1.464.46 2.224.565A9.654 9.654 0 0011.96 24c2.968 0 5.968-1.352 8.231-3.709 2.215-2.306 3.425-5.294 3.32-8.2a12.529 12.529 0 00-.063-1.057.443.443 0 00-.435-.399.44.44 0 00-.207.05 2.913 2.913 0 01-.806.28l-.744.03-.108.006h-.078a2.862 2.862 0 01-1.343-.496l-.293-.267-.294-.269a2.927 2.927 0 01-.655-2.128c.026-.265.088-.524.185-.77a.446.446 0 00-.377-.603h-.073a2.909 2.909 0 01-2.565-2.362l-.011-.267-.024-.589v-.079a2.89 2.89 0 01.493-1.349l.03-.032.114-.127a.442.442 0 00-.16-.706c-.415-.171-.84-.316-1.273-.433a7.368 7.368 0 00-2.087-.277l.001.004z" fill="#291D11"/><path d="M23.007 11.079a3.343 3.343 0 01-.96.328l-.452.018c-.284 6.236-6.623 11.7-12.826 10.519a9.816 9.816 0 01-2.134-.541 13.17 13.17 0 01-2.594-1.321c-.375-.25-.736-.519-1.082-.808.087.106.175.212.266.314a11.903 11.903 0 002.286 1.946c.813.535 1.683.978 2.594 1.321.689.26 1.404.442 2.133.541 6.456 1.23 13.066-4.745 12.826-11.292 0-.347-.024-.688-.057-1.025z" fill="#EDC175"/><path d="M4.083 7.705c-.833 0-1.473-.694-1.487-1.613A1.596 1.596 0 013.07 4.95c.33-.337.779-.53 1.25-.54a1.418 1.418 0 011.232.692c.45.711.204 1.782-.527 2.291a1.637 1.637 0 01-.933.31l-.009.003z" fill="#5D4837"/><path d="M4.316 4.633a1.2 1.2 0 011.044.589c.399.632.133 1.573-.467 1.991a1.408 1.408 0 01-.809.27c-.678 0-1.254-.563-1.266-1.395-.012-.831.759-1.455 1.5-1.455h-.002zm.001-.443c-.53.01-1.035.227-1.406.607a1.81 1.81 0 00-.534 1.298c.016 1.048.75 1.831 1.707 1.831.38-.005.747-.127 1.056-.35.824-.57 1.098-1.784.588-2.592a1.635 1.635 0 00-1.414-.794h.003z" fill="#291D11"/><path d="M5.359 5.222a1.435 1.435 0 00-.169-.215c.19.605-.076 1.354-.594 1.715-.61.425-1.278.318-1.687-.114.285.807 1.182 1.164 1.983.606.6-.419.866-1.36.467-1.992z" fill="#B39471"/><path d="M15.2 3.998a.225.225 0 01-.107-.028 1.821 1.821 0 01-.373-.27c-.616-.59-.689-1.706-.16-2.435a1.193 1.193 0 01.998-.537c.243.007.483.055.71.143a.22.22 0 01.089.357l-.418.461a3.152 3.152 0 00-.54 1.474v.096l.02.508a.22.22 0 01-.22.23z" fill="#5D4837"/><path d="M15.558.95c.218.008.433.051.637.13l-.428.476a3.35 3.35 0 00-.588 1.602v.103c.008.171.014.342.02.513a1.645 1.645 0 01-.326-.235c-.564-.542-.58-1.533-.134-2.147.238-.328.516-.445.82-.445V.95zm0-.446c-.474 0-.873.21-1.176.628-.6.828-.516 2.05.185 2.726.126.118.267.22.419.303a.439.439 0 00.445-.01.443.443 0 00.21-.395l-.006-.13c0-.125-.01-.25-.015-.375v-.079a2.89 2.89 0 01.493-1.349l.274-.302.133-.146a.444.444 0 00-.18-.716 2.325 2.325 0 00-.782-.155z" fill="#291D11"/><path d="M15.185 3.408a2.221 2.221 0 01-.617-.31c.072.166.175.317.305.444.1.091.21.17.327.235-.007-.123-.007-.246-.015-.369z" fill="#B39471"/><path d="M14.63 20.118c-.57 0-.984-.153-1.239-.456-.241-.286-.32-.692-.232-1.202.166-.97 1.06-1.79 1.952-1.79.535 0 .993.297 1.289.836a1.686 1.686 0 010 1.619 1.808 1.808 0 01-1.411.975 3.629 3.629 0 01-.357.018h-.003z" fill="#5D4837"/><path d="M15.11 16.889c.414 0 .816.21 1.097.721.525.953-.19 2.163-1.243 2.267a3.432 3.432 0 01-.335.018c-.87 0-1.422-.39-1.253-1.399.15-.875.963-1.607 1.735-1.607zm0-.443c-.992 0-1.985.904-2.168 1.975-.1.577-.005 1.042.285 1.382.297.354.77.534 1.406.534.12 0 .248-.007.38-.019a2.018 2.018 0 001.584-1.092 1.932 1.932 0 000-1.83c-.338-.612-.864-.952-1.482-.952l-.004.002z" fill="#291D11"/><path d="M16.206 17.61a1.419 1.419 0 00-.569-.591c.047.064.09.131.13.2.524.953-.185 2.163-1.244 2.268-.416.042-.78.01-1.058-.112.234.435.79.572 1.497.502 1.059-.104 1.769-1.312 1.244-2.267z" fill="#B39471"/><path d="M18.087 8.93a.219.219 0 01-.185-.102 1.337 1.337 0 01.01-1.478.22.22 0 01.266-.077.22.22 0 01.128.247 3.09 3.09 0 00-.002 1.146.223.223 0 01-.124.24.22.22 0 01-.093.02v.003z" fill="#5D4837"/><path d="M18.09 7.48a3.347 3.347 0 00-.003 1.229 1.112 1.112 0 010-1.23h.003zm-.003-.443a.43.43 0 00-.361.189 1.546 1.546 0 00-.012 1.721.441.441 0 00.803-.32 2.925 2.925 0 010-1.05.436.436 0 00-.108-.397.44.44 0 00-.293-.14l-.03-.003z" fill="#291D11"/><path d="M10.716 7.865c-.558 0-.966-.356-1.092-.952a1.425 1.425 0 01.263-1.212 1.348 1.348 0 011.038-.502c.552 0 .992.365 1.148.952a1.299 1.299 0 01-.221 1.143 1.464 1.464 0 01-1.133.571h-.003z" fill="#5D4837"/><path d="M10.925 5.42c.4 0 .79.239.935.787.22.822-.496 1.437-1.138 1.437-.393 0-.758-.228-.877-.777-.19-.876.463-1.447 1.083-1.447h-.003zm.003-.443a1.568 1.568 0 00-1.207.585 1.641 1.641 0 00-.313 1.398c.147.695.648 1.126 1.308 1.126a1.682 1.682 0 001.306-.658 1.512 1.512 0 00.26-1.333c-.182-.69-.703-1.12-1.357-1.12l.003.002z" fill="#291D11"/><path d="M11.857 6.207a1.207 1.207 0 00-.168-.38c.011.03.02.062.028.095.311 1.165-1.258 1.915-1.842 1.08.402 1.262 2.323.484 1.982-.795z" fill="#B39471"/><path d="M2.097 17.382c-.45 0-.92-.222-1.286-.608a1.992 1.992 0 01-.575-1.448c.046-.994 1.049-1.686 1.92-1.686a1.368 1.368 0 011.225.667c.345.577.313 1.523-.078 2.239-.285.52-.695.816-1.163.831l-.043.005z" fill="#5D4837"/><path d="M2.155 13.85a1.168 1.168 0 011.044.57c.534.896-.009 2.72-1.068 2.754h-.037c-.833 0-1.697-.893-1.652-1.835.04-.857.917-1.487 1.707-1.487l.006-.003zm-.006-.418a2.263 2.263 0 00-1.402.514A1.88 1.88 0 00.02 15.32a2.211 2.211 0 00.633 1.603c.406.427.93.673 1.437.673h.05c.537-.018 1.025-.36 1.34-.942.424-.78.454-1.81.073-2.447a1.597 1.597 0 00-1.404-.773z" fill="#291D11"/><path d="M3.202 14.418a1.125 1.125 0 00-.67-.513c.027.033.053.067.077.103.535.894-.009 2.718-1.068 2.751a1.324 1.324 0 01-.56-.113c.32.328.741.538 1.153.525 1.059-.034 1.602-1.858 1.068-2.753z" fill="#B39471"/><path d="M11.495 23.725c-.518 0-.954-.16-1.195-.437a.958.958 0 01-.217-.78c.106-.801.734-1.405 1.463-1.405.44 0 .839.225 1.123.634.283.409.335.865.165 1.255-.17.39-.53.643-.997.709a2.392 2.392 0 01-.342.024z" fill="#5D4837"/><path d="M11.545 21.325c.339 0 .682.163.942.539.474.687.159 1.5-.68 1.619a2.232 2.232 0 01-.313.022c-.625 0-1.285-.261-1.192-.968.095-.725.664-1.211 1.243-1.211v-.001zm0-.442c-.838 0-1.56.686-1.68 1.596a1.179 1.179 0 00.268.952c.39.446 1.02.513 1.361.513.125 0 .25-.01.373-.027.544-.076.971-.38 1.17-.839.197-.458.13-1.01-.19-1.47-.321-.459-.784-.728-1.302-.728v.003z" fill="#291D11"/><path d="M12.487 21.864a1.252 1.252 0 00-.55-.458c.048.05.092.105.132.163.474.687.159 1.5-.681 1.619a2.02 2.02 0 01-.954-.085c.27.358.879.45 1.372.38.84-.12 1.157-.932.68-1.62z" fill="#B39471"/><path d="M7.215 19.791c-.608 0-1.124-.27-1.345-.702a1.309 1.309 0 01.058-1.298 1.696 1.696 0 011.393-.799 1.3 1.3 0 01.582.134c.56.277.902.747.916 1.258.013.483-.272.925-.78 1.212-.254.133-.536.2-.821.195h-.003z" fill="#5D4837"/><path d="M7.321 17.213c.168 0 .334.037.485.112.96.476 1.104 1.524.124 2.078-.22.114-.464.172-.712.168-.46 0-.943-.18-1.148-.583-.446-.873.41-1.775 1.251-1.775zm0-.443a1.89 1.89 0 00-1.578.906 1.52 1.52 0 00-.065 1.514c.259.507.853.823 1.54.823a1.91 1.91 0 00.928-.224c.583-.329.909-.843.894-1.41-.016-.596-.405-1.138-1.043-1.451a1.512 1.512 0 00-.68-.158h.004z" fill="#291D11"/><path d="M8.136 17.538c.174.466 0 .992-.604 1.333-.407.229-1.094.235-1.537-.062a.94.94 0 00.072.18c.323.635 1.327.715 1.86.416.852-.483.855-1.34.209-1.867z" fill="#B39471"/><path d="M20.243 19.26c-.609 0-1.123-.269-1.345-.702a1.31 1.31 0 01.058-1.297 1.697 1.697 0 011.39-.8c.202-.001.401.045.582.134.56.277.902.747.916 1.258.013.483-.271.925-.781 1.212a1.689 1.689 0 01-.82.196z" fill="#5D4837"/><path d="M20.347 16.679c.168-.001.333.037.484.11.962.477 1.104 1.524.125 2.08-.22.114-.465.171-.712.167-.461 0-.943-.18-1.149-.583-.445-.873.41-1.774 1.252-1.774zm0-.443a1.89 1.89 0 00-1.578.905 1.522 1.522 0 00-.065 1.514c.258.508.853.823 1.54.823.323.005.642-.072.927-.224.584-.328.909-.844.894-1.411-.016-.595-.404-1.136-1.039-1.45a1.521 1.521 0 00-.679-.157z" fill="#291D11"/><path d="M21.27 17.1c.223.483.061 1.047-.568 1.405-.44.247-1.205.234-1.639-.139.012.03.02.059.035.087.324.634 1.328.715 1.86.415.8-.452.849-1.238.313-1.768z" fill="#B39471"/><path d="M9.076 3.759c-.881 0-1.642-.44-1.936-1.118-.367-.848.463-1.78 1.11-2.2a1.53 1.53 0 01.826-.22c.618 0 1.287.275 1.664.684a1.334 1.334 0 01.324 1.077 2.11 2.11 0 01-.8 1.428 2.05 2.05 0 01-1.188.35v-.001z" fill="#5D4837"/><path d="M9.076.442c.555 0 1.171.255 1.502.614.575.62.16 1.743-.442 2.173a1.83 1.83 0 01-1.06.308c-.71 0-1.452-.334-1.734-.985-.31-.716.448-1.549 1.028-1.925a1.3 1.3 0 01.706-.185zm0-.441a1.726 1.726 0 00-.949.255 3.43 3.43 0 00-.977.965c-.34.525-.415 1.047-.215 1.507.33.762 1.169 1.252 2.138 1.252.552.023 1.09-.17 1.503-.539.412-.369.665-.885.705-1.438a1.577 1.577 0 00-.38-1.25c-.416-.45-1.15-.752-1.825-.752z" fill="#291D11"/><path d="M14.18 11.559c-.31-.511-.323-1.106-.034-1.516.362-.512 1.194-.36 1.666-.132.175.09.32.23.419.4.218.359.294.843.19 1.206a.905.905 0 01-.509.567 1.43 1.43 0 01-1.11.04 1.39 1.39 0 01-.621-.565z" fill="#5D4837"/><path d="M16.375 10.904a.964.964 0 00-.164-.324c.01.027.02.054.028.081.305.99-1.234 1.626-1.807.917.394 1.072 2.278.412 1.943-.674z" fill="#B39471"/><path d="M16.103 10.39c.196.32.266.768.174 1.086-.157.552-.953.707-1.415.51a1.242 1.242 0 01-.552-.506c-.25-.41-.318-.959-.04-1.351.305-.433 1.054-.287 1.477-.083.15.078.273.197.356.343zm.256-.157a1.17 1.17 0 00-.482-.46 2.326 2.326 0 00-.904-.226c-.425-.01-.753.13-.95.408-.325.46-.313 1.118.03 1.68a1.443 1.443 0 001.923.582 1.07 1.07 0 00.59-.66c.114-.4.031-.932-.207-1.324z" fill="#291D11"/><path d="M10.578 1.056a1.5 1.5 0 00-.267-.226c.238.63-.133 1.484-.64 1.846-.615.439-1.648.403-2.304-.077.465.968 1.97 1.202 2.77.63.599-.43 1.016-1.552.441-2.173z" fill="#B39471"/><path d="M21.95 14.192c-.813 0-1.512-.439-1.781-1.119-.302-.762.303-1.508.577-1.795a.212.212 0 01.152-.065h.054l.103.014h.1l.869-.037a3.13 3.13 0 00.768-.245.211.211 0 01.192.008c.19.104.359.24.501.403.234.278.335.65.29 1.078-.056.542-.347 1.104-.726 1.4a1.79 1.79 0 01-1.1.353v.005z" fill="#5D4837"/><path d="M22.88 11.143c.168.091.318.212.444.356.524.62.146 1.744-.404 2.173-.28.208-.622.316-.97.309-.649 0-1.328-.335-1.585-.986-.214-.539.125-1.143.533-1.57.048.007.095.014.147.019h.11l.891-.037c.289-.051.57-.14.835-.264zm0-.423a.424.424 0 00-.178.04c-.224.104-.46.18-.702.226l-.745.03h-.189l-.085-.011h-.023a.424.424 0 00-.364.126c-.639.667-.865 1.405-.62 2.02.3.762 1.077 1.252 1.976 1.252.443.008.877-.132 1.233-.397.427-.335.744-.94.806-1.545.05-.487-.068-.915-.34-1.238a2.017 2.017 0 00-.559-.45.415.415 0 00-.205-.055l-.004.002z" fill="#291D11"/><path d="M23.323 11.499a1.168 1.168 0 00-.128-.13c.212.63-.127 1.477-.588 1.838-.603.47-1.646.396-2.232-.19.413.988 1.808 1.229 2.544.652.55-.426.929-1.551.404-2.17z" fill="#B39471"/><path d="M4.208 12.348c-.949 0-1.564-.874-1.595-1.683-.03-.78.458-1.323 1.242-1.384h.11c.877 0 1.457.83 1.51 1.634.05.772-.365 1.333-1.06 1.423a1.43 1.43 0 01-.207.014v-.004z" fill="#5D4837"/><path d="M3.965 9.498c1.373 0 1.863 2.425.421 2.617a1.34 1.34 0 01-.178.011c-1.467 0-2.028-2.493-.336-2.624h.095l-.002-.004zm.002-.438c-.043 0-.085 0-.127.004-.9.07-1.48.718-1.446 1.613.036.911.74 1.896 1.816 1.896.079 0 .157-.005.236-.016.806-.107 1.309-.774 1.25-1.657-.06-.905-.723-1.84-1.73-1.84z" fill="#291D11"/><path d="M4.349 9.567c.605.706.585 2.045-.474 2.186a1.24 1.24 0 01-.632-.076 1.27 1.27 0 001.138.438c1.302-.173 1.036-2.153-.032-2.548z" fill="#B39471"/><path d="M10.006 14.658c-.948 0-1.564-.874-1.595-1.684-.03-.78.458-1.323 1.242-1.383h.11c.878 0 1.457.83 1.51 1.634.05.771-.365 1.333-1.06 1.423a1.42 1.42 0 01-.207.014v-.004z" fill="#5D4837"/><path d="M9.763 11.807c1.373 0 1.863 2.425.421 2.618a1.505 1.505 0 01-.178.011c-1.467 0-2.027-2.493-.336-2.625h.095l-.002-.004zm.002-.438c-.042 0-.085 0-.127.005-.899.07-1.48.717-1.445 1.613.035.911.739 1.896 1.815 1.896.079 0 .158-.006.236-.016.806-.107 1.309-.774 1.25-1.658-.059-.904-.723-1.84-1.729-1.84z" fill="#291D11"/><path d="M10.147 11.877c.605.706.585 2.045-.474 2.186-.213.03-.431.003-.632-.076a1.27 1.27 0 001.139.438c1.302-.174 1.035-2.154-.033-2.548z" fill="#B39471"/><path d="M18.933 3.585c-.23 0-1.004-.037-1.263-.517-.086-.16-.14-.428.095-.784a1.87 1.87 0 01.297-.338c.107-.09.196-.2.264-.324a.94.94 0 00.038-.095c.06-.148.16-.395.494-.395.06 0 .12.007.179.02.43.096.521.498.582.763v.015c.051.223.078.25.178.352.07.07.136.142.198.218.22.275.166.499.113.608-.165.353-.714.477-1.175.477z" fill="#EDC175"/><path d="M18.854 1.358a.59.59 0 01.133.016c.299.065.362.365.417.612.095.406.171.35.42.66.37.461-.247.718-.89.718-.694 0-1.424-.297-.987-.959.178-.273.428-.386.573-.685.085-.176.103-.362.334-.362zm0-.443c-.482 0-.638.387-.697.533-.012.029-.022.056-.033.077a.962.962 0 01-.218.261 2.093 2.093 0 00-.328.381c-.308.476-.196.835-.102 1.01.214.397.76.634 1.457.634.255 0 1.11-.044 1.374-.597.06-.126.166-.46-.14-.842-.088-.11-.16-.182-.212-.235-.082-.083-.083-.085-.121-.247v-.014c-.064-.286-.184-.808-.751-.93a1.038 1.038 0 00-.226-.027l-.003-.004z" fill="#291D11"/><path d="M19.824 2.646c-.249-.31-.326-.254-.42-.66-.056-.248-.118-.548-.417-.612-.2-.044-.292.005-.35.095.177.115.229.349.274.55.095.406.17.35.42.66.291.364-.033.601-.5.685.679.027 1.382-.233.993-.718zm2.436 5.22c-.444 0-1.157-.271-1.31-.714-.048-.139-.08-.41.246-.667.093-.07.193-.128.3-.175a.773.773 0 00.244-.154c.017-.017.032-.035.047-.052a.46.46 0 01.357-.208.54.54 0 01.275.087c.312.19.28.526.26.73v.011a.346.346 0 00.038.26c.034.066.064.135.09.205a.477.477 0 01-.031.462c-.07.098-.214.215-.516.215z" fill="#EDC175"/><path d="M22.144 6.118a.335.335 0 01.163.055c.196.116.17.342.152.53-.03.308.038.285.14.563.103.278-.076.381-.34.381-.568 0-1.532-.508-.926-.99.19-.15.392-.172.565-.349.084-.085.136-.19.246-.19zm0-.443a.672.672 0 00-.525.286l-.036.04a.599.599 0 01-.182.11 1.724 1.724 0 00-.342.201c-.45.357-.372.762-.317.916.195.563 1.007.864 1.517.864.397 0 .597-.17.695-.31a.7.7 0 00.058-.667 2.25 2.25 0 00-.1-.227l-.02-.043a.84.84 0 010-.095v-.01c.02-.205.066-.685-.367-.942a.748.748 0 00-.387-.117l.006-.005z" fill="#291D11"/><path d="M22.599 7.266c-.103-.276-.17-.255-.14-.563.017-.19.043-.414-.152-.53-.132-.078-.208-.065-.27-.017.095.124.08.3.066.452-.029.309.038.286.141.565.122.325-.163.415-.511.365.467.18 1.027.162.866-.272zm.548-3.512c-.295 0-.784-.18-.897-.502-.03-.087-.072-.31.181-.512.063-.048.131-.088.203-.12a.439.439 0 00.13-.079l.025-.028a.37.37 0 01.284-.157c.076.002.15.025.214.066.24.143.215.409.203.536-.008.078-.008.078.015.124s.036.074.06.136a.382.382 0 01-.03.366.441.441 0 01-.388.17z" fill="#EDC175"/><path d="M23.075 2.577a.204.204 0 01.102.036c.122.072.106.213.095.33-.018.19.024.18.088.352.063.173-.049.238-.213.238-.354 0-.957-.318-.579-.62.118-.095.246-.107.354-.218.052-.053.085-.118.153-.118zm0-.442a.581.581 0 00-.454.235l-.015.017a.695.695 0 01-.067.033c-.086.04-.169.089-.244.147-.253.2-.347.484-.252.762.153.444.75.651 1.104.651a.653.653 0 00.57-.265.6.6 0 00.053-.572 1.445 1.445 0 00-.062-.146v-.016c.013-.146.051-.533-.31-.747a.633.633 0 00-.326-.096l.003-.003z" fill="#291D11"/><path d="M23.36 3.296c-.064-.173-.106-.16-.088-.353.011-.117.027-.258-.095-.33-.082-.05-.13-.041-.168-.012.05.087.064.189.042.286-.02.19.023.18.087.353.076.203-.102.26-.32.228.295.11.643.099.542-.172z" fill="#EDC175"/></svg>