<svg width="849" height="289" fill="none" xmlns="http://www.w3.org/2000/svg"><path fill-rule="evenodd" clip-rule="evenodd" d="M825.4 185.197c-13.271 11.983-28.66 20.333-36.122 24.304-10.495 5.585-30.438 12.543-57.057 19.985-26.693 7.463-80.306 19.802-118.301 27.443-75.982 15.281-169.605 24.799-260.594 29.947-90.921 5.144-179.523 1.618-245.268-18.045-32.911-9.843-60.191-23.759-79.119-42.718C10 207.141-.454 183.243.015 153.601c.94-59.304 39.148-96.887 96.676-119.298C154.018 11.969 230.378 4.746 307.787 5.68c77.466.937 156.284 10.049 218.75 20.572 31.238 5.262 58.418 10.883 79.324 16.02 10.452 2.57 19.358 5.023 26.43 7.257 7.027 2.22 12.391 4.268 15.653 6.048l-3.021 2.786c-2.775-1.515-7.695-3.427-14.647-5.623-6.906-2.182-15.673-4.6-26.036-7.146-20.724-5.094-47.741-10.683-78.847-15.923-62.22-10.481-140.672-19.546-217.69-20.477-77.076-.931-152.414 6.288-208.628 28.188C43.062 59.205 5.887 95.647 4.968 153.64c-.46 29.006 9.756 52.154 28.013 70.441 18.27 18.301 44.72 31.856 77.001 41.511 64.643 19.334 152.289 22.91 242.951 17.78 90.594-5.126 183.89-14.59 259.636-29.824 37.87-7.616 91.324-19.92 117.836-27.332 26.585-7.432 45.982-14.249 55.901-19.527 7.397-3.936 22.348-12.06 35.199-23.663 12.85-11.603 23.454-26.551 22.479-44.164-.973-17.584-13.51-38.181-47.958-61.072-34.474-22.91-110.758-48.017-198.855-74.556L599.107 0c88.368 26.62 165.238 51.922 200.305 75.224 35.092 23.32 48.483 44.732 49.522 63.5 1.037 18.741-10.263 34.49-23.534 46.473z" fill="url(#paint0_linear)"/><defs><linearGradient id="paint0_linear" x1="0" y1="144.684" x2="849" y2="144.684" gradientUnits="userSpaceOnUse"><stop stop-color="#FEED01"/><stop offset="1" stop-color="#C1B500"/></linearGradient></defs></svg>