<svg width="24" height="24" fill="none" xmlns="http://www.w3.org/2000/svg"><rect width="24" height="24" rx="6" fill="#fff"/><circle cx="12" cy="12" r="11" fill="#36AEE2"/><path d="M19.068 5.94a.946.946 0 00-.752-.34 1.47 1.47 0 00-.524.105L5.443 10.44c-.655.252-.743.629-.738.831.006.202.115.574.784.788l.012.003 1.732.498 8.434-4.329a.426.426 0 01.575.187.43.43 0 01-.07.49l-4.689 5.006-.134.544 1.675 1.355 2.32 1.877.007.005c.255.2.534.305.806.305.532 0 .956-.396 1.08-1.008L19.26 6.954c.081-.402.013-.763-.192-1.015z" fill="#fff"/><path d="M10.937 13.502a.434.434 0 01.106-.194l3.144-3.332-5.835 2.973 1.325 3.779c.076.215.188.398.327.542l.933-3.768zM10.54 18c.37-.003.733-.128 1.052-.364l1.137-.842-1.517-.982L10.541 18z" fill="#fff"/></svg>