<svg width="30" height="30" fill="none" xmlns="http://www.w3.org/2000/svg"><path d="M13.359 6.102a1 1 0 011.646 0l.424.616a1 1 0 00.538.39l.716.214a1 1 0 01.509 1.565l-.454.594a1 1 0 00-.206.632l.019.747a1 1 0 01-1.332.968l-.705-.248a1 1 0 00-.664 0l-.705.248a1 1 0 01-1.332-.968l.018-.747a1 1 0 00-.205-.632l-.454-.594a1 1 0 01.508-1.565l.717-.214a1 1 0 00.537-.39l.425-.616z" stroke="#EB5757" stroke-linejoin="round"/><path d="M19.534 8.58l2.014.272m-3.276 2.852L19.7 13.15m-1.428-7.421L19.7 4.282M8.468 8.58l-2.014.272m3.276 2.852L8.302 13.15M9.73 5.729L8.302 4.282" stroke="#EB5757" stroke-linecap="round"/><path stroke="#EB5757" stroke-linejoin="round" d="M6 15.818h5.455V24H6z"/><path stroke="#EB5757" stroke-linejoin="round" d="M11.454 14h5.455v10h-5.455zm5.455 3.636h5.455V24h-5.455z"/><path d="M14.746 18.546l-.998-.002c-.317 0-.475-.07-.475-.208 0-.156.176-.234.53-.234l.11.001v-1.55c-.145.07-.24.104-.283.104a.436.436 0 01-.247-.07c-.069-.046-.103-.1-.103-.162 0-.064.056-.13.168-.198l.285-.143.306-.171a.814.814 0 01.365-.095c.151 0 .226.063.226.189 0 .139-.008.334-.025.586-.017.252-.025.611-.025 1.078v.424h.166c.097 0 .179.021.244.064.067.043.1.097.1.161s-.033.118-.1.16a.434.434 0 01-.244.066zM9.397 21.27c-.03 0-.076-.004-.14-.013a.904.904 0 00-.133-.016l-.525-.002a1.76 1.76 0 00-.206.018 1.95 1.95 0 01-.207.016.337.337 0 01-.057-.007.338.338 0 00-.057-.007c-.107 0-.18-.044-.218-.13a.664.664 0 01-.036-.252c0-.22.05-.405.149-.554a1.3 1.3 0 01.37-.344l.48-.314c.188-.136.282-.29.282-.462 0-.045-.038-.09-.113-.133a.427.427 0 00-.22-.067c-.125 0-.26.056-.401.168-.14.111-.237.166-.29.166a.3.3 0 01-.166-.046.177.177 0 01-.089-.157.24.24 0 01.09-.186 2.16 2.16 0 01.376-.277.997.997 0 01.48-.126c.207 0 .392.054.558.162.19.122.284.283.284.482 0 .2-.046.371-.14.512a1.208 1.208 0 01-.344.328l-.447.278c-.226.146-.347.314-.364.501.066-.008.162-.017.29-.028.253-.013.435-.02.544-.02.103 0 .204.022.304.066.124.055.186.124.186.21a.226.226 0 01-.067.16.228.228 0 01-.173.075zm10.78-.573c.246.133.369.346.369.638 0 .236-.09.436-.27.6a.939.939 0 01-.656.247 1.17 1.17 0 01-.519-.113.692.692 0 01-.36-.375.213.213 0 01-.014-.078c0-.064.027-.118.081-.161a.27.27 0 01.172-.059c.075 0 .135.029.18.087.076.1.12.154.133.163.073.058.182.087.327.087a.468.468 0 00.296-.1c.086-.065.13-.145.13-.237 0-.288-.2-.451-.6-.49-.175-.015-.263-.087-.263-.213 0-.096.068-.166.204-.21.129-.027.257-.056.385-.085a.442.442 0 00.182-.095.196.196 0 00.063-.14c.004-.173-.134-.26-.417-.26a.586.586 0 00-.306.105c-.11.068-.186.102-.227.102a.237.237 0 01-.173-.07.222.222 0 01-.072-.162c0-.098.1-.196.3-.293.18-.087.325-.13.437-.13.27 0 .488.056.652.17.18.125.27.303.27.534a.65.65 0 01-.077.326.53.53 0 01-.227.212z" fill="#EB5757"/></svg>