<svg width="267" height="85" fill="none" xmlns="http://www.w3.org/2000/svg"><path d="M51.98 34.024L35.542 83.18a2.664 2.664 0 01-3.99 1.38L5.573 67.463c-3.296-2.17-3.069-7.074.414-8.93L51.98 34.024z" fill="url(#paint0_linear)"/><path d="M246.241 62.573H10.685a3.256 3.256 0 00-3.178 3.963l3.223 4.395-6.755-4.582A8.831 8.831 0 01.459 56.167L18.265 3.034A4.438 4.438 0 0122.475 0H264.07c2.653 0 3.936 3.248 1.997 5.06l-25.892 24.178a4.798 4.798 0 00-1.158 5.343l9.926 23.95c.799 1.925-.617 4.042-2.701 4.042z" fill="url(#paint1_linear)"/><defs><linearGradient id="paint0_linear" x1="27.607" y1="92.012" x2="27.607" y2="61.818" gradientUnits="userSpaceOnUse"><stop offset=".006" stop-color="#BA192D"/><stop offset="1" stop-color="#690E19"/></linearGradient><linearGradient id="paint1_linear" x1="73.545" y1="-.739" x2="73.545" y2="81.533" gradientUnits="userSpaceOnUse"><stop stop-color="#FF223E"/><stop offset="1" stop-color="#B5182C"/></linearGradient></defs></svg>