<svg width="121" height="88" fill="none" xmlns="http://www.w3.org/2000/svg"><path d="M119.097 72.665l-1.646-.013c-.009-1.125-.183-2.251-.687-3.38l1.478-.47c.669 1.29.845 2.577.855 3.862zm-.624 4.011c-.483 1.282-1.132 2.402-2.112 3.358L115.2 78.9c.815-.957 1.465-1.916 1.786-2.878l1.487.654zm-2.072-11.424l-1.309.954c-.667-.97-1.496-1.78-2.492-2.75l1.142-1.117c.996.972 1.992 1.944 2.659 2.913zm-1.174-60.905c-.154 1.284-.308 2.568-.627 3.69l-1.649-.334c.153-1.284.308-2.408.462-3.692l1.814.336zm-1.419 7.38c-.319 1.282-.638 2.405-.957 3.688l-1.65-.495c.32-1.123.638-2.405.958-3.528l1.649.335zm-.719 70.692c-1.146.633-2.459 1.105-3.608 1.578l-.507-1.61c1.15-.313 2.298-.786 3.28-1.42l.835 1.452zm-1.36-63.478c-.484 1.12-.967 2.402-1.452 3.523l-1.487-.654c.485-1.12.969-2.242 1.289-3.364l1.65.495zm-.97 40.965l-.977 1.278c-.993-.65-1.986-1.301-3.144-1.953l.811-1.44c1.158.652 2.315 1.304 3.31 2.115zm-1.933-33.918l-.972 1.92c-.325.48-.486.96-.812 1.28l-1.488-.816c.325-.48.487-.8.812-1.279l.971-1.92 1.489.815zm-3.897 6.397c-.649 1.12-1.299 2.078-2.113 3.197l-1.325-.975c.65-.959 1.299-2.079 1.95-3.038l1.488.816zm.442 52.223c-1.317-.01-2.635-.181-3.956-.674l.48-1.603c1.155.33 2.309.5 3.461.51l.015 1.767zm-1.394-28.612l-.646 1.441c-1.157-.49-2.315-1.142-3.471-1.633l.646-1.441c1.157.49 2.313.982 3.471 1.633zm-3.11-17.377c-.651.959-1.3 2.079-2.115 3.036l-1.488-.815c.649-1.12 1.3-2.078 2.113-3.197l1.49.976zm-2.276 42.24l-.813 1.28c-1.157-.652-2.153-1.624-3.15-2.596l1.144-1.116c.995.972 1.825 1.782 2.819 2.432zm-1.719-27.971l-.646 1.441c-1.156-.491-2.313-.982-3.468-1.313-.324.64-.483 1.282-.642 1.924l-1.65-.495c.32-1.123.802-2.404 1.451-3.524l1.487.654c1.155.33 2.312.822 3.468 1.313zm-.068-8.034c-.325.48-.487.8-.812 1.279-.324.64-.648 1.28-1.136 1.919l-1.488-.815c.323-.64.647-1.28 1.136-1.92.325-.479.485-.96.812-1.278l1.488.815zm-3.196 30.825l-1.474.791c-.668-1.13-1.336-2.26-1.84-3.388l1.476-.631c.668 1.13 1.172 2.258 1.838 3.228zm-2.616-17.374c-.318 1.283-.473 2.407-.628 3.53l-1.648-.174c.154-1.284.308-2.568.627-3.69l1.65.334zm-.238 10.764l-1.643.308c-.173-.965-.346-1.93-.52-3.057l-.007-.803 1.646.013.007.803c.172.805.344 1.77.517 2.736zM89.77 50.1l-.48 1.603c-1.155-.33-2.476-.823-3.631-1.153l.48-1.603c1.155.33 2.312.821 3.631 1.153zm-7.427-2.308l-.48 1.603c-1.155-.33-2.475-.662-3.63-.992l.316-1.604c1.32.331 2.475.662 3.794.993zm-7.586-1.666l-.316 1.605c-1.32-.332-2.473-.502-3.791-.673l.315-1.604c1.317.01 2.637.342 3.792.672zm-7.585-1.505l-.15 1.605c-1.319-.17-2.473-.34-3.791-.511l.151-1.606c1.318.171 2.637.342 3.79.512zm-7.579-.863l-.151 1.606c-1.318-.171-2.47-.18-3.789-.351l.151-1.606c1.154.17 2.472.34 3.789.351zm-7.74-.382l.014 1.607-2.634-.02-1.153-.01-.013-1.606 1.152.009 2.634.02zm-7.559 1.548c-1.317-.01-2.468.141-3.785.131l-.178-1.608c1.316-.15 2.633-.14 3.785-.131l.178 1.608zm-7.567.583c-1.316.15-2.467.302-3.782.453l-.178-1.608c1.315-.15 2.466-.302 3.782-.453l.178 1.608zm-7.564.905c-1.316.15-2.466.463-3.781.613l-.343-1.609c1.316-.15 2.465-.463 3.78-.613l.344 1.61zm-7.398 1.228c-1.314.31-2.463.623-3.614.775l-.508-1.61c1.314-.312 2.464-.624 3.778-.935l.345 1.77zm-7.391 1.87c-1.15.313-2.464.624-3.612 1.097l-.508-1.611c1.15-.313 2.463-.784 3.612-1.097l.508 1.611zM7.15 51.865c-1.148.473-2.298.785-3.61 1.257l-.672-1.451c1.149-.473 2.462-.945 3.611-1.258l.671 1.452z" fill="#000"/><path d="M11.034 57.23l.645-1.605-7.603-2.956 3.398-7.214-1.488-.655-4.208 8.816 9.256 3.613z" fill="#000"/></svg>