<svg width="48" height="48" fill="none" xmlns="http://www.w3.org/2000/svg"><path d="M25.82 24.264a4.358 4.358 0 11-8.716 0 4.358 4.358 0 018.716 0z" fill="#C43B55"/><path d="M35.328 24.264c0 7.659-6.208 13.867-13.867 13.867-7.659 0-13.867-6.208-13.867-13.867 0-7.659 6.208-13.867 13.867-13.867 7.659 0 13.867 6.208 13.867 13.867zm-24.545 0c0 5.897 4.78 10.678 10.678 10.678 5.897 0 10.678-4.78 10.678-10.678 0-5.897-4.78-10.678-10.678-10.678-5.897 0-10.678 4.78-10.678 10.678z" fill="#C43B55"/><path fill-rule="evenodd" clip-rule="evenodd" d="M21.462 10.991c-7.33 0-13.273 5.942-13.273 13.273 0 7.33 5.942 13.273 13.273 13.273 7.33 0 13.272-5.943 13.272-13.273 0-5.143-2.925-9.604-7.205-11.808a.594.594 0 01.544-1.057c4.66 2.4 7.85 7.26 7.85 12.865 0 7.987-6.475 14.461-14.462 14.461C13.476 38.725 7 32.251 7 24.264S13.475 9.802 21.462 9.802a.594.594 0 110 1.19z" fill="#000"/><path fill-rule="evenodd" clip-rule="evenodd" d="M21.462 34.367c-5.58 0-10.104-4.523-10.104-10.103s4.524-10.103 10.104-10.103c5.58 0 10.103 4.523 10.103 10.103 0 3.915-2.227 7.31-5.485 8.988a.594.594 0 00.544 1.057 11.29 11.29 0 006.13-10.045c0-6.236-5.056-11.292-11.292-11.292S10.17 18.028 10.17 24.264s5.056 11.292 11.292 11.292a.594.594 0 100-1.189z" fill="#000"/><path fill-rule="evenodd" clip-rule="evenodd" d="M14.821 22.485a6.874 6.874 0 11-.08 3.231.594.594 0 10-1.162.252 8.063 8.063 0 10.094-3.791.594.594 0 001.148.308z" fill="#000"/><path fill-rule="evenodd" clip-rule="evenodd" d="M25.107 23.288a3.773 3.773 0 10.044 1.773.594.594 0 111.162.252 4.961 4.961 0 01-9.643.235 4.962 4.962 0 019.585-2.568.594.594 0 01-1.148.308z" fill="#000"/><path fill-rule="evenodd" clip-rule="evenodd" d="M24.979 24.439a.594.594 0 00-.547-.638l-.86-.066 16.53-9.543 2.386.288a.594.594 0 10.142-1.18l-.813-.098.312-.18 2.387.287a.594.594 0 10.142-1.18l-.813-.098.312-.18 2.387.287a.594.594 0 00.142-1.18l-1.796-.216.71-1.664a.594.594 0 10-1.093-.467l-.944 2.21-.312.18.321-.752a.594.594 0 10-1.093-.467l-.944 2.21-.312.18.321-.753a.594.594 0 10-1.093-.466l-.944 2.21-16.541 9.55.389-.82a.594.594 0 10-1.074-.509l-1.206 2.543a.594.594 0 00.491.847l2.775.212a.594.594 0 00.638-.547z" fill="#000"/></svg>