<svg width="118" height="99" fill="none" xmlns="http://www.w3.org/2000/svg"><path d="M87.881 24.642l-1.204 1.486c-1.188-1.082-2.375-2.165-3.738-3.167l1.204-1.487c1.27.813 2.55 2.085 3.738 3.168zm-7.651-6.254l-1.11 1.675c-1.363-1.001-2.632-1.814-3.9-2.626l.84-1.785c1.444.732 2.712 1.544 4.17 2.736zm-8.599-5.12l-.57 1.893-1.35-.542c-.986-.244-1.796-.57-2.782-.814l.3-2.001c.986.244 2.148.407 3.052.922l1.35.542zm-9.4-1.955l.146 2.028c-1.513 0-2.932.187-4.256.565l-.592-2.056c1.325-.378 3.014-.457 4.702-.537zm-8.07 4.185c-1.136.756-2.272 1.513-3.22 2.648l-1.551-1.38c.947-1.136 2.34-2.244 3.652-3.081l1.118 1.813zm-5.25 6.379c-.408 1.352-.815 2.704-.858 4.354l-1.972-.49c.219-1.73.438-3.46 1.02-4.894l1.81 1.03zm-.823 8.762c.038 1.38.347 2.868.574 4.626l-2.04.241c-.227-1.758-.63-3.435-.669-4.815l2.135-.052zm1.513 9.55l.309 1.487c.296 1.028.416 2.137.806 3.354l-2.04.242c-.296-1.028-.416-2.137-.712-3.165l-.309-1.488 1.946-.43zm1.96 9.575c.133 1.57.36 3.328.493 4.896l-1.96-.028-.398-4.707 1.865-.16zm.54 9.765c-.043 1.65-.085 3.3-.222 4.76l-1.972-.489c.137-1.46.18-3.11.317-4.57l1.877.299zm-.89 9.492l-.94 4.625-1.89-.76c.313-1.54.72-2.893 1.033-4.434l1.796.57zm-2.324 9.222c-.583 1.433-1.071 3.055-1.654 4.488l-1.809-1.03c.583-1.432 1.166-2.865 1.573-4.217l1.89.759zm-3.767 8.49c-.853 1.324-1.436 2.757-2.288 4.081l-1.728-1.3c.853-1.324 1.53-2.568 2.207-3.811l1.81 1.03zm-4.941 7.865c-.515.703-1.03 1.406-1.543 2.109l-1.552-1.38c.514-.704 1.123-1.217 1.637-1.92L40.18 94.6z" fill="#000"/><path d="M88.257 13.695l-2.041.242 1.797 10.12-9.784.317.146 2.03 12.013-.18-2.131-12.53z" fill="#000"/></svg>