<svg width="80" height="80" fill="none" xmlns="http://www.w3.org/2000/svg"><circle cx="40" cy="40" r="40" fill="url(#paint0_linear)"/><mask id="a" maskUnits="userSpaceOnUse" x="0" y="0" width="80" height="80"><circle cx="40" cy="40" r="40" fill="url(#paint1_linear)"/></mask><g mask="url(#a)"><path d="M80.35 48.125v9.884H60.479s-1.623 2.662-7.463 7.566a18.09 18.09 0 01-7.394 3.384c-7.4 1.782-15.82.736-15.82.736l-1.004-3.012.214-15.82-2.146.213-1.624-3.508-3.329-7.25-2.09-2.104s-.255-3.37 5.027-5.186a58.982 58.982 0 018.378-.915 56.446 56.446 0 014.45 0c.234 0 .475 0 .688.048l2.063-.805 2.435 1.025 7.325 3.082 30.16 12.662z" fill="#FAB29A"/><path d="M45.622 68.925c-7.4 1.781-15.82.736-15.82.736l-1.004-3.013.214-15.82-2.146.214-1.624-3.508-3.329-7.215-2.09-2.105s-.255-3.37 5.027-5.186a58.982 58.982 0 018.378-.915 56.446 56.446 0 014.45 0c.234 0 .475 0 .688.048l2.063-.805 2.435 1.025c1.424 3.144 3.143 8.254 4.74 16.418 2.482 12.457-.056 17.904-1.982 20.126z" fill="#CC8A79" opacity=".5"/><path d="M21.687 44.81l14.96-1.65c2.201-.688 3.44-2.105 2.91-5.255a4.664 4.664 0 00-3.488-3.818 2.243 2.243 0 00-.798-.082c-4.58.316-10.496.942-12.332 1.293-2.889.557-4.21 2.469-3.893 5.372a5.504 5.504 0 002.641 4.14zm19.83 6.83a7.011 7.011 0 00-.805-.062l-16.79 2.352s-4.62-2.55-2.922-7.566a9.144 9.144 0 01.688-1.533l17.45-1.926a3.184 3.184 0 011.375.144 4.718 4.718 0 011.87 1.108 3.98 3.98 0 011.074 2.104c.481 2.525.11 4.127-1.94 5.379zm3.789 12.835c0 3.948-2.517 3.948-15.51 5.186 0 0-4.25-.798-3.735-5.296a9.14 9.14 0 01.386-1.706l16.26-2.063a2.414 2.414 0 012.063 1.286 5.11 5.11 0 01.536 2.593z" fill="#FAB29A"/><path d="M42.706 60.602l-16.26 2.064a5.998 5.998 0 01-3.185-6.775 9.85 9.85 0 01.688-1.96l16.79-2.353s2.4 0 3.845 1.376c.54.502.895 1.17 1.01 1.898.489 2.944-.37 4.842-2.888 5.75z" fill="#FAB29A"/><path d="M42.384 44.157L21 46.343a9.153 9.153 0 01.687-1.534l17.45-1.926a3.184 3.184 0 011.376.145c.703.224 1.344.61 1.87 1.127zm2.173 8.763l-21.294 2.97a9.83 9.83 0 01.688-1.96l16.789-2.352s2.373-.02 3.817 1.341zm.186 8.968l-18.681 2.463c.074-.58.203-1.151.385-1.706l16.26-2.064a2.415 2.415 0 012.036 1.307z" fill="#CC8A79" opacity=".5"/><path d="M36.378 37.003s1.011 9.465 9.1 12.216l9.808-.963-5.2-11.968s-5.702-3.872-12.38-4.196a49.998 49.998 0 00-3.914-.034 11.452 11.452 0 002.586 4.945z" fill="#CC8A79" opacity=".5"/><path d="M60.102 37.224l-13.371-9.031a50.762 50.762 0 01-5.2-7.78c-1.21-2.579-2.297-7.008-2.792-9.292a1.375 1.375 0 00-1.858-1.025c-2.256.791-6.19 2.91-6.472 8.096-.289 5.674 2.641 8.425 3.955 9.368a27.122 27.122 0 003.742 8.9c.254 3.013 2.187 14.286 16.507 15.634.227.041.454.083.688.11h.929a37.35 37.35 0 002.682 0h21.44v-14.98h-20.25z" fill="#FAB29A"/></g><defs><linearGradient id="paint0_linear" x1="-.018" y1="16.34" x2="37.531" y2="53.731" gradientUnits="userSpaceOnUse"><stop stop-color="#3E649D"/><stop offset="1" stop-color="#1B498D"/></linearGradient><linearGradient id="paint1_linear" x1="-.018" y1="16.34" x2="37.531" y2="53.731" gradientUnits="userSpaceOnUse"><stop stop-color="#3E649D"/><stop offset="1" stop-color="#1B498D"/></linearGradient></defs></svg>