<svg width="239" height="202" fill="none" xmlns="http://www.w3.org/2000/svg"><g filter="url(#filter0_f)"><path d="M37.867 61.073L2 69.197l49.404 59.492 16.705 21.352 33.409-9.252-63.651-79.716z" fill="url(#paint0_linear)"/></g><path d="M101.955 35.5c-.254-1.144-.698-2.162-1.269-3.18-.698-1.271-1.712-2.924-2.854-4.006-.571-.572-1.205-.953-1.713-1.08-.57-.128-1.205-.064-1.649.445-.254.19-.444.508-.634.954-.19.381-.317.89-.508 1.462a21.464 21.464 0 00-.507 3.752c-.19 2.67-.127 5.405-.127 6.359 0 .254 0 .572-.063.827-.508 2.543-3.235 16.533-8.69 25.563-1.396 2.29-2.157 5.341-2.664 8.839-.508 3.434-.571 7.25-.508 10.938.127 7.376 1.078 14.117 1.459 16.469a8.362 8.362 0 010 1.781c0 .191-.063.382-.063.572-.318 1.908-.762 5.024-2.601 9.602-1.966 5.024-5.709 11.892-12.56 20.858-.887 1.145-1.522 2.735-1.775 4.388-.317 1.653-.38 3.37-.127 4.833.444 2.607 2.41 5.723 6.914 7.185 4.503 1.463 11.417 1.272 21.756-2.67 5.455-2.035 10.086-5.978 12.877-11.256.951-1.526 1.459-3.307 1.522-5.087 0-1.463.381-3.561 1.078-5.66.698-2.162 1.586-4.324 2.791-6.168.444-.699.888-1.462 1.396-2.289l.063-.127c.508-.827 1.015-1.717 1.522-2.544 1.079-1.653 2.22-3.243 3.616-4.324 3.108-2.417 7.294-6.041 10.656-9.793 1.713-1.844 3.299-3.752 4.44-5.532 1.142-1.78 1.84-3.37 1.967-4.706.063-.763.507-1.653 1.141-2.607.318-.445.635-.89.952-1.4.063-.063.063-.126.127-.126l1.141-1.717c1.523-2.417 2.855-5.215 2.284-8.522 0-.19-.064-.317 0-.445 0-.127.063-.19.127-.254.063-.064.127-.064.253-.064.127 0 .191 0 .318.064.253.064.571.19.951.382 0 0 .064 0 .064.063.317.127.697.318 1.141.445.888.318 1.84.573 2.855.445 1.014-.127 1.966-.635 2.854-1.907.381-2.099-.571-3.625-1.84-4.96-.634-.636-1.332-1.209-1.966-1.78l-.063-.065c-.698-.572-1.332-1.08-1.713-1.59-2.664-3.052-6.026-5.087-8.373-6.486l-.063-.063c-.571-.318-1.078-.636-1.522-.89-.444-.255-.825-.509-1.015-.763-.254-.255-.381-.446-.317-.636 0-.191.19-.382.57-.573l8.31.255.063.063c.064.064.127.191.254.382.317.381.888 1.145 1.839 2.607.318.382.635.954.952 1.59.127.254.317.572.507.827.571.953 1.269 2.034 2.093 3.052 1.777 1.971 4.504 3.56 9.008 3.18.063-.064.19-.128.253-.191.064-.064.191-.128.254-.191.19-.127.317-.318.381-.7a4.297 4.297 0 000-1.272v-.317c-.064-1.082-.698-2.162-1.523-3.307-.19-.254-.317-.509-.507-.7-.698-1.017-1.459-2.098-2.03-3.306-2.854-4.642-6.153-7.377-7.675-8.394-2.537-.954-3.933-1.844-4.567-2.48a3.398 3.398 0 01-.698-.763c-.063-.064-.127-.191-.127-.191v-.127h.064c1.903-.127 3.933-.064 5.835.254.825.064 1.523.254 2.284.572L101.955 35.5zm0 0l46.367 13.736L101.955 35.5zm0 0l1.522 6.105-1.522-6.105zm0 0l1.522 6.105-1.522-6.105zm46.367 13.736c1.269.509 3.616 1.272 5.899 1.399 2.284.127 4.504-.382 5.519-2.48l-11.418 1.08zm0 0c2.537.954 9.515 3.18 11.481-1.081l-11.481 1.08zm11.418-1.081c.19-.382.19-.827.127-1.209-.127-.381-.318-.763-.635-1.017-1.332-1.081-3.806-3.116-6.343-5.024-1.268-.953-2.474-1.844-3.615-2.607-1.079-.763-1.967-1.335-2.601-1.59a30.585 30.585 0 01-2.093-1.017c-.381-.19-.698-.318-.952-.445-.126-.064-.19-.127-.317-.127l-.063-.064 16.492 13.1zm.063 0l-56.262-6.614 56.262 6.614zm-56.262-6.614c0 .064 0 .064 0 0h.126c.064 0 .191-.063.318-.063.253-.064.697-.191 1.205-.382 1.015-.318 2.41-.763 4.186-1.272 3.489-1.08 8.056-2.607 12.75-4.197 4.63-1.653 9.324-3.434 12.939-5.023 1.776-.827 3.299-1.59 4.44-2.353.571-.382 1.015-.7 1.332-1.018.318-.317.571-.635.635-.953l-37.931 15.26zm37.677-15.261c.444-1.845 1.966-3.689 3.806-5.278 1.712-1.59 3.742-2.925 4.884-3.689a16.78 16.78 0 011.332-.572c.254-.064.571-.127.761-.19h.317c.064 0 .127.063.191.063 1.014 1.017 1.839 2.162 2.029 3.56.191 1.4-.19 3.053-1.585 5.152l-11.735.954zm11.608-.89c-2.03 2.416-4.504 4.832-6.343 6.613-.952.89-1.713 1.653-2.347 2.162a7.647 7.647 0 00-.698.636l-.19.19-.064.064 9.642-9.666zm-9.515 9.665c.064 0 .064 0 0 0 .317.127 2.411 1.208 3.425 1.654l-3.425-1.654zm.064 0c.444-.381 5.582-5.023 9.578-9.666l-9.578 9.666zm0 0l4.693-9.666 1.777-8.076c.444-.318 2.156-1.017 2.537-.636 2.03 2.099 3.298 4.515.444 8.776l-9.451 9.602z" fill="#F9C8A3" stroke="#795438" stroke-width=".081"/><path d="M159.741 48.155l-10.91 1.271c-.254 0-.634-.19-.888-.254l-1.078-.318c-.064 0 .063 0 0 0l-2.854-.445-32.223-4.515c-2.854-.381-2.981-4.451-.19-5.087.127 0 .253-.064.38-.127l13.067-5.024c.063 0 .127-.064.19-.064l15.223-7.122c.191-.127.444-.254.571-.381l8.5-8.649c.888-.954 3.679 5.914 2.854 8.14 0 .064-3.425 3.752-3.488 3.815l-4.948 4.579c-.063.064-.571.445-.634.509-.254.826-1.332.318.698 1.208l14.652 11.128c.571.255.951.763 1.078 1.336z" fill="#F9C8A3"/><path d="M102.849 16.78l-1.032 16.556c0 .275.138.482.413.482l.826.07c.206 0 .413-.139.482-.414l1.032-16.556c0-.276-.138-.483-.413-.483l-.826-.069c-.275-.069-.482.138-.482.414z" fill="url(#paint1_linear)"/><path d="M101.681 36.164l-.412 6.277c0 .276.137.483.412.483l.826.069c.206 0 .413-.138.482-.414l.413-6.277c0-.276-.138-.483-.413-.483l-.826-.069c-.275 0-.482.207-.482.414z" fill="url(#paint2_linear)"/><path d="M103.951 6.433l-5.23 85.329c-.206 3.794 2.615 7.036 6.262 7.243l34.61 2.207c3.715.207 6.88-2.621 7.155-6.415l5.23-85.329c.206-3.793-2.615-7.036-6.262-7.242L111.107.018c-3.716-.276-6.95 2.621-7.156 6.415z" fill="url(#paint3_linear)"/><path d="M111.657.57l33.508 2.138c1.789.138 3.372.966 4.542 2.346 1.169 1.38 1.72 3.104 1.651 4.897v.966c.138-1.794-.482-3.587-1.651-4.967-1.17-1.38-2.821-2.207-4.61-2.276l-33.509-2.138c-1.789-.138-3.509.483-4.816 1.655-1.308 1.173-2.133 2.897-2.271 4.69l.069-.896c.069-.897.275-1.793.688-2.621.413-.828.963-1.518 1.582-2.139.62-.62 1.445-1.034 2.271-1.38.757-.206 1.651-.344 2.546-.275z" fill="url(#paint4_linear)"/><path d="M139.043 100.66l-33.44-2.138a6.68 6.68 0 01-2.546-.69 6.88 6.88 0 01-2.064-1.586c-.55-.69-1.032-1.449-1.307-2.277a6.719 6.719 0 01-.344-2.62l.069-.967c-.138 1.794.481 3.587 1.651 4.967 1.17 1.38 2.821 2.207 4.61 2.276l33.509 2.139c1.789.138 3.509-.483 4.885-1.725 1.307-1.172 2.133-2.897 2.27-4.69l-.068.965c-.069.897-.276 1.794-.688 2.621-.413.828-.964 1.518-1.583 2.139a6.286 6.286 0 01-2.271 1.31c-.894.207-1.789.345-2.683.276z" fill="url(#paint5_linear)"/><path d="M150.671 9.951l-5.16 84.225c-.069.69-.207 1.31-.482 1.931a3.987 3.987 0 01-1.238 1.587c-.482.483-1.101.828-1.721 1.035-.619.207-1.307.276-1.995.276l-35.298-2.208c-.688-.069-1.307-.207-1.926-.483a3.984 3.984 0 01-1.583-1.241 8.78 8.78 0 01-1.032-1.725c-.206-.62-.275-1.31-.275-2l5.16-84.225a5.13 5.13 0 011.377-3.242 4.998 4.998 0 013.165-1.587c.275-.069.619-.069.894 0l6.193.414c.206 0 .344.07.55.138.138.07.344.207.413.345.138.138.206.345.275.483.069.207.069.345.069.552 0 .414.069.759.344 1.035.275.275.619.482.963.482l17.271 1.104c.413 0 .757-.138 1.032-.345.275-.276.481-.62.481-1.034 0-.207.069-.345.138-.552a2.09 2.09 0 01.344-.483c.138-.138.275-.207.482-.276.206-.07.344-.07.55-.07l6.193.415a5.056 5.056 0 013.509 1.724c.894 1.035 1.376 2.346 1.307 3.725z" fill="#F5F9FF"/><path d="M133.606 5.192l-10.94-.69c-.069 0-.138-.07-.207-.138-.068-.069-.068-.138-.068-.207v-.138c0-.069.068-.069.068-.069l.069-.069h.138l10.94.69h.138c.068 0 .068.069.068.069s.069.069.069.138v.276c0 .069-.069.069-.069.069l-.068.069h-.138z" fill="url(#paint6_linear)"/><path d="M120.396 4.57c.138 0 .207 0 .344-.068.069-.07.207-.138.207-.207.068-.07.068-.207.068-.345 0-.138-.068-.207-.137-.276-.069-.069-.138-.138-.275-.207h-.344c-.138.069-.207.138-.276.207a.531.531 0 00-.137.345v.207c0 .069.069.138.137.207.069.069.138.069.138.138h.275z" fill="url(#paint7_linear)"/><path d="M135.739 5.537h.206c.069 0 .138-.07.207-.138.069-.07.137-.138.137-.207 0-.07.069-.138.069-.207v-.207c0-.07-.069-.138-.137-.207-.069-.069-.138-.069-.207-.138-.069 0-.137-.069-.206-.069h-.207c-.068 0-.137.069-.206.138-.069.069-.138.138-.138.207-.069.069-.069.138-.069.207v.207c0 .069.069.138.138.207.069.069.138.069.207.138.068.069.137.069.206.069z" fill="url(#paint8_linear)"/><path d="M106.771 18.669l-2.293 41.152c0 .207 0 .483.068.69.069.207.207.414.344.621.138.207.344.345.551.414.206.138.413.138.688.207l37.018 2.552c.206 0 .481 0 .688-.069.206-.069.413-.207.619-.345.206-.138.344-.345.413-.552.069-.207.137-.414.206-.69l2.087-41.566c0-.207 0-.483-.069-.69-.068-.207-.206-.414-.344-.62a1.068 1.068 0 00-.55-.415 8.618 8.618 0 00-.688-.207l-36.811-2.069c-.482 0-.895.138-1.239.414-.413.207-.619.69-.688 1.173z" fill="#C1DCFE"/><path d="M120.595 27.229c1.437.086 2.176-.606 2.235-1.58.119-1.989-2.973-1.606-2.922-2.453.019-.32.304-.518.791-.489.543.033 1.107.251 1.514.676l.681-.792c-.498-.52-1.185-.817-2.032-.868-1.254-.075-2.065.613-2.118 1.5-.121 2.004 2.985 1.542 2.928 2.484-.018.303-.339.573-.962.535a2.34 2.34 0 01-1.65-.82l-.666.825c.464.533 1.178.92 2.201.982zm7.069.33l.061-.999-2.636-.158.073-1.206 2.579.155.06-.998-2.579-.155.068-1.126 2.635.158.06-.998-3.769-.227-.321 5.326 3.769.227zm3.804.325c1.613.097 2.856-.982 2.953-2.587.096-1.606-1.008-2.826-2.621-2.923-1.605-.097-2.849.982-2.945 2.587-.097 1.605 1.008 2.826 2.613 2.923zm.06-1.006c-.982-.06-1.567-.856-1.507-1.846.06-.999.736-1.711 1.718-1.652.982.059 1.576.848 1.516 1.846-.06.99-.744 1.71-1.727 1.652z" fill="#0A3D76"/><g clip-path="url(#clip0)"><path d="M115.768 10.85c.577.04.928-.244 1.138-.546l-.463-.257a.706.706 0 01-.642.325c-.475-.033-.795-.41-.762-.888.034-.478.403-.807.878-.774a.715.715 0 01.591.411l.494-.194a1.206 1.206 0 00-1.051-.695c-.785-.055-1.43.434-1.485 1.211-.054.778.517 1.352 1.302 1.407z" fill="url(#paint9_linear)"/><path d="M120.035 11.103l.176-2.53-.784-.056-.743 1.485-.529-1.574-.781-.054-.177 2.53.558.04.123-1.773.614 1.824.244.017.861-1.72-.124 1.772.562.039z" fill="url(#paint10_linear)"/><path d="M121.245 10.597l.045-.649a.557.557 0 01.442-.182c.291.02.468.25.446.568-.023.319-.23.518-.52.498a.561.561 0 01-.413-.235zm-.042.588l.017-.235a.745.745 0 00.565.321c.479.034.864-.29.907-.9.042-.6-.29-.99-.773-1.023a.74.74 0 00-.604.24l.065-.934-.498-.035-.177 2.531.498.035zm2.677.233c.628.044 1.035-.37 1.072-.893.036-.52-.31-.987-.938-1.03-.623-.044-1.031.37-1.067.89-.037.523.309.99.933 1.033zm.03-.429c-.31-.021-.465-.28-.445-.568.02-.285.21-.52.52-.498.31.022.469.28.449.565-.02.289-.214.523-.524.501zm2.944.591l-.613-.988.698-.847-.557-.039-.428.538-.353-.593-.558-.039.57.936-.737.894.554.039.478-.588.389.648.557.04z" fill="#0A3D76"/><path fill-rule="evenodd" clip-rule="evenodd" d="M110.502 7.278a.169.169 0 01.158.011l1.456.956a.154.154 0 01.049.217.168.168 0 01-.227.046l-1.379-.908-1.486.663a.167.167 0 01-.218-.077.153.153 0 01.078-.208l1.569-.7zm-.167 3.53a.16.16 0 01.152.169l-.045.618 1.319-.588a.168.168 0 01.218.076.153.153 0 01-.078.208l-1.485.672a.339.339 0 01-.324-.023l-1.374-.915a.154.154 0 01-.046-.217.169.169 0 01.228-.043l1.215.804.045-.616a.161.161 0 01.175-.145z" fill="url(#paint11_linear)"/><path fill-rule="evenodd" clip-rule="evenodd" d="M112.503 8.59a.164.164 0 01.069.146l-.148 2.121a.163.163 0 01-.173.152.163.163 0 01-.151-.175l.129-1.845-1.642.796-.04.573a.162.162 0 11-.324-.023l.04-.572-1.634-1.044-.131 1.889a.162.162 0 11-.324-.023l.151-2.162a.163.163 0 01.088-.135.163.163 0 01.161.008l1.87 1.195 1.898-.915a.163.163 0 01.161.014z" fill="url(#paint12_linear)"/><path fill-rule="evenodd" clip-rule="evenodd" d="M110.288 6.434c.221-.11.383-.18.586-.038l2.253 1.492c.148.103.203.261.096.402-.106.14-.304.07-.452-.032l-2.117-1.417-2.715 1.227-.199 2.858 2.515 1.624 2.295-1.087c.163-.075.424-.122.503.035.08.157-.023.304-.187.38l-2.229 1.078a.776.776 0 01-.76-.053l-2.412-1.55c-.206-.124-.316-.2-.3-.432l.194-2.774c.011-.226.1-.43.309-.52l2.62-1.193z" fill="url(#paint13_linear)"/><path d="M114.82 12.236a.452.452 0 00.423-.199l-.172-.094a.264.264 0 01-.239.119.296.296 0 01-.284-.325.296.296 0 01.327-.281c.1.007.184.072.22.15l.183-.07a.45.45 0 00-.391-.255c-.292-.02-.532.158-.552.441-.02.284.193.493.485.514zm.713.034l.031-.442a.253.253 0 01.23-.056l.012-.172a.307.307 0 00-.232.092l.006-.091-.186-.013-.046.668.185.013zm.671.063a.455.455 0 00.297-.073l-.073-.119a.314.314 0 01-.193.053c-.12-.008-.187-.084-.193-.169l.525.037.002-.039c.016-.218-.117-.378-.327-.392a.35.35 0 00-.39.324c-.015.214.138.363.352.378zm.191-.402l-.347-.025a.166.166 0 01.184-.136c.123.009.163.097.163.16zm.895.461l.03-.431c.014-.193-.13-.264-.29-.275a.482.482 0 00-.316.083l.062.123a.308.308 0 01.212-.064c.093.006.151.055.147.122l-.007.09c-.043-.056-.124-.09-.217-.097-.113-.008-.25.042-.261.199-.01.149.118.23.23.238a.302.302 0 00.23-.07l-.005.07.185.012zm-.327-.126c-.073-.005-.131-.045-.126-.107.004-.065.067-.097.14-.092.06.004.117.028.145.069l-.006.083c-.033.036-.093.052-.153.047zm.747.172c.077.005.128-.01.157-.032l-.03-.136a.104.104 0 01-.065.015c-.041-.002-.063-.036-.06-.077l.021-.302.144.01.01-.153-.143-.01.013-.183-.187-.013-.013.182-.117-.008-.01.154.117.008-.025.348c-.008.12.058.188.188.197zm.401-.732a.11.11 0 00.119-.097c.004-.058-.043-.108-.104-.112-.06-.004-.114.038-.118.096-.005.058.043.109.103.113zm.042.747l.047-.668-.186-.014-.046.668.185.014zm.566.039l.33-.648-.2-.014-.216.452-.152-.478-.198-.014.236.688.2.014zm.697.066a.457.457 0 00.297-.073l-.074-.119a.31.31 0 01-.193.053c-.12-.008-.186-.084-.192-.169l.524.037.003-.039c.015-.218-.118-.378-.328-.392-.214-.015-.376.13-.389.324-.015.214.137.363.352.378zm.191-.403l-.348-.024a.167.167 0 01.184-.136c.123.009.164.097.164.16zm1.72.52l.064-.923-.292-.02-.276.54-.197-.573-.291-.02-.064.922.207.014.045-.646.23.665.09.007.32-.627-.045.646.209.015zm.798.055l.03-.431c.013-.192-.13-.263-.291-.275a.478.478 0 00-.315.084l.062.122a.304.304 0 01.211-.064c.094.006.152.055.147.123l-.006.09c-.043-.056-.124-.091-.218-.098-.112-.007-.249.043-.26.2-.011.148.117.23.23.238a.3.3 0 00.229-.07l-.005.069.186.013zm-.328-.125c-.073-.005-.13-.046-.126-.108.005-.065.067-.097.14-.091.06.004.117.027.145.068l-.006.083c-.033.037-.093.052-.153.048zm.697.151l.031-.44c.034-.042.118-.069.179-.065.02.002.038.004.051.008l.012-.171a.31.31 0 00-.233.092l.007-.092-.186-.013-.046.668.185.013zm1.03.073l-.262-.386.3-.283-.228-.016-.288.279.039-.552-.186-.013-.064.922.185.013.012-.171.091-.08.169.27.232.017zm.414.045a.455.455 0 00.297-.072l-.074-.12a.311.311 0 01-.193.054c-.119-.008-.186-.084-.192-.17l.524.037.003-.038c.015-.219-.117-.378-.328-.393-.214-.015-.376.13-.389.324-.015.215.137.363.352.378zm.191-.402l-.348-.024a.167.167 0 01.185-.136c.122.008.163.096.163.16zm.521.452c.078.006.129-.01.158-.032l-.03-.135a.106.106 0 01-.066.014c-.041-.003-.062-.036-.059-.077l.021-.302.143.01.011-.153-.143-.01.013-.183-.187-.013-.013.182-.117-.008-.01.154.116.008-.024.348c-.008.12.057.188.187.197zm.402-.732a.108.108 0 00.118-.097.107.107 0 00-.103-.112c-.06-.004-.115.038-.119.096-.004.058.044.109.104.113zm.042.746l.046-.668-.185-.013-.047.668.186.013zm.845.06l.033-.472c.009-.13-.059-.218-.214-.229a.33.33 0 00-.254.086l.006-.087-.186-.013-.046.668.185.013.032-.45a.204.204 0 01.166-.067c.079.006.127.041.121.134l-.028.404.185.013zm.455.304c.173.012.385-.036.403-.29l.043-.623-.187-.013-.006.086a.276.276 0 00-.21-.117c-.178-.013-.32.1-.335.318-.015.223.111.35.287.362a.28.28 0 00.225-.09l-.004.068c-.01.131-.117.161-.206.155a.29.29 0 01-.215-.098l-.092.121c.084.08.175.112.297.12zm.065-.43c-.105-.007-.174-.08-.166-.196.008-.114.086-.178.191-.171a.2.2 0 01.154.087l-.015.216a.208.208 0 01-.164.065z" fill="#B01E34"/></g><g filter="url(#filter1_d)"><rect width="34" height="9.002" rx="2" transform="rotate(4.005 -902.917 1572.523) skewX(.01)" fill="url(#paint14_linear)"/><path d="M114.368 73.44c.635.045 1.116-.246 1.148-.705.028-.4-.308-.635-.573-.682.294-.031.597-.23.621-.566.031-.443-.381-.752-1.003-.796-.467-.032-.859.12-1.091.349l.258.375c.2-.166.482-.243.742-.225.303.021.535.142.52.353-.013.196-.247.268-.562.246l-.539-.038-.035.499.539.037c.399.028.58.137.565.349-.014.2-.227.325-.578.3-.26-.018-.587-.153-.757-.358l-.322.359c.179.253.577.47 1.067.504zm4.207.247l-.84-2.734-.71-.05-1.215 2.59.646.045.199-.439 1.141.08.132.462.647.046zm-.899-1.018l-.83-.058.495-1.116.335 1.174zm3.623 1.208l-1.031-1.492 1.145-1.175-.698-.048-1.025 1.123.083-1.19-.567-.039-.186 2.662.567.04.057-.819.225-.233.731 1.122.699.049zm2.939.206l-.839-2.734-.71-.05-1.216 2.59.647.045.199-.439 1.141.08.132.462.646.046zm-.899-1.018l-.83-.058.495-1.116.335 1.174zm2.228 1.159c.634.044 1.116-.247 1.148-.706.028-.4-.309-.635-.574-.682.295-.031.598-.23.621-.566.031-.443-.38-.752-1.003-.796-.467-.032-.858.12-1.091.35l.259.374c.2-.166.482-.243.741-.225.303.021.535.142.521.353-.014.196-.248.268-.563.246l-.538-.038-.035.499.538.037c.399.028.58.137.565.349-.014.2-.227.325-.578.3-.259-.018-.587-.153-.757-.357l-.322.358c.179.253.577.47 1.068.504zm4.206.246l-.839-2.734-.71-.05-1.216 2.59.646.046.2-.44 1.141.08.132.462.646.046zm-.899-1.018l-.83-.058.495-1.116.335 1.174zm2.273 1.114l.151-2.163.774.054.035-.499-2.123-.148-.035.499.778.054-.151 2.163.571.04zm1.522-2.568l-.186 2.661 1.245.087c.579.04.922-.328.954-.795.033-.463-.259-.88-.834-.92l-.678-.048.066-.946-.567-.04zm1.069 1.526c.223.016.381.167.366.386-.016.224-.193.348-.417.332l-.602-.042.05-.718.603.042z" fill="#F5F9FF"/><rect width="34" height="9.002" rx="2" transform="rotate(4.005 -902.917 1572.523) skewX(.01)" stroke="#fff" stroke-width=".5"/></g><path d="M150.671 9.951l-3.991 65.67-37.018-73.327a1.96 1.96 0 01.895 0l6.192.414c.207 0 .344.07.551.138.137.07.344.207.412.345.138.138.207.345.276.483.068.207.068.345.068.552 0 .414.069.759.345 1.035.275.275.619.482.963.482l17.27 1.104c.413 0 .757-.138 1.032-.345.275-.276.482-.62.482-1.034 0-.207.069-.345.138-.552a2.06 2.06 0 01.344-.483c.137-.138.275-.207.481-.276.207-.07.344-.07.551-.07l6.192.415c.688 0 1.308.207 1.927.483s1.17.69 1.582 1.241c.413.552.826 1.104 1.032 1.725.207.62.276 1.31.276 2z" fill="#D0E4FF" fill-opacity=".2"/><g filter="url(#filter2_f)"><path d="M127.12 80.92L81.614 91.165l73.382 78.789c12.498 12.804 72.649 33.08 81.402 28.447L127.12 80.92z" fill="url(#paint15_linear)"/></g><path d="M186.841 109.423h0c-1.704-.405-2.979-.373-3.841-.243-.43.065-.758.154-.985.227-.113.036-.202.068-.266.09a.941.941 0 01-.079.027c-.01.003-.02.006-.029.007-.006.001-.014.003-.023.003-.262.035-.601.154-.986.331-.387.177-.817.411-1.258.672a40.743 40.743 0 00-2.51 1.644h-.001l-.028-.041a4.11 4.11 0 01-2.606.746l12.612-3.463zm0 0l.003.001m-.003-.001l.003.001m-67.258 16.431a1.236 1.236 0 00-.04.114c-.023.083-.05.207-.062.369-.024.323.013.8.258 1.404.49 1.21 1.816 2.938 5.173 4.979a17.902 17.902 0 014.214 3.471h0c2.228 2.541 6.014 6.641 8.805 8.464l-18.348-18.801zm0 0l.017-.016.074-.064c.066-.056.165-.137.295-.235a9.88 9.88 0 011.143-.736 10.918 10.918 0 014.266-1.314c3.634-.339 8.748 1.015 14.64 7.824l.038-.033m-20.473-5.426l20.473 5.426m0 0l-.038.033c6.12 7.067 10.091 10.063 12.519 11.391v.001a2.216 2.216 0 002.958-.849c.189-.329.29-.701.293-1.081v0c0-1.936-.011-4.637-.112-7.258-.101-2.62-.292-5.164-.654-6.782-.518-2.307-1.743-6.315-2.839-9.744a437.277 437.277 0 00-1.894-5.785l-.125-.37-.032-.096-.009-.025-.002-.006v-.002h0l-.048.016.048-.016v-.001c-.808-2.339-2.207-6.056-3.405-9.188a923.4 923.4 0 00-2.019-5.233l-.129-.332-.034-.086-.008-.022-.003-.005v-.002h0l-.046.018.046-.018-.001-.001-.046.019.046-.02h0l-.001-.002-.003-.009-.014-.032-.054-.13-.205-.49a478.947 478.947 0 01-2.995-7.373 216.823 216.823 0 01-2.346-6.156c-.669-1.859-1.155-3.373-1.27-4.115-.227-1.472.57-2.653 1.434-3.47a7.976 7.976 0 011.742-1.243l.03-.015.006-.003a4.753 4.753 0 014.004.773h0l.002.001c.272.175.609.549.992 1.076.382.525.806 1.198 1.252 1.967.892 1.537 1.872 3.451 2.782 5.322.91 1.87 1.75 3.696 2.362 5.054.307.678.556 1.24.729 1.633l.199.454.052.12.013.03.004.008v.002h.001l.046-.02-.046.02.001.003.011-.005-.011.005h0l.001.002.003.006.011.023.045.09.175.35a461.107 461.107 0 012.891 5.906c1.798 3.74 4.067 8.584 5.949 13.004l.046-.02-.046.02c1.776 4.166 2.541 6.361 2.942 7.516.09.257.162.462.222.627.083.224.148.376.212.476.066.103.135.157.226.179a.96.96 0 00.269.01 3.232 3.232 0 01.54.013l.032.004.016-.029-.043-.024m-26.674 13.886l26.674-13.886m0 0l.043.024h.001l.001-.002.005-.009.02-.033.076-.128a18.158 18.158 0 011.311-1.88c.419-.524.903-1.057 1.411-1.48.51-.424 1.039-.734 1.552-.818l-4.42 4.326zm20.111-7.971a5.417 5.417 0 003.179-.397 9.68 9.68 0 015.34-.383c1.23.318 2.086.604 2.667.917.58.312.882.649 1.011 1.068v.001l.244.796h-.001m-12.44-2.002l12.44 2.002m0 0l.002.005m-.002-.005l.002.005m0 0a101.516 101.516 0 015.259 15.705h0m-5.259-15.705l5.259 15.705m0 0l.001.005m-.001-.005l.001.005m0 0c1.485 4.124 2.208 10.33 2.559 15.509a151.14 151.14 0 01.327 8.594l.003.54v.14l-.001.036v.012h.05-.05m-2.888-24.831l2.888 24.831m0 0l.001.005m-.001-.005l.001.005m0 0c.034.354.198.822.445 1.353a19 19 0 00.957 1.76c.753 1.251 1.682 2.597 2.456 3.674a16.928 16.928 0 003.102 3.303h0m-6.96-10.09l6.96 10.09m0 0c2.199 1.783 3.456 3.217 4.163 4.204.354.493.57.875.697 1.132a3.91 3.91 0 01.158.365l.006.018.001.005h.001v.001h-.002m-5.024-5.725l5.024 5.725m0 0l.006.011m-.006-.011l.006.011m0 0c7.388 12.57 11.014 16.676 12.618 18.006l.001.001m-12.619-18.007l12.619 18.007m0 0a18.92 18.92 0 013.872 4.137l-3.872-4.137zm-52.089-6.343h0l8.841 9.37a24.454 24.454 0 0011.994 6.966s0 0 0 0l-.012.049-20.823-16.385zm0 0c-.467-.481-.892-1-1.272-1.552-1.049-1.535-3.016-2.95-5.036-4.112-2.022-1.164-4.104-2.078-5.39-2.611l-.02.047.02-.047a12.98 12.98 0 01-2.328-1.252h0m14.026 9.527l-14.026-9.527m0 0c-.806-.533-1.746-1.068-2.813-1.676m2.813 1.676l-2.813-1.676m0 0c-3.561-2.028-8.545-4.866-14.735-11.123m14.735 11.123l-14.735-11.123m0 0c-.383-.388-.963-1.188-1.686-2.219m1.686 2.219l-1.686-2.219m0 0l-.519-.742m.519.742l-.519-.742m0 0a143.183 143.183 0 00-2.011-2.832m2.011 2.832l-2.011-2.832m0 0c-1.889-2.581-4.117-5.316-6.231-6.692l6.231 6.692z" fill="#F9C8A3" stroke="#795438" stroke-width=".1"/><path d="M109.554 31.672l.644 1.454 1.89-2.407" stroke="url(#paint16_linear)" stroke-linecap="round" stroke-linejoin="round"/><path d="M108.691 37.365l.645 1.455 1.89-2.407" stroke="url(#paint17_linear)" stroke-linecap="round" stroke-linejoin="round"/><path d="M107.98 43.06l.645 1.454 1.89-2.407" stroke="url(#paint18_linear)" stroke-linecap="round" stroke-linejoin="round"/><rect width="29.128" height="2.135" rx="1" transform="rotate(3.004 -540.354 2184.223) skewX(.008)" fill="#71A0DD"/><rect width="29.128" height="2.135" rx="1" transform="rotate(3.004 -649.296 2173.492) skewX(.008)" fill="#71A0DD"/><rect width="29.128" height="2.135" rx="1" transform="rotate(3.004 -758.235 2162.762) skewX(.008)" fill="#71A0DD"/><path d="M107.98 49.465l.645 1.455 1.89-2.407" stroke="url(#paint19_linear)" stroke-linecap="round" stroke-linejoin="round"/><path d="M107.269 55.159l.645 1.455 1.89-2.407" stroke="url(#paint20_linear)" stroke-linecap="round" stroke-linejoin="round"/><rect width="29.128" height="2.135" rx="1" transform="rotate(3.004 -880.395 2165.965) skewX(.008)" fill="#71A0DD"/><rect width="29.128" height="2.135" rx="1" transform="rotate(3.004 -989.332 2155.253) skewX(.008)" fill="#71A0DD"/><defs><linearGradient id="paint0_linear" x1="26.248" y1="67.166" x2="121.706" y2="197.333" gradientUnits="userSpaceOnUse"><stop stop-color="#B4D1FA" stop-opacity="0"/><stop offset="1" stop-opacity=".2"/></linearGradient><linearGradient id="paint1_linear" x1="102.618" y1="33.802" x2="103.708" y2="16.362" gradientUnits="userSpaceOnUse"><stop stop-color="gray"/><stop offset=".01" stop-color="#727272"/><stop offset=".06" stop-color="#4F4F4F"/><stop offset=".1" stop-color="#323232"/><stop offset=".15" stop-color="#1C1C1C"/><stop offset=".2" stop-color="#0C0C0C"/><stop offset=".26" stop-color="#030303"/><stop offset=".34"/><stop offset=".7"/><stop offset=".75" stop-color="#050505"/><stop offset=".8" stop-color="#131313"/><stop offset=".86" stop-color="#2A2A2A"/><stop offset=".92" stop-color="#4B4B4B"/><stop offset=".98" stop-color="#747474"/><stop offset="1" stop-color="gray"/></linearGradient><linearGradient id="paint2_linear" x1="92.261" y1="201.198" x2="93.098" y2="187.752" gradientUnits="userSpaceOnUse"><stop stop-color="gray"/><stop offset=".01" stop-color="#727272"/><stop offset=".06" stop-color="#4F4F4F"/><stop offset=".1" stop-color="#323232"/><stop offset=".15" stop-color="#1C1C1C"/><stop offset=".2" stop-color="#0C0C0C"/><stop offset=".26" stop-color="#030303"/><stop offset=".34"/><stop offset=".7"/><stop offset=".75" stop-color="#050505"/><stop offset=".8" stop-color="#131313"/><stop offset=".86" stop-color="#2A2A2A"/><stop offset=".92" stop-color="#4B4B4B"/><stop offset=".98" stop-color="#747474"/><stop offset="1" stop-color="gray"/></linearGradient><linearGradient id="paint3_linear" x1="150.534" y1="52.189" x2="100.348" y2="49.063" gradientUnits="userSpaceOnUse"><stop stop-color="#323232"/><stop offset=".03" stop-color="#1C1C1C"/><stop offset=".06" stop-color="#0C0C0C"/><stop offset=".1" stop-color="#030303"/><stop offset=".15"/><stop offset=".87"/><stop offset=".91" stop-color="#050505"/><stop offset=".95" stop-color="#131313"/><stop offset=".99" stop-color="#2A2A2A"/><stop offset="1" stop-color="#333"/></linearGradient><linearGradient id="paint4_linear" x1="128.294" y1="2.124" x2="128.506" y2="-1.405" gradientUnits="userSpaceOnUse"><stop/><stop offset=".16" stop-color="#050505"/><stop offset=".34" stop-color="#131313"/><stop offset=".53" stop-color="#2A2A2A"/><stop offset=".74" stop-color="#4B4B4B"/><stop offset=".95" stop-color="#747474"/><stop offset="1" stop-color="gray"/></linearGradient><linearGradient id="paint5_linear" x1="122.821" y1="91.477" x2="122.399" y2="99.797" gradientUnits="userSpaceOnUse"><stop/><stop offset=".16" stop-color="#050505"/><stop offset=".34" stop-color="#131313"/><stop offset=".53" stop-color="#2A2A2A"/><stop offset=".74" stop-color="#4B4B4B"/><stop offset=".95" stop-color="#747474"/><stop offset="1" stop-color="gray"/></linearGradient><linearGradient id="paint6_linear" x1="128.372" y1=".91" x2="128.031" y2="6.359" gradientUnits="userSpaceOnUse"><stop/><stop offset=".14" stop-color="#050505"/><stop offset=".3" stop-color="#131313"/><stop offset=".47" stop-color="#2A2A2A"/><stop offset=".65" stop-color="#4B4B4B"/><stop offset=".83" stop-color="#747474"/><stop offset="1" stop-color="#A1A1A1"/></linearGradient><linearGradient id="paint7_linear" x1="120.418" y1="59.953" x2="120.418" y2="63.698" gradientUnits="userSpaceOnUse"><stop/><stop offset=".14" stop-color="#050505"/><stop offset=".3" stop-color="#131313"/><stop offset=".47" stop-color="#2A2A2A"/><stop offset=".65" stop-color="#4B4B4B"/><stop offset=".83" stop-color="#747474"/><stop offset="1" stop-color="#A1A1A1"/></linearGradient><linearGradient id="paint8_linear" x1="135.792" y1="61.321" x2="135.792" y2="65.092" gradientUnits="userSpaceOnUse"><stop/><stop offset=".14" stop-color="#050505"/><stop offset=".3" stop-color="#131313"/><stop offset=".47" stop-color="#2A2A2A"/><stop offset=".65" stop-color="#4B4B4B"/><stop offset=".83" stop-color="#747474"/><stop offset="1" stop-color="#A1A1A1"/></linearGradient><linearGradient id="paint9_linear" x1="114.477" y1="9.294" x2="120.125" y2="9.786" gradientUnits="userSpaceOnUse"><stop stop-color="#B6142C"/><stop offset="1" stop-color="#A62E41"/></linearGradient><linearGradient id="paint10_linear" x1="114.477" y1="9.294" x2="120.125" y2="9.786" gradientUnits="userSpaceOnUse"><stop stop-color="#B6142C"/><stop offset="1" stop-color="#A62E41"/></linearGradient><linearGradient id="paint11_linear" x1="108.747" y1="9.43" x2="112.179" y2="9.697" gradientUnits="userSpaceOnUse"><stop stop-color="#1758A0"/><stop offset="1" stop-color="#0A3D76"/></linearGradient><linearGradient id="paint12_linear" x1="108.259" y1="9.362" x2="112.503" y2="9.716" gradientUnits="userSpaceOnUse"><stop stop-color="#CD1732"/><stop offset=".5" stop-color="#B6142C"/><stop offset="1" stop-color="#8B1022"/></linearGradient><linearGradient id="paint13_linear" x1="107.294" y1="9.068" x2="113.227" y2="9.524" gradientUnits="userSpaceOnUse"><stop stop-color="#B6142C"/><stop offset="1" stop-color="#A62E41"/></linearGradient><linearGradient id="paint14_linear" x1="1.838" y1="4.501" x2="30.431" y2="4.501" gradientUnits="userSpaceOnUse"><stop stop-color="#8D2716"/><stop offset="1" stop-color="#C9081F"/></linearGradient><linearGradient id="paint15_linear" x1="112.379" y1="88.603" x2="232.516" y2="253.441" gradientUnits="userSpaceOnUse"><stop stop-color="#B4D1FA" stop-opacity="0"/><stop offset="1" stop-opacity=".2"/></linearGradient><linearGradient id="paint16_linear" x1="109.545" y1="31.851" x2="112.031" y2="31.965" gradientUnits="userSpaceOnUse"><stop stop-color="#6EB039"/><stop offset="1" stop-color="#4A9B3C"/></linearGradient><linearGradient id="paint17_linear" x1="108.683" y1="37.545" x2="111.168" y2="37.659" gradientUnits="userSpaceOnUse"><stop stop-color="#6EB039"/><stop offset="1" stop-color="#4A9B3C"/></linearGradient><linearGradient id="paint18_linear" x1="107.972" y1="43.239" x2="110.457" y2="43.353" gradientUnits="userSpaceOnUse"><stop stop-color="#6EB039"/><stop offset="1" stop-color="#4A9B3C"/></linearGradient><linearGradient id="paint19_linear" x1="107.972" y1="49.644" x2="110.457" y2="49.758" gradientUnits="userSpaceOnUse"><stop stop-color="#6EB039"/><stop offset="1" stop-color="#4A9B3C"/></linearGradient><linearGradient id="paint20_linear" x1="107.261" y1="55.338" x2="109.747" y2="55.453" gradientUnits="userSpaceOnUse"><stop stop-color="#6EB039"/><stop offset="1" stop-color="#4A9B3C"/></linearGradient><filter id="filter0_f" x="0" y="59.073" width="103.518" height="92.968" filterUnits="userSpaceOnUse" color-interpolation-filters="sRGB"><feFlood flood-opacity="0" result="BackgroundImageFix"/><feBlend in="SourceGraphic" in2="BackgroundImageFix" result="shape"/><feGaussianBlur stdDeviation="1" result="effect1_foregroundBlur"/></filter><filter id="filter1_d" x="102.884" y="62.789" width="46.776" height="23.585" filterUnits="userSpaceOnUse" color-interpolation-filters="sRGB"><feFlood flood-opacity="0" result="BackgroundImageFix"/><feColorMatrix in="SourceAlpha" values="0 0 0 0 0 0 0 0 0 0 0 0 0 0 0 0 0 0 127 0"/><feOffset dx="2" dy="2"/><feGaussianBlur stdDeviation="3"/><feColorMatrix values="0 0 0 0 0 0 0 0 0 0 0 0 0 0 0 0 0 0 0.15 0"/><feBlend in2="BackgroundImageFix" result="effect1_dropShadow"/><feBlend in="SourceGraphic" in2="effect1_dropShadow" result="shape"/></filter><filter id="filter2_f" x="79.614" y="78.921" width="158.784" height="122.154" filterUnits="userSpaceOnUse" color-interpolation-filters="sRGB"><feFlood flood-opacity="0" result="BackgroundImageFix"/><feBlend in="SourceGraphic" in2="BackgroundImageFix" result="shape"/><feGaussianBlur stdDeviation="1" result="effect1_foregroundBlur"/></filter><clipPath id="clip0"><path fill="#fff" transform="rotate(4.005 -27.914 1533.272) skewX(.01)" d="M0 0h20.489v7.582H0z"/></clipPath></defs></svg>