<svg width="240" height="197" fill="none" xmlns="http://www.w3.org/2000/svg"><g clip-path="url(#clip0)"><path fill-rule="evenodd" clip-rule="evenodd" d="M70.417 23.41c34.419-32.607 104.937-32.8 142.312 9.86 46.438 52.951 17.678 141.676-38.639 153.826-40.831 8.822-66.279-4.265-89.836-16.378-20.45-10.517-39.476-20.301-65.902-14.379 12.675-18.308 16.996-39.95 21.281-61.412 5.241-26.252 10.429-52.234 30.784-71.517zM36.44 144.945a82.352 82.352 0 0122.888 4.087l.255-.837a83.549 83.549 0 00-22.429-4.149 152.715 152.715 0 007.3-21.673l-.908-.235a151.678 151.678 0 01-7.524 22.163l-.275.644h.693zM51.468 89.92l-.918-.194c4.588-22.337 10.063-43.673 26.507-59.266a67.102 67.102 0 0111.765-8.828l.48.817a65.583 65.583 0 00-11.603 8.696C61.45 46.554 56.076 67.746 51.468 89.92zm59.508-76.31l-.224-.909a99.433 99.433 0 0124.58-3.014c2.793 0 5.607.112 8.37.337l-.082.94a101.58 101.58 0 00-8.288-.337 98.676 98.676 0 00-24.356 2.994v-.01zm22.582 165.536a93.206 93.206 0 0014.752 1.165 107.734 107.734 0 0018.31-1.584l-.163-.93a105.662 105.662 0 01-18.167 1.573 92.453 92.453 0 01-14.579-1.154l-.153.93zm54.819-9.176l.489.807c14.63-8.972 26.14-24.411 32.42-43.499a97.439 97.439 0 004.761-24.973l-.928-.051a96.876 96.876 0 01-4.72 24.728c-6.209 18.873-17.586 34.139-32.022 42.988zm22.714-121.413a83.501 83.501 0 0110.073 21.162l.897-.276a84.066 84.066 0 00-10.195-21.407l-.775.52z" fill="#1A1A1A"/><path d="M29.76 172.065c-.09.694-.641 1.328-1.814 1.91l-5.27 2.616a1.67 1.67 0 01-2.04-.48L9.422 161.366l6.494-3.239c2.936 5.651 14.344 10.474 13.845 13.938z" fill="url(#paint0_linear)"/><path d="M17.741 157.187l-1.886.94c3.59 6.754 19.218 12.261 12.092 15.848l1.886-.94c7.126-3.546-8.503-9.084-12.091-15.848z" fill="url(#paint1_linear)"/><path style="mix-blend-mode:multiply" opacity=".2" d="M29.76 172.064c-.09.695-.641 1.329-1.814 1.911l-5.27 2.616a1.667 1.667 0 01-2.039-.48L9.421 161.366l3.058-1.523c2.814 4.609 8.411 11.067 17.28 12.221z" fill="url(#paint2_linear)"/><path d="M4.365 150.443l5.618 11.342c-3.579 1.778-5.546 1.472-6.902.204a9.704 9.704 0 01-1.917-2.891 9.956 9.956 0 01-1.162-3.28c-.163-1.85.785-3.567 4.363-5.375z" fill="url(#paint3_linear)"/><path style="mix-blend-mode:screen" opacity=".3" d="M5.18 152.078l3.995 8.062a16.094 16.094 0 01-6.117 1.849 9.704 9.704 0 01-1.916-2.891A9.95 9.95 0 010 155.818a16.125 16.125 0 015.18-3.74z" fill="url(#paint4_linear)"/><path style="mix-blend-mode:color-burn" opacity=".3" d="M1.309 159.404a8.982 8.982 0 001.753 2.585 16.095 16.095 0 006.117-1.849l-1.866-3.802-6.004 3.066z" fill="url(#paint5_linear)"/><path d="M17.24 160.753c-5.148 2.565-7.85 1.962-9.715 0a14.673 14.673 0 01-2.324-3.668 14.713 14.713 0 01-1.5-4.088c-.437-2.667.725-5.191 5.873-7.755-.306.153.143 1.604.959 3.556a84.074 84.074 0 004.465 9.012c1.06 1.86 1.937 3.096 2.243 2.943z" fill="url(#paint6_linear)"/><path style="mix-blend-mode:screen" opacity=".3" d="M15 157.83a61.214 61.214 0 01-7.474 2.923 14.68 14.68 0 01-2.324-3.669 14.695 14.695 0 01-1.499-4.087 60.805 60.805 0 016.83-4.2A83.997 83.997 0 0015 157.83z" fill="url(#paint7_linear)"/><path style="mix-blend-mode:color-burn" opacity=".3" d="M5.313 157.299a14.14 14.14 0 002.212 3.454 61.05 61.05 0 007.473-2.923 70.407 70.407 0 01-2.264-4.23l-7.421 3.699z" fill="url(#paint8_linear)"/><path style="mix-blend-mode:multiply" d="M9.574 145.262a21.79 21.79 0 00-2.223 1.257c-.173 1.758 6.046 14.306 7.555 15.246a22.289 22.289 0 002.334-1.022c-1.04.531-8.706-14.96-7.666-15.481z" fill="url(#paint9_linear)"/><path d="M54.971 132.336a72.998 72.998 0 015.047 13.008 39.57 39.57 0 01.795 3.525c.826 4.568.448 7.827-1.315 8.706l-42.962 3.699c-.285.143-.938-.633-1.764-1.901a70.54 70.54 0 01-5.597-11.301c-.51-1.43-.724-2.411-.438-2.554l14.497-16.074 14.426-16.022c2.192-1.093 6.015 1.758 10.022 6.979a72.772 72.772 0 017.29 11.935z" fill="url(#paint10_linear)"/><path style="mix-blend-mode:screen" opacity=".3" d="M42.197 131.815a117.336 117.336 0 002.58 5.589c.958 1.942 1.916 3.74 2.875 5.426a85.778 85.778 0 003.293 5.324l-36.172 11.25a70.537 70.537 0 01-5.597-11.332l16.24-11.659 14.549-10.433a72.606 72.606 0 002.232 5.835z" fill="url(#paint11_linear)"/><path style="mix-blend-mode:color-burn" opacity=".3" d="M44.859 137.66l-33.011 16.441a58.933 58.933 0 002.926 5.303l36.202-11.24c-1.02-1.574-2.172-3.362-3.293-5.324a113.998 113.998 0 01-2.824-5.18z" fill="url(#paint12_linear)"/><path d="M53.758 132.949c5.995 12.119 7.198 22.031 5.271 22.991-1.621.808-6.352-4.271-11.378-13.099a106.899 106.899 0 01-2.875-5.426 108.44 108.44 0 01-2.579-5.59c-3.966-9.349-5.097-16.195-3.517-17.003 1.916-.96 9.073 6.009 15.078 18.127z" fill="url(#paint13_linear)"/><path d="M58.694 145.763c1.53 5.691 1.509 9.595.337 10.218-1.173.623-4.394-2.34-8.054-7.817l7.717-2.401z" fill="url(#paint14_linear)"/><path d="M39.57 114.373c1.927-.961 9.084 6.008 15.079 18.127 5.994 12.119 7.207 22.04 5.28 23.001a.965.965 0 01-.346.082c1.641-2.126 0-11.874-5.097-22.184-8.503-17.371-14.916-19.026-14.916-19.026z" fill="#A62A00"/><path style="mix-blend-mode:multiply" d="M38.681 114.822a1.149 1.149 0 00-.54.746c3.058 2.943 7.136 8.389 10.766 15.746 5.097 10.219 6.728 18.935 5.943 21.939 1.907 2.105 3.405 3.065 4.18 2.687 1.927-.96.724-10.872-5.27-22.991-5.995-12.118-13.162-19.087-15.079-18.127z" fill="url(#paint15_linear)"/><path d="M129.503 57.222c2.589 0 3.955-1.635 3.955-3.679 0-1.716-1.162-3.126-2.61-3.351 1.285-.266 2.345-1.41 2.345-3.127 0-1.819-1.325-3.474-3.915-3.474h-7.156v13.63h7.381zm-.857-8.175h-3.629v-2.963h3.629c.979 0 1.591.634 1.591 1.492s-.612 1.471-1.591 1.471zm.102 5.661h-3.731v-3.167h3.731c1.142 0 1.754.735 1.754 1.594 0 .98-.653 1.573-1.754 1.573zm15.335 2.514v-6.376c0-2.84-2.059-3.74-4.302-3.74-1.55 0-3.099.49-4.302 1.553l.978 1.737c.836-.776 1.815-1.165 2.875-1.165 1.305 0 2.162.654 2.162 1.656v1.328c-.653-.777-1.815-1.206-3.12-1.206-1.57 0-3.425.879-3.425 3.188 0 2.207 1.855 3.27 3.425 3.27 1.285 0 2.447-.47 3.12-1.267v1.022h2.589zm-4.669-1.512c-1.02 0-1.856-.532-1.856-1.451 0-.96.836-1.492 1.856-1.492.836 0 1.652.286 2.08.858v1.226c-.428.572-1.244.859-2.08.859zm18.88 1.512v-9.87h-3.425l-2.386 5.885-2.426-5.886h-3.405v9.87h2.589v-6.416l2.651 6.417h1.183l2.63-6.417v6.417h2.589zM92.827 77.658v-9.87H83.57v9.87h2.59v-7.602h4.078v7.602h2.59zm7.138.246c3.263 0 5.22-2.371 5.22-5.191 0-2.8-1.957-5.17-5.22-5.17-3.242 0-5.199 2.37-5.199 5.17 0 2.82 1.957 5.19 5.2 5.19zm0-2.31c-1.61 0-2.508-1.328-2.508-2.881 0-1.533.898-2.861 2.508-2.861 1.611 0 2.529 1.328 2.529 2.86 0 1.554-.918 2.882-2.529 2.882zm9.731 2.064v-3.944h4.078v3.944h2.589v-9.87h-2.589v3.658h-4.078v-3.658h-2.59v9.87h2.59zm14.866.246c2.528 0 4.363-1.901 4.363-5.191s-1.835-5.17-4.363-5.17c-1.203 0-2.284.53-3.038 1.491v-1.246h-2.59v13.63h2.59v-5.027c.795 1.022 1.876 1.513 3.038 1.513zm-.816-2.31c-.836 0-1.794-.51-2.222-1.124v-3.494c.428-.634 1.386-1.124 2.222-1.124 1.489 0 2.488 1.164 2.488 2.86 0 1.717-.999 2.882-2.488 2.882zm15.578 2.064v-6.376c0-2.84-2.059-3.74-4.302-3.74-1.55 0-3.099.49-4.302 1.553l.978 1.738c.836-.777 1.815-1.165 2.875-1.165 1.305 0 2.162.654 2.162 1.655v1.329c-.653-.777-1.815-1.206-3.12-1.206-1.57 0-3.425.879-3.425 3.188 0 2.207 1.855 3.27 3.425 3.27 1.285 0 2.447-.47 3.12-1.267v1.021h2.589zm-4.669-1.512c-1.02 0-1.856-.531-1.856-1.45 0-.961.836-1.493 1.856-1.493.836 0 1.652.286 2.08.859v1.226c-.428.572-1.244.858-2.08.858zm13.661 1.512c1.977 0 3.038-1.185 3.038-2.677 0-1.185-.796-2.166-1.876-2.411.917-.266 1.672-1.063 1.672-2.248 0-1.329-1.02-2.534-3.018-2.534h-6.239v9.87h6.423zm-.632-2.125h-3.202v-1.84h3.202c.652 0 1.019.43 1.019.92 0 .573-.387.92-1.019.92zm-.082-3.965h-3.12v-1.655h3.12c.571 0 .918.347.918.838 0 .45-.347.817-.918.817zm8.726 6.09l4.18-6.192v6.192h2.589v-9.87h-2.61l-4.057 5.967v-5.967h-2.59v9.87h2.488zm8.422.246c2.508 0 3.732-1.615 4.139-5.028l.327-2.82h3.119v7.602h2.59v-9.87h-7.973l-.632 4.782c-.306 2.39-.775 3.208-1.57 3.208v2.126zm17.333 0c2.019 0 3.242-.88 3.895-1.799l-1.693-1.573a2.483 2.483 0 01-2.079 1.062c-1.57 0-2.671-1.165-2.671-2.881 0-1.717 1.101-2.861 2.671-2.861.897 0 1.61.367 2.079 1.062l1.693-1.594c-.653-.899-1.876-1.778-3.895-1.778-3.038 0-5.22 2.146-5.22 5.17 0 3.046 2.182 5.192 5.22 5.192zm8.198-.246l1.937-3.392h2.018v3.392h2.59v-9.87h-5.975c-2.181 0-3.405 1.491-3.405 3.228 0 1.758 1.061 2.78 2.182 3.066l-2.284 3.576h2.937zm.978-5.558c-.734 0-1.182-.45-1.182-1.084 0-.613.469-1.042 1.182-1.042h2.977V72.1h-2.977zm-78.39 25.995v-9.871h-9.257v9.87h2.589v-7.601h4.078v7.602h2.59zm8.198.245c2.529 0 4.364-1.9 4.364-5.19 0-3.291-1.835-5.171-4.364-5.171-1.203 0-2.283.531-3.038 1.492v-1.247h-2.589v13.631h2.589v-5.027c.795 1.022 1.876 1.512 3.038 1.512zm-.815-2.31c-.836 0-1.795-.51-2.223-1.123v-3.495c.428-.633 1.387-1.124 2.223-1.124 1.488 0 2.487 1.165 2.487 2.861 0 1.717-.999 2.882-2.487 2.882zm11.642 2.31c3.263 0 5.22-2.37 5.22-5.19 0-2.8-1.957-5.171-5.22-5.171-3.242 0-5.199 2.37-5.199 5.17 0 2.82 1.957 5.191 5.199 5.191zm0-2.31c-1.61 0-2.508-1.328-2.508-2.88 0-1.534.898-2.862 2.508-2.862 1.611 0 2.529 1.329 2.529 2.861 0 1.553-.918 2.882-2.529 2.882zm11.77 2.31c1.529 0 3.079-.47 4.058-1.37l-1.142-1.675c-.632.613-1.795.981-2.631.981-1.672 0-2.671-1.042-2.834-2.289h7.32v-.572c0-3.23-1.998-5.436-4.934-5.436-2.998 0-5.098 2.31-5.098 5.17 0 3.168 2.264 5.191 5.261 5.191zm2.263-6.11h-4.853c.123-.981.816-2.187 2.427-2.187 1.713 0 2.365 1.246 2.426 2.187zm14.003 5.865l-4.017-5.395 3.894-4.476h-3.18l-3.732 4.394v-4.394h-2.589v9.87h2.589v-2.533l1.183-1.267 2.61 3.8h3.242zm5.712 0v-7.602h2.753v-2.269h-8.116v2.269h2.753v7.602h2.61zm6.721-4.169l2.223-.654a1.235 1.235 0 01-.367-.859c0-1.716 3.405-1.941 3.405-4.925 0-1.9-1.611-3.229-4.241-3.229-1.754 0-3.385.716-4.465 1.983l1.651 1.86c.632-.757 1.489-1.268 2.508-1.268 1.122 0 1.59.532 1.59 1.165 0 1.41-2.976 1.697-2.976 4.128 0 .716.244 1.329.672 1.799zm.979 4.394c.897 0 1.652-.756 1.652-1.656 0-.899-.755-1.655-1.652-1.655-.897 0-1.651.756-1.651 1.655 0 .9.754 1.656 1.651 1.656z" fill="#fff"/><g filter="url(#filter0_d)"><rect x="80.652" y="114.444" width="116" height="29.633" rx="8" fill="url(#paint16_linear)"/><path d="M104.782 133.928c2.226 0 3.836-1.134 3.836-2.744 0-1.4-1.232-2.142-2.17-2.24 1.022-.182 2.03-.952 2.03-2.128 0-1.554-1.512-2.534-3.696-2.534-1.638 0-2.968.63-3.724 1.484l.994 1.246c.658-.63 1.624-.966 2.534-.966 1.064 0 1.904.364 1.904 1.106 0 .686-.798.994-1.904.994h-1.89v1.75h1.89c1.4 0 2.058.336 2.058 1.078 0 .7-.714 1.19-1.946 1.19-.91 0-2.086-.392-2.73-1.064l-1.036 1.33c.686.84 2.128 1.498 3.85 1.498zm14.747-.168l-3.598-9.338h-2.492l-3.612 9.338h2.268l.588-1.582h4.004l.574 1.582h2.268zm-3.388-3.332h-2.912l1.456-4.018 1.456 4.018zm12.945 3.332l-3.962-4.956 3.71-4.382h-2.45l-3.304 4.172v-4.172h-1.988v9.338h1.988v-2.87l.728-.868 2.828 3.738h2.45zm10.314 0l-3.598-9.338h-2.492l-3.612 9.338h2.268l.588-1.582h4.004l.574 1.582h2.268zm-3.388-3.332H133.1l1.456-4.018 1.456 4.018zm8.061 3.5c2.226 0 3.836-1.134 3.836-2.744 0-1.4-1.232-2.142-2.17-2.24 1.022-.182 2.03-.952 2.03-2.128 0-1.554-1.512-2.534-3.696-2.534-1.638 0-2.968.63-3.724 1.484l.994 1.246c.658-.63 1.624-.966 2.534-.966 1.064 0 1.904.364 1.904 1.106 0 .686-.798.994-1.904.994h-1.89v1.75h1.89c1.4 0 2.058.336 2.058 1.078 0 .7-.714 1.19-1.946 1.19-.91 0-2.086-.392-2.73-1.064l-1.036 1.33c.686.84 2.128 1.498 3.85 1.498zm14.747-.168l-3.598-9.338h-2.492l-3.613 9.338h2.269l.588-1.582h4.004l.574 1.582h2.268zm-3.388-3.332h-2.912l1.456-4.018 1.456 4.018zm8.205 3.332v-7.588h2.716v-1.75h-7.448v1.75h2.73v7.588h2.002zm4.691-9.338v9.338h4.368c2.03 0 3.136-1.372 3.136-3.01 0-1.624-1.12-3.01-3.136-3.01h-2.38v-3.318h-1.988zm4.102 5.068c.784 0 1.372.49 1.372 1.26 0 .784-.588 1.26-1.372 1.26h-2.114v-2.52h2.114z" fill="#F5F9FF"/><rect x="80.652" y="114.444" width="116" height="29.633" rx="8" stroke="#fff"/></g><path d="M37.887 71.977c-.097-3.495.16-6.99.765-10.433a71.237 71.237 0 012.498-10.218 73.154 73.154 0 013.925-9.81 82.838 82.838 0 015.3-9.196 77.022 77.022 0 016.597-8.287l1.835-1.91c.632-.624 1.285-1.217 1.917-1.83 1.244-1.246 2.65-2.32 3.996-3.454A66.725 66.725 0 0182.918 6.621a121.631 121.631 0 00-16.312 12.497 92.088 92.088 0 00-13.151 15.327 96.69 96.69 0 00-9.614 17.882c-1.285 3.147-2.467 6.356-3.446 9.636a93.479 93.479 0 00-2.508 10.014zm161.691-61.483a65.917 65.917 0 0115.914 10.576 78.436 78.436 0 0112.816 14.366 73.799 73.799 0 014.944 8.338c.367.716.683 1.462 1.02 2.187.336.726.683 1.461 1.019 2.218l.918 2.237.774 2.3a57.455 57.455 0 013.059 18.913 106.332 106.332 0 00-5.781-17.871 96.107 96.107 0 00-9.002-16.186 116.997 116.997 0 00-11.744-14.387 140.803 140.803 0 00-13.937-12.691zm28.363 143.586a57.64 57.64 0 01-4.924 8.696 78.249 78.249 0 01-6.117 7.929 80.567 80.567 0 01-7.137 7.153 89.887 89.887 0 01-7.942 6.233 87.286 87.286 0 01-8.686 5.109c-.754.378-1.529.726-2.294 1.083a46.05 46.05 0 01-2.304 1.022c-.785.317-1.549.654-2.334.95l-2.396.818a60.741 60.741 0 01-19.666 3.29 111.752 111.752 0 0018.656-5.998 98.062 98.062 0 0016.934-9.38c2.692-1.799 5.251-3.781 7.759-5.835s4.914-4.24 7.289-6.468a141.658 141.658 0 0013.162-14.602z" fill="#1A1A1A"/></g><defs><linearGradient id="paint0_linear" x1="16.506" y1="160.18" x2="28.104" y2="183.5" gradientUnits="userSpaceOnUse"><stop stop-color="#921C00"/><stop offset=".52" stop-color="#FF6500"/><stop offset="1" stop-color="#921C00"/></linearGradient><linearGradient id="paint1_linear" x1="-11010.7" y1="3790.73" x2="-10861" y2="4228.9" gradientUnits="userSpaceOnUse"><stop stop-color="#921C00"/><stop offset=".52" stop-color="#FF6500"/><stop offset="1" stop-color="#921C00"/></linearGradient><linearGradient id="paint2_linear" x1="-14253.9" y1="3684.4" x2="-14253.9" y2="4115.65" gradientUnits="userSpaceOnUse"><stop stop-color="#921C00"/><stop offset=".52" stop-color="#FF6500"/><stop offset="1" stop-color="#921C00"/></linearGradient><linearGradient id="paint3_linear" x1="1.413" y1="152.013" x2="6.907" y2="163.06" gradientUnits="userSpaceOnUse"><stop stop-color="#F40"/><stop offset=".52" stop-color="#FF9400"/><stop offset="1" stop-color="#F40"/></linearGradient><linearGradient id="paint4_linear" x1="2.208" y1="153.624" x2="6.115" y2="161.48" gradientUnits="userSpaceOnUse"><stop stop-color="#CFCFCF"/><stop offset=".85"/></linearGradient><linearGradient id="paint5_linear" x1="3.58" y1="156.388" x2="6.582" y2="162.424" gradientUnits="userSpaceOnUse"><stop stop-color="#fff"/><stop offset=".11" stop-color="#D7D7D7"/><stop offset=".29" stop-color="#979797"/><stop offset=".47" stop-color="#616161"/><stop offset=".64" stop-color="#373737"/><stop offset=".78" stop-color="#191919"/><stop offset=".91" stop-color="#070707"/><stop offset="1"/></linearGradient><linearGradient id="paint6_linear" x1="-9604.04" y1="3460.4" x2="-9604.04" y2="3741.2" gradientUnits="userSpaceOnUse"><stop stop-color="#921C00"/><stop offset=".52" stop-color="#FF6500"/><stop offset="1" stop-color="#921C00"/></linearGradient><linearGradient id="paint7_linear" x1="-7966.44" y1="2455.1" x2="-7966.44" y2="2623.91" gradientUnits="userSpaceOnUse"><stop stop-color="#CFCFCF"/><stop offset=".85"/></linearGradient><linearGradient id="paint8_linear" x1="-6828.3" y1="1568.13" x2="-6828.3" y2="1651.03" gradientUnits="userSpaceOnUse"><stop stop-color="#fff"/><stop offset=".11" stop-color="#D7D7D7"/><stop offset=".29" stop-color="#979797"/><stop offset=".47" stop-color="#616161"/><stop offset=".64" stop-color="#373737"/><stop offset=".78" stop-color="#191919"/><stop offset=".91" stop-color="#070707"/><stop offset="1"/></linearGradient><linearGradient id="paint9_linear" x1="-6940.48" y1="3322.97" x2="-6940.48" y2="3591.96" gradientUnits="userSpaceOnUse"><stop stop-color="#921C00"/><stop offset=".52" stop-color="#FF6500"/><stop offset="1" stop-color="#921C00"/></linearGradient><linearGradient id="paint10_linear" x1="-35715.6" y1="8593.79" x2="-35715.6" y2="10919" gradientUnits="userSpaceOnUse"><stop stop-color="#F40"/><stop offset=".52" stop-color="#FF9400"/><stop offset="1" stop-color="#F40"/></linearGradient><linearGradient id="paint11_linear" x1="-28564.9" y1="6425.36" x2="-28564.9" y2="7237.56" gradientUnits="userSpaceOnUse"><stop stop-color="#CFCFCF"/><stop offset=".85"/></linearGradient><linearGradient id="paint12_linear" x1="-26755.8" y1="4466.31" x2="-26755.8" y2="4797.48" gradientUnits="userSpaceOnUse"><stop stop-color="#fff"/><stop offset=".11" stop-color="#D7D7D7"/><stop offset=".29" stop-color="#979797"/><stop offset=".47" stop-color="#616161"/><stop offset=".64" stop-color="#373737"/><stop offset=".78" stop-color="#191919"/><stop offset=".91" stop-color="#070707"/><stop offset="1"/></linearGradient><linearGradient id="paint13_linear" x1="-14606.8" y1="8404.07" x2="-13552.3" y2="8404.07" gradientUnits="userSpaceOnUse"><stop stop-color="#921C00"/><stop offset=".52" stop-color="#FF6500"/><stop offset="1" stop-color="#921C00"/></linearGradient><linearGradient id="paint14_linear" x1="-5894.95" y1="2391.71" x2="-5552.3" y2="2391.71" gradientUnits="userSpaceOnUse"><stop stop-color="#921C00"/><stop offset=".52" stop-color="#FF6500"/><stop offset="1" stop-color="#921C00"/></linearGradient><linearGradient id="paint15_linear" x1="42.224" y1="118.678" x2="63.559" y2="161.578" gradientUnits="userSpaceOnUse"><stop offset=".01" stop-color="#fff"/><stop offset="1" stop-color="#757575"/></linearGradient><linearGradient id="paint16_linear" x1="193.077" y1="129.26" x2="84.799" y2="120.16" gradientUnits="userSpaceOnUse"><stop stop-color="#A62E41"/><stop offset="1" stop-color="#E13152"/></linearGradient><clipPath id="clip0"><path fill="#fff" d="M0 0h240v196.364H0z"/></clipPath><filter id="filter0_d" x="72.152" y="105.944" width="149" height="62.633" filterUnits="userSpaceOnUse" color-interpolation-filters="sRGB"><feFlood flood-opacity="0" result="BackgroundImageFix"/><feColorMatrix in="SourceAlpha" values="0 0 0 0 0 0 0 0 0 0 0 0 0 0 0 0 0 0 127 0"/><feOffset dx="8" dy="8"/><feGaussianBlur stdDeviation="8"/><feColorMatrix values="0 0 0 0 0 0 0 0 0 0 0 0 0 0 0 0 0 0 0.25 0"/><feBlend in2="BackgroundImageFix" result="effect1_dropShadow"/><feBlend in="SourceGraphic" in2="effect1_dropShadow" result="shape"/></filter></defs></svg>