<svg width="162" height="62" fill="none" xmlns="http://www.w3.org/2000/svg"><path d="M71.822 37.066c4.572 0 7.184-2.519 8.677-5.1l-3.794-1.835c-.871 1.71-2.737 3.017-4.883 3.017-3.764 0-6.5-2.893-6.5-6.812 0-3.918 2.736-6.81 6.5-6.81 2.146 0 4.012 1.337 4.882 3.016l3.795-1.866c-1.462-2.581-4.105-5.07-8.677-5.07-6.22 0-11.041 4.355-11.041 10.73 0 6.376 4.82 10.73 11.04 10.73z" fill="url(#paint0_linear)"/><path d="M105.614 36.693V15.95h-6.22l-5.039 12.533-5.038-12.533h-6.19v20.744h4.417V22.17l5.847 14.524h1.928l5.847-14.524v14.524h4.448z" fill="url(#paint1_linear)"/><path d="M114.877 31.872v-5.318c.653-.995 2.115-1.742 3.39-1.742 2.301 0 3.825 1.773 3.825 4.386 0 2.612-1.524 4.354-3.825 4.354-1.275 0-2.737-.715-3.39-1.68zm0 4.821v-1.928c1.181 1.493 2.83 2.301 4.634 2.301 3.794 0 6.655-2.861 6.655-7.868 0-4.914-2.83-7.9-6.655-7.9-1.773 0-3.453.778-4.634 2.302v-7.652h-3.95v20.745h3.95zm21.24.373c4.976 0 7.962-3.607 7.962-7.9 0-4.26-2.986-7.868-7.962-7.868-4.945 0-7.931 3.608-7.931 7.869 0 4.292 2.986 7.9 7.931 7.9zm0-3.514c-2.457 0-3.826-2.022-3.826-4.385 0-2.333 1.369-4.355 3.826-4.355s3.856 2.022 3.856 4.355c0 2.363-1.399 4.385-3.856 4.385zm23.545 3.141l-5.381-7.713 5.039-7.309h-4.417l-3.079 4.634-3.11-4.634h-4.416l5.007 7.309-5.318 7.713h4.385l3.452-5.07 3.421 5.07h4.417z" fill="#0A3D76"/><path fill-rule="evenodd" clip-rule="evenodd" d="M28.317 10.937a1.307 1.307 0 011.258 0l12.006 6.966c.626.343.852 1.124.506 1.744a1.303 1.303 0 01-1.762.5l-11.377-6.621-11.36 6.258a1.303 1.303 0 01-1.762-.497c-.348-.62-.123-1.4.502-1.745l11.989-6.605zm.633 28.893a1.29 1.29 0 011.291 1.287l-.017 5.067 10.078-5.551a1.303 1.303 0 011.763.497c.348.62.123 1.4-.503 1.745L30.224 49.2c-.956.452-1.604.452-2.574 0l-11.34-6.675a1.276 1.276 0 01-.478-1.752 1.303 1.303 0 011.769-.473l10.03 5.858.018-5.05a1.29 1.29 0 011.3-1.278z" fill="url(#paint2_linear)"/><path fill-rule="evenodd" clip-rule="evenodd" d="M44.82 20.494c.39.241.63.679.63 1.151v17.39c0 .74-.575 1.338-1.284 1.338-.709 0-1.284-.599-1.284-1.338v-15.13L30.368 31.34v4.695c0 .738-.574 1.337-1.284 1.337-.709 0-1.284-.599-1.284-1.337v-4.69l-13.457-7.582v15.48c0 .74-.575 1.338-1.284 1.338-.709 0-1.284-.599-1.284-1.338V21.52c0-.471.238-.908.627-1.15a1.24 1.24 0 011.268-.027l15.41 8.683 14.47-8.553a1.24 1.24 0 011.27.022z" fill="url(#paint3_linear)"/><path fill-rule="evenodd" clip-rule="evenodd" d="M26.16 4.172c1.686-1.028 2.92-1.687 4.601-.648l18.595 10.888c1.221.754 1.74 2.014.978 3.22-.763 1.207-2.364.755-3.585 0L29.27 7.284 8.537 18.842v23.431l20.734 11.81 17.5-10.18c1.25-.706 3.277-1.236 3.992 0 .714 1.235-.018 2.497-1.268 3.203L32.51 57.176c-1.556.879-3.888 1.296-6.025.006L6.608 45.91c-1.699-.896-2.607-1.445-2.607-3.348v-22.74c-.034-1.855.551-3.57 2.153-4.427L26.16 4.172z" fill="url(#paint4_linear)"/><path d="M65.109 48.914c1.701 0 2.674-.919 3.23-1.86l-1.413-.669a2.075 2.075 0 01-1.817 1.1c-1.4 0-2.42-1.054-2.42-2.483 0-1.428 1.02-2.483 2.42-2.483.799 0 1.493.488 1.817 1.1l1.412-.68c-.544-.941-1.528-1.848-3.23-1.848-2.314 0-4.108 1.587-4.108 3.911 0 2.325 1.794 3.912 4.109 3.912zm5.643-.136V45.16c.243-.352.89-.624 1.377-.624.162 0 .3.012.405.034v-1.405c-.694 0-1.389.396-1.782.884v-.748h-1.47v5.476h1.47zm5.328.136c.868 0 1.748-.26 2.303-.76l-.648-.93c-.359.34-1.019.545-1.493.545-.95 0-1.516-.578-1.609-1.27h4.155v-.318c0-1.791-1.134-3.015-2.8-3.015-1.702 0-2.894 1.28-2.894 2.868 0 1.757 1.284 2.88 2.986 2.88zm1.285-3.39H74.61c.07-.544.463-1.213 1.377-1.213.973 0 1.343.691 1.378 1.213zm7.312 3.254V45.24c0-1.576-1.17-2.075-2.443-2.075-.88 0-1.759.273-2.442.862l.556.964a2.379 2.379 0 011.632-.646c.74 0 1.227.363 1.227.918V46c-.37-.43-1.03-.669-1.771-.669-.892 0-1.945.488-1.945 1.769 0 1.224 1.053 1.814 1.945 1.814.729 0 1.389-.26 1.77-.703v.567h1.47zm-2.651-.84c-.579 0-1.053-.294-1.053-.804 0-.533.474-.828 1.053-.828.475 0 .938.159 1.18.476v.68c-.243.318-.706.477-1.18.477zm5.984.976c.613 0 1.006-.159 1.226-.352l-.312-1.088c-.081.08-.29.159-.51.159-.323 0-.509-.261-.509-.601V44.56h1.135v-1.258h-1.135v-1.497h-1.481v1.497h-.926v1.258h.926v2.857c0 .975.555 1.497 1.585 1.497zm2.765-6.202a.87.87 0 00.88-.862c0-.476-.394-.85-.88-.85-.475 0-.88.374-.88.85 0 .477.405.862.88.862zm.74 6.066v-5.476h-1.47v5.476h1.47zm4.49 0l2.246-5.476h-1.586l-1.458 3.81-1.459-3.81h-1.574l2.246 5.476h1.585zm5.529.136c.868 0 1.748-.26 2.304-.76l-.649-.93c-.358.34-1.018.545-1.493.545-.949 0-1.516-.578-1.608-1.27h4.155v-.318c0-1.791-1.135-3.015-2.801-3.015-1.702 0-2.894 1.28-2.894 2.868 0 1.757 1.285 2.88 2.986 2.88zm1.285-3.39h-2.755c.07-.544.463-1.213 1.378-1.213.972 0 1.342.691 1.377 1.213zm13.85 3.254v-7.563h-2.315l-1.875 4.57-1.875-4.57h-2.303v7.563h1.643v-5.295l2.176 5.295h.718l2.176-5.295v5.295h1.655zm6.325 0V45.24c0-1.576-1.169-2.075-2.442-2.075-.88 0-1.76.273-2.443.862l.556.964a2.38 2.38 0 011.632-.646c.741 0 1.227.363 1.227.918V46c-.371-.43-1.03-.669-1.771-.669-.891 0-1.945.488-1.945 1.769 0 1.224 1.054 1.814 1.945 1.814.729 0 1.389-.26 1.771-.703v.567h1.47zm-2.651-.84c-.578 0-1.053-.294-1.053-.804 0-.533.475-.828 1.053-.828.475 0 .938.159 1.181.476v.68c-.243.318-.706.477-1.181.477zm5.579.84V45.16c.243-.352.891-.624 1.377-.624.162 0 .301.012.405.034v-1.405c-.694 0-1.389.396-1.782.884v-.748h-1.47v5.476h1.47zm8.164 0l-2.28-2.993 2.21-2.483h-1.805l-2.118 2.437v-4.524h-1.47v7.563h1.47v-1.406l.671-.703 1.481 2.109h1.841zm3.29.136c.868 0 1.748-.26 2.304-.76l-.649-.93c-.358.34-1.018.545-1.493.545-.949 0-1.516-.578-1.609-1.27h4.156v-.318c0-1.791-1.135-3.015-2.801-3.015-1.702 0-2.894 1.28-2.894 2.868 0 1.757 1.285 2.88 2.986 2.88zm1.285-3.39h-2.755c.07-.544.463-1.213 1.378-1.213.972 0 1.342.691 1.377 1.213zm4.36 3.39c.614 0 1.007-.159 1.227-.352l-.312-1.088c-.081.08-.29.159-.509.159-.325 0-.51-.261-.51-.601V44.56h1.135v-1.258h-1.135v-1.497h-1.481v1.497h-.926v1.258h.926v2.857c0 .975.555 1.497 1.585 1.497zm2.765-6.202a.87.87 0 00.88-.862c0-.476-.393-.85-.88-.85-.474 0-.879.374-.879.85 0 .477.405.862.879.862zm.741 6.066v-5.476h-1.47v5.476h1.47zm6.701 0v-3.866c0-1.066-.59-1.746-1.817-1.746-.915 0-1.598.43-1.956.85v-.714h-1.47v5.476h1.47v-3.685a1.6 1.6 0 011.273-.646c.625 0 1.03.26 1.03 1.02v3.31h1.47zM156.979 51c1.377 0 3.021-.51 3.021-2.596v-5.102h-1.482v.703c-.451-.556-1.053-.84-1.724-.84-1.412 0-2.465.998-2.465 2.79 0 1.825 1.064 2.789 2.465 2.789.683 0 1.285-.318 1.724-.862v.556c0 1.077-.833 1.383-1.539 1.383s-1.296-.193-1.748-.68l-.659 1.043c.706.6 1.446.816 2.407.816zm.278-3.537c-.833 0-1.412-.567-1.412-1.508 0-.941.579-1.508 1.412-1.508.486 0 1.018.26 1.261.623v1.769c-.243.352-.775.624-1.261.624z" fill="#B01E34"/><defs><linearGradient id="paint0_linear" x1="60.781" y1="25.114" x2="105.603" y2="25.856" gradientUnits="userSpaceOnUse"><stop stop-color="#B6142C"/><stop offset="1" stop-color="#A62E41"/></linearGradient><linearGradient id="paint1_linear" x1="60.781" y1="25.114" x2="105.603" y2="25.856" gradientUnits="userSpaceOnUse"><stop stop-color="#B6142C"/><stop offset="1" stop-color="#A62E41"/></linearGradient><linearGradient id="paint2_linear" x1="15.663" y1="29.495" x2="42.877" y2="29.702" gradientUnits="userSpaceOnUse"><stop stop-color="#1758A0"/><stop offset="1" stop-color="#0A3D76"/></linearGradient><linearGradient id="paint3_linear" x1="11.775" y1="29.219" x2="45.446" y2="29.66" gradientUnits="userSpaceOnUse"><stop stop-color="#CD1732"/><stop offset=".5" stop-color="#B6142C"/><stop offset="1" stop-color="#8B1022"/></linearGradient><linearGradient id="paint4_linear" x1="4" y1="27.367" x2="51.042" y2="27.686" gradientUnits="userSpaceOnUse"><stop stop-color="#B6142C"/><stop offset="1" stop-color="#A62E41"/></linearGradient></defs></svg>