<svg width="162" height="62" fill="none" xmlns="http://www.w3.org/2000/svg"><g clip-path="url(#clip0)"><path d="M70.385 36.58c4.69.108 6.693-2.536 12.023-2.342 5.33.195 7.805.709 11.519.709 3.713 0 6.675-1.504 13.026-.722s11.035 4.688 15.517 4.563c4.482-.126 5.867-2.096 10.497-1.664 4.63.432 7.271 5.388 7.148 9.337-.122 3.949-3.929 6.48-7.429 6.429-3.501-.052-2.263 8.92-4.901 8.79-2.638-.129.7-9.672-3.175-9.875-3.876-.203-1.722 8.07-4.522 8.122-2.8.051.058-7.154-4.308-7.521-4.367-.367-4.089 3.456-6.456 3.18-2.367-.277-2.4-6.1-9.357-6.533-8.346-.557-4.907 10.23-8.84 9.972-3.494-.23 1.443-14.422-5.973-14.564-9.96-.195-4.2 17.236-9.497 17.305-5.86.074-.051-12.873-4.572-13.067-4.522-.194-2.245 9.961-5.525 9.585-3.28-.376-.487-8.488-3.771-8.872C58.505 49.027 50 51.088 50 41.678s15.683-5.219 20.385-5.098z" fill="#fff"/><path d="M50.027 41.748c0 9.41 8.506 7.344 11.79 7.733 3.283.389.48 8.475 3.756 8.86 3.276.384 1.003-9.776 5.525-9.581 4.52.194-1.289 13.14 4.572 13.063 5.297-.065-.782-14.533 8.71-14.35 7.426.142 3.266 11.379 6.763 11.608 3.93.26.494-10.529 8.837-9.976 6.961.463 6.986 6.304 9.357 6.559 2.371.254 2.104-3.547 6.456-3.18 4.351.367 1.512 7.59 4.308 7.525 2.797-.065.646-8.337 4.522-8.121 3.875.215.541 9.745 3.179 9.875 2.638.13 1.396-8.856 4.896-8.791 3.501.065 7.322-2.514 7.43-6.446a9.024 9.024 0 00-.507-3.166 7.858 7.858 0 00-1.546-2.64c-.462 1.727-1.84 3.598-5.546 4.065-7.26.92-10.256-.878-20.778-1.673-10.522-.795-10.36-2.181-20.284-4.86-9.923-2.678-10.194 1.69-15.126 1.832-4.933.143-4.027 1.625-11.999 1.352-5.448-.172-8.66-3.119-10.125-4.964-2.476.636-4.19 2.156-4.19 5.276z" fill="#DEF0FF"/><g opacity=".7" fill="#AED7FF"><path opacity=".7" d="M61.789 49.485c3.284.39.487 8.475 3.77 8.86 3.285.384 1-9.776 5.526-9.581 4.525.194-1.289 13.136 4.56 13.059 5.298-.065-.461-17.496 9.498-17.306 7.427.142 2.48 14.335 5.972 14.564 3.934.259.495-10.529 8.841-9.976 6.958.462 6.986 6.303 9.357 6.558 2.371.255 2.104-3.547 6.456-3.18 4.352.368 1.508 6.59 4.308 6.526 2.801-.065.646-7.338 4.522-7.122 3.875.216.538 8.746 3.175 8.876 2.638.13 1.4-7.856 4.901-7.791 3.5.065 7.321-2.515 7.43-6.446a8.676 8.676 0 00-.664-3.547 23.04 23.04 0 01-2.559 4.32c-2.165 2.666-6.196 1.802-9.923 1.802-3.728 0-2.916 2.864-6.077 2.773-3.161-.09-3.367-1.261-9.202-1.55-5.835-.29-9.501-4.39-14.434-4.606-4.932-.216-6.495-3.962-11.186-4.394-4.691-.432-5.521 2.977-7.506 3.84-1.984.865-1.173-1.762-4.15-2.194-2.977-.432-4.33 5.184-7.397 4.968-3.067-.216-2.165-2.376-9.472-3.564-2.716-.42-5.287-1.703-7.448-3.715a7.124 7.124 0 00-.087 1.11c0 9.388 8.505 7.327 11.789 7.716z"/><path opacity=".7" d="M61.789 49.485c3.284.39.487 8.475 3.77 8.86 3.285.384 1-9.776 5.526-9.581 4.525.194-1.289 10.136 4.56 13.059 5.298-.065-.781-14.533 8.733-14.35 7.427.142 3.244 11.379 6.737 11.608 3.934.259.495-10.529 8.841-9.976 6.958.462 6.986 6.303 9.357 6.558 2.371.255 2.104-3.547 6.456-3.18 4.352.368 1.508 7.59 4.308 7.526 2.801-.065.646-8.338 4.522-8.122 3.875.216.538 9.746 3.175 9.876 2.638.13 1.4-8.856 4.901-8.791 3.5.065 7.321-2.515 7.43-6.446a8.676 8.676 0 00-.664-3.547 23.04 23.04 0 01-2.559 4.32c-2.165 2.666-6.196 1.802-9.923 1.802-3.728 0-2.916 2.864-6.077 2.773-3.161-.09-3.367-1.261-9.202-1.55-5.835-.29-9.501-4.39-14.434-4.606-4.932-.216-6.495-3.962-11.186-4.394-4.691-.432-5.521 2.977-7.506 3.84-1.984.865-1.173-1.762-4.15-2.194-2.977-.432-4.33 5.184-7.397 4.968-3.067-.216-2.165-2.376-9.472-3.564-2.716-.42-5.287-1.703-7.448-3.715a7.124 7.124 0 00-.087 1.11c0 9.388 8.505 7.327 11.789 7.716z"/></g><path fill-rule="evenodd" clip-rule="evenodd" d="M31.366 18.752a.891.891 0 01.858-.001l8.266 4.763c.426.234.637.931.4 1.353-.236.423-.94.639-1.366.405l-7.706-4.465-7.67 4.411c-.426.235-1.066-.029-1.303-.45-.237-.423-.097-1.037.33-1.271l8.191-4.745zm.452 20.853c.487.002 1.004.367 1.002.85v3.235l6.567-3.784c.426-.235 1.085.142 1.322.564.237.422.056.955-.37 1.19l-7.569 4.361c-.65.308-1.243.308-1.905 0l-7.72-4.461c-.422-.24-.551-.914-.308-1.333.242-.418.939-.612 1.361-.371l6.617 3.834v-3.235c.002-.483.515-.852 1.003-.85z" fill="url(#paint0_linear)"/><path fill-rule="evenodd" clip-rule="evenodd" d="M43.982 25.305c.266.165.37.425.37.747v12.702c0 .503-.383.873-.874.911-.5.04-1.13-.258-1.13-.762V28.076l-9.525 5.489v3.06c0 .503-.519.925-1.002.925s-1.003-.422-1.003-.925V33.54l-9.524-5.464v10.727c0 .503-.47.902-.952.902-.483 0-1.053-.353-1.053-.856V26.27a.92.92 0 01.427-.783c.265-.164.722-.23.993-.078l11.112 6.425 11.31-6.53a.819.819 0 01.851 0z" fill="url(#paint1_linear)"/><path fill-rule="evenodd" clip-rule="evenodd" d="M29.913 14.34c1.15-.7 2.013-1.108 3.158-.4l12.682 7.318c.832.514 1.13 1.472.61 2.294-.52.823-1.662.67-2.494.157l-12.051-6.962-14.036 8.09V40.2l14.036 8.077 12.101-6.974c.852-.48 2.25-.694 2.737.148.486.842.05 1.783-.803 2.264l-11.658 6.711c-1.06.599-2.776 1.186-4.232.307l-13.434-7.77c-1.158-.61-1.755-1.11-1.755-2.406v-15.49c-.023-1.264.313-2.223 1.404-2.806l13.735-7.92z" fill="url(#paint2_linear)"/><path fill-rule="evenodd" clip-rule="evenodd" d="M33.093 8.894C23.428-3.38 6.64-.54 3.858 14.079c-.568 3-.37 8.968-.37 8.968l1.55.787s1.63-3.744 2.872-6.045a22.132 22.132 0 012.259-3.38c.346-.43.571-.677.571-.677.391 2.075 2.437 10.592 4.078 9.323L33.093 8.894z" fill="#B5292A"/><path opacity=".2" fill-rule="evenodd" clip-rule="evenodd" d="M10.74 13.735a26.44 26.44 0 013.46-3.251c.788-.567-2.486 4.251 2.626 11.014l-2.004 1.554c-1.646 1.27-3.7-7.23-4.082-9.317z" fill="#181714"/><path opacity=".2" fill-rule="evenodd" clip-rule="evenodd" d="M11.06 15.198c.17.414.836 1.962 1.515 2.785.796.966 2.426 1.193 2.426 1.193s-.92 1.657-1.923 2.374c-.832-1.73-1.584-4.502-2.018-6.352z" fill="#181714"/><path fill-rule="evenodd" clip-rule="evenodd" d="M11.914 20.456c-1.069 2.008 2.445 6.514 4.71 5.51 5.573-2.466 15.07-8.164 18.996-12.516 2.045-2.266-.833-7.31-3.651-7.684-2.725-.372-18.212 11.212-20.054 14.69z" fill="#fff"/><path opacity=".2" fill-rule="evenodd" clip-rule="evenodd" d="M36.27 10.818c-4.534 4.49-14.842 11.197-19.713 12.696-1.56.48-3.42-1.073-4.63-3.087l-.015.03c-1.069 2.008 2.445 6.514 4.71 5.51 5.572-2.464 15.069-8.162 18.995-12.516.638-.694.801-1.64.653-2.633z" fill="#181714"/><path fill-rule="evenodd" clip-rule="evenodd" d="M5.801 25.861a3.49 3.49 0 112.393-4.224 3.439 3.439 0 01-2.393 4.224z" fill="#fff"/><path opacity=".2" fill-rule="evenodd" clip-rule="evenodd" d="M1.788 21.13a3.551 3.551 0 00-.129 2.2 3.365 3.365 0 006.642-1.02 3.33 3.33 0 01-2.26 2.025 3.435 3.435 0 01-4.145-2.532 3.697 3.697 0 01-.108-.674zm10.89 2.767a5.125 5.125 0 003.45.918c2.116-.204 12.616-6.093 15.075-7.484-4.539 3.417-10.58 6.863-14.588 8.636-1.257.556-2.905-.595-3.937-2.07z" fill="#181714"/><path d="M61.414 35.457c3.941 0 6.194-2.157 7.48-4.368l-3.27-1.571c-.751 1.465-2.36 2.584-4.21 2.584-3.245 0-5.605-2.477-5.605-5.833 0-3.356 2.36-5.833 5.605-5.833 1.85 0 3.459 1.145 4.21 2.583l3.27-1.598c-1.26-2.21-3.539-4.341-7.48-4.341-5.363 0-9.52 3.729-9.52 9.189s4.157 9.188 9.52 9.188z" fill="url(#paint3_linear)"/><path d="M90.548 35.138V17.373h-5.363l-4.344 10.733-4.344-10.733h-5.336v17.765h3.808V22.7l5.041 12.438h1.662L86.715 22.7v12.438h3.834z" fill="url(#paint4_linear)"/><path d="M98.534 31.01v-4.555c.563-.852 1.824-1.491 2.923-1.491 1.984 0 3.298 1.518 3.298 3.755s-1.314 3.729-3.298 3.729c-1.099 0-2.36-.613-2.923-1.439zm0 4.128v-1.652c1.02 1.279 2.44 1.971 3.996 1.971 3.271 0 5.738-2.45 5.738-6.738 0-4.208-2.44-6.765-5.738-6.765-1.529 0-2.977.666-3.996 1.97v-6.551H95.13v17.765h3.405zm18.313.319c4.29 0 6.864-3.09 6.864-6.765 0-3.649-2.574-6.738-6.864-6.738-4.264 0-6.838 3.09-6.838 6.738 0 3.676 2.574 6.765 6.838 6.765zm0-3.01c-2.118 0-3.298-1.73-3.298-3.755 0-1.997 1.18-3.729 3.298-3.729 2.118 0 3.325 1.732 3.325 3.73 0 2.023-1.207 3.755-3.325 3.755zm20.299 2.691l-4.639-6.605 4.344-6.26h-3.807l-2.655 3.969-2.681-3.969H123.9l4.317 6.26-4.585 6.605h3.781l2.976-4.342 2.95 4.342h3.807z" fill="#0A3D76"/><path d="M55.624 46.517c1.467 0 2.306-.786 2.785-1.592l-1.218-.573a1.79 1.79 0 01-1.567.942c-1.207 0-2.085-.903-2.085-2.127 0-1.223.878-2.126 2.085-2.126a1.81 1.81 0 011.567.942l1.218-.583c-.47-.806-1.318-1.582-2.785-1.582-1.995 0-3.542 1.359-3.542 3.35 0 1.99 1.547 3.35 3.542 3.35zm4.866-.117v-3.097c.209-.3.768-.534 1.187-.534.14 0 .26.01.35.03v-1.205c-.6 0-1.198.34-1.538.758v-.641h-1.267v4.69h1.267zm4.593.117c.749 0 1.507-.223 1.986-.65l-.559-.797c-.31.292-.878.466-1.287.466-.818 0-1.307-.495-1.387-1.087h3.582v-.272c0-1.534-.978-2.583-2.415-2.583-1.466 0-2.494 1.098-2.494 2.457 0 1.505 1.107 2.466 2.574 2.466zm1.108-2.903h-2.375c.06-.466.4-1.039 1.188-1.039.838 0 1.157.592 1.187 1.039zm6.304 2.786v-3.029c0-1.35-1.008-1.777-2.106-1.777-.758 0-1.516.233-2.105.738l.479.826c.409-.37.888-.554 1.407-.554.638 0 1.058.31 1.058.787v.63c-.32-.368-.888-.572-1.527-.572-.768 0-1.677.418-1.677 1.515 0 1.048.909 1.553 1.677 1.553.629 0 1.197-.223 1.527-.602v.486h1.267zm-2.285-.718c-.5 0-.908-.252-.908-.69 0-.456.409-.708.908-.708.409 0 .808.136 1.018.408v.582c-.21.272-.61.408-1.018.408zm5.159.835c.528 0 .868-.136 1.057-.3l-.27-.933c-.069.068-.249.136-.438.136-.28 0-.44-.223-.44-.515V42.79h.979v-1.08h-.978v-1.282H74v1.282h-.798v1.078H74v2.447c0 .835.48 1.281 1.368 1.281zm2.383-5.311c.42 0 .759-.33.759-.738s-.34-.728-.759-.728c-.409 0-.758.32-.758.728s.35.738.758.738zm.64 5.195v-4.69h-1.268v4.69h1.267zm3.87-.001l1.936-4.689h-1.367l-1.257 3.262-1.258-3.262H78.96l1.936 4.69h1.367zm4.768.117c.748 0 1.506-.223 1.985-.65l-.559-.797c-.31.292-.878.466-1.287.466-.819 0-1.307-.495-1.387-1.087h3.582v-.272c0-1.534-.978-2.583-2.415-2.583-1.467 0-2.495 1.098-2.495 2.457 0 1.505 1.108 2.466 2.575 2.466zm1.107-2.903h-2.375c.06-.466.399-1.039 1.187-1.039.838 0 1.158.592 1.188 1.039zm11.94 2.786v-6.475h-1.995l-1.617 3.912-1.617-3.913h-1.985v6.477h1.417v-4.535l1.876 4.535h.618l1.876-4.535v4.535h1.427zm5.454 0v-3.029c0-1.35-1.008-1.777-2.106-1.777-.758 0-1.517.233-2.106.738l.479.826c.41-.37.889-.554 1.408-.554.638 0 1.057.31 1.057.787v.63c-.319-.368-.888-.572-1.527-.572-.768 0-1.676.418-1.676 1.515 0 1.048.908 1.553 1.676 1.553.629 0 1.198-.223 1.527-.602v.486h1.268zm-2.286-.718c-.499 0-.908-.252-.908-.69 0-.456.409-.708.908-.708.41 0 .809.136 1.018.408v.582c-.209.272-.608.408-1.018.408zm4.81.718v-3.097c.209-.3.768-.534 1.187-.534.14 0 .26.01.35.03v-1.205c-.599 0-1.198.34-1.537.758v-.641h-1.267v4.69h1.267zm7.039 0l-1.966-2.563 1.906-2.126h-1.557l-1.826 2.087v-3.873h-1.267V46.4h1.267v-1.204l.579-.602 1.277 1.806h1.587zm2.837.117c.748 0 1.506-.223 1.985-.65l-.558-.797c-.31.292-.879.466-1.288.466-.818 0-1.307-.495-1.387-1.087h3.583v-.272c0-1.534-.978-2.583-2.415-2.583-1.467 0-2.495 1.098-2.495 2.457 0 1.505 1.108 2.466 2.575 2.466zm1.107-2.903h-2.375c.06-.466.399-1.039 1.188-1.039.838 0 1.157.592 1.187 1.039zm3.76 2.903c.528 0 .868-.136 1.057-.3l-.269-.933c-.07.068-.25.136-.439.136-.28 0-.439-.223-.439-.515V42.79h.978v-1.08h-.978v-1.282h-1.278v1.282h-.798v1.078h.798v2.447c0 .835.479 1.281 1.368 1.281zm2.383-5.311c.42 0 .759-.33.759-.738s-.339-.728-.759-.728c-.409 0-.758.32-.758.728s.349.738.758.738zm.639 5.195v-4.69h-1.267v4.69h1.267zm5.777-.001v-3.31c0-.913-.509-1.496-1.566-1.496-.789 0-1.378.37-1.687.729v-.612h-1.267v4.69h1.267v-3.156c.21-.281.599-.553 1.098-.553.539 0 .888.223.888.873v2.836h1.267zm3.234 1.904c1.188 0 2.605-.437 2.605-2.224v-4.369h-1.277v.602a1.877 1.877 0 00-1.487-.719c-1.218 0-2.126.855-2.126 2.389 0 1.563.918 2.389 2.126 2.389.588 0 1.107-.272 1.487-.739v.476c0 .923-.719 1.185-1.328 1.185-.608 0-1.117-.165-1.506-.583l-.569.894c.608.514 1.247.699 2.075.699zm.24-3.03c-.719 0-1.218-.485-1.218-1.291 0-.806.499-1.291 1.218-1.291.419 0 .878.223 1.088.534v1.514c-.21.301-.669.534-1.088.534z" fill="#B01E34"/></g><defs><linearGradient id="paint0_linear" x1="22.721" y1="31.64" x2="41.262" y2="31.782" gradientUnits="userSpaceOnUse"><stop stop-color="#1758A0"/><stop offset="1" stop-color="#0A3D76"/></linearGradient><linearGradient id="paint1_linear" x1="19.289" y1="31.619" x2="44.349" y2="31.961" gradientUnits="userSpaceOnUse"><stop stop-color="#CD1732"/><stop offset=".5" stop-color="#B6142C"/><stop offset="1" stop-color="#8B1022"/></linearGradient><linearGradient id="paint2_linear" x1="14.773" y1="30.233" x2="46.858" y2="30.45" gradientUnits="userSpaceOnUse"><stop stop-color="#B6142C"/><stop offset="1" stop-color="#A62E41"/></linearGradient><linearGradient id="paint3_linear" x1="51.895" y1="25.222" x2="90.538" y2="25.866" gradientUnits="userSpaceOnUse"><stop stop-color="#B6142C"/><stop offset="1" stop-color="#A62E41"/></linearGradient><linearGradient id="paint4_linear" x1="51.895" y1="25.222" x2="90.538" y2="25.866" gradientUnits="userSpaceOnUse"><stop stop-color="#B6142C"/><stop offset="1" stop-color="#A62E41"/></linearGradient><clipPath id="clip0"><path fill="#fff" d="M0 0h162v62H0z"/></clipPath></defs></svg>