<svg width="238" height="173" viewBox="0 0 238 173" fill="none" xmlns="http://www.w3.org/2000/svg">
<g clip-path="url(#clip0)">
<g filter="url(#filter0_f)">
<path d="M148.606 113.151L65.461 144.414L-0.000195597 120.642L82.6814 90.8202L148.606 113.151Z" fill="url(#paint0_linear)"/>
</g>
<path d="M136.599 172.135L63.1447 144.465L63.1194 55.8024L136.599 83.4731V172.135Z" fill="#053866"/>
<path d="M210.818 144.027L136.6 116.336L136.263 27.6625L137.53 26.6132L210.814 55.162L210.818 144.027Z" fill="#083556"/>
<path d="M136.6 172.135L210.788 144.004L210.814 55.0704L136.625 82.9732L136.6 172.135Z" fill="#054270"/>
<path d="M63.1446 144.332L137.783 114.31L136.639 27.3482L135.756 26.6132L63.1194 55.1898L63.1446 144.332Z" fill="#063D66"/>
<g filter="url(#filter1_f)">
<ellipse cx="136.316" cy="107.115" rx="50.6687" ry="50.4646" fill="url(#paint1_radial)"/>
</g>
<path d="M136.601 172.137L63.1469 144.465L63.1216 55.8024L136.601 83.4731V172.137Z" fill="#053866"/>
<path d="M81.4914 85.0685L63.1469 78.0992L63.1216 55.8024L81.4914 62.9232V85.0685Z" fill="#053866"/>
<path d="M68.0047 77.0164C66.3501 77.0583 64.7046 76.7602 63.1701 76.1408L63.12 73.7891C66.8524 75.2151 70.4345 74.9399 73.19 73.0386C76.4715 70.787 78.5507 67.0593 78.5507 61.6555L80.755 62.5311C80.755 68.6855 78.9264 72.1379 75.0437 74.8148C72.9597 76.2126 70.5148 76.9773 68.0047 77.0164Z" fill="#FF8098"/>
<path d="M99.8605 91.6533L81.4907 84.6477V62.3871L99.8605 69.3927V91.6533Z" fill="#0E2951"/>
<path d="M118.23 98.9697L99.8597 91.9641V69.7035L118.23 76.6837V98.9697Z" fill="#FF8098"/>
<path d="M136.599 105.552L118.229 98.6324V76.2883L136.724 83.1543L136.599 105.552Z" fill="#911A31"/>
<path d="M81.4898 107.018L63.12 100.038V77.752L81.4898 84.7576V107.018Z" fill="#911A31"/>
<path d="M99.8605 113.603L81.4907 106.773V85.0686L99.8605 91.8991V113.603Z" fill="#C43B55"/>
<path d="M118.23 120.919L99.8599 113.914V91.6531L118.23 98.6587V120.919Z" fill="#053866"/>
<path d="M136.599 127.504L118.229 120.749L118.254 98.6376L136.599 105.534V127.504Z" fill="#132F7C"/>
<path d="M99.8605 136.284L81.4907 129.304V106.776L99.8605 113.597V136.284Z" fill="#FF8098"/>
<path d="M118.231 142.869L99.8613 135.863V113.603L118.231 120.608V142.869Z" fill="#0E2951"/>
<path d="M136.602 150.186L118.232 143.257V120.919L136.602 127.848V150.186Z" fill="#053866"/>
<path d="M81.4898 151.351L63.12 144.451V122.084L81.4898 128.968V151.351Z" fill="#C43B55"/>
<path d="M99.8605 158.234L81.4907 151.247V128.968L99.8605 135.954V158.234Z" fill="#053866"/>
<path d="M118.23 165.137L99.8599 158.132V135.871L118.23 142.877V165.137Z" fill="#FF8098"/>
<path d="M136.599 172.135L118.229 165.246V142.869L136.599 150.06V172.135Z" fill="#911A31"/>
<path d="M66.9182 72.6293C65.6141 72.6489 64.3203 72.3951 63.12 71.8841V69.186C65.789 70.2138 69.0996 69.8541 70.7421 68.7748C73.4881 66.9504 74.8226 64.1238 74.8226 60.1923L77.0811 61.0916C77.0811 65.9226 75.3616 68.8776 72.2819 71.0104C70.6939 72.0707 68.8269 72.6342 66.9182 72.6293Z" fill="#D6516B"/>
<path d="M65.6051 67.5076C64.7536 67.525 63.9077 67.359 63.12 67.0199V64.1749C64.725 64.8252 67.2101 64.6626 68.5822 63.2266C70.0059 61.7364 70.3942 60.5171 70.3942 57.9973L72.6723 58.9456C72.6723 62.4138 71.5333 64.771 69.3847 66.3154C68.2663 67.0977 66.9503 67.5128 65.6051 67.5076Z" fill="#C43B55"/>
<path d="M64.2899 62.3784C63.8873 62.4159 63.4829 62.3328 63.12 62.1382V59.3361C63.51 59.4962 64.7773 59.6029 65.2648 59.3361C66.1179 58.8557 66.1179 57.9217 65.7035 56.5339L68.2627 57.468C68.2627 59.4161 67.629 60.7772 66.4347 61.6845C65.7945 62.1343 65.0505 62.375 64.2899 62.3784Z" fill="#A62E41"/>
<path d="M136.314 146.527L120.433 140.679V102.628L136.598 108.376V111.463L123.17 106.443V139.361L136.087 144.663L136.314 146.527Z" fill="#C43B55"/>
<path d="M136.598 147.259L120.433 140.869V121.547L123.17 122.532V139.054L136.598 144.201V147.259Z" fill="#F985A0"/>
<path d="M136.299 140.633L124.843 137.028V109.213L136.6 113.371V116.508L127.58 113.116V135.742L136.6 138.88L136.299 140.633Z" fill="#C43B55"/>
<path d="M136.299 134.482L129.988 132.786V117.261L136.601 119.55V122.611L132.628 121.068V131.371L136.601 133.088L136.299 134.482Z" fill="#C43B55"/>
<path d="M136.601 135.552L129.988 132.985V125.063L132.628 126.018V131.172L136.601 132.456V135.552Z" fill="#F985A0"/>
<path d="M136.6 141.406L124.843 137.106V123.181L127.58 124.195V135.292L136.6 138.349V141.406Z" fill="#F985A0"/>
<path d="M77.0811 149.708L63.12 144.451V127.504L77.0811 132.76V149.708Z" fill="#053866"/>
<path d="M71.9375 147.766L63.12 144.451V133.357L71.9375 136.857V147.766Z" fill="#FF8098"/>
<path d="M118.23 84.4823L111.51 96.043L99.8599 83.4592L106.579 71.8984L118.23 84.4823Z" fill="#C43B55"/>
<path d="M113.822 84.2167L110.308 90.1901L104.27 83.6995L107.758 77.752L113.822 84.2167Z" fill="#911A31"/>
<path d="M118.23 165.085L99.8599 158.058V140.209L118.23 147.211V165.085Z" fill="#C43B55"/>
<path d="M118.23 164.937L99.8599 157.725V144.451L118.23 151.637V164.937Z" fill="#911A31"/>
<path d="M118.23 164.906L99.8599 157.731V149.542L118.23 156.691V164.906Z" fill="#053866"/>
<path d="M118.23 165.183L99.8599 158.187V154.208L118.23 161.178V165.183Z" fill="#0E2951"/>
<path d="M81.4907 90.1899L99.8605 97.0263L81.4907 102.377L99.8605 109.213L81.4907 90.1899Z" fill="#911A31"/>
<path d="M65.324 101.165L63.12 100.266V77.752L65.324 78.6505V101.165Z" fill="#FF8098"/>
<path d="M68.9979 101.896L66.7939 101.027V79.2151L68.9979 80.1094V101.896Z" fill="#FF8098"/>
<path d="M80.7544 106.286L77.8157 105.415V83.6046L80.7544 84.4751V106.286Z" fill="#FF8098"/>
<path d="M76.3459 104.823L74.1418 103.952V82.1414L76.3459 83.0118V104.823Z" fill="#FF8098"/>
<path d="M72.6727 103.36L70.4688 102.489V80.6783L72.6727 81.5488V103.36Z" fill="#FF8098"/>
<path d="M81.4898 128.968L63.12 121.962V99.7017L81.4898 106.682V128.968Z" fill="#0E2951"/>
<path d="M81.4898 128.968L71.9375 125.468V114.335L81.4898 117.834V128.968Z" fill="#911A31"/>
<path d="M71.9375 114.335L63.12 110.829V99.7017L71.9375 103.022V114.335Z" fill="#911A31"/>
<path fill-rule="evenodd" clip-rule="evenodd" d="M83.6949 132.626L97.0127 137.853L96.3063 139.782L85.6879 135.615V148.404L95.663 152.319V142.719L87.941 139.685V146.521L93.4099 148.675V144.553L90.1699 143.277V144.687L92.5311 145.614L91.8239 147.544L88.1769 146.11V140.286L95.4029 143.13V151.667L85.948 147.943V136.694L97.656 141.296V155.307L83.6949 149.828V132.626Z" fill="#F985A0"/>
<path fill-rule="evenodd" clip-rule="evenodd" d="M135.129 153.076L122.619 164.819L120.433 162.66L132.943 150.917L135.129 153.076Z" fill="#0E2951"/>
<path fill-rule="evenodd" clip-rule="evenodd" d="M123.052 146.527L135.129 167.684L132.51 169.208L120.433 148.052L123.052 146.527Z" fill="#0E2951"/>
<path d="M106.472 124.578L103.533 123.353V119.456L106.472 120.681V124.578Z" fill="#911A31"/>
<path d="M110.145 131.162L107.207 129.944V126.041L110.145 127.259V131.162Z" fill="#911A31"/>
<path d="M114.555 137.016L111.616 135.966V132.626L114.555 133.676V137.016Z" fill="#911A31"/>
<path d="M136.724 83.1543L210.813 55.0709V144.106L136.599 172.136L136.724 83.1543Z" fill="#053866"/>
<path d="M192.444 106.701L210.814 99.7014V121.968L192.444 128.968V106.701Z" fill="#911A31"/>
<path d="M173.339 113.849L192.444 107.018V128.747L173.339 135.553V113.849Z" fill="#C43B55"/>
<path d="M154.971 120.608L173.341 113.603V135.863L154.971 142.869V120.608Z" fill="#053866"/>
<path d="M136.6 127.49L154.97 120.9V143.103L136.6 150.185V127.49Z" fill="#132F7C"/>
<path d="M173.339 91.3425L192.443 84.3369V107.122L173.339 113.909V91.3425Z" fill="#FF8098"/>
<path d="M154.971 98.6592L173.341 91.6536V113.914L154.971 120.92V98.6592Z" fill="#0E2951"/>
<path d="M136.6 105.321L154.97 98.238V120.422L136.6 127.504V105.321Z" fill="#053866"/>
<path d="M173.341 135.543L192.475 128.744L192.347 151.026L173.341 158.256V135.543Z" fill="#0E2951"/>
<path d="M154.971 142.966L173.341 135.553V158.259L154.971 165.175V142.966Z" fill="#FF8098"/>
<path d="M136.6 150.061L154.97 142.966V165.188L136.6 172.134V150.061Z" fill="#911A31"/>
<path d="M192.443 62.0958L210.813 55.0709V77.3376L192.443 84.3371V62.0958Z" fill="#C43B55"/>
<path d="M173.337 69.3932L192.442 62.3876V84.6481L173.337 91.6537V69.3932Z" fill="#053866"/>
<path d="M154.967 76.5342L173.337 69.7037V91.4078L154.967 98.2382V76.5342Z" fill="#FF8098"/>
<path d="M136.699 83.1436L154.969 76.2887V98.4723L136.599 105.555L136.699 83.1436Z" fill="#911A31"/>
<path d="M136.596 147.239V144.228L150.054 138.814V106.462L136.818 111.299L135.863 108.843L152.763 102.628V140.618L136.596 147.239Z" fill="#C43B55"/>
<path d="M152.764 121.776L150.056 122.674V106.484L136.599 111.467V108.394L152.764 102.628V121.776Z" fill="#F985A0"/>
<path d="M136.599 141.406V138.33L145.723 134.629V112.871L136.599 116.397V113.321L148.356 109.945V136.454L136.599 141.406Z" fill="#C43B55"/>
<path d="M136.596 135.574V132.454L140.55 131.103V120.979L136.8 122.348L135.863 119.952L143.211 117.262V132.888L136.596 135.574Z" fill="#C43B55"/>
<path d="M143.212 125.181L140.545 126.042V121L136.599 122.605V119.546L143.212 117.262V125.181Z" fill="#F985A0"/>
<path d="M148.356 123.317L145.723 124.195V112.98L136.599 116.5V113.37L148.356 109.213V123.317Z" fill="#F985A0"/>
<path d="M201.26 58.5899L210.812 55.0709V66.2103L201.26 69.704V58.5899Z" fill="#FF8098"/>
<path d="M154.967 156.831L161.691 140.674L173.337 144.273L166.613 160.429L154.967 156.831Z" fill="#C43B55"/>
<path d="M159.376 153.441L162.861 145.064L168.928 146.931L165.417 155.308L159.376 153.441Z" fill="#911A31"/>
<path d="M154.967 76.5245L173.337 69.7037V87.0522L154.967 93.8483V76.5245Z" fill="#C43B55"/>
<path d="M154.967 76.6582L173.337 69.7037V82.5291L154.967 89.4584V76.6582Z" fill="#911A31"/>
<path d="M154.967 76.5375L173.337 69.7037V77.5278L154.967 84.3368V76.5375Z" fill="#053866"/>
<path d="M154.967 76.6831L173.337 69.7037V73.6992L154.967 80.6786V76.6831Z" fill="#0E2951"/>
<path d="M192.442 123.595L173.337 130.432L192.442 111.409L173.337 118.245" fill="#911A31"/>
<path d="M210.811 122.234L207.872 123.115V100.608L210.811 99.7019V122.234Z" fill="#FF8098"/>
<path d="M207.137 123.21L204.236 124.302L204.198 102.036L207.137 101.165V123.21Z" fill="#FF8098"/>
<path d="M196.115 127.366L193.197 128.543L193.176 106.425L196.06 105.555L196.115 127.366Z" fill="#FF8098"/>
<path d="M199.79 125.902L196.851 127.271V104.962L199.79 104.092V125.902Z" fill="#FF8098"/>
<path d="M203.463 124.439L200.525 126.321V103.499L203.463 102.628V124.439Z" fill="#FF8098"/>
<path d="M192.443 84.7579L210.813 77.7523V100.013L192.443 107.018V84.7579Z" fill="#0E2951"/>
<path d="M192.443 128.657L210.813 121.652V143.912L192.443 150.918V128.657Z" fill="#053866"/>
<path d="M192.443 84.7353L201.26 81.4105V91.9872L192.443 95.3119V84.7353Z" fill="#911A31"/>
<path d="M194.683 150.178L192.347 151.026C192.347 136.03 200.874 126.814 210.813 123.115V125.329C201.845 128.675 194.683 140.038 194.683 150.178Z" fill="#FF8098"/>
<path d="M199.778 148.269L197.018 149.329C197.018 138.622 203.293 130.303 210.812 127.505V130.175C204.242 132.642 199.778 140.41 199.778 148.269Z" fill="#D6516B"/>
<path d="M204.237 146.572L202.114 147.42C202.114 140.92 205.797 134.452 210.811 132.573V135.098C206.906 136.581 204.237 141.9 204.237 146.572Z" fill="#C43B55"/>
<path d="M208.65 144.916L206.572 145.724C206.125 142.203 208.111 138.695 210.818 137.664L210.81 140.515C209.122 141.143 208.65 142.778 208.65 144.916Z" fill="#A62E41"/>
<path fill-rule="evenodd" clip-rule="evenodd" d="M190.237 65.314V82.9075L176.955 87.9952L176.215 86.0216L188.15 81.4501V68.3701L177.628 72.4004V82.2207L185.791 79.111V72.1179L179.988 74.3285V78.519L183.406 77.211V75.7955L181.674 76.4603L180.933 74.4872L185.493 72.7372V78.6689L177.901 81.5741V72.8683L187.878 69.0676V80.5711L175.541 85.271V70.943L190.237 65.314Z" fill="#F985A0"/>
<path fill-rule="evenodd" clip-rule="evenodd" d="M138.068 101.048L150.766 79.2155L153.498 80.796L140.8 102.628L138.068 101.048Z" fill="#0E2951"/>
<path fill-rule="evenodd" clip-rule="evenodd" d="M150.597 98.2386L138.068 85.8892L140.234 83.6055L152.763 95.9548L150.597 98.2386Z" fill="#0E2951"/>
<path d="M166.725 108.243L169.663 107.018V110.915L166.725 112.14V108.243Z" fill="#911A31"/>
<path d="M163.051 105.136L165.99 104.092V107.437L163.051 108.481V105.136Z" fill="#911A31"/>
<path d="M158.641 101.483L161.58 100.433V103.774L158.641 104.823V101.483Z" fill="#911A31"/>
<path d="M196.851 60.5279L210.812 55.0709V72.347L196.851 77.7522V60.5279Z" fill="#053866"/>
<path d="M201.259 92.2325L210.812 88.7267V100.122L201.264 103.632L201.259 92.2325Z" fill="#911A31"/>
<path opacity="0.3" d="M63.4183 55.3483L136.643 83.0224V172.231L63.0914 144.557L63.4183 55.3483Z" fill="black"/>
<path d="M238.001 27.9738L210.394 55.0714L136.643 27.3491L164.181 0.197388L238.001 27.9738Z" fill="#084C80"/>
<path d="M136.724 83.1543L109.085 110.676L35.198 83.0119L63.5616 55.4124L136.724 83.1543Z" fill="#094573"/>
<path d="M136.642 27.3486L109.512 0L35.7174 27.8792L63.2732 55.6057L136.642 27.3486Z" fill="#084C80"/>
<path d="M238.001 82.4389L210.443 55.0704L136.6 83.1799L164.31 110.676L238.001 82.4389Z" fill="#084C80"/>
<path d="M78.2153 45.881C80.4396 45.9066 81.6276 44.6449 81.646 43.0508C81.6614 41.7117 80.6758 40.6003 79.4344 40.4106C80.5401 40.2161 81.4611 39.3339 81.4766 37.9949C81.4929 36.5761 80.3694 35.2718 78.1452 35.2462L71.998 35.1754L71.8755 45.808L78.2153 45.881ZM77.5532 39.4962L74.4359 39.4602L74.4625 37.1488L77.5799 37.1847C78.4205 37.1944 78.9402 37.6946 78.9325 38.3641C78.9248 39.0337 78.3939 39.5058 77.5532 39.4962ZM77.5899 43.9128L74.385 43.8759L74.4134 41.405L77.6184 41.442C78.5992 41.4533 79.118 42.0332 79.1102 42.7027C79.1014 43.4679 78.5357 43.9237 77.5899 43.9128Z" fill="#F5F9FF"/>
<path d="M96.1331 46.0874L91.7547 35.403L88.6373 35.3671L83.9963 45.9476L86.8335 45.9803L87.5898 44.1875L92.5986 44.2452L93.2959 46.0548L96.1331 46.0874ZM91.9386 42.2447L88.2958 42.2027L90.1699 37.6486L91.9386 42.2447Z" fill="#F5F9FF"/>
<path d="M111.485 35.6303L111.386 44.2703L107.69 44.2277L107.79 35.5877L105.285 35.5589L105.186 44.1989L101.473 44.1561L101.573 35.5161L99.0857 35.4874L98.9632 46.1201L113.867 46.2918L113.99 35.6591L111.485 35.6303Z" fill="#F5F9FF"/>
<path d="M124.292 35.7778L124.17 46.4105L129.686 46.474C132.191 46.5029 133.575 44.9723 133.596 43.1391C133.617 41.3059 132.251 39.7437 129.764 39.715L126.734 39.6801L126.756 37.7991L132.798 37.8687L132.821 35.8761L124.292 35.7778ZM129.408 41.7038C130.372 41.7149 131.066 42.2491 131.056 43.1099C131.046 43.9547 130.34 44.4887 129.376 44.4776L126.679 44.4465L126.711 41.6728L129.408 41.7038Z" fill="#F5F9FF"/>
<path d="M139.249 46.5842L144.9 39.5227L144.818 46.6483L147.305 46.677L147.428 36.0444L144.871 36.0149L139.38 42.8231L139.459 35.9526L136.972 35.9239L136.85 46.5565L139.249 46.5842Z" fill="#F5F9FF"/>
<path d="M155.368 46.9612C158.153 46.9933 160.182 45.7253 160.203 43.8921C160.221 42.298 158.69 41.4353 157.518 41.3102C158.799 41.1177 160.07 40.2555 160.085 38.9165C160.105 37.147 158.227 36.0094 155.495 35.9779C153.446 35.9543 151.774 36.6524 150.817 37.614L152.044 39.047C152.875 38.3392 154.088 37.9705 155.226 37.9836C156.557 37.999 157.603 38.4255 157.594 39.2704C157.585 40.0515 156.582 40.3907 155.199 40.3748L152.835 40.3475L152.812 42.3401L155.176 42.3674C156.927 42.3876 157.746 42.7796 157.736 43.6245C157.727 44.4215 156.827 44.9692 155.286 44.9514C154.148 44.9383 152.682 44.475 151.885 43.7006L150.572 45.2C151.419 46.1664 153.214 46.9364 155.368 46.9612Z" fill="#F5F9FF"/>
<path d="M174.309 46.9881L174.431 36.3555L171.927 36.3266L171.879 40.5032L166.362 40.4396L166.41 36.2631L163.923 36.2344L163.801 46.867L166.287 46.8957L166.339 42.4322L171.856 42.4958L171.804 46.9593L174.309 46.9881Z" fill="#F5F9FF"/>
<path d="M186.628 47.13L186.651 45.1374L180.872 45.0708L180.9 42.6637L186.556 42.7289L186.579 40.7363L180.923 40.6711L180.948 38.4234L186.728 38.49L186.751 36.4974L178.485 36.4022L178.362 47.0348L186.628 47.13Z" fill="#F5F9FF"/>
<path d="M195.978 47.4291C198.553 47.4587 200.039 46.1845 200.895 44.8711L198.769 43.9059C198.269 44.777 197.21 45.4344 196.002 45.4205C193.882 45.3961 192.358 43.8958 192.382 41.8873C192.405 39.8787 193.963 38.414 196.082 38.4384C197.29 38.4523 198.333 39.1499 198.814 40.0163L200.962 39.0845C200.154 37.7519 198.68 36.4595 196.105 36.4298C192.603 36.3895 189.862 38.5899 189.825 41.8578C189.787 45.1257 192.476 47.3887 195.978 47.4291Z" fill="#F5F9FF"/>
</g>
<defs>
<filter id="filter0_f" x="-5.00024" y="85.8202" width="158.606" height="63.5942" filterUnits="userSpaceOnUse" color-interpolation-filters="sRGB">
<feFlood flood-opacity="0" result="BackgroundImageFix"/>
<feBlend mode="normal" in="SourceGraphic" in2="BackgroundImageFix" result="shape"/>
<feGaussianBlur stdDeviation="2.5" result="effect1_foregroundBlur"/>
</filter>
<filter id="filter1_f" x="5.64709" y="-23.3494" width="261.337" height="260.929" filterUnits="userSpaceOnUse" color-interpolation-filters="sRGB">
<feFlood flood-opacity="0" result="BackgroundImageFix"/>
<feBlend mode="normal" in="SourceGraphic" in2="BackgroundImageFix" result="shape"/>
<feGaussianBlur stdDeviation="40" result="effect1_foregroundBlur"/>
</filter>
<linearGradient id="paint0_linear" x1="144.203" y1="145.318" x2="106.141" y2="62.3648" gradientUnits="userSpaceOnUse">
<stop offset="0.0960889"/>
<stop offset="0.978163" stop-color="#B4D1FA" stop-opacity="0"/>
</linearGradient>
<radialGradient id="paint1_radial" cx="0" cy="0" r="1" gradientUnits="userSpaceOnUse" gradientTransform="translate(135.733 89.7136) rotate(90) scale(40.0236 40.1855)">
<stop stop-color="#0095FF"/>
<stop offset="1" stop-color="#BCE3FF"/>
</radialGradient>
<clipPath id="clip0">
<rect width="238" height="172.231" fill="white"/>
</clipPath>
</defs>
</svg>
