<svg width="238" height="173" fill="none" xmlns="http://www.w3.org/2000/svg"><g clip-path="url(#clip0)"><g filter="url(#filter0_f)"><path d="M148.606 113.151l-83.145 31.263L0 120.642 82.68 90.82l65.925 22.331z" fill="url(#paint0_linear)"/></g><path d="M136.599 172.135l-73.454-27.67-.026-88.663 73.48 27.671v88.662z" fill="#053866"/><path d="M210.818 144.027L136.6 116.336l-.337-88.673 1.267-1.05 73.284 28.549.004 88.865z" fill="#083556"/><path d="M136.6 172.135l74.188-28.131.026-88.934-74.189 27.903-.025 89.162z" fill="#054270"/><path d="M63.145 144.332l74.638-30.022-1.144-86.962-.883-.735L63.119 55.19l.026 89.142z" fill="#063D66"/><g filter="url(#filter1_f)"><ellipse cx="136.316" cy="107.115" rx="50.669" ry="50.465" fill="url(#paint1_radial)"/></g><path d="M136.601 172.137l-73.454-27.672-.025-88.663L136.6 83.473v88.664z" fill="#053866"/><path d="M81.491 85.069l-18.344-6.97-.025-22.297 18.37 7.121v22.145z" fill="#053866"/><path d="M68.005 77.016c-1.655.042-3.3-.256-4.835-.875l-.05-2.352c3.732 1.426 7.315 1.15 10.07-.75 3.282-2.252 5.36-5.98 5.36-11.383l2.205.875c0 6.155-1.829 9.607-5.711 12.284a13 13 0 01-7.04 2.201z" fill="#FF8098"/><path d="M99.86 91.653l-18.37-7.005v-22.26l18.37 7.005v22.26z" fill="#0E2951"/><path d="M118.23 98.97l-18.37-7.006v-22.26l18.37 6.98V98.97z" fill="#FF8098"/><path d="M136.599 105.552l-18.37-6.92V76.288l18.495 6.866-.125 22.398zm-55.109 1.466l-18.37-6.98V77.752l18.37 7.006v22.26z" fill="#911A31"/><path d="M99.86 113.603l-18.37-6.83V85.069l18.37 6.83v21.704z" fill="#C43B55"/><path d="M118.23 120.919l-18.37-7.005v-22.26l18.37 7.005v22.26z" fill="#053866"/><path d="M136.599 127.504l-18.37-6.755.025-22.111 18.345 6.896v21.97z" fill="#132F7C"/><path d="M99.86 136.284l-18.37-6.98v-22.528l18.37 6.821v22.687z" fill="#FF8098"/><path d="M118.231 142.869l-18.37-7.006v-22.26l18.37 7.005v22.261z" fill="#0E2951"/><path d="M136.602 150.186l-18.37-6.929v-22.338l18.37 6.929v22.338z" fill="#053866"/><path d="M81.49 151.351l-18.37-6.9v-22.367l18.37 6.884v22.383z" fill="#C43B55"/><path d="M99.86 158.234l-18.37-6.987v-22.279l18.37 6.986v22.28z" fill="#053866"/><path d="M118.23 165.137l-18.37-7.005v-22.261l18.37 7.006v22.26z" fill="#FF8098"/><path d="M136.599 172.135l-18.37-6.889v-22.377l18.37 7.191v22.075z" fill="#911A31"/><path d="M66.918 72.63a9.338 9.338 0 01-3.798-.746v-2.698c2.669 1.028 5.98.668 7.622-.411 2.746-1.825 4.08-4.651 4.08-8.583l2.26.9c0 4.83-1.72 7.786-4.8 9.918a9.614 9.614 0 01-5.364 1.62z" fill="#D6516B"/><path d="M65.605 67.508a5.972 5.972 0 01-2.485-.488v-2.845c1.605.65 4.09.488 5.462-.948 1.424-1.49 1.812-2.71 1.812-5.23l2.278.949c0 3.468-1.139 5.825-3.287 7.37a6.544 6.544 0 01-3.78 1.192z" fill="#C43B55"/><path d="M64.29 62.378a2.064 2.064 0 01-1.17-.24v-2.802c.39.16 1.657.267 2.145 0 .853-.48.853-1.414.439-2.802l2.559.934c0 1.948-.634 3.31-1.828 4.216-.64.45-1.385.691-2.145.694z" fill="#A62E41"/><path d="M136.314 146.527l-15.881-5.848v-38.051l16.165 5.748v3.087l-13.428-5.02v32.918l12.917 5.302.227 1.864z" fill="#C43B55"/><path d="M136.598 147.259l-16.165-6.39v-19.322l2.737.985v16.522l13.428 5.147v3.058z" fill="#F985A0"/><path d="M136.299 140.633l-11.456-3.605v-27.815l11.757 4.158v3.137l-9.02-3.392v22.626l9.02 3.138-.301 1.753z" fill="#C43B55"/><path d="M136.299 134.482l-6.311-1.696v-15.525l6.613 2.289v3.061l-3.973-1.543v10.303l3.973 1.717-.302 1.394z" fill="#C43B55"/><path d="M136.601 135.552l-6.613-2.567v-7.922l2.64.955v5.154l3.973 1.284v3.096z" fill="#F985A0"/><path d="M136.6 141.406l-11.757-4.3v-13.925l2.737 1.014v11.097l9.02 3.057v3.057z" fill="#F985A0"/><path d="M77.081 149.708l-13.961-5.257v-16.947l13.961 5.256v16.948z" fill="#053866"/><path d="M71.938 147.766l-8.818-3.315v-11.094l8.818 3.5v10.909z" fill="#FF8098"/><path d="M118.23 84.482l-6.72 11.561-11.65-12.584 6.719-11.56 11.651 12.583z" fill="#C43B55"/><path d="M113.822 84.217l-3.514 5.973-6.038-6.49 3.488-5.948 6.064 6.465z" fill="#911A31"/><path d="M118.23 165.085l-18.37-7.027v-17.849l18.37 7.002v17.874z" fill="#C43B55"/><path d="M118.23 164.937l-18.37-7.212v-13.274l18.37 7.186v13.3z" fill="#911A31"/><path d="M118.23 164.906l-18.37-7.175v-8.189l18.37 7.149v8.215z" fill="#053866"/><path d="M118.23 165.183l-18.37-6.996v-3.979l18.37 6.97v4.005z" fill="#0E2951"/><path d="M81.49 90.19l18.37 6.836-18.37 5.351 18.37 6.836L81.49 90.19z" fill="#911A31"/><path d="M65.324 101.165l-2.204-.899V77.752l2.204.898v22.515zm3.674.731l-2.204-.869V79.215l2.204.894v21.787zm11.756 4.39l-2.938-.871v-21.81l2.938.87v21.811zm-4.408-1.463l-2.204-.871v-21.81l2.204.87v21.811zm-3.673-1.463l-2.204-.871v-21.81l2.204.87v21.811z" fill="#FF8098"/><path d="M81.49 128.968l-18.37-7.006v-22.26l18.37 6.98v22.286z" fill="#0E2951"/><path d="M81.49 128.968l-9.552-3.5v-11.133l9.552 3.499v11.134zm-9.552-14.633l-8.818-3.506V99.702l8.818 3.32v11.313z" fill="#911A31"/><path fill-rule="evenodd" clip-rule="evenodd" d="M83.695 132.626l13.318 5.227-.707 1.929-10.618-4.167v12.789l9.975 3.915v-9.6l-7.722-3.034v6.836l5.469 2.154v-4.122l-3.24-1.276v1.41l2.361.927-.707 1.93-3.647-1.434v-5.824l7.226 2.844v8.537l-9.455-3.724v-11.249l11.708 4.602v14.011l-13.961-5.479v-17.202z" fill="#F985A0"/><path fill-rule="evenodd" clip-rule="evenodd" d="M135.129 153.076l-12.51 11.743-2.186-2.159 12.51-11.743 2.186 2.159z" fill="#0E2951"/><path fill-rule="evenodd" clip-rule="evenodd" d="M123.052 146.527l12.077 21.157-2.619 1.524-12.077-21.156 2.619-1.525z" fill="#0E2951"/><path d="M106.472 124.578l-2.939-1.225v-3.897l2.939 1.225v3.897zm3.673 6.584l-2.938-1.218v-3.903l2.938 1.218v3.903zm4.41 5.854l-2.939-1.05v-3.34l2.939 1.05v3.34z" fill="#911A31"/><path d="M136.724 83.154l74.089-28.083v89.035l-74.214 28.03.125-88.982z" fill="#053866"/><path d="M192.444 106.701l18.37-7v22.267l-18.37 7v-22.267z" fill="#911A31"/><path d="M173.339 113.849l19.105-6.831v21.729l-19.105 6.806v-21.704z" fill="#C43B55"/><path d="M154.971 120.608l18.37-7.005v22.26l-18.37 7.006v-22.261z" fill="#053866"/><path d="M136.6 127.49l18.37-6.59v22.203l-18.37 7.082V127.49z" fill="#132F7C"/><path d="M173.339 91.343l19.104-7.006v22.785l-19.104 6.787V91.342z" fill="#FF8098"/><path d="M154.971 98.66l18.37-7.006v22.26l-18.37 7.006V98.66z" fill="#0E2951"/><path d="M136.6 105.321l18.37-7.083v22.184l-18.37 7.082v-22.183z" fill="#053866"/><path d="M173.341 135.543l19.134-6.799-.128 22.282-19.006 7.23v-22.713z" fill="#0E2951"/><path d="M154.971 142.966l18.37-7.413v22.706l-18.37 6.916v-22.209z" fill="#FF8098"/><path d="M136.6 150.061l18.37-7.095v22.222l-18.37 6.946v-22.073z" fill="#911A31"/><path d="M192.443 62.096l18.37-7.025v22.267l-18.37 7V62.095z" fill="#C43B55"/><path d="M173.337 69.393l19.105-7.005v22.26l-19.105 7.006v-22.26z" fill="#053866"/><path d="M154.967 76.534l18.37-6.83v21.704l-18.37 6.83V76.534z" fill="#FF8098"/><path d="M136.699 83.144l18.27-6.855v22.183l-18.37 7.083.1-22.411z" fill="#911A31"/><path d="M136.596 147.239v-3.011l13.458-5.414v-32.352l-13.236 4.837-.955-2.456 16.9-6.215v37.99l-16.167 6.621z" fill="#C43B55"/><path d="M152.764 121.776l-2.708.898v-16.19l-13.457 4.983v-3.073l16.165-5.766v19.148z" fill="#F985A0"/><path d="M136.599 141.406v-3.076l9.124-3.701v-21.758l-9.124 3.526v-3.076l11.757-3.376v26.509l-11.757 4.952z" fill="#C43B55"/><path d="M136.596 135.574v-3.12l3.954-1.351v-10.124l-3.75 1.369-.937-2.396 7.348-2.69v15.626l-6.615 2.686z" fill="#C43B55"/><path d="M143.212 125.181l-2.667.861V121l-3.946 1.605v-3.059l6.613-2.284v7.919z" fill="#F985A0"/><path d="M148.356 123.317l-2.633.878V112.98l-9.124 3.52v-3.13l11.757-4.157v14.104z" fill="#F985A0"/><path d="M201.26 58.59l9.552-3.52v11.14l-9.552 3.494V58.59z" fill="#FF8098"/><path d="M154.967 156.831l6.724-16.157 11.646 3.599-6.724 16.156-11.646-3.598z" fill="#C43B55"/><path d="M159.376 153.441l3.485-8.377 6.067 1.867-3.511 8.377-6.041-1.867z" fill="#911A31"/><path d="M154.967 76.525l18.37-6.821v17.348l-18.37 6.796V76.525z" fill="#C43B55"/><path d="M154.967 76.658l18.37-6.954v12.825l-18.37 6.93v-12.8z" fill="#911A31"/><path d="M154.967 76.537l18.37-6.833v7.824l-18.37 6.809v-7.8z" fill="#053866"/><path d="M154.967 76.683l18.37-6.98V73.7l-18.37 6.98v-3.996z" fill="#0E2951"/><path d="M192.442 123.595l-19.105 6.837 19.105-19.023-19.105 6.836" fill="#911A31"/><path d="M210.811 122.234l-2.939.881v-22.507l2.939-.906v22.532zm-3.674.976l-2.901 1.092-.038-22.266 2.939-.871v22.045zm-11.022 4.156l-2.918 1.177-.021-22.118 2.884-.87.055 21.811zm3.675-1.464l-2.939 1.369v-22.309l2.939-.87v21.81zm3.673-1.463l-2.938 1.882v-22.822l2.938-.871v21.811z" fill="#FF8098"/><path d="M192.443 84.758l18.37-7.006v22.261l-18.37 7.005v-22.26z" fill="#0E2951"/><path d="M192.443 128.657l18.37-7.005v22.26l-18.37 7.006v-22.261z" fill="#053866"/><path d="M192.443 84.735l8.817-3.325v10.577l-8.817 3.325V84.735z" fill="#911A31"/><path d="M194.683 150.178l-2.336.848c0-14.996 8.527-24.212 18.466-27.911v2.214c-8.968 3.346-16.13 14.709-16.13 24.849z" fill="#FF8098"/><path d="M199.778 148.269l-2.76 1.06c0-10.707 6.275-19.026 13.794-21.824v2.67c-6.57 2.467-11.034 10.235-11.034 18.094z" fill="#D6516B"/><path d="M204.237 146.572l-2.123.848c0-6.5 3.683-12.968 8.697-14.847v2.525c-3.905 1.483-6.574 6.802-6.574 11.474z" fill="#C43B55"/><path d="M208.65 144.916l-2.078.808c-.447-3.521 1.539-7.029 4.246-8.06l-.008 2.851c-1.688.628-2.16 2.263-2.16 4.401z" fill="#A62E41"/><path fill-rule="evenodd" clip-rule="evenodd" d="M190.237 65.314v17.594l-13.282 5.087-.74-1.973 11.935-4.572V68.37l-10.522 4.03v9.82l8.163-3.109v-6.993l-5.803 2.21v4.191l3.418-1.308v-1.415l-1.732.664-.741-1.973 4.56-1.75v5.932l-7.592 2.905v-8.706l9.977-3.8V80.57l-12.337 4.7V70.943l14.696-5.629z" fill="#F985A0"/><path fill-rule="evenodd" clip-rule="evenodd" d="M138.068 101.048l12.698-21.832 2.732 1.58-12.698 21.832-2.732-1.58z" fill="#0E2951"/><path fill-rule="evenodd" clip-rule="evenodd" d="M150.597 98.239l-12.529-12.35 2.166-2.283 12.529 12.349-2.166 2.284z" fill="#0E2951"/><path d="M166.725 108.243l2.938-1.225v3.897l-2.938 1.225v-3.897zm-3.674-3.107l2.939-1.044v3.345l-2.939 1.044v-3.345zm-4.41-3.653l2.939-1.05v3.341l-2.939 1.049v-3.34z" fill="#911A31"/><path d="M196.851 60.528l13.961-5.457v17.276l-13.961 5.405V60.528z" fill="#053866"/><path d="M201.259 92.233l9.553-3.506v11.395l-9.548 3.51-.005-11.4z" fill="#911A31"/><path opacity=".3" d="M63.418 55.348l73.225 27.674v89.209l-73.552-27.674.327-89.209z" fill="#000"/><path d="M238.001 27.974L210.394 55.07l-73.751-27.72L164.181.197l73.82 27.777z" fill="#084C80"/><path d="M136.724 83.154l-27.639 27.522-73.887-27.664 28.364-27.6 73.162 27.742z" fill="#094573"/><path d="M136.642 27.349L109.512 0 35.717 27.88l27.556 27.726 73.369-28.257zm101.359 55.09L210.443 55.07 136.6 83.18l27.71 27.496 73.691-28.237z" fill="#084C80"/><path d="M78.215 45.881c2.225.026 3.413-1.236 3.431-2.83.015-1.34-.97-2.45-2.212-2.64 1.106-.195 2.027-1.077 2.043-2.416.016-1.419-1.108-2.723-3.332-2.749l-6.147-.07-.123 10.632 6.34.073zm-.662-6.385l-3.117-.036.026-2.311 3.118.036c.84.01 1.36.51 1.353 1.18-.008.669-.54 1.14-1.38 1.131zm.037 4.417l-3.205-.037.028-2.471 3.205.037c.981.011 1.5.591 1.492 1.26-.009.766-.574 1.222-1.52 1.21zm18.543 2.174l-4.378-10.684-3.118-.036-4.64 10.58 2.837.033.756-1.792 5.009.057.697 1.81 2.837.032zm-4.194-3.842l-3.643-.042 1.874-4.554 1.769 4.596zm19.546-6.615l-.099 8.64-3.696-.042.1-8.64-2.505-.03-.099 8.64-3.713-.042.1-8.64-2.487-.029-.123 10.633 14.904.172.123-10.633-2.505-.029zm12.807.148l-.122 10.633 5.516.063c2.505.029 3.889-1.502 3.91-3.335.021-1.833-1.345-3.395-3.832-3.424l-3.03-.035.022-1.88 6.042.069.023-1.993-8.529-.098zm5.116 5.926c.964.01 1.658.545 1.648 1.406-.01.845-.716 1.379-1.68 1.368l-2.697-.032.032-2.773 2.697.03zm9.841 4.88l5.651-7.061-.082 7.125 2.487.029.123-10.633-2.557-.03-5.491 6.81.079-6.871-2.487-.03-.122 10.633 2.399.028zm16.119.377c2.785.032 4.814-1.236 4.835-3.069.018-1.594-1.513-2.457-2.685-2.582 1.281-.192 2.552-1.055 2.567-2.394.02-1.769-1.858-2.907-4.59-2.938-2.049-.024-3.721.674-4.678 1.636l1.227 1.433c.831-.708 2.044-1.076 3.182-1.063 1.331.015 2.377.441 2.368 1.286-.009.781-1.012 1.12-2.395 1.105l-2.364-.028-.023 1.993 2.364.027c1.751.02 2.57.413 2.56 1.258-.009.797-.909 1.344-2.45 1.326-1.138-.013-2.604-.476-3.401-1.25l-1.313 1.499c.847.966 2.642 1.736 4.796 1.761zm18.941.027l.122-10.633-2.504-.028-.048 4.176-5.517-.063.048-4.177-2.487-.029-.122 10.633 2.486.029.052-4.464 5.517.064-.052 4.463 2.505.03zm12.319.142l.023-1.993-5.779-.066.028-2.407 5.656.065.023-1.993-5.656-.065.025-2.248 5.78.067.023-1.993-8.266-.095-.123 10.633 8.266.095zm9.35.3c2.575.029 4.061-1.245 4.917-2.559l-2.126-.965c-.5.871-1.559 1.528-2.767 1.514-2.12-.024-3.644-1.524-3.62-3.533.023-2.008 1.581-3.473 3.7-3.449 1.208.014 2.251.712 2.732 1.578l2.148-.931c-.808-1.333-2.282-2.626-4.857-2.655-3.502-.04-6.243 2.16-6.28 5.428-.038 3.268 2.651 5.53 6.153 5.571z" fill="#F5F9FF"/></g><defs><filter id="filter0_f" x="-5" y="85.82" width="158.606" height="63.594" filterUnits="userSpaceOnUse" color-interpolation-filters="sRGB"><feFlood flood-opacity="0" result="BackgroundImageFix"/><feBlend in="SourceGraphic" in2="BackgroundImageFix" result="shape"/><feGaussianBlur stdDeviation="2.5" result="effect1_foregroundBlur"/></filter><filter id="filter1_f" x="5.647" y="-23.349" width="261.337" height="260.929" filterUnits="userSpaceOnUse" color-interpolation-filters="sRGB"><feFlood flood-opacity="0" result="BackgroundImageFix"/><feBlend in="SourceGraphic" in2="BackgroundImageFix" result="shape"/><feGaussianBlur stdDeviation="40" result="effect1_foregroundBlur"/></filter><radialGradient id="paint1_radial" cx="0" cy="0" r="1" gradientUnits="userSpaceOnUse" gradientTransform="scale(40.1855 40.0236) rotate(90 .568 2.81)"><stop stop-color="#0095FF"/><stop offset="1" stop-color="#BCE3FF"/></radialGradient><linearGradient id="paint0_linear" x1="144.203" y1="145.318" x2="106.141" y2="62.365" gradientUnits="userSpaceOnUse"><stop offset=".096"/><stop offset=".978" stop-color="#B4D1FA" stop-opacity="0"/></linearGradient><clipPath id="clip0"><path fill="#fff" d="M0 0h238v172.231H0z"/></clipPath></defs></svg>