<svg version="1.1" id="Слой_1" xmlns="http://www.w3.org/2000/svg" x="0" y="0" viewBox="0 0 168 179" xml:space="preserve"><style>.st0{fill:#5a1923}.st1{fill:#561822}.st2{fill:#671d28}.st3{fill:#6e1e2b}.st4{fill:#6a1d2a}.st5{fill:#6f1f2c}.st6{fill:#531721}.st7{fill:#5d1a24}.st8{fill:#601b26}.st9{fill:#641c27}.st10{fill:#72202d}.st11{fill:#6b1e2a}.st12{fill:#74202d}.st13{fill:#681d29}.st14{fill:#5b1924}.st15{fill:#591923}</style><path class="st0" d="M147.5 126l-6.6-5.1c1-1.8 2.3-4.6 3.2-6.6l7.4 4.4c-.8 2-3.1 5.5-4 7.3z"/><path class="st1" d="M117.3 164.9l-6.8-3.7c-.3-.2-.6-.4-.8-.6l6.8 3.7c.3.3.5.5.8.6z"/><path class="st2" d="M120.3 156.1l-6.7-4.3c1.7-1.2 3.4-2.4 4.9-3.7l9.2 2.1c-1.5 1.3-5.6 4.7-7.4 5.9z"/><path class="st3" d="M163.7 69.8l-6.8-3.7c.2 0 .4 0 .6.1l6.8 3.7c-.3 0-.4-.1-.6-.1z"/><path class="st4" d="M164.2 69.9l-6.8-3.7c.2.1.4.1.6.2l6.8 3.7c-.1-.1-.4-.1-.6-.2z"/><path class="st2" d="M164.9 70.1l-7.6-4s.9.3.9.4l6.7 3.6c0 .1 0 .1 0 0z"/><path class="st1" d="M160.4 85.9l-8.2-5.2c.1-1 .1-2.1.1-3.1s0-2-.1-3.1l9.5 2.2c0 1 .8 3.7.8 4.8 0 1-2 3.3-2.1 4.4z"/><path class="st5" d="M134.7 121.7l-6.9-3.8 13.2 2.8 6.9 3.7-13.2-2.7z"/><path class="st6" d="M151.5 119.1l-7.6-4.1-10.6-8.9 7.3 4 10.9 9zm-26.1 32.7l-6.9-3.7-4.2-13.7 9.2 1 1.9 16.4z"/><path class="st1" d="M123.8 141.2l-9.5-6.7c-.3-1-.3-2.5.8-4.3l7.6 3.6c-.3.9.8 6.4 1.1 7.4z"/><path class="st0" d="M121.3 135.1l-6.8-3.7c.1-.2.2-.5.3-.7l6.8 3.7c-.2.3-.3.5-.3.7z"/><path class="st7" d="M121.6 134.5l-6.8-3.7c.1-.2.2-.4.3-.5l6.8 3.7c-.1.1-.2.3-.3.5z"/><path class="st8" d="M121.9 133.9l-6.8-3.7c.1-.2.2-.3.4-.5l6.8 3.7c-.2.2-.3.4-.4.5z"/><path class="st9" d="M122.2 133.5l-6.8-3.7.2-.2c.8-.9 1.7-1.7 2.5-2.7l8.6 1.8c-.8.9-3.4 3.7-4.3 4.6 0 .1-.1.1-.2.2z"/><path class="st8" d="M124.6 133.1l-6.5-6.2c1.8-2 3.5-4.2 5.1-6.4l9.2 3.7c-1.6 2.2-6 6.9-7.8 8.9z"/><path class="st7" d="M130 124.2l-6.8-3.7c.1-.2.3-.4.4-.6l6.8 3.7c-.2.2-.3.4-.4.6z"/><path class="st8" d="M130.3 124.2l-7.5-3.2c.1-.2.8-1.3 1.1-1.6l6.8 3.7c-.1.2-.3.9-.4 1.1z"/><path class="st8" d="M127.9 127.8l-4-8.3c.5-.7 1.3-1.1 1.8-1.3l6 4.3c0 .3-3.6 5.2-3.8 5.3z"/><path class="st2" d="M131.2 122.7l-6.8-3.7c.2-.1.3-.3.5-.4l6.8 3.7c-.2.2-.4.3-.5.4z"/><path class="st4" d="M131.6 122.3l-7-3.5c.4-.4.9-.5 1.1-.6l6.5 3.7c-.1.2-.4.3-.6.4z"/><path class="st3" d="M132.1 124l-6.6-5.7c.4-.2.8-.3 1.2-.4s.8 0 1.2 0l7.1 3.8c-.4-.1-.2 1.5-.6 1.6s-1.9.5-2.3.7z"/><path class="st1" d="M145.4 89.5l-6.9-3.8 13.7-5.1 6.8 3.8-13.6 5.1zm-5 20.6l-6.8-3.7c-1.2-1-1.6-2.8-1-4.6 1.3-3.9 2.3-8 2.9-12 .1-.3.1-.7.3-1l7.7 2.9c-.1.3-1.1 1.5-1.2 1.8-.6 4.1-1.6 8.1-2.9 12-.6 1.7-.2 3.5 1 4.6z"/><path class="st0" d="M142.5 92.4l-6.9-3.3c.1-.5.3-.9.4-1.1l6.8 3.7c-.1.3-.2.5-.3.7z"/><path class="st7" d="M142.8 91.8L136 88c.1-.2.2-.4.3-.5l6.8 3.7-.3.6z"/><path class="st8" d="M143.1 91.4l-6.8-3.9c.1-.2.3-.4.5-.6l6.8 3.7c-.2.3-.4.7-.5.8z"/><path class="st9" d="M143.5 90.8l-6.8-3.7.4-.4 6.8 3.7c-.1.1-.3.2-.4.4z"/><path class="st2" d="M143.9 90.4l-6.8-3.7c.2-.1.3-.3.5-.4l6.8 3.7c-.2.1-.3.2-.5.4z"/><path class="st4" d="M144.4 90l-6.8-3.7c.2-.1.4-.3.6-.4l6.8 3.7c-.2.1-.4.2-.6.4z"/><path class="st1" d="M142.7 93.2l-7.3-3c.2-3.3 2.5-4.2 3.4-4.7l6.6 3.9c-.1.1-2.6 3.8-2.7 3.8z"/><path class="st6" d="M116.5 164.3l-6.8-3.7-9.6-10.1 7 3.4 9.4 10.4z"/><path class="st10" d="M149.7 69l-6.8-4.2 14.4 1.3 7.3 3.9-14.9-1z"/><path class="st3" d="M84 169.6l-6.8-3.7c.9-.1 1.9-.2 2.8-.3s2.1-.4 3-.6l11.5 5.4c-.9.2-9.1 4.7-10 4.8s.5-5.7-.5-5.6z"/><path class="st9" d="M89.7 168.8l-6.8-3.8 2.9-14.9 6.9 3.5-3 15.2z"/><path class="st1" d="M92.7 153.6l-6.8-3.7c.1-.3.1-.5.2-.8l6.8 3.7c-.1.3-.2.6-.2.8z"/><path class="st0" d="M92.9 152.9l-6.8-3.7c.1-.2.2-.5.3-.7l6.8 3.7c-.1.2-.2.4-.3.7z"/><path class="st7" d="M93.2 152.2l-6.8-3.7c.1-.2.2-.4.3-.5l6.8 3.7c-.1.1-.2.3-.3.5z"/><path class="st8" d="M93.5 151.7l-6.8-3.7c.1-.2.2-.3.4-.5l6.8 3.7c-.1.2-.3.3-.4.5z"/><path class="st9" d="M93.9 151.2l-6.8-3.7.4-.4 6.8 3.7-.4.4z"/><path class="st2" d="M92.1 157.9l-6.3-7.8c.5-2.6 2.4-3.6 2.8-3.8l6.5 4.1c-.2.1-2.8 7.4-3 7.5z"/><path class="st4" d="M94.8 150.4l-6.8-3.7c.2-.1.4-.3.6-.4l7.2 3.8c-.2.1-.8.2-1 .3z"/><path class="st2" d="M93 153.8l-4.4-7.5c.2-.1.3-.2.5-.2 2.5-.8 5.4-1.9 7.8-3l6.7 3.9c-2.4 1.1-4.9 2.1-7.4 2.9-.1.1-3 3.9-3.2 3.9z"/><path class="st4" d="M103.3 147.1l-6.7-3.9c1.1-.5 2.3-1.1 3.4-1.7.1 0 .2-.1.2-.1l7.1 3.7c-.1 0-.6.3-.6.3-1.2.6-2.3 1.2-3.4 1.7z"/><path class="st4" d="M107 145.3l-6.8-3.9c.4-.2.8-.3 1.2-.4.5-.1 1 0 1.4.1l7.1 3.9c-.4-.1-.9-.2-1.4-.2-.5.1-1.1.3-1.5.5z"/><path class="st4" d="M109.6 144.8l-6.8-3.7c.2.1.4.1.6.2l7 3.9-.8-.4z"/><path class="st2" d="M107.1 145.6l-3.7-4.3s.1 0 .1.1l6.9 3.8s-3.3.5-3.3.4z"/><path class="st1" d="M78.6 178.1l-6.8-3.7c-.9-.5-1.5-1.4-1.8-2.5l7 3.4c.3 1.1.7 2.3 1.6 2.8z"/><path class="st11" d="M140.5 57.8l-6.8-3.8L144 42.5l9.8 1.6-13.3 13.7z"/><path class="st1" d="M144.1 76.6l-6.8-3.7c-.9-.5-1.6-1.5-1.8-2.7-.6-3.9-1.6-7.7-2.9-11.2-.4-1-.3-2.1.1-3.2l6.8 3.7c-.4 1.1-.4 2.2-.1 3.2 1.3 3.5 2.3 7.3 2.9 11.2.2 1.2.9 2.2 1.8 2.7z"/><path class="st0" d="M139.1 61.5l-6.4-5.7c.1-.2.2-.5.3-.7l8.9 2.8c-.1.2-2.7 3.3-2.8 3.6z"/><path class="st7" d="M139.8 58.8l-6.8-3.7c.1-.2.2-.4.3-.5l6.8 3.7c-.1.1-.2.3-.3.5z"/><path class="st8" d="M139.8 59.1l-6.9-3.9c.1-.2.6-1 .8-1.2l7.5 3.5c-.1.2-1.3 1.5-1.4 1.6z"/><path class="st9" d="M140.5 57.8l-6.8-3.7 6.8 3.7z"/><path class="st1" d="M152 46.9l-8-4.4c-.9-1.7-1.8-3.4-2.8-4.9l6.8 3.7c1 1.6 3.1 3.9 4 5.6z"/><path class="st4" d="M148.5 32l-6.8-3.7h.1l6.7 3.7z"/><path class="st3" d="M148.7 32.4l-7-4.1c.4-.2.8-.3 1.2-.4.5-.1.9 0 1.4.1l7.3 3.9c-.4-.1-1.1 0-1.6 0-.5.1-.9.3-1.3.5z"/><path class="st4" d="M151.1 31.7l-6.8-3.7c.2.1.4.1.6.2l7.2 3.9c-.2 0-.8-.3-1-.4z"/><path class="st2" d="M151.7 32l-6.8-3.7s.1 0 .1.1l6.8 3.7c0-.1 0-.1-.1-.1z"/><path class="st6" d="M76.8 175.6l-6.8-3.7-3-14.7 6.8 3.7 3 14.7z"/><path class="st12" d="M135.2 39.2l-7.1-4.3 13.8-6.7 7.2 4-13.9 7z"/><path class="st8" d="M62.7 152.5l-6.8-3.7.3-.3 6.8 3.7-.3.3z"/><path class="st9" d="M63 152.2l-6.8-3.7.4-.4 6.8 3.7c-.2.1-.3.3-.4.4z"/><path class="st2" d="M63.4 151.8l-6.8-3.7c.2-.1.3-.3.5-.4l6.8 3.7c-.2.1-.4.3-.5.4z"/><path class="st4" d="M62.5 153.1l-7.1-3.7c.8-1.3 2.2-2.1 2.7-2.3l7.1 3.9c-.1.2-2.4 2-2.7 2.1z"/><path class="st3" d="M64.5 151l-6.8-3.7c.4-.2.8-.3 1.2-.4.5-.1.9 0 1.4.1l7.2 3.9c-.5-.1-1.3-.2-1.8-.2l-1.2.3z"/><path class="st4" d="M67 150.8l-6.8-3.7c.1 0 .2.1.3.1l6.8 3.7c0-.1-.1-.1-.3-.1.1 0 .1 0 0 0z"/><path class="st3" d="M67.4 150.9l-7.3-3.9c3.5.6 7.4 1.6 11 1.7.3 0 .5 0 .7.1l7.1 3.9c-.2-.1-.8-.1-1-.1-3.6-.2-7.1-.9-10.5-1.7z"/><path class="st4" d="M78.6 152.9l-7.6-4.3c.2.1 1.1.1 1.4.3l7.4 4.1c-.2 0-1-.1-1.2-.1z"/><path class="st2" d="M78.4 152.6l-6-3.6s.1 0 .1.1l7.3 4s-1.3-.5-1.4-.5z"/><path class="st13" d="M51.8 170l-5.3-8.8 9.4-12.4 6.8 3.7L51.8 170z"/><path class="st1" d="M131.5 47.8l-6.8-3.7c-.4-.2-.7-.5-1-.8-2.4-2.8-5-5.3-7.9-7.4-1.3-1-1.8-2.7-1.3-4.5l8.8.9c-.5 1.8-2 6.3-.7 7.3 2.9 2.1 5.5 4.6 7.9 7.4.3.3.6.6 1 .8z"/><path class="st2" d="M48.4 162.6l-6.8-3.7c.5.3 1.1.6 1.6.8l6.8 3.7c-.5-.2-1-.5-1.6-.8z"/><path class="st4" d="M50 163.4l-6.8-3.7 3.3 1.5 6.8 3.7c-1.1-.4-2.2-.9-3.3-1.5z"/><path class="st2" d="M67 128.4l-6.8-3.7c.4.2.8.4 1.1.6l6.8 3.7c-.4-.2-.8-.4-1.1-.6z"/><path class="st4" d="M68.1 129l-6.8-3.7c1.9.9 3.9 1.7 5.9 2.2l6.8 3.7c-2-.5-4-1.3-5.9-2.2z"/><path class="st3" d="M74 131.2l-6.8-3.7c4 1 8.4 1.3 12.9.7l14.3 3.2c-8.5 4.2-16.3.8-20.4-.2z"/><path class="st3" d="M86.3 135.2l-6.2-7c3.8-.5 7.5-1.7 10.9-3.3l14.1 1.3c-3.4 1.6-15 8.4-18.8 9z"/><path class="st4" d="M96 131l-4.9-6.1c2.1-1 4.1-2.2 6.1-3.5l10.6 2c-2 1.3-9.7 6.6-11.8 7.6z"/><path class="st2" d="M103.9 125.1l-6.8-3.7c1.6-1.1 3.1-2.3 4.5-3.6l11.5.7c-1.4 1.3-7.6 5.5-9.2 6.6z"/><path class="st9" d="M108.5 121.5l-6.8-3.7c1.3-1.2 2.6-2.5 3.8-3.9l13.6 1.1c-1.2 1.4-9.3 5.3-10.6 6.5z"/><path class="st8" d="M112.3 117.6l-6.8-3.7c1.2-1.4 2.3-2.8 3.4-4.3l6.8 3.7c-1.1 1.5-2.2 3-3.4 4.3z"/><path class="st7" d="M115.4 118l-6.5-8.4c1.1-1.6 2.1-3.2 3.1-5l6.8 3.7c-1 1.8-2.3 8.1-3.4 9.7z"/><path class="st0" d="M119.6 110l-7.6-5.3c1.1-2 2-4.1 2.8-6.3l8.9 1.7c-.8 2.1-3.1 7.8-4.1 9.9z"/><path class="st1" d="M121.6 102.1l-6.8-3.7c1.8-5 2.9-10.4 2.9-15.9 0-14.4-6.9-26-17.4-31.7l6.8 3.7c10.5 5.7 17.4 17.4 17.4 31.7 0 5.5-1.1 10.8-2.9 15.9z"/><path class="st14" d="M121.3 35.1l-6.8-3.7 4.3-14.9 7.1 3.5-4.6 15.1z"/><path class="st1" d="M43.8 170.3l-6.8-3.7c-.8-.4-1.6-.9-2.4-1.4-1.5-.9-2.2-2.7-1.6-4.6l10.2.1c-.5 1.9-3.2 7.3-1.8 8.2.8.5 1.6 1 2.4 1.4z"/><path class="st14" d="M39.9 164.3l-6.9-3.7 4.5-15.5 6.8 3.9-4.4 15.3z"/><path class="st8" d="M116.8 10.2L110 6.5l.3-.3 6.8 3.7-.3.3z"/><path class="st9" d="M117.1 9.9l-6.8-3.7.4-.4 6.8 3.7c-.2.1-.3.2-.4.4z"/><path class="st2" d="M117.5 9.5l-6.8-3.7c.2-.1.3-.3.5-.4l6.8 3.7c-.2.1-.4.2-.5.4z"/><path class="st4" d="M117.4 11.1l-7.7-4.2c.4-.6 1.8-1.7 2-1.8l8 3.9c-.1 0-2 1.9-2.3 2.1z"/><path class="st3" d="M118.6 9.2l-7.2-4c.6-.4 1.2-.5 1.6-.6.5-.1.9 0 1.4.1l6.8 3.7c-.5-.1-.6.3-1.1.3-.4.1-1.1.3-1.5.5z"/><path class="st4" d="M120.9 8.9l-6.5-4.2c.1 0 .2.1.3.1 2.3.9 4.4 1.8 6.5 2.8l6.8 3.7c-2.1-1-4.2-1.9-6.5-2.8-.1 0-.5.5-.6.4z"/><path class="st2" d="M128 11.3l-6.8-3.7c.8.4 1.5.8 2.3 1.2l6.8 3.7c-.8-.4-1.5-.8-2.3-1.2z"/><path class="st13" d="M107.5 25l-7.1-5.8L110 6.5l7.5 4.2-10 14.3z"/><path class="st1" d="M44.3 149l-6.8-3.7c-1.8-1.5-3.5-3.1-5.2-4.9l7 3.2c1.6 1.8 4 3.7 5 5.4z"/><path class="st4" d="M39.2 135.1l-6.8-3.7h.1l6.7 3.7s.1-.1 0 0z"/><path class="st3" d="M39.3 135l-6.8-3.7c.4-.2.8-.3 1.2-.4.5-.1.9 0 1.4.1l6.8 3.7c-.4-.1-.9-.1-1.4-.1-.5.1-.8.3-1.2.4z"/><path class="st4" d="M41.8 134.8L35 131c.2.1.4.1.6.2l6.8 3.7c-.1 0-.3-.1-.6-.1z"/><path class="st2" d="M42.5 135l-6.8-3.7s.1 0 .1.1l6.8 3.7-.1-.1z"/><path class="st3" d="M100.1 22.5l-6.7-4.3c2.4.2 4.7.5 7 1l7.6 4.1c-2.3-.4-5.5-.6-7.9-.8zm-13 19.6l-6.8-3.7c5.5-.8 10.9-.5 15.8.8l6.8 3.7c-4.9-1.3-10.2-1.6-15.8-.8z"/><path class="st4" d="M98 45.4l-1.9-6.2c2.5.7 4.9 1.5 7.2 2.7l6.8 3.7c-2.3-1.2-9.6.4-12.1-.2z"/><path class="st2" d="M110.1 45.5l-6.8-3.7c.5.2.9.5 1.4.7l6.8 3.7c-.4-.2-.9-.4-1.4-.7z"/><path class="st1" d="M94.7 30.1l-6.8-3.7c-.9-.5-1.5-1.4-1.8-2.5l7.8 1.6c.2 1.1-.1 4.1.8 4.6z"/><path class="st12" d="M26 141.5l-6.8-5.1 14.1-5.4 8.5 3.7-15.8 6.8z"/><path class="st6" d="M92.9 27.6l-6.8-3.7-2.9-14.3 6.8 3.7 2.9 14.3z"/><path class="st11" d="M15.6 133.5l-6.9-3.8 11-12.2 7 3.5-11.1 12.5z"/><path class="st1" d="M22.2 150.8l-6.8-3.7c-.4-.2-.8-.6-1.1-1-2.3-3.3-4.4-7-6.4-11.1-.5-1.1-.9-2.5.4-4.8l6.3 5c-.4 1.2-.4 2.4.1 3.5 1.9 4.1 4.1 7.9 6.4 11.1.2.4.6.8 1.1 1z"/><path class="st0" d="M14.7 136.8l-7.3-4c.1-1.2.6-2 .7-2.2l6.8 3.7c-.1.4-.1 2.3-.2 2.5z"/><path class="st7" d="M14.9 134.5l-6.8-3.7c.2-1 1.7-2.2 1.8-2.3l7.1 4.2c-.1.1-2 1.6-2.1 1.8z"/><path class="st8" d="M15.2 133.9l-6.8-3.7c.1-.2.2-.3.4-.5l6.8 3.7c-.2.2-.3.4-.4.5z"/><path class="st9" d="M15.6 133.5l-6.8-3.7 6.8 3.7z"/><path class="st1" d="M26.2 121.6l-6.8-3.7c-.7-2.4-1.4-4.8-1.9-7.3l6.8 3.7c.5 2.5 1.1 5 1.9 7.3z"/><path class="st3" d="M28.6 105.9l-6.8-3.7c.2 0 .4 0 .5.1l6.8 3.7c-.1-.1-.3-.1-.5-.1z"/><path class="st4" d="M29.2 106l-6.8-3.7c.2.1.4.1.6.2l6.8 3.7c-.2-.1-.4-.2-.6-.2z"/><path class="st2" d="M29.8 106.2l-6.8-3.7s.1 0 .1.1l6.8 3.7c0-.1-.1-.1-.1-.1z"/><path class="st1" d="M63.7 37.7L56.9 34c-.3-.2-.6-.4-.8-.6l6.8 3.7c.2.3.5.5.8.6z"/><path class="st4" d="M67.1 28.6l-6.8-3.7c.4-.2.9-.4 1.3-.6l6.8 3.7c-.5.2-.9.4-1.3.6z"/><path class="st3" d="M67 30.6l-5.4-6.3c1.9-.9 3.8-1.7 5.7-2.4l9.6 4.1c-1.9.7-8.1 3.7-9.9 4.6z"/><path class="st15" d="M75.6 26.5l-8.4-4.6 3.1-15.5 10.8 2.2-5.5 17.9z"/><path class="st1" d="M77.1 10.1l-6.8-3.7c.1-.3.1-.5.2-.8l6.8 3.7c0 .3-.1.5-.2.8z"/><path class="st0" d="M77.3 9.3l-6.8-3.7c.1-.2.2-.5.3-.7l6.8 3.7c-.1.2-.2.5-.3.7z"/><path class="st7" d="M77.6 8.6l-6.8-3.7c.1-.2.2-.4.3-.5l6.8 3.7c0 .2-.2.3-.3.5z"/><path class="st15" d="M77.6 12.7L71 4.5c.1-.2.5-.6.7-.8l8.6 3c-.2.2-2.6 5.8-2.7 6z"/><path class="st9" d="M78.3 7.6l-6.8-3.7.4-.4 6.8 3.7c-.1.2-.2.3-.4.4z"/><path class="st15" d="M77.6 12.7L70 7.1c.4-3 2.1-3.9 2.3-4l8.4 3.6c0 .2-2.9 5.9-3.1 6z"/><path class="st4" d="M79.8 7.6l-7.4-4.5c.2-.1.8-.4 1.1-.5l8 4.2c-.2.2-1.5.7-1.7.8z"/><path class="st3" d="M80.7 7.5L73 2.8l.9-.3c2.1-.5 4.3-.9 6.5-1.2 2.1-.3 4.3-.5 6.4-.6.4 0 .7 0 1.1.1l6.8 3.7c-.3-.1-.3 1.1-.7 1.1-2.1.1-3.9.3-6 .6-2.2.3-4 .5-6.2 1-.3-.1-.8.1-1.1.3z"/><path class="st4" d="M94.3 4.8l-6.4-4c.2.1.4.1.6.2l6.8 3.7c-.2-.1-.8.1-1 .1z"/><path class="st2" d="M95.3 4.7L88.5 1s.1 0 .1.1l6.8 3.7c0-.1 0-.1-.1-.1z"/><path class="st1" d="M62.5 136.6l-6.8-3.7c-12.8-7-21.3-21.2-21.3-38.8 0-6.7 1.3-13.3 3.5-19.4l11.5 2.7c-2.3 6.1-8.2 13.7-8.2 20.4 0 17.6 8.5 31.9 21.3 38.8z"/><path class="st0" d="M44.8 78.5l-6.9-3.8c1-2.7 2.2-5.2 3.6-7.7L52 68.4c-1.4 2.5-6.3 7.4-7.2 10.1z"/><path class="st7" d="M48.2 70.8l-6.8-3.7c1.1-2.1 2.4-4.1 3.7-6.1l13.3-.6c-1.3 2-9 8.3-10.2 10.4z"/><path class="st8" d="M52 64.7L45.1 61c1.3-1.8 2.7-3.6 4.1-5.2l11.7.9c-1.4 1.6-7.6 6.2-8.9 8z"/><path class="st9" d="M56.1 59.5l-6.8-3.7c1.5-1.7 3-3.3 4.7-4.7l16.7-2.9c-1.8 1.4-13.1 9.6-14.6 11.3z"/><path class="st2" d="M60.8 54.7L54 51c1.8-1.6 3.6-3.1 5.5-4.4l6.8 3.7c-1.9 1.4-3.7 2.9-5.5 4.4z"/><path class="st4" d="M66.3 50.4l-6.8-3.7c2.4-1.6 4.9-3.1 7.4-4.3l18.6-.2c-2.5 1.2-16.8 6.5-19.2 8.2z"/><path class="st3" d="M73.8 46.1L67 42.4c4.2-2 8.7-3.4 13.3-4l13.1 3.5c-4.6.6-15.4 2.2-19.6 4.2z"/><path d="M87.1 42.1c25.2-3.5 45.7 15.7 45.7 43-.1 27.2-20.6 52.3-45.9 55.8-25.2 3.5-45.7-15.7-45.7-43 .1-27.2 20.7-52.3 45.9-55.8zm-.2 89.8c20.7-2.9 37.5-23.4 37.5-45.7S107.7 48.1 87.1 51c-20.6 2.9-37.5 23.4-37.5 45.7-.1 22.3 16.7 38.1 37.3 35.2z" fill="#b4d1fa" stroke="#000" stroke-width=".4" stroke-miterlimit="10"/><path class="st10" d="M13.5 106.2l-5.3-5.7 14.7 1.8 7.1 4-16.5-.1z"/><path class="st1" d="M25.3 87.4l-7.7-5c.5-2.6 1.1-5.3 1.9-7.8l8.7 3.2c-.8 2.6-2.4 7-2.9 9.6z"/><path class="st6" d="M62.9 37.1l-6.8-3.7-9.3-9.8 6.8 3.7 9.3 9.8z"/><path class="st8" d="M40 53.6l-7.5-5.2c1.4-1.9 2.9-3.7 4.4-5.4l8.4 4.5c-1.6 1.7-3.9 4.2-5.3 6.1z"/><path class="st9" d="M44.8 49l-8.3-5.6c.3-.3.9-1.1 1.2-1.4l7.7 4.1c-.3.4-.4 2.7-.6 2.9z"/><path d="M11.6 92.1l-8-4.5 14.1-5.2 8.5 4.7-14.6 5z" fill="#75202e"/><path class="st1" d="M9.1 112.6l-6.8-3.7c-1-.6-1.7-1.7-1.8-3-.2-2.3-.3-4.6-.3-6.9s.2-4.7.3-7c0-.5.1-.9.3-1.4l6.8 3.7c-.2.4-.3.9-.3 1.4-.2 2.3-.3 4.7-.3 7 0 2.4.8 4.4 1 6.7 0 1.4 0 2.7 1.1 3.2z"/><path class="st0" d="M7.5 94.3L.7 90.6c.1-.2.2-.5.3-.7l6.8 3.7c-.1.3-.2.5-.3.7z"/><path class="st7" d="M7.8 93.6L1 89.9c.1-.2.2-.4.3-.5l6.8 3.7c0 .2-.2.4-.3.5z"/><path class="st1" d="M8.1 108.8L.4 95.3c-.5-7.2 2.5-7.3 4.3-8.1l4 5.4c-.3.2-.5 16.1-.6 16.2z"/><path class="st9" d="M8.5 92.7L1.7 89l.4-.4 6.8 3.7-.4.4z"/><path class="st2" d="M8.8 93.1l-6.7-4.5c.2-.1.3-.3.5-.4l7.9 3.7c-.1.1-1.5 1-1.7 1.2z"/><path class="st4" d="M9.4 91.9l-6.8-3.7c.2-.1.4-.3.6-.4l6.8 3.7c-.2.1-.4.2-.6.4z"/><path class="st3" d="M10.1 92.4l-6.8-4.6c.1-.1 1.2-.6 1.3-.6l8.8 4.2c-.1 0-3.2.9-3.3 1z"/><path class="st6" d="M45.3 46.5l-7.7-4.4L33.3 28l7.8 3.6 4.2 14.9z"/><path class="st1" d="M40.1 31.7L33.3 28c-.3-1-.2-2 .1-3l6.8 3.7c-.3 1-.4 2.1-.1 3z"/><path class="st0" d="M40.2 28.7L33.4 25c.1-.2.2-.5.3-.7l6.8 3.7c-.1.3-.2.5-.3.7z"/><path class="st7" d="M40.5 28.1l-6.8-3.7c.1-.2.2-.4.3-.5l6.8 3.7c-.1.1-.2.3-.3.5z"/><path class="st6" d="M41.2 32.5L33.3 28c-.7-2.7.9-4.5 1.1-4.7l6.8 3.7c-.1.2.1 5.4 0 5.5z"/><path class="st9" d="M41.7 30.1l-7.3-6.7.4-.4 8.2 4.1c-.1.1-1.2 2.8-1.3 3z"/><path class="st2" d="M43.5 27.9L34.8 23c2.7-2.4 5.7-4.7 8.9-6.9l6.8 3.7c-.7 5.1-4.2 5.7-7 8.1z"/><path class="st4" d="M48.9 23.9l-5.8-7.4c.8-.5 2.1-1.5 2.9-2l1-.5 9.5 3.8c-.2.1-2 1.7-2.1 1.8-.7.5-4.7 3.8-5.5 4.3z"/><path class="st3" d="M53.4 17.9l-6.9-3.7c.4-.2.9-.3 1.3-.4.5-.1.9 0 1.4.1l6.8 3.7c-.4-.1-.9-.1-1.4-.1-.4.1-.8.2-1.2.4z"/><path class="st4" d="M55.9 17.6l-6.8-3.7c.2.1.4.1.6.2l6.8 3.7c-.1-.1-.3-.2-.6-.2z"/><path class="st2" d="M56.6 17.8l-7.5-3.9s.8.2.8.3l6.8 3.7c-.1 0-.1-.1-.1-.1z"/><path class="st6" d="M28.2 79.1l-8.8-4.5-10.5-8.9 6.8 3.7 12.5 9.7z"/><path class="st5" d="M25.5 50.6l-6.6-5 13.5 2.8 8.1 4.4-15-2.2z"/><path class="st1" d="M21.3 73.9L8.9 65.7c-1.3-1.1-1.6-2.9-1-4.7l8.4 3.6c-.6 1.8 3.8 8.3 5 9.3z"/><path class="st0" d="M14.7 64.7L7.9 61c0-.1.1-.1.1-.2 1.4-3.4 3-6.7 4.6-9.8l8.8 4c-1.6 3.1-3.8 6.8-5.2 10.3 0 .2-1.5-.6-1.5-.6z"/><path class="st7" d="M20.7 56.8L12.6 51c.6-1.1 1.2-2.1 1.8-3.2.1-.1.2-.2.2-.4l8.2 4.4c-.1.1-1.1 1.2-1.1 1.4-.6 1-.4 2.5-1 3.6z"/><path class="st8" d="M21.4 51.2l-6.8-3.7c.1-.2.2-.3.4-.5l6.8 3.7c-.1.2-.2.4-.4.5z"/><path class="st9" d="M20.4 55l-7.8-3.9c2.2-4.4 2.8-4.5 2.8-4.5l7.9 3.6c-.1.2-2.8 4.6-2.9 4.8z"/><path class="st2" d="M22.3 52.3l-6.9-5.7c.3-.3.8-.5 1-.6l6.3 3.9c-.2.2-.2 2.3-.4 2.4z"/><path class="st4" d="M22.7 50l-6.8-3.7c.2-.1.4-.3.6-.4l6.8 3.7c-.2.1-.4.2-.6.4z"/><path class="st3" d="M23.2 50.9l-6.7-5c.4-.2.8-.3 1.2-.4.4-.1.8 0 1.2.1l6.8 3.6c-.4-.1-.8-.1-1.2 0-.4.1-.9 1.5-1.3 1.7z"/><path d="M166.8 73.3c.2 2.3.3 4.6.3 6.9 0 2.4-.2 4.7-.3 7-.1 1.9-1.4 3.7-3.2 4.3l-14 5.2c-.5 2.6-1.1 5.3-1.9 7.8l10.5 8.8c1.3 1.1 1.7 3.1.9 4.9-1.9 4.7-4.1 9-6.4 12.9-.8 1.3-2 2.2-3.3 2.3-.4.1-.8 0-1.2 0l-13.6-2.8c-1.6 2.2-3.4 4.3-5.2 6.3l4.3 14c.5 1.7-.1 3.8-1.5 5.1-3.3 3-7.1 5.8-11.2 8.5-.6.4-1.1.6-1.7.7-1.1.2-2.2-.2-3-1l-9.6-10.1c-2.3 1.1-4.6 2.1-7 3l-3 15.5c-.4 1.9-1.8 3.5-3.6 3.9-2.1.5-4.3.9-6.4 1.3-2.2.3-4.3.4-6.4.6-1.8.1-3.2-1.1-3.6-2.9l-3-14.6c-2.4-.2-4.7-.5-7-1l-9.6 12.7c-.8 1-1.9 1.7-3 1.8-.6.1-1.2 0-1.7-.2-4.1-1.5-7.8-3.3-11.1-5.3-1.5-.9-2.1-2.8-1.5-4.7l4.4-15.3c-1.8-1.5-3.5-3.1-5.2-4.9l-13.6 6.6c-.4.2-.8.3-1.2.4-1.3.2-2.5-.3-3.3-1.4-2.3-3.3-4.4-7-6.4-11.1-.8-1.6-.4-3.7.9-5.2L26 121.5c-.7-2.4-1.4-4.8-1.9-7.3L10.4 113c-1.7-.2-3-1.6-3.1-3.4-.2-2.3-.3-4.6-.3-6.9s.2-4.7.3-7c.1-1.9 1.4-3.7 3.2-4.3l14-5.2c.5-2.6 1.1-5.3 1.9-7.8l-10.5-8.9c-1.3-1.1-1.7-3.1-.9-4.9 1.9-4.7 4.1-9 6.4-12.9.8-1.3 2-2.2 3.3-2.3.4-.1.8 0 1.2 0l13.6 2.8c1.6-2.2 3.4-4.3 5.2-6.3l-4.3-14c-.5-1.7.1-3.8 1.5-5.1 3.3-3 7.1-5.8 11.2-8.5.6-.4 1.1-.6 1.7-.7 1.1-.2 2.2.2 3 1l9.6 10.1c2.3-1.1 4.6-2.1 7-3l3-15.5c.4-1.9 1.8-3.5 3.6-3.9 2.1-.5 4.3-.9 6.5-1.2 2.1-.3 4.3-.5 6.4-.6 1.8-.1 3.2 1.1 3.6 2.9l3 14.6c2.4.2 4.7.5 7 1l9.6-12.8c.8-1 1.9-1.7 3-1.8.6-.1 1.2 0 1.7.2 4.1 1.5 7.8 3.3 11.1 5.3 1.4.9 2.1 2.8 1.5 4.7L130 33.9c1.8 1.5 3.5 3.1 5.2 4.9l13.6-6.6c.4-.2.8-.3 1.2-.4 1.3-.2 2.5.3 3.3 1.4 2.3 3.3 4.4 7 6.4 11.1.8 1.6.4 3.7-.9 5.2l-10.6 11.8c.8 2.4 1.4 4.8 1.9 7.3l14 1.3c1.3.1 2.6 1.5 2.7 3.4zM159 84.4c.1-1 .1-2.1.1-3.1s0-2-.1-3.1L145.4 77c-1.6-.1-2.8-1.4-3.1-3.1-.6-3.9-1.6-7.7-2.9-11.2-.6-1.6-.2-3.5 1.1-4.9l10.3-11.5c-.9-1.7-1.8-3.4-2.8-4.9l-13.2 6.4c-.4.2-.8.3-1.2.4-1.2.2-2.3-.2-3.1-1.2-2.4-2.8-5-5.3-7.9-7.4-1.3-1-1.8-2.7-1.3-4.5l4.3-14.8c-1.6-.8-3.2-1.6-4.9-2.3l-9.3 12.4c-.8 1-1.9 1.7-3 1.8-.5.1-1 0-1.4-.1-3.5-.9-7.1-1.5-10.8-1.6-1.6-.1-2.9-1.2-3.3-2.9L90 13.3c-.9.1-1.9.2-2.8.3s-1.9.3-2.8.5l-3 15.1c-.4 1.8-1.7 3.3-3.3 3.8-3.7 1.2-7.3 2.7-10.8 4.6-.5.3-.9.4-1.4.5-1.1.2-2.2-.2-3-1l-9.3-9.8c-1.7 1.2-3.4 2.4-4.9 3.7l4.2 13.7c.5 1.6 0 3.5-1.3 4.8-2.9 3-5.6 6.2-7.9 9.7-.8 1.1-1.9 1.9-3.1 2-.4.1-.8 0-1.2 0l-13.2-2.7c-1 1.8-1.9 3.7-2.8 5.7l10.3 8.6c1.2 1 1.6 2.8 1 4.6-1.3 3.9-2.3 8-2.9 12-.3 1.8-1.5 3.4-3.1 4L15 98.5c-.1 1-.1 2-.1 3.1 0 1 0 2.1.1 3.1l13.6 1.2c1.6.1 2.8 1.4 3.1 3.1.6 3.9 1.6 7.7 2.9 11.2.6 1.6.2 3.5-1.1 4.9l-10.3 11.5c.9 1.7 1.8 3.4 2.8 4.9l13.2-6.4c.4-.2.8-.3 1.2-.4 1.2-.2 2.3.2 3.1 1.1 2.4 2.8 5 5.3 7.9 7.4 1.3 1 1.8 2.7 1.3 4.5l-4.3 14.9c1.6.8 3.2 1.6 4.9 2.3l9.3-12.4c.8-1 1.9-1.7 3-1.8.5-.1 1 0 1.4.1 3.5.9 7.1 1.5 10.8 1.6 1.6.1 2.9 1.2 3.3 2.9l2.9 14.3c.9-.1 1.9-.2 2.8-.3s1.9-.3 2.8-.5l3-15.1c.4-1.8 1.7-3.3 3.3-3.8 3.7-1.2 7.3-2.7 10.8-4.6.5-.3.9-.4 1.4-.5 1.1-.2 2.2.2 3 1l9.3 9.8c1.7-1.2 3.4-2.4 4.9-3.7l-4.2-13.7c-.5-1.6 0-3.5 1.3-4.9 2.9-3 5.6-6.2 7.9-9.7.8-1.1 1.9-1.9 3.1-2 .4-.1.8 0 1.2 0l13.2 2.7c1-1.8 1.9-3.7 2.8-5.7l-10.3-8.6c-1.2-1-1.6-2.8-1-4.6 1.3-3.9 2.3-8 2.9-12 .3-1.8 1.5-3.4 3.1-4l13.7-5z" fill="#a62e41" stroke="#000" stroke-width=".4"/></svg>