<svg width="192" height="200" fill="none" xmlns="http://www.w3.org/2000/svg"><path d="M163.359 135.648l-6.513-5.032c.987-1.777 2.27-4.54 3.158-6.513l7.302 4.342c-.789 1.973-3.059 5.427-3.947 7.203z" fill="#5A1923"/><path d="M133.556 174.036l-6.71-3.652c-.296-.197-.592-.394-.79-.592l6.711 3.652c.296.296.493.493.789.592z" fill="#561822"/><path d="M136.517 165.352l-6.612-4.244c1.678-1.184 3.355-2.368 4.836-3.651l9.078 2.072c-1.48 1.283-5.526 4.639-7.302 5.823z" fill="#671D28"/><path d="M179.346 80.19l-6.711-3.652c.198 0 .395 0 .592.099l6.711 3.65c-.296 0-.395-.098-.592-.098z" fill="#6E1E2B"/><path d="M179.839 80.288l-6.71-3.651c.197.098.395.098.592.197l6.71 3.651c-.098-.099-.394-.099-.592-.197z" fill="#6A1D2A"/><path d="M180.53 80.485l-7.5-3.947s.888.296.888.395l6.711 3.651c-.099 0-.099 0-.099-.099z" fill="#671D28"/><path d="M176.088 96.077l-8.092-5.132c.099-.986.099-2.072.099-3.059 0-.986 0-1.973-.099-3.059l9.375 2.171c0 .987.789 3.651.789 4.737 0 .987-1.973 3.256-2.072 4.342z" fill="#561822"/><path d="M150.728 131.405l-6.809-3.75 13.026 2.763 6.809 3.651-13.026-2.664z" fill="#6F1F2C"/><path d="M167.307 128.839l-7.5-4.046-10.46-8.782 7.203 3.947 10.757 8.881zm-25.756 32.269l-6.809-3.651-4.145-13.519 9.079.986 1.875 16.184z" fill="#531721"/><path d="M139.971 150.648l-9.375-6.612c-.296-.987-.296-2.467.789-4.243l7.5 3.552c-.296.889.79 6.316 1.086 7.303z" fill="#561822"/><path d="M137.504 144.628l-6.71-3.651c.099-.197.197-.493.296-.691l6.71 3.652c-.197.296-.296.493-.296.69z" fill="#5A1923"/><path d="M137.801 144.036l-6.71-3.651c.099-.197.197-.395.296-.493l6.71 3.651c-.098.099-.197.296-.296.493z" fill="#5D1A24"/><path d="M138.096 143.444l-6.71-3.651c.098-.197.197-.296.394-.494l6.711 3.652c-.198.197-.296.394-.395.493z" fill="#601B26"/><path d="M138.392 143.049l-6.71-3.651.197-.197c.79-.888 1.678-1.678 2.468-2.665l8.486 1.777c-.789.888-3.355 3.651-4.243 4.539 0 .099-.099.099-.198.197z" fill="#641C27"/><path d="M140.761 142.655l-6.415-6.119c1.776-1.973 3.454-4.144 5.033-6.315l9.079 3.651c-1.579 2.171-5.921 6.809-7.697 8.783z" fill="#601B26"/><path d="M146.089 133.872l-6.711-3.651c.099-.198.296-.395.395-.592l6.711 3.651c-.198.197-.297.395-.395.592z" fill="#5D1A24"/><path d="M146.386 133.872l-7.401-3.158c.099-.197.79-1.283 1.086-1.579l6.71 3.651c-.098.198-.296.889-.395 1.086z" fill="#601B26"/><path d="M144.018 137.425l-3.948-8.191c.494-.691 1.283-1.086 1.777-1.283l5.92 4.243c0 .296-3.552 5.132-3.749 5.231z" fill="#601B26"/><path d="M147.274 132.392l-6.711-3.651c.198-.099.297-.296.494-.395l6.71 3.651c-.197.198-.394.296-.493.395z" fill="#671D28"/><path d="M147.668 131.997l-6.908-3.454c.395-.395.888-.493 1.086-.592l6.414 3.651c-.099.198-.395.296-.592.395z" fill="#6A1D2A"/><path d="M148.162 133.675l-6.513-5.625c.395-.198.789-.296 1.184-.395.395-.099.79 0 1.184 0l7.007 3.75c-.395-.099-.198 1.48-.592 1.579-.395.099-1.875.493-2.27.691z" fill="#6E1E2B"/><path d="M161.287 99.63l-6.809-3.75 13.519-5.033 6.71 3.75-13.42 5.032zm-4.935 20.328l-6.71-3.651c-1.184-.987-1.579-2.763-.987-4.54 1.283-3.848 2.27-7.894 2.862-11.841.099-.297.099-.691.296-.987l7.599 2.861c-.099.297-1.086 1.481-1.185 1.777-.592 4.046-1.578 7.993-2.861 11.842-.592 1.677-.198 3.453.986 4.539z" fill="#561822"/><path d="M158.424 102.491l-6.809-3.256c.099-.494.296-.888.395-1.086l6.71 3.651a4.643 4.643 0 01-.296.691z" fill="#5A1923"/><path d="M158.721 101.899l-6.711-3.75c.099-.197.198-.395.296-.493l6.711 3.651-.296.592z" fill="#5D1A24"/><path d="M159.017 101.504l-6.71-3.848c.099-.198.296-.395.494-.592l6.71 3.651c-.197.296-.395.691-.494.789z" fill="#601B26"/><path d="M159.411 100.912l-6.711-3.65.395-.396 6.71 3.652c-.098.098-.296.197-.394.394z" fill="#641C27"/><path d="M159.806 100.518l-6.71-3.652c.197-.098.296-.296.493-.394l6.71 3.651c-.197.099-.296.197-.493.395z" fill="#671D28"/><path d="M160.299 100.123l-6.71-3.651c.197-.1.395-.296.592-.395l6.71 3.651c-.197.099-.394.197-.592.395z" fill="#6A1D2A"/><path d="M158.623 103.281l-7.204-2.961c.197-3.256 2.467-4.144 3.355-4.638l6.513 3.849c-.099.098-2.566 3.75-2.664 3.75z" fill="#561822"/><path d="M132.767 173.443l-6.71-3.651-9.474-9.967 6.908 3.356 9.276 10.262z" fill="#531721"/><path d="M165.53 79.4l-6.71-4.145 14.21 1.283 7.204 3.849-14.704-.987z" fill="#72202D"/><path d="M100.695 178.674l-6.71-3.652c.888-.098 1.875-.197 2.763-.296.888-.098 2.072-.394 2.96-.592l11.349 5.329c-.888.197-8.98 4.638-9.868 4.737-.888.099.493-5.625-.494-5.526z" fill="#6E1E2B"/><path d="M106.321 177.884l-6.71-3.75 2.862-14.703 6.809 3.454-2.961 14.999z" fill="#641C27"/><path d="M109.282 162.885l-6.711-3.652c.099-.296.099-.493.198-.789l6.71 3.651c-.099.296-.197.592-.197.79z" fill="#561822"/><path d="M109.478 162.194l-6.71-3.651c.098-.198.197-.494.296-.691l6.71 3.651a4.8 4.8 0 00-.296.691z" fill="#5A1923"/><path d="M109.775 161.503l-6.711-3.651c.099-.198.198-.395.296-.494l6.711 3.652c-.099.098-.198.296-.296.493z" fill="#5D1A24"/><path d="M110.07 161.01l-6.711-3.652c.099-.197.198-.296.395-.493l6.71 3.651c-.098.198-.296.296-.394.494z" fill="#601B26"/><path d="M110.465 160.516l-6.711-3.651.395-.395 6.71 3.652-.394.394z" fill="#641C27"/><path d="M108.69 167.128l-6.217-7.697c.494-2.566 2.369-3.553 2.763-3.75l6.415 4.046c-.198.098-2.764 7.302-2.961 7.401z" fill="#671D28"/><path d="M111.353 159.727l-6.71-3.651c.197-.099.395-.297.592-.395l7.105 3.75c-.197.098-.789.197-.987.296z" fill="#6A1D2A"/><path d="M109.577 163.082l-4.342-7.401c.197-.099.296-.198.493-.198 2.467-.789 5.329-1.874 7.697-2.96l6.612 3.849c-2.368 1.085-4.835 2.072-7.302 2.861-.099.099-2.961 3.849-3.158 3.849z" fill="#671D28"/><path d="M119.741 156.47l-6.612-3.849a52.99 52.99 0 003.356-1.677c.098 0 .197-.099.197-.099l7.006 3.651c-.098 0-.592.296-.592.296-1.184.593-2.269 1.185-3.355 1.678z" fill="#6A1D2A"/><path d="M123.392 154.694l-6.71-3.849c.394-.197.789-.296 1.184-.394.493-.099.987 0 1.381.098l7.007 3.849c-.395-.099-.888-.198-1.382-.198a6.562 6.562 0 00-1.48.494zm2.567-.493l-6.71-3.652c.197.099.395.099.592.198l6.908 3.848-.79-.394z" fill="#6A1D2A"/><path d="M123.492 154.99l-3.652-4.243s.099 0 .099.098l6.809 3.75s-3.256.494-3.256.395z" fill="#671D28"/><path d="M95.367 187.062l-6.71-3.652c-.888-.493-1.48-1.381-1.777-2.467l6.908 3.355c.296 1.086.69 2.27 1.579 2.764z" fill="#561822"/><path d="M156.45 68.347l-6.71-3.75 10.164-11.348 9.671 1.579-13.125 13.52z" fill="#6B1E2A"/><path d="M160.004 86.9l-6.71-3.652c-.889-.493-1.579-1.48-1.777-2.664a56.786 56.786 0 00-2.861-11.053c-.395-.986-.296-2.072.098-3.157l6.711 3.65a4.965 4.965 0 00-.099 3.159 56.713 56.713 0 012.862 11.052c.197 1.184.888 2.171 1.776 2.665z" fill="#561822"/><path d="M155.069 71.999l-6.316-5.625c.099-.198.197-.494.296-.691l8.783 2.763c-.099.197-2.665 3.257-2.763 3.553z" fill="#5A1923"/><path d="M155.76 69.334l-6.71-3.651c.098-.197.197-.395.296-.493l6.71 3.65c-.098.1-.197.297-.296.494z" fill="#5D1A24"/><path d="M155.761 69.63l-6.809-3.848c.098-.198.592-.987.789-1.185l7.401 3.454c-.098.198-1.283 1.48-1.381 1.58z" fill="#601B26"/><path d="M156.45 68.347l-6.71-3.65 6.71 3.65z" fill="#641C27"/><path d="M167.799 57.591l-7.895-4.342c-.888-1.678-1.776-3.355-2.763-4.835l6.71 3.65c.987 1.58 3.06 3.85 3.948 5.527z" fill="#561822"/><path d="M164.345 42.887l-6.71-3.65h.098l6.612 3.65z" fill="#6A1D2A"/><path d="M164.542 43.282l-6.907-4.046c.394-.197.789-.296 1.184-.394.493-.1.888 0 1.381.098l7.204 3.849c-.394-.099-1.085 0-1.579 0-.493.099-.888.296-1.283.493z" fill="#6E1E2B"/><path d="M166.912 42.591l-6.71-3.65c.197.098.394.098.592.197l7.105 3.848c-.198 0-.79-.296-.987-.395z" fill="#6A1D2A"/><path d="M167.504 42.887l-6.711-3.65s.099 0 .099.098l6.711 3.651c0-.099 0-.099-.099-.099z" fill="#671D28"/><path d="M93.59 184.594l-6.71-3.651-2.96-14.506 6.71 3.651 2.96 14.506z" fill="#531721"/><path d="M151.221 49.992l-7.007-4.243 13.618-6.611 7.106 3.947-13.717 6.907z" fill="#74202D"/><path d="M79.677 161.799l-6.71-3.651.296-.296 6.71 3.651-.296.296z" fill="#601B26"/><path d="M79.972 161.503l-6.71-3.651.394-.395 6.71 3.651c-.197.099-.295.296-.394.395z" fill="#641C27"/><path d="M80.367 161.108l-6.71-3.651c.197-.099.296-.296.493-.395l6.71 3.651c-.197.099-.394.297-.493.395z" fill="#671D28"/><path d="M79.48 162.391l-7.007-3.651c.79-1.283 2.171-2.072 2.665-2.27l7.006 3.849c-.099.197-2.368 1.974-2.664 2.072z" fill="#6A1D2A"/><path d="M81.452 160.319l-6.71-3.651c.394-.198.79-.296 1.184-.395.493-.099.888 0 1.381.099l7.105 3.848c-.493-.098-1.282-.197-1.776-.197l-1.184.296z" fill="#6E1E2B"/><path d="M83.92 160.122l-6.711-3.652c.099 0 .197.099.296.099l6.71 3.651c0-.098-.098-.098-.296-.098.099 0 .099 0 0 0z" fill="#6A1D2A"/><path d="M84.314 160.22l-7.204-3.848c3.454.592 7.303 1.578 10.855 1.677.296 0 .494 0 .691.099l7.006 3.848c-.197-.098-.789-.098-.986-.098-3.553-.198-7.007-.888-10.362-1.678z" fill="#6E1E2B"/><path d="M95.367 162.194l-7.5-4.243c.198.098 1.086.098 1.382.296l7.302 4.046c-.197 0-.987-.099-1.184-.099z" fill="#6A1D2A"/><path d="M95.17 161.898l-5.921-3.553s.099 0 .099.099l7.204 3.947s-1.283-.493-1.382-.493z" fill="#671D28"/><path d="M68.92 179.068l-5.23-8.684 9.276-12.236 6.71 3.651-10.756 17.269z" fill="#681D29"/><path d="M147.569 58.479l-6.71-3.651c-.395-.198-.691-.494-.987-.79-2.368-2.763-4.934-5.23-7.796-7.302-1.283-.987-1.776-2.664-1.283-4.44l8.684.887c-.493 1.777-1.973 6.217-.691 7.204 2.862 2.072 5.428 4.54 7.796 7.303.296.296.592.592.987.789z" fill="#561822"/><path d="M65.565 171.766l-6.71-3.651a11.73 11.73 0 001.578.789l6.71 3.651c-.493-.197-.986-.493-1.578-.789z" fill="#671D28"/><path d="M67.144 172.555l-6.71-3.651 3.256 1.48 6.71 3.652a23.816 23.816 0 01-3.257-1.481z" fill="#6A1D2A"/><path d="M83.92 138.017l-6.711-3.652c.395.198.79.395 1.085.593l6.71 3.651c-.394-.198-.789-.395-1.085-.592z" fill="#671D28"/><path d="M85.006 138.609l-6.71-3.651c1.875.888 3.848 1.677 5.822 2.171l6.71 3.651c-1.973-.494-3.947-1.283-5.822-2.171z" fill="#40689D"/><path d="M90.827 140.78l-6.71-3.651c3.947.986 8.289 1.282 12.73.69l14.111 3.158c-8.388 4.145-16.085.79-20.13-.197z" fill="#40689D"/><path d="M102.965 144.727l-6.118-6.908c3.75-.493 7.401-1.677 10.756-3.256l13.914 1.283c-3.355 1.579-14.802 8.289-18.552 8.881z" fill="#40689D"/><path d="M112.537 140.582l-4.835-6.019c2.072-.987 4.046-2.171 6.019-3.454l10.461 1.974c-1.974 1.282-9.573 6.513-11.645 7.499z" fill="#40689D"/><path d="M120.333 134.76l-6.71-3.651a38.881 38.881 0 004.441-3.553l11.348.691c-1.381 1.283-7.5 5.428-9.079 6.513z" fill="#40689D"/><path d="M124.872 131.208l-6.71-3.652c1.282-1.184 2.565-2.467 3.75-3.848l13.42 1.085c-1.184 1.382-9.177 5.23-10.46 6.415z" fill="#40689D"/><path d="M128.623 127.359l-6.71-3.651a70.876 70.876 0 003.355-4.243l6.71 3.651c-1.085 1.48-2.171 2.96-3.355 4.243z" fill="#40689D"/><path d="M131.682 127.754l-6.414-8.289a59.794 59.794 0 003.059-4.934l6.711 3.651c-.987 1.776-2.27 7.993-3.356 9.572z" fill="#40689D"/><path d="M135.826 119.859l-7.499-5.23c1.085-1.974 1.973-4.046 2.763-6.217l8.782 1.678c-.789 2.072-3.059 7.697-4.046 9.769z" fill="#40689D"/><path d="M137.801 112.063l-6.71-3.651c1.776-4.934 2.861-10.263 2.861-15.69 0-14.21-6.809-25.657-17.17-31.282l6.71 3.65c10.362 5.626 17.171 17.171 17.171 31.283 0 5.428-1.086 10.658-2.862 15.69z" fill="#40689D"/><path d="M137.504 45.947l-6.71-3.652 4.243-14.703 7.007 3.454-4.54 14.9z" fill="#5B1924"/><path d="M61.025 179.364l-6.71-3.651c-.79-.394-1.579-.888-2.368-1.381-1.48-.888-2.171-2.665-1.58-4.54l10.066.099c-.493 1.875-3.158 7.204-1.776 8.092.79.493 1.579.987 2.368 1.381z" fill="#561822"/><path d="M57.177 173.444l-6.809-3.652 4.44-15.295 6.711 3.848-4.342 15.099z" fill="#5B1924"/><path d="M133.063 21.375l-6.71-3.651.296-.297 6.71 3.652-.296.296z" fill="#601B26"/><path d="M133.36 21.079l-6.71-3.651.395-.395 6.71 3.651a.773.773 0 00-.395.395z" fill="#641C27"/><path d="M133.753 20.684l-6.71-3.651c.197-.099.296-.296.493-.395l6.711 3.651c-.198.099-.395.197-.494.395z" fill="#671D28"/><path d="M133.655 22.263l-7.599-4.145c.395-.592 1.776-1.677 1.974-1.776l7.894 3.849c-.098 0-1.973 1.875-2.269 2.072z" fill="#6A1D2A"/><path d="M134.84 20.388l-7.105-3.947c.592-.395 1.184-.494 1.579-.592.493-.1.888 0 1.381.098l6.711 3.652c-.494-.1-.592.296-1.086.296-.395.098-1.085.296-1.48.493z" fill="#6E1E2B"/><path d="M137.11 20.092l-6.415-4.145c.099 0 .198.099.296.099a96.476 96.476 0 016.415 2.763l6.71 3.651a96.498 96.498 0 00-6.414-2.763c-.099 0-.494.494-.592.395z" fill="#6A1D2A"/><path d="M144.115 22.46l-6.71-3.65c.789.394 1.48.789 2.269 1.183l6.711 3.652c-.79-.395-1.48-.79-2.27-1.185z" fill="#671D28"/><path d="M123.886 35.98l-7.006-5.724 9.473-12.532 7.401 4.144-9.868 14.112z" fill="#681D29"/><path d="M61.52 158.345l-6.71-3.651a58.432 58.432 0 01-5.132-4.836l6.908 3.158c1.579 1.777 3.947 3.651 4.934 5.329z" fill="#561822"/><path d="M56.487 144.628l-6.71-3.651h.098l6.612 3.651s.098-.098 0 0z" fill="#6A1D2A"/><path d="M56.585 144.53l-6.71-3.651c.394-.198.789-.297 1.184-.395.493-.099.888 0 1.381.098l6.71 3.652c-.394-.099-.887-.099-1.38-.099-.494.099-.79.296-1.185.395z" fill="#6E1E2B"/><path d="M59.052 144.332l-6.71-3.75c.197.099.395.099.592.198l6.71 3.651c-.098 0-.296-.099-.592-.099z" fill="#6A1D2A"/><path d="M59.742 144.53l-6.71-3.651s.098 0 .098.098l6.71 3.651-.098-.098z" fill="#671D28"/><path d="M116.584 33.513l-6.612-4.244c2.369.198 4.638.494 6.908.987l7.5 4.046c-2.27-.395-5.428-.592-7.796-.79z" fill="#6E1E2B"/><path d="M103.756 52.854l-6.71-3.65c5.427-.79 10.756-.494 15.591.788l6.711 3.652c-4.836-1.283-10.066-1.58-15.592-.79z" fill="#40689D"/><path d="M114.511 56.11l-1.875-6.118c2.467.691 4.835 1.48 7.105 2.665l6.71 3.651c-2.269-1.184-9.473.395-11.94-.197zm11.942.1l-6.711-3.652c.494.198.888.494 1.382.691l6.71 3.651c-.395-.197-.888-.394-1.381-.69z" fill="#40689D"/><path d="M111.254 41.012l-6.71-3.65c-.888-.494-1.48-1.382-1.776-2.468l7.697 1.579c.197 1.086-.099 4.046.789 4.54z" fill="#561822"/><path d="M43.46 150.944l-6.711-5.033 13.914-5.329 8.388 3.652-15.592 6.71z" fill="#74202D"/><path d="M109.478 38.545l-6.71-3.65-2.862-14.112 6.71 3.651 2.862 14.111z" fill="#531721"/><path d="M33.197 143.049l-6.81-3.749 10.856-12.04 6.907 3.454-10.953 12.335z" fill="#6B1E2A"/><path d="M39.711 160.121l-6.71-3.651c-.395-.197-.79-.592-1.086-.987-2.27-3.256-4.342-6.907-6.315-10.953-.494-1.086-.889-2.467.394-4.737l6.217 4.934c-.394 1.184-.394 2.368.099 3.454 1.875 4.046 4.046 7.796 6.316 10.954a2.14 2.14 0 001.085.986z" fill="#561822"/><path d="M32.31 146.306l-7.204-3.947c.099-1.184.592-1.974.69-2.171l6.711 3.651c-.099.395-.099 2.27-.197 2.467z" fill="#5A1923"/><path d="M32.506 144.036l-6.71-3.651c.197-.987 1.678-2.171 1.776-2.27l7.007 4.145c-.1.099-1.974 1.579-2.073 1.776z" fill="#5D1A24"/><path d="M32.803 143.444l-6.71-3.651c.099-.197.197-.296.395-.494l6.71 3.652c-.197.197-.296.394-.395.493z" fill="#601B26"/><path d="M33.198 143.05l-6.71-3.652 6.71 3.652z" fill="#641C27"/><path d="M43.658 131.306l-6.71-3.651c-.692-2.368-1.382-4.737-1.876-7.204l6.71 3.652c.494 2.467 1.086 4.934 1.876 7.203z" fill="#561822"/><path d="M46.027 115.813l-6.71-3.651c.197 0 .394 0 .493.099l6.71 3.651c-.099-.099-.296-.099-.493-.099z" fill="#6E1E2B"/><path d="M46.619 115.912l-6.71-3.651c.197.098.394.098.591.197l6.71 3.651c-.197-.098-.394-.197-.591-.197z" fill="#6A1D2A"/><path d="M47.21 116.109l-6.71-3.651s.099 0 .099.099l6.71 3.651c0-.099-.099-.099-.099-.099z" fill="#671D28"/><path d="M80.663 48.512l-6.71-3.651c-.297-.197-.593-.395-.79-.592l6.71 3.651c.198.296.494.493.79.592z" fill="#561822"/><path d="M84.02 39.532l-6.71-3.651c.394-.197.887-.395 1.282-.592l6.71 3.651c-.493.198-.888.395-1.283.592z" fill="#6A1D2A"/><path d="M83.92 41.506l-5.33-6.217a68.274 68.274 0 015.626-2.369l9.473 4.046c-1.875.691-7.993 3.652-9.77 4.54z" fill="#6E1E2B"/><path d="M92.406 37.46l-8.29-4.54 3.06-15.295 10.657 2.17-5.427 17.665z" fill="#591923"/><path d="M93.888 21.276l-6.71-3.651c.098-.296.098-.493.197-.79l6.71 3.652c0 .296-.099.493-.197.79z" fill="#561822"/><path d="M94.084 20.486l-6.71-3.65c.099-.198.197-.494.296-.691l6.71 3.65c-.098.198-.197.494-.296.691z" fill="#5A1923"/><path d="M94.38 19.796l-6.71-3.651c.1-.198.198-.395.296-.494l6.71 3.651c0 .198-.197.296-.295.494z" fill="#5D1A24"/><path d="M94.38 23.842l-6.513-8.092c.099-.197.494-.592.691-.79l8.487 2.96c-.198.198-2.566 5.724-2.665 5.922z" fill="#591923"/><path d="M95.071 18.809l-6.71-3.651.395-.395 6.71 3.651a.77.77 0 01-.395.395z" fill="#641C27"/><path d="M94.38 23.842l-7.5-5.526c.395-2.96 2.073-3.849 2.27-3.947l8.29 3.552c0 .197-2.862 5.822-3.06 5.92z" fill="#591923"/><path d="M96.552 18.81l-7.303-4.441c.197-.1.79-.395 1.086-.494l7.894 4.145c-.197.197-1.48.69-1.677.79z" fill="#6A1D2A"/><path d="M97.44 18.71l-7.6-4.638.889-.296a66.95 66.95 0 016.414-1.184A68.327 68.327 0 01103.46 12c.395 0 .691 0 1.085.099l6.711 3.65c-.296-.098-.296 1.086-.691 1.086-2.072.099-3.849.296-5.921.592-2.171.297-3.947.494-6.118.987-.296-.098-.79.099-1.086.296z" fill="#6E1E2B"/><path d="M110.861 16.046l-6.316-3.947c.197.098.395.098.592.197l6.71 3.651c-.197-.098-.789.099-.986.099z" fill="#6A1D2A"/><path d="M111.847 15.947l-6.71-3.651s.098 0 .098.099l6.711 3.65c0-.098 0-.098-.099-.098z" fill="#671D28"/><path d="M79.48 146.109l-6.71-3.652c-12.632-6.907-21.02-20.92-21.02-38.288 0-6.612 1.283-13.125 3.454-19.144l11.348 2.664c-2.27 6.02-8.092 13.519-8.092 20.131 0 17.368 8.388 31.48 21.02 38.289z" fill="#40689D"/><path d="M62.013 88.774l-6.809-3.75c.987-2.664 2.171-5.13 3.553-7.598l10.361 1.382c-1.381 2.467-6.217 7.302-7.105 9.966z" fill="#40689D"/><path d="M65.368 81.176l-6.71-3.651c1.085-2.073 2.368-4.046 3.65-6.02l13.126-.592c-1.283 1.974-8.882 8.19-10.066 10.263z" fill="#40689D"/><path d="M69.117 75.156l-6.809-3.65c1.283-1.777 2.664-3.553 4.046-5.132l11.546.888c-1.382 1.579-7.5 6.118-8.783 7.894z" fill="#40689D"/><path d="M73.165 70.025l-6.71-3.651c1.48-1.678 2.96-3.257 4.637-4.638l16.48-2.862c-1.776 1.381-12.927 9.473-14.407 11.15z" fill="#40689D"/><path d="M77.802 65.288l-6.71-3.651c1.776-1.579 3.552-3.06 5.427-4.342l6.71 3.651c-1.875 1.382-3.651 2.862-5.427 4.342z" fill="#40689D"/><path d="M83.23 61.045l-6.711-3.651c2.368-1.58 4.835-3.06 7.302-4.244l18.355-.197c-2.467 1.184-16.578 6.414-18.947 8.092z" fill="#40689D"/><path d="M90.63 56.801l-6.71-3.65c4.145-1.974 8.585-3.356 13.125-3.948l12.927 3.454c-4.539.592-15.197 2.17-19.342 4.144z" fill="#40689D"/><path d="M103.544 150.253l.014.099-.014-.099c-24.8 3.444-44.984-15.447-44.984-42.334.099-26.797 20.395-51.52 45.209-54.966 24.8-3.444 44.983 15.447 44.984 42.334-.099 26.797-20.297 51.519-45.209 54.966zm.027-8.684c20.482-2.869 37.092-23.145 37.092-45.196l-73.914 10.361h-.1s0 0 0 0c-.099 22.059 16.526 37.707 36.922 34.835z" fill="#B4D1FA" stroke="#000" stroke-width=".2"/><path d="M31.125 116.109l-5.23-5.625 14.506 1.777 7.007 3.947-16.283-.099z" fill="#72202D"/><path d="M42.77 97.557l-7.599-4.934c.494-2.566 1.086-5.23 1.875-7.697l8.586 3.158c-.79 2.566-2.369 6.907-2.862 9.473z" fill="#561822"/><path d="M79.876 47.92l-6.71-3.651-9.178-9.67 6.71 3.65 9.178 9.671z" fill="#531721"/><path d="M57.277 64.203l-7.401-5.132c1.381-1.875 2.861-3.651 4.342-5.329l8.289 4.441c-1.58 1.678-3.849 4.145-5.23 6.02z" fill="#601B26"/><path d="M62.013 59.663l-8.19-5.526c.296-.296.888-1.086 1.184-1.382l7.598 4.046c-.296.395-.394 2.665-.592 2.862z" fill="#641C27"/><path d="M29.25 102.195l-7.894-4.44 13.914-5.132 8.388 4.638-14.408 4.934z" fill="#75202E"/><path d="M26.783 122.425l-6.71-3.651c-.987-.592-1.678-1.678-1.776-2.961a78.57 78.57 0 01-.297-6.809c0-2.269.198-4.638.297-6.907 0-.494.098-.889.296-1.382l6.71 3.651c-.197.395-.296.888-.296 1.382a80.817 80.817 0 00-.296 6.907c0 2.369.79 4.342.987 6.612 0 1.382 0 2.665 1.085 3.158z" fill="#561822"/><path d="M25.204 104.366l-6.71-3.651c.099-.198.198-.494.296-.691l6.71 3.651a4.799 4.799 0 01-.296.691z" fill="#5A1923"/><path d="M25.5 103.675l-6.71-3.651c.1-.197.198-.395.297-.493l6.71 3.651c0 .197-.197.395-.296.493z" fill="#5D1A24"/><path d="M25.796 118.675l-7.598-13.322c-.494-7.105 2.467-7.204 4.243-7.993l3.947 5.329c-.296.197-.493 15.887-.592 15.986z" fill="#561822"/><path d="M26.191 102.787l-6.71-3.65.395-.396 6.71 3.652-.395.394z" fill="#641C27"/><path d="M26.488 103.182l-6.612-4.44c.197-.1.296-.297.493-.395l7.796 3.651c-.098.098-1.48.987-1.677 1.184z" fill="#671D28"/><path d="M27.08 101.998l-6.71-3.651c.197-.1.394-.296.591-.395l6.71 3.651c-.197.099-.394.197-.591.395z" fill="#6A1D2A"/><path d="M27.771 102.491l-6.71-4.54c.099-.098 1.184-.591 1.283-.591l8.684 4.144c-.099 0-3.158.888-3.257.987z" fill="#6E1E2B"/><path d="M62.507 57.196l-7.598-4.342-4.243-13.914 7.697 3.553 4.144 14.703z" fill="#531721"/><path d="M57.375 42.591l-6.71-3.65c-.296-.988-.197-1.975.099-2.961l6.71 3.65c-.296.988-.395 2.073-.099 2.961z" fill="#561822"/><path d="M57.474 39.63l-6.71-3.65c.099-.198.197-.494.296-.691l6.71 3.651a4.626 4.626 0 01-.296.69z" fill="#5A1923"/><path d="M57.77 39.039l-6.71-3.652c.098-.197.196-.394.295-.493l6.71 3.651c-.098.099-.197.296-.296.494z" fill="#5D1A24"/><path d="M58.46 43.38l-7.796-4.44c-.69-2.664.888-4.44 1.085-4.638l6.71 3.651c-.098.198.1 5.33 0 5.428z" fill="#531721"/><path d="M58.955 41.012l-7.204-6.611.395-.395 8.092 4.046c-.1.099-1.185 2.763-1.283 2.96z" fill="#641C27"/><path d="M60.731 38.842l-8.585-4.836c2.664-2.368 5.625-4.638 8.783-6.809l6.71 3.651c-.69 5.033-4.145 5.625-6.908 7.994z" fill="#671D28"/><path d="M66.059 34.894l-5.724-7.302c.79-.494 2.073-1.48 2.862-1.974l.987-.493 9.375 3.75c-.197.098-1.974 1.677-2.072 1.776-.691.493-4.638 3.75-5.428 4.243z" fill="#6A1D2A"/><path d="M70.5 28.973l-6.81-3.651c.396-.197.89-.296 1.284-.395.493-.099.888 0 1.381.099l6.71 3.651c-.394-.099-.887-.099-1.38-.099-.396.1-.79.198-1.185.395z" fill="#6E1E2B"/><path d="M72.967 28.677l-6.71-3.651c.197.099.394.099.591.197l6.71 3.651c-.098-.098-.295-.197-.591-.197z" fill="#6A1D2A"/><path d="M73.657 28.874l-7.4-3.848s.789.197.789.296l6.71 3.651c-.099 0-.099-.099-.099-.099z" fill="#671D28"/><path d="M45.633 89.366l-8.684-4.44-10.362-8.783 6.71 3.651 12.336 9.572z" fill="#531721"/><path d="M42.968 61.242l-6.513-4.934 13.322 2.763 7.993 4.342-14.802-2.17z" fill="#6F1F2C"/><path d="M38.823 84.235l-12.237-8.092c-1.282-1.085-1.578-2.862-.986-4.638l8.289 3.553c-.592 1.776 3.75 8.19 4.934 9.177z" fill="#561822"/><path d="M32.31 75.156l-6.71-3.65c0-.1.099-.1.099-.198 1.381-3.356 2.96-6.612 4.54-9.671l8.683 3.947c-1.579 3.06-3.75 6.71-5.131 10.164 0 .198-1.48-.592-1.48-.592z" fill="#5A1923"/><path d="M38.23 67.36l-7.993-5.723c.592-1.086 1.185-2.072 1.777-3.158.098-.099.197-.197.197-.395l8.092 4.342c-.099.099-1.086 1.184-1.086 1.382-.592.987-.394 2.467-.986 3.552z" fill="#5D1A24"/><path d="M38.921 61.834l-6.71-3.651c.099-.197.197-.296.395-.493l6.71 3.65c-.099.198-.197.395-.395.494z" fill="#601B26"/><path d="M37.934 65.584l-7.697-3.848C32.408 57.394 33 57.295 33 57.295l7.796 3.552c-.098.198-2.763 4.54-2.861 4.737z" fill="#641C27"/><path d="M39.81 62.92l-6.809-5.625c.297-.296.79-.494.987-.592l6.217 3.848c-.197.198-.197 2.27-.395 2.369z" fill="#671D28"/><path d="M40.205 60.65l-6.71-3.651c.197-.099.394-.296.592-.395l6.71 3.651c-.197.099-.395.198-.592.395z" fill="#6A1D2A"/><path d="M40.698 61.538l-6.612-4.934c.395-.197.79-.296 1.185-.395.394-.098.79 0 1.184.099l6.71 3.553a2.405 2.405 0 00-1.184 0c-.395.098-.888 1.48-1.283 1.677z" fill="#6E1E2B"/><mask id="a" maskUnits="userSpaceOnUse" x="24" y="15" width="159" height="173"><path d="M182.405 83.643c.197 2.27.296 4.54.296 6.809 0 2.368-.197 4.638-.296 6.908-.099 1.875-1.382 3.651-3.158 4.243l-13.815 5.131c-.494 2.566-1.086 5.231-1.875 7.698l10.361 8.684c1.283 1.085 1.678 3.059.889 4.835-1.875 4.638-4.046 8.881-6.316 12.73-.79 1.283-1.974 2.171-3.257 2.27-.394.098-.789 0-1.184 0l-13.421-2.763c-1.578 2.171-3.355 4.243-5.131 6.217l4.243 13.815c.494 1.678-.098 3.75-1.48 5.033-3.256 2.96-7.006 5.723-11.052 8.388-.592.394-1.086.592-1.678.69-1.085.198-2.171-.197-2.96-.986l-9.474-9.967a85.44 85.44 0 01-6.908 2.96l-2.96 15.296c-.395 1.875-1.776 3.454-3.553 3.849-2.072.493-4.243.888-6.315 1.282-2.171.296-4.243.395-6.316.592-1.776.099-3.158-1.085-3.552-2.861l-2.96-14.408c-2.37-.197-4.639-.493-6.909-.987l-9.473 12.533c-.79.987-1.875 1.678-2.96 1.776-.593.099-1.185 0-1.678-.197-4.046-1.48-7.697-3.257-10.954-5.23-1.48-.888-2.072-2.763-1.48-4.638l4.342-15.099a58.568 58.568 0 01-5.131-4.835l-13.421 6.513c-.395.197-.79.296-1.184.395-1.283.197-2.467-.296-3.257-1.382-2.27-3.256-4.342-6.908-6.315-10.954-.79-1.578-.395-3.651.888-5.131l10.46-11.644c-.69-2.369-1.382-4.737-1.875-7.204l-13.52-1.184c-1.677-.198-2.96-1.579-3.058-3.356a78.53 78.53 0 01-.297-6.809c0-2.269.198-4.638.297-6.907.098-1.875 1.381-3.652 3.157-4.244l13.816-5.131c.493-2.566 1.085-5.23 1.875-7.697l-10.362-8.783c-1.283-1.086-1.677-3.06-.888-4.835 1.875-4.639 4.046-8.882 6.316-12.73.79-1.283 1.973-2.171 3.256-2.27.395-.099.79 0 1.184 0l13.421 2.763c1.579-2.171 3.355-4.243 5.131-6.217l-4.243-13.815c-.493-1.678.099-3.75 1.48-5.033 3.257-2.96 7.007-5.724 11.053-8.388.592-.395 1.085-.592 1.677-.69 1.086-.198 2.171.196 2.96.986l9.474 9.967a85.479 85.479 0 016.908-2.96l2.96-15.296c.395-1.875 1.777-3.454 3.553-3.849a66.945 66.945 0 016.414-1.184 68.32 68.32 0 016.316-.592c1.776-.099 3.158 1.085 3.552 2.861l2.961 14.408c2.368.197 4.638.494 6.908.987l9.473-12.631c.79-.987 1.875-1.678 2.961-1.777.592-.098 1.184 0 1.677.198 4.046 1.48 7.697 3.256 10.954 5.23 1.381.888 2.072 2.763 1.48 4.638l-4.342 15.098a58.677 58.677 0 015.132 4.836l13.42-6.513c.395-.198.79-.296 1.184-.395 1.283-.197 2.468.296 3.257 1.381 2.27 3.257 4.342 6.908 6.316 10.954.789 1.579.394 3.651-.889 5.132L164.05 71.8c.79 2.368 1.382 4.737 1.875 7.204l13.816 1.283c1.282.098 2.565 1.48 2.664 3.355zm-7.697 10.954c.099-.987.099-2.073.099-3.06 0-.986 0-1.973-.099-3.059l-13.421-1.184c-1.579-.099-2.763-1.382-3.059-3.059a56.716 56.716 0 00-2.862-11.052c-.592-1.58-.197-3.454 1.086-4.836L166.616 57c-.888-1.678-1.776-3.355-2.763-4.836l-13.026 6.316c-.395.197-.79.296-1.184.395-1.185.197-2.27-.198-3.059-1.184-2.369-2.764-4.935-5.23-7.796-7.303-1.283-.987-1.777-2.664-1.283-4.44l4.243-14.606c-1.579-.789-3.158-1.578-4.835-2.27l-9.178 12.237c-.789.987-1.875 1.678-2.96 1.777-.494.098-.987 0-1.382-.1-3.454-.887-7.006-1.48-10.657-1.578-1.579-.099-2.862-1.184-3.257-2.862l-2.862-14.111c-.888.098-1.875.197-2.763.296-.888.098-1.875.296-2.763.493l-2.96 14.901c-.395 1.776-1.678 3.257-3.257 3.75-3.651 1.184-7.204 2.664-10.657 4.54-.494.295-.889.394-1.382.493-1.085.197-2.171-.197-2.96-.987l-9.178-9.67c-1.677 1.183-3.355 2.368-4.835 3.65l4.144 13.52c.494 1.579 0 3.454-1.282 4.737-2.862 2.96-5.527 6.118-7.796 9.572-.79 1.085-1.875 1.875-3.06 1.973-.394.099-.789 0-1.184 0l-13.026-2.664c-.986 1.776-1.875 3.651-2.763 5.625L51.06 83.15c1.185.986 1.58 2.762.987 4.539-1.283 3.848-2.27 7.894-2.861 11.842-.297 1.776-1.48 3.355-3.06 3.947l-13.519 5.033c-.099.987-.099 1.973-.099 3.059 0 .987 0 2.072.099 3.059l13.42 1.184c1.58.099 2.764 1.382 3.06 3.059a56.73 56.73 0 002.862 11.053c.592 1.579.197 3.454-1.086 4.835l-10.164 11.348c.888 1.678 1.776 3.356 2.763 4.836l13.026-6.316c.395-.197.79-.296 1.184-.394 1.184-.198 2.27.197 3.06 1.085 2.368 2.763 4.933 5.23 7.795 7.302 1.283.987 1.776 2.665 1.283 4.441l-4.243 14.704c1.579.789 3.157 1.579 4.835 2.269l9.178-12.236c.789-.987 1.875-1.678 2.96-1.776.493-.099.987 0 1.382.098 3.453.888 7.006 1.481 10.657 1.579 1.58.099 2.862 1.184 3.257 2.862l2.861 14.111c.889-.098 1.875-.197 2.764-.296.888-.098 1.874-.296 2.763-.493l2.96-14.901c.395-1.776 1.678-3.256 3.257-3.75 3.651-1.184 7.203-2.664 10.657-4.539.494-.296.888-.395 1.382-.494 1.085-.197 2.171.198 2.96.987l9.178 9.671c1.677-1.184 3.355-2.368 4.835-3.651l-4.145-13.52c-.493-1.579 0-3.453 1.283-4.835 2.862-2.96 5.526-6.118 7.796-9.572.79-1.086 1.875-1.875 3.059-1.974.395-.098.79 0 1.184 0l13.026 2.665c.987-1.777 1.875-3.652 2.764-5.625l-10.165-8.487c-1.184-.987-1.579-2.763-.986-4.539 1.282-3.849 2.269-7.895 2.861-11.842.296-1.776 1.481-3.355 3.059-3.947l13.52-4.934z" fill="#fff"/></mask><g mask="url(#a)"><path d="M182.405 83.643c.197 2.27.296 4.54.296 6.809 0 2.368-.197 4.638-.296 6.908-.099 1.875-1.382 3.651-3.158 4.243l-13.815 5.131c-.494 2.566-1.086 5.231-1.875 7.698l10.361 8.684c1.283 1.085 1.678 3.059.889 4.835-1.875 4.638-4.046 8.881-6.316 12.73-.79 1.283-1.974 2.171-3.257 2.27-.394.098-.789 0-1.184 0l-13.421-2.763c-1.578 2.171-3.355 4.243-5.131 6.217l4.243 13.815c.494 1.678-.098 3.75-1.48 5.033-3.256 2.96-7.006 5.723-11.052 8.388-.592.394-1.086.592-1.678.69-1.085.198-2.171-.197-2.96-.986l-9.474-9.967a85.44 85.44 0 01-6.908 2.96l-2.96 15.296c-.395 1.875-1.776 3.454-3.553 3.849-2.072.493-4.243.888-6.315 1.282-2.171.296-4.243.395-6.316.592-1.776.099-3.158-1.085-3.552-2.861l-2.96-14.408c-2.37-.197-4.639-.493-6.909-.987l-9.473 12.533c-.79.987-1.875 1.678-2.96 1.776-.593.099-1.185 0-1.678-.197-4.046-1.48-7.697-3.257-10.954-5.23-1.48-.888-2.072-2.763-1.48-4.638l4.342-15.099a58.568 58.568 0 01-5.131-4.835l-13.421 6.513c-.395.197-.79.296-1.184.395-1.283.197-2.467-.296-3.257-1.382-2.27-3.256-4.342-6.908-6.315-10.954-.79-1.578-.395-3.651.888-5.131l10.46-11.644c-.69-2.369-1.382-4.737-1.875-7.204l-13.52-1.184c-1.677-.198-2.96-1.579-3.058-3.356a78.53 78.53 0 01-.297-6.809c0-2.269.198-4.638.297-6.907.098-1.875 1.381-3.652 3.157-4.244l13.816-5.131c.493-2.566 1.085-5.23 1.875-7.697l-10.362-8.783c-1.283-1.086-1.677-3.06-.888-4.835 1.875-4.639 4.046-8.882 6.316-12.73.79-1.283 1.973-2.171 3.256-2.27.395-.099.79 0 1.184 0l13.421 2.763c1.579-2.171 3.355-4.243 5.131-6.217l-4.243-13.815c-.493-1.678.099-3.75 1.48-5.033 3.257-2.96 7.007-5.724 11.053-8.388.592-.395 1.085-.592 1.677-.69 1.086-.198 2.171.196 2.96.986l9.474 9.967a85.479 85.479 0 016.908-2.96l2.96-15.296c.395-1.875 1.777-3.454 3.553-3.849a66.945 66.945 0 016.414-1.184 68.32 68.32 0 016.316-.592c1.776-.099 3.158 1.085 3.552 2.861l2.961 14.408c2.368.197 4.638.494 6.908.987l9.473-12.631c.79-.987 1.875-1.678 2.961-1.777.592-.098 1.184 0 1.677.198 4.046 1.48 7.697 3.256 10.954 5.23 1.381.888 2.072 2.763 1.48 4.638l-4.342 15.098a58.677 58.677 0 015.132 4.836l13.42-6.513c.395-.198.79-.296 1.184-.395 1.283-.197 2.468.296 3.257 1.381 2.27 3.257 4.342 6.908 6.316 10.954.789 1.579.394 3.651-.889 5.132L164.05 71.8c.79 2.368 1.382 4.737 1.875 7.204l13.816 1.283c1.282.098 2.565 1.48 2.664 3.355zm-7.697 10.954c.099-.987.099-2.073.099-3.06 0-.986 0-1.973-.099-3.059l-13.421-1.184c-1.579-.099-2.763-1.382-3.059-3.059a56.716 56.716 0 00-2.862-11.052c-.592-1.58-.197-3.454 1.086-4.836L166.616 57c-.888-1.678-1.776-3.355-2.763-4.836l-13.026 6.316c-.395.197-.79.296-1.184.395-1.185.197-2.27-.198-3.059-1.184-2.369-2.764-4.935-5.23-7.796-7.303-1.283-.987-1.777-2.664-1.283-4.44l4.243-14.606c-1.579-.789-3.158-1.578-4.835-2.27l-9.178 12.237c-.789.987-1.875 1.678-2.96 1.777-.494.098-.987 0-1.382-.1-3.454-.887-7.006-1.48-10.657-1.578-1.579-.099-2.862-1.184-3.257-2.862l-2.862-14.111c-.888.098-1.875.197-2.763.296-.888.098-1.875.296-2.763.493l-2.96 14.901c-.395 1.776-1.678 3.257-3.257 3.75-3.651 1.184-7.204 2.664-10.657 4.54-.494.295-.889.394-1.382.493-1.085.197-2.171-.197-2.96-.987l-9.178-9.67c-1.677 1.183-3.355 2.368-4.835 3.65l4.144 13.52c.494 1.579 0 3.454-1.282 4.737-2.862 2.96-5.527 6.118-7.796 9.572-.79 1.085-1.875 1.875-3.06 1.973-.394.099-.789 0-1.184 0l-13.026-2.664c-.986 1.776-1.875 3.651-2.763 5.625L51.06 83.15c1.185.986 1.58 2.762.987 4.539-1.283 3.848-2.27 7.894-2.861 11.842-.297 1.776-1.48 3.355-3.06 3.947l-13.519 5.033c-.099.987-.099 1.973-.099 3.059 0 .987 0 2.072.099 3.059l13.42 1.184c1.58.099 2.764 1.382 3.06 3.059a56.73 56.73 0 002.862 11.053c.592 1.579.197 3.454-1.086 4.835l-10.164 11.348c.888 1.678 1.776 3.356 2.763 4.836l13.026-6.316c.395-.197.79-.296 1.184-.394 1.184-.198 2.27.197 3.06 1.085 2.368 2.763 4.933 5.23 7.795 7.302 1.283.987 1.776 2.665 1.283 4.441l-4.243 14.704c1.579.789 3.157 1.579 4.835 2.269l9.178-12.236c.789-.987 1.875-1.678 2.96-1.776.493-.099.987 0 1.382.098 3.453.888 7.006 1.481 10.657 1.579 1.58.099 2.862 1.184 3.257 2.862l2.861 14.111c.889-.098 1.875-.197 2.764-.296.888-.098 1.874-.296 2.763-.493l2.96-14.901c.395-1.776 1.678-3.256 3.257-3.75 3.651-1.184 7.203-2.664 10.657-4.539.494-.296.888-.395 1.382-.494 1.085-.197 2.171.198 2.96.987l9.178 9.671c1.677-1.184 3.355-2.368 4.835-3.651l-4.145-13.52c-.493-1.579 0-3.453 1.283-4.835 2.862-2.96 5.526-6.118 7.796-9.572.79-1.086 1.875-1.875 3.059-1.974.395-.098.79 0 1.184 0l13.026 2.665c.987-1.777 1.875-3.652 2.764-5.625l-10.165-8.487c-1.184-.987-1.579-2.763-.986-4.539 1.282-3.849 2.269-7.895 2.861-11.842.296-1.776 1.481-3.355 3.059-3.947l13.52-4.934z" fill="#A62E41" stroke="#000" stroke-width=".4"/></g></svg>