<svg width="450" height="191" fill="none" xmlns="http://www.w3.org/2000/svg"><g clip-path="url(#clip0)"><g clip-path="url(#clip1)"><g clip-path="url(#clip2)"><g filter="url(#filter0_d)"><path d="M273.217 275L0 168.448 301.022 69 596 168.448 273.217 275z" fill="#FFF5F7"/></g><g filter="url(#filter1_f)"><path d="M372.172 158.987l-117.031 43.928L163 169.513l116.379-41.902 92.793 31.376z" fill="url(#paint0_linear)"/></g><path d="M355.271 241.866l-103.391-38.88-.035-124.579 103.426 38.88v124.579z" fill="#053866"/><path d="M459.74 202.371l-104.467-38.908-.474-124.595 1.784-1.474 103.151 40.114.006 124.863z" fill="#083556"/><path d="M355.272 241.866l104.426-39.527.035-124.96-104.425 39.206-.036 125.281z" fill="#054270"/><path d="M251.88 202.8l105.059-42.184-1.61-122.19-1.244-1.032-102.24 40.153.035 125.253z" fill="#063D66"/><g filter="url(#filter2_f)"><ellipse cx="354.873" cy="150.507" rx="71.319" ry="70.907" fill="url(#paint1_radial)"/></g><path d="M355.275 241.868l-103.391-38.882-.035-124.579 103.426 38.88v124.581z" fill="#053866"/><path d="M277.705 119.529l-25.821-9.793-.036-31.329 25.857 10.006v31.116z" fill="#053866"/><path d="M258.721 108.215a17.059 17.059 0 01-6.805-1.23l-.071-3.305c5.254 2.004 10.296 1.617 14.174-1.054 4.619-3.164 7.546-8.401 7.546-15.994l3.103 1.23c0 8.647-2.574 13.498-8.039 17.26a18.324 18.324 0 01-9.908 3.093z" fill="#FF8098"/><path d="M303.56 128.781l-25.857-9.843V87.66l25.857 9.843v31.278z" fill="#0E2951"/><path d="M329.415 139.061l-25.856-9.843V97.94l25.856 9.808v31.313z" fill="#FF8098"/><path d="M355.272 148.311l-25.857-9.723v-31.396l26.032 9.647-.175 31.472zm-77.57 2.059l-25.857-9.808v-31.313l25.857 9.843v31.278z" fill="#911A31"/><path d="M303.56 159.623l-25.857-9.598v-30.496l25.857 9.598v30.496z" fill="#C43B55"/><path d="M329.415 169.903l-25.856-9.844v-31.278l25.856 9.844v31.278z" fill="#053866"/><path d="M355.272 179.155l-25.857-9.491.034-31.069 25.823 9.69v30.87z" fill="#132F7C"/><path d="M303.56 191.492l-25.857-9.808v-31.653l25.857 9.583v31.878z" fill="#FF8098"/><path d="M329.418 200.744l-25.857-9.844v-31.278l25.857 9.844v31.278z" fill="#0E2951"/><path d="M355.276 211.024l-25.857-9.734v-31.387l25.857 9.734v31.387z" fill="#053866"/><path d="M277.702 212.661l-25.857-9.694V171.54l25.857 9.672v31.449z" fill="#C43B55"/><path d="M303.56 222.333l-25.857-9.817v-31.305l25.857 9.817v31.305z" fill="#053866"/><path d="M329.415 232.033l-25.856-9.844v-31.278l25.856 9.844v31.278z" fill="#FF8098"/><path d="M257.191 102.051a13.176 13.176 0 01-5.346-1.047v-3.791c3.757 1.444 8.417.938 10.729-.578 3.865-2.564 5.743-6.535 5.743-12.06l3.179 1.264c0 6.788-2.42 10.94-6.755 13.937a13.549 13.549 0 01-7.55 2.275z" fill="#D6516B"/><path d="M255.343 94.854a8.418 8.418 0 01-3.498-.685v-3.997c2.259.913 5.757.685 7.689-1.333 2.004-2.094 2.55-3.807 2.55-7.347l3.207 1.332c0 4.873-1.604 8.185-4.628 10.355a9.22 9.22 0 01-5.32 1.675z" fill="#C43B55"/><path d="M253.492 87.647a2.91 2.91 0 01-1.647-.337v-3.938c.549.225 2.333.376 3.019 0 1.201-.674 1.201-1.987.618-3.937l3.602 1.313c0 2.737-.892 4.65-2.573 5.924a5.29 5.29 0 01-3.019.975z" fill="#A62E41"/><path d="M354.871 205.884l-22.354-8.217v-53.465l22.753 8.076v4.338l-18.901-7.054v46.253l18.182 7.45.32 2.619z" fill="#C43B55"/><path d="M355.27 206.912l-22.753-8.978v-27.149l3.852 1.383v23.216l18.901 7.231v4.297z" fill="#F985A0"/><path d="M354.85 197.603l-16.126-5.067v-39.082l16.548 5.842v4.409l-12.695-4.767v31.793l12.695 4.408-.422 2.464z" fill="#C43B55"/><path d="M354.85 188.96l-8.884-2.384v-21.814l9.308 3.217v4.301l-5.592-2.168v14.477l5.592 2.412-.424 1.959z" fill="#C43B55"/><path d="M355.274 190.463l-9.308-3.607v-11.132l3.716 1.343v7.242l5.592 1.804v4.35z" fill="#F985A0"/><path d="M355.272 198.688l-16.548-6.041v-19.566l3.853 1.424v15.593l12.695 4.295v4.295z" fill="#F985A0"/><path d="M271.496 210.353l-19.651-7.386v-23.812l19.651 7.385v23.813z" fill="#053866"/><path d="M264.256 207.624l-12.411-4.657v-15.588l12.411 4.917v15.328z" fill="#FF8098"/><path d="M329.415 118.705l-9.458 16.244-16.398-17.681 9.458-16.244 16.398 17.681z" fill="#C43B55"/><path d="M323.212 118.332l-4.946 8.393-8.5-9.119 4.909-8.357 8.537 9.083zm-45.509 8.393l25.857 9.606-25.857 7.517 25.857 9.606-25.857-26.729z" fill="#911A31"/><path d="M254.948 142.146l-3.103-1.263v-31.634l3.103 1.262v31.635zm5.171 1.028l-3.102-1.222v-30.647l3.102 1.256v30.613zm16.548 6.167l-4.137-1.223v-30.646l4.137 1.223v30.646zm-6.206-2.056l-3.102-1.223v-30.646l3.102 1.223v30.646zm-5.17-2.055l-3.102-1.223V113.36l3.102 1.224v30.646z" fill="#FF8098"/><path d="M277.702 181.212l-25.857-9.844V140.09l25.857 9.808v31.314z" fill="#0E2951"/><path d="M277.702 181.211l-13.446-4.917V160.65l13.446 4.918v15.643zm-13.446-20.56l-12.411-4.926V140.09l12.411 4.665v15.896z" fill="#911A31"/><path fill-rule="evenodd" clip-rule="evenodd" d="M280.806 186.352l18.745 7.344-.994 2.711-14.946-5.856v17.97l14.04 5.5v-13.487l-10.869-4.264v9.605l7.698 3.026v-5.791l-4.56-1.792v1.98l3.323 1.304-.995 2.71-5.134-2.013v-8.185l10.171 3.996v11.996l-13.308-5.232v-15.806l16.48 6.465v19.688l-19.651-7.699v-24.17z" fill="#F985A0"/><path d="M312.866 175.043l-4.137-1.721v-5.475l4.137 1.721v5.475zm5.171 9.252l-4.137-1.711v-5.485l4.137 1.711v5.485zm6.206 8.225l-4.136-1.475v-4.693l4.136 1.475v4.693z" fill="#911A31"/><path d="M355.448 116.839l104.284-39.46v125.103l-104.461 39.384.177-125.027z" fill="#053866"/><path d="M433.877 149.925l25.857-9.835v31.286l-25.857 9.835v-31.286z" fill="#911A31"/><path d="M406.986 159.968l26.891-9.598v30.531l-26.891 9.563v-30.496z" fill="#C43B55"/><path d="M381.132 169.466l25.857-9.844V190.9l-25.857 9.844v-31.278z" fill="#053866"/><path d="M355.273 179.135l25.857-9.26v31.198l-25.857 9.951v-31.889z" fill="#132F7C"/><path d="M406.985 128.345l26.891-9.844v32.015l-26.891 9.536v-31.707z" fill="#FF8098"/><path d="M381.132 138.625l25.857-9.843v31.278l-25.857 9.843v-31.278z" fill="#0E2951"/><path d="M355.273 147.985l25.857-9.951v31.169l-25.857 9.952v-31.17z" fill="#053866"/><path d="M406.989 190.45l26.932-9.552-.18 31.308-26.752 10.158V190.45z" fill="#0E2951"/><path d="M381.132 200.881l25.856-10.416v31.903l-25.856 9.718v-31.205z" fill="#FF8098"/><path d="M433.875 87.25l25.857-9.87v31.286l-25.857 9.835v-31.25z" fill="#C43B55"/><path d="M406.983 97.504l26.891-9.844v31.278l-26.891 9.844V97.504z" fill="#053866"/><path d="M381.126 107.538l25.857-9.598v30.496l-25.857 9.598v-30.496z" fill="#FF8098"/><path d="M355.413 116.824l25.716-9.631v31.17l-25.857 9.951.141-31.49z" fill="#911A31"/><path d="M355.268 206.885v-4.232l18.943-7.606v-45.458l-18.631 6.796-1.344-3.451 23.788-8.732v53.38l-22.756 9.303z" fill="#C43B55"/><path d="M378.026 171.107l-3.812 1.261v-22.749l-18.942 7.003v-4.318l22.754-8.102v26.905z" fill="#F985A0"/><path d="M355.272 198.689v-4.323l12.843-5.2v-30.572l-12.843 4.955v-4.322l16.548-4.744v37.248l-16.548 6.958z" fill="#C43B55"/><path d="M355.268 190.494v-4.383l5.566-1.9v-14.225l-5.279 1.924-1.319-3.367 10.343-3.779v21.955l-9.311 3.775z" fill="#C43B55"/><path d="M364.58 175.891l-3.753 1.209v-7.084l-5.555 2.255v-4.298l9.308-3.209v11.127z" fill="#F985A0"/><path d="M371.82 173.271l-3.705 1.234v-15.758l-12.843 4.947v-4.399l16.548-5.84v19.816z" fill="#F985A0"/><path d="M446.286 82.324l13.445-4.944v15.652l-13.445 4.909V82.323z" fill="#FF8098"/><path d="M381.126 107.524l25.857-9.584v24.376l-25.857 9.55v-24.342z" fill="#C43B55"/><path d="M381.126 107.712l25.857-9.772v18.021l-25.857 9.736v-17.985z" fill="#911A31"/><path d="M381.126 107.542l25.857-9.602v10.994l-25.857 9.567v-10.959z" fill="#053866"/><path d="M381.126 107.747l25.857-9.807v5.614l-25.857 9.807v-5.614z" fill="#0E2951"/><path d="M433.874 173.663l-26.891 9.605 26.891-26.729-26.891 9.606" fill="#911A31"/><path d="M439.044 178.961l-4.107 1.654-.03-31.077 4.059-1.223.078 30.646zm5.173-2.057l-4.136 1.923v-31.346l4.136-1.223v30.646zm5.171-2.056l-4.137 2.645v-32.068l4.137-1.223v30.646z" fill="#FF8098"/><path d="M433.875 119.093l25.857-9.844v31.278l-25.857 9.844v-31.278z" fill="#0E2951"/><path d="M433.875 180.775l25.857-9.843v31.278l-25.857 9.843v-31.278z" fill="#053866"/><path d="M433.875 119.061l12.412-4.672v14.861l-12.412 4.672v-14.861z" fill="#911A31"/><path d="M437.028 211.014l-3.287 1.192c0-21.071 12.002-34.021 25.991-39.218v3.111c-12.623 4.702-22.704 20.667-22.704 34.915z" fill="#FF8098"/><path d="M444.201 208.331l-3.885 1.49c0-15.045 8.832-26.734 19.416-30.665v3.752c-9.248 3.467-15.531 14.381-15.531 25.423z" fill="#D6516B"/><path d="M450.476 205.947l-2.988 1.192c0-9.134 5.185-18.222 12.242-20.861v3.548c-5.497 2.083-9.254 9.557-9.254 16.121z" fill="#C43B55"/><path fill-rule="evenodd" clip-rule="evenodd" d="M430.771 91.772v24.721l-18.696 7.148-1.041-2.773 16.8-6.423V96.066l-14.81 5.663v13.799l11.489-4.37v-9.826l-8.168 3.106v5.888l4.811-1.837V106.5l-2.438.934-1.042-2.773 6.418-2.459v8.335l-10.687 4.082v-12.232l14.043-5.34v16.163l-17.364 6.604V99.681l20.685-7.909z" fill="#F985A0"/><path fill-rule="evenodd" clip-rule="evenodd" d="M357.339 141.981l17.873-30.676 3.846 2.221-17.873 30.676-3.846-2.221z" fill="#0E2951"/><path fill-rule="evenodd" clip-rule="evenodd" d="M374.974 138.034l-17.635-17.352 3.05-3.209 17.635 17.352-3.05 3.209z" fill="#0E2951"/><path d="M397.676 152.091l4.136-1.72v5.475l-4.136 1.721v-5.476zm-5.171-4.366l4.137-1.467v4.701l-4.137 1.467v-4.701zm-6.208-5.132l4.137-1.475v4.693l-4.137 1.475v-4.693z" fill="#911A31"/><path d="M440.081 85.047l19.651-7.667v24.274l-19.651 7.595V85.047z" fill="#053866"/><path d="M446.286 129.595l13.445-4.926v16.012l-13.439 4.931-.006-16.017z" fill="#911A31"/><path opacity=".3" d="M252.265 77.77l103.068 38.884V242l-103.528-38.885.46-125.346z" fill="#000"/><path d="M498.001 39.306l-38.858 38.075-103.81-38.953L394.095.278l103.906 39.028z" fill="#084C80"/><path d="M355.448 116.839l-38.904 38.671-104.001-38.871 39.924-38.78 102.981 38.98z" fill="#094573"/><path d="M355.333 38.427L317.145 0 213.274 39.173l38.787 38.958 103.272-39.704zm142.668 77.407l-38.79-38.455-103.939 39.496 39.004 38.635 103.725-39.676z" fill="#084C80"/></g></g></g><defs><clipPath id="clip0"><path fill="#fff" d="M0 0h450v191H0z"/></clipPath><clipPath id="clip1"><path fill="#fff" transform="translate(0 -211)" d="M0 0h540v402H0z"/></clipPath><clipPath id="clip2"><path fill="#fff" transform="translate(-12 -10)" d="M0 0h510v243H0z"/></clipPath><filter id="filter0_d" x="-2" y="67" width="604" height="214" filterUnits="userSpaceOnUse" color-interpolation-filters="sRGB"><feFlood flood-opacity="0" result="BackgroundImageFix"/><feColorMatrix in="SourceAlpha" values="0 0 0 0 0 0 0 0 0 0 0 0 0 0 0 0 0 0 127 0"/><feOffset dx="2" dy="2"/><feGaussianBlur stdDeviation="2"/><feColorMatrix values="0 0 0 0 0 0 0 0 0 0 0 0 0 0 0 0 0 0 0.2 0"/><feBlend in2="BackgroundImageFix" result="effect1_dropShadow"/><feBlend in="SourceGraphic" in2="effect1_dropShadow" result="shape"/></filter><filter id="filter1_f" x="158" y="122.611" width="219.172" height="85.305" filterUnits="userSpaceOnUse" color-interpolation-filters="sRGB"><feFlood flood-opacity="0" result="BackgroundImageFix"/><feBlend in="SourceGraphic" in2="BackgroundImageFix" result="shape"/><feGaussianBlur stdDeviation="2.5" result="effect1_foregroundBlur"/></filter><filter id="filter2_f" x="203.554" y="-.401" width="302.639" height="301.815" filterUnits="userSpaceOnUse" color-interpolation-filters="sRGB"><feFlood flood-opacity="0" result="BackgroundImageFix"/><feBlend in="SourceGraphic" in2="BackgroundImageFix" result="shape"/><feGaussianBlur stdDeviation="40" result="effect1_foregroundBlur"/></filter><radialGradient id="paint1_radial" cx="0" cy="0" r="1" gradientUnits="userSpaceOnUse" gradientTransform="scale(56.5637 56.2369) rotate(90 2.009 4.25)"><stop stop-color="#0095FF"/><stop offset="1" stop-color="#BCE3FF"/></radialGradient><linearGradient id="paint0_linear" x1="365.976" y1="204.185" x2="312.555" y2="87.557" gradientUnits="userSpaceOnUse"><stop/><stop offset=".978" stop-color="#FFF5F7" stop-opacity="0"/></linearGradient></defs></svg>