<svg width="450" height="191" viewBox="0 0 450 191" fill="none" xmlns="http://www.w3.org/2000/svg">
<g clip-path="url(#clip0)">
<g clip-path="url(#clip1)">
<g clip-path="url(#clip2)">
<g filter="url(#filter0_d)">
<path d="M273.217 275L0 168.448L301.022 69L596 168.448L273.217 275Z" fill="#FFF5F7"/>
</g>
<g filter="url(#filter1_f)">
<path d="M372.172 158.987L255.141 202.915L163 169.513L279.379 127.611L372.172 158.987Z" fill="url(#paint0_linear)"/>
</g>
<path d="M355.271 241.866L251.88 202.986L251.845 78.4074L355.271 117.287V241.866Z" fill="#053866"/>
<path d="M459.74 202.371L355.273 163.463L354.799 38.8683L356.583 37.3939L459.734 77.5076L459.74 202.371Z" fill="#083556"/>
<path d="M355.272 241.866L459.698 202.339L459.733 77.3791L355.308 116.585L355.272 241.866Z" fill="#054270"/>
<path d="M251.88 202.8L356.939 160.616L355.329 38.4267L354.085 37.3939L251.845 77.5466L251.88 202.8Z" fill="#063D66"/>
<g filter="url(#filter2_f)">
<ellipse cx="354.873" cy="150.507" rx="71.3194" ry="70.9074" fill="url(#paint1_radial)"/>
</g>
<path d="M355.275 241.868L251.884 202.986L251.849 78.4074L355.275 117.287V241.868Z" fill="#053866"/>
<path d="M277.705 119.529L251.884 109.736L251.848 78.4074L277.705 88.4128V119.529Z" fill="#053866"/>
<path d="M258.721 108.215C256.392 108.274 254.076 107.855 251.916 106.985L251.845 103.68C257.099 105.684 262.141 105.297 266.019 102.626C270.638 99.4622 273.565 94.2245 273.565 86.6316L276.668 87.8619C276.668 96.5094 274.094 101.36 268.629 105.122C265.695 107.086 262.254 108.16 258.721 108.215V108.215Z" fill="#FF8098"/>
<path d="M303.56 128.781L277.703 118.938V87.6596L303.56 97.5031V128.781Z" fill="#0E2951"/>
<path d="M329.415 139.061L303.559 129.218V97.9398L329.415 107.748V139.061Z" fill="#FF8098"/>
<path d="M355.272 148.311L329.415 138.588V107.192L355.447 116.839L355.272 148.311Z" fill="#911A31"/>
<path d="M277.702 150.37L251.845 140.562V109.249L277.702 119.092V150.37Z" fill="#911A31"/>
<path d="M303.56 159.623L277.703 150.025V119.529L303.56 129.127V159.623Z" fill="#C43B55"/>
<path d="M329.415 169.903L303.559 160.059V128.781L329.415 138.625V169.903Z" fill="#053866"/>
<path d="M355.272 179.155L329.415 169.664L329.449 138.595L355.272 148.285V179.155Z" fill="#132F7C"/>
<path d="M303.56 191.492L277.703 181.684V150.031L303.56 159.614V191.492Z" fill="#FF8098"/>
<path d="M329.418 200.744L303.561 190.9V159.622L329.418 169.466V200.744Z" fill="#0E2951"/>
<path d="M355.276 211.024L329.419 201.29V169.903L355.276 179.637V211.024Z" fill="#053866"/>
<path d="M277.702 212.661L251.845 202.967V171.54L277.702 181.212V212.661Z" fill="#C43B55"/>
<path d="M303.56 222.333L277.703 212.516V181.211L303.56 191.028V222.333Z" fill="#053866"/>
<path d="M329.415 232.033L303.559 222.189V190.911L329.415 200.755V232.033Z" fill="#FF8098"/>
<path d="M257.191 102.051C255.356 102.078 253.535 101.722 251.845 101.004V97.2126C255.602 98.6569 260.262 98.1514 262.574 96.6349C266.439 94.0714 268.317 90.0998 268.317 84.5756L271.496 85.8393C271.496 92.6272 269.076 96.7794 264.741 99.7762C262.506 101.266 259.878 102.058 257.191 102.051V102.051Z" fill="#D6516B"/>
<path d="M255.343 94.8543C254.145 94.8788 252.954 94.6456 251.845 94.169V90.1716C254.104 91.0853 257.602 90.8569 259.534 88.8391C261.538 86.7453 262.084 85.0321 262.084 81.4915L265.291 82.824C265.291 87.697 263.687 91.0092 260.663 93.1792C259.089 94.2784 257.237 94.8617 255.343 94.8543V94.8543Z" fill="#C43B55"/>
<path d="M253.492 87.6472C252.925 87.6999 252.356 87.5832 251.845 87.3098V83.3725C252.394 83.5975 254.178 83.7475 254.864 83.3725C256.065 82.6975 256.065 81.3851 255.482 79.4352L259.084 80.7477C259.084 83.485 258.192 85.3974 256.511 86.6723C255.61 87.3043 254.563 87.6424 253.492 87.6472Z" fill="#A62E41"/>
<path d="M354.871 205.884L332.517 197.667V144.202L355.27 152.278V156.616L336.369 149.562V195.815L354.551 203.265L354.871 205.884Z" fill="#C43B55"/>
<path d="M355.27 206.912L332.517 197.934V170.785L336.369 172.168V195.384L355.27 202.615V206.912Z" fill="#F985A0"/>
<path d="M354.85 197.603L338.724 192.536V153.454L355.272 159.296V163.705L342.577 158.938V190.731L355.272 195.139L354.85 197.603Z" fill="#C43B55"/>
<path d="M354.85 188.96L345.966 186.576V164.762L355.274 167.979V172.28L349.682 170.112V184.589L355.274 187.001L354.85 188.96Z" fill="#C43B55"/>
<path d="M355.274 190.463L345.966 186.856V175.724L349.682 177.067V184.309L355.274 186.113V190.463Z" fill="#F985A0"/>
<path d="M355.272 198.688L338.724 192.647V173.081L342.577 174.505V190.098L355.272 194.393V198.688Z" fill="#F985A0"/>
<path d="M271.496 210.353L251.845 202.967V179.155L271.496 186.54V210.353Z" fill="#053866"/>
<path d="M264.256 207.624L251.845 202.967V187.379L264.256 192.296V207.624Z" fill="#FF8098"/>
<path d="M329.415 118.705L319.957 134.949L303.559 117.268L313.017 101.024L329.415 118.705Z" fill="#C43B55"/>
<path d="M323.212 118.332L318.266 126.725L309.766 117.606L314.675 109.249L323.212 118.332Z" fill="#911A31"/>
<path d="M277.703 126.725L303.56 136.331L277.703 143.848L303.56 153.454L277.703 126.725Z" fill="#911A31"/>
<path d="M254.948 142.146L251.845 140.883V109.249L254.948 110.511V142.146Z" fill="#FF8098"/>
<path d="M260.119 143.174L257.017 141.952V111.305L260.119 112.561V143.174Z" fill="#FF8098"/>
<path d="M276.667 149.341L272.53 148.118V117.472L276.667 118.695V149.341Z" fill="#FF8098"/>
<path d="M270.461 147.285L267.359 146.062V115.416L270.461 116.639V147.285Z" fill="#FF8098"/>
<path d="M265.291 145.23L262.189 144.007V113.36L265.291 114.584V145.23Z" fill="#FF8098"/>
<path d="M277.702 181.212L251.845 171.368V140.09L277.702 149.898V181.212Z" fill="#0E2951"/>
<path d="M277.702 181.211L264.256 176.294V160.65L277.702 165.568V181.211Z" fill="#911A31"/>
<path d="M264.256 160.651L251.845 155.725V140.09L264.256 144.755V160.651Z" fill="#911A31"/>
<path fill-rule="evenodd" clip-rule="evenodd" d="M280.806 186.352L299.551 193.696L298.557 196.407L283.611 190.551V208.521L297.651 214.021V200.534L286.782 196.27V205.875L294.48 208.901V203.11L289.92 201.318V203.298L293.243 204.602L292.248 207.312L287.114 205.299V197.114L297.285 201.11V213.106L283.977 207.874V192.068L300.457 198.533V218.221L280.806 210.522V186.352Z" fill="#F985A0"/>
<path d="M312.866 175.043L308.729 173.322V167.847L312.866 169.568V175.043Z" fill="#911A31"/>
<path d="M318.037 184.295L313.9 182.584V177.099L318.037 178.81V184.295Z" fill="#911A31"/>
<path d="M324.243 192.52L320.107 191.045V186.352L324.243 187.827V192.52Z" fill="#911A31"/>
<path d="M355.448 116.839L459.732 77.3797V202.482L355.271 241.866L355.448 116.839Z" fill="#053866"/>
<path d="M433.877 149.925L459.734 140.09V171.376L433.877 181.211V149.925Z" fill="#911A31"/>
<path d="M406.986 159.968L433.877 150.37V180.901L406.986 190.464V159.968Z" fill="#C43B55"/>
<path d="M381.132 169.466L406.989 159.622V190.9L381.132 200.744V169.466Z" fill="#053866"/>
<path d="M355.273 179.135L381.13 169.875V201.073L355.273 211.024V179.135Z" fill="#132F7C"/>
<path d="M406.985 128.345L433.876 118.501V150.516L406.985 160.052V128.345Z" fill="#FF8098"/>
<path d="M381.132 138.625L406.989 128.782V160.06L381.132 169.903V138.625Z" fill="#0E2951"/>
<path d="M355.273 147.985L381.13 138.034V169.203L355.273 179.155V147.985Z" fill="#053866"/>
<path d="M406.989 190.45L433.921 180.898L433.741 212.206L406.989 222.364V190.45Z" fill="#0E2951"/>
<path d="M381.132 200.881L406.988 190.465V222.368L381.132 232.086V200.881Z" fill="#FF8098"/>
<path d="M433.875 87.2503L459.732 77.3797V108.666L433.875 118.501V87.2503Z" fill="#C43B55"/>
<path d="M406.983 97.5038L433.874 87.6603V118.938L406.983 128.782V97.5038Z" fill="#053866"/>
<path d="M381.126 107.538L406.983 97.9402V128.436L381.126 138.034V107.538Z" fill="#FF8098"/>
<path d="M355.413 116.824L381.129 107.193V138.363L355.272 148.314L355.413 116.824Z" fill="#911A31"/>
<path d="M355.268 206.885V202.653L374.211 195.047V149.589L355.58 156.385L354.236 152.934L378.024 144.202V197.582L355.268 206.885Z" fill="#C43B55"/>
<path d="M378.026 171.107L374.214 172.368V149.619L355.272 156.622V152.304L378.026 144.202V171.107Z" fill="#F985A0"/>
<path d="M355.272 198.689V194.366L368.115 189.166V158.594L355.272 163.549V159.227L371.82 154.483V191.731L355.272 198.689Z" fill="#C43B55"/>
<path d="M355.268 190.494V186.111L360.834 184.211V169.986L355.555 171.91L354.236 168.543L364.579 164.764V186.719L355.268 190.494Z" fill="#C43B55"/>
<path d="M364.58 175.891L360.827 177.1V170.016L355.272 172.271V167.973L364.58 164.764V175.891Z" fill="#F985A0"/>
<path d="M371.82 173.271L368.115 174.505V158.747L355.272 163.694V159.295L371.82 153.455V173.271Z" fill="#F985A0"/>
<path d="M446.286 82.3243L459.731 77.3797V93.0316L446.286 97.9405V82.3243Z" fill="#FF8098"/>
<path d="M381.126 107.524L406.983 97.9402V122.316L381.126 131.866V107.524Z" fill="#C43B55"/>
<path d="M381.126 107.712L406.983 97.9402V115.961L381.126 125.697V107.712Z" fill="#911A31"/>
<path d="M381.126 107.542L406.983 97.9402V108.934L381.126 118.501V107.542Z" fill="#053866"/>
<path d="M381.126 107.747L406.983 97.9402V103.554L381.126 113.361V107.747Z" fill="#0E2951"/>
<path d="M433.874 173.663L406.983 183.268L433.874 156.539L406.983 166.145" fill="#911A31"/>
<path d="M439.044 178.961L434.937 180.615L434.907 149.538L438.966 148.315L439.044 178.961Z" fill="#FF8098"/>
<path d="M444.217 176.904L440.081 178.827V147.481L444.217 146.258V176.904Z" fill="#FF8098"/>
<path d="M449.388 174.848L445.251 177.493V145.425L449.388 144.202V174.848Z" fill="#FF8098"/>
<path d="M433.875 119.093L459.732 109.249V140.527L433.875 150.371V119.093Z" fill="#0E2951"/>
<path d="M433.875 180.775L459.732 170.932V202.21L433.875 212.053V180.775Z" fill="#053866"/>
<path d="M433.875 119.061L446.287 114.389V129.25L433.875 133.922V119.061Z" fill="#911A31"/>
<path d="M437.028 211.014L433.741 212.206C433.741 191.135 445.743 178.185 459.732 172.988V176.099C447.109 180.801 437.028 196.766 437.028 211.014Z" fill="#FF8098"/>
<path d="M444.201 208.331L440.316 209.821C440.316 194.776 449.148 183.087 459.732 179.156V182.908C450.484 186.375 444.201 197.289 444.201 208.331Z" fill="#D6516B"/>
<path d="M450.476 205.947L447.488 207.139C447.488 198.005 452.673 188.917 459.73 186.278V189.826C454.233 191.909 450.476 199.383 450.476 205.947Z" fill="#C43B55"/>
<path fill-rule="evenodd" clip-rule="evenodd" d="M430.771 91.7721V116.493L412.075 123.641L411.034 120.868L427.834 114.445V96.0663L413.024 101.729V115.528L424.513 111.158V101.332L416.345 104.438V110.326L421.156 108.489V106.5L418.718 107.434L417.676 104.661L424.094 102.202V110.537L413.407 114.619V102.387L427.45 97.0463V113.21L410.086 119.814V99.6814L430.771 91.7721Z" fill="#F985A0"/>
<path fill-rule="evenodd" clip-rule="evenodd" d="M357.339 141.981L375.212 111.305L379.058 113.526L361.185 144.202L357.339 141.981Z" fill="#0E2951"/>
<path fill-rule="evenodd" clip-rule="evenodd" d="M374.974 138.034L357.339 120.682L360.389 117.473L378.024 134.825L374.974 138.034Z" fill="#0E2951"/>
<path d="M397.676 152.091L401.812 150.371V155.846L397.676 157.567V152.091Z" fill="#911A31"/>
<path d="M392.505 147.725L396.642 146.258V150.959L392.505 152.426V147.725Z" fill="#911A31"/>
<path d="M386.297 142.593L390.434 141.118V145.811L386.297 147.286V142.593Z" fill="#911A31"/>
<path d="M440.081 85.0472L459.732 77.3797V101.654L440.081 109.249V85.0472Z" fill="#053866"/>
<path d="M446.286 129.595L459.731 124.669V140.681L446.292 145.612L446.286 129.595Z" fill="#911A31"/>
<path opacity="0.3" d="M252.265 77.7693L355.333 116.654V242L251.805 203.115L252.265 77.7693Z" fill="black"/>
<path d="M498.001 39.3062L459.143 77.3809L355.333 38.4284L394.095 0.277863L498.001 39.3062Z" fill="#084C80"/>
<path d="M355.448 116.839L316.544 155.51L212.543 116.639L252.467 77.8595L355.448 116.839Z" fill="#094573"/>
<path d="M355.333 38.4272L317.145 0L213.274 39.1728L252.061 78.1311L355.333 38.4272Z" fill="#084C80"/>
<path d="M498.001 115.834L459.211 77.3791L355.272 116.875L394.276 155.51L498.001 115.834Z" fill="#084C80"/>
</g>
</g>
</g>
<defs>
<filter id="filter0_d" x="-2" y="67" width="604" height="214" filterUnits="userSpaceOnUse" color-interpolation-filters="sRGB">
<feFlood flood-opacity="0" result="BackgroundImageFix"/>
<feColorMatrix in="SourceAlpha" type="matrix" values="0 0 0 0 0 0 0 0 0 0 0 0 0 0 0 0 0 0 127 0"/>
<feOffset dx="2" dy="2"/>
<feGaussianBlur stdDeviation="2"/>
<feColorMatrix type="matrix" values="0 0 0 0 0 0 0 0 0 0 0 0 0 0 0 0 0 0 0.2 0"/>
<feBlend mode="normal" in2="BackgroundImageFix" result="effect1_dropShadow"/>
<feBlend mode="normal" in="SourceGraphic" in2="effect1_dropShadow" result="shape"/>
</filter>
<filter id="filter1_f" x="158" y="122.611" width="219.172" height="85.3048" filterUnits="userSpaceOnUse" color-interpolation-filters="sRGB">
<feFlood flood-opacity="0" result="BackgroundImageFix"/>
<feBlend mode="normal" in="SourceGraphic" in2="BackgroundImageFix" result="shape"/>
<feGaussianBlur stdDeviation="2.5" result="effect1_foregroundBlur"/>
</filter>
<filter id="filter2_f" x="203.554" y="-0.400635" width="302.639" height="301.815" filterUnits="userSpaceOnUse" color-interpolation-filters="sRGB">
<feFlood flood-opacity="0" result="BackgroundImageFix"/>
<feBlend mode="normal" in="SourceGraphic" in2="BackgroundImageFix" result="shape"/>
<feGaussianBlur stdDeviation="40" result="effect1_foregroundBlur"/>
</filter>
<linearGradient id="paint0_linear" x1="365.976" y1="204.185" x2="312.555" y2="87.5571" gradientUnits="userSpaceOnUse">
<stop/>
<stop offset="0.978163" stop-color="#FFF5F7" stop-opacity="0"/>
</linearGradient>
<radialGradient id="paint1_radial" cx="0" cy="0" r="1" gradientUnits="userSpaceOnUse" gradientTransform="translate(354.053 126.056) rotate(90) scale(56.2369 56.5637)">
<stop stop-color="#0095FF"/>
<stop offset="1" stop-color="#BCE3FF"/>
</radialGradient>
<clipPath id="clip0">
<rect width="450" height="191" fill="white"/>
</clipPath>
<clipPath id="clip1">
<rect width="540" height="402" fill="white" transform="translate(0 -211)"/>
</clipPath>
<clipPath id="clip2">
<rect width="510" height="243" fill="white" transform="translate(-12 -10)"/>
</clipPath>
</defs>
</svg>
