<svg width="462" height="201" fill="none" xmlns="http://www.w3.org/2000/svg"><g clip-path="url(#clip0)"><g filter="url(#filter0_d)"><path d="M285.217 285L12 178.448 313.022 79 608 178.448 285.217 285z" fill="#FFF5F7"/></g><g filter="url(#filter1_f)"><path d="M384.172 159.644l-117.031 44.11L175 170.214l116.379-42.076 92.793 31.506z" fill="url(#paint0_linear)"/></g><path d="M367.271 242.865l-103.391-39.04-.035-125.094 103.426 39.041v125.093z" fill="#053866"/><path d="M471.519 203.638l-104.246-39.499.061-125.553 104.4 39.242-.215 125.81z" fill="#083556"/><path d="M367.273 242.865l104.425-39.69.036-125.476-104.425 39.368-.036 125.798z" fill="#054270"/><path d="M263.88 203.638l103.453-37.81V38.586L263.845 77.867l.035 125.771z" fill="#063D66"/><g filter="url(#filter2_f)"><ellipse cx="366.873" cy="151.129" rx="71.319" ry="71.2" fill="url(#paint1_radial)"/></g><path d="M367.239 242.865l-103.356-39.04-.035-125.094 103.426 39.041-.035 125.093z" fill="#053866"/><path d="M289.704 120.023l-25.821-9.833-.035-31.459 25.856 10.047v31.245z" fill="#053866"/><path d="M270.721 108.662a16.994 16.994 0 01-6.805-1.235l-.07-3.318c5.253 2.012 10.295 1.623 14.174-1.059 4.619-3.177 7.545-8.436 7.545-16.06l3.103 1.235c0 8.683-2.574 13.554-8.039 17.331a18.268 18.268 0 01-9.908 3.106z" fill="#FF8098"/><path d="M315.56 129.313l-25.856-9.884V88.022l25.856 9.884v31.407z" fill="#0E2951"/><path d="M341.416 139.636l-25.857-9.884V98.344l25.857 9.849v31.443z" fill="#FF8098"/><path d="M367.13 148.927l-25.714-9.767v-31.525l25.856 9.479-.142 31.813zm-77.428 2.065l-25.856-9.849V109.7l25.856 9.884v31.408z" fill="#911A31"/><path d="M315.56 160.282l-25.856-9.637v-30.622l25.856 9.637v30.622z" fill="#C43B55"/><path d="M341.416 170.605l-25.857-9.885v-31.407l25.857 9.884v31.408z" fill="#053866"/><path d="M367.272 179.895l-25.856-9.53v-30.729l25.856 9.531v30.728z" fill="#132F7C"/><path d="M315.56 192.283l-25.856-9.849v-31.443l25.856 9.884v31.408z" fill="#FF8098"/><path d="M341.418 201.573l-25.856-9.884v-31.407l25.856 9.884v31.407z" fill="#0E2951"/><path d="M367.276 211.897l-25.857-9.775v-31.517l25.857 9.775v31.517z" fill="#053866"/><path d="M289.702 213.961l-25.856-9.884v-31.408l25.856 9.884v31.408z" fill="#C43B55"/><path d="M315.56 223.252l-25.856-9.857V181.96l25.856 9.857v31.435z" fill="#053866"/><path d="M341.416 233.574l-25.857-9.884v-31.407l25.857 9.884v31.407z" fill="#FF8098"/><path d="M269.192 102.473a13.124 13.124 0 01-5.346-1.052v-3.807c3.757 1.45 8.416.943 10.728-.58 3.866-2.574 5.744-6.562 5.744-12.109l3.179 1.27c0 6.815-2.42 10.984-6.755 13.994a13.527 13.527 0 01-7.55 2.284z" fill="#D6516B"/><path d="M267.344 95.246a8.383 8.383 0 01-3.498-.688v-4.014c2.259.918 5.757.688 7.688-1.338 2.004-2.102 2.551-3.823 2.551-7.378l3.206 1.338c0 4.894-1.603 8.22-4.627 10.398a9.199 9.199 0 01-5.32 1.682z" fill="#C43B55"/><path d="M265.493 88.01a2.901 2.901 0 01-1.647-.34v-3.953c.549.226 2.333.377 3.019 0 1.201-.678 1.201-1.996.618-3.954l3.603 1.318c0 2.749-.893 4.67-2.574 5.95a5.276 5.276 0 01-3.019.978z" fill="#A62E41"/><path d="M366.871 206.735l-22.354-8.251v-53.687l22.754 8.11v4.356l-18.901-7.083v45.718l18.283 6.729.218 4.108z" fill="#C43B55"/><path d="M367.271 207.767l-22.754-9.015v-27.115l3.853 1.228v23.326l18.901 7.261v4.315z" fill="#F985A0"/><path d="M366.869 199.509l-16.144-6.011v-39.41l16.548 5.867v4.427l-12.696-4.787v31.924l12.696 4.427-.404 3.563z" fill="#C43B55"/><path d="M366.885 191.25l-8.919-3.37v-22.437l9.309 3.23v4.319l-5.592-2.177v14.536l5.592 2.423-.39 3.476z" fill="#C43B55"/><path d="M367.275 191.25l-9.309-3.622v-11.862l3.717 1.243v8.062l5.592 1.811v4.368z" fill="#F985A0"/><path d="M367.273 199.509l-16.548-6.066v-19.741l3.852 1.227v15.954l12.696 4.313v4.313z" fill="#F985A0"/><path d="M283.497 210.864l-19.651-7.416v-23.553l19.651 7.415v23.554z" fill="#053866"/><path d="M276.257 208.799l-12.411-4.938v-15.708l12.411 4.938v15.708z" fill="#FF8098"/><path d="M341.416 119.196l-9.458 16.311-16.399-17.755 9.458-16.311 16.399 17.755z" fill="#C43B55"/><path d="M335.212 118.821l-4.946 8.428-8.499-9.158 4.909-8.391 8.536 9.121z" fill="#911A31"/><path d="M341.416 233.575l-25.857-9.915v-25.183l25.857 9.879v25.219z" fill="#C43B55"/><path d="M289.704 127.249l25.856 9.645-25.856 7.549 25.856 9.645-25.856-26.839z" fill="#911A31"/><path d="M266.949 142.733l-3.103-1.267V109.7l3.103 1.268v31.765zm5.171 1.032l-3.102-1.226v-30.775l3.102 1.262v30.739zm16.548 6.193l-4.137-1.228v-30.773l4.137 1.228v30.773zm-6.206-2.064l-3.103-1.228v-30.773l3.103 1.228v30.773zm-5.169-2.064l-3.103-1.228v-30.773l3.103 1.228v30.773z" fill="#FF8098"/><path d="M289.702 181.96l-25.856-9.884v-31.407l25.856 9.848v31.443z" fill="#0E2951"/><path d="M289.702 181.96l-13.445-4.938v-15.708l13.445 4.938v15.708zm-13.445-20.646l-12.411-4.946v-15.699l12.411 4.946v15.699z" fill="#911A31"/><path fill-rule="evenodd" clip-rule="evenodd" d="M292.806 187.122l18.746 7.374-.995 2.723-14.946-5.88v18.043l14.041 5.524v-13.543l-10.869-4.282v9.645l7.698 3.039v-5.816l-4.561-1.799v1.988l3.324 1.309-.996 2.722-5.133-2.022v-8.219l10.171 4.013v12.046l-13.308-5.254v-15.871l16.479 6.492v19.769l-19.651-7.731v-24.27z" fill="#F985A0"/><path d="M324.867 175.766l-4.137-1.727v-5.499l4.137 1.728v5.498zm5.171 9.291l-4.137-1.719v-5.507l4.137 1.718v5.508zm6.206 8.259l-4.137-1.482v-4.712l4.137 1.481v4.713z" fill="#911A31"/><path d="M367.308 117.067L471.733 77.7v125.619l-104.461 39.547.036-125.799z" fill="#053866"/><path d="M445.876 150.544l25.857-9.875v31.416l-25.857 9.875v-31.416z" fill="#911A31"/><path d="M418.985 160.629l26.891-9.637v30.657l-26.891 9.602v-30.622z" fill="#C43B55"/><path d="M393.131 170.166l25.857-9.884v31.407l-25.857 9.884v-31.407z" fill="#053866"/><path d="M367.273 180.598l25.857-9.993v31.299l-25.857 9.992v-31.298z" fill="#132F7C"/><path d="M418.985 128.875l26.891-9.884v31.407l-26.891 9.884v-31.407z" fill="#FF8098"/><path d="M393.131 139.198l25.857-9.884v31.407l-25.857 9.885v-31.408z" fill="#0E2951"/><path d="M367.273 148.597l25.857-9.993v31.299l-25.857 9.993v-31.299z" fill="#053866"/><path d="M418.989 191.81l26.891-9.849v31.408l-26.891 9.884V191.81z" fill="#0E2951"/><path d="M393.131 201.136l25.857-9.884v31.443l-25.857 9.848v-31.407z" fill="#FF8098"/><path d="M445.875 87.611l25.857-9.911v31.416l-25.857 9.875v-31.38z" fill="#C43B55"/><path d="M418.983 97.907l26.891-9.884v31.407l-26.891 9.884V97.907z" fill="#053866"/><path d="M393.127 107.982l25.857-9.637v30.622l-25.857 9.637v-30.622z" fill="#FF8098"/><path d="M367.414 117.307l25.715-9.671v31.299l-25.857 9.992.142-31.62z" fill="#911A31"/><path d="M366.635 207.768v-4.349l19.576-7.566v-45.645l-18.631 6.823-1.344-3.464 23.788-8.769v53.6l-23.389 9.37z" fill="#C43B55"/><path d="M390.026 172.458l-3.71 1.244v-23.464l-19.044 7.359v-4.373l22.754-8.426v27.66z" fill="#F985A0"/><path d="M367.272 199.51v-4.34l12.844-5.223V159.25l-12.844 4.975v-4.34l16.549-4.764v37.402l-16.549 6.987z" fill="#C43B55"/><path d="M366.628 191.252v-4.244l6.206-2.036v-14.283l-5.279 1.932-1.319-3.381 10.343-3.795v22.046l-9.951 3.761z" fill="#C43B55"/><path d="M376.581 176.618l-3.503 1.214v-7.113l-5.806 2.429v-4.268l9.309-3.435v11.173z" fill="#F985A0"/><path d="M383.821 174.508l-3.705 1.259v-16.364l-12.844 4.93v-4.3l16.549-5.944v20.419z" fill="#F985A0"/><path d="M458.286 82.665l13.446-4.965v15.716l-13.446 4.93V82.664z" fill="#FF8098"/><path d="M393.127 221.272l9.464-22.795 16.393 5.078-9.464 22.794-16.393-5.077zm0-113.303l25.857-9.624v24.477l-25.857 9.589v-24.442z" fill="#C43B55"/><path d="M393.127 108.157l25.857-9.812v18.095l-25.857 9.777v-18.06z" fill="#911A31"/><path d="M393.127 107.987l25.857-9.642v11.039l-25.857 9.607v-11.004z" fill="#053866"/><path d="M393.127 108.192l25.857-9.847v5.637l-25.857 9.847v-5.637z" fill="#0E2951"/><path d="M445.874 174.38l-26.891 9.646 26.891-26.84-26.891 9.646" fill="#911A31"/><path d="M451.044 179.7l-4.059 1.229-.078-30.773 4.06-1.228.077 30.772zm5.174-2.065l-4.137 1.229v-30.773l4.137-1.228v30.772zm5.171-2.064l-4.138 1.228v-30.773l4.138-1.228v30.773z" fill="#FF8098"/><path d="M445.875 119.585l25.857-9.884v31.407l-25.857 9.884v-31.407z" fill="#0E2951"/><path d="M445.875 181.522l25.857-9.884v31.408l-25.857 9.884v-31.408z" fill="#053866"/><path d="M445.875 119.553l12.412-4.691v14.923l-12.412 4.691v-14.923z" fill="#911A31"/><path d="M449.04 211.687l-3.165 1.243c0-21.158 11.868-34.009 25.857-39.227v3.124c-12.622 4.721-22.692 20.554-22.692 34.86z" fill="#FF8098"/><path d="M455.874 209.609l-3.793 1.256c0-15.108 9.067-27.021 19.651-30.969v3.768c-9.248 3.481-15.858 14.857-15.858 25.945z" fill="#D6516B"/><path d="M462.794 206.548l-3.476 1.22c0-9.172 5.284-17.995 12.341-20.645l.071 3.487c-5.497 2.093-8.936 9.346-8.936 15.938z" fill="#C43B55"/><path fill-rule="evenodd" clip-rule="evenodd" d="M442.771 92.151v24.823l-18.696 7.178-1.041-2.784 16.8-6.45V96.463l-14.81 5.687v13.855l11.489-4.387v-9.867l-8.168 3.119v5.912l4.811-1.845v-1.997l-2.438.938-1.042-2.784 6.418-2.469v8.369l-10.687 4.099V102.81l14.043-5.363v16.231l-17.364 6.631v-20.216l20.685-7.942z" fill="#F985A0"/><path fill-rule="evenodd" clip-rule="evenodd" d="M369.339 142.568l17.874-30.803 3.846 2.23-17.873 30.803-3.847-2.23z" fill="#0E2951"/><path fill-rule="evenodd" clip-rule="evenodd" d="M386.975 138.605l-17.636-17.424 3.05-3.222 17.636 17.423-3.05 3.223z" fill="#0E2951"/><path d="M409.676 152.72l4.137-1.728v5.498l-4.137 1.728v-5.498zm-5.171-4.384l4.137-1.473v4.72l-4.137 1.473v-4.72zm-6.208-5.154l4.137-1.481v4.713l-4.137 1.481v-4.713z" fill="#911A31"/><path d="M452.081 85.399l19.651-7.7v24.375l-19.651 7.627V85.399z" fill="#053866"/><path d="M458.286 130.131l13.445-4.947v15.7l-13.445 4.946v-15.699z" fill="#911A31"/><path opacity=".3" d="M264.265 78.09l103.068 39.046V243l-103.528-39.045.46-125.864z" fill="#000"/><path d="M510.001 39.468L471.143 77.7l-103.81-39.113L406.094.279l103.907 39.19z" fill="#084C80"/><path d="M367.759 117.146l-39.215 39.007-104.001-39.032 39.924-38.94 103.292 38.965z" fill="#094573"/><path d="M367.333 38.586L329.146 0 225.275 39.335l38.786 39.119 103.272-39.868zm142.669 77.727l-38.79-38.614-103.939 39.659 39.004 38.795 103.725-39.84z" fill="#084C80"/></g><defs><filter id="filter0_d" x="10" y="77" width="604" height="214" filterUnits="userSpaceOnUse" color-interpolation-filters="sRGB"><feFlood flood-opacity="0" result="BackgroundImageFix"/><feColorMatrix in="SourceAlpha" values="0 0 0 0 0 0 0 0 0 0 0 0 0 0 0 0 0 0 127 0"/><feOffset dx="2" dy="2"/><feGaussianBlur stdDeviation="2"/><feColorMatrix values="0 0 0 0 0 0 0 0 0 0 0 0 0 0 0 0 0 0 0.2 0"/><feBlend in2="BackgroundImageFix" result="effect1_dropShadow"/><feBlend in="SourceGraphic" in2="effect1_dropShadow" result="shape"/></filter><filter id="filter1_f" x="170" y="123.138" width="219.172" height="85.616" filterUnits="userSpaceOnUse" color-interpolation-filters="sRGB"><feFlood flood-opacity="0" result="BackgroundImageFix"/><feBlend in="SourceGraphic" in2="BackgroundImageFix" result="shape"/><feGaussianBlur stdDeviation="2.5" result="effect1_foregroundBlur"/></filter><filter id="filter2_f" x="215.554" y="-.072" width="302.639" height="302.401" filterUnits="userSpaceOnUse" color-interpolation-filters="sRGB"><feFlood flood-opacity="0" result="BackgroundImageFix"/><feBlend in="SourceGraphic" in2="BackgroundImageFix" result="shape"/><feGaussianBlur stdDeviation="40" result="effect1_foregroundBlur"/></filter><radialGradient id="paint1_radial" cx="0" cy="0" r="1" gradientUnits="userSpaceOnUse" gradientTransform="matrix(0 56.4693 -56.5637 0 366.053 126.577)"><stop stop-color="#0095FF"/><stop offset="1" stop-color="#BCE3FF"/></radialGradient><linearGradient id="paint0_linear" x1="377.976" y1="205.029" x2="324.19" y2="88.087" gradientUnits="userSpaceOnUse"><stop offset=".096"/><stop offset=".978" stop-color="#B4D1FA" stop-opacity="0"/></linearGradient><clipPath id="clip0"><path fill="#fff" d="M0 0h510v243H0z"/></clipPath></defs></svg>