<svg width="24" height="24" fill="none" xmlns="http://www.w3.org/2000/svg"><g clip-path="url(#clip0)" fill="#A62E41"><path fill-rule="evenodd" clip-rule="evenodd" d="M12.857 1.736a5.2 5.2 0 00-2.521.648.387.387 0 11-.374-.678 5.998 5.998 0 11-2.174 2.048.387.387 0 01.653.414 5.224 5.224 0 104.416-2.432z"/><path fill-rule="evenodd" clip-rule="evenodd" d="M22.292 19.965a5.176 5.176 0 00.688-2.507.388.388 0 01.776.008 5.945 5.945 0 01-.79 2.88 6.043 6.043 0 01-8.203 2.26 5.953 5.953 0 01-2.247-8.152 6.043 6.043 0 018.203-2.26 5.942 5.942 0 012.332 2.38.388.388 0 01-.686.364 5.173 5.173 0 00-2.03-2.073 5.264 5.264 0 00-7.145 1.969 5.185 5.185 0 001.957 7.1 5.264 5.264 0 007.145-1.969z"/><path fill-rule="evenodd" clip-rule="evenodd" d="M.986 16.302a5.195 5.195 0 00.46 2.562.387.387 0 01-.704.324 6.006 6.006 0 015.898-8.486 5.99 5.99 0 015.539 6.419 6.006 6.006 0 01-9.555 4.385.387.387 0 11.461-.622 5.23 5.23 0 008.321-3.82 5.217 5.217 0 00-4.823-5.59 5.23 5.23 0 00-5.597 4.828z"/><path d="M14.493 4.917V3.688h-1.347c-.638 0-1.155.508-1.155 1.135V6.05h-.77v1.135h.77v3.591h1.155v-3.59h.96L14.3 6.05h-1.155v-.945a.19.19 0 01.192-.189h1.155z"/><path fill-rule="evenodd" clip-rule="evenodd" d="M2.374 15.446c0-.874.709-1.583 1.583-1.583h4.716c.874 0 1.583.709 1.583 1.583v2.659c0 .873-.709 1.582-1.583 1.582H3.957a1.583 1.583 0 01-1.583-1.582v-2.66zm1.583-.852a.852.852 0 00-.853.852v2.659c0 .47.382.852.853.852h4.716a.853.853 0 00.853-.852v-2.66a.852.852 0 00-.853-.851H3.957z"/><path fill-rule="evenodd" clip-rule="evenodd" d="M6.068 16.078v1.395l1.093-.697-1.093-.698zm-.73-.11a.67.67 0 011.03-.565l1.266.808a.67.67 0 010 1.13l-1.267.807a.67.67 0 01-1.03-.564v-1.617zm9.335.452c0-1.21.981-2.192 2.192-2.192h1.8c1.21 0 2.192.982 2.192 2.192v1.8c0 1.21-.982 2.192-2.192 2.192h-1.8a2.191 2.191 0 01-2.192-2.192v-1.8zm2.192-1.461a1.46 1.46 0 00-1.461 1.46v1.801a1.46 1.46 0 001.46 1.461h1.801a1.46 1.46 0 001.461-1.46V16.42a1.46 1.46 0 00-1.46-1.461h-1.801z"/><path fill-rule="evenodd" clip-rule="evenodd" d="M17.765 16.428a.893.893 0 100 1.786.893.893 0 000-1.786zm-1.624.893a1.623 1.623 0 113.247 0 1.623 1.623 0 01-3.247 0z"/><path d="M19.673 15.684a.273.273 0 11-.545 0 .273.273 0 01.545 0z"/></g><defs><clipPath id="clip0"><path fill="#fff" d="M0 0h24v24H0z"/></clipPath></defs></svg>