<svg width="650" height="400" fill="none" xmlns="http://www.w3.org/2000/svg"><g filter="url(#filter0_d)"><path d="M326.805 379L640 259.805 326.805 138 11 259.805 326.805 379z" fill="#FFF5F7"/></g><g clip-path="url(#clip0)"><g filter="url(#filter1_f)"><path d="M337.348 224.457l-159.651 60.084L52 238.855l158.763-57.313 126.585 42.915z" fill="url(#paint0_linear)"/></g><path d="M314.292 337.816l-141.044-53.178-.049-170.395 141.093 53.179v170.394z" fill="#053866"/><path d="M456.504 284.384l-142.21-53.804.083-171.02 142.42 53.453-.293 171.371z" fill="#083556"/><path d="M314.294 337.816l142.455-54.063.048-170.916-142.454 53.624-.049 171.355z" fill="#054270"/><path d="M173.248 284.384l141.128-51.503V59.559l-141.177 53.507.049 171.318z" fill="#063D66"/><g filter="url(#filter2_f)"><ellipse cx="313.75" cy="212.858" rx="97.293" ry="96.985" fill="url(#paint1_radial)"/></g><path d="M314.247 337.816l-140.995-53.178-.049-170.395 141.093 53.179-.049 170.394z" fill="#053866"/><path d="M208.476 170.488l-35.224-13.394-.049-42.851 35.273 13.685v42.56z" fill="#053866"/><path d="M182.581 155.013a23.217 23.217 0 01-9.284-1.683l-.096-4.519c7.167 2.74 14.045 2.211 19.336-1.443 6.301-4.327 10.294-11.491 10.294-21.876l4.232 1.683c0 11.827-3.511 18.462-10.966 23.607a24.952 24.952 0 01-13.516 4.231z" fill="#FF8098"/><path d="M243.75 183.143l-35.273-13.464v-42.781l35.273 13.464v42.781z" fill="#0E2951"/><path d="M279.021 197.204l-35.273-13.464v-42.781l35.273 13.415v42.83z" fill="#FF8098"/><path d="M314.1 209.859l-35.079-13.303v-42.942l35.273 12.912-.194 43.333zm-105.626 2.813l-35.273-13.415v-42.83l35.273 13.463v42.782z" fill="#911A31"/><path d="M243.75 225.327L208.477 212.2v-41.712l35.273 13.127v41.712z" fill="#C43B55"/><path d="M279.021 239.387l-35.273-13.463v-42.782l35.273 13.464v42.781z" fill="#053866"/><path d="M314.294 252.043l-35.273-12.982v-41.857l35.273 12.982v41.857z" fill="#132F7C"/><path d="M243.75 268.916l-35.273-13.415v-42.83l35.273 13.464v42.781z" fill="#FF8098"/><path d="M279.024 281.571l-35.273-13.464v-42.781l35.273 13.464v42.781z" fill="#0E2951"/><path d="M314.299 295.633l-35.273-13.315v-42.93l35.273 13.315v42.93z" fill="#053866"/><path d="M208.474 298.445l-35.273-13.464V242.2l35.273 13.463v42.782z" fill="#C43B55"/><path d="M243.75 311.1l-35.273-13.427v-42.818l35.273 13.426V311.1z" fill="#053866"/><path d="M279.021 325.161l-35.273-13.463v-42.782l35.273 13.464v42.781z" fill="#FF8098"/><path d="M314.294 337.816l-35.273-13.239v-43.005l35.127 13.337.146 42.907z" fill="#911A31"/><path d="M180.494 146.582a17.913 17.913 0 01-7.293-1.432v-5.186c5.125 1.976 11.482 1.284 14.636-.79 5.273-3.506 7.835-8.938 7.835-16.494l4.337 1.728c0 9.285-3.302 14.964-9.215 19.063a18.463 18.463 0 01-10.3 3.111z" fill="#D6516B"/><path d="M177.973 136.739a11.463 11.463 0 01-4.772-.938v-5.467c3.082 1.25 7.854.937 10.488-1.823 2.734-2.864 3.48-5.207 3.48-10.049l4.374 1.822c0 6.665-2.187 11.196-6.313 14.164a12.559 12.559 0 01-7.257 2.291z" fill="#C43B55"/><path d="M175.448 126.881a3.956 3.956 0 01-2.247-.462v-5.385c.749.308 3.183.513 4.119 0 1.639-.923 1.639-2.718.843-5.385l4.915 1.795c0 3.744-1.217 6.36-3.511 8.104a7.204 7.204 0 01-4.119 1.333z" fill="#A62E41"/><path d="M313.747 288.602l-30.495-11.24v-73.128l31.04 11.047v5.933l-25.784-9.647v62.274l24.941 9.165.298 5.596z" fill="#C43B55"/><path d="M314.292 290.008l-31.04-12.28v-36.935l5.256 1.673v31.774l25.784 9.891v5.877z" fill="#F985A0"/><path d="M313.744 278.759l-22.024-8.187v-53.683l22.575 7.991v6.031l-17.32-6.521v43.485l17.32 6.03-.551 4.854z" fill="#C43B55"/><path d="M313.766 267.51l-12.167-4.592v-30.562l12.698 4.401v5.882l-7.629-2.965v19.801l7.629 3.3-.531 4.735z" fill="#C43B55"/><path d="M314.297 267.51l-12.698-4.935v-16.157l5.069 1.693v10.981l7.629 2.468v5.95z" fill="#F985A0"/><path d="M314.295 278.759l-22.575-8.263v-26.89l5.255 1.672v21.732l17.32 5.874v5.875z" fill="#F985A0"/><path d="M200.009 294.226l-26.808-10.101v-32.083l26.808 10.101v32.083z" fill="#053866"/><path d="M190.132 291.413l-16.931-6.726v-21.396l16.931 6.726v21.396z" fill="#FF8098"/><path d="M279.021 169.361l-12.902 22.218-22.371-24.184 12.902-22.218 22.371 24.184z" fill="#C43B55"/><path d="M270.558 168.851l-6.747 11.48-11.595-12.474 6.697-11.43 11.645 12.424z" fill="#911A31"/><path d="M279.021 325.161l-35.273-13.505v-34.303l35.273 13.457v34.351z" fill="#C43B55"/><path d="M279.021 325.16l-35.273-13.86v-25.511l35.273 13.81v25.561z" fill="#911A31"/><path d="M279.021 325.161l-35.273-13.79v-15.739l35.273 13.74v15.789z" fill="#053866"/><path d="M279.021 325.161l-35.273-13.445v-7.647l35.273 13.395v7.697z" fill="#0E2951"/><path d="M208.477 180.331l35.273 13.138-35.273 10.282 35.273 13.139-35.273-36.559z" fill="#911A31"/><path d="M177.434 201.423l-4.233-1.727v-43.269l4.233 1.727v43.269zm7.056 1.405l-4.233-1.671v-41.918l4.233 1.718v41.871zm22.573 8.436l-5.644-1.673v-41.917l5.644 1.673v41.917zm-8.466-2.812l-4.233-1.673v-41.916l4.233 1.672v41.917zm-7.052-2.812l-4.233-1.672v-41.917l4.233 1.673v41.916z" fill="#FF8098"/><path d="M208.474 254.855l-35.273-13.463V198.61l35.273 13.415v42.83z" fill="#0E2951"/><path d="M208.474 254.855l-18.342-6.726v-21.396l18.342 6.726v21.396zm-18.342-28.122l-16.931-6.738V198.61l16.931 6.738v21.385z" fill="#911A31"/><path fill-rule="evenodd" clip-rule="evenodd" d="M212.708 261.886l25.572 10.045-1.356 3.708-20.389-8.009v24.578l19.154 7.524v-18.448l-14.828-5.832v13.137l10.501 4.14v-7.922l-6.221-2.451v2.708l4.534 1.784-1.358 3.707-7.003-2.754v-11.195l13.875 5.466v16.408l-18.155-7.156v-21.619l22.482 8.843v26.928l-26.808-10.53v-33.06z" fill="#F985A0"/><path fill-rule="evenodd" clip-rule="evenodd" d="M311.47 301.187l-24.021 22.568-4.197-4.148 24.021-22.568 4.197 4.148z" fill="#0E2951"/><path fill-rule="evenodd" clip-rule="evenodd" d="M288.28 288.602l23.19 40.659-5.028 2.93-23.19-40.659 5.028-2.93z" fill="#0E2951"/><path d="M256.445 246.419l-5.643-2.354v-7.489l5.643 2.353v7.49zm7.054 12.654l-5.644-2.341v-7.502l5.644 2.341v7.502zm8.467 11.25l-5.644-2.018v-6.419l5.644 2.018v6.419z" fill="#911A31"/><path d="M314.343 166.462l142.454-53.624v171.111l-142.503 53.868.049-171.355z" fill="#053866"/><path d="M421.524 212.062l35.274-13.452v42.793l-35.274 13.452v-42.793z" fill="#911A31"/><path d="M384.841 225.799l36.684-13.127v41.759l-36.684 13.08v-41.712z" fill="#C43B55"/><path d="M349.57 238.79l35.273-13.464v42.781l-35.273 13.464V238.79z" fill="#053866"/><path d="M314.296 252.999l35.273-13.612v42.634l-35.273 13.611v-42.633z" fill="#132F7C"/><path d="M384.84 182.546l36.684-13.464v42.782l-36.684 13.463v-42.781z" fill="#FF8098"/><path d="M349.57 196.607l35.273-13.463v42.781l-35.273 13.464v-42.782z" fill="#0E2951"/><path d="M314.296 209.41l35.273-13.612v42.633l-35.273 13.612V209.41z" fill="#053866"/><path d="M384.846 268.272l36.684-13.415v42.781l-36.684 13.464v-42.83z" fill="#0E2951"/><path d="M349.57 280.975l35.273-13.463v42.83l-35.273 13.415v-42.782z" fill="#FF8098"/><path d="M314.296 295.208l35.273-13.635v42.707l-35.128 13.538-.145-42.61z" fill="#911A31"/><path d="M421.522 126.338l35.274-13.5v42.793l-35.274 13.452v-42.745z" fill="#C43B55"/><path d="M384.837 140.363l36.684-13.464v42.781l-36.684 13.464v-42.781z" fill="#053866"/><path d="M349.563 154.087l35.274-13.127v41.711l-35.274 13.128v-41.712z" fill="#FF8098"/><path d="M314.487 166.789l35.08-13.174v42.633l-35.273 13.612.193-43.071z" fill="#911A31"/><path d="M313.425 290.009v-5.924l26.704-10.306v-62.175l-25.416 9.295-1.833-4.72 32.451-11.944v73.011l-31.906 12.763z" fill="#C43B55"/><path d="M345.334 241.912l-5.061 1.695v-31.962l-25.979 10.024v-5.956l31.04-11.478v37.677z" fill="#F985A0"/><path d="M314.294 278.76v-5.912l17.521-7.113V223.92l-17.521 6.777v-5.912l22.575-6.488v50.947l-22.575 9.516z" fill="#C43B55"/><path d="M313.415 267.512v-5.781l8.466-2.773v-19.456l-7.201 2.632-1.8-4.606 14.109-5.169v30.03l-13.574 5.123z" fill="#C43B55"/><path d="M326.992 247.578l-4.779 1.654v-9.689l-7.919 3.308v-5.813l12.698-4.679v15.219z" fill="#F985A0"/><path d="M336.869 244.704l-5.054 1.715V224.13l-17.521 6.715v-5.858l22.575-8.096v27.813z" fill="#F985A0"/><path d="M438.453 119.601l18.342-6.763v21.408l-18.342 6.714v-21.359z" fill="#FF8098"/><path d="M349.563 308.404l12.911-31.05 22.363 6.916-12.911 31.049-22.363-6.915z" fill="#C43B55"/><path d="M358.028 301.888l6.693-16.097 11.649 3.588-6.742 16.097-11.6-3.588z" fill="#911A31"/><path d="M349.563 154.068l35.274-13.108v33.341l-35.274 13.061v-33.294z" fill="#C43B55"/><path d="M349.563 154.325l35.274-13.365v24.648l-35.274 13.317v-24.6z" fill="#911A31"/><path d="M349.563 154.093l35.274-13.133v15.036l-35.274 13.086v-14.989z" fill="#053866"/><path d="M349.563 154.373l35.274-13.413v7.678l-35.274 13.414v-7.679z" fill="#0E2951"/><path d="M421.521 244.531l-36.684 13.138 36.684-36.559-36.684 13.138" fill="#911A31"/><path d="M456.793 241.914l-5.644 1.693v-43.254l5.644-1.742v43.303zm-7.054 1.426l-5.643 1.673v-41.917l5.643-1.673v41.917zm-21.165 8.437l-5.538 1.673-.105-41.917 5.538-1.673.105 41.917zm7.057-2.813l-5.644 1.673V208.72l5.644-1.673v41.917zm7.054-2.812l-5.644 1.673v-41.917l5.644-1.673v41.917z" fill="#FF8098"/><path d="M421.522 169.891l35.274-13.463v42.781l-35.274 13.464v-42.782z" fill="#0E2951"/><path d="M421.522 254.259l35.274-13.464v42.781l-35.274 13.464v-42.781z" fill="#053866"/><path d="M421.522 169.848l16.932-6.39v20.327l-16.932 6.39v-20.327z" fill="#911A31"/><path d="M425.84 295.347l-4.318 1.693c0-28.82 16.19-46.325 35.274-53.433v4.255c-17.22 6.432-30.956 27.998-30.956 47.485z" fill="#FF8098"/><path d="M435.162 292.517l-5.175 1.711c0-20.579 12.369-36.807 26.808-42.184v5.132c-12.615 4.742-21.633 20.237-21.633 35.341z" fill="#D6516B"/><path d="M444.602 288.347l-4.741 1.662c0-12.493 7.208-24.512 16.835-28.122l.096 4.75c-7.498 2.851-12.19 12.732-12.19 21.71z" fill="#C43B55"/><path d="M452.644 285.506l-4.197 1.692c-.859-6.767 3.052-13.486 8.251-15.468l.096 5.317c-3.244 1.208-4.15 4.35-4.15 8.459z" fill="#A62E41"/><path fill-rule="evenodd" clip-rule="evenodd" d="M417.288 132.523v33.812l-25.505 9.778-1.42-3.793 22.918-8.786v-25.137l-20.204 7.745v18.873l15.673-5.976v-13.44l-11.143 4.249v8.053l6.564-2.514v-2.72l-3.326 1.278-1.422-3.792 8.755-3.364v11.4l-14.578 5.583v-16.731l19.157-7.304v22.108l-23.688 9.032v-27.536l28.219-10.818z" fill="#F985A0"/><path fill-rule="evenodd" clip-rule="evenodd" d="M317.114 201.198l24.383-41.958 5.247 3.037-24.383 41.959-5.247-3.038z" fill="#0E2951"/><path fill-rule="evenodd" clip-rule="evenodd" d="M341.172 195.799l-24.058-23.734 4.161-4.389 24.058 23.734-4.161 4.389z" fill="#0E2951"/><path d="M372.14 215.026l5.643-2.354v7.489l-5.643 2.354v-7.489zm-7.054-5.972l5.644-2.007v6.431l-5.644 2.006v-6.43zm-8.468-7.02l5.644-2.017v6.419l-5.644 2.018v-6.42z" fill="#911A31"/><path d="M429.987 123.325l26.808-10.487v33.202l-26.808 10.387v-33.102z" fill="#053866"/><path d="M438.452 184.256l18.342-6.737v21.384l-18.342 6.738v-21.385z" fill="#911A31"/><path opacity=".3" d="M173.773 113.371l140.603 53.185V338l-141.23-53.185.627-171.444z" fill="#000"/><path d="M509.001 60.761l-53.009 52.078-141.615-53.278L367.254 7.38l141.747 53.38z" fill="#084C80"/><path d="M314.958 166.57l-53.496 53.132-141.876-53.166 54.463-53.042 140.909 53.076z" fill="#094573"/><path d="M314.377 59.56L262.283 7 120.584 60.58l52.912 53.285L314.377 59.56zm194.625 105.874l-52.917-52.597-141.791 54.022 53.208 52.843 141.5-54.268z" fill="#084C80"/></g><defs><filter id="filter0_d" x="9" y="136" width="637" height="249" filterUnits="userSpaceOnUse" color-interpolation-filters="sRGB"><feFlood flood-opacity="0" result="BackgroundImageFix"/><feColorMatrix in="SourceAlpha" values="0 0 0 0 0 0 0 0 0 0 0 0 0 0 0 0 0 0 127 0"/><feOffset dx="2" dy="2"/><feGaussianBlur stdDeviation="2"/><feColorMatrix values="0 0 0 0 0 0 0 0 0 0 0 0 0 0 0 0 0 0 0.1 0"/><feBlend in2="BackgroundImageFix" result="effect1_dropShadow"/><feBlend in="SourceGraphic" in2="effect1_dropShadow" result="shape"/></filter><filter id="filter1_f" x="47" y="176.542" width="295.348" height="113" filterUnits="userSpaceOnUse" color-interpolation-filters="sRGB"><feFlood flood-opacity="0" result="BackgroundImageFix"/><feBlend in="SourceGraphic" in2="BackgroundImageFix" result="shape"/><feGaussianBlur stdDeviation="2.5" result="effect1_foregroundBlur"/></filter><filter id="filter2_f" x="136.457" y="35.873" width="354.585" height="353.97" filterUnits="userSpaceOnUse" color-interpolation-filters="sRGB"><feFlood flood-opacity="0" result="BackgroundImageFix"/><feBlend in="SourceGraphic" in2="BackgroundImageFix" result="shape"/><feGaussianBlur stdDeviation="40" result="effect1_foregroundBlur"/></filter><radialGradient id="paint1_radial" cx="0" cy="0" r="1" gradientUnits="userSpaceOnUse" gradientTransform="scale(77.163 76.919) rotate(90 .86 3.192)"><stop stop-color="#0095FF"/><stop offset="1" stop-color="#BCE3FF"/></radialGradient><linearGradient id="paint0_linear" x1="328.895" y1="286.277" x2="255.704" y2="126.903" gradientUnits="userSpaceOnUse"><stop offset=".096"/><stop offset=".978" stop-color="#B4D1FA" stop-opacity="0"/></linearGradient><clipPath id="clip0"><path fill="#fff" transform="translate(52 7)" d="M0 0h457v331H0z"/></clipPath></defs></svg>