<svg width="470" height="370" fill="none" xmlns="http://www.w3.org/2000/svg"><g clip-path="url(#clip0)"><g filter="url(#filter0_d)"><path d="M238.077 365.225l228.462-84.637-235.385-91.576-227.539 86.95 234.462 89.263z" fill="#FFF5F7"/></g><g filter="url(#filter1_f)"><path d="M257.784 221.122l-151.403 57.049-53.842-19.783 151.846-52.725 53.399 15.459z" fill="url(#paint0_linear)"/></g><g clip-path="url(#clip1)"><path d="M235.919 328.755l-133.756-50.492-.047-161.787 133.803 50.492v161.787z" fill="#053866"/><path d="M371.07 277.464l-135.149-50.529-.613-161.808 2.308-1.914 133.446 52.094.008 162.157z" fill="#083556"/><path d="M235.921 328.754l135.094-51.332.047-162.282-135.095 50.916-.046 162.698z" fill="#054270"/><path d="M102.162 278.021l135.914-54.783-2.083-158.684-1.609-1.342-132.268 52.146.046 162.663z" fill="#063D66"/><g filter="url(#filter2_f)"><ellipse cx="235.5" cy="184" rx="92.5" ry="66" fill="url(#paint1_radial)"/></g><path d="M235.923 328.757l-133.756-50.495-.046-161.786 133.802 50.492v161.789z" fill="#053866"/><path d="M135.571 169.879l-33.405-12.717-.046-40.686 33.451 12.993v40.41z" fill="#053866"/><path d="M111.012 155.186a21.981 21.981 0 01-8.803-1.598l-.092-4.291c6.797 2.602 13.32 2.1 18.338-1.37 5.975-4.108 9.761-10.91 9.761-20.771l4.014 1.598c0 11.23-3.33 17.53-10.4 22.415a23.641 23.641 0 01-12.818 4.017z" fill="#FF8098"/><path d="M169.021 181.895l-33.451-12.784v-40.62l33.451 12.784v40.62z" fill="#0E2951"/><path d="M202.47 195.245l-33.451-12.783v-40.62l33.451 12.737v40.666z" fill="#FF8098"/><path d="M235.92 207.257l-33.451-12.627v-40.772l33.678 12.528-.227 40.871z" fill="#6780B3"/><path d="M135.568 209.932l-33.451-12.737v-40.667l33.451 12.784v40.62z" fill="#911A31"/><path d="M169.021 221.948l-33.451-12.464v-39.605l33.451 12.464v39.605z" fill="#C43B55"/><path d="M202.47 235.298l-33.451-12.784v-40.62l33.451 12.784v40.62z" fill="#053866"/><path d="M235.92 247.314l-33.451-12.326.044-40.349 33.407 12.585v40.09z" fill="#132F7C"/><path d="M169.021 263.335l-33.451-12.737v-41.107l33.451 12.445v41.399z" fill="#FF8098"/><path d="M202.473 275.35l-33.451-12.783v-40.62l33.451 12.783v40.62z" fill="#0E2951"/><path d="M235.925 288.702l-33.45-12.642v-40.762l33.45 12.642v40.762z" fill="#053866"/><path d="M135.568 290.828l-33.451-12.59v-40.814l33.451 12.561v40.843z" fill="#6780B3"/><path d="M169.021 303.388l-33.451-12.749v-40.655l33.451 12.748v40.656z" fill="#053866"/><path d="M202.47 315.985l-33.451-12.784v-40.62l33.451 12.784v40.62z" fill="#FF8098"/><path d="M235.92 328.755l-33.451-12.571v-40.833l33.451 13.122v40.282z" fill="#3D95D1"/><path d="M109.034 147.181a16.997 16.997 0 01-6.917-1.36v-4.924c4.861 1.876 10.889 1.22 13.88-.75 5-3.329 7.431-8.487 7.431-15.661l4.112 1.641c0 8.815-3.131 14.208-8.739 18.1a17.49 17.49 0 01-9.767 2.954z" fill="#D6516B"/><path d="M106.643 137.835a10.851 10.851 0 01-4.526-.89v-5.192c2.923 1.187 7.448.89 9.947-1.73 2.592-2.719 3.3-4.944 3.3-9.542l4.148 1.73c0 6.329-2.074 10.63-5.987 13.448a11.899 11.899 0 01-6.882 2.176z" fill="#C43B55"/><path d="M104.248 128.475a3.751 3.751 0 01-2.131-.438v-5.113c.711.292 3.018.487 3.906 0 1.553-.877 1.553-2.581.799-5.114l4.66 1.705c0 3.555-1.154 6.038-3.329 7.694a6.82 6.82 0 01-3.905 1.266z" fill="#A62E41"/><path d="M235.401 282.026l-28.919-10.671v-69.434l29.437 10.488v5.634l-24.453-9.16v60.066l23.521 9.676.414 3.401z" fill="#B9D5FD"/><path d="M235.919 283.361l-29.437-11.659v-35.258l4.984 1.797v30.149l24.453 9.391v5.58z" fill="#F985A0"/><path d="M235.374 271.271l-20.862-6.579v-50.755l21.409 7.587v5.725l-16.425-6.191v41.289l16.425 5.725-.547 3.199z" fill="#B9D5FD"/><path d="M235.374 260.047l-11.493-3.096v-28.329l12.042 4.178v5.586l-7.234-2.816v18.8l7.234 3.134-.549 2.543z" fill="#B9D5FD"/><path d="M235.923 262l-12.042-4.685v-14.456l4.808 1.742v9.407l7.234 2.342V262z" fill="#F985A0"/><path d="M235.921 272.681l-21.409-7.846v-25.41l4.984 1.85v20.25l16.425 5.578v5.578z" fill="#F985A0"/><path d="M127.54 287.83l-25.423-9.592v-30.925l25.423 9.591v30.926z" fill="#053866"/><path d="M118.174 284.286l-16.057-6.048v-20.244l16.057 6.386v19.906z" fill="#709FDC"/><path d="M202.47 168.809l-12.236 21.096-21.215-22.963 12.236-21.095 21.215 22.962z" fill="#C43B55"/><path d="M194.444 168.325l-6.399 10.9-10.996-11.844 6.351-10.853 11.044 11.797z" fill="#911A31"/><path d="M202.47 315.89l-33.451-12.823v-32.57l33.451 12.777v32.616z" fill="#C43B55"/><path d="M202.47 315.62l-33.451-13.16v-24.222l33.451 13.112v24.27z" fill="#911A31"/><path d="M202.47 315.563l-33.451-13.093v-14.943l33.451 13.046v14.99z" fill="#053866"/><path d="M202.47 316.068l-33.451-12.766v-7.261l33.451 12.719v7.308z" fill="#0E2951"/><path d="M135.57 179.225l33.451 12.474-33.451 9.763 33.451 12.475-33.451-34.712z" fill="#911A31"/><path d="M106.131 199.251l-4.014-1.639v-41.084l4.014 1.64v41.083zm6.69 1.335l-4.013-1.587v-39.801l4.013 1.632v39.756zm21.408 8.01l-5.351-1.589v-39.799l5.351 1.588v39.8zm-8.028-2.67l-4.013-1.589v-39.799l4.013 1.588v39.8zm-6.688-2.67l-4.014-1.588v-39.8l4.014 1.589v39.799z" fill="#FF8098"/><path d="M135.568 249.985l-33.451-12.784v-40.62l33.451 12.737v40.667z" fill="#0E2951"/><path d="M135.568 249.984l-17.394-6.386v-20.316l17.394 6.387v20.315zm-17.394-26.701l-16.057-6.398v-20.304l16.057 6.059v20.643z" fill="#3D95D1"/><path fill-rule="evenodd" clip-rule="evenodd" d="M139.583 256.66l24.252 9.538-1.287 3.52-19.335-7.604v23.336l18.164 7.144v-17.516l-14.062-5.537v12.473l9.959 3.931v-7.522l-5.9-2.327v2.571l4.3 1.694-1.288 3.52-6.641-2.615v-10.629l13.158 5.189v15.579l-17.217-6.794v-20.527l21.32 8.396v25.568l-25.423-9.998v-31.39z" fill="#3D95D1"/><path fill-rule="evenodd" clip-rule="evenodd" d="M233.242 293.976l-22.78 21.427-3.98-3.938 22.78-21.428 3.98 3.939z" fill="#0E2951"/><path fill-rule="evenodd" clip-rule="evenodd" d="M211.251 282.026l21.991 38.606-4.768 2.782-21.992-38.606 4.769-2.782z" fill="#0E2951"/><path d="M181.06 241.974l-5.352-2.235v-7.111l5.352 2.235v7.111zm6.689 12.015l-5.351-2.223v-7.122l5.351 2.222v7.123zm8.029 10.682l-5.351-1.916v-6.095l5.351 1.916v6.095z" fill="#B9D5FD"/><path d="M236.147 166.386l134.913-51.245v162.467l-135.141 51.147.228-162.369z" fill="#053866"/><path d="M337.611 209.353l33.45-12.772v40.631l-33.45 12.772v-40.631z" fill="#B9D5FD"/><path d="M302.822 222.396l34.789-12.464v39.65L302.822 262v-39.604z" fill="#C43B55"/><path d="M269.375 234.73l33.45-12.783v40.62l-33.45 12.783v-40.62z" fill="#053866"/><path d="M235.921 247.288l33.451-12.025v40.515l-33.451 12.924v-41.414z" fill="#132F7C"/><path d="M302.822 181.328l34.788-12.784v41.577l-34.788 12.385v-41.178z" fill="#FF8098"/><path d="M269.375 194.679l33.45-12.784v40.62l-33.45 12.784v-40.62z" fill="#0E2951"/><path d="M235.921 206.834l33.451-12.924v40.48l-33.451 12.924v-40.48z" fill="#053866"/><path d="M302.826 261.983l34.842-12.406-.232 40.659-34.61 13.192v-41.445z" fill="#0E2951"/><path d="M269.375 275.529l33.45-13.528v41.433l-33.45 12.621v-40.526z" fill="#709FDC"/><path d="M235.921 288.475l33.451-12.946v40.55l-33.451 12.673v-40.277z" fill="#911A31"/><path d="M337.609 127.96l33.451-12.819v40.631l-33.451 12.773V127.96z" fill="#C43B55"/><path d="M302.819 141.276l34.788-12.784v40.62l-34.788 12.784v-40.62z" fill="#053866"/><path d="M269.368 154.306l33.451-12.464v39.605l-33.451 12.464v-39.605z" fill="#FF8098"/><path d="M236.103 166.367l33.268-12.509v40.48l-33.451 12.924.183-40.895z" fill="#3D95D1"/><path d="M235.915 283.326v-5.496l24.506-9.878v-59.034l-24.103 8.825-1.738-4.481 30.774-11.34v69.322l-29.439 12.082z" fill="#B9D5FD"/><path d="M265.357 236.862l-4.931 1.638v-29.543l-24.506 9.093v-5.607l29.437-10.521v34.94z" fill="#F985A0"/><path d="M235.92 272.681v-5.613l16.615-6.754v-39.702l-16.615 6.434v-5.613l21.408-6.16v48.373l-21.408 9.035z" fill="#B9D5FD"/><path d="M235.915 262.039v-5.692l7.2-2.467v-18.473l-6.828 2.498-1.707-4.373 13.38-4.908v28.514l-12.045 4.901z" fill="#B9D5FD"/><path d="M247.962 243.074l-4.856 1.571v-9.2l-7.186 2.929v-5.582l12.042-4.168v14.45z" fill="#F985A0"/><path d="M257.328 239.673l-4.793 1.602v-20.464l-16.615 6.423v-5.711l21.408-7.586v25.736z" fill="#F985A0"/><path d="M353.664 121.562l17.394-6.421v20.327l-17.394 6.375v-20.281z" fill="#FF8098"/><path d="M269.368 300.827l12.244-29.481 21.207 6.567-12.244 29.481-21.207-6.567z" fill="#0E2951"/><path d="M277.396 294.642l6.346-15.285 11.048 3.407-6.394 15.284-11-3.406z" fill="#6780B3"/><path d="M269.368 154.289l33.451-12.447v31.657L269.368 185.9v-31.611z" fill="#C43B55"/><path d="M269.368 154.533l33.451-12.691v23.404l-33.451 12.644v-23.357z" fill="#911A31"/><path d="M269.368 154.312l33.451-12.47v14.277l-33.451 12.425v-14.232z" fill="#053866"/><path d="M269.368 154.578l33.451-12.736v7.291l-33.451 12.736v-7.291z" fill="#0E2951"/><path d="M337.607 240.181l-34.788 12.475 34.788-34.713-34.788 12.475" fill="#911A31"/><path d="M371.057 237.697l-5.352 1.607v-41.069l5.352-1.653v41.115zm-6.69 1.78l-5.282 1.993-.07-40.63 5.352-1.588v40.225zm-20.072 7.585l-5.313 2.148-.038-40.359 5.251-1.589.1 39.8zm6.693-2.671l-5.351 2.497V206.18l5.351-1.588v39.799zm6.689-2.67l-5.351 3.434V203.51l5.351-1.588v39.799z" fill="#709FDC"/><path d="M337.609 169.312l33.451-12.783v40.62l-33.451 12.783v-40.62z" fill="#0E2951"/><path d="M337.609 249.418l33.451-12.784v40.62l-33.451 12.784v-40.62z" fill="#053866"/><path d="M337.609 169.271l16.057-6.067v19.3l-16.057 6.067v-19.3z" fill="#911A31"/><path d="M341.688 288.688l-4.252 1.548c0-27.364 15.526-44.183 33.624-50.932v4.041c-16.33 6.106-29.372 26.84-29.372 45.343z" fill="#B9D5FD"/><path d="M350.967 285.204l-5.026 1.935c0-19.539 11.426-34.719 25.118-39.824v4.873c-11.963 4.502-20.092 18.675-20.092 33.016z" fill="#3D95D1"/><path d="M359.085 282.108l-3.866 1.548c0-11.862 6.709-23.664 15.838-27.092v4.607c-7.111 2.707-11.972 12.412-11.972 20.937z" fill="#3376B3"/><path d="M367.121 279.086l-3.783 1.474c-.814-6.425 2.802-12.825 7.732-14.707l-.014 5.202c-3.075 1.147-3.935 4.13-3.935 8.031z" fill="#709FDC"/><path fill-rule="evenodd" clip-rule="evenodd" d="M333.593 133.832v32.104l-24.187 9.284-1.346-3.602 21.733-8.342v-23.867l-19.16 7.354v17.92l14.863-5.675v-12.761l-10.567 4.034v7.647l6.225-2.387v-2.583L318 154.171l-1.349-3.6 8.303-3.193v10.824l-13.825 5.301v-15.886l18.168-6.936v20.992l-22.464 8.576v-26.145l26.76-10.272z" fill="#F985A0"/><path fill-rule="evenodd" clip-rule="evenodd" d="M238.594 199.038l23.123-39.839 4.976 2.884-23.123 39.839-4.976-2.884z" fill="#0E2951"/><path fill-rule="evenodd" clip-rule="evenodd" d="M261.409 193.911l-22.815-22.534 3.946-4.168 22.815 22.535-3.946 4.167z" fill="#0E2951"/><path d="M290.778 212.167l5.351-2.235v7.111l-5.351 2.235v-7.111z" fill="#B9D5FD"/><path d="M284.089 206.497l5.351-1.905v6.105l-5.351 1.905v-6.105zm-8.032-6.665l5.352-1.916v6.095l-5.352 1.916v-6.095z" fill="#911A31"/><path d="M345.637 125.099l25.423-9.958v31.525l-25.423 9.863v-31.43z" fill="#053866"/><path d="M353.664 182.952l17.394-6.397v20.794l-17.385 6.404-.009-20.801z" fill="#911A31"/><path opacity=".3" d="M102.661 115.647L236 166.145v162.784L102.065 278.43l.596-162.783z" fill="#000"/><path d="M420.569 65.694l-50.271 49.447L236 64.554l50.145-49.545 134.424 50.685z" fill="#084C80"/><path d="M236.147 166.386l-50.329 50.221-134.545-50.48 51.649-50.363 133.225 50.622z" fill="#094573"/><path d="M235.999 64.554L186.596 14.65 52.219 65.523l50.178 50.594 133.602-51.563zm184.57 100.527l-50.183-49.941-134.465 51.293 50.459 50.174 134.189-51.526z" fill="#084C80"/></g></g><defs><filter id="filter0_d" x="1.615" y="187.012" width="470.923" height="184.213" filterUnits="userSpaceOnUse" color-interpolation-filters="sRGB"><feFlood flood-opacity="0" result="BackgroundImageFix"/><feColorMatrix in="SourceAlpha" values="0 0 0 0 0 0 0 0 0 0 0 0 0 0 0 0 0 0 127 0"/><feOffset dx="2" dy="2"/><feGaussianBlur stdDeviation="2"/><feColorMatrix values="0 0 0 0 0 0 0 0 0 0 0 0 0 0 0 0 0 0 0.1 0"/><feBlend in2="BackgroundImageFix" result="effect1_dropShadow"/><feBlend in="SourceGraphic" in2="effect1_dropShadow" result="shape"/></filter><filter id="filter1_f" x="47.539" y="200.663" width="215.245" height="82.508" filterUnits="userSpaceOnUse" color-interpolation-filters="sRGB"><feFlood flood-opacity="0" result="BackgroundImageFix"/><feBlend in="SourceGraphic" in2="BackgroundImageFix" result="shape"/><feGaussianBlur stdDeviation="2.5" result="effect1_foregroundBlur"/></filter><filter id="filter2_f" x="63" y="38" width="345" height="292" filterUnits="userSpaceOnUse" color-interpolation-filters="sRGB"><feFlood flood-opacity="0" result="BackgroundImageFix"/><feBlend in="SourceGraphic" in2="BackgroundImageFix" result="shape"/><feGaussianBlur stdDeviation="40" result="effect1_foregroundBlur"/></filter><clipPath id="clip0"><path fill="#fff" d="M0 0h470v370H0z"/></clipPath><clipPath id="clip1"><path fill="#fff" transform="translate(-12.822 14.65)" d="M0 0h433.389v314.279H0z"/></clipPath><radialGradient id="paint1_radial" cx="0" cy="0" r="1" gradientUnits="userSpaceOnUse" gradientTransform="scale(73.3621 52.3448) rotate(90 .058 3.138)"><stop stop-color="#0095FF"/><stop offset="1" stop-color="#BCE3FF"/></radialGradient><linearGradient id="paint0_linear" x1="226.539" y1="222.313" x2="156.904" y2="148.329" gradientUnits="userSpaceOnUse"><stop/><stop offset=".978" stop-color="#FEF4F7" stop-opacity="0"/></linearGradient></defs></svg>