<svg width="600" height="369" viewBox="0 0 600 369" fill="none" xmlns="http://www.w3.org/2000/svg">
<g clip-path="url(#clip0)">
<g filter="url(#filter0_d)">
<path d="M305.538 368.539L533.538 281.824L234 168.818L6.46153 255.532L305.538 368.539Z" fill="#FFF5F7"/>
</g>
<g clip-path="url(#clip1)">
<g filter="url(#filter1_f)">
<path d="M324.784 222.519L173.381 279.414L54.1784 236.152L204.738 181.882L324.784 222.519Z" fill="url(#paint0_linear)"/>
</g>
<path d="M302.919 329.861L169.163 279.505L169.116 118.155L302.919 168.511V329.861Z" fill="#053866"/>
<path d="M438.07 278.708L302.921 228.317L302.308 66.9457L304.616 65.0361L438.062 116.99L438.07 278.708Z" fill="#083556"/>
<path d="M302.921 329.86L438.015 278.667L438.062 116.823L302.967 167.602L302.921 329.86Z" fill="#054270"/>
<path d="M169.162 279.264L305.077 224.629L302.993 66.3739L301.384 65.0363L169.116 117.041L169.162 279.264Z" fill="#063D66"/>
<g filter="url(#filter2_f)">
<ellipse cx="302.404" cy="211.536" rx="92.2657" ry="91.8366" fill="url(#paint1_radial)"/>
</g>
<path d="M302.924 329.863L169.167 279.505L169.121 118.155L302.924 168.511V329.863Z" fill="#053866"/>
<path d="M202.571 171.415L169.167 158.732L169.121 118.155L202.571 131.114V171.415Z" fill="#053866"/>
<path d="M178.012 156.761C174.999 156.837 172.003 156.295 169.209 155.168L169.118 150.888C175.914 153.483 182.437 152.982 187.455 149.522C193.43 145.425 197.216 138.641 197.216 128.807L201.23 130.401C201.23 141.6 197.9 147.883 190.83 152.755C187.035 155.298 182.583 156.69 178.012 156.761V156.761Z" fill="#FF8098"/>
<path d="M236.021 183.398L202.57 170.649V130.138L236.021 142.887V183.398Z" fill="#0E2951"/>
<path d="M269.47 196.712L236.019 183.963V143.453L269.47 156.156V196.712Z" fill="#FF8098"/>
<path d="M302.92 208.692L269.47 196.099V155.436L303.147 167.931L302.92 208.692Z" fill="#911A31"/>
<path d="M202.568 211.359L169.118 198.656V158.1L202.568 170.849V211.359Z" fill="#911A31"/>
<path d="M236.021 223.343L202.57 210.912V171.415L236.021 183.845V223.343Z" fill="#C43B55"/>
<path d="M269.47 236.657L236.019 223.908V183.397L269.47 196.146V236.657Z" fill="#053866"/>
<path d="M302.92 248.64L269.47 236.347L269.513 196.108L302.92 208.658V248.64Z" fill="#132F7C"/>
<path d="M236.021 264.618L202.57 251.915V210.919L236.021 223.331V264.618Z" fill="#FF8098"/>
<path d="M269.473 276.601L236.022 263.852V223.342L269.473 236.091V276.601Z" fill="#0E2951"/>
<path d="M302.925 289.916L269.475 277.308V236.657L302.925 249.265V289.916Z" fill="#053866"/>
<path d="M202.568 292.036L169.118 279.48V238.777L202.568 251.304V292.036Z" fill="#C43B55"/>
<path d="M236.021 304.562L202.57 291.849V251.303L236.021 264.017V304.562Z" fill="#053866"/>
<path d="M269.47 317.125L236.019 304.376V263.866L269.47 276.615V317.125Z" fill="#FF8098"/>
<path d="M302.92 329.861L269.47 317.324V276.601L302.92 289.688V329.861Z" fill="#911A31"/>
<path d="M176.034 148.778C173.659 148.813 171.303 148.351 169.118 147.421V142.511C173.978 144.382 180.006 143.727 182.997 141.763C187.998 138.443 190.428 133.299 190.428 126.144L194.54 127.781C194.54 136.572 191.409 141.95 185.801 145.831C182.909 147.761 179.51 148.786 176.034 148.778V148.778Z" fill="#D6516B"/>
<path d="M173.643 139.457C172.092 139.489 170.552 139.186 169.118 138.569V133.392C172.04 134.575 176.566 134.279 179.064 131.666C181.657 128.954 182.364 126.735 182.364 122.15L186.512 123.876C186.512 130.187 184.438 134.477 180.525 137.287C178.489 138.711 176.092 139.466 173.643 139.457V139.457Z" fill="#C43B55"/>
<path d="M171.248 130.122C170.515 130.191 169.778 130.04 169.118 129.685V124.586C169.828 124.877 172.135 125.072 173.023 124.586C174.577 123.712 174.577 122.012 173.822 119.487L178.482 121.186C178.482 124.732 177.328 127.209 175.153 128.86C173.988 129.678 172.633 130.116 171.248 130.122Z" fill="#A62E41"/>
<path d="M302.401 283.259L273.482 272.616V203.37L302.919 213.83V219.448L278.467 210.313V270.217L301.988 279.866L302.401 283.259Z" fill="#C43B55"/>
<path d="M302.919 284.59L273.482 272.962V237.799L278.467 239.591V269.659L302.919 279.025V284.59Z" fill="#F985A0"/>
<path d="M302.374 272.533L281.512 265.971V215.353L302.921 222.92V228.63L286.497 222.456V263.632L302.921 269.342L302.374 272.533Z" fill="#C43B55"/>
<path d="M302.374 261.339L290.881 258.251V229.999L302.923 234.165V239.736L295.689 236.928V255.677L302.923 258.802L302.374 261.339Z" fill="#C43B55"/>
<path d="M302.923 263.286L290.881 258.614V244.197L295.689 245.935V255.316L302.923 257.652V263.286Z" fill="#F985A0"/>
<path d="M302.921 273.938L281.512 266.114V240.772L286.497 242.617V262.813L302.921 268.376V273.938Z" fill="#F985A0"/>
<path d="M194.54 289.047L169.118 279.48V248.64L194.54 258.204V289.047Z" fill="#053866"/>
<path d="M185.174 285.512L169.118 279.48V259.291L185.174 265.66V285.512Z" fill="#FF8098"/>
<path d="M269.47 170.348L257.234 191.386L236.019 168.486L248.255 147.447L269.47 170.348Z" fill="#C43B55"/>
<path d="M261.444 169.864L255.045 180.735L244.05 168.923L250.401 158.1L261.444 169.864Z" fill="#911A31"/>
<path d="M269.47 317.031L236.019 304.242V271.761L269.47 284.503V317.031Z" fill="#C43B55"/>
<path d="M269.47 316.762L236.019 303.637V279.48L269.47 292.557V316.762Z" fill="#911A31"/>
<path d="M269.47 316.705L236.019 303.647V288.744L269.47 301.755V316.705Z" fill="#053866"/>
<path d="M269.47 317.208L236.019 304.477V297.236L269.47 309.92V317.208Z" fill="#0E2951"/>
<path d="M202.57 180.735L236.021 193.176L202.57 202.912L236.021 215.353L202.57 180.735Z" fill="#911A31"/>
<path d="M173.131 200.707L169.118 199.072V158.1L173.131 159.735V200.707Z" fill="#FF8098"/>
<path d="M179.821 202.038L175.808 200.456V160.763L179.821 162.39V202.038Z" fill="#FF8098"/>
<path d="M201.229 210.026L195.878 208.442V168.75L201.229 170.335V210.026Z" fill="#FF8098"/>
<path d="M193.201 207.364L189.188 205.78V166.088L193.201 167.672V207.364Z" fill="#FF8098"/>
<path d="M186.513 204.701L182.499 203.117V163.425L186.513 165.009V204.701Z" fill="#FF8098"/>
<path d="M202.568 251.304L169.118 238.555V198.044L202.568 210.747V251.304Z" fill="#0E2951"/>
<path d="M202.568 251.303L185.174 244.934V224.674L202.568 231.043V251.303Z" fill="#911A31"/>
<path d="M185.174 224.674L169.118 218.294V198.044L185.174 204.087V224.674Z" fill="#911A31"/>
<path fill-rule="evenodd" clip-rule="evenodd" d="M206.584 257.961L230.835 267.473L229.548 270.984L210.213 263.4V286.673L228.377 293.798V276.329L214.316 270.806V283.247L224.274 287.166V279.665L218.374 277.345V279.909L222.674 281.597L221.386 285.108L214.745 282.5V271.9L227.903 277.075V292.612L210.686 285.836V265.365L232.006 273.738V299.237L206.584 289.266V257.961Z" fill="#F985A0"/>
<path fill-rule="evenodd" clip-rule="evenodd" d="M300.243 295.176L277.462 316.546L273.482 312.617L296.262 291.248L300.243 295.176Z" fill="#0E2951"/>
<path fill-rule="evenodd" clip-rule="evenodd" d="M278.251 283.258L300.243 321.76L295.474 324.534L273.482 286.033L278.251 283.258Z" fill="#0E2951"/>
<path d="M248.06 243.314L242.709 241.086V233.994L248.06 236.223V243.314Z" fill="#911A31"/>
<path d="M254.749 255.297L249.398 253.081V245.977L254.749 248.194V255.297Z" fill="#911A31"/>
<path d="M262.779 265.95L257.427 264.039V257.961L262.779 259.871V265.95Z" fill="#911A31"/>
<path d="M303.147 167.931L438.06 116.824V278.852L302.919 329.861L303.147 167.931Z" fill="#053866"/>
<path d="M404.611 210.782L438.062 198.044V238.565L404.611 251.303V210.782Z" fill="#911A31"/>
<path d="M369.822 223.789L404.611 211.359V250.901L369.822 263.287V223.789Z" fill="#C43B55"/>
<path d="M336.375 236.091L369.826 223.342V263.852L336.375 276.601V236.091Z" fill="#053866"/>
<path d="M302.921 248.614L336.372 236.621V277.027L302.921 289.916V248.614Z" fill="#132F7C"/>
<path d="M369.822 182.832L404.61 170.083V211.547L369.822 223.899V182.832Z" fill="#FF8098"/>
<path d="M336.375 196.147L369.826 183.398V223.908L336.375 236.657V196.147Z" fill="#0E2951"/>
<path d="M302.921 208.27L336.372 195.381V235.751L302.921 248.64V208.27Z" fill="#053866"/>
<path d="M369.826 263.269L404.668 250.897L404.436 291.446L369.826 304.602V263.269Z" fill="#0E2951"/>
<path d="M336.375 276.778L369.826 263.288V304.608L336.375 317.195V276.778Z" fill="#FF8098"/>
<path d="M302.921 289.69L336.372 276.779V317.219L302.921 329.858V289.69Z" fill="#911A31"/>
<path d="M404.609 129.608L438.06 116.824V157.346L404.609 170.084V129.608Z" fill="#C43B55"/>
<path d="M369.819 142.888L404.607 130.139V170.65L369.819 183.398V142.888Z" fill="#053866"/>
<path d="M336.368 155.884L369.819 143.453V182.951L336.368 195.381V155.884Z" fill="#FF8098"/>
<path d="M303.103 167.912L336.37 155.437V195.807L302.92 208.696L303.103 167.912Z" fill="#911A31"/>
<path d="M302.915 284.554V279.073L327.421 269.222V210.348L303.318 219.149L301.58 214.68L332.354 203.37V272.506L302.915 284.554Z" fill="#C43B55"/>
<path d="M332.356 238.216L327.425 239.85V210.386L302.92 219.455V213.863L332.356 203.37V238.216Z" fill="#F985A0"/>
<path d="M302.92 273.939V268.341L319.535 261.605V222.01L302.92 228.427V222.829L324.328 216.685V264.928L302.92 273.939Z" fill="#C43B55"/>
<path d="M302.915 263.326V257.649L310.115 255.188V236.765L303.287 239.257L301.58 234.896L314.96 230.001V258.437L302.915 263.326Z" fill="#C43B55"/>
<path d="M314.962 244.412L310.106 245.978V236.803L302.92 239.724V234.158L314.962 230.001V244.412Z" fill="#F985A0"/>
<path d="M324.328 241.02L319.535 242.617V222.209L302.92 228.615V222.918L324.328 215.354V241.02Z" fill="#F985A0"/>
<path d="M420.664 123.228L438.058 116.824V137.096L420.664 143.454V123.228Z" fill="#FF8098"/>
<path d="M336.368 302.009L348.612 272.608L369.819 279.156L357.575 308.558L336.368 302.009Z" fill="#C43B55"/>
<path d="M344.396 295.84L350.742 280.596L361.79 283.994L355.396 299.237L344.396 295.84Z" fill="#911A31"/>
<path d="M336.368 155.866L369.819 143.453V175.025L336.368 187.392V155.866Z" fill="#C43B55"/>
<path d="M336.368 156.109L369.819 143.453V166.793L336.368 179.403V156.109Z" fill="#911A31"/>
<path d="M336.368 155.89L369.819 143.453V157.692L336.368 170.083V155.89Z" fill="#053866"/>
<path d="M336.368 156.155L369.819 143.453V150.724L336.368 163.426V156.155Z" fill="#0E2951"/>
<path d="M404.607 241.526L369.819 253.967L404.607 219.349L369.819 231.79" fill="#911A31"/>
<path d="M438.056 239.049L432.705 240.652V199.694L438.056 198.045V239.049Z" fill="#FF8098"/>
<path d="M431.366 240.825L426.085 242.812L426.015 202.292L431.366 200.708V240.825Z" fill="#FF8098"/>
<path d="M411.295 248.388L405.982 250.531L405.944 210.281L411.195 208.697L411.295 248.388Z" fill="#FF8098"/>
<path d="M417.988 245.725L412.637 248.216V207.617L417.988 206.033V245.725Z" fill="#FF8098"/>
<path d="M424.677 243.062L419.326 246.487V204.954L424.677 203.37V243.062Z" fill="#FF8098"/>
<path d="M404.609 170.849L438.06 158.1V198.611L404.609 211.36V170.849Z" fill="#0E2951"/>
<path d="M404.609 250.738L438.06 237.989V278.5L404.609 291.249V250.738Z" fill="#053866"/>
<path d="M404.609 170.808L420.666 164.758V184.005L404.609 190.056V170.808Z" fill="#911A31"/>
<path d="M408.688 289.902L404.436 291.446C404.436 264.156 419.962 247.383 438.06 240.652V244.681C421.73 250.771 408.688 271.449 408.688 289.902Z" fill="#FF8098"/>
<path d="M417.967 286.428L412.941 288.358C412.941 268.872 424.367 253.732 438.059 248.641V253.501C426.096 257.991 417.967 272.126 417.967 286.428Z" fill="#D6516B"/>
<path d="M426.085 283.34L422.219 284.884C422.219 273.054 428.928 261.284 438.057 257.865V262.46C430.946 265.159 426.085 274.838 426.085 283.34Z" fill="#C43B55"/>
<path d="M434.121 280.327L430.338 281.796C429.524 275.389 433.14 269.005 438.07 267.129L438.056 272.317C434.981 273.461 434.121 276.436 434.121 280.327Z" fill="#A62E41"/>
<path fill-rule="evenodd" clip-rule="evenodd" d="M400.593 135.465V167.482L376.406 176.741L375.06 173.149L396.793 164.83V141.026L377.633 148.361V166.232L392.496 160.573V147.847L381.929 151.87V159.496L388.154 157.115V154.539L385 155.749L383.651 152.158L391.954 148.974V159.768L378.129 165.055V149.212L396.297 142.296V163.23L373.833 171.783V145.709L400.593 135.465Z" fill="#F985A0"/>
<path fill-rule="evenodd" clip-rule="evenodd" d="M305.594 200.494L328.717 160.763L333.693 163.639L310.57 203.37L305.594 200.494Z" fill="#0E2951"/>
<path fill-rule="evenodd" clip-rule="evenodd" d="M328.409 195.382L305.594 172.908L309.54 168.752L332.355 191.226L328.409 195.382Z" fill="#0E2951"/>
<path d="M357.778 213.588L363.129 211.359V218.451L357.778 220.68V213.588Z" fill="#911A31"/>
<path d="M351.089 207.933L356.44 206.033V212.122L351.089 214.022V207.933Z" fill="#911A31"/>
<path d="M343.057 201.286L348.409 199.376V205.454L343.057 207.365V201.286Z" fill="#911A31"/>
<path d="M412.637 126.755L438.059 116.824V148.264L412.637 158.1V126.755Z" fill="#053866"/>
<path d="M420.664 184.452L438.058 178.072V198.81L420.673 205.196L420.664 184.452Z" fill="#911A31"/>
<path opacity="0.3" d="M169.661 117.329L303 167.691V330.034L169.065 279.672L169.661 117.329Z" fill="black"/>
<path d="M487.569 67.5123L437.298 116.825L303 66.3754L353.145 16.9642L487.569 67.5123Z" fill="#084C80"/>
<path d="M303.147 167.931L252.818 218.016L118.273 167.672L169.922 117.446L303.147 167.931Z" fill="#094573"/>
<path d="M302.999 66.3745L253.596 16.605L119.218 67.3401L169.397 117.797L302.999 66.3745Z" fill="#084C80"/>
<path d="M487.569 166.629L437.386 116.823L302.921 167.978L353.38 218.016L487.569 166.629Z" fill="#084C80"/>
</g>
</g>
<defs>
<filter id="filter0_d" x="4.46153" y="166.818" width="535.077" height="207.721" filterUnits="userSpaceOnUse" color-interpolation-filters="sRGB">
<feFlood flood-opacity="0" result="BackgroundImageFix"/>
<feColorMatrix in="SourceAlpha" type="matrix" values="0 0 0 0 0 0 0 0 0 0 0 0 0 0 0 0 0 0 127 0"/>
<feOffset dx="2" dy="2"/>
<feGaussianBlur stdDeviation="2"/>
<feColorMatrix type="matrix" values="0 0 0 0 0 0 0 0 0 0 0 0 0 0 0 0 0 0 0.1 0"/>
<feBlend mode="normal" in2="BackgroundImageFix" result="effect1_dropShadow"/>
<feBlend mode="normal" in="SourceGraphic" in2="effect1_dropShadow" result="shape"/>
</filter>
<filter id="filter1_f" x="49.1784" y="176.882" width="280.605" height="107.532" filterUnits="userSpaceOnUse" color-interpolation-filters="sRGB">
<feFlood flood-opacity="0" result="BackgroundImageFix"/>
<feBlend mode="normal" in="SourceGraphic" in2="BackgroundImageFix" result="shape"/>
<feGaussianBlur stdDeviation="2.5" result="effect1_foregroundBlur"/>
</filter>
<filter id="filter2_f" x="130.138" y="39.6991" width="344.531" height="343.673" filterUnits="userSpaceOnUse" color-interpolation-filters="sRGB">
<feFlood flood-opacity="0" result="BackgroundImageFix"/>
<feBlend mode="normal" in="SourceGraphic" in2="BackgroundImageFix" result="shape"/>
<feGaussianBlur stdDeviation="40" result="effect1_foregroundBlur"/>
</filter>
<linearGradient id="paint0_linear" x1="316.768" y1="281.058" x2="247.529" y2="130.065" gradientUnits="userSpaceOnUse">
<stop offset="0.0960889"/>
<stop offset="0.978163" stop-color="#B4D1FA" stop-opacity="0"/>
</linearGradient>
<radialGradient id="paint1_radial" cx="0" cy="0" r="1" gradientUnits="userSpaceOnUse" gradientTransform="translate(301.344 179.868) rotate(90) scale(72.8359 73.1763)">
<stop stop-color="#0095FF"/>
<stop offset="1" stop-color="#BCE3FF"/>
</radialGradient>
<clipPath id="clip0">
<rect width="600" height="369" fill="white"/>
</clipPath>
<clipPath id="clip1">
<rect width="433.389" height="313.429" fill="white" transform="translate(54.1785 16.605)"/>
</clipPath>
</defs>
</svg>
