<svg width="650" height="400" fill="none" xmlns="http://www.w3.org/2000/svg"><g filter="url(#filter0_d)"><path d="M326.805 379L640 259.805 326.805 138 11 259.805 326.805 379z" fill="#FFF5F7"/></g><g filter="url(#filter1_f)"><path d="M336.941 224.557l-159.424 60.204L52 238.983l158.536-57.426 126.405 43z" fill="url(#paint0_linear)"/></g><path d="M314.16 338l-141.256-53.414-.049-171.148 141.305 53.414V338z" fill="#053866"/><path d="M455.756 284.197l-141.402-53.658.146-170.71 141.548 53.463-.292 170.905z" fill="url(#paint1_linear)"/><path d="M314.111 338l141.888-53.998.049-170.71-141.888 53.56L314.111 338z" fill="#054270"/><path d="M172.904 284.586l141.499-54.387.097-170.37-141.645 53.609.049 171.148z" fill="url(#paint2_linear)"/><path d="M314.111 338l-141.207-53.414-.049-171.148 141.305 53.414L314.111 338z" fill="#053866"/><path d="M208.157 169.871l-35.253-13.439-.049-42.994 35.302 13.731v42.702z" fill="#053866"/><path d="M182.289 154.777a23.45 23.45 0 01-9.385-1.704l-.097-4.577c7.245 2.775 14.198 2.239 19.547-1.461 6.37-4.382 10.406-11.637 10.406-22.154l4.279 1.704c0 11.978-3.55 18.697-11.087 23.907a25.19 25.19 0 01-13.663 4.285z" fill="#FF8098"/><path d="M243.459 183.309l-35.302-13.438v-42.702l35.302 13.439v42.701z" fill="#0E2951"/><path d="M278.712 196.748l-35.253-13.439v-42.701l35.253 13.39v42.75z" fill="#FF8098"/><path d="M313.965 209.992l-35.253-13.244v-42.75l35.448 12.854-.195 43.14z" fill="#6780B3"/><path d="M208.157 212.573l-35.253-13.39v-42.751l35.253 13.439v42.702z" fill="#911A31"/><path d="M243.459 226.012l-35.302-13.439v-42.702l35.302 13.439v42.702z" fill="#C43B55"/><path d="M278.712 239.45l-35.253-13.439V183.31l35.253 13.438v42.702z" fill="#053866"/><path d="M313.966 252.694l-35.253-13.244v-42.702l35.253 13.244v42.702z" fill="#132F7C"/><path d="M243.459 268.713l-35.302-13.39v-42.75l35.302 13.439v42.701z" fill="#FF8098"/><path d="M278.712 282.152l-35.253-13.438v-42.702l35.253 13.438v42.702z" fill="#0E2951"/><path d="M313.965 295.396l-35.253-13.244V239.45l35.253 13.244v42.702z" fill="#053866"/><path d="M208.157 298.025l-35.253-13.439v-42.701l35.253 13.438v42.702z" fill="#6780B3"/><path d="M243.459 311.415l-35.302-13.39v-42.702l35.302 13.39v42.702z" fill="#053866"/><path d="M278.712 324.853l-35.253-13.438v-42.702l35.253 13.439v42.701z" fill="#FF8098"/><path d="M314.111 338l-35.399-13.146v-42.702l35.253 13.244.146 42.604z" fill="#3D95D1"/><path d="M180.101 145.915a17.703 17.703 0 01-7.197-1.412v-5.113c5.057 1.948 11.33 1.266 14.442-.779 5.203-3.457 7.731-8.813 7.731-16.262l4.279 1.704c0 9.154-3.258 14.753-9.093 18.794a18.216 18.216 0 01-10.162 3.068z" fill="#D6516B"/><path d="M177.572 136.031a11.657 11.657 0 01-4.668-.877v-5.112c3.015 1.168 7.683.876 10.26-1.704 2.675-2.678 3.404-4.869 3.404-9.398l4.279 1.704c0 6.233-2.14 10.469-6.175 13.244a12.684 12.684 0 01-7.1 2.143z" fill="#C43B55"/><path d="M175.238 126.146a4.44 4.44 0 01-2.334-.438v-5.112c.778.292 3.307.487 4.279 0 1.702-.877 1.702-2.581.876-5.113l5.105 1.704c0 3.555-1.264 6.038-3.647 7.693a7.97 7.97 0 01-4.279 1.266z" fill="#A62E41"/><path d="M313.09 289.407l-29.904-11.345v-73.815l30.439 11.15v5.989l-25.285-9.738v62.859l24.458 9.252.292 5.648z" fill="#A7C3EE"/><path d="M313.625 290.575l-30.439-12.513v-37.638l5.154 1.704v32.379l25.285 10.079v5.989z" fill="#F985A0"/><path d="M313.09 278.305l-21.395-8.131v-53.317l21.93 7.937v5.989l-16.824-6.476v43.189l16.824 5.989-.535 4.82z" fill="#A7C3EE"/><path d="M313.089 268.08l-12.253-4.674v-31.113l12.788 4.479v5.989l-7.682-3.019V259.9l7.682 3.36-.535 4.82z" fill="#A7C3EE"/><path d="M313.624 268.372l-12.788-4.966v-16.263l5.106 1.704V259.9l7.682 2.484v5.988z" fill="#F985A0"/><path d="M313.625 279.474l-21.93-8.424v-27.413l5.106 1.704v22.155l16.824 5.989v5.989z" fill="#F985A0"/><path d="M199.697 294.811l-26.793-10.225V252.11l26.793 10.225v32.476z" fill="#053866"/><path d="M190.507 291.306l-17.603-6.72v-21.375l17.603 6.72v21.375z" fill="#709FDC"/><path d="M278.566 169.627l-12.789 22.008-22.173-23.955 12.789-22.009 22.173 23.956z" fill="#C43B55"/><path d="M270.008 169.14l-6.564 11.248-11.281-12.221 6.516-11.199 11.329 12.172z" fill="#911A31"/><path d="M278.712 324.854l-35.253-13.439v-34.132l35.253 13.39v34.181z" fill="#C43B55"/><path d="M278.712 324.854l-35.253-13.439V286.68l35.253 13.39v24.784z" fill="#911A31"/><path d="M278.712 324.854l-35.253-13.439v-15.337l35.253 13.389v15.387z" fill="#053866"/><path d="M278.712 324.853l-35.253-13.438v-7.645l35.253 13.39v7.693z" fill="#0E2951"/><path d="M208.157 180.096l35.302 13.438-35.302 10.518 35.302 13.438-35.302-37.394z" fill="#911A31"/><path d="M177.135 200.887l-4.231-1.704v-42.702l4.231 1.704v42.702zm6.856 2.581l-4.279-1.705v-42.75l4.279 1.753v42.702zm22.172 8.52l-4.279-1.704v-42.702l4.279 1.704v42.702zm-7.439-3.116l-5.106-1.704v-42.702l5.106 1.704v42.702zm-7.925-2.873l-4.279-1.704v-42.702l4.279 1.704v42.702z" fill="#FF8098"/><path d="M208.157 255.323l-35.253-13.438v-42.702l35.253 13.39v42.75z" fill="#0E2951"/><path d="M208.157 255.323l-17.651-6.719v-21.375l17.651 6.719v21.375zm-17.65-28.094l-17.603-6.72v-21.326l17.603 6.719v21.327z" fill="#3D95D1"/><path d="M228.822 288.433l-6.029-2.288v-7.012l10.503 3.993v12.27l-14.977-5.697V272.17l19.499 7.401v22.885l-24.021-9.105v-29.069l24.021 9.106" stroke="#3D95D1" stroke-width="4" stroke-miterlimit="10"/><path d="M285.082 322.176l23.972-23.372m0 32.477l-23.972-41.582" stroke="#0E2951" stroke-width="6" stroke-miterlimit="10"/><path d="M256.149 246.218l-5.64-2.142v-6.817l5.64 2.142v6.817zm7.733 12.368l-5.641-2.143v-6.865l5.641 2.142v6.866zm7.78 12.318l-5.641-2.142v-6.817l5.641 2.143v6.816z" fill="#B9D5FD"/><path d="M314.16 166.852l141.888-53.56v170.905L314.111 338l.049-171.148z" fill="#053866"/><path d="M420.551 212.183l35.496-13.439v42.751l-35.496 13.438v-42.75z" fill="#B9D5FD"/><path d="M385.006 225.622l35.545-13.439v42.751l-35.545 13.39v-42.702z" fill="#C43B55"/><path d="M349.51 239.06l35.496-13.438v42.701l-35.496 13.439V239.06z" fill="#053866"/><path d="M313.965 252.694l35.545-13.634v42.702l-35.545 13.634v-42.702z" fill="#132F7C"/><path d="M385.006 182.92l35.545-13.439v42.702l-35.545 13.439V182.92z" fill="#FF8098"/><path d="M349.51 196.359l35.496-13.439v42.702L349.51 239.06v-42.701z" fill="#0E2951"/><path d="M313.965 209.992l35.545-13.634v42.702l-35.545 13.634v-42.702z" fill="#053866"/><path d="M385.006 268.323l35.545-13.39v42.702l-35.545 13.439v-42.751z" fill="#0E2951"/><path d="M349.51 281.762l35.496-13.439v42.751l-35.496 13.39v-42.702z" fill="#709FDC"/><path d="M313.965 295.395l35.545-13.633v42.702L314.111 338l-.146-42.605z" fill="#911A31"/><path d="M420.551 126.779l35.496-13.487v42.751l-35.496 13.438v-42.702z" fill="#C43B55"/><path d="M385.006 140.218l35.545-13.439v42.702l-35.545 13.439v-42.702z" fill="#053866"/><path d="M349.51 153.657l35.496-13.439v42.702l-35.496 13.438v-42.701z" fill="#FF8098"/><path d="M314.159 166.852l35.351-13.195v42.701l-35.545 13.634.194-43.14z" fill="#3D95D1"/><path d="M313.625 290.575v-5.989l26.209-10.42v-62.859l-24.945 9.397-1.799-4.772 31.849-12.075v73.815l-31.314 12.903z" fill="#B9D5FD"/><path d="M344.939 241.738l-5.105 1.704v-32.135l-26.209 10.079v-5.989l31.314-11.54v37.881z" fill="#F985A0"/><path d="M313.625 279.474v-5.989l17.699-7.206v-42.361l-17.699 6.865v-5.989l22.805-6.573v51.612l-22.805 9.641z" fill="#B9D5FD"/><path d="M313.625 268.372v-5.989l8.46-2.873v-20.158l-7.196 2.727-1.799-4.772 14.101-5.356v31.114l-13.566 5.307z" fill="#B9D5FD"/><path d="M327.191 247.63l-5.105 1.704v-9.982l-8.461 3.409v-5.989l13.566-4.821v15.679z" fill="#F985A0"/><path d="M336.43 244.952l-5.106 1.753v-22.788l-17.699 6.866v-5.989l22.805-8.278v28.436z" fill="#F985A0"/><path d="M438.299 120.06l17.748-6.768v21.424l-17.748 6.719V120.06z" fill="#FF8098"/><path d="M349.656 308.737l12.886-31.698 22.319 7.06-12.886 31.698-22.319-7.06z" fill="#0E2951"/><path d="M358.263 302.699l6.564-16.165 11.427 3.603-6.613 16.165-11.378-3.603z" fill="#6780B3"/><path d="M349.51 153.657l35.496-13.439v34.181l-35.496 13.39v-34.132z" fill="#C43B55"/><path d="M349.51 153.657l35.496-13.439v24.784l-35.496 13.39v-24.735z" fill="#911A31"/><path d="M349.51 153.657l35.496-13.439v15.386l-35.496 13.39v-15.337z" fill="#053866"/><path d="M349.51 153.657l35.496-13.439v7.693L349.51 161.35v-7.693z" fill="#0E2951"/><path d="M420.551 244.708l-35.545 13.439 35.545-37.394-35.545 13.438" fill="#911A31"/><path d="M456.096 241.885l-5.106 1.704v-43.53l5.106-1.753v43.579zm-6.71 2.239l-5.155 1.704v-42.701l5.155-1.705v42.702zm-21.346 8.034l-5.106 1.704-.097-42.702 5.106-1.704.097 42.702zm7.099-2.678l-5.106 1.704v-42.702l5.106-1.704v42.702zm7.147-2.678l-5.154 1.704v-42.701l5.154-1.705v42.702z" fill="#709FDC"/><path d="M420.551 169.481l35.496-13.438v42.701l-35.496 13.439v-42.702z" fill="#0E2951"/><path d="M420.551 254.934l35.496-13.439v42.702l-35.496 13.438v-42.701z" fill="#053866"/><path d="M420.551 169.481l17.748-6.719v21.375l-17.748 6.72v-21.376z" fill="#911A31"/><path d="M425.414 295.688l-4.279 1.704c0-29.02 16.046-46.646 34.961-53.803v4.285c-17.067 6.475-30.682 28.191-30.682 47.814z" fill="#B9D5FD"/><path d="M434.798 292.279l-5.106 1.705c0-20.499 12.205-36.665 26.452-42.021v5.113c-12.448 4.723-21.346 20.158-21.346 35.203z" fill="#3D95D1"/><path d="M443.842 288.871l-4.765 1.704c0-12.806 7.245-25.124 16.922-28.825l.097 4.869c-7.537 2.922-12.254 13.049-12.254 22.252z" fill="#3376B3"/><path d="M451.866 285.463l-4.279 1.704c-.876-6.817 3.112-13.585 8.412-15.581l.097 5.356c-3.306 1.217-4.23 4.382-4.23 8.521z" fill="#709FDC"/><path d="M399.74 152.099l6.029-2.289v6.963l-10.552 3.993v-12.222l15.123-5.696v17.528l-19.645 7.401v-22.884l24.167-9.154v29.068l-24.167 9.154" stroke="#F985A0" stroke-width="4" stroke-miterlimit="10"/><path d="M343.092 161.204l-24.118 41.582m0-32.477l24.118 23.323" stroke="#0E2951" stroke-width="6" stroke-miterlimit="10"/><path d="M372.218 215.104l5.689-2.142v6.817l-5.689 2.142v-6.817zm-7.78-6.476l5.64-2.142v6.865l-5.64 2.143v-6.866zm-7.829-6.427l5.689-2.142v6.817l-5.689 2.142v-6.817z" fill="#911A31"/><path d="M429.061 123.566l26.986-10.274v32.525l-26.986 10.177v-32.428z" fill="#053866"/><path d="M438.299 184.137l17.748-6.719v21.326l-17.748 6.72v-21.327z" fill="#911A31"/><path d="M509 60.803l-52.953 52.489L314.5 59.83 367.404 7 509 60.803z" fill="#005BA0"/><path d="M314.257 166.901l-52.71 52.294L120 165.878l52.855-52.44 141.402 53.463z" fill="#004376"/><path d="M314.5 59.83L261.547 7 120 60.365l52.855 53.073L314.5 59.83zM509 165.44l-52.953-52.148-141.888 53.56 53.245 52.391L509 165.44z" fill="#005BA0"/><defs><linearGradient id="paint0_linear" x1="328.5" y1="286.5" x2="255" y2="127" gradientUnits="userSpaceOnUse"><stop offset=".096"/><stop offset=".978" stop-color="#fff" stop-opacity="0"/></linearGradient><linearGradient id="paint1_linear" x1="437.5" y1="107.5" x2="435.738" y2="162.212" gradientUnits="userSpaceOnUse"><stop stop-color="#034D85"/><stop offset="1" stop-color="#07497B"/></linearGradient><linearGradient id="paint2_linear" x1="172.824" y1="105.736" x2="267.819" y2="165.352" gradientUnits="userSpaceOnUse"><stop stop-color="#034F89"/><stop offset="1" stop-color="#014070"/></linearGradient><filter id="filter0_d" x="9" y="136" width="637" height="249" filterUnits="userSpaceOnUse" color-interpolation-filters="sRGB"><feFlood flood-opacity="0" result="BackgroundImageFix"/><feColorMatrix in="SourceAlpha" values="0 0 0 0 0 0 0 0 0 0 0 0 0 0 0 0 0 0 127 0"/><feOffset dx="2" dy="2"/><feGaussianBlur stdDeviation="2"/><feColorMatrix values="0 0 0 0 0 0 0 0 0 0 0 0 0 0 0 0 0 0 0.1 0"/><feBlend in2="BackgroundImageFix" result="effect1_dropShadow"/><feBlend in="SourceGraphic" in2="effect1_dropShadow" result="shape"/></filter><filter id="filter1_f" x="47" y="140" width="295.461" height="184.956" filterUnits="userSpaceOnUse" color-interpolation-filters="sRGB"><feFlood flood-opacity="0" result="BackgroundImageFix"/><feBlend in="SourceGraphic" in2="BackgroundImageFix" result="shape"/><feGaussianBlur stdDeviation="2.5" result="effect1_foregroundBlur"/></filter></defs></svg>