<svg width="600" height="369" fill="none" xmlns="http://www.w3.org/2000/svg"><g clip-path="url(#clip0)"><g filter="url(#filter0_d)"><path d="M305.538 368.539l228-86.715L234 168.818 6.462 255.532l299.076 113.007z" fill="#FFF5F7"/></g><g clip-path="url(#clip1)"><g filter="url(#filter1_f)"><path d="M324.784 222.519l-151.403 56.895-119.203-43.262 150.56-54.27 120.046 40.637z" fill="url(#paint0_linear)"/></g><path d="M302.919 329.861l-133.756-50.356-.047-161.35 133.803 50.356v161.35z" fill="#053866"/><path d="M438.07 278.708l-135.149-50.391-.613-161.371 2.308-1.91 133.446 51.954.008 161.718z" fill="#083556"/><path d="M302.921 329.86l135.094-51.193.047-161.844-135.095 50.779-.046 162.258z" fill="#054270"/><path d="M169.162 279.264l135.914-54.635-2.083-158.255-1.609-1.338-132.268 52.005.046 162.223z" fill="#063D66"/><g filter="url(#filter2_f)"><ellipse cx="302.404" cy="211.536" rx="92.266" ry="91.837" fill="url(#paint1_radial)"/></g><path d="M302.924 329.863l-133.757-50.358-.046-161.35 133.803 50.356v161.352z" fill="#053866"/><path d="M202.571 171.415l-33.404-12.683-.047-40.577 33.451 12.959v40.301z" fill="#053866"/><path d="M178.012 156.761a22.046 22.046 0 01-8.803-1.593l-.092-4.28c6.797 2.595 13.32 2.094 18.338-1.366 5.975-4.097 9.761-10.881 9.761-20.715l4.014 1.594c0 11.199-3.33 17.482-10.4 22.354a23.688 23.688 0 01-12.818 4.006z" fill="#FF8098"/><path d="M236.021 183.398l-33.451-12.749v-40.511l33.451 12.749v40.511z" fill="#0E2951"/><path d="M269.47 196.712l-33.451-12.749v-40.51l33.451 12.703v40.556z" fill="#FF8098"/><path d="M302.92 208.692l-33.45-12.593v-40.663l33.677 12.495-.227 40.761z" fill="#6780B3"/><path d="M202.568 211.359l-33.451-12.703V158.1l33.451 12.749v40.51z" fill="#911A31"/><path d="M236.021 223.343l-33.451-12.431v-39.497l33.451 12.43v39.498z" fill="#C43B55"/><path d="M269.47 236.657l-33.451-12.749v-40.511l33.451 12.749v40.511z" fill="#053866"/><path d="M302.92 248.64l-33.45-12.293.043-40.239 33.407 12.55v39.982z" fill="#132F7C"/><path d="M236.021 264.618l-33.451-12.703v-40.996l33.451 12.412v41.287z" fill="#FF8098"/><path d="M269.473 276.601l-33.451-12.749v-40.51l33.451 12.749v40.51z" fill="#0E2951"/><path d="M302.925 289.916l-33.451-12.608v-40.651l33.451 12.608v40.651z" fill="#053866"/><path d="M202.568 292.036l-33.451-12.556v-40.703l33.451 12.527v40.732z" fill="#6780B3"/><path d="M236.021 304.562l-33.451-12.713v-40.546l33.451 12.714v40.545z" fill="#053866"/><path d="M269.47 317.125l-33.451-12.749v-40.51l33.451 12.749v40.51z" fill="#FF8098"/><path d="M302.92 329.861l-33.45-12.537v-40.723l33.45 13.087v40.173z" fill="#3D95D1"/><path d="M176.034 148.777a17.01 17.01 0 01-6.917-1.356v-4.91c4.861 1.871 10.889 1.216 13.88-.748 5-3.32 7.431-8.464 7.431-15.619l4.112 1.637c0 8.791-3.131 14.169-8.739 18.05a17.51 17.51 0 01-9.767 2.946z" fill="#D6516B"/><path d="M173.643 139.457a10.88 10.88 0 01-4.526-.888v-5.177c2.923 1.183 7.448.887 9.947-1.726 2.593-2.712 3.3-4.931 3.3-9.516l4.148 1.726c0 6.311-2.074 10.601-5.987 13.411a11.922 11.922 0 01-6.882 2.17z" fill="#C43B55"/><path d="M171.248 130.122a3.75 3.75 0 01-2.131-.437v-5.099c.711.291 3.018.486 3.906 0 1.553-.874 1.553-2.574.799-5.099l4.66 1.699c0 3.546-1.154 6.023-3.329 7.674a6.838 6.838 0 01-3.905 1.262z" fill="#A62E41"/><path d="M302.401 283.259l-28.919-10.643V203.37l29.437 10.46v5.618l-24.452-9.135v59.904l23.521 9.649.413 3.393z" fill="#B9D5FD"/><path d="M302.919 284.59l-29.437-11.628v-35.163l4.985 1.792v30.068l24.452 9.366v5.565z" fill="#F985A0"/><path d="M302.374 272.533l-20.862-6.562v-50.618l21.409 7.567v5.71l-16.424-6.174v41.176l16.424 5.71-.547 3.191z" fill="#B9D5FD"/><path d="M302.374 261.339l-11.493-3.088v-28.252l12.042 4.167v5.57l-7.234-2.808v18.75l7.234 3.124-.549 2.537z" fill="#B9D5FD"/><path d="M302.923 263.286l-12.042-4.672v-14.417l4.808 1.738v9.381l7.234 2.336v5.634z" fill="#F985A0"/><path d="M302.921 273.939l-21.409-7.825v-25.341l4.985 1.845v20.195l16.424 5.563v5.563z" fill="#F985A0"/><path d="M194.54 289.047l-25.423-9.567v-30.84l25.423 9.564v30.843z" fill="#053866"/><path d="M185.174 285.512l-16.057-6.032v-20.189l16.057 6.369v19.852z" fill="#709FDC"/><path d="M269.47 170.348l-12.236 21.038-21.215-22.9 12.236-21.039 21.215 22.901z" fill="#C43B55"/><path d="M261.444 169.864l-6.399 10.871-10.996-11.812 6.352-10.823 11.043 11.764z" fill="#911A31"/><path d="M269.47 317.031l-33.451-12.789v-32.481l33.451 12.742v32.528z" fill="#C43B55"/><path d="M269.47 316.762l-33.451-13.125V279.48l33.451 13.078v24.204z" fill="#911A31"/><path d="M269.47 316.705l-33.451-13.058v-14.903l33.451 13.011v14.95z" fill="#053866"/><path d="M269.47 317.208l-33.451-12.731v-7.241l33.451 12.684v7.288z" fill="#0E2951"/><path d="M202.57 180.735l33.451 12.441-33.451 9.736 33.451 12.441-33.451-34.618z" fill="#911A31"/><path d="M173.131 200.707l-4.014-1.635V158.1l4.014 1.635v40.972zm6.69 1.331l-4.013-1.582v-39.694l4.013 1.628v39.648zm21.408 7.988l-5.351-1.584V168.75l5.351 1.585v39.691zm-8.028-2.662l-4.013-1.584v-39.692l4.013 1.584v39.692zm-6.688-2.663l-4.014-1.584v-39.692l4.014 1.584v39.692z" fill="#FF8098"/><path d="M202.568 251.304l-33.451-12.749v-40.511l33.451 12.703v40.557z" fill="#0E2951"/><path d="M202.568 251.303l-17.394-6.369v-20.26l17.394 6.369v20.26zm-17.394-26.629l-16.057-6.38v-20.25l16.057 6.043v20.587z" fill="#3D95D1"/><path fill-rule="evenodd" clip-rule="evenodd" d="M206.584 257.961l24.251 9.512-1.287 3.511-19.335-7.584v23.273l18.164 7.125v-17.469l-14.061-5.523v12.441l9.958 3.919v-7.501l-5.9-2.32v2.564l4.3 1.688-1.288 3.511-6.641-2.608v-10.6l13.158 5.175v15.537l-17.217-6.776v-20.471l21.32 8.373v25.499l-25.422-9.971v-31.305z" fill="#3D95D1"/><path fill-rule="evenodd" clip-rule="evenodd" d="M300.243 295.176l-22.781 21.37-3.98-3.929 22.78-21.369 3.981 3.928z" fill="#0E2951"/><path fill-rule="evenodd" clip-rule="evenodd" d="M278.251 283.259l21.992 38.501-4.769 2.774-21.992-38.501 4.769-2.774z" fill="#0E2951"/><path d="M248.06 243.314l-5.352-2.228v-7.092l5.352 2.229v7.091zm6.689 11.983l-5.351-2.216v-7.104l5.351 2.217v7.103zm8.03 10.653l-5.352-1.911v-6.078l5.352 1.91v6.079z" fill="#B9D5FD"/><path d="M303.147 167.931l134.913-51.107v162.028l-135.141 51.009.228-161.93z" fill="#053866"/><path d="M404.611 210.782l33.451-12.738v40.521l-33.451 12.738v-40.521z" fill="#B9D5FD"/><path d="M369.822 223.789l34.789-12.43v39.542l-34.789 12.386v-39.498z" fill="#C43B55"/><path d="M336.375 236.091l33.451-12.749v40.51l-33.451 12.749v-40.51z" fill="#053866"/><path d="M302.922 248.614l33.45-11.993v40.406l-33.45 12.889v-41.302z" fill="#132F7C"/><path d="M369.822 182.832l34.788-12.749v41.464l-34.788 12.352v-41.067z" fill="#FF8098"/><path d="M336.375 196.147l33.451-12.749v40.51l-33.451 12.749v-40.51z" fill="#0E2951"/><path d="M302.922 208.27l33.45-12.889v40.37l-33.45 12.889v-40.37z" fill="#053866"/><path d="M369.826 263.269l34.842-12.372-.232 40.549-34.61 13.156v-41.333z" fill="#0E2951"/><path d="M336.375 276.778l33.451-13.49v41.32l-33.451 12.587v-40.417z" fill="#709FDC"/><path d="M302.921 289.69l33.451-12.911v40.44l-33.451 12.639V289.69z" fill="#911A31"/><path d="M404.609 129.608l33.451-12.784v40.522l-33.451 12.738v-40.476z" fill="#C43B55"/><path d="M369.819 142.888l34.788-12.749v40.511l-34.788 12.749v-40.511z" fill="#053866"/><path d="M336.368 155.884l33.451-12.43v39.497l-33.451 12.43v-39.497z" fill="#FF8098"/><path d="M303.103 167.912l33.267-12.475v40.37l-33.45 12.889.183-40.784z" fill="#3D95D1"/><path d="M302.915 284.554v-5.481l24.506-9.851v-58.874l-24.103 8.801-1.738-4.469 30.774-11.31v69.136l-29.439 12.048z" fill="#B9D5FD"/><path d="M332.356 238.216l-4.931 1.634v-29.464l-24.505 9.069v-5.592l29.436-10.493v34.846z" fill="#F985A0"/><path d="M302.92 273.939v-5.598l16.615-6.736V222.01l-16.615 6.417v-5.598l21.408-6.144v48.243l-21.408 9.011z" fill="#B9D5FD"/><path d="M302.915 263.326v-5.677l7.2-2.461v-18.423l-6.828 2.492-1.707-4.361 13.38-4.895v28.436l-12.045 4.889z" fill="#B9D5FD"/><path d="M314.962 244.412l-4.856 1.566v-9.175l-7.186 2.921v-5.566l12.042-4.157v14.411z" fill="#F985A0"/><path d="M324.328 241.02l-4.793 1.598v-20.409l-16.615 6.406v-5.697l21.408-7.564v25.666z" fill="#F985A0"/><path d="M420.664 123.228l17.395-6.404v20.272l-17.395 6.358v-20.226z" fill="#FF8098"/><path d="M336.368 302.009l12.244-29.401 21.207 6.548-12.244 29.402-21.207-6.549z" fill="#0E2951"/><path d="M344.396 295.84l6.346-15.244 11.048 3.398-6.394 15.243-11-3.397z" fill="#6780B3"/><path d="M336.368 155.866l33.451-12.412v31.571l-33.451 12.367v-31.526z" fill="#C43B55"/><path d="M336.368 156.109l33.451-12.655v23.34l-33.451 12.61v-23.295z" fill="#911A31"/><path d="M336.368 155.89l33.451-12.436v14.238l-33.451 12.391V155.89z" fill="#053866"/><path d="M336.368 156.155l33.451-12.701v7.271l-33.451 12.701v-7.271z" fill="#0E2951"/><path d="M404.607 241.526l-34.788 12.441 34.788-34.618-34.788 12.441" fill="#911A31"/><path d="M438.056 239.049l-5.351 1.603v-40.958l5.351-1.649v41.004zm-6.689 1.776l-5.282 1.987-.07-40.52 5.352-1.584v40.117zm-20.072 7.563l-5.313 2.143-.038-40.25 5.251-1.584.1 39.691zm6.693-2.663l-5.351 2.491v-40.599l5.351-1.584v39.692zm6.689-2.663l-5.351 3.425v-41.533l5.351-1.584v39.692z" fill="#709FDC"/><path d="M404.609 170.849L438.06 158.1v40.511l-33.451 12.749v-40.511z" fill="#0E2951"/><path d="M404.609 250.738l33.451-12.749V278.5l-33.451 12.749v-40.511z" fill="#053866"/><path d="M404.609 170.808l16.057-6.05v19.247l-16.057 6.051v-19.248z" fill="#911A31"/><path d="M408.688 289.902l-4.252 1.544c0-27.29 15.526-44.063 33.624-50.794v4.029c-16.33 6.09-29.372 26.768-29.372 45.221z" fill="#B9D5FD"/><path d="M417.967 286.428l-5.026 1.93c0-19.486 11.426-34.625 25.118-39.717v4.86c-11.963 4.49-20.092 18.625-20.092 32.927z" fill="#3D95D1"/><path d="M426.085 283.34l-3.866 1.544c0-11.83 6.709-23.6 15.838-27.019v4.595c-7.111 2.699-11.972 12.378-11.972 20.88z" fill="#3376B3"/><path d="M434.121 280.327l-3.783 1.469c-.814-6.407 2.802-12.791 7.732-14.667l-.014 5.188c-3.075 1.144-3.935 4.119-3.935 8.01z" fill="#709FDC"/><path fill-rule="evenodd" clip-rule="evenodd" d="M400.593 135.465v32.017l-24.187 9.259-1.346-3.592 21.733-8.319v-23.804l-19.16 7.335v17.871l14.863-5.659v-12.726l-10.567 4.023v7.626l6.225-2.381v-2.576l-3.154 1.21-1.349-3.591 8.303-3.184v10.794l-13.825 5.287v-15.843l18.168-6.916v20.934l-22.464 8.553v-26.074l26.76-10.244z" fill="#F985A0"/><path fill-rule="evenodd" clip-rule="evenodd" d="M305.594 200.494l23.123-39.731 4.976 2.876-23.123 39.731-4.976-2.876z" fill="#0E2951"/><path fill-rule="evenodd" clip-rule="evenodd" d="M328.409 195.382l-22.815-22.474 3.946-4.156 22.815 22.474-3.946 4.156z" fill="#0E2951"/><path d="M357.778 213.588l5.351-2.229v7.092l-5.351 2.229v-7.092z" fill="#B9D5FD"/><path d="M351.089 207.933l5.351-1.9v6.089l-5.351 1.9v-6.089zm-8.032-6.647l5.352-1.91v6.078l-5.352 1.911v-6.079z" fill="#911A31"/><path d="M412.637 126.755l25.422-9.931v31.44l-25.422 9.836v-31.345z" fill="#053866"/><path d="M420.664 184.452l17.395-6.38v20.738l-17.386 6.386-.009-20.744z" fill="#911A31"/><path opacity=".3" d="M169.661 117.329L303 167.691v162.343l-133.935-50.362.596-162.343z" fill="#000"/><path d="M487.569 67.512l-50.271 49.313L303 66.375l50.145-49.41 134.424 50.547z" fill="#084C80"/><path d="M303.147 167.931l-50.329 50.085-134.545-50.344 51.649-50.226 133.225 50.485z" fill="#094573"/><path d="M302.999 66.374l-49.403-49.769L119.218 67.34l50.179 50.457 133.602-51.422zm184.57 100.255l-50.183-49.806-134.465 51.155 50.459 50.038 134.189-51.387z" fill="#084C80"/></g></g><defs><filter id="filter0_d" x="4.462" y="166.818" width="535.077" height="207.721" filterUnits="userSpaceOnUse" color-interpolation-filters="sRGB"><feFlood flood-opacity="0" result="BackgroundImageFix"/><feColorMatrix in="SourceAlpha" values="0 0 0 0 0 0 0 0 0 0 0 0 0 0 0 0 0 0 127 0"/><feOffset dx="2" dy="2"/><feGaussianBlur stdDeviation="2"/><feColorMatrix values="0 0 0 0 0 0 0 0 0 0 0 0 0 0 0 0 0 0 0.1 0"/><feBlend in2="BackgroundImageFix" result="effect1_dropShadow"/><feBlend in="SourceGraphic" in2="effect1_dropShadow" result="shape"/></filter><filter id="filter1_f" x="49.178" y="176.882" width="280.605" height="107.532" filterUnits="userSpaceOnUse" color-interpolation-filters="sRGB"><feFlood flood-opacity="0" result="BackgroundImageFix"/><feBlend in="SourceGraphic" in2="BackgroundImageFix" result="shape"/><feGaussianBlur stdDeviation="2.5" result="effect1_foregroundBlur"/></filter><filter id="filter2_f" x="130.138" y="39.699" width="344.531" height="343.673" filterUnits="userSpaceOnUse" color-interpolation-filters="sRGB"><feFlood flood-opacity="0" result="BackgroundImageFix"/><feBlend in="SourceGraphic" in2="BackgroundImageFix" result="shape"/><feGaussianBlur stdDeviation="40" result="effect1_foregroundBlur"/></filter><clipPath id="clip0"><path fill="#fff" d="M0 0h600v369H0z"/></clipPath><clipPath id="clip1"><path fill="#fff" transform="translate(54.178 16.605)" d="M0 0h433.389v313.429H0z"/></clipPath><radialGradient id="paint1_radial" cx="0" cy="0" r="1" gradientUnits="userSpaceOnUse" gradientTransform="matrix(0 72.8359 -73.1763 0 301.34 179.905)"><stop stop-color="#0095FF"/><stop offset="1" stop-color="#BCE3FF"/></radialGradient><linearGradient id="paint0_linear" x1="316.767" y1="281.058" x2="247.529" y2="130.065" gradientUnits="userSpaceOnUse"><stop offset=".096"/><stop offset=".978" stop-color="#B4D1FA" stop-opacity="0"/></linearGradient></defs></svg>