<svg width="240" height="160" fill="none" xmlns="http://www.w3.org/2000/svg"><path d="M94.014 156.8l-76.75-28.859-.026-92.524L94.04 64.302l-.026 92.498z" fill="#053866"/><path d="M170.97 127.71L94.143 98.723l.077-92.294 76.904 28.885-.154 92.396z" fill="#102E5B"/><path d="M94.014 156.8l77.11-29.192V35.314L94.039 64.302l-.025 92.498z" fill="#054270"/><path d="M17.264 127.941l76.904-29.423.052-92.089-76.982 28.988.026 92.524z" fill="#0A2D49"/><path d="M94.014 156.8l-76.75-28.885-.026-92.498L94.04 64.302l-.026 92.498z" fill="#053866"/><path d="M36.432 65.916l-19.168-7.253-.026-23.246 19.194 7.407v23.092z" fill="#053866"/><path d="M22.359 57.74a12.73 12.73 0 01-5.095-.922l-.051-2.486c3.936 1.486 7.719 1.204 10.6-.77 3.474-2.383 5.66-6.279 5.66-11.994l2.316.922c0 6.46-1.93 10.124-6.02 12.944a13.674 13.674 0 01-7.41 2.306z" fill="#B9D5FD"/><path d="M55.6 73.17l-19.168-7.254V42.824L55.6 50.077V73.17z" fill="#0E2951"/><path d="M74.768 80.423L55.6 73.17V50.077l19.168 7.253v23.093z" fill="#709FDC"/><path d="M93.936 87.574l-19.168-7.151V57.33l19.27 6.972-.102 23.272z" fill="#6780B3"/><path d="M36.432 89.009l-19.168-7.253V58.663l19.168 7.253V89.01z" fill="#B9D5FD"/><path d="M55.6 96.262L36.432 89.01V65.916L55.6 73.17v23.092z" fill="#274684"/><path d="M74.768 103.515L55.6 96.262V73.17l19.168 7.253v23.092z" fill="#3D95D1"/><path d="M93.936 110.666l-19.168-7.151V80.423l19.168 7.15v23.093zM55.6 119.355l-19.168-7.253V89.009L55.6 96.262v23.093z" fill="#B9D5FD"/><path d="M74.768 126.608L55.6 119.355V96.262l19.168 7.254v23.092z" fill="#0E2951"/><path d="M93.936 133.759l-19.168-7.151v-23.093l19.168 7.151v23.093z" fill="#709FDC"/><path d="M36.432 135.194l-19.168-7.279v-23.092l19.168 7.279v23.092z" fill="#6780B3"/><path d="M55.6 142.447l-19.168-7.253v-23.093l19.168 7.254v23.092z" fill="#053866"/><path d="M74.768 149.7L55.6 142.447v-23.092l19.168 7.253V149.7z" fill="#B9D5FD"/><path d="M94.013 156.8l-19.245-7.099v-23.093l19.168 7.151.077 23.041zM21.174 52.948a9.879 9.879 0 01-3.91-.744v-2.768c2.753 1.051 6.149.692 7.847-.435 2.83-1.871 4.22-4.767 4.22-8.791l2.315.922c0 4.947-1.775 7.971-4.94 10.15a9.804 9.804 0 01-5.532 1.666z" fill="#3D95D1"/><path d="M19.81 47.617a6.155 6.155 0 01-2.546-.487v-2.77c1.646.616 4.168.462 5.557-.922 1.467-1.461 1.853-2.64 1.853-5.075l2.315.923c0 3.383-1.158 5.664-3.37 7.15a6.627 6.627 0 01-3.808 1.18z" fill="#3376B3"/><path d="M18.524 42.286a2.501 2.501 0 01-1.26-.231v-2.768c.411.154 1.775.256 2.315 0 .927-.461.927-1.384.463-2.768l2.78.922c0 1.923-.695 3.255-1.982 4.153a4.24 4.24 0 01-2.316.692z" fill="#709FDC"/><path d="M93.448 130.529l-16.235-6.125V84.498l16.544 6.023v3.23l-13.765-5.255v33.985l13.301 4.998.155 3.05z" fill="#274684"/><path d="M93.757 131.17l-16.544-6.766v-20.35l2.779.922v17.505l13.765 5.46v3.229z" fill="#0E2951"/><path d="M93.448 124.532l-11.63-4.408V91.316l11.939 4.305v3.23l-9.16-3.537v23.374l9.16 3.255-.31 2.589z" fill="#274684"/><path d="M93.447 118.996l-6.638-2.512V99.671l6.947 2.409v3.229l-4.169-1.64v10.893l4.168 1.819-.308 2.615z" fill="#274684"/><path d="M93.755 119.15l-6.946-2.666v-8.816l2.778.922v5.972l4.168 1.358v3.23z" fill="#0E2951"/><path d="M93.757 125.173l-11.939-4.588v-14.788l2.78.922v11.969l9.159 3.255v3.23z" fill="#0E2951"/><path d="M31.826 133.451l-14.562-5.536v-17.531l14.562 5.511v17.556z" fill="#053866"/><path d="M26.86 131.555l-9.596-3.64v-11.533l9.597 3.639v11.534z" fill="#709FDC"/><path d="M74.692 65.788l-6.947 11.867-12.067-12.943 6.972-11.867 12.042 12.943z" fill="#0E2951"/><path d="M70.034 65.532l-3.55 6.049-6.15-6.587 3.55-6.075 6.15 6.613z" fill="#6780B3"/><path d="M74.768 149.7L55.6 142.447v-18.479l19.168 7.253V149.7z" fill="#3D95D1"/><path d="M74.768 149.701L55.6 142.447v-13.404l19.168 7.253v13.405z" fill="#6780B3"/><path d="M74.768 149.701L55.6 142.447v-8.329l19.168 7.279v8.304z" fill="#053866"/><path d="M74.768 149.701L55.6 142.447v-4.152l19.168 7.254v4.152zM36.432 71.427L55.6 78.68l-19.168 5.715L55.6 91.65 36.432 71.427z" fill="#0E2951"/><path d="M19.58 82.678l-2.316-.922V58.663l2.315.923v23.092zm3.704 1.385l-2.315-.923V60.047l2.315.923v23.093zm12.066 4.613l-2.315-.923V64.661l2.316.922v23.093zm-4.038-1.692l-2.779-.922V62.995l2.779.922v23.067zm-4.322-1.538l-2.316-.922V61.43l2.315.923v23.092z" fill="#709FDC"/><path d="M36.432 112.101l-19.168-7.278V81.756l19.168 7.253V112.1z" fill="#0E2951"/><path d="M36.432 112.101l-9.57-3.639V96.928l9.57 3.614v11.559zM26.86 96.928l-9.596-3.639V81.756l9.597 3.613v11.56z" fill="#3D95D1"/><path d="M47.985 130.555l-3.937-1.487v-4.562l6.896 2.615v7.996l-9.855-3.742v-11.431l12.788 4.844v14.942l-15.72-5.971v-18.941l15.72 5.946" stroke="#3D95D1" stroke-width="5" stroke-miterlimit="10"/><path d="M78.217 148.24l13.044-12.61m0 17.531l-13.044-22.478" stroke="#0E2951" stroke-width="6" stroke-miterlimit="10"/><path d="M62.495 107.181l-3.061-1.154v-3.69l3.061 1.153v3.691zm4.221 6.689l-3.062-1.179V109l3.062 1.154v3.716zm4.219 6.664l-3.062-1.154v-3.691l3.062 1.154v3.691z" fill="#B9D5FD"/><path d="M94.04 64.302l77.084-28.988.025 92.396-77.135 29.09.025-92.498z" fill="#053866"/><path d="M151.826 88.804l19.323-7.28v23.093l-19.323 7.254V88.804z" fill="#B9D5FD"/><path d="M132.529 96.057l19.297-7.253v23.067l-19.297 7.279V96.057z" fill="#274684"/><path d="M113.232 103.311l19.297-7.254v23.093l-19.297 7.253v-23.092z" fill="#053866"/><path d="M93.936 110.666l19.296-7.355v23.092l-19.296 7.356v-23.093zm38.593-37.701l19.297-7.254v23.093l-19.297 7.253V72.965z" fill="#B9D5FD"/><path d="M113.232 80.218l19.297-7.254v23.093l-19.297 7.253V80.218z" fill="#0E2951"/><path d="M93.936 87.574l19.296-7.356v23.092l-19.296 7.356V87.574z" fill="#709FDC"/><path d="M132.529 119.15l19.297-7.279v23.092l-19.297 7.279V119.15z" fill="#0E2951"/><path d="M113.232 126.403l19.297-7.253v23.092l-19.297 7.253v-23.092z" fill="#709FDC"/><path d="M93.936 133.759l19.296-7.356v23.093l-19.22 7.304-.076-23.041zm57.89-91.14l19.297-7.305.026 23.119-19.323 7.279V42.618z" fill="#6780B3"/><path d="M132.529 49.872l19.297-7.253V65.71l-19.297 7.254V49.872z" fill="#053866"/><path d="M113.232 57.125l19.297-7.253v23.093l-19.297 7.253V57.125z" fill="#B9D5FD"/><path d="M94.038 64.302l19.194-7.177v23.093l-19.296 7.356.102-23.272z" fill="#3D95D1"/><path d="M93.756 131.17v-3.229l14.228-5.664V88.291l-13.559 5.1-.978-2.588 17.316-6.51V124.2l-17.007 6.971z" fill="#274684"/><path d="M110.763 104.771l-2.779.923V88.291l-14.228 5.46v-3.23l17.007-6.228v20.478z" fill="#0E2951"/><path d="M93.756 125.173v-3.23l9.597-3.921V95.109l-9.597 3.742v-3.23l12.376-3.588v27.911l-12.376 5.229z" fill="#274684"/><path d="M93.756 119.15v-3.23l4.58-1.563v-10.893l-3.911 1.487-.978-2.589 7.668-2.896v16.813l-7.359 2.871z" fill="#274684"/><path d="M101.114 107.924l-2.778.923v-5.383l-4.58 1.846v-3.23l7.358-2.614v8.458z" fill="#0E2951"/><path d="M106.132 106.514l-2.779.923V95.109l-9.597 3.742v-3.23l12.376-4.51v15.403z" fill="#0E2951"/><path d="M161.5 38.98l9.623-3.666.025 11.585-9.648 3.614V38.98z" fill="#FF8098"/><path d="M113.311 140.986l7.024-17.146 12.118 3.819-6.998 17.146-12.144-3.819z" fill="#0E2951"/><path d="M118.02 137.731l3.55-8.765 6.201 1.948-3.576 8.765-6.175-1.948z" fill="#6780B3"/><path d="M113.232 57.125l19.297-7.253v18.48l-19.297 7.252V57.125z" fill="#3D95D1"/><path d="M113.232 57.125l19.297-7.253v13.404l-19.297 7.254V57.125z" fill="#6780B3"/><path d="M113.232 57.125l19.297-7.253v8.304l-19.297 7.279v-8.33z" fill="#053866"/><path d="M113.232 57.125l19.297-7.253v4.152l-19.297 7.279v-4.178zm38.594 49.235l-19.297 7.254 19.297-20.197-19.297 7.254" fill="#0E2951"/><path d="M171.175 104.848l-2.779.923V82.217l2.779-.923v23.554zm-3.654 1.205l-2.779.922V83.883l2.779-.923v23.093zm-11.577 4.357l-2.805.923-.051-23.119 2.779-.922.077 23.118zm3.859-1.461l-2.805.923V86.779l2.805-.923v23.093zm3.859-1.435l-2.805.922V85.344l2.805-.923v23.093z" fill="#709FDC"/><path d="M151.826 65.711l19.323-7.279v23.093l-19.323 7.279V65.71z" fill="#0E2951"/><path d="M151.826 111.871l19.323-7.254v23.093l-19.323 7.253v-23.092z" fill="#053866"/><path d="M151.826 65.711l9.674-3.64v11.534l-9.674 3.64V65.71z" fill="#3D95D1"/><path d="M154.478 133.938l-2.316.923c0-15.711 8.722-25.22 19.014-29.09v2.306c-9.288 3.486-16.698 15.25-16.698 25.861z" fill="#B9D5FD"/><path d="M159.597 132.093l-2.779.923c0-11.073 6.638-19.812 14.383-22.734v2.768c-6.767 2.537-11.604 10.918-11.604 19.043z" fill="#3D95D1"/><path d="M164.511 130.247l-2.599.923c0-6.92 3.937-13.584 9.211-15.583l.052 2.64c-4.117 1.563-6.664 7.023-6.664 12.02z" fill="#3376B3"/><path d="M168.859 128.402l-2.316.923c-.463-3.691 1.698-7.356 4.58-8.433l.051 2.897c-1.826.666-2.315 2.383-2.315 4.613z" fill="#709FDC"/><path d="M140.3 56.049l3.782-1.435v4.383l-6.638 2.511v-7.663l9.494-3.588v10.97l-12.35 4.664V51.538l15.206-5.715V64.02l-15.206 5.741" stroke="#3D95D1" stroke-width="5" stroke-miterlimit="10"/><path d="M109.76 61.2L96.639 83.704m0-17.557l13.121 12.61" stroke="#0E2951" stroke-width="6" stroke-miterlimit="10"/><path d="M125.582 90.342l3.088-1.154v3.691l-3.088 1.179v-3.716zm-4.244-3.46l3.087-1.18v3.692l-3.087 1.178v-3.69zm-4.246-3.486l3.087-1.179v3.716l-3.087 1.154v-3.691z" fill="#B9D5FD"/><path d="M156.484 40.876l14.64-5.562.026 17.583-14.666 5.51v-17.53z" fill="#053866"/><path d="M160.42 39.364l10.703-4.05.026 12.841-10.729 4.05V39.364z" fill="#709FDC"/><path d="M161.5 73.605l9.648-3.614v11.534l-9.648 3.64v-11.56z" fill="#3D95D1"/><path d="M139.656 46.668l31.467-11.354L94.219 6.43 63.627 18.014l76.029 28.654z" fill="#0D3760"/><path d="M133.482 49.513L93.705 64.404 16.8 35.571l39.828-14.943 76.853 28.885z" fill="#0D3659"/><path d="M135.952 3.2L94.168 6.48 17.264 35.34l41.68-3.178L135.953 3.2z" fill="#043D60"/><path d="M171.176 35.34L142.385 7.147 65.301 36.109l28.92 28.32 76.955-29.09z" fill="#03446B"/><path d="M94 99.2V64.4l76.8-29.6 52.8-.4-8 18 8 18-52.4.193L94 99.2z" fill="#B4D1FA"/><path d="M108.704 79.78l-3.41-8.33-1.11.382-2.373 10.315 1.023-.351.522-2.288 3.575-1.228.75 1.85 1.023-.35zm-2.099-2.442l-3.048 1.047 1.254-5.544 1.794 4.497zm9.026.061l-.512-9.324-.894.307.22 4.012-4.2 1.443-.221-4.011-.894.307.513 9.324.894-.308-.235-4.277 4.2-1.443.235 4.277.894-.307zm7.83-2.69l-3.41-8.328-1.11.381-2.374 10.316 1.024-.352.521-2.287 3.576-1.228.749 1.85 1.024-.351zm-2.099-2.44l-3.048 1.047 1.253-5.544 1.795 4.497zm2.552 2.456c1.281-.44 2.108-1.365 2.271-5.594l.15-3.855 2.703-.928.456 8.289.894-.307-.512-9.324-4.395 1.51-.184 4.834c-.128 3.263-.579 4.045-1.44 4.34l.057 1.035zm9.015-3.268l3.781-8.876.409 7.437.894-.307-.513-9.324-.915.314-3.736 8.704-.4-7.283-.894.307.512 9.324.862-.296zm9.435-3.241l-.456-8.29 2.284-.784-.057-1.035-5.45 1.873.057 1.034 2.272-.78.456 8.289.894-.307zm4.333-1.489l3.781-8.876.409 7.437.894-.307-.513-9.324-.915.314-3.736 8.704-.4-7.283-.894.307.513 9.324.861-.296zm12.214-4.196l-3.522-3.775 2.751-5.46-1.12.385-2.912 5.914-.266-4.822-.894.307.513 9.323.894-.307-.172-3.13.663-1.311 2.956 3.257 1.109-.38zm7.169-2.462l-3.41-8.329-1.11.381-2.373 10.316 1.023-.352.521-2.287 3.576-1.228.75 1.85 1.023-.351zm-2.099-2.441l-3.048 1.047 1.254-5.544 1.794 4.497z" fill="#000"/><path d="M223.601 34.4l-52.8.4.397 35.6h52.403l-7.94-18 7.94-18z" fill="#000" fill-opacity=".05"/><path d="M199.865 59.585l-1.417-1.417 1.434-1.718 1.133 1.134 1.14-.006 7.084 7.37-2.866 2.865-7.083-7.37.575-.858z" fill="#C43B55"/><path fill-rule="evenodd" clip-rule="evenodd" d="M191.723 41.935c-4.294.042-7.799 3.568-7.829 7.875a7.631 7.631 0 007.72 7.723c4.294-.042 7.799-3.567 7.829-7.875a7.673 7.673 0 00-1.149-4.117.517.517 0 01.167-.706.505.505 0 01.702.156 8.69 8.69 0 011.3 4.658c-.034 4.872-3.999 8.86-8.856 8.907a8.633 8.633 0 01-8.733-8.736c.034-4.872 3.999-8.86 8.856-8.908a8.62 8.62 0 014.904 1.458.508.508 0 01.132.709.512.512 0 01-.708.144 7.616 7.616 0 00-4.335-1.288z" fill="#000"/><path fill-rule="evenodd" clip-rule="evenodd" d="M191.597 59.58c5.42-.053 9.845-4.503 9.883-9.94.038-5.437-4.326-9.802-9.746-9.75-5.42.053-9.844 4.503-9.882 9.94a9.699 9.699 0 001.45 5.197.516.516 0 01-.167.707.504.504 0 01-.701-.156 10.709 10.709 0 01-1.602-5.738c.042-6.002 4.926-10.914 10.909-10.972 5.984-.059 10.8 4.76 10.758 10.762-.041 6.002-4.925 10.914-10.909 10.972a10.616 10.616 0 01-6.041-1.795.508.508 0 01-.132-.709.512.512 0 01.708-.144 9.613 9.613 0 005.472 1.626z" fill="#000"/><path fill-rule="evenodd" clip-rule="evenodd" d="M199.811 55.809l1.514 1.52.379-.059a1.758 1.758 0 011.511.494l5.898 5.917c.394.395.576.956.492 1.515l-.032.21a1.83 1.83 0 01-.513 1.018l-1.03 1.033a1.817 1.817 0 01-1.013.514l-.211.032a1.758 1.758 0 01-1.51-.493l-5.898-5.917a1.768 1.768 0 01-.492-1.515l.057-.38-1.514-1.519 2.362-2.37zm.173 3.94l-.07.465a.76.76 0 00.211.65l5.898 5.916c.169.17.409.248.647.212l.211-.032a.778.778 0 00.434-.22l1.03-1.034a.784.784 0 00.22-.435l.032-.212a.758.758 0 00-.211-.649l-5.898-5.917a.754.754 0 00-.648-.211l-.463.07-1.393 1.398zm.436-1.87l-.621-.623-.908.911.62.622.909-.91z" fill="#000"/><path d="M189.414 49.842c-.43.235-.809 0-.809.941v2.295l.809.81.809-.81v-2.163c-.149-.539-.337-.766-.809-1.073zm2.024-.404l-.405.594v3.45l.394.405h.415l.809-.809-.038-2.905c.068-.161-.133-.646-.366-.735-.273-.317-.46-.246-.809 0zm2.83-2.022l-.774.592-.035 5.07.809.81.809-.81v-5.07l-.404-.188-.405-.404z" fill="#C43B55"/><path fill-rule="evenodd" clip-rule="evenodd" d="M194.688 44.994a.202.202 0 01.135.106l.233.469a.202.202 0 11-.361.181c-.474 1.422-1.464 2.39-2.535 3.025-1.192.706-2.495 1.006-3.338 1.067a.202.202 0 01-.029-.404c.79-.057 2.031-.342 3.162-1.012.984-.583 1.877-1.452 2.325-2.71a.203.203 0 01-.226-.335l.467-.352a.2.2 0 01.167-.035z" fill="#000"/><path fill-rule="evenodd" clip-rule="evenodd" d="M193.459 48.06c0-.356.275-.645.615-.645h.388c.34 0 .615.29.615.645v2.48a.172.172 0 01-.168.176.172.172 0 01-.167-.176v-2.48a.287.287 0 00-.28-.293h-.388a.287.287 0 00-.28.293v5.182c0 .162.125.293.28.293h.388c.155 0 .28-.13.28-.293v-2.09c0-.097.075-.176.167-.176.093 0 .168.079.168.176v2.09c0 .357-.275.645-.615.645h-.388c-.34 0-.615-.288-.615-.645v-5.181zm-2.426 1.649c0-.373.275-.676.615-.676h.389c.339 0 .614.303.614.676v3.503c0 .373-.275.675-.614.675h-.478c-.29 0-.526-.259-.526-.578 0-.102.075-.184.168-.184.092 0 .167.082.167.184 0 .116.086.21.191.21h.478c.154 0 .279-.138.279-.307v-3.503c0-.17-.125-.307-.279-.307h-.389c-.155 0-.28.137-.28.307v3.206c0 .102-.075.184-.167.184-.093 0-.168-.082-.168-.184V49.71zm-2.428.776c0-.355.265-.643.591-.643h.413c.339 0 .614.3.614.67v2.706c0 .37-.275.67-.614.67h-.389c-.339 0-.615-.3-.615-.67v-2.273c0-.1.076-.183.168-.183.093 0 .168.082.168.183v2.273c0 .168.125.304.279.304h.389c.154 0 .279-.136.279-.303V50.51c0-.168-.125-.304-.279-.304h-.413c-.141 0-.255.124-.255.278 0 .1-.075.182-.168.182-.092 0-.168-.081-.168-.182z" fill="#000"/></svg>