<svg width="240" height="160" fill="none" xmlns="http://www.w3.org/2000/svg"><path d="M94.014 156.8l-76.75-28.859-.026-92.524L94.04 64.302l-.026 92.498z" fill="#053866"/><path d="M170.97 127.71L94.143 98.723l.077-92.294 76.904 28.885-.154 92.396z" fill="#102E5B"/><path d="M94.014 156.8l77.11-29.192V35.314L94.039 64.302l-.025 92.498z" fill="#054270"/><path d="M17.264 127.941l76.904-29.424.052-92.088-76.982 28.988.026 92.524z" fill="#0A2D49"/><path d="M94.014 156.8l-76.75-28.885-.026-92.498L94.04 64.302l-.026 92.498z" fill="#053866"/><path d="M36.432 65.916l-19.168-7.253-.026-23.246 19.194 7.407v23.092z" fill="#053866"/><path d="M22.359 57.74a12.728 12.728 0 01-5.095-.922l-.051-2.487c3.936 1.487 7.719 1.205 10.6-.769 3.474-2.383 5.66-6.279 5.66-11.994l2.316.922c0 6.46-1.93 10.124-6.02 12.944a13.673 13.673 0 01-7.41 2.306z" fill="#B9D5FD"/><path d="M55.6 73.17l-19.168-7.254V42.824L55.6 50.077V73.17z" fill="#0E2951"/><path d="M74.768 80.423L55.6 73.169V50.078l19.168 7.253v23.093z" fill="#709FDC"/><path d="M93.936 87.573l-19.168-7.15V57.33l19.27 6.972-.102 23.271z" fill="#6780B3"/><path d="M36.432 89.009l-19.168-7.253V58.663l19.168 7.253V89.01z" fill="#B9D5FD"/><path d="M55.6 96.262l-19.168-7.253V65.916L55.6 73.17v23.092z" fill="#274684"/><path d="M74.768 103.515L55.6 96.262V73.17l19.168 7.253v23.092z" fill="#3D95D1"/><path d="M93.936 110.666l-19.168-7.151V80.423l19.168 7.15v23.093zM55.6 119.355l-19.168-7.254V89.009L55.6 96.262v23.093z" fill="#B9D5FD"/><path d="M74.768 126.608L55.6 119.355V96.262l19.168 7.254v23.092z" fill="#0E2951"/><path d="M93.936 133.759l-19.168-7.151v-23.093l19.168 7.151v23.093z" fill="#709FDC"/><path d="M36.432 135.194l-19.168-7.279v-23.092l19.168 7.278v23.093z" fill="#6780B3"/><path d="M55.6 142.447l-19.168-7.253v-23.093l19.168 7.254v23.092z" fill="#053866"/><path d="M74.768 149.7L55.6 142.447v-23.092l19.168 7.253V149.7z" fill="#B9D5FD"/><path d="M94.013 156.8l-19.245-7.1v-23.092l19.168 7.151.077 23.041zM21.174 52.948a9.88 9.88 0 01-3.91-.744v-2.768c2.753 1.051 6.149.692 7.847-.435 2.83-1.871 4.22-4.767 4.22-8.791l2.315.922c0 4.947-1.775 7.971-4.94 10.15a9.804 9.804 0 01-5.532 1.666z" fill="#3D95D1"/><path d="M19.81 47.617a6.155 6.155 0 01-2.546-.487v-2.77c1.646.616 4.168.462 5.557-.922 1.467-1.461 1.853-2.64 1.853-5.075l2.315.923c0 3.383-1.158 5.664-3.37 7.15a6.627 6.627 0 01-3.808 1.18z" fill="#3376B3"/><path d="M18.524 42.285a2.501 2.501 0 01-1.26-.23v-2.768c.411.154 1.775.256 2.315 0 .927-.462.927-1.384.463-2.768l2.78.922c0 1.923-.695 3.255-1.982 4.152a4.24 4.24 0 01-2.316.692z" fill="#709FDC"/><path d="M93.448 130.529l-16.235-6.125V84.498l16.544 6.023v3.23l-13.765-5.255v33.985l13.301 4.998.155 3.05z" fill="#274684"/><path d="M93.757 131.17l-16.544-6.766v-20.35l2.779.922v17.505l13.765 5.46v3.229z" fill="#0E2951"/><path d="M93.448 124.532l-11.63-4.408V91.316l11.939 4.305v3.23l-9.16-3.537v23.374l9.16 3.255-.31 2.589z" fill="#274684"/><path d="M93.447 118.996l-6.638-2.512V99.671l6.947 2.409v3.229l-4.169-1.64v10.893l4.168 1.819-.308 2.615z" fill="#274684"/><path d="M93.755 119.15l-6.946-2.666v-8.816l2.778.922v5.972l4.168 1.358v3.23z" fill="#0E2951"/><path d="M93.757 125.173l-11.939-4.588v-14.788l2.78.922v11.969l9.159 3.255v3.23z" fill="#0E2951"/><path d="M31.826 133.451l-14.562-5.536v-17.531l14.562 5.511v17.556z" fill="#053866"/><path d="M26.86 131.555l-9.596-3.64v-11.533l9.597 3.639v11.534z" fill="#709FDC"/><path d="M74.692 65.788l-6.947 11.867-12.067-12.943 6.972-11.867 12.042 12.943z" fill="#0E2951"/><path d="M70.034 65.532l-3.55 6.049-6.15-6.587 3.55-6.075 6.15 6.613z" fill="#6780B3"/><path d="M74.768 149.7L55.6 142.447v-18.479l19.168 7.253V149.7z" fill="#3D95D1"/><path d="M74.768 149.7L55.6 142.447v-13.404l19.168 7.253V149.7z" fill="#6780B3"/><path d="M74.768 149.701L55.6 142.447v-8.329l19.168 7.278v8.305z" fill="#053866"/><path d="M74.768 149.701L55.6 142.447v-4.152l19.168 7.254v4.152zM36.432 71.427L55.6 78.68l-19.168 5.715L55.6 91.65 36.432 71.427z" fill="#0E2951"/><path d="M19.58 82.678l-2.316-.922V58.663l2.315.923v23.092zm3.704 1.385l-2.315-.923V60.047l2.315.923v23.093zm12.066 4.613l-2.315-.923V64.66l2.316.923v23.093zm-4.038-1.692l-2.779-.922V62.994l2.779.922v23.067zm-4.322-1.538l-2.316-.922V61.43l2.315.923v23.092z" fill="#709FDC"/><path d="M36.432 112.101l-19.168-7.278V81.756l19.168 7.253V112.1z" fill="#0E2951"/><path d="M36.432 112.101l-9.57-3.639V96.928l9.57 3.614v11.559zM26.86 96.928l-9.596-3.639V81.756l9.597 3.613v11.56z" fill="#3D95D1"/><path d="M47.985 130.555l-3.937-1.487v-4.562l6.896 2.614v7.997l-9.855-3.742v-11.431l12.788 4.844v14.942l-15.72-5.971v-18.941l15.72 5.946" stroke="#3D95D1" stroke-width="3" stroke-miterlimit="10"/><path d="M78.217 148.239L91.26 135.63m.001 17.53l-13.044-22.477" stroke="#0E2951" stroke-width="6" stroke-miterlimit="10"/><path d="M62.495 107.181l-3.061-1.154v-3.69l3.061 1.153v3.691zm4.221 6.689l-3.062-1.179V109l3.062 1.154v3.716zm4.219 6.663l-3.062-1.153v-3.691l3.062 1.154v3.69z" fill="#B9D5FD"/><path d="M94.04 64.302l77.084-28.988.025 92.396-77.135 29.09.025-92.498z" fill="#053866"/><path d="M151.826 88.804l19.323-7.28v23.093l-19.323 7.254V88.804z" fill="#B9D5FD"/><path d="M132.529 96.057l19.297-7.253v23.067l-19.297 7.279V96.057z" fill="#274684"/><path d="M113.232 103.31l19.297-7.253v23.093l-19.297 7.253V103.31z" fill="#053866"/><path d="M93.936 110.666l19.296-7.355v23.092l-19.296 7.356v-23.093zm38.593-37.701l19.297-7.254v23.093l-19.297 7.253V72.965z" fill="#B9D5FD"/><path d="M113.232 80.218l19.297-7.254v23.093l-19.297 7.253V80.218z" fill="#0E2951"/><path d="M93.936 87.574l19.296-7.356v23.092l-19.296 7.356V87.574z" fill="#709FDC"/><path d="M132.529 119.15l19.297-7.279v23.092l-19.297 7.279V119.15z" fill="#0E2951"/><path d="M113.232 126.403l19.297-7.253v23.092l-19.297 7.253v-23.092z" fill="#709FDC"/><path d="M93.936 133.759l19.296-7.356v23.092l-19.22 7.305-.076-23.041zm57.89-91.14l19.297-7.305.026 23.118-19.323 7.28V42.618z" fill="#6780B3"/><path d="M132.529 49.872l19.297-7.253V65.71l-19.297 7.254V49.872z" fill="#053866"/><path d="M113.232 57.125l19.297-7.253v23.093l-19.297 7.253V57.125z" fill="#B9D5FD"/><path d="M94.038 64.302l19.194-7.177v23.093l-19.296 7.356.102-23.272z" fill="#3D95D1"/><path d="M93.756 131.17v-3.229l14.228-5.664V88.291l-13.559 5.1-.978-2.588 17.316-6.51V124.2l-17.007 6.971z" fill="#274684"/><path d="M110.763 104.771l-2.779.923V88.291l-14.228 5.46v-3.23l17.007-6.228v20.478z" fill="#0E2951"/><path d="M93.756 125.173v-3.23l9.597-3.921V95.109l-9.597 3.742v-3.23l12.376-3.588v27.911l-12.376 5.229z" fill="#274684"/><path d="M93.756 119.15v-3.23l4.58-1.563v-10.893l-3.911 1.487-.978-2.589 7.668-2.896v16.813l-7.359 2.871z" fill="#274684"/><path d="M101.114 107.924l-2.778.922v-5.382l-4.58 1.846v-3.23l7.358-2.614v8.458z" fill="#0E2951"/><path d="M106.132 106.514l-2.779.923V95.109l-9.597 3.742v-3.23l12.376-4.51v15.403z" fill="#0E2951"/><path d="M161.5 38.98l9.623-3.666.025 11.585-9.648 3.614V38.979z" fill="#FF8098"/><path d="M113.311 140.986l7.024-17.146 12.118 3.819-6.998 17.146-12.144-3.819z" fill="#0E2951"/><path d="M118.02 137.731l3.55-8.765 6.201 1.948-3.576 8.765-6.175-1.948z" fill="#6780B3"/><path d="M113.232 57.125l19.297-7.253v18.48l-19.297 7.252V57.125z" fill="#3D95D1"/><path d="M113.232 57.125l19.297-7.253v13.404l-19.297 7.254V57.125z" fill="#6780B3"/><path d="M113.232 57.125l19.297-7.253v8.304l-19.297 7.279v-8.33z" fill="#053866"/><path d="M113.232 57.125l19.297-7.253v4.152l-19.297 7.279v-4.178zm38.594 49.235l-19.297 7.253 19.297-20.196-19.297 7.253" fill="#0E2951"/><path d="M171.175 104.848l-2.779.923V82.217l2.779-.923v23.554zm-3.654 1.205l-2.779.922V83.883l2.779-.923v23.093zm-11.577 4.357l-2.805.922-.051-23.118 2.779-.922.077 23.118zm3.859-1.461l-2.805.923V86.779l2.805-.923v23.093zm3.859-1.435l-2.805.922V85.344l2.805-.923v23.093z" fill="#709FDC"/><path d="M151.826 65.711l19.323-7.279v23.093l-19.323 7.279V65.71z" fill="#0E2951"/><path d="M151.826 111.871l19.323-7.254v23.093l-19.323 7.253v-23.092z" fill="#053866"/><path d="M151.826 65.711l9.674-3.64v11.534l-9.674 3.64V65.71z" fill="#3D95D1"/><path d="M154.478 133.938l-2.316.923c0-15.711 8.722-25.22 19.014-29.09v2.306c-9.288 3.486-16.698 15.25-16.698 25.861z" fill="#B9D5FD"/><path d="M159.597 132.093l-2.779.923c0-11.073 6.638-19.812 14.383-22.734v2.768c-6.767 2.537-11.604 10.918-11.604 19.043z" fill="#3D95D1"/><path d="M164.511 130.247l-2.599.923c0-6.92 3.937-13.584 9.211-15.583l.052 2.64c-4.117 1.563-6.664 7.023-6.664 12.02z" fill="#3376B3"/><path d="M168.859 128.402l-2.316.923c-.463-3.691 1.698-7.356 4.58-8.433l.051 2.897c-1.826.666-2.315 2.383-2.315 4.613z" fill="#709FDC"/><path d="M140.3 56.049l3.782-1.435v4.382l-6.638 2.512v-7.663l9.494-3.588v10.97l-12.35 4.664V51.538l15.206-5.715V64.02l-15.206 5.741" stroke="#3D95D1" stroke-width="5" stroke-miterlimit="10"/><path d="M109.76 61.2L96.639 83.704m0-17.557l13.121 12.61" stroke="#0E2951" stroke-width="6" stroke-miterlimit="10"/><path d="M125.582 90.342l3.088-1.154v3.69l-3.088 1.18v-3.716zm-4.244-3.46l3.087-1.18v3.691l-3.087 1.18v-3.691zm-4.246-3.486l3.087-1.179v3.716l-3.087 1.154v-3.691z" fill="#B9D5FD"/><path d="M156.484 40.876l14.64-5.562.026 17.582-14.666 5.51v-17.53z" fill="#053866"/><path d="M160.42 39.364l10.703-4.05.026 12.84-10.729 4.05v-12.84z" fill="#709FDC"/><path d="M161.5 73.605l9.648-3.614v11.534l-9.648 3.64v-11.56z" fill="#3D95D1"/><path d="M139.656 46.668l31.467-11.354L94.219 6.43 63.627 18.014l76.029 28.654z" fill="#0D3760"/><path d="M133.482 49.513L93.705 64.404 16.8 35.57l39.828-14.942 76.853 28.885z" fill="#0D3659"/><path d="M135.952 3.2L94.168 6.48 17.264 35.34l41.68-3.178L135.953 3.2z" fill="#043D60"/><path d="M171.176 35.34L142.385 7.147 65.301 36.109l28.92 28.32 76.955-29.09z" fill="#03446B"/><path d="M94 99.2V64.4l76.8-29.6 53.2-.382-8 18.088 8 17.894-52.8.193L94 99.2z" fill="#B4D1FA"/><path d="M127.769 74.709c1.956-.612 2.613-2.22 2.554-3.578-.151-3.482-4.393-.937-4.484-3.035-.038-.882.555-1.677 1.425-1.949.793-.248 1.569-.136 2.146.464l.507-1.023c-.645-.635-1.525-.842-2.633-.496-1.424.445-2.444 1.827-2.377 3.366.145 3.329 4.381.658 4.486 3.064.031.713-.343 1.737-1.637 2.141-1.021.32-1.832-.079-2.34-.615l-.494 1.048c.635.68 1.586 1.007 2.847.613zm8.764-2.91l-.045-1.035-3.848 1.203-.14-3.217 3.771-1.179-.045-1.035-3.772 1.179-.131-3.007 3.848-1.203-.045-1.035-4.75 1.485.407 9.329 4.75-1.485zm4.75-1.314c2.141-.67 3.508-3.195 3.388-5.95-.12-2.755-1.667-4.37-3.809-3.7-2.152.672-3.507 3.194-3.387 5.949.12 2.755 1.656 4.374 3.808 3.7zm-.045-1.035c-1.631.51-2.734-.79-2.828-2.958-.095-2.182.867-4.113 2.498-4.623 1.619-.506 2.733.776 2.828 2.958.094 2.168-.879 4.117-2.498 4.623z" fill="#000"/><path d="M224.001 34.4l-53.2.4.4 35.6h52.8l-8-18 8-18z" fill="#000" fill-opacity=".05"/><path d="M197.533 58.435l-1.402-1.401 1.419-1.7 1.121 1.122 1.127-.006 7.005 7.288-2.834 2.833-7.005-7.288.569-.848z" fill="#C43B55"/><path fill-rule="evenodd" clip-rule="evenodd" d="M189.481 40.98c-4.247.042-7.713 3.529-7.742 7.788a7.546 7.546 0 007.634 7.638c4.246-.042 7.713-3.528 7.742-7.788a7.585 7.585 0 00-1.136-4.071.511.511 0 01.165-.698.5.5 0 01.694.154 8.6 8.6 0 011.286 4.605c-.034 4.819-3.955 8.762-8.758 8.809-4.803.047-8.669-3.821-8.636-8.64.034-4.817 3.955-8.76 8.758-8.808a8.526 8.526 0 014.85 1.441.503.503 0 01.13.701.506.506 0 01-.7.143 7.533 7.533 0 00-4.287-1.273z" fill="#000"/><path fill-rule="evenodd" clip-rule="evenodd" d="M189.358 58.43c5.36-.053 9.735-4.454 9.773-9.83.037-5.377-4.277-9.694-9.637-9.641-5.36.052-9.736 4.453-9.773 9.83a9.587 9.587 0 001.434 5.139.511.511 0 01-.165.698.5.5 0 01-.694-.154 10.584 10.584 0 01-1.583-5.674c.041-5.935 4.871-10.793 10.788-10.85 5.916-.058 10.679 4.706 10.638 10.642-.041 5.935-4.871 10.793-10.788 10.85a10.497 10.497 0 01-5.974-1.775.502.502 0 01-.131-.7.507.507 0 01.701-.144 9.507 9.507 0 005.411 1.608z" fill="#000"/><path fill-rule="evenodd" clip-rule="evenodd" d="M197.48 54.7l1.498 1.503.375-.057a1.736 1.736 0 011.493.488l5.833 5.851c.389.39.57.946.487 1.498l-.032.209c-.057.38-.235.732-.507 1.005l-1.019 1.022a1.798 1.798 0 01-1.002.51l-.208.03a1.736 1.736 0 01-1.493-.487l-5.833-5.852c-.39-.39-.57-.946-.487-1.498l.057-.376-1.498-1.501 2.336-2.344zm.171 3.897l-.069.46a.749.749 0 00.209.642l5.833 5.851a.745.745 0 00.64.21l.208-.032a.767.767 0 00.429-.218l1.019-1.022a.775.775 0 00.217-.43l.032-.21a.752.752 0 00-.209-.642l-5.833-5.85a.744.744 0 00-.64-.21l-.458.07-1.378 1.381zm.431-1.85l-.614-.616-.898.901.614.616.898-.901z" fill="#000"/></svg>