<svg width="240" height="160" fill="none" xmlns="http://www.w3.org/2000/svg"><path d="M93.613 156l-77.148-28.709-.026-92.042 77.2 28.734L93.613 156z" fill="#053866"/><path d="M170.967 127.061L93.742 98.225l.078-91.813 77.302 28.735-.155 91.914z" fill="#102E5B"/><path d="M93.613 156l77.51-29.04V35.147L93.639 63.984 93.613 156z" fill="#054270"/><path d="M16.465 127.291l77.303-29.27.052-91.609L16.44 35.25l.025 92.042z" fill="#0A2D49"/><path d="M93.613 156l-77.148-28.735-.026-92.016 77.2 28.734L93.613 156z" fill="#053866"/><path d="M35.733 65.59l-19.268-7.216-.026-23.125 19.294 7.368V65.59z" fill="#053866"/><path d="M21.587 57.456a12.91 12.91 0 01-5.121-.918l-.052-2.473c3.957 1.479 7.759 1.199 10.655-.765 3.492-2.37 5.69-6.246 5.69-11.932l2.328.918c0 6.425-1.94 10.07-6.052 12.875a13.844 13.844 0 01-7.448 2.295z" fill="#B9D5FD"/><path d="M55 72.805L35.732 65.59V42.617L55 49.833v22.972z" fill="#0E2951"/><path d="M74.267 80.02L55 72.806V49.833l19.267 7.215v22.973z" fill="#709FDC"/><path d="M93.535 87.134L74.268 80.02V57.048l19.37 6.935-.103 23.151z" fill="#6780B3"/><path d="M35.732 88.562l-19.267-7.216V58.374l19.267 7.216v22.972z" fill="#B9D5FD"/><path d="M55 95.777l-19.268-7.215V65.59L55 72.805v22.972z" fill="#274684"/><path d="M74.267 102.993L55 95.778V72.805l19.267 7.216v22.972z" fill="#3D95D1"/><path d="M93.535 110.106l-19.267-7.113V80.021l19.267 7.113v22.972zM55 118.75l-19.268-7.216V88.562L55 95.778v22.972z" fill="#B9D5FD"/><path d="M74.267 125.965L55 118.75V95.778l19.267 7.215v22.972z" fill="#0E2951"/><path d="M93.535 133.079l-19.267-7.114v-22.972l19.267 7.113v22.973z" fill="#709FDC"/><path d="M35.732 134.506l-19.267-7.241v-22.972l19.267 7.241v22.972z" fill="#6780B3"/><path d="M55 141.722l-19.268-7.216v-22.972L55 118.749v22.973z" fill="#053866"/><path d="M74.267 148.937L55 141.722V118.75l19.267 7.215v22.972z" fill="#B9D5FD"/><path d="M93.613 156l-19.345-7.063v-22.972l19.267 7.114.078 22.921zM20.396 52.689a10.022 10.022 0 01-3.931-.74v-2.753c2.767 1.045 6.18.688 7.888-.434 2.845-1.861 4.241-4.742 4.241-8.745l2.328.918c0 4.92-1.785 7.93-4.966 10.096a9.928 9.928 0 01-5.56 1.658z" fill="#3D95D1"/><path d="M19.025 47.385a6.244 6.244 0 01-2.56-.484v-2.754c1.655.612 4.19.459 5.586-.918 1.474-1.453 1.862-2.626 1.862-5.048l2.328.918c0 3.365-1.164 5.635-3.388 7.113a6.71 6.71 0 01-3.828 1.173z" fill="#3376B3"/><path d="M17.732 42.082a2.537 2.537 0 01-1.267-.23V39.1c.414.153 1.784.255 2.328 0 .93-.46.93-1.377.465-2.754l2.793.918c0 1.912-.698 3.238-1.991 4.13-.692.449-1.5.688-2.328.689z" fill="#709FDC"/><path d="M93.044 129.866l-16.32-6.094V84.074l16.63 5.992v3.213l-13.836-5.227v33.808l13.37 4.972.156 3.034z" fill="#274684"/><path d="M93.354 130.504l-16.63-6.732v-20.244l2.794.918v17.414l13.836 5.431v3.213z" fill="#0E2951"/><path d="M93.045 123.9l-11.69-4.385V90.857l12 4.283v3.213l-9.206-3.519v23.253l9.207 3.238-.31 2.575z" fill="#274684"/><path d="M93.044 118.393l-6.673-2.499V99.168l6.983 2.397v3.212l-4.19-1.631v10.836l4.19 1.81-.31 2.601z" fill="#274684"/><path d="M93.354 118.546l-6.983-2.652v-8.771l2.793.918v5.941l4.19 1.351v3.213z" fill="#0E2951"/><path d="M93.356 124.537l-12-4.563v-14.712l2.793.918v11.907l9.207 3.238v3.212z" fill="#0E2951"/><path d="M31.103 132.773l-14.638-5.508v-17.439l14.638 5.482v17.465z" fill="#053866"/><path d="M26.111 130.886l-9.646-3.62v-11.474l9.646 3.621v11.473z" fill="#709FDC"/><path d="M74.19 65.462l-6.982 11.805-12.13-12.876 7.009-11.805L74.19 65.463z" fill="#0E2951"/><path d="M69.51 65.207l-3.57 6.017-6.18-6.552 3.569-6.043 6.18 6.578z" fill="#6780B3"/><path d="M74.267 148.937L55 141.722v-18.383l19.267 7.215v18.383z" fill="#3D95D1"/><path d="M74.267 148.937L55 141.722v-13.335l19.267 7.216v13.334z" fill="#6780B3"/><path d="M74.267 148.937L55 141.722v-8.286l19.267 7.241v8.26z" fill="#053866"/><path d="M74.267 148.938L55 141.722v-4.13l19.267 7.215v4.131zM35.732 71.071L55 78.287l-19.268 5.686L55 91.188 35.732 71.071z" fill="#0E2951"/><path d="M18.793 82.264l-2.328-.918V58.374l2.328.918v22.972zm3.724 1.377l-2.328-.918V59.751l2.328.918v22.972zm12.129 4.589l-2.328-.917V64.34l2.328.917V88.23zm-4.06-1.682l-2.793-.918V62.683l2.793.918v22.947zm-4.344-1.53l-2.328-.918V61.128l2.328.918v22.972z" fill="#709FDC"/><path d="M35.732 111.534l-19.267-7.241V81.346l19.267 7.216v22.972z" fill="#0E2951"/><path d="M35.732 111.534l-9.62-3.62V96.44l9.62 3.595v11.499zM26.111 96.44l-9.646-3.62V81.346l9.646 3.595v11.5z" fill="#3D95D1"/><path d="M47.346 129.892l-3.957-1.479v-4.539l6.931 2.601v7.955l-9.905-3.722v-11.372l12.854 4.819v14.864l-15.802-5.94v-18.842l15.802 5.915" stroke="#3D95D1" stroke-width="3" stroke-miterlimit="10"/><path d="M77.734 147.484l13.113-12.544m0 17.439l-13.113-22.36" stroke="#0E2951" stroke-width="6" stroke-miterlimit="10"/><path d="M61.931 106.639l-3.078-1.147v-3.672l3.078 1.148v3.671zm4.242 6.655l-3.077-1.173v-3.672l3.077 1.148v3.697zm4.241 6.628l-3.078-1.147v-3.671l3.078 1.147v3.671z" fill="#B9D5FD"/><path d="M93.64 63.983l77.483-28.836.026 91.915L93.613 156l.026-92.017z" fill="#053866"/><path d="M151.727 88.358l19.422-7.241v22.972l-19.422 7.216V88.358z" fill="#B9D5FD"/><path d="M132.328 95.573l19.397-7.215v22.947l-19.397 7.241V95.573z" fill="#274684"/><path d="M112.932 102.789l19.396-7.216v22.973l-19.396 7.215v-22.972z" fill="#053866"/><path d="M93.535 110.107l19.397-7.318v22.972l-19.397 7.318v-22.972zm38.793-37.506l19.397-7.215v22.972l-19.397 7.215V72.601z" fill="#B9D5FD"/><path d="M112.932 79.817l19.396-7.216v22.972l-19.396 7.216V79.817z" fill="#0E2951"/><path d="M93.535 87.134l19.397-7.317v22.972l-19.397 7.317V87.134z" fill="#709FDC"/><path d="M132.328 118.546l19.397-7.241v22.972l-19.397 7.241v-22.972z" fill="#0E2951"/><path d="M112.932 125.761l19.396-7.215v22.972l-19.396 7.215v-22.972z" fill="#709FDC"/><path d="M93.535 133.079l19.397-7.318v22.972L93.612 156l-.077-22.921zm58.192-90.665l19.396-7.267.026 22.998-19.422 7.24v-22.97z" fill="#6780B3"/><path d="M132.328 49.629l19.397-7.215v22.972L132.328 72.6V49.63z" fill="#053866"/><path d="M112.932 56.844l19.396-7.215V72.6l-19.396 7.216V56.844z" fill="#B9D5FD"/><path d="M93.639 63.983l19.293-7.139v22.973l-19.397 7.317.104-23.15z" fill="#3D95D1"/><path d="M93.353 130.504v-3.213l14.302-5.635V87.848l-13.63 5.074-.982-2.575 17.405-6.476v39.698l-17.095 6.935z" fill="#274684"/><path d="M110.451 104.242l-2.794.918V87.848l-14.301 5.43v-3.212l17.095-6.195v20.371z" fill="#0E2951"/><path d="M93.356 124.537v-3.212l9.646-3.901V94.63l-9.646 3.723V95.14l12.439-3.57v27.766l-12.44 5.201z" fill="#274684"/><path d="M93.353 118.546v-3.213l4.604-1.555v-10.836l-3.931 1.479-.983-2.575 7.707-2.881v16.725l-7.397 2.856z" fill="#274684"/><path d="M100.752 107.378l-2.793.918v-5.354l-4.603 1.836v-3.213l7.396-2.6v8.413z" fill="#0E2951"/><path d="M105.795 105.976l-2.793.918V94.63l-9.646 3.723V95.14l12.439-4.487v15.323z" fill="#0E2951"/><path d="M161.449 38.793l9.673-3.646.026 11.525-9.699 3.595V38.793z" fill="#FF8098"/><path d="M113.01 140.269l7.06-17.057 12.181 3.799-7.034 17.057-12.207-3.799z" fill="#0E2951"/><path d="M117.742 137.031l3.569-8.72 6.233 1.938-3.595 8.719-6.207-1.937z" fill="#6780B3"/><path d="M112.932 56.844l19.396-7.215v18.383l-19.396 7.215V56.844z" fill="#3D95D1"/><path d="M112.932 56.844l19.396-7.215v13.335l-19.396 7.215V56.844z" fill="#6780B3"/><path d="M112.932 56.844l19.396-7.215v8.26l-19.396 7.242v-8.287z" fill="#053866"/><path d="M112.932 56.844l19.396-7.215v4.13L112.932 61v-4.156zm38.793 48.979l-19.397 7.216 19.397-20.092-19.397 7.216" fill="#0E2951"/><path d="M171.174 104.319l-2.793.918V81.805l2.793-.918v23.432zm-3.672 1.198l-2.793.918V83.463l2.793-.918v22.972zm-11.639 4.334l-2.819.918-.052-22.998 2.793-.917.078 22.997zm3.88-1.453l-2.819.918V86.344l2.819-.918v22.972zm3.879-1.428l-2.819.918V84.916l2.819-.918v22.972z" fill="#709FDC"/><path d="M151.727 65.386l19.422-7.241v22.972l-19.422 7.241V65.386z" fill="#0E2951"/><path d="M151.727 111.305l19.422-7.216v22.972l-19.422 7.216v-22.972z" fill="#053866"/><path d="M151.727 65.386l9.724-3.62v11.473l-9.724 3.62V65.386z" fill="#3D95D1"/><path d="M154.39 133.257l-2.328.918c0-15.629 8.768-25.088 19.113-28.938v2.294c-9.337 3.468-16.785 15.171-16.785 25.726z" fill="#B9D5FD"/><path d="M159.537 131.422l-2.793.917c0-11.014 6.673-19.708 14.457-22.615v2.754c-6.802 2.524-11.664 10.861-11.664 18.944z" fill="#3D95D1"/><path d="M164.475 129.586l-2.612.918c0-6.884 3.957-13.514 9.259-15.502l.052 2.626c-4.138 1.555-6.699 6.986-6.699 11.958z" fill="#3376B3"/><path d="M168.848 127.75l-2.328.918c-.465-3.672 1.707-7.318 4.604-8.389l.051 2.882c-1.836.662-2.327 2.371-2.327 4.589z" fill="#709FDC"/><path d="M140.14 55.774l3.802-1.428v4.36l-6.673 2.498v-7.623l9.543-3.57v10.913l-12.414 4.64V51.286l15.285-5.685v18.102l-15.285 5.711" stroke="#3D95D1" stroke-width="5" stroke-miterlimit="10"/><path d="M109.44 60.898L96.25 83.284m0-17.465l13.19 12.544" stroke="#0E2951" stroke-width="6" stroke-miterlimit="10"/><path d="M125.346 89.888l3.103-1.148v3.672l-3.103 1.173v-3.697zm-4.268-3.442l3.104-1.173v3.671l-3.104 1.173v-3.671zm-4.267-3.468l3.103-1.173v3.697l-3.103 1.148v-3.672z" fill="#B9D5FD"/><path d="M156.406 40.68l14.716-5.533.026 17.49-14.742 5.482V40.68z" fill="#053866"/><path d="M160.363 39.175l10.759-4.028.026 12.774-10.785 4.028V39.176z" fill="#709FDC"/><path d="M161.449 73.239l9.699-3.595v11.473l-9.699 3.62V73.24z" fill="#3D95D1"/><path d="M139.494 46.442l31.629-11.295L93.821 6.412 63.07 17.937l76.423 28.505z" fill="#0D3760"/><path d="M133.286 49.272L93.303 64.085 16 35.402l40.035-14.864 77.251 28.734z" fill="#0D3659"/><path d="M135.768 3.2l-42 3.263-77.303 28.71 41.897-3.162L135.768 3.2z" fill="#043D60"/><path d="M171.174 35.172l-28.94-28.046L64.75 35.937l29.07 28.174 77.354-28.939z" fill="#03446B"/><path d="M93.6 98.8V64.087L171.2 35.2H224L216 53l8 17.8h-52.8l-77.6 28z" fill="#B4D1FA"/><path d="M113.179 80.88c1.261-.464 2.059-1.561 2.579-2.843l-.799-.265c-.348.946-1.044 1.776-1.856 2.075-1.56.575-2.863-.566-3.025-2.772-.164-2.22.907-4.22 2.467-4.795.812-.3 1.591.001 2.055.633l.708-.82c-.644-.838-1.579-1.311-2.84-.847-2.051.757-3.521 3.306-3.309 6.168.211 2.862 1.969 4.222 4.02 3.466zm7.094-2.613c2.105-.776 3.384-3.37 3.181-6.12-.203-2.75-1.787-4.29-3.892-3.514-2.116.78-3.385 3.37-3.182 6.12.203 2.75 1.777 4.293 3.893 3.514zm-.077-1.033c-1.603.59-2.737-.655-2.897-2.82-.161-2.178.736-4.157 2.339-4.748 1.592-.587 2.736.641 2.897 2.82.16 2.163-.746 4.16-2.339 4.748zm10.82-1.334l.887-.327-.203-2.75-.652.24-.611-8.28-.887.328.611 8.279-4.168 1.535-.611-8.279-.887.327.688 9.313 5.706-2.103.127 1.717zm5.278-3.537c1.261-.464 2.058-1.561 2.578-2.843l-.799-.264c-.347.945-1.043 1.775-1.855 2.074-1.56.575-2.863-.566-3.026-2.772-.163-2.22.907-4.22 2.467-4.795.813-.3 1.592.001 2.056.634l.708-.82c-.644-.839-1.579-1.312-2.84-.847-2.052.756-3.521 3.305-3.31 6.167.212 2.862 1.969 4.222 4.021 3.466zm8.502-3.304l-.076-1.033-3.783 1.393-.237-3.21 3.708-1.367-.076-1.033-3.708 1.366-.222-3.002 3.783-1.394-.076-1.033-4.67 1.72.687 9.313 4.67-1.72zm4.064-1.498l-.611-8.28 2.266-.834-.076-1.033-5.407 1.992.076 1.033 2.255-.83.61 8.28.887-.328zm4.3-1.584l3.608-8.96.548 7.429.887-.327-.687-9.313-.908.335-3.567 8.786-.537-7.274-.887.327.688 9.312.855-.315z" fill="#000"/><path d="M171.199 35.2h52.8l-8 18 8 18h-52.8v-36z" fill="#000" fill-opacity=".05"/><path fill-rule="evenodd" clip-rule="evenodd" d="M194.001 39.417a6.835 6.835 0 00-3.315.851.508.508 0 01-.492-.89 7.884 7.884 0 11-2.857 2.691.509.509 0 11.859.545 6.866 6.866 0 105.805-3.197z" fill="#000"/><path fill-rule="evenodd" clip-rule="evenodd" d="M206.401 63.377a6.804 6.804 0 00.904-3.295.51.51 0 011.02.01 7.82 7.82 0 01-1.038 3.784c-2.162 3.78-6.989 5.11-10.782 2.972a7.825 7.825 0 01-2.953-10.715c2.162-3.779 6.989-5.11 10.782-2.971a7.808 7.808 0 013.065 3.128.51.51 0 01-.901.479 6.797 6.797 0 00-2.669-2.724c-3.303-1.863-7.508-.704-9.391 2.588a6.815 6.815 0 002.572 9.332 6.919 6.919 0 009.391-2.588z" fill="#000"/><path fill-rule="evenodd" clip-rule="evenodd" d="M178.398 58.562a6.831 6.831 0 00.604 3.368.508.508 0 11-.924.425 7.893 7.893 0 017.751-11.154 7.873 7.873 0 017.28 8.437 7.894 7.894 0 01-8.446 7.287 7.837 7.837 0 01-4.112-1.524.508.508 0 01.606-.817 6.875 6.875 0 0010.937-5.02 6.857 6.857 0 00-6.34-7.348 6.875 6.875 0 00-7.356 6.346z" fill="#000"/><path d="M196.152 43.598v-1.615h-1.771c-.838 0-1.518.668-1.518 1.49v1.616h-1.011v1.49h1.011v4.72h1.518v-4.72h1.261l.257-1.49h-1.518v-1.242a.25.25 0 01.253-.249h1.518z" fill="#000"/><path fill-rule="evenodd" clip-rule="evenodd" d="M186.833 55.6a3.584 3.584 0 110 7.166h-2.865a3.583 3.583 0 010-7.166h2.865zm-2.236 2.903v1.76a.5.5 0 00.769.42l1.379-.879a.5.5 0 000-.843l-1.379-.88a.5.5 0 00-.769.422z" fill="#C43B55"/><rect x="180.387" y="55.6" width="10.032" height="7.167" rx="3" stroke="#000" stroke-width="1.2"/><path d="M184.598 60.262v-1.76a.5.5 0 01.769-.42l1.379.88a.5.5 0 010 .842l-1.379.88a.5.5 0 01-.769-.422z" stroke="#000" stroke-width=".8" stroke-linejoin="round"/><path fill-rule="evenodd" clip-rule="evenodd" d="M196.867 57.084v5.375l1.236 1.024h4.448l1.483-1.28V57.34l-1.236-1.024h-4.942l-.989.768zm2.224 3.584V58.62l1.483-.768 1.483 1.024v1.792l-1.483.768-1.483-.768z" fill="#C43B55"/><rect x="196.867" y="56.316" width="7.167" height="7.167" rx="3" stroke="#000" stroke-width="1.2"/><path d="M202.001 59.9a1.55 1.55 0 11-3.1 0 1.55 1.55 0 013.1 0z" stroke="#000" stroke-width="1.2"/><circle cx="202.601" cy="57.75" fill="#000" r=".358"/></svg>