<svg width="240" height="160" fill="none" xmlns="http://www.w3.org/2000/svg"><path d="M93.613 156.8l-77.148-28.859-.026-92.524 77.2 28.885-.026 92.498z" fill="#053866"/><path d="M170.967 127.71L93.742 98.723l.078-92.294 77.302 28.885-.155 92.396z" fill="#102E5B"/><path d="M93.613 156.8l77.51-29.192V35.314L93.639 64.302l-.026 92.498z" fill="#054270"/><path d="M16.465 127.941l77.303-29.423.052-92.089-77.38 28.988.025 92.524z" fill="#0A2D49"/><path d="M93.613 156.8l-77.148-28.885-.026-92.498 77.2 28.885-.026 92.498z" fill="#053866"/><path d="M35.733 65.916l-19.268-7.253-.026-23.246 19.294 7.407v23.092z" fill="#053866"/><path d="M21.587 57.74a12.85 12.85 0 01-5.121-.922l-.052-2.486c3.957 1.486 7.759 1.204 10.655-.77 3.492-2.383 5.69-6.279 5.69-11.994l2.328.922c0 6.46-1.94 10.124-6.052 12.944a13.793 13.793 0 01-7.448 2.306z" fill="#B9D5FD"/><path d="M55 73.17l-19.268-7.254V42.824L55 50.077V73.17z" fill="#0E2951"/><path d="M74.267 80.423L55 73.17V50.077l19.267 7.253v23.093z" fill="#709FDC"/><path d="M93.535 87.574l-19.267-7.151V57.33l19.37 6.972-.103 23.272z" fill="#6780B3"/><path d="M35.732 89.009l-19.267-7.253V58.663l19.267 7.253V89.01z" fill="#B9D5FD"/><path d="M55 96.262L35.732 89.01V65.916L55 73.17v23.092z" fill="#274684"/><path d="M74.267 103.515L55 96.262V73.17l19.267 7.253v23.092z" fill="#3D95D1"/><path d="M93.535 110.666l-19.267-7.15V80.423l19.267 7.15v23.093zM55 119.355l-19.268-7.253V89.009L55 96.262v23.093z" fill="#B9D5FD"/><path d="M74.267 126.608L55 119.355V96.262l19.267 7.253v23.093z" fill="#0E2951"/><path d="M93.535 133.759l-19.267-7.151v-23.093l19.267 7.151v23.093z" fill="#709FDC"/><path d="M35.732 135.194l-19.267-7.279v-23.092l19.267 7.278v23.093z" fill="#6780B3"/><path d="M55 142.447l-19.268-7.253v-23.093L55 119.354v23.093z" fill="#053866"/><path d="M74.267 149.7L55 142.447v-23.092l19.267 7.253V149.7z" fill="#B9D5FD"/><path d="M93.613 156.8l-19.345-7.099v-23.093l19.267 7.151.078 23.041zM20.396 52.948a9.976 9.976 0 01-3.931-.744v-2.768c2.767 1.051 6.18.692 7.888-.435 2.845-1.871 4.241-4.767 4.241-8.791l2.328.922c0 4.947-1.785 7.971-4.966 10.15a9.891 9.891 0 01-5.56 1.666z" fill="#3D95D1"/><path d="M19.025 47.617a6.215 6.215 0 01-2.56-.487v-2.77c1.655.616 4.19.462 5.586-.922 1.474-1.461 1.862-2.64 1.862-5.075l2.328.923c0 3.383-1.164 5.664-3.388 7.15a6.687 6.687 0 01-3.828 1.18z" fill="#3376B3"/><path d="M17.732 42.286a2.526 2.526 0 01-1.267-.231v-2.768c.414.154 1.784.256 2.328 0 .93-.461.93-1.384.465-2.768l2.793.922c0 1.923-.698 3.255-1.991 4.153-.692.45-1.5.69-2.328.692z" fill="#709FDC"/><path d="M93.044 130.529l-16.32-6.125V84.498l16.63 6.023v3.23l-13.836-5.255v33.986l13.37 4.997.156 3.05z" fill="#274684"/><path d="M93.354 131.17l-16.63-6.766v-20.35l2.794.922v17.505l13.836 5.46v3.229z" fill="#0E2951"/><path d="M93.045 124.532l-11.69-4.408V91.316l12 4.305v3.23l-9.206-3.537v23.374l9.207 3.255-.31 2.589z" fill="#274684"/><path d="M93.044 118.996l-6.673-2.512V99.671l6.983 2.409v3.229l-4.19-1.64v10.893l4.19 1.819-.31 2.615z" fill="#274684"/><path d="M93.354 119.15l-6.983-2.666v-8.816l2.793.922v5.972l4.19 1.358v3.23z" fill="#0E2951"/><path d="M93.356 125.173l-12-4.588v-14.788l2.793.922v11.969l9.207 3.255v3.23z" fill="#0E2951"/><path d="M31.103 133.451l-14.638-5.536v-17.531l14.638 5.511v17.556z" fill="#053866"/><path d="M26.111 131.555l-9.646-3.64v-11.533l9.646 3.639v11.534z" fill="#709FDC"/><path d="M74.19 65.788l-6.982 11.867-12.13-12.943 7.009-11.867L74.19 65.788z" fill="#0E2951"/><path d="M69.51 65.532l-3.57 6.049-6.18-6.587 3.569-6.075 6.18 6.613z" fill="#6780B3"/><path d="M74.267 149.7L55 142.447v-18.479l19.267 7.253V149.7z" fill="#3D95D1"/><path d="M74.267 149.701L55 142.447v-13.404l19.267 7.253v13.405z" fill="#6780B3"/><path d="M74.267 149.701L55 142.447v-8.329l19.267 7.278v8.305z" fill="#053866"/><path d="M74.267 149.701L55 142.447v-4.152l19.267 7.254v4.152zM35.732 71.427L55 78.68l-19.268 5.715L55 91.65 35.732 71.427z" fill="#0E2951"/><path d="M18.793 82.678l-2.328-.922V58.663l2.328.923v23.092zm3.724 1.385l-2.328-.923V60.047l2.328.923v23.093zm12.129 4.613l-2.328-.923V64.661l2.328.922v23.093zm-4.06-1.692l-2.793-.922V62.995l2.793.922v23.067zm-4.344-1.538l-2.328-.922V61.43l2.328.923v23.092z" fill="#709FDC"/><path d="M35.732 112.102l-19.267-7.279V81.756l19.267 7.253v23.093z" fill="#0E2951"/><path d="M35.732 112.101l-9.62-3.639V96.928l9.62 3.614v11.559zm-9.621-15.172l-9.646-3.64V81.756l9.646 3.614v11.559z" fill="#3D95D1"/><path d="M47.346 130.555l-3.957-1.487v-4.562l6.931 2.614v7.997l-9.905-3.742v-11.431l12.854 4.844v14.942l-15.802-5.971v-18.941l15.802 5.946" stroke="#3D95D1" stroke-width="3" stroke-miterlimit="10"/><path d="M77.734 148.24l13.113-12.61m0 17.53l-13.113-22.477" stroke="#0E2951" stroke-width="6" stroke-miterlimit="10"/><path d="M61.931 107.181l-3.078-1.154v-3.69l3.078 1.153v3.691zm4.242 6.689l-3.077-1.179V109l3.077 1.154v3.716zm4.241 6.664l-3.078-1.154v-3.691l3.078 1.154v3.691z" fill="#B9D5FD"/><path d="M93.64 64.302l77.483-28.988.026 92.396-77.536 29.09.026-92.498z" fill="#053866"/><path d="M151.727 88.804l19.422-7.279v23.093l-19.422 7.253V88.804z" fill="#B9D5FD"/><path d="M132.328 96.057l19.397-7.253v23.067l-19.397 7.279V96.057z" fill="#274684"/><path d="M112.932 103.311l19.396-7.254v23.093l-19.396 7.253v-23.092z" fill="#053866"/><path d="M93.535 110.666l19.397-7.355v23.092l-19.397 7.356v-23.093zm38.793-37.701l19.397-7.254v23.093l-19.397 7.253V72.965z" fill="#B9D5FD"/><path d="M112.932 80.218l19.396-7.254v23.093l-19.396 7.253V80.218z" fill="#0E2951"/><path d="M93.535 87.574l19.397-7.356v23.092l-19.397 7.356V87.574z" fill="#709FDC"/><path d="M132.328 119.15l19.397-7.279v23.092l-19.397 7.279V119.15z" fill="#0E2951"/><path d="M112.932 126.403l19.396-7.253v23.092l-19.396 7.253v-23.092z" fill="#709FDC"/><path d="M93.535 133.759l19.397-7.356v23.092l-19.32 7.305-.077-23.041zm58.192-91.14l19.396-7.305.026 23.119-19.422 7.279V42.618z" fill="#6780B3"/><path d="M132.328 49.872l19.397-7.253V65.71l-19.397 7.254V49.872z" fill="#053866"/><path d="M112.932 57.125l19.396-7.253v23.092l-19.396 7.254V57.125z" fill="#B9D5FD"/><path d="M93.639 64.302l19.293-7.177v23.093l-19.397 7.356.104-23.272z" fill="#3D95D1"/><path d="M93.353 131.17v-3.229l14.302-5.664V88.291l-13.63 5.1-.982-2.588 17.405-6.51V124.2l-17.095 6.971z" fill="#274684"/><path d="M110.451 104.771l-2.794.923V88.291l-14.301 5.46v-3.23l17.095-6.228v20.478z" fill="#0E2951"/><path d="M93.356 125.173v-3.23l9.646-3.921V95.109l-9.646 3.742v-3.23l12.439-3.588v27.911l-12.44 5.229z" fill="#274684"/><path d="M93.353 119.15v-3.23l4.604-1.563v-10.893l-3.931 1.487-.983-2.589 7.707-2.896v16.813l-7.397 2.871z" fill="#274684"/><path d="M100.752 107.924l-2.793.923v-5.383l-4.603 1.846v-3.23l7.396-2.614v8.458z" fill="#0E2951"/><path d="M105.795 106.514l-2.793.923V95.109l-9.646 3.742v-3.23l12.439-4.51v15.403z" fill="#0E2951"/><path d="M161.449 38.98l9.673-3.666.026 11.585-9.699 3.614V38.98z" fill="#FF8098"/><path d="M113.01 140.986l7.06-17.146 12.181 3.819-7.034 17.146-12.207-3.819z" fill="#0E2951"/><path d="M117.742 137.731l3.569-8.765 6.233 1.948-3.595 8.765-6.207-1.948z" fill="#6780B3"/><path d="M112.932 57.125l19.396-7.253V68.35l-19.396 7.253V57.125z" fill="#3D95D1"/><path d="M112.932 57.125l19.396-7.253v13.404l-19.396 7.254V57.125z" fill="#6780B3"/><path d="M112.932 57.125l19.396-7.253v8.304l-19.396 7.279v-8.33z" fill="#053866"/><path d="M112.932 57.125l19.396-7.253v4.152l-19.396 7.279v-4.178zm38.793 49.235l-19.397 7.254 19.397-20.197-19.397 7.253" fill="#0E2951"/><path d="M171.174 104.848l-2.793.923V82.217l2.793-.923v23.554zm-3.672 1.205l-2.793.923V83.883l2.793-.923v23.093zm-11.639 4.357l-2.819.922-.052-23.118 2.793-.922.078 23.118zm3.88-1.461l-2.819.923V86.779l2.819-.922v23.092zm3.879-1.435l-2.819.922V85.344l2.819-.923v23.093z" fill="#709FDC"/><path d="M151.727 65.711l19.422-7.278v23.092l-19.422 7.279V65.711z" fill="#0E2951"/><path d="M151.727 111.871l19.422-7.254v23.093l-19.422 7.253v-23.092z" fill="#053866"/><path d="M151.727 65.711l9.724-3.64v11.534l-9.724 3.64V65.71z" fill="#3D95D1"/><path d="M154.39 133.938l-2.328.923c0-15.711 8.768-25.22 19.113-29.09v2.306c-9.337 3.486-16.785 15.25-16.785 25.861z" fill="#B9D5FD"/><path d="M159.537 132.093l-2.793.923c0-11.073 6.673-19.812 14.457-22.734v2.768c-6.802 2.537-11.664 10.918-11.664 19.043z" fill="#3D95D1"/><path d="M164.475 130.247l-2.612.923c0-6.92 3.957-13.584 9.259-15.583l.052 2.64c-4.138 1.563-6.699 7.023-6.699 12.02z" fill="#3376B3"/><path d="M168.848 128.402l-2.328.923c-.465-3.691 1.707-7.356 4.604-8.433l.051 2.897c-1.836.666-2.327 2.383-2.327 4.613z" fill="#709FDC"/><path d="M140.14 56.049l3.802-1.435v4.382l-6.673 2.512v-7.663l9.543-3.588v10.97l-12.414 4.664V51.538l15.285-5.715V64.02l-15.285 5.741" stroke="#3D95D1" stroke-width="5" stroke-miterlimit="10"/><path d="M109.44 61.2L96.25 83.705m0-17.558l13.19 12.61" stroke="#0E2951" stroke-width="6" stroke-miterlimit="10"/><path d="M125.346 90.342l3.103-1.154v3.691l-3.103 1.179v-3.716zm-4.268-3.46l3.104-1.18v3.692l-3.104 1.178v-3.69zm-4.267-3.486l3.103-1.179v3.716l-3.103 1.154v-3.691z" fill="#B9D5FD"/><path d="M156.406 40.876l14.716-5.562.026 17.583-14.742 5.51v-17.53z" fill="#053866"/><path d="M160.363 39.364l10.759-4.05.026 12.841-10.785 4.05V39.364z" fill="#709FDC"/><path d="M161.449 73.605l9.699-3.614v11.534l-9.699 3.64v-11.56z" fill="#3D95D1"/><path d="M139.494 46.668l31.629-11.354L93.821 6.43 63.07 18.014l76.423 28.654z" fill="#0D3760"/><path d="M133.286 49.513L93.303 64.404 16 35.571l40.035-14.943 77.251 28.885z" fill="#0D3659"/><path d="M135.768 3.2l-42 3.28-77.303 28.86 41.897-3.178L135.768 3.2z" fill="#043D60"/><path d="M171.174 35.34l-28.94-28.193L64.75 36.109l29.07 28.32 77.354-29.09z" fill="#03446B"/><path d="M93.156 100.19v-35.7L171.2 35.426H224l-8 18.088 8 18.087h-52.8l-78.044 28.59z" fill="#B4D1FA"/><path d="M110.857 72.145c1.285-.47 1.962-1.747 1.859-3.219-.077-1.1-.769-1.877-1.528-1.755.63-.414 1.166-1.4 1.085-2.555-.097-1.376-.912-2.065-2.134-1.618l-3.128 1.145.644 9.174 3.202-1.171zm-.586-5.118l-2.107.77-.208-2.956 2.107-.77c.79-.29 1.258.216 1.316 1.041.059.84-.318 1.626-1.108 1.915zm.335 4.166l-2.148.786-.223-3.163 2.149-.786c.864-.316 1.358.265 1.417 1.104.069.976-.373 1.759-1.195 2.06zm7.414-1.498c2.075-.76 3.343-3.312 3.153-6.021-.19-2.71-1.745-4.23-3.82-3.47-2.085.763-3.343 3.311-3.153 6.02.19 2.71 1.734 4.233 3.82 3.47zm-.072-1.018c-1.58.578-2.693-.652-2.842-2.784-.151-2.145.739-4.093 2.319-4.671 1.569-.574 2.691.637 2.842 2.783.15 2.132-.749 4.098-2.319 4.672zm6.313-1.435l-.256-3.645 1.949-.713c1.39-.508 2.112-2.07 2.007-3.57-.105-1.499-.984-2.475-2.395-1.96l-2.823 1.034.644 9.174.874-.32zm1.516-5.337l-1.843.674-.246-3.493 1.844-.675c.832-.304 1.451.203 1.523 1.235.073 1.031-.446 1.954-1.278 2.259zm7.532 2.196c2.075-.759 3.344-3.31 3.154-6.02-.191-2.71-1.745-4.23-3.82-3.47-2.086.763-3.344 3.31-3.153 6.02.19 2.71 1.734 4.233 3.819 3.47zm-.071-1.018c-1.58.578-2.693-.651-2.843-2.783-.15-2.146.739-4.093 2.319-4.671 1.57-.575 2.692.637 2.843 2.783.149 2.132-.75 4.097-2.319 4.671zm11.295-3.257l-.644-9.174-.874.32.277 3.947-4.108 1.503-.277-3.947-.875.32.644 9.173.875-.32-.296-4.208 4.108-1.503.296 4.209.874-.32zm7.499-2.743l-3.519-3.65L151.135 48l-1.096.4-2.774 5.883-.333-4.745-.874.32.644 9.173.874-.32-.216-3.08.632-1.304 2.955 3.152 1.085-.397zm7.537-2.758l-3.477-8.137-1.085.397-2.179 10.206 1.001-.366.478-2.263 3.497-1.279.764 1.808 1.001-.366zm-2.1-2.363l-2.981 1.09 1.149-5.485 1.832 4.395zM117.058 87.12l-.644-9.175-5.856 2.143.644 9.174.874-.32-.572-8.156 4.107-1.503.573 8.156.874-.32zm3.044-1.114l-.256-3.645 1.948-.713c1.391-.508 2.113-2.07 2.008-3.57-.106-1.499-.984-2.475-2.396-1.959l-2.823 1.033.644 9.174.875-.32zm1.516-5.337l-1.844.674-.245-3.493 1.843-.675c.832-.304 1.451.203 1.524 1.235.072 1.031-.446 1.955-1.278 2.259zm7.532 2.196c2.075-.759 3.343-3.31 3.153-6.02-.19-2.71-1.744-4.23-3.82-3.47-2.085.763-3.343 3.31-3.153 6.02.19 2.71 1.734 4.233 3.82 3.47zm-.072-1.017c-1.58.578-2.692-.652-2.842-2.784-.151-2.145.739-4.093 2.319-4.671 1.569-.575 2.692.637 2.842 2.783.15 2.132-.749 4.097-2.319 4.671zm4.682.897l.875-.32-.119-1.692 5.235-1.915.119 1.692.874-.32-.19-2.71-.643.235-.572-8.156-4.298 1.572-.108 4.766c-.077 3.216-.518 3.857-1.356 4.234l.183 2.614zm2.042-7.082l.09-3.8 2.644-.966.501 7.138-4.066 1.487c.48-.697.788-1.854.831-3.859zm12.477.035l-3.477-8.137-1.085.396-2.179 10.207 1.001-.366.478-2.263 3.497-1.28.765 1.81 1-.367zm-2.1-2.364l-2.981 1.09 1.15-5.484 1.831 4.394zm3.988 1.673l2.375-5.1.466.478.245 3.493.874-.32-.245-3.493.377-.787 2.955 3.152 1.095-.401-3.53-3.647 2.633-5.435-1.095.401-2.531 5.355-.303-4.318-.874.32.303 4.318-3.126-3.286-1.095.4 3.234 3.29-2.843 5.977 1.085-.397z" fill="#000"/><path d="M171.199 35.44h52.8l-8 18.08 8 18.08h-52.8V35.44z" fill="#000" fill-opacity=".05"/><path d="M196.807 63.136c-3.174.68-5.668.284-6.518 0v2.55c3.174 1.815 5.668.757 6.518 0v-2.55zm-9.352-3.684l-2.834-4.818c6.802 2.494 15.398 1.133 18.421 0l-3.401 4.818c-5.441 1.587-10.391.661-12.186 0zm-8.221-12.469l2.551 3.967c4.761 2.72 17.287 1.984 22.672.85l3.968-5.384c-10.883 4.534-23.995 2.267-29.191.567z" fill="#C43B55"/><path fill-rule="evenodd" clip-rule="evenodd" d="M193.439 41.115c-.847 0-1.678.017-2.489.051a.558.558 0 11-.046-1.114 60.992 60.992 0 012.535-.052c4.428 0 8.456.471 11.394 1.243 1.465.385 2.69.853 3.563 1.395.843.523 1.514 1.218 1.514 2.1 0 .883-.671 1.578-1.514 2.101-.873.543-2.098 1.01-3.563 1.395-2.938.772-6.966 1.243-11.394 1.243-4.427 0-8.455-.47-11.393-1.243-1.465-.385-2.691-.852-3.563-1.395-.843-.523-1.514-1.218-1.514-2.1 0-.715.444-1.306 1.037-1.77.601-.47 1.442-.884 2.448-1.24 2.018-.717 4.827-1.253 8.053-1.526a.558.558 0 11.094 1.11c-3.172.27-5.877.793-7.773 1.466-.951.337-1.666.702-2.133 1.067-.475.372-.61.676-.61.893 0 .272.22.677.987 1.154.738.458 1.843.891 3.258 1.263 2.821.741 6.749 1.206 11.109 1.206 4.361 0 8.289-.465 11.11-1.206 1.415-.372 2.519-.805 3.257-1.263.768-.477.987-.882.987-1.154 0-.273-.219-.678-.987-1.155-.738-.458-1.842-.891-3.257-1.263-2.821-.741-6.749-1.206-11.11-1.206z" fill="#000"/><path fill-rule="evenodd" clip-rule="evenodd" d="M208.825 45.669a.557.557 0 01.154.773l-11.491 17.141v1.447c0 .85-.557 1.637-1.422 1.85-1.807.443-3.164.428-4.958-.004-.87-.21-1.437-1-1.437-1.857v-1.157L178.18 46.721a.558.558 0 01.928-.62l11.586 17.282a.56.56 0 01.094.31v1.326c0 .379.247.692.582.773 1.628.392 2.804.403 4.43.005a.775.775 0 00.571-.767v-1.616a.56.56 0 01.094-.31l11.586-17.282a.558.558 0 01.774-.153z" fill="#000"/><path fill-rule="evenodd" clip-rule="evenodd" d="M205.498 50.857a.556.556 0 01-.183.767c-1 .615-2.561 1.073-4.387 1.388-1.843.317-4.015.498-6.28.524-4.518.053-9.484-.506-12.998-1.867l.404-1.04c3.325 1.288 8.13 1.844 12.581 1.792 2.219-.026 4.33-.202 6.103-.508 1.79-.308 3.178-.738 3.992-1.238a.558.558 0 01.768.182zm-21.384 4.158a.559.559 0 01.706-.353c4.078 1.357 8.729 1.678 13.275.953a.559.559 0 11.176 1.1c-4.706.752-9.541.424-13.804-.995a.558.558 0 01-.353-.705zm18.79.011a.558.558 0 01-.368.698c-.704.217-1.416.41-2.133.575a.559.559 0 01-.252-1.086c.691-.16 1.377-.345 2.055-.554a.558.558 0 01.698.367zm-8.991 5.688c-2.346.018-4.86-.375-7.098-1.24l.403-1.04c2.09.808 4.461 1.182 6.686 1.165 2.232-.017 4.269-.427 5.705-1.143l.499.997c-1.635.816-3.855 1.243-6.195 1.26zm-2.393 3.435a8.807 8.807 0 01-2.087-.648l.472-1.01a7.703 7.703 0 001.821.562.558.558 0 11-.206 1.096zm6.075-.654c-1.263.63-2.82.88-4.312.839a.558.558 0 11.03-1.115c1.366.037 2.728-.195 3.783-.722l.499.998z" fill="#000"/></svg>