<svg width="240" height="160" fill="none" xmlns="http://www.w3.org/2000/svg"><path d="M93.615 160l-80.33-30.062-.027-96.379 80.384 30.088L93.615 160z" fill="#053866"/><path d="M174.161 129.698L93.75 99.503l.08-96.139 80.492 30.089-.161 96.245z" fill="#102E5B"/><path d="M93.615 160l80.707-30.409V33.452l-80.68 30.196L93.615 160z" fill="#054270"/><path d="M13.285 129.939l80.491-30.65.054-95.925L13.258 33.56l.027 96.379z" fill="#0A2D49"/><path d="M93.615 160l-80.33-30.089-.027-96.352 80.384 30.088L93.615 160z" fill="#053866"/><path d="M33.347 65.33l-20.062-7.556-.027-24.215 20.089 7.716v24.054z" fill="#053866"/><path d="M18.618 56.813c-1.825.046-3.64-.28-5.332-.961l-.054-2.59c4.12 1.549 8.08 1.255 11.095-.8 3.636-2.484 5.925-6.542 5.925-12.495l2.423.96c0 6.729-2.02 10.546-6.301 13.483a14.36 14.36 0 01-7.756 2.403z" fill="#B9D5FD"/><path d="M53.412 72.885L33.35 65.329V41.274l20.062 7.556v24.055z" fill="#0E2951"/><path d="M73.47 80.44l-20.062-7.555V48.83l20.063 7.556V80.44z" fill="#709FDC"/><path d="M93.533 87.89l-20.062-7.45V56.386l20.17 7.261-.108 24.242z" fill="#6780B3"/><path d="M33.347 89.385l-20.062-7.556V57.774l20.062 7.556v24.055z" fill="#B9D5FD"/><path d="M53.412 96.94L33.35 89.383V65.329l20.062 7.555V96.94z" fill="#274684"/><path d="M73.47 104.495L53.409 96.94V72.885l20.063 7.555v24.055z" fill="#3D95D1"/><path d="M93.533 111.944l-20.062-7.449V80.44l20.062 7.449v24.055zm-40.121 9.051L33.35 113.44V89.385l20.062 7.555v24.055z" fill="#B9D5FD"/><path d="M73.47 128.55l-20.062-7.555V96.94l20.063 7.556v24.054z" fill="#0E2951"/><path d="M93.533 135.999l-20.062-7.449v-24.055l20.062 7.449v24.055z" fill="#709FDC"/><path d="M33.347 137.494l-20.062-7.582v-24.055l20.062 7.582v24.055z" fill="#6780B3"/><path d="M53.412 145.05l-20.062-7.556v-24.055l20.062 7.556v24.055z" fill="#053866"/><path d="M73.47 152.605l-20.062-7.556v-24.054l20.063 7.555v24.055z" fill="#B9D5FD"/><path d="M93.614 160l-20.143-7.395V128.55l20.062 7.449.08 24.001zM17.378 51.82a10.383 10.383 0 01-4.093-.774v-2.883c2.882 1.094 6.436.72 8.214-.454 2.962-1.95 4.416-4.966 4.416-9.158l2.424.962c0 5.152-1.858 8.303-5.17 10.572a10.296 10.296 0 01-5.79 1.735z" fill="#3D95D1"/><path d="M15.951 46.267a6.468 6.468 0 01-2.666-.507v-2.883c1.724.64 4.363.48 5.817-.961 1.535-1.522 1.939-2.75 1.939-5.286l2.423.96c0 3.525-1.211 5.9-3.527 7.45a6.96 6.96 0 01-3.986 1.227z" fill="#3376B3"/><path d="M14.605 40.714a2.628 2.628 0 01-1.32-.24v-2.883c.431.16 1.858.267 2.424 0 .97-.48.97-1.442.485-2.884l2.908.962c0 2.002-.727 3.39-2.074 4.325a4.44 4.44 0 01-2.423.72z" fill="#709FDC"/><path d="M93.024 132.635l-16.993-6.381V84.685l17.316 6.275v3.363L78.94 88.85v35.402l13.922 5.206.162 3.177z" fill="#274684"/><path d="M93.347 133.302l-17.316-7.048v-21.198l2.909.961v18.235l14.407 5.686v3.364z" fill="#0E2951"/><path d="M93.024 126.387l-12.172-4.592V91.787l12.495 4.485v3.364l-9.587-3.684V120.3l9.587 3.391-.323 2.696z" fill="#274684"/><path d="M93.024 120.62l-6.948-2.616V100.49l7.271 2.51v3.364l-4.362-1.709v11.347l4.362 1.895-.323 2.723z" fill="#274684"/><path d="M93.347 120.782l-7.27-2.777v-9.184l2.907.961v6.221l4.363 1.415v3.364z" fill="#0E2951"/><path d="M93.347 127.055l-12.495-4.779v-15.404l2.908.961v12.468l9.587 3.39v3.364z" fill="#0E2951"/><path d="M28.527 135.678l-15.242-5.766V111.65l15.242 5.74v18.288z" fill="#053866"/><path d="M23.33 133.703l-10.045-3.791v-12.014l10.045 3.791v12.014z" fill="#709FDC"/><path d="M73.39 65.196l-7.27 12.361-12.63-13.482 7.298-12.361 12.603 13.482z" fill="#0E2951"/><path d="M68.52 64.93l-3.717 6.3-6.436-6.862 3.716-6.327 6.436 6.888z" fill="#6780B3"/><path d="M73.47 152.604l-20.062-7.555V125.8l20.063 7.555v19.249z" fill="#3D95D1"/><path d="M73.47 152.605l-20.062-7.556v-13.963l20.063 7.556v13.963z" fill="#6780B3"/><path d="M73.47 152.604l-20.062-7.555v-8.677l20.063 7.582v8.65z" fill="#053866"/><path d="M73.47 152.604l-20.062-7.555v-4.325l20.063 7.555v4.325zM33.35 71.07l20.062 7.555-20.062 5.954 20.062 7.555L33.35 71.07z" fill="#0E2951"/><path d="M15.709 82.79l-2.424-.96V57.773l2.424.962V82.79zm3.879 1.442l-2.424-.961V59.216l2.424.961v24.055zm12.631 4.805l-2.424-.961V64.02l2.424.961v24.055zm-4.231-1.762l-2.908-.961V62.286l2.908.96v24.029zm-4.523-1.602l-2.424-.96V60.657l2.424.96v24.055z" fill="#709FDC"/><path d="M33.347 113.439l-20.062-7.582V81.829l20.062 7.555v24.055z" fill="#0E2951"/><path d="M33.348 113.438l-10.018-3.791V97.633l10.018 3.764v12.041zM23.33 97.634l-10.045-3.791V81.829l10.045 3.764v12.041z" fill="#3D95D1"/><path d="M45.44 132.661l-4.12-1.548v-4.752l7.216 2.723v8.329l-10.314-3.897v-11.908l13.384 5.046v15.565l-16.454-6.221v-19.729l16.454 6.194" stroke="#3D95D1" stroke-width="3" stroke-miterlimit="10"/><path d="M77.082 151.082l13.653-13.135m0 18.261l-13.653-23.414" stroke="#0E2951" stroke-width="6" stroke-miterlimit="10"/><path d="M60.627 108.313l-3.205-1.202v-3.844l3.205 1.201v3.845zm4.417 6.968l-3.204-1.228v-3.844l3.204 1.201v3.871zm4.416 6.942l-3.204-1.202v-3.844l3.204 1.201v3.845z" fill="#B9D5FD"/><path d="M93.642 63.648l80.68-30.196.027 96.246L93.615 160l.027-96.352z" fill="#053866"/><path d="M154.125 89.17l20.224-7.582v24.055l-20.224 7.555V89.17z" fill="#B9D5FD"/><path d="M133.928 96.726l20.197-7.556v24.028l-20.197 7.582V96.726z" fill="#274684"/><path d="M113.732 104.282l20.197-7.556v24.055l-20.197 7.556v-24.055z" fill="#053866"/><path d="M93.535 111.944l20.197-7.662v24.054l-20.197 7.663v-24.055zm40.393-39.273l20.197-7.555V89.17l-20.197 7.555V72.671z" fill="#B9D5FD"/><path d="M113.732 80.227l20.197-7.555v24.055l-20.197 7.555V80.227z" fill="#0E2951"/><path d="M93.535 87.889l20.197-7.663v24.055l-20.197 7.662V87.889z" fill="#709FDC"/><path d="M133.928 120.781l20.197-7.582v24.055l-20.197 7.582v-24.055z" fill="#0E2951"/><path d="M113.732 128.336l20.197-7.555v24.055l-20.197 7.555v-24.055z" fill="#709FDC"/><path d="M93.535 135.998l20.197-7.662v24.055L93.616 160l-.08-24.002zm60.59-94.937l20.197-7.608.027 24.08-20.224 7.583V41.061z" fill="#6780B3"/><path d="M133.928 48.616l20.197-7.555v24.054l-20.197 7.556V48.616z" fill="#053866"/><path d="M113.732 56.172l20.197-7.555V72.67l-20.197 7.556V56.172z" fill="#B9D5FD"/><path d="M93.643 63.647l20.089-7.475v24.055l-20.197 7.662.108-24.242z" fill="#3D95D1"/><path d="M93.347 133.303v-3.364l14.891-5.9V88.637L94.047 93.95l-1.024-2.696 18.124-6.782v41.569l-17.8 7.262z" fill="#274684"/><path d="M111.148 105.804l-2.908.961V88.637l-14.892 5.687V90.96l17.8-6.487v21.331z" fill="#0E2951"/><path d="M93.348 127.055v-3.364l10.044-4.085V95.738l-10.044 3.898v-3.364l12.953-3.737v29.074l-12.953 5.446z" fill="#274684"/><path d="M93.347 120.781v-3.364l4.793-1.628v-11.347l-4.093 1.549-1.024-2.697 8.025-3.017v17.514l-7.701 2.99z" fill="#274684"/><path d="M101.049 109.088l-2.908.961v-5.607l-4.793 1.922v-3.363l7.701-2.724v8.811z" fill="#0E2951"/><path d="M106.301 107.619l-2.909.961V95.739l-10.044 3.897v-3.364l12.953-4.698v16.045z" fill="#0E2951"/><path d="M164.25 37.27l10.072-3.818.026 12.068-10.098 3.764V37.27z" fill="#FF8098"/><path d="M113.812 143.527l7.352-17.861 12.684 3.978-7.325 17.861-12.711-3.978z" fill="#0E2951"/><path d="M118.742 140.137l3.716-9.131 6.49 2.029-3.743 9.131-6.463-2.029z" fill="#6780B3"/><path d="M113.732 56.172l20.197-7.555v19.249l-20.197 7.555V56.172z" fill="#3D95D1"/><path d="M113.732 56.172l20.197-7.555V62.58l-20.197 7.555V56.172z" fill="#6780B3"/><path d="M113.732 56.172l20.197-7.555v8.65l-20.197 7.582v-8.677z" fill="#053866"/><path d="M113.732 56.172l20.197-7.555v4.325l-20.197 7.582v-4.352zm40.393 51.287l-20.197 7.555 20.197-21.038-20.197 7.556" fill="#0E2951"/><path d="M174.377 105.884l-2.908.961V82.31l2.908-.962v24.536zm-3.824 1.255l-2.908.961V84.045l2.908-.961v24.055zm-12.119 4.537l-2.935.962-.054-24.082 2.909-.96.08 24.08zm4.038-1.521l-2.935.962V87.062l2.935-.961v24.054zm4.041-1.495l-2.935.961V85.567l2.935-.961v24.054z" fill="#709FDC"/><path d="M154.125 65.116l20.224-7.582V81.59l-20.224 7.582V65.116z" fill="#0E2951"/><path d="M154.125 113.198l20.224-7.556v24.055l-20.224 7.555v-24.054z" fill="#053866"/><path d="M154.125 65.116l10.125-3.791v12.014l-10.125 3.79V65.117z" fill="#3D95D1"/><path d="M156.9 136.185l-2.423.961c0-16.365 9.129-26.27 19.9-30.302v2.403c-9.721 3.631-17.477 15.885-17.477 26.938z" fill="#B9D5FD"/><path d="M162.26 134.264l-2.908.961c0-11.534 6.947-20.638 15.053-23.681v2.883c-7.082 2.643-12.145 11.373-12.145 19.837z" fill="#3D95D1"/><path d="M167.401 132.342l-2.719.961c0-7.209 4.12-14.15 9.64-16.233l.054 2.75c-4.309 1.629-6.975 7.316-6.975 12.522z" fill="#3376B3"/><path d="M171.954 130.419l-2.424.961c-.484-3.844 1.778-7.662 4.794-8.784l.054 3.017c-1.912.694-2.424 2.483-2.424 4.806z" fill="#709FDC"/><path d="M142.06 55.051l3.959-1.495v4.565l-6.948 2.617v-7.983l9.937-3.738v11.427l-12.926 4.859v-14.95l15.915-5.954v18.955l-15.915 5.98" stroke="#3D95D1" stroke-width="5" stroke-miterlimit="10"/><path d="M110.095 60.418l-13.734 23.44m0-18.288l13.734 13.135" stroke="#0E2951" stroke-width="6" stroke-miterlimit="10"/><path d="M126.658 90.772l3.232-1.201v3.844l-3.232 1.228v-3.87zm-4.443-3.604l3.231-1.228v3.845l-3.231 1.228v-3.845zm-4.444-3.63l3.232-1.229v3.872l-3.232 1.201v-3.844z" fill="#B9D5FD"/><path d="M159 39.246l15.323-5.794.027 18.315-15.35 5.74V39.246z" fill="#053866"/><path d="M163.121 37.67l11.203-4.218.027 13.376-11.23 4.218V37.671z" fill="#709FDC"/><path d="M164.25 73.34l10.098-3.765v12.014L164.25 85.38V73.34z" fill="#3D95D1"/><path d="M141.388 45.28l32.935-11.827L93.831 3.364 61.812 15.432l79.576 29.848z" fill="#0D3760"/><path d="M134.925 48.242L93.292 63.754 12.801 33.719l41.686-15.565 80.438 30.088z" fill="#0D3659"/><path d="M137.51 0L93.777 3.417 13.285 33.48l43.626-3.31L137.51 0z" fill="#043D60"/><path d="M174.376 33.48L144.243 4.111 63.563 34.28 93.83 63.781l80.545-30.302z" fill="#03446B"/><path d="M93.195 100.157V64.092l81.208-30.577H227.2l-8.121 18.273L227.2 70.06h-52.797l-81.208 30.096z" fill="#B4D1FA"/><path d="M116.456 69.493c1.442-.511 2.208-1.932 2.101-3.579-.081-1.231-.852-2.107-1.702-1.979.708-.456 1.314-1.552 1.229-2.845-.1-1.54-1.01-2.319-2.382-1.833l-3.512 1.245.671 10.265 3.595-1.274zm-.629-5.73l-2.365.839-.216-3.309 2.365-.838c.887-.314 1.408.257 1.468 1.18.062.939-.365 1.814-1.252 2.129zm.353 4.663l-2.412.855-.232-3.54 2.413-.855c.969-.344 1.52.311 1.582 1.25.071 1.093-.429 1.963-1.351 2.29zm5.655-.839l4.065-9.819.535 8.188.981-.348-.671-10.265-1.005.356-4.016 9.628-.525-8.018-.981.348.671 10.265.946-.335zm7.597-.757l.982-.347-.124-1.893 5.877-2.083.124 1.893.981-.348-.198-3.032-.721.256-.597-9.127-4.824 1.71-.148 5.328c-.104 3.595-.602 4.307-1.543 4.72l.191 2.924zm2.328-7.895l.121-4.247 2.968-1.052.522 7.987-4.564 1.618c.542-.774.893-2.064.953-4.306zm12.397.74l-.074-1.139-4.187 1.484-.231-3.54 4.103-1.454-.074-1.14-4.103 1.455-.217-3.309 4.186-1.484-.074-1.139-5.168 1.832.671 10.266 5.168-1.832zm5.763-1.854c2.33-.826 3.765-3.665 3.567-6.697-.198-3.032-1.931-4.748-4.261-3.922-2.341.83-3.765 3.665-3.567 6.697.198 3.032 1.92 4.752 4.261 3.922zm-.074-1.139c-1.774.629-3.014-.758-3.17-3.144-.157-2.4.851-4.569 2.624-5.197 1.762-.625 3.013.743 3.17 3.144.156 2.385-.862 4.573-2.624 5.197zm8.161-5.207l-.067-1.016-2.838 1.006.067 1.016 2.838-1.006zm-49.323 40.019l-.671-10.265-1.407.499-1.955 8.597-2.952-6.858-1.408.499.671 10.265.982-.348-.552-8.45 3.224 7.503.403-.143 2.132-9.4.552 8.449.981-.348zm9.184-3.254l-3.852-9.139-1.218.432-2.498 11.389 1.123-.399.549-2.525 3.926-1.391.846 2.03 1.124-.398zm-2.34-2.667l-3.347 1.186 1.318-6.12 2.029 4.934zm4.944 1.743l-.267-4.078 2.188-.776c1.561-.553 2.379-2.292 2.269-3.97-.11-1.677-1.089-2.778-2.674-2.217l-3.169 1.124.671 10.265.982-.348zm1.728-5.95l-2.069.733-.256-3.91 2.07-.733c.934-.33 1.625.243 1.7 1.397.075 1.155-.511 2.181-1.445 2.512zm10.805 1.508l-3.923-4.121 2.969-6.044-1.23.436-3.142 6.546-.347-5.31-.981.348.671 10.266.981-.348-.225-3.448.716-1.45 3.293 3.556 1.218-.431zm6.878-2.438l-.075-1.139-4.186 1.484-.231-3.54 4.103-1.454-.074-1.14-4.104 1.455-.216-3.309 4.186-1.483-.074-1.14-5.168 1.832.671 10.266 5.168-1.832zm5.089-1.804l-.597-9.126 2.507-.889-.074-1.139-5.984 2.121.074 1.14 2.496-.885.596 9.126.982-.348zm5.348-1.895l4.065-9.819.535 8.188.982-.348-.671-10.265-1.005.356-4.017 9.628-.524-8.018-.982.348.671 10.265.946-.335zm14.593-5.173l-.671-10.265-.982.348.289 4.417-4.612 1.635-.289-4.417-.981.348.671 10.265.981-.348-.307-4.71 4.611-1.634.308 4.71.982-.349zm3.416-1.21l-.596-9.127 4.186-1.484-.075-1.139-5.167 1.832.671 10.265.981-.347z" fill="#000"/><path d="M227.201 33.44h-52.797v36.625h52.797l-8-18.313 8-18.312z" fill="#000" fill-opacity=".05"/><path d="M205.998 59.421v-4.45l4.153-1.908v8.266l-4.153-1.908z" fill="#A62E41"/><ellipse cx="198.653" cy="45.433" rx="5.43" ry="5.404" fill="#A62E41"/><path fill-rule="evenodd" clip-rule="evenodd" d="M194.158 45.37c0-2.533 2.063-4.591 4.616-4.591 1.346 0 2.556.572 3.4 1.486a.75.75 0 001.102-1.018 6.112 6.112 0 00-4.502-1.968 6.112 6.112 0 00-5.998 4.893 4.505 4.505 0 00-3.43-1.577c-2.485 0-4.505 2.005-4.505 4.487 0 1.184.459 2.26 1.209 3.06H185a2.75 2.75 0 00-2.75 2.75v5.55a.75.75 0 001.5 0v-5.55c0-.69.56-1.25 1.25-1.25h18.621c.691 0 1.25.56 1.25 1.25v8.533c0 .69-.559 1.25-1.25 1.25H185c-.69 0-1.25-.56-1.25-1.25v-.903a.75.75 0 00-1.5 0v.903a2.75 2.75 0 002.75 2.75h18.621a2.75 2.75 0 002.75-2.75V60.34l2.568 1.267a1.75 1.75 0 002.524-1.57v-5.804a1.75 1.75 0 00-2.524-1.569l-2.568 1.267v-1.039a2.75 2.75 0 00-2.75-2.75h-1.048a6.07 6.07 0 002.317-4.773.75.75 0 00-1.5 0c0 2.532-2.063 4.59-4.616 4.59-2.553 0-4.616-2.058-4.616-4.59zm.817 4.772a6.116 6.116 0 01-1.387-1.543 4.497 4.497 0 01-.946 1.543h2.333zm-5.629-6.047a2.996 2.996 0 00-3.005 2.987 2.996 2.996 0 003.005 2.988 2.997 2.997 0 003.006-2.988 2.997 2.997 0 00-3.006-2.987zm20.617 10.138a.25.25 0 00-.361-.224l-2.92 1.442a.25.25 0 00-.14.224v2.92a.25.25 0 00.14.225l2.92 1.442a.25.25 0 00.361-.224v-5.805zm-24.011 6.737a.75.75 0 100 1.5h1.967a.75.75 0 000-1.5h-1.967zm4.917 0a.75.75 0 000 1.5h1.967a.75.75 0 100-1.5h-1.967zm4.918 0a.75.75 0 000 1.5h1.967a.75.75 0 000-1.5h-1.967zm4.918 0a.75.75 0 100 1.5h1.967a.75.75 0 000-1.5h-1.967z" fill="#000"/><ellipse cx="189.39" cy="47.023" rx="3.194" ry="3.179" fill="#A62E41"/></svg>