<svg version="1.1" id="Слой_1" xmlns="http://www.w3.org/2000/svg" x="0" y="0" viewBox="0 0 600 250" xml:space="preserve"><style>.st0{fill:#882f40}.st1{fill:#9a384b}.st2{fill:#944d5d}.st3{fill:#904a5a}.st4{fill:#793e4b}.st5{fill:#40689d}.st11{fill:#8b4857}.st12{fill:#994f60}.st13{fill:#9c4354}.st15{fill:#b4d1fa;stroke:#000;stroke-width:.2}</style><path class="st0" d="M407.7 182.2l-11.7-6.3h.1l11.6 6.3zm.2 0l-11.7-6.3h.5c.1 0 .2-.1.5-.1l11.7 6.3c-.1.1-.2.1-.5.1h-.5z"/><path class="st0" d="M408.9 182.1l-11.7-6.3.4-.1 11.7 6.3-.4.1zm.3-.1l-11.7-6.3 11.7 6.3"/><path class="st0" d="M407.7 183.3l-14.2-8.4c2.1.9 4 1.7 4.8-.6l14.4 6.2-5 2.8z"/><path class="st0" d="M409.5 181.6l-11.7-6.5h.1l11.8 6.3v.1"/><path class="st0" d="M409.8 181.5l-11.8-6.3v-.2l11.8 6.3v.2zm0-.1l-11.7-6.3c0-.1.1 0 .1-.1l11.7 6.2c-.1-.1-.1.1-.1.2m.1-.4l-11.7-6.3c.1-.2.1-.5.1-.7l11.7 6.3v.7"/><path class="st0" d="M412.2 182.7l-13.9-8.8.1-54.9 11.7 6.3 2.1 57.4z"/><path class="st1" d="M363.2 208.7l-10.1-7.4c.5 0 3.9-1.3 4.4-1.6l18.7 2.8c-.5.2-9 8.4-9.6 8.4"/><path class="st1" d="M366.3 207.3l-11.7-6.3c.2-.1.6-.2.9-.5l11.7 6.3c-.3.2-.5.5-.9.5"/><path class="st1" d="M367.2 206.8l-11.7-6.3.6-.5 11.7 6.3-.6.5z"/><path class="st1" d="M367.8 206.3l-11.7-6.3.5-.5 11.7 6.3-.5.5z"/><path class="st1" d="M368.3 205.8l-11.7-6.3.5-.6 11.7 6.3-.5.6zm.5-.6l-11.7-6.3.4-.6 11.7 6.3-.4.6zm.5-.6l-11.7-6.3c.1-.2.2-.6.4-.9l11.7 6.3c-.2.3-.3.5-.4.9z"/><path class="st1" d="M366 212.4l-9.5-12.9c.2-.7 2.1-1.1 1.8-6.7l11.6 8.7c.1.7-3.6 10.3-3.9 10.9z"/><path class="st0" d="M410.1 125.5l-11.7-6.3c0-.2 0-.5-.2-.7-.1-.2-.4-.5-.6-.6l11.7 6.3c.2.1.4.4.6.6.1.1.2.4.2.7z"/><path class="st2" d="M377.4 181.6l-11.7-6.3 2 .7 11.7 6.3-2-.7z"/><path class="st0" d="M381.7 172l-11.7-6.3 26.1 10.2 11.7 6.3-26.1-10.2z"/><path class="st3" d="M381.5 171.9l-11.7-6.3 11.7 6.3z"/><path class="st2" d="M381.6 171.9l-11.7-6.3 11.7 6.3z"/><path class="st3" d="M376.5 181.1l-11.7-6.3.4.1 11.7 6.3-.4-.1z"/><path class="st2" d="M376.8 181.4l-11.7-6.3.7.4 11.7 6.3-.7-.4z"/><path class="st1" d="M401 121.2l-9-12c.5-.4 2.2-1.6 3.4-1.6l12.9 7.3c-.6.5-6.8 6-7.3 6.3z"/><path class="st1" d="M405.4 114.8l-11.7-6.5c1-.5 2.1-.7 3.3-.9 1.2-.2 2.6-.1 3.8.2l11.7 6.3c-1.2-.4-2 1.1-3.2 1.2-1.2.3-2.9-.8-3.9-.3"/><path class="st1" d="M412.3 114.1l-11.7-6.3c.6.1 1.2.4 1.7.6l11.7 6.3c-.4-.3-1.1-.5-1.7-.6z"/><path class="st4" d="M376.5 181.1l-11.7-6.3c-1.6-1-2.9-2.3-3.9-3.9-.9-1.6-1.3-3.5-1.2-5.4l11.8 6.3c-.1 1.8.4 3.8 1.2 5.4s2.2 3.1 3.8 3.9"/><path class="st5" d="M351.6 195.1l-11.7-6.3c.5-.1 1.1-.1 1.6 0l12.3 6.8c-.6-.2-1.9-.5-2.2-.5"/><path class="st5" d="M353 195.4l-11.7-6.6c.2.1.5.1.7.2l12.1 6.7c-.1.2-.8-.3-1.1-.3z"/><path class="st1" d="M379.5 132l-11.7-6.3 24.2-16.3 14.6 7.4-27.1 15.2z"/><path d="M371.3 171.9l-11.7-6.3v-27.1l11.7 6.3v27.1z" fill="#773d4a"/><path d="M377.6 133.3l-11.7-6.3 2-1.3 11.7 6.3-2 1.3z" fill="#9f5263"/><path class="st4" d="M371.5 144.8l-11.7-6.3c0-1.6.2-3.2.9-4.6l11.7 6.3c-.7 1.4-.9 3-.9 4.6z"/><path d="M372.3 140.2l-11.7-6.3c.2-.6.5-1.2.9-1.8l11.7 6.3c-.4.5-.6 1.1-.9 1.8z" fill="#7d414e"/><path d="M373 138.3l-11.7-6.3c.2-.5.6-1 .9-1.5l11.7 6.3c-.2.6-.5 1-.9 1.5z" fill="#824351"/><path d="M374 136.9l-11.7-6.3c.4-.4.6-.9 1-1.2l11.7 6.3c-.4.3-.7.8-1 1.2z" fill="#874654"/><path class="st11" d="M375 135.6l-11.7-6.3 1.1-1.1 11.7 6.3c-.4.4-.9.8-1.1 1.1z"/><path class="st3" d="M376.1 134.5l-11.7-6.3c.4-.4.9-.7 1.3-1.1l11.7 6.3c-.4.4-.9.8-1.3 1.1z"/><path class="st2" d="M377.4 133.4l-11.7-6.3h.1l11.7 6.3h-.1z"/><path class="st1" d="M372.8 203.6l-14.5-8.5.1-85.5 11.7 6.3 2.7 87.7z"/><path class="st1" d="M370.1 116l-11.7-6.3c0-.9-.1-1.7-.6-2.4-.4-.7-1-1.3-1.8-1.8l12.2 5.1c.7.5 1.5 1.7 1.8 2.4.4.7.2 2.1.1 3z"/><path class="st3" d="M296.1 111.5l-11.7-6.3 1.3.7 11.7 6.3c-.5-.2-1-.5-1.3-.7z"/><path class="st2" d="M297.4 112.2l-11.7-6.3c2.3 1.2 4.9 2.1 7.3 2.7l11.7 6.3c-2.4-.6-4.8-1.5-7.3-2.7z"/><path class="st12" d="M304.9 114.9l-11.7-6.3c5.2 1.3 10.9 1.6 16.2.9 4.8-.7 9.4-2.1 13.8-4.1l11.7 6.3c-4.4 2.1-9 3.4-13.8 4.1-5.5.8-11 .6-16.2-.9z"/><path class="st1" d="M206.7 229.9l-11.7-6.3 158.2-22.2 11.7 6.5-158.2 22zm-2.7-.4l-11.7-6.3h.1l11.7 6.5-.1-.2m.1 0l-11.7-6.3c.2.1.5.2.9.4l11.7 6.3c-.3-.2-.5-.2-.9-.4z"/><path class="st1" d="M204.9 229.8l-11.6-6.3c.6.1 1.2.1 1.7 0l13.5 7.2c-.6.1-4.3.1-4.8 0m-11.4-18l-11.8-6.2c0-.7.1-1.7.4-2.4l14.3 4.6c-.4.7-3.1 3.2-2.9 4"/><path class="st1" d="M192.6 210.4l-11.7-6.3c.1-.4.2-.6.4-.9l11.7 6.3c-.1.3-.3.6-.4.9z"/><path class="st1" d="M193 209.6l-12.2-5.4.9-1.7 11.7 6.3-.4.8z"/><path class="st1" d="M193.1 209.4l-11.5-7c.1-.1.6-1 1.5-1.6l11.5 6.7c-.1.2-1.4 1.8-1.5 1.9z"/><path class="st1" d="M193.8 208.3l-11.7-6.5.5-.5 11.7 6.3c0 .1-.5.7-.5.7z"/><path class="st1" d="M194.3 207.9l-11.7-6.3.5-.5 11.7 6.5-.5.3z"/><path class="st1" d="M193.8 209.2l-10.7-8.3.7-.4 11.7 6.5-1.7 2.2z"/><path class="st1" d="M195.4 207.3l-11.8-6.6c.2-.1 1.2-.4 1.5-.4l11.3 6.3c-.1.2-.7.5-1 .7zm-.8 33.6l-11.7-6.3c-.7-.5-1.3-1.1-1.8-1.8-.4-.7-.6-2.3-.6-3.2l11.7 7.1c0 .9.1 1.7.6 2.4.4.7 1 1.3 1.8 1.8z"/><path class="st1" d="M196.4 206.8l-11.6-6.5c.7-.1 1.3-.1 2.1 0l11.6 6.5c-.7-.1-1.3-.1-2-.1"/><path class="st1" d="M198.5 206.8l-11.6-6.5c.2.1.7.2 1 .4l11.6 6.3c-.4-.1-.8-.2-1-.2z"/><path class="st1" d="M199.3 207l-11.7-6.3h.1l11.7 6.5-.1-.2m-7.2 30l-11.7-6.8v-23.9l11.7 6.3V237zm2.4-38.5l-11.7-6.3c-.7-.4-1.2-1-1.7-1.6-.4-.7-.5-2.1-.5-2.8l14.5-1.5c0 .7-.4 9.5 0 10.1.5.6-1.4 1.7-.6 2.1"/><path class="st1" d="M192.3 194.6l-11.7-6.3.1-63.8 12.6 6.1-1 64z"/><path class="st3" d="M228.7 124.1l-11.7-6.4c.4.1.6.4 1 .5l11.7 6.3c-.4-.2-.7-.3-1-.4z"/><path class="st2" d="M229.7 124.5l-11.7-6.3c1.7.9 3.5 1.6 5.4 2l11.7 6.3c-1.9-.5-3.7-1.1-5.4-2z"/><path class="st12" d="M235.1 126.5l-11.7-6.3c3.9 1 7.9 1.2 11.8.6 3.4-.5 6.8-1.6 10-3l11.7 6.3c-3.2 1.5-6.6 2.6-10 3-3.9.6-7.9.4-11.8-.6z"/><path class="st2" d="M257 124.2l-11.8-6.5c2-.9 3.8-2 5.5-3.2l11.7 6.3c-1.6 1.3-3.5 2.4-5.4 3.4z"/><path class="st3" d="M262.5 121l-11.7-6.3c1.5-1 2.8-2.1 4.1-3.3l11.7 6.3c-1.3 1.1-2.6 2.2-4.1 3.3z"/><path class="st11" d="M266.7 117.7l-11.7-6.3c1.1-1 2.2-2.1 3.3-3.3l11.7 6.3-3.3 3.3z"/><path class="st1" d="M197.5 124.5l-11.7-6.3 26.6-3.8 11.7 6.3-26.6 3.8zm-5.1 6.3l-11.7-6.3c0-.7.1-1.5.4-2.2l11.7 6.3c-.3.7-.4 1.4-.4 2.2z"/><path class="st1" d="M192.7 128.6l-11.7-6.4c.1-.2.2-.6.4-.9l11.7 6.3c-.1.5-.2.7-.4 1z"/><path class="st1" d="M189.9 144.2l-8.5-22.8c.2-.9 2.1-2.3 2.2-2.4l9.9 8.2c0 .1-3.4 16.7-3.6 17z"/><path class="st1" d="M193.6 127.1l-11.7-6.3c.1-.2.2-.4.5-.6l11.7 6.3c-.3.1-.4.4-.5.6z"/><path class="st1" d="M194.1 126.5l-11.8-6.3.5-.5 11.7 6.3-.4.5zm.5-.5l-11.7-6.3c.2-.2.4-.4.6-.5l11.7 6.3c-.3.1-.5.3-.6.5z"/><path class="st1" d="M192.6 129.9l-9.1-10.9c.2-.2.5-.4.9-.5l14.4 5.9c-.2.1-1 1.6-1.2 1.8"/><path class="st1" d="M195.9 125l-11.6-6.5c.5-.2 2-.5 3.2-.6l10.1 6.5c-.6.3-1.1.4-1.7.6"/><path class="st13" d="M228.7 124.1l-11.7-6.4c-1.7-1-3.2-2-4.6-3.2-3.7-3.2-6.6-7.2-8.5-11.6-2-4.5-2.9-9.3-2.7-14.2 0-5 .9-9.9 2.6-14.5l17.4 4.3c-1.7 4.6-8.3 11.7-8.3 16.6-.1 4.9.7 9.6 2.7 14.2 2 4.4 4.9 8.4 8.5 11.6 1.3 1.1 2.9 2.2 4.6 3.2"/><path d="M376.5 99.9c-.6-.2-1.3-.2-2-.1l-27.3 3.8c-7.3 6.6-16.5 10.9-26.1 12.3-9 1.3-18.3-.4-26.1-5l-25 3.4c-5.9 6.8-14 11.5-22.9 12.8-4 .6-8.2.4-12.2-.7-3.9-1.1-7.7-3-10.7-5.6l-26.6 3.8c-1.5.2-2.8 1.1-3.7 2.2-1 1.1-1.5 2.6-1.5 4v63.8c0 .6.1 1.3.4 2 .2.6.6 1.1 1.1 1.6.5.4 1.1.7 1.7.9.6.2 1.3.1 2 0 1.2-.4 2.3-1.2 3.2-2.3.7-1.1 1.2-2.4 1.1-3.8v-53.2c0-1.5.5-2.9 1.5-4s2.2-2 3.7-2.2L365 111.2c.6-.1 1.3 0 2 .1.6.2 1.2.5 1.7 1s.9 1 1.1 1.7c.2.6.4 1.3.2 2l-.1 85.5c0 1.5-.5 2.9-1.5 4s-2.2 2-3.7 2.2l-158 22.2c-.6.1-1.3 0-2-.1-.6-.2-1.2-.5-1.7-1s-.9-1-1.1-1.7c-.2-.6-.4-1.3-.2-2V211c0-.6-.1-1.3-.4-2-.2-.6-.6-1.1-1.1-1.6s-1.1-.7-1.7-.9c-.6-.1-1.3-.1-2 0-1.2.4-2.3 1.2-3.2 2.3-.7 1.1-1.2 2.4-1.1 3.8v23.9c0 .7 0 1.3.2 2s.6 1.2 1.1 1.7 1.1.9 1.7 1c.6.2 1.3.2 2 .1l177.3-24.9c1.5-.2 2.8-1.1 3.7-2.2 1-1.1 1.5-2.6 1.5-4v-27.9l-2-.7c-.1-.1-.4-.1-.5-.2.1.1.2.1.4.2l2 .7 24.2 9.5c1.6.6 3.3.7 4.9.5 2.1-.4 4.1-1.2 5.9-2.6 1.6-1.3 2.9-2.9 3.8-4.9.9-1.8 1.3-3.9 1.3-6v-54.9c.1-1.8-.4-3.8-1.2-5.4-.9-1.7-2.2-3-3.9-3.9-1.7-1-3.8-1.2-5.7-1-1.7.2-3.4 1-4.9 2L379.6 132v-27.4c0-.7 0-1.3-.2-2-.2-.6-.6-1.2-1.1-1.7-.6-.5-1.1-.9-1.8-1h0zm33.5 25.5v55c0 .2 0 .4-.1.7-.1.2-.4.5-.6.7s-.5.4-.9.4c-.2.1-.5.1-.7 0L381.6 172c-.2-.1-.5-.4-.6-.6-.1-.2-.2-.5-.2-.9v-27.1c0-.4.1-.6.2-1 .1-.2.4-.5.6-.7l26-17.6c.2-.1.5-.2.7-.2.2-.1.6-.1.9 0 .2.1.4.4.6.6.2.4.2.7.2.9h0z" fill-rule="evenodd" clip-rule="evenodd" fill="#e87891" stroke="#000" stroke-width=".25"/><path class="st5" d="M336.5 198l-13.4-6.8c1.6-.9 14.6-2.2 17.6-2.6.4 0 .7 0 1 .2l11.6 6.6-16.8 2.6zm-3 9l-11.7-6.3c-.7-.4-1.2-1-1.7-1.7-.4-.7-.6-1.5-.5-2.3 0-.6.1-1.1.2-1.6 0-.1 1-.2 1.1-.4l10.9 6.3c-.2.6-.4 1.3-.4 2 0 .9.1 1.6.5 2.3.4.6.9 1.2 1.6 1.7"/><path class="st5" d="M332.7 203.6l-12.9-7.9s.1-.6.1-.7c.1-.4.6-1.5.7-1.7l11.5 6.7c.1.3.7 3.3.6 3.6z"/><path class="st5" d="M332.1 200.2l-11.7-6.3c.1-.2.5-1.5 1.7-2l11 7.8c-.3.1-.9.2-1 .5"/><path class="st5" d="M332.4 199.6l-11.7-6.3c.1-.1 1.2-2.6 5.2-2.6l13.5 6.2-7 2.7"/><path class="st5" d="M332.9 199l-11.7-6.3.5-.5 11.7 6.3-.5.5z"/><path class="st5" d="M333.4 198.6l-11.7-6.3c.1-.1.4-.4.6-.5l11.7 6.3c-.2.1-.5.2-.6.5z"/><path class="st5" d="M333.9 198.1l-11.8-6.3 1-.6 11.5 6.5-.7.4"/><path class="st5" d="M334.6 197.6l-11.7-6.3c.5-.2.9-.4 1.3-.4l11.7 6.3c-.3.2-.8.3-1.3.4z"/><path class="st15" d="M356.1 199.4c0 1.3-.5 2.7-1.3 3.7s-2.1 1.7-3.3 2l-15.5 2.2c-.6.1-1.2 0-1.8-.1-.6-.2-1.1-.5-1.6-.9s-.7-1-1-1.5c-.2-.6-.2-1.2-.2-1.7 0-1.3.5-2.6 1.3-3.7.9-1 2.1-1.7 3.3-2l15.5-2.2c.6-.1 1.2 0 1.7.1.6.2 1.1.5 1.6.9s.7.9 1 1.5c.3.5.3 1.1.3 1.7z"/><path class="st5" d="M322.2 199.2l-11.8-6.3c.5-.1 1.1-.1 1.6 0l11.7 6.3c-.5-.1-1.2-.1-1.5 0"/><path class="st5" d="M323.6 199.3l-11.8-6.3c.2 0 .5.1.7.2l11.7 6.3c-.1-.1-.3-.2-.6-.2"/><path class="st1" d="M374.3 99.9l-12.1-6.3c.6-.1 1.8-.4 2.4-.2l11.7 6.5c-.6-.1-1.2-.1-1.8-.1"/><path class="st1" d="M376.2 99.8l-11.7-6.3c.2.1.5.1.9.2l11.7 6.3c-.3 0-.5-.1-.9-.2z"/><path class="st1" d="M377.1 100.1l-11.7-6.3h.1l11.7 6.3h-.1z"/><path class="st5" d="M306.6 201.9l-12.8-5 1.6-2 15-2.1 6.1 2.9 5.7 3.5-15.6 2.7z"/><path class="st5" d="M304.4 211.3l-12.1-6.3c-.7-.4-1.2-1-1.7-1.7-.4-.7-.6-1.5-.5-2.3 0-.7.1-1.3.4-2l19.4 2.1c-.2.6-7.7 5.6-7.7 6.3 0 .9 1.8 1.6 2.3 2.3.4.6-.7 1.1-.1 1.6z"/><path class="st5" d="M302.3 205.1l-11.8-6.1c.1-.2.2-.9.4-1.1.1-.5 1.2-2.9 7-3.3l4.9 9.8c-.4.2-.5.4-.5.7z"/><path class="st5" d="M302.7 204.3L291 198c.1-.2.2-.4.4-.6l11.7 6.3c-.3.1-.4.4-.4.6z"/><path class="st5" d="M303 203.7l-11.7-6.3.4-.5 11.7 6.3-.4.5zm.4-.6l-11.7-6.3.5-.5 11.7 6.3-.5.5z"/><path class="st5" d="M303.9 202.6l-11.7-6.3c.1-.1 2.6-.4 2.8-.5l9.5 6.5c-.3.1-.4.2-.6.3z"/><path class="st5" d="M304.5 202.2l-9-5.4c.2-.1.2-.5.5-.6l9.1 5.5c-.1.2-.4.3-.6.5"/><path class="st5" d="M305.2 201.8l-11.5-5.5c.5-.2 3.4-.5 3.9-.6l8.9 5.6c-.3.1-.8.3-1.3.5"/><path class="st15" d="M326.7 203.5c0 1.3-.4 2.7-1.2 3.7-.9 1.1-2 1.8-3.3 2.1l-15.5 2.2c-.6.1-1.2 0-1.8-.1s-1.1-.5-1.6-.9-.7-1-1-1.5c-.2-.6-.2-1.2-.2-1.7 0-1.3.5-2.6 1.3-3.7.9-1 2-1.7 3.3-2l15.5-2.2c.6-.1 1.2 0 1.7.2.6.2 1.1.5 1.5.9s.7.9 1 1.5c.2.4.3 1 .3 1.5z"/><path class="st1" d="M347.2 103.6l-11.7-6.3 27.3-3.8 11.7 6.3-27.3 3.8z"/><path class="st5" d="M286.4 206.5l-5.5-9.5c.5-.1 1.1-.1 1.7 0l11.6 6.6c-.5-.1-1.1-.1-1.6 0"/><path class="st5" d="M294.2 203.5l-11.7-6.5c.2.1.5.1.7.2l11.7 6.3c-.2.1-.4 0-.7 0"/><path class="st5" d="M295 203.7l-11.7-6.3 10.2 7.7 1.5-1.4"/><path class="st5" d="M270.5 207l-5-7.8L281 197l11.7 6.3-22.2 3.7zm4.1 8.3l-11.7-6.3c-.7-.4-1.2-1-1.7-1.7-.4-.7-.6-1.5-.5-2.3 0-.7.1-1.3.4-2l11.7 6.3c-.2.6-.4 1.3-.4 2 0 .9.1 1.6.5 2.3.5.6 1.1 1.2 1.7 1.7"/><path class="st5" d="M272.8 209.2l-11.7-6.3c.1-.2.2-.5.4-.9l11.8 6.3c-.3.4-.4.7-.5.9"/><path class="st5" d="M273.1 208.5l-11.7-6.3c.1-.2.2-.4.4-.6l11.7 6.3c-.1.1-.2.3-.4.6z"/><path class="st5" d="M273.5 207.9l-11.7-6.3.4-.5 11.7 6.3-.4.5zm.4-.6l-11.7-6.3.5-.5 11.7 6.3-.5.5"/><path class="st5" d="M274.4 206.8l-11.7-6.3c.1-.1.4-.4.6-.5l11.7 6.3c-.3.2-.4.3-.6.5z"/><path class="st5" d="M275 206.4l-11.7-6.3c.2-.2.5-.4.7-.5l11.8 6.3c-.3.1-.6.3-.8.5"/><path class="st5" d="M273.5 212.6l-12.7-7.1c-.4.4-1.5-5.2 4.6-6.3l11.7 6.3c-.5 0-1 .2-1.3.4m62.8-179l2.6 1.3c2.8 1.5 5.6 3.7 7.8 6 .2.2.5.4.9.5"/><path d="M321.2 14.9l16.3 11.5 7.1 4.1 4.8 4 2.8.7 3.4-8.9L333.5 16l-12.3-1.1z" fill="#b4d1fa"/><path class="st15" d="M297.2 207.7c0 1.3-.5 2.7-1.3 3.7-.9 1-2.1 1.7-3.3 2l-15.5 2.2c-.6.1-1.2 0-1.8-.1-.6-.2-1.1-.5-1.6-.9s-.7-1-1-1.5c-.2-.6-.2-1.2-.2-1.7 0-1.3.5-2.6 1.3-3.7.9-1 2.1-1.7 3.3-2l15.5-2.2c.6-.1 1.2 0 1.8.1.6.2 1.1.5 1.6.9s.7 1 1 1.5c.2.5.2 1.1.2 1.7z"/><path class="st12" d="M304.9 114.9l-11.7-6.3c5.2 1.3 10.9 1.6 16.2.9 4.8-.7 9.4-2.1 13.8-4.1l11.7 6.3c-4.4 2.1-9 3.4-13.8 4.1-5.5.8-11 .6-16.2-.9z"/><path class="st2" d="M334.7 111.7l-11.7-6.3c2.7-1.2 5.1-2.7 7.6-4.4l11.7 6.3c-2.3 1.6-4.9 3.1-7.6 4.4z"/><path class="st3" d="M342.3 107.3l-11.7-6.3c1.7-1.2 3.3-2.4 4.9-3.8l11.7 6.3c-1.6 1.4-3.2 2.6-4.9 3.8z"/><path class="st5" d="M258.1 210.9l-6.7-9.8c.5-.1 1.1-.1 1.6 0l11.7 6.3c-.5 0-6.1 3.4-6.6 3.5z"/><path class="st5" d="M264.7 207.6l-11.7-6.3c.2.1.5.1.7.2l11.7 6.3c-.2-.1-.4-.2-.7-.2"/><path class="st5" d="M265.5 207.9l-11.7-6.3h.1l11.6 6.3m-17.5 2.5l-12-7.3 15.4-2 12.4 6.6-15.8 2.7zm-2.9 8.9l-11.7-6.3c-.7-.4-1.2-1-1.7-1.7-.4-.7-.6-1.5-.5-2.3 0-.7.1-1.3.4-2l11.7 6.3c-.2.6-.4 1.3-.4 2 0 .9.1 1.6.5 2.3.5.8 1.1 1.4 1.7 1.7z"/><path class="st5" d="M243.6 215.3l-12.1-8.3c.1-.2.2-.6.5-1l11.6 6.5c-.1.4.1 2.4 0 2.8z"/><path class="st5" d="M243.6 212.6l-11.8-6.1c1.5-3 2.7-2.7 2.8-2.8l9.5 8.3c-.1.1-.2.4-.5.6"/><path class="st5" d="M244 212l-11.7-6.3.4-.5 11.7 6.3c-.1 0-.4.5-.4.5zm.5-.6l-11.8-6.3.6-.7 11.8 6.5-.6.5"/><path class="st5" d="M244.1 212.6l-11.2-7.9c1.1-1 2.2-1.5 4.4-1.7l11.2 6.7-4.4 2.9z"/><path class="st5" d="M245.4 210.5l-11.7-6.3c.2-.1.5-.4.7-.5l11.7 6.3c0 .2-.4.3-.7.5zm.9-.4l-11.7-6.3c.5-.2.9-.4 1.3-.4l11.7 6.3c-.4 0-.8.1-1.3.4"/><path class="st15" d="M267.6 211.9c0 1.3-.5 2.7-1.3 3.7s-2.1 1.7-3.3 2l-15.5 2.2c-.6.1-1.2 0-1.8-.1s-1.1-.5-1.6-.9-.7-1-1-1.5c-.2-.6-.4-1.2-.2-1.7 0-1.3.5-2.6 1.3-3.7.9-1 2.1-1.7 3.3-2l15.5-2.2c.6-.1 1.2 0 1.7.1.6.1 1.1.5 1.6.9s.7.9 1 1.5c.3.5.5 1.1.3 1.7z"/><path class="st5" d="M301.1 102.2l-11.7-6.3 1.2.6 11.7 6.3-1.2-.6z"/><path class="st5" d="M302.2 102.8l-11.7-6.3c2 1 3.9 1.7 6 2.2l11.7 6.3c-2.1-.6-4.1-1.3-6-2.2z"/><path class="st5" d="M304 108.1l-7.6-9.4c4.1 1.1 8.5 1.3 12.9.6 3.8-.5 7.4-1.6 11-3.3l11.7 6.3c-3.4 1.7-7.1 2.8-10.9 3.3-4.4.7-8.5 5-12.8 3.9"/><path class="st5" d="M316.3 108.9l3.9-12.9c2.1-1 4.1-2.2 6.1-3.5l16 6.2c-1.9 1.3-23.8 9.1-26 10.2z"/><path class="st5" d="M338 98.9l-11.7-6.3c1.6-1.1 3-2.3 4.5-3.7l11.7 6.3c-1.3 1.4-2.9 2.6-4.5 3.7z"/><path class="st5" d="M340.6 101l-9.8-12.1c1.3-1.2 2.7-2.4 3.8-3.8l16.1 5.1c-1.2 1.3-6.3 8.1-7.7 9.3"/><path class="st5" d="M346.5 91.4l-11.7-6.2c1.2-1.3 2.3-2.8 3.4-4.3l11.7 6.3c-1.1 1.5-2.2 2.9-3.4 4.2"/><path class="st5" d="M350.2 88.6L336.1 84c1.1-2.2 4.1-6.6 5-8.3l11.7 6.3c-.9 1.9-1.5 5-2.6 6.6z"/><path class="st5" d="M352.9 84.2l-11.7-8.3c1.1-2.1 2.1-4.1 2.8-6.3l15.2-.7c-.9 2.2-4.5 12.7-5.6 14.6"/><path class="st5" d="M355.6 75.9l-11.7-6.3c1.8-5.1 2.8-10.5 2.9-15.9 0-.7.1-1.3.4-2l11.7 6.3c-.2.6 2.6 7.3 2.6 7.9 0 5.6-3.9 5-5.9 10zm3.4-17.8l-11.7-6.3c.1-.2.2-.5.4-.9l11.7 6.3c-.3.4-.4.6-.4.9"/><path class="st5" d="M359.3 57.2l-11.7-6.3c.1-.2.2-.5.4-.6l11.7 6.3c-.2.2-.3.5-.4.6z"/><path class="st5" d="M359.6 56.6l-11.7-6.3c.1-.2.2-.4.4-.5l11.7 6.3c-.1.1-.2.4-.4.5m.5-.5l-11.7-6.3.5-.5 11.7 6.3c-.1.1-.4.3-.5.5z"/><path class="st5" d="M359.3 59.8l-12.4-6.7c.1-.1 0-4.5 4.5-5.1l13.5 6.2.6.6c-.2.1-4.4 2.1-4.5 2.2"/><path class="st5" d="M361.2 55.1l-11.7-6.3.7-.5 11.7 6.3c-.2.2-.4.4-.7.5zm.7-.5l-11.7-6.3c.5-.2.9-.4 1.3-.4.5-.1 1.1-.1 1.6 0l11.7 6.3c-.5-.1-1.1-.1-1.6 0-.3.1-.8.2-1.3.4"/><path class="st5" d="M364.9 54.8L353.2 48c.2.1.6.1.9.2l12.1 6.6c-.5-.2-1.1 0-1.3 0z"/><path class="st1" d="M270 114.4l-11.7-6.3 25-3.5 11.7 6.3-25 3.5z"/><path class="st5" d="M321.2 14.7l-11.7-6.3c5.4-.7 11-.5 16.2.9l11.8 6.5c-5.4-1.3-10.9-1.7-16.2-.9"/><path class="st5" d="M335.8 17.1l-11.6-8.2c2.6.6 6.7 1.8 9 3l11.7 6.3c-2.3-1-6.6-.4-9.1-1.1z"/><path class="st5" d="M345 18.4l-11.7-6.3 1.5.7 11.1 9.3-.9-3.7zm-48.9 93.1l-11.7-6.3c-.4-.2-.7-.4-1.1-.6-6.2-3.7-11.5-9-14.9-15.5-3.9-7.2-5.9-15.4-5.7-23.5 0-2.4.1-4.9.4-7.2.6-4.3 1.6-8.5 3.2-12.7L278 52c-1.5 4-2.6 8.3-3.2 12.7-.4 2.4-.5 4.8-.5 7.2-.1 8.2 2 16.3 5.9 23.5 3.4 6.3 8.7 11.7 14.9 15.5.2.2.6.5 1 .6z"/><path class="st5" d="M276.3 66.6l-12.9-11.3c.6-7.3 5-15 6.3-17.6l15.6 2.9c-1.3 2.6-8 23.3-9 26z"/><path class="st5" d="M281.4 44.1l-11.7-6.3c1.2-2.2 2.4-4.3 3.8-6.2l21.2 2.4c-1.4 2-12.2 8-13.3 10.1z"/><path class="st5" d="M285.2 37.9l-11.7-6.3c1.3-1.8 2.7-3.7 4.3-5.4l11.7 6.3c-1.5 1.8-2.9 3.6-4.3 5.4z"/><path class="st5" d="M286.9 40.4l-9.1-14.2c1.5-1.7 3-3.3 4.8-4.9l17.1 3.7c-1.8 1.6-11.3 13.7-12.8 15.4z"/><path class="st5" d="M294.2 27.7l-11.7-6.3c1.8-1.6 3.7-3.2 5.7-4.5l11.7 6.3c-1.9 1.4-3.8 2.9-5.7 4.5z"/><path class="st5" d="M290.1 35.1l-1.8-18.3c2.4-1.6 4.9-3 7.6-4.4l17.3 5c-2.7 1.4-20.8 16.1-23.1 17.7z"/><path class="st5" d="M307.5 18.9l-11.7-6.3c4.4-2.1 9-3.4 13.8-4.1l17.2 5.7c-4.9.5-15 2.6-19.3 4.7z"/><path d="M321.2 14.9c-23.5 3.3-43.2 24.9-46.4 49.9-.4 2.3-.5 4.8-.5 7.2-.1 8.2 1.8 16.2 5.7 23.4 3.4 6.3 8.5 11.7 14.9 15.4 7.9 4.6 17.1 6.3 26.1 4.9 9.8-1.5 18.8-5.7 26.1-12.2 6.5-5.6 11.6-12.4 15.1-20.1s5.5-16.1 5.6-24.6c0-.6 0-1.2-.2-1.7-.2-.6-.6-1.1-1-1.5-.5-.4-1-.7-1.6-.9-.6-.1-1.2-.2-1.7-.1-1.3.2-2.6 1-3.4 2-.9 1.1-1.3 2.3-1.3 3.7 0 22.3-16.8 42.9-37.6 45.7s-37.6-13.1-37.6-35.4 17-42.8 37.7-45.7c5-.7 10.1-.4 14.9 1.2s9.1 4.4 12.7 8.1m-27.5-19.3c6.2-1 12.6-.4 18.5 1.6s11.3 5.4 15.7 9.9m-6.6 7.6c.5.5 1 .7 1.6 1 .6.2 1.2.2 1.8.1m0 0c1-.1 1.8-.6 2.6-1.2.7-.6 1.3-1.3 1.6-2.3.4-.9.5-1.8.4-2.8-.1-1-.6-1.7-1.2-2.4" fill="#b4d1fa" stroke="#000" stroke-width=".25"/><path class="st5" d="M348.9 34.3L337.5 28c-.4-.2-.6-.5-1-.7-.6-.6-1.2-1.2-1.8-1.7l1.7.6 2 .7s.5.2.6.2l3.9 2.1.5.4 3.2 2.3.4.2c-.1.1 1.9 2.2 1.9 2.2z"/><path class="st1" d="M233.7 114.7l-11.7-6.5.7.4 11.8 6.5-.8-.4"/><path class="st1" d="M234.6 115.1l-11.7-6.3c1.2.6 2.6 1.1 3.9 1.5l11.7 6.3c-1.3-.4-2.7-.8-3.9-1.5z"/><path class="st1" d="M237.3 117.3l-10.5-7.2c2.8.7 5.7.9 8.5.5l24.8 3.5c-2.8.4-17.8 5.5-20.6 4.8"/><path class="st1" d="M247 117l-11.7-6.3c2.4-.4 4.9-1.1 7.2-2.2l11.7 6.3c-2.3 1.1-4.7 1.8-7.2 2.2z"/><path class="st1" d="M240.2 123.4l2.3-15c1.5-.6 2.8-1.5 4-2.3l17.2 2.8c-1.3 1-22.2 13.9-23.5 14.5z"/><path class="st1" d="M258.3 112.5l-11.7-6.3c1.1-.7 2.1-1.5 3-2.3l11.7 6.3c-1 .8-2.1 1.5-3 2.3z"/><path class="st1" d="M261.2 110.1l-12.8-5.4c1.1-.7 2.9-2.7 3.7-3.5l11.7 6.3c-.8.9-1.6 1.8-2.6 2.6z"/><path class="st1" d="M263.3 108.9l-11.8-7c.9-.9 2.9-3.8 3.5-4.8l11.7 6.3c-.6 1.1-2.6 4.6-3.4 5.5z"/><path class="st1" d="M266.2 104.4l-11.7-6.3c.7-1.1 1.5-2.2 2.1-3.3l11.7 6.3c-.8 1.1-1.4 2.2-2.1 3.3z"/><path class="st1" d="M268 101.5l-11.7-6.3c.7-1.3 1.5-3.2 2-4.5l11.8 6.1c-.5 1.3-1.4 3.3-2.1 4.7z"/><path class="st1" d="M270 97.2l-11.8-6.1c1.2-3.3 1.8-7.2 2-10.7.1-4.3-.9-8.4-2.8-12.1-2.1-3.7-5-6.8-8.7-8.9l12.8 4.6c3.7 2.1 5.4 7 7.4 10.6s3 7.9 2.8 12.1c.1 3.7-.5 7.2-1.7 10.5z"/><path class="st13" d="M215.4 80.6l-11.8-6c.7-2 2.1-5 3-6.8l16.6 5c-.9 1.8-7 5.8-7.8 7.8"/><path class="st13" d="M218 74.9l-11.8-6.3c.9-1.6 2.7-4.3 3.8-5.7l18.4 4.9c-1 1.4-9.5 5.5-10.4 7.1z"/><path class="st13" d="M220.8 70.3L209.1 64c1-1.3 2-2.7 3-3.9l20.7 3.2c-1 1.1-11 5.6-12 7z"/><path class="st13" d="M223.9 66.4L212.1 60c1.1-1.2 2.3-2.4 3.5-3.5l20 6.2c-1.1 1.1-10.6 2.4-11.7 3.7z"/><path class="st13" d="M227.4 62.8l-11.7-6.3c1.3-1.2 2.7-2.3 4.1-3.3l24.4 4.9c-1.4 1.1-15.5 3.6-16.8 4.7z"/><path class="st13" d="M231.5 59.5l-11.7-6.3c1.7-1.2 3.7-2.3 5.6-3.2l19.4 5.4c-2 .8-11.4 2.9-13.3 4.1z"/><path class="st13" d="M237.2 56.3L225.4 50c3.2-1.5 6.5-2.4 10-2.9 3.9-.6 7.9-.4 11.8.6L259 54c-3.9-1-6.8 2.4-10.9 3-3.4.4-7.8-2.1-10.9-.7z"/><path class="st13" d="M257.6 55.3L247 47.7c1.8.5 3.8 1 5.5 1.8l11.7 6.3c-1.6-.7-4.6-.1-6.6-.5z"/><path class="st13" d="M264.4 56l-11.7-6.3 1 .5 11.8 6.3-1.1-.5"/><path d="M274.2 71.8c-.1 8.2 1.8 16.3 5.7 23.5-1.8 7.1-5.2 13.5-10.1 19-5.9 6.8-14 11.5-22.9 12.8-4 .6-8.2.4-12.2-.7-3.9-1.1-7.7-3-10.7-5.6-3.7-3.2-6.6-7.2-8.5-11.6-2-4.4-2.9-9.3-2.7-14.2 0-20.4 15.5-39 34.3-41.7 5.2-.9 10.5-.2 15.4 1.7 4.9 2 9.1 5.2 12.3 9.4-.3 2.7-.6 5-.6 7.4zM247 117c13.7-2 24.8-15.5 24.9-30.3 0-14.8-11.1-25.1-24.8-23.2-13.7 1.9-24.8 15.5-24.8 30.2s10.9 25.2 24.7 23.3" fill="#e87891" stroke="#000" stroke-width=".25"/><path d="M376.8 179.9h2.6v3.7h-2.6v-3.7z" fill="#e87891"/></svg>