<svg version="1.1" id="Слой_1" xmlns="http://www.w3.org/2000/svg" x="0" y="0" viewBox="0 0 250 250" xml:space="preserve" enable-background="new 0 0 250 250"><style>.st0{fill:#904a5a}.st1{fill:#743c49}.st2{fill:#882f40}.st3{fill:#824351}.st4{fill:#874654}.st5{fill:#8b4857}.st6{fill:#944d5d}.st7{fill:#994f60}.st9{fill:#7d414e}.st10{fill:#40689d}.st11{fill:#2f527f}.st12{fill:#687991}.st13{fill:#65758c}.st15{fill:#5e6d82}.st16{fill:#b4d1fa;stroke:#000;stroke-width:.2}.st20{fill:#9a384b}</style><path class="st0" d="M243.7 43.1l-10.5-5.7 10.5 5.7z"/><path class="st1" d="M149.6 225.2l-10.5-5.7-1.8-8.2 10.5 5.7 1.8 8.2z"/><path class="st2" d="M147.8 217l-10.5-5.7h.2L148 217h-.2m.1-.1l-10.5-5.7c.3-.1.6-.3.8-.5l10.6 5.7c-.2.2-.5.4-.9.5m.9-.5l-10.5-5.7c.2-.1.4-.3.6-.5l10.5 5.7c-.1.2-.4.4-.6.5z"/><path class="st2" d="M149.4 215.9l-10.5-5.7.6-.6 10.5 5.8-.6.6"/><path class="st2" d="M142.6 223.3l-10.4-10.4c4.5-1.6 7.1-2.7 8.8-6l13.7 4.9c-.1.2-11.9 11.3-12.1 11.5z"/><path class="st2" d="M150.5 214.7L140 209c.2-.3.3-.5.5-.8l10.5 5.7c-.2.3-.4.6-.5.8z"/><path class="st2" d="M150.9 213.9l-10.5-5.7c.2-.3.3-.7.5-1l10.5 5.7c-.1.4-.3.7-.5 1z"/><path class="st2" d="M151.4 212.9l-10.5-5.7c.3-.9.5-1.8.5-2.7l10.5 5.7c0 .9-.2 1.9-.5 2.7z"/><path class="st3" d="M237.9 45l-10.6-5.7.2-.4 10.6 5.6c-.1.1-.1.3-.2.5"/><path class="st4" d="M238.1 44.5l-10.5-5.6c.1-.1.2-.3.3-.4l10.5 5.7-.3.3"/><path class="st5" d="M238.5 44.2L228 38.5c.1-.1.2-.3.4-.4l10.6 5.7-.5.4"/><path class="st0" d="M238.9 43.8l-10.6-5.7.5-.4 10.5 5.7-.4.4"/><path class="st6" d="M239.3 43.4l-10.5-5.7c.2-.2.4-.3.7-.4L240 43c-.2.2-.5.3-.7.4z"/><path class="st7" d="M240 43l-10.5-5.7c.4-.2.8-.3 1.3-.4.5-.1 1-.1 1.5 0l10.5 5.7c-.5-.1-1-.1-1.5 0s-.9.3-1.3.4z"/><path class="st6" d="M242.8 42.7L232.3 37c.2.1.5.1.7.2l10.6 5.7c-.3 0-.5-.1-.8-.2"/><path class="st0" d="M243.5 43L233 37.2l10.5 5.8"/><path class="st1" d="M244.9 49.1l-10.5-5.7-7-4.1 10.5 5.7 7 4.1z"/><path d="M243.7 43.1c.5.3.9.7 1.2 1.2.3.5.5 1 .7 1.6.1.6.1 1.1 0 1.7-.1.6-.3 1.1-.7 1.6l-6.9-4.1c.3-.6.8-1.1 1.4-1.5.6-.4 1.3-.7 2-.8.7-.2 1.5-.1 2.3.3z" fill="#cb697f"/><path class="st2" d="M152.5 212.3l-11.2-7.9v-12.9l11.7 4.3-.5 16.5zm.1-17.3l-10.5-5.7 86-150.1c4.7.7 6.8 2.1 10.1 6.2L152.6 195z"/><path class="st2" d="M151.9 197.3l-10.5-5.7c0-.6.1-1.3.3-1.9l10.5 5.7c-.2.7-.3 1.3-.3 1.9z"/><path class="st9" d="M152.2 195.5l-10.5-5.7.3-.6 10.5 5.7-.3.6z"/><path class="st3" d="M152.5 194.9l-10.6-5.7 10.7 5.5"/><path class="st10" d="M160.2 187.7l-1.7 4.9-.1.3 1.7-4.9v-.3"/><path class="st10" d="M160.1 188l-1.7 4.9c-.2.5-.5.9-.8 1.3l1.7-4.9c.3-.4.6-.9.8-1.3zm-.8 1.2l-1.7 4.9-.3.3c-.7.6-1.5 1.2-2.3 1.6l1.7-4.9c.8-.5 1.6-1 2.3-1.6l.3-.3"/><path class="st10" d="M156.7 191.2l-1.7 4.9c-.8.5-1.7.9-2.6 1.3-5.3 2-10.8 3.5-16.3 4.3h-.2c-.5.1-1 .1-1.6 0l1.7-6c.5.1 1.7.5 2.2.4l-.5.7c5.6-.8 11.1-2.2 16.3-4.3 1-.4 1.9-.8 2.7-1.3z"/><path class="st10" d="M136 196.8l-1.7 4.9c-.4-.1-.8-.2-1.1-.3l1.8-4.9c.3.1.7.2 1 .3"/><path class="st10" d="M135 196.5l3.3 4.7c-4.9 1.1-6.6 0-8.2-2.2l4-2.9c.2.2.5.3.9.4z"/><path class="st10" d="M136.1 198l-3.8 3c-1.2-.3-1.2-.8-2.3-1.9l3.1-3.4c.3.2 1.6 1 1.9 1.2"/><path class="st10" d="M134.4 195.8l-3 4.8c-.5-.4-.9-.8-1.3-1.3-.2-.3-.4-.7-.4-1-.1-.4 0-.8.1-1.1l1.7-4.9c-.1.4.2.5.2.8.1.4.3.8.5 1.1.4.4 1.7 1.2 2.2 1.6z"/><path class="st11" d="M150.2 185.7l-1.7 4.9-1.1-.2 1.7-4.9 1.1.2z"/><path class="st11" d="M150.5 185.2l-3.1 5.1c-.9-.1-2-.3-3.2-.3-6.6-.4-13.2-.1-19.7.7-4.3.5-8.5 1.3-12.7 2.3-2.8.6-5.5 1.6-8.1 2.8v-5.1c2.6-1.3 7-2.5 9.8-3.1 4.2-1 8.3-2.2 12.6-2.7 6.5-.9 13.1-1.2 19.7-.8 1.2 0 2.3.2 3.2.3"/><path class="st12" d="M104.9 191.2l-1.7 4.9 1.7-4.9"/><path class="st10" d="M120.7 196.9l-1.7 4.9c-.5 1.1-.9.9-1.1 1.1v-6.4c.2-.2 2.7.6 2.8.4z"/><path class="st10" d="M120.7 195.3l-1.9 7c-1.4 1.6-5 .4-5.2.5l3.9-5.5c.2-.1 3-1.7 3.2-2z"/><path class="st10" d="M119.7 198l-1.7 4.9c-.5.3-1 .4-1.5.5h-.6c-2.9 0-5.8-.1-8.7-.3l-2.5-.4 1.7-4.9 2.5.3c2.9.3 5.8.4 8.7.4h.6c.5-.1 1-.3 1.5-.5z"/><path class="st10" d="M106.4 197.8l-1.7 4.8c-1.6-.2-3.1-.6-4.6-1.1l1.7-4.9c1.6.5 3.1.8 4.8 1.1"/><path class="st12" d="M101.6 196.8l-1.7 4.9 1.7-4.9z"/><path class="st13" d="M101.6 196.8l-1.7 4.9c-.9-.3-1.7-.6-2.5-1l1.7-4.9c.8.3 1.7.6 2.5 1"/><path d="M99.1 195.7l-1.7 4.9c-.6-.3-1.2-.6-1.7-1l1.7-4.9c.5.3 1.1.7 1.7 1z" fill="#617187"/><path class="st15" d="M97.4 194.7l-1.7 4.9h-.1c-.8-.6-1.5-1.4-2-2.3-.3-.5-.4-1-.4-1.5s0-1.1.2-1.6l1.7-4.9c-.2.5-.2 1.1-.2 1.6.1.5.2 1.1.5 1.5.5.9 1.2 1.7 2 2.3z"/><path class="st16" d="M122.7 179.5c4.4-.6 8.9-.9 13.3-1 3.8-.1 7.6 0 11.3.5 2.1.2 4.1.6 6.1 1.2 1.1.3 2.2.8 3.2 1.4 1.3.7 2.4 1.7 3.1 3 .3.4.4.9.5 1.4.1.5.1 1-.1 1.5-.3.8-.7 1.5-1.3 2-1.4 1.2-3 2.2-4.8 2.9-5.3 2-10.7 3.5-16.3 4.3h-.2c-1.1.1-2.2-.1-3.2-.5s-1.9-1.2-2.5-2c-.5-.9-.6-1.7-.2-2.4.4-.7 1.1-1.2 2.2-1.4 3.3-.5 6.5-1.2 9.7-2.1 2.2-.6 4.3-1.3 6.3-2.3l.3-.2.2-.1h-.3c-1.4-.3-2.8-.4-4.3-.5-6.6-.4-13.2-.1-19.8.7-4.3.5-8.5 1.3-12.7 2.3-2.8.6-5.6 1.6-8.2 2.9l-.5.3-.3.1h.3c3.4.6 6.9.8 10.4.7 1.1 0 2.2.2 3.1.8.9.6 1.7 1.4 2.2 2.4.3.8.1 1.5-.3 2.1-.4.6-1.2.9-2.2 1.1h-.6c-2.9 0-5.8-.1-8.7-.4-2.4-.2-4.9-.7-7.2-1.4-1.6-.5-3-1.2-4.3-2.2-.8-.6-1.5-1.4-2-2.3-.3-.5-.5-1-.5-1.6 0-.6 0-1.1.2-1.7.4-.8 1-1.6 1.7-2.2 1.8-1.3 3.8-2.4 5.9-3.1 6.9-2.1 13.6-3.5 20.5-4.2z"/><path class="st11" d="M165.1 153.4l-2.9 8.1-.8-.3 2.9-8.1.8.3"/><path class="st11" d="M164.3 153.1l-2.9 8.1-.6-.2 2.9-8.1.6.2z"/><path class="st10" d="M174.2 156.1l-2.9 8.1-.1.4 2.9-8.1.1-.4zm-.2.4l-2.9 8.2c-.3.6-.7 1.1-1.1 1.6l2.9-8.1c.5-.5.8-1.1 1.1-1.7m-1.1 1.6l-2.9 8.1c-1 1.1-2.2 2-3.6 2.7l2.9-8.1c1.4-.7 2.6-1.6 3.6-2.7z"/><path class="st10" d="M169.4 160.8l-2.9 8.1c-.7.4-1.4.8-2.2 1.1-6.5 2.8-13.8 4.7-20.9 5.9l3.3-8.1c7-1.2 13.9-3.2 20.4-5.9.9-.4 1.6-.7 2.3-1.1z"/><path class="st10" d="M146.8 167.8l1.8 7.2-11 2 2.9-8.1 6.3-1.1z"/><path class="st11" d="M163.6 152.9l-2.9 8.1c-1.4-.4-2.8-.7-4.2-.9l2.9-8.1c1.4.2 2.9.5 4.2.9z"/><path class="st11" d="M160.1 151.2l-3.6 8.9c-1.5-.2-3.2-.4-5-.6-10.1-.6-20.2-.2-30.2 1.1h-.7c-6 .7-12.1 1.8-18 3.1-4.3 1-8.5 2.3-12.6 4.1-.6.3-1.1.6-1.7.9l2.5-9.1c.5-.3 2.4-1.1 3-1.3 4-1.7 7.4-1.6 11.6-2.5 5.9-1.4 12-3.5 18.1-4.3h.7c10-1.3 20.1-1.3 30.1-.7 1.9 0 3.8 0 5.3.2"/><path class="st11" d="M91.4 160.7l-2.9 8.1c-.8.4-1.6.9-2.2 1.6l2.7-8.1c.6-.6 1.4-1.2 2.2-1.6"/><path class="st12" d="M89 162.3l-2.8 8.1 2.8-8.1z"/><path class="st13" d="M89 162.3l-2.9 8.1-.2.2 2.9-8.1.2-.2z"/><path class="st15" d="M80.1 163.6l-2.9 8.1c-.3-.6-.5-1.2-.6-1.8-.1-.6 0-1.3.2-1.9l2.9-8.1c-.2.6-.3 1.3-.2 1.9 0 .6.3 1.3.6 1.8"/><path class="st10" d="M150.5 164.7L137.6 177c-2.2.3-4.5.7-6.9 1-6.6.8-13.2 1.3-19.9 1.4-5.6.1-11.2-.1-16.7-.7l-2.1-.2c.2-3.4-4.3-7.4-1.1-10.1l7-1.1c5.6.6 12.8.7 18.4.5 6.6-.1 11.5-.1 18.1-.9 2.4-.3 5.5.3 7.7 0"/><path class="st10" d="M97 169.1l-5 9.4c-2.2-.3-4.4-.8-6.6-1.4l-.6-.2 2.8-8.1 1.4-.9c2.2.6 3.6 2.2 5.8 2.5m-7.2-1.7l-2.8 8.1c-1-.3-2-.7-2.9-1.2l2.9-8.1c.9.5 1.8.9 2.8 1.2z"/><path class="st10" d="M84.8 167.6l-2.8 8.1-.8-.4c-.4-.2-.8-.5-1.2-.8l2.9-8.1c.4.3.8.5 1.2.8l.7.4m-2.1-1.2l-2.9 8.1c-1.1-.7-2-1.7-2.6-2.7l2.9-8.1c.6 1 1.5 1.9 2.6 2.7"/><path d="M170 148.8c1.6.8 2.9 2 3.9 3.5.6 1 .8 2.2.5 3.3-.2.9-.7 1.8-1.4 2.5-1.7 1.6-3.6 2.9-5.7 3.8-6.6 2.8-13.4 4.7-20.4 5.9l-6.3 1.1c-2.2.3-4.5.6-6.9.9-6.6.8-13.2 1.3-19.8 1.4-5.6.2-11.2-.1-16.7-.7-3-.3-5.9-.9-8.7-1.7-1.5-.4-2.9-1-4.3-1.8-1.6-.8-2.9-2-3.8-3.5-.4-.6-.6-1.3-.6-1.9-.1-.7 0-1.4.3-2 .5-1.1 1.2-2.1 2.1-2.8 2.6-1.9 5.5-3.4 8.6-4.4 9.7-3.2 19.7-5.3 29.8-6.3 6.6-.8 13.2-1.3 19.9-1.4 5.6-.2 11.2.1 16.7.7 3 .3 5.9.9 8.7 1.7 1.3.5 2.7 1 4.1 1.7zm-6 5.6c.4-.3.8-.7 1.1-1.1-.3-.1-.8-.3-1.4-.5-3-.8-6.1-1.2-9.3-1.4-10.1-.6-19.9-.3-29.9 1l-.6.1-3.4.4c-6.1.7-9 1.4-15 2.8-4.3 1-8.5 2.3-12.6 4.1-1.4.6-2.8 1.5-3.9 2.5l-.2.3c.5.2.9.4 1.4.5 3 .8 6.2 1.3 9.3 1.4 10.1.6 20.3.2 30.4-1.1 2.2-.3 4.3-.6 6.4-.9l6.2-1.1c4.6-.8 9.1-2 13.5-3.4 2.8-.7 5.5-1.9 8-3.6" fill="#b4d1fa"/><defs><filter id="Adobe_OpacityMaskFilter" filterUnits="userSpaceOnUse" x="79.4" y="144.5" width="95.3" height="27"><feColorMatrix values="1 0 0 0 0 0 1 0 0 0 0 0 1 0 0 0 0 0 1 0"/></filter></defs><mask maskUnits="userSpaceOnUse" x="79.4" y="144.5" width="95.3" height="27" id="path-65-inside-1_1_"><path d="M170 148.8c1.6.8 2.9 2 3.9 3.5.6 1 .8 2.2.5 3.3-.2.9-.7 1.8-1.4 2.5-1.7 1.6-3.6 2.9-5.7 3.8-6.6 2.8-13.4 4.7-20.4 5.9l-6.3 1.1c-2.2.3-4.5.6-6.9.9-6.6.8-13.2 1.3-19.8 1.4-5.6.2-11.2-.1-16.7-.7-3-.3-5.9-.9-8.7-1.7-1.5-.4-2.9-1-4.3-1.8-1.6-.8-2.9-2-3.8-3.5-.4-.6-.6-1.3-.6-1.9-.1-.7 0-1.4.3-2 .5-1.1 1.2-2.1 2.1-2.8 2.6-1.9 5.5-3.4 8.6-4.4 9.7-3.2 19.7-5.3 29.8-6.3 6.6-.8 13.2-1.3 19.9-1.4 5.6-.2 11.2.1 16.7.7 3 .3 5.9.9 8.7 1.7 1.3.5 2.7 1 4.1 1.7zm-6 5.6c.4-.3.8-.7 1.1-1.1-.3-.1-.8-.3-1.4-.5-3-.8-6.1-1.2-9.3-1.4-10.1-.6-19.9-.3-29.9 1l-.6.1-3.4.4c-6.1.7-9 1.4-15 2.8-4.3 1-8.5 2.3-12.6 4.1-1.4.6-2.8 1.5-3.9 2.5l-.2.3c.5.2.9.4 1.4.5 3 .8 6.2 1.3 9.3 1.4 10.1.6 20.3.2 30.4-1.1 2.2-.3 4.3-.6 6.4-.9l6.2-1.1c4.6-.8 9.1-2 13.5-3.4 2.8-.7 5.5-1.9 8-3.6" fill="#fff" filter="url(#Adobe_OpacityMaskFilter)"/></mask><path d="M170 148.8l.1-.2-.1.2zm3.9 3.5l.2-.1-.2.1zm.5 3.3h.2-.2zm-1.4 2.5l.1.1-.1-.1zm-5.7 3.8l.1.2-.1-.2zm-20.5 5.9v-.2.2zm-6.3 1.1v.2-.2zm-6.9 1v.2-.2zm-19.8 1.4v-.2.2zm-16.8-.7v-.2.2zm-8.7-1.7l-.1.2.1-.2zm-4.3-1.8l.1-.2-.1.2zm-3.8-3.5l-.2.1.2-.1zm-.3-3.9l-.2-.1.2.1zm2-2.8l-.1-.2.1.2zm8.6-4.4l.1.2-.1-.2zm29.8-6.3v.2-.2zm19.9-1.4v.2-.2zm16.8.6v.2-.2zm8.7 1.7l-.1.2.1-.2zm-.6 6.3l.2.1.2-.2-.2-.1-.2.2zm-1.5-.5l.1-.2-.1.2zm-9.2-1.4v.2-.2zm-29.9 1v.2-.2zm-.6.1v-.2.2zm-3.4.4v.2-.2zm-15 2.8v.2-.2zm-12.6 4l.1.2-.1-.2zm-3.9 2.6l-.1-.1.1.1zm-.2.2l-.1-.1-.2.2.3.1v-.2zm1.4.5v-.2.2zm9.3 1.4v-.2.2zm30.4-1.1v-.2.2zm6.5-.8v.2-.2zm6.1-1.1v.2-.2zm13.5-3.4l-.1-.2.1.2zm13.9-9.1c1.6.8 2.9 2 3.8 3.5l.3-.2c-1-1.5-2.3-2.8-4-3.6l-.1.3zm3.8 3.4c.6.9.7 2.1.5 3.1l.4.1c.3-1.2.1-2.4-.5-3.4l-.4.2zm.5 3.2c-.2.9-.7 1.7-1.3 2.4l.3.3c.7-.7 1.2-1.6 1.4-2.6l-.4-.1zm-1.4 2.4c-1.6 1.6-3.6 2.9-5.7 3.7l.2.4c2.2-.9 4.1-2.2 5.8-3.8l-.3-.3zm-5.6 3.7c-6.5 2.7-13.4 4.7-20.4 5.9l.1.4c7-1.2 13.9-3.2 20.5-6l-.2-.3zm-20.4 6l-6.3 1.1.1.4 6.3-1.1-.1-.4zm-6.3 1c-2.2.3-4.5.6-6.9.9l.1.4c2.4-.3 4.7-.6 6.9-.9l-.1-.4zm-6.9 1c-6.6.8-13.2 1.3-19.8 1.4v.4c6.6-.1 13.3-.6 19.9-1.4l-.1-.4zm-19.8 1.4c-5.6.2-11.2-.1-16.7-.7v.4c5.6.6 11.2.8 16.8.7l-.1-.4zm-16.7-.7c-2.9-.3-5.9-.9-8.7-1.7l-.1.4c2.9.8 5.8 1.4 8.8 1.7v-.4zm-8.8-1.7c-1.5-.4-2.9-1-4.2-1.8l-.2.4c1.4.8 2.8 1.4 4.3 1.8l.1-.4zm-4.2-1.7c-1.5-.8-2.8-2-3.7-3.4l-.3.2c.9 1.5 2.3 2.8 3.9 3.6l.1-.4zm-3.7-3.5c-.3-.6-.5-1.2-.6-1.9h-.4c.1.7.3 1.4.6 2l.4-.1zm-.6-1.8c-.1-.7 0-1.3.3-1.9l-.4-.1c-.3.7-.4 1.4-.3 2.1l.4-.1zm.3-2c.4-1.1 1.1-2 2-2.7l-.3-.3c-.9.8-1.7 1.8-2.1 2.9l.4.1zm2-2.7c2.6-1.9 5.5-3.4 8.5-4.3l-.1-.4c-3.1 1-6 2.5-8.6 4.4l.2.3zm8.5-4.3c9.7-3.2 19.6-5.3 29.8-6.3v-.4c-10.2 1-20.2 3.1-29.9 6.3l.1.4zm29.8-6.3c6.6-.8 13.2-1.3 19.9-1.4v-.4c-6.7.1-13.3.6-19.9 1.4v.4zm19.8-1.4c5.6-.2 11.2.1 16.7.7v-.4c-5.6-.6-11.2-.8-16.8-.7l.1.4zm16.7.6c2.9.3 5.9.9 8.7 1.7l.1-.4c-2.9-.8-5.8-1.4-8.8-1.7v.4zm8.7 1.7c1.5.4 2.9 1 4.2 1.6l.2-.4c-1.4-.7-2.8-1.3-4.3-1.7l-.1.5zm-1.5 7.3c.4-.3.8-.7 1.2-1.1l-.3-.2c-.3.4-.7.7-1.1 1l.2.3zm1.1-1.4c-.3-.1-.8-.3-1.5-.5l-.1.4c.6.2 1.1.3 1.4.5l.2-.4zm-1.5-.5c-3.1-.8-6.2-1.2-9.3-1.4v.4c3.1.2 6.2.6 9.2 1.4l.1-.4zm-9.3-1.4c-10.1-.6-19.9-.3-29.9 1l.1.4c10-1.3 19.8-1.6 29.8-1v-.4zm-29.9 1l-.6.1v.4l.6-.1v-.4zm-.6.1l-3.4.4.1.4 3.4-.4-.1-.4zm-3.4.4c-6.1.7-9.1 1.4-15 2.8l.1.4c5.9-1.4 8.9-2 15-2.8l-.1-.4zm-15 2.8c-4.3 1-8.6 2.3-12.6 4.1l.1.3c4.1-1.7 8.3-3.1 12.6-4.1l-.1-.3zm-12.7 4c-1.5.6-2.8 1.5-3.9 2.6l.3.3c1.1-1 2.4-1.9 3.8-2.5l-.2-.4zm-3.9 2.6l-.2.3.3.3.2-.3-.3-.3zm-.2.6c.5.2 1 .4 1.5.5l.1-.4c-.5-.1-1-.3-1.4-.5l-.2.4zm1.5.5c3.1.8 6.2 1.3 9.3 1.4v-.4c-3.1-.2-6.2-.6-9.3-1.4v.4zm9.3 1.4c10.2.6 20.3.2 30.4-1.1l-.1-.4c-10.1 1.3-20.2 1.6-30.4 1.1l.1.4zm30.4-1.1c2.2-.3 4.3-.6 6.4-.9l-.1-.4c-2.1.3-4.2.6-6.4.9l.1.4zm6.5-.8l6.2-1.1-.1-.4-6.2 1.1.1.4zm6.2-1.1c4.6-.8 9.1-2 13.5-3.4l-.1-.4c-4.4 1.4-8.9 2.5-13.5 3.4l.1.4zm13.5-3.4c2.8-.8 5.5-2.1 8-3.6l-.2-.3c-2.4 1.5-5.1 2.8-7.9 3.6l.1.3z" mask="url(#path-65-inside-1_1_)"/><path class="st15" d="M187.3 115.9l-2.8 8.1v-.3l2.8-8.1c.1 0 .1.2 0 .3z"/><path class="st10" d="M196.1 118.8l-2.8 8.1c0 .2-.1.3-.2.5l2.8-8.1c.1-.1.1-.3.2-.5z"/><path class="st10" d="M195.9 119.4l-2.8 8.1c-.2.4-.4.8-.7 1.2-.3.3-.5.7-.8 1l2.8-8.1c.3-.3.5-.6.8-1 .3-.4.5-.8.7-1.2zm-1.5 2.1l-2.8 8.1c-1.4 1.5-3.1 2.8-4.9 3.8h-.2l2.8-8.1h.2c1.8-.9 3.5-2.2 4.9-3.8"/><path class="st10" d="M189.3 125.4l-2.8 8.1c-6.8 3.6-14.1 6.3-21.6 8h-.6c-.5.1-1 .1-1.6 0l2.8-8.1c.5.1 1 .1 1.6 0 .2 0 .4-.1.6-.1 7.6-1.7 14.8-4.4 21.6-7.9z"/><path class="st10" d="M165.6 133.4l-2.8 8.1-1.1-.3 2.8-8.1c.4.2.8.3 1.1.3z"/><path class="st10" d="M164.5 133.1l-2.8 8.1c-.3-.1-.6-.2-.9-.4l2.8-8.1c.3.2.6.3.9.4z"/><path class="st10" d="M163.6 132.8l-2.8 8.1c-.3-.2-.6-.3-.9-.6l2.7-8c.3.2.6.4 1 .5"/><path class="st10" d="M165 132.3l-2 9.2c-2.7-.5-3.9-1.7-4.2-2.1-.3-.3-.5-.7-.6-1.2-.1-.4-.1-.9.1-1.3l2.8-8.1c-.1.4-.1.9 0 1.3s1.1.6 1.4 1c.3.4.7.8 1.1 1.1"/><path class="st11" d="M187.4 115.5l-2.8 8.1v-.3s0-.1-.3-.3l2.8-8.1.3.3v.3zm-.4-.6l-2.8 8.2-.5-.3-.3-.3 2.8-8.1.4.2.4.3"/><path class="st11" d="M186.2 114.4l-2.7 8.1c-.7-.3-1.5-.6-2.3-.9l2.8-8.1c.7.2 1.5.5 2.2.9"/><path class="st11" d="M189.3 114.4l-8.2 7.3-1-.3c-2.2-.6-4.5-1.1-6.7-1.4l-2.3-9.3c2.3.3 9.6 1.9 11.8 2.6l.9.3M72.3 125.4l-2.8 8.1c-1.1.6-2.1 1.3-3 2.1l-.6.6 2.7-8.2.7-.7c.9-.8 1.9-1.3 3-1.9z"/><path class="st11" d="M68.7 128l-2.8 8.1c-.3.3-.6.7-.8 1.1l2.8-8.1c.3-.4.5-.8.8-1.1m-.8 1.1l-2.8 8.1 2.8-8.1z"/><path class="st10" d="M149.2 135.5l-2.7 8.8c-.2.2-1.1 1.1-1.6 1.1l-1.6-7.7c.1-.2 5.9-2.2 5.9-2.2z"/><path class="st10" d="M148.1 137.1l-2.8 8.1c-.4.2-.9.4-1.4.5-3.2.5-6.6 1-10.1 1.4-9.8 1.2-19.6 1.9-29.5 2.1-8.2.2-16.4-.1-24.6-1l-3.1-.4 2.8-8.1 3.1.4c8.2.9 16.4 1.2 24.6 1 9.9-.2 19.7-.9 29.5-2.1 3.6-.4 6.9-.9 10.1-1.4.5-.1 1-.2 1.4-.5z"/><path class="st10" d="M82.8 140.2l-6.2 7.7c-3.2-.5-6.3-1.1-9.4-2.1l-.6-.2 2.8-8.1.6.2c3.1.9 9.6 2 12.8 2.5z"/><path class="st10" d="M72.3 138.1l-5.7 7.6c-1.4-.5-2.8-1-4.1-1.7l2.8-8.1c1.4.6 5.6 1.7 7 2.2z"/><path class="st10" d="M65.4 135.8l-2.8 8.1-1-.6c-.5-.3-1.1-.6-1.6-1l2.8-8.1c.5.4 1 .7 1.6 1l1 .6z"/><path class="st10" d="M62.8 134.3l-2.8 8.1c-1.3-.9-2.3-2-3.1-3.4-.4-.7-.7-1.5-.7-2.3-.1-.8 0-1.6.3-2.4l2.8-8.1c-.3.8-.3 1.6-.3 2.4.1.8.3 1.6.7 2.3.7 1.4 1.8 2.5 3.1 3.4z"/><path class="st11" d="M176.2 111.8l-2.8 8.1c-2.3-.3-5-.6-7.9-.9-15.4-.9-30.9-.4-46.2 1.6-9.1 1.1-18.1 2.6-27 4.7-6.5 1.5-12.9 3.5-19.1 6.1-1.3.6-2.6 1.2-3.8 1.9l2.8-8.1c1.2-.7 2.5-1.2 3.8-1.8 5.8-3.4 12.3-5.4 19.1-6.2 8.9-2 17.9-3.6 27-4.6 15.3-2 30.9-3.1 46.3-2.2 3.6-1.1 5.9.2 7.7 1.4"/><path class="st16" d="M118.8 106.2c-15 1.6-29.8 4.9-44.1 9.7-4.4 1.5-8.6 3.6-12.3 6.4-1.3 1-2.3 2.3-3 3.8-.3.8-.4 1.6-.4 2.5.1.8.3 1.6.7 2.4 1.1 1.8 2.7 3.3 4.6 4.4 1.8 1 3.7 1.7 5.7 2.3 4.1 1.2 8.2 2 12.4 2.5 8.2.9 16.4 1.2 24.6 1 9.9-.2 19.7-.9 29.5-2.1 3.6-.4 6.9-.9 10.1-1.4 1.1-.2 1.8-.7 2.2-1.3.4-.7.4-1.5-.1-2.4-.7-.9-1.5-1.6-2.6-2.1-1-.4-2.2-.6-3.3-.5-3.2.5-6.5 1-10.1 1.4-15.2 2-30.6 2.5-45.9 1.6-5-.3-9.9-1.1-14.7-2.3-1.2-.3-2.5-.8-3.6-1.4h-.1c-.3-.2-.4-.4-.6-.7v-.1c0-.1-.1-.3 0-.7.3-.7.8-1.3 1.4-1.7 2.1-1.7 4.4-3.1 6.9-4m42.7-17.3c9.8-1.2 19.6-1.9 29.5-2.1 8.2-.2 16.4.1 24.6 1 4.2.5 8.4 1.3 12.5 2.5 2 .6 3.9 1.3 5.6 2.3 1.9 1 3.5 2.5 4.6 4.4l.7 3.3v.1c-.1 1-.5 2-1.1 2.8-1.5 2-3.5 3.7-5.7 4.8-6.9 3.6-14 6.2-21.5 7.9l-.2.1c-.2.1-.4.1-.6.1-1 .1-2.1-.1-3-.4-1-.4-1.8-.9-2.5-1.7-.3-.3-.6-.7-.7-1.2-.1-.4-.1-.9.1-1.3s.4-.8.8-1.1c.4-.3.7-.4 1.2-.5 5-1.2 9.9-2.7 14.6-4.6 3-1.1 5.8-2.6 8.3-4.6.7-.5 1.2-1.3 1.4-2.1v-.3s0-.2-.8-.6c-1.1-.6-2.3-1.1-3.6-1.4-4.8-1.2-9.7-2-14.6-2.3-15.4-.9-30.9-.4-46.2 1.6-9.1 1-18.1 2.6-26.9 4.6-6.5 1.5-12.9 3.5-19.1 6.1m120.1-6"/><path class="st2" d="M131.3 221.4l-11.7-5.8c5.6-.9 12.2-2.4 17.4-4.5l10.5 5.7c-5.2 2.2-10.6 3.7-16.2 4.6zm-18-.5l-10.5-5.7h.2l10.5 5.7h-.2z"/><path class="st2" d="M113.4 221l-10.5-5.7.9.3 10.5 5.7-.9-.3z"/><path class="st2" d="M114.3 221.3l-10.5-5.8h.6c5.4.7 11 .7 16.4 0l12.5 6.7c-5.5.7-13.8 1.8-19.2 1.1l.2-2"/><path class="st10" d="M211.9 84.3l-6.4 13c-3.7 2.1-7.6 3.8-11.5 5.3-14.2 5.3-34.6 9.9-58.7 12.9-13.1 1.7-26.3 2.6-39.5 2.9-10.9.3-21.8-.1-32.7-1.3-1.4-.2-2.8-.3-4.1-.6l-3.6-10.1c1.3.2 8.9 1.5 10.4 1.6 10.9 1.2 22 1.8 32.9 1.4 14.1-2.5 26.8-3.7 39-3.5 24.1-5.4 44.9-8 59-11.4 4-1.4 14-6.7 17.7-8.8"/><path class="st20" d="M109.1 229l-10.5-5.7c-2-1.2-3.7-3-4.9-5.1-1.1-2.1-1.7-4.5-1.6-6.8l10.6 5.7c-.1 2.4.5 4.7 1.6 6.8 1.1 2.2 2.8 3.9 4.8 5.1"/><path class="st10" d="M216.8 80.9L214 89l-.1.4-.1.3 2.8-8.2.1-.3.1-.3m-.3.6l-2.8 8.1c-.5 1-1.1 1.9-1.8 2.7l2.8-8.1c.7-.8 1.3-1.7 1.8-2.7z"/><path class="st10" d="M214.7 84.3l-2.8 8.1c-.6.6-1.2 1.2-1.9 1.8-1.5 1.2-3 2.2-4.6 3.1l2.8-8.1c1.6-.9 3.2-2 4.6-3.1.7-.5 1.3-1.1 1.9-1.8zm-142.4 24l-13.4 8.2c-4.1-.6-8.2-1.4-12.2-2.7l-.9-.3 2.8-8.1.9.3c4.3.2 9.6-2.7 13.2-.3"/><path class="st10" d="M54.3 106.9l-8.4 6.6c-1.7-.5-3.4-1.2-5-2l2.4-8.4c4.2 1.8 6.6 2.7 11 3.8z"/><path class="st10" d="M43.7 103.2l-2.8 8.2c-.5-.2-.9-.5-1.3-.7-.7-.4-1.3-.8-1.9-1.2l2.8-8.1c.6.4 1.3.9 1.9 1.2.4.2.8.4 1.3.6"/><path class="st11" d="M208.5 79.5l-3.3 6.6c.1-.2.2-.5.2-.8 0-.3-.1-.5-.2-.8-.2-.4-2.3-.9-2.7-1.2 1-1.4 1.2-3.7-.5-12.1.4.2 8 4.6 8.2 4.9.1.3-.5 2.5-.5 2.7s-.4 1.4-.5 1.6"/><path class="st11" d="M207 75.5l-2.8 8.1c-.3-.2-.5-.4-.8-.5l2.8-8.1c.3.1.6.3.8.5zm-.8-.6l-2.8 8.1-3.2-1.9 5.3-6.6c.3.1.5.3.7.4"/><path class="st11" d="M205.6 74.6l-2.8 8.1c-1-.5-6.4-2.3-7.5-2.6l7.1-6.7c1.1.4 2.2.8 3.3 1.3"/><path class="st11" d="M202.3 73.3l-2.7 8.2-1.4-.4c-3.1-.9-11.2-2.2-14.4-2.7l7.7-7.4c3.2.5 6.4 1.1 9.5 2l1.3.3"/><path class="st11" d="M191.4 70.9l-2.8 8.1c-3.2-.5-6.7-.9-10.6-1.2-20.8-1.2-41.6-.4-62.2 2.3-4.6.6-9 1.2-13.3 1.9l2.8-8.1c4.3-.6 8.7-1.3 13.3-1.9 20.7-4 41.5-3.5 62.4-2.3 3.9.3 7.4.7 10.6 1.2"/><path class="st11" d="M105.3 73.8l-2.7 8.1c-.6.1-1.1.1-1.7 0l2.8-8.1c.6.1 1.1.1 1.6 0m-1.7 0l-2.8 8.1-1.2-.3 2.8-8.1c.5.1.8.2 1.2.3z"/><path class="st11" d="M102.5 73.5l-2.8 8.1c-.3-.1-.6-.2-.9-.4l2.8-8.1.9.4z"/><path class="st11" d="M101.6 73.1l-2.8 8.1c-.3-.1-.6-.3-.9-.5l2.8-8.1.9.5z"/><path class="st11" d="M143.2 68.5L98 80.7c-.5-.4-1-.9-1.3-1.4-.2-.3-.3-.7-.4-1s0-.7.1-1.1l2.8-8.1c-.1.4-.1.7-.1 1.1.1.4.2.7.4 1 .3.5 1.5 1 2.1 1.4m-7.3 2.9l-2.8 8.1c-.4.2-.8.3-1.2.4-9.4 1.8-18.6 4.1-27.7 7.1-4.9 1.6-9.6 3.6-14 6l2.8-8.1c4.5-2.5 9.2-4.5 14-6 9.1-3 18.3-5.3 27.7-7.1.4-.1.8-.2 1.2-.4z"/><path class="st11" d="M51.3 89.1L51 96c-1 .6-4.4 2.4-5.3 3.1-.8.6-1.6 1.3-2.3 2l2.8-8c.4-1.1 1.1-1.9 2.3-2.1.9-.7 1.8-1.3 2.8-1.9M46.2 93l-2.8 8.1c-.4.5-.8 1-1.1 1.6l2.8-8.1c.2-.5.6-1.1 1.1-1.6z"/><path class="st11" d="M45.1 94.6l-2.8 8.1-.1.3 2.7-8.1.2-.3"/><path d="M106.6 205.9l-10.5-5.7 3.6-2.9 10.5 5.7-3.6 2.9z" fill="#9c5061"/><path class="st20" d="M105.4 223.5l-13.3-12.1v-9.2l13.3 4.3v17z"/><path class="st16" d="M138.2 107.7c19.9-2.1 39.5-6.3 58.4-12.5 5.8-1.9 11.3-4.6 16.3-8.2 1.7-1.3 3.1-2.9 4-4.9.4-1 .6-2.1.5-3.1-.1-1.1-.4-2.1-1-3-1.5-2.3-3.6-4.2-6.1-5.5-2.4-1.2-4.9-2.2-7.5-2.9-5.4-1.5-10.9-2.5-16.5-3.1-10.8-1.1-21.7-1.5-32.6-1.2-13.1.3-26.1 1.2-39 2.8-4.7.5-9.2 1.2-13.4 1.9-1.4.2-2.4.9-2.9 1.7-.5.8-.5 1.9.2 3 .9 1.1 2 2 3.4 2.6 1.4.6 2.8.8 4.3.6 4.2-.6 8.6-1.3 13.4-1.9 20.1-2.6 40.5-3.3 60.8-2.2 6.6.3 13.1 1.3 19.4 2.9 1.7.4 3.3 1 4.8 1.8l.2.1c.4.2.5.5.8.8l.1.1c.1.1.1.4-.1.9-.4.8-1 1.6-1.8 2.2-2.8 2.2-5.8 3.9-9.1 5.1-8.2 3.3-16.7 5.9-25.3 7.8a359.3 359.3 0 01-35.7 6c-20.3 2.6-40.7 3.4-61.2 2.2-6.5-.4-13-1.3-19.4-2.9-1.6-.4-3.2-1-4.7-1.7-1-.5-1-.8-1-.8v-.4c.2-1.1.9-2 1.8-2.7 3.3-2.5 7-4.5 11-5.9 6.3-2.4 12.8-4.4 19.3-5.9.7-.1 1.2-.3 1.6-.6.5-.4.8-.8 1-1.4.2-.5.2-1.1.1-1.7-.1-.6-.5-1.1-.9-1.5-.9-1-2-1.7-3.3-2.2-1.3-.5-2.6-.7-4-.6-.3 0-.5.1-.8.1H73c-10 2.2-19.4 5.6-28.5 10.2-2.9 1.5-5.5 3.6-7.5 6.2-.8 1.1-1.3 2.3-1.5 3.6v.1l1 4.2v.1c1.5 2.3 3.6 4.2 6.1 5.5 2.4 1.2 4.9 2.2 7.5 2.9 5.4 1.5 10.9 2.6 16.5 3.1 10.8 1.1 21.7 1.5 32.6 1.2 13-.4 26-1.3 39-2.9M35.5 93.5"/><path class="st20" d="M104.1 208.8L92 202.2 7.7 77.6l10.5 5.7 85.9 125.5z"/><path class="st5" d="M19.2 77.1L8.7 71.4l.1-.1 10.5 5.6s-.1 0-.1.2"/><path class="st0" d="M19.3 76.9L8.8 71.2l.5-.4 10.5 5.7c-.2.2-.3.3-.5.4"/><path class="st6" d="M19.8 76.6L9.3 70.9c.2-.1.4-.3.6-.3l10.5 5.7c-.2 0-.4.2-.6.3z"/><path class="st7" d="M20.4 76.2L9.9 70.5c.4-.2.7-.3 1.1-.3.5-.1 1-.1 1.4 0L23 76c-.5-.1-1-.1-1.4 0-.5 0-.8.2-1.2.2"/><path class="st6" d="M23 76l-10.5-5.7c.2.1.5.1.7.2l10.5 5.7c-.3-.1-.5-.2-.7-.2z"/><path class="st0" d="M23.6 76.2l-10.5-5.7 10.5 5.7h-.1.1z"/><path d="M238 45.1l-85.4 149.6c-.5.8-.7 1.7-.6 2.6v12.9c0 1.4-.3 2.8-1.1 4-.6 1-1.5 1.9-2.6 2.5-5.1 2-11.9 3.8-17 4.7-5.4.7-11 .7-16.4 0-1.3-.2-2.4-.9-3.1-1.9-.8-1-1.1-2.3-1-3.5v-10.7c0-.8-.4-1.6-.8-2.3L24.9 77.4c-.4-.5-.9-1-1.5-1.2-.6-.3-1.3-.4-1.9-.3-.9.1-1.7.6-2.3 1.2-.9.7-1.5 1.8-1.7 2.9-.2 1.2.1 2.4.8 3.3l84.4 124.5v9.2c0 6.8 4.1 12.2 10.2 13.3 6 .8 12.2.8 18.2 0 6.4-1 17.6-3.3 22.6-7.7 1.4-1.2 2.6-2.5 3.6-4.1 1.9-2.9 2.9-6.2 2.9-9.6v-11.8L244.8 49l-6.8-3.9z" fill-rule="evenodd" clip-rule="evenodd" fill="#e87891"/><defs><filter id="Adobe_OpacityMaskFilter_1_" filterUnits="userSpaceOnUse" x="17.2" y="44.8" width="227.8" height="186.4"><feColorMatrix values="1 0 0 0 0 0 1 0 0 0 0 0 1 0 0 0 0 0 1 0"/></filter></defs><mask maskUnits="userSpaceOnUse" x="17.2" y="44.8" width="227.8" height="186.4" id="path-131-inside-2_1_"><path d="M238 45.1l-85.4 149.6c-.5.8-.7 1.7-.6 2.6v12.9c0 1.4-.3 2.8-1.1 4-.6 1-1.5 1.9-2.6 2.5-5.1 2-11.9 3.8-17 4.7-5.4.7-11 .7-16.4 0-1.3-.2-2.4-.9-3.1-1.9-.8-1-1.1-2.3-1-3.5v-10.7c0-.8-.4-1.6-.8-2.3L24.9 77.4c-.4-.5-.9-1-1.5-1.2-.6-.3-1.3-.4-1.9-.3-.9.1-1.7.6-2.3 1.2-.9.7-1.5 1.8-1.7 2.9-.2 1.2.1 2.4.8 3.3l84.4 124.5v9.2c0 6.8 4.1 12.2 10.2 13.3 6 .8 12.2.8 18.2 0 6.4-1 17.6-3.3 22.6-7.7 1.4-1.2 2.6-2.5 3.6-4.1 1.9-2.9 2.9-6.2 2.9-9.6v-11.8L244.8 49l-6.8-3.9z" fill-rule="evenodd" clip-rule="evenodd" fill="#fff" filter="url(#Adobe_OpacityMaskFilter_1_)"/></mask><path d="M152.6 194.7l-.2-.1.2.1zM238 45.1l.1-.2-.2-.1-.1.2.2.1zm-86.1 152.2h.2-.2zm0 12.9h-.2.2zm-1.1 4l-.2-.1.2.1zm-2.5 2.6l.1.2-.1-.2zm-17 4.6v.2-.2zm-16.4 0v.2-.2zm-3.1-1.9l.2-.1-.2.1zm-1-3.6h.2-.2zm0-10.6h-.2.2zm-.8-2.3l.2-.1-.2.1zM24.9 77.4l.2-.1-.2.1zm-1.5-1.2l-.1.2.1-.2zm-1.9-.3v-.2.2zm-2.3 1.2l.1.2-.1-.2zM17.5 80h-.2.2zm.7 3.4l.2-.1-.2.1zm84.4 124.5h.2v-.2l-.2.2zm10.2 22.5v.2-.2zm18.2 0v.2-.2zm22.6-7.6l.1.2.1-.1-.1-.1h-.1zm0-.1l-.1-.2-.1.1.1.1h.1zm3.7-4l-.2-.1.2.1zm2.9-9.7h.2-.2zm0-11.7l-.2-.1v.1h.2zM244.8 49l.2.1V49l-.2-.1v.1zm-92.1 145.8l85.4-149.6-.3-.2-85.4 149.6.3.2zm-.6 2.5c0-.9.2-1.8.6-2.5l-.3-.2c-.5.8-.7 1.8-.7 2.7h.4zm0 12.9v-12.9h-.4v12.9h.4zm-1.1 4.1c.7-1.2 1.1-2.7 1.1-4.1h-.4c0 1.4-.3 2.7-1 3.9l.3.2zm-2.6 2.6c1.1-.6 2-1.5 2.6-2.6l-.3-.2c-.6 1-1.5 1.9-2.5 2.5l.2.3zm-.2-.3c-5.1 2-11.9 3.8-16.9 4.6l.1.4c5.1-.8 11.9-2.7 17-4.7l-.2-.3zm-16.9 4.6c-5.4.7-10.9.7-16.3 0l-.1.4c5.5.7 11 .7 16.4 0v-.4zm-16.4 0c-1.2-.2-2.3-.8-3-1.8l-.3.2c.8 1.1 2 1.8 3.3 2v-.4zm-3-1.8c-.7-1-1.1-2.2-.9-3.4h-.4c-.2 1.3.2 2.6 1 3.7l.3-.3zm-.9-3.5v-10.7h-.4v10.7h.4zm0-10.6c0-.9-.4-1.7-.8-2.4l-.3.2c.4.7.8 1.4.8 2.2h.3zm-.8-2.4L25.1 77.3l-.3.2 85.1 125.6.3-.2zM25.1 77.3c-.4-.6-.9-1-1.6-1.3l-.2.4c.6.3 1.1.7 1.4 1.2l.4-.3zM23.5 76c-.6-.3-1.4-.4-2-.3l.1.4c.6-.1 1.3 0 1.8.2l.1-.3zm-2-.3c-.9.1-1.8.6-2.4 1.3l.3.3c.6-.6 1.4-1 2.2-1.1l-.1-.5zm-2.4 1.2c-1 .8-1.6 1.9-1.8 3.1l.4.1c.2-1.1.8-2.1 1.6-2.8l-.2-.4zM17.3 80c-.2 1.2.1 2.5.8 3.5l.3-.2c-.6-.9-.9-2.1-.7-3.2l-.4-.1zm.8 3.5L102.5 208l.3-.2L18.4 83.2l-.3.3zm84.3 124.4v9.2h.4v-9.2h-.4zm0 9.2c0 6.8 4.1 12.4 10.3 13.5l.1-.4c-6-1-10-6.4-10-13.1h-.4zm10.4 13.5c6.1.8 12.2.8 18.3 0l-.1-.4c-6 .8-12.1.8-18.2 0v.4zm18.3 0c3.2-.5 7.6-1.3 11.8-2.6 4.2-1.2 8.3-2.9 10.8-5.2l-.3-.3c-2.4 2.2-6.5 3.8-10.7 5.1-4.2 1.2-8.6 2.1-11.8 2.5l.2.5zm22.7-7.9l-.4.2.4-.2zm3.3-4.1c-1 1.5-2.2 2.9-3.6 4l.3.3c1.4-1.2 2.7-2.6 3.7-4.1l-.4-.2zm2.9-9.6c0 3.4-1 6.7-2.9 9.5l.3.2c1.9-2.9 2.9-6.3 2.9-9.7h-.3zm0-11.7V209h.4v-11.8h-.4zm84.6-148.4L160 197.2l.3.2 84.6-148.2-.3-.3zm-6.7-3.6l6.8 3.9.2-.3-6.8-3.9-.2.3z" mask="url(#path-131-inside-2_1_)"/><path d="M18.2 83.4L7.7 77.6c-.5-.6-.7-1.2-.8-2-.1-.7 0-1.5.3-2.1l10.5 5.6c-.3.7-.4 1.4-.3 2.1.1.8.4 1.5.8 2.2" fill="#793e4b"/><path class="st9" d="M17.7 79.2L7.2 73.5c.1-.2.2-.5.3-.7L18 78.6l-.3.6"/><path class="st3" d="M18 78.6L7.5 72.8c0-.2.2-.4.3-.6L18.3 78c0 .2-.2.4-.3.6z"/><path class="st4" d="M18.3 78L7.8 72.2l.4-.5 10.5 5.8-.4.5z"/><path class="st5" d="M18.7 77.6L8.2 71.8l.4-.4 10.5 5.7c-.1.2-.3.3-.4.5z"/><path class="st0" d="M19.1 77.2L8.6 71.4l10.5 5.8"/><path class="st10" d="M240.5 39.5l-3.4 8.3c.2-.5.3-1 .3-1.5s-.2-1-.4-1.4l2.5-9.4c.2.4 1.2 2 1.3 2.5 0 .5-.1 1-.3 1.5z"/><path class="st10" d="M239.8 36.8l-2.8 8.1c-.5-.8-1.1-1.4-1.8-1.9l.2-11.8c.7.5 3.9 4.8 4.4 5.6z"/><path class="st10" d="M238 34.9l-2.8 8.1c-.4-.3-.8-.6-1.3-.9l-1-.5 2.8-8.1c.4.2.7.3 1 .5.4.3.9.6 1.3.9z"/><path class="st10" d="M244.8 35.7l-11.9 5.9c-1.5-.8-11.5-4.7-13.1-5.3l11.2-4.8c1.6.6 12.2 3.5 13.8 4.2z"/><path class="st10" d="M235.2 30.3l-7.1 9.4c-.6-.2-1.3-.4-2.1-.6-4.4-1.2-13.2-2.7-17.6-3.4l7.1-7.5c4.5.6 8.1-1.2 12.5 0 .7.1 6.5 1.8 7.2 2.1z"/><path class="st10" d="M215.5 28.1l-2.8 8.1c-4.4-.7-9.4-1.2-14.7-1.6-28.6-1.7-57.4-.6-85.8 3.1-6.3.8-12.4 1.7-18.2 2.6l2.8-8.1c5.9-.9 11.9-1.8 18.2-2.6 28.4-3.7 57.4-5.8 86-4.1 5.3.4 10.1 2 14.5 2.6zM96.8 32.2L94 40.3c-.6.1-1.1.1-1.7 0l2.8-8.1c.5.1 1.1.1 1.7 0z"/><path class="st10" d="M95.1 32.2l-2.8 8.1-1.2-.3 2.8-8.1 1.2.3z"/><path class="st10" d="M104.2 34.5c-5.3 3.8-8.4 7.1-13.1 5.5-.3-.1-1.9-.8-2.1-1.2l4-7.3c.3.2.6.3.9.4"/><path class="st10" d="M93 31.5l-2.8 8.1c-.3-.1-.6-.3-.9-.5l2.8-8.1c.3.2.6.3.9.5z"/><path class="st10" d="M102 30.5l-12.7 8.6c-.5-.4-1-.8-1.3-1.4-.2-.3-.3-.7-.4-1-.1-.4 0-.7.1-1.1l2.8-8.1c-.1.4-.1.7-.1 1.1.1.4.9.1 1.1.5.3.5 1 .6 1.5 1m-10.9 3.5l-2.8 8.1c-.1.2-.2.4-.4.6l2.9-8.1c.2-.2.3-.4.3-.6"/><path class="st10" d="M81.8 34.1L79 42.2c-.2.2-.4.4-.6.5l2.8-8.1c.2-.1.4-.3.6-.5z"/><path class="st10" d="M82 32.5c.1 0 .2-.3.3-.2.5.6-1 5-3.3 10.2-.4.2-.5.5-1.9.7-13 2.4-25.8 5.7-38.3 9.8-6.8 2.2-13.3 5-19.5 8.4l2.8-8.1c6.2-3.4 12.6-7.7 19.4-9.8C54 39.4 66 36.4 79 34c.4-.1 2.6-1.3 3-1.5z"/><path class="st10" d="M27.4 49.7l-8.1 11.8c-1.4.8-2.7 1.6-3.9 2.5-1.2.9-2.3 1.9-3.3 3l2.1-9.5c1-1.1 2.1-2.1 3.3-3 1.3-.9 3.3-.4 4.6-1.2"/><path class="st10" d="M14.9 58.8L12.1 67c-.7.7-1.3 1.6-1.7 2.5l2.8-8.1c.4-1 1-1.8 1.7-2.6z"/><path class="st10" d="M13.2 61.3l-2.8 8.1-.1.5 2.8-8.1c-.1-.1-.1-.3.1-.5m235.5-18.7l-2.9 8.1c0 .2-.1.3-.2.5-.1.1-.1.3-.2.4l2.8-8.1c.1-.1.1-.3.2-.4.1-.1.5-2.4.6-2.5"/><path class="st10" d="M248.6 42.7l-3 8.9c-.6 1.3-1.4 2.5-2.3 3.5l-19.9 4.1c1-1 24.7-16.8 25.3-18.1"/><path class="st10" d="M246 46.9l-2.8 8.1c-.8.8-1.6 1.6-2.5 2.3-1.9 1.6-3.9 3-6.1 4.2l2.8-8.1c2.1-1.2 4.2-2.5 6.1-4.1.9-.7 1.7-1.4 2.5-2.4"/><path class="st10" d="M237.4 53.5l-2.8 8.1c-5.1 2.8-10.3 5.2-15.8 7.2-19.3 7.2-47.4 13.5-80.2 17.6-17.9 2.2-35.8 3.5-53.8 3.9-14.9.4-29.8-.2-44.6-1.9-1.8-.2-3.6-.5-5.4-.7l2.8-8.1c1.7.3 3.6.5 5.4.7 14.8 1.6 29.7 2.2 44.6 1.8 18-.4 35.9-1.7 53.8-3.9 32.8-4 60.9-10.3 80.2-17.5 5.5-2 10.8-4.4 15.8-7.2z"/><path class="st10" d="M48.9 78l-14 9.7c-5.6-.8-11.1-2-16.5-3.6l-1.2-.3 2.8-8.1 1.2.4c6.5-.6 11.9.9 16.5 3.6"/><path class="st10" d="M27.4 75.4l-10.3 8.4c-2.2-.7-4.4-1.6-6.5-2.6l2.8-8.1c2.1 1 4.2 1.9 6.5 2.6"/><path class="st10" d="M13.6 73l-2.8 8.1s-1-.5-1.7-.9c-4.3-2.4-4.4-3.2-4.8-4V61.6"/><path class="st16" d="M111.5 23.2c-6.6.8-12.6 1.7-18.5 2.6-1.1.2-1.8.7-2.2 1.3-.4.7-.4 1.5.1 2.4.6.9 1.5 1.6 2.6 2.1 1 .5 2.2.6 3.3.5 5.9-.9 11.9-1.8 18.2-2.6 28.5-3.7 57.2-4.7 85.8-3.1 9.5.6 18.9 2 28.1 4.4 2.7.7 5.3 1.5 7.8 2.8l.2.1c1.3.6 2 1.5 2.8 2.7l.2.3.2.3c.2.5.1.7.1 1.2 0 .6-.2 1.1-.4 1.6v.1l-.1.2c-.7 1.5-1.6 2.7-2.8 3.7-4 3.2-8.3 5.8-13.1 7.8l-.1.1c-11.6 4.8-23.5 8.7-35.8 11.4-16.5 3.8-33.3 6.8-50.1 8.8-28.5 3.7-57.2 4.7-85.8 3v.1c-9.5-.5-18.8-2-27.9-4.4-2.7-.7-5.2-1.6-7.7-2.9l-.2-.1c-1.3-.6-2.4-1.6-3.1-2.9-.4-.7-.5-1.6-.3-2.4 1-2.7 2.9-4.9 5.4-6.4 7.3-4.8 15.2-8.5 23.5-11.1C54.2 40.7 67 37.4 80 35h.1c.1 0 .2 0 .3-.1.3-.1.6-.2.8-.3.4-.2.7-.6.8-1 .2-.4.3-.8.2-1.3-.1-.4-.2-.8-.5-1.2-.7-.9-1.6-1.5-2.7-1.9-1-.4-2.2-.5-3.3-.3-23 4.6-41.9 10.1-54.6 16.2-5.2 2.2-9.9 5.4-14 9.4-1.4 1.5-2.4 3.3-2.9 5.3-.4 2-.1 4.1.9 5.9 1.7 2.7 4.1 5 6.9 6.5 2.9 1.6 6 2.9 9.2 4.2 1.5.5 16.4 4 21.9 4.4 6.1.5 29.7 1.9 44.6 1.5 18-.4 35.9-1.7 53.8-3.9 80.7-9.4 102-29 102-29 2.1-1.7 3.8-3.8 4.8-6.3.5-1.2.7-2.4.6-3.6-.1-1.2-.5-2.5-1.1-3.5-1.7-2.7-4.1-5-6.9-6.5-2.9-1.6-6-2.9-9.2-3.9-7.2-2.1-14.5-3.5-21.9-4.3-14.8-1.6-29.6-2.3-44.5-1.9-18.1.4-35.9 1.6-53.8 3.8M12 72.1"/></svg>