<svg version="1.1" id="Слой_1" xmlns="http://www.w3.org/2000/svg" x="0" y="0" viewBox="0 0 600 250" xml:space="preserve"><style>.st0{fill:#40689d}.st1{fill:#9a384b}.st2{fill:#904a5a}.st3{fill:#e87891;stroke:#000;stroke-width:.2}.st4{fill:#4875b0}.st5{fill:#b4d1fa;stroke:#000;stroke-width:.25}.st6{fill:#2f527f}</style><path class="st0" d="M218.4 214l-14.6-8c-3-1.8-5.5-4.3-7.2-7.4-1.7-3.1-2.5-6.6-2.4-10.1l14.9 4.8c-.1 3.5.4 10.1 2.1 13.2 1.7 3.2 4.2 5.8 7.2 7.5zm11.1-60.8l-14.6-8 37.3-5.3 14.6 8-37.3 5.3z"/><path class="st0" d="M208.8 196.6l-14.6-8v-18.2l17.4 4.3-2.8 21.9z"/><path class="st0" d="M208.9 178.3l-14.6-8c0-3 .6-5.9 1.6-8.7l25.2-1.5c-1.1 2.9-12.2 15.2-12.2 18.2"/><path class="st0" d="M210.5 169.6l-14.6-7.9c.4-1.2 7.5-13.4 8-14.6l20.1 8c-.6 1-13.1 13.3-13.5 14.5z"/><path class="st0" d="M212 166.1l-14.6-8c.5-.9 1.1-1.9 1.7-2.7l14.6 8c-.6.9-1.2 1.8-1.7 2.7zm1.7-2.7l-14.6-8c.6-.8 1.2-1.6 1.9-2.3l14.6 8c-.7.7-1.3 1.5-1.9 2.3z"/><path class="st0" d="M215.6 161.1l-14.6-8c.6-.8 1.3-1.5 2.1-2.1l14.7 8c-.8.6-1.5 1.3-2.2 2.1"/><path class="st0" d="M217.7 158.9L203 151c.8-.7 1.6-1.4 2.5-2l14.6 8c-.8.6-1.6 1.2-2.4 1.9m2.5-1.9l-14.6-8c1-.7 2.1-1.4 3.2-1.9l14.6 8c-1.1.5-2.2 1.1-3.2 1.9z"/><path class="st0" d="M221.5 157l-12.7-9.9c1.9-.9 8.7-2.3 10.8-2.6l13.2 9.1c-2.1.3-7.5.6-9.4 1.5"/><path class="st1" d="M403.2 155.9l-14.6-7.9c-.5-.3-1-.8-1.3-1.3-3.8-7.3-9.7-13.3-16.9-17.2l15.4 7c7.2 4 12.7 10.9 16.5 18.2.3.6.4.9.9 1.2"/><path class="st2" d="M331.8 233.9l-14.7-8c.5.3 1 .5 1.5.8l14.6 7.9c-.5-.2-1-.5-1.5-.8"/><path class="st1" d="M333.2 234.7l-14.6-8 .7.4c2.3 1.1 4.7 1.9 7.1 2.6l14.6 8c-2.4-.6-4.8-1.5-7.1-2.6l-.7-.4z"/><path class="st1" d="M339.8 238.9l-13.3-9.2c5.6 1.4 11.4 1.7 17 .9 5-.7 9.9-2.2 14.5-4.4l21.5 2.6c0 8.2-16.4 9.1-21.4 9.8-5.6.8-12.7 1.7-18.3.3z"/><path class="st1" d="M372.7 234.1l-14.6-8c2.8-1.3 5.5-2.9 8.1-4.7l14.6 8c-2.6 1.8-5.3 3.4-8.1 4.7z"/><path class="st1" d="M366.4 241.3l-.2-19.8c2.1-1.5 4.1-3 6-4.7l32-3.6c-1.9 1.6-35.7 26.6-37.8 28.1z"/><path class="st1" d="M388.7 226.4l-16.6-9.6c1.8-1.6 3.4-3.2 5-5l17.2 8.5c-1.6 1.7-3.8 4.5-5.6 6.1z"/><path class="st1" d="M375.3 238l1.8-26.2c1.6-1.8 3-3.6 4.4-5.6l27.3-6.8c1.9 5.5-28.8 40.2-33.5 38.6z"/><path class="st1" d="M397.3 215.6l-15.8-9.4c1.5-2.1 2.8-4.2 4-6.4l16.3 7.9c-1.2 2.1-3.1 5.8-4.5 7.9z"/><path class="st1" d="M400.7 210.5l-15.4-8.5c.4-.6.9-3.6 1.2-4.2 1-2.1 2.8-6.5 4.4-11.3l15.5 12.7c-.8 2.2-2.9 4.7-4 6.8-.3.7-1 3.3-1.4 4"/><path class="st1" d="M398.6 220.1l-9.3-28.8c2.4-6.4 3.6-13.1 3.8-20 0-.5.1-1 .3-1.5l16.4 6.5c-.2.5-2.1 2.5-2.1 3-.2 6.9 3.1 14.7-9.1 40.8z"/><path class="st1" d="M407.9 177.9l-14.6-8 .3-.6 14.6 8-.3.6z"/><path class="st1" d="M408.2 177.3l-14.6-8c.4-.6.6-.8.9-.9l14.1 8.5-.3.5"/><path class="st1" d="M408.5 176.9l-14.6-8c.1-.1.2-.3.3-.4l14.6 8c-.1.1-.2.3-.3.4z"/><path class="st1" d="M408.7 176.7l-14.9-7.8c.4-.6.5-.9 1.1-1.1l14.8 8-1.1 1.1"/><path class="st1" d="M409.2 176l-14.6-8 .4-.4 14.6 8-.4.4z"/><path class="st1" d="M409.8 176.3l-14.8-8.6.6-.4 14.6 8c-.2.1.4.9.2 1"/><path class="st1" d="M411.4 176.2l-18.1-2.2c-.8-3.3.1-6.8 3.4-6.9.4-.1.8-.1 1.3 0l15.8 8.8c-.4-.1-.8-.1-1.3 0-.4-.1-.7 0-1.1.3m2.1-.5l-15-8.4 15.3 8.5m-56.5-49.9l-13-8.9c6.5-.9 13.2-.6 19.5 1l14.6 8c-6.4-1.6-14.6-1.1-21.1-.1z"/><path class="st1" d="M376 126.4l-12.4-8.5c2.8.7 5.7 1.9 8.3 3.2l.9.4 14.6 8-.9-.4c-2.6-1.3-7.7-2-10.5-2.7z"/><path class="st1" d="M386.6 129.9l-13.5-8.1 1.4.5 14.6 8-2.5-.4zm-58.7 111.2l-14.6-7.9c-23.1-12.5-32.1-42.6-21.6-70.9l14.6 8c-10.4 28.2-1.4 58.3 21.6 70.8"/><path class="st1" d="M307.6 174.4l-15.9-12.2c.9-2.5 2-5 3.2-7.4l1.2-2.2 17.3 4.9-3.8 5.3c-1.2 2.4-2.3 4.8-3.3 7.4"/><path class="st1" d="M310.8 160.5l-14.7-8c1.4-2.6 2.9-5.1 4.6-7.5l16.9 6.2c-1.7 2.4-5.5 6.7-6.8 9.3z"/><path class="st1" d="M315.3 153l-14.6-8c1.6-2.2 3.2-4.4 5-6.4l14.7 8c-1.8 2.1-3.5 4.2-5.1 6.4"/><path class="st1" d="M320.4 146.6l-18.1-3.8c4-5.7 7.2-8.1 9.2-9.9l23.2 1.5c-2 1.8-12.5 10.2-14.3 12.2z"/><path class="st1" d="M326 140.9l-14.6-8c2.2-2 4.5-3.8 6.9-5.5l14.6 8c-2.4 1.7-4.7 3.5-6.9 5.5zm16.1-10.8l-14.6-8c5.3-2.5 10.9-4.2 16.7-5l14.7 8c-5.8.8-11.5 2.5-16.8 5"/><path class="st2" d="M293.1 125.7l-14.6-8 1.5.8 14.6 8-1.5-.8z"/><path class="st1" d="M294.6 126.5l-14.6-8c2.5 1.2 5.1 2.2 7.7 2.9l14.6 8c-2.6-.7-5.2-1.7-7.7-2.9z"/><path class="st1" d="M291.7 132.9l-4-11.5c5.5 1.4 11.3 1.7 16.9.9 5-.7 11.7-3.2 16.2-5.3l12.7 9c-4.5 2.1-7.4 7.1-12.3 7.8-5.6.8-13.6 1.7-19.1.3"/><path class="st1" d="M333.6 125.9l-14.6-8c2.8-1.3 5.4-2.9 8-4.6l25.1.8c-2.6 1.8-15.7 10.5-18.5 11.8z"/><path class="st1" d="M323 133l4-19.7c2.1-1.5 4.1-3 5.9-4.7l14.6 8c-1.9 1.7-22.5 15-24.5 16.4z"/><path class="st1" d="M348.4 117.2l-22.1-3.3c1.7-1.6 10-8.4 11.6-10.2l25.7.7c-1.6 1.7-13.5 11.2-15.2 12.8z"/><path class="st1" d="M343.4 127.9l-5.5-24.2c1.5-1.8 5-6.2 6.4-8.1l25.1-3.2c-1.4 1.8-24.4 33.7-26 35.5z"/><path class="st1" d="M357.5 107l-15.2-9c1.5-2.1 2.8-4.2 4-6.4l15.7 8c-1.2 2.2-3.1 5.3-4.5 7.4z"/><path class="st1" d="M357.7 113.1l-11.6-20.9c1.1-3.4 2.9-6.2 3.9-9l20.5-3.3c-1 2.8-11.4 30.5-12.8 33.2"/><path class="st1" d="M364.6 91.2l-14.6-8c2.4-6.6 3.7-13.7 3.8-20.7 0-18.8-9-34.1-22.7-41.6l15.6 5.8c13.7 7.4 23.3 24.8 23.3 43.8 0 7.1-2.9 14.3-5.4 21m-45.2-75l-14.6-8c6.5-.9 13.1-.6 19.4 1l14.6 8.1c-6.2-1.6-12.8-2-19.4-1.1z"/><path class="st1" d="M337.5 17.6l-13.3-8.1c3.1.8 6.2 1.8 9 3.2l14.6 8.1c-2.8-1.3-7.2-2.4-10.3-3.2z"/><path class="st1" d="M347.8 20.8l-14.6-8 1.7.9 14.6 8-1.7-.9zm-55.7 13.8l-14.6-8c-.5-.3-1-.7-1.3-1.3-.2-.5-.4-1-.4-1.6s.1-1.7.3-2.2l15.9 6.8c-.2.5-1.3 2.6-1.3 3.1 0 .6-.2 1.1 0 1.6.3.5.7 1 1.3 1.3"/><path class="st1" d="M290.6 30l-14.5-8.5c.1-.2 1.2-1.6 2.4-2.2l12.6 10-.3.6"/><path class="st1" d="M291 29.4l-14.6-8c.1-.2.2-.2.3-.3l14.6 7.7-.3.6"/><path class="st1" d="M291.3 28.9l-14.6-7.8.6-.6 14.3 7.9-.3.5"/><path class="st1" d="M291.6 28.5l-14.6-8c.1-.1.2-.3.4-.4l14.6 8-.4.4z"/><path class="st1" d="M277.4 20.2l14.2 11.4 1.6-2.7c.5-.4 7.1-3.8 7.6-4.2l-19-7.6c-1.9 1-2.9 1.7-4.4 3.1z"/><path class="st1" d="M293.8 26.7l-14.6-8c2.9-2 6-3.7 9.2-5.2l31.8 3c-3.1 1.6-23.5 8.2-26.4 10.2z"/><path class="st1" d="M303 21.5l-14.6-8c5.2-2.5 10.8-4.2 16.6-5l33.8 9.1c-5.9.8-30.6 1.4-35.8 3.9zm-13.8 111.4l-14.7-8c-15.7-8.6-26.1-26.1-26.1-47.7 0-8.2 1.5-16.3 4.3-23.9L269 62c-2.8 7.7-4 14.3-4 22.5 3.9 20.8 8.4 39.8 24.2 48.4"/><path class="st1" d="M267.6 62.6l-15.4-8c1.2-3.2 3.2-7.8 4.8-10.8l14.6 8c-1.6 3-2.8 7.6-4 10.8z"/><path class="st1" d="M271.2 52.5l-14.4-8.3.6-1 .4-.6 14.4 8.4-.3.5-.7 1z"/><path class="st1" d="M272.1 51l-14.6-8 .3-.4 14.6 7.9c0 .2-.2.4-.3.5z"/><path class="st1" d="M272.4 50.6l-14.6-7.9c.1-.1.2-.3.4-.4l14.6 8-.4.3zm.4-.4l-14.6-8 .4-.4 14.6 8-.4.4z"/><path class="st1" d="M272.2 51.2l-14.8-8c.4-1 1.3-1.6 2.3-1.7l14.2 8.2-.6.3"/><path class="st1" d="M273.9 49.7l-16.5-6.4s.6-2.3 4.2-1.8l14.6 8c-.8-.3-1.6-.2-2.3.2z"/><path class="st1" d="M276.8 49.5l-15.4-7.9 14.2 8.5"/><path class="st3" d="M271.9 51.5c.3-.6.8-1.1 1.3-1.5s1.2-.6 1.8-.7c.7-.1 1.3 0 1.9.3.8.5 1.4 1.4 1.6 2.3.2 1 0 1.9-.5 2.8-5 9-7.6 19.1-7.6 29.4 0 29.3 21.9 50 49 46.2 27.1-3.8 49.2-30.7 49.2-59.9 0-29.3-22-50-49.2-46.1-8.6 1.3-16.8 4.7-23.7 9.9-.5.4-1.1.6-1.7.7-.6.1-1.2 0-1.8-.3s-1-.7-1.3-1.2c-.4-.9-.5-2-.3-3 .3-1 .9-1.9 1.7-2.5 8-6 17.3-9.9 27.2-11.3 31-4.4 56.1 19.2 56.1 52.8-.1 33.6-25.2 64.2-56.3 68.6-31 4.4-56.1-19.2-56-52.8 0-11.8 3-23.4 8.6-33.7z"/><path class="st1" d="M220.7 229.5l-14.6-8 1.5.8 14.6 8-1.5-.8z"/><path class="st1" d="M222.2 230.3l-14.6-8c2.4 1.2 5 2.1 7.6 2.8l16.4 8.3c-2.6-.2-7-1.9-9.4-3.1z"/><path class="st1" d="M229.8 233.1l-14.6-8c4.4 1.1 8.9 1.5 13.4 1.3 1.2-.1 2.4-.2 3.7-.4 5-.7 9.8-2.1 14.3-4.3l14.6 8c-4.5 2.2-9.3 3.6-14.3 4.3-1.2.2-2.3.3-3.5.4-4.5.3-9.1-.1-13.4-1.3"/><path class="st1" d="M249.6 237.7l-3-16c2.8-1.3 5.4-2.8 7.9-4.6l22.9 3c-2.5 1.8-13.5 8.3-16.2 9.6"/><path class="st1" d="M269 225.2l-14.6-8c2.1-1.5 4.3-3.2 6.2-4.9l14.4 8.2c-2 1.7-3.9 3.3-6 4.7z"/><path class="st1" d="M266.5 232.1l-18.2 2.3 12.2-21.9c1.8-1.6 3.4-3.3 5-5.1l14.6 8c-1.6 1.7-11.9 15.1-13.6 16.7z"/><path class="st1" d="M277.2 221.4l-11.7-14.1c1.6-1.8 3.1-3.7 4.4-5.7l17.6 8.2c-1.4 2-5.2 5.6-6.8 7.4"/><path class="st1" d="M284.5 209.7l-14.6-8.1c1.5-2.1 2.8-4.2 4-6.4l17.6 9c-1.2 2.2-5.5 3.4-7 5.5"/><path class="st1" d="M288.5 203.2l-14.6-8c1.4-2.7 2.7-5.4 3.7-8.2l14.6 8c-1 2.8-2.3 5.5-3.7 8.2"/><path class="st1" d="M292.2 195l-14.6-8c2-5.4 3.2-11.1 3.7-16.9 1.4-20.4-7.8-37.4-22.5-45.4l14.6 8c14.8 8 24 25.1 22.5 45.4-.4 5.8-1.7 11.4-3.7 16.9m-75.4 41.7l-14.6-8c-1.2-.6-2.3-1.3-3.4-2.1-.7-.5-1.1-1.2-1.4-2-.2-.8-.2-1.7.2-2.4l18.2 5.5c-.3.8-3.5 3.9-3.2 4.7.2.8.8 1.5 1.4 2 1 .8 1.6 1.7 2.8 2.3z"/><path class="st1" d="M212.2 230.2l-14.6-8c.1-.2.1-.4.3-.6l14.6 8c-.2.2-.3.4-.3.6z"/><path class="st1" d="M212.4 229.6l-14.6-8 .4-.3.6-.6 14.8 8-.7.9c-.1.1-.5-.1-.5 0"/><path class="st1" d="M212.8 229.1l-15.1-6.6c0-1.1.7-1.6.8-1.7l14.6 8c-.1 0-.2.1-.3.3z"/><path class="st1" d="M213.1 228.6l-14.8-7.5.7-.7 14.4 7.8-.3.4"/><path class="st1" d="M213.4 228.3l-14.2-7.6.4-.4 14.2 7.6-.4.4z"/><path class="st1" d="M213.5 228.4l-14.2-8.4.6-.3 15.5 7.8c-.2.1-1.2.3-1.4.4"/><path class="st1" d="M214.5 227.6l-16.9-5.4c.4-1.4 1.9-2.6 3.3-2.9.4-.1.8-.1 1.3 0l14.6 8c-.4-.1-.9-.1-1.3 0-.3.1-.7.2-1 .3"/><path class="st1" d="M216.8 227.3l-14.6-7.9c.2 0 .4.1.6.2l14.6 8-.6-.3m.6.3l-14.6-8 14.6 8m27.5-106.4l-14.8-8.5c1.4-.2 5.1-.6 6.6-.7 5.2-.3 10.3.2 15.4 1.4l14.6 8.1c-5-1.3-10.2-1.7-15.4-1.4-1.4 0-2.8.2-4.1.4"/><path class="st1" d="M262.7 123l-10.7-9.6c3.1.8 6 1.8 8.9 3.2l14.6 8c-2.9-1.3-9.7-.8-12.8-1.6z"/><path class="st1" d="M275.5 124.7l-14.6-8c.6.3 1.2.6 1.7.9l14.6 8c-.6-.4-1.2-.7-1.7-.9zm-78.4 90.4l-14.6-8c-.6-.3-1.1-.8-1.3-1.5-4-9.2-5.7-19.2-4.9-29.1.5-6.6 2.6-15.1 4.9-21.3l16 7.4c-2.3 6.2-4.1 15.6-4.6 22.2-.8 10-.8 19.7 3.2 28.8.2.7.7 1.2 1.3 1.5z"/><path class="st1" d="M195 165.1l-14.6-8c1.2-3.2 2.6-6.4 4.2-9.4l17.3 4.3c-1.6 3.1-5.8 9.9-7 13.2"/><path class="st1" d="M199.3 155.6l-14.6-7.9c1.4-2.6 2.9-5.1 4.6-7.5l28-3.9c-1.7 2.4-16.7 16.8-18 19.3z"/><path class="st1" d="M203.8 148.2l-14.6-8c1.6-2.2 3.3-4.4 5.1-6.4l25.8-.4c-1.8 2-14.7 12.6-16.3 14.8z"/><path class="st1" d="M208.9 141.8l-14.6-8c1.8-2.1 3.7-4.1 5.8-6l14.6 8c-2 1.8-4 3.8-5.8 5.8"/><path class="st1" d="M207.3 148.7l-7.3-20.8c2.2-2 4.5-3.8 6.9-5.4l16.7 7.2c-2.4 1.7-6.8 4.2-9 6.2"/><path class="st1" d="M221.5 130.5l-14.6-8c2.9-2 5.9-3.8 9.1-5.3l30.6 3.2c-3.1 1.6-22.3 8.1-25.1 10.1"/><path class="st1" d="M230.6 125.3l-14.6-8c5.2-2.5 10.7-4.2 16.4-5l14.6 8c-5.7.8-11.2 2.5-16.4 5z"/><path class="st3" d="M246.8 241.7c29.1-4.1 53.9-31.9 56.1-64.1 2.3-33.8-20.8-59.5-51.8-57.6-1.4.1-2.8.2-4.1.4-29.3 4.1-53.9 31.9-56.1 64.1-.8 10 .9 20 4.9 29.1.3.6.7 1.1 1.3 1.4.6.3 1.2.5 1.8.4.5-.1 1-.3 1.5-.6.9-.5 1.5-1.4 1.8-2.4s.3-2-.1-3c-3.5-8-5-16.7-4.3-25.4 2-28.1 23.6-52.5 49.1-56 .2 0 .5-.1.7-.1.9-.1 1.9-.3 2.9-.3 27.1-1.7 47.4 20.8 45.3 50.3h-.1c-2 28.1-23.6 52.5-48.8 56l-.1.1c-1.2.2-2.4.3-3.6.4-9.1.6-18.1-1.7-25.7-6.7-.6-.4-1.4-.5-2.1-.4-.5 0-1.1.3-1.6.6s-.9.8-1.2 1.3c-.6.8-.8 1.8-.7 2.8.1 1 .6 1.9 1.4 2.5 8.7 5.7 19 8.4 29.3 7.6 1.4-.1 2.8-.2 4.2-.4"/><path class="st4" d="M322.1 67.8l-14.6-8 10.8-1.5L333 66l-10.9 1.8z"/><path class="st0" d="M311.2 117.2l-14.6-8 .1-36.4 14.6 8-.1 36.4zm10.9-73.4l-14.6-8c5-1.2 7.7-1.6 12.6-1.8l14.6 8.3-12.6 1.5z"/><path class="st4" d="M300.8 71.5l-11.4-9.2 7.7-1.1 15.1 8.2-11.4 2.1z"/><path class="st0" d="M304 81.8l-14.6-8V62.3l14.6 8v11.5zm7.3-12.5l-14.6-8V48.9l14.6 8v12.4z"/><path class="st0" d="M312 60.8l-15.3-11.9c0-1.5.3-3 .8-4.5l19.1 3.5c-.5 1.4-4.6 11.4-4.6 12.9z"/><path class="st0" d="M312.1 52.4l-14.6-8c1.7-4.4 5.2-6.5 5.2-6.5L313 50.6l-.9 1.8"/><path class="st0" d="M313 50.6l-14.7-8c.3-.5.5-1 .9-1.4l14.6 8c-.3.5-.6.9-.8 1.4"/><path class="st0" d="M313.8 49.2l-14.6-8c.3-.4.7-.8 1-1.2l14.6 8c-.3.4-.7.8-1 1.2"/><path class="st0" d="M312 54.6L300.2 40c.4-.4 4.4-4.8 11.2-4.8l4.5 11.6-1.1 1.1"/><path class="st0" d="M315.8 46.9l-14.1-7.6 1.1-1.1 14.3 7.7-1.3 1z"/><path class="st0" d="M317.1 46.9l-13.6-8.2c.6-.4 7.8-2.5 8.4-2.8l20.1 7c-.7.3-14.3 2.6-14.8 2.9"/><path class="st0" d="M318.9 44.8l-14.4-7.2c1-.5 1.8-1.5 2.9-1.7l15.8 7.9c-1 .2-3.3.6-4.3 1"/><path class="st5" d="M322.1 67.8l10.8-1.7-1.9 12-8.9 1.3h-.1v36.4l-10.7 1.2V80.6h-.1l-7.1 1.1V70.4l7.1-1h.1V56.9c0-3.1 1.1-6 3.1-8.4s4.7-4 7.7-4.5l12.6-1.7v12.2L323.9 56c-.5.1-1 .4-1.4.8-.3.4-.5.9-.6 1.5v9.5h.2z"/><path class="st6" d="M266.7 203.2l-14.6-8c1.4-.2 2.8-.6 4.1-1.2l14.6 8c-1.2.6-2.6 1-4.1 1.2"/><path class="st6" d="M270.8 202l-18-6.4c.8-.4 5-2.4 5.7-2.9l14.6 8c-.7.5-1.5 1-2.3 1.3"/><path class="st6" d="M273 200.8l-14.6-8c.6-.4 1.1-.8 1.7-1.3l14.6 8c-.6.4-1.2.8-1.7 1.3z"/><path class="st6" d="M262.2 207.8l-3-15.3c.5-.5 1.8-1.9 2.2-2.4l19.8 4.5c-.4.5-18.5 12.8-19 13.2z"/><path class="st6" d="M276 198l-15.2-7.1c.4-.5 3.4-4.5 3.8-5l12.6 10.4c-.3.7-.7 1.2-1.2 1.7z"/><path class="st6" d="M277.3 196.4l-14.6-7.9c.4-.6 1.5-2.6 1.8-3.2l13.9 9.4c-.3.6-.7 1.2-1.1 1.7z"/><path class="st6" d="M273.3 203.9l-9.5-17.3c.4-.7.8-1.5 1.1-2.3l18.4 4c-.3.9-9.6 14.9-10 15.6z"/><path class="st6" d="M278.6 202l-13.9-17.3c.7-1.9 1.3-5.5 1.2-7.8l14.5 9.6c0 2 3.7 5.5 3 7.3"/><path class="st6" d="M281.3 190.6l-15.4-12v-18.2l16.4 4.6-1 25.6z"/><path class="st6" d="M280.5 168.3l-14.6-7.9c0-2.3-.6-4.8-1.7-6.8s-2.8-3.7-4.8-4.9l15.2 7.4c2 1.2 3.7 2.9 4.8 4.9s1.3 5 1.1 7.3"/><path class="st0" d="M262.6 151.2L252.2 140c2.4-.4 4.9-.2 7.2.4l14.6 8c-2.3-.6-4.7-.7-7.1-.4"/><path class="st0" d="M267.6 149.5l-8.2-9.2c1.1.3 2.2.7 3.2 1.2l14.6 8c-1-.5-2.1-.9-3.2-1.2"/><path class="st0" d="M277.2 149.6l-14.5-8 .6.3 14.6 8-.7-.3"/><path class="st6" d="M229.4 208.5l-14.6-8 42-6 13.6 8.5-41 5.5zm-7.3-1.3l-14.6-8 .4.2 14.6 8-.4-.2z"/><path class="st6" d="M222.5 207.4l-13.1-6.7c.7.3-.1-.7.6-.5l14.6 8c-.7-.1-1.4-.4-2.1-.8zm2.2.8l-14.6-8c1.5.4 3.1.5 4.7.3l25.6 9.2c-1.6.2-14.2-1.1-15.7-1.5z"/><path class="st5" d="M266.8 148c11.3-1.6 20.5 7.1 20.5 19.3v18.4c0 12.3-9.3 23.5-20.6 25.1l-37.4 5.2c-11.3 1.6-20.5-7.1-20.5-19.3v-18.3c0-12.3 9.3-23.5 20.6-25.1l37.4-5.3zm13.7 38.5v-18.2c.1-1.8-.2-3.6-.8-5.3-.7-1.7-1.7-3.2-3-4.4-1.3-1.2-2.9-2.1-4.6-2.7-1.7-.5-3.5-.7-5.3-.5l-37.3 5.2c-3.9.8-7.4 2.8-9.9 5.9-2.5 3.1-3.9 6.9-3.9 10.8v18.2c-.1 1.8.2 3.6.8 5.3.7 1.7 1.7 3.2 3 4.4 1.3 1.2 2.9 2.1 4.6 2.7 1.7.5 3.5.7 5.3.5l37.4-5.3c3.9-.8 7.4-2.8 9.9-5.9 2.5-3 3.8-6.8 3.8-10.7"/><path class="st6" d="M257.8 183.2l-14.6-8 1.2-3.3 14.6 8-1.2 3.3z"/><path class="st6" d="M246.6 194.5l-15.3-9.4 11.9-9.9 16.4 7.4-13 11.9z"/><path class="st6" d="M245.4 193.4l-14.7-8.2.6-.1 15.3 8.3h-1.2z"/><path d="M245.3 193.2l-14.6-8 14.6 8z" fill="#70829b"/><path class="st0" d="M242.9 197.6l-14.6-8c-.8-.4-1.4-1.1-1.8-1.9-.4-.8-.7-1.5-.7-2.4l19.1 1.7c0 .9-4.2 7.9-3.8 8.6.4 1 1 1.6 1.8 2z"/><path d="M257.8 182.1l-14.6-8-11.9-6.5 14.6 8 11.9 6.5z" fill="#5a697d"/><path class="st0" d="M240.4 193.3l-14.6-8v-16.4l16.9 4.6-2.3 19.8z"/><path class="st0" d="M240.5 176.9l-14.7-7.8c0-.7.3-1.7.5-2.4l14.6 8c-.3.7-.4 1.5-.4 2.2zm.4-2.2l-14.6-8c.1-.3.2-.6.4-.9l14.6 8c-.2.3-.3.6-.4.9z"/><path class="st0" d="M226.7 180.7v-14.8c0-.3.4-.7.6-.9l15.9 6.3c-.1-.1-16.4 9.1-16.5 9.4z"/><path class="st0" d="M241.7 173.2l-14.6-8 .5-.6 14.6 8-.5.6z"/><path class="st0" d="M242.2 172.6l-14.6-8 .5-.5 14.6 8-.5.5z"/><path class="st0" d="M240.6 174.5l-14.8-5.6c-.5-1.5 2.6-6.5 4.3-5.9l17.3 7.8c-.9.3-5.5 2.2-6.8 3.7z"/><path class="st0" d="M244.1 171.1l-14.6-7.9c.5-.2 1-.4 1.5-.4.6-.1 1.2-.1 1.8 0l14.6 8c-.6-.1-1.2-.1-1.8 0-.5-.1-1 .1-1.5.3"/><path class="st0" d="M247 171.1l-14.4-8.3 1.2.3 14.6 8-.2-.1"/><path class="st0" d="M247.4 170.7l-14.8-7.9c.3.1.7.1 1 .2l14.6 8c-.2-.1-.5-.2-.8-.3z"/><path class="st5" d="M260.3 177.6c.8.4 1.4 1.1 1.8 1.9.4.8.6 1.6.6 2.5 0 1-.2 1.9-.6 2.8-.4.9-1 1.6-1.8 2.2l-11.9 9.9c-.8.7-1.7 1.1-2.8 1.2-.8.1-1.7 0-2.5-.3-.8-.4-1.5-1.1-2-1.8-.5-.8-.7-1.7-.7-2.6V177c0-1 .3-2 .7-2.9.5-.9 1.1-1.7 2-2.3.7-.5 1.6-.9 2.4-1 1-.1 1.9 0 2.8.5l12 6.3zm-2.5 5.6v-.9l-11.9-6.4h-.6c-.1.1-.2.2-.2.3s-.1.2-.1.3v16.4c0 .1 0 .2.1.3s.1.2.2.2h.6l11.9-9.9"/><path class="st6" d="M367.6 208.1l-14.6-8c1.4-.2 2.7-.6 4-1.2l14.7 8c-1.3.6-2.6 1-4.1 1.2"/><path class="st6" d="M354.1 216.1L357 199c.8-.4 1.5-.8 2.2-1.3l18.7 4.8c-.7.5-6.2 5.3-6.9 5.7"/><path class="st6" d="M373.8 205.8l-14.6-8c.6-.4 1.1-.9 1.6-1.3l14.6 8c-.4.5-1 .9-1.6 1.3z"/><path class="st6" d="M375.7 206.7l-14.9-10.3c.5-.4 1-.9 1.4-1.4l21.4-2.3c-.3.5-7.4 13.6-7.9 14z"/><path class="st6" d="M376.9 202.9l-14.6-8c.5-.5.9-1 1.3-1.6l14.6 8c-.5.6-.9 1.1-1.3 1.6"/><path class="st6" d="M373.5 210.4l-10.1-17c.4-.6.8-1.2 1.1-1.8l22.1-.9c-.2.6-12.7 19.1-13.1 19.7z"/><path class="st6" d="M379.3 199.5l-14.6-8c.4-.7.7-1.5 1-2.3l14.6 8c-.3.8-.6 1.6-1 2.3z"/><path class="st6" d="M378.9 202.5l-13.2-13.3c.7-1.9 1.1-3.9 1.1-5.9l16.8 4.4c-.1 2-2.7 7.7-3.3 9.5"/><path class="st6" d="M381.4 191.4l-14.6-8v-18.2l14.6 8v18.2zm-32.5 20.2l-12.8-9.1 16.9-2.4 14.6 8-18.7 3.5z"/><path class="st6" d="M384.8 183.8l-18.1-18.6c.1-2.3-.5-4.7-1.6-6.7s-2.8-3.7-4.8-4.9l15.2 6.5c2 1.2 4.4 3 5.5 5.1 1.1 2.1 3.9 16.2 3.8 18.6zm-41.4 25.5l-14.6-8 .4.2 14.6 8-.4-.2zm.5.2l-14.6-8c.7.3 1.4.6 2.1.8l14.7 8c-.8-.2-1.5-.5-2.2-.8"/><path class="st6" d="M346 210.3l-14.6-8c1.5.4 3.1.5 4.7.3l14.6 8c-1.5.2-3.1.1-4.7-.3z"/><path class="st0" d="M367.7 152.9l-16.4-7.7c2.4-.3 7.2-.5 9.5.1l14.6 7.9c-2.3-.5-5.2-.7-7.7-.3"/><path class="st0" d="M374.9 153.2l-14.6-8c1.1.3 2.2.7 3.2 1.2l14.6 8c-1-.5-2.1-.9-3.2-1.2z"/><path class="st0" d="M378.1 154.5l-14.6-8 .6.3 14.6 8-.6-.3zm-37.7 61.7l-15.4-8.1c-3-1.8-5.5-4.3-7.2-7.4-1.7-3.1-2.4-7.3-2.2-10.7l15.1 8.5c-.1 3.5.6 6.6 2.3 9.7 1.7 3.1 4.4 6.2 7.4 8zm-5.4-50.7l1.2-18.2 17-2.3 22.2 8.2-40.4 12.3z"/><path class="st0" d="M330.2 198.6l-14.6-8v-18.2l14.6 8v18.2z"/><path class="st0" d="M330.2 180.4l-14.6-4.6c-.2-6.8.9-11.9 2.6-14.8l13.6 10.6c-1 2.8-1.6 5.8-1.6 8.8z"/><path class="st0" d="M331.8 171.6l-14.7-8c.4-1.2.9-2.3 1.5-3.5l14.6 8c-.5 1.2-1 2.3-1.4 3.5"/><path class="st0" d="M333 169.5l-14.8-8.5c.5-.9 1.6-2.6 2.2-3.5l14.6 8c-.5.8-1.5 3.1-2 4z"/><path class="st0" d="M334.2 167.3l-17.6-5.3c.6-.8 5-6.2 5.7-6.9l14.6 8c-.7.7-1.3 1.5-1.8 2.3"/><path class="st0" d="M336.9 163.1l-16.4-6.1c.6-.8 3.1-3.3 3.9-4l14.6 7.9c-.7.6-1.4 1.3-2.1 2.2"/><path class="st0" d="M339 160.9l-7.8-3.4-7.8-3.4c.6-1.1 2.7-2.6 3.5-3.2l18.1 7.2c-.9.7-5.2 2.1-6 2.8z"/><path class="st0" d="M341.5 159l-14.7-8c1-.7 2.1-1.4 3.2-1.9l14.6 8c-1.1.5-2.2 1.2-3.1 1.9"/><path class="st0" d="M343.2 158.7l-14.8-8.5c1.8-2.1 7.9-3 10.6-3.3l13.8 9c-2 .3-7.7 1.9-9.6 2.8z"/><path class="st3" d="M358.9 125.1c9.4-1.4 19 0 27.6 4 9.4 4.4 17 11.8 21.8 21 .4.9.5 2 .3 2.9-.3 1-.8 1.9-1.7 2.4-.5.4-1.1.6-1.7.7-.6.1-1.3 0-1.8-.3-.6-.3-1-.7-1.3-1.3-4.2-8-10.9-14.5-19.1-18.4-7.6-3.5-16-4.7-24.2-3.4-9.3 1.6-18.1 5.5-25.6 11.2s-13.5 13.2-17.5 21.7c-13.5 27.3-5.3 58.4 18.3 69.5 7.6 3.5 16 4.7 24.2 3.5 9.3-1.6 18-5.4 25.5-11.1 7.5-5.7 13.5-13.1 17.5-21.6 4.1-8.2 6.3-17.2 6.4-26.4 0-1 .4-2 1-2.8.7-.8 1.6-1.3 2.5-1.5.5-.1.9-.1 1.4.1.1 0 .3.1.5.2l.6.3c.3.3.6.9.8 1.3.2.4.2.9.2 1.4-.2 10.5-2.7 20.8-7.4 30.2-10.5 21.1-29.6 34.9-49.3 37.6-9.4 1.4-19 0-27.6-4-27-12.8-36.4-48.2-20.9-79.5 10.7-21.1 29.8-34.9 49.5-37.7z"/><path class="st6" d="M355.2 196.3l-10.6-9.7c.9-.1 1.7-.3 2.5-.7l16.1 8.2c-.8.4-6 2.2-6.8 2.3"/><path class="st6" d="M361.7 193.8l-14.6-8c.5-.2 1-.5 1.4-.8l15.8 7.2c-.4.4-2.1 1.4-2.6 1.6"/><path class="st6" d="M360.3 196l-11.8-11 1-.8 16.2 6.1c-.3.3-5.1 5.4-5.4 5.7z"/><path class="st6" d="M364.1 192.2l-14.6-8 .9-.9 15.6 7.8c-.3.3-1.6.8-1.9 1.1z"/><path class="st6" d="M365 191.3l-14.6-8c.3-.3.5-.6.7-1l14.6 8c-.2.4-.4.7-.7 1"/><path class="st6" d="M360.5 199.1l-9.4-16.7c.3-.4.5-.7.7-1.1l22 3.6c-.2.3-13 13.8-13.3 14.2z"/><path class="st6" d="M366.4 191.6l-14.6-10.3c.2-.5 3.1-3.9 3.2-4.4l13.3 10c-.1.4-1.7 4.2-1.9 4.7z"/><path class="st6" d="M367.1 187.8l-14.6-8c.4-1.2.6-2.4.6-3.6.1-1.4 0-2.6-.6-3.9-.7-1.3 2.8.7 1.6 0l9.7 4.6c1.3.7 3.5 1.3 4.2 2.5.7 1.3 1.3 3.3 1.3 4.7-.1 1.3-1.8 2.5-2.2 3.7"/><path class="st0" d="M356.7 165.5l7.8 3.6c-17.8 4.1-17.8 16.6-12.4 31.9l-10.5-4.8c-3-1.7-4.3-3.7-4.5-4.7-2-9.8 1.1-21.1 3.3-23.2 2.4-2.3 7.2-3.9 11.8-3.9 1.5-.1 3 .4 4.5 1.1z"/><path class="st5" d="M359.3 168.8c2-.3 4-.1 6 .5 1.9.6 3.7 1.7 5.2 3.1 1.5 1.4 2.6 3.1 3.3 5 .7 1.9 1 3.9.9 5.9 0 4.4-1.5 8.7-4.3 12.1-2.8 3.4-6.7 5.7-11.1 6.6-2 .3-4 .1-5.9-.5s-3.7-1.7-5.1-3c-1.5-1.4-2.6-3.1-3.3-4.9-.7-1.9-1-3.9-.9-5.9 0-4.4 1.5-8.7 4.3-12.1 2.6-3.5 6.5-5.9 10.9-6.8zm0 25.7c2.4-.5 4.6-1.7 6.1-3.6 1.6-1.9 2.4-4.3 2.4-6.7.1-1.1-.1-2.2-.5-3.3-.4-1-1-2-1.8-2.7-.8-.8-1.8-1.3-2.8-1.7-1.1-.3-2.2-.4-3.3-.3-2.4.5-4.6 1.8-6.1 3.6-1.6 1.9-2.4 4.3-2.4 6.7-.1 1.1.1 2.2.5 3.3.4 1 1 2 1.9 2.7.8.8 1.8 1.3 2.8 1.7.9.4 2 .5 3.2.3"/><path class="st0" d="M376.5 165.4l-14.6-8h.9l14.6 8c0 .1-.6-.1-.9 0z"/><path class="st0" d="M377.4 165.4l-14.6-8h.4L378 166l-.6-.6zm.4.2l-14.6-7.9 14.6 7.9m-2.7 5.1l-14.6-8c-.4-.2-.7-.5-.9-.9s-.3-.8-.3-1.3c0-.4.1-.7.2-1.1l15.6 6.6c-.1.4-1.2 1.9-1.2 2.3 0 .4.1.9.3 1.3.2.4.5.7.9.9"/><path class="st0" d="M374.1 167.3l-14.6-8 .2-.4 14.6 8-.2.4z"/><path class="st0" d="M374.3 167l-14.6-8 .2-.4 14.6 8-.2.4z"/><path class="st0" d="M374.5 167.8l-14.6-9.1 4.4-.5 12.5 7.4-2.1 1.1"/><path class="st0" d="M374.9 166.4l-14.6-8 .3-.3 14.3 7.9-.3.3"/><path class="st0" d="M374.9 166.1l-14.6-7.9.3-.3 14.6 8-.3.2zm.4-.2l-14.6-8 .4-.2 14.6 8-.4.2m.4-.3l-14.6-7.9c.2-.1.5-.2.7-.2l14.6 8c-.2-.1-.4 0-.7.1"/><path class="st5" d="M367.7 152.9c11.4-1.6 20.6 7.1 20.6 19.3v18.2c0 5.9-2.1 11.6-5.9 16.2-3.8 4.6-9 7.7-14.8 8.8l-16.9 2.4c-11.4 1.6-20.6-7.1-20.5-19.3v-18.2c0-12.3 9.3-23.5 20.6-25.1l16.9-2.3zm13.7 38.5v-18.2c.1-1.8-.2-3.6-.8-5.3-.7-1.7-1.7-3.2-3-4.4-1.3-1.2-2.9-2.2-4.6-2.7s-3.5-.7-5.3-.5l-16.9 2.4c-3.9.8-7.4 2.9-9.9 5.9-2.5 3.1-3.9 6.9-3.9 10.8v18.2c-.1 1.8.1 3.6.8 5.3.7 1.7 1.7 3.2 3 4.4 1.3 1.2 2.9 2.2 4.6 2.7 1.7.5 3.5.7 5.3.5l16.9-2.4c3.9-.8 7.3-2.9 9.8-5.9 2.6-3 4-6.9 4-10.8"/><path class="st5" d="M378.9 167.8c0 .7-.2 1.4-.7 2s-1.1 1-1.8 1.1c-.3 0-.6 0-.9-.1s-.6-.3-.8-.5c-.2-.2-.4-.5-.5-.8-.1-.3-.2-.6-.1-.9 0-.7.2-1.4.7-2s1.1-1 1.8-1.1c.3 0 .6 0 1 .1.3.1.6.3.8.5s.4.5.5.8c0 .3.1.6 0 .9z"/></svg>