<svg version="1.1" id="Слой_1" xmlns="http://www.w3.org/2000/svg" x="0" y="0" viewBox="0 0 600 250" xml:space="preserve"><style>.st0{fill:#40689d}.st1{fill:#9a384b}.st2{fill:#793e4b}.st3{fill:#882f40}</style><path class="st0" d="M278.8 33.6L264.9 26c7.8-1.1 15.7-.7 23.4 1.2l13.9 7.6c-7.7-2-15.7-2.4-23.4-1.2zm-35.2 139.6l-15.1-7.9c-18.8-10.2-31.2-31.2-31.2-57.2 0-9.8 1.8-19.6 5.2-28.7l15.7 7.4c-3.4 9.2-4.3 19-4.4 28.8.1 25.8 11 47.4 29.8 57.6"/><path class="st0" d="M216.5 87.2l-13.9-7.6c1.5-3.9 3.3-7.6 5.3-11.3l13.9 7.6c-1.9 3.7-3.6 7.4-5.1 11.3"/><path class="st0" d="M219.1 87.2l-11.3-19c1.7-3 3.5-6.1 5.5-8.9l27.2-2.9c-2 2.8-15.6 22.1-17.3 25.2"/><path class="st0" d="M227.1 66.9l-13.9-7.6c1.9-2.7 3.9-5.3 6.2-7.8l13.9 7.6c-2.3 2.5-4.3 5.1-6.2 7.8"/><path class="st0" d="M225.2 70l-6.1-18.4c2.2-2.5 4.5-4.7 7-7H255c-2.4 2.2-24 19.2-26.1 21.5"/><path class="st0" d="M240 52.2l-13.8-7.6c2.6-2.2 5.3-4.5 8.1-6.4l13.9 7.6c-2.8 2-5.5 4.2-8.1 6.4"/><path class="st0" d="M235.3 62l-1.1-23.8c3.5-2.4 7.1-4.5 10.9-6.3l13.9 7.6c-3.7 1.8-20.2 20-23.7 22.5z"/><path class="st0" d="M251.8 44.6l-6.6-12.8c6.2-2.9 12.8-4.9 19.7-6L292 33c-7.1 1.1-34 8.6-40.2 11.6z"/><path class="st0" d="M291.5 33.7l-3.4-6.5c3.6.9 7.2 2.2 10.6 3.9l13.9 7.6c-3.4-1.7-17.5-4.1-21.1-5z"/><path class="st0" d="M312.6 38.7l-13.9-7.6 2 1 13.9 7.6-2-1z"/><path class="st1" d="M408.1 221.4l-13.9-7.6c.1-.1.2-.3.3-.4l14.2 7.6-.3.4"/><path class="st1" d="M408.7 221l-14.7-6.6c.6-.9.9-1.5 1.5-2.5l13.7 8.3-.5.8z"/><path class="st1" d="M409 220.2l-13.9-7.6c.2-.3.3-.7.4-1l13.9 7.6c-.1.2-.3.5-.4 1"/><path class="st1" d="M409.4 219.2l-13.9-7.6c.2-.6.3-1 .4-1.6l13.9 7.6c0 .5-.2 1-.4 1.6z"/><path class="st1" d="M405.7 223.6l-9.9-13.6.2-1.8 13.9 7.6-4.2 7.8z"/><path class="st1" d="M400.8 232l-14.6-8.5 11.7-14.2 17.8 2.1-14.9 20.6z"/><path class="st1" d="M393.9 235l-11-9.1.8-.3 17.6 6.5-7.4 2.9z"/><path class="st1" d="M397.6 233.2l-13.9-7.6c.3-.1.7-.3 1-.6l20.9 4c-.3.3-7.6 4-8 4.2z"/><path class="st1" d="M398.7 232.6l-13.9-7.6.8-.6 14 7.6-.9.6"/><path class="st1" d="M399.4 232l-14.4-7.3 1.5-1.5 13.5 8.2c-.1.3-.3.5-.6.6z"/><path class="st1" d="M400 231.4l-13.9-7.6.2-.2 13.9 7.6-.2.2zm10.1-15.6l-15.5-2.5c1.9-1.5 1.7-7.1 1.5-8s-.8-1.7-1.5-2.5l15.3 3.4c.7.7-.2 5.7.1 6.6.2 1.1.2 2 .1 3zM395.2 234l-13.9-7.6 1.6-.4 13.9 7.6-1.6.4zm-4.1-.3l-13.9-7.6 13.9 7.6h-.1m.4.1l-13.9-7.6.9.3 13.9 7.5-.9-.3"/><path class="st1" d="M391.5 234.5l-13.1-8c.7.1 1.3.1 2 0 .3 0 .6-.1.9-.2l13.9 7.8c-.3.1-.6.2-.9.2-.7.1-.9.9-1.6.8"/><path class="st2" d="M372.9 234c-.8-.4-2.1-1.7-2.8-2.4l13.9 7.5c.7.7 2.1 1.9 2.9 2.5"/><path class="st1" d="M408.4 210.5l-13.9-7.6-45.5-43 13.9 7.6 45.5 43z"/><path class="st2" d="M363 167.6l-13.9-7.6c-.3-.2-.7-.6-1-.7l13.9 7.6c.4.1.7.4 1 .7z"/><path class="st1" d="M384.5 239.9l-13.9-7.6-45.4-43 15.1 3.7 44.2 46.9zm-29.7-79.6l-11.8-9.7c.7-.2 1.3-.4 2-.4 1.6-.2 3.1-.1 4.7.2l13.9 7.6c-1.6-.3-3.1-.4-4.7-.2-.6 0-3.4 2.3-4.1 2.5z"/><path class="st1" d="M360.2 160l-10.5-9.6c.8.2 1.5.4 2.1.8l13.8 7.6c-.7-.3-1.5-.6-2.1-.8m2.2.8l-13.8-7.6.4.2 13.9 7.6-.5-.2zm-11.7.4l-13.9-7.6 2.9-.9 13.9 7.6-2.9.9z"/><path class="st3" d="M342.4 189l-21.8-13-7.4-10.3 17.8 3.1 11.4 20.2z"/><path class="st1" d="M238.3 181.8l-13.9-7.6 2.2 1.1 13.9 7.6-2.2-1.1z"/><path class="st1" d="M240.6 183.3l-13.9-8.1c3.7 1.8 7.6 3.3 11.7 4.4l17.3 8.5c-4.2-.9-11.4-2.9-15.1-4.8z"/><path class="st1" d="M252.2 187.3l-14-7.6c8.5 2.1 17.3 2.6 26 1.3h.8c7.4-1.1 14.6-3.4 21.5-6.6l14.6 7.5c-6.3 4-12 9.3-19.4 10.5l-9.2 1.5c-8.7 1.2-11.5-3.9-20-6.1"/><path class="st1" d="M283.8 190.6l2.5-16c4.4-2 8.8-4.8 12.7-7.6l23.3 3.6c-.2 6.7-29.6 22.5-38.5 20z"/><path class="st1" d="M313.8 175l-14.8-8c3.3-2.2 6.4-4.7 9.3-7.4l31.5-2.6c-2.9 2.7-22.7 15.8-26 18z"/><path class="st1" d="M323.6 167.6l-15.3-8c2.8-2.5 5.5-5.2 8-8l15.3 8c-2.6 2.8-5.2 5.5-8 8z"/><path class="st1" d="M324.8 171.4l-8.7-19.8c2.5-2.8 4.8-5.8 7-8.9l19.1 5.1c-2 3.1-14.8 20.8-17.4 23.6z"/><path class="st1" d="M331.1 167.9l-7.9-25.2c2.4-3.3 4.4-6.7 6.3-10.3l29.7-15.8c-1.9 3.5-25.8 48-28.1 51.3z"/><path class="st1" d="M345.3 141l-15.6-8.5c2.2-4.3 4.3-8.7 5.8-13.1l15.6 8.5c-1.7 4.4-3.6 8.8-5.8 13.1z"/><path class="st1" d="M344.6 151.9l-9.1-32.6c3.8-10.3 5.8-21.1 6-32.1C341.7 58 328 34.6 307 23l14.7 6.5c20.9 11.5 35.6 35.3 35.4 64.4-.1 11-8.7 47.6-12.5 58zM234 189.6l-13.9-7.6-1.8-1c-.8-.6-1.3-1.3-1.6-2.2s-.3-2.2.7-3.8l13.6 8.7c-.3.9-.4 1.8-.2 2.7s.8 1.7 1.6 2.2l1.6 1"/><path class="st1" d="M231 183.7l-14-7.2c0-1 .4-1.5.4-1.5l13.9 8-.3.7z"/><path class="st1" d="M231.2 183l-13.9-7.6c.7-1.3 1.1-1.2 1.2-1.3l13.3 7.9-.6 1v.1-.1z"/><path class="st1" d="M231.6 182.4l-13.9-7.6c.1-.1 1.2-1.6 2.7-1.9l16.1 7.9c-.1.1-4.8 1.4-4.9 1.6z"/><path class="st1" d="M232.7 187.2L218 174.3l.4-.4 18.3 7.9-4 5.4z"/><path class="st1" d="M232.2 181.5l-13.9-7.6.4-.3 13.9 7.6c.1 0-.4.3-.4.3zm.6-.3l-13.9-7.6.7-.3 13.9 7.6-.7.3z"/><path class="st1" d="M233.4 180.9l-13.9-7.6c.3-.2.8-.3 1.1-.3.4-.1.9-.1 1.3 0l14.9 8c-.4-.1-1.9-.4-2.4-.3-.2-.2-.6-.1-1 .2zm2.6-.4l-14-7.6.6.2 13.9 7.6-.5-.2m.5.3l-13.9-7.6 13.9 7.6zm43.8-165.3l-13.9-7.6h.8c9.6-1.3 19.4-.9 28.9 1.6l14.7 7.9c-9.3-2.4-19.4-2.4-29-1h-.9"/><path class="st1" d="M309.9 17.7l-15.7-8.9c4.5 1.1 10.5 3 14.6 5.1l13.9 7.6c-4.2-2-8.4-2.7-12.8-3.8z"/><path class="st1" d="M322.7 21.5l-13.9-7.6 2.5 1.2 13.9 7.6-2.5-1.2zm16.4 175.3l-13.9-7.6c-1.6-1.6-2.7-3.5-3.4-5.6s-.8-4.4-.4-6.5l15.5 5.8c-.3 2.2-1.8 6.3-1.1 8.4s1.7 4.1 3.3 5.5"/><path class="st1" d="M335.3 184.7l-13.9-7.6.4-3.3 13.9 7.6-.4 3.3zM202.6 83.4l-13.9-7.6c1.8-4.9 3.9-9.8 6.5-14.5l23.9-1.9c-2.5 4.6-14.7 19-16.5 24z"/><path class="st1" d="M209.1 68.9l-13.9-7.6c2.1-3.9 4.4-7.8 7-11.5l13.9 7.6c-2.6 3.7-5 7.5-7 11.5"/><path class="st1" d="M210 75.9l-8-26.1c2.4-3.4 4.9-6.7 7.8-9.9l24.4 1.2c-2.9 3.4-21.2 30-23.5 33.5"/><path class="st1" d="M220.4 57.9l-10.6-17.8c2.7-3.1 5.6-6.1 8.8-8.9l30.9.6c-3.1 2.9-26.2 23.1-29.1 26.1z"/><path class="st1" d="M225.2 50.4l-6.6-19.2c3.3-2.9 6.7-5.7 10.3-8.2l31.1.7c-3.6 2.5-31.6 23.8-34.8 26.7z"/><path class="st1" d="M242.8 30.6L228.9 23c4.4-3 9-5.7 13.8-8l13.9 7.6c-4.8 2.4-9.4 5-13.8 8z"/><path class="st1" d="M247.6 31.9l-4.9-16.7c7.5-3.6 15.5-6.1 23.7-7.3l33.9 9.4c-8.2 1.2-45.1 11-52.7 14.6zm-38.1 134.2l-14-7.5c-.4-.2-.9-.7-1.2-1.1-8.3-13.9-12.6-30-12.2-46.3.1-12 2.4-24 6.6-35.4l25.8-10.7c-4.2 11.3-18.3 41.7-18.4 53.8-.3 16.2 3.9 32.1 12.2 46.1.3.5.7.9 1.2 1.1"/><path d="M396.1 242.2h0m1.7-.4c4.6-1.6 7.8-5.4 7.8-5.4h0l8.1-9.4.1.1-.1-.1h0c2.1-2.6 3.5-5.8 3.9-9.1h0l.2-1.8h0c.4-2.1.2-4.4-.3-6.5-.7-2.1-1.8-4-3.4-5.6h0l-45.3-43h0c-1.2-1.2-2.8-2.1-4.4-2.6-1.7-.6-3.4-.7-5.1-.4h0c-.7.1-1.3.2-2 .4h0l-3 .9h-.1 0l-8.3-8-.1-.1v-.1c11.1-17.2 17.2-37.1 17.5-57.5.4-49.8-36.2-84.6-81.9-78h0-.9c-46.2 7-83.8 53.3-84.3 103.5h0c-.3 16.2 3.9 32.1 12.2 46h0c.3.6.8 1 1.3 1.2.6.2 1.2.3 1.8.2h0c.8-.1 1.5-.4 2.1-.9h0c.9-.7 1.5-1.7 1.7-2.8.2-1.1.1-2.2-.4-3.3-7.6-12.6-11.5-27.2-11.1-41.9.3-45.4 34.6-87.4 76.5-93.9h.7c41.6-5.8 75.1 25.7 74.6 71.1-.4 45.5-34.7 87.5-76.6 93.8h0-.8c-14.4 2.2-29-.4-41.7-7.8h0c-.7-.3-1.3-.4-2-.3-.7.1-1.3.3-1.9.8-.6.5-1 .9-1.3 1.6h0c-.6.9-.8 1.9-.7 3 .2 1 .8 2 1.6 2.6 13.8 8 30 11 45.8 8.5h.8c18-3 34.7-11.5 48.1-24l.1-.1.1.1 8.7 8.2h0v.1l-.4 3.3h0c-.3 2.1-.2 4.4.4 6.5.7 2.1 1.8 4 3.4 5.6h0l45.4 42.9.1.1c1.2 1.1 2.6 1.9 4.3 2.4 1.7.4 3.4.7 5.1.3h0c.7-.1 1.3-.2 2-.4h.1l1.2-.3.4.1h0zm12.4-26.1h0v.1l-.1 1.8h0c-.2 1.5-.8 2.8-1.7 3.9h0l-8 9.7-.1.1-.2.2c-.9.8-1.8 1.6-3.1 2l-1.6.7c-1.5.8-3.1-.1-3.1-.1-.8-.2-1.3-.7-1.9-1.1h0l-45.6-42.8h0c-.7-.7-1.2-1.6-1.5-2.5s-.3-1.9-.2-2.8h0l.6-3.9h0l10.8-13.1h0l3.6-1.1h0c.3-.1.6-.2.9-.2.8-.1 1.5-.1 2.2.1.7.2 1.3.6 2 1h0l45.4 42.9h0c.7.7 1.2 1.6 1.5 2.5.1.7.2 1.7.1 2.6m-68.1-55.4l-7.1 8.4-.1.1.1.1 3.8 3.5 1.1 1.1.8-1 6.3-7.8.1-.1-.1-.1-4.9-4.2h0z" fill="#e87891" stroke="#000" stroke-width=".2"/><path class="st1" d="M340 173.3l-4.9-4.5 6.9-8.2 5.1 4.2-7.1 8.5z"/><path class="st3" d="M347.1 164.7l-5.7-3.4.8-1.1 4.9 4.5z"/><path class="st0" d="M246.9 164.8l-13.9-7.6 1.8.9 13.9 7.6c-.6-.2-1.2-.6-1.8-.9"/><path class="st0" d="M248.6 165.8l-13.9-7.6c2.9 1.5 8.5 3.3 11.7 4l13.9 7.6c-3.1-.8-9-1.6-11.7-4z"/><path class="st0" d="M258 169.3l-14-7.6c6.7 1.7 13.7 2 20.5 1 6.1-.9 11.9-2.6 17.4-5.2l13.9 7.6c-5.5 2.6-11.3 4.4-17.4 5.2-6.7 1-13.7.7-20.4-1z"/><path class="st0" d="M288.1 169.5l-6.2-12.1c3.4-1.6 6.5-3.5 9.6-5.5l21.7 4.2c-3.1 2.1-21.7 11.8-25.1 13.4z"/><path class="st0" d="M305.4 159.5l-13.9-7.6c2.5-1.8 4.9-3.6 7.2-5.7l22.8 5.4c-2.4 2.1-13.6 6.2-16.1 7.9z"/><path class="st0" d="M312.5 153.9l-13.9-7.6c2.1-1.9 4.2-3.9 6.2-6.2l13.9 7.6c-2 2.2-4 4.3-6.2 6.2z"/><path class="st0" d="M314 158.2l-9.4-18.1 1.8-2c1.2-1.5 2.5-3 3.5-4.7l23.4-.2c-1.1 1.6-11.8 10.9-13 12.5-.1-.1-6.3 12.5-6.3 12.5z"/><path class="st0" d="M321.9 145.7l-12-12.2c1.8-2.5 3.4-5.2 4.8-7.9l17 5.5c-1.5 2.7-8 12-9.8 14.6z"/><path class="st0" d="M328.7 133.1l-13.9-7.6c1.7-3.3 3.3-6.5 4.5-10l14.2 7.6c-1.2 3.5-2.7 6.7-4.5 10"/><path class="st0" d="M333.3 123.2l-7.8-2.2-6.4-5.4c3-8.1 4.7-16.5 4.7-25.2.2-12.8-3.7-25.4-11.1-35.8-.4-.6-.7-1.3-.8-2-.1-.8-.2-2.4.8-3.3l13.5 8.8c-.3.7-.4 1.3-.3 2.1 0 .7.2 1.5.7 2 13.9 6.9 11.3 23 11.1 35.8.1 8.6-1.4 17.1-4.4 25.2z"/><path class="st0" d="M326.2 57.9l-13.9-7.6.3-.7 13.9 7.6c-.2.3-.3.5-.3.7z"/><path class="st0" d="M326.4 57.3l-13.9-7.6c.1-.2.2-.3.3-.6l13.9 7.6c-.1.1-.2.3-.3.6zm.3-.6l-13.9-7.6c.1-.1.2-.3.3-.4l14 7.6-.4.4"/><path class="st0" d="M327.2 56.3l-13.9-7.6.3-.4 13.9 7.8-.4.4m.4-.6l-13.9-7.6.4-.4 13.9 7.6-.4.4z"/><path class="st0" d="M327.6 66.9l-13.5-19.1.7-.3 16.7 8.7c.1-.1-3.9 10.7-3.9 10.7z"/><path class="st0" d="M328.1 57.5l-13.3-10.1c.3-.2.8-.3 1.2-.3.4-.1.9-.1 1.5 0l14.6 8.1c-.4-.1-1 .4-1.5.4s-2.2 1.8-2.5 1.9zm3.3-2.8l-14-7.7c.2 0 .4.1.7.2l13.9 7.6c-.2.1-.4 0-.6-.1z"/><path class="st0" d="M331.9 54.9L318 47.4l14 7.6"/><path d="M314.6 50.4l-13.9-7.6-.2-.1c-1.2-.9-2.6-1.7-4-2.5l13.9 7.6c1.3.8 2.7 1.6 4 2.5l.2.1z" fill="#5e6d82"/><path d="M278.8 33.7h0c-37.2 5.2-67.2 42-67.3 82.1s30.1 68.3 67.2 63.2c37.1-5.2 67.3-42 67.3-82.1h0c.2-14.6-4.2-28.9-12.7-40.8-.3-.4-.9-.8-1.5-1-.6-.2-1.2-.2-1.8-.1h0c-.9.1-1.7.6-2.4 1.1h0c-.8.8-1.3 1.7-1.6 2.8-.2 1.1 0 2.2.6 3.1 7.5 10.5 11.5 23.1 11.1 36h0v.4c-.2 17.4-6.4 33.8-17.5 47.2v.1c-10.5 13.1-25.3 21.9-41.8 24.6h0c-7.5 1.2-15.2.7-22.4-1.6-7.3-2.2-13.9-6.1-19.4-11.2h0c-5.6-5.6-10.1-12.2-13-19.7-2.9-7.4-4.4-15.3-4.2-23.3.2-17.4 6.3-34.3 17.4-47.8 10.3-13.1 25.3-21.9 41.8-24.6h0c12.5-1.9 25.2 1 35.7 8 .7.4 1.6.7 2.4.6.7-.1 1.2-.3 1.8-.7.6-.3 1-.9 1.3-1.5h0c.7-.9 1-2 .8-3.1-.1-1.1-.7-2.1-1.6-2.8-11.7-7.9-26.1-11.2-40.2-8.9" fill="#b4d1fa" stroke="#000" stroke-width=".2"/></svg>