<svg version="1.1" id="Слой_1" xmlns="http://www.w3.org/2000/svg" xmlns:xlink="http://www.w3.org/1999/xlink" x="0" y="0" viewBox="0 0 260.1 241.1" xml:space="preserve"><style>.st2{fill:#40689d}.st3{fill:#b4d1fa;stroke:#000;stroke-width:.2}.st6{fill:#862f40}.st7{fill:#9a384b}</style><defs><path id="SVGID_1_" d="M1.8-28l256.8 39v238L1.8 250z"/></defs><clipPath id="SVGID_2_"><use xlink:href="#SVGID_1_" overflow="visible"/></clipPath><g clip-path="url(#SVGID_2_)"><defs><path id="SVGID_3_" d="M99.8 175l95-2v68l-95 2z"/></defs><clipPath id="SVGID_4_"><use xlink:href="#SVGID_3_" overflow="visible"/></clipPath><g clip-path="url(#SVGID_4_)"><path class="st2" d="M185.3 235.8v1.5l-54.5 2.2v-2l54.5-1.7zm-54.5 2.2v1.5c-43.5-6-32-7.6-19.5-62l4-.9c-12.6 53.8-26.7 47.7 15.5 61.4z"/><path class="st3" d="M106.5 205c2.3-7.5 5.2-16 8.1-28.1l39.5-3c-1.6 10.4-3.1 17.6-4.6 23.7-1 4.4-1.1 7.9-1.3 8.6-.3 3.9.3 6.6.7 8.3.5 1.6 2.5 5.9 9 9.4 5.5 2.9 14.6 8.3 27.4 11.9l-54 2.2c-10.9-1.5-18.1-2.8-22.7-4.7-2.3-1-3.9-2.1-5-3.4-1.1-1.4-1.6-3-1.7-5s.3-4.4.9-7.3c.7-2.9 1.7-6.2 2.9-10.2.3-.8.5-1.6.8-2.4z"/><path d="M102.5 224.1c-2.5 0 4.9-32.6 8.9-47.6l42.5-.9c-5.2 26.4-10.1 36.7-.2 45.7-13.6-.4-43.6 2.8-51.2 2.8z" fill="#2f527f" fill-opacity=".3"/></g><path class="st2" d="M246.5 184.3l-9.7-7.8c2.2-.4 6.9-1.7 7.2-1.9l7.2 7.7c-.4.1-4.3 1.9-4.7 2z"/><path class="st2" d="M251.2 182.3l-11.6-6.3c.2-.1.4-.2.6-.4l11.6 6.3-.6.4zm.6-.4l-11.6-6.3c.2-.1.3-.2.5-.4l11.6 6.3c-.2.2-.4.3-.5.4zm.5-.4l-11.6-6.3.4-.4 11.6 6.3-.4.4z"/><path class="st2" d="M252.7 181.1l-11.6-6.3v-.2c.1-.1.1-.2.2-.3l11.6 6.3-.2.3v.2z"/><path class="st2" d="M252.6 181.6l-11.2-7.3c.1-.2.2-.4.3-.5l12.1 5.7c-.1.2-.7 2-.8 2.1"/><path class="st2" d="M253.3 180.1l-11.5-6.3c0-.2.2-.5.3-.7l11.6 6.3c-.1.2-.2.5-.3.7"/><path class="st2" d="M253.6 179.4l-11.6-6.3c.2-.6.3-1.2.3-1.8l11.6 6.3c.1.6 0 1.3-.3 1.8z"/><path class="st2" d="M254.9 183.8l-14.5-7.1 1.9-9.8 11.6 6.3 1 10.6z"/><path class="st2" d="M60.5 192.6s-11.4-10.4-8-10.4c12.6.2 186.6-6.2 186.6-6.2l15.2 7.6-193.8 9z"/><path class="st2" d="M58.4 193.6l-7.7-6.5c-.3-.2-.6-.5-.8-.8s-.2-.7-.3-1.1c-.1-1-1.3-3.5 8.2-2.9l-.3 8.7c-.1.3-.2.6-.2 1s.2.7.4 1.1c.2.3 1.1.6 1.4.7"/><path class="st2" d="M57.3 192.3l-6.5-6.4c0-.1.2-1.1 2-1.4l7.5 4.6c-.1.1-2.6 1.9-2.7 2"/><path class="st2" d="M58 190.8l-7.2-5.9.2-.3 7.2 5.9-.2.3z"/><path class="st2" d="M58.2 190.4l-7.3-5.8v.1l7.5 5.3-.2.4z"/><path class="st2" d="M58.4 190.2l-7.3-5.4.2-.2 7.3 5.4-.2.2z"/><path class="st2" d="M58.6 190l-7.7-3.9 1-1.3 7 4.9-.3.3"/><path class="st2" d="M58.9 189.8l-6.9-5 .4-.2 6.9 5-.4.2z"/><path class="st2" d="M59.6 194.2c-4.7-1.6-6.8-9.4-6.8-9.4.2-.1.4-.2.7-.2l6.4 4.7c1.2 3.2 1.6 5.6-.3 4.9zM43.8 191l-7.3-8c.3-.1.5-.1.8 0l7.8 7.7c-.3-.1-1 .2-1.3.3z"/><path class="st2" d="M44.9 190.6l-8.2-7.9c.1 0 .2.1.4.2l8.2 7.9c-.2-.1-.3-.2-.4-.2zm.3.2l-8.1-7.9 8.1 7.9m-22.5.8L10.5 183l26.3-.1 7.6 8.2-21.7.5zm-2.7-1.3L8.3 183h.1l11.6 7.3"/><path class="st2" d="M20.1 190.4L8.4 183c.2.1.4.2.6.2l11.6 7.3c-.1.1-.3 0-.5-.1z"/><path class="st2" d="M20.7 190.6l-11.6-7.3c.4.1.9 1.1 1.3 1l11.6 6.4c-.5.1-.9.1-1.3-.1m-3.2 4.3l-11.7-7.4c-.5-.3-1-.8-1.5-1.2-.8-.8-1.5-1.8-1.9-2.8-.4-1.2-.6-2.3-.6-3.5l11.6 7.3c0 1.2.2 2.3.6 3.4.4 1.1 1.1 2 1.9 2.9.5.4 1 .8 1.5 1.1"/><path class="st2" d="M13.5 187.5l-11.6-7.3.1-9.3 12.6 3.2-1.1 13.4z"/><path d="M13.6 177.2L3.8 171l244.9-9.5 9.8 6.3-244.9 9.4z" fill="#7f94b1"/><path class="st3" d="M255.9 183.9c-1.4 1.8-3.4 3-5.6 3.5l-190.4 6.8c-.3 0-.6 0-.8-.1-.3-.1-.5-.2-.7-.4s-.4-.4-.5-.7-.1-.6-.1-.8c0-.6.2-1.2.6-1.7.4-.5 1-.8 1.6-.9l190.1-6.8c1.1-.2 2.1-.8 2.8-1.7.8-1 1.2-2.1 1.2-3.4v-4.5h-.1l-235.9 8.2H18v5.5c0 .6.1 1.1.3 1.6.2.5.5 1 .9 1.4.4.4.8.6 1.3.8s1 .2 1.5.1l22.1-.1c.3 0 .6 0 .8.1.3.1.5.2.7.4s.4.4.5.7.1.5.1.8c0 .6-.2 1.2-.6 1.7-.4.5-1 .8-1.6 1l-22.1.1c-1.1.2-2.2.1-3.2-.2s-2-.9-2.7-1.6c-.8-.8-1.5-1.8-1.9-2.8-.4-1.1-.7-2.2-.6-3.3v-10.2l244.9-9.4v9.2c0 2.4-.9 4.8-2.5 6.7z"/><path class="st6" d="M253.8 166.4l-11.6-6.1.3-140.1 11.6 5.3-.3 140.9z"/><path class="st6" d="M254 26.6l-11.6-6.3c0-.8-.2-1.5-.5-2.2-.4-.7-.9-1.2-1.6-1.6l11.7 6.3c.7.4 1.2.9 1.6 1.6s.6 1.4.4 2.2"/><path class="st7" d="M249.5 17.4l-11.7-6.3c1.2-.1 2.6.2 3.2.2l11.6 6.3c-1-.3-2.1-.3-3.1-.2z"/><path class="st7" d="M246.5 19.5l-7-8.4c.5.1 2.1 0 3.3.8l11.6 6.3c-.4-.2-7.4 1.5-7.9 1.3z"/><path class="st7" d="M254.1 18.1l-11.6-6.3.3.2 11.6 6.3-.3-.2zm-117.9 151l-9.1-6.1 115.1-4.5 11.6 6.3-117.6 4.3z"/><path class="st7" d="M18 173l-11.8-5.8L127 163l10.3 5.7L18 173zM16.3 14.5L11.2 3l226.7 8.1 11.6 6.3-233.2-2.9z"/><path class="st7" d="M13.6 177.2l-11.7-6.4.2-156.7c5.1 1.4 7.5 2.9 11.6 6.3l-.1 156.8z"/><path class="st7" d="M13.7 20.5L2.1 14.1c0-1.3 1.8-10.1 13-11l5.1 7c-.5 1.3-6.5 9.1-6.5 10.4z"/><path d="M249.5 17.4c1.2-.2 2.4-.1 3.5.3s2.2 1 3 1.8c.9.8 1.5 1.8 2 2.9.4 1.1.6 2.3.5 3.5v141.9l-122.7 4.5-122.5 5 .3-156.9c0-2.6.9-5.1 2.6-7.1s4-3.4 6.5-3.9l226.8 8zm4.2 147.4l.3-138.2c0-.6-.1-1.2-.3-1.8s-.6-1.1-1-1.5-1-.7-1.5-.9c-.6-.2-1.2-.2-1.8-.2L22.8 14.3c-1.3.3-2.4.9-3.3 2-.8 1-1.3 2.3-1.3 3.6L18 173l117.8-3.7 117.9-4.5" fill="#e87891"/><path d="M249.5 17.4v-.2.2zm9 8.6h-.2.2zm0 141.9v.2h.2v-.2h-.2zm-122.6 4.5v.2-.2zm-122.5 4.9h-.2v.2h.2v-.2zm.3-156.9h-.2.2zm9.1-11v-.2.2zM254 26.6h-.2.2zm-4.5-4.3v-.2.2zm-226.7-8v-.2.2zm-4.6 5.5H18h.2zM18 173h-.2v.2h.2v-.2zm117.9-5.6v-.2.2zM249.5 17.6c1 0 2.7.2 3.4.3l.1-.4c-1-.3-2.5-.3-3.6-.3l.1.4zm3.4.3c1.1.4 2.1 1 3 1.8l.3-.2c-.8-1-2.1-1.7-3.2-2l-.1.4zm3 1.8c.8.8 1.5 1.8 1.9 2.9l.4-.1c-.4-1.1-1.1-2.2-2-3l-.3.2zm1.9 2.9c.4 1.1.6 2.3.5 3.4h.3c.1-1.1-.1-2.5-.5-3.7l-.3.3zm.5 3.4v141.9h.4V26h-.4zm.2 141.7l-122.7 4.5.1.4 122.7-4.5-.1-.4zm-122.6 4.5l-122.5 5 .1.4 122.5-5-.1-.4zm-122.3 5.1l.3-156.9h-.4l-.3 156.9h.4zm.3-156.9c0-2.6.9-5 2.6-7l-.3-.3c-1.7 2-2.6 4.6-2.7 7.3h.4zm2.6-7c1.6-2 3.9-3.3 6.4-3.8l-.1-.4c-2.6.5-5 1.9-6.6 4l.3.2zm6.4-3.8l226.6 8-.1-.4-226.6-8 .1.4zm231 155.2l.3-138.2h-.4l-.3 138.2h.4zm.3-138.2c0-.6-.1-1.3-.3-1.8l-.4.1c.2.5.3 1.1.3 1.7h.4zm-.3-1.8c-.2-.6-.6-1.2-1-1.6l-.2.4c.4.4.6.9.8 1.4l.4-.2zm-1-1.6c-.5-.4-1-.8-1.6-.9l-.1.3c.5.2 1 .6 1.5 1l.2-.4zm-1.6-.9c-.6-.2-1.2-.2-1.9-.2l.1.4c.6-.1 1.1 0 1.7.1l.1-.3zm-1.9-.2l-226.6-8 .1.4 226.7 8-.2-.4zm-226.6-8c-1.3.3-2.5 1-3.4 2l.3.3c.8-1 1.9-1.6 3.2-1.9l-.1-.4zm-3.4 2c-.9 1-1.3 2.4-1.3 3.7h.4c0-1.3.4-2.5 1.3-3.5l-.4-.2zM18 19.8L17.8 173h.4l.3-153.2H18zm0 153.4l118.7-4-.5-.5L18 172.8v.4zm117.8-3.9l118-4.3-.1-.4-118 4.3.1.4z"/><path class="st7" d="M14.2 16.6L2.1 14.1c.2-.5 1-4.2 1.3-4.7L15 15.1c-.3.5-.6 1-.8 1.5z"/><path class="st7" d="M14.7 15.6L2.1 13.8c-.2-.3 1.3-5.9 2.2-6.5l11.5 6.4c-.2.5-.9 1.5-1.1 1.9z"/><path class="st7" d="M15.7 13.9L4.1 7.5c.2-.4 1-1.1 1.3-1.4l11.1 6.7c-.3.6-.6.6-.8 1.1z"/><path class="st7" d="M16.6 12.8L5 6.5c.3-.3.6-.7.9-.9l11.6 6.3c-.4.2-.7.6-.9.9"/><path class="st7" d="M17.5 11.9L5.9 5.6c.3-.3.7-.6 1.1-.9L18.7 11c-.4.3-.9.5-1.2.9"/><path class="st7" d="M18.7 11L7 4.7l1.5-.9 11.6 6.3c-.5.3-1 .6-1.4.9z"/><path class="st7" d="M19.8 10L8.5 3.8c.9-.4 1.8-.7 2.7-.8l11.2 6.2c-.9.1-1.5.3-2.5 1"/></g></svg>