<svg width="48" height="48" fill="none" xmlns="http://www.w3.org/2000/svg"><g filter="url(#filter0_i)"><path d="M-.001 8a8 8 0 018-8h32a8 8 0 018 8v32a8 8 0 01-8 8h-32a8 8 0 01-8-8V8z" fill="#1878F3"/></g><path d="M31.198 48V30.933h5.688l1.423-7.111h-7.111v-2.845c0-2.844 1.425-4.266 4.266-4.266h2.845V9.6h-5.69c-5.226 0-8.533 4.097-8.533 9.955v4.267h-5.688v7.11h5.688V48h7.112z" fill="#fff"/><defs><filter id="filter0_i" x="-4.001" y="-4" width="52" height="52" filterUnits="userSpaceOnUse" color-interpolation-filters="sRGB"><feFlood flood-opacity="0" result="BackgroundImageFix"/><feBlend in="SourceGraphic" in2="BackgroundImageFix" result="shape"/><feColorMatrix in="SourceAlpha" values="0 0 0 0 0 0 0 0 0 0 0 0 0 0 0 0 0 0 127 0" result="hardAlpha"/><feOffset dx="-4" dy="-4"/><feGaussianBlur stdDeviation="4"/><feComposite in2="hardAlpha" operator="arithmetic" k2="-1" k3="1"/><feColorMatrix values="0 0 0 0 0 0 0 0 0 0 0 0 0 0 0 0 0 0 0.15 0"/><feBlend in2="shape" result="effect1_innerShadow"/></filter></defs></svg>