<svg width="48" height="48" fill="none" xmlns="http://www.w3.org/2000/svg"><g filter="url(#filter0_i)"><path d="M-.001 8a8 8 0 018-8h32a8 8 0 018 8v32a8 8 0 01-8 8h-32a8 8 0 01-8-8V8z" fill="#F7931E"/></g><path d="M31.413 24c-1.013 0-3.04 2.027-7.093 2.027-4.054 0-6.08-2.027-7.094-2.027a2.033 2.033 0 00-2.026 2.027c0 1.013.608 1.52 1.013 1.722 1.216.71 5.067 2.331 5.067 2.331l-4.358 5.472s-.81.912-.81 1.621c0 1.115.912 2.027 2.026 2.027 1.014 0 1.52-.71 1.52-.71l4.662-5.37 4.56 5.37s.506.71 1.52.71a2.033 2.033 0 002.026-2.027c0-.608-.81-1.621-.81-1.621L27.36 30.08s3.85-1.621 5.066-2.33c.406-.305 1.014-.71 1.014-1.723A2.033 2.033 0 0031.413 24zM24.319 8.8a7.05 7.05 0 00-7.093 7.093 7.05 7.05 0 007.093 7.093 7.05 7.05 0 007.093-7.093A7.05 7.05 0 0024.32 8.8zm0 10.64c-1.925 0-3.547-1.622-3.547-3.547s1.622-3.546 3.547-3.546 3.547 1.62 3.547 3.546c0 1.925-1.622 3.547-3.547 3.547z" fill="#fff"/><defs><filter id="filter0_i" x="-4.001" y="-4" width="52" height="52" filterUnits="userSpaceOnUse" color-interpolation-filters="sRGB"><feFlood flood-opacity="0" result="BackgroundImageFix"/><feBlend in="SourceGraphic" in2="BackgroundImageFix" result="shape"/><feColorMatrix in="SourceAlpha" values="0 0 0 0 0 0 0 0 0 0 0 0 0 0 0 0 0 0 127 0" result="hardAlpha"/><feOffset dx="-4" dy="-4"/><feGaussianBlur stdDeviation="4"/><feComposite in2="hardAlpha" operator="arithmetic" k2="-1" k3="1"/><feColorMatrix values="0 0 0 0 0 0 0 0 0 0 0 0 0 0 0 0 0 0 0.15 0"/><feBlend in2="shape" result="effect1_innerShadow"/></filter></defs></svg>