<svg version="1.1" id="Слой_1" xmlns="http://www.w3.org/2000/svg" xmlns:xlink="http://www.w3.org/1999/xlink" x="0" y="0" viewBox="0 0 600 250" xml:space="preserve"><style>.st2{fill:#40689d}.st3{fill:#b4d1fa;stroke:#000;stroke-width:.25}.st6{fill:#862f40}.st7{fill:#9a384b}</style><defs><path id="SVGID_1_" d="M172.7-25.6l256.8 39v238l-256.8 1z"/></defs><clipPath id="SVGID_2_"><use xlink:href="#SVGID_1_" overflow="visible"/></clipPath><g clip-path="url(#SVGID_2_)"><defs><path id="SVGID_3_" d="M270.8 177.4l95-2v68l-95 2z"/></defs><clipPath id="SVGID_4_"><use xlink:href="#SVGID_3_" overflow="visible"/></clipPath><g clip-path="url(#SVGID_4_)"><path class="st2" d="M356.3 238.3v1.5l-54.5 2.2v-2l54.5-1.7zm-54.5 2.1v1.5c-43.5-6-32-7.6-19.5-62l4-.9c-12.6 53.9-26.7 47.8 15.5 61.4z"/><path class="st3" d="M277.4 207.4c2.3-7.5 5.2-16 8.1-28.1l39.5-3c-1.6 10.4-3.1 17.6-4.6 23.7-1 4.4-1.1 7.9-1.3 8.6-.3 3.9.3 6.6.7 8.3.5 1.6 2.5 5.9 9 9.4 5.5 2.9 14.6 8.3 27.4 11.9l-54 2.2c-10.9-1.5-18.1-2.8-22.7-4.7-2.3-1-3.9-2.1-5-3.4-1.1-1.4-1.6-3-1.7-5s.3-4.4.9-7.3c.7-2.9 1.7-6.2 2.9-10.2.3-.8.5-1.6.8-2.4z"/><path d="M273.4 226.6c-2.5 0 4.9-32.6 8.9-47.6l42.5-.9c-5.2 26.4-10.1 36.7-.2 45.7-13.6-.4-43.6 2.8-51.2 2.8z" fill="#2f527f" fill-opacity=".3"/></g><path class="st2" d="M417.4 186.8l-9.7-7.8c2.2-.4 6.9-1.7 7.2-1.9l7.2 7.7c-.3.1-4.3 1.8-4.7 2z"/><path class="st2" d="M422.1 184.8l-11.6-6.3c.2-.1.4-.2.6-.4l11.6 6.3-.6.4zm.7-.4l-11.6-6.3c.2-.1.3-.2.5-.4l11.6 6.3c-.3.2-.4.3-.5.4zm.5-.4l-11.6-6.3.4-.4 11.6 6.3-.4.4z"/><path class="st2" d="M423.6 183.6l-11.6-6.3v-.2c.1-.1.1-.2.2-.3l11.6 6.3-.2.3v.2z"/><path class="st2" d="M423.5 184.1l-11.2-7.3c.1-.2.2-.4.3-.5l12.1 5.7c-.1.2-.7 2-.8 2.1"/><path class="st2" d="M424.3 182.6l-11.5-6.3c0-.2.2-.5.3-.7l11.6 6.3c-.1.2-.2.5-.3.7"/><path class="st2" d="M424.5 181.8l-11.6-6.3c.2-.6.3-1.2.3-1.8l11.6 6.3c.2.6.1 1.3-.3 1.8z"/><path class="st2" d="M425.8 186.3l-14.5-7.1 1.9-9.8 11.6 6.3 1 10.6z"/><path class="st2" d="M231.4 195.1s-11.4-10.4-8-10.4c12.6.2 186.6-6.2 186.6-6.2l15.2 7.6-193.8 9z"/><path class="st2" d="M229.3 196.1l-7.7-6.5c-.3-.2-.6-.5-.8-.8s-.2-.7-.3-1.1c-.1-1-1.3-3.5 8.2-2.9l-.3 8.7c-.1.3-.2.6-.2 1s.2.7.4 1.1c.2.3 1.1.6 1.4.7"/><path class="st2" d="M228.2 194.8l-6.5-6.4c0-.1.2-1.1 2-1.4l7.5 4.6c-.1.1-2.6 1.9-2.7 2"/><path class="st2" d="M228.9 193.3l-7.2-5.9.2-.3 7.2 5.9-.2.3z"/><path class="st2" d="M229.1 192.8l-7.3-5.8v.1l7.5 5.3-.2.4z"/><path class="st2" d="M229.3 192.6l-7.3-5.4.2-.2 7.3 5.4-.2.2z"/><path class="st2" d="M229.5 192.4l-7.7-3.9 1-1.3 7 4.9-.3.3"/><path class="st2" d="M229.8 192.3l-6.9-5 .4-.2 6.9 5-.4.2z"/><path class="st2" d="M230.5 196.6c-4.7-1.6-6.8-9.4-6.8-9.4.2-.1.4-.2.7-.2l6.4 4.7c1.3 3.2 1.6 5.7-.3 4.9zm-15.8-3.2l-7.3-8c.3-.1.5-.1.8 0l7.8 7.7c-.3-.1-1 .2-1.3.3z"/><path class="st2" d="M215.8 193.1l-8.2-7.9c.1 0 .2.1.4.2l8.2 7.9c-.2-.2-.2-.2-.4-.2zm.3.2l-8.1-7.9 8.1 7.9m-22.5.8l-12.2-8.6 26.3-.1 7.6 8.2-21.7.5zm-2.7-1.3l-11.7-7.3h.1l11.6 7.3m.1 0l-11.7-7.4c.2.1.4.2.6.2l11.6 7.3c-.1.2-.3 0-.5-.1z"/><path class="st2" d="M191.6 193.1l-11.6-7.3c.4.1.9 1.1 1.3 1l11.6 6.4c-.5.1-.9.1-1.3-.1m-3.2 4.2l-11.7-7.4c-.5-.3-1-.8-1.5-1.2-.8-.8-1.5-1.8-1.9-2.8-.4-1.2-.6-2.3-.6-3.5l11.6 7.3c0 1.2.2 2.3.6 3.4.4 1.1 1.1 2 1.9 2.9.5.4 1 .8 1.5 1.1"/><path class="st2" d="M184.4 189.9l-11.6-7.3.1-9.3 12.6 3.2-1.1 13.4z"/><path d="M184.5 179.6l-9.8-6.2 244.9-9.5 9.8 6.3c.1.1-244.8 9.4-244.9 9.4z" fill="#7f94b1"/><path class="st3" d="M426.8 186.3c-1.4 1.8-3.4 3-5.6 3.5l-190.4 6.8c-.3 0-.6 0-.8-.1-.3-.1-.5-.2-.7-.4s-.4-.4-.5-.7-.1-.6-.1-.8c0-.6.2-1.2.6-1.7s1-.8 1.6-.9l190.1-6.8c1.1-.2 2.1-.8 2.8-1.7.8-1 1.2-2.1 1.2-3.4v-4.5l-235.9 8.2h-.1v5.5c0 .6.1 1.1.3 1.6s.5 1 .9 1.4c.4.4.8.6 1.3.8s1 .2 1.5.1l22.1-.1c.3 0 .6 0 .8.1.3.1.5.2.7.4s.4.4.5.7.1.5.1.8c0 .6-.2 1.2-.6 1.7s-1 .8-1.6 1l-22.2.2c-1.1.2-2.2.1-3.2-.2s-2-.9-2.7-1.6c-.8-.8-1.5-1.8-1.9-2.8-.4-1.1-.7-2.2-.6-3.3v-10.2l244.9-9.4v9.2c0 2.4-.8 4.8-2.5 6.6z"/><path class="st6" d="M424.8 168.8l-11.6-6.1.3-140.1 11.6 5.3-.3 140.9z"/><path class="st6" d="M425 29l-11.6-6.3c0-.8-.2-1.5-.5-2.2-.4-.7-.9-1.2-1.6-1.6l11.7 6.3c.7.4 1.2.9 1.6 1.6s.5 1.4.4 2.2"/><path class="st7" d="M420.4 19.8l-11.7-6.3c1.2-.1 2.6.2 3.2.2l11.6 6.3c-1-.3-2-.3-3.1-.2z"/><path class="st7" d="M417.4 21.9l-7-8.4c.5.1 2.1 0 3.3.8l11.6 6.3c-.3-.2-7.3 1.5-7.9 1.3z"/><path class="st7" d="M425 20.5l-11.6-6.3.3.2 11.6 6.3c.1 0-.3-.2-.3-.2zM307.2 171.6l-9.1-6.1 115.1-4.5 11.6 6.3-117.6 4.3z"/><path class="st7" d="M188.9 175.4l-11.8-5.8 120.8-4.2 15 8.3-124 1.7zm-1.7-158.5l-5.1-11.5 226.7 8.1 11.6 6.3s-233.1-2.9-233.2-2.9z"/><path class="st7" d="M184.5 179.6l-11.7-6.4.2-156.6c5.1 1.4 7.5 2.9 11.6 6.3l-.1 156.7z"/><path class="st7" d="M184.6 22.9L173 16.5c0-1.3 1.8-10.1 13-11l5.1 7c-.5 1.3-6.5 9.1-6.5 10.4z"/><path d="M420.4 19.8c1.2-.2 2.4-.1 3.5.3s2.2 1 3 1.8c.9.8 1.5 1.8 2 2.9.4 1.1.6 2.3.5 3.5v141.9l-122.7 4.5-122.5 5 .3-156.9c0-2.6.9-5.1 2.6-7.1 1.7-2 4-3.4 6.5-3.9l226.8 8zm4.2 147.4L425 29c0-.6-.1-1.2-.3-1.8s-.6-1.1-1-1.5-1-.7-1.5-.9c-.6-.2-1.2-.2-1.8-.2l-226.7-7.9c-1.3.3-2.4.9-3.3 2-.8 1-1.3 2.3-1.3 3.6l-.2 153.1 117.8-3.7 117.9-4.5" fill="#e87891" stroke="#000" stroke-width=".25"/><path class="st7" d="M185.1 19L173 16.5c.2-.5 1-4.2 1.3-4.7l11.6 5.7c-.3.5-.6 1-.8 1.5z"/><path class="st7" d="M185.6 18L173 16.2c-.2-.3 1.3-5.9 2.2-6.5l11.5 6.4c-.2.5-.9 1.5-1.1 1.9z"/><path class="st7" d="M186.6 16.3L175 9.9c.2-.4 1-1.1 1.3-1.4l11.1 6.7c-.3.6-.6.6-.8 1.1z"/><path class="st7" d="M187.5 15.2l-11.6-6.3c.3-.3.6-.7.9-.9l11.6 6.3c-.4.2-.7.6-.9.9"/><path class="st7" d="M188.4 14.3L176.8 8c.3-.3.7-.6 1.1-.9l11.7 6.3c-.4.3-.9.5-1.2.9"/><path class="st7" d="M189.6 13.4l-11.7-6.3 1.5-.9 11.6 6.3c-.5.3-1 .6-1.4.9z"/><path class="st7" d="M190.7 12.4l-11.3-6.2c.9-.4 1.8-.7 2.7-.8l11.2 6.2c-.9.1-1.5.3-2.5 1"/></g></svg>