<svg version="1.1" id="Слой_1" xmlns="http://www.w3.org/2000/svg" x="0" y="0" viewBox="0 0 220 220" xml:space="preserve"><style>.st0{fill:#40689d}.st1{fill:#9a384b}.st2{fill:#793e4b}.st3{fill:#882f40}</style><path class="st0" d="M91.1 28.6l-12.4-6.8c6.9-1 14-.6 20.8 1.1l12.4 6.8c-6.8-1.8-13.9-2.1-20.8-1.1zM59.8 152.9l-13.4-7c-16.7-9.1-27.8-27.8-27.8-50.9 0-8.7 1.6-17.4 4.6-25.5l14 6.6c-3 8.2-3.8 16.9-3.9 25.6.1 22.9 9.8 42.1 26.5 51.2"/><path class="st0" d="M35.7 76.3l-12.4-6.8c1.3-3.5 2.9-6.8 4.7-10.1l12.4 6.8c-1.7 3.3-3.2 6.6-4.5 10.1"/><path class="st0" d="M38 76.3L27.9 59.4c1.5-2.7 3.1-5.4 4.9-7.9L57 48.9c-1.8 2.5-13.9 19.7-15.4 22.4"/><path class="st0" d="M45.1 58.3l-12.4-6.8c1.7-2.4 3.5-4.7 5.5-6.9l12.4 6.8c-2 2.2-3.8 4.5-5.5 6.9"/><path class="st0" d="M43.4 61L38 44.6c2-2.2 4-4.2 6.2-6.2h25.7c-2.1 2-21.3 17.1-23.2 19.2"/><path class="st0" d="M56.6 45.2l-12.3-6.8c2.3-2 4.7-4 7.2-5.7l12.4 6.8c-2.5 1.8-4.9 3.7-7.2 5.7"/><path class="st0" d="M52.4 53.9l-1-21.2c3.1-2.1 6.3-4 9.7-5.6l12.4 6.8c-3.3 1.6-18 17.8-21.1 20z"/><path class="st0" d="M67.1 38.4L61.2 27c5.5-2.6 11.4-4.4 17.5-5.3l24.1 6.4c-6.2 1-30.2 7.7-35.7 10.3z"/><path class="st0" d="M102.4 28.7l-3-5.8c3.2.8 6.4 2 9.4 3.5l12.4 6.8c-3-1.5-15.6-3.7-18.8-4.5z"/><path class="st0" d="M121.2 33.2l-12.4-6.8 1.8.9 12.4 6.8-1.8-.9z"/><path class="st1" d="M206.2 195.8l-12.4-6.8c.1-.1.2-.3.3-.4l12.6 6.8-.3.4"/><path class="st1" d="M206.7 195.4l-13.1-5.9c.5-.8.8-1.3 1.3-2.2l12.2 7.4-.4.7z"/><path class="st1" d="M207 194.7l-12.4-6.8c.2-.3.3-.6.4-.9l12.4 6.8c-.1.2-.3.5-.4.9"/><path class="st1" d="M207.4 193.8L195 187c.2-.5.3-.9.4-1.4l12.4 6.8c-.1.4-.3.9-.4 1.4z"/><path class="st1" d="M204.1 197.7l-8.8-12.1.2-1.6 12.4 6.8-3.8 6.9z"/><path class="st1" d="M199.7 205.2l-13-7.6 10.4-12.6 15.8 1.9-13.2 18.3z"/><path class="st1" d="M193.6 207.9l-9.8-8.1.7-.3 15.7 5.8-6.6 2.6z"/><path class="st1" d="M196.9 206.3l-12.4-6.8c.3-.1.6-.3.9-.5l18.6 3.6c-.3.2-6.8 3.5-7.1 3.7z"/><path class="st1" d="M197.8 205.7l-12.4-6.8.7-.5 12.5 6.8-.8.5"/><path class="st1" d="M198.5 205.2l-12.8-6.5 1.3-1.3 12 7.3c-.1.2-.3.4-.5.5z"/><path class="st1" d="M199 204.7l-12.4-6.8.2-.2 12.4 6.8-.2.2zm9-13.9l-13.8-2.2c1.7-1.3 1.5-6.3 1.3-7.1s-.7-1.5-1.3-2.2l13.6 3c.6.6-.2 5.1.1 5.9.2.9.2 1.7.1 2.6zM194.7 207l-12.4-6.8 1.4-.4 12.4 6.8-1.4.4zm-3.6-.3l-12.4-6.8 12.4 6.8h-.1m.3.1l-12.4-6.8.8.3 12.4 6.7-.8-.3"/><path class="st1" d="M191.4 207.4l-11.7-7.1c.6.1 1.2.1 1.8 0 .3 0 .5-.1.8-.2l12.4 6.9c-.3.1-.5.2-.8.2-.6.1-.8.8-1.4.7"/><path class="st2" d="M174.9 207c-.7-.4-1.9-1.5-2.5-2.1l12.4 6.7c.6.6 1.9 1.7 2.6 2.2"/><path class="st1" d="M206.5 186.1l-12.4-6.8-40.5-38.3 12.4 6.8 40.5 38.3z"/><path class="st2" d="M166.1 147.9l-12.4-6.8c-.3-.2-.6-.5-.9-.6l12.4 6.8c.3.1.6.3.9.6z"/><path class="st1" d="M185.2 212.2l-12.4-6.8-40.4-38.3 13.4 3.3 39.4 41.8zm-26.4-70.8l-10.5-8.6c.6-.2 1.2-.4 1.8-.4 1.4-.2 2.8-.1 4.2.2l12.4 6.8c-1.4-.3-2.8-.4-4.2-.2-.6 0-3.1 2-3.7 2.2z"/><path class="st1" d="M163.6 141.1l-9.3-8.5c.7.2 1.3.4 1.9.7l12.3 6.8c-.6-.3-1.3-.5-1.9-.7"/><path class="st1" d="M168.5 140.1l-12.3-6.8.4.2 12.4 6.8-.5-.2zm-10.4.3l-12.4-6.8 2.6-.8 12.4 6.8-2.6.8z"/><path class="st3" d="M147.7 166.9l-19.4-11.5-6.6-9.2 15.8 2.8 10.2 17.9z"/><path class="st1" d="M55.1 160.5l-12.4-6.8 2 1 12.4 6.8-2-1z"/><path class="st1" d="M57.1 161.9l-12.4-7.2c3.3 1.6 6.8 2.9 10.4 3.9l15.4 7.6c-3.7-.9-10.1-2.6-13.4-4.3z"/><path class="st1" d="M67.5 165.4L55 158.6c7.6 1.9 15.4 2.3 23.1 1.2h.7c6.6-1 13-3 19.1-5.9l13 6.7c-5.6 3.6-10.7 8.3-17.3 9.3l-8.2 1.3c-7.7 1.1-10.2-3.5-17.8-5.4"/><path class="st1" d="M95.6 168.4l2.2-14.2c3.9-1.8 7.8-4.3 11.3-6.8l20.7 3.2c-.1 5.9-26.3 20-34.2 17.8z"/><path class="st1" d="M122.3 154.5l-13.2-7.1c2.9-2 5.7-4.2 8.3-6.6l28-2.3c-2.6 2.4-20.2 14-23.1 16z"/><path class="st1" d="M131 147.9l-13.6-7.1c2.5-2.2 4.9-4.6 7.1-7.1l13.6 7.1c-2.3 2.5-4.6 4.9-7.1 7.1z"/><path class="st1" d="M132.1 151.3l-7.7-17.6c2.2-2.5 4.3-5.2 6.2-7.9l17 4.5c-1.8 2.7-13.2 18.5-15.5 21z"/><path class="st1" d="M137.7 148.2l-7-22.4c2.1-2.9 3.9-6 5.6-9.2l26.4-14.1c-1.7 3.1-23 42.7-25 45.7z"/><path class="st1" d="M150.3 124.2l-13.9-7.6c2-3.8 3.8-7.7 5.2-11.7l13.9 7.6c-1.5 4-3.2 7.9-5.2 11.7z"/><path class="st1" d="M149.7 133.9l-8.1-29c3.4-9.2 5.2-18.8 5.3-28.6.2-25.9-12-46.8-30.7-57.1l13.1 5.8c18.6 10.2 31.7 31.4 31.5 57.3-.1 9.8-7.7 42.4-11.1 51.6zm-98.4 33.6l-12.4-6.8-1.6-.9c-.7-.5-1.2-1.2-1.4-2s-.3-2 .6-3.4l12.1 7.7c-.3.8-.4 1.6-.2 2.4.2.8.7 1.5 1.4 2l1.5 1"/><path class="st1" d="M48.6 162.2l-12.5-6.4c0-.9.4-1.3.4-1.3l12.4 7.1-.3.6z"/><path class="st1" d="M48.8 161.6l-12.4-6.8c.6-1.2 1-1.1 1.1-1.2l11.8 7-.5 1v.1-.1z"/><path class="st1" d="M49.1 161.1l-12.4-6.8c.1-.1 1.1-1.4 2.4-1.7l14.3 7c0 .1-4.2 1.3-4.3 1.5z"/><path class="st1" d="M50.1 165.3L37 153.9l.4-.4 16.3 7-3.6 4.8z"/><path class="st1" d="M49.7 160.3l-12.4-6.8.4-.3 12.4 6.8-.4.3zm.5-.3l-12.4-6.8.6-.3 12.4 6.8-.6.3z"/><path class="st1" d="M50.7 159.7l-12.4-6.8c.3-.2.7-.3 1-.3.4-.1.8-.1 1.2 0l13.3 7.1c-.4-.1-1.7-.4-2.1-.3-.3 0-.6.1-1 .3z"/><path class="st1" d="M53 159.4l-12.5-6.8.5.2 12.4 6.8-.4-.2m.5.2l-12.4-6.8 12.4 6.8zm39-147.1L80.1 5.7h.7c8.5-1.2 17.3-.8 25.7 1.4l13.1 7c-8.3-2.1-17.3-2.1-25.8-.9H93"/><path class="st1" d="M118.8 14.5l-14-7.9c4 1 9.3 2.7 13 4.5l12.4 6.8c-3.7-1.8-7.5-2.4-11.4-3.4z"/><path class="st1" d="M130.2 17.9l-12.4-6.8 2.2 1.1 12.4 6.8-2.2-1.1zm14.6 156l-12.4-6.8c-1.4-1.4-2.4-3.1-3-5s-.7-3.9-.4-5.8l13.8 5.2c-.3 2-1.6 5.6-1 7.5s1.6 3.6 3 4.9"/><path class="st1" d="M141.4 163.1l-12.4-6.8.4-2.9 12.4 6.8-.4 2.9zM23.3 73l-12.4-6.8c1.6-4.4 3.5-8.7 5.8-12.9L38 51.6C35.8 55.7 24.9 68.5 23.3 73z"/><path class="st1" d="M29.1 60.1l-12.4-6.8c1.9-3.5 3.9-6.9 6.2-10.2l12.4 6.8c-2.3 3.2-4.4 6.6-6.2 10.2"/><path class="st1" d="M29.9 66.3l-7.1-23.2c2.1-3 4.4-6 6.9-8.8l21.7 1.1C48.9 38.3 32.6 62 30.5 65.1"/><path class="st1" d="M39.2 50.3l-9.5-15.9c2.4-2.8 5-5.4 7.8-7.9L65 27c-2.7 2.6-23.3 20.6-25.8 23.3z"/><path class="st1" d="M43.4 43.6l-5.9-17.1c2.9-2.6 6-5.1 9.2-7.3l27.7.6c-3.2 2.3-28.1 21.2-31 23.8z"/><path class="st1" d="M59.1 26l-12.4-6.8c3.9-2.7 8-5.1 12.3-7.1l12.4 6.8C67.1 21 63 23.3 59.1 26z"/><path class="st1" d="M63.4 27.1L59 12.2C65.7 9 72.8 6.8 80.1 5.7l30.2 8.4c-7.3 1.1-40.2 9.8-46.9 13zM29.5 146.6L17 139.9c-.4-.2-.8-.6-1.1-1C8.5 126.5 4.7 112.2 5 97.7c.1-10.7 2.1-21.4 5.9-31.5l23-9.5c-3.7 10.1-16.3 37.1-16.4 47.9-.3 14.4 3.5 28.6 10.9 41 .3.4.6.8 1.1 1"/><path d="M195.5 214.3h0m1.5-.4c4.1-1.4 6.9-4.8 6.9-4.8h0l7.2-8.4.1.1-.1-.1h0c1.9-2.3 3.1-5.2 3.5-8.1h0l.2-1.6h0c.4-1.9.2-3.9-.3-5.8-.6-1.9-1.6-3.6-3-5h0L171.2 142h0c-1.1-1.1-2.5-1.9-3.9-2.3-1.5-.5-3-.6-4.5-.4h0c-.6.1-1.2.2-1.8.4h0l-2.7.8h-.1 0l-7.4-7.1-.1-.1v-.1c9.9-15.3 15.3-33 15.6-51.2.4-44.3-32.2-75.3-72.9-69.4h0-.8C51.5 18.8 18 60 17.6 104.7h0c-.3 14.4 3.5 28.6 10.9 40.9h0c.3.5.7.9 1.2 1.1.5.2 1.1.3 1.6.2h0c.7-.1 1.3-.4 1.9-.8h0c.8-.6 1.3-1.5 1.5-2.5s.1-2-.4-2.9c-6.8-11.2-10.2-24.2-9.9-37.3.3-40.4 30.8-77.8 68.1-83.6h.6c37-5.2 66.8 22.9 66.4 63.3-.4 40.5-30.9 77.9-68.2 83.5h0-.7c-12.8 2-25.8-.4-37.1-6.9h0c-.6-.3-1.2-.4-1.8-.3-.6.1-1.2.3-1.7.7s-.9.8-1.2 1.4h0c-.5.8-.7 1.7-.6 2.7.2.9.7 1.8 1.4 2.3 12.3 7.1 26.7 9.8 40.8 7.6h.7c16-2.7 30.9-10.2 42.8-21.4l.1-.1.1.1 7.7 7.3h0v.1l-.4 2.9h0c-.3 1.9-.2 3.9.4 5.8.6 1.9 1.6 3.6 3 5h0l40.4 38.2.1.1c1.1 1 2.3 1.7 3.8 2.1 1.5.4 3 .6 4.5.3h0c.6-.1 1.2-.2 1.8-.4h.1l1.1-.3.4.1zm11.1-23.2h0v.1l-.1 1.6h0c-.2 1.3-.7 2.5-1.5 3.5h0l-7.1 8.6-.1.1-.2.2c-.8.7-1.6 1.4-2.8 1.8l-1.4.6c-1.3.7-2.8-.1-2.8-.1-.7-.2-1.2-.6-1.7-1h0L149.8 168h0c-.6-.6-1.1-1.4-1.3-2.2-.3-.8-.3-1.7-.2-2.5h0l.5-3.5h0l9.6-11.7h0l3.2-1h0c.3-.1.5-.2.8-.2.7-.1 1.3-.1 2 .1.6.2 1.2.5 1.8.9h0l40.4 38.2h0c.6.6 1.1 1.4 1.3 2.2.2.7.3 1.6.2 2.4m-60.6-49.3l-6.3 7.5-.1.1.1.1 3.4 3.1 1 1 .7-.9 5.6-6.9.1-.1-.1-.1-4.4-3.8h0z" fill="#e87891" stroke="#000" stroke-width=".2"/><path class="st1" d="M145.6 153l-4.4-4 6.1-7.3 4.5 3.7-6.2 7.6z"/><path class="st3" d="M151.9 145.3l-5.1-3 .7-1 4.4 4z"/><path class="st0" d="M62.7 145.4l-12.4-6.8 1.6.8 12.4 6.8c-.5-.2-1-.5-1.6-.8"/><path class="st0" d="M64.3 146.3l-12.4-6.8c2.6 1.3 7.6 2.9 10.4 3.6l12.4 6.8c-2.8-.8-8-1.5-10.4-3.6z"/><path class="st0" d="M72.6 149.4l-12.4-6.8c6 1.5 12.2 1.8 18.2.9 5.4-.8 10.6-2.3 15.5-4.6l12.4 6.8c-4.9 2.3-10.1 3.9-15.5 4.6-6 .9-12.2.6-18.2-.9z"/><path class="st0" d="M99.4 149.6l-5.5-10.8c3-1.4 5.8-3.1 8.5-4.9l19.3 3.7c-2.7 1.9-19.3 10.6-22.3 12z"/><path class="st0" d="M114.8 140.7l-12.4-6.8c2.2-1.6 4.4-3.2 6.4-5.1l20.3 4.8c-2.1 1.9-12.1 5.6-14.3 7.1z"/><path class="st0" d="M121.1 135.7l-12.4-6.8c1.9-1.7 3.7-3.5 5.5-5.5l12.4 6.8c-1.7 1.9-3.5 3.8-5.5 5.5z"/><path class="st0" d="M122.5 139.5l-8.4-16.1 1.6-1.8c1.1-1.3 2.2-2.7 3.1-4.2l20.8-.2c-1 1.4-10.5 9.7-11.6 11.1l-5.5 11.2z"/><path class="st0" d="M129.5 128.4l-10.7-10.9c1.6-2.2 3-4.6 4.3-7l15.1 4.9c-1.3 2.4-7.1 10.7-8.7 13z"/><path class="st0" d="M135.5 117.2l-12.4-6.8c1.5-2.9 2.9-5.8 4-8.9l12.6 6.8c-1.1 3.1-2.4 6-4 8.9"/><path class="st0" d="M139.6 108.4l-6.9-2-5.7-4.8c2.7-7.2 4.2-14.7 4.2-22.4.2-11.4-3.3-22.6-9.9-31.9-.4-.5-.6-1.2-.7-1.8-.1-.7-.2-2.1.7-2.9l12 7.8c-.3.6-.4 1.2-.3 1.9 0 .6.2 1.3.6 1.8 12.4 6.1 10.1 20.5 9.9 31.9.1 7.6-1.2 15.2-3.9 22.4z"/><path class="st0" d="M133.3 50.3l-12.4-6.8.3-.6 12.4 6.8c-.2.2-.3.4-.3.6z"/><path class="st0" d="M133.5 49.7l-12.4-6.8c.1-.2.2-.3.3-.5l12.4 6.8c-.1.1-.2.3-.3.5zm.3-.5l-12.4-6.8c.1-.1.2-.3.3-.4l12.5 6.8-.4.4"/><path class="st0" d="M134.2 48.8L121.8 42l.3-.4 12.4 6.9-.4.4"/><path class="st0" d="M134.5 48.5l-12.4-6.8.4-.4 12.4 6.8-.4.4z"/><path class="st0" d="M134.6 58.3l-12-17 .6-.3 14.9 7.7-3.5 9.6z"/><path class="st0" d="M135 49.9l-11.8-9c.3-.2.7-.3 1.1-.3.4-.1.8-.1 1.3 0l13 7.2c-.4-.1-.9.4-1.3.4-.5 0-2 1.6-2.3 1.7z"/><path class="st0" d="M137.9 47.4l-12.4-6.8c.2 0 .4.1.6.2l12.4 6.8c-.2 0-.4-.1-.6-.2z"/><path class="st0" d="M138.4 47.6L126 40.9l12.5 6.8"/><path d="M123 43.6l-12.4-6.8-.2-.1c-1.1-.8-2.3-1.5-3.6-2.2l12.4 6.8c1.2.7 2.4 1.4 3.6 2.2l.2.1z" fill="#5e6d82"/><path d="M91.1 28.7h0C58 33.3 31.3 66.1 31.2 101.8 31.1 137.5 58 162.6 91 158s59.9-37.4 59.9-73.1h0c.2-13-3.7-25.7-11.3-36.3-.3-.4-.8-.7-1.3-.9s-1.1-.2-1.6-.1h0c-.8.1-1.5.5-2.1 1h0c-.7.7-1.2 1.5-1.4 2.5s0 2 .5 2.8c6.7 9.3 10.2 20.6 9.9 32h0v.4c-.2 15.5-5.7 30.1-15.6 42v.1c-9.3 11.7-22.5 19.5-37.2 21.9h0c-6.7 1.1-13.5.6-19.9-1.4-6.5-2-12.4-5.4-17.3-10h0c-5-5-9-10.9-11.6-17.5-2.6-6.6-3.9-13.6-3.7-20.7.2-15.5 5.6-30.5 15.5-42.5C63 46.5 76.3 38.7 91 36.3h0c11.1-1.7 22.4.9 31.8 7.1.6.4 1.4.6 2.1.5.6-.1 1.1-.3 1.6-.6s.9-.8 1.2-1.3h0c.6-.8.9-1.8.7-2.8-.1-1-.6-1.9-1.4-2.5-10.5-7.1-23.3-10-35.9-8" fill="#b4d1fa" stroke="#000" stroke-width=".2"/></svg>