<svg width="124" height="120" viewBox="0 0 124 120" fill="none" xmlns="http://www.w3.org/2000/svg">
<g clip-path="url(#clip0)">
<path d="M23.5108 2.95786L123.971 3.30585L122.955 91.7544L23.3076 91.9284L23.5108 2.95786Z" fill="#102E5B"/>
<path d="M23.6854 2.8999L0.0580524 31.1454L0 119.275L23.6854 91.6964V2.8999Z" fill="#0A2D49"/>
<path d="M100.286 119.855L0 119.971L0.0580524 31.1455L99.7631 30.9715L100.286 119.855Z" fill="#102E5B"/>
<path d="M100.285 119.855L123.971 91.5514V3.30588L100.372 31.1744L100.285 119.855Z" fill="#0A2D49"/>
<path d="M100.372 31.1744L123.971 3.30588V92.2184L100.285 119.855L100.372 31.1744Z" fill="#053866"/>
<path d="M100.372 31.1744L123.971 3.30588V92.1894L100.285 119.855L100.372 31.1744Z" fill="#053866"/>
<path d="M118.078 10.2658L123.97 3.30588V25.7805L118.078 32.7404V10.2658Z" fill="#053866"/>
<path d="M120.111 22.6777C118.862 19.9807 118.253 16.4718 118.253 10.2659L118.979 9.36688C118.979 14.8478 119.646 18.5887 120.72 20.8797C121.62 22.7647 122.781 23.0547 123.971 21.6047L123.942 23.9826C123.333 24.7076 122.926 24.8816 122.375 24.8816C121.62 24.8816 120.749 24.0406 120.111 22.6777Z" fill="#B9D5FD"/>
<path d="M112.187 17.2255L118.079 10.2657V32.7403L112.187 39.7002V17.2255Z" fill="#0E2951"/>
<path d="M106.294 24.1855L112.187 17.2256V39.7003L106.294 46.6312V24.1855Z" fill="#709FDC"/>
<path d="M100.372 31.1743L106.293 24.1855V46.6311L100.401 53.504L100.372 31.1743Z" fill="#55A2E0"/>
<path d="M118.078 32.7402L123.97 25.7804V47.907L118.078 54.8669V32.7402Z" fill="#B9D5FD"/>
<path d="M112.187 39.7002L118.079 32.7404V54.867L112.187 61.8269V39.7002Z" fill="#274684"/>
<path d="M106.294 46.6311L112.187 39.7002V61.8268L106.294 68.7867V46.6311Z" fill="#3D95D1"/>
<path d="M100.401 53.5042L106.294 46.6313V68.7869L100.401 75.6308V53.5042Z" fill="#B9D5FD"/>
<path d="M112.187 61.827L118.079 54.8671V77.0228L112.187 83.9827V61.827Z" fill="#B9D5FD"/>
<path d="M106.294 68.7868L112.187 61.8269V83.9825L106.294 90.9424V68.7868Z" fill="#0E2951"/>
<path d="M100.401 75.6306L106.294 68.7867V90.9424L100.517 97.7862L100.401 75.6306Z" fill="#709FDC"/>
<path d="M118.078 77.0227L123.97 70.0338V92.1895L118.078 99.1493V77.0227Z" fill="#6780B3"/>
<path d="M112.187 83.9827L118.079 77.0228V99.1495L112.187 106.109V83.9827Z" fill="#053866"/>
<path d="M106.294 90.9426L112.187 83.9827V106.109L106.294 113.069V90.9426Z" fill="#B9D5FD"/>
<path d="M100.518 97.7865L106.294 90.9426V113.069L100.285 119.855L100.518 97.7865Z" fill="#3D95D1"/>
<path d="M121.068 18.7047C120.082 16.6167 119.559 13.7168 119.559 8.96084L120.285 8.06186C120.285 11.9188 120.72 14.7028 121.591 16.5007C122.113 17.5737 123.158 17.9217 124 16.9067V19.5747C123.536 20.1257 123.245 20.2997 122.81 20.2997C122.142 20.2997 121.562 19.7487 121.068 18.7047Z" fill="#3D95D1"/>
<path d="M122.026 14.0648C121.358 12.6439 120.981 10.4399 120.981 7.22095L121.707 6.32196C121.707 8.67092 121.823 9.7729 122.287 11.1939C122.723 12.5279 123.477 12.6729 124 12.0929V14.7608C123.68 15.1378 123.506 15.2248 123.216 15.2248C122.752 15.1958 122.345 14.7898 122.026 14.0648Z" fill="#3376B3"/>
<path d="M122.868 9.39594C122.462 8.52595 122.259 7.24997 122.259 5.423L123.101 4.52402C122.955 5.858 122.955 6.72798 123.246 7.19197C123.345 7.28266 123.474 7.33296 123.609 7.33296C123.743 7.33296 123.872 7.28266 123.971 7.19197V9.85993C123.797 10.0919 123.768 10.0919 123.594 10.0919C123.333 10.0629 123.072 9.83093 122.868 9.39594Z" fill="#709FDC"/>
<path d="M100.518 91.9286L104.668 86.9696V54.3742L100.518 59.2751V56.2011L105.539 50.5462V88.8256L100.547 94.6835L100.518 91.9286Z" fill="#274684"/>
<path d="M100.518 91.9284L104.668 86.9695V70.1788L105.539 69.3088V88.8254L100.518 95.0313V91.9284Z" fill="#0E2951"/>
<path d="M100.46 86.6505L103.275 83.3445V60.9279L100.518 64.0018V61.1309L104.117 57.0999V84.7075L100.547 88.9414L100.46 86.6505Z" fill="#274684"/>
<path d="M100.518 80.9375L101.795 79.1975V68.7577L100.518 70.3237V67.2207L102.666 64.9297V81.0535L100.634 83.4604L100.518 80.9375Z" fill="#274684"/>
<path d="M100.46 80.6765L101.737 79.3715V73.6586L102.579 72.7596V81.2275L100.518 83.6055L100.46 80.6765Z" fill="#0E2951"/>
<path d="M100.518 86.4475L103.275 83.3445V71.8607L104.117 70.9617V85.1425L100.518 89.5504V86.4475Z" fill="#0E2951"/>
<path d="M119.501 80.6476L123.971 75.3697V92.1894L119.501 97.4963V80.6476Z" fill="#053866"/>
<path d="M121.01 84.6205L123.971 81.1116V92.1894L121.01 95.6693V84.6205Z" fill="#709FDC"/>
<path d="M110.009 20.1837L112.157 31.5806L108.442 43.9923L106.323 32.5955L110.009 20.1837Z" fill="#0E2951"/>
<path d="M109.632 26.0125L110.735 31.8414L108.82 38.1633L107.746 32.3634L109.632 26.0125Z" fill="#6780B3"/>
<path d="M106.294 95.3506L112.187 88.3907V106.109L106.294 113.069V95.3506Z" fill="#3D95D1"/>
<path d="M106.294 100.222L112.187 93.2626V106.109L106.294 113.069V100.222Z" fill="#6780B3"/>
<path d="M106.294 105.123L112.187 98.1343V106.109L106.294 113.069V105.123Z" fill="#053866"/>
<path d="M106.294 109.096L112.187 102.136V106.109L106.294 113.069V109.096Z" fill="#0E2951"/>
<path d="M112.709 57.1L117.556 50.3721L112.709 45.0652L117.556 38.3373L112.709 57.1Z" fill="#0E2951"/>
<path d="M123.245 26.6504L123.971 25.7804V47.907L123.245 48.806V26.6504Z" fill="#55A2E0"/>
<path d="M122.114 27.9846L122.839 27.1146V49.2412L122.114 50.1402V27.9846Z" fill="#55A2E0"/>
<path d="M118.397 32.4215L119.123 31.5225V53.6781L118.397 54.5481V32.4215Z" fill="#55A2E0"/>
<path d="M119.646 30.8264L120.488 29.9274V52.054L119.646 52.924V30.8264Z" fill="#55A2E0"/>
<path d="M120.981 29.3185L121.678 28.4195V50.5752L120.981 51.4451V29.3185Z" fill="#55A2E0"/>
<path d="M118.078 54.867L123.97 47.9071V70.0337L118.078 77.0226V54.867Z" fill="#0E2951"/>
<path d="M118.078 65.9448L121.01 62.4648V73.5426L118.078 77.0226V65.9448Z" fill="#55A2E0"/>
<path d="M121.01 51.387L123.971 47.9071V58.9849L121.01 62.4649V51.387Z" fill="#55A2E0"/>
<path d="M113.608 87.6654L116.627 84.0695V95.4663L113.608 99.0622V90.0724L116.076 87.1724V94.0453L114.189 96.2782V91.4643L115.495 89.8984V92.6533L114.74 93.5523" stroke="#3D95D1" stroke-miterlimit="10"/>
<path d="M104.523 113.069L101.127 97.8154L102.375 96.4234L105.946 111.764L104.523 113.069Z" fill="#003A79"/>
<path d="M102.579 114.838L100.78 117.071L103.74 95.0315L105.54 93.2626L102.579 114.838Z" fill="#003A79"/>
<path d="M110.068 68.7579L110.996 67.6559V71.1939L110.068 72.2959V68.7579Z" fill="#B9D5FD"/>
<path d="M108.761 75.1378L109.69 74.0358V77.5738L108.761 78.7047V75.1378Z" fill="#B9D5FD"/>
<path d="M107.455 81.5755L108.413 80.4445V84.0115L107.455 85.1134V81.5755Z" fill="#B9D5FD"/>
<path d="M100.373 31.1743L0.0583496 31.1453L0.116402 119.855H100.286L100.373 31.1743Z" fill="#054270"/>
<path d="M100.286 119.855L0.0873758 119.942L0.0583496 31.1453L100.373 31.1743L100.286 119.855Z" fill="#053866"/>
<path d="M25.2231 97.7285L0.0864258 97.7575V75.6018L25.2231 75.5728V97.7285Z" fill="#F4F9FF"/>
<path d="M50.3315 97.7284H25.2239V75.5728L50.3315 75.5438V97.7284Z" fill="#274684"/>
<path d="M75.4099 97.6991L50.3313 97.7281V75.5435L75.4099 75.5145V97.6991Z" fill="#3D95D1"/>
<path d="M100.517 97.7862L75.4097 97.6992V75.5145L100.517 75.6015V97.7862Z" fill="#B9D5FD"/>
<path d="M50.3315 75.5437L25.2239 75.5727V53.3881L50.3315 53.3591V75.5437Z" fill="#B9D5FD"/>
<path d="M75.4099 75.5147L50.3313 75.5437V53.3591H75.4099V75.5147Z" fill="#0E2951"/>
<path d="M100.517 75.6017L75.4097 75.5147V53.3591L100.517 53.4171V75.6017Z" fill="#709FDC"/>
<path d="M50.3315 119.913H25.2239V97.7285H50.3315V119.913Z" fill="#0E2951"/>
<path d="M75.5418 119.884L50.3313 119.913V97.7281L75.5418 97.6991V119.884Z" fill="#709FDC"/>
<path d="M100.286 119.855L75.5842 119.884V97.6991L100.518 97.7861L100.286 119.855Z" fill="#6780B3"/>
<path d="M25.2241 53.3879L0.0873758 53.4169L0.0583496 31.1453L25.2241 31.2323V53.3879Z" fill="#6780B3"/>
<path d="M50.3315 53.3593L25.2239 53.3883V31.2326L50.3315 31.2036V53.3593Z" fill="#053866"/>
<path d="M75.4099 53.3592H50.3313V31.2035L75.4099 31.1745V53.3592Z" fill="#B9D5FD"/>
<path d="M100.517 53.4172L75.4097 53.3592V31.1745H100.372L100.517 53.4172Z" fill="#3D95D1"/>
<path d="M78.6321 94.6835V56.3751L100.286 56.3461L99.8793 59.1881H82.2604V91.8415L100.518 91.9285V95.0315L78.6321 94.6835Z" fill="#274684"/>
<path d="M78.3997 56.375L100.518 56.172V59.2749L82.2601 59.1879V75.5436H78.6319L78.3997 56.375Z" fill="#0E2951"/>
<path d="M84.6697 89.5506V62.1171L100.518 61.1311V63.8571L88.2689 64.0601V86.3897L100.518 86.4477V89.5506H84.6697Z" fill="#274684"/>
<path d="M91.2007 83.5765V67.4528L100.46 67.3948L99.8795 70.2947L94.7999 70.2657V80.7346L100.518 80.6766V83.6055L91.2007 83.5765Z" fill="#274684"/>
<path d="M91.2007 67.4529L100.518 67.2209V70.3238L94.7999 70.2658V75.6307L91.2007 75.5727V67.4529Z" fill="#0E2951"/>
<path d="M84.6697 61.2471L100.518 61.1311V64.0021L88.2689 64.0601V75.5149H84.6697V61.2471Z" fill="#0E2951"/>
<path d="M12.6267 42.3101L0.0873758 42.3391L0.0583496 31.1453L12.6267 31.2323V42.3101Z" fill="#FF8098"/>
<path d="M59.5332 119.797L50.4189 105.877L66.1802 97.8154L75.3235 111.735L59.5332 119.797Z" fill="#0E2951"/>
<path d="M61.1588 114.432L56.5146 107.298L64.5839 103.18L69.1991 110.314L61.1588 114.432Z" fill="#6780B3"/>
<path d="M75.4099 48.9222L50.3313 48.9512V31.2035L75.4099 31.1745V48.9222Z" fill="#3D95D1"/>
<path d="M75.4099 44.0503L50.3313 44.0793V31.2035L75.4099 31.1745V44.0503Z" fill="#6780B3"/>
<path d="M75.4099 39.1784H50.3313V31.2035L75.4099 31.1745V39.1784Z" fill="#053866"/>
<path d="M75.4099 35.1765H50.3313V31.2035L75.4099 31.1745V35.1765Z" fill="#0E2951"/>
<path d="M48.8221 79.1686L26.7332 79.1976L48.8221 93.2334L26.7332 93.2624" fill="#0E2951"/>
<path d="M0.0583496 75.3698L3.6576 75.2538V97.8734L0.0583496 97.9894V75.3698Z" fill="#709FDC"/>
<path d="M4.78906 75.6598L8.41734 75.5438V97.6994L4.78906 97.8444V75.6598Z" fill="#709FDC"/>
<path d="M19.9699 75.6016L23.5691 75.4566L23.5111 97.6993L19.8538 97.8153L19.9699 75.6016Z" fill="#709FDC"/>
<path d="M14.8323 75.6305L18.4896 75.5145V97.6992L14.8323 97.8151V75.6305Z" fill="#709FDC"/>
<path d="M9.81055 75.6595L13.4679 75.5145V97.6991L9.81055 97.8441V75.6595Z" fill="#709FDC"/>
<path d="M25.2231 75.5729L0.0864258 75.6019V53.4173L25.2231 53.3883V75.5729Z" fill="#0E2951"/>
<path d="M25.2231 119.913L0.0864258 119.942V97.7575L25.2231 97.7285V119.913Z" fill="#053866"/>
<path d="M25.2236 64.4661L12.6262 64.4951V53.4173L25.2236 53.3883V64.4661Z" fill="#3D95D1"/>
<path d="M0.0583496 101.092V98.8884C13.4394 98.8884 24.7887 104.833 24.7887 119.942L21.77 119.884C21.77 109.705 12.1333 101.092 0.0583496 101.092Z" fill="#B9D5FD"/>
<path d="M0 105.877V103.209C10.0721 103.209 18.7219 109.183 18.7219 119.826L15.0936 119.942C15.0936 112.17 8.82397 105.877 0 105.877Z" fill="#3D95D1"/>
<path d="M0.0583496 110.865L0.116402 108.313C6.96659 108.313 12.1042 113.301 12.1042 119.942L8.73719 120C8.70816 115.186 5.39917 110.865 0.0583496 110.865Z" fill="#3376B3"/>
<path d="M0.0583496 116.201L0.116402 113.388C3.86078 113.388 6.67633 116.114 6.06678 119.826L3.04805 119.768C3.04805 117.651 2.40947 116.172 0.0583496 116.201Z" fill="#709FDC"/>
<path d="M47.6321 51.039H27.8652V33.5523H47.6321V47.3271H31.5806V36.7713L43.9167 36.8003V44.1371H35.2959V39.9322H40.2014" stroke="#3D95D1" stroke-width="2" stroke-miterlimit="10"/>
<path d="M97.0056 50.6913L79.9382 33.8135" stroke="#0E2951" stroke-width="4" stroke-miterlimit="10"/>
<path d="M79.9382 50.6913L97.0056 33.8135" stroke="#0E2951" stroke-width="4" stroke-miterlimit="10"/>
<path d="M59.3589 71.1067H55.3533V67.5688L59.3589 67.5398V71.1067Z" fill="#B9D5FD"/>
<path d="M64.8738 66.235L60.8682 66.206V62.668L64.8738 62.697V66.235Z" fill="#B9D5FD"/>
<path d="M70.3887 61.3341L66.3831 61.3631V57.7961H70.3887V61.3341Z" fill="#B9D5FD"/>
<path d="M19.1576 48.081H0.0873758L0.0583496 31.1453L19.1576 31.2323V48.081Z" fill="#053866"/>
<path d="M14.049 43.5281H0.0873758L0.0583496 31.1453L14.049 31.2033V43.5281Z" fill="#709FDC"/>
<path d="M12.6258 75.6016H0.0864258V64.5238L12.6258 64.4948V75.6016Z" fill="#3D95D1"/>
<path d="M66.9057 3.16111L23.3084 2.78412L0.0583496 31.1456L43.975 31.2036L66.9057 3.16111Z" fill="#165B93"/>
<path d="M123.245 1.53697L123.623 0.60899L123.855 0" fill="#34DD17"/>
<path d="M123.971 3.30583L76.4263 3.16083L55.3533 31.2904L100.373 31.1744L123.971 3.30583Z" fill="#165B93"/>
<path d="M112.216 9.48284L100.373 31.1745L0.0583496 31.1455L11.843 9.27985L112.216 9.48284Z" fill="#9CCEF7"/>
<path d="M114.073 7.48204L123.971 3.30611L23.3077 2.78412L13.4678 7.13405L114.073 7.48204Z" fill="#9CCEF7"/>
<path d="M100.568 53.1429H0V97.7143H100.568V53.1429Z" fill="#A8D2FC"/>
<path d="M21.2964 79.5715V70.2335H12.8964V79.5715H14.8844V71.9835H19.2944V79.5715H21.2964ZM26.2306 79.7395C28.4706 79.7395 29.8146 78.1155 29.8146 76.1835C29.8146 74.2655 28.4706 72.6415 26.2306 72.6415C24.0046 72.6415 22.6606 74.2655 22.6606 76.1835C22.6606 78.1155 24.0046 79.7395 26.2306 79.7395ZM26.2306 78.1575C25.1246 78.1575 24.5086 77.2475 24.5086 76.1835C24.5086 75.1335 25.1246 74.2235 26.2306 74.2235C27.3366 74.2235 27.9666 75.1335 27.9666 76.1835C27.9666 77.2475 27.3366 78.1575 26.2306 78.1575ZM30.5037 81.2935H32.2957V79.5715H36.4537V81.2935H38.2317V78.0175H37.4897V72.8095H32.0157L31.5817 76.0855C31.3717 77.7235 31.0497 77.9895 30.5037 78.0875V81.2935ZM33.5697 74.3635H35.7117V78.0175H32.5757C32.9957 77.6255 33.2617 77.0235 33.3597 76.1975L33.5697 74.3635ZM38.7205 81.2935H40.5125V79.5715H44.6705V81.2935H46.4485V78.0175H45.7065V72.8095H40.2325L39.7985 76.0855C39.5885 77.7235 39.2665 77.9895 38.7205 78.0875V81.2935ZM41.7865 74.3635H43.9285V78.0175H40.7925C41.2125 77.6255 41.4785 77.0235 41.5765 76.1975L41.7865 74.3635ZM50.7453 79.7395C51.7953 79.7395 52.8593 79.4175 53.5313 78.8015L52.7473 77.6535C52.3133 78.0735 51.5153 78.3255 50.9413 78.3255C49.7933 78.3255 49.1073 77.6115 48.9953 76.7575H54.0213V76.3655C54.0213 74.1535 52.6493 72.6415 50.6333 72.6415C48.5753 72.6415 47.1333 74.2235 47.1333 76.1835C47.1333 78.3535 48.6873 79.7395 50.7453 79.7395ZM52.2993 75.5535H48.9673C49.0513 74.8815 49.5273 74.0555 50.6333 74.0555C51.8093 74.0555 52.2573 74.9095 52.2993 75.5535ZM59.1696 79.7395C60.9056 79.7395 62.1656 78.4375 62.1656 76.1835C62.1656 73.9295 60.9056 72.6415 59.1696 72.6415C58.3436 72.6415 57.6016 73.0055 57.0836 73.6635V72.8095H55.3056V82.1475H57.0836V78.7035C57.6296 79.4035 58.3716 79.7395 59.1696 79.7395ZM58.6096 78.1575C58.0356 78.1575 57.3776 77.8075 57.0836 77.3875V74.9935C57.3776 74.5595 58.0356 74.2235 58.6096 74.2235C59.6316 74.2235 60.3176 75.0215 60.3176 76.1835C60.3176 77.3595 59.6316 78.1575 58.6096 78.1575ZM64.3332 79.5715L66.1392 76.9675L66.4612 77.3175V79.5715H68.2532V77.3175L68.5752 76.9675L70.3812 79.5715H72.5932L69.8492 75.8755L72.5092 72.8095H70.3252L68.2532 75.2595V72.8095H66.4612V75.2595L64.3892 72.8095H62.2052L64.8652 75.8755L62.1212 79.5715H64.3332ZM80.0972 79.5715L77.3392 75.8755L80.0132 72.8095H77.8292L75.2672 75.8195V72.8095H73.4892V79.5715H75.2672V77.8355L76.0792 76.9675L77.8712 79.5715H80.0972ZM86.8194 79.5715V75.2035C86.8194 73.2575 85.4054 72.6415 83.8654 72.6415C82.8014 72.6415 81.7374 72.9775 80.9114 73.7055L81.5834 74.8955C82.1574 74.3635 82.8294 74.0975 83.5574 74.0975C84.4534 74.0975 85.0414 74.5455 85.0414 75.2315V76.1415C84.5934 75.6095 83.7954 75.3155 82.8994 75.3155C81.8214 75.3155 80.5474 75.9175 80.5474 77.4995C80.5474 79.0115 81.8214 79.7395 82.8994 79.7395C83.7814 79.7395 84.5794 79.4175 85.0414 78.8715V79.5715H86.8194ZM83.6134 78.5355C82.9134 78.5355 82.3394 78.1715 82.3394 77.5415C82.3394 76.8835 82.9134 76.5195 83.6134 76.5195C84.1874 76.5195 84.7474 76.7155 85.0414 77.1075V77.9475C84.7474 78.3395 84.1874 78.5355 83.6134 78.5355Z" fill="black"/>
</g>
<defs>
<clipPath id="clip0">
<rect width="124" height="120" fill="white"/>
</clipPath>
</defs>
</svg>
