<svg width="332" height="225" viewBox="0 0 332 225" fill="none" xmlns="http://www.w3.org/2000/svg">
<g filter="url(#filter0_d)">
<path d="M162.851 219L2 168.621L153.019 121.18L316.321 168.621L162.851 219Z" fill="#FFF5F7"/>
</g>
<path d="M42.2598 159.954C47.6174 162.401 59.6746 167.733 65.0427 169.483L81.7397 165.734L67.0713 154.956L42.2598 159.954Z" fill="url(#paint0_linear)"/>
<path d="M77.6626 159.688L98.7487 168.389H108.424L82.2206 156.038L77.6626 159.688Z" fill="url(#paint1_linear)"/>
<path d="M105.741 150.928L140.726 168.39H150.401L125.796 156.403L129.158 155.854C134.428 154.994 134.937 147.613 129.835 146.038C128.981 145.774 128.072 145.742 127.201 145.944L105.741 150.928Z" fill="url(#paint2_linear)"/>
<path d="M196.719 148.555L233.419 168.389H243.093L220.968 155.672C225.591 154.114 226.044 147.753 221.688 145.555L219.918 144.662C218.594 143.993 217.077 143.812 215.632 144.148L196.719 148.555Z" fill="url(#paint3_linear)"/>
<path d="M220.42 156.038L259.545 168.265H269.282L224.249 153.3L220.42 156.038Z" fill="url(#paint4_linear)"/>
<path d="M168.686 158.436L187.53 166.695C190.315 167.916 193.324 168.546 196.365 168.546H199.952C200.924 168.546 201.882 168.326 202.756 167.901C207.531 165.582 207.585 158.797 202.847 156.403L182.985 146.365C179.04 144.372 174.486 143.95 170.242 145.185L169.534 145.392C163.295 147.207 162.734 155.828 168.686 158.436Z" fill="url(#paint5_linear)"/>
<g filter="url(#filter1_f)">
<path d="M20.8813 161.674L78.9309 182.136H88.1377L82.364 179.48L80.3353 175.107L103.118 182.136H113.885L34.7696 156.05L20.8813 161.674Z" fill="url(#paint6_linear)"/>
</g>
<path d="M123.582 62.0981L127.214 60.4147C127.362 60.345 127.487 60.2358 127.577 60.0994C127.666 59.963 127.716 59.8046 127.72 59.6417C127.731 59.2185 127.76 58.7917 127.807 58.364C127.889 57.5823 128.033 56.8084 128.239 56.0495C128.285 55.8808 128.279 55.7021 128.223 55.5365C128.166 55.3709 128.061 55.2261 127.921 55.1208L124.592 52.5938C124.419 52.4634 124.302 52.2726 124.264 52.0596C124.226 51.8466 124.27 51.6272 124.387 51.4453L126.434 48.2241C126.546 48.0488 126.718 47.9208 126.919 47.8642C127.12 47.8076 127.334 47.8265 127.522 47.9172L130.983 49.6071C131.148 49.6902 131.337 49.7173 131.519 49.6842C131.701 49.6512 131.868 49.5598 131.994 49.4239C133.129 48.2498 134.444 47.2625 135.889 46.4985C136.06 46.4061 136.195 46.2602 136.274 46.0835C136.352 45.9069 136.37 45.7092 136.325 45.5212L135.763 43.2525C135.713 43.0427 135.741 42.8218 135.843 42.6312C135.944 42.4406 136.112 42.2935 136.315 42.2176L139.888 40.9353C139.959 40.9076 140.033 40.8903 140.109 40.884C140.286 40.8671 140.464 40.9058 140.619 40.9948C140.773 41.0838 140.895 41.2186 140.969 41.3804L142.231 44.0833L142.537 44.7427C143.258 44.7186 143.981 44.7455 144.699 44.8233C145.657 44.9255 146.604 45.1165 147.527 45.3939C147.694 45.446 147.874 45.4453 148.041 45.392C148.207 45.3388 148.354 45.2355 148.46 45.0963L150.5 42.4218C150.634 42.2458 150.83 42.1265 151.048 42.0876C151.267 42.0488 151.492 42.0932 151.679 42.2121L154.15 43.7691L154.858 44.2179C155.045 44.3352 155.182 44.5173 155.242 44.7292C155.303 44.9411 155.282 45.1677 155.185 45.3655L153.769 48.2479C153.686 48.4087 153.656 48.5918 153.685 48.7705C153.714 48.9491 153.799 49.1139 153.929 49.2407C154.699 50.0205 155.384 50.8803 155.971 51.8052C156.025 51.8795 156.075 51.9565 156.122 52.036C156.137 52.0631 156.154 52.0886 156.175 52.1121C156.279 52.25 156.422 52.3539 156.586 52.4105C156.749 52.4671 156.926 52.4739 157.094 52.4299L160.792 51.5286C160.833 51.5173 160.875 51.5102 160.917 51.5076C161.11 51.4906 161.304 51.5373 161.468 51.6403C161.632 51.7434 161.758 51.8972 161.826 52.0782L163.119 55.6255C163.194 55.8327 163.189 56.0607 163.104 56.2642C163.019 56.4677 162.86 56.632 162.659 56.7245L158.869 58.4748C158.712 58.5459 158.581 58.6627 158.492 58.8099C158.403 58.9571 158.361 59.1277 158.371 59.2991C158.406 60.0885 158.38 60.8794 158.294 61.6649C158.248 62.0887 158.185 62.5066 158.105 62.9188C158.073 63.0827 158.089 63.252 158.149 63.4078C158.208 63.5636 158.311 63.6997 158.444 63.8008L161.643 66.2316C161.814 66.3614 161.93 66.5502 161.968 66.761C162.006 66.9717 161.964 67.189 161.849 67.3701L159.819 70.5547C159.7 70.7416 159.517 70.8783 159.303 70.9385C159.09 70.9987 158.862 70.9781 158.663 70.8807L155.925 69.5426C155.749 69.4537 155.547 69.4265 155.354 69.4654C155.16 69.5043 154.985 69.6069 154.857 69.7569C153.839 70.981 152.637 72.0405 151.294 72.8975C151.137 72.9955 151.015 73.1406 150.946 73.3119C150.877 73.4832 150.864 73.6719 150.909 73.851L151.723 77.1757C151.776 77.391 151.747 77.618 151.642 77.8135C151.537 78.0089 151.364 78.1591 151.155 78.2354L147.61 79.5177C147.405 79.5921 147.18 79.5872 146.979 79.5039C146.778 79.4206 146.616 79.265 146.524 79.068L146.45 78.9104L144.985 75.7698C144.909 75.6062 144.785 75.4696 144.629 75.3783C144.473 75.2871 144.293 75.2457 144.113 75.2596C143.207 75.3223 142.296 75.3045 141.393 75.2065C140.903 75.1534 140.423 75.0755 139.946 74.9803C139.785 74.9458 139.617 74.9576 139.462 75.0146C139.307 75.0715 139.171 75.1711 139.071 75.3018L137 78.0174C136.865 78.1958 136.666 78.317 136.445 78.357C136.224 78.397 135.996 78.353 135.806 78.2336L132.622 76.2186C132.536 76.1615 132.459 76.091 132.394 76.0098C132.296 75.8792 132.236 75.7243 132.219 75.5619C132.203 75.3994 132.232 75.2357 132.302 75.0884L133.435 72.794C133.501 72.6557 133.531 72.5025 133.521 72.3494C133.51 72.1964 133.46 72.0485 133.376 71.9203C133.329 71.8523 133.274 71.7907 133.211 71.7371C131.642 70.4288 130.35 68.8215 129.411 67.0092C129.334 66.8595 129.215 66.7356 129.068 66.6527C128.921 66.5699 128.753 66.5318 128.584 66.543C128.534 66.5467 128.485 66.5543 128.436 66.5659L125.443 67.2986C125.233 67.3497 125.011 67.3219 124.82 67.2205C124.63 67.1192 124.483 66.9514 124.408 66.7491L124.378 66.6676L123.114 63.211C123.038 63.0008 123.044 62.7699 123.131 62.5639C123.218 62.3579 123.378 62.1917 123.582 62.0981ZM151.204 58.5344C151.097 57.9055 150.932 57.288 150.71 56.6897C150.268 55.4991 149.027 53.9503 147.953 53.2688C147.838 53.1947 147.723 53.1251 147.608 53.0564C140.525 48.9183 132.552 55.4285 135.355 63.2421C135.722 64.2633 136.641 65.5154 137.59 66.3305C137.794 66.5074 138.012 66.6688 138.24 66.8132C139.156 67.3933 140.163 67.8133 141.221 68.0552C146.889 69.3118 152.183 64.5628 151.204 58.5344Z" fill="#EBF2F9"/>
<path d="M140.856 54.0582C140.649 54.0841 140.52 54.11 140.442 54.1619C140.416 54.1878 140.39 54.2396 140.416 54.3692C140.442 54.6025 140.546 55.069 140.701 55.7688C141.322 58.8014 141.84 60.8231 142.281 61.808L142.436 62.119L143.472 62.0154L144.119 61.9635C144.352 61.9376 144.507 61.8858 144.585 61.8339C144.663 61.7821 144.715 61.6525 144.715 61.497C144.715 61.3415 144.689 61.0304 144.663 60.6157L144.611 60.0455C144.507 59.1643 144.404 58.1275 144.248 56.9611C144.093 55.7948 143.99 55.069 143.938 54.8098C143.912 54.5507 143.834 54.3951 143.756 54.2915C143.575 54.11 143.083 54.0063 142.281 54.0063C141.711 54.0063 141.245 54.0063 140.856 54.0582ZM144.015 62.4301C143.472 62.4819 143.057 62.6633 142.798 63.0003C142.539 63.3113 142.436 63.726 142.488 64.1926C142.539 64.711 142.773 65.1257 143.161 65.4367C143.549 65.7477 144.015 65.8773 144.533 65.8255C144.715 65.7996 144.87 65.7736 144.999 65.6959C145.31 65.5663 145.595 65.333 145.828 64.9961C146.061 64.6591 146.165 64.3222 146.139 64.0371C146.087 63.6742 145.932 63.3372 145.647 63.0262C145.362 62.7152 145.025 62.5337 144.611 62.4301C144.482 62.4042 144.274 62.4042 144.015 62.4301Z" fill="#EBF2F9"/>
<path d="M331.517 119.991L328.149 118.435C328.012 118.371 327.896 118.27 327.813 118.144C327.73 118.017 327.684 117.871 327.68 117.72C327.67 117.329 327.643 116.935 327.6 116.539C327.524 115.816 327.39 115.101 327.199 114.399C327.156 114.243 327.161 114.078 327.214 113.925C327.267 113.772 327.364 113.638 327.494 113.541L330.581 111.204C330.741 111.084 330.85 110.907 330.885 110.71C330.92 110.514 330.88 110.311 330.771 110.143L328.873 107.164C328.769 107.002 328.609 106.884 328.423 106.832C328.237 106.779 328.038 106.797 327.864 106.881L324.655 108.443C324.501 108.52 324.327 108.545 324.157 108.514C323.988 108.484 323.834 108.399 323.717 108.274C322.665 107.188 321.445 106.275 320.105 105.569C319.947 105.484 319.822 105.349 319.749 105.185C319.676 105.022 319.659 104.839 319.701 104.666L320.222 102.568C320.268 102.374 320.242 102.17 320.148 101.994C320.054 101.817 319.898 101.682 319.71 101.611L316.397 100.426C316.332 100.4 316.263 100.384 316.193 100.378C316.028 100.363 315.863 100.398 315.72 100.481C315.577 100.563 315.463 100.688 315.395 100.837L314.225 103.336L313.941 103.946C313.272 103.924 312.602 103.948 311.936 104.02C311.047 104.115 310.169 104.291 309.314 104.548C309.159 104.596 308.992 104.595 308.838 104.546C308.683 104.497 308.547 104.401 308.449 104.273L306.557 101.8C306.432 101.637 306.251 101.527 306.048 101.491C305.846 101.455 305.637 101.496 305.464 101.606L303.172 103.046L302.516 103.461C302.343 103.569 302.216 103.737 302.16 103.933C302.104 104.129 302.122 104.339 302.213 104.522L303.526 107.186C303.603 107.335 303.63 107.504 303.603 107.67C303.577 107.835 303.498 107.987 303.378 108.104C302.663 108.825 302.028 109.62 301.484 110.475C301.434 110.544 301.387 110.615 301.344 110.689C301.33 110.714 301.314 110.737 301.295 110.759C301.198 110.887 301.066 110.983 300.914 111.035C300.762 111.087 300.598 111.094 300.443 111.053L297.013 110.22C296.976 110.209 296.937 110.203 296.898 110.2C296.718 110.184 296.539 110.228 296.387 110.323C296.235 110.418 296.118 110.56 296.055 110.728L294.856 114.007C294.786 114.199 294.791 114.41 294.87 114.598C294.949 114.786 295.096 114.938 295.282 115.023L298.796 116.642C298.942 116.707 299.064 116.815 299.146 116.951C299.229 117.087 299.268 117.245 299.258 117.404C299.226 118.133 299.25 118.865 299.33 119.591C299.372 119.983 299.431 120.369 299.505 120.75C299.534 120.902 299.52 121.058 299.465 121.202C299.409 121.346 299.314 121.472 299.191 121.566L296.224 123.813C296.066 123.933 295.958 124.107 295.923 124.302C295.888 124.497 295.927 124.698 296.033 124.865L297.916 127.81C298.026 127.983 298.196 128.109 298.394 128.165C298.592 128.22 298.803 128.201 298.988 128.111L301.527 126.874C301.69 126.792 301.877 126.767 302.056 126.803C302.236 126.839 302.398 126.934 302.517 127.072C303.46 128.204 304.575 129.183 305.821 129.976C305.966 130.066 306.079 130.2 306.143 130.359C306.208 130.517 306.22 130.692 306.178 130.857L305.423 133.931C305.374 134.13 305.401 134.34 305.498 134.521C305.595 134.701 305.756 134.84 305.949 134.911L309.237 136.096C309.427 136.165 309.636 136.161 309.822 136.084C310.008 136.007 310.159 135.863 310.244 135.681L310.313 135.535L311.671 132.631C311.741 132.48 311.856 132.354 312.001 132.269C312.145 132.185 312.312 132.147 312.48 132.16C313.32 132.217 314.164 132.201 315.001 132.11C315.456 132.061 315.901 131.989 316.343 131.901C316.493 131.869 316.649 131.88 316.792 131.933C316.936 131.986 317.062 132.078 317.155 132.199L319.075 134.709C319.201 134.874 319.384 134.986 319.589 135.023C319.795 135.06 320.006 135.019 320.182 134.909L323.134 133.046C323.215 132.993 323.286 132.928 323.346 132.853C323.437 132.732 323.493 132.589 323.508 132.439C323.523 132.289 323.496 132.137 323.431 132.001L322.381 129.88C322.319 129.752 322.292 129.611 322.302 129.469C322.311 129.328 322.357 129.191 322.436 129.072C322.479 129.009 322.53 128.952 322.588 128.903C324.044 127.693 325.242 126.207 326.112 124.532C326.183 124.393 326.294 124.279 326.431 124.202C326.567 124.126 326.723 124.09 326.879 124.101C326.925 124.104 326.971 124.111 327.016 124.122L329.792 124.799C329.986 124.847 330.192 124.821 330.369 124.727C330.546 124.633 330.682 124.478 330.751 124.291L330.779 124.216L331.951 121.02C332.021 120.826 332.016 120.612 331.935 120.422C331.855 120.232 331.706 120.078 331.517 119.991ZM305.904 116.697C306.003 116.115 306.156 115.544 306.362 114.991C306.772 113.89 307.923 112.458 308.918 111.828C309.025 111.76 309.132 111.696 309.239 111.632C315.807 107.806 323.199 113.825 320.601 121.049C320.26 121.993 319.408 123.151 318.528 123.904C318.339 124.068 318.137 124.217 317.925 124.351C317.076 124.887 316.142 125.275 315.161 125.499C309.905 126.661 304.997 122.27 305.904 116.697Z" fill="#EBF2F9"/>
<path d="M241.934 154.76L285.691 168.447H295.172L241.934 150.015V154.76Z" fill="url(#paint7_linear)"/>
<path d="M226.938 57.0191C228.726 57.0191 230.175 55.5686 230.175 53.7793C230.175 51.99 228.726 50.5396 226.938 50.5396C225.151 50.5396 223.702 51.99 223.702 53.7793C223.702 55.5686 225.151 57.0191 226.938 57.0191Z" fill="#EBF2F9"/>
<path d="M248.084 34.2332C250.05 34.2332 251.644 32.6377 251.644 30.6695C251.644 28.7013 250.05 27.1057 248.084 27.1057C246.118 27.1057 244.524 28.7013 244.524 30.6695C244.524 32.6377 246.118 34.2332 248.084 34.2332Z" fill="#EBF2F9"/>
<path d="M272.143 51.1341C272.143 52.268 273.06 53.132 274.138 53.132C275.271 53.132 276.134 52.214 276.134 51.1341C276.134 50.0002 275.217 49.1362 274.138 49.1362C273.06 49.1362 272.143 50.0002 272.143 51.1341Z" fill="#EBF2F9"/>
<path d="M290.537 26.0254C292.682 26.0254 294.421 24.2849 294.421 22.1377C294.421 19.9906 292.682 18.25 290.537 18.25C288.392 18.25 286.653 19.9906 286.653 22.1377C286.653 24.2849 288.392 26.0254 290.537 26.0254Z" fill="#EBF2F9"/>
<path d="M227.423 54.0492L226.506 53.5092L247.921 29.8589L274.03 50.3234L290.051 21.8135L290.968 22.4614L274.245 51.9433L248.245 31.4788L227.423 54.0492Z" fill="#EBF2F9"/>
<path d="M32.2073 106.91C33.1817 106.91 33.9717 106.119 33.9717 105.144C33.9717 104.168 33.1817 103.378 32.2073 103.378C31.2328 103.378 30.4429 104.168 30.4429 105.144C30.4429 106.119 31.2328 106.91 32.2073 106.91Z" fill="#EBF2F9"/>
<path d="M43.7338 94.4878C44.8057 94.4878 45.6746 93.618 45.6746 92.545C45.6746 91.4721 44.8057 90.6023 43.7338 90.6023C42.6619 90.6023 41.793 91.4721 41.793 92.545C41.793 93.618 42.6619 94.4878 43.7338 94.4878Z" fill="#EBF2F9"/>
<path d="M56.8501 103.701C56.8501 104.32 57.35 104.791 57.9381 104.791C58.5557 104.791 59.0262 104.29 59.0262 103.701C59.0262 103.083 58.5263 102.612 57.9381 102.612C57.35 102.612 56.8501 103.083 56.8501 103.701Z" fill="#EBF2F9"/>
<path d="M66.877 90.0136C68.0464 90.0136 68.9943 89.0647 68.9943 87.8943C68.9943 86.7238 68.0464 85.7749 66.877 85.7749C65.7077 85.7749 64.7598 86.7238 64.7598 87.8943C64.7598 89.0647 65.7077 90.0136 66.877 90.0136Z" fill="#EBF2F9"/>
<path d="M32.4716 105.29L31.9717 104.996L43.6461 92.1032L57.8788 103.259L66.6126 87.7173L67.1125 88.0705L57.9964 104.142L43.8225 92.9862L32.4716 105.29Z" fill="#EBF2F9"/>
<path d="M192.865 30.1759C193.944 30.0574 194.958 30.294 196 30.8222C197.024 31.3968 197.733 32.2558 198.225 33.5045C198.431 34.0529 198.499 34.4202 198.526 34.7117C198.546 35.3876 198.316 35.9928 197.722 36.4684C197.185 36.9734 196.51 37.2973 195.733 37.3469C194.595 37.4361 193.581 37.1994 192.65 36.561C191.702 35.9691 191.011 35.0636 190.483 33.908L190.34 33.5579C190.076 32.9801 190.119 32.5025 190.26 32.1301C190.52 31.2629 191.034 30.6355 191.843 30.3237C192.185 30.3308 192.505 30.2154 192.865 30.1759ZM188.074 10.4301C189.229 10.2944 190.181 10.3327 190.946 10.4986C191.653 10.6351 192.614 11.0115 193.713 11.5689C194.755 12.097 195.645 12.6595 196.327 13.2271C197.806 14.421 198.912 15.87 199.548 17.4687C200.08 18.7932 200.288 20.0642 200.073 21.1763C199.916 22.3177 199.319 23.3469 198.303 24.3862C197.638 25.0481 197.218 25.6118 197.059 26.0307C196.882 26.4962 196.763 26.991 196.801 27.6204C196.798 28.1739 196.75 28.4826 196.679 28.6688C196.55 28.8256 196.306 28.9238 195.871 28.9805C195.511 29.02 194.542 29.0282 192.906 28.9758C191.27 28.9233 190.319 28.885 190.052 28.8607C189.727 28.8071 189.478 28.7363 189.34 28.5552C189.202 28.3741 189.063 28.1929 188.983 28.0412C188.88 27.7669 188.762 26.9858 188.688 25.727C188.613 24.4682 188.647 23.6526 188.788 23.2802C188.947 22.8612 189.332 22.3907 190.06 21.9271C190.712 21.4808 191.063 21.1034 191.279 20.7137C191.479 20.3707 191.504 19.9396 191.414 19.4499L191.409 19.2809L191.329 19.1291C191.02 18.3064 190.459 17.9665 189.605 18.0334C188.961 18.0952 188.359 18.9554 187.799 20.6139C187.645 21.2019 187.405 21.469 187.254 21.5034C187.179 21.5207 187.121 21.4913 187.063 21.462L186.912 21.4964C186.303 21.4651 184.839 20.7782 182.635 19.4943C181.843 19.037 181.433 18.6626 181.289 18.3125C181.187 18.0383 181.19 17.4848 181.245 16.7916C181.42 15.6037 181.995 14.452 182.912 13.3075C183.812 12.2095 184.872 11.415 186.017 10.9413C186.599 10.6812 187.279 10.5263 188.074 10.4301Z" fill="#EBF2F9"/>
<path d="M69.7849 16.607C70.2858 16.4399 70.6614 16.3981 70.8283 16.4399C70.9118 16.4399 71.037 16.607 71.1205 16.8994C71.2874 17.4843 71.5379 18.6541 71.83 20.4506C73.2909 28.1379 74.0004 33.3603 73.9587 36.0759L73.9169 36.995L71.3709 37.747L69.7849 38.2484C69.2423 38.4155 68.8249 38.4573 68.5745 38.3737C68.3241 38.2902 68.1154 38.0813 67.9484 37.7053C67.7815 37.3292 67.5311 36.619 67.2389 35.6163L66.8215 34.2376C66.1955 32.0651 65.4859 29.5584 64.7347 26.6757C63.9834 23.7929 63.5243 22.0382 63.399 21.328C63.2321 20.7013 63.2321 20.2417 63.3156 19.9493C63.566 19.3644 64.6094 18.6541 66.4459 17.8604C67.7398 17.3172 68.8667 16.8994 69.7849 16.607ZM70.4527 39.1675C71.7883 38.7915 72.9152 38.8333 73.8334 39.2928C74.7517 39.7942 75.3777 40.588 75.7534 41.7996C76.129 43.0529 76.0038 44.2645 75.3777 45.3925C74.7517 46.5206 73.8334 47.2726 72.5813 47.6068C72.1222 47.7321 71.7048 47.8157 71.3709 47.7739C70.4944 47.7739 69.618 47.4815 68.7415 46.9384C67.865 46.3535 67.3224 45.7268 67.1137 45.0165C66.8633 44.1392 66.905 43.1783 67.2806 42.2174C67.6563 41.2564 68.2823 40.4627 69.1171 39.836C69.4093 39.5435 69.8684 39.3346 70.4527 39.1675Z" fill="#EBF2F9"/>
<g filter="url(#filter2_di)">
<path d="M25.5776 169.726C37.6011 169.726 43.4125 161.89 43.4125 151.5C43.4125 136.245 17.8291 134.799 17.8291 127.312C17.8291 123.906 20.1002 121.606 24.1749 121.606C28.7171 121.606 33.5265 123.565 37.1336 127.823L42.4105 118.966C38.0019 113.771 32.1237 111.046 25.0432 111.046C14.556 111.046 8.14347 118.881 8.14347 128.334C9.86029 142.442 33.7937 144.085 33.7937 152.863C33.7937 156.099 31.2554 159.165 26.0452 159.165C19.8998 159.165 15.0236 155.673 11.8841 151.5L6.74072 160.698C10.8822 166.063 17.0275 169.726 25.5776 169.726Z" fill="url(#paint8_linear)"/>
<path d="M69.905 169.726C83.4649 169.726 90.011 160.102 90.011 145.964V111.897H80.3254V145.623C80.3254 153.544 76.7851 158.995 69.905 158.995C63.0249 158.995 59.4178 153.544 59.4178 145.623V111.897H49.799V146.049C49.799 160.017 56.3451 169.726 69.905 169.726Z" fill="url(#paint9_linear)"/>
<path d="M108.273 168.704V148.519H119.629C129.248 148.519 134.592 140.087 134.592 130.208C134.592 120.244 129.315 111.897 119.629 111.897H98.7881V168.704H108.273ZM118.36 137.873H108.273V122.543H118.36C122.1 122.543 124.906 125.439 124.906 130.208C124.906 134.892 122.1 137.873 118.36 137.873Z" fill="url(#paint10_linear)"/>
<path d="M149.956 168.704V148.519H161.312C170.931 148.519 176.275 140.087 176.275 130.208C176.275 120.244 170.998 111.897 161.312 111.897H140.471V168.704H149.956ZM160.043 137.873H149.956V122.543H160.043C163.784 122.543 166.589 125.439 166.589 130.208C166.589 134.892 163.784 137.873 160.043 137.873Z" fill="url(#paint11_linear)"/>
<path d="M203.262 169.726C216.755 169.726 226.575 157.462 226.575 140.343C226.575 123.224 216.755 110.96 203.262 110.96C189.836 110.96 180.017 123.224 180.017 140.343C180.017 157.462 189.836 169.726 203.262 169.726ZM203.262 158.995C195.046 158.995 189.769 150.904 189.769 140.343C189.769 129.697 195.046 121.691 203.262 121.691C211.478 121.691 216.822 129.697 216.822 140.343C216.822 150.904 211.478 158.995 203.262 158.995Z" fill="url(#paint12_linear)"/>
<path d="M295.34 168.704V122.543H308.299V111.897H272.763V122.543H285.788V168.704H295.34Z" fill="url(#paint13_linear)"/>
<path fill-rule="evenodd" clip-rule="evenodd" d="M269.302 168.704L259.282 147.071C264.091 145.623 269.034 140.258 269.034 130.208C269.034 119.647 263.357 111.897 254.072 111.897H233.231V168.704H242.716V148.519H249.663L258.414 168.704H269.302ZM242.716 137.873H252.669C256.476 137.873 259.349 134.977 259.349 130.208C259.349 125.439 256.476 122.543 252.669 122.543H242.716V137.873Z" fill="url(#paint14_linear)"/>
</g>
<path d="M244.115 71.5212C251.97 73.1526 254.368 73.9158 259.005 69.6933C259.005 69.6933 259.326 58.7741 256.059 52.9247C252.792 47.0752 249.638 46.091 245.229 47.6732C245.229 47.6732 244.194 46.8007 242.24 48.2202C234.246 54.025 239.609 64.9129 244.115 71.5212Z" fill="#412716"/>
<path d="M254.088 49.8194C251.73 51.5 249.629 50.6156 246.875 51.089C242.959 51.8059 242.963 56.2742 240.094 54.942C239.016 67.0448 238.927 72.3685 242.79 81.1118C250.687 85.1004 253.156 88.7761 257.063 82.0885C257.063 82.0885 261.45 66.8036 257.422 56.1738C257.105 55.2686 254.42 50.5736 254.088 49.8194Z" fill="#3C2415"/>
<path d="M244.172 83.9353C244.172 83.9353 244.974 75.3407 245.985 72.7723C245.946 71.2961 245.973 69.3727 245.808 68.1991L252.392 64.5502C252.443 64.4253 251.518 70.6603 252.871 73.9854C254.148 73.6486 248.261 82.5905 248.261 82.5905L244.172 83.9353Z" fill="#FFCFAE"/>
<path d="M251.334 65.8621C247.571 67.8439 249.796 66.6225 247.475 67.8167L245.631 68.9311C245.571 69.6742 246.213 70.3174 246.91 70.111C248.183 69.734 249.432 68.4886 250.92 66.3951L251.334 65.8621Z" fill="#F5B994"/>
<path d="M239.555 63.5305C240.574 66.1869 241.258 69.5867 244.733 68.3581C248.207 67.1295 250.718 65.7205 251.545 64.5775C252.619 63.0934 252.586 62.3446 252.798 60.1995C253.065 57.5003 253.212 55.4602 252.945 54.8238C250.496 50.2214 248.273 50.9198 246.102 51.3614C241.619 53.1942 239.367 54.7645 239.156 59.0294C239.132 59.5206 238.937 61.9206 239.555 63.5305Z" fill="#FFCFAE"/>
<path d="M248.122 57.7052C247.751 57.68 247.631 57.7335 247.084 57.8379C246.835 57.9058 246.59 57.9953 246.358 58.1043C246.358 58.1043 245.82 58.5906 245.755 58.6528C245.642 58.765 245.687 58.8589 245.861 58.8424C246.034 58.8259 246.225 58.7524 246.371 58.745C247.498 58.658 247.74 58.6604 248.378 58.3623C248.633 58.2487 248.875 58.1165 249.101 57.9685C248.824 57.8241 248.49 57.7343 248.122 57.7052Z" fill="white"/>
<path d="M247.283 58.0859C246.918 58.2363 246.655 58.5532 246.695 58.7938C246.706 58.8565 246.795 58.8669 247.003 58.8152C247.066 58.7997 247.4 58.7167 247.646 58.6332C247.687 58.588 247.945 58.5358 247.98 58.4708C248.014 58.3945 248.028 58.3187 248.016 58.2493C247.976 58.0088 247.647 57.9356 247.283 58.0859Z" fill="#28160D" stroke="#1C1105" stroke-width="0.2" stroke-miterlimit="10"/>
<path d="M247.344 58.3224C247.146 58.4061 247.003 58.5824 247.025 58.7162C247.035 58.7734 247.072 58.8135 247.128 58.8343L247.589 58.7048C247.694 58.6167 247.756 58.505 247.741 58.4132C247.719 58.2794 247.542 58.2387 247.344 58.3224Z" fill="black"/>
<path opacity="0.77" d="M247.677 58.5378C247.784 58.4923 247.861 58.3963 247.849 58.3233C247.837 58.2504 247.741 58.2281 247.634 58.2736C247.527 58.3191 247.45 58.4151 247.462 58.4881C247.474 58.561 247.57 58.5833 247.677 58.5378Z" fill="white"/>
<path d="M245.702 58.6863L246.338 58.0958C246.396 58.0426 246.47 57.9982 246.553 57.9675L246.819 57.8726C246.954 57.8245 247.095 57.7905 247.236 57.7719L247.921 57.6827C248.061 57.6645 248.197 57.6683 248.318 57.6936L249.032 57.8484L249.261 57.8149L248.592 57.5402C248.446 57.5088 248.282 57.5039 248.114 57.5258L247.43 57.6147C247.269 57.6357 247.107 57.6752 246.952 57.7316L246.688 57.8261C246.516 57.8766 246.351 57.9481 246.203 58.0366L245.454 58.7512L245.702 58.6863Z" fill="#D3A688"/>
<path opacity="0.5" d="M245.643 58.7353L246.278 58.1552C246.346 58.0928 246.435 58.0407 246.534 58.0051L246.797 57.9122C246.947 57.8594 247.102 57.8225 247.257 57.8029L247.941 57.7151C248.095 57.6948 248.245 57.6992 248.378 57.728L249.08 57.8805" stroke="#0A0001" stroke-width="0.3" stroke-miterlimit="10"/>
<path d="M245.791 58.897L246.073 58.854C246.22 58.8313 246.368 58.8169 246.513 58.8111C246.864 58.7861 247.587 58.771 248.213 58.5777C248.253 58.565 248.531 58.4427 248.568 58.4263L248.924 58.2749" stroke="#472A22" stroke-width="0.2" stroke-miterlimit="10"/>
<path d="M240.889 58.6112C241.222 58.452 241.333 58.4562 241.835 58.3488C242.065 58.3182 242.291 58.3091 242.509 58.3217C242.509 58.3217 243.027 58.5624 243.09 58.5947C243.199 58.6546 243.165 58.7556 243.007 58.8047C242.849 58.8537 242.672 58.8577 242.539 58.9049C241.516 59.2413 241.298 59.3326 240.702 59.2985C240.464 59.2899 240.236 59.2601 240.022 59.2096C240.263 58.9771 240.558 58.7729 240.889 58.6112Z" fill="white"/>
<path d="M241.693 58.6235C242.001 58.5694 242.234 58.7329 242.214 58.9885C242.209 59.0551 242.136 59.1143 241.962 59.1783C241.91 59.1975 241.63 59.3003 241.425 59.3537C241.388 59.3325 241.173 59.4236 241.141 59.3794C241.109 59.324 241.094 59.2579 241.1 59.1842C241.12 58.9285 241.386 58.6775 241.693 58.6235Z" fill="#28160D" stroke="#1C1105" stroke-width="0.2" stroke-miterlimit="10"/>
<path d="M241.673 58.862C241.836 58.8321 241.959 58.922 241.949 59.0629C241.944 59.123 241.916 59.1827 241.872 59.2337L241.496 59.3668C241.408 59.3403 241.352 59.2677 241.359 59.1712C241.37 59.0303 241.511 58.8919 241.673 58.862Z" fill="black"/>
<path opacity="0.77" d="M241.371 59.162C241.284 59.1783 241.218 59.1294 241.224 59.0528C241.229 58.9763 241.305 58.9011 241.392 58.8849C241.479 58.8686 241.545 58.9175 241.539 58.9941C241.534 59.0706 241.458 59.1458 241.371 59.162Z" fill="white"/>
<path d="M243.118 58.6399L242.502 58.3309C242.446 58.3033 242.375 58.2896 242.298 58.2913L242.052 58.2996C241.926 58.3041 241.796 58.3233 241.668 58.3563L241.043 58.5187C240.916 58.5519 240.793 58.6035 240.685 58.6697L240.052 59.063L239.843 59.1139L240.428 58.6278C240.557 58.5475 240.704 58.485 240.858 58.4451L241.481 58.2831C241.628 58.2448 241.777 58.2232 241.921 58.2191L242.166 58.2111C242.325 58.1956 242.479 58.2018 242.619 58.2295L243.346 58.6106L243.118 58.6399Z" fill="#D3A688"/>
<path opacity="0.5" d="M243.185 58.67L242.57 58.3664C242.503 58.3338 242.419 58.3177 242.327 58.3201L242.083 58.3281C241.944 58.3326 241.801 58.3535 241.66 58.39L241.036 58.5499C240.896 58.5855 240.761 58.6419 240.643 58.7147L240.021 59.0984" stroke="#0A0001" stroke-width="0.3" stroke-miterlimit="10"/>
<path d="M243.125 58.9448L242.868 58.9897C242.733 59.0131 242.598 59.0442 242.467 59.0825C242.149 59.1648 241.496 59.3683 240.914 59.3784C240.877 59.3784 240.615 59.3494 240.579 59.3455L240.245 59.3126" stroke="#472A22" stroke-width="0.2" stroke-miterlimit="10"/>
<path d="M252.199 58.9298C252.883 57.6016 253.878 57.0235 254.426 57.6494C254.973 58.2753 254.622 59.8122 253.934 61.1462C253.246 62.4803 252.254 63.0117 251.954 62.4657C251.402 61.8458 251.519 60.2572 252.199 58.9298Z" fill="#FFCFAE"/>
<path d="M252.8 59.7764C253.187 58.9559 253.66 58.5798 253.854 58.9364C254.047 59.293 253.88 60.2525 253.49 61.068C253.099 61.8835 252.625 62.2701 252.422 61.9091C252.219 61.5481 252.406 60.5922 252.8 59.7764Z" fill="#F5B994"/>
<path d="M252.401 61.2034C252.589 60.7099 252.92 60.4216 253.142 60.5687C253.364 60.7158 253.385 61.2349 253.201 61.7274C253.017 62.2198 252.681 62.5055 252.46 62.3621C252.239 62.2187 252.216 61.7081 252.401 61.2034Z" fill="#FFCFAE"/>
<path d="M239.348 58.5794C239.74 57.8502 240.377 56.0771 242.523 56.9058C242.658 56.958 242.724 56.9772 242.789 57.2603C240.832 57.0151 240.664 56.9798 239.348 58.5794Z" fill="#553723"/>
<path d="M249.87 56.7458C249.425 56.3618 248.313 55.7869 245.855 56.8316C245.691 56.9178 245.612 56.9554 245.524 57.1827C247.821 56.4677 248.121 56.3745 249.87 56.7458Z" fill="#553723"/>
<path d="M243.576 59.6401C243.712 61.0226 243.257 61.7611 242.818 63.0443C242.826 63.118 242.849 63.1893 242.887 63.2542C243.028 63.5043 243.575 63.4882 244.191 63.254C244.422 63.1941 244.546 63.2199 244.761 63.2954" stroke="#D3A688" stroke-width="0.5" stroke-miterlimit="10"/>
<path d="M241.92 55.4136C241.181 57.7006 239.345 59.0918 238.926 59.1127L239.317 54.1272L245.223 48.964L252.896 52.0542L252.362 58.4577C245.052 52.9247 247.465 49.9969 245.521 50.6563C243.577 51.3157 242.844 52.5549 241.92 55.4136Z" fill="#412616"/>
<g clip-path="url(#clip0)">
<g style="mix-blend-mode:multiply" opacity="0.8">
<path d="M242.661 65.3218C242.663 65.3221 242.664 65.3223 242.666 65.3225C242.801 65.3441 242.94 65.3234 243.066 65.2628C243.618 65.0179 244.213 64.9098 244.806 64.9466C245.361 64.9405 245.912 64.8619 246.45 64.7124C246.781 64.5658 246.543 64.9385 246.543 64.9385C246.407 65.2804 246.181 65.5716 245.893 65.7747C245.605 65.9778 245.268 66.0837 244.926 66.0788C244.242 66.1805 243.645 66.0988 243.096 65.6523C243.026 65.6777 242.747 65.3411 242.666 65.3225C242.664 65.3222 242.663 65.322 242.661 65.3218Z" fill="#FFC6C6"/>
</g>
<path d="M243.032 65.4417C243.462 65.2291 243.93 65.1257 244.401 65.1393C245.085 65.1689 245.77 65.0693 246.425 64.8449C246.221 65.1942 245.938 65.4808 245.602 65.6768C245.267 65.8728 244.891 65.9713 244.512 65.9628C244.244 65.9983 243.973 65.97 243.717 65.88C243.461 65.79 243.228 65.6404 243.032 65.4417Z" fill="#FDFCFC"/>
<path d="M243.032 65.4418L243.229 65.3451C243.297 65.3134 243.366 65.2858 243.437 65.2623L243.644 65.1996C243.714 65.1793 243.785 65.1629 243.857 65.1506L244.075 65.1153C244.143 65.1189 244.217 65.1229 244.291 65.1268L244.724 65.1097C244.866 65.1172 245.008 65.1248 245.152 65.0788L245.388 65.0579L245.582 65.0079L245.788 64.9719L246.013 64.9236C246.083 64.9112 246.153 64.8925 246.22 64.8676C246.283 64.8481 246.345 64.8222 246.403 64.7902L246.536 64.737L246.479 64.8747C246.44 64.9565 246.394 65.0348 246.343 65.1087L246.264 65.2117L246.178 65.3077L246.087 65.3967L245.984 65.4783C245.919 65.5343 245.85 65.5844 245.778 65.6282C245.489 65.8043 245.173 65.9194 244.845 65.9673C244.765 65.9829 244.684 65.992 244.603 65.9946L244.48 65.988L244.356 65.9814C244.276 65.9772 244.196 65.9729 244.116 65.9687L243.876 65.9559C243.795 65.9386 243.716 65.9142 243.639 65.8829C243.562 65.8546 243.487 65.8192 243.416 65.7772C243.378 65.7578 243.342 65.7358 243.308 65.7112L243.208 65.612L243.114 65.5266C243.085 65.5 243.058 65.4717 243.032 65.4418ZM243.032 65.4418C243.06 65.4721 243.089 65.5005 243.12 65.5269L243.221 65.6127L243.322 65.6717L243.431 65.7311C243.503 65.7687 243.577 65.7996 243.654 65.8234C243.734 65.8277 243.806 65.8717 243.886 65.8827L244.12 65.8951C244.2 65.8994 244.28 65.9037 244.36 65.9079L244.484 65.9145L244.595 65.9204C244.675 65.9247 244.757 65.8955 244.831 65.8861C245.144 65.8325 245.446 65.7167 245.721 65.5447L245.92 65.4012C245.947 65.3719 245.972 65.3395 245.993 65.3045L246.084 65.2222L246.163 65.1326C246.197 65.1025 246.228 65.0681 246.255 65.0303C246.301 64.9651 246.342 64.8955 246.377 64.8223L246.453 64.9001C246.383 64.9322 246.312 64.9597 246.239 64.9825L246.007 65.0372L245.807 65.0802L245.595 65.1158L245.383 65.1448L245.166 65.1667C245.024 65.1592 244.876 65.1513 244.733 65.1838C244.589 65.2164 244.443 65.1684 244.301 65.1609L244.086 65.1494L243.874 65.1717L243.662 65.2073L243.45 65.2563L243.242 65.3257L243.032 65.4418Z" fill="#CB7A63"/>
<g style="mix-blend-mode:multiply" opacity="0.4">
<path d="M246.425 64.8449C245.77 65.0693 245.085 65.1689 244.401 65.1393C243.93 65.1257 243.462 65.2291 243.032 65.4417C243.175 65.6015 243.354 65.7193 243.551 65.7844C243.357 65.5931 243.314 65.3562 243.823 65.3096C244.333 65.263 245.146 65.2996 245.589 65.2293C246.031 65.1591 245.719 65.7926 244.358 65.9479L244.494 65.9552C244.875 65.9679 245.254 65.8722 245.593 65.6774C245.932 65.4827 246.219 65.1957 246.425 64.8449Z" fill="#CEC0B6"/>
</g>
</g>
<path d="M240.416 144.795C240.512 144.991 240.55 145.21 240.525 145.427C240.5 145.644 240.413 145.849 240.275 146.018C239.771 146.715 238.594 147.316 237.267 147.875C237.102 147.948 236.939 148.011 236.811 148.076L236.709 148.126C236.68 148.139 236.655 148.154 236.628 148.165C235.355 148.811 235.674 149.127 233.327 150.492C230.653 152.047 229.223 151.679 228.875 151.367C228.581 151.103 229.601 150.163 230.736 149.104L230.901 148.95C231.052 148.81 231.204 148.666 231.354 148.524C232.697 147.242 232.669 146.452 233.114 144.101C233.476 142.181 233.199 132.866 233.199 132.866L237.343 133.319C237.343 133.319 236.584 140.461 237.595 141.884C238.135 142.644 238.918 142.875 239.473 143.483L239.581 143.61C239.911 143.966 240.192 144.364 240.416 144.795Z" fill="#FFCFAE"/>
<path d="M240.416 144.796C240.513 144.991 240.551 145.211 240.526 145.428C240.501 145.645 240.414 145.85 240.276 146.018C239.709 146.697 238.555 147.301 237.266 147.867C237.1 147.942 236.948 148.01 236.812 148.076L236.709 148.126C236.681 148.14 236.655 148.154 236.629 148.165C235.355 148.812 235.675 149.127 233.328 150.492C230.653 152.048 229.224 151.68 228.876 151.367C228.582 151.104 229.602 150.163 230.737 149.104C232.339 148.955 233.874 148.384 235.185 147.449C236.88 146.22 238.29 144.42 239.476 143.476L239.584 143.604C239.913 143.962 240.194 144.363 240.416 144.796Z" fill="#0A3D76"/>
<path d="M210.947 141.892C210.693 143.161 208.886 142.95 206.867 142.448C204.847 141.946 205.328 142.543 202.453 142.223C199.579 141.903 198.706 140.833 198.621 140.404C198.543 140.025 199.963 139.891 201.486 139.709C201.677 139.689 201.87 139.665 202.063 139.641C203.783 139.425 205.042 138.314 206.604 137.402C208.084 136.537 210.292 133.016 210.292 133.016L214.232 133.329C214.232 133.329 212.164 136.473 211.365 137.841C210.894 138.645 210.919 139.708 210.978 140.531C211.029 140.984 211.019 141.442 210.947 141.892Z" fill="#FFCFAE"/>
<path d="M206.867 142.448C204.847 141.955 205.328 142.543 202.453 142.223C199.579 141.903 198.706 140.834 198.621 140.404C198.543 140.025 199.963 139.891 201.486 139.709L201.501 139.739C202.732 140.53 204.154 140.973 205.616 141.02C207.559 141.067 209.631 140.508 210.978 140.531C211.028 140.98 211.018 141.433 210.947 141.88C210.699 143.155 208.886 142.944 206.867 142.448Z" fill="#0A3D76"/>
<path d="M230.549 112.717L232.63 137.897C233.473 138.072 234.34 138.107 235.195 137.999C236.379 137.818 237.801 137.127 237.801 137.127C237.801 137.127 239.588 114.572 236.354 109.542C233.121 104.513 230.549 112.717 230.549 112.717Z" fill="#052C57"/>
<path d="M257.706 107.078C257.706 107.078 238.235 99.9695 232.792 101.727C227.348 103.485 208.007 135.205 208.007 135.205C208.007 135.205 208.376 135.697 209.382 136.075C210.319 136.426 212.586 136.404 212.586 136.404C212.586 136.404 226.198 123.382 227.954 119.69C229.71 115.998 232.44 111.285 234.196 111.638C237.629 113.044 255.262 111.325 258.682 113.2C258.847 113.079 259.008 112.951 259.164 112.817C263.905 107.893 262.259 105.253 262.259 105.253L257.706 107.078Z" fill="#0A3D76"/>
<path d="M259.459 93.0062C260.195 89.9146 260.559 83.7753 257.944 78.808C255.571 74.3075 251.896 70.9792 251.674 71.1112C252.142 74.5513 248.421 81.0164 247.522 80.9555C245.935 80.8479 246.062 71.4133 246.062 71.4133C246.062 71.4133 241.947 71.7765 240.344 74.5513C238.124 78.3862 236.329 90.9657 233.946 90.7962C232.853 90.717 224.61 91.2659 224.61 91.2659C224.61 91.2659 224.015 90.897 224.366 93.0062C224.366 93.0062 224.826 90.683 229.421 93.0062C231.851 94.2359 234.786 95.7198 235.819 95.4822C237.912 94.989 239.205 92.1913 240.972 89.3318L242.685 85.4854C244.939 98.2684 242.476 101.785 244.028 103.132C245.667 104.555 245.336 102.775 250.487 105.01C253.866 106.478 256.85 108.391 260.006 108.759C261.662 108.954 262.101 108.786 262.503 107.666C263.676 104.413 258.056 98.9003 259.459 93.0062Z" fill="#699DEE"/>
<path d="M249.395 102.348C255.079 101.018 258.276 100.24 265.157 96.1962L260.756 92.916C260.284 93.3843 250.196 98.2168 249.572 99.2325C248.947 100.248 249.395 102.348 249.395 102.348Z" fill="#4A75CB"/>
<path d="M262.575 107.339C262.365 108.593 261.722 108.915 260.859 108.697C259.721 107.632 258.759 104.163 257.448 100.883C256.511 98.5398 255.802 99.6398 255.193 94.5656C254.702 90.4916 259.242 82.9161 259.97 81.2688C261.333 86.8299 260.353 85.774 259.97 89.2351C259.241 95.8337 263.185 103.698 262.575 107.339Z" fill="#4A75CB"/>
<path d="M249.318 99.8007L249.154 99.3294C248.508 99.5548 247.563 99.4311 247.362 99.4433L245.17 99.6272C244.662 99.6581 244.191 99.9054 243.877 100.307L241.061 103.906C241.195 104.308 241.72 104.608 242.824 103.159L241.604 104.577C241.647 104.909 241.977 105.097 242.894 104.079C242.63 104.453 242.453 104.734 242.483 104.773L242.485 104.776C242.58 104.905 242.941 105.608 245.62 102.296C245.83 102.163 245.954 102.207 244.983 104.604C244.98 105.103 245.383 105.641 246.809 102.649C247.502 102.594 248.875 102.07 249.418 101.345L249.878 100.933C249.423 99.9064 249.468 100.158 249.318 99.8007Z" fill="#FFCFAE"/>
<path d="M242.824 103.159C241.72 104.608 241.195 104.308 241.061 103.906L243.877 100.307C244.191 99.9054 244.662 99.6581 245.17 99.6272L247.362 99.4433C247.563 99.4311 248.508 99.5548 249.154 99.3294L249.318 99.8007C249.468 100.158 249.423 99.9064 249.878 100.933L249.418 101.345C248.875 102.07 247.502 102.594 246.809 102.649C245.383 105.641 244.98 105.103 244.983 104.604C245.954 102.207 245.83 102.163 245.62 102.296C242.941 105.608 242.58 104.905 242.485 104.776L242.483 104.773C242.453 104.734 242.63 104.453 242.894 104.079M242.824 103.159C243.011 102.914 243.682 102.584 243.903 102.23L242.824 103.159ZM242.824 103.159L241.604 104.577C241.647 104.909 241.977 105.097 242.894 104.079M242.894 104.079C243.256 103.677 244.231 103.34 244.794 102.495C244.416 102.979 243.294 103.51 242.894 104.079Z" stroke="#F5C5A5" stroke-width="0.2"/>
<path d="M242.599 85.6393C241.342 88.7575 238.944 94.1014 236.965 94.9429C235.988 95.3579 233.679 94.8833 231.075 94.0842C232.901 94.2348 234.596 93.9299 236.219 93.4797C237.977 92.9991 238.119 90.7145 240.378 86.9356C241.845 84.4905 242.388 84.9511 242.599 85.6393Z" fill="#4A75CB"/>
<path d="M246.888 102.042C247.049 101.614 248.694 101.388 249.496 101.328C249.175 102.042 247.49 102.459 246.688 102.578L246.888 102.042Z" fill="#F5C5A5"/>
<path d="M248.865 99.9224C247.617 100.026 245.12 100.234 244.964 100.547C244.965 100.234 245.62 99.9224 248.865 99.9224Z" fill="#EEBE9E"/>
<path d="M251.673 70.9553C251.673 70.9553 258.591 72.2313 260.693 75.1728C263.212 78.6893 265.909 88.7687 265.804 94.0958C265.775 95.59 264.651 96.7087 263.242 97.2075L249.333 102.132C249.333 102.132 249.333 101.195 248.708 99.3202C249.333 98.3045 260.221 93.1684 260.693 92.7002C261.165 92.232 257.821 83.6116 257.821 82.2054C257.821 80.7993 251.673 70.9553 251.673 70.9553Z" fill="#699DEE"/>
<path d="M250.963 105.245H231.086V103.787H250.963C251.156 103.787 251.342 103.864 251.478 104.001C251.615 104.137 251.692 104.323 251.692 104.516C251.692 104.709 251.615 104.894 251.478 105.031C251.342 105.168 251.156 105.245 250.963 105.245Z" fill="#EDF5FF"/>
<path d="M245.529 105.244H226.325C225.915 105.241 225.518 105.104 225.195 104.853C224.872 104.603 224.64 104.252 224.535 103.857L221.153 91.1089C221.079 90.8322 221.07 90.5424 221.126 90.2617C221.183 89.9811 221.303 89.7171 221.477 89.4902C221.652 89.2634 221.877 89.0797 222.134 88.9534C222.391 88.827 222.673 88.7615 222.96 88.7617H239.694C240.107 88.7609 240.508 88.8971 240.835 89.149C241.162 89.4009 241.396 89.7542 241.501 90.1534L245.529 105.244Z" fill="#EDF5FF"/>
<path d="M222.96 88.7664C222.674 88.7663 222.392 88.8318 222.135 88.9579C221.879 89.0839 221.654 89.2672 221.48 89.4935C221.305 89.7199 221.185 89.9832 221.128 90.2633C221.072 90.5434 221.08 90.8328 221.153 91.1092L224.536 103.857C224.638 104.238 224.858 104.577 225.164 104.826L236.8 88.7664H222.96Z" fill="url(#paint15_linear)"/>
<path d="M234.22 98.1335C234.279 98.3123 234.294 98.503 234.262 98.6886C234.23 98.8742 234.153 99.0492 234.037 99.1979C233.921 99.3467 233.771 99.4647 233.599 99.5415C233.427 99.6184 233.238 99.6518 233.05 99.6386C232.612 99.6213 232.191 99.4666 231.845 99.1964C231.5 98.9263 231.248 98.5545 231.126 98.1335C231.068 97.9547 231.054 97.7644 231.087 97.5792C231.119 97.3941 231.196 97.2196 231.312 97.0712C231.427 96.9227 231.577 96.8047 231.748 96.7276C231.92 96.6504 232.108 96.6163 232.295 96.6283C232.733 96.6464 233.155 96.8013 233.5 97.0713C233.845 97.3413 234.097 97.7128 234.22 98.1335Z" fill="#0A3D76"/>
<g filter="url(#filter3_d)">
<path d="M78.2586 181.98C77.5381 181.261 77.9704 177.23 77.9704 177.23C77.9704 177.23 81.0763 174.018 81.5863 176.669C82.0963 179.319 85.7103 180.261 87.4257 180.586C88.5697 180.802 88.9506 181.523 89.0771 181.98H78.2586Z" fill="#16233D"/>
<path d="M102.323 181.98C101.544 181.261 102.011 177.23 102.011 177.23C102.011 177.23 105.532 174.018 106.085 176.669C106.637 179.319 110.395 180.268 112.256 180.586C113.496 180.802 113.907 181.523 114.044 181.98H102.323Z" fill="#16233D"/>
<path d="M105.461 112.626L106.553 177.282H101.56C101.56 177.282 97.9461 161.049 97.9461 149.024L96.0234 137.273L94.0694 127.309L82.522 177.282H77.9978C77.9978 177.282 76.1107 160.346 80.8114 148.072L82.6207 112.825L105.461 112.626Z" fill="#0A3D76"/>
<path d="M94.0693 127.465L96.8781 118.561L97.9814 149.165L94.0693 127.465Z" fill="#032953"/>
<path d="M93.3356 78.0845C93.3356 78.0845 92.0454 79.3775 90.0234 78.321V82.0293L94.3794 81.6508L93.3356 78.0845Z" fill="#778FBB"/>
<path d="M82.5727 113.033C97.2036 117.593 105.892 112.816 105.462 112.314C103.419 104.34 102.535 88.9675 102.535 88.9675C101.662 93.0516 101.169 94.6337 102.15 98.5154C102.446 99.6902 103.068 102.108 104.111 102.72L114.46 106.4C114.46 106.4 119.893 105.246 119.235 104.718C118.577 104.189 107.993 99.0042 107.993 99.0042C107.943 96.2789 107.038 87.9872 107.038 87.9872C106.136 80.8178 102.737 79.1489 101.9 78.8441C101.727 78.781 101.554 78.7127 101.376 78.6417C98.9187 77.6062 96.8653 77.4722 94.1379 77.4065C92.0399 78.6759 78.9346 75.2942 77.4011 80.0582L82.5727 113.033Z" fill="#699DEE"/>
<path d="M96.2095 77.4172C96.2095 77.4172 94.8002 80.315 95.0074 80.4491C93.603 82.4797 90.6381 82.9483 85.6445 78.7309L83.9281 77.4172" fill="#A9C3EA"/>
<path d="M91.0757 81.8539V81.2722L93.2262 81.0674L93.4475 81.6978C93.5641 81.8231 91.8292 82.1362 91.0757 81.8539Z" fill="#C43B55"/>
<path d="M93.0892 78.0848L90.2595 78.3213C87.9832 78.3213 86.0084 77.5855 86.0084 76.1453V70.5947H94.2483V76.1453C94.2483 77.5776 95.3655 78.0848 93.0892 78.0848Z" fill="#FFCFAE"/>
<path d="M86.003 70.7451C86.003 70.7451 86.3083 74.3045 89.4239 74.2835C93.4415 74.2388 94.5552 72.229 94.5552 72.229C93.3817 73.114 92.0328 72.2983 90.5642 72.3021C87.8236 72.2916 86.003 70.7451 86.003 70.7451Z" fill="#EAAB85"/>
<path d="M98.6344 53.7195C97.9289 52.8444 98.4167 53.4252 97.3703 52.345C96.6963 51.6459 94.9865 52.0559 93.6988 51.4515C88.2414 48.9075 85.3672 54.3135 85.3672 54.3135C83.8959 54.1531 82.6738 54.6709 81.9736 56.0874C81.318 57.4146 81.9736 59.9139 82.1598 60.7838L83.3557 66.3029L84.4047 61.0467C85.438 57.596 87.0062 56.1899 87.0062 56.1899L91.989 55.7852L97.2733 65.7983L98.4823 60.0769C98.6134 59.3279 99.3792 57.8719 99.3372 57.1098C99.3136 56.6682 98.797 53.9245 98.6344 53.7195Z" fill="#202020"/>
<path d="M95.8388 65.1899C95.8388 65.1899 96.9968 62.5291 97.8127 63.5668C98.7799 64.8041 98.2338 65.8392 97.2117 67.425C97.2117 67.425 96.3345 68.7554 95.8432 68.2232C95.8388 68.2312 95.7708 66.1398 95.8388 65.1899Z" fill="#F9C8A3"/>
<path d="M84.1938 65.1191C84.1938 65.1191 82.5365 62.7407 81.7496 63.8641C80.8141 65.1974 81.5661 66.1081 82.9306 67.4749C82.9306 67.4749 84.0941 68.606 84.5833 68.0327C84.5868 68.04 84.3907 66.0188 84.1938 65.1191Z" fill="#FFCFAE"/>
<path d="M97.633 61.4072C97.633 63.4203 97.4363 67.6331 96.2011 70.1325C95.042 72.4794 94.1057 73.6453 91.5907 73.7136C89.0757 73.782 87.4857 72.5722 85.091 69.8328C83.4946 67.4359 83.2906 61.4387 83.2906 61.4387C83.2906 61.4387 83.2906 54.2456 90.3713 54.2456C97.8638 54.2535 97.633 61.4072 97.633 61.4072Z" fill="#FFCFAE"/>
<path d="M84.2259 65.1212C83.2399 64.9845 81.0055 56.4195 85.6054 55.1712L90.8504 53.5759C90.8504 53.5759 96.8008 55.2395 96.987 55.1633C97.1732 55.0871 98.2038 57.7572 98.2038 57.7572C98.2038 57.7572 99.1532 62.4878 96.6487 59.1554C96.0114 58.3091 95.0175 57.9044 93.9711 57.752C89.5129 57.0976 85.8597 57.7152 85.6762 59.773C85.3929 62.9766 84.2994 65.1291 84.2259 65.1212Z" fill="#202020"/>
<path d="M83.7954 59.003L83.9843 64.7612C83.9851 64.7757 83.9812 64.7901 83.973 64.8021C83.9648 64.8141 83.9529 64.8231 83.9391 64.8276C83.9253 64.8321 83.9104 64.8319 83.8968 64.827C83.8831 64.8221 83.8715 64.8128 83.8636 64.8006L83.0218 63.5969L82.3557 58.6929L83.7954 59.003Z" fill="#202020"/>
<path d="M92.5028 64.583C92.5108 65.8852 92.9629 66.5289 93.4502 67.682C93.4505 67.7514 93.4372 67.8202 93.4109 67.8844C93.3138 68.1314 92.3382 68.1183 92.0812 68.0499L91.6223 68.092" stroke="#D3A688" stroke-width="0.5" stroke-miterlimit="10"/>
<path d="M90.4788 61.9186C90.7081 61.9234 90.8984 61.7424 90.9051 61.5131C90.9121 61.2756 90.7199 61.0801 90.4823 61.083L88.6651 61.1052C88.3932 61.1048 88.1259 61.1747 87.8891 61.3082C87.5846 61.4872 87.7384 61.9549 88.0897 61.9183L88.4848 61.8771L90.4788 61.9186Z" fill="#202020"/>
<path d="M93.4888 61.8474C93.2614 61.8556 93.0727 61.6734 93.0727 61.4459C93.0727 61.2241 93.2526 61.0442 93.4744 61.0442H95.2158C95.479 61.0433 95.7358 61.1092 95.9492 61.2324C96.2403 61.4039 96.0947 61.8511 95.7585 61.8184L95.3667 61.7803L93.4888 61.8474Z" fill="#202020"/>
<path d="M83.7678 65.5671C83.2906 64.5158 82.3753 64.529 82.0501 65.0756C81.7249 65.6223 82.9444 67.3095 83.6053 67.1413C84.135 67.0099 84.0537 66.2057 83.7678 65.5671Z" fill="#EAAB85"/>
<path d="M83.8883 66.3737C83.6654 65.6746 83.0859 65.6273 82.8393 65.9558C82.5928 66.2844 83.2406 67.4223 83.6838 67.3566C84.0378 67.3014 84.03 66.8021 83.8883 66.3737Z" fill="#FFCFAE"/>
<path d="M90.1545 69.5431C90.1545 69.5431 92.2892 70.2441 94.3164 69.4329" stroke="#B96665" stroke-width="0.64" stroke-linecap="round" stroke-linejoin="round"/>
<path d="M90.2588 78.3216L90.1382 82.114L83.7719 77.3254L85.9946 74.5293C85.9946 74.5293 87.8592 77.7251 90.2588 78.3216Z" fill="#D6E4FD"/>
<path d="M93.123 78.1035L93.2227 81.0969L91.0722 81.3019L90.2592 78.3321C90.2592 78.3321 92.1107 77.8827 93.123 78.1035Z" fill="#C43B55"/>
<path d="M94.4419 81.7829L93.0887 78.1036C94.1377 77.26 94.2662 75.8171 94.2662 75.8171L96.2095 77.436L94.4419 81.7829Z" fill="#D6E4FD"/>
<path d="M90.2592 78.3215L91.0722 81.2913L93.2227 81.0863C93.2227 81.0863 91.6937 81.1126 91.4131 80.8235C91.1325 80.5344 90.2592 78.3215 90.2592 78.3215Z" fill="#A62E41"/>
<path d="M84.8652 91.8513C87.2059 89.8206 106.4 83.104 106.4 83.104L109.053 96.2249L98.1295 104.035L86.738 104.972L84.8652 91.8513Z" fill="#457ED6"/>
<path d="M107.088 92.4272L90.7287 86.0935L91.7043 105.802L108.05 112.127L107.088 92.4272Z" fill="#053866"/>
<path d="M122.899 86.4343L106.519 80.1006L107.471 99.7588L123.835 106.114L122.899 86.4343Z" fill="#102E5B"/>
<path d="M107.088 92.4274L122.899 86.4353L123.864 106.093L108.051 112.128L107.088 92.4274Z" fill="#054270"/>
<path d="M90.729 86.0927L106.519 80.1006L107.474 99.7141L91.7045 105.801L90.729 86.0927Z" fill="#0A2D49"/>
<path d="M107.088 92.4272L90.7287 86.0935L91.7043 105.794L108.05 112.127L107.088 92.4272Z" fill="#053866"/>
<path d="M94.8198 87.7177L90.7287 86.0935L90.9778 91.0448L95.061 92.6348L94.8198 87.7177Z" fill="#053866"/>
<path d="M93.5585 90.3877C94.3846 89.7964 94.7491 89.0185 94.6809 87.644L94.1879 87.4417C94.2482 88.6585 93.8312 89.4837 93.1389 89.983C92.5567 90.3983 91.7699 90.4482 90.9307 90.1223L90.9675 90.6479C91.308 90.7902 91.6738 90.8617 92.0427 90.8582C92.5836 90.8575 93.1118 90.6935 93.5585 90.3877Z" fill="#B9D5FD"/>
<path d="M98.9028 89.3073L94.8195 87.7173L95.0608 92.6345L99.144 94.2245L98.9028 89.3073Z" fill="#0E2951"/>
<path d="M102.985 90.8981L98.9021 89.3081L99.1433 94.2253L103.227 95.8153L102.985 90.8981Z" fill="#709FDC"/>
<path d="M107.088 92.4273L102.987 90.8977L103.228 95.8149L107.311 97.3839L107.088 92.4273Z" fill="#6780B3"/>
<path d="M95.0615 92.6352L90.9782 91.0452L91.2221 95.965L95.3027 97.555L95.0615 92.6352Z" fill="#B9D5FD"/>
<path d="M99.144 94.2253L95.0608 92.6353L95.302 97.5551L99.3853 99.1451L99.144 94.2253Z" fill="#274684"/>
<path d="M103.227 95.8146L99.1442 94.2246L99.3855 99.1444L103.469 100.734L103.227 95.8146Z" fill="#3D95D1"/>
<path d="M107.31 97.3834L103.227 95.8145L103.468 100.734L107.551 102.301L107.31 97.3834Z" fill="#B9D5FD"/>
<path d="M99.385 99.1447L95.3018 97.5547L95.5457 102.472L99.6289 104.062L99.385 99.1447Z" fill="#B9D5FD"/>
<path d="M103.468 100.735L99.385 99.145L99.6289 104.062L103.709 105.652L103.468 100.735Z" fill="#0E2951"/>
<path d="M107.553 102.301L103.469 100.735L103.711 105.652L107.794 107.221L107.553 102.301Z" fill="#709FDC"/>
<path d="M95.5453 102.472L91.4621 100.877L91.7034 105.794L95.7866 107.392L95.5453 102.472Z" fill="#6780B3"/>
<path d="M99.6293 104.062L95.5461 102.472L95.7874 107.392L99.8706 108.982L99.6293 104.062Z" fill="#053866"/>
<path d="M103.709 105.653L99.6286 104.062L99.8699 108.982L103.953 110.572L103.709 105.653Z" fill="#B9D5FD"/>
<path d="M107.793 107.221L103.71 105.652L103.954 110.572L108.05 112.127L107.793 107.221Z" fill="#3D95D1"/>
<path d="M92.8761 89.4942C93.5134 89.0396 93.8543 88.3983 93.8019 87.3445L93.3088 87.1421C93.3508 87.9988 93.0885 88.6138 92.5221 89.0054C92.271 89.1362 91.9946 89.2105 91.712 89.2232C91.4293 89.2359 91.1473 89.1867 90.8856 89.079L90.9171 89.6703C91.1775 89.7811 91.4577 89.8375 91.7406 89.8359C92.1455 89.8442 92.5427 89.7247 92.8761 89.4942Z" fill="#3D95D1"/>
<path d="M92.1791 88.4559C92.6276 88.1432 92.8452 87.6675 92.8085 86.9395L92.3155 86.7397C92.3417 87.2654 92.2735 87.5072 91.9824 87.8146C91.8248 87.9472 91.6341 88.0344 91.4309 88.0668C91.2277 88.0992 91.0194 88.0756 90.8285 87.9986L90.8574 88.5873C91.0696 88.6763 91.3007 88.7109 91.5296 88.6879C91.7585 88.665 91.9782 88.5852 92.1686 88.4559H92.1791Z" fill="#3376B3"/>
<path d="M91.5467 87.4177C91.681 87.3172 91.7863 87.1827 91.8517 87.028C91.9171 86.8733 91.9404 86.704 91.9191 86.5373L91.3264 86.335C91.4392 86.6293 91.4497 86.8264 91.2609 86.9237C91.102 86.9671 90.9345 86.9671 90.7757 86.9237L90.8045 87.5124C90.8863 87.5512 90.9764 87.5693 91.0668 87.5649C91.2382 87.5673 91.406 87.5158 91.5467 87.4177Z" fill="#709FDC"/>
<path d="M107.594 105.884L104.759 104.788L104.405 97.5472L107.337 98.6983L107.303 98.0124L103.781 96.6904L104.201 105.19L107.657 106.533L107.594 105.884Z" fill="#274684"/>
<path d="M107.695 105.98L104.76 104.787L104.577 101.058L103.987 100.855L104.202 105.189L107.729 106.669L107.695 105.98Z" fill="#0E2951"/>
<path d="M107.634 104.703L105.683 103.988L105.439 99.0108L107.39 99.786L107.356 99.0975L104.817 98.1514L105.119 104.288L107.594 105.255L107.634 104.703Z" fill="#274684"/>
<path d="M107.573 103.518L106.684 103.121L106.568 100.8L107.457 101.16L107.423 100.472L105.947 99.9436L106.123 103.526L107.536 104.075L107.573 103.518Z" fill="#274684"/>
<path d="M107.57 103.42L106.684 103.121L106.621 101.849L106.031 101.646L106.122 103.526L107.602 104.109L107.57 103.42Z" fill="#0E2951"/>
<path d="M107.634 104.703L105.682 103.988L105.559 101.439L104.966 101.237L105.121 104.388L107.665 105.392L107.634 104.703Z" fill="#0E2951"/>
<path d="M94.6221 103.269L91.5197 102.062L91.7032 105.794L94.8057 107.009L94.6221 103.269Z" fill="#053866"/>
<path d="M93.6264 104.136L91.5835 103.34L91.7041 105.794L93.7471 106.593L93.6264 104.136Z" fill="#709FDC"/>
<path d="M100.405 89.9128L99.0729 92.4253L101.729 95.2111L103.059 92.6986L100.405 89.9128Z" fill="#0E2951"/>
<path d="M100.727 91.2109L100.048 92.4961L101.401 93.9126L102.081 92.6327L100.727 91.2109Z" fill="#6780B3"/>
<path d="M103.759 106.635L99.6758 105.045L99.8699 108.982L103.953 110.572L103.759 106.635Z" fill="#3D95D1"/>
<path d="M103.812 107.715L99.7283 106.125L99.8699 108.982L103.953 110.572L103.812 107.715Z" fill="#6780B3"/>
<path d="M103.867 108.803L99.7807 107.208L99.8699 108.982L103.953 110.572L103.867 108.803Z" fill="#053866"/>
<path d="M103.909 109.686L99.8253 108.096L99.8699 108.982L103.953 110.572L103.909 109.686Z" fill="#0E2951"/>
<path d="M99.3384 98.1617L95.2551 96.5717L99.202 95.3996L95.1188 93.8096L99.3384 98.1617Z" fill="#0E2951"/>
<path d="M91.4736 91.2475L90.9779 91.0452L91.2218 95.965L91.7148 96.1647L91.4736 91.2475Z" fill="#709FDC"/>
<path d="M92.26 91.5495L91.767 91.3472L92.0083 96.267L92.5039 96.4693L92.26 91.5495Z" fill="#709FDC"/>
<path d="M94.8325 92.562L94.3394 92.3596L94.5807 97.2794L95.0737 97.4818L94.8325 92.562Z" fill="#709FDC"/>
<path d="M93.9692 92.1989L93.3791 91.9939L93.6204 96.9084L94.2104 97.1108L93.9692 92.1989Z" fill="#709FDC"/>
<path d="M93.0488 91.8542L92.5557 91.6519L92.797 96.5717L93.29 96.7714L93.0488 91.8542Z" fill="#709FDC"/>
<path d="M95.3025 97.5551L91.2219 95.9651L91.4632 100.877L95.5464 102.472L95.3025 97.5551Z" fill="#0E2951"/>
<path d="M95.4258 100.01L93.3855 99.2188L93.5061 101.676L95.5464 102.472L95.4258 100.01Z" fill="#3D95D1"/>
<path d="M93.2641 96.7561L91.2212 95.9651L91.3392 98.4197L93.3848 99.2187L93.2641 96.7561Z" fill="#3D95D1"/>
<path d="M99.2831 104.359L95.9342 103.056L96.1309 107.09L99.4824 108.399L99.3251 105.216L96.6003 104.154L96.7209 106.588L98.8189 107.41L98.735 105.705L97.2664 105.132L97.3136 106.104L98.1528 106.43" stroke="#3D95D1" stroke-width="2" stroke-miterlimit="10"/>
<path d="M107.252 107.612L104.658 110.267" stroke="#0E2951" stroke-width="4" stroke-miterlimit="10"/>
<path d="M104.475 106.529L107.436 111.347" stroke="#0E2951" stroke-width="4" stroke-miterlimit="10"/>
<path d="M100.904 100.7L100.251 100.446L100.29 101.234L100.943 101.486L100.904 100.7Z" fill="#B9D5FD"/>
<path d="M101.856 102.13L101.203 101.875L101.242 102.661L101.895 102.921L101.856 102.13Z" fill="#B9D5FD"/>
<path d="M102.806 103.563L102.153 103.31L102.193 104.096L102.846 104.348L102.806 103.563Z" fill="#B9D5FD"/>
<path d="M108.05 112.128L123.872 106.115L122.899 86.4353L107.088 92.4274L108.05 112.128Z" fill="#053866"/>
<path d="M119.665 102.695L123.63 101.197L123.389 96.2773L119.424 97.7832L119.665 102.695Z" fill="#B9D5FD"/>
<path d="M115.707 104.202L119.665 102.696L119.423 97.7837L115.466 99.2817L115.707 104.202Z" fill="#274684"/>
<path d="M111.75 105.699L115.708 104.201L115.466 99.2808L111.509 100.781L111.75 105.699Z" fill="#053866"/>
<path d="M107.794 107.221L111.751 105.699L111.51 100.782L107.552 102.301L107.794 107.221Z" fill="#B9D5FD"/>
<path d="M115.467 99.2813L119.424 97.7833L119.183 92.8635L115.226 94.3642L115.467 99.2813Z" fill="#B9D5FD"/>
<path d="M111.51 100.782L115.468 99.2817L115.227 94.3645L111.269 95.8625L111.51 100.782Z" fill="#0E2951"/>
<path d="M107.551 102.301L111.508 100.782L111.267 95.8625L107.31 97.3842L107.551 102.301Z" fill="#709FDC"/>
<path d="M115.949 109.119L119.909 107.616L119.665 102.696L115.708 104.202L115.949 109.119Z" fill="#0E2951"/>
<path d="M111.992 110.619L115.949 109.118L115.708 104.201L111.751 105.699L111.992 110.619Z" fill="#709FDC"/>
<path d="M108.05 112.128L111.991 110.619L111.75 105.699L107.793 107.221L108.05 112.128Z" fill="#6780B3"/>
<path d="M119.181 92.8636L123.144 91.3604L122.898 86.4353L118.94 87.9465L119.181 92.8636Z" fill="#6780B3"/>
<path d="M115.225 94.3639L119.183 92.8632L118.941 87.946L114.984 89.4441L115.225 94.3639Z" fill="#053866"/>
<path d="M111.268 95.8624L115.226 94.3644L114.984 89.4446L111.024 90.9452L111.268 95.8624Z" fill="#B9D5FD"/>
<path d="M107.311 97.3844L111.268 95.8627L111.024 90.9456L107.088 92.4278L107.311 97.3844Z" fill="#3D95D1"/>
<path d="M111.211 105.224L110.794 96.7246L107.244 98.0702L107.474 98.6247L110.254 97.5709L110.611 104.809L107.695 105.981L107.729 106.669L111.211 105.224Z" fill="#274684"/>
<path d="M110.793 96.7246L107.303 98.0124L107.337 98.6983L110.253 97.5709L110.437 101.276L111.008 101.087L110.793 96.7246Z" fill="#0E2951"/>
<path d="M110.199 104.306L109.908 98.3616L107.356 99.0974L107.39 99.786L109.36 99.0107L109.598 103.891L107.634 104.703L107.665 105.392L110.199 104.306Z" fill="#274684"/>
<path d="M109.111 103.515L108.933 99.9333L107.362 100.533L107.592 101.087L108.395 100.78L108.508 103.098L107.569 103.421L107.6 104.109L109.111 103.515Z" fill="#274684"/>
<path d="M108.935 99.9333L107.424 100.472L107.458 101.161L108.397 100.78L108.452 101.925L109.024 101.736L108.935 99.9333Z" fill="#0E2951"/>
<path d="M109.896 98.167L107.355 99.0973L107.389 99.7859L109.358 99.0106L109.487 101.636L110.059 101.447L109.896 98.167Z" fill="#0E2951"/>
<path d="M121.047 89.6495L123.024 88.9031L122.899 86.4353L120.926 87.1922L121.047 89.6495Z" fill="#FF8098"/>
<path d="M114.499 109.649L115.781 106.012L113.209 105.171L111.918 108.806L114.499 109.649Z" fill="#0E2951"/>
<path d="M114.181 108.553L114.837 106.695L113.52 106.264L112.87 108.125L114.181 108.553Z" fill="#6780B3"/>
<path d="M111.218 94.8795L115.176 93.3815L114.984 89.4446L111.024 90.9452L111.218 94.8795Z" fill="#3D95D1"/>
<path d="M111.166 93.7993L115.123 92.2987L114.984 89.4446L111.024 90.9452L111.166 93.7993Z" fill="#6780B3"/>
<path d="M111.114 92.7192L115.071 91.2133L114.985 89.4446L111.025 90.9452L111.114 92.7192Z" fill="#053866"/>
<path d="M111.068 91.8335L115.025 90.3302L114.983 89.4446L111.023 90.9452L111.068 91.8335Z" fill="#0E2951"/>
<path d="M115.516 100.264L119.473 98.7632L115.65 103.021L119.61 101.52" fill="#0E2951"/>
<path d="M123.392 96.2271L122.82 96.4189L123.067 101.436L123.639 101.244L123.392 96.2271Z" fill="#709FDC"/>
<path d="M122.644 96.5747L122.073 96.7639L122.317 101.684L122.886 101.495L122.644 96.5747Z" fill="#709FDC"/>
<path d="M120.252 97.4709L119.683 97.6602L119.935 102.585L120.512 102.393L120.252 97.4709Z" fill="#709FDC"/>
<path d="M121.061 97.1738L120.486 97.3631L120.728 102.283L121.305 102.094L121.061 97.1738Z" fill="#709FDC"/>
<path d="M121.852 96.8767L121.277 97.0659L121.518 101.986L122.093 101.797L121.852 96.8767Z" fill="#709FDC"/>
<path d="M119.425 97.7837L123.39 96.2778L123.146 91.3606L119.184 92.8639L119.425 97.7837Z" fill="#0E2951"/>
<path d="M119.909 107.615L123.872 106.114L123.63 101.197L119.665 102.695L119.909 107.615Z" fill="#053866"/>
<path d="M119.303 95.3207L121.289 94.5691L121.168 92.1118L119.183 92.8635L119.303 95.3207Z" fill="#3D95D1"/>
<path d="M123.673 101.934L123.647 101.442C121.549 102.244 119.813 104.246 119.975 107.595L120.463 107.403C120.34 105.143 121.774 102.654 123.673 101.934Z" fill="#B9D5FD"/>
<path d="M123.729 102.992L123.701 102.404C122.111 103.008 120.816 104.853 120.931 107.21L121.511 107.024C121.416 105.292 122.34 103.518 123.729 102.992Z" fill="#3D95D1"/>
<path d="M123.776 104.097L123.74 103.534C122.657 103.947 121.904 105.355 121.975 106.83L122.499 106.641C122.457 105.576 122.932 104.42 123.776 104.097Z" fill="#3376B3"/>
<path d="M123.835 105.279L123.796 104.659C123.203 104.88 122.792 105.655 122.925 106.444L123.4 106.252C123.377 105.781 123.46 105.419 123.835 105.279Z" fill="#709FDC"/>
<path d="M115.622 93.6864L118.74 92.4985L118.551 88.6221L115.43 89.8047L115.582 92.8612L118.116 91.8967L118 89.5603L116.052 90.3041L116.133 91.9361L117.494 91.4157L117.449 90.4828L116.673 90.7797" stroke="#3D95D1" stroke-width="2" stroke-miterlimit="10"/>
<path d="M107.834 96.5663L110.341 91.8042" stroke="#0E2951" stroke-width="4" stroke-miterlimit="10"/>
<path d="M110.525 95.5441L107.651 92.8267" stroke="#0E2951" stroke-width="4" stroke-miterlimit="10"/>
<path d="M113.992 98.84L114.626 98.5956L114.587 97.8098L113.955 98.049L113.992 98.84Z" fill="#B9D5FD"/>
<path d="M113.068 98.0883L113.7 97.8439L113.663 97.0581L113.029 97.2999L113.068 98.0883Z" fill="#B9D5FD"/>
<path d="M112.145 97.3339L112.777 97.0974L112.738 96.3037L112.106 96.5481L112.145 97.3339Z" fill="#B9D5FD"/>
<path d="M120.079 91.3183L123.087 90.1803L122.899 86.4353L119.896 87.5838L120.079 91.3183Z" fill="#053866"/>
<path d="M120.838 90.0069L123.041 89.1712L122.899 86.4353L120.704 87.271L120.838 90.0069Z" fill="#709FDC"/>
<path d="M121.41 97.0292L123.39 96.2776L123.27 93.8203L121.29 94.5693L121.41 97.0292Z" fill="#3D95D1"/>
<path d="M100.246 82.4948L106.519 80.1006L122.899 86.4343L116.44 88.7786L100.246 82.4948Z" fill="#165B93"/>
<path d="M98.8107 83.0374L90.639 86.1254L107.019 92.4486L115.178 89.3711L98.8107 83.0374Z" fill="#165B93"/>
<path d="M99.4132 85.4995L90.7327 86.0777L106.51 80.1119L115.208 79.5127L99.4132 85.4995Z" fill="#9CCEF7"/>
<path d="M107.126 92.4533L100.785 86.3535L116.596 80.3667L122.908 86.4402L107.126 92.4533Z" fill="#9CCEF7"/>
<path d="M103.077 107.291C101.214 106.8 100.111 107.051 100.111 107.051L96.5685 105.787L94.6708 107.945L95.8843 108.436L96.5685 108.768H97.1581C97.1581 108.768 97.2518 108.626 97.4162 108.832C97.5805 109.038 99.0939 109.621 99.0939 109.621C99.0939 109.76 101.623 112.532 102.112 112.688C102.601 112.843 103.013 112.802 103.08 112.761C103.331 112.875 103.616 112.894 103.881 112.817C104.359 112.765 104.84 112.741 105.321 112.747L106.693 112.688C107.668 112.555 107.192 112.3 107.192 112.3C106.934 112.199 106.664 112.133 106.389 112.103C107.213 112.157 107.932 112.098 107.777 111.864C107.52 111.477 106.081 111.289 106.081 111.289C106.081 111.289 105.148 111.223 104.819 111.063C104.391 110.422 104.067 110.219 103.833 109.621C103.437 108.611 103.227 108.436 103.227 108.436C103.227 108.436 105.356 109.28 106.286 108.832C106.934 108.391 105.911 108.21 104.797 107.945C104.038 107.642 103.077 107.291 103.077 107.291Z" fill="#FFCFAE"/>
<g filter="url(#filter4_f)">
<path d="M102.354 110.742C102.683 111.223 103.702 112.376 103.833 112.504C103.965 112.633 104.491 112.729 104.984 112.729C105.805 112.707 107.284 112.686 107.284 112.504C107.285 112.344 107.449 112.344 106.791 112.184" stroke="#D3A688" stroke-width="0.2" stroke-linecap="round"/>
</g>
<g filter="url(#filter5_f)">
<path d="M103.119 110.49C103.448 110.971 104.175 111.736 104.306 111.864C104.437 111.992 104.963 112.088 105.456 112.088C106.278 112.067 107.555 112.179 107.783 111.95" stroke="#D3A688" stroke-width="0.2" stroke-linecap="round"/>
</g>
<g filter="url(#filter6_f)">
<path d="M104.49 112.729C103.997 112.729 103.504 112.985 103.011 112.665C102.856 112.564 101.86 111.543 101.532 111.062" stroke="#D3A688" stroke-width="0.2" stroke-linecap="round"/>
</g>
<path d="M80.2537 78.5747C77.369 78.9269 75.3732 81.0924 76.1311 88.2041C76.7553 94.0805 79.6138 100.895 81.9006 105.024C82.1181 105.419 82.4439 105.744 82.8395 105.96C86.6815 108.062 89.5499 107.85 98.6605 110.436L99.8008 107.24C99.8008 107.24 90.8591 104.067 86.8834 101.928C85.3719 101.112 86.4574 92.6901 83.6765 84.8683C82.8918 82.6612 81.7993 80.5019 80.2537 78.5747Z" fill="#4A75CB"/>
<path d="M80.2537 78.0347C77.369 78.3868 75.3732 80.5524 76.1311 87.664C76.7553 93.5405 79.6138 100.355 81.9006 104.484C82.1181 104.879 82.4439 105.204 82.8395 105.419C86.6815 107.522 89.5499 107.31 98.6605 109.896L99.8008 106.7C99.8008 106.7 90.8591 103.527 86.8834 101.388C85.3719 100.572 86.4574 92.1501 83.6765 84.3283C82.8918 82.1212 81.7993 79.9618 80.2537 78.0347Z" fill="#699DEE"/>
<path d="M88.4683 63.2795C88.8081 63.1529 88.9192 63.1934 89.4239 63.1934C89.6546 63.2202 89.8808 63.2769 90.0969 63.3622C90.0969 63.3622 90.6017 63.8686 90.6622 63.9345C90.7682 64.0543 90.7295 64.1894 90.5697 64.2113C90.4099 64.2333 90.2332 64.1843 90.0986 64.2113C89.0622 64.3801 88.8401 64.4443 88.2479 64.2113C88.0111 64.1256 87.7853 64.0123 87.5749 63.8737C87.8264 63.6132 88.1312 63.4105 88.4683 63.2795Z" fill="white"/>
<path d="M89.0859 63.4563C89.4112 63.4563 89.6748 63.7206 89.6748 64.0465C89.6748 64.1315 89.6569 64.2123 89.6246 64.2853C89.1904 64.3595 88.9723 64.3578 88.558 64.3084C88.519 64.2295 88.4971 64.1406 88.4971 64.0465C88.4971 63.7206 88.7607 63.4563 89.0859 63.4563Z" fill="#28160D" stroke="#1C1105" stroke-width="0.2" stroke-miterlimit="10"/>
<path d="M89.0754 64.368C88.9024 64.368 88.7621 64.2278 88.7621 64.0547C88.7621 63.8817 88.9024 63.7415 89.0754 63.7415C89.2484 63.7415 89.3887 63.8817 89.3887 64.0547C89.3887 64.2278 89.2484 64.368 89.0754 64.368Z" fill="black"/>
<path opacity="0.77" d="M89.4226 64.047C89.3297 64.047 89.2543 63.9715 89.2543 63.8784C89.2543 63.7852 89.3297 63.7097 89.4226 63.7097C89.5155 63.7097 89.5908 63.7852 89.5908 63.8784C89.5908 63.9715 89.5155 64.047 89.4226 64.047Z" fill="white"/>
<path d="M90.7075 64.0922L90.1068 63.4339C90.0523 63.3748 89.9823 63.3321 89.9049 63.3107L89.6576 63.2465C89.5313 63.2142 89.4006 63.2028 89.2706 63.2128L88.6364 63.2634C88.5069 63.2738 88.3814 63.3136 88.2696 63.3799L87.6151 63.7766L87.4031 63.7884L88.0138 63.2364C88.1478 63.1555 88.2987 63.107 88.4546 63.0946L89.0873 63.044C89.2365 63.032 89.3867 63.0457 89.5314 63.0845L89.7771 63.1486C89.9375 63.1748 90.0912 63.2321 90.2297 63.3174L90.938 64.1192L90.7075 64.0922Z" fill="#D3A688"/>
<path opacity="0.5" d="M90.7705 64.1179L90.1699 63.4602C90.1052 63.3894 90.0217 63.3385 89.9293 63.3135L89.6836 63.2494C89.5443 63.213 89.3998 63.2005 89.2563 63.2123L88.622 63.2629C88.479 63.2736 88.3406 63.3181 88.2182 63.3928L87.5738 63.7874" stroke="#0A0001" stroke-width="0.3" stroke-miterlimit="10"/>
<path d="M90.686 64.2054H90.4219C90.2834 64.205 90.1452 64.2192 90.0097 64.2476C89.6814 64.297 89.0059 64.4623 88.4147 64.2931C88.3777 64.2813 88.1135 64.143 88.0782 64.1244L87.7417 63.9558" stroke="#472A22" stroke-width="0.2" stroke-miterlimit="10"/>
<path d="M95.6304 63.2796C95.292 63.1529 95.1809 63.1934 94.6759 63.1934C94.4452 63.2202 94.2188 63.277 94.0026 63.3623C94.0026 63.3623 93.4976 63.869 93.4387 63.9348C93.331 64.0547 93.3697 64.1898 93.5296 64.2118C93.6895 64.2338 93.8663 64.1848 94.001 64.2118C95.0379 64.3807 95.2617 64.4449 95.8526 64.2118C96.0894 64.126 96.3153 64.0126 96.5259 63.874C96.2733 63.6137 95.9679 63.411 95.6304 63.2796Z" fill="white"/>
<path d="M95.0134 63.4563C95.3388 63.4563 95.6025 63.7207 95.6025 64.0468C95.6025 64.1455 95.5784 64.2386 95.5357 64.3203C95.0968 64.3687 94.8634 64.3654 94.4761 64.2894C94.4428 64.2154 94.4242 64.1333 94.4242 64.0468C94.4242 63.7207 94.688 63.4563 95.0134 63.4563Z" fill="#28160D" stroke="#1C1105" stroke-width="0.2" stroke-miterlimit="10"/>
<path d="M95.0201 64.3686C94.8469 64.3686 94.7066 64.2282 94.7066 64.0551C94.7066 63.882 94.8469 63.7417 95.0201 63.7417C95.1932 63.7417 95.3335 63.882 95.3335 64.0551C95.3335 64.2282 95.1932 64.3686 95.0201 64.3686Z" fill="black"/>
<path opacity="0.77" d="M95.3507 64.0476C95.2577 64.0476 95.1824 63.9721 95.1824 63.8789C95.1824 63.7857 95.2577 63.7102 95.3507 63.7102C95.4437 63.7102 95.519 63.7857 95.519 63.8789C95.519 63.9721 95.4437 64.0476 95.3507 64.0476Z" fill="white"/>
<path d="M93.3908 64.0927L93.9917 63.4341C94.0467 63.3745 94.1173 63.3318 94.1954 63.3108L94.4412 63.2466C94.5675 63.2143 94.6983 63.2029 94.8283 63.2128L95.4646 63.2635C95.5941 63.2741 95.7196 63.3139 95.8316 63.38L96.4847 63.7769L96.6968 63.7887L96.0857 63.2365C95.9517 63.1555 95.8007 63.107 95.6447 63.0946L95.0101 63.0439C94.8613 63.0321 94.7116 63.0458 94.5674 63.0845L94.32 63.1486C94.1595 63.1748 94.0057 63.2322 93.8672 63.3175L93.1619 64.1197L93.3908 64.0927Z" fill="#D3A688"/>
<path opacity="0.5" d="M93.3291 64.1181L93.93 63.4601C93.9948 63.3893 94.0782 63.3384 94.1707 63.3133L94.4165 63.2492C94.5521 63.2141 94.6926 63.2016 94.8323 63.2121L95.4669 63.2627C95.6099 63.2734 95.7483 63.3179 95.8709 63.3926L96.5273 63.7874" stroke="#0A0001" stroke-width="0.3" stroke-miterlimit="10"/>
<path d="M93.4131 64.206H93.6774C93.8165 64.2057 93.9553 64.2198 94.0915 64.2482C94.5066 64.3029 95.127 64.4805 95.6856 64.2937C95.7243 64.2819 95.9869 64.1436 96.0222 64.125C96.1485 64.0609 96.0222 64.125 96.3589 63.9563" stroke="#472A22" stroke-width="0.2" stroke-miterlimit="10"/>
</g>
<path d="M130.766 12.8109L128.554 11.7945C128.464 11.7524 128.387 11.6865 128.333 11.6041C128.278 11.5217 128.248 11.4261 128.245 11.3277C128.238 11.0723 128.221 10.8146 128.192 10.5563C128.142 10.0843 128.054 9.61706 127.929 9.15888C127.901 9.057 127.905 8.94909 127.939 8.84912C127.974 8.74914 128.038 8.66171 128.123 8.59814L130.151 7.07242C130.256 6.99365 130.327 6.87845 130.351 6.74987C130.374 6.62129 130.347 6.48882 130.275 6.37897L129.029 4.43407C128.961 4.32828 128.855 4.25095 128.733 4.21679C128.611 4.18263 128.48 4.19403 128.366 4.24882L126.258 5.2691C126.157 5.31929 126.042 5.33565 125.931 5.31569C125.82 5.29573 125.719 5.24055 125.642 5.1585C124.951 4.44963 124.15 3.85348 123.269 3.39223C123.166 3.33644 123.083 3.24837 123.035 3.14169C122.987 3.03501 122.976 2.91567 123.004 2.80218L123.346 1.4324C123.377 1.30571 123.36 1.1723 123.298 1.05724C123.236 0.942186 123.134 0.853386 123.01 0.807518L120.834 0.0333215C120.791 0.0165759 120.746 0.00614266 120.699 0.00235363C120.591 -0.00789407 120.483 0.0154893 120.389 0.0692318C120.295 0.122974 120.22 0.204387 120.176 0.302078L119.407 1.93397L119.221 2.33213C118.781 2.31757 118.341 2.33383 117.903 2.3808C117.32 2.44249 116.743 2.55783 116.181 2.72531C116.079 2.75674 115.97 2.75634 115.868 2.72418C115.767 2.69201 115.677 2.62965 115.613 2.54559L114.37 0.930836C114.288 0.824549 114.169 0.752527 114.036 0.729068C113.903 0.705609 113.766 0.732427 113.652 0.8042L112.147 1.7443L111.716 2.01526C111.602 2.08608 111.518 2.19604 111.482 2.32397C111.445 2.45189 111.457 2.58875 111.517 2.70817L112.379 4.44845C112.43 4.54557 112.448 4.65613 112.43 4.76397C112.413 4.87182 112.361 4.97131 112.282 5.0479C111.812 5.51874 111.395 6.03782 111.038 6.59629C111.005 6.64112 110.974 6.68764 110.946 6.73565C110.937 6.75201 110.926 6.76739 110.914 6.78155C110.85 6.86484 110.763 6.92758 110.663 6.96175C110.564 6.99593 110.456 7 110.354 6.97344L108.101 6.42929C108.077 6.42242 108.051 6.41815 108.025 6.41657C107.908 6.40635 107.79 6.43451 107.69 6.49672C107.59 6.55894 107.513 6.65179 107.472 6.76109L106.684 8.90285C106.638 9.02799 106.641 9.16561 106.693 9.28849C106.745 9.41137 106.842 9.51056 106.964 9.56644L109.272 10.6232C109.368 10.6661 109.448 10.7366 109.502 10.8255C109.557 10.9144 109.582 11.0174 109.576 11.1209C109.555 11.5975 109.571 12.075 109.623 12.5493C109.651 12.8052 109.689 13.0575 109.738 13.3064C109.757 13.4053 109.748 13.5076 109.712 13.6016C109.675 13.6957 109.613 13.7779 109.532 13.8389L107.583 15.3066C107.479 15.3849 107.408 15.4989 107.385 15.6262C107.362 15.7534 107.388 15.8846 107.458 15.9939L108.694 17.9167C108.766 18.0296 108.878 18.1121 109.008 18.1485C109.138 18.1848 109.277 18.1724 109.398 18.1136L111.066 17.3056C111.173 17.252 111.296 17.2356 111.414 17.259C111.532 17.2825 111.638 17.3445 111.716 17.435C112.336 18.1741 113.068 18.8138 113.887 19.3313C113.982 19.3904 114.056 19.478 114.099 19.5814C114.141 19.6849 114.149 19.7988 114.121 19.9069L113.625 21.9143C113.593 22.0443 113.611 22.1814 113.675 22.2994C113.738 22.4174 113.844 22.5081 113.971 22.5541L116.131 23.3283C116.255 23.3733 116.392 23.3703 116.515 23.32C116.637 23.2697 116.736 23.1758 116.792 23.0568L116.837 22.9617L117.729 21.0655C117.775 20.9667 117.851 20.8842 117.946 20.8291C118.041 20.7741 118.151 20.749 118.261 20.7574C118.813 20.7952 119.367 20.7845 119.917 20.7254C120.216 20.6933 120.508 20.6463 120.799 20.5888C120.897 20.5679 120.999 20.5751 121.094 20.6095C121.188 20.6438 121.27 20.704 121.331 20.7829L122.593 22.4225C122.675 22.5302 122.796 22.6034 122.931 22.6275C123.065 22.6517 123.204 22.6251 123.32 22.553L125.259 21.3364C125.312 21.302 125.359 21.2594 125.398 21.2104C125.458 21.1315 125.495 21.038 125.505 20.9399C125.515 20.8418 125.497 20.743 125.454 20.654L124.764 19.2688C124.724 19.1852 124.706 19.0928 124.712 19.0003C124.718 18.9079 124.749 18.8187 124.8 18.7412C124.829 18.7002 124.862 18.663 124.901 18.6306C125.857 17.8407 126.644 16.8702 127.215 15.776C127.262 15.6857 127.335 15.6108 127.424 15.5608C127.514 15.5108 127.616 15.4878 127.719 15.4946C127.749 15.4968 127.779 15.5014 127.809 15.5084L129.632 15.9508C129.76 15.9816 129.895 15.9648 130.011 15.9036C130.128 15.8424 130.217 15.7411 130.262 15.619L130.281 15.5698L131.051 13.4828C131.097 13.3559 131.093 13.2165 131.04 13.0921C130.988 12.9677 130.89 12.8674 130.766 12.8109ZM113.941 10.6592C114.006 10.2795 114.107 9.90661 114.242 9.54543C114.511 8.82653 115.268 7.89141 115.921 7.47998C115.991 7.43519 116.062 7.39316 116.132 7.35169C120.446 4.85325 125.302 8.78395 123.595 13.5016C123.371 14.1182 122.811 14.8741 122.234 15.3663C122.109 15.4731 121.977 15.5705 121.837 15.6577C121.28 16.008 120.666 16.2616 120.022 16.4076C116.57 17.1663 113.345 14.299 113.941 10.6592Z" fill="#EBF2F9"/>
<g filter="url(#filter7_di)">
<path d="M290.897 71.6551C291.212 71.5498 291.449 71.5234 291.554 71.5498C291.607 71.5498 291.686 71.6551 291.739 71.8395C291.844 72.2082 292.002 72.9455 292.186 74.0779C293.107 78.9236 293.554 82.2155 293.528 83.9273L293.501 84.5066L291.896 84.9807L290.897 85.2967C290.555 85.402 290.292 85.4284 290.134 85.3757C289.976 85.323 289.844 85.1913 289.739 84.9543C289.634 84.7173 289.476 84.2696 289.292 83.6376L289.029 82.7685C288.634 81.3991 288.187 79.819 287.713 78.0019C287.24 76.1848 286.95 75.0787 286.871 74.631C286.766 74.236 286.766 73.9463 286.819 73.7619C286.977 73.3932 287.634 72.9455 288.792 72.4452C289.608 72.1028 290.318 71.8395 290.897 71.6551ZM291.318 85.8761C292.159 85.639 292.87 85.6654 293.449 85.9551C294.027 86.2711 294.422 86.7714 294.659 87.5352C294.896 88.3252 294.817 89.0889 294.422 89.8C294.027 90.511 293.449 90.9851 292.659 91.1957C292.37 91.2747 292.107 91.3274 291.896 91.3011C291.344 91.3011 290.791 91.1167 290.239 90.7744C289.686 90.4057 289.344 90.0107 289.213 89.563C289.055 89.0099 289.081 88.4042 289.318 87.7985C289.555 87.1928 289.95 86.6924 290.476 86.2974C290.66 86.1131 290.949 85.9814 291.318 85.8761Z" fill="url(#paint16_linear)"/>
</g>
<g filter="url(#filter8_di)">
<path d="M182.008 85.7149H173.857V83.7101L176.6 80.9159C177.388 80.0917 177.898 79.5189 178.135 79.2324C178.336 78.9986 178.507 78.7405 178.645 78.4641C178.739 78.2434 178.786 78.0055 178.784 77.7655C178.791 77.6351 178.769 77.5048 178.72 77.384C178.67 77.2631 178.594 77.1549 178.498 77.067C178.276 76.8815 177.991 76.789 177.702 76.8085C177.324 76.8162 176.953 76.9221 176.628 77.1159C176.188 77.3944 175.777 77.7149 175.4 78.0729L173.746 76.11C174.189 75.685 174.678 75.3102 175.204 74.9923C175.608 74.7658 176.039 74.5943 176.488 74.4824C177 74.3595 177.525 74.3008 178.051 74.3077C178.72 74.2951 179.384 74.4261 179.998 74.6919C180.539 74.9218 181.001 75.3025 181.331 75.7886C181.645 76.2599 181.808 76.8153 181.799 77.3813C181.808 78.2098 181.565 79.0214 181.101 79.7075C180.84 80.1231 180.539 80.5115 180.201 80.867C179.817 81.2652 179.007 82.0266 177.758 83.1443V83.2211H182.008V85.7149Z" fill="#0A3D76"/>
<path d="M192.769 83.5353H191.534V85.7148H188.54V83.5353H184.06V81.307L188.729 74.4683H191.52V81.2651H192.755L192.769 83.5353ZM188.54 81.2651V79.9588C188.54 79.7143 188.54 79.379 188.54 78.9669C188.537 78.7333 188.551 78.4998 188.582 78.2683H188.498C188.329 78.6529 188.131 79.0242 187.905 79.379L186.656 81.2302L188.54 81.2651Z" fill="#0A3D76"/>
<path d="M201.115 74.3081L196.928 85.869H194.269L198.456 74.3081H201.115Z" fill="#0A3D76"/>
<path d="M203.927 85.7145L207.786 76.9967H202.901V74.4819H211.01V76.2772L207.053 85.7145H203.927Z" fill="#0A3D76"/>
<path d="M182.119 71.4643C183.376 69.9576 184.948 68.7456 186.724 67.9139C188.501 67.0822 190.438 66.6512 192.399 66.6512C194.36 66.6512 196.297 67.0822 198.073 67.9139C199.849 68.7456 201.421 69.9576 202.678 71.4643H205.232C203.82 69.3536 201.91 67.6236 199.671 66.4273C197.432 65.231 194.933 64.6052 192.395 64.6052C189.857 64.6052 187.358 65.231 185.119 66.4273C182.881 67.6236 180.97 69.3536 179.558 71.4643H182.119Z" fill="#0A3D76"/>
<path d="M202.664 88.7117C201.408 90.2184 199.835 91.4304 198.059 92.2621C196.283 93.0938 194.346 93.5248 192.385 93.5248C190.424 93.5248 188.487 93.0938 186.711 92.2621C184.935 91.4304 183.362 90.2184 182.106 88.7117H179.544C180.958 90.8209 182.868 92.5495 185.107 93.7447C187.346 94.94 189.844 95.5652 192.381 95.5652C194.919 95.5652 197.417 94.94 199.656 93.7447C201.895 92.5495 203.805 90.8209 205.219 88.7117H202.664Z" fill="#0A3D76"/>
</g>
<g filter="url(#filter9_di)">
<path d="M37.0602 69.4417C38.0846 69.3293 39.0466 69.5538 40.0346 70.0548C41.0059 70.5999 41.6785 71.4148 42.1455 72.5993C42.3408 73.1196 42.405 73.468 42.431 73.7445C42.4496 74.3857 42.2319 74.9598 41.668 75.411C41.159 75.8901 40.5189 76.1973 39.7811 76.2444C38.7018 76.329 37.7398 76.1045 36.8569 75.4989C35.9572 74.9374 35.3014 74.0783 34.8009 72.9821L34.6651 72.65C34.4149 72.1019 34.4559 71.6488 34.5899 71.2956C34.8365 70.4729 35.3241 69.8777 36.0907 69.5819C36.4154 69.5886 36.7188 69.4792 37.0602 69.4417ZM32.5158 50.7101C33.6118 50.5813 34.5143 50.6177 35.24 50.7751C35.9108 50.9046 36.8226 51.2616 37.8655 51.7904C38.8536 52.2914 39.6983 52.825 40.3449 53.3635C41.7478 54.496 42.7972 55.8706 43.4 57.3872C43.9051 58.6437 44.1022 59.8493 43.8984 60.9043C43.7494 61.9871 43.1827 62.9634 42.2197 63.9494C41.5888 64.5772 41.1897 65.112 41.0389 65.5094C40.8714 65.951 40.7588 66.4204 40.7941 67.0175C40.7913 67.5426 40.7456 67.8353 40.6786 68.012C40.5567 68.1608 40.3251 68.2539 39.912 68.3077C39.5705 68.3452 38.6513 68.353 37.0994 68.3032C35.5475 68.2534 34.645 68.2171 34.3919 68.1941C34.084 68.1432 33.8477 68.076 33.7165 67.9042C33.5853 67.7324 33.4541 67.5606 33.3779 67.4166C33.2802 67.1565 33.1686 66.4154 33.098 65.2213C33.0274 64.0271 33.0591 63.2534 33.1931 62.9002C33.3439 62.5027 33.7095 62.0563 34.3999 61.6166C35.0187 61.1932 35.3509 60.8351 35.5565 60.4655C35.7454 60.1401 35.7696 59.7312 35.6841 59.2666L35.6794 59.1063L35.6031 58.9623C35.3101 58.1819 34.778 57.8594 33.9685 57.9228C33.3572 57.9815 32.7859 58.7975 32.2545 60.3708C32.1084 60.9286 31.8814 61.182 31.7381 61.2147C31.6664 61.231 31.6116 61.2032 31.5567 61.1753L31.4134 61.208C30.8356 61.1783 29.4466 60.5267 27.3561 59.3087C26.6044 58.8749 26.2155 58.5198 26.0797 58.1876C25.982 57.9275 25.9848 57.4024 26.0379 56.7449C26.2036 55.6179 26.7489 54.5255 27.6189 53.4397C28.4722 52.3981 29.478 51.6444 30.5647 51.1951C31.1165 50.9483 31.7612 50.8014 32.5158 50.7101Z" fill="url(#paint17_linear)"/>
</g>
<defs>
<filter id="filter0_d" x="0" y="119.18" width="322.321" height="105.82" filterUnits="userSpaceOnUse" color-interpolation-filters="sRGB">
<feFlood flood-opacity="0" result="BackgroundImageFix"/>
<feColorMatrix in="SourceAlpha" type="matrix" values="0 0 0 0 0 0 0 0 0 0 0 0 0 0 0 0 0 0 127 0"/>
<feOffset dx="2" dy="2"/>
<feGaussianBlur stdDeviation="2"/>
<feColorMatrix type="matrix" values="0 0 0 0 0 0 0 0 0 0 0 0 0 0 0 0 0 0 0.2 0"/>
<feBlend mode="normal" in2="BackgroundImageFix" result="effect1_dropShadow"/>
<feBlend mode="normal" in="SourceGraphic" in2="effect1_dropShadow" result="shape"/>
</filter>
<filter id="filter1_f" x="18.8813" y="154.05" width="97.0041" height="30.0856" filterUnits="userSpaceOnUse" color-interpolation-filters="sRGB">
<feFlood flood-opacity="0" result="BackgroundImageFix"/>
<feBlend mode="normal" in="SourceGraphic" in2="BackgroundImageFix" result="shape"/>
<feGaussianBlur stdDeviation="1" result="effect1_foregroundBlur"/>
</filter>
<filter id="filter2_di" x="2.74072" y="106.96" width="311.558" height="68.7651" filterUnits="userSpaceOnUse" color-interpolation-filters="sRGB">
<feFlood flood-opacity="0" result="BackgroundImageFix"/>
<feColorMatrix in="SourceAlpha" type="matrix" values="0 0 0 0 0 0 0 0 0 0 0 0 0 0 0 0 0 0 127 0"/>
<feOffset dx="2" dy="2"/>
<feGaussianBlur stdDeviation="2"/>
<feColorMatrix type="matrix" values="0 0 0 0 0 0 0 0 0 0 0 0 0 0 0 0 0 0 0.15 0"/>
<feBlend mode="normal" in2="BackgroundImageFix" result="effect1_dropShadow"/>
<feBlend mode="normal" in="SourceGraphic" in2="effect1_dropShadow" result="shape"/>
<feColorMatrix in="SourceAlpha" type="matrix" values="0 0 0 0 0 0 0 0 0 0 0 0 0 0 0 0 0 0 127 0" result="hardAlpha"/>
<feOffset dx="-4" dy="-4"/>
<feGaussianBlur stdDeviation="5"/>
<feComposite in2="hardAlpha" operator="arithmetic" k2="-1" k3="1"/>
<feColorMatrix type="matrix" values="0 0 0 0 0 0 0 0 0 0 0 0 0 0 0 0 0 0 0.25 0"/>
<feBlend mode="normal" in2="shape" result="effect2_innerShadow"/>
</filter>
<filter id="filter3_d" x="75.9692" y="42.7708" width="65.9023" height="147.209" filterUnits="userSpaceOnUse" color-interpolation-filters="sRGB">
<feFlood flood-opacity="0" result="BackgroundImageFix"/>
<feColorMatrix in="SourceAlpha" type="matrix" values="0 0 0 0 0 0 0 0 0 0 0 0 0 0 0 0 0 0 127 0"/>
<feOffset dx="10"/>
<feGaussianBlur stdDeviation="4"/>
<feColorMatrix type="matrix" values="0 0 0 0 0 0 0 0 0 0 0 0 0 0 0 0 0 0 0.25 0"/>
<feBlend mode="normal" in2="BackgroundImageFix" result="effect1_dropShadow"/>
<feBlend mode="normal" in="SourceGraphic" in2="effect1_dropShadow" result="shape"/>
</filter>
<filter id="filter4_f" x="102.054" y="110.442" width="5.54868" height="2.58687" filterUnits="userSpaceOnUse" color-interpolation-filters="sRGB">
<feFlood flood-opacity="0" result="BackgroundImageFix"/>
<feBlend mode="normal" in="SourceGraphic" in2="BackgroundImageFix" result="shape"/>
<feGaussianBlur stdDeviation="0.1" result="effect1_foregroundBlur"/>
</filter>
<filter id="filter5_f" x="102.819" y="110.19" width="5.26345" height="2.20706" filterUnits="userSpaceOnUse" color-interpolation-filters="sRGB">
<feFlood flood-opacity="0" result="BackgroundImageFix"/>
<feBlend mode="normal" in="SourceGraphic" in2="BackgroundImageFix" result="shape"/>
<feGaussianBlur stdDeviation="0.1" result="effect1_foregroundBlur"/>
</filter>
<filter id="filter6_f" x="101.232" y="110.762" width="3.5582" height="2.36348" filterUnits="userSpaceOnUse" color-interpolation-filters="sRGB">
<feFlood flood-opacity="0" result="BackgroundImageFix"/>
<feBlend mode="normal" in="SourceGraphic" in2="BackgroundImageFix" result="shape"/>
<feGaussianBlur stdDeviation="0.1" result="effect1_foregroundBlur"/>
</filter>
<filter id="filter7_di" x="284.784" y="69.5403" width="16.0079" height="27.7676" filterUnits="userSpaceOnUse" color-interpolation-filters="sRGB">
<feFlood flood-opacity="0" result="BackgroundImageFix"/>
<feColorMatrix in="SourceAlpha" type="matrix" values="0 0 0 0 0 0 0 0 0 0 0 0 0 0 0 0 0 0 127 0"/>
<feOffset dx="2" dy="2"/>
<feGaussianBlur stdDeviation="2"/>
<feColorMatrix type="matrix" values="0 0 0 0 0 0 0 0 0 0 0 0 0 0 0 0 0 0 0.15 0"/>
<feBlend mode="normal" in2="BackgroundImageFix" result="effect1_dropShadow"/>
<feBlend mode="normal" in="SourceGraphic" in2="effect1_dropShadow" result="shape"/>
<feColorMatrix in="SourceAlpha" type="matrix" values="0 0 0 0 0 0 0 0 0 0 0 0 0 0 0 0 0 0 127 0" result="hardAlpha"/>
<feOffset dx="-2" dy="-2"/>
<feGaussianBlur stdDeviation="2"/>
<feComposite in2="hardAlpha" operator="arithmetic" k2="-1" k3="1"/>
<feColorMatrix type="matrix" values="0 0 0 0 0 0 0 0 0 0 0 0 0 0 0 0 0 0 0.2 0"/>
<feBlend mode="normal" in2="shape" result="effect2_innerShadow"/>
</filter>
<filter id="filter8_di" x="171.746" y="62.6052" width="45.2643" height="38.96" filterUnits="userSpaceOnUse" color-interpolation-filters="sRGB">
<feFlood flood-opacity="0" result="BackgroundImageFix"/>
<feColorMatrix in="SourceAlpha" type="matrix" values="0 0 0 0 0 0 0 0 0 0 0 0 0 0 0 0 0 0 127 0"/>
<feOffset dx="2" dy="2"/>
<feGaussianBlur stdDeviation="2"/>
<feColorMatrix type="matrix" values="0 0 0 0 0 0 0 0 0 0 0 0 0 0 0 0 0 0 0.15 0"/>
<feBlend mode="normal" in2="BackgroundImageFix" result="effect1_dropShadow"/>
<feBlend mode="normal" in="SourceGraphic" in2="effect1_dropShadow" result="shape"/>
<feColorMatrix in="SourceAlpha" type="matrix" values="0 0 0 0 0 0 0 0 0 0 0 0 0 0 0 0 0 0 127 0" result="hardAlpha"/>
<feOffset dx="-1" dy="-1"/>
<feGaussianBlur stdDeviation="2"/>
<feComposite in2="hardAlpha" operator="arithmetic" k2="-1" k3="1"/>
<feColorMatrix type="matrix" values="0 0 0 0 0 0 0 0 0 0 0 0 0 0 0 0 0 0 0.2 0"/>
<feBlend mode="normal" in2="shape" result="effect2_innerShadow"/>
</filter>
<filter id="filter9_di" x="24.0015" y="48.6318" width="25.9764" height="33.6297" filterUnits="userSpaceOnUse" color-interpolation-filters="sRGB">
<feFlood flood-opacity="0" result="BackgroundImageFix"/>
<feColorMatrix in="SourceAlpha" type="matrix" values="0 0 0 0 0 0 0 0 0 0 0 0 0 0 0 0 0 0 127 0"/>
<feOffset dx="2" dy="2"/>
<feGaussianBlur stdDeviation="2"/>
<feColorMatrix type="matrix" values="0 0 0 0 0 0 0 0 0 0 0 0 0 0 0 0 0 0 0.15 0"/>
<feBlend mode="normal" in2="BackgroundImageFix" result="effect1_dropShadow"/>
<feBlend mode="normal" in="SourceGraphic" in2="effect1_dropShadow" result="shape"/>
<feColorMatrix in="SourceAlpha" type="matrix" values="0 0 0 0 0 0 0 0 0 0 0 0 0 0 0 0 0 0 127 0" result="hardAlpha"/>
<feOffset dx="-2" dy="-2"/>
<feGaussianBlur stdDeviation="2"/>
<feComposite in2="hardAlpha" operator="arithmetic" k2="-1" k3="1"/>
<feColorMatrix type="matrix" values="0 0 0 0 0 0 0 0 0 0 0 0 0 0 0 0 0 0 0.2 0"/>
<feBlend mode="normal" in2="shape" result="effect2_innerShadow"/>
</filter>
<linearGradient id="paint0_linear" x1="48.9605" y1="143.781" x2="78.0827" y2="166.258" gradientUnits="userSpaceOnUse">
<stop stop-color="#B4D1FA" stop-opacity="0"/>
<stop offset="1" stop-opacity="0.2"/>
</linearGradient>
<linearGradient id="paint1_linear" x1="82.8835" y1="146.536" x2="107.019" y2="163.605" gradientUnits="userSpaceOnUse">
<stop stop-color="#B4D1FA" stop-opacity="0"/>
<stop offset="1" stop-opacity="0.2"/>
</linearGradient>
<linearGradient id="paint2_linear" x1="113.321" y1="128.132" x2="153.427" y2="150.486" gradientUnits="userSpaceOnUse">
<stop stop-color="#B4D1FA" stop-opacity="0"/>
<stop offset="1" stop-opacity="0.2"/>
</linearGradient>
<linearGradient id="paint3_linear" x1="204.59" y1="124.58" x2="247.139" y2="147.209" gradientUnits="userSpaceOnUse">
<stop stop-color="#B4D1FA" stop-opacity="0"/>
<stop offset="1" stop-opacity="0.2"/>
</linearGradient>
<linearGradient id="paint4_linear" x1="222.79" y1="151.84" x2="260.176" y2="167.144" gradientUnits="userSpaceOnUse">
<stop stop-color="#DCD5D7" stop-opacity="0"/>
<stop offset="0.103489" stop-color="#DCD5D7" stop-opacity="0.85"/>
<stop offset="1" stop-color="#DCD5D7"/>
</linearGradient>
<linearGradient id="paint5_linear" x1="183.795" y1="134.182" x2="206.181" y2="159.551" gradientUnits="userSpaceOnUse">
<stop stop-color="#B4D1FA" stop-opacity="0"/>
<stop offset="0.671658" stop-opacity="0.2"/>
</linearGradient>
<linearGradient id="paint6_linear" x1="28.5277" y1="158.081" x2="112.677" y2="196.671" gradientUnits="userSpaceOnUse">
<stop stop-color="#B4D1FA" stop-opacity="0"/>
<stop offset="1" stop-opacity="0.2"/>
</linearGradient>
<linearGradient id="paint7_linear" x1="250.97" y1="135.836" x2="288.431" y2="166.562" gradientUnits="userSpaceOnUse">
<stop stop-color="#B4D1FA" stop-opacity="0"/>
<stop offset="1" stop-opacity="0.2"/>
</linearGradient>
<linearGradient id="paint8_linear" x1="299.003" y1="140.343" x2="18.9331" y2="109.485" gradientUnits="userSpaceOnUse">
<stop stop-color="#A62E41"/>
<stop offset="1" stop-color="#E13152"/>
</linearGradient>
<linearGradient id="paint9_linear" x1="299.003" y1="140.343" x2="18.9331" y2="109.485" gradientUnits="userSpaceOnUse">
<stop stop-color="#A62E41"/>
<stop offset="1" stop-color="#E13152"/>
</linearGradient>
<linearGradient id="paint10_linear" x1="299.003" y1="140.343" x2="18.9331" y2="109.485" gradientUnits="userSpaceOnUse">
<stop stop-color="#A62E41"/>
<stop offset="1" stop-color="#E13152"/>
</linearGradient>
<linearGradient id="paint11_linear" x1="299.003" y1="140.343" x2="18.9331" y2="109.485" gradientUnits="userSpaceOnUse">
<stop stop-color="#A62E41"/>
<stop offset="1" stop-color="#E13152"/>
</linearGradient>
<linearGradient id="paint12_linear" x1="299.003" y1="140.343" x2="18.9331" y2="109.485" gradientUnits="userSpaceOnUse">
<stop stop-color="#A62E41"/>
<stop offset="1" stop-color="#E13152"/>
</linearGradient>
<linearGradient id="paint13_linear" x1="299.003" y1="140.343" x2="18.9331" y2="109.485" gradientUnits="userSpaceOnUse">
<stop stop-color="#A62E41"/>
<stop offset="1" stop-color="#E13152"/>
</linearGradient>
<linearGradient id="paint14_linear" x1="299.003" y1="140.343" x2="18.9331" y2="109.485" gradientUnits="userSpaceOnUse">
<stop stop-color="#A62E41"/>
<stop offset="1" stop-color="#E13152"/>
</linearGradient>
<linearGradient id="paint15_linear" x1="232.167" y1="95.4031" x2="210.297" y2="95.8531" gradientUnits="userSpaceOnUse">
<stop stop-color="#71A0DD" stop-opacity="0"/>
<stop offset="1" stop-color="#71A0DD" stop-opacity="0.5"/>
</linearGradient>
<linearGradient id="paint16_linear" x1="294.545" y1="81.4241" x2="287.018" y2="81.3586" gradientUnits="userSpaceOnUse">
<stop stop-color="#A62E41"/>
<stop offset="1" stop-color="#E13152"/>
</linearGradient>
<linearGradient id="paint17_linear" x1="44.3736" y1="67.2226" x2="25.4634" y2="59.5825" gradientUnits="userSpaceOnUse">
<stop stop-color="#A62E41"/>
<stop offset="1" stop-color="#E13152"/>
</linearGradient>
<clipPath id="clip0">
<rect width="4.51103" height="2.46261" fill="white" transform="matrix(0.998513 0.0531469 -0.0530504 0.998666 242.342 64.2261)"/>
</clipPath>
</defs>
</svg>
