<svg width="340" height="235" viewBox="0 0 340 235" fill="none" xmlns="http://www.w3.org/2000/svg">
<g filter="url(#filter0_d)">
<path d="M165.851 227L5 176.62L156.019 129.18L319.321 176.62L165.851 227Z" fill="#FFF5F7"/>
</g>
<path d="M45.2598 167.954C50.6174 170.402 62.6746 175.733 68.0427 177.483L84.7397 173.734L70.0713 162.956L45.2598 167.954Z" fill="url(#paint0_linear)"/>
<path d="M80.6626 167.688L101.749 176.389H111.424L85.2206 164.038L80.6626 167.688Z" fill="url(#paint1_linear)"/>
<path d="M108.741 158.928L143.726 176.39H153.401L128.796 164.403L132.158 163.854C137.428 162.994 137.937 155.613 132.835 154.038C131.981 153.774 131.072 153.742 130.201 153.944L108.741 158.928Z" fill="url(#paint2_linear)"/>
<path d="M199.719 156.555L236.419 176.389H246.093L223.968 163.672C228.591 162.114 229.044 155.753 224.688 153.555L222.918 152.662C221.594 151.994 220.077 151.812 218.632 152.148L199.719 156.555Z" fill="url(#paint3_linear)"/>
<path d="M223.42 164.038L262.545 176.265H272.282L227.249 161.3L223.42 164.038Z" fill="url(#paint4_linear)"/>
<path d="M171.686 166.436L190.53 174.695C193.315 175.916 196.324 176.546 199.365 176.546H202.952C203.924 176.546 204.882 176.326 205.756 175.901C210.531 173.582 210.585 166.797 205.847 164.403L185.985 154.365C182.04 152.372 177.486 151.95 173.242 153.185L172.534 153.392C166.295 155.207 165.734 163.828 171.686 166.436Z" fill="url(#paint5_linear)"/>
<g filter="url(#filter1_f)">
<path d="M23.8813 169.674L81.9309 190.136H91.1377L85.364 187.48L83.3353 183.107L106.118 190.136H116.885L37.7696 164.05L23.8813 169.674Z" fill="url(#paint6_linear)"/>
</g>
<path d="M126.582 70.0979L130.214 68.4145C130.362 68.3447 130.487 68.2356 130.577 68.0992C130.666 67.9627 130.716 67.8043 130.72 67.6414C130.731 67.2183 130.76 66.7915 130.807 66.3638C130.889 65.5821 131.033 64.8081 131.239 64.0493C131.285 63.8805 131.279 63.7018 131.223 63.5362C131.166 63.3706 131.061 63.2258 130.921 63.1206L127.592 60.5936C127.419 60.4631 127.302 60.2723 127.264 60.0594C127.226 59.8464 127.27 59.627 127.387 59.445L129.434 56.2238C129.546 56.0486 129.718 55.9205 129.919 55.8639C130.12 55.8074 130.334 55.8262 130.522 55.917L133.983 57.6068C134.148 57.69 134.337 57.717 134.519 57.684C134.701 57.6509 134.868 57.5595 134.994 57.4236C136.129 56.2496 137.444 55.2622 138.889 54.4983C139.06 54.4059 139.195 54.26 139.274 54.0833C139.352 53.9066 139.37 53.709 139.325 53.521L138.763 51.2523C138.713 51.0425 138.741 50.8215 138.843 50.6309C138.944 50.4404 139.112 50.2933 139.315 50.2173L142.888 48.9351C142.959 48.9073 143.033 48.8901 143.109 48.8838C143.286 48.8668 143.464 48.9055 143.619 48.9945C143.773 49.0836 143.895 49.2184 143.969 49.3802L145.231 52.083L145.537 52.7425C146.258 52.7184 146.981 52.7453 147.699 52.8231C148.657 52.9253 149.604 53.1163 150.527 53.3937C150.694 53.4457 150.874 53.4451 151.041 53.3918C151.207 53.3385 151.354 53.2352 151.46 53.096L153.5 50.4216C153.634 50.2455 153.83 50.1263 154.048 50.0874C154.267 50.0485 154.492 50.093 154.679 50.2118L157.15 51.7689L157.858 52.2177C158.045 52.335 158.182 52.5171 158.242 52.729C158.303 52.9408 158.282 53.1675 158.185 53.3653L156.769 56.2476C156.686 56.4085 156.656 56.5916 156.685 56.7702C156.714 56.9488 156.799 57.1136 156.929 57.2405C157.699 58.0203 158.384 58.88 158.971 59.805C159.025 59.8792 159.075 59.9563 159.122 60.0358C159.137 60.0629 159.154 60.0884 159.175 60.1118C159.279 60.2498 159.422 60.3537 159.586 60.4103C159.749 60.4669 159.926 60.4736 160.094 60.4296L163.792 59.5284C163.833 59.517 163.875 59.5099 163.917 59.5073C164.11 59.4904 164.304 59.537 164.468 59.6401C164.632 59.7431 164.758 59.8969 164.826 60.0779L166.119 63.6252C166.194 63.8325 166.189 64.0604 166.104 64.2639C166.019 64.4675 165.86 64.6318 165.659 64.7243L161.869 66.4746C161.712 66.5456 161.581 66.6625 161.492 66.8096C161.403 66.9568 161.361 67.1274 161.371 67.2989C161.406 68.0883 161.38 68.8792 161.294 69.6647C161.248 70.0884 161.185 70.5064 161.105 70.9185C161.073 71.0824 161.089 71.2518 161.149 71.4076C161.208 71.5634 161.311 71.6995 161.444 71.8006L164.643 74.2314C164.814 74.3611 164.93 74.55 164.968 74.7607C165.006 74.9715 164.964 75.1888 164.849 75.3698L162.819 78.5544C162.7 78.7414 162.517 78.8781 162.303 78.9383C162.09 78.9985 161.862 78.9779 161.663 78.8805L158.925 77.5423C158.749 77.4535 158.547 77.4263 158.354 77.4651C158.16 77.504 157.985 77.6067 157.857 77.7567C156.839 78.9808 155.637 80.0403 154.294 80.8973C154.137 80.9953 154.015 81.1403 153.946 81.3116C153.877 81.4829 153.864 81.6717 153.909 81.8507L154.723 85.1755C154.776 85.3908 154.747 85.6178 154.642 85.8132C154.537 86.0087 154.364 86.1589 154.155 86.2352L150.61 87.5174C150.405 87.5919 150.18 87.587 149.979 87.5037C149.778 87.4204 149.616 87.2647 149.524 87.0677L149.45 86.9102L147.985 83.7696C147.909 83.6059 147.785 83.4693 147.629 83.3781C147.473 83.2869 147.293 83.2455 147.113 83.2594C146.207 83.322 145.296 83.3042 144.393 83.2063C143.903 83.1532 143.423 83.0753 142.946 82.98C142.785 82.9455 142.617 82.9574 142.462 83.0143C142.307 83.0712 142.171 83.1708 142.071 83.3015L140 86.0172C139.865 86.1956 139.666 86.3167 139.445 86.3567C139.224 86.3967 138.996 86.3527 138.806 86.2333L135.622 84.2183C135.536 84.1612 135.459 84.0908 135.394 84.0095C135.296 83.8789 135.236 83.724 135.219 83.5616C135.203 83.3992 135.232 83.2354 135.302 83.0881L136.435 80.7938C136.501 80.6554 136.531 80.5023 136.521 80.3492C136.51 80.1961 136.46 80.0483 136.376 79.92C136.329 79.852 136.274 79.7905 136.211 79.7368C134.642 78.4286 133.35 76.8212 132.411 75.009C132.334 74.8593 132.215 74.7353 132.068 74.6525C131.921 74.5697 131.753 74.5315 131.584 74.5428C131.534 74.5464 131.485 74.5541 131.436 74.5657L128.443 75.2984C128.233 75.3494 128.011 75.3216 127.82 75.2203C127.63 75.1189 127.483 74.9511 127.408 74.7488L127.378 74.6673L126.114 71.2107C126.038 71.0005 126.044 70.7697 126.131 70.5637C126.218 70.3577 126.378 70.1915 126.582 70.0979ZM154.204 66.5341C154.097 65.9053 153.932 65.2877 153.71 64.6895C153.268 63.4988 152.027 61.95 150.953 61.2686C150.838 61.1944 150.723 61.1248 150.608 61.0561C143.525 56.9181 135.552 63.4283 138.355 71.2419C138.722 72.2631 139.641 73.5151 140.59 74.3303C140.794 74.5072 141.012 74.6685 141.24 74.813C142.156 75.393 143.163 75.8131 144.221 76.0549C149.889 77.3115 155.183 72.5626 154.204 66.5341Z" fill="#EBF2F9"/>
<path d="M143.856 62.0582C143.649 62.0841 143.52 62.11 143.442 62.1619C143.416 62.1878 143.39 62.2396 143.416 62.3692C143.442 62.6025 143.546 63.069 143.701 63.7688C144.322 66.8014 144.84 68.8231 145.281 69.808L145.436 70.119L146.472 70.0154L147.119 69.9635C147.352 69.9376 147.507 69.8858 147.585 69.8339C147.663 69.7821 147.715 69.6525 147.715 69.497C147.715 69.3415 147.689 69.0304 147.663 68.6157L147.611 68.0455C147.507 67.1643 147.404 66.1275 147.248 64.9611C147.093 63.7948 146.99 63.069 146.938 62.8098C146.912 62.5507 146.834 62.3951 146.756 62.2915C146.575 62.11 146.083 62.0063 145.281 62.0063C144.711 62.0063 144.245 62.0063 143.856 62.0582ZM147.015 70.4301C146.472 70.4819 146.057 70.6633 145.798 71.0003C145.539 71.3113 145.436 71.726 145.488 72.1926C145.539 72.711 145.773 73.1257 146.161 73.4367C146.549 73.7477 147.015 73.8773 147.533 73.8255C147.715 73.7996 147.87 73.7736 147.999 73.6959C148.31 73.5663 148.595 73.333 148.828 72.9961C149.061 72.6591 149.165 72.3222 149.139 72.0371C149.087 71.6742 148.932 71.3372 148.647 71.0262C148.362 70.7152 148.025 70.5337 147.611 70.4301C147.482 70.4042 147.274 70.4042 147.015 70.4301Z" fill="#EBF2F9"/>
<path d="M334.517 127.991L331.149 126.435C331.012 126.37 330.896 126.269 330.813 126.143C330.73 126.017 330.684 125.871 330.68 125.72C330.67 125.329 330.643 124.934 330.6 124.539C330.524 123.816 330.39 123.101 330.199 122.399C330.156 122.243 330.161 122.078 330.214 121.925C330.267 121.772 330.364 121.638 330.494 121.54L333.581 119.204C333.741 119.084 333.85 118.907 333.885 118.71C333.92 118.513 333.88 118.311 333.771 118.142L331.873 115.164C331.769 115.002 331.609 114.884 331.423 114.831C331.237 114.779 331.038 114.797 330.864 114.881L327.655 116.443C327.501 116.52 327.327 116.545 327.157 116.514C326.988 116.484 326.834 116.399 326.717 116.273C325.665 115.188 324.445 114.275 323.105 113.569C322.947 113.483 322.822 113.349 322.749 113.185C322.676 113.022 322.659 112.839 322.701 112.665L323.222 110.568C323.268 110.374 323.242 110.17 323.148 109.993C323.054 109.817 322.898 109.681 322.71 109.611L319.397 108.426C319.332 108.4 319.263 108.384 319.193 108.378C319.028 108.362 318.863 108.398 318.72 108.481C318.577 108.563 318.463 108.687 318.395 108.837L317.225 111.336L316.941 111.946C316.272 111.923 315.602 111.948 314.936 112.02C314.047 112.115 313.169 112.291 312.314 112.548C312.159 112.596 311.992 112.595 311.838 112.546C311.683 112.497 311.547 112.401 311.449 112.272L309.557 109.8C309.432 109.637 309.251 109.527 309.048 109.491C308.846 109.455 308.637 109.496 308.464 109.606L306.172 111.045L305.516 111.46C305.343 111.569 305.216 111.737 305.16 111.933C305.104 112.129 305.122 112.339 305.213 112.521L306.526 115.186C306.603 115.335 306.63 115.504 306.603 115.669C306.577 115.834 306.498 115.987 306.378 116.104C305.663 116.825 305.028 117.62 304.484 118.475C304.434 118.544 304.387 118.615 304.344 118.688C304.33 118.714 304.314 118.737 304.295 118.759C304.198 118.886 304.066 118.982 303.914 119.035C303.762 119.087 303.598 119.093 303.443 119.053L300.013 118.219C299.976 118.209 299.937 118.202 299.898 118.2C299.718 118.184 299.539 118.227 299.387 118.323C299.235 118.418 299.118 118.56 299.055 118.727L297.856 122.007C297.786 122.199 297.791 122.409 297.87 122.598C297.949 122.786 298.096 122.938 298.282 123.023L301.796 124.641C301.942 124.707 302.064 124.815 302.146 124.951C302.229 125.087 302.268 125.245 302.258 125.403C302.226 126.133 302.25 126.864 302.33 127.591C302.372 127.982 302.431 128.369 302.505 128.75C302.534 128.901 302.52 129.058 302.465 129.202C302.409 129.346 302.314 129.472 302.191 129.565L299.224 131.813C299.066 131.933 298.958 132.107 298.923 132.302C298.888 132.497 298.927 132.698 299.033 132.865L300.916 135.809C301.026 135.982 301.196 136.109 301.394 136.164C301.592 136.22 301.803 136.201 301.988 136.111L304.527 134.874C304.69 134.792 304.877 134.766 305.056 134.802C305.236 134.838 305.398 134.933 305.517 135.072C306.46 136.204 307.575 137.183 308.821 137.976C308.966 138.066 309.079 138.2 309.143 138.359C309.208 138.517 309.22 138.691 309.178 138.857L308.423 141.931C308.374 142.13 308.401 142.34 308.498 142.52C308.595 142.701 308.756 142.84 308.949 142.911L312.237 144.096C312.427 144.165 312.636 144.16 312.822 144.083C313.008 144.006 313.159 143.862 313.244 143.68L313.313 143.535L314.671 140.631C314.741 140.48 314.856 140.353 315.001 140.269C315.145 140.185 315.312 140.146 315.48 140.159C316.32 140.217 317.164 140.201 318.001 140.11C318.456 140.061 318.901 139.989 319.343 139.901C319.493 139.869 319.649 139.88 319.792 139.933C319.936 139.985 320.062 140.077 320.155 140.198L322.075 142.709C322.201 142.874 322.384 142.986 322.589 143.023C322.795 143.06 323.006 143.019 323.182 142.909L326.134 141.046C326.215 140.993 326.286 140.928 326.346 140.853C326.437 140.732 326.493 140.589 326.508 140.439C326.523 140.289 326.496 140.137 326.431 140.001L325.381 137.88C325.319 137.752 325.292 137.61 325.302 137.469C325.311 137.327 325.357 137.191 325.436 137.072C325.479 137.009 325.53 136.952 325.588 136.903C327.044 135.693 328.242 134.207 329.112 132.532C329.183 132.393 329.294 132.279 329.431 132.202C329.567 132.125 329.723 132.09 329.879 132.101C329.925 132.104 329.971 132.111 330.016 132.122L332.792 132.799C332.986 132.846 333.192 132.821 333.369 132.727C333.546 132.633 333.682 132.478 333.751 132.291L333.779 132.216L334.951 129.02C335.021 128.826 335.016 128.612 334.935 128.422C334.855 128.231 334.706 128.078 334.517 127.991ZM308.904 124.696C309.003 124.115 309.156 123.544 309.362 122.991C309.772 121.89 310.923 120.458 311.918 119.828C312.025 119.76 312.132 119.695 312.239 119.632C318.807 115.806 326.199 121.825 323.601 129.049C323.26 129.993 322.408 131.15 321.528 131.904C321.339 132.068 321.137 132.217 320.925 132.35C320.076 132.887 319.142 133.275 318.161 133.499C312.905 134.66 307.997 130.27 308.904 124.696Z" fill="#EBF2F9"/>
<path d="M244.934 162.76L288.691 176.448H298.172L244.934 158.015V162.76Z" fill="url(#paint7_linear)"/>
<path d="M235.94 40.2861L235.216 39.8594L252.137 21.1724L272.766 37.3422L285.425 14.8154L286.15 15.3274L272.937 38.6222L252.393 22.4524L235.94 40.2861Z" fill="#0A3D76"/>
<g filter="url(#filter2_di)">
<path d="M235.557 42.6329C236.97 42.6329 238.115 41.4868 238.115 40.073C238.115 38.6593 236.97 37.5132 235.557 37.5132C234.145 37.5132 233 38.6593 233 40.073C233 41.4868 234.145 42.6329 235.557 42.6329Z" fill="#F985A0"/>
</g>
<g filter="url(#filter3_di)">
<path d="M252.265 24.6288C253.819 24.6288 255.078 23.3681 255.078 21.8129C255.078 20.2578 253.819 18.9971 252.265 18.9971C250.712 18.9971 249.452 20.2578 249.452 21.8129C249.452 23.3681 250.712 24.6288 252.265 24.6288Z" fill="#F985A0"/>
</g>
<g filter="url(#filter4_di)">
<path d="M271.275 37.9829C271.275 38.8788 272 39.5615 272.852 39.5615C273.747 39.5615 274.429 38.8362 274.429 37.9829C274.429 37.0869 273.705 36.4043 272.852 36.4043C272 36.4043 271.275 37.0869 271.275 37.9829Z" fill="#F985A0"/>
</g>
<g filter="url(#filter5_di)">
<path d="M285.809 18.1437C287.504 18.1437 288.878 16.7684 288.878 15.0718C288.878 13.3753 287.504 12 285.809 12C284.114 12 282.74 13.3753 282.74 15.0718C282.74 16.7684 284.114 18.1437 285.809 18.1437Z" fill="#F985A0"/>
</g>
<path d="M35.2073 114.91C36.1817 114.91 36.9717 114.119 36.9717 113.144C36.9717 112.168 36.1817 111.377 35.2073 111.377C34.2328 111.377 33.4429 112.168 33.4429 113.144C33.4429 114.119 34.2328 114.91 35.2073 114.91Z" fill="#EBF2F9"/>
<path d="M46.7338 102.488C47.8057 102.488 48.6746 101.618 48.6746 100.545C48.6746 99.4723 47.8057 98.6025 46.7338 98.6025C45.6619 98.6025 44.793 99.4723 44.793 100.545C44.793 101.618 45.6619 102.488 46.7338 102.488Z" fill="#EBF2F9"/>
<path d="M59.8501 111.701C59.8501 112.32 60.35 112.791 60.9381 112.791C61.5557 112.791 62.0262 112.29 62.0262 111.701C62.0262 111.083 61.5263 110.612 60.9381 110.612C60.35 110.612 59.8501 111.083 59.8501 111.701Z" fill="#EBF2F9"/>
<path d="M69.877 98.0136C71.0464 98.0136 71.9943 97.0647 71.9943 95.8943C71.9943 94.7238 71.0464 93.7749 69.877 93.7749C68.7077 93.7749 67.7598 94.7238 67.7598 95.8943C67.7598 97.0647 68.7077 98.0136 69.877 98.0136Z" fill="#EBF2F9"/>
<path d="M35.4716 113.29L34.9717 112.996L46.6461 100.103L60.8788 111.259L69.6126 95.7173L70.1125 96.0705L60.9964 112.142L46.8225 100.986L35.4716 113.29Z" fill="#EBF2F9"/>
<path d="M195.526 38.2927C196.593 38.028 197.58 38.1449 198.582 38.5643C199.564 39.0349 200.225 39.8451 200.656 41.0927C200.835 41.642 200.886 42.019 200.901 42.3215C200.891 43.0289 200.639 43.6943 200.035 44.2711C199.485 44.8712 198.808 45.299 198.041 45.4521C196.918 45.6935 195.931 45.5766 195.043 45.0269C194.135 44.5284 193.494 43.6671 193.024 42.5219L192.898 42.1727C192.664 41.6002 192.727 41.0929 192.881 40.6834C193.174 39.7388 193.706 39.0131 194.514 38.5807C194.851 38.5436 195.17 38.3809 195.526 38.2927ZM191.656 18.1753C192.798 17.8828 193.732 17.7995 194.478 17.8744C195.167 17.926 196.096 18.1965 197.154 18.6392C198.156 19.0586 199.008 19.5338 199.654 20.0415C201.057 21.1034 202.084 22.4816 202.64 24.0783C203.107 25.4003 203.258 26.7082 202.999 27.9042C202.796 29.1235 202.164 30.282 201.122 31.5054C200.439 32.2869 200.002 32.9336 199.827 33.3943C199.634 33.9061 199.496 34.4413 199.506 35.0975C199.479 35.6793 199.419 36.0097 199.341 36.2144C199.208 36.3959 198.964 36.5307 198.533 36.6468C198.178 36.735 197.224 36.8695 195.618 37.0268C194.011 37.1841 193.077 37.2674 192.815 37.2766C192.498 37.2624 192.257 37.2204 192.128 37.0481C192 36.8758 191.872 36.7036 191.799 36.5546C191.71 36.2799 191.627 35.4747 191.608 34.1623C191.588 32.8498 191.656 31.9888 191.811 31.5793C191.985 31.1187 192.384 30.5744 193.119 29.993C193.78 29.4395 194.14 28.9976 194.37 28.5602C194.581 28.1741 194.624 27.718 194.556 27.2153L194.559 27.0384L194.486 26.8895C194.217 26.0655 193.68 25.7813 192.838 25.9624C192.202 26.1109 191.573 27.0926 190.951 28.9074C190.775 29.5449 190.528 29.8566 190.378 29.9124C190.303 29.9402 190.247 29.9169 190.191 29.8936L190.041 29.9494C189.444 29.9956 188.033 29.4642 185.92 28.4019C185.161 28.0245 184.773 27.6845 184.647 27.3354C184.558 27.0608 184.584 26.479 184.669 25.7437C184.891 24.4733 185.506 23.1891 186.457 21.8678C187.388 20.5978 188.465 19.6257 189.612 18.9794C190.195 18.6306 190.87 18.3797 191.656 18.1753Z" fill="#EBF2F9"/>
<path d="M72.7849 24.607C73.2858 24.4399 73.6614 24.3981 73.8283 24.4399C73.9118 24.4399 74.037 24.607 74.1205 24.8994C74.2874 25.4843 74.5379 26.6541 74.83 28.4506C76.2909 36.1379 77.0004 41.3603 76.9587 44.0759L76.9169 44.995L74.3709 45.747L72.7849 46.2484C72.2423 46.4155 71.8249 46.4573 71.5745 46.3737C71.3241 46.2902 71.1154 46.0813 70.9484 45.7053C70.7815 45.3292 70.5311 44.619 70.2389 43.6163L69.8215 42.2376C69.1955 40.0651 68.4859 37.5584 67.7347 34.6757C66.9834 31.7929 66.5243 30.0382 66.399 29.328C66.2321 28.7013 66.2321 28.2417 66.3156 27.9493C66.566 27.3644 67.6094 26.6541 69.4459 25.8604C70.7398 25.3172 71.8667 24.8994 72.7849 24.607ZM73.4527 47.1675C74.7883 46.7915 75.9152 46.8333 76.8334 47.2928C77.7517 47.7942 78.3777 48.588 78.7534 49.7996C79.129 51.0529 79.0038 52.2645 78.3777 53.3925C77.7517 54.5206 76.8334 55.2726 75.5813 55.6068C75.1222 55.7321 74.7048 55.8157 74.3709 55.7739C73.4944 55.7739 72.618 55.4815 71.7415 54.9384C70.865 54.3535 70.3224 53.7268 70.1137 53.0165C69.8633 52.1392 69.905 51.1783 70.2806 50.2174C70.6563 49.2564 71.2823 48.4627 72.1171 47.836C72.4093 47.5435 72.8684 47.3346 73.4527 47.1675Z" fill="#EBF2F9"/>
<g filter="url(#filter6_di)">
<path d="M28.5776 177.726C40.6011 177.726 46.4125 169.89 46.4125 159.5C46.4125 144.245 20.8291 142.799 20.8291 135.312C20.8291 131.906 23.1002 129.606 27.1749 129.606C31.7171 129.606 36.5265 131.565 40.1336 135.823L45.4105 126.966C41.0019 121.771 35.1237 119.046 28.0432 119.046C17.556 119.046 11.1435 126.881 11.1435 136.334C12.8603 150.442 36.7937 152.085 36.7937 160.863C36.7937 164.099 34.2554 167.165 29.0452 167.165C22.8998 167.165 18.0236 163.673 14.8841 159.5L9.74072 168.698C13.8822 174.063 20.0275 177.726 28.5776 177.726Z" fill="url(#paint8_linear)"/>
<path d="M72.905 177.726C86.4649 177.726 93.011 168.102 93.011 153.964V119.897H83.3254V153.623C83.3254 161.544 79.7851 166.995 72.905 166.995C66.0249 166.995 62.4178 161.544 62.4178 153.623V119.897H52.799V154.049C52.799 168.017 59.3451 177.726 72.905 177.726Z" fill="url(#paint9_linear)"/>
<path d="M111.273 176.704V156.519H122.629C132.248 156.519 137.592 148.087 137.592 138.208C137.592 128.244 132.315 119.897 122.629 119.897H101.788V176.704H111.273ZM121.36 145.873H111.273V130.543H121.36C125.1 130.543 127.906 133.439 127.906 138.208C127.906 142.892 125.1 145.873 121.36 145.873Z" fill="url(#paint10_linear)"/>
<path d="M152.956 176.704V156.519H164.312C173.931 156.519 179.275 148.087 179.275 138.208C179.275 128.244 173.998 119.897 164.312 119.897H143.471V176.704H152.956ZM163.043 145.873H152.956V130.543H163.043C166.784 130.543 169.589 133.439 169.589 138.208C169.589 142.892 166.784 145.873 163.043 145.873Z" fill="url(#paint11_linear)"/>
<path d="M206.262 177.726C219.755 177.726 229.575 165.462 229.575 148.343C229.575 131.224 219.755 118.96 206.262 118.96C192.836 118.96 183.017 131.224 183.017 148.343C183.017 165.462 192.836 177.726 206.262 177.726ZM206.262 166.995C198.046 166.995 192.769 158.904 192.769 148.343C192.769 137.697 198.046 129.691 206.262 129.691C214.478 129.691 219.822 137.697 219.822 148.343C219.822 158.904 214.478 166.995 206.262 166.995Z" fill="url(#paint12_linear)"/>
<path d="M298.34 176.704V130.543H311.299V119.897H275.763V130.543H288.788V176.704H298.34Z" fill="url(#paint13_linear)"/>
<path fill-rule="evenodd" clip-rule="evenodd" d="M272.302 176.704L262.282 155.071C267.091 153.623 272.034 148.258 272.034 138.208C272.034 127.647 266.357 119.897 257.072 119.897H236.231V176.704H245.716V156.519H252.663L261.414 176.704H272.302ZM245.716 145.873H255.669C259.476 145.873 262.349 142.977 262.349 138.208C262.349 133.439 259.476 130.543 255.669 130.543H245.716V145.873Z" fill="url(#paint14_linear)"/>
</g>
<path d="M247.124 78.3569C254.602 79.9075 256.884 80.633 261.298 76.6194C261.298 76.6194 261.604 66.2406 258.494 60.6806C255.384 55.1206 252.381 54.1851 248.184 55.689C248.184 55.689 247.199 54.8596 245.339 56.2089C237.729 61.7265 242.834 72.0756 247.124 78.3569Z" fill="#412716"/>
<path d="M256.618 57.7291C254.373 59.3265 252.374 58.4859 249.752 58.9359C246.024 59.6173 246.028 63.8646 243.296 62.5982C242.27 74.1021 242.186 79.1624 245.863 87.4731C253.38 91.2643 255.731 94.7581 259.45 88.4014C259.45 88.4014 263.627 73.8728 259.792 63.7691C259.49 62.9087 256.935 58.446 256.618 57.7291Z" fill="#3C2415"/>
<path d="M248.463 90.1578C248.463 90.1578 248.369 81.6116 248.999 79.1601C248.832 77.6688 248.681 75.736 248.434 74.5327L253.716 71.7319C253.748 71.6128 253.524 77.7671 254.978 81.2939C256.037 81.1241 251.827 89.3458 251.827 89.3458L248.463 90.1578Z" fill="#FFCFAE"/>
<path d="M253.701 72.9791C250.406 74.6715 252.349 73.6149 250.314 74.6269L248.713 75.618C248.733 76.4843 249.529 77.3479 250.34 77.042C251.36 76.6568 252.31 75.468 253.371 73.521L253.701 72.9791Z" fill="#F5B994"/>
<path d="M243.751 70.2406C244.872 73.1607 245.775 76.8141 248.641 75.9971C251.507 75.18 253.53 74.0436 254.133 72.9582C254.916 71.5491 254.819 70.7604 254.801 68.5422C254.779 65.7511 254.715 63.6343 254.427 62.9316C251.899 57.7801 250.057 58.211 248.236 58.38C244.561 59.6937 242.776 61.034 242.991 65.4724C243.016 65.9836 243.072 68.471 243.751 70.2406Z" fill="#FFCFAE"/>
<path d="M250.663 65.2173C250.298 65.0975 250.189 65.1497 249.671 65.1817C249.438 65.2261 249.214 65.3037 249.003 65.4125C249.003 65.4125 248.55 66.0094 248.497 66.0867C248.403 66.2271 248.46 66.3753 248.627 66.3897C248.794 66.404 248.969 66.3383 249.11 66.3599C250.195 66.4827 250.431 66.5402 251.008 66.2429C251.24 66.1323 251.457 65.9916 251.655 65.8237C251.364 65.549 251.025 65.3421 250.663 65.2173Z" fill="white"/>
<path d="M249.518 65.4179C249.2 65.4511 248.997 65.7625 249.065 66.1135C249.082 66.205 249.149 66.398 249.287 66.3779C249.341 66.37 249.875 66.4504 250.126 66.4535C250.158 66.411 250.187 66.3546 250.211 66.2814C250.233 66.1925 250.236 66.0945 250.217 65.9933C250.149 65.6423 249.836 65.3847 249.518 65.4179Z" fill="#28160D" stroke="#1C1105" stroke-width="0.2" stroke-miterlimit="10"/>
<path d="M249.71 66.3889C249.877 66.3712 249.985 66.2069 249.949 66.0218C249.913 65.8367 249.749 65.701 249.581 65.7186C249.413 65.7362 249.306 65.9005 249.341 66.0856C249.377 66.2707 249.542 66.4065 249.71 66.3889Z" fill="black"/>
<path opacity="0.77" d="M249.96 66.0981C250.051 66.0886 250.108 66.0003 250.089 65.9008C250.07 65.8013 249.981 65.7283 249.891 65.7377C249.801 65.7472 249.743 65.8356 249.762 65.9351C249.781 66.0346 249.87 66.1076 249.96 66.0981Z" fill="white"/>
<path d="M248.472 66.2915L249.006 65.5067C249.054 65.4363 249.121 65.3834 249.198 65.3542L249.444 65.2658C249.57 65.2211 249.702 65.1999 249.837 65.203L250.496 65.2203C250.63 65.2238 250.764 65.2611 250.888 65.3292L251.611 65.7377L251.831 65.7377L251.133 65.1503C250.984 65.067 250.823 65.0215 250.661 65.0173L250.004 64.9999C249.849 64.9958 249.697 65.0209 249.553 65.074L249.309 65.1623C249.147 65.2021 248.996 65.2769 248.865 65.3824L248.239 66.3367L248.472 66.2915Z" fill="#D3A688"/>
<path opacity="0.5" d="M248.408 66.3216L248.943 65.532C249 65.447 249.079 65.3836 249.171 65.3492L249.416 65.2604C249.555 65.21 249.702 65.1866 249.851 65.191L250.51 65.2088C250.658 65.212 250.806 65.2541 250.942 65.3317L251.655 65.742" stroke="#0A0001" stroke-width="0.3" stroke-miterlimit="10"/>
<path d="M248.478 66.3674L248.752 66.3507C248.895 66.3415 249.039 66.3505 249.183 66.3776C249.529 66.4189 250.248 66.5837 250.839 66.3338C250.875 66.3167 251.132 66.1264 251.166 66.1009L251.493 65.868" stroke="#472A22" stroke-width="0.2" stroke-miterlimit="10"/>
<path d="M243.942 65.8438C244.213 65.6964 244.313 65.7243 244.741 65.68C244.941 65.6847 245.141 65.7176 245.337 65.7778C245.337 65.7778 245.84 66.2039 245.901 66.2597C246.008 66.3617 245.995 66.4905 245.863 66.5249C245.73 66.5593 245.573 66.5293 245.463 66.5662C244.607 66.8138 244.428 66.8929 243.891 66.7284C243.678 66.6696 243.469 66.5842 243.271 66.4739C243.446 66.2099 243.675 65.9949 243.942 65.8438Z" fill="white"/>
<path d="M245.971 66.4224L245.364 65.8542C245.309 65.8033 245.243 65.7692 245.174 65.7558L244.955 65.7171C244.842 65.6977 244.729 65.6984 244.62 65.7193L244.088 65.823C243.979 65.8442 243.878 65.8928 243.792 65.9652L243.293 66.3971L243.114 66.427L243.554 65.8524C243.656 65.7642 243.777 65.7052 243.908 65.6797L244.44 65.5762C244.565 65.5518 244.695 65.5515 244.824 65.5753L245.042 65.6142C245.182 65.6247 245.322 65.6652 245.452 65.7335L246.172 66.4276L245.971 66.4224Z" fill="#D3A688"/>
<path opacity="0.5" d="M246.027 66.4377L245.419 65.8659C245.354 65.8043 245.275 65.7634 245.193 65.7477L244.974 65.7086C244.85 65.6863 244.726 65.6871 244.605 65.711L244.072 65.8151C243.952 65.8379 243.84 65.8924 243.747 65.9741L243.255 66.4059" stroke="#0A0001" stroke-width="0.3" stroke-miterlimit="10"/>
<path d="M244.146 65.9174C243.871 65.9479 243.684 66.2069 243.728 66.4958C243.74 66.5711 243.754 66.575 243.791 66.6367C244.111 66.8378 244.382 66.797 244.726 66.7143C244.749 66.6407 244.738 66.4686 244.725 66.3853C244.681 66.0964 244.421 65.8869 244.146 65.9174Z" fill="#28160D" stroke="#1C1105" stroke-width="0.2" stroke-miterlimit="10"/>
<path d="M244.201 66.737C244.342 66.7227 244.435 66.5859 244.407 66.4316C244.379 66.2772 244.242 66.1638 244.1 66.1781C243.958 66.1925 243.866 66.3292 243.894 66.4835C243.921 66.6379 244.059 66.7514 244.201 66.737Z" fill="black"/>
<path opacity="0.77" d="M244.41 66.4954C244.486 66.4876 244.536 66.4141 244.521 66.331C244.506 66.2479 244.432 66.1868 244.356 66.1945C244.28 66.2022 244.23 66.2758 244.245 66.3589C244.26 66.442 244.334 66.5031 244.41 66.4954Z" fill="white"/>
<path d="M245.959 66.4807L245.733 66.5047C245.614 66.5169 245.498 66.544 245.386 66.5855C245.111 66.6661 244.556 66.8975 244.025 66.7772C243.992 66.7685 243.746 66.6503 243.713 66.6345L243.4 66.4917" stroke="#472A22" stroke-width="0.2" stroke-miterlimit="10"/>
<path d="M254.84 66.185C255.286 64.9165 256.055 64.4559 256.563 65.1678C257.071 65.8797 256.92 67.4054 256.471 68.6794C256.023 69.9534 255.252 70.3666 254.955 69.7689C254.444 69.0625 254.398 67.4532 254.84 66.185Z" fill="#FFCFAE"/>
<path d="M255.254 67.1313C255.61 66.3908 256.113 66.0946 256.373 66.4691C256.634 66.8436 256.545 67.7511 256.185 68.4862C255.825 69.2213 255.323 69.5277 255.051 69.1475C254.779 68.7673 254.891 67.8662 255.254 67.1313Z" fill="#F5B994"/>
<path d="M255.02 68.4829C255.138 68.0106 255.399 67.7643 255.605 67.9423C255.811 68.1202 255.876 68.6462 255.762 69.118C255.647 69.5897 255.382 69.8328 255.177 69.6587C254.972 69.4845 254.906 68.9668 255.02 68.4829Z" fill="#FFCFAE"/>
<path d="M242.584 65.6742C242.912 65.1506 243.396 63.8369 245.61 64.7639C245.75 64.8223 245.818 64.8459 245.907 65.0771C243.931 64.6333 243.76 64.584 242.584 65.6742Z" fill="#553723"/>
<path d="M252.602 64.6292C252.135 64.0972 251.013 63.2336 248.776 64.1253C248.629 64.2047 248.556 64.2382 248.497 64.4999C250.615 63.9827 250.891 63.9152 252.602 64.6292Z" fill="#553723"/>
<path d="M246.609 67.0645C246.739 68.3787 246.306 69.0806 245.888 70.3003C245.895 70.3703 245.917 70.4381 245.953 70.4998C246.087 70.7376 246.608 70.7222 247.194 70.4996C247.415 70.4427 247.533 70.4673 247.737 70.539" stroke="#D3A688" stroke-width="0.5" stroke-miterlimit="10"/>
<path d="M245.034 63.0461C244.33 65.2199 242.582 66.5422 242.183 66.562L242.556 61.8233L248.178 56.9156L255.482 59.8529L254.974 65.9395C248.015 60.6802 250.312 57.8974 248.461 58.5241C246.611 59.1509 245.913 60.3288 245.034 63.0461Z" fill="#412616"/>
<g clip-path="url(#clip0)">
<g style="mix-blend-mode:multiply" opacity="0.8">
<path d="M245.741 72.4643C245.742 72.4645 245.743 72.4647 245.745 72.465C245.874 72.4855 246.006 72.4658 246.125 72.4081C246.651 72.1754 247.217 72.0727 247.782 72.1076C248.31 72.1019 248.835 72.0271 249.347 71.885C249.351 71.836 249.365 71.7885 249.387 71.7457C249.41 71.7028 249.441 71.6658 249.478 71.6372C249.51 71.8283 249.585 72.0075 249.697 72.1584C249.605 72.23 249.436 72.0999 249.436 72.0999C249.306 72.425 249.091 72.7017 248.817 72.8947C248.542 73.0878 248.222 73.1885 247.896 73.1838C247.245 73.2805 246.677 73.2028 246.154 72.7784C246.087 72.8025 245.822 72.4826 245.745 72.465C245.743 72.4646 245.742 72.4644 245.741 72.4643Z" fill="#FFC6C6"/>
</g>
<path d="M246.093 72.5787C246.502 72.3766 246.948 72.2782 247.396 72.2912C248.048 72.3193 248.699 72.2246 249.323 72.0114C249.129 72.3433 248.859 72.6158 248.54 72.8021C248.221 72.9884 247.863 73.0821 247.502 73.074C247.247 73.1077 246.989 73.0808 246.745 72.9953C246.502 72.9097 246.279 72.7675 246.093 72.5787Z" fill="#FDFCFC"/>
<path d="M246.093 72.5782L246.28 72.4863C246.345 72.4562 246.411 72.4299 246.478 72.4076L246.676 72.348C246.742 72.3287 246.81 72.3132 246.878 72.3015L247.086 72.2679C247.15 72.2714 247.221 72.2751 247.291 72.2788L247.704 72.2625C247.839 72.2697 247.973 72.2769 248.111 72.2332L248.336 72.2133L248.521 72.1658L248.717 72.1316L248.931 72.0857C248.998 72.0739 249.063 72.0561 249.128 72.0325C249.188 72.0139 249.246 71.9893 249.302 71.9589L249.428 71.9083L249.374 72.0392C249.337 72.117 249.294 72.1914 249.245 72.2616L249.169 72.3595L249.088 72.4508L249.001 72.5353L248.903 72.6129C248.841 72.6661 248.776 72.7138 248.707 72.7554C248.432 72.9228 248.131 73.0322 247.819 73.0777C247.743 73.0926 247.666 73.1013 247.588 73.1036L247.471 73.0974L247.354 73.0912C247.277 73.0871 247.201 73.0831 247.125 73.079L246.896 73.0669C246.819 73.0504 246.744 73.0273 246.67 72.9975C246.597 72.9706 246.526 72.937 246.458 72.8971C246.423 72.8786 246.388 72.8577 246.356 72.8343L246.261 72.7401L246.171 72.6588C246.143 72.6336 246.117 72.6067 246.093 72.5782V72.5782ZM246.093 72.5782C246.119 72.607 246.147 72.6341 246.177 72.6592L246.272 72.7407L246.369 72.7968L246.472 72.8532C246.541 72.889 246.612 72.9183 246.685 72.941C246.761 72.945 246.83 72.9869 246.906 72.9973L247.129 73.0091C247.205 73.0132 247.281 73.0173 247.357 73.0213L247.475 73.0275L247.58 73.0332C247.657 73.0372 247.735 73.0095 247.806 73.0005C248.103 72.9496 248.39 72.8396 248.652 72.6761L248.842 72.5396C248.868 72.5118 248.891 72.481 248.911 72.4478L248.998 72.3696L249.073 72.2844C249.106 72.2557 249.135 72.2231 249.161 72.1871C249.205 72.1252 249.244 72.059 249.277 71.9894L249.35 72.0634C249.283 72.0938 249.215 72.12 249.145 72.1417L248.925 72.1937L248.735 72.2345L248.533 72.2684L248.331 72.2959L248.124 72.3167C247.989 72.3096 247.849 72.3021 247.712 72.333C247.575 72.364 247.436 72.3184 247.301 72.3112L247.096 72.3003L246.895 72.3215L246.693 72.3553L246.49 72.4019L246.293 72.4678L246.093 72.5782Z" fill="#CB7A63"/>
<g style="mix-blend-mode:multiply" opacity="0.4">
<path d="M249.323 72.0114C248.699 72.2246 248.048 72.3193 247.396 72.2912C246.948 72.2782 246.502 72.3766 246.093 72.5787C246.229 72.7305 246.399 72.8425 246.587 72.9043C246.403 72.7225 246.362 72.4974 246.846 72.4531C247.331 72.4088 248.106 72.4436 248.527 72.3768C248.948 72.31 248.651 72.9121 247.355 73.0598L247.484 73.0667C247.848 73.0788 248.209 72.9878 248.531 72.8027C248.854 72.6176 249.127 72.3448 249.323 72.0114V72.0114Z" fill="#CEC0B6"/>
</g>
</g>
<path d="M243.416 152.795C243.512 152.99 243.55 153.21 243.525 153.427C243.5 153.644 243.413 153.849 243.275 154.018C242.771 154.714 241.594 155.316 240.267 155.875C240.102 155.948 239.939 156.011 239.811 156.075L239.709 156.125C239.68 156.139 239.655 156.153 239.628 156.164C238.355 156.811 238.674 157.127 236.327 158.491C233.653 160.047 232.223 159.679 231.875 159.366C231.581 159.103 232.601 158.162 233.736 157.103L233.901 156.95C234.052 156.81 234.204 156.665 234.354 156.523C235.697 155.242 235.669 154.452 236.114 152.101C236.476 150.181 236.199 140.865 236.199 140.865L240.343 141.318C240.343 141.318 239.584 148.461 240.595 149.884C241.135 150.643 241.918 150.875 242.473 151.482L242.581 151.61C242.911 151.966 243.192 152.364 243.416 152.795Z" fill="#FFCFAE"/>
<path d="M243.416 152.796C243.513 152.991 243.551 153.211 243.526 153.428C243.501 153.645 243.414 153.85 243.276 154.018C242.709 154.697 241.555 155.301 240.266 155.867C240.1 155.942 239.948 156.01 239.812 156.076L239.709 156.126C239.681 156.14 239.655 156.154 239.629 156.165C238.355 156.812 238.675 157.127 236.328 158.492C233.653 160.048 232.224 159.68 231.876 159.367C231.582 159.104 232.602 158.163 233.737 157.104C235.339 156.955 236.874 156.384 238.185 155.449C239.88 154.22 241.29 152.42 242.476 151.476L242.584 151.604C242.913 151.962 243.194 152.363 243.416 152.796Z" fill="#0A3D76"/>
<path d="M213.947 149.892C213.693 151.161 211.886 150.949 209.867 150.448C207.847 149.946 208.328 150.542 205.453 150.223C202.579 149.903 201.706 148.833 201.621 148.404C201.543 148.025 202.963 147.891 204.486 147.709C204.677 147.688 204.87 147.665 205.063 147.641C206.783 147.424 208.042 146.314 209.604 145.401C211.084 144.537 213.292 141.016 213.292 141.016L217.232 141.329C217.232 141.329 215.164 144.473 214.365 145.84C213.894 146.645 213.919 147.708 213.978 148.53C214.029 148.984 214.019 149.442 213.947 149.892Z" fill="#FFCFAE"/>
<path d="M209.867 150.448C207.847 149.955 208.328 150.543 205.453 150.223C202.579 149.903 201.706 148.834 201.621 148.404C201.543 148.025 202.963 147.891 204.486 147.709L204.501 147.739C205.732 148.53 207.154 148.973 208.616 149.02C210.559 149.067 212.631 148.508 213.978 148.531C214.028 148.98 214.018 149.433 213.947 149.88C213.699 151.155 211.886 150.944 209.867 150.448Z" fill="#0A3D76"/>
<path d="M233.549 120.717L235.63 145.897C236.473 146.072 237.34 146.107 238.195 145.999C239.379 145.818 240.801 145.127 240.801 145.127C240.801 145.127 242.588 122.572 239.354 117.542C236.121 112.513 233.549 120.717 233.549 120.717Z" fill="#052C57"/>
<path d="M260.706 115.078C260.706 115.078 241.235 107.969 235.792 109.727C230.348 111.484 211.007 143.204 211.007 143.204C211.007 143.204 211.376 143.696 212.382 144.074C213.319 144.426 215.586 144.404 215.586 144.404C215.586 144.404 229.198 131.382 230.954 127.69C232.71 123.998 235.44 119.284 237.196 119.637C240.629 121.043 258.262 119.325 261.682 121.199C261.847 121.078 262.008 120.951 262.164 120.817C266.905 115.893 265.259 113.252 265.259 113.252L260.706 115.078Z" fill="#0A3D76"/>
<path d="M262.459 101.006C263.195 97.9146 263.559 91.7753 260.944 86.808C258.571 82.3075 254.896 78.9792 254.674 79.1112C255.142 82.5513 251.421 89.0164 250.522 88.9555C248.935 88.8479 249.062 79.4133 249.062 79.4133C249.062 79.4133 244.947 79.7765 243.344 82.5513C241.124 86.3862 239.329 98.9657 236.946 98.7962C235.853 98.717 227.61 99.2659 227.61 99.2659C227.61 99.2659 227.015 98.897 227.366 101.006C227.366 101.006 227.826 98.683 232.421 101.006C234.851 102.236 237.786 103.72 238.819 103.482C240.912 102.989 242.205 100.191 243.972 97.3318L245.685 93.4854C247.939 106.268 245.476 109.785 247.028 111.132C248.667 112.555 248.336 110.775 253.487 113.01C256.866 114.478 259.85 116.391 263.006 116.759C264.662 116.954 265.101 116.786 265.503 115.666C266.676 112.413 261.056 106.9 262.459 101.006Z" fill="#699DEE"/>
<path d="M252.395 110.347C258.079 109.017 261.276 108.239 268.157 104.196L263.756 100.916C263.284 101.384 253.196 106.216 252.572 107.232C251.947 108.248 252.395 110.347 252.395 110.347Z" fill="#4A75CB"/>
<path d="M265.575 115.339C265.365 116.593 264.722 116.915 263.859 116.697C262.721 115.631 261.759 112.163 260.448 108.883C259.511 106.54 258.802 107.64 258.193 102.565C257.702 98.4914 262.242 90.9159 262.97 89.2686C264.333 94.8296 263.353 93.7737 262.97 97.2348C262.241 103.833 266.185 111.697 265.575 115.339Z" fill="#4A75CB"/>
<path d="M252.318 107.8L252.154 107.329C251.508 107.555 250.563 107.431 250.362 107.443L248.17 107.627C247.662 107.658 247.191 107.905 246.877 108.306L244.061 111.906C244.195 112.308 244.72 112.607 245.824 111.159L244.604 112.577C244.647 112.909 244.977 113.097 245.894 112.079C245.63 112.453 245.453 112.733 245.483 112.773L245.485 112.776C245.58 112.905 245.941 113.608 248.62 110.295C248.83 110.162 248.954 110.207 247.983 112.604C247.98 113.103 248.383 113.641 249.809 110.649C250.502 110.594 251.875 110.07 252.418 109.345L252.878 108.932C252.423 107.906 252.468 108.158 252.318 107.8Z" fill="#FFCFAE"/>
<path d="M245.824 111.159C244.72 112.607 244.195 112.308 244.061 111.906L246.877 108.306C247.191 107.905 247.662 107.658 248.17 107.627L250.362 107.443C250.563 107.431 251.508 107.555 252.154 107.329L252.318 107.8C252.468 108.158 252.423 107.906 252.878 108.932L252.418 109.345C251.875 110.07 250.502 110.594 249.809 110.649C248.383 113.641 247.98 113.103 247.983 112.604C248.954 110.207 248.83 110.162 248.62 110.295C245.941 113.608 245.58 112.905 245.485 112.776L245.483 112.773C245.453 112.733 245.63 112.453 245.894 112.079M245.824 111.159C246.011 110.914 246.682 110.583 246.903 110.23L245.824 111.159ZM245.824 111.159L244.604 112.577C244.647 112.909 244.977 113.097 245.894 112.079M245.894 112.079C246.256 111.676 247.231 111.339 247.794 110.495C247.416 110.979 246.294 111.51 245.894 112.079Z" stroke="#F5C5A5" stroke-width="0.2"/>
<path d="M245.599 93.6394C244.342 96.7575 241.944 102.101 239.965 102.943C238.988 103.358 236.679 102.883 234.075 102.084C235.901 102.235 237.596 101.93 239.219 101.48C240.977 100.999 241.119 98.7145 243.378 94.9357C244.845 92.4905 245.388 92.9511 245.599 93.6394Z" fill="#4A75CB"/>
<path d="M249.888 110.042C250.049 109.614 251.694 109.388 252.496 109.328C252.175 110.042 250.49 110.459 249.688 110.578L249.888 110.042Z" fill="#F5C5A5"/>
<path d="M251.865 107.922C250.617 108.026 248.12 108.234 247.964 108.546C247.965 108.234 248.62 107.922 251.865 107.922Z" fill="#EEBE9E"/>
<path d="M254.674 78.9551C254.674 78.9551 261.591 80.231 263.694 83.1725C266.213 86.689 268.909 96.7684 268.805 102.096C268.775 103.59 267.651 104.708 266.242 105.207L252.333 110.132C252.333 110.132 252.333 109.194 251.709 107.32C252.334 106.304 263.222 101.168 263.694 100.7C264.166 100.232 260.821 91.6113 260.821 90.2052C260.821 88.7991 254.674 78.9551 254.674 78.9551Z" fill="#699DEE"/>
<path d="M253.963 113.244H234.086V111.787H253.963C254.156 111.787 254.342 111.864 254.478 112.001C254.615 112.137 254.692 112.322 254.692 112.516C254.692 112.709 254.615 112.894 254.478 113.031C254.342 113.168 254.156 113.244 253.963 113.244Z" fill="#EDF5FF"/>
<path d="M248.529 113.244H229.325C228.915 113.241 228.518 113.104 228.195 112.853C227.872 112.603 227.64 112.252 227.535 111.857L224.153 99.1089C224.079 98.8322 224.07 98.5424 224.126 98.2617C224.183 97.9811 224.303 97.7171 224.477 97.4902C224.652 97.2634 224.877 97.0797 225.134 96.9534C225.391 96.827 225.673 96.7615 225.96 96.7617H242.694C243.107 96.7609 243.508 96.8971 243.835 97.149C244.162 97.4009 244.396 97.7542 244.501 98.1534L248.529 113.244Z" fill="#EDF5FF"/>
<path d="M225.96 96.7661C225.674 96.766 225.392 96.8316 225.136 96.9576C224.879 97.0837 224.655 97.267 224.48 97.4933C224.306 97.7196 224.186 97.983 224.129 98.2631C224.072 98.5432 224.081 98.8326 224.153 99.1089L227.536 111.857C227.639 112.238 227.859 112.576 228.165 112.825L239.801 96.7661H225.96Z" fill="url(#paint15_linear)"/>
<path d="M237.22 106.133C237.279 106.312 237.294 106.503 237.262 106.689C237.23 106.874 237.153 107.049 237.037 107.198C236.921 107.347 236.771 107.465 236.599 107.542C236.427 107.618 236.238 107.652 236.05 107.639C235.612 107.621 235.191 107.467 234.845 107.196C234.5 106.926 234.248 106.554 234.126 106.133C234.068 105.955 234.054 105.764 234.087 105.579C234.119 105.394 234.196 105.22 234.312 105.071C234.427 104.923 234.577 104.805 234.748 104.728C234.92 104.65 235.108 104.616 235.295 104.628C235.733 104.646 236.155 104.801 236.5 105.071C236.845 105.341 237.097 105.713 237.22 106.133Z" fill="#0A3D76"/>
<g filter="url(#filter7_d)">
<path d="M81.2586 189.979C80.5381 189.261 80.9704 185.23 80.9704 185.23C80.9704 185.23 84.0763 182.018 84.5863 184.668C85.0963 187.319 88.7103 188.26 90.4257 188.585C91.5697 188.802 91.9506 189.523 92.0771 189.979H81.2586Z" fill="#16233D"/>
<path d="M105.323 189.979C104.544 189.261 105.011 185.23 105.011 185.23C105.011 185.23 108.532 182.018 109.085 184.668C109.637 187.319 113.395 188.268 115.256 188.585C116.496 188.802 116.907 189.523 117.044 189.979H105.323Z" fill="#16233D"/>
<path d="M108.461 120.626L109.553 185.282H104.56C104.56 185.282 100.946 169.048 100.946 157.023L99.0234 145.273L97.0694 135.309L85.522 185.282H80.9978C80.9978 185.282 79.1107 168.346 83.8114 156.072L85.6207 120.825L108.461 120.626Z" fill="#0A3D76"/>
<path d="M97.0693 135.464L99.8781 126.561L100.981 157.165L97.0693 135.464Z" fill="#032953"/>
<path d="M96.3356 86.084C96.3356 86.084 95.0454 87.377 93.0234 86.3205V90.0288L97.3794 89.6503L96.3356 86.084Z" fill="#778FBB"/>
<path d="M85.5727 121.033C100.204 125.593 108.892 120.816 108.462 120.314C106.419 112.34 105.535 96.9673 105.535 96.9673C104.662 101.051 104.169 102.633 105.15 106.515C105.446 107.69 106.068 110.108 107.111 110.72L117.46 114.399C117.46 114.399 122.893 113.246 122.235 112.717C121.577 112.189 110.993 107.004 110.993 107.004C110.943 104.279 110.038 95.987 110.038 95.987C109.136 88.8175 105.737 87.1487 104.9 86.8438C104.727 86.7807 104.554 86.7124 104.376 86.6415C101.919 85.606 99.8653 85.472 97.1379 85.4062C95.0399 86.6756 81.9346 83.294 80.4011 88.058L85.5727 121.033Z" fill="#699DEE"/>
<path d="M99.2095 85.417C99.2095 85.417 97.8002 88.3148 98.0074 88.4488C96.603 90.4794 93.6381 90.948 88.6445 86.7306L86.9281 85.417" fill="#A9C3EA"/>
<path d="M94.0757 89.8539V89.2722L96.2262 89.0674L96.4475 89.6978C96.5641 89.8231 94.8292 90.1362 94.0757 89.8539Z" fill="#C43B55"/>
<path d="M96.0892 86.0843L93.2595 86.3209C90.9832 86.3209 89.0084 85.585 89.0084 84.1448V78.5942H97.2483V84.1448C97.2483 85.5771 98.3655 86.0843 96.0892 86.0843Z" fill="#FFCFAE"/>
<path d="M89.003 78.7446C89.003 78.7446 89.3083 82.304 92.4239 82.283C96.4415 82.2383 97.5552 80.2285 97.5552 80.2285C96.3817 81.1135 95.0328 80.2978 93.5642 80.3016C90.8236 80.2911 89.003 78.7446 89.003 78.7446Z" fill="#EAAB85"/>
<path d="M101.634 61.7193C100.929 60.8441 101.417 61.4249 100.37 60.3448C99.6963 59.6457 97.9865 60.0557 96.6988 59.4512C91.2414 56.9072 88.3672 62.3132 88.3672 62.3132C86.8959 62.1529 85.6738 62.6706 84.9736 64.0872C84.318 65.4144 84.9736 67.9137 85.1598 68.7836L86.3557 74.3026L87.4047 69.0464C88.438 65.5957 90.0062 64.1897 90.0062 64.1897L94.989 63.785L100.273 73.798L101.482 68.0766C101.613 67.3276 102.379 65.8717 102.337 65.1095C102.314 64.668 101.797 61.9243 101.634 61.7193Z" fill="#202020"/>
<path d="M98.8388 73.1899C98.8388 73.1899 99.9968 70.5291 100.813 71.5668C101.78 72.8041 101.234 73.8392 100.212 75.425C100.212 75.425 99.3345 76.7554 98.8432 76.2232C98.8388 76.2312 98.7708 74.1398 98.8388 73.1899Z" fill="#F9C8A3"/>
<path d="M87.1938 73.1191C87.1938 73.1191 85.5365 70.7407 84.7496 71.8641C83.8141 73.1974 84.5661 74.1081 85.9306 75.4749C85.9306 75.4749 87.0941 76.606 87.5833 76.0327C87.5868 76.04 87.3907 74.0188 87.1938 73.1191Z" fill="#FFCFAE"/>
<path d="M100.633 69.4067C100.633 71.4198 100.436 75.6327 99.2011 78.132C98.042 80.4789 97.1057 81.6448 94.5907 81.7131C92.0757 81.7815 90.4857 80.5717 88.091 77.8323C86.4946 75.4354 86.2906 69.4382 86.2906 69.4382C86.2906 69.4382 86.2906 62.2451 93.3713 62.2451C100.864 62.253 100.633 69.4067 100.633 69.4067Z" fill="#FFCFAE"/>
<path d="M87.2259 73.1209C86.2399 72.9843 84.0055 64.4193 88.6054 63.1709L93.8504 61.5757C93.8504 61.5757 99.8008 63.2393 99.987 63.1631C100.173 63.0868 101.204 65.757 101.204 65.757C101.204 65.757 102.153 70.4876 99.6487 67.1551C99.0114 66.3089 98.0175 65.9042 96.9711 65.7517C92.5129 65.0973 88.8597 65.7149 88.6762 67.7727C88.3929 70.9764 87.2994 73.1288 87.2259 73.1209Z" fill="#202020"/>
<path d="M86.7954 67.0025L86.9843 72.7607C86.9851 72.7752 86.9812 72.7896 86.973 72.8016C86.9648 72.8136 86.9529 72.8226 86.9391 72.8271C86.9253 72.8316 86.9104 72.8314 86.8968 72.8265C86.8831 72.8216 86.8715 72.8123 86.8636 72.8001L86.0218 71.5964L85.3557 66.6924L86.7954 67.0025Z" fill="#202020"/>
<path d="M95.5028 72.5825C95.5108 73.8847 95.9629 74.5284 96.4502 75.6815C96.4505 75.7509 96.4372 75.8197 96.4109 75.8839C96.3138 76.1309 95.3382 76.1178 95.0812 76.0494L94.6223 76.0915" stroke="#D3A688" stroke-width="0.5" stroke-miterlimit="10"/>
<path d="M93.4788 69.9186C93.7081 69.9234 93.8984 69.7424 93.9051 69.5131C93.9121 69.2756 93.7199 69.0801 93.4823 69.083L91.6651 69.1052C91.3932 69.1048 91.1259 69.1747 90.8891 69.3082C90.5846 69.4872 90.7384 69.9549 91.0897 69.9183L91.4848 69.8771L93.4788 69.9186Z" fill="#202020"/>
<path d="M96.4888 69.8472C96.2614 69.8553 96.0727 69.6732 96.0727 69.4457C96.0727 69.2238 96.2526 69.044 96.4744 69.044H98.2158C98.479 69.043 98.7358 69.109 98.9492 69.2322C99.2403 69.4037 99.0947 69.8508 98.7585 69.8181L98.3667 69.78L96.4888 69.8472Z" fill="#202020"/>
<path d="M86.7678 73.5671C86.2906 72.5158 85.3753 72.529 85.0501 73.0756C84.7249 73.6223 85.9444 75.3095 86.6053 75.1413C87.135 75.0099 87.0537 74.2057 86.7678 73.5671Z" fill="#EAAB85"/>
<path d="M86.8883 74.3737C86.6654 73.6746 86.0859 73.6273 85.8393 73.9558C85.5928 74.2844 86.2406 75.4223 86.6838 75.3566C87.0378 75.3014 87.03 74.8021 86.8883 74.3737Z" fill="#FFCFAE"/>
<path d="M93.1545 77.5429C93.1545 77.5429 95.2892 78.2439 97.3164 77.4326" stroke="#B96665" stroke-width="0.64" stroke-linecap="round" stroke-linejoin="round"/>
<path d="M93.2588 86.3212L93.1382 90.1135L86.7719 85.3249L88.9946 82.5288C88.9946 82.5288 90.8592 85.7246 93.2588 86.3212Z" fill="#D6E4FD"/>
<path d="M96.123 86.103L96.2227 89.0964L94.0722 89.3014L93.2592 86.3316C93.2592 86.3316 95.1107 85.8822 96.123 86.103Z" fill="#C43B55"/>
<path d="M97.4419 89.7827L96.0887 86.1033C97.1377 85.2597 97.2662 83.8169 97.2662 83.8169L99.2095 85.4358L97.4419 89.7827Z" fill="#D6E4FD"/>
<path d="M93.2592 86.3213L94.0722 89.291L96.2227 89.086C96.2227 89.086 94.6937 89.1123 94.4131 88.8232C94.1325 88.5341 93.2592 86.3213 93.2592 86.3213Z" fill="#A62E41"/>
<path d="M87.8652 99.8513C90.2059 97.8206 109.4 91.104 109.4 91.104L112.053 104.225L101.129 112.035L89.738 112.972L87.8652 99.8513Z" fill="#457ED6"/>
<path d="M110.088 100.427L93.7287 94.0933L94.7043 113.801L111.05 120.127L110.088 100.427Z" fill="#053866"/>
<path d="M125.899 94.4338L109.519 88.1001L110.471 107.758L126.835 114.113L125.899 94.4338Z" fill="#102E5B"/>
<path d="M110.088 100.427L125.899 94.4346L126.864 114.093L111.051 120.127L110.088 100.427Z" fill="#054270"/>
<path d="M93.729 94.0922L109.519 88.1001L110.474 107.714L94.7045 113.8L93.729 94.0922Z" fill="#0A2D49"/>
<path d="M110.088 100.427L93.7287 94.0933L94.7043 113.794L111.05 120.127L110.088 100.427Z" fill="#053866"/>
<path d="M97.8198 95.7174L93.7287 94.0933L93.9778 99.0446L98.061 100.635L97.8198 95.7174Z" fill="#053866"/>
<path d="M96.5585 98.387C97.3846 97.7957 97.7491 97.0178 97.6809 95.6433L97.1879 95.4409C97.2482 96.6577 96.8312 97.483 96.1389 97.9823C95.5567 98.3975 94.7699 98.4475 93.9307 98.1216L93.9675 98.6472C94.308 98.7894 94.6738 98.861 95.0427 98.8574C95.5836 98.8567 96.1118 98.6928 96.5585 98.387Z" fill="#B9D5FD"/>
<path d="M101.903 97.3068L97.8195 95.7168L98.0608 100.634L102.144 102.224L101.903 97.3068Z" fill="#0E2951"/>
<path d="M105.985 98.8976L101.902 97.3076L102.143 102.225L106.227 103.815L105.985 98.8976Z" fill="#709FDC"/>
<path d="M110.088 100.427L105.987 98.897L106.228 103.814L110.311 105.383L110.088 100.427Z" fill="#6780B3"/>
<path d="M98.0615 100.635L93.9782 99.0449L94.2221 103.965L98.3027 105.555L98.0615 100.635Z" fill="#B9D5FD"/>
<path d="M102.144 102.225L98.0608 100.635L98.302 105.555L102.385 107.145L102.144 102.225Z" fill="#274684"/>
<path d="M106.227 103.814L102.144 102.224L102.386 107.144L106.469 108.734L106.227 103.814Z" fill="#3D95D1"/>
<path d="M110.31 105.383L106.227 103.814L106.468 108.734L110.551 110.3L110.31 105.383Z" fill="#B9D5FD"/>
<path d="M102.385 107.144L98.3018 105.554L98.5457 110.471L102.629 112.061L102.385 107.144Z" fill="#B9D5FD"/>
<path d="M106.468 108.735L102.385 107.145L102.629 112.062L106.709 113.652L106.468 108.735Z" fill="#0E2951"/>
<path d="M110.553 110.301L106.469 108.734L106.711 113.652L110.794 115.221L110.553 110.301Z" fill="#709FDC"/>
<path d="M98.5453 110.471L94.4621 108.876L94.7034 113.793L98.7866 115.391L98.5453 110.471Z" fill="#6780B3"/>
<path d="M102.629 112.062L98.5461 110.472L98.7874 115.391L102.871 116.981L102.629 112.062Z" fill="#053866"/>
<path d="M106.709 113.652L102.629 112.062L102.87 116.982L106.953 118.572L106.709 113.652Z" fill="#B9D5FD"/>
<path d="M110.793 115.22L106.71 113.651L106.954 118.571L111.05 120.127L110.793 115.22Z" fill="#3D95D1"/>
<path d="M95.8761 97.4937C96.5134 97.0391 96.8543 96.3978 96.8019 95.344L96.3088 95.1416C96.3508 95.9984 96.0885 96.6133 95.5221 97.0049C95.271 97.1357 94.9946 97.21 94.712 97.2227C94.4293 97.2354 94.1473 97.1862 93.8856 97.0785L93.9171 97.6698C94.1775 97.7806 94.4577 97.837 94.7406 97.8354C95.1455 97.8437 95.5427 97.7242 95.8761 97.4937Z" fill="#3D95D1"/>
<path d="M95.1791 96.4554C95.6276 96.1427 95.8452 95.667 95.8085 94.939L95.3155 94.7393C95.3417 95.2649 95.2735 95.5067 94.9824 95.8141C94.8248 95.9467 94.6341 96.0339 94.4309 96.0663C94.2277 96.0987 94.0194 96.0751 93.8285 95.9981L93.8574 96.5868C94.0696 96.6758 94.3007 96.7104 94.5296 96.6875C94.7585 96.6645 94.9782 96.5848 95.1686 96.4554H95.1791Z" fill="#3376B3"/>
<path d="M94.5467 95.4173C94.681 95.3167 94.7863 95.1822 94.8517 95.0275C94.9171 94.8728 94.9404 94.7035 94.9191 94.5368L94.3264 94.3345C94.4392 94.6288 94.4497 94.8259 94.2609 94.9232C94.102 94.9666 93.9345 94.9666 93.7757 94.9232L93.8045 95.5119C93.8863 95.5507 93.9764 95.5688 94.0668 95.5644C94.2382 95.5668 94.406 95.5153 94.5467 95.4173Z" fill="#709FDC"/>
<path d="M110.594 113.883L107.759 112.787L107.405 105.547L110.337 106.698L110.303 106.012L106.781 104.69L107.201 113.189L110.657 114.532L110.594 113.883Z" fill="#274684"/>
<path d="M110.695 113.979L107.76 112.786L107.577 109.057L106.987 108.854L107.202 113.188L110.729 114.668L110.695 113.979Z" fill="#0E2951"/>
<path d="M110.634 112.703L108.683 111.988L108.439 107.01L110.39 107.786L110.356 107.097L107.817 106.151L108.119 112.287L110.594 113.255L110.634 112.703Z" fill="#274684"/>
<path d="M110.573 111.518L109.684 111.121L109.568 108.8L110.457 109.16L110.423 108.472L108.947 107.943L109.123 111.525L110.536 112.075L110.573 111.518Z" fill="#274684"/>
<path d="M110.57 111.42L109.684 111.12L109.621 109.848L109.031 109.646L109.122 111.525L110.602 112.109L110.57 111.42Z" fill="#0E2951"/>
<path d="M110.634 112.703L108.682 111.988L108.559 109.439L107.966 109.236L108.121 112.387L110.665 113.391L110.634 112.703Z" fill="#0E2951"/>
<path d="M97.6221 111.268L94.5197 110.062L94.7032 113.794L97.8057 115.008L97.6221 111.268Z" fill="#053866"/>
<path d="M96.6264 112.135L94.5835 111.339L94.7041 113.794L96.7471 114.592L96.6264 112.135Z" fill="#709FDC"/>
<path d="M103.405 97.9121L102.073 100.425L104.729 103.21L106.059 100.698L103.405 97.9121Z" fill="#0E2951"/>
<path d="M103.727 99.2104L103.048 100.496L104.401 101.912L105.081 100.632L103.727 99.2104Z" fill="#6780B3"/>
<path d="M106.759 114.634L102.676 113.044L102.87 116.981L106.953 118.571L106.759 114.634Z" fill="#3D95D1"/>
<path d="M106.812 115.715L102.728 114.125L102.87 116.981L106.953 118.571L106.812 115.715Z" fill="#6780B3"/>
<path d="M106.867 116.803L102.781 115.208L102.87 116.981L106.953 118.571L106.867 116.803Z" fill="#053866"/>
<path d="M106.909 117.686L102.825 116.096L102.87 116.981L106.953 118.571L106.909 117.686Z" fill="#0E2951"/>
<path d="M102.338 106.161L98.2551 104.571L102.202 103.399L98.1188 101.809L102.338 106.161Z" fill="#0E2951"/>
<path d="M94.4736 99.2473L93.9779 99.0449L94.2218 103.965L94.7148 104.164L94.4736 99.2473Z" fill="#709FDC"/>
<path d="M95.26 99.549L94.767 99.3467L95.0083 104.266L95.5039 104.469L95.26 99.549Z" fill="#709FDC"/>
<path d="M97.8325 100.561L97.3394 100.359L97.5807 105.279L98.0737 105.481L97.8325 100.561Z" fill="#709FDC"/>
<path d="M96.9692 100.199L96.3791 99.9937L96.6204 104.908L97.2104 105.111L96.9692 100.199Z" fill="#709FDC"/>
<path d="M96.0488 99.8537L95.5557 99.6514L95.797 104.571L96.29 104.771L96.0488 99.8537Z" fill="#709FDC"/>
<path d="M98.3025 105.555L94.2219 103.965L94.4632 108.877L98.5464 110.472L98.3025 105.555Z" fill="#0E2951"/>
<path d="M98.4258 108.009L96.3855 107.218L96.5061 109.676L98.5464 110.472L98.4258 108.009Z" fill="#3D95D1"/>
<path d="M96.2641 104.756L94.2212 103.965L94.3392 106.419L96.3848 107.218L96.2641 104.756Z" fill="#3D95D1"/>
<path d="M102.283 112.359L98.9342 111.055L99.1309 115.089L102.482 116.398L102.325 113.215L99.6003 112.154L99.7209 114.587L101.819 115.41L101.735 113.704L100.266 113.131L100.314 114.104L101.153 114.43" stroke="#3D95D1" stroke-width="2" stroke-miterlimit="10"/>
<path d="M110.252 115.612L107.658 118.266" stroke="#0E2951" stroke-width="4" stroke-miterlimit="10"/>
<path d="M107.475 114.529L110.436 119.346" stroke="#0E2951" stroke-width="4" stroke-miterlimit="10"/>
<path d="M103.904 108.7L103.251 108.445L103.29 109.234L103.943 109.486L103.904 108.7Z" fill="#B9D5FD"/>
<path d="M104.856 110.129L104.203 109.875L104.242 110.66L104.895 110.92L104.856 110.129Z" fill="#B9D5FD"/>
<path d="M105.806 111.562L105.153 111.31L105.193 112.095L105.846 112.348L105.806 111.562Z" fill="#B9D5FD"/>
<path d="M111.05 120.127L126.872 114.114L125.899 94.4346L110.088 100.427L111.05 120.127Z" fill="#053866"/>
<path d="M122.665 110.695L126.63 109.197L126.389 104.277L122.424 105.783L122.665 110.695Z" fill="#B9D5FD"/>
<path d="M118.707 112.201L122.665 110.695L122.423 105.783L118.466 107.281L118.707 112.201Z" fill="#274684"/>
<path d="M114.75 113.698L118.708 112.2L118.466 107.28L114.509 108.781L114.75 113.698Z" fill="#053866"/>
<path d="M110.794 115.22L114.751 113.698L114.51 108.781L110.552 110.3L110.794 115.22Z" fill="#B9D5FD"/>
<path d="M118.467 107.281L122.424 105.783L122.183 100.863L118.226 102.363L118.467 107.281Z" fill="#B9D5FD"/>
<path d="M114.51 108.782L118.468 107.281L118.227 102.364L114.269 103.862L114.51 108.782Z" fill="#0E2951"/>
<path d="M110.551 110.301L114.508 108.782L114.267 103.862L110.31 105.383L110.551 110.301Z" fill="#709FDC"/>
<path d="M118.949 117.118L122.909 115.615L122.665 110.695L118.708 112.201L118.949 117.118Z" fill="#0E2951"/>
<path d="M114.992 118.619L118.949 117.118L118.708 112.201L114.751 113.699L114.992 118.619Z" fill="#709FDC"/>
<path d="M111.05 120.127L114.991 118.619L114.75 113.699L110.793 115.22L111.05 120.127Z" fill="#6780B3"/>
<path d="M122.181 100.863L126.144 99.3596L125.898 94.4346L121.94 95.9457L122.181 100.863Z" fill="#6780B3"/>
<path d="M118.225 102.363L122.183 100.862L121.941 95.9453L117.984 97.4433L118.225 102.363Z" fill="#053866"/>
<path d="M114.268 103.862L118.226 102.364L117.984 97.4438L114.024 98.9445L114.268 103.862Z" fill="#B9D5FD"/>
<path d="M110.311 105.384L114.268 103.862L114.024 98.9448L110.088 100.427L110.311 105.384Z" fill="#3D95D1"/>
<path d="M114.211 113.223L113.794 104.724L110.244 106.07L110.474 106.624L113.254 105.57L113.611 112.808L110.695 113.98L110.729 114.669L114.211 113.223Z" fill="#274684"/>
<path d="M113.793 104.724L110.303 106.012L110.337 106.698L113.253 105.57L113.437 109.276L114.008 109.087L113.793 104.724Z" fill="#0E2951"/>
<path d="M113.199 112.306L112.908 106.361L110.356 107.097L110.39 107.785L112.36 107.01L112.598 111.89L110.634 112.702L110.665 113.391L113.199 112.306Z" fill="#274684"/>
<path d="M112.111 111.515L111.933 107.933L110.362 108.532L110.592 109.087L111.395 108.779L111.508 111.097L110.569 111.421L110.6 112.109L112.111 111.515Z" fill="#274684"/>
<path d="M111.935 107.933L110.424 108.472L110.458 109.16L111.397 108.779L111.452 109.925L112.024 109.736L111.935 107.933Z" fill="#0E2951"/>
<path d="M112.896 106.167L110.355 107.097L110.389 107.785L112.358 107.01L112.487 109.636L113.059 109.446L112.896 106.167Z" fill="#0E2951"/>
<path d="M124.047 97.6487L126.024 96.9024L125.899 94.4346L123.926 95.1915L124.047 97.6487Z" fill="#FF8098"/>
<path d="M117.499 117.649L118.781 114.011L116.209 113.17L114.918 116.805L117.499 117.649Z" fill="#0E2951"/>
<path d="M117.181 116.552L117.837 114.694L116.52 114.263L115.87 116.124L117.181 116.552Z" fill="#6780B3"/>
<path d="M114.218 102.879L118.176 101.381L117.984 97.4438L114.024 98.9445L114.218 102.879Z" fill="#3D95D1"/>
<path d="M114.166 101.799L118.123 100.298L117.984 97.4438L114.024 98.9445L114.166 101.799Z" fill="#6780B3"/>
<path d="M114.114 100.718L118.071 99.2126L117.985 97.4438L114.025 98.9445L114.114 100.718Z" fill="#053866"/>
<path d="M114.068 99.8328L118.025 98.3295L117.983 97.4438L114.023 98.9445L114.068 99.8328Z" fill="#0E2951"/>
<path d="M118.516 108.263L122.473 106.763L118.65 111.02L122.61 109.52" fill="#0E2951"/>
<path d="M126.392 104.227L125.82 104.418L126.067 109.435L126.639 109.244L126.392 104.227Z" fill="#709FDC"/>
<path d="M125.644 104.574L125.073 104.763L125.317 109.683L125.886 109.494L125.644 104.574Z" fill="#709FDC"/>
<path d="M123.252 105.471L122.683 105.66L122.935 110.585L123.512 110.393L123.252 105.471Z" fill="#709FDC"/>
<path d="M124.061 105.173L123.486 105.363L123.728 110.282L124.305 110.093L124.061 105.173Z" fill="#709FDC"/>
<path d="M124.852 104.876L124.277 105.065L124.518 109.985L125.093 109.796L124.852 104.876Z" fill="#709FDC"/>
<path d="M122.425 105.783L126.39 104.277L126.146 99.3599L122.184 100.863L122.425 105.783Z" fill="#0E2951"/>
<path d="M122.909 115.615L126.872 114.114L126.63 109.197L122.665 110.695L122.909 115.615Z" fill="#053866"/>
<path d="M122.303 103.32L124.289 102.569L124.168 100.111L122.183 100.863L122.303 103.32Z" fill="#3D95D1"/>
<path d="M126.673 109.933L126.647 109.442C124.549 110.243 122.813 112.246 122.975 115.594L123.463 115.402C123.34 113.142 124.774 110.653 126.673 109.933Z" fill="#B9D5FD"/>
<path d="M126.729 110.992L126.701 110.403C125.111 111.008 123.816 112.853 123.931 115.21L124.511 115.024C124.416 113.292 125.34 111.518 126.729 110.992Z" fill="#3D95D1"/>
<path d="M126.776 112.096L126.74 111.534C125.657 111.946 124.904 113.355 124.975 114.829L125.499 114.64C125.457 113.576 125.932 112.419 126.776 112.096Z" fill="#3376B3"/>
<path d="M126.835 113.279L126.796 112.659C126.203 112.879 125.792 113.655 125.925 114.443L126.4 114.251C126.377 113.781 126.46 113.418 126.835 113.279Z" fill="#709FDC"/>
<path d="M118.622 101.686L121.74 100.498L121.551 96.6216L118.43 97.8042L118.582 100.861L121.116 99.8962L121 97.5598L119.052 98.3036L119.133 99.9356L120.494 99.4153L120.449 98.4823L119.673 98.7793" stroke="#3D95D1" stroke-width="2" stroke-miterlimit="10"/>
<path d="M110.834 104.566L113.341 99.8037" stroke="#0E2951" stroke-width="4" stroke-miterlimit="10"/>
<path d="M113.525 103.544L110.651 100.826" stroke="#0E2951" stroke-width="4" stroke-miterlimit="10"/>
<path d="M116.992 106.839L117.626 106.595L117.587 105.809L116.955 106.048L116.992 106.839Z" fill="#B9D5FD"/>
<path d="M116.068 106.088L116.7 105.843L116.663 105.058L116.029 105.299L116.068 106.088Z" fill="#B9D5FD"/>
<path d="M115.145 105.333L115.777 105.097L115.738 104.303L115.106 104.548L115.145 105.333Z" fill="#B9D5FD"/>
<path d="M123.079 99.3176L126.087 98.1796L125.899 94.4346L122.896 95.583L123.079 99.3176Z" fill="#053866"/>
<path d="M123.838 98.0062L126.041 97.1704L125.899 94.4346L123.704 95.2703L123.838 98.0062Z" fill="#709FDC"/>
<path d="M124.41 105.029L126.39 104.277L126.27 101.82L124.29 102.569L124.41 105.029Z" fill="#3D95D1"/>
<path d="M103.246 90.4943L109.519 88.1001L125.899 94.4338L119.44 96.7781L103.246 90.4943Z" fill="#165B93"/>
<path d="M101.811 91.0366L93.639 94.1246L110.019 100.448L118.178 97.3703L101.811 91.0366Z" fill="#165B93"/>
<path d="M102.414 93.499L93.7332 94.0772L109.51 88.1114L118.209 87.5122L102.414 93.499Z" fill="#9CCEF7"/>
<path d="M110.126 100.453L103.785 94.353L119.596 88.3662L125.908 94.4397L110.126 100.453Z" fill="#9CCEF7"/>
<path d="M106.077 115.29C104.214 114.8 103.111 115.05 103.111 115.05L99.5685 113.786L97.6708 115.945L98.8843 116.435L99.5685 116.768H100.158C100.158 116.768 100.252 116.625 100.416 116.832C100.581 117.038 102.094 117.62 102.094 117.62C102.094 117.759 104.623 120.531 105.112 120.687C105.601 120.843 106.013 120.802 106.08 120.761C106.331 120.874 106.616 120.894 106.881 120.816C107.359 120.764 107.84 120.741 108.321 120.746L109.693 120.687C110.668 120.554 110.192 120.3 110.192 120.3C109.934 120.198 109.664 120.132 109.389 120.103C110.213 120.157 110.932 120.097 110.777 119.864C110.52 119.477 109.081 119.289 109.081 119.289C109.081 119.289 108.148 119.223 107.819 119.062C107.391 118.421 107.067 118.218 106.833 117.62C106.437 116.61 106.227 116.435 106.227 116.435C106.227 116.435 108.356 117.28 109.286 116.832C109.934 116.39 108.911 116.21 107.797 115.945C107.038 115.642 106.077 115.29 106.077 115.29Z" fill="#FFCFAE"/>
<g filter="url(#filter8_f)">
<path d="M105.354 118.741C105.683 119.222 106.702 120.376 106.833 120.504C106.965 120.632 107.491 120.728 107.984 120.728C108.805 120.707 110.284 120.685 110.284 120.504C110.285 120.344 110.449 120.344 109.791 120.183" stroke="#D3A688" stroke-width="0.2" stroke-linecap="round"/>
</g>
<g filter="url(#filter9_f)">
<path d="M106.119 118.49C106.448 118.97 107.175 119.735 107.306 119.863C107.437 119.992 107.963 120.088 108.456 120.088C109.278 120.066 110.555 120.178 110.783 119.95" stroke="#D3A688" stroke-width="0.2" stroke-linecap="round"/>
</g>
<g filter="url(#filter10_f)">
<path d="M107.49 120.728C106.997 120.728 106.504 120.985 106.011 120.664C105.856 120.564 104.86 119.543 104.532 119.062" stroke="#D3A688" stroke-width="0.2" stroke-linecap="round"/>
</g>
<path d="M83.2537 86.5742C80.369 86.9264 78.3732 89.0919 79.1311 96.2036C79.7553 102.08 82.6138 108.895 84.9006 113.023C85.1181 113.419 85.4439 113.743 85.8395 113.959C89.6815 116.062 92.5499 115.849 101.66 118.436L102.801 115.24C102.801 115.24 93.8591 112.067 89.8834 109.928C88.3719 109.112 89.4574 100.69 86.6765 92.8678C85.8918 90.6607 84.7993 88.5014 83.2537 86.5742Z" fill="#4A75CB"/>
<path d="M83.2537 86.0342C80.369 86.3863 78.3732 88.5519 79.1311 95.6635C79.7553 101.54 82.6138 108.355 84.9006 112.483C85.1181 112.879 85.4439 113.203 85.8395 113.419C89.6815 115.521 92.5499 115.309 101.66 117.895L102.801 114.7C102.801 114.7 93.8591 111.527 89.8834 109.387C88.3719 108.572 89.4574 100.15 86.6765 92.3278C85.8918 90.1207 84.7993 87.9613 83.2537 86.0342Z" fill="#699DEE"/>
<path d="M91.4683 71.2793C91.8081 71.1527 91.9192 71.1932 92.4239 71.1932C92.6546 71.22 92.8808 71.2767 93.0969 71.362C93.0969 71.362 93.6017 71.8684 93.6622 71.9342C93.7682 72.0541 93.7295 72.1891 93.5697 72.2111C93.4099 72.233 93.2332 72.1841 93.0986 72.2111C92.0622 72.3799 91.8401 72.444 91.2479 72.2111C91.0111 72.1254 90.7853 72.0121 90.5749 71.8735C90.8264 71.613 91.1312 71.4103 91.4683 71.2793Z" fill="white"/>
<path d="M92.0859 71.4561C92.4112 71.4561 92.6748 71.7203 92.6748 72.0463C92.6748 72.1313 92.6569 72.2121 92.6246 72.2851C92.1904 72.3593 91.9723 72.3576 91.558 72.3081C91.519 72.2292 91.4971 72.1403 91.4971 72.0463C91.4971 71.7203 91.7607 71.4561 92.0859 71.4561Z" fill="#28160D" stroke="#1C1105" stroke-width="0.2" stroke-miterlimit="10"/>
<path d="M92.0754 72.3678C91.9024 72.3678 91.7621 72.2275 91.7621 72.0545C91.7621 71.8815 91.9024 71.7412 92.0754 71.7412C92.2484 71.7412 92.3887 71.8815 92.3887 72.0545C92.3887 72.2275 92.2484 72.3678 92.0754 72.3678Z" fill="black"/>
<path opacity="0.77" d="M92.4226 72.0467C92.3297 72.0467 92.2543 71.9712 92.2543 71.8781C92.2543 71.785 92.3297 71.7095 92.4226 71.7095C92.5155 71.7095 92.5908 71.785 92.5908 71.8781C92.5908 71.9712 92.5155 72.0467 92.4226 72.0467Z" fill="white"/>
<path d="M93.7075 72.092L93.1068 71.4337C93.0523 71.3746 92.9823 71.3319 92.9049 71.3104L92.6576 71.2463C92.5313 71.214 92.4006 71.2025 92.2706 71.2125L91.6364 71.2632C91.5069 71.2735 91.3814 71.3134 91.2696 71.3796L90.6151 71.7763L90.4031 71.7881L91.0138 71.2362C91.1478 71.1553 91.2987 71.1067 91.4546 71.0944L92.0873 71.0437C92.2365 71.0318 92.3867 71.0455 92.5314 71.0842L92.7771 71.1484C92.9375 71.1745 93.0912 71.2319 93.2297 71.3172L93.938 72.119L93.7075 72.092Z" fill="#D3A688"/>
<path opacity="0.5" d="M93.7705 72.1179L93.1699 71.4602C93.1052 71.3894 93.0217 71.3385 92.9293 71.3135L92.6836 71.2494C92.5443 71.213 92.3998 71.2005 92.2563 71.2123L91.622 71.2629C91.479 71.2736 91.3406 71.3181 91.2182 71.3928L90.5738 71.7874" stroke="#0A0001" stroke-width="0.3" stroke-miterlimit="10"/>
<path d="M93.686 72.2052H93.4219C93.2834 72.2048 93.1452 72.2189 93.0097 72.2473C92.6814 72.2968 92.0059 72.4621 91.4147 72.2928C91.3777 72.281 91.1135 72.1428 91.0782 72.1242L90.7417 71.9556" stroke="#472A22" stroke-width="0.2" stroke-miterlimit="10"/>
<path d="M98.6304 71.2793C98.292 71.1527 98.1809 71.1932 97.6759 71.1932C97.4452 71.22 97.2188 71.2767 97.0026 71.3621C97.0026 71.3621 96.4976 71.8687 96.4387 71.9346C96.331 72.0545 96.3697 72.1896 96.5296 72.2116C96.6895 72.2335 96.8663 72.1845 97.001 72.2116C98.0379 72.3804 98.2617 72.4446 98.8526 72.2116C99.0894 72.1257 99.3153 72.0123 99.5259 71.8738C99.2733 71.6135 98.9679 71.4108 98.6304 71.2793Z" fill="white"/>
<path d="M98.0134 71.4561C98.3388 71.4561 98.6025 71.7204 98.6025 72.0466C98.6025 72.1453 98.5784 72.2383 98.5357 72.3201C98.0968 72.3685 97.8634 72.3652 97.4761 72.2892C97.4428 72.2152 97.4242 72.133 97.4242 72.0466C97.4242 71.7204 97.688 71.4561 98.0134 71.4561Z" fill="#28160D" stroke="#1C1105" stroke-width="0.2" stroke-miterlimit="10"/>
<path d="M98.0201 72.3686C97.8469 72.3686 97.7066 72.2282 97.7066 72.0551C97.7066 71.882 97.8469 71.7417 98.0201 71.7417C98.1932 71.7417 98.3335 71.882 98.3335 72.0551C98.3335 72.2282 98.1932 72.3686 98.0201 72.3686Z" fill="black"/>
<path opacity="0.77" d="M98.3507 72.0474C98.2577 72.0474 98.1824 71.9719 98.1824 71.8787C98.1824 71.7855 98.2577 71.71 98.3507 71.71C98.4437 71.71 98.519 71.7855 98.519 71.8787C98.519 71.9719 98.4437 72.0474 98.3507 72.0474Z" fill="white"/>
<path d="M96.3908 72.0925L96.9917 71.4338C97.0467 71.3743 97.1173 71.3316 97.1954 71.3105L97.4412 71.2463C97.5675 71.2141 97.6983 71.2027 97.8283 71.2126L98.4646 71.2632C98.5941 71.2738 98.7196 71.3137 98.8316 71.3798L99.4847 71.7766L99.6968 71.7885L99.0857 71.2362C98.9517 71.1553 98.8007 71.1067 98.6447 71.0944L98.0101 71.0437C97.8613 71.0318 97.7116 71.0455 97.5674 71.0842L97.32 71.1484C97.1595 71.1745 97.0057 71.2319 96.8672 71.3173L96.1619 72.1195L96.3908 72.0925Z" fill="#D3A688"/>
<path opacity="0.5" d="M96.3291 72.1181L96.93 71.4601C96.9948 71.3893 97.0782 71.3384 97.1707 71.3133L97.4165 71.2492C97.5521 71.2141 97.6926 71.2016 97.8323 71.2121L98.4669 71.2627C98.6099 71.2734 98.7483 71.3179 98.8709 71.3926L99.5273 71.7874" stroke="#0A0001" stroke-width="0.3" stroke-miterlimit="10"/>
<path d="M96.4136 72.2058H96.6779C96.817 72.2054 96.9558 72.2196 97.092 72.2479C97.5071 72.3027 98.1275 72.4803 98.6861 72.2935C98.7248 72.2817 98.9874 72.1433 99.0227 72.1248C99.149 72.0607 99.0227 72.1248 99.3594 71.9561" stroke="#472A22" stroke-width="0.2" stroke-miterlimit="10"/>
</g>
<g filter="url(#filter11_di)">
<path d="M133.766 20.8109L131.554 19.7945C131.464 19.7524 131.387 19.6865 131.333 19.6041C131.278 19.5217 131.248 19.4261 131.245 19.3277C131.238 19.0723 131.221 18.8146 131.192 18.5563C131.142 18.0843 131.054 17.6171 130.929 17.1589C130.901 17.057 130.905 16.9491 130.939 16.8491C130.974 16.7491 131.038 16.6617 131.123 16.5981L133.151 15.0724C133.256 14.9936 133.327 14.8784 133.351 14.7499C133.374 14.6213 133.347 14.4888 133.275 14.379L132.029 12.4341C131.961 12.3283 131.855 12.2509 131.733 12.2168C131.611 12.1826 131.48 12.194 131.366 12.2488L129.258 13.2691C129.157 13.3193 129.042 13.3356 128.931 13.3157C128.82 13.2957 128.719 13.2406 128.642 13.1585C127.951 12.4496 127.15 11.8535 126.269 11.3922C126.166 11.3364 126.083 11.2484 126.035 11.1417C125.987 11.035 125.976 10.9157 126.004 10.8022L126.346 9.4324C126.377 9.30571 126.36 9.1723 126.298 9.05724C126.236 8.94219 126.134 8.85339 126.01 8.80752L123.834 8.03332C123.791 8.01658 123.746 8.00614 123.699 8.00235C123.591 7.99211 123.483 8.01549 123.389 8.06923C123.295 8.12297 123.22 8.20439 123.176 8.30208L122.407 9.93397L122.221 10.3321C121.781 10.3176 121.341 10.3338 120.903 10.3808C120.32 10.4425 119.743 10.5578 119.181 10.7253C119.079 10.7567 118.97 10.7563 118.868 10.7242C118.767 10.692 118.677 10.6296 118.613 10.5456L117.37 8.93084C117.288 8.82455 117.169 8.75253 117.036 8.72907C116.903 8.70561 116.766 8.73243 116.652 8.8042L115.147 9.7443L114.716 10.0153C114.602 10.0861 114.518 10.196 114.482 10.324C114.445 10.4519 114.457 10.5887 114.517 10.7082L115.379 12.4485C115.43 12.5456 115.448 12.6561 115.43 12.764C115.413 12.8718 115.361 12.9713 115.282 13.0479C114.812 13.5187 114.395 14.0378 114.038 14.5963C114.005 14.6411 113.974 14.6876 113.946 14.7356C113.937 14.752 113.926 14.7674 113.914 14.7815C113.85 14.8648 113.763 14.9276 113.663 14.9618C113.564 14.9959 113.456 15 113.354 14.9734L111.101 14.4293C111.077 14.4224 111.051 14.4182 111.025 14.4166C110.908 14.4064 110.79 14.4345 110.69 14.4967C110.59 14.5589 110.513 14.6518 110.472 14.7611L109.684 16.9028C109.638 17.028 109.641 17.1656 109.693 17.2885C109.745 17.4114 109.842 17.5106 109.964 17.5664L112.272 18.6232C112.368 18.6661 112.448 18.7366 112.502 18.8255C112.557 18.9144 112.582 19.0174 112.576 19.1209C112.555 19.5975 112.571 20.075 112.623 20.5493C112.651 20.8052 112.689 21.0575 112.738 21.3064C112.757 21.4053 112.748 21.5076 112.712 21.6016C112.675 21.6957 112.613 21.7779 112.532 21.8389L110.583 23.3066C110.479 23.3849 110.408 23.4989 110.385 23.6262C110.362 23.7534 110.388 23.8846 110.458 23.9939L111.694 25.9167C111.766 26.0296 111.878 26.1121 112.008 26.1485C112.138 26.1848 112.277 26.1724 112.398 26.1136L114.066 25.3056C114.173 25.252 114.296 25.2356 114.414 25.259C114.532 25.2825 114.638 25.3445 114.716 25.435C115.336 26.1741 116.068 26.8138 116.887 27.3313C116.982 27.3904 117.056 27.478 117.099 27.5814C117.141 27.6849 117.149 27.7988 117.121 27.9069L116.625 29.9143C116.593 30.0443 116.611 30.1814 116.675 30.2994C116.738 30.4174 116.844 30.5081 116.971 30.5541L119.131 31.3283C119.255 31.3733 119.392 31.3703 119.515 31.32C119.637 31.2697 119.736 31.1758 119.792 31.0568L119.837 30.9617L120.729 29.0655C120.775 28.9667 120.851 28.8842 120.946 28.8291C121.041 28.7741 121.151 28.749 121.261 28.7574C121.813 28.7952 122.367 28.7845 122.917 28.7254C123.216 28.6933 123.508 28.6463 123.799 28.5888C123.897 28.5679 123.999 28.5751 124.094 28.6095C124.188 28.6438 124.27 28.704 124.331 28.7829L125.593 30.4225C125.675 30.5302 125.796 30.6034 125.931 30.6275C126.065 30.6517 126.204 30.6251 126.32 30.553L128.259 29.3364C128.312 29.302 128.359 29.2594 128.398 29.2104C128.458 29.1315 128.495 29.038 128.505 28.9399C128.515 28.8418 128.497 28.743 128.454 28.654L127.764 27.2688C127.724 27.1853 127.706 27.0928 127.712 27.0003C127.718 26.9079 127.749 26.8187 127.8 26.7412C127.829 26.7002 127.862 26.663 127.901 26.6306C128.857 25.8407 129.644 24.8702 130.215 23.776C130.262 23.6857 130.335 23.6108 130.424 23.5608C130.514 23.5108 130.616 23.4878 130.719 23.4946C130.749 23.4968 130.779 23.5014 130.809 23.5084L132.632 23.9508C132.76 23.9816 132.895 23.9648 133.011 23.9036C133.128 23.8424 133.217 23.7411 133.262 23.619L133.281 23.5698L134.051 21.4828C134.097 21.3559 134.093 21.2165 134.04 21.0921C133.988 20.9677 133.89 20.8674 133.766 20.8109ZM116.941 18.6592C117.006 18.2795 117.107 17.9066 117.242 17.5454C117.511 16.8265 118.268 15.8914 118.921 15.48C118.991 15.4352 119.062 15.3932 119.132 15.3517C123.446 12.8532 128.302 16.784 126.595 21.5016C126.371 22.1182 125.811 22.8741 125.234 23.3663C125.109 23.4731 124.977 23.5705 124.837 23.6577C124.28 24.008 123.666 24.2616 123.022 24.4076C119.57 25.1663 116.345 22.299 116.941 18.6592Z" fill="#F985A0"/>
</g>
<g filter="url(#filter12_di)">
<path d="M293.897 79.6549C294.212 79.5495 294.449 79.5232 294.554 79.5495C294.607 79.5495 294.686 79.6549 294.739 79.8392C294.844 80.2079 295.002 80.9453 295.186 82.0777C296.107 86.9234 296.554 90.2152 296.528 91.927L296.501 92.5064L294.896 92.9804L293.897 93.2964C293.555 93.4018 293.292 93.4281 293.134 93.3754C292.976 93.3228 292.844 93.1911 292.739 92.9541C292.634 92.7171 292.476 92.2694 292.292 91.6373L292.029 90.7683C291.634 89.3988 291.187 87.8187 290.713 86.0016C290.24 84.1845 289.95 83.0784 289.871 82.6307C289.766 82.2357 289.766 81.946 289.819 81.7617C289.977 81.393 290.634 80.9453 291.792 80.4449C292.608 80.1026 293.318 79.8392 293.897 79.6549ZM294.318 93.8758C295.159 93.6388 295.87 93.6651 296.449 93.9548C297.027 94.2708 297.422 94.7712 297.659 95.5349C297.896 96.325 297.817 97.0887 297.422 97.7997C297.027 98.5108 296.449 98.9848 295.659 99.1955C295.37 99.2745 295.107 99.3272 294.896 99.3008C294.344 99.3008 293.791 99.1165 293.239 98.7741C292.686 98.4054 292.344 98.0104 292.213 97.5627C292.055 97.0097 292.081 96.404 292.318 95.7983C292.555 95.1926 292.95 94.6922 293.476 94.2972C293.66 94.1128 293.949 93.9811 294.318 93.8758Z" fill="url(#paint16_linear)"/>
</g>
<g filter="url(#filter13_di)">
<path d="M185.008 93.7147H176.857V91.7099L179.6 88.9157C180.388 88.0914 180.898 87.5186 181.135 87.2322C181.336 86.9984 181.507 86.7402 181.645 86.4638C181.739 86.2432 181.786 86.0053 181.784 85.7653C181.791 85.6349 181.769 85.5045 181.72 85.3837C181.67 85.2629 181.594 85.1546 181.498 85.0667C181.276 84.8813 180.991 84.7887 180.702 84.8083C180.324 84.816 179.953 84.9219 179.628 85.1156C179.188 85.3941 178.777 85.7146 178.4 86.0726L176.746 84.1097C177.189 83.6848 177.678 83.3099 178.204 82.992C178.608 82.7656 179.039 82.5941 179.488 82.4821C180 82.3592 180.525 82.3005 181.051 82.3075C181.72 82.2948 182.384 82.4258 182.998 82.6917C183.539 82.9215 184.001 83.3023 184.331 83.7884C184.645 84.2596 184.808 84.815 184.799 85.3811C184.808 86.2095 184.565 87.0211 184.101 87.7072C183.84 88.1228 183.539 88.5113 183.201 88.8668C182.817 89.265 182.007 90.0264 180.758 91.144V91.2209H185.008V93.7147Z" fill="#0A3D76"/>
<path d="M195.769 91.5353H194.534V93.7148H191.54V91.5353H187.06V89.307L191.729 82.4683H194.52V89.2651H195.755L195.769 91.5353ZM191.54 89.2651V87.9588C191.54 87.7143 191.54 87.379 191.54 86.9669C191.537 86.7333 191.551 86.4998 191.582 86.2683H191.498C191.329 86.6529 191.131 87.0242 190.905 87.379L189.656 89.2302L191.54 89.2651Z" fill="#0A3D76"/>
<path d="M204.115 82.3081L199.928 93.869H197.27L201.457 82.3081H204.115Z" fill="#0A3D76"/>
<path d="M206.927 93.7145L210.786 84.9967H205.901V82.4819H214.01V84.2772L210.053 93.7145H206.927Z" fill="#0A3D76"/>
<path d="M185.119 79.4641C186.376 77.9574 187.948 76.7454 189.724 75.9137C191.501 75.082 193.438 74.6509 195.399 74.6509C197.36 74.6509 199.297 75.082 201.073 75.9137C202.849 76.7454 204.421 77.9574 205.678 79.4641H208.232C206.82 77.3534 204.91 75.6234 202.671 74.4271C200.432 73.2308 197.933 72.605 195.395 72.605C192.857 72.605 190.358 73.2308 188.119 74.4271C185.881 75.6234 183.97 77.3534 182.558 79.4641H185.119Z" fill="#0A3D76"/>
<path d="M205.664 96.7114C204.408 98.2181 202.835 99.4301 201.059 100.262C199.283 101.094 197.346 101.525 195.385 101.525C193.424 101.525 191.487 101.094 189.711 100.262C187.935 99.4301 186.362 98.2181 185.106 96.7114H182.544C183.958 98.8207 185.868 100.549 188.107 101.744C190.346 102.94 192.844 103.565 195.381 103.565C197.919 103.565 200.417 102.94 202.656 101.744C204.895 100.549 206.805 98.8207 208.219 96.7114H205.664Z" fill="#0A3D76"/>
</g>
<g filter="url(#filter14_di)">
<path d="M39.7389 77.5525C40.7511 77.3014 41.6877 77.4123 42.6381 77.8102C43.5701 78.2566 44.1969 79.0252 44.6056 80.2087C44.7756 80.7298 44.8238 81.0874 44.8376 81.3744C44.8285 82.0455 44.5899 82.6767 44.0161 83.2239C43.4951 83.7931 42.8524 84.199 42.1248 84.3442C41.0597 84.5732 40.1232 84.4623 39.2806 83.9409C38.4198 83.468 37.8114 82.6508 37.3659 81.5645L37.2465 81.2333C37.0237 80.6901 37.0834 80.2089 37.2302 79.8205C37.5079 78.9243 38.0128 78.2359 38.7794 77.8257C39.0985 77.7906 39.4015 77.6362 39.7389 77.5525ZM36.0681 58.4684C37.1515 58.1909 38.0375 58.1119 38.7446 58.1829C39.3988 58.2319 40.2803 58.4885 41.2835 58.9085C42.2338 59.3063 43.0419 59.7571 43.6548 60.2387C44.9864 61.2461 45.9598 62.5535 46.488 64.0682C46.9312 65.3223 47.0737 66.5631 46.8282 67.6976C46.6356 68.8542 46.0366 69.9532 45.0474 71.1139C44.4002 71.8552 43.9848 72.4687 43.8196 72.9057C43.636 73.3913 43.5052 73.8989 43.5145 74.5215C43.4893 75.0733 43.432 75.3868 43.3585 75.581C43.2323 75.7531 43.0005 75.881 42.5919 75.9912C42.2545 76.0748 41.3501 76.2024 39.8259 76.3516C38.3018 76.5009 37.4157 76.5799 37.1678 76.5886C36.8671 76.5752 36.6376 76.5353 36.5159 76.3719C36.3942 76.2084 36.2725 76.045 36.2036 75.9037C36.1186 75.6431 36.0405 74.8793 36.022 73.6342C36.0034 72.3892 36.0676 71.5724 36.2145 71.184C36.3797 70.747 36.7583 70.2306 37.4561 69.6791C38.0827 69.1541 38.4247 68.7348 38.6427 68.3199C38.8423 67.9536 38.8836 67.5209 38.8192 67.0441L38.8215 66.8763L38.7526 66.735C38.4977 65.9534 37.9881 65.6838 37.1893 65.8555C36.5856 65.9964 35.9889 66.9277 35.3992 68.6492C35.2317 69.254 34.9976 69.5497 34.8553 69.6026C34.7842 69.6291 34.7314 69.6069 34.6786 69.5848L34.5362 69.6377C33.9693 69.6816 32.631 69.1775 30.6269 68.1697C29.906 67.8117 29.5387 67.4892 29.4193 67.158C29.3343 66.8975 29.3595 66.3456 29.4398 65.6481C29.6508 64.4429 30.2337 63.2246 31.1356 61.9712C32.0192 60.7664 33.0406 59.8442 34.1285 59.2312C34.6817 58.9003 35.3221 58.6623 36.0681 58.4684Z" fill="url(#paint17_linear)"/>
</g>
<defs>
<filter id="filter0_d" x="3" y="127.18" width="322.321" height="105.82" filterUnits="userSpaceOnUse" color-interpolation-filters="sRGB">
<feFlood flood-opacity="0" result="BackgroundImageFix"/>
<feColorMatrix in="SourceAlpha" type="matrix" values="0 0 0 0 0 0 0 0 0 0 0 0 0 0 0 0 0 0 127 0"/>
<feOffset dx="2" dy="2"/>
<feGaussianBlur stdDeviation="2"/>
<feColorMatrix type="matrix" values="0 0 0 0 0 0 0 0 0 0 0 0 0 0 0 0 0 0 0.2 0"/>
<feBlend mode="normal" in2="BackgroundImageFix" result="effect1_dropShadow"/>
<feBlend mode="normal" in="SourceGraphic" in2="effect1_dropShadow" result="shape"/>
</filter>
<filter id="filter1_f" x="21.8813" y="162.05" width="97.0041" height="30.0856" filterUnits="userSpaceOnUse" color-interpolation-filters="sRGB">
<feFlood flood-opacity="0" result="BackgroundImageFix"/>
<feBlend mode="normal" in="SourceGraphic" in2="BackgroundImageFix" result="shape"/>
<feGaussianBlur stdDeviation="1" result="effect1_foregroundBlur"/>
</filter>
<filter id="filter2_di" x="231" y="35.5132" width="13.1147" height="13.1197" filterUnits="userSpaceOnUse" color-interpolation-filters="sRGB">
<feFlood flood-opacity="0" result="BackgroundImageFix"/>
<feColorMatrix in="SourceAlpha" type="matrix" values="0 0 0 0 0 0 0 0 0 0 0 0 0 0 0 0 0 0 127 0"/>
<feOffset dx="2" dy="2"/>
<feGaussianBlur stdDeviation="2"/>
<feColorMatrix type="matrix" values="0 0 0 0 0 0 0 0 0 0 0 0 0 0 0 0 0 0 0.15 0"/>
<feBlend mode="normal" in2="BackgroundImageFix" result="effect1_dropShadow"/>
<feBlend mode="normal" in="SourceGraphic" in2="effect1_dropShadow" result="shape"/>
<feColorMatrix in="SourceAlpha" type="matrix" values="0 0 0 0 0 0 0 0 0 0 0 0 0 0 0 0 0 0 127 0" result="hardAlpha"/>
<feOffset dx="-1" dy="-1"/>
<feGaussianBlur stdDeviation="1"/>
<feComposite in2="hardAlpha" operator="arithmetic" k2="-1" k3="1"/>
<feColorMatrix type="matrix" values="0 0 0 0 0 0 0 0 0 0 0 0 0 0 0 0 0 0 0.15 0"/>
<feBlend mode="normal" in2="shape" result="effect2_innerShadow"/>
</filter>
<filter id="filter3_di" x="247.452" y="16.9971" width="13.6262" height="13.6317" filterUnits="userSpaceOnUse" color-interpolation-filters="sRGB">
<feFlood flood-opacity="0" result="BackgroundImageFix"/>
<feColorMatrix in="SourceAlpha" type="matrix" values="0 0 0 0 0 0 0 0 0 0 0 0 0 0 0 0 0 0 127 0"/>
<feOffset dx="2" dy="2"/>
<feGaussianBlur stdDeviation="2"/>
<feColorMatrix type="matrix" values="0 0 0 0 0 0 0 0 0 0 0 0 0 0 0 0 0 0 0.15 0"/>
<feBlend mode="normal" in2="BackgroundImageFix" result="effect1_dropShadow"/>
<feBlend mode="normal" in="SourceGraphic" in2="effect1_dropShadow" result="shape"/>
<feColorMatrix in="SourceAlpha" type="matrix" values="0 0 0 0 0 0 0 0 0 0 0 0 0 0 0 0 0 0 127 0" result="hardAlpha"/>
<feOffset dx="-1" dy="-1"/>
<feGaussianBlur stdDeviation="1"/>
<feComposite in2="hardAlpha" operator="arithmetic" k2="-1" k3="1"/>
<feColorMatrix type="matrix" values="0 0 0 0 0 0 0 0 0 0 0 0 0 0 0 0 0 0 0.15 0"/>
<feBlend mode="normal" in2="shape" result="effect2_innerShadow"/>
</filter>
<filter id="filter4_di" x="269.275" y="34.4043" width="11.1541" height="11.1572" filterUnits="userSpaceOnUse" color-interpolation-filters="sRGB">
<feFlood flood-opacity="0" result="BackgroundImageFix"/>
<feColorMatrix in="SourceAlpha" type="matrix" values="0 0 0 0 0 0 0 0 0 0 0 0 0 0 0 0 0 0 127 0"/>
<feOffset dx="2" dy="2"/>
<feGaussianBlur stdDeviation="2"/>
<feColorMatrix type="matrix" values="0 0 0 0 0 0 0 0 0 0 0 0 0 0 0 0 0 0 0.15 0"/>
<feBlend mode="normal" in2="BackgroundImageFix" result="effect1_dropShadow"/>
<feBlend mode="normal" in="SourceGraphic" in2="effect1_dropShadow" result="shape"/>
<feColorMatrix in="SourceAlpha" type="matrix" values="0 0 0 0 0 0 0 0 0 0 0 0 0 0 0 0 0 0 127 0" result="hardAlpha"/>
<feOffset dx="-1" dy="-1"/>
<feGaussianBlur stdDeviation="1"/>
<feComposite in2="hardAlpha" operator="arithmetic" k2="-1" k3="1"/>
<feColorMatrix type="matrix" values="0 0 0 0 0 0 0 0 0 0 0 0 0 0 0 0 0 0 0.15 0"/>
<feBlend mode="normal" in2="shape" result="effect2_innerShadow"/>
</filter>
<filter id="filter5_di" x="280.74" y="10" width="14.1376" height="14.1437" filterUnits="userSpaceOnUse" color-interpolation-filters="sRGB">
<feFlood flood-opacity="0" result="BackgroundImageFix"/>
<feColorMatrix in="SourceAlpha" type="matrix" values="0 0 0 0 0 0 0 0 0 0 0 0 0 0 0 0 0 0 127 0"/>
<feOffset dx="2" dy="2"/>
<feGaussianBlur stdDeviation="2"/>
<feColorMatrix type="matrix" values="0 0 0 0 0 0 0 0 0 0 0 0 0 0 0 0 0 0 0.15 0"/>
<feBlend mode="normal" in2="BackgroundImageFix" result="effect1_dropShadow"/>
<feBlend mode="normal" in="SourceGraphic" in2="effect1_dropShadow" result="shape"/>
<feColorMatrix in="SourceAlpha" type="matrix" values="0 0 0 0 0 0 0 0 0 0 0 0 0 0 0 0 0 0 127 0" result="hardAlpha"/>
<feOffset dx="-1" dy="-1"/>
<feGaussianBlur stdDeviation="1"/>
<feComposite in2="hardAlpha" operator="arithmetic" k2="-1" k3="1"/>
<feColorMatrix type="matrix" values="0 0 0 0 0 0 0 0 0 0 0 0 0 0 0 0 0 0 0.15 0"/>
<feBlend mode="normal" in2="shape" result="effect2_innerShadow"/>
</filter>
<filter id="filter6_di" x="5.74072" y="114.96" width="311.558" height="68.7651" filterUnits="userSpaceOnUse" color-interpolation-filters="sRGB">
<feFlood flood-opacity="0" result="BackgroundImageFix"/>
<feColorMatrix in="SourceAlpha" type="matrix" values="0 0 0 0 0 0 0 0 0 0 0 0 0 0 0 0 0 0 127 0"/>
<feOffset dx="2" dy="2"/>
<feGaussianBlur stdDeviation="2"/>
<feColorMatrix type="matrix" values="0 0 0 0 0 0 0 0 0 0 0 0 0 0 0 0 0 0 0.15 0"/>
<feBlend mode="normal" in2="BackgroundImageFix" result="effect1_dropShadow"/>
<feBlend mode="normal" in="SourceGraphic" in2="effect1_dropShadow" result="shape"/>
<feColorMatrix in="SourceAlpha" type="matrix" values="0 0 0 0 0 0 0 0 0 0 0 0 0 0 0 0 0 0 127 0" result="hardAlpha"/>
<feOffset dx="-4" dy="-4"/>
<feGaussianBlur stdDeviation="5"/>
<feComposite in2="hardAlpha" operator="arithmetic" k2="-1" k3="1"/>
<feColorMatrix type="matrix" values="0 0 0 0 0 0 0 0 0 0 0 0 0 0 0 0 0 0 0.25 0"/>
<feBlend mode="normal" in2="shape" result="effect2_innerShadow"/>
</filter>
<filter id="filter7_d" x="78.9692" y="50.7705" width="65.9023" height="147.209" filterUnits="userSpaceOnUse" color-interpolation-filters="sRGB">
<feFlood flood-opacity="0" result="BackgroundImageFix"/>
<feColorMatrix in="SourceAlpha" type="matrix" values="0 0 0 0 0 0 0 0 0 0 0 0 0 0 0 0 0 0 127 0"/>
<feOffset dx="10"/>
<feGaussianBlur stdDeviation="4"/>
<feColorMatrix type="matrix" values="0 0 0 0 0 0 0 0 0 0 0 0 0 0 0 0 0 0 0.25 0"/>
<feBlend mode="normal" in2="BackgroundImageFix" result="effect1_dropShadow"/>
<feBlend mode="normal" in="SourceGraphic" in2="effect1_dropShadow" result="shape"/>
</filter>
<filter id="filter8_f" x="105.054" y="118.441" width="5.54868" height="2.58687" filterUnits="userSpaceOnUse" color-interpolation-filters="sRGB">
<feFlood flood-opacity="0" result="BackgroundImageFix"/>
<feBlend mode="normal" in="SourceGraphic" in2="BackgroundImageFix" result="shape"/>
<feGaussianBlur stdDeviation="0.1" result="effect1_foregroundBlur"/>
</filter>
<filter id="filter9_f" x="105.819" y="118.19" width="5.26345" height="2.20706" filterUnits="userSpaceOnUse" color-interpolation-filters="sRGB">
<feFlood flood-opacity="0" result="BackgroundImageFix"/>
<feBlend mode="normal" in="SourceGraphic" in2="BackgroundImageFix" result="shape"/>
<feGaussianBlur stdDeviation="0.1" result="effect1_foregroundBlur"/>
</filter>
<filter id="filter10_f" x="104.232" y="118.762" width="3.5582" height="2.36348" filterUnits="userSpaceOnUse" color-interpolation-filters="sRGB">
<feFlood flood-opacity="0" result="BackgroundImageFix"/>
<feBlend mode="normal" in="SourceGraphic" in2="BackgroundImageFix" result="shape"/>
<feGaussianBlur stdDeviation="0.1" result="effect1_foregroundBlur"/>
</filter>
<filter id="filter11_di" x="107.652" y="6" width="32.4309" height="31.36" filterUnits="userSpaceOnUse" color-interpolation-filters="sRGB">
<feFlood flood-opacity="0" result="BackgroundImageFix"/>
<feColorMatrix in="SourceAlpha" type="matrix" values="0 0 0 0 0 0 0 0 0 0 0 0 0 0 0 0 0 0 127 0"/>
<feOffset dx="2" dy="2"/>
<feGaussianBlur stdDeviation="2"/>
<feColorMatrix type="matrix" values="0 0 0 0 0 0 0 0 0 0 0 0 0 0 0 0 0 0 0.15 0"/>
<feBlend mode="normal" in2="BackgroundImageFix" result="effect1_dropShadow"/>
<feBlend mode="normal" in="SourceGraphic" in2="effect1_dropShadow" result="shape"/>
<feColorMatrix in="SourceAlpha" type="matrix" values="0 0 0 0 0 0 0 0 0 0 0 0 0 0 0 0 0 0 127 0" result="hardAlpha"/>
<feOffset dx="-1" dy="-1"/>
<feGaussianBlur stdDeviation="1"/>
<feComposite in2="hardAlpha" operator="arithmetic" k2="-1" k3="1"/>
<feColorMatrix type="matrix" values="0 0 0 0 0 0 0 0 0 0 0 0 0 0 0 0 0 0 0.15 0"/>
<feBlend mode="normal" in2="shape" result="effect2_innerShadow"/>
</filter>
<filter id="filter12_di" x="287.784" y="77.54" width="16.0079" height="27.7676" filterUnits="userSpaceOnUse" color-interpolation-filters="sRGB">
<feFlood flood-opacity="0" result="BackgroundImageFix"/>
<feColorMatrix in="SourceAlpha" type="matrix" values="0 0 0 0 0 0 0 0 0 0 0 0 0 0 0 0 0 0 127 0"/>
<feOffset dx="2" dy="2"/>
<feGaussianBlur stdDeviation="2"/>
<feColorMatrix type="matrix" values="0 0 0 0 0 0 0 0 0 0 0 0 0 0 0 0 0 0 0.15 0"/>
<feBlend mode="normal" in2="BackgroundImageFix" result="effect1_dropShadow"/>
<feBlend mode="normal" in="SourceGraphic" in2="effect1_dropShadow" result="shape"/>
<feColorMatrix in="SourceAlpha" type="matrix" values="0 0 0 0 0 0 0 0 0 0 0 0 0 0 0 0 0 0 127 0" result="hardAlpha"/>
<feOffset dx="-2" dy="-2"/>
<feGaussianBlur stdDeviation="2"/>
<feComposite in2="hardAlpha" operator="arithmetic" k2="-1" k3="1"/>
<feColorMatrix type="matrix" values="0 0 0 0 0 0 0 0 0 0 0 0 0 0 0 0 0 0 0.2 0"/>
<feBlend mode="normal" in2="shape" result="effect2_innerShadow"/>
</filter>
<filter id="filter13_di" x="174.746" y="70.605" width="45.2643" height="38.96" filterUnits="userSpaceOnUse" color-interpolation-filters="sRGB">
<feFlood flood-opacity="0" result="BackgroundImageFix"/>
<feColorMatrix in="SourceAlpha" type="matrix" values="0 0 0 0 0 0 0 0 0 0 0 0 0 0 0 0 0 0 127 0"/>
<feOffset dx="2" dy="2"/>
<feGaussianBlur stdDeviation="2"/>
<feColorMatrix type="matrix" values="0 0 0 0 0 0 0 0 0 0 0 0 0 0 0 0 0 0 0.15 0"/>
<feBlend mode="normal" in2="BackgroundImageFix" result="effect1_dropShadow"/>
<feBlend mode="normal" in="SourceGraphic" in2="effect1_dropShadow" result="shape"/>
<feColorMatrix in="SourceAlpha" type="matrix" values="0 0 0 0 0 0 0 0 0 0 0 0 0 0 0 0 0 0 127 0" result="hardAlpha"/>
<feOffset dx="-1" dy="-1"/>
<feGaussianBlur stdDeviation="2"/>
<feComposite in2="hardAlpha" operator="arithmetic" k2="-1" k3="1"/>
<feColorMatrix type="matrix" values="0 0 0 0 0 0 0 0 0 0 0 0 0 0 0 0 0 0 0.2 0"/>
<feBlend mode="normal" in2="shape" result="effect2_innerShadow"/>
</filter>
<filter id="filter14_di" x="27.3662" y="56.1582" width="25.5812" height="34.2991" filterUnits="userSpaceOnUse" color-interpolation-filters="sRGB">
<feFlood flood-opacity="0" result="BackgroundImageFix"/>
<feColorMatrix in="SourceAlpha" type="matrix" values="0 0 0 0 0 0 0 0 0 0 0 0 0 0 0 0 0 0 127 0"/>
<feOffset dx="2" dy="2"/>
<feGaussianBlur stdDeviation="2"/>
<feColorMatrix type="matrix" values="0 0 0 0 0 0 0 0 0 0 0 0 0 0 0 0 0 0 0.15 0"/>
<feBlend mode="normal" in2="BackgroundImageFix" result="effect1_dropShadow"/>
<feBlend mode="normal" in="SourceGraphic" in2="effect1_dropShadow" result="shape"/>
<feColorMatrix in="SourceAlpha" type="matrix" values="0 0 0 0 0 0 0 0 0 0 0 0 0 0 0 0 0 0 127 0" result="hardAlpha"/>
<feOffset dx="-2" dy="-2"/>
<feGaussianBlur stdDeviation="2"/>
<feComposite in2="hardAlpha" operator="arithmetic" k2="-1" k3="1"/>
<feColorMatrix type="matrix" values="0 0 0 0 0 0 0 0 0 0 0 0 0 0 0 0 0 0 0.2 0"/>
<feBlend mode="normal" in2="shape" result="effect2_innerShadow"/>
</filter>
<linearGradient id="paint0_linear" x1="51.9605" y1="151.782" x2="81.0827" y2="174.258" gradientUnits="userSpaceOnUse">
<stop stop-color="#B4D1FA" stop-opacity="0"/>
<stop offset="1" stop-opacity="0.2"/>
</linearGradient>
<linearGradient id="paint1_linear" x1="85.8835" y1="154.536" x2="110.019" y2="171.605" gradientUnits="userSpaceOnUse">
<stop stop-color="#B4D1FA" stop-opacity="0"/>
<stop offset="1" stop-opacity="0.2"/>
</linearGradient>
<linearGradient id="paint2_linear" x1="116.321" y1="136.132" x2="156.427" y2="158.486" gradientUnits="userSpaceOnUse">
<stop stop-color="#B4D1FA" stop-opacity="0"/>
<stop offset="1" stop-opacity="0.2"/>
</linearGradient>
<linearGradient id="paint3_linear" x1="207.59" y1="132.58" x2="250.139" y2="155.209" gradientUnits="userSpaceOnUse">
<stop stop-color="#B4D1FA" stop-opacity="0"/>
<stop offset="1" stop-opacity="0.2"/>
</linearGradient>
<linearGradient id="paint4_linear" x1="225.79" y1="159.84" x2="263.176" y2="175.144" gradientUnits="userSpaceOnUse">
<stop stop-color="#DCD5D7" stop-opacity="0"/>
<stop offset="0.103489" stop-color="#DCD5D7" stop-opacity="0.85"/>
<stop offset="1" stop-color="#DCD5D7"/>
</linearGradient>
<linearGradient id="paint5_linear" x1="186.795" y1="142.182" x2="209.181" y2="167.551" gradientUnits="userSpaceOnUse">
<stop stop-color="#B4D1FA" stop-opacity="0"/>
<stop offset="0.671658" stop-opacity="0.2"/>
</linearGradient>
<linearGradient id="paint6_linear" x1="31.5277" y1="166.081" x2="115.677" y2="204.671" gradientUnits="userSpaceOnUse">
<stop stop-color="#B4D1FA" stop-opacity="0"/>
<stop offset="1" stop-opacity="0.2"/>
</linearGradient>
<linearGradient id="paint7_linear" x1="253.97" y1="143.836" x2="291.431" y2="174.562" gradientUnits="userSpaceOnUse">
<stop stop-color="#B4D1FA" stop-opacity="0"/>
<stop offset="1" stop-opacity="0.2"/>
</linearGradient>
<linearGradient id="paint8_linear" x1="302.003" y1="148.343" x2="21.9331" y2="117.485" gradientUnits="userSpaceOnUse">
<stop stop-color="#A62E41"/>
<stop offset="1" stop-color="#E13152"/>
</linearGradient>
<linearGradient id="paint9_linear" x1="302.003" y1="148.343" x2="21.9331" y2="117.485" gradientUnits="userSpaceOnUse">
<stop stop-color="#A62E41"/>
<stop offset="1" stop-color="#E13152"/>
</linearGradient>
<linearGradient id="paint10_linear" x1="302.003" y1="148.343" x2="21.9331" y2="117.485" gradientUnits="userSpaceOnUse">
<stop stop-color="#A62E41"/>
<stop offset="1" stop-color="#E13152"/>
</linearGradient>
<linearGradient id="paint11_linear" x1="302.003" y1="148.343" x2="21.9331" y2="117.485" gradientUnits="userSpaceOnUse">
<stop stop-color="#A62E41"/>
<stop offset="1" stop-color="#E13152"/>
</linearGradient>
<linearGradient id="paint12_linear" x1="302.003" y1="148.343" x2="21.9331" y2="117.485" gradientUnits="userSpaceOnUse">
<stop stop-color="#A62E41"/>
<stop offset="1" stop-color="#E13152"/>
</linearGradient>
<linearGradient id="paint13_linear" x1="302.003" y1="148.343" x2="21.9331" y2="117.485" gradientUnits="userSpaceOnUse">
<stop stop-color="#A62E41"/>
<stop offset="1" stop-color="#E13152"/>
</linearGradient>
<linearGradient id="paint14_linear" x1="302.003" y1="148.343" x2="21.9331" y2="117.485" gradientUnits="userSpaceOnUse">
<stop stop-color="#A62E41"/>
<stop offset="1" stop-color="#E13152"/>
</linearGradient>
<linearGradient id="paint15_linear" x1="235.168" y1="103.403" x2="213.298" y2="103.853" gradientUnits="userSpaceOnUse">
<stop stop-color="#71A0DD" stop-opacity="0"/>
<stop offset="1" stop-color="#71A0DD" stop-opacity="0.5"/>
</linearGradient>
<linearGradient id="paint16_linear" x1="297.545" y1="89.4239" x2="290.018" y2="89.3584" gradientUnits="userSpaceOnUse">
<stop stop-color="#A62E41"/>
<stop offset="1" stop-color="#E13152"/>
</linearGradient>
<linearGradient id="paint17_linear" x1="47.0262" y1="74.2721" x2="29.3462" y2="67.2181" gradientUnits="userSpaceOnUse">
<stop stop-color="#A62E41"/>
<stop offset="1" stop-color="#E13152"/>
</linearGradient>
<clipPath id="clip0">
<rect width="4.29378" height="2.34103" fill="white" transform="matrix(0.99863 0.0530754 -0.0531219 0.998548 245.437 71.4224)"/>
</clipPath>
</defs>
</svg>
