<svg width="124" height="120" viewBox="0 0 124 120" fill="none" xmlns="http://www.w3.org/2000/svg">
<g clip-path="url(#clip0)">
<path d="M23.5108 2.95782L123.971 3.30582L122.955 91.7543L23.3076 91.9283L23.5108 2.95782Z" fill="#102E5B"/>
<path d="M23.6854 2.89995L0.0580524 31.1455L0 119.275L23.6854 91.6965V2.89995Z" fill="#0A2D49"/>
<path d="M100.286 119.855L0 119.971L0.0580524 31.1455L99.7631 30.9715L100.286 119.855Z" fill="#102E5B"/>
<path d="M100.285 119.855L123.971 91.5514V3.30583L100.372 31.1744L100.285 119.855Z" fill="#0A2D49"/>
<path d="M100.372 31.1744L123.971 3.30583V92.2184L100.285 119.855L100.372 31.1744Z" fill="#053866"/>
<path d="M100.372 31.1744L123.971 3.30583V92.1893L100.285 119.855L100.372 31.1744Z" fill="#053866"/>
<path d="M118.078 10.2657L123.97 3.30583V25.7805L118.078 32.7403V10.2657Z" fill="#053866"/>
<path d="M120.111 22.6777C118.862 19.9807 118.253 16.4718 118.253 10.2659L118.979 9.3669C118.979 14.8478 119.646 18.5887 120.72 20.8797C121.62 22.7647 122.781 23.0547 123.971 21.6047L123.942 23.9827C123.333 24.7076 122.926 24.8816 122.375 24.8816C121.62 24.8816 120.749 24.0407 120.111 22.6777Z" fill="#B9D5FD"/>
<path d="M112.187 17.2255L118.079 10.2657V32.7403L112.187 39.7002V17.2255Z" fill="#0E2951"/>
<path d="M106.294 24.1855L112.187 17.2256V39.7003L106.294 46.6312V24.1855Z" fill="#709FDC"/>
<path d="M100.372 31.1743L106.293 24.1855V46.6311L100.401 53.504L100.372 31.1743Z" fill="#55A2E0"/>
<path d="M118.078 32.7402L123.97 25.7804V47.907L118.078 54.8669V32.7402Z" fill="#B9D5FD"/>
<path d="M112.187 39.7003L118.079 32.7404V54.867L112.187 61.8269V39.7003Z" fill="#274684"/>
<path d="M106.294 46.6311L112.187 39.7002V61.8268L106.294 68.7867V46.6311Z" fill="#3D95D1"/>
<path d="M100.401 53.5042L106.294 46.6313V68.7869L100.401 75.6308V53.5042Z" fill="#B9D5FD"/>
<path d="M112.187 61.827L118.079 54.8671V77.0227L112.187 83.9826V61.827Z" fill="#B9D5FD"/>
<path d="M106.294 68.7868L112.187 61.8269V83.9825L106.294 90.9424V68.7868Z" fill="#0E2951"/>
<path d="M100.401 75.6306L106.294 68.7867V90.9424L100.517 97.7862L100.401 75.6306Z" fill="#709FDC"/>
<path d="M118.078 77.0227L123.97 70.0338V92.1895L118.078 99.1493V77.0227Z" fill="#6780B3"/>
<path d="M112.187 83.9827L118.079 77.0228V99.1494L112.187 106.109V83.9827Z" fill="#053866"/>
<path d="M106.294 90.9427L112.187 83.9828V106.109L106.294 113.069V90.9427Z" fill="#B9D5FD"/>
<path d="M100.518 97.7865L106.294 90.9426V113.069L100.285 119.855L100.518 97.7865Z" fill="#3D95D1"/>
<path d="M121.068 18.7047C120.082 16.6167 119.559 13.7168 119.559 8.96084L120.285 8.06186C120.285 11.9188 120.72 14.7028 121.591 16.5007C122.113 17.5737 123.158 17.9217 124 16.9067V19.5747C123.536 20.1257 123.245 20.2997 122.81 20.2997C122.142 20.2997 121.562 19.7487 121.068 18.7047Z" fill="#3D95D1"/>
<path d="M122.026 14.0648C121.358 12.6438 120.981 10.4399 120.981 7.22091L121.707 6.32193C121.707 8.67089 121.823 9.77287 122.287 11.1938C122.723 12.5278 123.477 12.6728 124 12.0928V14.7608C123.68 15.1378 123.506 15.2248 123.216 15.2248C122.752 15.1958 122.345 14.7898 122.026 14.0648Z" fill="#3376B3"/>
<path d="M122.868 9.39594C122.462 8.52595 122.259 7.24997 122.259 5.423L123.101 4.52402C122.955 5.858 122.955 6.72798 123.246 7.19197C123.345 7.28266 123.474 7.33296 123.609 7.33296C123.743 7.33296 123.872 7.28266 123.971 7.19197V9.85993C123.797 10.0919 123.768 10.0919 123.594 10.0919C123.333 10.0629 123.072 9.83093 122.868 9.39594Z" fill="#709FDC"/>
<path d="M100.518 91.9286L104.668 86.9696V54.3742L100.518 59.2751V56.2011L105.539 50.5462V88.8256L100.547 94.6835L100.518 91.9286Z" fill="#274684"/>
<path d="M100.518 91.9284L104.668 86.9695V70.1788L105.539 69.3088V88.8255L100.518 95.0314V91.9284Z" fill="#0E2951"/>
<path d="M100.46 86.6504L103.275 83.3445V60.9278L100.518 64.0018V61.1308L104.117 57.0999V84.7074L100.547 88.9414L100.46 86.6504Z" fill="#274684"/>
<path d="M100.518 80.9375L101.795 79.1975V68.7577L100.518 70.3237V67.2207L102.666 64.9298V81.0535L100.634 83.4605L100.518 80.9375Z" fill="#274684"/>
<path d="M100.46 80.6765L101.737 79.3715V73.6586L102.579 72.7596V81.2275L100.518 83.6055L100.46 80.6765Z" fill="#0E2951"/>
<path d="M100.518 86.4475L103.275 83.3446V71.8607L104.117 70.9618V85.1425L100.518 89.5505V86.4475Z" fill="#0E2951"/>
<path d="M119.501 80.6475L123.971 75.3696V92.1893L119.501 97.4963V80.6475Z" fill="#053866"/>
<path d="M121.01 84.6205L123.971 81.1116V92.1894L121.01 95.6694V84.6205Z" fill="#709FDC"/>
<path d="M110.009 20.1838L112.157 31.5806L108.442 43.9924L106.323 32.5956L110.009 20.1838Z" fill="#0E2951"/>
<path d="M109.632 26.0125L110.735 31.8414L108.82 38.1633L107.746 32.3634L109.632 26.0125Z" fill="#6780B3"/>
<path d="M106.294 95.3505L112.187 88.3906V106.109L106.294 113.069V95.3505Z" fill="#3D95D1"/>
<path d="M106.294 100.222L112.187 93.2626V106.109L106.294 113.069V100.222Z" fill="#6780B3"/>
<path d="M106.294 105.123L112.187 98.1342V106.109L106.294 113.069V105.123Z" fill="#053866"/>
<path d="M106.294 109.096L112.187 102.136V106.109L106.294 113.069V109.096Z" fill="#0E2951"/>
<path d="M112.709 57.1L117.556 50.3721L112.709 45.0652L117.556 38.3373L112.709 57.1Z" fill="#0E2951"/>
<path d="M123.245 26.6504L123.971 25.7804V47.907L123.245 48.806V26.6504Z" fill="#55A2E0"/>
<path d="M122.114 27.9845L122.839 27.1146V49.2412L122.114 50.1402V27.9845Z" fill="#55A2E0"/>
<path d="M118.397 32.4214L119.123 31.5225V53.6781L118.397 54.5481V32.4214Z" fill="#55A2E0"/>
<path d="M119.646 30.8264L120.488 29.9274V52.054L119.646 52.924V30.8264Z" fill="#55A2E0"/>
<path d="M120.981 29.3186L121.678 28.4196V50.5752L120.981 51.4452V29.3186Z" fill="#55A2E0"/>
<path d="M118.078 54.867L123.97 47.9071V70.0337L118.078 77.0226V54.867Z" fill="#0E2951"/>
<path d="M118.078 65.9447L121.01 62.4648V73.5426L118.078 77.0226V65.9447Z" fill="#55A2E0"/>
<path d="M121.01 51.3871L123.971 47.9071V58.9849L121.01 62.4649V51.3871Z" fill="#55A2E0"/>
<path d="M113.608 87.6654L116.627 84.0694V95.4662L113.608 99.0622V90.0723L116.076 87.1724V94.0453L114.189 96.2782V91.4643L115.495 89.8983V92.6533L114.74 93.5523" stroke="#3D95D1" stroke-miterlimit="10"/>
<path d="M104.523 113.069L101.127 97.8153L102.375 96.4234L105.946 111.764L104.523 113.069Z" fill="#003A79"/>
<path d="M102.579 114.838L100.78 117.071L103.74 95.0315L105.54 93.2626L102.579 114.838Z" fill="#003A79"/>
<path d="M110.068 68.7579L110.996 67.6559V71.1939L110.068 72.2959V68.7579Z" fill="#B9D5FD"/>
<path d="M108.761 75.1378L109.69 74.0358V77.5737L108.761 78.7047V75.1378Z" fill="#B9D5FD"/>
<path d="M107.455 81.5755L108.413 80.4445V84.0114L107.455 85.1134V81.5755Z" fill="#B9D5FD"/>
<path d="M100.373 31.1743L0.0583496 31.1453L0.116402 119.855H100.286L100.373 31.1743Z" fill="#054270"/>
<path d="M100.286 119.855L0.0873758 119.942L0.0583496 31.1453L100.373 31.1743L100.286 119.855Z" fill="#053866"/>
<path d="M25.2231 97.7285L0.0864258 97.7575V75.6019L25.2231 75.5729V97.7285Z" fill="#F4F9FF"/>
<path d="M50.3315 97.7283H25.2239V75.5727L50.3315 75.5437V97.7283Z" fill="#274684"/>
<path d="M75.4099 97.6991L50.3313 97.7281V75.5435L75.4099 75.5145V97.6991Z" fill="#3D95D1"/>
<path d="M100.517 97.7862L75.4097 97.6992V75.5145L100.517 75.6015V97.7862Z" fill="#B9D5FD"/>
<path d="M50.3315 75.5437L25.2239 75.5727V53.3881L50.3315 53.3591V75.5437Z" fill="#B9D5FD"/>
<path d="M75.4099 75.5147L50.3313 75.5437V53.3591H75.4099V75.5147Z" fill="#0E2951"/>
<path d="M100.517 75.6017L75.4097 75.5147V53.3591L100.517 53.4171V75.6017Z" fill="#709FDC"/>
<path d="M50.3315 119.913H25.2239V97.7284H50.3315V119.913Z" fill="#0E2951"/>
<path d="M75.5418 119.884L50.3313 119.913V97.7282L75.5418 97.6992V119.884Z" fill="#709FDC"/>
<path d="M100.286 119.855L75.5842 119.884V97.6992L100.518 97.7862L100.286 119.855Z" fill="#6780B3"/>
<path d="M25.2241 53.388L0.0873758 53.417L0.0583496 31.1453L25.2241 31.2323V53.388Z" fill="#6780B3"/>
<path d="M50.3315 53.3593L25.2239 53.3883V31.2327L50.3315 31.2037V53.3593Z" fill="#053866"/>
<path d="M75.4099 53.3591H50.3313V31.2035L75.4099 31.1745V53.3591Z" fill="#B9D5FD"/>
<path d="M100.517 53.4171L75.4097 53.3591V31.1745H100.372L100.517 53.4171Z" fill="#3D95D1"/>
<path d="M78.6321 94.6835V56.3752L100.286 56.3462L99.8793 59.1881H82.2604V91.8416L100.518 91.9286V95.0315L78.6321 94.6835Z" fill="#274684"/>
<path d="M78.3997 56.3749L100.518 56.1719V59.2749L82.2601 59.1879V75.5436H78.6319L78.3997 56.3749Z" fill="#0E2951"/>
<path d="M84.6697 89.5506V62.1171L100.518 61.1311V63.8571L88.2689 64.0601V86.3897L100.518 86.4477V89.5506H84.6697Z" fill="#274684"/>
<path d="M91.2007 83.5765V67.4527L100.46 67.3947L99.8795 70.2947L94.7999 70.2657V80.7345L100.518 80.6765V83.6054L91.2007 83.5765Z" fill="#274684"/>
<path d="M91.2007 67.4529L100.518 67.2209V70.3239L94.7999 70.2659V75.6308L91.2007 75.5728V67.4529Z" fill="#0E2951"/>
<path d="M84.6697 61.2471L100.518 61.1311V64.0021L88.2689 64.0601V75.5149H84.6697V61.2471Z" fill="#0E2951"/>
<path d="M12.6267 42.3101L0.0873758 42.3391L0.0583496 31.1453L12.6267 31.2323V42.3101Z" fill="#FF8098"/>
<path d="M59.5332 119.797L50.4189 105.877L66.1802 97.8155L75.3235 111.735L59.5332 119.797Z" fill="#0E2951"/>
<path d="M61.1588 114.432L56.5146 107.298L64.5839 103.18L69.1991 110.314L61.1588 114.432Z" fill="#6780B3"/>
<path d="M75.4099 48.9222L50.3313 48.9512V31.2035L75.4099 31.1745V48.9222Z" fill="#3D95D1"/>
<path d="M75.4099 44.0503L50.3313 44.0793V31.2035L75.4099 31.1745V44.0503Z" fill="#6780B3"/>
<path d="M75.4099 39.1784H50.3313V31.2035L75.4099 31.1745V39.1784Z" fill="#053866"/>
<path d="M75.4099 35.1764H50.3313V31.2035L75.4099 31.1745V35.1764Z" fill="#0E2951"/>
<path d="M48.8221 79.1687L26.7332 79.1977L48.8221 93.2334L26.7332 93.2624" fill="#0E2951"/>
<path d="M0.0583496 75.3698L3.6576 75.2538V97.8734L0.0583496 97.9894V75.3698Z" fill="#709FDC"/>
<path d="M4.78906 75.6597L8.41734 75.5437V97.6993L4.78906 97.8443V75.6597Z" fill="#709FDC"/>
<path d="M19.9699 75.6016L23.5691 75.4566L23.5111 97.6993L19.8538 97.8152L19.9699 75.6016Z" fill="#709FDC"/>
<path d="M14.8323 75.6305L18.4896 75.5145V97.6992L14.8323 97.8151V75.6305Z" fill="#709FDC"/>
<path d="M9.81055 75.6595L13.4679 75.5145V97.6991L9.81055 97.8441V75.6595Z" fill="#709FDC"/>
<path d="M25.2231 75.5729L0.0864258 75.6019V53.4173L25.2231 53.3883V75.5729Z" fill="#0E2951"/>
<path d="M25.2231 119.913L0.0864258 119.942V97.7574L25.2231 97.7284V119.913Z" fill="#053866"/>
<path d="M25.2236 64.4661L12.6262 64.4951V53.4173L25.2236 53.3883V64.4661Z" fill="#3D95D1"/>
<path d="M0.0583496 101.092V98.8884C13.4394 98.8884 24.7887 104.833 24.7887 119.942L21.77 119.884C21.77 109.705 12.1333 101.092 0.0583496 101.092Z" fill="#B9D5FD"/>
<path d="M0 105.877V103.209C10.0721 103.209 18.7219 109.183 18.7219 119.826L15.0936 119.942C15.0936 112.17 8.82397 105.877 0 105.877Z" fill="#3D95D1"/>
<path d="M0.0583496 110.865L0.116402 108.313C6.96659 108.313 12.1042 113.301 12.1042 119.942L8.73719 120C8.70816 115.186 5.39917 110.865 0.0583496 110.865Z" fill="#3376B3"/>
<path d="M0.0583496 116.201L0.116402 113.388C3.86078 113.388 6.67633 116.114 6.06678 119.826L3.04805 119.768C3.04805 117.651 2.40947 116.172 0.0583496 116.201Z" fill="#709FDC"/>
<path d="M47.6321 51.0391H27.8652V33.5524H47.6321V47.3271H31.5806V36.7713L43.9167 36.8003V44.1372H35.2959V39.9323H40.2014" stroke="#3D95D1" stroke-width="2" stroke-miterlimit="10"/>
<path d="M97.0056 50.6913L79.9382 33.8136" stroke="#0E2951" stroke-width="4" stroke-miterlimit="10"/>
<path d="M79.9382 50.6913L97.0056 33.8136" stroke="#0E2951" stroke-width="4" stroke-miterlimit="10"/>
<path d="M59.3589 71.1067H55.3533V67.5688L59.3589 67.5398V71.1067Z" fill="#B9D5FD"/>
<path d="M64.8738 66.235L60.8682 66.206V62.6681L64.8738 62.6971V66.235Z" fill="#B9D5FD"/>
<path d="M70.3887 61.3341L66.3831 61.3631V57.7962H70.3887V61.3341Z" fill="#B9D5FD"/>
<path d="M19.1576 48.081H0.0873758L0.0583496 31.1453L19.1576 31.2323V48.081Z" fill="#053866"/>
<path d="M14.049 43.5281H0.0873758L0.0583496 31.1453L14.049 31.2033V43.5281Z" fill="#709FDC"/>
<path d="M12.6258 75.6016H0.0864258V64.5238L12.6258 64.4948V75.6016Z" fill="#3D95D1"/>
<path d="M66.9057 3.1611L23.3084 2.7841L0.0583496 31.1456L43.975 31.2036L66.9057 3.1611Z" fill="#165B93"/>
<path d="M123.245 1.53697L123.623 0.60899L123.855 0" fill="#34DD17"/>
<path d="M123.971 3.30579L76.4263 3.1608L55.3533 31.2903L100.373 31.1743L123.971 3.30579Z" fill="#165B93"/>
<path d="M112.216 9.4829L100.373 31.1745L0.0583496 31.1455L11.843 9.27991L112.216 9.4829Z" fill="#9CCEF7"/>
<path d="M114.073 7.48203L123.971 3.30609L23.3077 2.7841L13.4678 7.13403L114.073 7.48203Z" fill="#9CCEF7"/>
<path d="M100.568 53.1429H0V97.7143H100.568V53.1429Z" fill="#A8D2FC"/>
<path d="M12.3172 79.5714V70.2334H3.91716V79.5714H5.90516V71.9834H10.3152V79.5714H12.3172ZM17.9794 79.7394C19.7154 79.7394 20.9754 78.4374 20.9754 76.1834C20.9754 73.9294 19.7154 72.6414 17.9794 72.6414C17.1534 72.6414 16.4114 73.0054 15.8934 73.6634V72.8094H14.1154V82.1474H15.8934V78.7034C16.4394 79.4034 17.1814 79.7394 17.9794 79.7394ZM17.4194 78.1574C16.8454 78.1574 16.1874 77.8074 15.8934 77.3874V74.9934C16.1874 74.5594 16.8454 74.2234 17.4194 74.2234C18.4414 74.2234 19.1274 75.0214 19.1274 76.1834C19.1274 77.3594 18.4414 78.1574 17.4194 78.1574ZM25.4135 79.7394C27.6535 79.7394 28.9975 78.1154 28.9975 76.1834C28.9975 74.2654 27.6535 72.6414 25.4135 72.6414C23.1875 72.6414 21.8435 74.2654 21.8435 76.1834C21.8435 78.1154 23.1875 79.7394 25.4135 79.7394ZM25.4135 78.1574C24.3075 78.1574 23.6915 77.2474 23.6915 76.1834C23.6915 75.1334 24.3075 74.2234 25.4135 74.2234C26.5195 74.2234 27.1495 75.1334 27.1495 76.1834C27.1495 77.2474 26.5195 78.1574 25.4135 78.1574ZM29.6866 81.2934H31.4786V79.5714H35.6366V81.2934H37.4146V78.0174H36.6726V72.8094H31.1986L30.7646 76.0854C30.5546 77.7234 30.2326 77.9894 29.6866 78.0874V81.2934ZM32.7526 74.3634H34.8946V78.0174H31.7586C32.1786 77.6254 32.4446 77.0234 32.5426 76.1974L32.7526 74.3634ZM42.9434 79.5714C44.3014 79.5714 45.0294 78.7594 45.0294 77.7374C45.0294 76.9254 44.4834 76.2534 43.7414 76.0854C44.3714 75.9034 44.8894 75.3574 44.8894 74.5454C44.8894 73.6354 44.1894 72.8094 42.8174 72.8094H38.5334V79.5714H42.9434ZM42.5094 78.1154H40.3114V76.8554H42.5094C42.9574 76.8554 43.2094 77.1494 43.2094 77.4854C43.2094 77.8774 42.9434 78.1154 42.5094 78.1154ZM42.4534 75.3994H40.3114V74.2654H42.4534C42.8454 74.2654 43.0834 74.5034 43.0834 74.8394C43.0834 75.1474 42.8454 75.3994 42.4534 75.3994ZM48.4445 79.5714L51.3145 75.3294V79.5714H53.0925V72.8094H51.3005L48.5145 76.8974V72.8094H46.7365V79.5714H48.4445ZM56.2016 79.5714L58.0076 76.9674L58.3296 77.3174V79.5714H60.1216V77.3174L60.4436 76.9674L62.2496 79.5714H64.4616L61.7176 75.8754L64.3776 72.8094H62.1936L60.1216 75.2594V72.8094H58.3296V75.2594L56.2576 72.8094H54.0736L56.7336 75.8754L53.9896 79.5714H56.2016ZM68.4536 79.7394C69.5036 79.7394 70.5676 79.4174 71.2396 78.8014L70.4556 77.6534C70.0216 78.0734 69.2236 78.3254 68.6496 78.3254C67.5016 78.3254 66.8156 77.6114 66.7036 76.7574H71.7296V76.3654C71.7296 74.1534 70.3576 72.6414 68.3416 72.6414C66.2836 72.6414 64.8416 74.2234 64.8416 76.1834C64.8416 78.3534 66.3956 79.7394 68.4536 79.7394ZM70.0076 75.5534H66.6756C66.7596 74.8814 67.2356 74.0554 68.3416 74.0554C69.5176 74.0554 69.9656 74.9094 70.0076 75.5534ZM74.7918 79.5714V76.8694H77.5918V79.5714H79.3698V72.8094H77.5918V75.3154H74.7918V72.8094H73.0138V79.5714H74.7918ZM82.8429 79.5714L85.7129 75.3294V79.5714H87.4909V72.8094H85.6989L82.9129 76.8974V72.8094H81.1349V79.5714H82.8429ZM92.434 79.7394C93.484 79.7394 94.548 79.4174 95.22 78.8014L94.436 77.6534C94.002 78.0734 93.204 78.3254 92.63 78.3254C91.482 78.3254 90.796 77.6114 90.684 76.7574H95.71V76.3654C95.71 74.1534 94.338 72.6414 92.322 72.6414C90.264 72.6414 88.822 74.2234 88.822 76.1834C88.822 78.3534 90.376 79.7394 92.434 79.7394ZM93.988 75.5534H90.656C90.74 74.8814 91.216 74.0554 92.322 74.0554C93.498 74.0554 93.946 74.9094 93.988 75.5534Z" fill="black"/>
</g>
<defs>
<clipPath id="clip0">
<rect width="124" height="120" fill="white"/>
</clipPath>
</defs>
</svg>
