<svg width="340" height="235" viewBox="0 0 340 235" fill="none" xmlns="http://www.w3.org/2000/svg">
<g clip-path="url(#clip0)">
<g filter="url(#filter0_d)">
<path d="M173.679 228.206L5 175.296L163.369 125.473L334.617 175.296L173.679 228.206Z" fill="#FFF5F7"/>
</g>
<g filter="url(#filter1_di)">
<rect x="121.245" y="52.7456" width="17.5898" height="17.6333" rx="2" fill="#A62E41"/>
<path fill-rule="evenodd" clip-rule="evenodd" d="M129.921 64.6739H130.587C130.587 64.6739 130.788 64.6518 130.891 64.5408C130.985 64.439 130.982 64.2476 130.982 64.2476C130.982 64.2476 130.969 63.3519 131.384 63.22C131.793 63.0901 132.318 64.0857 132.874 64.4685C133.295 64.7582 133.615 64.6947 133.615 64.6947L135.102 64.6739C135.102 64.6739 135.881 64.6259 135.512 64.0125C135.481 63.9623 135.297 63.5587 134.405 62.7294C133.473 61.8614 133.598 62.0018 134.721 60.5004C135.406 59.5861 135.679 59.0278 135.594 58.7887C135.512 58.561 135.009 58.6212 135.009 58.6212L133.334 58.6317C133.334 58.6317 133.21 58.6147 133.118 58.6699C133.028 58.724 132.97 58.8502 132.97 58.8502C132.97 58.8502 132.705 59.5577 132.351 60.1595C131.605 61.4292 131.307 61.4962 131.185 61.4174C130.901 61.2336 130.972 60.6792 130.972 60.2853C130.972 59.0548 131.158 58.5418 130.61 58.409C130.428 58.3648 130.294 58.3357 129.828 58.331C129.23 58.3248 128.724 58.3329 128.438 58.4736C128.247 58.5671 128.1 58.7756 128.19 58.7875C128.301 58.8024 128.551 58.8553 128.684 59.0368C128.856 59.2709 128.85 59.7967 128.85 59.7967C128.85 59.7967 128.948 61.2451 128.619 61.4251C128.394 61.5485 128.084 61.2965 127.419 60.1446C127.078 59.5545 126.821 58.9023 126.821 58.9023C126.821 58.9023 126.771 58.7804 126.683 58.7152C126.576 58.6362 126.425 58.6111 126.425 58.6111L124.834 58.6215C124.834 58.6215 124.595 58.6282 124.507 58.7323C124.429 58.825 124.501 59.0166 124.501 59.0166C124.501 59.0166 125.747 61.9394 127.158 63.4122C128.452 64.7626 129.921 64.6739 129.921 64.6739Z" fill="white"/>
</g>
<g filter="url(#filter2_di)">
<rect x="209.194" y="52.7456" width="17.5898" height="17.6333" rx="2" fill="#A62E41"/>
<path fill-rule="evenodd" clip-rule="evenodd" d="M223.449 59.1689C223.449 59.1689 223.34 58.3874 223.006 58.0433C222.582 57.5914 222.107 57.5893 221.89 57.5631C220.331 57.4482 217.992 57.4482 217.992 57.4482H217.988C217.988 57.4482 215.649 57.4482 214.09 57.5631C213.872 57.5893 213.398 57.5914 212.974 58.0433C212.64 58.3874 212.531 59.1689 212.531 59.1689C212.531 59.1689 212.42 60.0869 212.42 61.0045V61.865C212.42 62.7829 212.531 63.7006 212.531 63.7006C212.531 63.7006 212.64 64.4821 212.974 64.8262C213.398 65.2781 213.954 65.2639 214.202 65.3111C215.094 65.3983 217.99 65.4252 217.99 65.4252C217.99 65.4252 220.331 65.4217 221.89 65.3069C222.107 65.2803 222.582 65.2782 223.006 64.8263C223.34 64.4821 223.449 63.7007 223.449 63.7007C223.449 63.7007 223.56 62.783 223.56 61.865V61.0045C223.56 60.0869 223.449 59.1689 223.449 59.1689ZM216.84 62.9078L216.839 59.7212L219.849 61.32L216.84 62.9078Z" fill="white"/>
</g>
<g filter="url(#filter3_di)">
<rect x="146.866" y="28.9795" width="17.5898" height="17.6333" rx="2" fill="#A62E41"/>
<path d="M158.298 46.6125V40.3429H160.383L160.904 37.7305H158.298V36.6856C158.298 35.6407 158.82 35.1182 159.862 35.1182H160.904V32.5059C160.383 32.5059 159.736 32.5059 158.819 32.5059C156.904 32.5059 155.692 34.0111 155.692 36.1631V37.7305H153.607V40.3429H155.692V46.6125H158.298Z" fill="white"/>
</g>
<g filter="url(#filter4_di)">
<rect x="183.575" y="28.9795" width="17.5898" height="17.6333" rx="2" fill="#A62E41"/>
<path d="M192.37 34.8911C190.798 34.8911 189.495 36.1745 189.495 37.7731C189.495 39.3717 190.775 40.6551 192.37 40.6551C193.965 40.6551 195.245 39.3492 195.245 37.7731C195.245 36.197 193.942 34.8911 192.37 34.8911ZM192.37 39.6194C191.359 39.6194 190.528 38.7863 190.528 37.7731C190.528 36.7599 191.359 35.9268 192.37 35.9268C193.381 35.9268 194.212 36.7599 194.212 37.7731C194.212 38.7863 193.381 39.6194 192.37 39.6194Z" fill="white"/>
<path d="M195.358 35.4763C195.718 35.4763 196.009 35.184 196.009 34.8234C196.009 34.4627 195.718 34.1704 195.358 34.1704C194.998 34.1704 194.707 34.4627 194.707 34.8234C194.707 35.184 194.998 35.4763 195.358 35.4763Z" fill="white"/>
<path d="M197.041 33.1351C196.457 32.5271 195.626 32.2119 194.683 32.2119H190.056C188.102 32.2119 186.799 33.5178 186.799 35.4767V40.0924C186.799 41.0606 187.114 41.8936 187.743 42.5016C188.349 43.087 189.158 43.3797 190.078 43.3797H194.66C195.626 43.3797 196.435 43.0645 197.019 42.5016C197.625 41.9162 197.94 41.0831 197.94 40.1149V35.4767C197.94 34.531 197.625 33.7205 197.041 33.1351ZM196.951 40.1149C196.951 40.8129 196.704 41.3758 196.3 41.7585C195.896 42.1413 195.334 42.344 194.66 42.344H190.078C189.405 42.344 188.843 42.1413 188.439 41.7585C188.035 41.3533 187.832 40.7904 187.832 40.0924V35.4767C187.832 34.8012 188.035 34.2383 188.439 33.833C188.821 33.4503 189.405 33.2476 190.078 33.2476H194.705C195.379 33.2476 195.941 33.4503 196.345 33.8556C196.727 34.2608 196.951 34.8237 196.951 35.4767V40.1149Z" fill="white"/>
</g>
<g filter="url(#filter5_di)">
<path d="M98.8631 20.2658L86.9885 15.77C86.1772 15.4657 85.2794 15.4979 84.4915 15.8595C83.7036 16.2212 83.0895 16.8829 82.7836 17.7L80.9171 22.7186C80.616 23.5377 80.6481 24.4437 81.0064 25.2391C81.3646 26.0344 82.02 26.6545 82.8295 26.9641L85.7008 28.0505C86.5789 29.86 86.9701 31.2597 87.4441 31.4377C87.918 31.6156 89.3124 30.6961 90.9638 30.0416L94.704 31.4562C95.5152 31.7601 96.4125 31.7279 97.2002 31.3667C97.988 31.0055 98.6022 30.3446 98.909 29.5281L100.774 24.5076C101.075 23.6893 101.043 22.7838 100.685 21.989C100.327 21.1941 99.6723 20.5746 98.8631 20.2658Z" fill="url(#paint0_linear)"/>
<path d="M94.9147 24.2134C95.4144 22.8896 94.7622 21.5567 93.7317 21.1599C93.3151 20.9981 92.8581 20.9757 92.428 21.0963C91.9979 21.2168 91.6177 21.4738 91.3435 21.8292C91.3738 21.3794 91.2599 20.9316 91.0188 20.5521C90.7777 20.1725 90.422 19.8813 90.0043 19.7213C88.9738 19.3227 87.6162 19.8789 87.1055 21.2044C86.3486 23.2085 88.5255 26.6754 89.1869 27.2056L89.2254 27.2353C89.2441 27.248 89.2637 27.2592 89.2842 27.2686C89.3052 27.2755 89.3267 27.2805 89.3485 27.2835H89.3981C90.245 27.3372 94.1579 26.2156 94.9147 24.2134Z" fill="#FCFCFC"/>
</g>
<g filter="url(#filter6_di)">
<path d="M179.734 9.57572L172.027 11.6155C171.501 11.7564 171.05 12.0992 170.77 12.5692C170.491 13.0391 170.407 13.598 170.536 14.1236L171.337 17.3472C171.47 17.872 171.805 18.3197 172.269 18.5927C172.733 18.8656 173.29 18.9417 173.816 18.8042L175.679 18.3106C176.768 18.9087 177.462 19.4761 177.769 19.3939C178.076 19.3117 178.472 18.3383 179.094 17.4058L181.521 16.7625C182.047 16.6215 182.498 16.2788 182.778 15.8092C183.057 15.3395 183.142 14.7809 183.013 14.2553L182.21 11.0315C182.078 10.5069 181.744 10.0593 181.28 9.7865C180.815 9.51371 180.26 9.43793 179.734 9.57572V9.57572Z" fill="url(#paint1_linear)"/>
</g>
<path d="M179.083 13.0065C178.874 12.1551 178.067 11.7182 177.395 11.8925C177.123 11.9623 176.879 12.1173 176.7 12.3348C176.52 12.5523 176.415 12.8207 176.398 13.1003C176.255 12.8617 176.039 12.6767 175.78 12.5724C175.522 12.4682 175.235 12.4503 174.963 12.5214C174.291 12.6948 173.786 13.4703 173.99 14.3267C174.307 15.6159 176.654 16.5773 177.182 16.6048L177.213 16.6058C177.227 16.6054 177.241 16.6039 177.255 16.6013C177.268 16.5971 177.281 16.5918 177.293 16.5854L177.319 16.5673C177.775 16.2863 179.399 14.2948 179.083 13.0065Z" fill="#FCFCFC"/>
<g filter="url(#filter7_di)">
<path d="M290.642 126.628L281.859 128.941C281.26 129.101 280.746 129.491 280.428 130.027C280.111 130.563 280.016 131.201 280.164 131.801L281.085 135.483C281.237 136.082 281.62 136.594 282.15 136.907C282.68 137.219 283.314 137.307 283.914 137.151L286.037 136.592C287.28 137.277 288.073 137.926 288.423 137.833C288.773 137.739 289.222 136.629 289.929 135.566L292.695 134.836C293.294 134.676 293.808 134.286 294.126 133.75C294.443 133.215 294.539 132.577 294.391 131.977L293.469 128.295C293.317 127.696 292.935 127.184 292.405 126.872C291.875 126.559 291.241 126.472 290.642 126.628V126.628Z" fill="url(#paint2_linear)"/>
<path d="M289.909 130.547C289.669 129.574 288.748 129.073 287.982 129.271C287.672 129.35 287.394 129.526 287.19 129.774C286.985 130.022 286.866 130.328 286.848 130.647C286.684 130.374 286.437 130.163 286.142 130.043C285.847 129.923 285.52 129.902 285.21 129.983C284.444 130.179 283.87 131.063 284.104 132.041C284.467 133.514 287.145 134.617 287.748 134.65L287.782 134.651C287.798 134.651 287.814 134.649 287.83 134.646C287.845 134.641 287.86 134.635 287.874 134.628L287.903 134.607C288.423 134.288 290.271 132.018 289.909 130.547Z" fill="#FCFCFC"/>
</g>
<g filter="url(#filter8_di)">
<path d="M267.861 46.7256L255.749 50.4819C254.922 50.7394 254.209 51.3003 253.766 52.0419C253.324 52.7834 253.187 53.6455 253.386 54.4395L254.626 59.3048C254.83 60.0974 255.353 60.7559 256.08 61.1363C256.808 61.5167 257.681 61.588 258.509 61.3348L261.437 60.4289C263.146 61.2542 264.249 62.0577 264.719 61.9261C265.19 61.7944 265.836 60.2593 266.815 58.7788L270.615 57.5671C271.442 57.3095 272.155 56.7487 272.598 56.0071C273.04 55.2655 273.177 54.4035 272.978 53.6094L271.741 48.7425C271.532 47.9542 271.009 47.3006 270.282 46.9231C269.556 46.5457 268.686 46.4747 267.861 46.7256V46.7256Z" fill="url(#paint3_linear)"/>
<path d="M259.403 55.0996L260.268 58.3286C260.326 58.5454 260.566 58.666 260.804 58.5978L262.082 58.2317C262.32 58.1636 262.466 57.9326 262.408 57.7158L261.543 54.4867C261.485 54.2699 261.245 54.1494 261.007 54.2176L259.729 54.5837C259.491 54.6518 259.345 54.8828 259.403 55.0996Z" fill="#FCFCFC"/>
<path d="M266.395 52.9274L266.33 52.9629C266.475 52.8881 266.592 52.7689 266.662 52.6258C266.731 52.4826 266.749 52.3243 266.711 52.178C266.673 52.0317 266.583 51.9065 266.455 51.8238C266.327 51.741 266.17 51.7059 266.01 51.7244L263.906 52.3677C264.127 51.8214 264.205 51.2404 264.132 50.6789C263.926 49.8838 263.353 49.5815 263.037 49.6254C262.903 49.6388 262.775 49.7002 262.679 49.7972C262.583 49.8943 262.526 50.02 262.519 50.1493C262.494 50.4172 262.764 50.8233 262.749 51.0048C262.719 51.2835 262.351 51.7541 261.907 52.7137C261.677 53.2429 261.641 53.8187 261.804 54.3422L262.089 55.441L262.369 56.5387L262.502 57.0488C262.515 57.0994 262.538 57.1463 262.571 57.1868C262.603 57.2273 262.644 57.2607 262.691 57.2849C262.738 57.3091 262.791 57.3238 262.845 57.3281C262.9 57.3324 262.956 57.3262 263.009 57.3098L266.92 56.1164C266.984 56.0988 267.045 56.0691 267.099 56.0293C267.153 55.9894 267.198 55.9401 267.233 55.8843C267.268 55.8285 267.292 55.7673 267.302 55.7044C267.313 55.6415 267.31 55.5781 267.295 55.5181C267.279 55.4581 267.251 55.4026 267.212 55.3549C267.173 55.3073 267.123 55.2684 267.067 55.2407C267.01 55.213 266.947 55.197 266.882 55.1936C266.817 55.1902 266.751 55.1995 266.688 55.221L266.75 55.1872C266.83 55.1672 266.907 55.1319 266.975 55.0835C267.043 55.0351 267.101 54.9745 267.145 54.9055C267.19 54.8365 267.219 54.7605 267.233 54.6822C267.247 54.6039 267.244 54.525 267.225 54.4502C267.205 54.3754 267.17 54.3064 267.121 54.2474C267.072 54.1884 267.01 54.1406 266.939 54.107C266.868 54.0734 266.789 54.0546 266.708 54.0519C266.627 54.0492 266.545 54.0625 266.467 54.0912L266.683 54.0245C266.763 54.0046 266.839 53.9693 266.907 53.9209C266.975 53.8724 267.033 53.8119 267.078 53.7428C267.122 53.6738 267.152 53.5979 267.166 53.5196C267.18 53.4413 267.177 53.3624 267.157 53.2876C267.138 53.2128 267.103 53.1438 267.054 53.0848C267.004 53.0258 266.942 52.978 266.871 52.9444C266.8 52.9108 266.722 52.892 266.641 52.8893C266.56 52.8866 266.478 52.8999 266.399 52.9286L266.395 52.9274Z" fill="#FCFCFC"/>
</g>
<g filter="url(#filter9_di)">
<path d="M109.468 99.1816L97.1628 102.98C96.3227 103.241 95.5997 103.811 95.1516 104.566C94.7036 105.322 94.5671 106.201 94.7718 107.011L96.0464 111.979C96.2558 112.788 96.7891 113.461 97.53 113.851C98.2709 114.241 99.1589 114.317 100 114.061L102.975 113.145C104.715 113.991 105.838 114.814 106.316 114.681C106.795 114.548 107.447 112.984 108.438 111.476L112.299 110.25C113.139 109.99 113.862 109.42 114.31 108.664C114.758 107.909 114.895 107.03 114.69 106.219L113.418 101.25C113.204 100.445 112.67 99.777 111.931 99.3899C111.191 99.0028 110.307 98.9279 109.468 99.1816V99.1816Z" fill="url(#paint4_linear)"/>
<path d="M100.89 107.716L101.776 111.015C101.835 111.236 102.079 111.36 102.321 111.292L103.62 110.923C103.862 110.854 104.01 110.619 103.951 110.397L103.065 107.098C103.006 106.877 102.762 106.753 102.52 106.821L101.221 107.19C100.979 107.259 100.831 107.494 100.89 107.716Z" fill="#FCFCFC"/>
<path d="M107.993 105.528L107.927 105.564C108.075 105.488 108.194 105.367 108.264 105.221C108.335 105.075 108.352 104.914 108.313 104.764C108.274 104.615 108.182 104.487 108.052 104.402C107.922 104.317 107.762 104.28 107.6 104.299L105.462 104.947C105.686 104.39 105.763 103.798 105.688 103.224C105.477 102.412 104.893 102.102 104.572 102.145C104.436 102.158 104.306 102.22 104.208 102.319C104.111 102.418 104.053 102.546 104.046 102.678C104.022 102.951 104.297 103.366 104.282 103.551C104.252 103.836 103.88 104.314 103.43 105.292C103.198 105.831 103.162 106.418 103.329 106.953L103.621 108.076L103.908 109.197L104.045 109.718C104.058 109.769 104.082 109.817 104.115 109.859C104.148 109.9 104.19 109.935 104.238 109.959C104.286 109.984 104.339 110 104.395 110.004C104.45 110.009 104.507 110.003 104.561 109.986L108.534 108.784C108.6 108.766 108.661 108.736 108.716 108.696C108.771 108.655 108.817 108.605 108.852 108.548C108.888 108.491 108.912 108.429 108.922 108.365C108.933 108.301 108.93 108.236 108.914 108.175C108.898 108.113 108.869 108.057 108.829 108.008C108.789 107.959 108.739 107.919 108.682 107.891C108.624 107.862 108.56 107.846 108.494 107.842C108.428 107.838 108.361 107.848 108.297 107.869L108.359 107.835C108.441 107.815 108.519 107.779 108.588 107.73C108.657 107.681 108.716 107.619 108.761 107.549C108.806 107.479 108.836 107.401 108.85 107.322C108.863 107.242 108.86 107.161 108.84 107.085C108.821 107.008 108.785 106.938 108.734 106.878C108.684 106.817 108.621 106.768 108.549 106.734C108.477 106.699 108.397 106.679 108.314 106.676C108.232 106.673 108.148 106.687 108.069 106.715L108.288 106.648C108.37 106.628 108.448 106.593 108.517 106.543C108.586 106.494 108.645 106.433 108.69 106.362C108.735 106.292 108.765 106.215 108.779 106.135C108.792 106.055 108.789 105.975 108.769 105.898C108.75 105.822 108.714 105.751 108.663 105.691C108.613 105.631 108.55 105.582 108.478 105.547C108.406 105.512 108.326 105.493 108.243 105.49C108.161 105.487 108.077 105.5 107.998 105.529L107.993 105.528Z" fill="#FCFCFC"/>
</g>
<g filter="url(#filter10_f)">
<path d="M176.757 140.885L122.155 159.252L138.683 184.58L214.536 186.358L200.516 168.88L176.757 140.885Z" fill="url(#paint5_linear)"/>
</g>
<path d="M189.301 92.8937C178.483 96.9423 166.644 97.3442 158.901 92.8937C158.901 92.8937 155.755 78.2919 158.901 69.7868C161.262 60.3071 170.032 57.6553 176.757 58.6778C176.757 58.6778 178.01 57.277 181.179 58.6777C191.219 65.4913 190.186 77.6372 189.301 92.8937Z" fill="#412716"/>
<path d="M187.53 71.5274C183.399 73.0702 180.147 71.5653 175.743 71.5273C169.47 71.5273 166.069 73.8218 162 71.5273C159.522 78.6711 156.64 82.3772 158.951 94.2269C161.262 106.076 160.602 109.986 162.406 115.989C173.515 122.702 178.372 123.35 186.323 115.973C186.323 115.973 185.021 107.113 189.006 96.7449C191.515 86.3765 189.791 80.4061 188.495 74.771C188.259 73.5811 187.832 72.5342 187.53 71.5274Z" fill="#3C2415"/>
<path d="M173.423 73.6377C165.909 73.6377 161.031 99.5184 161.781 122.633C171.041 126.161 178.407 127.953 188.204 121.222C189.053 99.3914 181.277 73.6377 173.423 73.6377Z" fill="#3B2415"/>
<path d="M158.231 105.063C158.231 105.063 161.261 103.155 165.892 101.557C167.259 101.086 168.498 100.132 168.746 98.7074C169.094 96.713 168.734 94.7693 168.734 92.2967L180.465 91.2427C180.465 91.2427 180.24 94.4117 180.489 97.7514C180.648 99.8833 182.412 101.432 184.471 102.008C185.404 102.269 186.647 102.636 188.475 103.171C190.524 103.171 174.177 121.793 174.177 121.793L158.231 105.063Z" fill="#FFCFAE"/>
<path d="M189.307 139.793L194.673 168.077C194.673 168.077 185.345 172.834 174.668 172.834C168.027 172.893 161.479 171.256 155.644 168.077L160.247 139.793L160.494 127.113C156.793 124.322 158.065 116.759 158.065 116.759L155.644 105.763L162.922 102.658L166.561 101.106L167.643 103.524C170.983 108.891 177.39 108.929 181.384 103.132L182.642 101.106L187.225 102.658L194.758 105.143L192.08 117.242C192.08 117.242 192.881 124.234 189.307 127.496V139.793Z" fill="#E63067"/>
<path d="M188.108 128.642C188.108 128.642 177.807 135.94 162.974 129.083C162.974 129.083 176.827 132.822 188.108 128.642Z" fill="#C11C57"/>
<path d="M159.906 117.092C159.906 117.092 154.637 132.571 150.566 140.382C150.566 140.382 161.156 147.281 167.229 153.344C167.229 153.344 165.866 161.657 163.494 158.56C163.494 158.56 147.026 148.745 143.068 142.891C143.068 142.891 148.455 111.296 155.651 105.763C158.167 109.028 159.649 112.974 159.906 117.092Z" fill="#E63067"/>
<path d="M190.41 117.092C190.41 117.092 194.81 133.407 198.888 141.219C198.888 141.219 193.889 144.773 182.642 153.971L187.016 157.525C187.016 157.525 202.171 147.714 205.295 142.905C205.295 142.905 200.079 111.175 194.758 105.108C192.265 108.64 190.763 112.779 190.41 117.092Z" fill="#E63067"/>
<path d="M128.935 154.29C128.935 154.29 136.519 151.795 151.606 156.062L152.647 159.198L128.935 154.29Z" fill="#06264A"/>
<path d="M197.16 158.291L219.752 154.136C219.752 154.136 211.142 152.403 197.332 155.878" fill="#06264A"/>
<path d="M174.87 171.06C185.293 171.06 193.742 168.041 193.742 164.316C193.742 160.592 185.293 157.572 174.87 157.572C164.448 157.572 155.999 160.592 155.999 164.316C155.999 168.041 164.448 171.06 174.87 171.06Z" fill="#06264A"/>
<path d="M154.84 162.991L193.693 163.148C194.54 163.147 195.361 162.86 196.024 162.334C196.687 161.808 197.153 161.074 197.347 160.251L198.596 138.794C198.732 138.039 198.7 137.263 198.501 136.522C198.303 135.78 197.944 135.092 197.449 134.505C196.954 133.918 196.336 133.448 195.639 133.127C194.941 132.806 194.182 132.643 193.414 132.649L155.507 133.009C154.736 133.016 153.976 133.193 153.281 133.528C152.587 133.862 151.975 134.346 151.489 134.944C151.003 135.542 150.655 136.24 150.47 136.988C150.286 137.736 150.269 138.516 150.42 139.272L151.303 160.497C151.564 161.226 152.043 161.857 152.676 162.304C153.309 162.75 154.065 162.991 154.84 162.991Z" fill="#EDF5FF" stroke="#71A0DD" stroke-width="0.3"/>
<path d="M184.53 132.797L155.505 133.009C154.734 133.016 153.974 133.193 153.279 133.527C152.585 133.862 151.973 134.345 151.487 134.943C151.001 135.542 150.653 136.24 150.468 136.988C150.284 137.736 150.267 138.516 150.418 139.271L151.467 160.737C151.728 161.466 152.207 162.097 152.84 162.544C153.473 162.99 154.229 163.23 155.003 163.231H164.651L184.53 132.797Z" fill="url(#paint6_linear)"/>
<path d="M174.588 152.046C177.145 152.046 179.218 150.131 179.218 147.769C179.218 145.406 177.145 143.491 174.588 143.491C172.031 143.491 169.958 145.406 169.958 147.769C169.958 150.131 172.031 152.046 174.588 152.046Z" fill="#61A6FF"/>
<path d="M152.467 158.807C149.436 157.203 146.172 156.094 142.796 155.519C139.714 154.988 135.633 154.378 131.449 154.021C128.006 153.73 127.232 156.045 127.49 158.807C127.935 163.573 131.532 169.098 136.045 170.603C143.737 173.151 158.398 177.736 175.071 181.49C175.071 181.49 178.23 176.303 177.005 171.919L173.865 170.136L152.467 158.807Z" fill="#0A3D76"/>
<path d="M162.991 178.386C162.991 178.386 160.455 176.725 159.201 178.273C157.957 179.906 157.932 179.598 156.528 179.684C155.115 179.683 150.29 178.01 145.154 176.55C140.027 175.176 135.527 179.909 137.32 183.609C139.113 187.308 149.35 185.206 151.874 185.506C154.398 185.806 154.852 186.186 157.132 185.732C159.412 185.278 165.612 185.986 165.746 184.053C165.807 182.216 163.982 179.135 162.991 178.386Z" fill="#B4D1FA" stroke="#263238" stroke-width="0.5" stroke-miterlimit="10" stroke-linecap="round" stroke-linejoin="round"/>
<path d="M141.467 185.55C141.951 182.88 141.158 179.078 140.558 176.958C137.591 178.296 135.928 181.449 137.342 183.929C137.927 184.935 139.514 185.406 141.467 185.55Z" fill="#C43B55" stroke="#263238" stroke-width="0.5" stroke-miterlimit="10" stroke-linecap="round" stroke-linejoin="round"/>
<mask id="mask0" mask-type="alpha" maskUnits="userSpaceOnUse" x="136" y="176" width="30" height="11">
<path d="M162.906 178.353C162.906 178.353 160.359 176.921 159.127 178.442C157.393 180.197 157.88 179.745 156.501 179.828C155.113 179.827 150.412 178.111 145.366 176.676C140.355 175.167 135.51 179.359 137.348 183.718C139.018 186.904 149.402 185.1 151.882 185.395C154.361 185.69 154.986 186.009 157.227 185.563C159.467 185.117 165.448 185.952 165.579 184.054C165.639 182.249 163.88 179.089 162.906 178.353Z" fill="#B4D1FA" stroke="#263238" stroke-width="0.5" stroke-miterlimit="10" stroke-linecap="round" stroke-linejoin="round"/>
</mask>
<g mask="url(#mask0)">
<path d="M144.024 185.761C143.646 183.522 143.145 177.212 142.118 175.84M147.016 186.526C146.784 184.066 145.858 177.328 144.59 176.096M150.084 186.389C150.007 183.976 149.111 178.023 148.105 177.294M153.301 185.287C153.086 183.363 152.138 178.669 151.373 177.801M157.493 185.954C156.081 184.228 154.809 178.386 155.308 178.208M161.449 186.364C156.642 183.699 157.64 176.854 160.211 176.43" stroke="#0A3D76" stroke-width="2" stroke-linecap="round"/>
</g>
<path d="M190.49 179.132C190.49 179.132 192.475 176.961 193.729 178.508C194.973 180.142 197.268 180.485 198.671 180.57C200.084 180.569 204.91 178.897 210.045 177.437C215.172 176.062 219.672 180.795 217.879 184.495C216.087 188.195 205.849 186.093 203.326 186.393C200.802 186.693 200.347 187.073 198.067 186.619C195.787 186.165 189.587 186.872 189.453 184.94C189.393 183.103 189.499 179.881 190.49 179.132Z" fill="#B4D1FA" stroke="black" stroke-width="0.5" stroke-miterlimit="10" stroke-linecap="round" stroke-linejoin="round"/>
<path d="M213.545 186.328C213.062 183.657 213.854 179.855 214.454 177.735C217.422 179.074 219.085 182.226 217.671 184.707C217.086 185.713 215.498 186.184 213.545 186.328Z" fill="#C43B55" stroke="#263238" stroke-width="0.5" stroke-miterlimit="10" stroke-linecap="round" stroke-linejoin="round"/>
<mask id="mask1" mask-type="alpha" maskUnits="userSpaceOnUse" x="189" y="176" width="30" height="11">
<path d="M190.436 178.459C190.436 178.459 193.677 177.58 194.909 179.1C196.643 180.855 197.132 180.521 198.512 180.605C199.9 180.604 204.601 178.887 209.647 177.453C214.658 175.944 219.502 180.136 217.665 184.495C215.995 187.681 205.611 185.877 203.131 186.172C200.652 186.466 200.026 186.785 197.786 186.339C195.546 185.893 189.565 186.729 189.434 184.83C189.374 183.026 189.462 179.195 190.436 178.459Z" fill="#B4D1FA" stroke="#263238" stroke-width="0.5" stroke-miterlimit="10" stroke-linecap="round" stroke-linejoin="round"/>
</mask>
<g mask="url(#mask1)">
<path d="M210.989 186.538C211.368 184.299 211.869 177.989 212.895 176.617M207.998 187.303C208.229 184.843 209.156 178.105 210.424 176.873M204.93 187.166C205.007 184.752 205.903 178.799 206.909 178.071M201.713 186.063C201.927 184.14 202.875 179.446 203.64 178.578M197.52 186.731C198.933 185.005 200.204 179.163 199.706 178.985M193.565 187.141C198.372 184.476 197.374 177.631 194.803 177.207" stroke="#0A3D76" stroke-width="2" stroke-linecap="round"/>
</g>
<path d="M191.139 185.562C190.333 185.277 175.412 180.684 175.412 180.684L171.989 181.618C171.989 181.618 167.339 183.374 163.909 184.445C162.237 184.11 159.617 182.783 160.098 179.962C160.341 178.535 161.719 177.604 163.058 177.055C164.391 176.509 166.04 175.779 167.11 175.181C168.788 174.238 171.509 172.63 173.291 171.907C174.635 171.371 174.947 171.168 174.974 171.092L174.871 171.048C174.871 171.048 174.994 171.038 174.974 171.092L189.134 177.178L192.626 178.181C195.643 180.9 195.315 183.382 192.626 185.358C192.308 185.562 191.473 185.73 191.139 185.562Z" fill="#FFCFAE"/>
<path d="M173.807 179.835C173.979 179.72 173.051 180.041 167.969 182.247C165.892 183.149 164.128 183.681 162.646 183.98C162.971 184.324 163.902 184.407 164.244 184.388C165.034 184.241 165.594 184.08 165.653 183.868C168.661 182.777 170.965 182.058 174.494 180.869L173.807 179.835Z" fill="#EAAB85"/>
<path d="M196.522 158.807C199.552 157.203 202.817 156.094 206.193 155.519C209.275 154.988 213.356 154.378 217.54 154.021C221.009 153.73 221.776 156.045 221.518 158.807C221.08 163.573 218.733 169.734 214.22 171.232C206.528 173.787 191.867 178.365 175.194 182.126C175.194 182.126 170.778 176.29 171.971 171.919L175.156 170.136L196.522 158.807Z" fill="#0A3D76"/>
<path d="M161.238 177.681C158.898 179.693 160.068 183.885 163.91 184.388C164.411 184.388 165.48 184.287 165.748 183.885" stroke="black" stroke-width="0.5"/>
<path d="M189.301 185.059C189.7 185.331 191.139 186.065 192.539 185.521C195.983 182.879 194.981 180.867 193.31 178.855C193.199 178.743 192.709 178.017 192.308 178.017" stroke="black" stroke-width="0.5"/>
<g filter="url(#filter11_f)">
<path d="M134.829 169.838C130.296 168.046 128.246 162.542 127.789 160.014C136.203 168.287 147.536 171.734 163.161 176.732L160.929 177.939C154.118 176.043 139.362 171.631 134.829 169.838Z" fill="black" fill-opacity="0.1"/>
</g>
<g filter="url(#filter12_f)">
<path d="M220.513 163.289C212.615 170.7 186.457 177.479 174.151 180.351L175.353 181.902C186.8 179.202 209.867 172.768 214.503 171.044C218.109 169.704 220.113 164.955 220.513 163.289Z" fill="black" fill-opacity="0.1"/>
</g>
<path d="M187.297 184.556L177.584 181.386L178.443 181.213C184.779 183.659 190.137 184.925 191.139 185.562C191.722 185.933 188.711 184.945 187.297 184.556Z" fill="#DCA17D"/>
<path d="M180.017 92.9595C173.516 95.9234 172.834 94.597 169.141 93.1661L169.141 93.2496C173.613 101.525 177.971 97.3333 180.017 93.1661V92.9595Z" fill="#EAAB85"/>
<path d="M163.515 81.2729C163.834 83.2009 164.415 85.4979 165.315 87.6891C168.016 91.8301 170.004 95.7829 174.58 95.7829C178.772 95.7829 180.956 92.2066 183.663 87.6891C184.442 85.8205 184.982 83.8469 185.269 82.0258C185.923 77.8687 181.331 72.2546 181.331 72.2546C181.331 72.2546 180.581 64.9139 176.83 66.6078C170.454 71.5017 166.334 69.1742 163.891 74.8734C162.711 77.627 163.325 74.9487 163.515 81.2729Z" fill="#FFCFAE"/>
<path d="M163.695 81.0801C162.913 79.2033 161.639 78.0631 160.879 78.5306C160.118 78.998 160.083 80.903 160.879 82.7798C161.674 84.6565 162.935 85.7967 163.695 85.3293C164.456 84.8619 164.47 82.9427 163.695 81.0801Z" fill="#FFCFAE"/>
<path d="M163.429 81.7035C162.95 80.5491 162.161 79.848 161.682 80.1383C161.203 80.4287 161.189 81.5972 161.682 82.7516C162.175 83.906 162.943 84.6212 163.429 84.3167C163.914 84.0122 163.914 82.8578 163.429 81.7035Z" fill="#EAAB85"/>
<path d="M164.006 82.7727C163.773 82.107 163.217 81.7671 162.767 82.0645C162.532 82.2674 162.368 82.5407 162.3 82.8442C162.231 83.1476 162.262 83.4652 162.386 83.75C162.626 84.4582 163.175 84.7627 163.626 84.5007C163.875 84.2989 164.048 84.0179 164.117 83.7038C164.186 83.3897 164.147 83.0614 164.006 82.7727Z" fill="#FFCFAE"/>
<path d="M185.325 79.4552C186.229 77.5784 187.52 76.9447 188.213 78.0578C188.907 79.1708 188.429 81.4584 187.52 83.3433C186.611 85.2282 185.325 85.7903 184.948 84.8661C184.249 83.7612 184.426 81.332 185.325 79.4552Z" fill="#FFCFAE"/>
<path d="M185.916 80.8969C186.56 79.785 187.342 79.3699 187.656 79.9689C187.971 80.5679 187.687 81.9596 187.037 83.0631C186.388 84.1666 185.605 84.5973 185.275 83.9886C184.944 83.3798 185.261 81.9998 185.916 80.8969Z" fill="#EAAB85"/>
<path d="M185.324 82.9454C185.583 82.2406 186.031 81.8889 186.326 82.1743C186.62 82.4598 186.64 83.2604 186.386 83.9646C186.131 84.6688 185.678 85.0152 185.384 84.7356C185.09 84.456 185.068 83.6679 185.324 82.9454Z" fill="#FFCFAE"/>
<path d="M163.891 82.0262C162.595 80.2912 161.072 77.0983 162.325 71.631L164.453 70.168C164.453 76.135 162.468 75.8295 163.891 82.0262Z" fill="#412716"/>
<path d="M185.082 82.2145C186.377 80.4794 187.9 77.2866 186.647 71.8193L181.143 70.1846C181.143 76.5843 185.832 76.396 185.082 82.2145Z" fill="#412716"/>
<path d="M165.214 76.931C165.799 76.0281 168.032 73.3876 171.413 75.0335C171.625 75.1372 171.729 75.1793 171.842 75.5818C168.776 74.7784 167.211 75.0595 165.214 76.931Z" fill="#412716"/>
<path d="M183.361 76.931C182.776 76.0282 180.544 73.3876 177.163 75.0335C176.95 75.1372 176.846 75.1793 176.734 75.5818C179.8 74.7784 181.365 75.0595 183.361 76.931Z" fill="#412716"/>
<path d="M175.979 83.444C175.979 82.7925 175.408 80.1084 174.57 80.1084C173.733 80.1084 173.042 82.7925 173.042 83.444C173.116 83.7761 173.299 84.0731 173.563 84.286C173.827 84.4989 174.155 84.615 174.493 84.615C174.831 84.615 175.159 84.4989 175.423 84.286C175.687 84.0731 175.87 83.7761 175.943 83.444H175.979Z" fill="#FFCFAE"/>
<path d="M173.001 84.6616C172.69 84.9764 173.155 85.1347 173.155 85.1347H173.775C173.775 85.1347 174.395 85.7643 175.012 85.1347H175.632C175.632 85.1347 176.097 84.9764 175.788 84.6616" stroke="#EAAB85" stroke-width="0.8" stroke-miterlimit="10" stroke-linejoin="round"/>
<path d="M173.643 79.3916C173.643 79.3916 174.449 80.4178 173.698 83.1561L173.643 79.3916Z" fill="#EAAB85"/>
<path d="M168.436 77.5772C168.959 77.385 169.129 77.4468 169.905 77.4477C170.259 77.4888 170.606 77.5756 170.938 77.7058C170.938 77.7058 171.708 78.4778 171.8 78.5781C171.962 78.7608 171.901 78.9664 171.655 78.9995C171.409 79.0327 171.138 78.9579 170.931 78.9988C169.336 79.2541 168.994 79.3514 168.086 78.9957C167.724 78.8648 167.378 78.6919 167.056 78.4805C167.445 78.0842 167.916 77.7761 168.436 77.5772Z" fill="white"/>
<path d="M169.393 77.7172C169.896 77.7146 170.299 78.1145 170.292 78.6104C170.289 78.8315 170.204 79.0344 170.068 79.1916C169.758 79.3289 169.007 79.249 168.67 79.1919C168.541 79.0371 168.465 78.8379 168.468 78.6201C168.475 78.1241 168.889 77.7199 169.393 77.7172Z" fill="#28160D" stroke="#1C1105" stroke-width="0.2" stroke-miterlimit="10"/>
<path d="M169.373 79.1299C169.085 79.1315 168.855 78.9029 168.859 78.6194C168.863 78.3359 169.1 78.1049 169.387 78.1034C169.675 78.1018 169.905 78.3304 169.901 78.6139C169.897 78.8974 169.66 79.1284 169.373 79.1299Z" fill="black"/>
<path opacity="0.77" d="M169.894 78.6163C169.75 78.6171 169.635 78.5028 169.637 78.361C169.639 78.2193 169.757 78.1037 169.901 78.103C170.045 78.1022 170.16 78.2165 170.158 78.3583C170.156 78.5 170.038 78.6156 169.894 78.6163Z" fill="white"/>
<path d="M171.867 78.8139L170.951 77.8119C170.868 77.722 170.761 77.657 170.643 77.6242L170.263 77.5263C170.07 77.4769 169.869 77.4593 169.669 77.4742L168.694 77.55C168.495 77.5655 168.302 77.6259 168.129 77.7264L167.119 78.3283L166.793 78.3458L167.738 77.5078C167.945 77.3851 168.177 77.3116 168.417 77.2931L169.389 77.2173C169.619 77.1994 169.849 77.2205 170.071 77.2797L170.448 77.3777C170.694 77.4177 170.93 77.5051 171.141 77.6351L172.221 78.8554L171.867 78.8139Z" fill="#D3A688"/>
<path opacity="0.5" d="M171.963 78.8555L171.047 77.8541C170.949 77.7463 170.821 77.6688 170.679 77.6305L170.303 77.5326C170.089 77.477 169.867 77.4576 169.647 77.4753L168.672 77.5511C168.452 77.567 168.239 77.6344 168.05 77.7478L167.056 78.3466" stroke="#0A0001" stroke-width="0.3" stroke-miterlimit="10"/>
<path d="M171.834 78.9995L171.428 78.9987C171.216 78.9978 171.003 79.0188 170.795 79.0612C170.311 79.1647 169.279 79.4201 168.346 79.1255C168.289 79.1075 167.885 78.898 167.831 78.8699L167.316 78.6142" stroke="#472A22" stroke-width="0.2" stroke-miterlimit="10"/>
<path d="M180.148 77.6133C179.632 77.4054 179.46 77.4617 178.685 77.4383C178.329 77.4683 177.98 77.544 177.645 77.6634C177.645 77.6634 176.852 78.409 176.76 78.5062C176.59 78.6832 176.646 78.89 176.891 78.9308C177.135 78.9715 177.409 78.9053 177.615 78.9526C179.202 79.2569 179.544 79.3647 180.459 79.0383C180.826 78.919 181.177 78.7575 181.505 78.5569C181.125 78.1502 180.662 77.8284 180.148 77.6133V77.6133Z" fill="white"/>
<path d="M179.192 77.7311C179.694 77.7545 180.094 78.1703 180.084 78.6598C180.08 78.8917 179.984 79.0986 179.831 79.2496C179.298 79.2755 179.011 79.2526 178.499 79.1943C178.349 79.0285 178.259 78.8103 178.264 78.5751C178.273 78.0856 178.689 77.7077 179.192 77.7311Z" fill="#28160D" stroke="#1C1105" stroke-width="0.2" stroke-miterlimit="10"/>
<path d="M179.164 79.1273C178.877 79.1138 178.649 78.8757 178.655 78.5956C178.66 78.3154 178.897 78.0993 179.185 78.1128C179.472 78.1263 179.7 78.3643 179.694 78.6445C179.689 78.9246 179.451 79.1408 179.164 79.1273Z" fill="black"/>
<path opacity="0.77" d="M179.693 78.6254C179.549 78.6186 179.435 78.4997 179.438 78.3598C179.441 78.2198 179.559 78.1119 179.703 78.1186C179.847 78.1254 179.961 78.2443 179.958 78.3842C179.955 78.5242 179.837 78.6321 179.693 78.6254Z" fill="white"/>
<path d="M176.681 78.7369L177.626 77.7668C177.712 77.6791 177.822 77.6176 177.943 77.5894L178.322 77.5034C178.517 77.4603 178.718 77.449 178.918 77.47L179.893 77.5759C180.092 77.5978 180.283 77.6639 180.453 77.7691L181.443 78.4002L181.769 78.4278L180.848 77.5634C180.645 77.4347 180.415 77.3542 180.175 77.3283L179.202 77.2225C178.974 77.1977 178.744 77.2116 178.521 77.2636L178.139 77.3495C177.892 77.3818 177.654 77.4616 177.438 77.5846L176.329 78.7673L176.681 78.7369Z" fill="#D3A688"/>
<path opacity="0.5" d="M176.587 78.7778L177.531 77.8085C177.632 77.7042 177.762 77.6309 177.905 77.5972L178.285 77.5113C178.494 77.4644 178.71 77.4519 178.924 77.4741L179.897 77.5799C180.116 77.6026 180.328 77.6764 180.513 77.7952L181.509 78.4234" stroke="#0A0001" stroke-width="0.3" stroke-miterlimit="10"/>
<path d="M176.71 78.928L177.115 78.9397C177.329 78.9453 177.541 78.9727 177.749 79.0215C178.23 79.1394 179.253 79.4254 180.194 79.1605C180.254 79.1444 180.661 78.9479 180.716 78.9215C180.912 78.8307 180.716 78.9215 181.238 78.6826" stroke="#472A22" stroke-width="0.2" stroke-miterlimit="10"/>
<path d="M177.921 88.0952L177.921 88.0952L177.921 88.093C178.004 87.6379 177.609 87.3033 177.206 87.308L171.569 87.3738C171.166 87.3785 170.785 87.7232 170.881 88.1734L170.881 88.1734L170.882 88.1754C171.046 88.9108 171.497 89.5663 172.147 90.0314C172.797 90.4962 173.608 90.7435 174.438 90.7341C175.268 90.7248 176.072 90.4594 176.708 89.9799C177.345 89.5 177.777 88.8343 177.921 88.0952Z" fill="#920E08" stroke="#EA908A" stroke-width="0.4"/>
<mask id="mask2" mask-type="alpha" maskUnits="userSpaceOnUse" x="171" y="87" width="7" height="4">
<path d="M177.209 87.508C177.516 87.5044 177.78 87.7544 177.724 88.0571C177.591 88.7438 177.189 89.3676 176.588 89.8201C175.987 90.2727 175.226 90.5253 174.436 90.5342C173.646 90.543 172.877 90.3076 172.264 89.8687C171.65 89.4298 171.23 88.8152 171.077 88.1317C171.013 87.8324 171.265 87.5773 171.571 87.5738L177.209 87.508Z" fill="#920E08"/>
</mask>
<g mask="url(#mask2)">
<path d="M177.767 87.5015C177.768 87.6806 177.757 87.8802 177.724 88.0571L171.077 88.1317C171.04 87.958 171.019 87.757 171.016 87.5803L177.767 87.5015Z" fill="white"/>
</g>
<path d="M176.906 89.5545C176.594 89.8602 176.214 90.1057 175.789 90.2755C175.364 90.4453 174.904 90.5358 174.438 90.5412C173.972 90.5467 173.509 90.467 173.08 90.3072C172.65 90.1473 172.262 89.9108 171.941 89.6125C172.614 89.0626 173.494 88.7522 174.411 88.7415C175.328 88.7308 176.217 89.0205 176.906 89.5545Z" fill="#F85C66"/>
<path d="M230.435 17.2165L223.044 14.4334C222.539 14.245 221.98 14.2649 221.49 14.4888C221 14.7126 220.617 15.1222 220.427 15.6281L219.265 18.7348C219.078 19.2419 219.098 19.8028 219.321 20.2951C219.544 20.7875 219.952 21.1714 220.455 21.363L222.243 22.0356C222.789 23.1557 223.033 24.0222 223.328 24.1324C223.623 24.2425 224.491 23.6733 225.519 23.2682L227.847 24.1438C228.351 24.332 228.91 24.312 229.4 24.0884C229.891 23.8648 230.273 23.4557 230.464 22.9502L231.624 19.8423C231.812 19.3358 231.792 18.7752 231.57 18.2832C231.347 17.7911 230.939 17.4076 230.435 17.2165Z" fill="#EBF2F9"/>
<path d="M227.978 19.6604C228.289 18.841 227.884 18.0158 227.242 17.7702C226.983 17.67 226.698 17.6562 226.431 17.7308C226.163 17.8054 225.926 17.9645 225.756 18.1845C225.774 17.906 225.704 17.6289 225.554 17.3939C225.403 17.159 225.182 16.9786 224.922 16.8796C224.281 16.6329 223.436 16.9772 223.118 17.7977C222.647 19.0384 224.002 21.1845 224.413 21.5128L224.437 21.5311C224.449 21.539 224.461 21.5459 224.474 21.5518C224.487 21.556 224.5 21.5591 224.514 21.561H224.545C225.072 21.5942 227.507 20.8999 227.978 19.6604Z" fill="#FCFCFC"/>
<path d="M248.712 98.89L237.369 94.6186C236.593 94.3295 235.736 94.3601 234.983 94.7036C234.23 95.0472 233.644 95.6759 233.352 96.4522L231.569 101.22C231.281 101.999 231.312 102.859 231.654 103.615C231.996 104.371 232.622 104.96 233.395 105.254L236.138 106.286C236.977 108.005 237.351 109.335 237.804 109.504C238.256 109.673 239.588 108.8 241.166 108.178L244.739 109.522C245.514 109.811 246.371 109.78 247.124 109.437C247.876 109.094 248.463 108.466 248.756 107.69L250.537 102.92C250.825 102.143 250.795 101.282 250.453 100.527C250.111 99.7719 249.485 99.1834 248.712 98.89Z" fill="#EBF2F9"/>
<path d="M244.94 102.641C245.417 101.383 244.794 100.117 243.81 99.74C243.412 99.5862 242.975 99.565 242.564 99.6795C242.153 99.794 241.79 100.038 241.528 100.376C241.557 99.9485 241.448 99.5231 241.218 99.1625C240.988 98.8019 240.648 98.5252 240.249 98.3732C239.265 97.9945 237.968 98.5229 237.48 99.7823C236.757 101.686 238.836 104.98 239.468 105.484L239.505 105.512C239.523 105.524 239.542 105.535 239.561 105.544C239.581 105.55 239.602 105.555 239.623 105.558H239.67C240.479 105.609 244.217 104.543 244.94 102.641Z" fill="#FCFCFC"/>
<path d="M281.586 11.5509L274.551 13.5471C274.071 13.6849 273.664 14.0079 273.419 14.4456C273.174 14.8833 273.11 15.4 273.242 15.883L274.058 18.8448C274.193 19.327 274.512 19.7351 274.945 19.98C275.379 20.2249 275.892 20.2868 276.373 20.1521L278.073 19.6691C279.089 20.2047 279.741 20.7178 280.021 20.6374C280.302 20.5571 280.642 19.6532 281.191 18.7837L283.406 18.1542C283.885 18.0164 284.292 17.6935 284.538 17.2561C284.783 16.8186 284.847 16.3021 284.716 15.8192L283.898 12.8571C283.764 12.3751 283.445 11.9672 283.012 11.7224C282.579 11.4776 282.066 11.416 281.586 11.5509V11.5509Z" fill="#EBF2F9"/>
<path d="M281.073 14.7329C280.861 13.9502 280.109 13.5584 279.495 13.7287C279.247 13.7969 279.026 13.9433 278.866 14.1465C278.707 14.3497 278.616 14.5988 278.608 14.857C278.471 14.6389 278.267 14.4712 278.027 14.3786C277.787 14.2861 277.523 14.2736 277.275 14.343C276.661 14.5124 276.216 15.2349 276.424 16.0222C276.745 17.2073 278.925 18.0615 279.412 18.0795L279.44 18.0799C279.453 18.0794 279.466 18.0778 279.478 18.0752C279.49 18.0712 279.502 18.0661 279.513 18.06L279.536 18.0429C279.949 17.7773 281.394 15.9171 281.073 14.7329Z" fill="#FCFCFC"/>
<path d="M141.84 92.9635L134.472 94.8329C133.97 94.9621 133.538 95.286 133.27 95.7338C133.002 96.1816 132.92 96.717 133.043 97.223L133.803 100.326C133.929 100.831 134.248 101.265 134.691 101.532C135.134 101.799 135.666 101.879 136.169 101.753L137.95 101.3C138.99 101.887 139.652 102.439 139.945 102.364C140.239 102.289 140.619 101.359 141.215 100.471L143.535 99.8814C144.037 99.7522 144.469 99.4284 144.737 98.9809C145.005 98.5333 145.087 97.9982 144.965 97.4923L144.204 94.3891C144.078 93.8841 143.76 93.4507 143.317 93.1835C142.874 92.9164 142.343 92.8373 141.84 92.9635V92.9635Z" fill="#EBF2F9"/>
<path d="M141.213 96.256C141.015 95.4365 140.245 95.0076 139.602 95.1669C139.342 95.2306 139.109 95.3765 138.937 95.583C138.765 95.7896 138.663 96.0458 138.647 96.3139C138.511 96.0833 138.304 95.9032 138.058 95.8001C137.811 95.697 137.538 95.6764 137.277 95.7413C136.634 95.8997 136.15 96.6378 136.343 97.462C136.643 98.7029 138.883 99.6535 139.388 99.6862L139.417 99.6875C139.43 99.6873 139.444 99.686 139.457 99.6836C139.47 99.6798 139.482 99.6748 139.494 99.6688L139.518 99.6518C139.955 99.3876 141.512 97.496 141.213 96.256Z" fill="#FCFCFC"/>
<path d="M67.2873 133.734L54.2305 129.138C53.3383 128.825 52.3537 128.842 51.4918 129.185C50.6299 129.528 49.9609 130.169 49.6308 130.969L47.6257 135.88C47.3005 136.681 47.3416 137.574 47.7402 138.363C48.1387 139.151 48.8622 139.772 49.7526 140.089L52.9077 141.202C53.887 142.997 54.3465 144.385 54.8449 144.575C55.3432 144.766 56.8888 143.882 58.6936 143.258L62.8114 144.672C63.7036 144.985 64.6882 144.968 65.5501 144.625C66.412 144.282 67.0811 143.641 67.4111 142.841L69.4199 137.93C69.7384 137.13 69.6931 136.241 69.294 135.456C68.8949 134.67 68.1741 134.052 67.2873 133.734V133.734Z" fill="#EBF2F9"/>
<path d="M54.545 135.34L53.2158 138.649C53.1265 138.871 53.2581 139.125 53.5095 139.217L54.8609 139.712C55.1123 139.804 55.3885 139.698 55.4778 139.476L56.807 136.167C56.8963 135.945 56.7648 135.69 56.5133 135.598L55.162 135.104C54.9105 135.012 54.6343 135.118 54.545 135.34Z" fill="#FCFCFC"/>
<path d="M62.0612 138.058L61.9809 138.047C62.1575 138.076 62.3382 138.049 62.4922 137.971C62.6462 137.893 62.7639 137.768 62.8252 137.619C62.8865 137.469 62.8876 137.303 62.8283 137.15C62.7689 136.997 62.6529 136.866 62.4999 136.78L60.2259 135.981C60.7746 135.654 61.2191 135.206 61.5181 134.678C61.8505 133.863 61.5399 133.236 61.2324 133.071C61.1052 132.996 60.9526 132.967 60.805 132.988C60.6574 133.01 60.5256 133.081 60.4358 133.187C60.241 133.402 60.2162 133.923 60.0858 134.069C59.8785 134.289 59.2499 134.457 58.2363 134.994C57.6916 135.301 57.287 135.771 57.0922 136.325L56.6328 137.45L56.17 138.571L55.9578 139.095C55.9364 139.146 55.9267 139.201 55.9292 139.257C55.9317 139.313 55.9463 139.368 55.9722 139.419C55.9981 139.47 56.0348 139.516 56.0802 139.554C56.1256 139.593 56.1788 139.624 56.2368 139.644L60.4619 141.131C60.53 141.157 60.6028 141.17 60.6761 141.171C60.7495 141.171 60.8218 141.158 60.8887 141.133C60.9557 141.107 61.016 141.07 61.066 141.023C61.116 140.976 61.1547 140.92 61.1798 140.858C61.205 140.797 61.216 140.731 61.2122 140.665C61.2084 140.599 61.19 140.534 61.158 140.474C61.1259 140.414 61.081 140.36 61.0258 140.315C60.9705 140.271 60.9062 140.236 60.8365 140.214L60.9129 140.225C60.9968 140.259 61.0871 140.278 61.1784 140.28C61.2698 140.282 61.3602 140.267 61.4441 140.237C61.5279 140.206 61.6036 140.16 61.6663 140.102C61.729 140.043 61.7775 139.974 61.8088 139.897C61.8401 139.821 61.8536 139.739 61.8483 139.657C61.8431 139.575 61.8193 139.494 61.7784 139.419C61.7375 139.345 61.6803 139.279 61.6104 139.224C61.5405 139.17 61.4593 139.128 61.3718 139.103L61.6056 139.184C61.6895 139.219 61.7798 139.238 61.8712 139.24C61.9625 139.242 62.0529 139.227 62.1368 139.196C62.2207 139.166 62.2963 139.12 62.359 139.061C62.4217 139.003 62.4702 138.933 62.5015 138.857C62.5328 138.78 62.5463 138.699 62.5411 138.616C62.5358 138.534 62.512 138.453 62.4711 138.379C62.4302 138.305 62.373 138.238 62.3031 138.184C62.2332 138.129 62.152 138.088 62.0645 138.062L62.0612 138.058Z" fill="#FCFCFC"/>
<path d="M136.221 13.3496L128.8 16.171C128.294 16.3644 127.868 16.7419 127.615 17.2213C127.363 17.7006 127.305 18.2427 127.455 18.7291L128.38 21.7086C128.532 22.1939 128.878 22.5831 129.343 22.7909C129.808 22.9987 130.353 23.0083 130.861 22.8176L132.655 22.1369C133.745 22.5825 134.456 23.0388 134.745 22.9381C135.034 22.8374 135.387 21.8559 135.95 20.8952L138.277 19.9893C138.784 19.796 139.21 19.4184 139.462 18.939C139.714 18.4597 139.772 17.9176 139.623 17.4312L138.699 14.4506C138.545 13.9681 138.198 13.5821 137.734 13.376C137.27 13.17 136.727 13.1605 136.221 13.3496V13.3496Z" fill="#EBF2F9"/>
<path d="M131.218 18.8915L131.859 20.8759C131.902 21.0092 132.056 21.0751 132.202 21.0232L132.987 20.7441C133.133 20.6922 133.216 20.5421 133.173 20.4089L132.532 18.4244C132.489 18.2912 132.336 18.2253 132.19 18.2772L131.405 18.5563C131.259 18.6082 131.175 18.7583 131.218 18.8915Z" fill="#FCFCFC"/>
<path d="M135.505 17.2837L135.466 17.3084C135.554 17.2561 135.623 17.177 135.662 17.0848C135.701 16.9926 135.706 16.8929 135.678 16.8028C135.65 16.7127 135.59 16.6378 135.507 16.5909C135.425 16.544 135.326 16.528 135.227 16.5457L133.937 17.0282C134.058 16.678 134.088 16.3115 134.025 15.9629C133.871 15.4733 133.504 15.306 133.309 15.3455C133.226 15.359 133.148 15.4022 133.091 15.4666C133.035 15.531 133.003 15.6118 133.003 15.693C132.996 15.8616 133.177 16.1054 133.173 16.2195C133.163 16.3951 132.95 16.7035 132.703 17.3209C132.577 17.6607 132.573 18.0224 132.691 18.3437L132.903 19.0205L133.112 19.6966L133.212 20.0107C133.221 20.0419 133.237 20.0703 133.259 20.0944C133.28 20.1185 133.307 20.1378 133.337 20.1512C133.367 20.1646 133.4 20.1718 133.434 20.1724C133.469 20.173 133.503 20.167 133.536 20.1547L135.933 19.2591C135.973 19.2456 136.01 19.2248 136.042 19.1978C136.074 19.1708 136.101 19.1382 136.121 19.1019C136.141 19.0657 136.154 19.0265 136.158 18.9867C136.163 18.947 136.159 18.9074 136.148 18.8705C136.136 18.8335 136.117 18.7999 136.091 18.7715C136.065 18.7432 136.033 18.7208 135.997 18.7056C135.961 18.6904 135.921 18.6828 135.881 18.6831C135.84 18.6835 135.799 18.6918 135.761 18.7077L135.798 18.6841C135.847 18.6686 135.894 18.6436 135.935 18.6107C135.976 18.5778 136.01 18.5377 136.035 18.4928C136.061 18.448 136.077 18.3993 136.083 18.3498C136.089 18.3003 136.085 18.251 136.07 18.205C136.056 18.1589 136.032 18.1171 135.999 18.082C135.967 18.047 135.927 18.0194 135.881 18.0011C135.836 17.9828 135.787 17.974 135.736 17.9754C135.685 17.9768 135.635 17.9883 135.587 18.0092L135.719 17.9592C135.769 17.9437 135.815 17.9187 135.856 17.8858C135.897 17.8529 135.931 17.8128 135.956 17.7679C135.982 17.7231 135.998 17.6744 136.004 17.6249C136.01 17.5754 136.006 17.5261 135.991 17.4801C135.977 17.434 135.953 17.3922 135.92 17.3571C135.888 17.3221 135.848 17.2945 135.802 17.2762C135.757 17.2579 135.708 17.2491 135.657 17.2505C135.606 17.2519 135.556 17.2634 135.508 17.2843L135.505 17.2837Z" fill="#FCFCFC"/>
<path d="M74.164 85.0412H31.8162C30.8906 85.0412 30.0029 84.6721 29.3484 84.0152C28.6939 83.3582 28.3262 82.4672 28.3262 81.5381V56.1412C28.3262 55.2121 28.6939 54.3211 29.3484 53.6642C30.0029 53.0073 30.8906 52.6382 31.8162 52.6382H74.164C75.0896 52.6382 75.9773 53.0073 76.6318 53.6642C77.2863 54.3211 77.654 55.2121 77.654 56.1412V81.5381C77.654 82.4672 77.2863 83.3582 76.6318 84.0152C75.9773 84.6721 75.0896 85.0412 74.164 85.0412ZM31.8162 52.9578C30.9812 52.959 30.1807 53.2924 29.5903 53.8851C28.9998 54.4777 28.6676 55.2812 28.6665 56.1193V81.5162C28.6676 82.3544 28.9998 83.1578 29.5903 83.7505C30.1807 84.3431 30.9812 84.6766 31.8162 84.6777H74.164C74.999 84.6766 75.7995 84.3431 76.3899 83.7505C76.9804 83.1578 77.3126 82.3544 77.3138 81.5162V56.1193C77.3126 55.2812 76.9804 54.4777 76.3899 53.8851C75.7995 53.2924 74.999 52.959 74.164 52.9578H31.8162Z" fill="#C4C4C4"/>
<path d="M37.5972 76.7036C37.4868 76.7037 37.3775 76.6818 37.2756 76.6392C37.1737 76.5967 37.0812 76.5344 37.0033 76.4559C36.9255 76.3773 36.8639 76.2841 36.822 76.1816C36.7802 76.0791 36.759 75.9693 36.7595 75.8585V60.0468C36.7595 59.8234 36.8476 59.6091 37.0046 59.4507C37.1616 59.2924 37.3746 59.2028 37.5972 59.2017C37.8205 59.2017 38.0346 59.2907 38.1925 59.4492C38.3504 59.6077 38.4391 59.8226 38.4391 60.0468V75.8585C38.4397 75.9697 38.4183 76.0798 38.3762 76.1826C38.3341 76.2854 38.2721 76.3788 38.1938 76.4574C38.1155 76.536 38.0225 76.5982 37.9201 76.6405C37.8176 76.6828 37.7079 76.7042 37.5972 76.7036Z" fill="#E0E0E0"/>
<path d="M37.5962 76.7776C37.4858 76.7776 37.3765 76.7557 37.2746 76.7132C37.1727 76.6707 37.0802 76.6083 37.0023 76.5298C36.9245 76.4513 36.8629 76.3581 36.8211 76.2556C36.7792 76.1531 36.758 76.0433 36.7586 75.9325V65.7387C36.7586 65.5157 36.8468 65.3019 37.0039 65.1442C37.161 64.9865 37.374 64.898 37.5962 64.898C37.7065 64.8974 37.8159 64.9187 37.9181 64.9607C38.0202 65.0027 38.113 65.0645 38.1913 65.1427C38.2695 65.2208 38.3316 65.3137 38.374 65.4159C38.4164 65.5182 38.4382 65.6279 38.4382 65.7387V75.9325C38.4387 76.0436 38.4174 76.1538 38.3753 76.2566C38.3331 76.3594 38.2711 76.4528 38.1928 76.5314C38.1145 76.61 38.0215 76.6722 37.9191 76.7144C37.8167 76.7567 37.7069 76.7782 37.5962 76.7776Z" fill="#EBF2F9"/>
<path d="M37.0683 77.4399V78.8455H36.9244V77.5669H36.5972V77.4399H37.0683Z" fill="#B3B3B3"/>
<path d="M37.405 78.14C37.405 77.7021 37.6362 77.4263 37.9634 77.4263C38.2906 77.4263 38.5219 77.6934 38.5219 78.14C38.5219 78.5866 38.2863 78.8538 37.9634 78.8538C37.6406 78.8538 37.405 78.5866 37.405 78.14ZM38.3735 78.14C38.3735 77.7634 38.2077 77.5576 37.9634 77.5576C37.7191 77.5576 37.549 77.7634 37.549 78.14C37.549 78.5166 37.7191 78.7224 37.9634 78.7224C38.2077 78.7224 38.3735 78.5166 38.3735 78.14Z" fill="#B3B3B3"/>
<path d="M40.956 76.7036C40.8454 76.7036 40.7359 76.6818 40.6338 76.6393C40.5316 76.5968 40.4388 76.5346 40.3606 76.4561C40.2824 76.3776 40.2204 76.2845 40.1781 76.182C40.1358 76.0794 40.114 75.9695 40.114 75.8585V60.0468C40.1152 59.823 40.2042 59.6087 40.3619 59.4505C40.5196 59.2922 40.733 59.2028 40.956 59.2017C41.1785 59.2028 41.3916 59.2924 41.5486 59.4507C41.7055 59.6091 41.7936 59.8234 41.7936 60.0468V75.8585C41.7942 75.9693 41.7729 76.0791 41.7311 76.1816C41.6893 76.2841 41.6277 76.3773 41.5498 76.4559C41.472 76.5344 41.3795 76.5967 41.2776 76.6392C41.1756 76.6818 41.0664 76.7037 40.956 76.7036Z" fill="#E0E0E0"/>
<path d="M40.956 76.7777C40.7327 76.7777 40.5185 76.6887 40.3606 76.5302C40.2027 76.3717 40.114 76.1568 40.114 75.9326V62.5292C40.1152 62.3054 40.2042 62.0911 40.3619 61.9329C40.5196 61.7746 40.733 61.6852 40.956 61.6841C41.1785 61.6852 41.3916 61.7748 41.5486 61.9332C41.7055 62.0915 41.7936 62.3058 41.7936 62.5292V75.9326C41.7942 76.0434 41.7729 76.1532 41.7311 76.2557C41.6893 76.3582 41.6277 76.4514 41.5498 76.53C41.472 76.6085 41.3795 76.6708 41.2776 76.7133C41.1756 76.7559 41.0664 76.7777 40.956 76.7777Z" fill="#EBF2F9"/>
<path d="M40.7547 78.7133V78.8447H39.7731V78.7396L40.3534 78.166C40.5148 78.0127 40.5409 77.9164 40.5409 77.8201C40.5409 77.7237 40.4275 77.5573 40.2137 77.5573C40.1428 77.5538 40.072 77.5661 40.0063 77.5933C39.9407 77.6206 39.8819 77.6621 39.8342 77.715L39.7295 77.6274C39.7923 77.5588 39.8695 77.5051 39.9555 77.4703C40.0415 77.4355 40.1342 77.4203 40.2268 77.426C40.5104 77.426 40.6893 77.5705 40.6893 77.8025C40.6863 77.8879 40.6644 77.9715 40.6252 78.0472C40.5859 78.123 40.5303 78.189 40.4624 78.2404L39.9869 78.7089L40.7547 78.7133Z" fill="#B3B3B3"/>
<path d="M40.9248 78.14C40.9248 77.7021 41.1604 77.4263 41.4832 77.4263C41.806 77.4263 42.046 77.6934 42.046 78.14C42.046 78.5866 41.8104 78.8538 41.4832 78.8538C41.156 78.8538 40.9248 78.5866 40.9248 78.14ZM41.8977 78.14C41.8977 77.7634 41.7275 77.5576 41.4832 77.5576C41.2389 77.5576 41.0731 77.7634 41.0731 78.14C41.0731 78.5166 41.2389 78.7224 41.4832 78.7224C41.7275 78.7224 41.8977 78.5166 41.8977 78.14Z" fill="#B3B3B3"/>
<path d="M44.3108 76.7036C44.2004 76.7037 44.0911 76.6818 43.9892 76.6392C43.8873 76.5967 43.7948 76.5344 43.7169 76.4559C43.6391 76.3773 43.5775 76.2841 43.5357 76.1816C43.4938 76.0791 43.4726 75.9693 43.4732 75.8585V60.0468C43.4732 59.8234 43.5613 59.6091 43.7182 59.4507C43.8752 59.2924 44.0882 59.2028 44.3108 59.2017C44.5341 59.2017 44.7482 59.2907 44.9061 59.4492C45.064 59.6077 45.1528 59.8226 45.1528 60.0468V75.8585C45.1533 75.9697 45.1319 76.0798 45.0898 76.1826C45.0477 76.2854 44.9857 76.3788 44.9074 76.4574C44.8291 76.536 44.7361 76.5982 44.6337 76.6405C44.5312 76.6828 44.4215 76.7042 44.3108 76.7036Z" fill="#E0E0E0"/>
<path d="M44.3108 76.7784C44.2004 76.7784 44.0911 76.7565 43.9892 76.714C43.8873 76.6715 43.7948 76.6092 43.7169 76.5306C43.6391 76.4521 43.5775 76.3589 43.5357 76.2564C43.4938 76.1539 43.4726 76.0441 43.4732 75.9333V68.1435C43.4732 67.9205 43.5614 67.7067 43.7185 67.549C43.8756 67.3913 44.0886 67.3027 44.3108 67.3027C44.4211 67.3022 44.5305 67.3235 44.6326 67.3655C44.7348 67.4075 44.8276 67.4693 44.9059 67.5474C44.9841 67.6256 45.0462 67.7184 45.0886 67.8207C45.1309 67.923 45.1528 68.0327 45.1528 68.1435V75.9289C45.1539 76.0405 45.133 76.1511 45.0911 76.2544C45.0493 76.3577 44.9874 76.4516 44.909 76.5307C44.8306 76.6097 44.7374 76.6723 44.6347 76.7149C44.532 76.7574 44.4219 76.779 44.3108 76.7784Z" fill="#EBF2F9"/>
<path d="M44.0907 78.4383C44.0907 78.6748 43.9206 78.8543 43.5847 78.8543C43.3996 78.86 43.2191 78.7959 43.0786 78.6748L43.1484 78.5609C43.2669 78.6706 43.4237 78.7288 43.5847 78.7229C43.8159 78.7229 43.9468 78.6135 43.9468 78.4383C43.9468 78.2632 43.8246 78.1624 43.5672 78.1624H43.4669V78.053L43.8552 77.5669H43.1397V77.4399H44.0384V77.5407L43.6414 78.0398C43.9424 78.0573 44.0907 78.215 44.0907 78.4383Z" fill="#B3B3B3"/>
<path d="M44.2952 78.14C44.2952 77.7021 44.5264 77.4263 44.8536 77.4263C45.1808 77.4263 45.412 77.6934 45.412 78.14C45.412 78.5866 45.1764 78.8538 44.8536 78.8538C44.5307 78.8538 44.2952 78.5866 44.2952 78.14ZM45.2637 78.14C45.2637 77.7634 45.0935 77.5576 44.8536 77.5576C44.6136 77.5576 44.4391 77.7634 44.4391 78.14C44.4391 78.5166 44.6093 78.7224 44.8536 78.7224C45.0979 78.7224 45.2637 78.5166 45.2637 78.14Z" fill="#B3B3B3"/>
<path d="M47.6706 76.7036C47.56 76.7036 47.4505 76.6818 47.3484 76.6393C47.2462 76.5968 47.1534 76.5346 47.0752 76.4561C46.997 76.3776 46.935 76.2845 46.8927 76.182C46.8504 76.0794 46.8286 75.9695 46.8286 75.8585V60.0468C46.8298 59.823 46.9188 59.6087 47.0765 59.4505C47.2341 59.2922 47.4476 59.2028 47.6706 59.2017C47.8931 59.2028 48.1062 59.2924 48.2631 59.4507C48.4201 59.6091 48.5082 59.8234 48.5082 60.0468V75.8585C48.5088 75.9693 48.4875 76.0791 48.4457 76.1816C48.4039 76.2841 48.3423 76.3773 48.2644 76.4559C48.1866 76.5344 48.0941 76.5967 47.9921 76.6392C47.8902 76.6818 47.781 76.7037 47.6706 76.7036Z" fill="#E0E0E0"/>
<path d="M47.6696 76.7777C47.4463 76.7777 47.2321 76.6887 47.0742 76.5302C46.9163 76.3717 46.8276 76.1568 46.8276 75.9326V62.5292C46.8288 62.3054 46.9179 62.0911 47.0755 61.9329C47.2332 61.7746 47.4467 61.6852 47.6696 61.6841C47.8922 61.6852 48.1052 61.7748 48.2622 61.9332C48.4191 62.0915 48.5072 62.3058 48.5072 62.5292V75.9326C48.5078 76.0434 48.4866 76.1532 48.4447 76.2557C48.4029 76.3582 48.3413 76.4514 48.2635 76.53C48.1856 76.6085 48.0931 76.6708 47.9912 76.7133C47.8893 76.7559 47.78 76.7777 47.6696 76.7777Z" fill="#EBF2F9"/>
<path d="M47.6697 78.4733H47.3862V78.8455H47.2335V78.4733H46.4438V78.3682L47.1855 77.4399H47.3469L46.6314 78.3463H47.2378V78.0223H47.3774V78.3463H47.6697V78.4733Z" fill="#B3B3B3"/>
<path d="M47.8098 78.14C47.8098 77.7021 48.041 77.4263 48.3682 77.4263C48.6954 77.4263 48.9266 77.6934 48.9266 78.14C48.9266 78.5866 48.6911 78.8538 48.3682 78.8538C48.0454 78.8538 47.8098 78.5866 47.8098 78.14ZM48.7783 78.14C48.7783 77.7634 48.6082 77.5576 48.3682 77.5576C48.1283 77.5576 47.932 77.7634 47.932 78.14C47.932 78.5166 48.1021 78.7224 48.3682 78.7224C48.6343 78.7224 48.7783 78.5166 48.7783 78.14Z" fill="#B3B3B3"/>
<path d="M51.0251 76.7036C50.9148 76.7037 50.8055 76.6818 50.7036 76.6392C50.6017 76.5967 50.5091 76.5344 50.4313 76.4559C50.3535 76.3773 50.2919 76.2841 50.25 76.1816C50.2082 76.0791 50.1869 75.9693 50.1875 75.8585V60.0468C50.1875 59.8234 50.2756 59.6091 50.4326 59.4507C50.5895 59.2924 50.8026 59.2028 51.0251 59.2017C51.2484 59.2017 51.4626 59.2907 51.6205 59.4492C51.7784 59.6077 51.8671 59.8226 51.8671 60.0468V75.8585C51.8677 75.9697 51.8463 76.0798 51.8042 76.1826C51.7621 76.2854 51.7001 76.3788 51.6218 76.4574C51.5435 76.536 51.4504 76.5982 51.348 76.6405C51.2456 76.6828 51.1359 76.7042 51.0251 76.7036Z" fill="#E0E0E0"/>
<path d="M51.0237 76.7777C50.9133 76.7777 50.804 76.7558 50.7021 76.7132C50.6002 76.6707 50.5077 76.6084 50.4298 76.5299C50.352 76.4513 50.2904 76.3581 50.2486 76.2556C50.2067 76.1531 50.1855 76.0433 50.186 75.9326V65.0776C50.186 64.8546 50.2743 64.6407 50.4314 64.4831C50.5885 64.3254 50.8015 64.2368 51.0237 64.2368C51.134 64.2363 51.2434 64.2576 51.3456 64.2996C51.4477 64.3416 51.5405 64.4034 51.6188 64.4815C51.697 64.5596 51.7591 64.6525 51.8015 64.7548C51.8438 64.8571 51.8656 64.9668 51.8656 65.0776V75.915C51.8686 76.0276 51.8489 76.1397 51.8079 76.2445C51.7668 76.3494 51.7052 76.4448 51.6266 76.5253C51.5481 76.6058 51.4543 76.6696 51.3507 76.7129C51.2471 76.7563 51.1359 76.7783 51.0237 76.7777Z" fill="#EBF2F9"/>
<path d="M50.9519 78.4296C50.9519 78.6704 50.7861 78.8675 50.4458 78.8675C50.262 78.8733 50.0828 78.8092 49.9441 78.6879L50.0139 78.5741C50.0718 78.6294 50.1404 78.6723 50.2154 78.7002C50.2904 78.728 50.3703 78.7402 50.4502 78.7361C50.6901 78.7361 50.8166 78.6179 50.8166 78.4471C50.8166 78.2763 50.7032 78.1581 50.3498 78.1581H50.0488L50.123 77.4531H50.8864V77.5801H50.2495L50.2015 78.018H50.3804C50.7948 78.0136 50.9519 78.18 50.9519 78.4296Z" fill="#B3B3B3"/>
<path d="M51.1353 78.14C51.1353 77.7021 51.3708 77.4263 51.6937 77.4263C52.0165 77.4263 52.2521 77.6934 52.2521 78.14C52.2521 78.5866 52.0165 78.8538 51.6937 78.8538C51.3708 78.8538 51.1353 78.5866 51.1353 78.14ZM52.1038 78.14C52.1038 77.7634 51.938 77.5576 51.6937 77.5576C51.4494 77.5576 51.2574 77.7634 51.2574 78.14C51.2574 78.5166 51.4275 78.7224 51.6937 78.7224C51.9598 78.7224 52.1038 78.5166 52.1038 78.14Z" fill="#B3B3B3"/>
<path d="M54.3864 76.7036C54.2759 76.7036 54.1664 76.6818 54.0642 76.6393C53.9621 76.5968 53.8692 76.5346 53.7911 76.4561C53.7129 76.3776 53.6508 76.2845 53.6085 76.182C53.5662 76.0794 53.5444 75.9695 53.5444 75.8585V60.0468C53.5456 59.823 53.6347 59.6087 53.7923 59.4505C53.95 59.2922 54.1635 59.2028 54.3864 59.2017C54.609 59.2028 54.822 59.2924 54.979 59.4507C55.1359 59.6091 55.224 59.8234 55.224 60.0468V75.8585C55.2246 75.9693 55.2034 76.0791 55.1615 76.1816C55.1197 76.2841 55.0581 76.3773 54.9803 76.4559C54.9024 76.5344 54.8099 76.5967 54.708 76.6392C54.6061 76.6818 54.4968 76.7037 54.3864 76.7036Z" fill="#E0E0E0"/>
<path d="M54.3846 76.7037C54.1727 76.7076 53.9674 76.63 53.8108 76.4866C53.6542 76.3433 53.5582 76.1452 53.5427 75.933V68.1432C53.5374 68.0274 53.5551 67.9118 53.5947 67.803C53.6342 67.6941 53.6949 67.5943 53.7733 67.5091C53.8516 67.424 53.9459 67.3553 54.0509 67.3071C54.1558 67.2588 54.2693 67.232 54.3846 67.228C54.6068 67.228 54.8198 67.3166 54.9769 67.4743C55.134 67.6319 55.2223 67.8458 55.2223 68.0688V75.8542C55.2234 75.9654 55.2026 76.0756 55.161 76.1786C55.1194 76.2817 55.0579 76.3754 54.98 76.4544C54.9021 76.5334 54.8094 76.5961 54.7072 76.6389C54.605 76.6817 54.4954 76.7037 54.3846 76.7037Z" fill="#EBF2F9"/>
<path d="M54.275 78.4257C54.2753 78.4871 54.2627 78.5479 54.2381 78.6041C54.2135 78.6603 54.1774 78.7107 54.1322 78.7519C54.0869 78.7932 54.0335 78.8245 53.9755 78.8438C53.9174 78.863 53.856 78.8698 53.7951 78.8636C53.4243 78.8636 53.2192 78.6053 53.2192 78.163C53.2192 77.7208 53.481 77.4361 53.8605 77.4361C53.9757 77.4312 54.09 77.4569 54.1921 77.5106L54.1354 77.6288C54.0537 77.5806 53.9596 77.5577 53.8649 77.5631C53.5595 77.5631 53.3676 77.7558 53.3676 78.1367C53.3655 78.1747 53.3655 78.2127 53.3676 78.2506C53.4071 78.1706 53.4701 78.1046 53.5481 78.0616C53.6261 78.0185 53.7153 78.0004 53.8038 78.0098C53.8622 78.005 53.9209 78.0121 53.9765 78.0306C54.0321 78.0491 54.0834 78.0786 54.1273 78.1174C54.1713 78.1562 54.207 78.2035 54.2324 78.2565C54.2578 78.3095 54.2723 78.367 54.275 78.4257ZM54.131 78.4257C54.131 78.2375 53.9958 78.1192 53.7776 78.1192C53.7335 78.1144 53.6888 78.1187 53.6464 78.132C53.604 78.1453 53.5648 78.1672 53.5312 78.1964C53.4977 78.2256 53.4704 78.2614 53.4513 78.3016C53.4321 78.3418 53.4215 78.3856 53.4199 78.4301C53.4199 78.5834 53.5464 78.7279 53.7907 78.7279C53.8329 78.7328 53.8757 78.7288 53.9163 78.7161C53.9569 78.7035 53.9944 78.6825 54.0264 78.6544C54.0584 78.6264 54.0843 78.592 54.1023 78.5534C54.1203 78.5147 54.1301 78.4728 54.131 78.4301V78.4257Z" fill="#B3B3B3"/>
<path d="M54.4404 78.14C54.4404 77.7021 54.6716 77.4263 54.9988 77.4263C55.326 77.4263 55.5573 77.6934 55.5573 78.14C55.5573 78.5866 55.3217 78.8538 54.9988 78.8538C54.676 78.8538 54.4404 78.5866 54.4404 78.14ZM55.4089 78.14C55.4089 77.7634 55.2388 77.5576 54.9988 77.5576C54.7589 77.5576 54.5844 77.7634 54.5844 78.14C54.5844 78.5166 54.7545 78.7224 54.9988 78.7224C55.2431 78.7224 55.4089 78.5166 55.4089 78.14Z" fill="#B3B3B3"/>
<path d="M57.7414 76.7036C57.6311 76.7037 57.5218 76.6818 57.4199 76.6392C57.318 76.5967 57.2254 76.5344 57.1476 76.4559C57.0698 76.3773 57.0082 76.2841 56.9663 76.1816C56.9245 76.0791 56.9032 75.9693 56.9038 75.8585V60.0468C56.9038 59.8234 56.9919 59.6091 57.1489 59.4507C57.3058 59.2924 57.5189 59.2028 57.7414 59.2017C57.964 59.2028 58.177 59.2924 58.334 59.4507C58.491 59.6091 58.5791 59.8234 58.5791 60.0468V75.8585C58.5796 75.9693 58.5584 76.0791 58.5165 76.1816C58.4747 76.2841 58.4131 76.3773 58.3353 76.4559C58.2574 76.5344 58.1649 76.5967 58.063 76.6392C57.9611 76.6818 57.8518 76.7037 57.7414 76.7036Z" fill="#E0E0E0"/>
<path d="M57.74 76.7788C57.6296 76.7788 57.5203 76.7569 57.4184 76.7144C57.3165 76.6718 57.224 76.6095 57.1461 76.531C57.0683 76.4524 57.0067 76.3592 56.9649 76.2567C56.923 76.1542 56.9018 76.0444 56.9024 75.9337V61.7289C56.9018 61.6181 56.923 61.5083 56.9649 61.4058C57.0067 61.3033 57.0683 61.2101 57.1461 61.1316C57.224 61.053 57.3165 60.9907 57.4184 60.9482C57.5203 60.9057 57.6296 60.8838 57.74 60.8838C57.8503 60.8838 57.9596 60.9057 58.0615 60.9482C58.1634 60.9907 58.256 61.053 58.3338 61.1316C58.4116 61.2101 58.4732 61.3033 58.5151 61.4058C58.5569 61.5083 58.5782 61.6181 58.5776 61.7289V75.9337C58.5782 76.0444 58.5569 76.1542 58.5151 76.2567C58.4732 76.3592 58.4116 76.4524 58.3338 76.531C58.256 76.6095 58.1634 76.6718 58.0615 76.7144C57.9596 76.7569 57.8503 76.7788 57.74 76.7788Z" fill="#EBF2F9"/>
<path d="M57.5605 77.4399V77.5407L56.9759 78.8543H56.8319L57.4078 77.5757H56.6879V77.8384H56.5483V77.4487L57.5605 77.4399Z" fill="#B3B3B3"/>
<path d="M57.7036 78.14C57.7036 77.7021 57.9348 77.4263 58.262 77.4263C58.5892 77.4263 58.8204 77.6934 58.8204 78.14C58.8204 78.5866 58.5849 78.8538 58.262 78.8538C57.9392 78.8538 57.7036 78.5866 57.7036 78.14ZM58.6721 78.14C58.6721 77.7634 58.5063 77.5576 58.262 77.5576C58.0177 77.5576 57.8476 77.7634 57.8476 78.14C57.8476 78.5166 58.0177 78.7224 58.262 78.7224C58.5063 78.7224 58.6808 78.5166 58.6808 78.14H58.6721Z" fill="#B3B3B3"/>
<path d="M61.0993 76.7036C60.9887 76.7036 60.8792 76.6818 60.7771 76.6393C60.6749 76.5968 60.5821 76.5346 60.5039 76.4561C60.4257 76.3776 60.3637 76.2845 60.3214 76.182C60.2791 76.0794 60.2573 75.9695 60.2573 75.8585V60.0468C60.2585 59.823 60.3475 59.6087 60.5052 59.4505C60.6629 59.2922 60.8763 59.2028 61.0993 59.2017C61.3219 59.2028 61.5349 59.2924 61.6918 59.4507C61.8488 59.6091 61.9369 59.8234 61.9369 60.0468V75.8585C61.9375 75.9693 61.9163 76.0791 61.8744 76.1816C61.8326 76.2841 61.771 76.3773 61.6931 76.4559C61.6153 76.5344 61.5228 76.5967 61.4209 76.6392C61.3189 76.6818 61.2097 76.7037 61.0993 76.7036Z" fill="#E0E0E0"/>
<path d="M61.0986 76.7778C60.8753 76.7778 60.6611 76.6888 60.5032 76.5303C60.3453 76.3718 60.2566 76.1569 60.2566 75.9327V69.7543C60.2566 69.6433 60.2784 69.5334 60.3207 69.4309C60.363 69.3283 60.425 69.2352 60.5032 69.1567C60.5814 69.0782 60.6742 69.016 60.7764 68.9735C60.8785 68.931 60.988 68.9092 61.0986 68.9092C61.2089 68.9092 61.3182 68.9311 61.4201 68.9736C61.522 69.0161 61.6146 69.0784 61.6924 69.157C61.7702 69.2355 61.8318 69.3287 61.8737 69.4312C61.9155 69.5337 61.9368 69.6435 61.9362 69.7543V75.9327C61.9368 76.0435 61.9155 76.1533 61.8737 76.2558C61.8318 76.3583 61.7702 76.4515 61.6924 76.5301C61.6146 76.6086 61.522 76.6709 61.4201 76.7134C61.3182 76.756 61.2089 76.7779 61.0986 76.7778Z" fill="#EBF2F9"/>
<path d="M60.9315 78.4504C60.9315 78.7 60.7221 78.8533 60.3862 78.8533C60.0503 78.8533 59.8452 78.7 59.8452 78.4504C59.845 78.3706 59.8715 78.2931 59.9206 78.2303C59.9697 78.1675 60.0384 78.1232 60.1157 78.1045C60.0509 78.0844 59.9945 78.0435 59.9551 77.9882C59.9157 77.9328 59.8955 77.866 59.8976 77.798C59.8976 77.5659 60.0895 77.4258 60.3862 77.4258C60.6828 77.4258 60.8791 77.5659 60.8791 77.798C60.8802 77.8664 60.8591 77.9333 60.819 77.9886C60.7788 78.0439 60.7218 78.0845 60.6567 78.1045C60.7344 78.1231 60.8037 78.1672 60.8535 78.2299C60.9033 78.2926 60.9307 78.3702 60.9315 78.4504ZM60.7832 78.4504C60.7832 78.2753 60.6348 78.1658 60.3862 78.1658C60.1375 78.1658 59.9935 78.2753 59.9935 78.4504C59.9935 78.6256 60.1375 78.7307 60.3862 78.7307C60.6348 78.7307 60.7832 78.6256 60.7832 78.4504ZM60.3862 78.0519C60.6043 78.0519 60.7352 77.9556 60.7352 77.8024C60.7352 77.6491 60.5956 77.5484 60.3862 77.5484C60.1768 77.5484 60.0415 77.6447 60.0415 77.8024C60.0415 77.96 60.168 78.0519 60.3862 78.0519Z" fill="#B3B3B3"/>
<path d="M61.126 78.1395C61.126 77.7016 61.3616 77.4258 61.6844 77.4258C62.0072 77.4258 62.2472 77.6929 62.2472 78.1395C62.2472 78.5862 62.0116 78.8533 61.6844 78.8533C61.3572 78.8533 61.126 78.5862 61.126 78.1395ZM62.0988 78.1395C62.0988 77.7629 61.9287 77.5571 61.6844 77.5571C61.4401 77.5571 61.2743 77.7629 61.2743 78.1395C61.2743 78.5161 61.4401 78.7219 61.6844 78.7219C61.9287 78.7219 62.0988 78.5161 62.0988 78.1395Z" fill="#B3B3B3"/>
<path d="M64.4541 76.7036C64.3437 76.7037 64.2345 76.6818 64.1325 76.6392C64.0306 76.5967 63.9381 76.5344 63.8603 76.4559C63.7824 76.3773 63.7208 76.2841 63.679 76.1816C63.6371 76.0791 63.6159 75.9693 63.6165 75.8585V60.0468C63.6165 59.8234 63.7046 59.6091 63.8615 59.4507C64.0185 59.2924 64.2315 59.2028 64.4541 59.2017C64.6774 59.2017 64.8916 59.2907 65.0495 59.4492C65.2074 59.6077 65.2961 59.8226 65.2961 60.0468V75.8585C65.2966 75.9697 65.2753 76.0798 65.2332 76.1826C65.1911 76.2854 65.1291 76.3788 65.0508 76.4574C64.9725 76.536 64.8794 76.5982 64.777 76.6405C64.6746 76.6828 64.5648 76.7042 64.4541 76.7036Z" fill="#E0E0E0"/>
<path d="M64.4528 76.7038C64.2413 76.7077 64.0365 76.6299 63.8806 76.4865C63.7247 76.343 63.6297 76.1449 63.6152 75.9332V73.7438C63.6099 73.6284 63.6274 73.5131 63.6667 73.4046C63.7061 73.296 63.7664 73.1963 63.8442 73.1112C63.9221 73.0262 64.0159 72.9574 64.1204 72.9089C64.2248 72.8604 64.3378 72.8331 64.4528 72.8286C64.5632 72.828 64.6725 72.8494 64.7747 72.8914C64.8768 72.9334 64.9697 72.9952 65.0479 73.0733C65.1261 73.1514 65.1882 73.2443 65.2306 73.3466C65.273 73.4489 65.2948 73.5586 65.2948 73.6694V75.8587C65.2954 75.9699 65.274 76.08 65.2319 76.1828C65.1898 76.2856 65.1278 76.379 65.0495 76.4576C64.9712 76.5362 64.8781 76.5984 64.7757 76.6407C64.6733 76.683 64.5635 76.7044 64.4528 76.7038Z" fill="#EBF2F9"/>
<path d="M64.2049 78.127C64.2049 78.6043 63.9431 78.8539 63.5636 78.8539C63.4485 78.8588 63.3341 78.8332 63.232 78.7795L63.2887 78.6612C63.3705 78.7095 63.4646 78.7323 63.5592 78.7269C63.8646 78.7269 64.0566 78.5343 64.0566 78.1533C64.0587 78.1154 64.0587 78.0774 64.0566 78.0395C64.017 78.1195 63.954 78.1854 63.876 78.2285C63.7981 78.2715 63.7088 78.2896 63.6203 78.2803C63.5598 78.2858 63.4988 78.2785 63.4413 78.259C63.3837 78.2395 63.3309 78.2081 63.2861 78.1669C63.2414 78.1256 63.2057 78.0755 63.1813 78.0196C63.157 77.9637 63.1445 77.9034 63.1448 77.8424C63.1445 77.781 63.157 77.7203 63.1816 77.6641C63.2062 77.6079 63.2423 77.5575 63.2876 77.5162C63.3328 77.4749 63.3862 77.4436 63.4443 77.4244C63.5024 77.4052 63.5638 77.3984 63.6247 77.4045C63.9999 77.4264 64.2049 77.6848 64.2049 78.127ZM64.0042 77.8512C64.0042 77.6935 63.8777 77.549 63.6334 77.549C63.5908 77.5441 63.5477 77.5483 63.5068 77.5612C63.4659 77.5741 63.4282 77.5955 63.3961 77.624C63.364 77.6525 63.3383 77.6874 63.3205 77.7266C63.3028 77.7657 63.2934 77.8082 63.2931 77.8512C63.2931 78.0395 63.4283 78.1577 63.6465 78.1577C63.6903 78.1625 63.7346 78.1583 63.7767 78.1453C63.8188 78.1323 63.8578 78.1108 63.8914 78.082C63.9249 78.0533 63.9522 78.018 63.9716 77.9783C63.991 77.9386 64.0021 77.8953 64.0042 77.8512Z" fill="#B3B3B3"/>
<path d="M64.4082 78.1405C64.4082 77.7026 64.6438 77.4268 64.9666 77.4268C65.2894 77.4268 65.525 77.6939 65.525 78.1405C65.525 78.5871 65.2894 78.8542 64.9666 78.8542C64.6438 78.8542 64.4082 78.5871 64.4082 78.1405ZM65.3767 78.1405C65.3767 77.7639 65.2109 77.5581 64.9666 77.5581C64.7223 77.5581 64.5522 77.7639 64.5522 78.1405C64.5522 78.5171 64.7223 78.7229 64.9666 78.7229C65.2109 78.7229 65.3767 78.5171 65.3767 78.1405Z" fill="#B3B3B3"/>
<path d="M67.8132 76.7036C67.7026 76.7036 67.5931 76.6818 67.491 76.6393C67.3888 76.5968 67.296 76.5346 67.2178 76.4561C67.1396 76.3776 67.0776 76.2845 67.0353 76.182C66.993 76.0794 66.9712 75.9695 66.9712 75.8585V60.0468C66.9723 59.823 67.0614 59.6087 67.2191 59.4505C67.3767 59.2922 67.5902 59.2028 67.8132 59.2017C68.0357 59.2028 68.2488 59.2924 68.4057 59.4507C68.5627 59.6091 68.6508 59.8234 68.6508 60.0468V75.8585C68.6514 75.9693 68.6301 76.0791 68.5883 76.1816C68.5464 76.2841 68.4848 76.3773 68.407 76.4559C68.3292 76.5344 68.2366 76.5967 68.1347 76.6392C68.0328 76.6818 67.9235 76.7037 67.8132 76.7036Z" fill="#E0E0E0"/>
<path d="M67.8134 76.7032C67.6015 76.7072 67.3961 76.6295 67.2395 76.4861C67.0829 76.3428 66.9869 76.1447 66.9714 75.9326V68.1427C66.9661 68.027 66.9838 67.9113 67.0234 67.8025C67.063 67.6936 67.1237 67.5938 67.202 67.5087C67.2803 67.4235 67.3747 67.3549 67.4796 67.3066C67.5845 67.2583 67.698 67.2315 67.8134 67.2275C68.0355 67.2275 68.2486 67.3161 68.4056 67.4738C68.5627 67.6314 68.651 67.8453 68.651 68.0683V75.8537C68.6521 75.9649 68.6313 76.0751 68.5897 76.1782C68.5481 76.2812 68.4866 76.3749 68.4087 76.4539C68.3308 76.5329 68.2381 76.5956 68.1359 76.6384C68.0337 76.6812 67.9241 76.7032 67.8134 76.7032Z" fill="#EBF2F9"/>
<path d="M66.6093 77.4399V78.8455H66.4653V77.5669H66.1338V77.4399H66.6093Z" fill="#B3B3B3"/>
<path d="M66.9463 78.14C66.9463 77.7021 67.1775 77.4263 67.5047 77.4263C67.8319 77.4263 68.0631 77.6934 68.0631 78.14C68.0631 78.5866 67.8275 78.8538 67.5047 78.8538C67.1819 78.8538 66.9463 78.5866 66.9463 78.14ZM67.9148 78.14C67.9148 77.7634 67.749 77.5576 67.5047 77.5576C67.2604 77.5576 67.0903 77.7634 67.0903 78.14C67.0903 78.5166 67.2604 78.7224 67.5047 78.7224C67.749 78.7224 67.9148 78.5166 67.9148 78.14Z" fill="#B3B3B3"/>
<path d="M68.2666 78.14C68.2666 77.7021 68.5022 77.4263 68.825 77.4263C69.1478 77.4263 69.3834 77.6934 69.3834 78.14C69.3834 78.5866 69.1478 78.8538 68.825 78.8538C68.5022 78.8538 68.2666 78.5866 68.2666 78.14ZM69.2351 78.14C69.2351 77.7634 69.0693 77.5576 68.825 77.5576C68.5807 77.5576 68.4106 77.7634 68.4106 78.14C68.4106 78.5166 68.5807 78.7224 68.825 78.7224C69.0693 78.7224 69.2351 78.5166 69.2351 78.14Z" fill="#B3B3B3"/>
<path d="M44.4599 92.7951C44.269 93.0695 44.0021 93.2753 43.6591 93.4125C43.3186 93.5471 42.9214 93.6144 42.4675 93.6144C42.0084 93.6144 41.6009 93.507 41.245 93.2921C40.889 93.0746 40.6131 92.7666 40.417 92.3679C40.2236 91.9692 40.1243 91.5072 40.1191 90.9816V90.4885C40.1191 89.6368 40.3164 88.9767 40.7111 88.5081C41.1083 88.0395 41.6654 87.8053 42.3824 87.8053C42.9704 87.8053 43.4437 87.9567 43.8022 88.2596C44.1607 88.5599 44.3799 88.987 44.4599 89.541H43.7171C43.5778 88.7929 43.1342 88.4188 42.3862 88.4188C41.8885 88.4188 41.5106 88.5948 41.2527 88.9469C40.9973 89.2964 40.8684 89.8038 40.8658 90.4691V90.9312C40.8658 91.5654 41.0102 92.0702 41.2991 92.4456C41.588 92.8184 41.9787 93.0047 42.4713 93.0047C42.7499 93.0047 42.9936 92.9737 43.2025 92.9116C43.4115 92.8494 43.5843 92.7446 43.721 92.597V91.3272H42.4172V90.7215H44.4599V92.7951Z" fill="#E0E0E0"/>
<path d="M45.7962 91.3971C45.7962 90.9855 45.8761 90.6153 46.036 90.2866C46.1985 89.9578 46.4229 89.7041 46.7092 89.5255C46.9981 89.3468 47.3269 89.2575 47.6957 89.2575C48.2657 89.2575 48.7261 89.4556 49.0769 89.8517C49.4302 90.2477 49.6069 90.7745 49.6069 91.4321V91.4826C49.6069 91.8916 49.5282 92.2592 49.3709 92.5854C49.2162 92.909 48.9931 93.1614 48.7016 93.3426C48.4127 93.5238 48.08 93.6144 47.7035 93.6144C47.136 93.6144 46.6757 93.4164 46.3223 93.0203C45.9715 92.6242 45.7962 92.1 45.7962 91.4476V91.3971ZM46.5158 91.4826C46.5158 91.9485 46.6228 92.3226 46.8369 92.6048C47.0535 92.887 47.3424 93.028 47.7035 93.028C48.0671 93.028 48.356 92.8857 48.5701 92.6009C48.7841 92.3136 48.8912 91.9123 48.8912 91.3971C48.8912 90.9363 48.7816 90.5636 48.5623 90.2788C48.3457 89.9914 48.0568 89.8478 47.6957 89.8478C47.3424 89.8478 47.0574 89.9889 46.8407 90.271C46.6241 90.5532 46.5158 90.957 46.5158 91.4826Z" fill="#E0E0E0"/>
<path d="M50.711 91.3971C50.711 90.9855 50.791 90.6153 50.9509 90.2866C51.1134 89.9578 51.3378 89.7041 51.6241 89.5255C51.9129 89.3468 52.2418 89.2575 52.6106 89.2575C53.1806 89.2575 53.641 89.4556 53.9918 89.8517C54.3451 90.2477 54.5218 90.7745 54.5218 91.4321V91.4826C54.5218 91.8916 54.4431 92.2592 54.2858 92.5854C54.131 92.909 53.9079 93.1614 53.6165 93.3426C53.3276 93.5238 52.9949 93.6144 52.6183 93.6144C52.0509 93.6144 51.5905 93.4164 51.2372 93.0203C50.8864 92.6242 50.711 92.1 50.711 91.4476V91.3971ZM51.4306 91.4826C51.4306 91.9485 51.5377 92.3226 51.7517 92.6048C51.9684 92.887 52.2573 93.028 52.6183 93.028C52.982 93.028 53.2709 92.8857 53.4849 92.6009C53.699 92.3136 53.8061 91.9123 53.8061 91.3971C53.8061 90.9363 53.6964 90.5636 53.4772 90.2788C53.2606 89.9914 52.9717 89.8478 52.6106 89.8478C52.2573 89.8478 51.9723 89.9889 51.7556 90.271C51.539 90.5532 51.4306 90.957 51.4306 91.4826Z" fill="#E0E0E0"/>
<path d="M55.6453 91.401C55.6453 90.7461 55.7961 90.2257 56.0979 89.84C56.3997 89.4517 56.7994 89.2575 57.2972 89.2575C57.8079 89.2575 58.2064 89.4388 58.4927 89.8012L58.5275 89.3352H59.1813V93.4358C59.1813 93.9794 59.0201 94.4078 58.6977 94.7211C58.3779 95.0343 57.9472 95.1909 57.4055 95.1909C57.1038 95.1909 56.8085 95.1262 56.5196 94.9968C56.2307 94.8673 56.0102 94.69 55.858 94.4648L56.2294 94.0338C56.5364 94.4143 56.9116 94.6046 57.3553 94.6046C57.7034 94.6046 57.9743 94.5062 58.1677 94.3095C58.3637 94.1127 58.4617 93.8357 58.4617 93.4785V93.1174C58.1754 93.4487 57.7847 93.6144 57.2895 93.6144C56.7994 93.6144 56.4023 93.4164 56.0979 93.0203C55.7961 92.6242 55.6453 92.0844 55.6453 91.401ZM56.3649 91.4826C56.3649 91.9563 56.4616 92.3291 56.655 92.6009C56.8484 92.8701 57.1193 93.0047 57.4674 93.0047C57.9188 93.0047 58.2502 92.7989 58.4617 92.3873V90.4691C58.2425 90.0678 57.9136 89.8672 57.4752 89.8672C57.127 89.8672 56.8549 90.0031 56.6589 90.2749C56.4629 90.5467 56.3649 90.9493 56.3649 91.4826Z" fill="#E0E0E0"/>
<path d="M61.4383 93.5367H60.7226V87.5723H61.4383V93.5367Z" fill="#E0E0E0"/>
<path d="M64.7206 93.6144C64.1532 93.6144 63.6915 93.428 63.3356 93.0552C62.9797 92.6799 62.8017 92.1789 62.8017 91.5525V91.4204C62.8017 91.0036 62.8804 90.6322 63.0377 90.306C63.1976 89.9772 63.4194 89.7209 63.7031 89.5371C63.9894 89.3507 64.2989 89.2575 64.6316 89.2575C65.1758 89.2575 65.5988 89.4375 65.9006 89.7973C66.2023 90.1571 66.3532 90.6723 66.3532 91.3428V91.6418H63.5174C63.5277 92.056 63.6477 92.3912 63.8772 92.6475C64.1093 92.9012 64.4034 93.028 64.7593 93.028C65.0121 93.028 65.2261 92.9763 65.4015 92.8727C65.5769 92.7692 65.7304 92.632 65.8619 92.4611L66.2991 92.8028C65.9483 93.3439 65.4221 93.6144 64.7206 93.6144ZM64.6316 89.8478C64.3428 89.8478 64.1003 89.9539 63.9043 90.1662C63.7083 90.3759 63.5871 90.671 63.5406 91.0515H65.6375V90.9972C65.6169 90.6322 65.5189 90.35 65.3435 90.1507C65.1681 89.9487 64.9308 89.8478 64.6316 89.8478Z" fill="#E0E0E0"/>
<path d="M310.715 90.252H309.045V95.8612H310.715V90.252Z" fill="#E0E0E0"/>
<path d="M296.782 89.4419H295.112V95.8616H296.782V89.4419Z" fill="#E0E0E0"/>
<path d="M300.266 88.1006H298.596V95.861H300.266V88.1006Z" fill="#E0E0E0"/>
<path d="M303.748 88.5298H302.078V95.8659H303.748V88.5298Z" fill="#E0E0E0"/>
<path d="M307.231 86.0479H305.562V95.8619H307.231V86.0479Z" fill="#E0E0E0"/>
<path d="M314.199 86.0947H312.529V95.8621H314.199V86.0947Z" fill="#E0E0E0"/>
<path d="M317.681 89.3018H316.011V95.8614H317.681V89.3018Z" fill="#E0E0E0"/>
<path d="M321.165 86.5264H319.495V95.8652H321.165V86.5264Z" fill="#E0E0E0"/>
<path d="M324.649 84.4224H322.979V95.8615H324.649V84.4224Z" fill="#E0E0E0"/>
<path d="M328.133 86.4766H326.463V95.8621H328.133V86.4766Z" fill="#E0E0E0"/>
<path d="M331.619 102.82H290.584C289.687 102.82 288.827 102.462 288.193 101.826C287.558 101.189 287.202 100.326 287.202 99.4257V74.8163C287.202 73.916 287.558 73.0527 288.193 72.4161C288.827 71.7795 289.687 71.4219 290.584 71.4219H331.619C332.516 71.4219 333.376 71.7795 334.01 72.4161C334.644 73.0527 335 73.916 335 74.8163V99.4257C335 100.326 334.644 101.189 334.01 101.826C333.376 102.462 332.516 102.82 331.619 102.82ZM290.584 71.7316C289.775 71.7327 288.999 72.0559 288.427 72.6301C287.855 73.2044 287.533 73.9829 287.532 74.7951V99.4045C287.533 100.217 287.855 100.995 288.427 101.569C288.999 102.144 289.775 102.467 290.584 102.468H331.619C332.02 102.47 332.418 102.393 332.79 102.241C333.161 102.089 333.499 101.865 333.785 101.581C334.07 101.298 334.297 100.961 334.453 100.59C334.608 100.219 334.69 99.8201 334.692 99.4172V74.8078C334.691 73.9957 334.369 73.2171 333.797 72.6428C333.225 72.0686 332.449 71.7455 331.64 71.7443L290.584 71.7316Z" fill="#EBF2F9"/>
<path d="M313.944 79.581C313.944 79.6275 309.197 79.6697 303.342 79.6697C297.488 79.6697 292.74 79.6275 292.74 79.581C292.74 79.5345 297.488 79.4922 303.342 79.4922C309.197 79.4922 313.944 79.5175 313.944 79.581Z" fill="#EBF2F9"/>
<path d="M299.921 108.325L301.346 105.574H302.163L300.281 109.01V111.053H299.562V109.01L297.68 105.574H298.504L299.921 108.325Z" fill="#E0E0E0"/>
<path d="M305.37 111.053C305.33 110.973 305.298 110.83 305.273 110.624C304.95 110.96 304.565 111.128 304.118 111.128C303.718 111.128 303.389 111.015 303.132 110.79C302.877 110.561 302.75 110.273 302.75 109.924C302.75 109.5 302.91 109.172 303.229 108.938C303.552 108.703 304.004 108.585 304.586 108.585H305.261V108.265C305.261 108.021 305.189 107.828 305.044 107.685C304.899 107.54 304.685 107.467 304.403 107.467C304.155 107.467 303.948 107.53 303.78 107.655C303.613 107.781 303.529 107.932 303.529 108.111H302.832C302.832 107.907 302.903 107.712 303.046 107.524C303.191 107.333 303.386 107.182 303.631 107.072C303.878 106.962 304.149 106.906 304.444 106.906C304.911 106.906 305.278 107.024 305.542 107.26C305.807 107.493 305.945 107.816 305.955 108.227V110.101C305.955 110.475 306.002 110.772 306.097 110.993V111.053H305.37ZM304.219 110.522C304.437 110.522 304.643 110.466 304.838 110.353C305.033 110.24 305.174 110.093 305.261 109.913V109.078H304.718C303.868 109.078 303.443 109.327 303.443 109.826C303.443 110.045 303.516 110.215 303.661 110.338C303.805 110.461 303.992 110.522 304.219 110.522Z" fill="#E0E0E0"/>
<path d="M308.082 106.982L308.104 107.493C308.414 107.102 308.819 106.906 309.319 106.906C310.176 106.906 310.609 107.392 310.616 108.363V111.053H309.923V108.359C309.92 108.065 309.853 107.848 309.72 107.708C309.59 107.567 309.386 107.497 309.109 107.497C308.884 107.497 308.687 107.557 308.517 107.678C308.347 107.798 308.214 107.956 308.119 108.152V111.053H307.426V106.982H308.082Z" fill="#E0E0E0"/>
<path d="M311.877 108.983C311.877 108.359 312.025 107.857 312.32 107.478C312.614 107.097 313.001 106.906 313.478 106.906C313.953 106.906 314.329 107.07 314.606 107.396V105.273H315.3V111.053H314.663L314.629 110.616C314.351 110.958 313.965 111.128 313.47 111.128C313.001 111.128 312.617 110.935 312.32 110.549C312.025 110.162 311.877 109.658 311.877 109.036V108.983ZM312.571 109.062C312.571 109.524 312.666 109.885 312.856 110.146C313.046 110.407 313.308 110.537 313.643 110.537C314.083 110.537 314.404 110.339 314.606 109.943V108.073C314.399 107.689 314.08 107.497 313.65 107.497C313.31 107.497 313.046 107.629 312.856 107.892C312.666 108.156 312.571 108.546 312.571 109.062Z" fill="#E0E0E0"/>
<path d="M318.447 111.128C317.897 111.128 317.449 110.948 317.104 110.586C316.76 110.223 316.587 109.737 316.587 109.13V109.002C316.587 108.598 316.663 108.238 316.816 107.922C316.971 107.604 317.186 107.355 317.461 107.177C317.738 106.997 318.038 106.906 318.36 106.906C318.888 106.906 319.298 107.081 319.59 107.429C319.882 107.778 320.029 108.277 320.029 108.927V109.217H317.281C317.291 109.618 317.407 109.943 317.629 110.191C317.854 110.437 318.139 110.56 318.484 110.56C318.729 110.56 318.936 110.51 319.106 110.41C319.276 110.309 319.425 110.176 319.552 110.011L319.976 110.342C319.636 110.866 319.126 111.128 318.447 111.128ZM318.36 107.478C318.08 107.478 317.845 107.581 317.656 107.787C317.466 107.99 317.348 108.276 317.303 108.645H319.335V108.592C319.315 108.238 319.22 107.965 319.05 107.772C318.88 107.576 318.65 107.478 318.36 107.478Z" fill="#E0E0E0"/>
<path d="M322.579 108.468L323.479 106.982H324.289L322.962 108.995L324.33 111.053H323.528L322.59 109.529L321.653 111.053H320.847L322.216 108.995L320.889 106.982H321.691L322.579 108.468Z" fill="#E0E0E0"/>
</g>
<defs>
<filter id="filter0_d" x="3" y="123.473" width="337.617" height="110.733" filterUnits="userSpaceOnUse" color-interpolation-filters="sRGB">
<feFlood flood-opacity="0" result="BackgroundImageFix"/>
<feColorMatrix in="SourceAlpha" type="matrix" values="0 0 0 0 0 0 0 0 0 0 0 0 0 0 0 0 0 0 127 0"/>
<feOffset dx="2" dy="2"/>
<feGaussianBlur stdDeviation="2"/>
<feColorMatrix type="matrix" values="0 0 0 0 0 0 0 0 0 0 0 0 0 0 0 0 0 0 0.2 0"/>
<feBlend mode="normal" in2="BackgroundImageFix" result="effect1_dropShadow"/>
<feBlend mode="normal" in="SourceGraphic" in2="effect1_dropShadow" result="shape"/>
</filter>
<filter id="filter1_di" x="119.245" y="50.7456" width="25.5898" height="25.6333" filterUnits="userSpaceOnUse" color-interpolation-filters="sRGB">
<feFlood flood-opacity="0" result="BackgroundImageFix"/>
<feColorMatrix in="SourceAlpha" type="matrix" values="0 0 0 0 0 0 0 0 0 0 0 0 0 0 0 0 0 0 127 0"/>
<feOffset dx="2" dy="2"/>
<feGaussianBlur stdDeviation="2"/>
<feColorMatrix type="matrix" values="0 0 0 0 0 0 0 0 0 0 0 0 0 0 0 0 0 0 0.15 0"/>
<feBlend mode="normal" in2="BackgroundImageFix" result="effect1_dropShadow"/>
<feBlend mode="normal" in="SourceGraphic" in2="effect1_dropShadow" result="shape"/>
<feColorMatrix in="SourceAlpha" type="matrix" values="0 0 0 0 0 0 0 0 0 0 0 0 0 0 0 0 0 0 127 0" result="hardAlpha"/>
<feOffset dx="-2" dy="-2"/>
<feGaussianBlur stdDeviation="2"/>
<feComposite in2="hardAlpha" operator="arithmetic" k2="-1" k3="1"/>
<feColorMatrix type="matrix" values="0 0 0 0 0 0 0 0 0 0 0 0 0 0 0 0 0 0 0.2 0"/>
<feBlend mode="normal" in2="shape" result="effect2_innerShadow"/>
</filter>
<filter id="filter2_di" x="207.194" y="50.7456" width="25.5898" height="25.6333" filterUnits="userSpaceOnUse" color-interpolation-filters="sRGB">
<feFlood flood-opacity="0" result="BackgroundImageFix"/>
<feColorMatrix in="SourceAlpha" type="matrix" values="0 0 0 0 0 0 0 0 0 0 0 0 0 0 0 0 0 0 127 0"/>
<feOffset dx="2" dy="2"/>
<feGaussianBlur stdDeviation="2"/>
<feColorMatrix type="matrix" values="0 0 0 0 0 0 0 0 0 0 0 0 0 0 0 0 0 0 0.15 0"/>
<feBlend mode="normal" in2="BackgroundImageFix" result="effect1_dropShadow"/>
<feBlend mode="normal" in="SourceGraphic" in2="effect1_dropShadow" result="shape"/>
<feColorMatrix in="SourceAlpha" type="matrix" values="0 0 0 0 0 0 0 0 0 0 0 0 0 0 0 0 0 0 127 0" result="hardAlpha"/>
<feOffset dx="-2" dy="-2"/>
<feGaussianBlur stdDeviation="2"/>
<feComposite in2="hardAlpha" operator="arithmetic" k2="-1" k3="1"/>
<feColorMatrix type="matrix" values="0 0 0 0 0 0 0 0 0 0 0 0 0 0 0 0 0 0 0.2 0"/>
<feBlend mode="normal" in2="shape" result="effect2_innerShadow"/>
</filter>
<filter id="filter3_di" x="144.866" y="26.9795" width="25.5898" height="25.6333" filterUnits="userSpaceOnUse" color-interpolation-filters="sRGB">
<feFlood flood-opacity="0" result="BackgroundImageFix"/>
<feColorMatrix in="SourceAlpha" type="matrix" values="0 0 0 0 0 0 0 0 0 0 0 0 0 0 0 0 0 0 127 0"/>
<feOffset dx="2" dy="2"/>
<feGaussianBlur stdDeviation="2"/>
<feColorMatrix type="matrix" values="0 0 0 0 0 0 0 0 0 0 0 0 0 0 0 0 0 0 0.15 0"/>
<feBlend mode="normal" in2="BackgroundImageFix" result="effect1_dropShadow"/>
<feBlend mode="normal" in="SourceGraphic" in2="effect1_dropShadow" result="shape"/>
<feColorMatrix in="SourceAlpha" type="matrix" values="0 0 0 0 0 0 0 0 0 0 0 0 0 0 0 0 0 0 127 0" result="hardAlpha"/>
<feOffset dx="-2" dy="-2"/>
<feGaussianBlur stdDeviation="2"/>
<feComposite in2="hardAlpha" operator="arithmetic" k2="-1" k3="1"/>
<feColorMatrix type="matrix" values="0 0 0 0 0 0 0 0 0 0 0 0 0 0 0 0 0 0 0.2 0"/>
<feBlend mode="normal" in2="shape" result="effect2_innerShadow"/>
</filter>
<filter id="filter4_di" x="181.575" y="26.9795" width="25.5898" height="25.6333" filterUnits="userSpaceOnUse" color-interpolation-filters="sRGB">
<feFlood flood-opacity="0" result="BackgroundImageFix"/>
<feColorMatrix in="SourceAlpha" type="matrix" values="0 0 0 0 0 0 0 0 0 0 0 0 0 0 0 0 0 0 127 0"/>
<feOffset dx="2" dy="2"/>
<feGaussianBlur stdDeviation="2"/>
<feColorMatrix type="matrix" values="0 0 0 0 0 0 0 0 0 0 0 0 0 0 0 0 0 0 0.15 0"/>
<feBlend mode="normal" in2="BackgroundImageFix" result="effect1_dropShadow"/>
<feBlend mode="normal" in="SourceGraphic" in2="effect1_dropShadow" result="shape"/>
<feColorMatrix in="SourceAlpha" type="matrix" values="0 0 0 0 0 0 0 0 0 0 0 0 0 0 0 0 0 0 127 0" result="hardAlpha"/>
<feOffset dx="-2" dy="-2"/>
<feGaussianBlur stdDeviation="2"/>
<feComposite in2="hardAlpha" operator="arithmetic" k2="-1" k3="1"/>
<feColorMatrix type="matrix" values="0 0 0 0 0 0 0 0 0 0 0 0 0 0 0 0 0 0 0.2 0"/>
<feBlend mode="normal" in2="shape" result="effect2_innerShadow"/>
</filter>
<filter id="filter5_di" x="78.7124" y="13.563" width="28.2665" height="24.1" filterUnits="userSpaceOnUse" color-interpolation-filters="sRGB">
<feFlood flood-opacity="0" result="BackgroundImageFix"/>
<feColorMatrix in="SourceAlpha" type="matrix" values="0 0 0 0 0 0 0 0 0 0 0 0 0 0 0 0 0 0 127 0"/>
<feOffset dx="2" dy="2"/>
<feGaussianBlur stdDeviation="2"/>
<feColorMatrix type="matrix" values="0 0 0 0 0 0 0 0 0 0 0 0 0 0 0 0 0 0 0.15 0"/>
<feBlend mode="normal" in2="BackgroundImageFix" result="effect1_dropShadow"/>
<feBlend mode="normal" in="SourceGraphic" in2="effect1_dropShadow" result="shape"/>
<feColorMatrix in="SourceAlpha" type="matrix" values="0 0 0 0 0 0 0 0 0 0 0 0 0 0 0 0 0 0 127 0" result="hardAlpha"/>
<feOffset dx="-2" dy="-2"/>
<feGaussianBlur stdDeviation="2"/>
<feComposite in2="hardAlpha" operator="arithmetic" k2="-1" k3="1"/>
<feColorMatrix type="matrix" values="0 0 0 0 0 0 0 0 0 0 0 0 0 0 0 0 0 0 0.2 0"/>
<feBlend mode="normal" in2="shape" result="effect2_innerShadow"/>
</filter>
<filter id="filter6_di" x="168.477" y="7.5083" width="20.5951" height="17.8934" filterUnits="userSpaceOnUse" color-interpolation-filters="sRGB">
<feFlood flood-opacity="0" result="BackgroundImageFix"/>
<feColorMatrix in="SourceAlpha" type="matrix" values="0 0 0 0 0 0 0 0 0 0 0 0 0 0 0 0 0 0 127 0"/>
<feOffset dx="2" dy="2"/>
<feGaussianBlur stdDeviation="2"/>
<feColorMatrix type="matrix" values="0 0 0 0 0 0 0 0 0 0 0 0 0 0 0 0 0 0 0.15 0"/>
<feBlend mode="normal" in2="BackgroundImageFix" result="effect1_dropShadow"/>
<feBlend mode="normal" in="SourceGraphic" in2="effect1_dropShadow" result="shape"/>
<feColorMatrix in="SourceAlpha" type="matrix" values="0 0 0 0 0 0 0 0 0 0 0 0 0 0 0 0 0 0 127 0" result="hardAlpha"/>
<feOffset dx="-2" dy="-2"/>
<feGaussianBlur stdDeviation="2"/>
<feComposite in2="hardAlpha" operator="arithmetic" k2="-1" k3="1"/>
<feColorMatrix type="matrix" values="0 0 0 0 0 0 0 0 0 0 0 0 0 0 0 0 0 0 0.2 0"/>
<feBlend mode="normal" in2="shape" result="effect2_innerShadow"/>
</filter>
<filter id="filter7_di" x="278.096" y="124.552" width="22.363" height="19.2893" filterUnits="userSpaceOnUse" color-interpolation-filters="sRGB">
<feFlood flood-opacity="0" result="BackgroundImageFix"/>
<feColorMatrix in="SourceAlpha" type="matrix" values="0 0 0 0 0 0 0 0 0 0 0 0 0 0 0 0 0 0 127 0"/>
<feOffset dx="2" dy="2"/>
<feGaussianBlur stdDeviation="2"/>
<feColorMatrix type="matrix" values="0 0 0 0 0 0 0 0 0 0 0 0 0 0 0 0 0 0 0.15 0"/>
<feBlend mode="normal" in2="BackgroundImageFix" result="effect1_dropShadow"/>
<feBlend mode="normal" in="SourceGraphic" in2="effect1_dropShadow" result="shape"/>
<feColorMatrix in="SourceAlpha" type="matrix" values="0 0 0 0 0 0 0 0 0 0 0 0 0 0 0 0 0 0 127 0" result="hardAlpha"/>
<feOffset dx="-2" dy="-2"/>
<feGaussianBlur stdDeviation="2"/>
<feComposite in2="hardAlpha" operator="arithmetic" k2="-1" k3="1"/>
<feColorMatrix type="matrix" values="0 0 0 0 0 0 0 0 0 0 0 0 0 0 0 0 0 0 0.2 0"/>
<feBlend mode="normal" in2="shape" result="effect2_innerShadow"/>
</filter>
<filter id="filter8_di" x="251.297" y="44.5781" width="27.7703" height="23.3623" filterUnits="userSpaceOnUse" color-interpolation-filters="sRGB">
<feFlood flood-opacity="0" result="BackgroundImageFix"/>
<feColorMatrix in="SourceAlpha" type="matrix" values="0 0 0 0 0 0 0 0 0 0 0 0 0 0 0 0 0 0 127 0"/>
<feOffset dx="2" dy="2"/>
<feGaussianBlur stdDeviation="2"/>
<feColorMatrix type="matrix" values="0 0 0 0 0 0 0 0 0 0 0 0 0 0 0 0 0 0 0.15 0"/>
<feBlend mode="normal" in2="BackgroundImageFix" result="effect1_dropShadow"/>
<feBlend mode="normal" in="SourceGraphic" in2="effect1_dropShadow" result="shape"/>
<feColorMatrix in="SourceAlpha" type="matrix" values="0 0 0 0 0 0 0 0 0 0 0 0 0 0 0 0 0 0 127 0" result="hardAlpha"/>
<feOffset dx="-2" dy="-2"/>
<feGaussianBlur stdDeviation="2"/>
<feComposite in2="hardAlpha" operator="arithmetic" k2="-1" k3="1"/>
<feColorMatrix type="matrix" values="0 0 0 0 0 0 0 0 0 0 0 0 0 0 0 0 0 0 0.2 0"/>
<feBlend mode="normal" in2="shape" result="effect2_innerShadow"/>
</filter>
<filter id="filter9_di" x="92.679" y="97.0337" width="28.1041" height="23.6616" filterUnits="userSpaceOnUse" color-interpolation-filters="sRGB">
<feFlood flood-opacity="0" result="BackgroundImageFix"/>
<feColorMatrix in="SourceAlpha" type="matrix" values="0 0 0 0 0 0 0 0 0 0 0 0 0 0 0 0 0 0 127 0"/>
<feOffset dx="2" dy="2"/>
<feGaussianBlur stdDeviation="2"/>
<feColorMatrix type="matrix" values="0 0 0 0 0 0 0 0 0 0 0 0 0 0 0 0 0 0 0.15 0"/>
<feBlend mode="normal" in2="BackgroundImageFix" result="effect1_dropShadow"/>
<feBlend mode="normal" in="SourceGraphic" in2="effect1_dropShadow" result="shape"/>
<feColorMatrix in="SourceAlpha" type="matrix" values="0 0 0 0 0 0 0 0 0 0 0 0 0 0 0 0 0 0 127 0" result="hardAlpha"/>
<feOffset dx="-2" dy="-2"/>
<feGaussianBlur stdDeviation="2"/>
<feComposite in2="hardAlpha" operator="arithmetic" k2="-1" k3="1"/>
<feColorMatrix type="matrix" values="0 0 0 0 0 0 0 0 0 0 0 0 0 0 0 0 0 0 0.2 0"/>
<feBlend mode="normal" in2="shape" result="effect2_innerShadow"/>
</filter>
<filter id="filter10_f" x="120.155" y="138.885" width="96.3808" height="49.473" filterUnits="userSpaceOnUse" color-interpolation-filters="sRGB">
<feFlood flood-opacity="0" result="BackgroundImageFix"/>
<feBlend mode="normal" in="SourceGraphic" in2="BackgroundImageFix" result="shape"/>
<feGaussianBlur stdDeviation="1" result="effect1_foregroundBlur"/>
</filter>
<filter id="filter11_f" x="123.789" y="156.014" width="43.3728" height="25.9244" filterUnits="userSpaceOnUse" color-interpolation-filters="sRGB">
<feFlood flood-opacity="0" result="BackgroundImageFix"/>
<feBlend mode="normal" in="SourceGraphic" in2="BackgroundImageFix" result="shape"/>
<feGaussianBlur stdDeviation="2" result="effect1_foregroundBlur"/>
</filter>
<filter id="filter12_f" x="170.151" y="159.289" width="54.3625" height="26.6138" filterUnits="userSpaceOnUse" color-interpolation-filters="sRGB">
<feFlood flood-opacity="0" result="BackgroundImageFix"/>
<feBlend mode="normal" in="SourceGraphic" in2="BackgroundImageFix" result="shape"/>
<feGaussianBlur stdDeviation="2" result="effect1_foregroundBlur"/>
</filter>
<linearGradient id="paint0_linear" x1="100.354" y1="23.613" x2="81.3172" y2="23.0985" gradientUnits="userSpaceOnUse">
<stop stop-color="#A62E41"/>
<stop offset="1" stop-color="#E13152"/>
</linearGradient>
<linearGradient id="paint1_linear" x1="181.679" y1="10.7305" x2="171.617" y2="17.3021" gradientUnits="userSpaceOnUse">
<stop stop-color="#A62E41"/>
<stop offset="1" stop-color="#E13152"/>
</linearGradient>
<linearGradient id="paint2_linear" x1="292.863" y1="127.95" x2="281.406" y2="135.435" gradientUnits="userSpaceOnUse">
<stop stop-color="#A62E41"/>
<stop offset="1" stop-color="#E13152"/>
</linearGradient>
<linearGradient id="paint3_linear" x1="5193.75" y1="6554.52" x2="5745.54" y2="7190.3" gradientUnits="userSpaceOnUse">
<stop stop-color="#65BBFF"/>
<stop offset="1" stop-color="#315DA4"/>
</linearGradient>
<linearGradient id="paint4_linear" x1="5136.38" y1="6752.45" x2="5700.91" y2="7401.18" gradientUnits="userSpaceOnUse">
<stop stop-color="#65BBFF"/>
<stop offset="1" stop-color="#315DA4"/>
</linearGradient>
<linearGradient id="paint5_linear" x1="156.097" y1="123.407" x2="172.392" y2="211.066" gradientUnits="userSpaceOnUse">
<stop stop-color="#B4D1FA" stop-opacity="0"/>
<stop offset="1" stop-opacity="0.2"/>
</linearGradient>
<linearGradient id="paint6_linear" x1="174.439" y1="145.374" x2="126.812" y2="146.501" gradientUnits="userSpaceOnUse">
<stop stop-color="#71A0DD" stop-opacity="0"/>
<stop offset="1" stop-color="#71A0DD" stop-opacity="0.5"/>
</linearGradient>
<clipPath id="clip0">
<rect width="340" height="235" fill="white"/>
</clipPath>
</defs>
</svg>
