<svg width="43" height="47" fill="none" xmlns="http://www.w3.org/2000/svg"><path d="M28.994 11.254L8.822 17.256a5.78 5.78 0 00-3.294 2.58c-.734 1.24-.958 2.689-.623 4.032l2.072 8.236a4.928 4.928 0 002.428 3.123c1.213.659 2.667.801 4.045.396l4.876-1.452c2.845 1.437 4.655 2.834 5.459 2.592.804-.241 1.847-2.79 3.48-5.255l6.352-1.892a5.783 5.783 0 003.293-2.58c.735-1.238.96-2.687.627-4.03l-2.076-8.236a4.92 4.92 0 00-2.426-3.121c-1.211-.66-2.664-.801-4.041-.395z" fill="url(#paint0_linear)"/><path d="M27.267 20.16c-.541-2.184-2.65-3.241-4.408-2.729a3.664 3.664 0 00-1.823 1.21 3.536 3.536 0 00-.793 2.008 3.159 3.159 0 00-1.614-1.31 3.425 3.425 0 00-2.136-.057c-1.76.51-3.086 2.564-2.558 4.763.819 3.308 6.952 5.582 8.335 5.605h.08a.698.698 0 00.11-.016.64.64 0 00.1-.044l.067-.05c1.195-.769 5.458-6.073 4.64-9.38z" fill="#FCFCFC"/><defs><linearGradient id="paint0_linear" x1="34.075" y1="14.044" x2="7.666" y2="31.897" gradientUnits="userSpaceOnUse"><stop stop-color="#A62E41"/><stop offset="1" stop-color="#E13152"/></linearGradient></defs></svg>