<svg width="340" height="235" fill="none" xmlns="http://www.w3.org/2000/svg"><g clip-path="url(#clip0)"><g filter="url(#filter0_d)"><path d="M173.679 228.206L5 175.296l158.369-49.823 171.248 49.823-160.938 52.91z" fill="#FFF5F7"/></g><g filter="url(#filter1_di)"><rect x="121.245" y="52.746" width="17.59" height="17.633" rx="2" fill="#A62E41"/><path fill-rule="evenodd" clip-rule="evenodd" d="M129.921 64.674h.666s.201-.022.304-.133c.094-.102.091-.293.091-.293s-.013-.896.402-1.028c.409-.13.934.866 1.49 1.249.421.29.741.226.741.226l1.487-.021s.779-.048.41-.662c-.031-.05-.215-.453-1.107-1.283-.932-.868-.807-.727.316-2.229.685-.914.958-1.472.873-1.711-.082-.228-.585-.168-.585-.168l-1.675.01s-.124-.016-.216.039c-.09.054-.148.18-.148.18s-.265.708-.619 1.31c-.746 1.27-1.044 1.336-1.166 1.257-.284-.183-.213-.738-.213-1.132 0-1.23.186-1.743-.362-1.876-.182-.044-.316-.073-.782-.078-.598-.006-1.104.002-1.39.143-.191.093-.338.302-.248.314.111.014.361.067.494.249.172.234.166.76.166.76s.098 1.448-.231 1.628c-.225.123-.535-.128-1.2-1.28a10.674 10.674 0 01-.598-1.243s-.05-.122-.138-.187a.69.69 0 00-.258-.104l-1.591.01s-.239.007-.327.111c-.078.093-.006.285-.006.285s1.246 2.922 2.657 4.395c1.294 1.35 2.763 1.262 2.763 1.262z" fill="#fff"/></g><g filter="url(#filter2_di)"><rect x="209.194" y="52.746" width="17.59" height="17.633" rx="2" fill="#A62E41"/><path fill-rule="evenodd" clip-rule="evenodd" d="M223.449 59.169s-.109-.782-.443-1.126c-.424-.452-.899-.454-1.116-.48-1.559-.115-3.898-.115-3.898-.115h-.004s-2.339 0-3.898.115c-.218.026-.692.028-1.116.48-.334.344-.443 1.126-.443 1.126s-.111.918-.111 1.836v.86c0 .918.111 1.836.111 1.836s.109.781.443 1.125c.424.452.98.438 1.228.485.892.087 3.788.114 3.788.114s2.341-.003 3.9-.118c.217-.027.692-.029 1.116-.48.334-.345.443-1.126.443-1.126s.111-.918.111-1.836v-.86c0-.918-.111-1.836-.111-1.836zm-6.609 3.739l-.001-3.187 3.01 1.599-3.009 1.588z" fill="#fff"/></g><g filter="url(#filter3_di)"><rect x="146.866" y="28.98" width="17.59" height="17.633" rx="2" fill="#A62E41"/><path d="M158.298 46.612v-6.27h2.085l.521-2.611h-2.606v-1.045c0-1.045.522-1.568 1.564-1.568h1.042v-2.612h-2.085c-1.915 0-3.127 1.505-3.127 3.657v1.568h-2.085v2.612h2.085v6.27h2.606z" fill="#fff"/></g><g filter="url(#filter4_di)"><rect x="183.575" y="28.98" width="17.59" height="17.633" rx="2" fill="#A62E41"/><path d="M192.37 34.891a2.884 2.884 0 00-2.875 2.882 2.87 2.87 0 002.875 2.882 2.884 2.884 0 002.875-2.882c0-1.576-1.303-2.882-2.875-2.882zm0 4.728a1.852 1.852 0 01-1.842-1.846c0-1.013.831-1.846 1.842-1.846 1.011 0 1.842.833 1.842 1.846a1.852 1.852 0 01-1.842 1.846zm2.988-4.143c.36 0 .651-.292.651-.653a.652.652 0 10-1.302 0c0 .361.291.653.651.653z" fill="#fff"/><path d="M197.041 33.135c-.584-.608-1.415-.923-2.358-.923h-4.627c-1.954 0-3.257 1.306-3.257 3.265v4.615c0 .969.315 1.802.944 2.41.606.585 1.415.878 2.335.878h4.582c.966 0 1.775-.316 2.359-.878.606-.586.921-1.419.921-2.387v-4.638c0-.946-.315-1.756-.899-2.342zm-.09 6.98c0 .698-.247 1.26-.651 1.643s-.966.586-1.64.586h-4.582c-.673 0-1.235-.203-1.639-.586-.404-.405-.607-.968-.607-1.666v-4.615c0-.676.203-1.239.607-1.644.382-.383.966-.585 1.639-.585h4.627c.674 0 1.236.202 1.64.608.382.405.606.968.606 1.62v4.639z" fill="#fff"/></g><g filter="url(#filter5_di)"><path d="M98.863 20.266L86.99 15.77a3.248 3.248 0 00-2.498.09 3.294 3.294 0 00-1.707 1.84l-1.867 5.019a3.337 3.337 0 00.09 2.52 3.291 3.291 0 001.822 1.725l2.872 1.087c.878 1.809 1.27 3.209 1.743 3.387.474.178 1.868-.742 3.52-1.396l3.74 1.414a3.25 3.25 0 002.496-.09 3.295 3.295 0 001.709-1.838l1.865-5.02a3.334 3.334 0 00-.089-2.519 3.285 3.285 0 00-1.822-1.723z" fill="url(#paint0_linear)"/><path d="M94.915 24.213c.5-1.323-.153-2.656-1.183-3.053a2.062 2.062 0 00-1.304-.064c-.43.12-.81.378-1.084.733a2.12 2.12 0 00-.325-1.277 2.087 2.087 0 00-1.015-.83c-1.03-.4-2.388.157-2.898 1.482-.757 2.005 1.42 5.471 2.08 6.002l.04.03a.406.406 0 00.058.033.366.366 0 00.064.015h.05c.847.053 4.76-1.068 5.517-3.07z" fill="#FCFCFC"/></g><g filter="url(#filter6_di)"><path d="M179.734 9.576l-7.707 2.04c-.526.14-.977.483-1.257.953a2.078 2.078 0 00-.234 1.555l.801 3.223a2.018 2.018 0 002.479 1.457l1.863-.493c1.089.598 1.783 1.165 2.09 1.083.307-.082.703-1.056 1.325-1.988l2.427-.643a2.098 2.098 0 001.257-.954c.279-.47.364-1.028.235-1.554l-.803-3.224a2.01 2.01 0 00-.93-1.245 2.033 2.033 0 00-1.546-.21z" fill="url(#paint1_linear)"/></g><path d="M179.083 13.007c-.209-.852-1.016-1.289-1.688-1.114a1.329 1.329 0 00-.997 1.207 1.274 1.274 0 00-.618-.528 1.303 1.303 0 00-.817-.05c-.672.173-1.177.948-.973 1.805.317 1.289 2.664 2.25 3.192 2.278h.031a.272.272 0 00.042-.004.235.235 0 00.038-.016l.026-.018c.456-.28 2.08-2.272 1.764-3.56z" fill="#FCFCFC"/><g filter="url(#filter7_di)"><path d="M290.642 126.628l-8.783 2.313a2.38 2.38 0 00-1.695 2.86l.921 3.682a2.313 2.313 0 001.065 1.424c.53.312 1.164.4 1.764.244l2.123-.559c1.243.685 2.036 1.334 2.386 1.241.35-.094.799-1.204 1.506-2.267l2.766-.73a2.38 2.38 0 001.696-2.859l-.922-3.682a2.306 2.306 0 00-2.827-1.667z" fill="url(#paint2_linear)"/><path d="M289.909 130.547c-.24-.973-1.161-1.474-1.927-1.276a1.508 1.508 0 00-1.134 1.376 1.466 1.466 0 00-.706-.604 1.48 1.48 0 00-.932-.06c-.766.196-1.34 1.08-1.106 2.058.363 1.473 3.041 2.576 3.644 2.609l.034.001a.26.26 0 00.048-.005.338.338 0 00.044-.018l.029-.021c.52-.319 2.368-2.589 2.006-4.06z" fill="#FCFCFC"/></g><g filter="url(#filter8_di)"><path d="M267.861 46.726l-12.112 3.756a3.55 3.55 0 00-1.983 1.56c-.442.741-.579 1.603-.38 2.398l1.24 4.865a2.862 2.862 0 001.454 1.831c.728.38 1.601.452 2.429.199l2.928-.906c1.709.825 2.812 1.629 3.282 1.497.471-.132 1.117-1.667 2.096-3.147l3.8-1.212a3.55 3.55 0 001.983-1.56c.442-.741.579-1.603.38-2.398l-1.237-4.867a2.866 2.866 0 00-1.459-1.819c-.726-.377-1.596-.448-2.421-.197z" fill="url(#paint3_linear)"/><path d="M259.403 55.1l.865 3.229c.058.216.298.337.536.269l1.278-.366c.238-.068.384-.3.326-.516l-.865-3.23c-.058-.216-.298-.337-.536-.268l-1.278.366c-.238.068-.384.299-.326.516zm6.992-2.173l-.065.036a.755.755 0 00.332-.337.654.654 0 00.049-.448.598.598 0 00-.256-.354.674.674 0 00-.445-.1l-2.104.644a3.353 3.353 0 00.226-1.69c-.206-.794-.779-1.096-1.095-1.053a.59.59 0 00-.358.172.546.546 0 00-.16.352c-.025.268.245.674.23.856-.03.278-.398.75-.842 1.709a2.338 2.338 0 00-.103 1.628l.285 1.099.28 1.098.133.51a.366.366 0 00.189.236.44.44 0 00.318.025l3.911-1.194a.547.547 0 00.313-.232.483.483 0 00.062-.366.433.433 0 00-.413-.324.518.518 0 00-.194.027l.062-.034a.67.67 0 00.395-.281.601.601 0 00.088-.224.53.53 0 00-.294-.575.587.587 0 00-.231-.055.637.637 0 00-.241.04l.216-.067a.663.663 0 00.395-.282.618.618 0 00.088-.223.533.533 0 00-.525-.63.646.646 0 00-.242.039l-.004-.002z" fill="#FCFCFC"/></g><g filter="url(#filter9_di)"><path d="M109.468 99.182l-12.305 3.798a3.586 3.586 0 00-2.011 1.586c-.448.756-.585 1.635-.38 2.445l1.274 4.968a2.94 2.94 0 001.484 1.872c.74.39 1.629.466 2.47.21l2.975-.916c1.74.846 2.863 1.669 3.341 1.536.479-.133 1.131-1.697 2.122-3.205l3.861-1.226c.84-.26 1.563-.83 2.011-1.586.448-.755.585-1.634.38-2.445l-1.272-4.969a2.943 2.943 0 00-1.487-1.86 3.27 3.27 0 00-2.463-.208z" fill="url(#paint4_linear)"/><path d="M100.89 107.716l.886 3.299c.059.221.303.345.545.277l1.299-.369c.242-.069.39-.304.331-.526l-.886-3.299c-.059-.221-.303-.345-.545-.277l-1.299.369c-.242.069-.39.304-.331.526zm7.103-2.188l-.066.036a.756.756 0 00.337-.343.662.662 0 00.049-.457.618.618 0 00-.261-.362.68.68 0 00-.452-.103l-2.138.648a3.426 3.426 0 00.226-1.723c-.211-.812-.795-1.122-1.116-1.079a.595.595 0 00-.364.174.559.559 0 00-.162.359c-.024.273.251.688.236.873-.03.285-.402.763-.852 1.741a2.393 2.393 0 00-.101 1.661l.292 1.123.287 1.121.137.521a.381.381 0 00.35.286.427.427 0 00.166-.018l3.973-1.202a.532.532 0 00.388-.419.45.45 0 00-.093-.357.44.44 0 00-.147-.117.485.485 0 00-.188-.049.531.531 0 00-.197.027l.062-.034a.672.672 0 00.402-.286.572.572 0 00.079-.464.533.533 0 00-.291-.351.586.586 0 00-.235-.058.666.666 0 00-.245.039l.219-.067a.653.653 0 00.402-.286.573.573 0 00.079-.464.51.51 0 00-.106-.207.557.557 0 00-.42-.201.646.646 0 00-.245.039l-.005-.001z" fill="#FCFCFC"/></g><g filter="url(#filter10_f)"><path d="M176.757 140.885l-54.602 18.367 16.528 25.328 75.853 1.778-14.02-17.478-23.759-27.995z" fill="url(#paint5_linear)"/></g><path d="M189.301 92.894c-10.818 4.048-22.657 4.45-30.4 0 0 0-3.146-14.602 0-23.107 2.361-9.48 11.131-12.132 17.856-11.11 0 0 1.253-1.4 4.422 0 10.04 6.814 9.007 18.96 8.122 34.217z" fill="#412716"/><path d="M187.53 71.527c-4.131 1.543-7.383.038-11.787 0-6.273 0-9.674 2.295-13.743 0-2.478 7.144-5.36 10.85-3.049 22.7 2.311 11.849 1.651 15.759 3.455 21.762 11.109 6.713 15.966 7.361 23.917-.016 0 0-1.302-8.86 2.683-19.228 2.509-10.369.785-16.339-.511-21.974-.236-1.19-.663-2.237-.965-3.244z" fill="#3C2415"/><path d="M173.423 73.638c-7.514 0-12.392 25.88-11.642 48.995 9.26 3.528 16.626 5.32 26.423-1.411.849-21.83-6.927-47.584-14.781-47.584z" fill="#3B2415"/><path d="M158.231 105.063s3.03-1.908 7.661-3.506c1.367-.471 2.606-1.425 2.854-2.85.348-1.994-.012-3.938-.012-6.41l11.731-1.054s-.225 3.169.024 6.508c.159 2.132 1.923 3.681 3.982 4.257.933.261 2.176.628 4.004 1.163 2.049 0-14.298 18.622-14.298 18.622l-15.946-16.73z" fill="#FFCFAE"/><path d="M189.307 139.793l5.366 28.284s-9.328 4.757-20.005 4.757a39.04 39.04 0 01-19.024-4.757l4.603-28.284.247-12.68c-3.701-2.791-2.429-10.354-2.429-10.354l-2.421-10.996 7.278-3.105 3.639-1.552 1.082 2.418c3.34 5.367 9.747 5.405 13.741-.392l1.258-2.026 4.583 1.552 7.533 2.485-2.678 12.099s.801 6.992-2.773 10.254v12.297z" fill="#E63067"/><path d="M188.108 128.642s-10.301 7.298-25.134.441c0 0 13.853 3.739 25.134-.441z" fill="#C11C57"/><path d="M159.906 117.092s-5.269 15.479-9.34 23.29c0 0 10.59 6.899 16.663 12.962 0 0-1.363 8.313-3.735 5.216 0 0-16.468-9.815-20.426-15.669 0 0 5.387-31.595 12.583-37.128a20.67 20.67 0 014.255 11.329zm30.504 0s4.4 16.315 8.478 24.127c0 0-4.999 3.554-16.246 12.752l4.374 3.554s15.155-9.811 18.279-14.62c0 0-5.216-31.73-10.537-37.797a24.208 24.208 0 00-4.348 11.984z" fill="#E63067"/><path d="M128.935 154.29s7.584-2.495 22.671 1.772l1.041 3.136-23.712-4.908zm68.225 4.001l22.592-4.155s-8.61-1.733-22.42 1.742M174.87 171.06c10.423 0 18.872-3.019 18.872-6.744 0-3.724-8.449-6.744-18.872-6.744-10.422 0-18.871 3.02-18.871 6.744 0 3.725 8.449 6.744 18.871 6.744z" fill="#06264A"/><path d="M154.84 162.991l38.853.157a3.757 3.757 0 003.654-2.897l1.249-21.457a5.212 5.212 0 00-2.957-5.667 5.225 5.225 0 00-2.225-.478l-37.907.36a5.235 5.235 0 00-5.087 6.263l.883 21.225a3.759 3.759 0 003.537 2.494z" fill="#EDF5FF" stroke="#71A0DD" stroke-width=".3"/><path d="M184.53 132.797l-29.025.212a5.25 5.25 0 00-2.226.518 5.248 5.248 0 00-2.811 3.461 5.25 5.25 0 00-.05 2.283l1.049 21.466c.261.729.74 1.36 1.373 1.807a3.765 3.765 0 002.163.687h9.648l19.879-30.434z" fill="url(#paint6_linear)"/><path d="M174.588 152.046c2.557 0 4.63-1.915 4.63-4.277 0-2.363-2.073-4.278-4.63-4.278s-4.63 1.915-4.63 4.278c0 2.362 2.073 4.277 4.63 4.277z" fill="#61A6FF"/><path d="M152.467 158.807a32.25 32.25 0 00-9.671-3.288c-3.082-.531-7.163-1.141-11.347-1.498-3.443-.291-4.217 2.024-3.959 4.786.445 4.766 4.042 10.291 8.555 11.796 7.692 2.548 22.353 7.133 39.026 10.887 0 0 3.159-5.187 1.934-9.571l-3.14-1.783-21.398-11.329z" fill="#0A3D76"/><path d="M162.991 178.386s-2.536-1.661-3.79-.113c-1.244 1.633-1.269 1.325-2.673 1.411-1.413-.001-6.238-1.674-11.374-3.134-5.127-1.374-9.627 3.359-7.834 7.059 1.793 3.699 12.03 1.597 14.554 1.897 2.524.3 2.978.68 5.258.226 2.28-.454 8.48.254 8.614-1.679.061-1.837-1.764-4.918-2.755-5.667z" fill="#B4D1FA" stroke="#263238" stroke-width=".5" stroke-miterlimit="10" stroke-linecap="round" stroke-linejoin="round"/><path d="M141.467 185.55c.484-2.67-.309-6.472-.909-8.592-2.967 1.338-4.63 4.491-3.216 6.971.585 1.006 2.172 1.477 4.125 1.621z" fill="#C43B55" stroke="#263238" stroke-width=".5" stroke-miterlimit="10" stroke-linecap="round" stroke-linejoin="round"/><mask id="a" maskUnits="userSpaceOnUse" x="136" y="176" width="30" height="11"><path d="M162.906 178.353s-2.547-1.432-3.779.089c-1.734 1.755-1.247 1.303-2.626 1.386-1.388-.001-6.089-1.717-11.135-3.152-5.011-1.509-9.856 2.683-8.018 7.042 1.67 3.186 12.054 1.382 14.534 1.677 2.479.295 3.104.614 5.345.168 2.24-.446 8.221.389 8.352-1.509.06-1.805-1.699-4.965-2.673-5.701z" fill="#B4D1FA" stroke="#263238" stroke-width=".5" stroke-miterlimit="10" stroke-linecap="round" stroke-linejoin="round"/></mask><g mask="url(#a)"><path d="M144.024 185.761c-.378-2.239-.879-8.549-1.906-9.921m4.898 10.686c-.232-2.46-1.158-9.198-2.426-10.43m5.494 10.293c-.077-2.413-.973-8.366-1.979-9.095m5.196 7.993c-.215-1.924-1.163-6.618-1.928-7.486m6.12 8.153c-1.412-1.726-2.684-7.568-2.185-7.746m6.141 8.156c-4.807-2.665-3.809-9.51-1.238-9.934" stroke="#0A3D76" stroke-width="2" stroke-linecap="round"/></g><path d="M190.49 179.132s1.985-2.171 3.239-.624c1.244 1.634 3.539 1.977 4.942 2.062 1.413-.001 6.239-1.673 11.374-3.133 5.127-1.375 9.627 3.358 7.834 7.058-1.792 3.7-12.03 1.598-14.553 1.898-2.524.3-2.979.68-5.259.226-2.28-.454-8.48.253-8.614-1.679-.06-1.837.046-5.059 1.037-5.808z" fill="#B4D1FA" stroke="#000" stroke-width=".5" stroke-miterlimit="10" stroke-linecap="round" stroke-linejoin="round"/><path d="M213.545 186.328c-.483-2.671.309-6.473.909-8.593 2.968 1.339 4.631 4.491 3.217 6.972-.585 1.006-2.173 1.477-4.126 1.621z" fill="#C43B55" stroke="#263238" stroke-width=".5" stroke-miterlimit="10" stroke-linecap="round" stroke-linejoin="round"/><mask id="b" maskUnits="userSpaceOnUse" x="189" y="176" width="30" height="11"><path d="M190.436 178.459s3.241-.879 4.473.641c1.734 1.755 2.223 1.421 3.603 1.505 1.388-.001 6.089-1.718 11.135-3.152 5.011-1.509 9.855 2.683 8.018 7.042-1.67 3.186-12.054 1.382-14.534 1.677-2.479.294-3.105.613-5.345.167-2.24-.446-8.221.39-8.352-1.509-.06-1.804.028-5.635 1.002-6.371z" fill="#B4D1FA" stroke="#263238" stroke-width=".5" stroke-miterlimit="10" stroke-linecap="round" stroke-linejoin="round"/></mask><g mask="url(#b)"><path d="M210.989 186.538c.379-2.239.88-8.549 1.906-9.921m-4.897 10.686c.231-2.46 1.158-9.198 2.426-10.43m-5.494 10.293c.077-2.414.973-8.367 1.979-9.095m-5.196 7.992c.214-1.923 1.162-6.617 1.927-7.485m-6.12 8.153c1.413-1.726 2.684-7.568 2.186-7.746m-6.141 8.156c4.807-2.665 3.809-9.51 1.238-9.934" stroke="#0A3D76" stroke-width="2" stroke-linecap="round"/></g><path d="M191.139 185.562c-.806-.285-15.727-4.878-15.727-4.878l-3.423.934s-4.65 1.756-8.08 2.827c-1.672-.335-4.292-1.662-3.811-4.483.243-1.427 1.621-2.358 2.96-2.907 1.333-.546 2.982-1.276 4.052-1.874 1.678-.943 4.399-2.551 6.181-3.274 1.344-.536 1.656-.739 1.683-.815l-.103-.044s.123-.01.103.044l14.16 6.086 3.492 1.003c3.017 2.719 2.689 5.201 0 7.177-.318.204-1.153.372-1.487.204z" fill="#FFCFAE"/><path d="M173.807 179.835c.172-.115-.756.206-5.838 2.412-2.077.902-3.841 1.434-5.323 1.733.325.344 1.256.427 1.598.408.79-.147 1.35-.308 1.409-.52 3.008-1.091 5.312-1.81 8.841-2.999l-.687-1.034z" fill="#EAAB85"/><path d="M196.522 158.807a32.24 32.24 0 019.671-3.288c3.082-.531 7.163-1.141 11.347-1.498 3.469-.291 4.236 2.024 3.978 4.786-.438 4.766-2.785 10.927-7.298 12.425-7.692 2.555-22.353 7.133-39.026 10.894 0 0-4.416-5.836-3.223-10.207l3.185-1.783 21.366-11.329z" fill="#0A3D76"/><path d="M161.238 177.681c-2.34 2.012-1.17 6.204 2.672 6.707.501 0 1.57-.101 1.838-.503m23.553 1.174c.399.272 1.838 1.006 3.238.462 3.444-2.642 2.442-4.654.771-6.666-.111-.112-.601-.838-1.002-.838" stroke="#000" stroke-width=".5"/><g filter="url(#filter11_f)"><path d="M134.829 169.838c-4.533-1.792-6.583-7.296-7.04-9.824 8.414 8.273 19.747 11.72 35.372 16.718l-2.232 1.207c-6.811-1.896-21.567-6.308-26.1-8.101z" fill="#000" fill-opacity=".1"/></g><g filter="url(#filter12_f)"><path d="M220.513 163.289c-7.898 7.411-34.056 14.19-46.362 17.062l1.202 1.551c11.447-2.7 34.514-9.134 39.15-10.858 3.606-1.34 5.61-6.089 6.01-7.755z" fill="#000" fill-opacity=".1"/></g><path d="M187.297 184.556l-9.713-3.17.859-.173c6.336 2.446 11.694 3.712 12.696 4.349.583.371-2.428-.617-3.842-1.006z" fill="#DCA17D"/><path d="M180.017 92.96c-6.501 2.963-7.183 1.637-10.876.206v.084c4.472 8.275 8.83 4.083 10.876-.084v-.206z" fill="#EAAB85"/><path d="M163.515 81.273c.319 1.928.9 4.225 1.8 6.416 2.701 4.141 4.689 8.094 9.265 8.094 4.192 0 6.376-3.576 9.083-8.094a25.163 25.163 0 001.606-5.663c.654-4.157-3.938-9.771-3.938-9.771s-.75-7.341-4.501-5.647c-6.376 4.894-10.496 2.566-12.939 8.265-1.18 2.754-.566.076-.376 6.4z" fill="#FFCFAE"/><path d="M163.695 81.08c-.782-1.877-2.056-3.017-2.816-2.55-.761.468-.796 2.373 0 4.25.795 1.876 2.056 3.017 2.816 2.55.761-.468.775-2.387 0-4.25z" fill="#FFCFAE"/><path d="M163.429 81.704c-.479-1.155-1.268-1.856-1.747-1.566-.479.29-.493 1.46 0 2.614s1.261 1.87 1.747 1.565c.485-.305.485-1.46 0-2.613z" fill="#EAAB85"/><path d="M164.006 82.773c-.233-.666-.789-1.006-1.239-.709a1.46 1.46 0 00-.381 1.686c.24.708.789 1.013 1.24.75a1.425 1.425 0 00.38-1.728zm21.319-3.318c.904-1.877 2.195-2.51 2.888-1.397.694 1.113.216 3.4-.693 5.285-.909 1.885-2.195 2.447-2.572 1.523-.699-1.105-.522-3.534.377-5.41z" fill="#FFCFAE"/><path d="M185.916 80.897c.644-1.112 1.426-1.527 1.74-.928.315.599.031 1.99-.619 3.094-.649 1.104-1.432 1.534-1.762.926-.331-.61-.014-1.99.641-3.092z" fill="#EAAB85"/><path d="M185.324 82.945c.259-.704.707-1.056 1.002-.77.294.285.314 1.085.06 1.79-.255.704-.708 1.05-1.002.77-.294-.279-.316-1.067-.06-1.79z" fill="#FFCFAE"/><path d="M163.891 82.026c-1.296-1.735-2.819-4.928-1.566-10.395l2.128-1.463c0 5.967-1.985 5.661-.562 11.858zm21.191.189c1.295-1.736 2.818-4.928 1.565-10.396l-5.504-1.634c0 6.4 4.689 6.211 3.939 12.03zm-19.868-5.284c.585-.903 2.818-3.543 6.199-1.897.212.103.316.145.429.548-3.066-.804-4.631-.522-6.628 1.349z" fill="#412716"/><path d="M183.361 76.931c-.585-.903-2.817-3.543-6.198-1.897-.213.103-.317.145-.429.548 3.066-.804 4.631-.522 6.627 1.349z" fill="#412716"/><path d="M175.979 83.444c0-.651-.571-3.336-1.409-3.336-.837 0-1.528 2.684-1.528 3.336a1.5 1.5 0 00.521.842 1.481 1.481 0 002.38-.842h.036z" fill="#FFCFAE"/><path d="M173.001 84.662c-.311.314.154.473.154.473h.62s.62.63 1.237 0h.62s.465-.159.156-.473" stroke="#EAAB85" stroke-width=".8" stroke-miterlimit="10" stroke-linejoin="round"/><path d="M173.643 79.392s.806 1.026.055 3.764l-.055-3.764z" fill="#EAAB85"/><path d="M168.436 77.577c.523-.192.693-.13 1.469-.13.354.042.701.129 1.033.259 0 0 .77.772.862.872.162.183.101.388-.145.421-.246.034-.517-.041-.724 0-1.595.255-1.937.352-2.845-.003a4.935 4.935 0 01-1.03-.515c.389-.397.86-.705 1.38-.904z" fill="#fff"/><path d="M169.393 77.717a.884.884 0 01.675 1.475c-.31.137-1.061.057-1.398 0a.87.87 0 01-.202-.572.927.927 0 01.925-.903z" fill="#28160D" stroke="#1C1105" stroke-width=".2" stroke-miterlimit="10"/><path d="M169.373 79.13a.505.505 0 01-.514-.51.53.53 0 01.528-.517.505.505 0 01.514.51.53.53 0 01-.528.517z" fill="#000"/><path opacity=".77" d="M169.894 78.616a.253.253 0 01-.257-.255.265.265 0 01.264-.258c.144 0 .259.114.257.255a.265.265 0 01-.264.258z" fill="#fff"/><path d="M171.867 78.814l-.916-1.002a.66.66 0 00-.308-.188l-.38-.098a1.845 1.845 0 00-.594-.052l-.975.076a1.33 1.33 0 00-.565.176l-1.01.602-.326.018.945-.838a1.57 1.57 0 01.679-.215l.972-.076c.23-.018.46.004.682.063l.377.098c.246.04.482.127.693.257l1.08 1.22-.354-.041z" fill="#D3A688"/><path opacity=".5" d="M171.963 78.856l-.916-1.002a.767.767 0 00-.368-.224l-.376-.097a1.98 1.98 0 00-.656-.058l-.975.076a1.4 1.4 0 00-.622.197l-.994.599" stroke="#0A0001" stroke-width=".3" stroke-miterlimit="10"/><path d="M171.834 79l-.406-.001a3.13 3.13 0 00-.633.062c-.484.104-1.516.36-2.449.064a10.616 10.616 0 01-.515-.255l-.515-.256" stroke="#472A22" stroke-width=".2" stroke-miterlimit="10"/><path d="M180.148 77.613c-.516-.208-.688-.151-1.463-.175-.356.03-.705.106-1.04.225 0 0-.793.746-.885.843-.17.177-.114.384.131.425.244.04.518-.026.724.022 1.587.304 1.929.412 2.844.085.367-.119.718-.28 1.046-.481a3.939 3.939 0 00-1.357-.944z" fill="#fff"/><path d="M179.192 77.731c.502.023.902.44.892.929a.845.845 0 01-.253.59c-.533.025-.82.003-1.332-.056a.87.87 0 01.693-1.463z" fill="#28160D" stroke="#1C1105" stroke-width=".2" stroke-miterlimit="10"/><path d="M179.164 79.127a.53.53 0 01-.509-.531.497.497 0 01.53-.483.53.53 0 01.509.531.497.497 0 01-.53.483z" fill="#000"/><path opacity=".77" d="M179.693 78.625a.265.265 0 01-.255-.265.249.249 0 01.265-.241.265.265 0 01.255.265.249.249 0 01-.265.241z" fill="#fff"/><path d="M176.681 78.737l.945-.97a.65.65 0 01.317-.178l.379-.086a1.86 1.86 0 01.596-.033l.975.106c.199.022.39.088.56.193l.99.631.326.028-.921-.865a1.571 1.571 0 00-.673-.235l-.973-.106a2.03 2.03 0 00-.681.042l-.382.086a1.92 1.92 0 00-.701.235l-1.109 1.182.352-.03z" fill="#D3A688"/><path opacity=".5" d="M176.587 78.778l.944-.97a.764.764 0 01.374-.21l.38-.087a1.96 1.96 0 01.639-.037l.973.106c.219.023.431.096.616.215l.996.628" stroke="#0A0001" stroke-width=".3" stroke-miterlimit="10"/><path d="M176.71 78.928l.405.012c.214.005.426.033.634.082.481.117 1.504.403 2.445.138.06-.016.467-.212.522-.239l.522-.238" stroke="#472A22" stroke-width=".2" stroke-miterlimit="10"/><path d="M177.921 88.095h0v-.002c.083-.455-.312-.79-.715-.785l-5.637.066c-.403.005-.784.35-.688.8h0l.001.001c.164.736.615 1.391 1.265 1.856.65.465 1.461.712 2.291.703a3.854 3.854 0 002.27-.754c.637-.48 1.069-1.146 1.213-1.885z" fill="#920E08" stroke="#EA908A" stroke-width=".4"/><mask id="c" maskUnits="userSpaceOnUse" x="171" y="87" width="7" height="4"><path d="M177.209 87.508c.307-.004.571.246.515.55-.133.686-.535 1.31-1.136 1.762a3.655 3.655 0 01-2.152.714 3.674 3.674 0 01-2.172-.665c-.614-.44-1.034-1.054-1.187-1.737-.064-.3.188-.555.494-.558l5.638-.066z" fill="#920E08"/></mask><g mask="url(#mask2)"><path d="M177.767 87.5015C177.768 87.6806 177.757 87.8802 177.724 88.0571L171.077 88.1317C171.04 87.958 171.019 87.757 171.016 87.5803L177.767 87.5015Z" fill="white"/></g><path d="M176.906 89.555a3.39 3.39 0 01-1.117.72c-.425.17-.885.26-1.351.266a3.773 3.773 0 01-1.358-.234 3.424 3.424 0 01-1.139-.695c.673-.55 1.553-.86 2.47-.87a4.01 4.01 0 012.495.813z" fill="#F85C66"/><path d="M230.435 17.216l-7.391-2.783a2.03 2.03 0 00-1.554.056c-.49.224-.873.633-1.063 1.14l-1.162 3.106a2.057 2.057 0 00.056 1.56c.223.492.631.876 1.134 1.068l1.788.673c.546 1.12.79 1.986 1.085 2.096.295.11 1.163-.459 2.191-.864l2.328.876a2.03 2.03 0 001.553-.056 2.043 2.043 0 001.064-1.138l1.16-3.108a2.054 2.054 0 00-.054-1.559 2.041 2.041 0 00-1.135-1.067z" fill="#EBF2F9"/><path d="M227.978 19.66c.311-.819-.094-1.644-.736-1.89a1.289 1.289 0 00-1.486.415 1.303 1.303 0 00-.834-1.305c-.641-.247-1.486.097-1.804.918-.471 1.24.884 3.387 1.295 3.715l.024.018a.269.269 0 00.037.02.228.228 0 00.04.01h.031c.527.033 2.962-.661 3.433-1.9z" fill="#FCFCFC"/><path d="M248.712 98.89l-11.343-4.271a3.12 3.12 0 00-2.386.085 3.133 3.133 0 00-1.631 1.748l-1.783 4.768a3.155 3.155 0 00.085 2.395 3.135 3.135 0 001.741 1.639l2.743 1.032c.839 1.719 1.213 3.049 1.666 3.218.452.169 1.784-.704 3.362-1.326l3.573 1.344a3.12 3.12 0 002.385-.085 3.138 3.138 0 001.632-1.747l1.781-4.77a3.15 3.15 0 00-.084-2.393 3.132 3.132 0 00-1.741-1.637z" fill="#EBF2F9"/><path d="M244.94 102.641c.477-1.258-.146-2.524-1.13-2.901a1.981 1.981 0 00-2.282.636 2.005 2.005 0 00-.31-1.214 1.99 1.99 0 00-.969-.789c-.984-.379-2.281.15-2.769 1.41-.723 1.903 1.356 5.197 1.988 5.701l.037.028a.448.448 0 00.056.032c.02.006.041.011.062.014h.047c.809.051 4.547-1.015 5.27-2.917z" fill="#FCFCFC"/><path d="M281.586 11.55l-7.035 1.997a1.912 1.912 0 00-1.309 2.336l.816 2.962a1.875 1.875 0 002.315 1.307l1.7-.483c1.016.536 1.668 1.049 1.948.968.281-.08.621-.984 1.17-1.853l2.215-.63c.479-.138.886-.46 1.132-.898.245-.437.309-.954.178-1.437l-.818-2.962a1.869 1.869 0 00-2.312-1.306z" fill="#EBF2F9"/><path d="M281.073 14.733c-.212-.783-.964-1.175-1.578-1.004a1.21 1.21 0 00-.887 1.128 1.193 1.193 0 00-1.333-.514c-.614.17-1.059.892-.851 1.68.321 1.184 2.501 2.038 2.988 2.056h.028a.222.222 0 00.038-.004.21.21 0 00.035-.015l.023-.017c.413-.266 1.858-2.126 1.537-3.31z" fill="#FCFCFC"/><path d="M141.84 92.963l-7.368 1.87a1.988 1.988 0 00-1.429 2.39l.76 3.103a1.947 1.947 0 002.366 1.427l1.781-.453c1.04.587 1.702 1.139 1.995 1.064.294-.075.674-1.005 1.27-1.893l2.32-.59a1.991 1.991 0 001.43-2.39l-.761-3.102a1.943 1.943 0 00-2.364-1.426z" fill="#EBF2F9"/><path d="M141.213 96.256c-.198-.82-.968-1.248-1.611-1.09a1.254 1.254 0 00-.955 1.148 1.24 1.24 0 00-1.37-.573c-.643.159-1.127.897-.934 1.721.3 1.24 2.54 2.191 3.045 2.224l.029.001a.246.246 0 00.04-.003.22.22 0 00.037-.015l.024-.017c.437-.264 1.994-2.156 1.695-3.396z" fill="#FCFCFC"/><path d="M67.287 133.734l-13.057-4.596a3.933 3.933 0 00-2.738.047c-.862.343-1.531.984-1.861 1.784l-2.005 4.911a2.982 2.982 0 00.114 2.483c.399.788 1.122 1.409 2.013 1.726l3.155 1.113c.979 1.795 1.438 3.183 1.937 3.373.498.191 2.044-.693 3.849-1.317l4.117 1.414a3.933 3.933 0 002.74-.047c.861-.343 1.53-.984 1.86-1.784l2.009-4.911c.318-.8.273-1.689-.126-2.474-.4-.786-1.12-1.404-2.007-1.722z" fill="#EBF2F9"/><path d="M54.545 135.34l-1.33 3.309c-.089.222.043.476.294.568l1.352.495c.251.092.528-.014.617-.236l1.329-3.309c.09-.222-.042-.477-.294-.569l-1.351-.494c-.252-.092-.528.014-.617.236zm7.516 2.718l-.08-.011a.836.836 0 00.511-.076.695.695 0 00.333-.352.63.63 0 00.003-.469.734.734 0 00-.328-.37l-2.274-.799a3.58 3.58 0 001.292-1.303c.332-.815.022-1.442-.286-1.607a.662.662 0 00-.427-.083.597.597 0 00-.37.199c-.194.215-.219.736-.35.882-.206.22-.835.388-1.849.925a2.491 2.491 0 00-1.144 1.331l-.46 1.125-.462 1.121-.212.524a.396.396 0 00.014.324.482.482 0 00.265.225l4.225 1.487a.609.609 0 00.427.002.546.546 0 00.177-.11.467.467 0 00.146-.358.462.462 0 00-.054-.191.526.526 0 00-.132-.159.59.59 0 00-.19-.101l.077.011a.752.752 0 00.531.012.668.668 0 00.222-.135.583.583 0 00.143-.205.539.539 0 00.04-.24.573.573 0 00-.07-.238.649.649 0 00-.169-.195.712.712 0 00-.238-.121l.234.081a.732.732 0 00.53.012.636.636 0 00.223-.135.544.544 0 00.112-.682.637.637 0 00-.168-.195.714.714 0 00-.238-.122l-.004-.004z" fill="#FCFCFC"/><path d="M136.221 13.35l-7.421 2.82a2.26 2.26 0 00-1.185 1.05 1.988 1.988 0 00-.16 1.508l.925 2.98c.152.485.498.874.963 1.082.465.208 1.01.217 1.518.027l1.794-.681c1.09.445 1.801.902 2.09.801.289-.1.642-1.082 1.205-2.043l2.327-.906c.507-.193.933-.57 1.185-1.05.252-.48.31-1.021.161-1.508l-.924-2.98a1.752 1.752 0 00-.965-1.075 2.002 2.002 0 00-1.513-.026z" fill="#EBF2F9"/><path d="M131.218 18.892l.641 1.984c.043.133.197.2.343.147l.785-.279c.146-.052.229-.202.186-.335l-.641-1.985c-.043-.133-.196-.199-.342-.147l-.785.28c-.146.051-.23.201-.187.335zm4.287-1.608l-.039.024a.479.479 0 00.196-.223.41.41 0 00.016-.282.367.367 0 00-.171-.212.416.416 0 00-.28-.045l-1.29.482a2.11 2.11 0 00.088-1.065c-.154-.49-.521-.657-.716-.617a.374.374 0 00-.218.12.348.348 0 00-.088.227c-.007.169.174.412.17.527-.01.175-.223.483-.47 1.1a1.48 1.48 0 00-.012 1.024l.212.676.209.677.1.314a.225.225 0 00.125.14c.03.014.063.02.097.021a.276.276 0 00.102-.017l2.397-.896a.335.335 0 00.225-.272.268.268 0 00-.277-.304.32.32 0 00-.12.025l.037-.024a.425.425 0 00.237-.191.375.375 0 00.048-.143.336.336 0 00-.084-.268.319.319 0 00-.118-.08.357.357 0 00-.145-.027.399.399 0 00-.149.034l.132-.05a.415.415 0 00.285-.334.336.336 0 00-.084-.268.319.319 0 00-.118-.08.357.357 0 00-.145-.027.399.399 0 00-.149.034h-.003z" fill="#FCFCFC"/><path d="M74.164 85.041H31.816a3.486 3.486 0 01-2.468-1.026 3.51 3.51 0 01-1.022-2.477V56.141c0-.929.368-1.82 1.022-2.477a3.484 3.484 0 012.468-1.026h42.348c.926 0 1.813.37 2.468 1.026a3.51 3.51 0 011.022 2.477v25.397c0 .93-.368 1.82-1.022 2.477a3.484 3.484 0 01-2.468 1.026zM31.816 52.958a3.148 3.148 0 00-2.226.927 3.171 3.171 0 00-.924 2.234v25.397c.002.838.334 1.642.924 2.234.59.593 1.391.927 2.226.928h42.348a3.148 3.148 0 002.226-.927c.59-.593.923-1.397.924-2.235V56.12a3.172 3.172 0 00-.924-2.234 3.148 3.148 0 00-2.226-.927H31.816z" fill="#C4C4C4"/><path d="M37.597 76.704a.832.832 0 01-.775-.522.846.846 0 01-.063-.323V60.047a.847.847 0 01.838-.845.84.84 0 01.842.845v15.812a.843.843 0 01-.842.845z" fill="#E0E0E0"/><path d="M37.596 76.778a.835.835 0 01-.837-.846V65.74a.842.842 0 011.16-.778.837.837 0 01.52.778v10.194a.845.845 0 01-.52.781.834.834 0 01-.323.064z" fill="#EBF2F9"/><path d="M37.068 77.44v1.406h-.144v-1.28h-.327v-.126h.471zm.337.7c0-.438.231-.714.558-.714.328 0 .559.267.559.714 0 .447-.236.714-.559.714-.322 0-.558-.267-.558-.714zm.968 0c0-.377-.165-.582-.41-.582-.244 0-.414.205-.414.582s.17.582.414.582c.245 0 .41-.205.41-.582z" fill="#B3B3B3"/><path d="M40.956 76.704a.838.838 0 01-.778-.522.849.849 0 01-.064-.323V60.047a.851.851 0 01.842-.845.84.84 0 01.838.845v15.812a.844.844 0 01-.516.78.832.832 0 01-.322.065z" fill="#E0E0E0"/><path d="M40.956 76.778a.84.84 0 01-.842-.845V62.529a.851.851 0 01.842-.845.84.84 0 01.838.845v13.404a.844.844 0 01-.516.78.834.834 0 01-.322.065z" fill="#EBF2F9"/><path d="M40.755 78.713v.132h-.982v-.105l.58-.574c.162-.153.188-.25.188-.346 0-.096-.113-.263-.327-.263a.48.48 0 00-.38.158l-.105-.088a.624.624 0 01.498-.201c.283 0 .462.144.462.376a.576.576 0 01-.227.438l-.475.469.768.004zm.17-.573c0-.438.235-.714.558-.714.323 0 .563.267.563.714 0 .447-.236.714-.563.714-.327 0-.558-.267-.558-.714zm.973 0c0-.377-.17-.582-.415-.582-.244 0-.41.205-.41.582s.166.582.41.582c.245 0 .415-.205.415-.582z" fill="#B3B3B3"/><path d="M44.31 76.704a.832.832 0 01-.774-.522.842.842 0 01-.063-.323V60.047a.847.847 0 01.838-.845.84.84 0 01.842.845v15.812a.845.845 0 01-.52.782.834.834 0 01-.322.063z" fill="#E0E0E0"/><path d="M44.31 76.778a.835.835 0 01-.837-.845v-7.79a.842.842 0 011.16-.778.838.838 0 01.52.779v7.785a.844.844 0 01-.518.786.835.835 0 01-.324.063z" fill="#EBF2F9"/><path d="M44.09 78.438c0 .237-.17.416-.505.416a.74.74 0 01-.506-.18l.07-.113a.61.61 0 00.436.162c.23 0 .362-.11.362-.285s-.122-.276-.38-.276h-.1v-.109l.388-.486h-.715v-.127h.898v.1l-.397.5c.301.017.45.175.45.398zm.205-.298c0-.438.231-.714.559-.714.327 0 .558.267.558.714 0 .447-.236.714-.558.714-.323 0-.559-.267-.559-.714zm.969 0c0-.377-.17-.582-.41-.582-.24 0-.415.205-.415.582s.17.582.415.582c.244 0 .41-.205.41-.582z" fill="#B3B3B3"/><path d="M47.67 76.704a.838.838 0 01-.777-.522.849.849 0 01-.064-.323V60.047a.851.851 0 01.842-.845.84.84 0 01.837.845v15.812a.844.844 0 01-.516.78.831.831 0 01-.321.065z" fill="#E0E0E0"/><path d="M47.67 76.778a.84.84 0 01-.842-.845V62.529a.851.851 0 01.842-.845.84.84 0 01.837.845v13.404a.842.842 0 01-.837.845z" fill="#EBF2F9"/><path d="M47.67 78.473h-.284v.373h-.153v-.373h-.79v-.105l.742-.928h.162l-.716.906h.607v-.324h.14v.324h.292v.127zm.14-.333c0-.438.231-.714.558-.714.327 0 .559.267.559.714 0 .447-.236.714-.559.714-.323 0-.558-.267-.558-.714zm.968 0c0-.377-.17-.582-.41-.582-.24 0-.436.205-.436.582s.17.582.436.582.41-.205.41-.582z" fill="#B3B3B3"/><path d="M51.025 76.704a.832.832 0 01-.775-.522.844.844 0 01-.063-.323V60.047a.847.847 0 01.838-.845.84.84 0 01.842.845v15.812a.843.843 0 01-.842.845z" fill="#E0E0E0"/><path d="M51.024 76.778a.834.834 0 01-.775-.522.844.844 0 01-.063-.323V65.078a.842.842 0 011.16-.778.839.839 0 01.52.778v10.837a.843.843 0 01-.515.798.835.835 0 01-.327.065z" fill="#EBF2F9"/><path d="M50.952 78.43c0 .24-.166.438-.506.438a.727.727 0 01-.502-.18l.07-.114a.59.59 0 00.436.162c.24 0 .367-.118.367-.289 0-.17-.114-.289-.467-.289h-.301l.074-.705h.763v.127h-.637l-.047.438h.178c.415-.004.572.162.572.412zm.183-.29c0-.438.236-.714.559-.714.322 0 .558.267.558.714 0 .447-.236.714-.558.714-.323 0-.559-.267-.559-.714zm.969 0c0-.377-.166-.582-.41-.582-.245 0-.437.205-.437.582s.17.582.437.582c.266 0 .41-.205.41-.582z" fill="#B3B3B3"/><path d="M54.386 76.704a.84.84 0 01-.778-.522.849.849 0 01-.064-.323V60.047a.851.851 0 01.842-.845.84.84 0 01.838.845v15.812a.842.842 0 01-.838.845z" fill="#E0E0E0"/><path d="M54.385 76.704a.827.827 0 01-.842-.771v-7.79a.877.877 0 01.842-.915.836.836 0 01.837.84v7.786a.844.844 0 01-.515.785.835.835 0 01-.322.065z" fill="#EBF2F9"/><path d="M54.275 78.426a.44.44 0 01-.48.438c-.37 0-.576-.259-.576-.701 0-.442.262-.727.642-.727a.637.637 0 01.331.075l-.057.118a.479.479 0 00-.27-.066c-.306 0-.497.193-.497.574a1.03 1.03 0 000 .114.436.436 0 01.436-.241.434.434 0 01.471.416zm-.144 0c0-.189-.135-.307-.353-.307a.322.322 0 00-.358.311c0 .153.126.298.37.298a.303.303 0 00.312-.175.307.307 0 00.029-.123v-.004zm.309-.286c0-.438.232-.714.559-.714.327 0 .558.267.558.714 0 .447-.235.714-.558.714-.323 0-.559-.267-.559-.714zm.969 0c0-.377-.17-.582-.41-.582-.24 0-.415.205-.415.582s.17.582.415.582c.244 0 .41-.205.41-.582z" fill="#B3B3B3"/><path d="M57.741 76.704a.832.832 0 01-.775-.522.844.844 0 01-.062-.323V60.047a.847.847 0 01.837-.845.84.84 0 01.838.845v15.812a.844.844 0 01-.516.78.832.832 0 01-.322.065z" fill="#E0E0E0"/><path d="M57.74 76.779a.835.835 0 01-.838-.845V61.729a.842.842 0 01.838-.845.835.835 0 01.838.845v14.205a.844.844 0 01-.517.78.835.835 0 01-.321.065z" fill="#EBF2F9"/><path d="M57.56 77.44v.1l-.584 1.314h-.144l.576-1.278h-.72v.262h-.14v-.39l1.012-.008zm.144.7c0-.438.23-.714.558-.714.327 0 .558.267.558.714 0 .447-.235.714-.558.714-.323 0-.558-.267-.558-.714zm.968 0c0-.377-.166-.582-.41-.582-.244 0-.414.205-.414.582s.17.582.414.582c.244 0 .419-.205.419-.582h-.009z" fill="#B3B3B3"/><path d="M61.1 76.704a.838.838 0 01-.779-.522.849.849 0 01-.064-.323V60.047a.851.851 0 01.842-.845.84.84 0 01.838.845v15.812a.842.842 0 01-.838.845z" fill="#E0E0E0"/><path d="M61.099 76.778a.84.84 0 01-.842-.845v-6.179a.848.848 0 01.52-.78.838.838 0 011.16.78v6.179a.844.844 0 01-.517.78.832.832 0 01-.321.065z" fill="#EBF2F9"/><path d="M60.931 78.45c0 .25-.209.403-.545.403-.336 0-.54-.153-.54-.403a.356.356 0 01.27-.346.31.31 0 01-.218-.306c0-.232.191-.372.488-.372s.493.14.493.372a.316.316 0 01-.222.306.358.358 0 01.275.346zm-.148 0c0-.175-.148-.284-.397-.284-.248 0-.393.11-.393.284 0 .176.145.28.393.28.249 0 .397-.104.397-.28zm-.397-.398c.218 0 .35-.096.35-.25 0-.153-.14-.254-.35-.254-.21 0-.345.097-.345.254 0 .158.127.25.345.25zm.74.088c0-.438.236-.714.558-.714.323 0 .563.267.563.713 0 .447-.235.714-.563.714-.327 0-.558-.267-.558-.713zm.973 0c0-.377-.17-.583-.415-.583-.244 0-.41.206-.41.582 0 .377.166.583.41.583.245 0 .415-.206.415-.582z" fill="#B3B3B3"/><path d="M64.454 76.704a.832.832 0 01-.775-.522.842.842 0 01-.063-.323V60.047a.847.847 0 01.838-.845.84.84 0 01.842.845v15.812a.845.845 0 01-.519.782.834.834 0 01-.323.063z" fill="#E0E0E0"/><path d="M64.453 76.704a.823.823 0 01-.838-.77v-2.19a.878.878 0 01.838-.915.835.835 0 01.778.518.843.843 0 01.064.322v2.19a.843.843 0 01-.842.845z" fill="#EBF2F9"/><path d="M64.205 78.127c0 .477-.262.727-.641.727a.653.653 0 01-.332-.075l.057-.118a.478.478 0 00.27.066c.306 0 .498-.193.498-.574a1.029 1.029 0 000-.114.438.438 0 01-.437.241.435.435 0 01-.475-.438.44.44 0 01.48-.438c.375.022.58.28.58.723zm-.2-.276c0-.157-.127-.302-.372-.302a.305.305 0 00-.34.302c0 .189.135.307.354.307a.322.322 0 00.357-.307zm.403.289c0-.437.236-.713.559-.713.322 0 .558.267.558.713 0 .447-.236.714-.558.714-.323 0-.559-.267-.559-.713zm.969 0c0-.376-.166-.582-.41-.582-.245 0-.415.206-.415.582 0 .377.17.583.415.583.244 0 .41-.206.41-.582z" fill="#B3B3B3"/><path d="M67.813 76.704a.838.838 0 01-.778-.522.849.849 0 01-.064-.323V60.047a.85.85 0 01.842-.845.84.84 0 01.838.845v15.812a.844.844 0 01-.516.78.832.832 0 01-.322.065z" fill="#E0E0E0"/><path d="M67.813 76.703a.827.827 0 01-.842-.77v-7.79a.878.878 0 01.842-.915.836.836 0 01.838.84v7.786a.845.845 0 01-.515.784.835.835 0 01-.323.065z" fill="#EBF2F9"/><path d="M66.61 77.44v1.406h-.145v-1.28h-.331v-.126h.475zm.336.7c0-.438.231-.714.559-.714.327 0 .558.267.558.714 0 .447-.236.714-.558.714-.323 0-.559-.267-.559-.714zm.969 0c0-.377-.166-.582-.41-.582-.245 0-.415.205-.415.582s.17.582.415.582c.244 0 .41-.205.41-.582zm.352 0c0-.438.235-.714.558-.714.323 0 .558.267.558.714 0 .447-.235.714-.558.714-.323 0-.558-.267-.558-.714zm.968 0c0-.377-.166-.582-.41-.582-.244 0-.414.205-.414.582s.17.582.414.582c.244 0 .41-.205.41-.582z" fill="#B3B3B3"/><path d="M44.46 92.795c-.191.275-.458.48-.8.617a3.23 3.23 0 01-1.192.202c-.46 0-.867-.107-1.223-.322a2.183 2.183 0 01-.828-.924c-.193-.399-.293-.86-.298-1.386v-.493c0-.852.197-1.512.592-1.98.397-.47.954-.704 1.671-.704.588 0 1.062.152 1.42.455.359.3.578.727.658 1.281h-.743c-.14-.748-.583-1.122-1.33-1.122-.498 0-.876.176-1.134.528-.256.35-.385.857-.387 1.522v.462c0 .634.144 1.14.433 1.515.289.372.68.559 1.172.559.279 0 .523-.031.732-.093a1.13 1.13 0 00.518-.315v-1.27h-1.304v-.605h2.043v2.073zm1.336-1.398c0-.412.08-.782.24-1.11.163-.33.387-.583.673-.762.29-.178.618-.268.987-.268.57 0 1.03.199 1.38.595.354.396.53.922.53 1.58v.05c0 .41-.078.777-.235 1.103a1.766 1.766 0 01-.67.758 1.839 1.839 0 01-.998.271c-.567 0-1.027-.198-1.38-.594-.352-.396-.527-.92-.527-1.572v-.05zm.72.086c0 .465.107.84.32 1.122.218.282.506.423.867.423.364 0 .653-.142.867-.427.214-.287.321-.689.321-1.204 0-.46-.11-.833-.329-1.118a1.031 1.031 0 00-.866-.431c-.354 0-.639.14-.855.423-.217.282-.325.686-.325 1.212zm4.195-.086c0-.412.08-.782.24-1.11.162-.33.387-.583.673-.762.289-.178.618-.268.987-.268.57 0 1.03.199 1.38.595.354.396.53.922.53 1.58v.05c0 .41-.078.777-.235 1.103a1.768 1.768 0 01-.67.758 1.839 1.839 0 01-.998.271c-.567 0-1.028-.198-1.38-.594-.352-.396-.527-.92-.527-1.572v-.05zm.72.086c0 .465.107.84.32 1.122.217.282.506.423.867.423.364 0 .653-.142.867-.427.214-.287.321-.689.321-1.204 0-.46-.11-.833-.329-1.118a1.031 1.031 0 00-.866-.431c-.354 0-.639.14-.855.423-.217.282-.325.686-.325 1.212zm4.214-.082c0-.655.151-1.175.453-1.561a1.444 1.444 0 011.2-.583c.51 0 .908.182 1.195.544l.035-.466h.653v4.1c0 .544-.16.973-.483 1.286-.32.313-.75.47-1.292.47-.302 0-.597-.065-.886-.194a1.527 1.527 0 01-.662-.532l.371-.431c.307.38.683.57 1.126.57.348 0 .62-.098.813-.294.196-.197.294-.474.294-.832v-.36c-.287.33-.677.496-1.173.496-.49 0-.887-.198-1.191-.594-.302-.396-.453-.936-.453-1.619zm.72.082c0 .473.097.846.29 1.118.193.27.464.404.812.404.452 0 .783-.206.995-.618V90.47c-.22-.401-.548-.602-.987-.602a.95.95 0 00-.816.408c-.196.272-.294.674-.294 1.208zm5.073 2.054h-.715v-5.965h.715v5.965zm3.282.077c-.567 0-1.029-.186-1.384-.559-.356-.375-.534-.876-.534-1.503v-.132c0-.416.078-.788.236-1.114.16-.329.381-.585.665-.769a1.67 1.67 0 01.929-.28c.544 0 .967.18 1.269.54.301.36.452.875.452 1.546v.299h-2.836c.01.414.13.75.36 1.005.232.254.526.381.882.381.253 0 .467-.052.642-.155.176-.104.33-.241.46-.412l.438.342c-.35.54-.877.811-1.578.811zm-.088-3.766a.95.95 0 00-.728.318c-.196.21-.317.505-.363.886h2.097v-.055c-.021-.365-.12-.647-.294-.846-.176-.202-.413-.303-.712-.303zm246.083.404h-1.67v5.61h1.67v-5.61zm-13.933-.81h-1.67v6.42h1.67v-6.42zm3.484-1.342h-1.67v7.761h1.67v-7.76zm3.482.43h-1.67v7.336h1.67V88.53zm3.483-2.482h-1.669v9.814h1.669v-9.814zm6.968.047h-1.67v9.767h1.67v-9.767zm3.482 3.207h-1.67v6.56h1.67v-6.56zm3.484-2.776h-1.67v9.34h1.67v-9.34zm3.484-2.104h-1.67v11.44h1.67v-11.44zm3.484 2.055h-1.67v9.385h1.67v-9.385z" fill="#E0E0E0"/><path d="M331.619 102.82h-41.035a3.376 3.376 0 01-2.391-.994 3.399 3.399 0 01-.991-2.4v-24.61c0-.9.356-1.763.991-2.4a3.374 3.374 0 012.391-.994h41.035c.897 0 1.757.358 2.391.994.634.637.99 1.5.99 2.4v24.61c0 .9-.356 1.763-.99 2.4a3.376 3.376 0 01-2.391.994zm-41.035-31.088a3.05 3.05 0 00-2.157.898 3.073 3.073 0 00-.895 2.165v24.61a3.07 3.07 0 00.895 2.164 3.048 3.048 0 002.157.899h41.035a3.056 3.056 0 003.073-3.05v-24.61a3.074 3.074 0 00-.895-2.165 3.051 3.051 0 00-2.157-.899l-41.056-.012z" fill="#EBF2F9"/><path d="M313.944 79.581c0 .046-4.747.089-10.602.089-5.854 0-10.602-.043-10.602-.089 0-.047 4.748-.089 10.602-.089 5.855 0 10.602.025 10.602.089z" fill="#EBF2F9"/><path d="M299.921 108.325l1.425-2.751h.817l-1.882 3.436v2.043h-.719v-2.043l-1.882-3.436h.824l1.417 2.751zm5.449 2.728c-.04-.08-.072-.223-.097-.429a1.547 1.547 0 01-1.155.504c-.4 0-.729-.113-.986-.338a1.113 1.113 0 01-.382-.866c0-.424.16-.752.479-.986.323-.235.775-.353 1.357-.353h.675v-.32c0-.244-.072-.437-.217-.58-.145-.145-.359-.218-.641-.218-.248 0-.455.063-.623.188-.167.126-.251.277-.251.456h-.697c0-.204.071-.399.214-.587.145-.191.34-.342.585-.452.247-.11.518-.166.813-.166.467 0 .834.118 1.098.354.265.233.403.556.413.967v1.874c0 .374.047.671.142.892v.06h-.727zm-1.151-.531c.218 0 .424-.056.619-.169.195-.113.336-.26.423-.44v-.835h-.543c-.85 0-1.275.249-1.275.748 0 .219.073.389.218.512a.83.83 0 00.558.184zm3.863-3.54l.022.511c.31-.391.715-.587 1.215-.587.857 0 1.29.486 1.297 1.457v2.69h-.693v-2.694c-.003-.294-.07-.511-.203-.651-.13-.141-.334-.211-.611-.211a.994.994 0 00-.592.181 1.22 1.22 0 00-.398.474v2.901h-.693v-4.071h.656zm3.795 2.001c0-.624.148-1.126.443-1.505a1.395 1.395 0 011.158-.572c.475 0 .851.164 1.128.49v-2.123h.694v5.78h-.637l-.034-.437c-.278.342-.664.512-1.159.512-.469 0-.853-.193-1.15-.579-.295-.387-.443-.891-.443-1.513v-.053zm.694.079c0 .462.095.823.285 1.084.19.261.452.391.787.391.44 0 .761-.198.963-.594v-1.87c-.207-.384-.526-.576-.956-.576a.924.924 0 00-.794.395c-.19.264-.285.654-.285 1.17zm5.876 2.066c-.55 0-.998-.18-1.343-.542-.344-.363-.517-.849-.517-1.456v-.128c0-.404.076-.764.229-1.08.155-.318.37-.567.645-.745a1.62 1.62 0 01.899-.271c.528 0 .938.175 1.23.523.292.349.439.848.439 1.498v.29h-2.748c.01.401.126.726.348.974.225.246.51.369.855.369.245 0 .452-.05.622-.15.17-.101.319-.234.446-.399l.424.331c-.34.524-.85.786-1.529.786zm-.087-3.65a.917.917 0 00-.704.309c-.19.203-.308.489-.353.858h2.032v-.053c-.02-.354-.115-.627-.285-.82-.17-.196-.4-.294-.69-.294zm4.219.99l.9-1.486h.81l-1.327 2.013 1.368 2.058h-.802l-.938-1.524-.937 1.524h-.806l1.369-2.058-1.327-2.013h.802l.888 1.486z" fill="#E0E0E0"/></g><defs><filter id="filter0_d" x="3" y="123.473" width="337.617" height="110.733" filterUnits="userSpaceOnUse" color-interpolation-filters="sRGB"><feFlood flood-opacity="0" result="BackgroundImageFix"/><feColorMatrix in="SourceAlpha" values="0 0 0 0 0 0 0 0 0 0 0 0 0 0 0 0 0 0 127 0"/><feOffset dx="2" dy="2"/><feGaussianBlur stdDeviation="2"/><feColorMatrix values="0 0 0 0 0 0 0 0 0 0 0 0 0 0 0 0 0 0 0.2 0"/><feBlend in2="BackgroundImageFix" result="effect1_dropShadow"/><feBlend in="SourceGraphic" in2="effect1_dropShadow" result="shape"/></filter><filter id="filter1_di" x="119.245" y="50.746" width="25.59" height="25.633" filterUnits="userSpaceOnUse" color-interpolation-filters="sRGB"><feFlood flood-opacity="0" result="BackgroundImageFix"/><feColorMatrix in="SourceAlpha" values="0 0 0 0 0 0 0 0 0 0 0 0 0 0 0 0 0 0 127 0"/><feOffset dx="2" dy="2"/><feGaussianBlur stdDeviation="2"/><feColorMatrix values="0 0 0 0 0 0 0 0 0 0 0 0 0 0 0 0 0 0 0.15 0"/><feBlend in2="BackgroundImageFix" result="effect1_dropShadow"/><feBlend in="SourceGraphic" in2="effect1_dropShadow" result="shape"/><feColorMatrix in="SourceAlpha" values="0 0 0 0 0 0 0 0 0 0 0 0 0 0 0 0 0 0 127 0" result="hardAlpha"/><feOffset dx="-2" dy="-2"/><feGaussianBlur stdDeviation="2"/><feComposite in2="hardAlpha" operator="arithmetic" k2="-1" k3="1"/><feColorMatrix values="0 0 0 0 0 0 0 0 0 0 0 0 0 0 0 0 0 0 0.2 0"/><feBlend in2="shape" result="effect2_innerShadow"/></filter><filter id="filter2_di" x="207.194" y="50.746" width="25.59" height="25.633" filterUnits="userSpaceOnUse" color-interpolation-filters="sRGB"><feFlood flood-opacity="0" result="BackgroundImageFix"/><feColorMatrix in="SourceAlpha" values="0 0 0 0 0 0 0 0 0 0 0 0 0 0 0 0 0 0 127 0"/><feOffset dx="2" dy="2"/><feGaussianBlur stdDeviation="2"/><feColorMatrix values="0 0 0 0 0 0 0 0 0 0 0 0 0 0 0 0 0 0 0.15 0"/><feBlend in2="BackgroundImageFix" result="effect1_dropShadow"/><feBlend in="SourceGraphic" in2="effect1_dropShadow" result="shape"/><feColorMatrix in="SourceAlpha" values="0 0 0 0 0 0 0 0 0 0 0 0 0 0 0 0 0 0 127 0" result="hardAlpha"/><feOffset dx="-2" dy="-2"/><feGaussianBlur stdDeviation="2"/><feComposite in2="hardAlpha" operator="arithmetic" k2="-1" k3="1"/><feColorMatrix values="0 0 0 0 0 0 0 0 0 0 0 0 0 0 0 0 0 0 0.2 0"/><feBlend in2="shape" result="effect2_innerShadow"/></filter><filter id="filter3_di" x="144.866" y="26.98" width="25.59" height="25.633" filterUnits="userSpaceOnUse" color-interpolation-filters="sRGB"><feFlood flood-opacity="0" result="BackgroundImageFix"/><feColorMatrix in="SourceAlpha" values="0 0 0 0 0 0 0 0 0 0 0 0 0 0 0 0 0 0 127 0"/><feOffset dx="2" dy="2"/><feGaussianBlur stdDeviation="2"/><feColorMatrix values="0 0 0 0 0 0 0 0 0 0 0 0 0 0 0 0 0 0 0.15 0"/><feBlend in2="BackgroundImageFix" result="effect1_dropShadow"/><feBlend in="SourceGraphic" in2="effect1_dropShadow" result="shape"/><feColorMatrix in="SourceAlpha" values="0 0 0 0 0 0 0 0 0 0 0 0 0 0 0 0 0 0 127 0" result="hardAlpha"/><feOffset dx="-2" dy="-2"/><feGaussianBlur stdDeviation="2"/><feComposite in2="hardAlpha" operator="arithmetic" k2="-1" k3="1"/><feColorMatrix values="0 0 0 0 0 0 0 0 0 0 0 0 0 0 0 0 0 0 0.2 0"/><feBlend in2="shape" result="effect2_innerShadow"/></filter><filter id="filter4_di" x="181.575" y="26.98" width="25.59" height="25.633" filterUnits="userSpaceOnUse" color-interpolation-filters="sRGB"><feFlood flood-opacity="0" result="BackgroundImageFix"/><feColorMatrix in="SourceAlpha" values="0 0 0 0 0 0 0 0 0 0 0 0 0 0 0 0 0 0 127 0"/><feOffset dx="2" dy="2"/><feGaussianBlur stdDeviation="2"/><feColorMatrix values="0 0 0 0 0 0 0 0 0 0 0 0 0 0 0 0 0 0 0.15 0"/><feBlend in2="BackgroundImageFix" result="effect1_dropShadow"/><feBlend in="SourceGraphic" in2="effect1_dropShadow" result="shape"/><feColorMatrix in="SourceAlpha" values="0 0 0 0 0 0 0 0 0 0 0 0 0 0 0 0 0 0 127 0" result="hardAlpha"/><feOffset dx="-2" dy="-2"/><feGaussianBlur stdDeviation="2"/><feComposite in2="hardAlpha" operator="arithmetic" k2="-1" k3="1"/><feColorMatrix values="0 0 0 0 0 0 0 0 0 0 0 0 0 0 0 0 0 0 0.2 0"/><feBlend in2="shape" result="effect2_innerShadow"/></filter><filter id="filter5_di" x="78.712" y="13.563" width="28.267" height="24.1" filterUnits="userSpaceOnUse" color-interpolation-filters="sRGB"><feFlood flood-opacity="0" result="BackgroundImageFix"/><feColorMatrix in="SourceAlpha" values="0 0 0 0 0 0 0 0 0 0 0 0 0 0 0 0 0 0 127 0"/><feOffset dx="2" dy="2"/><feGaussianBlur stdDeviation="2"/><feColorMatrix values="0 0 0 0 0 0 0 0 0 0 0 0 0 0 0 0 0 0 0.15 0"/><feBlend in2="BackgroundImageFix" result="effect1_dropShadow"/><feBlend in="SourceGraphic" in2="effect1_dropShadow" result="shape"/><feColorMatrix in="SourceAlpha" values="0 0 0 0 0 0 0 0 0 0 0 0 0 0 0 0 0 0 127 0" result="hardAlpha"/><feOffset dx="-2" dy="-2"/><feGaussianBlur stdDeviation="2"/><feComposite in2="hardAlpha" operator="arithmetic" k2="-1" k3="1"/><feColorMatrix values="0 0 0 0 0 0 0 0 0 0 0 0 0 0 0 0 0 0 0.2 0"/><feBlend in2="shape" result="effect2_innerShadow"/></filter><filter id="filter6_di" x="168.477" y="7.508" width="20.595" height="17.893" filterUnits="userSpaceOnUse" color-interpolation-filters="sRGB"><feFlood flood-opacity="0" result="BackgroundImageFix"/><feColorMatrix in="SourceAlpha" values="0 0 0 0 0 0 0 0 0 0 0 0 0 0 0 0 0 0 127 0"/><feOffset dx="2" dy="2"/><feGaussianBlur stdDeviation="2"/><feColorMatrix values="0 0 0 0 0 0 0 0 0 0 0 0 0 0 0 0 0 0 0.15 0"/><feBlend in2="BackgroundImageFix" result="effect1_dropShadow"/><feBlend in="SourceGraphic" in2="effect1_dropShadow" result="shape"/><feColorMatrix in="SourceAlpha" values="0 0 0 0 0 0 0 0 0 0 0 0 0 0 0 0 0 0 127 0" result="hardAlpha"/><feOffset dx="-2" dy="-2"/><feGaussianBlur stdDeviation="2"/><feComposite in2="hardAlpha" operator="arithmetic" k2="-1" k3="1"/><feColorMatrix values="0 0 0 0 0 0 0 0 0 0 0 0 0 0 0 0 0 0 0.2 0"/><feBlend in2="shape" result="effect2_innerShadow"/></filter><filter id="filter7_di" x="278.096" y="124.552" width="22.363" height="19.289" filterUnits="userSpaceOnUse" color-interpolation-filters="sRGB"><feFlood flood-opacity="0" result="BackgroundImageFix"/><feColorMatrix in="SourceAlpha" values="0 0 0 0 0 0 0 0 0 0 0 0 0 0 0 0 0 0 127 0"/><feOffset dx="2" dy="2"/><feGaussianBlur stdDeviation="2"/><feColorMatrix values="0 0 0 0 0 0 0 0 0 0 0 0 0 0 0 0 0 0 0.15 0"/><feBlend in2="BackgroundImageFix" result="effect1_dropShadow"/><feBlend in="SourceGraphic" in2="effect1_dropShadow" result="shape"/><feColorMatrix in="SourceAlpha" values="0 0 0 0 0 0 0 0 0 0 0 0 0 0 0 0 0 0 127 0" result="hardAlpha"/><feOffset dx="-2" dy="-2"/><feGaussianBlur stdDeviation="2"/><feComposite in2="hardAlpha" operator="arithmetic" k2="-1" k3="1"/><feColorMatrix values="0 0 0 0 0 0 0 0 0 0 0 0 0 0 0 0 0 0 0.2 0"/><feBlend in2="shape" result="effect2_innerShadow"/></filter><filter id="filter8_di" x="251.297" y="44.578" width="27.77" height="23.362" filterUnits="userSpaceOnUse" color-interpolation-filters="sRGB"><feFlood flood-opacity="0" result="BackgroundImageFix"/><feColorMatrix in="SourceAlpha" values="0 0 0 0 0 0 0 0 0 0 0 0 0 0 0 0 0 0 127 0"/><feOffset dx="2" dy="2"/><feGaussianBlur stdDeviation="2"/><feColorMatrix values="0 0 0 0 0 0 0 0 0 0 0 0 0 0 0 0 0 0 0.15 0"/><feBlend in2="BackgroundImageFix" result="effect1_dropShadow"/><feBlend in="SourceGraphic" in2="effect1_dropShadow" result="shape"/><feColorMatrix in="SourceAlpha" values="0 0 0 0 0 0 0 0 0 0 0 0 0 0 0 0 0 0 127 0" result="hardAlpha"/><feOffset dx="-2" dy="-2"/><feGaussianBlur stdDeviation="2"/><feComposite in2="hardAlpha" operator="arithmetic" k2="-1" k3="1"/><feColorMatrix values="0 0 0 0 0 0 0 0 0 0 0 0 0 0 0 0 0 0 0.2 0"/><feBlend in2="shape" result="effect2_innerShadow"/></filter><filter id="filter9_di" x="92.679" y="97.034" width="28.104" height="23.662" filterUnits="userSpaceOnUse" color-interpolation-filters="sRGB"><feFlood flood-opacity="0" result="BackgroundImageFix"/><feColorMatrix in="SourceAlpha" values="0 0 0 0 0 0 0 0 0 0 0 0 0 0 0 0 0 0 127 0"/><feOffset dx="2" dy="2"/><feGaussianBlur stdDeviation="2"/><feColorMatrix values="0 0 0 0 0 0 0 0 0 0 0 0 0 0 0 0 0 0 0.15 0"/><feBlend in2="BackgroundImageFix" result="effect1_dropShadow"/><feBlend in="SourceGraphic" in2="effect1_dropShadow" result="shape"/><feColorMatrix in="SourceAlpha" values="0 0 0 0 0 0 0 0 0 0 0 0 0 0 0 0 0 0 127 0" result="hardAlpha"/><feOffset dx="-2" dy="-2"/><feGaussianBlur stdDeviation="2"/><feComposite in2="hardAlpha" operator="arithmetic" k2="-1" k3="1"/><feColorMatrix values="0 0 0 0 0 0 0 0 0 0 0 0 0 0 0 0 0 0 0.2 0"/><feBlend in2="shape" result="effect2_innerShadow"/></filter><filter id="filter10_f" x="120.155" y="138.885" width="96.381" height="49.473" filterUnits="userSpaceOnUse" color-interpolation-filters="sRGB"><feFlood flood-opacity="0" result="BackgroundImageFix"/><feBlend in="SourceGraphic" in2="BackgroundImageFix" result="shape"/><feGaussianBlur stdDeviation="1" result="effect1_foregroundBlur"/></filter><filter id="filter11_f" x="123.789" y="156.014" width="43.373" height="25.924" filterUnits="userSpaceOnUse" color-interpolation-filters="sRGB"><feFlood flood-opacity="0" result="BackgroundImageFix"/><feBlend in="SourceGraphic" in2="BackgroundImageFix" result="shape"/><feGaussianBlur stdDeviation="2" result="effect1_foregroundBlur"/></filter><filter id="filter12_f" x="170.151" y="159.289" width="54.362" height="26.614" filterUnits="userSpaceOnUse" color-interpolation-filters="sRGB"><feFlood flood-opacity="0" result="BackgroundImageFix"/><feBlend in="SourceGraphic" in2="BackgroundImageFix" result="shape"/><feGaussianBlur stdDeviation="2" result="effect1_foregroundBlur"/></filter><linearGradient id="paint0_linear" x1="100.354" y1="23.613" x2="81.317" y2="23.099" gradientUnits="userSpaceOnUse"><stop stop-color="#A62E41"/><stop offset="1" stop-color="#E13152"/></linearGradient><linearGradient id="paint1_linear" x1="181.679" y1="10.73" x2="171.617" y2="17.302" gradientUnits="userSpaceOnUse"><stop stop-color="#A62E41"/><stop offset="1" stop-color="#E13152"/></linearGradient><linearGradient id="paint2_linear" x1="292.863" y1="127.95" x2="281.406" y2="135.435" gradientUnits="userSpaceOnUse"><stop stop-color="#A62E41"/><stop offset="1" stop-color="#E13152"/></linearGradient><linearGradient id="paint3_linear" x1="5193.75" y1="6554.52" x2="5745.54" y2="7190.3" gradientUnits="userSpaceOnUse"><stop stop-color="#65BBFF"/><stop offset="1" stop-color="#315DA4"/></linearGradient><linearGradient id="paint4_linear" x1="5136.38" y1="6752.45" x2="5700.91" y2="7401.18" gradientUnits="userSpaceOnUse"><stop stop-color="#65BBFF"/><stop offset="1" stop-color="#315DA4"/></linearGradient><linearGradient id="paint5_linear" x1="156.097" y1="123.407" x2="172.392" y2="211.066" gradientUnits="userSpaceOnUse"><stop stop-color="#B4D1FA" stop-opacity="0"/><stop offset="1" stop-opacity=".2"/></linearGradient><linearGradient id="paint6_linear" x1="174.439" y1="145.374" x2="126.812" y2="146.501" gradientUnits="userSpaceOnUse"><stop stop-color="#71A0DD" stop-opacity="0"/><stop offset="1" stop-color="#71A0DD" stop-opacity=".5"/></linearGradient><clipPath id="clip0"><path fill="#fff" d="M0 0h340v235H0z"/></clipPath></defs></svg>
