<svg width="802" height="577" viewBox="0 0 802 577" fill="none" xmlns="http://www.w3.org/2000/svg">
<g filter="url(#filter0_f)">
<path d="M388.169 360.208L245.376 408.121L288.6 474.196L486.966 478.833L450.303 433.238L388.169 360.208Z" fill="url(#paint0_linear)"/>
</g>
<path d="M420.971 235.013C392.681 245.575 361.719 246.623 341.47 235.013C341.47 235.013 333.245 196.922 341.47 174.735C347.645 150.005 370.579 143.087 388.168 145.754C388.168 145.754 391.444 142.1 399.731 145.754C425.988 163.529 423.286 195.214 420.971 235.013Z" fill="#412716"/>
<path d="M416.341 179.275C405.539 183.299 397.032 179.374 385.516 179.275C369.111 179.275 360.217 185.26 349.576 179.275C343.095 197.911 335.56 207.579 341.603 238.491C347.646 269.403 345.92 279.603 350.638 295.263C379.689 312.773 392.39 314.466 413.185 295.22C413.185 295.22 409.781 272.108 420.201 245.06C426.761 218.012 422.254 202.437 418.864 187.736C418.249 184.632 417.131 181.901 416.341 179.275Z" fill="#3C2415"/>
<path d="M379.448 184.781C359.797 184.781 347.041 252.296 349.001 312.596C373.218 321.799 392.481 326.474 418.103 308.914C420.321 251.965 399.986 184.781 379.448 184.781Z" fill="#3B2415"/>
<path d="M339.716 266.759C339.716 266.759 349.186 260.81 363.243 256.474C364.625 256.048 365.81 255.084 366.29 253.72C368.593 247.184 367.182 241.354 367.182 233.456L397.86 230.706C397.86 230.706 396.985 243 398.551 253.403C398.87 255.517 400.633 257.029 402.734 257.42C405.81 257.992 409.254 259.034 418.807 261.824C424.165 261.824 381.417 310.403 381.417 310.403L339.716 266.759Z" fill="#FFCFAE"/>
<path d="M420.985 357.361L435.017 431.145C435.017 431.145 410.624 443.554 382.701 443.554C365.333 443.709 348.21 439.439 332.949 431.145L344.988 357.361L345.635 324.282C335.956 317.001 339.281 297.273 339.281 297.273L332.949 268.587L351.982 260.488L361.499 256.438L364.33 262.747C373.064 276.748 389.821 276.845 400.264 261.724L403.555 256.438L415.538 260.488L435.24 266.971L428.236 298.531C428.236 298.531 430.33 316.773 420.985 325.281V357.361Z" fill="#E63067"/>
<path d="M417.85 328.271C417.85 328.271 390.912 347.312 352.121 329.423C352.121 329.423 388.348 339.176 417.85 328.271Z" fill="#C11C57"/>
<path d="M344.098 298.141C344.098 298.141 330.318 338.521 319.672 358.899C319.672 358.899 347.366 376.896 363.248 392.712C363.248 392.712 359.685 414.399 353.479 406.318C353.479 406.318 310.413 380.714 300.063 365.443C300.063 365.443 314.15 283.02 332.97 268.587C339.549 277.106 343.425 287.399 344.098 298.141Z" fill="#E63067"/>
<path d="M423.871 298.141C423.871 298.141 435.377 340.703 446.041 361.081C446.041 361.081 432.968 370.352 403.555 394.348L414.994 403.619C414.994 403.619 454.626 378.023 462.797 365.48C462.797 365.48 449.156 282.705 435.241 266.878C428.72 276.093 424.793 286.89 423.871 298.141Z" fill="#E63067"/>
<path d="M263.104 395.179C263.104 395.179 282.939 388.67 322.393 399.801L325.117 407.982L263.104 395.179Z" fill="#06264A"/>
<path d="M441.526 405.614L500.607 394.774C500.607 394.774 478.091 390.253 441.975 399.32" fill="#06264A"/>
<path d="M383.236 438.926C410.492 438.926 432.588 431.049 432.588 421.333C432.588 411.616 410.492 403.739 383.236 403.739C355.98 403.739 333.885 411.616 333.885 421.333C333.885 431.049 355.98 438.926 383.236 438.926Z" fill="#06264A"/>
<path d="M330.85 417.876L432.458 418.286C434.672 418.282 436.819 417.533 438.553 416.162C440.286 414.79 441.505 412.875 442.012 410.727L445.28 354.753C445.635 352.782 445.55 350.758 445.031 348.825C444.513 346.891 443.573 345.095 442.279 343.564C440.985 342.033 439.369 340.806 437.545 339.969C435.722 339.132 433.735 338.706 431.728 338.721L332.594 339.662C330.578 339.68 328.591 340.142 326.774 341.014C324.958 341.886 323.357 343.148 322.086 344.708C320.816 346.269 319.906 348.09 319.423 350.042C318.94 351.994 318.895 354.028 319.292 355.999L321.602 411.369C322.283 413.272 323.537 414.918 325.192 416.083C326.848 417.248 328.824 417.874 330.85 417.876Z" fill="#EDF5FF" stroke="#71A0DD" stroke-width="0.3"/>
<path d="M408.497 339.108L332.591 339.662C330.575 339.679 328.588 340.141 326.772 341.013C324.955 341.885 323.354 343.147 322.083 344.708C320.813 346.268 319.903 348.09 319.42 350.041C318.937 351.993 318.892 354.027 319.289 355.998L322.032 411.995C322.713 413.897 323.967 415.544 325.622 416.708C327.278 417.873 329.254 418.5 331.28 418.502H356.51L408.497 339.108Z" fill="url(#paint1_linear)"/>
<path d="M382.498 389.326C389.185 389.326 394.606 384.33 394.606 378.167C394.606 372.004 389.185 367.009 382.498 367.009C375.811 367.009 370.39 372.004 370.39 378.167C370.39 384.33 375.811 389.326 382.498 389.326Z" fill="#61A6FF"/>
<path d="M324.646 406.963C316.721 402.779 308.184 399.884 299.355 398.386C291.295 396.999 280.622 395.409 269.68 394.479C260.676 393.717 258.653 399.757 259.327 406.963C260.491 419.397 269.899 433.809 281.701 437.734C301.816 444.382 340.158 456.342 383.759 466.137C383.759 466.137 392.021 452.604 388.818 441.168L380.606 436.516L324.646 406.963Z" fill="#0A3D76"/>
<path d="M352.171 458.035C352.171 458.035 345.539 453.703 342.261 457.74C339.005 462.001 338.941 461.199 335.269 461.421C331.575 461.419 318.956 457.056 305.525 453.246C292.117 449.661 280.35 462.009 285.038 471.66C289.726 481.311 316.498 475.828 323.098 476.611C329.698 477.394 330.887 478.384 336.85 477.2C342.813 476.016 359.026 477.861 359.376 472.82C359.535 468.028 354.763 459.99 352.171 458.035Z" fill="#B4D1FA" stroke="#263238" stroke-width="0.5" stroke-miterlimit="10" stroke-linecap="round" stroke-linejoin="round"/>
<path d="M295.884 476.725C297.15 469.759 295.077 459.841 293.507 454.31C285.746 457.802 281.398 466.025 285.096 472.497C286.626 475.12 290.777 476.35 295.884 476.725Z" fill="#C43B55" stroke="#263238" stroke-width="0.5" stroke-miterlimit="10" stroke-linecap="round" stroke-linejoin="round"/>
<mask id="mask0" mask-type="alpha" maskUnits="userSpaceOnUse" x="283" y="452" width="77" height="26">
<path d="M351.949 457.948C351.949 457.948 345.288 454.214 342.067 458.18C337.533 462.759 338.806 461.578 335.199 461.797C331.569 461.794 319.275 457.316 306.079 453.574C292.975 449.637 280.305 460.572 285.11 471.945C289.478 480.255 316.634 475.55 323.118 476.319C329.603 477.088 331.238 477.92 337.096 476.756C342.954 475.593 358.596 477.773 358.939 472.82C359.095 468.112 354.495 459.869 351.949 457.948Z" fill="#B4D1FA" stroke="#263238" stroke-width="0.5" stroke-miterlimit="10" stroke-linecap="round" stroke-linejoin="round"/>
</mask>
<g mask="url(#mask0)">
<path d="M302.567 477.274C301.578 471.434 300.268 454.972 297.583 451.393M310.391 479.269C309.785 472.852 307.363 455.276 304.047 452.061M318.413 478.911C318.212 472.616 315.869 457.087 313.238 455.187M326.827 476.036C326.266 471.018 323.786 458.773 321.786 456.508M337.791 477.777C334.098 473.274 330.771 458.035 332.076 457.572M348.134 478.846C335.564 471.896 338.173 454.038 344.898 452.933" stroke="#0A3D76" stroke-width="4" stroke-linecap="round"/>
</g>
<path d="M424.082 459.982C424.082 459.982 429.272 454.317 432.551 458.354C435.806 462.615 441.806 463.511 445.477 463.733C449.172 463.731 461.791 459.368 475.222 455.559C488.63 451.974 500.397 464.321 495.709 473.972C491.021 483.623 464.248 478.141 457.648 478.923C451.048 479.706 449.86 480.697 443.897 479.512C437.934 478.328 421.72 480.174 421.37 475.132C421.212 470.341 421.49 461.937 424.082 459.982Z" fill="#B4D1FA" stroke="black" stroke-width="0.5" stroke-miterlimit="10" stroke-linecap="round" stroke-linejoin="round"/>
<path d="M484.374 478.753C483.109 471.787 485.182 461.869 486.751 456.338C494.512 459.83 498.861 468.054 495.162 474.525C493.633 477.149 489.482 478.378 484.374 478.753Z" fill="#C43B55" stroke="#263238" stroke-width="0.5" stroke-miterlimit="10" stroke-linecap="round" stroke-linejoin="round"/>
<mask id="mask1" mask-type="alpha" maskUnits="userSpaceOnUse" x="421" y="454" width="76" height="26">
<path d="M423.943 458.227C423.943 458.227 432.418 455.933 435.639 459.899C440.173 464.479 441.455 463.606 445.062 463.825C448.691 463.823 460.986 459.345 474.181 455.602C487.286 451.666 499.956 462.601 495.151 473.973C490.782 482.284 463.626 477.578 457.142 478.347C450.658 479.116 449.022 479.948 443.164 478.784C437.306 477.621 421.665 479.801 421.321 474.848C421.165 470.141 421.396 460.147 423.943 458.227Z" fill="#B4D1FA" stroke="#263238" stroke-width="0.5" stroke-miterlimit="10" stroke-linecap="round" stroke-linejoin="round"/>
</mask>
<g mask="url(#mask1)">
<path d="M477.692 479.302C478.682 473.462 479.992 457 482.677 453.422M469.869 481.298C470.475 474.88 472.897 457.304 476.213 454.09M461.847 480.94C462.047 474.644 464.39 459.115 467.022 457.215M453.432 478.065C453.994 473.046 456.473 460.801 458.474 458.536M442.469 479.805C446.162 475.303 449.488 460.064 448.184 459.6M432.125 480.874C444.696 473.924 442.086 456.066 435.362 454.962" stroke="#0A3D76" stroke-width="4" stroke-linecap="round"/>
</g>
<path d="M425.778 476.756C423.67 476.012 384.651 464.03 384.651 464.03L375.697 466.466C375.697 466.466 363.539 471.05 354.569 473.841C349.553 472.84 341.282 468.436 345.711 458.655C346.308 457.338 347.562 456.421 348.917 455.914C352.408 454.607 359.098 451.815 362.938 449.676C367.327 447.215 374.442 443.021 379.104 441.134C382.618 439.737 383.433 439.208 383.505 439.009L383.234 438.892C383.234 438.892 383.556 438.868 383.505 439.009L420.536 454.886L429.669 457.501C437.557 464.593 436.7 471.07 429.669 476.225C428.836 476.756 426.652 477.193 425.778 476.756Z" fill="#FFCFAE"/>
<path d="M380.453 461.815C380.902 461.516 378.477 462.355 365.185 468.11C359.756 470.461 355.141 471.85 351.265 472.63C352.115 473.528 354.551 473.743 355.444 473.694C357.511 473.311 358.977 472.891 359.13 472.338C366.996 469.491 373.021 467.615 382.249 464.513L380.453 461.815Z" fill="#EAAB85"/>
<path d="M439.855 406.963C447.779 402.779 456.316 399.884 465.146 398.386C473.205 396.999 483.878 395.409 494.821 394.479C503.892 393.717 505.898 399.757 505.224 406.963C504.077 419.397 497.94 435.467 486.137 439.375C466.022 446.04 427.681 457.983 384.079 467.795C384.079 467.795 372.53 452.57 375.649 441.168L383.978 436.516L439.855 406.963Z" fill="#0A3D76"/>
<path d="M347.582 456.198C341.465 461.447 344.524 472.382 354.571 473.694C355.882 473.694 358.677 473.432 359.376 472.382" stroke="black" stroke-width="0.5"/>
<path d="M420.974 475.444C422.016 476.153 425.779 478.068 429.441 476.648C438.448 469.758 435.826 464.509 431.457 459.26C431.166 458.969 429.885 457.073 428.837 457.073" stroke="black" stroke-width="0.5"/>
<g filter="url(#filter1_f)">
<path d="M278.518 435.738C266.663 431.062 261.304 416.705 260.106 410.11C282.11 431.692 311.748 440.684 352.612 453.723L346.774 456.87C328.962 451.924 290.373 440.414 278.518 435.738Z" fill="black" fill-opacity="0.1"/>
</g>
<g filter="url(#filter2_f)">
<path d="M502.597 418.653C481.94 437.986 413.534 455.671 381.352 463.164L384.495 467.211C414.432 460.167 474.755 443.381 486.88 438.885C496.31 435.388 501.549 422.999 502.597 418.653Z" fill="black" fill-opacity="0.1"/>
</g>
<path d="M415.731 474.132L390.332 465.862L392.577 465.412C409.147 471.793 423.158 475.094 425.779 476.756C427.304 477.723 419.43 475.147 415.731 474.132Z" fill="#DCA17D"/>
<path d="M396.696 235.186C379.693 242.918 377.91 239.458 368.252 235.725L368.252 235.943C379.947 257.531 391.344 246.596 396.696 235.725V235.186Z" fill="#EAAB85"/>
<path d="M353.539 204.699C354.374 209.729 355.892 215.721 358.246 221.437C365.311 232.24 370.508 242.552 382.476 242.552C393.437 242.552 399.15 233.222 406.228 221.437C408.265 216.563 409.678 211.414 410.428 206.663C412.14 195.819 400.131 181.173 400.131 181.173C400.131 181.173 398.169 162.024 388.361 166.442C371.686 179.209 360.911 173.137 354.522 188.005C351.435 195.188 353.042 188.201 353.539 204.699Z" fill="#FFCFAE"/>
<path d="M354.01 204.196C351.966 199.3 348.633 196.325 346.644 197.545C344.656 198.764 344.564 203.734 346.644 208.63C348.725 213.526 352.021 216.5 354.01 215.281C355.999 214.061 356.036 209.055 354.01 204.196Z" fill="#FFCFAE"/>
<path d="M353.312 205.822C352.059 202.811 349.997 200.982 348.745 201.739C347.493 202.497 347.456 205.545 348.745 208.556C350.034 211.568 352.041 213.434 353.312 212.639C354.582 211.845 354.582 208.833 353.312 205.822Z" fill="#EAAB85"/>
<path d="M354.823 208.613C354.216 206.876 352.761 205.989 351.583 206.765C350.969 207.294 350.541 208.007 350.362 208.799C350.183 209.591 350.262 210.419 350.588 211.162C351.214 213.01 352.651 213.804 353.829 213.12C354.48 212.594 354.934 211.861 355.114 211.041C355.295 210.222 355.192 209.366 354.823 208.613Z" fill="#FFCFAE"/>
<path d="M410.575 199.958C412.938 195.062 416.314 193.409 418.129 196.312C419.944 199.216 418.693 205.183 416.316 210.101C413.938 215.018 410.575 216.484 409.59 214.073C407.761 211.191 408.225 204.854 410.575 199.958Z" fill="#FFCFAE"/>
<path d="M412.12 203.718C413.806 200.817 415.849 199.734 416.672 201.297C417.495 202.859 416.751 206.49 415.053 209.369C413.355 212.247 411.307 213.371 410.443 211.783C409.579 210.195 410.407 206.595 412.12 203.718Z" fill="#EAAB85"/>
<path d="M410.575 209.061C411.253 207.223 412.423 206.305 413.194 207.05C413.964 207.795 414.015 209.883 413.35 211.72C412.685 213.557 411.5 214.461 410.731 213.732C409.963 213.002 409.904 210.946 410.575 209.061Z" fill="#FFCFAE"/>
<path d="M354.522 206.663C351.134 202.137 347.151 193.808 350.428 179.545L355.993 175.729C355.993 191.295 350.802 190.498 354.522 206.663Z" fill="#412716"/>
<path d="M409.939 207.154C413.327 202.628 417.31 194.299 414.033 180.036L399.64 175.772C399.64 192.467 411.9 191.976 409.939 207.154Z" fill="#412716"/>
<path d="M357.982 193.372C359.512 191.017 365.351 184.129 374.192 188.422C374.748 188.693 375.02 188.803 375.314 189.853C367.297 187.757 363.204 188.49 357.982 193.372Z" fill="#412716"/>
<path d="M405.441 193.372C403.911 191.017 398.072 184.129 389.231 188.422C388.674 188.693 388.403 188.803 388.108 189.853C396.126 187.757 400.219 188.49 405.441 193.372Z" fill="#412716"/>
<path d="M386.133 210.362C386.133 208.662 384.641 201.66 382.45 201.66C380.259 201.66 378.454 208.662 378.454 210.362C378.645 211.228 379.126 212.003 379.815 212.558C380.505 213.114 381.363 213.416 382.247 213.416C383.132 213.416 383.99 213.114 384.679 212.558C385.369 212.003 385.849 211.228 386.041 210.362H386.133Z" fill="#FFCFAE"/>
<path d="M378.343 213.538C377.529 214.359 378.745 214.772 378.745 214.772H380.367C380.367 214.772 381.99 216.415 383.603 214.772H385.225C385.225 214.772 386.44 214.359 385.632 213.538" stroke="#EAAB85" stroke-width="0.8" stroke-miterlimit="10" stroke-linejoin="round"/>
<path d="M380.023 199.789C380.023 199.789 382.131 202.466 380.168 209.61L380.023 199.789Z" fill="#EAAB85"/>
<path d="M366.399 195.057C367.769 194.555 368.215 194.717 370.246 194.719C371.174 194.826 372.083 195.053 372.951 195.392C372.951 195.392 374.974 197.406 375.216 197.668C375.641 198.144 375.483 198.681 374.839 198.767C374.196 198.854 373.486 198.658 372.944 198.765C368.771 199.431 367.876 199.685 365.497 198.757C364.546 198.416 363.639 197.964 362.795 197.413C363.811 196.379 365.041 195.575 366.399 195.057Z" fill="white"/>
<path d="M368.884 195.439C370.214 195.423 371.289 196.45 371.286 197.734C371.284 198.306 371.069 198.832 370.712 199.241C369.9 199.602 367.913 199.409 367.02 199.267C366.676 198.869 366.469 198.355 366.471 197.792C366.474 196.508 367.555 195.455 368.884 195.439Z" fill="#28160D" stroke="#1C1105" stroke-width="0.2" stroke-miterlimit="10"/>
<path d="M368.871 199.096C368.11 199.105 367.495 198.518 367.497 197.783C367.499 197.049 368.117 196.447 368.878 196.438C369.639 196.428 370.254 197.016 370.252 197.75C370.25 198.484 369.632 199.087 368.871 199.096Z" fill="black"/>
<path opacity="0.77" d="M370.228 197.761C369.847 197.766 369.54 197.471 369.541 197.104C369.542 196.737 369.851 196.435 370.231 196.431C370.612 196.426 370.919 196.72 370.918 197.087C370.917 197.455 370.608 197.756 370.228 197.761Z" fill="white"/>
<path d="M375.394 198.281L372.989 195.667C372.771 195.432 372.49 195.263 372.179 195.177L371.186 194.922C370.678 194.793 370.153 194.747 369.63 194.786L367.079 194.984C366.558 195.024 366.053 195.181 365.602 195.444L362.964 197.014L362.111 197.06L364.576 194.874C365.116 194.553 365.724 194.362 366.351 194.313L368.895 194.116C369.496 194.069 370.1 194.124 370.681 194.278L371.668 194.534C372.312 194.638 372.93 194.867 373.485 195.206L376.321 198.389L375.394 198.281Z" fill="#D3A688"/>
<path opacity="0.5" d="M375.642 198.392L373.237 195.78C372.978 195.498 372.644 195.296 372.272 195.196L371.286 194.941C370.726 194.796 370.145 194.745 369.568 194.791L367.017 194.989C366.442 195.031 365.885 195.207 365.391 195.502L362.794 197.064" stroke="#0A0001" stroke-width="0.3" stroke-miterlimit="10"/>
<path d="M375.295 198.767L374.235 198.765C373.678 198.763 373.123 198.817 372.579 198.928C371.314 199.198 368.616 199.864 366.172 199.096C366.024 199.049 364.965 198.502 364.823 198.429L363.474 197.762" stroke="#472A22" stroke-width="0.2" stroke-miterlimit="10"/>
<path d="M397.027 195.294C395.671 194.751 395.221 194.883 393.187 194.785C392.255 194.842 391.34 195.012 390.465 195.292C390.465 195.292 388.403 197.104 388.162 197.341C387.721 197.772 387.87 198.289 388.513 198.402C389.156 198.516 389.871 198.365 390.412 198.493C394.58 199.33 395.478 199.615 397.871 198.85C398.83 198.572 399.746 198.189 400.602 197.707C399.599 196.677 398.38 195.854 397.027 195.294Z" fill="white"/>
<path d="M394.5 195.631C395.834 195.787 396.912 196.859 396.909 198.026C396.908 198.579 396.664 199.054 396.266 199.384C394.853 199.339 394.091 199.227 392.732 198.986C392.326 198.56 392.077 198.021 392.079 197.46C392.082 196.294 393.166 195.474 394.5 195.631Z" fill="#28160D" stroke="#1C1105" stroke-width="0.2" stroke-miterlimit="10"/>
<path d="M394.486 198.999C393.722 198.909 393.104 198.288 393.106 197.612C393.108 196.936 393.728 196.461 394.492 196.551C395.256 196.642 395.874 197.263 395.872 197.939C395.87 198.615 395.249 199.09 394.486 198.999Z" fill="black"/>
<path opacity="0.77" d="M395.855 197.747C395.473 197.701 395.164 197.391 395.165 197.052C395.166 196.714 395.476 196.476 395.858 196.522C396.24 196.567 396.549 196.878 396.548 197.216C396.547 197.554 396.237 197.792 395.855 197.747Z" fill="white"/>
<path d="M387.972 197.858L390.427 195.52C390.651 195.309 390.938 195.163 391.254 195.1L392.246 194.908C392.757 194.812 393.284 194.794 393.807 194.856L396.365 195.166C396.886 195.23 397.388 195.402 397.836 195.669L400.443 197.271L401.296 197.356L398.867 195.183C398.331 194.856 397.726 194.647 397.099 194.571L394.548 194.262C393.949 194.189 393.346 194.212 392.763 194.328L391.764 194.52C391.117 194.587 390.494 194.771 389.932 195.063L387.049 197.915L387.972 197.858Z" fill="#D3A688"/>
<path opacity="0.5" d="M387.722 197.966L390.177 195.639C390.441 195.389 390.78 195.216 391.154 195.14L392.146 194.949C392.694 194.845 393.26 194.825 393.821 194.89L396.372 195.198C396.947 195.265 397.502 195.457 397.991 195.757L400.611 197.346" stroke="#0A0001" stroke-width="0.3" stroke-miterlimit="10"/>
<path d="M388.04 198.472L389.101 198.52C389.66 198.543 390.217 198.617 390.762 198.741C392.023 199.039 394.704 199.754 397.163 199.185C397.319 199.151 398.382 198.714 398.525 198.656C399.036 198.455 398.525 198.656 399.887 198.127" stroke="#472A22" stroke-width="0.2" stroke-miterlimit="10"/>
<path d="M390.896 222.434L390.896 222.432C391.069 221.49 390.25 220.753 389.352 220.764L374.602 220.935C373.707 220.946 372.92 221.701 373.12 222.632L373.12 222.632L373.12 222.634C373.533 224.47 374.661 226.114 376.303 227.285C377.944 228.456 379.996 229.082 382.102 229.058C384.208 229.034 386.241 228.363 387.848 227.155C389.455 225.947 390.537 224.278 390.896 222.434Z" fill="#920E08" stroke="#EA908A" stroke-width="0.4"/>
<mask id="mask2" mask-type="alpha" maskUnits="userSpaceOnUse" x="373" y="220" width="18" height="9">
<path d="M389.355 220.964C390.157 220.954 390.844 221.607 390.7 222.396C390.351 224.187 389.299 225.815 387.728 226.995C386.157 228.176 384.165 228.835 382.099 228.858C380.034 228.881 378.024 228.267 376.419 227.122C374.814 225.977 373.716 224.374 373.315 222.591C373.148 221.81 373.806 221.145 374.605 221.135L389.355 220.964Z" fill="#920E08"/>
</mask>
<g mask="url(#mask2)">
<path d="M390.81 220.947C390.813 221.414 390.784 221.935 390.7 222.396L373.315 222.591C373.218 222.137 373.165 221.613 373.155 221.152L390.81 220.947Z" fill="white"/>
</g>
<path d="M388.561 226.301C387.745 227.098 386.751 227.739 385.64 228.182C384.53 228.625 383.327 228.861 382.107 228.875C380.888 228.889 379.678 228.681 378.555 228.264C377.431 227.847 376.418 227.23 375.578 226.452C377.337 225.017 379.638 224.208 382.037 224.18C384.435 224.152 386.76 224.908 388.561 226.301Z" fill="#F85C66"/>
<path d="M528.545 37.5947L509.216 30.3344C507.895 29.8429 506.434 29.8949 505.152 30.4789C503.869 31.0629 502.869 32.1314 502.371 33.451L499.333 41.5556C498.843 42.8784 498.895 44.3416 499.479 45.626C500.062 46.9104 501.128 47.9118 502.446 48.4117L507.12 50.1662C508.549 53.0883 509.186 55.3487 509.958 55.6361C510.729 55.9235 512.999 54.4385 515.687 53.3817L521.775 55.6661C523.095 56.1568 524.556 56.1049 525.838 55.5216C527.121 54.9383 528.12 53.8709 528.62 52.5524L531.655 44.4448C532.146 43.1233 532.094 41.6609 531.511 40.3773C530.929 39.0937 529.862 38.0933 528.545 37.5947Z" fill="#EBF2F9"/>
<path d="M522.121 43.9692C522.934 41.8315 521.872 39.6789 520.195 39.0382C519.517 38.7768 518.773 38.7408 518.073 38.9354C517.373 39.13 516.754 39.545 516.308 40.119C516.357 39.3926 516.172 38.6695 515.779 38.0566C515.387 37.4436 514.808 36.9733 514.128 36.7149C512.45 36.0712 510.24 36.9694 509.409 39.11C508.177 42.3465 511.721 47.9452 512.797 48.8014L512.86 48.8493C512.89 48.8699 512.922 48.8879 512.956 48.9032C512.99 48.9143 513.025 48.9223 513.06 48.9272H513.141C514.519 49.014 520.889 47.2027 522.121 43.9692Z" fill="#FCFCFC"/>
<path d="M576.344 250.656L546.679 239.513C544.652 238.759 542.409 238.839 540.441 239.735C538.473 240.631 536.939 242.271 536.174 244.297L531.511 256.735C530.759 258.765 530.839 261.011 531.734 262.982C532.629 264.953 534.267 266.49 536.289 267.258L543.462 269.95C545.656 274.435 546.633 277.904 547.817 278.345C549.001 278.786 552.485 276.507 556.61 274.885L565.954 278.391C567.981 279.144 570.222 279.065 572.19 278.169C574.158 277.274 575.693 275.636 576.459 273.612L581.117 261.169C581.871 259.141 581.791 256.897 580.897 254.927C580.003 252.957 578.366 251.421 576.344 250.656Z" fill="#EBF2F9"/>
<path d="M566.481 260.439C567.73 257.158 566.1 253.855 563.526 252.871C562.485 252.47 561.343 252.415 560.269 252.714C559.195 253.012 558.245 253.649 557.56 254.53C557.635 253.415 557.351 252.306 556.749 251.365C556.146 250.424 555.258 249.702 554.214 249.306C551.64 248.318 548.248 249.696 546.972 252.982C545.081 257.949 550.52 266.541 552.172 267.856L552.268 267.929C552.315 267.961 552.364 267.988 552.415 268.012C552.467 268.029 552.521 268.041 552.576 268.048H552.7C554.815 268.182 564.591 265.402 566.481 260.439Z" fill="#FCFCFC"/>
<path d="M662.773 22.4894L644.144 29.209C642.873 29.6713 641.774 30.5878 641.086 31.7583C640.398 32.9288 640.177 34.2581 640.472 35.4556L642.298 42.7982C642.601 43.9932 643.393 44.9565 644.503 45.4781C645.613 45.9998 646.95 46.0374 648.223 45.5827L652.727 43.9572C655.331 45.082 656.984 46.2348 657.727 45.965C658.469 45.6952 659.455 43.3169 660.983 40.9772L666.849 38.8591C668.119 38.3965 669.218 37.4804 669.906 36.3106C670.595 35.1407 670.816 33.812 670.523 32.6144L668.693 25.2716C668.391 24.0771 667.6 23.1139 666.49 22.5926C665.381 22.0712 664.045 22.0341 662.773 22.4894Z" fill="#EBF2F9"/>
<path d="M661.099 30.6897C660.621 28.7296 658.684 27.8943 657.055 28.47C656.395 28.7009 655.802 29.1266 655.361 29.6841C654.921 30.2415 654.657 30.9011 654.61 31.5654C654.271 31.0368 653.753 30.6526 653.132 30.4693C652.511 30.2861 651.82 30.3137 651.16 30.5479C649.529 31.1215 648.286 33.0759 648.753 35.049C649.477 38.0169 655.118 39.7157 656.394 39.6519L656.468 39.6468C656.502 39.6425 656.536 39.6355 656.57 39.6258C656.602 39.6128 656.633 39.5971 656.663 39.5789L656.726 39.53C657.836 38.7551 661.822 33.6556 661.099 30.6897Z" fill="#FCFCFC"/>
<path d="M297.416 234.794L277.863 241.534C276.529 241.998 275.355 242.934 274.598 244.138C273.84 245.341 273.56 246.715 273.82 247.958L275.43 255.579C275.697 256.82 276.481 257.826 277.611 258.379C278.741 258.931 280.124 258.986 281.459 258.53L286.187 256.899C288.841 258.093 290.509 259.306 291.288 259.035C292.068 258.764 293.179 256.314 294.852 253.91L301.009 251.785C302.343 251.321 303.516 250.385 304.274 249.182C305.031 247.979 305.312 246.606 305.054 245.363L303.44 237.742C303.174 236.502 302.391 235.496 301.262 234.943C300.133 234.391 298.75 234.337 297.416 234.794Z" fill="#EBF2F9"/>
<path d="M295.366 243.267C294.942 241.228 292.965 240.336 291.255 240.911C290.563 241.141 289.931 241.575 289.454 242.147C288.977 242.719 288.679 243.399 288.605 244.087C288.274 243.535 287.751 243.129 287.114 242.931C286.477 242.733 285.759 242.752 285.067 242.986C283.355 243.559 281.994 245.569 282.405 247.621C283.046 250.708 288.832 252.545 290.157 252.496L290.233 252.492C290.269 252.488 290.304 252.481 290.34 252.472C290.373 252.459 290.406 252.443 290.438 252.424L290.505 252.375C291.685 251.586 296.006 246.352 295.366 243.267Z" fill="#FCFCFC"/>
<path d="M102.193 343.208L63.6556 330.165C61.0229 329.276 58.26 329.191 55.9709 329.927C53.6817 330.663 52.0523 332.161 51.4388 334.094L47.7332 345.966C47.1339 347.904 47.6012 350.114 49.0329 352.113C50.4645 354.113 52.7442 355.74 55.3736 356.639L64.6866 359.797C68.1483 364.357 69.9872 367.844 71.4641 368.38C72.9411 368.915 76.9402 366.931 81.771 365.623L93.9109 369.649C96.5435 370.538 99.3064 370.623 101.596 369.887C103.885 369.151 105.514 367.653 106.128 365.72L109.844 353.849C110.424 351.913 109.947 349.711 108.515 347.719C107.083 345.728 104.812 344.107 102.193 343.208Z" fill="#EBF2F9"/>
<path d="M67.5561 345.714L64.9793 354.111C64.8063 354.675 65.2999 355.353 66.0819 355.625L70.2838 357.089C71.0657 357.361 71.8398 357.125 72.0129 356.561L74.5897 348.164C74.7627 347.6 74.2691 346.922 73.4871 346.65L69.2853 345.186C68.5033 344.914 67.7291 345.15 67.5561 345.714Z" fill="#FCFCFC"/>
<path d="M89.6025 353.077L89.358 353.038C89.8975 353.135 90.4269 353.092 90.8558 352.915C91.2847 352.738 91.5864 352.439 91.7093 352.069C91.8321 351.699 91.7685 351.281 91.5293 350.886C91.2902 350.491 90.8903 350.144 90.3981 349.904L83.2766 347.576C84.7853 346.825 85.9334 345.752 86.614 344.457C87.2792 342.444 86.0973 340.816 85.1114 340.357C84.7009 340.151 84.2327 340.055 83.8001 340.09C83.3674 340.125 83.002 340.286 82.7767 340.543C82.2808 341.058 82.4168 342.373 82.0861 342.725C81.5551 343.252 79.7434 343.591 76.9299 344.812C75.425 345.514 74.4054 346.648 74.0463 348.021L73.1271 350.804L72.1963 353.576L71.7728 354.869C71.7299 354.997 71.7231 355.135 71.753 355.276C71.7829 355.417 71.8487 355.558 71.9468 355.69C72.0448 355.823 72.1732 355.945 72.3246 356.049C72.4759 356.152 72.6473 356.237 72.8288 356.296L86.0611 360.627C86.2751 360.702 86.4984 360.747 86.7178 360.757C86.9372 360.768 87.1481 360.745 87.3381 360.69C87.5281 360.635 87.6932 360.549 87.8237 360.436C87.9541 360.324 88.0473 360.187 88.0975 360.035C88.1478 359.883 88.1542 359.719 88.1163 359.551C88.0785 359.384 87.9971 359.217 87.8771 359.061C87.7571 358.905 87.6009 358.762 87.4177 358.642C87.2346 358.521 87.0282 358.426 86.811 358.36L87.0438 358.398C87.3084 358.496 87.5861 358.556 87.86 358.574C88.1339 358.591 88.3982 358.566 88.6366 358.5C88.8751 358.434 89.0827 358.328 89.2466 358.189C89.4106 358.05 89.5275 357.881 89.5902 357.691C89.6529 357.502 89.6601 357.297 89.6113 357.089C89.5624 356.88 89.4586 356.673 89.3063 356.479C89.1539 356.286 88.9562 356.11 88.7252 355.963C88.4942 355.816 88.2348 355.7 87.963 355.624L88.6949 355.861C88.9594 355.96 89.2372 356.02 89.5111 356.037C89.785 356.055 90.0493 356.03 90.2877 355.964C90.5262 355.898 90.7337 355.792 90.8977 355.653C91.0617 355.514 91.1786 355.345 91.2413 355.155C91.304 354.966 91.3112 354.761 91.2624 354.552C91.2135 354.344 91.1097 354.137 90.9574 353.943C90.805 353.749 90.6073 353.574 90.3763 353.427C90.1453 353.28 89.8859 353.164 89.614 353.088L89.6025 353.077Z" fill="#FCFCFC"/>
<path d="M282.714 27.3457L262.955 37.0701C261.606 37.7357 260.449 38.8218 259.736 40.091C259.023 41.3602 258.813 42.7093 259.151 43.8435L261.254 50.7865C261.599 51.9171 262.464 52.7383 263.661 53.0706C264.857 53.4028 266.286 53.2192 267.637 52.5597L272.414 50.2121C275.222 50.8895 277.038 51.7364 277.807 51.3802C278.575 51.0239 279.607 48.4871 281.187 45.9213L287.386 42.82C288.735 42.1544 289.892 41.0683 290.605 39.7991C291.318 38.5299 291.528 37.1808 291.19 36.0466L289.092 29.1C288.739 27.9775 287.872 27.1641 286.679 26.8358C285.485 26.5075 284.061 26.6906 282.714 27.3457Z" fill="#EBF2F9"/>
<path d="M269.056 42.4008L270.578 47.1865C270.68 47.5078 271.09 47.6146 271.493 47.4251L273.661 46.4068C274.064 46.2173 274.309 45.8032 274.206 45.4819L272.685 40.6962C272.582 40.3749 272.173 40.268 271.769 40.4575L269.601 41.4759C269.198 41.6654 268.954 42.0795 269.056 42.4008Z" fill="#FCFCFC"/>
<path d="M280.391 37.207L280.284 37.2855C280.523 37.1173 280.716 36.8881 280.83 36.6369C280.943 36.3856 280.969 36.1281 280.905 35.9083C280.84 35.6885 280.688 35.5201 280.475 35.4319C280.262 35.3437 280.001 35.3412 279.736 35.4248L276.256 37.1611C276.615 36.2175 276.736 35.2675 276.607 34.3994C276.255 33.2052 275.3 32.9189 274.776 33.0959C274.554 33.1627 274.343 33.3036 274.185 33.4906C274.027 33.6775 273.934 33.8967 273.924 34.1046C273.887 34.5388 274.34 35.0931 274.318 35.3867C274.271 35.8402 273.669 36.7128 272.945 38.3894C272.572 39.3085 272.52 40.2363 272.798 41.0134L273.286 42.6639L273.766 44.3141L273.994 45.0799C274.016 45.156 274.056 45.2226 274.11 45.276C274.164 45.3293 274.233 45.3684 274.311 45.391C274.39 45.4136 274.477 45.4191 274.567 45.4075C274.658 45.3958 274.75 45.367 274.839 45.3228L281.307 42.0991C281.413 42.0493 281.513 41.9816 281.602 41.8999C281.691 41.8183 281.766 41.7244 281.823 41.6238C281.88 41.5232 281.918 41.418 281.935 41.3144C281.952 41.2108 281.947 41.1109 281.92 41.0208C281.893 40.9306 281.846 40.8519 281.78 40.7895C281.715 40.727 281.632 40.682 281.538 40.6571C281.444 40.6322 281.34 40.628 281.232 40.6447C281.124 40.6613 281.014 40.6986 280.91 40.7541L281.012 40.6794C281.145 40.6204 281.271 40.5384 281.383 40.4383C281.495 40.3383 281.59 40.2223 281.663 40.0975C281.736 39.9727 281.785 39.8417 281.806 39.7126C281.828 39.5835 281.822 39.459 281.789 39.3467C281.756 39.2344 281.696 39.1366 281.614 39.0595C281.531 38.9823 281.428 38.9274 281.31 38.898C281.191 38.8686 281.061 38.8654 280.926 38.8886C280.792 38.9118 280.656 38.9609 280.527 39.0329L280.884 38.8537C281.017 38.7948 281.143 38.7127 281.255 38.6127C281.367 38.5126 281.462 38.3966 281.535 38.2719C281.608 38.1471 281.657 38.0161 281.678 37.887C281.7 37.7579 281.694 37.6334 281.661 37.5211C281.628 37.4087 281.568 37.311 281.486 37.2338C281.403 37.1567 281.3 37.1017 281.182 37.0724C281.063 37.043 280.933 37.0398 280.798 37.063C280.664 37.0862 280.528 37.1353 280.399 37.2073L280.391 37.207Z" fill="#FCFCFC"/>
<path d="M119.873 214.53H9.12709C6.70643 214.53 4.38492 213.567 2.67326 211.853C0.961594 210.139 0 207.815 0 205.391V139.138C0 136.715 0.961594 134.39 2.67326 132.677C4.38492 130.963 6.70643 130 9.12709 130H119.873C122.294 130 124.615 130.963 126.327 132.677C128.038 134.39 129 136.715 129 139.138V205.391C129 207.815 128.038 210.139 126.327 211.853C124.615 213.567 122.294 214.53 119.873 214.53ZM9.12709 130.834C6.94338 130.837 4.84997 131.707 3.30585 133.253C1.76173 134.799 0.892908 136.895 0.88989 139.081V205.334C0.892908 207.521 1.76173 209.617 3.30585 211.163C4.84997 212.709 6.94338 213.578 9.12709 213.582H119.873C122.057 213.578 124.15 212.709 125.694 211.163C127.238 209.617 128.107 207.521 128.11 205.334V139.081C128.107 136.895 127.238 134.799 125.694 133.253C124.15 131.707 122.057 130.837 119.873 130.834H9.12709Z" fill="#C4C4C4"/>
<path d="M24.2462 192.781C23.9576 192.781 23.6718 192.724 23.4053 192.613C23.1388 192.502 22.8968 192.34 22.6932 192.135C22.4897 191.93 22.3286 191.687 22.2192 191.42C22.1098 191.152 22.0542 190.866 22.0557 190.577V149.329C22.0557 148.746 22.2861 148.187 22.6966 147.774C23.1071 147.361 23.6642 147.127 24.2462 147.124C24.8302 147.124 25.3903 147.356 25.8032 147.77C26.2161 148.183 26.4481 148.744 26.4481 149.329V190.577C26.4496 190.867 26.3937 191.154 26.2836 191.422C26.1735 191.69 26.0113 191.934 25.8066 192.139C25.6018 192.344 25.3585 192.506 25.0906 192.617C24.8228 192.727 24.5358 192.783 24.2462 192.781Z" fill="#E0E0E0"/>
<path d="M24.2443 192.976C23.9556 192.976 23.6699 192.919 23.4034 192.808C23.1368 192.697 22.8948 192.534 22.6913 192.33C22.4877 192.125 22.3266 191.882 22.2172 191.614C22.1078 191.347 22.0522 191.06 22.0537 190.771V164.179C22.0537 163.597 22.2846 163.039 22.6953 162.628C23.1061 162.217 23.6633 161.986 24.2443 161.986C24.5329 161.984 24.8189 162.04 25.086 162.149C25.3531 162.259 25.5959 162.42 25.8005 162.624C26.0052 162.828 26.1675 163.07 26.2783 163.337C26.3891 163.604 26.4462 163.89 26.4462 164.179V190.771C26.4477 191.061 26.3918 191.349 26.2816 191.617C26.1715 191.885 26.0094 192.129 25.8046 192.334C25.5999 192.539 25.3565 192.701 25.0887 192.811C24.8208 192.921 24.5338 192.977 24.2443 192.976Z" fill="#EBF2F9"/>
<path d="M22.863 194.701V198.368H22.4865V195.032H21.6309V194.701H22.863Z" fill="#B3B3B3"/>
<path d="M23.7422 196.528C23.7422 195.386 24.3469 194.666 25.2025 194.666C26.0582 194.666 26.6629 195.363 26.6629 196.528C26.6629 197.693 26.0468 198.39 25.2025 198.39C24.3583 198.39 23.7422 197.693 23.7422 196.528ZM26.275 196.528C26.275 195.546 25.8414 195.009 25.2025 195.009C24.5636 195.009 24.1187 195.546 24.1187 196.528C24.1187 197.51 24.5636 198.047 25.2025 198.047C25.8414 198.047 26.275 197.51 26.275 196.528Z" fill="#B3B3B3"/>
<path d="M33.0271 192.782C32.7379 192.782 32.4516 192.725 32.1845 192.614C31.9173 192.503 31.6746 192.341 31.4701 192.136C31.2656 191.931 31.1035 191.688 30.9928 191.421C30.8821 191.153 30.8252 190.867 30.8252 190.577V149.329C30.8282 148.745 31.0612 148.186 31.4735 147.773C31.8857 147.36 32.444 147.127 33.0271 147.124C33.6091 147.127 34.1663 147.361 34.5767 147.774C34.9872 148.187 35.2176 148.746 35.2176 149.329V190.577C35.2191 190.866 35.1636 191.152 35.0541 191.42C34.9447 191.687 34.7836 191.93 34.5801 192.135C34.3765 192.34 34.1345 192.503 33.868 192.614C33.6015 192.725 33.3157 192.782 33.0271 192.782Z" fill="#E0E0E0"/>
<path d="M33.0271 192.976C32.4431 192.976 31.8831 192.743 31.4701 192.33C31.0572 191.917 30.8252 191.356 30.8252 190.771V155.806C30.8282 155.222 31.0612 154.663 31.4735 154.25C31.8857 153.837 32.444 153.604 33.0271 153.601C33.6091 153.604 34.1663 153.838 34.5767 154.251C34.9872 154.664 35.2176 155.223 35.2176 155.806V190.771C35.2191 191.06 35.1636 191.346 35.0541 191.614C34.9447 191.881 34.7836 192.124 34.5801 192.329C34.3765 192.534 34.1345 192.697 33.868 192.808C33.6015 192.919 33.3157 192.976 33.0271 192.976Z" fill="#EBF2F9"/>
<path d="M32.5034 198.025V198.368H29.9364V198.094L31.4538 196.597C31.8759 196.198 31.9443 195.946 31.9443 195.695C31.9443 195.444 31.6477 195.01 31.0887 195.01C30.9031 195 30.7179 195.032 30.5462 195.104C30.3746 195.175 30.2208 195.283 30.0961 195.421L29.8223 195.192C29.9864 195.014 30.1883 194.874 30.4133 194.783C30.6383 194.692 30.8807 194.652 31.1229 194.667C31.8645 194.667 32.3322 195.044 32.3322 195.649C32.3245 195.872 32.2672 196.09 32.1646 196.288C32.0619 196.485 31.9165 196.657 31.739 196.792L30.4954 198.014L32.5034 198.025Z" fill="#B3B3B3"/>
<path d="M32.9482 196.528C32.9482 195.386 33.5643 194.666 34.4086 194.666C35.2528 194.666 35.8803 195.363 35.8803 196.528C35.8803 197.693 35.2642 198.39 34.4086 198.39C33.5529 198.39 32.9482 197.693 32.9482 196.528ZM35.4924 196.528C35.4924 195.546 35.0475 195.009 34.4086 195.009C33.7697 195.009 33.3361 195.546 33.3361 196.528C33.3361 197.51 33.7697 198.047 34.4086 198.047C35.0475 198.047 35.4924 197.51 35.4924 196.528Z" fill="#B3B3B3"/>
<path d="M41.8009 192.782C41.5122 192.782 41.2265 192.725 40.96 192.614C40.6935 192.503 40.4515 192.34 40.2479 192.135C40.0444 191.93 39.8833 191.687 39.7738 191.42C39.6644 191.152 39.6089 190.866 39.6104 190.577V149.329C39.6104 148.746 39.8408 148.187 40.2513 147.774C40.6617 147.361 41.2189 147.127 41.8009 147.124C42.3848 147.124 42.9449 147.356 43.3578 147.77C43.7708 148.183 44.0028 148.744 44.0028 149.329V190.577C44.0043 190.867 43.9484 191.154 43.8383 191.422C43.7281 191.691 43.566 191.934 43.3612 192.139C43.1565 192.344 42.9131 192.507 42.6453 192.617C42.3775 192.727 42.0904 192.783 41.8009 192.782Z" fill="#E0E0E0"/>
<path d="M41.8009 192.976C41.5122 192.976 41.2265 192.919 40.96 192.808C40.6935 192.697 40.4515 192.535 40.2479 192.33C40.0444 192.125 39.8833 191.882 39.7738 191.615C39.6644 191.347 39.6089 191.061 39.6104 190.772V170.45C39.6104 169.869 39.8412 169.311 40.252 168.9C40.6628 168.488 41.2199 168.257 41.8009 168.257C42.0895 168.256 42.3756 168.311 42.6426 168.421C42.9097 168.53 43.1526 168.692 43.3572 168.896C43.5618 169.099 43.7242 169.342 43.8349 169.608C43.9457 169.875 44.0028 170.161 44.0028 170.45V190.76C44.0058 191.051 43.951 191.34 43.8416 191.609C43.7321 191.879 43.5703 192.124 43.3653 192.33C43.1604 192.536 42.9165 192.7 42.648 192.811C42.3794 192.922 42.0914 192.978 41.8009 192.976Z" fill="#EBF2F9"/>
<path d="M41.2269 197.306C41.2269 197.923 40.782 198.391 39.9035 198.391C39.4194 198.406 38.9473 198.239 38.5801 197.923L38.7626 197.626C39.0724 197.912 39.4824 198.063 39.9035 198.048C40.5082 198.048 40.8504 197.763 40.8504 197.306C40.8504 196.849 40.531 196.586 39.8579 196.586H39.5954V196.3L40.6109 195.033H38.7398V194.701H41.09V194.964L40.0518 196.266C40.839 196.312 41.2269 196.723 41.2269 197.306Z" fill="#B3B3B3"/>
<path d="M41.7627 196.528C41.7627 195.386 42.3674 194.666 43.223 194.666C44.0787 194.666 44.6834 195.363 44.6834 196.528C44.6834 197.693 44.0673 198.39 43.223 198.39C42.3788 198.39 41.7627 197.693 41.7627 196.528ZM44.2955 196.528C44.2955 195.546 43.8505 195.009 43.223 195.009C42.5955 195.009 42.1392 195.546 42.1392 196.528C42.1392 197.511 42.5841 198.047 43.223 198.047C43.8619 198.047 44.2955 197.511 44.2955 196.528Z" fill="#B3B3B3"/>
<path d="M50.5876 192.782C50.2985 192.782 50.0121 192.725 49.745 192.614C49.4779 192.503 49.2351 192.341 49.0307 192.136C48.8262 191.931 48.664 191.688 48.5534 191.421C48.4427 191.153 48.3857 190.867 48.3857 190.577V149.329C48.3887 148.745 48.6217 148.186 49.034 147.773C49.4463 147.36 50.0046 147.127 50.5876 147.124C51.1696 147.127 51.7268 147.361 52.1372 147.774C52.5477 148.187 52.7782 148.746 52.7782 149.329V190.577C52.7797 190.866 52.7241 191.152 52.6147 191.42C52.5053 191.687 52.3442 191.93 52.1406 192.135C51.9371 192.34 51.6951 192.503 51.4285 192.614C51.162 192.725 50.8763 192.782 50.5876 192.782Z" fill="#E0E0E0"/>
<path d="M50.5857 192.976C50.0017 192.976 49.4416 192.743 49.0287 192.33C48.6158 191.917 48.3838 191.356 48.3838 190.771V155.806C48.3868 155.222 48.6197 154.663 49.032 154.25C49.4443 153.837 50.0026 153.604 50.5857 153.601C51.1677 153.604 51.7248 153.838 52.1353 154.251C52.5458 154.664 52.7762 155.223 52.7762 155.806V190.771C52.7777 191.06 52.7222 191.346 52.6127 191.614C52.5033 191.881 52.3422 192.124 52.1387 192.329C51.9351 192.534 51.6931 192.697 51.4266 192.808C51.1601 192.919 50.8743 192.976 50.5857 192.976Z" fill="#EBF2F9"/>
<path d="M50.5877 197.397H49.8462V198.368H49.4468V197.397H47.3818V197.123L49.3214 194.701H49.7435L47.8724 197.066H49.4583V196.221H49.8233V197.066H50.5877V197.397Z" fill="#B3B3B3"/>
<path d="M50.9541 196.528C50.9541 195.386 51.5588 194.666 52.4144 194.666C53.2701 194.666 53.8748 195.363 53.8748 196.528C53.8748 197.693 53.2587 198.39 52.4144 198.39C51.5702 198.39 50.9541 197.693 50.9541 196.528ZM53.4869 196.528C53.4869 195.546 53.0419 195.009 52.4144 195.009C51.7869 195.009 51.2735 195.546 51.2735 196.528C51.2735 197.511 51.7185 198.047 52.4144 198.047C53.1104 198.047 53.4869 197.511 53.4869 196.528Z" fill="#B3B3B3"/>
<path d="M59.3595 192.782C59.0709 192.782 58.7851 192.725 58.5186 192.614C58.2521 192.503 58.0101 192.34 57.8065 192.135C57.603 191.93 57.4419 191.687 57.3324 191.42C57.223 191.152 57.1675 190.866 57.169 190.577V149.329C57.169 148.746 57.3994 148.187 57.8099 147.774C58.2204 147.361 58.7775 147.127 59.3595 147.124C59.9435 147.124 60.5035 147.356 60.9165 147.77C61.3294 148.183 61.5614 148.744 61.5614 149.329V190.577C61.5629 190.867 61.507 191.154 61.3969 191.422C61.2868 191.691 61.1246 191.934 60.9199 192.139C60.7151 192.344 60.4717 192.507 60.2039 192.617C59.9361 192.727 59.6491 192.783 59.3595 192.782Z" fill="#E0E0E0"/>
<path d="M59.3585 192.975C59.0699 192.975 58.7841 192.918 58.5176 192.807C58.2511 192.696 58.0091 192.534 57.8055 192.329C57.602 192.124 57.4409 191.881 57.3315 191.614C57.2221 191.346 57.1665 191.06 57.168 190.771V162.453C57.168 161.872 57.3988 161.314 57.8096 160.903C58.2204 160.491 58.7776 160.26 59.3585 160.26C59.6471 160.259 59.9332 160.314 60.2003 160.424C60.4674 160.533 60.7102 160.695 60.9148 160.898C61.1194 161.102 61.2818 161.345 61.3926 161.611C61.5034 161.878 61.5604 162.164 61.5604 162.453V190.725C61.5681 191.019 61.5167 191.311 61.4093 191.585C61.3019 191.858 61.1408 192.107 60.9354 192.317C60.73 192.527 60.4846 192.693 60.2137 192.806C59.9428 192.92 59.652 192.977 59.3585 192.975Z" fill="#EBF2F9"/>
<path d="M59.1667 197.283C59.1667 197.912 58.7332 198.426 57.8433 198.426C57.3626 198.441 56.8939 198.274 56.5312 197.957L56.7138 197.66C56.8653 197.805 57.0446 197.917 57.2408 197.989C57.4369 198.062 57.6458 198.094 57.8547 198.083C58.4822 198.083 58.813 197.775 58.813 197.329C58.813 196.884 58.5164 196.575 57.5923 196.575H56.8051L56.999 194.736H58.9956V195.067H57.3299L57.2044 196.21H57.6721C58.756 196.198 59.1667 196.632 59.1667 197.283Z" fill="#B3B3B3"/>
<path d="M59.6465 196.528C59.6465 195.386 60.2626 194.666 61.1068 194.666C61.9511 194.666 62.5672 195.363 62.5672 196.528C62.5672 197.693 61.9511 198.39 61.1068 198.39C60.2626 198.39 59.6465 197.693 59.6465 196.528ZM62.1793 196.528C62.1793 195.546 61.7457 195.009 61.1068 195.009C60.4679 195.009 59.9659 195.546 59.9659 196.528C59.9659 197.511 60.4109 198.047 61.1068 198.047C61.8028 198.047 62.1793 197.511 62.1793 196.528Z" fill="#B3B3B3"/>
<path d="M68.1502 192.782C67.861 192.782 67.5747 192.725 67.3075 192.614C67.0404 192.503 66.7977 192.341 66.5932 192.136C66.3887 191.931 66.2265 191.688 66.1159 191.421C66.0052 191.153 65.9482 190.867 65.9482 190.577V149.329C65.9512 148.745 66.1842 148.186 66.5965 147.773C67.0088 147.36 67.5671 147.127 68.1502 147.124C68.7322 147.127 69.2893 147.361 69.6998 147.774C70.1103 148.187 70.3407 148.746 70.3407 149.329V190.577C70.3422 190.866 70.2866 191.152 70.1772 191.42C70.0678 191.687 69.9067 191.93 69.7031 192.135C69.4996 192.34 69.2576 192.503 68.9911 192.614C68.7246 192.725 68.4388 192.782 68.1502 192.782Z" fill="#E0E0E0"/>
<path d="M68.1486 192.782C67.5945 192.792 67.0575 192.59 66.6479 192.216C66.2384 191.842 65.9875 191.325 65.9467 190.772V170.45C65.9329 170.148 65.9792 169.847 66.0827 169.563C66.1862 169.279 66.345 169.018 66.5498 168.796C66.7546 168.574 67.0014 168.395 67.2758 168.269C67.5503 168.143 67.8469 168.073 68.1486 168.063C68.7296 168.063 69.2868 168.294 69.6976 168.705C70.1083 169.117 70.3391 169.674 70.3391 170.256V190.566C70.3421 190.856 70.2877 191.144 70.179 191.412C70.0702 191.681 69.9094 191.926 69.7057 192.132C69.502 192.338 69.2595 192.501 68.9922 192.613C68.7249 192.725 68.4382 192.782 68.1486 192.782Z" fill="#EBF2F9"/>
<path d="M67.8596 197.271C67.8604 197.431 67.8276 197.59 67.7632 197.736C67.6989 197.883 67.6045 198.014 67.4861 198.122C67.3678 198.23 67.2282 198.311 67.0763 198.361C66.9244 198.412 66.7637 198.429 66.6046 198.413C65.6349 198.413 65.0986 197.739 65.0986 196.586C65.0986 195.432 65.7832 194.689 66.7757 194.689C67.0768 194.677 67.3759 194.744 67.6428 194.884L67.4945 195.192C67.2808 195.066 67.0347 195.007 66.7872 195.021C65.9885 195.021 65.4865 195.523 65.4865 196.517C65.4811 196.616 65.4811 196.715 65.4865 196.814C65.59 196.605 65.7548 196.433 65.9587 196.321C66.1626 196.209 66.3959 196.162 66.6274 196.186C66.78 196.173 66.9336 196.192 67.079 196.24C67.2243 196.288 67.3585 196.365 67.4735 196.467C67.5885 196.568 67.6819 196.691 67.7482 196.83C67.8145 196.968 67.8524 197.118 67.8596 197.271ZM67.4831 197.271C67.4831 196.78 67.1294 196.471 66.559 196.471C66.4435 196.459 66.3267 196.47 66.2158 196.505C66.1049 196.539 66.0024 196.597 65.9146 196.673C65.8268 196.749 65.7556 196.842 65.7055 196.947C65.6554 197.052 65.6275 197.166 65.6234 197.282C65.6234 197.682 65.9543 198.059 66.5932 198.059C66.7036 198.072 66.8154 198.061 66.9215 198.028C67.0276 197.995 67.1257 197.941 67.2095 197.868C67.2932 197.794 67.3608 197.705 67.4079 197.604C67.455 197.503 67.4806 197.394 67.4831 197.282V197.271Z" fill="#B3B3B3"/>
<path d="M68.292 196.528C68.292 195.386 68.8967 194.666 69.7523 194.666C70.608 194.666 71.2127 195.363 71.2127 196.528C71.2127 197.693 70.5966 198.39 69.7523 198.39C68.9081 198.39 68.292 197.693 68.292 196.528ZM70.8248 196.528C70.8248 195.546 70.3798 195.009 69.7523 195.009C69.1248 195.009 68.6685 195.546 68.6685 196.528C68.6685 197.511 69.1134 198.047 69.7523 198.047C70.3912 198.047 70.8248 197.511 70.8248 196.528Z" fill="#B3B3B3"/>
<path d="M76.9239 192.782C76.6353 192.782 76.3495 192.725 76.083 192.614C75.8165 192.503 75.5745 192.34 75.371 192.135C75.1674 191.93 75.0063 191.687 74.8969 191.42C74.7875 191.152 74.7319 190.866 74.7334 190.577V149.329C74.7334 148.746 74.9638 148.187 75.3743 147.774C75.7848 147.361 76.3419 147.127 76.9239 147.124C77.5059 147.127 78.0631 147.361 78.4735 147.774C78.884 148.187 79.1144 148.746 79.1144 149.329V190.577C79.1159 190.866 79.0604 191.152 78.951 191.42C78.8416 191.687 78.6804 191.93 78.4769 192.135C78.2733 192.34 78.0314 192.503 77.7648 192.614C77.4983 192.725 77.2125 192.782 76.9239 192.782Z" fill="#E0E0E0"/>
<path d="M76.9229 192.977C76.6343 192.977 76.3485 192.92 76.082 192.809C75.8155 192.698 75.5735 192.535 75.37 192.33C75.1664 192.125 75.0053 191.882 74.8959 191.615C74.7865 191.347 74.7309 191.061 74.7325 190.772V153.716C74.7309 153.427 74.7865 153.141 74.8959 152.873C75.0053 152.606 75.1664 152.363 75.37 152.158C75.5735 151.953 75.8155 151.79 76.082 151.679C76.3485 151.569 76.6343 151.511 76.9229 151.511C77.2116 151.511 77.4974 151.569 77.7639 151.679C78.0304 151.79 78.2724 151.953 78.4759 152.158C78.6795 152.363 78.8406 152.606 78.95 152.873C79.0594 153.141 79.115 153.427 79.1135 153.716V190.772C79.115 191.061 79.0594 191.347 78.95 191.615C78.8406 191.882 78.6795 192.125 78.4759 192.33C78.2724 192.535 78.0304 192.698 77.7639 192.809C77.4974 192.92 77.2116 192.977 76.9229 192.977Z" fill="#EBF2F9"/>
<path d="M76.4535 194.701V194.964L74.9247 198.391H74.5482L76.0542 195.055H74.1717V195.741H73.8066V194.724L76.4535 194.701Z" fill="#B3B3B3"/>
<path d="M76.8271 196.528C76.8271 195.386 77.4318 194.666 78.2875 194.666C79.1431 194.666 79.7478 195.363 79.7478 196.528C79.7478 197.693 79.1317 198.39 78.2875 198.39C77.4432 198.39 76.8271 197.693 76.8271 196.528ZM79.3599 196.528C79.3599 195.546 78.9264 195.009 78.2875 195.009C77.6486 195.009 77.2036 195.546 77.2036 196.528C77.2036 197.511 77.6486 198.047 78.2875 198.047C78.9264 198.047 79.3827 197.511 79.3827 196.528H79.3599Z" fill="#B3B3B3"/>
<path d="M85.7048 192.782C85.4157 192.782 85.1293 192.725 84.8622 192.614C84.595 192.503 84.3523 192.341 84.1478 192.136C83.9434 191.931 83.7812 191.688 83.6705 191.421C83.5599 191.153 83.5029 190.867 83.5029 190.577V149.329C83.5059 148.745 83.7389 148.186 84.1512 147.773C84.5634 147.36 85.1218 147.127 85.7048 147.124C86.2868 147.127 86.844 147.361 87.2544 147.774C87.6649 148.187 87.8954 148.746 87.8953 149.329V190.577C87.8969 190.866 87.8413 191.152 87.7319 191.42C87.6225 191.687 87.4614 191.93 87.2578 192.135C87.0543 192.34 86.8122 192.503 86.5457 192.614C86.2792 192.725 85.9935 192.782 85.7048 192.782Z" fill="#E0E0E0"/>
<path d="M85.7039 192.977C85.1199 192.977 84.5598 192.744 84.1469 192.331C83.7339 191.917 83.502 191.357 83.502 190.772V174.654C83.502 174.365 83.5589 174.078 83.6696 173.811C83.7802 173.543 83.9424 173.3 84.1469 173.095C84.3513 172.891 84.5941 172.728 84.8612 172.617C85.1284 172.507 85.4147 172.45 85.7039 172.45C85.9925 172.45 86.2782 172.507 86.5448 172.618C86.8113 172.729 87.0533 172.891 87.2568 173.096C87.4604 173.301 87.6215 173.544 87.7309 173.811C87.8403 174.079 87.8959 174.365 87.8944 174.654V190.772C87.8959 191.061 87.8403 191.347 87.7309 191.615C87.6215 191.882 87.4604 192.125 87.2568 192.33C87.0533 192.535 86.8113 192.698 86.5448 192.809C86.2782 192.92 85.9925 192.977 85.7039 192.977Z" fill="#EBF2F9"/>
<path d="M85.2676 197.339C85.2676 197.991 84.7199 198.39 83.8415 198.39C82.963 198.39 82.4268 197.991 82.4268 197.339C82.4261 197.131 82.4955 196.929 82.6239 196.765C82.7523 196.602 82.932 196.486 83.1341 196.437C82.9647 196.385 82.8172 196.278 82.7142 196.134C82.6111 195.989 82.5583 195.815 82.5637 195.637C82.5637 195.032 83.0656 194.667 83.8415 194.667C84.6173 194.667 85.1307 195.032 85.1307 195.637C85.1334 195.816 85.0782 195.99 84.9732 196.135C84.8683 196.279 84.7193 196.385 84.5488 196.437C84.752 196.486 84.9332 196.601 85.0635 196.764C85.1938 196.928 85.2656 197.13 85.2676 197.339ZM84.8797 197.339C84.8797 196.883 84.4918 196.597 83.8415 196.597C83.1911 196.597 82.8147 196.883 82.8147 197.339C82.8147 197.796 83.1911 198.071 83.8415 198.071C84.4918 198.071 84.8797 197.796 84.8797 197.339ZM83.8415 196.3C84.4119 196.3 84.7542 196.049 84.7542 195.649C84.7542 195.249 84.3891 194.986 83.8415 194.986C83.2938 194.986 82.9401 195.238 82.9401 195.649C82.9401 196.06 83.271 196.3 83.8415 196.3Z" fill="#B3B3B3"/>
<path d="M85.7764 196.528C85.7764 195.386 86.3924 194.666 87.2367 194.666C88.081 194.666 88.7085 195.363 88.7085 196.528C88.7085 197.693 88.0924 198.39 87.2367 198.39C86.381 198.39 85.7764 197.693 85.7764 196.528ZM88.3205 196.528C88.3205 195.546 87.8756 195.009 87.2367 195.009C86.5978 195.009 86.1643 195.546 86.1643 196.528C86.1643 197.511 86.5978 198.047 87.2367 198.047C87.8756 198.047 88.3205 197.511 88.3205 196.528Z" fill="#B3B3B3"/>
<path d="M94.4806 192.782C94.192 192.782 93.9062 192.725 93.6397 192.614C93.3732 192.503 93.1312 192.34 92.9276 192.135C92.724 191.93 92.5629 191.687 92.4535 191.42C92.3441 191.152 92.2886 190.866 92.2901 190.577V149.329C92.2901 148.746 92.5205 148.187 92.931 147.774C93.3415 147.361 93.8986 147.127 94.4806 147.124C95.0646 147.124 95.6246 147.356 96.0376 147.77C96.4505 148.183 96.6825 148.744 96.6825 149.329V190.577C96.684 190.867 96.6281 191.154 96.518 191.422C96.4079 191.691 96.2457 191.934 96.0409 192.139C95.8362 192.344 95.5928 192.507 95.325 192.617C95.0572 192.727 94.7702 192.783 94.4806 192.782Z" fill="#E0E0E0"/>
<path d="M94.479 192.783C93.9261 192.793 93.3904 192.59 92.9827 192.216C92.575 191.841 92.3265 191.325 92.2885 190.772V185.061C92.2748 184.76 92.3206 184.459 92.4234 184.176C92.5262 183.893 92.684 183.633 92.8876 183.411C93.0912 183.189 93.3366 183.009 93.6097 182.883C93.8829 182.756 94.1783 182.685 94.479 182.673C94.7677 182.672 95.0537 182.728 95.3208 182.837C95.5879 182.947 95.8307 183.108 96.0353 183.312C96.2399 183.516 96.4023 183.758 96.5131 184.025C96.6239 184.292 96.6809 184.578 96.6809 184.867V190.578C96.6825 190.868 96.6266 191.155 96.5164 191.424C96.4063 191.692 96.2442 191.935 96.0394 192.14C95.8346 192.345 95.5913 192.508 95.3235 192.618C95.0556 192.728 94.7686 192.784 94.479 192.783Z" fill="#EBF2F9"/>
<path d="M93.831 196.494C93.831 197.739 93.1464 198.39 92.1538 198.39C91.8528 198.403 91.5537 198.336 91.2868 198.196L91.4351 197.888C91.6488 198.014 91.895 198.073 92.1425 198.059C92.9411 198.059 93.4431 197.557 93.4431 196.563C93.4485 196.464 93.4485 196.365 93.4431 196.266C93.3396 196.474 93.1749 196.647 92.9709 196.759C92.767 196.871 92.5336 196.918 92.3022 196.894C92.1439 196.908 91.9845 196.889 91.834 196.838C91.6835 196.787 91.5453 196.706 91.4282 196.598C91.3112 196.491 91.2178 196.36 91.1541 196.214C91.0905 196.068 91.058 195.911 91.0586 195.752C91.0578 195.592 91.0906 195.433 91.155 195.286C91.2193 195.14 91.3137 195.008 91.432 194.901C91.5504 194.793 91.69 194.711 91.8419 194.661C91.9938 194.611 92.1545 194.593 92.3136 194.609C93.2948 194.667 93.831 195.34 93.831 196.494ZM93.3062 195.775C93.3062 195.363 92.9753 194.986 92.3364 194.986C92.2251 194.974 92.1123 194.984 92.0054 195.018C91.8985 195.052 91.7999 195.108 91.716 195.182C91.632 195.256 91.5647 195.347 91.5182 195.449C91.4718 195.552 91.4474 195.662 91.4465 195.775C91.4465 196.266 91.8002 196.574 92.3706 196.574C92.4852 196.587 92.6011 196.576 92.7112 196.542C92.8213 196.508 92.9234 196.452 93.011 196.377C93.0987 196.302 93.1701 196.21 93.2208 196.106C93.2716 196.003 93.3006 195.89 93.3062 195.775Z" fill="#B3B3B3"/>
<path d="M94.3652 196.528C94.3652 195.385 94.9813 194.666 95.8256 194.666C96.6698 194.666 97.2859 195.363 97.2859 196.528C97.2859 197.693 96.6698 198.39 95.8256 198.39C94.9813 198.39 94.3652 197.693 94.3652 196.528ZM96.898 196.528C96.898 195.545 96.4645 195.008 95.8256 195.008C95.1867 195.008 94.7417 195.545 94.7417 196.528C94.7417 197.51 95.1867 198.047 95.8256 198.047C96.4645 198.047 96.898 197.51 96.898 196.528Z" fill="#B3B3B3"/>
<path d="M103.262 192.782C102.973 192.782 102.687 192.725 102.42 192.614C102.153 192.503 101.91 192.341 101.705 192.136C101.501 191.931 101.339 191.688 101.228 191.421C101.117 191.153 101.061 190.867 101.061 190.577V149.329C101.064 148.745 101.297 148.186 101.709 147.773C102.121 147.36 102.679 147.127 103.262 147.124C103.844 147.127 104.402 147.361 104.812 147.774C105.223 148.187 105.453 148.746 105.453 149.329V190.577C105.454 190.866 105.399 191.152 105.289 191.42C105.18 191.687 105.019 191.93 104.815 192.135C104.612 192.34 104.37 192.503 104.103 192.614C103.837 192.725 103.551 192.782 103.262 192.782Z" fill="#E0E0E0"/>
<path d="M103.265 192.782C102.711 192.792 102.174 192.59 101.764 192.216C101.355 191.842 101.104 191.325 101.063 190.772V170.45C101.049 170.148 101.095 169.847 101.199 169.563C101.302 169.279 101.461 169.018 101.666 168.796C101.871 168.574 102.118 168.395 102.392 168.269C102.666 168.143 102.963 168.073 103.265 168.063C103.846 168.063 104.403 168.294 104.814 168.705C105.225 169.117 105.455 169.674 105.455 170.256V190.566C105.458 190.856 105.404 191.144 105.295 191.412C105.186 191.681 105.026 191.926 104.822 192.132C104.618 192.338 104.376 192.501 104.108 192.613C103.841 192.725 103.554 192.782 103.265 192.782Z" fill="#EBF2F9"/>
<path d="M100.115 194.701V198.368H99.7381V195.033H98.8711V194.701H100.115Z" fill="#B3B3B3"/>
<path d="M100.994 196.528C100.994 195.386 101.599 194.666 102.454 194.666C103.31 194.666 103.915 195.363 103.915 196.528C103.915 197.693 103.299 198.39 102.454 198.39C101.61 198.39 100.994 197.693 100.994 196.528ZM103.527 196.528C103.527 195.546 103.093 195.009 102.454 195.009C101.816 195.009 101.371 195.546 101.371 196.528C101.371 197.511 101.816 198.047 102.454 198.047C103.093 198.047 103.527 197.511 103.527 196.528Z" fill="#B3B3B3"/>
<path d="M104.45 196.528C104.45 195.386 105.066 194.666 105.911 194.666C106.755 194.666 107.371 195.363 107.371 196.528C107.371 197.693 106.755 198.39 105.911 198.39C105.066 198.39 104.45 197.693 104.45 196.528ZM106.983 196.528C106.983 195.546 106.549 195.009 105.911 195.009C105.272 195.009 104.827 195.546 104.827 196.528C104.827 197.511 105.272 198.047 105.911 198.047C106.549 198.047 106.983 197.511 106.983 196.528Z" fill="#B3B3B3"/>
<path d="M42.1906 234.758C41.6915 235.473 40.9934 236.01 40.0963 236.368C39.206 236.719 38.1672 236.895 36.9801 236.895C35.7795 236.895 34.7138 236.615 33.783 236.054C32.8522 235.487 32.1305 234.683 31.6179 233.643C31.112 232.603 30.8524 231.398 30.8389 230.027V228.74C30.8389 226.519 31.3549 224.796 32.3868 223.574C33.4256 222.352 34.8825 221.741 36.7576 221.741C38.2954 221.741 39.5331 222.136 40.4706 222.926C41.4082 223.709 41.9815 224.823 42.1906 226.269H40.2481C39.8838 224.317 38.7237 223.341 36.7677 223.341C35.4659 223.341 34.4778 223.8 33.8033 224.719C33.1355 225.63 32.7983 226.954 32.7915 228.69V229.895C32.7915 231.55 33.1692 232.867 33.9247 233.846C34.6801 234.818 35.702 235.305 36.9903 235.305C37.7187 235.305 38.3561 235.223 38.9024 235.061C39.4488 234.899 39.9007 234.626 40.2582 234.241V230.928H36.8486V229.348H42.1906V234.758Z" fill="#E0E0E0"/>
<path d="M45.6852 231.111C45.6852 230.037 45.8943 229.071 46.3124 228.214C46.7374 227.356 47.3242 226.694 48.0729 226.228C48.8283 225.762 49.6883 225.529 50.6528 225.529C52.1434 225.529 53.3474 226.046 54.2647 227.079C55.1888 228.112 55.6508 229.487 55.6508 231.202V231.334C55.6508 232.401 55.4451 233.36 55.0337 234.21C54.629 235.055 54.0455 235.713 53.2833 236.186C52.5279 236.659 51.6578 236.895 50.673 236.895C49.1892 236.895 47.9852 236.378 47.0611 235.345C46.1438 234.312 45.6852 232.944 45.6852 231.242V231.111ZM47.567 231.334C47.567 232.549 47.8469 233.525 48.4067 234.261C48.9733 234.997 49.7288 235.365 50.673 235.365C51.6241 235.365 52.3795 234.994 52.9393 234.251C53.4992 233.501 53.7791 232.455 53.7791 231.111C53.7791 229.909 53.4924 228.936 52.9191 228.193C52.3525 227.444 51.5971 227.069 50.6528 227.069C49.7288 227.069 48.9834 227.437 48.4169 228.173C47.8503 228.909 47.567 229.963 47.567 231.334Z" fill="#E0E0E0"/>
<path d="M58.5383 231.111C58.5383 230.037 58.7474 229.071 59.1656 228.214C59.5905 227.356 60.1773 226.694 60.926 226.228C61.6815 225.762 62.5414 225.529 63.506 225.529C64.9966 225.529 66.2006 226.046 67.1179 227.079C68.0419 228.112 68.504 229.487 68.504 231.202V231.334C68.504 232.401 68.2983 233.36 67.8868 234.21C67.4821 235.055 66.8987 235.713 66.1365 236.186C65.3811 236.659 64.511 236.895 63.5262 236.895C62.0423 236.895 60.8383 236.378 59.9143 235.345C58.997 234.312 58.5383 232.944 58.5383 231.242V231.111ZM60.4202 231.334C60.4202 232.549 60.7001 233.525 61.2599 234.261C61.8265 234.997 62.5819 235.365 63.5262 235.365C64.4772 235.365 65.2327 234.994 65.7925 234.251C66.3523 233.501 66.6323 232.455 66.6323 231.111C66.6323 229.909 66.3456 228.936 65.7723 228.193C65.2057 227.444 64.4503 227.069 63.506 227.069C62.5819 227.069 61.8366 227.437 61.27 228.173C60.7034 228.909 60.4202 229.963 60.4202 231.334Z" fill="#E0E0E0"/>
<path d="M71.4421 231.121C71.4421 229.412 71.8367 228.055 72.6258 227.049C73.415 226.036 74.4604 225.529 75.7622 225.529C77.0977 225.529 78.1398 226.002 78.8885 226.947L78.9795 225.732H80.6894V236.429C80.6894 237.847 80.2678 238.965 79.4247 239.782C78.5883 240.599 77.4619 241.008 76.0455 241.008C75.2563 241.008 74.484 240.839 73.7286 240.501C72.9732 240.163 72.3965 239.701 71.9985 239.113L72.9698 237.989C73.7724 238.982 74.7538 239.478 75.914 239.478C76.8245 239.478 77.5327 239.221 78.0386 238.708C78.5512 238.195 78.8075 237.472 78.8075 236.54V235.598C78.0589 236.463 77.037 236.895 75.742 236.895C74.4604 236.895 73.4217 236.378 72.6258 235.345C71.8367 234.312 71.4421 232.904 71.4421 231.121ZM73.3239 231.334C73.3239 232.569 73.5768 233.542 74.0827 234.251C74.5886 234.953 75.2968 235.305 76.2074 235.305C77.3877 235.305 78.2545 234.768 78.8075 233.694V228.69C78.2342 227.643 77.3742 227.12 76.2276 227.12C75.317 227.12 74.6054 227.474 74.0928 228.183C73.5802 228.892 73.3239 229.942 73.3239 231.334Z" fill="#E0E0E0"/>
<path d="M86.5919 236.692H84.7202V221.133H86.5919V236.692Z" fill="#E0E0E0"/>
<path d="M95.1755 236.895C93.6916 236.895 92.4843 236.409 91.5535 235.436C90.6227 234.457 90.1573 233.15 90.1573 231.516V231.172C90.1573 230.084 90.363 229.115 90.7744 228.264C91.1926 227.407 91.7727 226.738 92.5146 226.259C93.2633 225.772 94.0727 225.529 94.9428 225.529C96.366 225.529 97.4722 225.999 98.2613 226.937C99.0505 227.876 99.445 229.22 99.445 230.969V231.749H92.029C92.056 232.829 92.3696 233.704 92.9699 234.373C93.5769 235.034 94.3459 235.365 95.2767 235.365C95.9377 235.365 96.4975 235.23 96.9562 234.96C97.4148 234.69 97.8161 234.332 98.1601 233.886L99.3034 234.778C98.3861 236.189 97.0101 236.895 95.1755 236.895ZM94.9428 227.069C94.1874 227.069 93.5533 227.346 93.0407 227.9C92.5281 228.447 92.2111 229.216 92.0897 230.209H97.5733V230.067C97.5194 229.115 97.2631 228.379 96.8044 227.859C96.3457 227.332 95.7252 227.069 94.9428 227.069Z" fill="#E0E0E0"/>
<path d="M738.487 228.124H734.12V242.757H738.487V228.124Z" fill="#E0E0E0"/>
<path d="M702.05 226.01H697.684V242.757H702.05V226.01Z" fill="#E0E0E0"/>
<path d="M711.161 222.512H706.794V242.757H711.161V222.512Z" fill="#E0E0E0"/>
<path d="M720.267 223.63H715.9V242.768H720.267V223.63Z" fill="#E0E0E0"/>
<path d="M729.377 217.157H725.01V242.758H729.377V217.157Z" fill="#E0E0E0"/>
<path d="M747.598 217.277H743.231V242.758H747.598V217.277Z" fill="#E0E0E0"/>
<path d="M756.705 225.645H752.338V242.757H756.705V225.645Z" fill="#E0E0E0"/>
<path d="M765.815 218.406H761.448V242.768H765.815V218.406Z" fill="#E0E0E0"/>
<path d="M774.925 212.916H770.559V242.757H774.925V212.916Z" fill="#E0E0E0"/>
<path d="M784.036 218.274H779.669V242.758H784.036V218.274Z" fill="#E0E0E0"/>
<path d="M793.156 260.909H685.844C683.498 260.909 681.249 259.976 679.59 258.315C677.932 256.654 677 254.402 677 252.054V187.855C677 185.506 677.932 183.254 679.59 181.594C681.249 179.933 683.498 179 685.844 179H793.156C795.502 179 797.751 179.933 799.41 181.594C801.068 183.254 802 185.506 802 187.855V252.054C802 254.402 801.068 256.654 799.41 258.315C797.751 259.976 795.502 260.909 793.156 260.909ZM685.844 179.808C683.728 179.811 681.7 180.654 680.203 182.152C678.707 183.65 677.865 185.681 677.862 187.8V251.998C677.865 254.117 678.707 256.148 680.203 257.646C681.7 259.144 683.728 259.987 685.844 259.99H793.156C794.206 259.996 795.246 259.794 796.218 259.398C797.19 259.001 798.074 258.416 798.821 257.677C799.567 256.938 800.161 256.059 800.568 255.091C800.975 254.122 801.187 253.082 801.193 252.031V187.833C801.19 185.714 800.348 183.683 798.852 182.185C797.356 180.687 795.327 179.844 793.211 179.841L685.844 179.808Z" fill="#EBF2F9"/>
<path d="M746.932 200.285C746.932 200.406 734.517 200.517 719.206 200.517C703.894 200.517 691.479 200.406 691.479 200.285C691.479 200.163 703.894 200.053 719.206 200.053C734.517 200.053 746.932 200.119 746.932 200.285Z" fill="#EBF2F9"/>
<path d="M710.259 275.268L713.984 268.092H716.122L711.2 277.054V282.384H709.318V277.054L704.396 268.092H706.553L710.259 275.268Z" fill="#E0E0E0"/>
<path d="M724.508 282.384C724.403 282.175 724.318 281.802 724.253 281.265C723.41 282.142 722.403 282.58 721.233 282.58C720.188 282.58 719.328 282.286 718.655 281.697C717.988 281.101 717.655 280.349 717.655 279.439C717.655 278.333 718.073 277.476 718.91 276.868C719.753 276.252 720.936 275.945 722.459 275.945H724.223V275.111C724.223 274.476 724.034 273.972 723.655 273.599C723.276 273.219 722.717 273.03 721.978 273.03C721.331 273.03 720.789 273.193 720.351 273.52C719.913 273.848 719.694 274.243 719.694 274.708H717.871C717.871 274.178 718.057 273.668 718.429 273.177C718.809 272.679 719.318 272.287 719.959 271.999C720.606 271.711 721.315 271.567 722.086 271.567C723.308 271.567 724.266 271.875 724.959 272.49C725.652 273.098 726.011 273.939 726.037 275.012V279.901C726.037 280.876 726.161 281.651 726.41 282.227V282.384H724.508ZM721.498 281C722.067 281 722.606 280.853 723.116 280.558C723.625 280.264 723.995 279.881 724.223 279.41V277.231H722.802C720.58 277.231 719.469 277.882 719.469 279.184C719.469 279.753 719.658 280.198 720.037 280.519C720.416 280.84 720.903 281 721.498 281Z" fill="#E0E0E0"/>
<path d="M731.6 271.763L731.659 273.098C732.469 272.077 733.528 271.567 734.835 271.567C737.077 271.567 738.207 272.833 738.227 275.366V282.384H736.413V275.356C736.407 274.59 736.23 274.024 735.884 273.658C735.544 273.291 735.011 273.108 734.286 273.108C733.698 273.108 733.181 273.265 732.737 273.579C732.293 273.893 731.946 274.306 731.698 274.816V282.384H729.884V271.763H731.6Z" fill="#E0E0E0"/>
<path d="M741.525 276.985C741.525 275.356 741.911 274.047 742.682 273.059C743.453 272.064 744.463 271.567 745.711 271.567C746.953 271.567 747.937 271.992 748.662 272.843V267.307H750.476V282.384H748.809L748.721 281.245C747.995 282.135 746.986 282.58 745.692 282.58C744.463 282.58 743.46 282.076 742.682 281.069C741.911 280.061 741.525 278.746 741.525 277.123V276.985ZM743.339 277.191C743.339 278.396 743.587 279.338 744.084 280.018C744.581 280.699 745.267 281.039 746.143 281.039C747.293 281.039 748.133 280.522 748.662 279.488V274.61C748.12 273.609 747.286 273.108 746.162 273.108C745.273 273.108 744.581 273.452 744.084 274.139C743.587 274.826 743.339 275.843 743.339 277.191Z" fill="#E0E0E0"/>
<path d="M758.705 282.58C757.267 282.58 756.097 282.109 755.195 281.167C754.293 280.218 753.842 278.952 753.842 277.368V277.034C753.842 275.981 754.042 275.042 754.44 274.217C754.846 273.386 755.408 272.738 756.127 272.274C756.852 271.803 757.636 271.567 758.48 271.567C759.859 271.567 760.93 272.022 761.695 272.931C762.46 273.841 762.842 275.143 762.842 276.838V277.594H755.656C755.682 278.641 755.986 279.488 756.568 280.136C757.156 280.778 757.901 281.098 758.803 281.098C759.444 281.098 759.986 280.967 760.43 280.706C760.875 280.444 761.264 280.097 761.597 279.665L762.705 280.529C761.816 281.897 760.483 282.58 758.705 282.58ZM758.48 273.059C757.748 273.059 757.133 273.327 756.636 273.864C756.14 274.394 755.833 275.14 755.715 276.102H761.028V275.965C760.976 275.042 760.728 274.329 760.283 273.825C759.839 273.314 759.238 273.059 758.48 273.059Z" fill="#E0E0E0"/>
<path d="M769.513 275.641L771.866 271.763H773.983L770.513 277.015L774.091 282.384H771.993L769.542 278.409L767.091 282.384H764.983L768.562 277.015L765.091 271.763H767.189L769.513 275.641Z" fill="#E0E0E0"/>
<defs>
<filter id="filter0_f" x="243.376" y="358.208" width="245.59" height="122.625" filterUnits="userSpaceOnUse" color-interpolation-filters="sRGB">
<feFlood flood-opacity="0" result="BackgroundImageFix"/>
<feBlend mode="normal" in="SourceGraphic" in2="BackgroundImageFix" result="shape"/>
<feGaussianBlur stdDeviation="1" result="effect1_foregroundBlur"/>
</filter>
<filter id="filter1_f" x="256.106" y="406.11" width="100.505" height="54.7594" filterUnits="userSpaceOnUse" color-interpolation-filters="sRGB">
<feFlood flood-opacity="0" result="BackgroundImageFix"/>
<feBlend mode="normal" in="SourceGraphic" in2="BackgroundImageFix" result="shape"/>
<feGaussianBlur stdDeviation="2" result="effect1_foregroundBlur"/>
</filter>
<filter id="filter2_f" x="377.352" y="414.653" width="129.245" height="56.5578" filterUnits="userSpaceOnUse" color-interpolation-filters="sRGB">
<feFlood flood-opacity="0" result="BackgroundImageFix"/>
<feBlend mode="normal" in="SourceGraphic" in2="BackgroundImageFix" result="shape"/>
<feGaussianBlur stdDeviation="2" result="effect1_foregroundBlur"/>
</filter>
<linearGradient id="paint0_linear" x1="334.139" y1="314.612" x2="376.552" y2="543.327" gradientUnits="userSpaceOnUse">
<stop stop-color="#B4D1FA" stop-opacity="0"/>
<stop offset="1" stop-opacity="0.2"/>
</linearGradient>
<linearGradient id="paint1_linear" x1="382.108" y1="371.919" x2="257.556" y2="374.871" gradientUnits="userSpaceOnUse">
<stop stop-color="#71A0DD" stop-opacity="0"/>
<stop offset="1" stop-color="#71A0DD" stop-opacity="0.5"/>
</linearGradient>
</defs>
</svg>
