<svg width="338" height="239" viewBox="0 0 338 239" fill="none" xmlns="http://www.w3.org/2000/svg">
<g filter="url(#filter0_d)">
<path d="M170.679 233L2 180.09L160.369 130.267L331.617 180.09L170.679 233Z" fill="#FFF5F7"/>
</g>
<g filter="url(#filter1_di)">
<rect x="118.245" y="57.54" width="17.5898" height="17.6333" rx="2" fill="#A62E41"/>
<path fill-rule="evenodd" clip-rule="evenodd" d="M126.921 69.4684H127.587C127.587 69.4684 127.788 69.4462 127.891 69.3353C127.985 69.2334 127.982 69.0421 127.982 69.0421C127.982 69.0421 127.969 68.1463 128.384 68.0144C128.793 67.8845 129.318 68.8801 129.874 69.2629C130.295 69.5527 130.615 69.4892 130.615 69.4892L132.102 69.4684C132.102 69.4684 132.881 69.4203 132.512 68.8069C132.481 68.7567 132.297 68.3531 131.405 67.5238C130.473 66.6559 130.598 66.7963 131.721 65.2949C132.406 64.3805 132.679 63.8223 132.594 63.5832C132.512 63.3555 132.009 63.4157 132.009 63.4157L130.334 63.4261C130.334 63.4261 130.21 63.4091 130.118 63.4643C130.028 63.5184 129.97 63.6446 129.97 63.6446C129.97 63.6446 129.705 64.3521 129.351 64.9539C128.605 66.2236 128.307 66.2906 128.185 66.2118C127.901 66.028 127.972 65.4736 127.972 65.0797C127.972 63.8493 128.158 63.3362 127.61 63.2034C127.428 63.1593 127.294 63.1302 126.828 63.1255C126.23 63.1193 125.724 63.1273 125.438 63.268C125.247 63.3615 125.1 63.57 125.19 63.582C125.301 63.5968 125.551 63.6497 125.684 63.8312C125.856 64.0653 125.85 64.5911 125.85 64.5911C125.85 64.5911 125.948 66.0396 125.619 66.2195C125.394 66.3429 125.084 66.091 124.419 64.939C124.078 64.349 123.821 63.6967 123.821 63.6967C123.821 63.6967 123.771 63.5748 123.683 63.5097C123.576 63.4307 123.425 63.4055 123.425 63.4055L121.834 63.416C121.834 63.416 121.595 63.4226 121.507 63.5268C121.429 63.6194 121.501 63.8111 121.501 63.8111C121.501 63.8111 122.747 66.7338 124.158 68.2067C125.452 69.5571 126.921 69.4684 126.921 69.4684Z" fill="white"/>
</g>
<g filter="url(#filter2_di)">
<rect x="206.194" y="57.54" width="17.5898" height="17.6333" rx="2" fill="#A62E41"/>
<path fill-rule="evenodd" clip-rule="evenodd" d="M220.449 63.9636C220.449 63.9636 220.34 63.182 220.006 62.8379C219.582 62.3861 219.107 62.384 218.89 62.3577C217.331 62.2429 214.992 62.2429 214.992 62.2429H214.988C214.988 62.2429 212.649 62.2429 211.09 62.3577C210.872 62.384 210.398 62.3861 209.974 62.8379C209.64 63.1821 209.531 63.9636 209.531 63.9636C209.531 63.9636 209.42 64.8816 209.42 65.7991V66.6597C209.42 67.5776 209.531 68.4953 209.531 68.4953C209.531 68.4953 209.64 69.2768 209.974 69.6209C210.398 70.0728 210.954 70.0586 211.202 70.1058C212.094 70.193 214.99 70.2199 214.99 70.2199C214.99 70.2199 217.331 70.2164 218.89 70.1016C219.107 70.075 219.582 70.0729 220.006 69.621C220.34 69.2768 220.449 68.4954 220.449 68.4954C220.449 68.4954 220.56 67.5777 220.56 66.6597V65.7991C220.56 64.8816 220.449 63.9636 220.449 63.9636ZM213.84 67.7025L213.839 64.5158L216.849 66.1147L213.84 67.7025Z" fill="white"/>
</g>
<g filter="url(#filter3_di)">
<rect x="143.866" y="33.7739" width="17.5898" height="17.6333" rx="2" fill="#A62E41"/>
<path d="M155.298 51.4072V45.1376H157.383L157.904 42.5252H155.298V41.4803C155.298 40.4353 155.82 39.9129 156.862 39.9129H157.904V37.3005C157.383 37.3005 156.736 37.3005 155.819 37.3005C153.904 37.3005 152.692 38.8058 152.692 40.9578V42.5252H150.607V45.1376H152.692V51.4072H155.298Z" fill="white"/>
</g>
<g filter="url(#filter4_di)">
<rect x="180.575" y="33.7739" width="17.5898" height="17.6333" rx="2" fill="#A62E41"/>
<path d="M189.37 39.6858C187.798 39.6858 186.495 40.9692 186.495 42.5678C186.495 44.1664 187.775 45.4498 189.37 45.4498C190.965 45.4498 192.245 44.1439 192.245 42.5678C192.245 40.9917 190.942 39.6858 189.37 39.6858ZM189.37 44.4141C188.359 44.4141 187.528 43.581 187.528 42.5678C187.528 41.5546 188.359 40.7215 189.37 40.7215C190.381 40.7215 191.212 41.5546 191.212 42.5678C191.212 43.581 190.381 44.4141 189.37 44.4141Z" fill="white"/>
<path d="M192.358 40.2708C192.718 40.2708 193.009 39.9784 193.009 39.6178C193.009 39.2572 192.718 38.9648 192.358 38.9648C191.998 38.9648 191.707 39.2572 191.707 39.6178C191.707 39.9784 191.998 40.2708 192.358 40.2708Z" fill="white"/>
<path d="M194.041 37.9295C193.457 37.3216 192.626 37.0063 191.683 37.0063H187.056C185.102 37.0063 183.799 38.3123 183.799 40.2711V44.8868C183.799 45.855 184.114 46.6881 184.743 47.296C185.349 47.8814 186.158 48.1741 187.078 48.1741H191.66C192.626 48.1741 193.435 47.8589 194.019 47.296C194.625 46.7106 194.94 45.8775 194.94 44.9093V40.2711C194.94 39.3255 194.625 38.5149 194.041 37.9295ZM193.951 44.9093C193.951 45.6073 193.704 46.1702 193.3 46.553C192.896 46.9357 192.334 47.1384 191.66 47.1384H187.078C186.405 47.1384 185.843 46.9357 185.439 46.553C185.035 46.1477 184.832 45.5848 184.832 44.8868V40.2711C184.832 39.5956 185.035 39.0328 185.439 38.6275C185.821 38.2447 186.405 38.0421 187.078 38.0421H191.705C192.379 38.0421 192.941 38.2447 193.345 38.65C193.727 39.0553 193.951 39.6182 193.951 40.2711V44.9093Z" fill="white"/>
</g>
<g filter="url(#filter5_di)">
<path d="M95.8631 25.0603L83.9885 20.5645C83.1772 20.2602 82.2794 20.2924 81.4915 20.654C80.7036 21.0156 80.0895 21.6773 79.7836 22.4944L77.9171 27.513C77.616 28.3321 77.6481 29.2382 78.0064 30.0335C78.3646 30.8288 79.02 31.4489 79.8295 31.7585L82.7008 32.8449C83.5789 34.6544 83.9701 36.0541 84.4441 36.2321C84.918 36.4101 86.3124 35.4905 87.9638 34.8361L91.704 36.2506C92.5152 36.5545 93.4125 36.5224 94.2002 36.1612C94.988 35.8 95.6022 35.139 95.909 34.3225L97.7736 29.3021C98.0751 28.4837 98.0435 27.5782 97.6855 26.7834C97.3275 25.9886 96.6723 25.3691 95.8631 25.0603Z" fill="url(#paint0_linear)"/>
<path d="M91.9147 29.0078C92.4144 27.6841 91.7622 26.3511 90.7317 25.9544C90.3151 25.7925 89.8581 25.7702 89.428 25.8907C88.9979 26.0112 88.6177 26.2682 88.3435 26.6236C88.3738 26.1738 88.2599 25.7261 88.0188 25.3465C87.7777 24.967 87.422 24.6757 87.0043 24.5157C85.9738 24.1171 84.6162 24.6733 84.1055 25.9989C83.3486 28.003 85.5255 31.4698 86.1869 32L86.2254 32.0297C86.2441 32.0425 86.2637 32.0536 86.2842 32.0631C86.3052 32.07 86.3267 32.0749 86.3485 32.0779H86.3981C87.245 32.1317 91.1579 31.01 91.9147 29.0078Z" fill="#FCFCFC"/>
</g>
<g filter="url(#filter6_di)">
<path d="M176.909 7.24238L169.114 9.87196C168.582 10.053 168.117 10.4247 167.819 10.9058C167.522 11.387 167.417 11.9385 167.528 12.4398L168.212 15.5136C168.325 16.0139 168.644 16.4222 169.1 16.6494C169.555 16.8766 170.109 16.9044 170.642 16.7266L172.526 16.0904C173.595 16.5823 174.27 17.0773 174.58 16.9716C174.891 16.866 175.324 15.8846 175.981 14.9242L178.436 14.0953C178.967 13.9141 179.432 13.5426 179.729 13.0617C180.027 12.5808 180.132 12.0296 180.022 11.5283L179.337 8.45433C179.224 7.95422 178.905 7.54601 178.45 7.31891C177.995 7.09181 177.441 7.0643 176.909 7.24238Z" fill="url(#paint1_linear)"/>
</g>
<path d="M176.13 10.6364C175.95 9.81633 175.155 9.45125 174.473 9.67617C174.198 9.76636 173.947 9.93817 173.759 10.1662C173.571 10.3942 173.456 10.6664 173.429 10.9424C173.294 10.7194 173.083 10.5548 172.827 10.473C172.571 10.3911 172.284 10.3963 172.008 10.4879C171.326 10.7119 170.792 11.5141 170.967 12.3395C171.239 13.5812 173.563 14.339 174.093 14.3239L174.124 14.3224C174.138 14.321 174.152 14.3184 174.166 14.3146C174.18 14.3095 174.193 14.3032 174.205 14.2959L174.232 14.2762C174.7 13.9637 176.402 11.8772 176.13 10.6364Z" fill="#FCFCFC"/>
<g filter="url(#filter7_di)">
<path d="M287.841 131.276L278.957 134.262C278.351 134.468 277.822 134.891 277.484 135.44C277.146 135.989 277.027 136.618 277.154 137.191L277.941 140.702C278.071 141.273 278.436 141.74 278.956 142C279.475 142.261 280.107 142.293 280.714 142.092L282.862 141.369C284.082 141.933 284.852 142.5 285.206 142.38C285.56 142.26 286.052 141.14 286.799 140.045L289.597 139.104C290.203 138.898 290.732 138.475 291.07 137.927C291.408 137.378 291.527 136.749 291.401 136.176L290.612 132.665C290.482 132.094 290.118 131.627 289.599 131.367C289.08 131.107 288.448 131.074 287.841 131.276Z" fill="url(#paint2_linear)"/>
<path d="M286.962 135.154C286.756 134.217 285.848 133.798 285.071 134.054C284.757 134.156 284.472 134.351 284.258 134.611C284.044 134.871 283.912 135.182 283.883 135.497C283.728 135.242 283.487 135.053 283.195 134.959C282.903 134.865 282.576 134.87 282.261 134.974C281.484 135.228 280.876 136.143 281.077 137.086C281.39 138.504 284.042 139.375 284.646 139.359L284.681 139.357C284.697 139.356 284.713 139.353 284.729 139.349C284.745 139.343 284.76 139.336 284.774 139.327L284.804 139.305C285.337 138.949 287.275 136.571 286.962 135.154Z" fill="#FCFCFC"/>
</g>
<g filter="url(#filter8_di)">
<path d="M265.193 51.411L252.87 56.709C252.028 57.0718 251.289 57.6986 250.815 58.4524C250.34 59.2063 250.168 60.026 250.336 60.7323L251.386 65.057C251.559 65.7613 252.058 66.2935 252.774 66.537C253.489 66.7806 254.364 66.7159 255.206 66.357L258.185 65.0782C259.869 65.5872 260.945 66.1669 261.424 65.9743C261.902 65.7817 262.613 64.2617 263.656 62.7424L267.524 61.0493C268.366 60.6866 269.104 60.0598 269.579 59.3059C270.054 58.552 270.226 57.7323 270.058 57.026L269.011 52.6993C268.833 51.9997 268.333 51.4723 267.619 51.2312C266.904 50.9901 266.033 51.0547 265.193 51.411Z" fill="url(#paint3_linear)"/>
<path d="M256.392 60.1755L257.159 63.1534C257.211 63.3533 257.456 63.432 257.708 63.3292L259.059 62.7765C259.31 62.6737 259.472 62.4282 259.42 62.2283L258.653 59.2504C258.601 59.0505 258.356 58.9718 258.104 59.0746L256.753 59.6272C256.502 59.7301 256.34 59.9756 256.392 60.1755Z" fill="#FCFCFC"/>
<path d="M263.459 57.3644L263.392 57.4088C263.543 57.3139 263.667 57.1801 263.744 57.0302C263.821 56.8803 263.845 56.7236 263.813 56.587C263.781 56.4504 263.694 56.3423 263.567 56.2813C263.44 56.2203 263.282 56.2101 263.119 56.2524L260.949 57.199C261.197 56.6338 261.301 56.0566 261.251 55.5213C261.075 54.779 260.504 54.5722 260.18 54.6631C260.043 54.6966 259.91 54.7758 259.808 54.8849C259.706 54.994 259.643 55.125 259.63 55.2519C259.594 55.5163 259.851 55.8704 259.829 56.0492C259.786 56.3251 259.392 56.839 258.899 57.8406C258.643 58.3904 258.581 58.9562 258.725 59.4408L258.969 60.4667L259.207 61.4921L259.322 61.9682C259.333 62.0154 259.354 62.0575 259.386 62.092C259.417 62.1264 259.457 62.1526 259.504 62.169C259.551 62.1854 259.604 62.1917 259.659 62.1876C259.715 62.1834 259.772 62.1689 259.827 62.1448L263.859 60.3875C263.925 60.3605 263.988 60.3224 264.045 60.2754C264.101 60.2284 264.15 60.1735 264.188 60.1138C264.226 60.0542 264.252 59.9911 264.266 59.9283C264.279 59.8655 264.279 59.8042 264.266 59.7482C264.253 59.6921 264.226 59.6424 264.188 59.602C264.151 59.5616 264.102 59.5314 264.046 59.513C263.989 59.4947 263.926 59.4886 263.86 59.4952C263.794 59.5018 263.726 59.521 263.661 59.5515L263.725 59.5092C263.808 59.4775 263.887 59.4315 263.958 59.374C264.03 59.3165 264.091 59.2488 264.139 59.1748C264.188 59.1009 264.221 59.0224 264.239 58.9441C264.256 58.8659 264.256 58.7895 264.24 58.7197C264.223 58.6499 264.19 58.5881 264.143 58.5382C264.095 58.4883 264.034 58.4512 263.963 58.4293C263.892 58.4074 263.813 58.4012 263.731 58.4109C263.648 58.4206 263.564 58.4461 263.483 58.4859L263.706 58.3881C263.789 58.3565 263.868 58.3105 263.939 58.253C264.01 58.1955 264.072 58.1277 264.12 58.0538C264.168 57.9799 264.202 57.9014 264.219 57.8231C264.237 57.7448 264.237 57.6685 264.22 57.5987C264.204 57.5288 264.171 57.4671 264.123 57.4171C264.076 57.3672 264.015 57.3302 263.944 57.3083C263.873 57.2864 263.794 57.2801 263.711 57.2898C263.629 57.2995 263.545 57.3251 263.464 57.3648L263.459 57.3644Z" fill="#FCFCFC"/>
</g>
<g filter="url(#filter9_di)">
<path d="M106.807 103.865L94.286 109.234C93.4311 109.601 92.6814 110.239 92.2006 111.006C91.7199 111.774 91.5472 112.61 91.7203 113.332L92.8012 117.748C92.9789 118.468 93.4878 119.012 94.2167 119.263C94.9456 119.514 95.8352 119.451 96.691 119.087L99.7178 117.791C101.432 118.316 102.528 118.911 103.014 118.716C103.5 118.52 104.219 116.971 105.276 115.424L109.206 113.708C110.061 113.341 110.811 112.703 111.291 111.935C111.772 111.167 111.945 110.332 111.772 109.61L110.694 105.191C110.511 104.477 110.001 103.937 109.274 103.689C108.546 103.441 107.66 103.504 106.807 103.865Z" fill="url(#paint4_linear)"/>
<path d="M97.8784 112.797L98.6647 115.84C98.7175 116.045 98.9674 116.126 99.2228 116.022L100.596 115.463C100.851 115.359 101.015 115.109 100.963 114.905L100.176 111.861C100.123 111.657 99.8736 111.575 99.6181 111.679L98.2453 112.238C97.9899 112.342 97.8256 112.592 97.8784 112.797Z" fill="#FCFCFC"/>
<path d="M105.059 109.958L104.99 110.004C105.144 109.907 105.27 109.771 105.348 109.619C105.426 109.466 105.45 109.306 105.417 109.167C105.384 109.027 105.295 108.916 105.166 108.853C105.037 108.791 104.876 108.779 104.71 108.822L102.506 109.779C102.757 109.203 102.861 108.614 102.809 108.068C102.628 107.309 102.047 107.096 101.718 107.187C101.578 107.221 101.444 107.301 101.34 107.412C101.237 107.523 101.172 107.656 101.16 107.786C101.124 108.055 101.386 108.418 101.363 108.6C101.321 108.882 100.921 109.405 100.421 110.425C100.163 110.985 100.101 111.562 100.249 112.057L100.499 113.105L100.744 114.153L100.861 114.639C100.872 114.688 100.894 114.731 100.926 114.766C100.958 114.801 100.999 114.828 101.047 114.845C101.095 114.862 101.149 114.869 101.205 114.865C101.261 114.861 101.319 114.846 101.375 114.822L105.472 113.046C105.539 113.019 105.604 112.98 105.661 112.932C105.718 112.884 105.768 112.829 105.806 112.768C105.845 112.707 105.871 112.643 105.885 112.579C105.898 112.515 105.898 112.452 105.885 112.395C105.871 112.338 105.844 112.287 105.806 112.245C105.767 112.204 105.718 112.173 105.66 112.154C105.603 112.135 105.538 112.129 105.471 112.135C105.404 112.142 105.335 112.161 105.269 112.192L105.334 112.149C105.418 112.117 105.499 112.07 105.571 112.012C105.644 111.953 105.706 111.885 105.755 111.809C105.804 111.734 105.838 111.654 105.855 111.574C105.873 111.494 105.873 111.416 105.856 111.345C105.839 111.274 105.805 111.211 105.757 111.159C105.708 111.108 105.646 111.07 105.574 111.048C105.502 111.025 105.421 111.018 105.337 111.028C105.253 111.037 105.168 111.063 105.086 111.103L105.312 111.004C105.396 110.972 105.477 110.926 105.549 110.867C105.621 110.809 105.684 110.74 105.733 110.665C105.782 110.59 105.816 110.51 105.833 110.43C105.85 110.35 105.851 110.272 105.834 110.201C105.817 110.13 105.783 110.066 105.735 110.015C105.686 109.964 105.624 109.926 105.552 109.903C105.48 109.881 105.399 109.874 105.315 109.883C105.231 109.893 105.146 109.919 105.064 109.959L105.059 109.958Z" fill="#FCFCFC"/>
</g>
<g filter="url(#filter10_f)">
<path d="M173.757 145.68L119.155 164.047L135.683 189.375L211.536 191.153L197.516 173.674L173.757 145.68Z" fill="url(#paint5_linear)"/>
</g>
<path d="M186.3 97.6886C175.483 101.737 163.643 102.139 155.901 97.6886C155.901 97.6886 152.755 83.0868 155.901 74.5818C158.262 65.102 167.031 62.4502 173.757 63.4727C173.757 63.4727 175.01 62.0719 178.179 63.4727C188.219 70.2862 187.186 82.4322 186.3 97.6886Z" fill="#412716"/>
<path d="M184.53 76.322C180.399 77.8648 177.146 76.36 172.743 76.322C166.47 76.322 163.069 78.6164 159 76.322C156.521 83.4658 153.64 87.1719 155.951 99.0215C158.262 110.871 157.602 114.781 159.406 120.784C170.515 127.496 175.371 128.145 183.323 120.768C183.323 120.768 182.021 111.908 186.006 101.54C188.514 91.1711 186.791 85.2008 185.495 79.5657C185.259 78.3758 184.832 77.3289 184.53 76.322Z" fill="#3C2415"/>
<path d="M170.423 78.4329C162.909 78.4329 158.031 104.314 158.78 127.428C168.041 130.956 175.407 132.748 185.204 126.017C186.052 104.187 178.277 78.4329 170.423 78.4329Z" fill="#3B2415"/>
<path d="M155.231 109.858C155.231 109.858 158.261 107.95 162.892 106.352C164.259 105.881 165.497 104.927 165.746 103.503C166.094 101.508 165.734 99.5644 165.734 97.0918L177.464 96.0378C177.464 96.0378 177.239 99.2068 177.489 102.547C177.648 104.678 179.412 106.227 181.471 106.803C182.404 107.064 183.647 107.431 185.474 107.966C187.523 107.966 171.177 126.588 171.177 126.588L155.231 109.858Z" fill="#FFCFAE"/>
<path d="M186.307 144.588L191.673 172.872C191.673 172.872 182.345 177.629 171.668 177.629C165.026 177.688 158.479 176.051 152.643 172.872L157.246 144.588L157.494 131.908C153.793 129.116 155.064 121.554 155.064 121.554L152.643 110.558L159.921 107.453L163.56 105.901L164.643 108.319C167.982 113.686 174.39 113.724 178.383 107.927L179.642 105.901L184.224 107.453L191.758 109.938L189.08 122.037C189.08 122.037 189.88 129.029 186.307 132.291V144.588Z" fill="#E63067"/>
<path d="M185.108 133.437C185.108 133.437 174.807 140.736 159.974 133.878C159.974 133.878 173.826 137.617 185.108 133.437Z" fill="#C11C57"/>
<path d="M156.906 121.887C156.906 121.887 151.637 137.366 147.566 145.177C147.566 145.177 158.156 152.076 164.229 158.139C164.229 158.139 162.866 166.452 160.493 163.354C160.493 163.354 144.025 153.539 140.068 147.686C140.068 147.686 145.455 116.09 152.651 110.557C155.167 113.823 156.649 117.769 156.906 121.887Z" fill="#E63067"/>
<path d="M187.41 121.887C187.41 121.887 191.81 138.203 195.888 146.014C195.888 146.014 190.889 149.568 179.642 158.766L184.016 162.32C184.016 162.32 199.171 152.509 202.295 147.701C202.295 147.701 197.079 115.97 191.758 109.903C189.264 113.436 187.763 117.574 187.41 121.887Z" fill="#E63067"/>
<path d="M125.935 159.085C125.935 159.085 133.519 156.59 148.606 160.857L149.647 163.993L125.935 159.085Z" fill="#06264A"/>
<path d="M194.16 163.086L216.752 158.93C216.752 158.93 208.142 157.197 194.332 160.673" fill="#06264A"/>
<path d="M171.87 175.855C182.293 175.855 190.742 172.835 190.742 169.111C190.742 165.386 182.293 162.367 171.87 162.367C161.448 162.367 152.999 165.386 152.999 169.111C152.999 172.835 161.448 175.855 171.87 175.855Z" fill="#06264A"/>
<path d="M151.84 167.786L190.693 167.943C191.54 167.942 192.361 167.655 193.024 167.129C193.687 166.603 194.153 165.869 194.347 165.045L195.596 143.589C195.732 142.833 195.7 142.058 195.501 141.316C195.303 140.575 194.944 139.887 194.449 139.3C193.954 138.713 193.336 138.242 192.639 137.922C191.941 137.601 191.182 137.437 190.414 137.443L152.507 137.804C151.736 137.811 150.976 137.988 150.281 138.322C149.587 138.657 148.975 139.14 148.489 139.738C148.003 140.337 147.655 141.035 147.47 141.783C147.286 142.531 147.269 143.311 147.42 144.066L148.303 165.292C148.564 166.021 149.043 166.652 149.676 167.099C150.309 167.545 151.065 167.785 151.84 167.786Z" fill="#EDF5FF" stroke="#71A0DD" stroke-width="0.3"/>
<path d="M181.53 137.592L152.505 137.804C151.734 137.811 150.974 137.988 150.279 138.322C149.585 138.656 148.973 139.14 148.487 139.738C148.001 140.336 147.653 141.035 147.468 141.783C147.284 142.531 147.267 143.311 147.418 144.066L148.467 165.532C148.728 166.261 149.207 166.892 149.84 167.338C150.473 167.785 151.229 168.025 152.003 168.026H161.651L181.53 137.592Z" fill="url(#paint6_linear)"/>
<path d="M171.588 156.841C174.145 156.841 176.218 154.926 176.218 152.564C176.218 150.201 174.145 148.286 171.588 148.286C169.031 148.286 166.958 150.201 166.958 152.564C166.958 154.926 169.031 156.841 171.588 156.841Z" fill="#61A6FF"/>
<path d="M149.467 163.602C146.436 161.998 143.172 160.889 139.796 160.314C136.714 159.783 132.633 159.173 128.449 158.816C125.006 158.525 124.232 160.84 124.49 163.602C124.935 168.368 128.532 173.893 133.045 175.398C140.737 177.946 155.398 182.531 172.071 186.285C172.071 186.285 175.23 181.098 174.005 176.714L170.865 174.931L149.467 163.602Z" fill="#0A3D76"/>
<path d="M159.991 183.18C159.991 183.18 157.455 181.52 156.201 183.067C154.957 184.701 154.932 184.393 153.528 184.478C152.115 184.477 147.29 182.805 142.154 181.345C137.027 179.97 132.527 184.704 134.32 188.403C136.113 192.103 146.35 190.001 148.874 190.301C151.398 190.601 151.852 190.981 154.132 190.527C156.412 190.073 162.612 190.78 162.746 188.848C162.807 187.011 160.982 183.93 159.991 183.18Z" fill="#B4D1FA" stroke="#263238" stroke-width="0.5" stroke-miterlimit="10" stroke-linecap="round" stroke-linejoin="round"/>
<path d="M138.467 190.345C138.951 187.675 138.158 183.873 137.558 181.753C134.591 183.091 132.928 186.244 134.342 188.724C134.927 189.73 136.514 190.201 138.467 190.345Z" fill="#C43B55" stroke="#263238" stroke-width="0.5" stroke-miterlimit="10" stroke-linecap="round" stroke-linejoin="round"/>
<mask id="mask0" mask-type="alpha" maskUnits="userSpaceOnUse" x="133" y="180" width="30" height="11">
<path d="M159.906 183.147C159.906 183.147 157.359 181.716 156.127 183.236C154.393 184.992 154.88 184.539 153.501 184.623C152.113 184.622 147.412 182.905 142.366 181.471C137.355 179.962 132.51 184.153 134.348 188.513C136.018 191.699 146.402 189.895 148.882 190.189C151.361 190.484 151.986 190.803 154.227 190.357C156.467 189.911 162.448 190.747 162.579 188.848C162.639 187.044 160.88 183.884 159.906 183.147Z" fill="#B4D1FA" stroke="#263238" stroke-width="0.5" stroke-miterlimit="10" stroke-linecap="round" stroke-linejoin="round"/>
</mask>
<g mask="url(#mask0)">
<path d="M141.024 190.555C140.646 188.317 140.145 182.006 139.118 180.635M144.016 191.32C143.784 188.86 142.858 182.123 141.59 180.891M147.084 191.183C147.007 188.77 146.111 182.817 145.105 182.089M150.301 190.081C150.086 188.157 149.138 183.463 148.373 182.595M154.493 190.748C153.081 189.022 151.809 183.181 152.308 183.003M158.449 191.158C153.642 188.494 154.64 181.648 157.211 181.225" stroke="#0A3D76" stroke-width="2" stroke-linecap="round"/>
</g>
<path d="M187.49 183.927C187.49 183.927 189.475 181.755 190.729 183.303C191.973 184.936 194.268 185.28 195.671 185.365C197.084 185.364 201.91 183.692 207.045 182.231C212.172 180.857 216.672 185.59 214.879 189.29C213.087 192.989 202.849 190.888 200.326 191.188C197.802 191.488 197.347 191.868 195.067 191.414C192.787 190.96 186.587 191.667 186.453 189.734C186.393 187.898 186.499 184.676 187.49 183.927Z" fill="#B4D1FA" stroke="black" stroke-width="0.5" stroke-miterlimit="10" stroke-linecap="round" stroke-linejoin="round"/>
<path d="M210.545 191.123C210.062 188.452 210.854 184.65 211.454 182.53C214.422 183.869 216.085 187.021 214.671 189.502C214.086 190.508 212.498 190.979 210.545 191.123Z" fill="#C43B55" stroke="#263238" stroke-width="0.5" stroke-miterlimit="10" stroke-linecap="round" stroke-linejoin="round"/>
<mask id="mask1" mask-type="alpha" maskUnits="userSpaceOnUse" x="186" y="181" width="30" height="11">
<path d="M187.436 183.254C187.436 183.254 190.677 182.375 191.909 183.895C193.643 185.651 194.132 185.316 195.512 185.4C196.9 185.399 201.601 183.683 206.647 182.248C211.658 180.739 216.502 184.931 214.665 189.29C212.995 192.476 202.611 190.672 200.131 190.967C197.652 191.262 197.026 191.58 194.786 191.134C192.546 190.688 186.565 191.524 186.434 189.625C186.374 187.821 186.462 183.99 187.436 183.254Z" fill="#B4D1FA" stroke="#263238" stroke-width="0.5" stroke-miterlimit="10" stroke-linecap="round" stroke-linejoin="round"/>
</mask>
<g mask="url(#mask1)">
<path d="M207.989 191.332C208.368 189.094 208.869 182.783 209.895 181.412M204.998 192.097C205.229 189.638 206.156 182.9 207.424 181.668M201.93 191.96C202.007 189.547 202.903 183.594 203.909 182.866M198.713 190.858C198.927 188.934 199.875 184.24 200.64 183.372M194.52 191.525C195.933 189.799 197.204 183.958 196.706 183.78M190.565 191.935C195.372 189.271 194.374 182.425 191.803 182.002" stroke="#0A3D76" stroke-width="2" stroke-linecap="round"/>
</g>
<path d="M188.139 190.356C187.333 190.071 172.412 185.478 172.412 185.478L168.989 186.412C168.989 186.412 164.339 188.169 160.909 189.239C159.237 188.904 156.617 187.577 157.098 184.756C157.341 183.329 158.719 182.399 160.058 181.85C161.391 181.304 163.04 180.573 164.11 179.976C165.788 179.032 168.509 177.425 170.291 176.701C171.635 176.166 171.947 175.963 171.974 175.886L171.871 175.842C171.871 175.842 171.994 175.832 171.974 175.886L186.134 181.973L189.626 182.975C192.643 185.694 192.315 188.177 189.626 190.153C189.308 190.356 188.473 190.524 188.139 190.356Z" fill="#FFCFAE"/>
<path d="M170.807 184.629C170.979 184.514 170.051 184.836 164.969 187.042C162.892 187.943 161.128 188.476 159.646 188.775C159.971 189.119 160.902 189.202 161.244 189.183C162.034 189.036 162.594 188.875 162.653 188.663C165.661 187.572 167.965 186.852 171.494 185.663L170.807 184.629Z" fill="#EAAB85"/>
<path d="M193.522 163.602C196.552 161.998 199.817 160.889 203.193 160.314C206.275 159.783 210.356 159.173 214.54 158.816C218.009 158.525 218.776 160.84 218.518 163.602C218.08 168.368 215.733 174.529 211.22 176.027C203.528 178.582 188.867 183.16 172.194 186.921C172.194 186.921 167.778 181.085 168.971 176.714L172.156 174.931L193.522 163.602Z" fill="#0A3D76"/>
<path d="M158.238 182.476C155.898 184.488 157.068 188.68 160.91 189.183C161.411 189.183 162.48 189.082 162.748 188.68" stroke="black" stroke-width="0.5"/>
<path d="M186.301 189.854C186.7 190.126 188.139 190.86 189.539 190.315C192.983 187.674 191.981 185.662 190.31 183.65C190.199 183.538 189.709 182.812 189.308 182.812" stroke="black" stroke-width="0.5"/>
<g filter="url(#filter11_f)">
<path d="M131.829 174.633C127.296 172.84 125.246 167.337 124.789 164.809C133.203 173.082 144.536 176.529 160.161 181.527L157.929 182.733C151.118 180.837 136.362 176.425 131.829 174.633Z" fill="black" fill-opacity="0.1"/>
</g>
<g filter="url(#filter12_f)">
<path d="M217.513 168.083C209.615 175.495 183.457 182.274 171.151 185.146L172.353 186.697C183.8 183.997 206.867 177.563 211.503 175.839C215.109 174.499 217.113 169.75 217.513 168.083Z" fill="black" fill-opacity="0.1"/>
</g>
<path d="M184.297 189.35L174.584 186.18L175.443 186.008C181.779 188.454 187.137 189.719 188.139 190.356C188.722 190.727 185.711 189.74 184.297 189.35Z" fill="#DCA17D"/>
<path d="M177.017 97.7546C170.516 100.719 169.834 99.3921 166.141 97.9612L166.141 98.0447C170.613 106.32 174.971 102.128 177.017 97.9612V97.7546Z" fill="#EAAB85"/>
<path d="M160.515 86.0681C160.834 87.9961 161.414 90.2931 162.315 92.4843C165.016 96.6253 167.003 100.578 171.58 100.578C175.771 100.578 177.956 97.0017 180.662 92.4843C181.441 90.6157 181.981 88.6421 182.268 86.821C182.923 82.6638 178.331 77.0497 178.331 77.0497C178.331 77.0497 177.581 69.709 173.83 71.4029C167.454 76.2968 163.334 73.9693 160.891 79.6685C159.71 82.4222 160.325 79.7438 160.515 86.0681Z" fill="#FFCFAE"/>
<path d="M160.695 85.8755C159.913 83.9988 158.639 82.8586 157.879 83.326C157.118 83.7934 157.083 85.6984 157.879 87.5752C158.674 89.4519 159.935 90.5921 160.695 90.1247C161.456 89.6573 161.47 87.7381 160.695 85.8755Z" fill="#FFCFAE"/>
<path d="M160.429 86.4986C159.95 85.3443 159.161 84.6431 158.682 84.9335C158.203 85.2239 158.189 86.3924 158.682 87.5468C159.175 88.7011 159.943 89.4164 160.429 89.1119C160.914 88.8074 160.914 87.653 160.429 86.4986Z" fill="#EAAB85"/>
<path d="M161.006 87.5681C160.773 86.9024 160.217 86.5625 159.767 86.8599C159.532 87.0628 159.368 87.3361 159.3 87.6396C159.231 87.943 159.262 88.2606 159.386 88.5454C159.626 89.2536 160.175 89.5582 160.626 89.2961C160.875 89.0943 161.048 88.8133 161.117 88.4992C161.186 88.1851 161.147 87.8568 161.006 87.5681Z" fill="#FFCFAE"/>
<path d="M182.325 84.2504C183.229 82.3736 184.52 81.7399 185.213 82.8529C185.907 83.966 185.429 86.2536 184.52 88.1385C183.611 90.0234 182.325 90.5854 181.948 89.6613C181.249 88.5564 181.426 86.1271 182.325 84.2504Z" fill="#FFCFAE"/>
<path d="M182.916 85.6921C183.56 84.5801 184.342 84.165 184.656 84.764C184.971 85.363 184.687 86.7548 184.037 87.8583C183.388 88.9618 182.605 89.3925 182.275 88.7838C181.944 88.175 182.261 86.795 182.916 85.6921Z" fill="#EAAB85"/>
<path d="M182.324 87.7403C182.583 87.0355 183.031 86.6838 183.326 86.9693C183.62 87.2547 183.64 88.0553 183.386 88.7595C183.131 89.4637 182.678 89.8101 182.384 89.5305C182.09 89.2509 182.068 88.4628 182.324 87.7403Z" fill="#FFCFAE"/>
<path d="M160.891 86.8212C159.595 85.0861 158.072 81.8932 159.325 76.4259L161.453 74.9629C161.453 80.9299 159.468 80.6244 160.891 86.8212Z" fill="#412716"/>
<path d="M182.082 87.0097C183.377 85.2746 184.9 82.0818 183.647 76.6144L178.143 74.9797C178.143 81.3794 182.832 81.1912 182.082 87.0097Z" fill="#412716"/>
<path d="M162.214 81.7262C162.799 80.8233 165.032 78.1828 168.413 79.8287C168.625 79.9323 168.729 79.9745 168.842 80.377C165.776 79.5736 164.211 79.8547 162.214 81.7262Z" fill="#412716"/>
<path d="M180.361 81.7262C179.776 80.8233 177.544 78.1828 174.163 79.8287C173.95 79.9323 173.846 79.9745 173.734 80.377C176.8 79.5736 178.365 79.8547 180.361 81.7262Z" fill="#412716"/>
<path d="M172.979 88.2392C172.979 87.5876 172.408 84.9036 171.57 84.9036C170.733 84.9036 170.042 87.5876 170.042 88.2392C170.116 88.5713 170.299 88.8683 170.563 89.0812C170.827 89.2941 171.155 89.4101 171.493 89.4101C171.831 89.4101 172.159 89.2941 172.423 89.0812C172.687 88.8683 172.87 88.5713 172.943 88.2392H172.979Z" fill="#FFCFAE"/>
<path d="M170.001 89.4573C169.69 89.7721 170.155 89.9304 170.155 89.9304H170.775C170.775 89.9304 171.395 90.56 172.012 89.9304H172.632C172.632 89.9304 173.097 89.7721 172.788 89.4573" stroke="#EAAB85" stroke-width="0.8" stroke-miterlimit="10" stroke-linejoin="round"/>
<path d="M170.643 84.187C170.643 84.187 171.449 85.2132 170.698 87.9515L170.643 84.187Z" fill="#EAAB85"/>
<path d="M165.433 82.3723C165.957 82.1801 166.127 82.242 166.903 82.2428C167.258 82.284 167.605 82.3708 167.937 82.501C167.937 82.501 168.71 83.273 168.803 83.3733C168.965 83.556 168.904 83.7616 168.658 83.7947C168.412 83.8279 168.141 83.753 167.934 83.7939C166.338 84.0493 165.996 84.1466 165.087 83.7909C164.724 83.66 164.377 83.487 164.055 83.2757C164.443 82.8794 164.913 82.5712 165.433 82.3723Z" fill="white"/>
<path d="M166.385 82.5168C166.893 82.5117 167.303 82.9074 167.301 83.4006C167.3 83.6204 167.218 83.8226 167.081 83.9795C166.771 84.1175 166.012 84.0418 165.671 83.9866C165.54 83.8333 165.461 83.6356 165.462 83.419C165.464 82.9259 165.877 82.5219 166.385 82.5168Z" fill="#28160D" stroke="#1C1105" stroke-width="0.2" stroke-miterlimit="10"/>
<path d="M166.378 83.9226C166.088 83.9255 165.854 83.6991 165.855 83.417C165.856 83.1348 166.092 82.9037 166.383 82.9008C166.673 82.8979 166.907 83.1242 166.906 83.4064C166.905 83.6886 166.669 83.9197 166.378 83.9226Z" fill="black"/>
<path opacity="0.77" d="M166.896 83.4101C166.751 83.4116 166.634 83.2984 166.634 83.1573C166.635 83.0162 166.753 82.9006 166.899 82.8991C167.044 82.8977 167.161 83.0109 167.161 83.152C167.16 83.2931 167.042 83.4087 166.896 83.4101Z" fill="white"/>
<path d="M168.871 83.6093L167.952 82.6074C167.868 82.5174 167.761 82.4524 167.642 82.4197L167.263 82.3217C167.069 82.2723 166.868 82.2547 166.668 82.2696L165.692 82.3455C165.493 82.361 165.3 82.4213 165.128 82.5218L164.119 83.1237L163.793 83.1413L164.735 82.3032C164.942 82.1805 165.174 82.107 165.414 82.0885L166.387 82.0127C166.617 81.9948 166.848 82.0159 167.07 82.0751L167.447 82.1731C167.693 82.2131 167.929 82.3006 168.142 82.4305L169.225 83.6508L168.871 83.6093Z" fill="#D3A688"/>
<path opacity="0.5" d="M168.966 83.6506L168.048 82.6493C167.949 82.5415 167.821 82.4639 167.679 82.4257L167.302 82.3277C167.088 82.2721 166.866 82.2528 166.645 82.2705L165.67 82.3462C165.45 82.3622 165.237 82.4296 165.048 82.5429L164.055 83.1418" stroke="#0A0001" stroke-width="0.3" stroke-miterlimit="10"/>
<path d="M168.834 83.7949L168.429 83.7941C168.216 83.7932 168.004 83.8142 167.796 83.8566C167.312 83.9602 166.28 84.2155 165.346 83.9209C165.289 83.903 164.884 83.6934 164.83 83.6653L164.314 83.4096" stroke="#472A22" stroke-width="0.2" stroke-miterlimit="10"/>
<path d="M177.145 82.4512C176.627 82.2432 176.455 82.295 175.678 82.261C175.322 82.2847 174.972 82.3524 174.637 82.4626C174.637 82.4626 173.848 83.1695 173.756 83.2618C173.587 83.4299 173.644 83.6301 173.889 83.673C174.135 83.7158 174.408 83.6561 174.615 83.7047C176.208 84.0214 176.551 84.1303 177.466 83.8293C177.833 83.7197 178.183 83.5691 178.511 83.3807C178.128 82.9831 177.662 82.6661 177.145 82.4512Z" fill="white"/>
<path d="M176.179 82.5732C176.689 82.6224 177.1 83.035 177.098 83.4947C177.097 83.7124 177.004 83.9017 176.851 84.0353C176.312 84.0309 176.021 83.9937 175.502 83.9112C175.347 83.7471 175.252 83.5372 175.253 83.3164C175.255 82.8567 175.67 82.524 176.179 82.5732Z" fill="#28160D" stroke="#1C1105" stroke-width="0.2" stroke-miterlimit="10"/>
<path d="M176.172 83.8961C175.88 83.8677 175.645 83.6295 175.646 83.3642C175.647 83.0988 175.884 82.9067 176.176 82.9351C176.468 82.9635 176.703 83.2017 176.702 83.467C176.701 83.7324 176.464 83.9245 176.172 83.8961Z" fill="black"/>
<path opacity="0.77" d="M176.697 83.4083C176.551 83.3941 176.433 83.275 176.434 83.1423C176.434 83.0095 176.553 82.9134 176.699 82.9276C176.845 82.9419 176.962 83.061 176.962 83.1937C176.961 83.3265 176.843 83.4226 176.697 83.4083Z" fill="white"/>
<path d="M173.682 83.4669L174.621 82.5531C174.707 82.4706 174.817 82.4134 174.938 82.3881L175.317 82.3115C175.512 82.2732 175.714 82.2653 175.914 82.2883L176.891 82.4039C177.091 82.4279 177.283 82.4939 177.453 82.597L178.449 83.2151L178.775 83.2463L177.848 82.4061C177.643 82.28 177.412 82.1996 177.173 82.1714L176.197 82.0559C175.969 82.0288 175.738 82.0387 175.515 82.0852L175.133 82.1617C174.886 82.1889 174.648 82.2617 174.432 82.3761L173.329 83.4909L173.682 83.4669Z" fill="#D3A688"/>
<path opacity="0.5" d="M173.586 83.5085L174.526 82.5983C174.627 82.5003 174.757 82.4323 174.899 82.4023L175.279 82.326C175.488 82.2844 175.705 82.2756 175.919 82.3L176.894 82.4152C177.114 82.4401 177.326 82.5135 177.513 82.6295L178.514 83.2431" stroke="#0A0001" stroke-width="0.3" stroke-miterlimit="10"/>
<path d="M173.708 83.6916L174.114 83.7082C174.328 83.7165 174.54 83.7447 174.749 83.7924C175.231 83.9074 176.255 84.1842 177.196 83.9555C177.255 83.9417 177.662 83.7678 177.717 83.7445C177.912 83.6642 177.717 83.7445 178.238 83.5334" stroke="#472A22" stroke-width="0.2" stroke-miterlimit="10"/>
<path d="M174.921 92.8906L174.921 92.8906L174.921 92.8885C175.004 92.4333 174.609 92.0987 174.206 92.1034L168.569 92.1692C168.166 92.1739 167.785 92.5186 167.881 92.9688L167.881 92.9688L167.882 92.9709C168.046 93.7062 168.497 94.3617 169.147 94.8268C169.797 95.2916 170.608 95.5389 171.438 95.5296C172.268 95.5202 173.072 95.2548 173.708 94.7753C174.345 94.2955 174.777 93.6297 174.921 92.8906Z" fill="#920E08" stroke="#EA908A" stroke-width="0.4"/>
<mask id="mask2" mask-type="alpha" maskUnits="userSpaceOnUse" x="168" y="92" width="7" height="4">
<path d="M174.209 92.3034C174.516 92.2998 174.78 92.5499 174.724 92.8525C174.591 93.5392 174.189 94.163 173.588 94.6156C172.987 95.0681 172.226 95.3207 171.436 95.3296C170.646 95.3385 169.877 95.103 169.264 94.6641C168.65 94.2252 168.23 93.6106 168.077 92.9271C168.013 92.6278 168.265 92.3728 168.571 92.3692L174.209 92.3034Z" fill="#920E08"/>
</mask>
<g mask="url(#mask2)">
<path d="M174.767 92.2969C174.768 92.476 174.757 92.6756 174.724 92.8525L168.077 92.9271C168.04 92.7534 168.019 92.5524 168.016 92.3757L174.767 92.2969Z" fill="white"/>
</g>
<path d="M173.906 94.3496C173.594 94.6553 173.214 94.9008 172.789 95.0707C172.364 95.2405 171.904 95.331 171.438 95.3364C170.972 95.3419 170.509 95.2622 170.08 95.1023C169.65 94.9425 169.262 94.706 168.941 94.4077C169.614 93.8577 170.494 93.5474 171.411 93.5367C172.328 93.5259 173.217 93.8156 173.906 94.3496Z" fill="#F85C66"/>
<path d="M227.435 22.0114L220.044 19.2283C219.539 19.0399 218.98 19.0598 218.49 19.2837C218 19.5075 217.617 19.9172 217.427 20.423L216.265 23.5298C216.078 24.0368 216.098 24.5977 216.321 25.0901C216.544 25.5824 216.952 25.9663 217.455 26.1579L219.243 26.8305C219.789 27.9506 220.033 28.8171 220.328 28.9273C220.623 29.0374 221.491 28.4682 222.519 28.0631L224.847 28.9388C225.351 29.1269 225.91 29.107 226.4 28.8834C226.891 28.6598 227.273 28.2506 227.464 27.7452L228.624 24.6373C228.812 24.1307 228.792 23.5701 228.57 23.0781C228.347 22.586 227.939 22.2025 227.435 22.0114Z" fill="#EBF2F9"/>
<path d="M224.978 24.4553C225.289 23.6359 224.884 22.8107 224.242 22.5651C223.983 22.4649 223.698 22.4511 223.431 22.5257C223.163 22.6003 222.926 22.7594 222.756 22.9794C222.774 22.701 222.704 22.4238 222.554 22.1888C222.403 21.9539 222.182 21.7736 221.922 21.6745C221.281 21.4278 220.436 21.7721 220.118 22.5927C219.647 23.8333 221.002 25.9795 221.413 26.3077L221.437 26.3261C221.449 26.3339 221.461 26.3409 221.474 26.3467C221.487 26.351 221.5 26.354 221.514 26.3559H221.545C222.072 26.3892 224.507 25.6948 224.978 24.4553Z" fill="#FCFCFC"/>
<path d="M245.712 103.685L234.369 99.4135C233.593 99.1244 232.736 99.155 231.983 99.4986C231.23 99.8421 230.644 100.471 230.352 101.247L228.569 106.015C228.281 106.793 228.312 107.654 228.654 108.41C228.996 109.166 229.622 109.755 230.395 110.049L233.138 111.081C233.977 112.8 234.351 114.13 234.804 114.299C235.256 114.468 236.588 113.595 238.166 112.973L241.739 114.317C242.514 114.605 243.371 114.575 244.124 114.232C244.876 113.889 245.463 113.261 245.756 112.485L247.537 107.715C247.825 106.938 247.795 106.077 247.453 105.322C247.111 104.567 246.485 103.978 245.712 103.685Z" fill="#EBF2F9"/>
<path d="M241.94 107.436C242.417 106.178 241.794 104.912 240.81 104.535C240.412 104.381 239.975 104.36 239.564 104.474C239.153 104.589 238.79 104.833 238.528 105.171C238.557 104.743 238.448 104.318 238.218 103.957C237.988 103.597 237.648 103.32 237.249 103.168C236.265 102.789 234.968 103.318 234.48 104.577C233.757 106.481 235.836 109.775 236.468 110.279L236.505 110.307C236.523 110.319 236.542 110.329 236.561 110.338C236.581 110.345 236.602 110.35 236.623 110.353H236.67C237.479 110.404 241.217 109.338 241.94 107.436Z" fill="#FCFCFC"/>
<path d="M278.728 16.2422L271.621 18.7155C271.137 18.8857 270.719 19.232 270.459 19.6788C270.199 20.1255 270.119 20.6364 270.235 21.0997L270.956 23.9404C271.076 24.4027 271.382 24.7789 271.808 24.9868C272.234 25.1947 272.746 25.2175 273.231 25.0503L274.95 24.4519C275.949 24.9016 276.585 25.3561 276.868 25.2568C277.152 25.1574 277.521 24.2471 278.099 23.3551L280.337 22.5754C280.821 22.4051 281.239 22.0589 281.499 21.6124C281.758 21.1659 281.839 20.6553 281.723 20.192L281.001 17.3512C280.882 16.889 280.576 16.5129 280.15 16.3051C279.724 16.0973 279.213 16.0747 278.728 16.2422Z" fill="#EBF2F9"/>
<path d="M278.112 19.3934C277.923 18.6365 277.18 18.3035 276.559 18.5151C276.308 18.6 276.082 18.7602 275.915 18.972C275.748 19.1838 275.649 19.436 275.633 19.6913C275.502 19.4859 275.303 19.3349 275.065 19.2607C274.827 19.1865 274.563 19.1929 274.311 19.2791C273.69 19.4899 273.22 20.2344 273.404 20.9962C273.69 22.1424 275.851 22.8299 276.339 22.813L276.367 22.8115C276.38 22.8101 276.393 22.8076 276.406 22.8041C276.418 22.7993 276.43 22.7934 276.442 22.7866L276.465 22.7682C276.888 22.4767 278.397 20.5388 278.112 19.3934Z" fill="#FCFCFC"/>
<path d="M139.014 97.6304L131.558 100.088C131.05 100.257 130.604 100.609 130.318 101.068C130.033 101.527 129.931 102.056 130.035 102.537L130.678 105.491C130.785 105.972 131.088 106.366 131.522 106.588C131.956 106.809 132.486 106.841 132.995 106.674L134.798 106.08C135.817 106.561 136.46 107.041 136.757 106.942C137.054 106.843 137.471 105.906 138.102 104.99L140.45 104.216C140.958 104.046 141.404 103.694 141.689 103.235C141.975 102.776 142.077 102.249 141.974 101.767L141.329 98.813C141.223 98.3324 140.92 97.9382 140.486 97.7166C140.052 97.4951 139.523 97.4641 139.014 97.6304Z" fill="#EBF2F9"/>
<path d="M138.259 100.888C138.09 100.099 137.332 99.7415 136.68 99.951C136.416 100.035 136.176 100.197 135.996 100.414C135.815 100.631 135.704 100.891 135.678 101.156C135.55 100.941 135.348 100.781 135.104 100.7C134.86 100.619 134.586 100.622 134.322 100.707C133.669 100.915 133.156 101.68 133.32 102.473C133.576 103.667 135.793 104.416 136.3 104.406L136.329 104.405C136.342 104.404 136.356 104.401 136.369 104.398C136.382 104.393 136.395 104.387 136.407 104.38L136.432 104.362C136.881 104.066 138.515 102.08 138.259 100.888Z" fill="#FCFCFC"/>
<path d="M64.388 138.988L49.9075 134.1C48.9182 133.767 47.8727 133.748 46.9994 134.046C46.1262 134.345 45.4962 134.938 45.2472 135.694L43.7413 140.343C43.4976 141.101 43.6554 141.96 44.1803 142.733C44.7051 143.505 45.5543 144.128 46.5423 144.465L50.0417 145.649C51.3131 147.409 51.9793 148.759 52.534 148.961C53.0886 149.162 54.6202 148.368 56.4608 147.833L61.0232 149.341C62.0124 149.674 63.058 149.693 63.9312 149.394C64.8044 149.096 65.4344 148.503 65.6834 147.747L67.1934 143.099C67.4299 142.341 67.2682 141.485 66.7432 140.715C66.2182 139.946 65.3721 139.326 64.388 138.988Z" fill="#EBF2F9"/>
<path d="M51.2213 140.126L50.1807 143.37C50.1108 143.588 50.2904 143.846 50.5818 143.947L52.1475 144.49C52.4389 144.591 52.7317 144.496 52.8016 144.278L53.8422 141.034C53.912 140.816 53.7325 140.558 53.4411 140.457L51.8754 139.915C51.584 139.814 51.2912 139.908 51.2213 140.126Z" fill="#FCFCFC"/>
<path d="M59.5045 142.919L59.4131 142.905C59.6146 142.94 59.8135 142.921 59.9759 142.85C60.1383 142.78 60.254 142.662 60.3033 142.518C60.3526 142.374 60.3323 142.212 60.246 142.061C60.1598 141.909 60.0128 141.776 59.8303 141.686L57.1799 140.82C57.7522 140.521 58.192 140.099 58.4585 139.594C58.7254 138.811 58.2963 138.186 57.9305 138.013C57.7784 137.935 57.6036 137.901 57.4411 137.916C57.2785 137.932 57.1401 137.996 57.0534 138.097C56.8629 138.299 56.9026 138.808 56.7755 138.946C56.5718 139.152 55.8894 139.293 54.8238 139.78C54.2533 140.06 53.8612 140.504 53.7146 141.038L53.3457 142.121L52.9727 143.2L52.8026 143.703C52.7854 143.753 52.7817 143.806 52.7917 143.861C52.8017 143.915 52.8252 143.969 52.8608 144.02C52.8964 144.071 52.9435 144.118 52.9993 144.157C53.0552 144.197 53.1187 144.228 53.1863 144.251L58.111 145.862C58.1906 145.89 58.274 145.907 58.3561 145.91C58.4383 145.913 58.5176 145.903 58.5893 145.88C58.6611 145.858 58.7237 145.824 58.7736 145.78C58.8235 145.735 58.8596 145.682 58.8798 145.623C58.9 145.564 58.9038 145.5 58.891 145.435C58.8783 145.371 58.8492 145.306 58.8056 145.247C58.7619 145.187 58.7046 145.132 58.6369 145.086C58.5693 145.041 58.4927 145.005 58.4118 144.98L58.4988 144.994C58.5972 145.03 58.7008 145.052 58.8034 145.058C58.906 145.063 59.0053 145.052 59.0953 145.025C59.1853 144.999 59.264 144.956 59.3267 144.902C59.3894 144.847 59.4347 144.781 59.4599 144.707C59.485 144.634 59.4895 144.554 59.473 144.474C59.4565 144.393 59.4194 144.313 59.3639 144.239C59.3084 144.165 59.2358 144.098 59.1505 144.042C59.0651 143.986 58.9688 143.943 58.8676 143.914L59.14 144.003C59.2383 144.039 59.342 144.061 59.4446 144.067C59.5471 144.072 59.6464 144.061 59.7364 144.034C59.8264 144.008 59.9052 143.966 59.9679 143.911C60.0306 143.856 60.0759 143.79 60.101 143.716C60.1262 143.643 60.1307 143.563 60.1142 143.483C60.0977 143.402 60.0605 143.322 60.0051 143.248C59.9496 143.174 59.877 143.107 59.7916 143.051C59.7063 142.995 59.61 142.952 59.5087 142.923L59.5045 142.919Z" fill="#FCFCFC"/>
<path d="M133.395 18.091L125.863 21.6703C125.349 21.9153 124.91 22.3253 124.641 22.8106C124.372 23.296 124.295 23.8173 124.428 24.2606L125.254 26.9744C125.39 27.4163 125.724 27.7433 126.182 27.8839C126.641 28.0245 127.188 27.9672 127.703 27.7246L129.523 26.8606C130.6 27.1508 131.298 27.497 131.59 27.3663C131.883 27.2356 132.271 26.2617 132.867 25.2818L135.23 24.1393C135.744 23.8943 136.184 23.4843 136.453 22.9989C136.721 22.5135 136.798 21.9923 136.665 21.549L135.841 18.8339C135.702 18.395 135.368 18.071 134.91 17.932C134.452 17.7929 133.908 17.8501 133.395 18.091Z" fill="#EBF2F9"/>
<path d="M128.213 23.8255L128.805 25.6855C128.845 25.8104 129.001 25.8556 129.154 25.7865L129.975 25.415C130.128 25.3459 130.219 25.1886 130.179 25.0637L129.586 23.2038C129.547 23.0789 129.391 23.0337 129.238 23.1028L128.417 23.4742C128.264 23.5434 128.173 23.7006 128.213 23.8255Z" fill="#FCFCFC"/>
<path d="M132.538 21.8998L132.497 21.929C132.588 21.8666 132.661 21.7802 132.703 21.6846C132.746 21.589 132.755 21.4902 132.73 21.4049C132.705 21.3196 132.646 21.2533 132.564 21.2172C132.483 21.1812 132.383 21.1776 132.282 21.2072L130.959 21.8414C131.093 21.4817 131.137 21.1171 131.085 20.7816C130.947 20.3184 130.581 20.1987 130.382 20.2617C130.297 20.2853 130.217 20.3374 130.157 20.4078C130.097 20.4782 130.063 20.5617 130.059 20.6417C130.047 20.8085 130.221 21.0263 130.214 21.1391C130.197 21.3133 129.97 21.6433 129.699 22.2817C129.559 22.6319 129.542 22.9885 129.65 23.2904L129.841 23.9307L130.03 24.5707L130.119 24.8678C130.128 24.8973 130.143 24.9234 130.164 24.9445C130.185 24.9655 130.211 24.9813 130.241 24.9907C130.271 25.0002 130.304 25.0032 130.339 24.9996C130.374 24.996 130.409 24.9858 130.442 24.9697L132.902 23.7923C132.942 23.7742 132.981 23.7491 133.014 23.7185C133.048 23.688 133.076 23.6526 133.098 23.6144C133.119 23.5762 133.133 23.5361 133.14 23.4964C133.146 23.4567 133.143 23.4182 133.133 23.3832C133.122 23.3482 133.104 23.3175 133.079 23.2928C133.054 23.2681 133.022 23.2499 132.986 23.2394C132.95 23.2289 132.91 23.2263 132.869 23.2316C132.828 23.237 132.786 23.2502 132.746 23.2706L132.785 23.2428C132.836 23.2214 132.884 23.1911 132.926 23.1537C132.969 23.1162 133.005 23.0725 133.032 23.0252C133.059 22.9779 133.078 22.9279 133.085 22.8784C133.093 22.8289 133.091 22.781 133.078 22.7374C133.065 22.6938 133.042 22.6556 133.01 22.6251C132.978 22.5946 132.939 22.5724 132.893 22.5599C132.848 22.5474 132.799 22.5449 132.747 22.5525C132.696 22.5601 132.644 22.5777 132.595 22.6041L132.731 22.5387C132.781 22.5173 132.829 22.4869 132.872 22.4495C132.914 22.4121 132.95 22.3684 132.978 22.3211C133.005 22.2737 133.023 22.2238 133.031 22.1743C133.039 22.1248 133.036 22.0768 133.023 22.0332C133.01 21.9897 132.987 21.9515 132.956 21.9209C132.924 21.8904 132.884 21.8683 132.839 21.8558C132.794 21.8433 132.744 21.8408 132.693 21.8484C132.641 21.856 132.59 21.8736 132.541 21.9L132.538 21.8998Z" fill="#FCFCFC"/>
<path d="M71.164 89.8358H28.8162C27.8906 89.8358 27.0029 89.4668 26.3484 88.8098C25.6939 88.1529 25.3262 87.2619 25.3262 86.3328V60.9359C25.3262 60.0068 25.6939 59.1158 26.3484 58.4589C27.0029 57.8019 27.8906 57.4329 28.8162 57.4329H71.164C72.0896 57.4329 72.9773 57.8019 73.6318 58.4589C74.2863 59.1158 74.654 60.0068 74.654 60.9359V86.3328C74.654 87.2619 74.2863 88.1529 73.6318 88.8098C72.9773 89.4668 72.0896 89.8358 71.164 89.8358ZM28.8162 57.7525C27.9812 57.7537 27.1807 58.0871 26.5903 58.6798C25.9998 59.2724 25.6676 60.0759 25.6665 60.914V86.3109C25.6676 87.149 25.9998 87.9525 26.5903 88.5451C27.1807 89.1378 27.9812 89.4712 28.8162 89.4724H71.164C71.999 89.4712 72.7995 89.1378 73.3899 88.5451C73.9804 87.9525 74.3126 87.149 74.3138 86.3109V60.914C74.3126 60.0759 73.9804 59.2724 73.3899 58.6798C72.7995 58.0871 71.999 57.7537 71.164 57.7525H28.8162Z" fill="#C4C4C4"/>
<path d="M34.5974 81.4986C34.487 81.4986 34.3778 81.4767 34.2759 81.4342C34.1739 81.3916 34.0814 81.3293 34.0036 81.2508C33.9257 81.1722 33.8641 81.0791 33.8223 80.9765C33.7804 80.874 33.7592 80.7642 33.7598 80.6535V64.8417C33.7598 64.6183 33.8479 64.404 34.0049 64.2456C34.1618 64.0873 34.3749 63.9977 34.5974 63.9966C34.8207 63.9966 35.0349 64.0856 35.1928 64.2441C35.3507 64.4026 35.4394 64.6176 35.4394 64.8417V80.6535C35.44 80.7646 35.4186 80.8748 35.3765 80.9776C35.3344 81.0804 35.2724 81.1737 35.1941 81.2523C35.1158 81.3309 35.0227 81.3932 34.9203 81.4354C34.8179 81.4777 34.7081 81.4992 34.5974 81.4986Z" fill="#E0E0E0"/>
<path d="M34.5964 81.5725C34.4861 81.5725 34.3768 81.5506 34.2749 81.5081C34.173 81.4656 34.0804 81.4033 34.0026 81.3247C33.9247 81.2462 33.8631 81.153 33.8213 81.0505C33.7795 80.948 33.7582 80.8382 33.7588 80.7274V70.5336C33.7588 70.3106 33.8471 70.0968 34.0041 69.9391C34.1612 69.7815 34.3743 69.6929 34.5964 69.6929C34.7068 69.6923 34.8162 69.7136 34.9183 69.7556C35.0204 69.7976 35.1133 69.8594 35.1915 69.9376C35.2698 70.0157 35.3319 70.1086 35.3742 70.2109C35.4166 70.3132 35.4384 70.4228 35.4384 70.5336V80.7274C35.439 80.8386 35.4176 80.9487 35.3755 81.0515C35.3334 81.1543 35.2714 81.2477 35.1931 81.3263C35.1148 81.4049 35.0217 81.4671 34.9193 81.5094C34.8169 81.5516 34.7072 81.5731 34.5964 81.5725Z" fill="#EBF2F9"/>
<path d="M34.0683 82.2349V83.6405H33.9244V82.3618H33.5972V82.2349H34.0683Z" fill="#B3B3B3"/>
<path d="M34.4053 82.9352C34.4053 82.4973 34.6365 82.2214 34.9637 82.2214C35.2909 82.2214 35.5221 82.4885 35.5221 82.9352C35.5221 83.3818 35.2865 83.6489 34.9637 83.6489C34.6409 83.6489 34.4053 83.3818 34.4053 82.9352ZM35.3738 82.9352C35.3738 82.5586 35.208 82.3528 34.9637 82.3528C34.7194 82.3528 34.5492 82.5586 34.5492 82.9352C34.5492 83.3118 34.7194 83.5176 34.9637 83.5176C35.208 83.5176 35.3738 83.3118 35.3738 82.9352Z" fill="#B3B3B3"/>
<path d="M37.9557 81.4988C37.8452 81.4988 37.7357 81.477 37.6335 81.4345C37.5314 81.392 37.4386 81.3298 37.3604 81.2513C37.2822 81.1728 37.2202 81.0797 37.1779 80.9771C37.1355 80.8746 37.1138 80.7647 37.1138 80.6537V64.8419C37.1149 64.6182 37.204 64.4039 37.3617 64.2456C37.5193 64.0874 37.7328 63.998 37.9557 63.9968C38.1783 63.998 38.3913 64.0875 38.5483 64.2459C38.7053 64.4043 38.7934 64.6186 38.7934 64.8419V80.6537C38.7939 80.7645 38.7727 80.8743 38.7309 80.9768C38.689 81.0793 38.6274 81.1725 38.5496 81.251C38.4717 81.3296 38.3792 81.3919 38.2773 81.4344C38.1754 81.4769 38.0661 81.4988 37.9557 81.4988Z" fill="#E0E0E0"/>
<path d="M37.9557 81.5729C37.7324 81.5729 37.5183 81.4839 37.3604 81.3254C37.2025 81.1669 37.1138 80.9519 37.1138 80.7278V67.3244C37.1149 67.1006 37.204 66.8863 37.3617 66.728C37.5193 66.5698 37.7328 66.4804 37.9557 66.4792C38.1783 66.4804 38.3913 66.57 38.5483 66.7283C38.7053 66.8867 38.7934 67.101 38.7934 67.3244V80.7278C38.7939 80.8386 38.7727 80.9484 38.7309 81.0509C38.689 81.1534 38.6274 81.2466 38.5496 81.3251C38.4717 81.4037 38.3792 81.466 38.2773 81.5085C38.1754 81.551 38.0661 81.5729 37.9557 81.5729Z" fill="#EBF2F9"/>
<path d="M37.7547 83.5087V83.6401H36.7731V83.535L37.3534 82.9614C37.5148 82.8081 37.5409 82.7118 37.5409 82.6155C37.5409 82.5191 37.4275 82.3527 37.2137 82.3527C37.1428 82.3492 37.072 82.3615 37.0063 82.3887C36.9407 82.416 36.8819 82.4575 36.8342 82.5104L36.7295 82.4228C36.7923 82.3542 36.8695 82.3006 36.9555 82.2657C37.0415 82.2309 37.1342 82.2157 37.2268 82.2214C37.5104 82.2214 37.6893 82.3659 37.6893 82.5979C37.6863 82.6833 37.6644 82.7669 37.6252 82.8426C37.5859 82.9184 37.5303 82.9844 37.4624 83.0358L36.9869 83.5044L37.7547 83.5087Z" fill="#B3B3B3"/>
<path d="M37.9248 82.9354C37.9248 82.4975 38.1604 82.2217 38.4832 82.2217C38.806 82.2217 39.046 82.4888 39.046 82.9354C39.046 83.3821 38.8104 83.6492 38.4832 83.6492C38.156 83.6492 37.9248 83.3821 37.9248 82.9354ZM38.8977 82.9354C38.8977 82.5588 38.7275 82.353 38.4832 82.353C38.2389 82.353 38.0731 82.5588 38.0731 82.9354C38.0731 83.312 38.2389 83.5178 38.4832 83.5178C38.7275 83.5178 38.8977 83.312 38.8977 82.9354Z" fill="#B3B3B3"/>
<path d="M41.3108 81.4988C41.2004 81.4988 41.0911 81.4769 40.9892 81.4344C40.8873 81.3919 40.7948 81.3296 40.7169 81.251C40.6391 81.1725 40.5775 81.0793 40.5357 80.9768C40.4938 80.8743 40.4726 80.7645 40.4732 80.6537V64.8419C40.4732 64.6186 40.5613 64.4043 40.7182 64.2459C40.8752 64.0875 41.0882 63.998 41.3108 63.9968C41.5341 63.9968 41.7482 64.0859 41.9061 64.2444C42.064 64.4028 42.1528 64.6178 42.1528 64.8419V80.6537C42.1533 80.7649 42.1319 80.875 42.0898 80.9778C42.0477 81.0806 41.9857 81.174 41.9074 81.2526C41.8291 81.3312 41.7361 81.3934 41.6337 81.4357C41.5312 81.4779 41.4215 81.4994 41.3108 81.4988Z" fill="#E0E0E0"/>
<path d="M41.3108 81.5738C41.2004 81.5738 41.0911 81.5519 40.9892 81.5094C40.8873 81.4669 40.7948 81.4046 40.7169 81.326C40.6391 81.2475 40.5775 81.1543 40.5357 81.0518C40.4938 80.9493 40.4726 80.8395 40.4732 80.7287V72.9389C40.4732 72.7159 40.5614 72.5021 40.7185 72.3444C40.8756 72.1867 41.0886 72.0982 41.3108 72.0982C41.4211 72.0976 41.5305 72.1189 41.6326 72.1609C41.7348 72.2029 41.8276 72.2647 41.9059 72.3428C41.9841 72.421 42.0462 72.5138 42.0886 72.6161C42.1309 72.7184 42.1528 72.8281 42.1528 72.9389V80.7244C42.1539 80.8359 42.133 80.9465 42.0911 81.0498C42.0493 81.1531 41.9874 81.247 41.909 81.3261C41.8306 81.4051 41.7374 81.4677 41.6347 81.5103C41.532 81.5528 41.4219 81.5744 41.3108 81.5738Z" fill="#EBF2F9"/>
<path d="M41.0907 83.2335C41.0907 83.4699 40.9206 83.6495 40.5847 83.6495C40.3996 83.6551 40.2191 83.5911 40.0786 83.4699L40.1484 83.3561C40.2669 83.4657 40.4237 83.524 40.5847 83.5181C40.8159 83.5181 40.9468 83.4086 40.9468 83.2335C40.9468 83.0583 40.8246 82.9576 40.5672 82.9576H40.4669V82.8481L40.8552 82.3621H40.1397V82.2351H41.0384V82.3358L40.6414 82.835C40.9424 82.8525 41.0907 83.0102 41.0907 83.2335Z" fill="#B3B3B3"/>
<path d="M41.2954 82.9354C41.2954 82.4975 41.5266 82.2217 41.8538 82.2217C42.181 82.2217 42.4122 82.4888 42.4122 82.9354C42.4122 83.3821 42.1767 83.6492 41.8538 83.6492C41.531 83.6492 41.2954 83.3821 41.2954 82.9354ZM42.2639 82.9354C42.2639 82.5588 42.0938 82.353 41.8538 82.353C41.6139 82.353 41.4394 82.5588 41.4394 82.9354C41.4394 83.312 41.6095 83.5178 41.8538 83.5178C42.0981 83.5178 42.2639 83.312 42.2639 82.9354Z" fill="#B3B3B3"/>
<path d="M44.6706 81.4988C44.56 81.4988 44.4505 81.477 44.3484 81.4345C44.2462 81.392 44.1534 81.3298 44.0752 81.2513C43.997 81.1728 43.935 81.0797 43.8927 80.9771C43.8504 80.8746 43.8286 80.7647 43.8286 80.6537V64.8419C43.8298 64.6182 43.9188 64.4039 44.0765 64.2456C44.2341 64.0874 44.4476 63.998 44.6706 63.9968C44.8931 63.998 45.1062 64.0875 45.2631 64.2459C45.4201 64.4043 45.5082 64.6186 45.5082 64.8419V80.6537C45.5088 80.7645 45.4875 80.8743 45.4457 80.9768C45.4039 81.0793 45.3423 81.1725 45.2644 81.251C45.1866 81.3296 45.0941 81.3919 44.9921 81.4344C44.8902 81.4769 44.781 81.4988 44.6706 81.4988Z" fill="#E0E0E0"/>
<path d="M44.6696 81.5729C44.4463 81.5729 44.2321 81.4839 44.0742 81.3254C43.9163 81.1669 43.8276 80.9519 43.8276 80.7278V67.3244C43.8288 67.1006 43.9179 66.8863 44.0755 66.728C44.2332 66.5698 44.4467 66.4804 44.6696 66.4792C44.8922 66.4804 45.1052 66.57 45.2622 66.7283C45.4191 66.8867 45.5072 67.101 45.5072 67.3244V80.7278C45.5078 80.8386 45.4866 80.9484 45.4447 81.0509C45.4029 81.1534 45.3413 81.2466 45.2635 81.3251C45.1856 81.4037 45.0931 81.466 44.9912 81.5085C44.8893 81.551 44.78 81.5729 44.6696 81.5729Z" fill="#EBF2F9"/>
<path d="M44.6697 83.2685H44.3862V83.6407H44.2335V83.2685H43.4438V83.1634L44.1855 82.2351H44.3469L43.6314 83.1415H44.2378V82.8175H44.3774V83.1415H44.6697V83.2685Z" fill="#B3B3B3"/>
<path d="M44.8096 82.9354C44.8096 82.4975 45.0408 82.2217 45.368 82.2217C45.6952 82.2217 45.9264 82.4888 45.9264 82.9354C45.9264 83.3821 45.6908 83.6492 45.368 83.6492C45.0451 83.6492 44.8096 83.3821 44.8096 82.9354ZM45.7781 82.9354C45.7781 82.5588 45.6079 82.353 45.368 82.353C45.128 82.353 44.9317 82.5588 44.9317 82.9354C44.9317 83.312 45.1019 83.5178 45.368 83.5178C45.6341 83.5178 45.7781 83.312 45.7781 82.9354Z" fill="#B3B3B3"/>
<path d="M48.0246 81.4988C47.9143 81.4988 47.805 81.4769 47.7031 81.4344C47.6012 81.3919 47.5086 81.3296 47.4308 81.251C47.353 81.1725 47.2914 81.0793 47.2495 80.9768C47.2077 80.8743 47.1864 80.7645 47.187 80.6537V64.8419C47.187 64.6186 47.2751 64.4043 47.4321 64.2459C47.5891 64.0875 47.8021 63.998 48.0246 63.9968C48.248 63.9968 48.4621 64.0859 48.62 64.2444C48.7779 64.4028 48.8666 64.6178 48.8666 64.8419V80.6537C48.8672 80.7649 48.8458 80.875 48.8037 80.9778C48.7616 81.0806 48.6996 81.174 48.6213 81.2526C48.543 81.3312 48.45 81.3934 48.3475 81.4357C48.2451 81.4779 48.1354 81.4994 48.0246 81.4988Z" fill="#E0E0E0"/>
<path d="M48.0232 81.5726C47.9128 81.5726 47.8035 81.5507 47.7016 81.5082C47.5997 81.4656 47.5072 81.4033 47.4293 81.3248C47.3515 81.2463 47.2899 81.1531 47.2481 81.0506C47.2062 80.948 47.185 80.8382 47.1856 80.7275V69.8725C47.1856 69.6495 47.2738 69.4357 47.4309 69.278C47.588 69.1203 47.801 69.0317 48.0232 69.0317C48.1335 69.0312 48.2429 69.0525 48.3451 69.0945C48.4472 69.1365 48.54 69.1983 48.6183 69.2764C48.6965 69.3546 48.7586 69.4474 48.801 69.5497C48.8434 69.652 48.8652 69.7617 48.8652 69.8725V80.71C48.8681 80.8226 48.8484 80.9346 48.8074 81.0394C48.7663 81.1443 48.7047 81.2398 48.6262 81.3202C48.5476 81.4007 48.4538 81.4645 48.3502 81.5078C48.2466 81.5512 48.1354 81.5732 48.0232 81.5726Z" fill="#EBF2F9"/>
<path d="M47.9516 83.225C47.9516 83.4658 47.7858 83.6629 47.4455 83.6629C47.2617 83.6687 47.0825 83.6046 46.9438 83.4834L47.0137 83.3695C47.0716 83.4248 47.1402 83.4677 47.2152 83.4956C47.2902 83.5234 47.37 83.5357 47.4499 83.5315C47.6899 83.5315 47.8164 83.4133 47.8164 83.2425C47.8164 83.0717 47.7029 82.9535 47.3496 82.9535H47.0486L47.1227 82.2485H47.8862V82.3755H47.2492L47.2012 82.8134H47.3801C47.7946 82.809 47.9516 82.9754 47.9516 83.225Z" fill="#B3B3B3"/>
<path d="M48.1348 82.9354C48.1348 82.4975 48.3703 82.2217 48.6932 82.2217C49.016 82.2217 49.2516 82.4888 49.2516 82.9354C49.2516 83.3821 49.016 83.6492 48.6932 83.6492C48.3703 83.6492 48.1348 83.3821 48.1348 82.9354ZM49.1033 82.9354C49.1033 82.5588 48.9375 82.353 48.6932 82.353C48.4489 82.353 48.2569 82.5588 48.2569 82.9354C48.2569 83.312 48.4271 83.5178 48.6932 83.5178C48.9593 83.5178 49.1033 83.312 49.1033 82.9354Z" fill="#B3B3B3"/>
<path d="M51.3859 81.4988C51.2754 81.4988 51.1659 81.477 51.0637 81.4345C50.9616 81.392 50.8688 81.3298 50.7906 81.2513C50.7124 81.1728 50.6504 81.0797 50.608 80.9771C50.5657 80.8746 50.5439 80.7647 50.5439 80.6537V64.8419C50.5451 64.6182 50.6342 64.4039 50.7918 64.2456C50.9495 64.0874 51.163 63.998 51.3859 63.9968C51.6085 63.998 51.8215 64.0875 51.9785 64.2459C52.1354 64.4043 52.2236 64.6186 52.2235 64.8419V80.6537C52.2241 80.7645 52.2029 80.8743 52.161 80.9768C52.1192 81.0793 52.0576 81.1725 51.9798 81.251C51.9019 81.3296 51.8094 81.3919 51.7075 81.4344C51.6056 81.4769 51.4963 81.4988 51.3859 81.4988Z" fill="#E0E0E0"/>
<path d="M51.3844 81.4989C51.1725 81.5028 50.9671 81.4251 50.8105 81.2818C50.6539 81.1385 50.558 80.9404 50.5424 80.7282V72.9384C50.5371 72.8226 50.5548 72.707 50.5944 72.5981C50.634 72.4893 50.6947 72.3894 50.773 72.3043C50.8513 72.2192 50.9457 72.1505 51.0506 72.1023C51.1556 72.054 51.269 72.0271 51.3844 72.0232C51.6066 72.0232 51.8196 72.1118 51.9767 72.2694C52.1338 72.4271 52.222 72.6409 52.222 72.8639V80.6494C52.2232 80.7605 52.2023 80.8708 52.1608 80.9738C52.1192 81.0768 52.0577 81.1705 51.9798 81.2495C51.9019 81.3285 51.8092 81.3913 51.707 81.4341C51.6048 81.4768 51.4951 81.4989 51.3844 81.4989Z" fill="#EBF2F9"/>
<path d="M51.275 83.2212C51.2753 83.2825 51.2627 83.3433 51.2381 83.3995C51.2135 83.4557 51.1774 83.5061 51.1322 83.5474C51.0869 83.5886 51.0335 83.6199 50.9755 83.6392C50.9174 83.6584 50.856 83.6652 50.7951 83.659C50.4243 83.659 50.2192 83.4007 50.2192 82.9584C50.2192 82.5162 50.481 82.2316 50.8605 82.2316C50.9757 82.2266 51.09 82.2523 51.1921 82.306L51.1354 82.4242C51.0537 82.376 50.9596 82.3531 50.8649 82.3585C50.5595 82.3585 50.3676 82.5512 50.3676 82.9322C50.3655 82.9701 50.3655 83.0081 50.3676 83.046C50.4071 82.966 50.4701 82.9 50.5481 82.857C50.6261 82.8139 50.7153 82.7959 50.8038 82.8052C50.8622 82.8004 50.9209 82.8075 50.9765 82.826C51.0321 82.8445 51.0834 82.874 51.1273 82.9128C51.1713 82.9516 51.207 82.9989 51.2324 83.0519C51.2578 83.1049 51.2723 83.1624 51.275 83.2212ZM51.131 83.2212C51.131 83.0329 50.9958 82.9146 50.7776 82.9146C50.7335 82.9098 50.6888 82.9141 50.6464 82.9274C50.604 82.9407 50.5648 82.9626 50.5312 82.9918C50.4977 83.021 50.4704 83.0568 50.4513 83.097C50.4321 83.1372 50.4215 83.181 50.4199 83.2255C50.4199 83.3788 50.5464 83.5233 50.7907 83.5233C50.8329 83.5282 50.8757 83.5242 50.9163 83.5115C50.9569 83.4989 50.9944 83.4779 51.0264 83.4498C51.0584 83.4218 51.0843 83.3874 51.1023 83.3488C51.1203 83.3101 51.1301 83.2682 51.131 83.2255V83.2212Z" fill="#B3B3B3"/>
<path d="M51.4404 82.9354C51.4404 82.4975 51.6716 82.2217 51.9988 82.2217C52.326 82.2217 52.5573 82.4888 52.5573 82.9354C52.5573 83.3821 52.3217 83.6492 51.9988 83.6492C51.676 83.6492 51.4404 83.3821 51.4404 82.9354ZM52.4089 82.9354C52.4089 82.5588 52.2388 82.353 51.9988 82.353C51.7589 82.353 51.5844 82.5588 51.5844 82.9354C51.5844 83.312 51.7545 83.5178 51.9988 83.5178C52.2431 83.5178 52.4089 83.312 52.4089 82.9354Z" fill="#B3B3B3"/>
<path d="M54.7414 81.4988C54.6311 81.4988 54.5218 81.4769 54.4199 81.4344C54.318 81.3919 54.2254 81.3296 54.1476 81.251C54.0698 81.1725 54.0082 81.0793 53.9663 80.9768C53.9245 80.8743 53.9032 80.7645 53.9038 80.6537V64.8419C53.9038 64.6186 53.9919 64.4043 54.1489 64.2459C54.3058 64.0875 54.5189 63.998 54.7414 63.9968C54.964 63.998 55.177 64.0875 55.334 64.2459C55.491 64.4043 55.5791 64.6186 55.5791 64.8419V80.6537C55.5796 80.7645 55.5584 80.8743 55.5165 80.9768C55.4747 81.0793 55.4131 81.1725 55.3353 81.251C55.2574 81.3296 55.1649 81.3919 55.063 81.4344C54.9611 81.4769 54.8518 81.4988 54.7414 81.4988Z" fill="#E0E0E0"/>
<path d="M54.74 81.5739C54.6296 81.5739 54.5203 81.552 54.4184 81.5095C54.3165 81.467 54.224 81.4047 54.1461 81.3261C54.0683 81.2476 54.0067 81.1544 53.9649 81.0519C53.923 80.9494 53.9018 80.8396 53.9024 80.7288V66.5241C53.9018 66.4133 53.923 66.3035 53.9649 66.201C54.0067 66.0985 54.0683 66.0053 54.1461 65.9267C54.224 65.8482 54.3165 65.7859 54.4184 65.7434C54.5203 65.7008 54.6296 65.679 54.74 65.679C54.8503 65.679 54.9596 65.7008 55.0615 65.7434C55.1634 65.7859 55.256 65.8482 55.3338 65.9267C55.4116 66.0053 55.4732 66.0985 55.5151 66.201C55.5569 66.3035 55.5782 66.4133 55.5776 66.5241V80.7288C55.5782 80.8396 55.5569 80.9494 55.5151 81.0519C55.4732 81.1544 55.4116 81.2476 55.3338 81.3261C55.256 81.4047 55.1634 81.467 55.0615 81.5095C54.9596 81.552 54.8503 81.5739 54.74 81.5739Z" fill="#EBF2F9"/>
<path d="M54.5605 82.2351V82.3358L53.9759 83.6495H53.8319L54.4078 82.3708H53.6879V82.6336H53.5483V82.2439L54.5605 82.2351Z" fill="#B3B3B3"/>
<path d="M54.7036 82.9354C54.7036 82.4975 54.9348 82.2217 55.262 82.2217C55.5892 82.2217 55.8204 82.4888 55.8204 82.9354C55.8204 83.3821 55.5849 83.6492 55.262 83.6492C54.9392 83.6492 54.7036 83.3821 54.7036 82.9354ZM55.6721 82.9354C55.6721 82.5588 55.5063 82.353 55.262 82.353C55.0177 82.353 54.8476 82.5588 54.8476 82.9354C54.8476 83.312 55.0177 83.5178 55.262 83.5178C55.5063 83.5178 55.6808 83.312 55.6808 82.9354H55.6721Z" fill="#B3B3B3"/>
<path d="M58.0988 81.4988C57.9882 81.4988 57.8788 81.477 57.7766 81.4345C57.6744 81.392 57.5816 81.3298 57.5034 81.2513C57.4253 81.1728 57.3632 81.0797 57.3209 80.9771C57.2786 80.8746 57.2568 80.7647 57.2568 80.6537V64.8419C57.258 64.6182 57.3471 64.4039 57.5047 64.2456C57.6624 64.0874 57.8759 63.998 58.0988 63.9968C58.3214 63.998 58.5344 64.0875 58.6914 64.2459C58.8483 64.4043 58.9364 64.6186 58.9364 64.8419V80.6537C58.937 80.7645 58.9158 80.8743 58.8739 80.9768C58.8321 81.0793 58.7705 81.1725 58.6927 81.251C58.6148 81.3296 58.5223 81.3919 58.4204 81.4344C58.3185 81.4769 58.2092 81.4988 58.0988 81.4988Z" fill="#E0E0E0"/>
<path d="M58.0983 81.5733C57.875 81.5733 57.6609 81.4842 57.503 81.3257C57.3451 81.1672 57.2563 80.9523 57.2563 80.7282V74.5497C57.2563 74.4387 57.2781 74.3288 57.3204 74.2263C57.3628 74.1238 57.4248 74.0306 57.503 73.9521C57.5811 73.8736 57.674 73.8114 57.7761 73.7689C57.8783 73.7264 57.9878 73.7046 58.0983 73.7046C58.2087 73.7046 58.318 73.7265 58.4199 73.769C58.5218 73.8115 58.6143 73.8738 58.6922 73.9524C58.77 74.0309 58.8316 74.1241 58.8734 74.2266C58.9153 74.3291 58.9365 74.4389 58.9359 74.5497V80.7282C58.9365 80.8389 58.9153 80.9487 58.8734 81.0512C58.8316 81.1537 58.77 81.2469 58.6922 81.3255C58.6143 81.404 58.5218 81.4663 58.4199 81.5088C58.318 81.5514 58.2087 81.5733 58.0983 81.5733Z" fill="#EBF2F9"/>
<path d="M57.9315 83.2461C57.9315 83.4957 57.7221 83.6489 57.3862 83.6489C57.0503 83.6489 56.8452 83.4957 56.8452 83.2461C56.845 83.1663 56.8715 83.0887 56.9206 83.026C56.9697 82.9632 57.0384 82.9189 57.1157 82.9001C57.0509 82.8801 56.9945 82.8392 56.9551 82.7838C56.9157 82.7285 56.8955 82.6616 56.8976 82.5936C56.8976 82.3616 57.0895 82.2214 57.3862 82.2214C57.6828 82.2214 57.8791 82.3616 57.8791 82.5936C57.8802 82.662 57.8591 82.7289 57.819 82.7842C57.7788 82.8395 57.7218 82.8802 57.6567 82.9001C57.7344 82.9187 57.8037 82.9629 57.8535 83.0256C57.9033 83.0883 57.9307 83.1659 57.9315 83.2461ZM57.7832 83.2461C57.7832 83.0709 57.6348 82.9615 57.3862 82.9615C57.1375 82.9615 56.9935 83.0709 56.9935 83.2461C56.9935 83.4212 57.1375 83.5263 57.3862 83.5263C57.6348 83.5263 57.7832 83.4212 57.7832 83.2461ZM57.3862 82.8476C57.6043 82.8476 57.7352 82.7513 57.7352 82.598C57.7352 82.4448 57.5956 82.344 57.3862 82.344C57.1768 82.344 57.0415 82.4404 57.0415 82.598C57.0415 82.7556 57.168 82.8476 57.3862 82.8476Z" fill="#B3B3B3"/>
<path d="M58.126 82.9349C58.126 82.4971 58.3616 82.2212 58.6844 82.2212C59.0072 82.2212 59.2472 82.4883 59.2472 82.9349C59.2472 83.3816 59.0116 83.6487 58.6844 83.6487C58.3572 83.6487 58.126 83.3816 58.126 82.9349ZM59.0988 82.9349C59.0988 82.5584 58.9287 82.3526 58.6844 82.3526C58.4401 82.3526 58.2743 82.5584 58.2743 82.9349C58.2743 83.3115 58.4401 83.5173 58.6844 83.5173C58.9287 83.5173 59.0988 83.3115 59.0988 82.9349Z" fill="#B3B3B3"/>
<path d="M61.4543 81.4988C61.344 81.4988 61.2347 81.4769 61.1328 81.4344C61.0309 81.3919 60.9383 81.3296 60.8605 81.251C60.7827 81.1725 60.7211 81.0793 60.6792 80.9768C60.6374 80.8743 60.6161 80.7645 60.6167 80.6537V64.8419C60.6167 64.6186 60.7048 64.4043 60.8618 64.2459C61.0187 64.0875 61.2318 63.998 61.4543 63.9968C61.6776 63.9968 61.8918 64.0859 62.0497 64.2444C62.2076 64.4028 62.2963 64.6178 62.2963 64.8419V80.6537C62.2969 80.7649 62.2755 80.875 62.2334 80.9778C62.1913 81.0806 62.1293 81.174 62.051 81.2526C61.9727 81.3312 61.8796 81.3934 61.7772 81.4357C61.6748 81.4779 61.5651 81.4994 61.4543 81.4988Z" fill="#E0E0E0"/>
<path d="M61.4528 81.499C61.2413 81.5029 61.0365 81.4251 60.8806 81.2816C60.7247 81.1382 60.6297 80.9401 60.6152 80.7283V78.539C60.6099 78.4236 60.6274 78.3083 60.6667 78.1997C60.7061 78.0912 60.7664 77.9915 60.8442 77.9064C60.9221 77.8214 61.0159 77.7526 61.1204 77.7041C61.2248 77.6556 61.3378 77.6283 61.4528 77.6238C61.5632 77.6232 61.6725 77.6445 61.7747 77.6865C61.8768 77.7285 61.9697 77.7904 62.0479 77.8685C62.1261 77.9466 62.1882 78.0395 62.2306 78.1418C62.273 78.2441 62.2948 78.3537 62.2948 78.4645V80.6539C62.2954 80.7651 62.274 80.8752 62.2319 80.978C62.1898 81.0808 62.1278 81.1742 62.0495 81.2528C61.9712 81.3314 61.8781 81.3936 61.7757 81.4359C61.6733 81.4781 61.5635 81.4996 61.4528 81.499Z" fill="#EBF2F9"/>
<path d="M61.2051 82.9224C61.2051 83.3997 60.9434 83.6493 60.5638 83.6493C60.4487 83.6542 60.3343 83.6286 60.2323 83.5749L60.289 83.4567C60.3707 83.5049 60.4648 83.5277 60.5595 83.5223C60.8649 83.5223 61.0568 83.3297 61.0568 82.9487C61.0589 82.9108 61.0589 82.8728 61.0568 82.8349C61.0172 82.9149 60.9543 82.9808 60.8763 83.0239C60.7983 83.0669 60.7091 83.085 60.6205 83.0757C60.56 83.0812 60.4991 83.0739 60.4415 83.0544C60.384 83.0349 60.3311 83.0035 60.2864 82.9623C60.2416 82.921 60.2059 82.8709 60.1816 82.815C60.1572 82.7592 60.1448 82.6988 60.145 82.6378C60.1447 82.5764 60.1573 82.5157 60.1819 82.4595C60.2065 82.4033 60.2426 82.3529 60.2878 82.3116C60.3331 82.2703 60.3865 82.2391 60.4445 82.2198C60.5026 82.2006 60.5641 82.1938 60.6249 82.1999C61.0001 82.2218 61.2051 82.4802 61.2051 82.9224ZM61.0045 82.6466C61.0045 82.4889 60.8779 82.3444 60.6336 82.3444C60.5911 82.3395 60.5479 82.3437 60.5071 82.3566C60.4662 82.3695 60.4285 82.3909 60.3964 82.4194C60.3643 82.4479 60.3385 82.4828 60.3208 82.522C60.303 82.5611 60.2937 82.6036 60.2934 82.6466C60.2934 82.8349 60.4286 82.9531 60.6467 82.9531C60.6905 82.9579 60.7348 82.9537 60.777 82.9407C60.8191 82.9277 60.8581 82.9062 60.8916 82.8775C60.9251 82.8487 60.9524 82.8134 60.9718 82.7737C60.9912 82.734 61.0023 82.6908 61.0045 82.6466Z" fill="#B3B3B3"/>
<path d="M61.4087 82.9357C61.4087 82.4978 61.6443 82.2219 61.9671 82.2219C62.2899 82.2219 62.5255 82.489 62.5255 82.9357C62.5255 83.3823 62.2899 83.6494 61.9671 83.6494C61.6443 83.6494 61.4087 83.3823 61.4087 82.9357ZM62.3772 82.9357C62.3772 82.5591 62.2114 82.3533 61.9671 82.3533C61.7228 82.3533 61.5527 82.5591 61.5527 82.9357C61.5527 83.3122 61.7228 83.518 61.9671 83.518C62.2114 83.518 62.3772 83.3122 62.3772 82.9357Z" fill="#B3B3B3"/>
<path d="M64.8137 81.4988C64.7031 81.4988 64.5936 81.477 64.4915 81.4345C64.3893 81.392 64.2965 81.3298 64.2183 81.2513C64.1401 81.1728 64.0781 81.0797 64.0358 80.9771C63.9935 80.8746 63.9717 80.7647 63.9717 80.6537V64.8419C63.9728 64.6182 64.0619 64.4039 64.2196 64.2456C64.3772 64.0874 64.5907 63.998 64.8137 63.9968C65.0362 63.998 65.2493 64.0875 65.4062 64.2459C65.5632 64.4043 65.6513 64.6186 65.6513 64.8419V80.6537C65.6519 80.7645 65.6306 80.8743 65.5888 80.9768C65.5469 81.0793 65.4853 81.1725 65.4075 81.251C65.3297 81.3296 65.2371 81.3919 65.1352 81.4344C65.0333 81.4769 64.924 81.4988 64.8137 81.4988Z" fill="#E0E0E0"/>
<path d="M64.8136 81.4984C64.6017 81.5023 64.3963 81.4246 64.2397 81.2813C64.0831 81.138 63.9872 80.9399 63.9716 80.7277V72.9379C63.9663 72.8221 63.984 72.7065 64.0236 72.5977C64.0632 72.4888 64.1239 72.3889 64.2022 72.3038C64.2805 72.2187 64.3749 72.15 64.4798 72.1018C64.5848 72.0535 64.6982 72.0266 64.8136 72.0227C65.0358 72.0227 65.2488 72.1113 65.4059 72.2689C65.563 72.4266 65.6512 72.6405 65.6512 72.8634V80.6489C65.6524 80.76 65.6315 80.8703 65.59 80.9733C65.5484 81.0763 65.4869 81.1701 65.409 81.2491C65.3311 81.3281 65.2384 81.3908 65.1362 81.4336C65.034 81.4764 64.9243 81.4984 64.8136 81.4984Z" fill="#EBF2F9"/>
<path d="M63.6093 82.2351V83.6407H63.4653V82.3621H63.1338V82.2351H63.6093Z" fill="#B3B3B3"/>
<path d="M63.9463 82.9354C63.9463 82.4975 64.1775 82.2217 64.5047 82.2217C64.8319 82.2217 65.0631 82.4888 65.0631 82.9354C65.0631 83.3821 64.8275 83.6492 64.5047 83.6492C64.1819 83.6492 63.9463 83.3821 63.9463 82.9354ZM64.9148 82.9354C64.9148 82.5588 64.749 82.353 64.5047 82.353C64.2604 82.353 64.0903 82.5588 64.0903 82.9354C64.0903 83.312 64.2604 83.5178 64.5047 83.5178C64.749 83.5178 64.9148 83.312 64.9148 82.9354Z" fill="#B3B3B3"/>
<path d="M65.2666 82.9354C65.2666 82.4975 65.5022 82.2217 65.825 82.2217C66.1478 82.2217 66.3834 82.4888 66.3834 82.9354C66.3834 83.3821 66.1478 83.6492 65.825 83.6492C65.5022 83.6492 65.2666 83.3821 65.2666 82.9354ZM66.2351 82.9354C66.2351 82.5588 66.0693 82.353 65.825 82.353C65.5807 82.353 65.4106 82.5588 65.4106 82.9354C65.4106 83.312 65.5807 83.5178 65.825 83.5178C66.0693 83.5178 66.2351 83.312 66.2351 82.9354Z" fill="#B3B3B3"/>
<path d="M41.4599 97.5895C41.269 97.8639 41.0021 98.0697 40.6591 98.2069C40.3186 98.3415 39.9214 98.4088 39.4675 98.4088C39.0084 98.4088 38.6009 98.3014 38.245 98.0865C37.889 97.8691 37.6131 97.561 37.417 97.1623C37.2236 96.7637 37.1243 96.3016 37.1191 95.7761V95.2829C37.1191 94.4312 37.3164 93.7711 37.7111 93.3025C38.1083 92.834 38.6654 92.5997 39.3824 92.5997C39.9704 92.5997 40.4437 92.7511 40.8022 93.054C41.1607 93.3543 41.3799 93.7814 41.4599 94.3354H40.7171C40.5778 93.5873 40.1342 93.2132 39.3862 93.2132C38.8885 93.2132 38.5106 93.3893 38.2527 93.7413C37.9973 94.0908 37.8684 94.5982 37.8658 95.2635V95.7256C37.8658 96.3598 38.0102 96.8646 38.2991 97.24C38.588 97.6128 38.9787 97.7992 39.4713 97.7992C39.7499 97.7992 39.9936 97.7681 40.2025 97.706C40.4115 97.6439 40.5843 97.539 40.721 97.3915V96.1217H39.4172V95.5159H41.4599V97.5895Z" fill="#E0E0E0"/>
<path d="M42.7962 96.1916C42.7962 95.78 42.8761 95.4098 43.036 95.081C43.1985 94.7522 43.4229 94.4985 43.7092 94.3199C43.9981 94.1413 44.3269 94.052 44.6957 94.052C45.2657 94.052 45.7261 94.25 46.0769 94.6461C46.4302 95.0422 46.6069 95.569 46.6069 96.2265V96.277C46.6069 96.686 46.5282 97.0536 46.3709 97.3798C46.2162 97.7034 45.9931 97.9558 45.7016 98.137C45.4127 98.3182 45.08 98.4088 44.7035 98.4088C44.136 98.4088 43.6757 98.2108 43.3223 97.8147C42.9715 97.4186 42.7962 96.8944 42.7962 96.242V96.1916ZM43.5158 96.277C43.5158 96.743 43.6228 97.117 43.8369 97.3992C44.0535 97.6814 44.3424 97.8225 44.7035 97.8225C45.0671 97.8225 45.356 97.6801 45.5701 97.3953C45.7841 97.108 45.8912 96.7067 45.8912 96.1916C45.8912 95.7308 45.7816 95.358 45.5623 95.0732C45.3457 94.7859 45.0568 94.6422 44.6957 94.6422C44.3424 94.6422 44.0574 94.7833 43.8407 95.0655C43.6241 95.3476 43.5158 95.7515 43.5158 96.277Z" fill="#E0E0E0"/>
<path d="M47.711 96.1916C47.711 95.78 47.791 95.4098 47.9509 95.081C48.1134 94.7522 48.3378 94.4985 48.6241 94.3199C48.9129 94.1413 49.2418 94.052 49.6106 94.052C50.1806 94.052 50.641 94.25 50.9918 94.6461C51.3451 95.0422 51.5218 95.569 51.5218 96.2265V96.277C51.5218 96.686 51.4431 97.0536 51.2858 97.3798C51.131 97.7034 50.9079 97.9558 50.6165 98.137C50.3276 98.3182 49.9949 98.4088 49.6183 98.4088C49.0509 98.4088 48.5905 98.2108 48.2372 97.8147C47.8864 97.4186 47.711 96.8944 47.711 96.242V96.1916ZM48.4306 96.277C48.4306 96.743 48.5377 97.117 48.7517 97.3992C48.9684 97.6814 49.2573 97.8225 49.6183 97.8225C49.982 97.8225 50.2709 97.6801 50.4849 97.3953C50.699 97.108 50.8061 96.7067 50.8061 96.1916C50.8061 95.7308 50.6964 95.358 50.4772 95.0732C50.2606 94.7859 49.9717 94.6422 49.6106 94.6422C49.2573 94.6422 48.9723 94.7833 48.7556 95.0655C48.539 95.3476 48.4306 95.7515 48.4306 96.277Z" fill="#E0E0E0"/>
<path d="M52.6453 96.1955C52.6453 95.5405 52.7961 95.0202 53.0979 94.6344C53.3997 94.2461 53.7994 94.052 54.2972 94.052C54.8079 94.052 55.2064 94.2332 55.4927 94.5956L55.5275 94.1296H56.1813V98.2302C56.1813 98.7738 56.0201 99.2023 55.6977 99.5155C55.3779 99.8288 54.9472 99.9854 54.4055 99.9854C54.1038 99.9854 53.8085 99.9207 53.5196 99.7912C53.2307 99.6618 53.0102 99.4845 52.858 99.2592L53.2294 98.8282C53.5364 99.2087 53.9116 99.399 54.3553 99.399C54.7034 99.399 54.9743 99.3007 55.1677 99.1039C55.3637 98.9072 55.4617 98.6302 55.4617 98.2729V97.9118C55.1754 98.2431 54.7847 98.4088 54.2895 98.4088C53.7994 98.4088 53.4023 98.2108 53.0979 97.8147C52.7961 97.4186 52.6453 96.8789 52.6453 96.1955ZM53.3649 96.277C53.3649 96.7507 53.4616 97.1235 53.655 97.3953C53.8484 97.6646 54.1193 97.7992 54.4674 97.7992C54.9188 97.7992 55.2502 97.5934 55.4617 97.1818V95.2635C55.2425 94.8622 54.9136 94.6616 54.4752 94.6616C54.127 94.6616 53.8549 94.7975 53.6589 95.0693C53.4629 95.3412 53.3649 95.7437 53.3649 96.277Z" fill="#E0E0E0"/>
<path d="M58.4383 98.3312H57.7226V92.3667H58.4383V98.3312Z" fill="#E0E0E0"/>
<path d="M61.7206 98.4088C61.1532 98.4088 60.6915 98.2224 60.3356 97.8497C59.9797 97.4743 59.8017 96.9734 59.8017 96.3469V96.2149C59.8017 95.7981 59.8804 95.4266 60.0377 95.1004C60.1976 94.7716 60.4194 94.5154 60.7031 94.3316C60.9894 94.1452 61.2989 94.052 61.6316 94.052C62.1758 94.052 62.5988 94.2319 62.9006 94.5917C63.2023 94.9516 63.3532 95.4667 63.3532 96.1372V96.4362H60.5174C60.5277 96.8504 60.6477 97.1856 60.8772 97.4419C61.1093 97.6956 61.4034 97.8225 61.7593 97.8225C62.0121 97.8225 62.2261 97.7707 62.4015 97.6672C62.5769 97.5636 62.7304 97.4264 62.8619 97.2555L63.2991 97.5973C62.9483 98.1383 62.4221 98.4088 61.7206 98.4088ZM61.6316 94.6422C61.3428 94.6422 61.1003 94.7483 60.9043 94.9606C60.7083 95.1703 60.5871 95.4654 60.5406 95.846H62.6375V95.7916C62.6169 95.4266 62.5189 95.1444 62.3435 94.9451C62.1681 94.7432 61.9308 94.6422 61.6316 94.6422Z" fill="#E0E0E0"/>
<path d="M307.715 95.0469H306.045V100.656H307.715V95.0469Z" fill="#E0E0E0"/>
<path d="M293.782 94.2366H292.112V100.656H293.782V94.2366Z" fill="#E0E0E0"/>
<path d="M297.266 92.8955H295.596V100.656H297.266V92.8955Z" fill="#E0E0E0"/>
<path d="M300.748 93.3242H299.078V100.66H300.748V93.3242Z" fill="#E0E0E0"/>
<path d="M304.231 90.8425H302.562V100.657H304.231V90.8425Z" fill="#E0E0E0"/>
<path d="M311.199 90.8896H309.529V100.657H311.199V90.8896Z" fill="#E0E0E0"/>
<path d="M314.681 94.0967H313.011V100.656H314.681V94.0967Z" fill="#E0E0E0"/>
<path d="M318.165 91.3213H316.495V100.66H318.165V91.3213Z" fill="#E0E0E0"/>
<path d="M321.649 89.217H319.979V100.656H321.649V89.217Z" fill="#E0E0E0"/>
<path d="M325.133 91.2712H323.463V100.657H325.133V91.2712Z" fill="#E0E0E0"/>
<path d="M328.619 107.615H287.584C286.687 107.615 285.827 107.257 285.193 106.621C284.558 105.984 284.202 105.121 284.202 104.22V79.611C284.202 78.7107 284.558 77.8473 285.193 77.2108C285.827 76.5742 286.687 76.2166 287.584 76.2166H328.619C329.516 76.2166 330.376 76.5742 331.01 77.2108C331.644 77.8473 332 78.7107 332 79.611V104.22C332 105.121 331.644 105.984 331.01 106.621C330.376 107.257 329.516 107.615 328.619 107.615ZM287.584 76.5263C286.775 76.5274 285.999 76.8505 285.427 77.4248C284.855 77.9991 284.533 78.7776 284.532 79.5897V104.199C284.533 105.011 284.855 105.79 285.427 106.364C285.999 106.938 286.775 107.261 287.584 107.263H328.619C329.02 107.265 329.418 107.188 329.79 107.036C330.161 106.884 330.499 106.659 330.785 106.376C331.07 106.093 331.297 105.756 331.453 105.385C331.608 105.013 331.69 104.615 331.692 104.212V79.6025C331.691 78.7903 331.369 78.0118 330.797 77.4375C330.225 76.8633 329.449 76.5401 328.64 76.539L287.584 76.5263Z" fill="#EBF2F9"/>
<path d="M310.944 84.3756C310.944 84.4221 306.197 84.4644 300.342 84.4644C294.488 84.4644 289.74 84.4221 289.74 84.3756C289.74 84.3291 294.488 84.2869 300.342 84.2869C306.197 84.2869 310.944 84.3122 310.944 84.3756Z" fill="#EBF2F9"/>
<path d="M296.921 113.12L298.346 110.369H299.163L297.281 113.804V115.848H296.562V113.804L294.68 110.369H295.504L296.921 113.12Z" fill="#E0E0E0"/>
<path d="M302.37 115.848C302.33 115.767 302.298 115.624 302.273 115.419C301.95 115.755 301.565 115.923 301.118 115.923C300.718 115.923 300.389 115.81 300.132 115.584C299.877 115.356 299.75 115.068 299.75 114.719C299.75 114.295 299.91 113.966 300.229 113.733C300.552 113.497 301.004 113.379 301.586 113.379H302.261V113.059C302.261 112.816 302.189 112.623 302.044 112.48C301.899 112.335 301.685 112.262 301.403 112.262C301.155 112.262 300.948 112.324 300.78 112.45C300.613 112.575 300.529 112.727 300.529 112.905H299.832C299.832 112.702 299.903 112.506 300.046 112.318C300.191 112.128 300.386 111.977 300.631 111.867C300.878 111.756 301.149 111.701 301.444 111.701C301.911 111.701 302.278 111.819 302.542 112.055C302.807 112.288 302.945 112.61 302.955 113.022V114.896C302.955 115.269 303.002 115.567 303.097 115.787V115.848H302.37ZM301.219 115.317C301.437 115.317 301.643 115.261 301.838 115.148C302.033 115.035 302.174 114.888 302.261 114.708V113.872H301.718C300.868 113.872 300.443 114.122 300.443 114.621C300.443 114.839 300.516 115.01 300.661 115.133C300.805 115.256 300.992 115.317 301.219 115.317Z" fill="#E0E0E0"/>
<path d="M305.082 111.776L305.104 112.288C305.414 111.897 305.819 111.701 306.319 111.701C307.176 111.701 307.609 112.187 307.616 113.157V115.848H306.923V113.154C306.92 112.86 306.853 112.643 306.72 112.503C306.59 112.362 306.386 112.292 306.109 112.292C305.884 112.292 305.687 112.352 305.517 112.472C305.347 112.593 305.214 112.751 305.119 112.947V115.848H304.426V111.776H305.082Z" fill="#E0E0E0"/>
<path d="M308.877 113.778C308.877 113.154 309.025 112.652 309.32 112.273C309.614 111.892 310.001 111.701 310.478 111.701C310.953 111.701 311.329 111.864 311.606 112.19V110.068H312.3V115.848H311.663L311.629 115.411C311.351 115.752 310.965 115.923 310.47 115.923C310.001 115.923 309.617 115.73 309.32 115.343C309.025 114.957 308.877 114.453 308.877 113.831V113.778ZM309.571 113.857C309.571 114.319 309.666 114.68 309.856 114.941C310.046 115.202 310.308 115.332 310.643 115.332C311.083 115.332 311.404 115.134 311.606 114.738V112.868C311.399 112.484 311.08 112.292 310.65 112.292C310.31 112.292 310.046 112.424 309.856 112.687C309.666 112.95 309.571 113.34 309.571 113.857Z" fill="#E0E0E0"/>
<path d="M315.447 115.923C314.897 115.923 314.449 115.742 314.104 115.381C313.76 115.017 313.587 114.532 313.587 113.925V113.797C313.587 113.393 313.663 113.033 313.816 112.717C313.971 112.398 314.186 112.15 314.461 111.972C314.738 111.791 315.038 111.701 315.36 111.701C315.888 111.701 316.298 111.875 316.59 112.224C316.882 112.573 317.029 113.072 317.029 113.722V114.011H314.281C314.291 114.413 314.407 114.738 314.629 114.986C314.854 115.232 315.139 115.355 315.484 115.355C315.729 115.355 315.936 115.305 316.106 115.204C316.276 115.104 316.425 114.971 316.552 114.805L316.976 115.136C316.636 115.661 316.126 115.923 315.447 115.923ZM315.36 112.273C315.08 112.273 314.845 112.376 314.656 112.582C314.466 112.785 314.348 113.071 314.303 113.44H316.335V113.387C316.315 113.033 316.22 112.76 316.05 112.567C315.88 112.371 315.65 112.273 315.36 112.273Z" fill="#E0E0E0"/>
<path d="M319.579 113.263L320.479 111.776H321.289L319.962 113.789L321.33 115.848H320.528L319.59 114.324L318.653 115.848H317.847L319.216 113.789L317.889 111.776H318.691L319.579 113.263Z" fill="#E0E0E0"/>
<defs>
<filter id="filter0_d" x="0" y="128.267" width="337.617" height="110.733" filterUnits="userSpaceOnUse" color-interpolation-filters="sRGB">
<feFlood flood-opacity="0" result="BackgroundImageFix"/>
<feColorMatrix in="SourceAlpha" type="matrix" values="0 0 0 0 0 0 0 0 0 0 0 0 0 0 0 0 0 0 127 0"/>
<feOffset dx="2" dy="2"/>
<feGaussianBlur stdDeviation="2"/>
<feColorMatrix type="matrix" values="0 0 0 0 0 0 0 0 0 0 0 0 0 0 0 0 0 0 0.2 0"/>
<feBlend mode="normal" in2="BackgroundImageFix" result="effect1_dropShadow"/>
<feBlend mode="normal" in="SourceGraphic" in2="effect1_dropShadow" result="shape"/>
</filter>
<filter id="filter1_di" x="116.245" y="55.54" width="25.5898" height="25.6333" filterUnits="userSpaceOnUse" color-interpolation-filters="sRGB">
<feFlood flood-opacity="0" result="BackgroundImageFix"/>
<feColorMatrix in="SourceAlpha" type="matrix" values="0 0 0 0 0 0 0 0 0 0 0 0 0 0 0 0 0 0 127 0"/>
<feOffset dx="2" dy="2"/>
<feGaussianBlur stdDeviation="2"/>
<feColorMatrix type="matrix" values="0 0 0 0 0 0 0 0 0 0 0 0 0 0 0 0 0 0 0.15 0"/>
<feBlend mode="normal" in2="BackgroundImageFix" result="effect1_dropShadow"/>
<feBlend mode="normal" in="SourceGraphic" in2="effect1_dropShadow" result="shape"/>
<feColorMatrix in="SourceAlpha" type="matrix" values="0 0 0 0 0 0 0 0 0 0 0 0 0 0 0 0 0 0 127 0" result="hardAlpha"/>
<feOffset dx="-2" dy="-2"/>
<feGaussianBlur stdDeviation="2"/>
<feComposite in2="hardAlpha" operator="arithmetic" k2="-1" k3="1"/>
<feColorMatrix type="matrix" values="0 0 0 0 0 0 0 0 0 0 0 0 0 0 0 0 0 0 0.2 0"/>
<feBlend mode="normal" in2="shape" result="effect2_innerShadow"/>
</filter>
<filter id="filter2_di" x="204.194" y="55.54" width="25.5898" height="25.6333" filterUnits="userSpaceOnUse" color-interpolation-filters="sRGB">
<feFlood flood-opacity="0" result="BackgroundImageFix"/>
<feColorMatrix in="SourceAlpha" type="matrix" values="0 0 0 0 0 0 0 0 0 0 0 0 0 0 0 0 0 0 127 0"/>
<feOffset dx="2" dy="2"/>
<feGaussianBlur stdDeviation="2"/>
<feColorMatrix type="matrix" values="0 0 0 0 0 0 0 0 0 0 0 0 0 0 0 0 0 0 0.15 0"/>
<feBlend mode="normal" in2="BackgroundImageFix" result="effect1_dropShadow"/>
<feBlend mode="normal" in="SourceGraphic" in2="effect1_dropShadow" result="shape"/>
<feColorMatrix in="SourceAlpha" type="matrix" values="0 0 0 0 0 0 0 0 0 0 0 0 0 0 0 0 0 0 127 0" result="hardAlpha"/>
<feOffset dx="-2" dy="-2"/>
<feGaussianBlur stdDeviation="2"/>
<feComposite in2="hardAlpha" operator="arithmetic" k2="-1" k3="1"/>
<feColorMatrix type="matrix" values="0 0 0 0 0 0 0 0 0 0 0 0 0 0 0 0 0 0 0.2 0"/>
<feBlend mode="normal" in2="shape" result="effect2_innerShadow"/>
</filter>
<filter id="filter3_di" x="141.866" y="31.7739" width="25.5898" height="25.6333" filterUnits="userSpaceOnUse" color-interpolation-filters="sRGB">
<feFlood flood-opacity="0" result="BackgroundImageFix"/>
<feColorMatrix in="SourceAlpha" type="matrix" values="0 0 0 0 0 0 0 0 0 0 0 0 0 0 0 0 0 0 127 0"/>
<feOffset dx="2" dy="2"/>
<feGaussianBlur stdDeviation="2"/>
<feColorMatrix type="matrix" values="0 0 0 0 0 0 0 0 0 0 0 0 0 0 0 0 0 0 0.15 0"/>
<feBlend mode="normal" in2="BackgroundImageFix" result="effect1_dropShadow"/>
<feBlend mode="normal" in="SourceGraphic" in2="effect1_dropShadow" result="shape"/>
<feColorMatrix in="SourceAlpha" type="matrix" values="0 0 0 0 0 0 0 0 0 0 0 0 0 0 0 0 0 0 127 0" result="hardAlpha"/>
<feOffset dx="-2" dy="-2"/>
<feGaussianBlur stdDeviation="2"/>
<feComposite in2="hardAlpha" operator="arithmetic" k2="-1" k3="1"/>
<feColorMatrix type="matrix" values="0 0 0 0 0 0 0 0 0 0 0 0 0 0 0 0 0 0 0.2 0"/>
<feBlend mode="normal" in2="shape" result="effect2_innerShadow"/>
</filter>
<filter id="filter4_di" x="178.575" y="31.7739" width="25.5898" height="25.6333" filterUnits="userSpaceOnUse" color-interpolation-filters="sRGB">
<feFlood flood-opacity="0" result="BackgroundImageFix"/>
<feColorMatrix in="SourceAlpha" type="matrix" values="0 0 0 0 0 0 0 0 0 0 0 0 0 0 0 0 0 0 127 0"/>
<feOffset dx="2" dy="2"/>
<feGaussianBlur stdDeviation="2"/>
<feColorMatrix type="matrix" values="0 0 0 0 0 0 0 0 0 0 0 0 0 0 0 0 0 0 0.15 0"/>
<feBlend mode="normal" in2="BackgroundImageFix" result="effect1_dropShadow"/>
<feBlend mode="normal" in="SourceGraphic" in2="effect1_dropShadow" result="shape"/>
<feColorMatrix in="SourceAlpha" type="matrix" values="0 0 0 0 0 0 0 0 0 0 0 0 0 0 0 0 0 0 127 0" result="hardAlpha"/>
<feOffset dx="-2" dy="-2"/>
<feGaussianBlur stdDeviation="2"/>
<feComposite in2="hardAlpha" operator="arithmetic" k2="-1" k3="1"/>
<feColorMatrix type="matrix" values="0 0 0 0 0 0 0 0 0 0 0 0 0 0 0 0 0 0 0.2 0"/>
<feBlend mode="normal" in2="shape" result="effect2_innerShadow"/>
</filter>
<filter id="filter5_di" x="75.7124" y="18.3574" width="28.2665" height="24.1" filterUnits="userSpaceOnUse" color-interpolation-filters="sRGB">
<feFlood flood-opacity="0" result="BackgroundImageFix"/>
<feColorMatrix in="SourceAlpha" type="matrix" values="0 0 0 0 0 0 0 0 0 0 0 0 0 0 0 0 0 0 127 0"/>
<feOffset dx="2" dy="2"/>
<feGaussianBlur stdDeviation="2"/>
<feColorMatrix type="matrix" values="0 0 0 0 0 0 0 0 0 0 0 0 0 0 0 0 0 0 0.15 0"/>
<feBlend mode="normal" in2="BackgroundImageFix" result="effect1_dropShadow"/>
<feBlend mode="normal" in="SourceGraphic" in2="effect1_dropShadow" result="shape"/>
<feColorMatrix in="SourceAlpha" type="matrix" values="0 0 0 0 0 0 0 0 0 0 0 0 0 0 0 0 0 0 127 0" result="hardAlpha"/>
<feOffset dx="-2" dy="-2"/>
<feGaussianBlur stdDeviation="2"/>
<feComposite in2="hardAlpha" operator="arithmetic" k2="-1" k3="1"/>
<feColorMatrix type="matrix" values="0 0 0 0 0 0 0 0 0 0 0 0 0 0 0 0 0 0 0.2 0"/>
<feBlend mode="normal" in2="shape" result="effect2_innerShadow"/>
</filter>
<filter id="filter6_di" x="165.485" y="5.12622" width="20.5798" height="17.8598" filterUnits="userSpaceOnUse" color-interpolation-filters="sRGB">
<feFlood flood-opacity="0" result="BackgroundImageFix"/>
<feColorMatrix in="SourceAlpha" type="matrix" values="0 0 0 0 0 0 0 0 0 0 0 0 0 0 0 0 0 0 127 0"/>
<feOffset dx="2" dy="2"/>
<feGaussianBlur stdDeviation="2"/>
<feColorMatrix type="matrix" values="0 0 0 0 0 0 0 0 0 0 0 0 0 0 0 0 0 0 0.15 0"/>
<feBlend mode="normal" in2="BackgroundImageFix" result="effect1_dropShadow"/>
<feBlend mode="normal" in="SourceGraphic" in2="effect1_dropShadow" result="shape"/>
<feColorMatrix in="SourceAlpha" type="matrix" values="0 0 0 0 0 0 0 0 0 0 0 0 0 0 0 0 0 0 127 0" result="hardAlpha"/>
<feOffset dx="-2" dy="-2"/>
<feGaussianBlur stdDeviation="2"/>
<feComposite in2="hardAlpha" operator="arithmetic" k2="-1" k3="1"/>
<feColorMatrix type="matrix" values="0 0 0 0 0 0 0 0 0 0 0 0 0 0 0 0 0 0 0.2 0"/>
<feBlend mode="normal" in2="shape" result="effect2_innerShadow"/>
</filter>
<filter id="filter7_di" x="275.104" y="129.145" width="22.3453" height="19.2506" filterUnits="userSpaceOnUse" color-interpolation-filters="sRGB">
<feFlood flood-opacity="0" result="BackgroundImageFix"/>
<feColorMatrix in="SourceAlpha" type="matrix" values="0 0 0 0 0 0 0 0 0 0 0 0 0 0 0 0 0 0 127 0"/>
<feOffset dx="2" dy="2"/>
<feGaussianBlur stdDeviation="2"/>
<feColorMatrix type="matrix" values="0 0 0 0 0 0 0 0 0 0 0 0 0 0 0 0 0 0 0.15 0"/>
<feBlend mode="normal" in2="BackgroundImageFix" result="effect1_dropShadow"/>
<feBlend mode="normal" in="SourceGraphic" in2="effect1_dropShadow" result="shape"/>
<feColorMatrix in="SourceAlpha" type="matrix" values="0 0 0 0 0 0 0 0 0 0 0 0 0 0 0 0 0 0 127 0" result="hardAlpha"/>
<feOffset dx="-2" dy="-2"/>
<feGaussianBlur stdDeviation="2"/>
<feComposite in2="hardAlpha" operator="arithmetic" k2="-1" k3="1"/>
<feColorMatrix type="matrix" values="0 0 0 0 0 0 0 0 0 0 0 0 0 0 0 0 0 0 0.2 0"/>
<feBlend mode="normal" in2="shape" result="effect2_innerShadow"/>
</filter>
<filter id="filter8_di" x="248.273" y="49.0876" width="27.8478" height="23.5946" filterUnits="userSpaceOnUse" color-interpolation-filters="sRGB">
<feFlood flood-opacity="0" result="BackgroundImageFix"/>
<feColorMatrix in="SourceAlpha" type="matrix" values="0 0 0 0 0 0 0 0 0 0 0 0 0 0 0 0 0 0 127 0"/>
<feOffset dx="2" dy="2"/>
<feGaussianBlur stdDeviation="2"/>
<feColorMatrix type="matrix" values="0 0 0 0 0 0 0 0 0 0 0 0 0 0 0 0 0 0 0.15 0"/>
<feBlend mode="normal" in2="BackgroundImageFix" result="effect1_dropShadow"/>
<feBlend mode="normal" in="SourceGraphic" in2="effect1_dropShadow" result="shape"/>
<feColorMatrix in="SourceAlpha" type="matrix" values="0 0 0 0 0 0 0 0 0 0 0 0 0 0 0 0 0 0 127 0" result="hardAlpha"/>
<feOffset dx="-2" dy="-2"/>
<feGaussianBlur stdDeviation="2"/>
<feComposite in2="hardAlpha" operator="arithmetic" k2="-1" k3="1"/>
<feColorMatrix type="matrix" values="0 0 0 0 0 0 0 0 0 0 0 0 0 0 0 0 0 0 0.2 0"/>
<feBlend mode="normal" in2="shape" result="effect2_innerShadow"/>
</filter>
<filter id="filter9_di" x="89.6548" y="101.54" width="28.1825" height="23.8746" filterUnits="userSpaceOnUse" color-interpolation-filters="sRGB">
<feFlood flood-opacity="0" result="BackgroundImageFix"/>
<feColorMatrix in="SourceAlpha" type="matrix" values="0 0 0 0 0 0 0 0 0 0 0 0 0 0 0 0 0 0 127 0"/>
<feOffset dx="2" dy="2"/>
<feGaussianBlur stdDeviation="2"/>
<feColorMatrix type="matrix" values="0 0 0 0 0 0 0 0 0 0 0 0 0 0 0 0 0 0 0.15 0"/>
<feBlend mode="normal" in2="BackgroundImageFix" result="effect1_dropShadow"/>
<feBlend mode="normal" in="SourceGraphic" in2="effect1_dropShadow" result="shape"/>
<feColorMatrix in="SourceAlpha" type="matrix" values="0 0 0 0 0 0 0 0 0 0 0 0 0 0 0 0 0 0 127 0" result="hardAlpha"/>
<feOffset dx="-2" dy="-2"/>
<feGaussianBlur stdDeviation="2"/>
<feComposite in2="hardAlpha" operator="arithmetic" k2="-1" k3="1"/>
<feColorMatrix type="matrix" values="0 0 0 0 0 0 0 0 0 0 0 0 0 0 0 0 0 0 0.2 0"/>
<feBlend mode="normal" in2="shape" result="effect2_innerShadow"/>
</filter>
<filter id="filter10_f" x="117.155" y="143.68" width="96.3808" height="49.473" filterUnits="userSpaceOnUse" color-interpolation-filters="sRGB">
<feFlood flood-opacity="0" result="BackgroundImageFix"/>
<feBlend mode="normal" in="SourceGraphic" in2="BackgroundImageFix" result="shape"/>
<feGaussianBlur stdDeviation="1" result="effect1_foregroundBlur"/>
</filter>
<filter id="filter11_f" x="120.789" y="160.809" width="43.3728" height="25.9244" filterUnits="userSpaceOnUse" color-interpolation-filters="sRGB">
<feFlood flood-opacity="0" result="BackgroundImageFix"/>
<feBlend mode="normal" in="SourceGraphic" in2="BackgroundImageFix" result="shape"/>
<feGaussianBlur stdDeviation="2" result="effect1_foregroundBlur"/>
</filter>
<filter id="filter12_f" x="167.151" y="164.083" width="54.3625" height="26.6138" filterUnits="userSpaceOnUse" color-interpolation-filters="sRGB">
<feFlood flood-opacity="0" result="BackgroundImageFix"/>
<feBlend mode="normal" in="SourceGraphic" in2="BackgroundImageFix" result="shape"/>
<feGaussianBlur stdDeviation="2" result="effect1_foregroundBlur"/>
</filter>
<linearGradient id="paint0_linear" x1="97.3542" y1="28.4074" x2="78.3172" y2="27.8929" gradientUnits="userSpaceOnUse">
<stop stop-color="#A62E41"/>
<stop offset="1" stop-color="#E13152"/>
</linearGradient>
<linearGradient id="paint1_linear" x1="178.816" y1="8.20525" x2="168.349" y2="15.2316" gradientUnits="userSpaceOnUse">
<stop stop-color="#A62E41"/>
<stop offset="1" stop-color="#E13152"/>
</linearGradient>
<linearGradient id="paint2_linear" x1="290.018" y1="132.38" x2="278.1" y2="140.383" gradientUnits="userSpaceOnUse">
<stop stop-color="#A62E41"/>
<stop offset="1" stop-color="#E13152"/>
</linearGradient>
<linearGradient id="paint3_linear" x1="4953.25" y1="5346.43" x2="5447.53" y2="5884.93" gradientUnits="userSpaceOnUse">
<stop stop-color="#65BBFF"/>
<stop offset="1" stop-color="#315DA4"/>
</linearGradient>
<linearGradient id="paint4_linear" x1="4891" y1="5522.1" x2="5396.86" y2="6071.81" gradientUnits="userSpaceOnUse">
<stop stop-color="#65BBFF"/>
<stop offset="1" stop-color="#315DA4"/>
</linearGradient>
<linearGradient id="paint5_linear" x1="153.097" y1="128.201" x2="169.392" y2="215.861" gradientUnits="userSpaceOnUse">
<stop stop-color="#B4D1FA" stop-opacity="0"/>
<stop offset="1" stop-opacity="0.2"/>
</linearGradient>
<linearGradient id="paint6_linear" x1="171.439" y1="150.169" x2="123.812" y2="151.295" gradientUnits="userSpaceOnUse">
<stop stop-color="#71A0DD" stop-opacity="0"/>
<stop offset="1" stop-color="#71A0DD" stop-opacity="0.5"/>
</linearGradient>
</defs>
</svg>
