<svg width="170" height="124" fill="none" xmlns="http://www.w3.org/2000/svg"><g clip-path="url(#clip0)"><g filter="url(#filter0_f)"><path d="M106.146 81.61l-59.389 22.432L0 86.986l59.058-21.397 47.089 16.022z" fill="url(#paint0_linear)"/></g><path d="M97.571 123.932l-52.467-19.854-.018-63.614L97.57 60.318v63.614z" fill="#053866"/><path d="M150.471 103.983l-52.9-20.086.03-63.848 52.979 19.956-.109 63.978z" fill="#083556"/><path d="M97.57 123.932l52.992-20.184.018-63.809-52.992 20.02-.018 63.973z" fill="#054270"/><path d="M45.104 103.983l52.499-19.227V20.049L45.086 40.025l.018 63.958z" fill="#063D66"/><g filter="url(#filter1_f)"><ellipse cx="97.368" cy="77.281" rx="36.192" ry="36.208" fill="url(#paint1_radial)"/></g><path d="M97.553 123.932l-52.449-19.854-.018-63.614L97.57 60.318l-.018 63.614z" fill="#053866"/><path d="M58.207 61.462l-13.103-5-.018-15.998 13.121 5.11v15.889z" fill="#053866"/><path d="M48.575 55.685a8.609 8.609 0 01-3.453-.628l-.036-1.688c2.666 1.023 5.225.826 7.193-.538 2.344-1.616 3.829-4.29 3.829-8.167l1.574.628c0 4.416-1.306 6.893-4.08 8.813a9.257 9.257 0 01-5.027 1.58z" fill="#FF8098"/><path d="M71.328 66.187l-13.121-5.026V45.189l13.121 5.026v15.972z" fill="#0E2951"/><path d="M84.45 71.437L71.327 66.41V50.44l13.121 5.008v15.99z" fill="#FF8098"/><path d="M97.499 76.16l-13.05-4.966V55.163l13.121 4.82-.071 16.178zm-39.292 1.051l-13.121-5.008v-15.99l13.121 5.026v15.972z" fill="#911A31"/><path d="M71.328 81.936l-13.121-4.901V61.462l13.121 4.901v15.573z" fill="#C43B55"/><path d="M84.45 87.185l-13.122-5.027V66.186l13.121 5.027v15.972z" fill="#053866"/><path d="M97.57 91.91l-13.12-4.847V71.436l13.12 4.847v15.626z" fill="#132F7C"/><path d="M71.328 98.21L58.207 93.2V77.21l13.121 5.027V98.21z" fill="#FF8098"/><path d="M84.45 102.933l-13.122-5.026V81.935l13.121 5.026v15.972z" fill="#0E2951"/><path d="M97.57 108.183l-13.12-4.971V87.185l13.12 4.97v16.028z" fill="#053866"/><path d="M58.207 109.233l-13.121-5.026V88.235l13.121 5.026v15.972z" fill="#C43B55"/><path d="M71.328 113.958l-13.121-5.013V92.96l13.121 5.012v15.986z" fill="#053866"/><path d="M84.45 119.208l-13.122-5.027V98.21l13.121 5.026v15.972z" fill="#FF8098"/><path d="M97.57 123.932l-13.12-4.943v-16.055l13.066 4.98.054 16.018z" fill="#911A31"/><path d="M47.799 52.538a6.644 6.644 0 01-2.713-.535v-1.936c1.906.738 4.271.48 5.444-.295 1.962-1.309 2.915-3.337 2.915-6.158l1.613.646c0 3.466-1.228 5.586-3.428 7.116a6.846 6.846 0 01-3.831 1.162z" fill="#D6516B"/><path d="M46.861 48.863a4.248 4.248 0 01-1.775-.35V46.47c1.146.467 2.922.35 3.901-.68 1.017-1.07 1.295-1.944 1.295-3.752l1.627.68c0 2.489-.814 4.18-2.348 5.288a4.66 4.66 0 01-2.7.856z" fill="#C43B55"/><path d="M45.922 45.182a1.47 1.47 0 01-.836-.173V43c.279.115 1.184.191 1.532 0 .61-.345.61-1.015.314-2.01l1.828.67c0 1.397-.453 2.374-1.306 3.025a2.674 2.674 0 01-1.532.498z" fill="#A62E41"/><path d="M97.367 105.559l-11.344-4.196V74.061l11.547 4.124v2.216l-9.591-3.602v23.249l9.278 3.422.11 2.089z" fill="#C43B55"/><path d="M97.57 106.083l-11.547-4.584V87.71l1.956.624v11.863l9.591 3.692v2.194z" fill="#F985A0"/><path d="M97.365 101.884l-8.193-3.057V78.786l8.398 2.983v2.251l-6.443-2.434V97.82l6.443 2.252-.205 1.812z" fill="#C43B55"/><path d="M97.374 97.684l-4.526-1.714V84.56l4.723 1.643v2.196l-2.837-1.107v7.392l2.837 1.232-.197 1.768z" fill="#C43B55"/><path d="M97.571 97.684l-4.723-1.842V89.81l1.886.632v4.1l2.837.92v2.222z" fill="#F985A0"/><path d="M97.57 101.884l-8.398-3.085v-10.04l1.955.625v8.113l6.443 2.193v2.194z" fill="#F985A0"/><path d="M55.058 107.658l-9.972-3.771V91.91l9.972 3.77v11.978z" fill="#053866"/><path d="M51.384 106.608l-6.298-2.511v-7.988l6.298 2.51v7.989z" fill="#FF8098"/><path d="M84.45 61.042l-4.8 8.295-8.322-9.03 4.8-8.294 8.321 9.029z" fill="#C43B55"/><path d="M81.3 60.851l-2.51 4.286-4.313-4.657 2.49-4.267L81.3 60.85z" fill="#911A31"/><path d="M84.45 119.207l-13.122-5.042v-12.806l13.121 5.024v12.824z" fill="#C43B55"/><path d="M84.45 119.207l-13.122-5.175v-9.524l13.121 5.156v9.543z" fill="#911A31"/><path d="M84.45 119.207l-13.122-5.148v-5.876l13.121 5.13v5.894z" fill="#053866"/><path d="M84.45 119.207l-13.122-5.019v-2.855l13.121 5.001v2.873z" fill="#0E2951"/><path d="M58.207 65.137l13.121 4.905-13.121 3.839 13.121 4.905-13.121-13.649z" fill="#911A31"/><path d="M46.66 73.011l-1.574-.644V56.213l1.575.645V73.01zm2.625.525l-1.574-.624v-15.65l1.575.642v15.632zm8.396 3.15l-2.099-.625V60.412l2.1.625v15.649zm-3.149-1.05l-1.575-.625V59.362l1.575.625v15.649zm-2.622-1.05l-1.574-.624v-15.65l1.575.625v15.65z" fill="#FF8098"/><path d="M58.207 92.96l-13.121-5.027V71.961l13.121 5.009v15.99z" fill="#0E2951"/><path d="M58.206 92.96l-6.823-2.511V82.46l6.823 2.512v7.988zm-6.822-10.5l-6.298-2.515v-7.984l6.298 2.516v7.983z" fill="#911A31"/><path fill-rule="evenodd" clip-rule="evenodd" d="M59.781 95.585l9.513 3.75-.505 1.384-7.584-2.99v9.176l7.125 2.809v-6.887l-5.516-2.178v4.905l3.907 1.546v-2.958l-2.315-.915v1.011l1.687.666-.505 1.384-2.605-1.028v-4.179l5.161 2.04v6.126l-6.753-2.672v-8.071l8.362 3.301v10.054l-9.972-3.932V95.585z" fill="#F985A0"/><path fill-rule="evenodd" clip-rule="evenodd" d="M96.52 110.257l-8.935 8.425-1.562-1.549 8.936-8.425 1.561 1.549z" fill="#0E2951"/><path fill-rule="evenodd" clip-rule="evenodd" d="M87.894 105.559l8.626 15.179-1.87 1.094-8.627-15.179 1.871-1.094z" fill="#0E2951"/><path d="M76.052 89.81l-2.099-.879v-2.796l2.1.879v2.796zm2.625 4.724l-2.099-.874v-2.8l2.1.873v2.801zm3.149 4.201l-2.1-.754v-2.396l2.1.753v2.397z" fill="#911A31"/><path d="M97.588 59.96l52.992-20.02v63.881l-53.01 20.111.019-63.973z" fill="#053866"/><path d="M137.457 76.984l13.121-5.023v15.977l-13.121 5.022V76.984z" fill="#911A31"/><path d="M123.812 82.112l13.647-4.901V92.8l-13.647 4.883V82.112z" fill="#C43B55"/><path d="M110.691 86.962l13.122-5.027v15.972l-13.122 5.026V86.961z" fill="#053866"/><path d="M97.57 92.267l13.122-5.082v15.917l-13.122 5.081V92.267z" fill="#132F7C"/><path d="M123.812 65.964l13.647-5.026v15.971l-13.647 5.027V65.964z" fill="#FF8098"/><path d="M110.691 71.213l13.122-5.026v15.972l-13.122 5.026V71.213z" fill="#0E2951"/><path d="M97.57 75.993l13.122-5.082v15.917L97.57 91.909V75.993z" fill="#053866"/><path d="M123.812 97.968l13.647-5.008v15.972l-13.647 5.026v-15.99z" fill="#0E2951"/><path d="M110.691 102.711l13.122-5.026v15.989l-13.122 5.009v-15.972z" fill="#FF8098"/><path d="M97.57 108.025l13.122-5.091v15.944l-13.068 5.054-.054-15.907z" fill="#911A31"/><path d="M137.457 44.98l13.121-5.04v15.976l-13.121 5.022V44.98z" fill="#C43B55"/><path d="M123.812 50.215l13.647-5.026v15.972l-13.647 5.026V50.215z" fill="#053866"/><path d="M110.688 55.34l13.121-4.902v15.573l-13.121 4.9V55.34z" fill="#FF8098"/><path d="M97.642 60.081l13.05-4.918V71.08L97.57 76.16l.072-16.08z" fill="#911A31"/><path d="M97.246 106.084v-2.212l9.933-3.848V76.812l-9.454 3.47-.682-1.761 12.072-4.46v27.258l-11.87 4.765z" fill="#C43B55"/><path d="M109.117 88.127l-1.883.633V76.828L97.57 80.57v-2.224l11.547-4.285v14.066z" fill="#F985A0"/><path d="M97.57 101.884v-2.207l6.518-2.656v-15.61l-6.518 2.53v-2.208l8.398-2.422v19.02l-8.398 3.553z" fill="#C43B55"/><path d="M97.242 97.685v-2.158l3.149-1.035v-7.264l-2.678.982-.67-1.719 5.248-1.93v11.211l-5.049 1.913z" fill="#C43B55"/><path d="M102.294 90.243l-1.778.618v-3.618l-2.946 1.235v-2.17l4.724-1.747v5.682z" fill="#F985A0"/><path d="M105.968 89.17l-1.88.64v-8.32l-6.518 2.507V81.81l8.398-3.023V89.17z" fill="#F985A0"/><path d="M143.754 42.464l6.823-2.524v7.992l-6.823 2.506v-7.974z" fill="#FF8098"/><path d="M110.688 112.951l4.802-11.592 8.319 2.582-4.803 11.592-8.318-2.582z" fill="#C43B55"/><path d="M113.84 110.519l2.489-6.01 4.334 1.339-2.508 6.01-4.315-1.339z" fill="#911A31"/><path d="M110.688 55.332l13.121-4.894v12.448l-13.121 4.876v-12.43z" fill="#C43B55"/><path d="M110.688 55.428l13.121-4.99v9.203l-13.121 4.971v-9.184z" fill="#911A31"/><path d="M110.688 55.342l13.121-4.904v5.614l-13.121 4.886v-5.596z" fill="#053866"/><path d="M110.688 55.446l13.121-5.008v2.867l-13.121 5.008v-2.867z" fill="#0E2951"/><path d="M137.459 89.105l-13.647 4.905 13.647-13.65-13.647 4.906" fill="#911A31"/><path d="M150.576 88.128l-2.099.632V72.612l2.099-.65v16.166zm-2.621.532l-2.1.625V73.636l2.1-.624V88.66zm-7.875 3.15l-2.06.625-.04-15.65 2.061-.624.039 15.65zm2.625-1.05l-2.1.624V75.735l2.1-.624V90.76zm2.625-1.05l-2.1.625V74.686l2.1-.625v15.65z" fill="#FF8098"/><path d="M137.457 61.24l13.121-5.027v15.972l-13.121 5.026V61.24z" fill="#0E2951"/><path d="M137.457 92.737l13.121-5.027v15.972l-13.121 5.027V92.737z" fill="#053866"/><path d="M137.457 61.223l6.298-2.385v7.589l-6.298 2.385v-7.589z" fill="#911A31"/><path d="M139.063 108.077l-1.606.631c0-10.759 6.022-17.294 13.121-19.948v1.589c-6.405 2.4-11.515 10.452-11.515 17.728z" fill="#FF8098"/><path d="M142.53 107.02l-1.925.638c0-7.682 4.602-13.741 9.973-15.748v1.916c-4.693 1.77-8.048 7.555-8.048 13.194z" fill="#D6516B"/><path d="M146.045 105.463l-1.764.621c0-4.665 2.682-9.152 6.263-10.5l.035 1.774c-2.789 1.064-4.534 4.753-4.534 8.105z" fill="#C43B55"/><path d="M149.035 104.402l-1.561.632c-.32-2.527 1.135-5.035 3.069-5.775l.036 1.985c-1.207.451-1.544 1.624-1.544 3.158z" fill="#A62E41"/><path fill-rule="evenodd" clip-rule="evenodd" d="M135.88 47.289v12.623l-9.488 3.65-.528-1.416 8.525-3.28v-9.385l-7.515 2.892v7.046l5.83-2.231V52.17l-4.145 1.586v3.007l2.441-.938v-1.016l-1.237.477-.529-1.416 3.257-1.255v4.256l-5.423 2.084v-6.246l7.127-2.727v8.253l-8.812 3.373v-10.28l10.497-4.04z" fill="#F985A0"/><path fill-rule="evenodd" clip-rule="evenodd" d="M98.617 72.927l9.07-15.664 1.952 1.134-9.07 15.664-1.952-1.134z" fill="#0E2951"/><path fill-rule="evenodd" clip-rule="evenodd" d="M107.567 70.912l-8.95-8.86 1.548-1.64 8.949 8.861-1.547 1.639z" fill="#0E2951"/><path d="M119.086 78.09l2.099-.879v2.796l-2.099.88V78.09zm-2.625-2.23l2.099-.75v2.401l-2.099.75V75.86zm-3.149-2.62l2.1-.754v2.397l-2.1.753V73.24z" fill="#911A31"/><path d="M140.605 43.855l9.973-3.915v12.395l-9.973 3.878V43.855z" fill="#053866"/><path d="M143.754 66.603l6.823-2.516v7.984l-6.823 2.516v-7.984z" fill="#911A31"/><path opacity=".3" d="M45.3 40.139l52.303 19.855v64.007l-52.537-19.856.234-64.006z" fill="#000"/><path d="M170 20.497L150.281 39.94l-52.68-19.89L117.272.568 170 20.498z" fill="#084C80"/><path d="M97.817 60l-19.9 19.836-52.776-19.85 20.259-19.8L97.816 60z" fill="#094573"/><path d="M97.601 20.049L78.222.427 25.512 20.43l19.682 19.893L97.601 20.05zM170 59.575L150.315 39.94 97.57 60.107l19.793 19.728L170 59.575z" fill="#084C80"/></g><defs><filter id="filter0_f" x="-5" y="60.589" width="116.147" height="48.453" filterUnits="userSpaceOnUse" color-interpolation-filters="sRGB"><feFlood flood-opacity="0" result="BackgroundImageFix"/><feBlend in="SourceGraphic" in2="BackgroundImageFix" result="shape"/><feGaussianBlur stdDeviation="2.5" result="effect1_foregroundBlur"/></filter><filter id="filter1_f" x="-18.824" y="-38.927" width="232.384" height="232.416" filterUnits="userSpaceOnUse" color-interpolation-filters="sRGB"><feFlood flood-opacity="0" result="BackgroundImageFix"/><feBlend in="SourceGraphic" in2="BackgroundImageFix" result="shape"/><feGaussianBlur stdDeviation="40" result="effect1_foregroundBlur"/></filter><radialGradient id="paint1_radial" cx="0" cy="0" r="1" gradientUnits="userSpaceOnUse" gradientTransform="matrix(0 28.7165 -28.704 0 96.952 64.795)"><stop stop-color="#0095FF"/><stop offset="1" stop-color="#BCE3FF"/></radialGradient><linearGradient id="paint0_linear" x1="103.002" y1="104.69" x2="75.613" y2="45.266" gradientUnits="userSpaceOnUse"><stop offset=".096"/><stop offset=".978" stop-color="#B4D1FA" stop-opacity="0"/></linearGradient><clipPath id="clip0"><path fill="#fff" transform="translate(0 .427)" d="M0 0h170v123.574H0z"/></clipPath></defs></svg>