<svg width="602" height="551" viewBox="0 0 602 551" fill="none" xmlns="http://www.w3.org/2000/svg">
<g filter="url(#filter0_d)">
<g filter="url(#filter1_f)">
<path d="M368.246 505.552L397.638 493.184C398.462 493.685 399.232 494.27 399.936 494.929C401.311 496.728 399.539 499.202 401.842 500.776C404.682 502.692 411.663 502.271 417.437 499.84C417.599 499.773 417.759 499.703 417.914 499.633C423.34 497.212 425.517 493.829 422.758 491.968C420.994 490.778 417.956 490.843 415.48 490.393C414.232 490.183 413.013 489.827 411.847 489.334C411.149 488.965 410.486 488.532 409.868 488.041L439.302 475.649L494.73 513.079L423.679 543L400.747 527.513L401.033 527.383C402.019 526.953 403.03 526.583 404.059 526.272C407.479 525.521 412.105 526.434 415.069 525.19C418.689 523.576 417.95 519.917 413.496 516.906C409.002 513.863 402.39 512.633 398.754 514.169C396.496 515.177 396.584 516.762 395.71 518.059C395.18 518.843 394.491 519.506 393.688 520.005C393.58 520.07 393.166 520.279 392.643 520.511C392.211 520.704 391.704 520.913 391.232 521.073L368.246 505.552Z" fill="#C2C2C2"/>
</g>
<path d="M429.48 484.227C429.48 483.552 429.13 482.961 428.411 482.475C428.296 482.398 428.186 482.329 428.049 482.25L427.928 482.192C427.838 482.149 427.743 482.106 427.649 482.068L427.579 482.036L427.516 482.014C427.366 481.958 427.209 481.901 427.047 481.854C426.88 481.807 426.712 481.764 426.541 481.724L426.483 481.71L426.411 481.697C426.209 481.652 426.002 481.611 425.791 481.578H425.773H425.721C425.496 481.542 425.272 481.51 425.061 481.481H424.991C424.766 481.449 424.521 481.422 424.285 481.395H424.245L423.672 481.33L422.998 481.249L422.874 481.234C422.65 481.204 422.441 481.173 422.229 481.139L421.899 481.083C421.674 481.042 421.45 480.995 421.225 480.948L421.106 480.921C420.941 480.885 420.779 480.847 420.621 480.806H420.607C420.445 480.766 420.286 480.721 420.126 480.676L419.976 480.629C419.866 480.597 419.751 480.561 419.648 480.527L419.49 480.473L419.165 480.354C419.124 480.339 419.082 480.325 419.041 480.307C418.905 480.253 418.772 480.197 418.643 480.138C418.018 479.81 417.424 479.423 416.871 478.983L416.999 493.784C417.554 494.223 418.148 494.611 418.774 494.942C418.902 495 419.034 495.054 419.171 495.11L419.201 495.122L419.293 495.155C419.401 495.196 419.517 495.236 419.623 495.275L419.776 495.326L420.113 495.432L420.205 495.461L420.252 495.475C420.412 495.522 420.573 495.567 420.737 495.607C420.902 495.648 421.068 495.688 421.234 495.724L421.281 495.736L421.349 495.749C421.573 495.799 421.798 495.846 422.023 495.886L422.299 495.936H422.353C422.564 495.969 422.78 496.001 422.996 496.03L423.126 496.046C423.351 496.075 423.562 496.1 423.784 496.127L424.218 496.176L424.393 496.197C424.634 496.224 424.872 496.251 425.108 496.282H425.164C425.389 496.311 425.613 496.343 425.838 496.379H425.91C426.121 496.412 426.326 496.453 426.53 496.498L426.66 496.525C426.833 496.565 427.002 496.608 427.166 496.655C427.33 496.703 427.489 496.759 427.644 496.817L427.777 496.869L428.056 496.995L428.175 497.053C428.301 497.121 428.422 497.191 428.536 497.278C429.258 497.764 429.601 498.367 429.608 499.03L429.48 484.227Z" fill="#8A4E5C"/>
<path d="M408.054 516.822C408.104 516.808 408.155 516.797 408.205 516.788L408.411 516.743L408.582 516.712L408.726 516.687L408.836 529.091L429.359 542.95L429.227 528.149L412.229 516.68C412.476 516.709 412.728 516.743 412.979 516.786L413.152 516.815L413.433 516.867L413.635 516.907L413.905 516.964L414.094 517.006C414.24 517.038 414.386 517.074 414.543 517.11L414.667 517.141C414.849 517.188 415.031 517.24 415.213 517.292L415.318 517.323C415.568 517.4 415.819 517.478 416.069 517.562L416.107 517.575C416.354 517.661 416.601 517.753 416.846 517.847L416.907 517.872C417.188 517.982 417.469 518.097 417.745 518.225L417.785 518.243C418.064 518.369 418.34 518.504 418.612 518.643L418.639 518.657C418.913 518.801 419.185 518.949 419.448 519.107H419.462C419.729 519.266 419.992 519.43 420.246 519.601C422.511 521.133 423.704 522.848 423.715 524.324L423.578 509.518C423.564 508.054 422.371 506.338 420.107 504.796C419.853 504.625 419.59 504.458 419.322 504.301H419.309C419.044 504.146 418.776 503.997 418.5 503.851L418.471 503.838C418.201 503.698 417.927 503.563 417.646 503.437L417.606 503.419C417.329 503.296 417.051 503.177 416.768 503.066H416.752L416.709 503.051C416.462 502.954 416.21 502.862 415.961 502.774H415.932C415.68 502.686 415.426 502.608 415.175 502.533L415.116 502.513H415.078C414.894 502.459 414.709 502.408 414.525 502.36L414.413 502.331C414.263 502.292 414.113 502.256 413.963 502.223L413.88 502.203L413.786 502.183L413.505 502.124L413.31 502.086L413.024 502.034L412.887 502.01H412.854C412.597 501.967 412.346 501.931 412.094 501.902H412.036H411.991C411.766 501.877 411.555 501.857 411.339 501.841H411.285C411.262 501.843 411.239 501.843 411.216 501.841C410.813 501.818 410.422 501.809 410.04 501.818H409.912C409.726 501.818 409.542 501.834 409.364 501.85H409.328C409.139 501.866 408.957 501.886 408.775 501.911C408.756 501.912 408.736 501.912 408.717 501.911H408.677L408.452 501.947L408.297 501.974L408.072 502.023L407.953 502.048H407.935C407.776 502.086 407.621 502.131 407.47 502.178L407.367 502.212C407.214 502.264 407.063 502.318 406.917 502.376C406.771 502.435 406.693 502.482 406.596 502.533L406.508 502.585L406.4 502.644L406.315 502.7L406.207 502.77C406.151 502.808 406.099 502.846 406.048 502.887L405.958 502.954L405.926 502.979C405.866 503.03 405.807 503.082 405.753 503.134L405.733 503.154L405.607 503.282L405.574 503.323L405.515 503.39C405.477 503.435 405.439 503.482 405.405 503.53L405.356 503.595L405.331 503.629C405.313 503.653 405.299 503.678 405.284 503.703C405.268 503.728 405.223 503.793 405.196 503.84C405.169 503.887 405.153 503.91 405.133 503.946L405.059 504.081C405.052 504.097 405.043 504.113 405.034 504.128C405.034 504.146 405.019 504.164 405.01 504.18C404.969 504.258 404.933 504.339 404.895 504.418C404.895 504.436 404.879 504.454 404.873 504.47C404.825 504.578 404.778 504.683 404.733 504.789C404.688 504.895 404.664 504.953 404.628 505.034L404.587 505.126C404.542 505.225 404.497 505.322 404.45 505.416C404.423 505.468 404.396 505.518 404.367 505.567C404.338 505.616 404.342 505.616 404.329 505.639C404.288 505.711 404.243 505.785 404.194 505.864C404.145 505.943 404.131 505.952 404.1 505.996L403.951 506.194L403.886 506.278C403.817 506.361 403.747 506.444 403.662 506.527L403.644 506.547C403.565 506.635 403.48 506.721 403.392 506.806L403.313 506.878C403.248 506.939 403.183 506.997 403.113 507.056C403.082 507.085 403.046 507.112 403.01 507.141C402.974 507.17 402.871 507.251 402.799 507.305C402.765 507.33 402.734 507.357 402.698 507.382C402.59 507.458 402.473 507.532 402.365 507.607L402.327 507.627H402.311L402.266 507.652L402.239 507.665L402.183 507.694L402.145 507.715L402.084 507.744L402.03 507.771L401.972 507.8L401.9 507.834L401.833 507.865L401.756 507.901L401.651 507.951L401.601 507.975L401.43 508.052C401.044 508.225 400.59 508.412 400.168 508.553L379.622 494.679L379.75 509.48L400.298 523.354C400.72 523.213 401.174 523.026 401.561 522.853L401.88 522.707L402.012 522.644L402.107 522.597L402.143 522.579L402.212 522.545L402.257 522.522L402.309 522.495L402.352 522.475L402.388 522.455L402.426 522.435L402.45 522.421L402.473 522.408C402.59 522.336 402.698 522.261 402.81 522.183L402.907 522.111C402.981 522.057 403.053 522.001 403.131 521.944L403.185 521.902L403.232 521.859C403.3 521.801 403.367 521.742 403.43 521.684L403.511 521.607C403.599 521.524 403.682 521.438 403.763 521.353L403.781 521.333C403.855 521.252 403.927 521.169 404.005 521.085L404.073 521L404.216 520.807C404.228 520.791 404.243 520.773 404.255 520.755L404.313 520.672C404.36 520.6 404.405 520.528 404.448 520.447C404.464 520.42 404.477 520.393 404.491 520.366C404.504 520.339 404.54 520.278 404.563 520.233C404.612 520.136 404.657 520.04 404.702 519.941L404.742 519.851C404.776 519.77 404.812 519.689 404.848 519.608C404.884 519.527 404.94 519.383 404.987 519.282C404.995 519.268 405.002 519.253 405.007 519.237C405.046 519.156 405.084 519.073 405.124 518.992C405.14 518.96 405.156 518.929 405.174 518.897L405.25 518.758L405.308 518.655C405.338 518.607 405.367 518.562 405.398 518.517C405.42 518.48 405.444 518.444 405.47 518.409L405.52 518.342C405.553 518.297 405.592 518.25 405.63 518.205C405.648 518.181 405.667 518.159 405.688 518.137C405.738 518.081 405.789 518.025 405.845 517.971L405.868 517.948C405.933 517.886 406.001 517.826 406.072 517.771L406.16 517.701C406.212 517.663 406.266 517.622 406.322 517.584L406.43 517.514C406.49 517.476 406.556 517.436 406.623 517.398L406.711 517.35C406.812 517.296 406.917 517.242 407.032 517.191C407.146 517.139 407.324 517.078 407.481 517.026L407.585 516.993C407.74 516.903 407.892 516.86 408.054 516.822Z" fill="#9A5364"/>
<path d="M492.813 501.371L492.943 516.172L429.359 542.95L429.226 528.149L492.813 501.371Z" fill="#DD6A85"/>
<path d="M379.627 494.649L405.931 483.57C406.669 484.023 407.359 484.551 407.989 485.144C409.219 486.765 407.632 488.967 409.695 490.37C412.236 492.084 418.482 491.719 423.65 489.531C423.796 489.471 423.938 489.41 424.077 489.347C428.935 487.179 430.883 484.152 428.414 482.486C426.841 481.42 424.115 481.488 421.898 481.078C420.781 480.89 419.691 480.572 418.649 480.129C418.023 479.801 417.429 479.414 416.876 478.974L443.212 467.883L492.816 501.389L429.229 528.167L408.708 514.308L408.962 514.191C409.845 513.806 410.75 513.475 411.672 513.197C414.732 512.522 418.862 513.341 421.516 512.228C424.756 510.782 424.095 507.505 420.107 504.807C416.076 502.084 410.169 500.984 406.913 502.358C404.891 503.258 404.972 504.677 404.19 505.839C403.713 506.541 403.093 507.135 402.37 507.58C402.273 507.638 401.903 507.825 401.435 508.029C401.049 508.203 400.595 508.389 400.173 508.531L379.627 494.649Z" fill="#F985A0"/>
<g filter="url(#filter2_f)">
<path d="M277.928 509.155C276.165 507.963 273.122 508.031 270.651 507.581C269.402 507.369 268.183 507.012 267.018 506.517C266.318 506.15 265.654 505.717 265.036 505.224L294.47 492.832L271.552 477.347C271.644 477.302 271.745 477.255 271.848 477.21C272.831 476.781 273.837 476.411 274.864 476.103C278.281 475.352 282.905 476.263 285.981 474.979C289.482 473.418 288.745 469.757 284.287 466.751C279.793 463.706 273.181 462.478 269.435 464.052C267.289 465.013 267.375 466.596 266.501 467.893C265.972 468.678 265.283 469.341 264.479 469.838C264.371 469.906 263.957 470.113 263.434 470.347C263.002 470.54 262.495 470.749 262.023 470.909L239.044 455.404L167.986 485.328L223.412 522.758L252.808 510.39C253.631 510.892 254.401 511.478 255.105 512.137C256.48 513.936 254.707 516.409 257.01 517.984C259.85 519.899 266.831 519.481 272.606 517.048C272.77 516.981 272.929 516.911 273.086 516.841C278.51 514.388 280.685 511.015 277.928 509.155Z" fill="#C9C9C9"/>
</g>
<path d="M272.299 463.291H272.283C271.366 463.568 270.466 463.898 269.587 464.278L269.324 464.402L269.455 479.203L269.717 479.079C270.593 478.7 271.489 478.371 272.402 478.094H272.418C272.643 478.043 272.888 478 273.133 477.964C273.423 477.923 273.721 477.89 274.031 477.865L273.903 463.064C273.598 463.088 273.299 463.122 273.005 463.163C272.771 463.196 272.524 463.239 272.299 463.291Z" fill="#613345"/>
<path d="M289.988 493.064L289.858 478.261L263.52 489.353L263.628 501.67C260.57 502.036 257.822 501.748 256.339 500.748C255.353 500.073 255.202 499.228 255.177 498.342V497.609C255.177 496.88 255.121 496.156 254.64 495.524C254.011 494.931 253.323 494.404 252.587 493.95L226.278 505.029L226.408 519.83L252.715 508.751C253.451 509.201 254.14 509.725 254.771 510.314C255.2 510.881 255.285 511.519 255.303 512.171V512.904C255.303 513.871 255.4 514.816 256.469 515.538C259.011 517.253 265.257 516.887 270.427 514.701L270.856 514.514C274.294 512.981 276.273 511.015 276.249 509.408C276.217 505.895 276.187 502.383 276.157 498.872L289.988 493.064Z" fill="#8E2838"/>
<path d="M284.354 459.345L284.484 474.146C281.955 477.516 275.657 479.037 272.431 478.092C271.514 478.369 270.614 478.699 269.735 479.081L269.472 479.205L269.342 464.404L269.605 464.28C270.483 463.898 271.384 463.568 272.301 463.291C275.362 461.113 281.613 451.601 284.354 459.345Z" fill="#551821"/>
<path d="M226.271 505.041L176.667 471.541L176.797 486.342L226.401 519.842L226.271 505.041Z" fill="#641A26"/>
<path d="M275.058 492.866C273.485 491.8 270.759 491.868 268.542 491.458C267.425 491.271 266.334 490.953 265.29 490.512C264.665 490.181 264.071 489.793 263.515 489.353L289.853 478.261L269.333 464.404L269.595 464.28C270.474 463.898 271.374 463.568 272.292 463.291C275.35 462.616 279.482 463.435 282.241 462.274C285.387 460.876 284.713 457.602 280.727 454.91C276.693 452.184 270.786 451.087 267.434 452.501C265.513 453.36 265.589 454.777 264.807 455.94C264.331 456.643 263.711 457.236 262.987 457.68C262.891 457.739 262.52 457.925 262.053 458.13C261.666 458.303 261.212 458.49 260.79 458.634L240.244 444.757L176.657 471.537L226.262 505.043L252.571 493.963C253.307 494.417 253.995 494.945 254.624 495.537C255.853 497.157 254.267 499.36 256.33 500.761C258.871 502.477 265.117 502.111 270.287 499.925C270.434 499.864 270.577 499.801 270.717 499.738C275.581 497.557 277.527 494.532 275.058 492.866Z" fill="url(#paint0_linear)"/>
<g filter="url(#filter3_f)">
<path d="M227.679 392.241L292.872 364.784L343.731 399.131L316.728 410.501C317.295 410.954 317.904 411.351 318.548 411.688C319.616 412.142 320.735 412.468 321.88 412.66C324.151 413.08 326.94 413.01 328.557 414.103C331.087 415.812 329.094 418.915 324.115 421.137C323.972 421.2 323.825 421.265 323.666 421.328C318.368 423.559 311.96 423.944 309.358 422.185C307.243 420.757 308.868 418.49 307.605 416.831C306.96 416.225 306.254 415.688 305.498 415.228L278.535 426.586L257.493 412.376C257.578 412.336 257.668 412.293 257.762 412.253C258.664 411.86 259.589 411.521 260.531 411.236C263.676 410.546 267.914 411.385 270.624 410.242C273.947 408.763 273.27 405.405 269.181 402.644C265.047 399.851 258.991 398.726 255.653 400.132C253.581 401.054 253.664 402.509 252.86 403.701C252.372 404.421 251.736 405.029 250.995 405.484C250.896 405.545 250.521 405.733 250.044 405.947C249.644 406.125 249.175 406.318 248.739 406.467L227.679 392.241Z" fill="#C9C9C9"/>
</g>
<path d="M263.779 400.767L263.913 400.737L264.122 400.692C264.172 400.681 264.223 400.674 264.273 400.665L264.421 400.641L264.525 412.444L284.057 425.635L283.933 411.549L267.756 400.623C267.994 400.65 268.234 400.683 268.475 400.722L268.632 400.751L268.908 400.8L269.092 400.836L269.362 400.892L269.531 400.931L269.955 401.032L270.068 401.061C270.243 401.106 270.416 401.156 270.591 401.205L270.683 401.234C270.926 401.306 271.166 401.38 271.405 401.459H271.431C271.672 401.542 271.91 401.63 272.148 401.722L272.2 401.743C272.47 401.848 272.735 401.967 273 402.08L273.036 402.096C273.303 402.217 273.566 402.345 273.824 402.478L273.849 402.491C274.11 402.626 274.368 402.768 274.618 402.916H274.633C274.887 403.067 275.137 403.224 275.379 403.386C277.534 404.843 278.669 406.478 278.682 407.87C278.64 403.175 278.598 398.48 278.556 393.784C278.545 392.39 277.41 390.757 275.256 389.3C275.013 389.136 274.764 388.979 274.51 388.828H274.494C274.245 388.68 273.986 388.538 273.726 388.401L273.699 388.387C273.44 388.255 273.18 388.129 272.914 388.007L272.874 387.989C272.611 387.872 272.346 387.764 272.079 387.654H272.063L272.018 387.639C271.793 387.546 271.551 387.461 271.312 387.378L271.279 387.366C271.043 387.285 270.805 387.211 270.566 387.142L270.504 387.124H270.463C270.292 387.072 270.117 387.025 269.944 386.98L269.829 386.95C269.69 386.914 269.551 386.881 269.409 386.849L269.326 386.829L269.232 386.809L268.976 386.755L268.78 386.717L268.52 386.669L268.382 386.645H268.346C268.108 386.606 267.868 386.573 267.632 386.543H267.569H267.524C267.317 386.521 267.111 386.503 266.908 386.487H266.857H266.794C266.603 386.487 266.412 386.467 266.223 386.462H266.207C266.03 386.462 265.855 386.462 265.682 386.462H265.551C265.376 386.462 265.205 386.478 265.037 386.492H265.021H264.983C264.805 386.507 264.635 386.528 264.466 386.55H264.408H264.369L264.17 386.584L264.008 386.613C263.943 386.613 263.877 386.64 263.815 386.654L263.682 386.683H263.664C263.513 386.719 263.367 386.762 263.215 386.806L263.116 386.838C262.972 386.887 262.83 386.937 262.696 386.993C262.561 387.049 262.487 387.092 262.39 387.144L262.307 387.191L262.203 387.247L262.123 387.301L262.019 387.369C261.968 387.405 261.916 387.441 261.866 387.479L261.781 387.544L261.752 387.567C261.693 387.616 261.64 387.663 261.588 387.715L261.568 387.735C261.525 387.776 261.487 387.814 261.449 387.857L261.415 387.895L261.361 387.958C261.325 388.001 261.289 388.046 261.255 388.091L261.21 388.151L261.186 388.185L261.141 388.255L261.055 388.385L260.999 388.484C260.974 388.529 260.95 388.574 260.927 388.619L260.903 388.659L260.882 388.707C260.842 388.785 260.806 388.864 260.77 388.943L260.75 388.983C260.703 389.091 260.655 389.208 260.61 389.307C260.581 389.377 260.55 389.446 260.518 389.516L260.478 389.611C260.435 389.705 260.392 389.797 260.345 389.887C260.323 389.934 260.298 389.979 260.271 390.024C260.244 390.069 260.246 390.074 260.231 390.099C260.193 390.168 260.148 390.238 260.103 390.308C260.058 390.377 260.04 390.395 260.008 390.438C259.977 390.481 259.918 390.562 259.871 390.623L259.808 390.704C259.743 390.784 259.673 390.863 259.602 390.944L259.588 390.958C259.512 391.041 259.431 391.124 259.348 391.203L259.274 391.272C259.213 391.331 259.148 391.387 259.083 391.443L258.988 391.522L258.784 391.682L258.689 391.751C258.586 391.823 258.483 391.895 258.373 391.963L258.352 391.974L258.319 391.992L258.298 392.003L258.249 392.028L258.218 392.046L258.161 392.075L258.121 392.095L258.056 392.127L258.002 392.154L257.932 392.188L257.849 392.226L257.797 392.251L257.701 392.296L257.647 392.32L257.49 392.392C257.119 392.556 256.683 392.736 256.278 392.874L236.73 379.669L236.854 393.755L256.402 406.96C256.806 406.825 257.242 406.645 257.613 406.478L257.773 406.406H257.8L257.921 406.348L257.968 406.328L258.056 406.285L258.112 406.258L258.179 406.224L258.222 406.204L258.287 406.17L258.321 406.155L258.377 406.125L258.402 406.112L258.444 406.089H258.462L258.489 406.074C258.599 406.006 258.714 405.936 258.806 405.862L258.905 405.79L259.105 405.635L259.154 405.559L259.202 405.516C259.265 405.462 259.327 405.408 259.386 405.352L259.467 405.277C259.55 405.199 259.629 405.118 259.705 405.035L259.718 405.019C259.79 404.94 259.858 404.859 259.923 404.781L259.986 404.702L260.125 404.515L260.159 404.47L260.217 404.385C260.262 404.317 260.305 404.248 260.345 404.178L260.399 404.079C260.419 404.043 260.44 404.009 260.458 403.973C260.505 403.881 260.55 403.787 260.59 403.692C260.604 403.667 260.616 403.64 260.626 403.613L260.734 403.362L260.86 403.071C260.869 403.054 260.877 403.036 260.885 403.018L260.992 402.793L261.04 402.703C261.062 402.658 261.087 402.613 261.111 402.57C261.129 402.536 261.148 402.503 261.17 402.471C261.195 402.426 261.224 402.381 261.253 402.338L261.32 402.237C261.336 402.215 261.352 402.194 261.37 402.174C261.401 402.129 261.437 402.087 261.473 402.044C261.491 402.021 261.51 401.999 261.529 401.979C261.577 401.925 261.626 401.873 261.68 401.819L261.7 401.799C261.761 401.74 261.826 401.684 261.896 401.628L261.979 401.563C262.028 401.527 262.078 401.488 262.132 401.452L262.235 401.385C262.293 401.349 262.354 401.311 262.419 401.275L262.502 401.228C262.599 401.178 262.698 401.126 262.808 401.079C262.918 401.032 263.084 400.971 263.228 400.924L263.327 400.89C263.48 400.836 263.626 400.803 263.779 400.767Z" fill="#3F679B"/>
<path d="M344.575 400.162L344.451 386.073L319.385 396.618L319.486 408.343H319.463L319.299 408.361C319.099 408.383 318.902 408.403 318.704 408.419H318.645L318.214 408.451H318.054L317.731 408.464H317.614C317.362 408.464 317.113 408.464 316.87 408.464H316.774C316.569 408.464 316.369 408.451 316.176 408.439H316.129C315.947 408.426 315.767 408.41 315.592 408.39L315.462 408.374C315.311 408.356 315.163 408.336 315.012 408.313H314.96C314.805 408.289 314.653 408.259 314.511 408.226L314.396 408.201C314.259 408.169 314.122 408.133 313.992 408.097L313.934 408.082L313.853 408.055L313.642 407.985L313.534 407.947L313.358 407.879L313.262 407.839L313.098 407.765L313.006 407.72C312.949 407.693 312.896 407.663 312.842 407.634L312.767 407.594C312.691 407.549 312.617 407.504 312.543 407.457C311.604 406.82 311.46 406.006 311.437 405.161V404.486C311.437 403.791 311.383 403.101 310.925 402.498C310.327 401.935 309.671 401.436 308.968 401.009L283.933 411.549L284.057 425.635L309.092 415.091C309.797 415.517 310.456 416.015 311.058 416.577C311.469 417.119 311.55 417.731 311.568 418.354C311.568 418.579 311.568 418.804 311.568 419.029C311.568 419.953 311.658 420.852 312.678 421.543C312.75 421.59 312.821 421.633 312.902 421.677L312.979 421.72L313.138 421.806L313.233 421.848L313.397 421.925L313.493 421.963L313.547 421.986L313.671 422.033L313.776 422.071L313.983 422.138L314.071 422.165H314.086H314.122C314.255 422.206 314.394 422.24 314.534 422.273L314.594 422.287H314.644C314.792 422.321 314.945 422.35 315.093 422.377H315.131C315.277 422.399 315.43 422.422 315.581 422.44H315.646H315.706C315.882 422.46 316.061 422.476 316.246 422.489H316.295C316.491 422.503 316.691 422.51 316.893 422.516H316.985C317.228 422.516 317.477 422.516 317.729 422.516H317.798H317.859L318.18 422.503H318.34L318.8 422.471H318.827C319.027 422.456 319.227 422.433 319.43 422.411L319.587 422.393C319.764 422.372 319.942 422.35 320.122 422.323H320.187H320.209C320.375 422.298 320.542 422.273 320.71 422.244L320.793 422.228L321.216 422.152L321.405 422.114L321.724 422.049C321.795 422.035 321.865 422.017 321.935 422.001L322.236 421.934L322.317 421.916L322.384 421.898C322.656 421.83 322.928 421.761 323.2 421.684L323.305 421.655C323.582 421.576 323.856 421.493 324.13 421.405L324.213 421.376C324.494 421.284 324.775 421.187 325.053 421.086L325.103 421.066C325.391 420.958 325.678 420.841 325.959 420.726L326.368 420.551C326.559 420.465 326.743 420.378 326.923 420.292L327.105 420.2L327.451 420.025L327.651 419.917L327.956 419.748C328.019 419.712 328.082 419.676 328.143 419.638L328.258 419.573L328.442 419.458L328.604 419.357C328.714 419.285 328.828 419.215 328.925 419.132L329.028 419.062C329.165 418.966 329.296 418.871 329.421 418.774L329.516 418.7C329.588 418.642 329.664 418.583 329.741 418.525L329.781 418.489C329.871 418.412 329.956 418.336 330.042 418.264L330.156 418.16C330.275 418.048 330.381 417.936 330.491 417.823C330.581 417.726 330.666 417.628 330.745 417.529L330.817 417.434C330.857 417.38 330.902 417.326 330.938 417.272L330.967 417.227C330.988 417.2 331.003 417.173 331.021 417.146C331.066 417.077 331.109 417.007 331.147 416.939C331.163 416.91 331.181 416.881 331.194 416.852L331.223 416.805C331.259 416.73 331.293 416.658 331.322 416.58C331.322 416.566 331.322 416.555 331.338 416.541C331.358 416.492 331.379 416.44 331.394 416.391C331.41 416.341 331.414 416.328 331.423 416.296L331.437 416.247C331.458 416.173 331.474 416.098 331.486 416.022C331.487 416.007 331.487 415.992 331.486 415.977V415.932C331.496 415.852 331.501 415.772 331.502 415.691V415.667C331.475 412.324 331.446 408.981 331.414 405.64L344.575 400.162Z" fill="#5988C6"/>
<path d="M236.724 379.667L297.242 354.18L344.451 386.062L319.385 396.618C319.912 397.038 320.478 397.407 321.075 397.72C322.066 398.14 323.104 398.442 324.166 398.619C326.274 399.008 328.865 398.945 330.366 399.968C332.714 401.556 330.864 404.434 326.243 406.49C326.11 406.55 325.973 406.609 325.834 406.667C320.915 408.738 314.968 409.096 312.55 407.463C310.588 406.139 312.101 404.034 310.925 402.494C310.327 401.93 309.671 401.431 308.968 401.005L283.934 411.549L264.401 398.363L264.651 398.248C265.488 397.883 266.346 397.568 267.221 397.306C270.142 396.665 274.074 397.441 276.591 396.382C279.676 395.008 279.047 391.884 275.243 389.327C271.405 386.737 265.783 385.691 262.685 386.995C260.761 387.852 260.838 389.201 260.092 390.31C259.639 390.978 259.049 391.542 258.362 391.965C258.267 392.021 257.912 392.19 257.479 392.395C257.108 392.559 256.672 392.739 256.268 392.876L236.724 379.667Z" fill="#71A0DD"/>
<g filter="url(#filter4_f)">
<path d="M520.509 410.816L491.385 398.551C490.57 399.049 489.808 399.629 489.111 400.283C487.75 402.081 489.504 404.524 487.224 406.064C484.411 407.964 477.495 407.548 471.772 405.137C471.61 405.07 471.453 405.003 471.298 404.933C465.921 402.533 463.769 399.183 466.501 397.339C468.247 396.158 471.26 396.235 473.709 395.781C474.944 395.573 476.151 395.221 477.304 394.73C477.998 394.368 478.655 393.939 479.268 393.451L450.123 381.173L427.38 396.532C426.911 396.374 426.403 396.165 425.974 395.972C425.459 395.747 425.052 395.538 424.947 395.472C424.144 394.981 423.455 394.325 422.925 393.548C422.059 392.259 422.145 390.689 420.019 389.74C416.307 388.166 409.769 389.39 405.302 392.403C400.889 395.385 400.159 399.012 403.626 400.559C406.673 401.843 411.265 400.937 414.636 401.683C415.653 401.99 416.652 402.355 417.626 402.779L417.918 402.916L395.205 418.261L465.595 447.899L520.509 410.816Z" fill="#CBCED0"/>
</g>
<path d="M469.696 384.486C469.696 383.811 470.056 383.186 470.795 382.687C470.915 382.605 471.039 382.529 471.168 382.462L471.292 382.399C471.384 382.354 471.478 382.311 471.577 382.273L471.649 382.24L471.714 382.217C471.869 382.159 472.029 382.102 472.195 382.055C472.363 382.006 472.536 381.963 472.714 381.922L472.775 381.907L472.853 381.893C473.06 381.848 473.269 381.808 473.482 381.772H473.503H473.57C473.783 381.737 473.998 381.706 474.217 381.677H474.305C474.529 381.646 474.774 381.619 475.013 381.592H475.053L475.215 381.572L475.693 381.518C475.918 381.493 476.143 381.466 476.367 381.437L476.5 381.421C476.725 381.392 476.936 381.36 477.149 381.327L477.489 381.268C477.713 381.225 477.949 381.178 478.178 381.129L478.306 381.099C478.473 381.063 478.637 381.023 478.801 380.982H478.814C478.983 380.94 479.145 380.895 479.309 380.848L479.459 380.803L479.794 380.697L479.958 380.641C480.068 380.602 480.183 380.564 480.282 380.524L480.416 380.472C480.558 380.416 480.697 380.357 480.827 380.299C481.471 379.96 482.082 379.562 482.652 379.109L482.517 394.317C481.949 394.77 481.338 395.169 480.695 395.507C480.562 395.568 480.423 395.626 480.282 395.682L480.25 395.696L480.158 395.73C480.047 395.773 479.935 395.814 479.821 395.851C479.769 395.871 479.715 395.887 479.661 395.905C479.554 395.943 479.437 395.977 479.329 396.011L479.225 396.044L479.174 396.058C479.012 396.105 478.848 396.15 478.684 396.191H478.664C478.502 396.231 478.34 396.269 478.176 396.305L478.122 396.319L478.041 396.334C477.817 396.386 477.592 396.433 477.367 396.476L477.084 396.526H477.024C476.812 396.559 476.599 396.591 476.381 396.618L476.237 396.636C476.012 396.665 475.81 396.69 475.594 396.715H475.574L475.125 396.766L474.9 396.793L474.201 396.876L474.116 396.89C473.897 396.917 473.682 396.948 473.469 396.984L473.381 396.998C473.166 397.034 472.954 397.074 472.748 397.119L472.613 397.149C472.435 397.189 472.262 397.232 472.094 397.281C471.925 397.331 471.766 397.387 471.609 397.445L471.471 397.499C471.373 397.54 471.278 397.583 471.186 397.628L471.06 397.688C470.933 397.756 470.809 397.832 470.69 397.913C469.95 398.415 469.598 399.037 469.591 399.712L469.696 384.486Z" fill="#0B224A"/>
<path d="M410.343 398.819C410.343 398.792 410.343 398.761 410.325 398.732C410.318 398.707 410.312 398.681 410.309 398.655C410.309 398.655 410.309 398.637 410.309 398.628C410.309 398.619 410.309 398.547 410.294 398.507C410.278 398.466 410.294 398.446 410.294 398.417C410.294 398.388 410.294 398.331 410.294 398.289C410.294 398.246 410.294 398.241 410.294 398.217V398.185L410.426 382.977C410.426 383.011 410.426 383.045 410.426 383.08C410.426 383.116 410.426 383.164 410.426 383.206C410.426 383.249 410.426 383.267 410.437 383.299L410.451 383.418C410.451 383.454 410.464 383.487 410.473 383.523C410.482 383.559 410.473 383.582 410.489 383.611C410.505 383.64 410.509 383.683 410.521 383.719C410.527 383.747 410.535 383.775 410.545 383.802C410.545 383.816 410.545 383.829 410.561 383.845C410.597 383.95 410.64 384.053 410.689 384.153C410.739 384.25 410.795 384.343 410.858 384.432L410.887 384.477C410.951 384.566 411.02 384.652 411.093 384.733L411.156 384.801L411.228 384.875L411.316 384.956L411.397 385.026L411.475 385.091C411.523 385.127 411.57 385.165 411.622 385.201L411.698 385.257L411.873 385.37L411.943 385.412C411.997 385.444 412.051 385.475 412.109 385.505L412.185 385.547C412.269 385.59 412.354 385.631 412.446 385.671C412.619 385.745 412.797 385.81 412.981 385.869L413.17 385.921C413.295 385.957 413.419 385.995 413.549 386.024L413.653 386.047C413.799 386.08 413.947 386.11 414.102 386.136L414.284 386.166C414.423 386.188 414.563 386.208 414.706 386.226L414.848 386.244C415.032 386.267 415.221 386.285 415.41 386.298C415.529 386.298 415.65 386.314 415.769 386.323L416.073 386.341L416.446 386.357H416.744L417.459 386.373H417.479H418.324H418.863H419.131H419.58H419.697H419.895L420.243 386.386L420.564 386.404L420.899 386.427H421.011C421.135 386.427 421.258 386.449 421.38 386.46H421.456C421.616 386.476 421.773 386.496 421.93 386.519H421.984C422.209 386.553 422.447 386.593 422.658 386.642H422.678H422.701H422.732L422.78 386.656H422.818L422.883 386.676L422.93 386.692L423.011 386.717L423.063 386.732L423.157 386.764L423.215 386.784L423.321 386.818L423.382 386.84L423.499 386.881L423.564 386.903L423.683 386.944L423.761 386.971L423.874 387.011L423.966 387.045L424.076 387.085L424.175 387.121L424.287 387.164L424.388 387.202L424.503 387.247L424.604 387.286L424.716 387.331L424.818 387.371L424.93 387.416L425.029 387.456L425.148 387.506L425.235 387.542L425.433 387.63L425.705 387.756L425.57 402.964L425.298 402.838L425.101 402.752L425.035 402.725L424.894 402.667L424.813 402.633L424.683 402.579L424.593 402.543L424.469 402.496L424.375 402.458L424.254 402.413L424.155 402.375L424.042 402.332L423.946 402.296L423.831 402.255L423.739 402.222L423.631 402.181L423.53 402.147L423.438 402.116L423.341 402.082L423.254 402.051L423.171 402.024L423.087 401.994L423.011 401.97L422.935 401.945L422.867 401.923L422.802 401.902L422.741 401.884L422.69 401.869L422.643 401.855L422.598 401.842H422.566H422.523C422.299 401.792 422.074 401.754 421.849 401.718C421.676 401.691 421.501 401.668 421.324 401.648H421.234C421.079 401.632 420.921 401.617 420.764 401.605L420.434 401.585L420.108 401.567C419.996 401.567 419.883 401.567 419.767 401.554H419.443H418.994H418.715H418.182H417.484H417.311C417.072 401.554 416.837 401.549 416.603 401.54H416.569H416.277L415.929 401.527C415.823 401.527 415.72 401.513 415.614 401.506L415.268 401.484H415.23C415.05 401.468 414.875 401.453 414.7 401.432L414.569 401.414C414.482 401.414 414.392 401.394 414.304 401.381C414.248 401.381 414.194 401.363 414.138 401.354L413.958 401.324C413.81 401.297 413.662 401.268 413.509 401.234L413.403 401.212H413.374C413.253 401.183 413.149 401.147 413.021 401.113C412.958 401.095 412.896 401.081 412.837 401.061C412.653 401.003 412.473 400.938 412.3 400.866C412.21 400.825 412.125 400.782 412.039 400.74L411.954 400.695L411.799 400.607H411.779L411.725 400.571L411.556 400.463L411.473 400.405L411.332 400.297L411.284 400.261C411.274 400.25 411.263 400.24 411.251 400.231L411.172 400.162L411.084 400.079L411.013 400.007L410.968 399.959L410.95 399.937C410.876 399.856 410.807 399.77 410.743 399.681L410.729 399.665C410.723 399.656 410.718 399.647 410.714 399.638C410.652 399.548 410.596 399.455 410.545 399.359C410.497 399.261 410.454 399.161 410.417 399.058C410.417 399.058 410.417 399.04 410.417 399.031V399.01C410.417 398.983 410.401 398.956 410.395 398.929C410.388 398.902 410.352 398.858 410.343 398.819Z" fill="#204D7F"/>
<path d="M404.616 402.105L404.481 417.313L469.825 444.83L469.958 429.622L404.616 402.105Z" fill="#204D80"/>
<path d="M469.958 429.622L469.826 444.83L520.799 410.407L520.931 395.199L469.958 429.622Z" fill="#0E2754"/>
<path d="M520.931 395.199L493.899 383.814C493.142 384.275 492.434 384.813 491.787 385.419C490.524 387.083 492.153 389.357 490.034 390.787C487.423 392.55 481.004 392.163 475.692 389.928L475.243 389.737C470.255 387.508 468.255 384.398 470.79 382.687C472.412 381.592 475.209 381.662 477.483 381.241C478.63 381.048 479.751 380.722 480.822 380.267C481.466 379.928 482.077 379.53 482.646 379.078L455.589 367.67L434.469 381.929C434.033 381.781 433.57 381.587 433.163 381.41C432.685 381.196 432.309 381.007 432.21 380.946C431.466 380.486 430.828 379.873 430.339 379.147C429.534 377.951 429.615 376.494 427.643 375.615C424.196 374.16 418.127 375.289 413.981 378.088C409.885 380.856 409.207 384.221 412.427 385.658C415.253 386.849 419.507 386.011 422.65 386.703C423.594 386.986 424.521 387.326 425.425 387.72L425.697 387.846L404.607 402.102L469.949 429.62L520.931 395.199Z" fill="#0A3D76"/>
<g filter="url(#filter5_d)">
<path d="M406 8H432.492" stroke="#EBF2F9" stroke-width="10.45" stroke-miterlimit="10"/>
<path d="M436.437 8H449.686" stroke="#EBF2F9" stroke-width="10.45" stroke-miterlimit="10"/>
</g>
<path d="M91.687 16.0042H65.1953" stroke="#EBF2F9" stroke-width="11.28" stroke-miterlimit="10"/>
<path d="M61.2459 16.0042H48" stroke="#EBF2F9" stroke-width="11.28" stroke-miterlimit="10"/>
<path d="M27.475 332.909C27.475 334.639 26.9624 336.33 26.002 337.768C25.0416 339.206 23.6766 340.327 22.0797 340.988C20.4827 341.65 18.7256 341.823 17.0305 341.485C15.3354 341.147 13.7786 340.313 12.5569 339.09C11.3352 337.866 10.5035 336.308 10.1671 334.611C9.83069 332.914 10.0047 331.156 10.667 329.558C11.3293 327.96 12.4502 326.595 13.888 325.635C15.3257 324.675 17.0156 324.163 18.744 324.164C21.0602 324.166 23.2809 325.088 24.9181 326.728C26.5553 328.368 27.475 330.591 27.475 332.909V332.909Z" stroke="#EBF2F9" stroke-width="10.45" stroke-miterlimit="10"/>
<path d="M148.59 167.34C148.599 171.162 147.474 174.901 145.358 178.082C143.243 181.264 140.231 183.746 136.706 185.214C133.18 186.682 129.298 187.069 125.552 186.328C121.806 185.586 118.364 183.749 115.662 181.049C112.959 178.348 111.119 174.906 110.372 171.158C109.626 167.41 110.007 163.525 111.469 159.994C112.93 156.463 115.405 153.445 118.581 151.323C121.757 149.201 125.491 148.07 129.309 148.073C134.418 148.073 139.318 150.102 142.933 153.714C146.548 157.327 148.582 162.228 148.59 167.34Z" stroke="#EBF2F9" stroke-width="10.45" stroke-miterlimit="10"/>
<path d="M595 321.131C595.006 323.903 594.19 326.615 592.655 328.923C591.12 331.231 588.935 333.031 586.377 334.096C583.819 335.16 581.002 335.442 578.284 334.904C575.566 334.366 573.069 333.033 571.108 331.075C569.147 329.116 567.812 326.619 567.27 323.901C566.728 321.182 567.005 318.363 568.066 315.802C569.126 313.241 570.922 311.052 573.226 309.513C575.531 307.974 578.24 307.153 581.01 307.155C584.717 307.155 588.272 308.627 590.895 311.248C593.518 313.868 594.994 317.423 595 321.131Z" stroke="#EBF2F9" stroke-width="6" stroke-miterlimit="10"/>
</g>
<defs>
<filter id="filter0_d" x="0.774902" y="2.77499" width="601.225" height="548.225" filterUnits="userSpaceOnUse" color-interpolation-filters="sRGB">
<feFlood flood-opacity="0" result="BackgroundImageFix"/>
<feColorMatrix in="SourceAlpha" type="matrix" values="0 0 0 0 0 0 0 0 0 0 0 0 0 0 0 0 0 0 127 0"/>
<feOffset dy="4"/>
<feGaussianBlur stdDeviation="2"/>
<feColorMatrix type="matrix" values="0 0 0 0 0 0 0 0 0 0 0 0 0 0 0 0 0 0 0.25 0"/>
<feBlend mode="normal" in2="BackgroundImageFix" result="effect1_dropShadow"/>
<feBlend mode="normal" in="SourceGraphic" in2="effect1_dropShadow" result="shape"/>
</filter>
<filter id="filter1_f" x="364.246" y="471.649" width="134.484" height="75.3515" filterUnits="userSpaceOnUse" color-interpolation-filters="sRGB">
<feFlood flood-opacity="0" result="BackgroundImageFix"/>
<feBlend mode="normal" in="SourceGraphic" in2="BackgroundImageFix" result="shape"/>
<feGaussianBlur stdDeviation="2" result="effect1_foregroundBlur"/>
</filter>
<filter id="filter2_f" x="163.986" y="451.404" width="134.484" height="75.3537" filterUnits="userSpaceOnUse" color-interpolation-filters="sRGB">
<feFlood flood-opacity="0" result="BackgroundImageFix"/>
<feBlend mode="normal" in="SourceGraphic" in2="BackgroundImageFix" result="shape"/>
<feGaussianBlur stdDeviation="2" result="effect1_foregroundBlur"/>
</filter>
<filter id="filter3_f" x="223.679" y="360.784" width="124.052" height="69.8016" filterUnits="userSpaceOnUse" color-interpolation-filters="sRGB">
<feFlood flood-opacity="0" result="BackgroundImageFix"/>
<feBlend mode="normal" in="SourceGraphic" in2="BackgroundImageFix" result="shape"/>
<feGaussianBlur stdDeviation="2" result="effect1_foregroundBlur"/>
</filter>
<filter id="filter4_f" x="391.205" y="377.173" width="133.305" height="74.7263" filterUnits="userSpaceOnUse" color-interpolation-filters="sRGB">
<feFlood flood-opacity="0" result="BackgroundImageFix"/>
<feBlend mode="normal" in="SourceGraphic" in2="BackgroundImageFix" result="shape"/>
<feGaussianBlur stdDeviation="2" result="effect1_foregroundBlur"/>
</filter>
<filter id="filter5_d" x="404" y="0.774994" width="51.6859" height="18.45" filterUnits="userSpaceOnUse" color-interpolation-filters="sRGB">
<feFlood flood-opacity="0" result="BackgroundImageFix"/>
<feColorMatrix in="SourceAlpha" type="matrix" values="0 0 0 0 0 0 0 0 0 0 0 0 0 0 0 0 0 0 127 0"/>
<feOffset dx="2" dy="2"/>
<feGaussianBlur stdDeviation="2"/>
<feColorMatrix type="matrix" values="0 0 0 0 0 0 0 0 0 0 0 0 0 0 0 0 0 0 0.15 0"/>
<feBlend mode="normal" in2="BackgroundImageFix" result="effect1_dropShadow"/>
<feBlend mode="normal" in="SourceGraphic" in2="effect1_dropShadow" result="shape"/>
</filter>
<linearGradient id="paint0_linear" x1="286.364" y1="474.9" x2="180.13" y2="470.617" gradientUnits="userSpaceOnUse">
<stop stop-color="#A62E41"/>
<stop offset="1" stop-color="#E13152"/>
</linearGradient>
</defs>
</svg>
