<svg width="340" height="235" viewBox="0 0 340 235" fill="none" xmlns="http://www.w3.org/2000/svg">
<g clip-path="url(#clip0)">
<g filter="url(#filter0_d)">
<path d="M293.654 94.8828H287.85" stroke="#0A3D76" stroke-width="4" stroke-miterlimit="10"/>
<path d="M286.986 94.8828H284.083" stroke="#0A3D76" stroke-width="4" stroke-miterlimit="10"/>
</g>
<g filter="url(#filter1_d)">
<path d="M186.079 104.85L189.333 108.108" stroke="#71A0DD" stroke-width="2" stroke-miterlimit="10"/>
<path d="M191.63 110.407L194.884 113.666" stroke="#71A0DD" stroke-width="2" stroke-miterlimit="10"/>
<path d="M194.884 104.85L191.63 108.108" stroke="#71A0DD" stroke-width="2" stroke-miterlimit="10"/>
<path d="M189.333 110.407L186.079 113.666" stroke="#71A0DD" stroke-width="2" stroke-miterlimit="10"/>
</g>
<g filter="url(#filter2_d)">
<path d="M84.2458 165.416L85.2363 166.409" stroke="#7C9CD3" stroke-width="10.45" stroke-miterlimit="10"/>
<path d="M85.9346 167.109L86.9251 168.101" stroke="#7C9CD3" stroke-width="10.45" stroke-miterlimit="10"/>
<path d="M86.9251 165.416L85.9346 166.409" stroke="#7C9CD3" stroke-width="10.45" stroke-miterlimit="10"/>
<path d="M85.2361 167.109L84.2456 168.101" stroke="#7C9CD3" stroke-width="10.45" stroke-miterlimit="10"/>
</g>
<g filter="url(#filter3_d)">
<path d="M283.318 17.0674L290.955 24.718" stroke="#A62E41" stroke-width="3" stroke-miterlimit="10"/>
<path d="M296.346 30.1167L303.99 37.767" stroke="#A62E41" stroke-width="3" stroke-miterlimit="10"/>
<path d="M303.99 17.0669L296.346 24.7175" stroke="#A62E41" stroke-width="3" stroke-miterlimit="10"/>
<path d="M290.955 30.1167L283.317 37.767" stroke="#A62E41" stroke-width="3" stroke-miterlimit="10"/>
</g>
<g filter="url(#filter4_d)">
<path d="M36.0093 54.25L36.8583 55.1001" stroke="#7C9CD3" stroke-width="2" stroke-miterlimit="10"/>
<path d="M37.458 55.7007L38.3078 56.5507" stroke="#7C9CD3" stroke-width="2" stroke-miterlimit="10"/>
<path d="M38.3078 54.25L37.458 55.1001" stroke="#7C9CD3" stroke-width="2" stroke-miterlimit="10"/>
<path d="M36.8583 55.7007L36.0093 56.5507" stroke="#7C9CD3" stroke-width="2" stroke-miterlimit="10"/>
</g>
<g filter="url(#filter5_d)">
<path d="M262.262 57.6998C262.262 57.9273 262.195 58.1496 262.069 58.3388C261.942 58.5279 261.763 58.6753 261.553 58.7623C261.343 58.8493 261.112 58.8721 260.889 58.8276C260.667 58.7832 260.462 58.6736 260.301 58.5127C260.141 58.3517 260.032 58.1468 259.987 57.9236C259.943 57.7005 259.966 57.4692 260.053 57.2591C260.14 57.049 260.287 56.8695 260.476 56.7432C260.665 56.6169 260.887 56.5496 261.115 56.5498C261.419 56.55 261.711 56.6713 261.926 56.8869C262.141 57.1026 262.262 57.3949 262.262 57.6998V57.6998Z" stroke="#F985A0" stroke-width="10.45" stroke-miterlimit="10"/>
</g>
<g filter="url(#filter6_d)">
<path d="M173.875 234.8L5 181.89L176.125 132.833L335 181.89L173.875 234.8Z" fill="#FFF5F7"/>
</g>
<g filter="url(#filter7_f)">
<path d="M178.517 202.427L189.769 197.686C190.084 197.878 190.379 198.102 190.649 198.355C191.175 199.044 190.496 199.993 191.378 200.596C192.465 201.33 195.138 201.169 197.349 200.237C197.41 200.211 197.472 200.185 197.531 200.158C199.608 199.23 200.442 197.933 199.385 197.219C198.71 196.763 197.547 196.788 196.599 196.616C196.122 196.535 195.655 196.399 195.208 196.21C194.941 196.069 194.687 195.903 194.451 195.714L205.719 190.964L226.939 205.312L199.738 216.782L190.959 210.845L191.068 210.795C191.446 210.631 191.833 210.489 192.227 210.369C193.536 210.081 195.307 210.431 196.442 209.955C197.828 209.336 197.545 207.933 195.84 206.779C194.119 205.613 191.588 205.141 190.196 205.73C189.332 206.116 189.365 206.724 189.031 207.221C188.828 207.522 188.564 207.776 188.256 207.967C188.215 207.992 188.057 208.072 187.856 208.161C187.691 208.235 187.497 208.315 187.316 208.376L178.517 202.427Z" fill="#C2C2C2"/>
</g>
<path d="M201.959 194.252C201.959 193.993 201.824 193.767 201.549 193.58C201.505 193.551 201.463 193.524 201.411 193.494L201.364 193.472C201.33 193.455 201.294 193.439 201.258 193.424L201.231 193.412L201.207 193.404C201.149 193.382 201.089 193.361 201.027 193.342C200.963 193.324 200.899 193.308 200.834 193.292L200.811 193.287L200.784 193.282C200.706 193.265 200.627 193.249 200.546 193.236H200.539H200.52C200.434 193.223 200.348 193.211 200.267 193.199H200.24C200.154 193.187 200.06 193.177 199.97 193.167H199.954L199.735 193.142L199.477 193.111L199.43 193.105C199.344 193.093 199.264 193.081 199.183 193.068L199.056 193.047C198.97 193.031 198.884 193.013 198.798 192.995L198.753 192.985C198.69 192.971 198.628 192.956 198.567 192.941H198.562C198.5 192.925 198.439 192.908 198.378 192.891L198.32 192.873C198.278 192.861 198.234 192.847 198.195 192.834L198.134 192.813L198.01 192.768C197.994 192.761 197.978 192.756 197.962 192.749C197.91 192.729 197.859 192.707 197.81 192.685C197.57 192.559 197.343 192.41 197.131 192.242L197.18 197.915C197.393 198.084 197.62 198.232 197.86 198.359C197.909 198.382 197.96 198.402 198.012 198.424L198.023 198.428L198.059 198.441C198.1 198.457 198.145 198.472 198.185 198.487L198.244 198.507L198.373 198.547L198.408 198.559L198.426 198.564C198.487 198.582 198.549 198.599 198.612 198.615C198.675 198.63 198.738 198.646 198.802 198.659L198.82 198.664L198.846 198.669C198.932 198.688 199.018 198.706 199.104 198.721L199.21 198.74H199.23C199.311 198.753 199.394 198.765 199.476 198.777L199.526 198.783C199.612 198.794 199.693 198.803 199.778 198.814L199.944 198.833L200.011 198.84C200.103 198.851 200.194 198.861 200.285 198.873H200.306C200.392 198.884 200.478 198.896 200.564 198.91H200.592C200.673 198.923 200.751 198.939 200.829 198.956L200.879 198.966C200.945 198.982 201.01 198.998 201.073 199.016C201.135 199.034 201.197 199.056 201.256 199.078L201.307 199.098L201.413 199.146L201.459 199.169C201.507 199.195 201.554 199.221 201.597 199.255C201.874 199.441 202.005 199.672 202.008 199.927L201.959 194.252Z" fill="#8A4E5C"/>
<path d="M193.756 206.747C193.775 206.741 193.795 206.737 193.814 206.734L193.893 206.716L193.958 206.704L194.013 206.695L194.056 211.45L201.912 216.762L201.862 211.088L195.354 206.692C195.449 206.703 195.545 206.716 195.642 206.733L195.708 206.744L195.816 206.764L195.893 206.779L195.996 206.801L196.068 206.817C196.124 206.829 196.18 206.843 196.24 206.857L196.288 206.869C196.357 206.887 196.427 206.907 196.497 206.927L196.537 206.939C196.633 206.968 196.729 206.998 196.825 207.03L196.839 207.035C196.934 207.068 197.028 207.103 197.122 207.14L197.145 207.149C197.253 207.191 197.36 207.235 197.466 207.284L197.482 207.291C197.588 207.34 197.694 207.391 197.798 207.445L197.809 207.45C197.914 207.505 198.018 207.562 198.118 207.622H198.123C198.226 207.684 198.326 207.746 198.424 207.812C199.291 208.399 199.747 209.057 199.752 209.622L199.699 203.947C199.694 203.386 199.237 202.728 198.37 202.136C198.273 202.071 198.172 202.007 198.07 201.947H198.065C197.963 201.887 197.861 201.83 197.755 201.774L197.744 201.769C197.641 201.716 197.536 201.664 197.428 201.616L197.413 201.609C197.307 201.562 197.2 201.516 197.092 201.474H197.086L197.07 201.468C196.975 201.43 196.879 201.395 196.783 201.362H196.772C196.676 201.328 196.579 201.298 196.482 201.269L196.46 201.262H196.445C196.375 201.241 196.304 201.221 196.234 201.203L196.191 201.192C196.133 201.177 196.076 201.163 196.019 201.15L195.987 201.143L195.951 201.135L195.843 201.112L195.768 201.098L195.659 201.078L195.607 201.068H195.594C195.496 201.052 195.399 201.038 195.303 201.027H195.281H195.263C195.177 201.018 195.096 201.01 195.014 201.004H194.993C194.984 201.005 194.975 201.005 194.967 201.004C194.813 200.995 194.663 200.992 194.517 200.995H194.468C194.396 200.995 194.326 201.001 194.258 201.007H194.244C194.172 201.013 194.102 201.021 194.032 201.031C194.025 201.031 194.017 201.031 194.01 201.031H193.995L193.909 201.044L193.849 201.055L193.763 201.074L193.718 201.083H193.711C193.65 201.098 193.59 201.115 193.533 201.133L193.493 201.146C193.435 201.166 193.377 201.187 193.321 201.209C193.265 201.231 193.235 201.249 193.198 201.269L193.164 201.289L193.123 201.312L193.09 201.333L193.049 201.36C193.028 201.374 193.008 201.389 192.988 201.405L192.954 201.43L192.942 201.44C192.918 201.46 192.896 201.48 192.875 201.499L192.868 201.507L192.82 201.556L192.807 201.572L192.784 201.598C192.77 201.615 192.755 201.633 192.742 201.651L192.723 201.676L192.714 201.689C192.707 201.699 192.702 201.708 192.696 201.718C192.69 201.727 192.672 201.752 192.662 201.77C192.652 201.788 192.646 201.797 192.638 201.811L192.61 201.862C192.607 201.869 192.604 201.875 192.6 201.88C192.6 201.887 192.594 201.894 192.591 201.9C192.575 201.93 192.561 201.961 192.547 201.992C192.547 201.999 192.541 202.005 192.538 202.011C192.52 202.053 192.502 202.093 192.485 202.134C192.468 202.174 192.458 202.197 192.444 202.228L192.429 202.263C192.412 202.301 192.395 202.338 192.377 202.374C192.366 202.394 192.356 202.413 192.345 202.432C192.334 202.451 192.335 202.451 192.33 202.46C192.315 202.487 192.297 202.516 192.278 202.546C192.26 202.576 192.254 202.58 192.242 202.597L192.186 202.673L192.161 202.705C192.134 202.736 192.107 202.768 192.075 202.8L192.068 202.808C192.038 202.842 192.005 202.874 191.971 202.907L191.941 202.935C191.916 202.958 191.891 202.98 191.865 203.003C191.853 203.014 191.839 203.024 191.825 203.036C191.811 203.047 191.772 203.078 191.744 203.098C191.731 203.108 191.719 203.118 191.706 203.128C191.664 203.157 191.62 203.186 191.578 203.214L191.564 203.222H191.558L191.54 203.231L191.53 203.236L191.509 203.248L191.494 203.255L191.471 203.267L191.45 203.277L191.428 203.288L191.4 203.301L191.374 203.313L191.345 203.327L191.305 203.346L191.286 203.355L191.22 203.385C191.073 203.451 190.899 203.523 190.737 203.577L182.872 198.258L182.921 203.932L190.787 209.251C190.949 209.196 191.122 209.125 191.27 209.058L191.393 209.002L191.443 208.978L191.479 208.96L191.493 208.953L191.52 208.94L191.537 208.932L191.557 208.921L191.573 208.914L191.587 208.906L191.602 208.898L191.611 208.893L191.62 208.888C191.664 208.86 191.706 208.832 191.749 208.802L191.786 208.774C191.814 208.753 191.842 208.732 191.872 208.71L191.892 208.694L191.91 208.677C191.936 208.655 191.962 208.633 191.986 208.61L192.017 208.581C192.051 208.549 192.082 208.516 192.113 208.483L192.12 208.476C192.149 208.445 192.176 208.413 192.206 208.381L192.232 208.348L192.287 208.274C192.291 208.268 192.297 208.261 192.302 208.254L192.324 208.222C192.342 208.195 192.359 208.167 192.376 208.136C192.382 208.126 192.387 208.115 192.392 208.105C192.397 208.095 192.411 208.071 192.42 208.054C192.438 208.017 192.456 207.98 192.473 207.942L192.488 207.908C192.501 207.877 192.515 207.846 192.529 207.815C192.543 207.784 192.564 207.728 192.582 207.69C192.585 207.684 192.588 207.678 192.59 207.672C192.604 207.641 192.619 207.609 192.635 207.578C192.641 207.566 192.647 207.554 192.654 207.542L192.683 207.489L192.705 207.449C192.716 207.431 192.727 207.414 192.74 207.396C192.748 207.382 192.757 207.368 192.767 207.355L192.786 207.329C192.799 207.312 192.814 207.294 192.828 207.277C192.835 207.268 192.843 207.259 192.851 207.251C192.869 207.229 192.889 207.208 192.911 207.187L192.919 207.178C192.944 207.154 192.97 207.132 192.998 207.11L193.031 207.084C193.051 207.069 193.072 207.053 193.093 207.039L193.134 207.012C193.158 206.997 193.183 206.982 193.208 206.967L193.242 206.949C193.281 206.928 193.321 206.908 193.365 206.888C193.409 206.868 193.477 206.845 193.537 206.825L193.576 206.812C193.636 206.778 193.694 206.761 193.756 206.747Z" fill="#9A5364"/>
<path d="M226.205 200.824L226.255 206.497L201.913 216.762L201.862 211.089L226.205 200.824Z" fill="#DD6A85"/>
<path d="M182.874 198.248L192.944 194.001C193.226 194.174 193.49 194.377 193.732 194.604C194.202 195.226 193.595 196.07 194.385 196.607C195.358 197.264 197.749 197.125 199.727 196.286C199.783 196.263 199.837 196.239 199.891 196.215C201.75 195.384 202.496 194.224 201.551 193.585C200.949 193.177 199.905 193.202 199.056 193.046C198.629 192.973 198.212 192.851 197.813 192.682C197.573 192.556 197.346 192.407 197.134 192.239L207.216 187.987L226.206 200.831L201.863 211.096L194.007 205.783L194.104 205.739C194.442 205.591 194.789 205.464 195.142 205.358C196.313 205.099 197.894 205.413 198.91 204.986C200.15 204.432 199.898 203.176 198.371 202.142C196.828 201.098 194.566 200.676 193.32 201.203C192.546 201.548 192.577 202.092 192.277 202.537C192.095 202.806 191.857 203.034 191.581 203.204C191.544 203.227 191.402 203.298 191.223 203.377C191.075 203.443 190.901 203.515 190.739 203.569L182.874 198.248Z" fill="#F985A0"/>
<g filter="url(#filter8_f)">
<path d="M143.94 203.809C143.265 203.352 142.1 203.378 141.154 203.206C140.676 203.125 140.209 202.988 139.763 202.798C139.495 202.657 139.241 202.491 139.004 202.302L150.273 197.552L141.499 191.616C141.534 191.599 141.573 191.581 141.612 191.564C141.988 191.399 142.374 191.257 142.767 191.139C144.075 190.851 145.845 191.201 147.023 190.708C148.363 190.11 148.081 188.707 146.374 187.554C144.654 186.387 142.122 185.916 140.689 186.52C139.867 186.888 139.9 187.495 139.565 187.992C139.363 188.293 139.099 188.547 138.791 188.738C138.75 188.764 138.591 188.843 138.391 188.933C138.226 189.007 138.031 189.087 137.851 189.148L129.054 183.205L101.851 194.675L123.069 209.023L134.323 204.282C134.638 204.475 134.933 204.7 135.202 204.952C135.729 205.642 135.05 206.59 135.932 207.193C137.019 207.928 139.692 207.768 141.902 206.835C141.965 206.809 142.026 206.782 142.086 206.756C144.163 205.815 144.995 204.522 143.94 203.809Z" fill="#C9C9C9"/>
</g>
<path d="M141.784 186.228H141.778C141.427 186.334 141.083 186.46 140.746 186.606L140.646 186.654L140.695 192.327L140.796 192.28C141.131 192.134 141.474 192.008 141.824 191.902H141.83C141.916 191.882 142.01 191.866 142.104 191.852C142.214 191.837 142.329 191.824 142.448 191.814L142.399 186.141C142.282 186.15 142.167 186.163 142.054 186.179C141.965 186.191 141.87 186.208 141.784 186.228Z" fill="#613345"/>
<path d="M148.558 197.64L148.508 191.966L138.425 196.218L138.466 200.939C137.296 201.08 136.244 200.97 135.676 200.586C135.298 200.327 135.241 200.003 135.231 199.664V199.383C135.231 199.103 135.21 198.826 135.026 198.583C134.784 198.356 134.521 198.154 134.239 197.98L124.167 202.227L124.217 207.901L134.288 203.654C134.57 203.826 134.834 204.027 135.075 204.253C135.24 204.47 135.272 204.715 135.279 204.965V205.246C135.279 205.617 135.316 205.979 135.726 206.255C136.699 206.913 139.09 206.773 141.069 205.935L141.233 205.863C142.55 205.275 143.307 204.522 143.298 203.906C143.286 202.559 143.274 201.213 143.263 199.867L148.558 197.64Z" fill="#8E2838"/>
<path d="M146.4 184.716L146.45 190.389C145.482 191.681 143.071 192.264 141.836 191.902C141.484 192.008 141.14 192.135 140.803 192.281L140.703 192.329L140.653 186.655L140.753 186.607C141.09 186.461 141.435 186.334 141.786 186.228C142.958 185.393 145.35 181.747 146.4 184.716Z" fill="#551821"/>
<path d="M124.164 202.231L105.174 189.39L105.224 195.064L124.214 207.905L124.164 202.231Z" fill="#641A26"/>
<path d="M142.841 197.565C142.239 197.156 141.196 197.182 140.347 197.025C139.919 196.953 139.501 196.831 139.102 196.662C138.862 196.535 138.635 196.387 138.422 196.218L148.505 191.966L140.649 186.654L140.75 186.607C141.086 186.46 141.431 186.334 141.782 186.228C142.953 185.969 144.535 186.283 145.591 185.838C146.795 185.302 146.537 184.047 145.011 183.015C143.467 181.97 141.206 181.55 139.923 182.092C139.187 182.421 139.216 182.964 138.917 183.41C138.735 183.679 138.497 183.907 138.22 184.077C138.183 184.099 138.041 184.171 137.862 184.249C137.714 184.316 137.541 184.387 137.379 184.443L129.513 179.123L105.17 189.389L124.161 202.233L134.232 197.986C134.514 198.16 134.778 198.362 135.019 198.589C135.489 199.21 134.882 200.054 135.672 200.591C136.644 201.249 139.036 201.109 141.015 200.271C141.071 200.247 141.126 200.223 141.179 200.199C143.042 199.363 143.786 198.204 142.841 197.565Z" fill="url(#paint0_linear)"/>
<g filter="url(#filter9_f)">
<path d="M124.702 158.991L149.66 148.466L169.13 161.632L158.793 165.99C159.01 166.164 159.243 166.316 159.49 166.446C159.899 166.62 160.327 166.745 160.765 166.818C161.635 166.979 162.702 166.952 163.322 167.371C164.29 168.027 163.527 169.216 161.621 170.068C161.566 170.092 161.51 170.117 161.449 170.141C159.421 170.996 156.967 171.144 155.971 170.469C155.162 169.922 155.784 169.053 155.3 168.417C155.053 168.185 154.783 167.979 154.494 167.802L144.171 172.156L136.116 166.709C136.149 166.694 136.183 166.677 136.219 166.662C136.564 166.512 136.918 166.381 137.279 166.272C138.483 166.008 140.105 166.329 141.143 165.891C142.415 165.324 142.156 164.037 140.591 162.979C139.008 161.908 136.69 161.477 135.411 162.016C134.618 162.369 134.65 162.927 134.342 163.384C134.155 163.66 133.912 163.893 133.628 164.067C133.59 164.091 133.447 164.163 133.264 164.245C133.111 164.313 132.931 164.387 132.765 164.444L124.702 158.991Z" fill="#C9C9C9"/>
</g>
<path d="M138.522 162.259L138.573 162.248L138.653 162.231C138.672 162.226 138.692 162.224 138.711 162.22L138.768 162.211L138.807 166.736L146.285 171.792L146.238 166.393L140.044 162.204C140.136 162.214 140.228 162.227 140.32 162.242L140.38 162.253L140.486 162.272L140.556 162.286L140.659 162.308L140.724 162.322L140.886 162.361L140.929 162.372C140.997 162.389 141.063 162.408 141.13 162.427L141.165 162.439C141.258 162.466 141.35 162.495 141.441 162.525H141.452C141.544 162.557 141.635 162.59 141.726 162.626L141.746 162.633C141.849 162.674 141.951 162.72 142.052 162.763L142.066 162.769C142.168 162.815 142.269 162.864 142.368 162.915L142.377 162.92C142.477 162.972 142.576 163.026 142.671 163.083H142.677C142.775 163.141 142.87 163.201 142.963 163.263C143.788 163.822 144.222 164.449 144.227 164.982C144.211 163.182 144.195 161.383 144.179 159.583C144.175 159.048 143.741 158.422 142.916 157.864C142.823 157.801 142.727 157.741 142.63 157.683H142.624C142.529 157.626 142.43 157.572 142.33 157.519L142.32 157.514C142.221 157.463 142.121 157.415 142.019 157.368L142.004 157.361C141.903 157.316 141.802 157.275 141.699 157.233H141.693L141.676 157.227C141.59 157.191 141.497 157.159 141.406 157.127L141.393 157.123C141.303 157.091 141.212 157.063 141.12 157.036L141.096 157.029H141.081C141.015 157.01 140.948 156.992 140.882 156.974L140.838 156.963C140.785 156.949 140.732 156.936 140.677 156.924L140.646 156.917L140.609 156.909L140.511 156.888L140.437 156.873L140.337 156.855L140.284 156.846H140.271C140.179 156.831 140.087 156.818 139.997 156.807H139.973H139.956C139.877 156.798 139.797 156.792 139.72 156.785H139.7H139.676C139.603 156.785 139.53 156.778 139.458 156.776H139.452C139.384 156.776 139.317 156.776 139.25 156.776H139.201C139.133 156.776 139.068 156.782 139.004 156.787H138.998H138.983C138.915 156.793 138.85 156.801 138.785 156.81H138.763H138.748L138.672 156.823L138.61 156.834C138.585 156.834 138.56 156.844 138.536 156.849L138.485 156.86H138.478C138.42 156.874 138.364 156.891 138.306 156.908L138.268 156.92C138.213 156.939 138.159 156.958 138.107 156.979C138.056 157.001 138.027 157.017 137.99 157.037L137.958 157.055L137.919 157.077L137.888 157.098L137.848 157.123C137.829 157.137 137.809 157.151 137.79 157.166L137.757 157.191L137.746 157.199C137.724 157.218 137.703 157.236 137.683 157.256L137.675 157.264C137.659 157.279 137.644 157.294 137.63 157.31L137.617 157.325L137.596 157.349C137.583 157.366 137.569 157.383 137.556 157.4L137.539 157.423L137.529 157.436L137.512 157.463L137.479 157.513L137.458 157.551C137.448 157.568 137.439 157.585 137.43 157.603L137.421 157.618L137.413 157.636C137.398 157.666 137.384 157.697 137.37 157.727L137.362 157.742C137.344 157.784 137.326 157.829 137.309 157.866C137.298 157.893 137.286 157.92 137.274 157.947L137.258 157.983C137.242 158.019 137.226 158.054 137.207 158.089C137.199 158.107 137.189 158.124 137.179 158.141C137.169 158.159 137.17 158.16 137.164 158.17C137.149 158.197 137.132 158.223 137.115 158.25C137.097 158.277 137.09 158.284 137.078 158.3C137.066 158.316 137.044 158.347 137.026 158.371L137.002 158.402C136.977 158.433 136.95 158.463 136.923 158.494L136.918 158.499C136.888 158.531 136.857 158.563 136.826 158.593L136.797 158.62C136.774 158.642 136.749 158.664 136.724 158.685L136.688 158.716L136.61 158.777L136.574 158.803C136.534 158.831 136.494 158.859 136.452 158.884L136.444 158.889L136.432 158.896L136.424 158.9L136.405 158.909L136.393 158.916L136.371 158.928L136.356 158.935L136.331 158.947L136.31 158.958L136.284 158.971L136.252 158.985L136.232 158.995L136.195 159.012L136.174 159.022L136.114 159.049C135.972 159.112 135.805 159.181 135.651 159.234L128.167 154.172L128.214 159.572L135.698 164.633C135.853 164.581 136.02 164.513 136.161 164.449L136.223 164.421H136.233L136.279 164.399L136.297 164.391L136.331 164.375L136.352 164.364L136.378 164.351L136.395 164.344L136.42 164.331L136.432 164.325L136.454 164.313L136.463 164.308L136.48 164.3H136.487L136.497 164.294C136.539 164.268 136.583 164.241 136.618 164.213L136.656 164.185L136.733 164.125L136.752 164.096L136.77 164.08C136.794 164.059 136.818 164.038 136.84 164.017L136.871 163.988C136.903 163.958 136.933 163.927 136.962 163.895L136.967 163.889C136.995 163.859 137.021 163.828 137.046 163.798L137.07 163.768L137.123 163.696L137.136 163.679L137.158 163.646C137.176 163.62 137.192 163.594 137.207 163.567L137.228 163.529C137.236 163.515 137.244 163.502 137.25 163.488C137.269 163.453 137.286 163.417 137.301 163.381C137.306 163.371 137.311 163.361 137.315 163.351L137.356 163.254L137.404 163.143C137.408 163.136 137.411 163.129 137.414 163.122L137.455 163.036L137.473 163.001C137.482 162.984 137.491 162.967 137.501 162.951C137.507 162.937 137.515 162.925 137.523 162.913C137.533 162.895 137.544 162.878 137.555 162.862L137.581 162.823C137.587 162.815 137.593 162.807 137.6 162.799C137.612 162.782 137.626 162.765 137.639 162.749C137.646 162.74 137.653 162.732 137.661 162.724C137.679 162.703 137.698 162.683 137.718 162.663L137.726 162.655C137.749 162.632 137.774 162.611 137.801 162.589L137.833 162.564C137.852 162.551 137.871 162.536 137.891 162.522L137.931 162.496C137.953 162.483 137.976 162.468 138.001 162.454L138.033 162.436C138.07 162.417 138.108 162.397 138.15 162.379C138.192 162.361 138.256 162.338 138.311 162.32L138.349 162.307C138.407 162.286 138.463 162.273 138.522 162.259Z" fill="#3F679B"/>
<path d="M169.453 162.027L169.406 156.627L159.81 160.669L159.848 165.163H159.84L159.777 165.17C159.7 165.179 159.625 165.187 159.549 165.193H159.527L159.362 165.205H159.3L159.177 165.21H159.132C159.036 165.21 158.94 165.21 158.847 165.21H158.81C158.732 165.21 158.655 165.205 158.581 165.201H158.563C158.494 165.195 158.425 165.189 158.358 165.182L158.308 165.176C158.25 165.169 158.193 165.161 158.136 165.152H158.116C158.057 165.143 157.998 165.132 157.944 165.119L157.9 165.109C157.848 165.097 157.795 165.083 157.745 165.069L157.723 165.063L157.692 165.053L157.611 165.026L157.57 165.012L157.503 164.986L157.466 164.97L157.403 164.942L157.368 164.925C157.346 164.914 157.326 164.903 157.305 164.892L157.276 164.876C157.247 164.859 157.219 164.842 157.19 164.824C156.831 164.58 156.776 164.268 156.767 163.944V163.685C156.767 163.419 156.747 163.154 156.571 162.923C156.342 162.707 156.091 162.516 155.822 162.352L146.238 166.393L146.285 171.792L155.869 167.75C156.139 167.914 156.391 168.105 156.622 168.32C156.779 168.528 156.81 168.762 156.817 169.001C156.817 169.087 156.817 169.174 156.817 169.26C156.817 169.614 156.852 169.959 157.242 170.223C157.27 170.242 157.297 170.258 157.328 170.275L157.357 170.292L157.418 170.324L157.455 170.341L157.517 170.37L157.554 170.385L157.575 170.393L157.622 170.411L157.663 170.426L157.742 170.452L157.775 170.462H157.781H157.795C157.846 170.478 157.899 170.491 157.953 170.504L157.976 170.509H157.995C158.052 170.522 158.11 170.533 158.167 170.543H158.181C158.237 170.552 158.296 170.56 158.353 170.567H158.378H158.402C158.469 170.575 158.538 170.581 158.608 170.586H158.627C158.702 170.592 158.778 170.594 158.856 170.597H158.891C158.984 170.597 159.079 170.597 159.176 170.597H159.202H159.226L159.349 170.592H159.41L159.586 170.579H159.596C159.673 170.573 159.749 170.565 159.827 170.556L159.887 170.549C159.955 170.542 160.023 170.533 160.092 170.523H160.117H160.125C160.189 170.513 160.253 170.504 160.317 170.492L160.349 170.486L160.511 170.457L160.583 170.442L160.705 170.417C160.733 170.412 160.759 170.405 160.786 170.399L160.901 170.373L160.932 170.367L160.958 170.36C161.062 170.334 161.166 170.307 161.27 170.278L161.311 170.267C161.417 170.236 161.521 170.204 161.626 170.171L161.658 170.16C161.766 170.124 161.873 170.087 161.98 170.048L161.999 170.041C162.109 169.999 162.219 169.954 162.327 169.911L162.483 169.843C162.556 169.811 162.627 169.777 162.696 169.744L162.765 169.709L162.898 169.642L162.974 169.6L163.091 169.536C163.115 169.522 163.139 169.508 163.163 169.493L163.207 169.468L163.277 169.424L163.339 169.386C163.381 169.358 163.425 169.331 163.462 169.299L163.502 169.273C163.554 169.236 163.604 169.199 163.652 169.162L163.688 169.134C163.716 169.111 163.745 169.089 163.774 169.067L163.79 169.053C163.824 169.024 163.857 168.994 163.89 168.967L163.933 168.927C163.979 168.884 164.019 168.841 164.062 168.798C164.096 168.761 164.129 168.723 164.159 168.685L164.186 168.649C164.202 168.628 164.219 168.607 164.233 168.586L164.244 168.569C164.252 168.559 164.258 168.549 164.265 168.538C164.282 168.511 164.298 168.485 164.313 168.459C164.319 168.448 164.326 168.436 164.331 168.425L164.342 168.407C164.356 168.379 164.369 168.351 164.38 168.321C164.38 168.316 164.38 168.311 164.386 168.306C164.394 168.287 164.401 168.268 164.407 168.249C164.413 168.23 164.415 168.224 164.419 168.212L164.424 168.193C164.432 168.165 164.438 168.136 164.443 168.107C164.443 168.101 164.443 168.096 164.443 168.09V168.073C164.446 168.042 164.448 168.011 164.449 167.98V167.971C164.438 166.689 164.427 165.408 164.415 164.127L169.453 162.027Z" fill="#5988C6"/>
<path d="M128.165 154.171L151.333 144.401L169.406 156.623L159.81 160.669C160.012 160.83 160.228 160.972 160.457 161.092C160.837 161.253 161.234 161.369 161.641 161.436C162.447 161.586 163.439 161.561 164.014 161.954C164.913 162.562 164.205 163.666 162.435 164.453C162.385 164.477 162.332 164.499 162.279 164.522C160.396 165.315 158.119 165.452 157.194 164.827C156.443 164.319 157.021 163.512 156.572 162.922C156.342 162.706 156.091 162.514 155.822 162.351L146.238 166.393L138.761 161.338L138.856 161.294C139.177 161.154 139.505 161.034 139.84 160.933C140.958 160.687 142.464 160.985 143.427 160.579C144.608 160.052 144.367 158.855 142.911 157.875C141.442 156.882 139.29 156.481 138.104 156.981C137.367 157.309 137.396 157.826 137.111 158.251C136.937 158.507 136.712 158.724 136.449 158.886C136.412 158.907 136.277 158.972 136.111 159.05C135.969 159.113 135.802 159.182 135.647 159.235L128.165 154.171Z" fill="#71A0DD"/>
<g filter="url(#filter10_f)">
<path d="M236.806 166.112L225.657 161.41C225.345 161.601 225.053 161.823 224.786 162.074C224.265 162.763 224.937 163.7 224.064 164.29C222.987 165.019 220.339 164.859 218.148 163.935C218.086 163.909 218.026 163.883 217.967 163.857C215.908 162.937 215.084 161.652 216.13 160.946C216.799 160.493 217.952 160.522 218.89 160.348C219.363 160.269 219.825 160.134 220.266 159.946C220.532 159.806 220.783 159.642 221.018 159.455L209.86 154.749L201.154 160.636C200.974 160.576 200.78 160.496 200.615 160.421C200.418 160.335 200.263 160.255 200.222 160.23C199.915 160.042 199.651 159.79 199.448 159.492C199.117 158.998 199.149 158.397 198.336 158.033C196.915 157.429 194.412 157.898 192.702 159.053C191.012 160.196 190.733 161.587 192.06 162.18C193.226 162.672 194.985 162.325 196.275 162.611C196.664 162.728 197.047 162.868 197.42 163.031L197.531 163.083L188.836 168.966L215.784 180.327L236.806 166.112Z" fill="#CBCED0"/>
</g>
<path d="M217.353 156.018C217.353 155.759 217.491 155.52 217.774 155.328C217.82 155.297 217.868 155.268 217.917 155.242L217.964 155.218C217.999 155.201 218.036 155.185 218.073 155.17L218.101 155.157L218.126 155.148C218.185 155.126 218.246 155.104 218.31 155.086C218.374 155.067 218.441 155.051 218.509 155.035L218.532 155.029L218.562 155.024C218.641 155.007 218.721 154.991 218.803 154.978H218.811H218.836C218.918 154.964 219 154.952 219.084 154.941H219.118C219.204 154.929 219.297 154.919 219.389 154.909H219.404L219.466 154.901L219.649 154.88C219.735 154.871 219.821 154.86 219.907 154.849L219.958 154.843C220.044 154.832 220.125 154.82 220.207 154.807L220.337 154.785C220.423 154.768 220.513 154.75 220.601 154.731L220.65 154.72C220.713 154.706 220.776 154.691 220.839 154.675H220.844C220.909 154.659 220.97 154.641 221.033 154.623L221.091 154.606L221.219 154.566L221.282 154.544C221.324 154.529 221.368 154.515 221.406 154.499L221.457 154.479C221.512 154.458 221.565 154.435 221.615 154.413C221.861 154.283 222.095 154.13 222.313 153.957L222.262 159.787C222.044 159.96 221.81 160.113 221.564 160.243C221.513 160.266 221.46 160.288 221.406 160.31L221.394 160.315L221.358 160.328C221.316 160.345 221.273 160.36 221.229 160.375C221.21 160.382 221.189 160.388 221.168 160.395C221.127 160.41 221.082 160.423 221.041 160.436L221.001 160.449L220.982 160.454C220.92 160.472 220.857 160.489 220.794 160.505H220.786C220.724 160.52 220.663 160.535 220.6 160.549L220.579 160.554L220.548 160.56C220.462 160.58 220.376 160.598 220.29 160.614L220.182 160.633H220.158C220.078 160.646 219.996 160.658 219.912 160.669L219.857 160.676C219.771 160.687 219.694 160.696 219.611 160.706H219.604L219.432 160.726L219.346 160.736L219.078 160.768L219.045 160.773C218.962 160.783 218.879 160.795 218.798 160.809L218.764 160.814C218.682 160.828 218.601 160.844 218.522 160.861L218.47 160.872C218.402 160.888 218.336 160.904 218.271 160.923C218.207 160.942 218.146 160.963 218.085 160.986L218.033 161.007C217.995 161.022 217.959 161.038 217.924 161.056L217.876 161.079C217.827 161.105 217.779 161.134 217.734 161.165C217.451 161.357 217.316 161.596 217.313 161.855L217.353 156.018Z" fill="#0B224A"/>
<path d="M194.631 161.512C194.631 161.502 194.631 161.49 194.625 161.479C194.622 161.469 194.62 161.459 194.619 161.449C194.619 161.449 194.619 161.442 194.619 161.439C194.619 161.436 194.619 161.408 194.613 161.392C194.607 161.377 194.613 161.369 194.613 161.358C194.613 161.347 194.613 161.325 194.613 161.309C194.613 161.292 194.613 161.291 194.613 161.281V161.269L194.663 155.439C194.663 155.452 194.663 155.465 194.663 155.479C194.663 155.493 194.663 155.511 194.663 155.527C194.663 155.544 194.663 155.551 194.668 155.563L194.673 155.608C194.673 155.622 194.678 155.635 194.681 155.649C194.685 155.663 194.681 155.671 194.687 155.683C194.693 155.694 194.695 155.71 194.699 155.724C194.702 155.735 194.705 155.745 194.709 155.756C194.709 155.761 194.709 155.766 194.715 155.772C194.729 155.812 194.745 155.852 194.764 155.89C194.783 155.927 194.804 155.963 194.828 155.997L194.84 156.014C194.864 156.049 194.891 156.081 194.919 156.113L194.943 156.139L194.97 156.167L195.004 156.198L195.035 156.225L195.065 156.25C195.083 156.264 195.101 156.278 195.121 156.292L195.15 156.314L195.217 156.357L195.244 156.373C195.265 156.385 195.285 156.397 195.308 156.408L195.337 156.425C195.369 156.441 195.401 156.457 195.437 156.472C195.503 156.501 195.571 156.526 195.641 156.548L195.714 156.568C195.762 156.582 195.809 156.596 195.859 156.607L195.899 156.616C195.954 156.629 196.011 156.64 196.071 156.651L196.14 156.662C196.194 156.67 196.247 156.678 196.302 156.685L196.356 156.692C196.427 156.701 196.499 156.707 196.571 156.713C196.617 156.713 196.663 156.719 196.709 156.722L196.825 156.729L196.968 156.735H197.082L197.356 156.741H197.363H197.687H197.893H197.996H198.168H198.212H198.288L198.421 156.746L198.544 156.753L198.673 156.762H198.716C198.763 156.762 198.81 156.77 198.857 156.775H198.886C198.947 156.781 199.007 156.788 199.067 156.797H199.088C199.174 156.81 199.265 156.826 199.346 156.845H199.354H199.362H199.374L199.393 156.85H199.407L199.432 156.857L199.45 156.863L199.481 156.873L199.501 156.879L199.537 156.891L199.559 156.899L199.6 156.912L199.623 156.92L199.668 156.936L199.693 156.945L199.738 156.96L199.768 156.97L199.811 156.986L199.847 156.999L199.889 157.014L199.927 157.028L199.97 157.045L200.008 157.059L200.052 157.076L200.091 157.091L200.134 157.108L200.173 157.124L200.216 157.141L200.254 157.157L200.299 157.176L200.333 157.189L200.408 157.223L200.513 157.271L200.461 163.101L200.357 163.053L200.281 163.02L200.256 163.01L200.202 162.987L200.171 162.974L200.121 162.954L200.087 162.94L200.039 162.922L200.003 162.907L199.957 162.89L199.919 162.875L199.876 162.859L199.839 162.845L199.795 162.829L199.76 162.817L199.719 162.801L199.68 162.788L199.645 162.776L199.608 162.763L199.574 162.751L199.542 162.741L199.51 162.729L199.481 162.72L199.452 162.71L199.426 162.702L199.401 162.694L199.378 162.687L199.358 162.681L199.34 162.676L199.323 162.671H199.311H199.294C199.208 162.652 199.122 162.637 199.036 162.623C198.97 162.613 198.903 162.604 198.835 162.597H198.801C198.741 162.591 198.681 162.585 198.621 162.58L198.495 162.573L198.37 162.566C198.327 162.566 198.284 162.566 198.239 162.561H198.115H197.943H197.836H197.633H197.365H197.299C197.208 162.561 197.117 162.559 197.028 162.555H197.015H196.903L196.77 162.55C196.729 162.55 196.69 162.545 196.649 162.542L196.517 162.534H196.502C196.434 162.528 196.366 162.522 196.299 162.514L196.249 162.507C196.216 162.507 196.182 162.499 196.148 162.494C196.126 162.494 196.106 162.487 196.084 162.484L196.015 162.473C195.959 162.462 195.902 162.451 195.843 162.438L195.803 162.429H195.792C195.745 162.418 195.706 162.404 195.657 162.392C195.633 162.385 195.609 162.379 195.586 162.372C195.516 162.349 195.447 162.324 195.381 162.297C195.346 162.281 195.314 162.265 195.281 162.248L195.248 162.231L195.189 162.198H195.181L195.16 162.184L195.096 162.142L195.064 162.12L195.01 162.079L194.992 162.065C194.988 162.061 194.984 162.057 194.979 162.054L194.949 162.027L194.915 161.995L194.888 161.967L194.871 161.949L194.864 161.941C194.835 161.91 194.809 161.877 194.785 161.842L194.779 161.836C194.777 161.833 194.775 161.83 194.773 161.826C194.75 161.792 194.728 161.756 194.709 161.719C194.69 161.682 194.674 161.643 194.66 161.604C194.66 161.604 194.66 161.597 194.66 161.593V161.586C194.66 161.575 194.654 161.565 194.651 161.555C194.649 161.544 194.635 161.527 194.631 161.512Z" fill="#204D7F"/>
<path d="M192.439 162.772L192.387 168.602L217.403 179.151L217.454 173.321L192.439 162.772Z" fill="#204D80"/>
<path d="M217.454 173.321L217.403 179.15L236.917 165.955L236.968 160.125L217.454 173.321Z" fill="#0E2754"/>
<path d="M236.968 160.125L226.62 155.761C226.33 155.938 226.059 156.144 225.811 156.376C225.328 157.014 225.951 157.885 225.14 158.434C224.141 159.11 221.683 158.961 219.65 158.104L219.477 158.031C217.568 157.177 216.802 155.985 217.773 155.329C218.394 154.909 219.465 154.936 220.335 154.774C220.774 154.701 221.203 154.575 221.613 154.401C221.86 154.271 222.094 154.119 222.312 153.945L211.954 149.572L203.868 155.038C203.701 154.981 203.524 154.907 203.368 154.839C203.185 154.757 203.041 154.685 203.003 154.662C202.718 154.485 202.474 154.25 202.287 153.972C201.979 153.513 202.01 152.955 201.255 152.618C199.935 152.06 197.612 152.493 196.025 153.566C194.457 154.627 194.197 155.917 195.429 156.467C196.512 156.924 198.14 156.603 199.343 156.868C199.705 156.977 200.06 157.107 200.406 157.258L200.51 157.306L192.436 162.771L217.451 173.32L236.968 160.125Z" fill="#0A3D76"/>
<path d="M192.97 11.6997H203.112" stroke="#EBF2F9" stroke-width="4" stroke-miterlimit="10"/>
<path d="M204.622 11.6997H209.694" stroke="#EBF2F9" stroke-width="4" stroke-miterlimit="10"/>
<path d="M72.6404 14.7681H62.4985" stroke="#EBF2F9" stroke-width="4" stroke-miterlimit="10"/>
<path d="M60.9874 14.7681H55.9165" stroke="#EBF2F9" stroke-width="4" stroke-miterlimit="10"/>
<path d="M48.0591 136.248C48.0591 136.911 47.8629 137.559 47.4952 138.111C47.1275 138.662 46.605 139.092 45.9936 139.345C45.3822 139.599 44.7096 139.665 44.0606 139.536C43.4117 139.406 42.8157 139.087 42.348 138.617C41.8803 138.148 41.5619 137.551 41.4331 136.901C41.3043 136.25 41.3709 135.576 41.6245 134.964C41.878 134.351 42.3072 133.828 42.8576 133.46C43.408 133.092 44.0549 132.896 44.7166 132.896C45.6033 132.897 46.4535 133.25 47.0803 133.879C47.707 134.507 48.0591 135.359 48.0591 136.248V136.248Z" stroke="#EBF2F9" stroke-width="3" stroke-miterlimit="10"/>
<path d="M94.4258 72.7805C94.4291 74.2455 93.9985 75.6786 93.1886 76.8982C92.3787 78.1179 91.2259 79.0692 89.8761 79.6319C88.5263 80.1946 87.0403 80.3432 85.6061 80.059C84.172 79.7748 82.8543 79.0705 81.8198 78.0354C80.7853 77.0002 80.0806 75.6807 79.7948 74.244C79.5091 72.8072 79.6552 71.3178 80.2146 69.9643C80.7741 68.6107 81.7217 67.454 82.9375 66.6406C84.1533 65.8271 85.5827 65.3934 87.0446 65.3945C89.0003 65.3945 90.8761 66.1724 92.26 67.5572C93.6439 68.942 94.4229 70.8206 94.4258 72.7805Z" stroke="#EBF2F9" stroke-width="4" stroke-miterlimit="10"/>
<path d="M265.325 131.733C265.327 132.796 265.015 133.835 264.427 134.72C263.839 135.604 263.003 136.294 262.024 136.703C261.044 137.111 259.966 137.219 258.925 137.012C257.885 136.806 256.929 136.295 256.178 135.545C255.427 134.794 254.916 133.837 254.709 132.794C254.502 131.752 254.608 130.672 255.013 129.69C255.419 128.708 256.107 127.869 256.989 127.279C257.871 126.689 258.908 126.375 259.969 126.375C261.388 126.375 262.749 126.94 263.753 127.944C264.757 128.949 265.323 130.311 265.325 131.733Z" stroke="#EBF2F9" stroke-width="3" stroke-miterlimit="10"/>
<g filter="url(#filter11_d)">
<path d="M234.315 107.914C234.316 108.141 234.249 108.364 234.123 108.553C233.997 108.743 233.818 108.89 233.608 108.978C233.398 109.065 233.167 109.088 232.944 109.044C232.721 109 232.516 108.891 232.355 108.73C232.194 108.569 232.085 108.364 232.04 108.141C231.996 107.918 232.019 107.686 232.105 107.476C232.192 107.266 232.34 107.086 232.529 106.96C232.718 106.833 232.94 106.766 233.167 106.766C233.471 106.766 233.763 106.887 233.978 107.102C234.193 107.317 234.315 107.609 234.315 107.914Z" stroke="#C43B55" stroke-width="10.45" stroke-miterlimit="10"/>
</g>
<g filter="url(#filter12_d)">
<path d="M79.6519 110.983L80.5008 111.833" stroke="#F985A0" stroke-width="2" stroke-miterlimit="10"/>
<path d="M81.1006 112.434L81.9496 113.284" stroke="#F985A0" stroke-width="2" stroke-miterlimit="10"/>
<path d="M81.9496 110.983L81.1006 111.833" stroke="#F985A0" stroke-width="2" stroke-miterlimit="10"/>
<path d="M80.5008 112.434L79.6519 113.284" stroke="#F985A0" stroke-width="2" stroke-miterlimit="10"/>
</g>
<path d="M172 35.2L145.4 56.6L127.7 22.2L154.5 1L172 35.2Z" fill="url(#paint1_linear)"/>
<path d="M127.7 22.2002L103 23.5002L120.5 57.9002L145.4 56.5002L127.7 22.2002Z" fill="url(#paint2_linear)"/>
<path d="M129.4 2.4L103 23.5L127.7 22.1L154.5 1L129.4 2.4Z" fill="url(#paint3_linear)"/>
<path d="M212 101.8L207 76.7998L228.4 48.7998L232.8 73.6998L212 101.8Z" fill="url(#paint4_linear)"/>
<path d="M194.7 34.3999L228.4 48.7999L207 76.7999L173 62.9999L194.7 34.3999Z" fill="url(#paint5_linear)"/>
<path d="M178.6 87.9L173 63L207 76.8L212 101.8L178.6 87.9Z" fill="url(#paint6_linear)"/>
<path d="M137.2 82.5998L111 103.8L136 102.8L162.3 81.2998L137.2 82.5998Z" fill="url(#paint7_linear)"/>
<path d="M179.8 115.5C180.1 115.5 168.3 92.6998 162.3 81.2998L136 102.8L153.1 136.9C161.9 129.7 179.5 115.5 179.8 115.5Z" fill="url(#paint8_linear)"/>
<path d="M128.3 138.2L111 103.8L136 102.8L153.1 136.9L128.3 138.2Z" fill="url(#paint9_linear)"/>
<path d="M152.3 108.2L149.1 101.7L150.6 100.5C151.3 100 152.1 100.6 152.7 101.7C153.3 102.8 153.4 104.1 152.7 104.6L151.9 105.2L153 107.5L152.3 108.2ZM152 102.4C151.7 101.9 151.4 101.7 151.1 101.9L150.4 102.5L151.3 104.3L152 103.7C152.2 103.4 152.3 102.9 152 102.4Z" fill="white"/>
<path d="M153.9 103.6C153.2 102.3 153.1 100.8 153.9 100.2C154.7 99.5998 155.7 100.4 156.3 101.7C157 103 157.1 104.5 156.3 105.1C155.6 105.7 154.6 105 153.9 103.6ZM155.7 102.2C155.3 101.5 154.8 101 154.4 101.3C154 101.6 154.1 102.4 154.5 103.1C154.9 103.8 155.4 104.3 155.8 104C156.2 103.7 156.1 102.9 155.7 102.2Z" fill="white"/>
<path d="M156.6 101.5C155.9 100.1 155.9 98.6 156.6 98.1C157.1 97.7 157.6 97.9 157.9 98.2V99.3C157.6 99.1 157.4 99 157.2 99.2C156.8 99.5 156.9 100.2 157.3 101.1C157.7 101.9 158.2 102.3 158.6 102C158.8 101.8 158.9 101.5 158.8 101.1L159.6 101.5C159.7 102.1 159.6 102.7 159.1 103.1C158.4 103.5 157.4 102.9 156.6 101.5Z" fill="white"/>
<path d="M160.7 101.5L158.9 97.8998L158.3 98.3998L157.8 97.2998L159.7 95.7998L160.2 96.8998L159.6 97.3998L161.4 101L160.7 101.5Z" fill="white"/>
<path d="M153.3 119.9L151.5 116.3L150.6 117.1L152.4 120.7L151.8 121.2L149.5 116.5L151.6 114.8L153.9 119.5L153.3 119.9Z" fill="white"/>
<path d="M154.8 117.9L156 120.3L155.4 120.8L152.2 114.3L152.8 113.8L153.1 114.4C153 113.8 153.2 113.4 153.5 113.1C154.1 112.6 155 113.2 155.7 114.7C156.5 116.3 156.5 117.5 155.9 118C155.6 118.3 155.3 118.2 154.8 117.9ZM155 115.3C154.6 114.5 154.1 114.1 153.8 114.4C153.6 114.6 153.5 115 153.6 115.3L154.4 117C154.6 117.2 155 117.3 155.2 117.1C155.5 116.8 155.5 116.1 155 115.3Z" fill="white"/>
<path d="M157.3 116.8L155 112.1L155.6 111.6L157 114.4L156.5 110.8L157.1 110.3L159.4 115L158.8 115.5L157.3 112.6L157.8 116.3L157.3 116.8Z" fill="white"/>
<path d="M158.6 112.1C157.5 109.8 157.4 108.5 158 107.6C158.3 107.2 158.4 107 158.3 106.8L158.9 106.3C159.4 107.2 158.9 107.9 158.6 108.3C158.1 108.9 158.2 109.5 158.4 110.1C158.3 109.5 158.5 109 158.8 108.7C159.4 108.2 160.4 109 161.1 110.3C161.8 111.6 161.9 113.1 161.1 113.7C160.3 114.3 159.3 113.7 158.6 112.1ZM160.5 110.9C160.1 110.2 159.6 109.7 159.3 110C158.9 110.3 159 111.1 159.4 111.8C159.8 112.6 160.3 113 160.7 112.7C160.9 112.5 160.8 111.7 160.5 110.9Z" fill="white"/>
<path d="M161 107.2L161.8 108.8L162.6 108.2C163.1 107.8 163.7 108.3 164.2 109.1C164.6 109.9 164.7 110.9 164.2 111.3L162.8 112.4L160.5 107.7L161 107.2ZM162.3 109.9L162.8 110.9L163.5 110.3C163.7 110.2 163.7 109.9 163.5 109.6C163.4 109.3 163.2 109.2 163 109.3L162.3 109.9ZM165.2 110.4L162.9 105.7L163.5 105.2L165.8 109.9L165.2 110.4Z" fill="white"/>
<path d="M165.7 108.7C165.9 108.6 165.8 108.1 165.3 106.9L164.3 104.5L166.1 103L168.4 107.7L167.8 108.2L166 104.6L165.3 105.2L165.9 106.6C166.6 108.3 166.7 109.3 166.1 109.8L165.7 108.7Z" fill="white"/>
<path d="M169.1 107.3L166.8 102.6L167.4 102.1L168.8 104.9L168.3 101.3L168.9 100.8L171.2 105.5L170.6 106L169.1 103.1L169.6 106.8L169.1 107.3Z" fill="white"/>
<path d="M124.9 116.6L122.2 111.2L123.9 111.1C124.7 111.1 125.5 111.9 126 112.8C126.5 113.7 126.4 114.5 125.7 114.6H124.8L125.7 116.5L124.9 116.6ZM125.2 112.9C125 112.4 124.6 112.2 124.3 112.2H123.5L124.2 113.7H125C125.4 113.6 125.4 113.4 125.2 112.9Z" fill="white"/>
<path d="M127.1 114.6C126.6 113.5 126.6 112.5 127.5 112.5C128.4 112.5 129.3 113.4 129.9 114.5C130.5 115.6 130.4 116.6 129.5 116.6C128.7 116.6 127.7 115.7 127.1 114.6ZM129.2 114.5C128.9 113.9 128.4 113.4 128 113.4C127.6 113.4 127.6 113.9 127.9 114.6C128.2 115.2 128.7 115.7 129.1 115.7C129.5 115.7 129.5 115.1 129.2 114.5Z" fill="white"/>
<path d="M130.2 114.5C129.6 113.3 129.8 112.4 130.6 112.4C131.1 112.4 131.6 112.7 132 113.1L131.9 113.7C131.6 113.4 131.4 113.3 131.1 113.3C130.7 113.3 130.6 113.8 131 114.5C131.3 115.2 131.9 115.6 132.3 115.6C132.5 115.6 132.6 115.4 132.6 115.2L133.4 115.8C133.4 116.2 133.3 116.5 132.7 116.5C131.8 116.5 130.8 115.7 130.2 114.5Z" fill="white"/>
<path d="M134.5 116.3L133 113.3H132.3L131.9 112.4L134 112.3L134.4 113.2H133.7L135.2 116.2L134.5 116.3Z" fill="white"/>
<path d="M125.4 125.7L123.9 122.7H122.8L124.3 125.7H123.6L121.7 121.8L124.1 121.7L126 125.6L125.4 125.7Z" fill="white"/>
<path d="M127.2 125.2L128.2 127.2H127.5L124.8 121.8H125.5L125.7 122.3C125.7 121.9 125.9 121.7 126.2 121.7C126.9 121.7 127.7 122.4 128.4 123.7C129.1 125 128.9 125.8 128.3 125.8C128 125.7 127.6 125.5 127.2 125.2ZM127.7 123.7C127.4 123 126.9 122.6 126.5 122.6C126.3 122.6 126.1 122.8 126.1 123.1L126.8 124.5C127 124.7 127.4 124.9 127.6 124.9C128 124.8 128.1 124.3 127.7 123.7Z" fill="white"/>
<path d="M129.9 125.6L128 121.7H128.7L129.9 124.1L129.8 121.7H130.5L132.4 125.6H131.7L130.5 123.2L130.6 125.7L129.9 125.6Z" fill="white"/>
<path d="M131.8 123.3C130.9 121.4 130.9 120.5 131.7 120.3C132.1 120.2 132.2 120.1 132.1 119.9H132.8C133.2 120.7 132.6 120.9 132.2 121C131.6 121.1 131.6 121.6 131.8 122C131.8 121.6 132 121.3 132.4 121.3C133.1 121.3 134.1 122.2 134.6 123.3C135.1 124.4 135.1 125.4 134.3 125.4C133.4 125.6 132.4 124.6 131.8 123.3ZM133.9 123.4C133.6 122.8 133.1 122.3 132.7 122.3C132.3 122.3 132.3 122.8 132.6 123.4C132.9 124 133.4 124.5 133.8 124.5C134.2 124.5 134.2 124.1 133.9 123.4Z" fill="white"/>
<path d="M134.8 121.4L135.5 122.7H136.4C137 122.7 137.6 123.3 137.9 123.9C138.2 124.6 138.2 125.2 137.6 125.2L136 125.3L134.1 121.4H134.8ZM135.9 123.6L136.3 124.4H137.1C137.3 124.4 137.3 124.2 137.2 124C137.1 123.8 136.9 123.6 136.7 123.6H135.9ZM138.9 125.3L137 121.4H137.7L139.6 125.3H138.9Z" fill="white"/>
<path d="M139.6 124.5C139.8 124.5 139.8 124.2 139.4 123.2L138.6 121.3L140.7 121.2L142.6 125.1H141.9L140.4 122.1H139.6L140.1 123.2C140.7 124.6 140.7 125.2 140 125.2L139.6 124.5Z" fill="white"/>
<path d="M143.3 125.1L141.4 121.2H142.1L143.3 123.6L143.2 121.2H143.9L145.8 125.1H145.1L143.9 122.7L144 125.2L143.3 125.1Z" fill="white"/>
<path d="M135.5 91.3002L140.9 86.3002L142.3 86.2002C143 86.2002 142.5 86.9002 141.6 87.7002C140.7 88.6002 139.5 89.3002 138.8 89.4002L138 89.5002L136.1 91.3002H135.5ZM140.9 87.8002C141.4 87.4002 141.4 87.1002 141.2 87.2002H140.5L139 88.5002H139.7C140 88.5002 140.5 88.2002 140.9 87.8002Z" fill="white"/>
<path d="M140.1 89.3001C141.2 88.3001 142.6 87.4001 143.3 87.3001C144 87.2001 143.5 88.1001 142.4 89.1001C141.3 90.1001 139.9 91.0001 139.2 91.1001C138.5 91.1001 139 90.3001 140.1 89.3001ZM141.8 89.1001C142.4 88.5001 142.7 88.1001 142.4 88.1001C142 88.1001 141.3 88.6001 140.7 89.2001C140.1 89.8001 139.8 90.2001 140.1 90.2001C140.5 90.2001 141.2 89.7001 141.8 89.1001Z" fill="white"/>
<path d="M142.7 89.1001C143.9 88.0001 145.2 87.2001 145.9 87.1001C146.4 87.1001 146.3 87.4001 146.1 87.7001L145.1 88.3001C145.3 88.1001 145.3 87.9001 145.1 87.9001C144.8 87.9001 144 88.4001 143.4 89.0001C142.7 89.6001 142.5 90.0001 142.9 90.0001C143.1 90.0001 143.4 89.8001 143.8 89.6001L143.6 90.1001C143.1 90.4001 142.5 90.8001 142 90.8001C141.2 90.9001 141.5 90.2001 142.7 89.1001Z" fill="white"/>
<path d="M143.6 90.7L146.6 87.9H146L146.9 87.1L148.7 87L147.8 87.8H147.2L144.2 90.6L143.6 90.7Z" fill="white"/>
<path d="M122.9 99.0004L125.9 96.2004L125 96.3004L122 99.1004H121.4L125.3 95.5004L127.4 95.4004L123.5 99.0004H122.9Z" fill="white"/>
<path d="M125.2 98.4001L123.2 100.2H122.6L128 95.2001H128.6L128.1 95.7001C128.7 95.3001 129.1 95.1001 129.4 95.1001C130 95.1001 129.6 95.7001 128.3 96.9001C127 98.1001 125.8 98.8001 125.3 98.9001C125 98.9001 124.9 98.8001 125.2 98.4001ZM127.7 97.0001C128.4 96.4001 128.6 96.0001 128.3 96.0001C128.1 96.0001 127.7 96.2001 127.4 96.4001L126 97.7001C125.9 97.9001 125.9 98.1001 126.1 98.1001C126.3 98.1001 127 97.6001 127.7 97.0001Z" fill="white"/>
<path d="M126.7 98.7001L130.6 95.1001H131.2L128.8 97.3001L132.1 95.1001H132.7L128.8 98.7001H128.2L130.7 96.4001L127.3 98.7001H126.7Z" fill="white"/>
<path d="M131.4 96.6C133.3 94.9 134.5 94 135.5 93.8C136 93.7 136.2 93.6 136.3 93.5H136.9C136.1 94.2 135.4 94.4 134.9 94.5C134.3 94.7 133.6 95 133.1 95.5C133.7 95.1 134.2 94.9 134.5 94.9C135.1 94.9 134.6 95.7 133.5 96.7C132.4 97.7 131 98.6 130.3 98.7C129.6 98.6 130.1 97.8 131.4 96.6ZM133 96.6C133.6 96.1 133.9 95.6 133.6 95.6C133.2 95.6 132.5 96.1 131.9 96.7C131.3 97.3 130.9 97.7 131.3 97.7C131.6 97.7 132.3 97.2 133 96.6Z" fill="white"/>
<path d="M136.5 94.7001L135.2 95.9001L136 95.8001C136.5 95.8001 136.2 96.3001 135.5 96.9001C134.8 97.5001 133.9 98.1001 133.4 98.1001L132 98.4001L135.9 94.8001L136.5 94.7001ZM134.3 96.7001L133.5 97.5001H134.2C134.4 97.5001 134.6 97.3001 134.9 97.1001C135.1 96.9001 135.2 96.7001 135.1 96.7001H134.3ZM134.4 98.2001L138.3 94.6001H138.9L135 98.1001L134.4 98.2001Z" fill="white"/>
<path d="M136.1 97.4003C136.3 97.4003 136.7 97.1003 137.7 96.2003L139.7 94.4003L141.5 94.3003L137.6 97.9003H137L140 95.1003H139.3L138.1 96.1003C136.7 97.3003 135.7 98.0003 135.2 98.0003L136.1 97.4003Z" fill="white"/>
<path d="M138.2 97.9003L142.1 94.3003H142.7L140.3 96.5003L143.6 94.3003H144.2L140.3 97.8003H139.7L142.2 95.5003L138.8 97.8003L138.2 97.9003Z" fill="white"/>
<path d="M144.9 30.4002L141.7 23.9002L143.2 22.7002C143.9 22.2002 144.7 22.8002 145.3 23.9002C145.9 25.0002 146 26.3002 145.3 26.8002L144.5 27.4002L145.6 29.7002L144.9 30.4002ZM144.5 24.5002C144.2 24.0002 143.9 23.8002 143.6 24.0002L142.9 24.6002L143.8 26.4002L144.5 25.8002C144.8 25.6002 144.8 25.1002 144.5 24.5002Z" fill="white"/>
<path d="M146.5 25.8C145.8 24.5 145.7 23 146.5 22.4C147.3 21.8 148.3 22.6 148.9 23.9C149.6 25.2 149.7 26.7 148.9 27.3C148.1 27.9 147.1 27.2 146.5 25.8ZM148.3 24.4C147.9 23.7 147.4 23.2 147 23.5C146.6 23.8 146.7 24.6 147.1 25.3C147.5 26 148 26.5 148.4 26.2C148.8 25.9 148.6 25.1 148.3 24.4Z" fill="white"/>
<path d="M149.2 23.6001C148.5 22.2001 148.5 20.7001 149.2 20.2001C149.7 19.8001 150.2 20.0001 150.5 20.3001V21.4001C150.2 21.2001 150 21.1001 149.8 21.3001C149.4 21.6001 149.5 22.3001 149.9 23.2001C150.3 24.0001 150.8 24.4001 151.2 24.1001C151.4 23.9001 151.5 23.6001 151.4 23.2001L152.2 23.6001C152.3 24.2001 152.2 24.8001 151.7 25.2001C150.9 25.7001 149.9 25.1001 149.2 23.6001Z" fill="white"/>
<path d="M153.2 23.7L151.4 20.1L150.8 20.6L150.3 19.5L152.2 18L152.7 19.1L152.1 19.6L153.9 23.2L153.2 23.7Z" fill="white"/>
<path d="M146.5 39.1L144.7 35.5L143.8 36.3L145.6 39.9L145 40.4L142.7 35.7L144.8 34L147.1 38.7L146.5 39.1Z" fill="white"/>
<path d="M148 37.0998L149.2 39.4998L148.6 39.9998L145.4 33.4998L146 32.9998L146.3 33.5998C146.2 32.9998 146.4 32.4998 146.7 32.2998C147.3 31.7998 148.2 32.3998 148.9 33.8998C149.6 35.3998 149.7 36.6998 149.1 37.1998C148.8 37.3998 148.4 37.3998 148 37.0998ZM148.2 34.4998C147.8 33.6998 147.3 33.2998 147 33.5998C146.8 33.7998 146.7 34.1998 146.8 34.4998L147.6 36.1998C147.8 36.3998 148.2 36.4998 148.4 36.2998C148.6 35.9998 148.6 35.2998 148.2 34.4998Z" fill="white"/>
<path d="M149.1 33.6999C148.4 32.3999 148.3 30.8999 149.1 30.2999C149.9 29.6999 150.9 30.4999 151.5 31.7999C152.2 33.0999 152.3 34.5999 151.5 35.1999C150.8 35.7999 149.8 35.0999 149.1 33.6999ZM150.9 32.2999C150.5 31.5999 150 31.0999 149.6 31.3999C149.2 31.6999 149.3 32.4999 149.7 33.1999C150.1 33.8999 150.6 34.3999 151 34.0999C151.4 33.7999 151.2 32.9999 150.9 32.2999Z" fill="white"/>
<path d="M152.4 32.8998C152.6 32.6998 152.6 32.3998 152.1 31.1998L151.1 28.7998L152.9 27.2998L154.7 30.8998L155 30.7998L156.1 33.0998L155.5 33.5998L154.9 32.3998L153.5 33.4998L154.1 34.6998L153.5 35.1998L152.4 32.8998ZM152.7 30.7998C153 31.3998 153.1 31.8998 153.1 32.2998L154.2 31.4998L152.9 28.9998L152.2 29.5998L152.7 30.7998Z" fill="white"/>
<path d="M157.2 30.4998L157 29.9998C157 30.4998 156.9 30.8998 156.6 31.1998C156.2 31.4998 155.6 31.2998 155 30.2998C154.5 29.1998 154.7 28.3998 155 28.0998C155.3 27.8998 155.7 27.7998 156 28.0998L155.7 27.4998C155.5 26.9998 155.1 26.8998 154.8 27.0998C154.6 27.2998 154.4 27.6998 154.4 28.1998L153.8 27.5998C153.8 26.8998 154.1 26.2998 154.4 26.0998C154.9 25.6998 155.6 25.6998 156.3 27.0998L157.8 30.0998L157.2 30.4998ZM156.7 29.2998L156.4 28.7998C156.2 28.5998 155.9 28.5998 155.7 28.7998C155.5 28.9998 155.4 29.3998 155.6 29.8998C155.8 30.2998 156.1 30.3998 156.4 30.1998C156.6 29.9998 156.7 29.6998 156.7 29.2998Z" fill="white"/>
<path d="M158.1 29.7002L157.8 26.4002L155.9 25.0002L156.6 24.4002L158.1 25.5002L157.3 23.8002L157.9 23.3002L158.7 25.0002L158.6 22.8002L159.3 22.2002L159.5 25.0002L161.7 26.8002L161 27.4002L159.5 26.1002V26.4002L160.3 28.0002L159.7 28.5002L158.9 26.9002L158.6 26.8002L158.9 29.1002L158.1 29.7002Z" fill="white"/>
<path d="M117.2 37.5L114.5 32.1L116.2 32C117 32 117.8 32.8 118.3 33.7C118.8 34.6 118.7 35.4 118 35.5H117.1L118 37.4L117.2 37.5ZM117.5 33.8C117.3 33.3 116.9 33.1 116.6 33.1H115.8L116.5 34.6H117.3C117.6 34.5 117.7 34.2 117.5 33.8Z" fill="white"/>
<path d="M119.4 35.4999C118.9 34.3999 118.9 33.3999 119.8 33.3999C120.7 33.3999 121.6 34.2999 122.2 35.3999C122.8 36.4999 122.7 37.4999 121.8 37.4999C120.9 37.4999 120 36.5999 119.4 35.4999ZM121.4 35.3999C121.1 34.7999 120.6 34.2999 120.2 34.2999C119.8 34.2999 119.8 34.7999 120.1 35.4999C120.4 36.0999 120.9 36.5999 121.3 36.5999C121.7 36.5999 121.7 35.9999 121.4 35.3999Z" fill="white"/>
<path d="M122.5 35.3998C121.9 34.1998 122.1 33.2998 122.9 33.2998C123.4 33.2998 123.9 33.5998 124.3 33.9998L124.2 34.5998C123.9 34.2998 123.7 34.1998 123.4 34.1998C123 34.1998 122.9 34.6998 123.3 35.3998C123.6 36.0998 124.2 36.4998 124.6 36.4998C124.8 36.4998 124.9 36.2998 124.9 36.0998L125.7 36.6998C125.7 37.0998 125.6 37.3998 125 37.3998C124.1 37.3998 123.1 36.5998 122.5 35.3998Z" fill="white"/>
<path d="M126.8 37.2002L125.3 34.2002H124.6L124.2 33.3002L126.3 33.2002L126.7 34.1002H126L127.5 37.1002L126.8 37.2002Z" fill="white"/>
<path d="M118.5 44.7998L117 41.7998H116L117.5 44.7998H116.8L114.9 40.8998L117.3 40.7998L119.2 44.6998L118.5 44.7998Z" fill="white"/>
<path d="M120.3 44.2002L121.3 46.2002H120.6L117.9 40.8002H118.6L118.8 41.3002C118.8 40.9002 119 40.7002 119.3 40.7002C120 40.7002 120.8 41.4002 121.5 42.7002C122.2 44.0002 122 44.8002 121.4 44.8002C121.1 44.8002 120.7 44.6002 120.3 44.2002ZM120.8 42.7002C120.5 42.0002 120 41.6002 119.6 41.6002C119.4 41.6002 119.2 41.8002 119.2 42.1002L119.9 43.5002C120.1 43.7002 120.5 43.9002 120.7 43.9002C121.1 43.9002 121.2 43.4002 120.8 42.7002Z" fill="white"/>
<path d="M121.9 42.7001C121.4 41.6001 121.4 40.6001 122.3 40.6001C123.2 40.6001 124.1 41.5001 124.7 42.6001C125.3 43.7001 125.2 44.7001 124.3 44.7001C123.4 44.7001 122.4 43.8001 121.9 42.7001ZM123.9 42.6001C123.6 42.0001 123.1 41.5001 122.7 41.5001C122.3 41.5001 122.3 42.0001 122.6 42.7001C122.9 43.3001 123.4 43.8001 123.8 43.8001C124.2 43.8001 124.2 43.2001 123.9 42.6001Z" fill="white"/>
<path d="M125.4 43.7C125.6 43.6 125.6 43.5 125.2 42.5L124.4 40.6L126.5 40.5L128 43.5H128.3L129.2 45.4H128.5L128 44.4L126.4 44.5L126.9 45.5H126.2L125.4 43.7ZM125.9 42.5C126.1 43 126.2 43.3 126.1 43.6H127.3L126.3 41.5H125.5L125.9 42.5Z" fill="white"/>
<path d="M130.8 44.3999L130.6 43.9999C130.6 44.2999 130.4 44.4999 130 44.4999C129.6 44.4999 128.9 44.0999 128.5 43.1999C128 42.2999 128.4 41.8999 128.8 41.8999C129.1 41.8999 129.5 41.9999 129.9 42.2999L129.6 41.7999C129.4 41.3999 129.1 41.1999 128.7 41.1999C128.4 41.1999 128.2 41.3999 128.2 41.6999L127.6 40.9999C127.7 40.5999 128 40.3999 128.4 40.3999C129 40.3999 129.7 40.6999 130.3 41.7999L131.5 44.2999L130.8 44.3999ZM130.3 43.3999L130 42.8999C129.8 42.6999 129.5 42.5999 129.3 42.5999C129 42.5999 128.9 42.7999 129.1 43.1999C129.3 43.5999 129.6 43.7999 129.9 43.7999C130.1 43.7999 130.3 43.6999 130.3 43.3999Z" fill="white"/>
<path d="M131.8 44.2999V42.0999L129.9 40.3999H130.7L132.2 41.7999L131.5 40.3999H132.2L132.9 41.7999L133 40.3999H133.8L133.7 42.1999L135.8 44.2999H135L133.6 42.7999V42.9999L134.2 44.2999H133.5L132.9 42.9999L132.6 42.7999L132.7 44.2999H131.8Z" fill="white"/>
<path d="M125.5 11.4L131.4 5.99996L133 5.79996C133.7 5.69996 133.2 6.49996 132.2 7.49996C131.2 8.39996 129.9 9.29996 129.2 9.29996L128.4 9.39996L126.3 11.3L125.5 11.4ZM131.5 7.59996C132 7.09996 132.1 6.79996 131.8 6.89996H131L129.4 8.39996L130.2 8.29996C130.5 8.29996 131 7.99996 131.5 7.59996Z" fill="white"/>
<path d="M130.6 9.19987C131.8 8.09987 133.3 7.09988 134.1 7.09988C134.9 6.99988 134.3 7.89987 133.1 9.09987C131.9 10.1999 130.4 11.1999 129.6 11.1999C128.8 11.1999 129.4 10.2999 130.6 9.19987ZM132.5 9.09987C133.2 8.49987 133.5 7.99987 133.1 7.99987C132.7 7.99987 131.9 8.59987 131.3 9.19987C130.6 9.79987 130.3 10.2999 130.7 10.2999C131 10.1999 131.8 9.69987 132.5 9.09987Z" fill="white"/>
<path d="M133.5 8.9998C134.8 7.7998 136.2 6.8998 137 6.7998C137.5 6.7998 137.4 7.0998 137.2 7.3998L136.1 8.0998C136.3 7.7998 136.3 7.6998 136.1 7.6998C135.7 7.6998 135 8.19981 134.2 8.89981C133.5 9.59981 133.2 9.9998 133.6 9.9998C133.8 9.9998 134.2 9.7998 134.6 9.4998L134.3 10.0998C133.7 10.4998 133.1 10.7998 132.6 10.8998C131.8 10.9998 132.2 10.1998 133.5 8.9998Z" fill="white"/>
<path d="M134.4 10.6998L137.7 7.6998L137 7.7998L138 6.8998L140 6.7998L139 7.6998H138.3L135 10.6998H134.4Z" fill="white"/>
<path d="M116 17.7002L119.3 14.7002L118.3 14.8002L115 17.8002H114.4L118.7 13.9002L121 13.7002L116.7 17.6002L116 17.7002Z" fill="white"/>
<path d="M118.4 17L116.2 19H115.6L121.5 13.6H122.1L121.6 14.1C122.2 13.7 122.7 13.5 123 13.5C123.6 13.5 123.3 14.2 121.8 15.5C120.4 16.8 119.1 17.6 118.5 17.6C118.2 17.6 118.2 17.4 118.4 17ZM121.1 15.5C121.8 14.8 122.1 14.4 121.7 14.4C121.5 14.4 121.1 14.6 120.7 14.9L119.2 16.3C119 16.5 119.1 16.7 119.3 16.7C119.7 16.6 120.4 16.2 121.1 15.5Z" fill="white"/>
<path d="M122.1 15.4001C123.3 14.3001 124.8 13.3001 125.6 13.3001C126.4 13.2001 125.9 14.1001 124.6 15.3001C123.4 16.4001 121.9 17.4001 121.1 17.4001C120.3 17.4001 120.9 16.5001 122.1 15.4001ZM124 15.3001C124.7 14.7001 125 14.2001 124.6 14.2001C124.2 14.2001 123.4 14.8001 122.8 15.4001C122.1 16.0001 121.8 16.5001 122.2 16.5001C122.5 16.4001 123.3 15.9001 124 15.3001Z" fill="white"/>
<path d="M123.7 16.3001C124 16.2001 124.2 16.1001 125.3 15.1001L127.5 13.2001L129.4 13.1001L126.1 16.1001H126.4L124.3 18.0001H123.7L124.8 17.0001L123.3 17.1001L122.2 18.1001H121.6L123.7 16.3001ZM125.9 15.1001C125.3 15.6001 124.9 15.9001 124.5 16.2001L125.6 16.1001L127.9 14.0001L127.1 14.1001L125.9 15.1001Z" fill="white"/>
<path d="M127.4 16.7999L127.8 16.3999C127.3 16.6999 126.8 16.8999 126.5 16.9999C126.1 16.9999 126.1 16.5999 127.1 15.7999C128.1 14.8999 128.9 14.4999 129.3 14.4999C129.6 14.4999 129.7 14.5999 129.5 14.8999L130.1 14.3999C130.5 13.9999 130.6 13.7999 130.3 13.7999C130 13.7999 129.6 13.9999 129.1 14.2999L129.6 13.5999C130.4 13.1999 130.9 12.8999 131.3 12.8999C131.8 12.8999 132 13.1999 130.7 14.2999L128 16.7999H127.4ZM128.4 15.8999L128.9 15.3999C129 15.1999 129 15.0999 128.8 15.0999C128.5 15.0999 128.1 15.2999 127.7 15.6999C127.3 16.0999 127.3 16.2999 127.5 16.1999C127.7 16.2999 128 16.0999 128.4 15.8999Z" fill="white"/>
<path d="M128.3 16.8001L131.6 14.6001L132.6 12.9001L133.4 12.8001L132.6 14.2001L134.1 12.8001H134.7L133.2 14.2001L135.5 12.7001L136.3 12.6001L133.4 14.4001L132 16.5001L131.2 16.6001L132.2 15.1001L131.9 15.3001L130.5 16.6001H129.9L131.3 15.3001L131.4 15.1001L129.1 16.7001L128.3 16.8001Z" fill="white"/>
<path d="M217 78.4002L215.8 72.3002L217.1 70.6002C217.7 69.8002 218.2 70.3002 218.4 71.4002C218.6 72.5002 218.5 73.8002 217.9 74.6002L217.2 75.5002L217.6 77.7002L217 78.4002ZM217.8 72.1002C217.7 71.6002 217.5 71.5002 217.2 71.8002L216.6 72.6002L216.9 74.2002L217.5 73.4002C217.8 73.2002 217.9 72.6002 217.8 72.1002Z" fill="url(#paint10_linear)"/>
<path d="M219 73C218.8 71.8 218.9 70.2 219.6 69.3C220.2 68.4 220.8 69 221.1 70.2C221.3 71.5 221.2 73 220.5 73.9C219.8 74.8 219.2 74.2 219 73ZM220.5 71C220.4 70.3 220.1 70 219.7 70.4C219.4 70.8 219.3 71.7 219.4 72.3C219.5 73 219.8 73.3 220.1 72.9C220.6 72.5 220.6 71.6 220.5 71Z" fill="url(#paint11_linear)"/>
<path d="M221.3 69.9001C221 68.6001 221.3 67.0002 221.9 66.2002C222.3 65.7002 222.6 65.7001 222.8 66.0001L222.6 67.2002C222.4 67.0002 222.3 67.0001 222.1 67.3001C221.8 67.7001 221.7 68.5001 221.8 69.3001C221.9 70.1001 222.3 70.3001 222.6 69.9001C222.8 69.7001 222.9 69.3001 222.9 68.9001L223.4 69.2002C223.3 69.8002 223.2 70.5001 222.8 71.0001C222.2 71.6001 221.6 71.3001 221.3 69.9001Z" fill="url(#paint12_linear)"/>
<path d="M224.2 68.8L223.5 65.4L223 66.1L222.8 65.1L224.4 63L224.6 64L224.1 64.7L224.8 68.1L224.2 68.8Z" fill="url(#paint13_linear)"/>
<path d="M185.7 78.9998L184.5 73.7998L186.4 74.5998C187.3 74.9998 188 75.8998 188.2 76.7998C188.4 77.6998 188.1 78.2998 187.2 77.8998L186.1 77.4998L186.5 79.2998L185.7 78.9998ZM187.3 76.4998C187.2 76.0998 186.9 75.6998 186.5 75.4998L185.6 75.0998L185.9 76.4998L186.8 76.8998C187.2 77.0998 187.4 76.8998 187.3 76.4998Z" fill="url(#paint14_linear)"/>
<path d="M188.9 78.5996C188.7 77.4996 189.1 76.8996 190 77.2996C191 77.6996 191.8 78.8996 192 79.8996C192.2 80.9996 191.8 81.5996 190.8 81.1996C189.9 80.8996 189.1 79.6996 188.9 78.5996ZM191.3 79.5996C191.2 78.9996 190.8 78.3996 190.3 78.1996C189.8 77.9996 189.6 78.3996 189.8 78.9996C189.9 79.5996 190.3 80.1996 190.8 80.3996C191.2 80.5996 191.4 80.1996 191.3 79.5996Z" fill="url(#paint15_linear)"/>
<path d="M192.5 80.0997C192.2 78.8997 192.7 78.3997 193.7 78.7997C194.3 79.0997 194.8 79.4997 195 79.9997L194.6 80.3997C194.4 80.0997 194.1 79.7997 193.9 79.6997C193.4 79.4997 193.2 79.7997 193.3 80.4997C193.4 81.1997 193.9 81.6997 194.4 81.8997C194.7 81.9997 194.9 81.8997 194.9 81.7997L195.5 82.5997C195.4 82.8997 195.1 82.9997 194.5 82.7997C193.6 82.3997 192.7 81.2997 192.5 80.0997Z" fill="url(#paint16_linear)"/>
<path d="M196.7 83.6L196.1 80.7L195.3 80.4L195.1 79.5L197.6 80.5L197.8 81.4L197 81.1L197.6 84L196.7 83.6Z" fill="url(#paint17_linear)"/>
<path d="M195.739 50.9003L200.467 43.5588L202.225 44.3314C203.006 44.6637 202.747 45.9585 201.99 47.2335C201.133 48.5045 199.997 49.3629 199.215 49.0306L198.239 48.5903L196.521 51.2326L195.739 50.9003ZM201.108 46.8973C201.534 46.3118 201.558 45.8108 201.164 45.6948L200.283 45.3586L198.996 47.3152L199.877 47.6515C200.27 47.7675 200.682 47.4827 201.108 46.8973Z" fill="url(#paint18_linear)"/>
<path d="M200.802 49.6977C201.767 48.2306 203.111 47.18 203.992 47.5161C204.868 47.9524 204.6 49.4472 203.635 50.9144C202.665 52.4817 201.325 53.4321 200.445 53.096C199.464 52.7559 199.733 51.2611 200.802 49.6977ZM202.848 50.6824C203.383 49.9007 203.624 49.007 203.136 48.7869C202.648 48.5667 202.019 49.2443 201.484 50.0259C200.945 50.9078 200.709 51.7014 201.197 51.9215C201.585 52.1377 202.314 51.4641 202.848 50.6824Z" fill="url(#paint19_linear)"/>
<path d="M203.944 51.1342C205.018 49.4709 206.352 48.6208 207.133 48.9529C207.72 49.1769 207.692 49.778 207.565 50.375L206.538 51.0367C206.656 50.6399 206.571 50.3355 206.377 50.2274C205.988 50.0113 205.269 50.4844 204.626 51.4624C203.983 52.4404 203.95 53.1415 204.338 53.3577C204.632 53.4697 204.935 53.3814 205.252 52.9926L205.2 54.0944C204.685 54.4754 204.069 54.8523 203.482 54.6283C202.805 54.1999 202.97 52.8015 203.944 51.1342Z" fill="url(#paint20_linear)"/>
<path d="M205.758 55.3288L208.44 51.2202L207.658 50.8881L208.415 49.6134L210.66 50.606L209.903 51.8806L209.122 51.5484L206.44 55.657L205.758 55.3288Z" fill="url(#paint21_linear)"/>
<path d="M216.827 86.8265C217.241 86.2815 217.427 85.6195 217.493 85.0962L217.032 84.9591C216.983 85.3326 216.867 85.6796 216.683 85.9218C216.362 86.3457 216.051 86.2032 215.925 85.5552C215.8 84.9072 215.942 84.178 216.263 83.7541C216.447 83.5118 216.62 83.458 216.767 83.5937L216.997 82.5351C216.797 82.3718 216.483 82.3704 216.069 82.9154C215.447 83.7357 215.157 85.1347 215.378 86.2764C215.601 87.4258 216.205 87.6468 216.827 86.8265Z" fill="url(#paint22_linear)"/>
<path d="M219.85 82.7261L219.128 79.0001L217.231 81.4994L217.954 85.2254L218.484 84.5263L217.928 81.6566L218.763 80.5555L219.32 83.4252L219.85 82.7261Z" fill="url(#paint23_linear)"/>
<path d="M221.547 80.6052C222.065 79.9225 222.302 78.7096 222.061 77.4676C221.82 76.2256 221.307 76.0114 220.789 76.694C220.542 77.0188 220.36 77.5112 220.276 78.0774L220.184 77.6069L219.654 78.306L220.652 83.4514L221.182 82.7523L220.814 80.8546C221.052 81.0256 221.309 80.9189 221.547 80.6052ZM221.211 79.9536C221.04 80.1794 220.806 80.2452 220.674 80.1294L220.418 78.8103C220.459 78.4555 220.62 78.0117 220.791 77.7859C221.096 77.3841 221.386 77.554 221.51 78.1943C221.635 78.8423 221.516 79.5518 221.211 79.9536Z" fill="url(#paint24_linear)"/>
<path d="M223.765 77.6819C224.433 76.8011 224.66 75.3777 224.454 74.3131C224.249 73.2563 223.675 72.8899 223.006 73.7708C222.342 74.6461 222.115 76.0694 222.32 77.1263C222.526 78.1908 223.101 78.5572 223.765 77.6819ZM223.596 76.8102C223.266 77.2451 222.985 76.9859 222.871 76.3996C222.759 75.821 222.846 75.0774 223.175 74.6425C223.505 74.2076 223.791 74.4613 223.903 75.0398C224.016 75.6261 223.926 76.3753 223.596 76.8102Z" fill="url(#paint25_linear)"/>
<path d="M226.167 74.5152C226.58 73.9702 226.767 73.3082 226.833 72.7849L226.371 72.6478C226.323 73.0213 226.207 73.3683 226.023 73.6105C225.701 74.0344 225.391 73.8919 225.265 73.244C225.139 72.596 225.281 71.8667 225.603 71.4428C225.787 71.2006 225.96 71.1467 226.107 71.2824L226.337 70.2238C226.137 70.0605 225.822 70.0591 225.409 70.6041C224.786 71.4244 224.497 72.8234 224.718 73.9651C224.941 75.1145 225.545 75.3355 226.167 74.5152Z" fill="url(#paint26_linear)"/>
<path d="M229.035 70.6185L228.568 68.2116C228.36 67.1394 227.873 67.3559 227.413 67.9615C227.096 68.3799 226.815 68.9834 226.646 69.7094L226.974 70.1008C227.088 69.582 227.26 69.1712 227.477 68.8849C227.744 68.5326 227.968 68.5482 228.041 68.9262L228.138 69.4276C227.948 69.3107 227.678 69.4625 227.411 69.8148C227.089 70.2387 226.774 71.0714 226.943 71.9431C227.104 72.7762 227.562 72.6764 227.884 72.2525C228.147 71.9057 228.35 71.4144 228.43 70.9319L228.505 71.3176L229.035 70.6185ZM227.968 71.3083C227.759 71.5836 227.549 71.6087 227.482 71.2616C227.411 70.899 227.544 70.4727 227.753 70.1974C227.924 69.9717 228.112 69.8595 228.241 69.9599L228.331 70.4228C228.285 70.7544 228.139 71.0826 227.968 71.3083Z" fill="url(#paint27_linear)"/>
<path d="M181.781 84.1683C182.547 84.4828 182.944 84.3719 183.121 84.1581L182.357 83.3544C182.23 83.5057 181.99 83.5348 181.649 83.395C181.053 83.1503 180.545 82.5791 180.413 81.9901C180.281 81.4011 180.611 81.1799 181.207 81.4246C181.548 81.5644 181.847 81.8018 182.079 82.1133L182.599 81.8301C182.282 81.4199 181.749 80.9277 180.983 80.6132C179.829 80.1398 179.165 80.5361 179.398 81.5738C179.633 82.6186 180.627 83.6949 181.781 84.1683Z" fill="url(#paint28_linear)"/>
<path d="M187.4 86.3972L186.64 83.0104L183.124 81.5679L183.884 84.9548L184.867 85.3583L184.282 82.7498L185.831 83.3852L186.416 85.9937L187.4 86.3972Z" fill="url(#paint29_linear)"/>
<path d="M190.533 87.7588C191.493 88.1528 192.044 87.7866 191.79 86.6577C191.537 85.5288 190.695 84.5977 189.735 84.2037C189.278 84.0163 188.908 84.0302 188.696 84.2422L188.6 83.8145L187.616 83.411L188.666 88.088L189.65 88.4915L189.262 86.7665C189.643 87.2411 190.091 87.5777 190.533 87.7588ZM190.045 86.8394C189.728 86.7091 189.324 86.3845 189.114 86.1074L188.845 84.9084C188.959 84.7577 189.285 84.7387 189.603 84.869C190.168 85.1009 190.637 85.6563 190.768 86.2383C190.9 86.8273 190.61 87.0713 190.045 86.8394Z" fill="url(#paint30_linear)"/>
<path d="M194.645 89.446C195.884 89.9543 196.445 89.4459 196.228 88.4783C196.012 87.5176 195.086 86.3992 193.847 85.8909C192.616 85.3857 192.055 85.8941 192.27 86.8547C192.488 87.8224 193.414 88.9408 194.645 89.446ZM194.467 88.6536C193.855 88.4026 193.412 87.807 193.293 87.2741C193.175 86.7482 193.413 86.4322 194.025 86.6832C194.637 86.9342 195.087 87.533 195.206 88.0589C195.325 88.5918 195.079 88.9046 194.467 88.6536Z" fill="url(#paint31_linear)"/>
<path d="M199.1 91.2736C199.867 91.5881 200.263 91.4772 200.44 91.2633L199.676 90.4597C199.549 90.611 199.309 90.6401 198.968 90.5003C198.372 90.2556 197.864 89.6844 197.732 89.0953C197.6 88.5063 197.93 88.2852 198.526 88.5299C198.867 88.6697 199.166 88.9071 199.398 89.2186L199.918 88.9353C199.601 88.5251 199.068 88.033 198.302 87.7185C197.148 87.2451 196.484 87.6414 196.717 88.6791C196.952 89.7239 197.946 90.8001 199.1 91.2736Z" fill="url(#paint32_linear)"/>
<path d="M204.433 93.3849L203.941 91.1972C203.723 90.2225 202.871 89.5931 202.019 89.2436C201.431 89.0021 200.88 88.9289 200.505 89.1061L201.01 89.8546C201.268 89.7185 201.61 89.7377 202.013 89.9029C202.508 90.1063 202.884 90.4641 202.961 90.8077L203.063 91.2635C202.756 90.8954 202.281 90.567 201.786 90.3637C201.189 90.119 200.552 90.1314 200.73 90.9238C200.9 91.6811 201.687 92.3348 202.283 92.5795C202.771 92.7796 203.176 92.7994 203.37 92.6308L203.449 92.9814L204.433 93.3849ZM202.543 92.1385C202.155 91.9796 201.797 91.667 201.726 91.3515C201.652 91.0219 201.929 90.9699 202.316 91.1287C202.633 91.259 202.965 91.4843 203.172 91.7473L203.266 92.168C203.148 92.2976 202.86 92.2687 202.543 92.1385Z" fill="url(#paint33_linear)"/>
<path d="M186.091 57.4077C186.847 57.7377 187.575 57.5041 188.101 57.1571L187.951 56.1041C187.574 56.3501 187.182 56.4351 186.846 56.2884C186.258 56.0318 186.203 55.2772 186.73 54.4303C187.257 53.5834 188.021 53.1987 188.609 53.4554C188.945 53.602 189.099 53.9001 189.061 54.3196L190.185 53.8098C190.216 53.2595 190.028 52.626 189.272 52.2961C188.135 51.7995 186.659 52.5015 185.73 53.9937C184.795 55.4959 184.953 56.9111 186.091 57.4077Z" fill="url(#paint34_linear)"/>
<path d="M191.724 59.7131L194.755 54.8434L191.289 53.3303L188.258 58.2L189.228 58.6233L191.562 54.8727L193.089 55.5393L190.755 59.2899L191.724 59.7131Z" fill="url(#paint35_linear)"/>
<path d="M194.719 61.1742C195.665 61.5874 196.936 60.9498 197.946 59.3265C198.957 57.7033 198.847 56.4758 197.9 56.0625C197.45 55.8659 196.882 55.9514 196.305 56.3019L196.687 55.6869L195.718 55.2636L191.532 61.9884L192.502 62.4117L194.046 59.9315C194.03 60.5656 194.284 60.9842 194.719 61.1742ZM195.122 59.9016C194.809 59.7649 194.607 59.3562 194.635 58.9838L195.708 57.2597C196.063 57.0172 196.573 56.9318 196.886 57.0685C197.443 57.3118 197.459 58.0498 196.939 58.8866C196.412 59.7335 195.68 60.1449 195.122 59.9016Z" fill="url(#paint36_linear)"/>
<path d="M198.773 62.9439C199.994 63.4772 201.455 62.6276 202.321 61.2363C203.181 59.855 203.176 58.3655 201.954 57.8323C200.74 57.3023 199.28 58.1519 198.42 59.5332C197.554 60.9245 197.559 62.414 198.773 62.9439ZM199.482 61.8046C198.879 61.5413 198.951 60.7394 199.428 59.9731C199.898 59.217 200.642 58.7083 201.245 58.9716C201.848 59.2348 201.784 60.0402 201.313 60.7963C200.836 61.5626 200.085 62.0679 199.482 61.8046Z" fill="url(#paint37_linear)"/>
<path d="M203.164 64.861C203.92 65.191 204.648 64.9574 205.175 64.6104L205.024 63.5574C204.648 63.8034 204.255 63.8884 203.919 63.7417C203.331 63.4851 203.277 62.7305 203.804 61.8836C204.331 61.0367 205.095 60.652 205.683 60.9087C206.019 61.0553 206.173 61.3534 206.135 61.7729L207.258 61.2631C207.29 60.7128 207.102 60.0793 206.346 59.7494C205.208 59.2528 203.733 59.9548 202.804 61.447C201.869 62.9492 202.027 64.3644 203.164 64.861Z" fill="url(#paint38_linear)"/>
<path d="M208.515 67.0431L210.473 63.8975C211.345 62.496 210.85 61.7158 210.011 61.3492C209.43 61.0959 208.7 61.0846 207.923 61.4122L207.756 62.4292C208.307 62.1827 208.793 62.1511 209.19 62.3244C209.679 62.5377 209.799 63.0003 209.491 63.4944L209.083 64.1497C209.077 63.6599 208.774 63.2582 208.285 63.0449C207.697 62.7883 206.733 62.9186 206.024 64.0578C205.346 65.1467 205.714 65.9743 206.302 66.2309C206.783 66.4409 207.363 66.399 207.86 66.1157L207.546 66.6198L208.515 67.0431ZM207.231 65.5338C206.85 65.3672 206.7 64.9684 206.982 64.5147C207.277 64.0408 207.753 63.9153 208.135 64.082C208.448 64.2186 208.666 64.4931 208.65 64.8454L208.274 65.4503C207.938 65.6626 207.544 65.6705 207.231 65.5338Z" fill="url(#paint39_linear)"/>
</g>
<defs>
<filter id="filter0_d" x="282.083" y="90.8828" width="17.5708" height="12" filterUnits="userSpaceOnUse" color-interpolation-filters="sRGB">
<feFlood flood-opacity="0" result="BackgroundImageFix"/>
<feColorMatrix in="SourceAlpha" type="matrix" values="0 0 0 0 0 0 0 0 0 0 0 0 0 0 0 0 0 0 127 0"/>
<feOffset dx="2" dy="2"/>
<feGaussianBlur stdDeviation="2"/>
<feColorMatrix type="matrix" values="0 0 0 0 0 0 0 0 0 0 0 0 0 0 0 0 0 0 0.15 0"/>
<feBlend mode="normal" in2="BackgroundImageFix" result="effect1_dropShadow"/>
<feBlend mode="normal" in="SourceGraphic" in2="effect1_dropShadow" result="shape"/>
</filter>
<filter id="filter1_d" x="183.371" y="102.143" width="18.2207" height="18.2294" filterUnits="userSpaceOnUse" color-interpolation-filters="sRGB">
<feFlood flood-opacity="0" result="BackgroundImageFix"/>
<feColorMatrix in="SourceAlpha" type="matrix" values="0 0 0 0 0 0 0 0 0 0 0 0 0 0 0 0 0 0 127 0"/>
<feOffset dx="2" dy="2"/>
<feGaussianBlur stdDeviation="2"/>
<feColorMatrix type="matrix" values="0 0 0 0 0 0 0 0 0 0 0 0 0 0 0 0 0 0 0.15 0"/>
<feBlend mode="normal" in2="BackgroundImageFix" result="effect1_dropShadow"/>
<feBlend mode="normal" in="SourceGraphic" in2="effect1_dropShadow" result="shape"/>
</filter>
<filter id="filter2_d" x="78.5471" y="159.726" width="18.0767" height="18.0677" filterUnits="userSpaceOnUse" color-interpolation-filters="sRGB">
<feFlood flood-opacity="0" result="BackgroundImageFix"/>
<feColorMatrix in="SourceAlpha" type="matrix" values="0 0 0 0 0 0 0 0 0 0 0 0 0 0 0 0 0 0 127 0"/>
<feOffset dx="2" dy="2"/>
<feGaussianBlur stdDeviation="2"/>
<feColorMatrix type="matrix" values="0 0 0 0 0 0 0 0 0 0 0 0 0 0 0 0 0 0 0.15 0"/>
<feBlend mode="normal" in2="BackgroundImageFix" result="effect1_dropShadow"/>
<feBlend mode="normal" in="SourceGraphic" in2="effect1_dropShadow" result="shape"/>
</filter>
<filter id="filter3_d" x="280.256" y="14.0068" width="30.7954" height="30.8207" filterUnits="userSpaceOnUse" color-interpolation-filters="sRGB">
<feFlood flood-opacity="0" result="BackgroundImageFix"/>
<feColorMatrix in="SourceAlpha" type="matrix" values="0 0 0 0 0 0 0 0 0 0 0 0 0 0 0 0 0 0 127 0"/>
<feOffset dx="2" dy="2"/>
<feGaussianBlur stdDeviation="2"/>
<feColorMatrix type="matrix" values="0 0 0 0 0 0 0 0 0 0 0 0 0 0 0 0 0 0 0.15 0"/>
<feBlend mode="normal" in2="BackgroundImageFix" result="effect1_dropShadow"/>
<feBlend mode="normal" in="SourceGraphic" in2="effect1_dropShadow" result="shape"/>
</filter>
<filter id="filter4_d" x="33.3018" y="51.543" width="11.7132" height="11.7147" filterUnits="userSpaceOnUse" color-interpolation-filters="sRGB">
<feFlood flood-opacity="0" result="BackgroundImageFix"/>
<feColorMatrix in="SourceAlpha" type="matrix" values="0 0 0 0 0 0 0 0 0 0 0 0 0 0 0 0 0 0 127 0"/>
<feOffset dx="2" dy="2"/>
<feGaussianBlur stdDeviation="2"/>
<feColorMatrix type="matrix" values="0 0 0 0 0 0 0 0 0 0 0 0 0 0 0 0 0 0 0.15 0"/>
<feBlend mode="normal" in2="BackgroundImageFix" result="effect1_dropShadow"/>
<feBlend mode="normal" in="SourceGraphic" in2="effect1_dropShadow" result="shape"/>
</filter>
<filter id="filter5_d" x="252.74" y="49.3247" width="20.747" height="20.75" filterUnits="userSpaceOnUse" color-interpolation-filters="sRGB">
<feFlood flood-opacity="0" result="BackgroundImageFix"/>
<feColorMatrix in="SourceAlpha" type="matrix" values="0 0 0 0 0 0 0 0 0 0 0 0 0 0 0 0 0 0 127 0"/>
<feOffset dx="2" dy="2"/>
<feGaussianBlur stdDeviation="2"/>
<feColorMatrix type="matrix" values="0 0 0 0 0 0 0 0 0 0 0 0 0 0 0 0 0 0 0.15 0"/>
<feBlend mode="normal" in2="BackgroundImageFix" result="effect1_dropShadow"/>
<feBlend mode="normal" in="SourceGraphic" in2="effect1_dropShadow" result="shape"/>
</filter>
<filter id="filter6_d" x="3" y="130.833" width="338" height="109.967" filterUnits="userSpaceOnUse" color-interpolation-filters="sRGB">
<feFlood flood-opacity="0" result="BackgroundImageFix"/>
<feColorMatrix in="SourceAlpha" type="matrix" values="0 0 0 0 0 0 0 0 0 0 0 0 0 0 0 0 0 0 127 0"/>
<feOffset dx="2" dy="2"/>
<feGaussianBlur stdDeviation="2"/>
<feColorMatrix type="matrix" values="0 0 0 0 0 0 0 0 0 0 0 0 0 0 0 0 0 0 0.2 0"/>
<feBlend mode="normal" in2="BackgroundImageFix" result="effect1_dropShadow"/>
<feBlend mode="normal" in="SourceGraphic" in2="effect1_dropShadow" result="shape"/>
</filter>
<filter id="filter7_f" x="174.517" y="186.964" width="56.4221" height="33.818" filterUnits="userSpaceOnUse" color-interpolation-filters="sRGB">
<feFlood flood-opacity="0" result="BackgroundImageFix"/>
<feBlend mode="normal" in="SourceGraphic" in2="BackgroundImageFix" result="shape"/>
<feGaussianBlur stdDeviation="2" result="effect1_foregroundBlur"/>
</filter>
<filter id="filter8_f" x="97.8506" y="179.205" width="56.4221" height="33.8189" filterUnits="userSpaceOnUse" color-interpolation-filters="sRGB">
<feFlood flood-opacity="0" result="BackgroundImageFix"/>
<feBlend mode="normal" in="SourceGraphic" in2="BackgroundImageFix" result="shape"/>
<feGaussianBlur stdDeviation="2" result="effect1_foregroundBlur"/>
</filter>
<filter id="filter9_f" x="120.702" y="144.466" width="52.4282" height="31.6906" filterUnits="userSpaceOnUse" color-interpolation-filters="sRGB">
<feFlood flood-opacity="0" result="BackgroundImageFix"/>
<feBlend mode="normal" in="SourceGraphic" in2="BackgroundImageFix" result="shape"/>
<feGaussianBlur stdDeviation="2" result="effect1_foregroundBlur"/>
</filter>
<filter id="filter10_f" x="184.836" y="150.749" width="55.9705" height="33.5784" filterUnits="userSpaceOnUse" color-interpolation-filters="sRGB">
<feFlood flood-opacity="0" result="BackgroundImageFix"/>
<feBlend mode="normal" in="SourceGraphic" in2="BackgroundImageFix" result="shape"/>
<feGaussianBlur stdDeviation="2" result="effect1_foregroundBlur"/>
</filter>
<filter id="filter11_d" x="224.793" y="99.541" width="20.747" height="20.75" filterUnits="userSpaceOnUse" color-interpolation-filters="sRGB">
<feFlood flood-opacity="0" result="BackgroundImageFix"/>
<feColorMatrix in="SourceAlpha" type="matrix" values="0 0 0 0 0 0 0 0 0 0 0 0 0 0 0 0 0 0 127 0"/>
<feOffset dx="2" dy="2"/>
<feGaussianBlur stdDeviation="2"/>
<feColorMatrix type="matrix" values="0 0 0 0 0 0 0 0 0 0 0 0 0 0 0 0 0 0 0.15 0"/>
<feBlend mode="normal" in2="BackgroundImageFix" result="effect1_dropShadow"/>
<feBlend mode="normal" in="SourceGraphic" in2="effect1_dropShadow" result="shape"/>
</filter>
<filter id="filter12_d" x="76.9443" y="108.276" width="11.7129" height="11.7141" filterUnits="userSpaceOnUse" color-interpolation-filters="sRGB">
<feFlood flood-opacity="0" result="BackgroundImageFix"/>
<feColorMatrix in="SourceAlpha" type="matrix" values="0 0 0 0 0 0 0 0 0 0 0 0 0 0 0 0 0 0 127 0"/>
<feOffset dx="2" dy="2"/>
<feGaussianBlur stdDeviation="2"/>
<feColorMatrix type="matrix" values="0 0 0 0 0 0 0 0 0 0 0 0 0 0 0 0 0 0 0.15 0"/>
<feBlend mode="normal" in2="BackgroundImageFix" result="effect1_dropShadow"/>
<feBlend mode="normal" in="SourceGraphic" in2="effect1_dropShadow" result="shape"/>
</filter>
<linearGradient id="paint0_linear" x1="147.17" y1="190.678" x2="106.5" y2="189.04" gradientUnits="userSpaceOnUse">
<stop stop-color="#A62E41"/>
<stop offset="1" stop-color="#E13152"/>
</linearGradient>
<linearGradient id="paint1_linear" x1="126.408" y1="10.4902" x2="170.904" y2="45.0911" gradientUnits="userSpaceOnUse">
<stop stop-color="#0A3D76"/>
<stop offset="1" stop-color="#1072DF"/>
</linearGradient>
<linearGradient id="paint2_linear" x1="124.185" y1="22.1801" x2="124.185" y2="57.9427" gradientUnits="userSpaceOnUse">
<stop stop-color="#0A3D76"/>
<stop offset="1" stop-color="#0C53A3"/>
</linearGradient>
<linearGradient id="paint3_linear" x1="128.75" y1="1" x2="128.75" y2="23.5403" gradientUnits="userSpaceOnUse">
<stop stop-color="#0A3D76"/>
<stop offset="1" stop-color="#0C53A3"/>
</linearGradient>
<linearGradient id="paint4_linear" x1="201.712" y1="73.2648" x2="235.174" y2="76.9583" gradientUnits="userSpaceOnUse">
<stop offset="0.187" stop-color="#69A7FF"/>
<stop offset="1" stop-color="#B4D1FA"/>
</linearGradient>
<linearGradient id="paint5_linear" x1="220.082" y1="31.8973" x2="180.965" y2="80.1816" gradientUnits="userSpaceOnUse">
<stop stop-color="#B4D1FA"/>
<stop offset="1" stop-color="#69A7FF"/>
</linearGradient>
<linearGradient id="paint6_linear" x1="192.388" y1="62.9961" x2="192.571" y2="99.6443" gradientUnits="userSpaceOnUse">
<stop stop-color="#B4D1FA"/>
<stop offset="1" stop-color="#69A7FF"/>
</linearGradient>
<linearGradient id="paint7_linear" x1="160.642" y1="93.7134" x2="112.553" y2="91.3622" gradientUnits="userSpaceOnUse">
<stop stop-color="#961D30"/>
<stop offset="1" stop-color="#E13152"/>
</linearGradient>
<linearGradient id="paint8_linear" x1="178.423" y1="109.409" x2="137.282" y2="108.714" gradientUnits="userSpaceOnUse">
<stop stop-color="#A62E41"/>
<stop offset="1" stop-color="#E13152"/>
</linearGradient>
<linearGradient id="paint9_linear" x1="147.128" y1="134.416" x2="115.523" y2="105.098" gradientUnits="userSpaceOnUse">
<stop stop-color="#892031"/>
<stop offset="1" stop-color="#E13152"/>
</linearGradient>
<linearGradient id="paint10_linear" x1="217.147" y1="70.2075" x2="217.147" y2="78.4002" gradientUnits="userSpaceOnUse">
<stop stop-color="#0A3D76"/>
<stop offset="1" stop-color="#0C53A3"/>
</linearGradient>
<linearGradient id="paint11_linear" x1="220.05" y1="68.8667" x2="220.05" y2="74.3334" gradientUnits="userSpaceOnUse">
<stop stop-color="#0A3D76"/>
<stop offset="1" stop-color="#0C53A3"/>
</linearGradient>
<linearGradient id="paint12_linear" x1="222.291" y1="65.7954" x2="222.291" y2="71.2931" gradientUnits="userSpaceOnUse">
<stop stop-color="#0A3D76"/>
<stop offset="1" stop-color="#0C53A3"/>
</linearGradient>
<linearGradient id="paint13_linear" x1="223.8" y1="63" x2="223.8" y2="68.8" gradientUnits="userSpaceOnUse">
<stop stop-color="#0A3D76"/>
<stop offset="1" stop-color="#0C53A3"/>
</linearGradient>
<linearGradient id="paint14_linear" x1="186.38" y1="73.7998" x2="186.38" y2="79.2998" gradientUnits="userSpaceOnUse">
<stop stop-color="#0A3D76"/>
<stop offset="1" stop-color="#0C53A3"/>
</linearGradient>
<linearGradient id="paint15_linear" x1="190.45" y1="77.1753" x2="190.45" y2="81.324" gradientUnits="userSpaceOnUse">
<stop stop-color="#0A3D76"/>
<stop offset="1" stop-color="#0C53A3"/>
</linearGradient>
<linearGradient id="paint16_linear" x1="193.957" y1="78.6641" x2="193.957" y2="82.9037" gradientUnits="userSpaceOnUse">
<stop stop-color="#0A3D76"/>
<stop offset="1" stop-color="#0C53A3"/>
</linearGradient>
<linearGradient id="paint17_linear" x1="196.45" y1="79.5" x2="196.45" y2="84" gradientUnits="userSpaceOnUse">
<stop stop-color="#0A3D76"/>
<stop offset="1" stop-color="#0C53A3"/>
</linearGradient>
<linearGradient id="paint18_linear" x1="199.431" y1="43.5176" x2="199.12" y2="51.3359" gradientUnits="userSpaceOnUse">
<stop stop-color="#0A3D76"/>
<stop offset="1" stop-color="#0C53A3"/>
</linearGradient>
<linearGradient id="paint19_linear" x1="202.317" y1="47.3998" x2="202.086" y2="53.2145" gradientUnits="userSpaceOnUse">
<stop stop-color="#0A3D76"/>
<stop offset="1" stop-color="#0C53A3"/>
</linearGradient>
<linearGradient id="paint20_linear" x1="205.491" y1="48.8303" x2="205.255" y2="54.7521" gradientUnits="userSpaceOnUse">
<stop stop-color="#0A3D76"/>
<stop offset="1" stop-color="#0C53A3"/>
</linearGradient>
<linearGradient id="paint21_linear" x1="208.365" y1="49.6115" x2="208.122" y2="55.7239" gradientUnits="userSpaceOnUse">
<stop stop-color="#0A3D76"/>
<stop offset="1" stop-color="#0C53A3"/>
</linearGradient>
<linearGradient id="paint22_linear" x1="221.647" y1="75.5623" x2="224.814" y2="77.9646" gradientUnits="userSpaceOnUse">
<stop stop-color="#0A3D76"/>
<stop offset="1" stop-color="#0C53A3"/>
</linearGradient>
<linearGradient id="paint23_linear" x1="221.647" y1="75.5623" x2="224.814" y2="77.9646" gradientUnits="userSpaceOnUse">
<stop stop-color="#0A3D76"/>
<stop offset="1" stop-color="#0C53A3"/>
</linearGradient>
<linearGradient id="paint24_linear" x1="221.647" y1="75.5623" x2="224.814" y2="77.9646" gradientUnits="userSpaceOnUse">
<stop stop-color="#0A3D76"/>
<stop offset="1" stop-color="#0C53A3"/>
</linearGradient>
<linearGradient id="paint25_linear" x1="221.647" y1="75.5623" x2="224.814" y2="77.9646" gradientUnits="userSpaceOnUse">
<stop stop-color="#0A3D76"/>
<stop offset="1" stop-color="#0C53A3"/>
</linearGradient>
<linearGradient id="paint26_linear" x1="221.647" y1="75.5623" x2="224.814" y2="77.9646" gradientUnits="userSpaceOnUse">
<stop stop-color="#0A3D76"/>
<stop offset="1" stop-color="#0C53A3"/>
</linearGradient>
<linearGradient id="paint27_linear" x1="221.647" y1="75.5623" x2="224.814" y2="77.9646" gradientUnits="userSpaceOnUse">
<stop stop-color="#0A3D76"/>
<stop offset="1" stop-color="#0C53A3"/>
</linearGradient>
<linearGradient id="paint28_linear" x1="191.327" y1="84.8569" x2="189.809" y2="88.5568" gradientUnits="userSpaceOnUse">
<stop stop-color="#0A3D76"/>
<stop offset="1" stop-color="#0C53A3"/>
</linearGradient>
<linearGradient id="paint29_linear" x1="191.327" y1="84.8569" x2="189.809" y2="88.5568" gradientUnits="userSpaceOnUse">
<stop stop-color="#0A3D76"/>
<stop offset="1" stop-color="#0C53A3"/>
</linearGradient>
<linearGradient id="paint30_linear" x1="191.327" y1="84.8569" x2="189.809" y2="88.5568" gradientUnits="userSpaceOnUse">
<stop stop-color="#0A3D76"/>
<stop offset="1" stop-color="#0C53A3"/>
</linearGradient>
<linearGradient id="paint31_linear" x1="191.327" y1="84.8569" x2="189.809" y2="88.5568" gradientUnits="userSpaceOnUse">
<stop stop-color="#0A3D76"/>
<stop offset="1" stop-color="#0C53A3"/>
</linearGradient>
<linearGradient id="paint32_linear" x1="191.327" y1="84.8569" x2="189.809" y2="88.5568" gradientUnits="userSpaceOnUse">
<stop stop-color="#0A3D76"/>
<stop offset="1" stop-color="#0C53A3"/>
</linearGradient>
<linearGradient id="paint33_linear" x1="191.327" y1="84.8569" x2="189.809" y2="88.5568" gradientUnits="userSpaceOnUse">
<stop stop-color="#0A3D76"/>
<stop offset="1" stop-color="#0C53A3"/>
</linearGradient>
<linearGradient id="paint34_linear" x1="199.47" y1="56.7477" x2="196.278" y2="64.06" gradientUnits="userSpaceOnUse">
<stop stop-color="#0A3D76"/>
<stop offset="1" stop-color="#0C53A3"/>
</linearGradient>
<linearGradient id="paint35_linear" x1="199.47" y1="56.7477" x2="196.278" y2="64.06" gradientUnits="userSpaceOnUse">
<stop stop-color="#0A3D76"/>
<stop offset="1" stop-color="#0C53A3"/>
</linearGradient>
<linearGradient id="paint36_linear" x1="199.47" y1="56.7477" x2="196.278" y2="64.06" gradientUnits="userSpaceOnUse">
<stop stop-color="#0A3D76"/>
<stop offset="1" stop-color="#0C53A3"/>
</linearGradient>
<linearGradient id="paint37_linear" x1="199.47" y1="56.7477" x2="196.278" y2="64.06" gradientUnits="userSpaceOnUse">
<stop stop-color="#0A3D76"/>
<stop offset="1" stop-color="#0C53A3"/>
</linearGradient>
<linearGradient id="paint38_linear" x1="199.47" y1="56.7477" x2="196.278" y2="64.06" gradientUnits="userSpaceOnUse">
<stop stop-color="#0A3D76"/>
<stop offset="1" stop-color="#0C53A3"/>
</linearGradient>
<linearGradient id="paint39_linear" x1="199.47" y1="56.7477" x2="196.278" y2="64.06" gradientUnits="userSpaceOnUse">
<stop stop-color="#0A3D76"/>
<stop offset="1" stop-color="#0C53A3"/>
</linearGradient>
<clipPath id="clip0">
<rect width="340" height="235" fill="white"/>
</clipPath>
</defs>
</svg>
