<svg width="566" height="545" viewBox="0 0 566 545" fill="none" xmlns="http://www.w3.org/2000/svg">
<g opacity="0.5" filter="url(#filter0_f)">
<path d="M336.246 503.552L365.638 491.184C366.462 491.685 367.232 492.27 367.936 492.929C369.311 494.728 367.539 497.202 369.842 498.776C372.682 500.692 379.663 500.271 385.437 497.84C385.599 497.773 385.759 497.703 385.914 497.633C391.34 495.212 393.517 491.83 390.758 489.968C388.994 488.778 385.956 488.843 383.48 488.393C382.232 488.183 381.013 487.827 379.847 487.334C379.149 486.965 378.486 486.532 377.868 486.041L407.302 473.649L462.73 511.079L391.679 541L368.747 525.513L369.033 525.383C370.019 524.953 371.03 524.583 372.059 524.272C375.479 523.521 380.105 524.434 383.069 523.19C386.689 521.576 385.95 517.917 381.496 514.906C377.002 511.863 370.39 510.633 366.754 512.169C364.496 513.177 364.584 514.762 363.71 516.059C363.18 516.843 362.491 517.506 361.688 518.005C361.58 518.07 361.166 518.279 360.643 518.511C360.211 518.704 359.704 518.913 359.232 519.073L336.246 503.552Z" fill="#C2C2C2"/>
</g>
<path d="M397.48 482.227C397.48 481.552 397.13 480.961 396.411 480.475C396.296 480.398 396.186 480.329 396.049 480.25L395.928 480.192C395.838 480.149 395.743 480.106 395.649 480.068L395.579 480.036L395.516 480.014C395.366 479.958 395.209 479.901 395.047 479.854C394.88 479.807 394.712 479.764 394.541 479.724L394.483 479.71L394.411 479.697C394.209 479.652 394.002 479.611 393.791 479.578H393.773H393.721C393.496 479.542 393.272 479.51 393.061 479.481H392.991C392.766 479.449 392.521 479.422 392.285 479.395H392.245L391.672 479.33L390.998 479.249L390.874 479.234C390.65 479.204 390.441 479.173 390.229 479.139L389.899 479.083C389.674 479.042 389.45 478.995 389.225 478.948L389.106 478.921C388.941 478.885 388.779 478.847 388.621 478.806H388.607C388.445 478.766 388.286 478.721 388.126 478.676L387.976 478.629C387.866 478.597 387.751 478.561 387.648 478.527L387.49 478.474L387.165 478.354C387.124 478.339 387.082 478.325 387.041 478.307C386.905 478.253 386.772 478.197 386.643 478.138C386.018 477.81 385.424 477.423 384.871 476.983L384.999 491.784C385.554 492.223 386.148 492.611 386.774 492.942C386.902 493 387.034 493.054 387.171 493.11L387.201 493.122L387.293 493.155C387.401 493.196 387.517 493.236 387.623 493.275L387.776 493.326L388.113 493.432L388.205 493.461L388.252 493.475C388.412 493.522 388.573 493.567 388.737 493.607C388.902 493.648 389.068 493.688 389.234 493.724L389.281 493.736L389.349 493.749C389.573 493.799 389.798 493.846 390.023 493.886L390.299 493.936H390.353C390.564 493.969 390.78 494.001 390.996 494.03L391.126 494.046C391.351 494.075 391.562 494.1 391.784 494.127L392.218 494.176L392.393 494.197C392.634 494.224 392.872 494.251 393.108 494.282H393.164C393.389 494.311 393.613 494.343 393.838 494.379H393.91C394.121 494.412 394.326 494.453 394.53 494.498L394.66 494.525C394.833 494.565 395.002 494.608 395.166 494.655C395.33 494.703 395.489 494.759 395.644 494.817L395.777 494.869L396.056 494.995L396.175 495.053C396.301 495.121 396.422 495.191 396.536 495.278C397.258 495.764 397.601 496.367 397.608 497.03L397.48 482.227Z" fill="#8A4E5C"/>
<path d="M376.054 514.822C376.104 514.808 376.155 514.797 376.205 514.788L376.411 514.743L376.582 514.712L376.726 514.687L376.836 527.091L397.359 540.95L397.227 526.149L380.229 514.68C380.476 514.709 380.728 514.743 380.979 514.786L381.152 514.815L381.433 514.867L381.635 514.907L381.905 514.964L382.094 515.006C382.24 515.038 382.386 515.074 382.543 515.11L382.667 515.141C382.849 515.188 383.031 515.24 383.213 515.292L383.318 515.323C383.568 515.4 383.819 515.479 384.069 515.562L384.107 515.575C384.354 515.661 384.601 515.753 384.846 515.847L384.907 515.872C385.188 515.982 385.469 516.097 385.745 516.225L385.785 516.243C386.064 516.369 386.34 516.504 386.612 516.643L386.639 516.657C386.913 516.801 387.185 516.949 387.448 517.107H387.462C387.729 517.266 387.992 517.43 388.246 517.601C390.511 519.133 391.704 520.848 391.715 522.324L391.578 507.518C391.564 506.054 390.371 504.338 388.107 502.796C387.853 502.625 387.59 502.458 387.322 502.301H387.309C387.044 502.146 386.776 501.997 386.5 501.851L386.471 501.838C386.201 501.698 385.927 501.563 385.646 501.437L385.606 501.419C385.329 501.296 385.051 501.177 384.768 501.066H384.752L384.709 501.051C384.462 500.954 384.21 500.862 383.961 500.774H383.932C383.68 500.686 383.426 500.608 383.175 500.533L383.116 500.513H383.078C382.894 500.459 382.709 500.408 382.525 500.36L382.413 500.331C382.263 500.292 382.113 500.256 381.963 500.223L381.88 500.203L381.786 500.183L381.505 500.124L381.31 500.086L381.024 500.034L380.887 500.01H380.854C380.597 499.967 380.346 499.931 380.094 499.902H380.036H379.991C379.766 499.877 379.555 499.857 379.339 499.841H379.285C379.262 499.843 379.239 499.843 379.216 499.841C378.813 499.818 378.422 499.809 378.04 499.818H377.912C377.726 499.818 377.542 499.834 377.364 499.85H377.328C377.139 499.866 376.957 499.886 376.775 499.911C376.756 499.912 376.736 499.912 376.717 499.911H376.677L376.452 499.947L376.297 499.974L376.072 500.023L375.953 500.048H375.935C375.776 500.086 375.621 500.131 375.47 500.178L375.367 500.212C375.214 500.264 375.063 500.318 374.917 500.376C374.771 500.435 374.693 500.482 374.596 500.533L374.508 500.585L374.4 500.644L374.315 500.7L374.207 500.77C374.151 500.808 374.099 500.846 374.048 500.887L373.958 500.954L373.926 500.979C373.866 501.03 373.807 501.082 373.753 501.134L373.733 501.154L373.607 501.282L373.574 501.323L373.515 501.39C373.477 501.435 373.439 501.482 373.405 501.53L373.356 501.595L373.331 501.629C373.313 501.653 373.299 501.678 373.284 501.703C373.268 501.728 373.223 501.793 373.196 501.84C373.169 501.887 373.153 501.91 373.133 501.946L373.059 502.081C373.052 502.097 373.043 502.113 373.034 502.128C373.034 502.146 373.019 502.164 373.01 502.18C372.969 502.258 372.933 502.339 372.895 502.418C372.895 502.436 372.879 502.454 372.873 502.47C372.825 502.578 372.778 502.683 372.733 502.789C372.688 502.895 372.664 502.953 372.628 503.034L372.587 503.126C372.542 503.225 372.497 503.322 372.45 503.416C372.423 503.468 372.396 503.518 372.367 503.567C372.338 503.617 372.342 503.616 372.329 503.639C372.288 503.711 372.243 503.785 372.194 503.864C372.145 503.943 372.131 503.952 372.1 503.997L371.951 504.194L371.886 504.278C371.817 504.361 371.747 504.444 371.662 504.527L371.644 504.547C371.565 504.635 371.48 504.721 371.392 504.806L371.313 504.878C371.248 504.939 371.183 504.997 371.113 505.056C371.082 505.085 371.046 505.112 371.01 505.141C370.974 505.17 370.871 505.251 370.799 505.305C370.765 505.33 370.734 505.357 370.698 505.382C370.59 505.458 370.473 505.532 370.365 505.607L370.327 505.627H370.311L370.266 505.652L370.239 505.665L370.183 505.694L370.145 505.715L370.084 505.744L370.03 505.771L369.972 505.8L369.9 505.834L369.833 505.865L369.756 505.901L369.651 505.951L369.601 505.975L369.43 506.052C369.044 506.225 368.59 506.412 368.168 506.553L347.622 492.679L347.75 507.48L368.298 521.354C368.72 521.213 369.174 521.026 369.561 520.853L369.88 520.707L370.012 520.644L370.107 520.597L370.143 520.579L370.212 520.545L370.257 520.522L370.309 520.495L370.352 520.475L370.388 520.455L370.426 520.435L370.45 520.421L370.473 520.408C370.59 520.336 370.698 520.262 370.81 520.183L370.907 520.111C370.981 520.057 371.053 520.001 371.131 519.944L371.185 519.902L371.232 519.859C371.3 519.801 371.367 519.742 371.43 519.684L371.511 519.607C371.599 519.524 371.682 519.439 371.763 519.353L371.781 519.333C371.855 519.252 371.927 519.169 372.005 519.085L372.073 519L372.216 518.807C372.228 518.791 372.243 518.773 372.255 518.755L372.313 518.672C372.36 518.6 372.405 518.528 372.448 518.447C372.464 518.42 372.477 518.393 372.491 518.366C372.504 518.339 372.54 518.278 372.563 518.233C372.612 518.136 372.657 518.04 372.702 517.941L372.742 517.851C372.776 517.77 372.812 517.689 372.848 517.608C372.884 517.527 372.94 517.383 372.987 517.282C372.995 517.268 373.002 517.253 373.007 517.237C373.046 517.156 373.084 517.073 373.124 516.992C373.14 516.96 373.156 516.929 373.174 516.897L373.25 516.758L373.308 516.655C373.338 516.607 373.367 516.562 373.398 516.517C373.42 516.48 373.444 516.444 373.47 516.409L373.52 516.342C373.553 516.297 373.592 516.25 373.63 516.205C373.648 516.181 373.667 516.159 373.688 516.137C373.738 516.081 373.789 516.025 373.845 515.971L373.868 515.948C373.933 515.886 374.001 515.826 374.072 515.771L374.16 515.701C374.212 515.663 374.266 515.622 374.322 515.584L374.43 515.514C374.49 515.476 374.556 515.436 374.623 515.398L374.711 515.35C374.812 515.296 374.917 515.242 375.032 515.191C375.146 515.139 375.324 515.078 375.481 515.027L375.585 514.993C375.74 514.903 375.892 514.86 376.054 514.822Z" fill="#9A5364"/>
<path d="M460.813 499.371L460.943 514.172L397.359 540.95L397.226 526.149L460.813 499.371Z" fill="#DD6A85"/>
<path d="M347.627 492.649L373.931 481.57C374.669 482.023 375.359 482.551 375.989 483.144C377.219 484.765 375.632 486.967 377.695 488.37C380.236 490.084 386.482 489.719 391.65 487.531C391.796 487.471 391.938 487.41 392.077 487.347C396.935 485.179 398.883 482.152 396.414 480.486C394.841 479.42 392.115 479.488 389.898 479.078C388.781 478.89 387.691 478.572 386.649 478.129C386.023 477.801 385.429 477.414 384.876 476.974L411.212 465.883L460.816 499.389L397.229 526.167L376.708 512.308L376.962 512.191C377.845 511.806 378.75 511.475 379.672 511.197C382.732 510.522 386.862 511.341 389.516 510.228C392.756 508.782 392.095 505.505 388.107 502.807C384.076 500.084 378.169 498.984 374.913 500.358C372.891 501.258 372.972 502.677 372.19 503.839C371.713 504.542 371.093 505.135 370.37 505.58C370.273 505.638 369.903 505.825 369.435 506.029C369.049 506.203 368.595 506.389 368.173 506.531L347.627 492.649Z" fill="#F985A0"/>
<g opacity="0.5" filter="url(#filter1_f)">
<path d="M245.928 507.155C244.165 505.963 241.122 506.031 238.651 505.581C237.402 505.369 236.183 505.012 235.018 504.517C234.318 504.15 233.654 503.717 233.036 503.224L262.47 490.832L239.552 475.347C239.644 475.302 239.745 475.255 239.848 475.21C240.831 474.781 241.837 474.411 242.864 474.103C246.281 473.352 250.905 474.263 253.981 472.979C257.482 471.418 256.745 467.757 252.287 464.751C247.793 461.706 241.181 460.478 237.435 462.052C235.289 463.013 235.375 464.596 234.501 465.893C233.972 466.678 233.283 467.341 232.479 467.838C232.371 467.906 231.957 468.113 231.434 468.347C231.002 468.54 230.495 468.749 230.023 468.909L207.044 453.404L135.986 483.328L191.412 520.758L220.808 508.39C221.631 508.892 222.401 509.478 223.105 510.137C224.48 511.936 222.707 514.409 225.01 515.984C227.85 517.899 234.831 517.481 240.606 515.048C240.77 514.981 240.929 514.911 241.086 514.841C246.51 512.388 248.685 509.015 245.928 507.155Z" fill="#C9C9C9"/>
</g>
<path d="M240.299 461.291H240.283C239.366 461.568 238.466 461.898 237.587 462.278L237.324 462.402L237.455 477.203L237.717 477.079C238.593 476.7 239.489 476.371 240.402 476.094H240.418C240.643 476.042 240.888 476 241.133 475.964C241.423 475.923 241.721 475.89 242.031 475.865L241.903 461.064C241.598 461.088 241.299 461.122 241.005 461.163C240.771 461.196 240.524 461.239 240.299 461.291Z" fill="#613345"/>
<path d="M257.988 491.064L257.858 476.26L231.52 487.353L231.628 499.67C228.57 500.036 225.822 499.748 224.339 498.748C223.353 498.073 223.202 497.228 223.177 496.342V495.609C223.177 494.88 223.121 494.156 222.64 493.524C222.011 492.931 221.323 492.404 220.587 491.95L194.278 503.029L194.408 517.83L220.715 506.751C221.451 507.201 222.14 507.725 222.771 508.314C223.2 508.88 223.285 509.519 223.303 510.171V510.904C223.303 511.871 223.4 512.816 224.469 513.538C227.011 515.253 233.257 514.887 238.427 512.701L238.856 512.514C242.294 510.981 244.273 509.015 244.249 507.408C244.217 503.895 244.187 500.383 244.157 496.872L257.988 491.064Z" fill="#8E2838"/>
<path d="M252.354 457.345L252.484 472.146C249.955 475.516 243.657 477.037 240.431 476.092C239.514 476.369 238.614 476.699 237.735 477.081L237.472 477.205L237.342 462.404L237.605 462.28C238.483 461.898 239.384 461.568 240.301 461.291C243.362 459.113 249.613 449.601 252.354 457.345Z" fill="#551821"/>
<path d="M194.271 503.041L144.667 469.541L144.797 484.342L194.401 517.842L194.271 503.041Z" fill="#641A26"/>
<path d="M243.058 490.866C241.485 489.8 238.759 489.868 236.542 489.458C235.425 489.271 234.334 488.953 233.29 488.512C232.665 488.181 232.071 487.793 231.515 487.353L257.853 476.261L237.333 462.404L237.595 462.28C238.474 461.898 239.374 461.568 240.292 461.291C243.35 460.616 247.482 461.435 250.241 460.274C253.387 458.876 252.713 455.602 248.727 452.91C244.693 450.184 238.786 449.087 235.434 450.501C233.513 451.36 233.589 452.777 232.807 453.94C232.331 454.643 231.711 455.236 230.987 455.68C230.891 455.739 230.52 455.925 230.053 456.13C229.666 456.303 229.212 456.49 228.79 456.634L208.244 442.757L144.657 469.537L194.262 503.043L220.571 491.963C221.307 492.417 221.995 492.945 222.624 493.537C223.853 495.157 222.267 497.36 224.33 498.761C226.871 500.477 233.117 500.111 238.287 497.925C238.434 497.864 238.577 497.801 238.717 497.738C243.581 495.557 245.527 492.532 243.058 490.866Z" fill="url(#paint0_linear)"/>
<g opacity="0.5" filter="url(#filter2_f)">
<path d="M195.679 390.241L260.872 362.784L311.731 397.131L284.728 408.501C285.295 408.954 285.904 409.351 286.548 409.688C287.616 410.142 288.735 410.468 289.88 410.66C292.151 411.08 294.94 411.01 296.557 412.103C299.087 413.812 297.094 416.915 292.115 419.137C291.972 419.2 291.825 419.265 291.666 419.328C286.368 421.559 279.96 421.944 277.358 420.185C275.243 418.757 276.868 416.49 275.605 414.831C274.96 414.225 274.254 413.688 273.498 413.228L246.535 424.586L225.493 410.376C225.578 410.336 225.668 410.293 225.762 410.253C226.664 409.86 227.589 409.521 228.531 409.236C231.676 408.546 235.914 409.385 238.624 408.242C241.947 406.763 241.27 403.405 237.181 400.644C233.047 397.851 226.991 396.726 223.653 398.132C221.581 399.054 221.664 400.509 220.86 401.701C220.372 402.421 219.736 403.029 218.995 403.484C218.896 403.545 218.521 403.733 218.044 403.947C217.644 404.125 217.175 404.318 216.739 404.467L195.679 390.241Z" fill="#C9C9C9"/>
</g>
<path d="M231.779 398.767L231.914 398.737L232.123 398.692C232.172 398.681 232.224 398.674 232.273 398.665L232.422 398.641L232.525 410.444L252.057 423.635L251.934 409.549L235.756 398.623C235.994 398.65 236.235 398.683 236.475 398.722L236.632 398.751L236.909 398.8L237.093 398.836L237.363 398.893L237.531 398.931L237.956 399.032L238.068 399.061C238.243 399.106 238.416 399.156 238.592 399.205L238.684 399.234C238.926 399.306 239.167 399.38 239.405 399.459H239.432C239.672 399.542 239.911 399.63 240.149 399.722L240.2 399.743C240.47 399.848 240.735 399.967 241 400.08L241.036 400.096C241.304 400.217 241.567 400.345 241.825 400.478L241.85 400.491C242.11 400.626 242.369 400.768 242.618 400.916H242.634C242.888 401.067 243.137 401.224 243.38 401.386C245.535 402.844 246.669 404.478 246.683 405.87C246.641 401.175 246.599 396.48 246.557 391.784C246.546 390.39 245.411 388.758 243.256 387.3C243.014 387.136 242.764 386.979 242.51 386.828H242.494C242.245 386.68 241.987 386.538 241.726 386.401L241.699 386.387C241.441 386.255 241.18 386.129 240.915 386.007L240.874 385.989C240.612 385.872 240.346 385.764 240.079 385.654H240.063L240.018 385.639C239.794 385.546 239.551 385.461 239.313 385.378L239.279 385.366C239.043 385.285 238.805 385.211 238.567 385.142L238.504 385.124H238.464C238.293 385.072 238.118 385.025 237.945 384.98L237.83 384.95C237.691 384.914 237.551 384.881 237.41 384.849L237.327 384.829L237.232 384.809L236.976 384.755L236.781 384.717L236.52 384.669L236.383 384.645H236.347C236.109 384.606 235.868 384.573 235.632 384.543H235.57H235.525C235.318 384.521 235.111 384.503 234.909 384.487H234.857H234.794C234.603 384.487 234.412 384.467 234.224 384.462H234.208C234.03 384.462 233.855 384.462 233.682 384.462H233.552C233.377 384.462 233.206 384.478 233.037 384.492H233.022H232.983C232.806 384.507 232.635 384.528 232.467 384.55H232.408H232.37L232.17 384.584L232.008 384.613C231.943 384.613 231.878 384.64 231.815 384.654L231.682 384.683H231.664C231.514 384.719 231.368 384.762 231.215 384.807L231.116 384.838C230.972 384.887 230.831 384.937 230.696 384.993C230.561 385.049 230.487 385.092 230.39 385.144L230.307 385.191L230.204 385.247L230.123 385.301L230.02 385.369C229.968 385.405 229.916 385.441 229.867 385.479L229.782 385.544L229.752 385.567C229.694 385.616 229.64 385.663 229.588 385.715L229.568 385.735C229.525 385.776 229.487 385.814 229.449 385.857L229.415 385.895L229.361 385.958C229.325 386.001 229.289 386.046 229.256 386.091L229.211 386.151L229.186 386.185L229.141 386.255L229.056 386.385L229 386.484C228.975 386.529 228.95 386.574 228.928 386.619L228.903 386.659L228.883 386.707C228.842 386.785 228.806 386.864 228.77 386.943L228.75 386.983C228.703 387.091 228.656 387.208 228.611 387.307C228.582 387.377 228.55 387.447 228.519 387.516L228.478 387.611C228.436 387.705 228.393 387.797 228.346 387.887C228.323 387.934 228.299 387.979 228.272 388.024C228.245 388.069 228.247 388.074 228.231 388.099C228.193 388.168 228.148 388.238 228.103 388.308C228.058 388.377 228.04 388.395 228.009 388.438C227.977 388.481 227.919 388.562 227.872 388.623L227.809 388.704C227.744 388.785 227.674 388.863 227.602 388.944L227.589 388.958C227.512 389.041 227.431 389.124 227.348 389.203L227.274 389.272C227.213 389.331 227.148 389.387 227.083 389.443L226.989 389.522L226.784 389.682L226.69 389.751C226.586 389.823 226.483 389.895 226.373 389.963L226.353 389.974L226.319 389.992L226.299 390.003L226.249 390.028L226.218 390.046L226.162 390.075L226.121 390.096L226.056 390.127L226.002 390.154L225.933 390.188L225.85 390.226L225.798 390.251L225.701 390.296L225.647 390.32L225.49 390.392C225.119 390.557 224.683 390.736 224.279 390.874L204.731 377.669L204.855 391.755L224.403 404.96C224.807 404.825 225.243 404.645 225.614 404.478L225.773 404.406H225.8L225.921 404.348L225.969 404.328L226.056 404.285L226.112 404.258L226.18 404.224L226.222 404.204L226.288 404.17L226.321 404.155L226.378 404.125L226.402 404.112L226.445 404.089H226.463L226.49 404.074C226.6 404.006 226.715 403.936 226.807 403.862L226.906 403.79L227.106 403.635L227.155 403.559L227.202 403.516C227.265 403.462 227.328 403.408 227.386 403.352L227.467 403.278C227.55 403.199 227.629 403.118 227.705 403.035L227.719 403.019C227.791 402.94 227.858 402.859 227.923 402.781L227.986 402.702L228.126 402.515L228.159 402.47L228.218 402.385C228.263 402.317 228.305 402.248 228.346 402.178L228.4 402.079C228.42 402.043 228.44 402.009 228.458 401.973C228.505 401.881 228.55 401.787 228.591 401.692C228.604 401.667 228.616 401.64 228.627 401.613L228.735 401.362L228.86 401.072C228.869 401.054 228.878 401.036 228.885 401.018L228.993 400.793L229.04 400.703C229.063 400.658 229.087 400.613 229.112 400.57C229.129 400.536 229.149 400.503 229.17 400.471C229.195 400.426 229.224 400.381 229.254 400.338L229.321 400.237C229.336 400.215 229.353 400.194 229.37 400.174C229.402 400.129 229.438 400.087 229.474 400.044C229.491 400.021 229.51 399.999 229.53 399.979C229.577 399.925 229.627 399.873 229.68 399.819L229.701 399.799C229.761 399.74 229.827 399.684 229.896 399.628L229.979 399.563C230.029 399.527 230.078 399.488 230.132 399.452L230.235 399.385C230.294 399.349 230.355 399.311 230.42 399.275L230.503 399.228C230.599 399.178 230.698 399.126 230.808 399.079C230.918 399.032 231.085 398.971 231.229 398.924L231.327 398.89C231.48 398.836 231.626 398.803 231.779 398.767Z" fill="#3F679B"/>
<path d="M312.575 398.162L312.451 384.073L287.385 394.618L287.486 406.343H287.464L287.3 406.361C287.1 406.383 286.902 406.403 286.704 406.419H286.646L286.214 406.451H286.055L285.731 406.464H285.615C285.363 406.464 285.113 406.464 284.871 406.464H284.774C284.57 406.464 284.37 406.451 284.177 406.439H284.129C283.947 406.426 283.768 406.41 283.592 406.39L283.462 406.374C283.311 406.356 283.163 406.336 283.013 406.313H282.961C282.806 406.289 282.653 406.259 282.512 406.226L282.397 406.201C282.26 406.169 282.123 406.133 281.993 406.097L281.934 406.082L281.853 406.055L281.642 405.985L281.534 405.947L281.359 405.879L281.262 405.839L281.098 405.765L281.006 405.72C280.95 405.693 280.896 405.663 280.842 405.634L280.768 405.594C280.692 405.549 280.617 405.504 280.543 405.457C279.604 404.82 279.46 404.006 279.438 403.161V402.486C279.438 401.791 279.384 401.101 278.926 400.498C278.327 399.935 277.671 399.436 276.968 399.01L251.934 409.549L252.057 423.635L277.092 413.091C277.797 413.517 278.456 414.015 279.058 414.577C279.469 415.119 279.55 415.731 279.568 416.354C279.568 416.579 279.568 416.804 279.568 417.029C279.568 417.953 279.658 418.852 280.678 419.543C280.75 419.59 280.822 419.633 280.903 419.678L280.979 419.72L281.139 419.806L281.233 419.848L281.397 419.925L281.494 419.963L281.548 419.986L281.671 420.033L281.777 420.071L281.984 420.139L282.071 420.165H282.087H282.123C282.255 420.206 282.395 420.24 282.534 420.273L282.595 420.287H282.644C282.792 420.321 282.945 420.35 283.094 420.377H283.132C283.278 420.399 283.431 420.422 283.581 420.44H283.646H283.707C283.882 420.46 284.062 420.476 284.246 420.489H284.296C284.491 420.503 284.691 420.51 284.893 420.516H284.985C285.228 420.516 285.477 420.516 285.729 420.516H285.799H285.859L286.181 420.503H286.34L286.801 420.471H286.828C287.028 420.456 287.228 420.433 287.43 420.411L287.587 420.393C287.765 420.372 287.942 420.35 288.122 420.323H288.187H288.21C288.376 420.298 288.542 420.273 288.711 420.244L288.794 420.228L289.216 420.152L289.405 420.114L289.724 420.049C289.796 420.035 289.866 420.017 289.935 420.001L290.236 419.934L290.317 419.916L290.385 419.898C290.657 419.83 290.928 419.761 291.2 419.684L291.306 419.655C291.582 419.576 291.856 419.493 292.131 419.405L292.214 419.376C292.495 419.284 292.775 419.187 293.054 419.086L293.103 419.066C293.391 418.958 293.679 418.841 293.959 418.726L294.368 418.551C294.559 418.465 294.744 418.378 294.923 418.292L295.105 418.2L295.451 418.025L295.651 417.917L295.957 417.748C296.02 417.712 296.083 417.676 296.143 417.638L296.258 417.573L296.442 417.458L296.604 417.357C296.714 417.285 296.829 417.215 296.925 417.132L297.029 417.062C297.166 416.966 297.296 416.871 297.422 416.774L297.516 416.7C297.588 416.642 297.665 416.583 297.741 416.525L297.781 416.489C297.871 416.412 297.957 416.336 298.042 416.264L298.157 416.161C298.276 416.048 298.381 415.936 298.491 415.823C298.581 415.727 298.667 415.628 298.745 415.529L298.817 415.434C298.858 415.38 298.903 415.326 298.939 415.272L298.968 415.227C298.988 415.2 299.004 415.173 299.022 415.146C299.067 415.077 299.109 415.007 299.148 414.939C299.163 414.91 299.181 414.881 299.195 414.852L299.224 414.805C299.26 414.73 299.294 414.658 299.323 414.58C299.323 414.566 299.323 414.555 299.339 414.541C299.359 414.492 299.379 414.44 299.395 414.391C299.41 414.341 299.415 414.328 299.424 414.296L299.437 414.247C299.458 414.173 299.475 414.098 299.487 414.022C299.488 414.007 299.488 413.992 299.487 413.977V413.932C299.496 413.852 299.502 413.772 299.503 413.691V413.667C299.476 410.324 299.446 406.981 299.415 403.64L312.575 398.162Z" fill="#5988C6"/>
<path d="M204.725 377.667L265.242 352.18L312.452 384.062L287.386 394.618C287.912 395.038 288.478 395.407 289.075 395.72C290.067 396.14 291.105 396.442 292.167 396.619C294.275 397.008 296.865 396.945 298.366 397.968C300.714 399.556 298.865 402.434 294.243 404.49C294.11 404.55 293.973 404.609 293.834 404.667C288.916 406.738 282.968 407.096 280.55 405.463C278.589 404.139 280.101 402.034 278.926 400.494C278.328 399.93 277.672 399.431 276.969 399.005L251.934 409.549L232.402 396.363L232.651 396.248C233.489 395.883 234.347 395.568 235.222 395.306C238.143 394.665 242.075 395.441 244.591 394.382C247.676 393.008 247.047 389.884 243.243 387.327C239.405 384.737 233.784 383.691 230.685 384.995C228.762 385.852 228.838 387.201 228.092 388.31C227.639 388.978 227.049 389.542 226.362 389.965C226.268 390.021 225.913 390.19 225.479 390.395C225.108 390.559 224.673 390.739 224.268 390.876L204.725 377.667Z" fill="#71A0DD"/>
<g opacity="0.5" filter="url(#filter3_f)">
<path d="M488.509 408.816L459.385 396.551C458.57 397.049 457.808 397.629 457.111 398.282C455.75 400.081 457.504 402.524 455.224 404.064C452.411 405.964 445.495 405.548 439.772 403.137C439.61 403.07 439.453 403.003 439.298 402.933C433.921 400.533 431.769 397.183 434.501 395.339C436.247 394.158 439.26 394.235 441.709 393.781C442.944 393.573 444.151 393.221 445.304 392.73C445.998 392.368 446.655 391.939 447.268 391.451L418.123 379.173L395.38 394.532C394.911 394.374 394.403 394.165 393.974 393.972C393.459 393.747 393.052 393.538 392.947 393.472C392.144 392.981 391.455 392.325 390.925 391.548C390.059 390.259 390.145 388.689 388.019 387.74C384.307 386.166 377.769 387.39 373.302 390.403C368.889 393.385 368.159 397.012 371.626 398.559C374.673 399.843 379.265 398.937 382.636 399.683C383.653 399.989 384.652 400.355 385.626 400.779L385.918 400.916L363.205 416.261L433.595 445.899L488.509 408.816Z" fill="#CBCED0"/>
</g>
<path d="M437.696 382.486C437.696 381.811 438.056 381.186 438.795 380.687C438.915 380.605 439.039 380.529 439.168 380.462L439.292 380.399C439.384 380.354 439.478 380.311 439.577 380.273L439.649 380.239L439.714 380.217C439.869 380.159 440.029 380.102 440.195 380.055C440.363 380.006 440.536 379.963 440.714 379.922L440.775 379.907L440.853 379.893C441.06 379.848 441.269 379.808 441.482 379.772H441.503H441.57C441.783 379.737 441.998 379.706 442.217 379.677H442.305C442.529 379.646 442.774 379.619 443.013 379.592H443.053L443.215 379.572L443.693 379.518C443.918 379.493 444.143 379.466 444.367 379.437L444.5 379.421C444.725 379.392 444.936 379.36 445.149 379.326L445.489 379.268C445.713 379.225 445.949 379.178 446.178 379.129L446.306 379.099C446.473 379.063 446.637 379.023 446.801 378.982H446.814C446.983 378.94 447.145 378.895 447.309 378.848L447.459 378.803L447.794 378.697L447.958 378.641C448.068 378.602 448.183 378.564 448.282 378.524L448.416 378.472C448.558 378.416 448.697 378.357 448.827 378.299C449.471 377.96 450.082 377.562 450.652 377.109L450.517 392.317C449.949 392.77 449.338 393.169 448.695 393.507C448.562 393.568 448.423 393.626 448.282 393.682L448.25 393.696L448.158 393.73C448.047 393.773 447.935 393.814 447.821 393.851C447.769 393.871 447.715 393.887 447.661 393.905C447.554 393.943 447.437 393.977 447.329 394.011L447.225 394.044L447.174 394.058C447.012 394.105 446.848 394.15 446.684 394.191H446.664C446.502 394.231 446.34 394.269 446.176 394.305L446.122 394.319L446.041 394.334C445.817 394.386 445.592 394.433 445.367 394.476L445.084 394.526H445.024C444.812 394.559 444.599 394.591 444.381 394.618L444.237 394.636C444.012 394.665 443.81 394.69 443.594 394.715H443.574L443.125 394.766L442.9 394.793L442.201 394.876L442.116 394.89C441.897 394.917 441.682 394.948 441.469 394.984L441.381 394.998C441.166 395.034 440.954 395.074 440.748 395.119L440.613 395.149C440.435 395.189 440.262 395.232 440.094 395.281C439.925 395.331 439.766 395.387 439.609 395.445L439.471 395.499C439.373 395.54 439.278 395.583 439.186 395.627L439.06 395.688C438.933 395.756 438.809 395.831 438.69 395.913C437.95 396.415 437.598 397.037 437.591 397.712L437.696 382.486Z" fill="#0B224A"/>
<path d="M378.343 396.819C378.343 396.792 378.343 396.761 378.325 396.732C378.318 396.707 378.312 396.681 378.309 396.655C378.309 396.655 378.309 396.637 378.309 396.628C378.309 396.619 378.309 396.547 378.294 396.507C378.278 396.466 378.294 396.446 378.294 396.417C378.294 396.388 378.294 396.331 378.294 396.289C378.294 396.246 378.294 396.241 378.294 396.217V396.185L378.426 380.977C378.426 381.011 378.426 381.045 378.426 381.08C378.426 381.116 378.426 381.164 378.426 381.206C378.426 381.249 378.426 381.267 378.437 381.299L378.451 381.418C378.451 381.454 378.464 381.488 378.473 381.523C378.482 381.559 378.473 381.582 378.489 381.611C378.505 381.64 378.509 381.683 378.521 381.719C378.527 381.747 378.535 381.775 378.545 381.802C378.545 381.816 378.545 381.829 378.561 381.845C378.597 381.95 378.64 382.053 378.689 382.153C378.739 382.25 378.795 382.343 378.858 382.432L378.887 382.477C378.951 382.566 379.02 382.652 379.093 382.733L379.156 382.801L379.228 382.875L379.316 382.956L379.397 383.026L379.475 383.091C379.523 383.127 379.57 383.165 379.622 383.201L379.698 383.257L379.873 383.37L379.943 383.412C379.997 383.444 380.051 383.475 380.109 383.505L380.185 383.547C380.269 383.59 380.354 383.631 380.446 383.671C380.619 383.745 380.797 383.81 380.981 383.869L381.17 383.921C381.295 383.957 381.419 383.995 381.549 384.024L381.653 384.047C381.799 384.08 381.947 384.11 382.102 384.137L382.284 384.166C382.423 384.188 382.563 384.208 382.706 384.226L382.848 384.244C383.032 384.267 383.221 384.285 383.41 384.298C383.529 384.298 383.65 384.314 383.769 384.323L384.073 384.341L384.446 384.357H384.744L385.459 384.373H385.479H386.324H386.863H387.131H387.58H387.697H387.895L388.243 384.386L388.564 384.404L388.899 384.427H389.011C389.135 384.427 389.258 384.449 389.38 384.46H389.456C389.616 384.476 389.773 384.496 389.93 384.519H389.984C390.209 384.553 390.447 384.593 390.658 384.642H390.678H390.701H390.732L390.78 384.656H390.818L390.883 384.676L390.93 384.692L391.011 384.717L391.063 384.732L391.157 384.764L391.215 384.784L391.321 384.818L391.382 384.84L391.499 384.881L391.564 384.903L391.683 384.944L391.761 384.971L391.874 385.011L391.966 385.045L392.076 385.085L392.175 385.121L392.287 385.164L392.388 385.202L392.503 385.247L392.604 385.286L392.716 385.331L392.818 385.371L392.93 385.416L393.029 385.457L393.148 385.506L393.235 385.542L393.433 385.63L393.705 385.756L393.57 400.964L393.298 400.838L393.101 400.752L393.035 400.725L392.894 400.667L392.813 400.633L392.683 400.579L392.593 400.543L392.469 400.496L392.375 400.458L392.254 400.413L392.155 400.375L392.042 400.332L391.946 400.296L391.831 400.255L391.739 400.222L391.631 400.181L391.53 400.147L391.438 400.116L391.341 400.082L391.254 400.051L391.171 400.024L391.087 399.994L391.011 399.97L390.935 399.945L390.867 399.923L390.802 399.902L390.741 399.884L390.69 399.869L390.643 399.855L390.598 399.842H390.566H390.523C390.299 399.792 390.074 399.754 389.849 399.718C389.676 399.691 389.501 399.668 389.324 399.648H389.234C389.079 399.632 388.921 399.617 388.764 399.605L388.434 399.585L388.108 399.567C387.996 399.567 387.883 399.567 387.767 399.554H387.443H386.994H386.715H386.182H385.484H385.311C385.072 399.554 384.837 399.549 384.603 399.54H384.569H384.277L383.929 399.527C383.823 399.527 383.72 399.513 383.614 399.507L383.268 399.484H383.23C383.05 399.468 382.875 399.453 382.7 399.432L382.569 399.414C382.482 399.414 382.392 399.394 382.304 399.381C382.248 399.381 382.194 399.363 382.138 399.354L381.958 399.324C381.81 399.297 381.662 399.268 381.509 399.234L381.403 399.212H381.374C381.253 399.183 381.149 399.147 381.021 399.113C380.958 399.095 380.896 399.082 380.837 399.061C380.653 399.003 380.473 398.938 380.3 398.866C380.21 398.825 380.125 398.782 380.039 398.74L379.954 398.695L379.799 398.607H379.779L379.725 398.571L379.556 398.463L379.473 398.405L379.332 398.297L379.284 398.261C379.274 398.25 379.263 398.24 379.251 398.231L379.172 398.162L379.084 398.079L379.013 398.007L378.968 397.959L378.95 397.937C378.876 397.856 378.807 397.77 378.743 397.681L378.729 397.665C378.723 397.656 378.718 397.647 378.714 397.638C378.652 397.548 378.596 397.455 378.545 397.359C378.497 397.261 378.454 397.161 378.417 397.058C378.417 397.058 378.417 397.04 378.417 397.031V397.01C378.417 396.983 378.401 396.956 378.395 396.929C378.388 396.902 378.352 396.858 378.343 396.819Z" fill="#204D7F"/>
<path d="M372.616 400.105L372.481 415.313L437.825 442.83L437.958 427.622L372.616 400.105Z" fill="#204D80"/>
<path d="M437.958 427.622L437.826 442.83L488.799 408.407L488.931 393.199L437.958 427.622Z" fill="#0E2754"/>
<path d="M488.931 393.199L461.899 381.814C461.142 382.275 460.434 382.813 459.787 383.419C458.524 385.083 460.153 387.357 458.034 388.787C455.423 390.55 449.004 390.163 443.692 387.928L443.243 387.737C438.255 385.508 436.255 382.398 438.79 380.687C440.412 379.592 443.209 379.662 445.483 379.241C446.63 379.048 447.751 378.722 448.822 378.267C449.466 377.928 450.077 377.53 450.646 377.078L423.589 365.67L402.469 379.929C402.033 379.781 401.57 379.587 401.163 379.41C400.685 379.196 400.309 379.007 400.21 378.946C399.466 378.486 398.828 377.873 398.339 377.147C397.534 375.951 397.615 374.494 395.643 373.615C392.196 372.16 386.127 373.289 381.981 376.088C377.885 378.856 377.207 382.221 380.427 383.658C383.253 384.849 387.507 384.011 390.65 384.703C391.594 384.986 392.521 385.326 393.425 385.72L393.697 385.846L372.607 400.102L437.949 427.62L488.931 393.199Z" fill="#094573"/>
<path d="M374 6H400.492" stroke="#EBF2F9" stroke-width="10.45" stroke-miterlimit="10"/>
<path d="M404.437 6H417.686" stroke="#EBF2F9" stroke-width="10.45" stroke-miterlimit="10"/>
<path d="M59.687 14.0042H33.1953" stroke="#EBF2F9" stroke-width="11.28" stroke-miterlimit="10"/>
<path d="M29.2459 14.0042H16" stroke="#EBF2F9" stroke-width="11.28" stroke-miterlimit="10"/>
<path d="M23.475 354.745C23.475 356.474 22.9624 358.165 22.002 359.604C21.0416 361.042 19.6766 362.163 18.0797 362.824C16.4827 363.486 14.7256 363.659 13.0305 363.321C11.3354 362.983 9.77855 362.149 8.55685 360.926C7.33515 359.702 6.50349 358.143 6.16709 356.447C5.83069 354.75 6.00467 352.991 6.66699 351.394C7.32931 349.796 8.45022 348.431 9.88795 347.471C11.3257 346.51 13.0156 345.999 14.744 346C17.0602 346.002 19.2809 346.924 20.9181 348.564C22.5553 350.203 23.475 352.427 23.475 354.745V354.745Z" stroke="#EBF2F9" stroke-width="10.45" stroke-miterlimit="10"/>
<path d="M116.59 165.34C116.599 169.162 115.474 172.901 113.358 176.082C111.243 179.264 108.231 181.746 104.706 183.214C101.18 184.682 97.2982 185.069 93.552 184.328C89.8059 183.586 86.3638 181.749 83.6616 179.049C80.9594 176.348 79.1186 172.906 78.3722 169.158C77.6258 165.41 78.0074 161.525 79.4687 157.994C80.9301 154.463 83.4054 151.445 86.5813 149.323C89.7572 147.201 93.4908 146.07 97.3095 146.073C102.418 146.073 107.318 148.102 110.933 151.714C114.548 155.327 116.582 160.228 116.59 165.34Z" stroke="#EBF2F9" stroke-width="10.45" stroke-miterlimit="10"/>
<path d="M563 319.131C563.006 321.903 562.19 324.615 560.655 326.923C559.12 329.231 556.935 331.031 554.377 332.096C551.819 333.16 549.002 333.442 546.284 332.904C543.566 332.366 541.069 331.033 539.108 329.075C537.147 327.116 535.812 324.619 535.27 321.901C534.728 319.182 535.005 316.363 536.066 313.802C537.126 311.241 538.922 309.052 541.226 307.513C543.531 305.974 546.24 305.153 549.01 305.155C552.717 305.155 556.272 306.627 558.895 309.248C561.518 311.868 562.994 315.423 563 319.131Z" stroke="#EBF2F9" stroke-width="6" stroke-miterlimit="10"/>
<defs>
<filter id="filter0_f" x="332.246" y="469.649" width="134.484" height="75.3515" filterUnits="userSpaceOnUse" color-interpolation-filters="sRGB">
<feFlood flood-opacity="0" result="BackgroundImageFix"/>
<feBlend mode="normal" in="SourceGraphic" in2="BackgroundImageFix" result="shape"/>
<feGaussianBlur stdDeviation="2" result="effect1_foregroundBlur"/>
</filter>
<filter id="filter1_f" x="131.986" y="449.404" width="134.484" height="75.3537" filterUnits="userSpaceOnUse" color-interpolation-filters="sRGB">
<feFlood flood-opacity="0" result="BackgroundImageFix"/>
<feBlend mode="normal" in="SourceGraphic" in2="BackgroundImageFix" result="shape"/>
<feGaussianBlur stdDeviation="2" result="effect1_foregroundBlur"/>
</filter>
<filter id="filter2_f" x="191.679" y="358.784" width="124.052" height="69.8016" filterUnits="userSpaceOnUse" color-interpolation-filters="sRGB">
<feFlood flood-opacity="0" result="BackgroundImageFix"/>
<feBlend mode="normal" in="SourceGraphic" in2="BackgroundImageFix" result="shape"/>
<feGaussianBlur stdDeviation="2" result="effect1_foregroundBlur"/>
</filter>
<filter id="filter3_f" x="359.205" y="375.173" width="133.305" height="74.7263" filterUnits="userSpaceOnUse" color-interpolation-filters="sRGB">
<feFlood flood-opacity="0" result="BackgroundImageFix"/>
<feBlend mode="normal" in="SourceGraphic" in2="BackgroundImageFix" result="shape"/>
<feGaussianBlur stdDeviation="2" result="effect1_foregroundBlur"/>
</filter>
<linearGradient id="paint0_linear" x1="254.364" y1="472.9" x2="148.13" y2="468.617" gradientUnits="userSpaceOnUse">
<stop stop-color="#A62E41"/>
<stop offset="1" stop-color="#E13152"/>
</linearGradient>
</defs>
</svg>
