<svg width="340" height="235" fill="none" xmlns="http://www.w3.org/2000/svg"><g clip-path="url(#clip0)"><g filter="url(#filter0_d)" stroke="#0A3D76" stroke-width="4" stroke-miterlimit="10"><path d="M293.654 94.883h-5.804m-.864 0h-2.903"/></g><g filter="url(#filter1_d)" stroke="#71A0DD" stroke-width="2" stroke-miterlimit="10"><path d="M186.079 104.85l3.254 3.258m2.297 2.299l3.254 3.259m0-8.816l-3.254 3.258m-2.297 2.299l-3.254 3.259"/></g><g filter="url(#filter2_d)" stroke="#7C9CD3" stroke-width="10.45" stroke-miterlimit="10"><path d="M84.246 165.416l.99.993m.699.7l.99.992m0-2.685l-.99.993m-.699.7l-.99.992"/></g><g filter="url(#filter3_d)" stroke="#A62E41" stroke-width="3" stroke-miterlimit="10"><path d="M283.318 17.067l7.637 7.651m5.391 5.399l7.644 7.65m0-20.7l-7.644 7.65m-5.391 5.4l-7.638 7.65"/></g><g filter="url(#filter4_d)" stroke="#7C9CD3" stroke-width="2" stroke-miterlimit="10"><path d="M36.01 54.25l.848.85m.6.6l.85.85m0-2.3l-.85.85m-.6.6l-.849.85"/></g><g filter="url(#filter5_d)"><path d="M262.262 57.7a1.152 1.152 0 01-.709 1.062 1.148 1.148 0 01-1.5-1.503 1.149 1.149 0 012.209.44v0z" stroke="#F985A0" stroke-width="10.45" stroke-miterlimit="10"/></g><g filter="url(#filter6_d)"><path d="M173.875 234.8L5 181.89l171.125-49.057L335 181.89 173.875 234.8z" fill="#FFF5F7"/></g><g filter="url(#filter7_f)"><path d="M178.517 202.427l11.252-4.741c.315.192.61.416.88.669.526.689-.153 1.638.729 2.241 1.087.734 3.76.573 5.971-.359.061-.026.123-.052.182-.079 2.077-.928 2.911-2.225 1.854-2.939-.675-.456-1.838-.431-2.786-.603a6.266 6.266 0 01-1.391-.406 4.789 4.789 0 01-.757-.496l11.268-4.75 21.22 14.348-27.201 11.47-8.779-5.937.109-.05c.378-.164.765-.306 1.159-.426 1.309-.288 3.08.062 4.215-.414 1.386-.619 1.103-2.022-.602-3.176-1.721-1.166-4.252-1.638-5.644-1.049-.864.386-.831.994-1.165 1.491a2.565 2.565 0 01-.775.746 4.934 4.934 0 01-.4.194 6.26 6.26 0 01-.54.215l-8.799-5.949z" fill="#C2C2C2"/></g><path d="M201.959 194.252c0-.259-.135-.485-.41-.672a2.603 2.603 0 00-.138-.086l-.047-.022a1.706 1.706 0 00-.106-.048l-.027-.012-.024-.008a2.92 2.92 0 00-.373-.112l-.023-.005-.027-.005a4.357 4.357 0 00-.238-.046h-.026l-.253-.037h-.027c-.086-.012-.18-.022-.27-.032h-.016l-.219-.025-.258-.031-.047-.006a12.019 12.019 0 01-.247-.037l-.127-.021a11.777 11.777 0 01-.258-.052l-.045-.01a8.494 8.494 0 01-.186-.044h-.005l-.184-.05-.058-.018a3.092 3.092 0 01-.125-.039l-.061-.021-.124-.045-.048-.019a3.015 3.015 0 01-.152-.064 4.35 4.35 0 01-.679-.443l.049 5.673c.213.169.44.317.68.444.049.023.1.043.152.065l.011.004.036.013.126.046.059.02.129.04.035.012.018.005c.061.018.123.035.186.051.063.015.126.031.19.044l.018.005.026.005c.086.019.172.037.258.052l.106.019h.02l.246.037.05.006.252.031.166.019.067.007c.092.011.183.021.274.033h.021c.086.011.172.023.258.037h.028c.081.013.159.029.237.046l.05.01a2.62 2.62 0 01.377.112l.051.02.106.048.046.023a.936.936 0 01.138.086c.277.186.408.417.411.672l-.049-5.675z" fill="#8A4E5C"/><path d="M193.756 206.747a.403.403 0 01.058-.013l.079-.018.065-.012.055-.009.043 4.755 7.856 5.312-.05-5.674-6.508-4.396c.095.011.191.024.288.041l.066.011.108.02.077.015.103.022.072.016.172.04.048.012c.069.018.139.038.209.058l.04.012c.096.029.192.059.288.091l.014.005c.095.033.189.068.283.105l.023.009c.108.042.215.086.321.135l.016.007c.106.049.212.1.316.154l.011.005c.105.055.209.112.309.172h.005c.103.062.203.124.301.19.867.587 1.323 1.245 1.328 1.81l-.053-5.675c-.005-.561-.462-1.219-1.329-1.811a6.079 6.079 0 00-.3-.189h-.005a7.72 7.72 0 00-.31-.173l-.011-.005a6.153 6.153 0 00-.316-.153l-.015-.007a7.508 7.508 0 00-.321-.135h-.006l-.016-.006a6.196 6.196 0 00-.287-.106h-.011a6.103 6.103 0 00-.29-.093l-.022-.007h-.015a5.539 5.539 0 00-.211-.059l-.043-.011a6.126 6.126 0 00-.172-.042l-.032-.007-.036-.008-.108-.023-.075-.014-.109-.02-.052-.01h-.013a6.162 6.162 0 00-.291-.041h-.04a7.957 7.957 0 00-.249-.023h-.021a.113.113 0 01-.026 0c-.154-.009-.304-.012-.45-.009h-.049c-.072 0-.142.006-.21.012h-.014a3.614 3.614 0 00-.212.024h-.037l-.086.013-.06.011-.086.019-.045.009h-.007a2.87 2.87 0 00-.178.05l-.04.013a4.36 4.36 0 00-.172.063c-.056.022-.086.04-.123.06l-.034.02-.041.023-.033.021-.041.027a.87.87 0 00-.061.045l-.034.025-.012.01-.067.059-.007.008-.048.049-.013.016-.023.026-.042.053-.019.025-.009.013-.018.029c-.006.009-.024.034-.034.052l-.024.041-.028.051a.077.077 0 01-.01.018c0 .007-.006.014-.009.02-.016.03-.03.061-.044.092 0 .007-.006.013-.009.019l-.053.123-.041.094-.015.035a2.855 2.855 0 01-.052.111l-.032.058-.015.028a1.798 1.798 0 01-.052.086c-.018.03-.024.034-.036.051l-.056.076-.025.032c-.027.031-.054.063-.086.095l-.007.008c-.03.034-.063.066-.097.099l-.03.028-.076.068-.04.033c-.014.011-.053.042-.081.062l-.038.03-.128.086-.014.008h-.006l-.018.009-.01.005-.021.012-.015.007-.023.012-.021.01-.022.011-.028.013-.026.012-.029.014-.04.019-.019.009-.066.03a5.397 5.397 0 01-.483.192l-7.865-5.319.049 5.674 7.866 5.319c.162-.055.335-.126.483-.193l.123-.056.05-.024.036-.018.014-.007.027-.013.017-.008.02-.011.016-.007.014-.008.015-.008.009-.005.009-.005c.044-.028.086-.056.129-.086l.037-.028.086-.064.02-.016.018-.017c.026-.022.052-.044.076-.067l.031-.029c.034-.032.065-.065.096-.098l.007-.007.086-.095.026-.033.055-.074.015-.02.022-.032a1.15 1.15 0 00.052-.086l.016-.031.028-.051.053-.112.015-.034.041-.093c.014-.031.035-.087.053-.125a2.007 2.007 0 01.072-.148l.029-.053.022-.04a.806.806 0 01.035-.053.362.362 0 01.027-.041l.019-.026.042-.052a.713.713 0 01.083-.09l.008-.009c.025-.024.051-.046.079-.068l.033-.026c.02-.015.041-.031.062-.045l.041-.027.074-.045.034-.018c.039-.021.079-.041.123-.061.044-.02.112-.043.172-.063l.039-.013a.63.63 0 01.18-.065z" fill="#9A5364"/><path d="M226.205 200.824l.05 5.673-24.342 10.265-.051-5.673 24.343-10.265z" fill="#DD6A85"/><path d="M182.874 198.248l10.07-4.247c.282.173.546.376.788.603.47.622-.137 1.466.653 2.003.973.657 3.364.518 5.342-.321.056-.023.11-.047.164-.071 1.859-.831 2.605-1.991 1.66-2.63-.602-.408-1.646-.383-2.495-.539a5.61 5.61 0 01-1.243-.364 4.35 4.35 0 01-.679-.443l10.082-4.252 18.99 12.844-24.343 10.265-7.856-5.313.097-.044a9.147 9.147 0 011.038-.381c1.171-.259 2.752.055 3.768-.372 1.24-.554.988-1.81-.539-2.844-1.543-1.044-3.805-1.466-5.051-.939-.774.345-.743.889-1.043 1.334-.182.269-.42.497-.696.667a4.258 4.258 0 01-.358.173 5.54 5.54 0 01-.484.192l-7.865-5.321z" fill="#F985A0"/><g filter="url(#filter8_f)"><path d="M143.94 203.809c-.675-.457-1.84-.431-2.786-.603a6.187 6.187 0 01-1.391-.408 4.807 4.807 0 01-.759-.496l11.269-4.75-8.774-5.936.113-.052c.376-.165.762-.307 1.155-.425 1.308-.288 3.078.062 4.256-.431 1.34-.598 1.058-2.001-.649-3.154-1.72-1.167-4.252-1.638-5.685-1.034-.822.368-.789.975-1.124 1.472a2.55 2.55 0 01-.774.746c-.041.026-.2.105-.4.195-.165.074-.36.154-.54.215l-8.797-5.943-27.203 11.47 21.218 14.348 11.254-4.741c.315.193.61.418.879.67.527.69-.152 1.638.73 2.241 1.087.735 3.76.575 5.97-.358l.184-.079c2.077-.941 2.909-2.234 1.854-2.947z" fill="#C9C9C9"/></g><path d="M141.784 186.228h-.006a9.51 9.51 0 00-1.032.378l-.1.048.049 5.673.101-.047a9.369 9.369 0 011.028-.378h.006c.086-.02.18-.036.274-.05a6.7 6.7 0 01.344-.038l-.049-5.673a5.43 5.43 0 00-.345.038 2.987 2.987 0 00-.27.049z" fill="#613345"/><path d="M148.558 197.64l-.05-5.674-10.083 4.252.041 4.721c-1.17.141-2.222.031-2.79-.353-.378-.259-.435-.583-.445-.922v-.281c0-.28-.021-.557-.205-.8a4.947 4.947 0 00-.787-.603l-10.072 4.247.05 5.674 10.071-4.247c.282.172.546.373.787.599.165.217.197.462.204.712v.281c0 .371.037.733.447 1.009.973.658 3.364.518 5.343-.32l.164-.072c1.317-.588 2.074-1.341 2.065-1.957l-.035-4.039 5.295-2.227z" fill="#8E2838"/><path d="M146.4 184.716l.05 5.673c-.968 1.292-3.379 1.875-4.614 1.513a9.455 9.455 0 00-1.033.379l-.1.048-.05-5.674.1-.048a9.532 9.532 0 011.033-.379c1.172-.835 3.564-4.481 4.614-1.512z" fill="#551821"/><path d="M124.164 202.231l-18.99-12.841.05 5.674 18.99 12.841-.05-5.674z" fill="#641A26"/><path d="M142.841 197.565c-.602-.409-1.645-.383-2.494-.54a5.556 5.556 0 01-1.245-.363 4.413 4.413 0 01-.68-.444l10.083-4.252-7.856-5.312.101-.047a9.237 9.237 0 011.032-.379c1.171-.259 2.753.055 3.809-.39 1.204-.536.946-1.791-.58-2.823-1.544-1.045-3.805-1.465-5.088-.923-.736.329-.707.872-1.006 1.318-.182.269-.42.497-.697.667a4.38 4.38 0 01-.358.172 5.856 5.856 0 01-.483.194l-7.866-5.32-24.343 10.266 18.991 12.844 10.071-4.247c.282.174.546.376.787.603.47.621-.137 1.465.653 2.002.972.658 3.364.518 5.343-.32l.164-.072c1.863-.836 2.607-1.995 1.662-2.634z" fill="url(#paint0_linear)"/><g filter="url(#filter9_f)"><path d="M124.702 158.991l24.958-10.525 19.47 13.166-10.337 4.358c.217.174.45.326.697.456.409.174.837.299 1.275.372.87.161 1.937.134 2.557.553.968.656.205 1.845-1.701 2.697-.055.024-.111.049-.172.073-2.028.855-4.482 1.003-5.478.328-.809-.547-.187-1.416-.671-2.052a4.964 4.964 0 00-.806-.615l-10.323 4.354-8.055-5.447c.033-.015.067-.032.103-.047.345-.15.699-.281 1.06-.39 1.204-.264 2.826.057 3.864-.381 1.272-.567 1.013-1.854-.552-2.912-1.583-1.071-3.901-1.502-5.18-.963-.793.353-.761.911-1.069 1.368-.187.276-.43.509-.714.683a6.401 6.401 0 01-.863.377l-8.063-5.453z" fill="#C9C9C9"/></g><path d="M138.522 162.259l.051-.011.08-.017c.019-.005.039-.007.058-.011l.057-.009.039 4.525 7.478 5.056-.047-5.399-6.194-4.189c.092.01.184.023.276.038l.06.011.106.019.07.014.103.022.065.014.162.039.043.011c.068.017.134.036.201.055l.035.012c.093.027.185.056.276.086h.011c.092.032.183.065.274.101l.02.007c.103.041.205.087.306.13l.014.006c.102.046.203.095.302.146l.009.005c.1.052.199.106.294.163h.006c.098.058.193.118.286.18.825.559 1.259 1.186 1.264 1.719l-.048-5.399c-.004-.535-.438-1.161-1.263-1.719a6.001 6.001 0 00-.286-.181h-.006a6.373 6.373 0 00-.294-.164l-.01-.005a7.602 7.602 0 00-.301-.146l-.015-.007c-.101-.045-.202-.086-.305-.128h-.006l-.017-.006c-.086-.036-.179-.068-.27-.1l-.013-.004a5.096 5.096 0 00-.273-.087l-.024-.007h-.015l-.199-.055-.044-.011a3.789 3.789 0 00-.161-.039l-.031-.007-.037-.008-.098-.021-.074-.015-.1-.018-.053-.009h-.013a6.942 6.942 0 00-.274-.039h-.041c-.079-.009-.159-.015-.236-.022h-.044c-.073 0-.146-.007-.218-.009h-.257c-.068 0-.133.006-.197.011h-.021a3.982 3.982 0 00-.198.023h-.037l-.076.013-.062.011c-.025 0-.05.01-.074.015l-.051.011h-.007c-.058.014-.114.031-.172.048l-.038.012a3.368 3.368 0 00-.161.059c-.051.022-.08.038-.117.058l-.032.018-.039.022-.031.021-.04.025-.058.043-.033.025-.011.008c-.022.019-.043.037-.063.057l-.008.008a.649.649 0 00-.045.046l-.013.015-.021.024-.04.051-.017.023-.01.013-.017.027-.033.05-.021.038a.859.859 0 00-.028.052l-.009.015-.008.018-.043.091-.008.015c-.018.042-.036.087-.053.124l-.035.081-.016.036a1.47 1.47 0 01-.051.106.52.52 0 01-.028.052l-.015.029c-.015.027-.032.053-.049.08-.018.027-.025.034-.037.05l-.052.071-.024.031c-.025.031-.052.061-.079.092l-.005.005c-.03.032-.061.064-.092.094l-.029.027a1.534 1.534 0 01-.073.065l-.036.031-.078.061-.036.026c-.04.028-.08.056-.122.081l-.008.005-.012.007-.008.004-.019.009-.012.007-.022.012-.015.007-.025.012-.021.011-.026.013-.032.014-.02.01-.037.017-.021.01-.06.027a6.033 6.033 0 01-.463.185l-7.484-5.062.047 5.4 7.484 5.061c.155-.052.322-.12.463-.184l.062-.028h.01l.046-.022.018-.008.034-.016.021-.011.026-.013.017-.007.025-.013.012-.006.022-.012.009-.005.017-.008h.007l.01-.006c.042-.026.086-.053.121-.081l.038-.028.077-.06.019-.029.018-.016.07-.063.031-.029c.032-.03.062-.061.091-.093l.005-.006c.028-.03.054-.061.079-.091l.024-.03.053-.072.013-.017.022-.033a.937.937 0 00.049-.079l.021-.038c.008-.014.016-.027.022-.041a1.16 1.16 0 00.065-.137l.041-.097.048-.111a.2.2 0 00.01-.021l.041-.086.018-.035a.804.804 0 01.05-.088.633.633 0 01.032-.051l.026-.039.019-.024.039-.05a1.084 1.084 0 01.079-.086l.008-.008a.98.98 0 01.075-.066l.032-.025.058-.042.04-.026.07-.042.032-.018c.037-.019.075-.039.117-.057.042-.018.106-.041.161-.059l.038-.013c.058-.021.114-.034.173-.048z" fill="#3F679B"/><path d="M169.453 162.027l-.047-5.4-9.596 4.042.038 4.494h-.008l-.063.007a6.069 6.069 0 01-.228.023h-.022l-.165.012h-.062l-.123.005h-.367c-.078 0-.155-.005-.229-.009h-.018l-.205-.019-.05-.006a4.745 4.745 0 01-.172-.024h-.02a2.1 2.1 0 01-.172-.033l-.044-.01a3.506 3.506 0 01-.155-.04l-.022-.006-.031-.01-.081-.027-.041-.014-.067-.026-.037-.016-.063-.028-.035-.017-.063-.033-.029-.016a3.934 3.934 0 01-.086-.052c-.359-.244-.414-.556-.423-.88v-.259c0-.266-.02-.531-.196-.762a4.52 4.52 0 00-.749-.571l-9.584 4.041.047 5.399 9.584-4.042c.27.164.522.355.753.57.157.208.188.442.195.681v.259c0 .354.035.699.425.963.028.019.055.035.086.052l.029.017.061.032.037.017.062.029.037.015.021.008.047.018.041.015.079.026.033.01h.02c.051.016.104.029.158.042l.023.005h.019c.057.013.115.024.172.034h.014c.056.009.115.017.172.024h.049c.067.008.136.014.206.019h.019c.075.006.151.008.229.011h.37l.123-.005h.061l.176-.013h.01c.077-.006.153-.014.231-.023l.06-.007c.068-.007.136-.016.205-.026h.033c.064-.01.128-.019.192-.031l.032-.006.162-.029.072-.015.122-.025c.028-.005.054-.012.081-.018l.115-.026.031-.006.026-.007c.104-.026.208-.053.312-.082l.041-.011c.106-.031.21-.063.315-.096l.032-.011c.108-.036.215-.073.322-.112l.019-.007c.11-.042.22-.087.328-.13l.156-.068c.073-.032.144-.066.213-.099l.069-.035.133-.067.076-.042.117-.064.072-.043.044-.025.07-.044.062-.038c.042-.028.086-.055.123-.087l.04-.026c.052-.037.102-.074.15-.111l.036-.028.086-.067.016-.014c.034-.029.067-.059.1-.086l.043-.04c.046-.043.086-.086.129-.129.034-.037.067-.075.097-.113l.027-.036c.016-.021.033-.042.047-.063l.011-.017c.008-.01.014-.02.021-.031l.048-.079.018-.034.011-.018a.83.83 0 00.038-.086c0-.005 0-.01.006-.015a.656.656 0 00.033-.094l.005-.019a.823.823 0 00.019-.086v-.034a1.45 1.45 0 00.006-.093v-.009l-.034-3.844 5.038-2.1z" fill="#5988C6"/><path d="M128.165 154.171l23.168-9.77 18.073 12.222-9.596 4.046c.202.161.418.303.647.423a5.2 5.2 0 001.184.344c.806.15 1.798.125 2.373.518.899.608.191 1.712-1.579 2.499-.05.024-.103.046-.156.069-1.883.793-4.16.93-5.085.305-.751-.508-.173-1.315-.622-1.905a4.514 4.514 0 00-.75-.571l-9.584 4.042-7.477-5.055.095-.044c.321-.14.649-.26.984-.361 1.118-.246 2.624.052 3.587-.354 1.181-.527.94-1.724-.516-2.704-1.469-.993-3.621-1.394-4.807-.894-.737.328-.708.845-.993 1.27a2.191 2.191 0 01-.662.635 5.9 5.9 0 01-.802.349l-7.482-5.064z" fill="#71A0DD"/><g filter="url(#filter10_f)"><path d="M236.806 166.112l-11.149-4.702a5.346 5.346 0 00-.871.664c-.521.689.151 1.626-.722 2.216-1.077.729-3.725.569-5.916-.355a10.905 10.905 0 01-.181-.078c-2.059-.92-2.883-2.205-1.837-2.911.669-.453 1.822-.424 2.76-.598a6.051 6.051 0 001.376-.402c.266-.14.517-.304.752-.491l-11.158-4.706-8.706 5.887c-.18-.06-.374-.14-.539-.215a4.386 4.386 0 01-.393-.191 2.547 2.547 0 01-.774-.738c-.331-.494-.299-1.095-1.112-1.459-1.421-.604-3.924-.135-5.634 1.02-1.69 1.143-1.969 2.534-.642 3.127 1.166.492 2.925.145 4.215.431.389.117.772.257 1.145.42l.111.052-8.695 5.883 26.948 11.361 21.022-14.215z" fill="#CBCED0"/></g><path d="M217.353 156.018c0-.259.138-.498.421-.69.046-.031.094-.06.143-.086l.047-.024c.035-.017.072-.033.109-.048l.028-.013.025-.009a2.333 2.333 0 01.383-.113l.023-.006.03-.005c.079-.017.159-.033.241-.046h.033c.082-.014.164-.026.248-.037h.034c.086-.012.179-.022.271-.032h.015l.062-.008.183-.021c.086-.009.172-.02.258-.031l.051-.006c.086-.011.167-.023.249-.036l.13-.022.264-.054.049-.011.189-.045h.005c.065-.016.126-.034.189-.052l.058-.017.128-.04.063-.022c.042-.015.086-.029.124-.045l.051-.02c.055-.021.108-.044.158-.066.246-.13.48-.283.698-.456l-.051 5.83a4.525 4.525 0 01-.698.456 4.693 4.693 0 01-.158.067l-.012.005-.036.013a2.451 2.451 0 01-.129.047l-.061.02c-.041.015-.086.028-.127.041l-.04.013-.019.005a5.77 5.77 0 01-.188.051h-.008l-.186.044-.021.005-.031.006c-.086.02-.172.038-.258.054l-.108.019h-.024c-.08.013-.162.025-.246.036l-.055.007-.246.03h-.007l-.172.02-.086.01-.268.032-.033.005c-.083.01-.166.022-.247.036l-.034.005a5.76 5.76 0 00-.242.047l-.052.011a2.707 2.707 0 00-.385.114l-.052.021a1.2 1.2 0 00-.109.049l-.048.023a1.448 1.448 0 00-.142.086c-.283.192-.418.431-.421.69l.04-5.837z" fill="#0B224A"/><path d="M194.631 161.512c0-.01 0-.022-.006-.033a.16.16 0 01-.006-.03v-.01c0-.003 0-.031-.006-.047-.006-.015 0-.023 0-.034v-.089l.05-5.83v.088c0 .017 0 .024.005.036l.005.045c0 .014.005.027.008.041.004.014 0 .022.006.034.006.011.008.027.012.041a.393.393 0 00.016.048.89.89 0 00.113.225l.012.017c.024.035.051.067.079.099l.024.026.027.028.034.031.031.027.03.025.056.042.029.022.067.043.027.016c.021.012.041.024.064.035l.029.017c.032.016.064.032.1.047.066.029.134.054.204.076l.073.02c.048.014.095.028.145.039l.04.009c.055.013.112.024.172.035l.069.011.162.023.054.007c.071.009.143.015.215.021.046 0 .092.006.138.009l.116.007.143.006h.114l.274.006h.932l.133.005.123.007.129.009h.043c.047 0 .094.008.141.013h.029c.061.006.121.013.181.022h.021c.086.013.177.029.258.048h.028l.019.005h.014l.025.007.018.006.031.01.02.006.036.012.022.008.041.013.023.008.045.016.025.009.045.015.03.01.043.016.036.013.042.015.038.014.043.017.038.014.044.017.039.015.043.017.039.016.043.017.038.016.045.019.034.013.075.034.105.048-.052 5.83-.104-.048-.076-.033-.025-.01-.054-.023-.031-.013-.05-.02-.034-.014-.048-.018-.036-.015-.046-.017-.038-.015-.043-.016-.037-.014-.044-.016-.035-.012-.041-.016-.039-.013-.035-.012-.037-.013-.034-.012-.032-.01-.032-.012-.029-.009-.029-.01-.026-.008-.025-.008-.023-.007-.02-.006-.018-.005-.017-.005h-.029a4.67 4.67 0 00-.459-.074h-.034l-.18-.017-.126-.007-.125-.007c-.043 0-.086 0-.131-.005h-.94c-.091 0-.182-.002-.271-.006h-.125l-.133-.005c-.041 0-.08-.005-.121-.008l-.132-.008h-.015a6.642 6.642 0 01-.203-.02l-.05-.007c-.033 0-.067-.008-.101-.013-.022 0-.042-.007-.064-.01l-.069-.011-.172-.035-.04-.009h-.011c-.047-.011-.086-.025-.135-.037l-.071-.02a3.096 3.096 0 01-.205-.075 2.325 2.325 0 01-.1-.049l-.033-.017-.059-.033h-.008l-.021-.014-.064-.042-.032-.022-.054-.041-.018-.014-.013-.011-.03-.027-.034-.032-.027-.028-.017-.018-.007-.008a.836.836 0 01-.079-.099l-.006-.006a1.043 1.043 0 01-.119-.232v-.018c0-.011-.006-.021-.009-.031-.002-.011-.016-.028-.02-.043z" fill="#204D7F"/><path d="M192.439 162.772l-.052 5.83 25.016 10.549.051-5.83-25.015-10.549z" fill="#204D80"/><path d="M217.454 173.321l-.051 5.829 19.514-13.195.051-5.83-19.514 13.196z" fill="#0E2754"/><path d="M236.968 160.125l-10.348-4.364c-.29.177-.561.383-.809.615-.483.638.14 1.509-.671 2.058-.999.676-3.457.527-5.49-.33l-.173-.073c-1.909-.854-2.675-2.046-1.704-2.702.621-.42 1.692-.393 2.562-.555a5.642 5.642 0 001.278-.373c.247-.13.481-.282.699-.456l-10.358-4.373-8.086 5.466a6.758 6.758 0 01-.865-.376 2.368 2.368 0 01-.716-.69c-.308-.459-.277-1.017-1.032-1.354-1.32-.558-3.643-.125-5.23.948-1.568 1.061-1.828 2.351-.596 2.901 1.083.457 2.711.136 3.914.401.362.109.717.239 1.063.39l.104.048-8.074 5.465 25.015 10.549 19.517-13.195z" fill="#0A3D76"/><path d="M192.97 11.7h10.142m1.51 0h5.072M72.64 14.768H62.498m-1.511 0h-5.07" stroke="#EBF2F9" stroke-width="4" stroke-miterlimit="10"/><path d="M48.06 136.248a3.343 3.343 0 01-6.626.653 3.358 3.358 0 011.424-3.441 3.342 3.342 0 014.223.419c.626.628.978 1.48.978 2.369v0z" stroke="#EBF2F9" stroke-width="3" stroke-miterlimit="10"/><path d="M94.426 72.78a7.414 7.414 0 01-1.237 4.118 7.39 7.39 0 01-3.313 2.734 7.372 7.372 0 01-8.056-1.597 7.408 7.408 0 01-1.605-8.07 7.399 7.399 0 012.722-3.324 7.375 7.375 0 019.323.916 7.405 7.405 0 012.166 5.224z" stroke="#EBF2F9" stroke-width="4" stroke-miterlimit="10"/><path d="M265.325 131.733a5.378 5.378 0 01-3.301 4.97 5.363 5.363 0 01-7.315-3.909 5.369 5.369 0 012.28-5.515 5.359 5.359 0 016.764.665 5.372 5.372 0 011.572 3.789z" stroke="#EBF2F9" stroke-width="3" stroke-miterlimit="10"/><g filter="url(#filter11_d)"><path d="M234.315 107.914a1.144 1.144 0 01-.707 1.064 1.152 1.152 0 01-1.568-.837 1.15 1.15 0 112.275-.227z" stroke="#C43B55" stroke-width="10.45" stroke-miterlimit="10"/></g><g filter="url(#filter12_d)" stroke="#F985A0" stroke-width="2" stroke-miterlimit="10"><path d="M79.652 110.983l.849.85m.599.601l.85.85m0-2.301l-.85.85m-.6.601l-.848.85"/></g><path d="M172 35.2l-26.6 21.4-17.7-34.4L154.5 1 172 35.2z" fill="url(#paint1_linear)"/><path d="M127.7 22.2L103 23.5l17.5 34.4 24.9-1.4-17.7-34.3z" fill="url(#paint2_linear)"/><path d="M129.4 2.4L103 23.5l24.7-1.4L154.5 1l-25.1 1.4z" fill="url(#paint3_linear)"/><path d="M212 101.8l-5-25 21.4-28 4.4 24.9-20.8 28.1z" fill="url(#paint4_linear)"/><path d="M194.7 34.4l33.7 14.4-21.4 28L173 63l21.7-28.6z" fill="url(#paint5_linear)"/><path d="M178.6 87.9L173 63l34 13.8 5 25-33.4-13.9z" fill="url(#paint6_linear)"/><path d="M137.2 82.6L111 103.8l25-1 26.3-21.5-25.1 1.3z" fill="url(#paint7_linear)"/><path d="M179.8 115.5c.3 0-11.5-22.8-17.5-34.2L136 102.8l17.1 34.1c8.8-7.2 26.4-21.4 26.7-21.4z" fill="url(#paint8_linear)"/><path d="M128.3 138.2L111 103.8l25-1 17.1 34.1-24.8 1.3z" fill="url(#paint9_linear)"/><path d="M152.3 108.2l-3.2-6.5 1.5-1.2c.7-.5 1.5.1 2.1 1.2.6 1.1.7 2.4 0 2.9l-.8.6 1.1 2.3-.7.7zm-.3-5.8c-.3-.5-.6-.7-.9-.5l-.7.6.9 1.8.7-.6c.2-.3.3-.8 0-1.3zm1.9 1.2c-.7-1.3-.8-2.8 0-3.4.8-.6 1.8.2 2.4 1.5.7 1.3.8 2.8 0 3.4-.7.6-1.7-.1-2.4-1.5zm1.8-1.4c-.4-.7-.9-1.2-1.3-.9-.4.3-.3 1.1.1 1.8s.9 1.2 1.3.9c.4-.3.3-1.1-.1-1.8zm.9-.7c-.7-1.4-.7-2.9 0-3.4.5-.4 1-.2 1.3.1v1.1c-.3-.2-.5-.3-.7-.1-.4.3-.3 1 .1 1.9.4.8.9 1.2 1.3.9.2-.2.3-.5.2-.9l.8.4c.1.6 0 1.2-.5 1.6-.7.4-1.7-.2-2.5-1.6zm4.1 0l-1.8-3.6-.6.5-.5-1.1 1.9-1.5.5 1.1-.6.5 1.8 3.6-.7.5zm-7.4 18.4l-1.8-3.6-.9.8 1.8 3.6-.6.5-2.3-4.7 2.1-1.7 2.3 4.7-.6.4zm1.5-2l1.2 2.4-.6.5-3.2-6.5.6-.5.3.6c-.1-.6.1-1 .4-1.3.6-.5 1.5.1 2.2 1.6.8 1.6.8 2.8.2 3.3-.3.3-.6.2-1.1-.1zm.2-2.6c-.4-.8-.9-1.2-1.2-.9-.2.2-.3.6-.2.9l.8 1.7c.2.2.6.3.8.1.3-.3.3-1-.2-1.8zm2.3 1.5l-2.3-4.7.6-.5 1.4 2.8-.5-3.6.6-.5 2.3 4.7-.6.5-1.5-2.9.5 3.7-.5.5zm1.3-4.7c-1.1-2.3-1.2-3.6-.6-4.5.3-.4.4-.6.3-.8l.6-.5c.5.9 0 1.6-.3 2-.5.6-.4 1.2-.2 1.8-.1-.6.1-1.1.4-1.4.6-.5 1.6.3 2.3 1.6.7 1.3.8 2.8 0 3.4-.8.6-1.8 0-2.5-1.6zm1.9-1.2c-.4-.7-.9-1.2-1.2-.9-.4.3-.3 1.1.1 1.8.4.8.9 1.2 1.3.9.2-.2.1-1-.2-1.8zm.5-3.7l.8 1.6.8-.6c.5-.4 1.1.1 1.6.9.4.8.5 1.8 0 2.2l-1.4 1.1-2.3-4.7.5-.5zm1.3 2.7l.5 1 .7-.6c.2-.1.2-.4 0-.7-.1-.3-.3-.4-.5-.3l-.7.6zm2.9.5l-2.3-4.7.6-.5 2.3 4.7-.6.5zm.5-1.7c.2-.1.1-.6-.4-1.8l-1-2.4 1.8-1.5 2.3 4.7-.6.5-1.8-3.6-.7.6.6 1.4c.7 1.7.8 2.7.2 3.2l-.4-1.1zm3.4-1.4l-2.3-4.7.6-.5 1.4 2.8-.5-3.6.6-.5 2.3 4.7-.6.5-1.5-2.9.5 3.7-.5.5zm-44.2 9.3l-2.7-5.4 1.7-.1c.8 0 1.6.8 2.1 1.7.5.9.4 1.7-.3 1.8h-.9l.9 1.9-.8.1zm.3-3.7c-.2-.5-.6-.7-.9-.7h-.8l.7 1.5h.8c.4-.1.4-.3.2-.8zm1.9 1.7c-.5-1.1-.5-2.1.4-2.1s1.8.9 2.4 2c.6 1.1.5 2.1-.4 2.1-.8 0-1.8-.9-2.4-2zm2.1-.1c-.3-.6-.8-1.1-1.2-1.1-.4 0-.4.5-.1 1.2.3.6.8 1.1 1.2 1.1.4 0 .4-.6.1-1.2zm1 0c-.6-1.2-.4-2.1.4-2.1.5 0 1 .3 1.4.7l-.1.6c-.3-.3-.5-.4-.8-.4-.4 0-.5.5-.1 1.2.3.7.9 1.1 1.3 1.1.2 0 .3-.2.3-.4l.8.6c0 .4-.1.7-.7.7-.9 0-1.9-.8-2.5-2zm4.3 1.8l-1.5-3h-.7l-.4-.9 2.1-.1.4.9h-.7l1.5 3-.7.1zm-9.1 9.4l-1.5-3h-1.1l1.5 3h-.7l-1.9-3.9 2.4-.1 1.9 3.9-.6.1zm1.8-.5l1 2h-.7l-2.7-5.4h.7l.2.5c0-.4.2-.6.5-.6.7 0 1.5.7 2.2 2 .7 1.3.5 2.1-.1 2.1-.3-.1-.7-.3-1.1-.6zm.5-1.5c-.3-.7-.8-1.1-1.2-1.1-.2 0-.4.2-.4.5l.7 1.4c.2.2.6.4.8.4.4-.1.5-.6.1-1.2zm2.2 1.9l-1.9-3.9h.7l1.2 2.4-.1-2.4h.7l1.9 3.9h-.7l-1.2-2.4.1 2.5-.7-.1zm1.9-2.3c-.9-1.9-.9-2.8-.1-3 .4-.1.5-.2.4-.4h.7c.4.8-.2 1-.6 1.1-.6.1-.6.6-.4 1 0-.4.2-.7.6-.7.7 0 1.7.9 2.2 2 .5 1.1.5 2.1-.3 2.1-.9.2-1.9-.8-2.5-2.1zm2.1.1c-.3-.6-.8-1.1-1.2-1.1-.4 0-.4.5-.1 1.1.3.6.8 1.1 1.2 1.1.4 0 .4-.4.1-1.1zm.9-2l.7 1.3h.9c.6 0 1.2.6 1.5 1.2.3.7.3 1.3-.3 1.3l-1.6.1-1.9-3.9h.7zm1.1 2.2l.4.8h.8c.2 0 .2-.2.1-.4s-.3-.4-.5-.4h-.8zm3 1.7l-1.9-3.9h.7l1.9 3.9h-.7zm.7-.8c.2 0 .2-.3-.2-1.3l-.8-1.9 2.1-.1 1.9 3.9h-.7l-1.5-3h-.8l.5 1.1c.6 1.4.6 2-.1 2l-.4-.7zm3.7.6l-1.9-3.9h.7l1.2 2.4-.1-2.4h.7l1.9 3.9h-.7l-1.2-2.4.1 2.5-.7-.1zm-7.8-33.8l5.4-5 1.4-.1c.7 0 .2.7-.7 1.5-.9.9-2.1 1.6-2.8 1.7l-.8.1-1.9 1.8h-.6zm5.4-3.5c.5-.4.5-.7.3-.6h-.7l-1.5 1.3h.7c.3 0 .8-.3 1.2-.7zm-.8 1.5c1.1-1 2.5-1.9 3.2-2 .7-.1.2.8-.9 1.8s-2.5 1.9-3.2 2c-.7 0-.2-.8.9-1.8zm1.7-.2c.6-.6.9-1 .6-1-.4 0-1.1.5-1.7 1.1-.6.6-.9 1-.6 1 .4 0 1.1-.5 1.7-1.1zm.9 0c1.2-1.1 2.5-1.9 3.2-2 .5 0 .4.3.2.6l-1 .6c.2-.2.2-.4 0-.4-.3 0-1.1.5-1.7 1.1-.7.6-.9 1-.5 1 .2 0 .5-.2.9-.4l-.2.5c-.5.3-1.1.7-1.6.7-.8.1-.5-.6.7-1.7zm.9 1.6l3-2.8h-.6l.9-.8 1.8-.1-.9.8h-.6l-3 2.8-.6.1zM122.9 99l3-2.8-.9.1-3 2.8h-.6l3.9-3.6 2.1-.1-3.9 3.6h-.6zm2.3-.6l-2 1.8h-.6l5.4-5h.6l-.5.5c.6-.4 1-.6 1.3-.6.6 0 .2.6-1.1 1.8-1.3 1.2-2.5 1.9-3 2-.3 0-.4-.1-.1-.5zm2.5-1.4c.7-.6.9-1 .6-1-.2 0-.6.2-.9.4l-1.4 1.3c-.1.2-.1.4.1.4s.9-.5 1.6-1.1zm-1 1.7l3.9-3.6h.6l-2.4 2.2 3.3-2.2h.6l-3.9 3.6h-.6l2.5-2.3-3.4 2.3h-.6zm4.7-2.1c1.9-1.7 3.1-2.6 4.1-2.8.5-.1.7-.2.8-.3h.6c-.8.7-1.5.9-2 1-.6.2-1.3.5-1.8 1 .6-.4 1.1-.6 1.4-.6.6 0 .1.8-1 1.8s-2.5 1.9-3.2 2c-.7-.1-.2-.9 1.1-2.1zm1.6 0c.6-.5.9-1 .6-1-.4 0-1.1.5-1.7 1.1-.6.6-1 1-.6 1 .3 0 1-.5 1.7-1.1zm3.5-1.9l-1.3 1.2.8-.1c.5 0 .2.5-.5 1.1-.7.6-1.6 1.2-2.1 1.2l-1.4.3 3.9-3.6.6-.1zm-2.2 2l-.8.8h.7c.2 0 .4-.2.7-.4.2-.2.3-.4.2-.4h-.8zm.1 1.5l3.9-3.6h.6l-3.9 3.5-.6.1zm1.7-.8c.2 0 .6-.3 1.6-1.2l2-1.8 1.8-.1-3.9 3.6h-.6l3-2.8h-.7l-1.2 1c-1.4 1.2-2.4 1.9-2.9 1.9l.9-.6zm2.1.5l3.9-3.6h.6l-2.4 2.2 3.3-2.2h.6l-3.9 3.5h-.6l2.5-2.3-3.4 2.3-.6.1zm6.7-67.5l-3.2-6.5 1.5-1.2c.7-.5 1.5.1 2.1 1.2.6 1.1.7 2.4 0 2.9l-.8.6 1.1 2.3-.7.7zm-.4-5.9c-.3-.5-.6-.7-.9-.5l-.7.6.9 1.8.7-.6c.3-.2.3-.7 0-1.3zm2 1.3c-.7-1.3-.8-2.8 0-3.4.8-.6 1.8.2 2.4 1.5.7 1.3.8 2.8 0 3.4-.8.6-1.8-.1-2.4-1.5zm1.8-1.4c-.4-.7-.9-1.2-1.3-.9-.4.3-.3 1.1.1 1.8s.9 1.2 1.3.9c.4-.3.2-1.1-.1-1.8zm.9-.8c-.7-1.4-.7-2.9 0-3.4.5-.4 1-.2 1.3.1v1.1c-.3-.2-.5-.3-.7-.1-.4.3-.3 1 .1 1.9.4.8.9 1.2 1.3.9.2-.2.3-.5.2-.9l.8.4c.1.6 0 1.2-.5 1.6-.8.5-1.8-.1-2.5-1.6zm4 .1l-1.8-3.6-.6.5-.5-1.1 1.9-1.5.5 1.1-.6.5 1.8 3.6-.7.5zm-6.7 15.4l-1.8-3.6-.9.8 1.8 3.6-.6.5-2.3-4.7 2.1-1.7 2.3 4.7-.6.4zm1.5-2l1.2 2.4-.6.5-3.2-6.5.6-.5.3.6c-.1-.6.1-1.1.4-1.3.6-.5 1.5.1 2.2 1.6.7 1.5.8 2.8.2 3.3-.3.2-.7.2-1.1-.1zm.2-2.6c-.4-.8-.9-1.2-1.2-.9-.2.2-.3.6-.2.9l.8 1.7c.2.2.6.3.8.1.2-.3.2-1-.2-1.8zm.9-.8c-.7-1.3-.8-2.8 0-3.4.8-.6 1.8.2 2.4 1.5.7 1.3.8 2.8 0 3.4-.7.6-1.7-.1-2.4-1.5zm1.8-1.4c-.4-.7-.9-1.2-1.3-.9-.4.3-.3 1.1.1 1.8s.9 1.2 1.3.9c.4-.3.2-1.1-.1-1.8zm1.5.6c.2-.2.2-.5-.3-1.7l-1-2.4 1.8-1.5 1.8 3.6.3-.1 1.1 2.3-.6.5-.6-1.2-1.4 1.1.6 1.2-.6.5-1.1-2.3zm.3-2.1c.3.6.4 1.1.4 1.5l1.1-.8-1.3-2.5-.7.6.5 1.2zm4.5-.3l-.2-.5c0 .5-.1.9-.4 1.2-.4.3-1 .1-1.6-.9-.5-1.1-.3-1.9 0-2.2.3-.2.7-.3 1 0l-.3-.6c-.2-.5-.6-.6-.9-.4-.2.2-.4.6-.4 1.1l-.6-.6c0-.7.3-1.3.6-1.5.5-.4 1.2-.4 1.9 1l1.5 3-.6.4zm-.5-1.2l-.3-.5c-.2-.2-.5-.2-.7 0-.2.2-.3.6-.1 1.1.2.4.5.5.8.3.2-.2.3-.5.3-.9zm1.4.4l-.3-3.3-1.9-1.4.7-.6 1.5 1.1-.8-1.7.6-.5.8 1.7-.1-2.2.7-.6.2 2.8 2.2 1.8-.7.6-1.5-1.3v.3l.8 1.6-.6.5-.8-1.6-.3-.1.3 2.3-.8.6zm-40.9 7.8l-2.7-5.4 1.7-.1c.8 0 1.6.8 2.1 1.7.5.9.4 1.7-.3 1.8h-.9l.9 1.9-.8.1zm.3-3.7c-.2-.5-.6-.7-.9-.7h-.8l.7 1.5h.8c.3-.1.4-.4.2-.8zm1.9 1.7c-.5-1.1-.5-2.1.4-2.1s1.8.9 2.4 2c.6 1.1.5 2.1-.4 2.1s-1.8-.9-2.4-2zm2-.1c-.3-.6-.8-1.1-1.2-1.1-.4 0-.4.5-.1 1.2.3.6.8 1.1 1.2 1.1.4 0 .4-.6.1-1.2zm1.1 0c-.6-1.2-.4-2.1.4-2.1.5 0 1 .3 1.4.7l-.1.6c-.3-.3-.5-.4-.8-.4-.4 0-.5.5-.1 1.2.3.7.9 1.1 1.3 1.1.2 0 .3-.2.3-.4l.8.6c0 .4-.1.7-.7.7-.9 0-1.9-.8-2.5-2zm4.3 1.8l-1.5-3h-.7l-.4-.9 2.1-.1.4.9h-.7l1.5 3-.7.1zm-8.3 7.6l-1.5-3h-1l1.5 3h-.7l-1.9-3.9 2.4-.1 1.9 3.9-.7.1zm1.8-.6l1 2h-.7l-2.7-5.4h.7l.2.5c0-.4.2-.6.5-.6.7 0 1.5.7 2.2 2 .7 1.3.5 2.1-.1 2.1-.3 0-.7-.2-1.1-.6zm.5-1.5c-.3-.7-.8-1.1-1.2-1.1-.2 0-.4.2-.4.5l.7 1.4c.2.2.6.4.8.4.4 0 .5-.5.1-1.2zm1.1 0c-.5-1.1-.5-2.1.4-2.1s1.8.9 2.4 2c.6 1.1.5 2.1-.4 2.1s-1.9-.9-2.4-2zm2-.1c-.3-.6-.8-1.1-1.2-1.1-.4 0-.4.5-.1 1.2.3.6.8 1.1 1.2 1.1.4 0 .4-.6.1-1.2zm1.5 1.1c.2-.1.2-.2-.2-1.2l-.8-1.9 2.1-.1 1.5 3h.3l.9 1.9h-.7l-.5-1-1.6.1.5 1h-.7l-.8-1.8zm.5-1.2c.2.5.3.8.2 1.1h1.2l-1-2.1h-.8l.4 1zm4.9 1.9l-.2-.4c0 .3-.2.5-.6.5-.4 0-1.1-.4-1.5-1.3-.5-.9-.1-1.3.3-1.3.3 0 .7.1 1.1.4l-.3-.5c-.2-.4-.5-.6-.9-.6-.3 0-.5.2-.5.5l-.6-.7c.1-.4.4-.6.8-.6.6 0 1.3.3 1.9 1.4l1.2 2.5-.7.1zm-.5-1l-.3-.5c-.2-.2-.5-.3-.7-.3-.3 0-.4.2-.2.6.2.4.5.6.8.6.2 0 .4-.1.4-.4zm1.5.9v-2.2l-1.9-1.7h.8l1.5 1.4-.7-1.4h.7l.7 1.4.1-1.4h.8l-.1 1.8 2.1 2.1h-.8l-1.4-1.5v.2l.6 1.3h-.7l-.6-1.3-.3-.2.1 1.5h-.9zm-6.3-32.9l5.9-5.4 1.6-.2c.7-.1.2.7-.8 1.7-1 .9-2.3 1.8-3 1.8l-.8.1-2.1 1.9-.8.1zm6-3.8c.5-.5.6-.8.3-.7h-.8l-1.6 1.5.8-.1c.3 0 .8-.3 1.3-.7zm-.9 1.6c1.2-1.1 2.7-2.1 3.5-2.1.8-.1.2.8-1 2-1.2 1.1-2.7 2.1-3.5 2.1-.8 0-.2-.9 1-2zm1.9-.1c.7-.6 1-1.1.6-1.1s-1.2.6-1.8 1.2c-.7.6-1 1.1-.6 1.1.3-.1 1.1-.6 1.8-1.2zm1-.1c1.3-1.2 2.7-2.1 3.5-2.2.5 0 .4.3.2.6l-1.1.7c.2-.3.2-.4 0-.4-.4 0-1.1.5-1.9 1.2-.7.7-1 1.1-.6 1.1.2 0 .6-.2 1-.5l-.3.6c-.6.4-1.2.7-1.7.8-.8.1-.4-.7.9-1.9zm.9 1.7l3.3-3-.7.1 1-.9 2-.1-1 .9h-.7l-3.3 3h-.6zm-18.4 7l3.3-3-1 .1-3.3 3h-.6l4.3-3.9 2.3-.2-4.3 3.9-.7.1zm2.4-.7l-2.2 2h-.6l5.9-5.4h.6l-.5.5c.6-.4 1.1-.6 1.4-.6.6 0 .3.7-1.2 2-1.4 1.3-2.7 2.1-3.3 2.1-.3 0-.3-.2-.1-.6zm2.7-1.5c.7-.7 1-1.1.6-1.1-.2 0-.6.2-1 .5l-1.5 1.4c-.2.2-.1.4.1.4.4-.1 1.1-.5 1.8-1.2zm1-.1c1.2-1.1 2.7-2.1 3.5-2.1.8-.1.3.8-1 2-1.2 1.1-2.7 2.1-3.5 2.1-.8 0-.2-.9 1-2zm1.9-.1c.7-.6 1-1.1.6-1.1s-1.2.6-1.8 1.2c-.7.6-1 1.1-.6 1.1.3-.1 1.1-.6 1.8-1.2zm-.3 1c.3-.1.5-.2 1.6-1.2l2.2-1.9 1.9-.1-3.3 3h.3l-2.1 1.9h-.6l1.1-1-1.5.1-1.1 1h-.6l2.1-1.8zm2.2-1.2c-.6.5-1 .8-1.4 1.1l1.1-.1 2.3-2.1-.8.1-1.2 1zm1.5 1.7l.4-.4c-.5.3-1 .5-1.3.6-.4 0-.4-.4.6-1.2 1-.9 1.8-1.3 2.2-1.3.3 0 .4.1.2.4l.6-.5c.4-.4.5-.6.2-.6s-.7.2-1.2.5l.5-.7c.8-.4 1.3-.7 1.7-.7.5 0 .7.3-.6 1.4l-2.7 2.5h-.6zm1-.9l.5-.5c.1-.2.1-.3-.1-.3-.3 0-.7.2-1.1.6-.4.4-.4.6-.2.5.2.1.5-.1.9-.3zm-.1.9l3.3-2.2 1-1.7.8-.1-.8 1.4 1.5-1.4h.6l-1.5 1.4 2.3-1.5.8-.1-2.9 1.8-1.4 2.1-.8.1 1-1.5-.3.2-1.4 1.3h-.6l1.4-1.3.1-.2-2.3 1.6-.8.1z" fill="#fff"/><path d="M217 78.4l-1.2-6.1 1.3-1.7c.6-.8 1.1-.3 1.3.8.2 1.1.1 2.4-.5 3.2l-.7.9.4 2.2-.6.7zm.8-6.3c-.1-.5-.3-.6-.6-.3l-.6.8.3 1.6.6-.8c.3-.2.4-.8.3-1.3z" fill="url(#paint10_linear)"/><path d="M219 73c-.2-1.2-.1-2.8.6-3.7.6-.9 1.2-.3 1.5.9.2 1.3.1 2.8-.6 3.7-.7.9-1.3.3-1.5-.9zm1.5-2c-.1-.7-.4-1-.8-.6-.3.4-.4 1.3-.3 1.9.1.7.4 1 .7.6.5-.4.5-1.3.4-1.9z" fill="url(#paint11_linear)"/><path d="M221.3 69.9c-.3-1.3 0-2.9.6-3.7.4-.5.7-.5.9-.2l-.2 1.2c-.2-.2-.3-.2-.5.1-.3.4-.4 1.2-.3 2 .1.8.5 1 .8.6.2-.2.3-.6.3-1l.5.3c-.1.6-.2 1.3-.6 1.8-.6.6-1.2.3-1.5-1.1z" fill="url(#paint12_linear)"/><path d="M224.2 68.8l-.7-3.4-.5.7-.2-1 1.6-2.1.2 1-.5.7.7 3.4-.6.7z" fill="url(#paint13_linear)"/><path d="M185.7 79l-1.2-5.2 1.9.8c.9.4 1.6 1.3 1.8 2.2.2.9-.1 1.5-1 1.1l-1.1-.4.4 1.8-.8-.3zm1.6-2.5c-.1-.4-.4-.8-.8-1l-.9-.4.3 1.4.9.4c.4.2.6 0 .5-.4z" fill="url(#paint14_linear)"/><path d="M188.9 78.6c-.2-1.1.2-1.7 1.1-1.3 1 .4 1.8 1.6 2 2.6.2 1.1-.2 1.7-1.2 1.3-.9-.3-1.7-1.5-1.9-2.6zm2.4 1c-.1-.6-.5-1.2-1-1.4-.5-.2-.7.2-.5.8.1.6.5 1.2 1 1.4.4.2.6-.2.5-.8z" fill="url(#paint15_linear)"/><path d="M192.5 80.1c-.3-1.2.2-1.7 1.2-1.3.6.3 1.1.7 1.3 1.2l-.4.4c-.2-.3-.5-.6-.7-.7-.5-.2-.7.1-.6.8.1.7.6 1.2 1.1 1.4.3.1.5 0 .5-.1l.6.8c-.1.3-.4.4-1 .2-.9-.4-1.8-1.5-2-2.7z" fill="url(#paint16_linear)"/><path d="M196.7 83.6l-.6-2.9-.8-.3-.2-.9 2.5 1 .2.9-.8-.3.6 2.9-.9-.4z" fill="url(#paint17_linear)"/><path d="M195.739 50.9l4.728-7.341 1.758.772c.781.333.522 1.627-.235 2.902-.857 1.272-1.993 2.13-2.775 1.798l-.976-.44-1.718 2.642-.782-.333zm5.369-4.003c.426-.585.45-1.086.056-1.202l-.881-.336-1.287 1.956.881.337c.393.115.805-.17 1.231-.755z" fill="url(#paint18_linear)"/><path d="M200.802 49.698c.965-1.467 2.309-2.518 3.19-2.182.876.436.608 1.931-.357 3.398-.97 1.568-2.31 2.518-3.19 2.182-.981-.34-.712-1.835.357-3.398zm2.046.984c.535-.781.776-1.675.288-1.895-.488-.22-1.117.457-1.652 1.239-.539.882-.775 1.675-.287 1.895.388.217 1.117-.457 1.651-1.239z" fill="url(#paint19_linear)"/><path d="M203.944 51.134c1.074-1.663 2.408-2.513 3.189-2.181.587.224.559.825.432 1.422l-1.027.662c.118-.397.033-.701-.161-.81-.389-.216-1.108.257-1.751 1.235-.643.978-.676 1.68-.288 1.896.294.112.597.023.914-.365l-.052 1.101c-.515.381-1.131.758-1.718.534-.677-.428-.512-1.827.462-3.494z" fill="url(#paint20_linear)"/><path d="M205.758 55.329l2.682-4.109-.782-.332.757-1.275 2.245.993-.757 1.275-.781-.333-2.682 4.109-.682-.328z" fill="url(#paint21_linear)"/><path d="M216.827 86.826c.414-.544.6-1.206.666-1.73l-.461-.137c-.049.374-.165.72-.349.963-.321.424-.632.281-.758-.367-.125-.648.017-1.377.338-1.8.184-.243.357-.297.504-.161l.23-1.059c-.2-.163-.514-.165-.928.38-.622.82-.912 2.22-.691 3.361.223 1.15.827 1.37 1.449.55z" fill="url(#paint22_linear)"/><path d="M219.85 82.726L219.128 79l-1.897 2.5.723 3.725.53-.699-.556-2.87.835-1.1.557 2.87.53-.7z" fill="url(#paint23_linear)"/><path d="M221.547 80.605c.518-.683.755-1.895.514-3.137s-.754-1.457-1.272-.774c-.247.325-.429.817-.513 1.383l-.092-.47-.53.699.998 5.145.53-.699-.368-1.897c.238.17.495.064.733-.25zm-.336-.651c-.171.225-.405.291-.537.175l-.256-1.319c.041-.355.202-.798.373-1.024.305-.402.595-.232.719.408.125.648.006 1.358-.299 1.76z" fill="url(#paint24_linear)"/><path d="M223.765 77.682c.668-.88.895-2.304.689-3.369-.205-1.057-.779-1.423-1.448-.542-.664.875-.891 2.298-.686 3.355.206 1.065.781 1.431 1.445.556zm-.169-.872c-.33.435-.611.176-.725-.41-.112-.579-.025-1.323.304-1.758.33-.434.616-.18.728.398.113.586.023 1.335-.307 1.77z" fill="url(#paint25_linear)"/><path d="M226.167 74.515c.413-.545.6-1.207.666-1.73l-.462-.137c-.048.373-.164.72-.348.963-.322.423-.632.28-.758-.367-.126-.648.016-1.377.338-1.801.184-.242.357-.296.504-.16l.23-1.06c-.2-.162-.515-.164-.928.381-.623.82-.912 2.22-.691 3.361.223 1.15.827 1.37 1.449.55z" fill="url(#paint26_linear)"/><path d="M229.035 70.618l-.467-2.406c-.208-1.073-.695-.856-1.155-.25-.317.418-.598 1.021-.767 1.747l.328.392c.114-.519.286-.93.503-1.216.267-.352.491-.337.564.041l.097.502c-.19-.117-.46.035-.727.387-.322.424-.637 1.256-.468 2.128.161.833.619.733.941.31.263-.347.466-.839.546-1.321l.075.386.53-.7zm-1.067.69c-.209.276-.419.3-.486-.046-.071-.363.062-.79.271-1.065.171-.225.359-.338.488-.237l.09.463c-.046.331-.192.66-.363.885z" fill="url(#paint27_linear)"/><path d="M181.781 84.168c.766.315 1.163.204 1.34-.01l-.764-.804c-.127.152-.367.18-.708.041-.596-.245-1.104-.816-1.236-1.405-.132-.589.198-.81.794-.565.341.14.64.377.872.688l.52-.283a3.954 3.954 0 00-1.616-1.217c-1.154-.473-1.818-.077-1.585.96.235 1.046 1.229 2.122 2.383 2.595z" fill="url(#paint28_linear)"/><path d="M187.4 86.397l-.76-3.387-3.516-1.442.76 3.387.983.403-.585-2.608 1.549.635.585 2.609.984.403z" fill="url(#paint29_linear)"/><path d="M190.533 87.759c.96.394 1.511.028 1.257-1.101-.253-1.13-1.095-2.06-2.055-2.454-.457-.188-.827-.174-1.039.038l-.096-.428-.984-.403 1.05 4.677.984.404-.388-1.726c.381.475.829.812 1.271.993zm-.488-.92c-.317-.13-.721-.454-.931-.732l-.269-1.199c.114-.15.44-.17.758-.039.565.232 1.034.787 1.165 1.37.132.588-.158.832-.723.6z" fill="url(#paint30_linear)"/><path d="M194.645 89.446c1.239.508 1.8 0 1.583-.968-.216-.96-1.142-2.079-2.381-2.587-1.231-.505-1.792.003-1.577.964.218.967 1.144 2.086 2.375 2.591zm-.178-.792a2.061 2.061 0 01-1.174-1.38c-.118-.526.12-.842.732-.59.612.25 1.062.849 1.181 1.375.119.533-.127.846-.739.595z" fill="url(#paint31_linear)"/><path d="M199.1 91.274c.767.314 1.163.203 1.34-.01l-.764-.804c-.127.151-.367.18-.708.04-.596-.244-1.104-.816-1.236-1.405-.132-.589.198-.81.794-.565.341.14.64.377.872.689l.52-.284a3.954 3.954 0 00-1.616-1.216c-1.154-.474-1.818-.078-1.585.96.235 1.045 1.229 2.121 2.383 2.595z" fill="url(#paint32_linear)"/><path d="M204.433 93.385l-.492-2.188c-.218-.975-1.07-1.604-1.922-1.953-.588-.242-1.139-.315-1.514-.138l.505.749c.258-.136.6-.117 1.003.048.495.203.871.561.948.905l.102.455c-.307-.368-.782-.696-1.277-.9-.597-.244-1.234-.232-1.056.56.17.758.957 1.412 1.553 1.656.488.2.893.22 1.087.052l.079.35.984.404zm-1.89-1.247c-.388-.158-.746-.471-.817-.787-.074-.33.203-.381.59-.222.317.13.649.355.856.618l.094.421c-.118.13-.406.1-.723-.03z" fill="url(#paint33_linear)"/><path d="M186.091 57.408c.756.33 1.484.096 2.01-.25l-.15-1.054c-.377.246-.769.331-1.105.184-.588-.256-.643-1.01-.116-1.858.527-.847 1.291-1.231 1.879-.975.336.147.49.445.452.865l1.124-.51c.031-.55-.157-1.184-.913-1.514-1.137-.496-2.613.206-3.542 1.698-.935 1.502-.777 2.917.361 3.414z" fill="url(#paint34_linear)"/><path d="M191.724 59.713l3.031-4.87-3.466-1.513-3.031 4.87.97.423 2.334-3.75 1.527.666-2.334 3.75.969.424z" fill="url(#paint35_linear)"/><path d="M194.719 61.174c.946.413 2.217-.224 3.227-1.847 1.011-1.624.901-2.851-.046-3.264-.45-.197-1.018-.112-1.595.239l.382-.615-.969-.423-4.186 6.724.97.424 1.544-2.48c-.016.634.238 1.052.673 1.242zm.403-1.272c-.313-.137-.515-.546-.487-.918l1.073-1.724c.355-.243.865-.328 1.178-.191.557.243.573.98.053 1.818-.527.846-1.259 1.258-1.817 1.015z" fill="url(#paint36_linear)"/><path d="M198.773 62.944c1.221.533 2.682-.316 3.548-1.708.86-1.381.855-2.87-.367-3.404-1.214-.53-2.674.32-3.534 1.701-.866 1.392-.861 2.881.353 3.41zm.709-1.14c-.603-.263-.531-1.065-.054-1.83.47-.757 1.214-1.266 1.817-1.002.603.263.539 1.068.068 1.824-.477.767-1.228 1.272-1.831 1.009z" fill="url(#paint37_linear)"/><path d="M203.164 64.861c.756.33 1.484.096 2.011-.25l-.151-1.054c-.376.246-.769.331-1.105.185-.588-.257-.642-1.011-.115-1.858.527-.847 1.291-1.232 1.879-.975.336.146.49.444.452.864l1.123-.51c.032-.55-.156-1.184-.912-1.514-1.138-.496-2.613.206-3.542 1.698-.935 1.502-.777 2.917.36 3.414z" fill="url(#paint38_linear)"/><path d="M208.515 67.043l1.958-3.146c.872-1.401.377-2.181-.462-2.548-.581-.253-1.311-.264-2.088.063l-.167 1.017c.551-.246 1.037-.278 1.434-.105.489.214.609.676.301 1.17l-.408.656c-.006-.49-.309-.892-.798-1.105-.588-.257-1.552-.126-2.261 1.013-.678 1.089-.31 1.916.278 2.173.481.21 1.061.168 1.558-.115l-.314.504.969.423zm-1.284-1.51c-.381-.166-.531-.565-.249-1.018.295-.474.771-.6 1.153-.433.313.137.531.411.515.763l-.376.605c-.336.213-.73.22-1.043.084z" fill="url(#paint39_linear)"/></g><defs><linearGradient id="paint0_linear" x1="147.17" y1="190.678" x2="106.5" y2="189.04" gradientUnits="userSpaceOnUse"><stop stop-color="#A62E41"/><stop offset="1" stop-color="#E13152"/></linearGradient><linearGradient id="paint1_linear" x1="126.408" y1="10.49" x2="170.904" y2="45.091" gradientUnits="userSpaceOnUse"><stop stop-color="#0A3D76"/><stop offset="1" stop-color="#1072DF"/></linearGradient><linearGradient id="paint2_linear" x1="124.185" y1="22.18" x2="124.185" y2="57.943" gradientUnits="userSpaceOnUse"><stop stop-color="#0A3D76"/><stop offset="1" stop-color="#0C53A3"/></linearGradient><linearGradient id="paint3_linear" x1="128.75" y1="1" x2="128.75" y2="23.54" gradientUnits="userSpaceOnUse"><stop stop-color="#0A3D76"/><stop offset="1" stop-color="#0C53A3"/></linearGradient><linearGradient id="paint4_linear" x1="201.712" y1="73.265" x2="235.174" y2="76.958" gradientUnits="userSpaceOnUse"><stop offset=".187" stop-color="#69A7FF"/><stop offset="1" stop-color="#B4D1FA"/></linearGradient><linearGradient id="paint5_linear" x1="220.082" y1="31.897" x2="180.965" y2="80.182" gradientUnits="userSpaceOnUse"><stop stop-color="#B4D1FA"/><stop offset="1" stop-color="#69A7FF"/></linearGradient><linearGradient id="paint6_linear" x1="192.388" y1="62.996" x2="192.571" y2="99.644" gradientUnits="userSpaceOnUse"><stop stop-color="#B4D1FA"/><stop offset="1" stop-color="#69A7FF"/></linearGradient><linearGradient id="paint7_linear" x1="160.642" y1="93.713" x2="112.553" y2="91.362" gradientUnits="userSpaceOnUse"><stop stop-color="#961D30"/><stop offset="1" stop-color="#E13152"/></linearGradient><linearGradient id="paint8_linear" x1="178.423" y1="109.409" x2="137.282" y2="108.714" gradientUnits="userSpaceOnUse"><stop stop-color="#A62E41"/><stop offset="1" stop-color="#E13152"/></linearGradient><linearGradient id="paint9_linear" x1="147.128" y1="134.416" x2="115.523" y2="105.098" gradientUnits="userSpaceOnUse"><stop stop-color="#892031"/><stop offset="1" stop-color="#E13152"/></linearGradient><linearGradient id="paint10_linear" x1="217.147" y1="70.207" x2="217.147" y2="78.4" gradientUnits="userSpaceOnUse"><stop stop-color="#0A3D76"/><stop offset="1" stop-color="#0C53A3"/></linearGradient><linearGradient id="paint11_linear" x1="220.05" y1="68.867" x2="220.05" y2="74.333" gradientUnits="userSpaceOnUse"><stop stop-color="#0A3D76"/><stop offset="1" stop-color="#0C53A3"/></linearGradient><linearGradient id="paint12_linear" x1="222.291" y1="65.795" x2="222.291" y2="71.293" gradientUnits="userSpaceOnUse"><stop stop-color="#0A3D76"/><stop offset="1" stop-color="#0C53A3"/></linearGradient><linearGradient id="paint13_linear" x1="223.8" y1="63" x2="223.8" y2="68.8" gradientUnits="userSpaceOnUse"><stop stop-color="#0A3D76"/><stop offset="1" stop-color="#0C53A3"/></linearGradient><linearGradient id="paint14_linear" x1="186.38" y1="73.8" x2="186.38" y2="79.3" gradientUnits="userSpaceOnUse"><stop stop-color="#0A3D76"/><stop offset="1" stop-color="#0C53A3"/></linearGradient><linearGradient id="paint15_linear" x1="190.45" y1="77.175" x2="190.45" y2="81.324" gradientUnits="userSpaceOnUse"><stop stop-color="#0A3D76"/><stop offset="1" stop-color="#0C53A3"/></linearGradient><linearGradient id="paint16_linear" x1="193.957" y1="78.664" x2="193.957" y2="82.904" gradientUnits="userSpaceOnUse"><stop stop-color="#0A3D76"/><stop offset="1" stop-color="#0C53A3"/></linearGradient><linearGradient id="paint17_linear" x1="196.45" y1="79.5" x2="196.45" y2="84" gradientUnits="userSpaceOnUse"><stop stop-color="#0A3D76"/><stop offset="1" stop-color="#0C53A3"/></linearGradient><linearGradient id="paint18_linear" x1="199.431" y1="43.518" x2="199.12" y2="51.336" gradientUnits="userSpaceOnUse"><stop stop-color="#0A3D76"/><stop offset="1" stop-color="#0C53A3"/></linearGradient><linearGradient id="paint19_linear" x1="202.317" y1="47.4" x2="202.086" y2="53.215" gradientUnits="userSpaceOnUse"><stop stop-color="#0A3D76"/><stop offset="1" stop-color="#0C53A3"/></linearGradient><linearGradient id="paint20_linear" x1="205.491" y1="48.83" x2="205.255" y2="54.752" gradientUnits="userSpaceOnUse"><stop stop-color="#0A3D76"/><stop offset="1" stop-color="#0C53A3"/></linearGradient><linearGradient id="paint21_linear" x1="208.365" y1="49.611" x2="208.122" y2="55.724" gradientUnits="userSpaceOnUse"><stop stop-color="#0A3D76"/><stop offset="1" stop-color="#0C53A3"/></linearGradient><linearGradient id="paint22_linear" x1="221.647" y1="75.562" x2="224.814" y2="77.965" gradientUnits="userSpaceOnUse"><stop stop-color="#0A3D76"/><stop offset="1" stop-color="#0C53A3"/></linearGradient><linearGradient id="paint23_linear" x1="221.647" y1="75.562" x2="224.814" y2="77.965" gradientUnits="userSpaceOnUse"><stop stop-color="#0A3D76"/><stop offset="1" stop-color="#0C53A3"/></linearGradient><linearGradient id="paint24_linear" x1="221.647" y1="75.562" x2="224.814" y2="77.965" gradientUnits="userSpaceOnUse"><stop stop-color="#0A3D76"/><stop offset="1" stop-color="#0C53A3"/></linearGradient><linearGradient id="paint25_linear" x1="221.647" y1="75.562" x2="224.814" y2="77.965" gradientUnits="userSpaceOnUse"><stop stop-color="#0A3D76"/><stop offset="1" stop-color="#0C53A3"/></linearGradient><linearGradient id="paint26_linear" x1="221.647" y1="75.562" x2="224.814" y2="77.965" gradientUnits="userSpaceOnUse"><stop stop-color="#0A3D76"/><stop offset="1" stop-color="#0C53A3"/></linearGradient><linearGradient id="paint27_linear" x1="221.647" y1="75.562" x2="224.814" y2="77.965" gradientUnits="userSpaceOnUse"><stop stop-color="#0A3D76"/><stop offset="1" stop-color="#0C53A3"/></linearGradient><linearGradient id="paint28_linear" x1="191.327" y1="84.857" x2="189.809" y2="88.557" gradientUnits="userSpaceOnUse"><stop stop-color="#0A3D76"/><stop offset="1" stop-color="#0C53A3"/></linearGradient><linearGradient id="paint29_linear" x1="191.327" y1="84.857" x2="189.809" y2="88.557" gradientUnits="userSpaceOnUse"><stop stop-color="#0A3D76"/><stop offset="1" stop-color="#0C53A3"/></linearGradient><linearGradient id="paint30_linear" x1="191.327" y1="84.857" x2="189.809" y2="88.557" gradientUnits="userSpaceOnUse"><stop stop-color="#0A3D76"/><stop offset="1" stop-color="#0C53A3"/></linearGradient><linearGradient id="paint31_linear" x1="191.327" y1="84.857" x2="189.809" y2="88.557" gradientUnits="userSpaceOnUse"><stop stop-color="#0A3D76"/><stop offset="1" stop-color="#0C53A3"/></linearGradient><linearGradient id="paint32_linear" x1="191.327" y1="84.857" x2="189.809" y2="88.557" gradientUnits="userSpaceOnUse"><stop stop-color="#0A3D76"/><stop offset="1" stop-color="#0C53A3"/></linearGradient><linearGradient id="paint33_linear" x1="191.327" y1="84.857" x2="189.809" y2="88.557" gradientUnits="userSpaceOnUse"><stop stop-color="#0A3D76"/><stop offset="1" stop-color="#0C53A3"/></linearGradient><linearGradient id="paint34_linear" x1="199.47" y1="56.748" x2="196.278" y2="64.06" gradientUnits="userSpaceOnUse"><stop stop-color="#0A3D76"/><stop offset="1" stop-color="#0C53A3"/></linearGradient><linearGradient id="paint35_linear" x1="199.47" y1="56.748" x2="196.278" y2="64.06" gradientUnits="userSpaceOnUse"><stop stop-color="#0A3D76"/><stop offset="1" stop-color="#0C53A3"/></linearGradient><linearGradient id="paint36_linear" x1="199.47" y1="56.748" x2="196.278" y2="64.06" gradientUnits="userSpaceOnUse"><stop stop-color="#0A3D76"/><stop offset="1" stop-color="#0C53A3"/></linearGradient><linearGradient id="paint37_linear" x1="199.47" y1="56.748" x2="196.278" y2="64.06" gradientUnits="userSpaceOnUse"><stop stop-color="#0A3D76"/><stop offset="1" stop-color="#0C53A3"/></linearGradient><linearGradient id="paint38_linear" x1="199.47" y1="56.748" x2="196.278" y2="64.06" gradientUnits="userSpaceOnUse"><stop stop-color="#0A3D76"/><stop offset="1" stop-color="#0C53A3"/></linearGradient><linearGradient id="paint39_linear" x1="199.47" y1="56.748" x2="196.278" y2="64.06" gradientUnits="userSpaceOnUse"><stop stop-color="#0A3D76"/><stop offset="1" stop-color="#0C53A3"/></linearGradient><filter id="filter0_d" x="282.083" y="90.883" width="17.571" height="12" filterUnits="userSpaceOnUse" color-interpolation-filters="sRGB"><feFlood flood-opacity="0" result="BackgroundImageFix"/><feColorMatrix in="SourceAlpha" values="0 0 0 0 0 0 0 0 0 0 0 0 0 0 0 0 0 0 127 0"/><feOffset dx="2" dy="2"/><feGaussianBlur stdDeviation="2"/><feColorMatrix values="0 0 0 0 0 0 0 0 0 0 0 0 0 0 0 0 0 0 0.15 0"/><feBlend in2="BackgroundImageFix" result="effect1_dropShadow"/><feBlend in="SourceGraphic" in2="effect1_dropShadow" result="shape"/></filter><filter id="filter1_d" x="183.371" y="102.143" width="18.221" height="18.229" filterUnits="userSpaceOnUse" color-interpolation-filters="sRGB"><feFlood flood-opacity="0" result="BackgroundImageFix"/><feColorMatrix in="SourceAlpha" values="0 0 0 0 0 0 0 0 0 0 0 0 0 0 0 0 0 0 127 0"/><feOffset dx="2" dy="2"/><feGaussianBlur stdDeviation="2"/><feColorMatrix values="0 0 0 0 0 0 0 0 0 0 0 0 0 0 0 0 0 0 0.15 0"/><feBlend in2="BackgroundImageFix" result="effect1_dropShadow"/><feBlend in="SourceGraphic" in2="effect1_dropShadow" result="shape"/></filter><filter id="filter2_d" x="78.547" y="159.726" width="18.077" height="18.068" filterUnits="userSpaceOnUse" color-interpolation-filters="sRGB"><feFlood flood-opacity="0" result="BackgroundImageFix"/><feColorMatrix in="SourceAlpha" values="0 0 0 0 0 0 0 0 0 0 0 0 0 0 0 0 0 0 127 0"/><feOffset dx="2" dy="2"/><feGaussianBlur stdDeviation="2"/><feColorMatrix values="0 0 0 0 0 0 0 0 0 0 0 0 0 0 0 0 0 0 0.15 0"/><feBlend in2="BackgroundImageFix" result="effect1_dropShadow"/><feBlend in="SourceGraphic" in2="effect1_dropShadow" result="shape"/></filter><filter id="filter3_d" x="280.256" y="14.007" width="30.795" height="30.821" filterUnits="userSpaceOnUse" color-interpolation-filters="sRGB"><feFlood flood-opacity="0" result="BackgroundImageFix"/><feColorMatrix in="SourceAlpha" values="0 0 0 0 0 0 0 0 0 0 0 0 0 0 0 0 0 0 127 0"/><feOffset dx="2" dy="2"/><feGaussianBlur stdDeviation="2"/><feColorMatrix values="0 0 0 0 0 0 0 0 0 0 0 0 0 0 0 0 0 0 0.15 0"/><feBlend in2="BackgroundImageFix" result="effect1_dropShadow"/><feBlend in="SourceGraphic" in2="effect1_dropShadow" result="shape"/></filter><filter id="filter4_d" x="33.302" y="51.543" width="11.713" height="11.715" filterUnits="userSpaceOnUse" color-interpolation-filters="sRGB"><feFlood flood-opacity="0" result="BackgroundImageFix"/><feColorMatrix in="SourceAlpha" values="0 0 0 0 0 0 0 0 0 0 0 0 0 0 0 0 0 0 127 0"/><feOffset dx="2" dy="2"/><feGaussianBlur stdDeviation="2"/><feColorMatrix values="0 0 0 0 0 0 0 0 0 0 0 0 0 0 0 0 0 0 0.15 0"/><feBlend in2="BackgroundImageFix" result="effect1_dropShadow"/><feBlend in="SourceGraphic" in2="effect1_dropShadow" result="shape"/></filter><filter id="filter5_d" x="252.74" y="49.325" width="20.747" height="20.75" filterUnits="userSpaceOnUse" color-interpolation-filters="sRGB"><feFlood flood-opacity="0" result="BackgroundImageFix"/><feColorMatrix in="SourceAlpha" values="0 0 0 0 0 0 0 0 0 0 0 0 0 0 0 0 0 0 127 0"/><feOffset dx="2" dy="2"/><feGaussianBlur stdDeviation="2"/><feColorMatrix values="0 0 0 0 0 0 0 0 0 0 0 0 0 0 0 0 0 0 0.15 0"/><feBlend in2="BackgroundImageFix" result="effect1_dropShadow"/><feBlend in="SourceGraphic" in2="effect1_dropShadow" result="shape"/></filter><filter id="filter6_d" x="3" y="130.833" width="338" height="109.967" filterUnits="userSpaceOnUse" color-interpolation-filters="sRGB"><feFlood flood-opacity="0" result="BackgroundImageFix"/><feColorMatrix in="SourceAlpha" values="0 0 0 0 0 0 0 0 0 0 0 0 0 0 0 0 0 0 127 0"/><feOffset dx="2" dy="2"/><feGaussianBlur stdDeviation="2"/><feColorMatrix values="0 0 0 0 0 0 0 0 0 0 0 0 0 0 0 0 0 0 0.2 0"/><feBlend in2="BackgroundImageFix" result="effect1_dropShadow"/><feBlend in="SourceGraphic" in2="effect1_dropShadow" result="shape"/></filter><filter id="filter7_f" x="174.517" y="186.964" width="56.422" height="33.818" filterUnits="userSpaceOnUse" color-interpolation-filters="sRGB"><feFlood flood-opacity="0" result="BackgroundImageFix"/><feBlend in="SourceGraphic" in2="BackgroundImageFix" result="shape"/><feGaussianBlur stdDeviation="2" result="effect1_foregroundBlur"/></filter><filter id="filter8_f" x="97.851" y="179.205" width="56.422" height="33.819" filterUnits="userSpaceOnUse" color-interpolation-filters="sRGB"><feFlood flood-opacity="0" result="BackgroundImageFix"/><feBlend in="SourceGraphic" in2="BackgroundImageFix" result="shape"/><feGaussianBlur stdDeviation="2" result="effect1_foregroundBlur"/></filter><filter id="filter9_f" x="120.702" y="144.466" width="52.428" height="31.691" filterUnits="userSpaceOnUse" color-interpolation-filters="sRGB"><feFlood flood-opacity="0" result="BackgroundImageFix"/><feBlend in="SourceGraphic" in2="BackgroundImageFix" result="shape"/><feGaussianBlur stdDeviation="2" result="effect1_foregroundBlur"/></filter><filter id="filter10_f" x="184.836" y="150.749" width="55.971" height="33.578" filterUnits="userSpaceOnUse" color-interpolation-filters="sRGB"><feFlood flood-opacity="0" result="BackgroundImageFix"/><feBlend in="SourceGraphic" in2="BackgroundImageFix" result="shape"/><feGaussianBlur stdDeviation="2" result="effect1_foregroundBlur"/></filter><filter id="filter11_d" x="224.793" y="99.541" width="20.747" height="20.75" filterUnits="userSpaceOnUse" color-interpolation-filters="sRGB"><feFlood flood-opacity="0" result="BackgroundImageFix"/><feColorMatrix in="SourceAlpha" values="0 0 0 0 0 0 0 0 0 0 0 0 0 0 0 0 0 0 127 0"/><feOffset dx="2" dy="2"/><feGaussianBlur stdDeviation="2"/><feColorMatrix values="0 0 0 0 0 0 0 0 0 0 0 0 0 0 0 0 0 0 0.15 0"/><feBlend in2="BackgroundImageFix" result="effect1_dropShadow"/><feBlend in="SourceGraphic" in2="effect1_dropShadow" result="shape"/></filter><filter id="filter12_d" x="76.944" y="108.276" width="11.713" height="11.714" filterUnits="userSpaceOnUse" color-interpolation-filters="sRGB"><feFlood flood-opacity="0" result="BackgroundImageFix"/><feColorMatrix in="SourceAlpha" values="0 0 0 0 0 0 0 0 0 0 0 0 0 0 0 0 0 0 127 0"/><feOffset dx="2" dy="2"/><feGaussianBlur stdDeviation="2"/><feColorMatrix values="0 0 0 0 0 0 0 0 0 0 0 0 0 0 0 0 0 0 0.15 0"/><feBlend in2="BackgroundImageFix" result="effect1_dropShadow"/><feBlend in="SourceGraphic" in2="effect1_dropShadow" result="shape"/></filter><clipPath id="clip0"><path fill="#fff" d="M0 0h340v235H0z"/></clipPath></defs></svg>