<svg width="124" height="120" fill="none" xmlns="http://www.w3.org/2000/svg"><g clip-path="url(#clip0)"><path d="M23.51 2.958l100.461.348-1.016 88.448-99.647.174.203-88.97z" fill="#102E5B"/><path d="M23.685 2.9L.058 31.145 0 119.275l23.685-27.579V2.9z" fill="#0A2D49"/><path d="M100.286 119.855L0 119.971l.058-88.826 99.705-.174.523 88.884z" fill="#102E5B"/><path d="M100.285 119.855l23.686-28.304V3.306l-23.599 27.868-.087 88.681z" fill="#0A2D49"/><path d="M100.372 31.174l23.599-27.868v88.912l-23.686 27.637.087-88.68z" fill="#053866"/><path d="M100.372 31.174l23.599-27.868v88.883l-23.686 27.666.087-88.68z" fill="#053866"/><path d="M118.078 10.266l5.892-6.96V25.78l-5.892 6.96V10.265z" fill="#053866"/><path d="M120.111 22.678c-1.249-2.697-1.858-6.206-1.858-12.412l.726-.9c0 5.482.667 9.223 1.741 11.514.9 1.885 2.061 2.175 3.251.725l-.029 2.378c-.609.725-1.016.899-1.567.899-.755 0-1.626-.841-2.264-2.204z" fill="#B9D5FD"/><path d="M112.187 17.226l5.892-6.96V32.74l-5.892 6.96V17.225z" fill="#0E2951"/><path d="M106.294 24.186l5.893-6.96V39.7l-5.893 6.931V24.186z" fill="#709FDC"/><path d="M100.372 31.174l5.921-6.988V46.63l-5.892 6.873-.029-22.33z" fill="#55A2E0"/><path d="M118.078 32.74l5.892-6.96v22.127l-5.892 6.96V32.74z" fill="#B9D5FD"/><path d="M112.187 39.7l5.892-6.96v22.127l-5.892 6.96V39.7z" fill="#274684"/><path d="M106.294 46.631l5.893-6.93v22.126l-5.893 6.96V46.63z" fill="#3D95D1"/><path d="M100.401 53.504l5.893-6.873v22.156l-5.893 6.844V53.504zm11.786 8.323l5.892-6.96v22.156l-5.892 6.96V61.827z" fill="#B9D5FD"/><path d="M106.294 68.787l5.893-6.96v22.156l-5.893 6.96V68.786z" fill="#0E2951"/><path d="M100.401 75.63l5.893-6.843v22.155l-5.777 6.844-.116-22.155z" fill="#709FDC"/><path d="M118.078 77.023l5.892-6.99V92.19l-5.892 6.96V77.023z" fill="#6780B3"/><path d="M112.187 83.983l5.892-6.96V99.15l-5.892 6.959V83.983z" fill="#053866"/><path d="M106.294 90.943l5.893-6.96v22.126l-5.893 6.96V90.943z" fill="#B9D5FD"/><path d="M100.518 97.787l5.776-6.844v22.126l-6.009 6.786.233-22.069zm20.55-79.082c-.986-2.088-1.509-4.988-1.509-9.744l.726-.9c0 3.858.435 6.642 1.306 8.44.522 1.073 1.567 1.42 2.409.406v2.668c-.464.55-.755.725-1.19.725-.668 0-1.248-.551-1.742-1.595z" fill="#3D95D1"/><path d="M122.026 14.065c-.668-1.421-1.045-3.625-1.045-6.844l.726-.899c0 2.349.116 3.45.58 4.872.436 1.334 1.19 1.479 1.713.899v2.668c-.32.377-.494.464-.784.464-.464-.03-.871-.435-1.19-1.16z" fill="#3376B3"/><path d="M122.868 9.396c-.406-.87-.609-2.146-.609-3.973l.842-.899c-.146 1.334-.146 2.204.145 2.668a.536.536 0 00.725 0V9.86c-.174.232-.203.232-.377.232-.261-.03-.522-.261-.726-.696z" fill="#709FDC"/><path d="M100.518 91.929l4.15-4.96V54.375l-4.15 4.901v-3.074l5.021-5.655v38.28l-4.992 5.858-.029-2.755z" fill="#274684"/><path d="M100.518 91.928l4.15-4.959V70.18l.871-.87v19.516l-5.021 6.206v-3.103z" fill="#0E2951"/><path d="M100.46 86.65l2.815-3.306V60.928l-2.757 3.074V61.13l3.599-4.031v27.607l-3.57 4.234-.087-2.29z" fill="#274684"/><path d="M100.518 80.938l1.277-1.74v-10.44l-1.277 1.566V67.22l2.148-2.291v16.123l-2.032 2.407-.116-2.522z" fill="#274684"/><path d="M100.46 80.677l1.277-1.306V73.66l.842-.9v8.469l-2.061 2.378-.058-2.93z" fill="#0E2951"/><path d="M100.518 86.448l2.757-3.103V71.86l.842-.9v14.181l-3.599 4.408v-3.102z" fill="#0E2951"/><path d="M119.501 80.648l4.47-5.278v16.82l-4.47 5.306V80.648z" fill="#053866"/><path d="M121.01 84.62l2.961-3.508v11.077l-2.961 3.48V84.621z" fill="#709FDC"/><path d="M110.009 20.184l2.148 11.397-3.715 12.411-2.119-11.396 3.686-12.412z" fill="#0E2951"/><path d="M109.632 26.012l1.103 5.83-1.915 6.321-1.074-5.8 1.886-6.35z" fill="#6780B3"/><path d="M106.294 95.35l5.893-6.96v17.719l-5.893 6.96V95.35z" fill="#3D95D1"/><path d="M106.294 100.222l5.893-6.96v12.847l-5.893 6.96v-12.847z" fill="#6780B3"/><path d="M106.294 105.123l5.893-6.989v7.975l-5.893 6.96v-7.946z" fill="#053866"/><path d="M106.294 109.096l5.893-6.96v3.973l-5.893 6.96v-3.973zm6.415-51.996l4.847-6.728-4.847-5.307 4.847-6.728-4.847 18.763z" fill="#0E2951"/><path d="M123.245 26.65l.726-.87v22.127l-.726.899V26.65zm-1.131 1.335l.725-.87V49.24l-.725.9V27.984zm-3.717 4.437l.726-.9v22.156l-.726.87V32.421zm1.249-1.596l.842-.899v22.127l-.842.87V30.826zm1.335-1.507l.697-.9v22.156l-.697.87V29.318z" fill="#55A2E0"/><path d="M118.078 54.867l5.892-6.96v22.127l-5.892 6.989V54.867z" fill="#0E2951"/><path d="M118.078 65.945l2.932-3.48v11.078l-2.932 3.48V65.945zm2.932-14.558l2.961-3.48v11.078l-2.961 3.48V51.387z" fill="#55A2E0"/><path d="M113.608 87.665l3.019-3.596v11.397l-3.019 3.596v-8.99l2.468-2.9v6.873l-1.887 2.233v-4.814l1.306-1.566v2.755l-.755.9" stroke="#3D95D1" stroke-miterlimit="10"/><path d="M104.523 113.069l-3.396-15.254 1.248-1.392 3.571 15.341-1.423 1.305z" fill="#003A79"/><path d="M102.579 114.838l-1.799 2.233 2.96-22.04 1.8-1.768-2.961 21.575z" fill="#003A79"/><path d="M110.068 68.758l.928-1.102v3.538l-.928 1.102v-3.538zm-1.307 6.38l.929-1.102v3.538l-.929 1.13v-3.566zm-1.306 6.438l.958-1.131v3.567l-.958 1.101v-3.537z" fill="#B9D5FD"/><path d="M100.373 31.174L.058 31.145l.058 88.71h100.17l.087-88.68z" fill="#054270"/><path d="M100.286 119.855l-100.199.087-.029-88.797 100.315.03-.087 88.68z" fill="#053866"/><path d="M25.223 97.728l-25.137.03V75.601l25.137-.03v22.156z" fill="#F4F9FF"/><path d="M50.331 97.728H25.224V75.573l25.107-.03v22.185z" fill="#274684"/><path d="M75.41 97.7l-25.079.028V75.544l25.079-.03V97.7z" fill="#3D95D1"/><path d="M100.517 97.786L75.41 97.7V75.515l25.107.087v22.184zM50.331 75.544l-25.107.029V53.388l25.107-.029v22.185z" fill="#B9D5FD"/><path d="M75.41 75.515l-25.079.029V53.359H75.41v22.156z" fill="#0E2951"/><path d="M100.517 75.602l-25.107-.087V53.359l25.107.058v22.185z" fill="#709FDC"/><path d="M50.331 119.913H25.224V97.729H50.33v22.184z" fill="#0E2951"/><path d="M75.542 119.884l-25.21.029V97.728l25.21-.029v22.185z" fill="#709FDC"/><path d="M100.286 119.855l-24.702.029V97.699l24.934.087-.232 22.069zM25.224 53.388l-25.137.029-.029-22.272 25.166.087v22.156z" fill="#6780B3"/><path d="M50.331 53.36l-25.107.028V31.233l25.107-.03V53.36z" fill="#053866"/><path d="M75.41 53.36H50.33V31.202l25.079-.029V53.36z" fill="#B9D5FD"/><path d="M100.517 53.417L75.41 53.36V31.174h24.962l.145 22.243z" fill="#3D95D1"/><path d="M78.632 94.683V56.375l21.654-.029-.407 2.842H82.26v32.653l18.258.088v3.102l-21.886-.348z" fill="#274684"/><path d="M78.4 56.375l22.118-.203v3.103l-18.258-.087v16.356h-3.628L78.4 56.375z" fill="#0E2951"/><path d="M84.67 89.55V62.118l15.848-.986v2.726l-12.25.203v22.33l12.25.058v3.103H84.67z" fill="#274684"/><path d="M91.2 83.576V67.453l9.26-.058-.58 2.9-5.08-.03v10.47l5.718-.058v2.928l-9.317-.029z" fill="#274684"/><path d="M91.2 67.453l9.318-.232v3.103l-5.718-.058v5.365l-3.6-.058v-8.12z" fill="#0E2951"/><path d="M84.67 61.247l15.848-.116v2.871l-12.25.058v11.455H84.67V61.247z" fill="#0E2951"/><path d="M12.627 42.31l-12.54.03-.029-11.195 12.569.087V42.31z" fill="#FF8098"/><path d="M59.533 119.797l-9.114-13.92 15.761-8.061 9.143 13.919-15.79 8.062z" fill="#0E2951"/><path d="M61.159 114.432l-4.644-7.134 8.069-4.118 4.615 7.134-8.04 4.118z" fill="#6780B3"/><path d="M75.41 48.922l-25.079.03V31.203l25.079-.03v17.748z" fill="#3D95D1"/><path d="M75.41 44.05l-25.079.03V31.202l25.079-.029V44.05z" fill="#6780B3"/><path d="M75.41 39.178H50.33v-7.974l25.079-.03v8.004z" fill="#053866"/><path d="M75.41 35.176H50.33v-3.973l25.079-.029v4.002zM48.822 79.169l-22.089.029 22.09 14.035-22.09.03" fill="#0E2951"/><path d="M.058 75.37l3.6-.116v22.62l-3.6.115V75.37zm4.732.29l3.627-.116v22.155l-3.628.145V75.66zm15.18-.058l3.6-.145-.059 22.242-3.657.116.116-22.213zm-5.138.028l3.658-.115v22.184l-3.658.116V75.631zm-5.022.03l3.658-.145v22.184l-3.657.145V75.66z" fill="#709FDC"/><path d="M25.223 75.573l-25.137.029V53.417l25.137-.029v22.185z" fill="#0E2951"/><path d="M25.223 119.913l-25.137.029V97.758l25.137-.03v22.185z" fill="#053866"/><path d="M25.224 64.466l-12.598.03v-11.08l12.598-.029v11.078z" fill="#3D95D1"/><path d="M.058 101.092v-2.204c13.381 0 24.73 5.945 24.73 21.054l-3.018-.058c0-10.179-9.637-18.792-21.712-18.792z" fill="#B9D5FD"/><path d="M0 105.877v-2.668c10.072 0 18.722 5.974 18.722 16.617l-3.628.116c0-7.772-6.27-14.065-15.094-14.065z" fill="#3D95D1"/><path d="M.058 110.865l.058-2.552c6.85 0 11.988 4.988 11.988 11.629L8.737 120c-.029-4.814-3.338-9.135-8.679-9.135z" fill="#3376B3"/><path d="M.058 116.201l.058-2.813c3.745 0 6.56 2.726 5.95 6.438l-3.018-.058c0-2.117-.639-3.596-2.99-3.567z" fill="#709FDC"/><path d="M47.632 51.039H27.865V33.552h19.767v13.775H31.581V36.771l12.336.03v7.336h-8.621v-4.205H40.2" stroke="#3D95D1" stroke-width="2" stroke-miterlimit="10"/><path d="M97.006 50.691L79.938 33.813m0 16.878l17.068-16.878" stroke="#0E2951" stroke-width="4" stroke-miterlimit="10"/><path d="M59.359 71.107h-4.006v-3.538l4.006-.03v3.568zm5.515-4.872l-4.006-.029v-3.538l4.006.029v3.538zm5.515-4.901l-4.006.03v-3.568h4.006v3.538z" fill="#B9D5FD"/><path d="M19.158 48.081H.088l-.03-16.936 19.1.087v16.849z" fill="#053866"/><path d="M14.049 43.528H.087L.058 31.145l13.991.058v12.325z" fill="#709FDC"/><path d="M12.626 75.602H.086V64.524l12.54-.03v11.108z" fill="#3D95D1"/><path d="M66.906 3.161l-43.598-.377L.058 31.146l43.917.058L66.905 3.16z" fill="#165B93"/><path d="M123.245 1.537l.378-.928.232-.609" fill="#34DD17"/><path d="M123.971 3.306L76.426 3.16 55.353 31.29l45.02-.117 23.598-27.868z" fill="#165B93"/><path d="M112.216 9.483l-11.843 21.691L.058 31.145 11.843 9.28l100.373.203zm1.857-2.001l9.898-4.176-100.663-.522-9.84 4.35 100.605.348z" fill="#9CCEF7"/><path d="M100.568 53.143H0v44.571h100.568V53.143z" fill="#A8D2FC"/><path d="M10.94 79.572L7.597 70.9H5.284L1.93 79.571h2.106l.546-1.468H8.3l.533 1.469h2.106zm-3.147-3.094H5.09l1.352-3.731 1.352 3.73zm8.003 3.094c1.261 0 1.937-.755 1.937-1.704 0-.753-.507-1.377-1.196-1.533a1.446 1.446 0 001.066-1.43c0-.846-.65-1.612-1.924-1.612h-3.978v6.278h4.095zm-.403-1.353h-2.04v-1.17h2.04c.416 0 .65.273.65.585 0 .365-.247.585-.65.585zm-.052-2.521h-1.989v-1.053h1.99c.363 0 .584.22.584.532 0 .286-.22.52-.585.52zm6.798 3.874v-4.837h1.755v-1.442H18.72v1.442h1.755v4.837h1.664zm5.703.156c2.08 0 3.328-1.508 3.328-3.302 0-1.782-1.248-3.29-3.328-3.29-2.067 0-3.315 1.508-3.315 3.29 0 1.793 1.248 3.302 3.315 3.302zm0-1.47c-1.027 0-1.6-.844-1.6-1.832 0-.975.573-1.82 1.6-1.82 1.027 0 1.612.845 1.612 1.82 0 .987-.585 1.832-1.612 1.832zm11.975 1.314v-6.28h-2.184l-1.52 3.745-1.548-3.745h-2.17v6.28h1.65V75.49l1.69 4.082h.754l1.677-4.082v4.082h1.651zm7.063 0v-4.056c0-1.808-1.313-2.38-2.743-2.38-.988 0-1.976.313-2.743.989l.624 1.105c.533-.495 1.157-.742 1.833-.742.832 0 1.378.416 1.378 1.053v.846c-.416-.495-1.157-.767-1.99-.767-1 0-2.183.558-2.183 2.027 0 1.404 1.183 2.08 2.184 2.08.819 0 1.56-.299 1.989-.806v.65h1.65zm-2.977-.963c-.65 0-1.183-.337-1.183-.922 0-.611.533-.95 1.183-.95.533 0 1.053.183 1.326.547v.78c-.273.364-.793.546-1.326.546zm7.436.963v-4.837h1.755v-1.442h-5.175v1.442h1.756v4.837h1.664zm4.376 0l2.665-3.94v3.94h1.65v-6.28h-1.663l-2.587 3.796v-3.795h-1.651v6.278h1.586zm8.243.156c1.872 0 3.029-.78 3.029-1.885 0-.95-1.001-1.444-1.768-1.496.832-.13 1.638-.675 1.638-1.481 0-1.067-1.105-1.73-3.068-1.716-1.144 0-2.054.428-2.665 1.04l.806.975c.494-.482 1.13-.716 1.95-.716.74 0 1.26.26 1.26.638 0 .441-.428.675-1.286.675h-1.287v1.275h1.287c.858 0 1.404.22 1.404.701 0 .403-.455.677-1.3.677-.754 0-1.586-.222-2.171-.716l-.754 1.028c.61.597 1.625 1 2.925 1zm9.684-.156v-4.056c0-1.808-1.313-2.38-2.743-2.38-.988 0-1.976.313-2.743.989l.624 1.105c.533-.495 1.157-.742 1.833-.742.832 0 1.378.416 1.378 1.053v.846c-.416-.495-1.157-.767-1.99-.767-1 0-2.183.558-2.183 2.027 0 1.404 1.183 2.08 2.184 2.08.819 0 1.56-.299 1.989-.806v.65h1.65zm-2.977-.963c-.65 0-1.183-.337-1.183-.922 0-.611.533-.95 1.183-.95.533 0 1.053.183 1.326.547v.78c-.273.364-.793.546-1.326.546zm9.554 2.562h1.651v-3.043h-.689v-4.835h-1.65v4.835h-2.6v-4.835h-1.652v6.278h4.94v1.6zm4.276-1.6l2.665-3.939v3.94h1.651v-6.28h-1.664l-2.587 3.796v-3.795h-1.65v6.278h1.585zm7.62 0l1.234-2.157h1.287v2.157h1.651v-6.278h-3.809c-1.39 0-2.17.948-2.17 2.053 0 1.118.675 1.769 1.39 1.95l-1.456 2.275h1.872zm.623-3.535c-.468 0-.754-.287-.754-.69 0-.39.3-.663.754-.663h1.898v1.352h-1.898z" fill="#000"/></g><defs><clipPath id="clip0"><path fill="#fff" d="M0 0h124v120H0z"/></clipPath></defs></svg>