<svg width="338" height="238" fill="none" xmlns="http://www.w3.org/2000/svg"><g filter="url(#filter0_d)"><path d="M170.88 232L2.009 179.09l158.548-49.824L332 179.09 170.88 232z" fill="#F1F5FB"/></g><g filter="url(#filter1_di)"><path d="M61.709 38.602a17.628 17.628 0 01-7.318 8.764A17.592 17.592 0 0143.244 49.8l.676-5.85a11.715 11.715 0 007.424-1.622 11.74 11.74 0 004.874-5.836l5.49 2.11z" fill="#71A0DD"/><path d="M36.463 17.012a17.592 17.592 0 0119.744 1.452 17.654 17.654 0 015.92 18.916l-5.63-1.702a11.76 11.76 0 00-3.944-12.598 11.719 11.719 0 00-13.149-.967l-2.94-5.1z" fill="#0A3D76"/><path d="M41.607 49.531a17.607 17.607 0 01-10.14-6.295l4.61-3.658a11.726 11.726 0 006.753 4.192l-1.223 5.761z" fill="#F985A0"/><path d="M30.334 41.627a17.652 17.652 0 014.683-23.681l3.424 4.788a11.757 11.757 0 00-3.119 15.772l-4.988 3.121z" fill="url(#paint0_linear)"/></g><g filter="url(#filter2_di)"><path d="M298.814 54.905a15.519 15.519 0 01-5.23 6.9l-9.244-12.464 14.474 5.564z" fill="#71A0DD"/><path d="M273 38.753a15.488 15.488 0 0119.602-2.55 15.523 15.523 0 016.467 8.29 15.546 15.546 0 01-.294 10.513l-14.435-5.665L273 38.753z" fill="#0A3D76"/><path d="M293.67 61.74a15.493 15.493 0 01-11.488 2.975l2.158-15.374 9.33 12.4z" fill="#71A0DD"/><path d="M282.286 64.73a15.49 15.49 0 01-7.762-3.371 15.525 15.525 0 01-4.84-6.95 15.547 15.547 0 013.556-15.907l11.1 10.84-2.054 15.388z" fill="#B4D1FA"/></g><g filter="url(#filter3_f)"><path d="M125.952 194.476l28.675-7.66-40.463-33.829L52.99 170.54l72.962 23.936z" fill="url(#paint1_linear)"/></g><g filter="url(#filter4_f)"><path d="M195.248 203.253l18.798-10.053-35.844-11.49-24.851 7.66 41.897 13.883z" fill="url(#paint2_linear)"/></g><g filter="url(#filter5_f)"><path d="M200.665 179.635l35.366 15.798 13.381 1.596 4.302-1.596-40.464-24.255-12.585 8.457z" fill="url(#paint3_linear)"/></g><path d="M233.514 59.832c7.056 0 11.088-3.888 13.392-7.872l-5.856-2.832c-1.344 2.64-4.224 4.656-7.536 4.656-5.808 0-10.032-4.464-10.032-10.512s4.224-10.512 10.032-10.512c3.312 0 6.192 2.064 7.536 4.656l5.856-2.88c-2.256-3.984-6.336-7.824-13.392-7.824-9.6 0-17.04 6.72-17.04 16.56s7.44 16.56 17.04 16.56zm10.416 71.424l-7.2-12.192c3.456-.816 7.008-3.84 7.008-9.504 0-5.952-4.08-10.32-10.752-10.32H218.01v32.016h6.816V119.88h4.992l6.288 11.376h7.824zm-11.952-17.376h-7.152v-8.64h7.152c2.736 0 4.8 1.632 4.8 4.32 0 2.688-2.064 4.32-4.8 4.32zm20.736 89.376V171.24h-9.6l-7.776 19.344-7.776-19.344h-9.552v32.016h6.816V180.84l9.024 22.416h2.976l9.024-22.416v22.416h6.864z" fill="#EBF2F9"/><g filter="url(#filter6_di)"><path d="M261.952 135.025l-15.809-9.541a4.093 4.093 0 01-1.933-3.813c.162-1.957.242-3.934.241-5.932a68.969 68.969 0 00-.826-10.874 4.048 4.048 0 011.914-4.136l16.514-9.987a3.972 3.972 0 001.51-5.186L255.79 69.7a3.916 3.916 0 00-4.834-1.957l-16.695 6.073c-1.611.626-3.444.081-4.534-1.331a71.392 71.392 0 00-16.391-15.418 4.07 4.07 0 01-1.511-4.721l3.706-10.17a4.121 4.121 0 00-2.013-5.044l-15.728-7.706a3.579 3.579 0 00-.991-.343 3.934 3.934 0 00-4.19 1.856l-7.127 11.821-1.733 2.886a70.403 70.403 0 00-9.948-.71 71.541 71.541 0 00-13.252 1.231 3.938 3.938 0 01-4.129-1.835l-8.015-13.343a4.077 4.077 0 00-5.288-1.544l-12.104 5.951-3.464 1.715a4.137 4.137 0 00-2.075 5.126l5.056 13.981a3.944 3.944 0 01-1.209 4.478 70.769 70.769 0 00-10.653 10.775 12.39 12.39 0 00-.807.994 2.129 2.129 0 01-.283.322 4.023 4.023 0 01-4.35 1.01l-16.5-5.998a2.909 2.909 0 00-.566-.162 4.086 4.086 0 00-4.45 2.18l-7.694 15.695a4.088 4.088 0 001.55 5.288l16.494 9.946a3.945 3.945 0 011.873 4.055 72.317 72.317 0 00-.584 16.801 4.166 4.166 0 01-1.993 3.895l-15.87 9.603a3.975 3.975 0 00-1.51 5.145l7.714 15.676a4.134 4.134 0 005.136 2.078l13.211-4.802a4.058 4.058 0 014.773 1.561A71.232 71.232 0 00129.575 171a4.048 4.048 0 011.288 4.58l-5.397 14.89a4.186 4.186 0 002.074 5.164l15.608 7.688a3.994 3.994 0 005.196-1.533l.425-.687 8.276-13.739a4.09 4.09 0 014.251-1.918h.02c4.121.74 8.3 1.111 12.487 1.11 2.275 0 4.51-.121 6.745-.322a3.999 3.999 0 013.847 1.916l8.136 13.539a4.15 4.15 0 002.382 1.848 4.135 4.135 0 003.002-.256l15.586-7.686c.426-.22.814-.508 1.149-.852a4.137 4.137 0 00.885-4.197l-4.067-11.157a4.134 4.134 0 01.708-3.994 4.42 4.42 0 01.85-.766 70.956 70.956 0 0019.777-19.894 3.988 3.988 0 014.028-1.736c.226.042.449.103.665.182l13.352 4.863a4.055 4.055 0 005.015-2.019l.181-.363 7.51-15.293a4.141 4.141 0 00-1.602-5.343zm-124.804-30.163a47.511 47.511 0 013.182-8.252c2.619-5.266 9.082-11.782 14.36-14.385.567-.284 1.134-.545 1.692-.808 34.518-15.535 67.809 18.42 51.073 53.022-2.195 4.52-7.049 9.827-11.781 13.114a25.34 25.34 0 01-3.222 1.898c-4.818 2.339-9.607 3.712-14.28 4.237-26.624 2.965-48.536-21.548-41.024-48.826z" fill="url(#paint4_linear)"/></g><g filter="url(#filter7_di)"><path d="M264.17 182.125l-3.523-2.135a.918.918 0 01-.425-.854c.037-.438.055-.881.055-1.328a15.42 15.42 0 00-.187-2.428.915.915 0 01.425-.926l3.679-2.234a.893.893 0 00.337-1.16l-1.732-3.55a.877.877 0 00-1.079-.439l-3.721 1.36a.869.869 0 01-1.009-.298 15.942 15.942 0 00-3.654-3.45.915.915 0 01-.336-1.057l.825-2.277a.923.923 0 00-.448-1.129l-3.507-1.725a.879.879 0 00-1.153.339l-1.589 2.646-.386.646a15.817 15.817 0 00-5.17.117.876.876 0 01-.92-.41l-1.787-2.989a.908.908 0 00-1.18-.349l-2.698 1.332-.771.385a.923.923 0 00-.463 1.147l1.132 3.131a.89.89 0 01-.269.997 15.92 15.92 0 00-2.374 2.411 2.727 2.727 0 00-.18.222.392.392 0 01-.064.071.893.893 0 01-.969.227l-3.679-1.341a.666.666 0 00-.125-.037.905.905 0 00-.991.488l-1.715 3.513a.916.916 0 00.347 1.183l3.679 2.226a.886.886 0 01.424.908 16.168 16.168 0 00-.13 3.761.94.94 0 01-.444.873l-3.538 2.147a.891.891 0 00-.336 1.153l1.719 3.508a.919.919 0 001.144.465l2.945-1.074a.9.9 0 011.064.347 15.839 15.839 0 003.29 3.635.913.913 0 01.283 1.025l-1.203 3.332a.937.937 0 00.463 1.156l3.477 1.721a.888.888 0 001.158-.343l.095-.154 1.839-3.074a.91.91 0 01.947-.427 15.645 15.645 0 004.287.176.893.893 0 01.857.427l1.813 3.029a.926.926 0 001.2.358l3.473-1.721a.996.996 0 00.257-.19.927.927 0 00.196-.939l-.907-2.497a.939.939 0 01.157-.894c.056-.065.12-.123.19-.172a15.847 15.847 0 004.407-4.452.888.888 0 011.046-.348l2.971 1.089a.904.904 0 001.118-.452l.041-.082 1.674-3.416a.933.933 0 00-.352-1.2zm-27.815-6.745c.178-.638.415-1.258.708-1.851.582-1.178 2.024-2.637 3.2-3.22.126-.062.251-.122.376-.18 7.695-3.476 15.113 4.128 11.384 11.867-.49 1.012-1.571 2.199-2.627 2.935-.228.16-.468.303-.717.427a9.701 9.701 0 01-3.182.948c-5.933.66-10.816-4.827-9.142-10.926z" fill="#F985A0"/></g><path d="M303.782 108.442l-2.122-1.289a.561.561 0 01-.26-.517 9.654 9.654 0 00-.078-2.272.55.55 0 01.257-.56l2.217-1.35a.54.54 0 00.202-.701l-1.044-2.145a.525.525 0 00-.648-.264l-2.241.82a.523.523 0 01-.608-.18 9.612 9.612 0 00-2.2-2.083.55.55 0 01-.203-.638l.497-1.377a.553.553 0 00-.27-.681l-2.111-1.042a.524.524 0 00-.694.204l-.957 1.598-.233.39a9.543 9.543 0 00-3.114.071.52.52 0 01-.553-.248l-1.076-1.803a.548.548 0 00-.711-.21l-1.624.803-.465.23a.556.556 0 00-.278.693l.678 1.89a.53.53 0 01.016.329.532.532 0 01-.178.276 9.55 9.55 0 00-1.431 1.457c-.04.043-.072.087-.108.133a.54.54 0 01-.621.18l-2.214-.81a.546.546 0 00-.673.273l-1.032 2.122a.552.552 0 00.208.715l2.214 1.345a.532.532 0 01.251.548 9.88 9.88 0 00-.114 1.478c0 .268.011.532.033.794a.57.57 0 01-.268.526l-2.13 1.298a.538.538 0 00-.202.696l1.035 2.119a.547.547 0 00.689.28l1.773-.648a.537.537 0 01.64.21 9.638 9.638 0 001.982 2.195.545.545 0 01.17.619l-.724 2.013a.568.568 0 00.278.698l2.095 1.039a.535.535 0 00.697-.207l.057-.093 1.111-1.857a.54.54 0 01.568-.259 9.42 9.42 0 002.581.106.541.541 0 01.516.259l1.093 1.83a.553.553 0 00.721.216l2.092-1.039a.558.558 0 00.273-.682l-.546-1.508a.566.566 0 01.209-.644 9.559 9.559 0 002.654-2.689.532.532 0 01.63-.21l1.792.657a.536.536 0 00.388-.007.55.55 0 00.285-.265l.024-.05 1.009-2.065a.564.564 0 00-.204-.717zm-16.752-4.078c.108-.384.251-.758.427-1.116.352-.711 1.219-1.592 1.928-1.944.075-.038.151-.074.227-.109 4.633-2.1 9.101 2.49 6.855 7.167-.295.611-.946 1.328-1.582 1.773a3.294 3.294 0 01-.432.256c-.602.3-1.25.494-1.917.574-3.573.403-6.512-2.914-5.506-6.601zM124.181 23.452l-3.462-1.61a.849.849 0 01-.483-.74 14.46 14.46 0 00-.082-1.223 14.118 14.118 0 00-.412-2.214.838.838 0 01.303-.889l3.173-2.418a.82.82 0 00.196-1.099l-1.951-3.082a.813.813 0 00-1.037-.294l-3.3 1.617a.812.812 0 01-.963-.175 14.76 14.76 0 00-3.714-2.8.842.842 0 01-.415-.934l.535-2.171a.849.849 0 00-.525-.99l-3.406-1.227a.814.814 0 00-1.03.426l-1.203 2.586-.292.63a14.776 14.776 0 00-4.757.623.81.81 0 01-.889-.284l-1.945-2.559a.843.843 0 00-1.124-.2l-2.355 1.49-.675.429a.854.854 0 00-.312 1.098l1.35 2.758a.812.812 0 01-.152.95 14.684 14.684 0 00-1.947 2.454c-.052.07-.1.144-.144.22a.831.831 0 01-.927.377l-3.525-.862a.847.847 0 00-.986.526l-1.232 3.394a.843.843 0 00.438 1.052l3.613 1.674a.812.812 0 01.475.79 14.934 14.934 0 00.254 3.463.86.86 0 01-.323.843l-3.05 2.326a.82.82 0 00-.196 1.09l1.935 3.047a.857.857 0 001.102.312l2.61-1.28a.84.84 0 011.018.205 14.71 14.71 0 003.396 3.005.836.836 0 01.367.912l-.776 3.181a.864.864 0 00.542 1.014l3.379 1.227a.83.83 0 001.035-.43l.071-.15 1.396-3.006a.846.846 0 01.832-.488 14.604 14.604 0 003.972-.267.828.828 0 01.834.307l1.973 2.599a.86.86 0 001.139.206l3.035-1.928a.935.935 0 00.217-.2.857.857 0 00.087-.881l-1.079-2.195a.86.86 0 01.056-.836.91.91 0 01.157-.176 14.676 14.676 0 003.623-4.523.82.82 0 01.929-.425l2.853.701a.84.84 0 00.987-.525l.029-.078 1.204-3.308a.854.854 0 00-.446-1.065zm-26.33-3.41a9.792 9.792 0 01.47-1.765c.422-1.139 1.605-2.621 2.629-3.273.109-.071.22-.138.329-.203 6.752-3.96 14.351 2.27 11.68 9.746-.35.977-1.226 2.175-2.13 2.955-.195.17-.403.324-.621.462a9.07 9.07 0 01-2.841 1.188c-5.403 1.203-10.449-3.341-9.516-9.11z" fill="#EBF2F9"/><g clip-path="url(#clip0)"><path fill-rule="evenodd" clip-rule="evenodd" d="M148.043 126.593v1.514s-2.722-.251-3.726-.251c-1.003 0-.539-.06-1.542.251-.753.252-.903.503-1.405.58-.343.053-.778.222-1.003.138-.226-.084-.238.005-.603-.215s-.638-.429-.614-.737a1.83 1.83 0 01.113-.519l-.214-.099c-.131-.097-.224-.138-.265-.297a.731.731 0 01.043-.479c.069-.135.114-.179.222-.179 0 0-.509-.257-.539-.454-.03-.196-.05-.267.089-.403s.257-.115.257-.115-.57-.109-.414-.623c.157-.513.373-.518.423-.544.287-.105.596-.134.897-.084.42.08.394.128.757.101.364-.027.874-.085.874-.085s-.722-.669-1.02-1.299c-.299-.631-.313-1.416-.107-1.722.207-.306.473 0 .585.135.111.135.237.665.67 1.121.433.456 1.255 1.427 1.542 1.749.288.322.549 1.002 1.505 1.518.898.484 3.475.998 3.475.998z" fill="#FFCFAE"/><path fill-rule="evenodd" clip-rule="evenodd" d="M143.5 126.78c-.394.014-.981-.31-1.356-.866a2.484 2.484 0 01-.423-1.336s.043-.466-.429-.993c-.473-.527-.679-.796-.845-1.158-.138-.302-.108-1.18-.094-1.467a.923.923 0 00-.087.111c-.206.306-.193 1.091.107 1.722.299.631 1.022 1.296 1.022 1.296s.168.464.203.701c.035.238-.003 1.049.367 1.566.371.516 1.107.993 1.164 1.026.056.034-.232-.22-.317-.28-.084-.06 1.098-.297 1.098-.297s-.017-.035-.41-.025z" fill="#EBBE9F"/><path fill-rule="evenodd" clip-rule="evenodd" d="M144.524 125.789c.379.474-.109.86-.248.978-.138.117.879-.466.879-.466l2.837.321-.024-.028s-1.916-.268-2.813-.751c-1.132-.289-1.804-1.433-2.092-1.756-.225-.251-1.18-1.377-1.708-1.965-.008-.009-.327-.539-.337-.548.016.062.19.67.218.727.118.239.201.261.155.328-.046.067.192.052.192.052a.523.523 0 01-.056.158c-.032.042.064.058.211.022.146-.037.425.695.706.907.281.212.345.267.619.762.274.494 1.084.786 1.461 1.259z" fill="#F5C5A5"/><path d="M141.52 127.065c.014-.034.181-.177.188-.213.063 0 .063-.251.05-.428-.081-.076-.237-.326-.401-.299.164-.027.144-.193.153-.342a.888.888 0 00-.24-.439c.195-.061.289-.315.291-.43.001-.116-.362-.343-.59-.43-.229-.087-1.069-.147-1.101-.177.151.015 1.338.117 1.492.226.04.044.249.043.258.098.037.386.107 1.494.438 1.875.374.431 1.117.833 1.17.861a6.09 6.09 0 00-.722.293c-.415.197-.599.632-.946.769-.752.251-1.252.035-1.294-.069.193-.096.852-.274 1.091-.541.414-.464.22-.701.163-.754z" fill="#F5C5A5"/><path d="M138.761 125.344c.849.069 2.364.128 2.558-.027.242-.193.463-.743-.558-.862l-1.021-.119m.524 4.024c.586-.251 1.656-.654 1.255-1.257-.084-.083-.552-.15-1.756.252m1.681-.289c.464-.188.464-.69-.037-.941" stroke="#EBBE9F" stroke-width=".1"/><path d="M139.012 126.283c.685.014 1.82.043 2.257-.107.452-.155.226-.667 0-.845" stroke="#EBBE9F" stroke-width=".1"/></g><g filter="url(#filter8_f)"><path d="M158.927 150.274l-9.08-2.074c3.153 16.267 4.798 25.416 2.549 42.924l10.036-6.063c-7.812-5.468-5.048-17.534-3.505-34.787z" fill="url(#paint5_linear)"/></g><g filter="url(#filter9_f)"><path d="M155.263 150.434l-7.488-5.904-17.046 28.245-1.115 8.457s13.634-18.339 25.649-30.798z" fill="url(#paint6_linear)"/></g><g filter="url(#filter10_f)"><ellipse cx="248.935" cy="202.933" rx="21.984" ry="2.234" fill="#0A3D76" fill-opacity=".15"/></g><g filter="url(#filter11_f)"><path d="M36.9 187.454l-13.86-8.298 10.673-2.999 11.47-3.224 24.533 8.617-3.345 2.394-32.658-7.787 14.338 11.297H36.899z" fill="url(#paint7_linear)"/></g><path d="M166.982 109.612c8.019 1.667 10.467 2.447 15.2-1.867 0 0 .328-11.155-3.007-17.13-3.335-5.976-6.556-6.981-11.057-5.365 0 0-1.056-.892-3.051.559-8.161 5.93-2.686 17.052 1.915 23.803z" fill="#412716"/><path d="M177.163 87.442c-2.407 1.717-4.552.814-7.364 1.298-3.998.732-3.994 5.297-6.923 3.936-1.101 12.364-1.191 17.802 2.752 26.734 8.063 4.075 10.584 7.83 14.572.998 0 0 4.479-15.615.367-26.474-.324-.925-3.065-5.721-3.404-6.492z" fill="#3C2415"/><path d="M167.096 122.295s.779-8.806 1.796-11.431c-.046-1.514-.027-3.486-.199-4.691l6.676-3.682c.051-.127-.863 6.258.526 9.68 1.296-.333-4.649 8.782-4.649 8.782l-4.15 1.342z" fill="#FFCFAE"/><path d="M174.337 103.832c-3.829 2.013-1.565.772-3.927 1.984l-1.876 1.134c-.059.769.607 1.44 1.33 1.224 1.289-.385 2.553-1.658 4.053-3.795l.42-.547z" fill="#F5B994"/><path d="M162.368 101.415c1.047 2.74 1.757 6.241 5.284 5.01 3.527-1.232 6.073-2.658 6.909-3.826 1.085-1.516 1.049-2.286 1.256-4.49.259-2.772.4-4.868.126-5.525-2.509-4.753-4.765-4.055-6.971-3.62-4.549 1.843-6.831 3.437-7.028 7.82-.022.505-.21 2.97.424 4.631z" fill="#FFCFAE"/><path d="M170.861 95.58c-.391-.032-.517.025-1.094.13-.263.07-.52.164-.765.28 0 0-.566.52-.633.588-.119.12-.071.223.112.207.183-.015.384-.092.538-.098 1.188-.079 1.443-.073 2.115-.388.268-.12.524-.26.761-.418a2.676 2.676 0 00-1.034-.3z" fill="#fff"/><path d="M169.631 95.861c-.389.122-.69.444-.674.719.005.072.049.215.219.157.066-.023.693-.113.994-.184a.854.854 0 00.134-.17.464.464 0 00.06-.244c-.017-.275-.345-.4-.733-.278z" fill="#28160D" stroke="#1C1105" stroke-width=".2" stroke-miterlimit="10"/><path d="M169.697 96.66c.21-.066.372-.242.363-.393-.009-.15-.185-.218-.395-.152-.209.067-.371.244-.362.394.008.15.185.219.394.152z" fill="#000"/><path opacity=".77" d="M169.991 96.39c.112-.035.199-.13.195-.211-.005-.081-.1-.118-.212-.082-.113.036-.2.13-.195.212.004.08.099.118.212.082z" fill="#fff"/><path d="M168.314 96.625l.668-.636a.67.67 0 01.227-.137l.28-.1a2.11 2.11 0 01.439-.105l.723-.087c.147-.018.291-.012.419.017l.754.18.241-.034-.707-.31a1.45 1.45 0 00-.505-.022l-.72.087c-.17.02-.341.062-.504.121l-.278.1a2.112 2.112 0 00-.511.223l-.787.77.261-.067z" fill="#D3A688"/><path opacity=".5" d="M168.252 96.675l.667-.626a.782.782 0 01.27-.16l.277-.099c.158-.055.321-.093.485-.113l.721-.086c.163-.02.321-.013.462.02l.741.177" stroke="#0A0001" stroke-width=".3" stroke-miterlimit="10"/><path d="M168.406 96.84l.297-.044a3.67 3.67 0 01.464-.042c.37-.024 1.134-.032 1.794-.239.041-.013.335-.145.374-.163l.374-.164" stroke="#472A22" stroke-width=".2" stroke-miterlimit="10"/><path d="M163.594 96.404c.317-.158.424-.155.904-.263.22-.03.438-.04.648-.03 0 0 .505.235.566.267.107.058.077.158-.074.207-.151.05-.321.054-.448.101-.976.336-1.184.427-1.758.396a3.324 3.324 0 01-.656-.084c.225-.23.505-.433.818-.594z" fill="#fff"/><path d="M165.74 96.427l-.601-.303a.422.422 0 00-.197-.038l-.237.009a1.675 1.675 0 00-.368.058l-.597.163a1.243 1.243 0 00-.341.151l-.598.393-.2.051.549-.484a1.46 1.46 0 01.41-.183l.595-.163a1.83 1.83 0 01.422-.065l.236-.01c.152-.015.301-.01.436.017l.71.374-.219.03z" fill="#D3A688"/><path opacity=".5" d="M165.804 96.454l-.6-.298a.494.494 0 00-.234-.045l-.235.009c-.133.005-.27.026-.405.063l-.596.161a1.308 1.308 0 00-.374.165l-.588.383" stroke="#0A0001" stroke-width=".3" stroke-miterlimit="10"/><path d="M163.825 96.303c-.315.067-.55.34-.526.61.006.07.021.072.058.126.345.15.656.074 1.053-.052a.854.854 0 00.028-.314c-.024-.27-.299-.436-.613-.37z" fill="#28160D" stroke="#1C1105" stroke-width=".2" stroke-miterlimit="10"/><path d="M163.808 97.06c.174-.052.308-.199.3-.328-.007-.13-.155-.193-.328-.141-.174.051-.309.198-.301.328.008.13.155.192.329.14z" fill="#000"/><path opacity=".77" d="M164.053 96.83c.093-.028.166-.107.161-.177-.004-.07-.083-.103-.176-.076-.094.028-.166.107-.162.177.004.07.084.104.177.076z" fill="#fff"/><path d="M165.746 96.706l-.246.046a3.332 3.332 0 00-.382.096c-.304.085-.926.293-1.486.305a8.61 8.61 0 01-.323-.032l-.322-.032" stroke="#472A22" stroke-width=".2" stroke-miterlimit="10"/><path d="M175.233 96.736c.688-1.358 1.696-1.942 2.254-1.295.558.648.209 2.222-.484 3.585-.693 1.364-1.697 1.9-2.004 1.337-.562-.641-.451-2.27.234-3.627z" fill="#FFCFAE"/><path d="M175.841 97.608c.395-.84.88-1.22 1.08-.852.2.368.032 1.352-.366 2.186-.399.833-.884 1.225-1.094.852-.21-.373-.022-1.353.38-2.186z" fill="#F5B994"/><path d="M175.439 99.068c.189-.504.525-.797.751-.644.226.153.25.685.065 1.189-.186.503-.526.793-.751.644-.226-.149-.251-.673-.065-1.189z" fill="#FFCFAE"/><path d="M162.114 96.391c.398-.756 1.044-2.598 3.241-1.708.139.056.206.077.274.373-2.003-.28-2.175-.318-3.515 1.335zm10.74-1.854c-.457-.402-1.594-1.008-4.099.054-.167.088-.248.126-.337.36 2.343-.72 2.648-.814 4.436-.414z" fill="#553723"/><path d="M166.429 97.476c.139 1.412-.325 2.167-.773 3.478a.515.515 0 00.07.214c.143.256.702.239 1.331 0 .236-.061.363-.035.582.042" stroke="#D3A688" stroke-width=".5" stroke-miterlimit="10"/><path d="M164.741 93.157c-.754 2.337-2.629 3.758-3.057 3.78l.4-5.094 6.029-5.274 7.834 3.157-.546 6.541c-7.463-5.652-5-8.643-6.984-7.97-1.985.674-2.733 1.94-3.676 4.86z" fill="#412616"/><g clip-path="url(#clip1)"><path d="M165.495 103.28h.005a.68.68 0 00.408-.061 3.805 3.805 0 011.777-.323 6.501 6.501 0 001.678-.239.394.394 0 01.044-.15.352.352 0 01.097-.116 1.3 1.3 0 00.235.56c-.099.077-.281-.063-.281-.063-.138.349-.37.647-.664.854a1.666 1.666 0 01-.987.311c-.698.104-1.307.02-1.868-.436-.072.026-.357-.318-.439-.337h-.005z" fill="#FFC6C6" opacity=".8"/><path d="M165.873 103.401a2.955 2.955 0 011.398-.308 5.62 5.62 0 002.066-.301 2.347 2.347 0 01-.839.849 2.113 2.113 0 01-1.114.293c-.273.036-.55.007-.811-.085a1.845 1.845 0 01-.7-.448z" fill="#FDFCFC"/><path d="M165.873 103.402l.201-.099c.069-.032.14-.061.213-.084l.211-.065c.072-.02.144-.037.217-.05l.223-.036.22.012.443-.017c.144.007.289.015.437-.032l.241-.021.198-.051.21-.037.23-.049c.071-.013.142-.032.211-.058.064-.02.127-.046.187-.079l.135-.054-.057.141a1.958 1.958 0 01-.139.239l-.082.105-.087.098-.093.091-.105.083a1.54 1.54 0 01-.21.153c-.295.18-.618.298-.952.347a1.596 1.596 0 01-.248.028l-.126-.007-.126-.007-.245-.013-.245-.013a1.539 1.539 0 01-.242-.074 1.485 1.485 0 01-.338-.176l-.102-.101-.096-.087a1.724 1.724 0 01-.084-.087zm0 0c.029.031.059.06.09.087l.103.087.104.061.11.06c.074.039.15.07.229.095.081.004.155.049.236.06l.239.013.245.013.126.007.114.006c.081.004.165-.026.241-.035.32-.055.627-.173.908-.349l.203-.147a.542.542 0 00.075-.098l.093-.084.08-.092a.618.618 0 00.094-.104c.048-.067.09-.138.125-.213l.078.08c-.071.032-.145.06-.219.084l-.236.056-.205.043-.216.037-.216.029-.222.023a1.61 1.61 0 00-.443.017c-.146.034-.295-.015-.44-.023l-.22-.012-.216.023-.216.036-.217.05-.212.071-.215.119z" fill="#CB7A63"/><path d="M169.337 102.792a5.62 5.62 0 01-2.066.301 2.955 2.955 0 00-1.398.308c.147.164.329.284.53.35-.198-.195-.241-.437.278-.485.52-.047 1.351-.01 1.803-.082.451-.071.133.576-1.257.734l.138.008c.39.013.777-.085 1.123-.284.346-.199.639-.492.849-.85z" fill="#CEC0B6" opacity=".4"/></g><path d="M163.204 184.466a1.161 1.161 0 01-.143 1.25c-.515.711-1.717 1.326-3.071 1.897-.169.074-.334.139-.465.205l-.105.051c-.029.014-.055.028-.082.04-1.3.66-.974.983-3.37 2.377-2.731 1.589-4.19 1.213-4.545.894-.3-.269.741-1.23 1.899-2.312l.169-.157c.155-.143.309-.291.462-.436 1.371-1.309 1.343-2.116 1.797-4.518.37-1.961.087-11.477.087-11.477l4.23.463s-.774 7.296.258 8.75c.552.775 1.35 1.012 1.917 1.633l.11.13c.337.363.624.77.852 1.21z" fill="#FFCFAE"/><path d="M163.205 184.466a1.161 1.161 0 01-.143 1.25c-.579.693-1.756 1.31-3.073 1.888-.169.077-.325.146-.463.214l-.105.051c-.029.014-.055.028-.082.04-1.3.66-.974.983-3.37 2.377-2.731 1.589-4.19 1.213-4.545.894-.3-.27.741-1.23 1.899-2.312a9.312 9.312 0 004.542-1.691c1.73-1.256 3.17-3.095 4.38-4.058l.11.13c.337.366.623.775.85 1.217z" fill="#A62E41"/><path d="M133.12 181.501c-.26 1.296-2.105 1.08-4.166.568-2.062-.513-1.572.096-4.506-.23-2.934-.327-3.826-1.42-3.912-1.858-.08-.388 1.37-.524 2.924-.71.196-.021.393-.045.59-.069 1.755-.222 3.041-1.356 4.636-2.289 1.51-.883 3.765-4.479 3.765-4.479l4.022.319s-2.111 3.212-2.927 4.609c-.48.822-.455 1.908-.395 2.748.052.463.042.931-.031 1.391z" fill="#FFCFAE"/><path d="M128.954 182.068c-2.062-.504-1.572.097-4.506-.23-2.934-.326-3.826-1.419-3.912-1.858-.08-.387 1.37-.524 2.924-.709l.016.029a8.25 8.25 0 004.201 1.309c1.984.048 4.099-.522 5.474-.5.051.459.04.923-.031 1.379-.254 1.303-2.105 1.087-4.166.58z" fill="#A62E41"/><path d="M153.132 151.696l2.124 25.723a7.944 7.944 0 002.619.104c1.209-.184 2.661-.891 2.661-.891s1.824-23.041-1.477-28.179c-3.302-5.138-5.927 3.243-5.927 3.243z" fill="url(#paint8_linear)"/><path d="M180.856 145.936s-19.878-7.263-25.435-5.467c-5.557 1.796-25.302 34.2-25.302 34.2s.377.503 1.404.889c.956.359 3.27.336 3.27.336s13.897-13.303 15.69-17.074c1.792-3.772 4.579-8.587 6.372-8.226 3.664 1.276 18.798 6.949 25.489 1.205 4.84-5.031 3.16-7.728 3.16-7.728l-4.648 1.865z" fill="url(#paint9_linear)"/><path d="M182.646 131.56c.751-3.159 1.123-9.43-1.547-14.505-2.423-4.597-6.174-7.997-6.401-7.863.478 3.515-3.321 10.119-4.238 10.057-1.621-.11-1.491-9.748-1.491-9.748s-4.201.371-5.837 3.206c-2.267 3.917-4.099 16.768-6.532 16.595-1.117-.081-11.629-3.67-11.629-3.67s-.608-.377-.249 1.778c0 0 2.567 1.776 7.258 4.15 2.481 1.256 5.477 2.772 6.532 2.529 2.136-.504 3.456-3.362 5.26-6.283l1.749-3.929c2.301 13.058-.213 16.651 1.371 18.027 1.673 1.454 1.335-.365 6.595 1.919 3.448 1.499 6.495 3.454 9.717 3.83 1.691.198 2.138.027 2.549-1.117 1.197-3.323-4.54-8.955-3.107-14.976z" fill="#699DEE"/><path d="M172.37 141.103c5.803-1.359 9.066-2.154 16.091-6.284l-4.493-3.351c-.481.478-10.78 5.415-11.418 6.452-.637 1.038-.18 3.183-.18 3.183z" fill="#4A75CB"/><path d="M185.825 146.201c-.214 1.281-.871 1.61-1.752 1.388-1.162-1.089-2.144-4.632-3.483-7.983-.956-2.394-1.679-1.27-2.302-6.454-.5-4.162 4.134-11.901 4.878-13.584 1.39 5.681.391 4.603 0 8.138-.745 6.741 3.282 14.775 2.659 18.495z" fill="#4A75CB"/><path d="M172.291 138.502l-.168-.482c-.659.23-1.624.104-1.829.117l-2.238.187a1.817 1.817 0 00-1.319.694l-2.875 3.678c.135.411.672.716 1.799-.764l-1.246 1.449c.045.34.382.531 1.317-.509-.269.382-.449.669-.419.71l.002.002c.097.132.465.851 3.2-2.534.215-.135.341-.09-.65 2.359-.003.509.409 1.059 1.864-1.997.708-.056 2.11-.592 2.664-1.333l.469-.421c-.464-1.048-.418-.791-.571-1.156z" fill="#FFCFAE"/><path d="M165.661 141.932c-1.127 1.48-1.664 1.175-1.799.764l2.875-3.678c.32-.409.8-.662 1.319-.694l2.238-.187c.205-.013 1.17.113 1.829-.117l.168.482c.153.365.107.108.571 1.156l-.469.421c-.554.741-1.956 1.277-2.664 1.333-1.455 3.056-1.867 2.506-1.864 1.997.991-2.449.865-2.494.65-2.359-2.735 3.385-3.103 2.666-3.2 2.534l-.002-.002c-.03-.041.15-.328.419-.71m-.071-.94c.191-.25.876-.587 1.101-.948l-1.101.948zm0 0l-1.246 1.449c.045.34.382.531 1.317-.509m0 0c.37-.411 1.365-.755 1.94-1.617-.386.494-1.531 1.036-1.94 1.617z" stroke="#F5C5A5" stroke-width=".2"/><path d="M165.434 124.035c-1.283 3.185-3.732 8.644-5.752 9.504-.997.424-3.355-.061-6.013-.877 1.864.154 3.595-.158 5.251-.618 1.795-.491 1.94-2.825 4.247-6.685 1.497-2.498 2.051-2.027 2.267-1.324z" fill="#4A75CB"/><path d="M169.811 140.791c.164-.438 1.843-.669 2.662-.729-.327.729-2.048 1.154-2.867 1.276l.205-.547z" fill="#F5C5A5"/><path d="M171.83 138.625c-1.275.106-3.824.319-3.983.637 0-.318.669-.637 3.983-.637z" fill="#EEBE9E"/><path d="M174.696 109.033s7.062 1.304 9.209 4.309c2.58 3.603 5.342 13.954 5.216 19.383-.034 1.494-1.159 2.611-2.567 3.11l-14.247 5.047s0-.957-.638-2.872c.638-1.038 11.754-6.284 12.236-6.763.482-.478-2.933-9.284-2.933-10.721 0-1.436-6.276-11.493-6.276-11.493z" fill="#699DEE"/><path d="M55.945 118.8c1.117-1.168 1.027-2.036 1.027-2.036s-15.206-8.69-16.51-9.554c-.889-.588-4.04-9.037-8.492-14.197-2.207-2.556-3.095-3.798-6.223-2.898l-4.422 2.973c-3.11.891-3.274 3.76-.722 5.877 7.183 5.971 12.768 12.678 15.005 14.088 5.554 3.499 18.705 5.747 18.705 5.747s.674 1.002 1.632 0z" fill="#5584C0"/><path d="M66.353 175.805s1.74 2.522 6.547 1.277c0 0 2.668-.561 4.083.329.489.308.238.954-.304 1.155-1.659.615-4.906 1.845-6.007 2.451-1.135.624-2.318 1.607-3.154 2.367a1.555 1.555 0 01-2.256-.174 35.27 35.27 0 01-.89-1.146c-.917-1.243-2.146-4.46-2.146-4.46l4.127-1.799z" fill="#233862"/><path d="M67 175.764s.427 1.362-4.667 2.914c0 0-6.095-6.366-10.803-14.57-2.13-2.971-2.098-2.942-3.033-5.007-3.819-8.413-14.126-21.105-20.68-27.466l11.176-5.297s5.55 10.196 12.537 22.545c5.035 8.898 9.948 18.501 15.47 26.881z" fill="#2B478B"/><g filter="url(#filter12_di)"><path d="M77.38 102.351a21.21 21.21 0 00.385-3.217 1.21 1.21 0 01.794-1.09l5.38-1.958a1.186 1.186 0 00.745-1.417l-1.355-5.07a1.154 1.154 0 00-1.29-.842l-5.21.807a1.185 1.185 0 01-1.24-.648 21.129 21.129 0 00-3.887-5.437 1.198 1.198 0 01-.17-1.461l1.661-2.751a1.203 1.203 0 00-.298-1.576l-4.13-3.157a1.186 1.186 0 00-1.6.146l-3.426 3.768a21.182 21.182 0 00-6.783-1.179 1.17 1.17 0 01-1.095-.772l-1.57-4.345a1.214 1.214 0 00-1.453-.766l-4.972 1.335a1.227 1.227 0 00-.896 1.377l.672 4.36a1.195 1.195 0 01-.618 1.237 21.04 21.04 0 00-4.016 2.764 1.208 1.208 0 01-1.414.12l-4.452-2.696a1.201 1.201 0 00-1.58.3l-3.14 4.12a1.21 1.21 0 00.147 1.628l4.228 3.851a1.187 1.187 0 01.315 1.286 21.084 21.084 0 00-1.141 4.856 1.236 1.236 0 01-.805 1.026l-5.175 1.88a1.178 1.178 0 00-.737 1.413l1.338 5.01a1.23 1.23 0 001.377.899l4.127-.64a1.198 1.198 0 011.294.728 21.127 21.127 0 003.369 5.574 1.222 1.222 0 01.113 1.416l-2.429 4.022a1.239 1.239 0 00.307 1.622l4.103 3.137a1.185 1.185 0 001.603-.146l3.357-3.698a1.226 1.226 0 011.358-.313c1.155.45 2.348.797 3.564 1.037.666.132 1.33.23 1.99.302a1.191 1.191 0 011.007.785l1.594 4.411a1.227 1.227 0 001.463.766l4.983-1.341a1.208 1.208 0 00.883-1.353l-.537-3.478a1.21 1.21 0 01.725-1.293 21.072 21.072 0 006.892-4.652 1.194 1.194 0 011.464-.18l3.604 2.173a1.202 1.202 0 001.576-.3l3.137-4.117a1.218 1.218 0 00-.147-1.639l-4.058-3.693a1.201 1.201 0 01-.344-1.219c.16-.558.297-1.129.413-1.712zm-17.076 6.822c-11.196 2.94-19.231-9.156-12.138-18.389 1.065-1.386 3.323-2.903 5.012-3.36 11.223-3.06 19.33 8.986 12.355 18.242-1.107 1.464-3.457 3.041-5.229 3.507z" fill="url(#paint10_linear)"/></g><path d="M47.89 142.455l.478 16.276c-1.499-3.259-3.517-5.591-4.46-7.66-5.539-7.741-12.986-10.566-19.596-16.938l14.02-9.072s2.51 5.02 9.559 17.394z" fill="#233862"/><path d="M58.592 119.842c-2.169.203-3.243.897-3.243.897l-1.107.009s-1.35 2.244-1.096 2.399c.254.155 2.12.719 2.12.719.053.147 3.814 2.11 4.393 2.086.58-.025 1.001-.228 1.056-.298.31.023.621-.067.872-.252.488-.242.99-.453 1.503-.634l1.434-.596c.984-.52.38-.606.38-.606a3.505 3.505 0 00-.93.103c.896-.263 1.637-.606 1.382-.794-.423-.311-2.024.049-2.024.049s-1.017.292-1.428.249c-.703-.514-1.126-.605-1.606-1.149-.812-.919-1.103-1.023-1.103-1.023s2.588.069 3.402-.768c.517-.721-.639-.515-1.924-.364-.924-.027-2.081-.027-2.081-.027z" fill="#FFCFAE"/><g filter="url(#filter13_f)"><path d="M59.162 123.79c.536.384 2.065 1.213 2.254 1.299.19.085.785-.017 1.309-.209.864-.342 2.426-.94 2.356-1.133-.062-.17.112-.234-.648-.148" stroke="#D3A688" stroke-width=".2" stroke-linecap="round"/></g><g filter="url(#filter14_f)"><path d="M59.878 123.225c.535.383 1.603.914 1.792.999.19.085.785-.017 1.309-.209.864-.342 2.263-.719 2.417-1.05" stroke="#D3A688" stroke-width=".2" stroke-linecap="round"/></g><g filter="url(#filter15_f)"><path d="M62.201 125.072c-.524.191-.948.655-1.596.506-.203-.046-1.656-.744-2.191-1.127" stroke="#D3A688" stroke-width=".2" stroke-linecap="round"/></g><path d="M41.36 181.071s-.115 3.149 4.142 3.618c0 0 2.86.601 2.867 2.84H36.87s-.36-.904-.447-2.84c-.067-1.486 1.438-5.373 1.438-5.373l3.498 1.755z" fill="#233862"/><path d="M34.2 127.991s4.477 5.009 9.154 18.864c2.545 7.538-.244 27.596-1.649 34.182 0 0-2.1 1.139-4.874.752 0 0-1.408-14.34.526-24.822 1.082-5.866-8.544-11.809-13.256-22.409-3.205-7.212-4.104-7.09.688-7.262l9.41.695z" fill="#2B478B"/><path d="M40.636 128.376c0 .763-.882 1.134-1.068 1.171-1.757.322-6.662 2.232-11.08 2.672-3.72.39-2.423.821-5.131.502-.502-.101-1.19-1.752-1.275-2.234-.104-.527-10.722-26.165-2.548-42.286.265-.293 1.747.09 3.786.574 1.72.409 3.026.107 4.657-.574l.797.957c1.433 2.553 2.825 6.557 3.345 10.213.264 1.858.526 3.171.833 4.806.114.604.23 1.196.35 1.771a97.35 97.35 0 00.715 3.225 85.373 85.373 0 002.054 7.2 77.075 77.075 0 002.094 5.518c.834 1.969 1.536 3.436 1.976 4.568.317.789.495 1.418.495 1.917z" fill="#71A0DD"/><path d="M38.491 122.668c-20.512-9.682-19.589-24.806-19.589-24.806s10.294 6.159 14.406 7.764a97.35 97.35 0 00.715 3.225c.665 2.765.115 1.389.804 3.444.733 2.183 1.111 4.066 1.753 5.585.84 1.968 1.472 3.664 1.911 4.788z" fill="#5584C0"/><path d="M53.608 123.036c.655-1.713.955-2.489.955-2.489s-13.393-10.936-14.76-11.875c-.93-.637-5.082-6.605-9.596-12.015-1.1-1.314-2.296-2.573-3.665-4.149-1.224-1.41-1.752-2.712-3.026-3.35-1.801-.268-2.813-.104-4.62.319-1.274 2.872-2.794 7.472-.16 9.733 7.418 6.364 13.557 13.759 15.89 15.297 5.79 3.818 18.599 9.163 18.599 9.163s.082.114.383-.634z" fill="#6B9CDB"/><path d="M20.745 84.787l.147 3.505s3.262 1.186 5.413.761c1.802-.88 1.844-.663 1.844-.663l.064-4.428-3.826-.729-3.642 1.553z" fill="#F9C8A3"/><path d="M20.956 83.627c1.098 2.75 4.506 3.938 7.254 3.048v-2.82c-.916-.365-4.565.804-5.415.296l-1.84-.524z" fill="#EAAB85"/><path d="M20.438 83.984L9.505 71.097l15.629-3.82s8.78 14.632 6.043 16.066c-2.737 1.433-5.784 1.576-5.784 1.576-2.006.069-3.121.057-4.955-.934z" fill="#F9C8A3"/><path d="M31.029 75.72l-1.906 1.158.313-1.028 1.593-.13z" fill="#C69B7D"/><path d="M27.779 72.048c1.213 1.052 1.764 1.734 3.31 2.585a.54.54 0 01.355.472.625.625 0 01-.065.307.594.594 0 01-.222.228c-.878.466-1.251.38-1.728.968-.616.749-.944.048-1.079-.418l-.571-4.142z" fill="#F9C8A3"/><path d="M25.37 71.235a.465.465 0 10-.49-.788l-1.509.987a1.498 1.498 0 00-.546.615c-.165.347.254.677.552.434l.248-.203a.425.425 0 01.052-.036l1.694-1.009z" fill="#202020"/><path d="M31.004 79.105s-.637.478-1.782.192" stroke="#B96665" stroke-width=".64" stroke-linecap="round" stroke-linejoin="round"/><path d="M21.143 78.746c-.893-.582-1.601-.104-1.592.477.01.581 1.793 1.277 2.23.818.352-.366-.102-.946-.638-1.295z" fill="#EAAB85"/><path d="M21.612 79.244c-.614-.573-1.1-.329-1.093.117.006.446 1.232 1.24 1.538.954.25-.231-.084-.719-.445-1.07z" fill="#F9C8A3"/><path d="M28.15 87.352c-1.695.087-5.46.112-6.909-1.22a.781.781 0 00-.51-.213c-.188-.006-.355.24-.534.576-.739 1.383-.72 2.003-1.275 2.991 2.927-.887 6.995-.054 6.995-.054.787.206 2.26.31 3.495 1.163-.436-1.49-.496-.941-.537-2.492a.807.807 0 00-.047-.29.776.776 0 00-.16-.248.717.717 0 00-.518-.213z" fill="#D2DFF9"/><path d="M20.52 87.883c-1.375 1.02-1.447-.955-1.447-.955s-4.745-1.417-6.533-2.648c-1.788-1.231-5.537-5.88-5.37-7.149.092-.813-5.083-5.644 4.462-13.569 0 0 4.177-.252 6.094-1.466 1.916-1.215 5.915-3.535 5.915-3.535s5.27.917 1.672 8.981c0 0-8.334 1.665-4.694 7.573.302.476 1.56 2.052 1.277 2.43-.138.184-.739-.33-1.813-.608-2.46-.6-3.786 2.4.785 4.36.822.357 1.298.011 1.8.145 0 0 2.633 2.896-2.147 6.441z" fill="#202020"/><path d="M24.233 73.339c.261-.282.38-.313.845-.592.224-.107.456-.19.69-.245 0 0 .672.1.755.116.146.03.166.153.028.258-.139.104-.322.165-.435.26-.886.697-1.064.867-1.706 1.02a3.714 3.714 0 01-.758.12c.125-.334.323-.653.58-.937z" fill="#fff"/><path d="M25.209 72.884c.313-.194.674-.147.808.105a.44.44 0 01.049.243 6.207 6.207 0 01-.875.674.425.425 0 01-.306-.215c-.134-.252.011-.613.324-.807z" fill="#28160D" stroke="#1C1105" stroke-width=".2" stroke-miterlimit="10"/><path d="M25.598 73.615c-.18.112-.389.085-.466-.06-.077-.147.006-.356.187-.468.18-.112.39-.085.466.06.078.146-.006.356-.187.468z" fill="#000"/><path opacity=".77" d="M25.188 73.43c-.09.055-.195.042-.233-.031-.04-.073.003-.178.093-.234.09-.056.195-.043.233.03.039.073-.003.178-.093.234z" fill="#fff"/><path d="M26.602 72.69l-.818-.159a.475.475 0 00-.235.02l-.253.087a1.594 1.594 0 00-.368.185l-.56.383a1.115 1.115 0 00-.29.286l-.438.649-.19.124.336-.74c.09-.132.208-.25.346-.344l.56-.382c.131-.09.274-.162.423-.212l.251-.087a1.52 1.52 0 01.483-.122l.976.206-.223.105z" fill="#D3A688"/><path opacity=".5" d="M26.675 72.69l-.817-.158a.555.555 0 00-.28.023l-.25.086c-.143.05-.28.118-.406.205l-.56.381a1.175 1.175 0 00-.317.314l-.429.64" stroke="#0A0001" stroke-width=".3" stroke-miterlimit="10"/><path d="M26.66 72.907l-.239.139a2.65 2.65 0 00-.355.246c-.256.214-.794.686-1.422.868a8.091 8.091 0 01-.371.057l-.372.057" stroke="#472A22" stroke-width=".2" stroke-miterlimit="10"/><path d="M173.971 144.063h-20.293v-1.489h20.293a.747.747 0 01.744.745.747.747 0 01-.744.744z" fill="#fff"/><path d="M168.424 144.063h-19.606a1.897 1.897 0 01-1.153-.4 1.897 1.897 0 01-.674-1.018l-3.453-13.023a1.9 1.9 0 01.331-1.653 1.899 1.899 0 011.513-.744h17.084a1.904 1.904 0 011.845 1.421l4.113 15.417z" fill="#fff"/><path d="M145.382 127.229a1.9 1.9 0 00-1.87 1.529 1.91 1.91 0 00.025.864l3.453 13.023c.105.389.33.735.642.989l11.88-16.405h-14.13z" fill="url(#paint11_linear)"/><path d="M156.878 136.798a1.174 1.174 0 01-.634 1.439 1.184 1.184 0 01-.56.099 2.134 2.134 0 01-1.965-1.538 1.18 1.18 0 01.19-1.085 1.177 1.177 0 011.004-.452 2.131 2.131 0 011.965 1.537z" fill="#0A3D76"/><g clip-path="url(#clip2)" filter="url(#filter16_di)"><path d="M166.872 8.569c.505 0 .961-.303 1.156-.77a5.33 5.33 0 014.91-3.277c1.218 0 2.334.418 3.229 1.11l-.702.11a.547.547 0 00-.14 1.04l3.857 1.739a.548.548 0 00.772-.498l.02-4.256a.547.547 0 00-1.002-.306l-.532.8A7.816 7.816 0 00172.938 2c-3.248 0-6.04 1.986-7.231 4.808a1.27 1.27 0 001.165 1.76z" fill="url(#paint12_linear)"/><path d="M180.058 11.715a1.264 1.264 0 00-1.054-.567c-.505 0-.961.303-1.156.77a5.33 5.33 0 01-4.91 3.277 5.252 5.252 0 01-3.229-1.111l.701-.109a.548.548 0 00.141-1.041l-3.858-1.738a.546.546 0 00-.772.497l-.02 4.256a.549.549 0 001.003.307l.532-.8a7.814 7.814 0 005.502 2.26c3.247 0 6.039-1.985 7.23-4.808.166-.39.124-.839-.11-1.193z" fill="url(#paint13_linear)"/></g><defs><filter id="filter0_d" x=".009" y="127.266" width="337.991" height="110.733" filterUnits="userSpaceOnUse" color-interpolation-filters="sRGB"><feFlood flood-opacity="0" result="BackgroundImageFix"/><feColorMatrix in="SourceAlpha" values="0 0 0 0 0 0 0 0 0 0 0 0 0 0 0 0 0 0 127 0"/><feOffset dx="2" dy="2"/><feGaussianBlur stdDeviation="2"/><feColorMatrix values="0 0 0 0 0 0 0 0 0 0 0 0 0 0 0 0 0 0 0.2 0"/><feBlend in2="BackgroundImageFix" result="effect1_dropShadow"/><feBlend in="SourceGraphic" in2="effect1_dropShadow" result="shape"/></filter><filter id="filter1_di" x="25.658" y="12.65" width="43.22" height="43.267" filterUnits="userSpaceOnUse" color-interpolation-filters="sRGB"><feFlood flood-opacity="0" result="BackgroundImageFix"/><feColorMatrix in="SourceAlpha" values="0 0 0 0 0 0 0 0 0 0 0 0 0 0 0 0 0 0 127 0"/><feOffset dx="2" dy="2"/><feGaussianBlur stdDeviation="2"/><feColorMatrix values="0 0 0 0 0 0 0 0 0 0 0 0 0 0 0 0 0 0 0.15 0"/><feBlend in2="BackgroundImageFix" result="effect1_dropShadow"/><feBlend in="SourceGraphic" in2="effect1_dropShadow" result="shape"/><feColorMatrix in="SourceAlpha" values="0 0 0 0 0 0 0 0 0 0 0 0 0 0 0 0 0 0 127 0" result="hardAlpha"/><feOffset dx="-2" dy="-2"/><feGaussianBlur stdDeviation="2"/><feComposite in2="hardAlpha" operator="arithmetic" k2="-1" k3="1"/><feColorMatrix values="0 0 0 0 0 0 0 0 0 0 0 0 0 0 0 0 0 0 0.2 0"/><feBlend in2="shape" result="effect2_innerShadow"/></filter><filter id="filter2_di" x="266.835" y="31.816" width="39.009" height="39.05" filterUnits="userSpaceOnUse" color-interpolation-filters="sRGB"><feFlood flood-opacity="0" result="BackgroundImageFix"/><feColorMatrix in="SourceAlpha" values="0 0 0 0 0 0 0 0 0 0 0 0 0 0 0 0 0 0 127 0"/><feOffset dx="2" dy="2"/><feGaussianBlur stdDeviation="2"/><feColorMatrix values="0 0 0 0 0 0 0 0 0 0 0 0 0 0 0 0 0 0 0.15 0"/><feBlend in2="BackgroundImageFix" result="effect1_dropShadow"/><feBlend in="SourceGraphic" in2="effect1_dropShadow" result="shape"/><feColorMatrix in="SourceAlpha" values="0 0 0 0 0 0 0 0 0 0 0 0 0 0 0 0 0 0 127 0" result="hardAlpha"/><feOffset dx="-2" dy="-2"/><feGaussianBlur stdDeviation="2"/><feComposite in2="hardAlpha" operator="arithmetic" k2="-1" k3="1"/><feColorMatrix values="0 0 0 0 0 0 0 0 0 0 0 0 0 0 0 0 0 0 0.2 0"/><feBlend in2="shape" result="effect2_innerShadow"/></filter><filter id="filter3_f" x="50.99" y="150.987" width="105.637" height="45.489" filterUnits="userSpaceOnUse" color-interpolation-filters="sRGB"><feFlood flood-opacity="0" result="BackgroundImageFix"/><feBlend in="SourceGraphic" in2="BackgroundImageFix" result="shape"/><feGaussianBlur stdDeviation="1" result="effect1_foregroundBlur"/></filter><filter id="filter4_f" x="151.351" y="179.71" width="64.695" height="25.542" filterUnits="userSpaceOnUse" color-interpolation-filters="sRGB"><feFlood flood-opacity="0" result="BackgroundImageFix"/><feBlend in="SourceGraphic" in2="BackgroundImageFix" result="shape"/><feGaussianBlur stdDeviation="1" result="effect1_foregroundBlur"/></filter><filter id="filter5_f" x="198.665" y="169.178" width="57.049" height="29.851" filterUnits="userSpaceOnUse" color-interpolation-filters="sRGB"><feFlood flood-opacity="0" result="BackgroundImageFix"/><feBlend in="SourceGraphic" in2="BackgroundImageFix" result="shape"/><feGaussianBlur stdDeviation="1" result="effect1_foregroundBlur"/></filter><filter id="filter6_di" x="81.576" y="27" width="188.406" height="182.734" filterUnits="userSpaceOnUse" color-interpolation-filters="sRGB"><feFlood flood-opacity="0" result="BackgroundImageFix"/><feColorMatrix in="SourceAlpha" values="0 0 0 0 0 0 0 0 0 0 0 0 0 0 0 0 0 0 127 0"/><feOffset dx="2" dy="2"/><feGaussianBlur stdDeviation="2"/><feColorMatrix values="0 0 0 0 0 0 0 0 0 0 0 0 0 0 0 0 0 0 0.15 0"/><feBlend in2="BackgroundImageFix" result="effect1_dropShadow"/><feBlend in="SourceGraphic" in2="effect1_dropShadow" result="shape"/><feColorMatrix in="SourceAlpha" values="0 0 0 0 0 0 0 0 0 0 0 0 0 0 0 0 0 0 127 0" result="hardAlpha"/><feOffset dx="-2" dy="-2"/><feGaussianBlur stdDeviation="2"/><feComposite in2="hardAlpha" operator="arithmetic" k2="-1" k3="1"/><feColorMatrix values="0 0 0 0 0 0 0 0 0 0 0 0 0 0 0 0 0 0 0.2 0"/><feBlend in2="shape" result="effect2_innerShadow"/></filter><filter id="filter7_di" x="222.427" y="156.4" width="48.197" height="47.1" filterUnits="userSpaceOnUse" color-interpolation-filters="sRGB"><feFlood flood-opacity="0" result="BackgroundImageFix"/><feColorMatrix in="SourceAlpha" values="0 0 0 0 0 0 0 0 0 0 0 0 0 0 0 0 0 0 127 0"/><feOffset dx="2" dy="2"/><feGaussianBlur stdDeviation="2"/><feColorMatrix values="0 0 0 0 0 0 0 0 0 0 0 0 0 0 0 0 0 0 0.15 0"/><feBlend in2="BackgroundImageFix" result="effect1_dropShadow"/><feBlend in="SourceGraphic" in2="effect1_dropShadow" result="shape"/><feColorMatrix in="SourceAlpha" values="0 0 0 0 0 0 0 0 0 0 0 0 0 0 0 0 0 0 127 0" result="hardAlpha"/><feOffset dx="-2" dy="-2"/><feGaussianBlur stdDeviation="2"/><feComposite in2="hardAlpha" operator="arithmetic" k2="-1" k3="1"/><feColorMatrix values="0 0 0 0 0 0 0 0 0 0 0 0 0 0 0 0 0 0 0.2 0"/><feBlend in2="shape" result="effect2_innerShadow"/></filter><filter id="filter8_f" x="147.847" y="146.2" width="16.585" height="46.925" filterUnits="userSpaceOnUse" color-interpolation-filters="sRGB"><feFlood flood-opacity="0" result="BackgroundImageFix"/><feBlend in="SourceGraphic" in2="BackgroundImageFix" result="shape"/><feGaussianBlur stdDeviation="1" result="effect1_foregroundBlur"/></filter><filter id="filter9_f" x="127.614" y="142.53" width="29.648" height="40.702" filterUnits="userSpaceOnUse" color-interpolation-filters="sRGB"><feFlood flood-opacity="0" result="BackgroundImageFix"/><feBlend in="SourceGraphic" in2="BackgroundImageFix" result="shape"/><feGaussianBlur stdDeviation="1" result="effect1_foregroundBlur"/></filter><filter id="filter10_f" x="201.95" y="175.699" width="93.969" height="54.468" filterUnits="userSpaceOnUse" color-interpolation-filters="sRGB"><feFlood flood-opacity="0" result="BackgroundImageFix"/><feBlend in="SourceGraphic" in2="BackgroundImageFix" result="shape"/><feGaussianBlur stdDeviation="12.5" result="effect1_foregroundBlur"/></filter><filter id="filter11_f" x="21.04" y="170.933" width="50.677" height="18.521" filterUnits="userSpaceOnUse" color-interpolation-filters="sRGB"><feFlood flood-opacity="0" result="BackgroundImageFix"/><feBlend in="SourceGraphic" in2="BackgroundImageFix" result="shape"/><feGaussianBlur stdDeviation="1" result="effect1_foregroundBlur"/></filter><filter id="filter12_di" x="27.213" y="69.346" width="63.508" height="61.85" filterUnits="userSpaceOnUse" color-interpolation-filters="sRGB"><feFlood flood-opacity="0" result="BackgroundImageFix"/><feColorMatrix in="SourceAlpha" values="0 0 0 0 0 0 0 0 0 0 0 0 0 0 0 0 0 0 127 0"/><feOffset dx="2" dy="2"/><feGaussianBlur stdDeviation="2"/><feColorMatrix values="0 0 0 0 0 0 0 0 0 0 0 0 0 0 0 0 0 0 0.15 0"/><feBlend in2="BackgroundImageFix" result="effect1_dropShadow"/><feBlend in="SourceGraphic" in2="effect1_dropShadow" result="shape"/><feColorMatrix in="SourceAlpha" values="0 0 0 0 0 0 0 0 0 0 0 0 0 0 0 0 0 0 127 0" result="hardAlpha"/><feOffset dx="-2" dy="-2"/><feGaussianBlur stdDeviation="2"/><feComposite in2="hardAlpha" operator="arithmetic" k2="-1" k3="1"/><feColorMatrix values="0 0 0 0 0 0 0 0 0 0 0 0 0 0 0 0 0 0 0.2 0"/><feBlend in2="shape" result="effect2_innerShadow"/></filter><filter id="filter13_f" x="58.862" y="123.261" width="6.521" height="2.158" filterUnits="userSpaceOnUse" color-interpolation-filters="sRGB"><feFlood flood-opacity="0" result="BackgroundImageFix"/><feBlend in="SourceGraphic" in2="BackgroundImageFix" result="shape"/><feGaussianBlur stdDeviation=".1" result="effect1_foregroundBlur"/></filter><filter id="filter14_f" x="59.578" y="122.665" width="6.118" height="1.89" filterUnits="userSpaceOnUse" color-interpolation-filters="sRGB"><feFlood flood-opacity="0" result="BackgroundImageFix"/><feBlend in="SourceGraphic" in2="BackgroundImageFix" result="shape"/><feGaussianBlur stdDeviation=".1" result="effect1_foregroundBlur"/></filter><filter id="filter15_f" x="58.114" y="124.151" width="4.387" height="1.757" filterUnits="userSpaceOnUse" color-interpolation-filters="sRGB"><feFlood flood-opacity="0" result="BackgroundImageFix"/><feBlend in="SourceGraphic" in2="BackgroundImageFix" result="shape"/><feGaussianBlur stdDeviation=".1" result="effect1_foregroundBlur"/></filter><filter id="filter16_di" x="163.09" y="0" width="23.696" height="23.717" filterUnits="userSpaceOnUse" color-interpolation-filters="sRGB"><feFlood flood-opacity="0" result="BackgroundImageFix"/><feColorMatrix in="SourceAlpha" values="0 0 0 0 0 0 0 0 0 0 0 0 0 0 0 0 0 0 127 0"/><feOffset dx="2" dy="2"/><feGaussianBlur stdDeviation="2"/><feColorMatrix values="0 0 0 0 0 0 0 0 0 0 0 0 0 0 0 0 0 0 0.15 0"/><feBlend in2="BackgroundImageFix" result="effect1_dropShadow"/><feBlend in="SourceGraphic" in2="effect1_dropShadow" result="shape"/><feColorMatrix in="SourceAlpha" values="0 0 0 0 0 0 0 0 0 0 0 0 0 0 0 0 0 0 127 0" result="hardAlpha"/><feOffset dx="-2" dy="-2"/><feGaussianBlur stdDeviation="2"/><feComposite in2="hardAlpha" operator="arithmetic" k2="-1" k3="1"/><feColorMatrix values="0 0 0 0 0 0 0 0 0 0 0 0 0 0 0 0 0 0 0.2 0"/><feBlend in2="shape" result="effect2_innerShadow"/></filter><linearGradient id="paint0_linear" x1="61.793" y1="32.283" x2="28.7" y2="31.574" gradientUnits="userSpaceOnUse"><stop stop-color="#A62E41"/><stop offset="1" stop-color="#E13152"/></linearGradient><linearGradient id="paint1_linear" x1="82.302" y1="150.115" x2="136.444" y2="192.353" gradientUnits="userSpaceOnUse"><stop stop-color="#B4D1FA" stop-opacity="0"/><stop offset="1" stop-opacity=".2"/></linearGradient><linearGradient id="paint2_linear" x1="151.12" y1="159.211" x2="205.261" y2="201.45" gradientUnits="userSpaceOnUse"><stop stop-color="#B4D1FA" stop-opacity="0"/><stop offset="1" stop-opacity=".2"/></linearGradient><linearGradient id="paint3_linear" x1="185.69" y1="162.721" x2="253.933" y2="207.049" gradientUnits="userSpaceOnUse"><stop stop-color="#B4D1FA" stop-opacity="0"/><stop offset="1" stop-opacity=".2"/></linearGradient><linearGradient id="paint4_linear" x1="173.779" y1="29" x2="173.779" y2="203.735" gradientUnits="userSpaceOnUse"><stop stop-color="#AFCDFB"/><stop offset="1" stop-color="#5E89CA"/></linearGradient><linearGradient id="paint5_linear" x1="94.407" y1="152.349" x2="162.65" y2="196.678" gradientUnits="userSpaceOnUse"><stop stop-color="#B4D1FA" stop-opacity="0"/><stop offset="1" stop-opacity=".2"/></linearGradient><linearGradient id="paint6_linear" x1="130.41" y1="127.456" x2="146.966" y2="164.415" gradientUnits="userSpaceOnUse"><stop stop-color="#B4D1FA" stop-opacity="0"/><stop offset="1" stop-opacity=".2"/></linearGradient><linearGradient id="paint7_linear" x1="30.049" y1="161.125" x2="50.962" y2="192.165" gradientUnits="userSpaceOnUse"><stop stop-color="#B4D1FA" stop-opacity="0"/><stop offset="1" stop-opacity=".2"/></linearGradient><linearGradient id="paint8_linear" x1="157.174" y1="147.584" x2="165.784" y2="202.039" gradientUnits="userSpaceOnUse"><stop stop-color="#A62E41"/><stop offset="1" stop-color="#E13152"/></linearGradient><linearGradient id="paint9_linear" x1="184.07" y1="158.039" x2="131.8" y2="156.29" gradientUnits="userSpaceOnUse"><stop stop-color="#A62E41"/><stop offset="1" stop-color="#E13152"/></linearGradient><linearGradient id="paint10_linear" x1="82.536" y1="100.606" x2="31.274" y2="94.98" gradientUnits="userSpaceOnUse"><stop stop-color="#A62E41"/><stop offset="1" stop-color="#E13152"/></linearGradient><linearGradient id="paint11_linear" x1="154.782" y1="134.009" x2="132.454" y2="134.468" gradientUnits="userSpaceOnUse"><stop stop-color="#71A0DD" stop-opacity="0"/><stop offset="1" stop-color="#71A0DD" stop-opacity=".5"/></linearGradient><linearGradient id="paint12_linear" x1="179.532" y1="5.284" x2="166.056" y2="4.652" gradientUnits="userSpaceOnUse"><stop stop-color="#A62E41"/><stop offset="1" stop-color="#E13152"/></linearGradient><linearGradient id="paint13_linear" x1="179.825" y1="14.432" x2="166.35" y2="13.799" gradientUnits="userSpaceOnUse"><stop stop-color="#A62E41"/><stop offset="1" stop-color="#E13152"/></linearGradient><clipPath id="clip0"><path fill="#fff" transform="rotate(2.498 -2690.713 3229.914)" d="M0 0h10.035v10.051H0z"/></clipPath><clipPath id="clip1"><path fill="#fff" transform="matrix(.99846 .05318 -.05302 .99872 165.17 102.16)" d="M0 0h4.606v2.516H0z"/></clipPath><clipPath id="clip2"><path fill="#fff" transform="translate(165.09 2)" d="M0 0h15.696v15.717H0z"/></clipPath></defs></svg>