<svg width="100" height="100" fill="none" xmlns="http://www.w3.org/2000/svg"><g filter="url(#filter0_di)"><path d="M90.945 64.485a46 46 0 01-48.232 29.21l1.766-15.262A30.635 30.635 0 0076.6 58.979l14.344 5.506z" fill="#71A0DD"/><path d="M25 8.163a46 46 0 0167.037 53.132l-14.709-4.44a30.636 30.636 0 00-44.646-35.387L25 8.163z" fill="#0A3D76"/><path d="M38.436 92.995A46 46 0 0111.95 76.573l12.04-9.543a30.636 30.636 0 0017.64 10.936l-3.194 15.029z" fill="#F985A0"/><path d="M8.99 72.376a46 46 0 0112.232-61.779l8.944 12.493a30.636 30.636 0 00-8.147 41.145L8.99 72.376z" fill="url(#paint0_linear)"/></g><defs><linearGradient id="paint0_linear" x1="91.164" y1="48" x2="4.722" y2="46.144" gradientUnits="userSpaceOnUse"><stop stop-color="#A62E41"/><stop offset="1" stop-color="#E13152"/></linearGradient><filter id="filter0_di" x="0" y="0" width="100" height="100" filterUnits="userSpaceOnUse" color-interpolation-filters="sRGB"><feFlood flood-opacity="0" result="BackgroundImageFix"/><feColorMatrix in="SourceAlpha" values="0 0 0 0 0 0 0 0 0 0 0 0 0 0 0 0 0 0 127 0"/><feOffset dx="2" dy="2"/><feGaussianBlur stdDeviation="2"/><feColorMatrix values="0 0 0 0 0 0 0 0 0 0 0 0 0 0 0 0 0 0 0.15 0"/><feBlend in2="BackgroundImageFix" result="effect1_dropShadow"/><feBlend in="SourceGraphic" in2="effect1_dropShadow" result="shape"/><feColorMatrix in="SourceAlpha" values="0 0 0 0 0 0 0 0 0 0 0 0 0 0 0 0 0 0 127 0" result="hardAlpha"/><feOffset dx="-2" dy="-2"/><feGaussianBlur stdDeviation="2"/><feComposite in2="hardAlpha" operator="arithmetic" k2="-1" k3="1"/><feColorMatrix values="0 0 0 0 0 0 0 0 0 0 0 0 0 0 0 0 0 0 0.2 0"/><feBlend in2="shape" result="effect2_innerShadow"/></filter></defs></svg>