<svg width="338" height="238" viewBox="0 0 338 238" fill="none" xmlns="http://www.w3.org/2000/svg">
<g filter="url(#filter0_d)">
<path d="M170.88 232L2.00879 179.09L160.557 129.266L332 179.09L170.88 232Z" fill="#F1F5FB"/>
</g>
<g filter="url(#filter1_di)">
<path d="M61.7089 38.6025C60.3083 42.2559 57.7338 45.339 54.3909 47.3662C51.048 49.3934 47.1266 50.2495 43.2443 49.7998L43.9204 43.9492C46.506 44.2488 49.1176 43.6786 51.344 42.3285C53.5704 40.9784 55.285 38.925 56.2178 36.4919L61.7089 38.6025Z" fill="#71A0DD"/>
<path d="M36.4633 17.0123C39.5204 15.245 43.0375 14.4384 46.5581 14.6973C50.0787 14.9561 53.4404 16.2685 56.2069 18.4641C58.9734 20.6597 61.0171 23.6372 62.0727 27.0102C63.1284 30.3832 63.1473 33.996 62.1269 37.3799L56.4962 35.6776C57.1757 33.4239 57.1631 31.0178 56.4601 28.7714C55.757 26.525 54.3959 24.542 52.5534 23.0797C50.7109 21.6174 48.4721 20.7434 46.1273 20.571C43.7826 20.3986 41.4403 20.9357 39.4042 22.1128L36.4633 17.0123Z" fill="#0A3D76"/>
<path d="M41.607 49.5313C37.5986 48.6782 34.0128 46.4519 31.4674 43.2362L36.0769 39.5779C37.7722 41.7196 40.1603 43.2023 42.8299 43.7704L41.607 49.5313Z" fill="#F985A0"/>
<path d="M30.3341 41.6275C27.9605 37.824 27.1236 33.2578 27.9936 28.8583C28.8636 24.4587 31.3751 20.5564 35.0171 17.9456L38.441 22.7344C36.0155 24.4732 34.3428 27.0721 33.7634 30.0022C33.184 32.9323 33.7414 35.9734 35.3222 38.5065L30.3341 41.6275Z" fill="url(#paint0_linear)"/>
</g>
<g filter="url(#filter2_di)">
<path d="M298.814 54.9051C297.76 57.6555 295.946 60.0487 293.584 61.8052L284.34 49.3414L298.814 54.9051Z" fill="#71A0DD"/>
<path d="M273 38.7534C275.461 36.1112 278.765 34.411 282.343 33.9457C285.921 33.4804 289.549 34.2791 292.602 36.2043C295.655 38.1294 297.942 41.0604 299.069 44.4924C300.195 47.9244 300.092 51.6425 298.775 55.0061L284.34 49.3414L273 38.7534Z" fill="#0A3D76"/>
<path d="M293.67 61.7403C292.044 62.9672 290.193 63.8615 288.222 64.3719C286.25 64.8824 284.198 64.9991 282.182 64.7154L284.34 49.3414L293.67 61.7403Z" fill="#71A0DD"/>
<path d="M282.286 64.7296C279.436 64.3483 276.749 63.1813 274.524 61.3589C272.298 59.5365 270.623 57.1304 269.684 54.4096C268.746 51.6887 268.581 48.7602 269.209 45.9511C269.837 43.142 271.232 40.563 273.24 38.5021L284.34 49.3414L282.286 64.7296Z" fill="#B4D1FA"/>
</g>
<g filter="url(#filter3_f)">
<path d="M125.952 194.476L154.627 186.816L114.164 152.987L52.9902 170.54L125.952 194.476Z" fill="url(#paint1_linear)"/>
</g>
<g filter="url(#filter4_f)">
<path d="M195.248 203.253L214.046 193.2L178.202 181.71L153.351 189.37L195.248 203.253Z" fill="url(#paint2_linear)"/>
</g>
<g filter="url(#filter5_f)">
<path d="M200.665 179.635L236.031 195.433L249.412 197.029L253.714 195.433L213.25 171.178L200.665 179.635Z" fill="url(#paint3_linear)"/>
</g>
<path d="M233.514 59.8319C240.57 59.8319 244.602 55.9439 246.906 51.9599L241.05 49.1279C239.706 51.7679 236.826 53.7839 233.514 53.7839C227.706 53.7839 223.482 49.3199 223.482 43.2719C223.482 37.2239 227.706 32.7599 233.514 32.7599C236.826 32.7599 239.706 34.8239 241.05 37.4159L246.906 34.5359C244.65 30.5519 240.57 26.7119 233.514 26.7119C223.914 26.7119 216.474 33.4319 216.474 43.2719C216.474 53.1119 223.914 59.8319 233.514 59.8319ZM243.93 131.256L236.73 119.064C240.186 118.248 243.738 115.224 243.738 109.56C243.738 103.608 239.658 99.2399 232.986 99.2399H218.01V131.256H224.826V119.88H229.818L236.106 131.256H243.93ZM231.978 113.88H224.826V105.24H231.978C234.714 105.24 236.778 106.872 236.778 109.56C236.778 112.248 234.714 113.88 231.978 113.88ZM252.714 203.256V171.24H243.114L235.338 190.584L227.562 171.24H218.01V203.256H224.826V180.84L233.85 203.256H236.826L245.85 180.84V203.256H252.714Z" fill="#EBF2F9"/>
<g filter="url(#filter6_di)">
<path d="M261.952 135.025L246.143 125.484C245.501 125.088 244.981 124.523 244.64 123.85C244.299 123.178 244.15 122.423 244.21 121.671C244.372 119.714 244.452 117.737 244.451 115.739C244.463 112.098 244.187 108.462 243.625 104.865C243.492 104.063 243.603 103.239 243.945 102.501C244.286 101.763 244.842 101.145 245.539 100.729L262.053 90.7416C262.911 90.2269 263.543 89.4069 263.823 88.4455C264.103 87.4842 264.01 86.4524 263.563 85.5564L255.79 69.6999C255.365 68.8363 254.637 68.1598 253.745 67.7988C252.854 67.4379 251.861 67.4179 250.956 67.7425L234.261 73.8162C232.65 74.4422 230.817 73.8971 229.727 72.4848C225.111 66.5098 219.579 61.3059 213.336 57.0668C212.601 56.5567 212.053 55.8173 211.78 54.9636C211.507 54.1099 211.522 53.1896 211.825 52.3458L215.531 42.1769C215.864 41.2345 215.844 40.2029 215.473 39.2746C215.103 38.3463 214.408 37.5848 213.518 37.1323L197.79 29.4261C197.478 29.2634 197.144 29.1477 196.799 29.0826C195.994 28.9156 195.158 29.0047 194.406 29.3377C193.655 29.6706 193.027 30.2306 192.609 30.9392L185.482 42.7603L183.749 45.646C180.454 45.1746 177.13 44.9374 173.801 44.9363C169.355 44.9339 164.919 45.3458 160.549 46.167C159.756 46.3231 158.934 46.2307 158.196 45.9023C157.457 45.5739 156.837 45.0255 156.42 44.3316L148.405 30.9889C147.876 30.1159 147.04 29.4731 146.061 29.1872C145.082 28.9014 144.032 28.9932 143.117 29.4446L131.013 35.3963L127.549 37.111C126.633 37.5586 125.914 38.3296 125.531 39.2757C125.149 40.2218 125.128 41.2763 125.474 42.2366L130.53 56.218C130.828 56.9965 130.871 57.8497 130.654 58.6545C130.437 59.4594 129.97 60.1743 129.321 60.6964C125.395 63.8958 121.824 67.5082 118.668 71.4713C118.382 71.7882 118.113 72.1199 117.861 72.4649C117.778 72.5814 117.683 72.6893 117.578 72.7871C117.033 73.3668 116.33 73.772 115.556 73.9516C114.782 74.1312 113.972 74.0772 113.228 73.7964L96.7286 67.7992C96.5456 67.7262 96.3557 67.672 96.1618 67.6374C95.2843 67.4635 94.374 67.5824 93.5703 67.9759C92.7666 68.3694 92.1137 69.0158 91.7114 69.8162L84.0177 85.5124C83.5698 86.4284 83.4805 87.4792 83.7674 88.4578C84.0543 89.4364 84.6966 90.272 85.5678 90.7998L102.062 100.746C102.747 101.153 103.292 101.758 103.627 102.482C103.961 103.206 104.069 104.015 103.935 104.801C103.384 108.418 103.107 112.072 103.109 115.731C103.109 117.708 103.19 119.665 103.351 121.602C103.413 122.372 103.259 123.145 102.907 123.833C102.555 124.521 102.018 125.097 101.358 125.497L85.4885 135.1C84.6412 135.614 84.0164 136.427 83.7369 137.379C83.4574 138.331 83.5435 139.353 83.9781 140.245L91.6916 155.921C92.14 156.842 92.913 157.564 93.8615 157.948C94.8099 158.331 95.8667 158.35 96.8278 157.999L110.039 153.197C110.894 152.884 111.829 152.868 112.695 153.151C113.56 153.434 114.306 154 114.812 154.758C118.866 160.904 123.846 166.383 129.575 171C130.245 171.529 130.73 172.257 130.962 173.08C131.193 173.903 131.158 174.778 130.863 175.58L125.466 190.47C125.12 191.436 125.14 192.495 125.522 193.447C125.904 194.399 126.623 195.177 127.54 195.634L143.148 203.322C144.048 203.766 145.082 203.856 146.045 203.572C147.008 203.288 147.828 202.651 148.344 201.789L148.769 201.102L157.045 187.363C157.474 186.647 158.111 186.08 158.871 185.737C159.63 185.394 160.477 185.293 161.296 185.445H161.316C165.437 186.185 169.616 186.556 173.803 186.555C176.078 186.555 178.313 186.434 180.548 186.233C181.305 186.153 182.069 186.291 182.75 186.63C183.431 186.97 184.002 187.497 184.395 188.149L192.531 201.688C193.066 202.581 193.916 203.241 194.913 203.536C195.91 203.831 196.982 203.74 197.915 203.28L213.501 195.594C213.927 195.374 214.315 195.086 214.65 194.742C215.166 194.191 215.522 193.508 215.678 192.768C215.834 192.028 215.785 191.259 215.535 190.545L211.468 179.388C211.233 178.718 211.174 177.998 211.299 177.298C211.423 176.598 211.725 175.943 212.176 175.394C212.425 175.103 212.711 174.845 213.026 174.628C220.874 169.381 227.598 162.618 232.803 154.734C233.232 154.082 233.842 153.57 234.558 153.262C235.273 152.953 236.064 152.862 236.831 152.998C237.057 153.04 237.28 153.101 237.496 153.18L250.848 158.043C251.786 158.382 252.815 158.364 253.74 157.992C254.665 157.62 255.42 156.919 255.863 156.024L256.044 155.661L263.554 140.368C264 139.438 264.084 138.374 263.787 137.386C263.491 136.397 262.837 135.555 261.952 135.025ZM137.148 104.862C137.95 102.018 139.015 99.2552 140.33 96.6096C142.949 91.3435 149.412 84.8282 154.69 82.225C155.257 81.9411 155.824 81.6799 156.382 81.4173C190.9 65.8816 224.191 99.8374 207.455 134.439C205.26 138.959 200.406 144.266 195.674 147.553C194.648 148.264 193.571 148.899 192.452 149.451C187.634 151.79 182.845 153.163 178.172 153.688C151.548 156.653 129.636 132.14 137.148 104.862Z" fill="url(#paint4_linear)"/>
</g>
<g filter="url(#filter7_di)">
<path d="M264.17 182.125L260.647 179.99C260.505 179.901 260.39 179.773 260.315 179.623C260.241 179.472 260.208 179.304 260.222 179.136C260.259 178.698 260.277 178.255 260.277 177.808C260.279 176.995 260.216 176.183 260.09 175.38C260.061 175.2 260.085 175.016 260.161 174.851C260.237 174.686 260.36 174.548 260.515 174.454L264.194 172.22C264.385 172.105 264.526 171.921 264.589 171.706C264.651 171.491 264.63 171.26 264.531 171.06L262.799 167.51C262.703 167.316 262.541 167.165 262.342 167.084C262.144 167.004 261.922 166.999 261.72 167.071L257.999 168.431C257.822 168.498 257.627 168.505 257.445 168.451C257.263 168.398 257.104 168.286 256.99 168.133C255.961 166.796 254.727 165.631 253.336 164.683C253.172 164.568 253.05 164.403 252.989 164.212C252.929 164.021 252.933 163.815 253 163.626L253.825 161.349C253.9 161.138 253.895 160.907 253.813 160.699C253.73 160.492 253.575 160.321 253.377 160.22L249.87 158.495C249.801 158.459 249.727 158.433 249.651 158.418C249.472 158.381 249.285 158.401 249.118 158.475C248.951 158.55 248.811 158.675 248.717 158.834L247.128 161.48L246.742 162.126C246.008 162.021 245.267 161.968 244.525 161.968C243.534 161.967 242.546 162.059 241.572 162.243C241.395 162.278 241.212 162.258 241.048 162.184C240.883 162.111 240.745 161.988 240.652 161.833L238.865 158.844C238.748 158.647 238.561 158.503 238.343 158.438C238.124 158.373 237.889 158.394 237.685 158.495L234.987 159.827L234.216 160.212C234.011 160.312 233.851 160.484 233.765 160.696C233.68 160.908 233.676 161.144 233.753 161.359L234.885 164.49C234.95 164.664 234.959 164.854 234.911 165.032C234.863 165.211 234.759 165.37 234.616 165.487C233.742 166.203 232.946 167.012 232.242 167.898C232.178 167.969 232.118 168.043 232.062 168.12C232.044 168.146 232.022 168.17 231.998 168.191C231.877 168.321 231.721 168.412 231.548 168.453C231.375 168.493 231.195 168.481 231.029 168.418L227.35 167.077C227.31 167.061 227.268 167.048 227.225 167.04C227.029 167.001 226.827 167.028 226.648 167.116C226.469 167.205 226.324 167.349 226.234 167.528L224.519 171.041C224.419 171.246 224.4 171.481 224.464 171.7C224.528 171.919 224.671 172.106 224.866 172.224L228.545 174.45C228.699 174.54 228.822 174.676 228.897 174.838C228.973 175 228.998 175.181 228.969 175.358C228.846 176.168 228.784 176.986 228.785 177.805C228.785 178.248 228.802 178.686 228.839 179.119C228.853 179.292 228.818 179.465 228.74 179.619C228.662 179.773 228.542 179.902 228.395 179.992L224.857 182.139C224.668 182.255 224.529 182.437 224.466 182.65C224.404 182.864 224.423 183.093 224.521 183.292L226.24 186.8C226.34 187.006 226.512 187.168 226.723 187.254C226.935 187.339 227.17 187.344 227.384 187.265L230.329 186.191C230.519 186.121 230.728 186.117 230.92 186.18C231.113 186.243 231.279 186.369 231.393 186.538C232.295 187.914 233.405 189.14 234.683 190.173C234.831 190.292 234.939 190.455 234.989 190.639C235.04 190.824 235.032 191.019 234.966 191.198L233.763 194.53C233.686 194.747 233.69 194.984 233.775 195.197C233.861 195.41 234.021 195.584 234.226 195.686L237.703 197.407C237.904 197.507 238.134 197.527 238.349 197.464C238.563 197.4 238.746 197.257 238.861 197.064L238.956 196.91L240.795 193.836C240.891 193.676 241.033 193.55 241.202 193.473C241.371 193.397 241.559 193.375 241.742 193.409C242.66 193.575 243.592 193.658 244.525 193.658C245.033 193.658 245.531 193.631 246.029 193.585C246.197 193.567 246.367 193.598 246.519 193.673C246.671 193.749 246.798 193.867 246.886 194.012L248.699 197.041C248.818 197.241 249.008 197.389 249.23 197.455C249.452 197.521 249.691 197.501 249.899 197.399L253.372 195.678C253.467 195.629 253.554 195.565 253.629 195.488C253.744 195.365 253.823 195.212 253.858 195.046C253.893 194.881 253.881 194.709 253.825 194.549L252.918 192.052C252.866 191.902 252.853 191.741 252.88 191.585C252.908 191.428 252.975 191.281 253.075 191.158C253.131 191.093 253.195 191.035 253.265 190.986C255.014 189.812 256.512 188.298 257.672 186.534C257.768 186.388 257.904 186.273 258.063 186.204C258.223 186.135 258.399 186.115 258.569 186.145C258.62 186.155 258.67 186.169 258.718 186.186L261.689 187.275C261.898 187.351 262.128 187.347 262.334 187.263C262.54 187.18 262.709 187.023 262.807 186.823L262.848 186.741L264.522 183.325C264.623 183.117 264.643 182.878 264.578 182.656C264.513 182.434 264.367 182.245 264.17 182.125ZM236.355 175.38C236.533 174.742 236.77 174.122 237.063 173.529C237.645 172.351 239.087 170.892 240.263 170.309C240.389 170.247 240.514 170.187 240.639 170.129C248.334 166.653 255.752 174.257 252.023 181.996C251.533 183.008 250.452 184.195 249.396 184.931C249.168 185.091 248.928 185.234 248.679 185.358C247.68 185.855 246.604 186.175 245.497 186.306C239.564 186.966 234.681 181.479 236.355 175.38Z" fill="#F985A0"/>
</g>
<path d="M303.782 108.442L301.66 107.153C301.574 107.099 301.504 107.022 301.458 106.931C301.412 106.84 301.392 106.738 301.4 106.636C301.422 106.372 301.433 106.105 301.433 105.833C301.434 105.341 301.397 104.85 301.322 104.364C301.304 104.255 301.319 104.144 301.365 104.044C301.411 103.944 301.485 103.861 301.579 103.804L303.796 102.454C303.911 102.385 303.996 102.274 304.033 102.144C304.071 102.014 304.058 101.875 303.998 101.753L302.954 99.608C302.897 99.4914 302.8 99.3999 302.68 99.3512C302.56 99.3024 302.427 99.2997 302.306 99.3436L300.065 100.164C299.958 100.205 299.841 100.209 299.731 100.177C299.622 100.144 299.525 100.077 299.457 99.9844C298.837 99.1769 298.095 98.4736 297.257 97.9009C297.158 97.8319 297.085 97.732 297.048 97.6166C297.012 97.5013 297.014 97.377 297.054 97.263L297.551 95.8862C297.596 95.759 297.593 95.6195 297.544 95.4941C297.494 95.3686 297.401 95.2658 297.281 95.2048L295.17 94.163C295.129 94.141 295.084 94.1254 295.038 94.1166C294.93 94.094 294.818 94.106 294.717 94.151C294.616 94.1959 294.532 94.2715 294.476 94.3672L293.519 95.9654L293.286 96.3555C292.844 96.2921 292.398 96.2603 291.951 96.2603C291.355 96.2599 290.759 96.3156 290.172 96.4266C290.066 96.4477 289.956 96.4352 289.857 96.3908C289.758 96.3463 289.675 96.2721 289.619 96.1782L288.543 94.3753C288.472 94.2569 288.36 94.1697 288.228 94.1308C288.096 94.092 287.955 94.1043 287.832 94.1653L286.208 94.9684L285.743 95.1979C285.62 95.2583 285.523 95.3626 285.472 95.4905C285.421 95.6185 285.418 95.7611 285.465 95.8908L286.143 97.7804C286.183 97.8857 286.189 98.001 286.159 98.1099C286.13 98.2187 286.068 98.3154 285.981 98.3862C285.454 98.8186 284.974 99.3069 284.55 99.8427C284.51 99.8863 284.478 99.9299 284.442 99.9757C284.431 99.9917 284.419 100.007 284.405 100.02C284.332 100.098 284.237 100.153 284.133 100.177C284.029 100.201 283.921 100.194 283.821 100.156L281.607 99.3459C281.583 99.3362 281.557 99.3289 281.532 99.3241C281.414 99.3007 281.292 99.3169 281.184 99.3701C281.076 99.4234 280.988 99.5107 280.934 99.6189L279.902 101.741C279.842 101.865 279.83 102.007 279.868 102.14C279.907 102.272 279.993 102.385 280.11 102.456L282.324 103.801C282.416 103.856 282.489 103.938 282.534 104.036C282.579 104.134 282.593 104.243 282.575 104.349C282.5 104.838 282.462 105.332 282.461 105.827C282.461 106.095 282.472 106.359 282.494 106.621C282.502 106.725 282.481 106.829 282.434 106.922C282.387 107.015 282.315 107.093 282.226 107.147L280.096 108.445C279.982 108.514 279.898 108.624 279.861 108.753C279.823 108.882 279.835 109.02 279.894 109.141L280.929 111.26C280.989 111.384 281.093 111.482 281.22 111.534C281.347 111.586 281.489 111.588 281.618 111.54L283.391 110.892C283.506 110.849 283.631 110.847 283.747 110.885C283.863 110.923 283.963 110.999 284.031 111.102C284.576 111.932 285.244 112.673 286.013 113.297C286.102 113.369 286.167 113.467 286.197 113.578C286.228 113.69 286.223 113.808 286.183 113.916L285.459 115.929C285.412 116.059 285.415 116.203 285.466 116.331C285.517 116.46 285.614 116.565 285.737 116.627L287.832 117.666C287.953 117.726 288.091 117.738 288.221 117.7C288.35 117.661 288.46 117.575 288.529 117.459L288.586 117.366L289.697 115.509C289.754 115.412 289.839 115.336 289.941 115.29C290.042 115.243 290.156 115.229 290.265 115.25C290.818 115.35 291.379 115.4 291.941 115.4C292.246 115.4 292.547 115.383 292.846 115.356C292.948 115.346 293.05 115.364 293.142 115.41C293.233 115.456 293.31 115.527 293.362 115.615L294.455 117.445C294.526 117.566 294.64 117.655 294.774 117.695C294.907 117.735 295.051 117.722 295.176 117.661L297.268 116.622C297.325 116.592 297.377 116.553 297.422 116.507C297.492 116.432 297.539 116.34 297.56 116.24C297.581 116.14 297.575 116.036 297.541 115.94L296.995 114.432C296.964 114.341 296.956 114.244 296.972 114.149C296.989 114.054 297.03 113.966 297.09 113.892C297.123 113.852 297.161 113.817 297.204 113.788C298.257 113.079 299.16 112.164 299.858 111.099C299.916 111.011 299.998 110.942 300.094 110.9C300.19 110.858 300.296 110.846 300.399 110.864C300.429 110.87 300.459 110.878 300.488 110.889L302.28 111.546C302.406 111.592 302.544 111.59 302.668 111.539C302.792 111.489 302.893 111.394 302.953 111.274L302.977 111.224L303.986 109.159C304.045 109.035 304.057 108.894 304.019 108.761C303.982 108.629 303.897 108.515 303.782 108.442ZM287.03 104.364C287.138 103.98 287.281 103.606 287.457 103.248C287.809 102.537 288.676 101.656 289.385 101.304C289.46 101.266 289.536 101.23 289.612 101.195C294.245 99.0952 298.713 103.685 296.467 108.362C296.172 108.973 295.521 109.69 294.885 110.135C294.748 110.231 294.603 110.317 294.453 110.391C293.851 110.691 293.203 110.885 292.536 110.965C288.963 111.368 286.024 108.051 287.03 104.364Z" fill="#EBF2F9"/>
<path d="M124.181 23.4523L120.719 21.8415C120.578 21.7748 120.459 21.6704 120.373 21.5398C120.288 21.4093 120.241 21.2577 120.236 21.1019C120.226 20.697 120.199 20.2886 120.154 19.8793C120.076 19.1314 119.938 18.3908 119.742 17.6647C119.698 17.5032 119.703 17.3322 119.757 17.1738C119.811 17.0154 119.912 16.8768 120.045 16.7761L123.218 14.3581C123.383 14.2333 123.495 14.0507 123.531 13.847C123.568 13.6432 123.526 13.4333 123.414 13.2592L121.463 10.1769C121.356 10.0093 121.191 9.88671 121 9.83258C120.809 9.77845 120.604 9.79652 120.426 9.88334L117.126 11.5003C116.969 11.5798 116.789 11.6057 116.615 11.5741C116.441 11.5425 116.283 11.455 116.163 11.325C115.081 10.2016 113.827 9.25682 112.449 8.52583C112.287 8.43742 112.158 8.29785 112.083 8.12879C112.008 7.95972 111.991 7.77059 112.034 7.59074L112.569 5.41995C112.617 5.21916 112.59 5.00774 112.494 4.8254C112.397 4.64306 112.237 4.50233 112.044 4.42964L108.638 3.20271C108.57 3.17617 108.5 3.15964 108.427 3.15363C108.258 3.13739 108.088 3.17445 107.941 3.25962C107.794 3.34479 107.678 3.47381 107.608 3.62863L106.405 6.21482L106.113 6.84581C105.425 6.82274 104.736 6.84851 104.052 6.92294C103.138 7.02071 102.236 7.2035 101.356 7.46892C101.197 7.51872 101.026 7.51809 100.867 7.46712C100.707 7.41615 100.568 7.31731 100.467 7.1841L98.5222 4.62507C98.3942 4.45663 98.2075 4.34249 97.9993 4.30531C97.7911 4.26814 97.5765 4.31064 97.3982 4.42438L95.0426 5.91422L94.368 6.34365C94.1897 6.45588 94.0592 6.63014 94.0016 6.83287C93.944 7.03561 93.9634 7.25249 94.0561 7.44175L95.4061 10.1997C95.4853 10.3536 95.5132 10.5288 95.4858 10.6997C95.4584 10.8707 95.377 11.0283 95.2537 11.1497C94.5192 11.8959 93.8667 12.7185 93.3071 13.6036C93.2554 13.6746 93.2074 13.7483 93.1635 13.8244C93.1491 13.8503 93.1321 13.8747 93.1127 13.8972C93.0133 14.0292 92.877 14.1286 92.721 14.1827C92.5649 14.2369 92.3963 14.2433 92.2366 14.2013L88.7115 13.3389C88.6726 13.328 88.6326 13.3213 88.5923 13.3187C88.4081 13.3026 88.2237 13.3472 88.0672 13.4458C87.9107 13.5444 87.7909 13.6915 87.7259 13.8647L86.4933 17.2589C86.4214 17.4573 86.4265 17.6754 86.5076 17.8701C86.5887 18.0648 86.74 18.222 86.9314 18.3106L90.5441 19.9854C90.6937 20.0533 90.8192 20.1651 90.904 20.3059C90.9888 20.4468 91.0289 20.61 91.0189 20.7741C90.9861 21.5294 91.0107 22.2862 91.0925 23.0378C91.1363 23.4433 91.1965 23.8432 91.273 24.2375C91.3028 24.3944 91.2884 24.5564 91.2313 24.7055C91.1742 24.8546 91.0767 24.9848 90.9497 25.0815L87.9003 27.4074C87.7373 27.5316 87.6268 27.7123 87.5905 27.9139C87.5542 28.1156 87.5947 28.3235 87.704 28.4967L89.6392 31.5439C89.752 31.7228 89.927 31.8536 90.1304 31.9112C90.3339 31.9688 90.5514 31.9491 90.7412 31.8559L93.3509 30.5755C93.519 30.4905 93.7108 30.4644 93.8954 30.5016C94.0801 30.5388 94.2468 30.6371 94.3689 30.7806C95.3389 31.9519 96.4847 32.9656 97.7653 33.7857C97.915 33.8794 98.0311 34.0182 98.0971 34.1821C98.163 34.346 98.1754 34.5266 98.1323 34.698L97.3562 37.8792C97.3062 38.0853 97.3338 38.3025 97.4336 38.4895C97.5335 38.6765 97.6986 38.8202 97.8976 38.8932L101.277 40.1202C101.472 40.1914 101.687 40.1867 101.879 40.107C102.07 40.0273 102.225 39.8784 102.312 39.6898L102.383 39.5391L103.779 36.534C103.851 36.3774 103.97 36.2467 104.118 36.1595C104.267 36.0722 104.439 36.0325 104.611 36.0459C105.474 36.1058 106.342 36.0888 107.203 35.995C107.671 35.9442 108.128 35.8697 108.583 35.7786C108.736 35.7455 108.896 35.7569 109.044 35.8114C109.192 35.8658 109.321 35.9611 109.417 36.0862L111.39 38.6846C111.52 38.8553 111.709 38.9712 111.919 39.0095C112.13 39.0478 112.348 39.0057 112.529 38.8915L115.564 36.9634C115.646 36.9088 115.72 36.8413 115.781 36.7636C115.875 36.6387 115.932 36.4905 115.948 36.335C115.963 36.1796 115.936 36.0229 115.868 35.882L114.789 33.6867C114.726 33.5543 114.698 33.4077 114.707 33.2613C114.717 33.1148 114.765 32.9733 114.845 32.8506C114.89 32.7855 114.942 32.7266 115.002 32.6753C116.498 31.4235 117.73 29.8855 118.625 28.1515C118.698 28.0082 118.812 27.8896 118.952 27.8104C119.092 27.7311 119.252 27.6946 119.413 27.7054C119.46 27.7089 119.508 27.7162 119.554 27.7273L122.407 28.4284C122.607 28.4772 122.819 28.4506 123.001 28.3536C123.183 28.2567 123.322 28.0961 123.394 27.9026L123.423 27.8246L124.627 24.5171C124.699 24.316 124.694 24.0951 124.611 23.898C124.529 23.7009 124.375 23.5419 124.181 23.4523ZM97.8511 20.0423C97.9526 19.4406 98.1101 18.8497 98.3216 18.2773C98.7429 17.138 99.9264 15.656 100.95 15.004C101.059 14.933 101.17 14.8664 101.279 14.8007C108.031 10.8412 115.63 17.0705 112.959 24.5469C112.609 25.5241 111.733 26.7221 110.829 27.5021C110.634 27.6713 110.426 27.8257 110.208 27.9639C109.336 28.519 108.375 28.9209 107.367 29.1523C101.964 30.3547 96.9181 25.8106 97.8511 20.0423Z" fill="#EBF2F9"/>
<g clip-path="url(#clip0)">
<path fill-rule="evenodd" clip-rule="evenodd" d="M148.043 126.593L148.043 128.107C148.043 128.107 145.321 127.856 144.317 127.856C143.314 127.856 143.778 127.796 142.775 128.107C142.022 128.359 141.872 128.61 141.37 128.687C141.027 128.74 140.592 128.909 140.367 128.825C140.141 128.741 140.129 128.83 139.764 128.61C139.399 128.39 139.126 128.181 139.15 127.873C139.174 127.565 139.263 127.354 139.263 127.354C139.263 127.354 139.263 127.354 139.049 127.255C138.918 127.158 138.825 127.117 138.784 126.958C138.744 126.798 138.759 126.629 138.827 126.479C138.896 126.344 138.941 126.3 139.049 126.3C139.049 126.3 138.54 126.043 138.51 125.846C138.48 125.65 138.46 125.579 138.599 125.443C138.738 125.307 138.856 125.328 138.856 125.328C138.856 125.328 138.286 125.219 138.442 124.705C138.599 124.192 138.815 124.187 138.865 124.161C139.152 124.056 139.461 124.027 139.762 124.077C140.182 124.157 140.156 124.205 140.519 124.178C140.883 124.151 141.393 124.093 141.393 124.093C141.393 124.093 140.671 123.424 140.373 122.794C140.074 122.163 140.06 121.378 140.266 121.072C140.473 120.766 140.739 121.072 140.851 121.207C140.962 121.342 141.088 121.872 141.521 122.328C141.954 122.784 142.776 123.755 143.063 124.077C143.351 124.399 143.612 125.079 144.568 125.595C145.466 126.079 148.043 126.593 148.043 126.593Z" fill="#FFCFAE"/>
<path fill-rule="evenodd" clip-rule="evenodd" d="M143.5 126.78C143.106 126.794 142.519 126.47 142.144 125.914C141.77 125.357 141.731 124.838 141.721 124.578C141.721 124.578 141.764 124.112 141.292 123.585C140.819 123.058 140.613 122.789 140.447 122.427C140.309 122.125 140.339 121.247 140.353 120.96C140.321 120.995 140.292 121.032 140.266 121.071C140.06 121.377 140.073 122.162 140.373 122.793C140.672 123.424 141.395 124.089 141.395 124.089C141.395 124.089 141.563 124.553 141.598 124.79C141.633 125.028 141.595 125.839 141.965 126.356C142.336 126.872 143.072 127.349 143.129 127.382C143.185 127.416 142.897 127.162 142.812 127.102C142.728 127.042 143.91 126.805 143.91 126.805C143.91 126.805 143.893 126.77 143.5 126.78Z" fill="#EBBE9F"/>
<path fill-rule="evenodd" clip-rule="evenodd" d="M144.524 125.789C144.903 126.263 144.415 126.649 144.276 126.767C144.138 126.884 145.155 126.301 145.155 126.301L147.992 126.622L147.968 126.594C147.968 126.594 146.052 126.326 145.155 125.843C144.023 125.554 143.351 124.41 143.063 124.087C142.838 123.836 141.883 122.71 141.355 122.122C141.347 122.113 141.028 121.583 141.018 121.574C141.034 121.636 141.208 122.244 141.236 122.301C141.354 122.54 141.437 122.562 141.391 122.629C141.345 122.696 141.583 122.681 141.583 122.681C141.573 122.736 141.554 122.79 141.527 122.839C141.495 122.881 141.591 122.897 141.738 122.861C141.884 122.824 142.163 123.556 142.444 123.768C142.725 123.98 142.789 124.035 143.063 124.53C143.337 125.024 144.147 125.316 144.524 125.789Z" fill="#F5C5A5"/>
<path d="M141.52 127.065C141.534 127.031 141.701 126.888 141.708 126.852C141.771 126.852 141.771 126.601 141.758 126.424C141.677 126.348 141.521 126.098 141.357 126.125C141.521 126.098 141.501 125.932 141.51 125.783C141.489 125.619 141.34 125.4 141.27 125.344C141.465 125.283 141.559 125.029 141.561 124.914C141.562 124.798 141.199 124.571 140.971 124.484C140.742 124.397 139.902 124.337 139.87 124.307C140.021 124.322 141.208 124.424 141.362 124.533C141.402 124.577 141.611 124.576 141.62 124.631C141.657 125.017 141.727 126.125 142.058 126.506C142.432 126.937 143.175 127.339 143.228 127.367C142.979 127.45 142.738 127.548 142.506 127.66C142.091 127.857 141.907 128.292 141.56 128.429C140.808 128.68 140.308 128.464 140.266 128.36C140.459 128.264 141.118 128.086 141.357 127.819C141.771 127.355 141.577 127.118 141.52 127.065Z" fill="#F5C5A5"/>
<path d="M138.761 125.344C139.61 125.413 141.125 125.472 141.319 125.317C141.561 125.124 141.782 124.574 140.761 124.455L139.74 124.336" stroke="#EBBE9F" stroke-width="0.1"/>
<path d="M140.264 128.36C140.85 128.109 141.92 127.706 141.519 127.103C141.435 127.02 140.967 126.953 139.763 127.355" stroke="#EBBE9F" stroke-width="0.1"/>
<path d="M141.444 127.066C141.908 126.878 141.908 126.376 141.407 126.125" stroke="#EBBE9F" stroke-width="0.1"/>
<path d="M139.012 126.283C139.697 126.297 140.832 126.326 141.269 126.176C141.721 126.021 141.495 125.509 141.269 125.331" stroke="#EBBE9F" stroke-width="0.1"/>
</g>
<g filter="url(#filter8_f)">
<path d="M158.927 150.274L149.847 148.2C153 164.467 154.645 173.616 152.396 191.124L162.432 185.061C154.62 179.593 157.384 167.527 158.927 150.274Z" fill="url(#paint5_linear)"/>
</g>
<g filter="url(#filter9_f)">
<path d="M155.263 150.434L147.775 144.53L130.729 172.775L129.614 181.232C129.614 181.232 143.248 162.893 155.263 150.434Z" fill="url(#paint6_linear)"/>
</g>
<g filter="url(#filter10_f)">
<ellipse cx="248.935" cy="202.933" rx="21.9843" ry="2.23399" fill="#0A3D76" fill-opacity="0.15"/>
</g>
<g filter="url(#filter11_f)">
<path d="M36.8992 187.454L23.0396 179.156L33.7131 176.157L45.1832 172.933L69.7164 181.55L66.371 183.944L33.7131 176.157L48.0507 187.454H36.8992Z" fill="url(#paint7_linear)"/>
</g>
<path d="M166.982 109.612C175.001 111.279 177.449 112.059 182.182 107.745C182.182 107.745 182.51 96.5902 179.175 90.6146C175.84 84.6389 172.619 83.6335 168.118 85.2498C168.118 85.2498 167.062 84.3584 165.067 85.8086C156.906 91.7387 162.381 102.861 166.982 109.612Z" fill="#412716"/>
<path d="M177.163 87.4425C174.756 89.1593 172.611 88.2558 169.799 88.7395C165.801 89.4718 165.805 94.0366 162.876 92.6755C161.775 105.04 161.685 110.478 165.628 119.41C173.691 123.485 176.212 127.24 180.2 120.408C180.2 120.408 184.679 104.793 180.567 93.934C180.243 93.0093 177.502 88.2129 177.163 87.4425Z" fill="#3C2415"/>
<path d="M167.096 122.295C167.096 122.295 167.875 113.489 168.892 110.864C168.846 109.35 168.865 107.378 168.693 106.173L175.369 102.491C175.42 102.364 174.506 108.749 175.895 112.171C177.191 111.838 171.246 120.953 171.246 120.953L167.096 122.295Z" fill="#FFCFAE"/>
<path d="M174.337 103.832C170.508 105.845 172.772 104.604 170.41 105.816L168.534 106.95C168.475 107.719 169.141 108.39 169.864 108.174C171.153 107.789 172.417 106.516 173.917 104.379L174.337 103.832Z" fill="#F5B994"/>
<path d="M162.368 101.415C163.415 104.155 164.125 107.656 167.652 106.425C171.179 105.193 173.725 103.767 174.561 102.599C175.646 101.083 175.61 100.313 175.817 98.1094C176.076 95.3368 176.217 93.2408 175.943 92.5841C173.434 87.8306 171.178 88.5286 168.972 88.9632C164.423 90.8071 162.141 92.4013 161.944 96.784C161.922 97.2887 161.734 99.7543 162.368 101.415Z" fill="#FFCFAE"/>
<path d="M170.861 95.5809C170.47 95.5482 170.344 95.6047 169.767 95.7103C169.504 95.7805 169.247 95.8744 169.002 95.9896C169.002 95.9896 168.436 96.5108 168.369 96.5775C168.25 96.698 168.298 96.8007 168.481 96.7852C168.664 96.7698 168.865 96.6927 169.019 96.6866C170.207 96.6083 170.462 96.6144 171.134 96.2993C171.402 96.1795 171.658 96.0392 171.895 95.8815C171.602 95.7204 171.249 95.6179 170.861 95.5809Z" fill="white"/>
<path d="M169.631 95.861C169.242 95.9828 168.941 96.3047 168.957 96.58C168.962 96.6518 169.006 96.7945 169.176 96.7367C169.242 96.7141 169.869 96.6244 170.17 96.5528C170.217 96.5074 170.262 96.4515 170.304 96.3829C170.347 96.3016 170.369 96.2183 170.364 96.1389C170.347 95.8636 170.019 95.7392 169.631 95.861Z" fill="#28160D" stroke="#1C1105" stroke-width="0.2" stroke-miterlimit="10"/>
<path d="M169.697 96.6609C169.907 96.5941 170.069 96.4178 170.06 96.2672C170.051 96.1165 169.875 96.0486 169.665 96.1154C169.456 96.1822 169.294 96.3585 169.303 96.5091C169.311 96.6598 169.488 96.7277 169.697 96.6609Z" fill="black"/>
<path opacity="0.77" d="M169.991 96.3907C170.103 96.3548 170.19 96.2599 170.186 96.1788C170.181 96.0977 170.086 96.061 169.974 96.0969C169.861 96.1328 169.774 96.2276 169.779 96.3088C169.783 96.3899 169.878 96.4266 169.991 96.3907Z" fill="white"/>
<path d="M168.314 96.6252L168.982 95.9887C169.043 95.9314 169.121 95.8839 169.209 95.8516L169.489 95.7516C169.632 95.7009 169.78 95.6657 169.928 95.6474L170.651 95.5596C170.798 95.5417 170.942 95.5477 171.07 95.5772L171.824 95.7565L172.065 95.7231L171.358 95.4134C171.204 95.3769 171.031 95.3692 170.853 95.3908L170.133 95.4783C169.963 95.4989 169.792 95.5399 169.629 95.5993L169.351 95.6989C169.169 95.7516 168.995 95.8274 168.84 95.9221L168.053 96.6927L168.314 96.6252Z" fill="#D3A688"/>
<path opacity="0.5" d="M168.252 96.6753L168.919 96.0493C168.991 95.9819 169.084 95.9261 169.189 95.8885L169.466 95.7905C169.624 95.7348 169.787 95.6966 169.951 95.6773L170.672 95.5908C170.835 95.5707 170.993 95.5776 171.134 95.611L171.875 95.7878" stroke="#0A0001" stroke-width="0.3" stroke-miterlimit="10"/>
<path d="M168.406 96.8401L168.703 96.7959C168.858 96.7724 169.014 96.7583 169.167 96.7536C169.537 96.7301 170.301 96.7221 170.961 96.5154C171.002 96.5017 171.296 96.3696 171.335 96.3519L171.709 96.1883" stroke="#472A22" stroke-width="0.2" stroke-miterlimit="10"/>
<path d="M163.594 96.4042C163.911 96.2457 164.018 96.2494 164.498 96.1413C164.718 96.1101 164.936 96.1001 165.146 96.1116C165.146 96.1116 165.651 96.3464 165.712 96.378C165.819 96.4364 165.789 96.5362 165.638 96.5852C165.487 96.6343 165.317 96.639 165.19 96.6861C164.214 97.0222 164.006 97.1132 163.432 97.0822C163.203 97.0749 162.983 97.0465 162.776 96.9977C163.001 96.7675 163.281 96.565 163.594 96.4042Z" fill="white"/>
<path d="M165.74 96.4274L165.139 96.1239C165.084 96.0968 165.016 96.0835 164.942 96.0855L164.705 96.0948C164.584 96.0999 164.459 96.1194 164.337 96.1527L163.74 96.3163C163.618 96.3497 163.502 96.4014 163.399 96.4674L162.801 96.8598L162.601 96.9112L163.15 96.427C163.273 96.3469 163.413 96.2843 163.56 96.2441L164.155 96.0809C164.296 96.0424 164.438 96.0203 164.577 96.0156L164.813 96.0067C164.965 95.9906 165.114 95.9961 165.249 96.023L165.959 96.3975L165.74 96.4274Z" fill="#D3A688"/>
<path opacity="0.5" d="M165.804 96.4537L165.204 96.1556C165.14 96.1235 165.058 96.1079 164.97 96.1107L164.735 96.1197C164.602 96.1247 164.465 96.1461 164.33 96.1828L163.734 96.344C163.6 96.3799 163.471 96.4365 163.36 96.5091L162.772 96.8922" stroke="#0A0001" stroke-width="0.3" stroke-miterlimit="10"/>
<path d="M163.825 96.3035C163.51 96.3698 163.275 96.6427 163.299 96.913C163.305 96.9835 163.32 96.9854 163.357 97.0393C163.702 97.1885 164.013 97.1128 164.41 96.9874C164.442 96.914 164.445 96.7509 164.438 96.6729C164.414 96.4026 164.139 96.2372 163.825 96.3035Z" fill="#28160D" stroke="#1C1105" stroke-width="0.2" stroke-miterlimit="10"/>
<path d="M163.808 97.0596C163.982 97.008 164.116 96.8611 164.108 96.7317C164.101 96.6022 163.953 96.5391 163.78 96.5908C163.606 96.6424 163.471 96.7893 163.479 96.9188C163.487 97.0482 163.634 97.1113 163.808 97.0596Z" fill="black"/>
<path opacity="0.77" d="M164.053 96.8299C164.146 96.8021 164.219 96.7231 164.214 96.6534C164.21 96.5837 164.131 96.5497 164.038 96.5774C163.944 96.6052 163.872 96.6842 163.876 96.7539C163.88 96.8236 163.96 96.8577 164.053 96.8299Z" fill="white"/>
<path d="M165.746 96.7059L165.5 96.7524C165.371 96.7766 165.243 96.8086 165.118 96.8478C164.814 96.9325 164.192 97.1412 163.632 97.1533C163.597 97.1534 163.343 97.1248 163.309 97.1209L162.987 97.0885" stroke="#472A22" stroke-width="0.2" stroke-miterlimit="10"/>
<path d="M175.233 96.7357C175.921 95.3785 176.929 94.794 177.487 95.4414C178.045 96.0888 177.696 97.6633 177.003 99.0265C176.31 100.39 175.306 100.926 174.999 100.363C174.437 99.7219 174.548 98.0923 175.233 96.7357Z" fill="#FFCFAE"/>
<path d="M175.841 97.6075C176.236 96.7689 176.721 96.3877 176.921 96.756C177.121 97.1243 176.953 98.108 176.555 98.9415C176.156 99.7749 175.671 100.167 175.461 99.7941C175.251 99.4211 175.439 98.4413 175.841 97.6075Z" fill="#F5B994"/>
<path d="M175.439 99.068C175.628 98.5637 175.964 98.2711 176.19 98.424C176.416 98.5769 176.44 99.1094 176.255 99.6127C176.069 100.116 175.729 100.406 175.504 100.257C175.278 100.108 175.253 99.5838 175.439 99.068Z" fill="#FFCFAE"/>
<path d="M162.114 96.3915C162.512 95.6354 163.158 93.7931 165.355 94.6828C165.494 94.7388 165.561 94.7597 165.629 95.0557C163.626 94.7769 163.454 94.7382 162.114 96.3915Z" fill="#553723"/>
<path d="M172.854 94.5373C172.397 94.1353 171.26 93.5295 168.755 94.5908C168.588 94.6787 168.507 94.717 168.418 94.9519C170.761 94.2309 171.066 94.1369 172.854 94.5373Z" fill="#553723"/>
<path d="M166.429 97.4759C166.568 98.8883 166.104 99.6427 165.656 100.954C165.663 101.029 165.687 101.102 165.726 101.168C165.869 101.424 166.428 101.407 167.057 101.168C167.293 101.107 167.42 101.133 167.639 101.21" stroke="#D3A688" stroke-width="0.5" stroke-miterlimit="10"/>
<path d="M164.741 93.1575C163.987 95.4939 162.112 96.9151 161.684 96.9364L162.084 91.8433L168.113 86.5688L175.947 89.7256L175.401 96.2673C167.938 90.6149 170.401 87.624 168.417 88.2976C166.432 88.9712 165.684 90.2371 164.741 93.1575Z" fill="#412616"/>
<g clip-path="url(#clip1)">
<g style="mix-blend-mode:multiply" opacity="0.8">
<path d="M165.495 103.28C165.497 103.28 165.498 103.28 165.5 103.28C165.638 103.303 165.78 103.281 165.908 103.219C166.472 102.969 167.079 102.859 167.685 102.896C168.251 102.89 168.814 102.81 169.363 102.657C169.368 102.605 169.382 102.553 169.407 102.507C169.431 102.461 169.464 102.422 169.504 102.391C169.538 102.596 169.619 102.789 169.739 102.951C169.64 103.028 169.458 102.888 169.458 102.888C169.32 103.237 169.088 103.535 168.794 103.742C168.5 103.95 168.156 104.058 167.807 104.053C167.109 104.157 166.5 104.073 165.939 103.617C165.867 103.643 165.582 103.299 165.5 103.28C165.498 103.28 165.497 103.28 165.495 103.28Z" fill="#FFC6C6"/>
</g>
<path d="M165.873 103.401C166.312 103.184 166.79 103.079 167.271 103.093C167.97 103.123 168.669 103.021 169.337 102.792C169.129 103.149 168.84 103.441 168.498 103.641C168.155 103.842 167.771 103.942 167.384 103.934C167.111 103.97 166.834 103.941 166.573 103.849C166.312 103.757 166.073 103.604 165.873 103.401Z" fill="#FDFCFC"/>
<path d="M165.873 103.402L166.074 103.303C166.143 103.271 166.214 103.242 166.287 103.219L166.498 103.154C166.57 103.134 166.642 103.117 166.715 103.104L166.938 103.068C167.007 103.072 167.083 103.076 167.158 103.08L167.601 103.063C167.745 103.07 167.89 103.078 168.038 103.031L168.279 103.01L168.477 102.959L168.687 102.922L168.917 102.873C168.988 102.86 169.059 102.841 169.128 102.815C169.192 102.795 169.255 102.769 169.315 102.736L169.45 102.682L169.393 102.823C169.352 102.906 169.306 102.986 169.254 103.062L169.172 103.167L169.085 103.265L168.992 103.356L168.887 103.439C168.821 103.496 168.75 103.548 168.677 103.592C168.382 103.772 168.059 103.89 167.725 103.939C167.643 103.955 167.56 103.964 167.477 103.967L167.351 103.96L167.225 103.953C167.144 103.949 167.062 103.944 166.98 103.94L166.735 103.927C166.652 103.909 166.571 103.884 166.493 103.853C166.414 103.824 166.338 103.787 166.265 103.745C166.227 103.725 166.19 103.702 166.155 103.677L166.053 103.576L165.957 103.489C165.928 103.461 165.9 103.432 165.873 103.402ZM165.873 103.402C165.902 103.433 165.932 103.462 165.963 103.489L166.066 103.576L166.17 103.637L166.28 103.697C166.354 103.736 166.43 103.767 166.509 103.792C166.59 103.796 166.664 103.841 166.745 103.852L166.984 103.865C167.066 103.869 167.148 103.874 167.229 103.878L167.355 103.885L167.469 103.891C167.55 103.895 167.634 103.865 167.71 103.856C168.03 103.801 168.337 103.683 168.618 103.507L168.821 103.36C168.85 103.33 168.875 103.297 168.896 103.262L168.989 103.178L169.069 103.086C169.104 103.055 169.136 103.02 169.163 102.982C169.211 102.915 169.253 102.844 169.288 102.769L169.366 102.849C169.295 102.881 169.221 102.909 169.147 102.933L168.911 102.989L168.706 103.032L168.49 103.069L168.274 103.098L168.052 103.121C167.907 103.113 167.756 103.105 167.609 103.138C167.463 103.172 167.314 103.123 167.169 103.115L166.949 103.103L166.733 103.126L166.517 103.162L166.3 103.212L166.088 103.283L165.873 103.402Z" fill="#CB7A63"/>
<g style="mix-blend-mode:multiply" opacity="0.4">
<path d="M169.337 102.792C168.669 103.021 167.97 103.123 167.271 103.093C166.79 103.079 166.312 103.184 165.873 103.401C166.02 103.565 166.202 103.685 166.403 103.751C166.205 103.556 166.162 103.314 166.681 103.266C167.201 103.219 168.032 103.256 168.484 103.184C168.935 103.113 168.617 103.76 167.227 103.918L167.365 103.926C167.755 103.939 168.142 103.841 168.488 103.642C168.834 103.443 169.127 103.15 169.337 102.792Z" fill="#CEC0B6"/>
</g>
</g>
<path d="M163.204 184.466C163.303 184.666 163.342 184.891 163.316 185.112C163.291 185.334 163.202 185.543 163.061 185.716C162.546 186.427 161.344 187.042 159.99 187.613C159.821 187.687 159.656 187.752 159.525 187.818L159.42 187.869C159.391 187.883 159.365 187.897 159.338 187.909C158.038 188.569 158.364 188.892 155.968 190.286C153.237 191.875 151.778 191.499 151.423 191.18C151.123 190.911 152.164 189.95 153.322 188.868L153.491 188.711C153.646 188.568 153.8 188.42 153.953 188.275C155.324 186.966 155.296 186.159 155.75 183.757C156.12 181.796 155.837 172.28 155.837 172.28L160.067 172.743C160.067 172.743 159.293 180.039 160.325 181.493C160.877 182.268 161.675 182.505 162.242 183.126L162.352 183.256C162.689 183.619 162.976 184.026 163.204 184.466Z" fill="#FFCFAE"/>
<path d="M163.205 184.466C163.304 184.666 163.343 184.891 163.317 185.112C163.292 185.334 163.203 185.543 163.062 185.716C162.483 186.409 161.306 187.026 159.989 187.604C159.82 187.681 159.664 187.75 159.526 187.818L159.421 187.869C159.392 187.883 159.366 187.897 159.339 187.909C158.039 188.569 158.365 188.892 155.969 190.286C153.238 191.875 151.779 191.499 151.424 191.18C151.124 190.91 152.165 189.95 153.323 188.868C154.96 188.715 156.526 188.132 157.865 187.177C159.595 185.921 161.035 184.082 162.245 183.119L162.355 183.249C162.692 183.615 162.978 184.024 163.205 184.466Z" fill="#A62E41"/>
<path d="M133.12 181.501C132.86 182.797 131.015 182.581 128.954 182.069C126.892 181.556 127.382 182.165 124.448 181.839C121.514 181.512 120.622 180.419 120.536 179.981C120.456 179.593 121.906 179.457 123.46 179.271C123.656 179.25 123.853 179.226 124.05 179.202C125.805 178.98 127.091 177.846 128.686 176.913C130.196 176.03 132.451 172.434 132.451 172.434L136.473 172.753C136.473 172.753 134.362 175.965 133.546 177.362C133.066 178.184 133.091 179.27 133.151 180.11C133.203 180.573 133.193 181.041 133.12 181.501Z" fill="#FFCFAE"/>
<path d="M128.954 182.068C126.892 181.564 127.382 182.165 124.448 181.838C121.514 181.512 120.622 180.419 120.536 179.98C120.456 179.593 121.906 179.456 123.46 179.271L123.476 179.3C124.733 180.109 126.184 180.561 127.677 180.609C129.661 180.657 131.776 180.087 133.151 180.109C133.202 180.568 133.191 181.032 133.12 181.488C132.866 182.791 131.015 182.575 128.954 182.068Z" fill="#A62E41"/>
<path d="M153.132 151.696L155.256 177.419C156.117 177.598 157.002 177.634 157.875 177.523C159.084 177.339 160.536 176.632 160.536 176.632C160.536 176.632 162.36 153.591 159.059 148.453C155.757 143.315 153.132 151.696 153.132 151.696Z" fill="url(#paint8_linear)"/>
<path d="M180.856 145.936C180.856 145.936 160.978 138.673 155.421 140.469C149.864 142.265 130.119 174.669 130.119 174.669C130.119 174.669 130.496 175.172 131.523 175.558C132.479 175.917 134.793 175.894 134.793 175.894C134.793 175.894 148.69 162.591 150.483 158.82C152.275 155.048 155.062 150.233 156.855 150.594C160.519 151.87 175.653 157.543 182.344 151.799C187.184 146.768 185.504 144.071 185.504 144.071L180.856 145.936Z" fill="url(#paint9_linear)"/>
<path d="M182.646 131.56C183.397 128.401 183.769 122.13 181.099 117.055C178.676 112.458 174.925 109.058 174.698 109.192C175.176 112.707 171.377 119.311 170.46 119.249C168.839 119.139 168.969 109.501 168.969 109.501C168.969 109.501 164.768 109.872 163.132 112.707C160.865 116.624 159.033 129.475 156.6 129.302C155.483 129.221 144.971 125.632 144.971 125.632C144.971 125.632 144.363 125.255 144.722 127.41C144.722 127.41 147.289 129.186 151.98 131.56C154.461 132.816 157.457 134.332 158.512 134.089C160.648 133.585 161.968 130.727 163.772 127.806L165.521 123.877C167.822 136.935 165.308 140.528 166.892 141.904C168.565 143.358 168.227 141.539 173.487 143.823C176.935 145.322 179.982 147.277 183.204 147.653C184.895 147.851 185.342 147.68 185.753 146.536C186.95 143.213 181.213 137.581 182.646 131.56Z" fill="#699DEE"/>
<path d="M172.37 141.103C178.173 139.744 181.436 138.949 188.461 134.819L183.968 131.468C183.487 131.946 173.188 136.883 172.55 137.92C171.913 138.958 172.37 141.103 172.37 141.103Z" fill="#4A75CB"/>
<path d="M185.825 146.201C185.611 147.482 184.954 147.811 184.073 147.589C182.911 146.5 181.929 142.957 180.59 139.606C179.634 137.212 178.911 138.336 178.288 133.152C177.788 128.99 182.422 121.251 183.166 119.568C184.556 125.249 183.557 124.171 183.166 127.706C182.421 134.447 186.448 142.481 185.825 146.201Z" fill="#4A75CB"/>
<path d="M172.291 138.502L172.123 138.02C171.464 138.25 170.499 138.124 170.294 138.137L168.056 138.324C167.537 138.356 167.057 138.609 166.737 139.018L163.862 142.696C163.997 143.107 164.534 143.412 165.661 141.932L164.415 143.381C164.46 143.721 164.797 143.912 165.732 142.872C165.463 143.254 165.283 143.541 165.313 143.582L165.315 143.584C165.412 143.716 165.78 144.435 168.515 141.05C168.73 140.915 168.856 140.96 167.865 143.409C167.862 143.918 168.274 144.468 169.729 141.412C170.437 141.356 171.839 140.82 172.393 140.079L172.862 139.658C172.398 138.61 172.444 138.867 172.291 138.502Z" fill="#FFCFAE"/>
<path d="M165.661 141.932C164.534 143.412 163.997 143.107 163.862 142.696L166.737 139.018C167.057 138.609 167.537 138.356 168.056 138.324L170.294 138.137C170.499 138.124 171.464 138.25 172.123 138.02L172.291 138.502C172.444 138.867 172.398 138.61 172.862 139.658L172.393 140.079C171.839 140.82 170.437 141.356 169.729 141.412C168.274 144.468 167.862 143.918 167.865 143.409C168.856 140.96 168.73 140.915 168.515 141.05C165.78 144.435 165.412 143.716 165.315 143.584L165.313 143.582C165.283 143.541 165.463 143.254 165.732 142.872M165.661 141.932C165.852 141.682 166.537 141.345 166.762 140.984L165.661 141.932ZM165.661 141.932L164.415 143.381C164.46 143.721 164.797 143.912 165.732 142.872M165.732 142.872C166.102 142.461 167.097 142.117 167.672 141.255C167.286 141.749 166.141 142.291 165.732 142.872Z" stroke="#F5C5A5" stroke-width="0.2"/>
<path d="M165.434 124.035C164.151 127.22 161.702 132.679 159.682 133.539C158.685 133.963 156.327 133.478 153.669 132.662C155.533 132.816 157.264 132.504 158.92 132.044C160.715 131.553 160.86 129.219 163.167 125.359C164.664 122.861 165.218 123.332 165.434 124.035Z" fill="#4A75CB"/>
<path d="M169.811 140.791C169.975 140.353 171.654 140.122 172.473 140.062C172.146 140.791 170.425 141.216 169.606 141.338L169.811 140.791Z" fill="#F5C5A5"/>
<path d="M171.83 138.625C170.555 138.731 168.006 138.944 167.847 139.262C167.847 138.944 168.516 138.625 171.83 138.625Z" fill="#EEBE9E"/>
<path d="M174.696 109.033C174.696 109.033 181.758 110.337 183.905 113.342C186.485 116.945 189.247 127.296 189.121 132.725C189.087 134.219 187.962 135.336 186.554 135.835L172.307 140.882C172.307 140.882 172.307 139.925 171.669 138.01C172.307 136.972 183.423 131.726 183.905 131.247C184.387 130.769 180.972 121.963 180.972 120.526C180.972 119.09 174.696 109.033 174.696 109.033Z" fill="#699DEE"/>
<path d="M55.9454 118.8C57.0622 117.632 56.9719 116.764 56.9719 116.764C56.9719 116.764 41.7659 108.074 40.4624 107.21C39.573 106.622 36.4229 98.1729 31.9698 93.0131C29.7629 90.4574 28.8751 89.2154 25.7471 90.1152L21.3254 93.0882C18.2152 93.9791 18.0505 96.848 20.6029 98.9646C27.7864 104.936 33.3708 111.643 35.6082 113.053C41.1616 116.552 54.3132 118.8 54.3132 118.8C54.3132 118.8 54.9874 119.802 55.9454 118.8Z" fill="#5584C0"/>
<path d="M66.3527 175.805C66.3527 175.805 68.0935 178.327 72.8999 177.082C72.8999 177.082 75.568 176.521 76.9826 177.411C77.4719 177.719 77.2211 178.365 76.6791 178.566C75.0201 179.181 71.7726 180.411 70.6718 181.017C69.5372 181.641 68.3544 182.624 67.5184 183.384C67.3614 183.527 67.1771 183.636 66.9766 183.704C66.7762 183.773 66.5639 183.8 66.3527 183.784C66.1415 183.767 65.9358 183.708 65.7483 183.609C65.5607 183.511 65.3953 183.375 65.262 183.21C65.0002 182.888 64.7017 182.505 64.3726 182.064C63.4553 180.821 62.2261 177.604 62.2261 177.604L66.3527 175.805Z" fill="#233862"/>
<path d="M66.9994 175.764C66.9994 175.764 67.4272 177.126 62.3328 178.678C62.3328 178.678 56.2377 172.312 51.5303 164.108C49.3993 161.137 49.4322 161.166 48.4968 159.101C44.678 150.688 34.3706 137.996 27.8179 131.635L38.993 126.338C38.993 126.338 44.5425 136.534 51.5303 148.883C56.5654 157.781 61.4782 167.384 66.9994 175.764Z" fill="#2B478B"/>
<g filter="url(#filter12_di)">
<path d="M77.3805 102.351C77.59 101.29 77.7185 100.215 77.7649 99.1343C77.7739 98.894 77.8543 98.6619 77.9958 98.4676C78.1373 98.2733 78.3334 98.1257 78.5591 98.0437L83.9387 96.0864C84.2169 95.9858 84.4475 95.7847 84.5853 95.5225C84.7232 95.2604 84.7582 94.9561 84.6836 94.6694L83.3285 89.599C83.255 89.324 83.0828 89.0859 82.8447 88.9304C82.6066 88.775 82.3196 88.7131 82.0387 88.7568L76.8298 89.5639C76.581 89.6018 76.3266 89.5595 76.1034 89.4431C75.8802 89.3267 75.6998 89.1422 75.5881 88.9162C74.5889 86.9086 73.277 85.0732 71.7016 83.479C71.5152 83.2891 71.3973 83.0423 71.3666 82.7777C71.3359 82.513 71.3942 82.2457 71.5322 82.0179L73.1933 79.2668C73.3461 79.0133 73.4001 78.7124 73.345 78.4216C73.29 78.1308 73.1297 77.8706 72.8949 77.6909L68.7658 74.5335C68.5292 74.3526 68.2335 74.2672 67.9371 74.2943C67.6407 74.3214 67.3652 74.459 67.1652 74.6798L63.7393 78.4483C61.5574 77.6878 59.2659 77.2895 56.9555 77.269C56.7163 77.2678 56.4831 77.1932 56.2875 77.0553C56.0918 76.9174 55.943 76.7227 55.8611 76.4975L54.2909 72.1519C54.1886 71.865 53.9825 71.627 53.7133 71.4852C53.4442 71.3434 53.1316 71.308 52.8376 71.3861L47.8657 72.7211C47.5732 72.7995 47.3199 72.9835 47.1546 73.2377C46.9892 73.4919 46.9235 73.7983 46.97 74.098L47.6424 78.4584C47.6803 78.7033 47.6412 78.9539 47.5304 79.1755C47.4196 79.397 47.2427 79.5785 47.0242 79.6948C45.5831 80.4571 44.2352 81.3846 43.0077 82.4586C42.8148 82.6254 42.5743 82.7268 42.3204 82.7485C42.0666 82.7701 41.8124 82.7108 41.5943 82.5791L37.1418 79.8827C36.8879 79.7288 36.5862 79.6743 36.2947 79.7297C36.0031 79.7851 35.7422 79.9465 35.5622 80.1828L32.422 84.3021C32.238 84.5427 32.1511 84.8437 32.1783 85.1454C32.2056 85.4472 32.3451 85.7276 32.5691 85.9311L36.797 89.782C36.9711 89.9408 37.0939 90.1479 37.15 90.3769C37.2061 90.6059 37.1928 90.8465 37.1119 91.068C36.7403 92.0895 36.4483 93.1382 36.2384 94.2048C36.1244 94.7792 36.0352 95.3522 35.9708 95.9241C35.9456 96.1533 35.8568 96.3709 35.7145 96.5522C35.5722 96.7335 35.3821 96.8713 35.1657 96.9499L29.9906 98.8293C29.7133 98.9297 29.4837 99.1306 29.3472 99.3924C29.2107 99.6543 29.1773 99.9578 29.2536 100.243L30.5924 105.253C30.671 105.547 30.855 105.8 31.1091 105.966C31.3631 106.132 31.6693 106.198 31.969 106.152L36.0958 105.512C36.3619 105.47 36.6344 105.519 36.8693 105.651C37.1042 105.783 37.2878 105.99 37.3904 106.24C38.2185 108.261 39.3548 110.142 40.7586 111.814C40.9229 112.009 41.0222 112.25 41.0426 112.504C41.0629 112.757 41.0033 113.011 40.8722 113.23L38.4431 117.252C38.2858 117.513 38.2302 117.823 38.2869 118.122C38.3436 118.421 38.5086 118.689 38.7503 118.874L42.8531 122.011C43.0898 122.193 43.386 122.279 43.683 122.252C43.98 122.224 44.256 122.086 44.4562 121.865L47.8134 118.167C47.9811 117.983 48.2008 117.854 48.4434 117.798C48.686 117.742 48.9398 117.762 49.171 117.854C50.3263 118.304 51.5191 118.651 52.7354 118.891C53.4011 119.023 54.0647 119.121 54.7254 119.193C54.95 119.215 55.1637 119.301 55.3418 119.44C55.5198 119.579 55.6551 119.766 55.7319 119.978L57.3258 124.389C57.4302 124.676 57.6382 124.914 57.909 125.056C58.1797 125.198 58.4937 125.233 58.7892 125.155L63.7719 123.814C64.0597 123.737 64.3091 123.557 64.4722 123.307C64.6352 123.057 64.7004 122.756 64.6552 122.461L64.1175 118.983C64.0779 118.717 64.1277 118.446 64.259 118.212C64.3903 117.978 64.5956 117.794 64.8426 117.69C67.4256 116.613 69.7687 115.032 71.7355 113.038C71.924 112.848 72.1707 112.727 72.4361 112.694C72.7015 112.661 72.9701 112.719 73.1988 112.858L76.803 115.031C77.0563 115.184 77.3572 115.238 77.648 115.183C77.9388 115.128 78.199 114.967 78.3787 114.731L81.5162 110.614C81.701 110.372 81.7885 110.069 81.7611 109.766C81.7338 109.462 81.5938 109.18 81.3687 108.975L77.3106 105.282C77.1457 105.131 77.0262 104.937 76.9654 104.721C76.9047 104.506 76.9053 104.278 76.967 104.063C77.1262 103.505 77.2641 102.934 77.3805 102.351ZM60.3044 109.173C49.1076 112.113 41.0728 100.017 48.1658 90.7845C49.2307 89.3981 51.4893 87.8809 53.1782 87.4242C64.4008 84.3639 72.5076 96.4097 65.5325 105.666C64.4263 107.13 62.0758 108.707 60.3044 109.173Z" fill="url(#paint10_linear)"/>
</g>
<path d="M47.8905 142.455L48.3684 158.731C46.869 155.472 44.8512 153.14 43.9077 151.071C38.3694 143.33 30.9216 140.505 24.3125 134.133L38.3318 125.061C38.3318 125.061 40.8426 130.081 47.8905 142.455Z" fill="#233862"/>
<path d="M58.5918 119.842C56.4234 120.045 55.3494 120.739 55.3494 120.739L54.2423 120.748C54.2423 120.748 52.8914 122.992 53.1458 123.147C53.4002 123.302 55.2653 123.866 55.2653 123.866C55.3191 124.013 59.0795 125.976 59.659 125.952C60.2386 125.927 60.6603 125.724 60.7152 125.654C61.0258 125.677 61.3361 125.587 61.5875 125.402C62.075 125.16 62.5767 124.949 63.0896 124.768L64.5237 124.172C65.5078 123.652 64.9034 123.566 64.9034 123.566C64.5904 123.559 64.2777 123.593 63.974 123.669C64.8704 123.406 65.611 123.063 65.3558 122.875C64.9333 122.564 63.3315 122.924 63.3315 122.924C63.3315 122.924 62.315 123.216 61.9039 123.173C61.2011 122.659 60.7784 122.568 60.2979 122.024C59.4858 121.105 59.1954 121.001 59.1954 121.001C59.1954 121.001 61.783 121.07 62.5968 120.233C63.1145 119.512 61.9585 119.718 60.6728 119.869C59.7492 119.842 58.5918 119.842 58.5918 119.842Z" fill="#FFCFAE"/>
<g filter="url(#filter13_f)">
<path d="M59.1623 123.79C59.6976 124.174 61.2268 125.003 61.4161 125.089C61.6054 125.174 62.2011 125.072 62.7247 124.88C63.589 124.538 65.1509 123.94 65.0811 123.747C65.0193 123.577 65.1934 123.513 64.4332 123.599" stroke="#D3A688" stroke-width="0.2" stroke-linecap="round"/>
</g>
<g filter="url(#filter14_f)">
<path d="M59.8778 123.225C60.4132 123.608 61.4811 124.139 61.6704 124.224C61.8597 124.309 62.4554 124.207 62.979 124.015C63.8433 123.673 65.2423 123.296 65.396 122.965" stroke="#D3A688" stroke-width="0.2" stroke-linecap="round"/>
</g>
<g filter="url(#filter15_f)">
<path d="M62.201 125.072C61.6774 125.263 61.2532 125.727 60.6055 125.578C60.4022 125.532 58.9491 124.834 58.4138 124.451" stroke="#D3A688" stroke-width="0.2" stroke-linecap="round"/>
</g>
<path d="M41.3595 181.071C41.3595 181.071 41.2454 184.22 45.5016 184.689C45.5016 184.689 48.3616 185.29 48.3692 187.529H36.8703C36.8703 187.529 36.5108 186.625 36.4231 184.689C36.3558 183.203 37.8613 179.316 37.8613 179.316L41.3595 181.071Z" fill="#233862"/>
<path d="M34.1991 127.991C34.1991 127.991 38.6775 133 43.3544 146.855C45.8992 154.393 43.1101 174.451 41.705 181.037C41.705 181.037 39.6058 182.176 36.8306 181.789C36.8306 181.789 35.4229 167.449 37.3566 156.967C38.4388 151.101 28.8125 145.158 24.1009 134.558C20.8961 127.346 19.9974 127.468 24.7891 127.296L34.1991 127.991Z" fill="#2B478B"/>
<path d="M40.6362 128.376C40.6362 129.139 39.7545 129.51 39.5677 129.547C37.8106 129.869 32.9064 131.779 28.4876 132.219C24.7675 132.609 26.0652 133.04 23.3569 132.721C22.8551 132.62 22.1663 130.969 22.0824 130.487C21.9783 129.96 11.3603 104.322 19.5338 88.2007C19.7994 87.9079 21.2808 88.2902 23.3199 88.7751C25.0391 89.184 26.346 88.8817 27.977 88.2007L28.7736 89.1581C30.2073 91.7112 31.5994 95.7153 32.119 99.3706C32.3833 101.229 32.6447 102.542 32.9521 104.177C33.0665 104.781 33.1821 105.373 33.3015 105.948C33.5328 107.077 33.7712 108.152 34.0168 109.173C34.6813 111.938 35.3826 114.318 36.0712 116.373C36.8043 118.556 37.5234 120.371 38.165 121.891C38.9985 123.86 39.7011 125.327 40.1407 126.459C40.4583 127.248 40.6362 127.877 40.6362 128.376Z" fill="#71A0DD"/>
<path d="M38.4912 122.668C17.9788 112.986 18.9023 97.8623 18.9023 97.8623C18.9023 97.8623 29.1965 104.021 33.3078 105.626C33.5391 106.755 33.7775 107.83 34.0231 108.851C34.6876 111.616 34.1384 110.24 34.827 112.295C35.5601 114.478 35.9382 116.361 36.5798 117.88C37.4196 119.848 38.0516 121.544 38.4912 122.668Z" fill="#5584C0"/>
<path d="M53.6075 123.036C54.263 121.323 54.5629 120.547 54.5629 120.547C54.5629 120.547 41.1704 109.611 39.8033 108.672C38.8733 108.035 34.7214 102.067 30.2073 96.6573C29.1076 95.3434 27.9107 94.0836 26.5425 92.5084C25.3182 91.0988 24.7901 89.7957 23.5156 89.1574C21.715 88.8902 20.7035 89.0544 18.8957 89.4766C17.6216 92.3488 16.1025 96.9487 18.7363 99.2104C26.1535 105.574 32.2931 112.969 34.6257 114.507C40.4155 118.325 53.2248 123.67 53.2248 123.67C53.2248 123.67 53.3073 123.784 53.6075 123.036Z" fill="#6B9CDB"/>
<path d="M20.7448 84.7865L20.8917 88.2918C20.8917 88.2918 24.1544 89.478 26.3054 89.0532C28.107 88.1728 28.1489 88.3896 28.1489 88.3896L28.2128 83.9619L24.3873 83.233L20.7448 84.7865Z" fill="#F9C8A3"/>
<path d="M20.9555 83.6272C22.0541 86.3778 25.4625 87.5652 28.2099 86.6746L28.2099 83.8544C27.2935 83.4896 23.6452 84.6586 22.7952 84.1513L20.9555 83.6272Z" fill="#EAAB85"/>
<path d="M20.4381 83.9845L9.50538 71.0968L25.1336 67.2778C25.1336 67.2778 33.9148 81.9094 31.1772 83.3429C28.4396 84.7763 25.3927 84.9191 25.3927 84.9191C23.3868 84.9877 22.2716 84.9762 20.4381 83.9845Z" fill="#F9C8A3"/>
<path d="M31.0289 75.7192L29.1232 76.8782L29.4359 75.8502L31.0289 75.7192Z" fill="#C69B7D"/>
<path d="M27.7789 72.0484C28.992 73.0996 29.543 73.7821 31.0886 74.6334C31.1888 74.6683 31.2753 74.7316 31.3376 74.8156C31.4001 74.8995 31.4368 74.9999 31.4433 75.1053C31.4484 75.2103 31.4262 75.3158 31.3788 75.4119C31.3274 75.5063 31.2504 75.5853 31.1568 75.64C30.2794 76.1059 29.9058 76.0195 29.4294 76.6083C28.8127 77.3567 28.4854 76.6558 28.35 76.1899L27.7789 72.0484Z" fill="#F9C8A3"/>
<path d="M25.3706 71.2351C25.5908 71.1038 25.6633 70.8187 25.5324 70.5982C25.3976 70.371 25.1009 70.3022 24.8798 70.4469L23.3714 71.4338C23.1285 71.5916 22.9354 71.8089 22.825 72.0485C22.6596 72.3956 23.0792 72.7258 23.377 72.4829L23.625 72.2805C23.6414 72.2671 23.6588 72.2549 23.677 72.2441L25.3706 71.2351Z" fill="#202020"/>
<path d="M31.0038 79.1051C31.0038 79.1051 30.3672 79.5835 29.2216 79.2972" stroke="#B96665" stroke-width="0.64" stroke-linecap="round" stroke-linejoin="round"/>
<path d="M21.1428 78.7459C20.2496 78.164 19.5419 78.6419 19.5512 79.2229C19.5605 79.804 21.3442 80.4998 21.7814 80.0408C22.133 79.6752 21.6791 79.0954 21.1428 78.7459Z" fill="#EAAB85"/>
<path d="M21.6119 79.2441C20.998 78.6707 20.5128 78.9152 20.5187 79.3613C20.5247 79.8073 21.7506 80.6009 22.0572 80.3154C22.3071 80.084 21.973 79.5964 21.6119 79.2441Z" fill="#F9C8A3"/>
<path d="M28.1501 87.3518C26.4554 87.4386 22.6906 87.4644 21.2414 86.1329C21.1034 86.002 20.922 85.926 20.7315 85.9192C20.5428 85.9132 20.3759 86.1594 20.1967 86.4952C19.4584 87.8779 19.4773 88.4978 18.9221 89.4863C21.8493 88.5986 25.9171 89.4321 25.9171 89.4321C26.704 89.6378 28.1764 89.7412 29.4122 90.5953C28.9763 89.1059 28.9155 89.6539 28.8754 88.103C28.8773 88.0042 28.8611 87.906 28.8275 87.813C28.7906 87.721 28.7364 87.637 28.6678 87.5653C28.5989 87.493 28.5145 87.4372 28.4209 87.4018C28.3347 87.3678 28.2428 87.3508 28.1501 87.3518Z" fill="#D2DFF9"/>
<path d="M20.5207 87.8833C19.1445 88.9035 19.0733 86.9276 19.0733 86.9276C19.0733 86.9276 14.3275 85.5108 12.5396 84.2797C10.7517 83.0486 7.00315 78.3992 7.17016 77.1311C7.26167 76.3181 2.08679 71.4867 11.6319 63.5622C11.6319 63.5622 15.8093 63.3103 17.7256 62.0955C19.6418 60.8807 23.6411 58.561 23.6411 58.561C23.6411 58.561 28.9113 59.4776 25.3133 67.5422C25.3133 67.5422 16.9787 69.2073 20.619 75.1155C20.9207 75.5913 22.1783 77.1666 21.8963 77.545C21.7578 77.7287 21.157 77.2149 20.0828 76.9373C17.6223 76.3363 16.2965 79.3376 20.868 81.2964C21.6896 81.6543 22.1661 81.3082 22.6675 81.4417C22.6675 81.4417 25.3005 84.3378 20.5207 87.8833Z" fill="#202020"/>
<path d="M24.2325 73.3388C24.494 73.0568 24.6129 73.0258 25.0782 72.7474C25.3018 72.6402 25.5335 72.5578 25.7676 72.5023C25.7676 72.5023 26.44 72.602 26.5227 72.6178C26.6694 72.6488 26.689 72.7709 26.5506 72.8755C26.4122 72.98 26.2294 73.0409 26.1163 73.1353C25.23 73.8329 25.0515 74.0033 24.4103 74.156C24.157 74.2226 23.9025 74.2626 23.6519 74.2751C23.7772 73.9419 23.9753 73.6225 24.2325 73.3388Z" fill="white"/>
<path d="M25.2089 72.884C25.5215 72.6901 25.8834 72.7372 26.0173 72.9891C26.0566 73.0631 26.0718 73.1465 26.0659 73.2323C25.7422 73.518 25.5583 73.6693 25.1908 73.9059C25.0584 73.8807 24.9473 73.808 24.8852 73.6912C24.7514 73.4392 24.8963 73.0778 25.2089 72.884Z" fill="#28160D" stroke="#1C1105" stroke-width="0.2" stroke-miterlimit="10"/>
<path d="M25.5984 73.6151C25.4179 73.7274 25.2091 73.7002 25.1319 73.5544C25.0547 73.4085 25.1384 73.1992 25.3188 73.0869C25.4992 72.9746 25.7081 73.0018 25.7853 73.1477C25.8625 73.2935 25.7788 73.5028 25.5984 73.6151Z" fill="black"/>
<path opacity="0.77" d="M25.1879 73.4292C25.0976 73.4854 24.9931 73.4718 24.9545 73.3988C24.9158 73.3259 24.9577 73.2212 25.048 73.165C25.1382 73.1088 25.2427 73.1224 25.2814 73.1954C25.32 73.2683 25.2781 73.3731 25.1879 73.4292Z" fill="white"/>
<path d="M26.6025 72.6891L25.7842 72.531C25.7102 72.5172 25.6288 72.5238 25.5491 72.5502L25.2963 72.6376C25.1674 72.6826 25.043 72.7454 24.9279 72.8235L24.3672 73.2063C24.2527 73.2845 24.154 73.3822 24.0784 73.4919L23.6399 74.1408L23.4504 74.265L23.7857 73.5255C23.8756 73.3929 23.9942 73.2749 24.132 73.1808L24.6912 72.799C24.8232 72.7089 24.9664 72.6371 25.1148 72.5869L25.366 72.5004C25.5236 72.4323 25.6879 72.3908 25.8495 72.3783L26.8247 72.5835L26.6025 72.6891Z" fill="#D3A688"/>
<path opacity="0.5" d="M26.6749 72.6898L25.8582 72.5324C25.7702 72.5154 25.6732 72.5233 25.5784 72.5551L25.3277 72.6412C25.1854 72.6901 25.0481 72.7592 24.9216 72.8458L24.3619 73.227C24.2354 73.3124 24.1269 73.4202 24.0452 73.5415L23.616 74.1809" stroke="#0A0001" stroke-width="0.3" stroke-miterlimit="10"/>
<path d="M26.6597 72.9071L26.4213 73.0455C26.2961 73.1179 26.177 73.2004 26.066 73.2916C25.8097 73.5056 25.272 73.9783 24.6443 74.1601C24.6062 74.1711 24.3122 74.2115 24.2729 74.2168L23.9014 74.2736" stroke="#472A22" stroke-width="0.2" stroke-miterlimit="10"/>
<path d="M173.971 144.063H153.678V142.574H173.971C174.168 142.574 174.357 142.653 174.497 142.792C174.636 142.932 174.715 143.121 174.715 143.319C174.715 143.516 174.636 143.705 174.497 143.845C174.357 143.985 174.168 144.063 173.971 144.063Z" fill="white"/>
<path d="M168.424 144.063H148.818C148.4 144.06 147.995 143.92 147.665 143.663C147.334 143.407 147.098 143.05 146.991 142.645L143.538 129.622C143.463 129.34 143.453 129.044 143.511 128.757C143.568 128.47 143.691 128.201 143.869 127.969C144.048 127.737 144.277 127.549 144.539 127.42C144.802 127.291 145.09 127.224 145.382 127.225H162.466C162.888 127.224 163.298 127.363 163.632 127.62C163.966 127.878 164.205 128.238 164.311 128.646L168.424 144.063Z" fill="white"/>
<path d="M145.382 127.229C145.09 127.229 144.802 127.296 144.54 127.424C144.278 127.553 144.049 127.74 143.871 127.972C143.693 128.203 143.57 128.472 143.512 128.758C143.454 129.044 143.463 129.34 143.537 129.622L146.99 142.645C147.095 143.034 147.32 143.38 147.632 143.634L159.512 127.229H145.382Z" fill="url(#paint11_linear)"/>
<path d="M156.878 136.798C156.939 136.981 156.953 137.176 156.921 137.365C156.888 137.555 156.809 137.734 156.691 137.886C156.573 138.038 156.42 138.158 156.244 138.237C156.068 138.315 155.876 138.349 155.684 138.336C155.237 138.318 154.806 138.16 154.454 137.884C154.101 137.608 153.844 137.228 153.719 136.798C153.66 136.616 153.646 136.421 153.679 136.232C153.712 136.043 153.791 135.865 153.909 135.713C154.027 135.561 154.18 135.441 154.355 135.362C154.53 135.283 154.722 135.248 154.913 135.261C155.361 135.279 155.791 135.437 156.143 135.713C156.496 135.989 156.753 136.369 156.878 136.798Z" fill="#0A3D76"/>
<g clip-path="url(#clip2)" filter="url(#filter16_di)">
<path d="M166.872 8.56889C167.377 8.56889 167.833 8.26551 168.028 7.79943C168.834 5.87677 170.729 4.52177 172.938 4.52177C174.156 4.52177 175.272 4.93967 176.167 5.63278L175.465 5.74152C175.226 5.77871 175.039 5.96906 175.007 6.20963C174.974 6.45008 175.104 6.68336 175.325 6.78278L179.182 8.52054C179.351 8.59657 179.547 8.58196 179.703 8.48167C179.859 8.38122 179.953 8.20884 179.954 8.02336L179.974 3.76724C179.976 3.52512 179.818 3.311 179.587 3.24042C179.356 3.16984 179.106 3.25942 178.972 3.46096L178.44 4.2611C177.022 2.86378 175.08 2 172.938 2C169.69 2 166.898 3.98582 165.707 6.80826C165.542 7.19948 165.584 7.64743 165.818 8.00136C166.052 8.35541 166.448 8.56889 166.872 8.56889Z" fill="url(#paint12_linear)"/>
<path d="M180.058 11.7152C179.824 11.3612 179.428 11.1477 179.004 11.1477C178.499 11.1477 178.043 11.4511 177.848 11.9172C177.042 13.8398 175.147 15.1948 172.938 15.1948C171.72 15.1948 170.604 14.7769 169.709 14.0838L170.41 13.9751C170.65 13.938 170.836 13.7476 170.869 13.507C170.901 13.2666 170.772 13.0332 170.551 12.9338L166.693 11.1961C166.524 11.1201 166.328 11.1346 166.173 11.2349C166.017 11.3354 165.922 11.5078 165.921 11.6932L165.901 15.9493C165.9 16.1914 166.058 16.4056 166.289 16.4761C166.52 16.5467 166.77 16.4571 166.904 16.2555L167.436 15.4554C168.853 16.8528 170.796 17.7166 172.938 17.7166C176.185 17.7166 178.977 15.7308 180.168 12.9083C180.334 12.5171 180.292 12.0692 180.058 11.7152Z" fill="url(#paint13_linear)"/>
</g>
<defs>
<filter id="filter0_d" x="0.00878906" y="127.266" width="337.991" height="110.733" filterUnits="userSpaceOnUse" color-interpolation-filters="sRGB">
<feFlood flood-opacity="0" result="BackgroundImageFix"/>
<feColorMatrix in="SourceAlpha" type="matrix" values="0 0 0 0 0 0 0 0 0 0 0 0 0 0 0 0 0 0 127 0"/>
<feOffset dx="2" dy="2"/>
<feGaussianBlur stdDeviation="2"/>
<feColorMatrix type="matrix" values="0 0 0 0 0 0 0 0 0 0 0 0 0 0 0 0 0 0 0.2 0"/>
<feBlend mode="normal" in2="BackgroundImageFix" result="effect1_dropShadow"/>
<feBlend mode="normal" in="SourceGraphic" in2="effect1_dropShadow" result="shape"/>
</filter>
<filter id="filter1_di" x="25.6582" y="12.6499" width="43.2204" height="43.2668" filterUnits="userSpaceOnUse" color-interpolation-filters="sRGB">
<feFlood flood-opacity="0" result="BackgroundImageFix"/>
<feColorMatrix in="SourceAlpha" type="matrix" values="0 0 0 0 0 0 0 0 0 0 0 0 0 0 0 0 0 0 127 0"/>
<feOffset dx="2" dy="2"/>
<feGaussianBlur stdDeviation="2"/>
<feColorMatrix type="matrix" values="0 0 0 0 0 0 0 0 0 0 0 0 0 0 0 0 0 0 0.15 0"/>
<feBlend mode="normal" in2="BackgroundImageFix" result="effect1_dropShadow"/>
<feBlend mode="normal" in="SourceGraphic" in2="effect1_dropShadow" result="shape"/>
<feColorMatrix in="SourceAlpha" type="matrix" values="0 0 0 0 0 0 0 0 0 0 0 0 0 0 0 0 0 0 127 0" result="hardAlpha"/>
<feOffset dx="-2" dy="-2"/>
<feGaussianBlur stdDeviation="2"/>
<feComposite in2="hardAlpha" operator="arithmetic" k2="-1" k3="1"/>
<feColorMatrix type="matrix" values="0 0 0 0 0 0 0 0 0 0 0 0 0 0 0 0 0 0 0.2 0"/>
<feBlend mode="normal" in2="shape" result="effect2_innerShadow"/>
</filter>
<filter id="filter2_di" x="266.835" y="31.8164" width="39.009" height="39.0499" filterUnits="userSpaceOnUse" color-interpolation-filters="sRGB">
<feFlood flood-opacity="0" result="BackgroundImageFix"/>
<feColorMatrix in="SourceAlpha" type="matrix" values="0 0 0 0 0 0 0 0 0 0 0 0 0 0 0 0 0 0 127 0"/>
<feOffset dx="2" dy="2"/>
<feGaussianBlur stdDeviation="2"/>
<feColorMatrix type="matrix" values="0 0 0 0 0 0 0 0 0 0 0 0 0 0 0 0 0 0 0.15 0"/>
<feBlend mode="normal" in2="BackgroundImageFix" result="effect1_dropShadow"/>
<feBlend mode="normal" in="SourceGraphic" in2="effect1_dropShadow" result="shape"/>
<feColorMatrix in="SourceAlpha" type="matrix" values="0 0 0 0 0 0 0 0 0 0 0 0 0 0 0 0 0 0 127 0" result="hardAlpha"/>
<feOffset dx="-2" dy="-2"/>
<feGaussianBlur stdDeviation="2"/>
<feComposite in2="hardAlpha" operator="arithmetic" k2="-1" k3="1"/>
<feColorMatrix type="matrix" values="0 0 0 0 0 0 0 0 0 0 0 0 0 0 0 0 0 0 0.2 0"/>
<feBlend mode="normal" in2="shape" result="effect2_innerShadow"/>
</filter>
<filter id="filter3_f" x="50.9902" y="150.987" width="105.637" height="45.4885" filterUnits="userSpaceOnUse" color-interpolation-filters="sRGB">
<feFlood flood-opacity="0" result="BackgroundImageFix"/>
<feBlend mode="normal" in="SourceGraphic" in2="BackgroundImageFix" result="shape"/>
<feGaussianBlur stdDeviation="1" result="effect1_foregroundBlur"/>
</filter>
<filter id="filter4_f" x="151.351" y="179.71" width="64.6954" height="25.5421" filterUnits="userSpaceOnUse" color-interpolation-filters="sRGB">
<feFlood flood-opacity="0" result="BackgroundImageFix"/>
<feBlend mode="normal" in="SourceGraphic" in2="BackgroundImageFix" result="shape"/>
<feGaussianBlur stdDeviation="1" result="effect1_foregroundBlur"/>
</filter>
<filter id="filter5_f" x="198.665" y="169.178" width="57.0491" height="29.8505" filterUnits="userSpaceOnUse" color-interpolation-filters="sRGB">
<feFlood flood-opacity="0" result="BackgroundImageFix"/>
<feBlend mode="normal" in="SourceGraphic" in2="BackgroundImageFix" result="shape"/>
<feGaussianBlur stdDeviation="1" result="effect1_foregroundBlur"/>
</filter>
<filter id="filter6_di" x="81.5757" y="27.0005" width="188.406" height="182.734" filterUnits="userSpaceOnUse" color-interpolation-filters="sRGB">
<feFlood flood-opacity="0" result="BackgroundImageFix"/>
<feColorMatrix in="SourceAlpha" type="matrix" values="0 0 0 0 0 0 0 0 0 0 0 0 0 0 0 0 0 0 127 0"/>
<feOffset dx="2" dy="2"/>
<feGaussianBlur stdDeviation="2"/>
<feColorMatrix type="matrix" values="0 0 0 0 0 0 0 0 0 0 0 0 0 0 0 0 0 0 0.15 0"/>
<feBlend mode="normal" in2="BackgroundImageFix" result="effect1_dropShadow"/>
<feBlend mode="normal" in="SourceGraphic" in2="effect1_dropShadow" result="shape"/>
<feColorMatrix in="SourceAlpha" type="matrix" values="0 0 0 0 0 0 0 0 0 0 0 0 0 0 0 0 0 0 127 0" result="hardAlpha"/>
<feOffset dx="-2" dy="-2"/>
<feGaussianBlur stdDeviation="2"/>
<feComposite in2="hardAlpha" operator="arithmetic" k2="-1" k3="1"/>
<feColorMatrix type="matrix" values="0 0 0 0 0 0 0 0 0 0 0 0 0 0 0 0 0 0 0.2 0"/>
<feBlend mode="normal" in2="shape" result="effect2_innerShadow"/>
</filter>
<filter id="filter7_di" x="222.427" y="156.4" width="48.1971" height="47.1" filterUnits="userSpaceOnUse" color-interpolation-filters="sRGB">
<feFlood flood-opacity="0" result="BackgroundImageFix"/>
<feColorMatrix in="SourceAlpha" type="matrix" values="0 0 0 0 0 0 0 0 0 0 0 0 0 0 0 0 0 0 127 0"/>
<feOffset dx="2" dy="2"/>
<feGaussianBlur stdDeviation="2"/>
<feColorMatrix type="matrix" values="0 0 0 0 0 0 0 0 0 0 0 0 0 0 0 0 0 0 0.15 0"/>
<feBlend mode="normal" in2="BackgroundImageFix" result="effect1_dropShadow"/>
<feBlend mode="normal" in="SourceGraphic" in2="effect1_dropShadow" result="shape"/>
<feColorMatrix in="SourceAlpha" type="matrix" values="0 0 0 0 0 0 0 0 0 0 0 0 0 0 0 0 0 0 127 0" result="hardAlpha"/>
<feOffset dx="-2" dy="-2"/>
<feGaussianBlur stdDeviation="2"/>
<feComposite in2="hardAlpha" operator="arithmetic" k2="-1" k3="1"/>
<feColorMatrix type="matrix" values="0 0 0 0 0 0 0 0 0 0 0 0 0 0 0 0 0 0 0.2 0"/>
<feBlend mode="normal" in2="shape" result="effect2_innerShadow"/>
</filter>
<filter id="filter8_f" x="147.847" y="146.2" width="16.5855" height="46.9246" filterUnits="userSpaceOnUse" color-interpolation-filters="sRGB">
<feFlood flood-opacity="0" result="BackgroundImageFix"/>
<feBlend mode="normal" in="SourceGraphic" in2="BackgroundImageFix" result="shape"/>
<feGaussianBlur stdDeviation="1" result="effect1_foregroundBlur"/>
</filter>
<filter id="filter9_f" x="127.614" y="142.53" width="29.6485" height="40.7018" filterUnits="userSpaceOnUse" color-interpolation-filters="sRGB">
<feFlood flood-opacity="0" result="BackgroundImageFix"/>
<feBlend mode="normal" in="SourceGraphic" in2="BackgroundImageFix" result="shape"/>
<feGaussianBlur stdDeviation="1" result="effect1_foregroundBlur"/>
</filter>
<filter id="filter10_f" x="201.95" y="175.699" width="93.9687" height="54.468" filterUnits="userSpaceOnUse" color-interpolation-filters="sRGB">
<feFlood flood-opacity="0" result="BackgroundImageFix"/>
<feBlend mode="normal" in="SourceGraphic" in2="BackgroundImageFix" result="shape"/>
<feGaussianBlur stdDeviation="12.5" result="effect1_foregroundBlur"/>
</filter>
<filter id="filter11_f" x="21.0396" y="170.933" width="50.6769" height="18.521" filterUnits="userSpaceOnUse" color-interpolation-filters="sRGB">
<feFlood flood-opacity="0" result="BackgroundImageFix"/>
<feBlend mode="normal" in="SourceGraphic" in2="BackgroundImageFix" result="shape"/>
<feGaussianBlur stdDeviation="1" result="effect1_foregroundBlur"/>
</filter>
<filter id="filter12_di" x="27.2134" y="69.3455" width="63.5084" height="61.8505" filterUnits="userSpaceOnUse" color-interpolation-filters="sRGB">
<feFlood flood-opacity="0" result="BackgroundImageFix"/>
<feColorMatrix in="SourceAlpha" type="matrix" values="0 0 0 0 0 0 0 0 0 0 0 0 0 0 0 0 0 0 127 0"/>
<feOffset dx="2" dy="2"/>
<feGaussianBlur stdDeviation="2"/>
<feColorMatrix type="matrix" values="0 0 0 0 0 0 0 0 0 0 0 0 0 0 0 0 0 0 0.15 0"/>
<feBlend mode="normal" in2="BackgroundImageFix" result="effect1_dropShadow"/>
<feBlend mode="normal" in="SourceGraphic" in2="effect1_dropShadow" result="shape"/>
<feColorMatrix in="SourceAlpha" type="matrix" values="0 0 0 0 0 0 0 0 0 0 0 0 0 0 0 0 0 0 127 0" result="hardAlpha"/>
<feOffset dx="-2" dy="-2"/>
<feGaussianBlur stdDeviation="2"/>
<feComposite in2="hardAlpha" operator="arithmetic" k2="-1" k3="1"/>
<feColorMatrix type="matrix" values="0 0 0 0 0 0 0 0 0 0 0 0 0 0 0 0 0 0 0.2 0"/>
<feBlend mode="normal" in2="shape" result="effect2_innerShadow"/>
</filter>
<filter id="filter13_f" x="58.8625" y="123.261" width="6.521" height="2.15801" filterUnits="userSpaceOnUse" color-interpolation-filters="sRGB">
<feFlood flood-opacity="0" result="BackgroundImageFix"/>
<feBlend mode="normal" in="SourceGraphic" in2="BackgroundImageFix" result="shape"/>
<feGaussianBlur stdDeviation="0.1" result="effect1_foregroundBlur"/>
</filter>
<filter id="filter14_f" x="59.5778" y="122.665" width="6.11814" height="1.88951" filterUnits="userSpaceOnUse" color-interpolation-filters="sRGB">
<feFlood flood-opacity="0" result="BackgroundImageFix"/>
<feBlend mode="normal" in="SourceGraphic" in2="BackgroundImageFix" result="shape"/>
<feGaussianBlur stdDeviation="0.1" result="effect1_foregroundBlur"/>
</filter>
<filter id="filter15_f" x="58.114" y="124.151" width="4.38719" height="1.75697" filterUnits="userSpaceOnUse" color-interpolation-filters="sRGB">
<feFlood flood-opacity="0" result="BackgroundImageFix"/>
<feBlend mode="normal" in="SourceGraphic" in2="BackgroundImageFix" result="shape"/>
<feGaussianBlur stdDeviation="0.1" result="effect1_foregroundBlur"/>
</filter>
<filter id="filter16_di" x="163.09" y="0" width="23.696" height="23.7167" filterUnits="userSpaceOnUse" color-interpolation-filters="sRGB">
<feFlood flood-opacity="0" result="BackgroundImageFix"/>
<feColorMatrix in="SourceAlpha" type="matrix" values="0 0 0 0 0 0 0 0 0 0 0 0 0 0 0 0 0 0 127 0"/>
<feOffset dx="2" dy="2"/>
<feGaussianBlur stdDeviation="2"/>
<feColorMatrix type="matrix" values="0 0 0 0 0 0 0 0 0 0 0 0 0 0 0 0 0 0 0.15 0"/>
<feBlend mode="normal" in2="BackgroundImageFix" result="effect1_dropShadow"/>
<feBlend mode="normal" in="SourceGraphic" in2="effect1_dropShadow" result="shape"/>
<feColorMatrix in="SourceAlpha" type="matrix" values="0 0 0 0 0 0 0 0 0 0 0 0 0 0 0 0 0 0 127 0" result="hardAlpha"/>
<feOffset dx="-2" dy="-2"/>
<feGaussianBlur stdDeviation="2"/>
<feComposite in2="hardAlpha" operator="arithmetic" k2="-1" k3="1"/>
<feColorMatrix type="matrix" values="0 0 0 0 0 0 0 0 0 0 0 0 0 0 0 0 0 0 0.2 0"/>
<feBlend mode="normal" in2="shape" result="effect2_innerShadow"/>
</filter>
<linearGradient id="paint0_linear" x1="61.7929" y1="32.2833" x2="28.7003" y2="31.5737" gradientUnits="userSpaceOnUse">
<stop stop-color="#A62E41"/>
<stop offset="1" stop-color="#E13152"/>
</linearGradient>
<linearGradient id="paint1_linear" x1="82.3025" y1="150.115" x2="136.444" y2="192.353" gradientUnits="userSpaceOnUse">
<stop stop-color="#B4D1FA" stop-opacity="0"/>
<stop offset="1" stop-opacity="0.2"/>
</linearGradient>
<linearGradient id="paint2_linear" x1="151.12" y1="159.211" x2="205.261" y2="201.45" gradientUnits="userSpaceOnUse">
<stop stop-color="#B4D1FA" stop-opacity="0"/>
<stop offset="1" stop-opacity="0.2"/>
</linearGradient>
<linearGradient id="paint3_linear" x1="185.69" y1="162.721" x2="253.933" y2="207.049" gradientUnits="userSpaceOnUse">
<stop stop-color="#B4D1FA" stop-opacity="0"/>
<stop offset="1" stop-opacity="0.2"/>
</linearGradient>
<linearGradient id="paint4_linear" x1="173.779" y1="29.0005" x2="173.779" y2="203.735" gradientUnits="userSpaceOnUse">
<stop stop-color="#AFCDFB"/>
<stop offset="1" stop-color="#5E89CA"/>
</linearGradient>
<linearGradient id="paint5_linear" x1="94.4066" y1="152.349" x2="162.65" y2="196.678" gradientUnits="userSpaceOnUse">
<stop stop-color="#B4D1FA" stop-opacity="0"/>
<stop offset="1" stop-opacity="0.2"/>
</linearGradient>
<linearGradient id="paint6_linear" x1="130.41" y1="127.456" x2="146.966" y2="164.415" gradientUnits="userSpaceOnUse">
<stop stop-color="#B4D1FA" stop-opacity="0"/>
<stop offset="1" stop-opacity="0.2"/>
</linearGradient>
<linearGradient id="paint7_linear" x1="30.049" y1="161.125" x2="50.9616" y2="192.165" gradientUnits="userSpaceOnUse">
<stop stop-color="#B4D1FA" stop-opacity="0"/>
<stop offset="1" stop-opacity="0.2"/>
</linearGradient>
<linearGradient id="paint8_linear" x1="157.174" y1="147.584" x2="165.784" y2="202.039" gradientUnits="userSpaceOnUse">
<stop stop-color="#A62E41"/>
<stop offset="1" stop-color="#E13152"/>
</linearGradient>
<linearGradient id="paint9_linear" x1="184.07" y1="158.039" x2="131.8" y2="156.29" gradientUnits="userSpaceOnUse">
<stop stop-color="#A62E41"/>
<stop offset="1" stop-color="#E13152"/>
</linearGradient>
<linearGradient id="paint10_linear" x1="82.5359" y1="100.606" x2="31.2738" y2="94.98" gradientUnits="userSpaceOnUse">
<stop stop-color="#A62E41"/>
<stop offset="1" stop-color="#E13152"/>
</linearGradient>
<linearGradient id="paint11_linear" x1="154.782" y1="134.009" x2="132.454" y2="134.468" gradientUnits="userSpaceOnUse">
<stop stop-color="#71A0DD" stop-opacity="0"/>
<stop offset="1" stop-color="#71A0DD" stop-opacity="0.5"/>
</linearGradient>
<linearGradient id="paint12_linear" x1="179.532" y1="5.28445" x2="166.056" y2="4.65164" gradientUnits="userSpaceOnUse">
<stop stop-color="#A62E41"/>
<stop offset="1" stop-color="#E13152"/>
</linearGradient>
<linearGradient id="paint13_linear" x1="179.825" y1="14.4321" x2="166.35" y2="13.7993" gradientUnits="userSpaceOnUse">
<stop stop-color="#A62E41"/>
<stop offset="1" stop-color="#E13152"/>
</linearGradient>
<clipPath id="clip0">
<rect width="10.035" height="10.0514" fill="white" transform="translate(138.232 120.356) rotate(2.49827)"/>
</clipPath>
<clipPath id="clip1">
<rect width="4.6056" height="2.51562" fill="white" transform="matrix(0.998462 0.0531803 -0.053017 0.998716 165.17 102.16)"/>
</clipPath>
<clipPath id="clip2">
<rect width="15.696" height="15.7167" fill="white" transform="translate(165.09 2)"/>
</clipPath>
</defs>
</svg>
