<svg width="47" height="49" fill="none" xmlns="http://www.w3.org/2000/svg"><g filter="url(#filter0_di)"><path d="M5.655 19.136a3.274 3.274 0 003.019-2.007c2.105-5.016 7.055-8.55 12.826-8.55 3.18 0 6.096 1.09 8.434 2.898l-1.832.284a1.429 1.429 0 00-.367 2.716L37.81 19.01a1.432 1.432 0 002.017-1.297L39.88 6.61a1.429 1.429 0 00-2.62-.799L35.873 7.9C32.169 4.253 27.095 2 21.5 2 13.017 2 5.723 7.18 2.613 14.543a3.303 3.303 0 003.042 4.593z" fill="url(#paint0_linear)"/><path d="M40.099 27.344a3.304 3.304 0 00-2.754-1.48 3.274 3.274 0 00-3.019 2.007c-2.105 5.016-7.055 8.55-12.826 8.55-3.18 0-6.096-1.09-8.434-2.898l1.832-.283a1.43 1.43 0 00.368-2.717L5.189 25.99a1.432 1.432 0 00-2.017 1.297L3.12 38.39a1.428 1.428 0 002.62.799L7.128 37.1C10.831 40.747 15.905 43 21.5 43c8.483 0 15.776-5.18 18.887-12.543a3.303 3.303 0 00-.288-3.113z" fill="url(#paint1_linear)"/></g><defs><linearGradient id="paint0_linear" x1="38.723" y1="10.568" x2="3.524" y2="8.913" gradientUnits="userSpaceOnUse"><stop stop-color="#A62E41"/><stop offset="1" stop-color="#E13152"/></linearGradient><linearGradient id="paint1_linear" x1="39.492" y1="34.432" x2="4.292" y2="32.777" gradientUnits="userSpaceOnUse"><stop stop-color="#A62E41"/><stop offset="1" stop-color="#E13152"/></linearGradient><filter id="filter0_di" x="-1" y="0" width="49" height="49" filterUnits="userSpaceOnUse" color-interpolation-filters="sRGB"><feFlood flood-opacity="0" result="BackgroundImageFix"/><feColorMatrix in="SourceAlpha" values="0 0 0 0 0 0 0 0 0 0 0 0 0 0 0 0 0 0 127 0"/><feOffset dx="2" dy="2"/><feGaussianBlur stdDeviation="2"/><feColorMatrix values="0 0 0 0 0 0 0 0 0 0 0 0 0 0 0 0 0 0 0.15 0"/><feBlend in2="BackgroundImageFix" result="effect1_dropShadow"/><feBlend in="SourceGraphic" in2="effect1_dropShadow" result="shape"/><feColorMatrix in="SourceAlpha" values="0 0 0 0 0 0 0 0 0 0 0 0 0 0 0 0 0 0 127 0" result="hardAlpha"/><feOffset dx="-2" dy="-2"/><feGaussianBlur stdDeviation="2"/><feComposite in2="hardAlpha" operator="arithmetic" k2="-1" k3="1"/><feColorMatrix values="0 0 0 0 0 0 0 0 0 0 0 0 0 0 0 0 0 0 0.2 0"/><feBlend in2="shape" result="effect2_innerShadow"/></filter></defs></svg>