<svg width="340" height="235" fill="none" xmlns="http://www.w3.org/2000/svg"><g clip-path="url(#clip0)"><g filter="url(#filter0_d)"><path d="M173.88 231.85L5.009 178.94l158.548-49.824L335 178.94l-161.12 52.91z" fill="#F1F5FB"/></g><g filter="url(#filter1_di)"><path d="M64.709 38.453a17.628 17.628 0 01-7.318 8.763 17.592 17.592 0 01-11.147 2.434l.676-5.85a11.72 11.72 0 007.424-1.621 11.74 11.74 0 004.874-5.837l5.49 2.11z" fill="#71A0DD"/><path d="M39.463 16.862a17.592 17.592 0 0119.744 1.452 17.654 17.654 0 015.92 18.916l-5.63-1.702a11.76 11.76 0 00-3.944-12.598 11.719 11.719 0 00-13.149-.967l-2.94-5.1z" fill="#0A3D76"/><path d="M44.607 49.381a17.607 17.607 0 01-10.14-6.295l4.61-3.658a11.726 11.726 0 006.753 4.193l-1.223 5.76z" fill="#F985A0"/><path d="M33.334 41.478a17.652 17.652 0 014.683-23.682l3.424 4.788a11.757 11.757 0 00-3.119 15.772l-4.988 3.122z" fill="url(#paint0_linear)"/></g><g filter="url(#filter2_di)"><path d="M301.814 54.755a15.519 15.519 0 01-5.23 6.9l-9.244-12.464 14.474 5.564z" fill="#71A0DD"/><path d="M276 38.603a15.488 15.488 0 0119.602-2.55 15.523 15.523 0 016.467 8.29 15.546 15.546 0 01-.294 10.513l-14.435-5.665L276 38.603z" fill="#0A3D76"/><path d="M296.67 61.59a15.493 15.493 0 01-11.488 2.975l2.158-15.373 9.33 12.398z" fill="#71A0DD"/><path d="M285.286 64.58a15.49 15.49 0 01-7.762-3.371 15.525 15.525 0 01-4.84-6.95 15.547 15.547 0 013.556-15.907l11.1 10.84-2.054 15.388z" fill="#B4D1FA"/></g><g filter="url(#filter3_f)"><path d="M128.952 194.325l28.675-7.659-40.463-33.829L55.99 170.39l72.962 23.935z" fill="url(#paint1_linear)"/></g><g filter="url(#filter4_f)"><path d="M198.248 203.103l18.798-10.053-35.844-11.489-24.851 7.659 41.897 13.883z" fill="url(#paint2_linear)"/></g><g filter="url(#filter5_f)"><path d="M203.665 179.486l35.366 15.797 13.381 1.596 4.302-1.596-40.464-24.255-12.585 8.458z" fill="url(#paint3_linear)"/></g><path d="M228.1 19.09c2.94 0 4.62-1.62 5.58-3.28l-2.44-1.18c-.56 1.1-1.76 1.94-3.14 1.94-2.42 0-4.18-1.86-4.18-4.38 0-2.52 1.76-4.38 4.18-4.38 1.38 0 2.58.86 3.14 1.94l2.44-1.2c-.94-1.66-2.64-3.26-5.58-3.26-4 0-7.1 2.8-7.1 6.9 0 4.1 3.1 6.9 7.1 6.9zm18.07-.24l-3-5.08c1.44-.34 2.92-1.6 2.92-3.96 0-2.48-1.7-4.3-4.48-4.3h-6.24v13.34h2.84v-4.74h2.08l2.62 4.74h3.26zm-4.98-7.24h-2.98v-3.6h2.98c1.14 0 2 .68 2 1.8s-.86 1.8-2 1.8zm21.492 7.24V5.51h-4l-3.24 8.06-3.24-8.06h-3.98v13.34h2.84V9.51l3.76 9.34h1.24l3.76-9.34v9.34h2.86z" fill="#EBF2F9"/><g filter="url(#filter6_di)"><path d="M264.952 134.875l-15.809-9.541a4.098 4.098 0 01-1.933-3.813c.162-1.957.242-3.934.241-5.932a68.969 68.969 0 00-.826-10.874 4.048 4.048 0 011.914-4.136l16.514-9.987a3.972 3.972 0 001.51-5.186L258.79 69.55a3.917 3.917 0 00-4.834-1.957l-16.695 6.073c-1.611.626-3.444.081-4.534-1.331a71.392 71.392 0 00-16.391-15.418 4.07 4.07 0 01-1.511-4.721l3.706-10.169a4.121 4.121 0 00-2.013-5.045l-15.728-7.706a3.579 3.579 0 00-.991-.343 3.934 3.934 0 00-4.19 1.856l-7.127 11.821-1.733 2.886a70.403 70.403 0 00-9.948-.71 71.541 71.541 0 00-13.252 1.231 3.938 3.938 0 01-4.129-1.835l-8.015-13.343a4.077 4.077 0 00-5.288-1.544l-12.104 5.951-3.464 1.715a4.137 4.137 0 00-2.075 5.126l5.056 13.981a3.944 3.944 0 01-1.209 4.479 70.769 70.769 0 00-10.653 10.774 12.39 12.39 0 00-.807.994 2.129 2.129 0 01-.283.322 4.023 4.023 0 01-4.35 1.01l-16.5-5.998a2.909 2.909 0 00-.566-.162 4.086 4.086 0 00-4.45 2.18l-7.694 15.695a4.088 4.088 0 001.55 5.288l16.494 9.946a3.945 3.945 0 011.873 4.055 72.317 72.317 0 00-.584 16.801 4.166 4.166 0 01-1.993 3.895l-15.87 9.604a3.982 3.982 0 00-1.51 5.144l7.714 15.676a4.134 4.134 0 005.136 2.078l13.211-4.802a4.058 4.058 0 014.773 1.561 71.232 71.232 0 0014.763 16.242 4.048 4.048 0 011.288 4.58l-5.397 14.89a4.195 4.195 0 00.056 2.977 4.183 4.183 0 002.018 2.187l15.608 7.688a3.994 3.994 0 005.196-1.533l.425-.687 8.276-13.739a4.09 4.09 0 014.251-1.918h.02c4.121.74 8.3 1.111 12.487 1.11 2.275 0 4.51-.12 6.745-.322a4.006 4.006 0 013.847 1.916l8.136 13.539a4.15 4.15 0 002.382 1.848 4.135 4.135 0 003.002-.256l15.586-7.686c.426-.22.814-.508 1.149-.851a4.145 4.145 0 00.885-4.198l-4.067-11.157a4.134 4.134 0 01.708-3.994 4.42 4.42 0 01.85-.766 70.956 70.956 0 0019.777-19.894 3.988 3.988 0 014.028-1.736c.226.042.449.103.665.182l13.352 4.863a4.055 4.055 0 005.015-2.018l.181-.364 7.51-15.293a4.141 4.141 0 00-1.602-5.343zm-124.804-30.163a47.51 47.51 0 013.182-8.252c2.619-5.266 9.082-11.782 14.36-14.385.567-.284 1.134-.545 1.692-.808 34.518-15.535 67.809 18.42 51.073 53.022-2.195 4.52-7.049 9.827-11.781 13.114a25.222 25.222 0 01-3.222 1.898c-4.818 2.339-9.607 3.712-14.28 4.237-26.624 2.965-48.536-21.548-41.024-48.826z" fill="url(#paint4_linear)"/></g><g filter="url(#filter7_di)"><path d="M267.17 181.975l-3.523-2.135a.911.911 0 01-.425-.854c.037-.438.055-.881.055-1.328a15.42 15.42 0 00-.187-2.428.9.9 0 01.425-.925l3.679-2.235a.893.893 0 00.337-1.16l-1.732-3.55a.877.877 0 00-1.079-.439l-3.721 1.36a.869.869 0 01-1.009-.298 15.964 15.964 0 00-3.654-3.45.915.915 0 01-.336-1.056l.825-2.278a.923.923 0 00-.448-1.129l-3.507-1.725a.872.872 0 00-.752-.019.88.88 0 00-.401.358l-1.589 2.646-.386.646a15.817 15.817 0 00-5.17.117.876.876 0 01-.92-.41l-1.787-2.989a.908.908 0 00-1.18-.349l-2.698 1.332-.771.385a.923.923 0 00-.463 1.147l1.132 3.132a.889.889 0 01-.269.996 15.92 15.92 0 00-2.374 2.411 2.727 2.727 0 00-.18.222.392.392 0 01-.064.071.889.889 0 01-.969.227l-3.679-1.341a.666.666 0 00-.125-.037.905.905 0 00-.991.488l-1.715 3.513a.916.916 0 00.347 1.183l3.679 2.226a.887.887 0 01.424.908 16.168 16.168 0 00-.13 3.761.94.94 0 01-.444.873l-3.538 2.148a.892.892 0 00-.336 1.153l1.719 3.507a.914.914 0 001.144.465l2.945-1.074a.9.9 0 011.064.347 15.839 15.839 0 003.29 3.635.91.91 0 01.283 1.025l-1.203 3.332a.937.937 0 00.463 1.156l3.477 1.721a.888.888 0 001.158-.343l.095-.154 1.839-3.074a.91.91 0 01.947-.427 15.645 15.645 0 004.287.176.893.893 0 01.857.427l1.813 3.029a.926.926 0 001.2.358l3.473-1.721a.996.996 0 00.257-.19.927.927 0 00.196-.939l-.907-2.497a.939.939 0 01.157-.894c.056-.065.12-.123.19-.172a15.847 15.847 0 004.407-4.452.894.894 0 01.897-.389c.051.01.101.024.149.041l2.971 1.089a.902.902 0 001.118-.452l.041-.082 1.674-3.416a.933.933 0 00-.352-1.2zm-27.815-6.745c.178-.638.415-1.258.708-1.851.582-1.178 2.024-2.637 3.2-3.219.126-.063.251-.123.376-.181 7.695-3.476 15.113 4.128 11.384 11.867-.49 1.012-1.571 2.199-2.627 2.935-.228.16-.468.303-.717.427a9.701 9.701 0 01-3.182.948c-5.933.66-10.816-4.827-9.142-10.926z" fill="#F985A0"/></g><path d="M306.782 108.292l-2.122-1.289a.561.561 0 01-.26-.517 9.654 9.654 0 00-.078-2.272.55.55 0 01.257-.56l2.217-1.349a.536.536 0 00.202-.701l-1.044-2.146a.525.525 0 00-.648-.264l-2.241.821a.53.53 0 01-.608-.18 9.612 9.612 0 00-2.2-2.084.55.55 0 01-.203-.638l.497-1.377a.553.553 0 00-.27-.681l-2.111-1.042a.524.524 0 00-.694.204l-.957 1.599-.233.39a9.543 9.543 0 00-3.114.071.52.52 0 01-.553-.249l-1.076-1.803a.548.548 0 00-.711-.21l-1.624.803-.465.23a.556.556 0 00-.278.693l.678 1.89a.53.53 0 01.016.329.532.532 0 01-.178.276 9.55 9.55 0 00-1.431 1.457c-.04.043-.072.087-.108.133a.538.538 0 01-.621.18l-2.214-.81a.546.546 0 00-.673.273l-1.032 2.123a.552.552 0 00.208.714l2.214 1.345a.532.532 0 01.251.548 9.88 9.88 0 00-.114 1.478c0 .268.011.532.033.794a.57.57 0 01-.268.526l-2.13 1.298a.537.537 0 00-.202.696l1.035 2.119a.556.556 0 00.689.28l1.773-.648a.537.537 0 01.64.21 9.638 9.638 0 001.982 2.195.547.547 0 01.17.619l-.724 2.013a.568.568 0 00.278.698l2.095 1.039a.535.535 0 00.697-.207l.057-.093 1.111-1.857a.545.545 0 01.568-.259 9.42 9.42 0 002.581.106.541.541 0 01.516.259l1.093 1.83a.553.553 0 00.721.216l2.092-1.039a.553.553 0 00.292-.382.557.557 0 00-.019-.3l-.546-1.508a.579.579 0 01-.023-.283.571.571 0 01.232-.361 9.546 9.546 0 002.654-2.689.532.532 0 01.63-.21l1.792.657a.546.546 0 00.673-.272l.024-.05 1.009-2.065a.564.564 0 00-.204-.717zm-16.752-4.078c.108-.384.251-.758.427-1.116.352-.711 1.219-1.592 1.928-1.944.075-.038.151-.074.227-.109 4.633-2.1 9.101 2.49 6.855 7.167-.295.611-.946 1.328-1.582 1.773a3.294 3.294 0 01-.432.256c-.602.3-1.25.494-1.917.574-3.573.403-6.512-2.913-5.506-6.601zM127.181 23.302l-3.462-1.61a.849.849 0 01-.483-.74 14.46 14.46 0 00-.082-1.223 14.118 14.118 0 00-.412-2.214.838.838 0 01.303-.889l3.173-2.418a.82.82 0 00.196-1.099l-1.951-3.082a.812.812 0 00-1.037-.294l-3.3 1.617a.812.812 0 01-.963-.175 14.76 14.76 0 00-3.714-2.8.842.842 0 01-.415-.934l.535-2.171a.849.849 0 00-.525-.99l-3.406-1.227a.814.814 0 00-1.03.426l-1.203 2.586-.292.63a14.776 14.776 0 00-4.757.623.81.81 0 01-.889-.284l-1.945-2.559a.841.841 0 00-1.124-.2l-2.355 1.49-.675.429a.854.854 0 00-.312 1.098l1.35 2.758a.812.812 0 01-.152.95 14.684 14.684 0 00-1.947 2.454c-.052.07-.1.144-.144.22a.831.831 0 01-.927.377l-3.525-.862a.847.847 0 00-.986.526l-1.232 3.394a.843.843 0 00.438 1.052l3.613 1.674a.812.812 0 01.475.79 14.934 14.934 0 00.254 3.463.86.86 0 01-.323.844l-3.05 2.326a.82.82 0 00-.196 1.089l1.935 3.047a.857.857 0 001.102.312l2.61-1.28a.84.84 0 011.018.205 14.715 14.715 0 003.396 3.005.835.835 0 01.367.912l-.776 3.181a.863.863 0 00.542 1.014l3.379 1.227a.829.829 0 001.035-.43l.071-.15 1.396-3.006a.847.847 0 01.832-.488 14.604 14.604 0 003.972-.267.828.828 0 01.834.307l1.973 2.599a.86.86 0 001.139.207l3.035-1.928a.935.935 0 00.217-.2.858.858 0 00.087-.882l-1.079-2.195a.86.86 0 01.056-.836.91.91 0 01.157-.176 14.675 14.675 0 003.623-4.523.82.82 0 01.929-.425l2.853.701a.84.84 0 00.987-.525l.029-.078 1.204-3.308a.854.854 0 00-.446-1.065zm-26.33-3.41a9.793 9.793 0 01.471-1.765c.421-1.139 1.604-2.62 2.628-3.273.109-.07.22-.137.329-.203 6.752-3.96 14.351 2.27 11.68 9.746-.35.977-1.226 2.175-2.13 2.955-.195.17-.403.324-.621.462a9.07 9.07 0 01-2.841 1.188c-5.403 1.203-10.449-3.341-9.516-9.11z" fill="#EBF2F9"/><g clip-path="url(#clip1)"><path fill-rule="evenodd" clip-rule="evenodd" d="M151.043 126.444v1.513s-2.722-.251-3.726-.251c-1.003.001-.539-.06-1.542.252-.753.251-.903.502-1.405.58-.343.052-.778.221-1.003.137-.226-.084-.238.006-.603-.214s-.638-.43-.614-.738a1.83 1.83 0 01.113-.519l-.214-.099c-.131-.096-.224-.137-.265-.297a.728.728 0 01.043-.478c.069-.136.114-.18.222-.18 0 0-.509-.257-.539-.453-.03-.197-.05-.268.089-.404s.257-.115.257-.115-.57-.108-.414-.622c.157-.514.373-.519.423-.544.287-.106.596-.135.897-.084.42.079.394.128.757.101.364-.027.874-.086.874-.086s-.722-.669-1.02-1.299c-.299-.63-.313-1.416-.107-1.722.207-.306.473 0 .585.136.111.135.237.664.67 1.12.433.457 1.255 1.428 1.542 1.749.288.322.549 1.002 1.505 1.518.898.484 3.475.999 3.475.999z" fill="#FFCFAE"/><path fill-rule="evenodd" clip-rule="evenodd" d="M146.5 126.631c-.394.014-.981-.311-1.356-.867a2.479 2.479 0 01-.423-1.335s.043-.466-.429-.993c-.473-.527-.679-.797-.845-1.158-.138-.303-.108-1.181-.094-1.467a.85.85 0 00-.087.111c-.206.306-.193 1.091.107 1.722.299.631 1.022 1.296 1.022 1.296s.168.464.203.701c.035.238-.003 1.048.367 1.565.371.517 1.107.993 1.164 1.027.056.033-.232-.22-.317-.28-.084-.06 1.098-.298 1.098-.298s-.017-.034-.41-.024z" fill="#EBBE9F"/><path fill-rule="evenodd" clip-rule="evenodd" d="M147.524 125.64c.379.474-.109.86-.248.977-.138.117.879-.465.879-.465l2.837.321-.024-.029s-1.916-.268-2.813-.751c-1.132-.289-1.804-1.433-2.092-1.756-.225-.251-1.18-1.376-1.708-1.964-.008-.01-.327-.539-.337-.548.016.062.19.669.218.727.118.238.201.26.155.327-.046.067.192.052.192.052a.514.514 0 01-.056.158c-.032.043.064.059.211.022.146-.036.425.695.706.907.281.212.345.267.619.762s1.084.786 1.461 1.26z" fill="#F5C5A5"/><path d="M144.52 126.916c.014-.035.181-.178.188-.213.063 0 .063-.252.05-.428-.081-.076-.237-.326-.401-.299.164-.027.144-.193.153-.343a.885.885 0 00-.24-.438c.195-.061.289-.315.291-.431.001-.115-.362-.343-.59-.429-.229-.087-1.069-.147-1.101-.177.151.015 1.338.117 1.492.226.04.043.249.043.258.098.037.386.107 1.494.438 1.875.374.431 1.117.832 1.17.86-.249.083-.49.182-.722.294-.415.196-.599.631-.946.768-.752.251-1.252.036-1.294-.069.193-.096.852-.273 1.091-.54.414-.465.22-.701.163-.754z" fill="#F5C5A5"/><path d="M141.761 125.195c.849.069 2.364.127 2.558-.027.242-.194.463-.744-.558-.862l-1.021-.119m.524 4.023c.586-.251 1.656-.653 1.255-1.256-.084-.084-.552-.151-1.756.251m1.681-.288c.464-.188.464-.69-.037-.941" stroke="#EBBE9F" stroke-width=".1"/><path d="M142.012 126.134c.685.014 1.82.043 2.257-.107.452-.155.226-.667 0-.845" stroke="#EBBE9F" stroke-width=".1"/></g><g filter="url(#filter8_f)"><path d="M161.927 150.124l-9.08-2.074c3.153 16.267 4.798 25.416 2.549 42.924l10.036-6.063c-7.812-5.468-5.048-17.534-3.505-34.787z" fill="url(#paint5_linear)"/></g><g filter="url(#filter9_f)"><path d="M158.263 150.284l-7.488-5.904-17.046 28.245-1.115 8.457s13.634-18.339 25.649-30.798z" fill="url(#paint6_linear)"/></g><g filter="url(#filter10_f)"><ellipse cx="251.935" cy="202.783" rx="21.984" ry="2.234" fill="#0A3D76" fill-opacity=".15"/></g><g filter="url(#filter11_f)"><path d="M39.9 187.304l-13.86-8.298 10.673-2.999 11.47-3.224 24.533 8.617-3.345 2.394-32.658-7.787 14.338 11.297H39.899z" fill="url(#paint7_linear)"/></g><path d="M170.403 108.169c7.626 1.581 9.954 2.321 14.455-1.772 0 0 .311-10.584-2.86-16.255-3.172-5.67-6.234-6.623-10.514-5.09 0 0-1.004-.846-2.901.53-7.761 5.627-2.555 16.181 1.82 22.587z" fill="#412716"/><path d="M180.085 87.132c-2.289 1.63-4.328.772-7.003 1.23-3.801.696-3.797 5.027-6.583 3.736-1.046 11.731-1.132 16.892 2.618 25.367 7.666 3.866 10.063 7.429 13.856.947 0 0 4.259-14.817.349-25.12-.309-.878-2.914-5.429-3.237-6.16z" fill="#3C2415"/><path d="M172.159 120.203s-.686-8.644-.144-11.145c-.017-1.532-.088-3.64-.367-4.879l5.089-2.767c.027-.121-.115 6.549 1.418 10.195 1.032-.153-2.726 7.83-2.726 7.83l-3.27.766z" fill="#FFCFAE"/><path d="M177.01 102.684c-3.263 1.697-1.34.635-3.357 1.648l-1.579 1.001.007.113c.069.842.84 1.698 1.635 1.418 1.031-.364 1.96-1.589 2.979-3.622l.315-.558z" fill="#F5B994"/><path d="M167.263 99.82c1.189 3.032 2.188 6.815 4.974 6.03 2.786-.785 4.736-1.916 5.294-3.022.724-1.437.604-2.252.519-4.539-.108-2.877-.236-5.06-.54-5.79-2.64-5.36-4.433-4.953-6.215-4.816-3.563 1.281-5.273 2.627-4.925 7.206.04.528.172 3.093.893 4.93z" fill="#FFCFAE"/><path d="M173.975 94.754c-.372-.137-.478-.084-.997-.062-.232.042-.455.12-.661.23 0 0-.428.628-.479.71-.087.147-.023.307.145.326.168.02.341-.046.484-.02 1.096.158 1.335.226 1.902-.078.228-.113.44-.258.631-.433a3.01 3.01 0 00-1.025-.673z" fill="#fff"/><path d="M172.809 94.955c-.304.024-.476.343-.384.713.024.096.104.3.235.284.052-.006.573.097.816.11a.57.57 0 00.069-.178.783.783 0 00-.017-.302c-.093-.37-.415-.65-.719-.627z" fill="#28160D" stroke="#1C1105" stroke-width=".2" stroke-miterlimit="10"/><path d="M173.062 95.973c.159-.013.249-.18.2-.374-.048-.195-.216-.342-.375-.33-.159.013-.249.18-.201.375.048.194.216.341.376.329z" fill="#000"/><path opacity=".77" d="M173.307 95.673c.085-.007.134-.097.108-.201-.026-.105-.117-.184-.202-.177-.086.006-.134.096-.108.2.026.105.116.185.202.178z" fill="#fff"/><path d="M171.827 95.867l.502-.834a.38.38 0 01.187-.16l.243-.09a1.01 1.01 0 01.394-.057l.665.035c.135.007.272.05.4.127l.747.459.221.005-.73-.651a1.03 1.03 0 00-.481-.155l-.663-.035a1.108 1.108 0 00-.451.068l-.243.09a1.04 1.04 0 00-.437.226l-.587 1.015.233-.043z" fill="#D3A688"/><path opacity=".5" d="M171.759 95.895l.503-.842a.446.446 0 01.222-.192l.243-.09c.138-.051.285-.073.435-.064l.666.035a.91.91 0 01.441.144l.738.462" stroke="#0A0001" stroke-width=".3" stroke-miterlimit="10"/><path d="M171.799 95.919l.276-.012a1.61 1.61 0 01.44.041c.352.056 1.09.26 1.678-.007.036-.018.288-.226.321-.254l.322-.255" stroke="#472A22" stroke-width=".2" stroke-miterlimit="10"/><path d="M167.147 95.37c.265-.15.367-.118.795-.154.201.011.405.052.605.122 0 0 .526.47.59.531.113.112.106.25-.025.283-.132.033-.291-.003-.4.033-.848.242-1.024.321-1.572.13a3 3 0 01-.637-.29 1.83 1.83 0 01.644-.655z" fill="#fff"/><path d="M169.229 96.058l-.64-.63a.431.431 0 00-.197-.112l-.224-.048a.879.879 0 00-.337-.007l-.532.097a.589.589 0 00-.291.145l-.482.453-.179.027.415-.608a.689.689 0 01.349-.177l.531-.097a.971.971 0 01.387.01l.222.048c.143.015.285.063.42.14l.76.77-.202-.011z" fill="#D3A688"/><path opacity=".5" d="M169.284 96.072l-.642-.636a.495.495 0 00-.235-.135l-.222-.048a.938.938 0 00-.373-.008l-.533.098a.617.617 0 00-.32.163l-.475.454" stroke="#0A0001" stroke-width=".3" stroke-miterlimit="10"/><path d="M167.352 95.474c-.273.026-.45.291-.396.592.014.079.028.083.067.148.326.215.595.178.934.1.02-.077.003-.255-.012-.342-.054-.301-.319-.524-.593-.498z" fill="#28160D" stroke="#1C1105" stroke-width=".2" stroke-miterlimit="10"/><path d="M167.437 96.327c.135-.01.215-.15.178-.312-.038-.161-.178-.284-.313-.274-.136.01-.215.15-.178.312.038.162.178.284.313.274z" fill="#000"/><path opacity=".77" d="M167.644 96.076c.073-.005.115-.08.095-.167-.02-.088-.095-.154-.168-.148-.073.005-.115.08-.095.168.02.087.095.153.168.147z" fill="#fff"/><path d="M169.206 96.085l-.229.02c-.12.01-.237.038-.349.081-.274.083-.827.326-1.373.176a6.387 6.387 0 01-.325-.17l-.325-.168" stroke="#472A22" stroke-width=".2" stroke-miterlimit="10"/><path d="M178.279 95.729c.393-1.295 1.125-1.753 1.639-1.011.514.741.414 2.306.018 3.606-.396 1.3-1.131 1.709-1.436 1.089-.517-.736-.611-2.39-.221-3.684z" fill="#FFCFAE"/><path d="M178.701 96.718c.32-.74.794-1.03 1.056-.647.262.384.204 1.298-.12 2.033-.324.736-.798 1.035-1.071.646-.273-.39-.193-1.297.135-2.032z" fill="#F5B994"/><path d="M178.459 98.09c.102-.483.351-.73.559-.544.209.187.289.728.191 1.21-.098.481-.351.725-.559.543-.207-.183-.289-.716-.191-1.21z" fill="#FFCFAE"/><path d="M165.774 95.184c.321-.51.778-1.796 3.088-.838.145.06.215.085.315.314-2.049-.476-2.226-.528-3.403.524zm10.215-.964c-.491-.57-1.659-1.502-3.903-.609-.147.08-.219.115-.271.389 2.135-.501 2.414-.567 4.174.22z" fill="#553723"/><path d="M169.878 96.652c.132 1.34-.31 2.056-.736 3.3.007.071.03.141.067.203.136.243.668.227 1.266 0 .224-.058.345-.033.553.04" stroke="#D3A688" stroke-width=".5" stroke-miterlimit="10"/><path d="M168.272 92.555c-.718 2.216-2.501 3.565-2.907 3.585l.38-4.832 5.733-5.005 7.449 2.995-.519 6.207c-7.096-5.363-4.754-8.201-6.641-7.562-1.887.64-2.599 1.84-3.495 4.612z" fill="#412616"/><g clip-path="url(#clip2)"><path d="M168.992 102.159l.005.001a.653.653 0 00.388-.058 3.615 3.615 0 011.69-.306 6.226 6.226 0 001.596-.227.342.342 0 01.041-.143.338.338 0 01.092-.11c.032.195.109.377.224.531-.094.073-.267-.059-.267-.059a1.804 1.804 0 01-.632.81c-.279.197-.606.3-.939.295-.663.099-1.243.019-1.776-.413-.068.024-.339-.302-.417-.32l-.005-.001z" fill="#FFC6C6" opacity=".8"/><path d="M169.352 102.276a2.805 2.805 0 011.329-.293 5.358 5.358 0 001.965-.286 2.232 2.232 0 01-.799.807c-.325.19-.69.285-1.059.277a1.671 1.671 0 01-.771-.08 1.769 1.769 0 01-.665-.425z" fill="#FDFCFC"/><path d="M169.352 102.276l.191-.094c.066-.031.133-.058.202-.08l.201-.061c.068-.02.137-.036.206-.048l.212-.034.21.011.42-.016c.138.007.276.014.416-.03l.229-.021.189-.048.199-.035.219-.047c.068-.012.135-.03.201-.054a.988.988 0 00.178-.075l.128-.052-.055.134a1.657 1.657 0 01-.132.227l-.077.1-.083.093-.089.086-.1.079a1.414 1.414 0 01-.2.145c-.28.171-.587.283-.905.329a1.432 1.432 0 01-.235.026l-.12-.006-.119-.006-.234-.013-.233-.012a1.357 1.357 0 01-.23-.071 1.382 1.382 0 01-.321-.166l-.097-.096-.092-.083a1.02 1.02 0 01-.079-.082zm0 0a.938.938 0 00.085.082l.098.083.099.058.105.057c.069.037.142.066.217.09.078.004.147.046.225.057l.227.012.233.012.12.007.108.006c.077.004.157-.025.229-.034.304-.052.597-.164.864-.331l.193-.139a.532.532 0 00.071-.093l.088-.08.077-.087a.6.6 0 00.089-.099c.045-.063.085-.131.119-.202l.074.076a1.81 1.81 0 01-.208.079l-.225.053-.194.042-.206.035-.206.028-.211.021c-.137-.007-.281-.015-.42.017-.14.031-.282-.015-.419-.023l-.209-.011-.206.022-.205.034-.207.048-.201.067-.204.113z" fill="#CB7A63"/><path d="M172.646 101.697a5.358 5.358 0 01-1.965.286 2.805 2.805 0 00-1.329.293c.139.155.312.269.504.332-.188-.185-.23-.415.264-.46.495-.045 1.285-.01 1.714-.078.43-.068.127.546-1.195.697l.132.007c.371.012.739-.081 1.067-.27.329-.188.608-.467.808-.807z" fill="#CEC0B6" opacity=".4"/></g><path d="M166.204 184.317a1.158 1.158 0 01-.143 1.249c-.515.712-1.717 1.326-3.071 1.897-.169.075-.334.139-.465.205l-.105.051c-.029.014-.055.029-.082.04-1.3.66-.974.983-3.37 2.377-2.731 1.589-4.19 1.213-4.545.894-.3-.269.741-1.23 1.899-2.312l.169-.157c.155-.143.309-.29.462-.435 1.371-1.309 1.343-2.116 1.797-4.518.37-1.961.087-11.478.087-11.478l4.23.463s-.774 7.296.258 8.75c.552.776 1.35 1.012 1.917 1.633l.11.13c.337.364.624.771.852 1.211z" fill="#FFCFAE"/><path d="M166.205 184.316a1.158 1.158 0 01-.143 1.249c-.579.694-1.756 1.311-3.073 1.889-.169.076-.325.146-.463.213l-.105.052c-.029.013-.055.028-.082.04-1.3.66-.974.982-3.37 2.377-2.731 1.589-4.19 1.213-4.545.894-.3-.27.741-1.23 1.899-2.312a9.312 9.312 0 004.542-1.691c1.73-1.256 3.17-3.095 4.38-4.058l.11.13c.337.366.623.775.85 1.217z" fill="#A62E41"/><path d="M136.12 181.351c-.26 1.296-2.105 1.08-4.166.568-2.062-.513-1.572.096-4.506-.23-2.934-.327-3.826-1.42-3.912-1.858-.08-.388 1.37-.524 2.924-.71.196-.021.393-.045.59-.069 1.755-.222 3.041-1.356 4.636-2.289 1.51-.882 3.765-4.479 3.765-4.479l4.022.319s-2.111 3.212-2.927 4.609c-.48.822-.455 1.908-.395 2.748.052.463.042.931-.031 1.391z" fill="#FFCFAE"/><path d="M131.954 181.918c-2.062-.504-1.572.097-4.506-.23-2.934-.326-3.826-1.419-3.912-1.858-.08-.387 1.37-.523 2.924-.709l.016.029a8.25 8.25 0 004.201 1.309c1.984.048 4.099-.522 5.474-.5.051.459.04.923-.031 1.379-.254 1.303-2.105 1.087-4.166.58z" fill="#A62E41"/><path d="M156.132 151.546l2.124 25.723c.861.18 1.746.215 2.619.105 1.209-.185 2.661-.891 2.661-.891s1.824-23.042-1.477-28.18c-3.302-5.138-5.927 3.243-5.927 3.243z" fill="url(#paint8_linear)"/><path d="M183.856 145.786s-19.878-7.262-25.435-5.467c-5.557 1.796-25.302 34.2-25.302 34.2s.377.503 1.404.889c.956.359 3.27.336 3.27.336s13.897-13.303 15.69-17.074c1.792-3.772 4.579-8.587 6.372-8.226 3.664 1.276 18.798 6.949 25.489 1.205 4.84-5.031 3.16-7.728 3.16-7.728l-4.648 1.865z" fill="url(#paint9_linear)"/><path d="M185.646 131.41c.751-3.158 1.123-9.43-1.547-14.505-2.423-4.597-6.174-7.997-6.401-7.863.478 3.515-3.321 10.119-4.238 10.057-1.621-.11-1.491-9.748-1.491-9.748s-4.201.371-5.837 3.206c-2.267 3.917-4.099 16.768-6.532 16.595-1.117-.081-11.629-3.67-11.629-3.67s-.608-.377-.249 1.778c0 0 2.567 1.776 7.258 4.15 2.481 1.256 5.477 2.772 6.532 2.529 2.136-.504 3.456-3.362 5.26-6.283l1.749-3.929c2.301 13.059-.213 16.651 1.371 18.028 1.673 1.453 1.335-.366 6.595 1.918 3.448 1.499 6.495 3.454 9.717 3.83 1.691.199 2.138.027 2.549-1.117 1.197-3.323-4.54-8.955-3.107-14.976z" fill="#699DEE"/><path d="M175.37 140.953c5.803-1.358 9.066-2.154 16.091-6.284l-4.493-3.351c-.481.478-10.78 5.415-11.418 6.453-.637 1.037-.18 3.182-.18 3.182z" fill="#4A75CB"/><path d="M188.825 146.051c-.214 1.281-.871 1.61-1.752 1.388-1.162-1.089-2.144-4.632-3.482-7.983-.956-2.394-1.68-1.27-2.302-6.454-.501-4.162 4.134-11.901 4.877-13.584 1.391 5.681.391 4.603 0 8.139-.745 6.741 3.282 14.774 2.659 18.494z" fill="#4A75CB"/><path d="M175.291 138.352l-.168-.482c-.659.23-1.624.104-1.829.117l-2.238.188a1.81 1.81 0 00-1.319.694l-2.875 3.677c.135.411.672.716 1.799-.764l-1.246 1.449c.045.34.382.531 1.317-.509-.269.382-.449.669-.419.71l.002.003c.097.131.465.85 3.2-2.534.215-.136.341-.091-.65 2.358-.003.509.409 1.059 1.864-1.997.708-.056 2.11-.592 2.664-1.332l.469-.422c-.464-1.048-.418-.791-.571-1.156z" fill="#FFCFAE"/><path d="M168.661 141.782c-1.127 1.48-1.664 1.175-1.799.764l2.875-3.677c.32-.41.8-.663 1.319-.694l2.238-.188c.205-.013 1.17.113 1.829-.117l.168.482c.153.365.107.108.571 1.156l-.469.422c-.554.74-1.956 1.276-2.664 1.332-1.455 3.056-1.867 2.506-1.864 1.997.991-2.449.865-2.494.65-2.358-2.735 3.384-3.103 2.665-3.2 2.534l-.002-.003c-.03-.041.15-.328.419-.71m-.071-.94c.191-.25.876-.587 1.101-.948l-1.101.948zm0 0l-1.246 1.449c.045.34.382.531 1.317-.509m0 0c.37-.411 1.365-.755 1.94-1.617-.386.494-1.531 1.036-1.94 1.617z" stroke="#F5C5A5" stroke-width=".2"/><path d="M168.434 123.885c-1.283 3.185-3.732 8.644-5.752 9.504-.997.424-3.355-.061-6.013-.877 1.864.154 3.595-.158 5.251-.618 1.795-.491 1.94-2.825 4.247-6.685 1.497-2.498 2.051-2.027 2.267-1.324z" fill="#4A75CB"/><path d="M172.811 140.641c.164-.438 1.843-.669 2.662-.729-.327.729-2.048 1.154-2.867 1.276l.205-.547z" fill="#F5C5A5"/><path d="M174.83 138.475c-1.275.106-3.824.319-3.983.637 0-.318.669-.637 3.983-.637z" fill="#EEBE9E"/><path d="M177.696 108.883s7.062 1.304 9.209 4.309c2.58 3.604 5.342 13.955 5.216 19.383-.034 1.494-1.159 2.611-2.567 3.11l-14.247 5.047s0-.957-.638-2.872c.638-1.037 11.754-6.284 12.236-6.763.482-.478-2.933-9.284-2.933-10.721 0-1.436-6.276-11.493-6.276-11.493z" fill="#699DEE"/><path d="M58.945 118.65c1.117-1.168 1.027-2.036 1.027-2.036s-15.206-8.69-16.51-9.554c-.889-.588-4.04-9.037-8.492-14.197-2.207-2.555-3.095-3.797-6.223-2.897l-4.422 2.973c-3.11.89-3.274 3.76-.722 5.876 7.183 5.972 12.768 12.678 15.005 14.088 5.554 3.499 18.705 5.747 18.705 5.747s.674 1.002 1.632 0z" fill="#5584C0"/><path d="M69.353 175.656s1.74 2.521 6.547 1.276c0 0 2.668-.56 4.083.329.489.308.238.955-.304 1.156-1.659.614-4.906 1.845-6.007 2.451-1.135.623-2.318 1.607-3.154 2.367a1.57 1.57 0 01-1.165.399 1.544 1.544 0 01-1.091-.574c-.262-.322-.56-.705-.89-1.145-.917-1.243-2.146-4.461-2.146-4.461l4.127-1.798z" fill="#233862"/><path d="M70 175.615s.427 1.361-4.667 2.913c0 0-6.095-6.365-10.803-14.57-2.13-2.97-2.098-2.941-3.033-5.006-3.819-8.414-14.126-21.105-20.68-27.467l11.176-5.296s5.55 10.196 12.537 22.545c5.035 8.897 9.948 18.5 15.47 26.881z" fill="#2B478B"/><g filter="url(#filter12_di)"><path d="M80.38 102.202a21.34 21.34 0 00.385-3.217 1.21 1.21 0 01.794-1.09l5.38-1.958a1.186 1.186 0 00.745-1.417l-1.355-5.07a1.154 1.154 0 00-1.29-.843l-5.21.808a1.185 1.185 0 01-1.24-.648 21.129 21.129 0 00-3.887-5.437 1.198 1.198 0 01-.17-1.462l1.661-2.75a1.203 1.203 0 00-.298-1.576l-4.13-3.158a1.186 1.186 0 00-1.6.146L66.74 78.3a21.182 21.182 0 00-6.784-1.18 1.17 1.17 0 01-1.094-.77l-1.57-4.347a1.214 1.214 0 00-1.453-.765l-4.972 1.335a1.227 1.227 0 00-.896 1.377l.672 4.36a1.194 1.194 0 01-.618 1.236 21.04 21.04 0 00-4.016 2.764 1.208 1.208 0 01-1.414.12l-4.452-2.696a1.201 1.201 0 00-1.58.3l-3.14 4.12a1.21 1.21 0 00.147 1.629l4.228 3.85a1.187 1.187 0 01.315 1.287 21.084 21.084 0 00-1.141 4.856 1.236 1.236 0 01-.805 1.025l-5.175 1.88a1.177 1.177 0 00-.737 1.414l1.338 5.01a1.234 1.234 0 001.377.898l4.127-.639a1.191 1.191 0 011.294.727 21.132 21.132 0 003.369 5.575 1.217 1.217 0 01.113 1.415l-2.429 4.023a1.239 1.239 0 00.307 1.621l4.103 3.138a1.19 1.19 0 001.603-.146l3.357-3.698a1.22 1.22 0 011.358-.313c1.155.45 2.348.797 3.564 1.037.666.132 1.33.23 1.99.301a1.2 1.2 0 011.007.786l1.594 4.41a1.226 1.226 0 001.463.767l4.983-1.342a1.209 1.209 0 00.883-1.352l-.537-3.479a1.209 1.209 0 01.725-1.292 21.087 21.087 0 006.892-4.652 1.186 1.186 0 011.463-.18l3.605 2.172a1.197 1.197 0 001.576-.299l3.137-4.117a1.219 1.219 0 00-.147-1.639l-4.058-3.693a1.206 1.206 0 01-.344-1.22c.16-.557.297-1.128.413-1.711zm-17.076 6.822c-11.196 2.94-19.231-9.156-12.138-18.389 1.065-1.386 3.323-2.904 5.012-3.36 11.223-3.06 19.33 8.985 12.355 18.241-1.107 1.465-3.457 3.042-5.229 3.508z" fill="url(#paint10_linear)"/></g><path d="M50.89 142.305l.478 16.276c-1.499-3.259-3.517-5.591-4.46-7.659-5.539-7.742-12.986-10.567-19.596-16.939l14.02-9.071s2.51 5.019 9.559 17.393z" fill="#233862"/><path d="M61.592 119.693c-2.169.202-3.243.897-3.243.897l-1.107.009s-1.35 2.243-1.096 2.399c.254.155 2.12.718 2.12.718.053.148 3.814 2.111 4.393 2.086.58-.024 1.001-.228 1.056-.297.31.022.621-.067.873-.253.487-.241.989-.453 1.502-.634l1.434-.596c.984-.52.38-.605.38-.605a3.465 3.465 0 00-.93.103c.896-.264 1.637-.606 1.382-.794-.423-.311-2.024.048-2.024.048s-1.017.293-1.428.25c-.703-.515-1.126-.605-1.606-1.149-.812-.92-1.103-1.024-1.103-1.024s2.588.07 3.402-.767c.518-.721-.638-.516-1.924-.365-.924-.027-2.081-.026-2.081-.026z" fill="#FFCFAE"/><g filter="url(#filter13_f)"><path d="M62.162 123.641c.536.383 2.065 1.213 2.254 1.298.19.086.785-.017 1.309-.208.864-.342 2.426-.94 2.356-1.133-.062-.17.112-.234-.648-.149" stroke="#D3A688" stroke-width=".2" stroke-linecap="round"/></g><g filter="url(#filter14_f)"><path d="M62.878 123.075c.535.383 1.603.914 1.792.999.19.085.785-.017 1.309-.209.864-.342 2.263-.719 2.417-1.05" stroke="#D3A688" stroke-width=".2" stroke-linecap="round"/></g><g filter="url(#filter15_f)"><path d="M65.201 124.923c-.524.191-.948.655-1.595.506-.204-.046-1.657-.745-2.192-1.128" stroke="#D3A688" stroke-width=".2" stroke-linecap="round"/></g><path d="M44.36 180.921s-.115 3.149 4.142 3.619c0 0 2.86.6 2.867 2.839H39.87s-.36-.903-.447-2.839c-.067-1.487 1.438-5.374 1.438-5.374l3.498 1.755z" fill="#233862"/><path d="M37.2 127.841s4.477 5.009 9.154 18.864c2.545 7.539-.244 27.597-1.649 34.182 0 0-2.1 1.139-4.874.752 0 0-1.408-14.34.526-24.822 1.082-5.866-8.544-11.808-13.256-22.409-3.205-7.212-4.104-7.089.688-7.262l9.41.695z" fill="#2B478B"/><path d="M43.636 128.226c0 .764-.882 1.134-1.068 1.171-1.757.322-6.662 2.233-11.08 2.673-3.72.389-2.423.821-5.131.502-.502-.101-1.19-1.752-1.275-2.234-.104-.527-10.722-26.165-2.548-42.287.265-.293 1.747.09 3.786.575 1.72.409 3.026.106 4.657-.575l.797.958c1.433 2.553 2.825 6.557 3.345 10.212.264 1.858.526 3.172.833 4.806.114.605.23 1.197.35 1.772.23 1.128.47 2.203.715 3.225a85.481 85.481 0 002.054 7.2 77.075 77.075 0 002.094 5.518c.834 1.968 1.536 3.436 1.976 4.567.317.79.495 1.418.495 1.917z" fill="#71A0DD"/><path d="M41.491 122.518c-20.512-9.682-19.589-24.805-19.589-24.805s10.294 6.159 14.406 7.764c.231 1.128.47 2.203.715 3.225.665 2.764.115 1.389.804 3.444.733 2.183 1.111 4.065 1.753 5.585.84 1.968 1.472 3.663 1.911 4.787z" fill="#5584C0"/><path d="M56.608 122.886c.655-1.713.955-2.489.955-2.489s-13.393-10.936-14.76-11.875c-.93-.636-5.082-6.605-9.596-12.014-1.1-1.314-2.296-2.574-3.665-4.15-1.224-1.409-1.752-2.712-3.026-3.35-1.801-.267-2.813-.103-4.62.319-1.274 2.872-2.794 7.472-.16 9.734 7.418 6.364 13.557 13.758 15.89 15.296 5.79 3.818 18.599 9.164 18.599 9.164s.082.114.383-.635z" fill="#6B9CDB"/><path d="M23.745 84.637l.147 3.505s3.262 1.187 5.413.762c1.802-.88 1.844-.664 1.844-.664l.064-4.427-3.826-.73-3.642 1.554z" fill="#F9C8A3"/><path d="M23.956 83.478c1.098 2.75 4.506 3.938 7.254 3.047v-2.82c-.916-.365-4.565.804-5.415.297l-1.84-.524z" fill="#EAAB85"/><path d="M23.438 83.835L12.505 70.947l15.629-3.819s8.78 14.632 6.043 16.065c-2.737 1.434-5.784 1.576-5.784 1.576-2.006.069-3.121.057-4.955-.934z" fill="#F9C8A3"/><path d="M34.029 75.57l-1.906 1.159.313-1.028 1.593-.131z" fill="#C69B7D"/><path d="M30.779 71.898c1.213 1.052 1.764 1.734 3.31 2.586.1.034.186.098.249.182a.54.54 0 01.105.29.625.625 0 01-.064.306.594.594 0 01-.222.228c-.878.466-1.251.38-1.728.968-.616.749-.944.048-1.079-.418l-.571-4.142z" fill="#F9C8A3"/><path d="M28.37 71.086a.465.465 0 10-.49-.789l-1.509.987a1.498 1.498 0 00-.546.615c-.165.347.254.677.552.434l.248-.202a.425.425 0 01.052-.036l1.694-1.01z" fill="#202020"/><path d="M34.004 78.955s-.637.479-1.782.192" stroke="#B96665" stroke-width=".64" stroke-linecap="round" stroke-linejoin="round"/><path d="M24.143 78.596c-.893-.581-1.601-.103-1.592.477.01.582 1.793 1.277 2.23.818.352-.365-.102-.945-.638-1.295z" fill="#EAAB85"/><path d="M24.612 79.094c-.614-.573-1.1-.328-1.093.118.006.446 1.232 1.24 1.538.954.25-.232-.084-.72-.445-1.072z" fill="#F9C8A3"/><path d="M31.15 87.202c-1.695.087-5.46.113-6.909-1.219a.781.781 0 00-.51-.213c-.188-.006-.355.24-.534.576-.739 1.382-.72 2.002-1.275 2.99 2.927-.887 6.995-.054 6.995-.054.787.206 2.26.31 3.495 1.164-.436-1.49-.496-.942-.537-2.493a.808.808 0 00-.047-.29.777.777 0 00-.16-.247.717.717 0 00-.518-.213z" fill="#D2DFF9"/><path d="M23.52 87.734c-1.375 1.02-1.447-.956-1.447-.956s-4.745-1.417-6.533-2.648c-1.788-1.231-5.537-5.88-5.37-7.149.092-.813-5.083-5.644 4.462-13.568 0 0 4.177-.252 6.094-1.467 1.916-1.215 5.915-3.535 5.915-3.535s5.27.917 1.672 8.981c0 0-8.334 1.666-4.694 7.574.302.476 1.56 2.05 1.277 2.43-.138.183-.739-.33-1.813-.608-2.46-.601-3.786 2.4.785 4.359.822.358 1.298.012 1.8.145 0 0 2.633 2.896-2.147 6.442z" fill="#202020"/><path d="M27.218 73.052c.246-.282.365-.298.82-.542.22-.086.45-.143.684-.168 0 0 .691.227.776.259.152.06.18.204.047.302-.134.097-.315.137-.424.227-.853.658-1.023.825-1.665.895a3.193 3.193 0 01-.763.011c.104-.364.283-.7.525-.984z" fill="#fff"/><path d="M28.18 72.662a.603.603 0 01.814.265.614.614 0 01.068.274 4.3 4.3 0 01-.819.574.612.612 0 01-.063-1.113z" fill="#28160D" stroke="#1C1105" stroke-width=".2" stroke-miterlimit="10"/><path d="M28.618 73.51a.347.347 0 01-.318-.618.347.347 0 01.318.618z" fill="#000"/><path opacity=".77" d="M28.198 73.302a.174.174 0 01-.16-.309.173.173 0 01.16.309z" fill="#fff"/><path d="M29.605 72.733l-.847-.324a.421.421 0 00-.239-.017l-.252.06a1.18 1.18 0 00-.363.156l-.546.354a.88.88 0 00-.275.287l-.402.688-.185.113.29-.811a1.04 1.04 0 01.33-.346l.544-.354c.128-.084.27-.144.418-.177l.25-.06c.157-.053.322-.074.486-.061l1.01.405-.219.087z" fill="#D3A688"/><path opacity=".5" d="M29.675 72.723l-.847-.324a.491.491 0 00-.284-.02l-.25.059a1.262 1.262 0 00-.401.172l-.546.355a.933.933 0 00-.301.318l-.394.682" stroke="#0A0001" stroke-width=".3" stroke-miterlimit="10"/><path d="M29.649 72.817l-.236.13c-.124.067-.24.148-.349.242-.249.22-.77.71-1.404.824a6.638 6.638 0 01-.379.004l-.379.005" stroke="#472A22" stroke-width=".2" stroke-miterlimit="10"/><path d="M176.971 143.913h-20.293v-1.489h20.293a.747.747 0 01.744.745.747.747 0 01-.744.744z" fill="#fff"/><path d="M171.424 143.913h-19.606a1.903 1.903 0 01-1.827-1.418l-3.453-13.022a1.906 1.906 0 011.844-2.398h17.084a1.904 1.904 0 011.845 1.421l4.113 15.417z" fill="#fff"/><path d="M148.382 127.079a1.905 1.905 0 00-1.845 2.393l3.453 13.023c.105.389.33.735.642.989l11.88-16.405h-14.13z" fill="url(#paint11_linear)"/><path d="M159.878 136.648a1.177 1.177 0 01-.187 1.088 1.172 1.172 0 01-1.007.45 2.134 2.134 0 01-1.965-1.538 1.18 1.18 0 01.19-1.085 1.177 1.177 0 011.004-.452 2.138 2.138 0 011.965 1.537z" fill="#0A3D76"/><g clip-path="url(#clip3)" filter="url(#filter16_di)"><path d="M168.782 11.859c.504 0 .96-.303 1.155-.77a5.33 5.33 0 014.911-3.277 5.26 5.26 0 013.229 1.11l-.702.11a.548.548 0 00-.141 1.041l3.858 1.738a.548.548 0 00.772-.498l.02-4.256a.548.548 0 00-1.003-.306l-.531.8a7.818 7.818 0 00-5.502-2.261c-3.248 0-6.04 1.986-7.231 4.808a1.267 1.267 0 001.165 1.76z" fill="url(#paint12_linear)"/><path d="M181.968 15.005a1.266 1.266 0 00-1.055-.567c-.504 0-.96.303-1.155.77a5.33 5.33 0 01-4.911 3.277 5.252 5.252 0 01-3.228-1.11l.701-.11a.548.548 0 00.141-1.04l-3.858-1.739a.548.548 0 00-.772.497l-.02 4.257a.548.548 0 001.003.306l.532-.8a7.813 7.813 0 005.501 2.26c3.248 0 6.04-1.985 7.231-4.807a1.27 1.27 0 00-.11-1.194z" fill="url(#paint13_linear)"/></g></g><defs><filter id="filter0_d" x="3.009" y="127.116" width="337.991" height="110.733" filterUnits="userSpaceOnUse" color-interpolation-filters="sRGB"><feFlood flood-opacity="0" result="BackgroundImageFix"/><feColorMatrix in="SourceAlpha" values="0 0 0 0 0 0 0 0 0 0 0 0 0 0 0 0 0 0 127 0"/><feOffset dx="2" dy="2"/><feGaussianBlur stdDeviation="2"/><feColorMatrix values="0 0 0 0 0 0 0 0 0 0 0 0 0 0 0 0 0 0 0.2 0"/><feBlend in2="BackgroundImageFix" result="effect1_dropShadow"/><feBlend in="SourceGraphic" in2="effect1_dropShadow" result="shape"/></filter><filter id="filter1_di" x="28.658" y="12.5" width="43.22" height="43.267" filterUnits="userSpaceOnUse" color-interpolation-filters="sRGB"><feFlood flood-opacity="0" result="BackgroundImageFix"/><feColorMatrix in="SourceAlpha" values="0 0 0 0 0 0 0 0 0 0 0 0 0 0 0 0 0 0 127 0"/><feOffset dx="2" dy="2"/><feGaussianBlur stdDeviation="2"/><feColorMatrix values="0 0 0 0 0 0 0 0 0 0 0 0 0 0 0 0 0 0 0.15 0"/><feBlend in2="BackgroundImageFix" result="effect1_dropShadow"/><feBlend in="SourceGraphic" in2="effect1_dropShadow" result="shape"/><feColorMatrix in="SourceAlpha" values="0 0 0 0 0 0 0 0 0 0 0 0 0 0 0 0 0 0 127 0" result="hardAlpha"/><feOffset dx="-2" dy="-2"/><feGaussianBlur stdDeviation="2"/><feComposite in2="hardAlpha" operator="arithmetic" k2="-1" k3="1"/><feColorMatrix values="0 0 0 0 0 0 0 0 0 0 0 0 0 0 0 0 0 0 0.2 0"/><feBlend in2="shape" result="effect2_innerShadow"/></filter><filter id="filter2_di" x="269.835" y="31.666" width="39.009" height="39.05" filterUnits="userSpaceOnUse" color-interpolation-filters="sRGB"><feFlood flood-opacity="0" result="BackgroundImageFix"/><feColorMatrix in="SourceAlpha" values="0 0 0 0 0 0 0 0 0 0 0 0 0 0 0 0 0 0 127 0"/><feOffset dx="2" dy="2"/><feGaussianBlur stdDeviation="2"/><feColorMatrix values="0 0 0 0 0 0 0 0 0 0 0 0 0 0 0 0 0 0 0.15 0"/><feBlend in2="BackgroundImageFix" result="effect1_dropShadow"/><feBlend in="SourceGraphic" in2="effect1_dropShadow" result="shape"/><feColorMatrix in="SourceAlpha" values="0 0 0 0 0 0 0 0 0 0 0 0 0 0 0 0 0 0 127 0" result="hardAlpha"/><feOffset dx="-2" dy="-2"/><feGaussianBlur stdDeviation="2"/><feComposite in2="hardAlpha" operator="arithmetic" k2="-1" k3="1"/><feColorMatrix values="0 0 0 0 0 0 0 0 0 0 0 0 0 0 0 0 0 0 0.2 0"/><feBlend in2="shape" result="effect2_innerShadow"/></filter><filter id="filter3_f" x="53.99" y="150.837" width="105.637" height="45.489" filterUnits="userSpaceOnUse" color-interpolation-filters="sRGB"><feFlood flood-opacity="0" result="BackgroundImageFix"/><feBlend in="SourceGraphic" in2="BackgroundImageFix" result="shape"/><feGaussianBlur stdDeviation="1" result="effect1_foregroundBlur"/></filter><filter id="filter4_f" x="154.351" y="179.561" width="64.695" height="25.542" filterUnits="userSpaceOnUse" color-interpolation-filters="sRGB"><feFlood flood-opacity="0" result="BackgroundImageFix"/><feBlend in="SourceGraphic" in2="BackgroundImageFix" result="shape"/><feGaussianBlur stdDeviation="1" result="effect1_foregroundBlur"/></filter><filter id="filter5_f" x="201.665" y="169.028" width="57.049" height="29.851" filterUnits="userSpaceOnUse" color-interpolation-filters="sRGB"><feFlood flood-opacity="0" result="BackgroundImageFix"/><feBlend in="SourceGraphic" in2="BackgroundImageFix" result="shape"/><feGaussianBlur stdDeviation="1" result="effect1_foregroundBlur"/></filter><filter id="filter6_di" x="84.576" y="26.851" width="188.406" height="182.734" filterUnits="userSpaceOnUse" color-interpolation-filters="sRGB"><feFlood flood-opacity="0" result="BackgroundImageFix"/><feColorMatrix in="SourceAlpha" values="0 0 0 0 0 0 0 0 0 0 0 0 0 0 0 0 0 0 127 0"/><feOffset dx="2" dy="2"/><feGaussianBlur stdDeviation="2"/><feColorMatrix values="0 0 0 0 0 0 0 0 0 0 0 0 0 0 0 0 0 0 0.15 0"/><feBlend in2="BackgroundImageFix" result="effect1_dropShadow"/><feBlend in="SourceGraphic" in2="effect1_dropShadow" result="shape"/><feColorMatrix in="SourceAlpha" values="0 0 0 0 0 0 0 0 0 0 0 0 0 0 0 0 0 0 127 0" result="hardAlpha"/><feOffset dx="-2" dy="-2"/><feGaussianBlur stdDeviation="2"/><feComposite in2="hardAlpha" operator="arithmetic" k2="-1" k3="1"/><feColorMatrix values="0 0 0 0 0 0 0 0 0 0 0 0 0 0 0 0 0 0 0.2 0"/><feBlend in2="shape" result="effect2_innerShadow"/></filter><filter id="filter7_di" x="225.427" y="156.25" width="48.197" height="47.1" filterUnits="userSpaceOnUse" color-interpolation-filters="sRGB"><feFlood flood-opacity="0" result="BackgroundImageFix"/><feColorMatrix in="SourceAlpha" values="0 0 0 0 0 0 0 0 0 0 0 0 0 0 0 0 0 0 127 0"/><feOffset dx="2" dy="2"/><feGaussianBlur stdDeviation="2"/><feColorMatrix values="0 0 0 0 0 0 0 0 0 0 0 0 0 0 0 0 0 0 0.15 0"/><feBlend in2="BackgroundImageFix" result="effect1_dropShadow"/><feBlend in="SourceGraphic" in2="effect1_dropShadow" result="shape"/><feColorMatrix in="SourceAlpha" values="0 0 0 0 0 0 0 0 0 0 0 0 0 0 0 0 0 0 127 0" result="hardAlpha"/><feOffset dx="-2" dy="-2"/><feGaussianBlur stdDeviation="2"/><feComposite in2="hardAlpha" operator="arithmetic" k2="-1" k3="1"/><feColorMatrix values="0 0 0 0 0 0 0 0 0 0 0 0 0 0 0 0 0 0 0.2 0"/><feBlend in2="shape" result="effect2_innerShadow"/></filter><filter id="filter8_f" x="150.847" y="146.05" width="16.585" height="46.925" filterUnits="userSpaceOnUse" color-interpolation-filters="sRGB"><feFlood flood-opacity="0" result="BackgroundImageFix"/><feBlend in="SourceGraphic" in2="BackgroundImageFix" result="shape"/><feGaussianBlur stdDeviation="1" result="effect1_foregroundBlur"/></filter><filter id="filter9_f" x="130.614" y="142.38" width="29.648" height="40.702" filterUnits="userSpaceOnUse" color-interpolation-filters="sRGB"><feFlood flood-opacity="0" result="BackgroundImageFix"/><feBlend in="SourceGraphic" in2="BackgroundImageFix" result="shape"/><feGaussianBlur stdDeviation="1" result="effect1_foregroundBlur"/></filter><filter id="filter10_f" x="204.95" y="175.549" width="93.969" height="54.468" filterUnits="userSpaceOnUse" color-interpolation-filters="sRGB"><feFlood flood-opacity="0" result="BackgroundImageFix"/><feBlend in="SourceGraphic" in2="BackgroundImageFix" result="shape"/><feGaussianBlur stdDeviation="12.5" result="effect1_foregroundBlur"/></filter><filter id="filter11_f" x="24.04" y="170.783" width="50.677" height="18.521" filterUnits="userSpaceOnUse" color-interpolation-filters="sRGB"><feFlood flood-opacity="0" result="BackgroundImageFix"/><feBlend in="SourceGraphic" in2="BackgroundImageFix" result="shape"/><feGaussianBlur stdDeviation="1" result="effect1_foregroundBlur"/></filter><filter id="filter12_di" x="28.24" y="67.332" width="67.296" height="65.767" filterUnits="userSpaceOnUse" color-interpolation-filters="sRGB"><feFlood flood-opacity="0" result="BackgroundImageFix"/><feColorMatrix in="SourceAlpha" values="0 0 0 0 0 0 0 0 0 0 0 0 0 0 0 0 0 0 127 0"/><feOffset dx="2" dy="2"/><feGaussianBlur stdDeviation="2"/><feColorMatrix values="0 0 0 0 0 0 0 0 0 0 0 0 0 0 0 0 0 0 0.15 0"/><feBlend in2="BackgroundImageFix" result="effect1_dropShadow"/><feBlend in="SourceGraphic" in2="effect1_dropShadow" result="shape"/><feColorMatrix in="SourceAlpha" values="0 0 0 0 0 0 0 0 0 0 0 0 0 0 0 0 0 0 127 0" result="hardAlpha"/><feOffset dx="-2" dy="-2"/><feGaussianBlur stdDeviation="2"/><feComposite in2="hardAlpha" operator="arithmetic" k2="-1" k3="1"/><feColorMatrix values="0 0 0 0 0 0 0 0 0 0 0 0 0 0 0 0 0 0 0.2 0"/><feBlend in2="shape" result="effect2_innerShadow"/></filter><filter id="filter13_f" x="61.862" y="123.112" width="6.521" height="2.158" filterUnits="userSpaceOnUse" color-interpolation-filters="sRGB"><feFlood flood-opacity="0" result="BackgroundImageFix"/><feBlend in="SourceGraphic" in2="BackgroundImageFix" result="shape"/><feGaussianBlur stdDeviation=".1" result="effect1_foregroundBlur"/></filter><filter id="filter14_f" x="62.578" y="122.515" width="6.118" height="1.889" filterUnits="userSpaceOnUse" color-interpolation-filters="sRGB"><feFlood flood-opacity="0" result="BackgroundImageFix"/><feBlend in="SourceGraphic" in2="BackgroundImageFix" result="shape"/><feGaussianBlur stdDeviation=".1" result="effect1_foregroundBlur"/></filter><filter id="filter15_f" x="61.114" y="124.001" width="4.387" height="1.757" filterUnits="userSpaceOnUse" color-interpolation-filters="sRGB"><feFlood flood-opacity="0" result="BackgroundImageFix"/><feBlend in="SourceGraphic" in2="BackgroundImageFix" result="shape"/><feGaussianBlur stdDeviation=".1" result="effect1_foregroundBlur"/></filter><filter id="filter16_di" x="165" y="3.29" width="23.696" height="23.717" filterUnits="userSpaceOnUse" color-interpolation-filters="sRGB"><feFlood flood-opacity="0" result="BackgroundImageFix"/><feColorMatrix in="SourceAlpha" values="0 0 0 0 0 0 0 0 0 0 0 0 0 0 0 0 0 0 127 0"/><feOffset dx="2" dy="2"/><feGaussianBlur stdDeviation="2"/><feColorMatrix values="0 0 0 0 0 0 0 0 0 0 0 0 0 0 0 0 0 0 0.15 0"/><feBlend in2="BackgroundImageFix" result="effect1_dropShadow"/><feBlend in="SourceGraphic" in2="effect1_dropShadow" result="shape"/><feColorMatrix in="SourceAlpha" values="0 0 0 0 0 0 0 0 0 0 0 0 0 0 0 0 0 0 127 0" result="hardAlpha"/><feOffset dx="-2" dy="-2"/><feGaussianBlur stdDeviation="2"/><feComposite in2="hardAlpha" operator="arithmetic" k2="-1" k3="1"/><feColorMatrix values="0 0 0 0 0 0 0 0 0 0 0 0 0 0 0 0 0 0 0.2 0"/><feBlend in2="shape" result="effect2_innerShadow"/></filter><linearGradient id="paint0_linear" x1="64.793" y1="32.133" x2="31.7" y2="31.424" gradientUnits="userSpaceOnUse"><stop stop-color="#A62E41"/><stop offset="1" stop-color="#E13152"/></linearGradient><linearGradient id="paint1_linear" x1="85.302" y1="149.965" x2="139.444" y2="192.203" gradientUnits="userSpaceOnUse"><stop stop-color="#B4D1FA" stop-opacity="0"/><stop offset="1" stop-opacity=".2"/></linearGradient><linearGradient id="paint2_linear" x1="154.12" y1="159.061" x2="208.261" y2="201.3" gradientUnits="userSpaceOnUse"><stop stop-color="#B4D1FA" stop-opacity="0"/><stop offset="1" stop-opacity=".2"/></linearGradient><linearGradient id="paint3_linear" x1="188.69" y1="162.571" x2="256.933" y2="206.899" gradientUnits="userSpaceOnUse"><stop stop-color="#B4D1FA" stop-opacity="0"/><stop offset="1" stop-opacity=".2"/></linearGradient><linearGradient id="paint4_linear" x1="176.779" y1="28.851" x2="176.779" y2="203.585" gradientUnits="userSpaceOnUse"><stop stop-color="#AFCDFB"/><stop offset="1" stop-color="#5E89CA"/></linearGradient><linearGradient id="paint5_linear" x1="97.407" y1="152.199" x2="165.65" y2="196.528" gradientUnits="userSpaceOnUse"><stop stop-color="#B4D1FA" stop-opacity="0"/><stop offset="1" stop-opacity=".2"/></linearGradient><linearGradient id="paint6_linear" x1="133.41" y1="127.306" x2="149.966" y2="164.265" gradientUnits="userSpaceOnUse"><stop stop-color="#B4D1FA" stop-opacity="0"/><stop offset="1" stop-opacity=".2"/></linearGradient><linearGradient id="paint7_linear" x1="33.049" y1="160.975" x2="53.962" y2="192.016" gradientUnits="userSpaceOnUse"><stop stop-color="#B4D1FA" stop-opacity="0"/><stop offset="1" stop-opacity=".2"/></linearGradient><linearGradient id="paint8_linear" x1="160.174" y1="147.435" x2="168.784" y2="201.889" gradientUnits="userSpaceOnUse"><stop stop-color="#A62E41"/><stop offset="1" stop-color="#E13152"/></linearGradient><linearGradient id="paint9_linear" x1="187.07" y1="157.889" x2="134.8" y2="156.14" gradientUnits="userSpaceOnUse"><stop stop-color="#A62E41"/><stop offset="1" stop-color="#E13152"/></linearGradient><linearGradient id="paint10_linear" x1="85.536" y1="100.457" x2="34.274" y2="94.831" gradientUnits="userSpaceOnUse"><stop stop-color="#A62E41"/><stop offset="1" stop-color="#E13152"/></linearGradient><linearGradient id="paint11_linear" x1="157.782" y1="133.859" x2="135.454" y2="134.318" gradientUnits="userSpaceOnUse"><stop stop-color="#71A0DD" stop-opacity="0"/><stop offset="1" stop-color="#71A0DD" stop-opacity=".5"/></linearGradient><linearGradient id="paint12_linear" x1="181.441" y1="8.574" x2="167.966" y2="7.942" gradientUnits="userSpaceOnUse"><stop stop-color="#A62E41"/><stop offset="1" stop-color="#E13152"/></linearGradient><linearGradient id="paint13_linear" x1="181.735" y1="17.722" x2="168.26" y2="17.09" gradientUnits="userSpaceOnUse"><stop stop-color="#A62E41"/><stop offset="1" stop-color="#E13152"/></linearGradient><clipPath id="clip0"><path fill="#fff" d="M0 0h340v235H0z"/></clipPath><clipPath id="clip1"><path fill="#fff" transform="rotate(2.498 -2685.785 3298.643)" d="M0 0h10.035v10.051H0z"/></clipPath><clipPath id="clip2"><path fill="#fff" transform="matrix(.99863 .05307 -.05312 .99855 168.683 101.097)" d="M0 0h4.379v2.387H0z"/></clipPath><clipPath id="clip3"><path fill="#fff" transform="translate(167 5.29)" d="M0 0h15.696v15.717H0z"/></clipPath></defs></svg>