<svg width="340" height="235" fill="none" xmlns="http://www.w3.org/2000/svg"><g filter="url(#filter0_d)"><path d="M165.851 227L5 176.62l151.019-47.44 163.302 47.44L165.851 227z" fill="#FFF5F7"/></g><path d="M45.26 167.954c5.357 2.448 17.415 7.779 22.783 9.529l16.697-3.749-14.669-10.778-24.811 4.998z" fill="url(#paint0_linear)"/><path d="M80.663 167.688l21.086 8.701h9.675l-26.203-12.351-4.558 3.65z" fill="url(#paint1_linear)"/><path d="M108.741 158.928l34.985 17.462h9.675l-24.605-11.987 3.362-.549c5.27-.86 5.779-8.241.677-9.816a5.053 5.053 0 00-2.634-.094l-21.46 4.984z" fill="url(#paint2_linear)"/><path d="M199.719 156.555l36.7 19.834h9.674l-22.125-12.717c4.623-1.558 5.076-7.919.72-10.117l-1.77-.893a6.332 6.332 0 00-4.286-.514l-18.913 4.407z" fill="url(#paint3_linear)"/><path d="M223.42 164.038l39.125 12.227h9.737L227.249 161.3l-3.829 2.738z" fill="url(#paint4_linear)"/><path d="M171.686 166.436l18.844 8.259a22.006 22.006 0 008.835 1.851h3.587c.972 0 1.93-.22 2.804-.645 4.775-2.319 4.829-9.104.091-11.498l-19.862-10.038a17.448 17.448 0 00-12.743-1.18l-.708.207c-6.239 1.815-6.8 10.436-.848 13.044z" fill="url(#paint5_linear)"/><g filter="url(#filter1_f)"><path d="M23.881 169.674l58.05 20.462h9.207l-5.774-2.656-2.029-4.373 22.783 7.029h10.767L37.77 164.05l-13.889 5.624z" fill="url(#paint6_linear)"/></g><path d="M126.582 70.098l3.632-1.683a.878.878 0 00.506-.773c.011-.424.04-.85.087-1.278.082-.782.226-1.556.432-2.315a.88.88 0 00-.318-.928l-3.329-2.527a.858.858 0 01-.205-1.149l2.047-3.221a.848.848 0 011.088-.307l3.461 1.69a.854.854 0 001.011-.183 15.482 15.482 0 013.895-2.926.88.88 0 00.436-.977l-.562-2.269a.883.883 0 01.552-1.035l3.573-1.282a.859.859 0 011.081.445l1.262 2.703.306.66a15.562 15.562 0 014.99.651.856.856 0 00.933-.298l2.04-2.674a.884.884 0 011.179-.21l2.471 1.557.708.449a.89.89 0 01.327 1.147l-1.416 2.883a.845.845 0 00.16.992c.77.78 1.455 1.64 2.042 2.565.054.074.104.151.151.23a.87.87 0 00.972.394l3.698-.9a.89.89 0 011.034.55l1.293 3.546a.88.88 0 01-.46 1.1l-3.79 1.75a.85.85 0 00-.498.824 15.45 15.45 0 01-.266 3.62.892.892 0 00.339.882l3.199 2.43a.855.855 0 01.206 1.139l-2.03 3.184a.9.9 0 01-1.156.326l-2.738-1.338a.884.884 0 00-1.068.215 15.429 15.429 0 01-3.563 3.14.874.874 0 00-.385.954l.814 3.325a.905.905 0 01-.568 1.06l-3.545 1.281a.87.87 0 01-1.086-.45l-.074-.157-1.465-3.14a.885.885 0 00-.872-.51 15.399 15.399 0 01-4.167-.28.874.874 0 00-.875.322L140 86.017a.896.896 0 01-1.194.216l-3.184-2.015a1 1 0 01-.228-.209.899.899 0 01-.092-.921l1.133-2.294a.898.898 0 00.086-.445.902.902 0 00-.145-.429.948.948 0 00-.165-.183 15.352 15.352 0 01-3.8-4.728.86.86 0 00-.975-.443l-2.993.732a.885.885 0 01-1.035-.55l-.03-.08-1.264-3.457a.894.894 0 01.468-1.113zm27.622-3.564a10.237 10.237 0 00-.494-1.845c-.442-1.19-1.683-2.739-2.757-3.42-.115-.075-.23-.144-.345-.213-7.083-4.138-15.056 2.372-12.253 10.186.367 1.021 1.286 2.273 2.235 3.088.204.177.422.338.65.483.916.58 1.923 1 2.981 1.242a8.282 8.282 0 009.983-9.52z" fill="#EBF2F9"/><path d="M143.856 62.058c-.207.026-.336.052-.414.104-.026.026-.052.078-.026.207.026.233.13.7.285 1.4.621 3.032 1.139 5.054 1.58 6.039l.155.311 1.036-.104.647-.052c.233-.025.388-.077.466-.13.078-.05.13-.18.13-.336 0-.156-.026-.467-.052-.881l-.052-.57c-.104-.882-.207-1.919-.363-3.085-.155-1.166-.258-1.892-.31-2.151a.989.989 0 00-.182-.519c-.181-.181-.673-.285-1.475-.285-.57 0-1.036 0-1.425.052zm3.159 8.372c-.543.052-.958.233-1.217.57-.259.311-.362.726-.31 1.193.051.518.285.933.673 1.244.388.31.854.44 1.372.389.182-.026.337-.052.466-.13.311-.13.596-.363.829-.7.233-.337.337-.674.311-.959a1.856 1.856 0 00-.492-1.01c-.285-.312-.622-.493-1.036-.597a2.235 2.235 0 00-.596 0zm187.502 57.561l-3.368-1.556a.826.826 0 01-.336-.292.806.806 0 01-.133-.423 14.309 14.309 0 00-.481-3.321.799.799 0 01.015-.474.816.816 0 01.28-.385l3.087-2.336a.791.791 0 00.19-1.062l-1.898-2.978a.791.791 0 00-1.009-.283l-3.209 1.562a.793.793 0 01-.938-.17 14.346 14.346 0 00-3.612-2.704.814.814 0 01-.404-.904l.521-2.097a.82.82 0 00-.512-.957l-3.313-1.185a.79.79 0 00-.677.055.784.784 0 00-.325.356l-1.17 2.499-.284.61a14.437 14.437 0 00-4.627.602.797.797 0 01-.865-.276l-1.892-2.472a.82.82 0 00-1.093-.194l-2.292 1.439-.656.415a.829.829 0 00-.356.473.815.815 0 00.053.588l1.313 2.665a.778.778 0 01-.148.918 14.17 14.17 0 00-1.894 2.371c-.05.069-.097.14-.14.213a.818.818 0 01-.901.365l-3.43-.834a.82.82 0 00-.958.508l-1.199 3.28a.81.81 0 00.426 1.016l3.514 1.618a.786.786 0 01.462.762 14.28 14.28 0 00.247 3.347.83.83 0 01-.314.815l-2.967 2.248a.79.79 0 00-.191 1.052l1.883 2.944a.836.836 0 001.072.302l2.539-1.237a.82.82 0 01.99.198 14.271 14.271 0 003.304 2.904.804.804 0 01.357.881l-.755 3.074a.826.826 0 00.075.589.84.84 0 00.451.391l3.288 1.185a.809.809 0 001.007-.416l.069-.145 1.358-2.904a.825.825 0 01.809-.472 14.248 14.248 0 003.863-.258.808.808 0 01.812.297l1.92 2.511a.832.832 0 001.107.2l2.952-1.863a.907.907 0 00.212-.193.825.825 0 00.085-.852l-1.05-2.121a.812.812 0 01-.079-.411.808.808 0 01.286-.566 14.187 14.187 0 003.524-4.371.796.796 0 01.904-.41l2.776.677a.82.82 0 00.959-.508l.028-.075 1.172-3.196a.826.826 0 00-.434-1.029zm-25.613-3.295a9.414 9.414 0 01.458-1.705c.41-1.101 1.561-2.533 2.556-3.163.107-.068.214-.133.321-.196 6.568-3.826 13.96 2.193 11.362 9.417-.341.944-1.193 2.101-2.073 2.855a4.865 4.865 0 01-.603.446 8.856 8.856 0 01-2.764 1.149c-5.256 1.161-10.164-3.229-9.257-8.803z" fill="#EBF2F9"/><path d="M244.934 162.76l43.757 13.688h9.481l-53.238-18.433v4.745z" fill="url(#paint7_linear)"/><path d="M235.94 40.286l-.724-.427 16.921-18.687 20.629 16.17 12.659-22.527.725.512-13.213 23.295-20.544-16.17-16.453 17.834z" fill="#0A3D76"/><g filter="url(#filter2_di)"><path d="M235.557 42.633a2.559 2.559 0 002.558-2.56 2.559 2.559 0 10-5.115 0 2.559 2.559 0 002.557 2.56z" fill="#F985A0"/></g><g filter="url(#filter3_di)"><path d="M252.265 24.629a2.814 2.814 0 002.813-2.816 2.814 2.814 0 10-5.626 0 2.815 2.815 0 002.813 2.816z" fill="#F985A0"/></g><g filter="url(#filter4_di)"><path d="M271.275 37.983c0 .896.725 1.579 1.577 1.579.895 0 1.577-.726 1.577-1.58 0-.895-.724-1.578-1.577-1.578-.852 0-1.577.683-1.577 1.579z" fill="#F985A0"/></g><g filter="url(#filter5_di)"><path d="M285.809 18.144a3.07 3.07 0 003.069-3.072A3.07 3.07 0 00285.809 12a3.07 3.07 0 00-3.069 3.072 3.07 3.07 0 003.069 3.072z" fill="#F985A0"/></g><path d="M35.207 114.91a1.766 1.766 0 000-3.533 1.766 1.766 0 000 3.533zm11.527-12.422a1.942 1.942 0 10-.002-3.884 1.942 1.942 0 00.002 3.884zm13.116 9.213c0 .619.5 1.09 1.088 1.09.618 0 1.088-.501 1.088-1.09 0-.618-.5-1.089-1.088-1.089-.588 0-1.088.471-1.088 1.089zm10.027-13.687c1.17 0 2.117-.95 2.117-2.12a2.118 2.118 0 10-2.117 2.12z" fill="#EBF2F9"/><path d="M35.472 113.29l-.5-.294 11.674-12.893 14.233 11.156 8.734-15.542.5.353-9.117 16.072-14.174-11.156-11.35 12.304zm160.054-74.997c1.067-.265 2.054-.148 3.056.271.982.47 1.643 1.281 2.074 2.529.179.549.23.926.245 1.228-.01.708-.262 1.373-.866 1.95-.55.6-1.227 1.028-1.994 1.181-1.123.242-2.11.125-2.998-.425-.908-.499-1.549-1.36-2.019-2.505l-.126-.35a1.975 1.975 0 01-.017-1.489c.293-.944.825-1.67 1.633-2.102.337-.037.656-.2 1.012-.288zm-3.87-20.118c1.142-.292 2.076-.376 2.822-.3.689.051 1.618.322 2.676.764 1.002.42 1.854.895 2.5 1.402 1.403 1.062 2.43 2.44 2.986 4.037.467 1.322.618 2.63.359 3.826-.203 1.22-.835 2.378-1.877 3.601-.683.782-1.12 1.429-1.295 1.89-.193.511-.331 1.046-.321 1.702-.027.582-.087.913-.165 1.117-.133.182-.377.317-.808.433-.355.088-1.309.223-2.915.38-1.607.157-2.541.24-2.803.25-.317-.015-.558-.057-.687-.229a3.543 3.543 0 01-.329-.493c-.089-.275-.172-1.08-.191-2.393-.02-1.312.048-2.173.203-2.583.174-.46.573-1.005 1.308-1.586.661-.553 1.021-.995 1.251-1.433.211-.386.254-.842.186-1.345l.003-.177-.073-.148c-.269-.825-.806-1.109-1.648-.928-.636.149-1.265 1.13-1.887 2.945-.176.638-.423.95-.573 1.005-.075.028-.131.005-.187-.018l-.15.055c-.597.047-2.008-.485-4.121-1.547-.759-.378-1.147-.718-1.273-1.067-.089-.274-.063-.856.022-1.591.222-1.27.837-2.555 1.788-3.876.931-1.27 2.008-2.242 3.155-2.889.583-.348 1.258-.6 2.044-.804zM72.785 24.607c.5-.167.876-.209 1.043-.167.084 0 .209.167.293.46.166.584.417 1.754.709 3.55 1.46 7.688 2.17 12.91 2.129 15.626l-.042.919-2.546.752-1.586.501c-.543.168-.96.21-1.21.126-.25-.084-.46-.293-.627-.669-.166-.376-.417-1.086-.71-2.089l-.416-1.378a299.198 299.198 0 01-2.087-7.562c-.752-2.883-1.21-4.638-1.336-5.348-.167-.627-.167-1.086-.083-1.379.25-.585 1.293-1.295 3.13-2.089a40.925 40.925 0 013.339-1.253zm.668 22.56c1.335-.376 2.462-.334 3.38.126.919.501 1.545 1.295 1.92 2.507.376 1.253.25 2.465-.375 3.593-.626 1.128-1.545 1.88-2.797 2.214-.459.125-.876.209-1.21.167-.877 0-1.753-.293-2.63-.836-.876-.585-1.419-1.211-1.627-1.922-.25-.877-.209-1.838.167-2.799.375-.96 1.001-1.754 1.836-2.381.292-.292.751-.501 1.336-.669z" fill="#EBF2F9"/><g filter="url(#filter6_di)"><path d="M28.578 177.726c12.023 0 17.835-7.836 17.835-18.226 0-15.255-25.584-16.701-25.584-24.188 0-3.406 2.271-5.706 6.346-5.706 4.542 0 9.351 1.959 12.959 6.217l5.276-8.857c-4.408-5.195-10.286-7.92-17.367-7.92-10.487 0-16.9 7.835-16.9 17.288 1.717 14.108 25.65 15.751 25.65 24.529 0 3.236-2.538 6.302-7.748 6.302-6.145 0-11.021-3.492-14.16-7.665l-5.144 9.198c4.141 5.365 10.287 9.028 18.837 9.028z" fill="url(#paint8_linear)"/><path d="M72.905 177.726c13.56 0 20.106-9.624 20.106-23.762v-34.067h-9.686v33.726c0 7.921-3.54 13.372-10.42 13.372s-10.487-5.451-10.487-13.372v-33.726h-9.619v34.152c0 13.968 6.546 23.677 20.106 23.677z" fill="url(#paint9_linear)"/><path d="M111.273 176.704v-20.185h11.356c9.619 0 14.963-8.432 14.963-18.311 0-9.964-5.277-18.311-14.963-18.311h-20.841v56.807h9.485zm10.087-30.831h-10.087v-15.33h10.087c3.74 0 6.546 2.896 6.546 7.665 0 4.684-2.806 7.665-6.546 7.665z" fill="url(#paint10_linear)"/><path d="M152.956 176.704v-20.185h11.356c9.619 0 14.963-8.432 14.963-18.311 0-9.964-5.277-18.311-14.963-18.311h-20.841v56.807h9.485zm10.087-30.831h-10.087v-15.33h10.087c3.741 0 6.546 2.896 6.546 7.665 0 4.684-2.805 7.665-6.546 7.665z" fill="url(#paint11_linear)"/><path d="M206.262 177.726c13.493 0 23.313-12.264 23.313-29.383s-9.82-29.383-23.313-29.383c-13.426 0-23.245 12.264-23.245 29.383s9.819 29.383 23.245 29.383zm0-10.731c-8.216 0-13.493-8.091-13.493-18.652 0-10.646 5.277-18.652 13.493-18.652 8.216 0 13.56 8.006 13.56 18.652 0 10.561-5.344 18.652-13.56 18.652z" fill="url(#paint12_linear)"/><path d="M298.34 176.704v-46.161h12.959v-10.646h-35.536v10.646h13.025v46.161h9.552z" fill="url(#paint13_linear)"/><path fill-rule="evenodd" clip-rule="evenodd" d="M272.302 176.704l-10.02-21.633c4.809-1.448 9.752-6.813 9.752-16.863 0-10.561-5.677-18.311-14.962-18.311h-20.841v56.807h9.485v-20.185h6.947l8.751 20.185h10.888zm-26.586-30.831h9.953c3.807 0 6.68-2.896 6.68-7.665s-2.873-7.665-6.68-7.665h-9.953v15.33z" fill="url(#paint14_linear)"/></g><path d="M247.124 78.357c7.478 1.55 9.76 2.276 14.174-1.738 0 0 .306-10.378-2.804-15.938-3.11-5.56-6.113-6.496-10.31-4.992 0 0-.985-.83-2.845.52-7.61 5.517-2.505 15.867 1.785 22.148z" fill="#412716"/><path d="M256.618 57.73c-2.245 1.597-4.244.756-6.866 1.206-3.728.681-3.724 4.929-6.456 3.662-1.026 11.504-1.11 16.564 2.567 24.875 7.517 3.791 9.868 7.285 13.587.928 0 0 4.177-14.528.342-24.632-.302-.86-2.857-5.323-3.174-6.04z" fill="#3C2415"/><path d="M248.463 90.158s-.094-8.546.536-10.998c-.167-1.491-.318-3.424-.565-4.627l5.282-2.801c.032-.12-.192 6.035 1.262 9.562 1.059-.17-3.151 8.052-3.151 8.052l-3.364.812z" fill="#FFCFAE"/><path d="M253.701 72.98c-3.295 1.691-1.352.635-3.387 1.647l-1.601.991c.02.866.816 1.73 1.627 1.424 1.02-.385 1.97-1.574 3.031-3.521l.33-.542z" fill="#F5B994"/><path d="M243.751 70.24c1.121 2.92 2.024 6.574 4.89 5.757 2.866-.817 4.889-1.953 5.492-3.039.783-1.409.686-2.198.668-4.416-.022-2.79-.086-4.908-.374-5.61-2.528-5.152-4.37-4.721-6.191-4.552-3.675 1.314-5.46 2.654-5.245 7.092.025.512.081 2.999.76 4.769z" fill="#FFCFAE"/><path d="M250.663 65.217c-.365-.12-.474-.067-.992-.035a2.46 2.46 0 00-.668.23s-.453.597-.506.675c-.094.14-.037.288.13.303.167.014.342-.052.483-.03 1.085.123 1.321.18 1.898-.117a2.93 2.93 0 00.647-.42 2.763 2.763 0 00-.992-.606z" fill="#fff"/><path d="M249.518 65.418c-.318.033-.521.344-.453.695.017.092.084.285.222.265.054-.008.588.072.839.076a.59.59 0 00.085-.173.678.678 0 00.006-.288c-.068-.35-.381-.608-.699-.575z" fill="#28160D" stroke="#1C1105" stroke-width=".2" stroke-miterlimit="10"/><path d="M249.71 66.389c.167-.018.275-.182.239-.367-.036-.185-.2-.321-.368-.303-.168.017-.275.181-.24.367.036.185.201.32.369.303z" fill="#000"/><path opacity=".77" d="M249.96 66.098c.091-.01.148-.098.129-.197-.019-.1-.108-.173-.198-.163-.09.01-.148.098-.129.197.019.1.108.173.198.163z" fill="#fff"/><path d="M248.472 66.291l.534-.784a.408.408 0 01.192-.153l.246-.088a1.09 1.09 0 01.393-.063l.659.017a.858.858 0 01.392.11l.723.408h.22l-.698-.588a1.021 1.021 0 00-.472-.133l-.657-.017a1.207 1.207 0 00-.451.074l-.244.088a1.14 1.14 0 00-.444.22l-.626.955.233-.046z" fill="#D3A688"/><path opacity=".5" d="M248.408 66.322l.535-.79a.475.475 0 01.228-.183l.245-.089c.139-.05.286-.073.435-.069l.659.018a.912.912 0 01.432.123l.713.41" stroke="#0A0001" stroke-width=".3" stroke-miterlimit="10"/><path d="M248.478 66.367l.274-.016c.143-.01.287 0 .431.027.346.04 1.065.206 1.656-.044.036-.017.293-.208.327-.233l.327-.233" stroke="#472A22" stroke-width=".2" stroke-miterlimit="10"/><path d="M243.942 65.844c.271-.148.371-.12.799-.164.2.005.4.038.596.098 0 0 .503.426.564.482.107.102.094.23-.038.265-.133.034-.29.004-.4.041-.856.248-1.035.327-1.572.162a2.817 2.817 0 01-.62-.254 1.96 1.96 0 01.671-.63z" fill="#fff"/><path d="M245.971 66.422l-.607-.568a.391.391 0 00-.19-.098l-.219-.039a.935.935 0 00-.335.002l-.532.104a.651.651 0 00-.296.142l-.499.432-.179.03.44-.575a.762.762 0 01.354-.172l.532-.104c.125-.024.255-.024.384 0l.218.038c.14.01.28.051.41.12l.72.694-.201-.006z" fill="#D3A688"/><path opacity=".5" d="M246.027 66.438l-.608-.572a.456.456 0 00-.226-.118l-.219-.04a.99.99 0 00-.369.003l-.533.104a.686.686 0 00-.325.16l-.492.43" stroke="#0A0001" stroke-width=".3" stroke-miterlimit="10"/><path d="M244.146 65.917c-.275.03-.462.29-.418.579.012.075.026.079.063.14.32.202.591.161.935.078a1.01 1.01 0 00-.001-.329c-.044-.289-.304-.498-.579-.468z" fill="#28160D" stroke="#1C1105" stroke-width=".2" stroke-miterlimit="10"/><path d="M244.201 66.737c.141-.014.234-.151.206-.305-.028-.155-.165-.268-.307-.254-.142.014-.234.151-.206.306.027.154.165.267.307.253z" fill="#000"/><path opacity=".77" d="M244.41 66.495c.076-.007.126-.08.111-.164-.015-.083-.089-.144-.165-.136-.076.007-.126.08-.111.164.015.083.089.144.165.136z" fill="#fff"/><path d="M245.959 66.48l-.226.025a1.41 1.41 0 00-.347.08c-.275.081-.83.313-1.361.192-.033-.008-.279-.127-.312-.142l-.313-.143" stroke="#472A22" stroke-width=".2" stroke-miterlimit="10"/><path d="M254.84 66.185c.446-1.269 1.215-1.73 1.723-1.017.508.712.357 2.237-.092 3.511-.448 1.274-1.219 1.688-1.516 1.09-.511-.707-.557-2.316-.115-3.584z" fill="#FFCFAE"/><path d="M255.254 67.131c.356-.74.859-1.036 1.119-.662.261.375.172 1.282-.188 2.017-.36.735-.862 1.042-1.134.661-.272-.38-.16-1.28.203-2.016z" fill="#F5B994"/><path d="M255.02 68.483c.118-.472.379-.719.585-.54.206.177.271.703.157 1.175-.115.472-.38.715-.585.54-.205-.174-.271-.691-.157-1.175z" fill="#FFCFAE"/><path d="M242.584 65.674c.328-.523.812-1.837 3.026-.91.14.058.208.082.297.313-1.976-.444-2.147-.493-3.323.597zm10.018-1.044c-.467-.533-1.589-1.396-3.826-.505-.147.08-.22.113-.279.375 2.118-.517 2.394-.585 4.105.13z" fill="#553723"/><path d="M246.609 67.064c.13 1.315-.303 2.017-.721 3.236.007.07.029.138.065.2.134.238.655.222 1.241 0 .221-.057.339-.033.543.039" stroke="#D3A688" stroke-width=".5" stroke-miterlimit="10"/><path d="M245.034 63.046c-.704 2.174-2.452 3.496-2.851 3.516l.373-4.739 5.622-4.907 7.304 2.937-.508 6.086c-6.959-5.259-4.662-8.042-6.513-7.415-1.85.627-2.548 1.805-3.427 4.522z" fill="#412616"/><g clip-path="url(#clip0)"><path d="M245.741 72.464l.004.001a.64.64 0 00.38-.057 3.548 3.548 0 011.657-.3 6.092 6.092 0 001.565-.223.34.34 0 01.131-.248c.032.191.107.37.219.521-.092.072-.261-.058-.261-.058-.13.325-.345.602-.619.795a1.56 1.56 0 01-.921.289c-.651.097-1.219.019-1.742-.406-.067.024-.332-.295-.409-.313h-.004z" fill="#FFC6C6" opacity=".8"/><path d="M246.093 72.579c.409-.202.855-.3 1.303-.288a5.25 5.25 0 001.927-.28 2.194 2.194 0 01-.783.791c-.319.186-.677.28-1.038.272a1.636 1.636 0 01-.757-.079 1.718 1.718 0 01-.652-.416z" fill="#FDFCFC"/><path d="M246.093 72.578l.187-.092c.065-.03.131-.056.198-.078l.198-.06c.066-.02.134-.035.202-.046l.208-.034.205.01.413-.016c.135.008.269.015.407-.029l.225-.02.185-.047.196-.034.214-.046c.067-.012.132-.03.197-.053a.96.96 0 00.174-.074l.126-.05-.054.13c-.037.078-.08.152-.129.223l-.076.097-.081.092-.087.084-.098.078c-.062.053-.127.1-.196.142a2.362 2.362 0 01-.888.323 1.416 1.416 0 01-.231.026l-.117-.007-.117-.006-.229-.012-.229-.012a1.373 1.373 0 01-.226-.07 1.323 1.323 0 01-.212-.1.833.833 0 01-.102-.063l-.095-.094-.09-.081a.812.812 0 01-.078-.08zm0 0a.835.835 0 00.084.081l.095.082.097.056.103.056a1.3 1.3 0 00.213.088c.076.004.145.046.221.056l.223.012.228.012.118.007.105.005c.077.004.155-.023.226-.032.297-.051.584-.161.846-.325l.19-.136a.548.548 0 00.069-.092l.087-.078.075-.086a.57.57 0 00.088-.097 1.3 1.3 0 00.116-.198l.073.074c-.067.03-.135.057-.205.079l-.22.052-.19.04-.202.034-.202.028-.207.02c-.135-.006-.275-.014-.412.017-.137.031-.276-.015-.411-.022l-.205-.01-.201.02-.202.034-.203.047-.197.066-.2.11z" fill="#CB7A63"/><path d="M249.323 72.011a5.25 5.25 0 01-1.927.28 2.758 2.758 0 00-1.303.288c.136.152.306.264.494.325-.184-.181-.225-.407.259-.45.485-.045 1.26-.01 1.681-.077.421-.067.124.535-1.172.683l.129.007c.364.012.725-.08 1.047-.264a2.18 2.18 0 00.792-.792z" fill="#CEC0B6" opacity=".4"/></g><path d="M243.416 152.795a1.138 1.138 0 01-.141 1.223c-.504.696-1.681 1.298-3.008 1.857-.165.073-.328.136-.456.2l-.102.05c-.029.014-.054.028-.081.039-1.273.647-.954.963-3.301 2.327-2.674 1.556-4.104 1.188-4.452.875-.294-.263.726-1.204 1.861-2.263l.165-.153c.151-.14.303-.285.453-.427 1.343-1.281 1.315-2.071 1.76-4.422.362-1.92.085-11.236.085-11.236l4.144.453s-.759 7.143.252 8.566c.54.759 1.323.991 1.878 1.598l.108.128c.33.356.611.754.835 1.185z" fill="#FFCFAE"/><path d="M243.416 152.796a1.13 1.13 0 01-.14 1.222c-.567.679-1.721 1.283-3.01 1.849-.166.075-.318.143-.454.209l-.103.05c-.028.014-.054.028-.08.039-1.274.647-.954.962-3.301 2.327-2.675 1.556-4.104 1.188-4.452.875-.294-.263.726-1.204 1.861-2.263a9.115 9.115 0 004.448-1.655c1.695-1.229 3.105-3.029 4.291-3.973l.108.128c.329.358.61.759.832 1.192z" fill="#0A3D76"/><path d="M213.947 149.892c-.254 1.269-2.061 1.057-4.08.556-2.02-.502-1.539.094-4.414-.225-2.874-.32-3.747-1.39-3.832-1.819-.078-.379 1.342-.513 2.865-.695.191-.021.384-.044.577-.068 1.72-.217 2.979-1.327 4.541-2.24 1.48-.864 3.688-4.385 3.688-4.385l3.94.313s-2.068 3.144-2.867 4.511c-.471.805-.446 1.868-.387 2.69a5.05 5.05 0 01-.031 1.362z" fill="#FFCFAE"/><path d="M209.867 150.448c-2.02-.493-1.539.095-4.414-.225-2.874-.32-3.747-1.389-3.832-1.819-.078-.379 1.342-.513 2.865-.695l.015.03a8.094 8.094 0 004.115 1.281c1.943.047 4.015-.512 5.362-.489.05.449.04.902-.031 1.349-.248 1.275-2.061 1.064-4.08.568z" fill="#0A3D76"/><path d="M233.549 120.717l2.081 25.18c.843.175 1.71.21 2.565.102 1.184-.181 2.606-.872 2.606-.872s1.787-22.555-1.447-27.585c-3.233-5.029-5.805 3.175-5.805 3.175z" fill="#052C57"/><path d="M260.706 115.078s-19.471-7.109-24.914-5.351c-5.444 1.757-24.785 33.477-24.785 33.477s.369.492 1.375.87c.937.352 3.204.33 3.204.33s13.612-13.022 15.368-16.714c1.756-3.692 4.486-8.406 6.242-8.053 3.433 1.406 21.066-.312 24.486 1.562.165-.121.326-.248.482-.382 4.741-4.924 3.095-7.565 3.095-7.565l-4.553 1.826z" fill="#0A3D76"/><path d="M262.459 101.006c.736-3.091 1.1-9.23-1.515-14.198-2.373-4.5-6.048-7.829-6.27-7.697.468 3.44-3.253 9.905-4.152 9.844-1.587-.107-1.46-9.542-1.46-9.542s-4.115.364-5.718 3.138c-2.22 3.835-4.015 16.415-6.398 16.245-1.093-.079-9.336.47-9.336.47s-.595-.369-.244 1.74c0 0 .46-2.323 5.055 0 2.43 1.23 5.365 2.714 6.398 2.476 2.093-.493 3.386-3.291 5.153-6.15l1.713-3.847c2.254 12.783-.209 16.3 1.343 17.647 1.639 1.423 1.308-.357 6.459 1.878 3.379 1.468 6.363 3.381 9.519 3.749 1.656.195 2.095.027 2.497-1.093 1.173-3.253-4.447-8.766-3.044-14.66z" fill="#699DEE"/><path d="M252.395 110.347c5.684-1.33 8.881-2.108 15.762-6.151l-4.401-3.28c-.472.468-10.56 5.3-11.184 6.316-.625 1.016-.177 3.115-.177 3.115z" fill="#4A75CB"/><path d="M265.575 115.339c-.21 1.254-.853 1.576-1.716 1.358-1.138-1.066-2.1-4.534-3.411-7.814-.937-2.343-1.646-1.243-2.255-6.318-.491-4.074 4.049-11.65 4.777-13.296 1.363 5.56.383 4.505 0 7.966-.729 6.598 3.215 14.462 2.605 18.104z" fill="#4A75CB"/><path d="M252.318 107.8l-.164-.471c-.646.226-1.591.102-1.792.114l-2.192.184a1.78 1.78 0 00-1.293.679l-2.816 3.6c.134.402.659.701 1.763-.747l-1.22 1.418c.043.332.373.52 1.29-.498-.264.374-.441.654-.411.694l.002.003c.095.129.456.832 3.135-2.481.21-.133.334-.088-.637 2.309-.003.499.4 1.037 1.826-1.955.693-.055 2.066-.579 2.609-1.304l.46-.413c-.455-1.026-.41-.774-.56-1.132z" fill="#FFCFAE"/><path d="M245.824 111.159c-1.104 1.448-1.629 1.149-1.763.747l2.816-3.6a1.78 1.78 0 011.293-.679l2.192-.184c.201-.012 1.146.112 1.792-.114l.164.471c.15.358.105.106.56 1.132l-.46.413c-.543.725-1.916 1.249-2.609 1.304-1.426 2.992-1.829 2.454-1.826 1.955.971-2.397.847-2.442.637-2.309-2.679 3.313-3.04 2.61-3.135 2.481l-.002-.003c-.03-.04.147-.32.411-.694m-.07-.92c.187-.245.858-.576 1.079-.929l-1.079.929zm0 0l-1.22 1.418c.043.332.373.52 1.29-.498m0 0c.362-.403 1.337-.74 1.9-1.584-.378.484-1.5 1.015-1.9 1.584z" stroke="#F5C5A5" stroke-width=".2"/><path d="M245.599 93.64c-1.257 3.117-3.655 8.461-5.634 9.303-.977.415-3.286-.06-5.89-.859 1.826.151 3.521-.154 5.144-.604 1.758-.481 1.9-2.766 4.159-6.544 1.467-2.446 2.01-1.985 2.221-1.297z" fill="#4A75CB"/><path d="M249.888 110.042c.161-.428 1.806-.654 2.608-.714-.321.714-2.006 1.131-2.808 1.25l.2-.536z" fill="#F5C5A5"/><path d="M251.865 107.922c-1.248.104-3.745.312-3.901.624.001-.312.656-.624 3.901-.624z" fill="#EEBE9E"/><path d="M254.674 78.955s6.917 1.276 9.02 4.218c2.519 3.516 5.215 13.595 5.111 18.923-.03 1.494-1.154 2.612-2.563 3.111l-13.909 4.925s0-.938-.624-2.812c.625-1.016 11.513-6.152 11.985-6.62.472-.468-2.873-9.089-2.873-10.495 0-1.406-6.147-11.25-6.147-11.25z" fill="#699DEE"/><path d="M253.963 113.244h-19.877v-1.457h19.877a.727.727 0 01.729.729.728.728 0 01-.729.728z" fill="#EDF5FF"/><path d="M248.529 113.244h-19.204a1.863 1.863 0 01-1.79-1.387l-3.382-12.748a1.866 1.866 0 011.807-2.347h16.734a1.863 1.863 0 011.807 1.391l4.028 15.091z" fill="#EDF5FF"/><path d="M225.96 96.766a1.865 1.865 0 00-1.831 1.497c-.057.28-.048.57.024.846l3.383 12.748c.103.381.323.719.629.968l11.636-16.059H225.96z" fill="url(#paint15_linear)"/><path d="M237.22 106.133a1.153 1.153 0 01-.183 1.065 1.15 1.15 0 01-.987.441 2.091 2.091 0 01-1.924-1.506 1.144 1.144 0 01.186-1.062 1.151 1.151 0 01.983-.443 2.096 2.096 0 011.925 1.505z" fill="#0A3D76"/><g filter="url(#filter7_d)"><path d="M81.259 189.979c-.72-.718-.289-4.749-.289-4.749s3.106-3.212 3.616-.562c.51 2.651 4.124 3.592 5.84 3.917 1.144.217 1.525.938 1.651 1.394H81.26zm24.064 0c-.779-.718-.312-4.749-.312-4.749s3.521-3.212 4.074-.562c.552 2.651 4.31 3.6 6.171 3.917 1.24.217 1.651.938 1.788 1.394h-11.721z" fill="#16233D"/><path d="M108.461 120.626l1.092 64.656h-4.993s-3.614-16.234-3.614-28.259l-1.923-11.75-1.954-9.964-11.547 49.973h-4.524s-1.887-16.936 2.813-29.21l1.81-35.247 22.84-.199z" fill="#0A3D76"/><path d="M97.07 135.464l2.808-8.903 1.103 30.604-3.912-21.701z" fill="#032953"/><path d="M96.336 86.084s-1.29 1.293-3.313.236v3.709l4.356-.379-1.043-3.566z" fill="#778FBB"/><path d="M85.573 121.033c14.631 4.56 23.319-.217 22.889-.719-2.043-7.974-2.927-23.347-2.927-23.347-.873 4.084-1.366 5.666-.385 9.548.296 1.175.918 3.593 1.961 4.205l10.349 3.679s5.433-1.153 4.775-1.682c-.658-.528-11.242-5.713-11.242-5.713-.05-2.725-.955-11.017-.955-11.017-.902-7.17-4.301-8.838-5.138-9.143a19.205 19.205 0 01-.524-.203c-2.457-1.035-4.51-1.169-7.238-1.235-2.098 1.27-15.203-2.112-16.737 2.652l5.172 32.975z" fill="#699DEE"/><path d="M99.21 85.417s-1.41 2.898-1.203 3.032c-1.404 2.03-4.369 2.499-9.363-1.718l-1.716-1.314" fill="#A9C3EA"/><path d="M94.076 89.854v-.582l2.15-.205.222.63c.116.126-1.619.44-2.372.157z" fill="#C43B55"/><path d="M96.09 86.084l-2.83.237c-2.277 0-4.252-.736-4.252-2.176v-5.55h8.24v5.55c0 1.432 1.117 1.94-1.159 1.94z" fill="#FFCFAE"/><path d="M89.003 78.745s.305 3.559 3.42 3.538c4.019-.045 5.132-2.055 5.132-2.055-1.173.886-2.522.07-3.99.074-2.741-.01-4.562-1.557-4.562-1.557z" fill="#EAAB85"/><path d="M101.634 61.72c-.705-.876-.217-.295-1.264-1.375-.674-.7-2.383-.29-3.671-.894-5.458-2.544-8.332 2.862-8.332 2.862-1.471-.16-2.693.358-3.393 1.774-.656 1.327 0 3.827.186 4.697l1.196 5.519 1.049-5.257c1.033-3.45 2.601-4.856 2.601-4.856l4.983-.405 5.284 10.013 1.209-5.721c.131-.75.897-2.205.855-2.968-.023-.441-.54-3.185-.703-3.39z" fill="#202020"/><path d="M98.839 73.19s1.158-2.66 1.974-1.623c.967 1.237.421 2.272-.601 3.858 0 0-.877 1.33-1.369.798-.004.008-.072-2.083-.004-3.033z" fill="#F9C8A3"/><path d="M87.194 73.12s-1.657-2.38-2.444-1.256c-.936 1.333-.184 2.244 1.18 3.61 0 0 1.164 1.132 1.653.559.004.007-.192-2.014-.39-2.914z" fill="#FFCFAE"/><path d="M100.633 69.407c0 2.013-.197 6.226-1.432 8.725-1.159 2.347-2.095 3.513-4.61 3.581-2.515.069-4.105-1.141-6.5-3.88-1.596-2.398-1.8-8.395-1.8-8.395s0-7.193 7.08-7.193c7.493.008 7.262 7.162 7.262 7.162z" fill="#FFCFAE"/><path d="M87.226 73.12c-.986-.136-3.22-8.7 1.38-9.95l5.244-1.594s5.95 1.663 6.137 1.587c.186-.076 1.217 2.594 1.217 2.594s.949 4.73-1.555 1.398c-.638-.846-1.632-1.25-2.678-1.403-4.458-.655-8.111-.037-8.295 2.02-.283 3.204-1.377 5.357-1.45 5.349z" fill="#202020"/><path d="M86.795 67.002l.19 5.759a.066.066 0 01-.046.066.065.065 0 01-.075-.027l-.842-1.204-.666-4.904 1.44.31z" fill="#202020"/><path d="M95.503 72.582c.008 1.303.46 1.946.947 3.1a.52.52 0 01-.04.202c-.096.247-1.072.234-1.329.165l-.459.042" stroke="#D3A688" stroke-width=".5" stroke-miterlimit="10"/><path d="M93.479 69.919a.418.418 0 10.003-.836l-1.817.022c-.272 0-.54.07-.776.203-.304.18-.15.647.2.61l.396-.04 1.994.04zm3.01-.072a.402.402 0 11-.015-.803h1.742c.263-.001.52.065.733.188.291.172.146.619-.19.586l-.392-.038-1.878.067z" fill="#202020"/><path d="M86.768 73.567c-.477-1.051-1.393-1.038-1.718-.491-.325.546.894 2.234 1.555 2.065.53-.131.449-.935.163-1.574z" fill="#EAAB85"/><path d="M86.888 74.374c-.223-.7-.802-.747-1.049-.418-.246.328.402 1.466.845 1.4.354-.055.346-.554.204-.982z" fill="#FFCFAE"/><path d="M93.154 77.543s2.135.7 4.162-.11" stroke="#B96665" stroke-width=".64" stroke-linecap="round" stroke-linejoin="round"/><path d="M93.259 86.321l-.12 3.793-6.367-4.79 2.223-2.795s1.864 3.196 4.264 3.792z" fill="#D6E4FD"/><path d="M96.123 86.103l.1 2.993-2.15.205-.814-2.97s1.852-.449 2.864-.228z" fill="#C43B55"/><path d="M97.442 89.783l-1.353-3.68c1.049-.843 1.177-2.286 1.177-2.286l1.944 1.619-1.768 4.347z" fill="#D6E4FD"/><path d="M93.26 86.321l.812 2.97 2.15-.205s-1.528.026-1.809-.263c-.28-.289-1.154-2.502-1.154-2.502z" fill="#A62E41"/><path d="M87.865 99.851c2.34-2.03 21.535-8.747 21.535-8.747l2.653 13.121-10.924 7.81-11.391.937-1.873-13.12z" fill="#457ED6"/><path d="M110.088 100.427l-16.36-6.334.976 19.708 16.346 6.326-.962-19.7z" fill="#053866"/><path d="M125.899 94.434l-16.38-6.334.952 19.658 16.364 6.355-.936-19.68z" fill="#102E5B"/><path d="M110.088 100.427l15.811-5.992.965 19.658-15.813 6.034-.963-19.7z" fill="#054270"/><path d="M93.729 94.092l15.79-5.992.955 19.614-15.77 6.086-.975-19.708z" fill="#0A2D49"/><path d="M110.088 100.427l-16.36-6.334.976 19.701 16.346 6.333-.962-19.7z" fill="#053866"/><path d="M97.82 95.717l-4.091-1.624.249 4.952 4.083 1.59-.241-4.918z" fill="#053866"/><path d="M96.558 98.387c.827-.591 1.191-1.37 1.123-2.744l-.493-.202c.06 1.217-.357 2.042-1.05 2.541-.581.415-1.368.466-2.207.14l.037.525c.34.142.706.214 1.075.21a2.68 2.68 0 001.515-.47z" fill="#B9D5FD"/><path d="M101.903 97.307l-4.084-1.59.242 4.917 4.083 1.59-.241-4.917z" fill="#0E2951"/><path d="M105.985 98.898l-4.083-1.59.241 4.917 4.084 1.59-.242-4.917z" fill="#709FDC"/><path d="M110.088 100.427l-4.101-1.53.241 4.917 4.083 1.569-.223-4.956z" fill="#6780B3"/><path d="M98.061 100.635l-4.083-1.59.244 4.92 4.08 1.59-.24-4.92z" fill="#B9D5FD"/><path d="M102.144 102.225l-4.083-1.59.241 4.92 4.083 1.59-.241-4.92z" fill="#274684"/><path d="M106.227 103.814l-4.083-1.59.242 4.92 4.083 1.59-.242-4.92z" fill="#3D95D1"/><path d="M110.31 105.383l-4.083-1.569.241 4.92 4.083 1.566-.241-4.917zm-7.925 1.761l-4.083-1.59.244 4.917 4.083 1.59-.244-4.917z" fill="#B9D5FD"/><path d="M106.468 108.735l-4.083-1.59.244 4.917 4.08 1.59-.241-4.917z" fill="#0E2951"/><path d="M110.553 110.301l-4.084-1.567.242 4.918 4.083 1.569-.241-4.92z" fill="#709FDC"/><path d="M98.545 110.471l-4.083-1.595.241 4.917 4.084 1.598-.242-4.92z" fill="#6780B3"/><path d="M102.629 112.062l-4.083-1.59.241 4.919 4.084 1.59-.242-4.919z" fill="#053866"/><path d="M106.709 113.652l-4.08-1.59.241 4.92 4.083 1.59-.244-4.92z" fill="#B9D5FD"/><path d="M110.793 115.22l-4.083-1.569.244 4.92 4.096 1.556-.257-4.907zM95.876 97.494c.637-.455.978-1.096.926-2.15l-.493-.202c.042.856-.22 1.471-.787 1.863a1.942 1.942 0 01-1.636.074l.031.59c.26.112.54.168.824.166.404.009.802-.11 1.135-.341z" fill="#3D95D1"/><path d="M95.18 96.455c.448-.312.665-.788.628-1.516l-.493-.2c.027.526-.041.768-.333 1.075a1.134 1.134 0 01-1.153.184l.028.589a1.382 1.382 0 001.312-.132h.01z" fill="#3376B3"/><path d="M94.547 95.417a.949.949 0 00.372-.88l-.593-.203c.113.295.124.492-.065.59a.92.92 0 01-.485 0l.029.588a.55.55 0 00.262.052.82.82 0 00.48-.147z" fill="#709FDC"/><path d="M110.594 113.883l-2.835-1.096-.354-7.24 2.932 1.151-.034-.686-3.522-1.322.42 8.499 3.456 1.343-.063-.649z" fill="#274684"/><path d="M110.695 113.979l-2.935-1.193-.183-3.729-.59-.203.215 4.334 3.527 1.48-.034-.689z" fill="#0E2951"/><path d="M110.634 112.703l-1.951-.715-.244-4.978 1.951.776-.034-.689-2.539-.946.302 6.136 2.475.968.04-.552z" fill="#274684"/><path d="M110.573 111.518l-.889-.397-.116-2.321.889.36-.034-.688-1.476-.529.176 3.582 1.413.55.037-.557z" fill="#274684"/><path d="M110.57 111.42l-.886-.3-.063-1.272-.59-.202.091 1.879 1.48.584-.032-.689z" fill="#0E2951"/><path d="M110.634 112.703l-1.952-.715-.123-2.549-.593-.203.155 3.151 2.544 1.004-.031-.688z" fill="#0E2951"/><path d="M97.622 111.268l-3.102-1.206.183 3.732 3.103 1.214-.184-3.74z" fill="#053866"/><path d="M96.626 112.135l-2.043-.796.121 2.455 2.043.798-.12-2.457z" fill="#709FDC"/><path d="M103.405 97.912l-1.332 2.513 2.656 2.785 1.33-2.512-2.654-2.786z" fill="#0E2951"/><path d="M103.727 99.21l-.679 1.286 1.353 1.416.68-1.28-1.354-1.422z" fill="#6780B3"/><path d="M106.759 114.634l-4.083-1.59.194 3.937 4.083 1.59-.194-3.937z" fill="#3D95D1"/><path d="M106.812 115.715l-4.084-1.59.142 2.856 4.083 1.59-.141-2.856z" fill="#6780B3"/><path d="M106.867 116.803l-4.086-1.595.089 1.773 4.083 1.59-.086-1.768z" fill="#053866"/><path d="M106.909 117.686l-4.084-1.59.045.885 4.083 1.59-.044-.885zm-4.571-11.525l-4.083-1.59 3.947-1.172-4.083-1.59 4.219 4.352z" fill="#0E2951"/><path d="M94.474 99.247l-.496-.202.244 4.92.493.199-.241-4.917zm.786.302l-.493-.202.241 4.919.496.203-.244-4.92zm2.572 1.012l-.493-.202.242 4.92.493.202-.242-4.92zm-.862-.362l-.59-.205.24 4.914.59.203-.24-4.912zm-.921-.345l-.493-.203.241 4.92.493.2-.241-4.917z" fill="#709FDC"/><path d="M98.302 105.555l-4.08-1.59.241 4.912 4.083 1.595-.244-4.917z" fill="#0E2951"/><path d="M98.426 108.009l-2.04-.791.12 2.458 2.04.796-.12-2.463zm-2.162-3.253l-2.043-.791.118 2.454 2.046.799-.12-2.462z" fill="#3D95D1"/><path d="M102.283 112.359l-3.349-1.304.197 4.034 3.351 1.309-.157-3.183-2.725-1.061.12 2.433 2.099.823-.084-1.706-1.469-.573.048.973.839.326" stroke="#3D95D1" stroke-width="2" stroke-miterlimit="10"/><path d="M110.252 115.612l-2.594 2.654m-.183-3.737l2.961 4.817" stroke="#0E2951" stroke-width="4" stroke-miterlimit="10"/><path d="M103.904 108.7l-.653-.255.039.789.653.252-.039-.786zm.952 1.429l-.653-.254.039.785.653.26-.039-.791zm.95 1.433l-.653-.252.04.785.653.253-.04-.786z" fill="#B9D5FD"/><path d="M111.05 120.127l15.822-6.013-.973-19.68-15.811 5.993.962 19.7z" fill="#053866"/><path d="M122.665 110.695l3.965-1.498-.241-4.92-3.965 1.506.241 4.912z" fill="#B9D5FD"/><path d="M118.707 112.201l3.958-1.506-.242-4.912-3.957 1.498.241 4.92z" fill="#274684"/><path d="M114.75 113.698l3.958-1.498-.242-4.92-3.957 1.501.241 4.917z" fill="#053866"/><path d="M110.794 115.22l3.957-1.522-.241-4.917-3.958 1.519.242 4.92zm7.673-7.939l3.957-1.498-.241-4.92-3.957 1.5.241 4.918z" fill="#B9D5FD"/><path d="M114.51 108.782l3.958-1.501-.241-4.917-3.958 1.498.241 4.92z" fill="#0E2951"/><path d="M110.551 110.301l3.957-1.519-.241-4.92-3.957 1.521.241 4.918z" fill="#709FDC"/><path d="M118.949 117.118l3.96-1.503-.244-4.92-3.957 1.506.241 4.917z" fill="#0E2951"/><path d="M114.992 118.619l3.957-1.501-.241-4.917-3.957 1.498.241 4.92z" fill="#709FDC"/><path d="M111.05 120.127l3.941-1.508-.241-4.92-3.957 1.521.257 4.907zm11.131-19.264l3.963-1.503-.246-4.925-3.958 1.51.241 4.918z" fill="#6780B3"/><path d="M118.225 102.363l3.958-1.501-.242-4.917-3.957 1.498.241 4.92z" fill="#053866"/><path d="M114.268 103.862l3.958-1.498-.242-4.92-3.96 1.5.244 4.918z" fill="#B9D5FD"/><path d="M110.311 105.384l3.957-1.522-.244-4.917-3.936 1.482.223 4.957z" fill="#3D95D1"/><path d="M114.211 113.223l-.417-8.499-3.55 1.346.23.554 2.78-1.054.357 7.238-2.916 1.172.034.689 3.482-1.446z" fill="#274684"/><path d="M113.793 104.724l-3.49 1.288.034.686 2.916-1.128.184 3.706.571-.189-.215-4.363z" fill="#0E2951"/><path d="M113.199 112.306l-.291-5.945-2.552.736.034.688 1.97-.775.238 4.88-1.964.812.031.689 2.534-1.085z" fill="#274684"/><path d="M112.111 111.515l-.178-3.582-1.571.599.23.555.803-.308.113 2.318-.939.324.031.688 1.511-.594z" fill="#274684"/><path d="M111.935 107.933l-1.511.539.034.688.939-.381.055 1.146.572-.189-.089-1.803z" fill="#0E2951"/><path d="M112.896 106.167l-2.541.93.034.688 1.969-.775.129 2.626.572-.19-.163-3.279z" fill="#0E2951"/><path d="M124.047 97.649l1.977-.747-.125-2.467-1.973.757.121 2.457z" fill="#FF8098"/><path d="M117.499 117.649l1.282-3.638-2.572-.841-1.291 3.635 2.581.844z" fill="#0E2951"/><path d="M117.181 116.552l.656-1.858-1.317-.431-.65 1.861 1.311.428z" fill="#6780B3"/><path d="M114.218 102.879l3.958-1.498-.192-3.937-3.96 1.5.194 3.935z" fill="#3D95D1"/><path d="M114.166 101.799l3.957-1.501-.139-2.854-3.96 1.5.142 2.855z" fill="#6780B3"/><path d="M114.114 100.718l3.957-1.505-.086-1.77-3.96 1.502.089 1.773z" fill="#053866"/><path d="M114.068 99.833l3.957-1.504-.042-.885-3.96 1.5.045.889zm4.448 8.43l3.957-1.5-3.823 4.257 3.96-1.5" fill="#0E2951"/><path d="M126.392 104.227l-.572.191.247 5.017.572-.191-.247-5.017zm-.748.347l-.571.189.244 4.92.569-.189-.242-4.92zm-2.392.897l-.569.189.252 4.925.577-.192-.26-4.922zm.809-.298l-.575.19.242 4.919.577-.189-.244-4.92zm.791-.297l-.575.189.241 4.92.575-.189-.241-4.92z" fill="#709FDC"/><path d="M122.425 105.783l3.965-1.506-.244-4.917-3.962 1.503.241 4.92z" fill="#0E2951"/><path d="M122.909 115.615l3.963-1.501-.242-4.917-3.965 1.498.244 4.92z" fill="#053866"/><path d="M122.303 103.32l1.986-.751-.121-2.458-1.985.752.12 2.457z" fill="#3D95D1"/><path d="M126.673 109.933l-.026-.491c-2.098.801-3.834 2.804-3.672 6.152l.488-.192c-.123-2.26 1.311-4.749 3.21-5.469z" fill="#B9D5FD"/><path d="M126.729 110.992l-.028-.589c-1.59.605-2.885 2.45-2.77 4.807l.58-.186c-.095-1.732.829-3.506 2.218-4.032z" fill="#3D95D1"/><path d="M126.776 112.096l-.036-.562c-1.083.412-1.836 1.821-1.765 3.295l.524-.189c-.042-1.064.433-2.221 1.277-2.544z" fill="#3376B3"/><path d="M126.835 113.279l-.039-.62c-.593.22-1.004.996-.871 1.784l.475-.192c-.023-.47.06-.833.435-.972z" fill="#709FDC"/><path d="M118.622 101.686l3.118-1.188-.189-3.876-3.121 1.182.152 3.057 2.534-.965L121 97.56l-1.948.744.081 1.632 1.361-.52-.045-.934-.776.297" stroke="#3D95D1" stroke-width="2" stroke-miterlimit="10"/><path d="M110.834 104.566l2.507-4.762m.184 3.74l-2.874-2.718" stroke="#0E2951" stroke-width="4" stroke-miterlimit="10"/><path d="M116.992 106.839l.634-.244-.039-.786-.632.239.037.791zm-.924-.751l.632-.245-.037-.785-.634.241.039.789zm-.923-.755l.632-.236-.039-.794-.632.245.039.785z" fill="#B9D5FD"/><path d="M123.079 99.318l3.008-1.138-.188-3.745-3.003 1.148.183 3.735z" fill="#053866"/><path d="M123.838 98.006l2.203-.836-.142-2.735-2.195.835.134 2.736z" fill="#709FDC"/><path d="M124.41 105.029l1.98-.752-.12-2.457-1.98.749.12 2.46z" fill="#3D95D1"/><path d="M103.246 90.494l6.273-2.394 16.38 6.334-6.459 2.344-16.194-6.284zm-1.435.543l-8.172 3.088 16.38 6.323 8.159-3.078-16.367-6.333z" fill="#165B93"/><path d="M102.414 93.499l-8.68.578 15.776-5.966 8.699-.599-15.795 5.987zm7.712 6.954l-6.341-6.1 15.811-5.987 6.312 6.074-15.782 6.013z" fill="#9CCEF7"/><path d="M106.077 115.29c-1.863-.49-2.966-.24-2.966-.24l-3.543-1.264-1.897 2.159 1.213.49.684.333h.59s.094-.143.258.064c.165.206 1.678.788 1.678.788 0 .139 2.529 2.911 3.018 3.067.489.156.901.115.968.074.251.113.536.133.801.055.478-.052.959-.075 1.44-.07l1.372-.059c.975-.133.499-.387.499-.387a3.054 3.054 0 00-.803-.197c.824.054 1.543-.006 1.388-.239-.257-.387-1.696-.575-1.696-.575s-.933-.066-1.262-.227c-.428-.641-.752-.844-.986-1.442-.396-1.01-.606-1.185-.606-1.185s2.129.845 3.059.397c.648-.442-.375-.622-1.489-.887-.759-.303-1.72-.655-1.72-.655z" fill="#FFCFAE"/><g filter="url(#filter8_f)"><path d="M105.354 118.741c.329.481 1.348 1.635 1.479 1.763.132.128.658.224 1.151.224.821-.021 2.3-.043 2.3-.224.001-.16.165-.16-.493-.321" stroke="#D3A688" stroke-width=".2" stroke-linecap="round"/></g><g filter="url(#filter9_f)"><path d="M106.119 118.49c.329.48 1.056 1.245 1.187 1.373.131.129.657.225 1.15.225.822-.022 2.099.09 2.327-.138" stroke="#D3A688" stroke-width=".2" stroke-linecap="round"/></g><g filter="url(#filter10_f)"><path d="M107.49 120.728c-.493 0-.986.257-1.479-.064-.155-.1-1.151-1.121-1.479-1.602" stroke="#D3A688" stroke-width=".2" stroke-linecap="round"/></g><path d="M83.254 86.574c-2.885.352-4.88 2.518-4.123 9.63.624 5.876 3.483 12.691 5.77 16.819.217.396.543.72.939.936 3.841 2.103 6.71 1.89 15.82 4.477l1.141-3.196s-8.942-3.173-12.918-5.312c-1.511-.816-.426-9.238-3.206-17.06-.785-2.207-1.878-4.367-3.423-6.294z" fill="#4A75CB"/><path d="M83.254 86.034c-2.885.352-4.88 2.518-4.123 9.63.624 5.876 3.483 12.691 5.77 16.819.217.396.543.72.939.936 3.841 2.102 6.71 1.89 15.82 4.476l1.141-3.195s-8.942-3.173-12.918-5.313c-1.511-.815-.426-9.237-3.206-17.06-.785-2.206-1.878-4.366-3.423-6.293z" fill="#699DEE"/><path d="M91.468 71.28c.34-.127.451-.087.956-.087.23.027.457.084.673.169 0 0 .505.506.565.572.106.12.067.255-.092.277-.16.022-.337-.027-.471 0-1.037.169-1.259.233-1.851 0a3.207 3.207 0 01-.673-.337c.251-.261.556-.464.893-.595z" fill="#fff"/><path d="M92.086 71.456a.59.59 0 01.539.83 3.1 3.1 0 01-1.067.022.59.59 0 01.528-.852z" fill="#28160D" stroke="#1C1105" stroke-width=".2" stroke-miterlimit="10"/><path d="M92.075 72.368a.313.313 0 110-.627.313.313 0 010 .627z" fill="#000"/><path opacity=".77" d="M92.423 72.047a.168.168 0 110-.337.168.168 0 010 .337z" fill="#fff"/><path d="M93.707 72.092l-.6-.658a.432.432 0 00-.202-.124l-.247-.064a1.193 1.193 0 00-.387-.033l-.635.05a.853.853 0 00-.366.117l-.655.396-.212.012.61-.552c.135-.08.286-.13.442-.142l.632-.05c.15-.012.3.002.444.04l.246.064c.16.026.314.084.453.17l.708.801-.23-.027z" fill="#D3A688"/><path opacity=".5" d="M93.77 72.118l-.6-.658a.505.505 0 00-.24-.146l-.246-.065a1.276 1.276 0 00-.428-.037l-.634.05a.905.905 0 00-.404.13l-.644.395" stroke="#0A0001" stroke-width=".3" stroke-miterlimit="10"/><path d="M93.686 72.205h-.264c-.139 0-.277.014-.412.042-.329.05-1.004.215-1.595.046a6.904 6.904 0 01-.337-.169l-.336-.168" stroke="#472A22" stroke-width=".2" stroke-miterlimit="10"/><path d="M98.63 71.28c-.338-.127-.45-.087-.954-.087a2.66 2.66 0 00-.673.17s-.505.506-.564.572c-.108.12-.07.255.09.277.16.022.337-.028.472 0 1.037.168 1.26.233 1.852 0 .236-.086.462-.2.673-.338a2.525 2.525 0 00-.896-.595z" fill="#fff"/><path d="M98.013 71.456a.59.59 0 01.523.864c-.44.049-.673.045-1.06-.03a.59.59 0 01.537-.834z" fill="#28160D" stroke="#1C1105" stroke-width=".2" stroke-miterlimit="10"/><path d="M98.02 72.369a.313.313 0 110-.627.313.313 0 010 .627z" fill="#000"/><path opacity=".77" d="M98.35 72.047a.168.168 0 11.001-.336.168.168 0 010 .336z" fill="#fff"/><path d="M96.39 72.093l.602-.66a.43.43 0 01.203-.123l.246-.064a1.2 1.2 0 01.387-.033l.637.05c.13.01.255.05.367.117l.653.397.212.011-.611-.552a1.006 1.006 0 00-.441-.142l-.635-.05a1.306 1.306 0 00-.443.04l-.247.064a1.24 1.24 0 00-.453.17l-.705.802.229-.028z" fill="#D3A688"/><path opacity=".5" d="M96.33 72.118l.6-.658a.506.506 0 01.24-.147l.246-.064c.136-.035.277-.047.416-.037l.635.05a.92.92 0 01.404.13l.656.395" stroke="#0A0001" stroke-width=".3" stroke-miterlimit="10"/><path d="M96.414 72.206h.264c.139 0 .278.014.414.042.415.055 1.035.232 1.594.045.039-.011.301-.15.337-.168l.336-.169" stroke="#472A22" stroke-width=".2" stroke-miterlimit="10"/></g><g filter="url(#filter11_di)"><path d="M133.766 20.81l-2.212-1.015a.535.535 0 01-.309-.467 9.167 9.167 0 00-.053-.772 8.852 8.852 0 00-.263-1.397.528.528 0 01.194-.56l2.028-1.527a.512.512 0 00.124-.693l-1.246-1.945a.518.518 0 00-.663-.185l-2.108 1.02a.527.527 0 01-.616-.11 9.406 9.406 0 00-2.373-1.767.522.522 0 01-.265-.59l.342-1.37a.526.526 0 00-.048-.375.539.539 0 00-.288-.25l-2.176-.774a.524.524 0 00-.658.269l-.769 1.632-.186.398a9.55 9.55 0 00-3.04.393.526.526 0 01-.568-.18l-1.243-1.614a.54.54 0 00-.718-.127l-1.505.94-.431.271a.535.535 0 00-.199.693l.862 1.74a.505.505 0 01-.097.6c-.47.47-.887.99-1.244 1.548a1.566 1.566 0 00-.092.14.534.534 0 01-.592.238l-2.253-.545a.546.546 0 00-.629.332l-.788 2.142a.525.525 0 00.28.663l2.308 1.057a.514.514 0 01.304.498 9.336 9.336 0 00.162 2.185.54.54 0 01-.206.533l-1.949 1.468a.515.515 0 00-.125.687l1.236 1.923a.547.547 0 00.704.197l1.668-.808a.543.543 0 01.65.129 9.356 9.356 0 002.171 1.896.519.519 0 01.234.576l-.496 2.007a.546.546 0 00.346.64l2.16.774a.534.534 0 00.661-.271l.045-.095.892-1.896a.535.535 0 01.532-.309 9.453 9.453 0 002.538-.168.537.537 0 01.532.194l1.262 1.64a.552.552 0 00.727.13l1.939-1.217a.537.537 0 00.195-.682l-.69-1.385a.54.54 0 01.036-.528.57.57 0 01.101-.11 9.265 9.265 0 002.314-2.855.526.526 0 01.594-.268l1.823.443a.541.541 0 00.63-.332l.019-.05.77-2.086a.538.538 0 00-.285-.672zm-16.825-2.15c.065-.38.166-.753.301-1.115.269-.719 1.026-1.654 1.679-2.065.07-.045.141-.087.211-.128 4.314-2.499 9.17 1.432 7.463 6.15-.224.616-.784 1.372-1.361 1.864a3.28 3.28 0 01-.397.292 5.831 5.831 0 01-1.815.75c-3.452.758-6.677-2.109-6.081-5.749z" fill="#F985A0"/></g><g filter="url(#filter12_di)"><path d="M293.897 79.655c.315-.106.552-.132.657-.106.053 0 .132.106.185.29.105.369.263 1.106.447 2.239.921 4.845 1.368 8.137 1.342 9.849l-.027.58-1.605.473-.999.316c-.342.106-.605.132-.763.08-.158-.053-.29-.185-.395-.422-.105-.237-.263-.685-.447-1.317l-.263-.869c-.395-1.37-.842-2.95-1.316-4.766-.473-1.817-.763-2.924-.842-3.371-.105-.395-.105-.685-.052-.87.158-.368.815-.816 1.973-1.316a25.853 25.853 0 012.105-.79zm.421 14.22c.841-.236 1.552-.21 2.131.08.578.316.973.816 1.21 1.58.237.79.158 1.554-.237 2.265-.395.71-.973 1.185-1.763 1.395-.289.08-.552.132-.763.106-.552 0-1.105-.184-1.657-.527-.553-.369-.895-.764-1.026-1.211a2.733 2.733 0 01.105-1.765 3.418 3.418 0 011.158-1.5c.184-.185.473-.317.842-.422z" fill="url(#paint16_linear)"/></g><g filter="url(#filter13_di)" fill="#0A3D76"><path d="M185.008 93.715h-8.151V91.71l2.743-2.794a36.203 36.203 0 001.535-1.684c.201-.234.372-.492.51-.768.094-.22.141-.459.139-.699a.889.889 0 00-.286-.698 1.123 1.123 0 00-.796-.259 2.187 2.187 0 00-1.074.308c-.44.278-.851.599-1.228.957l-1.654-1.963c.443-.425.932-.8 1.458-1.118a5.198 5.198 0 011.284-.51 6.335 6.335 0 011.563-.174 4.676 4.676 0 011.947.384c.541.23 1.003.61 1.333 1.096.314.472.477 1.027.468 1.593a4.073 4.073 0 01-.698 2.326 7.371 7.371 0 01-.9 1.16c-.384.398-1.194 1.16-2.443 2.277v.077h4.25v2.494zm10.761-2.18h-1.235v2.18h-2.994v-2.18h-4.48v-2.228l4.669-6.839h2.791v6.797h1.235l.014 2.27zm-4.229-2.27v-2.297a4.8 4.8 0 01.042-.699h-.084a8.228 8.228 0 01-.593 1.111l-1.249 1.851 1.884.035zm12.575-6.957l-4.187 11.561h-2.658l4.187-11.56h2.658zm2.812 11.407l3.859-8.718h-4.885v-2.515h8.109v1.795l-3.957 9.438h-3.126zm-21.808-14.251a13.396 13.396 0 0110.28-4.813 13.379 13.379 0 0110.279 4.813h2.554a15.452 15.452 0 00-12.837-6.859 15.44 15.44 0 00-12.837 6.86h2.561zm20.545 17.247a13.39 13.39 0 01-10.279 4.814 13.375 13.375 0 01-10.279-4.814h-2.562a15.463 15.463 0 0012.837 6.854 15.463 15.463 0 0012.838-6.854h-2.555z"/></g><g filter="url(#filter14_di)"><path d="M39.739 77.552c1.012-.25 1.949-.14 2.9.258.931.447 1.558 1.215 1.967 2.399.17.52.218.878.232 1.165-.01.672-.248 1.303-.822 1.85-.52.57-1.164.975-1.891 1.12-1.065.23-2.002.118-2.844-.403-.861-.473-1.47-1.29-1.915-2.377l-.12-.33a1.866 1.866 0 01-.016-1.413c.278-.897.783-1.585 1.55-1.995.319-.035.621-.19.959-.273zm-3.67-19.084c1.082-.277 1.968-.356 2.676-.285.654.049 1.535.306 2.538.725.95.398 1.759.85 2.372 1.33 1.331 1.008 2.305 2.316 2.833 3.83.443 1.254.586 2.495.34 3.63-.192 1.156-.791 2.255-1.78 3.416-.648.741-1.063 1.355-1.228 1.792-.184.485-.315.993-.306 1.615-.025.552-.082.866-.156 1.06-.126.172-.357.3-.766.41-.337.084-1.242.211-2.766.36-1.524.15-2.41.229-2.658.238-.3-.014-.53-.054-.652-.217a3.357 3.357 0 01-.312-.468c-.085-.26-.163-1.025-.182-2.27-.019-1.245.046-2.062.193-2.45.165-.437.543-.953 1.241-1.505.627-.525.969-.944 1.187-1.36.2-.365.24-.798.176-1.275l.002-.168-.068-.141c-.255-.782-.765-1.051-1.564-.88-.603.141-1.2 1.073-1.79 2.794-.167.605-.401.9-.544.954-.07.026-.124.004-.176-.018l-.143.053c-.567.044-1.905-.46-3.91-1.468-.72-.358-1.087-.68-1.207-1.012-.085-.26-.06-.812.02-1.51.212-1.205.795-2.423 1.697-3.677.883-1.205 1.905-2.127 2.993-2.74.553-.33 1.193-.569 1.94-.763z" fill="url(#paint17_linear)"/></g><defs><linearGradient id="paint0_linear" x1="51.961" y1="151.782" x2="81.083" y2="174.258" gradientUnits="userSpaceOnUse"><stop stop-color="#B4D1FA" stop-opacity="0"/><stop offset="1" stop-opacity=".2"/></linearGradient><linearGradient id="paint1_linear" x1="85.883" y1="154.536" x2="110.019" y2="171.605" gradientUnits="userSpaceOnUse"><stop stop-color="#B4D1FA" stop-opacity="0"/><stop offset="1" stop-opacity=".2"/></linearGradient><linearGradient id="paint2_linear" x1="116.321" y1="136.132" x2="156.427" y2="158.486" gradientUnits="userSpaceOnUse"><stop stop-color="#B4D1FA" stop-opacity="0"/><stop offset="1" stop-opacity=".2"/></linearGradient><linearGradient id="paint3_linear" x1="207.59" y1="132.58" x2="250.139" y2="155.209" gradientUnits="userSpaceOnUse"><stop stop-color="#B4D1FA" stop-opacity="0"/><stop offset="1" stop-opacity=".2"/></linearGradient><linearGradient id="paint4_linear" x1="225.79" y1="159.84" x2="263.176" y2="175.144" gradientUnits="userSpaceOnUse"><stop stop-color="#DCD5D7" stop-opacity="0"/><stop offset=".103" stop-color="#DCD5D7" stop-opacity=".85"/><stop offset="1" stop-color="#DCD5D7"/></linearGradient><linearGradient id="paint5_linear" x1="186.795" y1="142.182" x2="209.181" y2="167.551" gradientUnits="userSpaceOnUse"><stop stop-color="#B4D1FA" stop-opacity="0"/><stop offset=".672" stop-opacity=".2"/></linearGradient><linearGradient id="paint6_linear" x1="31.528" y1="166.081" x2="115.677" y2="204.671" gradientUnits="userSpaceOnUse"><stop stop-color="#B4D1FA" stop-opacity="0"/><stop offset="1" stop-opacity=".2"/></linearGradient><linearGradient id="paint7_linear" x1="253.97" y1="143.836" x2="291.431" y2="174.562" gradientUnits="userSpaceOnUse"><stop stop-color="#B4D1FA" stop-opacity="0"/><stop offset="1" stop-opacity=".2"/></linearGradient><linearGradient id="paint8_linear" x1="302.003" y1="148.343" x2="21.933" y2="117.485" gradientUnits="userSpaceOnUse"><stop stop-color="#A62E41"/><stop offset="1" stop-color="#E13152"/></linearGradient><linearGradient id="paint9_linear" x1="302.003" y1="148.343" x2="21.933" y2="117.485" gradientUnits="userSpaceOnUse"><stop stop-color="#A62E41"/><stop offset="1" stop-color="#E13152"/></linearGradient><linearGradient id="paint10_linear" x1="302.003" y1="148.343" x2="21.933" y2="117.485" gradientUnits="userSpaceOnUse"><stop stop-color="#A62E41"/><stop offset="1" stop-color="#E13152"/></linearGradient><linearGradient id="paint11_linear" x1="302.003" y1="148.343" x2="21.933" y2="117.485" gradientUnits="userSpaceOnUse"><stop stop-color="#A62E41"/><stop offset="1" stop-color="#E13152"/></linearGradient><linearGradient id="paint12_linear" x1="302.003" y1="148.343" x2="21.933" y2="117.485" gradientUnits="userSpaceOnUse"><stop stop-color="#A62E41"/><stop offset="1" stop-color="#E13152"/></linearGradient><linearGradient id="paint13_linear" x1="302.003" y1="148.343" x2="21.933" y2="117.485" gradientUnits="userSpaceOnUse"><stop stop-color="#A62E41"/><stop offset="1" stop-color="#E13152"/></linearGradient><linearGradient id="paint14_linear" x1="302.003" y1="148.343" x2="21.933" y2="117.485" gradientUnits="userSpaceOnUse"><stop stop-color="#A62E41"/><stop offset="1" stop-color="#E13152"/></linearGradient><linearGradient id="paint15_linear" x1="235.168" y1="103.403" x2="213.298" y2="103.853" gradientUnits="userSpaceOnUse"><stop stop-color="#71A0DD" stop-opacity="0"/><stop offset="1" stop-color="#71A0DD" stop-opacity=".5"/></linearGradient><linearGradient id="paint16_linear" x1="297.545" y1="89.424" x2="290.018" y2="89.358" gradientUnits="userSpaceOnUse"><stop stop-color="#A62E41"/><stop offset="1" stop-color="#E13152"/></linearGradient><linearGradient id="paint17_linear" x1="47.026" y1="74.272" x2="29.346" y2="67.218" gradientUnits="userSpaceOnUse"><stop stop-color="#A62E41"/><stop offset="1" stop-color="#E13152"/></linearGradient><filter id="filter0_d" x="3" y="127.18" width="322.321" height="105.82" filterUnits="userSpaceOnUse" color-interpolation-filters="sRGB"><feFlood flood-opacity="0" result="BackgroundImageFix"/><feColorMatrix in="SourceAlpha" values="0 0 0 0 0 0 0 0 0 0 0 0 0 0 0 0 0 0 127 0"/><feOffset dx="2" dy="2"/><feGaussianBlur stdDeviation="2"/><feColorMatrix values="0 0 0 0 0 0 0 0 0 0 0 0 0 0 0 0 0 0 0.2 0"/><feBlend in2="BackgroundImageFix" result="effect1_dropShadow"/><feBlend in="SourceGraphic" in2="effect1_dropShadow" result="shape"/></filter><filter id="filter1_f" x="21.881" y="162.05" width="97.004" height="30.086" filterUnits="userSpaceOnUse" color-interpolation-filters="sRGB"><feFlood flood-opacity="0" result="BackgroundImageFix"/><feBlend in="SourceGraphic" in2="BackgroundImageFix" result="shape"/><feGaussianBlur stdDeviation="1" result="effect1_foregroundBlur"/></filter><filter id="filter2_di" x="231" y="35.513" width="13.115" height="13.12" filterUnits="userSpaceOnUse" color-interpolation-filters="sRGB"><feFlood flood-opacity="0" result="BackgroundImageFix"/><feColorMatrix in="SourceAlpha" values="0 0 0 0 0 0 0 0 0 0 0 0 0 0 0 0 0 0 127 0"/><feOffset dx="2" dy="2"/><feGaussianBlur stdDeviation="2"/><feColorMatrix values="0 0 0 0 0 0 0 0 0 0 0 0 0 0 0 0 0 0 0.15 0"/><feBlend in2="BackgroundImageFix" result="effect1_dropShadow"/><feBlend in="SourceGraphic" in2="effect1_dropShadow" result="shape"/><feColorMatrix in="SourceAlpha" values="0 0 0 0 0 0 0 0 0 0 0 0 0 0 0 0 0 0 127 0" result="hardAlpha"/><feOffset dx="-1" dy="-1"/><feGaussianBlur stdDeviation="1"/><feComposite in2="hardAlpha" operator="arithmetic" k2="-1" k3="1"/><feColorMatrix values="0 0 0 0 0 0 0 0 0 0 0 0 0 0 0 0 0 0 0.15 0"/><feBlend in2="shape" result="effect2_innerShadow"/></filter><filter id="filter3_di" x="247.452" y="16.997" width="13.626" height="13.632" filterUnits="userSpaceOnUse" color-interpolation-filters="sRGB"><feFlood flood-opacity="0" result="BackgroundImageFix"/><feColorMatrix in="SourceAlpha" values="0 0 0 0 0 0 0 0 0 0 0 0 0 0 0 0 0 0 127 0"/><feOffset dx="2" dy="2"/><feGaussianBlur stdDeviation="2"/><feColorMatrix values="0 0 0 0 0 0 0 0 0 0 0 0 0 0 0 0 0 0 0.15 0"/><feBlend in2="BackgroundImageFix" result="effect1_dropShadow"/><feBlend in="SourceGraphic" in2="effect1_dropShadow" result="shape"/><feColorMatrix in="SourceAlpha" values="0 0 0 0 0 0 0 0 0 0 0 0 0 0 0 0 0 0 127 0" result="hardAlpha"/><feOffset dx="-1" dy="-1"/><feGaussianBlur stdDeviation="1"/><feComposite in2="hardAlpha" operator="arithmetic" k2="-1" k3="1"/><feColorMatrix values="0 0 0 0 0 0 0 0 0 0 0 0 0 0 0 0 0 0 0.15 0"/><feBlend in2="shape" result="effect2_innerShadow"/></filter><filter id="filter4_di" x="269.275" y="34.404" width="11.154" height="11.157" filterUnits="userSpaceOnUse" color-interpolation-filters="sRGB"><feFlood flood-opacity="0" result="BackgroundImageFix"/><feColorMatrix in="SourceAlpha" values="0 0 0 0 0 0 0 0 0 0 0 0 0 0 0 0 0 0 127 0"/><feOffset dx="2" dy="2"/><feGaussianBlur stdDeviation="2"/><feColorMatrix values="0 0 0 0 0 0 0 0 0 0 0 0 0 0 0 0 0 0 0.15 0"/><feBlend in2="BackgroundImageFix" result="effect1_dropShadow"/><feBlend in="SourceGraphic" in2="effect1_dropShadow" result="shape"/><feColorMatrix in="SourceAlpha" values="0 0 0 0 0 0 0 0 0 0 0 0 0 0 0 0 0 0 127 0" result="hardAlpha"/><feOffset dx="-1" dy="-1"/><feGaussianBlur stdDeviation="1"/><feComposite in2="hardAlpha" operator="arithmetic" k2="-1" k3="1"/><feColorMatrix values="0 0 0 0 0 0 0 0 0 0 0 0 0 0 0 0 0 0 0.15 0"/><feBlend in2="shape" result="effect2_innerShadow"/></filter><filter id="filter5_di" x="280.74" y="10" width="14.138" height="14.144" filterUnits="userSpaceOnUse" color-interpolation-filters="sRGB"><feFlood flood-opacity="0" result="BackgroundImageFix"/><feColorMatrix in="SourceAlpha" values="0 0 0 0 0 0 0 0 0 0 0 0 0 0 0 0 0 0 127 0"/><feOffset dx="2" dy="2"/><feGaussianBlur stdDeviation="2"/><feColorMatrix values="0 0 0 0 0 0 0 0 0 0 0 0 0 0 0 0 0 0 0.15 0"/><feBlend in2="BackgroundImageFix" result="effect1_dropShadow"/><feBlend in="SourceGraphic" in2="effect1_dropShadow" result="shape"/><feColorMatrix in="SourceAlpha" values="0 0 0 0 0 0 0 0 0 0 0 0 0 0 0 0 0 0 127 0" result="hardAlpha"/><feOffset dx="-1" dy="-1"/><feGaussianBlur stdDeviation="1"/><feComposite in2="hardAlpha" operator="arithmetic" k2="-1" k3="1"/><feColorMatrix values="0 0 0 0 0 0 0 0 0 0 0 0 0 0 0 0 0 0 0.15 0"/><feBlend in2="shape" result="effect2_innerShadow"/></filter><filter id="filter6_di" x="5.741" y="114.96" width="311.558" height="68.765" filterUnits="userSpaceOnUse" color-interpolation-filters="sRGB"><feFlood flood-opacity="0" result="BackgroundImageFix"/><feColorMatrix in="SourceAlpha" values="0 0 0 0 0 0 0 0 0 0 0 0 0 0 0 0 0 0 127 0"/><feOffset dx="2" dy="2"/><feGaussianBlur stdDeviation="2"/><feColorMatrix values="0 0 0 0 0 0 0 0 0 0 0 0 0 0 0 0 0 0 0.15 0"/><feBlend in2="BackgroundImageFix" result="effect1_dropShadow"/><feBlend in="SourceGraphic" in2="effect1_dropShadow" result="shape"/><feColorMatrix in="SourceAlpha" values="0 0 0 0 0 0 0 0 0 0 0 0 0 0 0 0 0 0 127 0" result="hardAlpha"/><feOffset dx="-4" dy="-4"/><feGaussianBlur stdDeviation="5"/><feComposite in2="hardAlpha" operator="arithmetic" k2="-1" k3="1"/><feColorMatrix values="0 0 0 0 0 0 0 0 0 0 0 0 0 0 0 0 0 0 0.25 0"/><feBlend in2="shape" result="effect2_innerShadow"/></filter><filter id="filter7_d" x="78.969" y="50.77" width="65.902" height="147.209" filterUnits="userSpaceOnUse" color-interpolation-filters="sRGB"><feFlood flood-opacity="0" result="BackgroundImageFix"/><feColorMatrix in="SourceAlpha" values="0 0 0 0 0 0 0 0 0 0 0 0 0 0 0 0 0 0 127 0"/><feOffset dx="10"/><feGaussianBlur stdDeviation="4"/><feColorMatrix values="0 0 0 0 0 0 0 0 0 0 0 0 0 0 0 0 0 0 0.25 0"/><feBlend in2="BackgroundImageFix" result="effect1_dropShadow"/><feBlend in="SourceGraphic" in2="effect1_dropShadow" result="shape"/></filter><filter id="filter8_f" x="105.054" y="118.441" width="5.549" height="2.587" filterUnits="userSpaceOnUse" color-interpolation-filters="sRGB"><feFlood flood-opacity="0" result="BackgroundImageFix"/><feBlend in="SourceGraphic" in2="BackgroundImageFix" result="shape"/><feGaussianBlur stdDeviation=".1" result="effect1_foregroundBlur"/></filter><filter id="filter9_f" x="105.819" y="118.19" width="5.263" height="2.207" filterUnits="userSpaceOnUse" color-interpolation-filters="sRGB"><feFlood flood-opacity="0" result="BackgroundImageFix"/><feBlend in="SourceGraphic" in2="BackgroundImageFix" result="shape"/><feGaussianBlur stdDeviation=".1" result="effect1_foregroundBlur"/></filter><filter id="filter10_f" x="104.232" y="118.762" width="3.558" height="2.363" filterUnits="userSpaceOnUse" color-interpolation-filters="sRGB"><feFlood flood-opacity="0" result="BackgroundImageFix"/><feBlend in="SourceGraphic" in2="BackgroundImageFix" result="shape"/><feGaussianBlur stdDeviation=".1" result="effect1_foregroundBlur"/></filter><filter id="filter11_di" x="107.652" y="6" width="32.431" height="31.36" filterUnits="userSpaceOnUse" color-interpolation-filters="sRGB"><feFlood flood-opacity="0" result="BackgroundImageFix"/><feColorMatrix in="SourceAlpha" values="0 0 0 0 0 0 0 0 0 0 0 0 0 0 0 0 0 0 127 0"/><feOffset dx="2" dy="2"/><feGaussianBlur stdDeviation="2"/><feColorMatrix values="0 0 0 0 0 0 0 0 0 0 0 0 0 0 0 0 0 0 0.15 0"/><feBlend in2="BackgroundImageFix" result="effect1_dropShadow"/><feBlend in="SourceGraphic" in2="effect1_dropShadow" result="shape"/><feColorMatrix in="SourceAlpha" values="0 0 0 0 0 0 0 0 0 0 0 0 0 0 0 0 0 0 127 0" result="hardAlpha"/><feOffset dx="-1" dy="-1"/><feGaussianBlur stdDeviation="1"/><feComposite in2="hardAlpha" operator="arithmetic" k2="-1" k3="1"/><feColorMatrix values="0 0 0 0 0 0 0 0 0 0 0 0 0 0 0 0 0 0 0.15 0"/><feBlend in2="shape" result="effect2_innerShadow"/></filter><filter id="filter12_di" x="287.784" y="77.54" width="16.008" height="27.768" filterUnits="userSpaceOnUse" color-interpolation-filters="sRGB"><feFlood flood-opacity="0" result="BackgroundImageFix"/><feColorMatrix in="SourceAlpha" values="0 0 0 0 0 0 0 0 0 0 0 0 0 0 0 0 0 0 127 0"/><feOffset dx="2" dy="2"/><feGaussianBlur stdDeviation="2"/><feColorMatrix values="0 0 0 0 0 0 0 0 0 0 0 0 0 0 0 0 0 0 0.15 0"/><feBlend in2="BackgroundImageFix" result="effect1_dropShadow"/><feBlend in="SourceGraphic" in2="effect1_dropShadow" result="shape"/><feColorMatrix in="SourceAlpha" values="0 0 0 0 0 0 0 0 0 0 0 0 0 0 0 0 0 0 127 0" result="hardAlpha"/><feOffset dx="-2" dy="-2"/><feGaussianBlur stdDeviation="2"/><feComposite in2="hardAlpha" operator="arithmetic" k2="-1" k3="1"/><feColorMatrix values="0 0 0 0 0 0 0 0 0 0 0 0 0 0 0 0 0 0 0.2 0"/><feBlend in2="shape" result="effect2_innerShadow"/></filter><filter id="filter13_di" x="174.746" y="70.605" width="45.264" height="38.96" filterUnits="userSpaceOnUse" color-interpolation-filters="sRGB"><feFlood flood-opacity="0" result="BackgroundImageFix"/><feColorMatrix in="SourceAlpha" values="0 0 0 0 0 0 0 0 0 0 0 0 0 0 0 0 0 0 127 0"/><feOffset dx="2" dy="2"/><feGaussianBlur stdDeviation="2"/><feColorMatrix values="0 0 0 0 0 0 0 0 0 0 0 0 0 0 0 0 0 0 0.15 0"/><feBlend in2="BackgroundImageFix" result="effect1_dropShadow"/><feBlend in="SourceGraphic" in2="effect1_dropShadow" result="shape"/><feColorMatrix in="SourceAlpha" values="0 0 0 0 0 0 0 0 0 0 0 0 0 0 0 0 0 0 127 0" result="hardAlpha"/><feOffset dx="-1" dy="-1"/><feGaussianBlur stdDeviation="2"/><feComposite in2="hardAlpha" operator="arithmetic" k2="-1" k3="1"/><feColorMatrix values="0 0 0 0 0 0 0 0 0 0 0 0 0 0 0 0 0 0 0.2 0"/><feBlend in2="shape" result="effect2_innerShadow"/></filter><filter id="filter14_di" x="27.366" y="56.158" width="25.581" height="34.299" filterUnits="userSpaceOnUse" color-interpolation-filters="sRGB"><feFlood flood-opacity="0" result="BackgroundImageFix"/><feColorMatrix in="SourceAlpha" values="0 0 0 0 0 0 0 0 0 0 0 0 0 0 0 0 0 0 127 0"/><feOffset dx="2" dy="2"/><feGaussianBlur stdDeviation="2"/><feColorMatrix values="0 0 0 0 0 0 0 0 0 0 0 0 0 0 0 0 0 0 0.15 0"/><feBlend in2="BackgroundImageFix" result="effect1_dropShadow"/><feBlend in="SourceGraphic" in2="effect1_dropShadow" result="shape"/><feColorMatrix in="SourceAlpha" values="0 0 0 0 0 0 0 0 0 0 0 0 0 0 0 0 0 0 127 0" result="hardAlpha"/><feOffset dx="-2" dy="-2"/><feGaussianBlur stdDeviation="2"/><feComposite in2="hardAlpha" operator="arithmetic" k2="-1" k3="1"/><feColorMatrix values="0 0 0 0 0 0 0 0 0 0 0 0 0 0 0 0 0 0 0.2 0"/><feBlend in2="shape" result="effect2_innerShadow"/></filter><clipPath id="clip0"><path fill="#fff" transform="matrix(.99863 .05308 -.05312 .99855 245.437 71.422)" d="M0 0h4.294v2.341H0z"/></clipPath></defs></svg>