<svg width="30" height="63" fill="none" xmlns="http://www.w3.org/2000/svg"><g filter="url(#filter0_di)"><path d="M13.278 2.315c.866-.289 1.515-.361 1.804-.289.144 0 .36.289.505.794.289 1.01.721 3.03 1.227 6.132 2.525 13.276 3.751 22.295 3.68 26.985l-.073 1.587-4.401 1.299-2.742.866c-.938.288-1.66.36-2.092.216-.433-.144-.794-.505-1.082-1.154-.29-.65-.722-1.876-1.227-3.608l-.722-2.38a516.217 516.217 0 01-3.607-13.06c-1.299-4.978-2.092-8.009-2.309-9.235-.289-1.083-.289-1.876-.144-2.381.433-1.01 2.236-2.237 5.411-3.608 2.237-.938 4.185-1.66 5.772-2.164zm1.154 38.961c2.31-.65 4.257-.577 5.845.216 1.587.866 2.67 2.237 3.319 4.33.65 2.164.433 4.256-.65 6.204-1.082 1.949-2.67 3.247-4.834 3.824-.793.217-1.515.361-2.092.29-1.515 0-3.03-.506-4.546-1.444-1.515-1.01-2.453-2.092-2.814-3.319-.432-1.515-.36-3.175.29-4.834.648-1.66 1.73-3.03 3.174-4.113.505-.505 1.298-.865 2.308-1.154z" fill="url(#paint0_linear)"/></g><defs><linearGradient id="paint0_linear" x1="23.284" y1="29.079" x2="2.642" y2="28.899" gradientUnits="userSpaceOnUse"><stop stop-color="#A62E41"/><stop offset="1" stop-color="#E13152"/></linearGradient><filter id="filter0_di" x="0" y="0" width="29.961" height="62.158" filterUnits="userSpaceOnUse" color-interpolation-filters="sRGB"><feFlood flood-opacity="0" result="BackgroundImageFix"/><feColorMatrix in="SourceAlpha" values="0 0 0 0 0 0 0 0 0 0 0 0 0 0 0 0 0 0 127 0"/><feOffset dx="2" dy="2"/><feGaussianBlur stdDeviation="2"/><feColorMatrix values="0 0 0 0 0 0 0 0 0 0 0 0 0 0 0 0 0 0 0.15 0"/><feBlend in2="BackgroundImageFix" result="effect1_dropShadow"/><feBlend in="SourceGraphic" in2="effect1_dropShadow" result="shape"/><feColorMatrix in="SourceAlpha" values="0 0 0 0 0 0 0 0 0 0 0 0 0 0 0 0 0 0 127 0" result="hardAlpha"/><feOffset dx="-2" dy="-2"/><feGaussianBlur stdDeviation="2"/><feComposite in2="hardAlpha" operator="arithmetic" k2="-1" k3="1"/><feColorMatrix values="0 0 0 0 0 0 0 0 0 0 0 0 0 0 0 0 0 0 0.2 0"/><feBlend in2="shape" result="effect2_innerShadow"/></filter></defs></svg>