<svg width="75" height="90" fill="none" xmlns="http://www.w3.org/2000/svg"><g filter="url(#filter0_di)"><path d="M40.543 63.523c2.748-.649 5.26-.313 7.78.807 2.468 1.251 4.083 3.37 5.072 6.612.409 1.428.505 2.405.515 3.188-.087 1.83-.788 3.544-2.384 5.015-1.457 1.534-3.225 2.618-5.197 2.988-2.889.586-5.4.25-7.62-1.202-2.272-1.321-3.834-3.572-4.93-6.551l-.291-.908c-.549-1.49-.343-2.8.089-3.854.831-2.434 2.255-4.294 4.357-5.385.862-.084 1.693-.494 2.609-.71zM32.45 11.338c2.942-.718 5.335-.901 7.232-.682 1.756.157 4.105.888 6.767 2.07 2.52 1.12 4.654 2.378 6.259 3.714 3.49 2.795 5.988 6.396 7.268 10.547 1.075 3.436 1.342 6.826.575 9.911-.627 3.148-2.343 6.124-5.114 9.254-1.812 1.999-2.988 3.657-3.474 4.843-.54 1.318-.94 2.698-.973 4.396-.12 1.505-.303 2.357-.519 2.884-.356.465-.992.806-2.102 1.092-.916.216-3.363.531-7.48.883-4.117.353-6.51.536-7.178.551-.809-.047-1.423-.164-1.735-.614-.312-.45-.625-.9-.797-1.289-.204-.713-.343-2.8-.276-6.196.067-3.397.316-5.622.748-6.676.486-1.187 1.554-2.581 3.484-4.06 1.736-1.41 2.696-2.541 3.322-3.665.571-.992.723-2.17.595-3.473l.021-.458-.172-.388c-.613-2.141-1.96-2.895-4.126-2.455-1.638.363-3.332 2.881-5.081 7.556-.508 1.643-1.166 2.441-1.554 2.58-.194.07-.334.008-.474-.054l-.388.139c-1.53.099-5.086-1.324-10.387-4.145-1.906-1.002-2.865-1.895-3.156-2.803-.204-.713-.084-2.218.197-4.117.681-3.28 2.365-6.582 4.91-9.968 2.492-3.255 5.328-5.733 8.315-7.366 1.52-.883 3.266-1.509 5.293-2.01z" fill="url(#paint0_linear)"/></g><defs><linearGradient id="paint0_linear" x1="60.468" y1="54.837" x2="13.653" y2="34.686" gradientUnits="userSpaceOnUse"><stop stop-color="#A62E41"/><stop offset="1" stop-color="#E13152"/></linearGradient><filter id="filter0_di" x="11.634" y="8.569" width="55.357" height="79.838" filterUnits="userSpaceOnUse" color-interpolation-filters="sRGB"><feFlood flood-opacity="0" result="BackgroundImageFix"/><feColorMatrix in="SourceAlpha" values="0 0 0 0 0 0 0 0 0 0 0 0 0 0 0 0 0 0 127 0"/><feOffset dx="2" dy="2"/><feGaussianBlur stdDeviation="2"/><feColorMatrix values="0 0 0 0 0 0 0 0 0 0 0 0 0 0 0 0 0 0 0.15 0"/><feBlend in2="BackgroundImageFix" result="effect1_dropShadow"/><feBlend in="SourceGraphic" in2="effect1_dropShadow" result="shape"/><feColorMatrix in="SourceAlpha" values="0 0 0 0 0 0 0 0 0 0 0 0 0 0 0 0 0 0 127 0" result="hardAlpha"/><feOffset dx="-2" dy="-2"/><feGaussianBlur stdDeviation="2"/><feComposite in2="hardAlpha" operator="arithmetic" k2="-1" k3="1"/><feColorMatrix values="0 0 0 0 0 0 0 0 0 0 0 0 0 0 0 0 0 0 0.2 0"/><feBlend in2="shape" result="effect2_innerShadow"/></filter></defs></svg>