<svg width="111" height="93" fill="none" xmlns="http://www.w3.org/2000/svg"><g filter="url(#filter0_di)" fill="#0A3D76"><path d="M24.66 59.834H2.306V54.34l7.521-7.655c2.163-2.258 3.56-3.828 4.21-4.612a10.128 10.128 0 001.398-2.106c.259-.604.39-1.256.383-1.913a2.411 2.411 0 00-.785-1.914 3.08 3.08 0 00-2.182-.708 6.01 6.01 0 00-2.947.842 22.067 22.067 0 00-3.368 2.622L2 33.519a22.973 22.973 0 014-3.062c1.106-.62 2.29-1.09 3.521-1.397a17.392 17.392 0 014.287-.479 12.843 12.843 0 015.34 1.053 8.382 8.382 0 013.655 3.005 7.655 7.655 0 011.282 4.363 11.139 11.139 0 01-1.913 6.373 20.156 20.156 0 01-2.47 3.177c-1.052 1.09-3.272 3.177-6.698 6.239V53H24.66v6.833zm29.509-5.971H50.78v5.97h-8.21v-5.97H30.284v-6.105L43.088 29.02h7.655v18.622h3.387l.039 6.22zm-11.598-6.22v-6.297c-.01-.64.029-1.28.115-1.913h-.23a22.955 22.955 0 01-1.627 3.042l-3.425 5.072 5.167.096zM77.06 28.581L65.577 60.255h-7.292L69.768 28.58h7.292zm7.71 31.253l10.584-23.885H81.957v-6.89h22.239v4.92L93.344 59.833H84.77zM24.966 20.792a36.726 36.726 0 0156.381 0h7.005a42.372 42.372 0 00-70.41 0h7.024zm56.343 47.252a36.725 36.725 0 01-56.381 0h-7.024a42.39 42.39 0 0070.41 0h-7.005z"/></g><defs><filter id="filter0_di" x="0" y="0" width="110.196" height="92.821" filterUnits="userSpaceOnUse" color-interpolation-filters="sRGB"><feFlood flood-opacity="0" result="BackgroundImageFix"/><feColorMatrix in="SourceAlpha" values="0 0 0 0 0 0 0 0 0 0 0 0 0 0 0 0 0 0 127 0"/><feOffset dx="2" dy="2"/><feGaussianBlur stdDeviation="2"/><feColorMatrix values="0 0 0 0 0 0 0 0 0 0 0 0 0 0 0 0 0 0 0.15 0"/><feBlend in2="BackgroundImageFix" result="effect1_dropShadow"/><feBlend in="SourceGraphic" in2="effect1_dropShadow" result="shape"/><feColorMatrix in="SourceAlpha" values="0 0 0 0 0 0 0 0 0 0 0 0 0 0 0 0 0 0 127 0" result="hardAlpha"/><feOffset dx="-1" dy="-1"/><feGaussianBlur stdDeviation="2"/><feComposite in2="hardAlpha" operator="arithmetic" k2="-1" k3="1"/><feColorMatrix values="0 0 0 0 0 0 0 0 0 0 0 0 0 0 0 0 0 0 0.2 0"/><feBlend in2="shape" result="effect2_innerShadow"/></filter></defs></svg>