<svg width="338" height="236" fill="none" xmlns="http://www.w3.org/2000/svg"><g filter="url(#filter0_di)"><path d="M122.372 27.6c6.645 0 12.031-5.406 12.031-12.075S129.017 3.45 122.372 3.45c-6.645 0-12.031 5.406-12.031 12.075S115.727 27.6 122.372 27.6z" fill="#F985A0"/><path d="M122.372 25.186c5.316 0 9.625-4.325 9.625-9.66 0-5.336-4.309-9.66-9.625-9.66-5.315 0-9.625 4.324-9.625 9.66 0 5.335 4.31 9.66 9.625 9.66z" fill="#C43B55" stroke="#D6516B" stroke-miterlimit="10"/><path d="M122.372 22.77c3.987 0 7.219-3.244 7.219-7.245 0-4.002-3.232-7.245-7.219-7.245s-7.218 3.244-7.218 7.245c0 4.001 3.231 7.245 7.218 7.245z" fill="#D6516B" stroke="#C43B55" stroke-miterlimit="10"/><path d="M122.373 20.356c2.657 0 4.812-2.162 4.812-4.83s-2.155-4.83-4.812-4.83c-2.658 0-4.813 2.162-4.813 4.83s2.155 4.83 4.813 4.83z" fill="#F985A0"/><path d="M122.372 17.94a2.411 2.411 0 002.407-2.415 2.411 2.411 0 00-2.407-2.415 2.41 2.41 0 00-2.406 2.415 2.41 2.41 0 002.406 2.415z" fill="#D6516B"/><path d="M122.372 16.25a.723.723 0 00.721-.725c0-.4-.323-.725-.721-.725a.723.723 0 00-.722.725c0 .4.323.725.722.725z" fill="#A62E41"/></g><g filter="url(#filter1_d)"><path d="M123.748 15.08l11.735-5.01.853.161 3.1-1.323-1.342-.083.871-1.028-3.1 1.323-.476.728-11.735 5.01.127-.318-1.409.995 1.691-.328-.315-.128z" fill="#000"/></g><g filter="url(#filter2_di)"><path d="M34.03 90.026a4.535 4.535 0 004.531-4.54 4.535 4.535 0 00-4.53-4.539 4.535 4.535 0 00-4.53 4.54 4.535 4.535 0 004.53 4.539z" fill="#71A0DD"/><path d="M34.03 90.026a4.535 4.535 0 004.531-4.54 4.535 4.535 0 00-4.53-4.539 4.535 4.535 0 00-4.53 4.54 4.535 4.535 0 004.53 4.539z" fill="url(#paint0_radial)" fill-opacity=".7"/></g><path d="M34.03 81.011c-4.465 4.475.001 8.95.001 8.95s4.53-4.475 0-8.95zm-4.53 4.476h9.061" stroke="#B4D1FA" stroke-miterlimit="10"/><path d="M37.461 82.503c-1.01.472-2.276.779-3.43.779-1.155 0-2.42-.307-3.43-.779m6.86 5.967c-1.01-.472-2.276-.779-3.43-.779-1.155 0-2.42.307-3.43.778m8.349-5.449l1.553-.388m-4.53-2.463l.517-1.427m-6.083 2.594l-1.942-1.426m.647 5.317h-1.553m3.365 4.021l-1.941 2.204m9.514-3.242l2.136 1.556" stroke="#B4D1FA" stroke-miterlimit="10"/><g filter="url(#filter3_di)"><path d="M36.943 78.871a1.101 1.101 0 10-.002-2.202 1.101 1.101 0 00.002 2.202z" fill="#F985A0"/><path d="M36.943 78.871a1.101 1.101 0 10-.002-2.202 1.101 1.101 0 00.002 2.202z" fill="url(#paint1_radial)" fill-opacity=".7"/></g><g filter="url(#filter4_di)"><path d="M41.603 83.41a1.101 1.101 0 10-.002-2.202 1.101 1.101 0 00.002 2.203z" fill="#D6516B"/><path d="M41.603 83.41a1.101 1.101 0 10-.002-2.202 1.101 1.101 0 00.002 2.203z" fill="url(#paint2_radial)" fill-opacity=".7"/></g><g filter="url(#filter5_di)"><path d="M41.668 91.84c.715 0 1.295-.61 1.295-1.361 0-.752-.58-1.362-1.295-1.362s-1.294.61-1.294 1.362c0 .752.58 1.362 1.294 1.362z" fill="#F985A0"/><path d="M41.668 91.84c.715 0 1.295-.61 1.295-1.361 0-.752-.58-1.362-1.295-1.362s-1.294.61-1.294 1.362c0 .752.58 1.362 1.294 1.362z" fill="url(#paint3_radial)" fill-opacity=".7"/></g><g filter="url(#filter6_di)"><path d="M28.206 93.916c.715 0 1.294-.61 1.294-1.362 0-.752-.58-1.362-1.294-1.362-.715 0-1.295.61-1.295 1.362 0 .752.58 1.362 1.295 1.362z" fill="#A62E41"/><path d="M28.206 93.916c.715 0 1.294-.61 1.294-1.362 0-.752-.58-1.362-1.294-1.362-.715 0-1.295.61-1.295 1.362 0 .752.58 1.362 1.295 1.362z" fill="url(#paint4_radial)" fill-opacity=".7"/></g><g filter="url(#filter7_di)"><path d="M26.264 86.524c.715 0 1.295-.58 1.295-1.297a1.296 1.296 0 10-2.589 0c0 .716.58 1.297 1.294 1.297z" fill="#D6516B"/><path d="M26.264 86.524c.715 0 1.295-.58 1.295-1.297a1.296 1.296 0 10-2.589 0c0 .716.58 1.297 1.294 1.297z" fill="url(#paint5_radial)" fill-opacity=".7"/></g><g filter="url(#filter8_di)"><path d="M27.364 80.428c.751 0 1.36-.58 1.36-1.297 0-.716-.609-1.297-1.36-1.297-.75 0-1.359.58-1.359 1.297 0 .716.609 1.297 1.36 1.297z" fill="#F985A0"/><path d="M27.364 80.428c.751 0 1.36-.58 1.36-1.297 0-.716-.609-1.297-1.36-1.297-.75 0-1.359.58-1.359 1.297 0 .716.609 1.297 1.36 1.297z" fill="url(#paint6_radial)" fill-opacity=".7"/></g><g filter="url(#filter9_di)"><path d="M95.91 56.442c-.888 1.818-2.47 3-4.227 4.031-1.027.593-1.015 2.732-1.015 2.732l-.112 4.218c0 2.195-.938 1.082-2.816 2.566l-1.69-.186c-1.879 0-3.006 0-3.006-2.38 0-1.462-.12-3.118-.12-4.133 0-1.847-.668-2.648-1.003-2.817A9.9 9.9 0 0178.413 57a9.743 9.743 0 01-.271-9.502 9.879 9.879 0 013.305-3.664 10.065 10.065 0 019.585-.821 9.94 9.94 0 013.894 3.047 9.777 9.777 0 011.92 4.527c.277 2-.049 4.037-.936 5.856z" fill="#B4D1FA"/><path d="M95.91 56.442c-.888 1.818-2.47 3-4.227 4.031-1.027.593-1.015 2.732-1.015 2.732l-.112 4.218c0 2.195-.938 1.082-2.816 2.566l-1.69-.186c-1.879 0-3.006 0-3.006-2.38 0-1.462-.12-3.118-.12-4.133 0-1.847-.668-2.648-1.003-2.817A9.9 9.9 0 0178.413 57a9.743 9.743 0 01-.271-9.502 9.879 9.879 0 013.305-3.664 10.065 10.065 0 019.585-.821 9.94 9.94 0 013.894 3.047 9.777 9.777 0 011.92 4.527c.277 2-.049 4.037-.936 5.856z" fill="url(#paint7_radial)" fill-opacity=".8"/></g><g filter="url(#filter10_di)"><path d="M90.255 62.199h-6.908c-.374 0-.678.25-.678.556 0 .308.304.557.678.557h6.908c.374 0 .678-.25.678-.557 0-.307-.304-.556-.678-.556z" fill="#F985A0"/></g><g filter="url(#filter11_di)"><path d="M90.255 64.054h-6.908c-.374 0-.678.25-.678.556 0 .308.304.557.678.557h6.908c.374 0 .678-.25.678-.557 0-.307-.304-.556-.678-.556z" fill="#F985A0"/></g><g filter="url(#filter12_di)"><path d="M90.255 65.909h-6.908c-.374 0-.678.25-.678.556 0 .308.304.557.678.557h6.908c.374 0 .678-.25.678-.557 0-.307-.304-.556-.678-.556z" fill="#F985A0"/></g><path d="M85.163 54.78c.528.269 1.12.413 1.722.421.988 0 1.57-.457 1.57-1.1 0-.645-.405-.96-1.405-1.289-1.266-.375-1.975-.925-1.975-1.838 0-.914.962-1.757 2.405-1.757.572-.02 1.141.09 1.659.316l-.266.68a3.515 3.515 0 00-1.418-.305c-1.026 0-1.406.527-1.406.972 0 .445.456.902 1.482 1.253 1.266.421 1.899.948 1.899 1.897 0 .949-.848 1.862-2.608 1.862a4.39 4.39 0 01-1.9-.41l.241-.702zm1.637-5.565v-1.113h.732l.02 1.072m0 6.719v1.112h-.732l-.02-1.087" fill="#C43B55"/><path d="M90.556 67.764h-7.512c0 .804.563 3.153 3.756 3.153 2.87 0 3.756-2.102 3.756-3.153z" fill="#71A0DD"/><g filter="url(#filter13_d)"><path d="M43.37 22.433h-.92a.612.612 0 00-.612.612v4.337c0 .338.274.612.613.612h.918a.612.612 0 00.612-.612v-4.337a.612.612 0 00-.612-.612z" fill="#D6516B"/><path d="M46.316 19.992h-.919a.615.615 0 00-.612.616v6.77c0 .34.274.616.613.616h.918a.615.615 0 00.612-.616v-6.77a.615.615 0 00-.612-.616z" fill="#C43B55"/><path d="M49.263 18.77h-.919a.615.615 0 00-.612.619v7.988c0 .34.274.617.612.617h.919a.615.615 0 00.612-.617v-7.988a.615.615 0 00-.612-.618z" fill="#A62E41"/><path d="M37.418 23.383a8.82 8.82 0 011.954-5.58 8.695 8.695 0 015.025-3.062 8.645 8.645 0 015.81.85 8.75 8.75 0 013.954 4.376m0 0l.67-2.165m-.67 2.165l-2.087-.845" stroke="#F985A0" stroke-width="4" stroke-miterlimit="10" stroke-linecap="round" stroke-linejoin="round"/><path d="M37.418 26.669l.87-1.8a2 2 0 00-2.822 1.363l1.952.437zm-2.532 2.154a2 2 0 003.903.875l-3.903-.875zm3.983.769a2 2 0 001.741-3.601l-1.74 3.6zM35.557 27.4a10.742 10.742 0 004.795 5.474l1.935-3.501a6.742 6.742 0 01-3.008-3.437L35.557 27.4zm4.795 5.474A10.599 10.599 0 0047.522 34l-.77-3.925a6.598 6.598 0 01-4.465-.702l-1.935 3.501zM47.522 34a10.662 10.662 0 006.224-3.75l-3.106-2.52a6.662 6.662 0 01-3.888 2.345l.77 3.925zm6.224-3.75a10.83 10.83 0 002.415-6.878l-4 .02a6.83 6.83 0 01-1.521 4.337l3.106 2.52zm-18.28-4.02l-.58 2.592 3.903.875.58-2.592-3.903-.874zm1.082 2.238l2.321 1.123 1.741-3.601-2.321-1.123-1.741 3.601z" fill="#F985A0"/></g><g filter="url(#filter14_di)"><path d="M275.722 115.002l15.139-2.317a15.35 15.35 0 01-2.798 11.397 15.322 15.322 0 01-10.027 6.076 15.298 15.298 0 01-11.381-2.802 15.336 15.336 0 01-5.53-16.982 15.33 15.33 0 019.374-9.787 15.298 15.298 0 016.903-.828l-1.68 15.243z" fill="#C43B55"/><path d="M280.635 99.81l-1.831 11.75 11.519-2.167s-1.703-6.584-9.688-9.583z" fill="#71A0DD"/></g><g filter="url(#filter15_di)"><path d="M76.121 113.533h6.76a6.89 6.89 0 01-1.126 3.779 6.768 6.768 0 01-3.003 2.519 6.68 6.68 0 01-3.879.417 6.732 6.732 0 01-3.459-1.824 6.855 6.855 0 01-1.885-3.456 6.91 6.91 0 01.317-3.934 6.822 6.822 0 012.414-3.101 6.696 6.696 0 013.706-1.231l.155 6.831z" fill="#B4D1FA"/><path d="M77.942 111.867l-.155-6.834a7.067 7.067 0 014.873 1.937 7.067 7.067 0 012.031 4.789l-6.75.108z" fill="#0A3D76"/></g><g filter="url(#filter16_di)"><path d="M211.16 40.983l5.131-7.463a3.283 3.283 0 013.433-1.34c.425.098.826.28 1.18.535l.722.516a3.272 3.272 0 004.211-.33c.366-.36.643-.801.808-1.288l2.491-7.323a3.302 3.302 0 011.199-1.617 3.28 3.28 0 015.02 1.617l1.204 3.546a3.304 3.304 0 001.142 1.575 3.277 3.277 0 004.974-1.306l1.04-2.372a3.282 3.282 0 014.403-1.649c.53.25.983.638 1.314 1.123a3.29 3.29 0 001.379 1.157 3.269 3.269 0 003.424-.468c.471-.39.825-.904 1.021-1.485l1.166-3.428c1.072-3.138 5.578-2.908 6.313.35l4.461 19.65s-55.88-.157-56.036 0z" fill="#F985A0"/><path opacity=".3" d="M211.16 40.983l5.131-7.463a3.283 3.283 0 013.433-1.34c.425.098.826.28 1.18.535l.722.516a3.272 3.272 0 004.211-.33c.366-.36.643-.801.808-1.288l2.491-7.323a3.302 3.302 0 011.199-1.617 3.28 3.28 0 015.02 1.617l1.204 3.546a3.304 3.304 0 001.142 1.575 3.277 3.277 0 004.974-1.306l1.04-2.372a3.282 3.282 0 014.403-1.649c.53.25.983.638 1.314 1.123a3.29 3.29 0 001.379 1.157 3.269 3.269 0 003.424-.468c.471-.39.825-.904 1.021-1.485l1.166-3.428c1.072-3.138 5.578-2.908 6.313.35l4.461 19.65s-55.88-.157-56.036 0z" fill="#B6B6B6"/><path d="M211.018 41.174l4.162-12.258a3.228 3.228 0 011.155-1.572 3.2 3.2 0 013.705-.047 3.23 3.23 0 011.193 1.542l1.995 5.434a3.23 3.23 0 00.969 1.372 3.203 3.203 0 003.19.522 3.208 3.208 0 001.353-.991l1.616-2.023a3.199 3.199 0 014.396-.582l3.767 2.769c.55.405 1.215.623 1.897.624h4.794a3.2 3.2 0 011.894.62l3.566 2.623a3.206 3.206 0 002.437.577 3.196 3.196 0 002.107-1.358l3.348-4.924c.041-.063.087-.122.132-.181 1.346-1.713 4.037-1.35 5.012.596l3.583 7.142s-56.271-.115-56.271.115z" fill="#B4D1FA"/><path d="M267.269 41.06l-4.354-3.565c-5.973-4.418-8.807 3.99-13.504-2.319l-1.616-2.022a3.194 3.194 0 00-4.395-.582l-1.874 1.377a10.369 10.369 0 01-6.136 2.016h-2.428a3.202 3.202 0 00-1.898.62l-3.566 2.623c-1.464 1.077-2.483 1.22-4.825-.754 0 0-2.539-2.092-2.602-2.151-1.245-1.524-3.85-1.524-4.97 0-.271.366-.552.697-.857 1.046l-3.365 3.728s56.39-.251 56.39-.018z" fill="#0A3D76"/><path d="M226.489 12.75c0 .049-1.995.09-4.451.09-2.456 0-4.447-.041-4.447-.09 0-.049 1.995-.09 4.454-.09 2.46 0 4.444.041 4.444.09zm-9.876-.765h-1.523v1.531h1.523v-1.53zm26.672.765c0 .049-1.995.09-4.454.09-2.46 0-4.451-.041-4.451-.09 0-.049 1.991-.09 4.451-.09 2.459 0 4.454.041 4.454.09z" fill="#F985A0"/><path d="M233.406 11.985h-1.523v1.531h1.523v-1.53z" fill="#B4D1FA"/><path d="M260.078 12.75c0 .049-1.991.09-4.451.09-2.459 0-4.45-.041-4.45-.09 0-.049 1.991-.09 4.45-.09 2.46 0 4.451.041 4.451.09z" fill="#F985A0"/><path d="M250.202 11.985h-1.523v1.531h1.523v-1.53z" fill="#0A3D76"/></g><g filter="url(#filter17_d)"><path d="M170.875 230L2 177.09l158.553-49.823L332 177.09 170.875 230z" fill="#F5F9FF"/></g><path d="M308.328 69.047L306.102 68a.55.55 0 01-.31-.48 9.717 9.717 0 00-.318-2.234.55.55 0 01.195-.578l2.04-1.57a.534.534 0 00.126-.714l-1.255-2.004a.518.518 0 00-.666-.19l-2.122 1.05a.515.515 0 01-.619-.114 9.506 9.506 0 00-2.388-1.819.544.544 0 01-.267-.607l.345-1.41a.562.562 0 00-.049-.387.546.546 0 00-.289-.257l-2.19-.798a.522.522 0 00-.663.277l-.773 1.68-.187.41a9.418 9.418 0 00-3.059.405.518.518 0 01-.571-.184l-1.251-1.663a.54.54 0 00-.722-.13l-1.515.967-.434.28a.556.556 0 00-.2.713l.868 1.792c.051.1.069.214.051.325a.533.533 0 01-.149.292 9.55 9.55 0 00-1.252 1.595 1.604 1.604 0 00-.092.144.533.533 0 01-.596.245l-2.267-.561a.54.54 0 00-.633.342l-.793 2.205a.55.55 0 00.282.684l2.323 1.088a.531.531 0 01.305.513 9.898 9.898 0 00.163 2.25.562.562 0 01-.207.549l-1.961 1.51a.53.53 0 00-.199.33.53.53 0 00.073.379l1.244 1.98a.553.553 0 00.709.203l1.677-.832a.534.534 0 01.655.133 9.484 9.484 0 002.184 1.953.546.546 0 01.235.592l-.499 2.068a.568.568 0 00.05.396.557.557 0 00.299.263l2.172.797a.527.527 0 00.666-.28l.045-.098.898-1.953a.547.547 0 01.535-.317 9.29 9.29 0 002.553-.173.529.529 0 01.536.2l1.269 1.688a.552.552 0 00.733.134l1.951-1.252a.554.554 0 00.196-.703l-.694-1.427a.56.56 0 01.036-.543.547.547 0 01.101-.114 9.525 9.525 0 002.329-2.94.531.531 0 01.597-.275l1.835.455a.533.533 0 00.381-.048.545.545 0 00.253-.293l.018-.051.775-2.15a.552.552 0 00-.287-.692zM291.4 66.83c.065-.391.166-.775.302-1.147.271-.74 1.032-1.703 1.69-2.127.07-.046.141-.09.212-.132 4.34-2.573 9.226 1.475 7.509 6.333-.225.635-.788 1.414-1.37 1.92-.125.11-.258.21-.398.3a5.803 5.803 0 01-1.827.773c-3.474.781-6.718-2.172-6.118-5.92zM172.409 20.121l-1.242-.573a.296.296 0 01-.173-.263 5.344 5.344 0 00-.178-1.223.295.295 0 01.109-.316l1.139-.86a.292.292 0 00.07-.392l-.7-1.097a.294.294 0 00-.372-.104l-1.184.575a.296.296 0 01-.346-.062 5.299 5.299 0 00-1.333-.996.301.301 0 01-.149-.333l.192-.773a.294.294 0 00-.027-.211.305.305 0 00-.161-.14l-1.222-.438a.291.291 0 00-.37.152l-.432.92-.104.225a5.32 5.32 0 00-1.707.222.294.294 0 01-.32-.102l-.697-.91a.303.303 0 00-.404-.072l-.845.53-.242.153a.307.307 0 00-.132.174.307.307 0 00.02.217l.484.981c.029.055.039.118.029.178a.29.29 0 01-.083.16 5.22 5.22 0 00-.75.952.294.294 0 01-.159.128.303.303 0 01-.174.006l-1.265-.306a.305.305 0 00-.354.187l-.442 1.207a.297.297 0 00.157.375l1.297.596a.287.287 0 01.17.28 5.287 5.287 0 00.091 1.233.296.296 0 01-.015.166.299.299 0 01-.101.134l-1.094.828a.289.289 0 00-.07.387l.694 1.085a.305.305 0 00.395.11l.937-.455a.301.301 0 01.365.073c.348.417.759.778 1.219 1.07a.299.299 0 01.132.324l-.279 1.132a.31.31 0 00.194.36l1.213.438a.3.3 0 00.371-.154l.026-.053.501-1.07a.303.303 0 01.298-.174 5.293 5.293 0 001.426-.094.298.298 0 01.299.11l.708.924a.308.308 0 00.409.073l1.089-.686a.344.344 0 00.078-.07.313.313 0 00.06-.153.309.309 0 00-.029-.162l-.387-.78a.294.294 0 01-.029-.152.295.295 0 01.105-.209 5.226 5.226 0 001.3-1.61.295.295 0 01.334-.15l1.024.25a.304.304 0 00.354-.188l.01-.028.432-1.177a.3.3 0 00-.006-.22.3.3 0 00-.154-.159zm-9.448-1.213a3.42 3.42 0 01.169-.628c.151-.406.575-.933.943-1.165a3.73 3.73 0 01.118-.072c2.423-1.41 5.15.807 4.191 3.468-.125.348-.44.774-.764 1.052a1.88 1.88 0 01-.223.164c-.313.197-.658.34-1.019.423a2.827 2.827 0 01-3.415-3.242zM85.258 8.425l-1.036-.486a.253.253 0 01-.144-.223 4.517 4.517 0 00-.148-1.037.254.254 0 01.09-.268l.95-.73a.248.248 0 00.058-.331l-.583-.93a.243.243 0 00-.31-.089l-.987.488a.241.241 0 01-.288-.053 4.418 4.418 0 00-1.11-.844.253.253 0 01-.125-.282l.16-.655a.258.258 0 00-.157-.3l-1.019-.37a.242.242 0 00-.308.129l-.36.78-.087.19a4.383 4.383 0 00-1.422.188.24.24 0 01-.266-.085l-.581-.772a.252.252 0 00-.336-.06l-.705.449-.202.13a.257.257 0 00-.093.33l.404.833a.247.247 0 01-.046.286 4.424 4.424 0 00-.625.807.248.248 0 01-.277.114l-1.054-.26a.251.251 0 00-.295.159l-.368 1.023a.256.256 0 00.13.318l1.08.505a.244.244 0 01.143.238 4.555 4.555 0 00.076 1.045.261.261 0 01-.097.255l-.912.701a.248.248 0 00-.058.329l.578.92a.257.257 0 00.33.093l.78-.386a.249.249 0 01.305.062c.29.353.632.66 1.015.907a.252.252 0 01.11.275l-.232.96a.263.263 0 00.162.306l1.01.37a.245.245 0 00.31-.13l.021-.046.418-.906a.253.253 0 01.248-.147 4.335 4.335 0 001.188-.081.246.246 0 01.25.093l.59.784a.256.256 0 00.34.062l.908-.582a.26.26 0 00.091-.326l-.323-.662a.259.259 0 01.064-.305 4.417 4.417 0 001.083-1.365.248.248 0 01.278-.128l.853.211a.249.249 0 00.295-.158l.009-.024.36-.998a.26.26 0 00-.133-.321zm-7.874-1.029c.03-.181.077-.36.14-.532.127-.344.48-.791.787-.988l.098-.061c2.019-1.195 4.292.685 3.493 2.94-.105.295-.367.657-.637.892-.059.05-.12.097-.186.14a2.7 2.7 0 01-.85.358c-1.615.363-3.124-1.008-2.845-2.749z" fill="#EBF2F9"/><g filter="url(#filter18_f)"><path d="M122.209 141.45l-15.122 4.6 40.489 51.136 30.156-.429-55.523-55.307z" fill="url(#paint8_linear)"/></g><path d="M118.995 75.378l.325-.622 5.096 1.202.041 1.81L118.849 76l.146-.622z" fill="#6F3725"/><path d="M123.079 77.886l-5.194-3.813.823-.947 5.581 4.065" fill="#000"/><path d="M119.409 73.764a.577.577 0 01.408-.64.575.575 0 01.268 0c.34.089.662.233.955.428.973.5 2.068.71 3.156.606.47-.028.939.077 1.353.303 1.069.606 2.996 1.819 3.322 3 .268 1.043 2.458 3.516 3.24 4.298a.58.58 0 01.154.557.582.582 0 01-.392.418c-.801.228-1.785.664-2.232 1.461-.224.403-1.848-.776-2.084-1.173a.57.57 0 00-.329-.257c-.831-.249-3.824-1.13-4.663-1.121a.602.602 0 01-.248-.055.598.598 0 01-.202-.158c-.103-.127-.196-.266-.166-.351.057-.173-.861.076-1.1-.476-.238-.552-.323-1.449-.881-2.142a.58.58 0 00-.197-.155c-.371-.185-1.552-.803-1.492-1.397a8.396 8.396 0 01.764-1.997l.157.136a.657.657 0 00.399.743l.054.039c.122.082.259.14.402.17l.634.303c.062.035.13.059.2.07l.534.081c.052.01.105.01.157 0l1.918-.221s-3.778-.185-4.089-2.47z" fill="#F9C8A3"/><path d="M116.543 75.335a5.187 5.187 0 003.3-2.05 5.2 5.2 0 00-.969-7.148 5.18 5.18 0 00-3.726-1.093 5.187 5.187 0 00-3.3 2.05 5.201 5.201 0 00.969 7.148 5.18 5.18 0 003.726 1.093z" fill="#A6CCF4" stroke="#000" stroke-width="2" stroke-miterlimit="10"/><path d="M118.121 62.154c-1.113.296.277 1.478 1.064 1.652.995.242 1.962.587 2.882 1.028h.061c.099.051.187.12.259.204l.027.024.471.363a.549.549 0 01.126.121l.247.343c.039.052.07.11.091.171l.528 1.478s-1.053-1.817-2.503-2.136c-.823-.184-1.324.886-.624 1.323l.048.027a4.594 4.594 0 011.667 2.068c.183.408.485.754.869.993.904.59 2.511 1.477 3.534 1.267.937-.189 3.732.508 4.652.783a.516.516 0 00.494-.086.503.503 0 00.157-.206.503.503 0 00.039-.251c-.108-.66-.135-1.57.335-2.202.235-.313-1.317-1.084-1.715-1.108a.49.49 0 01-.329-.147c-.513-.526-2.316-2.438-2.644-3.029a.47.47 0 00-.139-.165.449.449 0 00-.199-.089c-.139-.032-.302-.047-.344 0-.12.11-.259-.665-.796-.638-.537.027-1.245.295-1.993.163a.714.714 0 01-.301-.13c-.332-.23-4.261-1.87-5.979-1.812l.015-.008zM166.87 63.3l-.509 5.38s-3.241 1.473-4.857.683-1.654-.596-1.654-.596l-.057-3.973 3.432-.654 3.645-.84z" fill="#F9C8A3"/><path d="M165.155 64.965c-1.001 1.772-2.716 3.061-5.358 2.632v-2.899c.822-.327 4.095.722 4.858.267h.5z" fill="#EAAB85"/><path d="M167.667 61.835l5.07-16.69-16.352 2.805s-2.32 17.457.857 17.69c3.177.232 6.119-.885 6.119-.885 1.926-.759 2.977-1.228 4.306-2.92z" fill="#F9C8A3"/><path d="M154.261 58.362l2.28.315-.718-.845-1.562.53z" fill="#C69B7D"/><path d="M155.836 53.552c-.718 1.493-.96 2.366-2.074 3.807a.548.548 0 00-.142.592.643.643 0 00.186.264.612.612 0 00.304.124c1.021.081 1.339-.154 2.031.207.89.456.912-.342.85-.84l-1.155-4.154z" fill="#F9C8A3"/><path d="M158.252 52.018a.48.48 0 11.142-.947l1.831.314c.294.05.566.176.768.358.299.26.037.745-.345.637l-.317-.09a.427.427 0 00-.064-.012l-2.015-.26z" fill="#202020"/><path d="M155.668 61.059s1.41.42 1.77-.052" stroke="#B96665" stroke-width=".64" stroke-linecap="round" stroke-linejoin="round"/><path d="M164.857 57.166c.607-.918 1.473-.756 1.702-.202.229.554-1.174 1.946-1.776 1.69-.483-.2-.291-.936.074-1.488z" fill="#EAAB85"/><path d="M164.615 57.83c.347-.794.906-.762 1.083-.337.177.424-.658 1.68-1.066 1.535-.331-.116-.214-.715-.017-1.197z" fill="#F9C8A3"/><path d="M169.197 65.572c1.72.402.978-1.499.978-1.499s3.909-3.289 5.095-5.188c1.187-1.9 2.828-7.84 2.15-8.973-.419-.733 2.496-7.431-9.78-11.018 0 0-4.055 1.476-6.366 1.112-2.31-.364-7.044-.92-7.044-.92s-4.61 3.032 2.099 9.192c0 0 8.566-1.844 7.543 5.245-.09.574-.634 2.582-.212 2.824.206.117.564-.616 1.466-1.32 2.081-1.578 4.565.72 1.044 4.45-.631.677-1.223.545-1.643.877 0 0-1.304 3.823 4.67 5.218z" fill="#202020"/><path d="M159.939 53.56c-.321-.211-.444-.198-.963-.323a2.863 2.863 0 00-.73.002s-.633.382-.711.433c-.136.094-.126.239.033.3.16.062.352.057.485.117 1.028.427 1.242.546 1.903.46a3.38 3.38 0 00.769-.171 2.717 2.717 0 00-.786-.818z" fill="#fff"/><path d="M158.872 53.426c-.339-.085-.672.11-.742.437a.586.586 0 00.008.282c.37.18.578.27.978.379a.57.57 0 00.242-.355c.071-.326-.147-.659-.486-.743z" fill="#28160D" stroke="#1C1105" stroke-width=".2" stroke-miterlimit="10"/><path d="M158.668 54.357a.341.341 0 00.425-.25.368.368 0 00-.278-.426.342.342 0 00-.426.25.37.37 0 00.279.426z" fill="#000"/><path opacity=".77" d="M159.027 54.038c.098.024.193-.032.213-.125a.184.184 0 00-.139-.214.171.171 0 00-.213.126.185.185 0 00.139.213z" fill="#fff"/><path d="M157.458 53.813l.765-.51a.45.45 0 01.235-.072l.269-.003c.137-.001.274.02.405.062l.641.207c.13.043.25.114.35.208l.584.558.215.065-.504-.703a1.094 1.094 0 00-.421-.251l-.639-.208a1.42 1.42 0 00-.465-.07l-.267.004a1.318 1.318 0 00-.503.057l-.908.626.243.03z" fill="#D3A688"/><path opacity=".5" d="M157.388 53.827l.764-.509a.529.529 0 01.281-.087l.266-.004c.152-.001.303.022.448.07l.64.207a.994.994 0 01.386.23l.573.553" stroke="#0A0001" stroke-width=".3" stroke-miterlimit="10"/><path d="M157.45 53.952l.271.065c.142.033.28.081.413.143.307.145.957.479 1.625.436.04-.003.342-.075.382-.085l.383-.085" stroke="#472A22" stroke-width=".2" stroke-miterlimit="10"/><path d="M131.206 69.374c.151-1.319.849-1.336.849-1.336s9.046 2.623 15.011 3.232c5.371.548 13.825.033 13.825.033s4.63-2.493 7.408-.7c2.414 1.556 2.773 3.325 2.756 5.363-.016 1.187-.376 2.306-1.034 3.212a4.982 4.982 0 01-2.657 1.866c-4.92 1.436-18.709-3.74-18.709-3.74l-17.086-4.983c-.214-.631-.432-2.31-.363-2.947z" fill="#3F76BC"/><path d="M177.643 196.923c1.039-1.009.416-6.671.416-6.671s-5.348-4.863-6.083-1.141c-.736 3.723-5.08 5.398-7.554 5.854-1.65.304-2.199 1.317-2.382 1.958h15.603z" fill="#1E3055"/><path d="M178.244 190.839c-4.012.693-7.007 0-7.007 0 .053-4.405-.734-6.483-2.399-17.881-2.196-15.028-5.189-32.615-7.076-43.457-1.085-6.235-.922-10.608-.922-10.608l3.279-.072 12.386-1.218s-2.352 20.602-2.018 30.561c.08 2.377 0 2.633.546 4.976 2.335 8.188 3.211 37.699 3.211 37.699z" fill="#2B478B"/><path d="M174.522 150.139c-2.221 4.631-3.548 15.389-5.624 22.833-2.197-15.028-5.189-32.614-7.077-43.456.094-4.096 1.354-8.062 2.286-10.695h12.167s-2.086 21.359-1.752 31.318zM163.613 197.8c1.066-1.009.427-6.671.427-6.671s-5.494-4.863-6.249-1.14c-.755 3.722-5.214 5.407-7.758 5.853-1.695.304-2.257 1.317-2.445 1.958h16.025z" fill="#233862"/><path d="M153.731 118.454s4.983 58.752 3.711 72.106c0 0 2.814.827 6.865.552 0 0 4.726-29.732 3.171-35.907-1.081-4.292 6.825-36 6.825-36l-20.572-.751z" fill="#2B478B"/><path d="M177.587 119.12c-1.145 2.655-23.078 1.872-24.33 0-.509-.762 1.972-8.382 1.638-17.244-.184-4.907-.293-10.198-.272-14.91.038-7.69-1.731-9.736-.759-10.206 2.43-2.577 4.633-7.017 10.433-7.16 1.074.034 3.242-.218 4.145.43.903.648 1.642 1.832 2.114 2.907 1.704 3.93 4.123 10.895 4.306 19.118.278 12.674 4.161 23.717 2.725 27.065z" fill="#71A0DD"/><path d="M162.816 81.746s-.824 13.254-7.925 20.13c-.185-4.907-.293-10.198-.273-14.91 2.122-3.16 4.921-5.436 8.198-5.22z" fill="#3F76BC"/><path d="M163.628 71.966c-.065-1.236-1.261-2.005-2.372-1.46-2.039 1-5.12 2.93-7.533 6.258-1.483 2.044-8.015 14.998-8.74 15.056-.726.058-12.842-10.477-12.842-10.477s-3.364 1.256-3.494 3.073c0 0 5.565 5.521 11.025 10.544 3.46 3.183 8.684 3.253 12.121.04 4.012-3.752 8.871-8.875 10.792-13.224 1.191-2.694 1.186-7.103 1.043-9.81z" fill="#71A0DD"/><path d="M159.757 68.226c1.56.031 5.022-.05 6.317-1.283a.725.725 0 01.462-.206c.174-.01.334.206.508.502.717 1.22.717 1.777 1.255 2.648-2.715-.716-6.431.143-6.431.143-1.674.62-2.318.919-3.43 1.719.359-1.348.68-1.438.674-2.83a.684.684 0 01.036-.261.687.687 0 01.139-.227.67.67 0 01.47-.206z" fill="#D2DFF9"/><path d="M110.494 135.091v-15.187a.991.991 0 00-1.982 0v15.187a.99.99 0 101.982 0zm9.016.003v-16.582a.99.99 0 10-1.982 0v16.582a.991.991 0 001.982 0zm9.337 0v-18.939a.991.991 0 00-1.982 0v18.939a.991.991 0 001.982 0z" fill="#C9E0FF"/><path d="M124.461 135.091v-6.378a.991.991 0 00-1.982 0v6.378a.99.99 0 101.982 0z" fill="#EBF2F9"/><path d="M112.806 135.094v-17.029a.991.991 0 00-1.982 0v17.029a.991.991 0 001.982 0zm9.176 0v-21.011a.99.99 0 10-1.982 0v21.011a.991.991 0 001.982 0z" fill="#E0E0E0"/><path d="M133.962 135.094v-21.011a.991.991 0 00-1.982 0v21.011a.99.99 0 101.982 0z" fill="#EBF2F9"/><path d="M131.496 135.091v-25.55a.991.991 0 00-1.983 0v25.55a.992.992 0 001.983 0z" fill="#E0E0E0"/><path d="M115.233 135.091v-10.082a.99.99 0 10-1.982 0v10.082a.991.991 0 001.982 0zm21.567 2.033c0 .045-7.076.078-15.804.078-8.728 0-15.807-.033-15.807-.078s7.076-.078 15.807-.078c8.731 0 15.804.036 15.804.078zm-31.319-4.093h-1.21v.457h1.21v-.457zm0-6.111h-1.21v.458h1.21v-.458zm0-11.502h-1.21v.458h1.21v-.458zm0-5.778h-1.21v.457h1.21v-.457zm.059 11.531h-1.21v.457h1.21v-.457zm93.719-14.422a.798.798 0 01-.795-.796V91.018a.797.797 0 011.099-.737.796.796 0 01.49.736v14.936a.792.792 0 01-.794.796z" fill="#EBF2F9"/><path d="M199.259 106.818a.795.795 0 01-.795-.796v-9.637a.8.8 0 01.795-.796.797.797 0 01.794.796v9.628a.794.794 0 01-.794.805zm-.5.623v1.327h-.134v-1.215h-.312v-.12l.446.008zm.317.665c0-.424.22-.676.529-.676.308 0 .528.252.528.676 0 .424-.223.673-.528.673-.306 0-.529-.252-.529-.673zm.917 0c0-.355-.16-.55-.388-.55-.229 0-.392.195-.392.55 0 .355.16.55.392.55.231 0 .388-.198.388-.55z" fill="#E0E0E0"/><path d="M202.438 106.75a.79.79 0 01-.562-.233.793.793 0 01-.233-.563V91.019a.798.798 0 01.49-.737.792.792 0 011.037.432c.04.097.06.2.059.305v14.935a.797.797 0 01-.791.796z" fill="#EBF2F9"/><path d="M202.438 106.819a.779.779 0 01-.563-.232.793.793 0 01-.232-.564V93.365a.799.799 0 01.49-.737.793.793 0 011.096.737v12.658a.781.781 0 01-.23.563.787.787 0 01-.561.233zm-.201 1.829v.121h-.92v-.095l.552-.547c.148-.149.177-.238.177-.329 0-.152-.109-.247-.312-.247a.442.442 0 00-.36.146l-.097-.083a.618.618 0 01.469-.189c.268 0 .44.138.44.358a.55.55 0 01-.217.416l-.452.444.72.005zm.172-.541c0-.424.22-.676.529-.676.309 0 .529.252.529.676 0 .424-.223.673-.529.673-.306 0-.529-.252-.529-.673zm.918 0c0-.355-.16-.55-.389-.55s-.392.195-.392.55c0 .355.16.55.392.55s.389-.198.389-.55z" fill="#E0E0E0"/><path d="M205.613 106.75a.8.8 0 01-.742-.49.803.803 0 01-.061-.306V91.019a.798.798 0 01.49-.737.795.795 0 011.099.736v14.936a.797.797 0 01-.786.796z" fill="#EBF2F9"/><path d="M205.613 106.819a.79.79 0 01-.742-.489.793.793 0 01-.061-.307v-7.346a.798.798 0 01.49-.737c.097-.04.2-.06.305-.06a.787.787 0 01.567.23.801.801 0 01.236.567v7.351a.799.799 0 01-.795.791zm-.209 1.568c0 .224-.16.393-.48.393a.7.7 0 01-.477-.169l.068-.109a.574.574 0 00.409.154c.22 0 .34-.103.34-.269 0-.166-.111-.263-.357-.263h-.097v-.101l.371-.469h-.677v-.121h.858v.121l-.378.469c.28.003.42.152.42.364zm.192-.281c0-.424.223-.676.529-.676.306 0 .529.252.529.676 0 .424-.223.673-.529.673-.306 0-.529-.252-.529-.673zm.918 0c0-.355-.157-.55-.389-.55-.231 0-.392.195-.392.55 0 .356.161.55.392.55.232 0 .4-.197.4-.55h-.011z" fill="#E0E0E0"/><path d="M208.789 106.75a.797.797 0 01-.794-.796V91.019a.797.797 0 01.232-.564.776.776 0 01.562-.233.794.794 0 01.795.797v14.935a.8.8 0 01-.795.796z" fill="#EBF2F9"/><path d="M208.789 106.819a.778.778 0 01-.735-.491.796.796 0 01-.059-.305V93.365a.798.798 0 01.232-.564.777.777 0 01.562-.232.794.794 0 01.795.796v12.658a.798.798 0 01-.795.796zm.006 1.594h-.269v.347h-.134v-.347h-.746v-.1l.703-.88h.151l-.677.86h.572v-.307h.131v.307h.266l.003.12zm.123-.307c0-.424.223-.676.529-.676.306 0 .532.252.532.676 0 .424-.226.673-.532.673-.306 0-.529-.252-.529-.673zm.921 0c0-.355-.161-.55-.392-.55-.232 0-.389.195-.389.55 0 .356.157.55.389.55.231 0 .392-.197.392-.55z" fill="#E0E0E0"/><path d="M211.956 106.75a.795.795 0 01-.795-.796V91.019a.798.798 0 01.49-.737.795.795 0 011.1.737v14.935a.8.8 0 01-.795.796z" fill="#EBF2F9"/><path d="M211.956 106.819a.797.797 0 01-.735-.491.797.797 0 01-.06-.305V95.79a.798.798 0 01.49-.736.793.793 0 01.867.173c.149.15.232.352.232.563v10.233a.8.8 0 01-.232.563.8.8 0 01-.562.233zm-.063 1.56c0 .226-.157.401-.48.401a.693.693 0 01-.475-.169l.066-.109c.11.103.256.158.406.154.226 0 .346-.111.346-.272 0-.16-.106-.286-.443-.286h-.286l.068-.665h.727v.121h-.604l-.045.424h.171c.398.008.549.166.549.401zm.172-.273c0-.424.223-.676.529-.676.305 0 .528.252.528.676 0 .424-.223.673-.528.673-.306 0-.529-.252-.529-.673zm.917 0c0-.355-.157-.55-.388-.55-.232 0-.389.195-.389.55 0 .356.157.55.389.55.231 0 .388-.197.388-.55z" fill="#E0E0E0"/><path d="M215.141 106.75a.798.798 0 01-.795-.796V91.019a.797.797 0 011.358-.564.778.778 0 01.231.564v14.935a.798.798 0 01-.794.796z" fill="#EBF2F9"/><path d="M215.14 106.749a.785.785 0 01-.794-.727v-7.346a.815.815 0 01.794-.86.791.791 0 01.795.797v7.354a.796.796 0 01-.795.782zm-.103 1.624a.432.432 0 01-.037.166.42.42 0 01-.418.241c-.351 0-.543-.244-.543-.662 0-.418.246-.687.606-.687a.596.596 0 01.315.071l-.054.109a.494.494 0 00-.258-.06c-.286 0-.469.183-.469.544a.937.937 0 000 .106.42.42 0 01.403-.226.401.401 0 01.455.398zm-.134 0c0-.175-.129-.286-.335-.286a.302.302 0 00-.231.069.298.298 0 00-.109.217c0 .146.12.286.349.286.04.006.082.003.121-.009a.289.289 0 00.205-.274v-.003zm.288-.266c0-.424.223-.676.529-.676.306 0 .529.252.529.676 0 .424-.223.673-.529.673-.306 0-.529-.252-.529-.673zm.918 0c0-.356-.158-.55-.389-.55-.232 0-.389.194-.389.55 0 .355.157.55.389.55.231 0 .389-.198.389-.55z" fill="#E0E0E0"/><path d="M218.316 106.75a.798.798 0 01-.795-.796V91.019a.797.797 0 01.795-.797.791.791 0 01.786.797v14.935a.8.8 0 01-.786.796z" fill="#EBF2F9"/><path d="M218.316 106.819a.795.795 0 01-.795-.796V92.605a.8.8 0 01.795-.802.79.79 0 01.786.802v13.418a.794.794 0 01-.786.796zm-.169.623v.112l-.554 1.228h-.149l.546-1.228h-.68v.249h-.135v-.37l.972.009zm.14.664c0-.424.223-.676.529-.676.306 0 .532.252.532.676 0 .424-.226.673-.532.673-.306 0-.529-.252-.529-.673zm.921 0c0-.355-.16-.55-.392-.55-.231 0-.389.195-.389.55 0 .356.158.55.389.55.232 0 .392-.197.392-.55z" fill="#E0E0E0"/><path d="M221.492 106.75a.798.798 0 01-.795-.796V91.019a.797.797 0 011.358-.564.794.794 0 01.232.564v14.935a.799.799 0 01-.795.796z" fill="#EBF2F9"/><path d="M221.492 106.819a.795.795 0 01-.795-.796v-5.837a.797.797 0 011.357-.564.797.797 0 01.232.564v5.837a.8.8 0 01-.059.305.802.802 0 01-.735.491zm-.158 1.594c0 .235-.197.381-.514.381s-.512-.146-.512-.381a.335.335 0 01.257-.326.293.293 0 01-.154-.107.29.29 0 01-.054-.18c0-.215.183-.349.463-.349s.466.134.466.349a.29.29 0 01-.212.287.332.332 0 01.26.326zm-.14 0c0-.163-.14-.266-.374-.266-.235 0-.375.103-.375.266 0 .163.14.266.375.266.234 0 .374-.117.374-.266zm-.377-.389c.206 0 .329-.092.329-.238s-.129-.232-.329-.232-.329.091-.329.24.126.23.329.23zm.706.082c0-.424.22-.676.529-.676.309 0 .529.252.529.676 0 .424-.223.673-.529.673-.306 0-.529-.252-.529-.673zm.918 0c0-.355-.16-.55-.389-.55s-.392.195-.392.55c0 .356.16.55.392.55.231 0 .389-.197.389-.55z" fill="#E0E0E0"/><path d="M224.668 106.75a.798.798 0 01-.792-.796V91.019a.794.794 0 01.792-.797.79.79 0 01.794.797v14.935a.799.799 0 01-.794.796z" fill="#EBF2F9"/><path d="M224.667 106.75a.78.78 0 01-.792-.728v-2.044a.816.816 0 01.792-.86.797.797 0 01.735.491c.04.097.06.201.06.306v2.047a.797.797 0 01-.795.788zm-.237 1.345c0 .45-.246.685-.606.685a.606.606 0 01-.315-.072l.055-.108a.472.472 0 00.257.063c.286 0 .469-.187.469-.545v-.109a.425.425 0 01-.406.227.41.41 0 01-.313-.099.407.407 0 01-.136-.299.411.411 0 01.138-.303.392.392 0 01.148-.085.403.403 0 01.169-.019c.357 0 .54.243.54.664zm-.183-.255c0-.146-.12-.286-.349-.286a.28.28 0 00-.228.068.286.286 0 00-.098.218c0 .175.132.287.335.287a.302.302 0 00.231-.07.315.315 0 00.077-.097.294.294 0 00.032-.12zm.377.266c0-.424.223-.676.529-.676.306 0 .532.252.532.676 0 .424-.226.673-.532.673-.306 0-.529-.252-.529-.673zm.921 0c0-.356-.161-.55-.392-.55-.232 0-.389.194-.389.55 0 .355.157.55.389.55.231 0 .392-.198.392-.55z" fill="#E0E0E0"/><path d="M227.846 106.75a.795.795 0 01-.794-.796V91.019a.778.778 0 01.231-.564.79.79 0 01.563-.233.794.794 0 01.795.797v14.935a.8.8 0 01-.795.796z" fill="#EBF2F9"/><path d="M227.845 106.749a.783.783 0 01-.794-.727v-7.346a.817.817 0 01.794-.86.794.794 0 01.795.797v7.354a.798.798 0 01-.795.782zm-1.14.693v1.326h-.134v-1.214h-.323v-.121l.457.009zm.317.664c0-.424.221-.676.529-.676.309 0 .529.252.529.676 0 .424-.223.673-.529.673-.306 0-.529-.252-.529-.673zm.918 0c0-.355-.16-.55-.389-.55-.228 0-.391.195-.391.55 0 .356.16.55.391.55.232 0 .389-.197.389-.55zm.335 0c0-.424.22-.676.529-.676.309 0 .529.252.529.676 0 .424-.223.673-.529.673-.306 0-.529-.252-.529-.673zm.918 0c0-.355-.161-.55-.389-.55-.229 0-.392.195-.392.55 0 .356.16.55.392.55.231 0 .389-.197.389-.55z" fill="#E0E0E0"/><defs><filter id="filter0_di" x="106.341" y="-.55" width="34.062" height="34.15" filterUnits="userSpaceOnUse" color-interpolation-filters="sRGB"><feFlood flood-opacity="0" result="BackgroundImageFix"/><feColorMatrix in="SourceAlpha" values="0 0 0 0 0 0 0 0 0 0 0 0 0 0 0 0 0 0 127 0"/><feOffset dx="2" dy="2"/><feGaussianBlur stdDeviation="2"/><feColorMatrix values="0 0 0 0 0 0 0 0 0 0 0 0 0 0 0 0 0 0 0.2 0"/><feBlend in2="BackgroundImageFix" result="effect1_dropShadow"/><feBlend in="SourceGraphic" in2="effect1_dropShadow" result="shape"/><feColorMatrix in="SourceAlpha" values="0 0 0 0 0 0 0 0 0 0 0 0 0 0 0 0 0 0 127 0" result="hardAlpha"/><feOffset dx="-4" dy="-4"/><feGaussianBlur stdDeviation="4"/><feComposite in2="hardAlpha" operator="arithmetic" k2="-1" k3="1"/><feColorMatrix values="0 0 0 0 0 0 0 0 0 0 0 0 0 0 0 0 0 0 0.2 0"/><feBlend in2="shape" result="effect2_innerShadow"/></filter><filter id="filter1_d" x="118.372" y="3.797" width="33.064" height="23.738" filterUnits="userSpaceOnUse" color-interpolation-filters="sRGB"><feFlood flood-opacity="0" result="BackgroundImageFix"/><feColorMatrix in="SourceAlpha" values="0 0 0 0 0 0 0 0 0 0 0 0 0 0 0 0 0 0 127 0"/><feOffset dx="4" dy="4"/><feGaussianBlur stdDeviation="4"/><feColorMatrix values="0 0 0 0 0 0 0 0 0 0 0 0 0 0 0 0 0 0 0.2 0"/><feBlend in2="BackgroundImageFix" result="effect1_dropShadow"/><feBlend in="SourceGraphic" in2="effect1_dropShadow" result="shape"/></filter><filter id="filter2_di" x="21.5" y="72.947" width="23.061" height="23.079" filterUnits="userSpaceOnUse" color-interpolation-filters="sRGB"><feFlood flood-opacity="0" result="BackgroundImageFix"/><feColorMatrix in="SourceAlpha" values="0 0 0 0 0 0 0 0 0 0 0 0 0 0 0 0 0 0 127 0"/><feOffset dx="2" dy="2"/><feGaussianBlur stdDeviation="2"/><feColorMatrix values="0 0 0 0 0 0 0 0 0 0 0 0 0 0 0 0 0 0 0.2 0"/><feBlend in2="BackgroundImageFix" result="effect1_dropShadow"/><feBlend in="SourceGraphic" in2="effect1_dropShadow" result="shape"/><feColorMatrix in="SourceAlpha" values="0 0 0 0 0 0 0 0 0 0 0 0 0 0 0 0 0 0 127 0" result="hardAlpha"/><feOffset dx="-8" dy="-8"/><feGaussianBlur stdDeviation="7"/><feComposite in2="hardAlpha" operator="arithmetic" k2="-1" k3="1"/><feColorMatrix values="0 0 0 0 0 0 0 0 0 0 0 0 0 0 0 0 0 0 0.4 0"/><feBlend in2="shape" result="effect2_innerShadow"/></filter><filter id="filter3_di" x="31.843" y="72.666" width="18.201" height="18.205" filterUnits="userSpaceOnUse" color-interpolation-filters="sRGB"><feFlood flood-opacity="0" result="BackgroundImageFix"/><feColorMatrix in="SourceAlpha" values="0 0 0 0 0 0 0 0 0 0 0 0 0 0 0 0 0 0 127 0"/><feOffset dx="4" dy="4"/><feGaussianBlur stdDeviation="4"/><feColorMatrix values="0 0 0 0 0 0 0 0 0 0 0 0 0 0 0 0 0 0 0.2 0"/><feBlend in2="BackgroundImageFix" result="effect1_dropShadow"/><feBlend in="SourceGraphic" in2="effect1_dropShadow" result="shape"/><feColorMatrix in="SourceAlpha" values="0 0 0 0 0 0 0 0 0 0 0 0 0 0 0 0 0 0 127 0" result="hardAlpha"/><feOffset dx="-4" dy="-4"/><feGaussianBlur stdDeviation="4"/><feComposite in2="hardAlpha" operator="arithmetic" k2="-1" k3="1"/><feColorMatrix values="0 0 0 0 0 0 0 0 0 0 0 0 0 0 0 0 0 0 0.15 0"/><feBlend in2="shape" result="effect2_innerShadow"/></filter><filter id="filter4_di" x="36.503" y="77.206" width="18.201" height="18.205" filterUnits="userSpaceOnUse" color-interpolation-filters="sRGB"><feFlood flood-opacity="0" result="BackgroundImageFix"/><feColorMatrix in="SourceAlpha" values="0 0 0 0 0 0 0 0 0 0 0 0 0 0 0 0 0 0 127 0"/><feOffset dx="4" dy="4"/><feGaussianBlur stdDeviation="4"/><feColorMatrix values="0 0 0 0 0 0 0 0 0 0 0 0 0 0 0 0 0 0 0.2 0"/><feBlend in2="BackgroundImageFix" result="effect1_dropShadow"/><feBlend in="SourceGraphic" in2="effect1_dropShadow" result="shape"/><feColorMatrix in="SourceAlpha" values="0 0 0 0 0 0 0 0 0 0 0 0 0 0 0 0 0 0 127 0" result="hardAlpha"/><feOffset dx="-4" dy="-4"/><feGaussianBlur stdDeviation="4"/><feComposite in2="hardAlpha" operator="arithmetic" k2="-1" k3="1"/><feColorMatrix values="0 0 0 0 0 0 0 0 0 0 0 0 0 0 0 0 0 0 0.15 0"/><feBlend in2="shape" result="effect2_innerShadow"/></filter><filter id="filter5_di" x="36.374" y="85.117" width="18.589" height="18.724" filterUnits="userSpaceOnUse" color-interpolation-filters="sRGB"><feFlood flood-opacity="0" result="BackgroundImageFix"/><feColorMatrix in="SourceAlpha" values="0 0 0 0 0 0 0 0 0 0 0 0 0 0 0 0 0 0 127 0"/><feOffset dx="4" dy="4"/><feGaussianBlur stdDeviation="4"/><feColorMatrix values="0 0 0 0 0 0 0 0 0 0 0 0 0 0 0 0 0 0 0.2 0"/><feBlend in2="BackgroundImageFix" result="effect1_dropShadow"/><feBlend in="SourceGraphic" in2="effect1_dropShadow" result="shape"/><feColorMatrix in="SourceAlpha" values="0 0 0 0 0 0 0 0 0 0 0 0 0 0 0 0 0 0 127 0" result="hardAlpha"/><feOffset dx="-4" dy="-4"/><feGaussianBlur stdDeviation="4"/><feComposite in2="hardAlpha" operator="arithmetic" k2="-1" k3="1"/><feColorMatrix values="0 0 0 0 0 0 0 0 0 0 0 0 0 0 0 0 0 0 0.15 0"/><feBlend in2="shape" result="effect2_innerShadow"/></filter><filter id="filter6_di" x="22.911" y="87.192" width="18.589" height="18.724" filterUnits="userSpaceOnUse" color-interpolation-filters="sRGB"><feFlood flood-opacity="0" result="BackgroundImageFix"/><feColorMatrix in="SourceAlpha" values="0 0 0 0 0 0 0 0 0 0 0 0 0 0 0 0 0 0 127 0"/><feOffset dx="4" dy="4"/><feGaussianBlur stdDeviation="4"/><feColorMatrix values="0 0 0 0 0 0 0 0 0 0 0 0 0 0 0 0 0 0 0.2 0"/><feBlend in2="BackgroundImageFix" result="effect1_dropShadow"/><feBlend in="SourceGraphic" in2="effect1_dropShadow" result="shape"/><feColorMatrix in="SourceAlpha" values="0 0 0 0 0 0 0 0 0 0 0 0 0 0 0 0 0 0 127 0" result="hardAlpha"/><feOffset dx="-4" dy="-4"/><feGaussianBlur stdDeviation="4"/><feComposite in2="hardAlpha" operator="arithmetic" k2="-1" k3="1"/><feColorMatrix values="0 0 0 0 0 0 0 0 0 0 0 0 0 0 0 0 0 0 0.15 0"/><feBlend in2="shape" result="effect2_innerShadow"/></filter><filter id="filter7_di" x="20.97" y="79.93" width="18.589" height="18.594" filterUnits="userSpaceOnUse" color-interpolation-filters="sRGB"><feFlood flood-opacity="0" result="BackgroundImageFix"/><feColorMatrix in="SourceAlpha" values="0 0 0 0 0 0 0 0 0 0 0 0 0 0 0 0 0 0 127 0"/><feOffset dx="4" dy="4"/><feGaussianBlur stdDeviation="4"/><feColorMatrix values="0 0 0 0 0 0 0 0 0 0 0 0 0 0 0 0 0 0 0.2 0"/><feBlend in2="BackgroundImageFix" result="effect1_dropShadow"/><feBlend in="SourceGraphic" in2="effect1_dropShadow" result="shape"/><feColorMatrix in="SourceAlpha" values="0 0 0 0 0 0 0 0 0 0 0 0 0 0 0 0 0 0 127 0" result="hardAlpha"/><feOffset dx="-4" dy="-4"/><feGaussianBlur stdDeviation="4"/><feComposite in2="hardAlpha" operator="arithmetic" k2="-1" k3="1"/><feColorMatrix values="0 0 0 0 0 0 0 0 0 0 0 0 0 0 0 0 0 0 0.15 0"/><feBlend in2="shape" result="effect2_innerShadow"/></filter><filter id="filter8_di" x="22.005" y="73.834" width="18.718" height="18.594" filterUnits="userSpaceOnUse" color-interpolation-filters="sRGB"><feFlood flood-opacity="0" result="BackgroundImageFix"/><feColorMatrix in="SourceAlpha" values="0 0 0 0 0 0 0 0 0 0 0 0 0 0 0 0 0 0 127 0"/><feOffset dx="4" dy="4"/><feGaussianBlur stdDeviation="4"/><feColorMatrix values="0 0 0 0 0 0 0 0 0 0 0 0 0 0 0 0 0 0 0.2 0"/><feBlend in2="BackgroundImageFix" result="effect1_dropShadow"/><feBlend in="SourceGraphic" in2="effect1_dropShadow" result="shape"/><feColorMatrix in="SourceAlpha" values="0 0 0 0 0 0 0 0 0 0 0 0 0 0 0 0 0 0 127 0" result="hardAlpha"/><feOffset dx="-4" dy="-4"/><feGaussianBlur stdDeviation="4"/><feComposite in2="hardAlpha" operator="arithmetic" k2="-1" k3="1"/><feColorMatrix values="0 0 0 0 0 0 0 0 0 0 0 0 0 0 0 0 0 0 0.15 0"/><feBlend in2="shape" result="effect2_innerShadow"/></filter><filter id="filter9_di" x="73.035" y="38.166" width="35.907" height="43.823" filterUnits="userSpaceOnUse" color-interpolation-filters="sRGB"><feFlood flood-opacity="0" result="BackgroundImageFix"/><feColorMatrix in="SourceAlpha" values="0 0 0 0 0 0 0 0 0 0 0 0 0 0 0 0 0 0 127 0"/><feOffset dx="4" dy="4"/><feGaussianBlur stdDeviation="4"/><feColorMatrix values="0 0 0 0 0 0 0 0 0 0 0 0 0 0 0 0 0 0 0.2 0"/><feBlend in2="BackgroundImageFix" result="effect1_dropShadow"/><feBlend in="SourceGraphic" in2="effect1_dropShadow" result="shape"/><feColorMatrix in="SourceAlpha" values="0 0 0 0 0 0 0 0 0 0 0 0 0 0 0 0 0 0 127 0" result="hardAlpha"/><feOffset dx="-4" dy="-4"/><feGaussianBlur stdDeviation="4"/><feComposite in2="hardAlpha" operator="arithmetic" k2="-1" k3="1"/><feColorMatrix values="0 0 0 0 0 0 0 0 0 0 0 0 0 0 0 0 0 0 0.2 0"/><feBlend in2="shape" result="effect2_innerShadow"/></filter><filter id="filter10_di" x="78.669" y="58.199" width="24.263" height="17.113" filterUnits="userSpaceOnUse" color-interpolation-filters="sRGB"><feFlood flood-opacity="0" result="BackgroundImageFix"/><feColorMatrix in="SourceAlpha" values="0 0 0 0 0 0 0 0 0 0 0 0 0 0 0 0 0 0 127 0"/><feOffset dx="4" dy="4"/><feGaussianBlur stdDeviation="4"/><feColorMatrix values="0 0 0 0 0 0 0 0 0 0 0 0 0 0 0 0 0 0 0.2 0"/><feBlend in2="BackgroundImageFix" result="effect1_dropShadow"/><feBlend in="SourceGraphic" in2="effect1_dropShadow" result="shape"/><feColorMatrix in="SourceAlpha" values="0 0 0 0 0 0 0 0 0 0 0 0 0 0 0 0 0 0 127 0" result="hardAlpha"/><feOffset dx="-4" dy="-4"/><feGaussianBlur stdDeviation="4"/><feComposite in2="hardAlpha" operator="arithmetic" k2="-1" k3="1"/><feColorMatrix values="0 0 0 0 0 0 0 0 0 0 0 0 0 0 0 0 0 0 0.15 0"/><feBlend in2="shape" result="effect2_innerShadow"/></filter><filter id="filter11_di" x="78.669" y="60.054" width="24.263" height="17.113" filterUnits="userSpaceOnUse" color-interpolation-filters="sRGB"><feFlood flood-opacity="0" result="BackgroundImageFix"/><feColorMatrix in="SourceAlpha" values="0 0 0 0 0 0 0 0 0 0 0 0 0 0 0 0 0 0 127 0"/><feOffset dx="4" dy="4"/><feGaussianBlur stdDeviation="4"/><feColorMatrix values="0 0 0 0 0 0 0 0 0 0 0 0 0 0 0 0 0 0 0.2 0"/><feBlend in2="BackgroundImageFix" result="effect1_dropShadow"/><feBlend in="SourceGraphic" in2="effect1_dropShadow" result="shape"/><feColorMatrix in="SourceAlpha" values="0 0 0 0 0 0 0 0 0 0 0 0 0 0 0 0 0 0 127 0" result="hardAlpha"/><feOffset dx="-4" dy="-4"/><feGaussianBlur stdDeviation="4"/><feComposite in2="hardAlpha" operator="arithmetic" k2="-1" k3="1"/><feColorMatrix values="0 0 0 0 0 0 0 0 0 0 0 0 0 0 0 0 0 0 0.15 0"/><feBlend in2="shape" result="effect2_innerShadow"/></filter><filter id="filter12_di" x="78.669" y="61.909" width="24.263" height="17.113" filterUnits="userSpaceOnUse" color-interpolation-filters="sRGB"><feFlood flood-opacity="0" result="BackgroundImageFix"/><feColorMatrix in="SourceAlpha" values="0 0 0 0 0 0 0 0 0 0 0 0 0 0 0 0 0 0 127 0"/><feOffset dx="4" dy="4"/><feGaussianBlur stdDeviation="4"/><feColorMatrix values="0 0 0 0 0 0 0 0 0 0 0 0 0 0 0 0 0 0 0.2 0"/><feBlend in2="BackgroundImageFix" result="effect1_dropShadow"/><feBlend in="SourceGraphic" in2="effect1_dropShadow" result="shape"/><feColorMatrix in="SourceAlpha" values="0 0 0 0 0 0 0 0 0 0 0 0 0 0 0 0 0 0 127 0" result="hardAlpha"/><feOffset dx="-4" dy="-4"/><feGaussianBlur stdDeviation="4"/><feComposite in2="hardAlpha" operator="arithmetic" k2="-1" k3="1"/><feColorMatrix values="0 0 0 0 0 0 0 0 0 0 0 0 0 0 0 0 0 0 0.15 0"/><feBlend in2="shape" result="effect2_innerShadow"/></filter><filter id="filter13_d" x="32.837" y="10.566" width="29.994" height="29.633" filterUnits="userSpaceOnUse" color-interpolation-filters="sRGB"><feFlood flood-opacity="0" result="BackgroundImageFix"/><feColorMatrix in="SourceAlpha" values="0 0 0 0 0 0 0 0 0 0 0 0 0 0 0 0 0 0 127 0"/><feOffset dx="2" dy="2"/><feGaussianBlur stdDeviation="2"/><feColorMatrix values="0 0 0 0 0 0 0 0 0 0 0 0 0 0 0 0 0 0 0.15 0"/><feBlend in2="BackgroundImageFix" result="effect1_dropShadow"/><feBlend in="SourceGraphic" in2="effect1_dropShadow" result="shape"/></filter><filter id="filter14_di" x="256.411" y="95.666" width="40.626" height="40.667" filterUnits="userSpaceOnUse" color-interpolation-filters="sRGB"><feFlood flood-opacity="0" result="BackgroundImageFix"/><feColorMatrix in="SourceAlpha" values="0 0 0 0 0 0 0 0 0 0 0 0 0 0 0 0 0 0 127 0"/><feOffset dx="2" dy="2"/><feGaussianBlur stdDeviation="2"/><feColorMatrix values="0 0 0 0 0 0 0 0 0 0 0 0 0 0 0 0 0 0 0.15 0"/><feBlend in2="BackgroundImageFix" result="effect1_dropShadow"/><feBlend in="SourceGraphic" in2="effect1_dropShadow" result="shape"/><feColorMatrix in="SourceAlpha" values="0 0 0 0 0 0 0 0 0 0 0 0 0 0 0 0 0 0 127 0" result="hardAlpha"/><feOffset dx="-4" dy="-4"/><feGaussianBlur stdDeviation="4"/><feComposite in2="hardAlpha" operator="arithmetic" k2="-1" k3="1"/><feColorMatrix values="0 0 0 0 0 0 0 0 0 0 0 0 0 0 0 0 0 0 0.2 0"/><feBlend in2="shape" result="effect2_innerShadow"/></filter><filter id="filter15_di" x="67.378" y="103.033" width="23.313" height="23.334" filterUnits="userSpaceOnUse" color-interpolation-filters="sRGB"><feFlood flood-opacity="0" result="BackgroundImageFix"/><feColorMatrix in="SourceAlpha" values="0 0 0 0 0 0 0 0 0 0 0 0 0 0 0 0 0 0 127 0"/><feOffset dx="2" dy="2"/><feGaussianBlur stdDeviation="2"/><feColorMatrix values="0 0 0 0 0 0 0 0 0 0 0 0 0 0 0 0 0 0 0.15 0"/><feBlend in2="BackgroundImageFix" result="effect1_dropShadow"/><feBlend in="SourceGraphic" in2="effect1_dropShadow" result="shape"/><feColorMatrix in="SourceAlpha" values="0 0 0 0 0 0 0 0 0 0 0 0 0 0 0 0 0 0 127 0" result="hardAlpha"/><feOffset dx="-2" dy="-2"/><feGaussianBlur stdDeviation="2"/><feComposite in2="hardAlpha" operator="arithmetic" k2="-1" k3="1"/><feColorMatrix values="0 0 0 0 0 0 0 0 0 0 0 0 0 0 0 0 0 0 0.2 0"/><feBlend in2="shape" result="effect2_innerShadow"/></filter><filter id="filter16_di" x="208.879" y="9.985" width="64.411" height="37.188" filterUnits="userSpaceOnUse" color-interpolation-filters="sRGB"><feFlood flood-opacity="0" result="BackgroundImageFix"/><feColorMatrix in="SourceAlpha" values="0 0 0 0 0 0 0 0 0 0 0 0 0 0 0 0 0 0 127 0"/><feOffset dx="2" dy="2"/><feGaussianBlur stdDeviation="2"/><feColorMatrix values="0 0 0 0 0 0 0 0 0 0 0 0 0 0 0 0 0 0 0.15 0"/><feBlend in2="BackgroundImageFix" result="effect1_dropShadow"/><feBlend in="SourceGraphic" in2="effect1_dropShadow" result="shape"/><feColorMatrix in="SourceAlpha" values="0 0 0 0 0 0 0 0 0 0 0 0 0 0 0 0 0 0 127 0" result="hardAlpha"/><feOffset dx="-2" dy="-2"/><feGaussianBlur stdDeviation="2"/><feComposite in2="hardAlpha" operator="arithmetic" k2="-1" k3="1"/><feColorMatrix values="0 0 0 0 0 0 0 0 0 0 0 0 0 0 0 0 0 0 0.2 0"/><feBlend in2="shape" result="effect2_innerShadow"/></filter><filter id="filter17_d" x="0" y="125.267" width="338" height="110.733" filterUnits="userSpaceOnUse" color-interpolation-filters="sRGB"><feFlood flood-opacity="0" result="BackgroundImageFix"/><feColorMatrix in="SourceAlpha" values="0 0 0 0 0 0 0 0 0 0 0 0 0 0 0 0 0 0 127 0"/><feOffset dx="2" dy="2"/><feGaussianBlur stdDeviation="2"/><feColorMatrix values="0 0 0 0 0 0 0 0 0 0 0 0 0 0 0 0 0 0 0.2 0"/><feBlend in2="BackgroundImageFix" result="effect1_dropShadow"/><feBlend in="SourceGraphic" in2="effect1_dropShadow" result="shape"/></filter><filter id="filter18_f" x="105.087" y="139.45" width="74.645" height="59.736" filterUnits="userSpaceOnUse" color-interpolation-filters="sRGB"><feFlood flood-opacity="0" result="BackgroundImageFix"/><feBlend in="SourceGraphic" in2="BackgroundImageFix" result="shape"/><feGaussianBlur stdDeviation="1" result="effect1_foregroundBlur"/></filter><radialGradient id="paint0_radial" cx="0" cy="0" r="1" gradientUnits="userSpaceOnUse" gradientTransform="matrix(4.46583 5.18798 -9.2871 7.99438 31.765 82.373)"><stop stop-color="#fff"/><stop offset=".395" stop-color="#fff" stop-opacity="0"/></radialGradient><radialGradient id="paint1_radial" cx="0" cy="0" r="1" gradientUnits="userSpaceOnUse" gradientTransform="matrix(.32361 .6485 -.64773 .32323 36.685 77.055)"><stop stop-color="#fff"/><stop offset="1" stop-color="#fff" stop-opacity="0"/></radialGradient><radialGradient id="paint2_radial" cx="0" cy="0" r="1" gradientUnits="userSpaceOnUse" gradientTransform="matrix(.25889 .71335 -.71227 .2585 41.409 81.66)"><stop stop-color="#fff"/><stop offset="1" stop-color="#fff" stop-opacity="0"/></radialGradient><radialGradient id="paint3_radial" cx="0" cy="0" r="1" gradientUnits="userSpaceOnUse" gradientTransform="matrix(.19417 .58365 -.55498 .18463 41.215 89.96)"><stop stop-color="#fff"/><stop offset="1" stop-color="#fff" stop-opacity="0"/></radialGradient><radialGradient id="paint4_radial" cx="0" cy="0" r="1" gradientUnits="userSpaceOnUse" gradientTransform="rotate(74.773 -46.224 64.153) scale(.7393 .7029)"><stop stop-color="#fff"/><stop offset="1" stop-color="#fff" stop-opacity="0"/></radialGradient><radialGradient id="paint5_radial" cx="0" cy="0" r="1" gradientUnits="userSpaceOnUse" gradientTransform="matrix(.19417 .84305 -.84156 .19382 25.682 84.513)"><stop stop-color="#fff"/><stop offset="1" stop-color="#fff" stop-opacity="0"/></radialGradient><radialGradient id="paint6_radial" cx="0" cy="0" r="1" gradientUnits="userSpaceOnUse" gradientTransform="matrix(.25889 .7782 -.81582 .2714 26.782 78.353)"><stop stop-color="#fff"/><stop offset="1" stop-color="#fff" stop-opacity="0"/></radialGradient><radialGradient id="paint7_radial" cx="0" cy="0" r="1" gradientUnits="userSpaceOnUse" gradientTransform="matrix(5.82192 6.67741 -10.58198 9.22624 83.044 45.69)"><stop stop-color="#fff"/><stop offset=".724" stop-color="#fff" stop-opacity="0"/></radialGradient><linearGradient id="paint8_linear" x1="115.892" y1="143.942" x2="178.865" y2="216.82" gradientUnits="userSpaceOnUse"><stop stop-color="#B4D1FA" stop-opacity="0"/><stop offset="1" stop-opacity=".2"/></linearGradient></defs></svg>