<svg width="63" height="61" viewBox="0 0 63 61" fill="none" xmlns="http://www.w3.org/2000/svg">
<g filter="url(#filter0_di)">
<path d="M27.6686 38.8497C34.2045 38.8497 39.5029 33.5478 39.5029 27.0076C39.5029 20.4674 34.2045 15.1654 27.6686 15.1654C21.1326 15.1654 15.8342 20.4674 15.8342 27.0076C15.8342 33.5478 21.1326 38.8497 27.6686 38.8497Z" fill="#71A0DD"/>
<path d="M27.6686 38.8497C34.2045 38.8497 39.5029 33.5478 39.5029 27.0076C39.5029 20.4674 34.2045 15.1654 27.6686 15.1654C21.1326 15.1654 15.8342 20.4674 15.8342 27.0076C15.8342 33.5478 21.1326 38.8497 27.6686 38.8497Z" fill="url(#paint0_radial)" fill-opacity="0.7"/>
</g>
<path d="M27.6688 15.3346C16.0036 27.0076 27.6692 38.6806 27.6692 38.6806C27.6692 38.6806 39.5031 27.0076 27.6688 15.3346Z" stroke="#B4D1FA" stroke-miterlimit="10"/>
<path d="M15.8342 27.0076H39.5029" stroke="#B4D1FA" stroke-miterlimit="10"/>
<path d="M36.6281 19.2255C33.9878 20.4547 30.6833 21.2555 27.6678 21.2555C24.6523 21.2555 21.3478 20.4547 18.7075 19.2255" stroke="#B4D1FA" stroke-miterlimit="10"/>
<path d="M36.6281 34.7898C33.9878 33.5606 30.6833 32.7598 27.6678 32.7598C24.6523 32.7598 21.3478 33.5606 18.7075 34.7898" stroke="#B4D1FA" stroke-miterlimit="10"/>
<path d="M40.5178 20.5794L44.5753 19.5644" stroke="#B4D1FA" stroke-miterlimit="10"/>
<path d="M32.7402 13.1354L34.0927 9.41354" stroke="#B4D1FA" stroke-miterlimit="10"/>
<path d="M18.2008 16.1808L13.1289 12.459" stroke="#B4D1FA" stroke-miterlimit="10"/>
<path d="M14.8195 26.3309H10.762" stroke="#B4D1FA" stroke-miterlimit="10"/>
<path d="M19.5535 36.8196L14.4817 42.5715" stroke="#B4D1FA" stroke-miterlimit="10"/>
<path d="M39.3342 34.1131L44.9133 38.1732" stroke="#B4D1FA" stroke-miterlimit="10"/>
<g filter="url(#filter1_di)">
<path d="M35.2759 9.75191C36.8632 9.75191 38.15 8.4643 38.15 6.87596C38.15 5.28761 36.8632 4.00001 35.2759 4.00001C33.6886 4.00001 32.4019 5.28761 32.4019 6.87596C32.4019 8.4643 33.6886 9.75191 35.2759 9.75191Z" fill="#F985A0"/>
<path d="M35.2759 9.75191C36.8632 9.75191 38.15 8.4643 38.15 6.87596C38.15 5.28761 36.8632 4.00001 35.2759 4.00001C33.6886 4.00001 32.4019 5.28761 32.4019 6.87596C32.4019 8.4643 33.6886 9.75191 35.2759 9.75191Z" fill="url(#paint1_radial)" fill-opacity="0.7"/>
</g>
<g filter="url(#filter2_di)">
<path d="M47.4485 21.5941C49.0358 21.5941 50.3226 20.3065 50.3226 18.7182C50.3226 17.1298 49.0358 15.8422 47.4485 15.8422C45.8612 15.8422 44.5745 17.1298 44.5745 18.7182C44.5745 20.3065 45.8612 21.5941 47.4485 21.5941Z" fill="#D6516B"/>
<path d="M47.4485 21.5941C49.0358 21.5941 50.3226 20.3065 50.3226 18.7182C50.3226 17.1298 49.0358 15.8422 47.4485 15.8422C45.8612 15.8422 44.5745 17.1298 44.5745 18.7182C44.5745 20.3065 45.8612 21.5941 47.4485 21.5941Z" fill="url(#paint2_radial)" fill-opacity="0.7"/>
</g>
<g filter="url(#filter3_di)">
<path d="M47.6188 43.5865C49.4862 43.5865 51 41.9959 51 40.0338C51 38.0718 49.4862 36.4812 47.6188 36.4812C45.7514 36.4812 44.2375 38.0718 44.2375 40.0338C44.2375 41.9959 45.7514 43.5865 47.6188 43.5865Z" fill="#F985A0"/>
<path d="M47.6188 43.5865C49.4862 43.5865 51 41.9959 51 40.0338C51 38.0718 49.4862 36.4812 47.6188 36.4812C45.7514 36.4812 44.2375 38.0718 44.2375 40.0338C44.2375 41.9959 45.7514 43.5865 47.6188 43.5865Z" fill="url(#paint3_radial)" fill-opacity="0.7"/>
</g>
<g filter="url(#filter4_di)">
<path d="M12.4523 49C14.3197 49 15.8335 47.4094 15.8335 45.4474C15.8335 43.4853 14.3197 41.8947 12.4523 41.8947C10.5849 41.8947 9.07104 43.4853 9.07104 45.4474C9.07104 47.4094 10.5849 49 12.4523 49Z" fill="#A62E41"/>
<path d="M12.4523 49C14.3197 49 15.8335 47.4094 15.8335 45.4474C15.8335 43.4853 14.3197 41.8947 12.4523 41.8947C10.5849 41.8947 9.07104 43.4853 9.07104 45.4474C9.07104 47.4094 10.5849 49 12.4523 49Z" fill="url(#paint4_radial)" fill-opacity="0.7"/>
</g>
<g filter="url(#filter5_di)">
<path d="M7.38124 29.7146C9.24865 29.7146 10.7625 28.1997 10.7625 26.3311C10.7625 24.4625 9.24865 22.9476 7.38124 22.9476C5.51384 22.9476 4 24.4625 4 26.3311C4 28.1997 5.51384 29.7146 7.38124 29.7146Z" fill="#D6516B"/>
<path d="M7.38124 29.7146C9.24865 29.7146 10.7625 28.1997 10.7625 26.3311C10.7625 24.4625 9.24865 22.9476 7.38124 22.9476C5.51384 22.9476 4 24.4625 4 26.3311C4 28.1997 5.51384 29.7146 7.38124 29.7146Z" fill="url(#paint5_radial)" fill-opacity="0.7"/>
</g>
<g filter="url(#filter6_di)">
<path d="M10.2556 13.8121C12.2164 13.8121 13.8059 12.2973 13.8059 10.4286C13.8059 8.55999 12.2164 7.04515 10.2556 7.04515C8.29485 7.04515 6.70532 8.55999 6.70532 10.4286C6.70532 12.2973 8.29485 13.8121 10.2556 13.8121Z" fill="#F985A0"/>
<path d="M10.2556 13.8121C12.2164 13.8121 13.8059 12.2973 13.8059 10.4286C13.8059 8.55999 12.2164 7.04515 10.2556 7.04515C8.29485 7.04515 6.70532 8.55999 6.70532 10.4286C6.70532 12.2973 8.29485 13.8121 10.2556 13.8121Z" fill="url(#paint6_radial)" fill-opacity="0.7"/>
</g>
<defs>
<filter id="filter0_di" x="7.83423" y="7.16544" width="37.6687" height="37.6843" filterUnits="userSpaceOnUse" color-interpolation-filters="sRGB">
<feFlood flood-opacity="0" result="BackgroundImageFix"/>
<feColorMatrix in="SourceAlpha" type="matrix" values="0 0 0 0 0 0 0 0 0 0 0 0 0 0 0 0 0 0 127 0"/>
<feOffset dx="2" dy="2"/>
<feGaussianBlur stdDeviation="2"/>
<feColorMatrix type="matrix" values="0 0 0 0 0 0 0 0 0 0 0 0 0 0 0 0 0 0 0.2 0"/>
<feBlend mode="normal" in2="BackgroundImageFix" result="effect1_dropShadow"/>
<feBlend mode="normal" in="SourceGraphic" in2="effect1_dropShadow" result="shape"/>
<feColorMatrix in="SourceAlpha" type="matrix" values="0 0 0 0 0 0 0 0 0 0 0 0 0 0 0 0 0 0 127 0" result="hardAlpha"/>
<feOffset dx="-8" dy="-8"/>
<feGaussianBlur stdDeviation="7"/>
<feComposite in2="hardAlpha" operator="arithmetic" k2="-1" k3="1"/>
<feColorMatrix type="matrix" values="0 0 0 0 0 0 0 0 0 0 0 0 0 0 0 0 0 0 0.4 0"/>
<feBlend mode="normal" in2="shape" result="effect2_innerShadow"/>
</filter>
<filter id="filter1_di" x="28.4019" y="7.62939e-06" width="21.7481" height="21.7519" filterUnits="userSpaceOnUse" color-interpolation-filters="sRGB">
<feFlood flood-opacity="0" result="BackgroundImageFix"/>
<feColorMatrix in="SourceAlpha" type="matrix" values="0 0 0 0 0 0 0 0 0 0 0 0 0 0 0 0 0 0 127 0"/>
<feOffset dx="4" dy="4"/>
<feGaussianBlur stdDeviation="4"/>
<feColorMatrix type="matrix" values="0 0 0 0 0 0 0 0 0 0 0 0 0 0 0 0 0 0 0.2 0"/>
<feBlend mode="normal" in2="BackgroundImageFix" result="effect1_dropShadow"/>
<feBlend mode="normal" in="SourceGraphic" in2="effect1_dropShadow" result="shape"/>
<feColorMatrix in="SourceAlpha" type="matrix" values="0 0 0 0 0 0 0 0 0 0 0 0 0 0 0 0 0 0 127 0" result="hardAlpha"/>
<feOffset dx="-4" dy="-4"/>
<feGaussianBlur stdDeviation="4"/>
<feComposite in2="hardAlpha" operator="arithmetic" k2="-1" k3="1"/>
<feColorMatrix type="matrix" values="0 0 0 0 0 0 0 0 0 0 0 0 0 0 0 0 0 0 0.15 0"/>
<feBlend mode="normal" in2="shape" result="effect2_innerShadow"/>
</filter>
<filter id="filter2_di" x="40.5745" y="11.8422" width="21.7481" height="21.7519" filterUnits="userSpaceOnUse" color-interpolation-filters="sRGB">
<feFlood flood-opacity="0" result="BackgroundImageFix"/>
<feColorMatrix in="SourceAlpha" type="matrix" values="0 0 0 0 0 0 0 0 0 0 0 0 0 0 0 0 0 0 127 0"/>
<feOffset dx="4" dy="4"/>
<feGaussianBlur stdDeviation="4"/>
<feColorMatrix type="matrix" values="0 0 0 0 0 0 0 0 0 0 0 0 0 0 0 0 0 0 0.2 0"/>
<feBlend mode="normal" in2="BackgroundImageFix" result="effect1_dropShadow"/>
<feBlend mode="normal" in="SourceGraphic" in2="effect1_dropShadow" result="shape"/>
<feColorMatrix in="SourceAlpha" type="matrix" values="0 0 0 0 0 0 0 0 0 0 0 0 0 0 0 0 0 0 127 0" result="hardAlpha"/>
<feOffset dx="-4" dy="-4"/>
<feGaussianBlur stdDeviation="4"/>
<feComposite in2="hardAlpha" operator="arithmetic" k2="-1" k3="1"/>
<feColorMatrix type="matrix" values="0 0 0 0 0 0 0 0 0 0 0 0 0 0 0 0 0 0 0.15 0"/>
<feBlend mode="normal" in2="shape" result="effect2_innerShadow"/>
</filter>
<filter id="filter3_di" x="40.2375" y="32.4812" width="22.7625" height="23.1053" filterUnits="userSpaceOnUse" color-interpolation-filters="sRGB">
<feFlood flood-opacity="0" result="BackgroundImageFix"/>
<feColorMatrix in="SourceAlpha" type="matrix" values="0 0 0 0 0 0 0 0 0 0 0 0 0 0 0 0 0 0 127 0"/>
<feOffset dx="4" dy="4"/>
<feGaussianBlur stdDeviation="4"/>
<feColorMatrix type="matrix" values="0 0 0 0 0 0 0 0 0 0 0 0 0 0 0 0 0 0 0.2 0"/>
<feBlend mode="normal" in2="BackgroundImageFix" result="effect1_dropShadow"/>
<feBlend mode="normal" in="SourceGraphic" in2="effect1_dropShadow" result="shape"/>
<feColorMatrix in="SourceAlpha" type="matrix" values="0 0 0 0 0 0 0 0 0 0 0 0 0 0 0 0 0 0 127 0" result="hardAlpha"/>
<feOffset dx="-4" dy="-4"/>
<feGaussianBlur stdDeviation="4"/>
<feComposite in2="hardAlpha" operator="arithmetic" k2="-1" k3="1"/>
<feColorMatrix type="matrix" values="0 0 0 0 0 0 0 0 0 0 0 0 0 0 0 0 0 0 0.15 0"/>
<feBlend mode="normal" in2="shape" result="effect2_innerShadow"/>
</filter>
<filter id="filter4_di" x="5.07104" y="37.8947" width="22.7625" height="23.1053" filterUnits="userSpaceOnUse" color-interpolation-filters="sRGB">
<feFlood flood-opacity="0" result="BackgroundImageFix"/>
<feColorMatrix in="SourceAlpha" type="matrix" values="0 0 0 0 0 0 0 0 0 0 0 0 0 0 0 0 0 0 127 0"/>
<feOffset dx="4" dy="4"/>
<feGaussianBlur stdDeviation="4"/>
<feColorMatrix type="matrix" values="0 0 0 0 0 0 0 0 0 0 0 0 0 0 0 0 0 0 0.2 0"/>
<feBlend mode="normal" in2="BackgroundImageFix" result="effect1_dropShadow"/>
<feBlend mode="normal" in="SourceGraphic" in2="effect1_dropShadow" result="shape"/>
<feColorMatrix in="SourceAlpha" type="matrix" values="0 0 0 0 0 0 0 0 0 0 0 0 0 0 0 0 0 0 127 0" result="hardAlpha"/>
<feOffset dx="-4" dy="-4"/>
<feGaussianBlur stdDeviation="4"/>
<feComposite in2="hardAlpha" operator="arithmetic" k2="-1" k3="1"/>
<feColorMatrix type="matrix" values="0 0 0 0 0 0 0 0 0 0 0 0 0 0 0 0 0 0 0.15 0"/>
<feBlend mode="normal" in2="shape" result="effect2_innerShadow"/>
</filter>
<filter id="filter5_di" x="0" y="18.9476" width="22.7625" height="22.7669" filterUnits="userSpaceOnUse" color-interpolation-filters="sRGB">
<feFlood flood-opacity="0" result="BackgroundImageFix"/>
<feColorMatrix in="SourceAlpha" type="matrix" values="0 0 0 0 0 0 0 0 0 0 0 0 0 0 0 0 0 0 127 0"/>
<feOffset dx="4" dy="4"/>
<feGaussianBlur stdDeviation="4"/>
<feColorMatrix type="matrix" values="0 0 0 0 0 0 0 0 0 0 0 0 0 0 0 0 0 0 0.2 0"/>
<feBlend mode="normal" in2="BackgroundImageFix" result="effect1_dropShadow"/>
<feBlend mode="normal" in="SourceGraphic" in2="effect1_dropShadow" result="shape"/>
<feColorMatrix in="SourceAlpha" type="matrix" values="0 0 0 0 0 0 0 0 0 0 0 0 0 0 0 0 0 0 127 0" result="hardAlpha"/>
<feOffset dx="-4" dy="-4"/>
<feGaussianBlur stdDeviation="4"/>
<feComposite in2="hardAlpha" operator="arithmetic" k2="-1" k3="1"/>
<feColorMatrix type="matrix" values="0 0 0 0 0 0 0 0 0 0 0 0 0 0 0 0 0 0 0.15 0"/>
<feBlend mode="normal" in2="shape" result="effect2_innerShadow"/>
</filter>
<filter id="filter6_di" x="2.70532" y="3.04515" width="23.1006" height="22.7669" filterUnits="userSpaceOnUse" color-interpolation-filters="sRGB">
<feFlood flood-opacity="0" result="BackgroundImageFix"/>
<feColorMatrix in="SourceAlpha" type="matrix" values="0 0 0 0 0 0 0 0 0 0 0 0 0 0 0 0 0 0 127 0"/>
<feOffset dx="4" dy="4"/>
<feGaussianBlur stdDeviation="4"/>
<feColorMatrix type="matrix" values="0 0 0 0 0 0 0 0 0 0 0 0 0 0 0 0 0 0 0.2 0"/>
<feBlend mode="normal" in2="BackgroundImageFix" result="effect1_dropShadow"/>
<feBlend mode="normal" in="SourceGraphic" in2="effect1_dropShadow" result="shape"/>
<feColorMatrix in="SourceAlpha" type="matrix" values="0 0 0 0 0 0 0 0 0 0 0 0 0 0 0 0 0 0 127 0" result="hardAlpha"/>
<feOffset dx="-4" dy="-4"/>
<feGaussianBlur stdDeviation="4"/>
<feComposite in2="hardAlpha" operator="arithmetic" k2="-1" k3="1"/>
<feColorMatrix type="matrix" values="0 0 0 0 0 0 0 0 0 0 0 0 0 0 0 0 0 0 0.15 0"/>
<feBlend mode="normal" in2="shape" result="effect2_innerShadow"/>
</filter>
<radialGradient id="paint0_radial" cx="0" cy="0" r="1" gradientUnits="userSpaceOnUse" gradientTransform="translate(21.7514 18.8873) rotate(49.2409) scale(17.8674 31.9911)">
<stop stop-color="white"/>
<stop offset="0.395402" stop-color="white" stop-opacity="0"/>
</radialGradient>
<radialGradient id="paint1_radial" cx="0" cy="0" r="1" gradientUnits="userSpaceOnUse" gradientTransform="translate(34.5997 5.01505) rotate(63.45) scale(1.89117 1.89042)">
<stop stop-color="white"/>
<stop offset="1" stop-color="white" stop-opacity="0"/>
</radialGradient>
<radialGradient id="paint2_radial" cx="0" cy="0" r="1" gradientUnits="userSpaceOnUse" gradientTransform="translate(46.9413 17.0264) rotate(70.029) scale(1.97997 1.97897)">
<stop stop-color="white"/>
<stop offset="1" stop-color="white" stop-opacity="0"/>
</radialGradient>
<radialGradient id="paint3_radial" cx="0" cy="0" r="1" gradientUnits="userSpaceOnUse" gradientTransform="translate(46.4354 38.6804) rotate(71.5764) scale(1.60481 1.52759)">
<stop stop-color="white"/>
<stop offset="1" stop-color="white" stop-opacity="0"/>
</radialGradient>
<radialGradient id="paint4_radial" cx="0" cy="0" r="1" gradientUnits="userSpaceOnUse" gradientTransform="translate(11.4379 43.7556) rotate(74.7545) scale(1.92879 1.8359)">
<stop stop-color="white"/>
<stop offset="1" stop-color="white" stop-opacity="0"/>
</radialGradient>
<radialGradient id="paint5_radial" cx="0" cy="0" r="1" gradientUnits="userSpaceOnUse" gradientTransform="translate(5.85968 24.4702) rotate(77.0137) scale(2.25698 2.25564)">
<stop stop-color="white"/>
<stop offset="1" stop-color="white" stop-opacity="0"/>
</radialGradient>
<radialGradient id="paint6_radial" cx="0" cy="0" r="1" gradientUnits="userSpaceOnUse" gradientTransform="translate(8.73407 8.39854) rotate(71.5764) scale(2.13975 2.24556)">
<stop stop-color="white"/>
<stop offset="1" stop-color="white" stop-opacity="0"/>
</radialGradient>
</defs>
</svg>
