<svg width="187" height="132" fill="none" xmlns="http://www.w3.org/2000/svg"><g filter="url(#filter0_di)"><path d="M20.351 106.91l13.402-19.468a8.596 8.596 0 012.434-2.356 8.558 8.558 0 019.617.255l1.885 1.346a8.562 8.562 0 007.611 1.196 8.575 8.575 0 003.39-2.054 8.619 8.619 0 002.11-3.363l6.506-19.104a8.622 8.622 0 013.133-4.216 8.567 8.567 0 019.98 0 8.621 8.621 0 013.133 4.216l3.145 9.252a8.623 8.623 0 002.981 4.107 8.568 8.568 0 0012.993-3.407l2.719-6.186a8.624 8.624 0 012.844-3.505 8.57 8.57 0 018.656-.797 8.598 8.598 0 013.432 2.928 8.59 8.59 0 003.602 3.02 8.549 8.549 0 008.943-1.22 8.615 8.615 0 002.669-3.874l3.044-8.942c2.8-8.188 14.571-7.587 16.492.91l11.652 51.262s-145.965-.409-146.373 0z" fill="#F985A0"/><path opacity=".3" d="M20.351 106.91l13.402-19.468a8.596 8.596 0 012.434-2.356 8.558 8.558 0 019.617.255l1.885 1.346a8.562 8.562 0 007.611 1.196 8.575 8.575 0 003.39-2.054 8.619 8.619 0 002.11-3.363l6.506-19.104a8.622 8.622 0 013.133-4.216 8.567 8.567 0 019.98 0 8.621 8.621 0 013.133 4.216l3.145 9.252a8.623 8.623 0 002.981 4.107 8.568 8.568 0 0012.993-3.407l2.719-6.186a8.624 8.624 0 012.844-3.505 8.57 8.57 0 018.656-.797 8.598 8.598 0 013.432 2.928 8.59 8.59 0 003.602 3.02 8.549 8.549 0 008.943-1.22 8.615 8.615 0 002.669-3.874l3.044-8.942c2.8-8.188 14.571-7.587 16.492.91l11.652 51.262s-145.965-.409-146.373 0z" fill="#B6B6B6"/><path d="M19.98 107.41l10.873-31.976a8.422 8.422 0 013.016-4.1 8.368 8.368 0 019.677-.123 8.42 8.42 0 013.118 4.023l5.21 14.173a8.415 8.415 0 002.532 3.58 8.35 8.35 0 008.333 1.364 8.382 8.382 0 003.534-2.588l4.222-5.276a8.356 8.356 0 0111.48-1.52l9.84 7.224a8.378 8.378 0 004.957 1.628h12.523c1.778 0 3.511.567 4.947 1.62l9.315 6.841a8.36 8.36 0 0011.87-2.038l8.744-12.845c.109-.164.226-.319.344-.474 3.516-4.466 10.547-3.52 13.093 1.556l9.361 18.631s-146.99-.3-146.99.3z" fill="#B4D1FA"/><path d="M166.914 107.11l-11.371-9.297c-15.604-11.526-23.006 10.407-35.275-6.05l-4.223-5.276a8.356 8.356 0 00-11.48-1.52l-4.893 3.594a27.11 27.11 0 01-16.03 5.258H77.3a8.369 8.369 0 00-4.956 1.62l-9.315 6.841c-3.824 2.811-6.488 3.184-12.604-1.965 0 0-6.633-5.459-6.796-5.613-3.253-3.976-10.058-3.976-12.984 0-.707.955-1.441 1.819-2.239 2.729l-8.789 9.725s147.297-.655 147.297-.046z" fill="#0A3D76"/><path d="M60.392 33.26c0 .127-5.21.236-11.626.236-6.415 0-11.616-.11-11.616-.237s5.21-.236 11.635-.236c6.424 0 11.607.109 11.607.236zm-25.796-1.993h-3.978v3.994h3.978v-3.994zm69.67 1.993c0 .127-5.21.236-11.635.236-6.424 0-11.625-.11-11.625-.237s5.2-.236 11.625-.236 11.635.109 11.635.236z" fill="#F985A0"/><path d="M78.46 31.267h-3.978v3.994h3.978v-3.994z" fill="#B4D1FA"/><path d="M148.131 33.26c0 .127-5.201.236-11.626.236-6.424 0-11.625-.11-11.625-.237s5.201-.236 11.625-.236c6.425 0 11.626.109 11.626.236z" fill="#F985A0"/><path d="M122.334 31.267h-3.978v3.994h3.978v-3.994z" fill="#0A3D76"/></g><defs><filter id="filter0_di" x="17.617" y="29.267" width="155.351" height="84.143" filterUnits="userSpaceOnUse" color-interpolation-filters="sRGB"><feFlood flood-opacity="0" result="BackgroundImageFix"/><feColorMatrix in="SourceAlpha" values="0 0 0 0 0 0 0 0 0 0 0 0 0 0 0 0 0 0 127 0"/><feOffset dx="2" dy="2"/><feGaussianBlur stdDeviation="2"/><feColorMatrix values="0 0 0 0 0 0 0 0 0 0 0 0 0 0 0 0 0 0 0.15 0"/><feBlend in2="BackgroundImageFix" result="effect1_dropShadow"/><feBlend in="SourceGraphic" in2="effect1_dropShadow" result="shape"/><feColorMatrix in="SourceAlpha" values="0 0 0 0 0 0 0 0 0 0 0 0 0 0 0 0 0 0 127 0" result="hardAlpha"/><feOffset dx="-2" dy="-2"/><feGaussianBlur stdDeviation="2"/><feComposite in2="hardAlpha" operator="arithmetic" k2="-1" k3="1"/><feColorMatrix values="0 0 0 0 0 0 0 0 0 0 0 0 0 0 0 0 0 0 0.2 0"/><feBlend in2="shape" result="effect2_innerShadow"/></filter></defs></svg>