<svg width="720" height="510" viewBox="0 0 720 510" fill="none" xmlns="http://www.w3.org/2000/svg">
<g clip-path="url(#clip0)">
<path d="M719.167 174.123L713.352 171.392C713.116 171.279 712.915 171.102 712.772 170.881C712.629 170.659 712.549 170.402 712.542 170.138C712.524 169.452 712.478 168.759 712.403 168.066C712.272 166.798 712.041 165.542 711.712 164.312C711.638 164.038 711.646 163.748 711.737 163.479C711.828 163.211 711.997 162.976 712.221 162.805L717.55 158.706C717.827 158.495 718.015 158.185 718.075 157.84C718.136 157.494 718.066 157.139 717.878 156.843L714.601 151.619C714.422 151.334 714.145 151.127 713.824 151.035C713.503 150.943 713.16 150.974 712.859 151.121L707.319 153.862C707.054 153.997 706.752 154.041 706.46 153.987C706.168 153.933 705.902 153.785 705.7 153.565C703.883 151.66 701.778 150.059 699.464 148.82C699.191 148.67 698.975 148.433 698.849 148.147C698.723 147.86 698.694 147.539 698.767 147.234L699.665 143.555C699.746 143.214 699.701 142.856 699.538 142.547C699.376 142.238 699.107 141.999 698.783 141.876L693.063 139.796C692.95 139.751 692.831 139.723 692.71 139.713C692.425 139.685 692.14 139.748 691.893 139.893C691.646 140.037 691.45 140.256 691.332 140.518L689.312 144.902L688.823 145.972C687.667 145.933 686.51 145.976 685.361 146.102C683.827 146.268 682.311 146.578 680.834 147.028C680.566 147.112 680.279 147.111 680.012 147.025C679.744 146.939 679.51 146.771 679.34 146.545L676.074 142.207C675.859 141.922 675.546 141.728 675.196 141.665C674.847 141.602 674.486 141.674 674.187 141.867L670.231 144.393L669.098 145.12C668.798 145.311 668.579 145.606 668.482 145.95C668.386 146.293 668.418 146.661 668.574 146.982L670.841 151.657C670.974 151.918 671.021 152.215 670.975 152.505C670.929 152.795 670.792 153.062 670.585 153.268C669.352 154.532 668.256 155.927 667.316 157.427C667.229 157.548 667.149 157.673 667.075 157.802C667.051 157.846 667.022 157.887 666.989 157.925C666.823 158.149 666.594 158.317 666.332 158.409C666.07 158.501 665.786 158.512 665.518 158.44L659.598 156.979C659.533 156.96 659.466 156.949 659.398 156.944C659.089 156.917 658.779 156.993 658.516 157.16C658.253 157.327 658.052 157.576 657.943 157.87L655.873 163.624C655.752 163.96 655.761 164.33 655.897 164.66C656.033 164.99 656.287 165.256 656.608 165.406L662.676 168.245C662.927 168.361 663.138 168.55 663.28 168.789C663.423 169.028 663.49 169.304 663.473 169.582C663.418 170.863 663.459 172.146 663.597 173.42C663.67 174.107 663.771 174.785 663.9 175.454C663.95 175.719 663.926 175.994 663.83 176.247C663.734 176.5 663.57 176.72 663.357 176.884L658.236 180.827C657.962 181.038 657.776 181.344 657.715 181.686C657.654 182.028 657.722 182.38 657.906 182.674L661.156 187.839C661.346 188.142 661.639 188.364 661.981 188.462C662.323 188.559 662.688 188.526 663.007 188.368L667.39 186.198C667.672 186.053 667.994 186.009 668.304 186.072C668.614 186.135 668.894 186.302 669.099 186.545C670.728 188.531 672.653 190.249 674.803 191.639C675.055 191.798 675.25 192.034 675.36 192.311C675.471 192.589 675.492 192.895 675.42 193.186L674.116 198.579C674.032 198.928 674.078 199.296 674.246 199.613C674.414 199.93 674.691 200.174 675.025 200.297L680.701 202.377C681.029 202.498 681.389 202.49 681.711 202.355C682.033 202.22 682.293 201.967 682.439 201.648L682.558 201.392L684.903 196.298C685.024 196.033 685.223 195.811 685.473 195.663C685.722 195.515 686.011 195.448 686.299 195.471V195.471C687.75 195.572 689.207 195.543 690.653 195.385C691.438 195.298 692.206 195.172 692.97 195.018C693.228 194.962 693.497 194.981 693.745 195.073C693.993 195.165 694.21 195.327 694.371 195.539L697.685 199.944C697.903 200.233 698.22 200.43 698.574 200.495C698.928 200.56 699.293 200.488 699.598 200.294L704.694 197.026C704.833 196.934 704.956 196.819 705.059 196.687C705.216 196.476 705.313 196.224 705.339 195.961C705.365 195.697 705.319 195.432 705.206 195.193L703.394 191.471C703.287 191.247 703.24 190.999 703.256 190.75C703.273 190.502 703.352 190.262 703.488 190.054C703.562 189.944 703.651 189.844 703.751 189.757C706.264 187.635 708.332 185.028 709.835 182.088C709.958 181.846 710.149 181.645 710.385 181.51C710.62 181.376 710.889 181.314 711.159 181.332C711.239 181.338 711.318 181.351 711.396 181.369L716.187 182.558C716.524 182.641 716.879 182.595 717.184 182.431C717.49 182.267 717.724 181.995 717.844 181.666L717.893 181.534L719.916 175.928C720.037 175.587 720.027 175.212 719.889 174.878C719.75 174.544 719.492 174.274 719.167 174.123V174.123ZM674.947 168.342C675.118 167.322 675.382 166.32 675.737 165.35C676.445 163.419 678.433 160.907 680.151 159.801C680.335 159.681 680.52 159.568 680.704 159.457C692.043 152.745 704.806 163.304 700.32 175.978C699.732 177.634 698.26 179.665 696.742 180.988C696.415 181.274 696.067 181.536 695.701 181.77C694.235 182.711 692.622 183.393 690.929 183.785C681.855 185.823 673.38 178.12 674.947 168.342Z" fill="#EBF2F9"/>
<path d="M364.129 46.4894L360.884 44.9941C360.752 44.9322 360.64 44.8352 360.56 44.7141C360.48 44.5929 360.436 44.4522 360.432 44.3075C360.422 43.9316 360.396 43.5525 360.355 43.1726C360.281 42.4783 360.152 41.7908 359.969 41.1168C359.927 40.9669 359.932 40.8081 359.983 40.661C360.033 40.514 360.128 40.3853 360.253 40.2918L363.227 38.0472C363.382 37.9313 363.486 37.7619 363.52 37.5727C363.554 37.3836 363.515 37.1887 363.41 37.0271L361.581 34.1658C361.481 34.0102 361.327 33.8964 361.148 33.8461C360.968 33.7959 360.777 33.8127 360.609 33.8933L357.517 35.3943C357.369 35.4681 357.201 35.4922 357.038 35.4628C356.875 35.4334 356.726 35.3523 356.613 35.2316C355.599 34.1887 354.424 33.3117 353.133 32.6331C352.98 32.551 352.86 32.4215 352.789 32.2645C352.719 32.1076 352.703 31.932 352.743 31.765L353.245 29.7499C353.29 29.5635 353.265 29.3672 353.174 29.198C353.083 29.0287 352.933 28.898 352.752 28.8306L349.56 27.6916C349.497 27.667 349.43 27.6516 349.363 27.646C349.204 27.631 349.045 27.6654 348.907 27.7444C348.769 27.8235 348.66 27.9433 348.594 28.087L347.467 30.4878L347.193 31.0735C346.548 31.0521 345.903 31.076 345.261 31.1451C344.405 31.2359 343.559 31.4056 342.734 31.6519C342.585 31.6982 342.425 31.6976 342.275 31.6503C342.126 31.603 341.995 31.5112 341.901 31.3875L340.078 29.012C339.958 28.8556 339.783 28.7497 339.588 28.7152C339.393 28.6806 339.192 28.7201 339.024 28.8257L336.816 30.2087L336.184 30.6074C336.017 30.7115 335.895 30.8733 335.841 31.0615C335.787 31.2497 335.805 31.451 335.892 31.6267L337.157 34.187C337.231 34.3298 337.257 34.4925 337.232 34.6511C337.206 34.8098 337.13 34.9562 337.014 35.0688C336.326 35.7615 335.714 36.5252 335.19 37.3468C335.141 37.4127 335.096 37.4812 335.055 37.5518C335.041 37.5759 335.025 37.5985 335.007 37.6193C334.914 37.7419 334.786 37.8341 334.64 37.8844C334.494 37.9347 334.336 37.9407 334.186 37.9016L330.882 37.1011C330.845 37.091 330.808 37.0847 330.77 37.0824C330.597 37.0673 330.425 37.1088 330.278 37.2003C330.131 37.2918 330.019 37.4284 329.958 37.5892L328.803 40.7401C328.735 40.9242 328.74 41.1266 328.816 41.3074C328.892 41.4882 329.034 41.6341 329.213 41.7163L332.6 43.271C332.74 43.3341 332.858 43.4379 332.937 43.5686C333.016 43.6994 333.054 43.8509 333.045 44.0032C333.014 44.7044 333.037 45.4069 333.114 46.1046C333.155 46.481 333.211 46.8523 333.283 47.2184C333.311 47.3639 333.297 47.5144 333.244 47.6528C333.19 47.7912 333.099 47.912 332.98 48.0018L330.121 50.161C329.969 50.2762 329.865 50.444 329.831 50.6312C329.797 50.8183 329.835 51.0114 329.938 51.1722L331.751 54.0009C331.857 54.167 332.021 54.2884 332.212 54.3419C332.403 54.3953 332.607 54.377 332.784 54.2905L335.231 53.1019C335.388 53.023 335.568 52.9988 335.741 53.0334C335.914 53.0679 336.07 53.1591 336.185 53.2923C337.094 54.3796 338.168 55.3207 339.368 56.082C339.509 56.169 339.618 56.2978 339.679 56.45C339.741 56.6021 339.753 56.7698 339.713 56.9289L338.985 59.882C338.938 60.0733 338.964 60.2749 339.058 60.4485C339.151 60.6221 339.306 60.7555 339.492 60.8233L342.66 61.9623C342.843 62.0284 343.044 62.0241 343.224 61.9501C343.404 61.8761 343.549 61.7378 343.63 61.5628L343.697 61.4229L345.006 58.6332C345.073 58.4879 345.184 58.3665 345.324 58.2855C345.463 58.2045 345.624 58.1677 345.785 58.1801V58.1801C346.595 58.2357 347.408 58.2199 348.215 58.1329C348.653 58.0857 349.082 58.0166 349.508 57.932C349.652 57.9013 349.802 57.9118 349.941 57.9624C350.079 58.013 350.2 58.1014 350.29 58.2175L352.14 60.6297C352.261 60.7881 352.438 60.8957 352.636 60.9313C352.833 60.9668 353.037 60.9277 353.207 60.8217L356.052 59.0319C356.129 58.9812 356.198 58.9185 356.255 58.8464C356.343 58.7304 356.397 58.5928 356.412 58.4485C356.426 58.3043 356.401 58.1588 356.338 58.028L355.326 55.99C355.266 55.8671 355.24 55.7311 355.249 55.5951C355.258 55.4591 355.303 55.3278 355.378 55.2139C355.42 55.1535 355.469 55.0988 355.525 55.0512C356.928 53.8891 358.082 52.4614 358.921 50.8517C358.99 50.7187 359.097 50.6086 359.228 50.535C359.359 50.4615 359.509 50.4276 359.66 50.4376C359.704 50.4408 359.749 50.4476 359.792 50.4579L362.467 51.1087C362.654 51.1541 362.852 51.1294 363.023 51.0394C363.193 50.9493 363.325 50.8003 363.391 50.6206L363.418 50.5482L364.547 47.4779C364.615 47.2912 364.61 47.0861 364.532 46.9031C364.455 46.7202 364.311 46.5726 364.129 46.4894V46.4894ZM339.449 43.3239C339.544 42.7653 339.692 42.2168 339.89 41.6854C340.285 40.6278 341.394 39.2521 342.353 38.6468C342.456 38.5809 342.559 38.5191 342.662 38.4581C348.991 34.7825 356.114 40.5652 353.61 47.5055C353.282 48.4126 352.461 49.5248 351.613 50.2488C351.431 50.406 351.236 50.5493 351.032 50.6776C350.214 51.1928 349.314 51.5659 348.369 51.7807C343.304 52.8969 338.574 48.6787 339.449 43.3239Z" fill="#EBF2F9"/>
<path d="M136.478 15.9788L133.774 14.7111C133.664 14.6586 133.571 14.5764 133.504 14.4736C133.438 14.3709 133.4 14.2516 133.397 14.1289C133.389 13.8103 133.368 13.4889 133.333 13.1667C133.272 12.5781 133.164 11.9952 133.011 11.4238C132.977 11.2967 132.981 11.1621 133.023 11.0374C133.065 10.9127 133.143 10.8036 133.248 10.7244L135.726 8.82134C135.855 8.72309 135.943 8.5794 135.971 8.41902C135.999 8.25865 135.966 8.09342 135.879 7.9564L134.355 5.53056C134.272 5.3986 134.143 5.30215 133.994 5.25955C133.844 5.21694 133.684 5.23116 133.545 5.2995L130.968 6.57208C130.845 6.63468 130.704 6.65508 130.568 6.63019C130.433 6.6053 130.309 6.53647 130.215 6.43413C129.37 5.54997 128.391 4.8064 127.314 4.23108C127.187 4.16149 127.087 4.05165 127.028 3.91859C126.97 3.78552 126.956 3.63667 126.99 3.49512L127.408 1.78662C127.446 1.62859 127.425 1.4622 127.349 1.31869C127.273 1.17518 127.148 1.06442 126.998 1.00721L124.337 0.0415614C124.284 0.0206749 124.229 0.00766166 124.173 0.00293566C124.041 -0.00984618 123.908 0.0193196 123.793 0.0863519C123.678 0.153384 123.587 0.254929 123.532 0.376778L122.593 2.41222L122.365 2.90884C121.827 2.89068 121.289 2.91096 120.755 2.96953C120.041 3.04649 119.336 3.19035 118.649 3.39925C118.525 3.43844 118.391 3.43795 118.267 3.39783C118.142 3.35771 118.033 3.27993 117.955 3.17508L116.435 1.16102C116.335 1.02845 116.19 0.938617 116.027 0.909357C115.864 0.880097 115.697 0.913547 115.558 1.00307L113.717 2.17564L113.191 2.51361C113.051 2.60194 112.949 2.73909 112.904 2.89865C112.859 3.05822 112.875 3.22891 112.947 3.37787L114.001 5.5485C114.063 5.66963 114.085 5.80753 114.064 5.94204C114.042 6.07656 113.979 6.20065 113.882 6.29618C113.309 6.88345 112.799 7.5309 112.362 8.22747C112.321 8.28338 112.284 8.3414 112.25 8.40129C112.238 8.4217 112.225 8.44088 112.21 8.45854C112.132 8.56243 112.026 8.64068 111.904 8.68331C111.782 8.72593 111.65 8.73101 111.526 8.69788L108.772 8.01917C108.742 8.0106 108.71 8.00528 108.679 8.0033C108.535 7.99056 108.391 8.02568 108.269 8.10328C108.147 8.18088 108.053 8.2967 108.002 8.43302L107.039 11.1044C106.983 11.2605 106.987 11.4321 107.051 11.5854C107.114 11.7387 107.232 11.8624 107.382 11.9321L110.204 13.2502C110.32 13.3037 110.418 13.3917 110.485 13.5025C110.551 13.6134 110.582 13.7418 110.574 13.871C110.549 14.4655 110.568 15.061 110.632 15.6526C110.666 15.9717 110.713 16.2865 110.773 16.5969C110.796 16.7203 110.785 16.8478 110.74 16.9652C110.696 17.0825 110.62 17.185 110.52 17.2611L108.138 19.0917C108.011 19.1894 107.925 19.3316 107.896 19.4903C107.868 19.649 107.9 19.8127 107.985 19.949L109.497 22.3473C109.585 22.4881 109.722 22.591 109.88 22.6363C110.039 22.6817 110.209 22.6662 110.358 22.5928L112.396 21.5851C112.527 21.5182 112.677 21.4977 112.821 21.527C112.966 21.5562 113.096 21.6336 113.191 21.7465C113.949 22.6684 114.844 23.4662 115.844 24.1116C115.961 24.1854 116.052 24.2947 116.103 24.4237C116.155 24.5527 116.165 24.6948 116.131 24.8297L115.525 27.3334C115.486 27.4956 115.507 27.6666 115.585 27.8137C115.663 27.9609 115.792 28.074 115.948 28.1315L118.588 29.0971C118.74 29.1532 118.907 29.1495 119.057 29.0868C119.207 29.024 119.328 28.9068 119.396 28.7585L119.451 28.6398L120.542 26.2747C120.598 26.1515 120.691 26.0486 120.807 25.9799C120.923 25.9112 121.057 25.88 121.191 25.8905V25.8905C121.866 25.9376 122.544 25.9243 123.216 25.8505C123.582 25.8105 123.939 25.7519 124.294 25.6801C124.414 25.6541 124.539 25.6631 124.654 25.7059C124.77 25.7488 124.871 25.8238 124.945 25.9222L126.487 27.9673C126.588 28.1017 126.736 28.1929 126.9 28.223C127.065 28.2532 127.235 28.22 127.377 28.1301L129.747 26.6127C129.812 26.5697 129.869 26.5166 129.917 26.4554C129.99 26.3571 130.035 26.2404 130.047 26.1181C130.059 25.9958 130.038 25.8725 129.985 25.7615L129.142 24.0337C129.093 23.9295 129.071 23.8142 129.078 23.6989C129.086 23.5836 129.123 23.4723 129.186 23.3757C129.221 23.3245 129.262 23.2781 129.308 23.2377C130.477 22.2525 131.439 21.042 132.138 19.6773C132.195 19.5645 132.284 19.4712 132.394 19.4088C132.503 19.3464 132.628 19.3177 132.754 19.3262C132.791 19.3289 132.828 19.3347 132.864 19.3434L135.093 19.8952C135.249 19.9337 135.414 19.9127 135.556 19.8364C135.698 19.7601 135.808 19.6337 135.863 19.4814L135.886 19.42L136.827 16.8169C136.883 16.6586 136.879 16.4847 136.814 16.3296C136.75 16.1745 136.63 16.0493 136.478 15.9788V15.9788ZM115.911 13.295C115.991 12.8215 116.114 12.3564 116.279 11.9059C116.608 11.0092 117.532 9.84286 118.332 9.32969C118.417 9.27382 118.503 9.2214 118.589 9.16967C123.863 6.05339 129.799 10.9561 127.713 16.8403C127.439 17.6094 126.755 18.5523 126.048 19.1662C125.896 19.2994 125.734 19.4209 125.564 19.5297C124.882 19.9665 124.132 20.2828 123.345 20.465C119.124 21.4113 115.183 17.835 115.911 13.295Z" fill="#EBF2F9"/>
<g filter="url(#filter0_f)">
<path d="M233 363L193.5 375L299.263 508.397L378.034 507.277L233 363Z" fill="url(#paint0_linear)"/>
</g>
<path d="M224.607 190.638L225.454 189.015L238.765 192.151L238.874 196.873L224.224 192.26L224.607 190.638Z" fill="#6F3725"/>
<path d="M235.273 197.182L221.707 187.236L223.857 184.766L238.434 195.368" fill="black"/>
<path d="M225.687 186.428C225.649 186.19 225.67 185.945 225.75 185.717C225.829 185.489 225.962 185.283 226.137 185.116C226.312 184.952 226.523 184.83 226.752 184.76C226.983 184.705 227.223 184.705 227.454 184.76C228.341 184.99 229.184 185.367 229.947 185.875C232.488 187.178 235.349 187.727 238.191 187.456C239.419 187.383 240.644 187.657 241.725 188.247C244.517 189.828 249.551 192.99 250.402 196.073C251.105 198.793 256.824 205.244 258.867 207.284C259.055 207.47 259.191 207.702 259.262 207.957C259.332 208.212 259.335 208.482 259.269 208.738C259.207 208.993 259.079 209.227 258.899 209.418C258.718 209.607 258.493 209.749 258.244 209.829C256.153 210.422 253.582 211.561 252.414 213.64C251.83 214.691 247.586 211.616 246.971 210.58C246.779 210.255 246.472 210.015 246.111 209.908C243.942 209.26 236.124 206.959 233.931 206.983C233.707 206.982 233.487 206.934 233.284 206.841C233.08 206.743 232.9 206.603 232.755 206.43C232.487 206.098 232.243 205.734 232.321 205.513C232.471 205.062 230.073 205.71 229.45 204.272C228.827 202.833 228.606 200.493 227.146 198.682C227.007 198.512 226.832 198.374 226.634 198.279C225.663 197.797 222.579 196.184 222.737 194.635C223.176 192.819 223.847 191.068 224.732 189.425L225.143 189.78C225.062 190.17 225.121 190.576 225.308 190.927C225.5 191.284 225.809 191.564 226.184 191.717L226.326 191.82C226.644 192.033 227 192.184 227.375 192.263L229.032 193.053C229.193 193.145 229.369 193.207 229.552 193.235L230.949 193.449C231.084 193.472 231.223 193.472 231.359 193.449L236.368 192.872C236.368 192.872 226.499 192.389 225.687 186.428Z" fill="#F9C8A3"/>
<path d="M218.201 190.527C221.658 189.929 224.748 188.012 226.821 185.181C228.894 182.349 229.788 178.823 229.316 175.345C228.844 171.867 227.042 168.708 224.289 166.532C221.537 164.356 218.048 163.334 214.557 163.68C211.1 164.278 208.01 166.195 205.937 169.026C203.864 171.858 202.969 175.384 203.441 178.862C203.914 182.34 205.716 185.499 208.468 187.675C211.221 189.851 214.71 190.873 218.201 190.527V190.527Z" fill="#A6CCF4" stroke="black" stroke-width="2" stroke-miterlimit="10"/>
<path d="M222.322 156.143C219.416 156.914 223.046 159.997 225.102 160.451C227.702 161.082 230.226 161.981 232.631 163.133H232.789C233.048 163.266 233.278 163.447 233.466 163.665L233.537 163.727L234.766 164.675C234.893 164.762 235.005 164.869 235.097 164.991L235.742 165.885C235.844 166.021 235.924 166.172 235.979 166.332L237.357 170.186C237.357 170.186 234.608 165.446 230.82 164.613C228.67 164.135 227.362 166.926 229.19 168.066L229.316 168.136C231.276 169.478 232.79 171.354 233.671 173.531C234.147 174.596 234.937 175.498 235.939 176.121C238.302 177.662 242.5 179.974 245.17 179.427C247.619 178.934 254.92 180.753 257.323 181.469C257.54 181.545 257.773 181.563 258 181.523C258.225 181.481 258.435 181.386 258.614 181.246C258.796 181.104 258.937 180.918 259.024 180.706C259.112 180.5 259.148 180.275 259.126 180.051C258.843 178.333 258.772 175.959 260 174.309C260.615 173.492 256.559 171.481 255.519 171.419C255.193 171.404 254.885 171.265 254.66 171.034C253.322 169.662 248.612 164.675 247.753 163.133C247.669 162.964 247.545 162.816 247.391 162.702C247.24 162.584 247.061 162.504 246.871 162.471C246.509 162.386 246.084 162.347 245.973 162.471C245.658 162.756 245.296 160.736 243.894 160.806C242.492 160.875 240.641 161.577 238.688 161.23C238.402 161.179 238.132 161.062 237.9 160.891C237.034 160.289 226.772 156.012 222.282 156.166L222.322 156.143Z" fill="#F9C8A3"/>
<path d="M349.662 159.131L348.332 173.164C348.332 173.164 339.867 177.007 335.645 174.946C331.424 172.885 331.325 173.393 331.325 173.393L331.176 163.028L340.14 161.321L349.662 159.131Z" fill="#F9C8A3"/>
<path d="M345.182 163.472C342.568 168.096 338.089 171.458 331.187 170.337L331.187 162.777C333.334 161.924 341.884 164.66 343.876 163.472L345.182 163.472Z" fill="#EAAB85"/>
<path d="M351.744 155.307L364.988 111.768L322.273 119.086C322.273 119.086 316.213 164.626 324.512 165.232C332.812 165.838 340.496 162.925 340.496 162.925C345.528 160.945 348.272 159.721 351.744 155.307Z" fill="#F9C8A3"/>
<path d="M316.726 146.251L322.681 147.072L320.807 144.865L316.726 146.251Z" fill="#C69B7D"/>
<path d="M320.839 133.699C318.964 137.594 318.332 139.87 315.422 143.629C315.212 143.822 315.065 144.071 315.001 144.346C314.936 144.62 314.953 144.907 315.05 145.174C315.149 145.439 315.317 145.676 315.537 145.862C315.765 146.04 316.04 146.153 316.33 146.188C318.997 146.398 319.828 145.784 321.635 146.727C323.96 147.915 324.019 145.833 323.856 144.537L320.839 133.699Z" fill="#F9C8A3"/>
<path d="M326.405 129.603C326.131 129.568 325.938 129.318 325.973 129.044L326.168 127.523C326.204 127.241 326.468 127.046 326.748 127.094L332.303 128.047C333.073 128.177 333.782 128.506 334.311 128.979L335.887 130.352C336.289 130.703 335.936 131.355 335.423 131.211L332.535 130.396C332.511 130.39 332.487 130.385 332.463 130.382L326.405 129.603Z" fill="#202020"/>
<path d="M320.401 153.283C320.401 153.283 324.084 154.382 325.024 153.147" stroke="#B96665" stroke-width="0.64" stroke-linecap="round" stroke-linejoin="round"/>
<path d="M344.403 143.128C345.989 140.734 348.25 141.156 348.848 142.601C349.447 144.046 345.781 147.676 344.209 147.011C342.949 146.485 343.451 144.567 344.403 143.128Z" fill="#EAAB85"/>
<path d="M343.772 144.861C344.677 142.787 346.138 142.87 346.6 143.978C347.063 145.087 344.881 148.361 343.817 147.984C342.952 147.681 343.256 146.118 343.772 144.861Z" fill="#F9C8A3"/>
<path d="M355.753 165.07C360.245 166.118 358.305 161.16 358.305 161.16C358.305 161.16 368.513 152.58 371.612 147.625C374.711 142.67 378.993 127.172 377.223 124.218C376.126 122.307 383.737 104.832 351.67 95.469C351.67 95.469 341.08 99.3175 335.045 98.3668C329.01 97.4162 316.646 95.9651 316.646 95.9651C316.646 95.9651 304.607 103.87 322.131 119.944C322.131 119.944 344.505 115.138 341.838 133.631C341.602 135.129 340.182 140.367 341.284 141C341.823 141.306 342.757 139.393 345.114 137.558C350.549 133.44 357.038 139.436 347.842 149.168C346.195 150.931 344.647 150.586 343.552 151.453C343.552 151.453 340.148 161.426 355.753 165.07Z" fill="#202020"/>
<path d="M331.566 133.658C330.737 133.107 330.415 133.148 329.067 132.837C328.434 132.767 327.794 132.781 327.163 132.878C327.163 132.878 325.497 133.935 325.294 134.076C324.936 134.335 324.954 134.723 325.367 134.881C325.781 135.039 326.283 135.015 326.626 135.171C329.289 136.266 329.842 136.576 331.57 136.311C332.256 136.225 332.931 136.058 333.58 135.814C333.071 134.955 332.384 134.22 331.566 133.658Z" fill="white"/>
<path d="M328.802 133.329C327.935 133.132 327.065 133.686 326.858 134.566C326.797 134.825 326.8 135.083 326.857 135.323C327.796 135.771 328.324 135.994 329.347 136.251C329.662 136.025 329.901 135.687 329.997 135.279C330.204 134.399 329.669 133.526 328.802 133.329Z" fill="#28160D" stroke="#1C1105" stroke-width="0.2" stroke-miterlimit="10"/>
<path d="M328.214 135.83C328.709 135.942 329.206 135.626 329.325 135.124C329.443 134.622 329.138 134.124 328.643 134.011C328.147 133.899 327.65 134.215 327.532 134.717C327.413 135.219 327.719 135.718 328.214 135.83Z" fill="black"/>
<path opacity="0.77" d="M329.165 134.981C329.413 135.037 329.662 134.879 329.721 134.628C329.78 134.376 329.627 134.127 329.38 134.071C329.132 134.015 328.883 134.173 328.824 134.424C328.764 134.675 328.917 134.925 329.165 134.981Z" fill="white"/>
<path d="M325.075 134.479L327.092 133.068C327.275 132.942 327.488 132.869 327.709 132.859L328.41 132.838C328.767 132.828 329.124 132.878 329.465 132.985L331.128 133.513C331.467 133.621 331.777 133.806 332.034 134.054L333.534 135.532L334.093 135.694L332.808 133.824C332.5 133.522 332.128 133.298 331.719 133.168L330.06 132.641C329.669 132.517 329.259 132.461 328.848 132.477L328.152 132.499C327.707 132.471 327.26 132.531 326.837 132.677L324.442 134.41L325.075 134.479Z" fill="#D3A688"/>
<path opacity="0.5" d="M324.892 134.512L326.909 133.099C327.126 132.947 327.381 132.861 327.644 132.85L328.341 132.828C328.736 132.815 329.13 132.87 329.506 132.991L331.169 133.519C331.544 133.636 331.886 133.842 332.166 134.12L333.64 135.587" stroke="#0A0001" stroke-width="0.3" stroke-miterlimit="10"/>
<path d="M325.062 134.78L325.768 134.943C326.138 135.028 326.498 135.152 326.843 135.314C327.64 135.697 329.328 136.578 331.076 136.426C331.183 136.416 331.975 136.202 332.081 136.173L333.086 135.921" stroke="#472A22" stroke-width="0.2" stroke-miterlimit="10"/>
<path d="M256.502 174.976C256.898 171.537 258.721 171.49 258.721 171.49C258.721 171.49 282.349 178.333 297.931 179.922C311.96 181.352 334.042 180.009 334.042 180.009C334.042 180.009 346.138 173.505 353.394 178.182C359.699 182.24 360.638 186.855 360.592 192.171C360.552 195.268 359.611 198.189 357.891 200.552C356.172 202.915 353.753 204.611 350.95 205.42C338.099 209.165 302.082 195.665 302.082 195.665L257.45 182.665C256.892 181.017 256.322 176.639 256.502 174.976Z" fill="#3F76BC"/>
<path d="M377.802 507.711C380.516 505.079 378.888 490.308 378.888 490.308C378.888 490.308 364.92 477.622 362.998 487.333C361.077 497.045 349.729 501.413 343.267 502.603C338.957 503.396 337.522 506.039 337.045 507.711H377.802Z" fill="#1E3055"/>
<path d="M379.373 491.841C368.893 493.65 361.069 491.841 361.069 491.841C361.207 480.351 359.152 474.928 354.803 445.194C349.066 405.99 341.248 360.113 336.318 331.83C333.484 315.565 333.911 304.155 333.911 304.155L342.475 303.968L374.829 300.789C374.829 300.789 368.685 354.535 369.557 380.516C369.767 386.716 369.557 387.384 370.984 393.496C377.085 414.855 379.373 491.841 379.373 491.841Z" fill="#2B478B"/>
<path d="M369.649 385.667C363.847 397.749 360.382 425.813 354.958 445.232C349.221 406.028 341.404 360.151 336.474 331.868C336.718 321.182 340.011 310.836 342.443 303.968L374.225 303.968C374.225 303.968 368.777 359.686 369.649 385.667Z" fill="#233862"/>
<path d="M341.155 510C343.938 507.369 342.27 492.597 342.27 492.597C342.27 492.597 327.919 479.911 325.946 489.623C323.973 499.334 312.327 503.729 305.68 504.892C301.254 505.686 299.785 508.328 299.295 510H341.155Z" fill="#233862"/>
<path d="M315.341 303.01C315.341 303.01 328.357 456.276 325.034 491.113C325.034 491.113 332.384 493.271 342.967 492.552C342.967 492.552 355.312 414.991 351.25 398.883C348.427 387.687 369.077 304.969 369.077 304.969L315.341 303.01Z" fill="#2B478B"/>
<path d="M377.656 304.747C374.665 311.675 317.373 309.632 314.103 304.747C312.772 302.759 319.254 282.881 318.382 259.764C317.9 246.963 317.617 233.161 317.671 220.867C317.77 200.805 313.149 195.47 315.688 194.244C322.035 187.521 327.791 175.939 342.941 175.567C345.747 175.654 351.408 174.997 353.768 176.688C356.127 178.379 358.058 181.466 359.29 184.272C363.742 194.524 370.06 212.691 370.538 234.144C371.265 267.207 381.408 296.014 377.656 304.747Z" fill="#71A0DD"/>
<path d="M339.072 207.252C339.072 207.252 336.919 241.826 318.369 259.764C317.888 246.962 317.605 233.161 317.658 220.866C323.2 212.623 330.513 206.686 339.072 207.252Z" fill="#3F76BC"/>
<path d="M340.933 177.928C340.829 176.694 339.635 175.921 338.484 176.379C333.919 178.193 323.243 183.345 315.319 194.254C311.446 199.587 294.385 233.378 292.489 233.53C290.593 233.682 258.945 206.199 258.945 206.199C258.945 206.199 250.158 209.477 249.818 214.216C249.818 214.216 271.846 236.042 288.275 250.402C291.814 253.495 297.012 253.541 300.583 250.486C311.032 241.549 331.709 222.609 338.469 207.33C342.239 198.811 341.421 183.714 340.933 177.928Z" fill="#71A0DD"/>
<path d="M331.081 171.98C335.157 172.062 344.198 171.853 347.58 168.634C347.902 168.318 348.332 168.127 348.789 168.097C349.241 168.07 349.66 168.634 350.115 169.406C351.989 172.589 351.989 174.041 353.394 176.314C346.301 174.446 336.595 176.688 336.595 176.688C332.221 178.304 330.54 179.083 327.635 181.17C328.573 177.654 329.412 177.421 329.395 173.79C329.383 173.559 329.415 173.328 329.489 173.108C329.57 172.89 329.694 172.689 329.854 172.517C330.014 172.343 330.213 172.206 330.435 172.116C330.639 172.031 330.859 171.984 331.081 171.98Z" fill="#D2DFF9"/>
<path d="M200.4 304.206H199.222C198.118 304.206 197.222 305.102 197.222 306.206V346.995C197.222 348.1 198.118 348.995 199.222 348.995H200.4C201.505 348.995 202.4 348.1 202.4 346.995V306.206C202.4 305.102 201.505 304.206 200.4 304.206Z" fill="#C9E0FF"/>
<path d="M223.952 300.574H222.774C221.669 300.574 220.774 301.469 220.774 302.574V347.002C220.774 348.107 221.669 349.002 222.774 349.002H223.952C225.056 349.002 225.952 348.107 225.952 347.002V302.574C225.952 301.469 225.056 300.574 223.952 300.574Z" fill="#C9E0FF"/>
<path d="M248.341 294.426H247.164C246.059 294.426 245.164 295.322 245.164 296.426V347.002C245.164 348.107 246.059 349.002 247.164 349.002H248.341C249.446 349.002 250.341 348.107 250.341 347.002V296.426C250.341 295.322 249.446 294.426 248.341 294.426Z" fill="#C9E0FF"/>
<path d="M236.884 327.186H235.707C234.602 327.186 233.707 328.082 233.707 329.186V346.995C233.707 348.099 234.602 348.995 235.707 348.995H236.884C237.989 348.995 238.884 348.099 238.884 346.995V329.186C238.884 328.082 237.989 327.186 236.884 327.186Z" fill="#EBF2F9"/>
<path d="M206.44 299.41H205.262C204.157 299.41 203.262 300.306 203.262 301.41V347.003C203.262 348.107 204.157 349.003 205.262 349.003H206.44C207.544 349.003 208.44 348.107 208.44 347.003V301.41C208.44 300.306 207.544 299.41 206.44 299.41Z" fill="#E0E0E0"/>
<path d="M230.41 289.022H229.232C228.128 289.022 227.232 289.917 227.232 291.022V347.003C227.232 348.108 228.128 349.003 229.232 349.003H230.41C231.514 349.003 232.41 348.108 232.41 347.003V291.022C232.41 289.917 231.514 289.022 230.41 289.022Z" fill="#E0E0E0"/>
<path d="M261.702 289.022H260.524C259.419 289.022 258.524 289.917 258.524 291.022V347.003C258.524 348.108 259.419 349.003 260.524 349.003H261.702C262.806 349.003 263.702 348.108 263.702 347.003V291.022C263.702 289.917 262.806 289.022 261.702 289.022Z" fill="#EBF2F9"/>
<path d="M255.259 277.172H254.081C252.976 277.172 252.081 278.067 252.081 279.172V346.995C252.081 348.099 252.976 348.995 254.081 348.995H255.259C256.363 348.995 257.259 348.099 257.259 346.995V279.172C257.259 278.067 256.363 277.172 255.259 277.172Z" fill="#E0E0E0"/>
<path d="M212.78 317.524H211.603C210.498 317.524 209.603 318.419 209.603 319.524V346.995C209.603 348.099 210.498 348.995 211.603 348.995H212.78C213.885 348.995 214.78 348.099 214.78 346.995V319.524C214.78 318.419 213.885 317.524 212.78 317.524Z" fill="#EBF2F9"/>
<path d="M271.115 351.713C271.115 351.83 252.632 351.916 229.833 351.916C207.034 351.916 188.544 351.83 188.544 351.713C188.544 351.596 207.027 351.51 229.833 351.51C252.64 351.51 271.115 351.604 271.115 351.713Z" fill="#EBF2F9"/>
<path d="M189.305 341.035H186.145V342.231H189.305V341.035Z" fill="#EBF2F9"/>
<path d="M189.305 325.093H186.145V326.289H189.305V325.093Z" fill="#EBF2F9"/>
<path d="M189.305 295.091H186.145V296.286H189.305V295.091Z" fill="#EBF2F9"/>
<path d="M189.305 280.016H186.145V281.211H189.305V280.016Z" fill="#EBF2F9"/>
<path d="M189.46 310.096H186.3V311.291H189.46V310.096Z" fill="#EBF2F9"/>
<path d="M434.265 272.473C433.715 272.471 433.188 272.251 432.799 271.862C432.41 271.473 432.191 270.946 432.189 270.396V231.435C432.189 230.884 432.408 230.356 432.797 229.966C433.186 229.577 433.714 229.358 434.265 229.358V229.358C434.538 229.357 434.808 229.41 435.06 229.514C435.312 229.618 435.542 229.771 435.735 229.964C435.928 230.157 436.08 230.386 436.184 230.639C436.288 230.891 436.341 231.162 436.34 231.435V270.396C436.34 270.669 436.287 270.939 436.182 271.191C436.078 271.443 435.925 271.672 435.732 271.864C435.54 272.057 435.311 272.21 435.059 272.315C434.807 272.419 434.537 272.473 434.265 272.473V272.473Z" fill="#EBF2F9"/>
<path d="M434.265 272.652C433.714 272.652 433.186 272.433 432.797 272.044C432.408 271.654 432.189 271.126 432.189 270.575V245.435C432.191 244.885 432.41 244.358 432.799 243.969C433.188 243.58 433.715 243.36 434.265 243.358C434.537 243.358 434.807 243.412 435.059 243.516C435.311 243.621 435.54 243.774 435.732 243.967C435.925 244.16 436.078 244.389 436.182 244.641C436.287 244.893 436.34 245.163 436.34 245.435V270.553C436.344 270.828 436.293 271.1 436.191 271.355C436.088 271.611 435.936 271.843 435.743 272.038C435.549 272.233 435.319 272.388 435.065 272.494C434.812 272.599 434.539 272.653 434.265 272.652Z" fill="#E0E0E0"/>
<path d="M432.959 274.281V277.74H432.607V274.572H431.793V274.258L432.959 274.281Z" fill="#E0E0E0"/>
<path d="M433.787 276.014C433.787 274.908 434.362 274.251 435.168 274.251C435.975 274.251 436.55 274.908 436.55 276.014C436.55 277.12 435.967 277.77 435.168 277.77C434.369 277.77 433.787 277.112 433.787 276.014ZM436.184 276.014C436.184 275.088 435.766 274.579 435.168 274.579C434.571 274.579 434.145 275.088 434.145 276.014C434.145 276.941 434.563 277.449 435.168 277.449C435.773 277.449 436.184 276.933 436.184 276.014V276.014Z" fill="#E0E0E0"/>
<path d="M442.568 272.473C442.295 272.473 442.025 272.419 441.774 272.315C441.522 272.21 441.293 272.057 441.1 271.864C440.907 271.672 440.755 271.443 440.65 271.191C440.546 270.939 440.492 270.669 440.492 270.396V231.435C440.491 231.162 440.544 230.891 440.648 230.639C440.752 230.386 440.905 230.157 441.098 229.964C441.291 229.771 441.52 229.618 441.772 229.514C442.025 229.41 442.295 229.357 442.568 229.358C442.84 229.358 443.11 229.412 443.361 229.516C443.613 229.621 443.841 229.774 444.033 229.967C444.225 230.16 444.377 230.389 444.481 230.641C444.584 230.893 444.637 231.162 444.636 231.435V270.396C444.636 270.945 444.418 271.472 444.031 271.862C443.643 272.251 443.117 272.471 442.568 272.473V272.473Z" fill="#EBF2F9"/>
<path d="M442.568 272.653C442.295 272.654 442.025 272.601 441.772 272.497C441.52 272.393 441.291 272.24 441.098 272.047C440.905 271.854 440.752 271.624 440.648 271.372C440.544 271.12 440.491 270.849 440.492 270.576V237.554C440.491 237.281 440.544 237.011 440.648 236.759C440.752 236.506 440.905 236.277 441.098 236.084C441.291 235.891 441.52 235.738 441.772 235.634C442.025 235.53 442.295 235.477 442.568 235.478V235.478C442.84 235.478 443.11 235.531 443.361 235.636C443.613 235.74 443.841 235.893 444.033 236.086C444.225 236.279 444.377 236.508 444.481 236.76C444.584 237.012 444.637 237.282 444.636 237.554V270.576C444.637 270.848 444.584 271.118 444.481 271.37C444.377 271.622 444.225 271.851 444.033 272.044C443.841 272.237 443.613 272.39 443.361 272.495C443.11 272.599 442.84 272.653 442.568 272.653V272.653Z" fill="#E0E0E0"/>
<path d="M442.045 277.426V277.74H439.64V277.494L441.082 276.066C441.47 275.678 441.545 275.446 441.545 275.207C441.545 274.811 441.261 274.565 440.731 274.565C440.555 274.553 440.38 274.581 440.217 274.647C440.054 274.713 439.908 274.815 439.79 274.946L439.536 274.729C439.692 274.563 439.883 274.433 440.094 274.348C440.306 274.263 440.533 274.225 440.761 274.236C441.463 274.236 441.911 274.594 441.911 275.17C441.902 275.381 441.846 275.588 441.748 275.775C441.65 275.962 441.512 276.126 441.343 276.253L440.163 277.411L442.045 277.426Z" fill="#E0E0E0"/>
<path d="M442.493 276.014C442.493 274.908 443.068 274.251 443.874 274.251C444.681 274.251 445.256 274.908 445.256 276.014C445.256 277.12 444.673 277.77 443.874 277.77C443.075 277.77 442.493 277.112 442.493 276.014ZM444.89 276.014C444.89 275.088 444.472 274.579 443.874 274.579C443.277 274.579 442.851 275.088 442.851 276.014C442.851 276.941 443.269 277.449 443.874 277.449C444.479 277.449 444.89 276.933 444.89 276.014Z" fill="#E0E0E0"/>
<path d="M450.863 272.473C450.589 272.476 450.316 272.424 450.062 272.321C449.807 272.218 449.576 272.066 449.381 271.872C449.186 271.679 449.031 271.449 448.925 271.196C448.819 270.942 448.765 270.67 448.765 270.396V231.435C448.764 231.162 448.817 230.891 448.921 230.639C449.025 230.386 449.178 230.157 449.371 229.964C449.564 229.771 449.793 229.618 450.045 229.514C450.297 229.41 450.568 229.357 450.841 229.358V229.358C451.391 229.358 451.919 229.577 452.308 229.966C452.698 230.356 452.916 230.884 452.916 231.435V270.396C452.914 270.942 452.698 271.466 452.314 271.854C451.93 272.243 451.409 272.465 450.863 272.473V272.473Z" fill="#EBF2F9"/>
<path d="M450.863 272.652C450.588 272.656 450.315 272.605 450.06 272.503C449.805 272.4 449.574 272.247 449.378 272.054C449.183 271.861 449.028 271.63 448.923 271.376C448.817 271.123 448.764 270.85 448.765 270.575V251.412C448.764 251.139 448.817 250.869 448.921 250.616C449.025 250.364 449.177 250.134 449.37 249.941C449.563 249.748 449.793 249.595 450.045 249.491C450.297 249.387 450.567 249.334 450.84 249.335V249.335C451.115 249.332 451.387 249.384 451.642 249.487C451.896 249.59 452.127 249.743 452.323 249.936C452.518 250.129 452.673 250.359 452.778 250.612C452.884 250.866 452.938 251.138 452.938 251.412V270.59C452.934 271.138 452.714 271.663 452.325 272.049C451.936 272.435 451.411 272.652 450.863 272.652Z" fill="#E0E0E0"/>
<path d="M450.318 276.746C450.318 277.329 449.899 277.77 449.063 277.77C448.607 277.785 448.161 277.628 447.816 277.329L447.995 277.045C448.284 277.316 448.668 277.461 449.063 277.449C449.638 277.449 449.952 277.18 449.952 276.746C449.952 276.313 449.66 276.059 449.018 276.059H448.764V275.798L449.735 274.572H447.965V274.258H450.206V274.572L449.22 275.798C449.952 275.805 450.318 276.194 450.318 276.746Z" fill="#E0E0E0"/>
<path d="M450.818 276.014C450.818 274.908 451.4 274.251 452.199 274.251C452.998 274.251 453.581 274.908 453.581 276.014C453.581 277.12 452.998 277.77 452.199 277.77C451.4 277.77 450.818 277.112 450.818 276.014ZM453.215 276.014C453.215 275.088 452.804 274.579 452.199 274.579C451.594 274.579 451.176 275.088 451.176 276.014C451.176 276.941 451.594 277.449 452.199 277.449C452.804 277.449 453.245 276.933 453.245 276.014H453.215Z" fill="#E0E0E0"/>
<path d="M459.158 272.473C458.608 272.473 458.08 272.254 457.69 271.864C457.301 271.475 457.083 270.947 457.083 270.396V231.435C457.082 231.162 457.135 230.891 457.239 230.639C457.342 230.386 457.495 230.157 457.688 229.964C457.881 229.771 458.11 229.618 458.363 229.514C458.615 229.41 458.885 229.357 459.158 229.358V229.358C459.709 229.358 460.237 229.577 460.626 229.966C461.015 230.356 461.234 230.884 461.234 231.435V270.396C461.232 270.946 461.013 271.473 460.624 271.862C460.235 272.251 459.708 272.471 459.158 272.473V272.473Z" fill="#EBF2F9"/>
<path d="M459.158 272.653C458.885 272.654 458.615 272.601 458.363 272.497C458.11 272.393 457.881 272.24 457.688 272.047C457.495 271.854 457.342 271.624 457.239 271.372C457.135 271.12 457.082 270.849 457.083 270.576V237.554C457.082 237.281 457.135 237.011 457.239 236.759C457.342 236.506 457.495 236.277 457.688 236.084C457.881 235.891 458.11 235.738 458.363 235.634C458.615 235.53 458.885 235.477 459.158 235.478V235.478C459.709 235.478 460.237 235.696 460.626 236.086C461.015 236.475 461.234 237.004 461.234 237.554V270.576C461.234 270.849 461.18 271.119 461.076 271.371C460.972 271.623 460.819 271.852 460.626 272.045C460.433 272.237 460.204 272.39 459.953 272.495C459.701 272.599 459.431 272.653 459.158 272.653V272.653Z" fill="#E0E0E0"/>
<path d="M459.173 276.814H458.471V277.718H458.12V276.814H456.171V276.552L458.008 274.258H458.404L456.634 276.5H458.127V275.7H458.471V276.5H459.165L459.173 276.814Z" fill="#E0E0E0"/>
<path d="M459.494 276.014C459.494 274.908 460.076 274.251 460.875 274.251C461.674 274.251 462.264 274.908 462.264 276.014C462.264 277.12 461.674 277.77 460.875 277.77C460.076 277.77 459.494 277.112 459.494 276.014ZM461.898 276.014C461.898 275.088 461.48 274.579 460.875 274.579C460.271 274.579 459.86 275.088 459.86 276.014C459.86 276.941 460.271 277.449 460.875 277.449C461.48 277.449 461.898 276.933 461.898 276.014Z" fill="#E0E0E0"/>
<path d="M467.431 272.473C466.881 272.473 466.353 272.254 465.963 271.864C465.574 271.475 465.355 270.947 465.355 270.396V231.435C465.354 231.162 465.408 230.891 465.511 230.639C465.615 230.386 465.768 230.157 465.961 229.964C466.154 229.771 466.383 229.618 466.636 229.514C466.888 229.41 467.158 229.357 467.431 229.358C467.982 229.358 468.51 229.577 468.899 229.966C469.288 230.356 469.507 230.884 469.507 231.435V270.396C469.505 270.946 469.286 271.473 468.897 271.862C468.508 272.251 467.981 272.471 467.431 272.473V272.473Z" fill="#EBF2F9"/>
<path d="M467.431 272.652C467.158 272.653 466.888 272.6 466.635 272.496C466.383 272.392 466.154 272.239 465.961 272.046C465.768 271.853 465.615 271.623 465.511 271.371C465.407 271.119 465.354 270.848 465.355 270.575V243.881C465.354 243.608 465.407 243.338 465.511 243.085C465.615 242.833 465.768 242.604 465.961 242.411C466.154 242.218 466.383 242.065 466.635 241.961C466.888 241.857 467.158 241.803 467.431 241.804V241.804C467.981 241.804 468.509 242.023 468.899 242.413C469.288 242.802 469.507 243.331 469.507 243.881V270.575C469.507 270.848 469.453 271.118 469.349 271.37C469.244 271.622 469.091 271.851 468.899 272.044C468.706 272.237 468.477 272.389 468.225 272.494C467.973 272.598 467.704 272.652 467.431 272.652V272.652Z" fill="#E0E0E0"/>
<path d="M467.267 276.724C467.267 277.314 466.856 277.77 466.012 277.77C465.558 277.785 465.115 277.628 464.772 277.329L464.944 277.045C465.231 277.314 465.612 277.459 466.005 277.449C466.595 277.449 466.908 277.157 466.908 276.739C466.908 276.321 466.632 275.992 465.751 275.992H465.004L465.183 274.258H467.08V274.572H465.504L465.385 275.678H465.833C466.871 275.7 467.267 276.111 467.267 276.724Z" fill="#E0E0E0"/>
<path d="M467.715 276.014C467.715 274.908 468.297 274.251 469.096 274.251C469.895 274.251 470.478 274.908 470.478 276.014C470.478 277.12 469.895 277.77 469.096 277.77C468.297 277.77 467.715 277.112 467.715 276.014ZM470.112 276.014C470.112 275.088 469.701 274.579 469.096 274.579C468.491 274.579 468.081 275.088 468.081 276.014C468.081 276.941 468.491 277.449 469.096 277.449C469.701 277.449 470.112 276.933 470.112 276.014V276.014Z" fill="#E0E0E0"/>
<path d="M475.749 272.473C475.199 272.471 474.672 272.251 474.283 271.862C473.894 271.473 473.675 270.946 473.673 270.396V231.435C473.673 230.884 473.892 230.356 474.281 229.966C474.67 229.577 475.198 229.358 475.749 229.358C476.021 229.357 476.292 229.41 476.544 229.514C476.796 229.618 477.026 229.771 477.218 229.964C477.411 230.157 477.564 230.386 477.668 230.639C477.772 230.891 477.825 231.162 477.824 231.435V270.396C477.824 270.947 477.606 271.475 477.216 271.864C476.827 272.254 476.299 272.473 475.749 272.473Z" fill="#EBF2F9"/>
<path d="M475.749 272.473C475.226 272.48 474.721 272.288 474.335 271.935C473.95 271.583 473.713 271.096 473.673 270.575V251.412C473.658 251.128 473.7 250.843 473.797 250.575C473.894 250.307 474.043 250.061 474.237 249.852C474.431 249.643 474.664 249.475 474.924 249.358C475.183 249.241 475.464 249.178 475.749 249.171V249.171C476.021 249.17 476.292 249.223 476.544 249.327C476.796 249.431 477.026 249.584 477.219 249.777C477.411 249.97 477.564 250.199 477.668 250.452C477.772 250.704 477.825 250.975 477.824 251.248V270.433C477.814 270.978 477.591 271.496 477.203 271.878C476.815 272.259 476.293 272.473 475.749 272.473Z" fill="#E0E0E0"/>
<path d="M475.48 276.709C475.477 276.859 475.444 277.006 475.382 277.142C475.32 277.278 475.23 277.4 475.118 277.5C475.007 277.599 474.876 277.675 474.734 277.721C474.591 277.768 474.441 277.785 474.292 277.77C473.374 277.77 472.874 277.135 472.874 276.044C472.874 274.953 473.516 274.251 474.457 274.251C474.742 274.237 475.026 274.302 475.278 274.438L475.136 274.722C474.931 274.608 474.698 274.554 474.464 274.565C473.717 274.565 473.239 275.043 473.239 275.984C473.233 276.076 473.233 276.169 473.239 276.261C473.338 276.07 473.49 275.913 473.678 275.808C473.865 275.703 474.078 275.655 474.292 275.67C474.44 275.651 474.59 275.664 474.733 275.707C474.876 275.751 475.008 275.824 475.12 275.922C475.232 276.02 475.322 276.141 475.384 276.277C475.446 276.413 475.479 276.56 475.48 276.709V276.709ZM475.129 276.709C475.129 276.253 474.793 275.962 474.255 275.962C474.147 275.949 474.038 275.959 473.934 275.991C473.83 276.022 473.733 276.074 473.65 276.144C473.567 276.214 473.499 276.3 473.45 276.397C473.401 276.494 473.373 276.601 473.366 276.709C473.366 277.09 473.68 277.456 474.277 277.456C474.383 277.471 474.491 277.463 474.594 277.433C474.696 277.403 474.791 277.351 474.872 277.281C474.952 277.21 475.017 277.124 475.061 277.026C475.106 276.929 475.129 276.823 475.129 276.717V276.709Z" fill="#E0E0E0"/>
<path d="M475.883 276.014C475.883 274.908 476.465 274.251 477.264 274.251C478.063 274.251 478.646 274.908 478.646 276.014C478.646 277.12 478.063 277.77 477.264 277.77C476.465 277.77 475.883 277.112 475.883 276.014ZM478.28 276.014C478.28 275.088 477.869 274.579 477.264 274.579C476.659 274.579 476.249 275.088 476.249 276.014C476.249 276.941 476.659 277.449 477.264 277.449C477.869 277.449 478.28 276.933 478.28 276.014V276.014Z" fill="#E0E0E0"/>
<path d="M484.044 272.473C483.495 272.471 482.968 272.251 482.579 271.862C482.19 271.473 481.971 270.946 481.969 270.396V231.435C481.969 230.884 482.187 230.356 482.577 229.966C482.966 229.577 483.494 229.358 484.044 229.358C484.592 229.362 485.115 229.583 485.5 229.972C485.885 230.361 486.1 230.887 486.098 231.435V270.396C486.098 270.943 485.882 271.468 485.498 271.857C485.113 272.245 484.591 272.467 484.044 272.473V272.473Z" fill="#EBF2F9"/>
<path d="M484.044 272.653C483.494 272.653 482.966 272.434 482.577 272.044C482.187 271.655 481.969 271.126 481.969 270.576V235.574C481.967 235.3 482.019 235.029 482.122 234.775C482.226 234.521 482.378 234.29 482.571 234.096C482.764 233.902 482.994 233.747 483.246 233.642C483.499 233.537 483.77 233.482 484.044 233.482V233.482C484.316 233.484 484.586 233.54 484.836 233.646C485.087 233.753 485.314 233.907 485.505 234.102C485.696 234.296 485.846 234.526 485.948 234.779C486.05 235.032 486.1 235.302 486.098 235.574V270.576C486.1 271.123 485.885 271.649 485.5 272.039C485.115 272.428 484.591 272.649 484.044 272.653Z" fill="#E0E0E0"/>
<path d="M483.603 274.281V274.572L482.155 277.778H481.766L483.193 274.572H481.415V275.222H481.064V274.258L483.603 274.281Z" fill="#E0E0E0"/>
<path d="M483.969 276.014C483.969 274.908 484.552 274.251 485.351 274.251C486.15 274.251 486.74 274.908 486.74 276.014C486.74 277.12 486.15 277.77 485.351 277.77C484.552 277.77 483.969 277.112 483.969 276.014ZM486.374 276.014C486.374 275.088 485.956 274.579 485.351 274.579C484.746 274.579 484.335 275.088 484.335 276.014C484.335 276.941 484.746 277.449 485.351 277.449C485.956 277.449 486.374 276.933 486.374 276.014Z" fill="#E0E0E0"/>
<path d="M492.34 272.473C491.79 272.471 491.263 272.251 490.874 271.862C490.485 271.473 490.266 270.946 490.264 270.396V231.435C490.264 230.884 490.483 230.356 490.872 229.966C491.261 229.577 491.789 229.358 492.34 229.358C492.612 229.357 492.883 229.41 493.135 229.514C493.387 229.618 493.617 229.771 493.81 229.964C494.002 230.157 494.155 230.386 494.259 230.639C494.363 230.891 494.416 231.162 494.415 231.435V270.396C494.415 270.947 494.197 271.475 493.807 271.864C493.418 272.254 492.89 272.473 492.34 272.473Z" fill="#EBF2F9"/>
<path d="M492.339 272.652C491.789 272.652 491.261 272.433 490.872 272.044C490.482 271.654 490.264 271.126 490.264 270.575V255.349C490.264 254.799 490.482 254.27 490.872 253.881C491.261 253.491 491.789 253.272 492.339 253.272C492.612 253.271 492.883 253.325 493.135 253.429C493.387 253.533 493.616 253.686 493.809 253.879C494.002 254.072 494.155 254.301 494.259 254.553C494.363 254.806 494.416 255.076 494.415 255.349V270.575C494.416 270.848 494.363 271.119 494.259 271.371C494.155 271.624 494.002 271.853 493.809 272.046C493.616 272.239 493.387 272.392 493.135 272.496C492.883 272.6 492.612 272.653 492.339 272.652V272.652Z" fill="#E0E0E0"/>
<path d="M491.928 276.814C491.928 277.426 491.413 277.807 490.584 277.807C489.755 277.807 489.248 277.426 489.248 276.814C489.247 276.617 489.314 276.425 489.436 276.271C489.557 276.116 489.728 276.007 489.92 275.962C489.758 275.917 489.616 275.818 489.518 275.683C489.419 275.547 489.368 275.382 489.375 275.215C489.375 274.654 489.852 274.303 490.584 274.303C491.316 274.303 491.801 274.654 491.801 275.215C491.807 275.383 491.756 275.549 491.655 275.685C491.555 275.82 491.412 275.918 491.249 275.962C491.442 276.006 491.614 276.114 491.738 276.269C491.861 276.423 491.928 276.616 491.928 276.814V276.814ZM491.562 276.814C491.562 276.388 491.197 276.119 490.584 276.119C489.972 276.119 489.606 276.388 489.606 276.814C489.606 277.239 489.972 277.508 490.584 277.508C491.197 277.508 491.562 277.202 491.562 276.814V276.814ZM490.577 275.797C491.114 275.797 491.436 275.558 491.436 275.177C491.436 274.796 491.1 274.572 490.577 274.572C490.054 274.572 489.718 274.811 489.718 275.2C489.718 275.588 490.047 275.797 490.577 275.797Z" fill="#E0E0E0"/>
<path d="M492.421 276.014C492.421 274.908 492.996 274.251 493.803 274.251C494.609 274.251 495.184 274.908 495.184 276.014C495.184 277.12 494.602 277.77 493.803 277.77C493.004 277.77 492.421 277.112 492.421 276.014ZM494.818 276.014C494.818 275.088 494.4 274.579 493.803 274.579C493.205 274.579 492.78 275.088 492.78 276.014C492.78 276.941 493.198 277.449 493.803 277.449C494.408 277.449 494.818 276.933 494.818 276.014V276.014Z" fill="#E0E0E0"/>
<path d="M500.635 272.473C500.085 272.471 499.559 272.251 499.172 271.862C498.784 271.472 498.566 270.945 498.566 270.396V231.435C498.565 231.162 498.618 230.893 498.722 230.641C498.825 230.389 498.977 230.16 499.17 229.967C499.362 229.774 499.59 229.621 499.841 229.516C500.093 229.412 500.362 229.358 500.635 229.358V229.358C500.908 229.357 501.178 229.41 501.43 229.514C501.682 229.618 501.912 229.771 502.105 229.964C502.298 230.157 502.45 230.386 502.554 230.639C502.658 230.891 502.711 231.162 502.71 231.435V270.396C502.71 270.947 502.492 271.475 502.102 271.864C501.713 272.254 501.185 272.473 500.635 272.473V272.473Z" fill="#EBF2F9"/>
<path d="M500.635 272.473C500.113 272.48 499.609 272.287 499.224 271.935C498.84 271.582 498.604 271.096 498.566 270.575V265.241C498.55 264.957 498.591 264.672 498.688 264.404C498.784 264.136 498.933 263.89 499.126 263.681C499.319 263.472 499.552 263.304 499.811 263.187C500.07 263.07 500.35 263.006 500.635 263V263C500.907 262.999 501.178 263.052 501.43 263.156C501.682 263.26 501.912 263.413 502.105 263.606C502.297 263.799 502.45 264.028 502.554 264.28C502.658 264.533 502.711 264.803 502.71 265.076V270.418C502.704 270.965 502.483 271.488 502.094 271.872C501.706 272.257 501.181 272.473 500.635 272.473V272.473Z" fill="#E0E0E0"/>
<path d="M500.015 275.984C500.015 277.158 499.373 277.77 498.432 277.77C498.146 277.784 497.862 277.719 497.61 277.583L497.752 277.299C497.955 277.418 498.189 277.475 498.424 277.464C499.171 277.464 499.649 276.978 499.649 276.044C499.649 275.962 499.649 275.865 499.649 275.76C499.548 275.951 499.394 276.108 499.206 276.213C499.018 276.318 498.803 276.365 498.588 276.351C498.442 276.367 498.293 276.353 498.152 276.309C498.011 276.264 497.882 276.191 497.771 276.093C497.66 275.995 497.572 275.875 497.51 275.74C497.449 275.606 497.417 275.46 497.416 275.312C497.418 275.162 497.452 275.015 497.514 274.879C497.576 274.743 497.666 274.621 497.777 274.521C497.889 274.422 498.02 274.346 498.162 274.3C498.304 274.253 498.454 274.236 498.603 274.251C499.537 274.251 500.015 274.886 500.015 275.984ZM499.537 275.319C499.537 274.938 499.223 274.572 498.626 274.572C498.519 274.557 498.411 274.565 498.308 274.596C498.205 274.627 498.11 274.679 498.029 274.75C497.948 274.821 497.883 274.909 497.839 275.007C497.796 275.105 497.773 275.212 497.774 275.319C497.774 275.775 498.118 276.067 498.648 276.067C498.756 276.079 498.865 276.069 498.969 276.038C499.073 276.007 499.17 275.954 499.253 275.884C499.336 275.814 499.404 275.728 499.453 275.631C499.502 275.534 499.53 275.428 499.537 275.319V275.319Z" fill="#E0E0E0"/>
<path d="M500.522 276.014C500.522 274.908 501.105 274.251 501.904 274.251C502.703 274.251 503.293 274.908 503.293 276.014C503.293 277.12 502.703 277.77 501.904 277.77C501.105 277.77 500.522 277.113 500.522 276.014ZM502.927 276.014C502.927 275.088 502.509 274.58 501.904 274.58C501.299 274.58 500.888 275.088 500.888 276.014C500.888 276.941 501.299 277.449 501.904 277.449C502.509 277.449 502.927 276.933 502.927 276.014V276.014Z" fill="#E0E0E0"/>
<path d="M508.937 272.473C508.387 272.473 507.859 272.254 507.469 271.864C507.08 271.475 506.861 270.947 506.861 270.396V231.435C506.86 231.162 506.913 230.891 507.017 230.639C507.121 230.386 507.274 230.157 507.467 229.964C507.66 229.771 507.889 229.618 508.142 229.514C508.394 229.41 508.664 229.357 508.937 229.358C509.488 229.358 510.015 229.577 510.405 229.966C510.794 230.356 511.013 230.884 511.013 231.435V270.396C511.011 270.946 510.791 271.473 510.403 271.862C510.014 272.251 509.487 272.471 508.937 272.473V272.473Z" fill="#EBF2F9"/>
<path d="M508.937 272.473C508.414 272.482 507.908 272.29 507.521 271.937C507.135 271.584 506.899 271.097 506.861 270.575V251.412C506.845 251.127 506.886 250.842 506.983 250.574C507.079 250.305 507.229 250.059 507.423 249.85C507.617 249.641 507.851 249.473 508.111 249.356C508.371 249.239 508.652 249.176 508.937 249.171V249.171C509.487 249.171 510.015 249.39 510.404 249.779C510.794 250.169 511.012 250.697 511.012 251.248V270.433C511.001 270.977 510.777 271.495 510.389 271.876C510.002 272.257 509.48 272.471 508.937 272.473V272.473Z" fill="#E0E0E0"/>
<path d="M505.958 274.281V277.74H505.607V274.572H504.763V274.258L505.958 274.281Z" fill="#E0E0E0"/>
<path d="M506.787 276.014C506.787 274.908 507.362 274.251 508.168 274.251C508.975 274.251 509.55 274.908 509.55 276.014C509.55 277.12 508.967 277.77 508.168 277.77C507.369 277.77 506.787 277.112 506.787 276.014ZM509.184 276.014C509.184 275.088 508.766 274.579 508.168 274.579C507.571 274.579 507.145 275.088 507.145 276.014C507.145 276.941 507.563 277.449 508.168 277.449C508.773 277.449 509.184 276.933 509.184 276.014V276.014Z" fill="#E0E0E0"/>
<path d="M510.057 276.014C510.057 274.908 510.632 274.251 511.439 274.251C512.245 274.251 512.82 274.908 512.82 276.014C512.82 277.12 512.238 277.77 511.439 277.77C510.64 277.77 510.057 277.112 510.057 276.014ZM512.454 276.014C512.454 275.088 512.036 274.579 511.439 274.579C510.841 274.579 510.416 275.088 510.416 276.014C510.416 276.941 510.834 277.449 511.439 277.449C512.044 277.449 512.454 276.933 512.454 276.014Z" fill="#E0E0E0"/>
</g>
<defs>
<filter id="filter0_f" x="191.5" y="361" width="188.534" height="149.397" filterUnits="userSpaceOnUse" color-interpolation-filters="sRGB">
<feFlood flood-opacity="0" result="BackgroundImageFix"/>
<feBlend mode="normal" in="SourceGraphic" in2="BackgroundImageFix" result="shape"/>
<feGaussianBlur stdDeviation="1" result="effect1_foregroundBlur"/>
</filter>
<linearGradient id="paint0_linear" x1="216.5" y1="369.5" x2="380.745" y2="559.83" gradientUnits="userSpaceOnUse">
<stop stop-color="#B4D1FA" stop-opacity="0"/>
<stop offset="1" stop-opacity="0.2"/>
</linearGradient>
<clipPath id="clip0">
<rect width="720" height="510" fill="white"/>
</clipPath>
</defs>
</svg>
