<svg width="59" height="58" fill="none" xmlns="http://www.w3.org/2000/svg"><g filter="url(#filter0_d)"><path d="M21.062 24.523h-2.4c-.883 0-1.599.715-1.599 1.597v11.314c0 .882.716 1.596 1.6 1.596h2.399c.883 0 1.599-.715 1.599-1.596V26.12c0-.882-.716-1.597-1.6-1.597z" fill="#D6516B"/><path d="M28.76 18.154h-2.4c-.883 0-1.6.72-1.6 1.609v17.659c0 .888.717 1.609 1.6 1.609h2.4c.883 0 1.599-.72 1.599-1.61V19.764c0-.889-.716-1.61-1.6-1.61z" fill="#C43B55"/><path d="M36.456 14.969h-2.4c-.883 0-1.599.721-1.599 1.611v20.84c0 .89.716 1.61 1.6 1.61h2.399c.883 0 1.599-.72 1.599-1.61V16.58c0-.89-.716-1.611-1.6-1.611z" fill="#A62E41"/><path d="M5.516 27a22.99 22.99 0 015.105-14.559 22.717 22.717 0 0113.126-7.986 22.609 22.609 0 0115.177 2.22 22.839 22.839 0 0110.327 11.414m0 0L51 12.441m-1.75 5.648l-5.452-2.206" stroke="#F985A0" stroke-width="4" stroke-miterlimit="10" stroke-linecap="round" stroke-linejoin="round"/><path d="M5.516 35.572l.87-1.801a2 2 0 00-2.821 1.363l1.951.438zm-3.468 6.324a2 2 0 003.904.875l-3.904-.875zm8.663-1.595a2 2 0 101.74-3.602L10.71 40.3zm-7.056-3.996a24.815 24.815 0 0011.086 12.642l1.933-3.502a20.814 20.814 0 01-9.297-10.606l-3.722 1.466zm11.086 12.642a24.486 24.486 0 0016.546 2.596l-.77-3.925a20.481 20.481 0 01-13.843-2.173l-1.933 3.502zm16.546 2.596a24.632 24.632 0 0014.374-8.653l-3.104-2.522a20.63 20.63 0 01-12.04 7.25l.77 3.925zm14.374-8.653a25.016 25.016 0 005.59-15.9l-4 .02a21.015 21.015 0 01-4.694 13.358l3.104 2.522zM3.565 35.134l-1.517 6.762 3.904.875 1.516-6.761-3.903-.876zm1.082 2.24L10.71 40.3l1.74-3.602-6.065-2.928-1.74 3.602z" fill="#F985A0"/></g><defs><filter id="filter0_d" x="0" y="0" width="59.001" height="58" filterUnits="userSpaceOnUse" color-interpolation-filters="sRGB"><feFlood flood-opacity="0" result="BackgroundImageFix"/><feColorMatrix in="SourceAlpha" values="0 0 0 0 0 0 0 0 0 0 0 0 0 0 0 0 0 0 127 0"/><feOffset dx="2" dy="2"/><feGaussianBlur stdDeviation="2"/><feColorMatrix values="0 0 0 0 0 0 0 0 0 0 0 0 0 0 0 0 0 0 0.15 0"/><feBlend in2="BackgroundImageFix" result="effect1_dropShadow"/><feBlend in="SourceGraphic" in2="effect1_dropShadow" result="shape"/></filter></defs></svg>