<svg width="32" height="33" fill="none" xmlns="http://www.w3.org/2000/svg"><g clip-path="url(#clip0)"><path d="M19.55 19.32l-1.11-1.108 1.123-1.345.887.888.892-.005 5.544 5.768-2.242 2.242-5.544-5.768.45-.671z" fill="#AAA"/><path fill-rule="evenodd" clip-rule="evenodd" d="M13.177 5.508C9.816 5.54 7.073 8.3 7.049 11.67a5.973 5.973 0 006.043 6.045c3.36-.033 6.103-2.792 6.127-6.163a6.01 6.01 0 00-.899-3.223.404.404 0 01.13-.552.395.395 0 01.55.121 6.802 6.802 0 011.017 3.646c-.027 3.813-3.13 6.934-6.931 6.971a6.756 6.756 0 01-6.835-6.837c.027-3.813 3.13-6.935 6.931-6.972a6.745 6.745 0 013.838 1.141c.182.122.229.37.104.555a.401.401 0 01-.555.113 5.96 5.96 0 00-3.392-1.008z" fill="#0A3D76"/><path fill-rule="evenodd" clip-rule="evenodd" d="M13.08 19.318c4.242-.041 7.705-3.525 7.734-7.78a7.54 7.54 0 00-7.627-7.63c-4.242.041-7.705 3.524-7.734 7.78a7.586 7.586 0 001.134 4.067.405.405 0 01-.13.553.395.395 0 01-.55-.122 8.379 8.379 0 01-1.252-4.49c.032-4.698 3.855-8.543 8.538-8.588a8.323 8.323 0 018.42 8.422c-.033 4.698-3.856 8.543-8.539 8.588a8.309 8.309 0 01-4.728-1.405.398.398 0 01-.104-.555.401.401 0 01.555-.113 7.524 7.524 0 004.283 1.273z" fill="#0A3D76"/><path fill-rule="evenodd" clip-rule="evenodd" d="M19.508 16.365l1.185 1.19.296-.046c.436-.066.874.077 1.183.386l4.616 4.631c.308.31.45.749.385 1.186l-.025.165c-.045.3-.186.58-.401.796l-.806.808a1.422 1.422 0 01-.794.403l-.165.025a1.375 1.375 0 01-1.181-.386l-4.617-4.631a1.384 1.384 0 01-.385-1.186l.045-.297-1.185-1.189 1.849-1.855zm.135 3.084l-.055.364a.593.593 0 00.165.508l4.617 4.631c.132.133.32.194.506.166l.165-.025a.61.61 0 00.34-.173l.806-.809a.612.612 0 00.172-.34l.025-.166a.593.593 0 00-.165-.508l-4.617-4.63a.59.59 0 00-.506-.166l-.363.055-1.09 1.093zm.34-1.464l-.485-.488-.71.714.485.487.71-.713z" fill="#0A3D76"/><path d="M11.37 11.695c-.337.184-.633 0-.633.737v1.796l.633.633.634-.633v-1.693c-.118-.422-.265-.6-.633-.84zm1.583-.316l-.316.465v2.7l.308.317h.325l.633-.633-.03-2.274c.053-.126-.104-.505-.287-.575-.213-.248-.36-.192-.633 0zm2.217-1.582l-.607.464-.027 3.968.633.634.633-.634v-3.968l-.316-.147-.317-.317z" fill="#AAA"/><path fill-rule="evenodd" clip-rule="evenodd" d="M15.498 7.9a.159.159 0 01.105.084l.183.366a.159.159 0 01-.07.213.158.158 0 01-.213-.07c-.37 1.113-1.146 1.87-1.984 2.367a6.292 6.292 0 01-2.613.835.158.158 0 01-.022-.316 5.979 5.979 0 002.474-.792c.771-.457 1.47-1.137 1.82-2.122a.158.158 0 01-.208-.04.159.159 0 01.032-.222l.365-.275a.157.157 0 01.131-.028z" fill="#0A3D76"/><path fill-rule="evenodd" clip-rule="evenodd" d="M14.536 10.3c0-.278.216-.504.481-.504h.305c.265 0 .48.226.48.505v1.94a.134.134 0 01-.13.138.134.134 0 01-.132-.138v-1.94a.224.224 0 00-.218-.23h-.305a.224.224 0 00-.218.23v4.055c0 .127.097.23.218.23h.305c.12 0 .218-.103.218-.23V12.72c0-.076.059-.138.131-.138.073 0 .131.062.131.138v1.636a.493.493 0 01-.48.505h-.305a.493.493 0 01-.48-.505V10.3zm-1.899 1.292c0-.292.215-.529.48-.529h.305c.266 0 .481.237.481.529v2.741c0 .292-.215.529-.481.529h-.373c-.228 0-.412-.203-.412-.453 0-.08.058-.144.13-.144.073 0 .132.065.132.144 0 .091.067.165.15.165h.373c.12 0 .219-.108.219-.24v-2.742c0-.133-.098-.24-.219-.24h-.304c-.121 0-.219.107-.219.24V14.1c0 .08-.059.144-.131.144-.073 0-.131-.064-.131-.144v-2.51zm-1.9.606c0-.278.207-.503.462-.503h.324c.265 0 .48.234.48.524v2.118c0 .29-.215.524-.48.524h-.305c-.265 0-.48-.235-.48-.524v-1.78c0-.078.058-.142.13-.142.073 0 .132.064.132.143v1.78c0 .13.098.237.218.237h.305c.12 0 .218-.106.218-.238V12.22c0-.132-.098-.238-.218-.238h-.324c-.11 0-.2.097-.2.217 0 .079-.058.143-.13.143-.073 0-.132-.064-.132-.143z" fill="#0A3D76"/></g><defs><clipPath id="clip0"><path fill="#fff" transform="translate(0 .062)" d="M0 0h32v32H0z"/></clipPath></defs></svg>