<svg width="33" height="33" fill="none" xmlns="http://www.w3.org/2000/svg"><g filter="url(#filter0_d)" clip-path="url(#clip0)"><path d="M7.433 13.35l9.23-4.035 9.36 4.035-9.36 3.95-9.23-3.95z" fill="url(#paint0_radial)"/><path fill-rule="evenodd" clip-rule="evenodd" d="M29.256 16.599l-3.085-3.13 2.967-3.21-9.445-3.768-3.05 2.912-3.02-2.912-9.426 3.771 2.954 3.186-2.838 3.15 2.643 1.097v6.585l9.687 3.193 9.621-3.193v-6.482l2.992-1.2zM7.15 13.449l9.492 3.837 9.528-3.818-9.528-4.065c-2.897 1.253-9.492 4.045-9.492 4.045z" fill="url(#paint1_linear)"/><path d="M7.151 13.448s6.595-2.792 9.492-4.045m-9.492 4.045l9.492 3.838m-9.492-3.838l-2.838 3.15 2.643 1.097m.195-4.247l-2.954-3.186 9.426-3.771 3.02 2.912m0 0l9.528 4.065m-9.528-4.065l3.05-2.912 9.445 3.769-2.967 3.208m0 0l-9.528 3.818m9.528-3.818l3.085 3.13-2.992 1.2m-9.621-.512l3.032 3.153 6.59-2.641m-9.622-.512l-3.072 3.153-6.615-2.744m9.687-.41v10.188m-9.687-9.778v6.585l9.687 3.193m0 0l9.621-3.193v-6.482" stroke="#0A3D76" stroke-width=".7" stroke-linejoin="round"/></g><defs><radialGradient id="paint0_radial" cx="0" cy="0" r="1" gradientUnits="userSpaceOnUse" gradientTransform="matrix(0 3.32712 -7.74562 0 16.728 13.308)"><stop stop-color="#0052AD"/><stop offset="1" stop-color="#0A3D76"/></radialGradient><linearGradient id="paint1_linear" x1="28.483" y1="16.982" x2="4.943" y2="16.379" gradientUnits="userSpaceOnUse"><stop stop-color="#A62E41"/><stop offset="1" stop-color="#E13152"/></linearGradient><clipPath id="clip0"><path fill="#fff" transform="translate(.727 .982)" d="M0 0h32v32H0z"/></clipPath><filter id="filter0_d" x="-.153" y="4.141" width="33.758" height="29.682" filterUnits="userSpaceOnUse" color-interpolation-filters="sRGB"><feFlood flood-opacity="0" result="BackgroundImageFix"/><feColorMatrix in="SourceAlpha" values="0 0 0 0 0 0 0 0 0 0 0 0 0 0 0 0 0 0 127 0"/><feOffset dy="2"/><feGaussianBlur stdDeviation="2"/><feColorMatrix values="0 0 0 0 0.854902 0 0 0 0 0.192157 0 0 0 0 0.313726 0 0 0 0.3 0"/><feBlend in2="BackgroundImageFix" result="effect1_dropShadow"/><feBlend in="SourceGraphic" in2="effect1_dropShadow" result="shape"/></filter></defs></svg>