<svg width="32" height="32" fill="none" xmlns="http://www.w3.org/2000/svg"><path d="M3.015 24.486l3.552-7.4c1.388-.261 1.747-.066 2.23.406L5.141 24.99l-2.127-.504z" fill="url(#paint0_linear)"/><path d="M15.89 16.073c3.08-3.729 6.822-2.634 8.308-1.62l2.027-2.433c-2.635-2.094-8.877-4.54-12.768 2.432l2.432 1.621z" fill="url(#paint1_linear)"/><path fill-rule="evenodd" clip-rule="evenodd" d="M7.118 5.335c1.773-.69 3.805-.733 5.191-.565a.667.667 0 01.586.665v18.958a.673.673 0 01-.673.672h-1.57a.673.673 0 01-.674-.672v-6.496h-.507l-3.404 6.796a.673.673 0 01-.602.372H3.292a.672.672 0 01-.59-.997l3.732-6.747c-1.186-.637-2.703-2.227-2.99-5.092l.892-.09c.295 2.93 1.996 4.241 2.875 4.551l.5.176-4.04 7.303h1.655L8.916 17h1.96v7.168h1.122V5.637c-1.281-.128-3.044-.055-4.555.532-1.57.61-2.837 1.758-3.076 3.827l-.892-.103c.287-2.479 1.846-3.86 3.643-4.558zm3.02.937a.67.67 0 01.738.665v8.647a.666.666 0 01-.56.659c-.633.1-1.48.124-2.314-.237-.85-.366-1.626-1.107-2.143-2.426l-.007-.017-.005-.017c-.329-1.084-.521-2.743 0-4.22A4.304 4.304 0 017.27 7.321c.708-.55 1.65-.924 2.868-1.05zm-.16.922c-.951.134-1.649.44-2.158.836a3.41 3.41 0 00-1.126 1.593c-.435 1.231-.285 2.674.007 3.647.441 1.115 1.058 1.655 1.657 1.914.544.235 1.12.258 1.62.2v-8.19z" fill="#0A3D76"/><path fill-rule="evenodd" clip-rule="evenodd" d="M14.158 14.513a.22.22 0 01-.052-.297 7.847 7.847 0 016.527-3.48c1.601 0 3.243.584 4.55 1.457.107.071.127.22.046.32l-1.261 1.57a.232.232 0 01-.311.044 5.367 5.367 0 00-3.024-.927c-1.9 0-3.57.983-4.528 2.466a.233.233 0 01-.334.063l-1.613-1.216zm-.377.84a.217.217 0 00-.333.088c-.385.947-.555 2.004-.555 3.135 0 1.001.118 1.938.413 2.79.05.143.227.188.344.092l1.675-1.378a.23.23 0 00.075-.232 5.38 5.38 0 01.127-2.981.23.23 0 00-.078-.258l-1.668-1.257zm.186 7.005a.22.22 0 00-.05.283 7.85 7.85 0 006.716 3.775c1.834 0 3.52-.627 4.856-1.678a.218.218 0 00-.007-.347l-1.696-1.27a.23.23 0 00-.262-.008 5.367 5.367 0 01-2.891.84 5.385 5.385 0 01-4.82-2.98.085.085 0 00-.13-.027l-1.716 1.412zm12.238 1.455a.22.22 0 00.297-.028 7.824 7.824 0 001.63-2.875.23.23 0 01.279-.154l.432.12a.22.22 0 01.153.276 8.736 8.736 0 01-2.38 3.8 8.727 8.727 0 01-5.983 2.36 8.75 8.75 0 01-7.833-4.84c-.598-1.195-.804-2.525-.804-3.896 0-1.566.303-3.064 1.058-4.368a8.749 8.749 0 017.579-4.368c2.15 0 4.32.926 5.848 2.206a.22.22 0 01.021.314l-.006.008-2.245 2.795-.147.184a.225.225 0 01-.324.027l-.176-.155a4.472 4.472 0 00-2.971-1.123 4.486 4.486 0 00-4.096 2.648 4.457 4.457 0 00-.391 1.832 4.47 4.47 0 00.47 1.998 4.488 4.488 0 004.017 2.482 4.47 4.47 0 003.068-1.21c.372-.35.721-.86.983-1.395a.214.214 0 00-.198-.307H20.41a.224.224 0 01-.225-.224v-3.36c0-.124.1-.224.225-.224h8.51c.106 0 .197.073.22.176l.038.176a8.75 8.75 0 01.204 2.018.22.22 0 01-.23.215l-.448-.018a.23.23 0 01-.218-.233v-.094c0-.393-.029-.78-.085-1.158a.22.22 0 00-.219-.186h-6.875c-.124 0-.224.1-.224.224v1.568c0 .124.1.224.224.224h4.447c.149 0 .256.142.216.285l-.08.285c-.236.83-.727 1.767-1.333 2.435a.235.235 0 00.028.345l1.621 1.215z" fill="#0A3D76"/><defs><linearGradient id="paint0_linear" x1="8.618" y1="20.98" x2="3.185" y2="20.896" gradientUnits="userSpaceOnUse"><stop stop-color="#A62E41"/><stop offset="1" stop-color="#E13152"/></linearGradient><linearGradient id="paint1_linear" x1="25.831" y1="12.955" x2="13.853" y2="12.428" gradientUnits="userSpaceOnUse"><stop stop-color="#A62E41"/><stop offset="1" stop-color="#E13152"/></linearGradient></defs></svg>