<svg width="33" height="33" fill="none" xmlns="http://www.w3.org/2000/svg"><path d="M3.741 25.483l3.553-7.399c1.388-.262 1.747-.067 2.229.406l-3.654 7.498-2.128-.505zm12.875-8.412c3.08-3.729 6.823-2.635 8.309-1.621l2.026-2.432c-2.634-2.094-8.876-4.54-12.767 2.432l2.432 1.621z" fill="#AAA"/><path fill-rule="evenodd" clip-rule="evenodd" d="M7.844 6.332c1.774-.69 3.806-.733 5.192-.564a.667.667 0 01.586.664V25.39a.673.673 0 01-.673.672h-1.571a.673.673 0 01-.673-.672v-6.496h-.508l-3.403 6.797a.673.673 0 01-.602.372H4.018a.672.672 0 01-.589-.997l3.732-6.747c-1.187-.637-2.703-2.227-2.99-5.092l.892-.09c.294 2.93 1.996 4.24 2.875 4.55l.5.177-4.04 7.302h1.655l3.59-7.168h1.96v7.168h1.121V6.635c-1.28-.129-3.043-.056-4.554.532-1.57.61-2.837 1.757-3.077 3.826l-.891-.102c.287-2.48 1.846-3.86 3.642-4.559zm3.02.938a.67.67 0 01.738.665v8.646a.666.666 0 01-.56.66c-.632.1-1.48.123-2.314-.237-.849-.367-1.625-1.107-2.143-2.427l-.006-.016-.005-.017c-.33-1.084-.522-2.744 0-4.221A4.304 4.304 0 017.996 8.32c.708-.55 1.65-.924 2.868-1.05zm-.159.921c-.952.134-1.649.44-2.158.836-.553.43-.91.983-1.127 1.594-.434 1.23-.285 2.673.008 3.646.44 1.115 1.057 1.656 1.657 1.915.544.235 1.12.257 1.62.2v-8.19z" fill="#0A3D76"/><path fill-rule="evenodd" clip-rule="evenodd" d="M14.884 15.51a.22.22 0 01-.052-.296 7.847 7.847 0 016.527-3.48c1.602 0 3.243.584 4.55 1.456a.22.22 0 01.047.32l-1.262 1.571a.232.232 0 01-.31.044 5.367 5.367 0 00-3.024-.928c-1.9 0-3.57.984-4.529 2.466a.233.233 0 01-.334.064l-1.613-1.216zm-.376.84a.217.217 0 00-.334.088c-.384.948-.554 2.005-.554 3.136 0 1 .118 1.938.413 2.79.05.143.226.188.343.091l1.675-1.377a.23.23 0 00.076-.232 5.38 5.38 0 01.126-2.982.23.23 0 00-.078-.257l-1.667-1.257zm.186 7.005a.22.22 0 00-.05.284 7.85 7.85 0 006.716 3.775c1.833 0 3.52-.627 4.856-1.679a.218.218 0 00-.007-.346l-1.697-1.27a.23.23 0 00-.262-.009 5.366 5.366 0 01-2.89.84 5.385 5.385 0 01-4.82-2.979.085.085 0 00-.13-.028l-1.716 1.412zm12.238 1.455a.22.22 0 00.296-.027 7.826 7.826 0 001.63-2.875.23.23 0 01.28-.155l.432.121a.22.22 0 01.152.276 8.736 8.736 0 01-2.38 3.799 8.728 8.728 0 01-5.982 2.36 8.75 8.75 0 01-7.834-4.84c-.597-1.195-.804-2.525-.804-3.895 0-1.566.303-3.064 1.059-4.369a8.749 8.749 0 017.579-4.368c2.15 0 4.32.927 5.848 2.207a.22.22 0 01.021.314l-.006.007-2.245 2.796-.148.183a.225.225 0 01-.323.028l-.177-.156a4.473 4.473 0 00-2.97-1.123 4.486 4.486 0 00-4.096 2.648 4.457 4.457 0 00-.391 1.833 4.469 4.469 0 00.47 1.997 4.488 4.488 0 004.017 2.483 4.47 4.47 0 003.067-1.211c.373-.349.722-.859.984-1.395a.214.214 0 00-.198-.306h-4.078a.224.224 0 01-.224-.224v-3.36c0-.124.1-.224.224-.224h8.511c.105 0 .197.073.22.175l.038.176a8.755 8.755 0 01.204 2.019.22.22 0 01-.23.215l-.448-.018a.23.23 0 01-.219-.233v-.094c0-.394-.028-.78-.084-1.158a.22.22 0 00-.22-.186h-6.874c-.124 0-.225.1-.225.224v1.568c0 .123.1.224.225.224h4.447c.148 0 .256.142.215.285l-.08.285c-.235.829-.727 1.766-1.333 2.435a.235.235 0 00.028.345l1.622 1.214z" fill="#0A3D76"/></svg>