<svg width="33" height="33" fill="none" xmlns="http://www.w3.org/2000/svg"><path d="M21.032 22.36a1.573 1.573 0 00-2.77.994l.375 1.047a1.573 1.573 0 102.395-2.04zm-2.681-8.663a1.573 1.573 0 00-1.596-2.472l-.934.604a1.573 1.573 0 002.53 1.868zm-3.945 3.554a1.573 1.573 0 00-1.597-2.47l-.934.603a1.573 1.573 0 002.531 1.867z" fill="#AAA"/><path d="M28.084 17.813c0 5.211-4.224 9.829-9.436 9.829-.917 0-2.359-.393-2.752-.786-.602-.602 1.712-4.758-4.325-6.291-.786-.262-2.36-1.18-2.36-2.752a9.436 9.436 0 0117.494-4.915" stroke="#0A3D76" stroke-width=".7" stroke-linecap="round" stroke-linejoin="round"/><path d="M11.178 11.129c0-6.29-2.36-6.291-2.36 0v9.436h2.36v-9.436z" fill="#AAA"/><path d="M8.819 11.129c0-6.291 2.359-6.29 2.359 0v9.436m-2.36 0v2.36h2.36v-2.36m-2.36 0h2.36m-2.36 0v-7.47" stroke="#0A3D76" stroke-width=".7" stroke-linecap="round"/><path d="M8.032 26.462c0-2.752.393-3.145 1.966-3.145h1.18c3.145 3.538-1.18 5.898-5.112 5.111 1.573 0 1.966-1.18 1.966-1.966z" fill="#AAA"/><path d="M9.922 28.407c-1.113.429-2.508.543-3.856.256 1.543 0 1.928-1.234 1.928-2.056 0-2.879.386-3.29 1.928-3.29v0c.977 0 2.012.397 2.308 1.328.39 1.221-.166 2.246-.978 2.974" stroke="#0A3D76" stroke-width=".7" stroke-linecap="round" stroke-linejoin="round"/><path d="M17.075 14.274a1.573 1.573 0 10-1.18-.532" stroke="#0A3D76" stroke-width=".7" stroke-linecap="round"/><path d="M21.06 14.681a1.573 1.573 0 002.928.293l.11-1.107a1.573 1.573 0 00-3.038.814zm1.925 3.275a1.573 1.573 0 00.366 2.919l1.103-.138a1.573 1.573 0 10-1.47-2.781z" fill="#AAA"/><path d="M22.58 12.701a1.573 1.573 0 101.04.393m1.712 6.291a1.573 1.573 0 10-.533 1.18m-4.971 4.325a1.573 1.573 0 111.362-.787m-8.047-6.29a1.573 1.573 0 111.32-.717" stroke="#0A3D76" stroke-width=".7" stroke-linecap="round"/></svg>