<svg width="33" height="33" fill="none" xmlns="http://www.w3.org/2000/svg"><path d="M14.1 27.295l.24-2.516h4.553l.24 2.516h-5.032zM3.406 22.262h25.792v2.517H3.406v-2.517z" fill="#AAA"/><path fill-rule="evenodd" clip-rule="evenodd" d="M3.836 7.268a.33.33 0 00-.33.331v14.53h25.592V7.599a.33.33 0 00-.33-.331H3.837zm0-.733h24.932c.585 0 1.06.477 1.06 1.064v16.745c0 .587-.474 1.064-1.06 1.064H8.407a.365.365 0 010-.733h20.362a.33.33 0 00.33-.331V22.86H3.507v1.483a.33.33 0 00.33.331h2.727a.365.365 0 010 .732H3.836a1.062 1.062 0 01-1.059-1.063V7.599a1.062 1.062 0 011.06-1.064z" fill="#0A3D76"/><path fill-rule="evenodd" clip-rule="evenodd" d="M13.744 24.78h5.746l.093 1.077c.016.181-.137.34-.342.354-.204.014-.383-.122-.399-.304l-.04-.467h-4.37l-.158 1.824h4.686l-.027-.307c-.016-.182.137-.341.342-.355.205-.014.384.122.4.304l.087 1.018h-6.29l.272-3.145z" fill="#0A3D76"/><path fill-rule="evenodd" clip-rule="evenodd" d="M12.213 27.61c0-.174.165-.315.369-.315h7.441c.204 0 .368.141.368.315 0 .173-.164.314-.368.314h-7.441c-.204 0-.369-.14-.369-.314z" fill="#0A3D76"/></svg>