<svg width="32" height="32" fill="none" xmlns="http://www.w3.org/2000/svg"><path d="M13.374 26.298l.24-2.516h4.553l.24 2.516h-5.033z" fill="url(#paint0_linear)"/><path d="M2.68 21.265h25.792v2.516H2.68v-2.516z" fill="url(#paint1_linear)"/><path fill-rule="evenodd" clip-rule="evenodd" d="M3.11 6.27a.33.33 0 00-.33.332v14.53h25.592V6.601a.33.33 0 00-.33-.332H3.11zm0-.732h24.932c.585 0 1.06.476 1.06 1.064v16.744c0 .588-.475 1.064-1.06 1.064H7.68a.365.365 0 010-.732h20.362a.33.33 0 00.33-.332v-1.482H2.78v1.482a.33.33 0 00.33.332h2.727a.365.365 0 010 .732H3.11c-.585 0-1.06-.476-1.06-1.064V6.602a1.062 1.062 0 011.06-1.064z" fill="#0A3D76"/><path fill-rule="evenodd" clip-rule="evenodd" d="M13.018 23.782h5.745l.094 1.077c.015.182-.138.34-.342.355-.205.014-.384-.122-.4-.304l-.04-.468h-4.37l-.157 1.824h4.685l-.027-.307c-.015-.182.138-.34.343-.355.204-.014.383.123.399.304l.088 1.019h-6.29l.271-3.145z" fill="#0A3D76"/><path fill-rule="evenodd" clip-rule="evenodd" d="M11.487 26.612c0-.174.165-.314.368-.314h7.442c.203 0 .368.14.368.314s-.165.315-.368.315h-7.442c-.203 0-.368-.141-.368-.315z" fill="#0A3D76"/><defs><linearGradient id="paint0_linear" x1="18.252" y1="25.04" x2="13.53" y2="24.837" gradientUnits="userSpaceOnUse"><stop stop-color="#A62E41"/><stop offset="1" stop-color="#E13152"/></linearGradient><linearGradient id="paint1_linear" x1="27.677" y1="22.523" x2="4.552" y2="17.434" gradientUnits="userSpaceOnUse"><stop stop-color="#A62E41"/><stop offset="1" stop-color="#E13152"/></linearGradient></defs></svg>