<svg width="33" height="33" fill="none" xmlns="http://www.w3.org/2000/svg"><path fill-rule="evenodd" clip-rule="evenodd" d="M16.726 5.09c-.945 0-1.833.243-2.606.67a.4.4 0 01-.386-.7 6.199 6.199 0 11-2.247 2.116.4.4 0 01.675.428 5.4 5.4 0 104.564-2.514z" fill="#0A3D76"/><path fill-rule="evenodd" clip-rule="evenodd" d="M26.477 23.93c.47-.82.7-1.71.711-2.59a.402.402 0 01.802.008 6.146 6.146 0 01-.816 2.976 6.246 6.246 0 01-8.478 2.336 6.152 6.152 0 01-2.322-8.425 6.246 6.246 0 018.478-2.336 6.142 6.142 0 012.41 2.46.401.401 0 01-.708.376 5.346 5.346 0 00-2.1-2.142 5.44 5.44 0 00-7.383 2.035 5.359 5.359 0 002.022 7.338 5.44 5.44 0 007.384-2.035z" fill="#0A3D76"/><path fill-rule="evenodd" clip-rule="evenodd" d="M4.458 20.145a5.37 5.37 0 00.475 2.648.4.4 0 01-.727.335 6.207 6.207 0 016.095-8.77 6.191 6.191 0 015.724 6.633 6.207 6.207 0 01-9.875 4.532.4.4 0 11.477-.643 5.406 5.406 0 008.6-3.948 5.392 5.392 0 00-4.985-5.777 5.406 5.406 0 00-5.784 4.99z" fill="#0A3D76"/><path d="M18.417 8.378v-1.27h-1.392c-.659 0-1.193.525-1.193 1.173v1.27h-.796v1.172h.796v3.711h1.193v-3.711h.992l.201-1.173h-1.193v-.976c0-.108.09-.196.199-.196h1.193z" fill="#0A3D76"/><path fill-rule="evenodd" clip-rule="evenodd" d="M12.908 17.816a1 1 0 011 1v3.635a1 1 0 01-1 1H7.02a1 1 0 01-1-1v-3.635a1 1 0 011-1h5.888zm-3.576 2.478v.994a.5.5 0 00.769.421l.779-.497a.5.5 0 000-.843l-.78-.497a.5.5 0 00-.768.422z" fill="#AAA"/><rect x="6.022" y="17.816" width="7.889" height="5.635" rx="1" stroke="#0A3D76" stroke-width=".5"/><path d="M9.333 22.2v-2.818l2.209 1.409L9.333 22.2z" stroke="#0A3D76" stroke-width=".5" stroke-linejoin="round"/><path fill-rule="evenodd" clip-rule="evenodd" d="M18.981 18.983v4.227l.972.805h3.498l1.165-1.007v-3.824l-.971-.805h-3.887l-.777.604zm1.749 2.818v-1.61l1.166-.604 1.166.805V21.8l-1.166.604-1.166-.604z" fill="#AAA"/><rect x="18.981" y="18.379" width="5.635" height="5.635" rx="1" stroke="#0A3D76" stroke-width=".5"/><path d="M23.239 21.197a1.44 1.44 0 11-2.882 0 1.44 1.44 0 012.882 0z" stroke="#0A3D76" stroke-width=".5"/><circle cx="23.489" cy="19.506" fill="#0A3D76" r=".282"/></svg>