<svg width="32" height="32" fill="none" xmlns="http://www.w3.org/2000/svg"><path fill-rule="evenodd" clip-rule="evenodd" d="M16 4.093c-.946 0-1.834.243-2.606.67a.4.4 0 11-.387-.7 6.199 6.199 0 11-2.247 2.116.4.4 0 01.675.428A5.399 5.399 0 1016 4.093z" fill="#0A3D76"/><path fill-rule="evenodd" clip-rule="evenodd" d="M25.75 22.933a5.35 5.35 0 00.712-2.59.402.402 0 01.802.008 6.146 6.146 0 01-.817 2.975 6.246 6.246 0 01-8.478 2.337 6.152 6.152 0 01-2.322-8.425 6.246 6.246 0 018.478-2.337 6.141 6.141 0 012.41 2.46.401.401 0 01-.708.376 5.346 5.346 0 00-2.099-2.142 5.44 5.44 0 00-7.384 2.036 5.359 5.359 0 002.022 7.337 5.44 5.44 0 007.385-2.035z" fill="#0A3D76"/><path fill-rule="evenodd" clip-rule="evenodd" d="M3.731 19.148c-.07.943.107 1.846.475 2.648a.4.4 0 01-.727.334 6.207 6.207 0 016.095-8.77 6.19 6.19 0 015.725 6.633 6.207 6.207 0 01-9.875 4.532.4.4 0 11.477-.642 5.406 5.406 0 008.6-3.948 5.392 5.392 0 00-4.985-5.778 5.406 5.406 0 00-5.785 4.99z" fill="#0A3D76"/><path d="M17.69 7.38V6.11H16.3c-.66 0-1.194.526-1.194 1.173v1.27h-.795v1.172h.795v3.712H16.3V9.725h.991l.202-1.172H16.3v-.977c0-.108.089-.195.198-.195h1.194z" fill="#0A3D76"/><path fill-rule="evenodd" clip-rule="evenodd" d="M12.181 16.818a1 1 0 011 1v3.636a1 1 0 01-1 1H6.293a1 1 0 01-1-1v-3.636a1 1 0 011-1h5.888zm-3.576 2.478v.994a.5.5 0 00.77.422l.778-.497a.5.5 0 000-.843l-.779-.497a.5.5 0 00-.769.421z" fill="url(#paint0_linear)"/><rect x="5.295" y="16.818" width="7.889" height="5.635" rx="1" stroke="#0A3D76" stroke-width=".5"/><path d="M8.606 21.202v-2.818l2.21 1.41-2.21 1.408z" stroke="#0A3D76" stroke-width=".5" stroke-linejoin="round"/><path fill-rule="evenodd" clip-rule="evenodd" d="M18.254 17.985v4.227l.972.805h3.498l1.166-1.006v-3.824l-.972-.805h-3.886l-.778.603zm1.75 2.818v-1.61l1.165-.604 1.166.805v1.41l-1.166.603-1.166-.604z" fill="url(#paint1_linear)"/><rect x="18.254" y="17.382" width="5.635" height="5.635" rx="1" stroke="#0A3D76" stroke-width=".5"/><path d="M22.512 20.2a1.44 1.44 0 11-2.881 0 1.44 1.44 0 012.881 0z" stroke="#0A3D76" stroke-width=".5"/><circle cx="22.762" cy="18.509" fill="#0A3D76" r=".282"/><defs><linearGradient id="paint0_linear" x1="12.938" y1="19.636" x2="5.53" y2="19.413" gradientUnits="userSpaceOnUse"><stop stop-color="#A62E41"/><stop offset="1" stop-color="#E13152"/></linearGradient><linearGradient id="paint1_linear" x1="23.716" y1="20.199" x2="18.421" y2="20.086" gradientUnits="userSpaceOnUse"><stop stop-color="#A62E41"/><stop offset="1" stop-color="#E13152"/></linearGradient></defs></svg>