<svg width="33" height="33" fill="none" xmlns="http://www.w3.org/2000/svg"><path d="M15.844 17.604a2.936 2.936 0 11-5.871 0 2.936 2.936 0 015.87 0z" fill="#AAA"/><path d="M22.248 17.604a9.34 9.34 0 11-18.681 0 9.34 9.34 0 0118.681 0zm-16.533 0a7.192 7.192 0 1014.385 0 7.192 7.192 0 00-14.385 0z" fill="#AAA"/><path fill-rule="evenodd" clip-rule="evenodd" d="M12.908 8.664a8.94 8.94 0 104.087.986.4.4 0 11.366-.711 9.74 9.74 0 015.288 8.665c0 5.38-4.361 9.741-9.741 9.741s-9.741-4.361-9.741-9.74c0-5.38 4.361-9.742 9.741-9.742a.4.4 0 010 .8z" fill="#0A3D76"/><path fill-rule="evenodd" clip-rule="evenodd" d="M12.908 24.41a6.805 6.805 0 113.111-.751.4.4 0 10.367.712 7.606 7.606 0 10-3.477.84.4.4 0 100-.801z" fill="#0A3D76"/><path fill-rule="evenodd" clip-rule="evenodd" d="M8.435 16.407a4.63 4.63 0 11-.054 2.176.4.4 0 00-.783.17 5.431 5.431 0 10.063-2.554.4.4 0 10.774.208z" fill="#0A3D76"/><path fill-rule="evenodd" clip-rule="evenodd" d="M15.363 16.947a2.541 2.541 0 10.03 1.194.4.4 0 11.782.17 3.342 3.342 0 11-.038-1.571.4.4 0 01-.774.207z" fill="#0A3D76"/><path fill-rule="evenodd" clip-rule="evenodd" d="M15.162 17.723a.4.4 0 00-.368-.43l-.579-.044L25.35 10.82l1.607.193a.4.4 0 10.096-.794l-.548-.066.21-.122 1.608.194a.4.4 0 00.096-.795l-.548-.066.21-.122 1.608.194a.4.4 0 00.096-.795l-1.21-.146.478-1.12a.4.4 0 10-.736-.315l-.636 1.49-.21.12.216-.507a.4.4 0 10-.736-.314l-.636 1.489-.21.121.216-.507a.4.4 0 10-.736-.315l-.636 1.49-11.142 6.432.262-.552a.4.4 0 10-.723-.343l-.813 1.713a.4.4 0 00.332.57l1.869.143a.4.4 0 00.43-.368z" fill="#0A3D76"/></svg>