<svg width="32" height="32" fill="none" xmlns="http://www.w3.org/2000/svg"><path d="M15.117 16.607a2.936 2.936 0 11-5.871 0 2.936 2.936 0 015.871 0z" fill="url(#paint0_linear)"/><path d="M21.522 16.607a9.34 9.34 0 11-18.681 0 9.34 9.34 0 0118.68 0zm-16.533 0a7.192 7.192 0 1014.384 0 7.192 7.192 0 00-14.384 0z" fill="url(#paint1_linear)"/><path fill-rule="evenodd" clip-rule="evenodd" d="M12.181 7.666a8.94 8.94 0 104.087.987.4.4 0 01.367-.712 9.74 9.74 0 015.287 8.666c0 5.38-4.36 9.74-9.74 9.74s-9.742-4.36-9.742-9.74 4.362-9.741 9.741-9.741a.4.4 0 110 .8z" fill="#0A3D76"/><path fill-rule="evenodd" clip-rule="evenodd" d="M12.182 23.412a6.805 6.805 0 113.11-.75.4.4 0 10.367.711 7.606 7.606 0 10-3.477.84.4.4 0 100-.8z" fill="#0A3D76"/><path fill-rule="evenodd" clip-rule="evenodd" d="M7.709 15.409a4.63 4.63 0 11-.055 2.177.4.4 0 00-.782.17 5.431 5.431 0 10.063-2.553.4.4 0 00.774.206z" fill="#0A3D76"/><path fill-rule="evenodd" clip-rule="evenodd" d="M14.637 15.95a2.542 2.542 0 10.03 1.194.4.4 0 11.782.17 3.342 3.342 0 11-.04-1.572.4.4 0 01-.772.207z" fill="#0A3D76"/><path fill-rule="evenodd" clip-rule="evenodd" d="M14.436 16.725a.4.4 0 00-.369-.43l-.578-.044 11.133-6.428 1.608.194a.4.4 0 00.095-.795l-.547-.066.21-.121 1.608.193a.4.4 0 10.095-.795l-.547-.066.21-.121 1.608.194a.4.4 0 00.095-.795l-1.21-.146.479-1.12a.4.4 0 00-.736-.315l-.636 1.489-.21.121.216-.507a.4.4 0 00-.736-.315l-.636 1.49-.21.12.216-.507a.4.4 0 00-.736-.314l-.636 1.489-11.142 6.432.262-.551a.4.4 0 00-.724-.343l-.812 1.712a.4.4 0 00.331.57l1.869.144a.4.4 0 00.43-.369z" fill="#0A3D76"/><defs><linearGradient id="paint0_linear" x1="14.936" y1="16.607" x2="9.42" y2="16.488" gradientUnits="userSpaceOnUse"><stop stop-color="#A62E41"/><stop offset="1" stop-color="#E13152"/></linearGradient><linearGradient id="paint1_linear" x1="20.946" y1="16.607" x2="3.393" y2="16.23" gradientUnits="userSpaceOnUse"><stop stop-color="#A62E41"/><stop offset="1" stop-color="#E13152"/></linearGradient></defs></svg>