<svg width="32" height="32" fill="none" xmlns="http://www.w3.org/2000/svg"><path d="M24.922 22.87v-4.142l4.181-1.776v7.693l-4.18-1.775z" fill="url(#paint0_linear)"/><ellipse cx="18.085" cy="9.851" rx="5.054" ry="5.03" fill="url(#paint1_linear)"/><path fill-rule="evenodd" clip-rule="evenodd" d="M13.555 9.792c0-2.55 2.078-4.62 4.644-4.62a4.64 4.64 0 013.42 1.494.35.35 0 10.515-.475 5.341 5.341 0 00-3.935-1.72c-2.905 0-5.27 2.308-5.342 5.186a3.847 3.847 0 00-3.432-2.1 3.837 3.837 0 00-3.845 3.829 3.82 3.82 0 001.727 3.195H4.519a1.35 1.35 0 00-1.35 1.35v6.026a.35.35 0 10.7 0v-6.026a.65.65 0 01.65-.65h19.053a.65.65 0 01.65.65v9.664a.65.65 0 01-.65.65H4.518a.65.65 0 01-.65-.65v-1.701a.35.35 0 00-.7 0v1.7c0 .746.604 1.35 1.35 1.35H23.57a1.35 1.35 0 001.35-1.35v-2.43l3.513 1.734a.85.85 0 001.226-.762v-6.788a.85.85 0 00-1.226-.762l-3.512 1.734v-2.39a1.35 1.35 0 00-1.35-1.35h-3.044a5.318 5.318 0 003.015-4.79.35.35 0 10-.7 0c0 2.55-2.078 4.62-4.644 4.62-2.566 0-4.644-2.07-4.644-4.62zm2.315 4.79a5.35 5.35 0 01-2.622-2.784 3.824 3.824 0 01-1.705 2.783h4.327zM9.425 8.256a3.137 3.137 0 00-3.145 3.129 3.137 3.137 0 003.145 3.128 3.137 3.137 0 003.145-3.128 3.137 3.137 0 00-3.145-3.129zm19.535 9.091a.15.15 0 00-.216-.134l-3.58 1.767a.15.15 0 00-.083.134v3.254c0 .057.032.109.083.134l3.58 1.767a.15.15 0 00.216-.134v-6.788zm-22.694 7.31a.35.35 0 000 .7h1.83a.35.35 0 100-.7h-1.83zm4.577 0a.35.35 0 100 .7h1.83a.35.35 0 100-.7h-1.83zm4.576 0a.35.35 0 100 .7h1.83a.35.35 0 100-.7h-1.83zm4.577 0a.35.35 0 100 .7h1.83a.35.35 0 100-.7h-1.83z" fill="#0A3D76"/><ellipse cx="9.439" cy="11.358" rx="3.194" ry="3.179" fill="url(#paint2_linear)"/><defs><linearGradient id="paint0_linear" x1="28.974" y1="20.799" x2="25.045" y2="20.753" gradientUnits="userSpaceOnUse"><stop stop-color="#A62E41"/><stop offset="1" stop-color="#E13152"/></linearGradient><linearGradient id="paint1_linear" x1="22.828" y1="9.851" x2="13.331" y2="9.646" gradientUnits="userSpaceOnUse"><stop stop-color="#A62E41"/><stop offset="1" stop-color="#E13152"/></linearGradient><linearGradient id="paint2_linear" x1="12.436" y1="11.358" x2="6.433" y2="11.228" gradientUnits="userSpaceOnUse"><stop stop-color="#A62E41"/><stop offset="1" stop-color="#E13152"/></linearGradient></defs></svg>