<svg width="110" height="110" fill="none" xmlns="http://www.w3.org/2000/svg"><g filter="url(#filter0_di)"><path d="M102.848 63.892l-8.94-5.57a2.371 2.371 0 01-.84-.958 2.469 2.469 0 01-.238-1.27c.094-1.143.14-2.298.14-3.464a41.448 41.448 0 00-.474-6.335 2.435 2.435 0 01.18-1.379c.192-.43.504-.79.898-1.035l9.335-5.83c.485-.3.843-.778 1.001-1.34a2.387 2.387 0 00-.147-1.686l-4.395-9.26a2.253 2.253 0 00-1.157-1.11 2.154 2.154 0 00-1.578-.034l-9.443 3.546a2.15 2.15 0 01-1.405.054 2.22 2.22 0 01-1.155-.83 41 41 0 00-9.274-9.001 2.368 2.368 0 01-.878-1.228 2.45 2.45 0 01.027-1.527l2.093-5.942c.19-.55.178-1.152-.031-1.694a2.37 2.37 0 00-1.107-1.25l-8.897-4.5a2.162 2.162 0 00-1.91-.051 2.25 2.25 0 00-1.016.934l-4.032 6.903-.98 1.686a39.177 39.177 0 00-13.12.304 2.151 2.151 0 01-1.33-.153 2.244 2.244 0 01-1.003-.916l-4.535-7.798a2.317 2.317 0 00-1.325-1.059 2.236 2.236 0 00-1.67.15l-6.846 3.475-1.957 1.002a2.387 2.387 0 00-1.142 1.264 2.491 2.491 0 00-.032 1.73l2.873 8.168c.165.453.188.948.065 1.414a2.307 2.307 0 01-.748 1.186 40.952 40.952 0 00-6.024 6.29 6.783 6.783 0 00-.456.58c-.047.067-.102.13-.162.185-.307.34-.705.576-1.143.682a2.198 2.198 0 01-1.316-.092l-9.335-3.498a1.756 1.756 0 00-.32-.096c-.496-.1-1.01-.03-1.463.2-.454.23-.823.607-1.05 1.073l-4.351 9.165a2.455 2.455 0 00-.141 1.72 2.371 2.371 0 001.02 1.366l9.335 5.807c.39.236.703.588.895 1.011.193.423.256.897.182 1.358a43.289 43.289 0 00-.466 6.383c0 1.155.042 2.299.136 3.428.035.45-.052.901-.251 1.303a2.4 2.4 0 01-.877.973l-8.975 5.603c-.48.3-.835.776-.993 1.332a2.393 2.393 0 00.138 1.676l4.362 9.15c.254.537.69.959 1.227 1.183a2.268 2.268 0 001.678.03l7.472-2.803a2.233 2.233 0 011.5-.028c.49.165.912.493 1.2.934a41.011 41.011 0 008.347 9.484c.377.31.65.736.779 1.216s.108.99-.06 1.458l-3.053 8.692a2.521 2.521 0 00.032 1.74c.217.555.623 1.01 1.142 1.276l8.826 4.489c.508.26 1.093.313 1.637.147a2.268 2.268 0 001.3-1.042l.24-.401 4.668-8.02a2.34 2.34 0 011.032-.946c.43-.199.907-.258 1.37-.169a38.501 38.501 0 0010.878.46 2.2 2.2 0 011.245.23c.385.198.708.505.931.885l4.6 7.902c.302.521.783.906 1.346 1.078a2.27 2.27 0 001.698-.147l8.814-4.489c.241-.127.46-.294.65-.494a2.476 2.476 0 00.499-2.45l-2.301-6.514a2.495 2.495 0 01-.096-1.22c.07-.408.24-.79.494-1.111.142-.171.303-.322.482-.45A40.808 40.808 0 0086.36 75.392c.243-.38.588-.678.992-.858a2.19 2.19 0 011.285-.156c.128.026.254.062.377.108l7.54 2.84c.53.199 1.112.188 1.636-.03.523-.218.95-.627 1.2-1.15l.104-.212 4.248-8.912a2.492 2.492 0 00.142-1.745 2.41 2.41 0 00-1.036-1.385zm-70.58-17.597a28.126 28.126 0 011.795-4.827c1.48-3.075 5.138-6.881 8.122-8.4.32-.163.635-.32.955-.471 19.524-9.068 38.348 10.768 28.884 30.957-1.242 2.64-3.985 5.737-6.664 7.657-.579.418-1.187.79-1.82 1.114a24.118 24.118 0 01-8.075 2.473C40.411 76.521 28.02 62.206 32.268 46.295z" fill="#F985A0"/></g><defs><filter id="filter0_di" x="0" y="0" width="110" height="110" filterUnits="userSpaceOnUse" color-interpolation-filters="sRGB"><feFlood flood-opacity="0" result="BackgroundImageFix"/><feColorMatrix in="SourceAlpha" values="0 0 0 0 0 0 0 0 0 0 0 0 0 0 0 0 0 0 127 0"/><feOffset dx="2" dy="2"/><feGaussianBlur stdDeviation="2"/><feColorMatrix values="0 0 0 0 0 0 0 0 0 0 0 0 0 0 0 0 0 0 0.15 0"/><feBlend in2="BackgroundImageFix" result="effect1_dropShadow"/><feBlend in="SourceGraphic" in2="effect1_dropShadow" result="shape"/><feColorMatrix in="SourceAlpha" values="0 0 0 0 0 0 0 0 0 0 0 0 0 0 0 0 0 0 127 0" result="hardAlpha"/><feOffset dx="-2" dy="-2"/><feGaussianBlur stdDeviation="2"/><feComposite in2="hardAlpha" operator="arithmetic" k2="-1" k3="1"/><feColorMatrix values="0 0 0 0 0 0 0 0 0 0 0 0 0 0 0 0 0 0 0.2 0"/><feBlend in2="shape" result="effect2_innerShadow"/></filter></defs></svg>