<svg width="124" height="120" viewBox="0 0 124 120" fill="none" xmlns="http://www.w3.org/2000/svg">
<g clip-path="url(#clip0)">
<path d="M23.5108 2.95783L123.971 3.30582L122.955 91.7544L23.3076 91.9283L23.5108 2.95783Z" fill="#102E5B"/>
<path d="M23.6854 2.89994L0.0580524 31.1455L0 119.275L23.6854 91.6965V2.89994Z" fill="#0A2D49"/>
<path d="M100.286 119.855L0 119.971L0.0580524 31.1455L99.7631 30.9715L100.286 119.855Z" fill="#102E5B"/>
<path d="M100.285 119.855L123.971 91.5514V3.30584L100.372 31.1744L100.285 119.855Z" fill="#0A2D49"/>
<path d="M100.372 31.1744L123.971 3.30584V92.2184L100.285 119.855L100.372 31.1744Z" fill="#053866"/>
<path d="M100.372 31.1744L123.971 3.30584V92.1894L100.285 119.855L100.372 31.1744Z" fill="#053866"/>
<path d="M118.078 10.2657L123.97 3.30584V25.7805L118.078 32.7403V10.2657Z" fill="#053866"/>
<path d="M120.111 22.6777C118.862 19.9807 118.253 16.4718 118.253 10.2659L118.979 9.36689C118.979 14.8478 119.646 18.5887 120.72 20.8797C121.62 22.7647 122.781 23.0547 123.971 21.6047L123.942 23.9827C123.333 24.7076 122.926 24.8816 122.375 24.8816C121.62 24.8816 120.749 24.0407 120.111 22.6777Z" fill="#B9D5FD"/>
<path d="M112.187 17.2255L118.079 10.2657V32.7403L112.187 39.7002V17.2255Z" fill="#0E2951"/>
<path d="M106.294 24.1855L112.187 17.2256V39.7003L106.294 46.6311V24.1855Z" fill="#709FDC"/>
<path d="M100.372 31.1743L106.293 24.1855V46.6311L100.401 53.504L100.372 31.1743Z" fill="#55A2E0"/>
<path d="M118.078 32.7403L123.97 25.7804V47.907L118.078 54.8669V32.7403Z" fill="#B9D5FD"/>
<path d="M112.187 39.7003L118.079 32.7404V54.867L112.187 61.8269V39.7003Z" fill="#274684"/>
<path d="M106.294 46.631L112.187 39.7002V61.8268L106.294 68.7867V46.631Z" fill="#3D95D1"/>
<path d="M100.401 53.5042L106.294 46.6313V68.7869L100.401 75.6308V53.5042Z" fill="#B9D5FD"/>
<path d="M112.187 61.8269L118.079 54.8671V77.0227L112.187 83.9826V61.8269Z" fill="#B9D5FD"/>
<path d="M106.294 68.7868L112.187 61.8269V83.9826L106.294 90.9424V68.7868Z" fill="#0E2951"/>
<path d="M100.401 75.6306L106.294 68.7867V90.9424L100.517 97.7862L100.401 75.6306Z" fill="#709FDC"/>
<path d="M118.078 77.0227L123.97 70.0338V92.1895L118.078 99.1493V77.0227Z" fill="#6780B3"/>
<path d="M112.187 83.9827L118.079 77.0228V99.1494L112.187 106.109V83.9827Z" fill="#053866"/>
<path d="M106.294 90.9427L112.187 83.9828V106.109L106.294 113.069V90.9427Z" fill="#B9D5FD"/>
<path d="M100.518 97.7865L106.294 90.9426V113.069L100.285 119.855L100.518 97.7865Z" fill="#3D95D1"/>
<path d="M121.068 18.7047C120.082 16.6167 119.559 13.7168 119.559 8.96085L120.285 8.06187C120.285 11.9188 120.72 14.7028 121.591 16.5007C122.113 17.5737 123.158 17.9217 124 16.9067V19.5747C123.536 20.1257 123.245 20.2997 122.81 20.2997C122.142 20.2997 121.562 19.7487 121.068 18.7047Z" fill="#3D95D1"/>
<path d="M122.026 14.0648C121.358 12.6438 120.981 10.4399 120.981 7.22091L121.707 6.32193C121.707 8.67089 121.823 9.77287 122.287 11.1938C122.723 12.5278 123.477 12.6728 124 12.0928V14.7608C123.68 15.1378 123.506 15.2248 123.216 15.2248C122.752 15.1958 122.345 14.7898 122.026 14.0648Z" fill="#3376B3"/>
<path d="M122.868 9.39593C122.462 8.52594 122.259 7.24997 122.259 5.423L123.101 4.52401C122.955 5.85799 122.955 6.72797 123.246 7.19197C123.345 7.28265 123.474 7.33296 123.609 7.33296C123.743 7.33296 123.872 7.28265 123.971 7.19197V9.85992C123.797 10.0919 123.768 10.0919 123.594 10.0919C123.333 10.0629 123.072 9.83092 122.868 9.39593Z" fill="#709FDC"/>
<path d="M100.518 91.9286L104.668 86.9696V54.3742L100.518 59.2751V56.2011L105.539 50.5462V88.8256L100.547 94.6835L100.518 91.9286Z" fill="#274684"/>
<path d="M100.518 91.9284L104.668 86.9695V70.1788L105.539 69.3088V88.8255L100.518 95.0314V91.9284Z" fill="#0E2951"/>
<path d="M100.46 86.6504L103.275 83.3445V60.9278L100.518 64.0018V61.1308L104.117 57.0999V84.7074L100.547 88.9414L100.46 86.6504Z" fill="#274684"/>
<path d="M100.518 80.9375L101.795 79.1975V68.7577L100.518 70.3237V67.2207L102.666 64.9298V81.0535L100.634 83.4605L100.518 80.9375Z" fill="#274684"/>
<path d="M100.46 80.6765L101.737 79.3715V73.6586L102.579 72.7596V81.2275L100.518 83.6055L100.46 80.6765Z" fill="#0E2951"/>
<path d="M100.518 86.4475L103.275 83.3446V71.8607L104.117 70.9618V85.1425L100.518 89.5505V86.4475Z" fill="#0E2951"/>
<path d="M119.501 80.6475L123.971 75.3696V92.1893L119.501 97.4962V80.6475Z" fill="#053866"/>
<path d="M121.01 84.6205L123.971 81.1116V92.1894L121.01 95.6694V84.6205Z" fill="#709FDC"/>
<path d="M110.009 20.1838L112.157 31.5806L108.442 43.9924L106.323 32.5956L110.009 20.1838Z" fill="#0E2951"/>
<path d="M109.632 26.0125L110.735 31.8415L108.82 38.1633L107.746 32.3634L109.632 26.0125Z" fill="#6780B3"/>
<path d="M106.294 95.3505L112.187 88.3906V106.109L106.294 113.069V95.3505Z" fill="#3D95D1"/>
<path d="M106.294 100.222L112.187 93.2626V106.109L106.294 113.069V100.222Z" fill="#6780B3"/>
<path d="M106.294 105.123L112.187 98.1343V106.109L106.294 113.069V105.123Z" fill="#053866"/>
<path d="M106.294 109.096L112.187 102.136V106.109L106.294 113.069V109.096Z" fill="#0E2951"/>
<path d="M112.709 57.1L117.556 50.3721L112.709 45.0652L117.556 38.3373L112.709 57.1Z" fill="#0E2951"/>
<path d="M123.245 26.6504L123.971 25.7804V47.907L123.245 48.806V26.6504Z" fill="#55A2E0"/>
<path d="M122.114 27.9846L122.839 27.1146V49.2412L122.114 50.1402V27.9846Z" fill="#55A2E0"/>
<path d="M118.397 32.4214L119.123 31.5225V53.6781L118.397 54.5481V32.4214Z" fill="#55A2E0"/>
<path d="M119.646 30.8264L120.488 29.9274V52.054L119.646 52.924V30.8264Z" fill="#55A2E0"/>
<path d="M120.981 29.3186L121.678 28.4196V50.5752L120.981 51.4452V29.3186Z" fill="#55A2E0"/>
<path d="M118.078 54.867L123.97 47.9071V70.0337L118.078 77.0226V54.867Z" fill="#0E2951"/>
<path d="M118.078 65.9447L121.01 62.4648V73.5426L118.078 77.0225V65.9447Z" fill="#55A2E0"/>
<path d="M121.01 51.3871L123.971 47.9071V58.9849L121.01 62.4649V51.3871Z" fill="#55A2E0"/>
<path d="M113.608 87.6654L116.627 84.0694V95.4662L113.608 99.0622V90.0723L116.076 87.1724V94.0453L114.189 96.2782V91.4643L115.495 89.8983V92.6533L114.74 93.5523" stroke="#3D95D1" stroke-miterlimit="10"/>
<path d="M104.523 113.069L101.127 97.8154L102.375 96.4234L105.946 111.764L104.523 113.069Z" fill="#003A79"/>
<path d="M102.579 114.838L100.78 117.071L103.74 95.0315L105.54 93.2626L102.579 114.838Z" fill="#003A79"/>
<path d="M110.068 68.7579L110.996 67.656V71.1939L110.068 72.2959V68.7579Z" fill="#B9D5FD"/>
<path d="M108.761 75.1378L109.69 74.0358V77.5737L108.761 78.7047V75.1378Z" fill="#B9D5FD"/>
<path d="M107.455 81.5755L108.413 80.4445V84.0114L107.455 85.1134V81.5755Z" fill="#B9D5FD"/>
<path d="M100.373 31.1743L0.0583496 31.1453L0.116402 119.855H100.286L100.373 31.1743Z" fill="#054270"/>
<path d="M100.286 119.855L0.0873758 119.942L0.0583496 31.1453L100.373 31.1743L100.286 119.855Z" fill="#053866"/>
<path d="M25.2231 97.7285L0.0864258 97.7575V75.6019L25.2231 75.5729V97.7285Z" fill="#F4F9FF"/>
<path d="M50.3315 97.7283H25.2239V75.5727L50.3315 75.5437V97.7283Z" fill="#274684"/>
<path d="M75.4099 97.6991L50.3313 97.7281V75.5435L75.4099 75.5145V97.6991Z" fill="#3D95D1"/>
<path d="M100.517 97.7861L75.4097 97.6991V75.5145L100.517 75.6015V97.7861Z" fill="#B9D5FD"/>
<path d="M50.3315 75.5437L25.2239 75.5727V53.3881L50.3315 53.3591V75.5437Z" fill="#B9D5FD"/>
<path d="M75.4099 75.5147L50.3313 75.5437V53.3591H75.4099V75.5147Z" fill="#0E2951"/>
<path d="M100.517 75.6017L75.4097 75.5147V53.3591L100.517 53.4171V75.6017Z" fill="#709FDC"/>
<path d="M50.3315 119.913H25.2239V97.7284H50.3315V119.913Z" fill="#0E2951"/>
<path d="M75.5418 119.884L50.3313 119.913V97.7282L75.5418 97.6992V119.884Z" fill="#709FDC"/>
<path d="M100.286 119.855L75.5842 119.884V97.6992L100.518 97.7862L100.286 119.855Z" fill="#6780B3"/>
<path d="M25.2241 53.388L0.0873758 53.417L0.0583496 31.1453L25.2241 31.2323V53.388Z" fill="#6780B3"/>
<path d="M50.3315 53.3593L25.2239 53.3883V31.2327L50.3315 31.2037V53.3593Z" fill="#053866"/>
<path d="M75.4099 53.3591H50.3313V31.2035L75.4099 31.1745V53.3591Z" fill="#B9D5FD"/>
<path d="M100.517 53.4171L75.4097 53.3591V31.1745H100.372L100.517 53.4171Z" fill="#3D95D1"/>
<path d="M78.6321 94.6835V56.3752L100.286 56.3462L99.8793 59.1881H82.2604V91.8416L100.518 91.9286V95.0315L78.6321 94.6835Z" fill="#274684"/>
<path d="M78.3997 56.3749L100.518 56.1719V59.2749L82.2601 59.1879V75.5436H78.6319L78.3997 56.3749Z" fill="#0E2951"/>
<path d="M84.6697 89.5506V62.1171L100.518 61.1311V63.8571L88.2689 64.06V86.3897L100.518 86.4477V89.5506H84.6697Z" fill="#274684"/>
<path d="M91.2007 83.5765V67.4527L100.46 67.3947L99.8795 70.2947L94.7999 70.2657V80.7345L100.518 80.6765V83.6055L91.2007 83.5765Z" fill="#274684"/>
<path d="M91.2007 67.453L100.518 67.221V70.3239L94.7999 70.2659V75.6308L91.2007 75.5728V67.453Z" fill="#0E2951"/>
<path d="M84.6697 61.2471L100.518 61.1311V64.0021L88.2689 64.06V75.5149H84.6697V61.2471Z" fill="#0E2951"/>
<path d="M12.6267 42.3101L0.0873758 42.3391L0.0583496 31.1453L12.6267 31.2323V42.3101Z" fill="#FF8098"/>
<path d="M59.5332 119.797L50.4189 105.877L66.1802 97.8155L75.3235 111.735L59.5332 119.797Z" fill="#0E2951"/>
<path d="M61.1588 114.432L56.5146 107.298L64.5839 103.18L69.1991 110.314L61.1588 114.432Z" fill="#6780B3"/>
<path d="M75.4099 48.9222L50.3313 48.9512V31.2035L75.4099 31.1745V48.9222Z" fill="#3D95D1"/>
<path d="M75.4099 44.0503L50.3313 44.0793V31.2035L75.4099 31.1745V44.0503Z" fill="#6780B3"/>
<path d="M75.4099 39.1784H50.3313V31.2035L75.4099 31.1745V39.1784Z" fill="#053866"/>
<path d="M75.4099 35.1764H50.3313V31.2035L75.4099 31.1745V35.1764Z" fill="#0E2951"/>
<path d="M48.8221 79.1687L26.7332 79.1977L48.8221 93.2334L26.7332 93.2624" fill="#0E2951"/>
<path d="M0.0583496 75.3698L3.6576 75.2538V97.8734L0.0583496 97.9894V75.3698Z" fill="#709FDC"/>
<path d="M4.78906 75.6597L8.41734 75.5437V97.6993L4.78906 97.8443V75.6597Z" fill="#709FDC"/>
<path d="M19.9699 75.6016L23.5691 75.4566L23.5111 97.6993L19.8538 97.8152L19.9699 75.6016Z" fill="#709FDC"/>
<path d="M14.8323 75.6305L18.4896 75.5145V97.6991L14.8323 97.8151V75.6305Z" fill="#709FDC"/>
<path d="M9.81055 75.6595L13.4679 75.5145V97.6991L9.81055 97.8441V75.6595Z" fill="#709FDC"/>
<path d="M25.2231 75.5729L0.0864258 75.6019V53.4173L25.2231 53.3883V75.5729Z" fill="#0E2951"/>
<path d="M25.2231 119.913L0.0864258 119.942V97.7574L25.2231 97.7284V119.913Z" fill="#053866"/>
<path d="M25.2236 64.4661L12.6262 64.4951V53.4173L25.2236 53.3883V64.4661Z" fill="#3D95D1"/>
<path d="M0.0583496 101.092V98.8883C13.4394 98.8883 24.7887 104.833 24.7887 119.942L21.77 119.884C21.77 109.705 12.1333 101.092 0.0583496 101.092Z" fill="#B9D5FD"/>
<path d="M0 105.877V103.209C10.0721 103.209 18.7219 109.183 18.7219 119.826L15.0936 119.942C15.0936 112.17 8.82397 105.877 0 105.877Z" fill="#3D95D1"/>
<path d="M0.0583496 110.865L0.116402 108.313C6.96659 108.313 12.1042 113.301 12.1042 119.942L8.73719 120C8.70816 115.186 5.39917 110.865 0.0583496 110.865Z" fill="#3376B3"/>
<path d="M0.0583496 116.201L0.116402 113.388C3.86078 113.388 6.67633 116.114 6.06678 119.826L3.04805 119.768C3.04805 117.651 2.40947 116.172 0.0583496 116.201Z" fill="#709FDC"/>
<path d="M47.6321 51.0391H27.8652V33.5524H47.6321V47.3271H31.5806V36.7713L43.9167 36.8003V44.1372H35.2959V39.9323H40.2014" stroke="#3D95D1" stroke-width="2" stroke-miterlimit="10"/>
<path d="M97.0056 50.6913L79.9382 33.8136" stroke="#0E2951" stroke-width="4" stroke-miterlimit="10"/>
<path d="M79.9382 50.6913L97.0056 33.8136" stroke="#0E2951" stroke-width="4" stroke-miterlimit="10"/>
<path d="M59.3589 71.1067H55.3533V67.5688L59.3589 67.5398V71.1067Z" fill="#B9D5FD"/>
<path d="M64.8738 66.235L60.8682 66.206V62.6681L64.8738 62.697V66.235Z" fill="#B9D5FD"/>
<path d="M70.3887 61.3341L66.3831 61.3631V57.7962H70.3887V61.3341Z" fill="#B9D5FD"/>
<path d="M19.1576 48.081H0.0873758L0.0583496 31.1453L19.1576 31.2323V48.081Z" fill="#053866"/>
<path d="M14.049 43.5281H0.0873758L0.0583496 31.1453L14.049 31.2033V43.5281Z" fill="#709FDC"/>
<path d="M12.6258 75.6016H0.0864258V64.5238L12.6258 64.4948V75.6016Z" fill="#3D95D1"/>
<path d="M66.9057 3.1611L23.3084 2.78411L0.0583496 31.1456L43.975 31.2036L66.9057 3.1611Z" fill="#165B93"/>
<path d="M123.245 1.53697L123.623 0.60899L123.855 0" fill="#34DD17"/>
<path d="M123.971 3.30579L76.4263 3.1608L55.3533 31.2903L100.373 31.1743L123.971 3.30579Z" fill="#165B93"/>
<path d="M112.216 9.48291L100.373 31.1746L0.0583496 31.1456L11.843 9.27991L112.216 9.48291Z" fill="#9CCEF7"/>
<path d="M114.073 7.48203L123.971 3.3061L23.3077 2.78411L13.4678 7.13404L114.073 7.48203Z" fill="#9CCEF7"/>
<path d="M100.568 53.1429H0V97.7143H100.568V53.1429Z" fill="#A8D2FC"/>
<path d="M25.3066 81.2934H27.2946V79.5714H33.1186V81.2934H35.1066V77.8214H34.2666V70.2334H27.6306L27.0846 75.0074C26.7906 77.4714 26.2586 77.8494 25.3066 77.9754V81.2934ZM29.0586 75.1474L29.4226 71.9834H32.2646V77.8214H27.9246C28.5126 77.2754 28.9186 76.4074 29.0586 75.1474ZM37.9369 79.5714L40.8069 75.3294V79.5714H42.5849V72.8094H40.7929L38.0069 76.8974V72.8094H36.2289V79.5714H37.9369ZM46.814 79.7394C48.83 79.7394 50.076 78.8994 50.076 77.7094C50.076 76.6874 48.998 76.1554 48.172 76.0994C49.068 75.9594 49.936 75.3714 49.936 74.5034C49.936 73.3554 48.746 72.6414 46.632 72.6554C45.4 72.6554 44.42 73.1174 43.762 73.7754L44.63 74.8254C45.162 74.3074 45.848 74.0554 46.73 74.0554C47.528 74.0554 48.088 74.3354 48.088 74.7414C48.088 75.2174 47.626 75.4694 46.702 75.4694H45.316V76.8414H46.702C47.626 76.8414 48.214 77.0794 48.214 77.5974C48.214 78.0314 47.724 78.3254 46.814 78.3254C46.002 78.3254 45.106 78.0874 44.476 77.5554L43.664 78.6614C44.322 79.3054 45.414 79.7394 46.814 79.7394ZM57.2427 79.5714V75.2034C57.2427 73.2574 55.8287 72.6414 54.2887 72.6414C53.2247 72.6414 52.1607 72.9774 51.3347 73.7054L52.0067 74.8954C52.5807 74.3634 53.2527 74.0974 53.9807 74.0974C54.8767 74.0974 55.4647 74.5454 55.4647 75.2314V76.1414C55.0167 75.6094 54.2187 75.3154 53.3227 75.3154C52.2447 75.3154 50.9707 75.9174 50.9707 77.4994C50.9707 79.0114 52.2447 79.7394 53.3227 79.7394C54.2047 79.7394 55.0027 79.4174 55.4647 78.8714V79.5714H57.2427ZM54.0367 78.5354C53.3367 78.5354 52.7627 78.1714 52.7627 77.5414C52.7627 76.8834 53.3367 76.5194 54.0367 76.5194C54.6107 76.5194 55.1707 76.7154 55.4647 77.1074V77.9474C55.1707 78.3394 54.6107 78.5354 54.0367 78.5354ZM60.7143 79.5714L63.5843 75.3294V79.5714H65.3623V72.8094H63.5703L60.7843 76.8974V72.8094H59.0063V79.5714H60.7143ZM64.6343 70.9054L63.8503 70.2474C63.4583 70.7934 62.8843 71.1154 62.1843 71.1154C61.4563 71.1154 60.8823 70.7794 60.5043 70.2474L59.7203 70.9054C60.2943 71.6614 61.1903 72.1374 62.1843 72.1374C63.1923 72.1374 64.0743 71.6614 64.6343 70.9054ZM68.9054 79.5714V76.8694H71.7054V79.5714H73.4834V72.8094H71.7054V75.3154H68.9054V72.8094H67.1274V79.5714H68.9054Z" fill="black"/>
</g>
<defs>
<clipPath id="clip0">
<rect width="124" height="120" fill="white"/>
</clipPath>
</defs>
</svg>
