<svg width="66" height="82" viewBox="0 0 66 82" fill="none" xmlns="http://www.w3.org/2000/svg">
<g filter="url(#filter0_di)">
<path d="M19.3361 46.8525C19.3361 40.3378 24.6526 35.0683 31.1745 35.1634C37.4707 35.2556 42.5966 40.4148 42.6639 46.7251C42.6923 49.4263 41.8075 51.9185 40.2987 53.9107C38.1705 56.7232 36.8599 60.0584 36.5896 63.5543C36.5545 64.001 36.5374 64.4506 36.5374 64.9021V67.6671H25.4624V65.0647C25.4624 64.5599 25.4425 64.0562 25.4018 63.5543C25.1239 60.0908 23.89 56.7527 21.762 53.9896C20.2409 52.0155 19.3361 49.5395 19.3361 46.8525Z" fill="#FFD042"/>
<path d="M25.402 63.5543H36.5898C36.5547 64.001 36.5377 64.4506 36.5377 64.9021V67.6671H25.4627V65.0647C25.4627 64.5599 25.4428 64.0562 25.402 63.5543Z" fill="#FFB952"/>
<path d="M19.3363 46.8525C19.3363 41.8815 22.4317 37.6356 26.797 35.9448C23.197 37.9341 20.7588 41.775 20.7588 46.1872C20.7588 48.8742 21.6636 51.3502 23.1847 53.3244C25.6211 56.4875 26.8853 60.4026 26.8853 64.3994V67.6671H25.4627V65.0647C25.4627 61.0679 24.1986 57.1528 21.7621 53.9897C20.241 52.0155 19.3363 49.5395 19.3363 46.8525Z" fill="#FFB952"/>
<path d="M33.7213 53.129C34.1236 53.129 34.4497 53.4558 34.4497 53.859V67.667C34.4497 68.0702 34.1236 68.3971 33.7213 68.3971C33.319 68.3971 32.9928 68.0703 32.9928 67.667V53.859C32.9929 53.4559 33.319 53.129 33.7213 53.129Z" fill="#FFB952"/>
<path d="M28.3156 53.129C28.7179 53.129 29.0439 53.4558 29.0439 53.859L29.0439 67.667C29.0439 68.0702 28.7179 68.3971 28.3156 68.3971C27.9132 68.3971 27.5871 68.0703 27.5871 67.667V53.859C27.5872 53.4559 27.9132 53.129 28.3156 53.129Z" fill="#FFB952"/>
<path d="M28.3158 55.8483C28.5021 55.8483 28.6886 55.9196 28.831 56.0621C29.518 56.751 30.4529 56.0781 30.5574 55.999C30.8472 55.7792 31.2584 55.8044 31.5156 56.0622C32.1674 56.7155 33.2713 56.001 33.3181 55.9704C33.653 55.7499 34.1047 55.8409 34.3264 56.1755C34.5483 56.5102 34.4602 56.9604 34.1276 57.1845C33.4844 57.6174 32.0974 58.1447 30.9568 57.4645C30.1342 57.8875 28.845 58.1412 27.8008 57.0948C27.5164 56.8096 27.5164 56.3474 27.8008 56.0622C27.9429 55.9196 28.1295 55.8483 28.3158 55.8483Z" fill="#FFB952"/>
<path d="M25.1944 64.9801H36.8422C37.3989 64.9801 37.8057 65.5066 37.6663 66.0465L37.3771 67.1661L35.6605 73.8138L35.2612 75.3602C35.1645 75.7367 34.8259 76 34.438 76H27.5993C27.2114 76 26.8728 75.7367 26.7752 75.3603L26.3759 73.8139L24.6604 67.1662L24.3711 66.0466C24.2317 65.5066 24.6386 64.9801 25.1944 64.9801Z" fill="#71A0DD"/>
<path d="M24.6604 67.1662H37.377L35.6604 73.8138H26.3759L24.6604 67.1662Z" fill="#0A3D76"/>
<path d="M24.5562 68.592H37.4802C37.9922 68.592 38.4072 69.0079 38.4072 69.521V71.4592C38.4072 71.9723 37.9923 72.3883 37.4802 72.3883H24.5561C24.0441 72.3883 23.6291 71.9724 23.6291 71.4592V69.521C23.6292 69.008 24.0441 68.592 24.5562 68.592Z" fill="#B4D1FA"/>
<path d="M33.7203 38.7712C33.7867 38.7712 33.8541 38.7803 33.9212 38.7996C38.6129 40.1457 39.4856 44.8784 39.5203 45.0792C39.5893 45.4765 39.3239 45.8544 38.9276 45.9236C38.5319 45.9933 38.1551 45.7274 38.0854 45.3311C38.0549 45.1619 37.3175 41.2929 33.5201 40.2034C33.1334 40.0924 32.9095 39.6882 33.0204 39.3006C33.1119 38.9801 33.4035 38.7712 33.7203 38.7712Z" fill="#FCE581"/>
<g filter="url(#filter1_f)">
<path d="M26.7046 33.5871L24.6364 29.7604M17.3182 55.7502L9.36366 59.2581M15.7273 48.5751C13.5 48.5751 9.04547 48.7877 3 48.5751M15.7273 42.1972L6.50001 38.6894M19.2273 36.6166L14.2955 32.3115" stroke="#FCE581" stroke-width="2" stroke-linecap="round"/>
</g>
<g filter="url(#filter2_f)">
<path d="M35.2954 33.5871L37.3636 29.7604M44.6818 55.7503L52.6363 59.2581M46.2727 48.5751C48.5 48.5751 52.9545 48.7877 59 48.5751M46.2727 42.1973L55.5 38.6894M42.7727 36.6166L47.7045 32.3116" stroke="#FCE581" stroke-width="2" stroke-linecap="round"/>
</g>
<path d="M7.06303 6.60649C6.92353 7.19606 6.83476 7.66578 6.79671 8.01564C6.79671 8.20353 6.7333 8.68621 6.60648 9.46367C6.39723 10.8502 6.29261 11.7961 6.29261 12.3014C6.29261 13.1566 6.34333 13.9989 6.44479 14.8282C6.52088 15.4307 6.4004 15.8713 6.08336 16.1499C5.76631 16.422 5.44927 16.5581 5.13222 16.5581C4.68202 16.5581 4.3618 16.3604 4.17157 15.9652C3.98134 15.5635 3.88623 14.8703 3.88623 13.8855C3.88623 13.2765 4.03524 11.8252 4.33326 9.5317L4.85639 5.73184C4.96419 5.17465 5.04345 4.65634 5.09417 4.1769C5.17027 3.47071 5.26221 3.03662 5.37 2.87465C5.48414 2.7062 5.68388 2.53127 5.96922 2.34986C6.25456 2.16197 6.47015 2.06803 6.61599 2.06803C6.98377 2.06803 7.26277 2.22028 7.453 2.52479C7.64956 2.8293 7.74785 3.20183 7.74785 3.6424L7.06303 6.60649Z" fill="black"/>
<path d="M12.2734 14.6824C12.3431 14.3649 12.397 13.7948 12.4351 12.972C12.5809 10.7173 12.8536 8.35902 13.253 5.89705C13.3545 5.37874 13.4052 4.98353 13.4052 4.71141C13.4052 4.59479 13.3545 4.52352 13.253 4.49761C12.5809 4.32268 12.2448 4.02141 12.2448 3.59381C12.2448 3.28282 12.3812 2.99127 12.6538 2.71916C12.9328 2.44056 13.2277 2.30127 13.5384 2.30127L14.8224 2.34014C15.4058 2.34014 16.2079 2.29803 17.2288 2.2138C18.0975 2.13606 18.8045 2.09718 19.3498 2.09718C21.1189 2.09718 22.5488 2.60578 23.6394 3.62296C24.7364 4.63367 25.2849 5.97479 25.2849 7.64635C25.2849 9.51226 24.4416 11.2 22.7549 12.7096C21.0682 14.2127 19.0264 15.2396 16.6296 15.7903C15.9955 15.9328 15.5484 16.0559 15.2885 16.1596C15.0285 16.2633 14.7241 16.4285 14.3754 16.6552C13.9442 16.9597 13.5193 17.112 13.1008 17.112C12.7775 17.112 12.4889 16.9533 12.2353 16.6358C11.9817 16.3183 11.8549 16.0592 11.8549 15.8583C11.8549 15.7223 11.9214 15.5247 12.0546 15.2655L12.2734 14.6824ZM14.7558 14.1965C15.0919 14.1965 16.0525 13.9471 17.6378 13.4482C19.2293 12.9428 20.5197 12.1686 21.5089 11.1255C22.4981 10.0824 22.9927 8.89353 22.9927 7.55888C22.9927 6.48987 22.6249 5.64113 21.8894 5.01268C21.1602 4.37775 20.2027 4.06028 19.0169 4.06028C18.2053 4.06028 17.2288 4.13803 16.0874 4.29352C15.9416 4.31296 15.8243 4.32592 15.7355 4.3324C15.0443 8.66029 14.6988 11.7151 14.6988 13.4968C14.6988 13.8272 14.7178 14.0604 14.7558 14.1965Z" fill="black"/>
<path d="M40.0066 4.19634L37.0771 4.35183C36.0562 4.41014 35.178 4.50409 34.4425 4.63367C33.7069 4.75676 33.3074 4.85395 33.244 4.92522C33.187 4.99 33.1457 5.18761 33.1204 5.51803C33.0887 5.84198 32.9745 6.41212 32.778 7.22846C32.6195 7.85043 32.5243 8.35902 32.4926 8.75424C32.8985 8.75424 33.4818 8.71212 34.2427 8.6279C35.0036 8.54367 35.5426 8.46269 35.8597 8.38494C36.7728 8.15818 37.4798 8.0448 37.9807 8.0448C38.9826 8.0448 39.4835 8.34931 39.4835 8.95832C39.4835 9.40536 39.344 9.71635 39.065 9.89128C38.786 10.0597 38.3485 10.1764 37.7524 10.2411C37.3846 10.28 36.9725 10.3383 36.5159 10.4161C36.275 10.4549 35.9738 10.4938 35.6124 10.5327C33.8559 10.74 32.8192 10.902 32.5021 11.0186H32.4926C32.3848 11.051 32.3024 11.1255 32.2453 11.2421C32.1946 11.3587 32.0995 11.8414 31.96 12.6902C31.8205 13.5324 31.7507 14.122 31.7507 14.4589C31.7825 14.6986 31.9283 14.8185 32.1883 14.8185C32.4926 14.8185 33.2916 14.7342 34.5851 14.5658C35.885 14.3909 36.6903 14.271 37.001 14.2062C37.8697 14.0183 38.4372 13.9244 38.7036 13.9244C39.5089 14.041 39.9115 14.4233 39.9115 15.0711C39.9115 15.3692 39.8164 15.5959 39.6262 15.7514C38.9921 16.043 38.1139 16.2244 36.9915 16.2957C36.1228 16.3475 35.0702 16.4576 33.8337 16.6261C32.7304 16.8658 31.6905 16.9857 30.714 16.9857C30.2004 16.9857 29.8294 16.8723 29.6012 16.6455C29.3729 16.4252 29.2366 16.0786 29.1922 15.6057L29.1637 15.2849C29.1573 15.2331 29.2112 15.0355 29.3253 14.6921C29.579 13.8952 29.8897 12.1233 30.2575 9.37621C30.6252 6.62916 30.8091 5.10015 30.8091 4.78916C30.8091 4.78268 30.7901 4.75676 30.7521 4.71141C30.7077 4.67254 30.6316 4.54944 30.5238 4.34212C30.4223 4.12831 30.3716 3.91127 30.3716 3.69099C30.3716 3.57437 30.3843 3.48042 30.4096 3.40916C30.435 3.2731 30.5713 3.13704 30.8186 3.00099C31.0659 2.86493 31.2974 2.7969 31.513 2.7969C31.811 2.7969 32.1122 2.81634 32.4165 2.85521C32.9428 2.85521 34.6549 2.66085 37.5527 2.27211C38.5165 2.14254 39.0206 2.07775 39.065 2.07775L39.1982 2.06803C40.3395 1.9838 40.9102 2.35958 40.9102 3.19535C40.9102 3.35085 40.8056 3.54521 40.5963 3.77845C40.3934 4.00521 40.1968 4.14451 40.0066 4.19634Z" fill="black"/>
<path d="M46.929 13.108C46.8212 13.3802 46.4883 13.9827 45.9303 14.9157C45.3786 15.8421 44.995 16.3572 44.7794 16.4609C44.5638 16.571 44.3736 16.6261 44.2087 16.6261C43.9805 16.6261 43.7046 16.4997 43.3813 16.2471C43.0642 15.9879 42.9057 15.7223 42.9057 15.4502C42.9057 15.1975 43.7015 13.8337 45.293 11.3587C46.1617 10.0047 46.9544 8.66353 47.6709 7.33536C49.1103 4.6531 49.9885 3.09493 50.3055 2.66085C50.6289 2.22028 50.9586 2 51.2947 2C51.8337 2 52.2237 2.14254 52.4646 2.42761C52.5851 2.51831 52.6453 2.73535 52.6453 3.07873C52.6453 3.33141 52.6231 3.5355 52.5788 3.69099C53.7391 7.30621 54.6459 9.86536 55.299 11.3685C55.9585 12.8651 56.6179 13.9503 57.2774 14.6241C57.6071 14.961 57.8068 15.1878 57.8766 15.3044C57.9527 15.421 57.9907 15.5765 57.9907 15.7709C57.9907 16.1272 57.8639 16.4252 57.6103 16.665C57.3566 16.9111 57.0554 17.0342 56.7067 17.0342C56.2248 17.0342 55.7334 16.7492 55.2324 16.179C54.7378 15.6089 54.2686 14.8249 53.8247 13.8272C53.3872 12.8295 53.1685 12.269 53.1685 12.1459C53.1685 12.12 53.1526 12.1071 53.1209 12.1071C52.7785 12.1071 52.0144 12.2302 50.8287 12.4764C49.6492 12.7226 48.7013 12.9623 47.9848 13.1955C47.8009 13.2538 47.6392 13.283 47.4997 13.283C47.2524 13.283 47.0622 13.2247 46.929 13.108ZM52.4075 10.1342C52.2554 9.75198 51.8052 8.39142 51.0569 6.05254C50.9872 5.83874 50.9396 5.70268 50.9143 5.64437L48.213 10.8923C48.6125 10.821 49.0215 10.7562 49.44 10.6979C49.719 10.6655 50.4292 10.5294 51.5705 10.2897C51.8495 10.2314 52.1285 10.1796 52.4075 10.1342Z" fill="black"/>
</g>
<defs>
<filter id="filter0_di" x="0" y="0" width="66.0002" height="82" filterUnits="userSpaceOnUse" color-interpolation-filters="sRGB">
<feFlood flood-opacity="0" result="BackgroundImageFix"/>
<feColorMatrix in="SourceAlpha" type="matrix" values="0 0 0 0 0 0 0 0 0 0 0 0 0 0 0 0 0 0 127 0"/>
<feOffset dx="2" dy="2"/>
<feGaussianBlur stdDeviation="2"/>
<feColorMatrix type="matrix" values="0 0 0 0 0 0 0 0 0 0 0 0 0 0 0 0 0 0 0.15 0"/>
<feBlend mode="normal" in2="BackgroundImageFix" result="effect1_dropShadow"/>
<feBlend mode="normal" in="SourceGraphic" in2="effect1_dropShadow" result="shape"/>
<feColorMatrix in="SourceAlpha" type="matrix" values="0 0 0 0 0 0 0 0 0 0 0 0 0 0 0 0 0 0 127 0" result="hardAlpha"/>
<feOffset dx="-2" dy="-2"/>
<feGaussianBlur stdDeviation="2"/>
<feComposite in2="hardAlpha" operator="arithmetic" k2="-1" k3="1"/>
<feColorMatrix type="matrix" values="0 0 0 0 0 0 0 0 0 0 0 0 0 0 0 0 0 0 0.2 0"/>
<feBlend mode="normal" in2="shape" result="effect2_innerShadow"/>
</filter>
<filter id="filter1_f" x="0" y="26.7602" width="29.7048" height="35.4981" filterUnits="userSpaceOnUse" color-interpolation-filters="sRGB">
<feFlood flood-opacity="0" result="BackgroundImageFix"/>
<feBlend mode="normal" in="SourceGraphic" in2="BackgroundImageFix" result="shape"/>
<feGaussianBlur stdDeviation="1" result="effect1_foregroundBlur"/>
</filter>
<filter id="filter2_f" x="32.2954" y="26.7602" width="29.7048" height="35.4981" filterUnits="userSpaceOnUse" color-interpolation-filters="sRGB">
<feFlood flood-opacity="0" result="BackgroundImageFix"/>
<feBlend mode="normal" in="SourceGraphic" in2="BackgroundImageFix" result="shape"/>
<feGaussianBlur stdDeviation="1" result="effect1_foregroundBlur"/>
</filter>
</defs>
</svg>
