<svg version="1.1" id="Слой_1" xmlns="http://www.w3.org/2000/svg" xmlns:xlink="http://www.w3.org/1999/xlink" x="0" y="0" viewBox="0 0 225 216" xml:space="preserve"><style>.st12{fill:#8fb1db}</style><linearGradient id="SVGID_1_" gradientUnits="userSpaceOnUse" x1="34.135" y1="119.992" x2="168.202" y2="-63.055" gradientTransform="matrix(1 0 0 -1 0 216)"><stop offset="0" stop-color="#b4d1fa" stop-opacity="0"/><stop offset="1" stop-opacity=".2"/></linearGradient><path d="M52.5 86L2 97.4l65.1 82.8L93.8 209l48.2-11L52.5 86z" fill="url(#SVGID_1_)"/><path d="M142.6 50.1c-.4-1.6-1-3-1.8-4.5-1-1.8-2.4-4.1-4-5.6-.8-.8-1.7-1.3-2.4-1.5-.8-.2-1.7-.1-2.3.6-.4.3-.6.7-.9 1.3-.3.5-.4 1.3-.7 2.1-.4 1.5-.6 3.4-.7 5.3-.3 3.8-.2 7.6-.2 8.9 0 .4 0 .8-.1 1.2-.7 3.6-4.6 23.2-12.2 35.9-2 3.2-3 7.5-3.7 12.4-.7 4.8-.8 10.2-.7 15.4.2 10.4 1.5 19.8 2.1 23.1.1.8.1 1.7 0 2.5 0 .3-.1.5-.1.8-.4 2.7-1.1 7.1-3.7 13.5-2.8 7.1-8 16.7-17.7 29.3-1.2 1.6-2.1 3.8-2.5 6.2-.4 2.3-.5 4.7-.2 6.8.6 3.7 3.4 8 9.7 10.1 6.3 2.1 16.1 1.8 30.6-3.8 7.7-2.9 14.2-8.4 18.1-15.8 1.3-2.1 2.1-4.6 2.1-7.1 0-2.1.5-5 1.5-8s2.2-6.1 3.9-8.7c.6-1 1.2-2.1 2-3.2l.1-.2 2.1-3.6c1.5-2.3 3.1-4.6 5.1-6.1 4.4-3.4 10.3-8.5 15-13.8 2.4-2.6 4.6-5.3 6.2-7.8 1.6-2.5 2.6-4.7 2.8-6.6.1-1.1.7-2.3 1.6-3.7.4-.6.9-1.3 1.3-2 .1-.1.1-.2.2-.2.5-.8 1.1-1.6 1.6-2.4 2.1-3.4 4-7.3 3.2-12 0-.3-.1-.4 0-.6 0-.2.1-.3.2-.4.1-.1.2-.1.4-.1s.3 0 .4.1c.4.1.8.3 1.3.5 0 0 .1 0 .1.1.4.2 1 .4 1.6.6 1.2.4 2.6.8 4 .6 1.4-.2 2.8-.9 4-2.7.5-2.9-.8-5.1-2.6-7-.9-.9-1.9-1.7-2.8-2.5l-.1-.1c-1-.8-1.9-1.5-2.4-2.2-3.7-4.3-8.5-7.1-11.8-9.1l-.1-.1c-.8-.4-1.5-.9-2.1-1.3-.6-.4-1.2-.7-1.4-1.1-.4-.4-.5-.6-.4-.9 0-.3.3-.5.8-.8l11.7.4.1.1c.1.1.2.3.4.5.4.5 1.2 1.6 2.6 3.7.4.5.9 1.3 1.3 2.2.2.4.4.8.7 1.2.8 1.3 1.8 2.9 2.9 4.3 2.5 2.8 6.3 5 12.7 4.5.1-.1.3-.2.4-.3.1-.1.3-.2.4-.3.3-.2.4-.4.5-1 .1-.5.1-1.2 0-1.8V95c-.1-1.5-1-3-2.1-4.6-.3-.4-.4-.7-.7-1-1-1.4-2.1-2.9-2.9-4.6-4-6.5-8.7-10.4-10.8-11.8-3.6-1.3-5.5-2.6-6.4-3.5-.5-.4-.8-.8-1-1.1-.1-.1-.2-.3-.2-.3v-.2h.1c2.7-.2 5.5-.1 8.2.4 1.2.1 2.1.4 3.2.8l-65.5-19zm0 0l65.2 19.3-65.2-19.3zm0 0l2.1 8.6-2.1-8.6zm0 0l2.1 8.6-2.1-8.6zm65.2 19.3c1.8.7 5.1 1.8 8.3 2 3.2.2 6.3-.5 7.8-3.5l-16.1 1.5zm0 0c3.6 1.3 13.4 4.5 16.2-1.5l-16.2 1.5zm16.1-1.6c.3-.5.3-1.2.2-1.7-.2-.5-.4-1.1-.9-1.4-1.9-1.5-5.4-4.4-8.9-7.1-1.8-1.3-3.5-2.6-5.1-3.7-1.5-1.1-2.8-1.9-3.7-2.2-.8-.4-2-.9-2.9-1.4-.5-.3-1-.4-1.3-.6-.2-.1-.3-.2-.4-.2l-.1-.1 23.1 18.4zm.1 0l-79.1-9.3 79.1 9.3zm-79.2-9.2s0 0 0 0h.2c.1 0 .3-.1.4-.1.4-.1 1-.3 1.7-.5 1.4-.4 3.4-1.1 5.9-1.8 4.9-1.5 11.3-3.7 17.9-5.9 6.5-2.3 13.1-4.8 18.2-7.1 2.5-1.2 4.6-2.2 6.2-3.3.8-.5 1.4-1 1.9-1.4.4-.4.8-.9.9-1.3l-53.3 21.4zm53.1-21.5c.6-2.6 2.8-5.2 5.4-7.4 2.4-2.2 5.3-4.1 6.9-5.2.4-.2 1.2-.5 1.9-.8.4-.1.8-.2 1.1-.3h.4c.1 0 .2.1.3.1 1.4 1.4 2.6 3 2.9 5 .3 2-.3 4.3-2.2 7.2l-16.7 1.4zm16.3-1.2c-2.9 3.4-6.3 6.8-8.9 9.3-1.3 1.3-2.4 2.3-3.3 3-.4.4-.7.6-1 .9l-.3.3-.1.1 13.6-13.6zm-13.4 13.5c.1 0 .1 0 0 0 .4.2 3.4 1.7 4.8 2.3l-4.8-2.3zm.1 0c.6-.5 7.9-7.1 13.5-13.6l-13.5 13.6zm0 0l6.6-13.6 2.5-11.3c.6-.4 3-1.4 3.6-.9 2.9 2.9 4.6 6.3.6 12.3l-13.3 13.5z" fill="#f9c8a3" stroke="#795438" stroke-width=".081"/><path d="M223.9 67.8l-15.3 1.8c-.4 0-.9-.3-1.2-.4l-1.5-.4c-.1 0 .1 0 0 0l-4-.6-45.3-6.3c-4-.5-4.2-6.3-.3-7.1.2 0 .4-.1.5-.2l18.4-7.1c.1 0 .2-.1.3-.1l21.4-10c.3-.2.6-.4.8-.5l12-12.2c1.3-1.3 5.2 8.3 4 11.4 0 .1-4.8 5.3-4.9 5.4l-7 6.4c-.1.1-.8.6-.9.7-.4 1.2-1.9.4 1 1.7L222.4 66c.8.3 1.3 1 1.5 1.8z" fill="#f9c8a3"/><linearGradient id="SVGID_2_" gradientUnits="userSpaceOnUse" x1="143.596" y1="168.313" x2="145.125" y2="192.817" gradientTransform="matrix(1 0 0 -1 0 216)"><stop offset="0" stop-color="gray"/><stop offset=".01" stop-color="#727272"/><stop offset=".06" stop-color="#4f4f4f"/><stop offset=".1" stop-color="#323232"/><stop offset=".15" stop-color="#1c1c1c"/><stop offset=".2" stop-color="#0c0c0c"/><stop offset=".26" stop-color="#030303"/><stop offset=".34"/><stop offset=".7"/><stop offset=".75" stop-color="#050505"/><stop offset=".8" stop-color="#131313"/><stop offset=".86" stop-color="#2a2a2a"/><stop offset=".92" stop-color="#4b4b4b"/><stop offset=".98" stop-color="#747474"/><stop offset="1" stop-color="gray"/></linearGradient><path d="M143.9 23.8L142.4 47c0 .4.2.7.6.7l1.2.1c.3 0 .6-.2.7-.6l1.5-23.3c0-.4-.2-.7-.6-.7l-1.2-.1c-.4 0-.7.3-.7.7z" fill="url(#SVGID_2_)"/><linearGradient id="SVGID_3_" gradientUnits="userSpaceOnUse" x1="129.006" y1="-66.878" x2="130.181" y2="-47.986" gradientTransform="matrix(1 0 0 -1 0 216)"><stop offset="0" stop-color="gray"/><stop offset=".01" stop-color="#727272"/><stop offset=".06" stop-color="#4f4f4f"/><stop offset=".1" stop-color="#323232"/><stop offset=".15" stop-color="#1c1c1c"/><stop offset=".2" stop-color="#0c0c0c"/><stop offset=".26" stop-color="#030303"/><stop offset=".34"/><stop offset=".7"/><stop offset=".75" stop-color="#050505"/><stop offset=".8" stop-color="#131313"/><stop offset=".86" stop-color="#2a2a2a"/><stop offset=".92" stop-color="#4b4b4b"/><stop offset=".98" stop-color="#747474"/><stop offset="1" stop-color="gray"/></linearGradient><path d="M142.2 51l-.6 8.8c0 .4.2.7.6.7l1.2.1c.3 0 .6-.2.7-.6l.6-8.8c0-.4-.2-.7-.6-.7l-1.2-.1c-.4 0-.7.3-.7.6z" fill="url(#SVGID_3_)"/><linearGradient id="SVGID_4_" gradientUnits="userSpaceOnUse" x1="210.954" y1="142.484" x2="140.355" y2="146.887" gradientTransform="matrix(1 0 0 -1 0 216)"><stop offset="0" stop-color="#323232"/><stop offset=".03" stop-color="#1c1c1c"/><stop offset=".06" stop-color="#0c0c0c"/><stop offset=".1" stop-color="#030303"/><stop offset=".15"/><stop offset=".87"/><stop offset=".91" stop-color="#050505"/><stop offset=".95" stop-color="#131313"/><stop offset=".99" stop-color="#2a2a2a"/><stop offset="1" stop-color="#333"/></linearGradient><path d="M145.4 9.2L138 129.1c-.3 5.3 3.7 9.9 8.8 10.2l48.7 3.1c5.2.3 9.7-3.7 10.1-9L213 13.5c.3-5.3-3.7-9.9-8.8-10.2L155.5.2c-5.2-.4-9.8 3.7-10.1 9z" fill="url(#SVGID_4_)"/><linearGradient id="SVGID_5_" gradientUnits="userSpaceOnUse" x1="179.77" y1="212.818" x2="180.068" y2="217.776" gradientTransform="matrix(1 0 0 -1 0 216)"><stop offset="0"/><stop offset=".16" stop-color="#050505"/><stop offset=".34" stop-color="#131313"/><stop offset=".53" stop-color="#2a2a2a"/><stop offset=".74" stop-color="#4b4b4b"/><stop offset=".95" stop-color="#747474"/><stop offset="1" stop-color="gray"/></linearGradient><path d="M156.3 1l47.1 3c2.5.2 4.7 1.4 6.4 3.3 1.6 1.9 2.4 4.4 2.3 6.9v1.4c.2-2.5-.7-5-2.3-7-1.6-1.9-4-3.1-6.5-3.2l-47.1-3c-2.5-.2-4.9.7-6.8 2.3-1.8 1.6-3 4.1-3.2 6.6l.1-1.3c.1-1.3.4-2.5 1-3.7.6-1.2 1.4-2.1 2.2-3s2-1.5 3.2-1.9c1-.3 2.3-.5 3.6-.4z" fill="url(#SVGID_5_)"/><linearGradient id="SVGID_6_" gradientUnits="userSpaceOnUse" x1="172.053" y1="87.279" x2="171.461" y2="75.589" gradientTransform="matrix(1 0 0 -1 0 216)"><stop offset="0"/><stop offset=".16" stop-color="#050505"/><stop offset=".34" stop-color="#131313"/><stop offset=".53" stop-color="#2a2a2a"/><stop offset=".74" stop-color="#4b4b4b"/><stop offset=".95" stop-color="#747474"/><stop offset="1" stop-color="gray"/></linearGradient><path d="M194.8 141.6l-47-3c-1.3-.1-2.4-.4-3.6-1-1.2-.6-2.1-1.4-2.9-2.2-.8-1-1.5-2-1.8-3.2-.4-1.2-.6-2.4-.5-3.7l.1-1.4c-.2 2.5.7 5 2.3 7 1.6 1.9 4 3.1 6.5 3.2l47.1 3c2.5.2 4.9-.7 6.9-2.4 1.8-1.6 3-4.1 3.2-6.6l-.1 1.4c-.1 1.3-.4 2.5-1 3.7-.6 1.2-1.4 2.1-2.2 3-1 .9-2 1.5-3.2 1.8-1.3.3-2.6.5-3.8.4z" fill="url(#SVGID_6_)"/><path d="M211.1 14.2l-7.3 118.3c-.1 1-.3 1.8-.7 2.7-.4.9-1 1.6-1.7 2.2-.7.7-1.5 1.2-2.4 1.5-.9.3-1.8.4-2.8.4l-49.7-3.1c-1-.1-1.8-.3-2.7-.7-.9-.4-1.6-1-2.2-1.7-.6-.8-1.1-1.6-1.5-2.4-.3-.9-.4-1.8-.4-2.8L147 10.3c.1-1.7.8-3.3 1.9-4.6 1.2-1.3 2.7-2 4.5-2.2.4-.1.9-.1 1.3 0l8.7.6c.3 0 .5.1.8.2.2.1.5.3.6.5.2.2.3.5.4.7.1.3.1.5.1.8 0 .6.1 1.1.5 1.5.4.4.9.7 1.4.7l24.3 1.6c.6 0 1.1-.2 1.5-.5.4-.4.7-.9.7-1.5 0-.3.1-.5.2-.8.1-.2.3-.5.5-.7.2-.2.4-.3.7-.4.3-.1.5-.1.8-.1l8.7.6c1.8.1 3.7 1 4.9 2.4 1.1 1.3 1.7 3.1 1.6 5.1z" fill="#b4d1fa"/><linearGradient id="SVGID_7_" gradientUnits="userSpaceOnUse" x1="179.764" y1="214.53" x2="179.286" y2="206.875" gradientTransform="matrix(1 0 0 -1 0 216)"><stop offset="0"/><stop offset=".14" stop-color="#050505"/><stop offset=".3" stop-color="#131313"/><stop offset=".47" stop-color="#2a2a2a"/><stop offset=".65" stop-color="#4b4b4b"/><stop offset=".83" stop-color="#747474"/><stop offset="1" stop-color="#a1a1a1"/></linearGradient><path d="M187.1 7.5l-15.4-1c-.1 0-.2-.1-.3-.2s-.1-.2-.1-.3v-.2c0-.1.1-.1.1-.1l.1-.1h.2l15.4 1h.2c.1 0 .1.1.1.1s.1.1.1.2v.4c0 .1-.1.1-.1.1l-.1.1h-.2z" fill="url(#SVGID_7_)"/><linearGradient id="SVGID_8_" gradientUnits="userSpaceOnUse" x1="168.605" y1="131.574" x2="168.605" y2="126.312" gradientTransform="matrix(1 0 0 -1 0 216)"><stop offset="0"/><stop offset=".14" stop-color="#050505"/><stop offset=".3" stop-color="#131313"/><stop offset=".47" stop-color="#2a2a2a"/><stop offset=".65" stop-color="#4b4b4b"/><stop offset=".83" stop-color="#747474"/><stop offset="1" stop-color="#a1a1a1"/></linearGradient><path d="M168.6 6.6c.2 0 .3 0 .5-.1.1-.1.3-.2.3-.3.1-.1.1-.3.1-.5s-.1-.3-.2-.4c-.1-.1-.2-.2-.4-.3h-.5c-.2.1-.3.2-.4.3-.1.1-.2.3-.2.5v.3c0 .1.1.2.2.3.1.1.2.1.2.2h.4z" fill="url(#SVGID_8_)"/><linearGradient id="SVGID_9_" gradientUnits="userSpaceOnUse" x1="190.19" y1="129.652" x2="190.19" y2="124.354" gradientTransform="matrix(1 0 0 -1 0 216)"><stop offset="0"/><stop offset=".14" stop-color="#050505"/><stop offset=".3" stop-color="#131313"/><stop offset=".47" stop-color="#2a2a2a"/><stop offset=".65" stop-color="#4b4b4b"/><stop offset=".83" stop-color="#747474"/><stop offset="1" stop-color="#a1a1a1"/></linearGradient><path d="M190.1 8h.3c.1 0 .2-.1.3-.2.1-.1.2-.2.2-.3 0-.1.1-.2.1-.3v-.3c0-.1-.1-.2-.2-.3s-.2-.1-.3-.2c-.1 0-.2-.1-.3-.1h-.3c-.1 0-.2.1-.3.2-.1.1-.2.2-.2.3-.1.1-.1.2-.1.3v.3c0 .1.1.2.2.3.1.1.2.1.3.2.1.1.2.1.3.1z" fill="url(#SVGID_9_)"/><path class="st12" d="M149.4 22.1l-2.2 30.8c0 .3 0 .7.1 1 .1.3.3.6.5.9.2.3.5.5.8.6.3.2.6.2 1 .3l52.1 3.6c.3 0 .7 0 1-.1.3-.1.6-.3.9-.5.3-.2.5-.5.6-.8.1-.3.2-.6.3-1l1.9-31.4c0-.3 0-.7-.1-1-.1-.3-.3-.6-.5-.9-.2-.3-.5-.5-.8-.6-.3-.1-.6-.2-1-.3l-51.8-2.9c-.7 0-1.3.2-1.7.6-.7.4-1 1-1.1 1.7zm-2.5 36.4l-.3 2.5v.5c.1.2.1.3.2.5.1.1.2.2.4.3.2.1.3.1.5.1l54.4 3.8c.2 0 .3 0 .5-.1s.3-.1.4-.3c.1-.1.2-.2.3-.4.1-.2.1-.3.1-.5l.2-2.5c0-.2 0-.3-.1-.5s-.1-.3-.2-.4c-.1-.1-.2-.2-.4-.3-.2-.1-.3-.1-.5-.1l-54.3-3.8c-.3 0-.7.1-.9.3l-.3.9zm-.5 15.3l-2.2 30.8c0 .3 0 .7.1 1 .1.3.3.6.5.9.2.3.5.5.8.6.3.2.6.2 1 .3l52.1 3.6c.3 0 .7 0 1-.1.3-.1.6-.3.9-.5.3-.2.5-.5.6-.8.1-.3.2-.6.3-1l1.9-31.4c0-.3 0-.7-.1-1-.1-.3-.3-.6-.5-.9-.2-.3-.5-.5-.8-.6-.3-.1-.6-.2-1-.3l-51.8-2.9c-.7 0-1.3.2-1.7.6-.9.5-1.1 1.1-1.1 1.7z"/><path d="M211.1 14.2l-5.6 92.3-52.1-103c.4-.1.9-.1 1.3 0l8.7.6c.3 0 .5.1.8.2.2.1.5.3.6.5.2.2.3.5.4.7.1.3.1.5.1.8 0 .6.1 1.1.5 1.5.4.4.9.7 1.4.7l24.3 1.6c.6 0 1.1-.2 1.5-.5.4-.4.7-.9.7-1.5 0-.3.1-.5.2-.8.1-.2.3-.5.5-.7.2-.2.4-.3.7-.4.3-.1.5-.1.8-.1l8.7.6c1 0 1.8.3 2.7.7.9.4 1.6 1 2.2 1.7.6.8 1.2 1.6 1.5 2.4 0 .7.1 1.7.1 2.7z" fill="#d0e4ff" fill-opacity=".2"/><linearGradient id="SVGID_10_" gradientUnits="userSpaceOnUse" x1="152.693" y1="113.085" x2="191.621" y2="113.085" gradientTransform="matrix(.998 .06258 .0624 -.9981 -8.325 227.79)"><stop offset="0" stop-color="#8d2716"/><stop offset="1" stop-color="#c9081f"/></linearGradient><path d="M151.7 118.4l40.8 2.6c1.5.1 2.6 1.4 2.5 2.9l-.4 6.8c-.1 1.5-1.4 2.6-2.9 2.5l-40.8-2.6c-1.5-.1-2.6-1.4-2.5-2.9l.4-6.8c.1-1.5 1.4-2.6 2.9-2.5z" fill="url(#SVGID_10_)"/><path d="M158.3 127c.9.1 1.5-.3 1.6-1 0-.5-.4-.9-.8-.9.4 0 .8-.3.8-.8 0-.6-.5-1-1.4-1.1-.6 0-1.2.2-1.5.5l.4.5c.3-.2.7-.3 1-.3.4 0 .7.2.7.5s-.3.4-.8.3h-.7v.7h.7c.5 0 .8.2.8.5s-.3.4-.8.4c-.4 0-.8-.2-1-.5l-.4.5c.1.4.7.7 1.4.7zm5.7.3l-1.2-3.7-1-.1-1.6 3.5.9.1.3-.6 1.6.1.2.6.8.1zm-1.3-1.3l-1.1-.1.7-1.5.4 1.6zm5 1.6l-1.4-2 1.5-1.6-1-.1-1.4 1.5.1-1.6h-.8l-.2 3.6h.8l.1-1.1.3-.3 1 1.5 1 .1zm4 .2l-1.2-3.7-1-.1-1.6 3.5.9.1.3-.6 1.6.1.2.6.8.1zm-1.2-1.4l-1.1-.1.7-1.5.4 1.6zm3 1.6c.9.1 1.5-.3 1.6-1 0-.5-.4-.9-.8-.9.4 0 .8-.3.8-.8 0-.6-.5-1-1.4-1.1-.6 0-1.2.2-1.5.5l.4.5c.3-.2.7-.3 1-.3.4 0 .7.2.7.5s-.3.4-.8.3h-.7v.7h.7c.5 0 .8.2.8.5s-.3.4-.8.4c-.4 0-.8-.2-1-.5l-.4.5c.2.4.7.7 1.4.7zm5.7.3l-1.2-3.7-1-.1-1.6 3.5.9.1.3-.6 1.6.1.2.6.8.1zm-1.2-1.4l-1.1-.1.7-1.5.4 1.6zm3.1 1.5l.2-2.9 1.1.1v-.7l-2.9-.2v.7l1.1.1-.2 2.9h.7zm2.1-3.5l-.2 3.6 1.7.1c.8 0 1.3-.5 1.3-1.1 0-.6-.4-1.2-1.1-1.2l-.9-.1.1-1.3h-.9zm1.4 2.1c.3 0 .5.2.5.5s-.3.5-.6.5l-.8-.1.1-1 .8.1z" fill="#f5f9ff"/><defs><path id="SVGID_11_" transform="rotate(-85.995 161.078 13.975) scale(1.00004)" d="M156.8 2.4h8.6v23.2h-8.6z"/></defs><clipPath id="SVGID_12_"><use xlink:href="#SVGID_11_" overflow="visible"/></clipPath><g clip-path="url(#SVGID_12_)"><linearGradient id="SVGID_13_" gradientUnits="userSpaceOnUse" x1="158.238" y1="202.897" x2="164.63" y2="202.341" gradientTransform="matrix(1 0 0 -1 0 216)"><stop offset="0" stop-color="#b6142c"/><stop offset="1" stop-color="#a62e41"/></linearGradient><path d="M159.7 14.7c.7 0 1-.3 1.3-.6l-.5-.3c-.1.2-.4.4-.7.4-.5 0-.9-.5-.9-1s.5-.9 1-.9c.3 0 .6.2.7.5l.6-.2c-.2-.4-.5-.7-1.2-.8-.9-.1-1.6.5-1.7 1.4s.5 1.5 1.4 1.5z" fill="url(#SVGID_13_)"/><linearGradient id="SVGID_14_" gradientUnits="userSpaceOnUse" x1="158.241" y1="202.954" x2="164.632" y2="202.398" gradientTransform="matrix(1 0 0 -1 0 216)"><stop offset="0" stop-color="#b6142c"/><stop offset="1" stop-color="#a62e41"/></linearGradient><path d="M164.5 15l.2-2.9-.9-.1-.8 1.7-.6-1.8-.9-.1-.2 2.9h.6l.1-2 .7 2.1h.3l1-1.9-.1 2 .6.1z" fill="url(#SVGID_14_)"/><path d="M165.9 14.4l.1-.7c.1-.1.3-.2.5-.2.3 0 .5.3.5.6 0 .4-.3.6-.6.6-.2 0-.4-.1-.5-.3zm0 .7v-.3c.2.2.4.3.6.4.5 0 1-.3 1-1s-.3-1.1-.9-1.2c-.3 0-.5.1-.7.3l.1-1.1h-.6l-.2 2.9h.7zm3 .3c.7 0 1.2-.4 1.2-1s-.4-1.1-1.1-1.2c-.7 0-1.2.4-1.2 1s.4 1.1 1.1 1.2zm0-.5c-.4 0-.5-.3-.5-.6s.2-.6.6-.6c.4 0 .5.3.5.6s-.2.6-.6.6zm3.4.6l-.7-1.1.8-1h-.6l-.5.6-.4-.7h-.6l.6 1.1-.8 1h.6l.5-.7.4.7.7.1z" fill="#0a3d76"/><linearGradient id="SVGID_15_" gradientUnits="userSpaceOnUse" x1="151.759" y1="202.809" x2="155.642" y2="202.507" gradientTransform="matrix(1 0 0 -1 0 216)"><stop offset="0" stop-color="#1758a0"/><stop offset="1" stop-color="#0a3d76"/></linearGradient><path d="M153.8 10.7h.2l1.6 1.1c.1.1.1.2.1.2-.1.1-.2.1-.3.1l-1.6-1-1.7.8c-.1 0-.2 0-.2-.1s0-.2.1-.2l1.8-.9zm-.2 4c.1 0 .2.1.2.2l-.1.7 1.5-.7c.1 0 .2 0 .2.1s0 .2-.1.2l-1.7.8c-.1.1-.2 0-.4 0l-1.6-1c-.1-.1-.1-.2-.1-.2.1-.1.2-.1.3 0l1.4.9.1-.7c.1-.3.2-.3.3-.3z" fill-rule="evenodd" clip-rule="evenodd" fill="url(#SVGID_15_)"/><linearGradient id="SVGID_16_" gradientUnits="userSpaceOnUse" x1="151.202" y1="202.826" x2="156.004" y2="202.425" gradientTransform="matrix(1 0 0 -1 0 216)"><stop offset="0" stop-color="#cd1732"/><stop offset=".5" stop-color="#b6142c"/><stop offset="1" stop-color="#8b1022"/></linearGradient><path d="M156 12.2c.1 0 .1.1.1.2l-.2 2.4c0 .1-.1.2-.2.2s-.2-.1-.2-.2l.1-2.1-1.9.9v.6c0 .1-.1.2-.2.2s-.2-.1-.2-.2v-.6l-1.8-1.2-.1 2.1c0 .1-.1.2-.2.2s-.2-.1-.2-.2l.2-2.4c0-.1 0-.1.1-.2h.2l2.1 1.4 2.1-1c.2-.2.3-.2.3-.1z" fill-rule="evenodd" clip-rule="evenodd" fill="url(#SVGID_16_)"/><linearGradient id="SVGID_17_" gradientUnits="userSpaceOnUse" x1="150.09" y1="202.888" x2="156.802" y2="202.372" gradientTransform="matrix(1 0 0 -1 0 216)"><stop offset="0" stop-color="#b6142c"/><stop offset="1" stop-color="#a62e41"/></linearGradient><path d="M153.5 9.7c.3-.1.4-.2.7 0l2.5 1.7c.2.1.2.3.1.5s-.3.1-.5 0l-2.4-1.6-3.1 1.4-.2 3.2 2.8 1.8 2.6-1.2c.2-.1.5-.1.6 0 .1.2 0 .3-.2.4l-2.5 1.2c-.2.1-.6.1-.9-.1l-2.7-1.8c-.2-.1-.4-.2-.3-.5l.2-3.1c0-.3.1-.5.4-.6l2.9-1.3z" fill-rule="evenodd" clip-rule="evenodd" fill="url(#SVGID_17_)"/><path d="M158.6 16.3c.2 0 .4-.1.5-.2l-.2-.1c-.1.1-.2.1-.3.1-.2 0-.3-.2-.3-.4s.2-.3.4-.3c.1 0 .2.1.2.2l.2-.1c-.1-.1-.2-.3-.4-.3-.3 0-.6.2-.6.5s.2.6.5.6zm.8 0v-.5s.1-.1.2-.1h.1v-.2c-.1 0-.2 0-.3.1v-.1h-.2l-.1.8h.3zm.8.1c.1 0 .3 0 .3-.1l-.1-.1c-.1 0-.2.1-.2.1-.1 0-.2-.1-.2-.2h.6c0-.2-.1-.4-.4-.4-.2 0-.4.1-.4.4 0 .1.2.3.4.3zm.2-.5h-.4c0-.1.1-.2.2-.2.2.1.2.2.2.2zm1 .6V16c0-.2-.1-.3-.3-.3-.1 0-.3 0-.4.1l.1.1c.1-.1.2-.1.2-.1.1 0 .2.1.2.1v.1c0-.1-.1-.1-.2-.1s-.3 0-.3.2.1.3.3.3c.1 0 .2 0 .3-.1v.1l.1.1zm-.3-.2c-.1 0-.1-.1-.1-.1 0-.1.1-.1.2-.1s.1 0 .2.1v.1h-.3zm.8.2h.2v-.2h-.1s-.1 0-.1-.1v-.3h.2v-.2h-.2v-.2h-.2v.2h-.1v.2h.1v.4c0 .1.1.2.2.2zm.5-.8c.1 0 .1 0 .1-.1s0-.1-.1-.1-.1 0-.1.1c-.1 0 0 .1.1.1zm0 .8l.1-.8h-.2l-.1.8h.2zm.6.1l.4-.7h-.2l-.2.5-.2-.5h-.2l.3.8.1-.1zm.8.1c.1 0 .3 0 .3-.1l-.1-.1c-.1 0-.2.1-.2.1-.1 0-.2-.1-.2-.2h.6c0-.2-.1-.4-.4-.4-.2 0-.4.1-.4.4 0 .1.2.2.4.3zm.3-.5h-.4c0-.1.1-.2.2-.2s.2.1.2.2zm1.9.6l.1-1h-.3l-.3.6-.2-.6h-.3l-.1 1h.2l.1-.7.3.8h.1l.4-.7-.1.7.1-.1zm.9 0v-.5c0-.2-.1-.3-.3-.3-.1 0-.3 0-.4.1l.1.1c.1-.1.2-.1.2-.1.1 0 .2.1.2.1v.1c0-.1-.1-.1-.2-.1s-.3 0-.3.2.1.3.3.3c.1 0 .2 0 .3-.1v.1l.1.1zm-.4-.1c-.1 0-.1-.1-.1-.1 0-.1.1-.1.2-.1s.1 0 .2.1v.1h-.3zm.8.2v-.5s.1-.1.2-.1h.1v-.2c-.1 0-.2 0-.3.1v-.1h-.2l-.1.8h.3zm1.2.1l-.3-.4.3-.3h-.3l-.3.3V16h-.2l-.1 1h.2v-.2l.1-.1.2.3h.4zm.5 0c.1 0 .3 0 .3-.1l-.1-.1c-.1 0-.2.1-.2.1-.1 0-.2-.1-.2-.2h.6c0-.2-.1-.4-.4-.4-.2 0-.4.1-.4.4-.1.1.1.3.4.3zm.2-.4h-.4c0-.1.1-.2.2-.2s.2.1.2.2zm.6.5h.2v-.2h-.1s-.1 0-.1-.1v-.3h.2v-.2h-.2v-.2h-.2v.2h-.1v.2h.1v.4c-.1.1 0 .2.2.2zm.4-.9c.1 0 .1 0 .1-.1s0-.1-.1-.1-.1 0-.1.1 0 .1.1.1zm.1.9l.1-.8h-.2l-.1.8h.2zm.9.1v-.5c0-.1-.1-.2-.2-.3-.1 0-.2 0-.3.1v-.1h-.2l-.1.8h.2v-.5s.1-.1.2-.1.1 0 .1.2v.5l.3-.1zm.5.3c.2 0 .4 0 .5-.3v-.7h-.2v.1c-.1-.1-.1-.1-.2-.1-.2 0-.4.1-.4.4 0 .3.1.4.3.4.1 0 .2 0 .3-.1v.1c0 .1-.1.2-.2.2s-.2 0-.2-.1l-.1.1c0-.1.1 0 .2 0zm.1-.5c-.1 0-.2-.1-.2-.2s.1-.2.2-.2.1 0 .2.1v.2c0 .1-.1.1-.2.1z" fill="#b01e34"/></g><path class="st12" d="M144 110.4l-.3 2.5v.5c.1.2.1.3.2.5.1.1.2.2.4.3.2.1.3.1.5.1l54.4 3.8c.2 0 .3 0 .5-.1s.3-.1.4-.3c.1-.1.2-.2.3-.4.1-.2.1-.3.1-.5l.2-2.5c0-.2 0-.3-.1-.5s-.1-.3-.2-.4c-.1-.1-.2-.2-.4-.3-.2-.1-.3-.1-.5-.1l-54.3-3.8c-.3 0-.7.1-.9.3-.1.4-.2.7-.3.9z"/></svg>