<svg width="778" height="522" viewBox="0 0 778 522" fill="none" xmlns="http://www.w3.org/2000/svg">
<path d="M776.7 211L754.4 233.3C754 233.7 753.5 233.7 753.1 233.3L730.9 211C730.5 210.6 730.5 210.1 730.9 209.7L753.2 187.4C753.6 187 754.1 187 754.5 187.4L776.8 209.7C777.1 210 777.1 210.6 776.7 211Z" stroke="#E0E0E0" stroke-width="1.7064" stroke-miterlimit="10"/>
<path d="M766.5 210.4L753.8 223.1L741.1 210.4L753.8 197.6L766.5 210.3C766.5 210.2 766.5 210.3 766.5 210.4C766.5 210.3 766.5 210.3 766.5 210.4Z" fill="#EBF2F9"/>
<path d="M766.5 210.4L753.8 223.1L741.1 210.4L753.8 197.6L766.5 210.3C766.5 210.2 766.5 210.3 766.5 210.4ZM766.5 210.4C766.5 210.3 766.5 210.3 766.5 210.4Z" stroke="#EBF2F9"/>
<path d="M534.4 61.1C534.8 61.1 535 61.3 535 61.6C535 62 534.5 62.6 533.4 63.2C532.3 63.8 531.3 64.2 530.3 64.2C529.4 64.2 528.6 63.9 527.8 63.3C527 62.7 526.7 61.9 526.7 60.8C526.7 59.7 527.1 58.4 527.9 57.1C528.7 55.7 529.7 54.6 530.8 53.8C532 52.9 533.1 52.5 534.2 52.5C534.9 52.5 535.4 52.7 535.8 53.1C536.2 53.5 536.4 53.9 536.4 54.5C536.4 55.1 536.4 55.5 536.3 55.7C536.2 55.9 536 56.1 535.7 56.3C535.4 56.5 535.2 56.6 535 56.6C534.8 56.6 534.7 56.5 534.5 56.4C534.4 56.3 534.3 56.1 534.3 55.9C534.3 55.7 534.3 55.5 534.4 55.2C534.5 54.9 534.5 54.7 534.5 54.5C534.5 54.2 534.4 54 534.2 54C533.5 54 532.7 54.4 531.8 55.1C530.9 55.8 530.2 56.8 529.5 57.9C528.9 59 528.6 60 528.6 60.8C528.6 61.4 528.8 61.8 529.1 62.2C529.4 62.6 529.9 62.8 530.5 62.8C530.9 62.8 531.3 62.7 531.9 62.5C532.5 62.3 533 62 533.5 61.7C533.9 61.3 534.2 61.1 534.4 61.1Z" fill="black"/>
<path d="M539.9 54.9L539.8 54.7C539.6 54.5 539.6 54.3 539.6 54.2C539.6 54 539.7 53.8 540 53.6C540.2 53.4 540.5 53.3 540.7 53.3C540.8 53.3 540.9 53.3 541 53.3C541.1 53.3 541.2 53.3 541.3 53.3C542.7 53.1 543.8 53 544.3 53C545.4 53 546.3 53.3 546.9 53.8C547.5 54.3 547.9 54.9 547.9 55.7C547.9 56.4 547.6 57.1 547 57.7C546.4 58.3 545.5 58.9 544.5 59.3C546.2 60.7 547.6 61.6 548.5 62.2C548.8 62.4 549 62.6 549 62.9C549 63.1 548.9 63.3 548.7 63.5C548.5 63.7 548.3 63.8 548.1 63.8C547.8 63.8 547.5 63.7 547.1 63.4C546.7 63.2 546.2 62.8 545.6 62.3C544.9 61.8 544.6 61.5 544.5 61.4C543.6 60.6 542.9 60.1 542.5 59.9C542 59.9 541.7 59.6 541.7 59.1C541.7 58.9 541.8 58.7 542 58.5C542.2 58.3 542.5 58.2 542.8 58.2C542.9 58.2 543 58.2 543.1 58.2C543.2 58.2 543.3 58.2 543.3 58.2C543.6 58.2 544.2 57.9 545 57.4C545.8 56.9 546.3 56.3 546.3 55.6C546.3 55.3 546.1 55 545.8 54.7C545.4 54.5 545 54.3 544.4 54.3C543.7 54.3 543.2 54.3 542.8 54.4C542.4 54.5 542.2 54.5 542.1 54.6C542.1 54.6 542 54.7 542 54.8C542 54.9 541.8 55.4 541.7 56.3C541.5 57.2 541.4 58.1 541.3 59.2C541.2 60.2 541.1 61 541.1 61.5C541.1 61.8 541.1 62.1 541.2 62.3C541.2 62.6 541.3 62.8 541.3 63C541.3 63.2 541.2 63.4 541 63.6C540.8 63.8 540.6 63.9 540.3 63.9C539.6 63.9 539.3 63.4 539.3 62.5C539.3 61.7 539.4 60.7 539.6 59.3C539.8 57.9 540 56.7 540.2 55.7C540.2 55.5 540.3 55.4 540.3 55.3L539.9 54.9Z" fill="black"/>
<path d="M559.7 54.6001L557.4 54.7001C556.6 54.7001 555.9 54.8001 555.4 54.9001C554.8 55.0001 554.5 55.1001 554.5 55.1001C554.5 55.1001 554.4 55.3001 554.4 55.5001C554.4 55.7001 554.3 56.2001 554.1 56.8001C554 57.3001 553.9 57.6001 553.9 57.9001C554.2 57.9001 554.7 57.9001 555.3 57.8001C555.9 57.7001 556.3 57.7001 556.6 57.6001C557.3 57.4001 557.9 57.3001 558.2 57.3001C559 57.3001 559.4 57.5001 559.4 58.0001C559.4 58.3001 559.3 58.6001 559.1 58.7001C558.9 58.8001 558.5 58.9001 558.1 59.0001C557.8 59.0001 557.5 59.1001 557.1 59.1001C556.9 59.1001 556.7 59.2001 556.4 59.2001C555 59.4001 554.2 59.5001 554 59.6001C553.9 59.6001 553.9 59.7001 553.8 59.8001C553.8 59.9001 553.7 60.2001 553.6 60.9001C553.5 61.5001 553.4 62.0001 553.4 62.2001C553.4 62.4001 553.5 62.5001 553.7 62.5001C553.9 62.5001 554.6 62.4001 555.6 62.3001C556.6 62.2001 557.2 62.1001 557.5 62.0001C558.2 61.9001 558.6 61.8001 558.8 61.8001C559.4 61.9001 559.7 62.2001 559.7 62.7001C559.7 62.9001 559.6 63.1001 559.5 63.2001C559 63.4001 558.3 63.6001 557.5 63.6001C556.8 63.6001 556 63.7001 555.1 63.8001C554.2 64.0001 553.4 64.1001 552.7 64.1001C552.3 64.1001 552 64.0001 551.8 63.8001C551.6 63.6001 551.5 63.4001 551.5 63.0001V62.8001C551.5 62.8001 551.5 62.6001 551.6 62.4001C551.8 61.8001 552 60.5001 552.3 58.4001C552.6 56.4001 552.7 55.2001 552.7 55.0001C552.7 55.0001 552.7 55.0001 552.7 54.9001C552.7 54.9001 552.6 54.8001 552.5 54.6001C552.4 54.4001 552.4 54.3001 552.4 54.1001C552.4 54.0001 552.4 53.9001 552.4 53.9001C552.4 53.8001 552.5 53.7001 552.7 53.6001C552.9 53.5001 553.1 53.4001 553.2 53.4001C553.4 53.4001 553.7 53.4001 553.9 53.4001C554.3 53.4001 555.6 53.3001 557.9 53.0001C558.6 52.9001 559 52.9001 559.1 52.9001H559.2C560.1 52.8001 560.5 53.1001 560.5 53.7001C560.5 53.8001 560.4 54.0001 560.3 54.1001C560 54.5001 559.9 54.6001 559.7 54.6001Z" fill="black"/>
<path d="M565.1 61.3C565 61.5 564.8 62 564.3 62.6C563.9 63.3 563.6 63.7 563.4 63.8C563.2 63.9 563.1 63.9 563 63.9C562.8 63.9 562.6 63.8 562.4 63.6C562.2 63.4 562 63.2 562 63C562 62.8 562.6 61.8 563.8 59.9C564.5 58.9 565.1 57.9 565.6 56.9C566.7 54.9 567.4 53.7 567.6 53.4C567.9 53.1 568.1 52.9 568.4 52.9C568.8 52.9 569.1 53 569.3 53.2C569.4 53.3 569.4 53.4 569.4 53.7C569.4 53.9 569.4 54 569.3 54.2C570.2 56.9 570.9 58.8 571.4 59.9C571.9 61 572.4 61.8 572.9 62.3C573.2 62.6 573.3 62.7 573.4 62.8C573.5 62.9 573.5 63 573.5 63.1C573.5 63.4 573.4 63.6 573.2 63.8C573 64 572.8 64.1 572.5 64.1C572.1 64.1 571.7 63.9 571.4 63.5C571 63.1 570.7 62.5 570.3 61.7C570 61 569.8 60.5 569.8 60.4C569.5 60.4 568.9 60.5 568 60.7C567.1 60.9 566.4 61.1 565.8 61.2C565.7 61.2 565.5 61.3 565.4 61.3C565.3 61.4 565.2 61.3 565.1 61.3ZM569.3 59C569.2 58.7 568.8 57.7 568.3 56C568.2 55.8 568.2 55.7 568.2 55.7L566.1 59.6C566.4 59.5 566.7 59.5 567 59.5C567.2 59.5 567.8 59.4 568.6 59.2C568.9 59.1 569.1 59.1 569.3 59Z" fill="black"/>
<path d="M581.1 55C581.1 55 581 55.1 581 55.3C581 55.5 580.9 56.3 580.7 57.8C580.5 59.3 580.5 60.5 580.5 61.4C580.5 61.8 580.5 62.2 580.6 62.6C580.6 62.7 580.6 62.7 580.6 62.8C580.6 63.1 580.5 63.3 580.4 63.5C580.2 63.7 580.1 63.8 579.8 63.8C579.6 63.8 579.4 63.7 579.2 63.6C579 63.4 578.8 63.2 578.8 62.8C578.8 62.4 578.7 61.9 578.7 61.3C578.7 60.5 578.8 59.2 579 57.6C579.2 56 579.3 55.1 579.4 55.1C579.3 55.1 578.7 55.1 577.8 55.2C576.8 55.3 576.3 55.3 576.1 55.3C575.6 55.3 575.2 55.2 575 55.1C574.8 55 574.7 54.8 574.7 54.5C574.7 54.3 574.8 54.1 575 53.9C575.2 53.8 575.7 53.7 576.6 53.7C578 53.7 579.4 53.6 580.8 53.4C582.3 53.2 583.5 53.1 584.3 53.1C585.2 53.1 585.7 53.2 585.9 53.4C586.1 53.6 586.2 53.8 586.2 54C586.2 54.5 586 54.7 585.6 54.7C585.5 54.7 585.2 54.7 584.9 54.7C584.6 54.7 584.2 54.7 583.8 54.7C582.4 54.7 581.5 54.8 581.1 55Z" fill="black"/>
<path d="M589.7 56.4C589.6 56.8 589.5 57.2 589.5 57.5C589.5 57.6 589.5 58 589.4 58.6C589.2 59.6 589.2 60.3 589.2 60.7C589.2 61.3 589.2 62 589.3 62.6C589.4 63 589.3 63.4 589 63.6C588.8 63.8 588.5 63.9 588.3 63.9C588 63.9 587.7 63.8 587.6 63.5C587.5 63.2 587.4 62.7 587.4 61.9C587.4 61.4 587.5 60.4 587.7 58.7L588.1 55.9C588.2 55.5 588.2 55.1 588.3 54.7C588.4 54.2 588.4 53.8 588.5 53.7C588.6 53.6 588.7 53.4 589 53.3C589.2 53.2 589.4 53.1 589.5 53.1C589.8 53.1 590 53.2 590.1 53.4C590.3 53.6 590.3 53.9 590.3 54.2L589.7 56.4Z" fill="black"/>
<path d="M604.2 53.6C604.2 53.6 604 53.9 603.7 54.5C603.1 55.3 602.7 55.9 602.3 56.5C602 57 601.3 58.1 600.4 59.6C599.8 60.5 599.5 61.1 599.3 61.4C598.8 62.1 598.6 62.6 598.5 63C598.4 63.2 598.3 63.4 598 63.6C597.7 63.7 597.4 63.8 597.1 63.8C596.9 63.8 596.8 63.7 596.6 63.4C596.5 63.2 596.3 62.7 596 62C595.7 61.2 595.3 60.1 594.7 58.8C593.6 56 593 54.6 593 54.5C593 54.3 593.1 54.1 593.3 53.8C593.5 53.5 593.7 53.4 594 53.4C594.2 53.4 594.5 53.5 594.7 53.7C594.9 53.9 595.1 54.4 595.2 55.1C595.3 55.7 595.7 56.7 596.2 58.2C596.8 59.7 597.3 60.8 597.6 61.5C597.7 61.4 597.8 61.1 598.1 60.6C598.2 60.5 598.2 60.4 598.2 60.4C598.9 59.3 599.4 58.4 599.9 57.5C600.7 55.9 601.4 54.8 602 54C602.6 53.2 603 52.9 603.4 52.9C603.9 52.9 604.2 53.2 604.2 53.7V53.6Z" fill="black"/>
<path d="M608.2 56.4C608.1 56.8 608 57.2 608 57.5C608 57.6 608 58 607.9 58.6C607.7 59.6 607.7 60.3 607.7 60.7C607.7 61.3 607.7 62 607.8 62.6C607.9 63 607.8 63.4 607.5 63.6C607.3 63.8 607 63.9 606.8 63.9C606.5 63.9 606.2 63.8 606.1 63.5C606 63.2 605.9 62.7 605.9 61.9C605.9 61.4 606 60.4 606.2 58.7L606.6 55.9C606.7 55.5 606.7 55.1 606.8 54.7C606.9 54.2 606.9 53.8 607 53.7C607.1 53.6 607.2 53.4 607.5 53.3C607.7 53.2 607.9 53.1 608 53.1C608.3 53.1 608.5 53.2 608.6 53.4C608.8 53.6 608.8 53.9 608.8 54.2L608.2 56.4Z" fill="black"/>
<path d="M617.5 55C617.5 55 617.4 55.0999 617.4 55.2999C617.4 55.4999 617.3 56.2999 617.1 57.7999C616.9 59.2999 616.9 60.5 616.9 61.4C616.9 61.8 616.9 62.1999 617 62.5999C617 62.6999 617 62.6999 617 62.7999C617 63.0999 616.9 63.3 616.8 63.5C616.6 63.7 616.5 63.7999 616.2 63.7999C616 63.7999 615.8 63.6999 615.6 63.5999C615.4 63.3999 615.2 63.1999 615.2 62.7999C615.2 62.4 615 62 615 61.4C615 60.6 615.1 59.3 615.3 57.7C615.5 56.1 615.6 55.2 615.7 55.2C615.6 55.2 615 55.1999 614.1 55.2999C613.1 55.3999 612.6 55.4 612.4 55.4C611.9 55.4 611.5 55.3 611.3 55.2C611.1 55.1 611 54.8999 611 54.5999C611 54.3999 611.1 54.2 611.3 54C611.5 53.9 612 53.7999 612.9 53.7999C614.3 53.7999 615.7 53.7 617.1 53.5C618.6 53.3 619.8 53.2 620.6 53.2C621.5 53.2 622 53.3 622.2 53.5C622.4 53.7 622.5 53.8999 622.5 54.0999C622.5 54.5999 622.3 54.7999 621.9 54.7999C621.8 54.7999 621.5 54.7999 621.2 54.7999C620.9 54.7999 620.5 54.7999 620.1 54.7999C618.8 54.6999 617.9 54.8 617.5 55Z" fill="black"/>
<path d="M630.2 58.8C630 59.2 629.9 60.5 629.7 62.8C629.7 63.3 629.6 63.6 629.5 63.7C629.4 63.8 629.3 63.9 629.1 63.9C628.9 64 628.7 64 628.6 64C628.1 64 627.8 63.6 627.8 62.9C627.8 62.6 627.9 62 628 61.1C628.1 60.2 628.2 59.6 628.2 59.2C628.2 59 628.2 58.8 628.1 58.6C627.7 58.2 627.2 57.6 626.6 56.8C625.9 55.9 625.4 55.4 625.2 55.1C624.6 54.7 624.3 54.4 624.1 54.2C623.9 54 623.9 53.8 623.9 53.6C623.9 53.5 624 53.3 624.2 53.2C624.4 53 624.6 52.9 624.8 52.9C625.5 52.9 626.7 53.9 628.3 56C628.8 56.7 629.2 57.1 629.4 57.3C629.6 57.1 629.8 56.9 630 56.6C630.2 56.4 630.4 56.1 630.6 55.9C631.8 54.7 632.6 53.8 633 53.3C633.4 52.8 633.8 52.5 634.3 52.5C634.5 52.5 634.7 52.6 634.8 52.8C634.9 53 635 53.2 635 53.3C635 53.6 634.1 54.6 632.3 56.4C630.9 57.9 630.3 58.6 630.2 58.8Z" fill="black"/>
<path d="M654.3 280.6C653.8 280.6 653.2 280.4 652.5 280.1C651.8 279.8 651.3 279.3 650.9 278.5C650.5 277.7 650.4 276.9 650.4 276.1C650.4 275.7 650.5 275.1 650.6 274.3L650.8 273C650.8 272.8 650.9 272.6 650.9 272.4C651 272.1 651 271.8 651 271.5C651.1 271 651.2 270.6 651.3 270.3C651.5 270 651.7 269.9 652.1 269.9C652.3 269.9 652.4 270 652.6 270.3C652.8 270.6 652.9 270.8 652.9 270.9C652.9 271 652.8 271.5 652.6 272.5C652.5 272.7 652.4 273.3 652.3 274.2C652.2 275.1 652.1 275.7 652.1 276.1C652.1 277.3 652.4 278.1 652.9 278.5C653.4 278.9 653.9 279.1 654.2 279.1C655.4 279.1 656.2 278.8 656.7 278.3C657.2 277.8 657.4 277 657.6 275.8C657.6 275.6 657.7 275.4 657.7 275.2C657.7 274.7 657.8 274.3 657.8 273.8C657.9 272.1 658.1 271.1 658.3 270.7C658.5 270.3 658.8 270.1 659.2 270.1C659.7 270.1 659.9 270.4 659.9 271.1C659.9 271.5 659.8 272.2 659.6 273.2C659.5 273.8 659.4 274.4 659.4 275C659.3 276.4 659.1 277.5 658.8 278.1C658.5 278.8 657.9 279.4 657.1 279.9C656.4 280.4 655.4 280.6 654.3 280.6Z" fill="black"/>
<path d="M669.3 272.6C669.3 272.1 669.2 271.8 668.9 271.6C668.7 271.4 668.3 271.3 667.8 271.3C667 271.3 666.3 271.5 665.6 271.9C664.9 272.3 664.6 272.7 664.6 273.2C664.6 273.5 664.7 273.7 665 274C665.3 274.2 665.9 274.5 667 274.8C668.1 275.1 668.9 275.5 669.5 275.9C670 276.3 670.3 276.8 670.3 277.3C670.3 278.2 669.6 279 668.2 279.8C666.8 280.6 665.4 280.9 663.9 280.9C663.4 280.9 663 280.8 662.7 280.6C662.4 280.4 662.3 280.1 662.3 279.9C662.3 279.7 662.4 279.4 662.5 279.2C662.6 279 662.8 278.9 663 278.9C663.1 278.9 663.2 278.9 663.3 279C663.8 279.2 664.3 279.3 664.7 279.3C665.4 279.3 666.3 279.1 667.2 278.7C668.1 278.3 668.6 277.9 668.6 277.5C668.6 277.3 668.5 277.2 668.3 277C668.1 276.8 667.6 276.7 666.9 276.4C665.9 276.1 665.1 275.8 664.6 275.6C664.1 275.4 663.7 275.1 663.4 274.8C663.1 274.4 663 274 663 273.5C663 272.6 663.5 271.8 664.5 271C665.5 270.2 666.7 269.9 668.1 269.9C668.9 269.9 669.5 270.1 670 270.4C670.5 270.7 670.7 271.1 670.7 271.5C670.7 272.2 670.2 272.6 669.3 272.6Z" fill="black"/>
<path d="M681.5 271.4L679.3 271.5C678.5 271.5 677.9 271.6 677.3 271.7C676.8 271.8 676.5 271.9 676.4 271.9C676.4 271.9 676.3 272.1 676.3 272.3C676.3 272.5 676.2 272.9 676 273.5C675.9 274 675.8 274.3 675.8 274.6C676.1 274.6 676.5 274.6 677.1 274.5C677.7 274.4 678.1 274.4 678.3 274.3C679 274.1 679.5 274.1 679.9 274.1C680.6 274.1 681 274.3 681 274.8C681 275.1 680.9 275.4 680.7 275.5C680.5 275.6 680.2 275.7 679.7 275.8C679.4 275.8 679.1 275.9 678.8 275.9C678.6 275.9 678.4 276 678.1 276C676.8 276.1 676 276.3 675.8 276.4C675.7 276.4 675.7 276.5 675.6 276.6C675.6 276.7 675.5 277 675.4 277.7C675.3 278.3 675.2 278.7 675.2 279C675.2 279.2 675.3 279.3 675.5 279.3C675.7 279.3 676.3 279.2 677.3 279.1C678.3 279 678.9 278.9 679.1 278.8C679.7 278.7 680.2 278.6 680.4 278.6C681 278.7 681.3 279 681.3 279.4C681.3 279.6 681.2 279.8 681.1 279.9C680.6 280.1 680 280.2 679.1 280.3C678.5 280.3 677.7 280.4 676.8 280.5C676 280.7 675.2 280.8 674.5 280.8C674.1 280.8 673.8 280.7 673.7 280.6C673.5 280.4 673.4 280.2 673.4 279.8V279.6C673.4 279.6 673.4 279.4 673.5 279.2C673.7 278.6 673.9 277.3 674.2 275.3C674.5 273.3 674.6 272.2 674.6 272C674.6 272 674.6 272 674.6 271.9C674.6 271.9 674.5 271.8 674.4 271.6C674.3 271.4 674.3 271.3 674.3 271.1C674.3 271 674.3 270.9 674.3 270.9C674.3 270.8 674.4 270.7 674.6 270.6C674.8 270.5 675 270.5 675.1 270.5C675.3 270.5 675.5 270.5 675.8 270.5C676.2 270.5 677.5 270.4 679.6 270.1C680.3 270 680.7 270 680.7 270H680.8C681.6 269.9 682.1 270.2 682.1 270.8C682.1 270.9 682 271.1 681.9 271.2C681.8 271.3 681.7 271.4 681.5 271.4Z" fill="black"/>
<path d="M685.8 271.7L685.7 271.5C685.5 271.3 685.5 271.1 685.5 271C685.5 270.8 685.6 270.6 685.8 270.4C686 270.2 686.2 270.1 686.4 270.1C686.5 270.1 686.6 270.1 686.7 270.1C686.8 270.1 686.9 270.1 686.9 270.1C688.3 269.9 689.3 269.8 689.8 269.8C690.8 269.8 691.7 270 692.3 270.5C692.9 271 693.2 271.6 693.2 272.3C693.2 273 692.9 273.7 692.3 274.3C691.7 274.9 690.9 275.4 689.9 275.8C691.6 277.2 692.8 278.1 693.7 278.6C694 278.8 694.2 279 694.2 279.3C694.2 279.5 694.1 279.7 693.9 279.9C693.7 280.1 693.5 280.2 693.3 280.2C693 280.2 692.7 280.1 692.4 279.8C692.1 279.6 691.6 279.2 690.9 278.7C690.3 278.2 689.9 277.9 689.8 277.8C688.9 277.1 688.3 276.6 687.9 276.3C687.4 276.3 687.2 276.1 687.2 275.6C687.2 275.4 687.3 275.2 687.5 275C687.7 274.8 688 274.7 688.3 274.7C688.4 274.7 688.5 274.7 688.6 274.7C688.7 274.7 688.8 274.7 688.8 274.7C689.1 274.7 689.7 274.4 690.5 273.9C691.3 273.4 691.7 272.8 691.7 272.2C691.7 271.9 691.5 271.6 691.2 271.4C690.9 271.2 690.4 271 689.9 271C689.3 271 688.8 271 688.4 271.1C688 271.2 687.8 271.2 687.8 271.3C687.8 271.3 687.7 271.4 687.7 271.5C687.7 271.6 687.5 272.1 687.4 273C687.2 273.8 687.1 274.8 687 275.8C686.9 276.8 686.8 277.6 686.8 278C686.8 278.3 686.8 278.6 686.9 278.8C686.9 279 687 279.3 687 279.4C687 279.6 686.9 279.8 686.7 279.9C686.5 280.1 686.3 280.2 686.1 280.2C685.4 280.2 685.1 279.7 685.1 278.8C685.1 278.1 685.2 277 685.3 275.7C685.5 274.4 685.7 273.2 685.9 272.2C685.9 272 686 271.9 686 271.8L685.8 271.7Z" fill="black"/>
<path d="M628.4 290.4L626.2 290.5C625.4 290.5 624.8 290.6 624.2 290.7C623.7 290.8 623.4 290.9 623.3 290.9C623.3 290.9 623.2 291.1 623.2 291.3C623.2 291.5 623.1 291.9 622.9 292.5C622.8 293 622.7 293.3 622.7 293.6C623 293.6 623.4 293.6 624 293.5C624.6 293.4 625 293.4 625.2 293.3C625.9 293.1 626.4 293.1 626.8 293.1C627.5 293.1 627.9 293.3 627.9 293.8C627.9 294.1 627.8 294.4 627.6 294.5C627.4 294.6 627.1 294.7 626.6 294.8C626.3 294.8 626 294.9 625.7 294.9C625.5 294.9 625.3 295 625 295C623.7 295.1 622.9 295.3 622.7 295.4C622.6 295.4 622.6 295.5 622.5 295.6C622.5 295.7 622.4 296 622.3 296.7C622.2 297.3 622.1 297.7 622.1 298C622.1 298.2 622.2 298.3 622.4 298.3C622.6 298.3 623.2 298.2 624.2 298.1C625.2 298 625.8 297.9 626 297.8C626.6 297.7 627.1 297.6 627.3 297.6C627.9 297.7 628.2 298 628.2 298.4C628.2 298.6 628.1 298.8 628 298.9C627.5 299.1 626.9 299.2 626 299.3C625.4 299.3 624.6 299.4 623.7 299.5C622.9 299.7 622.1 299.8 621.4 299.8C621 299.8 620.7 299.7 620.6 299.6C620.4 299.4 620.3 299.2 620.3 298.8V298.6C620.3 298.6 620.3 298.4 620.4 298.2C620.6 297.6 620.8 296.3 621.1 294.3C621.4 292.3 621.5 291.2 621.5 291C621.5 291 621.5 291 621.5 290.9C621.5 290.9 621.4 290.8 621.3 290.6C621.2 290.4 621.2 290.3 621.2 290.1C621.2 290 621.2 289.9 621.2 289.9C621.2 289.8 621.3 289.7 621.5 289.6C621.7 289.5 621.9 289.5 622 289.5C622.2 289.5 622.4 289.5 622.7 289.5C623.1 289.5 624.4 289.4 626.5 289.1C627.2 289 627.6 289 627.6 289H627.7C628.5 288.9 629 289.2 629 289.8C629 289.9 628.9 290.1 628.8 290.2C628.7 290.2 628.6 290.3 628.4 290.4Z" fill="black"/>
<path d="M636 292.7C636 292.7 636.1 292.6 636.2 292.5C638 290.5 639.1 289.3 639.5 289C639.8 288.7 640.1 288.6 640.2 288.6C640.4 288.6 640.6 288.7 640.8 288.9C641 289.1 641.1 289.3 641.1 289.5C641.1 289.7 640.9 290 640.4 290.4C640 290.8 639.5 291.2 638.9 291.8L638.6 292.1C637.5 293.2 636.9 293.8 636.9 294C636.9 294.1 637.2 294.5 637.9 295.4C638.6 296.2 639.1 296.7 639.5 296.9C639.9 297.1 640.2 297.4 640.4 297.7C640.6 298 640.7 298.2 640.7 298.2C640.7 298.4 640.6 298.5 640.5 298.7C640.3 298.8 640.2 298.9 639.9 298.9C639.5 298.9 639.1 298.7 638.7 298.4C638.3 298.1 637.8 297.5 637.1 296.6C636.5 295.9 636.1 295.3 635.9 295C635.8 295.1 635.5 295.5 635 295.9C633.7 297.3 633 298.1 632.9 298.6C632.7 299.1 632.6 299.4 632.5 299.5C632.4 299.6 632.3 299.7 632.1 299.8C631.9 299.9 631.7 299.9 631.4 299.9C630.9 299.9 630.6 299.7 630.6 299.2C630.6 298.8 630.9 298.3 631.4 297.6C632 296.9 632.8 295.9 634 294.8L634.8 294C634.9 293.9 634.9 293.8 635 293.8C634.9 293.7 634.8 293.5 634.6 293.3C634.3 293 633.8 292.3 633.1 291.4C632.4 290.5 632.1 289.9 632.1 289.7C632.1 289.5 632.2 289.2 632.4 289C632.6 288.8 632.8 288.6 632.9 288.6C633.1 288.6 633.3 288.7 633.4 288.8C633.6 288.9 633.7 289.2 633.9 289.5C634.4 290.6 635.1 291.6 636 292.7Z" fill="black"/>
<path d="M646 295.9C645.9 297 645.8 297.9 645.8 298.5C645.8 298.8 645.7 299 645.6 299.2C645.4 299.4 645.2 299.5 645 299.5C644.4 299.5 644.1 299.2 644.1 298.5C644.1 298.1 644.2 296.9 644.5 294.7C644.7 293 644.8 291.9 644.8 291.6C644.8 291.2 644.8 291 644.8 291C644.5 290.8 644.3 290.6 644.3 290.2C644.3 289.8 644.9 289.5 646.2 289.2C647.5 288.9 648.6 288.8 649.5 288.8C650.6 288.8 651.4 289 652 289.5C652.6 289.9 652.9 290.5 652.9 291.3C652.9 292.4 652.3 293.3 651.2 294.1C650 294.9 648.6 295.5 647 295.8C646.4 295.8 646 295.9 646 295.9ZM646.6 290.6L646.2 294.3C647.6 294.1 648.7 293.7 649.8 293.1C650.8 292.5 651.3 291.9 651.3 291.2C651.3 290.4 650.7 290 649.4 290C648.6 290.1 647.6 290.3 646.6 290.6Z" fill="black"/>
<path d="M657.9 292.1C657.8 292.5 657.7 292.9 657.7 293.1C657.7 293.2 657.7 293.6 657.6 294.2C657.4 295.2 657.4 295.9 657.4 296.3C657.4 296.9 657.4 297.5 657.5 298.1C657.6 298.5 657.5 298.9 657.2 299.1C657 299.3 656.7 299.4 656.5 299.4C656.2 299.4 655.9 299.3 655.8 299C655.7 298.7 655.6 298.2 655.6 297.5C655.6 297.1 655.7 296 655.9 294.3L656.3 291.5C656.4 291.1 656.4 290.7 656.5 290.4C656.6 289.9 656.6 289.6 656.7 289.5C656.8 289.4 656.9 289.3 657.1 289.1C657.3 289 657.5 288.9 657.6 288.9C657.9 288.9 658.1 289 658.2 289.2C658.3 289.4 658.4 289.7 658.4 290L657.9 292.1Z" fill="black"/>
<path d="M662.3 290.6L662.2 290.4C662 290.2 662 290 662 289.9C662 289.7 662.1 289.5 662.3 289.3C662.5 289.1 662.7 289 662.9 289C663 289 663.1 289 663.2 289C663.3 289 663.4 289 663.4 289C664.8 288.8 665.8 288.7 666.3 288.7C667.3 288.7 668.2 288.9 668.8 289.4C669.4 289.9 669.7 290.5 669.7 291.2C669.7 291.9 669.4 292.6 668.8 293.2C668.2 293.8 667.4 294.3 666.4 294.7C668.1 296.1 669.3 297 670.2 297.5C670.5 297.7 670.7 297.9 670.7 298.2C670.7 298.4 670.6 298.6 670.4 298.8C670.2 299 670 299.1 669.8 299.1C669.5 299.1 669.2 299 668.9 298.7C668.6 298.5 668.1 298.1 667.4 297.6C666.8 297.1 666.4 296.8 666.3 296.7C665.4 296 664.8 295.5 664.4 295.2C663.9 295.2 663.7 295 663.7 294.5C663.7 294.3 663.8 294.1 664 293.9C664.2 293.7 664.5 293.6 664.8 293.6C664.9 293.6 665 293.6 665.1 293.6C665.2 293.6 665.3 293.6 665.3 293.6C665.6 293.6 666.2 293.3 667 292.8C667.8 292.3 668.2 291.7 668.2 291.1C668.2 290.8 668 290.5 667.7 290.3C667.4 290.1 666.9 289.9 666.4 289.9C665.8 289.9 665.3 289.9 664.9 290C664.5 290.1 664.3 290.1 664.3 290.2C664.3 290.2 664.2 290.3 664.2 290.4C664.2 290.5 664 291 663.9 291.9C663.7 292.7 663.6 293.7 663.5 294.7C663.4 295.7 663.3 296.5 663.3 296.9C663.3 297.2 663.3 297.5 663.4 297.7C663.4 297.9 663.5 298.2 663.5 298.3C663.5 298.5 663.4 298.7 663.2 298.8C663 299 662.8 299.1 662.5 299.1C661.8 299.1 661.5 298.6 661.5 297.7C661.5 297 661.6 295.9 661.7 294.6C661.9 293.3 662.1 292.1 662.3 291.1C662.3 290.9 662.4 290.8 662.4 290.7L662.3 290.6Z" fill="black"/>
<path d="M675.8 292.1C675.7 292.5 675.6 292.9 675.6 293.1C675.6 293.2 675.6 293.6 675.5 294.2C675.3 295.2 675.3 295.9 675.3 296.3C675.3 296.9 675.3 297.5 675.4 298.1C675.5 298.5 675.4 298.9 675.1 299.1C674.9 299.3 674.6 299.4 674.4 299.4C674.1 299.4 673.8 299.3 673.7 299C673.6 298.7 673.5 298.2 673.5 297.5C673.5 297.1 673.6 296 673.8 294.3L674.2 291.5C674.3 291.1 674.3 290.7 674.4 290.4C674.5 289.9 674.5 289.6 674.6 289.5C674.7 289.4 674.8 289.3 675 289.1C675.2 289 675.4 288.9 675.5 288.9C675.8 288.9 676 289 676.1 289.2C676.2 289.4 676.3 289.7 676.3 290L675.8 292.1Z" fill="black"/>
<path d="M687.4 290.4L685.2 290.5C684.4 290.5 683.8 290.6 683.2 290.7C682.7 290.8 682.4 290.9 682.3 290.9C682.3 290.9 682.2 291.1 682.2 291.3C682.2 291.5 682.1 291.9 681.9 292.5C681.8 293 681.7 293.3 681.7 293.6C682 293.6 682.4 293.6 683 293.5C683.6 293.4 684 293.4 684.2 293.3C684.9 293.1 685.4 293.1 685.8 293.1C686.5 293.1 686.9 293.3 686.9 293.8C686.9 294.1 686.8 294.4 686.6 294.5C686.4 294.6 686.1 294.7 685.6 294.8C685.3 294.8 685 294.9 684.7 294.9C684.5 294.9 684.3 295 684 295C682.7 295.1 681.9 295.3 681.7 295.4C681.6 295.4 681.6 295.5 681.5 295.6C681.5 295.7 681.4 296 681.3 296.7C681.2 297.3 681.1 297.7 681.1 298C681.1 298.2 681.2 298.3 681.4 298.3C681.6 298.3 682.2 298.2 683.2 298.1C684.2 298 684.8 297.9 685 297.8C685.6 297.7 686.1 297.6 686.3 297.6C686.9 297.7 687.2 298 687.2 298.4C687.2 298.6 687.1 298.8 687 298.9C686.5 299.1 685.9 299.2 685 299.3C684.4 299.3 683.6 299.4 682.7 299.5C681.9 299.7 681.1 299.8 680.4 299.8C680 299.8 679.7 299.7 679.6 299.6C679.4 299.4 679.3 299.2 679.3 298.8V298.6C679.3 298.6 679.3 298.4 679.4 298.2C679.6 297.6 679.8 296.3 680.1 294.3C680.4 292.3 680.5 291.2 680.5 291C680.5 291 680.5 291 680.5 290.9C680.5 290.9 680.4 290.8 680.3 290.6C680.2 290.4 680.2 290.3 680.2 290.1C680.2 290 680.2 289.9 680.2 289.9C680.2 289.8 680.3 289.7 680.5 289.6C680.7 289.5 680.9 289.5 681 289.5C681.2 289.5 681.4 289.5 681.7 289.5C682.1 289.5 683.4 289.4 685.5 289.1C686.2 289 686.6 289 686.6 289H686.7C687.5 288.9 688 289.2 688 289.8C688 289.9 687.9 290.1 687.8 290.2C687.6 290.2 687.5 290.3 687.4 290.4Z" fill="black"/>
<path d="M690.9 296.8L691.4 294.4C691.8 292.5 692 291.2 692 290.5C692 290.1 692 289.9 692.1 289.8C692.1 289.7 692.3 289.5 692.4 289.4C692.6 289.3 692.8 289.2 693 289.2C693.1 289.2 693.3 289.2 693.5 289.3C693.7 289.4 693.8 289.7 694 290.2C694.2 291 694.7 292.1 695.5 293.4C696.3 294.8 697.1 295.8 697.7 296.6C697.9 295.8 698.1 294.7 698.3 293.4C698.5 292.5 698.6 291.7 698.7 291C698.8 290.4 698.9 289.9 698.9 289.5C698.9 289.1 699 288.8 699.3 288.7C699.5 288.6 699.8 288.5 700 288.5C700.2 288.5 700.4 288.6 700.5 288.8C700.6 289 700.7 289.3 700.7 289.6C700.7 289.9 700.6 290.2 700.5 290.7C700.2 291.8 699.9 293.2 699.6 294.9C699.3 296.6 699.2 297.6 699.2 297.8V298C699.2 298.3 699.2 298.5 699.1 298.6C699 298.7 698.9 298.9 698.8 299C698.6 299.1 698.4 299.2 698.1 299.2C697.9 299.2 697.8 299.2 697.7 299.2C697.6 299.2 697.5 299.1 697.4 298.9C697.3 298.7 697.1 298.5 697 298.3C696.8 297.9 696.6 297.6 696.5 297.5C695.4 296.1 694.3 294.4 693.3 292.5C693.2 293.1 692.9 294.4 692.7 296.6L692.6 297.2C692.6 297.4 692.5 297.7 692.5 298.2C692.5 298.7 692.3 299.1 692.1 299.3C691.9 299.5 691.7 299.6 691.5 299.6C691.2 299.6 691 299.5 690.8 299.4C690.7 299.2 690.6 298.9 690.6 298.5C690.6 298.1 690.7 297.6 690.9 296.8Z" fill="black"/>
<path d="M710.9 296.7C711.3 296.7 711.4 296.9 711.4 297.2C711.4 297.6 710.9 298.2 709.8 298.8C708.8 299.4 707.8 299.7 706.8 299.7C705.9 299.7 705.2 299.4 704.4 298.9C703.7 298.3 703.3 297.5 703.3 296.5C703.3 295.4 703.7 294.2 704.4 292.9C705.2 291.6 706.1 290.5 707.2 289.6C708.3 288.8 709.4 288.3 710.5 288.3C711.1 288.3 711.6 288.5 712 288.9C712.4 289.3 712.6 289.7 712.6 290.2C712.6 290.7 712.6 291.1 712.5 291.4C712.4 291.6 712.2 291.8 712 292C711.7 292.2 711.5 292.3 711.3 292.3C711.1 292.3 711 292.2 710.8 292.1C710.7 292 710.6 291.8 710.6 291.6C710.6 291.5 710.6 291.2 710.7 290.9C710.8 290.6 710.8 290.4 710.8 290.2C710.8 289.9 710.7 289.7 710.5 289.7C709.8 289.7 709.1 290.1 708.2 290.8C707.4 291.5 706.6 292.4 706 293.5C705.4 294.6 705.1 295.5 705.1 296.3C705.1 296.8 705.3 297.3 705.6 297.7C705.9 298.1 706.4 298.3 707 298.3C707.4 298.3 707.8 298.2 708.3 298C708.8 297.8 709.3 297.5 709.8 297.2C710.4 296.9 710.8 296.7 710.9 296.7Z" fill="black"/>
<path d="M723.3 290.4L721.1 290.5C720.3 290.5 719.7 290.6 719.1 290.7C718.6 290.8 718.3 290.9 718.2 290.9C718.2 290.9 718.1 291.1 718.1 291.3C718.1 291.5 718 291.9 717.8 292.5C717.7 293 717.6 293.3 717.6 293.6C717.9 293.6 718.3 293.6 718.9 293.5C719.5 293.4 719.9 293.4 720.1 293.3C720.8 293.1 721.3 293.1 721.7 293.1C722.4 293.1 722.8 293.3 722.8 293.8C722.8 294.1 722.7 294.4 722.5 294.5C722.3 294.6 722 294.7 721.5 294.8C721.2 294.8 720.9 294.9 720.6 294.9C720.4 294.9 720.2 295 719.9 295C718.6 295.1 717.8 295.3 717.6 295.4C717.5 295.4 717.5 295.5 717.4 295.6C717.4 295.7 717.3 296 717.2 296.7C717.1 297.3 717 297.7 717 298C717 298.2 717.1 298.3 717.3 298.3C717.5 298.3 718.1 298.2 719.1 298.1C720.1 298 720.7 297.9 720.9 297.8C721.5 297.7 722 297.6 722.2 297.6C722.8 297.7 723.1 298 723.1 298.4C723.1 298.6 723 298.8 722.9 298.9C722.4 299.1 721.8 299.2 720.9 299.3C720.3 299.3 719.5 299.4 718.6 299.5C717.8 299.7 717 299.8 716.3 299.8C715.9 299.8 715.6 299.7 715.5 299.6C715.3 299.4 715.2 299.2 715.2 298.8V298.6C715.2 298.6 715.2 298.4 715.3 298.2C715.5 297.6 715.7 296.3 716 294.3C716.3 292.3 716.4 291.2 716.4 291C716.4 291 716.4 291 716.4 290.9C716.4 290.9 716.3 290.8 716.2 290.6C716.1 290.4 716.1 290.3 716.1 290.1C716.1 290 716.1 289.9 716.1 289.9C716.1 289.8 716.2 289.7 716.4 289.6C716.6 289.5 716.8 289.5 716.9 289.5C717.1 289.5 717.3 289.5 717.6 289.5C718 289.5 719.3 289.4 721.4 289.1C722.1 289 722.5 289 722.5 289H722.6C723.4 288.9 723.9 289.2 723.9 289.8C723.9 289.9 723.8 290.1 723.7 290.2C723.6 290.2 723.4 290.3 723.3 290.4Z" fill="black"/>
<path d="M347.7 109L330.3 91.5C330 91.2 330 90.8 330.3 90.5L347.7 73.1C348 72.8 348.4 72.8 348.7 73.1L366.1 90.5C366.4 90.8 366.4 91.2 366.1 91.5L348.7 109C348.5 109.2 348 109.2 347.7 109Z" stroke="#E0E0E0" stroke-width="1.7707" stroke-miterlimit="10"/>
<path d="M348.6 67.8C348.8 67.8 349 67.6 349 67.4C349 67.2 348.8 67 348.6 67C348.4 67 348.2 67.2 348.2 67.4C348.2 67.6 348.4 67.8 348.6 67.8Z" fill="#B4D1FA"/>
<path d="M353.4 72.1999C353.2 72.3999 353 72.3999 352.8 72.1999C352.6 71.9999 352.6 71.8 352.8 71.6C353 71.4 353.2 71.4 353.4 71.6C353.6 71.8 353.6 71.9999 353.4 72.1999Z" fill="#B4D1FA"/>
<path d="M357.9 76.6999C357.7 76.8999 357.5 76.8999 357.3 76.6999C357.1 76.4999 357.1 76.3 357.3 76.1C357.5 75.9 357.7 75.9 357.9 76.1C358.1 76.3 358.1 76.4999 357.9 76.6999Z" fill="#B4D1FA"/>
<path d="M362.4 81.1999C362.2 81.3999 362 81.3999 361.8 81.1999C361.6 80.9999 361.6 80.8 361.8 80.6C362 80.4 362.2 80.4 362.4 80.6C362.6 80.8 362.6 80.9999 362.4 81.1999Z" fill="#B4D1FA"/>
<path d="M366.7 85.9C366.9 85.9 367.1 85.7 367.1 85.5C367.1 85.3 366.9 85.1 366.7 85.1C366.5 85.1 366.3 85.3 366.3 85.5C366.3 85.7 366.5 85.9 366.7 85.9Z" fill="#B4D1FA"/>
<path d="M344.9 71.6999C344.7 71.8999 344.5 71.8999 344.3 71.6999C344.1 71.4999 344.1 71.3 344.3 71.1C344.5 70.9 344.7 70.9 344.9 71.1C345 71.3 345 71.4999 344.9 71.6999Z" fill="#B4D1FA"/>
<path d="M349.1 76.3C349.3 76.3 349.5 76.1 349.5 75.9C349.5 75.7 349.3 75.5 349.1 75.5C348.9 75.5 348.7 75.7 348.7 75.9C348.7 76.1 348.9 76.3 349.1 76.3Z" fill="#B4D1FA"/>
<path d="M353.6 80.8C353.8 80.8 354 80.6 354 80.4C354 80.2 353.8 80 353.6 80C353.4 80 353.2 80.2 353.2 80.4C353.2 80.6 353.4 80.8 353.6 80.8Z" fill="#B4D1FA"/>
<path d="M358.1 85.4C358.3 85.4 358.5 85.2 358.5 85C358.5 84.8 358.3 84.6 358.1 84.6C357.9 84.6 357.7 84.8 357.7 85C357.7 85.2 357.9 85.4 358.1 85.4Z" fill="#B4D1FA"/>
<path d="M362.7 89.9C362.9 89.9 363.1 89.7 363.1 89.5C363.1 89.3 362.9 89.1 362.7 89.1C362.5 89.1 362.3 89.3 362.3 89.5C362.2 89.7 362.4 89.9 362.7 89.9Z" fill="#B4D1FA"/>
<path d="M340.8 75.6999C340.6 75.8999 340.4 75.8999 340.2 75.6999C340 75.4999 340 75.3 340.2 75.1C340.4 74.9 340.6 74.9 340.8 75.1C341 75.3 341 75.5999 340.8 75.6999Z" fill="#B4D1FA"/>
<path d="M345 80.4C345.2 80.4 345.4 80.2 345.4 80C345.4 79.8 345.2 79.6 345 79.6C344.8 79.6 344.6 79.8 344.6 80C344.6 80.2 344.8 80.4 345 80.4Z" fill="#B4D1FA"/>
<path d="M349.5 84.9C349.7 84.9 349.9 84.7 349.9 84.5C349.9 84.3 349.7 84.1 349.5 84.1C349.3 84.1 349.1 84.3 349.1 84.5C349.1 84.7 349.3 84.9 349.5 84.9Z" fill="#B4D1FA"/>
<path d="M354.1 89.4C354.3 89.4 354.5 89.2 354.5 89C354.5 88.8 354.3 88.6 354.1 88.6C353.9 88.6 353.7 88.8 353.7 89C353.7 89.2 353.8 89.4 354.1 89.4Z" fill="#B4D1FA"/>
<path d="M358.9 93.8001C358.7 94.0001 358.5 94.0001 358.3 93.8001C358.1 93.6001 358.1 93.4 358.3 93.2C358.5 93 358.7 93 358.9 93.2C359 93.4 359 93.7001 358.9 93.8001Z" fill="#B4D1FA"/>
<path d="M336.8 79.8001C336.6 80.0001 336.4 80.0001 336.2 79.8001C336 79.6001 336 79.4 336.2 79.2C336.4 79 336.6 79 336.8 79.2C336.9 79.4 336.9 79.6001 336.8 79.8001Z" fill="#B4D1FA"/>
<path d="M341.3 84.3001C341.1 84.5001 340.9 84.5001 340.7 84.3001C340.5 84.1001 340.5 83.9 340.7 83.7C340.9 83.5 341.1 83.5 341.3 83.7C341.5 83.9 341.5 84.1001 341.3 84.3001Z" fill="#B4D1FA"/>
<path d="M345.5 88.9C345.7 88.9 345.9 88.7 345.9 88.5C345.9 88.3 345.7 88.1 345.5 88.1C345.3 88.1 345.1 88.3 345.1 88.5C345.1 88.8 345.3 88.9 345.5 88.9Z" fill="#B4D1FA"/>
<path d="M350.3 93.3001C350.1 93.5001 349.9 93.5001 349.7 93.3001C349.5 93.1001 349.5 92.9 349.7 92.7C349.9 92.5 350.1 92.5 350.3 92.7C350.5 92.9 350.5 93.2001 350.3 93.3001Z" fill="#B4D1FA"/>
<path d="M354.8 97.9C354.6 98.1 354.4 98.1 354.2 97.9C354 97.7 354 97.5 354.2 97.3C354.4 97.1 354.6 97.1 354.8 97.3C355 97.4 355 97.7 354.8 97.9Z" fill="#B4D1FA"/>
<path d="M332.8 83.8001C332.6 84.0001 332.4 84.0001 332.2 83.8001C332 83.6001 332 83.4 332.2 83.2C332.4 83 332.6 83 332.8 83.2C332.9 83.4 332.9 83.6001 332.8 83.8001Z" fill="#B4D1FA"/>
<path d="M337 88.4C337.2 88.4 337.4 88.2 337.4 88C337.4 87.8 337.2 87.6 337 87.6C336.8 87.6 336.6 87.8 336.6 88C336.6 88.3 336.8 88.4 337 88.4Z" fill="#B4D1FA"/>
<path d="M341.5 93C341.7 93 341.9 92.8 341.9 92.6C341.9 92.4 341.7 92.2 341.5 92.2C341.3 92.2 341.1 92.4 341.1 92.6C341.1 92.8 341.3 93 341.5 93Z" fill="#B4D1FA"/>
<path d="M346 97.5C346.2 97.5 346.4 97.3 346.4 97.1C346.4 96.9 346.2 96.7 346 96.7C345.8 96.7 345.6 96.9 345.6 97.1C345.6 97.3 345.8 97.5 346 97.5Z" fill="#B4D1FA"/>
<path d="M350.8 101.9C350.6 102.1 350.4 102.1 350.2 101.9C350 101.7 350 101.5 350.2 101.3C350.4 101.1 350.6 101.1 350.8 101.3C351 101.5 351 101.8 350.8 101.9Z" fill="#B4D1FA"/>
<path d="M328.7 87.9C328.5 88.1 328.3 88.1 328.1 87.9C327.9 87.7 327.9 87.5 328.1 87.3C328.3 87.1 328.5 87.1 328.7 87.3C328.9 87.4 328.9 87.7 328.7 87.9Z" fill="#B4D1FA"/>
<path d="M332.9 92.5C333.1 92.5 333.3 92.3 333.3 92.1C333.3 91.9 333.1 91.7 332.9 91.7C332.7 91.7 332.5 91.9 332.5 92.1C332.5 92.3 332.7 92.5 332.9 92.5Z" fill="#B4D1FA"/>
<path d="M337.4 97C337.6 97 337.8 96.8 337.8 96.6C337.8 96.4 337.6 96.2 337.4 96.2C337.2 96.2 337 96.4 337 96.6C337 96.8 337.2 97 337.4 97Z" fill="#B4D1FA"/>
<path d="M342 101.6C342.2 101.6 342.4 101.4 342.4 101.2C342.4 101 342.2 100.8 342 100.8C341.8 100.8 341.6 101 341.6 101.2C341.5 101.4 341.7 101.6 342 101.6Z" fill="#B4D1FA"/>
<path d="M346.8 106C346.6 106.2 346.4 106.2 346.2 106C346 105.8 346 105.6 346.2 105.4C346.4 105.2 346.6 105.2 346.8 105.4C346.9 105.5 346.9 105.8 346.8 106Z" fill="#B4D1FA"/>
<path d="M249.3 17.3L274.8 35.4001L300.4 17.3L326 35.4001" stroke="#E0E0E0" stroke-width="2" stroke-miterlimit="10" stroke-linecap="round" stroke-linejoin="round"/>
<path d="M198 17.3L223.6 35.4001" stroke="#E0E0E0" stroke-width="2" stroke-miterlimit="10" stroke-linecap="round" stroke-linejoin="round"/>
<path d="M198 1L223.6 19.1L249.3 1L274.8 19.1L300.5 1" stroke="#EBF2F9" stroke-width="2" stroke-miterlimit="10" stroke-linecap="round" stroke-linejoin="round"/>
<path d="M492.5 133.3C501.1 133.3 508 126.3 508 117.8C508 109.3 501 102.3 492.5 102.3C483.9 102.3 477 109.3 477 117.8C477 126.3 483.9 133.3 492.5 133.3Z" stroke="#E0E0E0" stroke-width="2" stroke-miterlimit="10" stroke-linecap="round" stroke-linejoin="round"/>
<path d="M498.1 138.9C506.7 138.9 513.6 131.9 513.6 123.4C513.6 114.9 506.6 107.9 498.1 107.9C489.6 107.9 482.6 114.9 482.6 123.4C482.6 131.9 489.5 138.9 498.1 138.9Z" fill="#EBF2F9"/>
<path d="M380.578 158.323C379.877 158.323 378.975 158.122 377.974 157.622C376.973 157.121 376.171 156.32 375.571 155.218C375.07 154.117 374.77 152.815 374.77 151.513C374.77 150.812 374.87 149.911 375.07 148.809L375.37 146.807C375.37 146.506 375.47 146.106 375.571 145.805C375.671 145.305 375.771 144.804 375.771 144.403C375.871 143.602 376.071 143.001 376.272 142.701C376.472 142.3 376.872 142.1 377.373 142.1C377.674 142.1 377.874 142.3 378.174 142.701C378.475 143.101 378.575 143.402 378.575 143.602C378.575 143.702 378.375 144.503 378.074 145.905C377.974 146.306 377.874 147.107 377.674 148.509C377.473 149.911 377.373 150.812 377.373 151.313C377.373 153.115 377.774 154.317 378.575 154.918C379.376 155.519 380.077 155.819 380.578 155.819C382.38 155.819 383.582 155.419 384.283 154.718C384.984 153.917 385.384 152.715 385.585 150.912C385.585 150.612 385.685 150.312 385.685 150.011C385.785 149.31 385.785 148.609 385.885 147.908C386.085 145.405 386.286 143.802 386.586 143.202C386.886 142.601 387.387 142.3 387.988 142.3C388.689 142.3 389.089 142.801 389.089 143.702C389.089 144.303 388.989 145.305 388.689 146.907C388.489 147.808 388.388 148.709 388.388 149.611C388.288 151.713 387.988 153.316 387.487 154.317C386.987 155.318 386.185 156.22 384.984 156.921C383.682 157.922 382.28 158.323 380.578 158.323Z" fill="black"/>
<path d="M403.209 146.206C403.209 145.505 403.009 145.004 402.709 144.804C402.308 144.503 401.807 144.403 401.106 144.403C399.905 144.403 398.803 144.704 397.802 145.305C396.8 145.905 396.3 146.506 396.3 147.207C396.3 147.608 396.5 148.008 396.901 148.309C397.301 148.609 398.303 149.01 399.905 149.51C401.607 150.011 402.809 150.512 403.61 151.113C404.411 151.714 404.812 152.414 404.812 153.216C404.812 154.618 403.81 155.819 401.707 156.921C399.604 158.022 397.501 158.623 395.198 158.623C394.497 158.623 393.896 158.423 393.496 158.122C393.095 157.822 392.795 157.421 392.795 157.021C392.795 156.62 392.895 156.32 393.095 156.02C393.296 155.719 393.496 155.519 393.796 155.519C393.997 155.519 394.097 155.519 394.297 155.619C394.998 155.919 395.699 156.12 396.4 156.12C397.501 156.12 398.703 155.819 400.105 155.218C401.507 154.618 402.208 154.017 402.208 153.416C402.208 153.216 402.008 152.915 401.707 152.715C401.407 152.515 400.706 152.214 399.604 151.814C398.102 151.313 396.901 150.912 396.1 150.612C395.298 150.312 394.698 149.911 394.297 149.31C393.896 148.809 393.696 148.108 393.696 147.408C393.696 146.106 394.497 144.904 395.999 143.702C397.501 142.601 399.304 142 401.407 142C402.609 142 403.51 142.2 404.211 142.701C404.912 143.202 405.212 143.702 405.212 144.303C405.212 145.605 404.511 146.206 403.209 146.206Z" fill="black"/>
<path d="M421.435 144.404L418.13 144.604C417.029 144.704 416.027 144.804 415.226 144.904C414.425 145.004 413.924 145.104 413.924 145.205C413.824 145.305 413.824 145.505 413.824 145.805C413.824 146.206 413.624 146.807 413.424 147.708C413.223 148.409 413.123 148.91 413.123 149.41C413.624 149.41 414.225 149.41 415.026 149.31C415.827 149.21 416.428 149.11 416.828 149.01C417.83 148.81 418.631 148.609 419.232 148.609C420.333 148.609 420.934 148.91 420.934 149.611C420.934 150.111 420.734 150.412 420.433 150.612C420.133 150.812 419.632 150.913 418.931 151.013C418.531 151.013 418.03 151.113 417.529 151.213C417.229 151.213 416.928 151.313 416.528 151.313C414.525 151.513 413.424 151.714 413.023 151.814C412.923 151.814 412.823 151.914 412.723 152.014C412.622 152.114 412.522 152.715 412.422 153.616C412.222 154.518 412.222 155.219 412.222 155.519C412.222 155.819 412.422 155.92 412.723 155.92C413.023 155.92 413.924 155.819 415.426 155.619C416.828 155.419 417.73 155.319 418.13 155.219C419.131 155.018 419.732 154.918 420.033 154.918C420.934 155.018 421.335 155.419 421.335 156.22C421.335 156.52 421.234 156.821 421.034 156.921C420.333 157.221 419.332 157.422 418.13 157.522C417.129 157.622 416.027 157.722 414.625 157.922C413.424 158.223 412.222 158.323 411.12 158.323C410.519 158.323 410.119 158.223 409.919 157.922C409.618 157.722 409.518 157.321 409.418 156.821V156.42C409.418 156.32 409.518 156.12 409.618 155.819C409.919 154.918 410.219 153.016 410.62 150.011C411.02 147.007 411.22 145.305 411.22 145.004C411.22 145.004 411.22 145.004 411.12 144.904C411.12 144.904 411.02 144.704 410.82 144.504C410.72 144.303 410.62 144.003 410.62 143.803C410.62 143.703 410.62 143.602 410.62 143.502C410.62 143.402 410.82 143.202 411.12 143.102C411.421 143.002 411.621 142.901 411.921 142.901C412.222 142.901 412.622 142.901 412.923 143.002C413.524 143.002 415.426 142.801 418.631 142.401C419.732 142.301 420.233 142.2 420.333 142.2H420.433C421.735 142.1 422.336 142.501 422.336 143.402C422.336 143.602 422.236 143.803 422.036 144.003C421.935 144.203 421.735 144.404 421.435 144.404Z" fill="black"/>
<path d="M427.844 144.804L427.744 144.604C427.544 144.203 427.443 144.003 427.443 143.803C427.443 143.502 427.644 143.202 427.944 142.901C428.244 142.601 428.645 142.501 428.845 142.501C428.945 142.501 429.146 142.501 429.346 142.501C429.546 142.501 429.646 142.501 429.747 142.501C431.85 142.2 433.251 142 434.153 142C435.755 142 436.957 142.401 437.858 143.102C438.759 143.803 439.26 144.804 439.26 145.905C439.26 146.907 438.759 147.908 437.858 148.91C436.957 149.811 435.755 150.612 434.253 151.213C436.756 153.216 438.659 154.618 439.961 155.419C440.462 155.719 440.662 156.02 440.662 156.52C440.662 156.821 440.461 157.121 440.161 157.321C439.861 157.622 439.56 157.722 439.26 157.722C438.859 157.722 438.359 157.522 437.858 157.221C437.357 156.821 436.556 156.32 435.655 155.519C434.653 154.718 434.153 154.317 433.952 154.117C432.651 153.015 431.649 152.214 431.048 151.914C430.347 151.914 429.947 151.513 429.947 150.812C429.947 150.512 430.147 150.211 430.448 149.911C430.748 149.611 431.149 149.51 431.549 149.51C431.649 149.51 431.85 149.51 431.95 149.611C432.05 149.611 432.15 149.711 432.25 149.711C432.751 149.711 433.552 149.31 434.754 148.609C435.955 147.808 436.556 147.007 436.556 146.006C436.556 145.505 436.256 145.104 435.755 144.704C435.254 144.303 434.553 144.203 433.852 144.203C432.951 144.203 432.15 144.303 431.549 144.403C430.948 144.503 430.648 144.604 430.648 144.604C430.648 144.604 430.548 144.804 430.448 144.904C430.347 145.104 430.247 145.805 429.947 147.107C429.747 148.409 429.546 149.811 429.346 151.313C429.146 152.815 429.046 153.917 429.046 154.718C429.046 155.218 429.046 155.619 429.146 155.919C429.246 156.32 429.246 156.62 429.246 156.921C429.246 157.221 429.046 157.421 428.745 157.722C428.445 158.022 428.144 158.122 427.744 158.122C426.742 158.122 426.242 157.421 426.242 156.12C426.242 155.018 426.342 153.516 426.642 151.513C426.843 149.51 427.143 147.808 427.544 146.306C427.544 146.106 427.644 145.805 427.644 145.705L427.844 144.804Z" fill="black"/>
<path d="M339.12 175.146C338.92 175.747 338.82 176.348 338.82 176.648C338.82 176.849 338.72 177.349 338.619 178.251C338.419 179.753 338.319 180.754 338.319 181.355C338.319 182.256 338.419 183.157 338.519 184.159C338.619 184.86 338.519 185.26 338.119 185.561C337.718 185.861 337.418 185.961 337.017 185.961C336.516 185.961 336.116 185.761 335.916 185.36C335.715 184.96 335.615 184.159 335.615 183.057C335.615 182.356 335.816 180.854 336.116 178.351L336.717 174.245C336.817 173.644 336.917 173.043 337.017 172.543C337.117 171.741 337.217 171.341 337.318 171.141C337.418 170.94 337.618 170.74 338.019 170.54C338.319 170.34 338.619 170.239 338.72 170.239C339.12 170.239 339.421 170.44 339.621 170.74C339.821 171.04 339.921 171.441 339.921 171.942L339.12 175.146Z" fill="black"/>
<path d="M344.828 182.156L345.629 178.551C346.23 175.747 346.53 173.744 346.53 172.643C346.53 172.142 346.63 171.742 346.63 171.541C346.731 171.341 346.831 171.141 347.131 170.94C347.432 170.74 347.732 170.64 348.032 170.64C348.233 170.64 348.533 170.74 348.833 170.84C349.134 170.94 349.334 171.441 349.534 172.142C349.835 173.344 350.636 174.946 351.838 177.049C353.039 179.052 354.141 180.654 355.142 181.956C355.443 180.754 355.743 179.152 356.043 177.249C356.244 175.847 356.444 174.646 356.644 173.644C356.845 172.843 356.945 172.042 356.945 171.341C356.945 170.74 357.145 170.34 357.546 170.139C357.846 169.939 358.247 169.839 358.547 169.839C358.847 169.839 359.048 170.039 359.248 170.34C359.448 170.64 359.548 171.041 359.548 171.541C359.548 171.942 359.448 172.442 359.248 173.143C358.847 174.746 358.347 176.849 357.946 179.452C357.546 182.056 357.345 183.458 357.345 183.858V184.259C357.345 184.659 357.345 184.96 357.245 185.16C357.145 185.36 357.045 185.561 356.744 185.761C356.444 185.961 356.144 186.061 355.643 186.061C355.343 186.061 355.142 186.061 355.042 185.961C354.942 185.961 354.742 185.761 354.541 185.561C354.341 185.36 354.141 184.96 353.941 184.659C353.64 184.059 353.34 183.658 353.139 183.458C351.437 181.355 349.835 178.851 348.233 175.947C348.032 176.849 347.732 178.851 347.231 182.056L347.131 183.057C347.031 183.358 347.031 183.858 347.031 184.459C347.031 185.26 346.831 185.761 346.43 186.061C346.13 186.362 345.829 186.562 345.529 186.562C345.028 186.562 344.728 186.462 344.527 186.162C344.327 185.961 344.227 185.461 344.227 184.76C344.327 184.059 344.527 183.258 344.828 182.156Z" fill="black"/>
<path d="M372.166 173.043C372.066 173.143 372.066 173.243 371.966 173.544C371.966 173.844 371.766 175.046 371.566 177.149C371.365 179.352 371.265 181.054 371.265 182.356C371.265 182.857 371.365 183.458 371.465 184.159C371.465 184.259 371.566 184.359 371.566 184.459C371.566 184.86 371.465 185.16 371.265 185.46C371.065 185.761 370.764 185.961 370.464 185.961C370.264 185.961 369.963 185.861 369.563 185.661C369.162 185.46 368.962 185.06 368.962 184.459C368.862 183.858 368.862 183.157 368.862 182.356C368.862 181.154 368.962 179.352 369.262 176.949C369.563 174.545 369.763 173.344 369.763 173.243C369.563 173.243 368.762 173.344 367.36 173.444C365.958 173.544 365.157 173.644 364.956 173.644C364.255 173.644 363.755 173.544 363.454 173.344C363.154 173.143 363.054 172.843 363.054 172.442C363.054 172.042 363.154 171.842 363.454 171.641C363.755 171.441 364.556 171.341 365.757 171.341C367.76 171.341 369.763 171.241 371.766 170.94C373.969 170.64 375.671 170.44 376.773 170.44C378.075 170.44 378.776 170.64 379.076 170.94C379.376 171.241 379.477 171.541 379.477 171.842C379.477 172.543 379.176 172.843 378.575 172.843C378.375 172.843 378.075 172.843 377.574 172.743C377.173 172.743 376.573 172.643 375.972 172.643C374.069 172.643 372.867 172.843 372.166 173.043Z" fill="black"/>
<path d="M392.895 172.542L389.591 172.743C388.489 172.843 387.488 172.943 386.686 173.043C385.885 173.143 385.385 173.243 385.385 173.344C385.285 173.444 385.285 173.644 385.285 173.944C385.285 174.345 385.084 174.946 384.884 175.847C384.684 176.548 384.584 177.049 384.584 177.549C385.084 177.549 385.685 177.549 386.486 177.449C387.287 177.349 387.888 177.249 388.289 177.149C389.29 176.949 390.091 176.748 390.692 176.748C391.794 176.748 392.394 177.049 392.394 177.75C392.394 178.25 392.194 178.551 391.894 178.751C391.593 178.951 391.093 179.051 390.392 179.152C389.991 179.152 389.49 179.252 388.99 179.352C388.689 179.352 388.389 179.452 387.988 179.452C385.986 179.652 384.884 179.853 384.483 179.953C384.383 179.953 384.283 180.053 384.183 180.153C384.083 180.253 383.983 180.854 383.883 181.755C383.682 182.656 383.682 183.357 383.682 183.658C383.682 183.958 383.883 184.058 384.183 184.058C384.483 184.058 385.385 183.958 386.887 183.758C388.289 183.558 389.19 183.458 389.591 183.357C390.592 183.157 391.193 183.057 391.493 183.057C392.394 183.157 392.795 183.558 392.795 184.259C392.795 184.559 392.695 184.86 392.495 184.96C391.794 185.26 390.792 185.46 389.591 185.561C388.589 185.661 387.488 185.761 386.086 185.961C384.884 186.262 383.682 186.362 382.581 186.362C381.98 186.362 381.579 186.262 381.379 185.961C381.079 185.761 380.979 185.36 380.878 184.86V184.559C380.878 184.459 380.979 184.259 381.079 183.958C381.379 183.057 381.68 181.154 382.08 178.15C382.481 175.146 382.681 173.444 382.681 173.143C382.681 173.143 382.681 173.143 382.581 173.043C382.581 173.043 382.481 172.843 382.28 172.643C382.18 172.442 382.08 172.142 382.08 171.942C382.08 171.841 382.08 171.741 382.08 171.641C382.08 171.541 382.28 171.341 382.581 171.241C382.881 171.14 383.081 171.04 383.382 171.04C383.682 171.04 384.083 171.04 384.383 171.14C384.984 171.14 386.887 170.94 390.091 170.54C391.193 170.439 391.693 170.339 391.794 170.339H391.894C393.196 170.239 393.796 170.64 393.796 171.541C393.796 171.741 393.696 171.942 393.496 172.142C393.296 172.242 393.095 172.442 392.895 172.542Z" fill="black"/>
<path d="M399.304 172.843L399.204 172.643C399.004 172.242 398.904 172.042 398.904 171.842C398.904 171.541 399.104 171.241 399.405 170.94C399.705 170.64 400.105 170.54 400.306 170.54C400.406 170.54 400.606 170.54 400.806 170.54C401.007 170.54 401.107 170.54 401.207 170.54C403.31 170.239 404.712 170.039 405.613 170.039C407.215 170.039 408.417 170.44 409.318 171.141C410.22 171.842 410.72 172.843 410.72 173.944C410.72 174.946 410.22 175.947 409.318 176.949C408.417 177.85 407.215 178.651 405.713 179.252C408.217 181.255 410.119 182.657 411.421 183.458C411.922 183.758 412.122 184.059 412.122 184.559C412.122 184.86 411.922 185.16 411.622 185.36C411.321 185.661 411.021 185.761 410.72 185.761C410.32 185.761 409.819 185.561 409.318 185.26C408.818 184.86 408.016 184.359 407.115 183.558C406.114 182.757 405.613 182.356 405.413 182.156C404.111 181.054 403.11 180.253 402.509 179.953C401.808 179.953 401.407 179.552 401.407 178.851C401.407 178.551 401.608 178.25 401.908 177.95C402.208 177.65 402.609 177.55 403.01 177.55C403.11 177.55 403.31 177.55 403.41 177.65C403.51 177.65 403.61 177.75 403.711 177.75C404.211 177.75 405.012 177.349 406.214 176.648C407.416 175.847 408.017 175.046 408.017 174.045C408.017 173.544 407.716 173.143 407.215 172.743C406.715 172.342 406.014 172.242 405.313 172.242C404.411 172.242 403.61 172.342 403.01 172.442C402.409 172.543 402.108 172.643 402.108 172.643C402.108 172.643 402.008 172.843 401.908 172.943C401.808 173.143 401.708 173.844 401.407 175.146C401.207 176.448 401.007 177.85 400.806 179.352C400.606 180.854 400.506 181.956 400.506 182.757C400.506 183.257 400.506 183.658 400.606 183.958C400.706 184.359 400.706 184.659 400.706 184.96C400.706 185.26 400.506 185.461 400.206 185.761C399.905 186.061 399.605 186.162 399.204 186.162C398.203 186.162 397.702 185.461 397.702 184.159C397.702 183.057 397.802 181.555 398.103 179.552C398.303 177.55 398.603 175.847 399.004 174.345C399.004 174.145 399.104 173.844 399.104 173.744L399.304 172.843Z" fill="black"/>
<path d="M427.343 172.442C427.142 172.543 426.942 172.643 426.742 172.643C426.642 172.643 426.441 172.643 426.341 172.643C426.141 172.643 425.84 172.543 425.44 172.543C424.539 172.543 423.537 172.643 422.436 172.743C421.334 172.843 420.533 173.043 420.133 173.143C419.732 174.445 419.432 176.047 419.331 177.95C419.632 177.95 419.932 177.85 420.233 177.85C421.334 177.75 422.336 177.549 423.337 177.449C424.138 177.349 424.739 177.249 425.24 177.249C426.341 177.249 426.842 177.65 426.842 178.351C426.842 178.451 426.742 178.651 426.541 178.951C426.341 179.152 426.141 179.352 425.84 179.452C425.64 179.552 425.14 179.652 424.539 179.753L421.735 180.053C420.633 180.153 419.832 180.353 419.331 180.454C419.231 180.454 419.231 180.554 419.131 180.654C419.131 180.754 419.031 181.154 419.031 181.956C418.931 182.757 418.931 183.458 418.931 184.059V185.36C418.931 186.161 418.53 186.562 417.729 186.562C417.329 186.562 416.928 186.462 416.628 186.161C416.227 185.861 416.127 185.46 416.127 184.96C416.127 184.059 416.227 182.757 416.427 181.054C416.427 180.954 416.828 178.351 417.529 173.243C417.529 173.043 417.529 172.843 417.429 172.643C417.329 172.342 417.228 172.142 417.228 171.942C417.228 171.641 417.329 171.441 417.629 171.141C417.929 170.84 418.23 170.74 418.43 170.74C418.63 170.74 418.731 170.74 418.931 170.84C419.231 170.94 419.432 170.94 419.732 170.94C420.032 170.94 421.134 170.84 423.137 170.64C424.439 170.54 425.44 170.44 426.041 170.44C426.742 170.44 427.242 170.54 427.643 170.74C428.044 170.94 428.244 171.141 428.244 171.341C428.144 171.641 427.843 172.142 427.343 172.442Z" fill="black"/>
<path d="M433.151 182.256C433.051 182.556 432.65 183.257 432.049 184.259C431.448 185.26 431.048 185.861 430.747 185.961C430.547 186.061 430.247 186.161 430.147 186.161C429.846 186.161 429.546 186.061 429.245 185.761C428.845 185.46 428.745 185.16 428.745 184.86C428.745 184.559 429.646 183.057 431.448 180.353C432.45 178.851 433.251 177.449 434.052 175.947C435.654 173.043 436.656 171.341 436.956 170.84C437.357 170.339 437.657 170.139 438.058 170.139C438.658 170.139 439.059 170.339 439.359 170.64C439.46 170.74 439.56 170.94 439.56 171.341C439.56 171.641 439.56 171.842 439.46 172.042C440.761 175.947 441.763 178.751 442.464 180.454C443.165 182.056 443.966 183.257 444.667 183.958C445.067 184.359 445.268 184.559 445.368 184.659C445.468 184.76 445.468 184.96 445.468 185.16C445.468 185.561 445.368 185.861 445.067 186.161C444.767 186.462 444.467 186.562 444.066 186.562C443.565 186.562 442.964 186.262 442.464 185.661C441.963 185.06 441.362 184.159 440.861 183.057C440.361 181.956 440.161 181.355 440.161 181.255C440.161 181.255 440.161 181.255 440.06 181.255C439.66 181.255 438.859 181.355 437.457 181.655C436.155 181.956 435.053 182.156 434.252 182.456C434.052 182.556 433.852 182.556 433.752 182.556C433.451 182.456 433.251 182.356 433.151 182.256ZM439.259 178.951C439.059 178.551 438.558 177.049 437.757 174.545C437.657 174.345 437.657 174.145 437.557 174.145L434.553 179.853C434.953 179.753 435.454 179.753 435.955 179.652C436.255 179.652 437.056 179.452 438.358 179.252C438.658 179.052 438.959 179.052 439.259 178.951Z" fill="black"/>
<path d="M459.888 181.956C460.389 181.956 460.69 182.256 460.69 182.757C460.69 183.358 459.888 184.159 458.386 185.16C456.784 186.061 455.282 186.562 453.88 186.562C452.578 186.562 451.377 186.162 450.375 185.26C449.274 184.459 448.773 183.157 448.773 181.555C448.773 179.953 449.374 178.05 450.475 176.048C451.577 174.045 452.979 172.443 454.681 171.141C456.384 169.839 457.986 169.238 459.588 169.238C460.489 169.238 461.29 169.538 461.891 170.039C462.492 170.64 462.692 171.241 462.692 172.042C462.692 172.843 462.592 173.444 462.492 173.844C462.392 174.245 462.091 174.545 461.691 174.746C461.29 175.046 460.89 175.146 460.69 175.146C460.389 175.146 460.189 175.046 459.989 174.846C459.788 174.646 459.688 174.445 459.688 174.045C459.688 173.844 459.788 173.444 459.888 173.043C459.989 172.643 460.089 172.242 460.089 171.942C460.089 171.441 459.888 171.241 459.588 171.241C458.587 171.241 457.385 171.742 456.183 172.843C454.881 173.945 453.88 175.246 452.879 176.949C451.977 178.551 451.577 179.953 451.577 181.255C451.577 182.056 451.777 182.757 452.278 183.358C452.779 183.959 453.48 184.159 454.381 184.159C454.881 184.159 455.582 184.059 456.384 183.758C457.185 183.458 457.986 183.057 458.687 182.557C459.187 182.256 459.688 181.956 459.888 181.956Z" fill="black"/>
<path d="M478.514 172.542L475.21 172.743C474.108 172.843 473.107 172.943 472.306 173.043C471.505 173.143 471.004 173.243 471.004 173.344C470.904 173.444 470.904 173.644 470.904 173.944C470.904 174.345 470.703 174.946 470.503 175.847C470.303 176.548 470.203 177.049 470.203 177.549C470.703 177.549 471.304 177.549 472.105 177.449C472.907 177.349 473.507 177.249 473.908 177.149C474.909 176.949 475.71 176.748 476.311 176.748C477.413 176.748 478.014 177.049 478.014 177.75C478.014 178.25 477.813 178.551 477.513 178.751C477.212 178.951 476.712 179.051 476.011 179.152C475.61 179.152 475.11 179.252 474.609 179.352C474.308 179.352 474.008 179.452 473.607 179.452C471.605 179.652 470.503 179.853 470.103 179.953C470.002 179.953 469.902 180.053 469.802 180.153C469.702 180.253 469.602 180.854 469.502 181.755C469.301 182.656 469.302 183.357 469.302 183.658C469.302 183.958 469.502 184.058 469.802 184.058C470.103 184.058 471.004 183.958 472.506 183.758C473.908 183.558 474.809 183.458 475.21 183.357C476.211 183.157 476.812 183.057 477.112 183.057C478.014 183.157 478.414 183.558 478.414 184.259C478.414 184.559 478.314 184.86 478.114 184.96C477.413 185.26 476.411 185.46 475.21 185.561C474.208 185.661 473.107 185.761 471.705 185.961C470.503 186.262 469.301 186.362 468.2 186.362C467.599 186.362 467.199 186.262 466.998 185.961C466.698 185.761 466.598 185.36 466.498 184.86V184.559C466.498 184.459 466.598 184.259 466.698 183.958C466.998 183.057 467.299 181.154 467.699 178.15C468.1 175.146 468.3 173.444 468.3 173.143C468.3 173.143 468.3 173.143 468.2 173.043C468.2 173.043 468.1 172.843 467.9 172.643C467.799 172.442 467.699 172.142 467.699 171.942C467.699 171.841 467.699 171.741 467.699 171.641C467.699 171.541 467.9 171.341 468.2 171.241C468.5 171.14 468.701 171.04 469.001 171.04C469.301 171.04 469.702 171.04 470.002 171.14C470.603 171.14 472.506 170.94 475.71 170.54C476.812 170.439 477.313 170.339 477.413 170.339H477.513C478.815 170.239 479.416 170.64 479.416 171.541C479.416 171.741 479.315 171.942 479.115 172.142C478.915 172.242 478.715 172.442 478.514 172.542Z" fill="black"/>
<path d="M357.364 343.756L243.117 389.941L492.465 521.972L592 488.836L357.364 343.756Z" fill="url(#paint0_linear)"/>
<path d="M189 367.808L286.999 336.08L590.465 377.147L591.232 489.604L491.826 521.972V408.876L287.127 381.113V447.768L189 480.136V367.808Z" fill="#F5F9FF"/>
<path d="M466.982 368.906C466.982 372.319 440.689 375.179 408.214 375.179C375.74 375.179 349.447 372.412 349.447 368.906C349.447 365.492 375.74 362.725 408.214 362.725C440.689 362.633 466.982 365.4 466.982 368.906Z" fill="#C4D1E6" fill-opacity="0.3"/>
<path d="M324.169 204.689H488.017C490.785 204.689 493.368 205.796 495.306 207.733C497.243 209.671 498.35 212.254 498.35 215.022V314.198H313.099V215.667C313.099 214.191 313.375 212.807 313.929 211.424C314.482 210.132 315.313 208.84 316.328 207.826C317.342 206.811 318.542 205.98 319.926 205.427C321.309 204.966 322.693 204.689 324.169 204.689Z" fill="#1B314C"/>
<path d="M481.744 330.804H329.704C325.276 330.804 321.124 329.051 317.988 325.914C314.851 322.777 313.098 318.534 313.098 314.198H498.35C498.35 316.412 497.888 318.534 497.058 320.563C496.228 322.593 495.028 324.438 493.46 325.914C491.892 327.483 490.047 328.682 488.109 329.512C486.08 330.343 483.865 330.804 481.744 330.804Z" fill="#71A0DD"/>
<path d="M422.422 330.804H388.84V358.758H422.422V330.804Z" fill="#0E518E"/>
<path d="M422.422 330.804H388.84V339.661H422.422V330.804Z" fill="#0A3D76"/>
<path d="M375.556 358.758H435.615C437.921 358.758 440.228 359.68 441.889 361.341C443.549 363.001 444.472 365.216 444.472 367.614V369.459H366.792V367.614C366.792 365.308 367.714 363.001 369.375 361.341C370.943 359.68 373.249 358.758 375.556 358.758Z" fill="#71A0DD"/>
<path d="M320.294 249.433V300.728C320.294 301.466 320.571 302.204 321.124 302.758C321.678 303.311 322.416 303.588 323.154 303.588H405.262L320.294 230.152V249.433Z" fill="#223C49"/>
<path d="M486.817 212.715H323.246C321.586 212.715 320.294 214.007 320.294 215.667V300.728C320.294 302.389 321.586 303.68 323.246 303.68H486.817C488.478 303.68 489.77 302.389 489.77 300.728V215.667C489.77 214.007 488.386 212.715 486.817 212.715Z" fill="url(#paint1_linear)"/>
<path opacity="0.3" d="M410.152 321.947C410.152 322.962 409.876 323.977 409.23 324.899C408.676 325.73 407.846 326.468 406.831 326.837C405.909 327.206 404.802 327.298 403.787 327.114C402.772 326.929 401.849 326.376 401.111 325.638C400.373 324.899 399.912 323.977 399.635 322.962C399.451 321.947 399.543 320.932 399.912 319.918C400.281 318.995 401.019 318.165 401.849 317.611C402.68 317.058 403.695 316.689 404.802 316.689C405.447 316.689 406.185 316.781 406.831 317.058C407.477 317.334 408.031 317.703 408.492 318.165C408.953 318.626 409.322 319.272 409.599 319.825C410.06 320.563 410.152 321.209 410.152 321.947Z" fill="black"/>
<path d="M484.88 215.575H325.553C324.722 215.575 324.077 216.221 324.077 217.051V224.985C324.077 225.816 324.722 226.461 325.553 226.461H484.88C485.711 226.461 486.356 225.816 486.356 224.985V217.051C486.356 216.313 485.711 215.575 484.88 215.575Z" fill="#B4D1FA"/>
<path d="M403.602 232.643H325.091C324.261 232.643 323.615 233.381 323.615 234.211V283.937C323.615 284.768 324.261 285.506 325.091 285.506H403.602C404.432 285.506 405.078 284.768 405.078 283.937V234.211C405.078 233.288 404.432 232.643 403.602 232.643Z" fill="#B4D1FA"/>
<path d="M441.335 235.226H410.89C410.521 235.226 410.152 235.595 410.152 235.964V237.44C410.152 237.809 410.521 238.178 410.89 238.178H441.335C441.704 238.178 442.073 237.809 442.073 237.44V235.964C442.073 235.595 441.704 235.226 441.335 235.226Z" fill="#B4D1FA"/>
<path d="M460.709 242.606H410.89C410.521 242.606 410.152 242.975 410.152 243.344V244.359C410.152 244.728 410.521 245.097 410.89 245.097H460.709C461.078 245.097 461.447 244.728 461.447 244.359V243.344C461.447 242.883 461.17 242.606 460.709 242.606Z" fill="#B4D1FA"/>
<path d="M460.709 247.035H410.89C410.521 247.035 410.152 247.404 410.152 247.773V248.788C410.152 249.157 410.521 249.526 410.89 249.526H460.709C461.078 249.526 461.447 249.157 461.447 248.788V247.773C461.447 247.312 461.17 247.035 460.709 247.035Z" fill="#B4D1FA"/>
<path d="M460.709 251.371H410.89C410.521 251.371 410.152 251.74 410.152 252.109V253.124C410.152 253.493 410.521 253.862 410.89 253.862H460.709C461.078 253.862 461.447 253.493 461.447 253.124V252.109C461.447 251.74 461.17 251.371 460.709 251.371Z" fill="#B4D1FA"/>
<path d="M400.649 293.532C401.48 293.532 402.126 292.886 402.126 292.056C402.126 291.226 401.48 290.58 400.649 290.58C399.819 290.58 399.173 291.226 399.173 292.056C399.173 292.886 399.819 293.532 400.649 293.532Z" fill="#B4D1FA"/>
<path opacity="0.5" d="M404.986 293.532C405.816 293.532 406.462 292.886 406.462 292.056C406.462 291.226 405.816 290.58 404.986 290.58C404.156 290.58 403.51 291.226 403.51 292.056C403.602 292.886 404.248 293.532 404.986 293.532Z" fill="#B4D1FA"/>
<path opacity="0.5" d="M409.414 293.532C410.244 293.532 410.89 292.886 410.89 292.056C410.89 291.226 410.244 290.58 409.414 290.58C408.584 290.58 407.938 291.226 407.938 292.056C407.938 292.886 408.584 293.532 409.414 293.532Z" fill="#B4D1FA"/>
<path d="M418.178 311.799L371.22 221.111H495.305V311.799H418.178Z" fill="#D0E4FF" fill-opacity="0.2"/>
<path d="M286.999 447.768L189 480.136V367.68L286.999 381.369V447.768Z" fill="#E1E7F0"/>
<path d="M491.826 408.876L591.361 378.555V489.476L491.826 521.971V408.876Z" fill="#E1E7F0"/>
<path d="M210.2 153.4L214.5 157.7" stroke="#71A0DD" stroke-width="1.6547" stroke-miterlimit="10" stroke-linecap="round" stroke-linejoin="round"/>
<path d="M195.2 138.5L203.2 146.5" stroke="#71A0DD" stroke-width="1.6547" stroke-miterlimit="10" stroke-linecap="round" stroke-linejoin="round"/>
<path d="M208.8 139.5L239.1 169.5" stroke="#71A0DD" stroke-width="1.6547" stroke-miterlimit="10" stroke-linecap="round" stroke-linejoin="round"/>
<path d="M193.4 124.1L199.5 130.3" stroke="#71A0DD" stroke-width="1.6547" stroke-miterlimit="10" stroke-linecap="round" stroke-linejoin="round"/>
<path d="M230.5 148.5L257.1 175" stroke="url(#paint2_linear)" stroke-width="1.6547" stroke-miterlimit="10" stroke-linecap="round" stroke-linejoin="round"/>
<path d="M190.4 108.5L218.7 136.7" stroke="url(#paint3_linear)" stroke-width="1.6547" stroke-miterlimit="10" stroke-linecap="round" stroke-linejoin="round"/>
<path d="M212.6 118.1L259.6 164.8" stroke="#71A0DD" stroke-width="1.6547" stroke-miterlimit="10" stroke-linecap="round" stroke-linejoin="round"/>
<path d="M193.2 98.8L203.1 108.7" stroke="#71A0DD" stroke-width="1.6547" stroke-miterlimit="10" stroke-linecap="round" stroke-linejoin="round"/>
<path d="M251.4 144.1L262.7 155.4" stroke="#71A0DD" stroke-width="1.6547" stroke-miterlimit="10" stroke-linecap="round" stroke-linejoin="round"/>
<path d="M182 75L239.5 132.3" stroke="#71A0DD" stroke-width="1.6547" stroke-miterlimit="10" stroke-linecap="round" stroke-linejoin="round"/>
<path d="M228.2 108.4L284.4 164.4" stroke="url(#paint4_linear)" stroke-width="1.6547" stroke-miterlimit="10" stroke-linecap="round" stroke-linejoin="round"/>
<path d="M203.3 83.7L216.4 96.7" stroke="url(#paint5_linear)" stroke-width="1.6547" stroke-miterlimit="10" stroke-linecap="round" stroke-linejoin="round"/>
<path d="M239 106.6L275.3 142.8" stroke="#71A0DD" stroke-width="1.6547" stroke-miterlimit="10" stroke-linecap="round" stroke-linejoin="round"/>
<path d="M201.9 69.8L228.8 96.5" stroke="#71A0DD" stroke-width="1.6547" stroke-miterlimit="10" stroke-linecap="round" stroke-linejoin="round"/>
<path d="M269 123.9L288 142.7" stroke="url(#paint6_linear)" stroke-width="1.6547" stroke-miterlimit="10" stroke-linecap="round" stroke-linejoin="round"/>
<path d="M218.4 73.5L255.3 110.2" stroke="url(#paint7_linear)" stroke-width="1.6547" stroke-miterlimit="10" stroke-linecap="round" stroke-linejoin="round"/>
<path d="M250.6 93.1L276.2 118.6" stroke="#71A0DD" stroke-width="1.6547" stroke-miterlimit="10" stroke-linecap="round" stroke-linejoin="round"/>
<path d="M221.4 64L240.6 83.1" stroke="#71A0DD" stroke-width="1.6547" stroke-miterlimit="10" stroke-linecap="round" stroke-linejoin="round"/>
<path d="M273.4 103.1L283.3 113.1" stroke="url(#paint8_linear)" stroke-width="1.6547" stroke-miterlimit="10" stroke-linecap="round" stroke-linejoin="round"/>
<path d="M236.8 66.6L262 91.8" stroke="url(#paint9_linear)" stroke-width="1.6547" stroke-miterlimit="10" stroke-linecap="round" stroke-linejoin="round"/>
<path d="M268.2 85.4L274.3 91.6" stroke="#71A0DD" stroke-width="1.6547" stroke-miterlimit="10" stroke-linecap="round" stroke-linejoin="round"/>
<path d="M257.5 74.7L261.8 79" stroke="#71A0DD" stroke-width="1.6547" stroke-miterlimit="10" stroke-linecap="round" stroke-linejoin="round"/>
<path d="M6.20018 151C5.10018 152.2 3.20018 152.4 2.00018 151.3C0.800181 150.2 0.600182 148.3 1.70018 147.1C2.80018 145.9 4.70018 145.7 5.90018 146.8C7.20018 148 7.30018 149.9 6.20018 151Z" fill="#F985A0"/>
<path d="M19.2998 162.5C18.1998 163.7 16.2998 163.9 15.0998 162.8C13.8998 161.7 13.6998 159.8 14.7998 158.6C15.8998 157.4 17.7998 157.2 18.9998 158.3C20.2998 159.5 20.3998 161.4 19.2998 162.5Z" fill="#71A0DD"/>
<path d="M45.2998 185.5C44.1998 186.7 42.2998 186.9 41.0998 185.8C39.8998 184.7 39.6998 182.8 40.7998 181.6C41.8998 180.4 43.7998 180.2 44.9998 181.3C46.2998 182.4 46.3998 184.2 45.2998 185.5Z" fill="#F985A0"/>
<path d="M58.3999 197C57.2999 198.2 55.3999 198.4 54.1999 197.3C52.9999 196.2 52.7999 194.3 53.8999 193.1C54.9999 191.9 56.8999 191.7 58.0999 192.8C59.2999 193.9 59.4999 195.7 58.3999 197Z" fill="#71A0DD"/>
<path d="M29.7998 150.9C28.6998 152.1 26.7998 152.3 25.5998 151.2C24.3998 150.1 24.1998 148.2 25.2998 147C26.3998 145.8 28.2998 145.6 29.4998 146.7C30.7998 147.8 30.8998 149.6 29.7998 150.9Z" fill="#F985A0"/>
<path d="M42.7998 162.4C41.6998 163.6 39.7998 163.8 38.5998 162.7C37.3998 161.6 37.1998 159.7 38.2998 158.5C39.3998 157.3 41.2998 157.1 42.4998 158.2C43.6998 159.2 43.8998 161.1 42.7998 162.4Z" fill="#F985A0"/>
<path d="M55.7998 173.8C54.6998 175 52.7998 175.2 51.5998 174.1C50.3998 173 50.1998 171.1 51.2998 169.9C52.3998 168.7 54.2998 168.5 55.4998 169.6C56.6998 170.7 56.8998 172.6 55.7998 173.8Z" fill="#71A0DD"/>
<path d="M40.2998 139.1C39.1998 140.3 37.2998 140.5 36.0998 139.4C34.8998 138.3 34.6998 136.4 35.7998 135.2C36.8998 134 38.7998 133.8 39.9998 134.9C41.2998 136 41.3998 137.9 40.2998 139.1Z" fill="#71A0DD"/>
<path d="M53.2998 150.6C52.1998 151.8 50.2998 152 49.0998 150.9C47.8998 149.8 47.6998 147.9 48.7998 146.7C49.8998 145.5 51.7998 145.3 52.9998 146.4C54.2998 147.5 54.3998 149.4 53.2998 150.6Z" fill="#F985A0"/>
<path d="M66.2998 162.1C65.1998 163.3 63.2998 163.5 62.0998 162.4C60.8998 161.3 60.6998 159.4 61.7998 158.2C62.8998 157 64.7998 156.8 65.9998 157.9C67.2998 159 67.3998 160.8 66.2998 162.1Z" fill="#F985A0"/>
<path d="M79.3999 173.6C78.2999 174.8 76.3999 175 75.1999 173.9C73.9999 172.8 73.7999 170.9 74.8999 169.7C75.9999 168.5 77.8999 168.3 79.0999 169.4C80.3999 170.5 80.4999 172.3 79.3999 173.6Z" fill="#F985A0"/>
<path d="M37.7998 115.9C36.6998 117.1 34.7998 117.3 33.5998 116.2C32.3998 115.1 32.1998 113.2 33.2998 112C34.3998 110.8 36.2998 110.6 37.4998 111.7C38.6998 112.9 38.8998 114.8 37.7998 115.9Z" fill="#71A0DD"/>
<path d="M63.7998 138.9C62.6998 140.1 60.7998 140.3 59.5998 139.2C58.3998 138.1 58.1998 136.2 59.2998 135C60.3998 133.8 62.2998 133.6 63.4998 134.7C64.7998 135.8 64.8998 137.6 63.7998 138.9Z" fill="#F985A0"/>
<path d="M76.7998 150.3C75.6998 151.5 73.7998 151.7 72.5998 150.6C71.3998 149.5 71.1998 147.6 72.2998 146.4C73.3998 145.2 75.2998 145 76.4998 146.1C77.7998 147.2 77.8998 149.1 76.7998 150.3Z" fill="#71A0DD"/>
<path d="M715.9 147.1C716.3 146.7 717 146.7 717.5 147.1C717.9 147.5 717.9 148.2 717.5 148.7C717.1 149.1 716.4 149.1 715.9 148.7C715.5 148.2 715.5 147.6 715.9 147.1Z" fill="#0A3D76"/>
<path d="M703.7 135C704.1 134.6 704.8 134.6 705.3 135C705.7 135.4 705.7 136.1 705.3 136.6C704.9 137 704.2 137 703.7 136.6C703.3 136.1 703.3 135.4 703.7 135Z" fill="#0A3D76"/>
<path d="M692.4 124.7C693 124.7 693.5 124.2 693.5 123.6C693.5 123 693 122.5 692.4 122.5C691.8 122.5 691.3 123 691.3 123.6C691.3 124.2 691.8 124.7 692.4 124.7Z" fill="#0A3D76"/>
<path d="M680.2 112.6C680.8 112.6 681.3 112.1 681.3 111.5C681.3 110.9 680.8 110.4 680.2 110.4C679.6 110.4 679.1 110.9 679.1 111.5C679.1 112.1 679.6 112.6 680.2 112.6Z" fill="#0A3D76"/>
<path d="M668.1 100.4C668.7 100.4 669.2 99.9 669.2 99.3C669.2 98.7 668.7 98.2 668.1 98.2C667.5 98.2 667 98.7 667 99.3C667 99.9 667.5 100.4 668.1 100.4Z" fill="#0A3D76"/>
<path d="M727.5 138.2C728.1 138.2 728.6 137.7 728.6 137.1C728.6 136.5 728.1 136 727.5 136C726.9 136 726.4 136.5 726.4 137.1C726.4 137.7 726.9 138.2 727.5 138.2Z" fill="#0A3D76"/>
<path d="M715.3 126C715.9 126 716.4 125.5 716.4 124.9C716.4 124.3 715.9 123.8 715.3 123.8C714.7 123.8 714.2 124.3 714.2 124.9C714.2 125.5 714.7 126 715.3 126Z" fill="#0A3D76"/>
<path d="M702.4 112C702.8 111.6 703.5 111.6 704 112C704.4 112.4 704.4 113.1 704 113.6C703.6 114 702.9 114 702.4 113.6C702.1 113.1 702.1 112.4 702.4 112Z" fill="#0A3D76"/>
<path d="M690.3 99.9C690.7 99.5 691.4 99.5 691.9 99.9C692.3 100.3 692.3 101 691.9 101.5C691.5 102 690.8 101.9 690.3 101.5C689.8 101.1 689.9 100.3 690.3 99.9Z" fill="#0A3D76"/>
<path d="M678.2 87.7C678.6 87.3 679.3 87.3 679.8 87.7C680.2 88.1 680.2 88.8 679.8 89.3C679.4 89.7 678.7 89.7 678.2 89.3C677.8 88.8 677.8 88.2 678.2 87.7Z" fill="#0A3D76"/>
<path d="M738.3 127.3C738.9 127.3 739.4 126.8 739.4 126.2C739.4 125.6 738.9 125.1 738.3 125.1C737.7 125.1 737.2 125.6 737.2 126.2C737.2 126.8 737.7 127.3 738.3 127.3Z" fill="#0A3D76"/>
<path d="M725.4 113.3C725.8 112.9 726.5 112.9 727 113.3C727.4 113.7 727.4 114.4 727 114.9C726.6 115.3 725.9 115.3 725.4 114.9C725 114.4 725 113.7 725.4 113.3Z" fill="#0A3D76"/>
<path d="M713.3 101.2C713.7 100.8 714.4 100.8 714.9 101.2C715.3 101.6 715.3 102.3 714.9 102.8C714.5 103.2 713.8 103.2 713.3 102.8C712.9 102.3 712.9 101.6 713.3 101.2Z" fill="#0A3D76"/>
<path d="M701.2 89C701.6 88.6 702.3 88.6 702.8 89C703.2 89.4 703.2 90.0999 702.8 90.5999C702.4 90.9999 701.7 90.9999 701.2 90.5999C700.7 90.0999 700.7 89.4 701.2 89Z" fill="#0A3D76"/>
<path d="M689 76.9C689.4 76.5 690.1 76.5 690.6 76.9C691 77.3 691 78 690.6 78.5C690.2 78.9 689.5 78.9 689 78.5C688.6 78 688.6 77.3 689 76.9Z" fill="#0A3D76"/>
<path d="M748.4 114.6C748.8 114.2 749.5 114.2 750 114.6C750.4 115 750.4 115.7 750 116.2C749.6 116.6 748.9 116.6 748.4 116.2C748 115.7 748 115 748.4 114.6Z" fill="#0A3D76"/>
<path d="M736.3 102.4C736.7 102 737.4 102 737.9 102.4C738.3 102.8 738.3 103.5 737.9 104C737.5 104.4 736.8 104.4 736.3 104C735.9 103.6 735.9 102.9 736.3 102.4Z" fill="#0A3D76"/>
<path d="M724.9 92.2C725.5 92.2 726 91.7 726 91.1C726 90.5 725.5 90 724.9 90C724.3 90 723.8 90.5 723.8 91.1C723.8 91.7 724.3 92.2 724.9 92.2Z" fill="#0A3D76"/>
<path d="M712.8 80.1C713.4 80.1 713.9 79.6 713.9 79C713.9 78.4 713.4 77.9 712.8 77.9C712.2 77.9 711.7 78.4 711.7 79C711.7 79.6 712.2 80.1 712.8 80.1Z" fill="#0A3D76"/>
<path d="M700.7 67.9C701.3 67.9 701.8 67.4 701.8 66.8C701.8 66.2 701.3 65.7 700.7 65.7C700.1 65.7 699.6 66.2 699.6 66.8C699.6 67.4 700 67.9 700.7 67.9Z" fill="#0A3D76"/>
<path d="M760.1 105.6C760.7 105.6 761.2 105.1 761.2 104.5C761.2 103.9 760.7 103.4 760.1 103.4C759.5 103.4 759 103.9 759 104.5C758.9 105.1 759.4 105.6 760.1 105.6Z" fill="#0A3D76"/>
<path d="M747.9 93.5C748.5 93.5 749 93 749 92.4C749 91.8 748.5 91.3 747.9 91.3C747.3 91.3 746.8 91.8 746.8 92.4C746.8 93 747.3 93.5 747.9 93.5Z" fill="#0A3D76"/>
<path d="M735 79.4C735.4 79 736.1 79 736.6 79.4C737 79.8 737 80.5 736.6 81C736.2 81.4 735.5 81.4 735 81C734.5 80.6 734.5 79.9 735 79.4Z" fill="#0A3D76"/>
<path d="M722.9 67.3C723.3 66.9 724 66.9 724.5 67.3C724.9 67.7 724.9 68.4 724.5 68.9C724.1 69.3 723.4 69.3 722.9 68.9C722.4 68.5 722.4 67.7 722.9 67.3Z" fill="#0A3D76"/>
<path d="M710.7 55.2C711.1 54.8 711.8 54.8 712.3 55.2C712.7 55.6 712.7 56.3 712.3 56.8C711.9 57.2 711.2 57.2 710.7 56.8C710.3 56.3 710.3 55.6 710.7 55.2Z" fill="#0A3D76"/>
<path d="M770.9 94.8C771.5 94.8 772 94.3 772 93.7C772 93.1 771.5 92.6 770.9 92.6C770.3 92.6 769.8 93.1 769.8 93.7C769.8 94.3 770.3 94.8 770.9 94.8Z" fill="#0A3D76"/>
<path d="M758 80.7C758.4 80.3 759.1 80.3 759.6 80.7C760 81.1 760 81.8 759.6 82.3C759.2 82.7 758.5 82.7 758 82.3C757.5 81.8 757.5 81.2 758 80.7Z" fill="#0A3D76"/>
<path d="M745.8 68.6C746.2 68.2 746.9 68.2 747.4 68.6C747.9 69 747.8 69.7 747.4 70.2C747 70.6 746.3 70.6 745.8 70.2C745.4 69.7 745.4 69.1 745.8 68.6Z" fill="#0A3D76"/>
<path d="M734.5 58.3C735.1 58.3 735.6 57.8 735.6 57.2C735.6 56.6 735.1 56.1 734.5 56.1C733.9 56.1 733.4 56.6 733.4 57.2C733.4 57.8 733.9 58.3 734.5 58.3Z" fill="#0A3D76"/>
<path d="M721.6 44.3C722 43.9 722.7 43.9 723.2 44.3C723.6 44.7 723.6 45.4 723.2 45.9C722.8 46.3 722.1 46.3 721.6 45.9C721.1 45.5 721.1 44.8 721.6 44.3Z" fill="#0A3D76"/>
<defs>
<linearGradient id="paint0_linear" x1="313.544" y1="365.494" x2="653.301" y2="606.679" gradientUnits="userSpaceOnUse">
<stop offset="0.1728" stop-color="#B4D1FA" stop-opacity="0"/>
<stop offset="1" stop-opacity="0.2"/>
</linearGradient>
<linearGradient id="paint1_linear" x1="458.667" y1="301.724" x2="272.874" y2="150.789" gradientUnits="userSpaceOnUse">
<stop stop-color="#8FB1DB"/>
<stop offset="1" stop-color="#71A0DD"/>
</linearGradient>
<linearGradient id="paint2_linear" x1="256.26" y1="162.006" x2="231.292" y2="161.469" gradientUnits="userSpaceOnUse">
<stop stop-color="#A62E41"/>
<stop offset="1" stop-color="#E13152"/>
</linearGradient>
<linearGradient id="paint3_linear" x1="217.852" y1="122.937" x2="191.224" y2="122.363" gradientUnits="userSpaceOnUse">
<stop stop-color="#A62E41"/>
<stop offset="1" stop-color="#E13152"/>
</linearGradient>
<linearGradient id="paint4_linear" x1="282.576" y1="136.956" x2="229.804" y2="135.819" gradientUnits="userSpaceOnUse">
<stop stop-color="#A62E41"/>
<stop offset="1" stop-color="#E13152"/>
</linearGradient>
<linearGradient id="paint5_linear" x1="215.97" y1="90.3263" x2="203.659" y2="90.0593" gradientUnits="userSpaceOnUse">
<stop stop-color="#A62E41"/>
<stop offset="1" stop-color="#E13152"/>
</linearGradient>
<linearGradient id="paint6_linear" x1="287.411" y1="133.54" x2="269.566" y2="133.154" gradientUnits="userSpaceOnUse">
<stop stop-color="#A62E41"/>
<stop offset="1" stop-color="#E13152"/>
</linearGradient>
<linearGradient id="paint7_linear" x1="254.099" y1="92.2513" x2="219.448" y2="91.5043" gradientUnits="userSpaceOnUse">
<stop stop-color="#A62E41"/>
<stop offset="1" stop-color="#E13152"/>
</linearGradient>
<linearGradient id="paint8_linear" x1="283.055" y1="108.207" x2="273.718" y2="108.007" gradientUnits="userSpaceOnUse">
<stop stop-color="#A62E41"/>
<stop offset="1" stop-color="#E13152"/>
</linearGradient>
<linearGradient id="paint9_linear" x1="261.232" y1="79.4951" x2="237.509" y2="78.984" gradientUnits="userSpaceOnUse">
<stop stop-color="#A62E41"/>
<stop offset="1" stop-color="#E13152"/>
</linearGradient>
</defs>
</svg>
