<svg width="777" height="501" viewBox="0 0 777 501" fill="none" xmlns="http://www.w3.org/2000/svg">
<path d="M775.729 210.957L753.432 233.272C753.071 233.633 752.53 233.633 752.168 233.272L729.871 210.957C729.51 210.596 729.51 210.054 729.871 209.692L752.168 187.378C752.53 187.016 753.071 187.016 753.432 187.378L775.729 209.692C776.09 209.963 776.09 210.596 775.729 210.957Z" stroke="#E0E0E0" stroke-width="1.7064" stroke-miterlimit="10"/>
<path d="M765.495 210.374L752.82 223.058C752.819 223.058 752.818 223.058 752.817 223.059C752.812 223.059 752.806 223.06 752.8 223.06C752.794 223.06 752.788 223.059 752.783 223.059C752.782 223.058 752.78 223.058 752.779 223.058L740.077 210.346C740.077 210.345 740.077 210.343 740.077 210.342C740.076 210.337 740.075 210.331 740.075 210.325C740.075 210.318 740.076 210.313 740.077 210.308C740.077 210.306 740.077 210.305 740.077 210.304L752.78 197.501C752.781 197.501 752.782 197.501 752.783 197.5C752.788 197.5 752.794 197.499 752.8 197.499C752.806 197.499 752.812 197.5 752.817 197.5C752.818 197.501 752.819 197.501 752.82 197.501L765.495 210.185C765.521 210.234 765.525 210.264 765.525 210.28C765.525 210.295 765.521 210.325 765.495 210.374Z" fill="#EBF2F9" stroke="#EBF2F9"/>
<path d="M533.378 61.0864C533.751 61.0864 533.937 61.2653 533.937 61.6229C533.937 62.0676 533.395 62.6161 532.311 63.2686C531.232 63.9163 530.188 64.2401 529.177 64.2401C528.285 64.2401 527.463 63.9525 526.713 63.3774C525.963 62.8022 525.587 61.9637 525.587 60.8617C525.587 59.7404 525.98 58.4959 526.764 57.1281C527.549 55.7603 528.52 54.6463 529.678 53.786C530.84 52.9257 531.973 52.4955 533.076 52.4955C533.733 52.4955 534.258 52.6888 534.651 53.0755C535.043 53.4621 535.239 53.914 535.239 54.4312C535.239 54.9918 535.195 55.3954 535.107 55.6419C535.018 55.8835 534.83 56.0914 534.54 56.2654C534.251 56.4394 534.015 56.5264 533.834 56.5264C533.648 56.5264 533.486 56.4611 533.348 56.3306C533.211 56.2001 533.143 56.0237 533.143 55.8014C533.143 55.6467 533.184 55.422 533.268 55.1272C533.346 54.8323 533.385 54.5858 533.385 54.3877C533.385 54.0542 533.27 53.8874 533.04 53.8874C532.333 53.8874 531.541 54.2596 530.663 55.0039C529.785 55.7482 529.033 56.6738 528.405 57.7806C527.782 58.8825 527.471 59.8564 527.471 60.7022C527.471 61.2629 527.635 61.7365 527.964 62.1232C528.292 62.5098 528.773 62.7031 529.405 62.7031C529.778 62.7031 530.247 62.6041 530.81 62.4059C531.379 62.2077 531.904 61.9395 532.385 61.6012C532.87 61.258 533.201 61.0864 533.378 61.0864Z" fill="black"/>
<path d="M538.909 54.8662L538.813 54.6994C538.656 54.4578 538.577 54.2789 538.577 54.1629C538.577 53.9309 538.698 53.7304 538.938 53.5612C539.178 53.3872 539.396 53.3002 539.593 53.3002C539.681 53.3002 539.794 53.3075 539.931 53.322C540.068 53.3413 540.152 53.351 540.181 53.351C541.628 53.1286 542.643 53.0175 543.227 53.0175C544.32 53.0175 545.184 53.2736 545.816 53.786C546.454 54.2934 546.773 54.9217 546.773 55.6709C546.773 56.3862 546.459 57.0653 545.831 57.7081C545.208 58.3509 544.372 58.8777 543.322 59.2885C545.068 60.6805 546.392 61.6374 547.295 62.1594C547.614 62.3479 547.773 62.5896 547.773 62.8844C547.773 63.0777 547.66 63.271 547.435 63.4644C547.214 63.6577 547.006 63.7544 546.809 63.7544C546.525 63.7544 546.201 63.6335 545.838 63.3919C545.475 63.1502 544.963 62.7708 544.301 62.2537C543.639 61.7317 543.256 61.4199 543.153 61.3184C542.221 60.55 541.549 60.0401 541.138 59.7887C540.618 59.7887 540.358 59.535 540.358 59.0275C540.358 58.7907 540.473 58.5877 540.703 58.4185C540.934 58.2445 541.196 58.1575 541.491 58.1575C541.574 58.1575 541.665 58.1696 541.763 58.1938C541.856 58.2228 541.922 58.2373 541.961 58.2373C542.275 58.2373 542.856 57.9787 543.705 57.4616C544.553 56.9444 544.978 56.3475 544.978 55.6709C544.978 55.3326 544.799 55.0426 544.441 54.8009C544.087 54.5593 543.636 54.4384 543.087 54.4384C542.435 54.4384 541.907 54.4771 541.505 54.5544C541.108 54.6318 540.89 54.6873 540.851 54.7212C540.816 54.7502 540.772 54.8251 540.718 54.9459C540.669 55.0667 540.561 55.5646 540.395 56.4394C540.233 57.3093 540.083 58.2663 539.946 59.3103C539.808 60.3494 539.74 61.1154 539.74 61.6084C539.74 61.9226 539.764 62.2053 539.813 62.4566C539.857 62.708 539.88 62.9255 539.88 63.1091C539.88 63.2831 539.774 63.4692 539.563 63.6674C539.357 63.8703 539.132 63.9718 538.886 63.9718C538.205 63.9718 537.864 63.5079 537.864 62.5799C537.864 61.8259 537.947 60.7699 538.114 59.4118C538.286 58.0536 538.487 56.8598 538.717 55.8304C538.752 55.6661 538.781 55.5186 538.806 55.3881L538.909 54.8662Z" fill="black"/>
<path d="M558.74 54.6124L556.474 54.7284C555.685 54.7719 555.005 54.842 554.437 54.9387C553.868 55.0305 553.559 55.103 553.51 55.1562C553.465 55.2045 553.434 55.3519 553.414 55.5984C553.389 55.84 553.301 56.2654 553.149 56.8743C553.027 57.3383 552.953 57.7177 552.928 58.0126C553.242 58.0126 553.694 57.9811 554.282 57.9183C554.871 57.8555 555.287 57.7951 555.533 57.7371C556.239 57.5679 556.786 57.4833 557.173 57.4833C557.948 57.4833 558.335 57.7105 558.335 58.1648C558.335 58.4983 558.228 58.7303 558.012 58.8608C557.796 58.9864 557.458 59.0734 556.997 59.1218C556.712 59.1508 556.393 59.1943 556.04 59.2523C555.854 59.2813 555.621 59.3103 555.341 59.3393C553.983 59.4939 553.181 59.6147 552.936 59.7017H552.928C552.845 59.7259 552.781 59.7815 552.737 59.8685C552.698 59.9555 552.624 60.3156 552.517 60.9487C552.409 61.577 552.355 62.0168 552.355 62.2682C552.379 62.447 552.492 62.5364 552.693 62.5364C552.928 62.5364 553.546 62.4736 554.547 62.3479C555.552 62.2174 556.175 62.128 556.415 62.0797C557.087 61.9395 557.526 61.8694 557.732 61.8694C558.355 61.9564 558.667 62.2416 558.667 62.7249C558.667 62.9472 558.593 63.1164 558.446 63.2324C557.955 63.4499 557.276 63.5852 556.408 63.6384C555.736 63.677 554.922 63.7592 553.966 63.8848C553.112 64.0637 552.308 64.1531 551.553 64.1531C551.156 64.1531 550.869 64.0685 550.692 63.8993C550.516 63.735 550.41 63.4764 550.376 63.1236L550.354 62.8844C550.349 62.8457 550.39 62.6983 550.479 62.4421C550.675 61.8477 550.915 60.5258 551.2 58.4765C551.484 56.4273 551.626 55.2867 551.626 55.0547C551.626 55.0498 551.612 55.0305 551.582 54.9967C551.548 54.9677 551.489 54.8758 551.406 54.7212C551.327 54.5617 551.288 54.3998 551.288 54.2354C551.288 54.1484 551.298 54.0784 551.317 54.0252C551.337 53.9237 551.442 53.8222 551.634 53.7207C551.825 53.6192 552.004 53.5685 552.171 53.5685C552.401 53.5685 552.634 53.583 552.87 53.612C553.277 53.612 554.601 53.467 556.842 53.177C557.588 53.0803 557.977 53.032 558.012 53.032L558.115 53.0247C558.998 52.9619 559.439 53.2422 559.439 53.8657C559.439 53.9817 559.358 54.1267 559.196 54.3007C559.039 54.4698 558.887 54.5738 558.74 54.6124Z" fill="black"/>
<path d="M564.094 61.2604C564.011 61.4634 563.753 61.9129 563.322 62.6089C562.895 63.3 562.598 63.6843 562.432 63.7616C562.265 63.8438 562.118 63.8848 561.99 63.8848C561.814 63.8848 561.6 63.7906 561.35 63.6021C561.105 63.4088 560.982 63.2106 560.982 63.0076C560.982 62.8191 561.598 61.8018 562.829 59.9555C563.501 58.9454 564.114 57.9449 564.668 56.9541C565.781 54.9532 566.46 53.7908 566.706 53.467C566.956 53.1383 567.211 52.974 567.471 52.974C567.888 52.974 568.189 53.0803 568.376 53.293C568.469 53.3606 568.515 53.5225 568.515 53.7787C568.515 53.9672 568.498 54.1194 568.464 54.2354C569.361 56.9323 570.063 58.8414 570.568 59.9627C571.078 61.0792 571.588 61.8888 572.098 62.3914C572.353 62.6427 572.507 62.8119 572.561 62.8989C572.62 62.9859 572.65 63.1019 572.65 63.2469C572.65 63.5127 572.552 63.735 572.355 63.9138C572.159 64.0975 571.926 64.1893 571.657 64.1893C571.284 64.1893 570.904 63.9767 570.516 63.5514C570.134 63.126 569.771 62.5412 569.428 61.7969C569.089 61.0526 568.92 60.6345 568.92 60.5427C568.92 60.5234 568.908 60.5137 568.883 60.5137C568.618 60.5137 568.027 60.6055 567.11 60.7892C566.198 60.9729 565.465 61.1517 564.911 61.3257C564.768 61.3692 564.643 61.3909 564.536 61.3909C564.344 61.3909 564.197 61.3474 564.094 61.2604ZM568.331 59.042C568.214 58.7569 567.866 57.7419 567.287 55.9971C567.233 55.8376 567.196 55.7361 567.176 55.6926L565.087 59.6075C565.396 59.5543 565.713 59.506 566.036 59.4625C566.252 59.4383 566.801 59.3368 567.684 59.158C567.9 59.1145 568.116 59.0759 568.331 59.042Z" fill="black"/>
<path d="M580.056 55.0039C580.012 55.0426 579.973 55.1513 579.938 55.3301C579.904 55.509 579.804 56.3403 579.637 57.8241C579.475 59.3078 579.394 60.4944 579.394 61.3837C579.394 61.751 579.438 62.1618 579.527 62.6161C579.551 62.6838 579.563 62.7611 579.563 62.8481C579.563 63.1091 579.485 63.3435 579.328 63.5514C579.176 63.7592 578.98 63.8631 578.739 63.8631C578.578 63.8631 578.372 63.7834 578.121 63.6239C577.876 63.4692 577.729 63.2034 577.68 62.8264C577.631 62.4494 577.606 61.9588 577.606 61.3547C577.606 60.5282 577.705 59.2982 577.901 57.6646C578.097 56.031 578.215 55.1972 578.254 55.1634C578.117 55.1634 577.567 55.1997 576.606 55.2722C575.64 55.3446 575.078 55.3809 574.921 55.3809C574.416 55.3809 574.066 55.3181 573.869 55.1924C573.673 55.0619 573.575 54.8589 573.575 54.5834C573.575 54.3369 573.678 54.1484 573.884 54.0179C574.095 53.8874 574.625 53.8222 575.473 53.8222C576.886 53.8222 578.271 53.7304 579.63 53.5467C581.16 53.3147 582.32 53.1987 583.109 53.1987C583.992 53.1987 584.529 53.3026 584.72 53.5105C584.911 53.7135 585.007 53.9164 585.007 54.1194C585.007 54.5883 584.796 54.8227 584.374 54.8227C584.237 54.8227 584.016 54.8082 583.712 54.7792C583.403 54.755 583.043 54.7429 582.631 54.7429C581.39 54.7429 580.532 54.8299 580.056 55.0039Z" fill="black"/>
<path d="M588.669 56.4104C588.561 56.8502 588.493 57.2006 588.463 57.4616C588.463 57.6017 588.414 57.9618 588.316 58.5418C588.154 59.5761 588.073 60.2817 588.073 60.6587C588.073 61.2967 588.113 61.925 588.191 62.5436C588.25 62.9931 588.157 63.3218 587.911 63.5296C587.666 63.7326 587.421 63.8341 587.176 63.8341C586.828 63.8341 586.58 63.6867 586.433 63.3919C586.286 63.0922 586.212 62.5751 586.212 61.8404C586.212 61.3861 586.327 60.3035 586.558 58.5925L586.962 55.7579C587.046 55.3422 587.107 54.9556 587.146 54.5979C587.205 54.0711 587.276 53.7473 587.36 53.6265C587.448 53.5008 587.602 53.3703 587.823 53.235C588.044 53.0948 588.211 53.0247 588.323 53.0247C588.608 53.0247 588.824 53.1383 588.971 53.3655C589.123 53.5926 589.199 53.8705 589.199 54.1992L588.669 56.4104Z" fill="black"/>
<path d="M603.204 53.6482C603.214 53.6965 603.032 53.9817 602.66 54.5037C602.091 55.2915 601.637 55.9536 601.299 56.4901C600.965 57.0266 600.34 58.0512 599.423 59.564C598.864 60.4823 598.501 61.0671 598.334 61.3184C597.873 61.9902 597.596 62.5074 597.503 62.8699C597.429 63.1019 597.258 63.2904 596.988 63.4354C596.723 63.5804 596.407 63.6529 596.039 63.6529C595.877 63.6529 595.723 63.532 595.575 63.2904C595.433 63.0487 595.239 62.592 594.994 61.9202C594.69 61.113 594.266 60.0352 593.722 58.6868C592.589 55.898 592.022 54.4553 592.022 54.3587C592.022 54.1847 592.106 53.9503 592.272 53.6555C592.444 53.3606 592.684 53.2132 592.993 53.2132C593.239 53.2132 593.457 53.3026 593.648 53.4815C593.839 53.6555 594.013 54.1339 594.17 54.9169C594.278 55.4727 594.626 56.4974 595.215 57.9908C595.808 59.4794 596.272 60.5814 596.605 61.2967C596.679 61.1904 596.846 60.9052 597.106 60.4412C597.164 60.3397 597.204 60.2745 597.223 60.2455C597.9 59.1773 598.464 58.218 598.915 57.3673C599.739 55.811 600.431 54.6511 600.99 53.8874C601.554 53.1238 602.022 52.742 602.395 52.742C602.939 52.742 603.211 53.0078 603.211 53.5395V53.5975C603.211 53.6168 603.209 53.6337 603.204 53.6482Z" fill="black"/>
<path d="M607.219 56.4104C607.111 56.8502 607.043 57.2006 607.013 57.4616C607.013 57.6017 606.964 57.9618 606.866 58.5418C606.704 59.5761 606.623 60.2817 606.623 60.6587C606.623 61.2967 606.663 61.925 606.741 62.5436C606.8 62.9931 606.707 63.3218 606.462 63.5296C606.216 63.7326 605.971 63.8341 605.726 63.8341C605.378 63.8341 605.13 63.6867 604.983 63.3919C604.836 63.0922 604.762 62.5751 604.762 61.8404C604.762 61.3861 604.877 60.3035 605.108 58.5925L605.513 55.7579C605.596 55.3422 605.657 54.9556 605.696 54.5979C605.755 54.0711 605.826 53.7473 605.91 53.6265C605.998 53.5008 606.153 53.3703 606.373 53.235C606.594 53.0948 606.761 53.0247 606.873 53.0247C607.158 53.0247 607.374 53.1383 607.521 53.3655C607.673 53.5926 607.749 53.8705 607.749 54.1992L607.219 56.4104Z" fill="black"/>
<path d="M616.465 55.0039C616.421 55.0426 616.381 55.1513 616.347 55.3301C616.313 55.509 616.212 56.3403 616.046 57.8241C615.884 59.3078 615.803 60.4944 615.803 61.3837C615.803 61.751 615.847 62.1618 615.935 62.6161C615.96 62.6838 615.972 62.7611 615.972 62.8481C615.972 63.1091 615.894 63.3435 615.737 63.5514C615.585 63.7592 615.388 63.8631 615.148 63.8631C614.986 63.8631 614.78 63.7834 614.53 63.6239C614.285 63.4692 614.138 63.2034 614.089 62.8264C614.04 62.4494 614.015 61.9588 614.015 61.3547C614.015 60.5282 614.113 59.2982 614.309 57.6646C614.506 56.031 614.623 55.1972 614.663 55.1634C614.525 55.1634 613.976 55.1997 613.015 55.2722C612.049 55.3446 611.487 55.3809 611.33 55.3809C610.825 55.3809 610.474 55.3181 610.278 55.1924C610.082 55.0619 609.984 54.8589 609.984 54.5834C609.984 54.3369 610.087 54.1484 610.293 54.0179C610.504 53.8874 611.033 53.8222 611.882 53.8222C613.294 53.8222 614.68 53.7304 616.038 53.5467C617.568 53.3147 618.728 53.1987 619.518 53.1987C620.401 53.1987 620.938 53.3026 621.129 53.5105C621.32 53.7135 621.416 53.9164 621.416 54.1194C621.416 54.5883 621.205 54.8227 620.783 54.8227C620.646 54.8227 620.425 54.8082 620.121 54.7792C619.812 54.755 619.452 54.7429 619.04 54.7429C617.799 54.7429 616.941 54.8299 616.465 55.0039Z" fill="black"/>
<path d="M629.19 58.7883V58.781C629.038 59.187 628.864 60.5234 628.668 62.7901C628.633 63.2928 628.577 63.5852 628.499 63.6674C628.425 63.7495 628.283 63.8268 628.072 63.8993C627.866 63.9767 627.709 64.0153 627.601 64.0153C627.057 64.0153 626.785 63.6529 626.785 62.9279C626.785 62.6041 626.858 61.9927 627.005 61.0937C627.152 60.1996 627.226 59.5737 627.226 59.216C627.226 59.0082 627.196 58.8149 627.138 58.636C626.731 58.2059 626.235 57.6017 625.652 56.8236C624.975 55.9343 624.492 55.3833 624.202 55.1707C623.624 54.7598 623.256 54.4457 623.099 54.2282C622.947 54.0059 622.871 53.8053 622.871 53.6265C622.871 53.5153 622.976 53.3727 623.187 53.1987C623.403 53.0247 623.599 52.9377 623.776 52.9377C624.516 52.9377 625.671 53.972 627.241 56.0406C627.76 56.7366 628.119 57.1716 628.315 57.3456C628.501 57.1474 628.692 56.9299 628.888 56.6931C629.08 56.4563 629.276 56.2388 629.477 56.0406C630.664 54.8372 631.463 53.9551 631.875 53.3945C632.268 52.8532 632.702 52.5825 633.177 52.5825C633.393 52.5825 633.57 52.6695 633.707 52.8435C633.844 53.0175 633.913 53.1987 633.913 53.3872C633.913 53.6724 633.02 54.7188 631.235 56.5264C629.94 57.8555 629.259 58.6095 629.19 58.7883Z" fill="black"/>
<path d="M379.274 164.283C378.547 164.283 377.665 164.046 376.627 163.574C375.597 163.101 374.81 162.3 374.267 161.17C373.724 160.034 373.452 158.809 373.452 157.497C373.452 156.826 373.551 155.94 373.748 154.839L374.087 152.881C374.136 152.549 374.189 152.224 374.246 151.907C374.33 151.42 374.405 150.95 374.468 150.499C374.567 149.722 374.74 149.14 374.987 148.752C375.234 148.356 375.615 148.159 376.13 148.159C376.384 148.159 376.642 148.36 376.903 148.762C377.171 149.158 377.305 149.461 377.305 149.673C377.305 149.821 377.136 150.597 376.797 152.002C376.712 152.355 376.564 153.219 376.352 154.596C376.148 155.965 376.045 156.893 376.045 157.38C376.045 159.18 376.437 160.394 377.22 161.022C378.011 161.65 378.677 161.964 379.221 161.964C381.013 161.964 382.252 161.583 382.936 160.821C383.621 160.052 384.058 158.799 384.249 157.063C384.284 156.745 384.326 156.445 384.376 156.163C384.446 155.443 384.506 154.755 384.556 154.098C384.725 151.607 384.969 150.047 385.286 149.419C385.611 148.791 386.07 148.476 386.662 148.476C387.396 148.476 387.763 148.953 387.763 149.906C387.763 150.47 387.626 151.522 387.35 153.061C387.188 153.985 387.079 154.892 387.022 155.781C386.895 157.92 386.602 159.487 386.144 160.482C385.685 161.477 384.852 162.36 383.646 163.129C382.446 163.898 380.989 164.283 379.274 164.283Z" fill="black"/>
<path d="M401.85 152.192C401.85 151.494 401.67 151.01 401.31 150.742C400.95 150.467 400.421 150.329 399.722 150.329C398.53 150.329 397.422 150.622 396.399 151.208C395.382 151.787 394.874 152.425 394.874 153.124C394.874 153.569 395.065 153.95 395.446 154.268C395.834 154.578 396.829 154.966 398.431 155.432C400.111 155.919 401.356 156.456 402.168 157.041C402.986 157.62 403.395 158.319 403.395 159.138C403.395 160.5 402.358 161.749 400.283 162.885C398.209 164.015 396.053 164.579 393.816 164.579C393.089 164.579 392.507 164.428 392.069 164.124C391.632 163.821 391.413 163.447 391.413 163.002C391.413 162.649 391.512 162.321 391.709 162.017C391.907 161.714 392.143 161.562 392.419 161.562C392.588 161.562 392.743 161.59 392.884 161.647C393.625 161.964 394.317 162.123 394.959 162.123C396.06 162.123 397.295 161.816 398.664 161.202C400.04 160.581 400.728 159.974 400.728 159.381C400.728 159.134 400.555 158.898 400.209 158.672C399.871 158.439 399.175 158.149 398.124 157.804C396.593 157.303 395.439 156.89 394.663 156.565C393.893 156.24 393.308 155.817 392.905 155.294C392.51 154.765 392.313 154.13 392.313 153.389C392.313 152.069 393.082 150.841 394.62 149.705C396.159 148.568 397.965 148 400.04 148C401.233 148 402.171 148.236 402.856 148.709C403.547 149.182 403.893 149.722 403.893 150.329C403.893 151.571 403.212 152.192 401.85 152.192Z" fill="black"/>
<path d="M420.15 150.446L416.89 150.615C415.753 150.679 414.776 150.781 413.957 150.922C413.139 151.056 412.694 151.162 412.624 151.24C412.56 151.31 412.514 151.525 412.486 151.885C412.451 152.238 412.324 152.859 412.105 153.749C411.929 154.426 411.823 154.98 411.787 155.411C412.239 155.411 412.888 155.365 413.735 155.273C414.582 155.182 415.182 155.093 415.535 155.009C416.551 154.762 417.338 154.638 417.895 154.638C419.01 154.638 419.568 154.97 419.568 155.633C419.568 156.12 419.412 156.459 419.102 156.65C418.791 156.833 418.304 156.96 417.641 157.031C417.232 157.073 416.773 157.137 416.265 157.221C415.997 157.264 415.662 157.306 415.259 157.348C413.305 157.574 412.151 157.751 411.798 157.878H411.787C411.668 157.913 411.576 157.994 411.512 158.121C411.456 158.248 411.35 158.774 411.195 159.699C411.039 160.616 410.962 161.259 410.962 161.626C410.997 161.887 411.159 162.017 411.449 162.017C411.787 162.017 412.677 161.926 414.116 161.742C415.563 161.551 416.459 161.421 416.805 161.35C417.772 161.146 418.403 161.043 418.7 161.043C419.596 161.17 420.044 161.587 420.044 162.293C420.044 162.617 419.938 162.864 419.726 163.034C419.021 163.351 418.043 163.549 416.794 163.627C415.828 163.683 414.656 163.803 413.28 163.986C412.052 164.248 410.895 164.378 409.808 164.378C409.236 164.378 408.824 164.255 408.57 164.008C408.316 163.768 408.164 163.39 408.114 162.875L408.083 162.525C408.076 162.469 408.136 162.254 408.263 161.88C408.545 161.012 408.891 159.081 409.3 156.089C409.709 153.096 409.914 151.43 409.914 151.091C409.914 151.084 409.893 151.056 409.85 151.007C409.801 150.964 409.716 150.83 409.596 150.604C409.483 150.372 409.427 150.135 409.427 149.895C409.427 149.768 409.441 149.666 409.469 149.588C409.498 149.44 409.649 149.292 409.924 149.143C410.2 148.995 410.457 148.921 410.697 148.921C411.029 148.921 411.364 148.942 411.703 148.985C412.289 148.985 414.194 148.773 417.419 148.349C418.492 148.208 419.053 148.138 419.102 148.138L419.25 148.127C420.52 148.035 421.155 148.445 421.155 149.355C421.155 149.525 421.039 149.736 420.806 149.99C420.58 150.237 420.362 150.389 420.15 150.446Z" fill="black"/>
<path d="M426.52 150.816L426.382 150.573C426.157 150.22 426.044 149.959 426.044 149.789C426.044 149.45 426.217 149.158 426.562 148.91C426.908 148.656 427.222 148.529 427.504 148.529C427.632 148.529 427.794 148.54 427.991 148.561C428.189 148.589 428.309 148.603 428.351 148.603C430.433 148.279 431.894 148.116 432.734 148.116C434.307 148.116 435.549 148.491 436.46 149.239C437.377 149.98 437.836 150.897 437.836 151.991C437.836 153.036 437.384 154.028 436.481 154.966C435.585 155.905 434.381 156.674 432.871 157.274C435.383 159.307 437.289 160.704 438.587 161.467C439.046 161.742 439.275 162.095 439.275 162.525C439.275 162.808 439.113 163.09 438.788 163.372C438.471 163.655 438.171 163.796 437.889 163.796C437.479 163.796 437.014 163.619 436.491 163.267C435.969 162.914 435.232 162.36 434.279 161.604C433.326 160.842 432.776 160.387 432.628 160.239C431.287 159.116 430.32 158.372 429.727 158.005C428.979 158.005 428.605 157.634 428.605 156.893C428.605 156.547 428.771 156.251 429.103 156.004C429.435 155.75 429.812 155.623 430.235 155.623C430.355 155.623 430.486 155.64 430.627 155.676C430.761 155.718 430.856 155.739 430.913 155.739C431.365 155.739 432.201 155.362 433.422 154.606C434.642 153.851 435.253 152.979 435.253 151.991C435.253 151.497 434.995 151.074 434.48 150.721C433.972 150.368 433.323 150.192 432.533 150.192C431.594 150.192 430.835 150.248 430.257 150.361C429.685 150.474 429.371 150.555 429.315 150.604C429.265 150.647 429.202 150.756 429.124 150.933C429.053 151.109 428.898 151.836 428.658 153.114C428.425 154.384 428.21 155.781 428.013 157.306C427.815 158.824 427.716 159.942 427.716 160.662C427.716 161.121 427.751 161.534 427.822 161.901C427.886 162.268 427.917 162.585 427.917 162.854C427.917 163.108 427.766 163.379 427.462 163.669C427.166 163.965 426.841 164.114 426.488 164.114C425.507 164.114 425.017 163.436 425.017 162.081C425.017 160.98 425.137 159.438 425.377 157.454C425.624 155.471 425.913 153.728 426.245 152.224C426.294 151.984 426.337 151.769 426.372 151.578L426.52 150.816Z" fill="black"/>
<path d="M337.938 181.078C337.783 181.72 337.684 182.232 337.642 182.613C337.642 182.817 337.571 183.343 337.43 184.19C337.197 185.701 337.081 186.731 337.081 187.282C337.081 188.213 337.137 189.131 337.25 190.034C337.335 190.691 337.201 191.171 336.848 191.474C336.495 191.77 336.142 191.919 335.79 191.919C335.288 191.919 334.932 191.703 334.72 191.273C334.509 190.835 334.403 190.08 334.403 189.007C334.403 188.344 334.569 186.763 334.9 184.264L335.483 180.125C335.602 179.518 335.691 178.953 335.747 178.431C335.832 177.661 335.934 177.189 336.054 177.012C336.181 176.829 336.403 176.638 336.721 176.44C337.039 176.236 337.278 176.133 337.441 176.133C337.85 176.133 338.161 176.299 338.372 176.631C338.591 176.963 338.7 177.369 338.7 177.848L337.938 181.078Z" fill="black"/>
<path d="M343.568 188.097L344.34 184.529C344.933 181.706 345.244 179.737 345.272 178.621C345.293 178.085 345.332 177.721 345.388 177.531C345.452 177.333 345.614 177.146 345.875 176.97C346.143 176.786 346.447 176.694 346.785 176.694C347.004 176.694 347.255 176.765 347.537 176.906C347.819 177.047 348.056 177.496 348.246 178.251C348.543 179.472 349.308 181.095 350.543 183.121C351.778 185.146 352.89 186.77 353.878 187.991C354.146 186.777 354.439 185.199 354.756 183.258C354.982 181.875 355.194 180.675 355.391 179.659C355.554 178.812 355.652 178.06 355.688 177.404C355.723 176.783 355.906 176.366 356.238 176.155C356.577 175.943 356.916 175.837 357.254 175.837C357.544 175.837 357.791 175.999 357.995 176.324C358.207 176.642 358.313 177.04 358.313 177.52C358.313 177.901 358.211 178.441 358.006 179.14C357.561 180.756 357.127 182.842 356.704 185.397C356.28 187.952 356.069 189.41 356.069 189.77V190.129C356.069 190.539 356.033 190.842 355.963 191.04C355.892 191.238 355.719 191.421 355.444 191.59C355.176 191.767 354.823 191.855 354.386 191.855C354.125 191.855 353.934 191.83 353.814 191.781C353.701 191.732 353.546 191.59 353.348 191.358C353.151 191.118 352.943 190.804 352.724 190.415C352.385 189.83 352.135 189.431 351.972 189.219C350.286 187.073 348.663 184.571 347.103 181.713C346.891 182.588 346.567 184.635 346.129 187.853L346.002 188.806C345.946 189.138 345.896 189.618 345.854 190.246C345.805 191.001 345.621 191.545 345.304 191.876C344.993 192.208 344.693 192.374 344.404 192.374C343.945 192.374 343.617 192.254 343.419 192.014C343.229 191.781 343.134 191.308 343.134 190.595C343.134 190.031 343.275 189.219 343.557 188.16L343.568 188.097Z" fill="black"/>
<path d="M370.897 179.024C370.833 179.08 370.777 179.239 370.727 179.5C370.678 179.761 370.533 180.975 370.293 183.142C370.06 185.309 369.944 187.042 369.944 188.34C369.944 188.877 370.007 189.477 370.134 190.14C370.17 190.239 370.187 190.352 370.187 190.479C370.187 190.86 370.074 191.202 369.849 191.506C369.63 191.809 369.348 191.961 369.002 191.961C368.769 191.961 368.473 191.845 368.113 191.612C367.76 191.386 367.548 190.998 367.478 190.447C367.407 189.897 367.372 189.18 367.372 188.298C367.372 187.091 367.513 185.295 367.795 182.909C368.077 180.523 368.247 179.306 368.303 179.257C368.106 179.257 367.315 179.309 365.932 179.415C364.542 179.521 363.734 179.574 363.508 179.574C362.781 179.574 362.277 179.482 361.994 179.299C361.712 179.108 361.571 178.812 361.571 178.41C361.571 178.05 361.719 177.774 362.016 177.584C362.319 177.393 363.081 177.298 364.302 177.298C366.334 177.298 368.328 177.164 370.283 176.896C372.484 176.557 374.153 176.387 375.289 176.387C376.56 176.387 377.332 176.539 377.608 176.843C377.883 177.139 378.02 177.436 378.02 177.732C378.02 178.417 377.717 178.759 377.11 178.759C376.913 178.759 376.595 178.738 376.157 178.695C375.713 178.66 375.194 178.643 374.601 178.643C372.816 178.643 371.581 178.77 370.897 179.024Z" fill="black"/>
<path d="M391.589 178.452L388.328 178.621C387.192 178.685 386.215 178.787 385.396 178.928C384.578 179.062 384.133 179.168 384.063 179.246C383.999 179.317 383.953 179.532 383.925 179.892C383.89 180.245 383.763 180.866 383.544 181.755C383.367 182.433 383.262 182.987 383.226 183.417C383.678 183.417 384.327 183.371 385.174 183.28C386.021 183.188 386.621 183.1 386.974 183.015C387.99 182.768 388.777 182.644 389.334 182.644C390.449 182.644 391.006 182.976 391.006 183.64C391.006 184.127 390.851 184.465 390.541 184.656C390.23 184.839 389.743 184.967 389.08 185.037C388.671 185.079 388.212 185.143 387.704 185.228C387.436 185.27 387.101 185.312 386.698 185.355C384.744 185.581 383.59 185.757 383.237 185.884H383.226C383.106 185.919 383.015 186.001 382.951 186.128C382.895 186.255 382.789 186.78 382.634 187.705C382.478 188.623 382.401 189.265 382.401 189.632C382.436 189.893 382.598 190.024 382.888 190.024C383.226 190.024 384.115 189.932 385.555 189.748C387.002 189.558 387.898 189.427 388.244 189.357C389.211 189.152 389.842 189.05 390.139 189.05C391.035 189.177 391.483 189.593 391.483 190.299C391.483 190.624 391.377 190.871 391.165 191.04C390.46 191.358 389.482 191.555 388.233 191.633C387.266 191.689 386.095 191.809 384.719 191.993C383.491 192.254 382.334 192.385 381.247 192.385C380.675 192.385 380.262 192.261 380.008 192.014C379.754 191.774 379.603 191.396 379.553 190.881L379.521 190.532C379.514 190.475 379.574 190.26 379.701 189.886C379.984 189.018 380.329 187.087 380.739 184.095C381.148 181.102 381.353 179.437 381.353 179.098C381.353 179.091 381.332 179.062 381.289 179.013C381.24 178.971 381.155 178.837 381.035 178.611C380.922 178.378 380.866 178.141 380.866 177.901C380.866 177.774 380.88 177.672 380.908 177.594C380.936 177.446 381.088 177.298 381.363 177.15C381.639 177.002 381.896 176.927 382.136 176.927C382.468 176.927 382.803 176.949 383.142 176.991C383.727 176.991 385.633 176.779 388.858 176.356C389.93 176.215 390.491 176.144 390.541 176.144L390.689 176.133C391.959 176.042 392.594 176.451 392.594 177.361C392.594 177.531 392.478 177.743 392.245 177.997C392.019 178.244 391.8 178.395 391.589 178.452Z" fill="black"/>
<path d="M397.959 178.822L397.821 178.579C397.595 178.226 397.483 177.965 397.483 177.796C397.483 177.457 397.655 177.164 398.001 176.917C398.347 176.663 398.661 176.536 398.943 176.536C399.07 176.536 399.233 176.546 399.43 176.567C399.628 176.596 399.748 176.61 399.79 176.61C401.872 176.285 403.333 176.123 404.172 176.123C405.746 176.123 406.988 176.497 407.898 177.245C408.816 177.986 409.275 178.904 409.275 179.998C409.275 181.042 408.823 182.034 407.92 182.973C407.023 183.911 405.82 184.681 404.31 185.281C406.822 187.313 408.728 188.711 410.026 189.473C410.485 189.748 410.714 190.101 410.714 190.532C410.714 190.814 410.552 191.096 410.227 191.379C409.91 191.661 409.61 191.802 409.327 191.802C408.918 191.802 408.452 191.626 407.93 191.273C407.408 190.92 406.671 190.366 405.718 189.611C404.765 188.848 404.215 188.393 404.067 188.245C402.726 187.123 401.759 186.378 401.166 186.011C400.418 186.011 400.044 185.641 400.044 184.899C400.044 184.554 400.21 184.257 400.542 184.01C400.873 183.756 401.251 183.629 401.674 183.629C401.794 183.629 401.925 183.647 402.066 183.682C402.2 183.724 402.295 183.745 402.352 183.745C402.803 183.745 403.64 183.368 404.86 182.613C406.081 181.857 406.692 180.986 406.692 179.998C406.692 179.504 406.434 179.08 405.919 178.727C405.411 178.374 404.762 178.198 403.971 178.198C403.033 178.198 402.274 178.254 401.695 178.367C401.124 178.48 400.81 178.561 400.753 178.611C400.704 178.653 400.64 178.762 400.563 178.939C400.492 179.115 400.337 179.842 400.097 181.12C399.864 182.39 399.649 183.788 399.451 185.312C399.254 186.83 399.155 187.949 399.155 188.668C399.155 189.127 399.19 189.54 399.261 189.907C399.324 190.274 399.356 190.592 399.356 190.86C399.356 191.114 399.204 191.386 398.901 191.675C398.605 191.972 398.28 192.12 397.927 192.12C396.946 192.12 396.456 191.442 396.456 190.087C396.456 188.986 396.576 187.444 396.816 185.461C397.063 183.477 397.352 181.734 397.684 180.231C397.733 179.991 397.775 179.775 397.811 179.585L397.959 178.822Z" fill="black"/>
<path d="M425.965 178.367C425.796 178.48 425.591 178.537 425.351 178.537C425.21 178.537 425.087 178.523 424.981 178.494C424.797 178.459 424.494 178.441 424.071 178.441C423.196 178.441 422.194 178.505 421.064 178.632C419.942 178.759 419.173 178.907 418.757 179.077C418.312 180.418 418.037 182.016 417.931 183.873C418.221 183.83 418.513 183.791 418.81 183.756C419.904 183.643 420.923 183.498 421.869 183.322C422.659 183.181 423.294 183.11 423.774 183.11C424.847 183.11 425.383 183.484 425.383 184.232C425.383 184.367 425.277 184.55 425.066 184.783C424.861 185.009 424.639 185.171 424.399 185.27C424.159 185.369 423.714 185.464 423.065 185.556L420.228 185.905C419.141 186.039 418.337 186.173 417.815 186.308C417.737 186.343 417.677 186.41 417.635 186.509C417.6 186.6 417.55 187.027 417.487 187.79C417.43 188.545 417.402 189.244 417.402 189.886L417.444 191.231C417.444 192.063 417.056 192.48 416.28 192.48C415.885 192.48 415.507 192.335 415.147 192.046C414.794 191.756 414.618 191.365 414.618 190.871C414.618 189.953 414.724 188.637 414.936 186.922C414.95 186.844 415.317 184.236 416.036 179.098C416.036 178.858 416.001 178.653 415.931 178.484C415.825 178.18 415.772 177.937 415.772 177.753C415.772 177.499 415.92 177.234 416.216 176.959C416.52 176.677 416.799 176.536 417.053 176.536C417.222 176.536 417.398 176.557 417.582 176.599C417.843 176.656 418.115 176.684 418.397 176.684C418.672 176.684 419.801 176.571 421.784 176.345C423.076 176.204 424.039 176.133 424.674 176.133C425.344 176.133 425.863 176.239 426.23 176.451C426.604 176.656 426.791 176.843 426.791 177.012C426.791 177.605 426.516 178.06 425.965 178.378V178.367Z" fill="black"/>
<path d="M431.785 188.16C431.665 188.457 431.295 189.113 430.674 190.129C430.06 191.139 429.633 191.7 429.393 191.813C429.153 191.933 428.941 191.993 428.758 191.993C428.504 191.993 428.197 191.855 427.837 191.58C427.484 191.298 427.308 191.008 427.308 190.712C427.308 190.436 428.193 188.951 429.965 186.255C430.931 184.779 431.813 183.318 432.611 181.872C434.213 178.95 435.19 177.252 435.543 176.779C435.903 176.299 436.27 176.059 436.644 176.059C437.244 176.059 437.678 176.215 437.946 176.525C438.08 176.624 438.147 176.86 438.147 177.234C438.147 177.51 438.122 177.732 438.073 177.901C439.364 181.84 440.373 184.628 441.1 186.265C441.834 187.896 442.568 189.078 443.302 189.812C443.669 190.179 443.891 190.426 443.969 190.553C444.054 190.68 444.096 190.849 444.096 191.061C444.096 191.449 443.955 191.774 443.672 192.035C443.39 192.303 443.055 192.437 442.667 192.437C442.131 192.437 441.584 192.127 441.026 191.506C440.476 190.885 439.953 190.031 439.46 188.944C438.973 187.857 438.729 187.246 438.729 187.112C438.729 187.084 438.711 187.07 438.676 187.07C438.295 187.07 437.445 187.204 436.125 187.472C434.813 187.74 433.758 188.001 432.96 188.256C432.756 188.319 432.576 188.351 432.42 188.351C432.145 188.351 431.933 188.287 431.785 188.16ZM437.882 184.921C437.713 184.504 437.212 183.022 436.379 180.474C436.302 180.241 436.249 180.093 436.22 180.029L433.214 185.746C433.659 185.669 434.114 185.598 434.58 185.535C434.89 185.499 435.681 185.351 436.951 185.09C437.261 185.027 437.572 184.97 437.882 184.921Z" fill="black"/>
<path d="M458.543 187.906C459.079 187.906 459.347 188.167 459.347 188.69C459.347 189.339 458.567 190.14 457.008 191.093C455.455 192.039 453.952 192.512 452.498 192.512C451.214 192.512 450.032 192.092 448.952 191.252C447.873 190.412 447.333 189.187 447.333 187.578C447.333 185.941 447.897 184.123 449.026 182.126C450.156 180.128 451.553 178.501 453.218 177.245C454.891 175.989 456.521 175.361 458.109 175.361C459.054 175.361 459.809 175.643 460.374 176.207C460.938 176.772 461.221 177.432 461.221 178.187C461.221 179.006 461.157 179.595 461.03 179.955C460.903 180.308 460.631 180.612 460.215 180.866C459.799 181.12 459.46 181.247 459.199 181.247C458.931 181.247 458.698 181.152 458.5 180.961C458.303 180.771 458.204 180.513 458.204 180.188C458.204 179.962 458.264 179.634 458.384 179.204C458.497 178.773 458.553 178.413 458.553 178.124C458.553 177.637 458.387 177.393 458.056 177.393C457.04 177.393 455.9 177.937 454.637 179.024C453.373 180.111 452.29 181.462 451.387 183.078C450.491 184.688 450.043 186.11 450.043 187.345C450.043 188.164 450.279 188.855 450.752 189.42C451.225 189.985 451.916 190.267 452.827 190.267C453.363 190.267 454.037 190.122 454.848 189.833C455.667 189.544 456.422 189.152 457.114 188.658C457.812 188.157 458.289 187.906 458.543 187.906Z" fill="black"/>
<path d="M477.096 178.452L473.836 178.621C472.7 178.685 471.723 178.787 470.904 178.928C470.085 179.062 469.641 179.168 469.57 179.246C469.507 179.317 469.461 179.532 469.433 179.892C469.397 180.245 469.27 180.866 469.052 181.755C468.875 182.433 468.769 182.987 468.734 183.417C469.186 183.417 469.835 183.371 470.682 183.28C471.529 183.188 472.128 183.1 472.481 183.015C473.497 182.768 474.284 182.644 474.842 182.644C475.957 182.644 476.514 182.976 476.514 183.64C476.514 184.127 476.359 184.465 476.049 184.656C475.738 184.839 475.251 184.967 474.588 185.037C474.178 185.079 473.72 185.143 473.212 185.228C472.944 185.27 472.608 185.312 472.206 185.355C470.251 185.581 469.098 185.757 468.745 185.884H468.734C468.614 185.919 468.522 186.001 468.459 186.128C468.402 186.255 468.297 186.78 468.141 187.705C467.986 188.623 467.908 189.265 467.908 189.632C467.944 189.893 468.106 190.024 468.395 190.024C468.734 190.024 469.623 189.932 471.063 189.748C472.51 189.558 473.406 189.427 473.752 189.357C474.718 189.152 475.35 189.05 475.646 189.05C476.543 189.177 476.991 189.593 476.991 190.299C476.991 190.624 476.885 190.871 476.673 191.04C475.967 191.358 474.99 191.555 473.741 191.633C472.774 191.689 471.603 191.809 470.227 191.993C468.999 192.254 467.841 192.385 466.755 192.385C466.183 192.385 465.77 192.261 465.516 192.014C465.262 191.774 465.11 191.396 465.061 190.881L465.029 190.532C465.022 190.475 465.082 190.26 465.209 189.886C465.492 189.018 465.837 187.087 466.247 184.095C466.656 181.102 466.861 179.437 466.861 179.098C466.861 179.091 466.839 179.062 466.797 179.013C466.748 178.971 466.663 178.837 466.543 178.611C466.43 178.378 466.374 178.141 466.374 177.901C466.374 177.774 466.388 177.672 466.416 177.594C466.444 177.446 466.596 177.298 466.871 177.15C467.146 177.002 467.404 176.927 467.644 176.927C467.976 176.927 468.311 176.949 468.649 176.991C469.235 176.991 471.141 176.779 474.365 176.356C475.438 176.215 475.999 176.144 476.049 176.144L476.197 176.133C477.467 176.042 478.102 176.451 478.102 177.361C478.102 177.531 477.986 177.743 477.753 177.997C477.527 178.244 477.308 178.395 477.096 178.452Z" fill="black"/>
<path d="M653.267 280.633C652.782 280.633 652.194 280.475 651.503 280.16C650.816 279.845 650.291 279.311 649.929 278.558C649.567 277.8 649.386 276.984 649.386 276.109C649.386 275.661 649.451 275.071 649.583 274.337L649.809 273.031C649.842 272.81 649.877 272.594 649.915 272.382C649.971 272.057 650.021 271.744 650.063 271.443C650.129 270.926 650.244 270.537 650.409 270.279C650.574 270.015 650.828 269.883 651.171 269.883C651.34 269.883 651.512 270.017 651.686 270.286C651.865 270.549 651.954 270.751 651.954 270.893C651.954 270.991 651.841 271.509 651.616 272.445C651.559 272.681 651.46 273.257 651.319 274.175C651.183 275.087 651.115 275.706 651.115 276.031C651.115 277.231 651.376 278.04 651.898 278.459C652.425 278.878 652.869 279.087 653.232 279.087C654.427 279.087 655.252 278.833 655.709 278.325C656.165 277.812 656.457 276.977 656.584 275.819C656.607 275.607 656.635 275.407 656.668 275.219C656.715 274.739 656.755 274.28 656.788 273.843C656.901 272.182 657.063 271.142 657.275 270.723C657.492 270.304 657.797 270.095 658.193 270.095C658.682 270.095 658.926 270.413 658.926 271.048C658.926 271.424 658.835 272.125 658.651 273.151C658.543 273.768 658.47 274.372 658.433 274.965C658.348 276.391 658.153 277.435 657.847 278.099C657.541 278.762 656.986 279.35 656.181 279.863C655.382 280.376 654.41 280.633 653.267 280.633Z" fill="black"/>
<path d="M668.318 272.572C668.318 272.107 668.198 271.784 667.958 271.605C667.718 271.422 667.365 271.33 666.899 271.33C666.104 271.33 665.366 271.525 664.683 271.916C664.006 272.302 663.667 272.728 663.667 273.194C663.667 273.49 663.794 273.744 664.048 273.956C664.307 274.163 664.97 274.422 666.038 274.732C667.158 275.057 667.988 275.414 668.529 275.805C669.075 276.191 669.348 276.657 669.348 277.202C669.348 278.111 668.656 278.943 667.273 279.701C665.89 280.454 664.453 280.83 662.962 280.83C662.477 280.83 662.089 280.729 661.797 280.527C661.506 280.325 661.36 280.075 661.36 279.779C661.36 279.543 661.426 279.325 661.557 279.122C661.689 278.92 661.847 278.819 662.03 278.819C662.143 278.819 662.246 278.838 662.341 278.875C662.835 279.087 663.296 279.193 663.724 279.193C664.458 279.193 665.281 278.988 666.194 278.579C667.111 278.165 667.57 277.76 667.57 277.365C667.57 277.2 667.454 277.043 667.224 276.892C666.998 276.737 666.535 276.544 665.834 276.313C664.813 275.979 664.044 275.704 663.526 275.487C663.013 275.271 662.623 274.989 662.355 274.64C662.091 274.288 661.96 273.864 661.96 273.37C661.96 272.49 662.472 271.671 663.498 270.914C664.524 270.156 665.728 269.777 667.111 269.777C667.906 269.777 668.532 269.935 668.988 270.25C669.449 270.566 669.68 270.926 669.68 271.33C669.68 272.158 669.226 272.572 668.318 272.572Z" fill="black"/>
<path d="M680.518 271.408L678.344 271.521C677.587 271.563 676.935 271.631 676.389 271.725C675.844 271.815 675.547 271.885 675.5 271.937C675.458 271.984 675.427 272.128 675.408 272.368C675.385 272.603 675.3 273.017 675.154 273.61C675.037 274.062 674.966 274.431 674.943 274.718C675.244 274.718 675.677 274.687 676.241 274.626C676.806 274.565 677.206 274.506 677.441 274.45C678.118 274.285 678.643 274.203 679.015 274.203C679.758 274.203 680.129 274.424 680.129 274.866C680.129 275.191 680.026 275.417 679.819 275.544C679.612 275.666 679.287 275.751 678.845 275.798C678.572 275.826 678.266 275.869 677.928 275.925C677.749 275.953 677.526 275.981 677.257 276.01C675.954 276.16 675.185 276.278 674.95 276.363H674.943C674.863 276.386 674.802 276.44 674.759 276.525C674.722 276.61 674.651 276.96 674.548 277.577C674.444 278.188 674.392 278.616 674.392 278.861C674.416 279.035 674.524 279.122 674.717 279.122C674.943 279.122 675.535 279.061 676.495 278.939C677.46 278.812 678.057 278.725 678.288 278.678C678.932 278.541 679.353 278.473 679.551 278.473C680.148 278.558 680.447 278.835 680.447 279.306C680.447 279.522 680.376 279.687 680.235 279.8C679.765 280.012 679.113 280.143 678.281 280.195C677.636 280.233 676.855 280.313 675.938 280.435C675.119 280.609 674.348 280.696 673.623 280.696C673.242 280.696 672.967 280.614 672.797 280.449C672.628 280.289 672.527 280.037 672.494 279.694L672.473 279.461C672.468 279.423 672.508 279.28 672.593 279.031C672.781 278.452 673.011 277.165 673.284 275.17C673.557 273.175 673.694 272.064 673.694 271.838C673.694 271.834 673.68 271.815 673.651 271.782C673.618 271.754 673.562 271.664 673.482 271.514C673.407 271.358 673.369 271.201 673.369 271.041C673.369 270.956 673.378 270.888 673.397 270.836C673.416 270.737 673.517 270.639 673.701 270.54C673.884 270.441 674.056 270.391 674.216 270.391C674.437 270.391 674.66 270.406 674.886 270.434C675.277 270.434 676.547 270.293 678.697 270.01C679.412 269.916 679.786 269.869 679.819 269.869L679.918 269.862C680.765 269.801 681.188 270.074 681.188 270.681C681.188 270.794 681.11 270.935 680.955 271.104C680.805 271.269 680.659 271.37 680.518 271.408Z" fill="black"/>
<path d="M684.764 271.655L684.673 271.493C684.522 271.257 684.447 271.083 684.447 270.97C684.447 270.744 684.562 270.549 684.793 270.384C685.023 270.215 685.233 270.13 685.421 270.13C685.505 270.13 685.614 270.137 685.745 270.152C685.877 270.17 685.957 270.18 685.985 270.18C687.373 269.963 688.347 269.855 688.907 269.855C689.956 269.855 690.784 270.104 691.391 270.603C692.002 271.097 692.308 271.709 692.308 272.438C692.308 273.135 692.007 273.796 691.405 274.422C690.807 275.047 690.005 275.56 688.999 275.96C690.673 277.315 691.944 278.247 692.809 278.755C693.115 278.939 693.268 279.174 693.268 279.461C693.268 279.649 693.16 279.838 692.943 280.026C692.732 280.214 692.532 280.308 692.343 280.308C692.071 280.308 691.76 280.19 691.412 279.955C691.064 279.72 690.572 279.35 689.937 278.847C689.302 278.339 688.935 278.035 688.836 277.937C687.942 277.188 687.298 276.692 686.903 276.447C686.404 276.447 686.155 276.2 686.155 275.706C686.155 275.476 686.265 275.278 686.486 275.113C686.707 274.944 686.959 274.859 687.241 274.859C687.321 274.859 687.408 274.871 687.502 274.895C687.592 274.923 687.655 274.937 687.693 274.937C687.994 274.937 688.552 274.685 689.365 274.182C690.179 273.678 690.586 273.097 690.586 272.438C690.586 272.109 690.415 271.827 690.071 271.591C689.732 271.356 689.3 271.238 688.773 271.238C688.147 271.238 687.641 271.276 687.255 271.351C686.874 271.427 686.665 271.481 686.627 271.514C686.594 271.542 686.552 271.615 686.5 271.733C686.453 271.85 686.35 272.335 686.19 273.186C686.035 274.033 685.891 274.965 685.759 275.981C685.628 276.993 685.562 277.739 685.562 278.219C685.562 278.525 685.585 278.8 685.632 279.045C685.675 279.289 685.696 279.501 685.696 279.68C685.696 279.849 685.595 280.03 685.392 280.223C685.195 280.421 684.978 280.52 684.743 280.52C684.089 280.52 683.762 280.068 683.762 279.165C683.762 278.431 683.842 277.402 684.002 276.08C684.167 274.758 684.36 273.596 684.581 272.594C684.614 272.434 684.642 272.29 684.666 272.163L684.764 271.655Z" fill="black"/>
<path d="M627.429 290.38L625.255 290.493C624.498 290.535 623.846 290.603 623.301 290.697C622.755 290.787 622.459 290.857 622.412 290.909C622.369 290.956 622.339 291.1 622.32 291.34C622.296 291.575 622.212 291.989 622.066 292.582C621.948 293.034 621.878 293.403 621.854 293.69C622.155 293.69 622.588 293.66 623.153 293.598C623.717 293.537 624.117 293.478 624.352 293.422C625.03 293.257 625.554 293.175 625.926 293.175C626.669 293.175 627.041 293.396 627.041 293.838C627.041 294.163 626.937 294.389 626.73 294.516C626.523 294.638 626.199 294.723 625.756 294.77C625.484 294.798 625.178 294.841 624.839 294.897C624.66 294.925 624.437 294.953 624.169 294.982C622.866 295.132 622.096 295.25 621.861 295.335H621.854C621.774 295.358 621.713 295.412 621.671 295.497C621.633 295.582 621.562 295.932 621.459 296.549C621.355 297.16 621.304 297.588 621.304 297.833C621.327 298.007 621.435 298.094 621.628 298.094C621.854 298.094 622.447 298.033 623.407 297.911C624.371 297.784 624.968 297.697 625.199 297.65C625.844 297.513 626.265 297.445 626.462 297.445C627.06 297.53 627.358 297.807 627.358 298.278C627.358 298.494 627.288 298.659 627.147 298.772C626.676 298.984 626.025 299.115 625.192 299.167C624.547 299.205 623.766 299.285 622.849 299.407C622.03 299.581 621.259 299.668 620.534 299.668C620.153 299.668 619.878 299.586 619.709 299.421C619.539 299.261 619.438 299.01 619.405 298.666L619.384 298.433C619.379 298.395 619.419 298.252 619.504 298.003C619.692 297.424 619.923 296.137 620.196 294.142C620.469 292.147 620.605 291.036 620.605 290.81C620.605 290.806 620.591 290.787 620.563 290.754C620.53 290.726 620.473 290.636 620.393 290.486C620.318 290.33 620.28 290.173 620.28 290.013C620.28 289.928 620.29 289.86 620.309 289.808C620.327 289.709 620.429 289.611 620.612 289.512C620.796 289.413 620.967 289.364 621.127 289.364C621.348 289.364 621.572 289.378 621.798 289.406C622.188 289.406 623.458 289.265 625.608 288.982C626.323 288.888 626.697 288.841 626.73 288.841L626.829 288.834C627.676 288.773 628.099 289.046 628.099 289.653C628.099 289.766 628.022 289.907 627.866 290.076C627.716 290.241 627.57 290.342 627.429 290.38Z" fill="black"/>
<path d="M635.007 292.716C635.016 292.716 635.072 292.65 635.176 292.518C637.015 290.495 638.102 289.34 638.436 289.053C638.775 288.766 639.008 288.622 639.135 288.622C639.314 288.622 639.516 288.717 639.742 288.905C639.968 289.093 640.08 289.281 640.08 289.469C640.08 289.634 639.831 289.931 639.332 290.359C638.914 290.73 638.427 291.208 637.872 291.791L637.589 292.067C636.446 293.144 635.875 293.765 635.875 293.93C635.875 294.015 636.223 294.466 636.919 295.285C637.62 296.104 638.147 296.619 638.5 296.831C638.867 297.057 639.156 297.309 639.368 297.586C639.584 297.859 639.692 298.04 639.692 298.13C639.692 298.308 639.612 298.475 639.452 298.631C639.297 298.781 639.114 298.857 638.902 298.857C638.479 298.857 638.067 298.694 637.667 298.37C637.267 298.04 636.728 297.433 636.051 296.549C635.482 295.815 635.065 295.295 634.802 294.989C634.68 295.13 634.386 295.445 633.92 295.935C632.636 297.285 631.92 298.179 631.775 298.617C631.601 299.082 631.471 299.384 631.386 299.52C631.306 299.656 631.175 299.769 630.991 299.859C630.808 299.953 630.582 300 630.314 300C629.792 300 629.53 299.755 629.53 299.266C629.53 298.908 629.81 298.374 630.37 297.664C630.935 296.949 631.793 296.01 632.946 294.848L633.729 294.029C633.814 293.944 633.875 293.876 633.913 293.824C633.833 293.688 633.715 293.528 633.56 293.344C633.259 292.996 632.765 292.351 632.078 291.41C631.391 290.465 631.048 289.888 631.048 289.681C631.048 289.441 631.132 289.204 631.302 288.968C631.476 288.733 631.655 288.615 631.838 288.615C632.04 288.615 632.222 288.672 632.381 288.785C632.541 288.898 632.715 289.145 632.904 289.526C633.421 290.566 634.122 291.629 635.007 292.716Z" fill="black"/>
<path d="M644.962 295.935C644.845 297.026 644.786 297.901 644.786 298.56C644.786 298.819 644.708 299.049 644.553 299.252C644.398 299.454 644.186 299.555 643.918 299.555C643.339 299.555 643.05 299.219 643.05 298.546C643.05 298.174 643.186 296.918 643.459 294.777C643.68 293.045 643.791 292.013 643.791 291.679C643.791 291.297 643.775 291.081 643.742 291.029C643.436 290.874 643.283 290.594 643.283 290.189C643.283 289.794 643.92 289.451 645.195 289.159C646.47 288.862 647.562 288.714 648.47 288.714C649.533 288.714 650.38 288.933 651.01 289.371C651.641 289.808 651.956 290.399 651.956 291.142C651.956 292.215 651.377 293.158 650.22 293.972C649.062 294.782 647.656 295.356 646 295.695C645.393 295.822 645.047 295.902 644.962 295.935ZM645.59 290.634L645.174 294.346C646.529 294.121 647.719 293.721 648.745 293.147C649.77 292.568 650.283 291.949 650.283 291.29C650.283 290.505 649.662 290.112 648.42 290.112C647.559 290.112 646.616 290.286 645.59 290.634Z" fill="black"/>
<path d="M656.859 292.13C656.755 292.558 656.689 292.9 656.661 293.154C656.661 293.29 656.614 293.641 656.52 294.205C656.365 295.212 656.287 295.899 656.287 296.266C656.287 296.887 656.325 297.499 656.4 298.101C656.457 298.539 656.367 298.859 656.132 299.061C655.897 299.259 655.662 299.358 655.426 299.358C655.092 299.358 654.855 299.214 654.714 298.927C654.572 298.635 654.502 298.132 654.502 297.417C654.502 296.974 654.612 295.92 654.834 294.255L655.222 291.495C655.302 291.09 655.36 290.714 655.398 290.366C655.455 289.853 655.523 289.538 655.603 289.42C655.687 289.298 655.836 289.171 656.047 289.039C656.259 288.902 656.419 288.834 656.527 288.834C656.8 288.834 657.007 288.945 657.148 289.166C657.294 289.387 657.367 289.658 657.367 289.978L656.859 292.13Z" fill="black"/>
<path d="M661.331 290.627L661.24 290.465C661.089 290.229 661.014 290.055 661.014 289.942C661.014 289.716 661.129 289.521 661.36 289.356C661.59 289.187 661.8 289.102 661.988 289.102C662.072 289.102 662.181 289.109 662.312 289.124C662.444 289.142 662.524 289.152 662.552 289.152C663.94 288.935 664.914 288.827 665.474 288.827C666.523 288.827 667.351 289.076 667.958 289.575C668.569 290.069 668.875 290.681 668.875 291.41C668.875 292.107 668.574 292.768 667.972 293.394C667.374 294.019 666.572 294.532 665.566 294.932C667.24 296.287 668.511 297.219 669.376 297.727C669.682 297.911 669.835 298.146 669.835 298.433C669.835 298.621 669.727 298.81 669.51 298.998C669.299 299.186 669.099 299.28 668.911 299.28C668.638 299.28 668.327 299.162 667.979 298.927C667.631 298.692 667.139 298.323 666.504 297.819C665.869 297.311 665.502 297.007 665.403 296.909C664.509 296.16 663.865 295.664 663.47 295.419C662.971 295.419 662.722 295.172 662.722 294.678C662.722 294.448 662.832 294.25 663.053 294.085C663.274 293.916 663.526 293.831 663.808 293.831C663.888 293.831 663.975 293.843 664.07 293.867C664.159 293.895 664.222 293.909 664.26 293.909C664.561 293.909 665.119 293.657 665.933 293.154C666.746 292.65 667.153 292.069 667.153 291.41C667.153 291.081 666.982 290.799 666.638 290.563C666.299 290.328 665.867 290.21 665.34 290.21C664.714 290.21 664.208 290.248 663.823 290.323C663.441 290.399 663.232 290.453 663.194 290.486C663.162 290.514 663.119 290.587 663.067 290.705C663.02 290.822 662.917 291.307 662.757 292.158C662.602 293.005 662.458 293.937 662.326 294.953C662.195 295.965 662.129 296.711 662.129 297.191C662.129 297.497 662.152 297.772 662.199 298.017C662.242 298.261 662.263 298.473 662.263 298.652C662.263 298.821 662.162 299.002 661.96 299.195C661.762 299.393 661.546 299.492 661.31 299.492C660.656 299.492 660.329 299.04 660.329 298.137C660.329 297.403 660.409 296.375 660.569 295.052C660.734 293.73 660.927 292.568 661.148 291.566C661.181 291.406 661.209 291.262 661.233 291.135L661.331 290.627Z" fill="black"/>
<path d="M674.823 292.13C674.719 292.558 674.653 292.9 674.625 293.154C674.625 293.29 674.578 293.641 674.484 294.205C674.329 295.212 674.251 295.899 674.251 296.266C674.251 296.887 674.289 297.499 674.364 298.101C674.421 298.539 674.331 298.859 674.096 299.061C673.861 299.259 673.625 299.358 673.39 299.358C673.056 299.358 672.819 299.214 672.677 298.927C672.536 298.635 672.466 298.132 672.466 297.417C672.466 296.974 672.576 295.92 672.797 294.255L673.186 291.495C673.266 291.09 673.324 290.714 673.362 290.366C673.418 289.853 673.487 289.538 673.567 289.42C673.651 289.298 673.8 289.171 674.011 289.039C674.223 288.902 674.383 288.834 674.491 288.834C674.764 288.834 674.971 288.945 675.112 289.166C675.258 289.387 675.331 289.658 675.331 289.978L674.823 292.13Z" fill="black"/>
<path d="M686.359 290.38L684.186 290.493C683.428 290.535 682.777 290.603 682.231 290.697C681.685 290.787 681.389 290.857 681.342 290.909C681.3 290.956 681.269 291.1 681.25 291.34C681.227 291.575 681.142 291.989 680.996 292.582C680.878 293.034 680.808 293.403 680.784 293.69C681.085 293.69 681.518 293.66 682.083 293.598C682.647 293.537 683.047 293.478 683.282 293.422C683.96 293.257 684.484 293.175 684.856 293.175C685.599 293.175 685.971 293.396 685.971 293.838C685.971 294.163 685.868 294.389 685.661 294.516C685.454 294.638 685.129 294.723 684.687 294.77C684.414 294.798 684.108 294.841 683.769 294.897C683.591 294.925 683.367 294.953 683.099 294.982C681.796 295.132 681.027 295.25 680.791 295.335H680.784C680.704 295.358 680.643 295.412 680.601 295.497C680.563 295.582 680.493 295.932 680.389 296.549C680.286 297.16 680.234 297.588 680.234 297.833C680.257 298.007 680.366 298.094 680.559 298.094C680.784 298.094 681.377 298.033 682.337 297.911C683.301 297.784 683.899 297.697 684.129 297.65C684.774 297.513 685.195 297.445 685.392 297.445C685.99 297.53 686.289 297.807 686.289 298.278C686.289 298.494 686.218 298.659 686.077 298.772C685.607 298.984 684.955 299.115 684.122 299.167C683.478 299.205 682.697 299.285 681.779 299.407C680.961 299.581 680.189 299.668 679.465 299.668C679.084 299.668 678.808 299.586 678.639 299.421C678.47 299.261 678.369 299.01 678.336 298.666L678.314 298.433C678.31 298.395 678.35 298.252 678.434 298.003C678.623 297.424 678.853 296.137 679.126 294.142C679.399 292.147 679.535 291.036 679.535 290.81C679.535 290.806 679.521 290.787 679.493 290.754C679.46 290.726 679.404 290.636 679.324 290.486C679.248 290.33 679.211 290.173 679.211 290.013C679.211 289.928 679.22 289.86 679.239 289.808C679.258 289.709 679.359 289.611 679.542 289.512C679.726 289.413 679.898 289.364 680.058 289.364C680.279 289.364 680.502 289.378 680.728 289.406C681.118 289.406 682.389 289.265 684.539 288.982C685.254 288.888 685.628 288.841 685.661 288.841L685.759 288.834C686.606 288.773 687.03 289.046 687.03 289.653C687.03 289.766 686.952 289.907 686.797 290.076C686.646 290.241 686.5 290.342 686.359 290.38Z" fill="black"/>
<path d="M689.886 296.81L690.401 294.431C690.797 292.549 691.004 291.236 691.022 290.493C691.037 290.135 691.062 289.893 691.1 289.766C691.142 289.634 691.251 289.509 691.425 289.392C691.603 289.269 691.806 289.208 692.032 289.208C692.177 289.208 692.344 289.255 692.533 289.349C692.721 289.444 692.878 289.742 693.005 290.246C693.203 291.06 693.713 292.142 694.537 293.492C695.36 294.843 696.101 295.925 696.76 296.739C696.938 295.93 697.134 294.878 697.345 293.584C697.496 292.662 697.637 291.862 697.769 291.184C697.877 290.62 697.943 290.119 697.966 289.681C697.99 289.267 698.112 288.989 698.333 288.848C698.559 288.707 698.785 288.637 699.011 288.637C699.204 288.637 699.368 288.745 699.505 288.961C699.646 289.173 699.716 289.439 699.716 289.759C699.716 290.013 699.648 290.373 699.512 290.839C699.215 291.916 698.926 293.307 698.644 295.01C698.362 296.713 698.22 297.685 698.22 297.925V298.165C698.22 298.438 698.197 298.64 698.15 298.772C698.103 298.904 697.988 299.026 697.804 299.139C697.625 299.257 697.39 299.315 697.098 299.315C696.924 299.315 696.797 299.299 696.717 299.266C696.642 299.233 696.539 299.139 696.407 298.984C696.275 298.824 696.136 298.614 695.99 298.355C695.765 297.965 695.598 297.699 695.489 297.558C694.365 296.127 693.283 294.459 692.243 292.554C692.102 293.137 691.886 294.502 691.594 296.647L691.509 297.283C691.472 297.504 691.439 297.824 691.411 298.243C691.378 298.746 691.255 299.108 691.044 299.329C690.837 299.551 690.637 299.661 690.444 299.661C690.138 299.661 689.919 299.581 689.787 299.421C689.66 299.266 689.597 298.951 689.597 298.475C689.597 298.099 689.691 297.558 689.879 296.852L689.886 296.81Z" fill="black"/>
<path d="M709.926 296.683C710.284 296.683 710.463 296.857 710.463 297.205C710.463 297.638 709.943 298.172 708.903 298.807C707.868 299.438 706.866 299.753 705.897 299.753C705.041 299.753 704.253 299.473 703.533 298.913C702.813 298.353 702.453 297.537 702.453 296.464C702.453 295.372 702.829 294.161 703.582 292.829C704.335 291.497 705.266 290.413 706.377 289.575C707.492 288.738 708.578 288.319 709.637 288.319C710.267 288.319 710.771 288.507 711.147 288.884C711.524 289.26 711.712 289.7 711.712 290.203C711.712 290.749 711.669 291.142 711.585 291.382C711.5 291.617 711.319 291.82 711.041 291.989C710.764 292.158 710.538 292.243 710.364 292.243C710.185 292.243 710.03 292.18 709.898 292.053C709.766 291.926 709.701 291.754 709.701 291.537C709.701 291.387 709.74 291.168 709.82 290.881C709.896 290.594 709.933 290.354 709.933 290.161C709.933 289.836 709.823 289.674 709.602 289.674C708.924 289.674 708.164 290.036 707.322 290.761C706.48 291.486 705.758 292.387 705.156 293.464C704.558 294.537 704.26 295.485 704.26 296.309C704.26 296.854 704.417 297.316 704.732 297.692C705.048 298.068 705.509 298.257 706.116 298.257C706.473 298.257 706.922 298.16 707.463 297.967C708.009 297.774 708.513 297.513 708.974 297.184C709.439 296.85 709.757 296.683 709.926 296.683Z" fill="black"/>
<path d="M722.296 290.38L720.122 290.493C719.365 290.535 718.713 290.603 718.167 290.697C717.622 290.787 717.325 290.857 717.278 290.909C717.236 290.956 717.205 291.1 717.186 291.34C717.163 291.575 717.078 291.989 716.932 292.582C716.815 293.034 716.744 293.403 716.721 293.69C717.022 293.69 717.455 293.66 718.019 293.598C718.584 293.537 718.984 293.478 719.219 293.422C719.896 293.257 720.421 293.175 720.792 293.175C721.536 293.175 721.907 293.396 721.907 293.838C721.907 294.163 721.804 294.389 721.597 294.516C721.39 294.638 721.065 294.723 720.623 294.77C720.35 294.798 720.044 294.841 719.706 294.897C719.527 294.925 719.303 294.953 719.035 294.982C717.732 295.132 716.963 295.25 716.728 295.335H716.721C716.641 295.358 716.58 295.412 716.537 295.497C716.5 295.582 716.429 295.932 716.325 296.549C716.222 297.16 716.17 297.588 716.17 297.833C716.194 298.007 716.302 298.094 716.495 298.094C716.721 298.094 717.313 298.033 718.273 297.911C719.238 297.784 719.835 297.697 720.066 297.65C720.71 297.513 721.131 297.445 721.329 297.445C721.926 297.53 722.225 297.807 722.225 298.278C722.225 298.494 722.154 298.659 722.013 298.772C721.543 298.984 720.891 299.115 720.059 299.167C719.414 299.205 718.633 299.285 717.716 299.407C716.897 299.581 716.126 299.668 715.401 299.668C715.02 299.668 714.745 299.586 714.575 299.421C714.406 299.261 714.305 299.01 714.272 298.666L714.251 298.433C714.246 298.395 714.286 298.252 714.371 298.003C714.559 297.424 714.789 296.137 715.062 294.142C715.335 292.147 715.472 291.036 715.472 290.81C715.472 290.806 715.457 290.787 715.429 290.754C715.396 290.726 715.34 290.636 715.26 290.486C715.185 290.33 715.147 290.173 715.147 290.013C715.147 289.928 715.156 289.86 715.175 289.808C715.194 289.709 715.295 289.611 715.479 289.512C715.662 289.413 715.834 289.364 715.994 289.364C716.215 289.364 716.438 289.378 716.664 289.406C717.055 289.406 718.325 289.265 720.475 288.982C721.19 288.888 721.564 288.841 721.597 288.841L721.696 288.834C722.543 288.773 722.966 289.046 722.966 289.653C722.966 289.766 722.888 289.907 722.733 290.076C722.583 290.241 722.437 290.342 722.296 290.38Z" fill="black"/>
<path d="M346.745 108.995L329.332 91.5278C329.045 91.2401 329.045 90.788 329.332 90.5414L346.745 73.1153C347.032 72.8276 347.484 72.8276 347.73 73.1153L365.142 90.5414C365.43 90.8291 365.43 91.2812 365.142 91.5278L347.73 108.954C347.484 109.242 347.032 109.242 346.745 108.995Z" stroke="#E0E0E0" stroke-width="1.7707" stroke-miterlimit="10"/>
<path d="M347.606 67.772C347.833 67.772 348.016 67.5881 348.016 67.3612C348.016 67.1343 347.833 66.9504 347.606 66.9504C347.379 66.9504 347.195 67.1343 347.195 67.3612C347.195 67.5881 347.379 67.772 347.606 67.772Z" fill="#B4D1FA"/>
<path d="M352.412 72.1697C352.248 72.334 352.001 72.334 351.837 72.1697C351.673 72.0054 351.673 71.7589 351.837 71.5945C352.001 71.4302 352.248 71.4302 352.412 71.5945C352.577 71.7589 352.577 72.0054 352.412 72.1697Z" fill="#B4D1FA"/>
<path d="M356.931 76.6906C356.766 76.8549 356.52 76.8549 356.356 76.6906C356.191 76.5263 356.191 76.2798 356.356 76.1154C356.52 75.9511 356.766 75.9511 356.931 76.1154C357.095 76.2798 357.095 76.5263 356.931 76.6906Z" fill="#B4D1FA"/>
<path d="M361.448 81.2116C361.284 81.3759 361.037 81.3759 360.873 81.2116C360.708 81.0472 360.708 80.8007 360.873 80.6364C361.037 80.4721 361.284 80.4721 361.448 80.6364C361.612 80.8007 361.612 81.0472 361.448 81.2116Z" fill="#B4D1FA"/>
<path d="M365.677 85.8557C365.904 85.8557 366.088 85.6718 366.088 85.4449C366.088 85.218 365.904 85.0341 365.677 85.0341C365.45 85.0341 365.266 85.218 365.266 85.4449C365.266 85.6718 365.45 85.8557 365.677 85.8557Z" fill="#B4D1FA"/>
<path d="M343.869 71.6765C343.705 71.8408 343.458 71.8408 343.294 71.6765C343.13 71.5122 343.13 71.2657 343.294 71.1013C343.458 70.937 343.705 70.937 343.869 71.1013C343.993 71.2657 343.993 71.5122 343.869 71.6765Z" fill="#B4D1FA"/>
<path d="M348.099 76.3206C348.326 76.3206 348.51 76.1367 348.51 75.9098C348.51 75.6829 348.326 75.499 348.099 75.499C347.872 75.499 347.688 75.6829 347.688 75.9098C347.688 76.1367 347.872 76.3206 348.099 76.3206Z" fill="#B4D1FA"/>
<path d="M352.617 80.8416C352.844 80.8416 353.028 80.6577 353.028 80.4308C353.028 80.2039 352.844 80.02 352.617 80.02C352.39 80.02 352.206 80.2039 352.206 80.4308C352.206 80.6577 352.39 80.8416 352.617 80.8416Z" fill="#B4D1FA"/>
<path d="M357.133 85.3625C357.36 85.3625 357.544 85.1786 357.544 84.9517C357.544 84.7248 357.36 84.5408 357.133 84.5408C356.907 84.5408 356.723 84.7248 356.723 84.9517C356.723 85.1786 356.907 85.3625 357.133 85.3625Z" fill="#B4D1FA"/>
<path d="M361.652 89.8834C361.879 89.8834 362.063 89.6995 362.063 89.4726C362.063 89.2457 361.879 89.0618 361.652 89.0618C361.425 89.0618 361.241 89.2457 361.241 89.4726C361.241 89.6995 361.425 89.8834 361.652 89.8834Z" fill="#B4D1FA"/>
<path d="M339.804 75.7454C339.64 75.9097 339.393 75.9097 339.229 75.7454C339.064 75.581 339.064 75.3345 339.229 75.1702C339.393 75.0059 339.64 75.0059 339.804 75.1702C339.968 75.2935 339.968 75.581 339.804 75.7454Z" fill="#B4D1FA"/>
<path d="M344.032 80.3895C344.259 80.3895 344.443 80.2056 344.443 79.9787C344.443 79.7518 344.259 79.5679 344.032 79.5679C343.805 79.5679 343.621 79.7518 343.621 79.9787C343.621 80.2056 343.805 80.3895 344.032 80.3895Z" fill="#B4D1FA"/>
<path d="M348.55 84.9104C348.777 84.9104 348.961 84.7265 348.961 84.4996C348.961 84.2727 348.777 84.0888 348.55 84.0888C348.323 84.0888 348.139 84.2727 348.139 84.4996C348.139 84.7265 348.323 84.9104 348.55 84.9104Z" fill="#B4D1FA"/>
<path d="M353.068 89.4314C353.295 89.4314 353.479 89.2474 353.479 89.0206C353.479 88.7937 353.295 88.6097 353.068 88.6097C352.841 88.6097 352.657 88.7937 352.657 89.0206C352.657 89.2474 352.841 89.4314 353.068 89.4314Z" fill="#B4D1FA"/>
<path d="M357.871 93.8291C357.707 93.9934 357.46 93.9934 357.296 93.8291C357.132 93.6647 357.132 93.4182 357.296 93.2539C357.46 93.0896 357.707 93.0896 357.871 93.2539C358.036 93.4182 358.036 93.6647 357.871 93.8291Z" fill="#B4D1FA"/>
<path d="M335.779 79.7731C335.615 79.9374 335.369 79.9374 335.204 79.7731C335.04 79.6087 335.04 79.3622 335.204 79.1979C335.369 79.0336 335.615 79.0336 335.779 79.1979C335.944 79.3622 335.944 79.6087 335.779 79.7731Z" fill="#B4D1FA"/>
<path d="M340.298 84.294C340.133 84.4583 339.887 84.4583 339.722 84.294C339.558 84.1296 339.558 83.8831 339.722 83.7188C339.887 83.5545 340.133 83.5545 340.298 83.7188C340.462 83.8831 340.462 84.1296 340.298 84.294Z" fill="#B4D1FA"/>
<path d="M344.528 88.9381C344.755 88.9381 344.939 88.7542 344.939 88.5273C344.939 88.3004 344.755 88.1165 344.528 88.1165C344.302 88.1165 344.118 88.3004 344.118 88.5273C344.118 88.7542 344.302 88.9381 344.528 88.9381Z" fill="#B4D1FA"/>
<path d="M349.331 93.3358C349.167 93.5001 348.92 93.5001 348.756 93.3358C348.592 93.1715 348.592 92.925 348.756 92.7607C348.92 92.5963 349.167 92.5963 349.331 92.7607C349.496 92.925 349.496 93.1715 349.331 93.3358Z" fill="#B4D1FA"/>
<path d="M353.849 97.8568C353.685 98.0211 353.438 98.0211 353.274 97.8568C353.11 97.6924 353.11 97.4459 353.274 97.2816C353.438 97.1173 353.685 97.1173 353.849 97.2816C354.014 97.4459 354.014 97.6924 353.849 97.8568Z" fill="#B4D1FA"/>
<path d="M331.755 83.8008C331.591 83.9651 331.344 83.9651 331.18 83.8008C331.016 83.6364 331.016 83.39 331.18 83.2256C331.344 83.0613 331.591 83.0613 331.755 83.2256C331.878 83.39 331.878 83.6364 331.755 83.8008Z" fill="#B4D1FA"/>
<path d="M335.986 88.445C336.213 88.445 336.397 88.2611 336.397 88.0342C336.397 87.8073 336.213 87.6234 335.986 87.6234C335.759 87.6234 335.575 87.8073 335.575 88.0342C335.575 88.2611 335.759 88.445 335.986 88.445Z" fill="#B4D1FA"/>
<path d="M340.502 92.9659C340.729 92.9659 340.912 92.782 340.912 92.5551C340.912 92.3282 340.729 92.1443 340.502 92.1443C340.275 92.1443 340.091 92.3282 340.091 92.5551C340.091 92.782 340.275 92.9659 340.502 92.9659Z" fill="#B4D1FA"/>
<path d="M345.019 97.4868C345.246 97.4868 345.43 97.3029 345.43 97.076C345.43 96.8491 345.246 96.6652 345.019 96.6652C344.792 96.6652 344.608 96.8491 344.608 97.076C344.608 97.3029 344.792 97.4868 345.019 97.4868Z" fill="#B4D1FA"/>
<path d="M349.825 101.884C349.661 102.049 349.414 102.049 349.25 101.884C349.085 101.72 349.085 101.474 349.25 101.309C349.414 101.145 349.661 101.145 349.825 101.309C349.989 101.474 349.989 101.761 349.825 101.884Z" fill="#B4D1FA"/>
<path d="M327.689 87.8696C327.524 88.034 327.278 88.034 327.113 87.8696C326.949 87.7053 326.949 87.4588 327.113 87.2945C327.278 87.1302 327.524 87.1302 327.689 87.2945C327.853 87.4177 327.853 87.7053 327.689 87.8696Z" fill="#B4D1FA"/>
<path d="M331.919 92.5138C332.146 92.5138 332.33 92.3298 332.33 92.103C332.33 91.8761 332.146 91.6921 331.919 91.6921C331.692 91.6921 331.508 91.8761 331.508 92.103C331.508 92.3298 331.692 92.5138 331.919 92.5138Z" fill="#B4D1FA"/>
<path d="M336.436 97.0347C336.663 97.0347 336.847 96.8508 336.847 96.6239C336.847 96.397 336.663 96.2131 336.436 96.2131C336.209 96.2131 336.025 96.397 336.025 96.6239C336.025 96.8508 336.209 97.0347 336.436 97.0347Z" fill="#B4D1FA"/>
<path d="M340.953 101.556C341.18 101.556 341.364 101.372 341.364 101.145C341.364 100.918 341.18 100.734 340.953 100.734C340.726 100.734 340.542 100.918 340.542 101.145C340.542 101.372 340.726 101.556 340.953 101.556Z" fill="#B4D1FA"/>
<path d="M345.758 105.953C345.594 106.118 345.348 106.118 345.183 105.953C345.019 105.789 345.019 105.543 345.183 105.378C345.348 105.214 345.594 105.214 345.758 105.378C345.923 105.543 345.923 105.789 345.758 105.953Z" fill="#B4D1FA"/>
<path d="M248.274 17.2617L273.821 35.3303L299.458 17.2617L325.095 35.3303" stroke="#E0E0E0" stroke-width="2" stroke-miterlimit="10" stroke-linecap="round" stroke-linejoin="round"/>
<path d="M197 17.2617L222.637 35.3303" stroke="#E0E0E0" stroke-width="2" stroke-miterlimit="10" stroke-linecap="round" stroke-linejoin="round"/>
<path d="M197 1L222.637 19.0686L248.274 1L273.821 19.0686L299.458 1" stroke="#EBF2F9" stroke-width="2" stroke-miterlimit="10" stroke-linecap="round" stroke-linejoin="round"/>
<path d="M497.063 138.863C505.638 138.863 512.589 131.906 512.589 123.324C512.589 114.742 505.638 107.785 497.063 107.785C488.488 107.785 481.536 114.742 481.536 123.324C481.536 131.906 488.488 138.863 497.063 138.863Z" fill="#EBF2F9"/>
<path d="M491.466 133.262C500.041 133.262 506.992 126.305 506.992 117.723C506.992 109.141 500.041 102.184 491.466 102.184C482.89 102.184 475.939 109.141 475.939 117.723C475.939 126.305 482.89 133.262 491.466 133.262Z" stroke="#E0E0E0" stroke-width="2" stroke-miterlimit="10" stroke-linecap="round" stroke-linejoin="round"/>
<g filter="url(#filter0_f)">
<path d="M375.636 355.692L286.376 391.773L481.237 495L559.001 469.092L375.636 355.692Z" fill="url(#paint0_linear)"/>
</g>
<g filter="url(#filter1_d)">
<path d="M244 374.471L320.637 349.69L557.873 381.793L558.437 469.655L480.673 495V406.575L320.637 384.867V436.989L244 462.333V374.471Z" fill="#F5F9FF"/>
</g>
<path d="M480.672 406.575L558.436 382.92V469.655L480.672 495V406.575Z" fill="#E1E7F0"/>
<path d="M320.637 436.989L244 462.333V374.471L320.637 385.172V436.989Z" fill="#E1E7F0"/>
<g filter="url(#filter2_f)">
<path d="M466.021 378.967C466.021 382.705 437.512 385.736 402.345 385.736C367.179 385.736 338.669 382.705 338.669 378.967C338.669 375.23 367.179 372.218 402.345 372.218C437.512 372.218 466.021 375.23 466.021 378.967Z" fill="#C4D1E6" fill-opacity="0.3"/>
</g>
<g filter="url(#filter3_di)">
<path d="M311.177 201H488.81C491.765 201 494.599 202.174 496.688 204.265C498.778 206.355 499.952 209.19 499.952 212.147V319.633H299.224V212.943C299.224 211.373 299.533 209.819 300.134 208.369C300.735 206.919 301.615 205.602 302.726 204.492C303.836 203.383 305.154 202.504 306.604 201.905C308.054 201.305 309.608 200.998 311.177 201Z" fill="#1B314C"/>
</g>
<g filter="url(#filter4_di)">
<path d="M481.974 337.691H317.24C312.468 337.691 307.892 335.794 304.517 332.418C301.143 329.042 299.247 324.463 299.247 319.689H499.991C499.991 322.055 499.525 324.398 498.619 326.584C497.713 328.769 496.386 330.755 494.712 332.427C493.039 334.099 491.053 335.424 488.867 336.328C486.681 337.231 484.339 337.694 481.974 337.691Z" fill="#71A0DD"/>
</g>
<g filter="url(#filter5_di)">
<path d="M417.672 337.691H381.248V368.018H417.672V337.691Z" fill="#0E518E"/>
</g>
<path d="M417.672 337.691H381.248V347.301H417.672V337.691Z" fill="#0A3D76"/>
<g filter="url(#filter6_di)">
<path d="M366.907 368.018H432.021C434.553 368.018 436.982 369.025 438.773 370.817C440.564 372.608 441.57 375.039 441.57 377.573V379.555H357.357V377.573C357.357 375.039 358.364 372.608 360.154 370.817C361.945 369.025 364.374 368.018 366.907 368.018Z" fill="#71A0DD"/>
</g>
<path d="M307.022 249.488V305.095C307.032 305.926 307.367 306.72 307.954 307.307C308.541 307.895 309.335 308.229 310.165 308.24H399.121L307.022 228.572V249.488Z" fill="#223C49"/>
<path d="M487.489 209.655H310.206C308.448 209.655 307.022 211.081 307.022 212.839V305.055C307.022 306.814 308.448 308.24 310.206 308.24H487.489C489.247 308.24 490.672 306.814 490.672 305.055V212.839C490.672 211.081 489.247 209.655 487.489 209.655Z" fill="url(#paint1_linear)"/>
<path opacity="0.3" d="M404.43 328.089C404.43 329.214 404.097 330.313 403.472 331.248C402.847 332.183 401.959 332.912 400.921 333.342C399.882 333.772 398.739 333.884 397.637 333.664C396.534 333.444 395.522 332.902 394.727 332.106C393.933 331.31 393.392 330.296 393.174 329.193C392.956 328.09 393.069 326.946 393.501 325.908C393.932 324.869 394.662 323.982 395.597 323.358C396.532 322.734 397.632 322.402 398.756 322.404C399.502 322.404 400.24 322.551 400.929 322.837C401.618 323.123 402.244 323.542 402.771 324.07C403.298 324.598 403.716 325.224 404.001 325.914C404.285 326.604 404.431 327.343 404.43 328.089Z" fill="black"/>
<path d="M485.412 212.839H312.713C311.834 212.839 311.121 213.552 311.121 214.432V223.039C311.121 223.918 311.834 224.631 312.713 224.631H485.412C486.291 224.631 487.004 223.918 487.004 223.039V214.432C487.004 213.552 486.291 212.839 485.412 212.839Z" fill="#B4D1FA"/>
<path d="M397.324 231.255H312.187C311.304 231.255 310.588 232.021 310.588 232.966V286.871C310.588 287.816 311.304 288.582 312.187 288.582H397.324C398.207 288.582 398.923 287.816 398.923 286.871V232.966C398.923 232.021 398.207 231.255 397.324 231.255Z" fill="#B4D1FA"/>
<path d="M438.204 234.146H405.226C404.786 234.146 404.43 234.502 404.43 234.942V236.534C404.43 236.974 404.786 237.33 405.226 237.33H438.204C438.644 237.33 439 236.974 439 236.534V234.942C439 234.502 438.644 234.146 438.204 234.146Z" fill="#B4D1FA"/>
<path d="M459.237 242.092H405.226C404.786 242.092 404.43 242.448 404.43 242.888V243.955C404.43 244.395 404.786 244.751 405.226 244.751H459.237C459.677 244.751 460.033 244.395 460.033 243.955V242.888C460.033 242.448 459.677 242.092 459.237 242.092Z" fill="#B4D1FA"/>
<path d="M459.237 246.869H405.226C404.786 246.869 404.43 247.225 404.43 247.665V248.732C404.43 249.172 404.786 249.528 405.226 249.528H459.237C459.677 249.528 460.033 249.172 460.033 248.732V247.665C460.033 247.225 459.677 246.869 459.237 246.869Z" fill="#B4D1FA"/>
<path d="M459.237 251.646H405.226C404.786 251.646 404.43 252.003 404.43 252.442V253.509C404.43 253.949 404.786 254.305 405.226 254.305H459.237C459.677 254.305 460.033 253.949 460.033 253.509V252.442C460.033 252.003 459.677 251.646 459.237 251.646Z" fill="#B4D1FA"/>
<path d="M394.069 297.324C394.948 297.324 395.66 296.611 395.66 295.732C395.66 294.852 394.948 294.139 394.069 294.139C393.19 294.139 392.477 294.852 392.477 295.732C392.477 296.611 393.19 297.324 394.069 297.324Z" fill="#B4D1FA"/>
<path opacity="0.5" d="M398.844 297.324C399.723 297.324 400.435 296.611 400.435 295.732C400.435 294.852 399.723 294.139 398.844 294.139C397.965 294.139 397.252 294.852 397.252 295.732C397.252 296.611 397.965 297.324 398.844 297.324Z" fill="#B4D1FA"/>
<path opacity="0.5" d="M403.618 297.324C404.498 297.324 405.21 296.611 405.21 295.732C405.21 294.852 404.498 294.139 403.618 294.139C402.739 294.139 402.027 294.852 402.027 295.732C402.027 296.611 402.739 297.324 403.618 297.324Z" fill="#B4D1FA"/>
<path d="M413.13 317.1L362.198 218.77H496.691V317.1H413.13Z" fill="#D0E4FF" fill-opacity="0.2"/>
<path d="M166.194 270.386L170.537 274.709" stroke="#71A0DD" stroke-width="1.6547" stroke-miterlimit="10" stroke-linecap="round" stroke-linejoin="round"/>
<path d="M151.177 255.513L159.2 263.499" stroke="#71A0DD" stroke-width="1.6547" stroke-miterlimit="10" stroke-linecap="round" stroke-linejoin="round"/>
<path d="M164.795 256.465L195.049 286.505" stroke="#71A0DD" stroke-width="1.6547" stroke-miterlimit="10" stroke-linecap="round" stroke-linejoin="round"/>
<path d="M149.41 241.079L155.52 247.234" stroke="#71A0DD" stroke-width="1.6547" stroke-miterlimit="10" stroke-linecap="round" stroke-linejoin="round"/>
<path d="M186.511 265.477L213.085 292" stroke="url(#paint2_linear)" stroke-width="1.6547" stroke-miterlimit="10" stroke-linecap="round" stroke-linejoin="round"/>
<path d="M146.392 225.547L174.732 253.754" stroke="url(#paint3_linear)" stroke-width="1.6547" stroke-miterlimit="10" stroke-linecap="round" stroke-linejoin="round"/>
<path d="M168.622 235.071L215.586 281.816" stroke="#71A0DD" stroke-width="1.6547" stroke-miterlimit="10" stroke-linecap="round" stroke-linejoin="round"/>
<path d="M149.188 215.802L159.126 225.693" stroke="#71A0DD" stroke-width="1.6547" stroke-miterlimit="10" stroke-linecap="round" stroke-linejoin="round"/>
<path d="M207.417 261.081L218.679 272.364" stroke="#71A0DD" stroke-width="1.6547" stroke-miterlimit="10" stroke-linecap="round" stroke-linejoin="round"/>
<path d="M138 191.99L195.491 249.285" stroke="#71A0DD" stroke-width="1.6547" stroke-miterlimit="10" stroke-linecap="round" stroke-linejoin="round"/>
<path d="M184.154 225.4L240.32 281.376" stroke="url(#paint4_linear)" stroke-width="1.6547" stroke-miterlimit="10" stroke-linecap="round" stroke-linejoin="round"/>
<path d="M159.274 200.709L172.377 213.677" stroke="url(#paint5_linear)" stroke-width="1.6547" stroke-miterlimit="10" stroke-linecap="round" stroke-linejoin="round"/>
<path d="M195.049 223.642L231.34 259.836" stroke="#71A0DD" stroke-width="1.6547" stroke-miterlimit="10" stroke-linecap="round" stroke-linejoin="round"/>
<path d="M157.949 186.788L184.817 213.457" stroke="#71A0DD" stroke-width="1.6547" stroke-miterlimit="10" stroke-linecap="round" stroke-linejoin="round"/>
<path d="M225.008 240.933L244 259.762" stroke="url(#paint6_linear)" stroke-width="1.6547" stroke-miterlimit="10" stroke-linecap="round" stroke-linejoin="round"/>
<path d="M174.365 190.525L211.244 227.232" stroke="url(#paint7_linear)" stroke-width="1.6547" stroke-miterlimit="10" stroke-linecap="round" stroke-linejoin="round"/>
<path d="M206.606 210.087L232.223 235.584" stroke="#71A0DD" stroke-width="1.6547" stroke-miterlimit="10" stroke-linecap="round" stroke-linejoin="round"/>
<path d="M177.382 181L196.595 200.05" stroke="#71A0DD" stroke-width="1.6547" stroke-miterlimit="10" stroke-linecap="round" stroke-linejoin="round"/>
<path d="M229.426 220.125L239.363 230.089" stroke="url(#paint8_linear)" stroke-width="1.6547" stroke-miterlimit="10" stroke-linecap="round" stroke-linejoin="round"/>
<path d="M192.768 183.638L218.016 208.842" stroke="url(#paint9_linear)" stroke-width="1.6547" stroke-miterlimit="10" stroke-linecap="round" stroke-linejoin="round"/>
<path d="M224.199 202.394L230.309 208.548" stroke="#71A0DD" stroke-width="1.6547" stroke-miterlimit="10" stroke-linecap="round" stroke-linejoin="round"/>
<path d="M213.452 191.697L217.721 195.947" stroke="#71A0DD" stroke-width="1.6547" stroke-miterlimit="10" stroke-linecap="round" stroke-linejoin="round"/>
<path d="M5.20385 151.041C4.10769 152.218 2.18944 152.399 1.00193 151.313C-0.185572 150.227 -0.368281 148.327 0.727876 147.151C1.82403 145.974 3.74231 145.793 4.92982 146.879C6.20867 147.965 6.3 149.865 5.20385 151.041Z" fill="#F985A0"/>
<path d="M18.2659 162.533C17.1697 163.709 15.2514 163.89 14.0639 162.804C12.8764 161.719 12.6937 159.818 13.7899 158.642C14.8861 157.466 16.8043 157.285 17.9918 158.371C19.2707 159.457 19.362 161.357 18.2659 162.533Z" fill="#71A0DD"/>
<path d="M44.3 185.516C43.2039 186.692 41.2856 186.873 40.0981 185.787C38.9106 184.702 38.7279 182.802 39.8241 181.625C40.9202 180.449 42.8385 180.268 44.026 181.354C45.3048 182.44 45.3962 184.249 44.3 185.516Z" fill="#F985A0"/>
<path d="M57.3626 197.008C56.2664 198.184 54.3481 198.365 53.1606 197.279C51.9731 196.193 51.7904 194.293 52.8866 193.117C53.9827 191.94 55.901 191.759 57.0885 192.845C58.276 193.931 58.4587 195.741 57.3626 197.008Z" fill="#71A0DD"/>
<path d="M28.7708 150.86C27.6746 152.037 25.7563 152.218 24.5688 151.132C23.3813 150.046 23.1986 148.146 24.2948 146.97C25.3909 145.793 27.3092 145.612 28.4967 146.698C29.7755 147.784 29.8669 149.594 28.7708 150.86Z" fill="#F985A0"/>
<path d="M41.8337 162.352C40.7376 163.528 38.8193 163.709 37.6318 162.623C36.4443 161.538 36.2616 159.637 37.3578 158.461C38.4539 157.285 40.3722 157.104 41.5597 158.19C42.7472 159.185 42.9299 161.085 41.8337 162.352Z" fill="#F985A0"/>
<path d="M54.8054 173.753C53.7092 174.929 51.791 175.11 50.6035 174.024C49.416 172.939 49.2333 171.039 50.3295 169.862C51.4256 168.686 53.3439 168.505 54.5314 169.591C55.7189 170.677 55.9015 172.577 54.8054 173.753Z" fill="#71A0DD"/>
<path d="M39.2751 139.098C38.179 140.274 36.2607 140.455 35.0732 139.369C33.8857 138.283 33.703 136.383 34.7992 135.207C35.8953 134.03 37.8136 133.849 39.0011 134.935C40.2799 136.021 40.3713 137.921 39.2751 139.098Z" fill="#71A0DD"/>
<path d="M52.3377 150.589C51.2415 151.765 49.3232 151.946 48.1357 150.86C46.9482 149.775 46.7655 147.874 47.8617 146.698C48.9578 145.522 50.8761 145.341 52.0636 146.427C53.3424 147.513 53.4338 149.413 52.3377 150.589Z" fill="#F985A0"/>
<path d="M65.3088 162.081C64.2127 163.257 62.2944 163.438 61.1069 162.352C59.9194 161.266 59.7367 159.366 60.8329 158.19C61.929 157.013 63.8473 156.832 65.0348 157.918C66.3136 159.004 66.405 160.814 65.3088 162.081Z" fill="#F985A0"/>
<path d="M78.3709 173.572C77.2747 174.748 75.3564 174.929 74.1689 173.844C72.9814 172.758 72.7987 170.858 73.8949 169.681C74.991 168.505 76.9093 168.324 78.0968 169.41C79.3756 170.496 79.467 172.305 78.3709 173.572Z" fill="#F985A0"/>
<path d="M36.8098 115.933C35.7137 117.11 33.7954 117.291 32.6079 116.205C31.4204 115.119 31.2377 113.219 32.3338 112.043C33.43 110.866 35.3483 110.685 36.5358 111.771C37.7233 112.857 37.906 114.757 36.8098 115.933Z" fill="#71A0DD"/>
<path d="M62.8445 138.917C61.7484 140.093 59.83 140.274 58.6425 139.188C57.455 138.102 57.2724 136.202 58.3685 135.026C59.4647 133.849 61.3829 133.668 62.5704 134.754C63.7579 135.84 63.9407 137.65 62.8445 138.917Z" fill="#F985A0"/>
<path d="M75.8152 150.318C74.719 151.494 72.8007 151.675 71.6132 150.589C70.4257 149.503 70.2431 147.603 71.3392 146.427C72.4354 145.25 74.3536 145.069 75.5411 146.155C76.82 147.241 76.9113 149.141 75.8152 150.318Z" fill="#71A0DD"/>
<path d="M714.9 147.103C715.346 146.657 716.016 146.657 716.463 147.103C716.909 147.55 716.909 148.22 716.463 148.666C716.016 149.113 715.346 149.113 714.9 148.666C714.453 148.22 714.453 147.55 714.9 147.103Z" fill="#0A3D76"/>
<path d="M702.732 134.99C703.178 134.543 703.848 134.543 704.295 134.99C704.741 135.437 704.741 136.107 704.295 136.553C703.848 137 703.178 137 702.732 136.553C702.341 136.107 702.341 135.381 702.732 134.99Z" fill="#0A3D76"/>
<path d="M691.4 124.719C692.016 124.719 692.516 124.219 692.516 123.602C692.516 122.986 692.016 122.486 691.4 122.486C690.783 122.486 690.283 122.986 690.283 123.602C690.283 124.219 690.783 124.719 691.4 124.719Z" fill="#0A3D76"/>
<path d="M679.231 112.605C679.847 112.605 680.347 112.106 680.347 111.489C680.347 110.872 679.847 110.373 679.231 110.373C678.614 110.373 678.114 110.872 678.114 111.489C678.114 112.106 678.614 112.605 679.231 112.605Z" fill="#0A3D76"/>
<path d="M667.116 100.436C667.733 100.436 668.233 99.9363 668.233 99.3197C668.233 98.7031 667.733 98.2033 667.116 98.2033C666.5 98.2033 666 98.7031 666 99.3197C666 99.9363 666.5 100.436 667.116 100.436Z" fill="#0A3D76"/>
<path d="M726.511 138.172C727.128 138.172 727.627 137.672 727.627 137.055C727.627 136.439 727.128 135.939 726.511 135.939C725.894 135.939 725.395 136.439 725.395 137.055C725.395 137.672 725.894 138.172 726.511 138.172Z" fill="#0A3D76"/>
<path d="M714.342 126.003C714.959 126.003 715.458 125.503 715.458 124.886C715.458 124.27 714.959 123.77 714.342 123.77C713.725 123.77 713.226 124.27 713.226 124.886C713.226 125.503 713.725 126.003 714.342 126.003Z" fill="#0A3D76"/>
<path d="M701.446 111.991C701.893 111.545 702.563 111.545 703.009 111.991C703.456 112.438 703.456 113.108 703.009 113.554C702.563 114.001 701.893 114.001 701.446 113.554C701.056 113.108 701.056 112.438 701.446 111.991Z" fill="#0A3D76"/>
<path d="M689.333 99.8779C689.78 99.4314 690.449 99.4314 690.896 99.8779C691.343 100.325 691.343 100.994 690.896 101.441C690.449 101.888 689.78 101.888 689.333 101.441C688.886 100.994 688.886 100.269 689.333 99.8779Z" fill="#0A3D76"/>
<path d="M677.165 87.7087C677.612 87.2622 678.282 87.2622 678.728 87.7087C679.175 88.1553 679.175 88.8252 678.728 89.2718C678.282 89.7183 677.612 89.7183 677.165 89.2718C676.774 88.8252 676.774 88.1553 677.165 87.7087Z" fill="#0A3D76"/>
<path d="M737.342 127.287C737.958 127.287 738.458 126.787 738.458 126.17C738.458 125.554 737.958 125.054 737.342 125.054C736.725 125.054 736.225 125.554 736.225 126.17C736.225 126.787 736.725 127.287 737.342 127.287Z" fill="#0A3D76"/>
<path d="M724.446 113.275C724.893 112.829 725.563 112.829 726.009 113.275C726.456 113.722 726.456 114.392 726.009 114.838C725.563 115.285 724.893 115.285 724.446 114.838C724 114.392 724 113.722 724.446 113.275Z" fill="#0A3D76"/>
<path d="M712.276 101.162C712.723 100.715 713.393 100.715 713.839 101.162C714.286 101.608 714.286 102.278 713.839 102.725C713.393 103.171 712.723 103.171 712.276 102.725C711.886 102.278 711.886 101.553 712.276 101.162Z" fill="#0A3D76"/>
<path d="M700.164 88.9926C700.611 88.546 701.28 88.546 701.727 88.9926C702.174 89.4392 702.174 90.1091 701.727 90.5556C701.28 91.0022 700.611 91.0022 700.164 90.5556C699.717 90.1091 699.717 89.4392 700.164 88.9926Z" fill="#0A3D76"/>
<path d="M688.05 76.8792C688.496 76.4326 689.166 76.4326 689.613 76.8792C690.059 77.3258 690.059 77.9957 689.613 78.4422C689.166 78.8888 688.496 78.8888 688.05 78.4422C687.603 77.9957 687.603 77.3258 688.05 76.8792Z" fill="#0A3D76"/>
<path d="M747.446 114.559C747.892 114.113 748.562 114.113 749.009 114.559C749.455 115.006 749.455 115.676 749.009 116.122C748.562 116.569 747.892 116.569 747.446 116.122C746.999 115.676 746.999 115.006 747.446 114.559Z" fill="#0A3D76"/>
<path d="M735.276 102.446C735.723 101.999 736.392 101.999 736.839 102.446C737.286 102.892 737.286 103.562 736.839 104.009C736.392 104.455 735.723 104.455 735.276 104.009C734.885 103.562 734.885 102.892 735.276 102.446Z" fill="#0A3D76"/>
<path d="M723.945 92.1745C724.561 92.1745 725.061 91.6747 725.061 91.0581C725.061 90.4415 724.561 89.9417 723.945 89.9417C723.328 89.9417 722.828 90.4415 722.828 91.0581C722.828 91.6747 723.328 92.1745 723.945 92.1745Z" fill="#0A3D76"/>
<path d="M711.775 80.0611C712.392 80.0611 712.892 79.5613 712.892 78.9447C712.892 78.3281 712.392 77.8282 711.775 77.8282C711.159 77.8282 710.659 78.3281 710.659 78.9447C710.659 79.5613 711.159 80.0611 711.775 80.0611Z" fill="#0A3D76"/>
<path d="M699.661 67.9477C700.278 67.9477 700.778 67.4479 700.778 66.8313C700.778 66.2147 700.278 65.7148 699.661 65.7148C699.045 65.7148 698.545 66.2147 698.545 66.8313C698.545 67.4479 699.045 67.9477 699.661 67.9477Z" fill="#0A3D76"/>
<path d="M759.056 105.628C759.673 105.628 760.173 105.128 760.173 104.511C760.173 103.895 759.673 103.395 759.056 103.395C758.44 103.395 757.94 103.895 757.94 104.511C757.94 105.128 758.44 105.628 759.056 105.628Z" fill="#0A3D76"/>
<path d="M746.886 93.4584C747.503 93.4584 748.002 92.9586 748.002 92.342C748.002 91.7254 747.503 91.2255 746.886 91.2255C746.269 91.2255 745.77 91.7254 745.77 92.342C745.77 92.9586 746.269 93.4584 746.886 93.4584Z" fill="#0A3D76"/>
<path d="M733.992 79.4471C734.439 79.0005 735.109 79.0005 735.555 79.4471C736.002 79.8936 736.002 80.5635 735.555 81.0101C735.109 81.4567 734.439 81.4567 733.992 81.0101C733.546 80.5635 733.546 79.8936 733.992 79.4471Z" fill="#0A3D76"/>
<path d="M721.879 67.3337C722.325 66.8871 722.995 66.8871 723.442 67.3337C723.888 67.7802 723.888 68.4501 723.442 68.8967C722.995 69.3432 722.325 69.3432 721.879 68.8967C721.432 68.4501 721.432 67.7244 721.879 67.3337Z" fill="#0A3D76"/>
<path d="M709.71 55.1644C710.156 54.7179 710.826 54.7179 711.273 55.1644C711.719 55.611 711.719 56.2809 711.273 56.7275C710.826 57.174 710.156 57.174 709.71 56.7275C709.319 56.2809 709.319 55.611 709.71 55.1644Z" fill="#0A3D76"/>
<path d="M769.884 94.7981C770.5 94.7981 771 94.2983 771 93.6817C771 93.0651 770.5 92.5653 769.884 92.5653C769.267 92.5653 768.767 93.0651 768.767 93.6817C768.767 94.2983 769.267 94.7981 769.884 94.7981Z" fill="#0A3D76"/>
<path d="M756.989 80.731C757.435 80.2844 758.105 80.2844 758.552 80.731C758.998 81.1775 758.998 81.8474 758.552 82.294C758.105 82.7405 757.435 82.7405 756.989 82.294C756.542 81.8474 756.542 81.1775 756.989 80.731Z" fill="#0A3D76"/>
<path d="M744.82 68.6176C745.266 68.171 745.936 68.171 746.383 68.6176C746.83 69.0642 746.83 69.734 746.383 70.1806C745.936 70.6272 745.266 70.6272 744.82 70.1806C744.429 69.734 744.429 69.0642 744.82 68.6176Z" fill="#0A3D76"/>
<path d="M733.488 58.3463C734.105 58.3463 734.604 57.8464 734.604 57.2298C734.604 56.6133 734.105 56.1134 733.488 56.1134C732.871 56.1134 732.372 56.6133 732.372 57.2298C732.372 57.8464 732.871 58.3463 733.488 58.3463Z" fill="#0A3D76"/>
<path d="M720.593 44.3349C721.039 43.8884 721.709 43.8884 722.156 44.3349C722.602 44.7815 722.602 45.4514 722.156 45.898C721.709 46.3445 721.039 46.3445 720.593 45.898C720.146 45.4514 720.146 44.7815 720.593 44.3349Z" fill="#0A3D76"/>
<defs>
<filter id="filter0_f" x="284.376" y="353.692" width="276.624" height="143.308" filterUnits="userSpaceOnUse" color-interpolation-filters="sRGB">
<feFlood flood-opacity="0" result="BackgroundImageFix"/>
<feBlend mode="normal" in="SourceGraphic" in2="BackgroundImageFix" result="shape"/>
<feGaussianBlur stdDeviation="1" result="effect1_foregroundBlur"/>
</filter>
<filter id="filter1_d" x="240" y="347.69" width="322.436" height="153.31" filterUnits="userSpaceOnUse" color-interpolation-filters="sRGB">
<feFlood flood-opacity="0" result="BackgroundImageFix"/>
<feColorMatrix in="SourceAlpha" type="matrix" values="0 0 0 0 0 0 0 0 0 0 0 0 0 0 0 0 0 0 127 0"/>
<feOffset dy="2"/>
<feGaussianBlur stdDeviation="2"/>
<feColorMatrix type="matrix" values="0 0 0 0 0 0 0 0 0 0 0 0 0 0 0 0 0 0 0.2 0"/>
<feBlend mode="normal" in2="BackgroundImageFix" result="effect1_dropShadow"/>
<feBlend mode="normal" in="SourceGraphic" in2="effect1_dropShadow" result="shape"/>
</filter>
<filter id="filter2_f" x="333.669" y="367.218" width="137.352" height="23.5172" filterUnits="userSpaceOnUse" color-interpolation-filters="sRGB">
<feFlood flood-opacity="0" result="BackgroundImageFix"/>
<feBlend mode="normal" in="SourceGraphic" in2="BackgroundImageFix" result="shape"/>
<feGaussianBlur stdDeviation="2.5" result="effect1_foregroundBlur"/>
</filter>
<filter id="filter3_di" x="297.224" y="199" width="208.728" height="126.633" filterUnits="userSpaceOnUse" color-interpolation-filters="sRGB">
<feFlood flood-opacity="0" result="BackgroundImageFix"/>
<feColorMatrix in="SourceAlpha" type="matrix" values="0 0 0 0 0 0 0 0 0 0 0 0 0 0 0 0 0 0 127 0"/>
<feOffset dx="2" dy="2"/>
<feGaussianBlur stdDeviation="2"/>
<feColorMatrix type="matrix" values="0 0 0 0 0 0 0 0 0 0 0 0 0 0 0 0 0 0 0.15 0"/>
<feBlend mode="normal" in2="BackgroundImageFix" result="effect1_dropShadow"/>
<feBlend mode="normal" in="SourceGraphic" in2="effect1_dropShadow" result="shape"/>
<feColorMatrix in="SourceAlpha" type="matrix" values="0 0 0 0 0 0 0 0 0 0 0 0 0 0 0 0 0 0 127 0" result="hardAlpha"/>
<feOffset dx="-2" dy="-2"/>
<feGaussianBlur stdDeviation="2"/>
<feComposite in2="hardAlpha" operator="arithmetic" k2="-1" k3="1"/>
<feColorMatrix type="matrix" values="0 0 0 0 0 0 0 0 0 0 0 0 0 0 0 0 0 0 0.2 0"/>
<feBlend mode="normal" in2="shape" result="effect2_innerShadow"/>
</filter>
<filter id="filter4_di" x="297.247" y="317.689" width="208.744" height="26.002" filterUnits="userSpaceOnUse" color-interpolation-filters="sRGB">
<feFlood flood-opacity="0" result="BackgroundImageFix"/>
<feColorMatrix in="SourceAlpha" type="matrix" values="0 0 0 0 0 0 0 0 0 0 0 0 0 0 0 0 0 0 127 0"/>
<feOffset dx="2" dy="2"/>
<feGaussianBlur stdDeviation="2"/>
<feColorMatrix type="matrix" values="0 0 0 0 0 0 0 0 0 0 0 0 0 0 0 0 0 0 0.15 0"/>
<feBlend mode="normal" in2="BackgroundImageFix" result="effect1_dropShadow"/>
<feBlend mode="normal" in="SourceGraphic" in2="effect1_dropShadow" result="shape"/>
<feColorMatrix in="SourceAlpha" type="matrix" values="0 0 0 0 0 0 0 0 0 0 0 0 0 0 0 0 0 0 127 0" result="hardAlpha"/>
<feOffset dx="-2" dy="-2"/>
<feGaussianBlur stdDeviation="2"/>
<feComposite in2="hardAlpha" operator="arithmetic" k2="-1" k3="1"/>
<feColorMatrix type="matrix" values="0 0 0 0 0 0 0 0 0 0 0 0 0 0 0 0 0 0 0.2 0"/>
<feBlend mode="normal" in2="shape" result="effect2_innerShadow"/>
</filter>
<filter id="filter5_di" x="379.248" y="335.691" width="44.4244" height="38.3271" filterUnits="userSpaceOnUse" color-interpolation-filters="sRGB">
<feFlood flood-opacity="0" result="BackgroundImageFix"/>
<feColorMatrix in="SourceAlpha" type="matrix" values="0 0 0 0 0 0 0 0 0 0 0 0 0 0 0 0 0 0 127 0"/>
<feOffset dx="2" dy="2"/>
<feGaussianBlur stdDeviation="2"/>
<feColorMatrix type="matrix" values="0 0 0 0 0 0 0 0 0 0 0 0 0 0 0 0 0 0 0.15 0"/>
<feBlend mode="normal" in2="BackgroundImageFix" result="effect1_dropShadow"/>
<feBlend mode="normal" in="SourceGraphic" in2="effect1_dropShadow" result="shape"/>
<feColorMatrix in="SourceAlpha" type="matrix" values="0 0 0 0 0 0 0 0 0 0 0 0 0 0 0 0 0 0 127 0" result="hardAlpha"/>
<feOffset dx="-2" dy="-2"/>
<feGaussianBlur stdDeviation="2"/>
<feComposite in2="hardAlpha" operator="arithmetic" k2="-1" k3="1"/>
<feColorMatrix type="matrix" values="0 0 0 0 0 0 0 0 0 0 0 0 0 0 0 0 0 0 0.2 0"/>
<feBlend mode="normal" in2="shape" result="effect2_innerShadow"/>
</filter>
<filter id="filter6_di" x="355.357" y="366.018" width="92.2129" height="19.5369" filterUnits="userSpaceOnUse" color-interpolation-filters="sRGB">
<feFlood flood-opacity="0" result="BackgroundImageFix"/>
<feColorMatrix in="SourceAlpha" type="matrix" values="0 0 0 0 0 0 0 0 0 0 0 0 0 0 0 0 0 0 127 0"/>
<feOffset dx="2" dy="2"/>
<feGaussianBlur stdDeviation="2"/>
<feColorMatrix type="matrix" values="0 0 0 0 0 0 0 0 0 0 0 0 0 0 0 0 0 0 0.15 0"/>
<feBlend mode="normal" in2="BackgroundImageFix" result="effect1_dropShadow"/>
<feBlend mode="normal" in="SourceGraphic" in2="effect1_dropShadow" result="shape"/>
<feColorMatrix in="SourceAlpha" type="matrix" values="0 0 0 0 0 0 0 0 0 0 0 0 0 0 0 0 0 0 127 0" result="hardAlpha"/>
<feOffset dx="-2" dy="-2"/>
<feGaussianBlur stdDeviation="2"/>
<feComposite in2="hardAlpha" operator="arithmetic" k2="-1" k3="1"/>
<feColorMatrix type="matrix" values="0 0 0 0 0 0 0 0 0 0 0 0 0 0 0 0 0 0 0.2 0"/>
<feBlend mode="normal" in2="shape" result="effect2_innerShadow"/>
</filter>
<linearGradient id="paint0_linear" x1="353.096" y1="356.143" x2="618.663" y2="544.662" gradientUnits="userSpaceOnUse">
<stop offset="0.172823" stop-color="#B4D1FA" stop-opacity="0"/>
<stop offset="1" stop-opacity="0.2"/>
</linearGradient>
<linearGradient id="paint1_linear" x1="456.962" y1="306.209" x2="255.576" y2="142.606" gradientUnits="userSpaceOnUse">
<stop stop-color="#8FB1DB"/>
<stop offset="1" stop-color="#71A0DD"/>
</linearGradient>
<linearGradient id="paint2_linear" x1="212.266" y1="278.739" x2="187.298" y2="278.202" gradientUnits="userSpaceOnUse">
<stop stop-color="#A62E41"/>
<stop offset="1" stop-color="#E13152"/>
</linearGradient>
<linearGradient id="paint3_linear" x1="173.858" y1="239.65" x2="147.23" y2="239.076" gradientUnits="userSpaceOnUse">
<stop stop-color="#A62E41"/>
<stop offset="1" stop-color="#E13152"/>
</linearGradient>
<linearGradient id="paint4_linear" x1="238.588" y1="253.388" x2="185.816" y2="252.251" gradientUnits="userSpaceOnUse">
<stop stop-color="#A62E41"/>
<stop offset="1" stop-color="#E13152"/>
</linearGradient>
<linearGradient id="paint5_linear" x1="171.973" y1="207.193" x2="159.662" y2="206.926" gradientUnits="userSpaceOnUse">
<stop stop-color="#A62E41"/>
<stop offset="1" stop-color="#E13152"/>
</linearGradient>
<linearGradient id="paint6_linear" x1="243.415" y1="250.347" x2="225.57" y2="249.961" gradientUnits="userSpaceOnUse">
<stop stop-color="#A62E41"/>
<stop offset="1" stop-color="#E13152"/>
</linearGradient>
<linearGradient id="paint7_linear" x1="210.107" y1="208.878" x2="175.456" y2="208.131" gradientUnits="userSpaceOnUse">
<stop stop-color="#A62E41"/>
<stop offset="1" stop-color="#E13152"/>
</linearGradient>
<linearGradient id="paint8_linear" x1="239.057" y1="225.107" x2="229.72" y2="224.907" gradientUnits="userSpaceOnUse">
<stop stop-color="#A62E41"/>
<stop offset="1" stop-color="#E13152"/>
</linearGradient>
<linearGradient id="paint9_linear" x1="217.238" y1="196.24" x2="193.515" y2="195.729" gradientUnits="userSpaceOnUse">
<stop stop-color="#A62E41"/>
<stop offset="1" stop-color="#E13152"/>
</linearGradient>
</defs>
</svg>
