<svg width="320" height="374" viewBox="0 0 320 374" fill="none" xmlns="http://www.w3.org/2000/svg">
<path fill-rule="evenodd" clip-rule="evenodd" d="M165.412 53.9743C168.072 52.5097 171.306 52.5062 173.969 53.9653L255.641 101.34C259.9 103.674 261.441 108.982 259.083 113.197C256.724 117.412 251.36 118.936 247.101 116.602L169.71 71.5739L92.4388 114.13C88.1848 116.473 82.817 114.96 80.4496 110.75C78.0821 106.54 79.6114 101.228 83.8654 98.8854L165.412 53.9743ZM169.721 250.441C174.589 250.458 178.522 254.377 178.506 259.194L178.387 293.648L246.944 255.903C251.198 253.561 256.566 255.075 258.933 259.285C261.3 263.495 259.769 268.807 255.515 271.149L178.387 314.158C171.887 317.235 167.48 317.235 160.876 314.158L83.7481 268.769C79.5263 266.37 78.0691 261.038 80.4934 256.86C82.9177 252.682 88.3055 251.24 92.5273 253.639L160.757 293.473L160.876 259.135C160.892 254.317 164.853 250.425 169.721 250.441Z" fill="url(#paint0_linear)"/>
<path fill-rule="evenodd" clip-rule="evenodd" d="M277.676 118.962C280.331 120.599 281.96 123.575 281.96 126.788V245.04C281.96 250.064 278.049 254.137 273.226 254.137C268.402 254.137 264.491 250.064 264.491 245.04V142.148L179.367 192.715V224.635C179.367 229.659 175.456 233.731 170.633 233.731C165.809 233.731 161.898 229.659 161.898 224.635V192.75L70.3586 141.189V246.454C70.3586 251.478 66.4481 255.551 61.6243 255.551C56.8005 255.551 52.89 251.478 52.89 246.454V125.928C52.89 122.723 54.5092 119.755 57.1524 118.114C59.7956 116.474 63.0728 116.403 65.7794 117.927L170.604 176.971L269.027 118.812C271.733 117.267 275.021 117.324 277.676 118.962Z" fill="url(#paint1_linear)"/>
<path fill-rule="evenodd" clip-rule="evenodd" d="M150.736 7.96805C162.213 0.9777 170.608 -3.49934 182.042 3.56099L308.53 77.6003C316.835 82.7287 320.37 91.2954 315.18 99.5009C309.989 107.706 299.102 104.629 290.798 99.5009L171.895 29.134L30.853 107.724V267.059L171.895 347.368L290.935 278.14C299.438 273.339 313.233 269.738 318.092 278.14C322.951 286.541 317.97 295.12 309.467 299.921L193.933 368.398C183.35 374.373 167.488 377.21 152.951 368.439L17.7411 291.787C6.18441 285.697 0.00865843 281.964 0.00865843 269.023L0.00946991 114.392C-0.221764 101.773 3.75703 90.1081 14.6542 84.2834L150.736 7.96805Z" fill="url(#paint2_linear)"/>
<defs>
<linearGradient id="paint0_linear" x1="79.3384" y1="180.163" x2="264.457" y2="181.576" gradientUnits="userSpaceOnUse">
<stop stop-color="#1758A0"/>
<stop offset="1" stop-color="#0A3D76"/>
</linearGradient>
<linearGradient id="paint1_linear" x1="52.8901" y1="178.289" x2="281.928" y2="181.287" gradientUnits="userSpaceOnUse">
<stop stop-color="#CD1732"/>
<stop offset="0.5" stop-color="#B6142C"/>
<stop offset="1" stop-color="#8B1022"/>
</linearGradient>
<linearGradient id="paint2_linear" x1="1.8116e-06" y1="165.696" x2="319.995" y2="167.866" gradientUnits="userSpaceOnUse">
<stop stop-color="#B6142C"/>
<stop offset="1" stop-color="#A62E41"/>
</linearGradient>
</defs>
</svg>
