<svg width="200" height="130" fill="none" xmlns="http://www.w3.org/2000/svg"><g clip-path="url(#clip0)"><g filter="url(#filter0_d)"><path d="M87.337 116.928c-1.077-3.171-.002-8.456 4.302-11.627 2.823-2.38 9.676-2.537 12.901 0 4.3 3.382 5.014 9.16 4.297 11.627l-3.222-2.114c0 6.765-4.659 13.036-7.526 14.798-6.02-3.382-7.526-11.275-7.526-14.798l-3.226 2.114z" fill="url(#paint0_linear)"/><path d="M98.078 118.364c-4.97-2.982-5.383-11.181-4.97-14.908h9.939c0 9.939-3.313 14.08-4.969 14.908z" fill="#EBB837"/><path d="M98.052 114.522c-2.981-2.012-3.23-7.545-2.981-10.06h5.963c0 6.707-1.988 9.501-2.982 10.06z" fill="#FFD18B"/><path d="M88.96 103.456l-2.012-3.018h22.132l-2.012 3.018H88.96z" fill="#71A0DD"/><path d="M90.608 105.468l-1.646-2.012h18.108l-1.647 2.012H90.608z" fill="#0A3D76"/><g filter="url(#filter1_i)"><path d="M98.427 81.325c-14.793 0-25.231 9.528-25.554 27.314-.004.211.303.301.42.125 2.776-4.19 12.346-11.344 13.59-11.344h22.198c.925 0 10.955 7.495 13.578 11.2.127.179.5.07.495-.149-.355-17.678-9.98-27.147-24.727-27.147z" fill="url(#paint1_linear)"/></g><g filter="url(#filter2_i)"><path d="M87.928 43.096c-9.672 20.679-5.381 46.61-3.027 58.347h26.232c2.354-14.084 6.645-37.669-3.027-58.347-3.142-6.718-7.063-13.078-10.09-16.096-3.027 3.018-6.946 9.378-10.088 16.096z" fill="#F5F9FF"/></g><path d="M97.65 113.007c-3.653-5.638-3.532-22.786.364-27.66 3.901 4.874 4.023 22.022.365 27.661a.43.43 0 01-.729-.001z" fill="url(#paint2_linear)"/><g filter="url(#filter3_i)"><path d="M98.017 27c-3.018 3.018-6.926 9.378-10.059 16.096 4.023-1.006 13.68-2.415 20.119 0-3.133-6.718-7.042-13.078-10.06-16.096z" fill="url(#paint3_linear)"/></g><g opacity=".7" filter="url(#filter4_f)"><path d="M90.976 41.084c-1.624 0 3.017-8.048 6.035-12.071-2.146 3.018-3.344 10.71-4.024 12.071-.11.22-1.006 0-2.01 0z" fill="#F5F9FF"/></g><g filter="url(#filter5_ii)"><circle cx="98.017" cy="58.761" r="6.352" fill="#8BE3FF"/></g><circle cx="98.017" cy="58.761" r="6.352" stroke="#00518B" stroke-width=".5"/><g opacity=".4" filter="url(#filter6_f)"><ellipse cx="98.016" cy="100.438" rx="1.006" ry="9.054" fill="#fff"/></g></g><g filter="url(#filter7_di)"><path d="M99.244 13.521c3.449 0 6.245-2.803 6.245-6.26 0-3.458-2.796-6.261-6.245-6.261C95.796 1 93 3.803 93 7.26c0 3.458 2.796 6.261 6.244 6.261z" fill="#73B3FE"/><path d="M97.022 6.445h-1.201a.348.348 0 00-.347.348v3.553c0 .192.155.348.347.348h1.201a.348.348 0 00.348-.348V6.793a.348.348 0 00-.348-.348zm6.049 1.598a.605.605 0 00-.605-.606h.066a.627.627 0 000-1.25h-2.301a2.98 2.98 0 00.695-1.79c0-1.172-.609-1.356-.924-1.356-.662 0-.314.688-.494 1.229-.094.274-.511.663-1.112 1.368a2.21 2.21 0 00-.658 1.39v3.375a.308.308 0 00.307.307h4.164a.459.459 0 00.458-.462.463.463 0 00-.458-.463h.143a.556.556 0 00.56-.334.55.55 0 000-.452.547.547 0 00-.332-.305.556.556 0 00-.228-.028h.098a.601.601 0 00.579-.382.62.62 0 00.042-.24z" fill="#73B3FE" opacity=".5"/><path d="M97.27 6.22h-1.2a.348.348 0 00-.347.348v3.552c0 .193.155.349.347.349h1.201a.348.348 0 00.348-.349V6.568a.348.348 0 00-.347-.348zm6.046 1.602a.609.609 0 00-.605-.606h.049a.626.626 0 000-1.23h-2.3a2.986 2.986 0 00.694-1.79c0-1.172-.609-1.356-.923-1.356-.662 0-.315.688-.495 1.229-.094.27-.507.664-1.111 1.368a2.21 2.21 0 00-.658 1.385v3.38a.308.308 0 00.306.308h4.164a.462.462 0 00.326-.79.466.466 0 00-.326-.136h.16a.556.556 0 00.56-.334.567.567 0 000-.451.56.56 0 00-.56-.334h.098a.602.602 0 00.585-.396.612.612 0 00.036-.247z" fill="#fff"/></g><g filter="url(#filter8_di)"><path d="M128.544 25.568a4.52 4.52 0 000-6.379 4.491 4.491 0 00-6.363 0 4.519 4.519 0 000 6.38 4.491 4.491 0 006.363 0z" fill="#73B3FE"/><path d="M123.762 21.792h-.862a.252.252 0 00-.252.252V24.6c0 .14.113.252.252.252h.862a.252.252 0 00.251-.252v-2.556a.252.252 0 00-.251-.252zm4.362 1.15a.436.436 0 00-.437-.436h.047a.447.447 0 00.447-.45.45.45 0 00-.447-.448h-1.656c.304-.364.48-.818.5-1.292 0-.847-.441-.978-.667-.978-.477 0-.226.497-.355.877-.068.194-.368.476-.8.984-.317.37-.476.684-.476 1v2.435c0 .029.006.057.017.084a.22.22 0 00.121.115.21.21 0 00.084.013h2.999a.335.335 0 00.332-.335.333.333 0 00-.332-.332h.114a.4.4 0 00.399-.242.391.391 0 000-.323.395.395 0 00-.236-.22.4.4 0 00-.163-.022h.072a.437.437 0 00.437-.43z" fill="#73B3FE" opacity=".5"/><path d="M123.936 21.63h-.861a.252.252 0 00-.252.251v2.556c0 .14.113.252.252.252h.861a.252.252 0 00.252-.252v-2.556a.252.252 0 00-.252-.252zm4.368 1.15a.436.436 0 00-.435-.437h.046a.451.451 0 00.414-.277.46.46 0 000-.344.455.455 0 00-.414-.277h-1.656c.304-.364.48-.818.501-1.292 0-.847-.442-.978-.668-.978-.477 0-.226.497-.354.877-.068.194-.368.476-.801.984-.317.37-.475.684-.475 1v2.435a.217.217 0 00.065.154.216.216 0 00.157.058h2.986a.334.334 0 00.332-.335.336.336 0 00-.332-.324h.114a.4.4 0 00.399-.242.408.408 0 000-.323.396.396 0 00-.236-.22.4.4 0 00-.163-.022h.072a.442.442 0 00.414-.268.451.451 0 00.034-.17z" fill="#fff"/></g><g filter="url(#filter9_di)"><path d="M72.37 37.514a5.237 5.237 0 00-3.876-6.305 5.223 5.223 0 00-6.288 3.886 5.237 5.237 0 003.876 6.305 5.223 5.223 0 006.288-3.886z" fill="#FE5F71"/><path d="M67.21 35.186a1.599 1.599 0 00-1.783-.913 1.595 1.595 0 00-1.27 1.552c0 1.924 2.241 3.596 3.053 3.596.811 0 3.053-1.69 3.053-3.596a1.604 1.604 0 00-1.27-1.552 1.593 1.593 0 00-1.783.913z" fill="#FE5F71" opacity=".5"/><path d="M67.369 34.926a1.598 1.598 0 00-1.785-.913 1.596 1.596 0 00-1.269 1.556c0 1.919 2.242 3.596 3.054 3.596.811 0 3.057-1.695 3.057-3.596a1.603 1.603 0 00-1.268-1.566 1.593 1.593 0 00-1.79.923z" fill="#fff"/></g><g filter="url(#filter10_di)"><path d="M119.811 14.715c.657-4.049-2.084-7.864-6.122-8.523-4.037-.658-7.843 2.09-8.5 6.138s2.084 7.863 6.122 8.522c4.037.659 7.843-2.09 8.5-6.137z" fill="#FE5F71"/><path d="M112.401 11.947a2.257 2.257 0 00-3.823-.53 2.274 2.274 0 00-.511 1.426c0 2.687 3.19 5.124 4.334 5.124 1.143 0 4.333-2.401 4.333-5.124a2.268 2.268 0 00-1.804-2.212 2.254 2.254 0 00-2.529 1.316z" fill="#FE5F71" opacity=".5"/><path d="M112.62 11.588a2.257 2.257 0 00-3.822-.53 2.268 2.268 0 00-.511 1.426c0 2.688 3.199 5.133 4.333 5.133 1.135 0 4.334-2.4 4.334-5.133a2.274 2.274 0 00-.511-1.426 2.258 2.258 0 00-3.823.53z" fill="#fff"/></g><g filter="url(#filter11_di)"><path d="M84.5 18.034c3.59 0 6.5-2.918 6.5-6.517C91 7.917 88.09 5 84.5 5S78 7.918 78 11.517c0 3.6 2.91 6.517 6.5 6.517z" fill="#FE5F71"/><path d="M84.399 10.128a1.99 1.99 0 00-2.223-1.139 1.986 1.986 0 00-1.58 1.938c0 2.392 2.798 4.497 3.803 4.497S88.2 13.32 88.2 10.927a1.995 1.995 0 00-1.58-1.938 1.983 1.983 0 00-2.222 1.14z" fill="#FE5F71" opacity=".5"/><path d="M84.6 9.815a1.986 1.986 0 00-2.223-1.146 1.982 1.982 0 00-1.575 1.945c0 2.391 2.797 4.497 3.797 4.497s3.803-2.106 3.803-4.497a1.996 1.996 0 00-1.58-1.938A1.983 1.983 0 0084.6 9.815z" fill="#fff"/></g><g filter="url(#filter12_di)"><path d="M82.478 37c4.682 0 8.478-3.806 8.478-8.5S87.16 20 82.478 20 74 23.806 74 28.5s3.796 8.5 8.478 8.5z" fill="#FE5F71"/><path d="M82.342 26.665a2.586 2.586 0 00-4.427-.609 2.604 2.604 0 00-.556 1.675c0 3.119 3.655 5.865 4.96 5.865 1.304 0 4.959-2.746 4.959-5.865a2.603 2.603 0 00-.589-1.607 2.59 2.59 0 00-3.151-.68c-.525.26-.946.69-1.196 1.221z" fill="#FE5F71" opacity=".5"/><path d="M82.608 26.28a2.586 2.586 0 00-4.374-.587 2.603 2.603 0 00-.586 1.629c0 3.12 3.655 5.866 4.96 5.866 1.304 0 4.959-2.747 4.959-5.866a2.603 2.603 0 00-.585-1.629 2.59 2.59 0 00-3.187-.67 2.603 2.603 0 00-1.187 1.257z" fill="#fff"/></g><g filter="url(#filter13_di)"><path d="M128.5 39.023c2.485 0 4.5-2.02 4.5-4.511A4.506 4.506 0 00128.5 30c-2.485 0-4.5 2.02-4.5 4.512a4.506 4.506 0 004.5 4.511z" fill="#FE5F71"/><path d="M128.43 33.547a1.377 1.377 0 00-1.539-.789 1.378 1.378 0 00-1.093 1.342c0 1.656 1.936 3.114 2.632 3.114.696 0 2.632-1.458 2.632-3.114a1.376 1.376 0 00-2.632-.553z" fill="#FE5F71" opacity=".5"/><path d="M128.57 33.333a1.379 1.379 0 00-1.539-.788 1.375 1.375 0 00-1.093 1.341c0 1.656 1.936 3.114 2.632 3.114.695 0 2.645-1.458 2.645-3.098a1.384 1.384 0 00-1.087-1.386 1.37 1.37 0 00-1.558.817z" fill="#fff"/></g><g filter="url(#filter14_di)"><path d="M98.178 24.372a3.182 3.182 0 003.177-3.186A3.182 3.182 0 0098.178 18 3.182 3.182 0 0095 21.186a3.182 3.182 0 003.178 3.186z" fill="#73B3FE"/><path d="M97.046 20.771h-.607a.178.178 0 00-.178.179v1.805c0 .098.08.178.178.178h.608c.098 0 .177-.08.177-.178V20.95a.178.178 0 00-.178-.179zm3.081.807a.307.307 0 00-.307-.309h.032a.316.316 0 00.317-.317.32.32 0 00-.317-.318H98.68c.215-.256.34-.576.354-.91 0-.596-.31-.695-.462-.695-.335 0-.157.35-.25.619a4.115 4.115 0 01-.566.695 1.13 1.13 0 00-.335.706v1.72a.156.156 0 00.157.155h2.117a.23.23 0 00.163-.396.23.23 0 00-.163-.068h.083a.284.284 0 00.284-.285.284.284 0 00-.284-.285h.051a.308.308 0 00.298-.313z" fill="#73B3FE" opacity=".5"/><path d="M97.171 20.655h-.607a.178.178 0 00-.178.179v1.805c0 .098.08.178.178.178h.608c.098 0 .177-.08.177-.178v-1.805a.178.178 0 00-.178-.179zm3.08.814a.307.307 0 00-.307-.309h.032a.316.316 0 00.317-.317.32.32 0 00-.317-.317h-1.172c.215-.257.34-.578.354-.913 0-.596-.31-.695-.462-.695-.335 0-.157.352-.25.618a3.999 3.999 0 01-.566.695c-.19.185-.309.431-.335.695v1.72a.158.158 0 00.157.157h2.117a.231.231 0 000-.463h.083a.286.286 0 00.261-.286.289.289 0 00-.26-.287h.05a.306.306 0 00.298-.298z" fill="#fff"/></g><g filter="url(#filter15_di)"><path d="M124.745 45.421c.746-3.155-1.199-6.319-4.346-7.066-3.146-.749-6.302 1.202-7.048 4.357-.746 3.155 1.2 6.319 4.346 7.067a5.854 5.854 0 007.048-4.358z" fill="#73B3FE"/><path d="M116.959 43.303h-1.126a.325.325 0 00-.324.326v3.337c0 .179.145.325.324.325h1.126a.325.325 0 00.324-.325v-3.337a.325.325 0 00-.324-.326zm5.679 1.497a.564.564 0 00-.351-.527.57.57 0 00-.218-.043h.061a.584.584 0 000-1.165h-2.159a2.803 2.803 0 00.654-1.682c0-1.098-.575-1.276-.868-1.276-.612 0-.294.65-.465 1.141a7.235 7.235 0 01-1.041 1.282 2.072 2.072 0 00-.611 1.3v3.172a.288.288 0 00.287.289h3.904a.433.433 0 00.401-.603.442.442 0 00-.235-.235.433.433 0 00-.166-.034h.134a.524.524 0 00.47-.524.527.527 0 00-.47-.524h.092a.57.57 0 00.581-.57z" fill="#73B3FE" opacity=".5"/><path d="M117.192 43.089h-1.126a.325.325 0 00-.324.325v3.33c0 .18.145.326.324.326h1.126a.324.324 0 00.324-.325v-3.331a.325.325 0 00-.324-.325zm5.671 1.497a.568.568 0 00-.563-.565h.061a.608.608 0 00.43-.586.61.61 0 00-.43-.586h-2.16a2.798 2.798 0 00.655-1.68c0-1.098-.575-1.27-.869-1.27-.612 0-.294.644-.465 1.135a7.2 7.2 0 01-1.04 1.288 2.055 2.055 0 00-.612 1.3v3.166a.288.288 0 00.288.288h3.903a.433.433 0 00.401-.601.437.437 0 00-.235-.233.43.43 0 00-.166-.031h.147a.525.525 0 00.526-.527.527.527 0 00-.526-.528h.098a.56.56 0 00.516-.354.573.573 0 00.041-.216z" fill="#fff"/></g><g filter="url(#filter16_di)"><path d="M74.717 19.971a4.562 4.562 0 00-3.761-5.238 4.553 4.553 0 00-5.224 3.771 4.562 4.562 0 003.76 5.238 4.553 4.553 0 005.225-3.77z" fill="#73B3FE"/><path d="M68.602 18.635h-.875a.252.252 0 00-.252.253v2.59c0 .139.113.252.252.252h.875a.252.252 0 00.252-.253v-2.59a.252.252 0 00-.252-.252zm4.414 1.164a.444.444 0 00-.443-.439h.048a.476.476 0 000-.91h-1.679c.309-.368.488-.828.509-1.307 0-.854-.447-.988-.675-.988-.476 0-.229.501-.362.883-.23.363-.502.7-.808 1.001a1.598 1.598 0 00-.476 1.006v2.466a.224.224 0 00.223.224h3.035a.337.337 0 00.129-.649.33.33 0 00-.13-.024h.12a.409.409 0 00.409-.41.41.41 0 00-.41-.41h.091a.442.442 0 00.419-.443z" fill="#73B3FE" opacity=".5"/><path d="M68.781 18.473h-.875a.252.252 0 00-.252.253v2.594c0 .14.113.253.252.253h.875c.14 0 .253-.114.253-.253v-2.594a.252.252 0 00-.253-.253zm4.411 1.164a.444.444 0 00-.438-.444h.048a.476.476 0 00.242-.738.476.476 0 00-.242-.173h-1.679c.315-.365.499-.825.523-1.306 0-.854-.442-.987-.67-.987-.476 0-.229.505-.362.887a5.838 5.838 0 01-.808.996c-.274.27-.443.628-.476 1.011v2.46a.224.224 0 00.224.225h3.034a.333.333 0 00.333-.334.334.334 0 00-.333-.339h.114a.408.408 0 00.41-.41.41.41 0 00-.41-.41h.076a.437.437 0 00.414-.438z" fill="#fff"/></g><g filter="url(#filter17_di)"><path d="M116.069 33.1a5.714 5.714 0 000-8.067 5.679 5.679 0 00-8.046 0 5.714 5.714 0 000 8.067 5.679 5.679 0 008.046 0z" fill="#FE5F71"/><path d="M111.957 27.852a1.74 1.74 0 00-3.328.699c0 2.096 2.451 3.935 3.328 3.935.878 0 3.329-1.84 3.329-3.935a1.748 1.748 0 00-1.383-1.696 1.737 1.737 0 00-1.946.997z" fill="#FE5F71" opacity=".5"/><path d="M112.135 27.58a1.744 1.744 0 00-1.945-.997 1.74 1.74 0 00-1.383 1.696c0 2.091 2.451 3.935 3.328 3.935.877 0 3.328-1.844 3.328-3.935a1.74 1.74 0 00-3.328-.699z" fill="#fff"/></g><g filter="url(#filter18_di)"><path d="M82.703 50.75a6.022 6.022 0 000-8.5 5.984 5.984 0 00-8.478 0 6.022 6.022 0 000 8.5 5.984 5.984 0 008.478 0z" fill="#73B3FE"/><path d="M76.335 45.72H75.18a.334.334 0 00-.333.335v3.41c0 .185.149.335.333.335h1.154c.184 0 .333-.15.333-.334v-3.41a.334.334 0 00-.333-.335zm5.809 1.531a.583.583 0 00-.58-.582h.062a.595.595 0 00.693-.59.599.599 0 00-.693-.59h-2.208a2.88 2.88 0 00.667-1.723c0-1.121-.589-1.302-.891-1.302-.632 0-.298.665-.47 1.18-.091.26-.491.637-1.068 1.314a2.107 2.107 0 00-.632 1.33v3.245a.295.295 0 00.295.294h3.994a.442.442 0 00.443-.468.445.445 0 00-.443-.444h.14a.537.537 0 00.538-.539.54.54 0 00-.537-.539h.094a.579.579 0 00.596-.586z" fill="#73B3FE" opacity=".5"/><path d="M76.567 45.505h-1.153a.334.334 0 00-.334.334v3.41c0 .185.15.335.334.335h1.153c.184 0 .334-.15.334-.335v-3.41a.334.334 0 00-.334-.334zm5.807 1.53a.583.583 0 00-.58-.582h.046a.596.596 0 00.5-.59.599.599 0 00-.5-.59h-2.193c.406-.485.64-1.09.667-1.723 0-1.125-.584-1.302-.887-1.302-.635 0-.302.66-.474 1.18-.09.26-.49.633-1.067 1.314a2.107 2.107 0 00-.632 1.33v3.244a.3.3 0 00.294.295h3.998a.443.443 0 00.44-.444.443.443 0 00-.44-.445h.153a.537.537 0 00.538-.538.54.54 0 00-.538-.54h.094a.579.579 0 00.58-.61z" fill="#fff"/></g></g><defs><filter id="filter0_d" x="67.873" y="25" width="58.281" height="110.612" filterUnits="userSpaceOnUse" color-interpolation-filters="sRGB"><feFlood flood-opacity="0" result="BackgroundImageFix"/><feColorMatrix in="SourceAlpha" values="0 0 0 0 0 0 0 0 0 0 0 0 0 0 0 0 0 0 127 0"/><feOffset dx="-1" dy="2"/><feGaussianBlur stdDeviation="2"/><feColorMatrix values="0 0 0 0 0 0 0 0 0 0 0 0 0 0 0 0 0 0 0.15 0"/><feBlend in2="BackgroundImageFix" result="effect1_dropShadow"/><feBlend in="SourceGraphic" in2="effect1_dropShadow" result="shape"/></filter><filter id="filter1_i" x="72.873" y="80.924" width="50.281" height="27.933" filterUnits="userSpaceOnUse" color-interpolation-filters="sRGB"><feFlood flood-opacity="0" result="BackgroundImageFix"/><feBlend in="SourceGraphic" in2="BackgroundImageFix" result="shape"/><feColorMatrix in="SourceAlpha" values="0 0 0 0 0 0 0 0 0 0 0 0 0 0 0 0 0 0 127 0" result="hardAlpha"/><feOffset dy="-.4"/><feGaussianBlur stdDeviation=".5"/><feComposite in2="hardAlpha" operator="arithmetic" k2="-1" k3="1"/><feColorMatrix values="0 0 0 0 0 0 0 0 0 0 0 0 0 0 0 0 0 0 0.5 0"/><feBlend in2="shape" result="effect1_innerShadow"/></filter><filter id="filter2_i" x="80.893" y="27" width="33.249" height="74.443" filterUnits="userSpaceOnUse" color-interpolation-filters="sRGB"><feFlood flood-opacity="0" result="BackgroundImageFix"/><feBlend in="SourceGraphic" in2="BackgroundImageFix" result="shape"/><feColorMatrix in="SourceAlpha" values="0 0 0 0 0 0 0 0 0 0 0 0 0 0 0 0 0 0 127 0" result="hardAlpha"/><feOffset dx="-1"/><feGaussianBlur stdDeviation="1"/><feComposite in2="hardAlpha" operator="arithmetic" k2="-1" k3="1"/><feColorMatrix values="0 0 0 0 0 0 0 0 0 0 0 0 0 0 0 0 0 0 0.3 0"/><feBlend in2="shape" result="effect1_innerShadow"/></filter><filter id="filter3_i" x="87.458" y="27" width="20.619" height="16.096" filterUnits="userSpaceOnUse" color-interpolation-filters="sRGB"><feFlood flood-opacity="0" result="BackgroundImageFix"/><feBlend in="SourceGraphic" in2="BackgroundImageFix" result="shape"/><feColorMatrix in="SourceAlpha" values="0 0 0 0 0 0 0 0 0 0 0 0 0 0 0 0 0 0 127 0" result="hardAlpha"/><feOffset dx="-.5"/><feGaussianBlur stdDeviation=".5"/><feComposite in2="hardAlpha" operator="arithmetic" k2="-1" k3="1"/><feColorMatrix values="0 0 0 0 0 0 0 0 0 0 0 0 0 0 0 0 0 0 0.5 0"/><feBlend in2="shape" result="effect1_innerShadow"/></filter><filter id="filter4_f" x="89.641" y="28.013" width="8.37" height="14.169" filterUnits="userSpaceOnUse" color-interpolation-filters="sRGB"><feFlood flood-opacity="0" result="BackgroundImageFix"/><feBlend in="SourceGraphic" in2="BackgroundImageFix" result="shape"/><feGaussianBlur stdDeviation=".5" result="effect1_foregroundBlur"/></filter><filter id="filter5_ii" x="90.915" y="51.659" width="14.204" height="14.204" filterUnits="userSpaceOnUse" color-interpolation-filters="sRGB"><feFlood flood-opacity="0" result="BackgroundImageFix"/><feBlend in="SourceGraphic" in2="BackgroundImageFix" result="shape"/><feColorMatrix in="SourceAlpha" values="0 0 0 0 0 0 0 0 0 0 0 0 0 0 0 0 0 0 127 0" result="hardAlpha"/><feOffset dx="-.5" dy="-.5"/><feGaussianBlur stdDeviation=".5"/><feComposite in2="hardAlpha" operator="arithmetic" k2="-1" k3="1"/><feColorMatrix values="0 0 0 0 0 0 0 0 0 0 0 0 0 0 0 0 0 0 0.5 0"/><feBlend in2="shape" result="effect1_innerShadow"/><feColorMatrix in="SourceAlpha" values="0 0 0 0 0 0 0 0 0 0 0 0 0 0 0 0 0 0 127 0" result="hardAlpha"/><feOffset dx=".5" dy=".5"/><feGaussianBlur stdDeviation=".5"/><feComposite in2="hardAlpha" operator="arithmetic" k2="-1" k3="1"/><feColorMatrix values="0 0 0 0 0 0 0 0 0 0 0 0 0 0 0 0 0 0 0.5 0"/><feBlend in2="effect1_innerShadow" result="effect2_innerShadow"/></filter><filter id="filter6_f" x="96.01" y="90.384" width="4.012" height="20.108" filterUnits="userSpaceOnUse" color-interpolation-filters="sRGB"><feFlood flood-opacity="0" result="BackgroundImageFix"/><feBlend in="SourceGraphic" in2="BackgroundImageFix" result="shape"/><feGaussianBlur stdDeviation=".5" result="effect1_foregroundBlur"/></filter><filter id="filter7_di" x="91" y="-1" width="20.489" height="20.521" filterUnits="userSpaceOnUse" color-interpolation-filters="sRGB"><feFlood flood-opacity="0" result="BackgroundImageFix"/><feColorMatrix in="SourceAlpha" values="0 0 0 0 0 0 0 0 0 0 0 0 0 0 0 0 0 0 127 0"/><feOffset dx="2" dy="2"/><feGaussianBlur stdDeviation="2"/><feColorMatrix values="0 0 0 0 0 0 0 0 0 0 0 0 0 0 0 0 0 0 0.15 0"/><feBlend in2="BackgroundImageFix" result="effect1_dropShadow"/><feBlend in="SourceGraphic" in2="effect1_dropShadow" result="shape"/><feColorMatrix in="SourceAlpha" values="0 0 0 0 0 0 0 0 0 0 0 0 0 0 0 0 0 0 127 0" result="hardAlpha"/><feOffset dx="-1" dy="-1"/><feGaussianBlur stdDeviation="1"/><feComposite in2="hardAlpha" operator="arithmetic" k2="-1" k3="1"/><feColorMatrix values="0 0 0 0 0 0 0 0 0 0 0 0 0 0 0 0 0 0 0.15 0"/><feBlend in2="shape" result="effect2_innerShadow"/></filter><filter id="filter8_di" x="118.863" y="15.868" width="16.998" height="17.021" filterUnits="userSpaceOnUse" color-interpolation-filters="sRGB"><feFlood flood-opacity="0" result="BackgroundImageFix"/><feColorMatrix in="SourceAlpha" values="0 0 0 0 0 0 0 0 0 0 0 0 0 0 0 0 0 0 127 0"/><feOffset dx="2" dy="2"/><feGaussianBlur stdDeviation="2"/><feColorMatrix values="0 0 0 0 0 0 0 0 0 0 0 0 0 0 0 0 0 0 0.15 0"/><feBlend in2="BackgroundImageFix" result="effect1_dropShadow"/><feBlend in="SourceGraphic" in2="effect1_dropShadow" result="shape"/><feColorMatrix in="SourceAlpha" values="0 0 0 0 0 0 0 0 0 0 0 0 0 0 0 0 0 0 127 0" result="hardAlpha"/><feOffset dx="-1" dy="-1"/><feGaussianBlur stdDeviation="1"/><feComposite in2="hardAlpha" operator="arithmetic" k2="-1" k3="1"/><feColorMatrix values="0 0 0 0 0 0 0 0 0 0 0 0 0 0 0 0 0 0 0.15 0"/><feBlend in2="shape" result="effect2_innerShadow"/></filter><filter id="filter9_di" x="60.063" y="29.066" width="18.449" height="18.476" filterUnits="userSpaceOnUse" color-interpolation-filters="sRGB"><feFlood flood-opacity="0" result="BackgroundImageFix"/><feColorMatrix in="SourceAlpha" values="0 0 0 0 0 0 0 0 0 0 0 0 0 0 0 0 0 0 127 0"/><feOffset dx="2" dy="2"/><feGaussianBlur stdDeviation="2"/><feColorMatrix values="0 0 0 0 0 0 0 0 0 0 0 0 0 0 0 0 0 0 0.15 0"/><feBlend in2="BackgroundImageFix" result="effect1_dropShadow"/><feBlend in="SourceGraphic" in2="effect1_dropShadow" result="shape"/><feColorMatrix in="SourceAlpha" values="0 0 0 0 0 0 0 0 0 0 0 0 0 0 0 0 0 0 127 0" result="hardAlpha"/><feOffset dx="-1" dy="-1"/><feGaussianBlur stdDeviation="1"/><feComposite in2="hardAlpha" operator="arithmetic" k2="-1" k3="1"/><feColorMatrix values="0 0 0 0 0 0 0 0 0 0 0 0 0 0 0 0 0 0 0.15 0"/><feBlend in2="shape" result="effect2_innerShadow"/></filter><filter id="filter10_di" x="103.092" y="4.095" width="22.816" height="22.855" filterUnits="userSpaceOnUse" color-interpolation-filters="sRGB"><feFlood flood-opacity="0" result="BackgroundImageFix"/><feColorMatrix in="SourceAlpha" values="0 0 0 0 0 0 0 0 0 0 0 0 0 0 0 0 0 0 127 0"/><feOffset dx="2" dy="2"/><feGaussianBlur stdDeviation="2"/><feColorMatrix values="0 0 0 0 0 0 0 0 0 0 0 0 0 0 0 0 0 0 0.15 0"/><feBlend in2="BackgroundImageFix" result="effect1_dropShadow"/><feBlend in="SourceGraphic" in2="effect1_dropShadow" result="shape"/><feColorMatrix in="SourceAlpha" values="0 0 0 0 0 0 0 0 0 0 0 0 0 0 0 0 0 0 127 0" result="hardAlpha"/><feOffset dx="-1" dy="-1"/><feGaussianBlur stdDeviation="1"/><feComposite in2="hardAlpha" operator="arithmetic" k2="-1" k3="1"/><feColorMatrix values="0 0 0 0 0 0 0 0 0 0 0 0 0 0 0 0 0 0 0.15 0"/><feBlend in2="shape" result="effect2_innerShadow"/></filter><filter id="filter11_di" x="76" y="3" width="21" height="21.034" filterUnits="userSpaceOnUse" color-interpolation-filters="sRGB"><feFlood flood-opacity="0" result="BackgroundImageFix"/><feColorMatrix in="SourceAlpha" values="0 0 0 0 0 0 0 0 0 0 0 0 0 0 0 0 0 0 127 0"/><feOffset dx="2" dy="2"/><feGaussianBlur stdDeviation="2"/><feColorMatrix values="0 0 0 0 0 0 0 0 0 0 0 0 0 0 0 0 0 0 0.15 0"/><feBlend in2="BackgroundImageFix" result="effect1_dropShadow"/><feBlend in="SourceGraphic" in2="effect1_dropShadow" result="shape"/><feColorMatrix in="SourceAlpha" values="0 0 0 0 0 0 0 0 0 0 0 0 0 0 0 0 0 0 127 0" result="hardAlpha"/><feOffset dx="-1" dy="-1"/><feGaussianBlur stdDeviation="1"/><feComposite in2="hardAlpha" operator="arithmetic" k2="-1" k3="1"/><feColorMatrix values="0 0 0 0 0 0 0 0 0 0 0 0 0 0 0 0 0 0 0.15 0"/><feBlend in2="shape" result="effect2_innerShadow"/></filter><filter id="filter12_di" x="72" y="18" width="24.956" height="25" filterUnits="userSpaceOnUse" color-interpolation-filters="sRGB"><feFlood flood-opacity="0" result="BackgroundImageFix"/><feColorMatrix in="SourceAlpha" values="0 0 0 0 0 0 0 0 0 0 0 0 0 0 0 0 0 0 127 0"/><feOffset dx="2" dy="2"/><feGaussianBlur stdDeviation="2"/><feColorMatrix values="0 0 0 0 0 0 0 0 0 0 0 0 0 0 0 0 0 0 0.15 0"/><feBlend in2="BackgroundImageFix" result="effect1_dropShadow"/><feBlend in="SourceGraphic" in2="effect1_dropShadow" result="shape"/><feColorMatrix in="SourceAlpha" values="0 0 0 0 0 0 0 0 0 0 0 0 0 0 0 0 0 0 127 0" result="hardAlpha"/><feOffset dx="-1" dy="-1"/><feGaussianBlur stdDeviation="1"/><feComposite in2="hardAlpha" operator="arithmetic" k2="-1" k3="1"/><feColorMatrix values="0 0 0 0 0 0 0 0 0 0 0 0 0 0 0 0 0 0 0.15 0"/><feBlend in2="shape" result="effect2_innerShadow"/></filter><filter id="filter13_di" x="122" y="28" width="17" height="17.023" filterUnits="userSpaceOnUse" color-interpolation-filters="sRGB"><feFlood flood-opacity="0" result="BackgroundImageFix"/><feColorMatrix in="SourceAlpha" values="0 0 0 0 0 0 0 0 0 0 0 0 0 0 0 0 0 0 127 0"/><feOffset dx="2" dy="2"/><feGaussianBlur stdDeviation="2"/><feColorMatrix values="0 0 0 0 0 0 0 0 0 0 0 0 0 0 0 0 0 0 0.15 0"/><feBlend in2="BackgroundImageFix" result="effect1_dropShadow"/><feBlend in="SourceGraphic" in2="effect1_dropShadow" result="shape"/><feColorMatrix in="SourceAlpha" values="0 0 0 0 0 0 0 0 0 0 0 0 0 0 0 0 0 0 127 0" result="hardAlpha"/><feOffset dx="-1" dy="-1"/><feGaussianBlur stdDeviation="1"/><feComposite in2="hardAlpha" operator="arithmetic" k2="-1" k3="1"/><feColorMatrix values="0 0 0 0 0 0 0 0 0 0 0 0 0 0 0 0 0 0 0.15 0"/><feBlend in2="shape" result="effect2_innerShadow"/></filter><filter id="filter14_di" x="93" y="16" width="14.355" height="14.372" filterUnits="userSpaceOnUse" color-interpolation-filters="sRGB"><feFlood flood-opacity="0" result="BackgroundImageFix"/><feColorMatrix in="SourceAlpha" values="0 0 0 0 0 0 0 0 0 0 0 0 0 0 0 0 0 0 127 0"/><feOffset dx="2" dy="2"/><feGaussianBlur stdDeviation="2"/><feColorMatrix values="0 0 0 0 0 0 0 0 0 0 0 0 0 0 0 0 0 0 0.15 0"/><feBlend in2="BackgroundImageFix" result="effect1_dropShadow"/><feBlend in="SourceGraphic" in2="effect1_dropShadow" result="shape"/><feColorMatrix in="SourceAlpha" values="0 0 0 0 0 0 0 0 0 0 0 0 0 0 0 0 0 0 127 0" result="hardAlpha"/><feOffset dx="-1" dy="-1"/><feGaussianBlur stdDeviation="1"/><feComposite in2="hardAlpha" operator="arithmetic" k2="-1" k3="1"/><feColorMatrix values="0 0 0 0 0 0 0 0 0 0 0 0 0 0 0 0 0 0 0.15 0"/><feBlend in2="shape" result="effect2_innerShadow"/></filter><filter id="filter15_di" x="111.191" y="36.195" width="19.713" height="19.744" filterUnits="userSpaceOnUse" color-interpolation-filters="sRGB"><feFlood flood-opacity="0" result="BackgroundImageFix"/><feColorMatrix in="SourceAlpha" values="0 0 0 0 0 0 0 0 0 0 0 0 0 0 0 0 0 0 127 0"/><feOffset dx="2" dy="2"/><feGaussianBlur stdDeviation="2"/><feColorMatrix values="0 0 0 0 0 0 0 0 0 0 0 0 0 0 0 0 0 0 0.15 0"/><feBlend in2="BackgroundImageFix" result="effect1_dropShadow"/><feBlend in="SourceGraphic" in2="effect1_dropShadow" result="shape"/><feColorMatrix in="SourceAlpha" values="0 0 0 0 0 0 0 0 0 0 0 0 0 0 0 0 0 0 127 0" result="hardAlpha"/><feOffset dx="-1" dy="-1"/><feGaussianBlur stdDeviation="1"/><feComposite in2="hardAlpha" operator="arithmetic" k2="-1" k3="1"/><feColorMatrix values="0 0 0 0 0 0 0 0 0 0 0 0 0 0 0 0 0 0 0.15 0"/><feBlend in2="shape" result="effect2_innerShadow"/></filter><filter id="filter16_di" x="63.672" y="12.674" width="17.105" height="17.128" filterUnits="userSpaceOnUse" color-interpolation-filters="sRGB"><feFlood flood-opacity="0" result="BackgroundImageFix"/><feColorMatrix in="SourceAlpha" values="0 0 0 0 0 0 0 0 0 0 0 0 0 0 0 0 0 0 127 0"/><feOffset dx="2" dy="2"/><feGaussianBlur stdDeviation="2"/><feColorMatrix values="0 0 0 0 0 0 0 0 0 0 0 0 0 0 0 0 0 0 0.15 0"/><feBlend in2="BackgroundImageFix" result="effect1_dropShadow"/><feBlend in="SourceGraphic" in2="effect1_dropShadow" result="shape"/><feColorMatrix in="SourceAlpha" values="0 0 0 0 0 0 0 0 0 0 0 0 0 0 0 0 0 0 127 0" result="hardAlpha"/><feOffset dx="-1" dy="-1"/><feGaussianBlur stdDeviation="1"/><feComposite in2="hardAlpha" operator="arithmetic" k2="-1" k3="1"/><feColorMatrix values="0 0 0 0 0 0 0 0 0 0 0 0 0 0 0 0 0 0 0.15 0"/><feBlend in2="shape" result="effect2_innerShadow"/></filter><filter id="filter17_di" x="104.356" y="21.363" width="19.379" height="19.408" filterUnits="userSpaceOnUse" color-interpolation-filters="sRGB"><feFlood flood-opacity="0" result="BackgroundImageFix"/><feColorMatrix in="SourceAlpha" values="0 0 0 0 0 0 0 0 0 0 0 0 0 0 0 0 0 0 127 0"/><feOffset dx="2" dy="2"/><feGaussianBlur stdDeviation="2"/><feColorMatrix values="0 0 0 0 0 0 0 0 0 0 0 0 0 0 0 0 0 0 0.15 0"/><feBlend in2="BackgroundImageFix" result="effect1_dropShadow"/><feBlend in="SourceGraphic" in2="effect1_dropShadow" result="shape"/><feColorMatrix in="SourceAlpha" values="0 0 0 0 0 0 0 0 0 0 0 0 0 0 0 0 0 0 127 0" result="hardAlpha"/><feOffset dx="-1" dy="-1"/><feGaussianBlur stdDeviation="1"/><feComposite in2="hardAlpha" operator="arithmetic" k2="-1" k3="1"/><feColorMatrix values="0 0 0 0 0 0 0 0 0 0 0 0 0 0 0 0 0 0 0.15 0"/><feBlend in2="shape" result="effect2_innerShadow"/></filter><filter id="filter18_di" x="70.47" y="38.49" width="19.989" height="20.021" filterUnits="userSpaceOnUse" color-interpolation-filters="sRGB"><feFlood flood-opacity="0" result="BackgroundImageFix"/><feColorMatrix in="SourceAlpha" values="0 0 0 0 0 0 0 0 0 0 0 0 0 0 0 0 0 0 127 0"/><feOffset dx="2" dy="2"/><feGaussianBlur stdDeviation="2"/><feColorMatrix values="0 0 0 0 0 0 0 0 0 0 0 0 0 0 0 0 0 0 0.15 0"/><feBlend in2="BackgroundImageFix" result="effect1_dropShadow"/><feBlend in="SourceGraphic" in2="effect1_dropShadow" result="shape"/><feColorMatrix in="SourceAlpha" values="0 0 0 0 0 0 0 0 0 0 0 0 0 0 0 0 0 0 127 0" result="hardAlpha"/><feOffset dx="-1" dy="-1"/><feGaussianBlur stdDeviation="1"/><feComposite in2="hardAlpha" operator="arithmetic" k2="-1" k3="1"/><feColorMatrix values="0 0 0 0 0 0 0 0 0 0 0 0 0 0 0 0 0 0 0.15 0"/><feBlend in2="shape" result="effect2_innerShadow"/></filter><linearGradient id="paint0_linear" x1="98.014" y1="103.457" x2="98.014" y2="129.612" gradientUnits="userSpaceOnUse"><stop stop-color="#FDAA40"/><stop offset="1" stop-color="#DA3F05"/></linearGradient><linearGradient id="paint1_linear" x1="121.614" y1="95.408" x2="74.401" y2="93.598" gradientUnits="userSpaceOnUse"><stop stop-color="#A62E41"/><stop offset="1" stop-color="#E13152"/></linearGradient><linearGradient id="paint2_linear" x1="100.848" y1="99.431" x2="95.174" y2="99.405" gradientUnits="userSpaceOnUse"><stop stop-color="#A62E41"/><stop offset="1" stop-color="#E13152"/></linearGradient><linearGradient id="paint3_linear" x1="107.457" y1="35.048" x2="88.558" y2="34.541" gradientUnits="userSpaceOnUse"><stop stop-color="#A62E41"/><stop offset="1" stop-color="#E13152"/></linearGradient><clipPath id="clip0"><path fill="#fff" d="M0 0h200v130H0z"/></clipPath></defs></svg>