<svg width="200" height="130" fill="none" xmlns="http://www.w3.org/2000/svg"><g clip-path="url(#clip0)"><path d="M68.235 106.404c-.183 1.042-.188 1.802-.371 2.937.425.81.315 5.522.315 5.522 12.655 5.037 64.052.652 64.181-1.631-.36-14.213-3.596-19.755-9.52-29.493l-46.322-.414-3.937 3.534s-2.232 7.598-4.346 19.545z" fill="#B4D1FA"/><path d="M102.334 85.516c-.047.023-.188.163-.4.441-.282.371-.729.928-1.246 1.648a860.824 860.824 0 00-5.337 7.309c-1.27 1.763-2.21 3.062-2.21 3.062S76.561 85.378 76.55 83.32c-.008-1.387 2.778-7.436 2.778-7.436s16.24 6.61 21.416 8.876c1.045.458 1.639.756 1.591.756z" fill="#D1E4FF"/><path d="M122.895 83.747c-.181 1.574-13.802 14.146-13.802 14.146s-.883-1.106-2.123-2.65c-1.861-2.327-4.556-5.645-6.273-7.672-.906-1.083-1.55-1.797-1.644-1.82-.048-.022.236-.185.755-.488.26-.14.59-.327.968-.537 4.747-2.565 17.621-9.052 17.621-9.052s4.655 6.5 4.498 8.073z" fill="#D1E4FF"/><path d="M106.953 95.266c-.865 1.946-1.921 3.615-2.932 4.798L106.552 118l-3.5 6.5L97 118l1.552-18.119s-2.482-3.687-3.2-4.979a880.135 880.135 0 015.333-7.306c1.716 2.027 4.409 5.343 6.268 7.67z" fill="url(#paint0_linear)"/><path d="M83.39 23.776s-1.91 8.31-3.523 18.469c-.364 2.314-3.186 1.262-3.477 3.692-.203 1.573 1.855 9.01 1.676 10.584-1.18 11.567-.77 20.052 3.594 21.86 9.89 4.12 23.209 8.085 37.176-1.133 2.709-1.792 2.397-9.838.894-19.197-.37-2.38.339-9.853-.174-12.325-2.662-13.054-7.705-21.149-8.255-22.095-1.029-1.822-27.428-2.077-27.91.145z" fill="#FFCFA3"/><path d="M80.092 77.205s6.458 7.784 12.217 9.933c5.233 1.953 12.089 1.175 14.267.888 5.065-.648 11.48-8.807 12.861-11.339" fill="#FFCFA3"/><path d="M91.882 47.265c.007 1.156-.578 2.084-1.335 2.087-.733.003-1.353-.92-1.36-2.075-.008-1.157.577-2.084 1.334-2.087.757.02 1.354.942 1.361 2.075zm16.238.612c.008 1.156-.578 2.084-1.334 2.087-.733.003-1.354-.92-1.361-2.075-.008-1.157.577-2.084 1.334-2.087.757-.004 1.354.942 1.361 2.075zM85.914 42.09s.118-.116.33-.302c.235-.186.564-.42 1.013-.653.235-.117.471-.234.755-.304a8.34 8.34 0 01.898-.236 6.91 6.91 0 01.993-.074c.332-.001.687.044 1.043.112.332.068.664.182.997.296.166.07.309.138.451.207.143.092.286.16.428.253.143.092.262.184.381.276l.358.276c.214.184.429.369.572.553.072.093.167.185.239.277.072.093.144.185.191.254.12.162.216.3.288.416.144.254.24.392.24.392s-.12-.115-.334-.3a6.513 6.513 0 00-.382-.322c-.143-.138-.333-.253-.524-.414a2.978 2.978 0 00-.31-.207c-.118-.07-.213-.162-.332-.23l-.357-.207c-.119-.07-.262-.138-.38-.207-.143-.069-.262-.138-.404-.184-.143-.045-.285-.114-.428-.16-.285-.091-.57-.183-.878-.25-.308-.069-.616-.09-.9-.113a5.836 5.836 0 00-.9.004c-.284.025-.568.05-.828.12a7.2 7.2 0 00-.756.188 13.7 13.7 0 00-1.11.399c-.189.07-.354.14-.354.14zm16.227 2.187s.069-.162.21-.394c.164-.233.398-.581.75-.93.164-.186.376-.372.612-.536.235-.186.494-.349.777-.512.283-.164.59-.28.92-.398a7.214 7.214 0 011.017-.236 5.18 5.18 0 011.041-.028c.166.023.332.022.498.044.166.023.332.068.474.09.166.046.309.092.451.115.143.045.285.114.428.16.261.115.522.23.736.344.119.07.214.115.31.184.095.07.19.115.261.184.167.115.31.207.429.3.238.184.357.3.357.3s-.166-.07-.427-.161c-.119-.07-.285-.115-.475-.183-.19-.07-.404-.138-.617-.23-.119-.045-.238-.068-.356-.114-.119-.022-.238-.068-.38-.114-.142-.022-.261-.068-.403-.09l-.427-.068a2.691 2.691 0 00-.45-.045c-.143.001-.308-.021-.451-.02-.307 0-.615.002-.923.05a3.878 3.878 0 00-.898.189c-.283.094-.567.188-.826.304-.26.117-.519.234-.755.374-.236.14-.448.28-.636.42-.377.28-.706.536-.894.722-.236.163-.353.28-.353.28z" fill="#5E331F"/><path d="M94.598 68.529s-1.18 6.805 4.404 7.293c6.697.17 7.51-5.028 7.51-5.028s-7.51 5.028-11.914-2.265z" fill="#fff"/><path d="M84.407 47.556l-2.342.01s-.8-3.049-2.716-2.902c-1.916.148-1.848 3.454-1.217 9.488.68 6.496-.518 4.142-.518 4.142l-.34-1.247s-9.336-31.506.832-36.407c10.167-4.878 46.47-18.982 36.015 7.314-3.843 9.684-12.366 5.304-17.905 1.257-5.54-4.07-7.256-6.051-9.737-5.485.047 0-7.377 4.75-2.072 23.83z" fill="#3C3C3B"/><path d="M111.311 24.994l-.04-6.126c2.834.38 5.338.994 7.208 1.887 10.198 4.788 1.294 36.382 1.294 36.382l-.322 1.25s-1.141 2.363-.569-4.135c.551-6.037.577-9.343-1.335-9.473-1.911-.13-2.67 2.924-2.67 2.924l-2.336.01c3.778-14.233.648-20.462-1.23-22.719z" fill="#3C3C3B"/><path opacity=".4" d="M86.584 60.026s2.15 3.136-1.08 5.094c-2.193 1.328-8.033 2.58-8.033 2.58l-.335-4.279-.018-2.753 9.466-.642z" fill="#E8BB95"/><path opacity=".4" d="M85.104 41.551s1.008-1.625.623-2.572c-1.131-2.842-7.935-3.808-12.26-2.47l-.062 5.093 11.7-.05z" fill="#FFCFA3"/><path d="M84.289 41.18s3.424-4.826-8.807-4.31c-9.629.388-13.4 13.865-16.265 17.231-2.865 3.343 10.204 11.774 14.985 11.823 10.2.094 13.875-2.42 11.37-5.485" fill="#FFCFA3"/><path d="M62.988 49.484l-13.4 13.75 8.646 8.751 12.771-8.566-8.017-13.935z" fill="#FFCFA3"/><path opacity=".4" d="M111.708 58.53s-3.358 4.179.868 6.196c2.327 1.124 8.231 2.555 8.231 2.555l-.24-4.047.336-3.032-9.195-1.671z" fill="#E8BB95"/><path opacity=".4" d="M112.983 41.636s-1.268-2.078-.896-3.051c1.095-2.852 6.96-4.104 11.278-2.78l-.368 5.324-10.014.507z" fill="#FFCFA3"/><path d="M113.735 41.34s-4.46-5.555 8.535-4.94c9.634.443 13.577 13.748 16.485 17.089 2.909 3.318-10.052 11.862-14.831 11.952-10.198.183-14.12-2.506-11.354-6.565" fill="#FFCFA3"/><path d="M135.543 49.81l13.348 11.09-8.926 10.424-12.906-8.455 8.484-13.059z" fill="#FFCFA3"/><path d="M71.723 109.678c.072.024 0 .024 0 .024v-.024z" fill="#B4D1FA"/><path opacity=".4" d="M95.551 64.367c-.048-.116 4.989 6.551 13.392.703-.024 0-8.651 8.234-13.392-.703z" fill="#E8BB95"/><path d="M92.263 57.063s4.716-4.439 8.002-4.453c3.852-.017 8.068 4.105 8.068 4.105l-.573-12.973s-3.896-2.504-7.583-2.488c-4.846.021-7.751 3.272-7.751 3.272l-.163 12.536z" fill="#48443E"/><path d="M95.672 50.345c.032 3.352-1.987 6.228-4.892 7.536l-6.28 3.12c3.276-1.889 6.318-6.024 6.28-10-.045-4.74-4.437-9.064-8.78-10.5l7.338 1.874c3.609.931 6.298 4.155 6.334 7.97z" fill="#6B6966"/><path d="M91.026 51.063c.038 3.977-2.147 7.48-5.432 9.367-.422.233-.845.444-1.291.63h-.024a11 11 0 01-4.192.83c-6.063.027-11.064-4.782-11.121-10.748-.057-5.942 4.827-10.82 10.914-10.849a12.55 12.55 0 011.63.108c.188.023.378.068.567.09.023 0 .047 0 .07.023.426.09.852.204 1.254.318.024 0 .024 0 .024.023 4.379 1.46 7.555 5.468 7.6 10.208z" fill="#48443E"/><path d="M89.752 51.07c.05 5.271-4.273 9.57-9.652 9.594-5.38.025-9.785-4.233-9.836-9.504-.05-5.272 4.274-9.57 9.653-9.595 5.38-.025 9.785 4.233 9.835 9.504z" fill="#DAE9FF"/><path d="M104.837 50.063c.032 3.352 2.106 6.21 5.035 7.49l5.176 2.474c-3.311-1.858-5.138-5.55-5.176-9.527-.045-4.739 4.313-9.023 8.628-10.5l-7.482 2.035c-3.59.965-6.218 4.214-6.181 8.028z" fill="#6B6966"/><path d="M109.516 50.731c.038 3.977 2.289 7.459 5.61 9.316.427.23.854.436 1.304.619h.023c1.303.525 2.721.796 4.208.79 6.063-.029 10.971-4.884 10.914-10.85-.057-5.942-5.034-10.775-11.121-10.747a12.58 12.58 0 00-1.627.123c-.189.024-.377.071-.565.095-.024 0-.048 0-.071.024-.424.094-.847.212-1.247.33-.024 0-.024 0-.024.023-4.374 1.5-7.45 5.537-7.404 10.277z" fill="#48443E"/><path d="M110.765 50.725c.051 5.272 4.457 9.53 9.836 9.505 5.379-.025 9.703-4.323 9.652-9.595-.05-5.271-4.456-9.529-9.835-9.504-5.379.025-9.703 4.323-9.653 9.594z" fill="#DAE9FF"/><path d="M102.46 44.416c.009 1.133-.906 2.04-2.064 2.044-1.159.005-2.088-.916-2.096-2.026-.009-1.133.93-2.04 2.064-2.044 1.158-.005 2.087.893 2.096 2.026z" fill="#6B6966"/><path d="M81.053 42.483s5.948 1.13 7.121 6.885c.22 1.04-.91 2.017-1.586.007-.748-2.24-2.822-4.59-5.573-5.48-2.159-.708-1.975-1.704.038-1.412zm41.022-.206s5.948 1.131 7.121 6.885c.22 1.04-.91 2.017-1.585.007-.748-2.24-2.823-4.59-5.574-5.48-2.158-.708-1.999-1.703.038-1.412zm-7.846 13.147s.751 2.727 3.594 3.084c.521.067 1.177-.884.205-1.25-1.211-.457-1.851-.662-2.38-1.91-.408-.992-1.638-.848-1.419.076zm-41.425.208s.751 2.726 3.594 3.084c.52.067 1.178-.884.205-1.25-1.21-.457-1.85-.663-2.38-1.91-.408-.992-1.638-.848-1.42.076z" fill="#B4D1FA"/><path d="M74.213 52.775a.5.5 0 10.63.778l-.63-.778zm3.94-2.543l.442-.232a.5.5 0 00-.757-.157l.314.39zm2.126 4.05l-.442.232a.5.5 0 00.816.1l-.374-.332zm5.204-5.825l.477.149a.5.5 0 00-.71-.592l.233.443zm-1.055 1.702a.5.5 0 00.955.298l-.955-.298zm-.798-1.296a.5.5 0 10.465.885l-.465-.885zm-8.787 4.69l3.624-2.932-.63-.778-3.624 2.932.63.778zm2.867-3.089l2.127 4.05.885-.465L78.595 50l-.885.465zm2.943 4.15l5.203-5.824-.746-.666-5.204 5.825.747.666zm4.352-6.306l-.577 1.851.955.298.577-1.851-.955-.298zm.245-.294l-1.62.849.465.885 1.62-.848-.465-.886zm28.625 3.579a.5.5 0 00.63.777l-.63-.777zm3.939-2.543l.443-.232a.501.501 0 00-.757-.157l.314.389zm2.128 4.05l-.443.232a.5.5 0 00.816.1l-.373-.333zm5.203-5.826l.477.15a.501.501 0 00-.71-.593l.233.443zm-1.054 1.703a.5.5 0 10.954.298l-.954-.298zm-.799-1.297a.5.5 0 00.465.886l-.465-.886zm-8.787 4.69l3.624-2.931-.629-.778-3.625 2.932.63.777zm2.867-3.088l2.127 4.05.885-.465-2.127-4.05-.885.465zm2.943 4.15l5.203-5.825-.746-.666-5.203 5.825.746.666zm4.352-6.307l-.576 1.852.954.298.577-1.852-.955-.298zm.245-.294l-1.62.85.465.885 1.62-.849-.465-.886z" fill="#A62E41"/><path d="M70.407 84.515c-.52.257 1.278-.377 0 0-3.738 1.082-23.784 5.364-33.643 9.483 2.574-1.609 5.759-4.24 5.759-4.24l27.884-5.243zm59.066.312c.522.229-1.282-.365 0 0 3.749 1.048 23.843 5.147 33.746 9.177-2.592-1.586-5.805-4.187-5.805-4.187l-27.941-4.99z" fill="#71A0DD"/><path d="M42.509 89.765c.164-.14.353-.325.565-.511 0 0 13.696-8.688 14.215-12.692.045-.277.044-.555.018-.832 4.07-3.881 7.364-7.018 7.364-7.018L54.088 57.238s-3.628 2.746-8.597 6.676a8.134 8.134 0 00-.57-.182c-4.315-1.138-23.275 20.873-23.275 20.873a64.944 64.944 0 00-2.374 2.647c-2.607 3.204-5.526 9.323-3.102 14.494 2.424 5.194 10.238 9.416 29.123 8.687 12.282-.47 18.884-.661 22.434-.746a9.34 9.34 0 00.829-.026c2.461-.034 3.053-.014 3.172.009l4.801-26.344-6.147 1.16-27.873 5.28zm138.113-2.662a42.413 42.413 0 00-2.407-2.627s-19.267-21.845-23.543-20.67c-.189.047-.378.118-.567.188-5.02-3.888-8.682-6.601-8.682-6.601l-10.436 11.565s3.334 3.108 7.454 6.953c-.022.278-.02.555.029.833.57 3.999 14.378 12.567 14.378 12.567.214.207.404.368.571.506l-27.916-5.014-6.564-1.081 5.542 26.299c.284-.071 3.195-.176 26.444.51 37.666 1.085 31.041-17.044 25.697-23.428z" fill="#B4D1FA"/><path d="M68.315 112.228c.415-2.087.9-5.9.9-5.9-.33.048-.639.073-.97.097-39.389 3.539-49.537-1.929-52.136-4.698 2.422 5.202 10.218 9.43 29.124 8.695 12.297-.473 18.907-.688 22.46-.751.12 1.218.569 2.415.622 2.557zm64.054.977c-.439-2.083-1.575-6.449-1.575-6.449.332.021.64.043.972.088 39.449 3.18 49.537-2.379 52.104-5.171-2.364 5.223-10.137 9.498-29.049 8.958-12.301-.361-18.913-.516-22.468-.547l.016 3.121z" fill="#71A0DD"/><path d="M103.338 100.32l1.162 18.18 1-2-2.162-16.18zm-.41-11.375l6.274 7.79 12.724-12.594-12.731 11.275-6.267-6.47zm-3.868.029l-6.211 7.847-13.875-11.25 13.867 9.931 6.219-6.528z" fill="#B4D1FA"/><path d="M68.162 115.035c25.593 2.336 39.664 2.127 64.201-1.66l1.282 13.224-66.011 3.166.528-14.73z" fill="url(#paint1_linear)"/></g><defs><linearGradient id="paint0_linear" x1="106.655" y1="106.026" x2="95.753" y2="106.013" gradientUnits="userSpaceOnUse"><stop stop-color="#A62E41"/><stop offset="1" stop-color="#E13152"/></linearGradient><linearGradient id="paint1_linear" x1="98.715" y1="116.587" x2="98.806" y2="126.292" gradientUnits="userSpaceOnUse"><stop stop-color="#B4D1FA"/><stop offset="1" stop-color="#F5F9FF"/></linearGradient><clipPath id="clip0"><path fill="#fff" d="M0 0h200v130H0z"/></clipPath></defs></svg>