<svg width="200" height="130" fill="none" xmlns="http://www.w3.org/2000/svg"><g clip-path="url(#clip0)"><g filter="url(#filter0_di)"><path d="M95.465 3.023a60.465 60.465 0 00-51.052 92.864l51.052-32.399V3.023z" fill="url(#paint0_linear)"/></g><g filter="url(#filter1_di)"><path d="M83.272 125.03a60.463 60.463 0 0072.725-39.839L98.49 66.511 83.272 125.03z" fill="url(#paint1_linear)"/></g><path fill-rule="evenodd" clip-rule="evenodd" d="M74.962 128.166l16.38-55.147-49.298 31.801c7.803 11.357 19.468 19.634 32.918 23.346zm-34.19-22.526c8.284 12.075 20.815 20.756 35.222 24.36l17.96-60.465-54.02 34.848c.274.423.554.842.839 1.257z" fill="#0A3D76"/><path fill-rule="evenodd" clip-rule="evenodd" d="M161.036 77.293A58.956 58.956 0 00105.974 1.53l-2.894 59.32 57.956 16.443zm-59.524-15.316L104.535 0a60.463 60.463 0 0159.721 51.006 60.483 60.483 0 01-2.215 28.144l-60.529-17.173z" fill="#71A0DD"/><path d="M124.585 42.47c1.935 0 3.18-.979 3.18-2.37 0-1.209-1.064-1.85-1.886-1.934.895-.158 1.765-.823 1.765-1.839 0-1.342-1.161-2.188-3.047-2.188-1.415 0-2.431.544-3.084 1.281l.859 1.077a2.901 2.901 0 012.043-.835c.847 0 1.5.315 1.5.956 0 .592-.593.858-1.487.858-.303 0-.859 0-1.004-.012v1.548c.121-.012.665-.024 1.004-.024 1.124 0 1.62.29 1.62.931 0 .605-.544 1.028-1.524 1.028-.786 0-1.669-.339-2.225-.92l-.895 1.15c.593.725 1.693 1.294 3.181 1.294zm7.375 0c1.947 0 3.229-1.076 3.229-2.793 0-1.632-1.221-2.612-2.588-2.612-.737 0-1.39.29-1.777.677v-1.97h3.821V34.26h-5.538v4.631l1.197.315c.483-.46 1.028-.654 1.693-.654.919 0 1.451.484 1.451 1.198 0 .653-.544 1.197-1.5 1.197-.846 0-1.596-.315-2.14-.883l-.955 1.197c.689.75 1.705 1.21 3.107 1.21zm6.016-4.317c1.245 0 2.055-.858 2.055-1.983 0-1.137-.81-2.032-2.055-2.032-1.234 0-2.044.895-2.044 2.032 0 1.125.81 1.983 2.044 1.983zm.12 4.172l5.164-8.066h-.919l-5.152 8.066h.907zm4.318.146c1.233 0 2.055-.871 2.055-1.996 0-1.136-.822-2.031-2.055-2.031-1.234 0-2.044.895-2.044 2.031 0 1.125.81 1.996 2.044 1.996zm-4.438-5.26c-.545 0-.956-.412-.956-1.04 0-.678.411-1.077.956-1.077.556 0 .955.399.955 1.076 0 .629-.399 1.04-.955 1.04zm4.438 4.316c-.557 0-.956-.399-.956-1.052 0-.665.399-1.076.956-1.076.556 0 .967.411.967 1.076 0 .653-.411 1.052-.967 1.052zm-82.079 67.31v-8.066h-1.5l-2.54 2.552.98 1.028 1.343-1.367v5.853h1.717zm4.5.145c1.947 0 3.229-1.076 3.229-2.793 0-1.633-1.221-2.612-2.588-2.612-.738 0-1.39.29-1.778.677v-1.971h3.822v-1.512h-5.54v4.632l1.197.314c.484-.459 1.028-.653 1.694-.653.918 0 1.45.484 1.45 1.197 0 .653-.544 1.198-1.499 1.198-.846 0-1.596-.315-2.14-.883l-.956 1.197c.69.75 1.705 1.209 3.108 1.209zm6.015-4.317c1.246 0 2.056-.859 2.056-1.983 0-1.137-.81-2.032-2.056-2.032-1.233 0-2.043.895-2.043 2.032 0 1.124.81 1.983 2.043 1.983zm.121 4.172l5.164-8.066h-.92l-5.15 8.066h.906zm4.317.145c1.234 0 2.056-.87 2.056-1.995 0-1.137-.822-2.032-2.056-2.032-1.233 0-2.043.895-2.043 2.032 0 1.125.81 1.995 2.043 1.995zm-4.438-5.26c-.544 0-.955-.411-.955-1.04 0-.677.411-1.077.955-1.077.556 0 .956.4.956 1.077 0 .629-.4 1.04-.956 1.04zm4.438 4.317c-.556 0-.955-.399-.955-1.052 0-.665.4-1.076.955-1.076.557 0 .968.411.968 1.076 0 .653-.411 1.052-.968 1.052z" fill="#A62E41"/></g><defs><linearGradient id="paint0_linear" x1="93.601" y1="49.455" x2="36.774" y2="48.661" gradientUnits="userSpaceOnUse"><stop stop-color="#A62E41"/><stop offset="1" stop-color="#E13152"/></linearGradient><linearGradient id="paint1_linear" x1="119.635" y1="66.512" x2="119.635" y2="126.977" gradientUnits="userSpaceOnUse"><stop stop-color="#D6516B"/><stop offset="1" stop-color="#A0132F"/></linearGradient><filter id="filter0_di" x="33" y="1.023" width="68.465" height="100.864" filterUnits="userSpaceOnUse" color-interpolation-filters="sRGB"><feFlood flood-opacity="0" result="BackgroundImageFix"/><feColorMatrix in="SourceAlpha" values="0 0 0 0 0 0 0 0 0 0 0 0 0 0 0 0 0 0 127 0"/><feOffset dx="2" dy="2"/><feGaussianBlur stdDeviation="2"/><feColorMatrix values="0 0 0 0 0 0 0 0 0 0 0 0 0 0 0 0 0 0 0.2 0"/><feBlend in2="BackgroundImageFix" result="effect1_dropShadow"/><feBlend in="SourceGraphic" in2="effect1_dropShadow" result="shape"/><feColorMatrix in="SourceAlpha" values="0 0 0 0 0 0 0 0 0 0 0 0 0 0 0 0 0 0 127 0" result="hardAlpha"/><feOffset dx="-2" dy="-2"/><feGaussianBlur stdDeviation="2"/><feComposite in2="hardAlpha" operator="arithmetic" k2="-1" k3="1"/><feColorMatrix values="0 0 0 0 0 0 0 0 0 0 0 0 0 0 0 0 0 0 0.2 0"/><feBlend in2="shape" result="effect2_innerShadow"/></filter><filter id="filter1_di" x="81.272" y="64.512" width="80.725" height="68.465" filterUnits="userSpaceOnUse" color-interpolation-filters="sRGB"><feFlood flood-opacity="0" result="BackgroundImageFix"/><feColorMatrix in="SourceAlpha" values="0 0 0 0 0 0 0 0 0 0 0 0 0 0 0 0 0 0 127 0"/><feOffset dx="2" dy="2"/><feGaussianBlur stdDeviation="2"/><feColorMatrix values="0 0 0 0 0 0 0 0 0 0 0 0 0 0 0 0 0 0 0.2 0"/><feBlend in2="BackgroundImageFix" result="effect1_dropShadow"/><feBlend in="SourceGraphic" in2="effect1_dropShadow" result="shape"/><feColorMatrix in="SourceAlpha" values="0 0 0 0 0 0 0 0 0 0 0 0 0 0 0 0 0 0 127 0" result="hardAlpha"/><feOffset dx="-2" dy="-2"/><feGaussianBlur stdDeviation="2"/><feComposite in2="hardAlpha" operator="arithmetic" k2="-1" k3="1"/><feColorMatrix values="0 0 0 0 0 0 0 0 0 0 0 0 0 0 0 0 0 0 0.2 0"/><feBlend in2="shape" result="effect2_innerShadow"/></filter><clipPath id="clip0"><path fill="#fff" d="M0 0h200v130H0z"/></clipPath></defs></svg>