<svg width="200" height="130" fill="none" xmlns="http://www.w3.org/2000/svg"><g clip-path="url(#clip0)"><path d="M108.164 5.272h.232c.077-.078.154-.078.154-.156.54-.313 1.466-.313 2.083 0 .077.078.154.078.231.156h.232v89.426c0 .234-.155.469-.463.625-.54.312-1.466.312-2.083 0-.308-.156-.463-.39-.386-.625V5.272z" fill="url(#paint0_linear)"/><path d="M107.47 1.21h.386c.077-.078.154-.156.309-.234.848-.468 2.159-.468 3.008 0 .154.078.231.156.308.235h.309v3.826c0 .313-.154.703-.617.938-.849.468-2.16.468-3.008 0-.463-.235-.618-.625-.618-.938V1.211h-.077z" fill="url(#paint1_linear)"/><path d="M108.087 2.07c.849.468 2.16.468 3.009 0 .848-.469.848-1.25 0-1.719-.849-.468-2.16-.468-3.009 0-.848.47-.848 1.25 0 1.719z" fill="#948991"/><g filter="url(#filter0_di)"><path d="M50.31 37.528l50.527-29.523c2.854-1.64 4.551-3.124 7.482-1.484 1.851 1.328 3.009 3.515 3.009 5.78v64.043l-.002.778c-.027 7.335 6.334 14.608 13.668 14.608h50.513L132.695 130H74.269c-6.193 0-12.675-1.113-17.383-5.137-3.531-3.018-4.492-6.32-4.492-14.154V46.666a7.058 7.058 0 00-1.698-4.608l-5.245 4.998V41.59c.077-1.406 2.545-2.733 4.86-4.061z" fill="url(#paint2_linear)"/></g><path d="M45.529 41.98v5.154l6.17-3.592c-.076-.078-.076-.235-.154-.313a3.685 3.685 0 00-.848-1.171s-.232-.313-.617-.625c-.463-.39-1.08-.937-1.774-1.328-1.235-.625-2.777.313-2.777 1.875z" fill="#2B7200"/><path d="M47.302 43.464c0 .468.386 1.093.772 1.405.231.157.462.157.617 0l2.854-1.64c-.309-.703-.849-1.171-.849-1.171s-.231-.313-.617-.625l-2.545 1.484c-.077.078-.232.312-.232.547z" fill="url(#paint3_linear)"/><path d="M47.148 39.48h.231c.077-.078.154-.078.154-.156.54-.312 1.466-.312 2.083 0 .077.078.154.078.232.157h.231v89.426c0 .234-.154.468-.463.625-.54.312-1.465.312-2.083 0-.308-.157-.462-.391-.385-.625V39.48z" fill="url(#paint4_linear)"/><path d="M46.454 35.419h.385c.078-.078.155-.156.309-.234.848-.469 2.16-.469 3.008 0 .155.078.232.156.309.234h.308v3.827c0 .312-.154.703-.617.937-.848.469-2.16.469-3.008 0-.463-.234-.617-.625-.617-.937v-3.827h-.077z" fill="url(#paint5_linear)"/><path d="M47.07 36.356c.85.469 2.16.469 3.009 0 .849-.468.849-1.25 0-1.718-.849-.468-2.16-.468-3.008 0-.772.39-.849 1.172 0 1.718z" fill="#948991"/><path d="M117.573 51.268c-2.531-2.318-4.22-7.058-4.22-7.732 0-1.16-.422-4.254-.422-4.254l5.489 2.32c.146 0 .45 2.566.422 3.867 1.617 2.1-.241 6.106-1.269 5.8z" fill="#FCD1B3"/><path d="M105.696 108.262h4.772c.105-.282.262-.508.472-.79-.839-.338-1.678-.733-2.412-1.185h-2.832v1.975z" fill="#F5F9FF"/><path d="M108.527 106.287c.735.452 1.574.847 2.413 1.185a9.534 9.534 0 00-.472.79h5.611l-.052 6.433h3.198l.053-6.433h10.331v-1.975h-10.331l.052-6.432h-3.199l-.052 6.432h-7.552c-.052-.056 0-.056 0 0z" fill="#F5F9FF"/><path d="M112.168 45.239l8.267 1.266c.695.68 2.14 2.11 2.362 2.39.223.282.417 13.43.487 19.97l-5.697 1.828-10.074-21.094 4.655-4.36z" fill="#B4D6FF"/><path d="M109.07 109.307l.403-2.182 2.454.363-.131 2.047s-.462.917-1.753.94c-1.291.024-.973-1.168-.973-1.168zm11.722-3.076l-.079 1.775.47 1.156 2.029-.653.441-1.317.149-2.045-3.01 1.084z" fill="#302624"/><path d="M128.342 109.246c-.63-.318-2.628-.928-4.026-2.05a.684.684 0 00-.548-.132l-.108.019a1.821 1.821 0 01-.44.804 1.789 1.789 0 01-.773.483c-.696.227-1.734-.364-1.734-.364l-.193 2.517h8.005a.465.465 0 00.214-.261s.405-.611-.397-1.016zm-17.079.416c-.963-.924-1.827-.144-1.827-.144l-.366-.211c-.533.809-1.556 1.776-1.686 2.25-.244.899.193 1.95 1.623 1.95 1.397 0 2.743-.866 2.89-1.56.09-.419-.056-1.56-.102-2.402l-.532.117z" fill="#302624"/><path d="M111.558 67.177s-1.007 12.369-1.347 14.57c-.341 2.202-.992 17.067-.992 19.388 0 2.698-.434 7.877-.434 7.877h3.467s3.217-19.284 3.682-21.303c.466-2.02 2.432-9.211 2.432-9.211s1.378 19.286 1.667 21.305c.29 2.02.717 7.201.717 7.201.202.074 1.1.014 1.315 0 .438-.056 1.61-.179 2.012-.364l.817-20.46.09-18.9-13.426-.103z" fill="#525252"/><path d="M119.535 73.964l-3.948 15.081-3.335 19.996h-.695l3.126-19.574 4.852-15.503z" fill="#12191D"/><path d="M118.369 78.043l1.108 15.854 1.32 13.124c.152.078.19 0 .625 0l-1.528-14.179-1.525-14.8z" fill="#12191D"/><path d="M119.67 63.943l-2.779-16.875 1.459.07 3.612 16.594-2.889 2.81.597-2.599z" fill="#C43B55"/><path d="M118.407 45.327c0 1.125.146 1.044-.058 1.952l-1.39.07c-.437-.898-.612-.97-.775-1.952 0 0 1.435-.302 2.223-.07z" fill="#C43B55"/><path d="M116.185 45.397c.069.844.446 1.279.746 1.914l1.419-.103s-1.251-.035-1.471-.264c-.219-.228-.694-1.547-.694-1.547z" fill="#A62E41"/><path d="M112.166 44.958l4.238 2.602.903-2.32-4.19-1.593-.951 1.311zm8.109 1.398l-1.439 1.063-1.111-2.18 1.111-.835 1.439 1.952z" fill="#94C5FF"/><path d="M125.021 50.177s3.417 19.561.661 24.172c-2.757 4.611-3.038-2.023-3.038-2.023l-.477-7.617 2.854-14.532z" fill="#293346"/><path d="M120.087 62.653l3.054-8.352-1.525-1.89 1.525-.454s-1.096-2.865-1.876-4.858l-1.393-1.137c.738 2.708 1.768 8.465.215 16.69z" fill="#202937"/><path d="M114.878 52.153l-1.367 1.81 6.595 8.584c-1.547-5.172-4.7-13.456-7.579-18.011l-.612 7.549 2.963.068z" fill="#202937"/><path d="M123.186 69.354l1.836-19.16-3.744-3.087c.768 1.993 1.688 4.773 1.688 4.773l-1.393.533 1.305 2.167-2.772 7.967-.479 4.607c.147 1.963 1.343 4.945 1.343 4.945s2.376 6.417 3.908 5.19c1.533-1.226.144-5.471.144-5.471l-1.836-2.464z" fill="#293346"/><path d="M120.987 68.618c-.155-2.015-.357-3.858-.801-5.829l-.08-.242-6.595-8.584 1.528-1.857-2.988-.072.51-7.498s-3.976 3.798-6.58 4.965c0 0-3.592 3.832-2.33 16.017a1.252 1.252 0 00.679.992c1.49.758 5.488 2.516 9.147 1.78l.14-.873-.95-2.448c-.65.022-1.394.008-2.122-.09-.951-.13-1.873-.402-2.521-.928 0 0 1.435-5.901 1.089-8.269l3.554 9.287a15.86 15.86 0 001.95-.183l.777 2.857c-.603.3-3.678.39-4.338.519.139 2.812-1.048 6.96-1.048 6.96a4.106 4.106 0 002.043 1.688c.846.32 3.817-.215 4.681-.483 3.216-.851 4.428-5.96 4.428-5.96-.015-.222-.023.215-.173-1.75z" fill="#293346"/><path d="M110.545 64.879c.728.098 1.472.112 2.122.09l-3.554-9.287 1.432 9.197z" fill="#293346"/><path d="M125.422 73.276c-.308-.805-.595-1.618-.89-2.427l-.844-2.444v-.056l.422-7.761.08-1.942a91.72 91.72 0 00.076-1.937c.021-.66.034-1.277.038-1.942v-.97c0-.324-.038-.643-.059-.971.046.32.118.643.139.966.021.324.059.648.072.971.046.647.05 1.299.063 1.946.013.647 0 1.277 0 1.95l-.051 1.941-.076 1.946c0 .648-.067 1.278-.105 1.942-.089 1.277-.161 2.588-.283 3.883v-.077l.751 2.478c.19.83.439 1.652.667 2.504z" fill="#202937"/><path d="M116.379 63.422h0c.243-.689.144-1.278.08-1.658l-.001-.006a4.277 4.277 0 01-.035-.231l-.004-.04c.151.094.279.268.354.54.09.33.095.79-.038 1.372a.582.582 0 00.001.288.45.45 0 00.166.239c.138.102.322.123.47.125.228.004.524-.039.801-.079l.269-.037a3.59 3.59 0 01.484-.037.663.663 0 01.279.045c.025.014.032.021.035.057.004.06-.017.184-.123.399l-.099.2.186.122h.001l.001.001h0a.393.393 0 01.157.181.125.125 0 01-.005.113c-.026.054-.099.148-.298.262l-.294.17.25.231v.001a.52.52 0 01.128.224.307.307 0 01-.019.201c-.034.079-.113.186-.29.309l-.148.102.05.172s0 0 0 0l.004.018c.002.017.006.043.006.074a.377.377 0 01-.049.2c-.063.108-.283.32-1.092.235-.488-.062-1.053-.018-1.596.055a27.02 27.02 0 00-1.002.159l-.266.045-.161-2.349.054-.02c.147-.058.347-.149.563-.282.429-.264.935-.706 1.181-1.401z" fill="#FCBFAF" stroke="#E9B0A1" stroke-width=".5"/><path d="M114.598 64.787c-.625.07-1.959.14-2.014.14l.903 2.389v.986c.222.056 1.389-.398 1.945-.633l-.834-2.882z" fill="#202937"/><ellipse rx=".24" ry=".243" transform="matrix(-1 0 0 1 120.186 65.133)" fill="#3C4B64"/><ellipse rx=".24" ry=".243" transform="matrix(-1 0 0 1 120.345 68.043)" fill="#3C4B64"/><path d="M118.386 43.255c-1.169 0-4.4-3.474-5.456-3.973 0 3.09 3.508 5.297 5.456 3.973z" fill="#F1C09E"/><path d="M120.06 31.223s1.171 1.507 1.288 3.273c.117 1.767-.176 2.026-.176 2.338-.058.26-.234.727 0 1.403.234.675.527 1.246.234 1.454-.292.208-.692.085-.692.085v2.888c0 .413-1.123.872-1.474.82-.41 0-2.576-.416-3.63-1.091-1.113-.676-2.05-1.403-2.343-1.922-.292-.52-1.112-2.286-1.405-2.754-.293-.52 0-4.987.703-5.143.585-.104 6.382-1.922 7.495-1.35z" fill="#FCD1B3"/><path d="M116.937 33.413s1.526.369 2.187.23c.661-.091 1.78-.23 1.78-.23s.458-.046.611-.322c.152-.276-.916-2.073-2.035-2.856-1.119-.784-3.916-1.106-5.035-.323-1.119.783-1.525 1.014-1.525 1.014s-1.933.645-1.984 3.179c-.051 2.487 1.119 4.192 1.272 4.422.152.185.254-2.027.762-2.027.509 0 1.069.369 1.272.783.203.415.153.784.153.784l.61-.093s.305-.69.61-1.013c.305-.323.763-1.198.763-1.198s-.153-2.488.559-2.35z" fill="#381C0C"/><path d="M179.923 39.98c-1.062-.747-1.59.653-2.707 0l.046.046-.674-.046a94.712 94.712 0 00-2.845 3.044 8.777 8.777 0 00-2.355 3.856.935.935 0 00.24.934c.134.088.28.154.434.196.844.233 1.515-.371 2.303-.755 2.203-1 3.884-3.92 5.65-5.585a1.204 1.204 0 00.527-.934c-.019-.29-.333-.55-.619-.756z" fill="#FAC6B9"/><path d="M175.632 39.864c-.795 1-1.574 2.024-2.338 3.074-.909 1.065-1.576 2.409-1.935 3.896-.039.165-.042.34-.007.506.035.166.105.317.204.437.11.089.231.156.357.198.693.236 1.288-.005 1.935-.393l.905-.524c1.283-2.131.989-6.35 1.034-8.972l-.155 1.778z" fill="#EEB1A2"/><path d="M185.942 34.732c.527 2.148-3.518 7.648-4.313 7.685-2.004.084-5.264-2.334-5.384-2.652-.092-.168 7.776-12.727 9.697-5.033z" fill="#C54848"/><path d="M178.882 94.242c.708.7 3.049.69 4.227-.934.169-.344.378-.658.621-.934.245-.205.543-.304.844-.28.501-.065 1.592-.476 1.528-1.503a4.96 4.96 0 00-.398-1.868c-.238-.463-.615-.805-1.057-.957a1.595 1.595 0 00-1.331.135c-1.576 2.241-5.955 4.837-4.434 6.34zm14.123-.882v-.063h-3.508c0 .744-.015 1.675 0 2.911 0 1.792-.411 3.861.7 4.702a1.32 1.32 0 001.278.144c.72-.406 1.307-1.076 1.674-1.91a4.997 4.997 0 00.358-2.712c-.183-1.576-.579-2.257-.502-3.072z" fill="#141414"/><path d="M182.12 89.76c.756.505 3.026 1.113 3.877.46.852-.654.651-10.184.905-16.57.096-2.363.473-4.928.473-4.928.064-2.802.12-5.491.152-9.105 0-.84.238-3.053.238-3.39l-6.583 2.4c-.366 7.788 1.017 11.476.938 15.808 0 8.907-.526 14.98 0 15.326z" fill="#024670"/><path d="M181.182 58.627c-.048 1.065-.08 2.055-.103 2.98 0 .615 4.155.812 4.728 3.37 1.346 6.135.581 14.692-.095 21.116-.136 1.354-.168 2.968-.24 4.341a1.44 1.44 0 00.525-.215c.711-.786.651-10.576.905-16.963.096-2.362.517-4.846.517-4.846.064-2.802.084-5.151.116-8.765 0-.84.239-3.053.239-3.39l-6.592 2.372z" fill="#023150"/><path d="M184.834 58.627c3.981 11.654 2.407 4.573 4.007 19.476.637 5.854.279 12.163.518 16.766 1.385.41 1.997.665 3.425.59.229-.004.458-.026.684-.066 0-.121.196-6.513.244-7.008.354-4.31.833-8.779 0-12.997.319-4.669.597-12.736.796-16.76h-9.674z" fill="#065584"/><path d="M194.096 77.774c-.06-1.615-.089-3.231-.018-4.845.204-4.672.262-10.91.429-14.302h-9.385a658.89 658.89 0 011.218 3.586c1.592 2.699 4.887.504 6.042 1.737.899.933.31 3.81.358 5.462.119 5.332.182 10.357.301 15.698.064 3.4-.129 6.94-.273 10.349.222-.008.442-.03.661-.066 0-.121.234-6.25.282-6.746.289-3.523.522-7.238.385-10.873z" fill="#033E65"/><path d="M173.719 35.532c-.397 2.23-2.959 10.737-2.532 11.796.094.19.219.355.368.483.148.128.316.217.494.262.177.045.36.045.538-.001a1.21 1.21 0 00.492-.266c1.824-1.706 2.93-7.033 2.785-12.49l-2.145.216zm13.313 1.898c8.273-5.173 2.964-4.518 2.779-5.173-.476-1.69.129-4.978.129-4.978l-3.167.282c-.133 0-.606 2.923-.581 4.237-5.3-.851-.099 5.943.84 5.633z" fill="#FBBEAE"/><path d="M180.189 59.306c.565.762 1.601 1.265 2.513 1.506 6.657 1.764 7.322 1.483 11.339-1.178a5.41 5.41 0 00.85-.654c-.166-3.791-.988-10.449-1.071-12.54-.185-4.567 2.066-9.041 2.066-10.253-.279-.23-.194-.59-1.034-1.31-.452-.328-.738-.553-1.099-.72-.978-.505-1.282-.779-2.972-1.507-.97 2.423-4.912 3.013-5.042-.917-1.098-.131-3.15.15-3.454.226a2.03 2.03 0 00-1.422 1.027c-1.339 2.586-.84 8.628-.785 11.98.249 2.47.499 7.414.111 12.436.002.528.075 1.381 0 1.904z" fill="#B54646"/><path d="M186.398 47.316c-2.068 1.441-3.231.197-3.813-.667l13.053-9.844c-.508 2.988-1.736 9.431-1.597 12.867.15 1.203.746 4.736.849 9.373a5.45 5.45 0 01-.849.654 10.34 10.34 0 01-1.607.934c.137-5.271.084-7.377-.6-12.604-.111-.458-.377-4.178-1.605-3.448-1.57.934-.65.519-3.831 2.735z" fill="#A23838"/><path d="M185.087 15.782s-1.211 1.818-1.314 4.532c-.102 2.714-.391 5.708.27 7.154.595 1.363 1.958 2.67 2.708 2.763.75.094 1.677-.018 2.614-.204.852-.12 1.908-.67 2.599-1.341.616-.68 1.078-2.593 1.346-3.544.268-.951.873-2.163.587-3.563-.287-1.399-1.375-4.338-2.043-5.103-.818-.784-3.894-1.774-6.767-.694z" fill="#FBBEAE"/><path d="M191.217 17.41s-1.651-.515-2.926-.289c-1.351.218-2.389-.221-2.96.634-.572.855-1.214 1.006-1.298 1.69-.083.685-.345 2.196-.345 2.196s-.494-1.065-.281-2.814c.214-1.749-.108-2.947 2.341-4.494 2.457-1.623 5.61.007 6.361.873 1.152.143 2.474 2.084 2.605 3.567.13 1.483-.043 3.546-.545 5.104-.519-.219-.742-.941-.742-.941s-.506-1.608-.911-2.121c-.404-.514-.686-1.399-.535-1.997-.08-.628-.313-1.274-.764-1.408z" fill="#81411C"/><path d="M194.896 23.72c-.096 1.362-.194 2.59-.619 2.925-.139.008-.388.02-.554 0-.549-.272-.868-1.41-.752-3.065.117-1.654.617-2.793 1.173-2.926.071.006.414-.05.477 0 .412.325.376 1.63.275 3.065z" fill="#363641"/><ellipse rx=".965" ry="3.003" transform="rotate(4.133 -230.528 2705.968) skewX(.108)" fill="#17171E"/><path d="M195.28 23.684c-.081 1.158-.2 2.147-.499 2.355-.044.031-.195.042-.294.005-.344-.165-.548-1.122-.454-2.45.074-1.058.272-1.724.525-2.098.115-.168.31-.282.512-.256.281.216.294 1.254.21 2.444z" fill="#FEC02F"/><ellipse rx=".698" ry="2.412" transform="rotate(4.133 -230.23 2712.23) skewX(.108)" fill="#FC9B0D"/><path d="M195.599 23.677c-.056.79-.152 1.449-.38 1.552a.935.935 0 01-.19 0c-.253-.018-.409-.743-.347-1.618.061-.876.317-1.57.57-1.553.02.002.176-.01.195 0 .219.115.209.811.152 1.619z" fill="#424242"/><ellipse rx=".46" ry="1.589" transform="rotate(4.133 -230.025 2717.953) skewX(.108)" fill="#000"/><path d="M193.808 16.424c-.628-1.01-1.502-1.864-2.646-2.399 2.313.95 3.992 3.405 3.992 6.342v1.4l-.002.002h-.002a.036.036 0 01-.013-.006.056.056 0 01-.022-.044c.059-1.748-.323-3.711-1.307-5.295z" fill="#000" stroke="#000"/><path d="M183.328 19.675c.108-2.08.149-4.09 2.22-5.288-2.534 2.566-1.832 4.614-1.901 5.452a.196.196 0 01-.319-.164z" fill="#000"/><rect width=".51" height="4.825" rx=".255" transform="rotate(-1.904 679.518 -5502.881) skewX(-.041)" fill="#363641"/><rect width=".17" height="3.963" rx=".085" transform="rotate(-1.906 689.565 -5493.869) skewX(-.044)" fill="#FEC02F"/><path d="M195.103 21.477c0-.088.045-.164.109-.182.189-.055.402.004.415.2.013.207-.045.431-.042.456l-.069.812-.111.071h-.135c-.098 0-.167-.063-.167-.182v-1.175z" fill="#B6A7A7"/><path d="M195.213 21.48a.207.207 0 01.413 0v1.126a.207.207 0 11-.413 0V21.48z" fill="#E6D1D1"/><path d="M179.843 35.258l-.568-.477-.203.706.771-.229z" fill="#1B1B1B"/><path d="M182.729 34.563s.172 1.12-.248 1.41c-.42.291-9.185 2.397-9.185 2.397s.316-.609 0-1.563l9.433-2.245z" fill="#0A0A0A"/><path d="M173.296 38.37l-3.06-1.363 3.06-.2c.165.287.255.61.263.941-.004.516-.263.622-.263.622z" fill="#1B1B1B"/><path d="M179.843 35.258l-3.124-2.211-1.357-5.006s2.514-.092 3.604.895c1.089.987 1.612 1.674 1.445 3.912-.166 2.238-.568 2.41-.568 2.41zm-6.546 1.549l-1.399.664s.999-2.823.224-4.487a20.863 20.863 0 00-1.719-2.986l.728.07s1.958.57 2.428 3.442c.38 2.348-.262 3.297-.262 3.297z" fill="#0A0A0A"/><path d="M179.711 29.83s.536 2.33.42 3.31a74.675 74.675 0 01-.288 2.118l3.186-.767s.608-1.073.489-2.94c-.118-1.868-.499-2.615-.499-2.615l-3.308.893z" fill="#2B2B2B"/><path d="M175.362 28.041s3.525.656 4.352 1.788l3.308-.893s-.306-.606-1.614-1.153c-1.873-.783-2.206-.694-2.698-.595-.492.098-3.348.853-3.348.853z" fill="#333"/><path d="M173.297 36.807s.525-1.466.158-3.35c-.368-1.884-1.382-2.952-2.328-3.387l7.246-.808s1.326 1.04 1.444 2.837c.119 1.797-.622 3.307-.622 3.307l-5.898 1.401z" fill="#2B2B2B"/><path d="M175.985 29.657s3.242-.968 3.568-1.476c.563-.874-.301-1.768-.459-1.93-.157-.16-.853-.635-1.43-.556-.578.08-1.799.53-1.799.53l-1.515-.971 4.743-1.235.1.967.636.994h.486v.715l.817.972.658.301-5.805 1.69z" fill="#2B2B2B"/><path d="M177.664 25.698s.689.59.748 1.066c.06.476-.013 1.23-.748 1.531-.735.301-1.798.54-1.798.54l.12.822s3.345-.782 3.843-1.477c.499-.694-.169-1.775-.634-2.083-.809-.545-1.531-.4-1.531-.4z" fill="#0A0A0A"/><path d="M173.136 24.835l5.053-1.256.906.437-4.745 1.238-1.214-.42z" fill="#333"/><path d="M170.742 37.807l-.964.28s1.12-2.59.535-4.293c-.584-1.704-2.228-3.647-2.228-3.647l.99-.067s2.413 1.014 2.621 3.713c.209 2.699-.954 4.014-.954 4.014zm4.205-11.831l.066 4.608.973-.237-.12-4.57-.919.2z" fill="#0A0A0A"/><path d="M175.867 25.777l-4.372-1.51-.748.16 4.201 1.55.919-.2z" fill="#333"/><path d="M170.747 24.426v4.51l4.267 1.648-.066-4.608-4.201-1.55z" fill="#2B2B2B"/><path d="M182.629 22.242s.039-.358.656-.85c.617-.49.863-.66.863-.66s1.549.675 2.034 2.211c.485 1.536.106 2.927-.551 3.258-.656.33-1.05.172-1.224 0-.173-.172-.778-.742-.778-.742l-1-3.217z" fill="#0A0A0A"/><path d="M181.116 22.773s.077-.226.446-.333c.37-.106 1.207-.198 1.207-.198s1.287.185 1.497 1.43c.209 1.245-.472 1.735-.472 1.735l-.842.273s-.433.032-.748-.154-1.088-2.753-1.088-2.753z" fill="#333"/><path d="M181.024 22.825c.199-.12.426-.184.657-.186.382 0 1.26.252 1.43 1.377.171 1.125-.275 1.642-.905 1.51l-1.182-2.701z" fill="#2B2B2B"/><path d="M178.192 23.58c.456-.217.93-.39 1.418-.517.682-.159 1.142-.238 1.418-.238.275 0 1.076.529 1.247 1.27a2.9 2.9 0 01-.066 1.43l-1.894.455h-.486l-.634-.997-.101-.967-.902-.437zm-11.38 6.816l-.846.159-1.055.198 1.949 7.92 1.683-.227s1.248-1.755.925-4.665c-.294-2.63-2.656-3.385-2.656-3.385z" fill="#0A0A0A"/><path d="M171.895 37.471l-1.295.386c1.514-2.788.947-5.803-1.524-7.78l1.324-.083c2.47 1.983 3.01 4.69 1.495 7.477z" fill="#2B2B2B"/><path d="M169.568 30.396a.038.038 0 01-.024-.009.04.04 0 01-.014-.022.048.048 0 01.006-.029.04.04 0 01.024-.017l.86-.172a.038.038 0 01.029.006.046.046 0 01.011.01.06.06 0 01.005.014c.002.01 0 .02-.006.03a.037.037 0 01-.024.016l-.859.174-.008-.001zm.281.22a.036.036 0 01-.024-.009.034.034 0 01-.013-.022.038.038 0 010-.015.063.063 0 01.005-.014.048.048 0 01.011-.01.038.038 0 01.014-.007l.859-.174a.04.04 0 01.029.006.038.038 0 01.017.025c.002.01 0 .02-.006.03a.04.04 0 01-.025.016l-.862.173h-.005zm.263.235a.04.04 0 01-.031-.06.036.036 0 01.024-.017l.86-.175a.038.038 0 01.015 0 .046.046 0 01.024.016.061.061 0 01.005.015.038.038 0 010 .015.06.06 0 01-.005.014.045.045 0 01-.011.01.038.038 0 01-.014.006l-.859.175-.008.001zm.245.249a.037.037 0 01-.024-.01.035.035 0 01-.013-.022l-.001-.015a.036.036 0 01.006-.014.046.046 0 01.011-.01.037.037 0 01.014-.006l.859-.175a.038.038 0 01.029.006.03.03 0 01.01.01.038.038 0 010 .043.03.03 0 01-.01.01.038.038 0 01-.014.007l-.859.175h-.008zm.227.26a.037.037 0 01-.028-.008.038.038 0 01-.014-.026.04.04 0 01.008-.029.04.04 0 01.026-.014l.86-.175a.04.04 0 01.029.006.04.04 0 01.016.025c.002.01 0 .02-.006.03a.039.039 0 01-.024.016l-.86.174-.007.001zm.206.274a.04.04 0 01-.025-.009.045.045 0 01-.013-.022c-.002-.01 0-.02.006-.03a.041.041 0 01.025-.016l.859-.175a.04.04 0 01.029.006.04.04 0 01.016.025c.002.01 0 .02-.006.03a.037.037 0 01-.024.016l-.86.175h-.007zm.188.284a.037.037 0 01-.024-.009.034.034 0 01-.013-.022.038.038 0 010-.015.062.062 0 01.005-.014.046.046 0 01.011-.011.038.038 0 01.014-.006l.859-.174a.038.038 0 01.029.005.03.03 0 01.01.01.038.038 0 010 .043.044.044 0 01-.01.012.038.038 0 01-.014.005l-.859.175h-.008zm.168.294a.036.036 0 01-.024-.009.034.034 0 01-.013-.022.038.038 0 010-.015.035.035 0 01.005-.014.048.048 0 01.011-.01.038.038 0 01.014-.007l.857-.175a.038.038 0 01.029.006.047.047 0 01.011.011l.005.014.001.015a.036.036 0 01-.006.014.033.033 0 01-.011.01.037.037 0 01-.014.006l-.856.175h-.009zm.149.302a.04.04 0 01-.038-.03.048.048 0 01.006-.03.04.04 0 01.024-.016l.863-.175a.038.038 0 01.028.006.046.046 0 01.011.01.036.036 0 01.006.015.048.048 0 01-.006.028.04.04 0 01-.024.017l-.86.175h-.01zm.129.311a.039.039 0 01-.028-.009.052.052 0 01-.01-.012.037.037 0 01-.004-.014c0-.005 0-.01.002-.015a.04.04 0 01.018-.023.047.047 0 01.015-.004l.859-.175a.038.038 0 01.029.006.047.047 0 01.011.01l.006.014a.04.04 0 01-.006.03.033.033 0 01-.011.01.036.036 0 01-.014.007l-.86.175h-.007zm.109.317a.04.04 0 01-.025-.008.04.04 0 01-.013-.038.064.064 0 01.005-.014.046.046 0 01.011-.01.036.036 0 01.014-.006l.859-.175a.04.04 0 01.029.005.03.03 0 01.01.011.038.038 0 01.006.029c0 .005-.002.01-.005.014a.046.046 0 01-.011.01.036.036 0 01-.014.006l-.862.176h-.004zm.087.324a.038.038 0 01-.028-.01.042.042 0 01-.013-.026.037.037 0 01.009-.028.035.035 0 01.026-.014l.859-.175c.01-.002.02 0 .029.006a.038.038 0 01.017.025.04.04 0 01-.006.03.04.04 0 01-.025.017l-.86.175h-.008zm.07.328a.038.038 0 01-.028-.009.039.039 0 01-.014-.027.037.037 0 01.009-.028.037.037 0 01.026-.014l.858-.173a.036.036 0 01.015 0c.005 0 .01.003.014.006a.049.049 0 01.011.01l.005.015a.04.04 0 010 .015.064.064 0 01-.005.014.045.045 0 01-.011.011.036.036 0 01-.014.006l-.86.175-.006-.001zm.046.332a.037.037 0 01-.024-.01.04.04 0 01-.013-.037.06.06 0 01.005-.014.044.044 0 01.011-.01.036.036 0 01.014-.006l.859-.175c.01-.002.021 0 .029.006a.039.039 0 01.011.054.038.038 0 01-.025.017l-.859.175h-.008zm.001.334a.04.04 0 01-.025-.009.04.04 0 01-.007-.051.03.03 0 01.01-.01.038.038 0 01.014-.007l.859-.175a.04.04 0 01.029.006.03.03 0 01.01.01.038.038 0 01.006.029.03.03 0 01-.005.015.046.046 0 01-.011.01.036.036 0 01-.014.006l-.86.175h-.006zm-.021.336a.038.038 0 01-.033-.063.035.035 0 01.025-.014l.86-.173c.01-.002.021 0 .029.006a.04.04 0 01.016.024c.001.005.002.01.001.015a.036.036 0 01-.006.014.034.034 0 01-.011.011.033.033 0 01-.013.006l-.86.175h-.008zm.022.337a.04.04 0 01-.029-.008.042.042 0 01-.013-.026.038.038 0 01.034-.043l.859-.175a.038.038 0 01.015 0c.005 0 .01.003.014.006a.03.03 0 01.01.01.037.037 0 01.006.03c0 .004-.002.01-.005.013a.045.045 0 01-.011.011.038.038 0 01-.014.006l-.86.176h-.006zm-.048.339a.04.04 0 01-.024-.008.038.038 0 01-.007-.051.041.041 0 01.025-.017l.859-.175a.04.04 0 01.029.006.04.04 0 01.016.025c.002.01 0 .02-.006.03a.037.037 0 01-.024.016l-.861.174h-.007zm-.069.334a.04.04 0 01-.025-.01.045.045 0 01-.013-.021.042.042 0 01.006-.03.04.04 0 01.025-.016l.859-.175a.038.038 0 01.029.006.03.03 0 01.01.01.037.037 0 01.006.03.06.06 0 01-.005.014.044.044 0 01-.011.01.036.036 0 01-.014.006l-.86.175h-.007zm-.089.334a.038.038 0 01-.024-.01.039.039 0 01-.013-.037.06.06 0 01.005-.014.046.046 0 01.011-.01.038.038 0 01.014-.006l.859-.175a.038.038 0 01.029.006.045.045 0 01.011.011c.003.004.005.01.006.014a.04.04 0 01-.006.03.047.047 0 01-.011.01.036.036 0 01-.014.006l-.862.173-.005.001zm-.067.33a.036.036 0 01-.024-.01.034.034 0 01-.013-.022.038.038 0 01-.001-.015.037.037 0 01.006-.014.034.034 0 01.011-.01.033.033 0 01.013-.006l.86-.175c.01-.002.021 0 .029.006a.04.04 0 01-.014.07l-.859.175h-.008zm-.145.326a.04.04 0 01-.024-.01.044.044 0 01-.013-.021.038.038 0 01.006-.03.03.03 0 01.01-.01.038.038 0 01.014-.006l.86-.175c.01-.002.02 0 .028.006a.037.037 0 01.011.053.03.03 0 01-.01.01.038.038 0 01-.014.007l-.86.175h-.008zm-.154.32a.04.04 0 01-.025-.009.039.039 0 01-.007-.05.043.043 0 01.01-.012.038.038 0 01.014-.005l.86-.175a.038.038 0 01.015 0 .033.033 0 01.013.006.033.033 0 01.016.024.038.038 0 010 .015.034.034 0 01-.005.014.045.045 0 01-.011.01.036.036 0 01-.014.007l-.859.174-.007.001zm-.133.315a.038.038 0 01-.033-.063.038.038 0 01.026-.014l.86-.175c.01-.002.02 0 .028.005a.037.037 0 01.011.054.03.03 0 01-.01.01.038.038 0 01-.014.006l-.86.175-.008.002z" fill="#0A0A0A"/><path d="M169.815 38.076l-1.466.427c1.516-2.788 1.72-5.8-1.536-8.103l1.273-.252c3.017 2.117 3.244 5.14 1.729 7.928z" fill="#2B2B2B"/><path d="M167.451 30.743a.035.035 0 01-.024-.009.04.04 0 01-.014-.022.042.042 0 01.006-.029.04.04 0 01.024-.016l.86-.176a.04.04 0 01.029.007.04.04 0 01.016.024.038.038 0 010 .015.035.035 0 01-.006.014.029.029 0 01-.01.01.036.036 0 01-.014.006l-.86.175-.007.001zm.282.22a.036.036 0 01-.024-.009.034.034 0 01-.013-.022.038.038 0 010-.015c0-.005.002-.01.005-.014a.046.046 0 01.011-.01.04.04 0 01.013-.006l.86-.175a.038.038 0 01.028.006.033.033 0 01.011.01.038.038 0 010 .043.03.03 0 01-.01.01.036.036 0 01-.014.006l-.86.175-.007.001zm.263.235a.038.038 0 01-.033-.063.038.038 0 01.026-.015l.86-.175c.01-.002.02 0 .028.006a.037.037 0 01.017.04.037.037 0 01-.006.014.046.046 0 01-.011.01.036.036 0 01-.014.006l-.859.175-.008.002zm.245.248a.035.035 0 01-.024-.008.04.04 0 01-.014-.023.038.038 0 01.006-.029.043.043 0 01.01-.01.046.046 0 01.014-.006l.86-.175a.04.04 0 01.029.006.04.04 0 01.016.024.038.038 0 01-.006.03.04.04 0 01-.01.01.04.04 0 01-.014.005l-.86.175-.007.001zm.226.262a.038.038 0 01-.042-.035.04.04 0 01.008-.029.04.04 0 01.026-.013l.86-.172a.04.04 0 01.029.006.04.04 0 01.016.04.063.063 0 01-.005.014.046.046 0 01-.011.01.036.036 0 01-.014.006l-.856.172h-.011zm.206.272a.04.04 0 01-.038-.03.048.048 0 01.006-.029.04.04 0 01.025-.017l.859-.175a.04.04 0 01.029.006.03.03 0 01.01.01.036.036 0 01.006.014l.001.015a.037.037 0 01-.006.015.033.033 0 01-.011.01.036.036 0 01-.014.006l-.859.175h-.008zm.187.285a.036.036 0 01-.024-.009.034.034 0 01-.013-.022l-.001-.015a.036.036 0 01.006-.014.032.032 0 01.011-.01.032.032 0 01.013-.007l.86-.175c.01-.002.021 0 .029.006a.039.039 0 01.011.055.04.04 0 01-.025.016l-.859.175h-.008zm.17.294a.038.038 0 01-.024-.009.034.034 0 01-.013-.022.039.039 0 01-.001-.015.037.037 0 01.006-.014.032.032 0 01.011-.01.032.032 0 01.013-.006l.86-.175a.038.038 0 01.015 0c.005.001.01.003.014.006a.042.042 0 01.016.024.039.039 0 01-.006.03.03.03 0 01-.01.01.036.036 0 01-.014.006l-.859.175h-.008zm.148.302a.038.038 0 01-.037-.03c-.002-.01 0-.02.006-.03a.037.037 0 01.024-.016l.86-.175c.009-.002.02 0 .028.006a.04.04 0 01.017.024.038.038 0 01-.006.029.043.043 0 01-.01.01.046.046 0 01-.014.006l-.86.176h-.008zm.129.311a.037.037 0 01-.024-.009.034.034 0 01-.013-.022c-.002-.01 0-.02.006-.03a.036.036 0 01.024-.016l.861-.174a.038.038 0 01.029.006.045.045 0 01.011.01l.006.015a.037.037 0 01-.006.03.034.034 0 01-.011.01.036.036 0 01-.014.006l-.86.175-.009-.001zm.109.318a.038.038 0 01-.042-.035.04.04 0 01.008-.029.04.04 0 01.026-.014l.859-.175a.041.041 0 01.03.006.042.042 0 01.01.01l.006.015a.04.04 0 01-.006.03.03.03 0 01-.01.01.044.044 0 01-.014.006l-.86.176h-.007zm.088.322a.04.04 0 01-.038-.03.043.043 0 01.007-.03.036.036 0 01.024-.016l.859-.175a.038.038 0 01.029.006.033.033 0 01.011.011c.003.004.005.01.006.014a.04.04 0 01-.006.03.044.044 0 01-.01.01.05.05 0 01-.015.007l-.859.174h-.008zm.068.328a.038.038 0 01-.037-.03.04.04 0 01.006-.03.039.039 0 01.024-.016l.86-.175c.01-.002.02 0 .028.006a.038.038 0 01.017.04.036.036 0 01-.006.013.041.041 0 01-.01.011.044.044 0 01-.014.006l-.86.174-.008.001zm.048.329a.039.039 0 01-.025-.008.046.046 0 01-.013-.023.038.038 0 01.006-.029.044.044 0 01.01-.01.046.046 0 01.014-.006l.859-.176a.038.038 0 01.029.006.047.047 0 01.011.011c.003.005.004.01.005.014.002.005.002.01.001.015a.036.036 0 01-.006.014.033.033 0 01-.011.01.033.033 0 01-.013.006l-.863.176h-.004zm0 .338a.038.038 0 01-.033-.063.038.038 0 01.026-.014l.859-.175a.04.04 0 01.015 0 .046.046 0 01.014.005.042.042 0 01.016.025.038.038 0 010 .015.062.062 0 01-.005.014.046.046 0 01-.011.01.036.036 0 01-.014.006l-.862.176-.005.001zm-.021.337a.036.036 0 01-.024-.01.037.037 0 01-.008-.051.04.04 0 01.01-.01.043.043 0 01.014-.006l.86-.175a.038.038 0 01.029.006.034.034 0 01.011.01l.006.015a.04.04 0 01-.031.046l-.86.175h-.007zm.021.336a.038.038 0 01-.025-.009.045.045 0 01-.013-.022.038.038 0 01.006-.03.041.041 0 01.01-.01.044.044 0 01.014-.006l.859-.174a.04.04 0 01.03.006.04.04 0 01.016.025c.002.01 0 .02-.006.03a.036.036 0 01-.024.016l-.863.173h-.004zm-.048.337a.038.038 0 01-.037-.03.04.04 0 01.006-.03.039.039 0 01.024-.016l.86-.175a.038.038 0 01.028.006.046.046 0 01.011.01.037.037 0 01.006.029.036.036 0 01-.006.014.03.03 0 01-.01.01.038.038 0 01-.014.006l-.86.175-.008.001zm-.068.336a.038.038 0 01-.024-.009.04.04 0 01-.014-.022.043.043 0 01.007-.03.036.036 0 01.024-.015l.859-.176a.038.038 0 01.029.006.034.034 0 01.011.011.037.037 0 01.006.03.044.044 0 01-.016.025.052.052 0 01-.015.005l-.859.176-.008-.001zm-.089.333a.037.037 0 01-.024-.008.034.034 0 01-.013-.023.038.038 0 010-.015.062.062 0 01.005-.014.046.046 0 01.011-.01.038.038 0 01.014-.006l.859-.175a.038.038 0 01.015 0 .033.033 0 01.013.005.033.033 0 01.011.011.038.038 0 01.006.029.064.064 0 01-.005.014.046.046 0 01-.011.01.036.036 0 01-.014.006l-.86.176h-.007zm-.066.33a.038.038 0 01-.042-.035.04.04 0 01.008-.028.04.04 0 01.026-.014l.86-.175c.01-.002.021 0 .029.006a.039.039 0 01.017.025.043.043 0 01-.006.03.04.04 0 01-.025.016l-.859.175h-.008zm-.146.326a.038.038 0 01-.024-.009.034.034 0 01-.013-.022c-.002-.01 0-.02.006-.028a.037.037 0 01.024-.017l.859-.175a.04.04 0 01.029.006.046.046 0 01.011.01.036.036 0 01.006.015.048.048 0 01-.006.028.04.04 0 01-.024.017l-.86.174-.008.001zm-.154.321a.04.04 0 01-.029-.008.04.04 0 01-.005-.055.038.038 0 01.026-.014l.86-.175a.04.04 0 01.029.006.037.037 0 01.016.025.04.04 0 01-.006.03.038.038 0 01-.025.016l-.859.175h-.007zm-.133.315a.036.036 0 01-.024-.009.04.04 0 01-.014-.022.038.038 0 01.006-.029.044.044 0 01.01-.01.038.038 0 01.014-.006l.86-.175a.038.038 0 01.029.005.045.045 0 01.011.011l.006.014a.04.04 0 01-.031.047l-.86.175h-.007zm-.181.335a.038.038 0 01-.024-.01.034.034 0 01-.013-.022.038.038 0 010-.015.06.06 0 01.005-.014.045.045 0 01.011-.01.036.036 0 01.014-.006l.859-.172a.038.038 0 01.015 0 .05.05 0 01.015.006.042.042 0 01.01.011c.003.004.005.01.006.014a.04.04 0 01-.006.03.03.03 0 01-.01.01.044.044 0 01-.014.007l-.86.175-.008-.004z" fill="#0A0A0A"/><path d="M164.774 41.138l-4.673-2.542-.578-1.43-.144-5.986.551-.808 4.897 2.013.537 1.31.211 6.529-.499.914h-.302z" fill="#454545"/><path d="M165.076 40.86l.354-.755-.262-6.528-.499-1.047-4.384-1.893-.303-.053-.459.635.171 5.867.486 1.39 4.725 2.569.171-.186z" fill="#0A0A0A"/><path d="M163.139 36.178l-.106-3.55 1.467.65-.489 3.286-.872-.386z" fill="#1B1B1B"/><path d="M163.14 32.676v3.502l-2.914 1.06-.046-5.9 2.96 1.338z" fill="#0A0A0A"/><path d="M160.226 37.238l5.204 2.867-.119-2.967-2.171-.96-2.914 1.06z" fill="#2B2B2B"/><path d="M160.179 31.339l4.988 2.238-.499-1.047-4.384-1.893-.433.556.145 6.045.472 1.049 4.607 2.573.355-.755-5.205-2.867-.046-5.9z" fill="#333"/><path d="M165.076 41.138l1.234-.543.407-.57-.106-6.263-.603-1.55-4.542-1.933-1.536.093 4.896 2.013.538 1.31.211 6.529-.499.914z" fill="#0A0A0A"/><path d="M166.404 40.464l1.56-.544.394-.623v-5.204l-.144-.847-.618-1.245-.971-.662-3.485-1.191-1.674.131 4.542 1.934.604 1.55.105 6.263-.313.438z" fill="#2B2B2B"/><path d="M163.505 32.829s-.238.641-.179 1.675a6.44 6.44 0 00.468 1.962l1.52.673-.013-.332s-.943-1.46-.802-3.53l-.994-.448z" fill="#0A0A0A"/><path d="M164.499 33.278l.667.299.13 3.23s-.925-1.366-.797-3.53zm-.765-10.142s-.597.037-.597.771 1.013 1.664 1.58 1.664c.566 0 .313-.549.313-.549l-1.296-1.886z" fill="#1B1B1B"/><path d="M155.888 27.478a40.74 40.74 0 005.099-.529c2.639-.457 3.213-.771 3.213-.771s.489-1.07.117-1.907c-.536-1.195-1.518-1.029-1.518-1.029l-7.378 1.349.467 2.887z" fill="#2B2B2B"/><path d="M155.888 27.478c.463-.076.734-.784.605-1.581-.129-.797-.609-1.382-1.073-1.305-.463.076-.734.784-.605 1.58.129.798.61 1.382 1.073 1.306z" fill="#0A0A0A"/><path d="M166.361 25.715l2.619.867 1.766-.437-2.523-.825-1.862.395z" fill="#333"/><path d="M168.164 28.14s.688.155 1.683-.098c.994-.253.899-.37.899-.37v-1.528l-1.766.438-.816 1.559z" fill="#2B2B2B"/><path d="M168.98 26.582v1.25s-.229.351-1.516.351l-1.103-2.47 2.619.869zm.918-1.576c-.277-.785-1.071-1.266-1.853-1.395-.181-.029-.258.25-.077.28.672.11 1.411.509 1.652 1.192.061.175.339.1.277-.077h.001z" fill="#0A0A0A"/><path d="M167.375 23.42l.79.113c.073.15.086.323.035.483l-.745.434-.08-1.03z" fill="#2B2B2B"/><path d="M166.587 23.154h.536s.29.114.405.71c.114.596-.28.804-.28.804l-.661-1.514z" fill="#0A0A0A"/><path d="M164.21 28.644c.011-.01 3.255-.463 3.255-.463a4.74 4.74 0 00.098-1.252c-.043-.978-.945-1.234-.945-1.234l-2.884.192s-.495-.048-.942.403l1.418 2.354zm-.476-5.509l1.293 1.887 2.218-.357a.415.415 0 00.06-.397c-.086-.225-.841-1.285-.841-1.285s-.099-.251-.624-.185c-.525.067-2.106.337-2.106.337z" fill="#2B2B2B"/><path d="M164.107 28.64l-.861-.147c-.454-.055-.806-.54-.782-1.085l.019-.418c.025-.54.417-.94.872-.883l.814.099c.455.056.807.54.782 1.086l-.019.417c-.024.542-.371.986-.825.93zm3.227-3.796l.194.623-2.918.678-.089-.65 2.813-.651z" fill="#0A0A0A"/><path d="M164.522 25.495l-.936-.14-.039.596 1.063.194-.088-.65z" fill="#1B1B1B"/><path d="M163.586 25.355l3.052-.76.697.25-2.813.65-.936-.14z" fill="#333"/><path d="M162.892 28.186c-.013.588.159 1.318.668 1.666.98.668 1.795-.25 2.714-.549a7.525 7.525 0 011.999-.349c.44-.018.876.03 1.316.032.785 0 1.331-.288 1.3-1.158-.006-.186-.293-.186-.287 0 .013.402-.083.722-.502.825-.325.077-.684.037-1.014.022a8.36 8.36 0 00-2.667.278c-.372.099-.73.244-1.066.432-.473.273-.895.584-1.454.324-.558-.26-.732-.95-.72-1.526 0-.186-.283-.186-.287 0v.003z" fill="#0A0A0A"/><path d="M169.23 25.65v-.528h1.517v1.023l-1.517-.495z" fill="#1B1B1B"/><path d="M170.658 25.698l.286.077c.234.375.335.82.287 1.26-.091.702-.279.795-.279.795h-.206s-.42-.212-.42-1.066c0-.854.332-1.066.332-1.066z" fill="#0A0A0A"/><path d="M176.327 34.355c-.038.282-.314.562-.586.617l-1.495.32c-.272.059-.441-.126-.403-.409.09-.655.09-.981 0-1.598a.52.52 0 01.403-.583l1.499-.317c.272-.058.548.104.586.37.086.618.086.942-.004 1.6zm2.969-.169c-.029.369-.239.7-.446.736l-1.138.202c-.208.037-.336-.232-.306-.603.068-.705.068-1.415 0-2.12-.029-.357.099-.674.306-.71l1.138-.202c.207-.037.417.22.446.578a11.03 11.03 0 010 2.119z" fill="#333"/><path d="M176.12 33.532a.352.352 0 01-.255.27l-.651.14c-.118.025-.192-.055-.175-.178.039-.23.039-.465 0-.695a.226.226 0 01.175-.253l.651-.14a.207.207 0 01.223.084.2.2 0 01.032.078c.039.23.039.464 0 .694z" fill="#2B2B2B"/><path d="M175.362 31.776a.21.21 0 01-.009.121.212.212 0 01-.389.022.216.216 0 01.121-.303.23.23 0 01.277.16zm.727-.198a.22.22 0 01-.083.219.215.215 0 01-.232.012.214.214 0 01-.106-.207.213.213 0 01.144-.183.23.23 0 01.277.16zm.721-.16a.21.21 0 01-.01.121.212.212 0 01-.188.137.211.211 0 01-.201-.116.22.22 0 01.023-.233.215.215 0 01.099-.07.228.228 0 01.277.16zm.3 1.172a.21.21 0 01-.128.194.21.21 0 01-.229-.037.223.223 0 01-.063-.105.22.22 0 01.072-.222.214.214 0 01.112-.047.228.228 0 01.161.06c.044.04.071.096.075.156zm.097.785a.217.217 0 01-.129.194.214.214 0 01-.288-.264.217.217 0 01.179-.148.232.232 0 01.238.218zm0 .789a.22.22 0 01-.128.195.211.211 0 01-.229-.037.215.215 0 01-.06-.227.218.218 0 01.18-.147.225.225 0 01.237.216z" fill="#0A0A0A"/><path d="M179.237 32.396c0 .216-.13.392-.291.392-.16 0-.291-.176-.291-.392 0-.216.13-.392.291-.392.162 0 .291.175.291.392zm0 1.053c0 .217-.13.392-.291.392-.16 0-.291-.175-.291-.392 0-.217.13-.392.291-.392.162 0 .291.177.291.392z" fill="#2B2B2B"/><path d="M181.543 31.96l-.212-.33a.377.377 0 00.212-.34c.001-.185-.119-.293-.318-.248l-.447.1-.008.99.203-.045.003-.352.149-.034.184.31.234-.052zm-.352-.459l-.213.048.002-.267.213-.048c.082-.018.143.019.142.102-.001.083-.063.147-.144.165zm1.174.275l.001-.186-.472.106.002-.225.462-.103.002-.185-.462.103.001-.21.473-.105.001-.186-.675.151-.009.99.676-.15zm.535-.12a.63.63 0 00.511-.607c.002-.299-.203-.45-.502-.383l-.377.084-.008.99.376-.084zm.002-.185l-.174.038.006-.619.173-.038c.196-.044.298.068.296.243a.385.385 0 01-.301.376z" fill="#EAEAEA"/><path d="M192.787 42.275c1.745-1.048.709-.685 1.189-1.932-.392-1.71-2.032-2.88-3.647-1.897-1.293.786-3.358 3.174-5.456 6.679-2.232-.95-.749.802-1.134 2.979.332 3.112 7.677-5.626 9.048-5.83z" fill="#FBBEAE"/><path d="M178.556 37.05a3.454 3.454 0 00.098-1.86 7.588 7.588 0 00-.521-1.765.177.177 0 00-.133-.11.184.184 0 00-.102.019.202.202 0 00-.081.072.631.631 0 00-.114.472c.015.154.066.308.092.47a4.88 4.88 0 01-.113 1.809c-.084.425-.282 1.242.047 1.565.329.323.704-.348.827-.671z" fill="#F7C2B5"/><path d="M178.476 37.34c-.03.267 0 .111 0 .701.146.982.236 1.528 0 1.834-.237.306-1.357-.493-1.709-.425-.178.037.415-1.168.231-1.136-.195-.32-.298-.94-.697-1.06-1.239-.369-.501-.021-1.305-1.587-.589-1.147-.245-.395-.697-1.412-.157-.594.135-.784.435-.177 0 0 .348.795.697 1.236.102.13.098-.283-.435-1.677-.221-.578-.349-.794-.349-.794-.232-.335.261-.596.522 0 .426.97.57 1.29.958 2.206.348-.088-.564-2.102-.744-2.681-.727-1.235-.037-1.023.212-.53.329.652.907 2.152 1.17 2.762.32 0-.432-1.775-.638-2.233-.206-.457.091-.801.348-.23.257.572 1.112 2.57 1.112 2.57.54.907.756 1.47.889 2.634z" fill="#FBBEAE"/><path d="M179.001 43.696c1.219 1.676 3.107 4.343 3.744 4.853.636.51.7.713 1.219.529 1.327-.53 1.141-.743 1.327-2.356 0-2.232-5.855-6.467-6.813-8.144-1.044-1.235-4.43-4.853-2.35.265.609 1.5 2.002 3.441 2.873 4.853z" fill="#FBBEAE"/><path d="M182.135 47.225c1.088 1.324 1.853 2.884 9.403-4.323-1.292 1.703-6.906 6.608-7.923 6.264-1.045-.353-2.572-2.647-2.873-3.088-.784-1.147-3.657-4.94-4.528-7.059.784 1.589 4.18 6.089 5.921 8.206z" fill="#EEB1A2"/><path d="M195.827 39.96c1.497-1.596 1.007-3.792 0-4.595-1.362-1.074-3.66-.047-4.916 1.298-.891.934-1.781 1.868-2.503 2.801 1.47.44 2.387 2.28 3.411 3.382.239.249.52.449.829.588 1.585-1.718 2.877-3.156 3.179-3.473z" fill="#C54848"/><path d="M186.226 30.007c.732.284 2.362.35 3.407-.092-.231.86-1.865 1.81-3.407.092z" fill="#EEB1A2"/><path d="M29.344 38.031s1.065.52.71 1.734c-.266 1.127-.888 2.254-1.865 2.168-.976-.087.09-4.162 1.155-3.902z" fill="#393939"/><path d="M14.92 71.108l.46-.733c-4.67-2.93-5.854-33.166-5.92-45.154 1.052-.066 4.407-.2 9.34 0 10.196.466 18.09-1.731 24.404-3.596 4.67-1.332 8.682-2.464 12.497-2.264 18.484.998 24.47-.6 27.627-2.065.855-.4 1.71-.8 2.5-1.199 2.828-1.332 5.262-2.53 7.498-3.197 2.434-.732 3.223.134 3.947.866l.197.2.066.067c0 .066-.329.4-.526.533-.46.466-1.119 1.065-1.053 1.93.132 1.333 1.447 1.732 2.105 1.732v-.865.4-.4c-.066 0-1.184 0-1.316-.933 0-.466.395-.865.856-1.198.328-.4.723-.733.723-1.133 0-.266-.066-.466-.263-.666l-.132-.2c-.723-.799-1.841-1.997-4.801-1.132-2.302.733-4.802 1.865-7.63 3.264-.79.4-1.645.799-2.5 1.198-3.091 1.466-8.946 2.93-27.232 1.998-3.947-.2-8.025.933-12.76 2.331-6.578 1.865-14.077 3.996-24.141 3.53-6.051-.266-9.735 0-9.8 0H8.67v.4c0 1.731.197 42.423 6.248 46.285z" fill="#7F7F7F"/><path d="M33.732 115.395s.46 1.399.921 2.132c.46.666 2.763 4.129 3.026 4.661.263.533.131 1.599-.855 2.465-1.053.865-1.908 1.332-2.763.532-.855-.799-1.776-3.396-2.236-4.595-.46-1.132-1.053-2.997-1.053-2.997s-1.381-3.263-.131-3.396c1.38-.067 3.091 1.198 3.091 1.198zm-8.617-13.386s.395 1.465.46 1.798c.067.4 0 1.066 0 1.066s-.591.999-1.578 1.665c-.987.599-1.644.865-1.644.865s-2.171 1.865-2.763 2.265c-.592.399-1.776.533-2.17.333-.395-.2-.922-1.332-.724-1.998.197-.666.526-1.332.986-1.865.46-.466 2.5-1.465 3.092-1.798.592-.4 1.052-.932 1.118-1.066.066-.066 2.566-1.465 3.223-1.265z" fill="#1C1C1C"/><path d="M16.367 73.838s-.855 1.732-.33 7.393c.527 5.66 1.645 8.39 2.369 10.322.723 1.932 1.907 5.395 2.17 6.66.33 1.265 1.053 4.329 1.119 4.795.131.466.657.866 1.381.933.724.066 1.842-.6 2.105-.933.197-.333.329-.666.329-.666s-.066-2.997.066-4.395c.131-1.332.263-2.132.328-3.463.066-1.266-.197-6.394-.197-6.394s-.658-7.126-1.381-8.125c-.724-1.066-1.513-5.794-3.815-6.26-2.302-.4-4.144.133-4.144.133z" fill="#5C84B8"/><path d="M33.732 73.239s.329 4.528.46 6.66c.132 2.13.066 8.924 0 9.057-.065.133.527 7.925.264 9.124-.198 1.198.197 2.997.197 5.727-.066 2.731-.79 9.324-.658 10.656.132.932.132 1.398.132 1.398s-.592.999-1.579.866c-.92-.066-2.04-.466-2.368-1.398-.329-.933-.46-.866-.46-1.332 0-.466-1.316-9.391-1.316-9.391s-1.381-5.527-1.645-7.658c-.263-2.132-1.512-8.458-1.512-8.458s-2.04-3.93-3.092-4.795c-1.052-.933-1.973-4.662-1.776-6.793.132-2.132 6.644-5.595 6.644-5.595s6.512-1.065 6.709 1.932z" fill="#71A0DD"/><path d="M22.615 41.737s1.513.866 2.302 1.732c.79.866 5.854 2.73 5.854 2.73s1.382-.799 1.974-.532c.592.266 3.88 6.46 3.552 10.456-.33 3.929-1.447 8.258-1.382 10.922.066 2.664-.263 6.127-.263 6.526-.065.4-3.683 2.664-9.537 3.663-5.789.933-8.815-1.531-9.21-1.931l-.92-.932s1.513-10.19 1.842-13.12c.328-2.93.065-8.591.46-11.122.395-2.53 1.184-4.995 2.565-6.793 1.382-1.798 2.763-1.599 2.763-1.599z" fill="#1C1C1C"/><path d="M23.866 42.803s1.118-.466 1.184-.2c.066.267-3.092 5.195-3.486 7.526-.395 2.331-5.46 19.513-5.46 19.513l-.92.4s4.8-18.048 5.196-19.98c.46-1.864 3.354-6.66 3.486-7.259z" fill="#190009"/><path d="M30.574 43.536s-.263 1.531-.066 2.13l.264.534s-1.58 1.465-2.632 2.197c-1.052.733-2.302 1.132-3.288.866-1.053-.266-1.513-1.265-1.513-1.532 0-.266.723-1.731.723-2.464 0-.8.33-3.53.197-4.329-.065-.866 4.21 1 6.315 2.598z" fill="#F8C5A1"/><path d="M17.09 39.473s1.973.8 2.302 1.066c.329.266 3.223 1.199 3.223 1.199L17.55 48.93s-.789-.266-1.118-.333c-.329-.133-.592-.266-.855-1.199-.263-.932-.592-4.795-.46-5.86 0-1.066.789-2.198 1.973-2.065z" fill="#404040"/><path d="M11.368 23.69s.658.066.92.2c.264.066.33.066.33.066l1.184-.466s.526-.6.658-.933c.197-.333.92-.133.723.333-.197.466-.131.933-.197 1.066-.132.133-1.382 1.265-1.71 1.465-.264.2-.856.4-1.053.466-.197.067-1.118.267-1.644-.067-.527-.332-.46-.799-.198-1.331.263-.533.987-.8.987-.8z" fill="#1C1C1C"/><path d="M32.154 45.667s1.184-.466 1.25-.533c.066-.066 4.67 1.266 4.67 3.197 0 1.998-.658 4.728-.79 4.995-.13.266-.657 2.264-1.38 2.53-.79.333-2.829-.666-3.552-1.998-.724-1.398-1.513-3.729-1.58-4.328.067-.6.396-2.93 1.382-3.863z" fill="#404040"/><path d="M32.895 29.722s.948 2.041.729 4.868c-.219 2.826-.292 5.967-1.093 7.38-.73 1.335-2.187 2.513-2.916 2.513-.729 0-1.603-.236-2.478-.55-.802-.235-1.75-.942-2.333-1.727-.51-.785-.728-2.827-.874-3.848-.146-1.02-.583-2.355-.146-3.768.437-1.414 1.822-4.319 2.551-5.026.875-.706 3.936-1.334 6.56.158zM16.104 45.8c-.066 0-1.908-1.665-3.355-3.13-1.447-1.465-2.368-3.064-2.565-3.263-.198-.2-.46-1.798-.658-2.531-.197-.666-.592-3.33-.395-5.66.198-2.398.526-5.529.526-5.795 0-.333.066-1.199.264-1.665.197-.466.855-.999.986-1.066.132-.066.79-.266.79-.266s.131-.732 0-.799c-.132-.067-.592-.266-.592-.266s-.395.066-.46-.134a.54.54 0 01.196-.599c.198-.133.198-.266.198-.266s.066-.333.263-.4l.131-.067s0-.266.264-.333c.263-.066 1.052-.066 1.052-.066s.131-.267.46-.067c.33.133 1.053.733 1.119.933.065.2.394.466.46.799s.395 2.198.329 2.597c-.066.4-1.25 1.132-1.71 1.532-.46.4-.855.333-1.053.866-.197.532-.131 1.665 0 2.264.132.6.527 3.863 1.382 6.26.855 2.398.986 2.93 1.118 3.197.131.266 2.236 1.665 2.63 2.464.396.8.067 5.128-1.38 5.461z" fill="#FCD1B3"/><path d="M33.206 45.667s-.527 2.33.394 4.862c.921 2.597 1.645 3.196 1.776 3.33.132.133.855-1.599 1.645-2.598.79-.999.986-1.731 1.71-4.595.79-2.797 1.842-5.86 1.907-6.793.066-.866-.131-3.93-.591-7.859-.46-3.862-1.448-8.325-1.448-8.325s.066-1.265 0-1.93c-.131-.667-.657-2.465-.723-2.665-.066-.2-.46-4.662-.724-4.995-.263-.266-.394-.466-.592-.466-.197 0-.394-.066-.394.6 0 .599-.132 5.26-.066 5.26.066.067-.658-5.527-.724-5.593-.065-.134-.92-.134-.92.466 0 .533.591 4.928.591 4.928s-1.71 1.199-1.841 1.199c-.132 0 .066 1.199.066 1.199l-.921-1.066s-.132-1.199-.264-1.532c-.065-.333-.723-.4-.789-.333-.066.134-.131.8-.131.8s-.33.932-.198 1.465c.132.466 1.053 1.931 1.184 2.13.132.2.921.733 1.316 1.2.46.466.855.599.855.599s.724 1.265.855 1.998c.066.732.395 6.127.329 8.058-.066 1.932 0 4.462-.066 4.995 0 .133-.131.866-.329 1.399-.592 1.132-1.644 3.596-1.907 4.262z" fill="#FCD1B3"/><path d="M26.757 30.622s1.714-.305 2.96.076c1.324.382 2.414.077 2.882.992.467.915 1.09 1.143 1.09 1.83 0 .686.078 2.211.078 2.211s.623-.991.623-2.745.468-2.898-1.791-4.728c-2.26-1.906-5.608-.686-6.465.077-1.168 0-2.726 1.753-3.038 3.202-.311 1.449-.39 3.508-.078 5.109.546-.153.857-.839.857-.839s.701-1.525 1.168-1.982c.468-.458.857-1.297.78-1.907.155-.61.467-1.22.934-1.296z" fill="#81411C"/><path d="M24.424 35.774s.197-.666-.658-.999c-.79-.333-.79.6-.658 1.2.132.599.592 1.797.592 1.93 0 .134.658.4.724.134-.132-1.066 0-1.399 0-1.399v-.866z" fill="#FFDEC7"/><path d="M98.851 12.568l.066 2.064-93.93 9.59L4 23.357l.855-.933 93.996-9.856z" fill="#88571C"/><path d="M22.681 81.963l-8.748-5.128V68.71l8.748 5.061v8.192z" fill="#47333A"/><path d="M25.904 71.906l-8.683-5.128-3.289 1.932 8.749 5.061 3.223-1.865z" fill="#7A6B70"/><path d="M22.681 81.963l3.223-1.932v-8.125l-3.223 1.865v8.192z" fill="#190009"/><path d="M19.985 80.032l-5.591-3.264v-4.595l5.59 3.263v4.596z" fill="#47333A"/><path d="M21.168 74.704l-5.592-3.264-1.184.733 5.591 3.263 1.184-.732z" fill="#7A6B70"/><path d="M19.985 80.032l1.184-.666v-4.662l-1.184.732v4.596zm10.656-34.099s1.118-.466 1.184-.2c.066.267-1.842 4.862-2.236 7.126-.395 2.331-5 22.244-5 22.244l-.92.4s4.34-20.779 4.736-22.71c.46-1.865 2.104-6.327 2.236-6.86z" fill="#190009"/><path d="M98.851 34.612c1.908 0 3.42-1.532 3.42-3.463V20.027c0-1.932-1.512-3.463-3.42-3.463-1.907 0-3.42 1.531-3.42 3.463v11.122c0 1.931 1.513 3.463 3.42 3.463z" fill="#1C1C1C"/><path d="M95.102 20.293v2.198c-.065.599.33 1.198 1.119 1.598 1.447.866 3.815.866 5.262 0 .789-.466 1.118-1.066 1.052-1.665v-2.198h-.263c-.066.466-.395.933-.986 1.332-1.316.8-3.487.8-4.868 0-.592-.333-.92-.799-.987-1.265h-.329z" fill="url(#paint6_linear)"/><path d="M95.106 20.293c0 .533.395 1.132 1.118 1.532 1.447.866 3.816.866 5.263 0 .723-.4 1.052-.933 1.052-1.532v-.066c0-.267-.131-.533-.263-.733v.733c-.066.466-.395.932-.987 1.331-1.315.8-3.486.8-4.867 0-.592-.332-.921-.799-.987-1.265v-.799c-.197.266-.329.533-.329.8z" fill="#8A9196"/><path d="M95.102 27.552v2.198c-.065.6.33 1.199 1.119 1.598 1.447.866 3.815.866 5.262 0 .789-.466 1.118-1.065 1.052-1.665v-2.13h-.263c-.066.465-.395.932-.986 1.331-1.316.8-3.487.8-4.868 0-.592-.333-.92-.799-.987-1.265l-.329-.067z" fill="url(#paint7_linear)"/><path d="M95.106 27.552c0 .533.395 1.132 1.118 1.532 1.447.866 3.816.866 5.263 0 .723-.4 1.052-.933 1.052-1.465v-.067c0-.266-.131-.533-.263-.732v.732c-.066.466-.395.932-.987 1.332-1.315.8-3.486.8-4.867 0-.592-.333-.921-.8-.987-1.265v-.799c-.197.2-.329.466-.329.732z" fill="#8A9196"/><path d="M96.484 18.561c.132.666.92 1 1.842.8.855-.2 1.447-.866 1.315-1.466-.131-.666-.92-.999-1.841-.799-.79.2-1.447.866-1.316 1.465z" fill="#383838"/><path d="M97.8 12.168h.132c.065 0 .131-.067.131-.067.395-.266 1.052-.266 1.513 0 .066 0 .132.067.132.067h.197v4.462c0 .133-.066.333-.33.466-.394.266-1.052.266-1.512 0-.197-.133-.329-.333-.329-.466v-4.462h.066z" fill="url(#paint8_linear)"/><path d="M98.064 12.634c.395.266 1.053.266 1.513 0 .395-.267.395-.6 0-.866s-1.052-.266-1.513 0c-.394.2-.394.6 0 .866z" fill="#7A6B70"/><path d="M24.589 70.042h1.447l-.131.932h-1.448l.132-.932zm-8.354-4.795h1.447l-.329.799h-1.447l.329-.8z" fill="#686868"/><path d="M22.665 33.263s1.474-.077 2.081 1.315.434 3.248.087 3.866c-.347.619-1.128 1.083-1.821 1.083-.694.077-1.388-.85-1.562-1.392-.173-.464-.607-4.33 1.215-4.872z" fill="#393939"/><path d="M32.888 28.127s-1.739-.615-4.346-.307c-2.608.307-3.873 1.537-4.347 3.074a45.674 45.674 0 00-.79 2.922l-.553.23s-.237-3.382.711-4.074c.948-.692 1.422-2.537 4.662-2.921 3.24-.308 4.268.692 4.663 1.076z" fill="#393939"/><path d="M21.837 34.047s1.506-.071 2.127 1.208c.62 1.279.443 2.984.088 3.553-.354.568-1.24.782-1.949.71-1.506-.213-1.24-1.35-1.418-1.847-.177-.498-.62-3.198 1.152-3.624z" fill="#262626"/><path d="M22.564 34.147s1.016.31 1.016 2.015c.068 1.782 0 2.635-.813 3.177-.745.542-1.286-.233-1.286-.233l-.203-4.494c.067 0 .27-.852 1.286-.465z" fill="#393939"/><path d="M21.341 34.05s.967.334 1.339 1.589c.372 1.254 0 3.513-.744 3.847-.744.335-1.264-1.254-1.413-2.593-.149-1.422.595-2.927.818-2.844z" fill="#262626"/><path d="M29.64 44.283l.152.585-.38.669s-2.2.334-2.655.25c-.456-.083-3.719-3.594-4.022-4.263-.228-.669-.531-2.09-.531-2.09l-.152-.502s.455-.25.683-.167l.227.084s.456 2.257.683 2.424c.152.251 3.112 3.595 3.415 3.595.228-.167 2.58-.585 2.58-.585z" fill="#393939"/><path d="M22.206 33.288s.233-5.612 6.038-6.295c3.56 0 3.405.38 3.87.683-.155-.076-5.263-1.138-7.586 1.744-1.393 2.882-1.625 4.626-1.625 4.626l-.851-.53.154-.228z" fill="#7B7B7B"/></g><defs><linearGradient id="paint0_linear" x1="111.063" y1="50.249" x2="108.142" y2="50.249" gradientUnits="userSpaceOnUse"><stop stop-color="#231F22"/><stop offset=".134" stop-color="#282327"/><stop offset=".214" stop-color="#2E282D"/><stop offset=".217" stop-color="#453D44"/><stop offset=".622" stop-color="#4A4148"/><stop offset=".629" stop-color="#5D525B"/><stop offset=".747" stop-color="#6C5F69"/><stop offset=".843" stop-color="#72646F"/><stop offset=".89" stop-color="#71646E"/><stop offset=".916" stop-color="#5E535C"/></linearGradient><linearGradient id="paint1_linear" x1="111.728" y1="3.46" x2="107.478" y2="3.46" gradientUnits="userSpaceOnUse"><stop stop-color="#231F22"/><stop offset=".134" stop-color="#282327"/><stop offset=".214" stop-color="#2E282D"/><stop offset=".217" stop-color="#453D44"/><stop offset=".622" stop-color="#4A4148"/><stop offset=".629" stop-color="#5D525B"/><stop offset=".747" stop-color="#6C5F69"/><stop offset=".843" stop-color="#72646F"/><stop offset=".89" stop-color="#71646E"/><stop offset=".916" stop-color="#5E535C"/></linearGradient><linearGradient id="paint2_linear" x1="63.315" y1="32.517" x2="134.162" y2="153.714" gradientUnits="userSpaceOnUse"><stop offset=".013" stop-color="#8FBDF9"/><stop offset=".061" stop-color="#6897D5"/><stop offset=".522" stop-color="#4676B5"/><stop offset=".659" stop-color="#4C7AB5"/></linearGradient><linearGradient id="paint3_linear" x1="48.726" y1="42.262" x2="49.867" y2="44.215" gradientUnits="userSpaceOnUse"><stop offset=".084" stop-color="#5E535C"/><stop offset=".11" stop-color="#71646E"/><stop offset=".157" stop-color="#72646F"/><stop offset=".254" stop-color="#6C5F69"/><stop offset=".371" stop-color="#5D525B"/><stop offset=".378" stop-color="#4A4148"/><stop offset=".783" stop-color="#443D43"/><stop offset=".786" stop-color="#2E282D"/><stop offset=".866" stop-color="#282327"/><stop offset="1" stop-color="#231F22"/></linearGradient><linearGradient id="paint4_linear" x1="50.055" y1="84.495" x2="47.134" y2="84.495" gradientUnits="userSpaceOnUse"><stop stop-color="#231F22"/><stop offset=".134" stop-color="#282327"/><stop offset=".214" stop-color="#2E282D"/><stop offset=".217" stop-color="#453D44"/><stop offset=".622" stop-color="#4A4148"/><stop offset=".629" stop-color="#5D525B"/><stop offset=".747" stop-color="#6C5F69"/><stop offset=".843" stop-color="#72646F"/><stop offset=".89" stop-color="#71646E"/><stop offset=".916" stop-color="#5E535C"/></linearGradient><linearGradient id="paint5_linear" x1="50.72" y1="37.707" x2="46.47" y2="37.707" gradientUnits="userSpaceOnUse"><stop stop-color="#231F22"/><stop offset=".134" stop-color="#282327"/><stop offset=".214" stop-color="#2E282D"/><stop offset=".217" stop-color="#453D44"/><stop offset=".622" stop-color="#4A4148"/><stop offset=".629" stop-color="#5D525B"/><stop offset=".747" stop-color="#6C5F69"/><stop offset=".843" stop-color="#72646F"/><stop offset=".89" stop-color="#71646E"/><stop offset=".916" stop-color="#5E535C"/></linearGradient><linearGradient id="paint6_linear" x1="102.535" y1="22.51" x2="95.119" y2="22.51" gradientUnits="userSpaceOnUse"><stop offset=".084" stop-color="#777E82"/><stop offset=".11" stop-color="#899095"/><stop offset=".157" stop-color="#8A9196"/><stop offset=".254" stop-color="#848B90"/><stop offset=".371" stop-color="#767D81"/><stop offset=".378" stop-color="#656A6E"/><stop offset=".783" stop-color="#606568"/><stop offset=".786" stop-color="#4B4F52"/><stop offset=".866" stop-color="#45494C"/><stop offset="1" stop-color="#414547"/></linearGradient><linearGradient id="paint7_linear" x1="102.535" y1="29.797" x2="95.119" y2="29.797" gradientUnits="userSpaceOnUse"><stop offset=".084" stop-color="#777E82"/><stop offset=".11" stop-color="#899095"/><stop offset=".157" stop-color="#8A9196"/><stop offset=".254" stop-color="#848B90"/><stop offset=".371" stop-color="#767D81"/><stop offset=".378" stop-color="#656A6E"/><stop offset=".783" stop-color="#606568"/><stop offset=".786" stop-color="#4B4F52"/><stop offset=".866" stop-color="#45494C"/><stop offset="1" stop-color="#414547"/></linearGradient><linearGradient id="paint8_linear" x1="99.878" y1="14.6" x2="97.778" y2="14.6" gradientUnits="userSpaceOnUse"><stop stop-color="#231F22"/><stop offset=".134" stop-color="#282327"/><stop offset=".214" stop-color="#2E282D"/><stop offset=".217" stop-color="#453D44"/><stop offset=".622" stop-color="#4A4148"/><stop offset=".629" stop-color="#5D525B"/><stop offset=".747" stop-color="#6C5F69"/><stop offset=".843" stop-color="#72646F"/><stop offset=".89" stop-color="#71646E"/><stop offset=".916" stop-color="#5E535C"/></linearGradient><clipPath id="clip0"><path fill="#fff" d="M0 0h200v130H0z"/></clipPath><filter id="filter0_di" x="43.451" y="3.808" width="135.056" height="128.192" filterUnits="userSpaceOnUse" color-interpolation-filters="sRGB"><feFlood flood-opacity="0" result="BackgroundImageFix"/><feColorMatrix in="SourceAlpha" values="0 0 0 0 0 0 0 0 0 0 0 0 0 0 0 0 0 0 127 0"/><feOffset dx="1"/><feGaussianBlur stdDeviation="1"/><feColorMatrix values="0 0 0 0 0 0 0 0 0 0 0 0 0 0 0 0 0 0 0.15 0"/><feBlend in2="BackgroundImageFix" result="effect1_dropShadow"/><feBlend in="SourceGraphic" in2="effect1_dropShadow" result="shape"/><feColorMatrix in="SourceAlpha" values="0 0 0 0 0 0 0 0 0 0 0 0 0 0 0 0 0 0 127 0" result="hardAlpha"/><feOffset dx="-2" dy="-2"/><feGaussianBlur stdDeviation="2"/><feComposite in2="hardAlpha" operator="arithmetic" k2="-1" k3="1"/><feColorMatrix values="0 0 0 0 0 0 0 0 0 0 0 0 0 0 0 0 0 0 0.15 0"/><feBlend in2="shape" result="effect2_innerShadow"/></filter></defs></svg>