<svg width="200" height="130" fill="none" xmlns="http://www.w3.org/2000/svg"><g clip-path="url(#clip0)"><g filter="url(#filter0_d)"><path d="M95.71 92.803c.347.189-.428 2.35-1.74 4.825-1.31 2.475-2.663 4.332-3.015 4.143-.351-.189.43-2.348 1.74-4.825 1.309-2.477 2.663-4.337 3.015-4.143z" fill="#D57D34"/><path d="M94.19 91.983l-4.756 8.969 1.519.814 4.756-8.969-1.52-.814z" fill="#D57D34"/><path d="M94.19 91.983c.347.19-.428 2.35-1.74 4.825-1.31 2.475-2.666 4.332-3.017 4.143-.351-.189.438-2.347 1.743-4.826 1.304-2.48 2.662-4.33 3.013-4.142z" fill="#EABA47"/><path d="M93.908 92.515c.233.126-.522 1.996-1.675 4.178-1.153 2.181-2.285 3.846-2.518 3.727-.233-.119.522-1.995 1.676-4.178 1.155-2.184 2.285-3.851 2.517-3.727z" fill="#D57D34"/><path d="M92.17 96.66c1.083-2.042 1.8-3.784 1.602-3.89-.199-.107-1.237 1.463-2.32 3.505-1.083 2.042-1.8 3.784-1.602 3.89.199.106 1.237-1.463 2.32-3.505z" fill="#E09F3E"/><path d="M91.21 96.866a.9.9 0 01.117-.275l.313-.59a.835.835 0 01.162-.249c.01 0 .063-.07.127-.183.46-.827.736-1.224.809-1.19h.019l-.682 1.287-.024-.012c-.042-.022-.19.215-.42.649-.229.433-.347.689-.302.711.118.065 1.536-2.592 1.703-2.503.073.04-.112.504-.538 1.351a.575.575 0 00-.082.208.9.9 0 01-.116.275l-.313.589a.828.828 0 01-.162.25c-.01 0-.062.07-.127.175-.468.863-.742 1.257-.817 1.213h-.016a.822.822 0 01.115-.275l.405-.774a.873.873 0 01.162-.248l.023.012c.041.021.2-.243.43-.675.229-.431.36-.713.317-.736-.12-.063-1.535 2.593-1.702 2.504-.073-.039.1-.483.522-1.315a.586.586 0 00.078-.2z" fill="#895523"/><path d="M90.205 100.785l-.047-.024a.087.087 0 00-.117.122.09.09 0 00.033.031l.047.025c.05.03.1.058.152.084.095.054.194.105.29.155l.574.306a.09.09 0 00.068.007.09.09 0 00.06-.113.09.09 0 00-.045-.053l-.572-.306-.28-.152c-.048-.023-.106-.059-.163-.082zm.598-.692l-.046-.025a.098.098 0 00-.045-.011.097.097 0 00-.044.011.091.091 0 00-.042.081c.001.015.006.03.014.043.008.012.02.023.033.03l.047.026c.049.034.106.058.151.084l.292.156.573.306a.09.09 0 00.083-.159l-.57-.308-.282-.15a1.647 1.647 0 00-.164-.084zm.596-.822l-.047-.024a.086.086 0 00-.12.033.083.083 0 00-.01.045.084.084 0 00.046.075l.049.025c.048.032.098.06.15.084l.291.157.573.304a.088.088 0 00.12-.036.09.09 0 00-.037-.12l-.57-.309-.28-.15a1.447 1.447 0 00-.165-.084zm.606-.982l-.047-.025a.087.087 0 00-.087 0 .08.08 0 00-.041.079.09.09 0 00.046.073l.047.027c.047.033.105.057.15.084l.292.155.572.306a.09.09 0 00.114-.041.092.092 0 00-.029-.118l-.572-.308-.28-.15a1.468 1.468 0 00-.165-.082zm.552-.979l-.047-.025a.086.086 0 00-.087 0 .08.08 0 00-.042.08.087.087 0 00.047.073l.047.026c.047.033.105.057.15.084l.292.155.572.306a.09.09 0 00.113-.041.091.091 0 00-.028-.118l-.572-.304-.28-.15a1.467 1.467 0 00-.165-.086zm1.936-4.612l-.047-.024a.09.09 0 01-.047-.075.082.082 0 01.041-.079.086.086 0 01.087 0l.047.025c.056.02.108.055.155.078.097.05.193.105.29.157l.573.308a.09.09 0 01-.018.165.09.09 0 01-.068-.007l-.572-.305-.28-.15a1.378 1.378 0 01-.161-.093zm-.236.887l-.038-.025a.088.088 0 01-.047-.075.082.082 0 01.042-.079.087.087 0 01.087 0l.047.025c.052.023.103.05.153.078.099.051.195.105.292.158l.572.307a.088.088 0 01.043.054.089.089 0 01-.03.095.089.089 0 01-.099.009l-.571-.304-.289-.15a1.398 1.398 0 01-.162-.093zm-.348.954l-.039-.025a.089.089 0 01-.005-.154.086.086 0 01.087 0l.049.025c.054.021.106.056.153.079l.29.157.572.308a.09.09 0 01-.085.159 51.82 51.82 0 00-.572-.306l-.28-.15a1.397 1.397 0 01-.17-.093zm-.472 1.061l-.047-.026a.089.089 0 01-.047-.073.08.08 0 01.042-.08.086.086 0 01.087 0l.047.027c.053.023.105.05.155.079l.29.155.572.308a.091.091 0 01-.085.16l-.58-.317-.28-.15a1.346 1.346 0 01-.154-.083zm-.502.998l-.047-.026a.087.087 0 01-.044-.076.088.088 0 01.13-.076l.048.026a1.4 1.4 0 01.153.079l.292.155.57.308a.09.09 0 01-.083.16l-.572-.307a11.005 11.005 0 01-.447-.243z" fill="#E09F3E"/><path d="M93.978 92.174a.322.322 0 00-.135.063.58.58 0 00-.096.089.422.422 0 00-.049.09.216.216 0 00-.001.038.028.028 0 00.023.027.03.03 0 00.013-.001.178.178 0 00.036-.018l.032-.02a.692.692 0 01.068-.042h.019l.036-.013h.065a.087.087 0 00.086-.003.087.087 0 00.04-.077.08.08 0 000-.04.107.107 0 00-.053-.067.172.172 0 00-.084-.026zm.076.348a.08.08 0 00-.03.061v.026c0 .014.003.027.01.039l.015.015a.028.028 0 00.007.012.029.029 0 00.012.008h.016a.074.074 0 00.06-.04v-.048a.067.067 0 000-.037.078.078 0 00-.02-.031.05.05 0 00-.034-.017.048.048 0 00-.036.012z" fill="#F6DB6F"/></g><g filter="url(#filter1_d)"><path d="M102.927 86.67c-.348.188.428 2.349 1.739 4.824 1.311 2.475 2.664 4.332 3.015 4.143.352-.189-.429-2.348-1.739-4.825-1.309-2.477-2.664-4.337-3.015-4.143z" fill="#D57D34"/><path d="M104.447 85.85l4.756 8.968-1.519.814-4.756-8.969 1.519-.814z" fill="#D57D34"/><path d="M104.447 85.85c-.347.188.428 2.349 1.739 4.824 1.312 2.476 2.666 4.332 3.018 4.143.351-.188-.439-2.347-1.743-4.826-1.304-2.479-2.662-4.33-3.014-4.141z" fill="#EABA47"/><path d="M104.729 86.38c-.233.127.522 1.997 1.675 4.179 1.153 2.182 2.285 3.846 2.518 3.727.233-.119-.522-1.995-1.676-4.178-1.155-2.184-2.285-3.851-2.517-3.727z" fill="#D57D34"/><path d="M106.466 90.526c-1.083-2.042-1.8-3.784-1.602-3.89.199-.106 1.237 1.463 2.32 3.505 1.083 2.042 1.8 3.784 1.602 3.89-.198.106-1.237-1.463-2.32-3.505z" fill="#E09F3E"/><path d="M107.426 90.732a.913.913 0 00-.117-.275l-.313-.59a.823.823 0 00-.161-.249c-.011 0-.063-.07-.127-.183-.461-.827-.736-1.224-.809-1.189h-.019l.682 1.287.024-.013c.042-.022.189.215.419.649.23.434.348.689.303.711-.119.065-1.536-2.592-1.703-2.503-.073.04.111.504.537 1.351a.561.561 0 01.082.209c.024.097.063.19.117.274l.313.589a.828.828 0 00.161.25c.011 0 .063.07.127.175.468.863.743 1.257.818 1.213h.015a.827.827 0 00-.114-.274l-.406-.775a.876.876 0 00-.161-.248l-.023.012c-.042.021-.2-.243-.429-.675-.23-.431-.36-.713-.319-.736.12-.063 1.536 2.593 1.703 2.504.073-.039-.101-.483-.522-1.315a.574.574 0 01-.078-.2z" fill="#895523"/><path d="M108.432 94.651l.047-.024a.092.092 0 01.089 0 .088.088 0 01.041.079c0 .015-.005.03-.013.043a.096.096 0 01-.034.032l-.047.024c-.049.03-.099.059-.151.084-.096.054-.195.105-.29.156l-.574.305a.09.09 0 01-.127-.106.089.089 0 01.043-.053l.573-.306.279-.152c.049-.022.107-.06.164-.082zm-.6-.692l.047-.025a.092.092 0 01.088 0 .09.09 0 01.042.08.093.093 0 01-.014.044.083.083 0 01-.033.03l-.047.027c-.048.033-.106.057-.151.084l-.292.155-.572.306a.09.09 0 01-.127-.106.089.089 0 01.043-.053l.571-.308.281-.15a1.49 1.49 0 01.164-.084zm-.595-.822l.047-.024a.085.085 0 01.043-.012c.015 0 .03.004.044.012a.083.083 0 01.041.079.085.085 0 01-.045.075l-.049.024c-.047.032-.097.06-.149.084l-.292.157-.572.305a.09.09 0 01-.068.006.09.09 0 01-.052-.043.09.09 0 01.036-.12l.57-.308.28-.15c.054-.032.109-.06.166-.085zm-.605-.982l.047-.025a.085.085 0 01.043-.011c.015 0 .03.004.044.011a.082.082 0 01.041.079.083.083 0 01-.014.043.083.083 0 01-.033.03l-.047.027c-.047.033-.104.057-.149.084l-.292.155-.572.306a.092.092 0 01-.114-.041.095.095 0 01-.008-.064.09.09 0 01.036-.054l.572-.308.28-.15c.054-.03.109-.058.166-.082zm-.553-.979l.047-.025a.091.091 0 01.044-.011c.015 0 .03.004.043.011a.08.08 0 01.042.079.093.093 0 01-.013.043.09.09 0 01-.034.03l-.047.027c-.047.033-.104.058-.149.084l-.293.155-.572.306a.088.088 0 01-.064.001.089.089 0 01-.049-.042.085.085 0 01-.008-.064.09.09 0 01.036-.054l.572-.304.28-.15c.053-.032.109-.061.165-.086zm-1.935-4.612l.047-.024a.084.084 0 00.033-.031.086.086 0 00.014-.044.09.09 0 00-.009-.046.086.086 0 00-.033-.033.085.085 0 00-.043-.012.091.091 0 00-.044.012l-.047.025c-.055.02-.107.055-.154.078-.098.05-.193.105-.291.158l-.572.307a.09.09 0 00-.036.122c.012.02.031.036.053.043a.089.089 0 00.068-.007l.572-.305.28-.15c.056-.027.11-.058.162-.093zm.236.886l.039-.024a.092.092 0 00.037-.12.087.087 0 00-.119-.033l-.047.024a1.45 1.45 0 00-.153.079c-.099.05-.195.104-.292.157l-.572.308a.079.079 0 00-.027.022.09.09 0 00-.016.03.069.069 0 00-.003.036.08.08 0 00.01.033c.006.01.013.02.022.027a.09.09 0 00.099.009l.572-.304.289-.15c.056-.028.11-.059.161-.093zm.348.955l.038-.024a.09.09 0 00.047-.074.092.092 0 00-.01-.046.082.082 0 00-.075-.046.086.086 0 00-.044.012l-.049.024c-.053.021-.106.056-.153.08l-.29.156-.572.308a.097.097 0 00-.037.054.09.09 0 00.009.064c.01.02.028.035.049.042.02.008.043.008.064 0 .19-.104.381-.205.572-.307l.28-.15c.059-.027.116-.058.171-.093zm.472 1.061l.047-.026a.082.082 0 00.033-.03.093.093 0 00.014-.043.08.08 0 00-.042-.079.085.085 0 00-.087 0l-.047.026a1.43 1.43 0 00-.154.079l-.291.155-.572.308a.09.09 0 00-.036.054.085.085 0 00.008.064c.011.02.028.035.049.042a.089.089 0 00.064 0l.579-.317.28-.15c.054-.025.105-.052.155-.083zm.503.999l.047-.027a.09.09 0 00.032-.032.086.086 0 000-.088.087.087 0 00-.119-.032l-.047.026c-.053.023-.104.05-.153.08l-.292.155-.571.307a.09.09 0 00-.037.121.089.089 0 00.121.038l.572-.305a11.02 11.02 0 00.447-.243z" fill="#E09F3E"/><path d="M104.658 86.04c.05.01.096.032.136.063a.565.565 0 01.095.09.455.455 0 01.037.059c.005.01.009.02.012.031a.23.23 0 01.002.037.027.027 0 01-.003.012.026.026 0 01-.009.01.029.029 0 01-.025.004.158.158 0 01-.036-.017l-.032-.021-.067-.043h-.02l-.036-.012h-.064a.09.09 0 01-.044.01.084.084 0 01-.073-.046.084.084 0 01-.01-.044.069.069 0 010-.04.106.106 0 01.054-.066.17.17 0 01.083-.027zm-.076.348a.074.074 0 01.021.026.07.07 0 01.009.035v.026a.085.085 0 01-.009.039l-.016.016a.02.02 0 01-.007.011.024.024 0 01-.012.008.023.023 0 01-.015 0 .073.073 0 01-.061-.04.074.074 0 010-.022.033.033 0 010-.013.025.025 0 010-.013.058.058 0 010-.036.07.07 0 01.021-.032.05.05 0 01.033-.017c.007 0 .013 0 .019.002a.042.042 0 01.017.01z" fill="#F6DB6F"/></g><g filter="url(#filter2_d)"><path d="M123.561 79.707c0 1.997-9.606 5.272-22.365 5.272-12.759 0-23.84-3.275-23.84-5.272 0-1.997 10.344-3.616 23.103-3.616 12.759 0 23.102 1.619 23.102 3.616z" fill="#0A3D76"/><path d="M81.121 88.98l-3.765-9.015c9.66 6.405 42.619 5.068 46.204 0l-3.188 8.268c-.448 1.161-1.301 2.133-2.464 2.579-11.279 4.321-32.697 2.215-36.462-1.332a1.412 1.412 0 01-.325-.5z" fill="url(#paint0_linear)"/><path d="M131.014 64.686c0 2.344-12.705 6.188-29.58 6.188s-31.53-3.844-31.53-6.188c0-2.345 13.68-4.245 30.555-4.245s30.555 1.9 30.555 4.245z" fill="#7B0A1C"/><path d="M74.904 75.612l-5-10.623c12.777 7.518 56.369 5.95 61.11 0l-4.362 10.039c-.499 1.149-1.399 2.082-2.577 2.506-14.812 5.337-43.907 2.822-48.809-1.416a1.47 1.47 0 01-.362-.506z" fill="url(#paint1_linear)"/><path d="M138.466 49.781c0 2.344-15.803 6.188-36.794 6.188-20.99 0-39.22-3.844-39.22-6.188s17.016-4.245 38.007-4.245 38.007 1.9 38.007 4.245z" fill="#0A3D76"/><path d="M68.668 60.704l-6.217-10.62c15.893 7.519 70.117 5.95 76.014 0l-5.479 10.139c-.587 1.086-1.549 1.927-2.731 2.283-18.31 5.506-55.08 2.972-61.157-1.309a1.5 1.5 0 01-.43-.493z" fill="url(#paint2_linear)"/><path d="M145.919 34.877c0 2.344-18.902 6.188-44.009 6.188-25.106 0-46.91-3.844-46.91-6.188 0-2.345 20.353-4.245 45.459-4.245 25.107 0 45.46 1.9 45.46 4.244z" fill="#7B0A1C"/><path d="M62.444 45.81L55 35.18c19.01 7.518 83.865 5.95 90.919 0l-6.643 10.276c-.646 1-1.618 1.742-2.77 2.04-21.792 5.652-66.385 3.096-73.59-1.224a1.53 1.53 0 01-.472-.462z" fill="url(#paint3_linear)"/></g><path d="M111.408 4.152a6.704 6.704 0 11-9.075 9.87 6.704 6.704 0 019.075-9.87z" fill="#6DC2FF" fill-opacity=".3"/><path d="M117 18.785a.5.5 0 00.655-.756l-.655.756zm-5.931-14.264a6.203 6.203 0 01.369 8.765l.737.677a7.204 7.204 0 00-.429-10.179l-.677.737zm.369 8.765a6.203 6.203 0 01-8.765.37l-.677.736a7.204 7.204 0 0010.179-.43l-.737-.676zm-8.765.37a6.203 6.203 0 01-.369-8.766l-.737-.677a7.204 7.204 0 00.429 10.178l.677-.736zm-.369-8.766a6.203 6.203 0 018.765-.37l.677-.736a7.204 7.204 0 00-10.179.429l.737.677zm9.175 9.113L117 18.785l.655-.756-5.521-4.782-.655.755z" fill="#0A3D76"/><path d="M111.729 8.578a4.605 4.605 0 00-.095-.758m-4.664-3.616a4.57 4.57 0 014.302 2.564" stroke="#0A3D76" stroke-linecap="round"/><path d="M68.576 29.746l-2.36-3.461 1.533-1.724 2.518 4.09a1.006 1.006 0 01-.373 1.402 1.007 1.007 0 01-1.318-.307z" fill="url(#paint4_linear)"/><circle cx="75.798" cy="16.705" fill="url(#paint5_linear)" r="1.916"/><path d="M65.915 19.522l-.056-.08-.08.053-2.074 1.348a2.1 2.1 0 00-.56 2.988l.498.692.673.934a2.1 2.1 0 002.746.597l2.461-1.406.1-.057-.07-.091a117.41 117.41 0 01-1.867-2.489c-.55-.755-1.087-1.515-1.772-2.49z" fill="url(#paint6_linear)" stroke="url(#paint7_linear)" stroke-width=".2"/><path d="M69.474 24.56l-2.462 1.407a2 2 0 01-2.615-.568l-.672-.934 3.88-2.395a115.33 115.33 0 001.869 2.49z" fill="url(#paint8_linear)"/><path d="M78.97 22.935l-9.88 2.009c-.686-.806-1.229-1.666-1.689-2.3-.711-.978-1.224-1.95-1.76-3.141l5.847-8.285a1 1 0 011.66.04l3.224 5.064 3.243 5.096a1 1 0 01-.644 1.517z" fill="url(#paint9_linear)"/><path d="M69.091 24.944l9.88-2.01a1 1 0 00.645-1.516l-3.243-5.096-8.97 6.323c.46.633 1.002 1.493 1.688 2.299z" fill="url(#paint10_linear)"/><g filter="url(#filter3_f)"><path d="M71.966 12.49l-.575.767m-.575.766s-1.405 1.98-2.108 2.874" stroke="#F5F9FF" stroke-linecap="round"/></g><g filter="url(#filter4_d)"><path d="M110.716 128.218c0 .535-3.019.968-6.744.968-3.725 0-6.744-.433-6.744-.968 0-.534 3.019-.966 6.744-.966 3.725 0 6.744.432 6.744.966z" fill="#D57D34"/><path d="M110.716 125.908H97.228v2.31h13.488v-2.31z" fill="#D57D34"/><path d="M103.973 126.874c3.724 0 6.744-.432 6.744-.966 0-.533-3.02-.966-6.744-.966-3.725 0-6.745.433-6.745.966 0 .534 3.02.966 6.745.966z" fill="#EABA47"/><path d="M103.972 126.549c3.283 0 5.945-.287 5.945-.641 0-.353-2.662-.64-5.945-.64-3.283 0-5.945.287-5.945.64 0 .354 2.662.641 5.945.641z" fill="#D57D34"/><path d="M103.972 126.455c3.071 0 5.561-.245 5.561-.547 0-.302-2.49-.547-5.561-.547-3.072 0-5.562.245-5.562.547 0 .302 2.49.547 5.562.547z" fill="#E09F3E"/><path d="M103.129 125.446c.128-.035.261-.047.393-.035h.889c.132-.012.265 0 .393.035a.752.752 0 00.294.034c1.258.026 1.901.1 1.901.212v.027h-1.934v-.036c0-.063-.373-.088-1.024-.088s-1.024.025-1.024.088c0 .181 4 .19 4 .443 0 .111-.66.186-1.919.212a.732.732 0 00-.294.034 1.109 1.109 0 01-.393.035h-.889c-.132.012-.265 0-.393-.035a.724.724 0 00-.296-.034c-1.273-.026-1.918-.101-1.918-.212v-.026c.128-.035.261-.047.393-.035h1.15c.132-.012.265 0 .393.035v.034c0 .063.408.086 1.06.086.653 0 1.059-.023 1.059-.086 0-.181-3.998-.19-3.998-.442 0-.111.628-.185 1.865-.212a.705.705 0 00.292-.034z" fill="#895523"/><path d="M97.908 126.716v-.072a.116.116 0 00-.058-.102.114.114 0 00-.162.044.118.118 0 00-.016.058v.072a1.96 1.96 0 000 .23v1.314a.12.12 0 00.239 0v-1.3a1.93 1.93 0 00-.003-.244zm1.186.275v-.064a.116.116 0 00-.058-.102.11.11 0 00-.117 0 .116.116 0 00-.058.102v.072c-.01.077 0 .161 0 .23v1.313a.122.122 0 00.12.108.121.121 0 00.12-.108v-1.296c.003-.085 0-.17-.007-.255zm1.336.189v-.071a.12.12 0 00-.015-.059.121.121 0 00-.103-.06.121.121 0 00-.059.016.12.12 0 00-.057.103v.071a2.244 2.244 0 000 .232v1.312a.12.12 0 00.035.084.119.119 0 00.204-.084v-1.301a2.463 2.463 0 00-.005-.243zm1.53.1v-.071a.12.12 0 00-.015-.059.116.116 0 00-.043-.042.105.105 0 00-.118 0 .12.12 0 00-.042.042.111.111 0 00-.016.059v.072c-.009.077 0 .161 0 .231v1.313a.128.128 0 00.04.077.12.12 0 00.2-.077v-1.297a2.049 2.049 0 00-.006-.248zm1.495.038v-.07a.124.124 0 00-.015-.06.111.111 0 00-.043-.043.109.109 0 00-.117 0 .111.111 0 00-.043.043.124.124 0 00-.015.06v.07a1.796 1.796 0 000 .232v1.312a.12.12 0 00.239 0v-1.297a2.037 2.037 0 00-.006-.247zm6.615-.602v-.072a.12.12 0 01.015-.059.115.115 0 01.043-.042.105.105 0 01.118 0c.018.01.032.024.043.042a.12.12 0 01.015.059v.072c.009.078 0 .161 0 .231v1.313a.119.119 0 01-.035.084.117.117 0 01-.169 0 .119.119 0 01-.035-.084v-1.297a2.037 2.037 0 01.005-.247zm-1.187.275v-.064a.12.12 0 01.015-.059.118.118 0 01.043-.043.112.112 0 01.118 0c.018.01.032.025.043.043a.12.12 0 01.015.059v.072c.004.076.004.153 0 .23v1.313a.121.121 0 01-.035.085.116.116 0 01-.084.035.119.119 0 01-.085-.035.12.12 0 01-.034-.085v-1.296a2.17 2.17 0 01.004-.255zm-1.337.189v-.071a.133.133 0 01.016-.058.14.14 0 01.042-.045.124.124 0 01.059-.016c.021 0 .042.006.06.016.018.01.033.026.043.044a.11.11 0 01.015.059v.071c.005.077.005.155 0 .232v1.312a.119.119 0 01-.119.119.116.116 0 01-.084-.035.12.12 0 01-.035-.084v-1.295a2.069 2.069 0 01.003-.249zm-1.529.1v-.071a.117.117 0 01.058-.101.112.112 0 01.119 0 .116.116 0 01.057.101v.072c.004.077.004.154 0 .231v1.313a.123.123 0 01-.035.085.123.123 0 01-.085.035.12.12 0 01-.084-.035.123.123 0 01-.035-.085v-1.296a2.3 2.3 0 01.005-.249zm-1.491.038v-.07c0-.021.005-.041.015-.06a.111.111 0 01.043-.043.112.112 0 01.119 0 .126.126 0 01.042.044c.01.018.015.038.016.059v.07c.004.078.004.155 0 .232v1.312a.123.123 0 01-.035.085.119.119 0 01-.203-.085v-1.296a1.711 1.711 0 01.003-.248z" fill="#E09F3E"/><path d="M110.36 125.779a.4.4 0 00-.153-.123.696.696 0 00-.163-.055.404.404 0 00-.092-.008.353.353 0 00-.046 0 .2.2 0 00-.039.019.049.049 0 00-.013.012.044.044 0 00-.006.016c0 .006 0 .012.002.017a.038.038 0 00.009.015.685.685 0 00.043.032l.044.025c.031.018.063.032.093.053l.011.008.011.008.038.037a.085.085 0 01.017.02l.009.009v.02a.054.054 0 000 .018v.015c0 .021.006.041.016.058a.113.113 0 00.1.057.15.15 0 00.101-.047.153.153 0 00.043-.106.206.206 0 00-.025-.1zm-.527.456l-.013-.014v.011l.013.003zm.168-.15a.122.122 0 00-.046-.009h-.008a.107.107 0 00-.049.012l-.013.008h-.016a.088.088 0 00-.039.035c0 .008 0 .018-.01.028-.003.004-.007.009-.008.015a.037.037 0 00-.002.018s.007.013.012.019a.08.08 0 00.04.035c.014.007.03.011.046.011a.14.14 0 00.029 0h.033a.103.103 0 00.041-.026.094.094 0 00.026-.045v-.012a.058.058 0 00.006-.026.065.065 0 00-.005-.027.054.054 0 00-.015-.022.064.064 0 00-.022-.014z" fill="#F6DB6F"/></g><g filter="url(#filter5_d)"><path d="M110.203 125.441c0 .533-3.019.966-6.744.966-3.725 0-6.744-.433-6.744-.966 0-.533 3.019-.972 6.741-.972 3.722 0 6.747.438 6.747.972z" fill="#D57D34"/><path d="M110.203 123.131H96.715v2.31h13.488v-2.31z" fill="#D57D34"/><path d="M110.203 123.131c0 .533-3.019.966-6.744.966-3.725 0-6.744-.433-6.744-.966 0-.533 3.019-.966 6.741-.966 3.722 0 6.747.432 6.747.966z" fill="#EABA47"/><path d="M103.459 123.772c3.284 0 5.945-.287 5.945-.641 0-.354-2.661-.64-5.945-.64-3.283 0-5.945.286-5.945.64 0 .354 2.662.641 5.945.641z" fill="#D57D34"/><path d="M103.459 123.678c3.072 0 5.562-.245 5.562-.547 0-.302-2.49-.547-5.562-.547s-5.562.245-5.562.547c0 .302 2.49.547 5.562.547z" fill="#E09F3E"/><path d="M102.616 122.669c.128-.035.261-.047.392-.035h.888c.132-.012.265 0 .393.035a.725.725 0 00.296.035c1.258.026 1.899.099 1.899.211v.027h-1.934v-.036c0-.063-.371-.086-1.022-.086s-1.024.023-1.024.086c0 .182 4 .192 4 .443 0 .113-.66.186-1.919.212a.802.802 0 00-.296.034 1.109 1.109 0 01-.393.035h-.888c-.131.012-.264 0-.392-.035a.807.807 0 00-.297-.034c-1.272-.026-1.917-.099-1.917-.212v-.024c.128-.035.261-.047.393-.035h1.15c.132-.012.265 0 .393.035v.034c0 .063.408.086 1.059.086.65 0 1.06-.023 1.06-.086 0-.183-3.999-.191-3.999-.444 0-.111.627-.185 1.866-.211a.78.78 0 00.292-.035z" fill="#895523"/><path d="M97.395 123.938v-.071a.122.122 0 00-.057-.103.113.113 0 00-.06-.016.113.113 0 00-.058.016.115.115 0 00-.06.103v.071c-.008.078 0 .162 0 .231v1.312a.12.12 0 00.12.12.12.12 0 00.084-.035.122.122 0 00.035-.085v-1.295a1.952 1.952 0 00-.004-.248zm1.185.276v-.07a.122.122 0 00-.015-.06.113.113 0 00-.043-.043.111.111 0 00-.117 0 .113.113 0 00-.043.043.124.124 0 00-.015.06v.07a1.995 1.995 0 000 .232v1.312a.124.124 0 00.04.077.12.12 0 00.16 0 .124.124 0 00.04-.077v-1.297c.002-.082 0-.165-.007-.247zm1.337.189v-.072a.124.124 0 00-.058-.102.114.114 0 00-.119 0 .116.116 0 00-.058.102v.072a1.96 1.96 0 000 .23v1.314a.12.12 0 00.239 0v-1.291a1.925 1.925 0 00-.004-.253zm1.53.1v-.071a.126.126 0 00-.058-.103.114.114 0 00-.059-.016.111.111 0 00-.059.016.13.13 0 00-.043.044.12.12 0 00-.015.059v.071a1.796 1.796 0 000 .232v1.311c0 .032.012.063.035.085a.115.115 0 00.084.035.115.115 0 00.084-.035.117.117 0 00.035-.085v-1.296a2.262 2.262 0 00-.004-.247zm1.492.037v-.071a.11.11 0 00-.058-.101.108.108 0 00-.119 0 .12.12 0 00-.058.101v.072a2.225 2.225 0 000 .231v1.313c0 .032.013.062.035.085a.12.12 0 00.084.035.123.123 0 00.085-.035.122.122 0 00.034-.085v-1.296a1.725 1.725 0 00-.003-.249zm6.617-.602v-.071c0-.021.005-.042.015-.06a.12.12 0 01.103-.059c.021 0 .041.005.059.016a.126.126 0 01.058.103v.071a1.78 1.78 0 010 .231v1.312a.119.119 0 01-.203.085.119.119 0 01-.035-.085v-1.295a2.05 2.05 0 01.003-.248zm-1.186.276v-.07c0-.021.005-.042.015-.06a.118.118 0 01.043-.043.112.112 0 01.118 0c.017.01.032.025.042.043.01.018.016.039.016.06v.07c.009.079 0 .163 0 .232v1.312a.128.128 0 01-.04.077.12.12 0 01-.2-.077v-1.297a2.037 2.037 0 01.006-.247zm-1.337.189v-.072a.11.11 0 01.015-.059.118.118 0 01.043-.043.11.11 0 01.059-.017.116.116 0 01.102.061c.01.017.015.037.016.058v.072c.004.077.004.154 0 .23v1.314a.12.12 0 01-.035.084.116.116 0 01-.084.035.119.119 0 01-.119-.119v-1.291a2.136 2.136 0 01.003-.253zm-1.53.1v-.071a.126.126 0 01.058-.103.111.111 0 01.059-.016c.021 0 .041.005.059.016a.118.118 0 01.042.044.111.111 0 01.016.059v.071c.009.078 0 .163 0 .232v1.311a.116.116 0 01-.04.077.118.118 0 01-.16 0 .116.116 0 01-.04-.077v-1.296c-.002-.082 0-.165.006-.247zm-1.492.037v-.071c0-.02.005-.041.015-.059a.124.124 0 01.043-.042.105.105 0 01.118 0c.018.01.032.025.043.042.01.018.015.039.015.059v.072c.004.077.004.154 0 .231v1.313a.126.126 0 01-.04.077.118.118 0 01-.08.031.12.12 0 01-.12-.108v-1.296a2.07 2.07 0 01.006-.249z" fill="#E09F3E"/><path d="M109.847 123.001a.405.405 0 00-.153-.122.687.687 0 00-.163-.057.362.362 0 00-.093 0 .338.338 0 00-.045 0c-.013.006-.027.012-.039.019a.037.037 0 00-.019.028c0 .006 0 .012.002.017a.038.038 0 00.009.015.643.643 0 00.041.032l.046.025c.031.018.063.033.093.053a.028.028 0 00.011.008l.009.009a.324.324 0 01.038.036l.019.02.009.01v.052a.124.124 0 00.056.102.131.131 0 00.118 0 .136.136 0 00.041-.034.155.155 0 00.045-.106.211.211 0 00-.025-.107zm-.527.457l-.013-.013v.008l.013.005z" fill="#F6DB6F"/><path d="M109.488 123.306a.12.12 0 00-.046-.007h-.009a.126.126 0 00-.047.012l-.014.008-.015.007a.088.088 0 00-.04.036.143.143 0 00-.009.027.048.048 0 00-.011.034c0 .008 0 .012.012.018a.078.078 0 00.04.036c.014.008.03.012.046.012h.061a.106.106 0 00.043-.026.134.134 0 00.026-.043.033.033 0 010-.014.077.077 0 00.006-.059.085.085 0 00-.017-.025.063.063 0 00-.026-.016z" fill="#F6DB6F"/></g><g filter="url(#filter6_d)"><path d="M111.737 122.615c0 .535-3.019.968-6.744.968-3.725 0-6.744-.433-6.744-.968 0-.534 3.019-.966 6.744-.966 3.725 0 6.744.433 6.744.966z" fill="#D57D34"/><path d="M111.737 120.305H98.249v2.31h13.488v-2.31z" fill="#D57D34"/><path d="M111.737 120.305c0 .535-3.019.968-6.744.968-3.725 0-6.744-.433-6.744-.968 0-.534 3.019-.966 6.744-.966 3.725 0 6.744.433 6.744.966z" fill="#EABA47"/><path d="M104.992 120.946c3.284 0 5.945-.287 5.945-.641 0-.354-2.661-.64-5.945-.64-3.283 0-5.945.286-5.945.64 0 .354 2.662.641 5.945.641z" fill="#D57D34"/><path d="M104.992 120.852c3.072 0 5.562-.245 5.562-.547 0-.302-2.49-.547-5.562-.547-3.071 0-5.561.245-5.561.547 0 .302 2.49.547 5.561.547z" fill="#E09F3E"/><path d="M104.149 119.844c.128-.034.261-.046.393-.035h.889c.132-.011.265.001.393.035a.738.738 0 00.295.036c1.257.026 1.901.098 1.901.21v.028h-1.935v-.037c0-.063-.372-.088-1.023-.088-.651 0-1.024.025-1.024.088 0 .183 4 .19 4 .444 0 .112-.66.186-1.919.212a.755.755 0 00-.295.034 1.109 1.109 0 01-.393.035h-.889c-.132.012-.265 0-.393-.035a.742.742 0 00-.296-.034c-1.273-.026-1.917-.1-1.917-.212v-.026a1.15 1.15 0 01.392-.036h1.151c.132-.01.264.001.392.036v.035c0 .063.41.086 1.061.086s1.059-.023 1.059-.086c0-.183-3.999-.192-3.999-.444 0-.11.628-.184 1.866-.21a.757.757 0 00.291-.036z" fill="#895523"/><path d="M98.928 121.113v-.071a.123.123 0 00-.055-.106.114.114 0 00-.161.044.13.13 0 00-.016.059v.071a1.995 1.995 0 000 .232v1.311a.12.12 0 10.238 0v-1.296a1.912 1.912 0 00-.006-.244zm1.187.284v-.072a.118.118 0 00-.016-.058.116.116 0 00-.042-.043.105.105 0 00-.118 0 .113.113 0 00-.042.043.115.115 0 00-.016.058v.072c-.01.079 0 .162 0 .232v1.304a.121.121 0 00.12.108c.03 0 .058-.011.08-.031a.116.116 0 00.04-.077v-1.296c.003-.08.001-.16-.006-.24zm1.336.18v-.071a.117.117 0 00-.058-.101.112.112 0 00-.119 0 .109.109 0 00-.042.043.12.12 0 00-.015.058v.072a2.225 2.225 0 000 .231v1.312a.12.12 0 00.035.084.119.119 0 00.204-.084v-1.295a2.3 2.3 0 00-.005-.249zm1.53.101v-.072a.116.116 0 00-.059-.101.103.103 0 00-.117 0 .116.116 0 00-.043.042.12.12 0 00-.015.059v.072c-.009.079 0 .161 0 .232v1.312a.122.122 0 00.039.077.12.12 0 00.081.03c.029 0 .058-.01.08-.03a.128.128 0 00.04-.077v-1.297a2.037 2.037 0 00-.006-.247zm1.493.037v-.071a.12.12 0 00-.015-.058.118.118 0 00-.043-.043.112.112 0 00-.118 0 .118.118 0 00-.043.043.12.12 0 00-.015.058v.073a2.206 2.206 0 000 .23v1.312a.128.128 0 00.04.077.122.122 0 00.161 0 .122.122 0 00.039-.077v-1.295a2.3 2.3 0 00-.006-.249zm6.623-.602v-.071c0-.02.005-.041.015-.059a.118.118 0 01.043-.043.112.112 0 01.118 0c.017.01.032.025.042.043.01.018.016.039.016.059v.071c.009.078 0 .163 0 .232v1.312a.128.128 0 01-.04.077.124.124 0 01-.161 0 .122.122 0 01-.039-.077v-1.297a2.037 2.037 0 01.006-.247zm-1.193.284v-.072c0-.02.006-.041.016-.058a.116.116 0 01.042-.043.105.105 0 01.118 0 .117.117 0 01.058.101v.072c.009.079 0 .162 0 .232v1.304a.119.119 0 01-.203.085.119.119 0 01-.035-.085v-1.296c-.003-.08-.001-.16.004-.24zm-1.337.18v-.071a.12.12 0 01.117-.118c.021 0 .042.006.06.017a.117.117 0 01.058.101v.072a1.78 1.78 0 010 .231v1.312a.12.12 0 01-.035.084.116.116 0 01-.084.035.115.115 0 01-.084-.035.116.116 0 01-.035-.084v-1.295a1.725 1.725 0 01.003-.249zm-1.53.101v-.072c0-.021.006-.041.016-.059a.12.12 0 01.042-.042.108.108 0 01.12 0 .12.12 0 01.056.101v.072c.005.077.005.155 0 .232v1.312a.119.119 0 01-.203.085.119.119 0 01-.035-.085v-1.297a2.262 2.262 0 01.004-.247zm-1.493.037v-.071a.118.118 0 01.052-.093.108.108 0 01.119 0 .12.12 0 01.058.101v.072a1.78 1.78 0 010 .231v1.311a.12.12 0 01-.034.085.119.119 0 01-.085.035.116.116 0 01-.084-.035.121.121 0 01-.035-.085v-1.294a2 2 0 01.009-.257z" fill="#E09F3E"/><path d="M111.381 120.176a.407.407 0 00-.153-.123.681.681 0 00-.163-.055.284.284 0 00-.092 0 .177.177 0 00-.046 0l-.04.018a.036.036 0 00-.01.014.03.03 0 00-.004.016c0 .006.001.012.004.017.002.005.006.01.01.013a.32.32 0 00.043.032l.044.025c.031.018.063.034.094.054l.01.007.011.01.038.035.017.02.009.011v.018a.06.06 0 000 .019v.015c0 .02.006.04.016.058a.12.12 0 00.042.042.12.12 0 00.116 0 .157.157 0 00.086-.138.213.213 0 00-.032-.108zm-.527.453l-.013-.014s0 .008.007.009l.006.005zm.167-.153a.1.1 0 00-.045-.008.1.1 0 00-.048.012l-.015.008-.015.007a.1.1 0 00-.04.036c0 .009 0 .018-.009.027a.048.048 0 00-.011.034c0 .008.008.013.012.019a.08.08 0 00.04.035c.014.008.03.012.046.012a.14.14 0 00.029 0h.033a.081.081 0 00.042-.026.11.11 0 00.026-.044v-.013a.062.062 0 00.009-.03.063.063 0 00-.025-.056.051.051 0 00-.029-.013z" fill="#F6DB6F"/></g><g filter="url(#filter7_d)"><path d="M88.24 129.561c3.725 0 6.744-.433 6.744-.966 0-.534-3.019-.966-6.744-.966-3.724 0-6.744.432-6.744.966 0 .533 3.02.966 6.744.966z" fill="#D57D34"/><path d="M94.984 126.285H81.496v2.31h13.488v-2.31z" fill="#D57D34"/><path d="M94.984 126.285c0 .533-3.019.966-6.744.966-3.725 0-6.744-.433-6.744-.966 0-.533 3.02-.968 6.744-.968 3.724 0 6.744.438 6.744.968z" fill="#EABA47"/><path d="M88.24 126.925c3.283 0 5.945-.286 5.945-.64 0-.354-2.662-.641-5.945-.641-3.283 0-5.945.287-5.945.641 0 .354 2.662.64 5.945.64z" fill="#D57D34"/><path d="M88.24 126.832c3.072 0 5.562-.245 5.562-.547 0-.302-2.49-.547-5.562-.547-3.071 0-5.561.245-5.561.547 0 .302 2.49.547 5.561.547z" fill="#E09F3E"/><path d="M87.397 125.823c.128-.036.26-.048.393-.036h.889c.132-.012.265 0 .393.036.095.03.195.042.294.033 1.258.026 1.901.1 1.901.211v.027h-1.934v-.032c0-.064-.373-.087-1.024-.087-.65 0-1.024.023-1.024.087 0 .181 4 .191 4 .443 0 .112-.658.185-1.919.213a.72.72 0 00-.294.034 1.157 1.157 0 01-.393.035h-.89a1.155 1.155 0 01-.392-.035.727.727 0 00-.296-.034c-1.273-.026-1.916-.101-1.916-.213v-.025c.127-.035.26-.047.392-.035h1.15c.131-.012.264 0 .392.035v.034c0 .063.41.086 1.06.086.651 0 1.06-.023 1.06-.086 0-.182-4-.191-4-.444 0-.109.629-.183 1.868-.211a.733.733 0 00.29-.036z" fill="#895523"/><path d="M82.175 127.091v-.071a.114.114 0 00-.058-.101.114.114 0 00-.119 0 .123.123 0 00-.058.101v.073a1.96 1.96 0 000 .23v1.313a.12.12 0 00.12.12.12.12 0 00.12-.12v-.869c-.002-.143-.002-.286-.002-.427a2.324 2.324 0 00-.003-.249zm1.189.277v-.071a.116.116 0 00-.016-.059.118.118 0 00-.042-.042.104.104 0 00-.118 0 .118.118 0 00-.043.042.115.115 0 00-.015.059v.072c-.01.077 0 .161 0 .231v1.311a.12.12 0 10.238 0v-1.295a1.937 1.937 0 00-.004-.248zm1.334.189v-.071a.12.12 0 00-.117-.12.111.111 0 00-.059.017.119.119 0 00-.058.103v.071a1.978 1.978 0 000 .231v1.312a.121.121 0 00.12.108.12.12 0 00.12-.108v-1.296c.003-.083 0-.165-.006-.247zm1.53.099v-.07a.116.116 0 00-.058-.102.11.11 0 00-.118 0 .116.116 0 00-.058.102v.072c-.009.077 0 .161 0 .23v1.312a.121.121 0 00.12.108.12.12 0 00.12-.108v-1.295a1.972 1.972 0 00-.006-.249zm1.492.039v-.072a.119.119 0 00-.117-.119.11.11 0 00-.058.017.118.118 0 00-.058.102v.072c-.01.078 0 .161 0 .232v1.311a.121.121 0 00.12.108.121.121 0 00.12-.108v-1.299a2.21 2.21 0 00-.007-.244zm6.624-.604v-.07a.116.116 0 01.059-.102.11.11 0 01.117 0 .116.116 0 01.058.102v.072c.01.077 0 .161 0 .23v1.313a.121.121 0 01-.12.108.121.121 0 01-.12-.108v-1.296a1.972 1.972 0 01.007-.249zm-1.193.277v-.077a.11.11 0 01.058-.101.106.106 0 01.12 0c.017.01.031.025.041.043a.12.12 0 01.016.058v.072a1.78 1.78 0 010 .231v1.311a.122.122 0 01-.035.085.12.12 0 01-.084.035.12.12 0 01-.084-.035.122.122 0 01-.035-.085v-1.295a1.938 1.938 0 01.003-.242zm-1.338.189v-.071a.12.12 0 01.117-.12.11.11 0 01.059.017.119.119 0 01.058.103v.071c.01.078 0 .162 0 .232v1.311a.122.122 0 01-.035.085.12.12 0 01-.084.035.12.12 0 01-.12-.12v-1.296a1.936 1.936 0 01.005-.247zm-1.529.1v-.071a.11.11 0 01.058-.101.106.106 0 01.12 0c.017.01.031.025.041.043.01.017.016.037.016.058v.072a1.96 1.96 0 010 .23v1.312a.122.122 0 01-.035.085.12.12 0 01-.084.035.12.12 0 01-.084-.035.122.122 0 01-.035-.085v-1.295a1.934 1.934 0 01.003-.248zm-1.492.038v-.072a.125.125 0 01.058-.102.114.114 0 01.119 0 .119.119 0 01.058.102v.072c.005.077.005.154 0 .232v1.311a.12.12 0 01-.12.12.12.12 0 01-.12-.12c.002-.29.002-.579.002-.869v-.427a1.921 1.921 0 01.003-.247z" fill="#E09F3E"/><path d="M94.63 126.156a.405.405 0 00-.153-.123.802.802 0 00-.165-.057.467.467 0 00-.092 0 .164.164 0 00-.044 0 .209.209 0 00-.042.017.042.042 0 00-.01.013.039.039 0 00-.004.017c0 .006.001.011.004.017a.042.042 0 00.01.013.265.265 0 00.043.032l.044.025c.031.02.065.033.094.055l.01.008.011.007.038.037.017.019.01.01v.019a.042.042 0 000 .02v.015c0 .02.005.04.016.058a.12.12 0 00.041.042.118.118 0 00.116 0 .156.156 0 00.086-.138.192.192 0 00-.03-.106zm-.526.455l-.014-.013s0 .007.007.01l.007.003zm.166-.15a.112.112 0 00-.044-.009h-.01a.1.1 0 00-.046.013l-.016.007h-.013a.096.096 0 00-.042.037s0 .019-.009.026a.044.044 0 00-.01.034.056.056 0 00.012.018.075.075 0 00.04.034.14.14 0 00.075.013h.033a.114.114 0 00.041-.027.093.093 0 00.026-.044v-.014a.064.064 0 000-.052.076.076 0 00-.014-.022.087.087 0 00-.023-.014z" fill="#F6DB6F"/></g><g filter="url(#filter8_d)"><path d="M95.804 125.801c0 .534-3.02.966-6.744.966-3.725 0-6.745-.432-6.745-.966 0-.535 3.02-.968 6.745-.968s6.744.433 6.744.968z" fill="#D57D34"/><path d="M95.804 123.491H82.315v2.31h13.489v-2.31z" fill="#D57D34"/><path d="M95.804 123.491c0 .533-3.02.966-6.744.966-3.725 0-6.745-.433-6.745-.966 0-.533 3.02-.968 6.745-.968s6.744.433 6.744.968z" fill="#EABA47"/><path d="M89.06 124.131c3.284 0 5.945-.286 5.945-.64 0-.354-2.661-.641-5.945-.641-3.283 0-5.945.287-5.945.641 0 .354 2.662.64 5.945.64z" fill="#D57D34"/><path d="M89.06 124.038c3.071 0 5.561-.245 5.561-.547 0-.302-2.49-.547-5.561-.547-3.072 0-5.562.245-5.562.547 0 .302 2.49.547 5.562.547z" fill="#E09F3E"/><path d="M88.216 123.029c.128-.036.26-.048.393-.036h.887c.132-.012.265 0 .393.036.096.03.196.042.296.033 1.256.027 1.9.1 1.9.211v.024H90.15v-.035c0-.063-.371-.087-1.022-.087-.65 0-1.025.024-1.025.087 0 .181 4 .191 4 .442 0 .113-.659.188-1.918.214a.71.71 0 00-.296.034c-.128.035-.26.047-.393.035h-.887c-.132.012-.265 0-.393-.035a.727.727 0 00-.296-.034c-1.273-.026-1.918-.101-1.918-.214v-.024c.128-.035.26-.047.393-.035h1.149c.132-.012.264 0 .392.035v.034c0 .063.41.086 1.06.086.651 0 1.061-.023 1.061-.086 0-.182-4-.191-4-.444 0-.109.628-.183 1.867-.211a.739.739 0 00.292-.03z" fill="#895523"/><path d="M82.995 124.297v-.07a.116.116 0 00-.058-.102.11.11 0 00-.118 0 .116.116 0 00-.058.102v.072c-.01.077 0 .153 0 .23v1.314a.119.119 0 00.04.076.12.12 0 00.2-.076v-1.297a1.972 1.972 0 00-.006-.249zm1.187.277v-.071a.12.12 0 00-.015-.059.118.118 0 00-.043-.042.106.106 0 00-.12 0 .114.114 0 00-.041.043.124.124 0 00-.016.058v.072a1.935 1.935 0 000 .231v1.311a.12.12 0 10.238 0v-1.294a1.952 1.952 0 00-.003-.249zm1.338.189v-.071a.122.122 0 00-.057-.103.114.114 0 00-.12 0 .12.12 0 00-.058.103v.071c-.009.078 0 .162 0 .231v1.312c0 .032.013.062.035.085a.12.12 0 00.085.035.12.12 0 00.084-.035.122.122 0 00.035-.085v-1.296a1.936 1.936 0 00-.005-.247zm1.528.099v-.07a.116.116 0 00-.058-.102.114.114 0 00-.119 0 .125.125 0 00-.058.102v.072a1.918 1.918 0 000 .23v1.312a.12.12 0 00.12.12.12.12 0 00.083-.035.121.121 0 00.035-.085v-1.295a1.952 1.952 0 00-.003-.249zm1.489.039v-.068a.134.134 0 00-.017-.058.13.13 0 00-.041-.043.114.114 0 00-.12 0 .117.117 0 00-.058.101v.073a1.952 1.952 0 000 .232v1.311a.12.12 0 00.12.12.12.12 0 00.084-.035.121.121 0 00.035-.085v-1.296a1.927 1.927 0 00-.003-.252zm6.619-.604v-.07a.116.116 0 01.058-.102.114.114 0 01.12 0 .13.13 0 01.042.043c.01.018.015.038.016.059v.072c.004.077.004.153 0 .23v1.313a.12.12 0 11-.239 0v-1.296a2.299 2.299 0 01.003-.249zm-1.186.277v-.071a.12.12 0 01.016-.059.118.118 0 01.042-.042.103.103 0 01.06-.018c.02 0 .04.006.058.018.018.01.033.025.043.042a.12.12 0 01.015.059v.072c.01.077 0 .162 0 .231v1.311a.12.12 0 01-.119.12.12.12 0 01-.12-.12v-1.294a1.987 1.987 0 01.005-.249zm-1.335.189v-.071a.123.123 0 01.058-.103.11.11 0 01.118 0 .123.123 0 01.058.103v.071c.004.077.004.154 0 .231v1.312a.121.121 0 01-.12.108.121.121 0 01-.12-.108v-1.296c-.003-.083 0-.165.006-.247zm-1.532.099v-.07a.116.116 0 01.058-.102.11.11 0 01.118 0 .116.116 0 01.058.102v.072c.01.077 0 .161 0 .23v1.312a.121.121 0 01-.12.108.121.121 0 01-.12-.108v-1.295a1.972 1.972 0 01.006-.249zm-1.498.039v-.068a.117.117 0 01.058-.101.112.112 0 01.059-.018c.02 0 .041.007.059.018a.118.118 0 01.058.101v.072c.009.079 0 .162 0 .232v1.312a.121.121 0 01-.12.108.121.121 0 01-.12-.108v-1.296c-.003-.084 0-.168.006-.252z" fill="#E09F3E"/><path d="M95.448 123.362a.411.411 0 00-.153-.123.786.786 0 00-.164-.057.484.484 0 00-.093 0 .327.327 0 00-.044 0 .189.189 0 00-.04.017.037.037 0 00-.012.012.037.037 0 00-.006.016l.001.017a.037.037 0 00.01.015.25.25 0 00.04.032l.045.025c.032.02.064.034.095.055l.01.008.01.007.038.037.018.019.008.011v.049a.117.117 0 00.056.1.133.133 0 00.118 0 .124.124 0 00.041-.033.154.154 0 00.045-.106.215.215 0 00-.023-.101zm-.526.455l-.013-.013v.01l.013.003zm.166-.149a.098.098 0 00-.045-.01h-.009a.112.112 0 00-.047.013l-.014.007h-.015a.088.088 0 00-.04.037.207.207 0 00-.01.026.044.044 0 00-.009.016.038.038 0 00-.001.018s0 .012.01.018c.01.016.025.028.042.036a.155.155 0 00.075.011h.032a.123.123 0 00.043-.027.1.1 0 00.024-.044v-.014a.067.067 0 000-.052.062.062 0 00-.014-.021.064.064 0 00-.022-.014z" fill="#F6DB6F"/></g><g filter="url(#filter9_d)"><path d="M94.571 122.846c0 .534-3.019.967-6.744.967-3.725 0-6.744-.433-6.744-.967 0-.535 3.02-.966 6.744-.966 3.725 0 6.744.433 6.744.966z" fill="#D57D34"/><path d="M94.571 120.536H81.083v2.31h13.488v-2.31z" fill="#D57D34"/><path d="M94.571 120.533c0 .534-3.019.967-6.744.967-3.725 0-6.744-.433-6.744-.967 0-.535 3.02-.966 6.744-.966 3.725 0 6.744.436 6.744.966z" fill="#EABA47"/><path d="M87.827 121.176c3.283 0 5.945-.286 5.945-.64 0-.354-2.662-.641-5.945-.641-3.284 0-5.945.287-5.945.641 0 .354 2.661.64 5.945.64z" fill="#D57D34"/><path d="M87.827 121.083c3.072 0 5.562-.245 5.562-.547 0-.302-2.49-.547-5.562-.547-3.071 0-5.561.245-5.561.547 0 .302 2.49.547 5.561.547z" fill="#E09F3E"/><path d="M86.984 120.072a1.15 1.15 0 01.392-.035h.888a1.15 1.15 0 01.392.035.745.745 0 00.297.034c1.256.026 1.9.1 1.9.212v.027h-1.935v-.037c0-.063-.372-.087-1.022-.087-.651 0-1.024.024-1.024.087 0 .182 4 .191 4 .444 0 .111-.66.186-1.92.212a.764.764 0 00-.296.034c-.127.035-.26.047-.392.035h-.888c-.132.012-.265 0-.392-.035a.764.764 0 00-.297-.034c-1.273-.026-1.918-.101-1.918-.212v-.026c.128-.034.261-.046.393-.035h1.15c.132-.011.265.001.393.035v.034c0 .065.408.086 1.06.086.65 0 1.06-.021 1.06-.086 0-.181-3.999-.19-3.999-.442 0-.111.627-.185 1.866-.211a.706.706 0 00.292-.035z" fill="#895523"/><path d="M81.76 121.344v-.073a.118.118 0 00-.058-.101.11.11 0 00-.117 0 .118.118 0 00-.058.101v.073c-.01.078 0 .161 0 .231v1.312a.121.121 0 00.12.108.121.121 0 00.12-.108v-1.296a1.936 1.936 0 00-.007-.247zm1.189.276v-.072a.115.115 0 00-.016-.059.11.11 0 00-.042-.042.106.106 0 00-.12 0 .114.114 0 00-.042.043.118.118 0 00-.016.058v.072a1.918 1.918 0 000 .23v1.314a.12.12 0 00.035.084.117.117 0 00.169 0 .119.119 0 00.035-.084v-1.297a2.237 2.237 0 00-.003-.247zm1.338.188v-.071c0-.02-.006-.04-.017-.058a.114.114 0 00-.041-.043.106.106 0 00-.12 0 .118.118 0 00-.042.042.115.115 0 00-.016.059v.072a1.935 1.935 0 000 .231v1.311a.12.12 0 10.239 0v-1.295a1.937 1.937 0 00-.004-.248zm1.529.107v-.072a.111.111 0 00-.058-.101.106.106 0 00-.12 0 .12.12 0 00-.058.101v.072a1.978 1.978 0 000 .231v1.305a.12.12 0 00.12.12.12.12 0 00.084-.035.122.122 0 00.035-.085v-1.296c.004-.08.003-.16-.003-.24zm1.499.031v-.071a.13.13 0 00-.016-.059.133.133 0 00-.042-.044.122.122 0 00-.06-.016.113.113 0 00-.059.016.11.11 0 00-.043.044.116.116 0 00-.015.059v.071a1.952 1.952 0 000 .232v1.311a.12.12 0 10.238 0v-1.294a1.952 1.952 0 00-.003-.249zm6.609-.602v-.073a.118.118 0 01.058-.101.114.114 0 01.119 0 .124.124 0 01.058.101v.073c.004.077.004.154 0 .232v1.311a.121.121 0 01-.035.085.12.12 0 01-.084.035.12.12 0 01-.085-.035.121.121 0 01-.034-.085v-1.296a1.919 1.919 0 01.003-.247zm-1.186.276v-.072a.12.12 0 01.015-.059.119.119 0 01.043-.042.104.104 0 01.118 0c.018.01.032.025.043.042a.12.12 0 01.015.059v.072c.009.077 0 .154 0 .231v1.313a.124.124 0 01-.04.077.12.12 0 01-.16 0 .124.124 0 01-.04-.077v-1.297a1.922 1.922 0 01.006-.247zm-1.336.188v-.071a.11.11 0 01.058-.101.104.104 0 01.117 0 .11.11 0 01.043.042.11.11 0 01.015.059v.072a1.78 1.78 0 010 .231v1.311a.121.121 0 01-.12.108.121.121 0 01-.12-.108v-1.295c-.002-.083 0-.166.007-.248zm-1.53.107v-.072a.116.116 0 01.058-.102.11.11 0 01.117 0 .115.115 0 01.058.102v.072c.01.077 0 .154 0 .23v1.306a.121.121 0 01-.12.108.121.121 0 01-.12-.108v-1.296c-.002-.08 0-.16.007-.24zm-1.49.031v-.071a.12.12 0 01.058-.103.12.12 0 01.059-.016.12.12 0 01.059.016.119.119 0 01.058.103v.071c.004.077.004.155 0 .232v1.312a.121.121 0 01-.12.107.121.121 0 01-.12-.107v-1.295a2.3 2.3 0 01.006-.249z" fill="#E09F3E"/><path d="M94.216 120.407a.41.41 0 00-.153-.123.674.674 0 00-.163-.055.365.365 0 00-.094-.008.164.164 0 00-.044 0 .295.295 0 00-.04.018.045.045 0 00-.01.014.037.037 0 000 .033c.002.005.006.01.01.013a.393.393 0 00.042.033c.015.007.03.015.044.024.032.019.064.032.095.054h.01l.01.009a.532.532 0 01.038.035l.018.02.01.01v.038c0 .006 0 0 0 0v.011c-.001.02.004.04.014.057.01.018.024.033.042.043a.134.134 0 00.058.015.133.133 0 00.1-.048.153.153 0 00.045-.106.214.214 0 00-.032-.087zm-.526.457l-.012-.015v.01l.013.005z" fill="#F6DB6F"/><path d="M93.856 120.712a.11.11 0 00-.044 0h-.01a.112.112 0 00-.047.013l-.014.007-.015.008a.089.089 0 00-.04.035.17.17 0 00-.009.028.037.037 0 00-.01.016.038.038 0 000 .018c0 .007 0 .012.01.018a.09.09 0 00.041.036c.014.008.03.012.046.01h.061a.105.105 0 00.043-.026.123.123 0 00.026-.044.04.04 0 010-.013.062.062 0 00.014-.03.066.066 0 00-.003-.033.063.063 0 00-.02-.028.08.08 0 00-.03-.015z" fill="#F6DB6F"/></g><g filter="url(#filter10_d)"><path d="M82.48 125.952c.117.436-2.258 1.455-5.303 2.273-3.045.819-5.606 1.128-5.722.691-.116-.436 2.257-1.453 5.302-2.271 3.045-.819 5.608-1.129 5.724-.693z" fill="#D57D34"/><path d="M81.978 124.064l-11.026 2.964.503 1.889 11.026-2.964-.503-1.889z" fill="#D57D34"/><path d="M81.977 124.064c.116.437-2.258 1.453-5.303 2.272-3.045.819-5.6 1.129-5.722.691-.123-.438 2.258-1.454 5.302-2.273 3.043-.819 5.607-1.126 5.723-.69z" fill="#EABA47"/><path d="M81.324 124.239c.078.289-2.036 1.109-4.72 1.83-2.685.72-4.921 1.075-5 .783-.077-.292 2.037-1.107 4.722-1.829 2.684-.722 4.921-1.068 4.998-.784z" fill="#D57D34"/><path d="M76.784 125.999c2.521-.679 4.512-1.431 4.446-1.678-.067-.248-2.164.102-4.685.781-2.52.679-4.511 1.431-4.445 1.679.066.247 2.163-.103 4.684-.782z" fill="#E09F3E"/><path d="M75.675 125.353a.923.923 0 01.313-.115l.726-.195a.945.945 0 01.329-.059.659.659 0 00.249-.036c1.034-.255 1.575-.337 1.6-.246v.023l-1.582.425-.008-.03c-.013-.051-.324.01-.855.153-.532.143-.831.244-.818.297.038.153 3.311-.724 3.362-.516.024.09-.5.296-1.528.594a.604.604 0 00-.234.094.973.973 0 01-.313.115l-.726.195a.92.92 0 01-.328.057.648.648 0 00-.251.037c-1.045.259-1.589.339-1.614.248v-.021a.952.952 0 01.314-.115l.94-.252a.995.995 0 01.328-.059l.008.03c.013.05.352-.02.884-.163.532-.143.862-.252.848-.307-.04-.154-3.31.723-3.361.516-.023-.089.473-.288 1.48-.582.147-.036.24-.074.237-.088z" fill="#895523"/><path d="M71.686 127.539c0-.02-.011-.039-.016-.059a.103.103 0 00-.07-.07.092.092 0 00-.096.026.102.102 0 00-.026.097c0 .018.01.038.017.058.009.065.032.132.045.189.031.121.066.241.098.362l.19.71a.103.103 0 00.047.062.1.1 0 00.076.01.102.102 0 00.072-.124l-.185-.711c-.03-.116-.06-.232-.093-.349a1.418 1.418 0 00-.06-.201zm1.027-.036c0-.018-.01-.038-.015-.058a.104.104 0 00-.026-.045.108.108 0 00-.044-.026.091.091 0 00-.052 0 .09.09 0 00-.045.026.099.099 0 00-.024.097c0 .02.01.039.015.059.012.064.028.128.048.19.03.12.064.241.096.361l.19.711a.103.103 0 00.084.075.088.088 0 00.04-.003.095.095 0 00.06-.047.103.103 0 00.01-.077l-.187-.711-.092-.349a1.763 1.763 0 00-.058-.203zm1.134-.139c0-.019-.011-.039-.016-.059a.1.1 0 00-.026-.044.096.096 0 00-.044-.025.09.09 0 00-.052-.001.099.099 0 00-.07.071.1.1 0 000 .051c0 .02.01.039.015.059a16.104 16.104 0 00.145.551l.19.711a.1.1 0 00.047.062.099.099 0 00.138-.037.101.101 0 00.01-.077l-.188-.711c-.03-.117-.06-.233-.093-.349a1.701 1.701 0 00-.056-.202zm1.273-.254c0-.02-.01-.038-.015-.058a.108.108 0 00-.026-.045.101.101 0 00-.096-.027.104.104 0 00-.07.124c0 .018.01.038.015.058.009.065.033.132.047.189.03.122.064.241.096.363l.191.709a.1.1 0 00.047.062.104.104 0 00.077.011.1.1 0 00.062-.048.101.101 0 00.01-.077l-.188-.711c-.032-.115-.061-.232-.093-.349a2.024 2.024 0 00-.057-.201zm1.227-.298c0-.018-.01-.038-.017-.057a.097.097 0 00-.07-.07.09.09 0 00-.052 0 .09.09 0 00-.044.026.094.094 0 00-.025.044.1.1 0 000 .051c0 .02.011.038.016.058.012.065.028.128.047.191.03.121.064.241.096.361l.191.711a.102.102 0 00.121.063.104.104 0 00.059-.043.103.103 0 00.014-.072l-.188-.711-.091-.349a2.034 2.034 0 00-.057-.203zm5.278-1.946l-.016-.058a.101.101 0 01.026-.095.09.09 0 01.096-.027.108.108 0 01.044.026.103.103 0 01.026.045c0 .019.01.038.015.058.022.062.04.124.054.188l.096.362.188.711a.102.102 0 01-.072.125.105.105 0 01-.04.002.098.098 0 01-.037-.012.103.103 0 01-.047-.062l-.189-.711c-.032-.116-.064-.232-.093-.348a1.726 1.726 0 01-.05-.204zm-.91.487c0-.02-.011-.038-.016-.058a.105.105 0 01.026-.097.097.097 0 01.045-.025.088.088 0 01.05 0 .096.096 0 01.07.069c0 .02.011.04.017.06.025.062.037.131.054.188.033.12.062.241.094.362l.188.711a.101.101 0 01-.014.072.101.101 0 01-.059.044.107.107 0 01-.073-.008.105.105 0 01-.048-.055l-.19-.712-.094-.348a1.73 1.73 0 01-.05-.203zm-1.051.446c0-.019-.011-.039-.016-.059a.099.099 0 01.026-.097.098.098 0 01.045-.025.091.091 0 01.052.001.105.105 0 01.043.026.1.1 0 01.025.045c0 .018.011.038.017.058.025.061.037.132.054.187l.094.363.188.711a.105.105 0 01.003.04.098.098 0 01-.013.037.096.096 0 01-.061.047.1.1 0 01-.106-.036.105.105 0 01-.018-.036l-.19-.709c-.03-.117-.062-.232-.093-.349a1.726 1.726 0 01-.05-.204zm-1.229.42c0-.02-.01-.04-.015-.058a.1.1 0 01.122-.123.105.105 0 01.043.026.103.103 0 01.026.045c0 .02.01.04.015.058.021.062.04.125.053.189.034.12.064.241.097.361l.188.711a.1.1 0 01-.01.077.097.097 0 01-.027.03.115.115 0 01-.035.018.104.104 0 01-.077-.011.086.086 0 01-.03-.026.105.105 0 01-.017-.036l-.19-.709c-.03-.117-.062-.232-.093-.349a1.74 1.74 0 01-.05-.203zm-1.212.358c0-.02-.01-.038-.015-.058a.095.095 0 01.025-.095.09.09 0 01.096-.027.109.109 0 01.045.026.094.094 0 01.025.045c0 .019.01.039.015.059.022.061.04.124.054.187l.096.362.188.719a.101.101 0 01-.01.077.1.1 0 01-.062.048.105.105 0 01-.077-.011.1.1 0 01-.047-.062l-.189-.709c-.032-.117-.064-.234-.093-.349a1.694 1.694 0 01-.05-.212z" fill="#E09F3E"/><path d="M81.66 124.037a.334.334 0 00-.153-.066.711.711 0 00-.153-.01.284.284 0 00-.076.016.116.116 0 00-.036.014.145.145 0 00-.038.034.03.03 0 00-.003.014.03.03 0 00.012.025c.014 0 .028.014.042.019l.042.009c.03.009.059.014.088.025h.02a.278.278 0 01.04.021l.019.011h.017v.024a.093.093 0 00.025.044.086.086 0 00.044.025.097.097 0 00.095-.026.094.094 0 00.027-.035.133.133 0 00.012-.097.162.162 0 00-.024-.047zm-.229.328a.122.122 0 00-.038 0 .091.091 0 00-.035.02l-.01.01-.011.009a.091.091 0 00-.025.038v.025a.029.029 0 00-.003.014.03.03 0 00.003.015.03.03 0 00.014.012.073.073 0 00.041.022.089.089 0 00.04 0 .067.067 0 00.023-.011h.024a.092.092 0 00.041-.072v-.031a.062.062 0 00-.006-.022.068.068 0 00-.015-.017.052.052 0 00-.02-.01.057.057 0 00-.023-.002z" fill="#F6DB6F"/></g><g filter="url(#filter11_d)"><path d="M78.08 118.272c2.433-.314 4.369-.851 4.324-1.2-.044-.349-2.053-.378-4.486-.064-2.433.313-4.37.851-4.325 1.2.045.349 2.053.378 4.487.064z" fill="#D57D34"/><path d="M82.211 115.562l-8.81 1.136.192 1.508 8.81-1.136-.192-1.508z" fill="#D57D34"/><path d="M82.216 115.56c.045.35-1.891.886-4.325 1.201-2.434.315-4.44.284-4.486-.064-.046-.349 1.893-.885 4.326-1.2 2.432-.315 4.437-.285 4.486.063z" fill="#EABA47"/><path d="M81.69 115.628c.03.232-1.681.643-3.83.921-2.148.278-3.908.308-3.937.083-.029-.224 1.68-.643 3.83-.921 2.15-.278 3.907-.314 3.936-.083z" fill="#D57D34"/><path d="M81.44 115.66c.025.198-1.58.567-3.587.826-2.006.26-3.654.308-3.679.113-.024-.195 1.581-.569 3.588-.827 2.006-.258 3.653-.308 3.677-.112z" fill="#E09F3E"/><path d="M77.218 115.898a.762.762 0 01.254-.055l.58-.075a.68.68 0 01.258-.01.468.468 0 00.197 0c.822-.089 1.249-.095 1.258-.023v.019l-1.264.163v-.025c0-.041-.25-.025-.675.029-.425.054-.668.103-.661.145.015.118 2.627-.214 2.649-.048.009.072-.416.177-1.236.299a.48.48 0 00-.19.048.739.739 0 01-.253.057l-.58.074a.756.756 0 01-.26.01.495.495 0 00-.196 0c-.834.089-1.26.096-1.27.023v-.016a.694.694 0 01.254-.057l.752-.097a.709.709 0 01.26-.009v.021c0 .042.274.022.699-.032.425-.054.69-.104.686-.146-.015-.12-2.628.212-2.65.048-.008-.072.395-.174 1.202-.295a.465.465 0 00.186-.048z" fill="#895523"/><path d="M73.912 117.167v-.046a.076.076 0 00-.015-.037.083.083 0 00-.03-.025.073.073 0 00-.041-.006.075.075 0 00-.038.017.074.074 0 00-.023.032.077.077 0 00-.006.039v.046c.002.051.008.103.017.153.01.097.025.194.037.289l.073.568a.078.078 0 00.032.044.071.071 0 00.053.012.075.075 0 00.048-.025.079.079 0 00.02-.051 74.735 74.735 0 00-.107-.846 1.288 1.288 0 00-.02-.164zm.798.081v-.046a.082.082 0 00-.015-.038.08.08 0 00-.03-.025c-.014-.005-.028-.007-.041-.005a.078.078 0 00-.067.087v.047c.003.052.009.103.017.154.01.097.024.193.037.29l.073.567a.082.082 0 00.032.044c.016.01.035.014.053.012a.082.082 0 00.048-.026.075.075 0 00.02-.05c-.023-.189-.048-.378-.07-.568-.013-.093-.023-.186-.037-.278a1.3 1.3 0 00-.02-.165zm.888.011v-.048a.079.079 0 00-.047-.062.09.09 0 00-.04-.005.074.074 0 00-.037.017.072.072 0 00-.029.07v.048c.002.051.008.103.017.154.01.096.024.193.037.288l.073.569a.076.076 0 00.032.043.077.077 0 00.053.013.079.079 0 00.068-.076c-.025-.189-.048-.38-.072-.569l-.035-.278a1.288 1.288 0 00-.02-.164zm1.007-.064v-.046a.072.072 0 00-.046-.062.07.07 0 00-.04-.006.075.075 0 00-.038.015.083.083 0 00-.03.072v.047a1.5 1.5 0 00.018.153c.01.097.024.192.036.289l.074.568a.079.079 0 00.13.027.081.081 0 00.022-.047l-.072-.568c-.012-.092-.022-.186-.035-.278a1.306 1.306 0 00-.02-.164zm.978-.1v-.048a.082.082 0 00-.016-.037.074.074 0 00-.032-.024c-.012-.006-.026-.008-.04-.006a.063.063 0 00-.036.016.075.075 0 00-.025.032.075.075 0 00-.006.039v.048a8.754 8.754 0 00.055.442c.025.19.05.379.072.568a.08.08 0 00.034.04.08.08 0 00.097-.013.08.08 0 00.022-.047 78.664 78.664 0 01-.072-.568l-.035-.278a1.286 1.286 0 00-.018-.164zm4.272-.953v-.046a.074.074 0 01.03-.07.072.072 0 01.037-.017.068.068 0 01.04.006.073.073 0 01.032.024.08.08 0 01.015.037v.048c.01.051.018.102.022.153.014.096.024.192.036.289l.072.569a.078.078 0 01-.022.046.076.076 0 01-.046.023.075.075 0 01-.051-.01.081.081 0 01-.033-.039l-.072-.569a13.225 13.225 0 01-.037-.278 1.289 1.289 0 01-.023-.166zm-.751.281v-.046a.082.082 0 01.005-.04.087.087 0 01.024-.032.075.075 0 01.038-.016.08.08 0 01.04.007.072.072 0 01.032.024.076.076 0 01.014.037v.046a1.5 1.5 0 01.023.154l.037.29c.022.189.047.378.071.567a.08.08 0 01-.022.047.08.08 0 01-.097.013.079.079 0 01-.033-.04l-.074-.567c-.01-.093-.024-.186-.035-.279a1.25 1.25 0 01-.023-.165zm-.858.236v-.047a.083.083 0 01.03-.072.074.074 0 01.036-.015.07.07 0 01.04.006.072.072 0 01.032.024.076.076 0 01.014.037v.048c.01.051.019.102.023.154l.037.285.07.569a.079.079 0 01-.068.076.076.076 0 01-.052-.013.076.076 0 01-.032-.043l-.074-.569c-.01-.092-.024-.186-.035-.278a1.296 1.296 0 01-.021-.162zm-.991.195v-.046a.076.076 0 01.005-.04.082.082 0 01.024-.033.08.08 0 01.037-.016.077.077 0 01.04.007.076.076 0 01.031.025c.008.01.014.023.016.037v.046c.01.051.016.102.02.153.015.097.025.194.038.291l.071.566a.08.08 0 01-.02.051.075.075 0 01-.047.025.076.076 0 01-.053-.012.078.078 0 01-.032-.044l-.072-.569-.037-.278c-.007-.05-.021-.108-.021-.163zm-.972.15v-.047a.076.076 0 01.005-.04.076.076 0 01.024-.031.077.077 0 01.076-.011.086.086 0 01.048.063v.046c.01.051.017.102.021.154.014.097.025.193.037.289.024.19.047.379.072.568a.074.074 0 01-.02.05.081.081 0 01-.048.026.081.081 0 01-.053-.012.08.08 0 01-.032-.044l-.073-.567-.037-.279a1.657 1.657 0 01-.02-.165z" fill="#E09F3E"/><path d="M81.967 115.507a.273.273 0 00-.114-.066.426.426 0 00-.173-.024.143.143 0 00-.03.008.087.087 0 00-.024.016.017.017 0 00-.007.008.022.022 0 00-.003.011c0 .004.001.007.003.011a.024.024 0 00.007.008c.01.007.02.013.031.018l.03.013c.023.009.045.017.066.027h.016l.027.02.014.013v.023a.08.08 0 00.015.036c.008.01.019.018.03.023a.089.089 0 00.04.006.083.083 0 00.037-.015.109.109 0 00.044-.098.134.134 0 00-.009-.038zm-.305.343l-.01-.007.01.007zm.097-.113a.079.079 0 00-.06.012h-.018a.054.054 0 00-.023.026v.02a.03.03 0 00-.003.012.02.02 0 00.003.011l.01.011a.067.067 0 00.028.019c.01.003.02.003.03 0h.041a.082.082 0 00.026-.02.07.07 0 00.012-.031.02.02 0 000-.009.04.04 0 000-.02.04.04 0 00-.026-.029.044.044 0 00-.02-.002z" fill="#F6DB6F"/></g><g filter="url(#filter12_d)"><path d="M117.709 112.462c.187-.478-2.364-1.934-5.698-3.254-3.334-1.319-6.188-2.002-6.375-1.524-.187.477 2.364 1.934 5.698 3.253 3.334 1.32 6.188 2.002 6.375 1.525z" fill="#D57D34"/><path d="M118.522 110.393l-12.073-4.778-.81 2.068 12.073 4.778.81-2.068z" fill="#D57D34"/><path d="M118.52 110.395c-.188.48-3.042-.204-6.376-1.523-3.334-1.32-5.89-2.777-5.698-3.255.193-.478 3.042.204 6.376 1.524 3.334 1.319 5.886 2.777 5.698 3.254z" fill="#EABA47"/><path d="M117.805 110.113c-.123.316-2.606-.37-5.546-1.536-2.94-1.166-5.221-2.364-5.097-2.68.124-.317 2.608.37 5.546 1.536 2.938 1.165 5.221 2.363 5.097 2.68z" fill="#D57D34"/><path d="M117.461 109.978c-.105.27-2.42-.394-5.169-1.483-2.748-1.089-4.889-2.188-4.787-2.457.103-.269 2.416.39 5.166 1.479 2.751 1.089 4.897 2.19 4.79 2.461z" fill="#E09F3E"/><path d="M111.891 107.294c.127.014.251.05.365.108l.794.315c.122.037.237.094.34.17.074.061.16.107.252.135 1.115.469 1.665.768 1.627.862l-.011.025-1.731-.685.012-.033c.023-.057-.305-.21-.884-.44-.579-.231-.925-.341-.948-.285-.062.163 3.515 1.587 3.426 1.814-.04.1-.656-.067-1.792-.49a.766.766 0 00-.277-.075 1.071 1.071 0 01-.363-.107l-.793-.308a1.09 1.09 0 01-.34-.172.767.767 0 00-.252-.135c-1.13-.474-1.68-.768-1.642-.869l.009-.023c.126.014.249.051.364.107l1.029.409c.123.036.237.094.34.17l-.013.031c-.023.055.336.221.917.452.581.23.957.354.979.307.065-.163-3.514-1.588-3.424-1.814.039-.1.625.057 1.744.471a.708.708 0 00.272.06z" fill="#895523"/><path d="M106.772 106.58l.025-.063a.114.114 0 00.007-.058.107.107 0 00-.07-.089.11.11 0 00-.112.017.114.114 0 00-.034.047c-.01.02-.017.042-.026.063-.036.066-.058.145-.084.206-.054.132-.103.264-.153.396l-.306.779a.117.117 0 00.002.088.113.113 0 00.151.06.114.114 0 00.061-.063l.306-.778.152-.381c.032-.073.059-.147.081-.224zm.966.668l.025-.064a.114.114 0 00-.017-.111.114.114 0 00-.047-.037.111.111 0 00-.112.018.108.108 0 00-.034.047l-.026.064a2.468 2.468 0 00-.084.206c-.053.131-.104.264-.152.396l-.306.779a.112.112 0 00.002.089.115.115 0 00.025.037c.011.01.024.018.038.024a.11.11 0 00.088-.002.115.115 0 00.037-.025.136.136 0 00.024-.038l.305-.777.153-.383c.032-.072.059-.147.081-.223zm1.129.642l.026-.064a.107.107 0 00-.017-.111.105.105 0 00-.105-.043.11.11 0 00-.054.024.119.119 0 00-.035.047l-.024.064a2.183 2.183 0 00-.086.206c-.052.131-.102.264-.153.396l-.305.779a.112.112 0 00.002.088.11.11 0 00.063.062.117.117 0 00.149-.065l.305-.778c.049-.127.101-.255.153-.382.031-.073.058-.147.081-.223zm1.336.631a.79.79 0 01.024-.062.119.119 0 00.007-.059.114.114 0 00-.024-.054.104.104 0 00-.105-.041.105.105 0 00-.054.023.105.105 0 00-.035.048l-.024.063c-.032.067-.06.135-.084.205-.054.132-.104.265-.153.397l-.306.778a.12.12 0 00.002.089c.012.028.035.05.063.061.029.011.06.011.088-.001a.12.12 0 00.061-.064l.306-.777c.049-.128.101-.254.153-.381.031-.073.058-.148.081-.225zm1.321.563l.025-.063a.116.116 0 00-.016-.113.103.103 0 00-.047-.035.113.113 0 00-.112.018.119.119 0 00-.035.047l-.024.064a2.262 2.262 0 00-.086.204c-.053.133-.102.265-.152.398l-.306.777a.116.116 0 00.064.151c.028.011.06.011.088-.001a.118.118 0 00.062-.064l.305-.778.153-.381c.031-.073.058-.148.081-.224zm6.133 1.804l.026-.063a.105.105 0 01.035-.046.104.104 0 01.052-.024.099.099 0 01.059.006.105.105 0 01.048.035.121.121 0 01.022.054c.003.02 0 .04-.007.058l-.024.065c-.02.072-.055.146-.078.207-.05.134-.104.264-.153.396l-.305.779a.113.113 0 01-.149.065.116.116 0 01-.064-.061.117.117 0 01-.001-.088l.305-.779a9.5 9.5 0 01.153-.382c.023-.076.05-.15.081-.222zm-1.158-.172a.832.832 0 00.024-.064.112.112 0 01.036-.047.112.112 0 01.053-.024.105.105 0 01.105.043.107.107 0 01.017.111l-.026.064a1.931 1.931 0 01-.076.209c-.051.132-.104.264-.153.396l-.305.778a.12.12 0 01-.062.063.114.114 0 01-.151-.059.115.115 0 01-.001-.089l.305-.779.153-.382c.023-.075.05-.148.081-.22zm-1.262-.305l.024-.063a.119.119 0 01.035-.047.12.12 0 01.054-.024.105.105 0 01.058.006c.019.007.035.02.047.036a.107.107 0 01.024.053c.002.02 0 .04-.007.059l-.026.064c-.022.071-.047.14-.076.208-.051.133-.104.264-.153.396l-.306.777a.113.113 0 01-.149.065.117.117 0 01-.065-.149l.306-.779c.05-.126.098-.255.153-.381.022-.075.049-.149.081-.221zm-1.404-.452c0-.021.015-.043.024-.064a.119.119 0 01.088-.071.116.116 0 01.058.006c.018.008.034.02.047.035a.118.118 0 01.017.112l-.025.065a1.594 1.594 0 01-.078.209c-.05.132-.103.264-.152.396-.101.26-.204.518-.306.777a.113.113 0 01-.061.064.117.117 0 01-.088.002.117.117 0 01-.065-.15l.306-.779c.049-.127.098-.255.153-.382a1.94 1.94 0 01.082-.22zm-1.35-.494l.025-.065a.12.12 0 01.034-.047.128.128 0 01.053-.024.119.119 0 01.059.006c.019.008.035.02.048.036.012.016.02.034.022.054.003.02.001.04-.007.058l-.024.065a1.91 1.91 0 01-.078.207c-.051.133-.104.264-.153.396l-.306.779a.12.12 0 01-.061.064.117.117 0 01-.088.001.114.114 0 01-.064-.15l.305-.778c.049-.128.098-.255.153-.383.023-.075.05-.148.082-.219z" fill="#E09F3E"/><path d="M118.247 110.154a.377.377 0 00-.099-.166.478.478 0 00-.206-.147.226.226 0 00-.043-.011.294.294 0 00-.042 0 .034.034 0 00-.015.007.025.025 0 00-.011.012.033.033 0 00-.005.016.032.032 0 00.002.017c.009.015.018.03.028.043l.031.039c.021.027.045.052.064.081l.007.011a.02.02 0 010 .011c0 .015.016.03.022.046l.009.023v.034a.071.071 0 00-.008.015v.009a.114.114 0 00.017.111.12.12 0 00.047.034c.018.007.038.01.057.007a.12.12 0 00.049-.014.132.132 0 00.046-.032.15.15 0 00.03-.048.194.194 0 00.02-.098zm-.429.143a.11.11 0 00-.037-.023h-.008a.124.124 0 00-.047 0h-.032a.088.088 0 00-.047.018.2.2 0 00-.019.022.045.045 0 00-.014.01.046.046 0 00-.007.016v.02a.093.093 0 00.024.046c.01.012.023.021.037.026h.06a.109.109 0 00.047-.008.08.08 0 00.038-.03l.008-.009a.064.064 0 00-.003-.088z" fill="#F6DB6F"/></g><g filter="url(#filter13_d)"><path d="M113.11 130c3.715 0 6.727-3.028 6.727-6.763s-3.012-6.762-6.727-6.762c-3.716 0-6.728 3.027-6.728 6.762 0 3.735 3.012 6.763 6.728 6.763z" fill="#EABA47"/><path d="M113.11 128.902c3.112 0 5.634-2.536 5.634-5.665 0-3.128-2.522-5.664-5.634-5.664-3.113 0-5.635 2.536-5.635 5.664 0 3.129 2.522 5.665 5.635 5.665z" fill="#D57D34"/><path d="M113.109 128.556c2.922 0 5.291-2.381 5.291-5.319 0-2.937-2.369-5.319-5.291-5.319s-5.291 2.382-5.291 5.319c0 2.938 2.369 5.319 5.291 5.319z" fill="#E09F3E"/><path d="M112.545 119.124v-.015a.31.31 0 01.089-.218.308.308 0 01.216-.089h.7a.306.306 0 01.306.307v.012a.303.303 0 00.234.299c.99.231 1.495.876 1.495 1.857v.245h-1.528v-.321c0-.556-.293-.768-.805-.768s-.807.212-.807.768c0 1.6 3.151 1.678 3.151 3.901 0 .983-.519 1.637-1.511 1.868a.3.3 0 00-.171.112.304.304 0 00-.063.195.304.304 0 01-.305.307h-.7a.307.307 0 01-.306-.307.304.304 0 00-.063-.195.298.298 0 00-.171-.112c-1.002-.229-1.509-.885-1.509-1.868v-.223a.304.304 0 01.305-.307h.91a.304.304 0 01.305.307v.307c0 .556.323.756.834.756.512 0 .836-.2.836-.756 0-1.602-3.149-1.678-3.149-3.902 0-.971.494-1.616 1.468-1.854a.314.314 0 00.174-.11.314.314 0 00.065-.196z" fill="#895523"/><path d="M117.615 118.632a.397.397 0 00-.112-.182 2.535 2.535 0 00-.254-.22 5.736 5.736 0 00-.597-.428 4.741 4.741 0 00-.611-.321c-.214-.093-.492-.239-.717-.1a.137.137 0 00-.061.153c.092.225.321.291.523.384.202.094.399.2.59.317.178.108.348.228.51.359.087.071.169.154.253.22.054.05.118.087.188.107a.515.515 0 00.214-.017.084.084 0 00.057-.056.48.48 0 00.017-.216zm.18.839c0-.014-.011-.029-.017-.043v-.014l.017.057z" fill="#F6DB6F"/><path d="M118.449 119.781a.312.312 0 000-.136c0 .021 0 .041.008.063a.332.332 0 00-.008-.089.49.49 0 00-.035-.085 2.536 2.536 0 00-.121-.2.942.942 0 00-.129-.153.285.285 0 00-.193-.088.208.208 0 00-.183.099.224.224 0 00-.037.126.283.283 0 00.024.107c.036.08.076.157.121.232.018.031.037.061.054.094l.029.049a.323.323 0 00.071.081l.043.031-.047-.037a.25.25 0 00.134.068.205.205 0 00.042.007c.018.01.038.016.059.017a.049.049 0 00.023.008.05.05 0 00.024-.003.066.066 0 00.02-.014.06.06 0 00.011-.021v-.01l.014-.018a.202.202 0 00.014-.034.21.21 0 00.013-.026.159.159 0 00.049-.068z" fill="#F6DB6F"/></g><g filter="url(#filter14_d)"><path d="M103.391 101.736a4.058 4.058 0 01-.225 4.488 4.003 4.003 0 01-4.211 1.508 4.012 4.012 0 01-2.002-1.21 4.06 4.06 0 01-.649-4.446 4.033 4.033 0 013.05-2.267 4.006 4.006 0 014.037 1.927z" fill="#EABA47"/><path d="M103.212 104.618a3.387 3.387 0 00-2.469-4.096 3.367 3.367 0 00-4.075 2.482 3.388 3.388 0 002.47 4.096 3.367 3.367 0 004.074-2.482z" fill="#D57D34"/><path d="M102.378 105.834a3.192 3.192 0 00-.425-4.478 3.154 3.154 0 00-4.455.427 3.193 3.193 0 00.425 4.479 3.153 3.153 0 004.455-.428z" fill="#E09F3E"/><path d="M98.395 101.873a.186.186 0 01.062-.255l.35-.224a.185.185 0 01.068-.025.195.195 0 01.072.004.195.195 0 01.066.031.19.19 0 01.048.054.18.18 0 00.21.083c.578-.187 1.035-.012 1.335.492l.074.126-.782.47-.098-.166c-.17-.286-.385-.307-.647-.154-.263.154-.346.37-.17.656.489.822 2.13-.109 2.808 1.032.306.505.232 1.002-.206 1.425a.185.185 0 00-.028.226.188.188 0 01-.064.255l-.359.215a.17.17 0 01-.068.025.175.175 0 01-.137-.034.166.166 0 01-.048-.054.185.185 0 00-.213-.083c-.583.191-1.045.011-1.344-.493l-.068-.112a.185.185 0 01.01-.206.188.188 0 01.055-.049l.458-.278a.185.185 0 01.254.063l.091.154c.17.285.396.289.659.13.263-.158.368-.359.198-.645-.489-.821-2.13.109-2.806-1.033-.297-.498-.24-.982.188-1.404a.187.187 0 00.055-.108.182.182 0 00-.023-.118z" fill="#895523"/><path d="M100.851 100.059a.258.258 0 00-.113-.06 3.484 3.484 0 00-.636-.07 2.823 2.823 0 00-.411.024c-.138.017-.324.028-.397.169a.081.081 0 00.015.098.515.515 0 00.385.036 3.149 3.149 0 01.772.007c.065.009.131.023.197.036.042.01.086.01.128 0a.305.305 0 00.105-.076.045.045 0 00.011-.046.274.274 0 00-.056-.118zm.347.373l-.021-.017.021.017zm.431-.041a.207.207 0 00-.044-.071l.024.031a.283.283 0 00-.032-.045l-.043-.032-.04-.023c-.027-.014-.055-.029-.084-.042a.562.562 0 00-.113-.04.172.172 0 00-.122.016.122.122 0 00-.064.106.141.141 0 00.066.124.95.95 0 00.133.082l.055.032.03.017c.019.01.04.016.061.018h.032-.036c.029.01.061.01.09 0l.024-.009a.067.067 0 00.034-.009.025.025 0 00.014-.004.031.031 0 00.017-.022.023.023 0 00-.001-.014v-.014a.074.074 0 000-.021.06.06 0 000-.019.106.106 0 00-.001-.061z" fill="#F6DB6F"/></g><path d="M108.621 111.873a.213.213 0 00-.099-.061.274.274 0 00-.111-.051.852.852 0 00-.459-.07c-.049 0-.096.009-.145.013-.009-.049-.015-.099-.027-.153a1.061 1.061 0 00-.161-.436.097.097 0 00-.038-.022.09.09 0 00-.043-.004.102.102 0 00-.072.046.466.466 0 00-.067.199c-.014.08-.03.154-.043.24-.012.086-.013.126-.02.19-.132.02-.267.043-.397.076a.374.374 0 00-.218.124c-.022.025-.068.077-.048.112.084.154.234.172.396.189.084.008.168.015.252.02.002.071.009.141.02.21.018.132.07.257.153.361.025.054.054.105.087.154a.095.095 0 00.03.019.11.11 0 00.036.003.079.079 0 00.033-.013.078.078 0 00.025-.026.703.703 0 00.047-.109c.015-.026.037-.046.05-.074a.848.848 0 00.078-.279 1.539 1.539 0 000-.254c.037 0 .075 0 .112-.007a.784.784 0 00.487-.172.468.468 0 00.1-.077c-.023.023 0 0 .015 0a.212.212 0 00.047-.06.076.076 0 00.006-.047.078.078 0 00-.026-.041zM85.177 98.89a.22.22 0 00-.099-.062.268.268 0 00-.112-.051.855.855 0 00-.458-.07c-.049 0-.096.009-.153.013l-.027-.153a1.06 1.06 0 00-.16-.437.101.101 0 00-.123-.01.1.1 0 00-.03.03.462.462 0 00-.068.2c-.013.08-.03.154-.042.24-.013.086-.014.126-.02.189a4.434 4.434 0 00-.398.076.39.39 0 00-.22.123c-.02.026-.065.077-.047.112.084.154.235.174.397.19.084.008.168.016.252.02.003.071.01.142.02.211a.76.76 0 00.153.361c.026.053.056.105.089.154a.083.083 0 00.03.018c.012.004.024.005.036.004a.08.08 0 00.057-.039.77.77 0 00.048-.11c.015-.025.036-.047.05-.073a.907.907 0 00.078-.281 1.558 1.558 0 000-.252c.037 0 .073 0 .112-.008a.777.777 0 00.483-.165.44.44 0 00.1-.077c-.023.023 0 0 .016 0a.29.29 0 00.047-.06.073.073 0 00-.01-.094zm36.796 17.172a.235.235 0 00-.101-.059.268.268 0 00-.11-.053.84.84 0 00-.466-.069l-.144.014c-.009-.051-.016-.101-.029-.154a1.058 1.058 0 00-.152-.436.111.111 0 00-.038-.022.105.105 0 00-.043-.003.095.095 0 00-.072.045.453.453 0 00-.067.201c-.016.08-.033.154-.043.238a3.145 3.145 0 00-.02.191 4.252 4.252 0 00-.399.077.378.378 0 00-.218.123c-.02.026-.066.076-.048.112.084.153.236.172.398.189.084 0 .166.015.25.02.003.07.01.14.02.21a.77.77 0 00.153.361c.025.053.055.105.088.154a.087.087 0 00.031.018.077.077 0 00.093-.034c.023-.035.028-.074.048-.109.019-.035.035-.047.048-.075a.882.882 0 00.08-.28 1.766 1.766 0 000-.252h.11a.788.788 0 00.478-.179.47.47 0 00.101-.076c-.024.024 0 0 .015 0a.248.248 0 00.048-.059.076.076 0 00.011-.048.077.077 0 00-.022-.045zM106.66 98.65a.163.163 0 00-.068-.043.222.222 0 00-.078-.035.59.59 0 00-.323-.048c-.033 0-.065 0-.099.01 0-.035-.012-.07-.02-.104a.768.768 0 00-.11-.307.074.074 0 00-.027-.016.069.069 0 00-.06.009.063.063 0 00-.021.022.31.31 0 00-.048.139c-.009.055-.021.109-.029.165a2.21 2.21 0 00-.013.131 3.19 3.19 0 00-.277.054.264.264 0 00-.153.086c-.014.017-.046.052-.033.077.059.109.163.12.275.13l.175.016a.999.999 0 00.014.144.532.532 0 00.098.263c.018.035.038.07.061.102a.056.056 0 00.045.016.05.05 0 00.023-.009.066.066 0 00.018-.017.99.99 0 00.033-.076c.009-.018.025-.032.034-.052a.621.621 0 00.055-.193 1.279 1.279 0 000-.175h.078a.543.543 0 00.337-.119.288.288 0 00.069-.053c-.015.017 0 0 .011 0a.177.177 0 00.033-.042.045.045 0 00.013-.017.049.049 0 00.004-.02.049.049 0 00-.004-.021.046.046 0 00-.013-.017zm-19 14.01a.16.16 0 00-.069-.043.2.2 0 00-.076-.035.586.586 0 00-.323-.048l-.1.009c0-.034-.011-.069-.02-.103a.734.734 0 00-.11-.307.07.07 0 00-.027-.015.064.064 0 00-.03-.003.075.075 0 00-.03.01.076.076 0 00-.022.022.32.32 0 00-.046.14c-.01.055-.021.109-.03.166-.01.056-.01.087-.014.13a3.22 3.22 0 00-.275.054.268.268 0 00-.153.084c-.013.019-.046.054-.032.079.058.109.164.12.275.13l.174.016c0 .047 0 .096.014.144.01.093.046.182.102.256a.673.673 0 00.062.103.045.045 0 00.02.013.05.05 0 00.047-.006.047.047 0 00.017-.017.828.828 0 00.033-.076c.01-.018.025-.032.035-.052a.606.606 0 00.054-.193.965.965 0 000-.175h.076a.54.54 0 00.338-.119.298.298 0 00.07-.053c-.017.016 0 0 .01 0a.202.202 0 00.033-.042.05.05 0 00-.003-.069zm23.848-8.942a.144.144 0 00-.069-.041.178.178 0 00-.076-.036.596.596 0 00-.322-.049l-.101.009c0-.033-.011-.069-.019-.103a.739.739 0 00-.111-.307.074.074 0 00-.027-.016.08.08 0 00-.031-.003.065.065 0 00-.029.011.066.066 0 00-.022.022.309.309 0 00-.045.138c-.011.056-.022.111-.03.166a1.474 1.474 0 00-.013.132c-.093.013-.186.03-.277.052a.265.265 0 00-.153.086c-.015.017-.045.053-.033.077.058.109.163.12.275.132.058 0 .116.011.174.014 0 .049 0 .097.014.154a.53.53 0 00.102.25.777.777 0 00.061.105c.006.005.013.01.021.012a.053.053 0 00.025.002.05.05 0 00.023-.009.042.042 0 00.017-.018.497.497 0 00.032-.075c.011-.018.026-.032.035-.051a.633.633 0 00.053-.196 1.023 1.023 0 000-.175h.078a.56.56 0 00.338-.12.39.39 0 00.069-.052c-.017.015 0 0 .011 0a.265.265 0 00.033-.042.055.055 0 00.012-.035.053.053 0 00-.015-.034zm-36.743 18.241a.172.172 0 00-.069-.043.188.188 0 00-.078-.035.577.577 0 00-.322-.048l-.1.009a1.06 1.06 0 00-.02-.103.74.74 0 00-.11-.307.068.068 0 00-.086-.008.07.07 0 00-.022.022.325.325 0 00-.047.138c-.01.056-.022.111-.03.166-.007.055-.01.088-.013.132a2.606 2.606 0 00-.276.054.256.256 0 00-.153.085c-.015.018-.046.053-.034.078.058.107.164.12.275.13.058 0 .116.011.176.014 0 .049.005.098.012.146a.544.544 0 00.103.251.735.735 0 00.06.104c.006.006.014.01.021.013a.05.05 0 00.025.002.061.061 0 00.023-.008.063.063 0 00.017-.018.663.663 0 00.034-.077c.009-.016.024-.032.033-.05a.62.62 0 00.055-.194 1.136 1.136 0 000-.175h.078a.534.534 0 00.338-.12.348.348 0 00.069-.052c-.016.015 0 0 .01 0a.18.18 0 00.034-.041.056.056 0 00.01-.033.053.053 0 00-.013-.032zm34.845-6.747a.152.152 0 00-.069-.041.22.22 0 00-.077-.037.597.597 0 00-.323-.048c-.033 0-.067 0-.101.01 0-.034-.01-.069-.018-.103a.735.735 0 00-.112-.307.054.054 0 00-.026-.016.08.08 0 00-.031-.003.069.069 0 00-.028.011.08.08 0 00-.022.023.295.295 0 00-.047.138c-.009.056-.021.109-.029.166a1.65 1.65 0 00-.014.131c-.093.015-.186.03-.276.053a.254.254 0 00-.153.086c-.015.017-.046.053-.034.077.058.109.164.12.275.131l.175.015c0 .048 0 .097.013.145a.525.525 0 00.103.251.559.559 0 00.061.103.046.046 0 00.021.013.05.05 0 00.047-.006.046.046 0 00.017-.017.735.735 0 00.034-.076c.009-.018.024-.032.034-.052a.678.678 0 00.055-.193 1.292 1.292 0 000-.176h.078a.551.551 0 00.337-.119.357.357 0 00.069-.054c-.015.017 0 0 .011 0a.17.17 0 00.033-.042.057.057 0 00.009-.032.06.06 0 00-.012-.031z" fill="#EABA47"/><g filter="url(#filter15_d)"><path d="M96.023 121.25c3.725 0 6.745-.433 6.745-.966 0-.534-3.02-.966-6.745-.966-3.724 0-6.744.432-6.744.966 0 .533 3.02.966 6.745.966z" fill="#D57D34"/><path d="M102.768 117.974H89.279v2.31h13.489v-2.31z" fill="#D57D34"/><path d="M102.769 117.974c0 .534-3.02.966-6.745.966s-6.744-.432-6.744-.966c0-.535 3.02-.967 6.744-.967 3.725 0 6.745.432 6.745.967z" fill="#EABA47"/><path d="M96.023 118.614c3.284 0 5.945-.287 5.945-.641 0-.353-2.661-.64-5.945-.64-3.283 0-5.945.287-5.945.64 0 .354 2.662.641 5.945.641z" fill="#D57D34"/><path d="M101.585 117.974c0 .307-2.489.547-5.561.547-3.073 0-5.562-.245-5.562-.547 0-.303 2.49-.547 5.561-.547 3.072 0 5.562.244 5.562.547z" fill="#E09F3E"/><path d="M95.18 117.511c.127-.035.26-.047.392-.035h.89c.132-.012.265 0 .392.035a.756.756 0 00.295.034c1.258.026 1.9.1 1.9.212v.028h-1.933v-.037c0-.063-.373-.088-1.024-.088s-1.024.025-1.024.088c0 .181 4 .19 4 .444 0 .11-.66.186-1.919.212-.1-.01-.2.002-.295.034-.127.035-.26.047-.392.035h-.89c-.132.012-.264 0-.392-.035a.71.71 0 00-.297-.034c-1.272-.026-1.917-.102-1.917-.212v-.026a1.13 1.13 0 01.393-.036h1.15c.132-.011.265.001.393.036v.027c0 .063.408.086 1.06.086.653 0 1.059-.023 1.059-.086 0-.181-3.999-.19-3.999-.442 0-.111.627-.184 1.866-.212a.704.704 0 00.292-.028z" fill="#895523"/><path d="M89.958 118.781v-.072a.114.114 0 00-.058-.101.106.106 0 00-.119 0 .12.12 0 00-.058.101v.072a1.978 1.978 0 000 .231v1.313c0 .032.013.062.035.085a.12.12 0 00.084.035.12.12 0 00.085-.035.122.122 0 00.034-.085v-1.296a1.937 1.937 0 00-.003-.248zm1.187.276v-.071a.116.116 0 00-.058-.102.11.11 0 00-.118 0 .116.116 0 00-.058.102v.072c-.009.077 0 .161 0 .23v1.314a.124.124 0 00.04.077.124.124 0 00.16 0 .124.124 0 00.04-.077v-1.3c.002-.082 0-.164-.006-.245zm1.337.188v-.07a.12.12 0 00-.118-.12.114.114 0 00-.06.017.124.124 0 00-.057.103v.07a1.952 1.952 0 000 .232v1.312c0 .032.012.062.034.085a.12.12 0 00.085.035.12.12 0 00.084-.035.121.121 0 00.035-.085v-1.295a1.952 1.952 0 00-.003-.249zm1.529.1v-.077a.115.115 0 00-.058-.101.11.11 0 00-.117 0 .115.115 0 00-.058.101v.073c-.01.076 0 .161 0 .23v1.313a.121.121 0 00.12.108.12.12 0 00.12-.108v-1.29a2.3 2.3 0 00-.007-.249zm1.491.039v-.071a.12.12 0 00-.117-.12.111.111 0 00-.059.017.12.12 0 00-.058.103v.071a1.978 1.978 0 000 .231v1.312a.122.122 0 00.12.108.12.12 0 00.12-.108v-1.296c.002-.083 0-.165-.006-.247zm6.617-.603v-.072a.12.12 0 01.116-.119c.021 0 .042.006.06.018.017.01.032.025.042.043a.108.108 0 01.016.058v.072c.009.077 0 .162 0 .231v1.313a.123.123 0 01-.035.085.123.123 0 01-.085.035.122.122 0 01-.084-.035.123.123 0 01-.035-.085v-1.296a2.053 2.053 0 01.005-.248zm-1.185.276v-.071a.12.12 0 01.015-.059.118.118 0 01.043-.043.11.11 0 01.118 0 .124.124 0 01.042.043.111.111 0 01.016.059v.072c.004.077.004.154 0 .23v1.314a.128.128 0 01-.04.077.124.124 0 01-.161 0 .122.122 0 01-.039-.077v-1.3a2 2 0 01.006-.245zm-1.337.188v-.07a.127.127 0 01.059-.103.113.113 0 01.118-.001.118.118 0 01.059.104v.07c.004.078.004.155 0 .232v1.312a.121.121 0 01-.035.085.12.12 0 01-.084.035.12.12 0 01-.085-.035.121.121 0 01-.035-.085v-1.295a1.952 1.952 0 01.003-.249zm-1.529.1v-.077a.115.115 0 01.058-.101.111.111 0 01.117 0 .114.114 0 01.058.101v.073c.005.076.005.153 0 .23v1.313a.121.121 0 01-.12.108.121.121 0 01-.12-.108v-1.29a2.3 2.3 0 01.007-.249zm-1.495.039v-.071a.12.12 0 01.118-.12.114.114 0 01.101.061c.01.018.016.038.016.059v.071c.005.077.005.154 0 .232v1.311a.121.121 0 01-.035.085.12.12 0 01-.084.035.12.12 0 01-.084-.035.121.121 0 01-.035-.085v-1.296a1.919 1.919 0 01.003-.247z" fill="#E09F3E"/><path d="M102.412 117.845a.405.405 0 00-.153-.123.676.676 0 00-.164-.056.35.35 0 00-.091-.007.177.177 0 00-.046 0 .2.2 0 00-.04.017.034.034 0 00-.012.012.023.023 0 00-.006.016c-.001.005 0 .011.001.017a.06.06 0 00.009.015.446.446 0 00.043.033l.044.025c.031.018.063.032.094.054h.01l.011.007.038.037.017.02.009.009v.02a.06.06 0 000 .019v.015c0 .02.006.04.016.058a.12.12 0 00.042.042.12.12 0 00.116 0 .138.138 0 00.043-.032.152.152 0 00.043-.106.21.21 0 00-.024-.092zm-.526.455l-.013-.013s0 .009.007.01l.006.003z" fill="#F6DB6F"/><path d="M102.053 118.15a.179.179 0 00-.046-.009H102a.104.104 0 00-.049.012l-.014.008-.015.008a.097.097 0 00-.04.035c0 .008 0 .018-.009.028a.046.046 0 00-.009.015c-.002.006-.003.012-.002.018 0 .008.008.013.012.019a.08.08 0 00.04.035c.014.007.03.011.046.011a.07.07 0 00.029 0h.034a.106.106 0 00.067-.071v-.012a.07.07 0 00.009-.028.07.07 0 00-.004-.029.062.062 0 00-.017-.025.058.058 0 00-.025-.015z" fill="#F6DB6F"/></g><g filter="url(#filter16_d)"><path d="M96.693 118.462c3.725 0 6.745-.433 6.745-.966 0-.534-3.02-.966-6.745-.966-3.724 0-6.744.432-6.744.966 0 .533 3.02.966 6.744.966z" fill="#D57D34"/><path d="M103.438 115.186H89.949v2.31h13.489v-2.31z" fill="#D57D34"/><path d="M103.438 115.186c0 .533-3.02.966-6.745.966s-6.744-.433-6.744-.966c0-.533 3.02-.968 6.744-.968 3.725 0 6.745.433 6.745.968z" fill="#EABA47"/><path d="M96.693 115.826c3.284 0 5.945-.286 5.945-.64 0-.354-2.662-.641-5.945-.641-3.283 0-5.945.287-5.945.641 0 .354 2.662.64 5.945.64z" fill="#D57D34"/><path d="M96.694 115.733c3.072 0 5.562-.245 5.562-.547 0-.302-2.49-.547-5.562-.547-3.071 0-5.561.245-5.561.547 0 .302 2.49.547 5.561.547z" fill="#E09F3E"/><path d="M95.85 114.724c.128-.036.261-.048.393-.036h.888c.132-.012.265 0 .393.036a.76.76 0 00.296.033c1.256.026 1.9.1 1.9.211v.027h-1.935v-.027c0-.065-.371-.088-1.022-.088s-1.025.023-1.025.088c0 .181 4 .19 4 .442 0 .112-.659.186-1.918.212a.763.763 0 00-.296.035 1.133 1.133 0 01-.393.036h-.888a1.132 1.132 0 01-.392-.036.763.763 0 00-.297-.035c-1.273-.026-1.917-.1-1.917-.212v-.024a1.08 1.08 0 01.392-.036h1.15c.131-.012.264 0 .392.036v.033c0 .063.41.086 1.06.086.651 0 1.06-.023 1.06-.086 0-.181-4-.19-4-.444 0-.11.629-.182 1.868-.21a.745.745 0 00.292-.041z" fill="#895523"/><path d="M90.627 115.992v-.07a.116.116 0 00-.058-.102.11.11 0 00-.117 0 .116.116 0 00-.058.102v.072c-.01.077 0 .161 0 .23v1.312a.122.122 0 00.12.108.121.121 0 00.12-.108v-1.295a2.3 2.3 0 00-.007-.249zm1.189.277v-.072a.116.116 0 00-.058-.102.114.114 0 00-.12 0 .13.13 0 00-.041.043.125.125 0 00-.016.059v.07a1.995 1.995 0 000 .232v1.312c0 .032.012.062.034.085a.12.12 0 00.085.035.12.12 0 00.084-.035.122.122 0 00.035-.085v-1.295a1.94 1.94 0 00-.003-.247zm1.333.189v-.073a.118.118 0 00-.058-.101.11.11 0 00-.118 0 .118.118 0 00-.058.101v.073c-.009.078 0 .161 0 .232v1.311a.121.121 0 00.12.108.12.12 0 00.12-.108v-1.296a1.936 1.936 0 00-.006-.247zm1.533.1v-.071a.116.116 0 00-.015-.059.11.11 0 00-.043-.042.106.106 0 00-.12 0 .114.114 0 00-.041.043.117.117 0 00-.016.058v.071a1.935 1.935 0 000 .231v1.312a.12.12 0 00.12.12.12.12 0 00.083-.035.121.121 0 00.035-.085v-1.295a1.934 1.934 0 00-.003-.248zm1.492.038v-.072a.125.125 0 00-.058-.102.114.114 0 00-.119 0 .116.116 0 00-.058.102v.072a1.96 1.96 0 000 .23v1.314a.12.12 0 00.238 0v-1.295a1.934 1.934 0 00-.003-.249zm6.617-.604v-.07a.12.12 0 01.015-.059.126.126 0 01.043-.043.112.112 0 01.118 0 .126.126 0 01.043.043.12.12 0 01.015.059v.072c.009.077 0 .161 0 .23v1.312a.123.123 0 01-.035.085.119.119 0 01-.203-.085v-1.295a2.299 2.299 0 01.004-.249zm-1.188.277v-.071a.12.12 0 01.117-.118c.022 0 .042.006.06.017a.117.117 0 01.058.101v.071c.009.078 0 .163 0 .232v1.312a.116.116 0 01-.035.084.115.115 0 01-.084.035.115.115 0 01-.084-.035.116.116 0 01-.035-.084v-1.295a1.881 1.881 0 01.003-.249zm-1.335.189v-.073c0-.02.005-.04.015-.058a.118.118 0 01.043-.043.11.11 0 01.118 0 .12.12 0 01.058.101v.073c.009.078 0 .161 0 .232v1.311a.126.126 0 01-.04.077.12.12 0 01-.2-.077v-1.296a2.032 2.032 0 01.006-.247zm-1.531.1v-.071c0-.021.005-.041.014-.058a.111.111 0 01.042-.043.106.106 0 01.12 0 .111.111 0 01.057.101v.071c.01.078 0 .162 0 .231v1.312a.121.121 0 01-.035.085.12.12 0 01-.084.035.12.12 0 01-.084-.035.121.121 0 01-.035-.085v-1.295a1.934 1.934 0 01.005-.248zm-1.492.038v-.072a.116.116 0 01.058-.102.11.11 0 01.118 0 .116.116 0 01.058.102v.072c.009.078 0 .153 0 .23v1.314a.119.119 0 01-.04.076.12.12 0 01-.16 0 .119.119 0 01-.04-.076v-1.295a1.953 1.953 0 01.006-.249z" fill="#E09F3E"/><path d="M103.082 115.057a.407.407 0 00-.153-.123.686.686 0 00-.165-.057.354.354 0 00-.092 0 .323.323 0 00-.044 0 .362.362 0 00-.04.019.034.034 0 00-.012.012.038.038 0 00-.006.016.035.035 0 00.002.017.06.06 0 00.009.015.264.264 0 00.041.032l.044.024a.896.896 0 01.094.056l.012.007h.009l.038.037.018.019.008.01v.04a.118.118 0 00.057.102.125.125 0 00.058.015c.02 0 .04-.006.058-.015a.137.137 0 00.043-.033.159.159 0 00.044-.106.205.205 0 00-.023-.087zm-.527.455l-.013-.013v.01l.013.003zm.167-.15a.113.113 0 00-.045-.009h-.009a.11.11 0 00-.047.013h-.029a.08.08 0 00-.04.035.13.13 0 00-.009.028.03.03 0 00-.01.015.037.037 0 00-.001.018s0 .013.011.017a.08.08 0 00.041.036.1.1 0 00.045.012.15.15 0 00.03 0h.032a.134.134 0 00.043-.026v-.008a.092.092 0 00.024-.043v-.014a.07.07 0 00-.005-.043.077.077 0 00-.031-.031z" fill="#F6DB6F"/></g><g filter="url(#filter17_d)"><path d="M105.216 114.645c0 .533-3.019.966-6.744.966-3.725 0-6.744-.433-6.744-.966 0-.533 3.019-.968 6.744-.968 3.725 0 6.744.434 6.744.968z" fill="#D57D34"/><path d="M105.216 112.335H91.728v2.31h13.488v-2.31z" fill="#D57D34"/><path d="M98.472 113.301c3.724 0 6.744-.432 6.744-.966 0-.533-3.02-.966-6.744-.966-3.725 0-6.744.433-6.744.966 0 .534 3.019.966 6.744.966z" fill="#EABA47"/><path d="M98.471 112.976c3.284 0 5.946-.287 5.946-.641 0-.354-2.662-.64-5.946-.64-3.283 0-5.945.286-5.945.64 0 .354 2.662.641 5.945.641z" fill="#D57D34"/><path d="M98.472 112.882c3.071 0 5.561-.245 5.561-.547 0-.302-2.49-.547-5.561-.547-3.072 0-5.562.245-5.562.547 0 .302 2.49.547 5.562.547z" fill="#E09F3E"/><path d="M97.628 111.873a1.13 1.13 0 01.393-.036h.887a1.13 1.13 0 01.393.036.728.728 0 00.296.035c1.256.026 1.9.098 1.9.21v.028h-1.935v-.037c0-.063-.371-.086-1.022-.086-.65 0-1.025.023-1.025.086 0 .183 4 .192 4 .444 0 .112-.659.186-1.918.212a.804.804 0 00-.296.034c-.128.035-.26.047-.393.035h-.887c-.132.012-.265 0-.393-.035a.804.804 0 00-.296-.034c-1.273-.026-1.918-.1-1.918-.212v-.024c.128-.036.26-.048.393-.036h1.149c.132-.012.265 0 .392.036v.033c0 .063.41.086 1.06.086.652 0 1.061-.023 1.061-.086 0-.182-4-.19-4-.444 0-.11.628-.184 1.867-.21a.78.78 0 00.292-.035z" fill="#895523"/><path d="M92.406 113.142v-.071a.119.119 0 00-.058-.103.11.11 0 00-.06-.016.11.11 0 00-.058.016.123.123 0 00-.058.103v.071c-.01.078 0 .162 0 .231v1.312a.121.121 0 00.12.108.121.121 0 00.12-.108v-1.295a1.952 1.952 0 00-.006-.248zm1.187.276v-.071a.122.122 0 00-.015-.059.113.113 0 00-.043-.043.114.114 0 00-.16.044.124.124 0 00-.017.058v.071a1.995 1.995 0 000 .232v1.312c0 .032.012.062.035.084a.117.117 0 00.169 0 .117.117 0 00.034-.084v-1.297a1.92 1.92 0 00-.003-.247zm1.338.189v-.072a.12.12 0 00-.015-.059.127.127 0 00-.041-.043.114.114 0 00-.12 0 .116.116 0 00-.058.102v.072c-.009.077 0 .161 0 .23v1.314a.12.12 0 00.239 0v-1.297a1.922 1.922 0 00-.005-.247zm1.529.1v-.071a.12.12 0 00-.117-.12.114.114 0 00-.102.061.13.13 0 00-.016.059v.071a1.952 1.952 0 000 .232v1.311a.12.12 0 10.238 0v-1.296a1.92 1.92 0 00-.003-.247zm1.488.032v-.07a.125.125 0 00-.016-.059.13.13 0 00-.042-.043.114.114 0 00-.12 0 .115.115 0 00-.058.102v.07a1.935 1.935 0 000 .231v1.313a.12.12 0 00.12.12.12.12 0 00.084-.035.121.121 0 00.035-.085v-1.297a1.958 1.958 0 00-.003-.247zm6.62-.597v-.071c0-.021.005-.042.016-.06a.111.111 0 01.043-.043.111.111 0 01.059-.016c.021 0 .041.005.059.016a.118.118 0 01.042.044c.01.018.016.038.016.059v.071a1.78 1.78 0 010 .231v1.312a.119.119 0 01-.203.085.123.123 0 01-.035-.085v-1.295a2.56 2.56 0 01.003-.248zm-1.186.276v-.071c0-.02.005-.041.015-.059a.118.118 0 01.101-.06.118.118 0 01.102.06c.01.018.015.039.015.059v.071c.009.078 0 .163 0 .232v1.312a.116.116 0 01-.035.084.115.115 0 01-.084.035.116.116 0 01-.084-.035.12.12 0 01-.035-.084v-1.297a1.852 1.852 0 01.005-.247zm-1.337.189v-.072a.12.12 0 01.015-.059.118.118 0 01.043-.043.112.112 0 01.118 0c.018.01.032.025.043.043a.12.12 0 01.015.059v.072c.004.077.004.154 0 .23v1.313a.116.116 0 01-.04.077.118.118 0 01-.16 0 .12.12 0 01-.04-.077v-1.296c-.002-.082 0-.165.006-.247zm-1.53.1v-.071a.126.126 0 01.058-.103.114.114 0 01.059-.016c.021 0 .041.005.059.016a.13.13 0 01.043.044.12.12 0 01.015.059v.071c.009.078 0 .163 0 .232v1.311a.12.12 0 01-.2.077.126.126 0 01-.04-.077v-1.296a2.037 2.037 0 01.006-.247zm-1.498.032v-.071a.114.114 0 01.058-.101.11.11 0 01.118 0 .12.12 0 01.058.101v.071c.009.077 0 .154 0 .23v1.314a.119.119 0 01-.04.076.12.12 0 01-.16 0 .119.119 0 01-.04-.076v-1.297c-.003-.082 0-.165.006-.247z" fill="#E09F3E"/><path d="M104.86 112.203a.41.41 0 00-.153-.121.687.687 0 00-.163-.057.296.296 0 00-.094 0 .323.323 0 00-.044 0 .287.287 0 00-.04.018.046.046 0 00-.012.012.05.05 0 00-.006.017.035.035 0 00.002.017c.002.005.005.01.009.014a.27.27 0 00.041.033c.015.007.03.015.044.024.032.019.064.034.095.054l.011.008.009.009a.63.63 0 01.038.035l.018.02a.028.028 0 01.008.011v.06a.12.12 0 00.056.101.126.126 0 00.118 0 .136.136 0 00.041-.034.155.155 0 00.045-.106.22.22 0 00-.023-.115zm-.528.46l-.013-.013v.009l.013.004zm.167-.153a.11.11 0 00-.044-.007h-.01a.13.13 0 00-.047.012l-.014.008-.015.007a.099.099 0 00-.04.036l-.009.027a.05.05 0 00-.009.016c-.002.006-.002.012-.002.018 0 .008 0 .012.011.018.01.017.024.029.041.036a.09.09 0 00.045.012.15.15 0 00.03 0h.032a.1.1 0 00.068-.069v-.014a.07.07 0 00-.011-.084.063.063 0 00-.026-.016z" fill="#F6DB6F"/></g><circle cx="94.024" cy="25.024" r="7.503" transform="rotate(-21.102 94.024 25.024)" stroke="#0A3D76" stroke-width=".5"/><g clip-path="url(#clip1)" fill="#0A3D76"><path d="M92.63 21.408a3.027 3.027 0 00-1.73 3.903 3.027 3.027 0 003.903 1.73 3.028 3.028 0 001.73-3.904 3.027 3.027 0 00-3.904-1.73zm8.425 6.357c-.145-.157-.859-.628-1.031-.746a3.753 3.753 0 00-3.012-.59.556.556 0 00-.323.224 3.176 3.176 0 01-1.549 1.262c-.64.247-1.33.287-1.994.105a.495.495 0 00-.39.052 3.726 3.726 0 00-1.835 2.46 7.193 7.193 0 00-.14.929.28.28 0 00.102.229c.165.134.46.172.627.277.262.168.48.089.765.205.239.106.497.19.756.274a5.974 5.974 0 003.773-.184 5.973 5.973 0 002.918-2.399c.14-.223.27-.471.376-.71.121-.273.371-.375.453-.675.061-.207.333-.19.365-.4.033-.098.204-.254.139-.313z"/></g><g clip-path="url(#clip2)"><path d="M120.843 23.279h-7.226a1.37 1.37 0 00-1.363 1.363v11.387h8.589a1.37 1.37 0 001.363-1.363V24.642a1.37 1.37 0 00-1.363-1.363z" fill="#F5F9FF"/><path d="M112.078 24.89a1.37 1.37 0 00-1.363 1.364v10.024a1.37 1.37 0 001.363 1.363h7.225a1.37 1.37 0 001.363-1.363V27.69l-2.491-2.8h-6.097z" fill="#F5F9FF"/><path d="M118.174 27.69h2.492l-2.492-2.8v2.8z" fill="#71A0DD"/><path d="M120.842 23h-7.225c-.894 0-1.627.718-1.642 1.612a1.638 1.638 0 00-1.553 1.627v10.024c0 .909.733 1.642 1.641 1.642h7.225c.894 0 1.627-.718 1.642-1.612a1.638 1.638 0 001.553-1.627V24.64c0-.908-.732-1.641-1.641-1.641zm-.454 13.278c0 .6-.484 1.084-1.085 1.084h-7.225a1.082 1.082 0 01-1.085-1.084V26.254c0-.601.484-1.085 1.085-1.085h5.833v2.52c0 .147.117.28.278.28h2.213v8.309h-.014zm-1.935-8.867V25.61l1.612 1.802h-1.612zm3.488 7.255c0 .571-.44 1.04-.996 1.084v-8.06c0-.03-.015-.074-.015-.103 0-.014-.015-.014-.015-.03-.014-.014-.014-.028-.029-.043l-2.492-2.8c-.014-.014-.043-.029-.058-.043-.015 0-.015-.015-.029-.015a.278.278 0 00-.103-.03h-5.672a1.1 1.1 0 011.085-1.07h7.225c.601 0 1.084.485 1.084 1.085v10.025h.015z" fill="#0A3D76"/><path d="M114.804 27.411h-2.419a.278.278 0 000 .557h2.404a.278.278 0 00.278-.278c0-.147-.117-.279-.263-.279zm0 7.182h-2.419a.278.278 0 000 .556h2.404a.278.278 0 00.278-.278c0-.147-.117-.279-.263-.279zm4.044-5.364H112.4a.278.278 0 100 .557h6.448a.278.278 0 00.279-.279c-.015-.147-.132-.278-.279-.278zm0 1.348H112.4a.278.278 0 100 .557h6.448a.278.278 0 00.279-.279c-.015-.146-.132-.278-.279-.278zm0 1.348H112.4a.278.278 0 000 .557h6.448a.278.278 0 00.279-.278c-.015-.147-.132-.279-.279-.279zm0 1.348H112.4a.278.278 0 100 .557h6.448a.278.278 0 00.279-.278c-.015-.147-.132-.279-.279-.279z" fill="#0A3D76"/></g><path d="M137.6 20.41l1.868 1.868-1.367 1.407-1.888-1.888a2.609 2.609 0 01-1.021.207 2.597 2.597 0 01-1.849-.766 2.624 2.624 0 01-.675-2.534.293.293 0 01.276-.222.3.3 0 01.215.096l1.207 1.2a.198.198 0 00.156.06l.016-.004v.002c.344-.031.758-.092.916-.143l.021-.02.019-.02c.05-.156.11-.563.141-.902l.003-.02c.004-.029.005-.106-.028-.138-.308-.308-1.23-1.238-1.23-1.238a.288.288 0 01.122-.489l.69-.092c.698 0 1.355.272 1.849.766s.766 1.15.766 1.85c0 .356-.072.701-.207 1.02z" fill="url(#paint11_linear)"/><path fill-rule="evenodd" clip-rule="evenodd" d="M142.275 18.213c.209 0 .452.156.475.364.063.56.062 1.126-.003 1.682a.412.412 0 01-.433.363l-.091-.002c-.654 0-1.263.403-1.514 1.003a1.64 1.64 0 00.415 1.845c.161.147.18.393.044.563a7.395 7.395 0 01-1.197 1.183.413.413 0 01-.558-.047c-.441-.483-1.224-.665-1.833-.416a1.643 1.643 0 00-1.012 1.577.412.412 0 01-.366.424 7.359 7.359 0 01-1.665-.005.41.41 0 01-.363-.432 1.64 1.64 0 00-1.001-1.605c-.61-.256-1.402-.075-1.844.414a.413.413 0 01-.564.045 7.363 7.363 0 01-1.17-1.184.412.412 0 01.045-.558 1.647 1.647 0 00.414-1.83 1.623 1.623 0 00-1.523-1.013c-.212 0-.461-.155-.485-.364a7.452 7.452 0 01.003-1.682.403.403 0 01.428-.364c.723 0 1.354-.391 1.61-1a1.64 1.64 0 00-.414-1.846.411.411 0 01-.044-.562 7.32 7.32 0 011.197-1.183.412.412 0 01.558.047c.44.484 1.227.664 1.832.417a1.647 1.647 0 001.013-1.579.412.412 0 01.366-.423 7.378 7.378 0 011.664.004.411.411 0 01.364.433c-.04.692.362 1.338.999 1.606.612.255 1.404.074 1.845-.415a.412.412 0 01.562-.045c.431.345.825.743 1.173 1.184a.412.412 0 01-.046.558 1.647 1.647 0 00-.413 1.829 1.643 1.643 0 001.532 1.014zm-11.142 1.186a4.265 4.265 0 004.265 4.265c2.356 0 4.266-1.562 4.266-4.265a4.266 4.266 0 00-8.531 0z" fill="#0A3D76"/></g><defs><filter id="filter0_d" x="87.35" y="89.97" width="12.443" height="15.814" filterUnits="userSpaceOnUse" color-interpolation-filters="sRGB"><feFlood flood-opacity="0" result="BackgroundImageFix"/><feColorMatrix in="SourceAlpha" values="0 0 0 0 0 0 0 0 0 0 0 0 0 0 0 0 0 0 127 0"/><feOffset dx="1" dy="1"/><feGaussianBlur stdDeviation="1.5"/><feColorMatrix values="0 0 0 0 0 0 0 0 0 0 0 0 0 0 0 0 0 0 0.1 0"/><feBlend in2="BackgroundImageFix" result="effect1_dropShadow"/><feBlend in="SourceGraphic" in2="effect1_dropShadow" result="shape"/></filter><filter id="filter1_d" x="100.844" y="83.836" width="12.443" height="15.814" filterUnits="userSpaceOnUse" color-interpolation-filters="sRGB"><feFlood flood-opacity="0" result="BackgroundImageFix"/><feColorMatrix in="SourceAlpha" values="0 0 0 0 0 0 0 0 0 0 0 0 0 0 0 0 0 0 127 0"/><feOffset dx="1" dy="1"/><feGaussianBlur stdDeviation="1.5"/><feColorMatrix values="0 0 0 0 0 0 0 0 0 0 0 0 0 0 0 0 0 0 0.1 0"/><feBlend in2="BackgroundImageFix" result="effect1_dropShadow"/><feBlend in="SourceGraphic" in2="effect1_dropShadow" result="shape"/></filter><filter id="filter2_d" x="51" y="26.632" width="102.919" height="74.6" filterUnits="userSpaceOnUse" color-interpolation-filters="sRGB"><feFlood flood-opacity="0" result="BackgroundImageFix"/><feColorMatrix in="SourceAlpha" values="0 0 0 0 0 0 0 0 0 0 0 0 0 0 0 0 0 0 127 0"/><feOffset dx="2" dy="2"/><feGaussianBlur stdDeviation="3"/><feColorMatrix values="0 0 0 0 0 0 0 0 0 0 0 0 0 0 0 0 0 0 0.2 0"/><feBlend in2="BackgroundImageFix" result="effect1_dropShadow"/><feBlend in="SourceGraphic" in2="effect1_dropShadow" result="shape"/></filter><filter id="filter3_f" x="68.008" y="11.79" width="4.658" height="5.807" filterUnits="userSpaceOnUse" color-interpolation-filters="sRGB"><feFlood flood-opacity="0" result="BackgroundImageFix"/><feBlend in="SourceGraphic" in2="BackgroundImageFix" result="shape"/><feGaussianBlur stdDeviation=".1" result="effect1_foregroundBlur"/></filter><filter id="filter4_d" x="95.228" y="122.942" width="19.489" height="10.244" filterUnits="userSpaceOnUse" color-interpolation-filters="sRGB"><feFlood flood-opacity="0" result="BackgroundImageFix"/><feColorMatrix in="SourceAlpha" values="0 0 0 0 0 0 0 0 0 0 0 0 0 0 0 0 0 0 127 0"/><feOffset dx="1" dy="1"/><feGaussianBlur stdDeviation="1.5"/><feColorMatrix values="0 0 0 0 0 0 0 0 0 0 0 0 0 0 0 0 0 0 0.1 0"/><feBlend in2="BackgroundImageFix" result="effect1_dropShadow"/><feBlend in="SourceGraphic" in2="effect1_dropShadow" result="shape"/></filter><filter id="filter5_d" x="94.715" y="120.165" width="19.488" height="10.242" filterUnits="userSpaceOnUse" color-interpolation-filters="sRGB"><feFlood flood-opacity="0" result="BackgroundImageFix"/><feColorMatrix in="SourceAlpha" values="0 0 0 0 0 0 0 0 0 0 0 0 0 0 0 0 0 0 127 0"/><feOffset dx="1" dy="1"/><feGaussianBlur stdDeviation="1.5"/><feColorMatrix values="0 0 0 0 0 0 0 0 0 0 0 0 0 0 0 0 0 0 0.1 0"/><feBlend in2="BackgroundImageFix" result="effect1_dropShadow"/><feBlend in="SourceGraphic" in2="effect1_dropShadow" result="shape"/></filter><filter id="filter6_d" x="96.249" y="117.339" width="19.488" height="10.244" filterUnits="userSpaceOnUse" color-interpolation-filters="sRGB"><feFlood flood-opacity="0" result="BackgroundImageFix"/><feColorMatrix in="SourceAlpha" values="0 0 0 0 0 0 0 0 0 0 0 0 0 0 0 0 0 0 127 0"/><feOffset dx="1" dy="1"/><feGaussianBlur stdDeviation="1.5"/><feColorMatrix values="0 0 0 0 0 0 0 0 0 0 0 0 0 0 0 0 0 0 0.1 0"/><feBlend in2="BackgroundImageFix" result="effect1_dropShadow"/><feBlend in="SourceGraphic" in2="effect1_dropShadow" result="shape"/></filter><filter id="filter7_d" x="79.496" y="123.317" width="19.488" height="10.244" filterUnits="userSpaceOnUse" color-interpolation-filters="sRGB"><feFlood flood-opacity="0" result="BackgroundImageFix"/><feColorMatrix in="SourceAlpha" values="0 0 0 0 0 0 0 0 0 0 0 0 0 0 0 0 0 0 127 0"/><feOffset dx="1" dy="1"/><feGaussianBlur stdDeviation="1.5"/><feColorMatrix values="0 0 0 0 0 0 0 0 0 0 0 0 0 0 0 0 0 0 0.1 0"/><feBlend in2="BackgroundImageFix" result="effect1_dropShadow"/><feBlend in="SourceGraphic" in2="effect1_dropShadow" result="shape"/></filter><filter id="filter8_d" x="80.315" y="120.523" width="19.488" height="10.244" filterUnits="userSpaceOnUse" color-interpolation-filters="sRGB"><feFlood flood-opacity="0" result="BackgroundImageFix"/><feColorMatrix in="SourceAlpha" values="0 0 0 0 0 0 0 0 0 0 0 0 0 0 0 0 0 0 127 0"/><feOffset dx="1" dy="1"/><feGaussianBlur stdDeviation="1.5"/><feColorMatrix values="0 0 0 0 0 0 0 0 0 0 0 0 0 0 0 0 0 0 0.1 0"/><feBlend in2="BackgroundImageFix" result="effect1_dropShadow"/><feBlend in="SourceGraphic" in2="effect1_dropShadow" result="shape"/></filter><filter id="filter9_d" x="79.083" y="117.567" width="19.488" height="10.247" filterUnits="userSpaceOnUse" color-interpolation-filters="sRGB"><feFlood flood-opacity="0" result="BackgroundImageFix"/><feColorMatrix in="SourceAlpha" values="0 0 0 0 0 0 0 0 0 0 0 0 0 0 0 0 0 0 127 0"/><feOffset dx="1" dy="1"/><feGaussianBlur stdDeviation="1.5"/><feColorMatrix values="0 0 0 0 0 0 0 0 0 0 0 0 0 0 0 0 0 0 0.1 0"/><feBlend in2="BackgroundImageFix" result="effect1_dropShadow"/><feBlend in="SourceGraphic" in2="effect1_dropShadow" result="shape"/></filter><filter id="filter10_d" x="68.947" y="121.866" width="17.537" height="11.248" filterUnits="userSpaceOnUse" color-interpolation-filters="sRGB"><feFlood flood-opacity="0" result="BackgroundImageFix"/><feColorMatrix in="SourceAlpha" values="0 0 0 0 0 0 0 0 0 0 0 0 0 0 0 0 0 0 127 0"/><feOffset dx="1" dy="1"/><feGaussianBlur stdDeviation="1.5"/><feColorMatrix values="0 0 0 0 0 0 0 0 0 0 0 0 0 0 0 0 0 0 0.1 0"/><feBlend in2="BackgroundImageFix" result="effect1_dropShadow"/><feBlend in="SourceGraphic" in2="effect1_dropShadow" result="shape"/></filter><filter id="filter11_d" x="71.4" y="113.279" width="15.005" height="9.211" filterUnits="userSpaceOnUse" color-interpolation-filters="sRGB"><feFlood flood-opacity="0" result="BackgroundImageFix"/><feColorMatrix in="SourceAlpha" values="0 0 0 0 0 0 0 0 0 0 0 0 0 0 0 0 0 0 127 0"/><feOffset dx="1" dy="1"/><feGaussianBlur stdDeviation="1.5"/><feColorMatrix values="0 0 0 0 0 0 0 0 0 0 0 0 0 0 0 0 0 0 0.1 0"/><feBlend in2="BackgroundImageFix" result="effect1_dropShadow"/><feBlend in="SourceGraphic" in2="effect1_dropShadow" result="shape"/></filter><filter id="filter12_d" x="103.626" y="103.465" width="18.903" height="13.15" filterUnits="userSpaceOnUse" color-interpolation-filters="sRGB"><feFlood flood-opacity="0" result="BackgroundImageFix"/><feColorMatrix in="SourceAlpha" values="0 0 0 0 0 0 0 0 0 0 0 0 0 0 0 0 0 0 127 0"/><feOffset dx="1" dy="1"/><feGaussianBlur stdDeviation="1.5"/><feColorMatrix values="0 0 0 0 0 0 0 0 0 0 0 0 0 0 0 0 0 0 0.1 0"/><feBlend in2="BackgroundImageFix" result="effect1_dropShadow"/><feBlend in="SourceGraphic" in2="effect1_dropShadow" result="shape"/></filter><filter id="filter13_d" x="104.382" y="114.475" width="19.455" height="19.526" filterUnits="userSpaceOnUse" color-interpolation-filters="sRGB"><feFlood flood-opacity="0" result="BackgroundImageFix"/><feColorMatrix in="SourceAlpha" values="0 0 0 0 0 0 0 0 0 0 0 0 0 0 0 0 0 0 127 0"/><feOffset dx="1" dy="1"/><feGaussianBlur stdDeviation="1.5"/><feColorMatrix values="0 0 0 0 0 0 0 0 0 0 0 0 0 0 0 0 0 0 0.1 0"/><feBlend in2="BackgroundImageFix" result="effect1_dropShadow"/><feBlend in="SourceGraphic" in2="effect1_dropShadow" result="shape"/></filter><filter id="filter14_d" x="93.915" y="97.766" width="14.046" height="14.089" filterUnits="userSpaceOnUse" color-interpolation-filters="sRGB"><feFlood flood-opacity="0" result="BackgroundImageFix"/><feColorMatrix in="SourceAlpha" values="0 0 0 0 0 0 0 0 0 0 0 0 0 0 0 0 0 0 127 0"/><feOffset dx="1" dy="1"/><feGaussianBlur stdDeviation="1.5"/><feColorMatrix values="0 0 0 0 0 0 0 0 0 0 0 0 0 0 0 0 0 0 0.1 0"/><feBlend in2="BackgroundImageFix" result="effect1_dropShadow"/><feBlend in="SourceGraphic" in2="effect1_dropShadow" result="shape"/></filter><filter id="filter15_d" x="87.279" y="115.007" width="19.489" height="10.242" filterUnits="userSpaceOnUse" color-interpolation-filters="sRGB"><feFlood flood-opacity="0" result="BackgroundImageFix"/><feColorMatrix in="SourceAlpha" values="0 0 0 0 0 0 0 0 0 0 0 0 0 0 0 0 0 0 127 0"/><feOffset dx="1" dy="1"/><feGaussianBlur stdDeviation="1.5"/><feColorMatrix values="0 0 0 0 0 0 0 0 0 0 0 0 0 0 0 0 0 0 0.1 0"/><feBlend in2="BackgroundImageFix" result="effect1_dropShadow"/><feBlend in="SourceGraphic" in2="effect1_dropShadow" result="shape"/></filter><filter id="filter16_d" x="87.949" y="112.218" width="19.488" height="10.244" filterUnits="userSpaceOnUse" color-interpolation-filters="sRGB"><feFlood flood-opacity="0" result="BackgroundImageFix"/><feColorMatrix in="SourceAlpha" values="0 0 0 0 0 0 0 0 0 0 0 0 0 0 0 0 0 0 127 0"/><feOffset dx="1" dy="1"/><feGaussianBlur stdDeviation="1.5"/><feColorMatrix values="0 0 0 0 0 0 0 0 0 0 0 0 0 0 0 0 0 0 0.1 0"/><feBlend in2="BackgroundImageFix" result="effect1_dropShadow"/><feBlend in="SourceGraphic" in2="effect1_dropShadow" result="shape"/></filter><filter id="filter17_d" x="89.728" y="109.369" width="19.488" height="10.242" filterUnits="userSpaceOnUse" color-interpolation-filters="sRGB"><feFlood flood-opacity="0" result="BackgroundImageFix"/><feColorMatrix in="SourceAlpha" values="0 0 0 0 0 0 0 0 0 0 0 0 0 0 0 0 0 0 127 0"/><feOffset dx="1" dy="1"/><feGaussianBlur stdDeviation="1.5"/><feColorMatrix values="0 0 0 0 0 0 0 0 0 0 0 0 0 0 0 0 0 0 0.1 0"/><feBlend in2="BackgroundImageFix" result="effect1_dropShadow"/><feBlend in="SourceGraphic" in2="effect1_dropShadow" result="shape"/></filter><linearGradient id="paint0_linear" x1="121.295" y1="85.931" x2="79.388" y2="86.416" gradientUnits="userSpaceOnUse"><stop stop-color="#044995"/><stop offset=".487" stop-color="#075CBB"/><stop offset="1" stop-color="#034998"/></linearGradient><linearGradient id="paint1_linear" x1="128.509" y1="71.247" x2="69.902" y2="70.91" gradientUnits="userSpaceOnUse"><stop stop-color="#860116"/><stop offset=".463" stop-color="#D31533"/><stop offset="1" stop-color="#910117"/></linearGradient><linearGradient id="paint2_linear" x1="134.739" y1="57.087" x2="65.805" y2="58.205" gradientUnits="userSpaceOnUse"><stop stop-color="#044995"/><stop offset=".487" stop-color="#075CBB"/><stop offset="1" stop-color="#034998"/></linearGradient><linearGradient id="paint3_linear" x1="142.192" y1="41.438" x2="55" y2="40.692" gradientUnits="userSpaceOnUse"><stop stop-color="#860116"/><stop offset=".463" stop-color="#D31533"/><stop offset="1" stop-color="#910117"/></linearGradient><linearGradient id="paint4_linear" x1="69.857" y1="29.35" x2="67.008" y2="27.136" gradientUnits="userSpaceOnUse"><stop offset=".382" stop-color="#0C4C94"/><stop offset=".706" stop-color="#0A3A6E"/></linearGradient><linearGradient id="paint5_linear" x1="75.798" y1="14.79" x2="75.798" y2="18.621" gradientUnits="userSpaceOnUse"><stop stop-color="#0A3D76"/><stop offset="1" stop-color="#0C53A3"/></linearGradient><linearGradient id="paint6_linear" x1="62.457" y1="20.152" x2="68.47" y2="26.173" gradientUnits="userSpaceOnUse"><stop stop-color="#0A3D76"/><stop offset="1" stop-color="#1072DF"/></linearGradient><linearGradient id="paint7_linear" x1="63.533" y1="20.729" x2="67.556" y2="26.094" gradientUnits="userSpaceOnUse"><stop stop-color="#337CCE"/><stop offset="1" stop-color="#1069CD"/></linearGradient><linearGradient id="paint8_linear" x1="67.366" y1="25.71" x2="65.833" y2="23.219" gradientUnits="userSpaceOnUse"><stop offset=".617" stop-color="#074181"/><stop offset="1" stop-color="#07458A" stop-opacity="0"/></linearGradient><linearGradient id="paint9_linear" x1="79.942" y1="17.472" x2="66.077" y2="17.178" gradientUnits="userSpaceOnUse"><stop stop-color="#A62E41"/><stop offset="1" stop-color="#E13152"/></linearGradient><linearGradient id="paint10_linear" x1="71.391" y1="19.579" x2="74.456" y2="23.986" gradientUnits="userSpaceOnUse"><stop stop-color="#A41D34" stop-opacity="0"/><stop offset=".428" stop-color="#830B20"/></linearGradient><linearGradient id="paint11_linear" x1="139.255" y1="20.23" x2="132.781" y2="20.091" gradientUnits="userSpaceOnUse"><stop stop-color="#A62E41"/><stop offset="1" stop-color="#E13152"/></linearGradient><clipPath id="clip0"><path fill="#fff" d="M0 0h200v130H0z"/></clipPath><clipPath id="clip1"><path fill="#fff" transform="rotate(-21.102 106.69 -222.342)" d="M0 0h11.629v11.629H0z"/></clipPath><clipPath id="clip2"><path fill="#fff" transform="translate(109 23)" d="M0 0h14.905v14.905H0z"/></clipPath></defs></svg>