<svg width="200" height="130" fill="none" xmlns="http://www.w3.org/2000/svg"><g clip-path="url(#clip0)"><g filter="url(#filter0_d)"><path d="M156.485 34.883l-.076 10.48c.01.174.109.298.291.286l.549.006a.334.334 0 00.304-.283l.076-10.48c-.01-.174-.108-.298-.291-.286l-.549-.006c-.185-.031-.314.109-.304.282z" fill="url(#paint0_linear)"/><path d="M156.531 47.159l-.038 3.97c.01.175.107.299.285.286l.537.006c.134-.01.263-.106.297-.283l.038-3.97c-.01-.175-.107-.298-.285-.286l-.537-.006c-.179.013-.305.153-.297.283z" fill="url(#paint1_linear)"/><path d="M156.738 28.495l-.231 53.873c.007 2.394 1.932 4.303 4.275 4.265l22.244-.2a4.423 4.423 0 004.349-4.36l.23-53.873c-.006-2.395-1.931-4.303-4.274-4.266l-22.245.2c-2.389-.003-4.354 1.967-4.348 4.36z" fill="url(#paint2_linear)"/><path d="M161.346 24.407l21.258-.178a4.115 4.115 0 012.954 1.244c.789.798 1.198 1.837 1.218 2.947l.035.595c.023-1.112-.432-2.19-1.221-2.99a4.005 4.005 0 00-2.995-1.197l-21.258.178a4.2 4.2 0 00-2.985 1.236 4.4 4.4 0 00-1.269 2.995l.012-.556c.011-.556.11-1.119.342-1.648.231-.529.554-.979.924-1.39.369-.41.876-.702 1.386-.952a4.956 4.956 0 011.599-.284z" fill="url(#paint3_linear)"/><path d="M182.766 86.16l-21.214.176a4.255 4.255 0 01-2.995-1.198c-.373-.401-.704-.848-.908-1.346a4.053 4.053 0 01-.311-1.601l.01-.599c-.024 1.112.432 2.19 1.22 2.99a4.006 4.006 0 002.995 1.198l21.258-.178c1.135.005 2.201-.455 3.026-1.282a4.405 4.405 0 001.269-2.995l-.01.599a4.311 4.311 0 01-.341 1.647 5.201 5.201 0 01-.924 1.39 4.089 4.089 0 01-1.389.91c-.558.167-1.118.292-1.686.29z" fill="url(#paint4_linear)"/><path d="M186.788 28.563l-.227 53.177a3.854 3.854 0 01-.238 1.236 2.567 2.567 0 01-.736 1.054c-.29.325-.674.57-1.063.73-.389.158-.828.233-1.268.264l-22.687.232a3.93 3.93 0 01-1.251-.215 2.496 2.496 0 01-1.059-.708 5.403 5.403 0 01-.724-1.037c-.155-.38-.224-.811-.25-1.245l.228-53.177a3.24 3.24 0 01.762-2.1 3.284 3.284 0 011.97-1.143 1.28 1.28 0 01.572-.041l3.981-.024c.133-.01.223.027.358.061.091.037.228.115.277.198.093.08.145.208.194.291a.918.918 0 01.064.344c.015.26.072.474.258.634.187.161.415.275.635.26l11.101-.099a1.11 1.11 0 00.648-.264c.166-.186.286-.412.271-.672-.008-.13.031-.22.068-.354.039-.09.119-.226.203-.319a.723.723 0 01.298-.195.982.982 0 01.35-.069l3.981-.024a3.24 3.24 0 013.284 3.204z" fill="#F5F9FF"/><path d="M182.791 38.012c0 .063-4.781.16-10.679.218-5.897.058-10.669.054-10.668-.01 0-.063 4.781-.156 10.674-.214 5.893-.057 10.673-.053 10.673.006zm.013 1.318c-.001.059-4.782.156-10.679.214-5.897.057-10.669.053-10.669-.007.001-.06 4.781-.157 10.675-.214 5.893-.058 10.673-.053 10.673.006zm-7.193 1.239c-1.43.12-2.865.17-4.298.151a43.941 43.941 0 01-4.298-.054c0-.056 1.922-.125 4.298-.152 2.376-.027 4.298 0 4.298.055z" fill="#263238"/><path d="M182.886 42.135l-22.63.518.098 14.164 22.63-.518-.098-14.164z" fill="#71A0DD"/><path d="M162.661 46.079c.501-.012.905-.413.902-.897-.004-.484-.412-.867-.914-.855-.501.012-.904.413-.901.897.003.483.412.866.913.855zm18.993-.337l-.754-.69-.691.702-.014-2.065 1.441-.033.018 2.086zm-.755-.78l.025.024.662.609-.012-1.876-1.311.03.016 1.85.62-.637zm-4.944-.386c0 .046-2.502.122-5.544.164-3.043.043-5.557.038-5.557-.008 0-.047 2.502-.132 5.557-.175 3.055-.043 5.544-.028 5.544.019zm-6.799 1.293a12.19 12.19 0 01-2.135.13c-.72.046-1.442.028-2.155-.054.713-.1 1.435-.137 2.155-.113a12.568 12.568 0 012.135.037z" fill="#FAFAFA"/><path d="M160.538 76.466c.208.034.419.05.631.047l21.574-.393-.076-11.035-22.204.505.075 10.876zm20.92-9.882l.039 2.03-.735-.678-.655.71-.035-2.03 1.386-.032zm-18.64.883a.896.896 0 01.495.134.848.848 0 01.144 1.329.91.91 0 01-.968.21.866.866 0 01-.401-.31.834.834 0 01-.153-.478.864.864 0 01.256-.618.917.917 0 01.627-.267z" fill="#A62E41"/><path d="M180.733 67.911l.025.02.649.61-.033-1.872-1.286.042.033 1.838.612-.638z" fill="#A62E41"/><path d="M162.836 69.026a.901.901 0 00.885-.897.867.867 0 00-.897-.856.901.901 0 00-.885.897.867.867 0 00.897.856zm17.901-1.024l.738.69-.039-2.065-1.412.032.035 2.065.678-.722zm.637-1.332l.033 1.87-.65-.608-.025-.02-.612.637-.032-1.837 1.286-.042z" fill="#FAFAFA"/><path d="M182.398 58.03c0 .048-4.923.146-10.991.217-6.068.07-11.003.087-11.002.039 0-.048 4.922-.147 10.995-.218 6.072-.07 10.998-.087 10.998-.038zm.011 1.112c-.001.049-4.923.147-10.991.218-6.069.07-11.003.087-11.003.039.001-.048 4.923-.147 10.996-.218 6.072-.07 10.998-.09 10.998-.038zm.014 1.268c-.001.048-4.923.146-10.992.217-6.068.07-11.002.087-11.002.039 0-.048 4.923-.147 10.995-.218 6.073-.07 10.999-.09 10.999-.038zm-10.517 1.203c0 .048-2.564.123-5.727.166-3.164.042-5.74.035-5.74-.012 0-.048 2.568-.123 5.732-.166 3.164-.042 5.735-.035 5.735.012zm10.492 16.205c0 .048-4.923.147-10.991.218-6.068.07-11.003.087-11.002.038 0-.048 4.922-.147 10.995-.217 6.072-.071 10.998-.087 10.998-.039zm.011 1.113c-.001.048-4.923.147-10.991.218-6.069.07-11.003.086-11.003.038.001-.048 4.923-.147 10.996-.217 6.072-.071 10.998-.09 10.998-.039zm.014 1.267c-.001.048-4.923.147-10.992.217-6.068.071-11.002.087-11.002.04 0-.05 4.923-.148 10.995-.218 6.073-.071 10.999-.09 10.999-.04zm-10.517 1.204c0 .047-2.564.123-5.727.165-3.164.042-5.74.036-5.74-.012 0-.047 2.568-.123 5.732-.165 3.164-.042 5.735-.036 5.735.012z" fill="#263238"/><path d="M175.375 26.263l-6.933.057c-.044.003-.09-.037-.136-.076-.045-.039-.048-.081-.05-.123l-.005-.085c-.003-.042.041-.045.041-.045l.041-.045.087-.006 6.933-.057.087-.006c.044-.003.046.04.046.04s.046.038.049.08l.004.085.005.084c.003.043-.041.046-.041.046l-.041.045-.087.006z" fill="url(#paint5_linear)"/><path d="M167.013 26.442a.401.401 0 00.216-.058c.042-.047.127-.096.124-.14.041-.046.036-.132.031-.219-.005-.086-.051-.126-.097-.166-.047-.04-.093-.08-.183-.117l-.219.016a.625.625 0 00-.167.142.334.334 0 00-.075.222l.008.13c.002.043.048.083.095.123.046.04.09.037.092.08.088-.006.131-.01.175-.012z" fill="url(#paint6_linear)"/><path d="M176.732 26.414l.131-.01c.044-.003.085-.05.126-.096.041-.046.083-.092.08-.136-.002-.043.039-.09.036-.132l-.007-.13c-.003-.043-.049-.083-.095-.123-.047-.04-.09-.037-.137-.077-.043.003-.09-.037-.133-.034l-.132.01c-.043.002-.085.049-.126.095-.041.047-.082.093-.08.136-.041.046-.039.09-.036.133l.008.13c.002.043.048.083.095.123.046.04.09.037.136.077.046.04.09.037.134.034z" fill="url(#paint7_linear)"/></g><path d="M194.753 29.623l.268 52.134-33.093-56.05c.214-.069.486-.087.707-.047l4.918.005c.163-.011.276.036.442.08.113.048.283.146.345.251.116.102.181.262.243.368.065.16.072.269.083.433.021.327.094.596.326.8.232.204.515.35.787.331l13.713-.027c.327-.022.592-.149.798-.327.204-.232.349-.516.327-.843-.011-.164.037-.276.08-.444.048-.112.146-.283.247-.4a.88.88 0 01.367-.243c.159-.065.268-.072.431-.083l4.918.005c.545-.036 1.045.095 1.549.28.504.187.961.485 1.316.9.355.415.711.83.906 1.31.196.48.286 1.022.322 1.567z" fill="#D0E4FF" fill-opacity=".2"/><path d="M178.592 31.304c-1.5.985-2.727 2.383-4.346 3.152-2.014.957-4.369.823-6.567.438-2.197-.384-4.377-.996-6.608-.928a8.363 8.363 0 00-3.496.863v1.776h28.763v-6.578c-2.615-.634-5.497-.202-7.746 1.277zm-7.453 4.472a.113.113 0 110-.226.113.113 0 110 .226zm.717 0a.114.114 0 01-.105-.07.121.121 0 01-.006-.065.113.113 0 01.224.022.113.113 0 01-.113.113zm.718 0a.115.115 0 01-.08-.033.114.114 0 010-.16.115.115 0 01.161 0 .114.114 0 010 .16.115.115 0 01-.081.033zm12.618-2.545a.372.372 0 01.633.261.372.372 0 01-.633.262.369.369 0 01.005-.523h-.005z" fill="#71A0DD"/><path d="M166.194 35.043c3.364.51 7.533.895 11.468.51 1.972-.192 6.712-4.032 8.675-4.274v-3.176c-.232-1.176-1.265-2.845-2.845-2.845h-4.425s-.949 0-.949.632c0 .633-.316 1.265-1.58 1.265h-9.799c-.604-.062-1.2-.31-1.264-1.265-.056-.834-3.477-.632-5.058-.632-2.212.316-3.034 2.133-3.034 3.161l.095 7.27c2.921.447 5.971.131 8.716-.646z" fill="#71A0DD"/><path d="M171.138 35.565a.114.114 0 00-.105.07.105.105 0 00-.006.065.109.109 0 00.031.058.112.112 0 00.174-.017.114.114 0 00-.014-.143.113.113 0 00-.08-.033zm.717.225a.113.113 0 100-.226.113.113 0 000 .227zm.718 0c.063 0 .114-.05.114-.112a.114.114 0 00-.227 0c0 .062.051.113.113.113z" fill="#263238"/><path d="M171.397 32.837a2.12 2.12 0 000-3.002 2.13 2.13 0 00-3.008 0 2.12 2.12 0 000 3.002 2.13 2.13 0 003.008 0z" fill="#B4D1FA"/><path d="M185.459 33.862a.37.37 0 100-.74.37.37 0 000 .74z" fill="#71A0DD"/><path opacity=".3" d="M178.592 31.304c-1.5.985-2.727 2.383-4.347 3.152-2.014.957-4.368.823-6.566.438-2.198-.384-4.378-.996-6.609-.928-1.214.03-2.503.325-3.591.863v1.776h28.858v-6.578c-2.615-.634-5.496-.202-7.745 1.277zm-7.454 4.472a.113.113 0 110-.226c.03 0 .059.012.08.033a.11.11 0 010 .16.113.113 0 01-.08.033zm.717 0a.112.112 0 01-.104-.07.112.112 0 01.148-.148c.02.009.038.023.051.042a.114.114 0 01-.014.143.117.117 0 01-.081.033zm.719 0a.113.113 0 110-.226.113.113 0 110 .226zm12.617-2.545a.372.372 0 01.633.261.367.367 0 01-.443.363.372.372 0 01-.19-.101.37.37 0 01.005-.523h-.005z" fill="#000"/><g filter="url(#filter1_d)"><g filter="url(#filter2_di)"><path d="M117.245 85.815l-101.09.182a1.445 1.445 0 01-1.42-1.466l.214-66.09a1.442 1.442 0 011.473-1.427L118.15 17a1.443 1.443 0 011.42 1.466l-.953 65.731c-.011.799-.578 1.63-1.372 1.618z" fill="#3C3C3B"/><path d="M116.848 20.433H17.442v62.128h99.406V20.433z" fill="#fff"/><path d="M67.144 19.623a1.084 1.084 0 100-2.168 1.084 1.084 0 000 2.168z" fill="#3C3C3B"/><path d="M67.144 19.262a.723.723 0 100-1.445.723.723 0 000 1.445z" fill="#3C3C3B"/></g><path d="M5.017 112.093H128.55c2.807 0 4.525-3.109 3.046-5.523l-11.32-18.408a3.58 3.58 0 00-3.044-1.707H16.602a3.576 3.576 0 00-3.026 1.677L1.991 106.547c-1.512 2.405.203 5.546 3.026 5.546z" fill="#3C3C3B"/><g filter="url(#filter3_i)"><path d="M4.605 111.37h124.347a3.612 3.612 0 003.158-1.86 3.612 3.612 0 00-.093-3.662l-11.399-18.422a3.605 3.605 0 00-3.065-1.708H16.262a3.604 3.604 0 00-3.045 1.678L1.561 105.825a3.609 3.609 0 001.208 5.039c.556.329 1.19.504 1.836.506z" fill="#3C3C3B"/></g><path opacity=".5" d="M91.981 108.894a.36.36 0 01-.338.49H41.916a.367.367 0 01-.354-.321.36.36 0 01.022-.171l3.277-8.666a.36.36 0 01.339-.23h43.166a.363.363 0 01.339.23l3.276 8.668z" stroke="#000" stroke-width=".3" stroke-miterlimit="10"/><path d="M74.555 111.913H59.024c-.583-.195-.601-.25-.724-.833a.766.766 0 01.723-.794h15.544a.766.766 0 01.723.794c-.083.612-.325.649-.735.833z" fill="#8F8F8F"/><g filter="url(#filter4_di)"><path d="M113.633 99.237l-93.7.046a.362.362 0 01-.304-.536l5.72-10.85a.35.35 0 01.302-.175h82.253a.346.346 0 01.297.166l5.729 10.803a.36.36 0 01-.297.546z" fill="#8F8F8F"/><path d="M25.456 98.721H20.37c-.35 0-.197-.625 0-.821l.447-.826c.1-.09.232-.136.366-.131h5.087c.35 0 .56.262.364.46l-.808 1.187a.516.516 0 01-.369.131zm6.654.001h-5.097c-.35 0-.557-.265-.364-.46l.809-1.188c.1-.09.23-.136.363-.131h5.087c.35 0 .56.262.366.46l-.808 1.187a.523.523 0 01-.357.132zm6.649-.001h-5.066c-.35 0-.56-.264-.364-.46l.806-1.187c.1-.09.232-.136.366-.131h5.087c.35 0 .56.262.364.46l-.809 1.187a.518.518 0 01-.384.131zm7.541.001h-5.96c-.353 0-.56-.265-.366-.46l.808-1.188c.1-.09.232-.137.366-.131h5.962c.35 0 .56.262.366.46l-.808 1.187a.523.523 0 01-.367.132zm35.45-.337c-.016.19-.246.336-.517.336H48.278c-.76 0-.962-.264-.773-.46l.778-1.187a.49.49 0 01.352-.131h31.923c.368 0 .518.159.716.591l.474.76c.006.03.006.06.003.091zm7.042.336h-5.688a.419.419 0 01-.433-.248l-.654-1.185c-.046-.182.161-.346.433-.346h5.612a.424.424 0 01.433.247l.73 1.187c.046.182-.161.345-.433.345zm6.518.001h-4.992c-.246 0-.46-.104-.495-.25l-.834-1.184c-.05-.182.184-.345.493-.345h5.002c.244 0 .46.103.495.246l.833 1.187c.053.182-.193.346-.502.346zm6.281 0h-4.804a.422.422 0 01-.433-.25l-.732-1.184c-.044-.182.161-.345.433-.345h4.737c.214 0 .37 0 .808.591l.431.842c.036.182-.178.346-.44.346zm-65.224-2.423H21.833c-.318 0-.397-.297-.23-.46l.586-.921a.496.496 0 01.332-.11h14.535c.318 0 .506.23.331.384l-.69.99a.495.495 0 01-.33.117zm5.957-.001h-4.631c-.32 0-.511-.23-.334-.384l.67-.99a.502.502 0 01.334-.11h4.63c.318 0 .51.23.332.385l-.67.989a.495.495 0 01-.331.11zm6.013 0H44.1c-.292 0-.46-.23-.304-.384l.613-.99a.43.43 0 01.304-.11h4.239c.29 0 .46.23.304.384l-.615.99a.431.431 0 01-.304.11zm63.328.001H99.32c-.203 0-.378-.088-.41-.208l-.76-.987c-.041-.152.154-.29.412-.29h12.352c.203 0 .352 0 .769.495l.389.702c.046.152-.149.288-.407.288zm1.18 2.423h-3.772a.514.514 0 01-.363-.132l-.809-1.187c-.193-.198.014-.46.364-.46h3.772a.517.517 0 01.364.13l.808 1.188c.196.196-.014.46-.364.46zm-5.34 0h-4.209a.522.522 0 01-.366-.132l-.808-1.187c-.194-.198.016-.46.366-.46h4.2a.517.517 0 01.364.13l.808 1.188c.21.196-.005.46-.355.46zm-52.83-2.424h-4.552c-.316 0-.502-.23-.327-.384l.658-.99a.484.484 0 01.327-.11h4.558c.313 0 .5.23.326.385l-.658.989a.486.486 0 01-.332.11zm6.589 0h-4.606c-.29 0-.46-.23-.304-.384l.615-.99a.431.431 0 01.304-.11h4.606c.292 0 .46.23.304.384l-.613.99a.43.43 0 01-.306.11zm6.663 0h-4.606c-.35 0-.566-.25-.386-.448l.442-.891a.528.528 0 01.387-.145h3.893a.447.447 0 01.443.23l.271.89c.053.194-.158.364-.444.364zm12.455 0h-4.255a.43.43 0 01-.43-.23l-.263-.888c-.055-.184.152-.357.43-.357h3.991a.479.479 0 01.408.187l.527.89c.108.187-.097.398-.408.398zm6.141 0h-4.257a.427.427 0 01-.429-.23l-.709-.897c-.055-.184.152-.357.43-.357h4.355a.477.477 0 01.405.187l.604.89c.122.196-.09.407-.399.407zm6.133 0h-4.322a.438.438 0 01-.438-.23l-.711-.888c-.056-.184.154-.357.435-.357h4.467a.489.489 0 01.415.187l.568.89c.118.187-.099.398-.414.398zm5.112 0h-3.793a.38.38 0 01-.384-.23l-.624-.888c-.049-.184.136-.357.382-.357h3.88a.415.415 0 01.364.187l.536.89c.104.186-.085.398-.361.398zm-63.25-2.075H22.99c-.23 0-.361-.219-.23-.382l.613-1.077h.361l11.54-.014c.23 0 .36.216.23.38l-.756.978a.292.292 0 01-.23.115zm5.555 0H35.88c-.288 0-.46-.219-.3-.382l.604-.978a.422.422 0 01.3-.108h4.192c.29 0 .46.216.302.38l-.608.977a.424.424 0 01-.297.11zm5.86 0H41.75c-.29 0-.46-.219-.301-.382l.603-.978a.422.422 0 01.3-.108h4.192c.29 0 .461.216.302.38l-.603.977a.42.42 0 01-.311.11zm64.697 0h-9.483c-.509.048-.536-.117-.776-.37l-.723-.723c-.032-.15.166-.361.362-.361l9.699-.014c.154 0 .543-.102.782.375l.45.808c.032.149-.106.285-.311.285zm-58.768 0H47.67c-.29 0-.46-.219-.301-.382l.603-.978a.424.424 0 01.302-.108h4.193c.288 0 .46.216.3.38l-.602.977a.429.429 0 01-.302.11zm5.426 0h-4.193c-.29 0-.46-.219-.302-.382l.604-.978a.422.422 0 01.299-.108h4.193c.29 0 .46.216.302.38l-.604.977a.421.421 0 01-.299.11zm6.436 0h-4.778c-.338 0-.546-.251-.373-.447l.419-.879a.505.505 0 01.373-.142h4.099a.428.428 0 01.426.23l.26.881c.053.186-.152.357-.426.357zm6.511 0h-4.778a.78.78 0 01-.511-.37l-.311-.956c-.05-.129.23-.142.373-.142h4.967a.428.428 0 01.426.23l.26.881c.053.186-.152.357-.426.357zm5.963 0h-4.211a.423.423 0 01-.424-.23l-.263-.882c-.053-.181.152-.35.426-.35h3.952a.462.462 0 01.403.185l.52.881c.113.184-.097.396-.403.396zm6.436 0h-4.21c-.46 0-.787-.23-.828-.37l-.293-.749c-.053-.181.152-.35.426-.35h4.32a.461.461 0 01.403.185l.594.881c.106.191-.106.403-.412.403zm5.549 0h-3.795a.383.383 0 01-.385-.23l-.626-.882c-.048-.181.136-.35.384-.35h3.56a.406.406 0 01.364.185l.861.88c.102.185-.087.397-.363.397zm10.986 0h-3.765a.896.896 0 01-.46-.249l-.878-.89c-.44-.297-.067-.33.207-.33h3.952a.461.461 0 01.403.185l.953.881c.106.191-.104.403-.412.403zm-5.634 0h-3.288c-.175 0-.362 0-.723-.361l-.723-.723c-.044-.182.13-.361.361-.361l3.565-.014a.373.373 0 01.34.184l.809.881c.097.182-.083.394-.34.394zm-59.932-2.078h-9.402a.23.23 0 01-.23-.366l.534-.939a.269.269 0 01.23-.105H34.5a.23.23 0 01.23.365l-.895.94a.271.271 0 01-.23.105zm5.792 0h-4.027c-.279 0-.445-.21-.29-.366l.92-.939a.408.408 0 01.29-.105h4.028c.277 0 .442.209.288.365l-.92.94a.406.406 0 01-.289.105zm5.971 0h-4.027c-.28 0-.443-.21-.29-.366l.92-.939a.405.405 0 01.288-.106h4.028c.278 0 .444.21.29.366l-.921.94a.41.41 0 01-.288.105zm5.697 0h-4.016c-.278 0-.444-.21-.29-.366l.921-.939a.408.408 0 01.29-.105h4.028c.276 0 .442.209.29.365l-.92.94a.403.403 0 01-.303.105zm5.92 0h-4.028c-.276 0-.442-.21-.29-.366l.921-.939a.405.405 0 01.288-.106h4.027c.28 0 .445.21.29.366l-.92.94a.407.407 0 01-.288.105zm6.529 0h-4.59c-.324 0-.524-.23-.359-.428l.751-.844a.485.485 0 01.357-.139h3.592a.408.408 0 01.408.23l.25.845c.051.173-.147.336-.41.336zm6.253 0h-4.59c-.32 0-.32-.283-.356-.428l-.086-.844a.49.49 0 01.36-.139h4.423a.408.408 0 01.408.23l.25.845c.051.173-.144.336-.41.336zm5.728 0h-4.036a.408.408 0 01-.408-.23l-.251-.845c-.05-.174.147-.338.41-.338h3.795a.462.462 0 01.368.191l.5.847c.117.172-.083.375-.378.375zm5.835 0h-4.043a.408.408 0 01-.41-.23l-.668-.845c-.05-.175.148-.338.41-.338h3.795a.461.461 0 01.387.177l.92.847c.1.186-.096.389-.39.389zm5.432 0h-4.02a.404.404 0 01-.406-.23l-.663-.845c-.05-.174.145-.338.408-.338h3.762a.446.446 0 01.385.177l.91.847c.117.186-.083.389-.376.389zm11.178 0h-3.827a.921.921 0 01-.46-.23l-.892-.856c-.444-.285-.067-.317.212-.317h4a.493.493 0 01.41.177l.967.847c.117.177-.097.38-.41.38zm-5.604 0h-3.837a.385.385 0 01-.389-.23l-.636-.845c-.048-.174.139-.338.39-.338h3.608a.421.421 0 01.368.177l.873.847c.095.186-.096.389-.377.389zm11.017 0h-3.933a.971.971 0 01-.484-.23l-.921-.856c-.46-.285-.07-.317.216-.317h4.12a.505.505 0 01.426.181l.997.847c.117.173-.101.375-.421.375zm5.734 0h-4.009a.98.98 0 01-.49-.23l-.933-.856c-.461-.285-.069-.317.23-.317h4.96a.523.523 0 01.429.177l.502.773c.115.177.354.354-.689.453zm-7.196-2.163h6.576a.23.23 0 00.207-.244.22.22 0 00-.037-.11l-.69-.92a.202.202 0 00-.171-.104h-7.299a.232.232 0 00-.187.13.23.23 0 00.016.226l1.046.92c.041.065.469.102.539.102zm-6.093 0h3.915c.27 0 .428-.203.278-.354l-.898-.92a.396.396 0 00-.28-.104h-3.915c-.27 0-.43.204-.281.356l.9.92c.077.07.178.106.281.102zm-5.803 0h3.915c.27 0 .43-.203.281-.354l-.9-.92a.396.396 0 00-.281-.104h-3.915c-.27 0-.43.204-.28.356l.897.92c.078.07.18.107.284.102zm-5.531 0h3.915c.27 0 .428-.203.278-.354l-.898-.92a.396.396 0 00-.28-.104h-3.915c-.27 0-.43.204-.281.356l.9.92c.077.07.178.106.281.102zm-5.759 0h3.914c.27 0 .43-.203.281-.354l-.9-.92a.396.396 0 00-.281-.104h-3.915c-.27 0-.428.204-.279.356l.899.92a.39.39 0 00.28.102zm-6.703 0h4.458c.313 0 .509-.23.347-.414l-.73-.822a.46.46 0 00-.347-.133H72.24a.394.394 0 00-.396.23l-.244.821c-.048.162.143.318.399.318zm-6.07 0h4.459c.31 0 .31-.274.347-.414l.081-.822a.461.461 0 00-.348-.133h-4.308a.396.396 0 00-.396.23l-.244.822c-.04.16.152.317.41.317zm-5.926 0h3.928a.396.396 0 00.396-.23l.244-.822c.049-.17-.143-.329-.398-.329h-3.685a.433.433 0 00-.375.173l-.486.821c-.106.191.085.387.376.387zm-6.03 0h3.928a.396.396 0 00.396-.23l.647-.822c.051-.17-.14-.329-.396-.329h-3.672a.434.434 0 00-.376.173l-.891.821c-.115.191.078.387.364.387zm-5.176 0h3.546a.354.354 0 00.357-.23l.585-.822c.044-.17-.13-.329-.36-.329h-3.325a.381.381 0 00-.338.173l-.804.821c-.096.191.081.387.339.387zm-11.036 0h3.53a.842.842 0 00.433-.23l.817-.83c.41-.277.063-.31-.193-.31h-3.684a.439.439 0 00-.376.173l-.912.822c-.096.18.1.375.385.375zm5.526 0h3.735a.379.379 0 00.377-.23l.615-.822c.048-.17-.133-.329-.378-.329h-3.504a.41.41 0 00-.357.173l-.848.822c-.101.19.086.386.36.386zm-10.638 0h3.519a.844.844 0 00.43-.23l.82-.83c.408-.277.06-.31-.196-.31H33.54a.438.438 0 00-.376.173l-.89.822c-.107.18.09.375.377.375zm-7.018 0h5.686c.19-.029.37-.108.52-.23l.624-.83c0-.31-.288-.31-.594-.31h-5.6a.571.571 0 00-.46.173l-.636 1.093s.104.104.46.104zm48.738 6.316h-4.63a.521.521 0 01-.503-.23l-.313-.897c-.065-.184.18-.357.504-.357h4.681a.6.6 0 01.477.187l.255.89c.224.488-.108.407-.472.407z" fill="#3C3C3B"/><path d="M102.185 97.83h5.482" stroke="#8F8F8F" stroke-miterlimit="10"/></g><path d="M24.998 85.364h-7.853a.23.23 0 00-.23.23v.262c0 .127.103.23.23.23h7.853a.23.23 0 00.23-.23v-.262a.23.23 0 00-.23-.23zm91.093 0h-7.852a.23.23 0 00-.23.23v.262c0 .127.103.23.23.23h7.852a.23.23 0 00.231-.23v-.262a.23.23 0 00-.231-.23zM24.87 87.89l-5.784 10.477H7.52l6.143-10.477H24.87zm84.2 0l5.782 10.477h11.231l-6.169-10.477H109.07z" fill="#3C3C3B"/><path d="M109.881 87.89l5.987 10.477m-5.625-10.477l5.987 10.477m-5.626-10.477l5.987 10.477m-5.626-10.477l5.987 10.477m-5.625-10.477l5.987 10.477m-5.626-10.477l5.988 10.477m-5.625-10.477l5.987 10.477M112.41 87.89l5.987 10.477m-5.623-10.477l5.987 10.477M109.52 87.89l5.987 10.477m-6.349-10.477l5.987 10.478m-1.288-10.478l5.987 10.477m-5.625-10.477l5.987 10.477m-5.625-10.477l5.987 10.477m-5.626-10.477l5.987 10.477m-5.624-10.477l5.987 10.477m-5.628-10.477l5.987 10.477m-5.625-10.477l5.987 10.477m-5.625-10.477l5.987 10.477m-5.626-10.477l5.987 10.477m-9.241-10.477l5.987 10.477m-6.347-10.477l5.987 10.477m-1.288-10.477l5.987 10.477m-5.625-10.477l5.987 10.477m-5.625-10.477l5.987 10.477m-5.626-10.477l5.987 10.477M119.28 87.89l5.987 10.477M119.64 87.89l5.989 10.477m-8.156-10.477l5.987 10.477m-6.349-10.477l5.987 10.477M23.693 87.89l-5.987 10.477m5.626-10.477l-5.987 10.477M22.97 87.89l-5.987 10.477m5.625-10.477l-5.987 10.477m5.627-10.477L16.26 98.367m5.626-10.477l-5.988 10.477m5.625-10.477l-5.987 10.477m5.626-10.477l-5.987 10.477m5.627-10.477l-5.987 10.477m9.238-10.477l-5.987 10.477m6.35-10.477l-5.987 10.477M24.78 87.89l-5.988 10.477m.926-10.477L13.73 98.367m5.624-10.477l-5.987 10.477m5.627-10.477l-5.987 10.477m5.626-10.477l-5.987 10.477m5.625-10.477l-5.987 10.477m5.625-10.477l-5.987 10.477m5.626-10.477L11.56 98.367m5.625-10.477l-5.987 10.477m5.626-10.477l-5.987 10.477m9.242-10.477l-5.987 10.477M20.44 87.89l-5.987 10.477M15.74 87.89L9.753 98.367m5.626-10.477L9.392 98.367m5.623-10.477L9.028 98.367m5.627-10.477L8.668 98.367m5.625-10.477L8.306 98.367m5.625-10.477L7.944 98.369M16.1 87.89l-5.987 10.477m6.35-10.477l-5.987 10.477" stroke="#000" stroke-width=".05" stroke-miterlimit="10"/><path d="M117.002 82.808H17.474V20.263h99.528v62.545z" fill="url(#paint8_linear)"/></g><path d="M117.092 19.377H17.245v63.395h99.847V19.377z" fill="#fff"/><path d="M21.508 22.694a.837.837 0 01-1.005.823.841.841 0 01-.612-1.144.84.84 0 011.617.321zm3.414 0a.832.832 0 01-1.001.813.835.835 0 01-.606-1.137.834.834 0 011.093-.45.837.837 0 01.514.774zm3.42 0a.837.837 0 01-1.006.822.841.841 0 01-.66-.66.837.837 0 01.83-1 .838.838 0 01.836.838zm62.784 31.208c0 .063-10.637.116-23.763.116-13.127 0-23.763-.053-23.763-.116 0-.062 10.636-.116 23.763-.116 13.126 0 23.763.054 23.763.116zm-11.558 1.633c0 .066-5.699.116-12.729.116-7.03 0-12.733-.05-12.733-.117 0-.066 5.699-.115 12.733-.115 7.035 0 12.729.053 12.729.116z" fill="#263238"/><path d="M51.162 61.065h-26.65v17.343h26.65V61.065z" fill="#71A0DD"/><path d="M28.378 64.507a1.064 1.064 0 01-.66.985 1.07 1.07 0 01-1.456-.777 1.064 1.064 0 011.047-1.274 1.07 1.07 0 011.069 1.066zm21.34.897l-.894-.856-.818.829-.026-2.484h1.693l.045 2.51zm-.894-.968l.027.027.773.758v-2.27h-1.542l.027 2.23.715-.745zm-5.818-.496c0 .063-2.928.117-6.539.117-3.61 0-6.538-.054-6.538-.116 0-.063 2.927-.116 6.538-.116s6.539.053 6.539.116zm-8.036 1.463a13.94 13.94 0 01-2.52.116 13.996 13.996 0 01-2.521-.116 13.526 13.526 0 012.52-.115c.842-.04 1.686-.002 2.521.115z" fill="#FAFAFA"/><path d="M80.685 61.065h-26.65v17.343h26.65V61.065z" fill="#A62E41"/><path d="M57.9 64.507a1.064 1.064 0 01-.658.985 1.071 1.071 0 01-1.457-.777 1.063 1.063 0 01.454-1.094 1.07 1.07 0 011.662.886zm21.34.897l-.893-.856-.813.829-.027-2.484h1.69l.044 2.51zm-.893-.968l.027.027.773.758-.027-2.27h-1.537v2.23l.764-.745zm-5.818-.496c0 .063-2.928.117-6.534.117-3.607 0-6.539-.054-6.539-.116 0-.063 2.927-.116 6.539-.116 3.61 0 6.534.053 6.534.116zm-8.032 1.463c-.835.115-1.678.154-2.52.116a13.94 13.94 0 01-2.52-.116 13.481 13.481 0 012.52-.115c.842-.04 1.686-.002 2.52.115z" fill="#FAFAFA"/><path d="M110.161 61.065h-26.65v17.343h26.65V61.065z" fill="#71A0DD"/><path d="M87.376 64.507a1.064 1.064 0 01-.66.985 1.071 1.071 0 01-1.456-.777 1.063 1.063 0 01.454-1.094 1.07 1.07 0 011.662.886zm21.341.897l-.894-.856-.814.829-.027-2.484h1.694l.041 2.51zm-.894-.968l.026.027.774.758-.023-2.27h-1.542v2.23l.765-.745zm-5.819-.496c0 .063-2.928.117-6.539.117-3.61 0-6.538-.054-6.538-.116 0-.063 2.927-.116 6.538-.116s6.539.053 6.539.116zm-8.036 1.463c-.835.115-1.679.154-2.52.116a13.94 13.94 0 01-2.521-.116 13.481 13.481 0 012.52-.115c.842-.04 1.686-.002 2.521.115z" fill="#FAFAFA"/><path opacity=".3" d="M60.376 36.852a3.936 3.936 0 000-5.575 3.957 3.957 0 00-5.587 0 3.936 3.936 0 000 5.575 3.957 3.957 0 005.587 0z" fill="#000"/><path d="M90.204 31.529c-5.207 3.42-9.466 8.272-15.088 10.943-6.99 3.323-15.164 2.855-22.793 1.521-7.63-1.333-15.196-3.46-22.941-3.224a29.025 29.025 0 00-12.134 2.997v6.163h99.843V27.096c-9.077-2.199-19.08-.7-26.887 4.433zM64.332 47.053a.394.394 0 01-.279-.67.394.394 0 01.557.555.394.394 0 01-.278.114zm2.489 0a.394.394 0 01-.386-.47.392.392 0 01.536-.285.394.394 0 01.128.64.394.394 0 01-.278.114zm2.494 0a.394.394 0 01-.278-.67.394.394 0 01.556.555.394.394 0 01-.278.114zm43.798-8.835a1.291 1.291 0 011.981.194 1.278 1.278 0 010 1.427 1.286 1.286 0 01-1.981.194 1.283 1.283 0 01.018-1.815h-.018z" fill="#71A0DD"/><path d="M47.173 44.508c11.674 1.772 26.147 3.108 39.806 1.772 6.846-.669 20.922-16.159 27.735-16.997 2.377-.792 2.774-3.566 2.377-3.566H17.244V46.32c10.14 1.55 20.398.886 29.929-1.812z" fill="#82B4F5"/><path d="M64.332 46.32a.394.394 0 00-.386.47.392.392 0 10.386-.47zm2.489.785a.393.393 0 100-.785.393.393 0 000 .785zm2.494 0a.393.393 0 10.001-.785.393.393 0 000 .785z" fill="#263238"/><path d="M60.376 36.852a3.936 3.936 0 000-5.575 3.957 3.957 0 00-5.587 0 3.936 3.936 0 000 5.575 3.957 3.957 0 005.587 0z" fill="#B4D1FA"/><path d="M114.042 40.408a1.286 1.286 0 100-2.569 1.286 1.286 0 100 2.569z" fill="#71A0DD"/><path opacity=".3" d="M90.204 31.529c-5.207 3.42-9.466 8.272-15.088 10.943-6.99 3.323-15.164 2.855-22.793 1.521-7.63-1.333-15.196-3.46-22.941-3.224a29.025 29.025 0 00-12.134 2.997v6.163h99.843V27.096c-9.077-2.199-19.08-.7-26.887 4.433zM64.332 47.053a.394.394 0 01-.279-.67.394.394 0 01.557.555.394.394 0 01-.278.114zm2.489 0a.394.394 0 01-.386-.47.392.392 0 01.536-.285.394.394 0 01.128.64.394.394 0 01-.278.114zm2.494 0a.394.394 0 01-.278-.67.394.394 0 01.556.555.394.394 0 01-.278.114zm43.798-8.835a1.291 1.291 0 011.981.194 1.278 1.278 0 010 1.427 1.286 1.286 0 01-1.981.194 1.283 1.283 0 01.018-1.815h-.018z" fill="#71A0DD"/><path d="M113.203 71.397a2.51 2.51 0 01.367-.339c.232-.2.563-.472.929-.771v.071a20.953 20.953 0 01-.894-.811 2.603 2.603 0 01-.362-.357c.144.09.279.192.403.308.241.196.572.477.934.789l.04.036-.04.035c-.367.295-.702.558-.948.745-.135.11-.278.208-.429.294zm-91.62-2.221c-.11.125-.233.239-.366.34-.233.2-.559.472-.93.77v-.07c.362.312.684.602.894.811.129.109.249.228.358.357a2.98 2.98 0 01-.403-.308 46.146 46.146 0 01-.934-.79l-.04-.035.04-.031c.367-.299.702-.562.948-.75.136-.109.281-.207.433-.294z" fill="#263238"/><path d="M146.029 55.308a1.986 1.986 0 01-1.986 1.986h-12.967l2.615-2.615-.936-.936-3.745 3.745a.663.663 0 000 .936l3.745 3.745.936-.936-2.615-2.615h12.967a3.314 3.314 0 003.31-3.31V52.66h-1.324v2.648zm-15.889-5.296c0-1.097.89-1.986 1.987-1.986h12.966l-2.615 2.615.936.936 3.745-3.745a.663.663 0 000-.936l-3.745-3.745-.936.936 2.615 2.615h-12.966a3.315 3.315 0 00-3.311 3.31v2.648h1.324v-2.648z" fill="#0A3D76"/></g><defs><linearGradient id="paint0_linear" x1="156.956" y1="45.62" x2="156.859" y2="34.581" gradientUnits="userSpaceOnUse"><stop stop-color="gray"/><stop offset=".01" stop-color="#727272"/><stop offset=".06" stop-color="#4F4F4F"/><stop offset=".1" stop-color="#323232"/><stop offset=".15" stop-color="#1C1C1C"/><stop offset=".2" stop-color="#0C0C0C"/><stop offset=".26" stop-color="#030303"/><stop offset=".34"/><stop offset=".7"/><stop offset=".75" stop-color="#050505"/><stop offset=".8" stop-color="#131313"/><stop offset=".86" stop-color="#2A2A2A"/><stop offset=".92" stop-color="#4B4B4B"/><stop offset=".98" stop-color="#747474"/><stop offset="1" stop-color="gray"/></linearGradient><linearGradient id="paint1_linear" x1="156.462" y1="151.496" x2="156.378" y2="142.993" gradientUnits="userSpaceOnUse"><stop stop-color="gray"/><stop offset=".01" stop-color="#727272"/><stop offset=".06" stop-color="#4F4F4F"/><stop offset=".1" stop-color="#323232"/><stop offset=".15" stop-color="#1C1C1C"/><stop offset=".2" stop-color="#0C0C0C"/><stop offset=".26" stop-color="#030303"/><stop offset=".34"/><stop offset=".7"/><stop offset=".75" stop-color="#050505"/><stop offset=".8" stop-color="#131313"/><stop offset=".86" stop-color="#2A2A2A"/><stop offset=".92" stop-color="#4B4B4B"/><stop offset=".98" stop-color="#747474"/><stop offset="1" stop-color="gray"/></linearGradient><linearGradient id="paint2_linear" x1="188.242" y1="55.118" x2="155.992" y2="54.947" gradientUnits="userSpaceOnUse"><stop stop-color="#323232"/><stop offset=".03" stop-color="#1C1C1C"/><stop offset=".06" stop-color="#0C0C0C"/><stop offset=".1" stop-color="#030303"/><stop offset=".15"/><stop offset=".87"/><stop offset=".91" stop-color="#050505"/><stop offset=".95" stop-color="#131313"/><stop offset=".99" stop-color="#2A2A2A"/><stop offset="1" stop-color="#333"/></linearGradient><linearGradient id="paint3_linear" x1="171.919" y1="24.622" x2="171.892" y2="22.436" gradientUnits="userSpaceOnUse"><stop/><stop offset=".16" stop-color="#050505"/><stop offset=".34" stop-color="#131313"/><stop offset=".53" stop-color="#2A2A2A"/><stop offset=".74" stop-color="#4B4B4B"/><stop offset=".95" stop-color="#747474"/><stop offset="1" stop-color="gray"/></linearGradient><linearGradient id="paint4_linear" x1="172.185" y1="81.222" x2="172.294" y2="86.37" gradientUnits="userSpaceOnUse"><stop/><stop offset=".16" stop-color="#050505"/><stop offset=".34" stop-color="#131313"/><stop offset=".53" stop-color="#2A2A2A"/><stop offset=".74" stop-color="#4B4B4B"/><stop offset=".95" stop-color="#747474"/><stop offset="1" stop-color="gray"/></linearGradient><linearGradient id="paint5_linear" x1="171.92" y1="23.873" x2="171.949" y2="27.22" gradientUnits="userSpaceOnUse"><stop/><stop offset=".14" stop-color="#050505"/><stop offset=".3" stop-color="#131313"/><stop offset=".47" stop-color="#2A2A2A"/><stop offset=".65" stop-color="#4B4B4B"/><stop offset=".83" stop-color="#747474"/><stop offset="1" stop-color="#A1A1A1"/></linearGradient><linearGradient id="paint6_linear" x1="169.046" y1="61.127" x2="169.215" y2="63.47" gradientUnits="userSpaceOnUse"><stop/><stop offset=".14" stop-color="#050505"/><stop offset=".3" stop-color="#131313"/><stop offset=".47" stop-color="#2A2A2A"/><stop offset=".65" stop-color="#4B4B4B"/><stop offset=".83" stop-color="#747474"/><stop offset="1" stop-color="#A1A1A1"/></linearGradient><linearGradient id="paint7_linear" x1="178.8" y1="61.363" x2="178.97" y2="63.723" gradientUnits="userSpaceOnUse"><stop/><stop offset=".14" stop-color="#050505"/><stop offset=".3" stop-color="#131313"/><stop offset=".47" stop-color="#2A2A2A"/><stop offset=".65" stop-color="#4B4B4B"/><stop offset=".83" stop-color="#747474"/><stop offset="1" stop-color="#A1A1A1"/></linearGradient><linearGradient id="paint8_linear" x1="20.542" y1="51.536" x2="113.991" y2="54.728" gradientUnits="userSpaceOnUse"><stop stop-color="#A62E41"/><stop offset="1" stop-color="#E13152"/></linearGradient><filter id="filter0_d" x="154.409" y="21.934" width="39.197" height="70.7" filterUnits="userSpaceOnUse" color-interpolation-filters="sRGB"><feFlood flood-opacity="0" result="BackgroundImageFix"/><feColorMatrix in="SourceAlpha" values="0 0 0 0 0 0 0 0 0 0 0 0 0 0 0 0 0 0 127 0"/><feOffset dx="2" dy="2"/><feGaussianBlur stdDeviation="2"/><feColorMatrix values="0 0 0 0 0 0 0 0 0 0 0 0 0 0 0 0 0 0 0.2 0"/><feBlend in2="BackgroundImageFix" result="effect1_dropShadow"/><feBlend in="SourceGraphic" in2="effect1_dropShadow" result="shape"/></filter><filter id="filter1_d" x="-1" y="15" width="139.563" height="103.093" filterUnits="userSpaceOnUse" color-interpolation-filters="sRGB"><feFlood flood-opacity="0" result="BackgroundImageFix"/><feColorMatrix in="SourceAlpha" values="0 0 0 0 0 0 0 0 0 0 0 0 0 0 0 0 0 0 127 0"/><feOffset dx="2" dy="2"/><feGaussianBlur stdDeviation="2"/><feColorMatrix values="0 0 0 0 0.0392157 0 0 0 0 0.239216 0 0 0 0 0.462745 0 0 0 0.3 0"/><feBlend in2="BackgroundImageFix" result="effect1_dropShadow"/><feBlend in="SourceGraphic" in2="effect1_dropShadow" result="shape"/></filter><filter id="filter2_di" x="12.734" y="15" width="112.836" height="76.997" filterUnits="userSpaceOnUse" color-interpolation-filters="sRGB"><feFlood flood-opacity="0" result="BackgroundImageFix"/><feColorMatrix in="SourceAlpha" values="0 0 0 0 0 0 0 0 0 0 0 0 0 0 0 0 0 0 127 0"/><feOffset dx="2" dy="2"/><feGaussianBlur stdDeviation="2"/><feColorMatrix values="0 0 0 0 0 0 0 0 0 0 0 0 0 0 0 0 0 0 0.15 0"/><feBlend in2="BackgroundImageFix" result="effect1_dropShadow"/><feBlend in="SourceGraphic" in2="effect1_dropShadow" result="shape"/><feColorMatrix in="SourceAlpha" values="0 0 0 0 0 0 0 0 0 0 0 0 0 0 0 0 0 0 127 0" result="hardAlpha"/><feOffset dx="-2" dy="-2"/><feGaussianBlur stdDeviation="2"/><feComposite in2="hardAlpha" operator="arithmetic" k2="-1" k3="1"/><feColorMatrix values="0 0 0 0 0 0 0 0 0 0 0 0 0 0 0 0 0 0 0.2 0"/><feBlend in2="shape" result="effect2_innerShadow"/></filter><filter id="filter3_i" x="-1" y="83.718" width="133.563" height="27.652" filterUnits="userSpaceOnUse" color-interpolation-filters="sRGB"><feFlood flood-opacity="0" result="BackgroundImageFix"/><feBlend in="SourceGraphic" in2="BackgroundImageFix" result="shape"/><feColorMatrix in="SourceAlpha" values="0 0 0 0 0 0 0 0 0 0 0 0 0 0 0 0 0 0 127 0" result="hardAlpha"/><feOffset dx="-2" dy="-2"/><feGaussianBlur stdDeviation="2"/><feComposite in2="hardAlpha" operator="arithmetic" k2="-1" k3="1"/><feColorMatrix values="0 0 0 0 0 0 0 0 0 0 0 0 0 0 0 0 0 0 0.2 0"/><feBlend in2="shape" result="effect1_innerShadow"/></filter><filter id="filter4_di" x="17.584" y="85.722" width="102.397" height="19.56" filterUnits="userSpaceOnUse" color-interpolation-filters="sRGB"><feFlood flood-opacity="0" result="BackgroundImageFix"/><feColorMatrix in="SourceAlpha" values="0 0 0 0 0 0 0 0 0 0 0 0 0 0 0 0 0 0 127 0"/><feOffset dx="2" dy="2"/><feGaussianBlur stdDeviation="2"/><feColorMatrix values="0 0 0 0 0 0 0 0 0 0 0 0 0 0 0 0 0 0 0.15 0"/><feBlend in2="BackgroundImageFix" result="effect1_dropShadow"/><feBlend in="SourceGraphic" in2="effect1_dropShadow" result="shape"/><feColorMatrix in="SourceAlpha" values="0 0 0 0 0 0 0 0 0 0 0 0 0 0 0 0 0 0 127 0" result="hardAlpha"/><feOffset dx="-2" dy="-2"/><feGaussianBlur stdDeviation="2"/><feComposite in2="hardAlpha" operator="arithmetic" k2="-1" k3="1"/><feColorMatrix values="0 0 0 0 0 0 0 0 0 0 0 0 0 0 0 0 0 0 0.2 0"/><feBlend in2="shape" result="effect2_innerShadow"/></filter><clipPath id="clip0"><path fill="#fff" d="M0 0h200v130H0z"/></clipPath></defs></svg>