<svg width="118" height="85" fill="none" xmlns="http://www.w3.org/2000/svg"><g filter="url(#filter0_di)"><path d="M108.36 2H4.826C3.288 2 2.04 3.234 2.04 4.757v71.486C2.041 77.766 3.288 79 4.826 79H108.36c1.538 0 2.785-1.234 2.785-2.757V4.757c0-1.523-1.247-2.757-2.785-2.757z" fill="url(#paint0_linear)"/><path d="M47.773 33.049c.371 0 .692.134.964.403.296.27.445.6.445.991v12.805c0 2.617-.667 4.55-2.002 5.797-1.037.954-2.458 1.431-4.261 1.431-1.483 0-2.83-.342-4.04-1.027-.445-.245-.667-.563-.667-.954 0-.416.099-.746.296-.99.223-.245.47-.368.742-.368.271 0 .556.062.852.184.766.367 1.507.563 2.224.587.716 0 1.297-.049 1.741-.147a2.84 2.84 0 001.186-.66c.766-.734 1.15-1.945 1.15-3.633V34.443c0-.367.135-.685.407-.954.272-.293.593-.44.963-.44zM61.3 51.908c3.533 0 5.312-1.162 5.337-3.486 0-.954-.68-1.712-2.038-2.275a14.806 14.806 0 00-2.076-.66 116.37 116.37 0 01-2.335-.624c-.79-.22-1.58-.465-2.371-.734a8.309 8.309 0 01-2.076-1.1c-1.334-1.003-2.013-2.324-2.038-3.963 0-1.761.68-3.204 2.038-4.33 1.458-1.222 3.41-1.834 5.856-1.834 2.223 0 4.224.33 6.003.99.569.196.865.6.89 1.211 0 .294-.111.575-.334.844-.197.27-.432.404-.704.404-.247 0-.593-.073-1.037-.22-1.335-.465-2.842-.697-4.522-.697-1.556 0-2.841.293-3.854.88-1.038.612-1.557 1.456-1.557 2.532 0 1.125.668 1.994 2.002 2.605.617.27 1.31.501 2.075.697.766.171 1.556.355 2.372.55.815.196 1.593.44 2.335.734.765.27 1.457.612 2.075 1.028 1.334.954 2.014 2.348 2.038 4.182 0 1.713-.704 3.107-2.112 4.183-1.433 1.1-3.323 1.651-5.67 1.651-2.57 0-4.979-.477-7.227-1.43a1.551 1.551 0 01-.593-.478 1.367 1.367 0 01-.26-.807c0-.293.112-.562.334-.807.223-.27.47-.404.741-.404.297 0 .655.098 1.075.294.445.196 1.161.428 2.15.697.988.245 2.15.367 3.483.367zM112 13.435c0 .181-24.628.343-55 .343s-55-.162-55-.343c0-.182 24.628-.343 55-.343s55 .222 55 .343zM24.108 9.44c1.095 0 1.984-.769 1.984-1.718 0-.95-.889-1.72-1.984-1.72-1.096 0-1.985.77-1.985 1.72s.889 1.719 1.985 1.719zm-15.907 0c1.096 0 1.985-.769 1.985-1.718 0-.95-.889-1.72-1.985-1.72-1.095 0-1.984.77-1.984 1.72S7.106 9.44 8.201 9.44zm8.434 0c1.095 0 1.984-.769 1.984-1.718 0-.95-.889-1.72-1.984-1.72-1.096 0-1.985.77-1.985 1.72s.889 1.719 1.985 1.719z" fill="#fff"/></g><defs><linearGradient id="paint0_linear" x1="107.781" y1="40.5" x2="5.317" y2="37.383" gradientUnits="userSpaceOnUse"><stop stop-color="#A62E41"/><stop offset="1" stop-color="#E13152"/></linearGradient><filter id="filter0_di" x="0" y="0" width="118" height="85" filterUnits="userSpaceOnUse" color-interpolation-filters="sRGB"><feFlood flood-opacity="0" result="BackgroundImageFix"/><feColorMatrix in="SourceAlpha" values="0 0 0 0 0 0 0 0 0 0 0 0 0 0 0 0 0 0 127 0"/><feOffset dx="2" dy="2"/><feGaussianBlur stdDeviation="2"/><feColorMatrix values="0 0 0 0 0 0 0 0 0 0 0 0 0 0 0 0 0 0 0.15 0"/><feBlend in2="BackgroundImageFix" result="effect1_dropShadow"/><feBlend in="SourceGraphic" in2="effect1_dropShadow" result="shape"/><feColorMatrix in="SourceAlpha" values="0 0 0 0 0 0 0 0 0 0 0 0 0 0 0 0 0 0 127 0" result="hardAlpha"/><feOffset dx="-2" dy="-2"/><feGaussianBlur stdDeviation="2"/><feComposite in2="hardAlpha" operator="arithmetic" k2="-1" k3="1"/><feColorMatrix values="0 0 0 0 0 0 0 0 0 0 0 0 0 0 0 0 0 0 0.2 0"/><feBlend in2="shape" result="effect2_innerShadow"/></filter></defs></svg>