<svg width="320" height="374" fill="none" xmlns="http://www.w3.org/2000/svg"><path fill-rule="evenodd" clip-rule="evenodd" d="M165.412 53.974a8.896 8.896 0 018.557-.009l81.672 47.375c4.259 2.334 5.8 7.642 3.442 11.857-2.359 4.215-7.723 5.739-11.982 3.405L169.71 71.574 92.439 114.13c-4.254 2.343-9.622.83-11.99-3.38-2.367-4.21-.838-9.522 3.416-11.865l81.547-44.91zm4.309 196.467c4.868.017 8.801 3.936 8.785 8.753l-.119 34.454 68.557-37.745c4.254-2.342 9.622-.828 11.989 3.382 2.367 4.21.836 9.522-3.418 11.864l-77.128 43.009c-6.5 3.077-10.907 3.077-17.511 0l-77.128-45.389c-4.222-2.399-5.679-7.731-3.255-11.909 2.425-4.178 7.813-5.62 12.034-3.221l68.23 39.834.119-34.338c.016-4.818 3.977-8.71 8.845-8.694z" fill="url(#paint0_linear)"/><path fill-rule="evenodd" clip-rule="evenodd" d="M277.676 118.962c2.655 1.637 4.284 4.613 4.284 7.826V245.04c0 5.024-3.911 9.097-8.734 9.097-4.824 0-8.735-4.073-8.735-9.097V142.148l-85.124 50.567v31.92c0 5.024-3.911 9.096-8.734 9.096-4.824 0-8.735-4.072-8.735-9.096V192.75l-91.54-51.561v105.265c0 5.024-3.91 9.097-8.734 9.097s-8.734-4.073-8.734-9.097V125.928c0-3.205 1.62-6.173 4.262-7.814a8.436 8.436 0 018.627-.187l104.825 59.044 98.423-58.159a8.432 8.432 0 018.649.15z" fill="url(#paint1_linear)"/><path fill-rule="evenodd" clip-rule="evenodd" d="M150.736 7.968c11.477-6.99 19.872-11.467 31.306-4.407l126.488 74.04c8.305 5.128 11.84 13.694 6.65 21.9-5.191 8.205-16.078 5.128-24.382 0L171.895 29.134l-141.042 78.59v159.335l141.042 80.309 119.04-69.228c8.503-4.801 22.298-8.402 27.157 0 4.859 8.401-.122 16.98-8.625 21.781l-115.534 68.477c-10.583 5.975-26.445 8.812-40.982.041l-135.21-76.652C6.184 285.697.01 281.964.01 269.023V114.392c-.23-12.619 3.748-24.284 14.645-30.109L150.736 7.968z" fill="url(#paint2_linear)"/><defs><linearGradient id="paint0_linear" x1="79.338" y1="180.163" x2="264.457" y2="181.576" gradientUnits="userSpaceOnUse"><stop stop-color="#1758A0"/><stop offset="1" stop-color="#0A3D76"/></linearGradient><linearGradient id="paint1_linear" x1="52.89" y1="178.289" x2="281.928" y2="181.287" gradientUnits="userSpaceOnUse"><stop stop-color="#CD1732"/><stop offset=".5" stop-color="#B6142C"/><stop offset="1" stop-color="#8B1022"/></linearGradient><linearGradient id="paint2_linear" x1="0" y1="165.696" x2="319.995" y2="167.866" gradientUnits="userSpaceOnUse"><stop stop-color="#B6142C"/><stop offset="1" stop-color="#A62E41"/></linearGradient></defs></svg>