<svg width="94" height="118" viewBox="0 0 94 118" fill="none" xmlns="http://www.w3.org/2000/svg">
<g clip-path="url(#clip0)">
<path d="M14.3833 100.869H18.3833V106.557C17.1352 106.963 15.5593 107.185 13.9212 107.185C7.28224 107.185 3.38029 101.43 3.38029 95.8092C3.38029 90.2965 6.90968 86.4296 11.8336 86.4296C14.9494 86.4296 16.7624 87.4982 18.3844 88.9867V90.8422L21.4257 87.7635C19.502 86.446 16.7166 85.1938 12.7352 85.1938C3.99502 85.1938 0 91.5237 0 96.7257C0 104.13 5.32756 108.591 12.0225 108.591C15.2687 108.591 18.151 108.089 21.4804 107.151V101.275C21.4804 100.975 21.6108 100.769 21.8058 100.588L22.8564 99.5241H15.722L14.3833 100.869Z" fill="url(#paint0_linear)"/>
<path d="M32.3021 93.1406C27.2713 93.1406 24.1543 96.8619 24.1543 100.812C24.1543 104.221 26.6654 108.269 31.7532 108.269C36.6473 108.269 39.6501 104.541 39.6501 100.522C39.6501 96.7777 36.7156 93.142 32.3021 93.142V93.1406ZM31.4674 94.2256C35.0142 94.2256 36.5938 98.9034 36.5938 102.24C36.5938 107.202 32.9167 107.3 32.4771 107.3C30.7944 107.3 29.6183 106.27 28.7379 104.92C27.963 103.676 27.2055 101.364 27.2055 99.1046C27.2055 96.8543 27.9331 95.7555 29.0782 94.9472C30.0146 94.3412 30.8913 94.2256 31.4662 94.2256H31.4674Z" fill="url(#paint1_linear)"/>
<path d="M65.1868 93.1394C60.793 93.1394 58.4161 95.9554 58.4161 99.0996C58.4161 101.493 60.11 104.194 63.6046 104.194H64.4887C64.4887 104.194 64.2479 104.786 64.2467 105.358C64.2467 106.201 64.5459 106.675 65.1816 107.404C59.1686 107.775 56.752 110.23 56.752 112.869C56.752 115.18 58.9377 117.454 63.5312 117.454C68.9693 117.454 71.7858 114.398 71.7858 111.398C71.7858 109.284 70.7451 108.125 68.1099 106.126C67.335 105.516 67.1847 105.128 67.1847 104.672C67.1847 104.018 67.5709 103.585 67.7125 103.422C67.9621 103.155 68.3943 102.851 68.5557 102.705C69.4412 101.946 70.6917 100.822 70.6917 98.5793C70.6917 97.0406 70.0595 95.7168 68.6191 94.4773H70.3776L71.6989 93.1397H65.1868V93.1394ZM63.9748 94.1401C64.7721 94.1401 65.4376 94.4255 66.1405 95.0176C66.9202 95.7292 68.166 97.6413 68.166 100.007C68.166 102.56 66.2064 103.259 65.1459 103.259C64.6268 103.259 64.0048 103.112 63.4781 102.748C62.3083 101.98 61.147 99.9355 61.147 97.503C61.147 95.308 62.4385 94.1401 63.9748 94.1401ZM65.7146 108.374C66.0498 108.374 66.2909 108.401 66.2909 108.401C66.2909 108.401 67.0819 108.973 67.6345 109.401C68.9211 110.43 69.7232 111.217 69.7232 112.619C69.7232 114.546 67.9573 116.057 65.0973 116.057C61.958 116.057 59.5587 114.578 59.5587 112.162C59.5587 110.16 61.2029 108.438 65.7146 108.374Z" fill="url(#paint2_linear)"/>
<path d="M72.6518 107.828H78.6835L79.6024 106.898L77.8725 106.679C77.4068 106.621 77.13 106.214 77.13 105.819V87.3756C77.13 87.0123 77.2964 86.8263 77.418 86.708L78.506 85.6067H73.3622L72.0234 86.9619H74.0228V106.067C74.0228 106.338 73.9384 106.523 73.7571 106.713L72.6518 107.828Z" fill="url(#paint3_linear)"/>
<path d="M86.8559 93.1406C83.4879 93.1406 79.9102 95.7392 79.9102 100.404C79.9102 104.257 82.4771 108.269 87.2731 108.269C88.469 108.269 89.4538 108.113 90.3765 107.685C91.3663 107.223 92.3188 106.474 93.0141 105.532C91.7016 106.203 90.6311 106.643 89.2091 106.643C86.5068 106.643 83.9013 104.669 82.9898 101.041L92.536 97.1347C91.9846 95.1446 90.4298 93.1406 86.8571 93.1406H86.8559ZM86.2323 94.2079C88.0394 94.2079 89.3457 95.7128 89.3457 96.8907C89.3457 97.2716 89.1098 97.4728 88.6428 97.6588L82.775 100.061C82.775 100.061 82.6162 99.3133 82.6162 98.5049C82.6162 95.1144 85.0378 94.2079 86.2323 94.2079Z" fill="url(#paint4_linear)"/>
<path d="M49.3724 93.1406C44.3417 93.1406 41.2246 96.8619 41.2246 100.812C41.2246 104.221 43.7358 108.269 48.8235 108.269C53.7177 108.269 56.7205 104.541 56.7205 100.522C56.7205 96.7777 53.786 93.142 49.3724 93.142V93.1406ZM48.5378 94.2256C52.0847 94.2256 53.6642 98.9034 53.6642 102.24C53.6642 107.202 49.987 107.3 49.5474 107.3C47.8647 107.3 46.6887 106.27 45.8083 104.92C45.0334 103.676 44.2758 101.364 44.2758 99.1046C44.2758 96.8543 45.0034 95.7555 46.1486 94.9472C47.0849 94.3412 47.9617 94.2256 48.5365 94.2256H48.5378Z" fill="url(#paint5_linear)"/>
</g>
<path d="M9.73438 0.25H83.2995C85.9228 0.25 88.0495 2.37665 88.0495 5V67.0137C88.0495 69.637 85.9228 71.7637 83.2995 71.7637H9.73437C7.11102 71.7637 4.98438 69.637 4.98438 67.0137V5C4.98438 2.37665 7.11102 0.25 9.73438 0.25Z" fill="#FAFAFA" stroke="black" stroke-width="0.5"/>
<path d="M80.5947 19.3856H80.2586H79.2599H75.4095L61.086 19.4598L12.4358 19.5015L12.5525 19.3856C12.5525 24.6688 12.5525 30.1513 12.5525 35.7589C12.5525 41.538 12.5525 47.1827 12.5525 52.6327L12.4358 52.5122L60.75 52.5539L74.9568 52.591H78.7745H79.7639H80.1H79.7639H78.7745H74.9568L60.75 52.6234L12.4358 52.6651H12.3145V19.2651H12.4358L61.086 19.3068L75.4048 19.3439H79.2552H80.254C80.4827 19.3764 80.5947 19.3856 80.5947 19.3856Z" fill="#BEBDBD"/>
<path d="M80.5933 24.9791C80.5933 25.0487 65.3365 25.0996 46.5232 25.0996C27.71 25.0996 12.4531 25.0487 12.4531 24.9791C12.4531 24.9096 27.7053 24.8586 46.5232 24.8586C65.3411 24.8586 80.5933 24.905 80.5933 24.9791Z" fill="#BEBDBD"/>
<path d="M80.5933 29.5397C80.5933 29.6092 65.3365 29.6648 46.5232 29.6648C27.71 29.6648 12.4531 29.6092 12.4531 29.5397C12.4531 29.4702 27.7053 29.4192 46.5232 29.4192C65.3411 29.4192 80.5933 29.4933 80.5933 29.5397Z" fill="#BEBDBD"/>
<path d="M80.5933 34.1412C80.5933 34.2061 65.3365 34.2617 46.5232 34.2617C27.71 34.2617 12.4531 34.2061 12.4531 34.1412C12.4531 34.0764 27.7053 34.0208 46.5232 34.0208C65.3411 34.0208 80.5933 34.0717 80.5933 34.1412Z" fill="#BEBDBD"/>
<path d="M80.5933 38.7201C80.5933 38.785 65.3365 38.8406 46.5232 38.8406C27.71 38.8406 12.4531 38.785 12.4531 38.7201C12.4531 38.6552 27.7053 38.5996 46.5232 38.5996C65.3411 38.5996 80.5933 38.6506 80.5933 38.7201Z" fill="#BEBDBD"/>
<path d="M80.5933 43.299C80.5933 43.3638 65.3365 43.4195 46.5232 43.4195C27.71 43.4195 12.4531 43.3638 12.4531 43.299C12.4531 43.2341 27.7053 43.1785 46.5232 43.1785C65.3411 43.1785 80.5933 43.2341 80.5933 43.299Z" fill="#BEBDBD"/>
<path d="M12.4375 47.8778C12.4375 47.8129 27.6944 47.7573 46.5076 47.7573C65.3208 47.7573 80.5777 47.8129 80.5777 47.8778C80.5777 47.9427 65.3255 47.9983 46.5076 47.9983C27.6897 47.9983 12.4375 47.9473 12.4375 47.8778Z" fill="#BEBDBD"/>
<path d="M25.9358 53.1377C25.8658 53.1377 25.8145 45.579 25.8145 36.2593C25.8145 26.9395 25.8658 19.3855 25.9358 19.3855C26.0058 19.3855 26.0804 26.9395 26.0804 36.2593C26.0804 45.579 26.0011 53.1377 25.9358 53.1377Z" fill="#BEBDBD"/>
<path d="M39.6155 53.1377C39.5455 53.1377 39.4941 45.579 39.4941 36.2593C39.4941 26.9395 39.5455 19.3855 39.6155 19.3855C39.6854 19.3855 39.7368 26.9395 39.7368 36.2593C39.7368 45.579 39.6668 53.1377 39.6155 53.1377Z" fill="#BEBDBD"/>
<path d="M53.2666 53.1377C53.1966 53.1377 53.1406 45.579 53.1406 36.2593C53.1406 26.9395 53.1966 19.3855 53.2666 19.3855C53.3366 19.3855 53.3879 26.9395 53.3879 36.2593C53.3879 45.579 53.3319 53.1377 53.2666 53.1377Z" fill="#BEBDBD"/>
<path d="M66.9299 53.1377C66.8646 53.1377 66.8086 45.579 66.8086 36.2593C66.8086 26.9395 66.8646 19.3855 66.9299 19.3855C66.9952 19.3855 67.0512 26.9395 67.0512 36.2593C67.0512 45.579 66.9999 53.1377 66.9299 53.1377Z" fill="#BEBDBD"/>
<path d="M80.594 53.1377C80.5287 53.1377 80.4727 45.579 80.4727 36.2593C80.4727 26.9395 80.5287 19.3855 80.594 19.3855C80.6593 19.3855 80.7153 26.9395 80.7153 36.2593C80.7153 45.579 80.6873 53.1377 80.594 53.1377Z" fill="#BEBDBD"/>
<path d="M80.5907 24.9795C80.4325 25.128 80.2606 25.2614 80.0773 25.378L78.5512 26.4532L72.8293 30.3739C67.9568 33.6921 61.1614 38.2941 53.3953 43.4985L53.2973 43.5634L53.1853 43.5263L47.3794 41.5891L39.5199 38.9429L39.7299 38.9151L26.0365 48.0309L16.1516 51.4233L13.4399 52.3501L12.7259 52.5726C12.6464 52.6032 12.5632 52.6234 12.4785 52.6328C12.5486 52.5845 12.6258 52.547 12.7072 52.5216L13.4026 52.2482L16.0815 51.2518L25.9105 47.7019H25.8685L39.4639 38.5258L39.5619 38.4609L39.6739 38.498L47.5474 41.1257L53.3486 43.0721L53.1386 43.0999C60.8954 37.9141 67.7421 33.3677 72.6613 30.1237L78.4532 26.2957L80.0307 25.29C80.21 25.1739 80.3971 25.0701 80.5907 24.9795Z" fill="#E8505B"/>
<path d="M25.936 48.7028C26.3947 48.7028 26.7666 48.3335 26.7666 47.8779C26.7666 47.4223 26.3947 47.053 25.936 47.053C25.4773 47.053 25.1055 47.4223 25.1055 47.8779C25.1055 48.3335 25.4773 48.7028 25.936 48.7028Z" fill="#E8505B"/>
<path d="M40.4321 38.7201C40.4302 38.8846 40.3791 39.0448 40.2854 39.1803C40.1917 39.3159 40.0595 39.4207 39.9056 39.4815C39.7518 39.5423 39.5832 39.5562 39.4213 39.5217C39.2594 39.4871 39.1116 39.4055 38.9965 39.2873C38.8814 39.169 38.8043 39.0195 38.7749 38.8577C38.7456 38.6958 38.7654 38.5289 38.8317 38.3783C38.898 38.2276 39.008 38.0999 39.1475 38.0114C39.2871 37.9229 39.45 37.8776 39.6155 37.8813C39.7246 37.8831 39.8323 37.9063 39.9323 37.9494C40.0324 37.9925 40.1229 38.0548 40.1988 38.1327C40.2746 38.2106 40.3342 38.3026 40.3743 38.4034C40.4143 38.5042 40.4339 38.6118 40.4321 38.7201Z" fill="#E8505B"/>
<path d="M54.0845 43.2202C54.0854 43.3847 54.0371 43.5457 53.9457 43.6828C53.8542 43.8199 53.7239 43.927 53.571 43.9903C53.4182 44.0537 53.2499 44.0705 53.0875 44.0387C52.925 44.0068 52.7758 43.9277 52.6587 43.8114C52.5416 43.6951 52.462 43.5469 52.4299 43.3855C52.3978 43.2242 52.4147 43.057 52.4785 42.9052C52.5423 42.7535 52.6501 42.6239 52.7882 42.5331C52.9262 42.4424 53.0883 42.3944 53.2539 42.3953C53.363 42.3953 53.471 42.4166 53.5718 42.4581C53.6725 42.4995 53.7641 42.5603 53.8412 42.6369C53.9183 42.7135 53.9795 42.8044 54.0213 42.9045C54.063 43.0046 54.0845 43.1119 54.0845 43.2202Z" fill="#E8505B"/>
<path d="M67.8994 34.1741C67.8994 34.3372 67.8507 34.4967 67.7594 34.6324C67.6681 34.768 67.5384 34.8737 67.3867 34.9362C67.2349 34.9986 67.0679 35.015 66.9068 34.9831C66.7457 34.9513 66.5977 34.8727 66.4815 34.7574C66.3654 34.642 66.2863 34.495 66.2542 34.335C66.2222 34.175 66.2386 34.0091 66.3015 33.8584C66.3644 33.7076 66.4708 33.5788 66.6074 33.4882C66.744 33.3975 66.9046 33.3491 67.0688 33.3491C67.1781 33.3485 67.2864 33.3694 67.3874 33.4107C67.4884 33.4519 67.5803 33.5127 67.6575 33.5894C67.7347 33.6661 67.7959 33.7573 67.8374 33.8576C67.8789 33.958 67.9 34.0656 67.8994 34.1741Z" fill="#E8505B"/>
<path d="M80.5948 47.878C80.5027 47.8448 80.4162 47.7979 80.3382 47.7389L79.6101 47.2755L76.8471 45.5005L66.8268 38.9614H67.0368L53.3948 48.0773L53.2127 48.2024L53.0774 48.0216L45.89 38.4007C43.6545 35.393 41.4842 32.4733 39.412 29.7019L39.7714 29.7251L26.0827 43.4429L26.05 43.4753H26.0127L15.857 46.7518L13.0614 47.6138L12.338 47.827C12.2572 47.8578 12.1723 47.8766 12.0859 47.8826C12.1584 47.8366 12.2369 47.8007 12.3193 47.776L13.0287 47.5165L15.773 46.5618L25.882 43.137L25.8073 43.1787L39.4354 29.4007L39.6267 29.2061L39.7901 29.4239L46.2821 38.1133L53.4554 47.7389L53.1381 47.688L66.8268 38.6509L66.9341 38.5814L67.0368 38.6509L76.9545 45.343L79.6568 47.1967L80.3568 47.6926C80.4441 47.7437 80.5241 47.806 80.5948 47.878Z" fill="#0A3D76"/>
<path d="M40.4321 29.5629C40.4321 29.7278 40.3826 29.8889 40.29 30.0257C40.1974 30.1625 40.0658 30.2687 39.9121 30.3309C39.7584 30.3931 39.5895 30.4085 39.427 30.3749C39.2645 30.3414 39.1157 30.2605 38.9997 30.1426C38.8837 30.0248 38.8056 29.8752 38.7756 29.7131C38.7455 29.551 38.7647 29.3836 38.8308 29.2324C38.8969 29.0812 39.0068 28.953 39.1466 28.8641C39.2864 28.7752 39.4497 28.7297 39.6156 28.7334C39.8342 28.737 40.0426 28.8262 40.1955 28.9815C40.3484 29.1368 40.4334 29.3457 40.4321 29.5629Z" fill="#0A3D76"/>
<path d="M26.7661 43.2991C26.767 43.4635 26.7187 43.6245 26.6273 43.7617C26.5359 43.8988 26.4055 44.0058 26.2527 44.0692C26.0999 44.1326 25.9316 44.1494 25.7691 44.1175C25.6067 44.0857 25.4574 44.0066 25.3403 43.8903C25.2232 43.774 25.1436 43.6257 25.1115 43.4644C25.0794 43.303 25.0964 43.1359 25.1602 42.9841C25.224 42.8323 25.3317 42.7028 25.4698 42.612C25.6079 42.5212 25.77 42.4732 25.9356 42.4741C26.1558 42.4741 26.3671 42.561 26.5229 42.7157C26.6786 42.8704 26.7661 43.0803 26.7661 43.2991Z" fill="#0A3D76"/>
<path d="M54.0845 47.8779C54.0854 48.0424 54.0371 48.2034 53.9457 48.3405C53.8542 48.4776 53.7239 48.5847 53.571 48.6481C53.4182 48.7114 53.2499 48.7282 53.0875 48.6964C52.925 48.6645 52.7758 48.5854 52.6587 48.4691C52.5416 48.3528 52.462 48.2046 52.4299 48.0432C52.3978 47.8819 52.4147 47.7147 52.4785 47.5629C52.5423 47.4112 52.6501 47.2817 52.7882 47.1909C52.9262 47.1001 53.0883 47.0521 53.2539 47.053C53.4742 47.053 53.6855 47.1399 53.8412 47.2946C53.997 47.4493 54.0845 47.6591 54.0845 47.8779Z" fill="#0A3D76"/>
<path d="M66.9282 40.3701C67.3869 40.3701 67.7587 40.0007 67.7587 39.5451C67.7587 39.0895 67.3869 38.7202 66.9282 38.7202C66.4695 38.7202 66.0977 39.0895 66.0977 39.5451C66.0977 40.0007 66.4695 40.3701 66.9282 40.3701Z" fill="#0A3D76"/>
<path d="M20.2273 56.4188C19.7994 56.5363 19.3538 56.5771 18.9115 56.5393C18.4692 56.5771 18.0236 56.5363 17.5957 56.4188C18.0225 56.2952 18.4689 56.2527 18.9115 56.2936C19.3541 56.2527 19.8006 56.2952 20.2273 56.4188Z" fill="#BEBDBD"/>
<path d="M34.1961 56.4188C33.7682 56.5363 33.3226 56.5771 32.8803 56.5393C32.4379 56.5771 31.9924 56.5363 31.5645 56.4188C31.9912 56.2952 32.4376 56.2527 32.8803 56.2936C33.3229 56.2532 33.7692 56.2956 34.1961 56.4188Z" fill="#BEBDBD"/>
<path d="M48.1602 56.4188C47.7323 56.5363 47.2867 56.5771 46.8443 56.5393C46.4036 56.5774 45.9595 56.5366 45.5332 56.4188C45.9584 56.2953 46.4033 56.2529 46.8443 56.2936C47.287 56.2527 47.7334 56.2952 48.1602 56.4188Z" fill="#BEBDBD"/>
<path d="M62.1297 56.4188C61.7018 56.5363 61.2562 56.5771 60.8139 56.5393C60.3715 56.5771 59.9259 56.5363 59.498 56.4188C59.9248 56.2952 60.3712 56.2527 60.8139 56.2936C61.2565 56.2527 61.7029 56.2952 62.1297 56.4188Z" fill="#BEBDBD"/>
<path d="M76.0984 56.4191C75.2287 56.5798 74.3365 56.5798 73.4668 56.4191C74.336 56.2522 75.2293 56.2522 76.0984 56.4191Z" fill="#BEBDBD"/>
<path d="M10.5097 52.4474C10.1698 52.5641 9.80825 52.6053 9.45056 52.5678C9.09134 52.6056 8.72815 52.5645 8.38672 52.4474C8.72755 52.3276 9.09134 52.2864 9.45056 52.3269C9.80826 52.2866 10.1705 52.3278 10.5097 52.4474Z" fill="#BEBDBD"/>
<path d="M10.5097 47.1177C10.1705 47.2373 9.80826 47.2785 9.45056 47.2382C9.09134 47.2787 8.72755 47.2375 8.38672 47.1177C8.72815 47.0006 9.09134 46.9595 9.45056 46.9973C9.80825 46.9598 10.1698 47.001 10.5097 47.1177Z" fill="#BEBDBD"/>
<path d="M10.5097 41.7928C10.1698 41.9096 9.80825 41.9507 9.45056 41.9133C9.09134 41.9511 8.72815 41.9099 8.38672 41.7928C8.72815 41.6757 9.09134 41.6345 9.45056 41.6723C9.80825 41.6349 10.1698 41.676 10.5097 41.7928Z" fill="#BEBDBD"/>
<path d="M10.5097 36.4913C10.1698 36.6081 9.80825 36.6492 9.45056 36.6118C9.09134 36.6496 8.72815 36.6084 8.38672 36.4913C8.72755 36.3715 9.09134 36.3303 9.45056 36.3708C9.80826 36.3306 10.1705 36.3718 10.5097 36.4913Z" fill="#BEBDBD"/>
<path d="M10.5097 31.1383C10.1705 31.2578 9.80826 31.299 9.45056 31.2587C9.09134 31.2992 8.72755 31.258 8.38672 31.1383C8.72815 31.0211 9.09134 30.98 9.45056 31.0178C9.80825 30.9804 10.1698 31.0215 10.5097 31.1383Z" fill="#BEBDBD"/>
<path d="M10.5097 25.8319C10.1698 25.9486 9.80825 25.9898 9.45056 25.9524C9.09134 25.9901 8.72815 25.949 8.38672 25.8319C8.72815 25.7147 9.09134 25.6736 9.45056 25.7114C9.80825 25.674 10.1698 25.7151 10.5097 25.8319Z" fill="#BEBDBD"/>
<path d="M10.5097 20.4886C10.1698 20.6054 9.80825 20.6465 9.45056 20.6091C9.09134 20.6469 8.72815 20.6058 8.38672 20.4886C8.72755 20.3689 9.09134 20.3276 9.45056 20.3681C9.80826 20.3279 10.1705 20.3691 10.5097 20.4886Z" fill="#BEBDBD"/>
<path d="M31.6646 7.8645H12.0859V9.24555H31.6646V7.8645Z" fill="#E8505B"/>
<path d="M66.6321 11.8917C66.6321 11.9566 54.3902 12.0122 39.292 12.0122C24.1938 12.0122 11.9473 11.9566 11.9473 11.8917C11.9473 11.8269 24.1892 11.7712 39.292 11.7712C54.3949 11.7712 66.6321 11.8269 66.6321 11.8917Z" fill="black"/>
<path d="M46.6506 63.0692C46.6506 63.1341 39.1832 63.1897 29.9796 63.1897C20.776 63.1897 13.3086 63.1341 13.3086 63.0692C13.3086 63.0043 20.776 62.9487 29.9796 62.9487C39.1832 62.9487 46.6506 63.0043 46.6506 63.0692Z" fill="black"/>
<path d="M21.3061 65.572C20.1247 65.6913 18.9366 65.7316 17.7497 65.6925C16.5629 65.7316 15.3748 65.6913 14.1934 65.572C15.3746 65.45 16.5629 65.4097 17.7497 65.4515C18.9366 65.4097 20.1249 65.45 21.3061 65.572Z" fill="black"/>
<path d="M76.879 62.629C76.879 62.6939 71.5725 62.7495 65.0245 62.7495C58.4765 62.7495 53.1699 62.6939 53.1699 62.629C53.1699 62.5642 58.4765 62.5085 65.0245 62.5085C71.5725 62.5085 76.879 62.5595 76.879 62.629Z" fill="black"/>
<path d="M63.9876 64.2465C62.7563 64.3659 61.5184 64.4061 60.2819 64.367C59.0453 64.406 57.8075 64.3657 56.5762 64.2465C57.8075 64.1273 59.0453 64.0871 60.2819 64.126C61.5184 64.0869 62.7563 64.1272 63.9876 64.2465Z" fill="black"/>
<defs>
<linearGradient id="paint0_linear" x1="11.3714" y1="85.1276" x2="11.3714" y2="108.589" gradientUnits="userSpaceOnUse">
<stop stop-color="#196EEF"/>
<stop offset="0.5" stop-color="#186DEE"/>
<stop offset="1" stop-color="#1065E7"/>
</linearGradient>
<linearGradient id="paint1_linear" x1="31.8458" y1="93.1048" x2="31.8458" y2="108.276" gradientUnits="userSpaceOnUse">
<stop stop-color="#DE5744"/>
<stop offset="0.5" stop-color="#DB4632"/>
<stop offset="1" stop-color="#D13D29"/>
</linearGradient>
<linearGradient id="paint2_linear" x1="64.2136" y1="93.1048" x2="64.2136" y2="117.463" gradientUnits="userSpaceOnUse">
<stop stop-color="#1A6FEF"/>
<stop offset="0.25" stop-color="#1E72EF"/>
<stop offset="0.5" stop-color="#166BEC"/>
<stop offset="0.75" stop-color="#1267E9"/>
<stop offset="1" stop-color="#1063E5" stop-opacity="0.87"/>
</linearGradient>
<linearGradient id="paint3_linear" x1="75.7579" y1="85.5544" x2="75.7579" y2="107.849" gradientUnits="userSpaceOnUse">
<stop stop-color="#0AA561"/>
<stop offset="0.5" stop-color="#009B58"/>
<stop offset="1" stop-color="#00914B"/>
</linearGradient>
<linearGradient id="paint4_linear" x1="86.4075" y1="93.1048" x2="86.4075" y2="108.234" gradientUnits="userSpaceOnUse">
<stop stop-color="#DE5644"/>
<stop offset="0.5" stop-color="#DA4531"/>
<stop offset="1" stop-color="#CE3A28"/>
</linearGradient>
<linearGradient id="paint5_linear" x1="48.9166" y1="93.1377" x2="48.9166" y2="108.246" gradientUnits="userSpaceOnUse">
<stop stop-color="#FFC01A"/>
<stop offset="0.5" stop-color="#FFBA03"/>
<stop offset="1" stop-color="#FFB300"/>
</linearGradient>
<clipPath id="clip0">
<rect width="93.0136" height="32.2778" fill="white" transform="translate(0 85.1851)"/>
</clipPath>
</defs>
</svg>
