<svg width="56" height="37" fill="none" xmlns="http://www.w3.org/2000/svg"><path fill-rule="evenodd" clip-rule="evenodd" d="M.383 1.83c0-.834.676-1.51 1.51-1.51H54.03c.833 0 1.51.676 1.51 1.51v33.114a1.51 1.51 0 01-1.51 1.51H1.892a1.51 1.51 0 01-1.51-1.51V1.83zm1.51-.687a.686.686 0 00-.687.687v33.114c0 .38.307.686.686.686h52.139a.686.686 0 00.686-.686V1.83a.686.686 0 00-.686-.687H1.892z" fill="#A62E41"/><path d="M54.981 6.247c0 .123-12.108.221-27.07.221S.841 6.37.841 6.247s12.108-.214 27.07-.214 27.07.099 27.07.214z" fill="url(#paint0_linear)"/><path d="M4.925 3.702a.665.665 0 11-.656-.582.623.623 0 01.656.582z" fill="url(#paint1_linear)"/><path d="M7.33 3.702a.665.665 0 11-.657-.582.623.623 0 01.657.582z" fill="url(#paint2_linear)"/><path d="M9.736 3.702a.665.665 0 11-.656-.582.623.623 0 01.656.582z" fill="url(#paint3_linear)"/><path d="M18.426 26.497c2.082 0 3.494-.989 4.482-2.33l-1.253-.69a3.925 3.925 0 01-3.23 1.713c-2.575 0-4.534-1.995-4.534-4.784 0-2.807 1.959-4.785 4.535-4.785 1.341 0 2.559.724 3.23 1.713l1.235-.689c-.936-1.324-2.383-2.33-4.465-2.33-3.388 0-6.053 2.471-6.053 6.09 0 3.62 2.665 6.092 6.053 6.092z" fill="url(#paint4_linear)"/><path d="M28.587 26.497c3.176 0 4.34-1.748 4.34-3.46 0-4.397-6.97-2.878-6.97-5.527 0-1.112 1.006-1.871 2.418-1.871 1.288 0 2.523.441 3.406 1.412l.882-1.077c-.988-1.041-2.382-1.642-4.182-1.642-2.312 0-4.041 1.324-4.041 3.267 0 4.201 6.97 2.524 6.97 5.561 0 .9-.67 2.03-2.77 2.03-1.66 0-2.93-.812-3.706-1.677l-.865 1.112c.97 1.095 2.47 1.872 4.518 1.872z" fill="url(#paint5_linear)"/><path d="M38.927 26.497c3.176 0 4.34-1.748 4.34-3.46 0-4.397-6.97-2.878-6.97-5.527 0-1.112 1.006-1.871 2.418-1.871 1.288 0 2.523.441 3.406 1.412l.882-1.077c-.988-1.041-2.382-1.642-4.182-1.642-2.312 0-4.041 1.324-4.041 3.267 0 4.201 6.97 2.524 6.97 5.561 0 .9-.67 2.03-2.77 2.03-1.66 0-2.93-.812-3.706-1.677l-.865 1.112c.97 1.095 2.47 1.872 4.518 1.872z" fill="url(#paint6_linear)"/><defs><linearGradient id="paint0_linear" x1="53.312" y1="6.251" x2="47.058" y2="-10.458" gradientUnits="userSpaceOnUse"><stop stop-color="#A62E41"/><stop offset="1" stop-color="#E13152"/></linearGradient><linearGradient id="paint1_linear" x1="4.889" y1="3.784" x2="3.641" y2="3.757" gradientUnits="userSpaceOnUse"><stop stop-color="#A62E41"/><stop offset="1" stop-color="#E13152"/></linearGradient><linearGradient id="paint2_linear" x1="7.294" y1="3.784" x2="6.045" y2="3.757" gradientUnits="userSpaceOnUse"><stop stop-color="#A62E41"/><stop offset="1" stop-color="#E13152"/></linearGradient><linearGradient id="paint3_linear" x1="9.7" y1="3.784" x2="8.451" y2="3.757" gradientUnits="userSpaceOnUse"><stop stop-color="#A62E41"/><stop offset="1" stop-color="#E13152"/></linearGradient><linearGradient id="paint4_linear" x1="42.316" y1="20.406" x2="13.36" y2="18.829" gradientUnits="userSpaceOnUse"><stop stop-color="#A62E41"/><stop offset="1" stop-color="#E13152"/></linearGradient><linearGradient id="paint5_linear" x1="42.316" y1="20.406" x2="13.36" y2="18.829" gradientUnits="userSpaceOnUse"><stop stop-color="#A62E41"/><stop offset="1" stop-color="#E13152"/></linearGradient><linearGradient id="paint6_linear" x1="42.316" y1="20.406" x2="13.36" y2="18.829" gradientUnits="userSpaceOnUse"><stop stop-color="#A62E41"/><stop offset="1" stop-color="#E13152"/></linearGradient></defs></svg>