<svg width="117" height="84" viewBox="0 0 117 84" fill="none" xmlns="http://www.w3.org/2000/svg">
<g clip-path="url(#clip0)">
<path d="M56.2457 74.553L56.2218 74.6179L56.2457 74.553Z" fill="#56BAA9"/>
<path d="M63.7098 67.3592L63.7398 67.3268L63.7098 67.3592Z" fill="#F78989"/>
<path d="M58.2583 71.0335C58.341 70.9646 58.3931 70.8658 58.4029 70.7588C58.4127 70.6518 58.3795 70.5453 58.3106 70.4629C58.2417 70.3804 58.1428 70.3287 58.0355 70.3191C57.9283 70.3095 57.8216 70.3427 57.7388 70.4116C57.6957 70.4479 56.9601 71.0852 56.1221 72.786L56.2454 74.5488C57.2148 71.9589 58.2409 71.049 58.2583 71.0335Z" fill="#F78989"/>
<path d="M44.633 53.397C44.7129 53.3251 44.7609 53.2245 44.7665 53.1174C44.7721 53.0103 44.7348 52.9054 44.6629 52.8258C44.6355 52.7949 44.6103 52.7633 44.5852 52.7317C44.4368 52.9646 44.3027 53.2063 44.1834 53.4552C44.2639 53.4961 44.3557 53.5092 44.4446 53.4926C44.5143 53.4768 44.5791 53.4439 44.633 53.397Z" fill="#F78989"/>
<path d="M57.3497 42.8442C57.4324 42.9063 57.5359 42.9342 57.6388 42.9221C57.6931 42.916 57.7455 42.8987 57.7928 42.8715C57.8402 42.8442 57.8814 42.8076 57.9139 42.7638C57.946 42.7217 57.9695 42.6737 57.9829 42.6226C57.9964 42.5714 57.9997 42.5182 57.9925 42.4658C57.9853 42.4135 57.9678 42.3631 57.9411 42.3175C57.9143 42.2719 57.8788 42.2321 57.8366 42.2003C57.6046 42.0309 57.3577 41.8829 57.0988 41.7582C56.9792 41.8738 56.9103 41.9457 56.9103 41.9457L56.7887 41.9626C56.4384 42.0037 56.1075 42.0584 55.7832 42.1184C56.3448 42.265 56.8754 42.5108 57.3497 42.8442Z" fill="#F78989"/>
<path d="M47.0449 68.2829C46.9386 68.2697 46.8313 68.2991 46.7465 68.3647C46.6617 68.4302 46.6063 68.5265 46.5925 68.6326C46.5369 69.2137 46.5585 69.7996 46.6568 70.3748C46.9625 70.6041 47.2908 70.8017 47.6367 70.9647C47.4191 70.2405 47.3431 69.4811 47.4126 68.7278C47.4183 68.6744 47.4133 68.6203 47.3979 68.5689C47.3824 68.5174 47.3568 68.4696 47.3225 68.4282C47.2883 68.3867 47.2461 68.3526 47.1984 68.3276C47.1508 68.3027 47.0986 68.2875 47.0449 68.2829Z" fill="#F78989"/>
<path d="M59.92 74.817C59.8214 75.0641 59.7365 75.3163 59.6656 75.5725C59.747 75.3077 59.8351 75.0557 59.92 74.817Z" fill="#F78989"/>
<path d="M51.4236 71.4575C51.1496 71.514 50.8713 71.5474 50.5917 71.5572C49.5697 71.6078 48.5511 71.4081 47.625 70.9757C47.6562 71.0724 47.6874 71.1691 47.7194 71.268C49.8205 74.6915 53.601 74.8315 55.3354 74.6812L55.3932 74.521C53.7313 74.0326 52.3147 72.9393 51.4236 71.4575Z" fill="#F78989"/>
<path d="M70.8622 39.4819C71.1675 39.3638 71.4807 39.2668 71.7994 39.1917C72.2645 39.0769 72.7366 38.9933 73.2127 38.9414C71.8047 38.6341 70.3503 38.598 68.9277 38.8352C69.5735 39.0091 70.2067 39.2261 70.8232 39.4846L70.8622 39.4819Z" fill="#FFB0B0"/>
<path d="M64.3681 38.4154C62.5641 38.0451 60.6991 38.0843 58.911 38.5302C57.1229 38.976 55.4574 39.8171 54.0377 40.9912C55.0965 41.0598 56.1337 41.3197 57.0988 41.7582C57.235 41.6249 57.4476 41.4271 57.7354 41.1927C59.6276 39.64 61.9337 38.6744 64.3681 38.4154Z" fill="#F78989"/>
<path d="M43.9479 61.414C44.0236 61.2479 44.1161 61.0899 44.2239 60.9425C44.1026 60.6294 43.9993 60.3096 43.9147 59.9846C43.521 58.5797 43.0375 55.8631 44.1778 53.4563C44.1336 53.435 44.0938 53.4058 44.0603 53.3701C43.2492 52.4849 43.0249 51.3506 42.9998 50.4474C38.8983 53.0753 39.6535 57.7751 40.2162 59.7884C40.7514 59.045 41.4254 58.4117 42.2011 57.9233C42.2464 57.896 42.2967 57.8778 42.349 57.8698C42.4013 57.8618 42.4546 57.8642 42.5059 57.8768C42.5573 57.8894 42.6056 57.9119 42.6482 57.9432C42.6908 57.9744 42.7268 58.0137 42.7541 58.0589C42.7814 58.104 42.7995 58.1541 42.8074 58.2063C42.8154 58.2585 42.8129 58.3117 42.8002 58.3629C42.7875 58.4142 42.7648 58.4625 42.7334 58.505C42.702 58.5475 42.6626 58.5835 42.6173 58.6108C41.4134 59.3397 40.6195 60.5595 40.2562 61.2156C39.819 62.129 39.1734 64.3635 40.9466 67.7588C42.674 71.0894 45.5007 71.4156 46.894 71.3506C46.7831 71.0342 46.7005 70.7086 46.6471 70.3776C45.8018 69.7357 45.1169 68.9074 44.6458 67.9573C42.8816 64.5591 43.5218 62.3387 43.9479 61.414Z" fill="#F78989"/>
<path d="M47.5092 50.1804L47.5141 50.1416C47.5606 49.63 48.2441 43.5172 55.7892 42.1163C54.9104 41.8821 54.0047 41.7622 53.0947 41.7598C44.5976 42.7802 43.8587 49.4 43.8142 49.9408C43.7739 50.7186 43.8623 51.8794 44.5786 52.7332C45.1211 51.8886 45.8431 51.1731 46.6932 50.6376C46.9573 50.4714 47.2296 50.3188 47.5092 50.1804Z" fill="#F78989"/>
<path d="M80.1903 43.3352C77.8571 40.6347 75.3893 39.4228 73.2325 38.9349C72.7564 38.9867 72.2843 39.0703 71.8194 39.1851C71.5007 39.2601 71.1876 39.3571 70.8822 39.4752L70.8487 39.4637C70.2322 39.2052 69.5991 38.9883 68.9534 38.8143C68.639 38.8662 68.359 38.9243 68.1217 38.9836C68.5205 39.2809 68.8486 39.6625 69.0824 40.1011C69.103 40.1499 69.1136 40.2023 69.1138 40.2553C69.1139 40.3083 69.1035 40.3608 69.0832 40.4098C69.063 40.4589 69.0332 40.5034 68.9956 40.5409C68.958 40.5784 68.9134 40.6081 68.8643 40.6284C68.831 40.6454 68.7952 40.6569 68.7583 40.6626C68.6691 40.6776 68.5776 40.6626 68.498 40.62C68.4184 40.5773 68.3554 40.5095 68.3187 40.4271C68.1747 40.0813 67.5992 39.6017 67.1328 39.2755C66.2416 38.9051 65.3163 38.6218 64.3699 38.4296C61.9355 38.6886 59.6294 39.6542 57.7372 41.2069C57.4494 41.4414 57.2368 41.6391 57.1006 41.7725C57.3595 41.8972 57.6064 42.0452 57.8384 42.2146C57.8806 42.2464 57.9161 42.2863 57.9429 42.3318C57.9696 42.3774 57.9871 42.4278 57.9942 42.4801C58.0014 42.5325 57.9982 42.5857 57.9847 42.6369C57.9712 42.688 57.9478 42.736 57.9157 42.7781C57.8832 42.8219 57.842 42.8585 57.7947 42.8858C57.7473 42.913 57.6949 42.9302 57.6407 42.9364C57.5378 42.9485 57.4342 42.9206 57.3516 42.8584C56.8792 42.5215 56.35 42.2719 55.7891 42.1215C48.2448 43.5171 47.5562 49.6142 47.5148 50.1415L47.5099 50.1803C47.2303 50.3187 46.958 50.4713 46.6939 50.6375C45.8428 51.1701 45.1191 51.8827 44.5741 52.7248C44.5993 52.7565 44.6244 52.7881 44.6518 52.8189C44.7238 52.8978 44.7616 53.002 44.7568 53.1086C44.7521 53.2153 44.7052 53.3159 44.6265 53.3883C44.5709 53.437 44.5037 53.4706 44.4314 53.486C44.3426 53.5026 44.2508 53.4895 44.1704 53.4486C43.0301 55.8554 43.5136 58.572 43.911 59.9882C43.9956 60.3131 44.0988 60.633 44.2202 60.9461C44.1139 61.0924 44.0226 61.2492 43.9479 61.4139C43.5115 62.3295 42.8749 64.5612 44.6391 67.9593C45.1102 68.9094 45.7951 69.7378 46.6404 70.3796C46.542 69.8044 46.5204 69.2186 46.576 68.6375C46.5796 68.5824 46.5944 68.5286 46.6196 68.4794C46.6448 68.4302 46.6799 68.3867 46.7226 68.3515C46.7653 68.3163 46.8147 68.2902 46.8679 68.2748C46.921 68.2594 46.9768 68.255 47.0316 68.2619C47.0865 68.2689 47.1394 68.2869 47.187 68.315C47.2345 68.3431 47.2758 68.3807 47.3083 68.4253C47.3407 68.47 47.3636 68.5208 47.3756 68.5747C47.3876 68.6285 47.3884 68.6843 47.378 68.7386C47.3085 69.4918 47.3845 70.2512 47.6021 70.9754C48.5281 71.4078 49.5465 71.6075 50.5684 71.557C50.8555 71.5485 51.1413 71.5152 51.4227 71.4575C52.3165 72.9368 53.7345 74.0269 55.3965 74.5121C55.6039 73.9253 55.8439 73.3504 56.1155 72.7902C56.9488 71.0909 57.6888 70.4522 57.7318 70.4159C57.814 70.3463 57.9205 70.312 58.0279 70.3206C58.1353 70.3293 58.2347 70.3801 58.3044 70.462C58.3741 70.5439 58.4083 70.6501 58.3995 70.7572C58.3906 70.8644 58.3395 70.9637 58.2573 71.0334C58.2348 71.0407 57.2117 71.9595 56.2441 74.5538L56.2484 74.5673C56.236 74.6135 56.2242 74.662 56.2095 74.709C55.7204 76.5291 55.7774 78.4515 56.3733 80.2378C56.8807 80.189 57.3702 80.0241 57.8038 79.756C58.2658 79.4909 58.6887 79.163 59.0604 78.7817C59.2011 77.4259 59.4596 76.0846 59.833 74.773C59.8547 74.694 59.875 74.6179 59.8991 74.5381C60.5586 72.2618 61.7109 69.4837 63.7151 67.3468L63.7327 67.3163C64.0537 66.7682 65.2572 65.4907 65.6427 65.0881C65.7167 65.0105 65.8185 64.9654 65.9257 64.9627C66.0329 64.96 66.1368 64.9999 66.2144 65.0736C66.292 65.1473 66.337 65.2488 66.3396 65.3558C66.3421 65.4628 66.302 65.5664 66.228 65.644C65.672 66.2357 65.031 66.9418 64.6833 67.3843C70.907 67.582 73.7389 63.2039 74.6556 61.3386C73.5091 61.2888 72.3846 61.0102 71.3486 60.5194C71.2531 60.4712 71.1808 60.3871 71.1476 60.2856C71.1144 60.1841 71.1229 60.0735 71.1714 59.9782C71.2199 59.8829 71.3043 59.8106 71.406 59.7773C71.5078 59.7439 71.6186 59.7523 71.7141 59.8005C72.7456 60.2807 73.8703 60.5294 75.0093 60.5292L75.0057 60.518C81.4317 58.6739 86.2163 50.3331 80.1903 43.3352Z" fill="#FFB0B0"/>
<path d="M42.7541 58.0551C42.6994 57.9663 42.6122 57.9024 42.511 57.8767C42.4098 57.851 42.3024 57.8656 42.2116 57.9174C41.4314 58.4057 40.7533 59.0403 40.2151 59.7861C40.301 60.1099 40.4039 60.429 40.5236 60.7418C40.4156 60.8898 40.3233 61.0486 40.2483 61.2156C40.6117 60.5594 41.4094 59.3509 42.6098 58.6107C42.6562 58.584 42.6968 58.5483 42.7293 58.5058C42.7617 58.4632 42.7854 58.4146 42.7988 58.3629C42.8123 58.3112 42.8152 58.2573 42.8076 58.2044C42.7999 58.1516 42.7817 58.1008 42.7541 58.0551Z" fill="#ED7070"/>
<path d="M44.0619 53.3698C44.1086 53.4213 44.1678 53.46 44.2338 53.4822C44.2998 53.5043 44.3704 53.5092 44.439 53.4964C44.5113 53.481 44.5784 53.4473 44.634 53.3986C44.6738 53.363 44.7062 53.3198 44.7292 53.2716C44.7522 53.2234 44.7655 53.1712 44.7682 53.1179C44.7709 53.0647 44.763 53.0114 44.745 52.9612C44.727 52.911 44.6992 52.8649 44.6632 52.8256C43.872 51.9637 43.7775 50.7452 43.8211 49.9391L43.8169 49.9801C43.5383 50.1204 43.2676 50.2758 43.0059 50.4456C43.0265 51.3502 43.2537 52.4936 44.0619 53.3698Z" fill="#ED7070"/>
<path d="M57.3493 42.8443C57.432 42.9064 57.5356 42.9343 57.6385 42.9222C57.6927 42.916 57.7451 42.8988 57.7925 42.8716C57.8398 42.8443 57.881 42.8077 57.9136 42.7639C57.9456 42.7218 57.9691 42.6738 57.9826 42.6226C57.996 42.5715 57.9993 42.5183 57.9921 42.4659C57.9849 42.4136 57.9675 42.3632 57.9407 42.3176C57.914 42.272 57.8785 42.2322 57.8363 42.2004C56.7234 41.3679 55.1561 41.0794 54.0347 40.992C53.7474 41.2283 53.475 41.4821 53.2192 41.7519L53.0976 41.7688C53.9734 41.7666 56.0728 41.8982 57.3493 42.8443Z" fill="#ED7070"/>
<path d="M68.7374 40.6648C68.7743 40.6591 68.8101 40.6476 68.8434 40.6306C68.8925 40.6103 68.9371 40.5806 68.9747 40.5431C69.0123 40.5056 69.0421 40.461 69.0624 40.412C69.0827 40.363 69.093 40.3105 69.0929 40.2575C69.0928 40.2045 69.0821 40.1521 69.0616 40.1032C68.8277 39.6646 68.4996 39.283 68.1007 38.9857C67.782 39.064 67.4692 39.165 67.1649 39.2879L67.1328 39.2734C67.5992 39.5996 68.1748 40.0792 68.3188 40.425C68.3538 40.5043 68.4132 40.5704 68.4885 40.6135C68.5638 40.6566 68.651 40.6746 68.7374 40.6648Z" fill="#F78989"/>
<path d="M71.1617 59.979C71.1133 60.0742 71.1044 60.1846 71.1372 60.2861C71.17 60.3876 71.2417 60.472 71.3367 60.5209C72.3729 61.0117 73.4974 61.2902 74.6441 61.3401C74.7768 61.0769 74.8949 60.8067 74.9979 60.5306C73.8587 60.5308 72.7338 60.2822 71.7022 59.802C71.607 59.7548 71.497 59.7469 71.3958 59.78C71.2947 59.8132 71.2106 59.8846 71.1617 59.979Z" fill="#F78989"/>
<path d="M66.2067 65.0847C66.1683 65.0482 66.1232 65.0197 66.0737 65.0008C66.0243 64.9818 65.9716 64.9728 65.9186 64.9742C65.8656 64.9756 65.8134 64.9875 65.765 65.009C65.7166 65.0306 65.6729 65.0615 65.6364 65.1C65.2176 65.5381 63.8426 67.0026 63.6573 67.4547L63.7336 67.3283C64.0554 67.361 64.3632 67.3733 64.6687 67.3864C65.0261 66.9507 65.6492 66.2504 66.2136 65.6461C66.2856 65.5697 66.3251 65.4685 66.3238 65.3638C66.3225 65.259 66.2805 65.159 66.2067 65.0847Z" fill="#F78989"/>
<path d="M47.3949 68.7335C47.4053 68.6793 47.4045 68.6235 47.3925 68.5696C47.3806 68.5157 47.3576 68.4649 47.3252 68.4202C47.2927 68.3756 47.2514 68.338 47.2038 68.31C47.1563 68.2819 47.1034 68.2638 47.0485 68.2569C46.9936 68.25 46.9379 68.2543 46.8847 68.2697C46.8315 68.2851 46.7821 68.3113 46.7394 68.3464C46.6967 68.3816 46.6617 68.4252 46.6364 68.4743C46.6112 68.5235 46.5964 68.5773 46.5928 68.6324C46.5032 69.5496 46.6101 70.4749 46.9063 71.347C47.1858 71.3371 47.4641 71.3037 47.7381 71.2472C47.4373 70.4456 47.32 69.5868 47.3949 68.7335Z" fill="#ED7070"/>
<path d="M58.2588 71.0335C58.3416 70.9646 58.3936 70.8658 58.4034 70.7588C58.4133 70.6518 58.3801 70.5453 58.3112 70.4629C58.2423 70.3804 58.1434 70.3287 58.0361 70.3191C57.9289 70.3095 57.8221 70.3428 57.7394 70.4116C57.6819 70.4575 56.4362 71.5277 55.3436 74.6615C55.6458 74.6396 55.9467 74.6005 56.2445 74.5443C57.2153 71.9589 58.2414 71.0491 58.2588 71.0335Z" fill="#F78989"/>
<path d="M50.6642 53.2192C50.5995 53.2264 50.534 53.2179 50.4734 53.1941C50.4129 53.1704 50.359 53.1323 50.3166 53.0831C50.2628 53.0244 50.2276 52.951 50.2155 52.8724C50.2034 52.7937 50.2149 52.7131 50.2485 52.6408C50.2571 52.6058 50.2606 52.555 50.2687 52.4952C50.8857 47.3722 56.8541 46.9796 61.7503 47.5464C61.803 47.5526 61.8539 47.569 61.9002 47.5948C61.9464 47.6206 61.9871 47.6552 62.0199 47.6967C62.0528 47.7382 62.0771 47.7858 62.0914 47.8367C62.1058 47.8876 62.11 47.9409 62.1038 47.9934C62.0975 48.046 62.0809 48.0968 62.055 48.143C62.0291 48.1892 61.9943 48.2299 61.9526 48.2627C61.8685 48.329 61.7615 48.3593 61.6551 48.3469C55.0664 47.5891 51.5055 49.0145 51.0624 52.6015C51.0358 52.8584 51.0156 52.9965 50.8788 53.1201C50.819 53.1742 50.7441 53.2087 50.6642 53.2192Z" fill="#F78989"/>
<path d="M55.3208 48.4752C55.216 48.4841 55.112 48.4518 55.031 48.3852C54.9499 48.3185 54.8982 48.2229 54.887 48.1187C54.6886 45.7146 52.3528 45.267 52.2534 45.2445C52.153 45.2214 52.0653 45.1606 52.0085 45.0748C51.9517 44.989 51.9301 44.8847 51.9481 44.7833C51.9662 44.682 52.0225 44.5913 52.1055 44.5301C52.1885 44.4688 52.2919 44.4416 52.3942 44.4541C52.4256 44.4589 55.4398 45.0176 55.6908 48.0478C55.6971 48.153 55.6619 48.2566 55.5928 48.3364C55.5237 48.4163 55.4261 48.4661 55.3208 48.4752Z" fill="#F78989"/>
<path d="M61.4861 53.2658C61.3844 53.2776 61.2821 53.2505 61.1998 53.19C61.1174 53.1295 61.0611 53.0402 61.0422 52.9399C60.5595 50.3644 60.8773 48.325 61.9942 46.8942C62.4366 46.3482 62.9828 45.8948 63.6013 45.56C64.2198 45.2252 64.8983 45.0157 65.5978 44.9435C65.6507 44.9401 65.7037 44.9471 65.7538 44.9641C65.804 44.9811 65.8502 45.0079 65.89 45.0428C65.9297 45.0777 65.9621 45.1201 65.9854 45.1676C66.0086 45.2151 66.0222 45.2667 66.0254 45.3194C66.0319 45.3739 66.0268 45.4292 66.0107 45.4817C65.9945 45.5342 65.9675 45.5828 65.9315 45.6243C65.8954 45.6659 65.8511 45.6995 65.8014 45.723C65.7516 45.7465 65.6975 45.7594 65.6425 45.7609C64.4603 45.8979 63.3774 46.4889 62.6234 47.4086C61.6621 48.6502 61.396 50.4643 61.8347 52.8031C61.8447 52.8551 61.8443 52.9085 61.8336 52.9603C61.8229 53.0121 61.802 53.0613 61.7721 53.105C61.7423 53.1488 61.7041 53.1863 61.6598 53.2153C61.6154 53.2444 61.5658 53.2644 61.5137 53.2743L61.4861 53.2658Z" fill="#F78989"/>
<path d="M69.5104 43.4145L69.4675 43.4283C65.6847 43.443 64.1475 41.5582 63.6621 40.749C63.6283 40.709 63.6027 40.6626 63.587 40.6126C63.5713 40.5625 63.5658 40.5099 63.5707 40.4577C63.5757 40.4054 63.591 40.3547 63.6158 40.3084C63.6406 40.2621 63.6744 40.2212 63.7152 40.1881C63.8005 40.12 63.9093 40.0882 64.0179 40.0996C64.1265 40.111 64.2262 40.1648 64.2952 40.2491C64.3187 40.2776 64.3394 40.3084 64.3571 40.3408C64.7725 41.0336 66.0961 42.6423 69.4683 42.6285C69.5727 42.6258 69.6741 42.6636 69.7509 42.7341C69.8278 42.8045 69.8741 42.902 69.8802 43.006C69.8864 43.11 69.8517 43.2124 69.7837 43.2915C69.7156 43.3707 69.6194 43.4204 69.5154 43.4302L69.5104 43.4145Z" fill="#F78989"/>
<path d="M76.0703 50.4267C75.964 50.4388 75.8573 50.4087 75.7732 50.3429C75.689 50.2772 75.6343 50.1811 75.6206 50.0753C75.368 48.2821 74.6676 46.9763 73.5392 46.196C71.7525 44.9578 69.4722 45.4383 69.449 45.4434C69.3972 45.4547 69.3437 45.4557 69.2916 45.4465C69.2394 45.4372 69.1896 45.4177 69.1451 45.3892C69.1005 45.3608 69.062 45.3238 69.0318 45.2804C69.0015 45.237 68.9802 45.1882 68.9689 45.1365C68.9576 45.0849 68.9567 45.0315 68.9661 44.9795C68.9755 44.9275 68.9951 44.8778 69.0237 44.8332C69.0523 44.7887 69.0895 44.7502 69.133 44.72C69.1765 44.6898 69.2255 44.6684 69.2773 44.657C69.381 44.6235 71.9278 44.0967 74.0023 45.5324C75.3212 46.4474 76.1358 47.9374 76.4287 49.9633C76.4365 50.0164 76.4336 50.0705 76.4202 50.1225C76.4068 50.1745 76.383 50.2232 76.3504 50.2659C76.3177 50.3087 76.2769 50.3444 76.2302 50.3711C76.1835 50.3979 76.1319 50.415 76.0786 50.4215L76.0703 50.4267Z" fill="#F78989"/>
<path d="M74.0704 46.4607C73.9966 46.4689 73.922 46.4568 73.8548 46.4256C73.7875 46.3944 73.7302 46.3454 73.689 46.2839C73.6478 46.2224 73.6244 46.1507 73.6213 46.0768C73.6181 46.0028 73.6354 45.9294 73.6712 45.8645C74.8706 43.7019 77.9342 44.4135 78.0529 44.4497C78.1066 44.4601 78.1577 44.4814 78.2029 44.5121C78.2481 44.5428 78.2866 44.5823 78.3161 44.6283C78.3455 44.6743 78.3653 44.7258 78.3743 44.7797C78.3832 44.8335 78.3811 44.8887 78.3681 44.9418C78.3551 44.9948 78.3314 45.0448 78.2985 45.0885C78.2656 45.1322 78.2242 45.1689 78.1768 45.1962C78.1294 45.2236 78.0769 45.2411 78.0225 45.2476C77.9681 45.2542 77.913 45.2497 77.8605 45.2344C77.8358 45.2274 75.2783 44.633 74.3781 46.257C74.3465 46.3127 74.3021 46.3601 74.2486 46.3955C74.1951 46.4309 74.1341 46.4532 74.0704 46.4607Z" fill="#F78989"/>
<path d="M64.6249 62.3428C64.3058 62.3879 63.981 62.3675 63.6703 62.2829C63.3596 62.1984 63.0695 62.0515 62.8179 61.8512C61.8469 61.0722 61.5447 59.5807 62.0269 57.8582C62.5564 55.9193 64.1949 55.3183 65.7942 54.7348C66.9537 54.3083 68.1523 53.8716 69.0601 52.9354C71.054 50.8514 69.1682 48.2797 69.0862 48.1721C69.0455 48.1319 69.0138 48.0835 68.9933 48.0302C68.9727 47.9769 68.9637 47.9198 68.9669 47.8627C68.9701 47.8056 68.9854 47.7499 69.0118 47.6991C69.0382 47.6483 69.0751 47.6037 69.12 47.5681C69.1649 47.5325 69.2169 47.5069 69.2724 47.4928C69.328 47.4788 69.3859 47.4766 69.4423 47.4865C69.4987 47.4965 69.5523 47.5182 69.5996 47.5503C69.647 47.5825 69.6869 47.6243 69.7168 47.673C69.7397 47.7053 72.0993 50.8963 69.6261 53.4777C68.5902 54.5571 67.2457 55.0508 66.0561 55.4845C64.5312 56.044 63.2108 56.5274 62.7904 58.0636C62.4136 59.4416 62.6281 60.6461 63.3106 61.2178C63.8552 61.6553 64.6424 61.6568 65.4739 61.2245C66.0714 60.9193 66.5859 60.4739 66.9731 59.9268C67.3603 59.3796 67.6086 58.747 67.6967 58.0833C67.7094 57.9798 67.7616 57.8851 67.8424 57.819C67.9233 57.7529 68.0266 57.7205 68.1307 57.7285C68.2349 57.7365 68.3318 57.7844 68.4013 57.8621C68.4708 57.9399 68.5075 58.0414 68.5036 58.1456C68.4031 58.9457 68.1083 59.7096 67.6448 60.3707C67.1813 61.0319 66.5631 61.5703 65.8441 61.9392C65.4655 62.1465 65.0523 62.2833 64.6249 62.3428Z" fill="#F78989"/>
<path d="M74.0281 55.22C73.1684 55.346 72.2908 55.2313 71.4933 54.8888C71.0222 54.6724 70.5998 54.3633 70.2514 53.98C69.9031 53.5967 69.6359 53.1471 69.466 52.6582C69.4439 52.5586 69.4605 52.4542 69.5123 52.3662C69.5641 52.2781 69.6474 52.2128 69.7454 52.1834C69.8434 52.1539 69.9488 52.1625 70.0406 52.2075C70.1323 52.2524 70.2036 52.3303 70.24 52.4256C70.5227 53.1926 71.0983 53.8164 71.841 54.1607C73.0087 54.6925 74.5944 54.5132 76.5266 53.641C76.5755 53.6147 76.6292 53.5988 76.6845 53.5941C76.7398 53.5893 76.7954 53.596 76.848 53.6136C76.9005 53.6313 76.9489 53.6595 76.99 53.6966C77.0312 53.7336 77.0642 53.7788 77.0872 53.8291C77.1101 53.8795 77.1224 53.934 77.1233 53.9894C77.1242 54.0447 77.1137 54.0997 77.0925 54.1508C77.0712 54.202 77.0397 54.2483 76.9998 54.2869C76.9599 54.3254 76.9125 54.3554 76.8606 54.3749C75.9652 54.7997 75.0099 55.0847 74.0281 55.22Z" fill="#F78989"/>
<path d="M61.296 68.4606C61.2012 68.4717 61.1056 68.4489 61.0262 68.3963C57.3677 65.9648 59.3928 61.4846 59.4121 61.4287C59.4621 61.3396 59.5439 61.2726 59.6413 61.2411C59.7386 61.2097 59.8442 61.2161 59.9368 61.2591C60.0295 61.302 60.1024 61.3784 60.1408 61.4729C60.1793 61.5673 60.1805 61.6729 60.1443 61.7683C60.0707 61.9262 58.3859 65.6708 61.4693 67.7169C61.5383 67.7622 61.5915 67.8276 61.6219 67.9043C61.6522 67.981 61.6582 68.0651 61.6389 68.1453C61.6197 68.2256 61.5762 68.298 61.5143 68.3528C61.4525 68.4076 61.3752 68.4421 61.2931 68.4516L61.296 68.4606Z" fill="#F78989"/>
<path d="M56.2696 62.8681L56.2245 62.8827C56.1714 62.8826 56.1189 62.8722 56.07 62.8518C56.021 62.8315 55.9766 62.8017 55.9392 62.7641C55.9019 62.7266 55.8724 62.682 55.8524 62.633C55.8324 62.584 55.8223 62.5315 55.8227 62.4786C55.8287 60.8081 56.351 59.5568 57.3594 58.7545C59.2859 57.2485 62.2762 57.9739 62.401 58.0056C62.4992 58.0365 62.5818 58.1036 62.6321 58.1932C62.6824 58.2828 62.6965 58.3883 62.6716 58.488C62.6467 58.5878 62.5847 58.6745 62.4981 58.7303C62.4116 58.7862 62.307 58.8071 62.2056 58.7887C62.1787 58.7825 59.479 58.1322 57.8629 59.389C57.0473 60.0247 56.6321 61.0601 56.6175 62.4727C56.6162 62.5691 56.5805 62.6619 56.5167 62.7344C56.4529 62.807 56.3652 62.8544 56.2696 62.8681Z" fill="#F78989"/>
<path d="M51.7625 58.6848C49.3625 58.9631 47.3227 56.5777 47.2339 56.4723C47.1652 56.3904 47.1319 56.2846 47.1415 56.1781C47.151 56.0717 47.2025 55.9733 47.2847 55.9046C47.3668 55.8359 47.4729 55.8026 47.5796 55.8119C47.6863 55.8213 47.7848 55.8725 47.8535 55.9544C47.8622 55.9813 49.823 58.2533 51.8602 57.8537C53.3374 57.563 54.5593 55.9567 55.494 53.0751C55.5307 52.9776 55.6035 52.8979 55.6975 52.8526C55.7914 52.8072 55.8992 52.7998 55.9984 52.8317C56.0976 52.8637 56.1805 52.9326 56.23 53.0242C56.2794 53.1157 56.2915 53.2228 56.2638 53.3231C55.2279 56.5006 53.7996 58.2927 52.0169 58.6399C51.9276 58.6563 51.845 58.6706 51.7625 58.6848Z" fill="#F78989"/>
<path d="M56.2119 67.1007C56.1908 67.104 56.1695 67.1051 56.1482 67.1039C53.9831 67.0233 52.4196 66.2991 51.4985 64.9577C49.7015 62.3299 51.057 58.344 51.1187 58.1726C51.1538 58.0717 51.2276 57.9888 51.3239 57.9421C51.4202 57.8954 51.5311 57.8887 51.6322 57.9236C51.7333 57.9584 51.8163 58.032 51.8629 58.128C51.9095 58.224 51.916 58.3346 51.8809 58.4355C51.8685 58.4742 50.6107 62.2151 52.1685 64.503C52.9383 65.6226 54.2888 66.2269 56.1843 66.2977C56.2881 66.298 56.3878 66.3384 56.4624 66.4104C56.537 66.4823 56.5808 66.5803 56.5846 66.6838C56.5885 66.7874 56.5521 66.8885 56.4831 66.966C56.414 67.0436 56.3177 67.0916 56.2142 67.1L56.2119 67.1007Z" fill="#F78989"/>
<path d="M45.8003 67.148C45.7127 67.1586 45.6241 67.1402 45.5481 67.0956C45.4721 67.0511 45.4129 66.9829 45.3796 66.9014C45.3226 66.7634 44.0322 63.5449 45.5326 61.9754C46.5179 60.9471 48.4084 60.9177 51.1575 61.8972C51.2077 61.9146 51.2539 61.9419 51.2933 61.9773C51.3328 62.0127 51.3648 62.0556 51.3875 62.1036C51.4101 62.1515 51.423 62.2034 51.4253 62.2564C51.4276 62.3094 51.4193 62.3623 51.4009 62.4121C51.3644 62.5124 51.2896 62.5944 51.1928 62.6401C51.0961 62.6857 50.9852 62.6914 50.8844 62.6558C48.5003 61.8117 46.8623 61.767 46.1149 62.5372C45.1591 63.5262 45.7925 65.8047 46.1207 66.5976C46.1439 66.6544 46.1537 66.7158 46.1494 66.7771C46.1451 66.8384 46.1268 66.8979 46.0958 66.951C46.0649 67.0042 46.0222 67.0495 45.9709 67.0837C45.9197 67.1178 45.8613 67.1398 45.8003 67.148Z" fill="#F78989"/>
<path d="M53.4288 71.3066C53.3312 71.3179 53.2329 71.2934 53.1521 71.2377C53.0714 71.182 53.0138 71.0989 52.9899 71.0039C52.4006 68.6615 53.073 66.2469 53.1003 66.1462C53.1351 66.05 53.2051 65.9704 53.2963 65.9236C53.3875 65.8768 53.493 65.8661 53.5916 65.8938C53.6902 65.9214 53.7745 65.9854 53.8277 66.0727C53.8808 66.16 53.8987 66.2643 53.8779 66.3644C53.8724 66.386 53.2373 68.6768 53.7734 70.808C53.7976 70.9109 53.7803 71.0192 53.7251 71.1095C53.6699 71.1999 53.5813 71.2649 53.4784 71.2906L53.4288 71.3066Z" fill="#F78989"/>
</g>
<path d="M11.9572 20.2578L11.2211 21.4824C9.86354 20.8015 8.6 20.5642 7.43054 20.7704C6.66116 20.9061 6.03206 21.2074 5.54322 21.6744C5.05438 22.1413 4.70991 22.6622 4.50979 23.2369C4.32507 23.809 4.21862 24.51 4.19044 25.34C4.17765 26.1673 4.19973 26.8773 4.25667 27.4702C4.329 28.0604 4.43435 28.7478 4.57273 29.5326C4.70839 30.302 5.00153 31.1546 5.45216 32.0906C5.91546 33.0085 6.56025 33.8309 7.38654 34.5578C8.21282 35.2848 9.0722 35.5695 9.96469 35.4122C10.9341 35.2412 12.3295 34.4716 14.1508 33.1033C14.4024 33.3604 14.7494 33.799 15.192 34.4191C13.4892 36.0997 11.8761 37.0743 10.3527 37.3429C9.36791 37.5165 8.41483 37.3752 7.49347 36.9189C6.5721 36.4626 5.79152 35.8148 5.15171 34.9757C4.52728 34.1338 3.9961 33.2359 3.55815 32.2818C3.13287 31.3096 2.84019 30.3696 2.68011 29.4617C2.50375 28.4615 2.40975 27.4785 2.39812 26.5128C2.38377 25.5316 2.47714 24.5314 2.67822 23.5123C2.8793 22.4931 3.29759 21.6261 3.9331 20.9111C4.58399 20.1934 5.42492 19.7437 6.45589 19.5619C7.34837 19.4045 8.29876 19.3956 9.30706 19.5352C10.3154 19.6747 11.1987 19.9156 11.9572 20.2578ZM28.4926 33.4303L29.0288 34.3116C28.3337 34.4183 27.5711 34.3227 26.7411 34.0248C25.9112 33.7269 25.1084 33.3131 24.3328 32.7835C23.5698 32.2358 22.8684 31.6772 22.2286 31.1078C21.6014 30.5203 21.0462 29.9359 20.5629 29.3548L18.7028 29.4686C18.9317 30.5864 19.3012 32.3221 19.8114 34.6755C19.757 35.1769 19.5298 35.4629 19.1297 35.5335C18.8527 35.5823 18.5631 35.5144 18.2608 35.3297C17.9766 35.1577 17.7752 34.9155 17.6567 34.6032C17.4749 33.3025 17.0775 30.7785 16.4643 27.0312C15.8666 23.2811 15.4334 20.3747 15.1649 18.3119L16.1547 17.8518C16.2415 18.3442 16.2981 18.6198 16.3243 18.6786C17.0983 17.9392 18.2777 17.4298 19.8627 17.1503C21.5707 16.8492 22.9428 17.1625 23.9791 18.0904C25.0126 19.003 25.699 20.4209 26.0381 22.3444C26.1629 23.0522 26.199 23.7519 26.1464 24.4434C26.0911 25.1195 25.9444 25.7721 25.7063 26.4011C25.4835 27.0275 25.1123 27.5768 24.5927 28.0492C24.0731 28.5216 23.4417 28.8551 22.6986 29.0496C23.4352 30.0779 24.3511 31.0429 25.4462 31.9446C26.5413 32.8463 27.5568 33.3415 28.4926 33.4303ZM16.8047 20.1884L18.2592 27.3573C19.1869 27.6697 20.2047 27.7282 21.3126 27.5329C22.3744 27.3456 23.204 26.7868 23.8015 25.8564C24.399 24.9261 24.596 23.8838 24.3925 22.7298C24.1728 21.4834 23.59 20.4279 22.6443 19.5634C21.6985 18.6988 20.6486 18.3683 19.4945 18.5718C18.5559 18.7373 17.6593 19.2762 16.8047 20.1884ZM39.7666 29.9907L40.1806 30.9887C39.5805 31.0945 38.492 31.3102 36.9152 31.6358C35.3566 31.9741 34.2233 32.2057 33.5155 32.3305C32.3768 32.5313 31.5902 32.6144 31.1558 32.58C31.0112 30.8602 30.6043 28.0126 29.935 24.0372C29.2658 20.0617 28.8774 17.2743 28.7699 15.6749C29.3012 15.6289 30.6929 15.4231 32.9449 15.0578C35.2123 14.6897 36.7018 14.4985 37.4132 14.4841L37.8502 15.478C37.1795 15.7232 35.8204 16.1136 33.7729 16.6491C31.7254 17.1847 30.6492 17.4696 30.5442 17.504C30.622 17.8552 30.7803 18.573 31.0191 19.6574C31.2733 20.7391 31.4705 21.6324 31.6107 22.3376C32.1447 22.3069 33.115 22.231 34.5216 22.1099C35.9255 21.9734 36.8148 21.888 37.1895 21.8536L37.6075 22.8747C34.4123 23.7396 32.5391 24.2285 31.9878 24.3416C32.1072 25.0186 32.2736 26.0523 32.487 27.4426C32.7131 28.8148 32.8831 29.8241 32.9971 30.4704C36.5778 30.1722 38.8343 30.0123 39.7666 29.9907ZM44.6206 12.9514L46.3951 12.7575C47.1624 14.5896 48.5234 17.1341 50.478 20.3911C52.43 23.6326 53.7733 26.0771 54.508 27.7246C54.5867 28.1708 54.5681 28.5152 54.4522 28.7578C54.339 29.0157 54.167 29.165 53.9362 29.2057C53.7362 29.241 53.5289 29.1903 53.3144 29.0536C53.118 28.9296 52.9633 28.7268 52.8502 28.4453C52.5923 27.7926 51.9073 26.5172 50.7951 24.619C47.5548 24.7779 45.5186 24.883 44.6868 24.9345C44.5845 25.5237 44.497 26.4673 44.4244 27.7653C44.3518 29.0632 44.2729 29.9656 44.1878 30.4725C44.0058 30.7901 43.7686 30.9748 43.4763 31.0263C43.1531 31.0833 42.8504 30.9859 42.568 30.7343C42.2884 30.498 42.1119 30.1721 42.0386 29.7567C42.2136 27.8695 42.6394 25.0655 43.316 21.3445C43.9927 17.6236 44.4276 14.8259 44.6206 12.9514ZM45.8395 15.1402C45.8601 17.0564 45.4877 19.9383 44.7223 23.7859L47.3074 23.3301C48.4769 23.1239 49.4608 22.99 50.2591 22.9286C48.0745 19.8074 46.6013 17.2113 45.8395 15.1402ZM51.1462 13.0859L50.7323 12.088L59.4598 10.0255C59.8472 9.97305 60.1948 10.0546 60.5025 10.27C60.8102 10.4855 60.9912 10.7471 61.0455 11.0549C61.0808 11.2549 61.035 11.4454 60.9083 11.6264C60.7815 11.8074 60.567 11.9405 60.2647 12.0255L56.3504 12.5015C57.6928 17.8655 58.8485 22.7547 59.8172 27.1692C59.7602 27.6552 59.5393 27.9322 59.1546 28C58.8776 28.0489 58.588 27.9809 58.2857 27.7962C57.9861 27.6269 57.777 27.3861 57.6585 27.0739C57.5428 26.2375 57.3357 24.973 57.0372 23.2804C56.926 22.6495 56.7514 21.7045 56.5135 20.4454C56.2911 19.1836 56.1242 18.2373 56.0129 17.6064C55.6901 15.7753 55.4292 14.1157 55.2302 12.6276C53.4697 12.8111 52.1084 12.9639 51.1462 13.0859ZM65.5731 26.5827L65.3276 25.4598C66.7025 24.9794 67.5579 24.7016 67.8937 24.6265C67.8169 24.1006 67.6862 23.3145 67.5017 22.2682C67.2575 20.8833 66.8753 18.896 66.3553 16.3064C65.8325 13.7013 65.4887 11.977 65.3241 11.1334L62.9726 11.429L62.5749 10.1188C63.2085 10.0229 64.187 9.85834 65.5103 9.625C66.8645 9.38624 67.8737 9.21621 68.5381 9.11493L68.8108 10.2568C68.5682 10.4106 68.2111 10.545 67.7395 10.6599C67.2652 10.7594 66.9679 10.8277 66.8475 10.8648C66.9696 11.2875 67.184 12.3682 67.4906 14.107C67.8126 15.8431 68.1594 17.7652 68.5311 19.8733C68.9029 21.9814 69.1828 23.479 69.3709 24.3661C69.6253 24.3688 70.1041 24.3399 70.8074 24.2794C71.5107 24.2188 71.9497 24.189 72.1244 24.1899L72.2898 25.3983C71.8255 25.4643 71.0932 25.5855 70.093 25.7619C69.5699 25.8541 68.7928 25.9912 67.7618 26.1729C66.7336 26.3701 66.004 26.5067 65.5731 26.5827ZM79.5539 6.91075L80.951 6.7358C80.9411 6.76929 80.7791 9.36021 80.4652 14.5086C80.1514 19.6569 79.8767 22.823 79.6412 24.0069C79.4927 24.0648 79.3415 24.1073 79.1877 24.1345C78.7568 24.2104 78.2626 24.242 77.705 24.2293C77.3521 23.5775 76.916 22.6787 76.3966 21.5327C75.8926 20.384 75.3502 19.1073 74.7693 17.7024C74.1884 16.2976 73.6758 15.0552 73.2315 13.9753C72.7999 12.8773 72.3394 11.7051 71.8499 10.4587C71.3604 9.21226 71.0894 8.53021 71.0369 8.41253L72.3525 8.18055C73.4673 10.9033 75.3756 15.2473 78.0775 21.2125C78.9223 12.1468 79.4145 7.37959 79.5539 6.91075ZM85.6171 23.0484L85.3715 21.9255C86.7464 21.4451 87.6018 21.1673 87.9376 21.0923C87.8608 20.5664 87.7301 19.7802 87.5456 18.7339C87.3014 17.349 86.9193 15.3617 86.3992 12.7721C85.8764 10.167 85.5327 8.4427 85.368 7.5991L83.0165 7.89475L82.6188 6.58451C83.2525 6.48866 84.2309 6.32406 85.5543 6.09072C86.9084 5.85195 87.9176 5.68193 88.582 5.58065L88.8547 6.72251C88.6121 6.87635 88.255 7.01071 87.7835 7.1256C87.3091 7.22509 87.0118 7.29339 86.8914 7.33048C87.0136 7.7532 87.2279 8.83396 87.5345 10.5728C87.8565 12.3088 88.2033 14.2309 88.5751 16.339C88.9468 18.4471 89.2267 19.9447 89.4149 20.8318C89.6692 20.8345 90.148 20.8056 90.8513 20.7451C91.5546 20.6845 91.9936 20.6547 92.1683 20.6557L92.3338 21.864C91.8694 21.9301 91.1372 22.0512 90.137 22.2276C89.6138 22.3198 88.8367 22.4569 87.8057 22.6387C86.7775 22.8358 86.0479 22.9724 85.6171 23.0484ZM91.511 5.96854L91.0971 4.97058L99.8246 2.90809C100.212 2.85565 100.56 2.93716 100.867 3.15262C101.175 3.36809 101.356 3.62969 101.41 3.93745C101.446 4.13749 101.4 4.32801 101.273 4.50902C101.146 4.69003 100.932 4.82305 100.629 4.90809L96.7152 5.3841C98.0576 10.7481 99.2133 15.6373 100.182 20.0518C100.125 20.5378 99.9041 20.8148 99.5194 20.8826C99.2424 20.9315 98.9528 20.8635 98.6505 20.6788C98.3509 20.5095 98.1418 20.2687 98.0233 19.9565C97.9076 19.1201 97.7005 17.8556 97.402 16.163C97.2908 15.5321 97.1162 14.5871 96.8783 13.328C96.6559 12.0662 96.489 11.1199 96.3778 10.489C96.0549 8.65787 95.794 6.99827 95.5951 5.51021C93.8345 5.69371 92.4732 5.84648 91.511 5.96854ZM111.385 1.2267L112.724 1.39524C112.631 1.68125 112.415 2.4809 112.076 3.7942C111.749 5.0894 111.375 6.43256 110.954 7.82369C110.532 9.21482 110.1 10.4494 109.655 11.5273C109.85 12.2705 110.094 13.4331 110.389 15.0153C110.684 16.5976 110.916 17.7308 111.084 18.4151C110.951 18.4703 110.6 18.5481 110.03 18.6485C109.492 18.7435 109.166 18.785 109.053 18.7733C108.982 18.1035 108.813 16.967 108.547 15.364C108.293 13.7429 108.131 12.5576 108.062 11.8081C107.068 10.6666 105.891 9.0336 104.533 6.90907C103.19 4.78182 102.34 3.47198 101.984 2.97953L103.51 2.59145L108.541 9.79609C108.731 9.25485 109.146 7.92029 109.786 5.79241C110.442 3.66182 110.975 2.13992 111.385 1.2267Z" fill="black"/>
<defs>
<clipPath id="clip0">
<rect width="45.9743" height="39.0132" fill="white" transform="matrix(0.951622 -0.307272 0.307189 0.951649 33.9277 46.5662)"/>
</clipPath>
</defs>
</svg>
