<svg width="44" height="31" fill="none" xmlns="http://www.w3.org/2000/svg"><path d="M41.953 0H1.145C.538 0 .047.492.047 1.098v28.474c0 .606.491 1.098 1.098 1.098h40.808c.607 0 1.098-.492 1.098-1.098V1.098C43.051.492 42.56 0 41.953 0z" fill="url(#paint0_linear)"/><path d="M10.844 13c.156 0 .291.057.406.172a.574.574 0 01.172.422v7.89a.555.555 0 01-.172.407.555.555 0 01-.406.172.555.555 0 01-.406-.172.555.555 0 01-.172-.407v-3.39h-4.86v3.39a.555.555 0 01-.172.407.574.574 0 01-.421.172.555.555 0 01-.407-.172.555.555 0 01-.172-.407v-7.89c0-.156.058-.292.172-.406A.534.534 0 014.813 13c.156 0 .291.057.406.172a.55.55 0 01.187.422V17h4.86v-3.406c0-.156.057-.292.171-.406a.534.534 0 01.407-.188zm8.906.063c.156 0 .287.057.39.171a.51.51 0 01.157.375.565.565 0 01-.156.391.53.53 0 01-.391.156h-2.61v7.328a.556.556 0 01-.171.407.524.524 0 01-.407.172.555.555 0 01-.406-.172.556.556 0 01-.172-.407v-7.328h-2.609a.565.565 0 01-.39-.156.53.53 0 01-.157-.39c0-.146.052-.271.156-.376a.506.506 0 01.391-.171h6.375zm11-.063c.24 0 .438.083.594.25.166.167.25.365.25.594v7.64a.555.555 0 01-.172.407.555.555 0 01-.406.172.555.555 0 01-.407-.172.555.555 0 01-.172-.407V14.22l-2.967 7.31a.873.873 0 01-.313.39.904.904 0 01-.5.142.905.905 0 01-.5-.141.864.864 0 01-.328-.39l-2.953-7.313v7.265a.555.555 0 01-.172.407.574.574 0 01-.422.172.555.555 0 01-.406-.172.555.555 0 01-.172-.407v-7.64a.83.83 0 01.844-.844h.422c.166 0 .317.052.453.156.146.104.255.23.328.375l2.906 7.25 2.907-7.25a.934.934 0 01.296-.375.815.815 0 01.485-.156h.406zm8.672 7.844c.167 0 .302.057.406.172.115.104.172.24.172.406a.555.555 0 01-.172.406.523.523 0 01-.406.172h-4.547a.785.785 0 01-.578-.234.785.785 0 01-.234-.578v-7.594c0-.156.057-.292.171-.406a.534.534 0 01.407-.188c.156 0 .291.057.406.172a.55.55 0 01.187.422v7.25h4.188zm3.967-16.289c0 .072-9.708.136-21.679.136C9.738 4.691.031 4.627.031 4.555c0-.073 9.707-.137 21.679-.137 11.971 0 21.679.088 21.679.137zM8.927 3.033c.432 0 .782-.307.782-.685 0-.378-.35-.685-.782-.685-.432 0-.782.307-.782.685 0 .378.35.685.782.685zm-3.225 0c.432 0 .782-.307.782-.685 0-.378-.35-.685-.782-.685-.432 0-.782.307-.782.685 0 .378.35.685.782.685zm-3.225 0c.432 0 .782-.307.782-.685 0-.378-.35-.685-.782-.685-.432 0-.782.307-.782.685 0 .378.35.685.782.685z" fill="#fff"/><defs><linearGradient id="paint0_linear" x1="41.725" y1="15.335" x2="1.337" y2="14.119" gradientUnits="userSpaceOnUse"><stop stop-color="#A62E41"/><stop offset="1" stop-color="#E13152"/></linearGradient></defs></svg>