<svg width="92" height="120" fill="none" xmlns="http://www.w3.org/2000/svg"><path d="M61.901 57.32h-31.85l-.764-14.37h33.376l-.762 14.37z" fill="#C51C2B"/><path opacity=".55" d="M61.901 57.32h-31.85l-.764-14.37h33.376l-.762 14.37z" fill="#831C2B"/><path opacity=".55" d="M29.287 42.95l.763 14.37h31.851l.762-14.37H29.287zM56.4 54.545c-3.804.605-7.429.357-11.24.423-3.4.06-6.658.247-10.02-.499-4.96-1.1-3.191-8.195 1.88-7.04 3.117.708 6.297.187 9.456.27 2.679.07 5.37.242 8.035-.193 5.089-.83 6.897 6.24 1.889 7.039z" fill="#831C2B"/><path opacity=".32" d="M31.206 46.2s-.834 5.396.448 9.431c0 0 1.291-6.376-.448-9.432zm3.058 9.432s.89-5.254-.366-9.432c0 0-1.325 6.502.366 9.432zm1.461-9.432s-.911 5.397.31 9.432c0 0 1.386-6.375-.31-9.432zm2.923 9.432s.967-5.253-.228-9.432c0 0-1.42 6.503.228 9.432zm1.596-9.432s-.99 5.396.174 9.432c0 0 1.478-6.376-.174-9.432zm2.786 9.432s1.044-5.253-.09-9.432c0 0-1.514 6.503.09 9.432zm1.733-9.432s-1.068 5.396.036 9.432c0 0 1.571-6.376-.036-9.432zm2.651 9.432s1.118-5.253.044-9.432c0 0-1.608 6.503-.044 9.432zm1.873-9.432s-1.147 5.397-.1 9.432c.001 0 1.663-6.375.1-9.432zm2.511 9.432s1.195-5.253.182-9.432c0 0-1.703 6.503-.182 9.432zm2.009-9.432s-1.224 5.397-.236 9.432c0 0 1.754-6.375.236-9.432zm2.375 9.432s1.272-5.253.32-9.432c0 0-1.797 6.503-.32 9.432zM58.33 46.2s-1.304 5.397-.375 9.432c0 0 1.847-6.375.375-9.432zm2.235 9.432s1.348-5.253.456-9.432c.001 0-1.891 6.503-.456 9.432z" fill="#C51C2B"/><path d="M62.97 17.142h-3.68c-1.8 1.863-9.805 7.668-12.459 9.576a1.475 1.475 0 01-1.715 0c-2.653-1.908-10.659-7.714-12.459-9.576h-3.68s-6.713 13.044-6.605 16.102c.11 3.057 5.413 11.617 9.419 11.617h28.363c4.006 0 9.31-8.56 9.418-11.617.11-3.058-6.601-16.102-6.601-16.102z" fill="#C51C2B"/><path opacity=".55" d="M45.028 28.511a1.472 1.472 0 001.898 0c2.745-2.34 10.65-9.103 12.995-11.37h-.63c-1.799 1.864-9.804 7.669-12.458 9.577a1.475 1.475 0 01-1.715 0c-2.654-1.908-10.66-7.714-12.46-9.576h-.629c2.35 2.266 10.252 9.029 12.998 11.369z" fill="#C51C2B"/><path opacity=".55" d="M34.545 44.861c6.1-2.38 10.01-1.912 16.437-1.363 2.3.198 4.448.742 6.567 1.363h2.609c4.005 0 9.31-8.56 9.417-11.617.109-3.058-6.603-16.102-6.603-16.102h-1.59c.447.945 3.382 7.7 3.528 8.358 2.244 4.995 2.557 9.812-3.062 12.911-4.757 2.622-11.567.165-14.827-3.633a27.802 27.802 0 01-1.31-1.65c-2.47 3.793-6.384 6.646-11.52 6.593-6.53-.067-11.193-5.59-8.821-11.652 1.416-3.62 3.207-7.37 5.067-10.927h-1.458s-6.713 13.044-6.605 16.102c.109 3.057 5.413 11.617 9.419 11.617h2.752z" fill="#831C2B"/><path d="M66.675 1.01l-7.728 16.467s2.204 1.958 5.132 1.869c0 0 11.927-11.906 11.602-12.747-.324-.84-8.686-6.278-9.006-5.588zM25.533.565l7.297 16.912s-2.204 1.958-5.131 1.868c0 0-10.657-13.812-10.332-14.652.325-.841 7.846-4.817 8.166-4.128z" fill="#C51C2B"/><path opacity=".55" d="M65.076 14.332c-1.68 1.782-3.688 2.23-5.52 1.834l-.609 1.311s2.204 1.958 5.132 1.87c0 0 11.927-11.906 11.602-12.747-.129-.336-1.726-1.497-3.654-2.819-1.922 3.697-4.013 7.44-6.95 10.551zm-32.591 2.404c-.17-.028-.338-.045-.51-.083-3.013-.662-5.767-2.631-7.373-5.115-1.786-2.76-3.57-5.521-4.654-8.514-1.37.673-2.455 1.339-2.581 1.668-.325.84 10.332 14.653 10.332 14.653 1.83.056 3.376-.688 4.279-1.254.542-.34.852-.615.852-.615l-.345-.74z" fill="#831C2B"/><path d="M73.581 73.601C65.786 56.786 61.97 56.634 61.97 56.634H29.978s-3.815.152-11.61 16.967C10.573 90.417.018 110.137.018 110.137s6.225 5.859 12.828 5.146c6.604-.714 1.192 1.222 5.522 2.039 4.33.815 11.15 2.728 15.697-1.083 4.546-3.811-1.298 3.324 11.91 3.324 13.207 0 7.36-7.134 11.908-3.324 4.548 3.81 11.368 1.897 15.698 1.083 4.33-.817-1.082-2.753 5.521-2.039 6.605.713 12.83-5.146 12.83-5.146s-10.555-19.72-18.35-36.536z" fill="#C51C2B"/><path opacity=".32" d="M28.73 60.27c4.69-2.714 9.53-2.72 16.854-2.274 6.184.377 12.253-.72 17.753 2.153 5.279 2.76 6.366 10.304 10.472 13.942l-.228-.49C65.786 56.786 61.97 56.634 61.97 56.634H29.978s-3.626.152-11.025 15.724c1.713-1.548 7.867-10.982 9.777-12.087z" fill="#C51C2B"/><path opacity=".32" d="M83.458 93.822c-4.692 2.428-10.608 3.246-15.363 1.467-2.855 1.389-5.782 2.022-9.337 1.478a23.558 23.558 0 01-3.832-.929c-5.116 2.516-12.576 2.727-17.577.057-3.834 1.538-7.832 2.057-11.985-.142a24.202 24.202 0 01-4.146-2.768c-3.048 1.758-6.43 2.764-10.37 2.385a28.993 28.993 0 01-2.917-.443C3.496 103.638.02 110.135.02 110.135s6.225 5.859 12.828 5.146c6.604-.714 1.192 1.222 5.522 2.038 4.33.816 11.15 2.729 15.697-1.082 4.546-3.811-1.298 3.324 11.91 3.324 13.207 0 7.36-7.134 11.908-3.324 4.548 3.81 11.368 1.897 15.698 1.082 4.33-.816-1.082-2.752 5.521-2.038 6.605.713 12.83-5.146 12.83-5.146s-3.778-7.054-8.476-16.313z" fill="#751C2B"/><path opacity=".32" d="M72.11 97.238c-1.869-5.42-3.203-12.4-6.47-17.217-.672-.991-1.257-1.802-1.747-2.566.008.091.023.179.028.273.226 4.312 1.968 7.53 3.703 11.432 1.358 3.057 1.625 6.256 2.398 9.471 1.48 6.161 3.392 12.247 4.335 18.498 2.833-.888-1.387-2.509 4.746-1.846.619.067 1.233.061 1.84.022-4.533-5.007-6.766-12.074-8.833-18.067zm-15.582 2.351c-.685-5.109-2.591-9.86-3.121-15.024-.372-3.627-1.785-6.867-2.79-10.25h-.08c-1.614 8.4 2.963 17.306 4.063 25.438.601 4.437-.03 8.695-.264 13.135-.079 1.519-.027 3.077-.005 4.633 1.932-1.759.702-3.668 3.551-1.281 1.184.992 2.523 1.589 3.93 1.927-3.23-5.637-4.551-13.113-5.284-18.578zM38.92 94.774c.272-6.479-.018-12.911-.405-19.35-.083.119-.145.236-.233.356-1.746 2.364-1.805 5.106-2.5 7.837-1.257 4.93-.944 10.162-1.238 15.214-.31 5.342-.427 13.624-3.718 19.139 1.155-.357 2.255-.902 3.243-1.731 2.978-2.495 1.5-.299 3.831 1.516-1.792-7.332.708-15.551 1.02-22.98zm-21.175 13.011c1.656-2.515 1.113-5.411 1.517-8.273.304-2.166 1.06-4.136 1.329-6.307.712-5.743 3.59-11.85 7.161-17.222-1.89.642-3.655 1.418-4.79 2.706-2.784 3.154-3.185 7.22-4.13 11.103-1.9 7.793-2.28 17.111-5.734 24.423a9.111 9.111 0 01-.606 1.085c.118-.009.237-.005.356-.018 5.486-.592 2.695.643 4.07 1.544-1.116-2.942-1.115-6.09.827-9.041z" fill="#7E1344"/><path opacity=".55" d="M16.962 105.397c-1 4.879-2.202 7.921-3.35 9.814 5.212-.457.897 1.229 4.458 2.04-.553-12.12 10.584-41 10.584-41-5.955-.306-8.769 14.878-11.692 29.146zm21.542-30.063s-2.598 10.803-2.707 20.688c-.084 7.65-1.629 16.444-3.791 21.501a8.981 8.981 0 002.058-1.283c4.01-3.359-.054 1.788 7.984 3.052-1.61-1.843-3.445-4.932-3.003-9.207.757-7.338 1.733-32.713-.541-34.751zm18.081 30.877c-.757-9.375-3.571-17.426-4.114-22.114-.542-4.688-1.949-9.733-1.949-9.733s-1.261 9.061 1.516 18.293c2.172 7.22 1.573 20.358-.51 26.287 5.846-1.646 2.65-5.811 6.356-2.706.58.486 1.197.876 1.84 1.19-1.295-2.524-2.744-6.323-3.139-11.217zm14.291-8.031c-1.732-8.17-4.548-14.783-7.47-21.108 0 0-.76 9.065 2.813 16.911 3.195 7.017 6.376 18.012 5.235 23.76.754-.15 1.472-.298 2.127-.422 4.33-.816-1.082-2.753 5.521-2.039.042.005.084.002.127.007-2.165-3.184-7.02-10.817-8.353-17.11zM33.335 56.632h-.32c-1.397 2.154-5.695 8.946-5.874 11.26-.001 0 5.35-8.415 6.194-11.26zm3.077.001h-.39c-.798 1.318-2.46 4.443-3.03 8.364.001 0 3.008-5.902 3.42-8.364zm2.978 8.364s1.16-5.835 1.062-8.364h-.227c-.35 1.57-1.139 5.555-.834 8.364zm4.913-8.413l-.024.049h.033a.266.266 0 00-.01-.049zm-.646 5.537s1.011-4.052.66-5.488h-.034c-.125.246-1.198 2.491-.626 5.488zm4.816-5.537l-.004.048h.033c-.01-.015-.019-.036-.029-.048zm.605 7.784s.413-6.393-.575-7.735h-.034c-.043.486-.411 5.032.61 7.735zm4.295-7.735h-.338c.316 1.884 1.317 7.212 2.895 9.71 0 0-.615-6.38-2.557-9.71zm5.027 0h-.533c.428 2.036 1.704 6.762 4.796 9.71 0 0-2.6-6.912-4.264-9.71z" fill="#831C2B"/></svg>