<svg width="200" height="97" fill="none" xmlns="http://www.w3.org/2000/svg"><path d="M72.57 22.406l1.78.117c.438 1.936 1.336 4.676 2.694 8.22 1.359 3.529 2.257 6.168 2.694 7.917 0 .452-.078.788-.234 1.007-.156.234-.352.35-.586.35-.203 0-.398-.085-.585-.257-.172-.156-.29-.382-.352-.679-.14-.687-.593-2.06-1.358-4.122a670.999 670.999 0 00-6.067-.75c-.203.563-.453 1.476-.75 2.74-.296 1.266-.53 2.14-.702 2.624-.234.28-.5.422-.796.422-.328 0-.61-.149-.844-.445-.234-.282-.35-.633-.35-1.054.499-1.827 1.404-4.513 2.716-8.057 1.312-3.544 2.225-6.222 2.74-8.033zm.82 2.365c-.312 1.89-1.178 4.66-2.6 8.314h2.624a31.7 31.7 0 012.974.117c-1.608-3.45-2.607-6.26-2.998-8.43zm14.288 2.74l1.054.235.539 11.359c-.14.468-.414.702-.82.702-.28 0-.554-.117-.82-.351a1.366 1.366 0 01-.492-.82c0-.047.07-1.366.211-3.958v-.187a29.698 29.698 0 00-1.944-.047c-1.296 0-2.272-.04-2.928-.117.079.905.18 2.365.305 4.38-.14.483-.414.725-.82.725-.281 0-.554-.109-.82-.328a1.52 1.52 0 01-.468-.843c.047-.78.07-1.561.07-2.342 0-.5-.008-1.249-.023-2.248-.016-1-.024-1.741-.024-2.225 0-1.499.047-2.756.14-3.77l1.055.257c.312 3.388.476 5.129.492 5.223 2.67.14 4.044.21 4.122.21.64 0 .96-.039.96-.117 0-.312.032-1.303.094-2.974.063-1.67.102-2.592.117-2.764zm4.333 1.757l-.468-1.195c.406-.406.921-.726 1.546-.96a4.957 4.957 0 011.85-.375c2.64 0 3.959 2.28 3.959 6.84 0 .624-.04 1.545-.117 2.763a58.483 58.483 0 00-.094 2.74c-.125.484-.367.726-.726.726-.281 0-.539-.14-.773-.422a1.428 1.428 0 01-.352-.936c0-.11.008-.188.024-.234-.968.936-1.999 1.405-3.092 1.405-.828 0-1.554-.297-2.178-.89a3 3 0 01-.914-2.202c0-1.452.563-2.763 1.687-3.934 1.14-1.172 2.428-1.757 3.865-1.757a.77.77 0 01.187.023c.062 0 .133.008.21.024.094.015.165.023.212.023-.125-1.826-.852-2.74-2.179-2.74-.78 0-1.663.367-2.647 1.1zm4.896 7.33c.031-1.093.047-1.92.047-2.482 0-.468-.016-1.124-.047-1.967h-.188c-1.108.015-2.123.429-3.045 1.24-.905.813-1.358 1.796-1.358 2.952 0 .5.148.898.445 1.194.312.297.687.445 1.124.445.687 0 1.694-.46 3.022-1.381z" fill="#000"/><path d="M98.289 41.493l-.375-1.007a3.967 3.967 0 001.405-.96c.406-.437.742-.89 1.007-1.358.266-.484.492-1.085.68-1.804a18.667 18.667 0 00.609-3.887c.047-.797.07-1.39.07-1.78.016-.406.023-.945.023-1.616 0-.953.086-1.523.258-1.71.219-.234 1.429-.351 3.631-.351 1.733 0 2.717-.008 2.951-.024.031 6.34.109 10.453.234 12.343-.156.468-.429.702-.82.702-.265 0-.523-.109-.773-.328a1.396 1.396 0 01-.468-.796 112.72 112.72 0 01-.024-2.717v-2.693c.016-1.202.024-2.108.024-2.717a97.32 97.32 0 00-.024-2.53c-.655.11-1.303.172-1.944.188-.64.016-1.093.04-1.358.07a41.39 41.39 0 00-.117 2.296 336.272 336.272 0 01-.094 2.693c-.016.765-.109 1.64-.281 2.623-.172.968-.422 1.796-.75 2.483-.312.671-.804 1.272-1.475 1.803-.656.547-1.452.906-2.39 1.077zm14.451-4.051c0 .265.016.616.047 1.054-.14.484-.413.726-.819.726-.282 0-.555-.11-.82-.328a1.524 1.524 0 01-.469-.843c.047-1.265.102-3.115.164-5.551.078-2.436.133-4.083.164-4.942l1.078-.187c.187 1 .304 2.326.351 3.981.047 1.655.109 2.889.187 3.7.297-.437 1.14-1.576 2.53-3.419 1.39-1.842 2.334-3.216 2.834-4.122.344-.062.562-.093.656-.093.297 0 .5.132.609.398.125.265.203.765.234 1.499l.445 9.649c-.14.468-.414.703-.82.703-.281 0-.554-.11-.819-.328a1.524 1.524 0 01-.469-.843l.117-3.771c.078-2.014.141-3.443.188-4.286-2.671 3.044-4.466 5.379-5.388 7.003zm10.494-3.842l-.094-1.31c.047 0 .117.007.211.023h.234c1.577 0 2.366-.688 2.366-2.062-.172-1.202-.836-1.803-1.991-1.803-.437 0-1.078.125-1.921.375l-.421-.68c.655-.608 1.592-.913 2.81-.913.859 0 1.577.219 2.155.656.578.437.867 1.077.867 1.92 0 .516-.102 1.023-.305 1.523-.203.484-.468.85-.796 1.1.593.125 1.054.532 1.382 1.218.343.672.515 1.43.515 2.272 0 1.093-.351 2.046-1.054 2.858-.702.812-1.608 1.218-2.717 1.218-.546 0-1.202-.157-1.967-.469-.765-.312-1.148-.703-1.148-1.171 0-.328.211-.492.632-.492.281 0 .648.133 1.101.398.453.25.828.375 1.125.375.655 0 1.233-.289 1.733-.867.5-.577.749-1.217.749-1.92 0-.75-.265-1.311-.796-1.686-.515-.39-1.179-.586-1.991-.586a6.9 6.9 0 00-.679.024zm-72.61 29.183l.07 1.03c-.375.094-.64.14-.797.14a2.512 2.512 0 01-1.616-.585 4.823 4.823 0 01-1.194-1.428 43.928 43.928 0 01-.89-1.687 7.21 7.21 0 00-.867-1.428c-.312-.39-.632-.586-.96-.586a.881.881 0 00-.352.07c.063.937.172 2.452.328 4.544-.14.484-.413.726-.82.726-.28 0-.554-.11-.82-.328a1.52 1.52 0 01-.468-.843c.063-2.623.094-5.09.094-7.4 0-1.703.07-3.053.21-4.053l1.055.375c.125.609.195 1.483.21 2.623.016 1.124.032 1.82.047 2.085.469-.078.875-.32 1.218-.726.36-.406.648-.867.867-1.382.234-.516.476-1.023.726-1.523s.57-.92.96-1.264a2.143 2.143 0 011.43-.516c.28 0 .718.094 1.31.281l-.093.797a2.37 2.37 0 00-.374-.024c-.625 0-1.172.266-1.64.797a5.431 5.431 0 00-1.03 1.733 9.96 9.96 0 01-.844 1.803c-.343.578-.718.914-1.124 1.007.578.14 1.07.531 1.475 1.171.422.64.734 1.304.937 1.991a6.66 6.66 0 00.937 1.85c.406.547.906.82 1.5.82.155 0 .327-.023.515-.07zm1.03-4.403c0-.625.063-1.32.188-2.085.14-.765.343-1.569.609-2.412.265-.843.663-1.546 1.194-2.108.531-.562 1.148-.843 1.85-.843 1.5 0 2.702.68 3.608 2.037.905 1.343 1.358 2.842 1.358 4.497a9.7 9.7 0 01-.234 2.108 9.193 9.193 0 01-.68 2.038 4.457 4.457 0 01-1.358 1.686c-.578.437-1.257.687-2.038.75-1.436-.188-2.545-.797-3.326-1.827-.78-1.046-1.17-2.327-1.17-3.841zm3.982-6.23c-.547.062-1.007.562-1.382 1.499s-.617 1.85-.726 2.74c-.11.874-.164 1.647-.164 2.319 0 .874.266 1.686.796 2.435.547.734 1.156 1.101 1.827 1.101.484 0 .922-.187 1.312-.562a3.88 3.88 0 00.913-1.382 8.69 8.69 0 00.516-1.686 7.001 7.001 0 00.187-1.5c0-1.28-.289-2.396-.866-3.348-.578-.953-1.382-1.491-2.413-1.616zm13.726-.656l1.054.234.538 11.36c-.14.468-.413.702-.82.702-.28 0-.554-.117-.82-.352a1.366 1.366 0 01-.491-.82c0-.046.07-1.365.21-3.957v-.188a29.7 29.7 0 00-1.943-.047c-1.296 0-2.272-.039-2.928-.117.078.906.18 2.366.304 4.38-.14.484-.413.726-.82.726-.28 0-.554-.11-.82-.328a1.52 1.52 0 01-.468-.843c.047-.78.07-1.561.07-2.342 0-.5-.007-1.25-.023-2.248-.015-1-.023-1.741-.023-2.225 0-1.5.047-2.756.14-3.771l1.054.258c.313 3.388.477 5.129.492 5.222 2.67.14 4.044.211 4.123.211.64 0 .96-.039.96-.117 0-.312.031-1.304.094-2.974.062-1.671.101-2.592.117-2.764zm11.875 11.289l.07 1.03c-.374.094-.64.14-.796.14a2.512 2.512 0 01-1.616-.585A4.823 4.823 0 0177.7 61.94a43.928 43.928 0 01-.89-1.687 7.21 7.21 0 00-.867-1.428c-.312-.39-.632-.586-.96-.586a.881.881 0 00-.351.07c.062.937.172 2.452.328 4.544-.14.484-.414.726-.82.726-.281 0-.554-.11-.82-.328a1.52 1.52 0 01-.468-.843c.062-2.623.093-5.09.093-7.4 0-1.703.07-3.053.211-4.053l1.054.375c.125.609.195 1.483.211 2.623.016 1.124.031 1.82.047 2.085.468-.078.874-.32 1.218-.726.359-.406.648-.867.866-1.382.235-.516.477-1.023.727-1.523s.57-.92.96-1.264a2.143 2.143 0 011.429-.516c.28 0 .718.094 1.311.281l-.093.797a2.37 2.37 0 00-.375-.024c-.625 0-1.171.266-1.64.797a5.431 5.431 0 00-1.03 1.733 9.96 9.96 0 01-.843 1.803c-.344.578-.719.914-1.125 1.007.578.14 1.07.531 1.476 1.171.421.64.734 1.304.937 1.991a6.62 6.62 0 00.937 1.85c.406.547.905.82 1.499.82.156 0 .328-.023.515-.07zm2.717 7.517l-1.452-.819c.64-1.109 1.772-3.216 3.396-6.324-1.265-1.124-2.233-2.826-2.904-5.105a30.868 30.868 0 01-1.218-6.84l1.358.071c.078.375.242 1.234.492 2.576.266 1.328.476 2.311.632 2.951.157.64.43 1.445.82 2.413.406.952.867 1.756 1.382 2.412 2.17-4.169 3.256-7.588 3.256-10.258v-.258c.812.125 1.421.273 1.827.445-.25 1.64-.64 3.31-1.171 5.012a43.061 43.061 0 01-1.991 5.153 88.578 88.578 0 01-2.132 4.333 173.662 173.662 0 01-2.295 4.239zm8.83-19.251l1.312.234c0 .328.008.57.023.726.86-.546 1.726-.82 2.6-.82 1.421 0 2.53.61 3.326 1.827.797 1.218 1.195 2.6 1.195 4.146 0 .78-.063 1.53-.187 2.248-.11.703-.313 1.429-.609 2.178a4.008 4.008 0 01-1.382 1.78c-.61.437-1.351.656-2.225.656-.828 0-1.624-.219-2.39-.656.063 2.733.117 4.762.164 6.09-.14.484-.413.726-.82.726-.28 0-.554-.117-.82-.352a1.41 1.41 0 01-.468-.82l.281-17.963zm1.523 2.483l.07 7.564c.188.375.476.68.867.914.39.218.82.328 1.288.328.609 0 1.124-.196 1.546-.586.437-.39.742-.905.913-1.546a11.19 11.19 0 00.375-1.826 12.97 12.97 0 00.117-1.78c0-2.655-.898-3.982-2.693-3.982-.578 0-1.117.086-1.617.258-.484.156-.773.375-.866.656zm18.269 7.564l.235 1.03c-.687.25-1.71.532-3.069.844-1.343.297-2.342.445-2.998.445a2.581 2.581 0 01-1.756-.656 4.197 4.197 0 01-1.125-1.71 13.55 13.55 0 01-.562-2.06 12.846 12.846 0 01-.164-2.015c0-3.903 1.765-5.855 5.294-5.855.843 0 1.585.273 2.225.82.64.53.96 1.226.96 2.084 0 .469-.133.883-.398 1.242-.25.359-.562.648-.937.866-.359.203-.828.39-1.405.562-.562.172-1.062.297-1.499.375a70.21 70.21 0 01-1.57.258c-.609.093-1.03.164-1.264.21.015.453.039.851.07 1.195.047.343.125.718.234 1.124.125.39.281.718.468.984.203.25.477.46.82.632.344.172.75.258 1.218.258.562 0 1.249-.047 2.061-.14.812-.11 1.531-.22 2.155-.329a28.86 28.86 0 011.007-.164zm-7.94-5.012c2.124-.609 3.865-1.249 5.223-1.92-.109-.515-.257-.89-.445-1.124-.187-.234-.468-.352-.843-.352-.952 0-1.819.328-2.6.984-.765.656-1.21 1.46-1.335 2.412zm16.115-4.59l1.054.234.539 11.36c-.141.468-.414.702-.82.702-.281 0-.554-.117-.82-.352a1.371 1.371 0 01-.492-.82c0-.046.071-1.365.211-3.957v-.188a29.688 29.688 0 00-1.944-.047c-1.296 0-2.272-.039-2.928-.117.078.906.18 2.366.305 4.38-.141.484-.414.726-.82.726-.281 0-.554-.11-.82-.328a1.517 1.517 0 01-.468-.843c.046-.78.07-1.561.07-2.342 0-.5-.008-1.25-.024-2.248-.015-1-.023-1.741-.023-2.225 0-1.5.047-2.756.141-3.771l1.054.258c.312 3.388.476 5.129.491 5.222 2.671.14 4.045.211 4.123.211.64 0 .96-.039.96-.117 0-.312.031-1.304.094-2.974.062-1.671.101-2.592.117-2.764zm2.74 1.124l-.21-1.03c2.092-.125 5.387-.297 9.884-.516.375.016.695.156.96.422.266.265.399.547.399.843 0 .468-.313.734-.937.796l-4.38-.21c.078 1.17.117 2.88.117 5.129.015 2.233.047 3.864.093 4.895-.14.452-.413.679-.819.679-.266 0-.524-.11-.773-.328a1.403 1.403 0 01-.469-.796c.219-3.841.445-7.066.679-9.673l-4.544-.21zm11.103 5.762c0-.625.062-1.32.187-2.085a20.4 20.4 0 01.609-2.412c.266-.843.664-1.546 1.195-2.108s1.147-.843 1.85-.843c1.499 0 2.702.68 3.607 2.037.906 1.343 1.359 2.842 1.359 4.497a9.64 9.64 0 01-.235 2.108 9.125 9.125 0 01-.679 2.038 4.456 4.456 0 01-1.358 1.686c-.578.437-1.257.687-2.038.75-1.437-.188-2.545-.797-3.326-1.827-.781-1.046-1.171-2.327-1.171-3.841zm3.982-6.23c-.547.062-1.008.562-1.382 1.499-.375.937-.617 1.85-.726 2.74-.11.874-.164 1.647-.164 2.319 0 .874.265 1.686.796 2.435.547.734 1.156 1.101 1.827 1.101.484 0 .921-.187 1.312-.562a3.88 3.88 0 00.913-1.382 8.689 8.689 0 00.515-1.686 6.999 6.999 0 00.188-1.5c0-1.28-.289-2.396-.867-3.348-.578-.953-1.382-1.491-2.412-1.616zm7.237-.797c2.421-.515 3.896-.772 4.427-.772 2.093 0 3.139.897 3.139 2.693 0 .624-.11 1.233-.328 1.827-.203.578-.461.96-.773 1.147 1.218.828 1.827 1.968 1.827 3.42 0 1.374-.453 2.443-1.359 3.208-.89.766-2.069 1.148-3.536 1.148-1.749 0-3.053-.468-3.912-1.405l.515-11.266zm1.335 5.879l.211 4.754c.391.188.836.281 1.335.281.968 0 1.858-.304 2.67-.913.812-.609 1.218-1.32 1.218-2.131 0-.562-.218-1.078-.655-1.546-.438-.484-.992-.726-1.663-.726-.391 0-1.429.094-3.116.281zm-.234-4.825l.164 3.607c.234-.031.593-.055 1.078-.07a9.868 9.868 0 001.171-.094c.296-.062.624-.18.983-.351.36-.188.641-.508.844-.96.218-.453.367-1.047.445-1.78-.157-.469-.633-.703-1.429-.703-.359 0-.921.055-1.687.164-.765.11-1.288.172-1.569.187z" fill="#000"/><path fill-rule="evenodd" clip-rule="evenodd" d="M193.879 61.595c-3.186 3.986-6.88 6.763-8.671 8.083-2.519 1.858-7.306 4.172-13.696 6.647-6.407 2.482-14.476 5.144-23.596 7.686-18.238 5.082-40.711 9.69-62.552 11.402-21.824 1.71-43.092.538-58.873-6.002-7.9-3.274-14.448-7.902-18.992-14.208C2.953 68.893.444 60.945.556 51.086.782 31.362 9.953 18.863 23.762 11.41c13.76-7.428 32.09-9.83 50.671-9.52 18.595.312 37.514 3.343 52.508 6.843 7.498 1.75 14.023 3.619 19.041 5.328 2.509.854 4.646 1.67 6.344 2.413 1.687.739 2.974 1.42 3.757 2.012l-.725.926c-.666-.504-1.847-1.14-3.516-1.87-1.657-.726-3.762-1.53-6.249-2.377-4.975-1.694-11.46-3.552-18.926-5.295C111.731 6.384 92.9 3.369 74.413 3.06c-18.501-.31-36.585 2.09-50.078 9.374C10.888 19.691 1.964 31.811 1.744 51.1c-.11 9.648 2.342 17.347 6.724 23.429 4.386 6.086 10.735 10.595 18.484 13.806 15.516 6.43 36.554 7.62 58.317 5.913 21.746-1.704 44.14-6.294 62.322-11.36 9.09-2.534 17.12-5.184 23.484-7.65 6.382-2.471 11.038-4.738 13.419-6.494 1.775-1.309 5.364-4.011 8.449-7.87 3.084-3.859 5.629-8.83 5.395-14.688-.233-5.849-3.242-12.7-11.511-20.313-8.275-7.619-21.786-15.97-42.932-24.796L144.361 0c21.211 8.853 34.862 17.269 43.279 25.019 8.424 7.756 11.638 14.877 11.888 21.12.249 6.233-2.464 11.47-5.649 15.456z" fill="#000"/></svg>