<svg width="239" height="113" fill="none" xmlns="http://www.w3.org/2000/svg"><path d="M35.111 52.999l.117-16.488c.172-.578.844-.867 2.015-.867 1.077 0 2.069.148 2.974.445a4.924 4.924 0 012.273 1.452c.624.672.936 1.484.936 2.436 0 .75-.187 1.475-.562 2.178-.359.703-.804 1.155-1.335 1.358 1 .141 1.804.742 2.413 1.804.609 1.062.913 2.319.913 3.77 0 .984-.39 1.843-1.171 2.577a7.15 7.15 0 01-2.74 1.569 10.781 10.781 0 01-3.14.468c-1.295 0-2.193-.234-2.693-.702zm1.921-8.197c0 1.077-.016 3.24-.047 6.487.469.531 1.07.796 1.804.796.968 0 1.905-.398 2.81-1.194.906-.812 1.359-1.678 1.359-2.6 0-1.14-.383-2.03-1.148-2.67-.765-.64-1.749-.96-2.951-.96-.796 0-1.405.047-1.827.14zm-.047-1.733l1.452-.024c1 0 1.765-.289 2.296-.867.546-.593.82-1.295.82-2.107 0-.828-.274-1.538-.82-2.132-.547-.609-1.304-.913-2.272-.913-.438 0-.953.094-1.546.281.031.952.047 2.131.047 3.536l.023 2.225zm9.838-1.336l1.054.235c.03.5.078 1.085.14 1.756.078.672.164 1.437.258 2.296a6.197 6.197 0 011.78-.282 4.43 4.43 0 011.874.399 4.48 4.48 0 011.475 1.007 4.8 4.8 0 01.96 1.452c.235.53.352 1.077.352 1.64 0 .546-.11 1.045-.328 1.498a3.25 3.25 0 01-.89 1.171 4.035 4.035 0 01-1.358.726 4.972 4.972 0 01-1.71.281c-.375 0-.773-.023-1.195-.07a10.97 10.97 0 01-1.148-.14 6.415 6.415 0 01-.866-.211c-.219-.094-.328-.196-.328-.305 0-.25-.008-.609-.023-1.077 0-.469-.008-.984-.024-1.546 0-.562-.008-1.155-.023-1.78l-.047-1.803c0-.578-.008-1.101-.024-1.57v-1.17c0-.875.024-1.71.07-2.507zm1.663 5.739l-.211 4.707a5.383 5.383 0 001.78.328c.437 0 .835-.07 1.194-.21a3.1 3.1 0 00.937-.586c.25-.25.446-.531.586-.843.14-.313.21-.64.21-.984s-.07-.664-.21-.96a2.276 2.276 0 00-.632-.82 2.938 2.938 0 00-1.031-.539 4.212 4.212 0 00-1.944-.164c-.203.016-.43.04-.68.07zm7.308-5.809l1.053.234c.11 1.234.227 2.788.352 4.661.125 1.858.258 4.052.398 6.581-.14.469-.414.703-.82.703-.28 0-.554-.11-.82-.328a1.52 1.52 0 01-.468-.843c.016-.234.024-.617.024-1.148a532.987 532.987 0 00.093-4.028l.047-2.272c.016-.734.031-1.413.047-2.037.031-.64.062-1.148.093-1.523z" fill="#000"/><path d="M67.528 41.452l.352 12.577c-.156.469-.422.703-.797.703-.265 0-.53-.11-.796-.328a1.4 1.4 0 01-.469-.796l.235-5.082c-.656.421-1.335.64-2.038.655-.593 1.952-1.343 3.38-2.249 4.286-.89.906-2.319 1.632-4.286 2.178l-.375-1.007c2.92-.734 4.583-2.662 4.99-5.785a4.566 4.566 0 01-1.875-1.428 3.552 3.552 0 01-.726-2.202c0-1.655.422-2.756 1.265-3.302.843-.547 2.178-.82 4.005-.82.953 0 1.874.117 2.764.351zm-1.288 5.106l-.117-3.7c-.547-.172-1.35-.258-2.413-.258-.75 0-1.39.172-1.92.515-.531.328-.797.867-.797 1.616 0 .843.336 1.57 1.008 2.178.671.594 1.405.89 2.201.89.937 0 1.616-.413 2.038-1.24zm4.076-4.965c2.42-.515 3.895-.773 4.427-.773 2.092 0 3.138.898 3.138 2.694 0 .624-.11 1.233-.328 1.826-.203.578-.46.96-.773 1.148 1.218.827 1.827 1.967 1.827 3.42 0 1.373-.453 2.443-1.358 3.208-.89.765-2.07 1.148-3.537 1.148-1.749 0-3.053-.469-3.912-1.406l.516-11.265zm1.335 5.878l.21 4.755c.39.187.836.281 1.336.281.968 0 1.858-.304 2.67-.913.812-.61 1.218-1.32 1.218-2.132 0-.562-.219-1.077-.656-1.546-.437-.483-.992-.725-1.663-.725-.39 0-1.429.093-3.115.28zm-.235-4.824l.164 3.607c.235-.032.594-.055 1.078-.07a9.843 9.843 0 001.171-.094c.297-.063.625-.18.984-.352.359-.187.64-.507.843-.96.218-.453.367-1.046.445-1.78-.156-.468-.632-.702-1.429-.702-.359 0-.921.054-1.686.163-.765.11-1.288.172-1.57.188zm6.582 13.069l-.375-1.008a3.966 3.966 0 001.406-.96c.406-.437.742-.89 1.007-1.358.265-.484.492-1.085.68-1.803.187-.719.32-1.343.397-1.874.094-.547.164-1.218.211-2.014.047-.797.07-1.39.07-1.78.016-.406.024-.945.024-1.616 0-.953.086-1.523.258-1.71.218-.234 1.428-.351 3.63-.351 1.733 0 2.717-.008 2.951-.024.032 6.34.11 10.454.234 12.343-.156.468-.429.703-.82.703-.265 0-.522-.11-.772-.328a1.4 1.4 0 01-.469-.797c-.015-.609-.023-1.514-.023-2.717V47.73c.016-1.202.023-2.108.023-2.717 0-1.124-.008-1.967-.023-2.53a13.87 13.87 0 01-1.944.188c-.64.016-1.093.04-1.359.07-.046.516-.085 1.28-.117 2.296a292.483 292.483 0 01-.093 2.693c-.016.765-.11 1.64-.282 2.623-.171.968-.421 1.796-.75 2.483-.311.671-.803 1.272-1.475 1.803-.656.547-1.452.906-2.389 1.078zm21.83-4.38l.234 1.03c-.687.25-1.71.531-3.068.844-1.343.296-2.342.445-2.998.445a2.583 2.583 0 01-1.757-.656 4.197 4.197 0 01-1.124-1.71c-.25-.703-.437-1.39-.562-2.06a12.81 12.81 0 01-.164-2.015c0-3.904 1.764-5.855 5.293-5.855.843 0 1.585.273 2.225.82.64.53.96 1.225.96 2.084 0 .468-.132.882-.397 1.241a2.93 2.93 0 01-.937.867c-.36.203-.828.39-1.406.562-.562.172-1.061.297-1.499.375-.437.078-.96.163-1.569.257a34.01 34.01 0 00-1.265.211c.016.453.04.85.07 1.194.047.344.125.719.235 1.125.125.39.28.718.468.983.203.25.476.46.82.633.343.171.75.257 1.218.257.562 0 1.25-.047 2.061-.14.812-.11 1.53-.219 2.155-.328.64-.11.976-.164 1.007-.164zm-7.94-5.012c2.123-.609 3.865-1.25 5.223-1.92-.11-.516-.258-.89-.445-1.125-.187-.234-.468-.351-.843-.351-.953 0-1.82.328-2.6.984-.765.655-1.21 1.46-1.335 2.412zm16.115-4.591l1.054.235.538 11.359c-.14.468-.413.702-.819.702-.282 0-.555-.117-.82-.351a1.361 1.361 0 01-.492-.82c0-.047.07-1.366.211-3.958v-.187a29.73 29.73 0 00-1.944-.047c-1.296 0-2.272-.04-2.928-.117.078.906.179 2.365.304 4.38-.14.484-.414.726-.82.726-.281 0-.554-.11-.819-.328a1.524 1.524 0 01-.469-.843c.047-.781.071-1.562.071-2.343 0-.5-.008-1.249-.024-2.248-.016-1-.023-1.74-.023-2.225 0-1.499.047-2.756.14-3.77l1.054.257c.313 3.388.476 5.13.492 5.223 2.67.14 4.044.21 4.122.21.641 0 .961-.038.961-.117 0-.312.031-1.303.094-2.974.062-1.67.101-2.592.117-2.764zm5.551 9.931c0 .265.015.617.047 1.054-.141.484-.414.726-.82.726-.281 0-.554-.11-.82-.328a1.517 1.517 0 01-.468-.843c.046-1.265.101-3.115.164-5.55.078-2.437.132-4.084.164-4.943l1.077-.187c.187 1 .304 2.326.351 3.981.047 1.656.11 2.889.188 3.7.296-.436 1.14-1.576 2.529-3.419 1.39-1.842 2.335-3.216 2.834-4.121.344-.063.563-.094.656-.094.297 0 .5.133.609.398.125.265.203.765.235 1.499l.445 9.65c-.141.468-.414.702-.82.702-.281 0-.555-.11-.82-.328a1.524 1.524 0 01-.469-.843l.118-3.771c.078-2.014.14-3.443.187-4.286-2.67 3.045-4.466 5.379-5.387 7.003zm18.551-.328l.234 1.03c-.687.25-1.71.531-3.069.844-1.343.296-2.342.445-2.998.445a2.581 2.581 0 01-1.756-.656 4.197 4.197 0 01-1.125-1.71 13.55 13.55 0 01-.562-2.06 12.846 12.846 0 01-.164-2.015c0-3.904 1.765-5.855 5.294-5.855.843 0 1.585.273 2.225.82.64.53.96 1.225.96 2.084 0 .468-.133.882-.398 1.241-.25.36-.562.648-.937.867-.359.203-.828.39-1.405.562-.562.172-1.062.297-1.499.375-.438.078-.961.163-1.57.257-.609.094-1.03.164-1.264.211.015.453.039.85.07 1.194.047.344.125.719.234 1.125.125.39.281.718.468.983.203.25.477.46.82.633.344.171.75.257 1.218.257.562 0 1.249-.047 2.061-.14.812-.11 1.531-.219 2.155-.328.641-.11.976-.164 1.008-.164zm-7.941-5.012c2.124-.609 3.865-1.25 5.223-1.92-.109-.516-.257-.89-.445-1.125-.187-.234-.468-.351-.843-.351-.952 0-1.819.328-2.6.984-.765.655-1.21 1.46-1.335 2.412zm23.704-4.333l-.117 1.007a12.193 12.193 0 00-1.687-.14c-1.077 0-1.967.328-2.67.983a4.984 4.984 0 00-1.452 2.296c-.25.874-.375 1.85-.375 2.927 0 .5.032.945.094 1.335s.172.773.328 1.148c.172.374.429.671.773.89.359.203.796.304 1.311.304.688 0 1.562-.133 2.624-.398.328-.125.585-.187.773-.187.375 0 .601.437.679 1.311-1.374.437-2.647.656-3.818.656-1.702 0-2.857-.414-3.466-1.241-.594-.843-.89-2.202-.89-4.075 0-1.093.07-2.046.21-2.858a7.984 7.984 0 01.797-2.295 3.804 3.804 0 011.616-1.64c.718-.374 1.593-.562 2.623-.562 1.156 0 2.038.18 2.647.54z" fill="#000"/><path d="M146.837 55.716l-.374-1.008a3.97 3.97 0 001.405-.96c.406-.437.742-.89 1.007-1.358.266-.484.492-1.085.679-1.803a18.675 18.675 0 00.609-3.888c.047-.797.071-1.39.071-1.78.015-.406.023-.945.023-1.616 0-.953.086-1.523.258-1.71.218-.234 1.429-.351 3.63-.351 1.734 0 2.717-.008 2.951-.024.032 6.34.11 10.454.235 12.343-.156.468-.43.703-.82.703-.266 0-.523-.11-.773-.328a1.396 1.396 0 01-.468-.797 112.72 112.72 0 01-.024-2.717V47.73c.016-1.202.024-2.108.024-2.717a97.32 97.32 0 00-.024-2.53c-.656.11-1.304.173-1.944.188-.64.016-1.093.04-1.358.07a42.21 42.21 0 00-.118 2.296 298.293 298.293 0 01-.093 2.693c-.016.765-.11 1.64-.281 2.623-.172.968-.422 1.796-.75 2.483-.312.671-.804 1.272-1.476 1.803-.655.547-1.452.906-2.389 1.078zm13.234-12.226l-.468-1.194c.406-.406.921-.727 1.546-.96a4.953 4.953 0 011.85-.375c2.639 0 3.958 2.28 3.958 6.838 0 .625-.039 1.546-.117 2.764a58.976 58.976 0 00-.093 2.74c-.125.484-.367.726-.726.726-.282 0-.539-.14-.773-.421a1.425 1.425 0 01-.352-.937c0-.11.008-.188.024-.234-.968.937-1.999 1.405-3.092 1.405-.828 0-1.554-.297-2.178-.89a3.001 3.001 0 01-.914-2.202c0-1.452.562-2.763 1.687-3.934 1.139-1.171 2.428-1.757 3.864-1.757.063 0 .125.008.188.024.062 0 .132.007.21.023.094.016.164.023.211.023-.125-1.826-.851-2.74-2.178-2.74-.781 0-1.663.367-2.647 1.101zm4.896 7.33c.031-1.092.046-1.92.046-2.482 0-.468-.015-1.124-.046-1.967h-.188c-1.109.015-2.124.43-3.045 1.241-.906.812-1.358 1.796-1.358 2.951 0 .5.148.898.445 1.194.312.297.687.446 1.124.446.687 0 1.694-.461 3.022-1.382zm5.457-8.36c.375-.297.843-.54 1.405-.727.578-.202 1.086-.304 1.523-.304 2.904 0 4.356 1.678 4.356 5.035 0 .719-.054 1.484-.164 2.296a17.98 17.98 0 01-.585 2.623c-.266.952-.695 1.733-1.288 2.342-.578.624-1.281.937-2.108.937-.89 0-1.648-.235-2.272-.703-.625-.468-1.117-1.155-1.476-2.061-.344-.906-.593-1.92-.75-3.045-.14-1.14-.21-2.467-.21-3.981 0-1.53.187-2.897.562-4.099a9.066 9.066 0 011.757-3.162 13.288 13.288 0 012.623-2.342c.968-.655 2.139-1.303 3.513-1.944.094.125.195.235.305.328a.983.983 0 01.328.375c.109.172.273.508.492 1.007-.297.172-.773.43-1.429.773a51.83 51.83 0 00-1.64.89c-.437.234-.96.57-1.569 1.007-.594.422-1.093.843-1.499 1.265-.391.406-.765.921-1.124 1.546a7.15 7.15 0 00-.75 1.944zm5.481 3.864c0-1.155-.266-2.014-.796-2.576-.531-.578-1.242-.867-2.132-.867-.828 0-1.499.36-2.014 1.077-.516.703-.773 1.562-.773 2.577 0 .609.047 1.257.14 1.944.11.687.266 1.381.469 2.084.218.687.523 1.257.913 1.71.406.453.859.679 1.359.679 1.889 0 2.834-2.21 2.834-6.628zm4.029-4.591l1.054.235c.031.5.078 1.085.14 1.756.078.672.164 1.437.258 2.296a6.194 6.194 0 011.78-.282 4.43 4.43 0 011.874.399c.577.25 1.069.585 1.475 1.007.406.421.726.905.961 1.452.234.53.351 1.077.351 1.64 0 .546-.109 1.045-.328 1.498-.203.453-.5.843-.89 1.171a4.043 4.043 0 01-1.358.726 4.978 4.978 0 01-1.71.281c-.375 0-.773-.023-1.195-.07a10.98 10.98 0 01-1.148-.14 6.413 6.413 0 01-.866-.211c-.219-.094-.328-.196-.328-.305 0-.25-.008-.609-.024-1.077 0-.469-.007-.984-.023-1.546 0-.562-.008-1.155-.023-1.78l-.047-1.803c0-.578-.008-1.101-.024-1.57v-1.17c0-.875.024-1.71.071-2.507zm1.663 5.739l-.211 4.707a5.388 5.388 0 001.78.328c.437 0 .835-.07 1.194-.21a3.08 3.08 0 00.937-.586c.25-.25.445-.531.586-.843.14-.313.211-.64.211-.984s-.071-.664-.211-.96a2.281 2.281 0 00-.632-.82 2.948 2.948 0 00-1.031-.539 4.214 4.214 0 00-1.944-.164c-.203.016-.43.04-.679.07zm7.307-5.809l1.054.234c.11 1.234.227 2.788.352 4.661.125 1.858.257 4.052.398 6.581-.141.469-.414.703-.82.703-.281 0-.554-.11-.82-.328a1.522 1.522 0 01-.468-.843c.016-.234.023-.617.023-1.148.016-.53.032-1.14.047-1.827.016-.686.031-1.42.047-2.201l.047-2.272c.016-.734.031-1.413.047-2.037.031-.64.062-1.148.093-1.523zm3.748 12.53l-1.007-.538c.406-1.015 1.468-2.983 3.185-5.902-.905-1.234-1.936-3.287-3.091-6.16h1.03c.578 1.218 1.554 2.803 2.928 4.754.234-.328.539-.835.914-1.522.39-.687.765-1.28 1.124-1.78.375-.5.796-.937 1.265-1.312.562.313.843.68.843 1.101 0 .234-.055.46-.164.68-.422.515-.96 1.327-1.616 2.435-.656 1.109-1.062 1.78-1.218 2.014 1.655 2.311 2.771 4.052 3.349 5.223 0 .593-.265.89-.796.89s-.937-.258-1.218-.773c-.281-.937-1.023-2.264-2.225-3.981-.266.437-.812 1.233-1.64 2.389-.812 1.14-1.366 1.967-1.663 2.482zM37.172 82.641c0 .266.016.617.047 1.054-.14.484-.413.726-.82.726-.28 0-.554-.109-.82-.328a1.52 1.52 0 01-.468-.843c.047-1.264.102-3.115.164-5.55.078-2.436.133-4.083.164-4.942l1.078-.187c.187.999.304 2.326.351 3.981.047 1.655.11 2.889.187 3.7.297-.437 1.14-1.576 2.53-3.419 1.39-1.842 2.334-3.216 2.834-4.122.344-.062.562-.094.656-.094.297 0 .5.133.609.399.125.265.203.765.234 1.498l.445 9.65c-.14.468-.413.702-.82.702-.28 0-.554-.109-.82-.328a1.52 1.52 0 01-.468-.843l.117-3.77c.078-2.014.14-3.443.188-4.286-2.67 3.044-4.466 5.379-5.388 7.002zm23.704-9.672l-.117 1.007a12.19 12.19 0 00-1.686-.14c-1.078 0-1.968.327-2.67.983a4.982 4.982 0 00-1.453 2.295c-.25.875-.374 1.85-.374 2.928 0 .5.03.944.093 1.335.063.39.172.773.328 1.147.172.375.43.672.773.89.36.203.796.305 1.312.305.687 0 1.561-.133 2.623-.398.328-.125.586-.188.773-.188.375 0 .601.438.68 1.312-1.375.437-2.647.656-3.819.656-1.702 0-2.857-.414-3.466-1.242-.593-.843-.89-2.201-.89-4.075 0-1.093.07-2.045.21-2.857a7.995 7.995 0 01.797-2.295 3.81 3.81 0 011.616-1.64c.718-.375 1.593-.562 2.623-.562 1.156 0 2.038.18 2.647.539zm3.537 9.672c0 .266.016.617.047 1.054-.14.484-.414.726-.82.726-.281 0-.554-.109-.82-.328a1.52 1.52 0 01-.468-.843c.047-1.264.101-3.115.164-5.55.078-2.436.133-4.083.164-4.942l1.077-.187c.188.999.305 2.326.352 3.981.046 1.655.109 2.889.187 3.7.297-.437 1.14-1.576 2.53-3.419 1.39-1.842 2.334-3.216 2.834-4.122.343-.062.562-.094.656-.094.296 0 .5.133.609.399.124.265.203.765.234 1.498l.445 9.65c-.14.468-.414.702-.82.702-.281 0-.554-.109-.82-.328a1.52 1.52 0 01-.468-.843l.117-3.77c.078-2.014.14-3.443.187-4.286-2.67 3.044-4.466 5.379-5.387 7.002z" fill="#000"/><path d="M71.018 86.693l-.374-1.007a3.965 3.965 0 001.405-.96c.406-.437.742-.89 1.007-1.358.266-.484.492-1.086.68-1.804.187-.718.32-1.343.397-1.874a18.7 18.7 0 00.211-2.014c.047-.796.07-1.39.07-1.78.016-.406.024-.944.024-1.616 0-.952.086-1.522.258-1.71.218-.234 1.428-.35 3.63-.35 1.733 0 2.717-.008 2.951-.024.032 6.339.11 10.453.235 12.343-.157.468-.43.702-.82.702-.266 0-.523-.11-.773-.328a1.4 1.4 0 01-.469-.796 115.62 115.62 0 01-.023-2.717v-2.693c.016-1.203.023-2.108.023-2.717a99.7 99.7 0 00-.023-2.53c-.656.11-1.304.172-1.944.188-.64.016-1.093.039-1.359.07-.046.516-.085 1.28-.117 2.295a299.752 299.752 0 01-.093 2.694c-.016.765-.11 1.64-.282 2.623-.171.968-.421 1.796-.749 2.483-.312.67-.804 1.272-1.476 1.803-.656.546-1.452.906-2.389 1.077zM83.48 72.711l1.053.234c.031.5.078 1.086.14 1.757.079.671.165 1.436.258 2.295a6.198 6.198 0 011.78-.281 4.44 4.44 0 011.874.398 4.5 4.5 0 011.476 1.007 4.8 4.8 0 01.96 1.452 4.03 4.03 0 01.352 1.64c0 .546-.118 1.046-.352 1.499a3.786 3.786 0 01-.937 1.17 4.36 4.36 0 01-1.358.727 4.762 4.762 0 01-1.64.28c-.11 0-.351-.007-.726-.023a11.401 11.401 0 01-1.195-.117 6.89 6.89 0 01-1.1-.21c-.328-.094-.5-.227-.516-.399 0-.265-.007-.624-.023-1.077 0-.468-.008-.984-.023-1.546 0-.562-.008-1.147-.024-1.756l-.047-1.804c0-.577-.008-1.108-.023-1.592v-1.148c0-.874.023-1.71.07-2.506zm1.662 5.738l-.21 4.708c.624.218 1.217.328 1.78.328.437 0 .835-.07 1.194-.211.375-.156.687-.352.937-.586.25-.25.445-.53.585-.843a2.361 2.361 0 00.001-1.943 2.278 2.278 0 00-.633-.82 2.939 2.939 0 00-1.03-.54 4.212 4.212 0 00-1.945-.163c-.203.015-.43.039-.679.07zm14.663-5.738l1.054.234.538 11.36c-.14.468-.413.702-.819.702-.281 0-.555-.117-.82-.351a1.366 1.366 0 01-.492-.82c0-.047.07-1.366.21-3.958v-.188a29.702 29.702 0 00-1.943-.046c-1.296 0-2.272-.04-2.928-.118.078.906.18 2.366.304 4.38-.14.484-.413.726-.82.726-.28 0-.554-.11-.82-.328a1.52 1.52 0 01-.468-.843c.047-.78.07-1.561.07-2.342 0-.5-.007-1.249-.023-2.248-.016-1-.023-1.741-.023-2.225 0-1.5.047-2.756.14-3.77l1.054.257c.313 3.388.477 5.129.492 5.223 2.67.14 4.044.21 4.123.21.64 0 .96-.039.96-.117 0-.312.031-1.304.094-2.974.062-1.67.101-2.592.117-2.764zm3.56 0l1.054.234c.031.5.078 1.086.14 1.757.079.671.164 1.436.258 2.295a6.2 6.2 0 011.78-.281 4.44 4.44 0 011.874.398 4.51 4.51 0 011.476 1.007c.406.422.726.906.96 1.452.234.531.351 1.078.351 1.64a3.4 3.4 0 01-.328 1.499 3.243 3.243 0 01-.89 1.17 4.026 4.026 0 01-1.358.727 4.972 4.972 0 01-1.71.28c-.375 0-.773-.023-1.195-.07a10.985 10.985 0 01-1.147-.14 6.41 6.41 0 01-.867-.21c-.218-.094-.328-.196-.328-.305 0-.25-.008-.61-.023-1.078 0-.468-.008-.983-.024-1.545 0-.562-.007-1.156-.023-1.78l-.047-1.804c0-.577-.008-1.1-.023-1.569v-1.17c0-.875.023-1.71.07-2.507zm1.663 5.738l-.211 4.708c.625.218 1.218.328 1.78.328.437 0 .836-.07 1.195-.211a3.09 3.09 0 00.937-.586c.25-.25.445-.53.585-.843.141-.312.211-.64.211-.983 0-.344-.07-.664-.211-.96a2.271 2.271 0 00-.632-.82 2.94 2.94 0 00-1.031-.54 4.21 4.21 0 00-1.944-.163 13.96 13.96 0 00-.679.07zm7.308-5.808l1.054.234c.109 1.234.226 2.787.351 4.66.125 1.859.258 4.053.398 6.582-.14.468-.413.703-.819.703-.282 0-.555-.11-.82-.328a1.524 1.524 0 01-.469-.844c.016-.234.024-.616.024-1.147a367.351 367.351 0 00.093-4.028l.047-2.272.047-2.038c.031-.64.063-1.147.094-1.522zm3.747 12.529l-1.007-.538c.406-1.015 1.468-2.982 3.186-5.902-.906-1.233-1.937-3.287-3.092-6.16h1.031c.577 1.219 1.553 2.803 2.927 4.755.235-.328.539-.835.914-1.522.39-.687.765-1.28 1.124-1.78.375-.5.797-.937 1.265-1.312.562.312.843.68.843 1.1 0 .235-.054.461-.164.68-.421.515-.96 1.327-1.616 2.436-.656 1.108-1.062 1.78-1.218 2.014 1.655 2.31 2.772 4.052 3.35 5.223 0 .593-.266.89-.797.89s-.937-.258-1.218-.773c-.281-.937-1.023-2.264-2.225-3.982-.265.438-.812 1.234-1.64 2.39-.812 1.14-1.366 1.967-1.663 2.482zm23.072-12.201l-.117 1.007a12.193 12.193 0 00-1.687-.14c-1.077 0-1.967.327-2.67.983a4.975 4.975 0 00-1.452 2.295c-.25.875-.375 1.85-.375 2.928 0 .5.031.944.094 1.335.062.39.172.773.328 1.147.171.375.429.672.773.89.359.203.796.305 1.311.305.687 0 1.562-.133 2.624-.398.328-.125.585-.188.773-.188.374 0 .601.438.679 1.312-1.374.437-2.647.656-3.818.656-1.702 0-2.858-.414-3.467-1.242-.593-.843-.89-2.201-.89-4.075 0-1.093.071-2.045.211-2.857a8.013 8.013 0 01.796-2.295 3.812 3.812 0 011.617-1.64c.718-.375 1.592-.562 2.623-.562 1.155 0 2.038.18 2.647.539zm.726.866l-.211-1.03c2.092-.125 5.387-.297 9.884-.516.375.016.695.157.961.422.265.266.398.547.398.843 0 .469-.312.734-.937.797l-4.38-.211c.078 1.17.117 2.88.117 5.129.016 2.233.047 3.864.094 4.895-.141.453-.414.679-.82.679-.265 0-.523-.11-.773-.328a1.396 1.396 0 01-.468-.796c.218-3.841.445-7.065.679-9.673l-4.544-.21zm11.102 5.762c0-.625.063-1.32.188-2.085.14-.765.343-1.569.609-2.412.265-.843.663-1.546 1.194-2.108.531-.562 1.148-.843 1.85-.843 1.5 0 2.702.68 3.608 2.038.905 1.342 1.358 2.841 1.358 4.496 0 .703-.078 1.406-.234 2.108a9.228 9.228 0 01-.679 2.038 4.469 4.469 0 01-1.359 1.686c-.578.437-1.257.687-2.038.75-1.436-.188-2.545-.797-3.326-1.827-.78-1.046-1.171-2.327-1.171-3.841zm3.982-6.23c-.546.062-1.007.562-1.382 1.499s-.617 1.85-.726 2.74a19.008 19.008 0 00-.164 2.319c0 .874.265 1.686.796 2.435.547.734 1.156 1.101 1.827 1.101.484 0 .922-.187 1.312-.562.39-.375.695-.835.914-1.382a8.689 8.689 0 00.515-1.686 6.993 6.993 0 00.187-1.499c0-1.28-.289-2.397-.866-3.35-.578-.951-1.382-1.49-2.413-1.615zm7.003-1.101l1.312.234c0 .328.008.57.023.726.859-.546 1.726-.82 2.6-.82 1.421 0 2.53.61 3.326 1.828.797 1.217 1.195 2.6 1.195 4.145 0 .78-.062 1.53-.187 2.248-.11.703-.313 1.429-.609 2.178a4.012 4.012 0 01-1.382 1.78c-.609.438-1.351.656-2.225.656-.828 0-1.624-.219-2.39-.656.063 2.733.118 4.763.164 6.09-.14.484-.413.726-.819.726-.281 0-.555-.117-.82-.352a1.413 1.413 0 01-.469-.82l.281-17.963zm1.523 2.483l.07 7.565c.188.374.476.679.867.913.39.218.82.328 1.288.328.609 0 1.124-.195 1.546-.586.437-.39.742-.905.913-1.545a11.08 11.08 0 00.375-1.827 12.96 12.96 0 00.117-1.78c0-2.654-.898-3.982-2.693-3.982-.578 0-1.117.086-1.616.258-.485.156-.773.375-.867.656zm8.83 4.848c0-.625.063-1.32.188-2.085.14-.765.343-1.569.609-2.412.265-.843.663-1.546 1.194-2.108.531-.562 1.148-.843 1.851-.843 1.499 0 2.701.68 3.607 2.038.905 1.342 1.358 2.841 1.358 4.496 0 .703-.078 1.406-.234 2.108a9.228 9.228 0 01-.679 2.038 4.459 4.459 0 01-1.359 1.686c-.578.437-1.257.687-2.038.75-1.436-.188-2.545-.797-3.326-1.827-.78-1.046-1.171-2.327-1.171-3.841zm3.982-6.23c-.546.062-1.007.562-1.382 1.499s-.617 1.85-.726 2.74a19.008 19.008 0 00-.164 2.319c0 .874.266 1.686.796 2.435.547.734 1.156 1.101 1.827 1.101.484 0 .922-.187 1.312-.562.39-.375.695-.835.914-1.382a8.689 8.689 0 00.515-1.686 6.993 6.993 0 00.187-1.499c0-1.28-.289-2.397-.866-3.35-.578-.951-1.382-1.49-2.413-1.615zm13.726-.656l1.054.234.538 11.36c-.14.468-.413.702-.819.702-.281 0-.555-.117-.82-.351a1.361 1.361 0 01-.492-.82c0-.047.07-1.366.211-3.958v-.188a29.688 29.688 0 00-1.944-.046c-1.296 0-2.272-.04-2.928-.118.078.906.179 2.366.304 4.38-.14.484-.413.726-.819.726-.281 0-.555-.11-.82-.328a1.524 1.524 0 01-.469-.843c.047-.78.071-1.561.071-2.342 0-.5-.008-1.249-.024-2.248-.015-1-.023-1.741-.023-2.225 0-1.5.047-2.756.14-3.77l1.054.257c.313 3.388.477 5.129.492 5.223 2.67.14 4.045.21 4.123.21.64 0 .96-.039.96-.117 0-.312.031-1.304.094-2.974.062-1.67.101-2.592.117-2.764z" fill="#000"/><path fill-rule="evenodd" clip-rule="evenodd" d="M225.223 86.1c-9.522 8.846-22.677 15.597-34.964 18.396-21.987 5.008-68.051 10.934-109.272 7.341-20.608-1.797-40.062-5.977-54.7-13.883C11.629 90.037 1.764 78.354.482 61.598c-.64-8.346.754-15.313 3.718-21.102 2.963-5.79 7.479-10.369 13.035-13.967C28.33 19.343 43.61 16.045 59.137 14.8c15.543-1.246 31.41-.44 43.732.64 6.163.54 11.444 1.147 15.357 1.602l.368.042c1.792.209 3.277.381 4.409.496.605.061 1.103.105 1.491.13.4.025.646.026.768.014l.124 1.162c-.232.024-.569.015-.968-.01a42.148 42.148 0 01-1.537-.133c-1.142-.116-2.634-.29-4.422-.497l-.373-.043c-3.911-.455-9.177-1.061-15.322-1.599-12.293-1.076-28.084-1.877-43.53-.639-15.46 1.24-30.5 4.516-41.346 11.54-5.414 3.506-9.773 7.94-12.627 13.516-2.854 5.575-4.22 12.324-3.595 20.49C2.911 77.774 12.455 89.15 26.86 96.93c14.428 7.792 33.693 11.952 54.232 13.742 41.07 3.581 87.006-2.328 108.898-7.315 12.088-2.753 25.053-9.408 34.416-18.106 9.375-8.708 15.033-19.356 12.807-30.12-2.226-10.766-12.395-21.915-35.324-31.499C178.977 14.055 143.452 6.1 90.792 1.646L90.894.48c52.715 4.459 88.382 12.43 111.46 22.076 23.061 9.638 33.681 21.01 36.024 32.342 2.345 11.336-3.645 22.367-13.155 31.202z" fill="#000"/></svg>