<svg width="221" height="141" fill="none" xmlns="http://www.w3.org/2000/svg"><path d="M215.462 32.182l3.893-2.254a3.894 3.894 0 001.626-3.563 12.26 12.26 0 00-1.62-5.447 12.223 12.223 0 00-3.899-4.125 3.863 3.863 0 00-3.893-.408l-3.893 2.146 7.786 13.65z" fill="#1D1D1B"/><path d="M210.544 35.595l5.925-3.434a4.063 4.063 0 001.711-3.799 12.904 12.904 0 00-1.706-5.796 12.862 12.862 0 00-4.155-4.377 4.033 4.033 0 00-4.128-.408l-5.925 3.434 8.278 14.38z" fill="#3C3C3B"/><path d="M200.553 25.014c0-3.756 2.609-5.259 5.861-3.392a12.858 12.858 0 014.142 4.38 12.9 12.9 0 011.697 5.794c0 3.756-2.609 5.258-5.839 3.39a12.862 12.862 0 01-4.155-4.376 12.904 12.904 0 01-1.706-5.796z" fill="#1D1D1B"/><path d="M211.782 34.221l5.925-3.434a5.89 5.89 0 01-.32.537l-5.819 3.434c.083-.174.155-.354.214-.537zm.319-.988l5.883-3.434a3.321 3.321 0 01-.107.43l-5.883 3.412c.048-.133.084-.27.107-.408zm.129-.859l5.926-3.434c.011.122.011.244 0 .365l-5.947 3.499s.021-.3.021-.43zm.022-.814l5.925-3.413v.365l-5.925 3.434v-.129a.855.855 0 000-.257zm-.043-.752l5.925-3.434v.343l-5.925 3.413v-.322zm-.108-.73l5.883-3.434a1.575 1.575 0 000 .322l-5.925 3.434a.428.428 0 00.042-.322zm-.171-.708l5.925-3.413v.3l-5.925 3.435a1.923 1.923 0 000-.322zm-.19-.666l5.925-3.434c.01.1.01.2 0 .3l-5.903 3.435a.366.366 0 00-.022-.3zm-.172-.664l5.904-3.434c.045.096.081.197.107.3l-6.011 3.434v-.3zm-.32-.645l5.925-3.434.129.28-5.926 3.433-.128-.279zm-.281-.622l5.925-3.434.128.279-5.925 3.434-.128-.28zm-.319-.601l5.926-3.434.128.257-5.925 3.37-.129-.193zm-.363-.602l5.925-3.498c.062.083.119.169.171.258l-5.925 3.412-.171-.171zm-.365-.557l5.925-3.434c.05.084.107.163.171.236l-5.925 3.434a2.227 2.227 0 00-.171-.236zm-.492-.558l5.925-3.434.171.236-5.925 3.434-.171-.236zm-.344-.536l5.904-3.434c.082.068.154.147.214.236l-5.925 3.498-.193-.3zm-.469-.537l5.925-3.456.193.236-5.904 3.434-.214-.214zm-.513-.493l5.925-3.434.214.214-5.904 3.434-.235-.214zm-.534-.473l5.904-3.434.257.215-5.925 3.434-.236-.215zm-.599-.343l5.904-3.434.278.193-5.861 3.24h-.321zm-.664-.515l5.925-3.434h.214l-5.925 3.434-.193-.108-.021.108zm-.748-.365l6.01-3.413.343.15-5.926 3.435-.427-.172zm-.879-.279l5.925-3.434.406.107-5.861 3.434-.47-.107zm-1.24-.086l5.989-3.434c.206-.021.414-.021.62 0l-5.925 3.434a3.009 3.009 0 00-.684 0z" fill="#1D1D1B"/><path d="M208.043 36.861l2.139-1.288a4.053 4.053 0 001.69-3.734 12.73 12.73 0 00-1.677-5.669 12.674 12.674 0 00-4.056-4.29 4.037 4.037 0 00-4.064-.408l-2.139 1.288 8.107 14.101z" fill="#3C3C3B"/><path d="M198.242 26.471c0-3.67 2.567-5.15 5.733-3.305a12.642 12.642 0 014.07 4.285 12.7 12.7 0 011.684 5.674c0 3.67-2.567 5.15-5.754 3.326a12.864 12.864 0 01-4.041-4.31 12.913 12.913 0 01-1.692-5.67z" fill="#1D1D1B"/><path d="M203.997 39.394l3.572-2.146a4.115 4.115 0 001.711-3.82 12.9 12.9 0 00-1.697-5.794 12.858 12.858 0 00-4.142-4.38 4.08 4.08 0 00-4.15-.408l-3.572 2.146 8.278 14.402z" fill="#3C3C3B"/><path d="M193.988 28.813c0-3.756 2.631-5.28 5.861-3.392a12.852 12.852 0 014.155 4.377 12.904 12.904 0 011.706 5.797c0 3.756-2.631 5.258-5.861 3.39a12.997 12.997 0 01-4.141-4.384 13.045 13.045 0 01-1.72-5.788z" fill="#9D9D9C"/><path d="M205.151 38.02l3.594-2.147c-.09.19-.197.37-.321.537l-3.572 2.146c.112-.171.212-.35.299-.536zm.405-.923l3.572-2.146c-.023.146-.058.29-.107.429l-3.572 2.146a2.19 2.19 0 00.107-.429zm.128-.923l3.572-2.146v.386l-3.594 2.146a2.17 2.17 0 00.022-.386zm.023-.816l3.572-2.146v.343l-3.572 2.147v-.344zm-.064-.75l3.593-2.147v.344l-3.572 2.146a1.645 1.645 0 00-.021-.343zm-.108-.731l3.594-2.147v.322l-3.572 2.147-.022-.322zm-.15-.708l3.572-2.146c.012.1.012.2 0 .3l-3.594 2.146.022-.3zm-.235-.666l3.573-2.146c.009.1.009.2 0 .3l-3.573 2.147v-.3zm-.195-.664l3.594-2.147v.3l-3.573 2.147c0-.1-.008-.2-.021-.3zm-.252-.645l3.572-2.146.129.279-3.573 2.146-.128-.279zm-.301-.537l3.594-2.146.128.28-3.572 2.145c-.043-.279-.107-.279-.15-.279zm-.324-.686l3.594-2.146.128.279-3.572 2.146a1.632 1.632 0 00-.15-.279zm-.34-.602l3.573-2.146.171.257-3.594 2.146a1.608 1.608 0 00-.15-.257zm-.365-.558l3.572-2.146.171.258-3.593 2.146-.15-.258zm-.361-.558l3.572-2.146.171.236-3.572 2.146-.171-.236zm-.492-.535l3.572-2.146c.082.068.154.147.214.236l-3.594 2.146-.192-.236zm-.471-.538l3.593-2.146.193.215-3.572 2.146-.214-.215zm-.494-.493l3.572-2.146.235.214-3.593 2.146-.214-.214zm-.557-.473l3.594-2.147.235.215-3.572 2.146-.257-.214zm-.598-.45l3.573-2.146.278.193-3.573 2.146-.278-.193zm-.664-.407l3.594-2.147h.107l.192.13-3.593 2.145-.193-.107-.107-.021zm-.726-.366l3.572-2.146.342.171-3.572 2.147-.342-.172zm-.899-.278l3.594-2.147.406.13-3.593 2.145-.407-.128zm-1.216-.086l3.572-2.147c.206-.021.414-.021.62 0l-3.572 2.147a2.974 2.974 0 00-.62 0z" fill="#1D1D1B"/><path d="M200.186 41.604l3.102-1.803a4.122 4.122 0 001.733-3.799 13.086 13.086 0 00-1.72-5.798 13.036 13.036 0 00-4.141-4.397 4.273 4.273 0 00-4.15-.407l-3.102 1.803 8.278 14.401z" fill="#3C3C3B"/><path d="M190.178 30.999c0-3.735 2.609-5.258 5.861-3.391a13.043 13.043 0 015.839 10.195c0 3.734-2.609 5.258-5.839 3.39a13.001 13.001 0 01-5.861-10.195z" fill="#1D1D1B"/><path d="M197.411 43.214l2.267-1.31a4.134 4.134 0 001.712-3.82 12.917 12.917 0 00-1.707-5.796 12.86 12.86 0 00-4.154-4.377 4.104 4.104 0 00-4.129-.408l-2.289 1.31 8.3 14.401z" fill="#3C3C3B"/><path d="M187.396 32.63c0-3.755 2.632-5.279 5.862-3.39a12.86 12.86 0 014.154 4.377 12.918 12.918 0 011.707 5.796c0 3.756-2.631 5.259-5.861 3.391a12.977 12.977 0 01-4.141-4.385 13.033 13.033 0 01-1.721-5.788z" fill="#1D1D1B"/><path d="M198.736 41.84l2.139-1.309a5.46 5.46 0 01-.32.515l-2.268 1.331c.164-.166.314-.346.449-.537zm.234-.987l2.268-1.31a3.008 3.008 0 01-.107.409l-2.268 1.309c.043-.129.064-.258.107-.408zm.128-.859l2.267-1.33c.011.128.011.257 0 .386l-2.267 1.31a1.064 1.064 0 010-.366zm.019-.751l2.268-1.309v.344l-2.268 1.309v-.344zm-.062-.815l2.267-1.33c.009.114.009.228 0 .343l-2.267 1.309a.83.83 0 000-.322zm-.104-.73l2.268-1.31v.301l-2.268 1.33v-.321zm-.215-.6l2.268-1.31v.301l-2.289 1.31.021-.301zm-.129-.773l2.268-1.374c.009.1.009.2 0 .3l-2.139 1.353-.129-.28zm-.236-.666l2.268-1.33c.045.096.08.196.106.3l-2.267 1.309s-.064-.193-.107-.28zm-.256-.708l2.268-1.309.128.28-2.289 1.308s-.064-.128-.107-.279zm-.299-.558l2.268-1.309c.058.081.108.167.15.258l-2.289 1.33-.129-.279zm-.322-.601l2.289-1.33.128.278-2.267 1.31-.15-.258zm-.342-.601l2.268-1.31.171.258-2.289 1.31-.15-.258zm-.384-.579l2.288-1.31.171.258-2.288 1.245-.171-.193zm-.409-.537l2.375-1.417.171.236-2.31 1.417-.236-.236zm-.425-.558l2.267-1.309.214.236-2.289 1.31-.192-.237zm-.471-.515l2.267-1.31c.077.067.148.139.214.215l-2.267 1.331-.214-.236zm-.514-.494l2.289-1.33.214.235-2.267 1.245-.236-.15zm-.49-.472l2.139-1.33.257.214-2.289 1.309-.107-.193zm-.645-.451l2.268-1.31c.105.045.2.11.278.194l-2.289 1.31-.257-.194zm-.662-.408l2.289-1.33.214.128-2.289 1.31-.192-.108h-.022zm-.728-.363l2.267-1.31.342.15-2.288 1.31-.321-.15zm-.899-.302l2.268-1.31.428.108-2.289 1.31-.407-.108zm-1.218-.002l2.267-1.307h.62l-2.288 1.308h-.599z" fill="#1D1D1B"/><path d="M194.456 45.338l2.14-1.245a4.293 4.293 0 001.796-3.97 13.602 13.602 0 00-1.769-6.106 13.55 13.55 0 00-4.348-4.626 4.27 4.27 0 00-4.279-.429l-2.139 1.245 8.599 15.131z" fill="#3C3C3B"/><path d="M184.039 34.263c0-3.907 2.738-5.495 6.118-3.542a13.55 13.55 0 014.348 4.626 13.603 13.603 0 011.77 6.106c0 3.906-2.738 5.494-6.118 3.541a13.54 13.54 0 01-4.348-4.626 13.59 13.59 0 01-1.77-6.105z" fill="#1D1D1B"/><path d="M190.179 31.431a12.228 12.228 0 015.561 9.551.28.28 0 010 .129c0 3.434-2.481 4.765-5.454 3.048a12.084 12.084 0 01-3.875-4.096 12.141 12.141 0 01-1.601-5.413c-.129-3.476 2.288-4.893 5.369-3.219z" fill="#575756"/><path d="M190.177 31.431a12.218 12.218 0 013.918 4.11 12.264 12.264 0 011.643 5.441.28.28 0 010 .13c-.256 2.875-2.438 3.948-5.091 2.424a11.37 11.37 0 01-3.616-3.84 11.41 11.41 0 01-1.496-5.067c-.128-3.09 1.925-4.442 4.642-3.198z" fill="#1D1D1B"/><path d="M188.207 32.61a2.836 2.836 0 011.968.194 9.303 9.303 0 013.013 3.133 9.334 9.334 0 011.265 4.164 2.99 2.99 0 01-.749 1.932 2.497 2.497 0 01-3.144 0 8.564 8.564 0 01-2.778-2.926 8.608 8.608 0 01-1.137-3.878c-.058-.547.062-1.1.344-1.572s.709-.84 1.218-1.046z" fill="#3C3C3B"/><path d="M188.208 32.61a2.836 2.836 0 011.968.194 9.294 9.294 0 013.013 3.133 9.334 9.334 0 011.265 4.164 2.989 2.989 0 01-.748 1.932 3.028 3.028 0 01-2.311-.472 8.588 8.588 0 01-3.957-6.61 3.05 3.05 0 01.77-2.34z" fill="#000"/><path d="M1.087 57.083c.422-24.206 9.825-44.604 15.468-52.774 8.378 9.596 10.776 28.095 12.303 36.292 0 0-11.409 24.445-11.48 28.578-.073 4.132 16.523 35.9 16.726 37.793.203 1.894-6.832 8.739-10.831 12.803 0 0-19.864-43.754-20.981-47.316-1.117-3.563-1.205-15.376-1.205-15.376z" fill="#002D5F"/><path d="M173.019 28.014c.002-.305.096-.608.272-.872.176-.264.425-.478.718-.616l3.972-2.422 3.045-1.87a7.802 7.802 0 013.282-.94 7.288 7.288 0 013.288.567l.06.035a2.1 2.1 0 01.942.7c.236.315.374.69.399 1.086l.016 3.8 8.998 4.468.009 2.134 2.275 1.138c.272.102.507.273.68.496.174.223.28.49.307.771l.11 15.594a1.648 1.648 0 01-.306.791 1.813 1.813 0 01-.67.563l-1.576.963a5.727 5.727 0 01-2.4.684 5.35 5.35 0 01-2.404-.412l-1.257-.625-14.446-7.168-2.833-1.41-1.377-.677a1.554 1.554 0 01-.685-.498 1.484 1.484 0 01-.309-.775l-.11-15.594v.089z" fill="#575756"/><path d="M187.514 25.22a2.732 2.732 0 001.044-.819 2.27 2.27 0 00.469-1.154l.098 15.97a2.26 2.26 0 01-.455 1.15 2.713 2.713 0 01-1.029.822l-1.206.733-.098-15.997 1.177-.704zm8.873 8.446l.106 16.025 1.612-1.5-.106-16.025-1.612 1.5z" fill="#1D1D1B"/><path d="M174.094 29.752l1.374.645 2.827 1.317 14.413 6.812 1.254.592c.744.3 1.566.425 2.4.365a5.885 5.885 0 002.397-.707l1.575-.968c.277-.133.516-.331.692-.574.175-.243.281-.521.305-.805l.087 15.266c-.026.283-.132.56-.308.8-.175.242-.413.44-.689.573l-1.575.967a5.884 5.884 0 01-2.397.708 5.397 5.397 0 01-2.4-.365l-1.255-.592-14.412-6.787-2.827-1.336-1.374-.64a1.517 1.517 0 01-.683-.476 1.41 1.41 0 01-.308-.754l-.086-15.26c.028.275.135.533.309.747.174.215.409.377.681.472z" fill="#1D1D1B"/><path d="M174.003 26.664c-1.317.793-1.314 1.905.007 2.537l1.366.63 2.799 1.283 14.338 6.637 1.248.577a5.475 5.475 0 002.388.356 5.951 5.951 0 002.385-.69l1.566-.944c1.317-.787 1.314-1.904-.007-2.53l-3.637-1.667 1.387-1.39-11.407-5.241 1.099-.681c1.804-1.082 1.806-2.628-.009-3.456l-.027-.082a7.443 7.443 0 00-3.265-.49 8.094 8.094 0 00-3.261.947l-3.008 1.83-3.962 2.374z" fill="#575756"/><path d="M189.594 33.97l2.758-.378 3.275-3.173.005 1.584-3.275 3.173-2.765.384-8.058-3.618-.005-1.584 8.065 3.612z" fill="#1D1D1B"/><path d="M181.834 28.6l-.364 1.467 8.086 3.698 2.763-.386 3.281-3.247-.286-1.09-5.634-2.595-2.119-.004-5.727 2.156z" fill="#4B4B4A"/><path d="M180.896 52.998l2.76-.382 3.279-3.215 1.011 1.932-4.285 2.888-.654.425c-.601.39-1.342.452-1.955.162l-7.775-3.684a1.85 1.85 0 01-1.052-1.688l-.002-.873 8.673 4.435z" fill="#1D1D1B"/><path d="M173.139 47.622c-1.464.532-1.024 1.284-.365 1.465l8.085 3.693c1.375.721 1.796.163 3.111-.516l3.94-2.65-1.294-1.549-5.633-2.591-2.298-.29-5.546 2.438z" fill="#4B4B4A"/><path d="M179.338 26.2l.003.941a.83.83 0 01-.163.41.974.974 0 01-.362.293c-.395.21-.832.334-1.275.365a2.958 2.958 0 01-1.278-.19.811.811 0 01-.363-.243.715.715 0 01-.165-.387l-.003-.94 3.606-.248z" fill="#1D1D1B"/><path d="M176.242 25.655a.855.855 0 00-.385.282.695.695 0 00-.145.42c0 .149.052.289.148.402a.714.714 0 00.385.229c.396.155.834.22 1.278.189.443-.03.88-.155 1.275-.365a.85.85 0 00.385-.282.695.695 0 00.145-.42.616.616 0 00-.148-.402.707.707 0 00-.385-.229 2.96 2.96 0 00-1.278-.189c-.443.03-.88.156-1.275.365z" fill="#878787"/><path d="M187.006 21.354l.003 1.51c-.023.231-.116.46-.268.66a1.64 1.64 0 01-.599.482 5.485 5.485 0 01-2.113.622 4.977 4.977 0 01-2.114-.27 1.31 1.31 0 01-.603-.38 1.113 1.113 0 01-.274-.617l-.003-1.51 5.971-.497z" fill="#1D1D1B"/><path d="M181.883 20.505c-1.165.676-1.163 1.647.003 2.14.655.24 1.38.332 2.114.27a5.485 5.485 0 002.113-.622c1.164-.676 1.162-1.647-.004-2.14a5.022 5.022 0 00-2.114-.266 5.524 5.524 0 00-2.112.618z" fill="#3C3C3B"/><path d="M184 22.291c.941-.065 1.703-.517 1.702-1.01-.002-.493-.766-.84-1.707-.776-.941.065-1.703.517-1.701 1.01.001.493.765.84 1.706.776z" fill="#878787"/><path d="M183.38 25.904c-.289.168-.288.418.002.561.163.066.342.095.524.085.181-.01.36-.059.522-.143.289-.174.288-.425-.002-.561a1.215 1.215 0 00-.524-.086 1.29 1.29 0 00-.522.144zm15.663 9.625l.002 1.068a.938.938 0 01-.191.47 1.177 1.177 0 01-.427.34 3.89 3.89 0 01-1.487.437 3.532 3.532 0 01-1.489-.186.92.92 0 01-.422-.27.783.783 0 01-.191-.435l-.002-1.069 4.207-.355z" fill="#1D1D1B"/><path d="M196.919 36.647c1.164-.099 2.106-.657 2.105-1.247-.001-.59-.945-.989-2.109-.89-1.163.098-2.106.656-2.105 1.246.001.59.946.989 2.109.89z" fill="#3C3C3B"/><path d="M198.71 34.343l.002.9a.79.79 0 01-.164.395.989.989 0 01-.362.285 3.29 3.29 0 01-1.257.37 2.98 2.98 0 01-1.258-.158.77.77 0 01-.359-.224.65.65 0 01-.162-.367l-.002-.9 3.562-.3z" fill="#1D1D1B"/><path d="M195.639 33.841a.867.867 0 00-.375.279.667.667 0 00-.141.403c0 .14.05.273.143.38a.691.691 0 00.375.215c.39.14.821.194 1.258.157a3.287 3.287 0 001.257-.37.858.858 0 00.374-.278.668.668 0 00.142-.404c0-.14-.05-.273-.143-.38a.692.692 0 00-.375-.214 2.978 2.978 0 00-1.258-.158 3.282 3.282 0 00-1.257.37z" fill="#3C3C3B"/><path d="M196.867 34.764c.411-.028.744-.224.743-.438 0-.214-.334-.364-.745-.336-.411.029-.743.225-.743.439.001.214.334.364.745.335z" fill="#1D1D1B"/><path d="M200.253 48.49a1.63 1.63 0 01-.228.75 1.851 1.851 0 01-.564.592c-.447.258-.805.084-.807-.383l-.027-6.294c.011-.26.089-.519.228-.752.139-.234.335-.436.571-.59.44-.264.798-.09.8.384l.027 6.293z" fill="#575756"/><path d="M177.139 35.14l.019 7.09c.017.359.125.702.316 1 .19.299.457.545.779.717l10.099 4.717 1.068 1.493 1.228-.758a.801.801 0 00.244-.291.7.7 0 00.073-.357l-.021-8.129a2.017 2.017 0 00-.319-.981 2.083 2.083 0 00-.769-.704l-11.631-5.508a.74.74 0 00-.372-.105.83.83 0 00-.392.091l-1.229.758.907.967z" fill="#706F6F"/><path d="M177.014 34.15l11.631 5.478c.316.172.579.415.768.71.189.294.299.63.321.984l.021 8.14c.002.626-.483.949-1.083.666l-11.63-5.49a2.1 2.1 0 01-.765-.7 2.04 2.04 0 01-.324-.975l-.021-8.14c-.002-.657.483-.955 1.082-.672z" fill="#1D1D1B"/><path d="M177.16 35.203a.309.309 0 01.147.027l10.909 5.152c.185.102.336.248.44.425.119.17.189.37.201.58l.02 7.586a.155.155 0 01-.019.086.185.185 0 01-.151.099.173.173 0 01-.089-.016l-11.135-5.241a1.159 1.159 0 01-.441-.426 1.13 1.13 0 01-.207-.61l-.02-7.355a.297.297 0 01.105-.222.34.34 0 01.24-.085z" fill="#706F6F"/><path d="M177.154 35.203a.309.309 0 01.147.027l10.912 5.154c.184.102.336.249.44.426.119.17.188.37.201.58l.02 7.59-11.125-5.245a1.158 1.158 0 01-.44-.426 1.128 1.128 0 01-.201-.55l-.02-7.413a.316.316 0 01.066-.143z" fill="#9AC8FF"/><path opacity=".5" d="M182.598 45.656l5.92-3.358-.002-.763a.85.85 0 00-.159-.422.927.927 0 00-.33-.32l-2.059-.937-6.754 4.252 3.384 1.548zm-4.648-2.382l.732.333 6.635-4.297-1.22-.557-6.424 4.288a.773.773 0 00.277.233z" fill="#fff"/><path d="M185.15 23.316a4.59 4.59 0 01.666-1.895 4.964 4.964 0 011.434-1.486l.49-.3 6.458 3.16.029 7.124-3.056 1.848-6.457-3.16.436-5.291z" fill="#3C3C3B"/><path d="M185.146 23.412l-.446 5.236 6.466 3.02.445-5.235a4.585 4.585 0 01.673-1.879 5.109 5.109 0 011.435-1.49l.492-.304-6.465-3.027-.492.305a5.052 5.052 0 00-1.438 1.49 4.543 4.543 0 00-.67 1.884z" fill="#1D1D1B"/><path d="M191.092 32.023l.456-5.355c.081-.67.316-1.327.689-1.922a5.218 5.218 0 011.469-1.524l.504-.312.019 7.194-3.137 1.92z" fill="#3C3C3B"/><path d="M164.269 40.786a2.775 2.775 0 01-.614-1.784c.004-.666-.384-1.097.024-1.64l4.517-3.12c1.932-.774 3.752 3.47 2.591 5.757l-3.812 2.157s-1.16 1.09-2.706-1.37z" fill="#1D1D1B"/><path d="M166.457 26.269l.489 8.71-2.017 1.508-.428-10.03 3.547-8.032 16.386-8.176c.344-1.366 5.555-1.83 7.025-.885l-.394 4.911c-1.349 1.744-5.546 1.298-7.025.886l.263-3.275-14.898 7.794-2.948 6.589z" fill="#181818"/><ellipse rx="3.125" ry="1.607" transform="matrix(-.39847 -.87341 .88962 -.47027 165.658 39.523)" fill="#454545"/><path d="M165.62 40.575c3.554-1.915 1.069-4.473.1-4.115l-45.351 28.323c-1.275 1.709-.542 2.9 1.531 2.764l43.72-26.972z" fill="#181818"/><path d="M125.543 67.59c1.877-1.317-.913-4.742-2.551-4.172l-98.243 60.604c-2.18 2.874-1.651 4.353 2.017 4.219l98.777-60.652z" fill="#414140"/><path d="M168.111 18.507l-.229-.444-.152.078-.072.155.453.211zm-3.945 7.28a.5.5 0 00.906.423l-.906-.422zM184.35 9.573l-16.468 8.49.458.89 16.467-8.491-.457-.89zm-16.692 8.724l-3.492 7.492.906.422 3.492-7.492-.906-.422zm35.62 24.91c-.213 1.172-.158 2.58-1.221 2.907l-2.351-.428a3.079 3.079 0 01-2.474-3.58 3.073 3.073 0 013.572-2.479l2.351.428c.881.681.335 1.98.123 3.152z" fill="#454545"/><ellipse rx="3.072" ry="3.191" transform="matrix(.99269 -.12083 .12034 .99272 202.053 43.008)" fill="#000"/><path d="M191.163 9.542c.06.791-1.441 1.55-3.353 1.695-1.911.145-3.321-.608-3.569-1.17-.391-.888.956-1.719 3.224-1.763 1.912-.145 3.638.447 3.698 1.238zm6.756 16.075c-2.748-2.224-7.933-8.174-8.356-8.403l-6.187-1.476v-.59l6.776 1.18 10.017 7.677 2.652 15.648-2.652.59-2.25-14.626z" fill="#454545"/><path d="M198.394 25.064c-2.748-2.225-8.114-8.212-8.537-8.44l-6.187-1.477c1.573.11 5.121.971 6.482-.886l2.062.59 8.838 8.858 3.335 17.19-3.335-.361-2.658-15.474z" fill="#000"/><path d="M98.901 77.942c.534 2.447.712 4.605-.867 4.006-1.483-.564-1.377-1.379-1.783-2.508l-6.487 3.996c-1.82-1.91-1.186-4.69-1.555-4.885l-.589-.223a85.353 85.353 0 002.113-3.049c1.105-1.67 2.23-3.508 2.722-4.706l5.415 3.225 4.868 1.646-3.837 2.498z" fill="#FBBEAE"/><path d="M97.87 73.798c.738 3.068 2.678 9.103.164 8.15-1.483-.564-1.377-1.379-1.783-2.508m1.619-5.642l4.868 1.646-3.837 2.498m-1.031-4.144l-5.415-3.225c-.847 2.063-3.576 6.03-4.835 7.755l.59.223c.368.195-.267 2.975 1.554 4.885l6.487-3.996m-6.566-4.234c1.873 2.881 4.42 2.341 5.46 1.712-.012.51.824 1.738 1.106 2.522" stroke="#E9B0A1" stroke-width=".5"/><path d="M43.429 108.148l-8.545-.283c-3.437 3.247-10.076 10.156-9.133 11.809.943 1.654 5.303 5.61 7.366 7.381 2.357 1.563 2.75-.651 2.651-1.953l1.179 1.363c2.12.708 2.651-1.083 2.651-2.067 3.064 1.181 3.438-1.279 3.241-2.657 2.625.877 3.139-.579 2.988-2.071-.099-.982-.768-1.777-1.52-2.416-3.727-3.168-4.587-5.937-2.646-6.153 2.651-.296 7.07 2.066 8.544-.296.295-.295.884-1.181-.295-1.181-1.178 0-5.401-1.279-6.481-1.476z" fill="#FBBEAE"/><path d="M42.84 121.741c2.624.877 3.138-.579 2.987-2.071-.099-.982-.768-1.777-1.52-2.416-3.727-3.168-4.587-5.937-2.646-6.153 2.651-.296 7.07 2.066 8.544-.296.295-.295.884-1.181-.295-1.181-1.178 0-5.401-1.279-6.481-1.476l-8.545-.283c-3.437 3.247-10.076 10.156-9.133 11.809.943 1.654 5.303 5.61 7.366 7.381 2.357 1.563 2.75-.651 2.651-1.953m7.071-3.361c-.59-.492-2.062-1.83-3.24-3.248m3.24 3.248c.197 1.378-.177 3.838-3.24 2.657m0 0l-3.83-4.724m3.83 4.724c0 .984-.531 2.775-2.652 2.067l-1.179-1.363m-2.651-3.066l2.651 3.066" stroke="#E9B0A1" stroke-width=".5"/><path d="M102.308 82.05l3.677-2.334c.626 2.987.599 8.436-3.39 6.008.308 1.632-.265 3.894-4.49 1.482.375 1.545.15 3.718-3.333 1.26-.058 1.008-.732 2.473-2.965.28-.083-.343-1.101-2.291 1.388-1.331-.958-1.59-2.046-4.362 1.26-2.74-1.032-1.749-1.55-3.875 2.87-1.917l.924.686c-.399-1.017.297-1.896 2.796-1.596.52.063.858.143 1.263.203z" fill="#FBBEAE"/><path d="M102.595 85.724c3.989 2.428 4.016-3.02 3.39-6.008l-3.677 2.335 1.234.086c-1.215-.007-1.559-.176-2.497-.289-2.5-.3-3.195.579-2.796 1.596m4.346 2.28l-3.42-1.595-.926-.685m4.346 2.28c.308 1.632-.265 3.894-4.49 1.482m0 0a21.94 21.94 0 01-1.8-1.16l-1.85-1.37m3.65 2.53c.375 1.545.15 3.718-3.333 1.26m0 0a19.04 19.04 0 01-1.12-.86 9.139 9.139 0 00-.457-.191m1.577 1.052c-.058 1.007-.732 2.472-2.965.28-.083-.344-1.101-2.292 1.388-1.332m0 0c-.958-1.59-2.046-4.362 1.26-2.74m0 0c-1.032-1.749-1.55-3.875 2.87-1.917l.924.686" stroke="#E9B0A1" stroke-width=".5"/><path d="M28.386 1.017c-4.575.828-7.15 1.613-11.976 3.496l2.76 3.152 4.9-2.67 4.142-1.552.174-2.426z" fill="#022852"/></svg>