<svg width="59" height="42" fill="none" xmlns="http://www.w3.org/2000/svg"><path d="M57.093.157H1.365C.76.157.268.649.268 1.255v39.117c0 .607.491 1.098 1.097 1.098h55.728c.606 0 1.097-.491 1.097-1.098V1.255c0-.605-.49-1.098-1.097-1.098z" fill="url(#paint0_linear)"/><path d="M58.65 6.28c0 .147-13.08.254-29.201.254-16.12 0-29.21-.107-29.21-.254 0-.147 13.08-.254 29.21-.254 16.13 0 29.2.127 29.2.254zM9.897 3.954c.432 0 .782-.307.782-.685 0-.379-.35-.685-.782-.685-.432 0-.782.306-.782.685 0 .378.35.685.782.685zm-6.271 0c.432 0 .782-.307.782-.685 0-.379-.35-.685-.782-.685-.432 0-.782.306-.782.685 0 .378.35.685.782.685zm3.324 0c.432 0 .782-.307.782-.685 0-.379-.35-.685-.782-.685-.432 0-.782.306-.782.685 0 .378.35.685.782.685zM21.686 22.78c0 2.474-1.79 3.98-4.752 3.98h-2.03c-.607 0-1.098.492-1.098 1.099v1.943a.636.636 0 11-1.27 0v-9.934c0-.607.49-1.098 1.097-1.098h3.301c2.962 0 4.752 1.496 4.752 4.01zm-1.223 0c0-1.868-1.231-2.934-3.568-2.934h-1.991c-.607 0-1.098.491-1.098 1.098v3.672c0 .606.492 1.098 1.098 1.098h1.991c2.337-.059 3.569-1.125 3.569-2.934zm12.989-4.01c.327 0 .592.264.592.591v10.465a.592.592 0 11-1.183 0v-3.69c0-.606-.492-1.097-1.098-1.097h-5.088c-.606 0-1.098.491-1.098 1.098v3.665a.616.616 0 11-1.231 0V19.386a.616.616 0 111.232 0v3.469c0 .606.49 1.098 1.097 1.098h5.088c.606 0 1.098-.492 1.098-1.098V19.36c0-.327.264-.592.591-.592zm13.525 4.01c0 2.474-1.79 3.98-4.752 3.98h-2.03c-.607 0-1.098.492-1.098 1.098v1.963a.616.616 0 11-1.232 0v-9.954c0-.606.492-1.098 1.098-1.098h3.262c2.962 0 4.752 1.497 4.752 4.01zm-1.203 0c0-1.869-1.232-2.935-3.558-2.935h-2.021c-.607 0-1.098.492-1.098 1.098v3.672c0 .607.491 1.099 1.098 1.099h1.991c2.327-.06 3.588-1.125 3.588-2.935z" fill="#fff"/><defs><linearGradient id="paint0_linear" x1="56.405" y1="20.814" x2="2.006" y2="19.176" gradientUnits="userSpaceOnUse"><stop stop-color="#A62E41"/><stop offset="1" stop-color="#E13152"/></linearGradient></defs></svg>