<svg width="124" height="87" fill="none" xmlns="http://www.w3.org/2000/svg"><g clip-path="url(#clip0)"><path d="M75.422 43.579s-3.87 10.012-4.356 11.658a5.645 5.645 0 01-1.365 2.302 5.69 5.69 0 01-2.276 1.422 16.402 16.402 0 01-14.552-2.18 6.179 6.179 0 01-1.697-2.053 6.13 6.13 0 01-.67-2.57c-.172-1.736-.757-12.425-.757-12.425l25.673 3.846z" fill="#1D1D1B"/><path d="M61.59 48.22c-7.143-1.07-12.439-5.258-11.827-9.354.613-4.097 6.9-6.55 14.044-5.48 7.144 1.07 12.44 5.259 11.827 9.355-.612 4.097-6.9 6.55-14.043 5.48zm6.72 11.055l-1.015-.802a2.025 2.025 0 01-.557-1.994 6.287 6.287 0 011.236-2.67 6.333 6.333 0 012.318-1.82 2.022 2.022 0 012.052.096l1.014.802-5.048 6.388z" fill="#3C3C3B"/><path d="M73.96 54.857c.27-1.813-.9-2.733-2.577-2.058a6.35 6.35 0 00-2.316 1.824 6.306 6.306 0 00-1.238 2.668c-.27 1.812.898 2.742 2.575 2.066a6.362 6.362 0 002.318-1.827 6.316 6.316 0 001.237-2.673z" fill="#1D1D1B"/><path d="M70.14 60.799l-1.625-1.284a2.044 2.044 0 01-.577-1.997 6.456 6.456 0 011.28-2.73 6.502 6.502 0 012.385-1.86 2.09 2.09 0 012.098.114l1.624 1.285-5.186 6.472z" fill="#3C3C3B"/><path d="M75.901 56.324c.28-1.868-.918-2.793-2.664-2.109a6.494 6.494 0 00-2.388 1.852 6.448 6.448 0 00-1.285 2.727c-.28 1.868.917 2.802 2.672 2.12a6.504 6.504 0 002.385-1.859 6.457 6.457 0 001.28-2.73z" fill="#9D9D9C"/><path d="M69.628 60.035l-1.633-1.295c.031.099.072.194.12.286l1.634 1.295a2.467 2.467 0 01-.121-.286zm-.096-.511l-1.675-1.273c0 .072.005.143.017.213l1.686 1.265-.028-.205zm.008-.438l-1.616-1.283a1.157 1.157 0 00-.027.178l1.634 1.295a1.279 1.279 0 01.009-.19zm.05-.403l-1.606-1.281-.025.168 1.624 1.294.01-.066a.46.46 0 01-.002-.115zm.076-.371l-1.625-1.284a.945.945 0 00-.024.159l1.61 1.33c.013-.094.03-.149.04-.205zm.108-.346l-1.68-1.303c-.012.053-.02.106-.024.16l1.624 1.293.08-.15zm.104-.367l-1.634-1.295c-.01.049-.018.099-.022.15l1.63 1.322c0-.06.01-.12.026-.177zm.177-.289l-1.633-1.294c-.008.056-.015.102-.07.142l1.635 1.286a.822.822 0 01.069-.133zm.162-.31l-1.635-1.286a.818.818 0 00-.02.14l1.578 1.278.077-.132zm.176-.279l-1.635-1.285-.076.122 1.624 1.294.087-.13zm.189-.306l-1.625-1.284a.861.861 0 00-.085.12l1.624 1.294.086-.13zm.205-.275l-1.625-1.284a.603.603 0 00-.095.12l1.635 1.285s.06-.077.085-.12zm.226-.281l-1.647-1.269-.094.11 1.624 1.294.117-.135zm.227-.234l-1.634-1.295-.103.109 1.615 1.292.121-.106zm.239-.25l-1.635-1.286-.103.108 1.626 1.285a.606.606 0 00.112-.107zm.255-.23l-1.619-1.33-.121.105 1.634 1.286.106-.06zm.274-.225l-1.635-1.287-.12.097 1.632 1.304.123-.115zm.29-.207l-1.634-1.294-.13.095 1.636 1.285.128-.086zm.306-.193l-1.633-1.294-.138.084 1.634 1.295a.651.651 0 01.137-.085zm.326-.18l-1.624-1.302a.67.67 0 00-.145.074l1.625 1.283a.674.674 0 00.143-.055zm.34-.15l-1.624-1.294-.056-.008-.103.042 1.647 1.334.103-.042.033-.033zm.42-.119l-1.633-1.294-.18.05 1.633 1.294.18-.05zm.465-.074l-1.633-1.294-.216.025 1.634 1.294a.759.759 0 01.215-.025zm.608.044l-1.626-1.284a1.75 1.75 0 00-.31-.046l1.635 1.285.301.045z" fill="#1D1D1B"/><path d="M71.875 62.177l-1.419-1.12a2.073 2.073 0 01-.576-1.996c.205-1 .645-1.935 1.284-2.733a6.494 6.494 0 012.39-1.855 2.07 2.07 0 012.09.103l1.418 1.12-5.187 6.481z" fill="#3C3C3B"/><path d="M77.64 57.692c.279-1.868-.92-2.793-2.674-2.11a6.502 6.502 0 00-2.385 1.858 6.457 6.457 0 00-1.28 2.731c-.28 1.868.918 2.793 2.664 2.109a6.493 6.493 0 002.391-1.856 6.448 6.448 0 001.284-2.732z" fill="#1D1D1B"/><path d="M73.146 63.18l-1.041-.815a2.057 2.057 0 01-.576-1.996 6.449 6.449 0 011.283-2.733 6.494 6.494 0 012.39-1.856 2.07 2.07 0 012.096.066l1.04.824-5.192 6.51z" fill="#3C3C3B"/><path d="M78.91 58.703c.278-1.869-.92-2.793-2.675-2.11a6.495 6.495 0 00-2.383 1.853 6.449 6.449 0 00-1.28 2.726c-.28 1.869.917 2.803 2.663 2.119a6.493 6.493 0 002.39-1.856 6.448 6.448 0 001.284-2.733z" fill="#1D1D1B"/><path d="M72.637 62.415l-1.04-.824c.03.097.068.192.11.284l1.043.815a1.643 1.643 0 01-.113-.275zm-.097-.521l-1.04-.814.026.214 1.041.814a.738.738 0 01-.025-.214zm0-.43l-1.041-.823a1.277 1.277 0 01-.028.186l1.042.815c.004-.06.013-.12.026-.178zm.05-.403l-1.042-.815-.026.168 1.04.824.027-.177zm.082-.369l-1.04-.824-.026.168 1.031.822a1.03 1.03 0 01.035-.166zm.111-.347l-1.04-.824-.024.16 1.042.814.022-.15zm.127-.335l-1.04-.823c-.003.05-.01.1-.023.15l1.04.823c-.019-.06.007-.104.023-.15zm.143-.321l-1.031-.822a.704.704 0 00-.023.149l1.033.813c-.021-.05-.005-.096.02-.14zm.162-.31l-1.031-.822-.077.131 1.04.824c.026-.044.042-.09.068-.133zm.18-.299l-1.031-.822a.934.934 0 00-.087.13l1.04.824.078-.131zm.148-.292l-1.04-.824-.087.13 1.108.825.019-.13zm.252-.268l-1.04-.824c-.007.047-.014.094-.095.12l1.04.823.095-.119zm.219-.302l-1.031-.822-.104.118 1.041.814.094-.11zm.222-.214l-1.04-.824-.103.108 1.04.824.103-.108zm.241-.251l-1.031-.822a1.385 1.385 0 01-.112.107l1.04.824.103-.109zm.216-.235l-1.04-.824-.11.098 1.03.823.12-.097zm.313-.221l-1.031-.822-.12.096 1.03.823.12-.097zm.291-.206l-1.031-.822-.13.095 1.033.813.128-.086zm.307-.192l-1.04-.824-.129.086 1.031.822.138-.084zm.334-.179l-1.04-.824-.148.083 1.014.81.174-.069zm.358-.156l-1.041-.815-.047-.007-.112.04 1.04.825.104-.051.056.008zm.394-.122l-1.037-.843-.171.05 1.032.814.177-.021zm.464-.074l-1.042-.815a.79.79 0 00-.206.027l1.032.813.216-.025zm.588.05l-1.042-.815a1.08 1.08 0 00-.3-.045l1.04.824.302.036z" fill="#1D1D1B"/><path d="M74.447 64.454l-.987-.788a2.14 2.14 0 01-.647-2.102 6.73 6.73 0 011.376-2.862 6.778 6.778 0 012.539-1.92 2.176 2.176 0 012.183.117l.989.779-5.453 6.776z" fill="#3C3C3B"/><path d="M80.473 59.768c.289-1.934-.966-2.924-2.793-2.214a6.824 6.824 0 00-2.494 1.94 6.777 6.777 0 00-1.345 2.852c-.29 1.934.966 2.924 2.793 2.214a6.806 6.806 0 002.495-1.94 6.758 6.758 0 001.344-2.852z" fill="#1D1D1B"/><path d="M77.664 57.916c-.872.39-1.64.978-2.241 1.718a6.052 6.052 0 00-1.22 2.538l-.009.056c-.252 1.691.89 2.54 2.502 1.913a6.077 6.077 0 002.222-1.726 6.035 6.035 0 001.202-2.537c.239-1.664-.846-2.571-2.456-1.962z" fill="#575756"/><path d="M77.663 57.916c-.872.39-1.64.978-2.24 1.718a6.052 6.052 0 00-1.221 2.538l-.008.057c-.081 1.44.93 2.135 2.36 1.575a5.679 5.679 0 002.084-1.622 5.64 5.64 0 001.119-2.387c.22-1.476-.695-2.3-2.094-1.88z" fill="#1D1D1B"/><path d="M78.505 58.643a1.415 1.415 0 00-.96-.01 4.733 4.733 0 00-1.717 1.333 4.7 4.7 0 00-.936 1.956c-.048.346.033.698.227.99a1.27 1.27 0 001.57.235 4.337 4.337 0 001.577-1.236 4.305 4.305 0 00.848-1.81c.11-.739-.138-1.263-.609-1.458z" fill="#3C3C3B"/><path d="M78.504 58.644a1.415 1.415 0 00-.96-.01 4.734 4.734 0 00-1.718 1.332c-.46.571-.78 1.24-.936 1.957-.047.346.033.697.228.989.385.137.809.118 1.18-.053a4.373 4.373 0 001.594-1.24 4.342 4.342 0 00.862-1.82 1.475 1.475 0 00-.25-1.155z" fill="#000"/><path d="M77.88 59.868c-.058.383.05.695.231.703.181.008.362-.299.41-.683.048-.385-.05-.695-.222-.702-.172-.007-.362.299-.42.682zm-.113 1.138c-.069.142-.041.28-.044.298-.003.02.173-.069.25-.2.077-.132.042-.28.045-.299.002-.018-.174.07-.25.201z" fill="#fff"/><path d="M52.722 27.886c-6.023-4.723-5.11-10.832 2.033-13.611 7.143-2.78 17.735-1.174 23.729 3.545 5.994 4.718 5.108 10.84-2.034 13.61-7.141 2.77-17.738 1.202-23.728-3.544zm24.788-9.658c-5.535-4.382-15.378-5.857-21.941-3.287-6.564 2.57-7.451 8.186-1.873 12.537 5.578 4.35 15.37 5.845 21.94 3.286 6.573-2.559 7.402-8.174 1.877-12.555l-.003.019z" fill="#878787"/><path d="M49.517 15.678l1.27.19-.696 4.661-1.27-.19.696-4.661z" fill="#878787"/><path d="M81.6 22.871l-3.216-4.655-5.987-3.218-5.443-1.331-7.529-.173-4.666 1.259-3.17 1.922-1.91 3.382c-.073-2.724.043-5.304 1.472-7.02 2.529-2.256 5.208-4.3 9.283-4.234 4.063-.3 8.149.108 12.073 1.207a21.185 21.185 0 018.719 5.976c1.298 1.99 1.33 4.354.374 6.885z" fill="#878787"/><path d="M81.966 22.162l-.414 4.38c-.371 1.328-1.571 2.476-3.143 3.54-3.132 2.052-7.477 2.7-12.735 2.19a24.23 24.23 0 01-13.08-4.959c-1.856-2.436-3.855-4.885-3.117-6.866l.559-3.736c1.64 6.453 7.683 9.431 15.43 10.907 8.342.839 14.297-.552 16.5-5.456z" fill="#878787"/><path d="M78.482 17.82c6.022 4.722 5.108 10.841-2.033 13.61-7.141 2.77-17.733 1.165-23.727-3.553-5.994-4.719-5.11-10.832 2.033-13.611 7.143-2.78 17.733-1.164 23.727 3.554zm-24.788 9.658c5.527 4.371 15.37 5.845 21.941 3.287 6.572-2.56 7.416-8.211 1.882-12.593-5.535-4.382-15.378-5.857-21.941-3.287-6.564 2.57-7.46 8.243-1.882 12.593z" fill="#878787"/><path d="M81.808 20.515l1.27.19-.696 4.662-1.27-.19.697-4.662z" fill="#878787"/><path d="M79.181 13.15c6.022 4.722 5.108 10.84-2.033 13.61-7.142 2.77-17.733 1.164-23.727-3.554-5.995-4.718-5.078-10.856 2.033-13.611 7.11-2.755 17.733-1.164 23.727 3.554zm-24.788 9.657c5.526 4.38 15.368 5.855 21.941 3.287 6.573-2.568 7.416-8.21 1.88-12.584-5.536-4.372-15.377-5.856-21.941-3.286-6.564 2.57-7.46 8.242-1.88 12.583z" fill="#1D1D1B"/><g opacity=".75"><path opacity=".75" d="M52.054 14.463a10.296 10.296 0 013.97-2.576c.316-.125.65-.237 1.01-.336a25.189 25.189 0 0120.08 3.008c.297.206.593.413.867.636 2.174 1.72 3.359 3.636 3.601 5.486.373 2.845-1.495 5.507-5.481 7.097a21.779 21.779 0 01-9.183 1.184 26.894 26.894 0 01-6.794-1.352 19.856 19.856 0 01-5.964-3.119c-4.084-3.286-4.692-7.197-2.106-10.028z" fill="#EDEDED"/><path opacity=".75" d="M63.075 20.984a6.174 6.174 0 005.49.823c1.644-.642 1.856-2.062.472-3.158a6.173 6.173 0 00-5.49-.822c-1.643.642-1.855 2.062-.472 3.157z" fill="#575756"/><g opacity=".75" fill="#C6C6C6"><path opacity=".75" d="M70.226 28.645a.85.85 0 00.564.152 18.706 18.706 0 005.13-1.142c3.194-1.25 5.118-3.254 5.427-5.643.025-.169-.19-.335-.482-.378-.291-.044-.538.063-.562.221-.286 2.24-2.073 4.102-5.054 5.27-1.548.576-3.17.931-4.819 1.054-.273.026-.431.184-.34.35a.38.38 0 00.136.116zm-16.014-4.299a23.774 23.774 0 0012.679 4.488c.282.042.506-.106.492-.27-.014-.165-.259-.326-.545-.34-5.623-.384-11.118-2.783-13.623-5.956a.783.783 0 00-.699-.21c-.257.047-.36.223-.23.386a11.824 11.824 0 001.926 1.902zm-3.319-4.796a.8.8 0 00.467.156c.282.042.488-.118.457-.294-.865-4.18 3.639-7.63 10.448-7.986.281-.015.447-.162.368-.337a.677.677 0 00-.641-.277c-7.286.389-12.134 4.085-11.22 8.586a.313.313 0 00.12.152zm15.93-8.08c.102.079.224.13.353.148a20.959 20.959 0 019.804 3.913 8.914 8.914 0 013.12 4.145.666.666 0 00.617.312c.28-.006.464-.15.412-.32a9.538 9.538 0 00-3.353-4.447 22.365 22.365 0 00-10.549-4.207c-.291-.043-.536.054-.562.222a.236.236 0 00.158.233z"/><path opacity=".75" d="M57.09 23.411c.814.636 1.703 1.17 2.647 1.59a.776.776 0 00.723-.015c.154-.13.049-.327-.156-.434-3.278-1.542-5.066-3.854-4.841-6.198.225-2.345 2.533-4.09 6.035-4.693.265-.037.378-.21.248-.373a.733.733 0 00-.688-.218c-3.867.662-6.345 2.583-6.641 5.146-.219 1.849.756 3.685 2.674 5.195zm8.495-10.016a.77.77 0 00.392.144 18.973 18.973 0 017.879 2.842c2.11 1.386 3.088 3.195 2.938 4.843-.025.169.2.336.493.37.292.035.528-.064.544-.233.174-1.808-.975-3.7-3.213-5.324a18.555 18.555 0 00-8.638-3.099c-.292-.044-.53.073-.527.246a.264.264 0 00.132.21zm-1.679 12.909c.092.07.2.116.316.133 4.953.943 10.023-.055 12.317-2.414.126-.134.049-.327-.224-.435a.728.728 0 00-.711.065c-2.09 2.152-6.704 3.055-11.218 2.198-.291-.044-.552.032-.596.197-.044.165.022.175.116.256z"/><path opacity=".75" d="M66.396 24.547c.13.096.287.15.448.154 2.867.114 5.328-.664 6.598-2.088 1.27-1.424 1.093-3.198-.491-4.753a.821.821 0 00-.716-.165c-.24.07-.306.25-.157.407 1.383 1.362 1.535 2.913.426 4.16-1.109 1.248-3.267 1.928-5.76 1.822-.282-.043-.498.116-.474.282a.313.313 0 00.126.181zM59.68 22.29c.623.481 1.3.888 2.02 1.21a.736.736 0 00.716-.036c.153-.12.05-.326-.175-.436-2.565-1.168-3.823-2.97-3.16-4.58.024-.16-.114-.333-.402-.395-.289-.063-.56.011-.62.165-.57 1.366.074 2.847 1.62 4.072zm.782-6.071a.813.813 0 00.761.114 10.52 10.52 0 018.151.123.717.717 0 00.71-.056c.136-.133.05-.327-.223-.435-3.174-1.335-6.862-1.42-9.377-.154-.187.097-.19.24-.022.408z"/><path opacity=".75" d="M62.397 21.226a7.493 7.493 0 006.693 1.003c2.038-.774 2.299-2.52.572-3.83a7.492 7.492 0 00-6.693-1.003c-2 .78-2.263 2.536-.572 3.83zm6.46-2.518c1.315 1.038 1.114 2.383-.447 2.99a5.827 5.827 0 01-5.217-.782c-1.316-1.038-1.115-2.383.446-2.99a5.883 5.883 0 015.217.782z"/></g></g><path d="M100.152 45.63l-.76 5.092a1.187 1.187 0 00.556 1.038 3.728 3.728 0 003.337.5 1.192 1.192 0 00.835-.83l.761-5.091-4.729-.708z" fill="#3C3C3B"/><path d="M102.31 47.339c-1.303-.196-2.269-.96-2.157-1.708.111-.748 1.258-1.197 2.562-1.002 1.303.196 2.269.96 2.157 1.709-.112.748-1.259 1.196-2.562 1z" fill="#1D1D1B"/><path d="M20.941 33.765l-.76 5.092a1.166 1.166 0 00.546 1.037 3.746 3.746 0 003.347.5 1.197 1.197 0 00.835-.83l.76-5.09-4.728-.709z" fill="#3C3C3B"/><path d="M23.099 35.473c-1.303-.195-2.269-.96-2.157-1.708.111-.748 1.259-1.196 2.562-1 1.303.194 2.269.96 2.157 1.707-.112.748-1.259 1.197-2.562 1.001z" fill="#1D1D1B"/><path d="M63.97 17.632l-.76 5.091a1.159 1.159 0 00.546 1.037 3.746 3.746 0 003.347.502 1.168 1.168 0 00.826-.832l.76-5.091-4.719-.707z" fill="#3C3C3B"/><path d="M68.146 17.274a1.025 1.025 0 01.493 1.029 1.015 1.015 0 01-.772.84 3.745 3.745 0 01-3.346-.502 1.026 1.026 0 01-.493-1.029 1.015 1.015 0 01.772-.84 3.744 3.744 0 013.346.502z" fill="#1D1D1B"/><path d="M57.2 62.94l-.756 5.063a1.186 1.186 0 00.547 1.037 3.824 3.824 0 003.347.502 1.196 1.196 0 00.825-.832l.757-5.063-4.72-.707z" fill="#3C3C3B"/><path d="M61.377 62.582a1.036 1.036 0 01.546 1.066 1.024 1.024 0 01-.833.858 3.82 3.82 0 01-3.347-.5 1.036 1.036 0 01-.546-1.066 1.025 1.025 0 01.834-.86 3.82 3.82 0 013.346.502z" fill="#1D1D1B"/><path d="M36.78 33.97c.182.025.368.004.538-.063l17.006-6.526a1.042 1.042 0 00.578-1.356 1.048 1.048 0 00-1.365-.577L36.52 31.972a1.033 1.033 0 00-.593 1.334 1.024 1.024 0 00.852.663zm52.663 7.888a1.049 1.049 0 001.1-.618 1.034 1.034 0 00-.306-1.22L75.882 28.795a1.05 1.05 0 00-1.542.105 1.034 1.034 0 00.252 1.516l14.364 11.225c.14.113.309.188.487.216z" fill="#B2B2B2"/><path d="M85.625 44.257l1.27.19-.697 4.661-1.27-.19.697-4.661z" fill="#878787"/><path d="M117.699 51.44l-3.207-4.655-5.992-3.247-5.451-1.342-7.529-.172-4.659 1.27-3.17 1.921-1.907 3.373c-.075-2.714.052-5.303 1.48-7.018 2.53-2.257 5.2-4.302 9.283-4.235a35.11 35.11 0 0112.061 1.234 21.229 21.229 0 018.718 5.976c1.297 2 1.333 4.326.373 6.894z" fill="#878787"/><path d="M118.067 50.721l-.405 4.39c-.38 1.319-1.57 2.468-3.142 3.531-3.142 2.051-7.487 2.7-12.745 2.188a24.19 24.19 0 01-13.07-4.956c-1.868-2.42-3.866-4.877-3.127-6.858l.558-3.737c1.639 6.463 7.683 9.431 15.439 10.908 8.331.847 14.288-.553 16.492-5.466z" fill="#878787"/><path d="M114.581 46.398c6.022 4.722 5.108 10.84-2.035 13.62-7.143 2.779-17.733 1.164-23.718-3.553-5.984-4.717-5.108-10.841 2.035-13.62 7.143-2.78 17.727-1.184 23.718 3.553zm-24.788 9.658c5.532 4.4 15.374 5.875 21.937 3.314 6.562-2.56 7.416-8.21 1.881-12.592s-15.37-5.846-21.941-3.287c-6.572 2.559-7.454 8.205-1.881 12.593l.004-.028z" fill="#878787"/><path d="M117.906 49.093l1.27.19-.697 4.661-1.269-.19.696-4.661z" fill="#878787"/><path d="M115.277 41.736c6.022 4.722 5.108 10.841-2.034 13.61-7.141 2.77-17.733 1.165-23.718-3.552-5.984-4.717-5.108-10.841 2.034-13.61 7.141-2.77 17.726-1.185 23.718 3.552zm-24.788 9.658c5.533 4.391 15.376 5.866 21.938 3.305 6.562-2.56 7.416-8.21 1.88-12.583-5.536-4.373-15.368-5.855-21.941-3.287-6.573 2.569-7.454 8.205-1.88 12.584l.003-.02z" fill="#1D1D1B"/><g opacity=".75"><path opacity=".75" d="M88.162 43.032a10.295 10.295 0 013.97-2.576c.316-.125.65-.237 1.01-.336a25.167 25.167 0 0120.05 2.956c.305.208.601.415.866.636 2.182 1.73 3.364 3.665 3.606 5.516.372 2.854-1.495 5.506-5.481 7.097a21.633 21.633 0 01-9.173 1.185 26.884 26.884 0 01-6.795-1.352 19.85 19.85 0 01-5.96-3.147c-4.086-3.2-4.694-7.111-2.093-9.979z" fill="#EDEDED"/><path opacity=".75" d="M99.17 49.57a6.194 6.194 0 005.5.825c1.644-.643 1.854-2.053.471-3.149a6.195 6.195 0 00-5.5-.823c-1.64.623-1.851 2.034-.47 3.148z" fill="#575756"/><g opacity=".75" fill="#C6C6C6"><path opacity=".75" d="M106.331 57.215a.776.776 0 00.555.15 18.776 18.776 0 005.139-1.14c3.193-1.24 5.119-3.254 5.427-5.644.025-.168-.199-.335-.481-.377-.282-.043-.538.062-.563.23-.286 2.23-2.084 4.101-5.063 5.26-1.546.58-3.169.935-4.819 1.054-.273.026-.422.185-.331.351a.275.275 0 00.136.116zm-16.014-4.299a23.754 23.754 0 0012.68 4.488c.282.042.506-.106.492-.27-.014-.165-.269-.327-.555-.342-5.623-.383-11.119-2.773-13.613-5.955a.81.81 0 00-.709-.21c-.258.056-.36.222-.23.385a11.484 11.484 0 001.935 1.904zm-3.32-4.787a.774.774 0 00.459.145c.282.042.488-.118.456-.285-.855-4.187 3.638-7.63 10.457-7.984.281-.016.438-.164.368-.337a.705.705 0 00-.641-.277c-7.32.422-12.15 4.13-11.225 8.614a.36.36 0 00.126.124zm15.929-8.081a.747.747 0 00.354.14 20.881 20.881 0 019.804 3.922 8.919 8.919 0 013.112 4.192.63.63 0 00.609.3c.279-.005.472-.138.421-.308a9.492 9.492 0 00-3.353-4.447 22.432 22.432 0 00-10.551-4.264c-.282-.043-.538.062-.561.221a.274.274 0 00.165.244z"/><path opacity=".75" d="M93.186 51.989c.82.626 1.707 1.16 2.646 1.59a.765.765 0 00.724-.025c.154-.13.05-.327-.165-.436-3.269-1.54-5.068-3.844-4.843-6.188.226-2.344 2.534-4.09 6.036-4.693.266-.046.379-.22.258-.381a.781.781 0 00-.697-.22c-3.867.663-6.345 2.584-6.632 5.148-.209 1.85.757 3.686 2.673 5.205zm8.495-10.026c.116.087.255.14.4.155a18.88 18.88 0 017.88 2.833c2.1 1.384 3.089 3.194 2.928 4.85-.024.16.21.328.494.361.283.033.538-.062.552-.222.175-1.817-.974-3.709-3.213-5.324a18.453 18.453 0 00-8.646-3.11c-.282-.042-.522.084-.527.246a.264.264 0 00.132.21zm-1.679 12.909a.72.72 0 00.325.135c4.953.942 10.014-.057 12.308-2.416.135-.133.049-.327-.224-.435a.733.733 0 00-.702.067c-2.089 2.151-6.703 3.055-11.228 2.205-.282-.042-.552.032-.595.188a.245.245 0 00.116.256z"/><path opacity=".75" d="M102.494 53.116a.823.823 0 00.448.153c2.865.124 5.336-.652 6.606-2.076 1.27-1.424 1.085-3.21-.518-4.767a.815.815 0 00-.734-.11c-.241.069-.306.25-.147.407 1.374 1.352 1.536 2.905.418 4.15-1.118 1.247-3.267 1.928-5.76 1.822-.282-.042-.498.116-.465.283a.267.267 0 00.152.138zm-6.716-2.258c.62.485 1.299.892 2.02 1.21a.776.776 0 00.724-.025c.145-.13.05-.327-.175-.437-2.574-1.168-3.832-2.971-3.207-4.587.025-.168-.112-.341-.391-.402-.28-.061-.56.011-.62.165-.533 1.372.102 2.852 1.649 4.077zm.782-6.071a.813.813 0 00.77.115 10.523 10.523 0 018.155.095.678.678 0 00.701-.058c.136-.132.049-.327-.215-.423-3.198-1.301-6.873-1.345-9.382-.117-.194.076-.202.257-.03.388z"/><path opacity=".75" d="M98.5 49.805a7.53 7.53 0 006.683 1.001c2.039-.783 2.299-2.52.574-3.84a7.536 7.536 0 00-6.684-1c-2.01.778-2.266 2.497-.574 3.839zm6.461-2.528c1.315 1.038 1.114 2.383-.448 2.999a5.886 5.886 0 01-5.218-.782c-1.314-1.047-1.113-2.392.448-2.998a5.882 5.882 0 015.218.781z"/></g></g><path d="M6.433 32.394l1.27.19-.696 4.662-1.27-.19.696-4.662z" fill="#878787"/><path d="M38.519 39.578l-3.216-4.656-5.965-3.242-5.441-1.34-7.529-.174-4.668 1.269-3.17 1.922-1.851 3.38c-.075-2.713.052-5.302 1.48-7.017 2.53-2.257 5.2-4.302 9.283-4.235 4.035-.285 8.09.128 11.985 1.222a21.232 21.232 0 018.719 5.977c1.306 2 1.324 4.324.373 6.894z" fill="#878787"/><path d="M38.886 38.86l-.416 4.388c-.38 1.319-1.57 2.468-3.142 3.532-3.188 2.043-7.477 2.7-12.735 2.19a24.21 24.21 0 01-13.08-4.96c-1.876-2.43-3.856-4.875-3.136-6.858l.558-3.737c1.63 6.462 7.683 9.431 15.43 10.907 8.36.851 14.307-.55 16.52-5.462z" fill="#878787"/><path d="M35.4 34.536c6.022 4.723 5.107 10.842-2.035 13.62-7.143 2.78-17.734 1.165-23.728-3.554-5.994-4.718-5.108-10.84 2.035-13.62 7.143-2.779 17.736-1.183 23.727 3.554zm-24.79 9.658c5.527 4.371 15.37 5.846 21.941 3.287 6.572-2.559 7.407-8.212 1.882-12.593-5.526-4.38-15.38-5.847-21.942-3.286-6.562 2.56-7.42 8.238-1.885 12.62l.004-.028z" fill="#878787"/><path d="M38.715 37.23l1.27.19-.697 4.661-1.27-.19.697-4.661z" fill="#878787"/><path d="M36.095 29.875c6.022 4.722 5.108 10.84-2.033 13.61-7.142 2.77-17.733 1.165-23.728-3.554-5.994-4.718-5.108-10.841 2.034-13.61 7.141-2.77 17.736-1.183 23.727 3.554zm-24.788 9.658c5.525 4.38 15.368 5.855 21.941 3.286 6.573-2.568 7.407-8.212 1.88-12.583s-15.377-5.856-21.941-3.287c-6.564 2.57-7.419 8.23-1.883 12.602l.003-.018z" fill="#1D1D1B"/><g opacity=".75"><path opacity=".75" d="M8.972 31.17a10.296 10.296 0 013.97-2.577c.316-.124.65-.236 1.01-.335a25.188 25.188 0 0120.08 3.008c.296.206.592.413.867.636 2.174 1.72 3.358 3.635 3.6 5.486.382 2.856-1.485 5.508-5.48 7.097a21.588 21.588 0 01-9.173 1.185 26.89 26.89 0 01-6.795-1.352 19.852 19.852 0 01-5.985-3.17c-4.078-3.198-4.685-7.11-2.094-9.978z" fill="#EDEDED"/><path opacity=".75" d="M19.989 37.71a6.174 6.174 0 005.49.823c1.643-.642 1.854-2.053.47-3.148a6.174 6.174 0 00-5.49-.823c-1.64.623-1.851 2.034-.47 3.148z" fill="#575756"/><g opacity=".75" fill="#C6C6C6"><path opacity=".75" d="M27.142 45.353c.162.12.363.174.564.151a18.703 18.703 0 005.13-1.142c3.193-1.24 5.118-3.254 5.427-5.643.025-.168-.2-.335-.482-.378-.282-.042-.538.063-.563.231-.332 2.224-2.083 4.1-5.053 5.26a17.36 17.36 0 01-4.783 1.07c-.282.024-.43.184-.34.35a.277.277 0 00.1.101zm-16.012-4.3a23.774 23.774 0 0012.679 4.488c.282.042.506-.106.492-.27-.014-.165-.259-.326-.555-.341-5.613-.383-11.118-2.774-13.613-5.955a.781.781 0 00-.7-.21c-.257.057-.36.223-.23.386.564.708 1.21 1.346 1.927 1.902zm-3.323-4.786a.81.81 0 00.469.147c.282.042.488-.118.455-.285-.864-4.189 3.631-7.642 10.449-7.986.28-.015.447-.162.367-.337a.696.696 0 00-.64-.277c-7.32.422-12.15 4.13-11.225 8.614a.36.36 0 00.125.124zm15.932-8.081c.106.072.227.12.354.139a20.884 20.884 0 019.803 3.923 8.866 8.866 0 013.113 4.191.628.628 0 00.608.301c.29-.004.473-.14.422-.31a9.482 9.482 0 00-3.354-4.446 22.391 22.391 0 00-10.51-4.21c-.291-.044-.547.06-.561.221a.263.263 0 00.125.19z"/><path opacity=".75" d="M13.996 40.127a13.437 13.437 0 002.648 1.58.736.736 0 00.723-.015c.154-.13.049-.327-.166-.436-3.268-1.54-5.067-3.844-4.842-6.188.225-2.345 2.533-4.09 6.035-4.693.257-.047.37-.222.25-.383a.763.763 0 00-.689-.218c-3.866.663-6.354 2.582-6.64 5.147-.2 1.851.775 3.688 2.681 5.206zM22.491 30.1a.81.81 0 00.4.156 18.85 18.85 0 017.88 2.833c2.11 1.385 3.09 3.194 2.938 4.852-.024.159.2.326.494.36.292.035.528-.064.543-.224.175-1.817-.975-3.708-3.213-5.323a18.46 18.46 0 00-8.637-3.109c-.282-.042-.522.085-.527.246a.264.264 0 00.122.21zm-1.669 12.911a.69.69 0 00.316.134c4.953.942 10.023-.056 12.317-2.415.126-.134.049-.327-.223-.435a.745.745 0 00-.712.066c-2.09 2.15-6.703 3.055-11.228 2.205-.282-.042-.543.033-.595.188a.253.253 0 00.125.257z"/><path opacity=".75" d="M23.305 41.254a.842.842 0 00.458.154c2.864.124 5.326-.654 6.596-2.078 1.27-1.423 1.094-3.207-.49-4.762a.794.794 0 00-.724-.109c-.241.069-.316.249-.157.406 1.374 1.352 1.49 2.898.418 4.15-1.071 1.254-3.258 1.93-5.76 1.822-.282-.043-.488.117-.465.283.026.057.07.103.124.134zm-6.717-2.258a9.486 9.486 0 002.03 1.212.764.764 0 00.715-.027c.145-.131.049-.327-.175-.437-2.573-1.178-3.824-2.97-3.16-4.58.025-.168-.122-.343-.401-.404-.28-.061-.56.012-.62.165-.542 1.37.064 2.846 1.611 4.071zm.792-6.07a.792.792 0 00.762.114 10.52 10.52 0 018.155.095.707.707 0 00.71-.057c.135-.132.049-.326-.225-.425-3.189-1.299-6.873-1.344-9.382-.116-.185.078-.192.258-.02.389z"/><path opacity=".75" d="M19.312 37.943a7.531 7.531 0 006.684 1c2.039-.782 2.299-2.52.573-3.839a7.531 7.531 0 00-6.684-1c-2 .779-2.257 2.498-.573 3.839zm6.461-2.528c1.316 1.038 1.115 2.383-.448 2.999a5.883 5.883 0 01-5.217-.782c-1.314-1.047-1.113-2.392.448-2.999a5.883 5.883 0 015.217.782z"/></g></g><path d="M71.59 60.549c.18.025.362.003.53-.064l17.015-6.525a1.045 1.045 0 00.648-.537 1.033 1.033 0 00-.201-1.198 1.05 1.05 0 00-1.207-.193L71.37 58.558a1.038 1.038 0 00-.574 1.05 1.04 1.04 0 00.803.894l-.007.047zm-22.7-3.353a1.05 1.05 0 001.03-.619 1.033 1.033 0 00-.243-1.173l-14.31-11.265a1.05 1.05 0 00-1.49.154 1.033 1.033 0 00.2 1.477L48.44 56.995c.13.105.285.175.45.201z" fill="#B2B2B2"/><path d="M42.748 60.994l1.27.19-.697 4.662-1.27-.19.697-4.662z" fill="#878787"/><path d="M74.831 68.188l-3.215-4.665-5.983-3.245-5.441-1.34-7.529-.174-4.66 1.212-3.17 1.923-1.907 3.372c-.075-2.714.043-5.304 1.47-7.01 2.53-2.266 5.208-4.3 9.284-4.244 4.044-.286 8.11.136 12.01 1.245a21.27 21.27 0 018.72 5.967c1.35 2.027 1.383 4.381.421 6.959z" fill="#878787"/><path d="M75.2 67.46l-.415 4.389c-.37 1.32-1.57 2.468-3.144 3.54-3.13 2.043-7.477 2.7-12.735 2.19a24.304 24.304 0 01-13.078-4.968c-1.858-2.427-3.858-4.866-3.118-6.856l.558-3.737c1.63 6.462 7.683 9.432 15.43 10.907 8.34.849 14.295-.533 16.502-5.465z" fill="#878787"/><path d="M71.712 63.146c6.022 4.723 5.11 10.832-2.034 13.611-7.142 2.78-17.733 1.164-23.727-3.554s-5.108-10.841 2.033-13.611c7.142-2.77 17.738-1.192 23.728 3.554zm-24.788 9.658c5.525 4.38 15.368 5.855 21.94 3.287 6.574-2.568 7.408-8.212 1.882-12.593-5.525-4.38-15.379-5.847-21.941-3.286-6.562 2.56-7.458 8.233-1.884 12.61l.003-.018z" fill="#878787"/><path d="M75.03 65.83l1.269.19-.697 4.662-1.27-.19.697-4.662z" fill="#878787"/><path d="M72.409 58.475c6.022 4.723 5.108 10.842-2.033 13.611-7.142 2.77-17.734 1.164-23.728-3.554s-5.11-10.832 2.034-13.611c7.143-2.779 17.736-1.183 23.727 3.554zm-24.788 9.658c5.527 4.371 15.37 5.846 21.941 3.287 6.572-2.559 7.407-8.212 1.881-12.593-5.525-4.38-15.377-5.856-21.94-3.286-6.565 2.57-7.459 8.233-1.886 12.62l.004-.028z" fill="#1D1D1B"/><g opacity=".75"><path opacity=".75" d="M45.284 59.77a10.43 10.43 0 013.97-2.576c.316-.124.649-.227 1.01-.335a25.15 25.15 0 0120.08 3.008c.298.197.594.403.868.626 2.175 1.72 3.359 3.636 3.602 5.487.37 2.854-1.496 5.506-5.482 7.096a21.493 21.493 0 01-9.205 1.21 27.314 27.314 0 01-6.796-1.343 20.054 20.054 0 01-5.963-3.128c-4.068-3.264-4.675-7.176-2.084-10.045z" fill="#EDEDED"/><path opacity=".75" d="M56.305 66.292a6.174 6.174 0 005.49.823c1.643-.642 1.854-2.053.47-3.148a6.174 6.174 0 00-5.49-.823c-1.643.642-1.853 2.053-.47 3.148z" fill="#575756"/><g opacity=".75" fill="#C6C6C6"><path opacity=".75" d="M63.452 73.963a.85.85 0 00.564.152 18.714 18.714 0 005.13-1.142c3.193-1.241 5.117-3.245 5.427-5.644.024-.158-.19-.334-.483-.368-.293-.034-.537.053-.562.222-.285 2.23-2.074 4.101-5.053 5.26a17.23 17.23 0 01-4.819 1.054c-.273.026-.43.174-.34.35a.558.558 0 00.136.116zM47.44 69.654a23.773 23.773 0 0012.68 4.488c.282.042.505-.096.492-.27-.012-.174-.26-.316-.545-.34-5.624-.374-11.119-2.773-13.623-5.956a.763.763 0 00-.7-.2c-.257.047-.36.222-.23.385a11.792 11.792 0 001.927 1.893zm-3.32-4.786c.137.095.3.149.467.156.282.042.49-.128.457-.295-.865-4.18 3.639-7.63 10.448-7.986.281-.015.447-.162.368-.336a.695.695 0 00-.641-.278c-7.321.432-12.15 4.13-11.225 8.615a.362.362 0 00.126.124zm15.93-8.081a.747.747 0 00.354.139 20.854 20.854 0 019.804 3.923 8.865 8.865 0 013.12 4.144.647.647 0 00.617.303c.28-.006.463-.14.412-.31a9.482 9.482 0 00-3.353-4.448 22.363 22.363 0 00-10.548-4.216c-.292-.043-.538.063-.562.222a.264.264 0 00.156.243z"/><path opacity=".75" d="M50.319 68.73a13.644 13.644 0 002.646 1.59.755.755 0 00.724-.026c.154-.13.05-.327-.156-.434-3.279-1.532-5.067-3.844-4.842-6.188.225-2.345 2.533-4.09 6.035-4.693.267-.046.378-.21.25-.383a.792.792 0 00-.689-.218c-3.866.663-6.344 2.584-6.64 5.147-.22 1.849.756 3.685 2.672 5.204zm8.493-10.018a.87.87 0 00.392.145 18.985 18.985 0 017.88 2.833c2.11 1.386 3.087 3.203 2.937 4.852-.023.16.201.326.493.37.291.044.53-.073.544-.234.175-1.817-.974-3.708-3.212-5.323a18.45 18.45 0 00-8.638-3.108c-.291-.044-.531.082-.527.245a.3.3 0 00.13.22zm-1.679 12.9c.091.074.2.123.315.143 4.954.933 10.023-.055 12.318-2.424.126-.134.05-.327-.225-.425a.716.716 0 00-.71.056c-2.09 2.15-6.705 3.064-11.219 2.206-.29-.043-.552.032-.596.198a.244.244 0 00.117.246z"/><path opacity=".75" d="M59.625 69.856c.13.095.287.148.448.153 2.865.123 5.326-.654 6.596-2.078 1.27-1.424 1.094-3.208-.49-4.763a.793.793 0 00-.724-.108c-.24.069-.306.25-.156.406 1.383 1.353 1.536 2.904.427 4.152-1.109 1.247-3.267 1.927-5.76 1.82-.282-.042-.498.117-.475.283a.28.28 0 00.134.135zm-6.715-2.258a9.522 9.522 0 002.012 1.257.735.735 0 00.716-.027c.154-.13.048-.327-.175-.437-2.565-1.167-3.824-2.97-3.16-4.58.025-.168-.113-.341-.402-.404-.288-.062-.559.012-.622.175-.56 1.31.083 2.791 1.63 4.016zm.78-6.062a.812.812 0 00.76.114 10.497 10.497 0 018.154.104.717.717 0 00.71-.056c.137-.142.05-.327-.223-.435-3.189-1.299-6.874-1.335-9.384-.106-.181.058-.19.239-.018.379z"/><path opacity=".75" d="M55.623 66.544a7.55 7.55 0 006.693 1.002c2.038-.774 2.299-2.52.574-3.839a7.552 7.552 0 00-6.694-1.003c-2 .78-2.258 2.508-.573 3.84zm6.461-2.528c1.314 1.047 1.115 2.383-.448 2.999a5.884 5.884 0 01-5.217-.782c-1.314-1.047-1.115-2.382.448-2.998a5.886 5.886 0 015.217.781z"/></g></g><path d="M43.598 35.43a6.071 6.071 0 002.48.006 6.04 6.04 0 002.27-.985 12.136 12.136 0 013.7-2.187 20.03 20.03 0 014.98-1.164c1.82-.215 3.098-1.055 3.264-2.166l1.701-11.388c.116-.775.873-1.464 2.187-1.773a7.124 7.124 0 014.795.718c1.204.686 1.689 1.561 1.573 2.337L68.85 30.197c-.167 1.111.81 2.29 2.488 3.027a20.041 20.041 0 014.421 2.573 11.951 11.951 0 012.89 3.174 6.101 6.101 0 004.275 2.33l19.845 2.973a5.836 5.836 0 013.453 1.654 1.697 1.697 0 01.555 1.516 1.688 1.688 0 01-.974 1.287 5.831 5.831 0 01-3.765.563l-19.826-2.97a6.13 6.13 0 00-2.483-.02 6.095 6.095 0 00-2.282.968 11.937 11.937 0 01-3.69 2.188 20.407 20.407 0 01-4.98 1.164c-1.82.215-3.097 1.045-3.263 2.157l-1.698 11.37c-.116.775-.873 1.463-2.189 1.782a7.238 7.238 0 01-4.794-.718c-1.203-.696-1.688-1.57-1.572-2.346l1.698-11.37c.166-1.11-.812-2.28-2.49-3.018a20.427 20.427 0 01-4.42-2.572 12.15 12.15 0 01-2.938-3.181 6.075 6.075 0 00-4.276-2.322L23.028 37.44a5.787 5.787 0 01-3.399-1.693 1.696 1.696 0 01-.555-1.516 1.683 1.683 0 01.974-1.287 5.803 5.803 0 013.754-.555l19.796 3.042z" fill="#1D1D1B"/><path d="M43.97 32.945a6.068 6.068 0 004.75-.98 12.114 12.114 0 013.698-2.177 20.031 20.031 0 014.98-1.164c1.82-.214 3.098-1.054 3.264-2.166l1.615-10.808c.117-.785.873-1.474 2.188-1.783a7.125 7.125 0 014.795.718c1.204.686 1.688 1.561 1.571 2.346l-1.61 10.78c-.168 1.122.811 2.29 2.488 3.028a20.04 20.04 0 014.422 2.573 11.93 11.93 0 012.89 3.164 6.1 6.1 0 004.275 2.33l19.597 4.637a5.777 5.777 0 013.461 1.598 1.683 1.683 0 01.525 1.482 1.681 1.681 0 01-.935 1.264 5.774 5.774 0 01-3.765.563l-19.57-4.555a6.1 6.1 0 00-4.769.976 11.937 11.937 0 01-3.69 2.188c-1.603.6-3.276.99-4.98 1.164-1.82.215-3.099 1.055-3.264 2.167l-1.947 13.03c-.116.776-.873 1.465-2.189 1.783a7.181 7.181 0 01-4.794-.718c-1.205-.687-1.69-1.561-1.573-2.337l1.944-13.013c.166-1.111-.812-2.29-2.489-3.028a20.041 20.041 0 01-4.421-2.572 12.153 12.153 0 01-2.951-3.212 6.046 6.046 0 00-4.275-2.33L23.159 36.56a5.73 5.73 0 01-3.426-1.64 1.686 1.686 0 01-.525-1.483 1.674 1.674 0 01.935-1.264 5.727 5.727 0 013.775-.561l20.051 1.332z" fill="#9D9D9C"/><path d="M76.7 35.613l-.597 3.99c-.279 1.868-1.827 3.613-4.544 4.686-5.481 2.14-13.669.913-18.294-2.74-2.303-1.826-3.26-3.917-2.976-5.814l.596-3.989 25.814 3.867z" fill="#1D1D1B"/><path d="M55.398 27.055c-5.482 2.149-6.183 6.838-1.569 10.5 4.614 3.661 12.813 4.88 18.294 2.74 5.48-2.14 6.183-6.839 1.569-10.5-4.614-3.662-12.804-4.879-18.294-2.74z" fill="#3C3C3B"/><path d="M58.117 29.21a.76.76 0 00-.623.633.751.751 0 00.411.787l9.035 7.141a2.77 2.77 0 002.472.37.76.76 0 00.623-.632.752.752 0 00-.41-.788l-9.016-7.138a2.79 2.79 0 00-2.482-.371l-.01-.002z" fill="#EDEDED"/></g><defs><clipPath id="clip0"><path fill="#fff" transform="matrix(-.98897 -.14814 -.14775 .98903 124 16.997)" d="M0 0h114v70H0z"/></clipPath></defs></svg>