<svg width="75" height="74" fill="none" xmlns="http://www.w3.org/2000/svg"><g opacity=".2"><path opacity=".2" d="M68.551 42.507c3.057-17.142-8.35-33.515-25.478-36.569-17.127-3.054-33.49 8.367-36.546 25.51-3.057 17.141 8.35 33.513 25.477 36.567 17.128 3.054 33.49-8.366 36.547-25.508z" fill="#4A4741"/><path opacity=".2" d="M68.678 42.355c3.036-17.146-8.39-33.508-25.52-36.547C26.028 2.769 9.68 14.205 6.644 31.35c-3.036 17.146 8.39 33.508 25.52 36.547 17.13 3.039 33.478-8.397 36.514-25.543z" fill="#494640"/><path opacity=".2" d="M68.807 42.25c3.056-17.142-8.35-33.514-25.478-36.568C26.201 2.628 9.839 14.048 6.782 31.19c-3.056 17.142 8.35 33.515 25.478 36.57 17.128 3.053 33.49-8.367 36.547-25.51z" fill="#49453F"/><path opacity=".2" d="M68.918 42.148c3.066-17.14-8.332-33.523-25.457-36.592C26.338 2.487 9.97 13.895 6.904 31.036c-3.066 17.14 8.331 33.522 25.456 36.59 17.125 3.07 33.493-8.338 36.559-25.478z" fill="#48443E"/></g><path d="M68.868 41.945c2.958-17.16-8.543-33.466-25.688-36.42C26.035 2.568 9.74 14.083 6.781 31.242c-2.957 17.16 8.544 33.466 25.688 36.42 17.145 2.956 33.442-8.559 36.4-25.718z" fill="#0A3D76"/><path d="M55.534 54.33c9.787-9.795 9.787-25.676 0-35.47-9.786-9.796-25.653-9.796-35.44 0-9.786 9.794-9.786 25.675 0 35.47 9.787 9.796 25.654 9.796 35.44 0z" fill="#fff"/><path d="M37.812 10.342c-14.459 0-26.228 11.776-26.228 26.254 0 14.167 11.275 25.751 25.314 26.236.304.01.6.016.914.016.384 0 .762-.012 1.14-.028a26.218 26.218 0 0017.905-8.327 26.265 26.265 0 00-.796-36.606 26.216 26.216 0 00-18.249-7.539v-.006zm1.15 50.132a27.52 27.52 0 01-1.15.029c-.302 0-.6 0-.91-.017a23.907 23.907 0 01-16.29-7.319 23.95 23.95 0 01-6.685-16.571c0-13.184 10.717-23.92 23.885-23.92a23.877 23.877 0 0116.684 6.802 23.923 23.923 0 01.804 33.39 23.88 23.88 0 01-16.337 7.6v.006z" fill="#F34A57"/><path d="M37.813 16.358c-11.205 0-20.319 9.079-20.319 20.228 0 11.149 9.116 20.227 20.32 20.227 11.203 0 20.319-9.076 20.319-20.227s-9.114-20.228-20.32-20.228zm0 38.128c-9.912 0-17.978-8.025-17.978-17.892 0-9.867 8.066-17.893 17.978-17.893 9.913 0 17.98 8.027 17.98 17.893 0 9.865-8.065 17.892-17.98 17.892z" fill="#F34A57"/><path d="M37.813 22.379c-7.946 0-14.407 6.377-14.407 14.22 0 7.842 6.465 14.219 14.407 14.219s14.406-6.377 14.406-14.22c0-7.842-6.46-14.22-14.406-14.22zm0 26.09c-6.655 0-12.072-5.328-12.072-11.875S31.158 24.72 37.813 24.72c6.655 0 12.081 5.327 12.081 11.874 0 6.547-5.424 11.874-12.081 11.874z" fill="#F34A57"/><path d="M37.814 28.395c-4.688 0-8.5 3.68-8.5 8.2s3.812 8.199 8.5 8.199c4.688 0 8.502-3.677 8.502-8.2 0-4.522-3.814-8.199-8.502-8.199zm0 14.058c-3.401 0-6.16-2.628-6.16-5.858 0-3.23 2.763-5.856 6.16-5.856 3.398 0 6.161 2.627 6.161 5.856 0 3.228-2.763 5.858-6.16 5.858z" fill="#F34A57"/><path d="M41.04 36.596a3.098 3.098 0 01-1.907 2.863 3.091 3.091 0 01-4.22-2.254 3.1 3.1 0 011.315-3.18 3.091 3.091 0 014.812 2.57zm16.222-20.544l-.575-4.06L60.49 8.27l.346 4.204-3.573 3.579zm1.188 1.177l4.07.585 3.709-3.815-4.202-.337-3.578 3.567z" fill="#F34A57"/><path d="M57.799 10.909l.553 4.061.156-.204L58 10.709l-.202.2zm1.221-1.212l.554 4.061.154-.202-.504-4.057-.204.198zm1.81 4.957l4.462.51-.22.157-4.46-.46.217-.207zm-1.378 1.386l4.465.496-.22.158-4.46-.449.215-.206z" fill="#201600"/><path d="M38.85 36.912a.882.882 0 01-1.145.107.895.895 0 01-.074-1.41l23.211-23.134 1.183 1.184L38.85 36.912z" fill="#5D4837"/><g style="mix-blend-mode:darken" filter="url(#filter0_f)"><path d="M61.115 57.276L40.954 36.89l-2.001-1.985a21.734 21.734 0 00-1.463 1.446l2.001 1.989 20.362 20.2.66-.738.602-.526z" fill="#C9C8C8"/></g><defs><filter id="filter0_f" x="35.49" y="32.905" width="27.625" height="27.634" filterUnits="userSpaceOnUse" color-interpolation-filters="sRGB"><feFlood flood-opacity="0" result="BackgroundImageFix"/><feBlend in="SourceGraphic" in2="BackgroundImageFix" result="shape"/><feGaussianBlur stdDeviation="1" result="effect1_foregroundBlur"/></filter></defs></svg>