<svg width="62" height="53" fill="none" xmlns="http://www.w3.org/2000/svg"><g clip-path="url(#clip0)"><path d="M37.337 16.934c-.299-.192-2.64-1.626-3.57-2.062l-1.154-2.846c.343-.941.998-3.582 1.1-4.04a1.285 1.285 0 00-.331-1.176l-1.803-1.844a1.22 1.22 0 00-1.15-.338c-.34.079-2.99.758-3.95 1.124l-2.784-1.18c-.407-.91-1.768-3.247-2.016-3.65a1.23 1.23 0 00-1.048-.593h-2.55c-.425 0-.82.224-1.047.593-.188.305-1.59 2.7-2.016 3.65l-2.783 1.18c-.92-.35-3.502-1.02-3.95-1.124a1.22 1.22 0 00-1.15.338L5.33 6.81A1.285 1.285 0 005 7.987c.077.347.74 3.056 1.098 4.04l-1.152 2.846c-.89.416-3.176 1.808-3.57 2.06-.361.232-.58.637-.58 1.072v2.608c0 .435.219.84.58 1.072.298.191 2.64 1.626 3.57 2.06l1.152 2.847c-.342.942-.997 3.582-1.099 4.04-.095.424.03.868.331 1.176l1.803 1.844a1.22 1.22 0 001.15.339c.34-.08 2.99-.759 3.95-1.124l2.784 1.179c.407.91 1.768 3.248 2.016 3.65.226.37.622.593 1.048.593h2.55c.425 0 .821-.224 1.047-.592.188-.306 1.59-2.7 2.016-3.651l2.783-1.18c.92.35 3.502 1.02 3.95 1.125.415.097.85-.031 1.15-.339l1.804-1.844c.3-.308.426-.752.33-1.176-.077-.347-.74-3.057-1.099-4.04l1.154-2.846c.89-.417 3.175-1.808 3.57-2.061.36-.232.58-.637.58-1.072v-2.608c0-.435-.22-.84-.58-1.071zm-17.98 10.65c-4.462 0-8.092-3.712-8.092-8.275 0-4.562 3.63-8.274 8.091-8.274 4.462 0 8.092 3.712 8.092 8.274 0 4.563-3.63 8.275-8.091 8.275z" fill="url(#paint0_linear)"/></g><g clip-path="url(#clip1)"><path d="M60.848 36.015c-.24-.15-2.123-1.28-2.872-1.622l-.927-2.241c.275-.741.802-2.82.884-3.18a.997.997 0 00-.267-.926l-1.45-1.452a.995.995 0 00-.925-.267c-.273.063-2.404.598-3.177.886l-2.24-.929c-.327-.716-1.421-2.556-1.62-2.874a.995.995 0 00-.843-.466H45.36a.995.995 0 00-.843.466c-.15.24-1.279 2.125-1.621 2.874l-2.239.929c-.74-.276-2.817-.803-3.177-.886a.995.995 0 00-.925.267l-1.45 1.452a.997.997 0 00-.267.926c.062.273.596 2.406.884 3.18l-.927 2.24c-.716.329-2.555 1.424-2.872 1.623a.996.996 0 00-.466.844v2.053c0 .343.176.661.466.843.24.151 2.123 1.28 2.872 1.623l.927 2.24c-.275.742-.802 2.82-.884 3.18a.997.997 0 00.266.927l1.45 1.452a.995.995 0 00.926.266c.273-.062 2.404-.597 3.177-.885l2.239.928c.328.717 1.422 2.557 1.621 2.875.182.29.5.466.843.466h2.05a.996.996 0 00.844-.466c.15-.24 1.279-2.125 1.621-2.875l2.239-.928c.74.276 2.817.803 3.177.885a.994.994 0 00.925-.266l1.45-1.452a.997.997 0 00.267-.926c-.063-.273-.597-2.406-.884-3.18l.927-2.24c.716-.329 2.555-1.424 2.872-1.624.29-.182.466-.5.466-.843v-2.053a.996.996 0 00-.466-.844zM46.385 44.4c-3.588 0-6.508-2.922-6.508-6.514 0-3.591 2.92-6.514 6.508-6.514 3.589 0 6.509 2.923 6.509 6.514 0 3.592-2.92 6.514-6.509 6.514z" fill="url(#paint1_linear)"/></g><defs><linearGradient id="paint0_linear" x1="32.719" y1="9.945" x2="3.696" y2="26.338" gradientUnits="userSpaceOnUse"><stop stop-color="#90D1FF"/><stop offset=".56" stop-color="#274684"/></linearGradient><linearGradient id="paint1_linear" x1="57.134" y1="30.514" x2="34.034" y2="43.844" gradientUnits="userSpaceOnUse"><stop stop-color="#90D1FF"/><stop offset=".56" stop-color="#274684"/></linearGradient><clipPath id="clip0"><path fill="#fff" transform="translate(.797 .328)" d="M0 0h37.119v37.96H0z"/></clipPath><clipPath id="clip1"><path fill="#fff" transform="translate(31.457 22.943)" d="M0 0h29.857v29.884H0z"/></clipPath></defs></svg>