<svg width="42" height="42" fill="none" xmlns="http://www.w3.org/2000/svg"><path d="M40.992 39.79h-.851V15.067a.853.853 0 00-.852-.853h-5.11a.852.852 0 00-.852.853v24.721H29.92V25.297a.852.852 0 00-.852-.852h-5.11a.852.852 0 00-.851.852V39.79H19.7V21.887a.852.852 0 00-.852-.852h-5.11a.852.852 0 00-.852.852V39.79H9.48v-9.377a.852.852 0 00-.852-.852h-5.11a.852.852 0 00-.852.852v9.377h-.851a.852.852 0 000 1.705h39.177a.852.852 0 000-1.705z" fill="url(#paint0_linear)"/><path d="M36.736.576a3.412 3.412 0 00-3.407 3.41c0 .63.184 1.213.482 1.722l-5.575 5.58a3.38 3.38 0 00-1.72-.483 3.387 3.387 0 00-2.637 1.277l-4.186-1.195c0-.027.009-.053.009-.082 0-1.88-1.528-3.41-3.407-3.41a3.412 3.412 0 00-3.407 3.41c0 .496.111.963.302 1.388l-5.323 4.25a3.356 3.356 0 00-1.792-.523 3.412 3.412 0 00-3.407 3.41c0 1.88 1.528 3.41 3.407 3.41a3.412 3.412 0 003.407-3.41c0-.599-.17-1.154-.442-1.644l5.218-4.165c.57.43 1.27.694 2.037.694a3.396 3.396 0 002.925-1.69l3.947 1.127a3.18 3.18 0 00-.058.563c0 1.88 1.527 3.41 3.406 3.41a3.412 3.412 0 003.407-3.41c0-.63-.184-1.214-.482-1.722l5.577-5.582c.506.3 1.088.484 1.719.484a3.412 3.412 0 003.406-3.41c0-1.88-1.528-3.41-3.406-3.41z" fill="url(#paint1_linear)"/><path d="M30.329 14.12a3.744 3.744 0 01-3.743 3.746 3.744 3.744 0 01-3.742-3.746 3.744 3.744 0 013.742-3.746 3.744 3.744 0 013.743 3.745z" fill="url(#paint2_linear)"/><path d="M40.692 3.746a3.744 3.744 0 01-3.742 3.746 3.744 3.744 0 01-3.743-3.746A3.744 3.744 0 0136.95 0a3.744 3.744 0 013.742 3.746z" fill="url(#paint3_linear)"/><path d="M19.964 10.662a3.744 3.744 0 01-3.743 3.745 3.744 3.744 0 01-3.742-3.745 3.744 3.744 0 013.742-3.746 3.744 3.744 0 013.743 3.745z" fill="url(#paint4_linear)"/><path d="M9.6 19.306a3.744 3.744 0 01-3.742 3.746 3.744 3.744 0 01-3.743-3.746 3.744 3.744 0 013.743-3.746A3.744 3.744 0 019.6 19.306z" fill="url(#paint5_linear)"/><defs><linearGradient id="paint0_linear" x1="39.968" y1="16.56" x2="2.025" y2="37.709" gradientUnits="userSpaceOnUse"><stop stop-color="#A62E41"/><stop offset="1" stop-color="#F5193B"/></linearGradient><linearGradient id="paint1_linear" x1="37.853" y1="1.814" x2="4.066" y2="18.932" gradientUnits="userSpaceOnUse"><stop stop-color="#9B283A"/><stop offset="1" stop-color="#D73251"/></linearGradient><linearGradient id="paint2_linear" x1="26.586" y1="10.373" x2="26.586" y2="17.866" gradientUnits="userSpaceOnUse"><stop stop-color="#274684"/><stop offset="1" stop-color="#669DEB"/></linearGradient><linearGradient id="paint3_linear" x1="36.95" y1="0" x2="36.95" y2="7.492" gradientUnits="userSpaceOnUse"><stop stop-color="#274684"/><stop offset="1" stop-color="#669DEB"/></linearGradient><linearGradient id="paint4_linear" x1="16.221" y1="6.916" x2="16.221" y2="14.408" gradientUnits="userSpaceOnUse"><stop stop-color="#274684"/><stop offset="1" stop-color="#669DEB"/></linearGradient><linearGradient id="paint5_linear" x1="5.858" y1="15.56" x2="5.858" y2="23.052" gradientUnits="userSpaceOnUse"><stop stop-color="#274684"/><stop offset="1" stop-color="#669DEB"/></linearGradient></defs></svg>