<svg width="72" height="72" fill="none" xmlns="http://www.w3.org/2000/svg"><g clip-path="url(#clip0)"><path d="M52.939 28.488v16.999c0 1.99-.79 3.899-2.196 5.306a7.493 7.493 0 01-5.301 2.198H28.464a7.493 7.493 0 01-5.301-2.198 7.508 7.508 0 01-2.196-5.306v-17c0-1.99.79-3.898 2.196-5.306a7.493 7.493 0 015.3-2.198h16.982c1.989 0 3.896.791 5.301 2.198a7.508 7.508 0 012.196 5.307h-.003z" fill="#F58220"/><path d="M41.27 36.855c-.609 0-1.826 1.218-4.26 1.218-2.434 0-3.651-1.218-4.26-1.218a1.22 1.22 0 00-1.217 1.218c0 .609.365.913.609 1.035.73.427 3.042 1.401 3.042 1.401l-2.616 3.29s-.487.548-.487.974c0 .67.548 1.219 1.217 1.219.608 0 .913-.427.913-.427l2.799-3.228 2.738 3.228s.305.427.913.427a1.22 1.22 0 001.217-1.219c0-.365-.487-.974-.487-.974l-2.555-3.29s2.312-.974 3.042-1.4c.244-.183.609-.427.609-1.036 0-.67-.548-1.218-1.217-1.218zm-4.256-9.139a4.236 4.236 0 00-4.26 4.264 4.236 4.236 0 004.26 4.264 4.236 4.236 0 004.26-4.264 4.236 4.236 0 00-4.26-4.264zm0 6.396c-1.157 0-2.13-.975-2.13-2.132s.973-2.132 2.13-2.132c1.156 0 2.13.975 2.13 2.132s-.974 2.132-2.13 2.132z" fill="#fff"/><path d="M68.512 36.98c0 18.08-14.39 32.73-32.131 32.73S4.25 55.06 4.25 36.98 18.64 4.25 36.381 4.25s32.13 14.65 32.13 32.73z" fill="#FFC9E7" fill-opacity=".3" stroke="#E4829E" stroke-width=".5"/><g filter="url(#filter0_f)"><path d="M21.818 16.886c4.666-2.124 4.637-4.265 4.26-5.209-1.131-1.274-2.089-.886-3.393-.566-1.712.42-4.204 2.732-6.363 4.812-2.098 2.021-5.48 6.668-5.535 8.6-.049 1.704.867 3.002 1.29 1.586.425-1.415 4.42-6.802 9.74-9.224z" fill="#fff"/></g><path d="M23.31 65.38c14.93 4.521 42.66-1.914 42.804-34.203C70.297 48.46 54.088 76.497 23.31 65.38z" fill="#FFCBE8"/></g><defs><clipPath id="clip0"><path fill="#fff" d="M0 0h72v72H0z"/></clipPath><filter id="filter0_f" x="9.785" y="9.794" width="17.445" height="17.919" filterUnits="userSpaceOnUse" color-interpolation-filters="sRGB"><feFlood flood-opacity="0" result="BackgroundImageFix"/><feBlend in="SourceGraphic" in2="BackgroundImageFix" result="shape"/><feGaussianBlur stdDeviation=".5" result="effect1_foregroundBlur"/></filter></defs></svg>