<svg width="74" height="74" fill="none" xmlns="http://www.w3.org/2000/svg"><g clip-path="url(#clip0)"><path d="M52.57 30.083v17.01c0 1.992-.79 3.902-2.197 5.31a7.498 7.498 0 01-5.305 2.2h-16.99a7.498 7.498 0 01-5.304-2.2 7.513 7.513 0 01-2.197-5.31v-17.01c0-1.991.79-3.901 2.197-5.31a7.498 7.498 0 015.305-2.2H45.07a7.5 7.5 0 015.305 2.2 7.513 7.513 0 012.197 5.31h-.003z" fill="#3B579D"/><path fill-rule="evenodd" clip-rule="evenodd" d="M45.062 33.535c.852-.033 1.71 0 2.568 0h.354v-4.502c-.459-.046-.937-.113-1.415-.133-.878-.04-1.756-.085-2.621-.066A6.408 6.408 0 0040.213 30a5.6 5.6 0 00-1.496 1.65 5.658 5.658 0 00-.739 2.11 12.594 12.594 0 00-.157 1.927v3.41h-4.26v5.025h4.234v12.62h5.176v-12.58h4.22c.216-1.669.426-3.31.655-5.052h-4.914s.04-2.49.04-3.602c.045-1.483.917-1.933 2.09-1.973z" fill="#fff"/><path d="M69.25 38.357c0 18.288-14.555 33.106-32.5 33.106S4.25 56.645 4.25 38.357c0-18.288 14.555-33.106 32.5-33.106s32.5 14.818 32.5 33.106z" fill="#FFC9E7" fill-opacity=".3" stroke="#E4829E" stroke-width=".5"/><g filter="url(#filter0_f)"><path d="M22.02 18.033c4.72-2.147 4.691-4.313 4.31-5.268-1.144-1.288-2.113-.896-3.432-.572-1.732.425-4.252 2.763-6.436 4.867-2.121 2.044-5.542 6.743-5.598 8.698-.049 1.723.877 3.036 1.306 1.604.43-1.431 4.469-6.88 9.85-9.329z" fill="#fff"/></g><path d="M23.53 67.08c15.102 4.573 43.148-1.936 43.293-34.593 4.23 17.48-12.163 45.838-43.292 34.593z" fill="#FFCBE8"/></g><defs><clipPath id="clip0"><path fill="#fff" d="M0 0h74v74H0z"/></clipPath><filter id="filter0_f" x="9.863" y="10.873" width="17.621" height="18.1" filterUnits="userSpaceOnUse" color-interpolation-filters="sRGB"><feFlood flood-opacity="0" result="BackgroundImageFix"/><feBlend in="SourceGraphic" in2="BackgroundImageFix" result="shape"/><feGaussianBlur stdDeviation=".5" result="effect1_foregroundBlur"/></filter></defs></svg>