<svg width="99" height="99" fill="none" xmlns="http://www.w3.org/2000/svg"><g clip-path="url(#clip0)"><path d="M71.356 40.344v23.089c0 2.703-1.073 5.296-2.982 7.208a10.178 10.178 0 01-7.2 2.985H38.111c-2.7 0-5.29-1.074-7.2-2.986a10.198 10.198 0 01-2.982-7.207V40.344c0-2.703 1.073-5.296 2.982-7.208a10.177 10.177 0 017.2-2.985h23.066c2.7 0 5.29 1.074 7.2 2.985a10.198 10.198 0 012.983 7.208h-.005z" fill="#2CAAE1"/><path fill-rule="evenodd" clip-rule="evenodd" d="M43.836 58.345a5.92 5.92 0 01-3.399-1.186 5.981 5.981 0 01-2.096-2.942c.845.16 1.714.134 2.548-.077h.085a5.857 5.857 0 01-2.202-.96 5.898 5.898 0 01-1.637-1.766 5.849 5.849 0 01-.85-3.163 5.84 5.84 0 002.634.718 5.984 5.984 0 01-2.439-3.603 6.016 6.016 0 01.638-4.311 16.928 16.928 0 005.442 4.4 16.825 16.825 0 006.745 1.813c0-.23-.068-.435-.094-.65a5.808 5.808 0 01.85-3.888 5.686 5.686 0 011.706-1.792 5.643 5.643 0 012.302-.892 5.73 5.73 0 012.792.178 5.76 5.76 0 012.38 1.48.288.288 0 00.314.094 11.845 11.845 0 003.397-1.333h.119a6.062 6.062 0 01-2.548 3.24 11.552 11.552 0 003.295-.855c-.22.299-.441.598-.68.854a11.353 11.353 0 01-2.14 2.051.214.214 0 00-.101.189 16.13 16.13 0 01-.11 2.64 17.788 17.788 0 01-1.52 5.3 17.322 17.322 0 01-3.194 4.684 15.786 15.786 0 01-8.085 4.495 17.796 17.796 0 01-3.295.393 16.563 16.563 0 01-9.452-2.564l-.136-.094a11.819 11.819 0 005.945-.855 11.483 11.483 0 002.786-1.598z" fill="#fff"/><path d="M93.64 51.204c0 24.842-19.77 44.972-44.15 44.972-24.379 0-44.15-20.13-44.15-44.972 0-24.841 19.771-44.972 44.15-44.972 24.38 0 44.15 20.13 44.15 44.972z" fill="#FFC9E7" fill-opacity=".3" stroke="#E4829E" stroke-width=".5"/><g filter="url(#filter0_f)"><path d="M29.524 23.65c6.398-2.91 6.359-5.847 5.842-7.14-1.551-1.747-2.864-1.216-4.653-.777-2.347.576-5.765 3.746-8.725 6.599-2.876 2.77-7.513 9.142-7.589 11.792-.067 2.336 1.189 4.115 1.77 2.175.582-1.941 6.059-9.328 13.355-12.648z" fill="#fff"/></g><path d="M31.567 90.146c20.473 6.2 58.496-2.624 58.693-46.899 5.735 23.699-16.49 62.144-58.693 46.899z" fill="#FFCBE8"/></g><defs><clipPath id="clip0"><path fill="#fff" d="M0 0h99v99H0z"/></clipPath><filter id="filter0_f" x="13.396" y="14.299" width="23.178" height="23.828" filterUnits="userSpaceOnUse" color-interpolation-filters="sRGB"><feFlood flood-opacity="0" result="BackgroundImageFix"/><feBlend in="SourceGraphic" in2="BackgroundImageFix" result="shape"/><feGaussianBlur stdDeviation=".5" result="effect1_foregroundBlur"/></filter></defs></svg>