<svg width="100" height="100" fill="none" xmlns="http://www.w3.org/2000/svg"><g clip-path="url(#clip0)"><path d="M71.114 38.501v23.09a10.2 10.2 0 01-2.983 7.207 10.178 10.178 0 01-7.2 2.985h-23.06a10.181 10.181 0 01-7.201-2.985 10.198 10.198 0 01-2.983-7.208V38.501c0-2.703 1.073-5.296 2.983-7.207a10.177 10.177 0 017.2-2.986h23.066c2.7 0 5.29 1.074 7.2 2.986A10.199 10.199 0 0171.12 38.5h-.005z" fill="#5181B8"/><path fill-rule="evenodd" clip-rule="evenodd" d="M48.858 59.581h2.028s.613-.068.926-.409c.288-.313.279-.902.279-.902s-.04-2.755 1.223-3.16c1.245-.4 2.844 2.662 4.539 3.84 1.282.89 2.255.695 2.255.695l4.532-.064s2.37-.147 1.247-2.034c-.093-.154-.655-1.396-3.37-3.947-2.841-2.67-2.46-2.238.962-6.856 2.085-2.812 2.918-4.53 2.658-5.265-.249-.7-1.782-.515-1.782-.515l-5.102.032s-.378-.052-.659.118c-.274.166-.45.554-.45.554s-.808 2.176-1.885 4.027c-2.272 3.906-3.18 4.112-3.552 3.87-.863-.566-.648-2.271-.648-3.483 0-3.784.567-5.362-1.104-5.771-.555-.136-.963-.225-2.381-.24-1.82-.019-3.362.006-4.234.439-.58.287-1.028.929-.756.965.337.046 1.101.209 1.506.767.523.72.505 2.337.505 2.337s.3 4.456-.702 5.01c-.688.379-1.631-.396-3.657-3.94-1.038-1.814-1.821-3.82-1.821-3.82s-.151-.375-.42-.576c-.328-.243-.785-.32-.785-.32l-4.848.032s-.728.02-.995.34c-.238.286-.02.875-.02.875s3.797 8.99 8.095 13.52c3.94 4.154 8.416 3.881 8.416 3.881z" fill="#fff"/><path d="M93.399 50.014c0 24.842-19.772 44.972-44.15 44.972-24.38 0-44.151-20.13-44.151-44.972 0-24.841 19.77-44.972 44.15-44.972s44.15 20.13 44.15 44.972z" fill="#FFC9E7" fill-opacity=".3" stroke="#E4829E" stroke-width=".5"/><g filter="url(#filter0_f)"><path d="M29.278 22.46c6.398-2.91 6.359-5.847 5.842-7.141-1.551-1.747-2.864-1.216-4.653-.777-2.347.576-5.765 3.747-8.725 6.6-2.876 2.77-7.513 9.141-7.589 11.792-.067 2.336 1.188 4.115 1.77 2.174.582-1.94 6.059-9.328 13.355-12.648z" fill="#fff"/></g><path d="M31.325 88.956c20.473 6.2 58.496-2.624 58.692-46.9 5.736 23.7-16.49 62.145-58.692 46.9z" fill="#FFCBE8"/></g><defs><clipPath id="clip0"><path fill="#fff" d="M0 0h100v100H0z"/></clipPath><filter id="filter0_f" x="13.15" y="13.108" width="23.178" height="23.828" filterUnits="userSpaceOnUse" color-interpolation-filters="sRGB"><feFlood flood-opacity="0" result="BackgroundImageFix"/><feBlend in="SourceGraphic" in2="BackgroundImageFix" result="shape"/><feGaussianBlur stdDeviation=".5" result="effect1_foregroundBlur"/></filter></defs></svg>