<svg width="90" height="90" fill="none" xmlns="http://www.w3.org/2000/svg"><g clip-path="url(#clip0)"><path d="M63.114 34.827v19.427a8.581 8.581 0 01-2.51 6.065 8.564 8.564 0 01-6.058 2.511H35.142a8.564 8.564 0 01-6.058-2.511 8.581 8.581 0 01-2.51-6.065V34.827c0-2.275.903-4.456 2.51-6.065a8.564 8.564 0 016.058-2.512H54.55c2.272 0 4.451.904 6.058 2.512a8.581 8.581 0 012.51 6.065h-.004z" fill="#007BB6"/><path d="M33.028 39.948h5.131V56.48h-5.131V39.948zm2.566-8.201a2.974 2.974 0 012.75 1.84 2.982 2.982 0 01-2.175 4.062 2.974 2.974 0 01-3.054-1.274 2.982 2.982 0 01-.498-1.658 2.973 2.973 0 012.977-2.97zm5.784 8.203h4.926v2.26h.06a5.407 5.407 0 014.857-2.672c5.192 0 6.15 3.425 6.15 7.868v9.074h-5.132v-8.047c0-1.918 0-4.375-2.668-4.375-2.669 0-3.07 2.09-3.07 4.238v8.184h-5.132l.009-16.53z" fill="#fff"/><path d="M82.103 44.374c0 21.06-16.76 38.124-37.426 38.124S7.25 65.434 7.25 44.374c0-21.059 16.76-38.123 37.426-38.123s37.427 17.064 37.427 38.123z" fill="#FFC9E7" fill-opacity=".3" stroke="#E4829E" stroke-width=".5"/><g filter="url(#filter0_f)"><path d="M27.735 20.993c5.43-2.47 5.396-4.962 4.957-6.06-1.316-1.482-2.43-1.03-3.948-.658-1.992.488-4.892 3.179-7.404 5.599-2.44 2.352-6.375 7.758-6.44 10.007-.056 1.982 1.009 3.492 1.503 1.845.493-1.647 5.14-7.915 11.332-10.733z" fill="#fff"/></g><path d="M29.466 77.418c17.373 5.261 49.638-2.227 49.804-39.796 4.868 20.11-13.992 52.733-49.804 39.796z" fill="#FFCBE8"/></g><defs><clipPath id="clip0"><path fill="#fff" d="M0 0h90v90H0z"/></clipPath><filter id="filter0_f" x="13.898" y="12.906" width="19.971" height="20.522" filterUnits="userSpaceOnUse" color-interpolation-filters="sRGB"><feFlood flood-opacity="0" result="BackgroundImageFix"/><feBlend in="SourceGraphic" in2="BackgroundImageFix" result="shape"/><feGaussianBlur stdDeviation=".5" result="effect1_foregroundBlur"/></filter></defs></svg>