<svg width="73" height="71" fill="none" xmlns="http://www.w3.org/2000/svg"><g clip-path="url(#clip0)"><path d="M50.675 28.03v15.958c0 1.868-.742 3.66-2.062 4.982a7.034 7.034 0 01-4.976 2.063H27.698a7.034 7.034 0 01-4.977-2.063 7.049 7.049 0 01-2.06-4.982V28.03c0-1.869.74-3.66 2.06-4.982a7.034 7.034 0 014.977-2.063H43.64c1.867 0 3.657.742 4.977 2.063a7.049 7.049 0 012.061 4.982h-.003z" fill="#E6291B"/><path fill-rule="evenodd" clip-rule="evenodd" d="M27.704 42.685a2.33 2.33 0 01-.971-.583 2.373 2.373 0 01-.588-.977c-.653-1.879-.875-9.75.424-11.297a2.48 2.48 0 011.697-.913c3.497-.383 14.322-.33 15.568.126a2.467 2.467 0 011.533 1.495c.738 1.944.764 9.014-.097 10.893-.23.489-.617.885-1.097 1.124-1.305.721-14.766.708-16.469.133zm5.56-3.683l6.31-3.307-6.31-3.34v6.647z" fill="#fff"/><path d="M66.563 35.48c0 17.25-13.73 31.227-30.657 31.227C18.98 66.707 5.25 52.73 5.25 35.48S18.98 4.251 35.907 4.251c16.926 0 30.656 13.977 30.656 31.228z" fill="#FFC9E7" fill-opacity=".3" stroke="#E4829E" stroke-width=".5"/><g filter="url(#filter0_f)"><path d="M22.013 16.299c4.453-2.026 4.426-4.07 4.066-4.971-1.08-1.216-1.994-.846-3.24-.54-1.633.4-4.012 2.607-6.072 4.593-2.002 1.929-5.23 6.363-5.283 8.209-.046 1.626.827 2.864 1.232 1.513s4.218-6.493 9.297-8.804z" fill="#fff"/></g><path d="M23.43 62.586C37.68 66.9 64.146 60.759 64.283 29.94c3.992 16.496-11.478 43.258-40.855 32.646z" fill="#FFCBE8"/></g><defs><clipPath id="clip0"><path fill="#fff" d="M0 0h73v71H0z"/></clipPath><filter id="filter0_f" x="10.482" y="9.485" width="16.742" height="17.194" filterUnits="userSpaceOnUse" color-interpolation-filters="sRGB"><feFlood flood-opacity="0" result="BackgroundImageFix"/><feBlend in="SourceGraphic" in2="BackgroundImageFix" result="shape"/><feGaussianBlur stdDeviation=".5" result="effect1_foregroundBlur"/></filter></defs></svg>