<svg width="426" height="279" fill="none" xmlns="http://www.w3.org/2000/svg"><path d="M380.422 70.596l-24.853-9.333a6.848 6.848 0 00-5.226.186 6.862 6.862 0 00-3.575 3.82l-3.906 10.419a6.876 6.876 0 004.002 8.813l6.01 2.255c1.837 3.757 2.656 6.663 3.648 7.032.992.37 3.911-1.54 7.367-2.898l7.828 2.937a6.852 6.852 0 005.224-.186 6.863 6.863 0 003.577-3.817l3.902-10.422a6.858 6.858 0 00-3.998-8.806z" fill="url(#paint0_linear)"/><path d="M372.16 78.79c1.045-2.748-.319-5.515-2.476-6.339a4.35 4.35 0 00-4.998 1.39 4.368 4.368 0 00-2.803-4.376c-2.157-.828-4.998.327-6.067 3.079-1.584 4.16 2.972 11.357 4.356 12.457l.081.062a.93.93 0 00.123.07.768.768 0 00.135.03h.103c1.773.112 9.962-2.217 11.546-6.373z" fill="#FCFCFC"/><path d="M245.34 161.394l-24.853-9.333a6.846 6.846 0 00-5.226.186 6.86 6.86 0 00-3.575 3.82l-3.906 10.419a6.875 6.875 0 004.002 8.813l6.01 2.255c1.837 3.757 2.656 6.662 3.648 7.032.992.369 3.91-1.54 7.367-2.898l7.828 2.936a6.85 6.85 0 005.224-.185 6.864 6.864 0 003.577-3.817l3.902-10.422a6.858 6.858 0 00-3.998-8.806z" fill="url(#paint1_linear)"/><path d="M237.076 169.587c1.046-2.748-.319-5.515-2.476-6.338a4.344 4.344 0 00-4.998 1.389 4.367 4.367 0 00-2.803-4.376c-2.157-.827-4.998.327-6.067 3.079-1.584 4.16 2.972 11.357 4.356 12.458l.081.061a.83.83 0 00.123.07.775.775 0 00.135.03h.103c1.773.112 9.962-2.216 11.546-6.373z" fill="#FCFCFC"/><path d="M273.825 225.331l-18.092 8.065a5.235 5.235 0 00-2.71 2.824 5.069 5.069 0 00.027 3.869l3.209 7.505a4.919 4.919 0 002.765 2.648 5.089 5.089 0 003.871-.111l4.374-1.951c2.899 1.013 4.818 2.11 5.539 1.787.721-.324 1.315-2.848 2.478-5.363l5.697-2.542a5.242 5.242 0 002.709-2.823 5.075 5.075 0 00-.024-3.868l-3.213-7.505a4.914 4.914 0 00-2.762-2.648 5.077 5.077 0 00-3.868.113z" fill="url(#paint2_linear)"/><path d="M273.562 233.936c-.839-1.99-2.982-2.731-4.56-2.037a3.335 3.335 0 00-1.533 1.355 3.27 3.27 0 00-.443 1.985 3.136 3.136 0 00-1.716-1.038 3.245 3.245 0 00-2.02.202c-1.58.692-2.517 2.782-1.689 4.786 1.269 3.013 7.384 4.415 8.688 4.271l.075-.01a.721.721 0 00.101-.028.533.533 0 00.088-.054l.056-.054c1.009-.867 4.22-6.367 2.953-9.378z" fill="#FCFCFC"/><path d="M163.048 33.48l-22.655 7.434c-1.546.511-3.018 1.52-4.094 2.803-1.076 1.285-1.668 2.741-1.647 4.051l.148 8.031c.03 1.307.67 2.359 1.781 2.925 1.111.567 2.602.602 4.149.1l5.478-1.799c2.632 1.22 4.189 2.476 5.092 2.178.904-.299 2.626-2.907 4.948-5.474l7.135-2.343c1.546-.512 3.017-1.52 4.092-2.803 1.076-1.284 1.669-2.74 1.65-4.05l-.152-8.03c-.029-1.307-.668-2.359-1.778-2.925-1.111-.566-2.601-.601-4.147-.098z" fill="url(#paint3_linear)"/><path d="M159.003 42.568c-.065-2.205-2.05-3.193-4.031-2.596a5.5 5.5 0 00-2.21 1.31c-.634.61-1.092 1.34-1.308 2.081-.253-.6-.745-1.044-1.403-1.267-.657-.222-1.445-.21-2.248.033-1.982.595-3.863 2.744-3.816 4.963.097 3.338 6.059 5.396 7.517 5.36l.084-.003c.04-.004.08-.01.12-.02a.869.869 0 00.117-.05l.083-.053c1.444-.835 7.19-6.423 7.095-9.758z" fill="#FCFCFC"/><path d="M244.51 82.853l-16.951 5.562a6.918 6.918 0 00-3.062 2.098c-.805.96-1.248 2.05-1.233 3.03l.111 6.01c.022.977.502 1.764 1.333 2.188.831.423 1.947.45 3.104.074l4.098-1.346c1.97.913 3.135 1.853 3.811 1.629.675-.223 1.964-2.174 3.701-4.096l5.339-1.753a6.921 6.921 0 003.061-2.097c.805-.96 1.249-2.05 1.235-3.03l-.114-6.008c-.022-.978-.5-1.764-1.331-2.188-.83-.423-1.946-.45-3.102-.073z" fill="url(#paint4_linear)"/><path d="M241.485 89.652c-.048-1.649-1.533-2.388-3.015-1.941-.6.179-1.18.522-1.654.98-.474.456-.817 1.002-.978 1.557-.19-.45-.558-.782-1.05-.948-.492-.166-1.082-.158-1.682.024-1.483.445-2.89 2.053-2.855 3.713.072 2.498 4.533 4.037 5.624 4.011l.063-.003a.613.613 0 00.09-.015.674.674 0 00.087-.037l.062-.04c1.081-.624 5.38-4.805 5.308-7.3z" fill="#FCFCFC"/><path d="M144.616 162.782l-18.517-1.618c-1.265-.107-2.654.221-3.863.911-1.208.69-2.139 1.687-2.588 2.773l-2.737 6.664c-.441 1.087-.364 2.172.214 3.018.579.846 1.612 1.385 2.875 1.499l4.477.39c1.414 1.905 2.062 3.47 2.801 3.533.739.063 2.869-1.496 5.406-2.818l5.832.508c1.265.107 2.653-.221 3.861-.91 1.209-.69 2.14-1.686 2.59-2.771l2.734-6.666c.442-1.086.366-2.17-.212-3.016-.579-.845-1.611-1.384-2.873-1.497z" fill="url(#paint5_linear)"/><path d="M138.565 169.34c.688-1.91-.39-3.585-1.993-3.902a3.58 3.58 0 00-2.003.195 3.697 3.697 0 00-1.62 1.233 2.434 2.434 0 00-.572-1.669c-.392-.465-.954-.785-1.604-.912-1.604-.321-3.653.73-4.358 2.646-1.043 2.893 2.497 7.143 3.542 7.722l.061.033c.029.013.06.024.092.032a.663.663 0 00.1.007l.076-.011c1.301-.11 7.235-2.483 8.279-5.374z" fill="#FCFCFC"/><path d="M3.488 170.471l16.823-6.318a4.64 4.64 0 015.958 2.712l2.644 7.053a4.655 4.655 0 01-2.71 5.966l-4.067 1.527c-1.244 2.542-1.799 4.509-2.47 4.759-.672.25-2.647-1.042-4.987-1.961l-5.299 1.987a4.642 4.642 0 01-5.957-2.709L.78 176.432a4.643 4.643 0 012.707-5.961z" fill="url(#paint6_linear)"/><path d="M9.086 176.017c-.708-1.86.216-3.733 1.676-4.29a2.942 2.942 0 013.383.94 2.954 2.954 0 011.898-2.962c1.46-.56 3.383.222 4.106 2.084 1.073 2.816-2.011 7.688-2.948 8.433l-.055.042a.641.641 0 01-.083.047.692.692 0 01-.091.021h-.07c-1.2.075-6.744-1.501-7.816-4.315z" fill="#FCFCFC"/><path d="M199.38 131.106l-23.617 11.528c-1.613.789-2.994 2.084-3.842 3.602-.849 1.519-1.095 3.136-.685 4.5l2.547 8.347c.419 1.359 1.458 2.351 2.892 2.759 1.433.407 3.145.197 4.759-.585l5.71-2.783c3.365.833 5.544 1.863 6.462 1.441.918-.422 2.144-3.459 4.024-6.527l7.41-3.677c1.612-.789 2.994-2.085 3.842-3.603.848-1.518 1.095-3.135.685-4.499l-2.542-8.351c-.427-1.35-1.468-2.333-2.899-2.735-1.431-.403-3.136-.193-4.746.583z" fill="url(#paint7_linear)"/><path d="M183.089 149.094l1.838 5.745c.123.385.613.516 1.093.292l2.583-1.204c.48-.225.77-.719.647-1.105l-1.837-5.744c-.124-.386-.613-.517-1.094-.293l-2.583 1.205c-.48.224-.77.719-.647 1.104z" fill="#FCFCFC"/><path d="M196.642 142.927l-.127.093c.285-.2.515-.473.65-.773.134-.3.165-.609.086-.872a.881.881 0 00-.516-.574c-.255-.107-.567-.112-.883-.014l-4.156 2.055c.426-1.128.566-2.265.409-3.306-.427-1.433-1.571-1.783-2.196-1.575a1.499 1.499 0 00-.706.469 1.248 1.248 0 00-.309.733c-.042.52.502 1.188.477 1.539-.054.543-.771 1.584-1.63 3.587-.442 1.099-.5 2.21-.165 3.143l.59 1.98.582 1.981.276.919a.544.544 0 00.381.375.756.756 0 00.306.021c.108-.013.218-.047.324-.099l7.723-3.815a1.401 1.401 0 00.616-.566c.068-.12.113-.246.132-.37a.795.795 0 00-.019-.352.63.63 0 00-.458-.438.914.914 0 00-.367-.017 1.202 1.202 0 00-.384.129l.122-.089a1.72 1.72 0 00.776-.692c.087-.149.144-.306.169-.46a.974.974 0 00-.022-.439.768.768 0 00-.211-.345.815.815 0 00-.364-.196 1.112 1.112 0 00-.458-.014 1.516 1.516 0 00-.478.17l.427-.212a1.72 1.72 0 00.776-.692 1.37 1.37 0 00.17-.46.988.988 0 00-.023-.439.766.766 0 00-.21-.345.824.824 0 00-.365-.196 1.112 1.112 0 00-.458-.014 1.524 1.524 0 00-.478.17h-.009z" fill="#FCFCFC"/><path d="M56.472 31.163L32.854 42.69c-1.612.79-2.993 2.085-3.842 3.603-.848 1.518-1.094 3.135-.685 4.499l2.548 8.347c.418 1.36 1.458 2.351 2.892 2.759 1.433.407 3.144.197 4.759-.585l5.71-2.783c3.365.834 5.543 1.863 6.462 1.441.918-.422 2.144-3.459 4.024-6.527l7.41-3.677c1.612-.79 2.994-2.084 3.842-3.602.848-1.518 1.094-3.136.685-4.5l-2.542-8.351c-.427-1.35-1.469-2.332-2.9-2.735-1.43-.402-3.135-.193-4.745.584z" fill="url(#paint8_linear)"/><path d="M40.18 49.151l1.837 5.745c.123.386.612.517 1.093.293l2.583-1.205c.48-.224.77-.719.647-1.104l-1.838-5.745c-.123-.386-.613-.517-1.093-.292l-2.583 1.204c-.48.224-.77.719-.647 1.105z" fill="#FCFCFC"/><path d="M53.738 42.985l-.128.093c.286-.2.516-.473.65-.773.135-.3.166-.609.087-.872a.884.884 0 00-.516-.574c-.255-.107-.567-.112-.883-.014l-4.156 2.054c.426-1.127.566-2.264.409-3.305-.427-1.434-1.57-1.783-2.196-1.575a1.497 1.497 0 00-.706.468 1.247 1.247 0 00-.31.734c-.041.52.502 1.187.478 1.539-.054.543-.771 1.584-1.63 3.587-.442 1.098-.5 2.209-.165 3.142l.59 1.98.581 1.981.276.92a.543.543 0 00.381.374.757.757 0 00.306.022c.108-.014.219-.047.325-.1l7.723-3.814a1.385 1.385 0 00.615-.566c.069-.12.114-.246.133-.37a.8.8 0 00-.02-.352.63.63 0 00-.458-.438.9.9 0 00-.366-.017c-.13.019-.26.063-.385.129l.122-.09a1.693 1.693 0 00.777-.692c.086-.149.144-.305.17-.46a.984.984 0 00-.023-.438.772.772 0 00-.575-.541 1.116 1.116 0 00-.459-.014 1.502 1.502 0 00-.477.17l.426-.212a1.695 1.695 0 00.777-.692 1.4 1.4 0 00.17-.46.984.984 0 00-.023-.439.772.772 0 00-.575-.54 1.116 1.116 0 00-.458-.015 1.504 1.504 0 00-.478.17h-.009z" fill="#FCFCFC"/><path d="M388.087 115.164l-23.617 11.528c-1.613.789-2.994 2.084-3.842 3.602-.849 1.518-1.095 3.136-.685 4.499l2.547 8.348c.418 1.359 1.458 2.351 2.892 2.758 1.433.408 3.144.197 4.759-.584l5.71-2.783c3.365.833 5.544 1.862 6.462 1.44.918-.422 2.144-3.459 4.024-6.527l7.41-3.677c1.612-.789 2.994-2.084 3.842-3.602.848-1.518 1.094-3.136.685-4.499l-2.542-8.352c-.427-1.35-1.469-2.332-2.899-2.735-1.431-.402-3.136-.193-4.746.584z" fill="url(#paint9_linear)"/><path d="M371.794 133.152l1.838 5.744c.123.386.613.517 1.093.293l2.583-1.205c.481-.224.77-.718.647-1.104l-1.837-5.745c-.124-.385-.613-.516-1.094-.292l-2.583 1.205c-.48.224-.77.718-.647 1.104z" fill="#FCFCFC"/><path d="M385.35 126.985l-.128.093c.286-.2.515-.473.65-.773.134-.3.165-.608.087-.872a.886.886 0 00-.516-.574c-.256-.107-.568-.112-.884-.014l-4.155 2.055c.425-1.128.566-2.265.408-3.306-.427-1.433-1.57-1.783-2.196-1.575a1.508 1.508 0 00-.706.469 1.25 1.25 0 00-.309.734c-.042.52.502 1.187.477 1.538-.054.543-.771 1.584-1.63 3.587-.442 1.099-.5 2.21-.165 3.143l.591 1.981.581 1.98.276.919a.545.545 0 00.381.375.756.756 0 00.306.021c.108-.013.219-.047.325-.099l7.723-3.815a1.387 1.387 0 00.615-.566c.068-.12.113-.246.133-.37a.79.79 0 00-.02-.351.62.62 0 00-.168-.278.667.667 0 00-.29-.161.91.91 0 00-.366-.017c-.129.019-.26.063-.385.129l.122-.089a1.704 1.704 0 00.776-.692c.087-.149.145-.306.17-.46a.988.988 0 00-.023-.439.766.766 0 00-.21-.345.826.826 0 00-.364-.196 1.117 1.117 0 00-.459-.014 1.51 1.51 0 00-.477.17l.426-.212a1.687 1.687 0 00.777-.692c.086-.149.144-.306.169-.46a.989.989 0 00-.022-.439.768.768 0 00-.211-.345.826.826 0 00-.364-.196 1.117 1.117 0 00-.459-.014 1.51 1.51 0 00-.477.17h-.009z" fill="#FCFCFC"/><path d="M129.339 115.379l-18.087 8.829c-1.235.604-2.293 1.596-2.942 2.758-.65 1.163-.839 2.402-.525 3.446l1.951 6.393c.32 1.041 1.117 1.8 2.215 2.112 1.097.312 2.408.151 3.644-.448l4.373-2.131c2.577.638 4.246 1.427 4.949 1.103.703-.323 1.642-2.649 3.082-4.998l5.674-2.816c1.235-.604 2.293-1.596 2.943-2.759.649-1.162.838-2.401.524-3.445l-1.946-6.396c-.327-1.034-1.125-1.786-2.221-2.094-1.095-.309-2.401-.148-3.634.446z" fill="url(#paint10_linear)"/><path d="M116.862 129.154l1.407 4.4c.094.295.469.396.837.224l1.978-.923c.368-.171.59-.55.496-.845l-1.407-4.4c-.095-.295-.47-.396-.838-.224l-1.978.923c-.368.171-.59.55-.495.845z" fill="#FCFCFC"/><path d="M127.243 124.431l-.098.072c.219-.153.395-.363.498-.592a.97.97 0 00.066-.668.677.677 0 00-.395-.44.988.988 0 00-.676-.01l-3.183 1.573c.326-.863.434-1.734.313-2.531-.327-1.098-1.203-1.366-1.682-1.206-.203.06-.396.188-.54.358a.958.958 0 00-.237.562c-.032.398.384.909.365 1.179-.041.415-.59 1.213-1.248 2.747-.338.841-.383 1.692-.126 2.406l.452 1.517.445 1.517.212.703a.409.409 0 00.291.288.59.59 0 00.235.016.771.771 0 00.248-.076l5.915-2.922c.097-.045.188-.106.269-.181.081-.074.15-.16.202-.252a.824.824 0 00.101-.283.617.617 0 00-.014-.269.484.484 0 00-.351-.336.674.674 0 00-.281-.013.91.91 0 00-.294.098l.093-.068a1.294 1.294 0 00.594-.53 1.02 1.02 0 00.13-.352.738.738 0 00-.017-.336.598.598 0 00-.44-.414.84.84 0 00-.351-.011 1.173 1.173 0 00-.366.13l.327-.162a1.32 1.32 0 00.594-.53c.067-.115.111-.234.13-.353a.754.754 0 00-.017-.336.598.598 0 00-.44-.414.875.875 0 00-.351-.011 1.143 1.143 0 00-.366.131l-.007-.001z" fill="#FCFCFC"/><path d="M421.004 243.892l-15.816-8.901c-1.08-.607-2.254-.944-3.264-.939-1.009.006-1.774.355-2.125.97l-2.132 3.787c-.346.619-.25 1.453.267 2.319.517.867 1.413 1.696 2.491 2.307l3.822 2.153c1.263 1.998 1.884 3.436 2.489 3.79.604.354 2.401.096 4.52.171l4.986 2.775c1.081.607 2.254.945 3.264.939 1.01-.006 1.774-.355 2.126-.97l2.137-3.786c.337-.62.236-1.452-.281-2.316-.518-.863-1.41-1.689-2.484-2.299z" fill="url(#paint11_linear)"/><path d="M405.994 241.249l-1.469 3.259c-.099.219.072.566.382.775l1.663 1.124c.31.209.641.201.739-.017l1.47-3.259c.099-.219-.072-.566-.382-.775l-1.664-1.124c-.309-.21-.64-.202-.739.017z" fill="#FCFCFC"/><path d="M415.14 245.748l-.1-.043c.22.099.442.143.629.125.186-.019.325-.099.393-.226.068-.128.06-.295-.021-.474a1.402 1.402 0 00-.426-.505l-2.857-1.709c.661-.114 1.188-.393 1.529-.811.368-.694-.049-1.453-.439-1.742a1.305 1.305 0 00-.533-.252c-.182-.037-.341-.017-.447.056-.229.14-.232.659-.386.755-.245.141-1.014.063-2.239.207-.658.096-1.134.413-1.345.897l-.509.96-.513.954-.235.446a.268.268 0 00-.026.154.491.491 0 00.061.181.825.825 0 00.141.18c.059.057.126.109.199.153l5.308 3.177c.086.053.177.096.268.125a.868.868 0 00.261.045.485.485 0 00.213-.041.276.276 0 00.132-.122.307.307 0 00.03-.183.56.56 0 00-.077-.215.958.958 0 00-.172-.213 1.256 1.256 0 00-.24-.178l.095.041c.106.068.219.123.332.161.113.038.224.059.326.061a.6.6 0 00.268-.049.341.341 0 00.166-.151.382.382 0 00.036-.228.716.716 0 00-.099-.268 1.21 1.21 0 00-.219-.265 1.578 1.578 0 00-.302-.217l.294.175c.106.068.219.123.332.161.113.038.224.059.326.061a.603.603 0 00.268-.049.346.346 0 00.166-.151.39.39 0 00.036-.228.702.702 0 00-.1-.268 1.203 1.203 0 00-.218-.265 1.496 1.496 0 00-.302-.217l-.004-.005z" fill="#FCFCFC"/><path d="M208.88 64.685l-15.816-8.9c-1.08-.608-2.254-.945-3.263-.94-1.01.006-1.774.355-2.126.97l-2.132 3.787c-.346.619-.25 1.453.267 2.32.517.866 1.413 1.695 2.491 2.306l3.822 2.153c1.263 1.998 1.884 3.436 2.489 3.79.604.353 2.401.096 4.52.171l4.986 2.775c1.081.607 2.254.944 3.264.939 1.01-.006 1.774-.355 2.126-.97l2.137-3.785c.337-.62.236-1.453-.281-2.316-.517-.864-1.41-1.69-2.484-2.3z" fill="url(#paint12_linear)"/><path d="M193.869 62.042l-1.47 3.259c-.098.219.073.566.382.775l1.664 1.124c.31.21.641.202.739-.017l1.469-3.26c.099-.218-.072-.565-.382-.775l-1.663-1.124c-.31-.209-.641-.201-.739.018z" fill="#FCFCFC"/><path d="M203.013 66.54l-.1-.043c.22.1.443.143.629.125.186-.018.325-.098.393-.226.068-.127.061-.295-.021-.473a1.39 1.39 0 00-.426-.506l-2.857-1.709c.662-.114 1.188-.393 1.53-.81.368-.694-.05-1.453-.44-1.742a1.307 1.307 0 00-.533-.253c-.182-.036-.341-.016-.446.056-.23.14-.233.66-.387.756-.244.14-1.013.062-2.239.207-.658.095-1.134.413-1.345.897l-.509.96-.513.953-.234.447a.26.26 0 00-.027.153.473.473 0 00.062.181.803.803 0 00.141.18c.058.058.125.11.198.153l5.309 3.177c.085.053.176.096.267.125.091.03.18.045.261.046a.493.493 0 00.214-.042.284.284 0 00.132-.122.307.307 0 00.03-.183.581.581 0 00-.078-.215.97.97 0 00-.172-.213 1.249 1.249 0 00-.24-.177l.096.04c.105.069.218.124.331.162.113.038.224.059.327.06a.614.614 0 00.268-.048.349.349 0 00.165-.151.375.375 0 00.036-.229.719.719 0 00-.099-.268 1.211 1.211 0 00-.219-.264 1.547 1.547 0 00-.301-.217l.293.175c.106.068.219.123.332.16a1.1 1.1 0 00.326.062.609.609 0 00.268-.05.347.347 0 00.166-.15.382.382 0 00.036-.229.719.719 0 00-.099-.268 1.213 1.213 0 00-.219-.264 1.547 1.547 0 00-.301-.218l-.005-.005z" fill="#FCFCFC"/><path d="M353.731 180.166l-17.426 4.995c-1.19.343-2.303.995-3.098 1.815-.794.819-1.204 1.74-1.14 2.56l.417 5.024c.071.819.609 1.468 1.498 1.807.889.339 2.056.34 3.247.002l4.212-1.206c2.105.725 3.393 1.478 4.067 1.299.674-.179 1.95-1.853 3.665-3.498l5.476-1.602c1.19-.343 2.304-.995 3.098-1.815.794-.819 1.204-1.74 1.141-2.56l-.413-5.026c-.078-.814-.619-1.458-1.507-1.794-.887-.336-2.05-.336-3.237-.001z" fill="url(#paint13_linear)"/><path d="M340.361 189.529l.48 3.643c.032.245.373.369.761.277l2.087-.493c.388-.092.677-.364.644-.609l-.479-3.643c-.033-.244-.373-.368-.762-.277l-2.086.493c-.389.092-.677.365-.645.609z" fill="#FCFCFC"/><path d="M350.094 186.714l-.103.046c.23-.097.432-.241.572-.408.14-.168.209-.348.195-.51a.465.465 0 00-.27-.379c-.161-.083-.378-.11-.613-.076l-3.207.901c.47-.635.743-1.298.795-1.926-.076-.882-.817-1.176-1.284-1.1a1.276 1.276 0 00-.563.224.843.843 0 00-.329.411c-.109.305.166.741.094.947-.121.318-.781.88-1.688 2.001-.477.617-.689 1.27-.6 1.848l.104 1.218.098 1.217.05.565a.272.272 0 00.061.151.34.34 0 00.146.1.578.578 0 00.21.036.86.86 0 00.241-.034l5.961-1.672c.097-.025.193-.064.281-.113.089-.05.168-.109.234-.175a.732.732 0 00.15-.209.427.427 0 00.04-.21.307.307 0 00-.073-.178.43.43 0 00-.178-.117.733.733 0 00-.252-.038c-.092.002-.19.018-.287.047l.098-.043a1.432 1.432 0 00.647-.351.874.874 0 00.189-.259.518.518 0 00.053-.262.374.374 0 00-.094-.22.506.506 0 00-.223-.144.877.877 0 00-.316-.043 1.365 1.365 0 00-.359.064l.33-.093a1.425 1.425 0 00.647-.351.911.911 0 00.189-.259.528.528 0 00.052-.262.38.38 0 00-.093-.22.511.511 0 00-.223-.144.886.886 0 00-.317-.043 1.351 1.351 0 00-.358.064l-.007-.001z" fill="#FCFCFC"/><path d="M257.768 142.687l.03.01c1.125.392 2.129.794 2.991 1.139.408.163.784.313 1.126.444.534.204.985.36 1.349.443.367.084.628.09.794.014a.656.656 0 00.241-.215c.082-.109.161-.251.24-.425.158-.347.31-.81.471-1.353.084-.283.17-.588.26-.908.256-.904.547-1.935.923-2.963l.011-.032.03-.013 6.034-2.753-14.5 6.612zm0 0l-.028.013m.028-.013l-.028.013m0 0l-4.634 2.114s0 0 0 0c-1.29.582-2.803.611-4.209.078a6.241 6.241 0 01-3.294-2.925l-4.336-8.34c-.694-1.345-.847-2.864-.429-4.226a4.92 4.92 0 012.659-3.049M257.74 142.7l-14.243-16.348m0 0l19.162-8.738c1.289-.58 2.801-.607 4.206-.074a6.237 6.237 0 013.29 2.923l-26.658 5.889zm0 0s0 0 0 0m0 0h0m26.658-5.889l4.339 8.337c.694 1.345.848 2.864.43 4.225a4.92 4.92 0 01-2.656 3.05l-2.113-15.612z" fill="#FCFCFC" stroke="#A3A3A3" stroke-width=".2"/><path d="M265.05 129.003c-1.769-4.112-6.314-6.229-10.152-4.729-3.837 1.501-5.514 6.05-3.744 10.162 1.769 4.112 6.314 6.229 10.152 4.729 3.837-1.501 5.513-6.05 3.744-10.162z" fill="url(#paint14_linear)"/><path d="M261.645 131.483c1.112.613 1.499 3.629-1.166 5s-4.719-1.381-4.601-2.207c.157-1.132 1.984-.936 2.949-1.465.965-.529 1.723-1.927 2.818-1.328z" fill="#1F1F40"/><path d="M258.36 134.341a3.628 3.628 0 00-.213 2.381c.799.222 1.627.128 2.308-.262 1.93-1.003 2.267-2.835 1.894-4.027a4.07 4.07 0 00-.977-.055 3.686 3.686 0 00-1.782.585 3.532 3.532 0 00-1.23 1.378zm-4.516-6.764a1.448 1.448 0 00-.905.813c-.419.79.028 1.972.028 1.972a9.157 9.157 0 00-.931-.6 1.589 1.589 0 00-.837-.163 1.362 1.362 0 00-1.207.973 1.507 1.507 0 000 .837c.242.825 1.05 1.346 1.84 1.661a22.47 22.47 0 003.101.778c.59-1.212 1.031-3.173.696-4.548a2.855 2.855 0 00-.574-1.233 1.377 1.377 0 00-.551-.407 1.264 1.264 0 00-.66-.083z" fill="#FF2936"/><path d="M253.835 127.549a1.014 1.014 0 00-.416.197c.407.116.772.368 1.033.711.352.49.56 1.062.596 1.643a2.77 2.77 0 01-.39 1.623 2.55 2.55 0 01-1.149 1.061 2.772 2.772 0 01-1.595.218 3.548 3.548 0 01-.715-.237c.2.111.405.209.616.293 1.022.335 2.06.596 3.108.781.591-1.216 1.033-3.184.697-4.564a2.86 2.86 0 00-.575-1.237 1.393 1.393 0 00-.551-.407 1.27 1.27 0 00-.659-.082z" fill="#BF101F"/><path d="M261.007 124.398a1.553 1.553 0 00-.63.103 1.467 1.467 0 00-.521.344c-.666.589-.633 1.809-.633 1.809a9.288 9.288 0 00-.704-.857 1.679 1.679 0 00-.759-.425 1.5 1.5 0 00-.836.025 1.351 1.351 0 00-.659.468 1.398 1.398 0 00-.278.767c-.045.819.577 1.579 1.239 2.131.88.641 1.8 1.22 2.753 1.733.987-.921 2.051-2.572 2.183-3.943a2.63 2.63 0 00-.151-1.317 1.367 1.367 0 00-1.004-.838z" fill="#FF2936"/><path d="M260.991 124.331a1.117 1.117 0 00-.465.036c.357.243.63.595.772.997.183.569.196 1.166.04 1.715a2.64 2.64 0 01-.921 1.368 2.655 2.655 0 01-1.472.6 3.023 3.023 0 01-1.629-.326 3.86 3.86 0 01-.62-.46c.162.167.334.323.516.467a24.167 24.167 0 002.771 1.749c.992-.93 2.064-2.597 2.196-3.982.064-.44.012-.898-.152-1.331a1.388 1.388 0 00-1.036-.833z" fill="#BF101F"/><path d="M89.557 61.615l.018.036c.63 1.275 1.133 2.432 1.565 3.424.204.468.392.9.57 1.29.278.611.53 1.119.78 1.512.251.394.492.661.744.806.253.145.657.226 1.2.256.54.03 1.2.012 1.955-.028.395-.02.816-.047 1.258-.075 1.247-.077 2.665-.166 4.161-.17h.026l.025.014 8.764 5.032c1.886 1.076 4.022 1.632 5.942 1.547 1.921-.086 3.461-.805 4.292-1.99h.001l5.162-7.43v-.001c.815-1.188.863-2.743.134-4.334-.731-1.595-2.188-3.103-4.064-4.19l-27.832-15.98c-1.885-1.077-4.022-1.635-5.943-1.55-1.922.084-3.463.803-4.296 1.988 0 0 0 0 0 0l-5.167 7.43s0 0 0 0c-.816 1.189-.864 2.746-.133 4.338.733 1.597 2.193 3.106 4.072 4.191l6.766 3.884zm0 0l-.035-.02-6.73-3.864 6.765 3.884z" fill="#FCFCFC" stroke="#A3A3A3" stroke-width=".2"/><path d="M111.438 65.263c2.681-3.947.654-10.33-4.529-14.256-5.182-3.926-11.556-3.91-14.237.038-2.681 3.947-.653 10.33 4.529 14.256s11.557 3.91 14.237-.038z" fill="url(#paint15_linear)"/><path d="M105.444 62.632c.368 1.319-2.601 2.784-6.627.642-4.026-2.141-2.917-5.158-1.893-5.338 1.4-.25 2.903 1.624 4.397 2.388 1.493.764 3.753 1.011 4.123 2.308z" fill="#1F1F40"/><path d="M99.11 60.911c-1.093-.07-2.065.13-2.765.571.496.792 1.36 1.51 2.406 2 2.858 1.42 5.145 1.137 6.088.418a6.459 6.459 0 00-.84-.899 8.372 8.372 0 00-2.27-1.42 8.625 8.625 0 00-2.62-.67zm4.353-8.858a4.338 4.338 0 00-.877-.48 3.76 3.76 0 00-.921-.248c-1.297-.241-2.188.492-2.188.492a6.754 6.754 0 00-.236-1.088c-.112-.3-.333-.607-.636-.888a3.93 3.93 0 00-1.08-.7 3.426 3.426 0 00-1.192-.297c-.377-.017-.703.05-.94.197-.69.44-.484 1.383-.065 2.26a31.308 31.308 0 002.159 3.333c1.936.314 4.569.301 5.786-.363.415-.192.699-.492.823-.873.059-.192.031-.419-.081-.656a2.15 2.15 0 00-.552-.69z" fill="#FF2936"/><path d="M103.377 52.232a2.941 2.941 0 00-.62-.362c.264.424.338.837.21 1.169-.203.453-.637.783-1.245.949-.609.165-1.367.158-2.177-.02a7.44 7.44 0 01-2.287-.887c-.721-.425-1.34-.95-1.782-1.51a4.11 4.11 0 01-.428-.753c.069.22.16.443.27.668a30.115 30.115 0 002.136 3.212c1.92.307 4.528.3 5.734-.335.411-.184.693-.472.816-.838.057-.184.029-.402-.081-.63a2.089 2.089 0 00-.546-.663z" fill="#BF101F"/><path d="M112.683 56.827a3.814 3.814 0 00-.733-.618 4.384 4.384 0 00-.896-.45c-1.315-.54-2.654-.22-2.654-.22.123-.292.215-.599.274-.92.023-.266-.068-.569-.265-.873a3.163 3.163 0 00-.847-.848 4.018 4.018 0 00-1.171-.56c-.408-.118-.801-.154-1.135-.104-.965.147-1.211.961-1.183 1.766.141 1.048.391 2.123.748 3.216 2.001.788 4.9 1.485 6.569 1.296.553-.037 1.012-.197 1.334-.464a.649.649 0 00.227-.534c-.007-.215-.1-.452-.268-.687z" fill="#FF2936"/><path d="M112.47 57.193a2.356 2.356 0 00-.479-.412c.074.37-.05.685-.351.893-.446.276-1.082.406-1.826.372-.745-.034-1.566-.23-2.36-.562a7.47 7.47 0 01-2.045-1.21c-.574-.487-.987-1.02-1.189-1.534a2.03 2.03 0 01-.087-.649 2.336 2.336 0 00-.019.557c.136.926.378 1.876.723 2.844 1.951.712 4.778 1.352 6.408 1.198.539-.028.987-.165 1.302-.398a.545.545 0 00.208-.482c-.013-.194-.112-.407-.285-.617z" fill="#BF101F"/><path d="M97.15 177.941c1.294.747 2.323 1.755 2.87 2.794.544 1.033.568 2.014.077 2.739h0l-3.122 4.632c-.495.727-1.477 1.146-2.745 1.148-1.266.002-2.703-.413-3.994-1.155l6.914-10.158zm0 0l-19.115-10.999c-1.288-.74-2.722-1.155-3.987-1.154-1.266 0-2.248.417-2.746 1.14v.001l-3.127 4.629s0 0 0 0c-.484.726-.455 1.705.09 2.736.547 1.036 1.573 2.041 2.863 2.787l4.621 2.664.03.017.02.033c.47.838.853 1.598 1.18 2.248.153.303.294.583.426.835.209.399.395.729.575.986.18.257.348.431.516.527.17.098.437.16.799.195.358.034.794.039 1.294.035.263-.003.543-.009.838-.014a46.541 46.541 0 012.746.002l.022.001.022.013 6.02 3.476 6.913-10.158z" fill="#FCFCFC" stroke="#A3A3A3" stroke-width=".2"/><path d="M88.037 175.026c-1.694-1.338-3.738-2.351-5.686-2.818-1.948-.466-3.643-.349-4.716.326-1.067.682-1.421 1.868-.985 3.299.437 1.431 1.628 2.99 3.315 4.338 1.69 1.336 3.73 2.348 5.675 2.816 1.945.468 3.64.355 4.716-.314 1.073-.681 1.432-1.868.997-3.301-.435-1.433-1.627-2.996-3.316-4.346z" fill="url(#paint16_linear)"/><path d="M80.686 176.027a2.5 2.5 0 00-.456-.281 2.195 2.195 0 00-.485-.168 1.167 1.167 0 00-.413-.02.4.4 0 00-.257.133c-.913 1.259.464 3.518 3.068 5.042 2.603 1.524 5.452 1.74 6.365.483a.319.319 0 00.03-.266.9.9 0 00-.188-.332 1.955 1.955 0 00-.367-.331 2.487 2.487 0 00-.472-.261 33.862 33.862 0 01-6.825-3.997v-.002z" fill="#1F1F40"/><path d="M81.93 181.969c.86.41 1.786.721 2.65.892-.599-.484-1.369-.945-2.22-1.33-1.754-.859-2.582-.959-2.582-.959.54.498 1.292.987 2.151 1.397z" fill="#FF2936"/><path d="M88.324 177.577a.364.364 0 01-.07-.047l-1.537-1.252a.35.35 0 01-.097-.116c-.019-.04-.021-.077-.007-.106.014-.03.043-.051.085-.061a.314.314 0 01.147.006s1.585.417 2.06.535a.547.547 0 01.206.106.3.3 0 01.11.156.108.108 0 01-.004.069.095.095 0 01-.047.047.186.186 0 01-.082.018.36.36 0 01-.105-.014c-.265-.065-.881-.225-1.37-.354l.97.791c.06.048.1.104.111.155.012.05-.005.092-.048.116a.235.235 0 01-.144.017.507.507 0 01-.178-.066zm-6.608-3.684a.45.45 0 01-.148-.135c-.032-.05-.043-.098-.03-.137.014-.038.05-.063.104-.072a.39.39 0 01.187.027l1.207.461-.948-1.001c-.05-.053-.075-.11-.071-.157.003-.047.035-.081.09-.095a.372.372 0 01.204.025.562.562 0 01.197.128l1.417 1.499a.27.27 0 01.071.121.104.104 0 01-.021.097c-.024.026-.062.04-.111.042a.399.399 0 01-.162-.033l-1.908-.746a.401.401 0 01-.078-.024z" fill="#1F1F40"/><path d="M341.857 134.186c1.294.747 2.323 1.755 2.87 2.794.544 1.033.568 2.014.077 2.739h0l-3.122 4.631c-.495.727-1.477 1.147-2.745 1.149-1.266.001-2.703-.413-3.994-1.155l6.914-10.158zm0 0l-19.115-10.999 19.115 10.999zm-6.914 10.158l-6.019-3.476-.022-.013-.022-.001a47.5 47.5 0 00-2.746-.003c-.295.006-.575.012-.838.014-.5.005-.936-.001-1.294-.035-.362-.034-.629-.096-.799-.194-.168-.097-.335-.271-.516-.528a9.175 9.175 0 01-.575-.986 64.875 64.875 0 01-.426-.834 53.43 53.43 0 00-1.181-2.248l-.018-.033-.031-.018-4.621-2.664c-1.29-.745-2.316-1.75-2.864-2.786-.544-1.031-.573-2.01-.089-2.736 0 0 0 0 0 0l3.127-4.63s0 0 0 0c.498-.724 1.48-1.14 2.746-1.141 1.265 0 2.699.415 3.987 1.155l12.201 21.157z" fill="#FCFCFC" stroke="#A3A3A3" stroke-width=".2"/><path d="M332.744 131.271c-1.694-1.338-3.738-2.351-5.686-2.817-1.948-.467-3.643-.349-4.716.326-1.067.682-1.421 1.868-.984 3.299.436 1.431 1.628 2.99 3.314 4.337 1.691 1.336 3.73 2.348 5.675 2.817 1.946.468 3.64.355 4.716-.315 1.073-.681 1.432-1.867.997-3.301-.435-1.433-1.627-2.996-3.316-4.346z" fill="url(#paint17_linear)"/><path d="M325.393 132.272a2.502 2.502 0 00-.456-.281 2.134 2.134 0 00-.485-.167 1.12 1.12 0 00-.413-.02.4.4 0 00-.257.133c-.913 1.259.464 3.518 3.068 5.041 2.603 1.524 5.452 1.74 6.365.483a.319.319 0 00.03-.266.9.9 0 00-.188-.332 1.955 1.955 0 00-.367-.331 2.578 2.578 0 00-.471-.261 33.86 33.86 0 01-6.826-3.996v-.003z" fill="#1F1F40"/><path d="M326.636 138.214c.861.41 1.788.721 2.652.892-.6-.484-1.37-.945-2.221-1.33-1.754-.859-2.582-.959-2.582-.959.541.499 1.292.987 2.151 1.397z" fill="#FF2936"/><path d="M333.031 133.821a.35.35 0 01-.071-.047l-1.535-1.252a.345.345 0 01-.098-.116c-.018-.04-.021-.077-.007-.106.014-.03.043-.051.085-.061a.315.315 0 01.148.006s1.584.417 2.059.535a.55.55 0 01.206.107c.06.049.099.104.11.155a.114.114 0 01-.004.069.097.097 0 01-.047.047.171.171 0 01-.082.018.355.355 0 01-.104-.014 105.89 105.89 0 01-1.371-.354l.97.791a.308.308 0 01.111.155c.012.051-.005.092-.048.116a.226.226 0 01-.144.017.509.509 0 01-.178-.066zm-6.607-3.684a.468.468 0 01-.149-.135c-.032-.05-.043-.099-.029-.137.013-.038.05-.064.103-.072a.392.392 0 01.187.027l1.207.461-.947-1.001c-.05-.053-.076-.11-.072-.157.003-.047.036-.081.09-.095a.38.38 0 01.204.025.56.56 0 01.197.128l1.417 1.499c.038.04.063.082.071.12.009.039.002.073-.021.098-.023.025-.062.04-.111.042a.418.418 0 01-.162-.033l-1.908-.746a.4.4 0 01-.077-.024z" fill="#1F1F40"/><defs><linearGradient id="paint0_linear" x1="348.641" y1="62.529" x2="378.676" y2="92.534" gradientUnits="userSpaceOnUse"><stop stop-color="#D65F83"/><stop offset="1" stop-color="#DC3E6C"/></linearGradient><linearGradient id="paint1_linear" x1="213.559" y1="153.327" x2="243.594" y2="183.332" gradientUnits="userSpaceOnUse"><stop stop-color="#D65F83"/><stop offset="1" stop-color="#DC3E6C"/></linearGradient><linearGradient id="paint2_linear" x1="252.66" y1="237.674" x2="284.04" y2="238.483" gradientUnits="userSpaceOnUse"><stop stop-color="#D65F83"/><stop offset="1" stop-color="#DC3E6C"/></linearGradient><linearGradient id="paint3_linear" x1="135.284" y1="45.22" x2="163.781" y2="57.776" gradientUnits="userSpaceOnUse"><stop stop-color="#D65F83"/><stop offset="1" stop-color="#DC3E6C"/></linearGradient><linearGradient id="paint4_linear" x1="223.737" y1="91.637" x2="245.058" y2="101.031" gradientUnits="userSpaceOnUse"><stop stop-color="#D65F83"/><stop offset="1" stop-color="#DC3E6C"/></linearGradient><linearGradient id="paint5_linear" x1="120.993" y1="162.965" x2="138.92" y2="180.618" gradientUnits="userSpaceOnUse"><stop stop-color="#D65F83"/><stop offset="1" stop-color="#DC3E6C"/></linearGradient><linearGradient id="paint6_linear" x1="25.001" y1="165.01" x2="4.67" y2="185.321" gradientUnits="userSpaceOnUse"><stop stop-color="#D65F83"/><stop offset="1" stop-color="#DC3E6C"/></linearGradient><linearGradient id="paint7_linear" x1="10002.8" y1="10025.9" x2="11028.1" y2="11036.7" gradientUnits="userSpaceOnUse"><stop stop-color="#65BBFF"/><stop offset="1" stop-color="#315DA4"/></linearGradient><linearGradient id="paint8_linear" x1="9859.9" y1="9926.01" x2="10885.2" y2="10936.8" gradientUnits="userSpaceOnUse"><stop stop-color="#65BBFF"/><stop offset="1" stop-color="#315DA4"/></linearGradient><linearGradient id="paint9_linear" x1="10191.5" y1="10009.9" x2="11216.8" y2="11020.7" gradientUnits="userSpaceOnUse"><stop stop-color="#65BBFF"/><stop offset="1" stop-color="#315DA4"/></linearGradient><linearGradient id="paint10_linear" x1="7636.99" y1="7692.98" x2="8422.21" y2="8467.05" gradientUnits="userSpaceOnUse"><stop stop-color="#65BBFF"/><stop offset="1" stop-color="#315DA4"/></linearGradient><linearGradient id="paint11_linear" x1="1110.7" y1="8266.18" x2="918.53" y2="9029.12" gradientUnits="userSpaceOnUse"><stop stop-color="#65BBFF"/><stop offset="1" stop-color="#315DA4"/></linearGradient><linearGradient id="paint12_linear" x1="898.592" y1="8086.81" x2="706.417" y2="8849.72" gradientUnits="userSpaceOnUse"><stop stop-color="#65BBFF"/><stop offset="1" stop-color="#315DA4"/></linearGradient><linearGradient id="paint13_linear" x1="5348.68" y1="6621.04" x2="5796.59" y2="7330.09" gradientUnits="userSpaceOnUse"><stop stop-color="#65BBFF"/><stop offset="1" stop-color="#315DA4"/></linearGradient><linearGradient id="paint14_linear" x1="9075.74" y1="1823.5" x2="9756.42" y2="1919.18" gradientUnits="userSpaceOnUse"><stop stop-color="#FFF900"/><stop offset="1" stop-color="#FF7C00"/></linearGradient><linearGradient id="paint15_linear" x1="6585.42" y1="11366.5" x2="6802.48" y2="12298.5" gradientUnits="userSpaceOnUse"><stop stop-color="#FFF900"/><stop offset="1" stop-color="#FF7C00"/></linearGradient><linearGradient id="paint16_linear" x1="6733.47" y1="6693.34" x2="6659.86" y2="6998.79" gradientUnits="userSpaceOnUse"><stop stop-color="#FFF900"/><stop offset="1" stop-color="#FF7C00"/></linearGradient><linearGradient id="paint17_linear" x1="6978.14" y1="6649.57" x2="6904.55" y2="6955.02" gradientUnits="userSpaceOnUse"><stop stop-color="#FFF900"/><stop offset="1" stop-color="#FF7C00"/></linearGradient></defs></svg>