<svg width="438" height="349" fill="none" xmlns="http://www.w3.org/2000/svg"><path d="M379.932 104.739l-24.853-8.366a7.582 7.582 0 00-5.226.167c-1.649.673-2.934 1.904-3.575 3.424l-3.906 9.338a5.578 5.578 0 00.187 4.69c.749 1.48 2.121 2.634 3.815 3.21l6.01 2.022c1.837 3.366 2.656 5.971 3.648 6.302.992.331 3.911-1.38 7.367-2.598l7.828 2.633a7.588 7.588 0 005.224-.167c1.649-.672 2.935-1.902 3.577-3.421l3.902-9.342a5.569 5.569 0 00-.184-4.686c-.75-1.479-2.121-2.632-3.814-3.206z" fill="url(#paint0_linear)"/><path d="M371.67 112.083a4.208 4.208 0 00-2.476-5.681 4.83 4.83 0 00-2.729-.119c-.9.225-1.695.703-2.269 1.364a3.606 3.606 0 00-.68-2.376c-.504-.706-1.249-1.248-2.123-1.546-2.157-.742-4.998.293-6.067 2.76-1.584 3.728 2.972 10.179 4.356 11.165l.081.056c.039.023.08.044.123.062a.769.769 0 00.135.027h.103c1.773.1 9.962-1.987 11.546-5.712z" fill="#FCFCFC"/><path d="M244.85 186.122l-24.853-8.366a7.582 7.582 0 00-5.226.167c-1.649.673-2.934 1.904-3.575 3.424l-3.906 9.339a5.575 5.575 0 00.187 4.689c.749 1.48 2.121 2.634 3.815 3.21l6.01 2.022c1.837 3.366 2.656 5.971 3.648 6.302.992.331 3.91-1.38 7.367-2.597l7.828 2.632a7.588 7.588 0 005.224-.167c1.649-.672 2.935-1.902 3.577-3.421l3.902-9.342a5.569 5.569 0 00-.184-4.686c-.75-1.479-2.121-2.632-3.814-3.206z" fill="url(#paint1_linear)"/><path d="M236.586 193.466a4.209 4.209 0 00-2.476-5.682 4.83 4.83 0 00-2.729-.118 4.4 4.4 0 00-2.269 1.364 3.61 3.61 0 00-.68-2.377c-.504-.706-1.249-1.248-2.123-1.545-2.157-.742-4.998.293-6.067 2.759-1.584 3.729 2.972 10.18 4.356 11.166l.081.055c.039.024.08.045.123.062a.874.874 0 00.135.028h.103c1.773.1 9.962-1.987 11.546-5.712z" fill="#FCFCFC"/><path d="M155.612 72.694l-18.681 6.737c-1.274.463-2.309 1.351-2.88 2.471-.571 1.12-.632 2.38-.168 3.504l2.863 6.893c.472 1.122 1.428 2.015 2.659 2.484a5.7 5.7 0 003.917.02l4.516-1.63c2.878 1.008 4.761 2.061 5.505 1.791.744-.27 1.472-2.537 2.773-4.778l5.883-2.123c1.273-.463 2.308-1.352 2.879-2.47.571-1.12.633-2.379.17-3.503l-2.867-6.894c-.47-1.121-1.425-2.014-2.656-2.483a5.687 5.687 0 00-3.913-.019z" fill="url(#paint2_linear)"/><path d="M154.914 80.478c-.748-1.829-2.877-2.568-4.507-1.989a3.39 3.39 0 00-1.618 1.18 2.774 2.774 0 00-.549 1.783 3.158 3.158 0 00-1.682-.994 3.655 3.655 0 00-2.051.12c-1.632.577-2.686 2.44-1.949 4.282 1.131 2.77 7.241 4.232 8.567 4.142l.076-.007a.726.726 0 00.104-.022.618.618 0 00.092-.046l.059-.047c1.063-.754 4.587-5.634 3.458-8.402z" fill="#FCFCFC"/><path d="M142.392 191.688l-14.323-7.215c-.979-.49-2.102-.682-3.125-.533-1.022.148-1.86.625-2.33 1.326l-2.875 4.307c-.465.704-.524 1.573-.163 2.418.36.845 1.11 1.596 2.086 2.091l3.463 1.744c.899 1.938 1.234 3.365 1.806 3.652.572.286 2.411-.242 4.543-.455l4.511 2.271c.979.49 2.102.681 3.124.533 1.022-.148 1.86-.624 2.331-1.324l2.873-4.31c.465-.703.524-1.571.164-2.415-.36-.845-1.11-1.596-2.085-2.09z" fill="url(#paint3_linear)"/><path d="M136.965 194.329c.794-1.227.169-2.707-1.048-3.324a3.158 3.158 0 00-1.6-.339c-.546.03-1.05.208-1.436.508a1.904 1.904 0 00-.228-1.354 2.709 2.709 0 00-1.14-1.051c-1.217-.619-2.966-.346-3.774.88-1.204 1.857 1.014 5.807 1.759 6.48l.043.038a.54.54 0 00.068.046.552.552 0 00.077.029l.062.01c1.037.233 6.014-.068 7.217-1.923z" fill="#FCFCFC"/><path d="M235.705 120.754l-15.323 3.632c-1.045.25-1.993.838-2.637 1.633-.644.796-.93 1.736-.798 2.614l.829 5.385c.139.876.686 1.618 1.521 2.063.835.446 1.891.558 2.937.313l3.705-.879c1.968.974 3.181 1.906 3.792 1.76.61-.146 1.591-1.789 2.999-3.371l4.825-1.145c1.045-.25 1.993-.837 2.637-1.633.643-.795.931-1.734.799-2.612l-.831-5.386c-.138-.876-.684-1.617-1.519-2.062-.835-.445-1.89-.557-2.936-.312z" fill="url(#paint4_linear)"/><path d="M233.677 126.568c-.22-1.442-1.688-2.175-3.026-1.873a3.103 3.103 0 00-1.441.757c-.394.37-.657.826-.748 1.3-.226-.403-.605-.715-1.083-.889a2.798 2.798 0 00-1.569-.079c-1.339.301-2.483 1.62-2.274 3.07.334 2.183 4.668 3.791 5.685 3.833l.058.001a.583.583 0 00.083-.008.541.541 0 00.077-.027l.054-.031c.943-.481 4.517-3.873 4.184-6.054z" fill="#FCFCFC"/><path d="M273.36 243.38l-18.104 7.456c-1.234.513-2.21 1.434-2.716 2.562-.505 1.128-.498 2.372.02 3.46l3.192 6.669c.525 1.085 1.517 1.923 2.759 2.332a5.648 5.648 0 003.871-.152l4.376-1.803c2.897.867 4.813 1.823 5.534 1.524.721-.299 1.321-2.565 2.489-4.83l5.7-2.35c1.234-.513 2.21-1.433 2.715-2.561.506-1.128.5-2.371-.016-3.459l-3.197-6.669c-.524-1.085-1.514-1.923-2.755-2.331a5.645 5.645 0 00-3.868.152z" fill="url(#paint5_linear)"/><path d="M273.079 251.075c-.835-1.77-2.976-2.405-4.556-1.763a3.307 3.307 0 00-1.535 1.235 2.713 2.713 0 00-.448 1.783 3.163 3.163 0 00-1.714-.907 3.618 3.618 0 00-2.019.209c-1.582.64-2.524 2.525-1.7 4.308 1.263 2.681 7.375 3.855 8.679 3.708l.075-.01a.713.713 0 00.101-.026.541.541 0 00.088-.05l.056-.049c1.011-.79 4.234-5.758 2.973-8.438z" fill="#FCFCFC"/><path d="M2.998 194.258l16.823-5.663a5.131 5.131 0 013.538.113c1.116.455 1.986 1.289 2.42 2.318l2.644 6.321a3.776 3.776 0 01-.127 3.175c-.507 1.002-1.436 1.783-2.583 2.173l-4.068 1.368c-1.244 2.279-1.798 4.042-2.47 4.266-.671.224-2.646-.934-4.986-1.758l-5.3 1.782a5.14 5.14 0 01-3.536-.113c-1.116-.455-1.986-1.288-2.42-2.316L.29 199.6a3.768 3.768 0 01.125-3.172c.507-1.001 1.435-1.781 2.582-2.17z" fill="url(#paint6_linear)"/><path d="M8.596 199.229a2.85 2.85 0 011.676-3.846 3.262 3.262 0 011.847-.08 2.99 2.99 0 011.536.923 2.441 2.441 0 01.46-1.608 2.914 2.914 0 011.437-1.047c1.46-.502 3.384.199 4.107 1.868 1.072 2.524-2.012 6.891-2.949 7.559l-.054.037a.613.613 0 01-.083.042.563.563 0 01-.092.019h-.07c-1.2.068-6.743-1.345-7.815-3.867z" fill="#FCFCFC"/><path d="M192.965 165.578l-18.726 5.917c-1.279.405-2.376 1.183-3.052 2.164-.676.981-.876 2.086-.557 3.071l1.99 6.039c.327.984 1.146 1.767 2.28 2.178 1.133.412 2.488.418 3.768.018l4.527-1.427c2.661.88 4.381 1.791 5.109 1.58.729-.212 1.708-2.217 3.206-4.185l5.875-1.898c1.279-.406 2.376-1.184 3.052-2.165.676-.981.876-2.085.556-3.071l-1.985-6.041c-.333-.978-1.154-1.755-2.285-2.163-1.131-.408-2.481-.414-3.758-.017z" fill="url(#paint7_linear)"/><path d="M180.029 176.191l1.47 4.375c.099.294.495.435.885.315l2.095-.643c.39-.12.626-.455.527-.748l-1.47-4.375c-.098-.294-.494-.435-.884-.315l-2.095.643c-.39.119-.626.455-.528.748z" fill="#FCFCFC"/><path d="M190.747 173.506l-.102.058c.229-.122.413-.304.521-.514a.855.855 0 00.072-.639.788.788 0 00-.41-.471 1.134 1.134 0 00-.705-.091l-3.32 1.148c.343-.797.458-1.627.335-2.413-.336-1.101-1.247-1.463-1.746-1.365a1.05 1.05 0 00-.565.283.791.791 0 00-.248.516c-.035.381.396.925.375 1.183-.044.398-.619 1.104-1.31 2.511-.355.774-.405 1.592-.14 2.314l.465 1.521.457 1.52.218.706a.46.46 0 00.111.187.528.528 0 00.192.125.678.678 0 00.244.044.807.807 0 00.259-.045l6.171-2.129a.947.947 0 00.492-.364.696.696 0 00.107-.262.541.541 0 00-.148-.484.636.636 0 00-.231-.145.802.802 0 00-.292-.045.94.94 0 00-.307.06l.097-.054a1.125 1.125 0 00.622-.443.863.863 0 00.136-.326.67.67 0 00-.183-.602.786.786 0 00-.29-.178.982.982 0 00-.366-.051 1.157 1.157 0 00-.381.082l.34-.118c.127-.038.248-.096.355-.172a1.09 1.09 0 00.267-.271.863.863 0 00.136-.326.67.67 0 00-.183-.602.784.784 0 00-.29-.177.962.962 0 00-.366-.052 1.134 1.134 0 00-.381.083l-.008-.002z" fill="#FCFCFC"/><path d="M215.965 81.28l-16.209 5.12c-1.106.351-2.056 1.025-2.641 1.874-.585.85-.759 1.805-.482 2.658l1.722 5.227c.283.851.993 1.53 1.973 1.885.981.357 2.154.362 3.262.016l3.919-1.236c2.303.762 3.792 1.551 4.422 1.368.63-.184 1.478-1.919 2.775-3.622l5.085-1.644c1.107-.35 2.057-1.024 2.642-1.873.585-.85.758-1.805.481-2.658l-1.718-5.23c-.289-.846-1-1.518-1.978-1.871-.979-.353-2.148-.359-3.253-.015z" fill="url(#paint8_linear)"/><path d="M204.769 90.467l1.272 3.786c.085.254.428.377.765.273l1.814-.556c.337-.104.542-.394.456-.648l-1.272-3.787c-.085-.254-.428-.376-.766-.273l-1.813.557c-.338.103-.542.394-.456.648z" fill="#FCFCFC"/><path d="M214.046 88.143l-.089.05a1.07 1.07 0 00.451-.445.731.731 0 00.062-.553.68.68 0 00-.355-.408.983.983 0 00-.61-.078l-2.873.993c.296-.69.396-1.409.29-2.088-.291-.953-1.08-1.267-1.512-1.182a.912.912 0 00-.489.245.686.686 0 00-.215.446c-.03.33.343.801.325 1.025-.038.344-.535.955-1.133 2.173-.308.67-.351 1.378-.122 2.003l.402 1.316.397 1.316.188.61a.386.386 0 00.096.163.459.459 0 00.166.108.587.587 0 00.211.038.702.702 0 00.225-.038l5.341-1.844a.844.844 0 00.243-.124.74.74 0 00.183-.19.596.596 0 00.092-.227.456.456 0 00-.128-.419.545.545 0 00-.199-.125.69.69 0 00-.253-.04.817.817 0 00-.266.053l.084-.048c.11-.032.214-.083.307-.149a.936.936 0 00.231-.234.75.75 0 00.118-.282.575.575 0 00-.159-.52.665.665 0 00-.251-.155.846.846 0 00-.316-.045 1.002 1.002 0 00-.33.072l.295-.103c.109-.032.214-.083.306-.149a.92.92 0 00.231-.234.736.736 0 00.119-.282.612.612 0 00-.015-.283.563.563 0 00-.144-.238.673.673 0 00-.251-.154.854.854 0 00-.317-.045 1.008 1.008 0 00-.33.072h-.006z" fill="#FCFCFC"/><path d="M390.423 151.567l-15.836 4.664c-1.082.319-2.002.973-2.562 1.818-.559.844-.711 1.811-.422 2.69l1.792 5.38c.295.876 1.005 1.59 1.976 1.986.971.396 2.124.442 3.207.127l3.828-1.125c2.279.854 3.758 1.708 4.374 1.543.616-.166 1.416-1.903 2.658-3.594l4.968-1.5c1.081-.319 2.002-.973 2.561-1.818.559-.844.711-1.811.423-2.69l-1.789-5.382c-.3-.871-1.011-1.58-1.98-1.973-.969-.392-2.118-.438-3.198-.126z" fill="url(#paint9_linear)"/><path d="M379.601 160.522l1.322 3.902c.089.262.429.398.759.305l1.773-.502c.33-.093.526-.381.437-.643l-1.323-3.902c-.089-.262-.428-.398-.758-.305l-1.774.502c-.33.093-.525.381-.436.643z" fill="#FCFCFC"/><path d="M388.669 158.482l-.086.048a.99.99 0 00.436-.437.767.767 0 00.051-.56.742.742 0 00-.357-.429.958.958 0 00-.601-.102l-2.809.906c.279-.692.364-1.42.248-2.116-.304-.981-1.086-1.329-1.509-1.259a.838.838 0 00-.476.232.669.669 0 00-.204.447c-.023.335.353.828.339 1.055-.032.349-.51.954-1.076 2.172-.29.671-.32 1.391-.083 2.035l.42 1.356.414 1.354.196.629c.019.063.052.12.097.169a.502.502 0 00.166.116.633.633 0 00.428.016l5.22-1.683a.766.766 0 00.238-.117.694.694 0 00.176-.187.6.6 0 00.086-.228.504.504 0 00-.133-.431.553.553 0 00-.199-.135.67.67 0 00-.249-.05.757.757 0 00-.261.044l.082-.045a.933.933 0 00.299-.141.84.84 0 00.223-.23.728.728 0 00.111-.283.619.619 0 00-.166-.536.702.702 0 00-.249-.166.904.904 0 00-.636.004l.289-.094a.928.928 0 00.522-.371.738.738 0 00.111-.283.635.635 0 00-.416-.702.903.903 0 00-.635.004l-.007-.002z" fill="#FCFCFC"/><path d="M126.405 147.648l-15.137 6.29c-1.033.431-1.924 1.137-2.476 1.964-.553.828-.723 1.709-.473 2.452l1.554 4.546c.255.741.909 1.281 1.819 1.502.91.221 2.001.106 3.036-.32l3.66-1.519c2.136.453 3.515 1.013 4.104.782.588-.23 1.393-1.885 2.616-3.557l4.749-2.007c1.034-.43 1.924-1.136 2.477-1.964.553-.827.723-1.708.473-2.451l-1.551-4.549c-.261-.735-.916-1.27-1.824-1.489-.908-.219-1.996-.104-3.027.32z" fill="url(#paint10_linear)"/><path d="M115.895 157.107l1.149 3.286c.078.221.396.296.711.167l1.693-.691c.315-.128.508-.411.431-.632l-1.15-3.286c-.077-.221-.395-.296-.71-.167l-1.693.691c-.315.128-.508.411-.431.632z" fill="#FCFCFC"/><path d="M124.555 154.041l-.082.054c.185-.116.335-.274.423-.448a.673.673 0 00.063-.506.52.52 0 00-.326-.331.917.917 0 00-.567-.007L121.381 154c.283-.654.382-1.313.29-1.916-.263-.829-.994-1.03-1.397-.908a.993.993 0 00-.457.272.698.698 0 00-.205.425c-.031.302.313.687.294.891-.039.315-.508.919-1.075 2.08-.293.637-.34 1.281-.132 1.821l.363 1.146.356 1.147.17.531c.017.053.047.1.088.137a.371.371 0 00.154.08c.06.016.126.02.196.012a.725.725 0 00.209-.058l4.989-2.222a.928.928 0 00.228-.137.839.839 0 00.172-.192.623.623 0 00.088-.214.422.422 0 00-.01-.204.36.36 0 00-.106-.161.425.425 0 00-.185-.092.612.612 0 00-.235-.009.837.837 0 00-.247.075l.078-.052a1.113 1.113 0 00.505-.402.751.751 0 00.112-.267.504.504 0 00-.011-.254.42.42 0 00-.132-.199.531.531 0 00-.232-.113.8.8 0 00-.294-.008c-.104.016-.209.05-.308.1l.275-.124c.103-.041.2-.097.287-.166.087-.069.161-.15.217-.236a.762.762 0 00.113-.267.515.515 0 00-.011-.254.442.442 0 00-.132-.2.54.54 0 00-.233-.112.778.778 0 00-.294-.008c-.103.016-.208.05-.308.099h-.006z" fill="#FCFCFC"/><path d="M43.364 76.439l-20.07 4.257c-1.37.292-2.629.956-3.5 1.847-.87.89-1.282 1.936-1.145 2.907l.866 5.952c.144.97.825 1.785 1.893 2.266 1.069.482 2.438.591 3.81.305l4.851-1.027c2.525 1.048 4.093 2.055 4.87 1.907.777-.148 2.148-2 4.037-3.776l6.305-1.376c1.37-.292 2.629-.956 3.5-1.847.87-.89 1.281-1.936 1.145-2.907l-.861-5.954c-.152-.964-.836-1.773-1.903-2.251-1.066-.478-2.43-.587-3.798-.303z" fill="url(#paint11_linear)"/><path d="M28.258 85.66l.658 4.308c.044.289.418.454.835.368l2.242-.46c.418-.086.72-.39.676-.68l-.658-4.307c-.045-.29-.419-.454-.836-.369l-2.242.46c-.417.087-.72.39-.675.68z" fill="#FCFCFC"/><path d="M39.618 83.88l-.114.047c.254-.1.475-.26.624-.454.15-.194.218-.409.194-.608a.654.654 0 00-.326-.483 1.147 1.147 0 00-.696-.138l-3.578.855c.498-.74.772-1.528.797-2.29-.132-1.082-.986-1.497-1.51-1.44-.22.017-.444.1-.624.23a.876.876 0 00-.35.477c-.107.363.226.917.156 1.163-.12.378-.836 1.013-1.801 2.312-.507.716-.712 1.498-.581 2.21l.182 1.493.176 1.493.086.693a.38.38 0 00.077.188c.042.055.1.101.17.134a.67.67 0 00.24.06.9.9 0 00.27-.023l6.65-1.586a1.15 1.15 0 00.312-.117c.097-.054.184-.12.255-.196a.763.763 0 00.157-.243.523.523 0 00.035-.253.441.441 0 00-.093-.222.545.545 0 00-.206-.157.798.798 0 00-.287-.065 1.06 1.06 0 00-.322.035l.109-.045a1.398 1.398 0 00.713-.379.945.945 0 00.2-.302.644.644 0 00.044-.315.541.541 0 00-.116-.276.673.673 0 00-.26-.192.991.991 0 00-.36-.077 1.313 1.313 0 00-.402.051l.367-.089a1.39 1.39 0 00.391-.138 1.28 1.28 0 00.322-.24.942.942 0 00.2-.303.642.642 0 00.045-.315.54.54 0 00-.117-.276.672.672 0 00-.26-.192.99.99 0 00-.36-.077 1.313 1.313 0 00-.402.051l-.007-.001z" fill="#FCFCFC"/><path d="M359.791 198.836l-18.05 4.563c-1.233.312-2.382.974-3.197 1.841s-1.23 1.867-1.153 2.783l.499 5.613c.083.915.651 1.668 1.58 2.096.928.428 2.142.495 3.375.187l4.363-1.101c2.198.926 3.547 1.837 4.245 1.677.698-.161 2.003-1.95 3.765-3.682l5.672-1.47c1.232-.313 2.382-.975 3.197-1.842.815-.866 1.229-1.867 1.153-2.783l-.494-5.615c-.091-.909-.662-1.657-1.59-2.081-.927-.425-2.136-.491-3.365-.186z" fill="url(#paint12_linear)"/><path d="M346.093 207.832l.624 4.479c.042.3.456.473.925.386l2.522-.469c.469-.087.815-.402.773-.703l-.624-4.478c-.042-.3-.457-.473-.926-.386l-2.521.469c-.469.087-.815.402-.773.702z" fill="#FCFCFC"/><path d="M356.043 205.638l-.112.052c.249-.11.468-.281.619-.486.151-.205.224-.43.207-.636a.643.643 0 00-.3-.497c-.176-.114-.413-.16-.67-.13l-3.494.961c.506-.78.797-1.605.845-2.4-.093-1.122-.907-1.538-1.416-1.468a1.215 1.215 0 00-.613.252.97.97 0 00-.354.503c-.116.38.189.95.114 1.208-.129.396-.843 1.072-1.82 2.443-.514.755-.738 1.573-.634 2.311l.129 1.552.122 1.55.062.72a.375.375 0 00.068.194.424.424 0 00.161.137.599.599 0 00.229.057.8.8 0 00.263-.03l6.495-1.783a1.136 1.136 0 00.56-.337.867.867 0 00.16-.256.595.595 0 00.042-.264.454.454 0 00-.278-.388.695.695 0 00-.276-.063.98.98 0 00-.313.043l.107-.049a1.38 1.38 0 00.703-.409c.09-.099.159-.207.203-.318a.733.733 0 00.054-.329.55.55 0 00-.105-.285.603.603 0 00-.245-.195.878.878 0 00-.347-.073 1.226 1.226 0 00-.391.061l.359-.099a1.386 1.386 0 00.703-.409c.09-.099.159-.207.203-.318a.72.72 0 00.054-.329.548.548 0 00-.104-.285.606.606 0 00-.246-.195.873.873 0 00-.346-.073 1.226 1.226 0 00-.391.061l-.007-.001z" fill="#FCFCFC"/><path d="M426.791 250.821l-18.05 4.563c-1.233.313-2.382.975-3.197 1.842-.815.867-1.23 1.867-1.153 2.783l.499 5.613c.083.914.651 1.668 1.58 2.096.928.427 2.142.495 3.375.187l4.363-1.101c2.198.926 3.547 1.837 4.245 1.676.698-.16 2.003-1.949 3.765-3.681l5.672-1.47c1.232-.313 2.382-.975 3.197-1.842.815-.866 1.229-1.867 1.153-2.783l-.494-5.615c-.091-.909-.662-1.657-1.59-2.081-.927-.425-2.136-.492-3.365-.187z" fill="url(#paint13_linear)"/><path d="M413.093 259.819l.624 4.478c.042.3.456.473.925.386l2.522-.469c.469-.087.815-.402.773-.702l-.624-4.479c-.042-.3-.457-.473-.926-.386l-2.521.469c-.469.087-.815.402-.773.703z" fill="#FCFCFC"/><path d="M423.043 257.624l-.112.052c.249-.11.468-.281.619-.486.151-.205.224-.43.207-.636a.64.64 0 00-.3-.496c-.176-.115-.413-.161-.67-.131l-3.494.961c.506-.779.797-1.605.845-2.4-.093-1.122-.907-1.538-1.416-1.468a1.215 1.215 0 00-.613.252.973.973 0 00-.354.503c-.116.381.189.95.114 1.208-.129.396-.843 1.072-1.82 2.443-.514.756-.738 1.573-.634 2.311l.129 1.552.122 1.55.062.72a.375.375 0 00.068.194.424.424 0 00.161.137.599.599 0 00.229.057.827.827 0 00.263-.029l6.495-1.784a1.136 1.136 0 00.56-.337.867.867 0 00.16-.256.595.595 0 00.042-.264.454.454 0 00-.278-.388.695.695 0 00-.276-.063 1.01 1.01 0 00-.313.043l.107-.049a1.38 1.38 0 00.703-.409c.09-.099.159-.207.203-.318a.73.73 0 00.054-.329.55.55 0 00-.105-.285.603.603 0 00-.245-.195.878.878 0 00-.347-.073 1.2 1.2 0 00-.391.062l.359-.1a1.386 1.386 0 00.703-.409c.09-.099.159-.207.203-.318a.72.72 0 00.054-.329.548.548 0 00-.104-.285.606.606 0 00-.246-.195.873.873 0 00-.346-.073 1.226 1.226 0 00-.391.061l-.007-.001z" fill="#FCFCFC"/><path d="M257.371 169.419l.015.006c1.129.409 2.135.82 3 1.174.41.168.788.322 1.132.457.537.211.992.375 1.359.469.37.095.642.117.819.053a.632.632 0 00.253-.189c.083-.096.162-.221.241-.374.156-.306.305-.715.462-1.194.082-.25.166-.52.254-.803.249-.797.532-1.705.9-2.607l.006-.016.017-.006 6.019-2.158-14.477 5.188zm0 0l-.015.006m.015-.006l-.015.006m0 0l-4.622 1.657c-1.296.459-2.82.406-4.242-.148-1.422-.555-2.623-1.565-3.342-2.812l-4.405-7.705c-.709-1.251-.875-2.632-.464-3.84.411-1.208 1.366-2.148 2.657-2.616m14.418 15.464l-14.418-15.464m0 0l19.114-6.851s0 0 0 0c1.295-.456 2.818-.402 4.238.152 1.42.555 2.62 1.565 3.339 2.81l-26.691 3.889zm26.691-3.889l4.406 7.704-4.406-7.704zm4.873 11.542c-.41 1.208-1.364 2.149-2.654 2.617l2.187-6.455c.71 1.25.877 2.63.467 3.838z" fill="#FCFCFC" stroke="#A3A3A3" stroke-width=".2"/><path d="M264.514 157.392c-1.795-3.852-6.34-6.021-10.152-4.843-3.812 1.177-5.447 5.255-3.652 9.108 1.795 3.853 6.34 6.021 10.152 4.844 3.812-1.178 5.447-5.256 3.652-9.109z" fill="url(#paint14_linear)"/><path d="M261.138 159.413c1.118.608 1.53 3.338-1.128 4.435-2.658 1.098-4.736-1.479-4.625-2.216.149-1.008 1.98-.741 2.942-1.167.962-.427 1.71-1.645 2.811-1.052z" fill="#1F1F40"/><path d="M257.863 161.776c-.332.642-.4 1.398-.195 2.15.803.241 1.632.198 2.312-.121 1.927-.812 2.251-2.458 1.867-3.558a4.596 4.596 0 00-.979-.1 3.806 3.806 0 00-1.782.44 3.058 3.058 0 00-1.223 1.189zm-4.534-5.938c-.203.046-.387.13-.542.246a1.194 1.194 0 00-.357.434c-.414.685.043 1.765.043 1.765a10.267 10.267 0 00-.937-.585 1.818 1.818 0 00-.838-.188 1.414 1.414 0 00-.757.23 1.116 1.116 0 00-.443.577c-.078.235-.075.494.006.749.249.751 1.061 1.258 1.854 1.58 1.022.351 2.061.637 3.108.856.581-1.053 1.007-2.784.662-4.031a2.606 2.606 0 00-.584-1.132 1.495 1.495 0 00-1.215-.501z" fill="#FF2936"/><path d="M253.316 155.778a1.016 1.016 0 00-.414.156c.408.125.776.369 1.04.69.356.458.568.982.609 1.505a2.193 2.193 0 01-.378 1.438c-.26.405-.656.715-1.142.894a3.019 3.019 0 01-1.595.115 4.043 4.043 0 01-.718-.249c.201.11.408.209.62.294a25.48 25.48 0 003.116.858c.582-1.061 1.01-2.805.663-4.061a2.636 2.636 0 00-.585-1.14 1.506 1.506 0 00-.555-.393 1.437 1.437 0 00-.661-.107z" fill="#BF101F"/><path d="M260.5 153.055a1.71 1.71 0 00-.63.059 1.384 1.384 0 00-.518.281c-.662.492-.62 1.584-.62 1.584a9.396 9.396 0 00-.711-.802 1.877 1.877 0 00-.762-.419 1.678 1.678 0 00-.837-.021 1.255 1.255 0 00-.655.384c-.164.187-.258.42-.272.672-.039.729.589 1.442 1.256 1.969.884.618 1.81 1.183 2.767 1.691.98-.773 2.033-2.193 2.153-3.412a2.161 2.161 0 00-.161-1.186 1.343 1.343 0 00-.401-.51 1.519 1.519 0 00-.609-.29z" fill="#FF2936"/><path d="M260.479 152.922a1.234 1.234 0 00-.466.009c.36.238.636.57.782.941.187.523.205 1.063.052 1.551a2.2 2.2 0 01-.912 1.19 2.672 2.672 0 01-1.47.468 3.418 3.418 0 01-1.635-.377 4.19 4.19 0 01-.624-.447c.163.158.337.308.52.448a26.827 26.827 0 002.79 1.721c.988-.79 2.049-2.243 2.17-3.488a2.237 2.237 0 00-.163-1.21 1.372 1.372 0 00-.418-.52 1.52 1.52 0 00-.626-.286z" fill="#BF101F"/><path d="M318.814 166.115l.009.019c.534 1.141.964 2.185 1.334 3.082.175.424.337.816.489 1.17.238.551.454 1.01.667 1.358.213.35.418.579.626.683.102.051.234.082.398.094.163.011.355.003.572-.022.435-.05.965-.165 1.572-.314.318-.078.656-.166 1.011-.257 1.002-.259 2.141-.553 3.345-.776l.022-.004.022.011 7.167 3.588-17.234-8.632zm0 0l-.021-.01m.021.01l-.021-.01m0 0l-5.504-2.756c-1.536-.775-2.753-2.027-3.386-3.482-.633-1.456-.63-2.997.01-4.287l3.992-7.957c.651-1.285 1.884-2.209 3.428-2.573 1.544-.364 3.275-.138 4.816.629m-3.356 20.426l3.356-20.426m0 0l22.76 11.398s0 0 0 0c1.533.777 2.748 2.028 3.379 3.482.631 1.454.627 2.994-.011 4.282l-3.989 7.958c-.65 1.285-1.882 2.21-3.425 2.574-1.543.365-3.274.14-4.814-.625l-13.9-29.069zm0 0s0 0 0 0m0 0h0" fill="#FCFCFC" stroke="#A3A3A3" stroke-width=".2"/><path d="M335.737 164.668c2.062-3.395.604-7.972-3.259-10.224-3.862-2.251-8.664-1.323-10.727 2.072-2.062 3.396-.604 7.973 3.259 10.224 3.862 2.251 8.664 1.324 10.727-2.072z" fill="url(#paint15_linear)"/><path d="M331.173 163.116c.315 1.249-2.029 3.142-5.275 1.627-3.246-1.515-2.41-4.665-1.596-4.997 1.112-.457 2.342 1.172 3.546 1.704 1.203.532 3.01.438 3.325 1.666z" fill="#1F1F40"/><path d="M325.961 161.703c-.848.1-1.597.485-2.13 1.094a4.039 4.039 0 001.908 1.85c2.246 1.127 4.012.435 4.727-.526a5.307 5.307 0 00-.67-.872 5.13 5.13 0 00-1.79-1.223 4.486 4.486 0 00-2.045-.323zm4.554-6.644a2.295 2.295 0 00-.709-.283 1.997 1.997 0 00-.729-.024c-1.02.081-1.663 1.093-1.663 1.093a8.305 8.305 0 00-.252-1.097 1.925 1.925 0 00-.549-.78 2.167 2.167 0 00-.88-.464 1.857 1.857 0 00-.942-.006 1.366 1.366 0 00-.716.454c-.506.649-.288 1.599.092 2.424a26.255 26.255 0 001.881 2.987c1.52-.17 3.559-.869 4.46-1.893.309-.312.51-.706.583-1.143a1.209 1.209 0 00-.104-.677 1.61 1.61 0 00-.472-.591z" fill="#FF2936"/><path d="M330.319 154.974a1.55 1.55 0 00-.498-.24c.23.405.314.848.239 1.255a2.41 2.41 0 01-.888 1.401c-.453.349-1.032.545-1.663.563a3.661 3.661 0 01-1.806-.38 4.007 4.007 0 01-1.463-1.217 4.041 4.041 0 01-.378-.729c.068.228.152.454.252.677a26.74 26.74 0 001.848 3.031c1.486-.171 3.478-.88 4.356-1.918.302-.317.497-.717.567-1.161a1.275 1.275 0 00-.105-.685 1.637 1.637 0 00-.461-.597z" fill="#BF101F"/><path d="M337.099 159.694a2.275 2.275 0 00-.607-.465 2.29 2.29 0 00-.723-.244c-1.054-.231-2.073.457-2.073.457.078-.341.13-.69.156-1.045a1.61 1.61 0 00-.26-.858 2.096 2.096 0 00-.71-.677 2.123 2.123 0 00-.943-.291 1.654 1.654 0 00-.887.186c-.74.407-.88 1.334-.808 2.18.175 1.074.436 2.148.781 3.214 1.601.315 3.894.3 5.177-.335a2.2 2.2 0 001.005-.839c.113-.183.163-.399.144-.625a1.341 1.341 0 00-.252-.658z" fill="#FF2936"/><path d="M336.624 159.511a1.582 1.582 0 00-.391-.379c.085.443.017.875-.192 1.223a2.44 2.44 0 01-1.335.996c-.559.172-1.187.164-1.805-.024a3.822 3.822 0 01-1.621-.929 3.853 3.853 0 01-1.007-1.583 3.786 3.786 0 01-.115-.79c-.007.232.002.467.029.704.173 1.124.428 2.248.761 3.363 1.512.332 3.672.317 4.877-.346.4-.191.724-.493.941-.877a1.16 1.16 0 00.118-.665 1.53 1.53 0 00-.26-.693z" fill="#BF101F"/><path d="M73.814 211.827l.009.019a68.342 68.342 0 011.334 3.082c.175.424.337.816.49 1.17.237.551.453 1.01.665 1.358.214.35.419.579.627.683.102.051.234.082.398.094.163.011.355.003.572-.022.435-.05.965-.165 1.572-.314.318-.078.656-.166 1.012-.257 1-.259 2.14-.553 3.344-.776l.022-.004.022.011 7.167 3.588-17.234-8.632zm0 0l-.021-.01m.021.01l-.021-.01m0 0l-5.504-2.756c-1.536-.775-2.754-2.027-3.386-3.482-.633-1.456-.63-2.997.01-4.287l3.992-7.957c.651-1.285 1.884-2.209 3.428-2.573 1.544-.364 3.275-.138 4.816.629m-3.356 20.426l3.356-20.426m0 0l22.76 11.398s0 0 0 0c1.533.777 2.748 2.028 3.379 3.482.631 1.454.627 2.993-.011 4.282l-3.989 7.958c-.65 1.285-1.882 2.21-3.425 2.574-1.543.365-3.274.14-4.814-.626l-13.9-29.068zm0 0s0 0 0 0m0 0h0" fill="#FCFCFC" stroke="#A3A3A3" stroke-width=".2"/><path d="M90.736 210.38c2.063-3.395.604-7.972-3.258-10.224-3.862-2.251-8.665-1.323-10.727 2.072-2.063 3.396-.604 7.973 3.258 10.224 3.862 2.251 8.665 1.324 10.727-2.072z" fill="url(#paint16_linear)"/><path d="M86.173 208.827c.315 1.249-2.03 3.143-5.276 1.628-3.245-1.516-2.41-4.666-1.595-4.998 1.112-.457 2.342 1.172 3.545 1.705 1.204.532 3.01.438 3.326 1.665z" fill="#1F1F40"/><path d="M80.96 207.415c-.847.1-1.597.484-2.13 1.093a4.036 4.036 0 001.908 1.851c2.246 1.126 4.012.435 4.727-.526a5.296 5.296 0 00-.67-.872 5.112 5.112 0 00-1.79-1.223 4.455 4.455 0 00-2.044-.323zm4.556-6.644a2.302 2.302 0 00-.71-.283 2 2 0 00-.73-.024c-1.02.081-1.663 1.093-1.663 1.093a8.285 8.285 0 00-.251-1.096 1.916 1.916 0 00-.549-.78 2.19 2.19 0 00-.88-.465 1.859 1.859 0 00-.942-.006 1.363 1.363 0 00-.716.454c-.507.649-.289 1.599.091 2.424a26.269 26.269 0 001.881 2.987c1.52-.17 3.56-.869 4.46-1.892.31-.313.511-.707.584-1.144a1.204 1.204 0 00-.104-.677 1.617 1.617 0 00-.471-.591z" fill="#FF2936"/><path d="M85.319 200.686a1.542 1.542 0 00-.498-.24c.23.405.314.848.239 1.255a2.41 2.41 0 01-.888 1.401c-.454.349-1.033.545-1.664.563a3.66 3.66 0 01-1.806-.38 4.008 4.008 0 01-1.463-1.217 4.033 4.033 0 01-.377-.73c.067.229.151.455.251.678a26.914 26.914 0 001.848 3.031c1.486-.171 3.478-.88 4.356-1.918.302-.317.498-.717.568-1.161a1.268 1.268 0 00-.105-.685 1.632 1.632 0 00-.461-.597z" fill="#BF101F"/><path d="M92.099 205.406a2.332 2.332 0 00-1.33-.709c-1.054-.231-2.073.458-2.073.458a6.87 6.87 0 00.155-1.046 1.593 1.593 0 00-.26-.857 2.082 2.082 0 00-.71-.678 2.13 2.13 0 00-.943-.291 1.654 1.654 0 00-.887.187c-.74.406-.879 1.333-.807 2.179a21.88 21.88 0 00.78 3.214c1.602.315 3.894.3 5.177-.335a2.205 2.205 0 001.006-.839c.113-.183.162-.399.143-.625a1.34 1.34 0 00-.251-.658z" fill="#FF2936"/><path d="M91.623 205.224a1.564 1.564 0 00-.39-.38c.084.443.016.875-.193 1.224a2.44 2.44 0 01-1.334.995c-.559.173-1.187.164-1.805-.024a3.824 3.824 0 01-1.622-.929 3.86 3.86 0 01-1.007-1.583 3.8 3.8 0 01-.115-.79 4.95 4.95 0 00.03.705c.173 1.123.427 2.247.76 3.362 1.512.332 3.673.318 4.877-.346.4-.191.725-.493.942-.877.102-.195.143-.425.118-.665a1.52 1.52 0 00-.26-.692z" fill="#BF101F"/><path d="M89.179 100.213l.009.019a51.43 51.43 0 011.004 2.321c.132.319.253.614.368.88.18.415.341.759.5 1.02.162.264.313.432.466.509a.8.8 0 00.292.068c.122.009.265.002.428-.016.326-.038.724-.124 1.181-.236.239-.059.493-.125.76-.194.755-.194 1.613-.416 2.52-.584l.022-.004.022.011 5.394 2.701-12.966-6.495zm0 0l-.021-.01m.02.01l-.02-.01m0 0l-4.143-2.074c-1.152-.582-2.066-1.52-2.541-2.614-.475-1.092-.472-2.249.007-3.217 0 0 0 0 0 0l3.005-5.989c.49-.964 1.414-1.658 2.573-1.931 1.158-.273 2.457-.103 3.613.472m-2.514 15.353l2.514-15.353m0 0l17.13 8.579s0 0 0 0c1.15.582 2.062 1.521 2.536 2.613.474 1.091.471 2.247-.009 3.214l-3.002 5.989c-.488.965-1.412 1.659-2.57 1.932-1.158.274-2.456.105-3.612-.469L91.672 84.85zm0 0s0 0 0 0m0 0h0" fill="#FCFCFC" stroke="#A3A3A3" stroke-width=".2"/><path d="M101.904 99.132c1.553-2.555.455-6-2.452-7.695-2.907-1.694-6.521-.996-8.074 1.56-1.552 2.555-.454 6 2.453 7.695 2.906 1.694 6.521.996 8.073-1.56z" fill="url(#paint17_linear)"/><path d="M98.47 97.963c.237.94-1.528 2.366-3.97 1.225-2.444-1.14-1.814-3.511-1.201-3.761.836-.344 1.762.882 2.668 1.283.906.4 2.265.33 2.503 1.253z" fill="#1F1F40"/><path d="M94.547 96.9a2.492 2.492 0 00-1.603.823 3.035 3.035 0 001.435 1.393c1.69.848 3.02.328 3.558-.396a3.967 3.967 0 00-.504-.656 3.855 3.855 0 00-1.348-.92 3.362 3.362 0 00-1.538-.244zm3.428-5a1.732 1.732 0 00-.534-.213 1.513 1.513 0 00-.55-.019c-.767.062-1.251.823-1.251.823a6.243 6.243 0 00-.19-.825 1.444 1.444 0 00-.412-.587 1.638 1.638 0 00-.663-.35 1.396 1.396 0 00-.709-.004c-.22.06-.407.178-.539.342-.381.488-.217 1.203.07 1.824.414.77.887 1.522 1.415 2.248 1.144-.128 2.679-.654 3.357-1.424.233-.235.384-.532.439-.861a.906.906 0 00-.079-.51 1.21 1.21 0 00-.354-.444z" fill="#FF2936"/><path d="M97.827 91.835a1.164 1.164 0 00-.375-.18c.173.304.237.638.18.945a1.812 1.812 0 01-.668 1.054c-.342.263-.778.41-1.253.424a2.752 2.752 0 01-1.359-.287 3.014 3.014 0 01-1.101-.916 3.024 3.024 0 01-.284-.548c.05.171.114.342.189.51.408.782.873 1.544 1.39 2.28 1.12-.128 2.618-.662 3.28-1.443a1.62 1.62 0 00.426-.873.953.953 0 00-.078-.516 1.228 1.228 0 00-.347-.45z" fill="#BF101F"/><path d="M102.93 95.388a1.753 1.753 0 00-1.001-.533c-.793-.174-1.56.344-1.56.344a5.4 5.4 0 00.117-.787 1.207 1.207 0 00-.196-.645 1.57 1.57 0 00-.535-.51 1.594 1.594 0 00-.71-.219 1.24 1.24 0 00-.667.14c-.556.306-.662 1.004-.608 1.64.132.809.329 1.617.588 2.42 1.206.237 2.931.225 3.897-.252.32-.138.581-.356.756-.632a.768.768 0 00.108-.47 1.01 1.01 0 00-.189-.496z" fill="#FF2936"/><path d="M102.572 95.251a1.167 1.167 0 00-.294-.285c.064.333.012.658-.145.92a1.834 1.834 0 01-1.004.75c-.421.13-.894.123-1.359-.019a2.873 2.873 0 01-1.22-.699 2.905 2.905 0 01-.758-1.19 2.873 2.873 0 01-.087-.596c-.005.175.002.352.022.53.13.846.322 1.692.573 2.531 1.138.25 2.764.24 3.671-.26.301-.144.545-.371.708-.66a.878.878 0 00.089-.5 1.153 1.153 0 00-.196-.522z" fill="#BF101F"/><defs><linearGradient id="paint0_linear" x1="348.151" y1="97.508" x2="374.914" y2="127.337" gradientUnits="userSpaceOnUse"><stop stop-color="#D65F83"/><stop offset="1" stop-color="#DC3E6C"/></linearGradient><linearGradient id="paint1_linear" x1="213.069" y1="178.891" x2="239.832" y2="208.72" gradientUnits="userSpaceOnUse"><stop stop-color="#D65F83"/><stop offset="1" stop-color="#DC3E6C"/></linearGradient><linearGradient id="paint2_linear" x1="133.61" y1="83.208" x2="165.187" y2="85.875" gradientUnits="userSpaceOnUse"><stop stop-color="#D65F83"/><stop offset="1" stop-color="#DC3E6C"/></linearGradient><linearGradient id="paint3_linear" x1="123.873" y1="184.233" x2="134.503" y2="204.512" gradientUnits="userSpaceOnUse"><stop stop-color="#D65F83"/><stop offset="1" stop-color="#DC3E6C"/></linearGradient><linearGradient id="paint4_linear" x1="217.164" y1="126.965" x2="239.272" y2="134.557" gradientUnits="userSpaceOnUse"><stop stop-color="#D65F83"/><stop offset="1" stop-color="#DC3E6C"/></linearGradient><linearGradient id="paint5_linear" x1="252.174" y1="254.704" x2="283.525" y2="255.678" gradientUnits="userSpaceOnUse"><stop stop-color="#D65F83"/><stop offset="1" stop-color="#DC3E6C"/></linearGradient><linearGradient id="paint6_linear" x1="24.511" y1="189.363" x2="6.394" y2="209.555" gradientUnits="userSpaceOnUse"><stop stop-color="#D65F83"/><stop offset="1" stop-color="#DC3E6C"/></linearGradient><linearGradient id="paint7_linear" x1="7919.72" y1="7929.12" x2="8608.88" y2="8816.75" gradientUnits="userSpaceOnUse"><stop stop-color="#65BBFF"/><stop offset="1" stop-color="#315DA4"/></linearGradient><linearGradient id="paint8_linear" x1="6903.95" y1="6801.09" x2="7500.46" y2="7569.38" gradientUnits="userSpaceOnUse"><stop stop-color="#65BBFF"/><stop offset="1" stop-color="#315DA4"/></linearGradient><linearGradient id="paint9_linear" x1="7093.15" y1="7220.51" x2="7710.31" y2="8010.42" gradientUnits="userSpaceOnUse"><stop stop-color="#65BBFF"/><stop offset="1" stop-color="#315DA4"/></linearGradient><linearGradient id="paint10_linear" x1="6289.53" y1="5534.49" x2="6834.54" y2="6170.3" gradientUnits="userSpaceOnUse"><stop stop-color="#65BBFF"/><stop offset="1" stop-color="#315DA4"/></linearGradient><linearGradient id="paint11_linear" x1="6387.11" y1="8121.99" x2="6911.42" y2="9029.63" gradientUnits="userSpaceOnUse"><stop stop-color="#65BBFF"/><stop offset="1" stop-color="#315DA4"/></linearGradient><linearGradient id="paint12_linear" x1="5635.2" y1="7649.04" x2="6135.13" y2="8447.63" gradientUnits="userSpaceOnUse"><stop stop-color="#65BBFF"/><stop offset="1" stop-color="#315DA4"/></linearGradient><linearGradient id="paint13_linear" x1="5702.19" y1="7701.03" x2="6202.12" y2="8499.61" gradientUnits="userSpaceOnUse"><stop stop-color="#65BBFF"/><stop offset="1" stop-color="#315DA4"/></linearGradient><linearGradient id="paint14_linear" x1="9056.59" y1="2156.35" x2="9738.88" y2="2255.79" gradientUnits="userSpaceOnUse"><stop stop-color="#FFF900"/><stop offset="1" stop-color="#FF7C00"/></linearGradient><linearGradient id="paint15_linear" x1="5091.43" y1="7855.51" x2="5359.53" y2="8486.55" gradientUnits="userSpaceOnUse"><stop stop-color="#FFF900"/><stop offset="1" stop-color="#FF7C00"/></linearGradient><linearGradient id="paint16_linear" x1="4846.24" y1="7901.24" x2="5114.32" y2="8532.28" gradientUnits="userSpaceOnUse"><stop stop-color="#FFF900"/><stop offset="1" stop-color="#FF7C00"/></linearGradient><linearGradient id="paint17_linear" x1="3681.1" y1="5887.61" x2="3882.88" y2="6362.56" gradientUnits="userSpaceOnUse"><stop stop-color="#FFF900"/><stop offset="1" stop-color="#FF7C00"/></linearGradient></defs></svg>