<svg width="46" height="38" fill="none" xmlns="http://www.w3.org/2000/svg"><path fill-rule="evenodd" clip-rule="evenodd" d="M.5 2.932A2.414 2.414 0 012.913.518H43.12a2.414 2.414 0 012.413 2.414V35.44a2.414 2.414 0 01-2.413 2.414H2.913A2.414 2.414 0 01.5 35.44V2.932zm2.413-1.097c-.605 0-1.097.49-1.097 1.097V35.44c0 .606.492 1.097 1.097 1.097H43.12c.606 0 1.097-.491 1.097-1.097V2.932c0-.606-.491-1.097-1.097-1.097H2.913z" fill="#274684"/><path d="M45.04 6.587c0 .086-9.824.154-21.936.154S1.16 6.673 1.16 6.587s9.823-.146 21.944-.146c12.12 0 21.935.069 21.935.146z" fill="#274684"/><path fill-rule="evenodd" clip-rule="evenodd" d="M34.167 19.695l-4.759-4.76.931-.932 4.76 4.761a2.415 2.415 0 010 3.415l-4.76 4.761-.93-.931 4.758-4.761a1.098 1.098 0 000-1.553zm-22.731 0l4.76-4.76-.932-.932-4.759 4.761a2.415 2.415 0 000 3.415l4.76 4.761.93-.931-4.759-4.761a1.098 1.098 0 010-1.553zm7.537 9.546l6.857-18.009 1.23.469-6.857 18.01-1.23-.47z" fill="#274684"/><path d="M6.58 4.626a.583.583 0 100-1.167.583.583 0 000 1.167zm1.529 0a.583.583 0 100-1.167.583.583 0 000 1.167zm-3.184 0a.583.583 0 100-1.167.583.583 0 000 1.167z" fill="#0A3D76"/></svg>