<svg width="71" height="49" fill="none" xmlns="http://www.w3.org/2000/svg"><path fill-rule="evenodd" clip-rule="evenodd" d="M.33 1.87C.33 1.23.85.71 1.49.71h67.947c.64 0 1.16.52 1.16 1.16v45.27a1.16 1.16 0 01-1.16 1.16H1.49a1.16 1.16 0 01-1.16-1.16V1.87zm1.16-.527a.528.528 0 00-.527.527v45.27c0 .29.236.527.528.527h67.946a.528.528 0 00.527-.528V1.87a.528.528 0 00-.527-.527H1.49z" fill="#274684"/><path d="M.748 5.386c0-.072 15.502-.128 34.636-.128 19.133 0 34.635.056 34.635.128 0 .072-15.502.122-34.636.122C16.25 5.508.748 5.447.748 5.386zm2.717-2.098a.554.554 0 11-1.11 0 .554.554 0 011.11 0zm1.35.553a.554.554 0 100-1.108.554.554 0 000 1.108zm2.431-.554a.554.554 0 11-1.109 0 .554.554 0 011.109 0zm17.093 6.934H7.535a.844.844 0 00-.844.845v16.811c0 .467.378.845.844.845H24.34a.844.844 0 00.844-.845V11.066a.844.844 0 00-.844-.845zM60.54 15.45c0 .066-7.197.122-16.105.122-8.908 0-16.11-.056-16.11-.122 0-.067 7.197-.122 16.11-.122 8.914 0 16.105.055 16.105.122zm0 3.44c0 .066-7.197.121-16.105.121-8.908 0-16.11-.055-16.11-.122 0-.066 7.197-.127 16.11-.127 8.914 0 16.105.055 16.105.127zm0 3.434c0 .072-7.197.127-16.105.127-8.908 0-16.11-.055-16.11-.127 0-.073 7.197-.122 16.11-.122 8.914 0 16.105.055 16.105.122zM15.696 34.958H8.692a.844.844 0 00-.844.845v7.007c0 .466.378.844.844.844h7.004a.844.844 0 00.844-.844v-7.008a.844.844 0 00-.844-.844zm15.765 0h-7.004a.844.844 0 00-.844.845v7.007c0 .466.378.844.844.844h7.004a.844.844 0 00.844-.844v-7.008a.844.844 0 00-.844-.844zm15.756 0h-7.004a.844.844 0 00-.844.845v7.007c0 .466.378.844.844.844h7.004a.844.844 0 00.844-.844v-7.008a.844.844 0 00-.844-.844zm15.763 0h-7.003a.844.844 0 00-.844.845v7.007c0 .466.378.844.844.844h7.004a.844.844 0 00.844-.844v-7.008a.844.844 0 00-.844-.844z" fill="#274684"/></svg>