<svg width="222" height="180" fill="none" xmlns="http://www.w3.org/2000/svg"><g filter="url(#filter0_f)"><path d="M66.016 11.694L2 26.084l103.231 110.698c17.582 17.99 102.201 46.479 114.515 39.968L66.016 11.693z" fill="url(#paint0_linear)"/></g><path d="M90.438 32.678a.678.678 0 00.046-.02h0l-.001-.003-.005-.011-.02-.047-.075-.18a521.154 521.154 0 01-1.322-3.188 663.222 663.222 0 01-3.18-7.862c-1.17-2.955-2.362-6.04-3.301-8.65-.94-2.61-1.625-4.74-1.787-5.785-.321-2.078.806-3.743 2.023-4.894a11.3 11.3 0 012.499-1.77l.01-.005a6.716 6.716 0 015.651 1.089h0l.003.001c.386.248.862.775 1.4 1.516.538.74 1.135 1.686 1.763 2.766 1.255 2.16 2.634 4.85 3.914 7.479a276.838 276.838 0 014.348 9.395l.281.639.073.168.018.043.005.01.001.003h.001l.045-.019-.045.02.001.003.045-.023-.045.023h0l.001.002.004.008.016.033.064.126.246.491a670.556 670.556 0 014.067 8.297c2.529 5.256 5.721 12.064 8.369 18.274l.046-.02-.046.02c2.499 5.854 3.575 8.94 4.14 10.561.126.361.226.65.312.88.117.316.207.527.296.666.091.142.183.213.305.243a1.4 1.4 0 00.374.013l.056-.002c.178-.008.404-.013.705.02l.033.004.016-.028-.043-.025.043.025h0l.001-.001.001-.003.007-.012.028-.047a23.735 23.735 0 01.516-.827c.35-.538.848-1.26 1.438-1.996.59-.737 1.271-1.487 1.988-2.083.717-.596 1.466-1.034 2.192-1.153a21.401 21.401 0 014.329-.188l.003-.05-.003.05a5.836 5.836 0 003.696-1.057c.993-.694 2.292-1.576 3.533-2.31a19.903 19.903 0 011.771-.945c.543-.25 1.023-.418 1.396-.468a.373.373 0 00.068-.013 2.092 2.092 0 00.149-.05c.086-.03.198-.07.336-.114a8.95 8.95 0 011.389-.32c1.214-.183 3.011-.227 5.411.342h0l.002.001a7.612 7.612 0 004.462-.556 13.656 13.656 0 017.524-.54c1.731.448 2.937.85 3.757 1.291.819.44 1.248.917 1.432 1.513l.343 1.119h0l.002.005a142.574 142.574 0 017.398 22.07h0l.002.004c2.09 5.798 3.106 14.52 3.6 21.796a212.77 212.77 0 01.461 12.075l.003.759v.264h.05-.051l.001.005c.048.495.277 1.149.624 1.895.348.748.816 1.593 1.345 2.471 1.059 1.756 2.367 3.647 3.455 5.161a23.874 23.874 0 004.36 4.637l.031-.039-.031.039c3.094 2.505 4.864 4.521 5.86 5.91.498.694.803 1.231.983 1.594a5.08 5.08 0 01.223.515l.008.025.002.006.001.002h0l-.002.001.007.01c10.392 17.662 15.491 23.427 17.745 25.293l.001.001a26.602 26.602 0 015.451 5.818c1.798 2.709 2.69 4.942 2.841 6.767.151 1.823-.437 3.24-1.606 4.322-1.172 1.084-2.931 1.835-5.126 2.314-2.194.479-4.82.685-7.72.683-11.602-.009-27.569-3.348-37.825-5.827a34.434 34.434 0 01-16.882-9.794l-12.437-13.164h-.001a16.805 16.805 0 01-1.791-2.184c-1.473-2.153-4.236-4.138-7.078-5.771-2.843-1.634-5.771-2.918-7.581-3.666l-.019.046.019-.046a18.341 18.341 0 01-3.278-1.762h0c-1.133-.748-2.454-1.499-3.955-2.353-5.01-2.849-12.024-6.839-20.735-15.632-.54-.547-1.357-1.673-2.373-3.12-.234-.332-.477-.681-.73-1.043a210.39 210.39 0 00-2.828-3.979c-2.658-3.626-5.79-7.466-8.76-9.397-3.93-2.562-9.258-8.326-12.392-11.895h0a25.126 25.126 0 00-5.923-4.873c-4.724-2.87-6.594-5.3-7.286-7.005-.346-.852-.398-1.525-.365-1.982.017-.229.055-.404.089-.522a1.558 1.558 0 01.057-.165l.001-.002.001-.001.027-.024c.023-.02.058-.052.105-.091a9.3 9.3 0 01.415-.33c.366-.276.908-.649 1.61-1.036a15.406 15.406 0 016.01-1.85c5.12-.476 12.32 1.43 20.612 11 8.609 9.928 14.194 14.136 17.606 16v.001a3.1 3.1 0 004.134-1.184c.264-.46.405-.98.409-1.509v0c0-2.72-.015-6.515-.157-10.197-.142-3.681-.411-7.253-.92-9.525-.728-3.24-2.452-8.87-3.993-13.689a619.587 619.587 0 00-2.84-8.647l-.046-.135-.011-.035-.003-.009-.001-.002h0l-.048.015.048-.016h0c-1.136-3.286-3.105-8.509-4.79-12.91a1326.297 1326.297 0 00-2.84-7.352l-.181-.465-.048-.121-.012-.031-.003-.008v-.002h0l-.048.017zm0 0l.046-.019.001.001-.047.019zm123.228 126.329c-2.247-1.86-7.342-7.618-17.734-25.28l17.734 25.28zm0 0a26.678 26.678 0 015.462 5.828l-5.462-5.828z" fill="#F9C8A3" stroke="#795438" stroke-width=".1"/><defs><linearGradient id="paint0_linear" x1="45.279" y1="22.488" x2="214.006" y2="254.287" gradientUnits="userSpaceOnUse"><stop stop-color="#B4D1FA" stop-opacity="0"/><stop offset="1" stop-opacity=".2"/></linearGradient><filter id="filter0_f" x="0" y="9.694" width="221.746" height="170.006" filterUnits="userSpaceOnUse" color-interpolation-filters="sRGB"><feFlood flood-opacity="0" result="BackgroundImageFix"/><feBlend in="SourceGraphic" in2="BackgroundImageFix" result="shape"/><feGaussianBlur stdDeviation="1" result="effect1_foregroundBlur"/></filter></defs></svg>