<svg width="66" height="82" fill="none" xmlns="http://www.w3.org/2000/svg"><g filter="url(#filter0_di)"><path d="M19.336 46.852c0-6.514 5.317-11.784 11.838-11.689 6.297.093 11.423 5.252 11.49 11.562a11.654 11.654 0 01-2.365 7.186c-2.129 2.812-3.44 6.147-3.71 9.643-.035.447-.052.897-.052 1.348v2.765H25.462v-2.602c0-.505-.02-1.009-.06-1.51-.278-3.464-1.512-6.802-3.64-9.565a11.654 11.654 0 01-2.426-7.138z" fill="#FFD042"/><path d="M25.402 63.554H36.59c-.035.447-.052.897-.052 1.348v2.765H25.463v-2.602c0-.505-.02-1.009-.061-1.51z" fill="#FFB952"/><path d="M19.336 46.852c0-4.97 3.096-9.216 7.461-10.907a11.688 11.688 0 00-6.038 10.242c0 2.687.905 5.163 2.426 7.137 2.436 3.163 3.7 7.079 3.7 11.075v3.268h-1.422v-2.602c0-3.997-1.264-7.912-3.7-11.075a11.654 11.654 0 01-2.427-7.138zm14.385 6.277a.73.73 0 01.729.73v13.808a.73.73 0 11-1.457 0V53.859a.73.73 0 01.728-.73zm-5.405 0a.73.73 0 01.728.73v13.808a.73.73 0 11-1.457 0V53.859a.73.73 0 01.729-.73z" fill="#FFB952"/><path d="M28.316 55.848c.186 0 .373.072.515.214.687.689 1.622.016 1.726-.063a.732.732 0 01.959.063c.651.654 1.755-.061 1.802-.092a.73.73 0 01.81 1.215c-.644.432-2.03.96-3.171.28-.823.422-2.112.676-3.156-.37a.732.732 0 01.515-1.247z" fill="#FFB952"/><path d="M25.194 64.98h11.648c.557 0 .964.527.824 1.066l-.289 1.12-1.717 6.648-.399 1.546a.85.85 0 01-.823.64h-6.839a.852.852 0 01-.824-.64l-.4-1.546-1.715-6.648-.289-1.12a.852.852 0 01.823-1.066z" fill="#71A0DD"/><path d="M24.66 67.166h12.717l-1.717 6.648h-9.284l-1.716-6.648z" fill="#0A3D76"/><path d="M24.556 68.592H37.48c.512 0 .927.416.927.929v1.938c0 .513-.415.93-.927.93H24.556a.928.928 0 01-.927-.93v-1.938c0-.513.415-.929.927-.929z" fill="#B4D1FA"/><path d="M33.72 38.771c.067 0 .134.01.201.029 4.692 1.346 5.565 6.078 5.6 6.28a.728.728 0 11-1.435.252c-.031-.17-.768-4.04-4.566-5.129a.73.73 0 01.2-1.432z" fill="#FCE581"/><g filter="url(#filter1_f)"><path d="M26.705 33.587l-2.069-3.827m-7.318 25.99l-7.954 3.508m6.363-10.683c-2.227 0-6.682.213-12.727 0m12.727-6.378L6.5 38.69m12.727-2.072l-4.931-4.305" stroke="#FCE581" stroke-width="2" stroke-linecap="round"/></g><g filter="url(#filter2_f)"><path d="M35.295 33.587l2.069-3.827m7.318 25.99l7.954 3.508m-6.363-10.683c2.227 0 6.681.213 12.727 0m-12.727-6.378L55.5 38.69m-12.727-2.072l4.931-4.305" stroke="#FCE581" stroke-width="2" stroke-linecap="round"/></g><path d="M7.063 6.606c-.14.59-.228 1.06-.266 1.41 0 .188-.064.67-.19 1.448-.21 1.386-.314 2.332-.314 2.837 0 .856.05 1.698.152 2.527.076.603-.045 1.043-.362 1.322-.317.272-.634.408-.95.408-.451 0-.771-.198-.961-.593-.19-.402-.286-1.095-.286-2.08 0-.608.15-2.06.447-4.353l.523-3.8c.108-.557.187-1.076.238-1.555.076-.706.168-1.14.276-1.302.114-.169.314-.344.6-.525.285-.188.5-.282.646-.282.368 0 .647.152.837.457.197.304.295.677.295 1.117l-.685 2.964zm5.21 8.076c.07-.317.124-.887.162-1.71.146-2.255.419-4.613.818-7.075.101-.518.152-.913.152-1.186 0-.116-.05-.187-.152-.213-.672-.175-1.008-.477-1.008-.904 0-.311.136-.603.409-.875.279-.278.574-.418.884-.418l1.284.04c.584 0 1.386-.043 2.407-.127a24.8 24.8 0 012.12-.117c1.77 0 3.2.509 4.29 1.526 1.097 1.01 1.646 2.352 1.646 4.023 0 1.866-.843 3.554-2.53 5.064-1.687 1.503-3.729 2.53-6.125 3.08-.634.143-1.082.266-1.341.37-.26.103-.565.268-.914.495-.43.305-.856.457-1.274.457-.324 0-.612-.159-.866-.476-.253-.318-.38-.577-.38-.778 0-.136.066-.333.2-.593l.218-.583zm2.483-.486c.336 0 1.296-.249 2.882-.748 1.591-.505 2.882-1.28 3.87-2.322.99-1.044 1.485-2.232 1.485-3.567 0-1.07-.368-1.918-1.104-2.546-.729-.635-1.686-.953-2.872-.953-.812 0-1.788.078-2.93.234a6.028 6.028 0 01-.351.038c-.692 4.328-1.037 7.383-1.037 9.165 0 .33.019.563.057.7zm25.251-10l-2.93.156c-1.02.058-1.899.152-2.634.282-.736.123-1.136.22-1.199.291-.057.065-.098.263-.124.593-.031.324-.145.894-.342 1.71-.158.622-.254 1.131-.285 1.526.405 0 .989-.042 1.75-.126.76-.084 1.3-.165 1.617-.243.913-.227 1.62-.34 2.12-.34 1.003 0 1.504.304 1.504.913 0 .447-.14.758-.419.933-.279.169-.716.285-1.313.35-.367.039-.78.097-1.236.175-.241.039-.542.078-.904.117-1.756.207-2.793.369-3.11.486h-.01a.401.401 0 00-.247.223c-.05.117-.145.6-.285 1.448-.14.842-.21 1.432-.21 1.769.032.24.178.36.438.36.305 0 1.104-.085 2.397-.253 1.3-.175 2.105-.295 2.416-.36.869-.188 1.436-.282 1.703-.282.805.117 1.207.5 1.207 1.147 0 .298-.095.525-.285.68-.634.292-1.512.473-2.634.545-.87.052-1.922.162-3.158.33-1.104.24-2.144.36-3.12.36-.514 0-.885-.114-1.113-.34-.228-.22-.364-.567-.409-1.04l-.028-.321c-.007-.052.047-.25.161-.593.254-.797.565-2.569.933-5.316.367-2.747.551-4.276.551-4.587a.335.335 0 00-.057-.078c-.044-.038-.12-.162-.228-.369a1.504 1.504 0 01-.152-.651c0-.117.012-.21.038-.282.025-.136.161-.272.409-.408.247-.136.478-.204.694-.204.298 0 .6.02.903.058.527 0 2.239-.194 5.137-.583.964-.13 1.468-.194 1.512-.194l.133-.01c1.142-.084 1.712.292 1.712 1.127 0 .156-.104.35-.314.583-.203.227-.4.367-.59.418zm6.922 8.912c-.108.272-.44.875-.999 1.808-.551.926-.935 1.441-1.15 1.545-.216.11-.406.165-.571.165-.229 0-.504-.126-.828-.379-.317-.26-.475-.525-.475-.797 0-.252.796-1.616 2.387-4.091a61.767 61.767 0 002.378-4.024c1.44-2.682 2.318-4.24 2.635-4.674.323-.44.653-.661.989-.661.539 0 .929.143 1.17.428.12.09.18.307.18.65a2.3 2.3 0 01-.066.613c1.16 3.615 2.067 6.174 2.72 7.677.66 1.497 1.319 2.582 1.978 3.256.33.337.53.564.6.68a.843.843 0 01.114.467c0 .356-.127.654-.38.894-.254.246-.556.37-.904.37-.482 0-.974-.286-1.475-.856-.494-.57-.963-1.354-1.407-2.352-.438-.998-.657-1.558-.657-1.681 0-.026-.015-.039-.047-.039-.343 0-1.107.123-2.292.37-1.18.246-2.128.485-2.844.718a1.635 1.635 0 01-.485.088c-.248 0-.438-.058-.571-.175zm5.478-2.974c-.152-.382-.602-1.743-1.35-4.081a6.132 6.132 0 00-.143-.409l-2.701 5.248c.4-.071.809-.136 1.227-.194.279-.033.99-.169 2.13-.408.28-.059.559-.11.837-.156z" fill="#000"/></g><defs><filter id="filter0_di" x="0" y="0" width="66" height="82" filterUnits="userSpaceOnUse" color-interpolation-filters="sRGB"><feFlood flood-opacity="0" result="BackgroundImageFix"/><feColorMatrix in="SourceAlpha" values="0 0 0 0 0 0 0 0 0 0 0 0 0 0 0 0 0 0 127 0"/><feOffset dx="2" dy="2"/><feGaussianBlur stdDeviation="2"/><feColorMatrix values="0 0 0 0 0 0 0 0 0 0 0 0 0 0 0 0 0 0 0.15 0"/><feBlend in2="BackgroundImageFix" result="effect1_dropShadow"/><feBlend in="SourceGraphic" in2="effect1_dropShadow" result="shape"/><feColorMatrix in="SourceAlpha" values="0 0 0 0 0 0 0 0 0 0 0 0 0 0 0 0 0 0 127 0" result="hardAlpha"/><feOffset dx="-2" dy="-2"/><feGaussianBlur stdDeviation="2"/><feComposite in2="hardAlpha" operator="arithmetic" k2="-1" k3="1"/><feColorMatrix values="0 0 0 0 0 0 0 0 0 0 0 0 0 0 0 0 0 0 0.2 0"/><feBlend in2="shape" result="effect2_innerShadow"/></filter><filter id="filter1_f" x="0" y="26.76" width="29.705" height="35.498" filterUnits="userSpaceOnUse" color-interpolation-filters="sRGB"><feFlood flood-opacity="0" result="BackgroundImageFix"/><feBlend in="SourceGraphic" in2="BackgroundImageFix" result="shape"/><feGaussianBlur stdDeviation="1" result="effect1_foregroundBlur"/></filter><filter id="filter2_f" x="32.295" y="26.76" width="29.705" height="35.498" filterUnits="userSpaceOnUse" color-interpolation-filters="sRGB"><feFlood flood-opacity="0" result="BackgroundImageFix"/><feBlend in="SourceGraphic" in2="BackgroundImageFix" result="shape"/><feGaussianBlur stdDeviation="1" result="effect1_foregroundBlur"/></filter></defs></svg>