<svg width="778" height="522" fill="none" xmlns="http://www.w3.org/2000/svg"><path d="M776.7 211l-22.3 22.3c-.4.4-.9.4-1.3 0L730.9 211c-.4-.4-.4-.9 0-1.3l22.3-22.3c.4-.4.9-.4 1.3 0l22.3 22.3c.3.3.3.9-.1 1.3z" stroke="#E0E0E0" stroke-width="1.706" stroke-miterlimit="10"/><path d="M766.5 210.4l-12.7 12.7-12.7-12.7 12.7-12.8 12.7 12.7v.1c0-.1 0-.1 0 0z" fill="#EBF2F9"/><path d="M766.5 210.4l-12.7 12.7-12.7-12.7 12.7-12.8 12.7 12.7v.1zm0 0c0-.1 0-.1 0 0z" stroke="#EBF2F9"/><path d="M534.4 61.1c.4 0 .6.2.6.5 0 .4-.5 1-1.6 1.6-1.1.6-2.1 1-3.1 1-.9 0-1.7-.3-2.5-.9-.8-.6-1.1-1.4-1.1-2.5s.4-2.4 1.2-3.7c.8-1.4 1.8-2.5 2.9-3.3 1.2-.9 2.3-1.3 3.4-1.3.7 0 1.2.2 1.6.6.4.4.6.8.6 1.4 0 .6 0 1-.1 1.2-.1.2-.3.4-.6.6-.3.2-.5.3-.7.3-.2 0-.3-.1-.5-.2-.1-.1-.2-.3-.2-.5s0-.4.1-.7c.1-.3.1-.5.1-.7 0-.3-.1-.5-.3-.5-.7 0-1.5.4-2.4 1.1-.9.7-1.6 1.7-2.3 2.8-.6 1.1-.9 2.1-.9 2.9 0 .6.2 1 .5 1.4.3.4.8.6 1.4.6.4 0 .8-.1 1.4-.3.6-.2 1.1-.5 1.6-.8.4-.4.7-.6.9-.6zm5.5-6.2l-.1-.2c-.2-.2-.2-.4-.2-.5 0-.2.1-.4.4-.6.2-.2.5-.3.7-.3h.6c1.4-.2 2.5-.3 3-.3 1.1 0 2 .3 2.6.8.6.5 1 1.1 1 1.9 0 .7-.3 1.4-.9 2-.6.6-1.5 1.2-2.5 1.6 1.7 1.4 3.1 2.3 4 2.9.3.2.5.4.5.7 0 .2-.1.4-.3.6-.2.2-.4.3-.6.3-.3 0-.6-.1-1-.4-.4-.2-.9-.6-1.5-1.1-.7-.5-1-.8-1.1-.9-.9-.8-1.6-1.3-2-1.5-.5 0-.8-.3-.8-.8 0-.2.1-.4.3-.6.2-.2.5-.3.8-.3h.5c.3 0 .9-.3 1.7-.8.8-.5 1.3-1.1 1.3-1.8 0-.3-.2-.6-.5-.9-.4-.2-.8-.4-1.4-.4-.7 0-1.2 0-1.6.1-.4.1-.6.1-.7.2 0 0-.1.1-.1.2s-.2.6-.3 1.5c-.2.9-.3 1.8-.4 2.9-.1 1-.2 1.8-.2 2.3 0 .3 0 .6.1.8 0 .3.1.5.1.7 0 .2-.1.4-.3.6-.2.2-.4.3-.7.3-.7 0-1-.5-1-1.4 0-.8.1-1.8.3-3.2.2-1.4.4-2.6.6-3.6 0-.2.1-.3.1-.4l-.4-.4zm19.8-.3l-2.3.1c-.8 0-1.5.1-2 .2-.6.1-.9.2-.9.2s-.1.2-.1.4-.1.7-.3 1.3c-.1.5-.2.8-.2 1.1.3 0 .8 0 1.4-.1.6-.1 1-.1 1.3-.2.7-.2 1.3-.3 1.6-.3.8 0 1.2.2 1.2.7 0 .3-.1.6-.3.7-.2.1-.6.2-1 .3-.3 0-.6.1-1 .1-.2 0-.4.1-.7.1-1.4.2-2.2.3-2.4.4-.1 0-.1.1-.2.2 0 .1-.1.4-.2 1.1-.1.6-.2 1.1-.2 1.3 0 .2.1.3.3.3.2 0 .9-.1 1.9-.2 1-.1 1.6-.2 1.9-.3.7-.1 1.1-.2 1.3-.2.6.1.9.4.9.9 0 .2-.1.4-.2.5-.5.2-1.2.4-2 .4-.7 0-1.5.1-2.4.2-.9.2-1.7.3-2.4.3-.4 0-.7-.1-.9-.3-.2-.2-.3-.4-.3-.8v-.2s0-.2.1-.4c.2-.6.4-1.9.7-4 .3-2 .4-3.2.4-3.4v-.1s-.1-.1-.2-.3c-.1-.2-.1-.3-.1-.5v-.2c0-.1.1-.2.3-.3.2-.1.4-.2.5-.2h.7c.4 0 1.7-.1 4-.4.7-.1 1.1-.1 1.2-.1h.1c.9-.1 1.3.2 1.3.8 0 .1-.1.3-.2.4-.3.4-.4.5-.6.5zm5.4 6.7c-.1.2-.3.7-.8 1.3-.4.7-.7 1.1-.9 1.2-.2.1-.3.1-.4.1-.2 0-.4-.1-.6-.3-.2-.2-.4-.4-.4-.6 0-.2.6-1.2 1.8-3.1.7-1 1.3-2 1.8-3 1.1-2 1.8-3.2 2-3.5.3-.3.5-.5.8-.5.4 0 .7.1.9.3.1.1.1.2.1.5 0 .2 0 .3-.1.5.9 2.7 1.6 4.6 2.1 5.7.5 1.1 1 1.9 1.5 2.4l.5.5c.1.1.1.2.1.3 0 .3-.1.5-.3.7-.2.2-.4.3-.7.3-.4 0-.8-.2-1.1-.6-.4-.4-.7-1-1.1-1.8-.3-.7-.5-1.2-.5-1.3-.3 0-.9.1-1.8.3-.9.2-1.6.4-2.2.5-.1 0-.3.1-.4.1-.1.1-.2 0-.3 0zm4.2-2.3c-.1-.3-.5-1.3-1-3-.1-.2-.1-.3-.1-.3l-2.1 3.9c.3-.1.6-.1.9-.1.2 0 .8-.1 1.6-.3.3-.1.5-.1.7-.2zm11.8-4s-.1.1-.1.3c0 .2-.1 1-.3 2.5-.2 1.5-.2 2.7-.2 3.6 0 .4 0 .8.1 1.2v.2c0 .3-.1.5-.2.7-.2.2-.3.3-.6.3-.2 0-.4-.1-.6-.2-.2-.2-.4-.4-.4-.8s-.1-.9-.1-1.5c0-.8.1-2.1.3-3.7.2-1.6.3-2.5.4-2.5-.1 0-.7 0-1.6.1-1 .1-1.5.1-1.7.1-.5 0-.9-.1-1.1-.2-.2-.1-.3-.3-.3-.6 0-.2.1-.4.3-.6.2-.1.7-.2 1.6-.2 1.4 0 2.8-.1 4.2-.3 1.5-.2 2.7-.3 3.5-.3.9 0 1.4.1 1.6.3.2.2.3.4.3.6 0 .5-.2.7-.6.7h-1.8c-1.4 0-2.3.1-2.7.3zm8.6 1.4c-.1.4-.2.8-.2 1.1 0 .1 0 .5-.1 1.1-.2 1-.2 1.7-.2 2.1 0 .6 0 1.3.1 1.9.1.4 0 .8-.3 1-.2.2-.5.3-.7.3-.3 0-.6-.1-.7-.4-.1-.3-.2-.8-.2-1.6 0-.5.1-1.5.3-3.2l.4-2.8c.1-.4.1-.8.2-1.2.1-.5.1-.9.2-1 .1-.1.2-.3.5-.4.2-.1.4-.2.5-.2.3 0 .5.1.6.3.2.2.2.5.2.8l-.6 2.2zm14.5-2.8s-.2.3-.5.9c-.6.8-1 1.4-1.4 2-.3.5-1 1.6-1.9 3.1-.6.9-.9 1.5-1.1 1.8-.5.7-.7 1.2-.8 1.6-.1.2-.2.4-.5.6-.3.1-.6.2-.9.2-.2 0-.3-.1-.5-.4-.1-.2-.3-.7-.6-1.4-.3-.8-.7-1.9-1.3-3.2-1.1-2.8-1.7-4.2-1.7-4.3 0-.2.1-.4.3-.7.2-.3.4-.4.7-.4.2 0 .5.1.7.3.2.2.4.7.5 1.4.1.6.5 1.6 1 3.1.6 1.5 1.1 2.6 1.4 3.3.1-.1.2-.4.5-.9.1-.1.1-.2.1-.2.7-1.1 1.2-2 1.7-2.9.8-1.6 1.5-2.7 2.1-3.5.6-.8 1-1.1 1.4-1.1.5 0 .8.3.8.8v-.1zm4 2.8c-.1.4-.2.8-.2 1.1 0 .1 0 .5-.1 1.1-.2 1-.2 1.7-.2 2.1 0 .6 0 1.3.1 1.9.1.4 0 .8-.3 1-.2.2-.5.3-.7.3-.3 0-.6-.1-.7-.4-.1-.3-.2-.8-.2-1.6 0-.5.1-1.5.3-3.2l.4-2.8c.1-.4.1-.8.2-1.2.1-.5.1-.9.2-1 .1-.1.2-.3.5-.4.2-.1.4-.2.5-.2.3 0 .5.1.6.3.2.2.2.5.2.8l-.6 2.2zm9.3-1.4s-.1.1-.1.3c0 .2-.1 1-.3 2.5-.2 1.5-.2 2.7-.2 3.6 0 .4 0 .8.1 1.2v.2c0 .3-.1.5-.2.7-.2.2-.3.3-.6.3-.2 0-.4-.1-.6-.2-.2-.2-.4-.4-.4-.8s-.2-.8-.2-1.4c0-.8.1-2.1.3-3.7.2-1.6.3-2.5.4-2.5-.1 0-.7 0-1.6.1-1 .1-1.5.1-1.7.1-.5 0-.9-.1-1.1-.2-.2-.1-.3-.3-.3-.6 0-.2.1-.4.3-.6.2-.1.7-.2 1.6-.2 1.4 0 2.8-.1 4.2-.3 1.5-.2 2.7-.3 3.5-.3.9 0 1.4.1 1.6.3.2.2.3.4.3.6 0 .5-.2.7-.6.7h-1.8c-1.3-.1-2.2 0-2.6.2zm12.7 3.8c-.2.4-.3 1.7-.5 4 0 .5-.1.8-.2.9-.1.1-.2.2-.4.2-.2.1-.4.1-.5.1-.5 0-.8-.4-.8-1.1 0-.3.1-.9.2-1.8s.2-1.5.2-1.9c0-.2 0-.4-.1-.6-.4-.4-.9-1-1.5-1.8-.7-.9-1.2-1.4-1.4-1.7-.6-.4-.9-.7-1.1-.9-.2-.2-.2-.4-.2-.6 0-.1.1-.3.3-.4.2-.2.4-.3.6-.3.7 0 1.9 1 3.5 3.1.5.7.9 1.1 1.1 1.3.2-.2.4-.4.6-.7.2-.2.4-.5.6-.7 1.2-1.2 2-2.1 2.4-2.6.4-.5.8-.8 1.3-.8.2 0 .4.1.5.3.1.2.2.4.2.5 0 .3-.9 1.3-2.7 3.1-1.4 1.5-2 2.2-2.1 2.4zm24.1 221.8c-.5 0-1.1-.2-1.8-.5s-1.2-.8-1.6-1.6c-.4-.8-.5-1.6-.5-2.4 0-.4.1-1 .2-1.8l.2-1.3c0-.2.1-.4.1-.6.1-.3.1-.6.1-.9.1-.5.2-.9.3-1.2.2-.3.4-.4.8-.4.2 0 .3.1.5.4.2.3.3.5.3.6 0 .1-.1.6-.3 1.6-.1.2-.2.8-.3 1.7-.1.9-.2 1.5-.2 1.9 0 1.2.3 2 .8 2.4.5.4 1 .6 1.3.6 1.2 0 2-.3 2.5-.8s.7-1.3.9-2.5c0-.2.1-.4.1-.6 0-.5.1-.9.1-1.4.1-1.7.3-2.7.5-3.1.2-.4.5-.6.9-.6.5 0 .7.3.7 1 0 .4-.1 1.1-.3 2.1-.1.6-.2 1.2-.2 1.8-.1 1.4-.3 2.5-.6 3.1-.3.7-.9 1.3-1.7 1.8-.7.5-1.7.7-2.8.7zm15-8c0-.5-.1-.8-.4-1-.2-.2-.6-.3-1.1-.3-.8 0-1.5.2-2.2.6-.7.4-1 .8-1 1.3 0 .3.1.5.4.8.3.2.9.5 2 .8 1.1.3 1.9.7 2.5 1.1.5.4.8.9.8 1.4 0 .9-.7 1.7-2.1 2.5-1.4.8-2.8 1.1-4.3 1.1-.5 0-.9-.1-1.2-.3-.3-.2-.4-.5-.4-.7 0-.2.1-.5.2-.7.1-.2.3-.3.5-.3.1 0 .2 0 .3.1.5.2 1 .3 1.4.3.7 0 1.6-.2 2.5-.6.9-.4 1.4-.8 1.4-1.2 0-.2-.1-.3-.3-.5-.2-.2-.7-.3-1.4-.6-1-.3-1.8-.6-2.3-.8-.5-.2-.9-.5-1.2-.8-.3-.4-.4-.8-.4-1.3 0-.9.5-1.7 1.5-2.5s2.2-1.1 3.6-1.1c.8 0 1.4.2 1.9.5s.7.7.7 1.1c0 .7-.5 1.1-1.4 1.1zm12.2-1.2l-2.2.1c-.8 0-1.4.1-2 .2-.5.1-.8.2-.9.2 0 0-.1.2-.1.4s-.1.6-.3 1.2c-.1.5-.2.8-.2 1.1.3 0 .7 0 1.3-.1.6-.1 1-.1 1.2-.2.7-.2 1.2-.2 1.6-.2.7 0 1.1.2 1.1.7 0 .3-.1.6-.3.7-.2.1-.5.2-1 .3-.3 0-.6.1-.9.1-.2 0-.4.1-.7.1-1.3.1-2.1.3-2.3.4-.1 0-.1.1-.2.2 0 .1-.1.4-.2 1.1-.1.6-.2 1-.2 1.3 0 .2.1.3.3.3.2 0 .8-.1 1.8-.2s1.6-.2 1.8-.3c.6-.1 1.1-.2 1.3-.2.6.1.9.4.9.8 0 .2-.1.4-.2.5-.5.2-1.1.3-2 .4-.6 0-1.4.1-2.3.2-.8.2-1.6.3-2.3.3-.4 0-.7-.1-.8-.2-.2-.2-.3-.4-.3-.8v-.2s0-.2.1-.4c.2-.6.4-1.9.7-3.9.3-2 .4-3.1.4-3.3v-.1s-.1-.1-.2-.3c-.1-.2-.1-.3-.1-.5v-.2c0-.1.1-.2.3-.3.2-.1.4-.1.5-.1h.7c.4 0 1.7-.1 3.8-.4.7-.1 1.1-.1 1.1-.1h.1c.8-.1 1.3.2 1.3.8 0 .1-.1.3-.2.4-.1.1-.2.2-.4.2zm4.3.3l-.1-.2c-.2-.2-.2-.4-.2-.5 0-.2.1-.4.3-.6.2-.2.4-.3.6-.3h.5c1.4-.2 2.4-.3 2.9-.3 1 0 1.9.2 2.5.7.6.5.9 1.1.9 1.8s-.3 1.4-.9 2c-.6.6-1.4 1.1-2.4 1.5 1.7 1.4 2.9 2.3 3.8 2.8.3.2.5.4.5.7 0 .2-.1.4-.3.6-.2.2-.4.3-.6.3-.3 0-.6-.1-.9-.4-.3-.2-.8-.6-1.5-1.1-.6-.5-1-.8-1.1-.9-.9-.7-1.5-1.2-1.9-1.5-.5 0-.7-.2-.7-.7 0-.2.1-.4.3-.6.2-.2.5-.3.8-.3h.5c.3 0 .9-.3 1.7-.8.8-.5 1.2-1.1 1.2-1.7 0-.3-.2-.6-.5-.8-.3-.2-.8-.4-1.3-.4-.6 0-1.1 0-1.5.1-.4.1-.6.1-.6.2 0 0-.1.1-.1.2s-.2.6-.3 1.5c-.2.8-.3 1.8-.4 2.8-.1 1-.2 1.8-.2 2.2 0 .3 0 .6.1.8 0 .2.1.5.1.6 0 .2-.1.4-.3.5-.2.2-.4.3-.6.3-.7 0-1-.5-1-1.4 0-.7.1-1.8.2-3.1.2-1.3.4-2.5.6-3.5 0-.2.1-.3.1-.4l-.2-.1zm-57.4 18.7l-2.2.1c-.8 0-1.4.1-2 .2-.5.1-.8.2-.9.2 0 0-.1.2-.1.4s-.1.6-.3 1.2c-.1.5-.2.8-.2 1.1.3 0 .7 0 1.3-.1.6-.1 1-.1 1.2-.2.7-.2 1.2-.2 1.6-.2.7 0 1.1.2 1.1.7 0 .3-.1.6-.3.7-.2.1-.5.2-1 .3-.3 0-.6.1-.9.1-.2 0-.4.1-.7.1-1.3.1-2.1.3-2.3.4-.1 0-.1.1-.2.2 0 .1-.1.4-.2 1.1-.1.6-.2 1-.2 1.3 0 .2.1.3.3.3.2 0 .8-.1 1.8-.2s1.6-.2 1.8-.3c.6-.1 1.1-.2 1.3-.2.6.1.9.4.9.8 0 .2-.1.4-.2.5-.5.2-1.1.3-2 .4-.6 0-1.4.1-2.3.2-.8.2-1.6.3-2.3.3-.4 0-.7-.1-.8-.2-.2-.2-.3-.4-.3-.8v-.2s0-.2.1-.4c.2-.6.4-1.9.7-3.9.3-2 .4-3.1.4-3.3v-.1s-.1-.1-.2-.3c-.1-.2-.1-.3-.1-.5v-.2c0-.1.1-.2.3-.3.2-.1.4-.1.5-.1h.7c.4 0 1.7-.1 3.8-.4.7-.1 1.1-.1 1.1-.1h.1c.8-.1 1.3.2 1.3.8 0 .1-.1.3-.2.4-.1 0-.2.1-.4.2zm7.6 2.3l.2-.2c1.8-2 2.9-3.2 3.3-3.5.3-.3.6-.4.7-.4.2 0 .4.1.6.3.2.2.3.4.3.6 0 .2-.2.5-.7.9-.4.4-.9.8-1.5 1.4l-.3.3c-1.1 1.1-1.7 1.7-1.7 1.9 0 .1.3.5 1 1.4.7.8 1.2 1.3 1.6 1.5.4.2.7.5.9.8.2.3.3.5.3.5 0 .2-.1.3-.2.5-.2.1-.3.2-.6.2-.4 0-.8-.2-1.2-.5-.4-.3-.9-.9-1.6-1.8-.6-.7-1-1.3-1.2-1.6-.1.1-.4.5-.9.9-1.3 1.4-2 2.2-2.1 2.7-.2.5-.3.8-.4.9-.1.1-.2.2-.4.3-.2.1-.4.1-.7.1-.5 0-.8-.2-.8-.7 0-.4.3-.9.8-1.6.6-.7 1.4-1.7 2.6-2.8l.8-.8c.1-.1.1-.2.2-.2-.1-.1-.2-.3-.4-.5-.3-.3-.8-1-1.5-1.9-.7-.9-1-1.5-1-1.7 0-.2.1-.5.3-.7.2-.2.4-.4.5-.4.2 0 .4.1.5.2.2.1.3.4.5.7.5 1.1 1.2 2.1 2.1 3.2zm10 3.2c-.1 1.1-.2 2-.2 2.6 0 .3-.1.5-.2.7-.2.2-.4.3-.6.3-.6 0-.9-.3-.9-1 0-.4.1-1.6.4-3.8.2-1.7.3-2.8.3-3.1v-.6c-.3-.2-.5-.4-.5-.8s.6-.7 1.9-1c1.3-.3 2.4-.4 3.3-.4 1.1 0 1.9.2 2.5.7.6.4.9 1 .9 1.8 0 1.1-.6 2-1.7 2.8-1.2.8-2.6 1.4-4.2 1.7-.6 0-1 .1-1 .1zm.6-5.3l-.4 3.7c1.4-.2 2.5-.6 3.6-1.2 1-.6 1.5-1.2 1.5-1.9 0-.8-.6-1.2-1.9-1.2-.8.1-1.8.3-2.8.6zm11.3 1.5c-.1.4-.2.8-.2 1 0 .1 0 .5-.1 1.1-.2 1-.2 1.7-.2 2.1 0 .6 0 1.2.1 1.8.1.4 0 .8-.3 1-.2.2-.5.3-.7.3-.3 0-.6-.1-.7-.4-.1-.3-.2-.8-.2-1.5 0-.4.1-1.5.3-3.2l.4-2.8c.1-.4.1-.8.2-1.1.1-.5.1-.8.2-.9l.4-.4c.2-.1.4-.2.5-.2.3 0 .5.1.6.3.1.2.2.5.2.8l-.5 2.1zm4.4-1.5l-.1-.2c-.2-.2-.2-.4-.2-.5 0-.2.1-.4.3-.6.2-.2.4-.3.6-.3h.5c1.4-.2 2.4-.3 2.9-.3 1 0 1.9.2 2.5.7.6.5.9 1.1.9 1.8s-.3 1.4-.9 2c-.6.6-1.4 1.1-2.4 1.5 1.7 1.4 2.9 2.3 3.8 2.8.3.2.5.4.5.7 0 .2-.1.4-.3.6-.2.2-.4.3-.6.3-.3 0-.6-.1-.9-.4-.3-.2-.8-.6-1.5-1.1-.6-.5-1-.8-1.1-.9-.9-.7-1.5-1.2-1.9-1.5-.5 0-.7-.2-.7-.7 0-.2.1-.4.3-.6.2-.2.5-.3.8-.3h.5c.3 0 .9-.3 1.7-.8.8-.5 1.2-1.1 1.2-1.7 0-.3-.2-.6-.5-.8-.3-.2-.8-.4-1.3-.4-.6 0-1.1 0-1.5.1-.4.1-.6.1-.6.2 0 0-.1.1-.1.2s-.2.6-.3 1.5c-.2.8-.3 1.8-.4 2.8-.1 1-.2 1.8-.2 2.2 0 .3 0 .6.1.8 0 .2.1.5.1.6 0 .2-.1.4-.3.5-.2.2-.4.3-.7.3-.7 0-1-.5-1-1.4 0-.7.1-1.8.2-3.1.2-1.3.4-2.5.6-3.5 0-.2.1-.3.1-.4l-.1-.1zm13.5 1.5c-.1.4-.2.8-.2 1 0 .1 0 .5-.1 1.1-.2 1-.2 1.7-.2 2.1 0 .6 0 1.2.1 1.8.1.4 0 .8-.3 1-.2.2-.5.3-.7.3-.3 0-.6-.1-.7-.4-.1-.3-.2-.8-.2-1.5 0-.4.1-1.5.3-3.2l.4-2.8c.1-.4.1-.8.2-1.1.1-.5.1-.8.2-.9l.4-.4c.2-.1.4-.2.5-.2.3 0 .5.1.6.3.1.2.2.5.2.8l-.5 2.1zm11.6-1.7l-2.2.1c-.8 0-1.4.1-2 .2-.5.1-.8.2-.9.2 0 0-.1.2-.1.4s-.1.6-.3 1.2c-.1.5-.2.8-.2 1.1.3 0 .7 0 1.3-.1.6-.1 1-.1 1.2-.2.7-.2 1.2-.2 1.6-.2.7 0 1.1.2 1.1.7 0 .3-.1.6-.3.7-.2.1-.5.2-1 .3-.3 0-.6.1-.9.1-.2 0-.4.1-.7.1-1.3.1-2.1.3-2.3.4-.1 0-.1.1-.2.2 0 .1-.1.4-.2 1.1-.1.6-.2 1-.2 1.3 0 .2.1.3.3.3.2 0 .8-.1 1.8-.2s1.6-.2 1.8-.3c.6-.1 1.1-.2 1.3-.2.6.1.9.4.9.8 0 .2-.1.4-.2.5-.5.2-1.1.3-2 .4-.6 0-1.4.1-2.3.2-.8.2-1.6.3-2.3.3-.4 0-.7-.1-.8-.2-.2-.2-.3-.4-.3-.8v-.2s0-.2.1-.4c.2-.6.4-1.9.7-3.9.3-2 .4-3.1.4-3.3v-.1s-.1-.1-.2-.3c-.1-.2-.1-.3-.1-.5v-.2c0-.1.1-.2.3-.3.2-.1.4-.1.5-.1h.7c.4 0 1.7-.1 3.8-.4.7-.1 1.1-.1 1.1-.1h.1c.8-.1 1.3.2 1.3.8 0 .1-.1.3-.2.4-.2 0-.3.1-.4.2zm3.5 6.4l.5-2.4c.4-1.9.6-3.2.6-3.9 0-.4 0-.6.1-.7 0-.1.2-.3.3-.4.2-.1.4-.2.6-.2.1 0 .3 0 .5.1s.3.4.5.9c.2.8.7 1.9 1.5 3.2.8 1.4 1.6 2.4 2.2 3.2.2-.8.4-1.9.6-3.2.2-.9.3-1.7.4-2.4.1-.6.2-1.1.2-1.5 0-.4.1-.7.4-.8.2-.1.5-.2.7-.2.2 0 .4.1.5.3.1.2.2.5.2.8 0 .3-.1.6-.2 1.1-.3 1.1-.6 2.5-.9 4.2-.3 1.7-.4 2.7-.4 2.9v.2c0 .3 0 .5-.1.6-.1.1-.2.3-.3.4-.2.1-.4.2-.7.2h-.4c-.1 0-.2-.1-.3-.3-.1-.2-.3-.4-.4-.6-.2-.4-.4-.7-.5-.8-1.1-1.4-2.2-3.1-3.2-5-.1.6-.4 1.9-.6 4.1l-.1.6c0 .2-.1.5-.1 1s-.2.9-.4 1.1c-.2.2-.4.3-.6.3-.3 0-.5-.1-.7-.2-.1-.2-.2-.5-.2-.9s.1-.9.3-1.7zm20-.1c.4 0 .5.2.5.5 0 .4-.5 1-1.6 1.6-1 .6-2 .9-3 .9-.9 0-1.6-.3-2.4-.8-.7-.6-1.1-1.4-1.1-2.4 0-1.1.4-2.3 1.1-3.6.8-1.3 1.7-2.4 2.8-3.3 1.1-.8 2.2-1.3 3.3-1.3.6 0 1.1.2 1.5.6.4.4.6.8.6 1.3s0 .9-.1 1.2c-.1.2-.3.4-.5.6-.3.2-.5.3-.7.3-.2 0-.3-.1-.5-.2-.1-.1-.2-.3-.2-.5 0-.1 0-.4.1-.7.1-.3.1-.5.1-.7 0-.3-.1-.5-.3-.5-.7 0-1.4.4-2.3 1.1-.8.7-1.6 1.6-2.2 2.7-.6 1.1-.9 2-.9 2.8 0 .5.2 1 .5 1.4.3.4.8.6 1.4.6.4 0 .8-.1 1.3-.3.5-.2 1-.5 1.5-.8.6-.3 1-.5 1.1-.5zm12.4-6.3l-2.2.1c-.8 0-1.4.1-2 .2-.5.1-.8.2-.9.2 0 0-.1.2-.1.4s-.1.6-.3 1.2c-.1.5-.2.8-.2 1.1.3 0 .7 0 1.3-.1.6-.1 1-.1 1.2-.2.7-.2 1.2-.2 1.6-.2.7 0 1.1.2 1.1.7 0 .3-.1.6-.3.7-.2.1-.5.2-1 .3-.3 0-.6.1-.9.1-.2 0-.4.1-.7.1-1.3.1-2.1.3-2.3.4-.1 0-.1.1-.2.2 0 .1-.1.4-.2 1.1-.1.6-.2 1-.2 1.3 0 .2.1.3.3.3.2 0 .8-.1 1.8-.2s1.6-.2 1.8-.3c.6-.1 1.1-.2 1.3-.2.6.1.9.4.9.8 0 .2-.1.4-.2.5-.5.2-1.1.3-2 .4-.6 0-1.4.1-2.3.2-.8.2-1.6.3-2.3.3-.4 0-.7-.1-.8-.2-.2-.2-.3-.4-.3-.8v-.2s0-.2.1-.4c.2-.6.4-1.9.7-3.9.3-2 .4-3.1.4-3.3v-.1s-.1-.1-.2-.3c-.1-.2-.1-.3-.1-.5v-.2c0-.1.1-.2.3-.3.2-.1.4-.1.5-.1h.7c.4 0 1.7-.1 3.8-.4.7-.1 1.1-.1 1.1-.1h.1c.8-.1 1.3.2 1.3.8 0 .1-.1.3-.2.4-.1 0-.3.1-.4.2z" fill="#000"/><path d="M347.7 109l-17.4-17.5c-.3-.3-.3-.7 0-1l17.4-17.4c.3-.3.7-.3 1 0l17.4 17.4c.3.3.3.7 0 1L348.7 109c-.2.2-.7.2-1 0z" stroke="#E0E0E0" stroke-width="1.771" stroke-miterlimit="10"/><path d="M348.6 67.8c.2 0 .4-.2.4-.4s-.2-.4-.4-.4-.4.2-.4.4.2.4.4.4zm4.8 4.4c-.2.2-.4.2-.6 0-.2-.2-.2-.4 0-.6.2-.2.4-.2.6 0 .2.2.2.4 0 .6zm4.5 4.5c-.2.2-.4.2-.6 0-.2-.2-.2-.4 0-.6.2-.2.4-.2.6 0 .2.2.2.4 0 .6zm4.5 4.5c-.2.2-.4.2-.6 0-.2-.2-.2-.4 0-.6.2-.2.4-.2.6 0 .2.2.2.4 0 .6zm4.3 4.7c.2 0 .4-.2.4-.4s-.2-.4-.4-.4-.4.2-.4.4.2.4.4.4zm-21.8-14.2c-.2.2-.4.2-.6 0-.2-.2-.2-.4 0-.6.2-.2.4-.2.6 0 .1.2.1.4 0 .6zm4.2 4.6c.2 0 .4-.2.4-.4s-.2-.4-.4-.4-.4.2-.4.4.2.4.4.4zm4.5 4.5c.2 0 .4-.2.4-.4s-.2-.4-.4-.4-.4.2-.4.4.2.4.4.4zm4.5 4.6c.2 0 .4-.2.4-.4s-.2-.4-.4-.4-.4.2-.4.4.2.4.4.4zm4.6 4.5c.2 0 .4-.2.4-.4s-.2-.4-.4-.4-.4.2-.4.4c-.1.2.1.4.4.4zm-21.9-14.2c-.2.2-.4.2-.6 0-.2-.2-.2-.4 0-.6.2-.2.4-.2.6 0 .2.2.2.5 0 .6zm4.2 4.7c.2 0 .4-.2.4-.4s-.2-.4-.4-.4-.4.2-.4.4.2.4.4.4zm4.5 4.5c.2 0 .4-.2.4-.4s-.2-.4-.4-.4-.4.2-.4.4.2.4.4.4zm4.6 4.5c.2 0 .4-.2.4-.4s-.2-.4-.4-.4-.4.2-.4.4.1.4.4.4zm4.8 4.4c-.2.2-.4.2-.6 0-.2-.2-.2-.4 0-.6.2-.2.4-.2.6 0 .1.2.1.5 0 .6zm-22.1-14c-.2.2-.4.2-.6 0-.2-.2-.2-.4 0-.6.2-.2.4-.2.6 0 .1.2.1.4 0 .6zm4.5 4.5c-.2.2-.4.2-.6 0-.2-.2-.2-.4 0-.6.2-.2.4-.2.6 0 .2.2.2.4 0 .6zm4.2 4.6c.2 0 .4-.2.4-.4s-.2-.4-.4-.4-.4.2-.4.4c0 .3.2.4.4.4zm4.8 4.4c-.2.2-.4.2-.6 0-.2-.2-.2-.4 0-.6.2-.2.4-.2.6 0 .2.2.2.5 0 .6zm4.5 4.6c-.2.2-.4.2-.6 0-.2-.2-.2-.4 0-.6.2-.2.4-.2.6 0 .2.1.2.4 0 .6zm-22-14.1c-.2.2-.4.2-.6 0-.2-.2-.2-.4 0-.6.2-.2.4-.2.6 0 .1.2.1.4 0 .6zm4.2 4.6c.2 0 .4-.2.4-.4s-.2-.4-.4-.4-.4.2-.4.4c0 .3.2.4.4.4zm4.5 4.6c.2 0 .4-.2.4-.4s-.2-.4-.4-.4-.4.2-.4.4.2.4.4.4zm4.5 4.5c.2 0 .4-.2.4-.4s-.2-.4-.4-.4-.4.2-.4.4.2.4.4.4zm4.8 4.4c-.2.2-.4.2-.6 0-.2-.2-.2-.4 0-.6.2-.2.4-.2.6 0 .2.2.2.5 0 .6zm-22.1-14c-.2.2-.4.2-.6 0-.2-.2-.2-.4 0-.6.2-.2.4-.2.6 0 .2.1.2.4 0 .6zm4.2 4.6c.2 0 .4-.2.4-.4s-.2-.4-.4-.4-.4.2-.4.4.2.4.4.4zm4.5 4.5c.2 0 .4-.2.4-.4s-.2-.4-.4-.4-.4.2-.4.4.2.4.4.4zm4.6 4.6c.2 0 .4-.2.4-.4s-.2-.4-.4-.4-.4.2-.4.4c-.1.2.1.4.4.4zm4.8 4.4c-.2.2-.4.2-.6 0-.2-.2-.2-.4 0-.6.2-.2.4-.2.6 0 .1.1.1.4 0 .6z" fill="#B4D1FA"/><path d="M249.3 17.3l25.5 18.1 25.6-18.1L326 35.4M198 17.3l25.6 18.1" stroke="#E0E0E0" stroke-width="2" stroke-miterlimit="10" stroke-linecap="round" stroke-linejoin="round"/><path d="M198 1l25.6 18.1L249.3 1l25.5 18.1L300.5 1" stroke="#EBF2F9" stroke-width="2" stroke-miterlimit="10" stroke-linecap="round" stroke-linejoin="round"/><path d="M492.5 133.3c8.6 0 15.5-7 15.5-15.5s-7-15.5-15.5-15.5c-8.6 0-15.5 7-15.5 15.5s6.9 15.5 15.5 15.5z" stroke="#E0E0E0" stroke-width="2" stroke-miterlimit="10" stroke-linecap="round" stroke-linejoin="round"/><path d="M498.1 138.9c8.6 0 15.5-7 15.5-15.5s-7-15.5-15.5-15.5-15.5 7-15.5 15.5 6.9 15.5 15.5 15.5z" fill="#EBF2F9"/><path d="M380.578 158.323c-.701 0-1.603-.201-2.604-.701-1.001-.501-1.803-1.302-2.403-2.404a9.097 9.097 0 01-.801-3.705c0-.701.1-1.602.3-2.704l.3-2.002c0-.301.1-.701.201-1.002.1-.5.2-1.001.2-1.402.1-.801.3-1.402.501-1.702.2-.401.6-.601 1.101-.601.301 0 .501.2.801.601.301.4.401.701.401.901 0 .1-.2.901-.501 2.303-.1.401-.2 1.202-.4 2.604-.201 1.402-.301 2.303-.301 2.804 0 1.802.401 3.004 1.202 3.605.801.601 1.502.901 2.003.901 1.802 0 3.004-.4 3.705-1.101.701-.801 1.101-2.003 1.302-3.806 0-.3.1-.6.1-.901.1-.701.1-1.402.2-2.103.2-2.503.401-4.106.701-4.706.3-.601.801-.902 1.402-.902.701 0 1.101.501 1.101 1.402 0 .601-.1 1.603-.4 3.205-.2.901-.301 1.802-.301 2.704-.1 2.102-.4 3.705-.901 4.706-.5 1.001-1.302 1.903-2.503 2.604-1.302 1.001-2.704 1.402-4.406 1.402zm22.631-12.117c0-.701-.2-1.202-.5-1.402-.401-.301-.902-.401-1.603-.401a6.3 6.3 0 00-3.304.902c-1.002.6-1.502 1.201-1.502 1.902 0 .401.2.801.601 1.102.4.3 1.402.701 3.004 1.201 1.702.501 2.904 1.002 3.705 1.603.801.601 1.202 1.301 1.202 2.103 0 1.402-1.002 2.603-3.105 3.705-2.103 1.101-4.206 1.702-6.509 1.702-.701 0-1.302-.2-1.702-.501-.401-.3-.701-.701-.701-1.101 0-.401.1-.701.3-1.001.201-.301.401-.501.701-.501.201 0 .301 0 .501.1.701.3 1.402.501 2.103.501 1.101 0 2.303-.301 3.705-.902 1.402-.6 2.103-1.201 2.103-1.802 0-.2-.2-.501-.501-.701-.3-.2-1.001-.501-2.103-.901-1.502-.501-2.703-.902-3.504-1.202-.802-.3-1.402-.701-1.803-1.302-.401-.501-.601-1.202-.601-1.902 0-1.302.801-2.504 2.303-3.706 1.502-1.101 3.305-1.702 5.408-1.702 1.202 0 2.103.2 2.804.701.701.501 1.001 1.001 1.001 1.602 0 1.302-.701 1.903-2.003 1.903zm18.226-1.802l-3.305.2c-1.101.1-2.103.2-2.904.3-.801.1-1.302.2-1.302.301-.1.1-.1.3-.1.6 0 .401-.2 1.002-.4 1.903-.201.701-.301 1.202-.301 1.702.501 0 1.102 0 1.903-.1.801-.1 1.402-.2 1.802-.3 1.002-.2 1.803-.401 2.404-.401 1.101 0 1.702.301 1.702 1.002 0 .5-.2.801-.501 1.001-.3.2-.801.301-1.502.401-.4 0-.901.1-1.402.2-.3 0-.601.1-1.001.1-2.003.2-3.104.401-3.505.501-.1 0-.2.1-.3.2-.101.1-.201.701-.301 1.602-.2.902-.2 1.603-.2 1.903 0 .3.2.401.501.401.3 0 1.201-.101 2.703-.301 1.402-.2 2.304-.3 2.704-.4 1.001-.201 1.602-.301 1.903-.301.901.1 1.302.501 1.302 1.302 0 .3-.101.601-.301.701-.701.3-1.702.501-2.904.601-1.001.1-2.103.2-3.505.4-1.201.301-2.403.401-3.505.401-.601 0-1.001-.1-1.201-.401-.301-.2-.401-.601-.501-1.101v-.401c0-.1.1-.3.2-.601.301-.901.601-2.803 1.002-5.808.4-3.004.6-4.706.6-5.007l-.1-.1s-.1-.2-.3-.4c-.1-.201-.2-.501-.2-.701v-.301c0-.1.2-.3.5-.4.301-.1.501-.201.801-.201.301 0 .701 0 1.002.101.601 0 2.503-.201 5.708-.601 1.101-.1 1.602-.201 1.702-.201h.1c1.302-.1 1.903.301 1.903 1.202 0 .2-.1.401-.3.601-.101.2-.301.401-.601.401zm6.409.4l-.1-.2c-.2-.401-.301-.601-.301-.801 0-.301.201-.601.501-.902.3-.3.701-.4.901-.4h.902c2.103-.301 3.504-.501 4.406-.501 1.602 0 2.804.401 3.705 1.102.901.701 1.402 1.702 1.402 2.803 0 1.002-.501 2.003-1.402 3.005-.901.901-2.103 1.702-3.605 2.303 2.503 2.003 4.406 3.405 5.708 4.206.501.3.701.601.701 1.101 0 .301-.201.601-.501.801-.3.301-.601.401-.901.401-.401 0-.901-.2-1.402-.501-.501-.4-1.302-.901-2.203-1.702-1.002-.801-1.502-1.202-1.703-1.402-1.301-1.102-2.303-1.903-2.904-2.203-.701 0-1.101-.401-1.101-1.102 0-.3.2-.601.501-.901.3-.3.701-.401 1.101-.401.1 0 .301 0 .401.101.1 0 .2.1.3.1.501 0 1.302-.401 2.504-1.102 1.201-.801 1.802-1.602 1.802-2.603 0-.501-.3-.902-.801-1.302-.501-.401-1.202-.501-1.903-.501-.901 0-1.702.1-2.303.2s-.901.201-.901.201-.1.2-.2.3c-.101.2-.201.901-.501 2.203-.2 1.302-.401 2.704-.601 4.206-.2 1.502-.3 2.604-.3 3.405 0 .5 0 .901.1 1.201.1.401.1.701.1 1.002 0 .3-.2.5-.501.801-.3.3-.601.4-1.001.4-1.002 0-1.502-.701-1.502-2.002 0-1.102.1-2.604.4-4.607.201-2.003.501-3.705.902-5.207 0-.2.1-.501.1-.601l.2-.901zm-88.724 30.342c-.2.601-.3 1.202-.3 1.502 0 .201-.1.701-.201 1.603-.2 1.502-.3 2.503-.3 3.104 0 .901.1 1.802.2 2.804.1.701 0 1.101-.4 1.402-.401.3-.701.4-1.102.4-.501 0-.901-.2-1.101-.601-.201-.4-.301-1.201-.301-2.303 0-.701.201-2.203.501-4.706l.601-4.106c.1-.601.2-1.202.3-1.702.1-.802.2-1.202.301-1.402.1-.201.3-.401.701-.601.3-.2.6-.301.701-.301.4 0 .701.201.901.501.2.3.3.701.3 1.202l-.801 3.204zm5.708 7.01l.801-3.605c.601-2.804.901-4.807.901-5.908 0-.501.1-.901.1-1.102.101-.2.201-.4.501-.601.301-.2.601-.3.901-.3.201 0 .501.1.801.2.301.1.501.601.701 1.302.301 1.202 1.102 2.804 2.304 4.907 1.201 2.003 2.303 3.605 3.304 4.907.301-1.202.601-2.804.901-4.707.201-1.402.401-2.603.601-3.605a9.669 9.669 0 00.301-2.303c0-.601.2-1.001.601-1.202.3-.2.701-.3 1.001-.3.3 0 .501.2.701.501.2.3.3.701.3 1.201 0 .401-.1.901-.3 1.602-.401 1.603-.901 3.706-1.302 6.309-.4 2.604-.601 4.006-.601 4.406v.401c0 .4 0 .701-.1.901-.1.2-.2.401-.501.601-.3.2-.6.3-1.101.3-.3 0-.501 0-.601-.1-.1 0-.3-.2-.501-.4-.2-.201-.4-.601-.6-.902-.301-.6-.601-1.001-.802-1.201-1.702-2.103-3.304-4.607-4.906-7.511-.201.902-.501 2.904-1.002 6.109l-.1 1.001c-.1.301-.1.801-.1 1.402 0 .801-.2 1.302-.601 1.602-.3.301-.601.501-.901.501-.501 0-.801-.1-1.002-.4-.2-.201-.3-.701-.3-1.402.1-.701.3-1.502.601-2.604zm27.338-9.113c-.1.1-.1.2-.2.501 0 .3-.2 1.502-.4 3.605-.201 2.203-.301 3.905-.301 5.207 0 .501.1 1.102.2 1.803 0 .1.101.2.101.3 0 .401-.101.701-.301 1.001-.2.301-.501.501-.801.501-.2 0-.501-.1-.901-.3-.401-.201-.601-.601-.601-1.202-.1-.601-.1-1.302-.1-2.103 0-1.202.1-3.004.4-5.407.301-2.404.501-3.605.501-3.706-.2 0-1.001.101-2.403.201-1.402.1-2.203.2-2.404.2-.701 0-1.201-.1-1.502-.3-.3-.201-.4-.501-.4-.902 0-.4.1-.6.4-.801.301-.2 1.102-.3 2.303-.3 2.003 0 4.006-.1 6.009-.401 2.203-.3 3.905-.5 5.007-.5 1.302 0 2.003.2 2.303.5.3.301.401.601.401.902 0 .701-.301 1.001-.902 1.001-.2 0-.5 0-1.001-.1-.401 0-1.001-.1-1.602-.1-1.903 0-3.105.2-3.806.4zm20.729-.501l-3.304.201c-1.102.1-2.103.2-2.905.3-.801.1-1.301.2-1.301.301-.1.1-.1.3-.1.6 0 .401-.201 1.002-.401 1.903-.2.701-.3 1.202-.3 1.702.5 0 1.101 0 1.902-.1.801-.1 1.402-.2 1.803-.3 1.001-.2 1.802-.401 2.403-.401 1.102 0 1.702.301 1.702 1.002 0 .5-.2.801-.5 1.001-.301.2-.801.3-1.502.401-.401 0-.902.1-1.402.2-.301 0-.601.1-1.002.1-2.002.2-3.104.401-3.505.501-.1 0-.2.1-.3.2-.1.1-.2.701-.3 1.602-.201.901-.201 1.602-.201 1.903 0 .3.201.4.501.4s1.202-.1 2.704-.3c1.402-.2 2.303-.3 2.704-.401 1.001-.2 1.602-.3 1.902-.3.901.1 1.302.501 1.302 1.202 0 .3-.1.601-.3.701-.701.3-1.703.5-2.904.601-1.002.1-2.103.2-3.505.4-1.202.301-2.404.401-3.505.401-.601 0-1.002-.1-1.202-.401-.3-.2-.4-.601-.501-1.101v-.301c0-.1.101-.3.201-.601.3-.901.601-2.804 1.001-5.808.401-3.004.601-4.706.601-5.007l-.1-.1s-.1-.2-.301-.4c-.1-.201-.2-.501-.2-.701v-.301c0-.1.2-.3.501-.4.3-.101.5-.201.801-.201.3 0 .701 0 1.001.1.601 0 2.504-.2 5.708-.6 1.102-.101 1.602-.201 1.703-.201h.1c1.302-.1 1.902.301 1.902 1.202 0 .2-.1.401-.3.601-.2.1-.401.3-.601.4zm6.409.301l-.1-.2c-.2-.401-.3-.601-.3-.801 0-.301.2-.601.501-.902.3-.3.7-.4.901-.4h.901c2.103-.301 3.505-.501 4.406-.501 1.602 0 2.804.401 3.705 1.102.902.701 1.402 1.702 1.402 2.803 0 1.002-.5 2.003-1.402 3.005-.901.901-2.103 1.702-3.605 2.303 2.504 2.003 4.406 3.405 5.708 4.206.501.3.701.601.701 1.101 0 .301-.2.601-.5.801-.301.301-.601.401-.902.401-.4 0-.901-.2-1.402-.501-.5-.4-1.302-.901-2.203-1.702-1.001-.801-1.502-1.202-1.702-1.402-1.302-1.102-2.303-1.903-2.904-2.203-.701 0-1.102-.401-1.102-1.102 0-.3.201-.601.501-.901.3-.3.701-.4 1.102-.4.1 0 .3 0 .4.1.1 0 .2.1.301.1.5 0 1.301-.401 2.503-1.102 1.202-.801 1.803-1.602 1.803-2.603 0-.501-.301-.902-.802-1.302-.5-.401-1.201-.501-1.902-.501-.902 0-1.703.1-2.303.2-.601.101-.902.201-.902.201s-.1.2-.2.3c-.1.2-.2.901-.501 2.203-.2 1.302-.4 2.704-.601 4.206-.2 1.502-.3 2.604-.3 3.405 0 .5 0 .901.1 1.201.1.401.1.701.1 1.002 0 .3-.2.501-.5.801-.301.3-.601.401-1.002.401-1.001 0-1.502-.701-1.502-2.003 0-1.102.1-2.604.401-4.607.2-2.002.5-3.705.901-5.207 0-.2.1-.501.1-.601l.2-.901zm28.039-.401c-.201.101-.401.201-.601.201h-.401c-.2 0-.501-.1-.901-.1-.901 0-1.903.1-3.004.2-1.102.1-1.903.3-2.303.4-.401 1.302-.701 2.904-.802 4.807.301 0 .601-.1.902-.1 1.101-.1 2.103-.301 3.104-.401.801-.1 1.402-.2 1.903-.2 1.101 0 1.602.401 1.602 1.102 0 .1-.1.3-.301.6-.2.201-.4.401-.701.501-.2.1-.7.2-1.301.301l-2.804.3c-1.102.1-1.903.3-2.404.401-.1 0-.1.1-.2.2 0 .1-.1.5-.1 1.302-.1.801-.1 1.502-.1 2.103v1.301c0 .801-.401 1.202-1.202 1.202-.4 0-.801-.1-1.101-.401-.401-.3-.501-.701-.501-1.201 0-.901.1-2.203.3-3.906 0-.1.401-2.703 1.102-7.811 0-.2 0-.4-.1-.6-.1-.301-.201-.501-.201-.701 0-.301.101-.501.401-.801.3-.301.601-.401.801-.401.2 0 .301 0 .501.1.3.1.501.1.801.1.3 0 1.402-.1 3.405-.3 1.302-.1 2.303-.2 2.904-.2.701 0 1.201.1 1.602.3.401.2.601.401.601.601a2.2 2.2 0 01-.901 1.101zm5.808 9.814c-.1.3-.501 1.001-1.102 2.003-.601 1.001-1.001 1.602-1.302 1.702-.2.1-.5.2-.6.2-.301 0-.601-.1-.902-.4-.4-.301-.5-.601-.5-.901 0-.301.901-1.803 2.703-4.507 1.002-1.502 1.803-2.904 2.604-4.406 1.602-2.904 2.604-4.606 2.904-5.107.401-.501.701-.701 1.102-.701.6 0 1.001.2 1.301.501.101.1.201.3.201.701 0 .3 0 .501-.1.701 1.301 3.905 2.303 6.709 3.004 8.412.701 1.602 1.502 2.803 2.203 3.504l.701.701c.1.101.1.301.1.501 0 .401-.1.701-.401 1.001-.3.301-.6.401-1.001.401-.501 0-1.102-.3-1.602-.901-.501-.601-1.102-1.502-1.603-2.604-.5-1.101-.7-1.702-.7-1.802h-.101c-.4 0-1.201.1-2.603.4-1.302.301-2.404.501-3.205.801-.2.1-.4.1-.5.1-.301-.1-.501-.2-.601-.3zm6.108-3.305c-.2-.4-.701-1.902-1.502-4.406-.1-.2-.1-.4-.2-.4l-3.004 5.708c.4-.1.901-.1 1.402-.201.3 0 1.101-.2 2.403-.4.3-.2.601-.2.901-.301zm20.629 3.005c.501 0 .802.3.802.801 0 .601-.802 1.402-2.304 2.403-1.602.901-3.104 1.402-4.506 1.402-1.302 0-2.503-.4-3.505-1.302-1.101-.801-1.602-2.103-1.602-3.705 0-1.602.601-3.505 1.702-5.507a15.437 15.437 0 014.206-4.907c1.703-1.302 3.305-1.903 4.907-1.903.901 0 1.702.3 2.303.801.601.601.801 1.202.801 2.003 0 .801-.1 1.402-.2 1.802-.1.401-.401.701-.801.902-.401.3-.801.4-1.001.4-.301 0-.501-.1-.701-.3-.201-.2-.301-.401-.301-.801 0-.201.1-.601.2-1.002.101-.4.201-.801.201-1.101 0-.501-.201-.701-.501-.701-1.001 0-2.203.501-3.405 1.602-1.302 1.102-2.303 2.403-3.304 4.106-.902 1.602-1.302 3.004-1.302 4.306 0 .801.2 1.502.701 2.103.501.601 1.202.801 2.103.801.5 0 1.201-.1 2.003-.401a10.1 10.1 0 002.303-1.201c.5-.301 1.001-.601 1.201-.601zm18.626-9.414l-3.304.201c-1.102.1-2.103.2-2.904.3-.801.1-1.302.2-1.302.301-.1.1-.1.3-.1.6 0 .401-.201 1.002-.401 1.903-.2.701-.3 1.202-.3 1.702.5 0 1.101 0 1.902-.1.802-.1 1.402-.2 1.803-.3 1.001-.2 1.802-.401 2.403-.401 1.102 0 1.703.301 1.703 1.002 0 .5-.201.801-.501 1.001-.301.2-.801.3-1.502.401-.401 0-.901.1-1.402.2-.301 0-.601.1-1.002.1-2.002.2-3.104.401-3.504.501-.101 0-.201.1-.301.2-.1.1-.2.701-.3 1.602-.201.901-.2 1.602-.2 1.903 0 .3.2.4.5.4.301 0 1.202-.1 2.704-.3 1.402-.2 2.303-.3 2.704-.401 1.001-.2 1.602-.3 1.902-.3.902.1 1.302.501 1.302 1.202 0 .3-.1.601-.3.701-.701.3-1.703.5-2.904.601-1.002.1-2.103.2-3.505.4-1.202.301-2.404.401-3.505.401-.601 0-1.001-.1-1.202-.401-.3-.2-.4-.601-.5-1.101v-.301c0-.1.1-.3.2-.601.3-.901.601-2.804 1.001-5.808.401-3.004.601-4.706.601-5.007l-.1-.1s-.1-.2-.3-.4c-.101-.201-.201-.501-.201-.701v-.301c0-.1.201-.3.501-.4.3-.101.501-.201.801-.201.3 0 .701 0 1.001.1.601 0 2.504-.2 5.708-.6 1.102-.101 1.603-.201 1.703-.201h.1c1.302-.1 1.903.301 1.903 1.202 0 .2-.101.401-.301.601-.2.1-.4.3-.601.4z" fill="#000"/><path d="M357.364 343.756l-114.247 46.185 249.348 132.031L592 488.836l-234.636-145.08z" fill="url(#paint0_linear)"/><path d="M189 367.808l97.999-31.728 303.466 41.067.767 112.457-99.406 32.368V408.876l-204.699-27.763v66.655L189 480.136V367.808z" fill="#F5F9FF"/><path d="M466.982 368.906c0 3.413-26.293 6.273-58.768 6.273-32.474 0-58.767-2.767-58.767-6.273 0-3.414 26.293-6.181 58.767-6.181 32.475-.092 58.768 2.675 58.768 6.181z" fill="#C4D1E6" fill-opacity=".3"/><path d="M324.169 204.689h163.848c2.768 0 5.351 1.107 7.289 3.044 1.937 1.938 3.044 4.521 3.044 7.289v99.176H313.099v-98.531c0-1.476.276-2.86.83-4.243.553-1.292 1.384-2.584 2.399-3.598a10.681 10.681 0 013.598-2.399c1.383-.461 2.767-.738 4.243-.738z" fill="#1B314C"/><path d="M481.744 330.804h-152.04c-4.428 0-8.58-1.753-11.716-4.89-3.137-3.137-4.89-7.38-4.89-11.716H498.35c0 2.214-.462 4.336-1.292 6.365-.83 2.03-2.03 3.875-3.598 5.351a17.06 17.06 0 01-5.351 3.598c-2.029.831-4.244 1.292-6.365 1.292z" fill="#71A0DD"/><path d="M422.422 330.804H388.84v27.954h33.582v-27.954z" fill="#0E518E"/><path d="M422.422 330.804H388.84v8.857h33.582v-8.857z" fill="#0A3D76"/><path d="M375.556 358.758h60.059c2.306 0 4.613.922 6.274 2.583 1.66 1.66 2.583 3.875 2.583 6.273v1.845h-77.68v-1.845c0-2.306.922-4.613 2.583-6.273 1.568-1.661 3.874-2.583 6.181-2.583z" fill="#71A0DD"/><path d="M320.294 249.433v51.295c0 .738.277 1.476.83 2.03.554.553 1.292.83 2.03.83h82.108l-84.968-73.436v19.281z" fill="#223C49"/><path d="M486.817 212.715H323.246a2.915 2.915 0 00-2.952 2.952v85.061a2.914 2.914 0 002.952 2.952h163.571c1.661 0 2.953-1.291 2.953-2.952v-85.061c0-1.66-1.384-2.952-2.953-2.952z" fill="url(#paint1_linear)"/><path opacity=".3" d="M410.152 321.947c0 1.015-.276 2.03-.922 2.952-.554.831-1.384 1.569-2.399 1.938-.922.369-2.029.461-3.044.277-1.015-.185-1.938-.738-2.676-1.476-.738-.739-1.199-1.661-1.476-2.676a5.756 5.756 0 01.277-3.044c.369-.923 1.107-1.753 1.937-2.307.831-.553 1.846-.922 2.953-.922.645 0 1.383.092 2.029.369.646.276 1.2.645 1.661 1.107.461.461.83 1.107 1.107 1.66.461.738.553 1.384.553 2.122z" fill="#000"/><path d="M484.88 215.575H325.553c-.831 0-1.476.646-1.476 1.476v7.934c0 .831.645 1.476 1.476 1.476H484.88c.831 0 1.476-.645 1.476-1.476v-7.934c0-.738-.645-1.476-1.476-1.476zm-81.278 17.068h-78.511c-.83 0-1.476.738-1.476 1.568v49.726c0 .831.646 1.569 1.476 1.569h78.511c.83 0 1.476-.738 1.476-1.569v-49.726c0-.923-.646-1.568-1.476-1.568zm37.733 2.583H410.89c-.369 0-.738.369-.738.738v1.476c0 .369.369.738.738.738h30.445c.369 0 .738-.369.738-.738v-1.476c0-.369-.369-.738-.738-.738zm19.374 7.38H410.89c-.369 0-.738.369-.738.738v1.015c0 .369.369.738.738.738h49.819c.369 0 .738-.369.738-.738v-1.015c0-.461-.277-.738-.738-.738zm0 4.429H410.89c-.369 0-.738.369-.738.738v1.015c0 .369.369.738.738.738h49.819c.369 0 .738-.369.738-.738v-1.015c0-.461-.277-.738-.738-.738zm0 4.336H410.89c-.369 0-.738.369-.738.738v1.015c0 .369.369.738.738.738h49.819c.369 0 .738-.369.738-.738v-1.015a.728.728 0 00-.738-.738zm-60.06 42.161c.831 0 1.477-.646 1.477-1.476s-.646-1.476-1.477-1.476c-.83 0-1.476.646-1.476 1.476s.646 1.476 1.476 1.476z" fill="#B4D1FA"/><path opacity=".5" d="M404.986 293.532c.83 0 1.476-.646 1.476-1.476s-.646-1.476-1.476-1.476-1.476.646-1.476 1.476c.092.83.738 1.476 1.476 1.476zm4.428 0c.83 0 1.476-.646 1.476-1.476s-.646-1.476-1.476-1.476-1.476.646-1.476 1.476.646 1.476 1.476 1.476z" fill="#B4D1FA"/><path d="M418.178 311.799l-46.958-90.688h124.085v90.688h-77.127z" fill="#D0E4FF" fill-opacity=".2"/><path d="M286.999 447.768L189 480.136V367.68l97.999 13.689v66.399zm204.827-38.892l99.535-30.321v110.921l-99.535 32.495V408.876z" fill="#E1E7F0"/><path d="M210.2 153.4l4.3 4.3m-19.3-19.2l8 8m5.6-7l30.3 30m-45.7-45.4l6.1 6.2" stroke="#71A0DD" stroke-width="1.655" stroke-miterlimit="10" stroke-linecap="round" stroke-linejoin="round"/><path d="M230.5 148.5l26.6 26.5" stroke="url(#paint2_linear)" stroke-width="1.655" stroke-miterlimit="10" stroke-linecap="round" stroke-linejoin="round"/><path d="M190.4 108.5l28.3 28.2" stroke="url(#paint3_linear)" stroke-width="1.655" stroke-miterlimit="10" stroke-linecap="round" stroke-linejoin="round"/><path d="M212.6 118.1l47 46.7m-66.4-66l9.9 9.9m48.3 35.4l11.3 11.3M182 75l57.5 57.3" stroke="#71A0DD" stroke-width="1.655" stroke-miterlimit="10" stroke-linecap="round" stroke-linejoin="round"/><path d="M228.2 108.4l56.2 56" stroke="url(#paint4_linear)" stroke-width="1.655" stroke-miterlimit="10" stroke-linecap="round" stroke-linejoin="round"/><path d="M203.3 83.7l13.1 13" stroke="url(#paint5_linear)" stroke-width="1.655" stroke-miterlimit="10" stroke-linecap="round" stroke-linejoin="round"/><path d="M239 106.6l36.3 36.2m-73.4-73l26.9 26.7" stroke="#71A0DD" stroke-width="1.655" stroke-miterlimit="10" stroke-linecap="round" stroke-linejoin="round"/><path d="M269 123.9l19 18.8" stroke="url(#paint6_linear)" stroke-width="1.655" stroke-miterlimit="10" stroke-linecap="round" stroke-linejoin="round"/><path d="M218.4 73.5l36.9 36.7" stroke="url(#paint7_linear)" stroke-width="1.655" stroke-miterlimit="10" stroke-linecap="round" stroke-linejoin="round"/><path d="M250.6 93.1l25.6 25.5M221.4 64l19.2 19.1" stroke="#71A0DD" stroke-width="1.655" stroke-miterlimit="10" stroke-linecap="round" stroke-linejoin="round"/><path d="M273.4 103.1l9.9 10" stroke="url(#paint8_linear)" stroke-width="1.655" stroke-miterlimit="10" stroke-linecap="round" stroke-linejoin="round"/><path d="M236.8 66.6L262 91.8" stroke="url(#paint9_linear)" stroke-width="1.655" stroke-miterlimit="10" stroke-linecap="round" stroke-linejoin="round"/><path d="M268.2 85.4l6.1 6.2m-16.8-16.9l4.3 4.3" stroke="#71A0DD" stroke-width="1.655" stroke-miterlimit="10" stroke-linecap="round" stroke-linejoin="round"/><path d="M6.2 151c-1.1 1.2-3 1.4-4.2.3-1.2-1.1-1.4-3-.3-4.2 1.1-1.2 3-1.4 4.2-.3 1.3 1.2 1.4 3.1.3 4.2z" fill="#F985A0"/><path d="M19.3 162.5c-1.1 1.2-3 1.4-4.2.3-1.2-1.1-1.4-3-.3-4.2 1.1-1.2 3-1.4 4.2-.3 1.3 1.2 1.4 3.1.3 4.2z" fill="#71A0DD"/><path d="M45.3 185.5c-1.1 1.2-3 1.4-4.2.3-1.2-1.1-1.4-3-.3-4.2 1.1-1.2 3-1.4 4.2-.3 1.3 1.1 1.4 2.9.3 4.2z" fill="#F985A0"/><path d="M58.4 197c-1.1 1.2-3 1.4-4.2.3-1.2-1.1-1.4-3-.3-4.2 1.1-1.2 3-1.4 4.2-.3 1.2 1.1 1.4 2.9.3 4.2z" fill="#71A0DD"/><path d="M29.8 150.9c-1.1 1.2-3 1.4-4.2.3-1.2-1.1-1.4-3-.3-4.2 1.1-1.2 3-1.4 4.2-.3 1.3 1.1 1.4 2.9.3 4.2zm13 11.5c-1.1 1.2-3 1.4-4.2.3-1.2-1.1-1.4-3-.3-4.2 1.1-1.2 3-1.4 4.2-.3 1.2 1 1.4 2.9.3 4.2z" fill="#F985A0"/><path d="M55.8 173.8c-1.1 1.2-3 1.4-4.2.3-1.2-1.1-1.4-3-.3-4.2 1.1-1.2 3-1.4 4.2-.3 1.2 1.1 1.4 3 .3 4.2zm-15.5-34.7c-1.1 1.2-3 1.4-4.2.3-1.2-1.1-1.4-3-.3-4.2 1.1-1.2 3-1.4 4.2-.3 1.3 1.1 1.4 3 .3 4.2z" fill="#71A0DD"/><path d="M53.3 150.6c-1.1 1.2-3 1.4-4.2.3-1.2-1.1-1.4-3-.3-4.2 1.1-1.2 3-1.4 4.2-.3 1.3 1.1 1.4 3 .3 4.2zm13 11.5c-1.1 1.2-3 1.4-4.2.3-1.2-1.1-1.4-3-.3-4.2 1.1-1.2 3-1.4 4.2-.3 1.3 1.1 1.4 2.9.3 4.2zm13.1 11.5c-1.1 1.2-3 1.4-4.2.3-1.2-1.1-1.4-3-.3-4.2 1.1-1.2 3-1.4 4.2-.3 1.3 1.1 1.4 2.9.3 4.2z" fill="#F985A0"/><path d="M37.8 115.9c-1.1 1.2-3 1.4-4.2.3-1.2-1.1-1.4-3-.3-4.2 1.1-1.2 3-1.4 4.2-.3 1.2 1.2 1.4 3.1.3 4.2z" fill="#71A0DD"/><path d="M63.8 138.9c-1.1 1.2-3 1.4-4.2.3-1.2-1.1-1.4-3-.3-4.2 1.1-1.2 3-1.4 4.2-.3 1.3 1.1 1.4 2.9.3 4.2z" fill="#F985A0"/><path d="M76.8 150.3c-1.1 1.2-3 1.4-4.2.3-1.2-1.1-1.4-3-.3-4.2 1.1-1.2 3-1.4 4.2-.3 1.3 1.1 1.4 3 .3 4.2z" fill="#71A0DD"/><path d="M715.9 147.1c.4-.4 1.1-.4 1.6 0 .4.4.4 1.1 0 1.6-.4.4-1.1.4-1.6 0-.4-.5-.4-1.1 0-1.6zM703.7 135c.4-.4 1.1-.4 1.6 0 .4.4.4 1.1 0 1.6-.4.4-1.1.4-1.6 0-.4-.5-.4-1.2 0-1.6zm-11.3-10.3c.6 0 1.1-.5 1.1-1.1 0-.6-.5-1.1-1.1-1.1-.6 0-1.1.5-1.1 1.1 0 .6.5 1.1 1.1 1.1zm-12.2-12.1c.6 0 1.1-.5 1.1-1.1 0-.6-.5-1.1-1.1-1.1-.6 0-1.1.5-1.1 1.1 0 .6.5 1.1 1.1 1.1zm-12.1-12.2c.6 0 1.1-.5 1.1-1.1 0-.6-.5-1.1-1.1-1.1-.6 0-1.1.5-1.1 1.1 0 .6.5 1.1 1.1 1.1zm59.4 37.8c.6 0 1.1-.5 1.1-1.1 0-.6-.5-1.1-1.1-1.1-.6 0-1.1.5-1.1 1.1 0 .6.5 1.1 1.1 1.1zM715.3 126c.6 0 1.1-.5 1.1-1.1 0-.6-.5-1.1-1.1-1.1-.6 0-1.1.5-1.1 1.1 0 .6.5 1.1 1.1 1.1zm-12.9-14c.4-.4 1.1-.4 1.6 0 .4.4.4 1.1 0 1.6-.4.4-1.1.4-1.6 0-.3-.5-.3-1.2 0-1.6zm-12.1-12.1c.4-.4 1.1-.4 1.6 0 .4.4.4 1.1 0 1.6s-1.1.4-1.6 0-.4-1.2 0-1.6zm-12.1-12.2c.4-.4 1.1-.4 1.6 0 .4.4.4 1.1 0 1.6-.4.4-1.1.4-1.6 0-.4-.5-.4-1.1 0-1.6zm60.1 39.6c.6 0 1.1-.5 1.1-1.1 0-.6-.5-1.1-1.1-1.1-.6 0-1.1.5-1.1 1.1 0 .6.5 1.1 1.1 1.1zm-12.9-14c.4-.4 1.1-.4 1.6 0 .4.4.4 1.1 0 1.6-.4.4-1.1.4-1.6 0-.4-.5-.4-1.2 0-1.6zm-12.1-12.1c.4-.4 1.1-.4 1.6 0 .4.4.4 1.1 0 1.6-.4.4-1.1.4-1.6 0-.4-.5-.4-1.2 0-1.6zM701.2 89c.4-.4 1.1-.4 1.6 0 .4.4.4 1.1 0 1.6-.4.4-1.1.4-1.6 0-.5-.5-.5-1.2 0-1.6zM689 76.9c.4-.4 1.1-.4 1.6 0 .4.4.4 1.1 0 1.6-.4.4-1.1.4-1.6 0-.4-.5-.4-1.2 0-1.6zm59.4 37.7c.4-.4 1.1-.4 1.6 0 .4.4.4 1.1 0 1.6-.4.4-1.1.4-1.6 0-.4-.5-.4-1.2 0-1.6zm-12.1-12.2c.4-.4 1.1-.4 1.6 0 .4.4.4 1.1 0 1.6-.4.4-1.1.4-1.6 0-.4-.4-.4-1.1 0-1.6zm-11.4-10.2c.6 0 1.1-.5 1.1-1.1 0-.6-.5-1.1-1.1-1.1-.6 0-1.1.5-1.1 1.1 0 .6.5 1.1 1.1 1.1zm-12.1-12.1c.6 0 1.1-.5 1.1-1.1 0-.6-.5-1.1-1.1-1.1-.6 0-1.1.5-1.1 1.1 0 .6.5 1.1 1.1 1.1zm-12.1-12.2c.6 0 1.1-.5 1.1-1.1 0-.6-.5-1.1-1.1-1.1-.6 0-1.1.5-1.1 1.1 0 .6.4 1.1 1.1 1.1zm59.4 37.7c.6 0 1.1-.5 1.1-1.1 0-.6-.5-1.1-1.1-1.1-.6 0-1.1.5-1.1 1.1-.1.6.4 1.1 1.1 1.1zm-12.2-12.1c.6 0 1.1-.5 1.1-1.1 0-.6-.5-1.1-1.1-1.1-.6 0-1.1.5-1.1 1.1 0 .6.5 1.1 1.1 1.1zM735 79.4c.4-.4 1.1-.4 1.6 0 .4.4.4 1.1 0 1.6-.4.4-1.1.4-1.6 0s-.5-1.1 0-1.6zm-12.1-12.1c.4-.4 1.1-.4 1.6 0 .4.4.4 1.1 0 1.6-.4.4-1.1.4-1.6 0s-.5-1.2 0-1.6zm-12.2-12.1c.4-.4 1.1-.4 1.6 0 .4.4.4 1.1 0 1.6-.4.4-1.1.4-1.6 0-.4-.5-.4-1.2 0-1.6zm60.2 39.6c.6 0 1.1-.5 1.1-1.1 0-.6-.5-1.1-1.1-1.1-.6 0-1.1.5-1.1 1.1 0 .6.5 1.1 1.1 1.1zM758 80.7c.4-.4 1.1-.4 1.6 0 .4.4.4 1.1 0 1.6-.4.4-1.1.4-1.6 0-.5-.5-.5-1.1 0-1.6zm-12.2-12.1c.4-.4 1.1-.4 1.6 0s.4 1.1 0 1.6c-.4.4-1.1.4-1.6 0-.4-.5-.4-1.1 0-1.6zm-11.3-10.3c.6 0 1.1-.5 1.1-1.1 0-.6-.5-1.1-1.1-1.1-.6 0-1.1.5-1.1 1.1 0 .6.5 1.1 1.1 1.1zm-12.9-14c.4-.4 1.1-.4 1.6 0 .4.4.4 1.1 0 1.6-.4.4-1.1.4-1.6 0s-.5-1.1 0-1.6z" fill="#0A3D76"/><defs><linearGradient id="paint0_linear" x1="313.544" y1="365.494" x2="653.301" y2="606.679" gradientUnits="userSpaceOnUse"><stop offset=".173" stop-color="#B4D1FA" stop-opacity="0"/><stop offset="1" stop-opacity=".2"/></linearGradient><linearGradient id="paint1_linear" x1="458.667" y1="301.724" x2="272.874" y2="150.789" gradientUnits="userSpaceOnUse"><stop stop-color="#8FB1DB"/><stop offset="1" stop-color="#71A0DD"/></linearGradient><linearGradient id="paint2_linear" x1="256.26" y1="162.006" x2="231.292" y2="161.469" gradientUnits="userSpaceOnUse"><stop stop-color="#A62E41"/><stop offset="1" stop-color="#E13152"/></linearGradient><linearGradient id="paint3_linear" x1="217.852" y1="122.937" x2="191.224" y2="122.363" gradientUnits="userSpaceOnUse"><stop stop-color="#A62E41"/><stop offset="1" stop-color="#E13152"/></linearGradient><linearGradient id="paint4_linear" x1="282.576" y1="136.956" x2="229.804" y2="135.819" gradientUnits="userSpaceOnUse"><stop stop-color="#A62E41"/><stop offset="1" stop-color="#E13152"/></linearGradient><linearGradient id="paint5_linear" x1="215.97" y1="90.326" x2="203.659" y2="90.059" gradientUnits="userSpaceOnUse"><stop stop-color="#A62E41"/><stop offset="1" stop-color="#E13152"/></linearGradient><linearGradient id="paint6_linear" x1="287.411" y1="133.54" x2="269.566" y2="133.154" gradientUnits="userSpaceOnUse"><stop stop-color="#A62E41"/><stop offset="1" stop-color="#E13152"/></linearGradient><linearGradient id="paint7_linear" x1="254.099" y1="92.251" x2="219.448" y2="91.504" gradientUnits="userSpaceOnUse"><stop stop-color="#A62E41"/><stop offset="1" stop-color="#E13152"/></linearGradient><linearGradient id="paint8_linear" x1="283.055" y1="108.207" x2="273.718" y2="108.007" gradientUnits="userSpaceOnUse"><stop stop-color="#A62E41"/><stop offset="1" stop-color="#E13152"/></linearGradient><linearGradient id="paint9_linear" x1="261.232" y1="79.495" x2="237.509" y2="78.984" gradientUnits="userSpaceOnUse"><stop stop-color="#A62E41"/><stop offset="1" stop-color="#E13152"/></linearGradient></defs></svg>