<svg width="73" height="127" fill="none" xmlns="http://www.w3.org/2000/svg"><path d="M72.988 10.13l-7.009 110.504a6.715 6.715 0 01-.69 2.567 6.802 6.802 0 01-1.636 2.109 6.906 6.906 0 01-2.333 1.329 6.977 6.977 0 01-2.672.346l-47.958-2.946a6.95 6.95 0 01-4.753-2.278 6.75 6.75 0 01-1.73-4.921l7.01-110.504a6.717 6.717 0 011.905-4.265A6.905 6.905 0 0117.375.032a5.584 5.584 0 011.196 0l8.372.519a1.949 1.949 0 011.332.642 1.892 1.892 0 01.474 1.384c-.033.51.14 1.01.48 1.394.34.384.822.62 1.338.657l23.405 1.39a1.976 1.976 0 001.41-.487 1.923 1.923 0 00.647-1.328c.037-.504.273-.974.657-1.309a1.98 1.98 0 011.4-.482l8.372.519c.91.048 1.8.273 2.62.66.822.39 1.557.934 2.163 1.603a6.79 6.79 0 011.374 2.296c.3.848.426 1.745.373 2.64z" fill="#B4D1FA"/><g filter="url(#filter0_d)"><path d="M5.656 13.394L3.539 42.17a2.324 2.324 0 00.558 1.755 2.396 2.396 0 001.667.826l50.23 3.334a2.425 2.425 0 001.738-.58 2.332 2.332 0 00.81-1.623l1.853-29.411a2.334 2.334 0 00-.572-1.697c-.41-.47-.99-.762-1.616-.813L8.179 11.214a2.414 2.414 0 00-1.714.581 2.344 2.344 0 00-.809 1.6z" fill="#8FB1DB"/></g><g filter="url(#filter1_d)"><path d="M2.703 50.383l-.275 2.356a1.162 1.162 0 00.267.885 1.192 1.192 0 00.833.423l52.455 3.535c.308.02.611-.078.848-.273.236-.196.386-.473.42-.776l.167-2.356a1.161 1.161 0 00-.29-.858 1.193 1.193 0 00-.822-.403L3.97 49.38c-.3-.021-.598.07-.833.256s-.39.452-.434.745z" fill="#8FB1DB"/></g><g filter="url(#filter2_d)"><path d="M2.283 57.581l-.275 2.357a1.161 1.161 0 00.267.885 1.192 1.192 0 00.833.423l52.455 3.535c.315.02.626-.085.863-.29.238-.206.383-.495.405-.806l.167-2.356a1.162 1.162 0 00-.29-.858 1.194 1.194 0 00-.822-.403L3.55 56.533a1.207 1.207 0 00-.847.273 1.173 1.173 0 00-.42.776z" fill="#8FB1DB"/></g><defs><filter id="filter0_d" x="1.528" y="9.211" width="64.873" height="44.879" filterUnits="userSpaceOnUse" color-interpolation-filters="sRGB"><feFlood flood-opacity="0" result="BackgroundImageFix"/><feColorMatrix in="SourceAlpha" values="0 0 0 0 0 0 0 0 0 0 0 0 0 0 0 0 0 0 127 0"/><feOffset dx="2" dy="2"/><feGaussianBlur stdDeviation="2"/><feColorMatrix values="0 0 0 0 0.555729 0 0 0 0 0.660379 0 0 0 0 0.808333 0 0 0 0.2 0"/><feBlend in2="BackgroundImageFix" result="effect1_dropShadow"/><feBlend in="SourceGraphic" in2="effect1_dropShadow" result="shape"/></filter><filter id="filter1_d" x=".42" y="47.378" width="63.001" height="16.207" filterUnits="userSpaceOnUse" color-interpolation-filters="sRGB"><feFlood flood-opacity="0" result="BackgroundImageFix"/><feColorMatrix in="SourceAlpha" values="0 0 0 0 0 0 0 0 0 0 0 0 0 0 0 0 0 0 127 0"/><feOffset dx="2" dy="2"/><feGaussianBlur stdDeviation="2"/><feColorMatrix values="0 0 0 0 0.555729 0 0 0 0 0.660379 0 0 0 0 0.808333 0 0 0 0.2 0"/><feBlend in2="BackgroundImageFix" result="effect1_dropShadow"/><feBlend in="SourceGraphic" in2="effect1_dropShadow" result="shape"/></filter><filter id="filter2_d" x="0" y="54.53" width="63.001" height="16.253" filterUnits="userSpaceOnUse" color-interpolation-filters="sRGB"><feFlood flood-opacity="0" result="BackgroundImageFix"/><feColorMatrix in="SourceAlpha" values="0 0 0 0 0 0 0 0 0 0 0 0 0 0 0 0 0 0 127 0"/><feOffset dx="2" dy="2"/><feGaussianBlur stdDeviation="2"/><feColorMatrix values="0 0 0 0 0.555729 0 0 0 0 0.660379 0 0 0 0 0.808333 0 0 0 0.2 0"/><feBlend in2="BackgroundImageFix" result="effect1_dropShadow"/><feBlend in="SourceGraphic" in2="effect1_dropShadow" result="shape"/></filter></defs></svg>