<svg width="225" height="216" fill="none" xmlns="http://www.w3.org/2000/svg"><g filter="url(#filter0_f)"><path d="M52.457 86L2 97.414l65.12 82.787 34.998 10.689L142 198 52.457 86z" fill="url(#paint0_linear)"/></g><path d="M142.615 50.07c-.357-1.608-.981-3.038-1.784-4.467-.982-1.787-2.41-4.11-4.016-5.629-.803-.804-1.695-1.34-2.409-1.519-.803-.179-1.695-.09-2.32.626-.357.268-.625.714-.892 1.34-.268.536-.447 1.25-.714 2.055-.357 1.519-.625 3.395-.714 5.271-.268 3.752-.179 7.594-.179 8.934 0 .358 0 .805-.089 1.162-.714 3.574-4.551 23.23-12.225 35.916-1.963 3.217-3.033 7.505-3.747 12.419-.714 4.825-.803 10.186-.714 15.368.178 10.364 1.517 19.834 2.052 23.14.089.804.089 1.697 0 2.501 0 .269-.089.537-.089.805-.446 2.68-1.071 7.058-3.659 13.491-2.766 7.058-8.03 16.707-17.668 29.305-1.249 1.608-2.141 3.841-2.498 6.164-.446 2.323-.535 4.736-.178 6.791.624 3.663 3.39 8.041 9.726 10.096 6.335 2.054 16.062 1.786 30.606-3.753 7.674-2.859 14.188-8.398 18.114-15.814 1.339-2.144 2.053-4.646 2.142-7.148 0-2.054.535-5.003 1.517-7.951.981-3.038 2.231-6.076 3.926-8.667.625-.982 1.249-2.055 1.963-3.216l.089-.179c.714-1.161 1.428-2.412 2.142-3.573 1.517-2.323 3.123-4.557 5.086-6.076 4.373-3.395 10.262-8.488 14.991-13.759 2.409-2.591 4.64-5.271 6.246-7.773 1.607-2.502 2.588-4.735 2.767-6.611.089-1.073.713-2.323 1.606-3.664.446-.625.892-1.25 1.338-1.965.09-.089.09-.179.179-.179l1.606-2.412c2.141-3.395 4.015-7.326 3.212-11.972 0-.268-.089-.447 0-.626 0-.178.089-.268.179-.357.089-.089.178-.089.357-.089.178 0 .267 0 .446.089.357.089.803.268 1.338.536 0 0 .09 0 .09.089.446.179.981.447 1.606.626 1.249.446 2.587.804 4.015.625 1.428-.179 2.766-.893 4.016-2.68.535-2.949-.804-5.093-2.588-6.969-.892-.893-1.874-1.698-2.766-2.502l-.09-.09c-.981-.803-1.873-1.518-2.409-2.233-3.748-4.288-8.477-7.147-11.778-9.113l-.09-.09c-.803-.446-1.517-.893-2.141-1.25-.625-.357-1.16-.715-1.428-1.072-.357-.358-.535-.626-.446-.894 0-.268.268-.536.803-.804l11.689.358.09.089c.089.09.178.268.357.536.446.536 1.249 1.608 2.587 3.663.446.536.893 1.34 1.339 2.234.178.357.446.804.714 1.161.803 1.34 1.784 2.86 2.944 4.289 2.499 2.77 6.336 5.003 12.671 4.467.089-.09.268-.179.357-.268.089-.09.268-.179.357-.268.268-.179.446-.447.535-.983a5.94 5.94 0 000-1.787v-.446c-.089-1.52-.981-3.038-2.141-4.646-.268-.358-.446-.715-.714-.983-.982-1.43-2.052-2.949-2.855-4.646-4.016-6.522-8.656-10.364-10.797-11.794-3.57-1.34-5.533-2.59-6.425-3.484a4.786 4.786 0 01-.982-1.072c-.089-.09-.178-.268-.178-.268v-.179h.089c2.677-.178 5.532-.09 8.209.358 1.16.089 2.142.357 3.213.804L142.615 50.07zm0 0l65.229 19.298-65.229-19.298zm0 0l2.142 8.577-2.142-8.577zm0 0l2.142 8.577-2.142-8.577zm65.229 19.298c1.784.715 5.086 1.787 8.298 1.966 3.213.179 6.336-.536 7.764-3.484l-16.062 1.518zm0 0c3.569 1.34 13.385 4.468 16.151-1.518l-16.151 1.518zm16.062-1.518c.267-.537.267-1.162.178-1.698-.178-.536-.446-1.072-.892-1.43-1.874-1.518-5.354-4.377-8.924-7.058-1.784-1.34-3.48-2.59-5.086-3.663-1.517-1.072-2.766-1.876-3.658-2.233-.803-.358-1.963-.894-2.945-1.43-.535-.268-.981-.447-1.338-.625-.179-.09-.268-.18-.447-.18l-.089-.089 23.201 18.406zm.089 0l-79.149-9.292 79.149 9.292zm-79.149-9.292c0 .089 0 .089 0 0h.179c.089 0 .267-.09.446-.09.357-.089.981-.268 1.695-.536 1.428-.447 3.391-1.072 5.889-1.787 4.908-1.519 11.333-3.663 17.936-5.896 6.514-2.323 13.117-4.825 18.203-7.059 2.499-1.161 4.64-2.233 6.247-3.305.803-.536 1.427-.983 1.873-1.43.447-.447.803-.893.893-1.34l-53.361 21.443zm53.004-21.443c.624-2.591 2.766-5.182 5.354-7.416 2.409-2.233 5.264-4.11 6.871-5.182.357-.178 1.16-.536 1.873-.804.357-.09.804-.178 1.071-.268h.446c.09 0 .179.09.268.09 1.428 1.43 2.588 3.037 2.855 5.003.268 1.965-.267 4.288-2.23 7.237l-16.508 1.34zm16.329-1.25c-2.855 3.394-6.335 6.79-8.923 9.291-1.338 1.25-2.409 2.323-3.302 3.038-.446.357-.713.625-.981.893l-.268.268-.089.09 13.563-13.58zm-13.385 13.58c.09 0 .09 0 0 0 .447.178 3.391 1.697 4.819 2.322l-4.819-2.323zm.09 0c.624-.537 7.852-7.059 13.474-13.58l-13.474 13.58zm0 0l6.603-13.58 2.498-11.348c.625-.446 3.034-1.43 3.57-.893 2.855 2.948 4.64 6.343.624 12.33l-13.295 13.49z" fill="#F9C8A3" stroke="#795438" stroke-width=".081"/><path d="M223.906 67.85l-15.348 1.786c-.357 0-.893-.268-1.249-.357l-1.517-.447c-.09 0 .089 0 0 0l-4.016-.625-45.33-6.344c-4.015-.536-4.194-6.254-.267-7.147.178 0 .357-.09.535-.179l18.382-7.058c.089 0 .178-.09.268-.09l21.415-10.006c.268-.179.625-.357.803-.536l11.957-12.15c1.25-1.341 5.176 8.308 4.016 11.435 0 .09-4.819 5.272-4.908 5.36l-6.96 6.434c-.089.089-.803.625-.892.714-.357 1.162-1.874.447.981 1.698l20.613 15.635a2.676 2.676 0 011.517 1.877z" fill="#F9C8A3"/><path d="M143.873 23.768l-1.452 23.26c0 .388.194.68.581.68l1.162.096c.29 0 .58-.194.677-.582l1.452-23.26c0-.387-.193-.678-.581-.678l-1.161-.097c-.387-.097-.678.194-.678.581z" fill="url(#paint1_linear)"/><path d="M142.228 51.002l-.581 8.82c0 .387.194.678.581.678l1.161.097c.291 0 .581-.194.678-.581l.581-8.82c0-.388-.194-.678-.581-.678l-1.162-.097c-.387 0-.677.29-.677.581z" fill="url(#paint2_linear)"/><path d="M145.422 9.231l-7.356 119.886c-.291 5.331 3.678 9.886 8.808 10.177l48.688 3.101c5.227.291 9.679-3.683 10.067-9.013l7.356-119.887c.29-5.33-3.678-9.885-8.808-10.176L155.489.218c-5.227-.388-9.776 3.683-10.067 9.013z" fill="url(#paint3_linear)"/><path d="M156.263.993l47.139 3.004c2.517.194 4.743 1.357 6.389 3.296 1.645 1.938 2.419 4.36 2.323 6.88v1.358c.193-2.52-.678-5.04-2.323-6.978-1.646-1.939-3.969-3.102-6.486-3.199L156.166 2.35c-2.517-.194-4.936.678-6.775 2.326-1.84 1.647-3.001 4.07-3.195 6.59l.097-1.26c.097-1.26.387-2.52.968-3.683.581-1.163 1.355-2.132 2.226-3.004.871-.872 2.033-1.454 3.195-1.938 1.064-.291 2.323-.485 3.581-.388z" fill="url(#paint4_linear)"/><path d="M194.787 141.62l-47.042-3.005c-1.258-.097-2.42-.387-3.581-.969a9.645 9.645 0 01-2.904-2.229c-.775-.969-1.452-2.035-1.839-3.198-.387-1.163-.581-2.423-.484-3.683l.097-1.357c-.194 2.52.677 5.04 2.323 6.978 1.645 1.938 3.968 3.102 6.485 3.198l47.139 3.005c2.517.194 4.937-.679 6.872-2.423 1.84-1.648 3.001-4.071 3.195-6.59l-.097 1.356c-.097 1.26-.387 2.52-.968 3.683-.581 1.163-1.355 2.132-2.226 3.005a8.875 8.875 0 01-3.195 1.841c-1.258.291-2.516.485-3.775.388z" fill="url(#paint5_linear)"/><path d="M211.146 14.174l-7.26 118.336c-.096.969-.29 1.841-.677 2.713-.387.872-.968 1.648-1.743 2.229-.677.679-1.548 1.163-2.419 1.454-.872.291-1.84.388-2.807.388l-49.656-3.102c-.968-.097-1.839-.29-2.711-.678-.871-.388-1.645-.969-2.226-1.745-.581-.775-1.065-1.55-1.452-2.422-.29-.873-.387-1.842-.387-2.811l7.26-118.336a7.2 7.2 0 011.936-4.555c1.161-1.26 2.71-2.035 4.452-2.229a2.762 2.762 0 011.259 0l8.711.581c.29 0 .484.097.774.194.194.097.484.291.581.485.194.194.291.484.387.678.097.291.097.485.097.776 0 .581.097 1.066.484 1.453.387.388.871.679 1.355.679l24.296 1.55c.581 0 1.065-.193 1.452-.484.387-.388.677-.872.677-1.454 0-.29.097-.484.194-.775.097-.194.29-.485.484-.679.193-.193.387-.29.677-.387.291-.097.484-.097.775-.097l8.711.581a7.115 7.115 0 014.937 2.423c1.258 1.454 1.936 3.295 1.839 5.234z" fill="#B4D1FA"/><path d="M187.141 7.486l-15.391-.969c-.096 0-.193-.097-.29-.194-.097-.096-.097-.193-.097-.29v-.194c0-.097.097-.097.097-.097l.097-.097h.193l15.391.97h.193c.097 0 .097.096.097.096s.097.097.097.194v.388c0 .097-.097.097-.097.097l-.097.096h-.193z" fill="url(#paint6_linear)"/><path d="M168.557 6.614c.193 0 .29 0 .484-.097.096-.097.29-.194.29-.29.097-.097.097-.291.097-.485s-.097-.29-.194-.388c-.097-.097-.193-.194-.387-.29h-.484c-.194.096-.29.193-.387.29a.74.74 0 00-.194.485v.29c0 .098.097.194.194.291.097.097.193.097.193.194h.388z" fill="url(#paint7_linear)"/><path d="M190.142 7.971h.29c.097 0 .194-.097.29-.194.097-.097.194-.194.194-.29 0-.097.097-.194.097-.291v-.291c0-.097-.097-.194-.194-.29-.097-.098-.193-.098-.29-.195-.097 0-.194-.097-.291-.097h-.29c-.097 0-.194.097-.29.194-.097.097-.194.194-.194.291-.097.097-.097.194-.097.29v.292c0 .096.097.193.194.29.097.097.193.097.29.194.097.097.194.097.291.097z" fill="url(#paint8_linear)"/><path d="M149.391 19.116l-2.226 30.82c0 .29 0 .679.096.97.097.29.291.58.484.872.194.29.484.484.775.581.29.194.58.194.968.29l52.075 3.587c.291 0 .678 0 .968-.097.291-.097.581-.29.871-.485.291-.194.484-.484.581-.775.097-.29.194-.582.291-.97l1.935-31.4c0-.291 0-.679-.096-.97-.097-.29-.291-.581-.484-.872a1.506 1.506 0 00-.775-.581c-.29-.097-.58-.194-.968-.291l-51.785-2.908c-.677 0-1.258.194-1.742.582-.581.29-.871.97-.968 1.647zm-3.097 39.543l-.291 2.52v.484c.097.194.097.29.194.485.097.097.194.194.387.29.194.097.291.097.484.097l54.399 3.78c.193 0 .29 0 .484-.097.193-.097.29-.097.387-.29.097-.097.194-.194.29-.388.097-.194.097-.29.097-.485l.194-2.52c0-.193 0-.29-.097-.484s-.097-.29-.194-.388a1.319 1.319 0 00-.387-.29c-.193-.097-.29-.097-.484-.097l-54.302-3.78c-.29 0-.677.097-.871.29l-.29.873zm-1.066 20.934l-2.226 30.819c0 .291 0 .679.097.97.097.29.29.581.484.872.193.291.484.484.774.581.29.194.581.194.968.291l52.076 3.586c.29 0 .677 0 .968-.097.29-.097.58-.291.871-.484.29-.194.484-.485.581-.776.096-.291.193-.581.29-.969l1.936-31.401c0-.29 0-.678-.097-.97-.097-.29-.29-.58-.484-.871a1.507 1.507 0 00-.774-.582c-.291-.097-.581-.194-.968-.29l-51.786-2.908c-.677 0-1.258.194-1.742.581-.677.388-.968.97-.968 1.648zm-3.097 39.639l-.291 2.52v.484c.097.194.097.291.194.485.097.097.194.194.387.291.194.097.29.097.484.097l54.399 3.779c.193 0 .29 0 .484-.097.193-.096.29-.096.387-.29.097-.097.194-.194.29-.388.097-.194.097-.291.097-.485l.194-2.519c0-.194 0-.291-.097-.485s-.097-.291-.194-.388a1.318 1.318 0 00-.387-.29c-.193-.097-.29-.097-.484-.097l-54.302-3.78c-.29 0-.677.097-.871.291-.097.193-.29.581-.29.872z" fill="#8FB1DB"/><path d="M211.146 14.174l-5.614 92.265L153.456 3.416a2.758 2.758 0 011.258 0l8.712.581c.29 0 .484.097.774.194.194.097.484.291.581.485.194.194.29.484.387.678.097.291.097.485.097.776 0 .581.097 1.066.484 1.453.387.388.871.679 1.355.679l24.296 1.55a2.38 2.38 0 001.452-.484c.387-.388.677-.872.677-1.454 0-.29.097-.484.194-.775.097-.194.29-.485.484-.679.193-.193.387-.29.677-.387.291-.097.484-.097.775-.097l8.711.581c.968 0 1.839.291 2.71.679a5.591 5.591 0 012.227 1.744c.581.776 1.161 1.55 1.452 2.423.29.872.387 1.842.387 2.81z" fill="#D0E4FF" fill-opacity=".2"/><defs><linearGradient id="paint0_linear" x1="36.112" y1="94.561" x2="170.179" y2="277.607" gradientUnits="userSpaceOnUse"><stop stop-color="#B4D1FA" stop-opacity="0"/><stop offset="1" stop-opacity=".2"/></linearGradient><linearGradient id="paint1_linear" x1="143.548" y1="47.684" x2="145.077" y2="23.18" gradientUnits="userSpaceOnUse"><stop stop-color="gray"/><stop offset=".01" stop-color="#727272"/><stop offset=".06" stop-color="#4F4F4F"/><stop offset=".1" stop-color="#323232"/><stop offset=".15" stop-color="#1C1C1C"/><stop offset=".2" stop-color="#0C0C0C"/><stop offset=".26" stop-color="#030303"/><stop offset=".34"/><stop offset=".7"/><stop offset=".75" stop-color="#050505"/><stop offset=".8" stop-color="#131313"/><stop offset=".86" stop-color="#2A2A2A"/><stop offset=".92" stop-color="#4B4B4B"/><stop offset=".98" stop-color="#747474"/><stop offset="1" stop-color="gray"/></linearGradient><linearGradient id="paint2_linear" x1="128.975" y1="282.876" x2="130.15" y2="263.984" gradientUnits="userSpaceOnUse"><stop stop-color="gray"/><stop offset=".01" stop-color="#727272"/><stop offset=".06" stop-color="#4F4F4F"/><stop offset=".1" stop-color="#323232"/><stop offset=".15" stop-color="#1C1C1C"/><stop offset=".2" stop-color="#0C0C0C"/><stop offset=".26" stop-color="#030303"/><stop offset=".34"/><stop offset=".7"/><stop offset=".75" stop-color="#050505"/><stop offset=".8" stop-color="#131313"/><stop offset=".86" stop-color="#2A2A2A"/><stop offset=".92" stop-color="#4B4B4B"/><stop offset=".98" stop-color="#747474"/><stop offset="1" stop-color="gray"/></linearGradient><linearGradient id="paint3_linear" x1="210.954" y1="73.517" x2="140.355" y2="69.114" gradientUnits="userSpaceOnUse"><stop stop-color="#323232"/><stop offset=".03" stop-color="#1C1C1C"/><stop offset=".06" stop-color="#0C0C0C"/><stop offset=".1" stop-color="#030303"/><stop offset=".15"/><stop offset=".87"/><stop offset=".91" stop-color="#050505"/><stop offset=".95" stop-color="#131313"/><stop offset=".99" stop-color="#2A2A2A"/><stop offset="1" stop-color="#333"/></linearGradient><linearGradient id="paint4_linear" x1="179.668" y1="3.176" x2="179.966" y2="-1.782" gradientUnits="userSpaceOnUse"><stop/><stop offset=".16" stop-color="#050505"/><stop offset=".34" stop-color="#131313"/><stop offset=".53" stop-color="#2A2A2A"/><stop offset=".74" stop-color="#4B4B4B"/><stop offset=".95" stop-color="#747474"/><stop offset="1" stop-color="gray"/></linearGradient><linearGradient id="paint5_linear" x1="171.967" y1="128.717" x2="171.375" y2="140.407" gradientUnits="userSpaceOnUse"><stop/><stop offset=".16" stop-color="#050505"/><stop offset=".34" stop-color="#131313"/><stop offset=".53" stop-color="#2A2A2A"/><stop offset=".74" stop-color="#4B4B4B"/><stop offset=".95" stop-color="#747474"/><stop offset="1" stop-color="gray"/></linearGradient><linearGradient id="paint6_linear" x1="179.777" y1="1.471" x2="179.299" y2="9.126" gradientUnits="userSpaceOnUse"><stop/><stop offset=".14" stop-color="#050505"/><stop offset=".3" stop-color="#131313"/><stop offset=".47" stop-color="#2A2A2A"/><stop offset=".65" stop-color="#4B4B4B"/><stop offset=".83" stop-color="#747474"/><stop offset="1" stop-color="#A1A1A1"/></linearGradient><linearGradient id="paint7_linear" x1="168.587" y1="84.426" x2="168.587" y2="89.688" gradientUnits="userSpaceOnUse"><stop/><stop offset=".14" stop-color="#050505"/><stop offset=".3" stop-color="#131313"/><stop offset=".47" stop-color="#2A2A2A"/><stop offset=".65" stop-color="#4B4B4B"/><stop offset=".83" stop-color="#747474"/><stop offset="1" stop-color="#A1A1A1"/></linearGradient><linearGradient id="paint8_linear" x1="190.216" y1="86.348" x2="190.216" y2="91.646" gradientUnits="userSpaceOnUse"><stop/><stop offset=".14" stop-color="#050505"/><stop offset=".3" stop-color="#131313"/><stop offset=".47" stop-color="#2A2A2A"/><stop offset=".65" stop-color="#4B4B4B"/><stop offset=".83" stop-color="#747474"/><stop offset="1" stop-color="#A1A1A1"/></linearGradient><filter id="filter0_f" x="0" y="84" width="144" height="116" filterUnits="userSpaceOnUse" color-interpolation-filters="sRGB"><feFlood flood-opacity="0" result="BackgroundImageFix"/><feBlend in="SourceGraphic" in2="BackgroundImageFix" result="shape"/><feGaussianBlur stdDeviation="1" result="effect1_foregroundBlur"/></filter></defs></svg>