<svg width="225" height="216" viewBox="0 0 225 216" fill="none" xmlns="http://www.w3.org/2000/svg">
<g filter="url(#filter0_f)">
<path d="M52.4569 86L2 97.414L67.1208 180.201L102.118 190.89L142 198L52.4569 86Z" fill="url(#paint0_linear)"/>
</g>
<path d="M142.615 50.0699C142.258 48.4617 141.634 47.0322 140.831 45.6027C139.849 43.8158 138.421 41.4928 136.815 39.974C136.012 39.1699 135.12 38.6338 134.406 38.4551C133.603 38.2764 132.711 38.3658 132.086 39.0805C131.729 39.3486 131.461 39.7953 131.194 40.4207C130.926 40.9568 130.747 41.6715 130.48 42.4756C130.123 43.9945 129.855 45.8707 129.766 47.747C129.498 51.4994 129.587 55.3413 129.587 56.6814C129.587 57.0388 129.587 57.4855 129.498 57.8429C128.784 61.4167 124.947 81.0725 117.273 93.7594C115.31 96.9758 114.24 101.264 113.526 106.178C112.812 111.003 112.723 116.364 112.812 121.546C112.99 131.91 114.329 141.38 114.864 144.686C114.953 145.49 114.953 146.383 114.864 147.187C114.864 147.456 114.775 147.724 114.775 147.992C114.329 150.672 113.704 155.05 111.116 161.483C108.35 168.541 103.086 178.19 93.4485 190.788C92.1992 192.396 91.3069 194.629 90.95 196.952C90.5038 199.275 90.4146 201.688 90.7715 203.743C91.3961 207.406 94.1623 211.784 100.498 213.839C106.833 215.893 116.56 215.625 131.104 210.086C138.778 207.227 145.292 201.688 149.218 194.272C150.557 192.128 151.271 189.626 151.36 187.124C151.36 185.07 151.895 182.121 152.877 179.173C153.858 176.135 155.108 173.097 156.803 170.506C157.428 169.524 158.052 168.451 158.766 167.29L158.855 167.111C159.569 165.95 160.283 164.699 160.997 163.538C162.514 161.215 164.12 158.981 166.083 157.462C170.456 154.067 176.345 148.974 181.074 143.703C183.483 141.112 185.714 138.432 187.32 135.93C188.927 133.428 189.908 131.195 190.087 129.319C190.176 128.246 190.8 126.996 191.693 125.655C192.139 125.03 192.585 124.405 193.031 123.69C193.121 123.601 193.121 123.511 193.21 123.511C193.745 122.707 194.281 121.903 194.816 121.099C196.957 117.704 198.831 113.773 198.028 109.127C198.028 108.859 197.939 108.68 198.028 108.501C198.028 108.323 198.117 108.233 198.207 108.144C198.296 108.055 198.385 108.055 198.564 108.055C198.742 108.055 198.831 108.055 199.01 108.144C199.367 108.233 199.813 108.412 200.348 108.68C200.348 108.68 200.438 108.68 200.438 108.769C200.884 108.948 201.419 109.216 202.044 109.395C203.293 109.841 204.631 110.199 206.059 110.02C207.487 109.841 208.825 109.127 210.075 107.34C210.61 104.391 209.271 102.247 207.487 100.371C206.595 99.4775 205.613 98.6734 204.721 97.8693L204.631 97.7799C203.65 96.9758 202.758 96.2611 202.222 95.5463C198.474 91.2578 193.745 88.3987 190.444 86.4332L190.354 86.3438C189.551 85.8971 188.837 85.4504 188.213 85.093C187.588 84.7356 187.053 84.3782 186.785 84.0209C186.428 83.6635 186.25 83.3955 186.339 83.1274C186.339 82.8594 186.607 82.5913 187.142 82.3233L198.831 82.6807C198.831 82.6807 198.831 82.6807 198.921 82.77C199.01 82.8594 199.099 83.0381 199.278 83.3061C199.724 83.8422 200.527 84.9143 201.865 86.9692C202.311 87.5053 202.758 88.3094 203.204 89.2029C203.382 89.5602 203.65 90.007 203.918 90.3643C204.721 91.7045 205.702 93.2234 206.862 94.6529C209.361 97.4225 213.198 99.6562 219.533 99.1201C219.622 99.0307 219.801 98.9414 219.89 98.8521C219.979 98.7627 220.158 98.6734 220.247 98.584C220.515 98.4053 220.693 98.1373 220.782 97.6012C220.872 97.0652 220.872 96.4398 220.782 95.8143C220.782 95.6357 220.782 95.5463 220.782 95.3676C220.693 93.8488 219.801 92.3299 218.641 90.7217C218.373 90.3643 218.195 90.0069 217.927 89.7389C216.945 88.3094 215.875 86.7905 215.072 85.093C211.056 78.5708 206.416 74.729 204.275 73.2995C200.705 71.9593 198.742 70.7085 197.85 69.8151C197.314 69.3684 197.047 69.011 196.868 68.7429C196.779 68.6536 196.69 68.4749 196.69 68.4749V68.3856V68.2962H196.779C199.456 68.1175 202.311 68.2069 204.988 68.6536C206.148 68.7429 207.13 69.011 208.201 69.4577L142.615 50.0699ZM142.615 50.0699L207.844 69.3684L142.615 50.0699ZM142.615 50.0699L144.757 58.647L142.615 50.0699ZM142.615 50.0699L144.757 58.647L142.615 50.0699ZM207.844 69.3684C209.628 70.0831 212.93 71.1552 216.142 71.3339C219.355 71.5126 222.478 70.7979 223.906 67.8495L207.844 69.3684ZM207.844 69.3684C211.413 70.7085 221.229 73.8356 223.995 67.8495L207.844 69.3684ZM223.906 67.8495C224.173 67.3134 224.173 66.688 224.084 66.152C223.906 65.6159 223.638 65.0798 223.192 64.7224C221.318 63.2036 217.838 60.3446 214.268 57.6642C212.484 56.324 210.788 55.0732 209.182 54.0011C207.665 52.929 206.416 52.1249 205.524 51.7675C204.721 51.4101 203.561 50.874 202.579 50.338C202.044 50.0699 201.598 49.8912 201.241 49.7126C201.062 49.6232 200.973 49.5339 200.794 49.5339L200.705 49.4445L223.906 67.8495ZM223.995 67.8495L144.846 58.5577L223.995 67.8495ZM144.846 58.5577C144.846 58.647 144.846 58.647 144.846 58.5577H145.025C145.114 58.5577 145.292 58.4683 145.471 58.4683C145.828 58.379 146.452 58.2003 147.166 57.9323C148.594 57.4855 150.557 56.8601 153.055 56.1454C157.963 54.6265 164.388 52.4822 170.991 50.2486C177.505 47.9257 184.108 45.424 189.194 43.1904C191.693 42.0289 193.834 40.9568 195.441 39.8846C196.244 39.3486 196.868 38.9019 197.314 38.4551C197.761 38.0084 198.117 37.5617 198.207 37.115L144.846 58.5577ZM197.85 37.115C198.474 34.524 200.616 31.933 203.204 29.6994C205.613 27.4658 208.468 25.5895 210.075 24.5174C210.432 24.3387 211.235 23.9813 211.948 23.7133C212.305 23.6239 212.752 23.5346 213.019 23.4453C213.198 23.4453 213.287 23.4453 213.465 23.4453C213.555 23.4453 213.644 23.5346 213.733 23.5346C215.161 24.9641 216.321 26.5723 216.588 28.5379C216.856 30.5035 216.321 32.8264 214.358 35.7748L197.85 37.115ZM214.179 35.8641C211.324 39.2592 207.844 42.6543 205.256 45.156C203.918 46.4068 202.847 47.4789 201.954 48.1937C201.508 48.5511 201.241 48.8191 200.973 49.0871C200.884 49.1765 200.794 49.2658 200.705 49.3552L200.616 49.4445L214.179 35.8641ZM200.794 49.4445C200.884 49.4445 200.884 49.4445 200.794 49.4445C201.241 49.6232 204.185 51.1421 205.613 51.7675L200.794 49.4445ZM200.884 49.4445C201.508 48.9085 208.736 42.3863 214.358 35.8641L200.884 49.4445ZM200.884 49.4445L207.487 35.8641L209.985 24.5174C210.61 24.0707 213.019 23.0879 213.555 23.6239C216.41 26.5723 218.195 29.9674 214.179 35.9535L200.884 49.4445Z" fill="#F9C8A3" stroke="#795438" stroke-width="0.0805566"/>
<path d="M223.906 67.8495L208.558 69.6364C208.201 69.6364 207.665 69.3684 207.309 69.279L205.792 68.8323C205.702 68.8323 205.881 68.8323 205.792 68.8323L201.776 68.2069L156.446 61.8634C152.431 61.3274 152.252 55.6093 156.179 54.7159C156.357 54.7159 156.536 54.6265 156.714 54.5372L175.096 47.4789C175.185 47.4789 175.274 47.3896 175.364 47.3896L196.779 37.383C197.047 37.2043 197.404 37.0256 197.582 36.8469L209.539 24.6961C210.789 23.3559 214.715 33.0051 213.555 36.1322C213.555 36.2215 208.736 41.4035 208.647 41.4929L201.687 47.9257C201.598 48.015 200.884 48.5511 200.795 48.6404C200.438 49.8019 198.921 49.0872 201.776 50.338L222.389 65.9733C223.192 66.3307 223.727 67.0454 223.906 67.8495Z" fill="#F9C8A3"/>
<path d="M143.873 23.7685L142.421 47.0287C142.421 47.4163 142.615 47.7071 143.002 47.7071L144.164 47.804C144.454 47.804 144.744 47.6102 144.841 47.2225L146.293 23.9624C146.293 23.5747 146.1 23.284 145.712 23.284L144.551 23.187C144.164 23.0901 143.873 23.3809 143.873 23.7685Z" fill="url(#paint1_linear)"/>
<path d="M142.228 51.0023L141.647 59.8217C141.647 60.2094 141.841 60.5002 142.228 60.5002L143.389 60.5971C143.68 60.5971 143.97 60.4032 144.067 60.0156L144.648 51.1961C144.648 50.8084 144.454 50.5177 144.067 50.5177L142.905 50.4208C142.518 50.4208 142.228 50.7115 142.228 51.0023Z" fill="url(#paint2_linear)"/>
<path d="M145.422 9.23098L138.066 129.117C137.775 134.448 141.744 139.003 146.874 139.294L195.562 142.395C200.789 142.686 205.241 138.712 205.629 133.382L212.985 13.4953C213.275 8.1649 209.307 3.60979 204.177 3.31904L155.489 0.217691C150.262 -0.169978 145.713 3.90054 145.422 9.23098Z" fill="url(#paint3_linear)"/>
<path d="M156.263 0.993026L203.402 3.99746C205.919 4.19129 208.145 5.3543 209.791 7.29264C211.436 9.23098 212.21 11.6539 212.114 14.1738V15.5306C212.307 13.0108 211.436 10.4909 209.791 8.55256C208.145 6.61422 205.822 5.45122 203.305 5.3543L156.166 2.34987C153.649 2.15603 151.23 3.02829 149.391 4.67588C147.551 6.32347 146.39 8.7464 146.196 11.2662L146.293 10.0063C146.39 8.7464 146.68 7.48648 147.261 6.32347C147.842 5.16046 148.616 4.19129 149.487 3.31904C150.358 2.44679 151.52 1.86528 152.682 1.3807C153.746 1.08994 155.005 0.896109 156.263 0.993026Z" fill="url(#paint4_linear)"/>
<path d="M194.787 141.62L147.745 138.615C146.487 138.518 145.325 138.228 144.164 137.646C143.002 137.065 142.034 136.289 141.26 135.417C140.485 134.448 139.808 133.382 139.421 132.219C139.034 131.056 138.84 129.796 138.937 128.536L139.034 127.179C138.84 129.699 139.711 132.219 141.357 134.157C143.002 136.095 145.325 137.259 147.842 137.355L194.981 140.36C197.498 140.554 199.918 139.681 201.853 137.937C203.693 136.289 204.854 133.866 205.048 131.347L204.951 132.703C204.854 133.963 204.564 135.223 203.983 136.386C203.402 137.549 202.628 138.518 201.757 139.391C200.789 140.263 199.724 140.844 198.562 141.232C197.304 141.523 196.046 141.717 194.787 141.62Z" fill="url(#paint5_linear)"/>
<path d="M211.146 14.1738L203.886 132.51C203.79 133.479 203.596 134.351 203.209 135.223C202.822 136.095 202.241 136.871 201.466 137.452C200.789 138.131 199.918 138.615 199.047 138.906C198.175 139.197 197.207 139.294 196.24 139.294L146.584 136.192C145.616 136.095 144.745 135.902 143.873 135.514C143.002 135.126 142.228 134.545 141.647 133.769C141.066 132.994 140.582 132.219 140.195 131.347C139.905 130.474 139.808 129.505 139.808 128.536L147.068 10.2002C147.165 8.45565 147.842 6.90497 149.004 5.64505C150.165 4.38513 151.714 3.60979 153.456 3.41596C153.843 3.31904 154.327 3.31904 154.715 3.41596L163.426 3.99746C163.716 3.99746 163.91 4.09438 164.2 4.19129C164.394 4.28821 164.684 4.48204 164.781 4.67588C164.975 4.86971 165.072 5.16047 165.168 5.3543C165.265 5.64505 165.265 5.83888 165.265 6.12964C165.265 6.71114 165.362 7.19572 165.749 7.58339C166.136 7.97106 166.62 8.26181 167.104 8.26181L191.4 9.81249C191.981 9.81249 192.465 9.61865 192.852 9.3279C193.239 8.94023 193.529 8.45565 193.529 7.87414C193.529 7.58339 193.626 7.38956 193.723 7.09881C193.82 6.90497 194.013 6.61422 194.207 6.42039C194.4 6.22655 194.594 6.12964 194.884 6.03272C195.175 5.9358 195.368 5.9358 195.659 5.9358L204.37 6.51731C206.209 6.61422 208.049 7.48648 209.307 8.94023C210.565 10.394 211.243 12.2354 211.146 14.1738Z" fill="#B4D1FA"/>
<path d="M187.141 7.48647L171.75 6.5173C171.654 6.5173 171.557 6.42039 171.46 6.32347C171.363 6.22655 171.363 6.12964 171.363 6.03272C171.363 5.9358 171.363 5.9358 171.363 5.83888C171.363 5.74197 171.46 5.74197 171.46 5.74197L171.557 5.64505C171.654 5.64505 171.654 5.64505 171.75 5.64505L187.141 6.61422C187.238 6.61422 187.238 6.61422 187.334 6.61422C187.431 6.61422 187.431 6.71114 187.431 6.71114C187.431 6.71114 187.528 6.80805 187.528 6.90497C187.528 7.00189 187.528 7.00189 187.528 7.0988C187.528 7.19572 187.528 7.19572 187.528 7.29264C187.528 7.38956 187.431 7.38955 187.431 7.38955L187.334 7.48647C187.238 7.48647 187.141 7.48647 187.141 7.48647Z" fill="url(#paint6_linear)"/>
<path d="M168.557 6.61422C168.75 6.61422 168.847 6.61422 169.041 6.5173C169.137 6.42039 169.331 6.32347 169.331 6.22655C169.428 6.12963 169.428 5.9358 169.428 5.74197C169.428 5.54813 169.331 5.45121 169.234 5.3543C169.137 5.25738 169.041 5.16046 168.847 5.06355C168.653 5.06355 168.557 5.06355 168.363 5.06355C168.169 5.16046 168.073 5.25738 167.976 5.3543C167.879 5.45121 167.782 5.64505 167.782 5.83888C167.782 5.9358 167.782 6.03272 167.782 6.12963C167.782 6.22655 167.879 6.32347 167.976 6.42038C168.073 6.5173 168.169 6.5173 168.169 6.61422C168.363 6.61422 168.46 6.61422 168.557 6.61422Z" fill="url(#paint7_linear)"/>
<path d="M190.142 7.97106C190.238 7.97106 190.335 7.97106 190.432 7.97106C190.529 7.97106 190.626 7.87414 190.722 7.77722C190.819 7.68031 190.916 7.58339 190.916 7.48647C190.916 7.38956 191.013 7.29264 191.013 7.19572C191.013 7.09881 191.013 7.00189 191.013 6.90497C191.013 6.80805 190.916 6.71114 190.819 6.61422C190.722 6.5173 190.626 6.5173 190.529 6.42039C190.432 6.42039 190.335 6.32347 190.238 6.32347C190.142 6.32347 190.045 6.32347 189.948 6.32347C189.851 6.32347 189.754 6.42039 189.658 6.51731C189.561 6.61422 189.464 6.71114 189.464 6.80805C189.367 6.90497 189.367 7.00189 189.367 7.0988C189.367 7.19572 189.367 7.29264 189.367 7.38955C189.367 7.48647 189.464 7.58339 189.561 7.68031C189.658 7.77722 189.754 7.77722 189.851 7.87414C189.948 7.97105 190.045 7.97106 190.142 7.97106Z" fill="url(#paint8_linear)"/>
<path d="M149.391 19.1165L147.165 49.9362C147.165 50.2269 147.165 50.6146 147.261 50.9054C147.358 51.1961 147.552 51.4869 147.745 51.7776C147.939 52.0684 148.229 52.2622 148.52 52.3591C148.81 52.5529 149.1 52.5529 149.488 52.6499L201.563 56.2358C201.854 56.2358 202.241 56.2358 202.531 56.1389C202.822 56.042 203.112 55.8481 203.402 55.6543C203.693 55.4605 203.886 55.1697 203.983 54.879C204.08 54.5882 204.177 54.2974 204.274 53.9098L206.209 22.5086C206.209 22.2179 206.209 21.8302 206.113 21.5395C206.016 21.2487 205.822 20.958 205.629 20.6672C205.435 20.3765 205.145 20.1826 204.854 20.0857C204.564 19.9888 204.274 19.8919 203.886 19.795L152.101 16.8874C151.424 16.8874 150.843 17.0813 150.359 17.4689C149.778 17.7597 149.488 18.4381 149.391 19.1165Z" fill="#8FB1DB"/>
<path d="M146.294 58.6587L146.003 61.1786C146.003 61.3724 146.003 61.5662 146.003 61.6631C146.1 61.857 146.1 61.9539 146.197 62.1477C146.294 62.2446 146.391 62.3416 146.584 62.4385C146.778 62.5354 146.875 62.5354 147.068 62.5354L201.467 66.3152C201.66 66.3152 201.757 66.3152 201.951 66.2183C202.144 66.1213 202.241 66.1213 202.338 65.9275C202.435 65.8306 202.532 65.7337 202.628 65.5398C202.725 65.346 202.725 65.2491 202.725 65.0552L202.919 62.5354C202.919 62.3416 202.919 62.2447 202.822 62.0508C202.725 61.857 202.725 61.7601 202.628 61.6631C202.532 61.5662 202.435 61.4693 202.241 61.3724C202.048 61.2755 201.951 61.2755 201.757 61.2755L147.455 57.4957C147.165 57.4957 146.778 57.5926 146.584 57.7865C146.487 58.0772 146.391 58.368 146.294 58.6587Z" fill="#8FB1DB"/>
<path d="M145.228 79.5928L143.002 110.412C143.002 110.703 143.002 111.091 143.099 111.382C143.196 111.672 143.389 111.963 143.583 112.254C143.776 112.545 144.067 112.738 144.357 112.835C144.647 113.029 144.938 113.029 145.325 113.126L197.401 116.712C197.691 116.712 198.078 116.712 198.369 116.615C198.659 116.518 198.949 116.324 199.24 116.131C199.53 115.937 199.724 115.646 199.821 115.355C199.917 115.064 200.014 114.774 200.111 114.386L202.047 82.9849C202.047 82.6942 202.047 82.3065 201.95 82.0157C201.853 81.725 201.66 81.4342 201.466 81.1435C201.272 80.8527 200.982 80.6589 200.692 80.562C200.401 80.4651 200.111 80.3682 199.724 80.2712L147.938 77.3637C147.261 77.3637 146.68 77.5576 146.196 77.9452C145.519 78.3329 145.228 78.9144 145.228 79.5928Z" fill="#8FB1DB"/>
<path d="M142.131 119.232L141.84 121.752C141.84 121.946 141.84 122.139 141.84 122.236C141.937 122.43 141.937 122.527 142.034 122.721C142.131 122.818 142.228 122.915 142.421 123.012C142.615 123.109 142.711 123.109 142.905 123.109L197.304 126.888C197.497 126.888 197.594 126.888 197.788 126.791C197.981 126.695 198.078 126.695 198.175 126.501C198.272 126.404 198.369 126.307 198.465 126.113C198.562 125.919 198.562 125.822 198.562 125.628L198.756 123.109C198.756 122.915 198.756 122.818 198.659 122.624C198.562 122.43 198.562 122.333 198.465 122.236C198.369 122.139 198.272 122.043 198.078 121.946C197.885 121.849 197.788 121.849 197.594 121.849L143.292 118.069C143.002 118.069 142.615 118.166 142.421 118.36C142.324 118.553 142.131 118.941 142.131 119.232Z" fill="#8FB1DB"/>
<path d="M211.146 14.1738L205.532 106.439L153.456 3.41596C153.843 3.31904 154.327 3.31904 154.714 3.41596L163.426 3.99746C163.716 3.99746 163.91 4.09438 164.2 4.19129C164.394 4.28821 164.684 4.48204 164.781 4.67588C164.975 4.86971 165.071 5.16047 165.168 5.3543C165.265 5.64505 165.265 5.83888 165.265 6.12964C165.265 6.71114 165.362 7.19572 165.749 7.58339C166.136 7.97106 166.62 8.26181 167.104 8.26181L191.4 9.81249C191.98 9.81249 192.464 9.61865 192.852 9.3279C193.239 8.94023 193.529 8.45565 193.529 7.87414C193.529 7.58339 193.626 7.38956 193.723 7.09881C193.82 6.90497 194.013 6.61422 194.207 6.42039C194.4 6.22655 194.594 6.12964 194.884 6.03272C195.175 5.9358 195.368 5.9358 195.659 5.9358L204.37 6.51731C205.338 6.51731 206.209 6.80806 207.08 7.19573C207.952 7.5834 208.726 8.1649 209.307 8.94023C209.888 9.71557 210.468 10.4909 210.759 11.3632C211.049 12.2354 211.146 13.2046 211.146 14.1738Z" fill="#D0E4FF" fill-opacity="0.2"/>
<defs>
<filter id="filter0_f" x="0" y="84" width="144" height="116" filterUnits="userSpaceOnUse" color-interpolation-filters="sRGB">
<feFlood flood-opacity="0" result="BackgroundImageFix"/>
<feBlend mode="normal" in="SourceGraphic" in2="BackgroundImageFix" result="shape"/>
<feGaussianBlur stdDeviation="1" result="effect1_foregroundBlur"/>
</filter>
<linearGradient id="paint0_linear" x1="36.1117" y1="94.5605" x2="170.179" y2="277.607" gradientUnits="userSpaceOnUse">
<stop stop-color="#B4D1FA" stop-opacity="0"/>
<stop offset="1" stop-opacity="0.2"/>
</linearGradient>
<linearGradient id="paint1_linear" x1="143.548" y1="47.6836" x2="145.077" y2="23.1803" gradientUnits="userSpaceOnUse">
<stop stop-color="#808080"/>
<stop offset="0.01" stop-color="#727272"/>
<stop offset="0.06" stop-color="#4F4F4F"/>
<stop offset="0.1" stop-color="#323232"/>
<stop offset="0.15" stop-color="#1C1C1C"/>
<stop offset="0.2" stop-color="#0C0C0C"/>
<stop offset="0.26" stop-color="#030303"/>
<stop offset="0.34"/>
<stop offset="0.7"/>
<stop offset="0.75" stop-color="#050505"/>
<stop offset="0.8" stop-color="#131313"/>
<stop offset="0.86" stop-color="#2A2A2A"/>
<stop offset="0.92" stop-color="#4B4B4B"/>
<stop offset="0.98" stop-color="#747474"/>
<stop offset="1" stop-color="#808080"/>
</linearGradient>
<linearGradient id="paint2_linear" x1="128.975" y1="282.876" x2="130.15" y2="263.984" gradientUnits="userSpaceOnUse">
<stop stop-color="#808080"/>
<stop offset="0.01" stop-color="#727272"/>
<stop offset="0.06" stop-color="#4F4F4F"/>
<stop offset="0.1" stop-color="#323232"/>
<stop offset="0.15" stop-color="#1C1C1C"/>
<stop offset="0.2" stop-color="#0C0C0C"/>
<stop offset="0.26" stop-color="#030303"/>
<stop offset="0.34"/>
<stop offset="0.7"/>
<stop offset="0.75" stop-color="#050505"/>
<stop offset="0.8" stop-color="#131313"/>
<stop offset="0.86" stop-color="#2A2A2A"/>
<stop offset="0.92" stop-color="#4B4B4B"/>
<stop offset="0.98" stop-color="#747474"/>
<stop offset="1" stop-color="#808080"/>
</linearGradient>
<linearGradient id="paint3_linear" x1="210.954" y1="73.5174" x2="140.355" y2="69.1143" gradientUnits="userSpaceOnUse">
<stop stop-color="#323232"/>
<stop offset="0.03" stop-color="#1C1C1C"/>
<stop offset="0.06" stop-color="#0C0C0C"/>
<stop offset="0.1" stop-color="#030303"/>
<stop offset="0.15"/>
<stop offset="0.87"/>
<stop offset="0.91" stop-color="#050505"/>
<stop offset="0.95" stop-color="#131313"/>
<stop offset="0.99" stop-color="#2A2A2A"/>
<stop offset="1" stop-color="#333333"/>
</linearGradient>
<linearGradient id="paint4_linear" x1="179.668" y1="3.17609" x2="179.966" y2="-1.78205" gradientUnits="userSpaceOnUse">
<stop/>
<stop offset="0.16" stop-color="#050505"/>
<stop offset="0.34" stop-color="#131313"/>
<stop offset="0.53" stop-color="#2A2A2A"/>
<stop offset="0.74" stop-color="#4B4B4B"/>
<stop offset="0.95" stop-color="#747474"/>
<stop offset="1" stop-color="#808080"/>
</linearGradient>
<linearGradient id="paint5_linear" x1="171.967" y1="128.717" x2="171.375" y2="140.407" gradientUnits="userSpaceOnUse">
<stop/>
<stop offset="0.16" stop-color="#050505"/>
<stop offset="0.34" stop-color="#131313"/>
<stop offset="0.53" stop-color="#2A2A2A"/>
<stop offset="0.74" stop-color="#4B4B4B"/>
<stop offset="0.95" stop-color="#747474"/>
<stop offset="1" stop-color="#808080"/>
</linearGradient>
<linearGradient id="paint6_linear" x1="179.777" y1="1.47074" x2="179.299" y2="9.12623" gradientUnits="userSpaceOnUse">
<stop/>
<stop offset="0.14" stop-color="#050505"/>
<stop offset="0.3" stop-color="#131313"/>
<stop offset="0.47" stop-color="#2A2A2A"/>
<stop offset="0.65" stop-color="#4B4B4B"/>
<stop offset="0.83" stop-color="#747474"/>
<stop offset="1" stop-color="#A1A1A1"/>
</linearGradient>
<linearGradient id="paint7_linear" x1="168.587" y1="84.4261" x2="168.587" y2="89.6879" gradientUnits="userSpaceOnUse">
<stop/>
<stop offset="0.14" stop-color="#050505"/>
<stop offset="0.3" stop-color="#131313"/>
<stop offset="0.47" stop-color="#2A2A2A"/>
<stop offset="0.65" stop-color="#4B4B4B"/>
<stop offset="0.83" stop-color="#747474"/>
<stop offset="1" stop-color="#A1A1A1"/>
</linearGradient>
<linearGradient id="paint8_linear" x1="190.216" y1="86.3481" x2="190.216" y2="91.6463" gradientUnits="userSpaceOnUse">
<stop/>
<stop offset="0.14" stop-color="#050505"/>
<stop offset="0.3" stop-color="#131313"/>
<stop offset="0.47" stop-color="#2A2A2A"/>
<stop offset="0.65" stop-color="#4B4B4B"/>
<stop offset="0.83" stop-color="#747474"/>
<stop offset="1" stop-color="#A1A1A1"/>
</linearGradient>
</defs>
</svg>
