<svg width="72" height="127" fill="none" xmlns="http://www.w3.org/2000/svg"><path d="M71.99 10.135l-6.989 110.501a6.777 6.777 0 01-2.33 4.668 6.964 6.964 0 01-4.993 1.683L9.76 124.029a6.962 6.962 0 01-2.601-.67 6.87 6.87 0 01-2.142-1.602 6.756 6.756 0 01-1.357-2.289 6.7 6.7 0 01-.364-2.627l6.99-110.512c.1-1.599.774-3.11 1.901-4.263a6.871 6.871 0 014.25-2.029c.397-.05.799-.05 1.195 0l8.363.518a1.945 1.945 0 011.334.634 1.89 1.89 0 01.482 1.381 1.916 1.916 0 00.471 1.398c.338.386.817.625 1.333.664L52.983 6.07a1.988 1.988 0 001.403-.494c.384-.34.618-.813.652-1.32a1.875 1.875 0 01.643-1.316 1.93 1.93 0 011.4-.476l8.362.519a6.97 6.97 0 012.617.647c.82.383 1.555.923 2.163 1.587a6.782 6.782 0 011.381 2.285c.303.844.435 1.739.386 2.633z" fill="#B4D1FA"/><g filter="url(#filter0_d)"><path d="M2.7 52.27l-.275 2.357a1.163 1.163 0 00.272.889 1.193 1.193 0 00.84.419l52.386 3.535a1.212 1.212 0 00.87-.286 1.179 1.179 0 00.408-.81l.156-2.357a1.164 1.164 0 00-.29-.858 1.193 1.193 0 00-.821-.402l-52.28-3.535c-.307-.02-.61.078-.846.273a1.174 1.174 0 00-.42.776z" fill="#8FB1DB"/></g><g filter="url(#filter1_d)"><path d="M2.282 59.47l-.274 2.357a1.163 1.163 0 00.27.889 1.193 1.193 0 00.84.42l52.435 3.558a1.208 1.208 0 00.87-.286 1.18 1.18 0 00.408-.81l.156-2.357c.02-.31-.087-.616-.295-.85a1.2 1.2 0 00-.816-.399l-52.28-3.535a1.21 1.21 0 00-.866.243 1.18 1.18 0 00-.448.77z" fill="#8FB1DB"/></g><g filter="url(#filter2_d)"><path d="M34.587 47.192c9.369 0 16.964-7.49 16.964-16.732 0-9.24-7.595-16.731-16.965-16.731-9.369 0-16.964 7.49-16.964 16.731 0 9.241 7.595 16.732 16.965 16.732z" fill="#8FB1DB"/></g><g filter="url(#filter3_d)"><path d="M15.563 72.322l-.17 2.35c-.093 1.299.898 2.426 2.214 2.519l18.22 1.278c1.317.093 2.46-.885 2.553-2.183l.17-2.35c.094-1.299-.897-2.426-2.214-2.519l-18.22-1.278c-1.317-.093-2.46.885-2.553 2.183z" fill="#6C8AAF"/></g><defs><filter id="filter0_d" x=".418" y="49.219" width="62.942" height="16.254" filterUnits="userSpaceOnUse" color-interpolation-filters="sRGB"><feFlood flood-opacity="0" result="BackgroundImageFix"/><feColorMatrix in="SourceAlpha" values="0 0 0 0 0 0 0 0 0 0 0 0 0 0 0 0 0 0 127 0"/><feOffset dx="2" dy="2"/><feGaussianBlur stdDeviation="2"/><feColorMatrix values="0 0 0 0 0.555729 0 0 0 0 0.660379 0 0 0 0 0.808333 0 0 0 0.2 0"/><feBlend in2="BackgroundImageFix" result="effect1_dropShadow"/><feBlend in="SourceGraphic" in2="effect1_dropShadow" result="shape"/></filter><filter id="filter1_d" x="0" y="56.45" width="62.989" height="16.246" filterUnits="userSpaceOnUse" color-interpolation-filters="sRGB"><feFlood flood-opacity="0" result="BackgroundImageFix"/><feColorMatrix in="SourceAlpha" values="0 0 0 0 0 0 0 0 0 0 0 0 0 0 0 0 0 0 127 0"/><feOffset dx="2" dy="2"/><feGaussianBlur stdDeviation="2"/><feColorMatrix values="0 0 0 0 0.555729 0 0 0 0 0.660379 0 0 0 0 0.808333 0 0 0 0.2 0"/><feBlend in2="BackgroundImageFix" result="effect1_dropShadow"/><feBlend in="SourceGraphic" in2="effect1_dropShadow" result="shape"/></filter><filter id="filter2_d" x="15.622" y="11.729" width="41.929" height="41.464" filterUnits="userSpaceOnUse" color-interpolation-filters="sRGB"><feFlood flood-opacity="0" result="BackgroundImageFix"/><feColorMatrix in="SourceAlpha" values="0 0 0 0 0 0 0 0 0 0 0 0 0 0 0 0 0 0 127 0"/><feOffset dx="2" dy="2"/><feGaussianBlur stdDeviation="2"/><feColorMatrix values="0 0 0 0 0.555729 0 0 0 0 0.660379 0 0 0 0 0.808333 0 0 0 0.2 0"/><feBlend in2="BackgroundImageFix" result="effect1_dropShadow"/><feBlend in="SourceGraphic" in2="effect1_dropShadow" result="shape"/></filter><filter id="filter3_d" x="13.387" y="68.132" width="31.169" height="16.343" filterUnits="userSpaceOnUse" color-interpolation-filters="sRGB"><feFlood flood-opacity="0" result="BackgroundImageFix"/><feColorMatrix in="SourceAlpha" values="0 0 0 0 0 0 0 0 0 0 0 0 0 0 0 0 0 0 127 0"/><feOffset dx="2" dy="2"/><feGaussianBlur stdDeviation="2"/><feColorMatrix values="0 0 0 0 0.555729 0 0 0 0 0.660379 0 0 0 0 0.808333 0 0 0 0.2 0"/><feBlend in2="BackgroundImageFix" result="effect1_dropShadow"/><feBlend in="SourceGraphic" in2="effect1_dropShadow" result="shape"/></filter></defs></svg>