<svg width="578" height="371" fill="none" xmlns="http://www.w3.org/2000/svg"><g filter="url(#filter0_d)"><path d="M290.694 365L572 261.795 282.169 150.13 2 256.155 290.694 365z" fill="#B4D1FA"/></g><path d="M413.214 246.546c0 23.149-53.591 41.916-119.7 41.916-66.108 0-119.7-18.767-119.7-41.916 0-23.15 53.592-41.916 119.7-41.916 66.109 0 119.7 18.766 119.7 41.916z" fill="#022C4B"/><path d="M293.514 204.63c-66.108 0-119.7 18.931-119.7 42.284 0 3.064 1.814 9.193 3.628 9.805 9.672-33.705 68.382-42.897 116.072-42.897 54.949 0 112.446 16.546 117.282 41.672 2.418-3.677 2.418-6.128 2.418-8.58 0-23.353-53.591-42.284-119.7-42.284z" fill="#184D76"/><mask id="a" maskUnits="userSpaceOnUse" x="174" y="23" width="247" height="266"><path d="M293.576 288.298c65.979 0 119.465-18.625 119.465-41.602l7.501-223.535H174.111v223.535c0 22.977 53.487 41.602 119.465 41.602z" fill="#C4C4C4"/></mask><g mask="url(#a)"><path d="M293.777 313.134l-84.371-31.827-.029-101.979 84.4 31.827v101.979z" fill="#053866"/><path d="M379.031 280.804l-85.25-31.85-.386-101.993 1.455-1.207 84.175 32.837.006 102.213z" fill="#083556"/><path d="M293.779 313.134l85.215-32.356.029-102.292-85.215 32.094-.029 102.554z" fill="#054270"/><path d="M209.406 281.155l85.732-34.532-1.314-100.023-1.015-.846-83.432 32.869.029 102.532z" fill="#063D66"/><g filter="url(#filter1_f)"><ellipse cx="293.515" cy="220.945" rx="58.347" ry="40.657" fill="url(#paint0_radial)"/></g><path d="M293.783 313.136l-84.371-31.829-.029-101.979 84.4 31.827v101.981z" fill="#053866"/><path d="M230.485 212.99l-21.071-8.016-.029-25.646 21.1 8.19v25.472z" fill="#053866"/><path d="M214.99 203.728a13.894 13.894 0 01-5.554-1.007l-.057-2.705c4.287 1.64 8.402 1.324 11.567-.863 3.769-2.59 6.157-6.878 6.157-13.093l2.532 1.007c0 7.079-2.1 11.05-6.56 14.129a14.917 14.917 0 01-8.085 2.532z" fill="#FF8098"/><path d="M251.579 220.564l-21.1-8.058v-25.605l21.1 8.058v25.605z" fill="#0E2951"/><path d="M272.678 228.979l-21.1-8.058v-25.604l21.1 8.028v25.634z" fill="#FF8098"/><path d="M293.78 236.55l-21.1-7.959v-25.7l21.243 7.897-.143 25.762zm-63.301 1.686l-21.1-8.028v-25.634l21.1 8.058v25.604z" fill="#911A31"/><path d="M251.581 245.81l-21.101-7.856V212.99l21.101 7.856v24.964z" fill="#C43B55"/><path d="M272.678 254.225l-21.1-8.058v-25.604l21.1 8.058v25.604z" fill="#053866"/><path d="M293.78 261.799l-21.1-7.769.027-25.433 21.073 7.932v25.27z" fill="#132F7C"/><path d="M251.581 271.898l-21.101-8.028v-25.912l21.101 7.845v26.095z" fill="#FF8098"/><path d="M272.684 279.472l-21.1-8.058V245.81l21.1 8.058v25.604z" fill="#0E2951"/><path d="M293.782 287.888l-21.1-7.969v-25.693l21.1 7.968v25.694z" fill="#053866"/><path d="M230.479 289.228l-21.1-7.936v-25.726l21.1 7.917v25.745z" fill="#C43B55"/><path d="M251.579 297.145l-21.1-8.036v-25.626l21.1 8.035v25.627z" fill="#053866"/><path d="M272.678 305.085l-21.1-8.058v-25.604l21.1 8.058v25.604z" fill="#FF8098"/><path d="M293.78 313.134l-21.1-7.924v-25.738l21.1 8.271v25.391z" fill="#911A31"/><path d="M213.742 198.682a10.704 10.704 0 01-4.363-.857v-3.103c3.066 1.182 6.868.768 8.755-.473 3.154-2.099 4.687-5.35 4.687-9.872l2.594 1.035c0 5.556-1.975 8.955-5.512 11.408a11.027 11.027 0 01-6.161 1.862z" fill="#D6516B"/><path d="M212.233 192.792a6.85 6.85 0 01-2.854-.561v-3.273c1.843.748 4.698.561 6.274-1.09 1.635-1.715 2.081-3.117 2.081-6.015l2.617 1.091c0 3.989-1.308 6.7-3.776 8.476a7.512 7.512 0 01-4.342 1.372z" fill="#C43B55"/><path d="M210.723 186.892a2.376 2.376 0 01-1.344-.276v-3.223c.448.184 1.904.307 2.463 0 .98-.553.98-1.627.504-3.223l2.94 1.074c0 2.241-.728 3.806-2.1 4.85a4.31 4.31 0 01-2.463.798z" fill="#A62E41"/><path d="M293.455 283.68l-18.242-6.727v-43.766l18.568 6.611v3.551l-15.424-5.774v37.862l14.837 6.099.261 2.144z" fill="#C43B55"/><path d="M293.781 284.521l-18.568-7.349v-22.224l3.144 1.132v19.004l15.424 5.92v3.517z" fill="#F985A0"/><path d="M293.434 276.901l-13.159-4.148v-31.992l13.504 4.782v3.609l-10.36-3.902v26.025l10.36 3.609-.345 2.017z" fill="#C43B55"/><path d="M293.435 269.826l-7.249-1.952v-17.857l7.596 2.634v3.521l-4.564-1.775v11.85l4.564 1.975-.347 1.604z" fill="#C43B55"/><path d="M293.782 271.056l-7.596-2.953v-9.112l3.032 1.099v5.929l4.564 1.476v3.561z" fill="#F985A0"/><path d="M293.779 277.789l-13.504-4.945v-16.017l3.144 1.166v12.764l10.36 3.516v3.516z" fill="#F985A0"/><path d="M225.415 287.338l-16.036-6.046v-19.493l16.036 6.045v19.494z" fill="#053866"/><path d="M219.507 285.104l-10.128-3.812v-12.761l10.128 4.026v12.547z" fill="#FF8098"/><path d="M272.678 212.315l-7.718 13.297-13.382-14.473 7.718-13.298 13.382 14.474z" fill="#C43B55"/><path d="M267.617 212.01l-4.036 6.871-6.936-7.466 4.006-6.841 6.966 7.436z" fill="#911A31"/><path d="M272.678 305.025l-21.1-8.083v-20.529l21.1 8.053v20.559z" fill="#C43B55"/><path d="M272.678 304.855l-21.1-8.295v-15.268l21.1 8.265v15.298z" fill="#911A31"/><path d="M272.678 304.819l-21.1-8.253v-9.419l21.1 8.223v9.449z" fill="#053866"/><path d="M230.479 218.88l21.1 7.864-21.1 6.153 21.1 7.864-21.1-21.881z" fill="#911A31"/><path d="M211.91 231.504l-2.531-1.034v-25.896l2.531 1.034v25.896zm4.219.841l-2.531-1v-25.088l2.531 1.029v25.059zm13.504 5.049l-3.375-1.001v-25.087l3.375 1.001v25.087zm-5.062-1.683l-2.532-1.001v-25.087l2.532 1.001v25.087zm-4.219-1.683l-2.532-1.001V207.94l2.532 1.001v25.087z" fill="#FF8098"/><path d="M230.479 263.483l-21.1-8.058v-25.604l21.1 8.028v25.634z" fill="#0E2951"/><path d="M230.478 263.483l-10.972-4.026v-12.806l10.972 4.026v12.806z" fill="#911A31"/><path d="M219.507 246.652l-10.128-4.033v-12.798l10.128 3.819v13.012z" fill="#911A31"/><path fill-rule="evenodd" clip-rule="evenodd" d="M233.012 267.691l15.297 6.011-.812 2.22-12.196-4.793v14.709l11.458 4.503V279.3l-8.87-3.49v7.862l6.282 2.478v-4.741l-3.722-1.467v1.621l2.712 1.067-.812 2.219-4.189-1.649v-6.699l8.3 3.271v9.82l-10.86-4.283V272.37l13.448 5.292v16.117l-16.036-6.302v-19.786z" fill="#F985A0"/><path fill-rule="evenodd" clip-rule="evenodd" d="M278.221 283.68l13.872 24.334-3.008 1.754-13.872-24.335 3.008-1.753z" fill="#0E2951"/><path d="M259.176 258.433l-3.375-1.408v-4.482l3.375 1.408v4.482zm4.219 7.574l-3.375-1.401v-4.49l3.375 1.401v4.49zm5.066 6.733l-3.375-1.207v-3.842l3.375 1.207v3.842z" fill="#911A31"/><path d="M293.923 210.788l85.1-32.302v102.409l-85.244 32.239.144-102.346z" fill="#053866"/><path d="M357.924 237.872l21.1-8.051v25.611l-21.1 8.051v-25.611z" fill="#911A31"/><path d="M335.979 246.093l21.944-7.857v24.993l-21.944 7.828v-24.964z" fill="#C43B55"/><path d="M314.879 253.868l21.1-8.058v25.604l-21.1 8.058v-25.604z" fill="#053866"/><path d="M293.779 261.783l21.1-7.58v25.538l-21.1 8.146v-26.104z" fill="#132F7C"/><path d="M335.979 220.206l21.944-8.058v26.207l-21.944 7.807v-25.956z" fill="#FF8098"/><path d="M314.879 228.622l21.1-8.058v25.604l-21.1 8.058v-25.604z" fill="#0E2951"/><path d="M293.779 236.284l21.1-8.147v25.516l-21.1 8.146v-25.515z" fill="#053866"/><path d="M335.982 271.046l21.978-7.82-.147 25.629-21.831 8.315v-26.124z" fill="#0E2951"/><path d="M314.879 279.584l21.1-8.527v26.117l-21.1 7.955v-25.545z" fill="#FF8098"/><path d="M293.779 287.745l21.1-8.161v25.56l-21.1 7.989v-25.388z" fill="#911A31"/><path d="M357.924 186.566l21.1-8.08v25.611l-21.1 8.051v-25.582z" fill="#C43B55"/><path d="M335.979 194.96l21.944-8.058v25.604l-21.944 8.058V194.96z" fill="#053866"/><path d="M314.877 203.174l21.1-7.857v24.964l-21.1 7.857v-24.964z" fill="#FF8098"/><path d="M293.895 210.776l20.984-7.885v25.516l-21.1 8.146.116-25.777z" fill="#911A31"/><path d="M293.776 284.499v-3.464l15.458-6.227v-37.211l-15.204 5.563-1.096-2.825 19.412-7.148v43.697l-18.57 7.615z" fill="#C43B55"/><path d="M312.347 255.211l-3.11 1.033v-18.622l-15.458 5.732v-3.535l18.568-6.632v22.024z" fill="#F985A0"/><path d="M293.779 277.789v-3.538l10.481-4.257v-25.026l-10.481 4.056v-3.538l13.504-3.883v30.491l-13.504 5.695z" fill="#C43B55"/><path d="M293.776 271.081v-3.588l4.542-1.555v-11.644l-4.308 1.575-1.076-2.757 8.44-3.094v17.973l-7.598 3.09z" fill="#C43B55"/><path d="M301.375 259.127l-3.063.99v-5.799l-4.533 1.846v-3.518l7.596-2.628v9.109z" fill="#F985A0"/><path d="M307.283 256.983l-3.023 1.01v-12.899l-10.481 4.049v-3.601l13.504-4.781v16.222z" fill="#F985A0"/><path d="M368.051 182.534l10.972-4.048v12.813l-10.972 4.018v-12.783z" fill="#FF8098"/><path d="M314.877 295.531l7.723-18.583 13.377 4.139-7.723 18.583-13.377-4.139z" fill="#C43B55"/><path d="M319.939 291.631l4.004-9.634 6.968 2.148-4.032 9.634-6.94-2.148z" fill="#911A31"/><path d="M314.877 203.163l21.1-7.846v19.955l-21.1 7.816v-19.925z" fill="#C43B55"/><path d="M314.877 203.316l21.1-7.999v14.752l-21.1 7.97v-14.723z" fill="#911A31"/><path d="M314.877 203.177l21.1-7.86v9l-21.1 7.831v-8.971z" fill="#053866"/><path d="M314.877 203.345l21.1-8.028v4.596l-21.1 8.028v-4.596z" fill="#0E2951"/><path d="M357.923 257.303l-21.944 7.864 21.944-21.881-21.944 7.864" fill="#911A31"/><path d="M379.022 255.737l-3.376 1.014v-25.887l3.376-1.043v25.916zm-4.223 1.123l-3.331 1.256-.044-25.611 3.375-1.001v25.356zm-12.656 4.78l-3.351 1.355-.024-25.44 3.312-1.001.063 25.086zm4.219-1.683l-3.376 1.574v-25.66l3.376-1.001v25.087zm4.219-1.683l-3.376 2.165v-26.251l3.376-1.001v25.087z" fill="#FF8098"/><path d="M357.924 212.633l21.1-8.058v25.604l-21.1 8.058v-25.604z" fill="#0E2951"/><path d="M357.924 263.126l21.1-8.058v25.604l-21.1 8.058v-25.604z" fill="#053866"/><path d="M357.924 212.607l10.128-3.825v12.166l-10.128 3.824v-12.165z" fill="#911A31"/><path d="M360.497 287.879l-2.683.976c0-17.249 9.794-27.85 21.21-32.104v2.546c-10.301 3.85-18.527 16.919-18.527 28.582z" fill="#FF8098"/><path d="M366.348 285.683l-3.17 1.22c0-12.316 7.207-21.885 15.844-25.103v3.072c-7.547 2.837-12.674 11.771-12.674 20.811z" fill="#D6516B"/><path d="M371.47 283.731l-2.439.976c0-7.477 4.232-14.916 9.99-17.077v2.904c-4.485 1.706-7.551 7.824-7.551 13.197z" fill="#C43B55"/><path d="M376.537 281.827l-2.387.929c-.513-4.05 1.768-8.085 4.878-9.271l-.009 3.279c-1.94.724-2.482 2.604-2.482 5.063z" fill="#A62E41"/><path fill-rule="evenodd" clip-rule="evenodd" d="M355.388 190.268v20.236l-15.257 5.852-.849-2.27 13.709-5.258v-15.045l-12.086 4.636v11.295l9.376-3.577v-8.043l-6.666 2.543v4.819l3.926-1.504v-1.628l-1.989.765-.851-2.27 5.238-2.013v6.823l-8.721 3.341v-10.013l11.46-4.372v13.232l-14.17 5.406v-16.48l16.88-6.475z" fill="#F985A0"/><path fill-rule="evenodd" clip-rule="evenodd" d="M295.465 231.369l14.585-25.111 3.139 1.818-14.585 25.111-3.139-1.818z" fill="#0E2951"/><path fill-rule="evenodd" clip-rule="evenodd" d="M309.856 228.138l-14.391-14.204 2.489-2.627 14.391 14.204-2.489 2.627z" fill="#0E2951"/><path d="M328.381 239.645l3.375-1.409v4.483l-3.375 1.408v-4.482zm-4.219-3.574l3.375-1.201v3.848l-3.375 1.201v-3.848zm-5.066-4.201l3.375-1.207v3.841l-3.375 1.208v-3.842z" fill="#911A31"/><path d="M362.986 184.763l16.036-6.277v19.871l-16.036 6.217v-19.811z" fill="#053866"/><path d="M368.051 221.23l10.972-4.032v13.107l-10.967 4.036-.005-13.111z" fill="#911A31"/><path opacity=".3" d="M209.725 178.805l84.108 31.831v102.608l-84.483-31.831.375-102.608z" fill="#000"/><path d="M410.252 147.319l-31.709 31.168-84.713-31.886 31.631-31.23 84.791 31.948z" fill="#084C80"/><path d="M293.924 210.788l-31.747 31.656-84.868-31.82 32.579-31.745 84.036 31.909z" fill="#094573"/><path d="M293.829 146.6l-31.162-31.456-84.763 32.066 31.652 31.892 84.273-32.502zm116.423 63.365l-31.655-31.479-84.818 32.331 31.829 31.627 84.644-32.479z" fill="#084C80"/></g><path d="M83.428 234.113l59.992 22.834-43.57 5.957-16.422-28.791z" fill="url(#paint1_linear)"/><path d="M99.182 257.763c0-.438.273-.823.696-.939 5.299-1.462 26.244-5.887 43.949-.027a.988.988 0 01.674.94v4.644a.958.958 0 01-.652.923c-9.442 3.075-32.816 3.068-43.963-.021a.969.969 0 01-.704-.946v-4.574z" fill="#DD6404"/><g filter="url(#filter2_i)"><path d="M120.894 207.428c.308-.902 1.584-.902 1.892 0l2.504 7.322 3.796 11.098 3.45 10.089 5.175 15.134 2.449 6.668c-13.534 3.206-24.553 2.73-36.64 0l2.448-6.668 5.176-15.134 3.45-10.089 3.796-11.098 2.504-7.322z" fill="#FF7405"/></g><path d="M132.536 235.937h-21.392l-5.175 15.133h31.743l-5.176-15.133zm-7.244-21.187h-6.901l-3.795 11.098h14.491l-3.795-11.098z" fill="#F1EAE4"/><path d="M99.182 258.289c0-.612.55-1.08 1.156-.99 16.205 2.429 25.989 2.577 43.003.003a1.007 1.007 0 011.16.99v4.188a.958.958 0 01-.652.923c-9.442 3.075-32.816 3.068-43.963-.021a.97.97 0 01-.704-.946v-4.147z" fill="#EF6A00"/><path d="M427.871 234.113l59.993 22.834-43.57 5.957-16.423-28.791z" fill="url(#paint2_linear)"/><path d="M443.623 257.763c0-.438.273-.823.696-.939 5.299-1.462 26.245-5.887 43.95-.027a.988.988 0 01.674.94v4.644a.958.958 0 01-.652.923c-9.443 3.075-32.817 3.068-43.964-.021a.969.969 0 01-.704-.946v-4.574z" fill="#DD6404"/><g filter="url(#filter3_i)"><path d="M465.335 207.428c.309-.902 1.584-.902 1.893 0l2.504 7.322 3.795 11.098 3.451 10.089 5.175 15.134 2.449 6.668c-13.534 3.206-24.553 2.73-36.641 0l2.449-6.668 5.175-15.134 3.451-10.089 3.795-11.098 2.504-7.322z" fill="#FF7405"/></g><path d="M476.978 235.937h-21.392l-5.176 15.133h31.744l-5.176-15.133zm-7.245-21.187h-6.9l-3.796 11.098h14.492l-3.796-11.098z" fill="#F1EAE4"/><path d="M443.623 258.289c0-.612.55-1.08 1.156-.99 16.206 2.429 25.99 2.577 43.005.003a1.007 1.007 0 011.159.99v4.188a.958.958 0 01-.652.923c-9.443 3.075-32.817 3.068-43.964-.021a.97.97 0 01-.704-.946v-4.147z" fill="#EF6A00"/><g filter="url(#filter4_di)"><path d="M395.637 27.519l-3.71-2.222a.956.956 0 01-.454-.89c.039-.456.056-.916.056-1.384a15.906 15.906 0 00-.192-2.532.932.932 0 01.448-.964l3.877-2.326a.924.924 0 00.354-1.208l-1.825-3.697a.919.919 0 00-1.135-.455l-3.917 1.414a.93.93 0 01-1.064-.31 16.693 16.693 0 00-3.847-3.59.945.945 0 01-.354-1.1l.869-2.372a.954.954 0 00-.473-1.174l-3.691-1.795a.932.932 0 00-.793-.02.921.921 0 00-.421.371l-1.674 2.754-.406.672a16.919 16.919 0 00-5.445.123.926.926 0 01-.968-.428l-1.881-3.107a.958.958 0 00-1.244-.362l-2.84 1.384-.813.396a.96.96 0 00-.486 1.194l1.186 3.256a.912.912 0 01-.284 1.044 16.573 16.573 0 00-2.501 2.51c-.07.075-.127.15-.189.229a.945.945 0 01-1.086.31l-3.871-1.396a.97.97 0 00-.741.042.959.959 0 00-.436.429l-1.806 3.657a.953.953 0 00.364 1.232l3.871 2.317a.922.922 0 01.44.945 16.278 16.278 0 00-.142 3.914.974.974 0 01-.104.52.973.973 0 01-.364.387l-3.725 2.237a.92.92 0 00-.353 1.199l1.81 3.651a.974.974 0 001.205.483l3.1-1.117a.96.96 0 011.12.361 16.642 16.642 0 003.464 3.783.936.936 0 01.298 1.067l-1.266 3.468a.97.97 0 00.486 1.203l3.663 1.791a.944.944 0 001.219-.357l.1-.16 1.942-3.2a.964.964 0 01.994-.447 16.71 16.71 0 004.513.184.947.947 0 01.903.446l1.91 3.153a.976.976 0 001.261.372l3.659-1.79c.099-.052.19-.118.269-.198a.96.96 0 00.208-.978l-.955-2.599a.965.965 0 01.166-.93.993.993 0 01.199-.179 16.592 16.592 0 004.642-4.634.938.938 0 011.1-.361l3.135 1.132a.956.956 0 001.176-.47l.042-.084 1.764-3.559a.957.957 0 00-.357-1.235zm-29.291-7.027a11.06 11.06 0 01.746-1.923c.615-1.226 2.132-2.744 3.37-3.35.132-.066.265-.127.398-.189 8.101-3.617 15.914 4.291 11.986 12.35-.515 1.053-1.654 2.29-2.765 3.056a5.899 5.899 0 01-.756.442 10.355 10.355 0 01-3.351.988c-6.248.694-11.388-5.02-9.628-11.374z" fill="url(#paint3_linear)"/></g><g filter="url(#filter5_di)"><path d="M124.101 124.349l-5.972-2.797a1.468 1.468 0 01-.833-1.285 25.85 25.85 0 00-.142-2.123 24.835 24.835 0 00-.71-3.847 1.468 1.468 0 01.026-.853c.093-.275.266-.515.497-.69l5.473-4.2a1.433 1.433 0 00.337-1.909l-3.365-5.353a1.387 1.387 0 00-1.789-.51l-5.692 2.809a1.394 1.394 0 01-1.662-.305 25.488 25.488 0 00-6.406-4.862 1.46 1.46 0 01-.716-1.624l.923-3.77a1.48 1.48 0 00-.907-1.72l-5.875-2.13a1.397 1.397 0 00-1.201.099 1.412 1.412 0 00-.577.64l-2.075 4.492-.503 1.096a25.33 25.33 0 00-8.206 1.082 1.392 1.392 0 01-1.534-.495l-3.354-4.444a1.445 1.445 0 00-1.939-.349l-4.064 2.588-1.164.745a1.492 1.492 0 00-.538 1.907l2.33 4.791a1.417 1.417 0 01-.264 1.65 25.441 25.441 0 00-3.358 4.262 4.3 4.3 0 00-.247.383.753.753 0 01-.088.127 1.426 1.426 0 01-1.511.528l-6.082-1.498a1.448 1.448 0 00-1.111.186c-.27.171-.477.426-.589.727l-2.126 5.895c-.124.345-.115.724.025 1.062.14.338.4.611.73.765l6.233 2.909a1.405 1.405 0 01.819 1.37 26.08 26.08 0 00.438 6.015 1.503 1.503 0 01-.557 1.466l-5.26 4.04a1.433 1.433 0 00-.338 1.892l3.337 5.292a1.468 1.468 0 001.901.542l4.502-2.224a1.443 1.443 0 011.756.356 25.436 25.436 0 005.859 5.22 1.462 1.462 0 01.633 1.584l-1.339 5.525c-.086.358-.038.735.134 1.06.172.325.457.575.8.701l5.83 2.131a1.418 1.418 0 001.785-.747l.123-.262 2.408-5.219a1.452 1.452 0 011.434-.848 25.018 25.018 0 006.852-.464 1.43 1.43 0 011.439.534l3.405 4.513a1.47 1.47 0 001.964.359l5.235-3.348c.143-.095.269-.212.375-.347a1.493 1.493 0 00.151-1.532l-1.862-3.812a1.495 1.495 0 01.097-1.453 1.57 1.57 0 01.271-.304 25.43 25.43 0 006.248-7.857 1.42 1.42 0 011.604-.737l4.922 1.218c.345.085.71.038 1.024-.13.313-.168.555-.447.678-.783l.049-.136 2.078-5.744a1.484 1.484 0 00-.769-1.85zm-45.421-5.922c.175-1.045.447-2.072.811-3.066.727-1.979 2.77-4.553 4.534-5.685.19-.123.38-.239.568-.353 11.647-6.877 24.757 3.942 20.149 16.927-.604 1.697-2.115 3.778-3.675 5.133a8.896 8.896 0 01-1.07.802 15.604 15.604 0 01-4.9 2.064c-9.322 2.088-18.026-5.804-16.417-15.822z" fill="url(#paint4_linear)"/></g><g filter="url(#filter6_di)"><path d="M519.02 90.98l-6.046-2.798a1.472 1.472 0 01-.843-1.285 25.454 25.454 0 00-.144-2.123 24.52 24.52 0 00-.719-3.847 1.446 1.446 0 01.53-1.544l5.541-4.199a1.424 1.424 0 00.341-1.908l-3.407-5.354a1.416 1.416 0 00-1.811-.51l-5.762 2.809a1.428 1.428 0 01-1.683-.305 25.777 25.777 0 00-6.485-4.861 1.451 1.451 0 01-.725-1.624l.935-3.77a1.47 1.47 0 00-.918-1.72l-5.948-2.132a1.43 1.43 0 00-1.8.74l-2.1 4.492-.51 1.096a25.554 25.554 0 00-3.599.134 25.93 25.93 0 00-4.708.948 1.425 1.425 0 01-1.553-.495l-3.396-4.444a1.478 1.478 0 00-1.963-.349l-4.114 2.588-1.178.745a1.481 1.481 0 00-.544 1.908l2.357 4.79c.139.267.187.572.139.868a1.399 1.399 0 01-.405.782 25.497 25.497 0 00-3.399 4.262 4.238 4.238 0 00-.251.383.735.735 0 01-.089.127 1.46 1.46 0 01-1.53.528l-6.156-1.498a1.482 1.482 0 00-1.721.913l-2.153 5.895a1.462 1.462 0 00.765 1.827l6.31 2.909a1.416 1.416 0 01.829 1.37 25.687 25.687 0 00.443 6.015 1.483 1.483 0 01-.564 1.466l-5.326 4.04a1.42 1.42 0 00-.342 1.892l3.379 5.292a1.504 1.504 0 001.925.542l4.557-2.224a1.469 1.469 0 011.778.356 25.654 25.654 0 005.931 5.22 1.449 1.449 0 01.641 1.584l-1.355 5.525a1.495 1.495 0 00.945 1.762l5.903 2.131a1.443 1.443 0 001.806-.748l.124-.262 2.439-5.219a1.474 1.474 0 011.452-.848 25.642 25.642 0 006.936-.464 1.457 1.457 0 011.457.534l3.446 4.513a1.5 1.5 0 001.989.359l5.3-3.348c.144-.095.272-.212.379-.347a1.48 1.48 0 00.153-1.531l-1.885-3.813a1.475 1.475 0 01.098-1.452 1.59 1.59 0 01.274-.305 25.484 25.484 0 006.326-7.857 1.438 1.438 0 011.623-.737l4.983 1.218a1.47 1.47 0 001.723-.913l.05-.136 2.104-5.744a1.479 1.479 0 00-.779-1.85zm-45.982-5.923c.177-1.045.453-2.072.822-3.066.736-1.978 2.802-4.552 4.589-5.685a19.4 19.4 0 01.576-.353c11.79-6.877 25.062 3.942 20.397 16.927-.612 1.698-2.141 3.778-3.72 5.133a9.092 9.092 0 01-1.083.802 15.908 15.908 0 01-4.962 2.064 13.777 13.777 0 01-16.619-15.822z" fill="url(#paint5_linear)"/></g><g filter="url(#filter7_di)"><path d="M184.686 24.318l-3.687-1.771a.91.91 0 01-.368-.332.95.95 0 01-.146-.481 16.99 16.99 0 00-.087-1.344 16.052 16.052 0 00-.439-2.434.953.953 0 01.016-.54.924.924 0 01.307-.437l3.379-2.658a.925.925 0 00.208-1.208l-2.078-3.388a.863.863 0 00-.493-.379.836.836 0 00-.611.056l-3.513 1.777a.844.844 0 01-1.026-.193 15.796 15.796 0 00-3.955-3.076.913.913 0 01-.39-.437.952.952 0 01-.052-.591l.57-2.387a.96.96 0 00-.081-.653.91.91 0 00-.479-.435l-3.627-1.349a.842.842 0 00-.741.063.887.887 0 00-.356.405l-1.281 2.843-.31.694a15.308 15.308 0 00-5.066.685.838.838 0 01-.521-.002.864.864 0 01-.425-.311l-2.071-2.813a.895.895 0 00-.557-.352.874.874 0 00-.64.131l-2.509 1.638-.718.472a.934.934 0 00-.39.538.966.966 0 00.058.669l1.438 3.032c.084.169.114.361.084.55a.897.897 0 01-.247.494 16.084 16.084 0 00-2.073 2.697 2.83 2.83 0 00-.153.243.435.435 0 01-.054.08.884.884 0 01-.417.314.855.855 0 01-.515.02l-3.754-.948a.877.877 0 00-.686.117.923.923 0 00-.364.461l-1.312 3.731a.954.954 0 00.015.672.91.91 0 00.451.485l3.847 1.84a.87.87 0 01.383.353.915.915 0 01.123.514 16.948 16.948 0 00.27 3.808.969.969 0 01-.044.514.946.946 0 01-.3.413l-3.247 2.557a.92.92 0 00-.209 1.197l2.061 3.35c.12.197.306.34.523.404a.885.885 0 00.65-.06l2.779-1.408a.869.869 0 01.58-.081.88.88 0 01.504.306 15.83 15.83 0 003.617 3.304.913.913 0 01.353.435c.07.18.083.38.038.567l-.827 3.497a.974.974 0 00.083.671.927.927 0 00.494.444l3.599 1.349a.854.854 0 00.64-.015.89.89 0 00.461-.458l.076-.166 1.487-3.303a.92.92 0 01.361-.412.874.874 0 01.524-.125 15.076 15.076 0 004.23-.294.856.856 0 01.491.036.89.89 0 01.397.303l2.101 2.856a.908.908 0 00.564.357.888.888 0 00.649-.13l3.231-2.12c.088-.06.166-.133.232-.219.1-.137.161-.3.177-.471a.958.958 0 00-.084-.498l-1.149-2.413a.96.96 0 01.059-.92c.048-.07.104-.136.167-.192a16.04 16.04 0 003.858-4.973.888.888 0 01.349-.375.853.853 0 01.641-.091l3.038.77a.87.87 0 00.632-.082.914.914 0 00.418-.495l.031-.086 1.283-3.636a.967.967 0 00-.017-.68.93.93 0 00-.458-.49zm-28.038-3.749c.108-.661.276-1.31.501-1.94.449-1.253 1.709-2.882 2.799-3.598.116-.078.234-.152.35-.224 7.19-4.352 15.282 2.495 12.438 10.714-.373 1.074-1.306 2.39-2.269 3.248a5.465 5.465 0 01-.66.508 9.5 9.5 0 01-3.025 1.306c-5.754 1.322-11.127-3.673-10.134-10.014z" fill="url(#paint6_linear)"/></g><g filter="url(#filter8_di)"><path d="M445.734 174.823c.108-.893.128-1.389.161-2.166a.867.867 0 01.575-.784l2.971-.775a.856.856 0 00.539-1.019l-.985-3.647a.834.834 0 00-.935-.606l-2.942.464a.866.866 0 01-.901-.467c-.422-.846-1.71-2.93-2.716-3.804a.784.784 0 01-.243-.505c-.023-.19.208-.592.308-.756l1.203-1.978a.863.863 0 00-.217-1.134l-2.995-2.273a.869.869 0 00-1.161.105l-2.481 2.709a15.488 15.488 0 00-4.919-.852.85.85 0 01-.794-.555l-1.14-3.126a.879.879 0 00-1.054-.552l-3.604.958a.883.883 0 00-.649.99l.45 2.809a.857.857 0 01-.448.888c-1.044.548-2.564 1.57-3.454 2.342a.874.874 0 01-1.024.086l-2.585-1.329c-.184-.11-.402-.15-.614-.11a.876.876 0 00-.531.326l-2.007 3.174a.864.864 0 00.108 1.172l2.376 1.903a.855.855 0 01.229.925c-.269.734-.514 1.079-.666 1.846-.082.413-.347 1.37-.394 1.781a.886.886 0 01-.583.737l-2.768.926c-.201.072-.317.225-.415.413a.845.845 0 00-.068.612l.625 3.662a.888.888 0 00.375.513.9.9 0 00.623.134l2.194.001c.193-.03.547.023.717.118a.862.862 0 01.378.424 15.37 15.37 0 002.442 4.046.875.875 0 01.083 1.018l-1.282 2.497a.887.887 0 00-.113.626c.041.215.239.527.414.66l2.976 2.259c.22.115.359.128.497.116a.866.866 0 00.561-.278l2.213-2.34a.885.885 0 01.984-.225c.838.325 2.243.664 3.125.837.482.096.963.166 1.442.218a.869.869 0 01.73.566l1.012 2.827a.891.891 0 001.061.552l3.677-.625a.868.868 0 00.64-.973l-.527-2.844a.865.865 0 01.525-.929 15.47 15.47 0 004.995-3.342.865.865 0 011.061-.129l2.393 1.388c.183.11.401.15.612.11a.869.869 0 00.53-.324l2.022-3.159a.87.87 0 00-.108-1.179l-2.531-2.008a.872.872 0 01-.249-.877c.115-.401.184-1.301.276-2.068zm-12.792 5.986c-8.603 2.121-14.443-7.015-9.305-13.653 1.109-1.378 2.856-2.517 4.3-2.892 8.464-2.201 14.298 7.038 9.444 13.514-.801 1.053-2.496 2.48-4.439 3.031z" fill="url(#paint7_linear)"/></g><path d="M385.124 124.432l-8.741-4.625 7.877-1.132 8.741 4.718-7.877 1.039z" fill="#75212E"/><path d="M364.374 158.123l-8.741-4.719v-11.608l8.741 4.625v11.702z" fill="#551721"/><path d="M351.501 129.151l-8.741-4.719 12.872-1.793 18.924 6.417-23.055.095z" fill="#75212E"/><path d="M364.374 127.357l-8.741-4.718.096-22.839 8.741 4.625-.096 22.932zm-32.949 23.688l-8.741-4.719v-16.892l16.906-.284-8.165 21.895z" fill="#551721"/><path d="M352.559 96.12l-4.803-14.156L376.478 78l8.742 4.719-32.661 13.4z" fill="#75212E"/><path d="M331.425 134.152l-8.741-4.718 25.072-47.47 8.741 4.718-25.072 47.47z" fill="#621B26"/><path d="M385.124 124.432l7.877-1.133v19.158l-7.877 1.132v11.608l-20.749 2.832v-11.608l-32.949 4.53v-16.799l24.976-47.47 28.818-3.963-.096 41.713zm-20.749 2.831v-22.839l-12.968 24.632 12.968-1.793z" fill="#912839" stroke="#000" stroke-width=".2" stroke-miterlimit="10"/><path d="M292.902 148.686l-8.742-4.719.192.095 8.742 4.718-.192-.094z" fill="#671D28"/><path d="M293.091 148.78l-8.741-4.718c.384.189.768.283 1.152.377l8.742 4.719c-.384-.094-.769-.189-1.153-.378z" fill="#6A1D2A"/><path d="M290.789 155.481l-5.283-10.948a6.794 6.794 0 003.074.095l24.015.66c-1.056.189-14.217 10.57-15.274 10.382" fill="#5A1923"/><path d="M292.423 154.065l-3.843-9.531c.961-.095 1.825-.378 2.69-.755l24.111-.567c-.864.378-17.675 14.723-18.636 14.911" fill="#5A1923"/><path d="M300.111 148.497l-8.742-4.718c.384-.189.769-.378 1.153-.661l8.742 4.719c-.385.283-.769.471-1.153.66z" fill="#5A1923"/><path d="M301.259 147.836l-8.741-4.718c.288-.189.576-.472.864-.661l8.742 4.719c-.192.189-.481.472-.865.66z" fill="#671D28"/><path d="M302.126 147.176l-8.741-4.719c.288-.188.48-.472.768-.755l8.742 4.719c-.192.283-.48.566-.769.755z" fill="#641C27"/><path d="M286.66 149.346l7.493-7.644c.288-.283.48-.566.672-.849l12.104 3.114c-.192.283-3.842 2.265-4.034 2.548" fill="#5A1923"/><path d="M303.566 145.572l-8.742-4.719c.288-.378.481-.755.769-1.227l8.741 4.719c-.192.472-.48.849-.768 1.227z" fill="#5D1A24"/><path d="M300.399 154.16l-4.803-14.534a8.88 8.88 0 00.864-1.982l8.742 4.719-.865 1.982" fill="#5A1923"/><path d="M294.73 141.891l1.729-4.152c1.153-3.115 1.73-7.267 1.73-12.552 0-8.966-1.537-14.25-4.996-16.138l8.742 4.719c3.458 1.793 12.392 4.624 12.392 13.59 0 5.284-2.306 16.515-3.458 19.629" fill="#5A1923"/><path d="M294.631 104.425l-5.86-15.477c3.651-.567 7.301-.378 10.855.471l8.742 4.719c-3.554-.85-1.537 10.759-5.187 11.325" fill="#6E1E2B"/><path d="M292.998 99.14l6.628-9.72c1.441.377 2.882.849 4.227 1.51l8.742 4.718c-1.345-.66-14.794 9.154-16.235 8.777" fill="#6A1D2A"/><path d="M312.595 95.648l-8.741-4.719.768.378 8.742 4.718a2.887 2.887 0 01-.769-.377z" fill="#671D28"/><path d="M281.467 166.239l-8.742-4.718c-9.702-5.191-14.505-17.271-14.409-30.955a55.099 55.099 0 013.17-18.497l17.963-.661c-2.113 5.946-5.187 21.329-5.187 27.557.096 13.779-2.497 22.178 7.205 27.274z" fill="#561822"/><path d="M272.245 118.203l-10.663-6.134a51.19 51.19 0 012.594-5.663l19.02 2.643c-.961 1.793-12.104 5.851-12.776 7.833" fill="#5A1923"/><path d="M272.822 111.125l-8.742-4.718c.769-1.322 1.537-2.643 2.498-3.87l22.19 1.888c-.961 1.321-15.178 5.379-15.946 6.7z" fill="#5D1A24"/><path d="M275.318 107.256l-8.742-4.719c.769-1.132 1.633-2.17 2.498-3.114l19.692 2.17c-.96.944-12.68 4.53-13.448 5.663z" fill="#601B26"/><path d="M280.604 105.652l-11.528-6.229c.865-.944 1.729-1.887 2.69-2.737l11.719 5.757c-.96.849-2.017 3.02-2.881 3.964" fill="#641C27"/><path d="M280.509 101.405l-8.741-4.719c1.056-.849 2.113-1.698 3.17-2.453l19.788 3.397c-1.152.755-15.273 14.439-16.33 15.289" fill="#671D28"/><path d="M283.675 98.951l-8.741-4.718c1.441-.944 2.881-1.794 4.418-2.549l21.614 6.701c-1.441.755-15.85-.378-17.291.566z" fill="#6A1D2A"/><path d="M291.359 100.933l-11.912-9.249c2.978-1.32 6.148-2.264 9.318-2.736l18.252 5.756c-3.266.472-14.89 4.814-17.867 6.135" fill="#6E1E2B"/><path d="M297.511 93.666c20.461-2.831 30.259 13.59 30.259 33.22 0 19.629-9.99 38.881-30.451 41.713-20.461 2.831-30.356-13.59-30.26-33.314.096-19.724 9.991-38.788 30.452-41.619zm-.096 55.68c6.532-.943 9.606-7.172 9.606-19.535s-2.978-17.648-9.51-16.704c-6.532.944-9.51 7.078-9.606 19.347-.096 12.268 2.882 17.742 9.51 16.892z" fill="#912839" stroke="#000" stroke-width=".2" stroke-miterlimit="10"/><path d="M251.31 149.912l-4.611-12.268 7.877-1.038 8.742 4.718-12.008 8.588z" fill="#75212E"/><path d="M234.691 175.959l-8.742-4.624v-11.608l14.698 1.038-5.956 15.194z" fill="#551721"/><path d="M221.818 146.987l-8.742-4.624 12.872-1.793 18.348 5.379-22.478 1.038z" fill="#75212E"/><path d="M234.691 145.194l-8.742-4.625.096-22.838 8.742 4.624-.096 22.839zm-32.949 23.687L193 164.257v-16.893h14.986l-6.244 21.517z" fill="#551721"/><path d="M223.932 109.049l-5.86-9.155 28.723-3.963 8.741 4.624-31.604 8.494z" fill="#75212E"/><path d="M201.742 152.083L193 147.364l25.072-47.47 8.742 4.625-25.072 47.564z" fill="#621B26"/><path d="M255.441 142.362l7.877-1.132v19.158l-7.877 1.038v11.608l-20.75 2.831v-11.608l-32.949 4.624v-16.798l24.976-47.47 28.723-4.058v41.807zm-20.75 2.832v-22.839l-12.968 24.632 12.968-1.793z" fill="#912839" stroke="#000" stroke-width=".2" stroke-miterlimit="10"/><defs><filter id="filter0_d" x="0" y="148.13" width="578" height="222.87" filterUnits="userSpaceOnUse" color-interpolation-filters="sRGB"><feFlood flood-opacity="0" result="BackgroundImageFix"/><feColorMatrix in="SourceAlpha" values="0 0 0 0 0 0 0 0 0 0 0 0 0 0 0 0 0 0 127 0"/><feOffset dx="2" dy="2"/><feGaussianBlur stdDeviation="2"/><feColorMatrix values="0 0 0 0 0 0 0 0 0 0 0 0 0 0 0 0 0 0 0.1 0"/><feBlend in2="BackgroundImageFix" result="effect1_dropShadow"/><feBlend in="SourceGraphic" in2="effect1_dropShadow" result="shape"/></filter><filter id="filter1_f" x="155.168" y="100.289" width="276.694" height="241.313" filterUnits="userSpaceOnUse" color-interpolation-filters="sRGB"><feFlood flood-opacity="0" result="BackgroundImageFix"/><feBlend in="SourceGraphic" in2="BackgroundImageFix" result="shape"/><feGaussianBlur stdDeviation="40" result="effect1_foregroundBlur"/></filter><filter id="filter2_i" x="99.519" y="206.752" width="40.641" height="53.217" filterUnits="userSpaceOnUse" color-interpolation-filters="sRGB"><feFlood flood-opacity="0" result="BackgroundImageFix"/><feBlend in="SourceGraphic" in2="BackgroundImageFix" result="shape"/><feColorMatrix in="SourceAlpha" values="0 0 0 0 0 0 0 0 0 0 0 0 0 0 0 0 0 0 127 0" result="hardAlpha"/><feOffset dx="-4"/><feGaussianBlur stdDeviation="4"/><feComposite in2="hardAlpha" operator="arithmetic" k2="-1" k3="1"/><feColorMatrix values="0 0 0 0 0 0 0 0 0 0 0 0 0 0 0 0 0 0 0.3 0"/><feBlend in2="shape" result="effect1_innerShadow"/></filter><filter id="filter3_i" x="443.961" y="206.752" width="40.641" height="53.217" filterUnits="userSpaceOnUse" color-interpolation-filters="sRGB"><feFlood flood-opacity="0" result="BackgroundImageFix"/><feBlend in="SourceGraphic" in2="BackgroundImageFix" result="shape"/><feColorMatrix in="SourceAlpha" values="0 0 0 0 0 0 0 0 0 0 0 0 0 0 0 0 0 0 127 0" result="hardAlpha"/><feOffset dx="-4"/><feGaussianBlur stdDeviation="4"/><feComposite in2="hardAlpha" operator="arithmetic" k2="-1" k3="1"/><feColorMatrix values="0 0 0 0 0 0 0 0 0 0 0 0 0 0 0 0 0 0 0.3 0"/><feBlend in2="shape" result="effect1_innerShadow"/></filter><filter id="filter4_di" x="351.771" y=".814" width="50.343" height="48.695" filterUnits="userSpaceOnUse" color-interpolation-filters="sRGB"><feFlood flood-opacity="0" result="BackgroundImageFix"/><feColorMatrix in="SourceAlpha" values="0 0 0 0 0 0 0 0 0 0 0 0 0 0 0 0 0 0 127 0"/><feOffset dx="2" dy="2"/><feGaussianBlur stdDeviation="2"/><feColorMatrix values="0 0 0 0 0 0 0 0 0 0 0 0 0 0 0 0 0 0 0.15 0"/><feBlend in2="BackgroundImageFix" result="effect1_dropShadow"/><feBlend in="SourceGraphic" in2="effect1_dropShadow" result="shape"/><feColorMatrix in="SourceAlpha" values="0 0 0 0 0 0 0 0 0 0 0 0 0 0 0 0 0 0 127 0" result="hardAlpha"/><feOffset dx="-2" dy="-2"/><feGaussianBlur stdDeviation="2"/><feComposite in2="hardAlpha" operator="arithmetic" k2="-1" k3="1"/><feColorMatrix values="0 0 0 0 0 0 0 0 0 0 0 0 0 0 0 0 0 0 0.2 0"/><feBlend in2="shape" result="effect2_innerShadow"/></filter><filter id="filter5_di" x="57" y="87.087" width="73.957" height="72.298" filterUnits="userSpaceOnUse" color-interpolation-filters="sRGB"><feFlood flood-opacity="0" result="BackgroundImageFix"/><feColorMatrix in="SourceAlpha" values="0 0 0 0 0 0 0 0 0 0 0 0 0 0 0 0 0 0 127 0"/><feOffset dx="2" dy="2"/><feGaussianBlur stdDeviation="2"/><feColorMatrix values="0 0 0 0 0 0 0 0 0 0 0 0 0 0 0 0 0 0 0.15 0"/><feBlend in2="BackgroundImageFix" result="effect1_dropShadow"/><feBlend in="SourceGraphic" in2="effect1_dropShadow" result="shape"/><feColorMatrix in="SourceAlpha" values="0 0 0 0 0 0 0 0 0 0 0 0 0 0 0 0 0 0 127 0" result="hardAlpha"/><feOffset dx="-2" dy="-2"/><feGaussianBlur stdDeviation="2"/><feComposite in2="hardAlpha" operator="arithmetic" k2="-1" k3="1"/><feColorMatrix values="0 0 0 0 0 0 0 0 0 0 0 0 0 0 0 0 0 0 0.2 0"/><feBlend in2="shape" result="effect2_innerShadow"/></filter><filter id="filter6_di" x="451.115" y="53.718" width="74.771" height="72.298" filterUnits="userSpaceOnUse" color-interpolation-filters="sRGB"><feFlood flood-opacity="0" result="BackgroundImageFix"/><feColorMatrix in="SourceAlpha" values="0 0 0 0 0 0 0 0 0 0 0 0 0 0 0 0 0 0 127 0"/><feOffset dx="2" dy="2"/><feGaussianBlur stdDeviation="2"/><feColorMatrix values="0 0 0 0 0 0 0 0 0 0 0 0 0 0 0 0 0 0 0.15 0"/><feBlend in2="BackgroundImageFix" result="effect1_dropShadow"/><feBlend in="SourceGraphic" in2="effect1_dropShadow" result="shape"/><feColorMatrix in="SourceAlpha" values="0 0 0 0 0 0 0 0 0 0 0 0 0 0 0 0 0 0 127 0" result="hardAlpha"/><feOffset dx="-2" dy="-2"/><feGaussianBlur stdDeviation="2"/><feComposite in2="hardAlpha" operator="arithmetic" k2="-1" k3="1"/><feColorMatrix values="0 0 0 0 0 0 0 0 0 0 0 0 0 0 0 0 0 0 0.2 0"/><feBlend in2="shape" result="effect2_innerShadow"/></filter><filter id="filter7_di" x="142.5" y="0" width="48.714" height="48.695" filterUnits="userSpaceOnUse" color-interpolation-filters="sRGB"><feFlood flood-opacity="0" result="BackgroundImageFix"/><feColorMatrix in="SourceAlpha" values="0 0 0 0 0 0 0 0 0 0 0 0 0 0 0 0 0 0 127 0"/><feOffset dx="2" dy="2"/><feGaussianBlur stdDeviation="2"/><feColorMatrix values="0 0 0 0 0 0 0 0 0 0 0 0 0 0 0 0 0 0 0.15 0"/><feBlend in2="BackgroundImageFix" result="effect1_dropShadow"/><feBlend in="SourceGraphic" in2="effect1_dropShadow" result="shape"/><feColorMatrix in="SourceAlpha" values="0 0 0 0 0 0 0 0 0 0 0 0 0 0 0 0 0 0 127 0" result="hardAlpha"/><feOffset dx="-2" dy="-2"/><feGaussianBlur stdDeviation="2"/><feComposite in2="hardAlpha" operator="arithmetic" k2="-1" k3="1"/><feColorMatrix values="0 0 0 0 0 0 0 0 0 0 0 0 0 0 0 0 0 0 0.2 0"/><feBlend in2="shape" result="effect2_innerShadow"/></filter><filter id="filter8_di" x="409.332" y="151.073" width="46.676" height="46.738" filterUnits="userSpaceOnUse" color-interpolation-filters="sRGB"><feFlood flood-opacity="0" result="BackgroundImageFix"/><feColorMatrix in="SourceAlpha" values="0 0 0 0 0 0 0 0 0 0 0 0 0 0 0 0 0 0 127 0"/><feOffset dx="2" dy="2"/><feGaussianBlur stdDeviation="2"/><feColorMatrix values="0 0 0 0 0 0 0 0 0 0 0 0 0 0 0 0 0 0 0.15 0"/><feBlend in2="BackgroundImageFix" result="effect1_dropShadow"/><feBlend in="SourceGraphic" in2="effect1_dropShadow" result="shape"/><feColorMatrix in="SourceAlpha" values="0 0 0 0 0 0 0 0 0 0 0 0 0 0 0 0 0 0 127 0" result="hardAlpha"/><feOffset dx="-2" dy="-2"/><feGaussianBlur stdDeviation="2"/><feComposite in2="hardAlpha" operator="arithmetic" k2="-1" k3="1"/><feColorMatrix values="0 0 0 0 0 0 0 0 0 0 0 0 0 0 0 0 0 0 0.2 0"/><feBlend in2="shape" result="effect2_innerShadow"/></filter><linearGradient id="paint1_linear" x1="116.663" y1="256.65" x2="96.644" y2="242.995" gradientUnits="userSpaceOnUse"><stop stop-opacity=".4"/><stop offset="1" stop-color="#B4D1FA" stop-opacity="0"/></linearGradient><linearGradient id="paint2_linear" x1="469.765" y1="262.904" x2="434.541" y2="237.662" gradientUnits="userSpaceOnUse"><stop stop-opacity=".4"/><stop offset="1" stop-color="#B4D1FA" stop-opacity="0"/></linearGradient><linearGradient id="paint3_linear" x1="394.809" y1="23.162" x2="355.026" y2="22.273" gradientUnits="userSpaceOnUse"><stop stop-color="#A62E41"/><stop offset="1" stop-color="#E13152"/></linearGradient><linearGradient id="paint4_linear" x1="122.924" y1="121.237" x2="60.953" y2="119.872" gradientUnits="userSpaceOnUse"><stop stop-color="#A62E41"/><stop offset="1" stop-color="#E13152"/></linearGradient><linearGradient id="paint5_linear" x1="486.501" y1="55.718" x2="486.501" y2="120.016" gradientUnits="userSpaceOnUse"><stop stop-color="#0A3D76"/><stop offset="1" stop-color="#0C53A3"/></linearGradient><linearGradient id="paint6_linear" x1="164.857" y1="2" x2="164.857" y2="42.695" gradientUnits="userSpaceOnUse"><stop stop-color="#0A3D76"/><stop offset="1" stop-color="#0C53A3"/></linearGradient><linearGradient id="paint7_linear" x1="432.278" y1="153.423" x2="428.949" y2="191.531" gradientUnits="userSpaceOnUse"><stop stop-color="#0A3D76"/><stop offset="1" stop-color="#0C53A3"/></linearGradient><radialGradient id="paint0_radial" cx="0" cy="0" r="1" gradientUnits="userSpaceOnUse" gradientTransform="matrix(0 32.2448 -46.2753 0 292.844 206.926)"><stop stop-color="#0095FF"/><stop offset="1" stop-color="#BCE3FF"/></radialGradient></defs></svg>