<svg width="708" height="426" viewBox="0 0 708 426" fill="none" xmlns="http://www.w3.org/2000/svg">
<g filter="url(#filter0_d)">
<path d="M356.536 420L702 293.197L346.068 156L2 286.268L356.536 420Z" fill="#B4D1FA"/>
</g>
<path d="M507 274.461C507 302.904 441.186 325.961 360 325.961C278.814 325.961 213 302.904 213 274.461C213 246.019 278.814 222.961 360 222.961C441.186 222.961 507 246.019 507 274.461Z" fill="#022C4B"/>
<path d="M360 222.961C278.814 222.961 213 246.221 213 274.914C213 278.679 215.227 286.208 217.455 286.961C229.333 245.549 301.433 234.255 360 234.255C427.48 234.255 498.091 254.585 504.03 285.455C507 280.938 507 277.926 507 274.914C507 246.221 441.186 222.961 360 222.961Z" fill="#184D76"/>
<mask id="mask0" mask-type="alpha" maskUnits="userSpaceOnUse" x="213" y="0" width="303" height="326">
<path d="M360.076 325.761C441.103 325.761 506.788 302.876 506.788 274.646L516 0H213.365V274.646C213.365 302.876 279.05 325.761 360.076 325.761Z" fill="#C4C4C4"/>
</mask>
<g mask="url(#mask0)">
<path d="M360.323 356.275L256.709 317.171L256.674 191.874L360.323 230.978V356.275Z" fill="#053866"/>
<path d="M465.019 316.552L360.326 277.42L359.852 152.106L361.639 150.624L465.012 190.969L465.019 316.552Z" fill="#083556"/>
<path d="M360.326 356.275L464.976 316.52L465.012 190.839L360.362 230.271L360.326 356.275Z" fill="#054270"/>
<path d="M256.709 316.984L361.994 274.556L360.381 151.662L359.134 150.624L256.674 191.008L256.709 316.984Z" fill="#063D66"/>
<g filter="url(#filter1_f)">
<ellipse cx="360" cy="243.007" rx="71.6544" ry="49.9526" fill="url(#paint0_radial)"/>
</g>
<path d="M360.329 356.277L256.715 317.171L256.68 191.874L360.329 230.978V356.277Z" fill="#053866"/>
<path d="M282.594 233.233L256.717 223.383L256.682 191.874L282.594 201.937V233.233Z" fill="#053866"/>
<path d="M263.566 221.853C261.232 221.912 258.911 221.491 256.746 220.616L256.676 217.292C261.941 219.308 266.994 218.919 270.88 216.232C275.509 213.05 278.442 207.782 278.442 200.145L281.552 201.383C281.552 210.08 278.972 214.959 273.495 218.742C270.556 220.717 267.107 221.798 263.566 221.853V221.853Z" fill="#FF8098"/>
<path d="M308.5 242.538L282.588 232.638V201.179L308.5 211.079V242.538Z" fill="#0E2951"/>
<path d="M334.412 252.878L308.5 242.977V211.519L334.412 221.383V252.878Z" fill="#FF8098"/>
<path d="M360.326 262.18L334.414 252.401V220.825L360.502 230.528L360.326 262.18Z" fill="#911A31"/>
<path d="M282.588 264.252L256.676 254.387V222.893L282.588 232.793V264.252Z" fill="#911A31"/>
<path d="M308.502 273.557L282.59 263.905V233.233L308.502 242.885V273.557Z" fill="#C43B55"/>
<path d="M334.412 283.897L308.5 273.996V242.538L334.412 252.438V283.897Z" fill="#053866"/>
<path d="M360.326 293.202L334.414 283.656L334.448 252.408L360.326 262.154V293.202Z" fill="#132F7C"/>
<path d="M308.502 305.61L282.59 295.746V263.91L308.502 273.549V305.61Z" fill="#FF8098"/>
<path d="M334.418 314.916L308.506 305.015V273.557L334.418 283.457V314.916Z" fill="#0E2951"/>
<path d="M360.328 325.256L334.416 315.465V283.897L360.328 293.688V325.256Z" fill="#053866"/>
<path d="M282.588 326.902L256.676 317.152V285.543L282.588 295.271V326.902Z" fill="#C43B55"/>
<path d="M308.5 336.629L282.588 326.756V295.271L308.5 305.143V336.629Z" fill="#053866"/>
<path d="M334.412 346.385L308.5 336.485V305.026L334.412 314.927V346.385Z" fill="#FF8098"/>
<path d="M360.326 356.275L334.414 346.539V314.916L360.326 325.079V356.275Z" fill="#911A31"/>
<path d="M262.034 215.654C260.194 215.681 258.369 215.322 256.676 214.6V210.787C260.441 212.24 265.111 211.732 267.428 210.206C271.301 207.628 273.183 203.634 273.183 198.078L276.369 199.349C276.369 206.176 273.944 210.352 269.6 213.366C267.36 214.864 264.726 215.66 262.034 215.654V215.654Z" fill="#D6516B"/>
<path d="M260.181 208.416C258.98 208.441 257.787 208.206 256.676 207.727V203.706C258.94 204.625 262.445 204.396 264.381 202.366C266.389 200.26 266.937 198.537 266.937 194.976L270.15 196.316C270.15 201.217 268.544 204.549 265.513 206.731C263.935 207.837 262.079 208.423 260.181 208.416V208.416Z" fill="#C43B55"/>
<path d="M258.326 201.167C257.758 201.22 257.188 201.103 256.676 200.828V196.868C257.226 197.094 259.014 197.245 259.701 196.868C260.905 196.189 260.905 194.869 260.32 192.908L263.93 194.228C263.93 196.981 263.036 198.904 261.351 200.186C260.448 200.822 259.399 201.162 258.326 201.167Z" fill="#A62E41"/>
<path d="M359.926 320.086L337.523 311.821V258.048L360.326 266.17V270.533L341.385 263.439V309.958L359.605 317.452L359.926 320.086Z" fill="#C43B55"/>
<path d="M360.326 321.12L337.523 312.09V284.784L341.385 286.176V309.525L360.326 316.798V321.12Z" fill="#F985A0"/>
<path d="M359.902 311.757L343.742 306.661V267.353L360.326 273.229V277.663L347.603 272.869V304.845L360.326 309.279L359.902 311.757Z" fill="#C43B55"/>
<path d="M359.903 303.064L351 300.666V278.727L360.328 281.962V286.288L354.724 284.108V298.668L360.328 301.094L359.903 303.064Z" fill="#C43B55"/>
<path d="M360.328 304.576L351 300.948V289.752L354.724 291.102V298.386L360.328 300.201V304.576Z" fill="#F985A0"/>
<path d="M360.326 312.848L343.742 306.772V287.093L347.603 288.526V304.208L360.326 308.528V312.848Z" fill="#F985A0"/>
<path d="M276.369 324.581L256.676 317.152V293.202L276.369 300.63V324.581Z" fill="#053866"/>
<path d="M269.114 321.836L256.676 317.152V301.474L269.114 306.42V321.836Z" fill="#FF8098"/>
<path d="M334.412 232.404L324.934 248.741L308.5 230.958L317.978 214.62L334.412 232.404Z" fill="#C43B55"/>
<path d="M328.195 232.029L323.239 240.47L314.721 231.298L319.641 222.893L328.195 232.029Z" fill="#911A31"/>
<path d="M334.412 346.312L308.5 336.381V311.157L334.412 321.052V346.312Z" fill="#C43B55"/>
<path d="M334.412 346.103L308.5 335.911V317.152L334.412 327.307V346.103Z" fill="#911A31"/>
<path d="M334.412 346.059L308.5 335.919V324.346L334.412 334.449V346.059Z" fill="#053866"/>
<path d="M282.588 240.47L308.5 250.131L282.588 257.692L308.5 267.353L282.588 240.47Z" fill="#911A31"/>
<path d="M259.785 255.98L256.676 254.71V222.893L259.785 224.162V255.98Z" fill="#FF8098"/>
<path d="M264.966 257.014L261.857 255.785V224.961L264.966 226.225V257.014Z" fill="#FF8098"/>
<path d="M281.55 263.217L277.404 261.987V231.164L281.55 232.394V263.217Z" fill="#FF8098"/>
<path d="M275.332 261.149L272.223 259.919V229.096L275.332 230.326V261.149Z" fill="#FF8098"/>
<path d="M270.152 259.081L267.043 257.851V227.028L270.152 228.258V259.081Z" fill="#FF8098"/>
<path d="M282.588 295.271L256.676 285.37V253.912L282.588 263.776V295.271Z" fill="#0E2951"/>
<path d="M282.588 295.27L269.113 290.325V274.591L282.588 279.537V295.27Z" fill="#911A31"/>
<path d="M269.114 274.591L256.676 269.637V253.912L269.114 258.604V274.591Z" fill="#911A31"/>
<path fill-rule="evenodd" clip-rule="evenodd" d="M285.699 300.441L304.485 307.827L303.489 310.554L288.51 304.665V322.738L302.581 328.27V314.705L291.689 310.416V320.077L299.403 323.12V317.295L294.833 315.493V317.485L298.163 318.796L297.166 321.522L292.021 319.497V311.265L302.214 315.284V327.35L288.877 322.087V306.19L305.393 312.693V332.494L285.699 324.751V300.441Z" fill="#F985A0"/>
<path fill-rule="evenodd" clip-rule="evenodd" d="M341.217 320.086L358.253 349.984L354.559 352.139L337.523 322.24L341.217 320.086Z" fill="#0E2951"/>
<path d="M317.831 289.067L313.686 287.336V281.829L317.831 283.56V289.067Z" fill="#911A31"/>
<path d="M323.011 298.372L318.865 296.651V291.135L323.011 292.856V298.372Z" fill="#911A31"/>
<path d="M329.233 306.645L325.088 305.161V300.441L329.233 301.924V306.645Z" fill="#911A31"/>
<path d="M360.503 230.527L465.012 190.84V316.664L360.326 356.275L360.503 230.527Z" fill="#053866"/>
<path d="M439.1 263.804L465.012 253.912V285.379L439.1 295.271V263.804Z" fill="#911A31"/>
<path d="M412.15 273.904L439.099 264.252V294.959L412.15 304.576V273.904Z" fill="#C43B55"/>
<path d="M386.238 283.457L412.151 273.557V305.015L386.238 314.916V283.457Z" fill="#053866"/>
<path d="M360.326 293.182L386.238 283.869V315.247L360.326 325.256V293.182Z" fill="#132F7C"/>
<path d="M412.15 242.099L439.099 232.199V264.398L412.15 273.989V242.099Z" fill="#FF8098"/>
<path d="M386.238 252.439L412.151 242.538V273.997L386.238 283.897V252.439Z" fill="#0E2951"/>
<path d="M360.326 261.853L386.238 251.844V283.193L360.326 293.202V261.853Z" fill="#053866"/>
<path d="M412.154 304.563L439.144 294.955L438.964 326.444L412.154 336.661V304.563Z" fill="#0E2951"/>
<path d="M386.238 315.054L412.151 304.577V336.665L386.238 346.439V315.054Z" fill="#FF8098"/>
<path d="M360.326 325.08L386.238 315.054V346.458L360.326 356.273V325.08Z" fill="#911A31"/>
<path d="M439.1 200.768L465.012 190.84V222.307L439.1 232.199V200.768Z" fill="#C43B55"/>
<path d="M412.148 211.08L439.097 201.18V232.639L412.148 242.539V211.08Z" fill="#053866"/>
<path d="M386.234 221.172L412.147 211.519V242.191L386.234 251.844V221.172Z" fill="#FF8098"/>
<path d="M360.468 230.512L386.238 220.825V252.175L360.326 262.184L360.468 230.512Z" fill="#911A31"/>
<path d="M360.322 321.092V316.836L379.305 309.186V263.466L360.634 270.301L359.287 266.831L383.126 258.048V311.736L360.322 321.092Z" fill="#C43B55"/>
<path d="M383.129 285.108L379.309 286.376V263.496L360.326 270.539V266.196L383.129 258.048V285.108Z" fill="#F985A0"/>
<path d="M360.326 312.849V308.501L373.197 303.271V272.523L360.326 277.506V273.159L376.91 268.388V305.851L360.326 312.849Z" fill="#C43B55"/>
<path d="M360.322 304.607V300.198L365.899 298.288V283.981L360.61 285.916L359.287 282.529L369.652 278.728V300.81L360.322 304.607Z" fill="#C43B55"/>
<path d="M369.655 289.919L365.893 291.135V284.011L360.326 286.279V281.956L369.655 278.728V289.919Z" fill="#F985A0"/>
<path d="M376.91 287.285L373.197 288.526V272.677L360.326 277.652V273.228L376.91 267.354V287.285Z" fill="#F985A0"/>
<path d="M451.535 195.813L465.01 190.84V206.582L451.535 211.519V195.813Z" fill="#FF8098"/>
<path d="M386.234 334.647L395.719 311.815L412.147 316.9L402.662 339.732L386.234 334.647Z" fill="#C43B55"/>
<path d="M392.453 329.856L397.369 318.019L405.928 320.657L400.975 332.494L392.453 329.856Z" fill="#911A31"/>
<path d="M386.234 221.158L412.147 211.519V236.036L386.234 245.64V221.158Z" fill="#C43B55"/>
<path d="M386.234 221.347L412.147 211.519V229.644L386.234 239.436V221.347Z" fill="#911A31"/>
<path d="M386.234 221.177L412.147 211.519V222.576L386.234 232.199V221.177Z" fill="#053866"/>
<path d="M386.234 221.383L412.147 211.519V217.166L386.234 227.029V221.383Z" fill="#0E2951"/>
<path d="M439.097 287.678L412.148 297.34L439.097 270.456L412.148 280.118" fill="#911A31"/>
<path d="M465.009 285.754L460.863 287V255.193L465.009 253.912V285.754Z" fill="#FF8098"/>
<path d="M459.825 287.134L455.734 288.677L455.68 257.21L459.825 255.98V287.134Z" fill="#FF8098"/>
<path d="M444.28 293.007L440.164 294.671L440.135 263.414L444.203 262.184L444.28 293.007Z" fill="#FF8098"/>
<path d="M449.462 290.939L445.316 292.873V261.346L449.462 260.116V290.939Z" fill="#FF8098"/>
<path d="M454.643 288.871L450.498 291.531V259.278L454.643 258.048V288.871Z" fill="#FF8098"/>
<path d="M439.1 232.794L465.012 222.893V254.352L439.1 264.252V232.794Z" fill="#0E2951"/>
<path d="M439.1 294.832L465.012 284.932V316.39L439.1 326.291V294.832Z" fill="#053866"/>
<path d="M439.1 232.762L451.538 228.063V243.01L439.1 247.709V232.762Z" fill="#911A31"/>
<path d="M442.259 325.245L438.965 326.444C438.965 305.251 450.992 292.226 465.012 286.999V290.128C452.362 294.858 442.259 310.915 442.259 325.245Z" fill="#FF8098"/>
<path d="M449.446 322.547L445.553 324.046C445.553 308.914 454.403 297.157 465.01 293.203V296.977C455.743 300.464 449.446 311.44 449.446 322.547Z" fill="#D6516B"/>
<path d="M455.735 320.149L452.74 321.348C452.74 312.161 457.937 303.021 465.009 300.366V303.934C459.5 306.03 455.735 313.547 455.735 320.149Z" fill="#C43B55"/>
<path d="M461.959 317.809L459.028 318.95C458.398 313.974 461.199 309.018 465.018 307.56L465.007 311.589C462.625 312.478 461.959 314.788 461.959 317.809Z" fill="#A62E41"/>
<path fill-rule="evenodd" clip-rule="evenodd" d="M435.986 205.315V230.178L417.249 237.368L416.206 234.579L433.042 228.119V209.634L418.2 215.33V229.208L429.714 224.813V214.931L421.528 218.055V223.977L426.35 222.128V220.128L423.906 221.067L422.862 218.279L429.294 215.806V224.189L418.584 228.294V215.991L432.658 210.62V226.877L415.256 233.519V213.27L435.986 205.315Z" fill="#F985A0"/>
<path fill-rule="evenodd" clip-rule="evenodd" d="M362.395 255.814L380.306 224.961L384.161 227.195L366.249 258.048L362.395 255.814Z" fill="#0E2951"/>
<path fill-rule="evenodd" clip-rule="evenodd" d="M380.068 251.844L362.395 234.392L365.451 231.165L383.124 248.617L380.068 251.844Z" fill="#0E2951"/>
<path d="M402.818 265.983L406.964 264.252V269.759L402.818 271.49V265.983Z" fill="#911A31"/>
<path d="M397.639 261.591L401.784 260.116V264.844L397.639 266.32V261.591Z" fill="#911A31"/>
<path d="M391.416 256.43L395.561 254.946V259.667L391.416 261.15V256.43Z" fill="#911A31"/>
<path d="M445.316 198.552L465.01 190.84V215.254L445.316 222.893V198.552Z" fill="#053866"/>
<path d="M451.535 243.357L465.01 238.402V254.507L451.542 259.466L451.535 243.357Z" fill="#911A31"/>
<path opacity="0.3" d="M257.1 191.232L360.39 230.341V356.41L256.639 317.301L257.1 191.232Z" fill="black"/>
<path d="M503.364 152.547L464.422 190.841L360.389 151.664L399.233 113.293L503.364 152.547Z" fill="#084C80"/>
<path d="M360.503 230.527L321.516 269.422L217.291 230.326L257.301 191.323L360.503 230.527Z" fill="#094573"/>
<path d="M360.388 151.663L322.118 113.014L218.023 152.413L256.893 191.596L360.388 151.663Z" fill="#084C80"/>
<path d="M503.362 229.516L464.489 190.839L360.326 230.564L399.414 269.421L503.362 229.516Z" fill="#084C80"/>
</g>
<defs>
<filter id="filter0_d" x="0" y="154" width="708" height="272" filterUnits="userSpaceOnUse" color-interpolation-filters="sRGB">
<feFlood flood-opacity="0" result="BackgroundImageFix"/>
<feColorMatrix in="SourceAlpha" type="matrix" values="0 0 0 0 0 0 0 0 0 0 0 0 0 0 0 0 0 0 127 0"/>
<feOffset dx="2" dy="2"/>
<feGaussianBlur stdDeviation="2"/>
<feColorMatrix type="matrix" values="0 0 0 0 0 0 0 0 0 0 0 0 0 0 0 0 0 0 0.1 0"/>
<feBlend mode="normal" in2="BackgroundImageFix" result="effect1_dropShadow"/>
<feBlend mode="normal" in="SourceGraphic" in2="effect1_dropShadow" result="shape"/>
</filter>
<filter id="filter1_f" x="208.346" y="113.054" width="303.309" height="259.905" filterUnits="userSpaceOnUse" color-interpolation-filters="sRGB">
<feFlood flood-opacity="0" result="BackgroundImageFix"/>
<feBlend mode="normal" in="SourceGraphic" in2="BackgroundImageFix" result="shape"/>
<feGaussianBlur stdDeviation="40" result="effect1_foregroundBlur"/>
</filter>
<radialGradient id="paint0_radial" cx="0" cy="0" r="1" gradientUnits="userSpaceOnUse" gradientTransform="translate(359.177 225.782) rotate(90) scale(39.6176 56.8294)">
<stop stop-color="#0095FF"/>
<stop offset="1" stop-color="#BCE3FF"/>
</radialGradient>
</defs>
</svg>
