<svg width="90" height="87" viewBox="0 0 90 87" fill="none" xmlns="http://www.w3.org/2000/svg">
<g filter="url(#filter0_di)">
<path d="M82.2233 45.1017L74.8637 41.682C74.5643 41.5404 74.3099 41.3187 74.1288 41.0415C73.9477 40.7644 73.8469 40.4426 73.8376 40.1117C73.8152 39.2522 73.7575 38.3852 73.6625 37.5163C73.496 35.9284 73.2033 34.3562 72.7873 32.8147C72.6933 32.4719 72.7044 32.1089 72.8193 31.7725C72.9342 31.4362 73.1475 31.142 73.4316 30.9281L80.1767 25.7949C80.5274 25.5299 80.7651 25.1423 80.8421 24.7097C80.9191 24.2771 80.8298 23.8314 80.592 23.4618L76.4447 16.9183C76.2177 16.5623 75.8676 16.3021 75.461 16.1872C75.0545 16.0723 74.6199 16.1107 74.2398 16.295L67.2266 19.7277C66.8911 19.8965 66.5096 19.9516 66.1399 19.8844C65.7703 19.8173 65.4327 19.6316 65.1781 19.3556C62.8774 16.9706 60.213 14.9649 57.284 13.413C56.9387 13.2253 56.665 12.929 56.5054 12.5701C56.3458 12.2112 56.3092 11.8096 56.4013 11.4278L57.5391 6.81927C57.6412 6.393 57.5839 5.94417 57.3782 5.55706C57.1725 5.16995 56.8324 4.87118 56.4218 4.71686L49.1813 2.11211C49.0382 2.05577 48.8877 2.02067 48.7344 2.00792C48.3749 1.97344 48.0136 2.05211 47.701 2.23293C47.3885 2.41374 47.1404 2.68765 46.9913 3.01633L44.4345 8.50678L43.8143 9.84636C42.3516 9.79738 40.8874 9.85209 39.4324 10.0101C37.4905 10.2177 35.5721 10.6057 33.7023 11.1692C33.3632 11.2749 32.9998 11.2736 32.6615 11.1654C32.3233 11.0572 32.0266 10.8474 31.8121 10.5645L27.6779 5.13176C27.4058 4.77416 27.0091 4.53185 26.5665 4.45292C26.1239 4.37399 25.6677 4.46422 25.2886 4.7057L20.281 7.86861L18.8471 8.78028C18.468 9.01854 18.1906 9.38848 18.0682 9.81889C17.9458 10.2493 17.9871 10.7097 18.1841 11.1115L21.0539 16.9666C21.2222 17.2934 21.2816 17.6654 21.2233 18.0282C21.165 18.3911 20.9921 18.7258 20.7298 18.9835C19.1685 20.5676 17.7813 22.314 16.5919 24.193C16.4819 24.3438 16.38 24.5003 16.2865 24.6618C16.2559 24.7169 16.2197 24.7686 16.1785 24.8163C15.9674 25.0965 15.6775 25.3076 15.3458 25.4225C15.0142 25.5375 14.6557 25.5512 14.3162 25.4619L6.82251 23.6311C6.73983 23.608 6.65494 23.5936 6.56925 23.5883C6.17766 23.5539 5.78559 23.6486 5.45299 23.858C5.12038 24.0673 4.86555 24.3797 4.72748 24.7474L2.1073 31.9533C1.9544 32.3743 1.96525 32.8373 2.13767 33.2508C2.31009 33.6642 2.63153 33.9979 3.03843 34.1859L10.7184 37.7414C11.0364 37.8857 11.3032 38.123 11.4834 38.422C11.6636 38.721 11.7488 39.0675 11.7277 39.4159C11.6579 41.0195 11.7101 42.626 11.8841 44.2217C11.9772 45.0825 12.1051 45.9315 12.2678 46.7687C12.3312 47.1017 12.3005 47.4457 12.1791 47.7622C12.0577 48.0787 11.8505 48.3551 11.5806 48.5604L5.09809 53.4983C4.75175 53.7619 4.51679 54.1455 4.43957 54.5736C4.36235 55.0017 4.44846 55.4432 4.68092 55.811L8.79466 62.28C9.03453 62.6598 9.40647 62.9375 9.83895 63.0598C10.2714 63.1821 10.7339 63.1402 11.1374 62.9424L16.685 60.2241C17.0423 60.0436 17.45 59.9884 17.8425 60.0673C18.235 60.1463 18.5895 60.3549 18.849 60.6595C20.9111 63.1462 23.3467 65.2983 26.0689 67.0393C26.3871 67.2384 26.634 67.533 26.7742 67.881C26.9144 68.2289 26.9407 68.6123 26.8492 68.9761L25.1992 75.7299C25.093 76.1673 25.1516 76.6284 25.3639 77.0254C25.5761 77.4224 25.9272 77.7275 26.3501 77.8825L33.5347 80.4873C33.9491 80.6385 34.4054 80.6286 34.8128 80.4593C35.2202 80.2901 35.549 79.974 35.734 79.5737L35.8848 79.2537L38.8533 72.8739C39.0066 72.5415 39.2582 72.264 39.5742 72.0788C39.8901 71.8935 40.2553 71.8093 40.6206 71.8376V71.8376C42.4569 71.9648 44.301 71.9287 46.131 71.7297C47.1254 71.6218 48.0975 71.4637 49.064 71.2702C49.3911 71.2 49.7314 71.2242 50.0452 71.3398C50.3591 71.4554 50.6337 71.6577 50.8369 71.9232L55.0325 77.4397C55.308 77.8021 55.7094 78.0482 56.1576 78.1294C56.6057 78.2107 57.0681 78.1213 57.4535 77.8788L63.9043 73.7856C64.0798 73.6696 64.2357 73.5264 64.3661 73.3614C64.5653 73.0961 64.6879 72.7815 64.7207 72.4515C64.7535 72.1216 64.6953 71.7889 64.5524 71.4897L62.2581 66.8291C62.1232 66.548 62.0632 66.2369 62.0841 65.9259C62.105 65.6149 62.206 65.3146 62.3773 65.0541C62.4716 64.916 62.5837 64.7909 62.7106 64.682C65.8915 62.0244 68.5094 58.7593 70.411 55.0779C70.5673 54.7738 70.8094 54.5221 71.1072 54.3538C71.405 54.1855 71.7457 54.108 72.0871 54.1309C72.1881 54.1383 72.2883 54.1539 72.3869 54.1774L78.4522 55.6658C78.878 55.7695 79.327 55.713 79.7137 55.5072C80.1005 55.3013 80.3978 54.9604 80.5491 54.5495L80.6106 54.3839L83.1712 47.3622C83.3248 46.9353 83.3126 46.4663 83.1371 46.0479C82.9617 45.6294 82.6356 45.2918 82.2233 45.1017V45.1017ZM26.2514 37.8623C26.4672 36.5849 26.802 35.3304 27.2514 34.1152C28.1472 31.6965 30.6631 28.5504 32.8382 27.1661C33.071 27.0154 33.3056 26.874 33.5384 26.7345C47.8908 18.3286 64.0458 31.5533 58.3678 47.4255C57.6229 49.5 55.7607 52.0434 53.8388 53.6992C53.4246 54.0586 52.9838 54.3864 52.5203 54.6797C50.6657 55.8581 48.6233 56.7114 46.4811 57.2026C34.9947 59.7553 24.2681 50.1084 26.2514 37.8623Z" fill="url(#paint0_linear)"/>
</g>
<defs>
<filter id="filter0_di" x="0" y="0" width="89.2782" height="86.5939" filterUnits="userSpaceOnUse" color-interpolation-filters="sRGB">
<feFlood flood-opacity="0" result="BackgroundImageFix"/>
<feColorMatrix in="SourceAlpha" type="matrix" values="0 0 0 0 0 0 0 0 0 0 0 0 0 0 0 0 0 0 127 0"/>
<feOffset dx="2" dy="2"/>
<feGaussianBlur stdDeviation="2"/>
<feColorMatrix type="matrix" values="0 0 0 0 0 0 0 0 0 0 0 0 0 0 0 0 0 0 0.15 0"/>
<feBlend mode="normal" in2="BackgroundImageFix" result="effect1_dropShadow"/>
<feBlend mode="normal" in="SourceGraphic" in2="effect1_dropShadow" result="shape"/>
<feColorMatrix in="SourceAlpha" type="matrix" values="0 0 0 0 0 0 0 0 0 0 0 0 0 0 0 0 0 0 127 0" result="hardAlpha"/>
<feOffset dx="-2" dy="-2"/>
<feGaussianBlur stdDeviation="2"/>
<feComposite in2="hardAlpha" operator="arithmetic" k2="-1" k3="1"/>
<feColorMatrix type="matrix" values="0 0 0 0 0 0 0 0 0 0 0 0 0 0 0 0 0 0 0.2 0"/>
<feBlend mode="normal" in2="shape" result="effect2_innerShadow"/>
</filter>
<linearGradient id="paint0_linear" x1="42.6391" y1="2" x2="42.6391" y2="80.5939" gradientUnits="userSpaceOnUse">
<stop stop-color="#0A3D76"/>
<stop offset="1" stop-color="#0C53A3"/>
</linearGradient>
</defs>
</svg>
