<svg width="60" height="59" viewBox="0 0 60 59" fill="none" xmlns="http://www.w3.org/2000/svg">
<g filter="url(#filter0_di)">
<path d="M52.896 32.4365L48.3858 29.6988C48.2027 29.5849 48.0542 29.4224 47.9568 29.229C47.8594 29.0356 47.8167 28.819 47.8335 28.6028C47.8806 28.0414 47.9023 27.4739 47.9023 26.8978C47.9061 25.8532 47.8277 24.8099 47.6679 23.7777C47.6297 23.5475 47.6613 23.3111 47.7586 23.0993C47.8558 22.8874 48.0141 22.7101 48.2129 22.5903L52.9262 19.7248C53.1709 19.5771 53.3512 19.3417 53.431 19.0657C53.5108 18.7897 53.4842 18.4936 53.3565 18.2366L51.1376 13.6819C51.0161 13.4342 50.8085 13.2401 50.5542 13.1366C50.3 13.0331 50.0168 13.0273 49.7587 13.1205L44.9958 14.8632C44.7682 14.9488 44.5192 14.9579 44.286 14.8889C44.0529 14.82 43.8482 14.6768 43.7027 14.4808C42.3855 12.7665 40.8069 11.2735 39.0256 10.0576C38.8158 9.9112 38.6599 9.69907 38.5821 9.45417C38.5043 9.20927 38.509 8.94532 38.5954 8.70337L39.6516 5.78057C39.747 5.51032 39.7413 5.21431 39.6356 4.94798C39.5299 4.68165 39.3315 4.46328 39.0776 4.33378L34.5902 2.12219C34.5017 2.07551 34.4069 2.04227 34.3087 2.02355C34.0793 1.97566 33.8407 2.0012 33.6264 2.09662C33.4121 2.19205 33.2327 2.35257 33.1134 2.55574L31.0794 5.94863L30.5852 6.77675C29.6452 6.64217 28.6969 6.57461 27.7475 6.5746C26.4789 6.57387 25.2129 6.6921 23.966 6.92776C23.7398 6.9726 23.5053 6.94601 23.2947 6.85164C23.084 6.75727 22.9074 6.59971 22.7889 6.40045L20.5023 2.57279C20.3512 2.32149 20.1122 2.13634 19.8323 2.05383C19.5525 1.97133 19.2521 1.99746 18.9904 2.12706L15.5376 3.83203L14.549 4.31917C14.2876 4.4475 14.0825 4.66882 13.9734 4.94047C13.8643 5.21211 13.8588 5.51485 13.958 5.79031L15.3998 9.80186C15.4846 10.0254 15.497 10.2703 15.4351 10.5013C15.3732 10.7323 15.2403 10.9377 15.0554 11.0879C13.9349 12.0059 12.9154 13.0425 12.0147 14.18C11.9289 14.2725 11.86 14.3651 11.7851 14.4625C11.7618 14.4965 11.7351 14.5279 11.7053 14.5563C11.5496 14.7222 11.3488 14.8381 11.128 14.8895C10.9072 14.9408 10.6762 14.9253 10.4641 14.8449L5.75809 13.1253C5.70607 13.1049 5.65225 13.0894 5.59735 13.079C5.34685 13.0294 5.08713 13.0638 4.8578 13.1768C4.62846 13.2898 4.44211 13.4753 4.32717 13.705L2.13247 18.211C2.00505 18.4739 1.97976 18.7754 2.0616 19.0562C2.14344 19.3369 2.32648 19.5767 2.57479 19.7284L7.28084 22.583C7.47636 22.6998 7.63211 22.8736 7.72749 23.0815C7.82287 23.2894 7.85337 23.5215 7.815 23.7473C7.65567 24.7853 7.57487 25.834 7.5733 26.8844C7.5733 27.4527 7.59627 28.0146 7.64219 28.5699C7.66004 28.7909 7.61632 29.0125 7.51597 29.2098C7.41562 29.4071 7.26262 29.5722 7.07418 29.6867L2.54578 32.4426C2.30381 32.5901 2.12542 32.8236 2.04578 33.097C1.96615 33.3704 1.99103 33.664 2.11553 33.9199L4.31628 38.4185C4.44393 38.6829 4.66439 38.8902 4.93498 39.0002C5.20557 39.1102 5.50706 39.1152 5.78105 39.0141L9.55048 37.6367C9.79409 37.5468 10.0606 37.5418 10.3073 37.6227C10.554 37.7035 10.7667 37.8654 10.9113 38.0824C12.0681 39.8457 13.4888 41.4179 15.1231 42.7431C15.3133 42.8956 15.4507 43.1048 15.5158 43.3408C15.5809 43.5768 15.5704 43.8275 15.4856 44.0571L13.946 48.3305C13.8467 48.6076 13.8521 48.9117 13.961 49.1851C14.07 49.4584 14.275 49.6818 14.5369 49.8126L18.9904 52.0193C19.2472 52.1468 19.5422 52.1722 19.8167 52.0905C20.0912 52.0088 20.3252 51.826 20.4721 51.5785L20.5929 51.3824L22.9544 47.439C23.0765 47.2344 23.2576 47.0722 23.4735 46.9738C23.6894 46.8755 23.9299 46.8458 24.1629 46.8886C25.3388 47.1008 26.5311 47.2076 27.7257 47.2076C28.3747 47.2076 29.0128 47.1723 29.6497 47.1151C29.8655 47.0923 30.0833 47.1318 30.2776 47.2291C30.4719 47.3263 30.6347 47.4773 30.7471 47.6643L33.0687 51.5492C33.2209 51.8053 33.463 51.9945 33.747 52.0793C34.031 52.1641 34.3363 52.1383 34.6023 52.0071L39.0498 49.8016C39.1711 49.7385 39.2816 49.6562 39.3773 49.5581C39.5248 49.3999 39.6264 49.2039 39.671 48.9915C39.7155 48.7791 39.7013 48.5584 39.6299 48.3536L38.4697 45.1519C38.4025 44.9596 38.3858 44.753 38.4212 44.5522C38.4565 44.3515 38.5427 44.1633 38.6715 44.006C38.7417 43.9217 38.823 43.8475 38.9132 43.7855C41.1525 42.28 43.071 40.339 44.5559 38.0763C44.6785 37.8895 44.8526 37.7428 45.0568 37.6544C45.2609 37.5659 45.4863 37.5394 45.7052 37.5782C45.7693 37.5906 45.8324 37.6081 45.8937 37.6306L49.7043 39.0262C49.9715 39.1236 50.2649 39.1185 50.5286 39.0118C50.7923 38.9051 51.0078 38.7043 51.134 38.4478L51.1859 38.343L53.3299 33.9588C53.4559 33.6957 53.4813 33.395 53.4012 33.1142C53.3212 32.8335 53.1414 32.5922 52.896 32.4365V32.4365ZM17.2864 23.7789C17.5156 22.9628 17.8194 22.1698 18.194 21.4103C18.9409 19.9001 20.7851 18.0295 22.2909 17.283C22.4517 17.2014 22.6124 17.1259 22.7743 17.0504C32.6227 12.5931 42.1207 22.337 37.3457 32.266C36.7197 33.563 35.3347 35.0865 33.9848 36.0304C33.6921 36.2346 33.3847 36.4166 33.0651 36.5747C31.7859 37.2116 30.408 37.6235 28.9911 37.7926C21.3954 38.6475 15.1472 31.6072 17.2864 23.7789Z" fill="url(#paint0_linear)"/>
</g>
<defs>
<filter id="filter0_di" x="0" y="0" width="59.4762" height="58.1375" filterUnits="userSpaceOnUse" color-interpolation-filters="sRGB">
<feFlood flood-opacity="0" result="BackgroundImageFix"/>
<feColorMatrix in="SourceAlpha" type="matrix" values="0 0 0 0 0 0 0 0 0 0 0 0 0 0 0 0 0 0 127 0"/>
<feOffset dx="2" dy="2"/>
<feGaussianBlur stdDeviation="2"/>
<feColorMatrix type="matrix" values="0 0 0 0 0 0 0 0 0 0 0 0 0 0 0 0 0 0 0.15 0"/>
<feBlend mode="normal" in2="BackgroundImageFix" result="effect1_dropShadow"/>
<feBlend mode="normal" in="SourceGraphic" in2="effect1_dropShadow" result="shape"/>
<feColorMatrix in="SourceAlpha" type="matrix" values="0 0 0 0 0 0 0 0 0 0 0 0 0 0 0 0 0 0 127 0" result="hardAlpha"/>
<feOffset dx="-2" dy="-2"/>
<feGaussianBlur stdDeviation="2"/>
<feComposite in2="hardAlpha" operator="arithmetic" k2="-1" k3="1"/>
<feColorMatrix type="matrix" values="0 0 0 0 0 0 0 0 0 0 0 0 0 0 0 0 0 0 0.2 0"/>
<feBlend mode="normal" in2="shape" result="effect2_innerShadow"/>
</filter>
<linearGradient id="paint0_linear" x1="51.8894" y1="27.0687" x2="3.52438" y2="26.0026" gradientUnits="userSpaceOnUse">
<stop stop-color="#A62E41"/>
<stop offset="1" stop-color="#E13152"/>
</linearGradient>
</defs>
</svg>
