<svg width="90" height="88" viewBox="0 0 90 88" fill="none" xmlns="http://www.w3.org/2000/svg">
<g filter="url(#filter0_di)">
<path d="M82.3288 46.0834L74.9691 42.6637C74.6697 42.522 74.4154 42.3004 74.2343 42.0232C74.0532 41.7461 73.9524 41.4243 73.943 41.0934C73.9207 40.2339 73.863 39.3668 73.768 38.498C73.6014 36.9101 73.3088 35.3379 72.8927 33.7964C72.7987 33.4536 72.8099 33.0906 72.9248 32.7542C73.0397 32.4178 73.253 32.1237 73.5371 31.9098L80.2821 26.7766C80.6329 26.5115 80.8706 26.124 80.9476 25.6914C81.0246 25.2588 80.9352 24.8131 80.6974 24.4435L76.5502 17.9C76.3231 17.544 75.973 17.2838 75.5665 17.1689C75.16 17.054 74.7254 17.0923 74.3453 17.2767L67.332 20.7094C66.9965 20.8782 66.615 20.9333 66.2454 20.8661C65.8758 20.799 65.5381 20.6133 65.2836 20.3373C62.9829 17.9523 60.3185 15.9466 57.3895 14.3947C57.0442 14.207 56.7705 13.9107 56.6109 13.5518C56.4513 13.1929 56.4147 12.7913 56.5068 12.4095L57.6446 7.80096C57.7466 7.37468 57.6894 6.92586 57.4837 6.53875C57.2779 6.15164 56.9379 5.85287 56.5273 5.69855L49.2868 3.0938C49.1437 3.03746 48.9931 3.00236 48.8399 2.98961C48.4804 2.95513 48.1191 3.0338 47.8065 3.21462C47.494 3.39543 47.2458 3.66934 47.0968 3.99802L44.5399 9.48847L43.9198 10.8281C42.4571 10.7791 40.9928 10.8338 39.5379 10.9918C37.596 11.1994 35.6776 11.5874 33.8078 12.1509C33.4687 12.2566 33.1053 12.2553 32.767 12.1471C32.4287 12.0389 32.1321 11.829 31.9176 11.5462L27.7834 6.11345C27.5113 5.75585 27.1146 5.51354 26.672 5.43461C26.2293 5.35568 25.7732 5.44591 25.3941 5.68739L20.3865 8.8503L18.9526 9.76197C18.5735 10.0002 18.296 10.3702 18.1736 10.8006C18.0512 11.231 18.0925 11.6914 18.2896 12.0932L21.1593 17.9483C21.3277 18.2751 21.387 18.647 21.3287 19.0099C21.2704 19.3727 21.0975 19.7075 20.8353 19.9652C19.274 21.5493 17.8868 23.2957 16.6974 25.1747C16.5874 25.3255 16.4855 25.482 16.392 25.6435C16.3614 25.6986 16.3252 25.7503 16.284 25.7979C16.0728 26.0782 15.783 26.2893 15.4513 26.4042C15.1196 26.5192 14.7612 26.5329 14.4217 26.4435L6.92798 24.6128C6.8453 24.5897 6.76041 24.5753 6.67472 24.57C6.28313 24.5356 5.89106 24.6303 5.55846 24.8397C5.22585 25.049 4.97102 25.3614 4.83295 25.7291L2.21277 32.935C2.05987 33.356 2.07072 33.819 2.24314 34.2325C2.41556 34.6459 2.737 34.9796 3.14389 35.1676L10.8238 38.7231C11.1419 38.8674 11.4086 39.1047 11.5888 39.4037C11.7691 39.7027 11.8543 40.0492 11.8332 40.3976C11.7633 42.0012 11.8156 43.6077 11.9896 45.2033C12.0827 46.0642 12.2106 46.9132 12.3732 47.7504C12.4367 48.0834 12.406 48.4274 12.2846 48.7439C12.1632 49.0604 11.9559 49.3368 11.686 49.5421L5.20356 54.48C4.85721 54.7436 4.62226 55.1272 4.54504 55.5553C4.46782 55.9834 4.55393 56.4249 4.78639 56.7926L8.90013 63.2617C9.14 63.6415 9.51194 63.9192 9.94441 64.0415C10.3769 64.1638 10.8394 64.1219 11.2428 63.9241L16.7905 61.2058C17.1478 61.0253 17.5554 60.97 17.9479 61.049C18.3404 61.128 18.6949 61.3366 18.9544 61.6412C21.0165 64.1279 23.4521 66.28 26.1744 68.021C26.4926 68.22 26.7395 68.5147 26.8797 68.8627C27.0199 69.2106 27.0461 69.594 26.9547 69.9578L25.3047 76.7116C25.1985 77.149 25.2571 77.6101 25.4693 78.0071C25.6816 78.4041 26.0326 78.7092 26.4556 78.8642L33.6402 81.469C34.0546 81.6202 34.5108 81.6103 34.9183 81.441C35.3257 81.2718 35.6545 80.9557 35.8395 80.5554L35.9903 80.2354L38.9587 73.8556C39.1121 73.5232 39.3637 73.2457 39.6796 73.0604C39.9956 72.8752 40.3608 72.791 40.726 72.8193V72.8193C42.5624 72.9465 44.4065 72.9104 46.2364 72.7114C47.2309 72.6035 48.203 72.4453 49.1695 72.2518C49.4966 72.1817 49.8368 72.2058 50.1507 72.3215C50.4646 72.4371 50.7391 72.6394 50.9424 72.9049L55.138 78.4214C55.4135 78.7838 55.8149 79.0298 56.263 79.1111C56.7112 79.1924 57.1735 79.103 57.5589 78.8605L64.0098 74.7673C64.1853 74.6513 64.3412 74.5081 64.4716 74.3431C64.6707 74.0778 64.7934 73.7632 64.8262 73.4332C64.859 73.1033 64.8008 72.7706 64.6578 72.4714L62.3635 67.8107C62.2286 67.5297 62.1687 67.2186 62.1896 66.9076C62.2105 66.5966 62.3115 66.2963 62.4827 66.0358C62.577 65.8977 62.6891 65.7726 62.8161 65.6637C65.9969 63.0061 68.6149 59.741 70.5165 56.0596C70.6728 55.7555 70.9148 55.5038 71.2127 55.3355C71.5105 55.1672 71.8511 55.0897 72.1925 55.1126C72.2936 55.12 72.3938 55.1356 72.4923 55.1591L78.5577 56.6475C78.9834 56.7512 79.4325 56.6947 79.8192 56.4889C80.2059 56.283 80.5033 55.9421 80.6546 55.5312L80.7161 55.3656L83.2767 48.3439C83.4302 47.917 83.4181 47.448 83.2426 47.0295C83.0671 46.6111 82.7411 46.2735 82.3288 46.0834V46.0834ZM26.3569 38.844C26.5727 37.5666 26.9075 36.3121 27.3569 35.0969C28.2527 32.6782 30.7686 29.532 32.9437 28.1478C33.1765 27.9971 33.4111 27.8557 33.6439 27.7162C47.9963 19.3102 64.1513 32.5349 58.4733 48.4072C57.7284 50.4817 55.8662 53.0251 53.9443 54.6809C53.53 55.0403 53.0893 55.3681 52.6258 55.6614C50.7712 56.8398 48.7287 57.6931 46.5865 58.1843C35.1002 60.737 24.3736 51.0901 26.3569 38.844Z" fill="url(#paint0_linear)"/>
</g>
<defs>
<filter id="filter0_di" x="0.105469" y="0.981689" width="89.2782" height="86.5939" filterUnits="userSpaceOnUse" color-interpolation-filters="sRGB">
<feFlood flood-opacity="0" result="BackgroundImageFix"/>
<feColorMatrix in="SourceAlpha" type="matrix" values="0 0 0 0 0 0 0 0 0 0 0 0 0 0 0 0 0 0 127 0"/>
<feOffset dx="2" dy="2"/>
<feGaussianBlur stdDeviation="2"/>
<feColorMatrix type="matrix" values="0 0 0 0 0 0 0 0 0 0 0 0 0 0 0 0 0 0 0.15 0"/>
<feBlend mode="normal" in2="BackgroundImageFix" result="effect1_dropShadow"/>
<feBlend mode="normal" in="SourceGraphic" in2="effect1_dropShadow" result="shape"/>
<feColorMatrix in="SourceAlpha" type="matrix" values="0 0 0 0 0 0 0 0 0 0 0 0 0 0 0 0 0 0 127 0" result="hardAlpha"/>
<feOffset dx="-2" dy="-2"/>
<feGaussianBlur stdDeviation="2"/>
<feComposite in2="hardAlpha" operator="arithmetic" k2="-1" k3="1"/>
<feColorMatrix type="matrix" values="0 0 0 0 0 0 0 0 0 0 0 0 0 0 0 0 0 0 0.2 0"/>
<feBlend mode="normal" in2="shape" result="effect2_innerShadow"/>
</filter>
<linearGradient id="paint0_linear" x1="80.8781" y1="42.2786" x2="4.51293" y2="40.583" gradientUnits="userSpaceOnUse">
<stop stop-color="#A62E41"/>
<stop offset="1" stop-color="#E13152"/>
</linearGradient>
</defs>
</svg>
