<?xml version="1.0" encoding="utf-8"?>
<!-- Generator: Adobe Illustrator 24.0.0, SVG Export Plug-In . SVG Version: 6.00 Build 0)  -->
<svg version="1.1" id="Слой_1" xmlns="http://www.w3.org/2000/svg" xmlns:xlink="http://www.w3.org/1999/xlink" x="0px" y="0px"
	 viewBox="0 0 700 150" style="enable-background:new 0 0 700 150;" xml:space="preserve">
<style type="text/css">
	.st0{fill:#75212E;}
	.st1{fill:#551721;}
	.st2{fill:#621B26;}
	.st3{fill:#912839;stroke:#000000;stroke-width:0.2;stroke-miterlimit:10;}
	.st4{clip-path:url(#SVGID_2_);}
	.st5{fill:#671D28;}
	.st6{fill:#6A1D2A;}
	.st7{fill:#5A1923;}
	.st8{clip-path:url(#SVGID_4_);}
	.st9{fill:#641C27;}
	.st10{fill:#5D1A24;}
	.st11{clip-path:url(#SVGID_6_);}
	.st12{fill:#6E1E2B;}
	.st13{clip-path:url(#SVGID_8_);}
	.st14{fill:#561822;}
	.st15{fill:#601B26;}
</style>
<title>404</title>
<g id="Слой_2_1_">
	<g id="Слой_1-2">
		<g>
			<polygon class="st0" points="474.4,71.5 462.6,65.1 473.2,63.6 485,70.1 			"/>
			<polygon class="st1" points="446.4,117.8 434.6,111.3 434.6,95.4 446.4,101.7 			"/>
			<polygon class="st0" points="429,78 417.2,71.5 434.6,69 460.1,77.9 			"/>
			<polygon class="st1" points="446.4,75.5 434.6,69 434.7,37.7 446.5,44 			"/>
			<polygon class="st1" points="401.9,108.1 390.1,101.6 390.1,78.4 412.9,78 			"/>
			<polygon class="st0" points="430.4,32.6 423.9,13.1 462.7,7.7 474.5,14.2 			"/>
			<polygon class="st2" points="401.9,84.9 390.1,78.4 423.9,13.1 435.7,19.6 			"/>
			<path class="st3" d="M474.4,71.5l10.6-1.6v26.3l-10.6,1.6v16l-28,3.9v-16l-44.5,6.2V84.9l33.7-65.2l38.9-5.4L474.4,71.5z
				 M446.4,75.4V44l-17.5,33.8L446.4,75.4"/>
		</g>
		<g>
			<g>
				<g>
					<g>
						<g>
							<defs>
								<path id="SVGID_1_" d="M349.9,104.8l-11.8-6.5c1.8,0.9,4,1.3,6.1,0.9l11.8,6.5C353.9,106,351.7,105.7,349.9,104.8z"/>
							</defs>
							<clipPath id="SVGID_2_">
								<use xlink:href="#SVGID_1_"  style="overflow:visible;"/>
							</clipPath>
							<g class="st4">
								<g>
									<path class="st5" d="M349.9,104.8l-11.8-6.5l0.3,0.1l11.8,6.5L349.9,104.8"/>
									<path class="st6" d="M350.1,105l-11.8-6.5c0.5,0.3,1,0.4,1.6,0.5l11.8,6.5C351.2,105.3,350.6,105.2,350.1,105"/>
									<path class="st7" d="M347,114.2l-7.1-15c1.4,0.4,2.9,0.4,4.1,0.1l32.4,0.9c-1.4,0.3-19.2,14.5-20.6,14.3"/>
								</g>
							</g>
						</g>
					</g>
				</g>
			</g>
			<g>
				<g>
					<g>
						<g>
							<defs>
								<path id="SVGID_3_" d="M350.3,50.4l11.8,6.5c4.7,2.5,6.7,9.7,6.7,22.2c0,16.9-4,25.5-13,26.7L344,99.3
									c8.8-1.3,13-9.9,13-26.8C357,60.1,354.9,52.8,350.3,50.4z"/>
							</defs>
							<clipPath id="SVGID_4_">
								<use xlink:href="#SVGID_3_"  style="overflow:visible;"/>
							</clipPath>
							<g class="st8">
								<g>
									<path class="st7" d="M349.2,112.2L344,99.1c1.3-0.1,2.5-0.5,3.6-1l32.6-0.8c-1.2,0.5-23.9,20.2-25.2,20.5"/>
									<path class="st7" d="M359.6,104.6l-11.8-6.5c0.5-0.3,1-0.5,1.6-0.9l11.8,6.5C360.6,104,360.1,104.3,359.6,104.6"/>
									<path class="st5" d="M361.2,103.7l-11.8-6.5c0.4-0.3,0.8-0.6,1.2-0.9l11.8,6.5C362.1,103,361.7,103.4,361.2,103.7"/>
									<path class="st9" d="M362.3,102.8l-11.8-6.5c0.4-0.3,0.6-0.6,1-1l11.8,6.5C363.1,102.1,362.7,102.5,362.3,102.8"/>
									<path class="st7" d="M341.4,105.7l10.1-10.5c0.4-0.4,0.6-0.8,0.9-1.2l16.3,4.3c-0.3,0.4-5.2,3.1-5.4,3.5"/>
									<path class="st10" d="M364.3,100.5l-11.8-6.5c0.4-0.5,0.6-1,1-1.7l11.8,6.5C365,99.5,364.7,100,364.3,100.5"/>
									<path class="st7" d="M360,112.3l-6.5-20c0.5-0.9,0.9-1.8,1.2-2.7l11.8,6.5c-0.4,0.9-0.8,1.8-1.2,2.7"/>
									<path class="st7" d="M352.3,95.5l2.3-5.7c1.6-4.3,2.3-10,2.3-17.2c0-12.3-2.1-19.6-6.7-22.2l11.8,6.5
										c4.7,2.5,16.7,6.4,16.7,18.7c0,7.3-3.1,22.7-4.7,27"/>
								</g>
							</g>
						</g>
					</g>
				</g>
			</g>
			<g>
				<g>
					<g>
						<g>
							<defs>
								<path id="SVGID_5_" d="M365.7,26.1l11.8,6.5c-5.8-3.1-13-4.4-21.4-3.2l-11.8-6.5C352.7,21.7,359.9,23,365.7,26.1z"/>
							</defs>
							<clipPath id="SVGID_6_">
								<use xlink:href="#SVGID_5_"  style="overflow:visible;"/>
							</clipPath>
							<g class="st11">
								<g>
									<path class="st12" d="M352.2,44l-7.9-21.3c4.9-0.8,9.9-0.5,14.7,0.6l11.8,6.5c-4.8-1.2-2.1,14.8-7,15.6"/>
									<path class="st6" d="M350,36.7l8.9-13.4c1.9,0.5,3.9,1.2,5.7,2.1l11.8,6.5c-1.8-0.9-20,12.6-21.9,12.1"/>
									<path class="st5" d="M376.5,31.9l-11.8-6.5l1,0.5l11.8,6.5C377.1,32.3,376.8,32.2,376.5,31.9"/>
								</g>
							</g>
						</g>
					</g>
				</g>
			</g>
			<g>
				<g>
					<g>
						<g>
							<defs>
								<path id="SVGID_7_" d="M334.4,128.9l-11.8-6.5c-13.1-7.1-19.6-23.7-19.5-42.5c0-27.1,13.5-53.3,41.1-57.2l11.8,6.5
									C328.5,33.1,315,59.3,315,86.4C315,105.2,321.3,121.8,334.4,128.9z"/>
							</defs>
							<clipPath id="SVGID_8_">
								<use xlink:href="#SVGID_7_"  style="overflow:visible;"/>
							</clipPath>
							<g class="st13">
								<g>
									<path class="st14" d="M334.4,128.9l-11.8-6.5c-13.1-7.1-19.6-23.7-19.5-42.5c0-8.7,1.4-17.2,4.3-25.4l24.3-0.9
										c-2.9,8.2-7,29.3-7,37.9C324.8,110.4,321.3,121.9,334.4,128.9"/>
									<path class="st7" d="M322,62.9l-14.4-8.4c1-2.7,2.2-5.3,3.5-7.8l25.7,3.6c-1.3,2.5-16.3,8-17.2,10.8"/>
									<path class="st10" d="M322.8,53.2L311,46.7c1-1.8,2.1-3.6,3.4-5.3l30,2.6C343,45.8,323.8,51.4,322.8,53.2"/>
									<path class="st15" d="M326.1,47.9l-11.8-6.5c1-1.6,2.2-3,3.4-4.3l26.6,3C343,41.4,327.2,46.3,326.1,47.9"/>
									<path class="st9" d="M333.3,45.7l-15.6-8.6c1.2-1.3,2.3-2.6,3.6-3.8l15.8,7.9c-1.3,1.2-2.7,4.1-3.9,5.4"/>
									<path class="st5" d="M333.1,39.9l-11.8-6.5c1.4-1.2,2.9-2.3,4.3-3.4l26.7,4.7c-1.6,1-20.6,19.8-22,21"/>
									<path class="st6" d="M337.4,36.5L325.6,30c1.9-1.3,3.9-2.5,6-3.5l29.2,9.2C358.8,36.7,339.4,35.2,337.4,36.5"/>
									<path class="st12" d="M358.8,40.2l-27.1-13.7c4-1.8,14.4-5.3,24-3.8l14,6.9c0.3,0.1,0.4,0.5,0.1,0.6
										c-3.2,1.8-2.6,9.5-6.2,11.2"/>
								</g>
							</g>
						</g>
					</g>
				</g>
			</g>
			<path class="st3" d="M356.1,29.2c27.6-3.9,40.9,18.7,40.9,45.6s-13.5,53.4-41.1,57.3c-27.6,3.9-41-18.7-40.9-45.8
				S328.5,33.1,356.1,29.2z M356,105.7c8.8-1.3,13-9.9,13-26.8s-4-24.3-12.8-23c-8.8,1.3-12.8,9.7-13,26.6
				C343,99.4,347,106.9,356,105.7"/>
		</g>
		<g>
			<polygon class="st0" points="293.7,106.5 287.5,89.7 298.1,88.2 309.9,94.7 			"/>
			<polygon class="st1" points="271.3,142.3 259.5,136 259.5,120 279.3,121.4 			"/>
			<polygon class="st0" points="253.9,102.5 242.1,96.1 259.5,93.7 284.3,101.1 			"/>
			<polygon class="st1" points="271.3,100 259.5,93.7 259.6,62.3 271.4,68.6 			"/>
			<polygon class="st1" points="226.8,132.6 215,126.2 215,103 235.2,103 			"/>
			<polygon class="st0" points="256.8,50.4 248.8,37.8 287.6,32.3 299.4,38.7 			"/>
			<polygon class="st2" points="226.8,109.5 215,103 248.8,37.8 260.6,44.1 			"/>
			<path class="st3" d="M299.3,96.1l10.6-1.6v26.3l-10.6,1.4v16l-28,3.9v-16l-44.5,6.4v-23.1l33.7-65.2l38.8-5.6V96.1z M271.3,100
				V68.6l-17.5,33.8L271.3,100"/>
		</g>
	</g>
</g>
</svg>
