<svg width="87" height="87" viewBox="0 0 87 87" fill="none" xmlns="http://www.w3.org/2000/svg">
<path d="M43.4261 43.4284L86.3653 36.8671C87.2264 42.5039 86.9687 48.2551 85.6066 53.7922C84.2446 59.3294 81.805 64.5442 78.4272 69.1388C75.0493 73.7334 70.7994 77.6179 65.9199 80.5704C61.0405 83.5229 55.6272 85.4857 49.989 86.3466C38.6022 88.0854 26.9908 85.2307 17.7094 78.4105C8.42786 71.5903 2.23649 61.3633 0.497284 49.9793C-0.507645 43.3968 0.0149694 36.6714 2.02473 30.323C4.03448 23.9746 7.47755 18.1733 12.0878 13.3675C16.698 8.56177 22.3518 4.88027 28.6123 2.60763C34.8728 0.334985 41.5721 -0.467924 48.1925 0.26097L43.4261 43.4284Z" fill="#274684"/>
<path d="M57.3601 0.40625L52.168 33.6798L84.8371 27.5442C84.8371 27.5442 80.0083 8.89854 57.3601 0.40625Z" fill="#C43B55"/>
</svg>
