<svg width="83" height="119" fill="none" xmlns="http://www.w3.org/2000/svg"><g clip-path="url(#clip0)"><path d="M13.885 85.868H9.582c-4.304 0-8.007 3.212-8.007 9.437 0 3.714 1.802 6.525 4.904 7.93L.674 113.676c-.2.301 0 .602.3.602h2.703c.2 0 .4-.1.5-.301l5.305-10.24h1.901v10.24c0 .101.1.301.3.301h2.403c.2 0 .3-.1.3-.301V86.269c-.1-.3-.2-.401-.5-.401zm-2.502 15.46H9.782c-6.906 0-6.405-13.05-.3-13.05h2.001v13.05h-.1z" fill="red"/><path d="M28.297 95.305h-2.402c-.2 0-.3.1-.3.3v7.229h-4.404v-7.228c0-.201-.1-.301-.3-.301H18.59c-.2 0-.3.1-.3.3v18.372c0 .201.1.301.3.301h2.402c.2 0 .3-.1.3-.301v-8.834h4.404v8.834c0 .201.1.301.3.301h2.402c.2 0 .3-.1.3-.301V95.606c-.1-.201-.2-.301-.4-.301zm54.046 16.464c0-.101-.1-.101-.2-.101-1.001 0-7.106 2.912-7.106-6.726 0-4.216 1.6-10.14 5.404-6.626.1.1.2.1.3.1.1 0 .2-.1.3-.3l1.001-1.707c.1-.1.1-.2.1-.301 0-.2-.2-.301-.4-.402-6.605-3.313-10.008 2.811-10.008 9.939 0 9.236 6.705 10.541 10.508 7.73.2-.1.2-.301.2-.401l-.1-1.205zm-16.414-7.931l4.604-8.332c.1-.101 0-.302-.1-.302H68.13c-.7 0-.901.201-1.101.703-.2.502-3.603 7.63-4.004 7.931v-8.333c0-.1-.1-.3-.2-.3h-2.502c-.1 0-.2.1-.2.3v18.472c0 .101.1.301.2.301h2.502c.2 0 .2-.1.2-.301v-9.537c.3.201 4.504 8.935 4.604 9.236.2.401.6.602 1.101.602h2.502c.2 0 .2-.1.1-.301l-5.404-10.139zm-21.919 8.031h-.5c-.6 0-.7-.2-.7-.703v-15.66c0-.201-.1-.302-.2-.302h-7.707c-.2 0-.3.1-.3.301 0 4.217.1 11.244-2.703 16.364h-.8c-.2 0-.3.1-.3.301v5.522c0 .2.2.301.3.301h1.8c.4 0 .6-.301.6-.602v-3.113h8.108v3.414c0 .1.1.301.3.301h2.001c.2 0 .5-.201.5-.602v-5.221c-.1-.201-.2-.301-.4-.301zm-4.203 0h-5.605c1.602-2.61 3.103-6.826 3.103-14.255h2.502v14.255zm12.01-17.066c-4.103 0-6.005 5.12-6.005 10.741 0 9.237 6.405 10.642 10.809 7.931.2-.1.2-.2.2-.301l-.3-1.305c0-.1-.1-.2-.3-.2-1.602 0-7.206 2.81-7.206-6.325 2.001.201 2.001.201 8.006.201-.1-4.618-.6-10.742-5.204-10.742zm-2.702 8.432c0-7.328 4.804-8.734 4.804-.201-2.102 0-3.002 0-4.804.201z" fill="#000"/></g><path d="M6.818.972H76.57a2.783 2.783 0 012.775 2.791v65.863a2.783 2.783 0 01-2.775 2.791H6.818a2.783 2.783 0 01-2.775-2.79V3.762A2.783 2.783 0 016.818.973z" fill="#FAFAFA" stroke="#000" stroke-width=".5"/><path d="M21.1 29.527h-4.084v35.298H21.1V29.527zm18.578-2.863h-4.084V64.83h4.084V26.664zm19.238-4.845h-4.084V64.83h4.084V21.819z" fill="#E8505B"/><path d="M49.879 47.638h-4.084v17.187h4.084V47.637z" fill="#263238"/><path d="M25.865 25.747h-4.084V64.83h4.084V25.747zm18.907-8.187h-4.084v47.27h4.084V17.56z" fill="#274684"/><path d="M69.453 17.56H65.37v47.27h4.084V17.56z" fill="#263238"/><path d="M64.373 8.22H60.29v56.605h4.084V8.22z" fill="#274684"/><path d="M30.865 40.023h-4.084v24.802h4.084V40.022zM75.3 66.967c0 .093-14.58.16-32.562.16-17.983 0-32.568-.067-32.568-.16 0-.092 14.579-.16 32.568-.16 17.99 0 32.562.074 32.562.16zm-64.53-8.415H8.28v.942h2.49v-.942zm0-12.564H8.28v.942h2.49v-.942zm0-23.646H8.28v.942h2.49v-.942zm0-11.881H8.28v.942h2.49v-.942zm.124 23.707H8.402v.942h2.492v-.942z" fill="#263238"/><defs><clipPath id="clip0"><path fill="#fff" transform="translate(.557 85.868)" d="M0 0h82.006v32.278H0z"/></clipPath></defs></svg>