<svg width="54" height="54" viewBox="0 0 54 54" fill="none" xmlns="http://www.w3.org/2000/svg">
<path d="M24.0342 30.0144H47.4952C47.4953 34.6231 46.1356 39.1295 43.5863 42.9694C41.0369 46.8092 37.4112 49.8119 33.1631 51.6015C28.915 53.3911 24.2332 53.8881 19.7039 53.0303C15.1746 52.1725 10.999 49.9979 7.69995 46.7789C4.4009 43.5599 2.12495 39.4395 1.15705 34.9335C0.189147 30.4275 0.572299 25.7361 2.25854 21.4468C3.94478 17.1575 6.85917 13.4607 10.6368 10.8194C14.4145 8.17808 18.8876 6.70955 23.4961 6.59766L24.0342 30.0144Z" fill="#C43B55"/>
<path d="M30.3525 24.3044L29.8145 0.87998C36.0912 0.862369 42.1387 3.23682 46.726 7.51998C51.0943 11.8857 53.6178 17.7624 53.7751 23.9355L30.3525 24.3044Z" fill="#104283"/>
</svg>
