<svg width="87" height="87" viewBox="0 0 87 87" fill="none" xmlns="http://www.w3.org/2000/svg">
<path d="M43.428 43.4284L86.3672 36.8671C87.2284 42.5039 86.9706 48.2551 85.6086 53.7922C84.2466 59.3294 81.807 64.5442 78.4291 69.1388C75.0513 73.7334 70.8013 77.6179 65.9219 80.5704C61.0424 83.5229 55.6291 85.4857 49.9909 86.3466C38.6041 88.0854 26.9928 85.2307 17.7113 78.4105C8.42982 71.5903 2.23845 61.3633 0.499237 49.9793C-0.505692 43.3968 0.0169225 36.6714 2.02668 30.323C4.03644 23.9746 7.4795 18.1733 12.0897 13.3675C16.6999 8.56177 22.3538 4.88027 28.6143 2.60763C34.8747 0.334985 41.5741 -0.467924 48.1944 0.26097L43.428 43.4284Z" fill="#274684"/>
<path d="M57.3621 0.40625L52.1699 33.6798L84.839 27.5442C84.839 27.5442 80.0103 8.89854 57.3621 0.40625Z" fill="#C43B55"/>
</svg>
