<svg width="70" height="82" fill="none" xmlns="http://www.w3.org/2000/svg"><g clip-path="url(#clip0)"><path d="M21.798 49.164c0-7.324 5.99-13.248 13.338-13.141 7.093.103 12.867 5.904 12.943 12.998a13.083 13.083 0 01-2.664 8.078c-2.398 3.162-3.874 6.912-4.179 10.842-.04.502-.059 1.008-.059 1.516v3.108H28.7V69.64c0-.567-.022-1.133-.068-1.698-.313-3.894-1.703-7.647-4.1-10.753a13.084 13.084 0 01-2.734-8.024z" fill="#FFD042"/><path d="M28.632 67.941h12.604c-.04.502-.058 1.008-.058 1.516v3.108H28.7V69.64c0-.567-.023-1.133-.069-1.698z" fill="#FFB952"/><path d="M21.8 49.164c0-5.588 3.487-10.362 8.405-12.263a13.137 13.137 0 00-6.802 11.515c0 3.021 1.019 5.805 2.733 8.024 2.745 3.556 4.169 7.958 4.169 12.451v3.674h-1.603V69.64c0-4.493-1.424-8.895-4.169-12.45a13.085 13.085 0 01-2.733-8.025zm16.205 7.056a.82.82 0 01.821.821v15.524a.82.82 0 11-1.641 0V57.04a.82.82 0 01.82-.82zm-6.089 0a.82.82 0 01.82.821v15.524a.82.82 0 11-1.641 0V57.04a.82.82 0 01.82-.82z" fill="#FFB952"/><path d="M31.917 59.278c.21 0 .42.08.58.24.774.775 1.828.018 1.945-.07a.826.826 0 011.08.07c.734.735 1.978-.069 2.03-.103a.823.823 0 011.136.23.82.82 0 01-.224 1.135c-.724.487-2.287 1.08-3.572.315-.927.475-2.379.76-3.555-.416a.82.82 0 01.58-1.401z" fill="#FFB952"/><path d="M28.399 69.544H41.52a.959.959 0 01.928 1.2l-.325 1.258-1.934 7.474-.45 1.738a.958.958 0 01-.928.72h-7.704a.96.96 0 01-.928-.72l-.45-1.738-1.933-7.474-.326-1.259a.959.959 0 01.928-1.199z" fill="#71A0DD"/><path d="M27.797 72.002h14.326l-1.934 7.474H29.73l-1.932-7.474z" fill="#0A3D76"/><path d="M27.68 73.605h14.56c.578 0 1.045.468 1.045 1.044v2.18c0 .576-.467 1.044-1.044 1.044H27.68a1.044 1.044 0 01-1.045-1.045V74.65c0-.576.468-1.044 1.045-1.044z" fill="#B4D1FA"/><path d="M38.004 40.079c.075 0 .151.01.227.032 5.285 1.513 6.268 6.834 6.307 7.06a.82.82 0 01-1.616.283c-.034-.19-.865-4.54-5.143-5.765a.82.82 0 01.225-1.61z" fill="#FCE581"/></g><g filter="url(#filter0_f)"><path d="M30.102 34.25l-2.33-4.301m-8.245 29.219l-8.961 3.943m7.169-12.01c-2.51 0-7.528.24-14.339 0m14.339-7.17L7.34 39.987m14.338-2.33l-5.556-4.84" stroke="#FCE581" stroke-width="2" stroke-linecap="round"/></g><g filter="url(#filter1_f)"><path d="M39.779 34.25l2.33-4.301m8.244 29.219l8.962 3.943m-7.17-12.01c2.51 0 7.529.24 14.34 0m-14.34-7.17l10.396-3.944m-14.338-2.33l5.556-4.84" stroke="#FCE581" stroke-width="2" stroke-linecap="round"/></g><path d="M10.563 18.07l-.047-1.148c1.437-.235 2.328-.36 2.671-.375.016-.531.024-1.328.024-2.39 0-1.407-.031-3.43-.094-6.071-.062-2.656-.101-4.414-.117-5.274l-2.367-.117-.164-1.36c.64.017 1.633.024 2.976.024 1.375 0 2.399.008 3.07.024l.07 1.172c-.265.11-.64.18-1.124.21a13.87 13.87 0 00-.914.047c.047.438.07 1.54.07 3.305.016 1.766.024 3.719.024 5.86 0 2.14.015 3.664.046 4.57.25.047.727.101 1.43.164.703.062 1.14.11 1.313.14l-.047 1.22a74.8 74.8 0 00-2.227-.024H12.79c-1.047.015-1.789.023-2.226.023zm9.496-.21L20.13.937c3.47.03 6.15.921 8.04 2.671 1.89 1.735 2.836 4.282 2.836 7.641a5.419 5.419 0 01-.844 2.953 6.463 6.463 0 01-2.18 2.133c-.875.531-1.828.945-2.86 1.242a11.288 11.288 0 01-3.023.422 16.32 16.32 0 01-2.039-.14zm1.758-1.43h.399c.89 0 1.75-.102 2.578-.305a8.815 8.815 0 002.297-.96c.703-.423 1.265-1 1.687-1.735.422-.75.633-1.61.633-2.578 0-1.313-.399-2.641-1.195-3.985-.782-1.36-1.735-2.453-2.86-3.281-1.11-.844-2.14-1.266-3.094-1.266a2.44 2.44 0 00-.585.07c0 .938.046 5.618.14 14.04zm20.325.515L42.377 18c-.61 0-1.72.023-3.329.07-1.593.063-2.75.094-3.468.094-1.157 0-1.946-.055-2.367-.164.156-1.719.25-4.594.28-8.625.032-4.031.134-6.844.305-8.438.532.047 1.938.086 4.22.118 2.296.03 3.796.101 4.5.21l.257 1.055c-.703.125-2.11.274-4.219.446-2.11.171-3.218.265-3.328.28l.094 2.204a84.74 84.74 0 01.117 2.742c.531.063 1.5.156 2.906.281 1.407.11 2.297.18 2.672.211l.235 1.079c-3.297.296-5.227.453-5.79.468 0 .688-.015 1.735-.046 3.14a296.873 296.873 0 00-.024 3.071c3.578.328 5.828.563 6.75.703zm7.74-15.937l1.78.117c.438 1.938 1.336 4.68 2.696 8.227 1.36 3.53 2.258 6.171 2.695 7.921 0 .454-.078.79-.234 1.008-.157.235-.352.352-.586.352-.203 0-.399-.086-.586-.258-.172-.156-.29-.383-.352-.68-.14-.687-.593-2.062-1.36-4.125a673.125 673.125 0 00-6.07-.75c-.203.563-.453 1.477-.75 2.742-.296 1.266-.53 2.141-.703 2.626-.234.28-.5.421-.796.421-.328 0-.61-.148-.844-.445-.234-.281-.352-.633-.352-1.055.5-1.828 1.407-4.515 2.72-8.062 1.312-3.547 2.226-6.227 2.741-8.04zm.82 2.367c-.313 1.89-1.18 4.664-2.602 8.32h2.625c1.188 0 2.18.04 2.977.117-1.61-3.453-2.61-6.265-3-8.437z" fill="#000"/><defs><filter id="filter0_f" x=".396" y="26.948" width="32.706" height="39.163" filterUnits="userSpaceOnUse" color-interpolation-filters="sRGB"><feFlood flood-opacity="0" result="BackgroundImageFix"/><feBlend in="SourceGraphic" in2="BackgroundImageFix" result="shape"/><feGaussianBlur stdDeviation="1" result="effect1_foregroundBlur"/></filter><filter id="filter1_f" x="36.779" y="26.948" width="32.706" height="39.163" filterUnits="userSpaceOnUse" color-interpolation-filters="sRGB"><feFlood flood-opacity="0" result="BackgroundImageFix"/><feBlend in="SourceGraphic" in2="BackgroundImageFix" result="shape"/><feGaussianBlur stdDeviation="1" result="effect1_foregroundBlur"/></filter><clipPath id="clip0"><path fill="#fff" transform="rotate(-180 31.272 40.967)" d="M0 0h55.203v55.212H0z"/></clipPath></defs></svg>