<svg width="117" height="84" fill="none" xmlns="http://www.w3.org/2000/svg"><g clip-path="url(#clip0)"><path d="M56.246 74.553l-.024.065.024-.065z" fill="#56BAA9"/><path d="M63.71 67.36l.03-.033-.03.032zm-5.452 3.674a.406.406 0 00-.223-.715.407.407 0 00-.296.093c-.043.036-.779.673-1.617 2.374l.123 1.763c.97-2.59 1.996-3.5 2.013-3.516zM44.633 53.397a.405.405 0 00.03-.571 2.237 2.237 0 01-.078-.094 6.881 6.881 0 00-.402.723.41.41 0 00.262.038.433.433 0 00.188-.096zM57.35 42.844a.403.403 0 00.487-.644 4.737 4.737 0 00-.738-.442c-.12.116-.189.188-.189.188l-.121.017c-.35.04-.681.095-1.006.155a4.857 4.857 0 011.567.726zM47.045 68.283a.406.406 0 00-.453.35 6.607 6.607 0 00.065 1.742c.306.23.634.427.98.59a5.892 5.892 0 01-.224-2.237.404.404 0 00-.368-.445zm12.875 6.534a6.99 6.99 0 00-.254.756c.081-.265.17-.517.254-.756zm-8.496-3.36c-.274.057-.553.09-.832.1a6.279 6.279 0 01-2.967-.581l.094.292c2.102 3.424 5.882 3.564 7.616 3.413l.058-.16a6.901 6.901 0 01-3.97-3.064z" fill="#F78989"/><path d="M70.862 39.482c.306-.118.619-.215.937-.29.465-.115.938-.199 1.414-.25a11.345 11.345 0 00-4.285-.107c.645.174 1.279.391 1.895.65l.04-.003z" fill="#FFB0B0"/><path d="M64.368 38.415a12.318 12.318 0 00-10.33 2.576 8.771 8.771 0 013.06.767c.137-.133.35-.33.637-.565a12.55 12.55 0 016.633-2.778zm-20.42 22.999c.076-.166.168-.324.276-.471a8.76 8.76 0 01-.31-.958c-.393-1.405-.877-4.122.264-6.529a.398.398 0 01-.118-.086c-.81-.885-1.035-2.02-1.06-2.923-4.102 2.628-3.346 7.328-2.784 9.341a7.12 7.12 0 011.985-1.865.405.405 0 01.553.136.4.4 0 01-.137.552c-1.204.729-1.997 1.949-2.36 2.605-.438.913-1.084 3.148.69 6.543 1.727 3.33 4.554 3.657 5.947 3.592a5.673 5.673 0 01-.247-.973 6.873 6.873 0 01-2.001-2.42c-1.764-3.399-1.124-5.62-.698-6.544zM47.51 50.18l.004-.038c.047-.512.73-6.625 8.275-8.026a10.572 10.572 0 00-2.694-.356c-8.497 1.02-9.236 7.64-9.28 8.18-.041.779.047 1.94.764 2.793a6.857 6.857 0 012.114-2.095 8.95 8.95 0 01.816-.458z" fill="#F78989"/><path d="M80.19 43.335c-2.333-2.7-4.8-3.912-6.957-4.4a10.74 10.74 0 00-1.414.25 7.121 7.121 0 00-.937.29l-.033-.011a14.982 14.982 0 00-1.896-.65c-.314.052-.594.11-.831.17.398.297.727.678.96 1.117a.4.4 0 01-.218.527.408.408 0 01-.546-.201c-.143-.346-.719-.825-1.185-1.151a14.953 14.953 0 00-2.763-.846 12.55 12.55 0 00-6.633 2.777c-.288.234-.5.432-.636.566.258.124.505.272.737.442a.403.403 0 11-.486.643 4.858 4.858 0 00-1.563-.736c-7.544 1.395-8.233 7.492-8.274 8.02l-.005.038c-.28.139-.552.291-.816.458a6.859 6.859 0 00-2.12 2.087c.025.032.05.063.078.094a.403.403 0 01-.482.63c-1.14 2.406-.656 5.123-.259 6.54.085.324.188.644.31.957a2.678 2.678 0 00-.273.468c-.437.916-1.073 3.147.691 6.545a6.872 6.872 0 002.001 2.42 6.602 6.602 0 01-.064-1.742.405.405 0 11.802.102 5.89 5.89 0 00.224 2.236 6.279 6.279 0 002.966.582c.288-.008.573-.042.855-.1a6.9 6.9 0 003.974 3.055c.207-.587.447-1.162.718-1.722.834-1.7 1.574-2.338 1.617-2.374a.408.408 0 01.572.046.404.404 0 01-.047.571c-.022.008-1.045.927-2.013 3.52l.004.014c-.012.047-.024.095-.038.142a9.598 9.598 0 00.163 5.529 3.326 3.326 0 001.43-.482 5.754 5.754 0 001.257-.974 23.5 23.5 0 01.773-4.009c.022-.079.042-.155.066-.235.66-2.276 1.812-5.054 3.816-7.191l.018-.03c.32-.549 1.524-1.826 1.91-2.229a.405.405 0 01.697.268.404.404 0 01-.112.288c-.556.592-1.197 1.298-1.545 1.74 6.224.198 9.056-4.18 9.973-6.045a8.596 8.596 0 01-3.307-.82.402.402 0 01.057-.742.404.404 0 01.308.023 7.804 7.804 0 003.295.73l-.003-.012c6.426-1.844 11.21-10.185 5.184-17.183z" fill="#FFB0B0"/><path d="M42.754 58.055a.401.401 0 00-.542-.138 7.12 7.12 0 00-1.997 1.87c.086.323.189.642.309.955-.108.148-.2.307-.276.474.364-.657 1.161-1.865 2.362-2.605a.404.404 0 00.198-.407.4.4 0 00-.054-.149zm1.308-4.685a.407.407 0 00.667-.098.404.404 0 00-.066-.446c-.791-.862-.885-2.08-.842-2.887l-.004.041a8.58 8.58 0 00-.811.466c.02.904.248 2.048 1.056 2.924zM57.35 42.844a.403.403 0 00.486-.644c-1.113-.832-2.68-1.12-3.801-1.208-.288.236-.56.49-.816.76l-.121.017c.875-.002 2.975.13 4.251 1.075z" fill="#ED7070"/><path d="M68.737 40.665a.35.35 0 00.106-.034.405.405 0 00.219-.528 3.374 3.374 0 00-.961-1.117 6.807 6.807 0 00-.936.302l-.032-.015c.466.327 1.042.806 1.186 1.152a.406.406 0 00.418.24zm2.425 19.314a.404.404 0 00.175.542 8.6 8.6 0 003.307.82 8.04 8.04 0 00.354-.81 7.806 7.806 0 01-3.296-.729.406.406 0 00-.54.177zm-4.955 5.106a.4.4 0 00-.442-.076.404.404 0 00-.129.091c-.418.438-1.793 1.903-1.979 2.355l.077-.127c.321.033.63.045.935.058.357-.435.98-1.136 1.545-1.74a.404.404 0 00-.007-.561z" fill="#F78989"/><path d="M47.395 68.734a.404.404 0 00-.759-.26.405.405 0 00-.043.158c-.09.918.017 1.843.313 2.715.28-.01.558-.043.832-.1a5.728 5.728 0 01-.343-2.513z" fill="#ED7070"/><path d="M58.259 71.034a.406.406 0 10-.52-.622c-.057.045-1.303 1.116-2.395 4.25a8 8 0 00.9-.118c.971-2.585 1.997-3.495 2.015-3.51zM50.664 53.22a.4.4 0 01-.347-.137.403.403 0 01-.069-.442c.01-.035.013-.086.02-.146.618-5.123 6.586-5.515 11.482-4.949a.405.405 0 01.354.447.404.404 0 01-.449.354c-6.589-.758-10.15.667-10.593 4.255-.026.256-.046.395-.183.518a.397.397 0 01-.215.1z" fill="#F78989"/><path d="M55.32 48.475a.403.403 0 01-.433-.356c-.198-2.404-2.534-2.852-2.634-2.874a.402.402 0 01.141-.79c.032.004 3.046.563 3.297 3.593a.404.404 0 01-.37.427zm6.166 4.791a.405.405 0 01-.444-.326c-.483-2.576-.165-4.615.952-6.046a5.34 5.34 0 013.604-1.95.405.405 0 01.387.224.38.38 0 01.04.151.394.394 0 01-.383.442 4.587 4.587 0 00-3.019 1.648c-.96 1.241-1.227 3.055-.788 5.394a.402.402 0 01-.321.471l-.028-.008zm8.024-9.852l-.043.014c-3.782.015-5.32-1.87-5.805-2.679a.395.395 0 01.053-.56.416.416 0 01.58.06c.024.029.044.06.062.092.415.693 1.74 2.301 5.111 2.288a.402.402 0 01.047.801l-.005-.016zm6.56 7.013a.407.407 0 01-.45-.352c-.252-1.793-.952-3.099-2.08-3.879-1.788-1.238-4.068-.758-4.091-.753a.407.407 0 01-.417-.163.4.4 0 01.101-.56.406.406 0 01.144-.063c.104-.033 2.65-.56 4.725.875 1.32.915 2.134 2.405 2.427 4.431a.403.403 0 01-.35.459l-.009.005z" fill="#F78989"/><path d="M74.07 46.46a.406.406 0 01-.449-.383.403.403 0 01.05-.212c1.2-2.163 4.263-1.452 4.382-1.415a.404.404 0 11-.192.784c-.025-.007-2.583-.601-3.483 1.023a.407.407 0 01-.308.204zm-9.445 15.883a2.37 2.37 0 01-1.807-.492c-.971-.779-1.273-2.27-.791-3.993.53-1.939 2.168-2.54 3.767-3.123 1.16-.427 2.358-.863 3.266-1.8 1.994-2.084.108-4.655.026-4.763a.403.403 0 01.186-.68.407.407 0 01.445.181c.023.032 2.382 3.223-.09 5.805-1.037 1.08-2.381 1.573-3.57 2.006-1.526.56-2.846 1.043-3.267 2.58-.376 1.378-.162 2.582.52 3.154.545.437 1.332.439 2.164.006a4.149 4.149 0 002.223-3.14.405.405 0 01.807.062 4.951 4.951 0 01-2.66 3.793 3.561 3.561 0 01-1.22.404z" fill="#F78989"/><path d="M74.028 55.22a4.698 4.698 0 01-2.535-.331 3.85 3.85 0 01-2.027-2.23.404.404 0 01.28-.476.405.405 0 01.494.243c.283.767.858 1.39 1.601 1.735 1.168.532 2.753.352 4.686-.52a.406.406 0 01.566.51.407.407 0 01-.232.224 9.688 9.688 0 01-2.833.845zM61.296 68.46a.404.404 0 01-.27-.064c-3.658-2.431-1.633-6.911-1.614-6.967a.406.406 0 01.729.044.4.4 0 01.003.295c-.073.158-1.758 3.903 1.325 5.949a.4.4 0 01-.176.735l.003.009zm-5.026-5.592l-.046.015a.403.403 0 01-.401-.404c.006-1.67.528-2.922 1.536-3.724 1.927-1.507 4.917-.781 5.042-.75a.404.404 0 01-.195.784c-.027-.007-2.727-.657-4.343.6-.816.636-1.23 1.671-1.245 3.084a.404.404 0 01-.348.395zm-4.507-4.183c-2.4.278-4.44-2.107-4.53-2.213a.402.402 0 01.052-.567.405.405 0 01.569.05c.008.026 1.969 2.298 4.006 1.899 1.477-.291 2.7-1.897 3.634-4.779a.406.406 0 01.77.248c-1.036 3.178-2.464 4.97-4.247 5.317l-.255.045z" fill="#F78989"/><path d="M56.212 67.1a.302.302 0 01-.064.004c-2.165-.08-3.728-.805-4.65-2.146-1.796-2.628-.441-6.614-.38-6.785a.404.404 0 01.763.262c-.013.04-1.27 3.78.288 6.068.77 1.12 2.12 1.724 4.015 1.795a.402.402 0 01.03.802h-.002z" fill="#F78989"/><path d="M45.8 67.148a.403.403 0 01-.42-.247c-.057-.138-1.348-3.356.153-4.926.985-1.028 2.875-1.057 5.624-.078a.399.399 0 01.244.515.406.406 0 01-.517.244c-2.384-.844-4.022-.889-4.77-.119-.955.99-.322 3.268.007 4.06a.4.4 0 01-.32.551zm7.629 4.159a.405.405 0 01-.44-.303c-.588-2.343.084-4.757.111-4.858a.405.405 0 01.778.218c-.006.022-.64 2.313-.105 4.444a.402.402 0 01-.295.483l-.05.016z" fill="#F78989"/></g><path d="M11.957 20.258l-.736 1.224c-1.357-.68-2.621-.918-3.79-.712-.77.136-1.399.437-1.888.904-.489.467-.833.988-1.033 1.563-.185.572-.291 1.273-.32 2.103-.012.827.01 1.537.067 2.13.072.59.177 1.278.316 2.063.135.769.429 1.622.88 2.558a8.193 8.193 0 001.934 2.467c.826.727 1.685 1.011 2.578.854.97-.17 2.364-.94 4.186-2.309.251.257.598.696 1.041 1.316-1.703 1.68-3.316 2.655-4.84 2.924a4.522 4.522 0 01-2.859-.424 6.595 6.595 0 01-2.341-1.943 15.046 15.046 0 01-1.594-2.694 12.45 12.45 0 01-.878-2.82c-.176-1-.27-1.983-.282-2.95-.014-.98.08-1.98.28-3 .201-1.019.62-1.886 1.255-2.6.651-.719 1.492-1.168 2.523-1.35.892-.158 1.843-.166 2.851-.027 1.008.14 1.892.38 2.65.723zM28.493 33.43l.536.882c-.695.106-1.458.01-2.288-.287a10.641 10.641 0 01-2.408-1.242 25.738 25.738 0 01-2.104-1.675 19.508 19.508 0 01-1.666-1.753l-1.86.114c.229 1.117.598 2.853 1.108 5.206-.054.502-.281.788-.681.858-.277.05-.567-.019-.87-.203a1.411 1.411 0 01-.603-.727c-.182-1.3-.58-3.825-1.193-7.572-.597-3.75-1.03-6.656-1.3-8.72l.99-.46c.087.493.144.769.17.828.774-.74 1.954-1.25 3.539-1.529 1.708-.3 3.08.013 4.116.94 1.034.913 1.72 2.33 2.06 4.254.124.708.16 1.408.107 2.1a7.148 7.148 0 01-.44 1.957 4.032 4.032 0 01-1.113 1.648c-.52.473-1.151.806-1.894 1 .736 1.029 1.652 1.994 2.747 2.896 1.095.901 2.11 1.397 3.047 1.485zM16.805 20.188l1.454 7.17c.928.312 1.946.37 3.054.175 1.061-.187 1.891-.746 2.489-1.677.597-.93.794-1.972.59-3.126a5.47 5.47 0 00-1.748-3.167c-.945-.864-1.995-1.195-3.15-.991-.938.165-1.835.704-2.69 1.616zm22.962 9.803l.414.998c-.6.105-1.689.321-3.266.647-1.558.338-2.692.57-3.4.695-1.138.2-1.925.283-2.36.249-.144-1.72-.55-4.567-1.22-8.543-.67-3.975-1.058-6.763-1.165-8.362.531-.046 1.923-.252 4.175-.617 2.267-.368 3.757-.56 4.468-.574l.437.994c-.67.245-2.03.636-4.077 1.171-2.048.536-3.124.82-3.229.855l.475 2.153c.254 1.082.452 1.975.592 2.68.534-.03 1.504-.106 2.91-.227 1.404-.137 2.294-.222 2.669-.256l.418 1.02c-3.196.866-5.069 1.355-5.62 1.468.12.677.286 1.71.499 3.1.226 1.373.396 2.382.51 3.028 3.58-.298 5.837-.458 6.77-.48zm4.854-17.04l1.774-.194c.767 1.833 2.128 4.377 4.083 7.634 1.952 3.242 3.295 5.686 4.03 7.334.079.446.06.79-.056 1.033-.113.258-.285.407-.516.448-.2.035-.407-.016-.622-.152-.196-.124-.35-.327-.464-.609-.258-.652-.943-1.928-2.055-3.826-3.24.159-5.276.264-6.108.316-.102.589-.19 1.532-.263 2.83-.072 1.298-.151 2.2-.236 2.707-.182.318-.42.503-.712.554-.323.057-.626-.04-.908-.292-.28-.236-.456-.562-.53-.977.176-1.888.601-4.692 1.278-8.413.677-3.72 1.112-6.518 1.305-8.393zm1.218 2.19c.021 1.915-.351 4.797-1.117 8.645l2.585-.456c1.17-.206 2.154-.34 2.952-.401-2.184-3.122-3.658-5.718-4.42-7.789zm5.307-2.055l-.414-.998 8.728-2.063c.387-.052.735.03 1.042.245.308.216.49.477.543.785a.74.74 0 01-.137.571c-.127.181-.341.315-.643.4l-3.915.476a519.922 519.922 0 013.467 14.667c-.057.486-.278.763-.662.831-.277.049-.567-.02-.87-.204a1.374 1.374 0 01-.627-.722c-.115-.837-.322-2.101-.62-3.794-.112-.63-.287-1.576-.524-2.835l-.501-2.839c-.323-1.83-.584-3.49-.783-4.978-1.76.183-3.122.336-4.084.458zm14.427 13.497l-.245-1.123c1.374-.48 2.23-.758 2.566-.834a88.578 88.578 0 00-.392-2.358 276.8 276.8 0 00-1.147-5.962c-.523-2.605-.866-4.329-1.03-5.173l-2.352.296-.398-1.31c.633-.096 1.612-.26 2.935-.494 1.355-.239 2.364-.409 3.028-.51l.273 1.142c-.243.154-.6.288-1.072.403-.474.1-.771.168-.892.205.123.422.337 1.503.644 3.242.322 1.736.668 3.658 1.04 5.766s.652 3.606.84 4.493c.254.003.733-.026 1.436-.087.704-.06 1.143-.09 1.317-.09l.166 1.21a74.58 74.58 0 00-2.197.363c-.523.092-1.3.23-2.331.41a144.09 144.09 0 01-2.189.41zM79.553 6.91l1.398-.175c-.01.033-.172 2.624-.486 7.773-.314 5.148-.588 8.314-.824 9.498-.148.058-.3.1-.453.127a7.584 7.584 0 01-1.483.095c-.353-.651-.789-1.55-1.308-2.696a195.9 195.9 0 01-1.628-3.83 2292.12 2292.12 0 01-1.538-3.728L71.85 10.46a120.03 120.03 0 00-.813-2.046l1.316-.232c1.114 2.722 3.023 7.066 5.725 13.031.844-9.065 1.337-13.832 1.476-14.301zm6.064 16.137l-.246-1.122c1.375-.48 2.23-.759 2.567-.834a88.57 88.57 0 00-.392-2.358 276.175 276.175 0 00-1.147-5.962c-.523-2.605-.866-4.33-1.031-5.173l-2.352.296-.397-1.31c.633-.096 1.612-.26 2.935-.494a135.76 135.76 0 013.028-.51l.273 1.142c-.243.153-.6.288-1.072.403-.474.1-.771.167-.892.204.123.423.337 1.504.643 3.243.322 1.736.67 3.658 1.041 5.766.372 2.108.652 3.606.84 4.493.254.002.733-.026 1.436-.087.704-.06 1.143-.09 1.317-.09l.166 1.209c-.465.066-1.197.187-2.197.364l-2.331.41a173.76 173.76 0 01-2.189.41zm5.894-17.08l-.414-.997 8.728-2.063a1.42 1.42 0 011.042.245c.308.215.489.477.543.784.036.2-.01.391-.137.572-.127.181-.341.314-.644.4l-3.914.475a519.922 519.922 0 013.467 14.668c-.057.486-.278.763-.663.83-.277.05-.566-.019-.869-.203-.3-.17-.508-.41-.627-.723-.115-.836-.322-2.1-.621-3.793-.111-.63-.286-1.576-.524-2.835l-.5-2.839a121.99 121.99 0 01-.783-4.979c-1.76.184-3.122.336-4.084.459zm19.874-4.741l1.339.168c-.093.286-.309 1.086-.648 2.4a89.94 89.94 0 01-1.122 4.029 40.855 40.855 0 01-1.299 3.703c.195.744.439 1.906.734 3.488.295 1.583.527 2.716.695 3.4-.133.055-.484.133-1.054.233-.538.096-.864.137-.977.125-.071-.67-.24-1.806-.506-3.409-.254-1.621-.416-2.806-.485-3.556-.994-1.141-2.171-2.774-3.529-4.899-1.343-2.127-2.193-3.437-2.549-3.93l1.526-.388 5.031 7.205c.19-.541.605-1.876 1.245-4.004.656-2.13 1.189-3.652 1.599-4.565z" fill="#000"/><defs><clipPath id="clip0"><path fill="#fff" transform="rotate(-17.895 164.845 -84.462) skewX(-.005)" d="M0 0h45.974v39.013H0z"/></clipPath></defs></svg>