<svg width="48" height="48" fill="none" xmlns="http://www.w3.org/2000/svg"><g clip-path="url(#clip0)"><path d="M31.674 31.404L29.58 29.31l2.12-2.539 1.675 1.675 1.685-.009L45.53 39.33l-4.236 4.235-10.469-10.893.85-1.268z" fill="#C43B55"/><path fill-rule="evenodd" clip-rule="evenodd" d="M19.638 5.317c-6.346.062-11.527 5.273-11.571 11.639-.045 6.366 5.064 11.477 11.41 11.415 6.347-.062 11.527-5.273 11.572-11.639a11.35 11.35 0 00-1.698-6.085.764.764 0 01.247-1.044.746.746 0 011.037.23 12.846 12.846 0 011.92 6.885c-.05 7.2-5.91 13.095-13.088 13.165-7.179.07-12.958-5.711-12.907-12.912.05-7.202 5.91-13.096 13.088-13.166 2.69-.026 5.185.77 7.25 2.154.343.23.43.7.195 1.048a.758.758 0 01-1.048.213 11.256 11.256 0 00-6.407-1.903z" fill="#000"/><path fill-rule="evenodd" clip-rule="evenodd" d="M19.455 31.396c8.011-.078 14.55-6.656 14.607-14.692.056-8.036-6.393-14.487-14.404-14.41-8.011.079-14.55 6.656-14.607 14.692-.02 2.83.767 5.462 2.144 7.681a.764.764 0 01-.247 1.044.746.746 0 01-1.037-.23 15.823 15.823 0 01-2.367-8.48C3.606 8.13 10.824.869 19.668.783c8.844-.086 15.962 7.036 15.9 15.907-.061 8.87-7.28 16.131-16.123 16.217a15.692 15.692 0 01-8.93-2.653.752.752 0 01-.195-1.048.758.758 0 011.047-.213 14.21 14.21 0 008.088 2.403z" fill="#000"/><path fill-rule="evenodd" clip-rule="evenodd" d="M31.593 25.823l2.238 2.245.56-.085a2.596 2.596 0 012.232.73l8.718 8.745c.582.584.852 1.413.728 2.239l-.047.312a2.7 2.7 0 01-.759 1.502l-1.522 1.527a2.686 2.686 0 01-1.498.761l-.311.047a2.596 2.596 0 01-2.232-.73l-8.718-8.745a2.615 2.615 0 01-.727-2.238l.084-.562-2.238-2.245 3.492-3.503zm.255 5.824l-.103.687c-.053.354.062.71.311.96l8.719 8.745c.25.25.603.366.956.313l.311-.047a1.15 1.15 0 00.642-.327l1.523-1.527c.174-.175.288-.4.325-.644l.047-.312a1.12 1.12 0 00-.312-.96l-8.718-8.744a1.112 1.112 0 00-.957-.313l-.685.104-2.059 2.065zm.644-2.766l-.917-.92-1.343 1.347.918.92 1.342-1.347z" fill="#000"/><path d="M19.123 16.448l-7.676-3.53a8.475 8.475 0 014.145-4.145l3.531 7.675z" fill="#053866"/><path d="M20.23 15.894L16.7 8.218a8.41 8.41 0 013.53-.78 8.41 8.41 0 013.532.78l-3.531 7.676z" fill="#B4D1FA"/><path d="M12.556 14.582l7.676 3.531 3.53-7.676a8.475 8.475 0 014.925 7.676 8.476 8.476 0 01-8.456 8.456 8.475 8.475 0 01-8.456-8.456c0-1.262.285-2.455.78-3.53z" fill="#B23C4F"/></g><defs><clipPath id="clip0"><path fill="#fff" d="M0 0h48v48H0z"/></clipPath></defs></svg>