<svg width="92" height="120" viewBox="0 0 92 120" fill="none" xmlns="http://www.w3.org/2000/svg">
<path d="M61.9014 57.3199H30.0501L29.2871 42.9507H62.6633L61.9014 57.3199Z" fill="#C51C2B"/>
<path opacity="0.55" d="M61.9014 57.3199H30.0501L29.2871 42.9507H62.6633L61.9014 57.3199Z" fill="#831C2B"/>
<path opacity="0.55" d="M29.2871 42.9507L30.0501 57.3199H61.9014L62.6633 42.9507H29.2871ZM56.3997 54.5439C52.596 55.1492 48.9712 54.9009 45.1607 54.967C41.76 55.0266 38.502 55.2142 35.1409 54.4682C30.1792 53.3674 31.9486 46.2734 37.0202 47.4275C40.1367 48.1361 43.3166 47.615 46.4761 47.6982C49.1546 47.7685 51.8454 47.9401 54.5114 47.5053C59.6 46.6751 61.4078 53.7457 56.3997 54.5439Z" fill="#831C2B"/>
<g opacity="0.32">
<path opacity="0.32" d="M31.2058 46.1992C31.2058 46.1992 30.3723 51.5957 31.6543 55.6313C31.6532 55.6313 32.9454 49.2555 31.2058 46.1992Z" fill="#C51C2B"/>
<path opacity="0.32" d="M34.2639 55.6318C34.2639 55.6318 35.1541 50.3781 33.8981 46.1997C33.8981 46.1997 32.5731 52.7023 34.2639 55.6318Z" fill="#C51C2B"/>
<path opacity="0.32" d="M35.7253 46.2002C35.7253 46.2002 34.8136 51.5967 36.0356 55.6323C36.0356 55.6323 37.4207 49.2565 35.7253 46.2002Z" fill="#C51C2B"/>
<path opacity="0.32" d="M38.6483 55.6323C38.6483 55.6323 39.6155 50.3786 38.4196 46.2002C38.4196 46.2002 37.0005 52.7028 38.6483 55.6323Z" fill="#C51C2B"/>
<path opacity="0.32" d="M40.2443 46.1997C40.2443 46.1997 39.2545 51.5962 40.4176 55.6318C40.4176 55.6318 41.8956 49.256 40.2443 46.1997Z" fill="#C51C2B"/>
<path opacity="0.32" d="M43.0309 55.6323C43.0309 55.6323 44.074 50.3786 42.9391 46.2002C42.9391 46.2002 41.4259 52.7028 43.0309 55.6323Z" fill="#C51C2B"/>
<path opacity="0.32" d="M44.763 46.1997C44.763 46.1997 43.6949 51.5962 44.7992 55.6318C44.7992 55.6318 46.3701 49.256 44.763 46.1997Z" fill="#C51C2B"/>
<path opacity="0.32" d="M47.4144 55.6323C47.4144 55.6323 48.5323 50.3786 47.4585 46.2002C47.4585 46.2002 45.8502 52.7028 47.4144 55.6323Z" fill="#C51C2B"/>
<path opacity="0.32" d="M49.2869 46.2002C49.2869 46.2002 48.1396 51.5967 49.1872 55.6323C49.1884 55.6323 50.8499 49.2565 49.2869 46.2002Z" fill="#C51C2B"/>
<path opacity="0.32" d="M51.7978 55.6323C51.7978 55.6323 52.9927 50.3786 51.9802 46.2002C51.9802 46.2002 50.2767 52.7028 51.7978 55.6323Z" fill="#C51C2B"/>
<path opacity="0.32" d="M53.8073 46.2002C53.8073 46.2002 52.5829 51.5967 53.5705 55.6323C53.5705 55.6323 55.325 49.2565 53.8073 46.2002Z" fill="#C51C2B"/>
<path opacity="0.32" d="M56.1823 55.6323C56.1823 55.6323 57.4543 50.3786 56.5017 46.2002C56.5017 46.2002 54.7054 52.7028 56.1823 55.6323Z" fill="#C51C2B"/>
<path opacity="0.32" d="M58.3298 46.2002C58.3298 46.2002 57.0263 51.5967 57.9549 55.6323C57.9549 55.6323 59.8021 49.2565 58.3298 46.2002Z" fill="#C51C2B"/>
<path opacity="0.32" d="M60.5649 55.6323C60.5649 55.6323 61.9126 50.3786 61.0213 46.2002C61.0224 46.2002 59.1299 52.7028 60.5649 55.6323Z" fill="#C51C2B"/>
</g>
<path d="M62.9709 17.1416H59.2895C57.4907 19.0054 49.4849 24.81 46.8314 26.7176C46.322 27.0841 45.6257 27.0841 45.1163 26.7176C42.4628 24.81 34.457 19.0044 32.657 17.1416H28.9768C28.9768 17.1416 22.2637 30.1862 22.3724 33.2436C22.4811 36.301 27.7847 44.8613 31.791 44.8613C35.7962 44.8613 45.9722 44.8613 45.9722 44.8613C45.9722 44.8613 56.1481 44.8613 60.1544 44.8613C64.1596 44.8613 69.4643 36.301 69.5719 33.2436C69.6828 30.1862 62.9709 17.1416 62.9709 17.1416Z" fill="#C51C2B"/>
<path opacity="0.55" d="M45.0275 28.511C45.5686 28.9735 46.3837 28.9735 46.9259 28.511C49.6711 26.1709 57.5751 19.4082 59.9207 17.1416H59.2912C57.4924 19.0054 49.4866 24.81 46.8331 26.7175C46.3237 27.0841 45.6274 27.0841 45.118 26.7175C42.4645 24.81 34.4587 19.0044 32.6587 17.1416H32.0293C34.3783 19.4082 42.2811 26.1709 45.0275 28.511Z" fill="#C51C2B"/>
<path opacity="0.55" d="M34.545 44.8613C40.6456 42.4807 44.5557 42.9485 50.9823 43.4984C53.2827 43.6955 55.4302 44.2401 57.5494 44.8613H60.1576C64.1628 44.8613 69.4676 36.301 69.5751 33.2436C69.6838 30.1862 62.9719 17.1416 62.9719 17.1416H61.3825C61.8285 18.0868 64.7639 24.842 64.9099 25.4995C67.1537 30.4953 67.4672 35.312 61.8477 38.411C57.0909 41.0335 50.2805 38.5761 47.0213 34.7781C46.5549 34.2347 46.1202 33.6848 45.7115 33.1285C43.2403 36.9212 39.3268 39.7739 34.1907 39.7206C27.661 39.6535 22.9981 34.1302 25.3697 28.0688C26.7859 24.4488 28.5768 20.6998 30.4368 17.1416H28.9787C28.9787 17.1416 22.2657 30.1862 22.3744 33.2436C22.483 36.301 27.7867 44.8613 31.793 44.8613H34.545Z" fill="#831C2B"/>
<path d="M66.6746 1.01094L58.9473 17.4774C58.9473 17.4774 61.1513 19.435 64.0788 19.3455C64.0788 19.3455 76.0061 7.44 75.6812 6.5992C75.3574 5.75947 66.995 0.32146 66.6746 1.01094Z" fill="#C51C2B"/>
<path d="M25.5332 0.565253L32.8304 17.4772C32.8304 17.4772 30.6263 19.4347 27.6988 19.3452C27.6988 19.3452 17.0418 5.53332 17.3667 4.69252C17.6916 3.85172 25.2128 -0.124224 25.5332 0.565253Z" fill="#C51C2B"/>
<path opacity="0.55" d="M65.0762 14.3323C63.3951 16.114 61.388 16.5616 59.5563 16.1663L58.9473 17.477C58.9473 17.477 61.1513 19.4346 64.0788 19.3462C64.0788 19.3462 76.0061 7.4407 75.6812 6.5999C75.5521 6.26422 73.9548 5.10266 72.0269 3.78125C70.1047 7.478 68.0138 11.2206 65.0762 14.3323Z" fill="#831C2B"/>
<path opacity="0.55" d="M32.4851 16.7361C32.3153 16.7084 32.1466 16.6914 31.9745 16.653C28.9622 15.9912 26.2079 14.0219 24.6016 11.5379C22.8163 8.77893 21.0311 6.01676 19.9477 3.02441C18.5779 3.69684 17.4934 4.36286 17.3667 4.69214C17.0418 5.53294 27.6988 19.3448 27.6988 19.3448C29.5282 19.4013 31.0746 18.6565 31.9779 18.0906C32.5202 17.7517 32.8304 17.4757 32.8304 17.4757L32.4851 16.7361Z" fill="#831C2B"/>
<path d="M73.5814 73.6011C65.7861 56.7862 61.97 56.6338 61.97 56.6338H45.9741H29.9783C29.9783 56.6338 26.1633 56.7862 18.368 73.6011C10.5728 90.4171 0.0175781 110.137 0.0175781 110.137C0.0175781 110.137 6.2427 115.996 12.8459 115.283C19.4503 114.569 14.038 116.505 18.368 117.322C22.6981 118.137 29.5187 120.05 34.065 116.239C38.6113 112.428 32.7665 119.563 45.9741 119.563C59.1817 119.563 53.3358 112.429 57.8833 116.239C62.4307 120.049 69.2513 118.136 73.5814 117.322C77.9115 116.505 72.4992 114.569 79.1024 115.283C85.7067 115.996 91.9318 110.137 91.9318 110.137C91.9318 110.137 81.3767 90.4171 73.5814 73.6011Z" fill="#C51C2B"/>
<path opacity="0.32" d="M28.7295 60.2709C33.4195 57.5556 38.2602 57.5502 45.5845 57.9957C51.7678 58.3729 57.8367 57.2753 63.3373 60.1494C68.616 62.9083 69.7028 70.4531 73.8087 74.0913C73.734 73.9282 73.6559 73.7631 73.5812 73.6011C65.7859 56.7862 61.9698 56.6338 61.9698 56.6338H29.9781C29.9781 56.6338 26.3522 56.7862 18.9531 72.3575C20.6659 70.8101 26.8197 61.3759 28.7295 60.2709Z" fill="#C51C2B"/>
<path opacity="0.32" d="M83.4581 93.8219C78.7658 96.2505 72.8498 97.0678 68.0952 95.2893C65.2401 96.6778 62.3127 97.3108 58.7581 96.7673C57.4392 96.5659 56.1623 96.2462 54.9261 95.8381C49.8103 98.3541 42.3502 98.5651 37.3488 95.8946C33.5145 97.4334 29.5173 97.9523 25.3638 95.7528C23.9657 95.0133 22.5269 94.0776 21.2182 92.9854C18.1696 94.7426 14.7871 95.7486 10.8487 95.3703C9.8491 95.2743 8.88234 95.1166 7.93142 94.927C3.49606 103.638 0.0195312 110.135 0.0195312 110.135C0.0195312 110.135 6.24466 115.994 12.8479 115.281C19.4522 114.567 14.04 116.503 18.37 117.319C22.7001 118.135 29.5207 120.048 34.067 116.237C38.6133 112.426 32.7685 119.561 45.9761 119.561C59.1837 119.561 53.3378 112.427 57.8852 116.237C62.4326 120.047 69.2532 118.134 73.5833 117.319C77.9134 116.503 72.5011 114.567 79.1043 115.281C85.7086 115.994 91.9338 110.135 91.9338 110.135C91.9338 110.135 88.1561 103.081 83.4581 93.8219Z" fill="#751C2B"/>
<path opacity="0.32" d="M72.1101 97.2384C70.2411 91.8185 68.9075 84.8374 65.6404 80.0207C64.968 79.0296 64.3828 78.2187 63.8926 77.4546C63.9005 77.5462 63.9163 77.6336 63.9209 77.7285C64.1473 82.0401 65.8895 85.2573 67.6238 89.1597C68.9822 92.2171 69.2494 95.4161 70.0215 98.6312C71.5022 104.792 73.4142 110.878 74.3572 117.129C77.1896 116.241 72.9704 114.62 79.1027 115.283C79.722 115.35 80.3356 115.344 80.9435 115.305C76.4096 110.298 74.1772 103.231 72.1101 97.2384Z" fill="#7E1344"/>
<path opacity="0.32" d="M56.5281 99.589C55.8432 94.4803 53.9368 89.7296 53.407 84.5654C53.0346 80.938 51.6218 77.6984 50.6165 74.3149H50.5361C48.923 82.7144 53.4998 91.6211 54.6002 99.7531C55.2013 104.19 54.5696 108.448 54.3364 112.888C54.2572 114.407 54.3092 115.965 54.3307 117.521C56.2631 115.762 55.0326 113.853 57.882 116.24C59.0661 117.232 60.4053 117.829 61.8113 118.167C58.5827 112.53 57.2605 105.054 56.5281 99.589Z" fill="#7E1344"/>
<path opacity="0.32" d="M38.9191 94.7744C39.192 88.2952 38.9022 81.863 38.515 75.4243C38.4324 75.5426 38.3701 75.6598 38.2818 75.7802C36.5362 78.1439 36.4773 80.8858 35.7811 83.617C34.5245 88.5467 34.8381 93.7791 34.5438 98.8313C34.2336 104.173 34.117 112.455 30.8262 117.97C31.9809 117.613 33.0812 117.068 34.0695 116.239C37.0467 113.744 35.5694 115.94 37.9003 117.755C36.1083 110.423 38.6078 102.204 38.9191 94.7744Z" fill="#7E1344"/>
<path opacity="0.32" d="M17.7449 107.785C19.4011 105.27 18.8577 102.374 19.2618 99.5115C19.5663 97.3461 20.3225 95.3757 20.5908 93.2049C21.3029 87.4621 24.1806 81.3549 27.7521 75.9829C25.8628 76.6255 24.0968 77.4013 22.9613 78.6886C20.1777 81.8429 19.7769 85.9095 18.8316 89.7916C16.9321 97.5848 16.5528 106.903 13.0978 114.215C12.9156 114.602 12.7118 114.962 12.4922 115.3C12.6099 115.291 12.7288 115.295 12.8476 115.282C18.3335 114.69 15.543 115.925 16.9173 116.826C15.8023 113.884 15.8034 110.736 17.7449 107.785Z" fill="#7E1344"/>
<path opacity="0.55" d="M16.9622 105.397C15.9626 110.276 14.7604 113.318 13.6113 115.211C18.8244 114.754 14.509 116.44 18.0704 117.251C17.5169 105.131 28.6539 76.2506 28.6539 76.2506C22.6994 75.9448 19.8851 91.1292 16.9622 105.397Z" fill="#831C2B"/>
<path opacity="0.55" d="M38.5038 75.3335C38.5038 75.3335 35.9058 86.1371 35.7971 96.0221C35.7133 103.672 34.1681 112.466 32.0059 117.523C32.7281 117.192 33.4209 116.78 34.0639 116.24C38.0736 112.881 34.0096 118.028 42.0483 119.292C40.4374 117.449 38.6034 114.36 39.0449 110.085C39.8023 102.747 40.7781 77.3721 38.5038 75.3335Z" fill="#831C2B"/>
<path opacity="0.55" d="M56.5852 106.211C55.8279 96.8356 53.0136 88.7846 52.4714 84.0968C51.9291 79.409 50.522 74.3643 50.522 74.3643C50.522 74.3643 49.2609 83.4255 52.0378 92.6572C54.2102 99.877 53.6113 113.015 51.5284 118.944C57.3743 117.298 54.1785 113.133 57.8837 116.238C58.4644 116.724 59.0814 117.114 59.7244 117.428C58.4293 114.904 56.9803 111.105 56.5852 106.211Z" fill="#831C2B"/>
<path opacity="0.55" d="M70.8757 98.1796C69.1436 90.0093 66.3282 83.3969 63.4053 77.0723C63.4053 77.0723 62.6468 86.1367 66.2195 93.9831C69.4142 101 72.5953 111.995 71.4542 117.743C72.2081 117.593 72.9258 117.445 73.5813 117.321C77.9114 116.505 72.4991 114.568 79.1023 115.282C79.1442 115.287 79.1861 115.284 79.2291 115.289C77.0635 112.105 72.2081 104.472 70.8757 98.1796Z" fill="#831C2B"/>
<g opacity="0.55">
<path opacity="0.55" d="M33.3352 56.6318H33.0149C31.6179 58.7855 27.3195 65.578 27.1406 67.8926C27.1395 67.8926 32.4907 59.4771 33.3352 56.6318Z" fill="#831C2B"/>
<path opacity="0.55" d="M36.4117 56.6328H36.0212C35.2243 57.9509 33.5615 61.0761 32.9922 64.9972C32.9933 64.9972 35.9997 59.0953 36.4117 56.6328Z" fill="#831C2B"/>
<path opacity="0.55" d="M39.3908 64.9972C39.3908 64.9972 40.5504 59.1624 40.4519 56.6328H40.2254C39.8755 58.2023 39.0862 62.1885 39.3908 64.9972Z" fill="#831C2B"/>
<path opacity="0.55" d="M44.3029 56.584C44.3029 56.584 44.2872 56.6168 44.2793 56.6327H44.3119C44.3097 56.6168 44.3074 56.5988 44.3029 56.584Z" fill="#831C2B"/>
<path opacity="0.55" d="M43.657 62.1213C43.657 62.1213 44.6683 58.0691 44.3161 56.6328H44.2833C44.1576 56.8789 43.0851 59.124 43.657 62.1213Z" fill="#831C2B"/>
<path opacity="0.55" d="M48.4733 56.5835C48.4733 56.5835 48.471 56.6047 48.4688 56.6322H48.5025C48.4913 56.6174 48.4834 56.5962 48.4733 56.5835Z" fill="#831C2B"/>
<path opacity="0.55" d="M49.0781 64.3685C49.0781 64.3685 49.4914 57.9754 48.5028 56.6328H48.4688C48.4257 57.1187 48.0577 61.6653 49.0781 64.3685Z" fill="#831C2B"/>
<path opacity="0.55" d="M53.3725 56.6328H53.0352C53.351 58.5169 54.3517 63.8451 55.9298 66.343C55.9298 66.343 55.3151 59.963 53.3725 56.6328Z" fill="#831C2B"/>
<path opacity="0.55" d="M58.3993 56.6328H57.8672C58.2951 58.6693 59.5709 63.3954 62.6626 66.343C62.6637 66.343 60.0622 59.4312 58.3993 56.6328Z" fill="#831C2B"/>
</g>
</svg>
