<svg width="200" height="97" viewBox="0 0 200 97" fill="none" xmlns="http://www.w3.org/2000/svg">
<path d="M72.5706 22.4056L74.3507 22.5227C74.788 24.4588 75.6858 27.199 77.0443 30.7433C78.4029 34.272 79.3007 36.9108 79.7379 38.6595C79.7379 39.1123 79.6599 39.448 79.5037 39.6666C79.3476 39.9008 79.1524 40.0179 78.9182 40.0179C78.7152 40.0179 78.52 39.932 78.3326 39.7603C78.1608 39.6041 78.0437 39.3777 77.9812 39.0811C77.8407 38.3941 77.3879 37.0201 76.6227 34.959C73.406 34.5531 71.3839 34.3033 70.5563 34.2096C70.3533 34.7717 70.1034 35.6851 69.8067 36.9498C69.5101 38.2145 69.2758 39.0889 69.1041 39.5729C68.8698 39.8539 68.6044 39.9945 68.3077 39.9945C67.9798 39.9945 67.6987 39.8461 67.4645 39.5495C67.2302 39.2684 67.1131 38.9171 67.1131 38.4956C67.6128 36.6687 68.5185 33.9832 69.8302 30.4389C71.1418 26.8946 72.0553 24.2168 72.5706 22.4056ZM73.3904 24.7711C73.0781 26.6603 72.2115 29.4318 70.7905 33.0854H73.4138C74.6006 33.0854 75.5921 33.1244 76.3885 33.2025C74.7802 29.7519 73.7808 26.9414 73.3904 24.7711Z" fill="black"/>
<path d="M87.6782 27.5113L88.7322 27.7455L89.271 39.1045C89.1304 39.5729 88.8572 39.8071 88.4512 39.8071C88.1701 39.8071 87.8968 39.69 87.6314 39.4558C87.3659 39.2372 87.202 38.964 87.1395 38.6361C87.1395 38.5892 87.2098 37.2699 87.3503 34.678V34.4906C86.9131 34.4594 86.2651 34.4438 85.4062 34.4438C84.1102 34.4438 83.1342 34.4048 82.4784 34.3267C82.5565 35.2323 82.658 36.6922 82.7829 38.7063C82.6424 39.1904 82.3691 39.4324 81.9631 39.4324C81.682 39.4324 81.4088 39.3231 81.1433 39.1045C80.8935 38.8703 80.7373 38.5892 80.6749 38.2613C80.7217 37.4807 80.7451 36.7 80.7451 35.9193C80.7451 35.4196 80.7373 34.6702 80.7217 33.6709C80.7061 32.6716 80.6983 31.93 80.6983 31.446C80.6983 29.947 80.7451 28.6901 80.8388 27.6752L81.8928 27.9329C82.2051 31.321 82.3691 33.062 82.3847 33.1557C85.0549 33.2962 86.429 33.3664 86.5071 33.3664C87.1473 33.3664 87.4674 33.3274 87.4674 33.2493C87.4674 32.9371 87.4986 31.9456 87.5611 30.2749C87.6236 28.6043 87.6626 27.683 87.6782 27.5113Z" fill="black"/>
<path d="M92.0114 29.2678L91.543 28.0734C91.949 27.6674 92.4642 27.3474 93.0889 27.1131C93.7135 26.8633 94.3303 26.7384 94.9392 26.7384C97.5782 26.7384 98.8977 29.018 98.8977 33.5772C98.8977 34.2018 98.8586 35.123 98.7806 36.3409C98.7181 37.5587 98.6869 38.4721 98.6869 39.0811C98.5619 39.5651 98.3199 39.8071 97.9608 39.8071C97.6797 39.8071 97.422 39.6666 97.1878 39.3855C96.9536 39.1045 96.8365 38.7922 96.8365 38.4487C96.8365 38.3394 96.8443 38.2613 96.8599 38.2145C95.8918 39.1513 94.8612 39.6197 93.7681 39.6197C92.9405 39.6197 92.2144 39.3231 91.5898 38.7298C90.9808 38.1208 90.6763 37.387 90.6763 36.5282C90.6763 35.0761 91.2385 33.7646 92.3628 32.5936C93.5027 31.4225 94.7909 30.837 96.2275 30.837C96.29 30.837 96.3524 30.8448 96.4149 30.8604C96.4773 30.8604 96.5476 30.8682 96.6257 30.8839C96.7194 30.8995 96.7896 30.9073 96.8365 30.9073C96.7116 29.0805 95.9855 28.1671 94.6582 28.1671C93.8774 28.1671 92.9952 28.534 92.0114 29.2678ZM96.9067 36.5985C96.938 35.5055 96.9536 34.678 96.9536 34.1159C96.9536 33.6475 96.938 32.9917 96.9067 32.1486H96.7194C95.6107 32.1642 94.5957 32.578 93.6744 33.3899C92.7687 34.2018 92.3159 35.1854 92.3159 36.3409C92.3159 36.8405 92.4642 37.2386 92.7609 37.5353C93.0732 37.832 93.448 37.9803 93.8852 37.9803C94.5723 37.9803 95.5795 37.5197 96.9067 36.5985Z" fill="black"/>
<path d="M98.2887 41.4934L97.9139 40.4863C98.4292 40.2833 98.8977 39.9632 99.3193 39.5261C99.7253 39.0889 100.061 38.6361 100.326 38.1677C100.592 37.6836 100.818 37.0825 101.006 36.3643C101.193 35.646 101.326 35.0215 101.404 34.4906C101.498 33.9442 101.568 33.2728 101.615 32.4765C101.662 31.6802 101.685 31.0868 101.685 30.6965C101.701 30.2905 101.708 29.7519 101.708 29.0805C101.708 28.128 101.794 27.5581 101.966 27.3708C102.185 27.1366 103.395 27.0195 105.597 27.0195C107.33 27.0195 108.314 27.0117 108.548 26.996C108.579 33.3352 108.657 37.4494 108.782 39.3387C108.626 39.8071 108.353 40.0413 107.962 40.0413C107.697 40.0413 107.439 39.932 107.189 39.7134C106.939 39.4948 106.783 39.2294 106.721 38.9171C106.705 38.3082 106.697 37.4026 106.697 36.2003C106.697 35.607 106.697 34.7092 106.697 33.507C106.713 32.3047 106.721 31.3991 106.721 30.7902C106.721 29.666 106.713 28.8228 106.697 28.2608C106.042 28.3701 105.394 28.4325 104.753 28.4481C104.113 28.4637 103.66 28.4872 103.395 28.5184C103.348 29.0336 103.309 29.7987 103.278 30.8136C103.246 31.8285 103.215 32.7263 103.184 33.507C103.168 34.272 103.075 35.1464 102.903 36.1301C102.731 37.0981 102.481 37.9257 102.153 38.6127C101.841 39.284 101.349 39.8852 100.678 40.416C100.022 40.9625 99.2256 41.3216 98.2887 41.4934Z" fill="black"/>
<path d="M112.74 37.4416C112.74 37.7071 112.756 38.0584 112.787 38.4956C112.647 38.9796 112.374 39.2216 111.968 39.2216C111.686 39.2216 111.413 39.1123 111.148 38.8937C110.898 38.6595 110.742 38.3784 110.679 38.0506C110.726 36.7858 110.781 34.9356 110.843 32.4999C110.921 30.0641 110.976 28.4169 111.007 27.5581L112.085 27.3708C112.272 28.3701 112.389 29.6972 112.436 31.3523C112.483 33.0073 112.545 34.2408 112.623 35.0527C112.92 34.6155 113.763 33.4757 115.153 31.6333C116.543 29.7909 117.487 28.4169 117.987 27.5113C118.331 27.4488 118.549 27.4176 118.643 27.4176C118.94 27.4176 119.143 27.5503 119.252 27.8158C119.377 28.0812 119.455 28.5808 119.486 29.3147L119.931 38.964C119.791 39.4324 119.517 39.6666 119.111 39.6666C118.83 39.6666 118.557 39.5573 118.292 39.3387C118.042 39.1045 117.886 38.8234 117.823 38.4956C117.839 37.9803 117.878 36.7234 117.94 34.7248C118.018 32.7107 118.081 31.282 118.128 30.4389C115.457 33.4835 113.662 35.8178 112.74 37.4416Z" fill="black"/>
<path d="M123.234 33.6006L123.14 32.2891C123.187 32.2891 123.257 32.2969 123.351 32.3125C123.46 32.3125 123.538 32.3125 123.585 32.3125C125.162 32.3125 125.951 31.6255 125.951 30.2515C125.779 29.0492 125.115 28.4481 123.96 28.4481C123.523 28.4481 122.882 28.573 122.039 28.8228L121.618 28.1437C122.273 27.5347 123.21 27.2302 124.428 27.2302C125.287 27.2302 126.005 27.4488 126.583 27.886C127.161 28.3232 127.45 28.9634 127.45 29.8065C127.45 30.3218 127.348 30.8292 127.145 31.3289C126.942 31.8129 126.677 32.1798 126.349 32.4296C126.942 32.5545 127.403 32.9605 127.731 33.6475C128.074 34.3189 128.246 35.0761 128.246 35.9193C128.246 37.0122 127.895 37.9647 127.192 38.7766C126.49 39.5885 125.584 39.9945 124.475 39.9945C123.929 39.9945 123.273 39.8383 122.508 39.5261C121.743 39.2138 121.36 38.8234 121.36 38.355C121.36 38.0271 121.571 37.8632 121.992 37.8632C122.273 37.8632 122.64 37.9959 123.093 38.2613C123.546 38.5112 123.921 38.6361 124.218 38.6361C124.873 38.6361 125.451 38.3472 125.951 37.7695C126.451 37.1918 126.7 36.5516 126.7 35.849C126.7 35.0996 126.435 34.5375 125.904 34.1627C125.389 33.7724 124.725 33.5772 123.913 33.5772C123.601 33.5772 123.374 33.585 123.234 33.6006Z" fill="black"/>
<path d="M50.6236 62.7827L50.6939 63.8132C50.3191 63.9069 50.0536 63.9537 49.8975 63.9537C49.3041 63.9537 48.7654 63.7586 48.2813 63.3682C47.7973 62.9779 47.3991 62.5017 47.0868 61.9396C46.7745 61.3775 46.4778 60.8154 46.1967 60.2533C45.9313 59.6912 45.6424 59.215 45.3301 58.8246C45.0178 58.4343 44.6977 58.2391 44.3697 58.2391C44.2448 58.2391 44.1277 58.2625 44.0184 58.3094C44.0809 59.2462 44.1902 60.7607 44.3463 62.853C44.2058 63.337 43.9325 63.579 43.5265 63.579C43.2455 63.579 42.9722 63.4697 42.7067 63.2511C42.4569 63.0169 42.3007 62.7359 42.2383 62.408C42.3007 59.7849 42.332 57.3179 42.332 55.0071C42.332 53.3052 42.4022 51.9546 42.5428 50.9553L43.5968 51.33C43.7217 51.939 43.792 52.8133 43.8076 53.9531C43.8232 55.0773 43.8388 55.7721 43.8544 56.0376C44.3229 55.9595 44.7289 55.7175 45.0724 55.3115C45.4316 54.9056 45.7204 54.445 45.9391 53.9297C46.1733 53.4145 46.4153 52.907 46.6652 52.4074C46.915 51.9077 47.2351 51.4862 47.6255 51.1427C48.0315 50.7992 48.5077 50.6274 49.0543 50.6274C49.3353 50.6274 49.7726 50.7211 50.3659 50.9085L50.2723 51.7048C50.1786 51.6891 50.0536 51.6813 49.8975 51.6813C49.2729 51.6813 48.7264 51.9468 48.2579 52.4776C47.8051 52.9929 47.4615 53.5706 47.2273 54.2108C47.0087 54.8353 46.7276 55.4364 46.3841 56.0141C46.0406 56.5919 45.6658 56.9276 45.2598 57.0212C45.8376 57.1618 46.3294 57.5521 46.7354 58.1923C47.157 58.8324 47.4693 59.496 47.6723 60.183C47.8909 60.8544 48.2032 61.4711 48.6092 62.0332C49.0152 62.5797 49.5149 62.853 50.1083 62.853C50.2644 62.853 50.4362 62.8295 50.6236 62.7827Z" fill="black"/>
<path d="M51.6542 58.3796C51.6542 57.7551 51.7166 57.0603 51.8416 56.2952C51.9821 55.5301 52.1851 54.726 52.4506 53.8829C52.716 53.0397 53.1142 52.3371 53.6451 51.775C54.176 51.2129 54.7928 50.9319 55.4955 50.9319C56.9946 50.9319 58.1969 51.6111 59.1026 52.9695C60.0083 54.3123 60.4611 55.8112 60.4611 57.4662C60.4611 58.1688 60.383 58.8715 60.2269 59.5741C60.0863 60.2611 59.8599 60.9403 59.5476 61.6117C59.2353 62.2831 58.7825 62.8452 58.1891 63.298C57.6113 63.7351 56.9321 63.985 56.1513 64.0474C54.7147 63.86 53.6061 63.2511 52.8253 62.2206C52.0446 61.1745 51.6542 59.8942 51.6542 58.3796ZM55.636 52.1498C55.0895 52.2122 54.6289 52.7118 54.2541 53.6487C53.8793 54.5855 53.6373 55.4989 53.528 56.3889C53.4187 57.2632 53.364 58.0361 53.364 58.7075C53.364 59.5819 53.6295 60.3938 54.1604 61.1433C54.7069 61.8771 55.3159 62.244 55.9874 62.244C56.4714 62.244 56.9087 62.0567 57.299 61.6819C57.6894 61.3072 57.9939 60.8466 58.2125 60.3001C58.4468 59.738 58.6185 59.1759 58.7278 58.6138C58.8527 58.0517 58.9152 57.5521 58.9152 57.1149C58.9152 55.8346 58.6263 54.7182 58.0486 53.7658C57.4708 52.8133 56.6666 52.2747 55.636 52.1498Z" fill="black"/>
<path d="M69.3617 51.494L70.4157 51.7282L70.9545 63.0872C70.8139 63.5556 70.5406 63.7898 70.1347 63.7898C69.8536 63.7898 69.5803 63.6727 69.3149 63.4385C69.0494 63.2199 68.8855 62.9466 68.823 62.6188C68.823 62.5719 68.8933 61.2526 69.0338 58.6607V58.4733C68.5966 58.4421 67.9485 58.4265 67.0897 58.4265C65.7937 58.4265 64.8177 58.3874 64.1619 58.3094C64.24 59.215 64.3415 60.6748 64.4664 62.689C64.3258 63.173 64.0526 63.4151 63.6466 63.4151C63.3655 63.4151 63.0922 63.3058 62.8268 63.0872C62.5769 62.853 62.4208 62.5719 62.3583 62.244C62.4052 61.4633 62.4286 60.6827 62.4286 59.902C62.4286 59.4023 62.4208 58.6529 62.4052 57.6536C62.3896 56.6543 62.3818 55.9127 62.3818 55.4286C62.3818 53.9297 62.4286 52.6728 62.5223 51.6579L63.5763 51.9155C63.8886 55.3037 64.0526 57.0447 64.0682 57.1383C66.7384 57.2789 68.1125 57.3491 68.1906 57.3491C68.8308 57.3491 69.1509 57.3101 69.1509 57.232C69.1509 56.9197 69.1821 55.9283 69.2446 54.2576C69.3071 52.5869 69.3461 51.6657 69.3617 51.494Z" fill="black"/>
<path d="M81.237 62.7827L81.3073 63.8132C80.9325 63.9069 80.667 63.9537 80.5109 63.9537C79.9175 63.9537 79.3788 63.7586 78.8947 63.3682C78.4107 62.9779 78.0125 62.5017 77.7002 61.9396C77.3879 61.3775 77.0912 60.8154 76.8101 60.2533C76.5447 59.6912 76.2558 59.215 75.9435 58.8246C75.6312 58.4343 75.3111 58.2391 74.9831 58.2391C74.8582 58.2391 74.7411 58.2625 74.6318 58.3094C74.6943 59.2462 74.8036 60.7607 74.9597 62.853C74.8192 63.337 74.5459 63.579 74.1399 63.579C73.8589 63.579 73.5856 63.4697 73.3201 63.2511C73.0703 63.0169 72.9141 62.7359 72.8517 62.408C72.9141 59.7849 72.9454 57.3179 72.9454 55.0071C72.9454 53.3052 73.0156 51.9546 73.1562 50.9553L74.2102 51.33C74.3351 51.939 74.4054 52.8133 74.421 53.9531C74.4366 55.0773 74.4522 55.7721 74.4678 56.0376C74.9363 55.9595 75.3423 55.7175 75.6858 55.3115C76.045 54.9056 76.3339 54.445 76.5525 53.9297C76.7867 53.4145 77.0287 52.907 77.2786 52.4074C77.5284 51.9077 77.8485 51.4862 78.2389 51.1427C78.6449 50.7992 79.1211 50.6274 79.6677 50.6274C79.9487 50.6274 80.386 50.7211 80.9793 50.9085L80.8857 51.7048C80.792 51.6891 80.667 51.6813 80.5109 51.6813C79.8863 51.6813 79.3398 51.9468 78.8713 52.4776C78.4185 52.9929 78.0749 53.5706 77.8407 54.2108C77.6221 54.8353 77.341 55.4364 76.9975 56.0141C76.654 56.5919 76.2792 56.9276 75.8732 57.0212C76.451 57.1618 76.9428 57.5521 77.3488 58.1923C77.7704 58.8324 78.0827 59.496 78.2857 60.183C78.5044 60.8544 78.8167 61.4711 79.2226 62.0332C79.6286 62.5797 80.1283 62.853 80.7217 62.853C80.8778 62.853 81.0496 62.8295 81.237 62.7827Z" fill="black"/>
<path d="M83.954 70.3007L82.5018 69.481C83.142 68.3724 84.2741 66.2646 85.8981 63.1574C84.6333 62.0332 83.6651 60.3313 82.9937 58.0517C82.3222 55.7721 81.9163 53.4925 81.7757 51.2129L83.1342 51.2832C83.2123 51.6579 83.3763 52.5167 83.6261 53.8595C83.8916 55.1866 84.1024 56.1703 84.2585 56.8104C84.4147 57.4506 84.6879 58.2547 85.0783 59.2228C85.4843 60.1752 85.9449 60.9793 86.4602 61.6351C88.6307 57.4662 89.716 54.0468 89.716 51.3769V51.1192C90.528 51.2442 91.137 51.3925 91.543 51.5642C91.2931 53.2037 90.9027 54.8743 90.3718 56.5762C89.8409 58.2781 89.1773 59.9956 88.3809 61.7288C87.5845 63.4463 86.874 64.8906 86.2494 66.0616C85.6405 67.2326 84.8753 68.6457 83.954 70.3007Z" fill="black"/>
<path d="M92.7844 51.049L94.096 51.2832C94.096 51.6111 94.1038 51.8531 94.1194 52.0092C94.9783 51.4627 95.8449 51.1895 96.7194 51.1895C98.1403 51.1895 99.249 51.7984 100.045 53.0163C100.842 54.2342 101.24 55.616 101.24 57.1618C101.24 57.9424 101.177 58.6919 101.053 59.4101C100.943 60.1128 100.74 60.8388 100.444 61.5882C100.147 62.3221 99.6862 62.9154 99.0616 63.3682C98.4526 63.8054 97.7109 64.024 96.8365 64.024C96.0089 64.024 95.2125 63.8054 94.4474 63.3682C94.5098 66.1006 94.5645 68.1304 94.6113 69.4576C94.4708 69.9416 94.1975 70.1836 93.7915 70.1836C93.5105 70.1836 93.2372 70.0665 92.9717 69.8323C92.7219 69.6137 92.5658 69.3405 92.5033 69.0126L92.7844 51.049ZM94.3068 53.5316L94.3771 61.0964C94.5645 61.4711 94.8534 61.7756 95.2437 62.0098C95.6341 62.2284 96.0635 62.3377 96.532 62.3377C97.141 62.3377 97.6563 62.1425 98.0779 61.7522C98.5151 61.3619 98.8196 60.8466 98.9914 60.2064C99.1787 59.5507 99.3037 58.9417 99.3661 58.3796C99.4442 57.8175 99.4832 57.2242 99.4832 56.5997C99.4832 53.9453 98.5854 52.6182 96.7896 52.6182C96.2119 52.6182 95.6732 52.704 95.1735 52.8758C94.6894 53.0319 94.4005 53.2505 94.3068 53.5316Z" fill="black"/>
<path d="M112.576 61.0964L112.811 62.1269C112.124 62.3767 111.101 62.6578 109.742 62.9701C108.399 63.2667 107.4 63.4151 106.744 63.4151C106.073 63.4151 105.487 63.1965 104.988 62.7593C104.488 62.3065 104.113 61.7366 103.863 61.0496C103.613 60.347 103.426 59.66 103.301 58.9886C103.192 58.3016 103.137 57.6302 103.137 56.9744C103.137 53.071 104.902 51.1192 108.431 51.1192C109.274 51.1192 110.016 51.3925 110.656 51.939C111.296 52.4698 111.616 53.1646 111.616 54.0234C111.616 54.4918 111.483 54.9056 111.218 55.2647C110.968 55.6238 110.656 55.9127 110.281 56.1313C109.922 56.3342 109.453 56.5216 108.876 56.6933C108.314 56.8651 107.814 56.99 107.377 57.0681C106.939 57.1461 106.416 57.232 105.807 57.3257C105.198 57.4194 104.777 57.4896 104.543 57.5365C104.558 57.9893 104.582 58.3874 104.613 58.7309C104.66 59.0744 104.738 59.4492 104.847 59.8551C104.972 60.2455 105.128 60.5734 105.315 60.8388C105.518 61.0886 105.792 61.2994 106.135 61.4711C106.479 61.6429 106.885 61.7288 107.353 61.7288C107.915 61.7288 108.602 61.6819 109.414 61.5882C110.226 61.479 110.945 61.3697 111.569 61.2604C112.21 61.1511 112.545 61.0964 112.576 61.0964ZM104.636 56.0844C106.76 55.4755 108.501 54.8353 109.859 54.1639C109.75 53.6487 109.602 53.2739 109.414 53.0397C109.227 52.8055 108.946 52.6884 108.571 52.6884C107.619 52.6884 106.752 53.0163 105.971 53.6721C105.206 54.3279 104.761 55.132 104.636 56.0844Z" fill="black"/>
<path d="M120.751 51.494L121.805 51.7282L122.344 63.0872C122.203 63.5556 121.93 63.7898 121.524 63.7898C121.243 63.7898 120.97 63.6727 120.704 63.4385C120.439 63.2199 120.275 62.9466 120.212 62.6188C120.212 62.5719 120.283 61.2526 120.423 58.6607V58.4733C119.986 58.4421 119.338 58.4265 118.479 58.4265C117.183 58.4265 116.207 58.3874 115.551 58.3094C115.629 59.215 115.731 60.6748 115.856 62.689C115.715 63.173 115.442 63.4151 115.036 63.4151C114.755 63.4151 114.482 63.3058 114.216 63.0872C113.966 62.853 113.81 62.5719 113.748 62.244C113.794 61.4633 113.818 60.6827 113.818 59.902C113.818 59.4023 113.81 58.6529 113.794 57.6536C113.779 56.6543 113.771 55.9127 113.771 55.4286C113.771 53.9297 113.818 52.6728 113.912 51.6579L114.966 51.9155C115.278 55.3037 115.442 57.0447 115.457 57.1383C118.128 57.2789 119.502 57.3491 119.58 57.3491C120.22 57.3491 120.54 57.3101 120.54 57.232C120.54 56.9197 120.571 55.9283 120.634 54.2576C120.696 52.5869 120.735 51.6657 120.751 51.494Z" fill="black"/>
<path d="M123.491 52.6182L123.281 51.5877C125.373 51.4627 128.668 51.291 133.165 51.0724C133.54 51.088 133.86 51.2285 134.125 51.494C134.391 51.7594 134.524 52.0405 134.524 52.3371C134.524 52.8055 134.211 53.071 133.587 53.1334L129.207 52.9226C129.285 54.0937 129.324 55.8034 129.324 58.0517C129.339 60.2845 129.371 61.9161 129.417 62.9466C129.277 63.3994 129.004 63.6258 128.598 63.6258C128.332 63.6258 128.074 63.5165 127.825 63.298C127.575 63.0794 127.419 62.8139 127.356 62.5017C127.575 58.6607 127.801 55.4364 128.035 52.8289L123.491 52.6182Z" fill="black"/>
<path d="M134.594 58.3796C134.594 57.7551 134.656 57.0603 134.781 56.2952C134.922 55.5301 135.125 54.726 135.39 53.8829C135.656 53.0397 136.054 52.3371 136.585 51.775C137.116 51.2129 137.732 50.9319 138.435 50.9319C139.934 50.9319 141.137 51.6111 142.042 52.9695C142.948 54.3123 143.401 55.8112 143.401 57.4662C143.401 58.1688 143.323 58.8715 143.166 59.5741C143.026 60.2611 142.8 60.9403 142.487 61.6117C142.175 62.2831 141.722 62.8452 141.129 63.298C140.551 63.7351 139.872 63.985 139.091 64.0474C137.654 63.86 136.546 63.2511 135.765 62.2206C134.984 61.1745 134.594 59.8942 134.594 58.3796ZM138.576 52.1498C138.029 52.2122 137.568 52.7118 137.194 53.6487C136.819 54.5855 136.577 55.4989 136.468 56.3889C136.358 57.2632 136.304 58.0361 136.304 58.7075C136.304 59.5819 136.569 60.3938 137.1 61.1433C137.647 61.8771 138.256 62.244 138.927 62.244C139.411 62.244 139.848 62.0567 140.239 61.6819C140.629 61.3072 140.934 60.8466 141.152 60.3001C141.386 59.738 141.558 59.1759 141.667 58.6138C141.792 58.0517 141.855 57.5521 141.855 57.1149C141.855 55.8346 141.566 54.7182 140.988 53.7658C140.41 52.8133 139.606 52.2747 138.576 52.1498Z" fill="black"/>
<path d="M145.813 51.3535C148.234 50.8382 149.709 50.5806 150.24 50.5806C152.333 50.5806 153.379 51.4784 153.379 53.2739C153.379 53.8985 153.269 54.5074 153.051 55.1007C152.848 55.6785 152.59 56.061 152.278 56.2484C153.496 57.0759 154.105 58.2157 154.105 59.6678C154.105 61.0418 153.652 62.1113 152.746 62.8764C151.856 63.6415 150.677 64.024 149.21 64.024C147.461 64.024 146.157 63.5556 145.298 62.6188L145.813 51.3535ZM147.148 57.232L147.359 61.9864C147.75 62.1738 148.195 62.2674 148.694 62.2674C149.662 62.2674 150.552 61.963 151.364 61.354C152.176 60.7451 152.582 60.0347 152.582 59.2228C152.582 58.6607 152.364 58.1454 151.927 57.677C151.489 57.193 150.935 56.951 150.264 56.951C149.873 56.951 148.835 57.0447 147.148 57.232ZM146.914 52.4074L147.078 56.0141C147.312 55.9829 147.671 55.9595 148.156 55.9439C148.64 55.9283 149.03 55.897 149.327 55.8502C149.623 55.7878 149.951 55.6706 150.31 55.4989C150.67 55.3115 150.951 54.9915 151.154 54.5387C151.372 54.0859 151.521 53.4925 151.599 52.7587C151.442 52.2903 150.966 52.0561 150.17 52.0561C149.811 52.0561 149.249 52.1107 148.483 52.22C147.718 52.3293 147.195 52.3918 146.914 52.4074Z" fill="black"/>
<path fill-rule="evenodd" clip-rule="evenodd" d="M193.879 61.5952C190.693 65.5805 186.999 68.3577 185.208 69.6784C182.689 71.5358 177.902 73.8503 171.512 76.3254C165.105 78.8073 157.036 81.4695 147.916 84.0109C129.678 89.0933 107.205 93.7004 85.3642 95.4127C63.5397 97.1237 42.2719 95.9507 26.4908 89.411C18.5908 86.1373 12.0425 81.5089 7.49919 75.2034C2.9527 68.8936 0.443693 60.9453 0.556372 51.0864C0.781801 31.3624 9.95343 18.8627 23.7622 11.4087C37.5229 3.98078 55.8521 1.57844 74.433 1.8896C93.0277 2.20099 111.947 5.2316 126.941 8.73152C134.439 10.4817 140.964 12.351 145.982 14.0599C148.491 14.9142 150.628 15.7303 152.326 16.4733C154.013 17.2116 155.3 17.8929 156.083 18.4849L155.358 19.4114C154.692 18.9075 153.511 18.2716 151.842 17.5412C150.185 16.8155 148.08 16.0115 145.593 15.1644C140.618 13.4705 134.133 11.6116 126.667 9.8688C111.731 6.38271 92.9 3.36792 74.4128 3.05833C55.9118 2.74851 37.8279 5.14962 24.3345 12.4334C10.8892 19.6911 1.96574 31.8114 1.7453 51.0995C1.63504 60.7465 4.08699 68.4456 8.46943 74.5278C12.855 80.6143 19.2037 85.1227 26.9526 88.3339C42.4693 94.764 63.5074 95.9536 85.2697 94.2475C107.016 92.5426 129.41 87.9529 147.592 82.8863C156.682 80.3533 164.712 77.703 171.076 75.2379C177.458 72.7659 182.114 70.4987 184.495 68.7433C186.27 67.4341 189.859 64.732 192.944 60.8729C196.028 57.014 198.573 52.0423 198.339 46.1846C198.106 40.3361 195.097 33.4857 186.828 25.8722C178.553 18.2531 165.042 9.90218 143.896 1.07595L144.361 0C165.572 8.85338 179.223 17.2689 187.64 25.019C196.064 32.7748 199.278 39.8964 199.528 46.1387C199.777 52.3717 197.064 57.6097 193.879 61.5952Z" fill="black"/>
</svg>
