<svg width="259" height="120" viewBox="0 0 259 120" fill="none" xmlns="http://www.w3.org/2000/svg">
<path d="M38.5386 54.2668L36.9494 54.4139C36.1827 49.5798 35.3532 45.4392 34.461 41.9923C34.001 43.0852 33.4922 44.6266 32.9346 46.6162C32.3909 48.5919 32.0145 49.874 31.8054 50.4625C31.7775 50.4625 31.7287 50.4695 31.659 50.4835C31.6033 50.4835 31.5545 50.4835 31.5127 50.4835C31.3175 50.4835 30.9969 50.4625 30.5508 50.4205C30.1047 50.3784 29.8189 50.3574 29.6934 50.3574C29.6795 49.9511 29.324 48.5989 28.627 46.301C27.93 43.989 27.5118 42.5108 27.3724 41.8662C27.1214 44.1361 26.1456 48.2697 24.4449 54.2668L23.1484 54.1406C23.3436 52.6133 23.8245 50.2103 24.5913 46.9315C25.358 43.6527 25.811 41.1166 25.9505 39.323C26.2014 39.295 26.4035 39.281 26.5569 39.281C26.6963 39.281 27.2121 39.3371 28.1042 39.4492C28.2994 39.4772 28.5782 40.1147 28.9407 41.3618C29.317 42.5948 29.6934 43.954 30.0698 45.4392C30.4462 46.9245 30.6832 47.8003 30.7808 48.0665C31.1711 47.0997 31.6381 45.5303 32.1818 43.3585C32.7394 41.1866 33.1297 39.8065 33.3528 39.218C33.5758 39.232 34.2798 39.295 35.4648 39.4071C35.8272 40.8223 36.1757 42.3496 36.5103 43.989C36.8588 45.6284 37.2282 47.492 37.6185 49.5798C38.0228 51.6675 38.3295 53.2299 38.5386 54.2668Z" fill="black"/>
<path d="M40.1487 45.187L39.7305 44.1151C40.093 43.7508 40.553 43.4636 41.1106 43.2534C41.6682 43.0292 42.2189 42.9171 42.7625 42.9171C45.1185 42.9171 46.2964 44.9628 46.2964 49.0543C46.2964 49.6148 46.2616 50.4415 46.1919 51.5344C46.1361 52.6274 46.1082 53.4471 46.1082 53.9935C45.9967 54.4279 45.7806 54.6451 45.46 54.6451C45.2091 54.6451 44.979 54.519 44.7699 54.2668C44.5608 54.0145 44.4563 53.7343 44.4563 53.426C44.4563 53.328 44.4633 53.2579 44.4772 53.2159C43.6129 54.0566 42.6928 54.4769 41.717 54.4769C40.9782 54.4769 40.3299 54.2107 39.7723 53.6783C39.2286 53.1318 38.9568 52.4732 38.9568 51.7026C38.9568 50.3995 39.4587 49.2225 40.4624 48.1716C41.48 47.1207 42.6301 46.5952 43.9126 46.5952C43.9684 46.5952 44.0241 46.6022 44.0799 46.6162C44.1357 46.6162 44.1984 46.6233 44.2681 46.6373C44.3517 46.6513 44.4145 46.6583 44.4563 46.6583C44.3448 45.0189 43.6965 44.1992 42.5116 44.1992C41.8146 44.1992 41.027 44.5285 40.1487 45.187ZM44.519 51.7656C44.5469 50.7848 44.5608 50.0422 44.5608 49.5377C44.5608 49.1174 44.5469 48.5289 44.519 47.7722H44.3517C43.362 47.7862 42.4558 48.1576 41.6334 48.8862C40.8248 49.6148 40.4206 50.4975 40.4206 51.5344C40.4206 51.9828 40.553 52.3401 40.8179 52.6063C41.0967 52.8726 41.4312 53.0057 41.8216 53.0057C42.4349 53.0057 43.3341 52.5923 44.519 51.7656Z" fill="black"/>
<path d="M48.2411 43.2114L49.4121 43.4215C49.4121 43.7158 49.4191 43.933 49.433 44.0731C50.1997 43.5827 50.9734 43.3375 51.7541 43.3375C53.0226 43.3375 54.0124 43.8839 54.7234 44.9769C55.4343 46.0698 55.7898 47.3098 55.7898 48.697C55.7898 49.3976 55.734 50.0702 55.6225 50.7147C55.5249 51.3453 55.3437 51.9968 55.0788 52.6694C54.814 53.328 54.4027 53.8604 53.8451 54.2668C53.3014 54.6591 52.6393 54.8553 51.8586 54.8553C51.1198 54.8553 50.4088 54.6591 49.7257 54.2668C49.7815 56.7188 49.8303 58.5404 49.8721 59.7314C49.7467 60.1658 49.5027 60.383 49.1402 60.383C48.8893 60.383 48.6454 60.2779 48.4084 60.0677C48.1853 59.8715 48.0459 59.6263 47.9902 59.3321L48.2411 43.2114ZM49.6003 45.4392L49.663 52.228C49.8303 52.5643 50.0882 52.8375 50.4367 53.0477C50.7852 53.2439 51.1686 53.342 51.5868 53.342C52.1305 53.342 52.5905 53.1668 52.9669 52.8165C53.3572 52.4662 53.629 52.0038 53.7824 51.4293C53.9497 50.8408 54.0612 50.2944 54.117 49.7899C54.1867 49.2855 54.2215 48.7531 54.2215 48.1926C54.2215 45.8106 53.4199 44.6195 51.8168 44.6195C51.301 44.6195 50.8201 44.6966 50.374 44.8507C49.9418 44.9909 49.6839 45.187 49.6003 45.4392Z" fill="black"/>
<path d="M64.9695 53.7413L65.0323 54.6661C64.6977 54.7502 64.4607 54.7922 64.3213 54.7922C63.7916 54.7922 63.3106 54.6171 62.8785 54.2668C62.4463 53.9165 62.0909 53.4891 61.812 52.9847C61.5332 52.4802 61.2684 51.9758 61.0174 51.4714C60.7805 50.9669 60.5226 50.5396 60.2438 50.1893C59.9649 49.839 59.6792 49.6638 59.3864 49.6638C59.2749 49.6638 59.1703 49.6849 59.0728 49.7269C59.1285 50.5676 59.2261 51.9268 59.3655 53.8044C59.24 54.2387 58.9961 54.4559 58.6336 54.4559C58.3827 54.4559 58.1388 54.3578 57.9018 54.1617C57.6787 53.9515 57.5393 53.6993 57.4836 53.405C57.5393 51.051 57.5672 48.8371 57.5672 46.7634C57.5672 45.2361 57.6299 44.024 57.7554 43.1273L58.6964 43.4636C58.8079 44.01 58.8706 44.7947 58.8846 45.8176C58.8985 46.8264 58.9124 47.45 58.9264 47.6882C59.3446 47.6181 59.707 47.4009 60.0137 47.0366C60.3344 46.6723 60.5923 46.2589 60.7874 45.7966C60.9965 45.3342 61.2126 44.8788 61.4357 44.4304C61.6587 43.982 61.9445 43.6037 62.293 43.2954C62.6554 42.9872 63.0806 42.833 63.5685 42.833C63.8195 42.833 64.2098 42.9171 64.7395 43.0852L64.6559 43.7999C64.5722 43.7858 64.4607 43.7788 64.3213 43.7788C63.7637 43.7788 63.2758 44.017 62.8576 44.4934C62.4533 44.9558 62.1466 45.4743 61.9375 46.0488C61.7423 46.6092 61.4914 47.1487 61.1847 47.6671C60.878 48.1856 60.5435 48.4868 60.181 48.5709C60.6968 48.697 61.1359 49.0473 61.4984 49.6218C61.8748 50.1963 62.1536 50.7918 62.3348 51.4083C62.53 52.0108 62.8088 52.5643 63.1712 53.0687C63.5337 53.5592 63.9798 53.8044 64.5095 53.8044C64.6489 53.8044 64.8022 53.7833 64.9695 53.7413Z" fill="black"/>
<path d="M74.3166 52.228L74.5257 53.1528C73.9123 53.377 72.9992 53.6292 71.7864 53.9094C70.5875 54.1757 69.6953 54.3088 69.1098 54.3088C68.5104 54.3088 67.9876 54.1126 67.5415 53.7203C67.0954 53.3139 66.7609 52.8025 66.5378 52.186C66.3148 51.5554 66.1475 50.9389 66.036 50.3364C65.9384 49.7199 65.8896 49.1174 65.8896 48.5289C65.8896 45.0259 67.4649 43.2744 70.6154 43.2744C71.3682 43.2744 72.0303 43.5196 72.6019 44.01C73.1734 44.4864 73.4592 45.11 73.4592 45.8806C73.4592 46.301 73.3407 46.6723 73.1037 46.9946C72.8807 47.3168 72.6019 47.5761 72.2673 47.7722C71.9467 47.9544 71.5285 48.1225 71.0127 48.2767C70.5108 48.4308 70.0647 48.5429 69.6744 48.6129C69.2841 48.683 68.8171 48.7601 68.2734 48.8441C67.7297 48.9282 67.3533 48.9913 67.1442 49.0333C67.1582 49.4396 67.1791 49.797 67.207 50.1052C67.2488 50.4135 67.3185 50.7498 67.4161 51.1141C67.5276 51.4644 67.667 51.7586 67.8343 51.9968C68.0155 52.221 68.2595 52.4102 68.5662 52.5643C68.8728 52.7184 69.2353 52.7955 69.6535 52.7955C70.1553 52.7955 70.7687 52.7535 71.4936 52.6694C72.2185 52.5713 72.8598 52.4732 73.4174 52.3751C73.989 52.2771 74.2887 52.228 74.3166 52.228ZM67.2279 47.7302C69.1238 47.1837 70.6781 46.6092 71.8909 46.0067C71.7933 45.5443 71.6609 45.208 71.4936 44.9979C71.3263 44.7877 71.0754 44.6826 70.7408 44.6826C69.8905 44.6826 69.1168 44.9769 68.4198 45.5654C67.7367 46.1539 67.3394 46.8755 67.2279 47.7302Z" fill="black"/>
<path d="M74.6929 44.6195L74.5047 43.6948C76.3728 43.5827 79.3142 43.4285 83.329 43.2324C83.6636 43.2464 83.9493 43.3725 84.1863 43.6107C84.4233 43.8489 84.5418 44.1011 84.5418 44.3673C84.5418 44.7877 84.263 45.0259 83.7054 45.0819L79.7951 44.8928C79.8648 45.9437 79.8997 47.478 79.8997 49.4957C79.9136 51.4994 79.9415 52.9636 79.9833 53.8884C79.8578 54.2948 79.6139 54.4979 79.2514 54.4979C79.0145 54.4979 78.7844 54.3999 78.5614 54.2037C78.3383 54.0075 78.1989 53.7693 78.1432 53.4891C78.3383 50.0422 78.5405 47.1487 78.7496 44.8087L74.6929 44.6195Z" fill="black"/>
<path d="M87.2393 52.5223C87.2393 52.7605 87.2532 53.0757 87.2811 53.4681C87.1556 53.9024 86.9117 54.1196 86.5492 54.1196C86.2983 54.1196 86.0543 54.0215 85.8174 53.8254C85.5943 53.6152 85.4549 53.363 85.3991 53.0687C85.441 51.9338 85.4898 50.2734 85.5455 48.0875C85.6152 45.9016 85.664 44.4234 85.6919 43.6527L86.6538 43.4846C86.8211 44.3813 86.9256 45.5724 86.9674 47.0576C87.0093 48.5429 87.065 49.6498 87.1347 50.3784C87.3996 49.9861 88.1524 48.9632 89.3931 47.3098C90.6338 45.6564 91.4771 44.4234 91.9232 43.6107C92.2299 43.5546 92.4251 43.5266 92.5087 43.5266C92.7736 43.5266 92.9548 43.6457 93.0524 43.8839C93.1639 44.1221 93.2336 44.5705 93.2615 45.2291L93.6588 53.8884C93.5333 54.3088 93.2894 54.519 92.9269 54.519C92.676 54.519 92.4321 54.4209 92.1951 54.2247C91.972 54.0145 91.8326 53.7623 91.7769 53.4681C91.7908 53.0057 91.8257 51.8777 91.8814 50.0842C91.9511 48.2767 92.0069 46.9946 92.0487 46.2379C89.6649 48.9702 88.0618 51.065 87.2393 52.5223Z" fill="black"/>
<path d="M101.626 43.6107L102.567 43.8209L103.048 54.0145C102.922 54.4349 102.678 54.6451 102.316 54.6451C102.065 54.6451 101.821 54.54 101.584 54.3298C101.347 54.1336 101.201 53.8884 101.145 53.5942C101.145 53.5521 101.208 52.3681 101.333 50.0422V49.874C100.943 49.846 100.364 49.832 99.5974 49.832C98.4404 49.832 97.5691 49.797 96.9836 49.7269C97.0533 50.5396 97.1439 51.8497 97.2554 53.6572C97.13 54.0916 96.886 54.3088 96.5236 54.3088C96.2726 54.3088 96.0287 54.2107 95.7917 54.0145C95.5686 53.8044 95.4292 53.5521 95.3735 53.2579C95.4153 52.5573 95.4362 51.8567 95.4362 51.1561C95.4362 50.7077 95.4292 50.0352 95.4153 49.1384C95.4014 48.2416 95.3944 47.5761 95.3944 47.1417C95.3944 45.7966 95.4362 44.6686 95.5198 43.7578L96.4608 43.989C96.7396 47.0296 96.886 48.5919 96.8999 48.676C99.2837 48.8021 100.51 48.8652 100.58 48.8652C101.152 48.8652 101.438 48.8301 101.438 48.7601C101.438 48.4798 101.465 47.5901 101.521 46.0908C101.577 44.5915 101.612 43.7648 101.626 43.6107Z" fill="black"/>
<path d="M105.16 43.4846C105.759 43.4285 106.665 43.3375 107.878 43.2114C109.091 43.0712 109.948 42.9802 110.45 42.9381C110.798 42.9521 111.091 43.0852 111.328 43.3375C111.579 43.5757 111.705 43.8349 111.705 44.1151C111.705 44.5355 111.426 44.7737 110.868 44.8297C110.352 44.7877 109.572 44.7176 108.526 44.6195C107.481 44.5215 106.686 44.4514 106.142 44.4094C106.156 45.2641 106.24 46.6513 106.393 48.5709C106.547 50.4905 106.623 51.9548 106.623 52.9636C106.623 53.8324 106.282 54.2668 105.599 54.2668C105.027 54.2668 104.741 53.8744 104.741 53.0898C104.741 52.165 104.762 51.1771 104.804 50.1262C104.846 49.0613 104.909 47.8493 104.992 46.4901C105.076 45.117 105.132 44.1151 105.16 43.4846Z" fill="black"/>
<path d="M111.621 49.7899C111.621 49.2295 111.677 48.6059 111.788 47.9194C111.914 47.2328 112.095 46.5112 112.332 45.7545C112.569 44.9979 112.924 44.3673 113.398 43.8629C113.872 43.3585 114.423 43.1063 115.05 43.1063C116.389 43.1063 117.462 43.7158 118.271 44.9348C119.079 46.1398 119.483 47.485 119.483 48.9702C119.483 49.6008 119.414 50.2313 119.274 50.8619C119.149 51.4784 118.947 52.0879 118.668 52.6904C118.389 53.2929 117.985 53.7974 117.455 54.2037C116.939 54.596 116.333 54.8202 115.636 54.8763C114.353 54.7081 113.364 54.1617 112.666 53.2369C111.969 52.2981 111.621 51.1491 111.621 49.7899ZM115.176 44.1992C114.688 44.2552 114.277 44.7036 113.942 45.5443C113.607 46.3851 113.391 47.2047 113.294 48.0034C113.196 48.7881 113.147 49.4817 113.147 50.0842C113.147 50.8689 113.384 51.5975 113.858 52.2701C114.346 52.9286 114.89 53.2579 115.489 53.2579C115.922 53.2579 116.312 53.0898 116.66 52.7535C117.009 52.4172 117.281 52.0038 117.476 51.5134C117.685 51.009 117.838 50.5046 117.936 50.0001C118.047 49.4957 118.103 49.0473 118.103 48.655C118.103 47.506 117.845 46.5042 117.33 45.6494C116.814 44.7947 116.096 44.3113 115.176 44.1992Z" fill="black"/>
<path d="M121.637 43.4846C123.798 43.0222 125.115 42.791 125.589 42.791C127.457 42.791 128.391 43.5967 128.391 45.208C128.391 45.7685 128.294 46.315 128.098 46.8474C127.917 47.3659 127.687 47.7092 127.408 47.8773C128.496 48.62 129.039 49.6428 129.039 50.9459C129.039 52.179 128.635 53.1388 127.827 53.8254C127.032 54.512 125.98 54.8553 124.669 54.8553C123.108 54.8553 121.944 54.4349 121.177 53.5942L121.637 43.4846ZM122.829 48.7601L123.017 53.0267C123.366 53.1948 123.763 53.2789 124.209 53.2789C125.073 53.2789 125.868 53.0057 126.593 52.4592C127.318 51.9128 127.68 51.2752 127.68 50.5466C127.68 50.0422 127.485 49.5798 127.095 49.1594C126.704 48.725 126.21 48.5079 125.61 48.5079C125.262 48.5079 124.335 48.5919 122.829 48.7601ZM122.62 44.4304L122.766 47.6671C122.975 47.6391 123.296 47.6181 123.728 47.6041C124.16 47.5901 124.509 47.5621 124.774 47.52C125.039 47.464 125.331 47.3589 125.652 47.2047C125.973 47.0366 126.224 46.7494 126.405 46.343C126.6 45.9367 126.732 45.4042 126.802 44.7457C126.663 44.3253 126.237 44.1151 125.526 44.1151C125.206 44.1151 124.704 44.1642 124.021 44.2622C123.338 44.3603 122.871 44.4164 122.62 44.4304Z" fill="black"/>
<path d="M131.486 45.187L131.068 44.1151C131.43 43.7508 131.89 43.4636 132.448 43.2534C133.005 43.0292 133.556 42.9171 134.1 42.9171C136.456 42.9171 137.634 44.9628 137.634 49.0543C137.634 49.6148 137.599 50.4415 137.529 51.5344C137.473 52.6274 137.445 53.4471 137.445 53.9935C137.334 54.4279 137.118 54.6451 136.797 54.6451C136.546 54.6451 136.316 54.519 136.107 54.2668C135.898 54.0145 135.794 53.7343 135.794 53.426C135.794 53.328 135.801 53.2579 135.814 53.2159C134.95 54.0566 134.03 54.4769 133.054 54.4769C132.315 54.4769 131.667 54.2107 131.11 53.6783C130.566 53.1318 130.294 52.4732 130.294 51.7026C130.294 50.3995 130.796 49.2225 131.8 48.1716C132.817 47.1207 133.967 46.5952 135.25 46.5952C135.306 46.5952 135.361 46.6022 135.417 46.6162C135.473 46.6162 135.536 46.6233 135.605 46.6373C135.689 46.6513 135.752 46.6583 135.794 46.6583C135.682 45.0189 135.034 44.1992 133.849 44.1992C133.152 44.1992 132.364 44.5285 131.486 45.187ZM135.856 51.7656C135.884 50.7848 135.898 50.0422 135.898 49.5377C135.898 49.1174 135.884 48.5289 135.856 47.7722H135.689C134.699 47.7862 133.793 48.1576 132.971 48.8862C132.162 49.6148 131.758 50.4975 131.758 51.5344C131.758 51.9828 131.89 52.3401 132.155 52.6063C132.434 52.8726 132.769 53.0057 133.159 53.0057C133.772 53.0057 134.671 52.5923 135.856 51.7656Z" fill="black"/>
<path d="M146.5 43.3585L146.813 54.6451C146.674 55.0654 146.437 55.2756 146.102 55.2756C145.865 55.2756 145.628 55.1775 145.392 54.9814C145.168 54.7852 145.029 54.547 144.973 54.2668L145.182 49.7059C144.597 50.0842 143.991 50.2804 143.363 50.2944C142.833 52.0459 142.164 53.328 141.356 54.1406C140.561 54.9533 139.286 55.6049 137.529 56.0953L137.195 55.1915C139.801 54.533 141.286 52.8025 141.649 50.0001C140.979 49.7199 140.422 49.2925 139.976 48.718C139.544 48.1435 139.327 47.485 139.327 46.7424C139.327 45.2571 139.704 44.2693 140.457 43.7788C141.209 43.2884 142.401 43.0432 144.032 43.0432C144.883 43.0432 145.705 43.1483 146.5 43.3585ZM145.35 47.9404L145.245 44.6195C144.757 44.4654 144.039 44.3884 143.091 44.3884C142.422 44.3884 141.851 44.5425 141.377 44.8507C140.903 45.145 140.666 45.6284 140.666 46.301C140.666 47.0576 140.965 47.7092 141.565 48.2556C142.164 48.7881 142.82 49.0543 143.53 49.0543C144.367 49.0543 144.973 48.683 145.35 47.9404Z" fill="black"/>
<path d="M161.555 43.8419L161.451 44.7457C160.865 44.6616 160.363 44.6195 159.945 44.6195C158.983 44.6195 158.189 44.9138 157.561 45.5023C156.934 46.0768 156.502 46.7634 156.265 47.5621C156.042 48.3467 155.93 49.2225 155.93 50.1893C155.93 50.6377 155.958 51.037 156.014 51.3873C156.07 51.7376 156.167 52.0809 156.307 52.4172C156.46 52.7535 156.69 53.0197 156.997 53.2159C157.317 53.398 157.708 53.4891 158.168 53.4891C158.781 53.4891 159.562 53.37 160.51 53.1318C160.803 53.0197 161.033 52.9636 161.2 52.9636C161.534 52.9636 161.737 53.356 161.806 54.1406C160.58 54.533 159.443 54.7291 158.398 54.7291C156.878 54.7291 155.847 54.3578 155.303 53.6152C154.773 52.8586 154.508 51.6395 154.508 49.9581C154.508 48.9773 154.571 48.1225 154.697 47.3939C154.836 46.6513 155.073 45.9647 155.408 45.3342C155.742 44.6896 156.223 44.1992 156.85 43.8629C157.492 43.5266 158.272 43.3585 159.192 43.3585C160.224 43.3585 161.012 43.5196 161.555 43.8419Z" fill="black"/>
<path d="M162.204 44.6195L162.015 43.6948C163.883 43.5827 166.825 43.4285 170.84 43.2324C171.174 43.2464 171.46 43.3725 171.697 43.6107C171.934 43.8489 172.052 44.1011 172.052 44.3673C172.052 44.7877 171.774 45.0259 171.216 45.0819L167.306 44.8928C167.375 45.9437 167.41 47.478 167.41 49.4957C167.424 51.4994 167.452 52.9636 167.494 53.8884C167.368 54.2948 167.125 54.4979 166.762 54.4979C166.525 54.4979 166.295 54.3999 166.072 54.2037C165.849 54.0075 165.71 53.7693 165.654 53.4891C165.849 50.0422 166.051 47.1487 166.26 44.8087L162.204 44.6195Z" fill="black"/>
<path d="M173.161 43.2114L174.332 43.4215C174.332 43.7158 174.339 43.933 174.353 44.0731C175.119 43.5827 175.893 43.3375 176.674 43.3375C177.942 43.3375 178.932 43.8839 179.643 44.9769C180.354 46.0698 180.709 47.3098 180.709 48.697C180.709 49.3976 180.654 50.0702 180.542 50.7147C180.445 51.3453 180.263 51.9968 179.998 52.6694C179.734 53.328 179.322 53.8604 178.765 54.2668C178.221 54.6591 177.559 54.8553 176.778 54.8553C176.039 54.8553 175.328 54.6591 174.645 54.2668C174.701 56.7188 174.75 58.5404 174.792 59.7314C174.666 60.1658 174.422 60.383 174.06 60.383C173.809 60.383 173.565 60.2779 173.328 60.0677C173.105 59.8715 172.966 59.6263 172.91 59.3321L173.161 43.2114ZM174.52 45.4392L174.583 52.228C174.75 52.5643 175.008 52.8375 175.356 53.0477C175.705 53.2439 176.088 53.342 176.506 53.342C177.05 53.342 177.51 53.1668 177.887 52.8165C178.277 52.4662 178.549 52.0038 178.702 51.4293C178.869 50.8408 178.981 50.2944 179.037 49.7899C179.106 49.2855 179.141 48.7531 179.141 48.1926C179.141 45.8106 178.34 44.6195 176.736 44.6195C176.221 44.6195 175.74 44.6966 175.294 44.8507C174.861 44.9909 174.604 45.187 174.52 45.4392Z" fill="black"/>
<path d="M183.156 45.187L182.738 44.1151C183.1 43.7508 183.56 43.4636 184.118 43.2534C184.675 43.0292 185.226 42.9171 185.77 42.9171C188.126 42.9171 189.304 44.9628 189.304 49.0543C189.304 49.6148 189.269 50.4415 189.199 51.5344C189.143 52.6274 189.115 53.4471 189.115 53.9935C189.004 54.4279 188.788 54.6451 188.467 54.6451C188.216 54.6451 187.986 54.519 187.777 54.2668C187.568 54.0145 187.464 53.7343 187.464 53.426C187.464 53.328 187.471 53.2579 187.484 53.2159C186.62 54.0566 185.7 54.4769 184.724 54.4769C183.985 54.4769 183.337 54.2107 182.78 53.6783C182.236 53.1318 181.964 52.4732 181.964 51.7026C181.964 50.3995 182.466 49.2225 183.47 48.1716C184.487 47.1207 185.637 46.5952 186.92 46.5952C186.976 46.5952 187.031 46.6022 187.087 46.6162C187.143 46.6162 187.206 46.6233 187.275 46.6373C187.359 46.6513 187.422 46.6583 187.464 46.6583C187.352 45.0189 186.704 44.1992 185.519 44.1992C184.822 44.1992 184.034 44.5285 183.156 45.187ZM187.526 51.7656C187.554 50.7848 187.568 50.0422 187.568 49.5377C187.568 49.1174 187.554 48.5289 187.526 47.7722H187.359C186.369 47.7862 185.463 48.1576 184.641 48.8862C183.832 49.6148 183.428 50.4975 183.428 51.5344C183.428 51.9828 183.56 52.3401 183.825 52.6063C184.104 52.8726 184.438 53.0057 184.829 53.0057C185.442 53.0057 186.341 52.5923 187.526 51.7656Z" fill="black"/>
<path d="M190.328 44.6195L190.14 43.6948C192.008 43.5827 194.95 43.4285 198.964 43.2324C199.299 43.2464 199.585 43.3725 199.822 43.6107C200.059 43.8489 200.177 44.1011 200.177 44.3673C200.177 44.7877 199.898 45.0259 199.341 45.0819L195.43 44.8928C195.5 45.9437 195.535 47.478 195.535 49.4957C195.549 51.4994 195.577 52.9636 195.619 53.8884C195.493 54.2948 195.249 54.4979 194.887 54.4979C194.65 54.4979 194.42 54.3999 194.197 54.2037C193.974 54.0075 193.834 53.7693 193.779 53.4891C193.974 50.0422 194.176 47.1487 194.385 44.8087L190.328 44.6195Z" fill="black"/>
<path d="M208.709 52.228L208.918 53.1528C208.304 53.377 207.391 53.6292 206.178 53.9094C204.98 54.1757 204.087 54.3088 203.502 54.3088C202.902 54.3088 202.38 54.1126 201.934 53.7203C201.488 53.3139 201.153 52.8025 200.93 52.186C200.707 51.5554 200.54 50.9389 200.428 50.3364C200.33 49.7199 200.282 49.1174 200.282 48.5289C200.282 45.0259 201.857 43.2744 205.007 43.2744C205.76 43.2744 206.422 43.5196 206.994 44.01C207.566 44.4864 207.851 45.11 207.851 45.8806C207.851 46.301 207.733 46.6723 207.496 46.9946C207.273 47.3168 206.994 47.5761 206.659 47.7722C206.339 47.9544 205.921 48.1225 205.405 48.2767C204.903 48.4308 204.457 48.5429 204.067 48.6129C203.676 48.683 203.209 48.7601 202.665 48.8441C202.122 48.9282 201.745 48.9913 201.536 49.0333C201.55 49.4396 201.571 49.797 201.599 50.1052C201.641 50.4135 201.711 50.7498 201.808 51.1141C201.92 51.4644 202.059 51.7586 202.226 51.9968C202.408 52.221 202.652 52.4102 202.958 52.5643C203.265 52.7184 203.627 52.7955 204.046 52.7955C204.547 52.7955 205.161 52.7535 205.886 52.6694C206.611 52.5713 207.252 52.4732 207.809 52.3751C208.381 52.2771 208.681 52.228 208.709 52.228ZM201.62 47.7302C203.516 47.1837 205.07 46.6092 206.283 46.0067C206.185 45.5443 206.053 45.208 205.886 44.9979C205.718 44.7877 205.468 44.6826 205.133 44.6826C204.283 44.6826 203.509 44.9769 202.812 45.5654C202.129 46.1539 201.731 46.8755 201.62 47.7302Z" fill="black"/>
<path d="M210.172 43.4846C210.772 43.4285 211.678 43.3375 212.891 43.2114C214.104 43.0712 214.961 42.9802 215.463 42.9381C215.811 42.9521 216.104 43.0852 216.341 43.3375C216.592 43.5757 216.717 43.8349 216.717 44.1151C216.717 44.5355 216.439 44.7737 215.881 44.8297C215.365 44.7877 214.585 44.7176 213.539 44.6195C212.493 44.5215 211.699 44.4514 211.155 44.4094C211.169 45.2641 211.253 46.6513 211.406 48.5709C211.559 50.4905 211.636 51.9548 211.636 52.9636C211.636 53.8324 211.295 54.2668 210.612 54.2668C210.04 54.2668 209.754 53.8744 209.754 53.0898C209.754 52.165 209.775 51.1771 209.817 50.1262C209.859 49.0613 209.921 47.8493 210.005 46.4901C210.089 45.117 210.145 44.1151 210.172 43.4846Z" fill="black"/>
<path d="M219.394 52.5223C219.394 52.7605 219.408 53.0757 219.436 53.4681C219.31 53.9024 219.066 54.1196 218.704 54.1196C218.453 54.1196 218.209 54.0215 217.972 53.8254C217.749 53.6152 217.61 53.363 217.554 53.0687C217.596 51.9338 217.644 50.2734 217.7 48.0875C217.77 45.9016 217.819 44.4234 217.847 43.6527L218.808 43.4846C218.976 44.3813 219.08 45.5724 219.122 47.0576C219.164 48.5429 219.22 49.6498 219.289 50.3784C219.554 49.9861 220.307 48.9632 221.548 47.3098C222.788 45.6564 223.632 44.4234 224.078 43.6107C224.385 43.5546 224.58 43.5266 224.663 43.5266C224.928 43.5266 225.109 43.6457 225.207 43.8839C225.319 44.1221 225.388 44.5705 225.416 45.2291L225.813 53.8884C225.688 54.3088 225.444 54.519 225.082 54.519C224.831 54.519 224.587 54.4209 224.35 54.2247C224.127 54.0145 223.987 53.7623 223.932 53.4681C223.945 53.0057 223.98 51.8777 224.036 50.0842C224.106 48.2767 224.162 46.9946 224.203 46.2379C221.82 48.9702 220.216 51.065 219.394 52.5223Z" fill="black"/>
<path d="M234.7 43.3585L235.014 54.6451C234.875 55.0654 234.638 55.2756 234.303 55.2756C234.066 55.2756 233.829 55.1775 233.592 54.9814C233.369 54.7852 233.23 54.547 233.174 54.2668L233.383 49.7059C232.798 50.0842 232.191 50.2804 231.564 50.2944C231.034 52.0459 230.365 53.328 229.556 54.1406C228.762 54.9533 227.486 55.6049 225.73 56.0953L225.395 55.1915C228.002 54.533 229.487 52.8025 229.849 50.0001C229.18 49.7199 228.622 49.2925 228.176 48.718C227.744 48.1435 227.528 47.485 227.528 46.7424C227.528 45.2571 227.905 44.2693 228.657 43.7788C229.41 43.2884 230.602 43.0432 232.233 43.0432C233.083 43.0432 233.906 43.1483 234.7 43.3585ZM233.55 47.9404L233.446 44.6195C232.958 44.4654 232.24 44.3884 231.292 44.3884C230.623 44.3884 230.051 44.5425 229.577 44.8507C229.103 45.145 228.866 45.6284 228.866 46.301C228.866 47.0576 229.166 47.7092 229.766 48.2556C230.365 48.7881 231.02 49.0543 231.731 49.0543C232.568 49.0543 233.174 48.683 233.55 47.9404Z" fill="black"/>
<path d="M25.8459 80.3219C25.8459 80.5601 25.8598 80.8754 25.8877 81.2677C25.7623 81.7021 25.5183 81.9193 25.1559 81.9193C24.9049 81.9193 24.661 81.8212 24.424 81.625C24.2009 81.4148 24.0615 81.1626 24.0058 80.8684C24.0476 79.7334 24.0964 78.073 24.1521 75.8871C24.2218 73.7013 24.2706 72.223 24.2985 71.4524L25.2604 71.2842C25.4277 72.181 25.5322 73.372 25.5741 74.8573C25.6159 76.3425 25.6716 77.4495 25.7413 78.1781C26.0062 77.7858 26.759 76.7629 27.9997 75.1095C29.2404 73.4561 30.0838 72.223 30.5299 71.4103C30.8365 71.3543 31.0317 71.3263 31.1154 71.3263C31.3802 71.3263 31.5614 71.4454 31.659 71.6836C31.7706 71.9218 31.8403 72.3701 31.8681 73.0287L32.2654 81.6881C32.14 82.1084 31.896 82.3186 31.5336 82.3186C31.2826 82.3186 31.0387 82.2205 30.8017 82.0244C30.5787 81.8142 30.4392 81.562 30.3835 81.2677C30.3974 80.8053 30.4323 79.6774 30.488 77.8838C30.5577 76.0763 30.6135 74.7942 30.6553 74.0376C28.2715 76.7699 26.6684 78.8647 25.8459 80.3219Z" fill="black"/>
<path d="M40.1069 71.5575L47.1537 71.6205L47.6347 81.8142C47.5092 82.2345 47.2653 82.4447 46.9028 82.4447C46.6519 82.4447 46.4079 82.3396 46.171 82.1294C45.934 81.9333 45.7876 81.6881 45.7318 81.3938C45.7458 81.1416 45.7667 80.3499 45.7946 79.0188C45.8364 77.6737 45.8782 76.3916 45.92 75.1725C45.9618 73.9395 45.9897 73.1408 46.0037 72.7765C45.6133 72.7485 45.0348 72.7345 44.2681 72.7345C43.2226 72.7345 42.3513 72.6924 41.6543 72.6083C41.6961 73.0707 41.7309 74.563 41.7588 77.0852C41.7867 79.5933 41.8146 81.0505 41.8425 81.4569C41.717 81.8912 41.473 82.1084 41.1106 82.1084C40.8597 82.1084 40.6157 82.0103 40.3787 81.8142C40.1557 81.604 40.0163 81.3518 39.9605 81.0575C40.0023 80.3569 40.0233 79.6563 40.0233 78.9557C40.0233 78.5914 40.0163 77.9889 40.0023 77.1482C39.9884 76.3075 39.9814 75.6419 39.9814 75.1515C39.9814 73.7083 40.0233 72.5103 40.1069 71.5575Z" fill="black"/>
<path d="M47.091 83.958L46.7564 83.0542C47.2165 82.8721 47.6347 82.5848 48.0111 82.1925C48.3735 81.8002 48.6732 81.3938 48.9102 80.9735C49.1472 80.5391 49.3494 79.9996 49.5166 79.3551C49.6839 78.7105 49.8024 78.1501 49.8721 77.6737C49.9558 77.1832 50.0185 76.5807 50.0603 75.8661C50.1021 75.1515 50.123 74.6191 50.123 74.2688C50.137 73.9044 50.144 73.421 50.144 72.8185C50.144 71.9638 50.2206 71.4524 50.374 71.2842C50.5691 71.074 51.6495 70.969 53.6151 70.969C55.1625 70.969 56.0407 70.9619 56.2498 70.9479C56.2777 76.6368 56.3474 80.3289 56.4589 82.0244C56.3195 82.4447 56.0756 82.6549 55.7271 82.6549C55.4901 82.6549 55.2601 82.5568 55.037 82.3606C54.814 82.1645 54.6746 81.9263 54.6188 81.646C54.6049 81.0996 54.5979 80.2869 54.5979 79.208C54.5979 78.6755 54.5979 77.8698 54.5979 76.7909C54.6118 75.712 54.6188 74.8993 54.6188 74.3528C54.6188 73.344 54.6118 72.5873 54.5979 72.0829C54.0124 72.181 53.4339 72.237 52.8623 72.251C52.2908 72.2651 51.8865 72.2861 51.6495 72.3141C51.6077 72.7765 51.5728 73.4631 51.545 74.3738C51.5171 75.2846 51.4892 76.0903 51.4613 76.7909C51.4474 77.4775 51.3637 78.2622 51.2104 79.1449C51.0571 80.0136 50.834 80.7563 50.5413 81.3728C50.2624 81.9753 49.8233 82.5148 49.2239 82.9912C48.6384 83.4816 47.9274 83.8039 47.091 83.958Z" fill="black"/>
<path d="M58.9055 72.9867L58.4873 71.9148C58.8497 71.5504 59.3097 71.2632 59.8674 71.053C60.425 70.8288 60.9756 70.7167 61.5193 70.7167C63.8752 70.7167 65.0532 72.7625 65.0532 76.854C65.0532 77.4144 65.0183 78.2411 64.9486 79.3341C64.8929 80.427 64.865 81.2467 64.865 81.7932C64.7535 82.2275 64.5374 82.4447 64.2168 82.4447C63.9658 82.4447 63.7358 82.3186 63.5267 82.0664C63.3176 81.8142 63.2131 81.5339 63.2131 81.2257C63.2131 81.1276 63.22 81.0575 63.234 81.0155C62.3697 81.8562 61.4496 82.2766 60.4738 82.2766C59.7349 82.2766 59.0867 82.0103 58.5291 81.4779C57.9854 80.9314 57.7136 80.2729 57.7136 79.5022C57.7136 78.1991 58.2154 77.0221 59.2191 75.9712C60.2368 74.9203 61.3869 74.3949 62.6694 74.3949C62.7251 74.3949 62.7809 74.4019 62.8367 74.4159C62.8924 74.4159 62.9552 74.4229 63.0249 74.4369C63.1085 74.4509 63.1712 74.4579 63.2131 74.4579C63.1015 72.8185 62.4533 71.9988 61.2684 71.9988C60.5714 71.9988 59.7837 72.3281 58.9055 72.9867ZM63.2758 79.5653C63.3037 78.5844 63.3176 77.8418 63.3176 77.3374C63.3176 76.917 63.3037 76.3285 63.2758 75.5719H63.1085C62.1187 75.5859 61.2126 75.9572 60.3901 76.6858C59.5816 77.4144 59.1773 78.2972 59.1773 79.3341C59.1773 79.7824 59.3097 80.1398 59.5746 80.406C59.8534 80.6722 60.188 80.8053 60.5783 80.8053C61.1917 80.8053 62.0909 80.392 63.2758 79.5653Z" fill="black"/>
<path d="M72.9992 71.4103L73.9402 71.6205L74.4211 81.8142C74.2956 82.2345 74.0517 82.4447 73.6892 82.4447C73.4383 82.4447 73.1944 82.3396 72.9574 82.1294C72.7204 81.9333 72.574 81.6881 72.5182 81.3938C72.5182 81.3518 72.581 80.1678 72.7064 77.8418V77.6737C72.3161 77.6456 71.7376 77.6316 70.9709 77.6316C69.8138 77.6316 68.9425 77.5966 68.357 77.5265C68.4267 78.3392 68.5174 79.6493 68.6289 81.4569C68.5034 81.8912 68.2595 82.1084 67.897 82.1084C67.6461 82.1084 67.4021 82.0103 67.1651 81.8142C66.9421 81.604 66.8027 81.3518 66.7469 81.0575C66.7888 80.3569 66.8097 79.6563 66.8097 78.9557C66.8097 78.5074 66.8027 77.8348 66.7888 76.938C66.7748 76.0413 66.7678 75.3757 66.7678 74.9413C66.7678 73.5962 66.8097 72.4682 66.8933 71.5575L67.8343 71.7887C68.1131 74.8292 68.2595 76.3916 68.2734 76.4756C70.6572 76.6017 71.884 76.6648 71.9537 76.6648C72.5252 76.6648 72.811 76.6298 72.811 76.5597C72.811 76.2795 72.8389 75.3897 72.8946 73.8904C72.9504 72.3912 72.9852 71.5645 72.9992 71.4103Z" fill="black"/>
<path d="M77.955 80.3219C77.955 80.5601 77.9689 80.8754 77.9968 81.2677C77.8713 81.7021 77.6274 81.9193 77.2649 81.9193C77.014 81.9193 76.7701 81.8212 76.5331 81.625C76.31 81.4148 76.1706 81.1626 76.1149 80.8684C76.1567 79.7334 76.2055 78.073 76.2612 75.8871C76.3309 73.7013 76.3797 72.223 76.4076 71.4524L77.3695 71.2842C77.5368 72.181 77.6413 73.372 77.6831 74.8573C77.725 76.3425 77.7807 77.4495 77.8504 78.1781C78.1153 77.7858 78.8681 76.7629 80.1088 75.1095C81.3495 73.4561 82.1929 72.223 82.639 71.4103C82.9456 71.3543 83.1408 71.3263 83.2244 71.3263C83.4893 71.3263 83.6705 71.4454 83.7681 71.6836C83.8796 71.9218 83.9493 72.3701 83.9772 73.0287L84.3745 81.6881C84.2491 82.1084 84.0051 82.3186 83.6427 82.3186C83.3917 82.3186 83.1478 82.2205 82.9108 82.0244C82.6877 81.8142 82.5483 81.562 82.4926 81.2677C82.5065 80.8053 82.5414 79.6774 82.5971 77.8838C82.6668 76.0763 82.7226 74.7942 82.7644 74.0376C80.3806 76.7699 78.7775 78.8647 77.955 80.3219Z" fill="black"/>
<path d="M86.3401 71.011L87.5111 71.2212C87.5111 71.5154 87.5181 71.7326 87.532 71.8727C88.2987 71.3823 89.0724 71.1371 89.8531 71.1371C91.1217 71.1371 92.1114 71.6836 92.8224 72.7765C93.5333 73.8694 93.8888 75.1095 93.8888 76.4967C93.8888 77.1973 93.8331 77.8698 93.7215 78.5144C93.624 79.1449 93.4427 79.7965 93.1779 80.469C92.913 81.1276 92.5018 81.66 91.9441 82.0664C91.4005 82.4587 90.7383 82.6549 89.9576 82.6549C89.2188 82.6549 88.5078 82.4587 87.8248 82.0664C87.8805 84.5185 87.9293 86.34 87.9711 87.531C87.8457 87.9654 87.6017 88.1826 87.2393 88.1826C86.9883 88.1826 86.7444 88.0775 86.5074 87.8673C86.2844 87.6712 86.145 87.4259 86.0892 87.1317L86.3401 71.011ZM87.6993 73.2389L87.762 80.0277C87.9293 80.3639 88.1872 80.6372 88.5357 80.8474C88.8842 81.0435 89.2676 81.1416 89.6858 81.1416C90.2295 81.1416 90.6895 80.9665 91.0659 80.6162C91.4562 80.2659 91.7281 79.8035 91.8814 79.229C92.0487 78.6405 92.1602 78.094 92.216 77.5896C92.2857 77.0852 92.3205 76.5527 92.3205 75.9922C92.3205 73.6102 91.519 72.4192 89.9158 72.4192C89.4 72.4192 88.9191 72.4963 88.473 72.6504C88.0408 72.7905 87.7829 72.9867 87.6993 73.2389Z" fill="black"/>
<path d="M95.5826 77.5896C95.5826 77.0291 95.6383 76.4056 95.7499 75.719C95.8753 75.0324 96.0565 74.3108 96.2935 73.5542C96.5305 72.7975 96.886 72.167 97.36 71.6625C97.8339 71.1581 98.3846 70.9059 99.0119 70.9059C100.35 70.9059 101.424 71.5154 102.232 72.7345C103.041 73.9395 103.445 75.2846 103.445 76.7699C103.445 77.4004 103.375 78.031 103.236 78.6615C103.11 79.278 102.908 79.8875 102.629 80.49C102.351 81.0926 101.946 81.597 101.417 82.0033C100.901 82.3957 100.294 82.6199 99.5974 82.6759C98.3149 82.5078 97.3251 81.9613 96.6281 81.0365C95.9311 80.0977 95.5826 78.9487 95.5826 77.5896ZM99.1374 71.9988C98.6495 72.0549 98.2382 72.5033 97.9036 73.344C97.5691 74.1847 97.353 75.0044 97.2554 75.8031C97.1578 76.5877 97.109 77.2813 97.109 77.8838C97.109 78.6685 97.346 79.3971 97.82 80.0697C98.3079 80.7283 98.8516 81.0575 99.451 81.0575C99.8832 81.0575 100.274 80.8894 100.622 80.5531C100.971 80.2168 101.242 79.8035 101.438 79.313C101.647 78.8086 101.8 78.3042 101.898 77.7998C102.009 77.2953 102.065 76.847 102.065 76.4546C102.065 75.3056 101.807 74.3038 101.291 73.4491C100.775 72.5943 100.057 72.1109 99.1374 71.9988Z" fill="black"/>
<path d="M105.599 71.2842C107.759 70.8218 109.077 70.5906 109.551 70.5906C111.419 70.5906 112.353 71.3963 112.353 73.0077C112.353 73.5682 112.255 74.1146 112.06 74.6471C111.879 75.1655 111.649 75.5088 111.37 75.677C112.457 76.4196 113.001 77.4425 113.001 78.7456C113.001 79.9786 112.597 80.9384 111.788 81.625C110.994 82.3116 109.941 82.6549 108.631 82.6549C107.069 82.6549 105.905 82.2345 105.139 81.3938L105.599 71.2842ZM106.791 76.5597L106.979 80.8263C107.327 80.9945 107.725 81.0785 108.171 81.0785C109.035 81.0785 109.83 80.8053 110.555 80.2589C111.279 79.7124 111.642 79.0748 111.642 78.3462C111.642 77.8418 111.447 77.3794 111.056 76.959C110.666 76.5247 110.171 76.3075 109.572 76.3075C109.223 76.3075 108.296 76.3916 106.791 76.5597ZM106.582 72.23L106.728 75.4668C106.937 75.4388 107.258 75.4177 107.69 75.4037C108.122 75.3897 108.47 75.3617 108.735 75.3197C109 75.2636 109.293 75.1585 109.614 75.0044C109.934 74.8362 110.185 74.549 110.366 74.1427C110.562 73.7363 110.694 73.2039 110.764 72.5453C110.624 72.1249 110.199 71.9148 109.488 71.9148C109.167 71.9148 108.666 71.9638 107.983 72.0619C107.299 72.16 106.832 72.216 106.582 72.23Z" fill="black"/>
<path d="M115.448 72.9867L115.029 71.9148C115.392 71.5504 115.852 71.2632 116.409 71.053C116.967 70.8288 117.518 70.7167 118.061 70.7167C120.417 70.7167 121.595 72.7625 121.595 76.854C121.595 77.4144 121.56 78.2411 121.491 79.3341C121.435 80.427 121.407 81.2467 121.407 81.7932C121.296 82.2275 121.08 82.4447 120.759 82.4447C120.508 82.4447 120.278 82.3186 120.069 82.0664C119.86 81.8142 119.755 81.5339 119.755 81.2257C119.755 81.1276 119.762 81.0575 119.776 81.0155C118.912 81.8562 117.992 82.2766 117.016 82.2766C116.277 82.2766 115.629 82.0103 115.071 81.4779C114.528 80.9314 114.256 80.2729 114.256 79.5022C114.256 78.1991 114.758 77.0221 115.761 75.9712C116.779 74.9203 117.929 74.3949 119.212 74.3949C119.267 74.3949 119.323 74.4019 119.379 74.4159C119.435 74.4159 119.497 74.4229 119.567 74.4369C119.651 74.4509 119.713 74.4579 119.755 74.4579C119.644 72.8185 118.995 71.9988 117.81 71.9988C117.113 71.9988 116.326 72.3281 115.448 72.9867ZM119.818 79.5653C119.846 78.5844 119.86 77.8418 119.86 77.3374C119.86 76.917 119.846 76.3285 119.818 75.5719H119.651C118.661 75.5859 117.755 75.9572 116.932 76.6858C116.124 77.4144 115.719 78.2972 115.719 79.3341C115.719 79.7824 115.852 80.1398 116.117 80.406C116.396 80.6722 116.73 80.8053 117.12 80.8053C117.734 80.8053 118.633 80.392 119.818 79.5653Z" fill="black"/>
<path d="M129.541 71.4103L130.482 71.6205L130.963 81.8142C130.838 82.2345 130.594 82.4447 130.231 82.4447C129.98 82.4447 129.736 82.3396 129.499 82.1294C129.263 81.9333 129.116 81.6881 129.06 81.3938C129.06 81.3518 129.123 80.1678 129.249 77.8418V77.6737C128.858 77.6456 128.28 77.6316 127.513 77.6316C126.356 77.6316 125.485 77.5966 124.899 77.5265C124.969 78.3392 125.059 79.6493 125.171 81.4569C125.046 81.8912 124.802 82.1084 124.439 82.1084C124.188 82.1084 123.944 82.0103 123.707 81.8142C123.484 81.604 123.345 81.3518 123.289 81.0575C123.331 80.3569 123.352 79.6563 123.352 78.9557C123.352 78.5074 123.345 77.8348 123.331 76.938C123.317 76.0413 123.31 75.3757 123.31 74.9413C123.31 73.5962 123.352 72.4682 123.435 71.5575L124.376 71.7887C124.655 74.8292 124.802 76.3916 124.816 76.4756C127.199 76.6017 128.426 76.6648 128.496 76.6648C129.067 76.6648 129.353 76.6298 129.353 76.5597C129.353 76.2795 129.381 75.3897 129.437 73.8904C129.493 72.3912 129.527 71.5645 129.541 71.4103Z" fill="black"/>
<path d="M134.497 80.3219C134.497 80.5601 134.511 80.8754 134.539 81.2677C134.413 81.7021 134.17 81.9193 133.807 81.9193C133.556 81.9193 133.312 81.8212 133.075 81.625C132.852 81.4148 132.713 81.1626 132.657 80.8684C132.699 79.7334 132.748 78.073 132.803 75.8871C132.873 73.7013 132.922 72.223 132.95 71.4524L133.912 71.2842C134.079 72.181 134.183 73.372 134.225 74.8573C134.267 76.3425 134.323 77.4495 134.393 78.1781C134.657 77.7858 135.41 76.7629 136.651 75.1095C137.892 73.4561 138.735 72.223 139.181 71.4103C139.488 71.3543 139.683 71.3263 139.767 71.3263C140.031 71.3263 140.213 71.4454 140.31 71.6836C140.422 71.9218 140.491 72.3701 140.519 73.0287L140.917 81.6881C140.791 82.1084 140.547 82.3186 140.185 82.3186C139.934 82.3186 139.69 82.2205 139.453 82.0244C139.23 81.8142 139.09 81.562 139.035 81.2677C139.049 80.8053 139.083 79.6774 139.139 77.8838C139.209 76.0763 139.265 74.7942 139.307 74.0376C136.923 76.7699 135.32 78.8647 134.497 80.3219Z" fill="black"/>
<path d="M151.058 80.0277L151.267 80.9524C150.654 81.1766 149.741 81.4288 148.528 81.7091C147.329 81.9753 146.437 82.1084 145.852 82.1084C145.252 82.1084 144.729 81.9123 144.283 81.5199C143.837 81.1136 143.503 80.6021 143.28 79.9856C143.056 79.3551 142.889 78.7386 142.778 78.136C142.68 77.5195 142.631 76.917 142.631 76.3285C142.631 72.8255 144.207 71.074 147.357 71.074C148.11 71.074 148.772 71.3193 149.344 71.8097C149.915 72.2861 150.201 72.9096 150.201 73.6803C150.201 74.1006 150.082 74.4719 149.845 74.7942C149.622 75.1165 149.344 75.3757 149.009 75.5719C148.688 75.754 148.27 75.9222 147.754 76.0763C147.253 76.2304 146.806 76.3425 146.416 76.4126C146.026 76.4826 145.559 76.5597 145.015 76.6438C144.471 76.7279 144.095 76.7909 143.886 76.8329C143.9 77.2393 143.921 77.5966 143.949 77.9049C143.991 78.2131 144.06 78.5494 144.158 78.9137C144.269 79.264 144.409 79.5583 144.576 79.7965C144.757 80.0206 145.001 80.2098 145.308 80.3639C145.615 80.5181 145.977 80.5951 146.395 80.5951C146.897 80.5951 147.51 80.5531 148.235 80.469C148.96 80.3709 149.601 80.2729 150.159 80.1748C150.731 80.0767 151.03 80.0277 151.058 80.0277ZM143.97 75.5298C145.865 74.9834 147.42 74.4089 148.633 73.8064C148.535 73.344 148.403 73.0077 148.235 72.7975C148.068 72.5873 147.817 72.4822 147.483 72.4822C146.632 72.4822 145.859 72.7765 145.161 73.365C144.478 73.9535 144.081 74.6751 143.97 75.5298Z" fill="black"/>
<path d="M158.335 71.011L159.506 71.2212C159.506 71.5154 159.513 71.7326 159.527 71.8727C160.294 71.3823 161.067 71.1371 161.848 71.1371C163.117 71.1371 164.106 71.6836 164.817 72.7765C165.528 73.8694 165.884 75.1095 165.884 76.4967C165.884 77.1973 165.828 77.8698 165.717 78.5144C165.619 79.1449 165.438 79.7965 165.173 80.469C164.908 81.1276 164.497 81.66 163.939 82.0664C163.395 82.4587 162.733 82.6549 161.953 82.6549C161.214 82.6549 160.503 82.4587 159.82 82.0664C159.876 84.5185 159.924 86.34 159.966 87.531C159.841 87.9654 159.597 88.1826 159.234 88.1826C158.983 88.1826 158.739 88.0775 158.502 87.8673C158.279 87.6712 158.14 87.4259 158.084 87.1317L158.335 71.011ZM159.694 73.2389L159.757 80.0277C159.924 80.3639 160.182 80.6372 160.531 80.8474C160.879 81.0435 161.263 81.1416 161.681 81.1416C162.225 81.1416 162.685 80.9665 163.061 80.6162C163.451 80.2659 163.723 79.8035 163.876 79.229C164.044 78.6405 164.155 78.094 164.211 77.5896C164.281 77.0852 164.316 76.5527 164.316 75.9922C164.316 73.6102 163.514 72.4192 161.911 72.4192C161.395 72.4192 160.914 72.4963 160.468 72.6504C160.036 72.7905 159.778 72.9867 159.694 73.2389Z" fill="black"/>
<path d="M168.33 72.9867L167.912 71.9148C168.275 71.5504 168.735 71.2632 169.292 71.053C169.85 70.8288 170.401 70.7167 170.944 70.7167C173.3 70.7167 174.478 72.7625 174.478 76.854C174.478 77.4144 174.443 78.2411 174.374 79.3341C174.318 80.427 174.29 81.2467 174.29 81.7932C174.178 82.2275 173.962 82.4447 173.642 82.4447C173.391 82.4447 173.161 82.3186 172.952 82.0664C172.743 81.8142 172.638 81.5339 172.638 81.2257C172.638 81.1276 172.645 81.0575 172.659 81.0155C171.795 81.8562 170.874 82.2766 169.899 82.2766C169.16 82.2766 168.512 82.0103 167.954 81.4779C167.41 80.9314 167.138 80.2729 167.138 79.5022C167.138 78.1991 167.64 77.0221 168.644 75.9712C169.662 74.9203 170.812 74.3949 172.094 74.3949C172.15 74.3949 172.206 74.4019 172.262 74.4159C172.317 74.4159 172.38 74.4229 172.45 74.4369C172.533 74.4509 172.596 74.4579 172.638 74.4579C172.526 72.8185 171.878 71.9988 170.693 71.9988C169.996 71.9988 169.209 72.3281 168.33 72.9867ZM172.701 79.5653C172.729 78.5844 172.743 77.8418 172.743 77.3374C172.743 76.917 172.729 76.3285 172.701 75.5719H172.533C171.544 75.5859 170.638 75.9572 169.815 76.6858C169.006 77.4144 168.602 78.2972 168.602 79.3341C168.602 79.7824 168.735 80.1398 169 80.406C169.278 80.6722 169.613 80.8053 170.003 80.8053C170.617 80.8053 171.516 80.392 172.701 79.5653Z" fill="black"/>
<path d="M177.406 76.875L177.322 75.698C177.364 75.698 177.426 75.705 177.51 75.719C177.608 75.719 177.677 75.719 177.719 75.719C179.127 75.719 179.831 75.1025 179.831 73.8694C179.678 72.7905 179.085 72.251 178.054 72.251C177.663 72.251 177.092 72.3631 176.339 72.5873L175.963 71.9778C176.548 71.4313 177.385 71.1581 178.472 71.1581C179.239 71.1581 179.88 71.3543 180.396 71.7466C180.912 72.1389 181.169 72.7134 181.169 73.4701C181.169 73.9325 181.079 74.3879 180.898 74.8362C180.716 75.2706 180.479 75.5999 180.187 75.8241C180.716 75.9362 181.128 76.3005 181.42 76.917C181.727 77.5195 181.88 78.1991 181.88 78.9557C181.88 79.9366 181.567 80.7913 180.939 81.5199C180.312 82.2485 179.504 82.6129 178.514 82.6129C178.026 82.6129 177.44 82.4727 176.757 82.1925C176.074 81.9123 175.733 81.562 175.733 81.1416C175.733 80.8474 175.921 80.7002 176.297 80.7002C176.548 80.7002 176.876 80.8193 177.28 81.0575C177.684 81.2817 178.019 81.3938 178.284 81.3938C178.869 81.3938 179.385 81.1346 179.831 80.6162C180.277 80.0977 180.5 79.5232 180.5 78.8927C180.5 78.2201 180.263 77.7157 179.789 77.3794C179.329 77.0291 178.737 76.854 178.012 76.854C177.733 76.854 177.531 76.861 177.406 76.875Z" fill="black"/>
<path d="M184.055 71.2842C186.216 70.8218 187.533 70.5906 188.007 70.5906C189.875 70.5906 190.809 71.3963 190.809 73.0077C190.809 73.5682 190.712 74.1146 190.516 74.6471C190.335 75.1655 190.105 75.5088 189.826 75.677C190.914 76.4196 191.457 77.4425 191.457 78.7456C191.457 79.9786 191.053 80.9384 190.245 81.625C189.45 82.3116 188.398 82.6549 187.087 82.6549C185.526 82.6549 184.362 82.2345 183.595 81.3938L184.055 71.2842ZM185.247 76.5597L185.435 80.8263C185.784 80.9945 186.181 81.0785 186.627 81.0785C187.491 81.0785 188.286 80.8053 189.011 80.2589C189.736 79.7124 190.098 79.0748 190.098 78.3462C190.098 77.8418 189.903 77.3794 189.513 76.959C189.122 76.5247 188.628 76.3075 188.028 76.3075C187.68 76.3075 186.753 76.3916 185.247 76.5597ZM185.038 72.23L185.184 75.4668C185.393 75.4388 185.714 75.4177 186.146 75.4037C186.578 75.3897 186.927 75.3617 187.192 75.3197C187.457 75.2636 187.749 75.1585 188.07 75.0044C188.391 74.8362 188.641 74.549 188.823 74.1427C189.018 73.7363 189.15 73.2039 189.22 72.5453C189.081 72.1249 188.655 71.9148 187.944 71.9148C187.624 71.9148 187.122 71.9638 186.439 72.0619C185.756 72.16 185.289 72.216 185.038 72.23Z" fill="black"/>
<path d="M194.991 80.3219C194.991 80.5601 195.005 80.8754 195.033 81.2677C194.908 81.7021 194.664 81.9193 194.301 81.9193C194.05 81.9193 193.806 81.8212 193.569 81.625C193.346 81.4148 193.207 81.1626 193.151 80.8684C193.193 79.7334 193.242 78.073 193.298 75.8871C193.367 73.7013 193.416 72.223 193.444 71.4524L194.406 71.2842C194.573 72.181 194.678 73.372 194.719 74.8573C194.761 76.3425 194.817 77.4495 194.887 78.1781C195.152 77.7858 195.904 76.7629 197.145 75.1095C198.386 73.4561 199.229 72.223 199.675 71.4103C199.982 71.3543 200.177 71.3263 200.261 71.3263C200.526 71.3263 200.707 71.4454 200.804 71.6836C200.916 71.9218 200.986 72.3701 201.014 73.0287L201.411 81.6881C201.285 82.1084 201.041 82.3186 200.679 82.3186C200.428 82.3186 200.184 82.2205 199.947 82.0244C199.724 81.8142 199.585 81.562 199.529 81.2677C199.543 80.8053 199.578 79.6774 199.633 77.8838C199.703 76.0763 199.759 74.7942 199.801 74.0376C197.417 76.7699 195.814 78.8647 194.991 80.3219Z" fill="black"/>
<path d="M202.456 72.4192L202.268 71.4944C204.136 71.3823 207.078 71.2282 211.092 71.032C211.427 71.046 211.713 71.1721 211.95 71.4103C212.187 71.6485 212.305 71.9007 212.305 72.167C212.305 72.5873 212.026 72.8255 211.469 72.8816L207.559 72.6924C207.628 73.7433 207.663 75.2776 207.663 77.2953C207.677 79.299 207.705 80.7633 207.747 81.6881C207.621 82.0944 207.377 82.2976 207.015 82.2976C206.778 82.2976 206.548 82.1995 206.325 82.0033C206.102 81.8072 205.962 81.569 205.907 81.2887C206.102 77.8418 206.304 74.9483 206.513 72.6083L202.456 72.4192Z" fill="black"/>
<path d="M215.003 80.3219C215.003 80.5601 215.017 80.8754 215.045 81.2677C214.919 81.7021 214.675 81.9193 214.313 81.9193C214.062 81.9193 213.818 81.8212 213.581 81.625C213.358 81.4148 213.218 81.1626 213.163 80.8684C213.204 79.7334 213.253 78.073 213.309 75.8871C213.379 73.7013 213.427 72.223 213.455 71.4524L214.417 71.2842C214.585 72.181 214.689 73.372 214.731 74.8573C214.773 76.3425 214.828 77.4495 214.898 78.1781C215.163 77.7858 215.916 76.7629 217.157 75.1095C218.397 73.4561 219.241 72.223 219.687 71.4103C219.993 71.3543 220.189 71.3263 220.272 71.3263C220.537 71.3263 220.718 71.4454 220.816 71.6836C220.927 71.9218 220.997 72.3701 221.025 73.0287L221.422 81.6881C221.297 82.1084 221.053 82.3186 220.69 82.3186C220.439 82.3186 220.196 82.2205 219.959 82.0244C219.735 81.8142 219.596 81.562 219.54 81.2677C219.554 80.8053 219.589 79.6774 219.645 77.8838C219.715 76.0763 219.77 74.7942 219.812 74.0376C217.428 76.7699 215.825 78.8647 215.003 80.3219Z" fill="black"/>
<path d="M230.309 71.1581L230.623 82.4447C230.484 82.8651 230.247 83.0752 229.912 83.0752C229.675 83.0752 229.438 82.9772 229.201 82.781C228.978 82.5848 228.839 82.3466 228.783 82.0664L228.992 77.5055C228.406 77.8838 227.8 78.08 227.173 78.094C226.643 79.8455 225.974 81.1276 225.165 81.9403C224.371 82.753 223.095 83.4045 221.339 83.8949L221.004 82.9912C223.611 82.3326 225.096 80.6021 225.458 77.7998C224.789 77.5195 224.231 77.0922 223.785 76.5177C223.353 75.9432 223.137 75.2846 223.137 74.542C223.137 73.0567 223.513 72.0689 224.266 71.5785C225.019 71.0881 226.211 70.8428 227.842 70.8428C228.692 70.8428 229.515 70.9479 230.309 71.1581ZM229.159 75.74L229.055 72.4192C228.567 72.2651 227.849 72.188 226.901 72.188C226.232 72.188 225.66 72.3421 225.186 72.6504C224.712 72.9446 224.475 73.428 224.475 74.1006C224.475 74.8573 224.775 75.5088 225.374 76.0553C225.974 76.5877 226.629 76.854 227.34 76.854C228.176 76.854 228.783 76.4826 229.159 75.74Z" fill="black"/>
<path fill-rule="evenodd" clip-rule="evenodd" d="M133.952 0.43585C157.936 1.44053 181.176 6.36562 207.422 13.543C237.053 21.6457 253.356 39.2041 257.763 57.5033C262.167 75.7868 254.706 94.8655 236.713 106.012C225.879 112.724 208.573 116.342 188.716 118.001C168.838 119.662 146.301 119.367 124.91 118.19C103.516 117.013 83.2493 114.954 67.9041 113.083C60.2311 112.147 53.7866 111.258 49.0448 110.548C44.3238 109.842 41.2496 109.309 40.351 109.084L40.7414 108.277C41.551 108.479 44.5392 109.001 49.2867 109.711C54.0133 110.418 60.4433 111.306 68.1027 112.24C83.4223 114.108 103.652 116.163 125.001 117.338C146.353 118.512 168.806 118.804 188.579 117.152C208.375 115.498 225.382 111.904 235.938 105.364C253.549 94.4543 260.941 75.7031 256.593 57.6493C252.248 39.6112 236.192 22.325 207 14.3421C180.793 7.17567 157.687 2.28647 133.883 1.28932C110.088 0.292591 85.5589 3.18348 56.5138 11.6164C44 15.2496 31.5857 21.8197 21.7079 29.9165C11.829 38.0143 4.51908 47.6126 2.16214 57.2875C-0.191728 66.9498 2.39029 76.692 12.3034 85.1372C22.2311 93.5949 39.5627 100.795 66.8227 105.271L66.5582 106.105C39.1544 101.605 21.5489 94.3387 11.3955 85.6888C1.22765 77.0265 -1.41525 67.0198 0.991639 57.1399C3.39545 47.2726 10.832 37.5355 20.8147 29.3526C30.7986 21.1689 43.3611 14.5132 56.069 10.8236C85.2526 2.35049 109.957 -0.569253 133.952 0.43585Z" fill="black"/>
</svg>
