<svg width="221" height="141" viewBox="0 0 221 141" fill="none" xmlns="http://www.w3.org/2000/svg">
<path d="M215.462 32.1818L219.355 29.9282C219.916 29.5322 220.363 28.9936 220.648 28.3676C220.934 27.7415 221.049 27.0506 220.981 26.3654C220.875 24.4471 220.32 22.5809 219.361 20.9178C218.402 19.2548 217.066 17.8417 215.462 16.793C214.908 16.3841 214.255 16.1308 213.571 16.0591C212.886 15.9874 212.195 16.1 211.569 16.3852L207.676 18.5315L215.462 32.1818Z" fill="#1D1D1B"/>
<path d="M210.544 35.5951L216.469 32.1611C217.07 31.7425 217.547 31.1681 217.848 30.4991C218.15 29.83 218.264 29.0915 218.18 28.3622C218.078 26.3215 217.493 24.3346 216.474 22.5656C215.455 20.7966 214.03 19.2964 212.319 18.1888C211.732 17.7529 211.038 17.4849 210.311 17.4131C209.584 17.3413 208.851 17.4684 208.191 17.781L202.266 21.215L210.544 35.5951Z" fill="#3C3C3B"/>
<path d="M200.553 25.0135C200.553 21.2575 203.162 19.7551 206.414 21.6224C208.121 22.7324 209.541 24.2337 210.556 26.0025C211.572 27.7714 212.153 29.757 212.253 31.7958C212.253 35.5518 209.644 37.0542 206.414 35.1869C204.703 34.0793 203.278 32.5791 202.259 30.8101C201.24 29.0411 200.655 27.0542 200.553 25.0135Z" fill="#1D1D1B"/>
<path d="M211.782 34.2212L217.707 30.7871C217.61 30.9715 217.503 31.1506 217.387 31.3237L211.568 34.7577C211.651 34.5837 211.723 34.4045 211.782 34.2212Z" fill="#1D1D1B"/>
<path d="M212.101 33.2329L217.984 29.7988C217.958 29.9443 217.922 30.0877 217.877 30.2281L211.994 33.6407C212.042 33.5084 212.078 33.3719 212.101 33.2329Z" fill="#1D1D1B"/>
<path d="M212.23 32.3745L218.156 28.9404C218.167 29.0618 218.167 29.184 218.156 29.3053L212.209 32.8037C212.209 32.8037 212.23 32.5033 212.23 32.3745Z" fill="#1D1D1B"/>
<path d="M212.252 31.5596L218.177 28.147V28.5118L212.252 31.9459C212.252 31.9459 212.252 31.9459 212.252 31.8171C212.265 31.7317 212.265 31.6449 212.252 31.5596Z" fill="#1D1D1B"/>
<path d="M212.209 30.8081L218.134 27.374C218.134 27.4813 218.134 27.5887 218.134 27.7174L212.209 31.13C212.209 31.13 212.209 30.9154 212.209 30.8081Z" fill="#1D1D1B"/>
<path d="M212.101 30.0781L217.984 26.644C217.973 26.7511 217.973 26.8589 217.984 26.966L212.059 30.4C212.123 30.2927 212.123 30.1854 212.101 30.0781Z" fill="#1D1D1B"/>
<path d="M211.93 29.3696L217.855 25.957C217.855 25.957 217.855 26.1502 217.855 26.2575L211.93 29.6916C211.939 29.5845 211.939 29.4767 211.93 29.3696Z" fill="#1D1D1B"/>
<path d="M211.74 28.7041L217.665 25.27C217.675 25.37 217.675 25.4706 217.665 25.5705L211.762 29.0046C211.804 28.8972 211.783 28.7899 211.74 28.7041Z" fill="#1D1D1B"/>
<path d="M211.568 28.0395L217.472 24.6055C217.517 24.702 217.553 24.8026 217.579 24.9059L211.568 28.34C211.568 28.2327 211.568 28.1468 211.568 28.0395Z" fill="#1D1D1B"/>
<path d="M211.248 27.3955L217.173 23.9614L217.302 24.2404L211.376 27.6745L211.248 27.3955Z" fill="#1D1D1B"/>
<path d="M210.967 26.7729L216.892 23.3389L217.02 23.6179L211.095 27.052L210.967 26.7729Z" fill="#1D1D1B"/>
<path d="M210.648 26.1719L216.574 22.7378L216.702 22.9953L210.777 26.365L210.648 26.1719Z" fill="#1D1D1B"/>
<path d="M210.285 25.5707L216.21 22.0723C216.272 22.1547 216.329 22.2407 216.381 22.3298L210.456 25.7424L210.285 25.5707Z" fill="#1D1D1B"/>
<path d="M209.92 25.0132L215.845 21.5791C215.895 21.6628 215.952 21.7418 216.016 21.8152L210.091 25.2493C210.039 25.1667 209.982 25.0879 209.92 25.0132Z" fill="#1D1D1B"/>
<path d="M209.428 24.4546L215.353 21.0205L215.524 21.2566L209.599 24.6907L209.428 24.4546Z" fill="#1D1D1B"/>
<path d="M209.084 23.9189L214.988 20.4849C215.07 20.5529 215.142 20.6324 215.202 20.721L209.277 24.2194L209.084 23.9189Z" fill="#1D1D1B"/>
<path d="M208.615 23.3818L214.54 19.9263L214.733 20.1624L208.829 23.5964L208.615 23.3818Z" fill="#1D1D1B"/>
<path d="M208.102 22.8886L214.027 19.4546L214.241 19.6692L208.337 23.1033L208.102 22.8886Z" fill="#1D1D1B"/>
<path d="M207.568 22.416L213.472 18.9819L213.729 19.1966L207.804 22.6306L207.568 22.416Z" fill="#1D1D1B"/>
<path d="M206.969 22.0727L212.873 18.6387L213.151 18.8318L207.29 22.0727H206.969Z" fill="#1D1D1B"/>
<path d="M206.305 21.5576L212.23 18.1235H212.444L206.519 21.5576L206.326 21.4503L206.305 21.5576Z" fill="#1D1D1B"/>
<path d="M205.557 21.1929L211.567 17.7803L211.91 17.9305L205.984 21.3646L205.557 21.1929Z" fill="#1D1D1B"/>
<path d="M204.678 20.9136L210.603 17.4795L211.009 17.5868L205.148 21.0209L204.678 20.9136Z" fill="#1D1D1B"/>
<path d="M203.438 20.8281L209.427 17.3941C209.633 17.3725 209.841 17.3725 210.047 17.3941L204.122 20.8281C203.895 20.8021 203.665 20.8021 203.438 20.8281Z" fill="#1D1D1B"/>
<path d="M208.043 36.861L210.182 35.5732C210.769 35.1575 211.235 34.5924 211.532 33.936C211.829 33.2796 211.946 32.5557 211.872 31.8387C211.765 29.8429 211.191 27.9006 210.195 26.17C209.198 24.4393 207.809 22.9694 206.139 21.8799C205.558 21.456 204.876 21.1948 204.162 21.1232C203.448 21.0515 202.727 21.1719 202.075 21.4721L199.936 22.7599L208.043 36.861Z" fill="#3C3C3B"/>
<path d="M198.242 26.4712C198.242 22.801 200.809 21.3201 203.975 23.1659C205.65 24.2516 207.045 25.7202 208.045 27.4513C209.045 29.1824 209.622 31.1266 209.729 33.1246C209.729 36.7948 207.162 38.2757 203.975 36.4514C202.313 35.3485 200.929 33.8725 199.934 32.1403C198.939 30.408 198.36 28.467 198.242 26.4712Z" fill="#1D1D1B"/>
<path d="M203.997 39.3941L207.569 37.2478C208.169 36.8226 208.644 36.244 208.945 35.5721C209.246 34.9001 209.362 34.1596 209.28 33.4274C209.18 31.3887 208.599 29.403 207.583 27.6342C206.568 25.8654 205.148 24.364 203.441 23.254C202.849 22.8185 202.152 22.5507 201.422 22.479C200.691 22.4072 199.955 22.5341 199.291 22.8463L195.719 24.9925L203.997 39.3941Z" fill="#3C3C3B"/>
<path d="M193.988 28.8125C193.988 25.0565 196.619 23.5326 199.849 25.4214C201.561 26.5289 202.985 28.0292 204.004 29.7982C205.023 31.5672 205.608 33.5541 205.71 35.5948C205.71 39.3508 203.079 40.8532 199.849 38.9859C198.145 37.8706 196.727 36.3686 195.708 34.6012C194.69 32.8338 194.101 30.8508 193.988 28.8125Z" fill="#9D9D9C"/>
<path d="M205.151 38.0198L208.745 35.8735C208.655 36.0624 208.548 36.2421 208.424 36.4101L204.852 38.5564C204.964 38.3849 205.064 38.2056 205.151 38.0198Z" fill="#1D1D1B"/>
<path d="M205.556 37.097L209.128 34.9507C209.105 35.0966 209.07 35.2403 209.021 35.3799L205.449 37.5262C205.499 37.387 205.535 37.2432 205.556 37.097Z" fill="#1D1D1B"/>
<path d="M205.684 36.1741L209.256 34.0278C209.256 34.1566 209.256 34.2854 209.256 34.4142L205.662 36.5604C205.681 36.4326 205.688 36.3033 205.684 36.1741Z" fill="#1D1D1B"/>
<path d="M205.707 35.3582L209.279 33.2119V33.5553L205.707 35.7016V35.3582Z" fill="#1D1D1B"/>
<path d="M205.643 34.6077L209.236 32.4614C209.236 32.5687 209.236 32.6975 209.236 32.8048L205.664 34.9511C205.669 34.8362 205.662 34.7211 205.643 34.6077Z" fill="#1D1D1B"/>
<path d="M205.535 33.8768L209.129 31.7305C209.129 31.7305 209.129 31.9451 209.129 32.0524L205.557 34.1987L205.535 33.8768Z" fill="#1D1D1B"/>
<path d="M205.385 33.1687L208.957 31.0225C208.969 31.1222 208.969 31.2232 208.957 31.3229L205.363 33.4692L205.385 33.1687Z" fill="#1D1D1B"/>
<path d="M205.15 32.5032L208.723 30.3569C208.732 30.4569 208.732 30.5575 208.723 30.6574L205.15 32.8037V32.5032Z" fill="#1D1D1B"/>
<path d="M204.955 31.8387L208.549 29.6924C208.549 29.7997 208.549 29.8856 208.549 29.9929L204.976 32.1391C204.976 32.0386 204.968 31.9383 204.955 31.8387Z" fill="#1D1D1B"/>
<path d="M204.703 31.1941L208.275 29.0479L208.404 29.3269L204.831 31.4732L204.703 31.1941Z" fill="#1D1D1B"/>
<path d="M204.402 30.6575L207.996 28.5112L208.124 28.7902L204.552 30.9365C204.509 30.6575 204.445 30.6575 204.402 30.6575Z" fill="#1D1D1B"/>
<path d="M204.078 29.971L207.672 27.8247L207.8 28.1037L204.228 30.25C204.187 30.1523 204.137 30.0588 204.078 29.971Z" fill="#1D1D1B"/>
<path d="M203.738 29.3689L207.311 27.2227L207.482 27.4802L203.888 29.6265C203.846 29.5362 203.796 29.45 203.738 29.3689Z" fill="#1D1D1B"/>
<path d="M203.373 28.8113L206.945 26.665L207.116 26.9226L203.523 29.0689L203.373 28.8113Z" fill="#1D1D1B"/>
<path d="M203.012 28.2532L206.584 26.1069L206.755 26.343L203.183 28.4893L203.012 28.2532Z" fill="#1D1D1B"/>
<path d="M202.52 27.7181L206.092 25.5718C206.174 25.6398 206.246 25.7193 206.306 25.8079L202.712 27.9541L202.52 27.7181Z" fill="#1D1D1B"/>
<path d="M202.049 27.1805L205.642 25.0342L205.835 25.2488L202.263 27.3951L202.049 27.1805Z" fill="#1D1D1B"/>
<path d="M201.555 26.6868L205.127 24.5405L205.362 24.7552L201.769 26.9014L201.555 26.6868Z" fill="#1D1D1B"/>
<path d="M200.998 26.2137L204.592 24.0674L204.827 24.282L201.255 26.4283L200.998 26.2137Z" fill="#1D1D1B"/>
<path d="M200.4 25.764L203.973 23.6177L204.251 23.8108L200.678 25.9571L200.4 25.764Z" fill="#1D1D1B"/>
<path d="M199.736 25.3567L203.33 23.2104H203.437L203.629 23.3392L200.036 25.4855L199.843 25.3782L199.736 25.3567Z" fill="#1D1D1B"/>
<path d="M199.01 24.991L202.582 22.8447L202.924 23.0164L199.352 25.1627L199.01 24.991Z" fill="#1D1D1B"/>
<path d="M198.111 24.7127L201.705 22.5664L202.111 22.6952L198.518 24.8415L198.111 24.7127Z" fill="#1D1D1B"/>
<path d="M196.895 24.6267L200.467 22.4804C200.673 22.459 200.881 22.459 201.087 22.4804L197.515 24.6267C197.309 24.6051 197.101 24.6051 196.895 24.6267Z" fill="#1D1D1B"/>
<path d="M200.186 41.6041L203.288 39.8012C203.888 39.3804 204.365 38.8063 204.67 38.1384C204.974 37.4705 205.096 36.733 205.021 36.0023C204.908 33.9611 204.319 31.9751 203.301 30.2042C202.283 28.4334 200.864 26.9273 199.16 25.8074C198.56 25.39 197.864 25.1333 197.138 25.0619C196.411 24.9906 195.679 25.1068 195.01 25.3997L191.908 27.2025L200.186 41.6041Z" fill="#3C3C3B"/>
<path d="M190.178 30.9989C190.178 27.2644 192.787 25.7405 196.039 27.6078C197.741 28.7288 199.156 30.2356 200.17 32.0066C201.185 33.7775 201.77 35.763 201.878 37.8027C201.878 41.5372 199.269 43.0611 196.039 41.1938C194.331 40.0777 192.909 38.5725 191.891 36.8009C190.872 35.0293 190.285 33.0413 190.178 30.9989Z" fill="#1D1D1B"/>
<path d="M197.411 43.2141L199.678 41.9049C200.278 41.4797 200.753 40.901 201.054 40.2291C201.355 39.5572 201.471 38.8167 201.39 38.0845C201.287 36.0438 200.702 34.0569 199.683 32.288C198.664 30.519 197.24 29.0187 195.529 27.9111C194.938 27.4816 194.245 27.2175 193.519 27.1458C192.794 27.0741 192.062 27.1975 191.4 27.5033L189.111 28.8126L197.411 43.2141Z" fill="#3C3C3B"/>
<path d="M187.396 32.6308C187.396 28.8748 190.028 27.351 193.258 29.2397C194.969 30.3473 196.393 31.8476 197.412 33.6165C198.431 35.3855 199.016 37.3724 199.119 39.4131C199.119 43.1691 196.488 44.6715 193.258 42.8042C191.553 41.689 190.135 40.1869 189.117 38.4195C188.098 36.6522 187.509 34.6691 187.396 32.6308Z" fill="#1D1D1B"/>
<path d="M198.736 41.8405L200.875 40.5312C200.778 40.7088 200.671 40.8808 200.555 41.0464L198.287 42.377C198.451 42.2108 198.601 42.0313 198.736 41.8405Z" fill="#1D1D1B"/>
<path d="M198.97 40.8532L201.238 39.5439C201.212 39.6823 201.176 39.8186 201.131 39.9517L198.863 41.261C198.906 41.1322 198.927 41.0034 198.97 40.8532Z" fill="#1D1D1B"/>
<path d="M199.098 39.9943L201.365 38.6636C201.376 38.7921 201.376 38.9213 201.365 39.0499L199.098 40.3591C199.077 40.2304 199.077 40.123 199.098 39.9943Z" fill="#1D1D1B"/>
<path d="M199.117 39.2433L201.385 37.9341V38.2775L199.117 39.5867V39.2433Z" fill="#1D1D1B"/>
<path d="M199.055 38.4279L201.322 37.0972C201.331 37.2115 201.331 37.3263 201.322 37.4406L199.055 38.7498C199.076 38.6425 199.076 38.5352 199.055 38.4279Z" fill="#1D1D1B"/>
<path d="M198.951 37.6979L201.219 36.3887V36.6892L198.951 38.0199V37.6979Z" fill="#1D1D1B"/>
<path d="M198.736 37.0978L201.004 35.7886C201.004 35.7886 201.004 35.9817 201.004 36.0891L198.715 37.3983L198.736 37.0978Z" fill="#1D1D1B"/>
<path d="M198.607 36.3248L200.875 34.9512C200.884 35.0511 200.884 35.1517 200.875 35.2516L198.736 36.6038L198.607 36.3248Z" fill="#1D1D1B"/>
<path d="M198.371 35.6588L200.639 34.3281C200.684 34.4246 200.719 34.5253 200.745 34.6286L198.478 35.9378C198.478 35.9378 198.414 35.7447 198.371 35.6588Z" fill="#1D1D1B"/>
<path d="M198.115 34.9513L200.383 33.6421L200.511 33.9211L198.222 35.2303C198.222 35.2303 198.158 35.1016 198.115 34.9513Z" fill="#1D1D1B"/>
<path d="M197.816 34.3932L200.084 33.084C200.142 33.165 200.192 33.2512 200.234 33.3415L197.945 34.6722L197.816 34.3932Z" fill="#1D1D1B"/>
<path d="M197.494 33.7921L199.783 32.4614L199.911 32.7404L197.644 34.0497L197.494 33.7921Z" fill="#1D1D1B"/>
<path d="M197.152 33.1911L199.42 31.8818L199.591 32.1394L197.302 33.4486L197.152 33.1911Z" fill="#1D1D1B"/>
<path d="M196.768 32.612L199.056 31.3027L199.227 31.5603L196.939 32.8051L196.768 32.612Z" fill="#1D1D1B"/>
<path d="M196.359 32.0748L198.734 30.6582L198.905 30.8943L196.595 32.3109L196.359 32.0748Z" fill="#1D1D1B"/>
<path d="M195.934 31.5172L198.201 30.208L198.415 30.4441L196.126 31.7533L195.934 31.5172Z" fill="#1D1D1B"/>
<path d="M195.463 31.0021L197.73 29.6929C197.807 29.7589 197.878 29.8307 197.944 29.9075L195.677 31.2382L195.463 31.0021Z" fill="#1D1D1B"/>
<path d="M194.949 30.5079L197.238 29.1772L197.452 29.4133L195.185 30.6582L194.949 30.5079Z" fill="#1D1D1B"/>
<path d="M194.459 30.0358L196.598 28.7051L196.855 28.9197L194.566 30.2289L194.459 30.0358Z" fill="#1D1D1B"/>
<path d="M193.814 29.5851L196.082 28.2759C196.187 28.32 196.282 28.3858 196.36 28.469L194.071 29.7783L193.814 29.5851Z" fill="#1D1D1B"/>
<path d="M193.152 29.1769L195.441 27.8462L195.655 27.975L193.366 29.2842L193.174 29.1769H193.152Z" fill="#1D1D1B"/>
<path d="M192.424 28.8136L194.691 27.5044L195.033 27.6546L192.745 28.9639L192.424 28.8136Z" fill="#1D1D1B"/>
<path d="M191.525 28.5119L193.793 27.2026L194.221 27.31L191.932 28.6192L191.525 28.5119Z" fill="#1D1D1B"/>
<path d="M190.307 28.5109L192.574 27.2026H193.194L190.906 28.5109H190.307Z" fill="#1D1D1B"/>
<path d="M194.456 45.3384L196.596 44.0935C197.221 43.6531 197.718 43.0525 198.034 42.3542C198.35 41.6559 198.474 40.8855 198.392 40.1229C198.293 37.9758 197.686 35.883 196.623 34.0172C195.559 32.1514 194.069 30.5659 192.275 29.3915C191.663 28.9475 190.945 28.6738 190.193 28.5985C189.442 28.5231 188.684 28.6486 187.996 28.9622L185.857 30.2071L194.456 45.3384Z" fill="#3C3C3B"/>
<path d="M184.039 34.2627C184.039 30.3564 186.777 28.7682 190.157 30.7213C191.951 31.8958 193.441 33.4812 194.505 35.347C195.569 37.2129 196.175 39.3056 196.275 41.4527C196.275 45.359 193.537 46.9472 190.157 44.9941C188.363 43.8197 186.872 42.2342 185.809 40.3684C184.745 38.5026 184.138 36.4098 184.039 34.2627Z" fill="#1D1D1B"/>
<path d="M190.179 31.4311C191.788 32.4729 193.13 33.8805 194.097 35.5399C195.063 37.1992 195.626 39.0637 195.74 40.9821C195.75 41.0244 195.75 41.0685 195.74 41.1108C195.74 44.5449 193.259 45.8756 190.286 44.1586C188.69 43.1191 187.363 41.7159 186.411 40.0635C185.46 38.4111 184.911 36.5563 184.81 34.6505C184.681 31.1735 187.098 29.757 190.179 31.4311Z" fill="#575756"/>
<path d="M190.177 31.4313C191.786 32.4731 193.129 33.8807 194.095 35.5401C195.061 37.1994 195.624 39.0639 195.738 40.9823C195.748 41.0246 195.748 41.0687 195.738 41.1111C195.482 43.9871 193.3 45.0602 190.647 43.5364C189.158 42.5585 187.92 41.2426 187.031 39.6952C186.143 38.1478 185.631 36.4124 185.535 34.6293C185.407 31.5386 187.46 30.1865 190.177 31.4313Z" fill="#1D1D1B"/>
<path d="M188.207 32.6107C188.865 32.4369 189.563 32.5054 190.175 32.8038C191.412 33.5946 192.444 34.6682 193.188 35.9366C193.932 37.2051 194.365 38.6322 194.453 40.1012C194.441 40.8142 194.176 41.4994 193.704 42.0329C193.259 42.3935 192.704 42.5902 192.132 42.5902C191.56 42.5902 191.005 42.3935 190.56 42.0329C189.415 41.2932 188.462 40.29 187.782 39.1066C187.101 37.9232 186.711 36.5939 186.645 35.2291C186.587 34.6817 186.707 34.1299 186.989 33.6574C187.271 33.1849 187.698 32.8175 188.207 32.6107Z" fill="#3C3C3B"/>
<path d="M188.208 32.6107C188.866 32.4369 189.564 32.5054 190.176 32.8038C191.413 33.5946 192.446 34.6682 193.189 35.9366C193.933 37.2051 194.366 38.6322 194.454 40.1012C194.443 40.8142 194.177 41.4994 193.706 42.0328C193.309 42.1126 192.9 42.1119 192.503 42.0308C192.106 41.9497 191.73 41.7899 191.395 41.5607C190.268 40.8447 189.323 39.8741 188.635 38.7263C187.948 37.5785 187.538 36.2853 187.438 34.9501C187.397 34.5279 187.444 34.1017 187.577 33.6988C187.71 33.296 187.925 32.9253 188.208 32.6107Z" fill="black"/>
<path d="M1.08695 57.0827C1.50893 32.8768 10.9121 12.4786 16.5551 4.30922C24.9331 13.9047 27.3313 32.4044 28.8581 40.6006C28.8581 40.6006 17.4493 65.046 17.3773 69.1787C17.3052 73.3115 33.9011 105.079 34.1039 106.972C34.3066 108.866 27.2723 115.711 23.2725 119.775C23.2725 119.775 3.40858 76.0215 2.29203 72.4586C1.17549 68.8957 1.08695 57.0827 1.08695 57.0827Z" fill="#002D5F"/>
<path d="M173.019 28.014C173.021 27.7089 173.115 27.4061 173.291 27.1421C173.467 26.8781 173.716 26.6643 174.009 26.5265L177.981 24.1037L181.026 22.2337C182.042 21.6808 183.166 21.3588 184.308 21.2941C185.45 21.2294 186.577 21.4238 187.596 21.8615L187.656 21.8961C188.036 22.0393 188.361 22.2814 188.598 22.5962C188.834 22.911 188.972 23.2866 188.997 23.6822L189.013 27.4815L198.011 31.9499L198.02 34.0839L200.295 35.2217C200.567 35.3241 200.802 35.4955 200.975 35.7182C201.149 35.941 201.255 36.2072 201.282 36.4895L201.392 52.083C201.363 52.3641 201.257 52.637 201.086 52.8745C200.914 53.112 200.683 53.3058 200.416 53.4367L198.84 54.4001C198.097 54.8027 197.275 55.0371 196.44 55.0844C195.605 55.1317 194.781 54.9905 194.036 54.6722L192.779 54.0468L178.333 46.8785L175.5 45.4682L174.123 44.7925C173.849 44.69 173.612 44.518 173.438 44.2942C173.263 44.0704 173.156 43.8027 173.129 43.5188L173.019 27.9253C173.019 27.9253 173.019 27.9823 173.019 28.014Z" fill="#575756"/>
<path d="M187.514 25.2205C187.931 25.0318 188.292 24.7488 188.558 24.4014C188.824 24.054 188.987 23.6551 189.027 23.247L189.125 39.2178C189.088 39.6232 188.931 40.0204 188.67 40.3674C188.409 40.7144 188.053 40.9984 187.641 41.1892L186.435 41.9218L186.337 25.9251L187.514 25.2205Z" fill="#1D1D1B"/>
<path d="M196.387 33.6665L196.493 49.6913L198.105 48.1912L197.999 32.1664L196.387 33.6665Z" fill="#1D1D1B"/>
<path d="M174.094 29.7517L175.468 30.3974L178.295 31.7142L192.708 38.5259L193.962 39.1182C194.706 39.4178 195.528 39.543 196.362 39.4835C197.195 39.424 198.017 39.1815 198.759 38.7757L200.334 37.808C200.611 37.675 200.85 37.4766 201.026 37.2338C201.201 36.991 201.307 36.7129 201.331 36.429L201.418 51.6949C201.392 51.9777 201.286 52.2543 201.11 52.4957C200.935 52.7372 200.697 52.9348 200.421 53.0677L198.846 54.0354C198.104 54.4413 197.282 54.6838 196.449 54.7433C195.615 54.8028 194.793 54.6776 194.049 54.3779L192.794 53.7856L178.382 46.9987L175.555 45.6633L174.181 45.0238C173.908 44.9278 173.672 44.7633 173.498 44.5469C173.323 44.3306 173.217 44.0704 173.19 43.7929L173.104 28.5332C173.132 28.8085 173.239 29.0664 173.413 29.2805C173.587 29.4946 173.822 29.6572 174.094 29.7517Z" fill="#1D1D1B"/>
<path d="M174.003 26.6644C172.686 27.4575 172.689 28.5689 174.01 29.2013L175.376 29.8305L178.175 31.1143L192.513 37.7513L193.761 38.3284C194.502 38.6204 195.32 38.7422 196.149 38.6841C196.978 38.6259 197.795 38.3894 198.534 37.9938L200.1 37.0502C201.417 36.2632 201.414 35.1458 200.093 34.5194L196.456 32.8533L197.843 31.4632L186.436 26.2217L187.535 25.5405C189.339 24.4595 189.341 22.9128 187.526 22.0855L187.499 22.0028C186.488 21.6012 185.369 21.4332 184.234 21.5128C183.1 21.5923 181.982 21.917 180.973 22.4603L177.965 24.2903L174.003 26.6644Z" fill="#575756"/>
<path d="M189.594 33.9698L192.352 33.5922L195.627 30.4186L195.632 32.0028L192.357 35.1765L189.592 35.5603L181.534 31.9422L181.529 30.3579L189.594 33.9698Z" fill="#1D1D1B"/>
<path d="M181.834 28.5995L181.47 30.0672L189.556 33.7646L192.319 33.3788L195.6 30.1317L195.314 29.0424L189.68 26.447L187.561 26.443L181.834 28.5995Z" fill="#4B4B4A"/>
<path d="M180.896 52.9976L183.656 52.6156L186.935 49.4006L187.946 51.3332L183.661 54.2209L183.007 54.6459C182.406 55.0369 181.665 55.0982 181.052 54.8077L173.277 51.1244C172.631 50.8185 172.227 50.1706 172.225 49.4364L172.223 48.5625L180.896 52.9976Z" fill="#1D1D1B"/>
<path d="M173.139 47.6221C171.675 48.1539 172.115 48.9062 172.774 49.0875L180.859 52.7798C182.234 53.5015 182.655 52.9429 183.97 52.2639L187.91 49.614L186.616 48.0654L180.983 45.4736L178.685 45.184L173.139 47.6221Z" fill="#4B4B4A"/>
<path d="M179.338 26.2007L179.341 27.1413C179.326 27.2856 179.27 27.4266 179.178 27.5501C179.086 27.6736 178.961 27.775 178.816 27.8442C178.421 28.0534 177.984 28.1783 177.541 28.2088C177.097 28.2393 176.659 28.1746 176.263 28.0198C176.118 27.9706 175.993 27.8863 175.9 27.7755C175.807 27.6648 175.75 27.5315 175.735 27.3893L175.732 26.4487L179.338 26.2007Z" fill="#1D1D1B"/>
<path d="M176.242 25.6547C176.087 25.7118 175.953 25.8105 175.857 25.9367C175.762 26.063 175.711 26.2103 175.712 26.3579C175.712 26.5055 175.764 26.6458 175.86 26.7589C175.956 26.872 176.091 26.9522 176.245 26.988C176.641 27.1427 177.079 27.2075 177.523 27.177C177.966 27.1464 178.403 27.0215 178.798 26.8124C178.953 26.7553 179.088 26.6566 179.183 26.5304C179.278 26.4042 179.329 26.2568 179.328 26.1092C179.328 25.9616 179.276 25.8213 179.18 25.7082C179.085 25.5951 178.95 25.515 178.795 25.4791C178.399 25.3244 177.961 25.2597 177.517 25.2902C177.074 25.3207 176.637 25.4456 176.242 25.6547Z" fill="#878787"/>
<path d="M187.006 21.3538L187.009 22.8632C186.986 23.0952 186.893 23.3233 186.741 23.524C186.588 23.7248 186.382 23.891 186.142 24.0055C185.488 24.3535 184.764 24.5668 184.029 24.6281C183.295 24.6893 182.57 24.5967 181.915 24.3578C181.674 24.2837 181.466 24.1523 181.312 23.9771C181.158 23.802 181.063 23.5893 181.038 23.3609L181.035 21.8516L187.006 21.3538Z" fill="#1D1D1B"/>
<path d="M181.883 20.5052C180.718 21.1807 180.72 22.1524 181.886 22.6452C182.541 22.8842 183.266 22.9768 184 22.9156C184.735 22.8543 185.459 22.6409 186.113 22.2929C187.277 21.6174 187.275 20.6457 186.109 20.1528C185.453 19.9167 184.729 19.8255 183.995 19.8867C183.261 19.9479 182.537 20.1598 181.883 20.5052Z" fill="#3C3C3B"/>
<path d="M184 22.2911C184.941 22.2263 185.703 21.774 185.702 21.2807C185.7 20.7875 184.936 20.4401 183.995 20.5048C183.054 20.5696 182.292 21.0219 182.294 21.5152C182.295 22.0084 183.059 22.3558 184 22.2911Z" fill="#878787"/>
<path d="M183.38 25.9036C183.091 26.0722 183.092 26.3223 183.382 26.465C183.545 26.5312 183.724 26.5604 183.906 26.5504C184.087 26.5404 184.266 26.4914 184.428 26.4072C184.717 26.2326 184.716 25.9824 184.426 25.8458C184.263 25.7796 184.084 25.7504 183.902 25.7604C183.721 25.7704 183.542 25.8194 183.38 25.9036Z" fill="#1D1D1B"/>
<path d="M199.043 35.5287L199.045 36.5975C199.028 36.762 198.962 36.9238 198.854 37.0661C198.745 37.2083 198.598 37.3259 198.427 37.4066C197.966 37.6506 197.457 37.8006 196.94 37.8443C196.423 37.8879 195.913 37.8242 195.451 37.6581C195.282 37.6048 195.136 37.5115 195.029 37.3877C194.921 37.2639 194.855 37.1139 194.838 36.953L194.836 35.8843L199.043 35.5287Z" fill="#1D1D1B"/>
<path d="M196.919 36.6465C198.083 36.5482 199.025 35.9901 199.024 35.4C199.023 34.8099 198.079 34.4112 196.915 34.5095C195.752 34.6078 194.809 35.1659 194.81 35.756C194.811 36.3461 195.756 36.7448 196.919 36.6465Z" fill="#3C3C3B"/>
<path d="M198.71 34.3433L198.712 35.2437C198.697 35.3824 198.64 35.5185 198.548 35.638C198.455 35.7574 198.33 35.8559 198.186 35.9231C197.797 36.1293 197.366 36.2561 196.929 36.293C196.492 36.3299 196.061 36.2759 195.671 36.1354C195.528 36.0923 195.403 36.0146 195.312 35.9107C195.22 35.8067 195.164 35.6802 195.15 35.5444L195.148 34.644L198.71 34.3433Z" fill="#1D1D1B"/>
<path d="M195.639 33.8413C195.488 33.9002 195.357 33.9975 195.264 34.1197C195.172 34.2419 195.122 34.3829 195.123 34.5233C195.123 34.6636 195.173 34.7962 195.266 34.9027C195.359 35.0093 195.49 35.0844 195.641 35.1178C196.031 35.2584 196.462 35.3124 196.899 35.2755C197.336 35.2386 197.766 35.1117 198.156 34.9053C198.307 34.8464 198.438 34.7491 198.53 34.6269C198.623 34.5047 198.672 34.3637 198.672 34.2234C198.672 34.0831 198.622 33.9504 198.529 33.8439C198.436 33.7374 198.305 33.6622 198.154 33.6288C197.764 33.4883 197.333 33.4342 196.896 33.4712C196.459 33.5081 196.028 33.6349 195.639 33.8413Z" fill="#3C3C3B"/>
<path d="M196.867 34.7644C197.278 34.7359 197.611 34.5397 197.61 34.326C197.61 34.1123 197.276 33.9621 196.865 33.9905C196.454 34.019 196.122 34.2152 196.122 34.4289C196.123 34.6426 196.456 34.7928 196.867 34.7644Z" fill="#1D1D1B"/>
<path d="M200.253 48.4902C200.241 48.7501 200.162 49.007 200.025 49.2401C199.887 49.4732 199.694 49.676 199.461 49.8321C199.014 50.0905 198.656 49.9157 198.654 49.4486L198.627 43.1554C198.638 42.8944 198.716 42.6362 198.855 42.4026C198.994 42.1689 199.19 41.9668 199.426 41.8132C199.866 41.5486 200.224 41.7235 200.226 42.1971L200.253 48.4902Z" fill="#575756"/>
<path d="M177.139 35.1397L177.158 42.2307C177.175 42.5888 177.283 42.9315 177.474 43.2302C177.664 43.5288 177.931 43.7746 178.253 43.9471L188.352 48.6636L189.42 50.1567L190.648 49.3994C190.753 49.3214 190.837 49.2211 190.892 49.1078C190.948 48.9944 190.973 48.8718 190.965 48.7512L190.944 40.6222C190.924 40.27 190.814 39.9336 190.625 39.6406C190.436 39.3475 190.172 39.1063 189.856 38.9366L178.225 33.4294C178.116 33.3627 177.987 33.3263 177.853 33.3238C177.718 33.3214 177.583 33.353 177.461 33.4154L176.232 34.1728L177.139 35.1397Z" fill="#706F6F"/>
<path d="M177.014 34.1505L188.645 39.6279C188.961 39.8 189.224 40.043 189.413 40.3372C189.602 40.6315 189.712 40.9688 189.734 41.322L189.755 49.4618C189.757 50.0879 189.272 50.4108 188.672 50.1282L177.042 44.6383C176.728 44.4683 176.466 44.2282 176.277 43.9374C176.088 43.6465 175.977 43.3128 175.953 42.9629L175.932 34.8232C175.93 34.1658 176.415 33.8679 177.014 34.1505Z" fill="#1D1D1B"/>
<path d="M177.16 35.2032C177.212 35.2003 177.262 35.2096 177.307 35.2303L188.216 40.3817C188.401 40.484 188.552 40.6302 188.656 40.8071C188.775 40.9778 188.845 41.1774 188.857 41.3874L188.877 48.9734C188.879 49.0026 188.873 49.0323 188.858 49.0594C188.844 49.0865 188.822 49.11 188.796 49.1273C188.769 49.1446 188.739 49.1551 188.707 49.1577C188.676 49.1604 188.645 49.155 188.618 49.1422L177.483 43.9006C177.298 43.7983 177.146 43.6521 177.042 43.4752C176.915 43.2965 176.844 43.0856 176.835 42.8641L176.815 35.5097C176.816 35.469 176.825 35.4282 176.843 35.39C176.862 35.3519 176.888 35.3172 176.92 35.2882C176.953 35.2592 176.991 35.2367 177.033 35.2221C177.074 35.2074 177.117 35.201 177.16 35.2032Z" fill="#706F6F"/>
<path d="M177.154 35.2032C177.206 35.2003 177.256 35.2096 177.301 35.2303L188.213 40.3842C188.397 40.4865 188.549 40.6328 188.653 40.8098C188.772 40.9805 188.841 41.1802 188.854 41.3903L188.874 48.9798L177.749 43.7348C177.564 43.6324 177.413 43.4861 177.309 43.3092C177.195 43.1473 177.126 42.9589 177.108 42.7599L177.088 35.3458C177.097 35.2946 177.12 35.2455 177.154 35.2032Z" fill="#9AC8FF"/>
<path opacity="0.5" d="M182.598 45.6564L188.518 42.2979L188.516 41.5348C188.502 41.3821 188.447 41.2375 188.357 41.1132C188.278 40.9826 188.164 40.8732 188.027 40.7937L185.968 39.8556L179.214 44.1077L182.598 45.6564Z" fill="white"/>
<path opacity="0.5" d="M177.95 43.2739L178.682 43.6068L185.317 39.3102L184.097 38.7533L177.673 43.0413C177.744 43.138 177.838 43.2175 177.95 43.2739Z" fill="white"/>
<path d="M185.15 23.3157C185.226 22.6525 185.453 22.0054 185.816 21.4209C186.179 20.8363 186.669 20.329 187.25 19.9353L187.74 19.6346L194.198 22.7954L194.227 29.9188L191.171 31.7674L184.714 28.6066L185.15 23.3157Z" fill="#3C3C3B"/>
<path d="M185.146 23.4121L184.7 28.6481L191.166 31.6687L191.611 26.4328C191.69 25.7775 191.92 25.1362 192.284 24.5541C192.649 23.972 193.139 23.4635 193.719 23.0647L194.211 22.7597L187.746 19.7328L187.254 20.0378C186.671 20.4361 186.18 20.9454 185.816 21.5288C185.451 22.1123 185.222 22.7555 185.146 23.4121Z" fill="#1D1D1B"/>
<path d="M191.092 32.0234L191.548 26.6677C191.629 25.9975 191.864 25.3414 192.237 24.746C192.61 24.1505 193.112 23.6303 193.706 23.2222L194.21 22.9101L194.229 30.1041L191.092 32.0234Z" fill="#3C3C3B"/>
<path d="M164.269 40.786C163.868 40.2979 163.651 39.6676 163.655 39.0018C163.659 38.336 163.271 37.9047 163.679 37.3613L168.196 34.2415C170.128 33.4682 171.948 37.7121 170.787 39.9991L166.975 42.1561C166.975 42.1561 165.815 43.2466 164.269 40.786Z" fill="#1D1D1B"/>
<path d="M166.457 26.2687L166.946 34.9782L164.929 36.4867L164.501 26.4563L168.048 18.4254L184.434 10.2492C184.778 8.88315 189.989 8.41853 191.459 9.36389L191.065 14.2754C189.716 16.0191 185.519 15.5732 184.04 15.1606L184.303 11.8864L169.405 19.6801L166.457 26.2687Z" fill="#181818"/>
<ellipse rx="3.12451" ry="1.60733" transform="matrix(-0.398465 -0.873414 0.889624 -0.470266 165.658 39.5225)" fill="#454545"/>
<path d="M165.62 40.5747C169.174 38.6603 166.689 36.1018 165.72 36.4597L120.369 64.7831C119.094 66.492 119.827 67.683 121.9 67.5467L165.62 40.5747Z" fill="#181818"/>
<path d="M125.543 67.5894C127.42 66.2726 124.63 62.8483 122.992 63.4176L24.7491 124.022C22.5682 126.896 23.098 128.375 26.7656 128.241L125.543 67.5894Z" fill="#414140"/>
<path d="M168.111 18.5073L167.882 18.0628L167.73 18.1412L167.658 18.2963L168.111 18.5073ZM164.166 25.7878C164.05 26.0382 164.158 26.3357 164.408 26.4522C164.658 26.5688 164.956 26.4603 165.072 26.2099L164.166 25.7878ZM184.35 9.57186L167.882 18.0628L168.34 18.9518L184.807 10.4608L184.35 9.57186ZM167.658 18.2963L164.166 25.7878L165.072 26.2099L168.564 18.7184L167.658 18.2963Z" fill="#454545"/>
<path d="M203.278 43.2069C203.065 44.3792 203.12 45.7872 202.057 46.1137C200.713 45.869 200.205 45.7765 199.706 45.6855C198.036 45.3814 196.929 43.7788 197.232 42.1058C197.535 40.4329 199.135 39.3232 200.804 39.6273C201.304 39.7183 202.148 39.8718 203.155 40.0555C204.036 40.7362 203.49 42.0347 203.278 43.2069Z" fill="#454545"/>
<ellipse rx="3.07235" ry="3.19082" transform="matrix(0.992689 -0.120835 0.120336 0.992717 202.053 43.0078)" fill="black"/>
<path d="M191.163 9.54226C191.223 10.3334 189.722 11.0922 187.81 11.2371C185.899 11.3821 184.489 10.6293 184.241 10.0671C183.85 9.17898 185.197 8.34838 187.465 8.30433C189.377 8.1594 191.103 8.75113 191.163 9.54226Z" fill="#454545"/>
<path d="M197.919 25.6172C195.171 23.393 189.986 17.4435 189.563 17.2142L183.376 15.7381L183.376 15.1476L190.152 16.3285L200.169 24.0051L202.821 39.6528L200.169 40.2432L197.919 25.6172Z" fill="#454545"/>
<path d="M198.394 25.0636C195.646 22.8393 190.28 16.8524 189.857 16.6231L183.67 15.147C185.243 15.257 188.791 16.1182 190.152 14.2612L192.214 14.8517L201.052 23.7088L204.387 40.8981L201.052 40.5376L198.394 25.0636Z" fill="black"/>
<path d="M98.9013 77.9415C99.4349 80.3892 99.6127 82.5465 98.0345 81.9475C96.5506 81.3844 96.6573 80.5694 96.2509 79.4399L89.7638 83.4355C87.9432 81.5263 88.5776 78.746 88.2092 78.5508L87.6203 78.3279C88.1484 77.6041 88.9352 76.4859 89.7333 75.2794C90.8376 73.6097 91.9635 71.7708 92.4548 70.5732L97.8697 73.7983L102.738 75.4442L98.9013 77.9415Z" fill="#FBBEAE"/>
<path d="M97.8697 73.7983C98.6078 76.8658 100.548 82.9013 98.0345 81.9475C96.5506 81.3844 96.6573 80.5694 96.2509 79.4399M97.8697 73.7983L102.738 75.4442L98.9013 77.9415M97.8697 73.7983L92.4548 70.5732C91.6084 72.6362 88.8791 76.6025 87.6203 78.3279L88.2092 78.5508C88.5776 78.746 87.9432 81.5263 89.7638 83.4355L96.2509 79.4399M89.6846 75.2055C91.5576 78.0871 94.1047 77.5475 95.1441 76.9175C95.1326 77.4272 95.969 78.6564 96.2509 79.4399" stroke="#E9B0A1" stroke-width="0.5"/>
<path d="M43.4286 108.148L34.8843 107.865C31.447 111.112 24.8081 118.021 25.7509 119.674C26.6937 121.328 31.0541 125.284 33.1165 127.055C35.4735 128.618 35.8663 126.404 35.7681 125.102L36.9466 126.465C39.0679 127.173 39.5983 125.382 39.5983 124.398C42.6624 125.579 43.0356 123.119 42.8391 121.741C45.4636 122.618 45.9776 121.162 45.8271 119.67C45.7281 118.688 45.0594 117.893 44.3077 117.254C40.5804 114.086 39.72 111.317 41.6608 111.101C44.3125 110.805 48.7319 113.167 50.205 110.805C50.4996 110.51 51.0889 109.624 49.9104 109.624C48.7319 109.624 44.5089 108.345 43.4286 108.148Z" fill="#FBBEAE"/>
<path d="M42.8391 121.741C45.4636 122.618 45.9776 121.162 45.8271 119.67C45.7281 118.688 45.0594 117.893 44.3077 117.254C40.5804 114.086 39.72 111.317 41.6608 111.101C44.3125 110.805 48.7319 113.167 50.205 110.805C50.4996 110.51 51.0889 109.624 49.9104 109.624C48.7319 109.624 44.5089 108.345 43.4286 108.148L34.8843 107.865C31.447 111.112 24.8081 118.021 25.7509 119.674C26.6937 121.328 31.0541 125.284 33.1165 127.055C35.4735 128.618 35.8663 126.404 35.7681 125.102M42.8391 121.741C42.2499 121.249 40.7768 119.911 39.5983 118.493M42.8391 121.741C43.0356 123.119 42.6624 125.579 39.5983 124.398M39.5983 124.398L35.7681 119.674M39.5983 124.398C39.5983 125.382 39.0679 127.173 36.9466 126.465L35.7681 125.102M33.1165 122.036L35.7681 125.102" stroke="#E9B0A1" stroke-width="0.5"/>
<path d="M102.308 82.0507L105.985 79.7163C106.611 82.7034 106.584 88.1522 102.595 85.7238C102.903 87.3558 102.33 89.6175 98.1042 87.2064C98.4803 88.7509 98.2549 90.9244 94.7719 88.4669C94.7138 89.4737 94.0396 90.9391 91.8072 88.7464C91.7236 88.4032 90.706 86.455 93.195 87.4149C92.2373 85.8257 91.1485 83.0529 94.4551 84.6755C93.4226 82.9263 92.9047 80.8 97.3242 82.7582L98.2493 83.4437C97.8501 82.427 98.5457 81.5478 101.045 81.8483C101.565 81.9108 101.903 81.9908 102.308 82.0507Z" fill="#FBBEAE"/>
<path d="M102.595 85.7238C106.584 88.1522 106.611 82.7034 105.985 79.7163L102.308 82.0507L103.542 82.1372C102.327 82.1304 101.983 81.961 101.045 81.8483C98.5457 81.5478 97.8501 82.427 98.2493 83.4437M102.595 85.7238L99.1744 84.1292L98.2493 83.4437M102.595 85.7238C102.903 87.3558 102.33 89.6175 98.1042 87.2064M98.1042 87.2064C97.5658 86.8993 96.9681 86.5163 96.3053 86.0465L94.4551 84.6755M98.1042 87.2064C98.4803 88.7509 98.2549 90.9244 94.7719 88.4669M94.7719 88.4669C94.4309 88.2263 94.0586 87.9413 93.6526 87.6069C93.4883 87.533 93.336 87.4693 93.195 87.4149M94.7719 88.4669C94.7138 89.4737 94.0396 90.9391 91.8072 88.7464C91.7236 88.4032 90.706 86.455 93.195 87.4149M93.195 87.4149C92.2373 85.8257 91.1485 83.0529 94.4551 84.6755M94.4551 84.6755C93.4226 82.9263 92.9047 80.8 97.3242 82.7582L98.2493 83.4437" stroke="#E9B0A1" stroke-width="0.5"/>
<path d="M28.3864 1.0166C23.8108 1.84527 21.2352 2.63028 16.4102 4.5128L19.1699 7.66546L24.0699 4.99539L28.2121 3.44272L28.3864 1.0166Z" fill="#022852"/>
</svg>
