<svg width="133" height="108" viewBox="0 0 133 108" fill="none" xmlns="http://www.w3.org/2000/svg">
<path d="M66.6272 50.3593L62.1758 51.9658L63.201 56.5659L67.6524 54.9594L66.6272 50.3593Z" fill="#1D1715"/>
<path d="M61.6127 57.0046L68.4816 54.5828C68.6996 54.5047 68.9238 54.4623 69.141 54.4583C69.3582 54.4542 69.564 54.4885 69.7465 54.5592C69.9289 54.6299 70.0842 54.7355 70.2035 54.8698C70.3227 55.0042 70.4033 55.1646 70.4407 55.3417L70.7872 56.8573C70.8229 57.0334 70.8153 57.2222 70.7647 57.4128C70.7142 57.6035 70.6217 57.7921 70.4927 57.968C70.3637 58.1438 70.2006 58.3034 70.0129 58.4375C69.8252 58.5715 69.6166 58.6775 69.399 58.7492L62.487 61.1862L61.6127 57.0046Z" fill="#2D2726"/>
<path d="M57.6632 58.2402L58.3047 61.3911L61.6048 60.252L60.9632 57.1011L57.6632 58.2402Z" fill="#2D2726"/>
<path d="M59.7984 56.2701L61 62.1045L64.4595 60.9179L63.2579 55.0835L59.7984 56.2701Z" fill="#1D1715"/>
<path d="M57.3718 57.7677L58.2363 62.0522L60.4773 61.2977L59.6128 57.0132L57.3718 57.7677Z" fill="#1D1715"/>
<path d="M28.7198 57.2673C23.7651 58.8924 18.7399 60.2183 13.6899 61.2331C8.49174 62.2273 6.12475 62.0762 5.76775 60.6615C5.41075 59.2468 7.35176 57.7099 12.2274 55.4376C16.9927 53.295 21.8823 51.4315 26.8516 49.8642C31.8098 48.2377 36.8385 46.9107 41.892 45.8951C47.0858 44.9283 49.4588 45.1035 49.8098 46.4941C50.1607 47.8847 48.2237 49.4377 43.3585 51.7066C38.5891 53.8484 33.6944 55.7077 28.7198 57.2673ZM9.04058 59.6087C11.3002 59.6032 17.9054 58.4952 28.1944 55.1854C38.4835 51.8757 44.6893 48.8713 46.5369 47.5469C44.2753 47.5444 37.6826 48.6571 27.3831 51.9702C17.0836 55.2833 10.951 58.2642 9.04058 59.6087Z" fill="#756058"/>
<path d="M97.2775 38.0602C102.247 36.4924 107.137 34.6284 111.902 32.4852C116.78 30.2203 118.715 28.6589 118.364 27.268C118.013 25.8771 115.64 25.7019 110.435 26.6724C105.385 27.6875 100.36 29.0139 95.4051 30.6394C90.432 32.208 85.5388 34.0732 80.7699 36.2178C75.8942 38.4908 73.9696 40.0488 74.3206 41.4397C74.6715 42.8306 76.9799 43.0179 82.2366 42.0306C87.2906 41.0178 92.3198 39.6902 97.2775 38.0602ZM115.085 28.3406C113.162 29.6808 107.041 32.6671 96.7521 35.9779C86.4627 39.2886 79.7861 40.4286 77.5976 40.4026C79.5185 39.0544 85.6408 36.0761 95.9406 32.762C106.24 29.4478 112.844 28.3314 115.085 28.3406Z" fill="#756058"/>
<path d="M26.0615 47.2205C14.7079 50.7787 5.80332 54.8424 6.17873 56.2902C6.29012 56.7197 7.22784 56.8645 8.77759 56.7659C11.6898 56.6274 16.7754 55.541 22.7734 53.8505C24.2718 53.4239 25.8286 52.9618 27.4208 52.4628C38.7848 48.9014 47.681 44.8489 47.3056 43.4011C46.9302 41.9533 37.4255 43.6591 26.0615 47.2205ZM21.8746 52.9882C14.6301 54.992 9.91968 55.7027 8.09355 55.6901C12.435 53.4694 17.5932 52.4893 21.8578 52.0989C22.0774 52.1277 22.2756 52.1996 22.4367 52.3088C22.5978 52.418 22.7174 52.5616 22.7862 52.7283L21.8746 52.9882Z" fill="white"/>
<path d="M94.6239 28.0143C105.978 24.4555 115.482 22.7492 115.858 24.197C115.969 24.6265 115.252 25.2899 113.888 26.1046C111.337 27.6354 106.505 29.7005 100.598 31.7413C99.12 32.2476 97.5757 32.7575 95.9835 33.2565C84.6195 36.8186 75.1168 38.5329 74.7413 37.0851C74.3659 35.6373 83.26 31.5764 94.6239 28.0143ZM100.896 30.5039C108.012 28.0065 112.356 25.8796 113.901 24.8102C109.147 25.4402 104.294 27.5979 100.484 29.7386C100.309 29.8904 100.174 30.0665 100.087 30.2532C100.001 30.44 99.9665 30.6322 99.9863 30.8148L100.896 30.5039Z" fill="white"/>
<path d="M48.5972 42.4438C47.9108 41.3852 45.5287 41.3002 40.8267 42.1767C35.7745 43.1725 30.7486 44.4835 25.7946 46.0978C20.8291 47.6521 15.9449 49.5071 11.1865 51.646C7.05398 53.5655 5.05445 54.9886 4.74865 56.2319C4.69168 56.4589 4.69113 56.6842 4.74703 56.8934C5.01585 57.9532 6.44307 58.3256 9.37932 58.0573C10.3149 57.9611 11.4136 57.7952 12.646 57.5777L12.8445 57.5143C16.0318 56.8935 19.2084 56.1259 22.3585 55.2151C24.0759 54.7281 25.8499 54.1966 27.6573 53.6192C29.4648 53.0417 31.2409 52.4743 32.9211 51.8406C36.0942 50.7334 39.2195 49.4789 42.28 48.084C47.1483 45.8149 49.0688 44.2583 48.7111 42.848C48.6899 42.708 48.6517 42.5726 48.5972 42.4438ZM32.3689 49.7081C30.7535 50.2859 28.9961 50.8825 27.1051 51.4867C25.5588 51.9807 24.1066 52.4446 22.7214 52.8167L21.8124 53.107C14.5854 55.1162 9.85663 55.8426 8.02348 55.829C9.93932 54.4767 16.0412 51.505 26.3322 48.2173C36.6232 44.9296 43.2885 43.8225 45.4786 43.8631C43.9267 44.9582 39.5555 47.139 32.4211 49.6914L32.3689 49.7081Z" fill="#614F49"/>
<path d="M73.2577 37.2664C73.3443 35.9608 75.3293 34.4803 79.7335 32.4292C84.4972 30.2938 89.3863 28.4424 94.356 26.8917C99.3064 25.2774 104.329 23.9668 109.378 22.9718C113.781 22.1637 116.159 22.188 117.003 23.0641C117.158 23.2234 117.264 23.4145 117.315 23.6254C117.583 24.6852 116.545 25.8456 113.923 27.3534C113.072 27.8281 112.06 28.3366 110.921 28.877L110.712 28.9438C107.715 30.2997 104.658 31.524 101.556 32.6106C99.8678 33.212 98.1104 33.8089 96.3552 34.3699C94.6 34.931 92.7717 35.5153 91.046 35.97C87.829 36.9047 84.5836 37.686 81.3273 38.3096C76.1239 39.2588 73.7608 39.071 73.4029 37.6607C73.3381 37.536 73.2895 37.404 73.2577 37.2664ZM90.4622 33.8474C92.1065 33.3836 93.8804 32.8518 95.7715 32.2474C97.3177 31.7532 98.7699 31.289 100.112 30.7897L101.031 30.4958C108.176 27.9389 112.536 25.7608 114.088 24.6655C111.825 24.6485 105.233 25.7332 94.9523 29.0191C84.6718 32.305 78.476 35.3077 76.6333 36.637C78.4081 36.6426 83.1474 35.9122 90.4099 33.8641L90.4622 33.8474Z" fill="#614F49"/>
<path d="M48.9941 43.6136L49.7313 46.5021C36.098 54.9704 21.456 59.7957 5.78373 60.4959L5.04652 57.6073C4.99172 57.4037 4.99329 57.184 5.05113 56.9623C8.90824 60.5821 46.8451 48.3221 48.8447 43.2493C48.9096 43.3643 48.9596 43.4863 48.9941 43.6136Z" fill="#756058"/>
<path d="M73.609 38.4028L74.3463 41.2914C89.9279 40.4562 104.647 35.9315 118.294 27.2948L117.556 24.4062C117.507 24.2009 117.402 24.0152 117.248 23.8609C115.679 29.2085 77.6578 41.1377 73.5639 38.0053C73.5631 38.1412 73.5782 38.2743 73.609 38.4028Z" fill="#756058"/>
<path d="M32.1513 48.3907L32.5333 49.9216C31.4841 50.9844 23.1343 53.7592 21.9367 53.3649L21.5547 51.834L32.1513 48.3907Z" fill="#2D2726"/>
<path d="M90.1074 32.6318L90.4894 34.1627C91.8719 34.4354 100.24 31.7779 101.086 30.7194L100.704 29.1885L90.1074 32.6318Z" fill="#2D2726"/>
<path d="M22.9983 52.4373L22.0919 52.7238C14.8342 54.7288 10.1219 55.4617 8.29651 55.4607C12.6471 53.2355 17.8082 52.2332 22.0733 51.8202C22.2926 51.8473 22.4904 51.9172 22.6509 52.0243C22.8114 52.1314 22.9303 52.2728 22.9983 52.4373Z" fill="#B4D1FA"/>
<path d="M99.9347 31.4002L100.851 31.1108C107.976 28.5976 112.327 26.4678 113.877 25.401C109.123 26.0534 104.262 28.2167 100.443 30.3567C100.271 30.5042 100.136 30.6748 100.048 30.8555C99.9604 31.0363 99.9215 31.2225 99.9347 31.4002Z" fill="#B4D1FA"/>
<path d="M31.2003 50.6557L32.1066 50.3695C39.2315 47.8562 43.5932 45.723 45.1327 44.6594C40.3782 45.3118 35.5174 47.4752 31.6983 49.6154C31.5294 49.7635 31.397 49.9338 31.3108 50.1138C31.2247 50.2938 31.1869 50.479 31.2003 50.6557Z" fill="#B4D1FA"/>
<path d="M91.746 33.1838L90.8398 33.47C83.5895 35.4963 78.8677 36.2318 77.0426 36.2308C81.4028 34.0048 86.5526 33.0068 90.8273 32.5909C91.0413 32.618 91.2349 32.6854 91.3939 32.788C91.5529 32.8906 91.6732 33.0258 91.746 33.1838Z" fill="#B4D1FA"/>
<path d="M27.4286 51.1145L26.6894 51.3609C26.4621 51.439 26.2625 51.5854 26.1337 51.7683C26.005 51.9512 25.9576 52.1558 26.0018 52.3378L28.4624 51.5176C28.4179 51.3342 28.284 51.1886 28.0901 51.113C27.8962 51.0374 27.6583 51.0379 27.4286 51.1145Z" fill="#B4D1FA"/>
<path d="M95.4148 32.1078L96.1435 31.8649C96.3732 31.7884 96.6111 31.7879 96.805 31.8635C96.9988 31.9391 97.1327 32.0846 97.1772 32.2681L94.7166 33.0883C94.6721 32.9048 94.7207 32.6985 94.8516 32.5146C94.9825 32.3307 95.1851 32.1844 95.4148 32.1078Z" fill="#B4D1FA"/>
<path d="M26.5816 47.1566L25.4238 47.5542C23.344 48.2683 24.0852 49.5021 25.0498 49.7623L27.8586 48.7978C28.556 47.9191 28.6399 46.4498 26.5816 47.1566Z" fill="#B4D1FA"/>
<path d="M94.1493 28.3043L95.3177 27.9033C97.3972 27.1895 97.3022 28.7095 96.5945 29.5435L93.7753 30.5112C92.7897 30.2107 92.1018 29.0071 94.1493 28.3043Z" fill="#B4D1FA"/>
<path d="M32.0023 48.1875C31.9072 47.8192 29.4768 48.2635 26.5714 49.1794C23.666 50.0954 21.3894 51.1352 21.4845 51.5034C21.5795 51.8717 24.0079 51.4196 26.9133 50.5036C29.8187 49.5877 32.0954 48.5479 32.0023 48.1875Z" fill="#756058"/>
<path d="M90.0372 32.3016C89.9421 31.9331 92.2293 30.8897 95.1348 29.9733C98.0404 29.057 100.419 28.629 100.514 28.9974C100.609 29.3659 98.3302 30.3982 95.4767 31.2981C92.6232 32.198 90.1303 32.6621 90.0372 32.3016Z" fill="#756058"/>
<path d="M38.4758 54.4653C37.912 54.6716 37.3191 54.7004 36.824 54.5457C36.3288 54.3909 35.9706 54.0648 35.8258 53.6369C35.681 53.2091 35.7611 52.7136 36.0491 52.2561C36.337 51.7987 36.81 51.4157 37.3669 51.1889L57.0625 42.3675C57.6213 42.117 58.2315 42.0433 58.7588 42.1624C59.2861 42.2815 59.6874 42.5838 59.8744 43.0027C60.0614 43.4216 60.0188 43.9229 59.7559 44.3962C59.493 44.8695 59.0314 45.2761 58.4726 45.5266L38.7565 54.3106L38.4758 54.4653Z" fill="#2D2726"/>
<path d="M87.2284 39.7895C87.8011 39.6197 88.3181 39.2812 88.669 38.8464C89.0199 38.4116 89.1769 37.915 89.1063 37.4626C89.0357 37.0103 88.7432 36.6381 88.2913 36.4255C87.8394 36.213 87.2639 36.1769 86.6878 36.3252L65.9497 40.8864C65.6584 40.951 65.3732 41.0607 65.1102 41.2094C64.8473 41.3581 64.6117 41.5429 64.417 41.7531C64.2223 41.9634 64.0723 42.195 63.9755 42.4348C63.8788 42.6746 63.8371 42.9178 63.853 43.1506C63.8689 43.3834 63.942 43.6012 64.0681 43.7916C64.1942 43.982 64.3709 44.1413 64.5881 44.2602C64.8052 44.3792 65.0586 44.4557 65.3337 44.4851C65.6089 44.5146 65.9004 44.4966 66.1916 44.432L86.9197 39.8299L87.2284 39.7895Z" fill="#2D2726"/>
<path d="M63.6062 50.1224L50.4292 54.5859C49.0314 53.5603 48.1006 52.147 47.745 50.5106C47.3895 48.8741 47.6238 47.0817 48.4208 45.342L74.4036 36.5408C75.8497 37.5208 76.8394 38.8992 77.257 40.5151C77.6747 42.131 77.503 43.9176 76.762 45.6661L63.6062 50.1224Z" fill="#756058"/>
<path d="M60.583 38.5212C53.4963 40.7693 47.9716 43.3071 48.1958 44.1799C48.4199 45.0527 54.3051 43.9626 61.4062 41.7266C68.5074 39.4907 74.0281 36.9374 73.8019 36.0569C73.5758 35.1764 67.6718 36.2808 60.583 38.5212Z" fill="#614F49"/>
<path d="M63.587 49.2446C56.3856 51.5289 50.7687 54.1459 50.9889 55.0031C51.209 55.8604 57.2207 54.7804 64.4241 52.5038C71.6274 50.2272 77.2627 47.6378 77.0326 46.7419C76.8025 45.846 70.7923 46.9757 63.587 49.2446Z" fill="#756058"/>
<path d="M38.1537 78.2767C37.6961 78.5065 37.205 78.6426 36.7238 78.6729C36.2427 78.7032 35.7863 78.6268 35.3949 78.4504C34.7547 78.1651 34.3265 77.6356 34.2041 76.9779C34.0817 76.3203 34.2753 75.5882 34.7422 74.9424L53.8007 48.7232C54.0318 48.4044 54.3229 48.1163 54.6574 47.8755C54.992 47.6347 55.3634 47.4459 55.7506 47.3198C56.1377 47.1938 56.533 47.1329 56.9138 47.1408C57.2946 47.1487 57.6534 47.2251 57.9699 47.3657C58.2864 47.5063 58.5543 47.7083 58.7582 47.9602C58.9622 48.2121 59.0983 48.509 59.1587 48.8339C59.2191 49.1588 59.2027 49.5053 59.1103 49.8537C59.018 50.2022 58.8516 50.5456 58.6205 50.8645L39.5641 77.0928C39.2117 77.5822 38.7198 77.9951 38.1537 78.2767Z" fill="#2D2726"/>
<path d="M98.7498 59.6579C99.3896 59.52 100.007 59.2088 100.51 58.7699C101.014 58.3309 101.378 57.7874 101.549 57.2189C101.719 56.6504 101.688 56.0869 101.459 55.6111C101.23 55.1352 100.815 54.7721 100.276 54.5748L73.0429 44.7506C72.3753 44.5083 71.5662 44.5385 70.7937 44.8344C70.0212 45.1303 69.3485 45.6678 68.9237 46.3285C68.4988 46.9893 68.3565 47.7193 68.5281 48.3579C68.6997 48.9965 69.1712 49.4913 69.8388 49.7336L97.0741 59.567C97.5719 59.7533 98.1563 59.785 98.7498 59.6579Z" fill="#2D2726"/>
<path d="M34.96 82.3425C29.3288 84.1974 23.6166 85.7113 17.8762 86.8701C11.972 87.9816 9.28644 87.823 8.88222 86.2194C8.478 84.6157 10.6845 82.874 16.2209 80.3032C21.6402 77.8702 27.2009 75.7558 32.852 73.9795C38.4644 72.1268 44.1576 70.6132 49.8795 69.4526C55.7837 68.3412 58.4794 68.5398 58.8755 70.1114C59.2716 71.683 57.115 73.4433 51.5389 76.0356C46.1364 78.461 40.5931 80.5697 34.96 82.3425ZM12.6051 85.0211C15.15 85.0256 22.6639 83.7515 34.3658 79.9851C46.0678 76.2188 52.9917 72.8287 55.1985 71.3122C52.6016 71.2811 45.1377 72.5739 33.4462 76.3368C21.7547 80.0998 14.7559 83.462 12.6051 85.0211Z" fill="#756058"/>
<path d="M104.937 62.739C110.588 60.9619 116.148 58.8467 121.568 56.4129C127.104 53.8414 129.323 52.104 128.918 50.5004C128.514 48.8968 125.826 48.7307 119.922 49.843C114.182 51.0026 108.47 52.5173 102.838 54.3731C97.2045 56.1409 91.6601 58.2451 86.2559 60.6663C80.7092 63.2412 78.5213 65.012 78.9176 66.5835C79.3139 68.155 81.9992 68.3566 87.9158 67.249C93.6349 66.0935 99.326 64.5856 104.937 62.739ZM125.185 51.7025C123.024 53.2219 116.044 56.6138 104.342 60.3818C92.6406 64.1498 85.1854 65.3888 82.5922 65.4176C84.7952 63.8413 91.7311 60.4983 103.422 56.7337C115.114 52.969 122.63 51.6584 125.185 51.7025Z" fill="#756058"/>
<path d="M31.9328 70.9403C19.0378 74.9849 8.9215 79.5908 9.34711 81.2333C9.47459 81.7253 10.5305 81.8917 12.2902 81.7774C15.6181 81.5916 21.3801 80.3763 28.1964 78.4528C29.8927 77.9636 31.6598 77.4437 33.4708 76.8757C46.3762 72.8278 56.4924 68.2219 56.0668 66.5794C55.6412 64.9368 44.8382 66.8924 31.9328 70.9403ZM27.1803 77.4845C18.9488 79.7661 13.5893 80.5805 11.5139 80.5623C16.4895 78.0493 22.3094 76.9274 27.1542 76.4717C27.3984 76.5059 27.6196 76.5854 27.8022 76.7046C27.9847 76.8238 28.1241 76.9797 28.2106 77.1613L27.1803 77.4845Z" fill="white"/>
<path d="M101.923 51.3345C114.828 47.2859 125.631 45.3297 126.057 46.9723C126.184 47.4642 125.367 48.2183 123.817 49.1421C120.9 50.9151 115.422 53.2257 108.709 55.5463C107.033 56.1149 105.272 56.7017 103.461 57.2698C90.5557 61.3184 79.7631 63.2713 79.3375 61.6288C78.9118 59.9863 89.0175 55.3831 101.923 51.3345ZM109.108 54.1341C117.196 51.2966 122.14 48.879 123.894 47.6593C118.462 48.411 112.979 50.8346 108.634 53.2616C108.445 53.4324 108.297 53.6281 108.2 53.8347C108.104 54.0413 108.062 54.2539 108.078 54.4573L109.108 54.1341Z" fill="white"/>
<path d="M57.5345 65.4961C56.7555 64.2945 54.0544 64.1999 48.6609 65.2036C42.9213 66.3361 37.2118 67.8326 31.5863 69.6791C25.9564 71.4341 20.4188 73.5342 15.0256 75.9596C10.334 78.1282 8.05531 79.7449 7.71255 81.1557C7.64595 81.4126 7.64512 81.6677 7.71013 81.9039C8.01726 83.1157 9.63592 83.5301 12.9605 83.1879C14.2131 83.0693 15.47 82.8963 16.7262 82.6695L16.9247 82.606C20.547 81.8987 24.1571 81.0232 27.7367 79.9838C29.6883 79.4388 31.7028 78.8298 33.7508 78.1749C35.7988 77.5199 37.8259 76.8717 39.7321 76.1478C43.3352 74.9015 46.8848 73.4875 50.3615 71.9135C55.8999 69.3423 58.081 67.5633 57.677 65.9692C57.6485 65.8053 57.6008 65.6469 57.5345 65.4961ZM39.1554 73.7385C37.3204 74.3869 35.3245 75.0691 33.172 75.7574C31.4166 76.3188 29.7656 76.8467 28.2027 77.2762L27.1578 77.6103C18.8936 79.9453 13.5132 80.7779 11.4298 80.7583C13.5852 79.1899 20.5561 75.8528 32.2381 72.1171C43.92 68.3814 51.4 67.0973 53.9886 67.1048C52.2268 68.354 47.2627 70.8294 39.1554 73.7385Z" fill="#614F49"/>
<path d="M77.6487 61.8397C77.7369 60.3607 79.999 58.6786 85.0125 56.3536C90.4189 53.9213 95.9704 51.816 101.615 50.0575C107.24 48.2103 112.95 46.713 118.689 45.5797C123.694 44.6468 126.368 44.6793 127.342 45.669C127.519 45.848 127.64 46.0643 127.695 46.3035C128.002 47.5153 126.821 48.8253 123.834 50.5018C122.71 51.1287 121.557 51.7119 120.38 52.2487L120.202 52.3496C116.795 53.8907 113.319 55.2816 109.793 56.5152C107.878 57.2068 105.88 57.8811 103.822 58.5397C101.763 59.1982 99.7571 59.84 97.7973 60.3527C94.1467 61.4269 90.4628 62.3265 86.7659 63.0466C80.8523 64.1384 78.1641 63.9169 77.7599 62.3228C77.6978 62.1701 77.6604 62.0078 77.6487 61.8397ZM97.1367 57.9702C99.0006 57.4355 101.017 56.8343 103.159 56.149C104.915 55.5874 106.565 55.0593 108.106 54.4961L109.151 54.1618C117.27 51.2564 122.234 48.7803 123.996 47.5308C121.428 47.473 113.938 48.7615 102.246 52.5021C90.5535 56.2428 83.6245 59.5674 81.4172 61.1088C83.5006 61.1281 88.881 60.2949 97.1367 57.9702Z" fill="#614F49"/>
<path d="M57.9951 66.8296L58.8327 70.1157C43.2982 79.7327 26.7495 85.238 8.89805 86.03L8.06048 82.7438C7.99674 82.5139 7.99874 82.2652 8.06634 82.0142C12.4927 86.1001 55.5958 72.1576 57.8235 66.4219C57.8963 66.5511 57.9537 66.6875 57.9951 66.8296Z" fill="#756058"/>
<path d="M78.0505 63.1408L78.8884 66.4268C96.6229 65.4383 113.291 60.3549 128.833 50.502L127.995 47.2159C127.94 46.983 127.821 46.7729 127.646 46.5995C125.811 52.6811 82.6121 66.2498 78.0145 62.6899C78.0048 62.8444 78.0168 62.9957 78.0505 63.1408Z" fill="#756058"/>
<path d="M38.852 72.2518L39.2875 73.9994C38.0941 75.2139 28.6077 78.3537 27.2519 77.9161L26.8164 76.1685L38.852 72.2518Z" fill="#2D2726"/>
<path d="M96.7949 56.5679L97.2304 58.3155C98.8047 58.6293 108.305 55.5904 109.266 54.3989L108.831 52.6512L96.7949 56.5679Z" fill="#2D2726"/>
<path d="M28.4521 76.8283L27.4104 77.1575C19.1726 79.4644 13.8123 80.3033 11.7382 80.2983C16.723 77.7833 22.545 76.6377 27.3891 76.1567C27.6348 76.1876 27.8574 76.2637 28.0411 76.3798C28.2249 76.4959 28.3652 76.649 28.4521 76.8283Z" fill="#B4D1FA"/>
<path d="M107.959 55.1427L109.001 54.8135C117.097 51.9588 122.05 49.5387 123.81 48.3223C118.377 49.0992 112.886 51.5285 108.531 53.9543C108.339 54.124 108.188 54.3185 108.089 54.524C107.99 54.7294 107.946 54.9407 107.959 55.1427Z" fill="#B4D1FA"/>
<path d="M37.7538 74.8059L38.7955 74.4767C46.8922 71.6218 51.8347 69.2049 53.5942 67.9885C48.1617 68.7654 42.6704 71.1948 38.3264 73.6174C38.1362 73.7882 37.9867 73.9827 37.8879 74.1878C37.7891 74.3928 37.7433 74.6037 37.7538 74.8059Z" fill="#B4D1FA"/>
<path d="M98.6449 57.1674L97.6032 57.4966C89.3653 59.8034 84.0154 60.6388 81.9413 60.6338C86.9262 58.1188 92.7482 56.9733 97.5923 56.4924C97.8367 56.5242 98.0577 56.6011 98.2397 56.7178C98.4216 56.8345 98.56 56.988 98.6449 57.1674Z" fill="#B4D1FA"/>
<path d="M33.4808 75.3458L32.6463 75.6243C32.3858 75.7113 32.156 75.8771 32.0073 76.0855C31.8587 76.2938 31.8034 76.5275 31.8537 76.7352L34.6527 75.801C34.6024 75.5933 34.4507 75.4287 34.2309 75.3434C34.0111 75.258 33.7413 75.2589 33.4808 75.3458Z" fill="#B4D1FA"/>
<path d="M102.82 55.969L103.655 55.6904C103.784 55.6473 103.916 55.6249 104.045 55.6245C104.174 55.6241 104.296 55.6456 104.405 55.6879C104.514 55.7302 104.607 55.7924 104.679 55.8709C104.752 55.9495 104.802 56.0429 104.827 56.1457L102.028 57.0801C102.003 56.9773 102.003 56.8669 102.03 56.7554C102.056 56.6439 102.108 56.5334 102.181 56.4302C102.255 56.3271 102.349 56.2332 102.459 56.1541C102.568 56.0749 102.691 56.012 102.82 55.969Z" fill="#B4D1FA"/>
<path d="M32.5122 70.7942L31.1932 71.2477C28.8233 72.0626 29.6713 73.4566 30.7615 73.7579L33.9786 72.6516C34.7649 71.7051 34.8714 69.9829 32.5122 70.7942Z" fill="#B4D1FA"/>
<path d="M101.363 51.5933L102.682 51.1397C105.041 50.3284 104.934 52.0506 104.127 53.0045L100.909 54.1108C99.8406 53.8022 98.9926 52.4082 101.363 51.5933Z" fill="#B4D1FA"/>
<path d="M38.6924 72.0104C38.5855 71.5946 35.8126 72.0735 32.5093 73.1191C29.2061 74.1647 26.6043 75.353 26.7193 75.8002C26.8343 76.2474 29.5991 75.7371 32.9128 74.6882C36.2265 73.6393 38.7993 72.4262 38.6924 72.0104Z" fill="#756058"/>
<path d="M96.7076 56.1942C96.6007 55.7784 99.1839 54.562 102.487 53.5165C105.791 52.4709 108.555 51.9606 108.67 52.4078C108.785 52.855 106.194 54.04 102.891 55.0855C99.5874 56.1311 96.8145 56.61 96.7076 56.1942Z" fill="#756058"/>
<path opacity="0.1" d="M49.4961 53.6157C49.9233 54.1782 50.4572 54.6767 51.084 55.0984C52.0111 55.6359 57.7001 54.5542 64.3659 52.4587C71.0317 50.3632 76.3836 47.9768 76.9167 46.9453C77.2476 46.2213 77.4628 45.4864 77.557 44.7593C68.8888 50.1762 59.4564 52.8959 49.4961 53.6157Z" fill="#1D1D1B"/>
<path opacity="0.1" d="M60.8119 39.4681C67.0357 37.5504 72.3429 36.407 74.3619 36.446C74.1202 36.2544 73.8806 36.0702 73.6039 35.8733C72.877 35.2911 67.2344 36.3122 60.5314 38.3694C53.8285 40.4266 48.5425 42.7486 48.2212 43.6941C48.0796 43.9983 47.9586 44.3047 47.859 44.6119C49.5224 43.4383 54.5901 41.3931 60.8119 39.4681Z" fill="white"/>
</svg>
