<svg width="124" height="87" viewBox="0 0 124 87" fill="none" xmlns="http://www.w3.org/2000/svg">
<g clip-path="url(#clip0)">
<path d="M75.4219 43.5786C75.4219 43.5786 71.5522 53.5908 71.066 55.2371C70.8026 56.1022 70.3346 56.8917 69.7011 57.5395C69.0676 58.1873 68.287 58.6746 67.4246 58.9608C64.9993 59.7559 62.4187 59.9728 59.891 59.5942C57.3633 59.2155 54.9591 58.2519 52.8723 56.781C52.1637 56.2271 51.5849 55.5264 51.1763 54.7278C50.7677 53.9293 50.5392 53.052 50.5068 52.1574C50.3335 50.4219 49.7487 39.7329 49.7487 39.7329L75.4219 43.5786Z" fill="#1D1D1B"/>
<path d="M61.5907 48.2208C54.4467 47.1506 49.1515 42.9623 49.7635 38.8658C50.3755 34.7693 56.6629 32.3159 63.8069 33.3861C70.9508 34.4562 76.2461 38.6446 75.6341 42.7411C75.0221 46.8376 68.7347 49.2909 61.5907 48.2208Z" fill="#3C3C3B"/>
<path d="M68.3097 59.2745L67.2953 58.4731C67.0306 58.2211 66.839 57.9028 66.7409 57.5519C66.6427 57.201 66.6417 56.8305 66.7378 56.4794C66.9326 55.5049 67.3559 54.5903 67.9735 53.8099C68.5911 53.0296 69.3854 52.4054 70.2921 51.9881C70.611 51.8199 70.9698 51.7402 71.3307 51.7573C71.6917 51.7745 72.0417 51.8878 72.3439 52.0854L73.3583 52.8868L68.3097 59.2745Z" fill="#3C3C3B"/>
<path d="M73.9593 54.8567C74.2301 53.0444 73.0604 52.1242 71.3834 52.7994C70.4776 53.2179 69.684 53.8425 69.0666 54.6226C68.4492 55.4028 68.0253 56.3168 67.8291 57.2907C67.5583 59.103 68.7266 60.0325 70.4037 59.3573C71.3103 58.9374 72.1045 58.3113 72.7222 57.5296C73.3398 56.7478 73.7636 55.8322 73.9593 54.8567Z" fill="#1D1D1B"/>
<path d="M70.1393 60.799L68.5147 59.5146C68.2479 59.2631 68.0536 58.9452 67.9523 58.594C67.8509 58.2429 67.8461 57.8713 67.9384 57.5181C68.1433 56.52 68.5818 55.5844 69.2186 54.7871C69.8553 53.9898 70.6723 53.3532 71.6034 52.9288C71.9313 52.7612 72.2984 52.6834 72.667 52.7033C73.0355 52.7233 73.3923 52.8403 73.7008 53.0424L75.3254 54.3268L70.1393 60.799Z" fill="#3C3C3B"/>
<path d="M75.9014 56.3241C76.1805 54.4558 74.9826 53.5314 73.237 54.2154C72.3052 54.6372 71.4871 55.2715 70.8489 56.067C70.2107 56.8625 69.7705 57.7968 69.5639 58.794C69.2848 60.6623 70.4813 61.5961 72.2363 60.9135C73.1675 60.489 73.9844 59.8524 74.6212 59.0551C75.2579 58.2578 75.6965 57.3222 75.9014 56.3241Z" fill="#9D9D9C"/>
<path d="M69.628 60.0354L67.9946 58.7401C68.0265 58.8386 68.0669 58.9341 68.1154 59.0256L69.7488 60.3209C69.7026 60.2283 69.6622 60.133 69.628 60.0354Z" fill="#1D1D1B"/>
<path d="M69.5325 59.5243L67.8573 58.2514C67.8571 58.3226 67.8625 58.3937 67.8736 58.464L69.5596 59.729L69.5325 59.5243Z" fill="#1D1D1B"/>
<path d="M69.54 59.0862L67.924 57.8031C67.9106 57.8615 67.9017 57.9209 67.8975 57.9806L69.5309 59.2759C69.5292 59.2125 69.5323 59.1491 69.54 59.0862Z" fill="#1D1D1B"/>
<path d="M69.5908 58.6834L67.9842 57.4017L67.9591 57.5699L69.5831 58.8637L69.5929 58.7983C69.5874 58.7603 69.5867 58.7217 69.5908 58.6834Z" fill="#1D1D1B"/>
<path d="M69.6662 58.3122L68.0408 57.0277C68.0284 57.0798 68.0205 57.133 68.0171 57.1865L69.6261 58.5163C69.6401 58.4229 69.6579 58.3683 69.6662 58.3122Z" fill="#1D1D1B"/>
<path d="M69.7742 57.9656L68.0938 56.6633C68.0818 56.7155 68.0738 56.7686 68.07 56.8221L69.6941 58.116L69.7742 57.9656Z" fill="#1D1D1B"/>
<path d="M69.8777 57.5989L68.2443 56.3036C68.2336 56.3529 68.2262 56.4028 68.222 56.4531L69.8512 57.7764C69.8524 57.7163 69.8614 57.6567 69.8777 57.5989Z" fill="#1D1D1B"/>
<path d="M70.0555 57.3108L68.4221 56.0155C68.4137 56.0716 68.4067 56.1183 68.3527 56.158L69.9875 57.4439C70.0061 57.3976 70.0288 57.353 70.0555 57.3108Z" fill="#1D1D1B"/>
<path d="M70.217 57.0002L68.5822 55.7143C68.5712 55.7603 68.5642 55.8072 68.5613 55.8544L70.1397 57.1319L70.217 57.0002Z" fill="#1D1D1B"/>
<path d="M70.3928 56.7214L68.758 55.4355L68.682 55.5578L70.306 56.8517L70.3928 56.7214Z" fill="#1D1D1B"/>
<path d="M70.5823 56.4152L68.9568 55.1307C68.9249 55.1685 68.8964 55.209 68.8715 55.2516L70.4955 56.5455L70.5823 56.4152Z" fill="#1D1D1B"/>
<path d="M70.7873 56.1403L69.1619 54.8558C69.1254 54.8915 69.0935 54.9317 69.0672 54.9753L70.702 56.2613C70.702 56.2613 70.7615 56.1842 70.7873 56.1403Z" fill="#1D1D1B"/>
<path d="M71.0128 55.859L69.3658 54.5903L69.2724 54.7005L70.8964 55.9943L71.0128 55.859Z" fill="#1D1D1B"/>
<path d="M71.2391 55.6253L69.6057 54.33L69.5029 54.4387L71.1175 55.7312L71.2391 55.6253Z" fill="#1D1D1B"/>
<path d="M71.4787 55.3747L69.8439 54.0888L69.7411 54.1975L71.3666 55.482C71.4084 55.4512 71.4461 55.4151 71.4787 55.3747Z" fill="#1D1D1B"/>
<path d="M71.7335 55.1455L70.1151 53.8143L69.9935 53.9202L71.6283 55.2062L71.7335 55.1455Z" fill="#1D1D1B"/>
<path d="M72.008 54.9191L70.3732 53.6332L70.253 53.7298L71.885 55.0344L72.008 54.9191Z" fill="#1D1D1B"/>
<path d="M72.2978 54.7132L70.6643 53.4189L70.5347 53.514L72.1696 54.799L72.2978 54.7132Z" fill="#1D1D1B"/>
<path d="M72.6044 54.5204L70.9709 53.226L70.8333 53.3103L72.4668 54.6047C72.509 54.571 72.5552 54.5427 72.6044 54.5204Z" fill="#1D1D1B"/>
<path d="M72.9292 54.3402L71.3065 53.0379C71.2551 53.0565 71.2062 53.0812 71.1609 53.1116L72.7864 54.3952C72.836 54.3823 72.8839 54.3639 72.9292 54.3402Z" fill="#1D1D1B"/>
<path d="M73.2704 54.1893L71.6463 52.8963L71.5899 52.8879L71.4875 52.9298L73.1342 54.2643L73.2367 54.2224L73.2704 54.1893Z" fill="#1D1D1B"/>
<path d="M73.6904 54.0711L72.0569 52.7768L71.8764 52.8261L73.5099 54.1205L73.6904 54.0711Z" fill="#1D1D1B"/>
<path d="M74.1552 53.9974L72.5217 52.703L72.3064 52.728L73.9399 54.0224C74.0101 54.0038 74.0826 53.9954 74.1552 53.9974Z" fill="#1D1D1B"/>
<path d="M74.763 54.041L73.1375 52.7573C73.0356 52.7325 72.9318 52.717 72.8271 52.7108L74.462 53.9959L74.763 54.041Z" fill="#1D1D1B"/>
<path d="M71.8748 62.1771L70.4562 61.0573C70.1919 60.8041 69.9993 60.4861 69.8981 60.1355C69.7969 59.7849 69.7906 59.4142 69.8799 59.0608C70.0852 58.0617 70.5251 57.1255 71.1635 56.3283C71.802 55.5311 72.6212 54.8954 73.5543 54.4729C73.8798 54.3033 74.2451 54.2234 74.6125 54.2415C74.9799 54.2595 75.3359 54.375 75.6438 54.5757L77.0623 55.6956L71.8748 62.1771Z" fill="#3C3C3B"/>
<path d="M77.6397 57.6918C77.9188 55.8235 76.7209 54.8991 74.9659 55.5817C74.0347 56.0061 73.2177 56.6427 72.581 57.44C71.9443 58.2373 71.5057 59.1729 71.3008 60.171C71.0217 62.0394 72.2195 62.9638 73.9652 62.2797C74.8984 61.8572 75.7175 61.2215 76.356 60.4243C76.9945 59.6271 77.4343 58.6909 77.6397 57.6918Z" fill="#1D1D1B"/>
<path d="M73.1458 63.1797L72.1047 62.3647C71.8403 62.1115 71.6478 61.7935 71.5465 61.4429C71.4453 61.0923 71.439 60.7216 71.5283 60.3682C71.7337 59.3692 72.1735 58.433 72.812 57.6357C73.4505 56.8385 74.2696 56.2028 75.2027 55.7803C75.5255 55.6041 75.8902 55.5173 76.2586 55.5288C76.6271 55.5403 76.9859 55.6498 77.2978 55.8458L78.3376 56.6701L73.1458 63.1797Z" fill="#3C3C3B"/>
<path d="M78.9092 58.7025C79.1883 56.8342 77.9905 55.9098 76.2354 56.5924C75.3052 57.0155 74.4888 57.6506 73.8523 58.4462C73.2159 59.2419 72.7772 60.1759 72.5718 61.1724C72.2926 63.0408 73.4891 63.9745 75.2348 63.2905C76.1679 62.868 76.987 62.2323 77.6255 61.435C78.264 60.6378 78.7038 59.7016 78.9092 58.7025Z" fill="#1D1D1B"/>
<path d="M72.6367 62.415L71.5963 61.5912C71.6274 61.688 71.6646 61.7829 71.7077 61.8751L72.7495 62.6895C72.7037 62.6015 72.6659 62.5097 72.6367 62.415Z" fill="#1D1D1B"/>
<path d="M72.5407 61.8944L71.499 61.0799L71.5247 61.2937L72.5665 62.1081C72.5475 62.0385 72.5388 61.9665 72.5407 61.8944Z" fill="#1D1D1B"/>
<path d="M72.5391 61.4644L71.4988 60.6406C71.4941 60.7034 71.4848 60.7658 71.4709 60.8272L72.5126 61.6417C72.5168 61.582 72.5257 61.5227 72.5391 61.4644Z" fill="#1D1D1B"/>
<path d="M72.5893 61.061L71.5476 60.2465L71.5225 60.4145L72.5628 61.2384L72.5893 61.061Z" fill="#1D1D1B"/>
<path d="M72.6719 60.6919L71.6316 59.8681C71.6232 59.9241 71.6148 59.9801 71.6065 60.0361L72.6374 60.8585C72.6458 60.8025 72.6542 60.7465 72.6719 60.6919Z" fill="#1D1D1B"/>
<path d="M72.7833 60.3453L71.7429 59.5214L71.7192 59.6801L72.7609 60.4946L72.7833 60.3453Z" fill="#1D1D1B"/>
<path d="M72.9102 60.0108L71.8698 59.187C71.8667 59.2373 71.8592 59.2872 71.8475 59.3363L72.8879 60.1601C72.868 60.0999 72.8938 60.056 72.9102 60.0108Z" fill="#1D1D1B"/>
<path d="M73.0528 59.689L72.0218 58.8666C72.009 58.9154 72.0016 58.9655 71.9995 59.0159L73.0319 59.829C73.0106 59.7781 73.027 59.7329 73.0528 59.689Z" fill="#1D1D1B"/>
<path d="M73.2149 59.3789L72.1839 58.5565L72.1066 58.6881L73.147 59.5119C73.1727 59.468 73.1891 59.4228 73.2149 59.3789Z" fill="#1D1D1B"/>
<path d="M73.3946 59.0806L72.3636 58.2582C72.3311 58.2991 72.3021 58.3426 72.2769 58.3883L73.3172 59.2122L73.3946 59.0806Z" fill="#1D1D1B"/>
<path d="M73.543 58.7881L72.5027 57.9643L72.4159 58.0944L73.5235 58.9188L73.543 58.7881Z" fill="#1D1D1B"/>
<path d="M73.795 58.52L72.7546 57.6962C72.7476 57.7429 72.7407 57.7896 72.6599 57.8156L73.7002 58.6395L73.795 58.52Z" fill="#1D1D1B"/>
<path d="M74.0137 58.2183L72.9828 57.3959L72.8786 57.5139L73.9204 58.3284L74.0137 58.2183Z" fill="#1D1D1B"/>
<path d="M74.2364 58.0035L73.196 57.1796L73.0933 57.2883L74.1336 58.1121L74.2364 58.0035Z" fill="#1D1D1B"/>
<path d="M74.4766 57.753L73.4457 56.9306C73.4103 56.9684 73.3729 57.0042 73.3335 57.0378L74.3738 57.8616L74.4766 57.753Z" fill="#1D1D1B"/>
<path d="M74.6934 57.5181L73.6531 56.6943L73.5423 56.7922L74.5732 57.6146L74.6934 57.5181Z" fill="#1D1D1B"/>
<path d="M75.0059 57.2974L73.975 56.475L73.8548 56.5715L74.8857 57.3939L75.0059 57.2974Z" fill="#1D1D1B"/>
<path d="M75.2969 57.0913L74.266 56.2689L74.1364 56.364L75.1687 57.1771L75.2969 57.0913Z" fill="#1D1D1B"/>
<path d="M75.6036 56.899L74.5632 56.0751L74.435 56.1609L75.466 56.9833L75.6036 56.899Z" fill="#1D1D1B"/>
<path d="M75.9376 56.7203L74.8972 55.8964L74.7502 55.9794L75.7637 56.7896L75.9376 56.7203Z" fill="#1D1D1B"/>
<path d="M76.2964 56.5639L75.2546 55.7495L75.2076 55.7424L75.0958 55.7829L76.1361 56.6067L76.2399 56.5555L76.2964 56.5639Z" fill="#1D1D1B"/>
<path d="M76.6906 56.4416L75.653 55.5991L75.482 55.6498L76.5144 56.4629L76.6906 56.4416Z" fill="#1D1D1B"/>
<path d="M77.1538 56.3677L76.112 55.5532C76.0425 55.5529 75.9733 55.5618 75.9062 55.5796L76.9385 56.3927L77.1538 56.3677Z" fill="#1D1D1B"/>
<path d="M77.742 56.4178L76.7003 55.6033C76.6026 55.5742 76.5013 55.559 76.3993 55.5583L77.4397 56.3821L77.742 56.4178Z" fill="#1D1D1B"/>
<path d="M74.4474 64.454L73.4598 63.6662C73.1705 63.4065 72.9575 63.0737 72.8436 62.7033C72.7296 62.333 72.719 61.939 72.8128 61.5636C73.0364 60.5143 73.508 59.5334 74.1887 58.7021C74.8694 57.8707 75.7396 57.2127 76.7276 56.7824C77.0689 56.6078 77.4509 56.5266 77.8346 56.5471C78.2183 56.5677 78.5898 56.6893 78.911 56.8994L79.9 57.6779L74.4474 64.454Z" fill="#3C3C3B"/>
<path d="M80.4731 59.7678C80.762 57.834 79.5067 56.8437 77.6803 57.5539C76.7072 57.9978 75.853 58.6626 75.1862 59.4949C74.5194 60.3272 74.0585 61.3038 73.8407 62.3463C73.5519 64.28 74.8071 65.2703 76.6336 64.5602C77.6075 64.1175 78.4625 63.4531 79.1295 62.6206C79.7965 61.7881 80.2567 60.8108 80.4731 59.7678Z" fill="#1D1D1B"/>
<path d="M77.6641 57.9156C76.7918 58.3059 76.0242 58.8943 75.423 59.6336C74.8218 60.3729 74.4038 61.2425 74.2026 62.1725L74.1942 62.2285C73.9416 63.9194 75.0834 64.7685 76.6957 64.1409C77.5625 63.7468 78.3238 63.1558 78.9185 62.4155C79.5131 61.6753 79.9245 60.8063 80.1197 59.8784C80.3587 58.2142 79.2736 57.3067 77.6641 57.9156Z" fill="#575756"/>
<path d="M77.6635 57.9156C76.7911 58.3059 76.0235 58.8943 75.4224 59.6336C74.8212 60.3729 74.4031 61.2425 74.2019 62.1725L74.1935 62.2286C74.113 63.6682 75.1239 64.364 76.5531 63.8045C77.3668 63.4341 78.081 62.8781 78.6375 62.1816C79.1941 61.485 79.5775 60.6676 79.7566 59.7955C79.9771 58.3195 79.0623 57.4948 77.6635 57.9156Z" fill="#1D1D1B"/>
<path d="M78.5054 58.6434C78.1964 58.5283 77.8567 58.5248 77.5458 58.6333C76.8767 58.9389 76.2887 59.3951 75.8281 59.9659C75.3675 60.5368 75.047 61.2066 74.892 61.9224C74.8442 62.2683 74.9249 62.62 75.119 62.9115C75.3147 63.123 75.5772 63.2617 75.8629 63.3045C76.1485 63.3473 76.44 63.2916 76.6889 63.1467C77.3047 62.8628 77.8448 62.4394 78.266 61.9105C78.6871 61.3815 78.9777 60.7616 79.1143 60.1003C79.2245 59.3623 78.9761 58.838 78.5054 58.6434Z" fill="#3C3C3B"/>
<path d="M78.5039 58.6436C78.1948 58.5286 77.8552 58.525 77.5443 58.6336C76.8752 58.9392 76.2871 59.3954 75.8265 59.9662C75.3659 60.5371 75.0455 61.2069 74.8904 61.9227C74.8427 62.2686 74.9234 62.6202 75.1175 62.9118C75.503 63.049 75.9269 63.0302 76.2979 62.8594C76.9195 62.5754 77.4653 62.1508 77.8918 61.6193C78.3183 61.0879 78.6136 60.4644 78.7542 59.7986C78.7942 59.5995 78.7927 59.3942 78.7496 59.1955C78.7065 58.9969 78.6229 58.809 78.5039 58.6436Z" fill="black"/>
<path d="M77.8796 59.868C77.8223 60.251 77.9296 60.5631 78.111 60.5712C78.2925 60.5793 78.473 60.272 78.5208 59.8876C78.5687 59.5032 78.4709 59.1925 78.2988 59.1858C78.1267 59.1791 77.9368 59.485 77.8796 59.868Z" fill="white"/>
<path d="M77.7673 61.0062C77.6982 61.1483 77.7255 61.2858 77.7228 61.3044C77.72 61.3231 77.896 61.2351 77.9731 61.1037C78.0502 60.9723 78.0149 60.8241 78.0177 60.8054C78.0205 60.7868 77.8444 60.8748 77.7673 61.0062Z" fill="white"/>
<path d="M52.7218 27.8857C46.6995 23.1633 47.6122 17.0538 54.7551 14.2748C61.898 11.4958 72.4898 13.1015 78.4838 17.8197C84.4778 22.5379 83.5919 28.6609 76.4504 31.4306C69.309 34.2003 58.7116 32.6319 52.7218 27.8857ZM77.5098 18.2277C71.9749 13.8457 62.1324 12.3714 55.5687 14.941C49.0049 17.5107 48.1177 23.1274 53.6958 27.4777C59.2738 31.8279 69.0651 33.3233 75.6369 30.7643C82.2087 28.2054 83.0381 22.5896 77.5126 18.209L77.5098 18.2277Z" fill="#878787"/>
<path d="M49.5174 15.6775L50.7871 15.8677L50.0907 20.5293L48.821 20.3391L49.5174 15.6775Z" fill="#878787"/>
<path d="M81.6004 22.871L78.3842 18.2156L72.3967 14.9978L66.9538 13.6668L59.4254 13.4941L54.7586 14.7529L51.5881 16.6753L49.6797 20.0569C49.606 17.3334 49.7224 14.7531 51.1511 13.0378C53.6797 10.7806 56.3589 8.73689 60.4337 8.80289C64.4968 8.50229 68.5829 8.91075 72.5075 10.0098C75.875 11.2354 78.8752 13.2921 81.2257 15.9861C82.5239 17.9761 82.5552 20.3398 81.6004 22.871Z" fill="#878787"/>
<path d="M81.9661 22.1622L81.5522 26.5413C81.1806 27.8705 79.9808 29.0183 78.4091 30.0818C75.2768 32.134 70.932 32.7821 65.6741 32.2715C60.9197 31.9399 56.3678 30.2144 52.5942 27.3132C50.738 24.8767 48.7395 22.4284 49.4775 20.4473L50.0358 16.7106C51.6762 23.1643 57.7188 26.142 65.4659 27.6177C73.8079 28.4566 79.763 27.066 81.9661 22.1622Z" fill="#878787"/>
<path d="M78.4823 17.8198C84.5045 22.5423 83.5904 28.6611 76.4489 31.4308C69.3075 34.2004 58.7157 32.5947 52.7217 27.8765C46.7276 23.1583 47.6121 17.0446 54.755 14.2656C61.8979 11.4866 72.4883 13.1016 78.4823 17.8198ZM53.6943 27.4778C59.2212 31.8491 69.0636 33.3234 75.6354 30.7645C82.2072 28.2056 83.0515 22.5538 77.5167 18.1718C71.9818 13.7898 62.1393 12.3155 55.5755 14.8851C49.0117 17.4548 48.1162 23.1276 53.6943 27.4778Z" fill="#878787"/>
<path d="M81.8085 20.5149L83.0781 20.7051L82.3817 25.3667L81.1121 25.1765L81.8085 20.5149Z" fill="#878787"/>
<path d="M79.1811 13.1492C85.2034 17.8716 84.2893 23.9904 77.1478 26.7601C70.0063 29.5298 59.4145 27.9241 53.4205 23.2059C47.4265 18.4876 48.3434 12.3501 55.4539 9.59492C62.5644 6.83972 73.1871 8.43097 79.1811 13.1492ZM54.3931 22.8072C59.9186 27.1877 69.7611 28.6621 76.3343 26.0938C82.9074 23.5256 83.7504 17.8832 78.2141 13.5105C72.6778 9.13785 62.8367 7.65414 56.273 10.2238C49.7092 12.7935 48.8137 18.4662 54.3931 22.8072Z" fill="#1D1D1B"/>
<g opacity="0.75">
<path opacity="0.75" d="M52.0538 14.4627C53.1571 13.3087 54.5163 12.4266 56.0236 11.8865C56.3401 11.762 56.6741 11.6497 57.0348 11.5509C60.4045 10.6316 63.932 10.4242 67.3903 10.9423C70.8487 11.4603 74.1612 12.6923 77.1147 14.5588C77.4106 14.7655 77.7065 14.9722 77.9808 15.1947C80.1554 16.9149 81.3397 18.8305 81.5822 20.6815C81.9549 23.5262 80.0868 26.188 76.1009 27.778C73.1631 28.8259 70.0309 29.2299 66.9185 28.9622C64.6048 28.8064 62.3206 28.3518 60.1236 27.6101C57.9716 26.9169 55.9544 25.862 54.1598 24.4914C50.0758 21.2054 49.4684 17.2941 52.0538 14.4627Z" fill="#EDEDED"/>
<path opacity="0.75" d="M63.0754 20.9843C63.8622 21.5401 64.7692 21.9043 65.723 22.0471C66.6768 22.19 67.6505 22.1076 68.5653 21.8066C70.2086 21.1646 70.4208 19.7446 69.037 18.6491C68.2503 18.0933 67.3432 17.7291 66.3894 17.5863C65.4356 17.4434 64.4619 17.5258 63.5471 17.8268C61.9038 18.4688 61.6917 19.8888 63.0754 20.9843Z" fill="#575756"/>
<g opacity="0.75">
<path opacity="0.75" d="M70.2259 28.6454C70.3899 28.7607 70.5897 28.8143 70.7895 28.7967C72.5457 28.6592 74.2729 28.2748 75.9194 27.655C79.1144 26.4049 81.038 24.4009 81.3469 22.0117C81.372 21.8435 81.1565 21.6775 80.8651 21.6339C80.5737 21.5902 80.3272 21.6966 80.3034 21.8554C80.0169 24.0951 78.2298 25.9572 75.2489 27.1248C73.7014 27.7012 72.0789 28.0562 70.43 28.1794C70.157 28.2053 69.9989 28.3631 70.0894 28.5295C70.125 28.5784 70.1717 28.6181 70.2259 28.6454Z" fill="#C6C6C6"/>
<path opacity="0.75" d="M54.2116 24.3462C57.9145 27.0301 62.3193 28.5891 66.891 28.8338C67.173 28.876 67.3969 28.7281 67.383 28.5637C67.3692 28.3992 67.1241 28.2383 66.8379 28.2241C61.2151 27.8403 55.7204 25.4413 53.2151 22.2677C53.1245 22.1787 53.0134 22.113 52.8916 22.0764C52.7697 22.0399 52.6407 22.0335 52.516 22.0579C52.259 22.1053 52.1559 22.2809 52.2854 22.4436C52.852 23.149 53.4984 23.7874 54.2116 24.3462Z" fill="#C6C6C6"/>
<path opacity="0.75" d="M50.8929 19.5501C51.0282 19.6496 51.1916 19.7042 51.3597 19.706C51.6417 19.7482 51.8483 19.5881 51.817 19.4115C50.9516 15.2324 55.4558 11.7811 62.2654 11.4259C62.5464 11.4107 62.7125 11.2636 62.6329 11.0893C62.5615 10.9894 62.4641 10.9107 62.3511 10.8618C62.2381 10.8129 62.1139 10.7956 61.9919 10.8119C54.7063 11.2009 49.8581 14.8966 50.7714 19.3982C50.7946 19.4603 50.8372 19.5135 50.8929 19.5501Z" fill="#C6C6C6"/>
<path opacity="0.75" d="M66.8228 11.4693C66.9254 11.5485 67.047 11.5997 67.1755 11.6176C70.7257 12.0648 74.1023 13.4126 76.9804 15.5314C78.41 16.5756 79.4959 18.0182 80.0999 19.6757C80.1642 19.7788 80.2557 19.8625 80.3644 19.9175C80.4732 19.9725 80.5949 19.9968 80.7165 19.9877C80.9961 19.9819 81.181 19.8377 81.1295 19.6676C80.4812 17.8876 79.3137 16.3393 77.7764 15.2208C74.6835 12.9354 71.0486 11.4859 67.2272 11.0141C66.9358 10.9705 66.6907 11.0675 66.6655 11.2356C66.6632 11.2861 66.6772 11.3361 66.7055 11.3781C66.7338 11.4202 66.7749 11.4522 66.8228 11.4693Z" fill="#C6C6C6"/>
<path opacity="0.75" d="M57.0909 23.4113C57.9043 24.0468 58.7929 24.5809 59.7367 25.0015C59.8494 25.0579 59.9743 25.086 60.1004 25.0833C60.2265 25.0805 60.35 25.047 60.4598 24.9856C60.6138 24.8559 60.5087 24.6587 60.3036 24.5516C57.0259 23.01 55.2376 20.6982 55.4629 18.3538C55.6882 16.0094 57.9962 14.2635 61.4981 13.6611C61.7631 13.6244 61.8756 13.4502 61.7461 13.2876C61.66 13.1953 61.5513 13.1267 61.4306 13.0886C61.31 13.0504 61.1815 13.044 61.0578 13.0699C57.1913 13.7323 54.713 15.6532 54.4166 18.2162C54.1981 20.065 55.1732 21.9015 57.0909 23.4113Z" fill="#C6C6C6"/>
<path opacity="0.75" d="M65.5849 13.3946C65.6996 13.4778 65.8351 13.5278 65.9765 13.5393C68.7829 13.8876 71.4758 14.8589 73.8559 16.3814C75.9651 17.767 76.9444 19.5756 76.7942 21.2245C76.769 21.3926 76.9939 21.56 77.2867 21.5943C77.5795 21.6286 77.8153 21.5302 77.831 21.3607C78.005 19.553 76.8555 17.6616 74.6185 16.0372C72.0459 14.2978 69.0744 13.2318 65.9798 12.9381C65.6884 12.8944 65.4499 13.0115 65.453 13.1839C65.456 13.227 65.4696 13.2688 65.4926 13.3055C65.5156 13.3423 65.5472 13.3729 65.5849 13.3946Z" fill="#C6C6C6"/>
<path opacity="0.75" d="M63.9055 26.3039C63.9979 26.3744 64.1068 26.4203 64.2219 26.4373C69.175 27.3798 74.2449 26.3819 76.5388 24.0227C76.6645 23.8887 76.5876 23.6957 76.3154 23.5881C76.2011 23.5367 76.0755 23.5157 75.9508 23.5271C75.8261 23.5386 75.7066 23.5821 75.604 23.6534C73.5142 25.8045 68.9005 26.7083 64.3865 25.8507C64.095 25.807 63.8339 25.8825 63.7899 26.0479C63.746 26.2132 63.8118 26.2231 63.9055 26.3039Z" fill="#C6C6C6"/>
<path opacity="0.75" d="M66.3964 24.5474C66.5265 24.6428 66.6829 24.6962 66.8444 24.7005C69.7107 24.8147 72.1719 24.0373 73.4418 22.6134C74.7118 21.1895 74.5347 19.4152 72.9506 17.8599C72.8524 17.779 72.7365 17.7219 72.6123 17.6934C72.4881 17.6648 72.3589 17.6655 72.2351 17.6954C71.9942 17.7644 71.9286 17.9456 72.0783 18.1017C73.4606 19.4644 73.6133 21.0154 72.5043 22.2628C71.3953 23.5102 69.237 24.1898 66.7444 24.0838C66.4623 24.0415 66.2464 24.2002 66.2697 24.3661C66.2883 24.4398 66.3334 24.5043 66.3964 24.5474Z" fill="#C6C6C6"/>
<path opacity="0.75" d="M59.6795 22.2904C60.3027 22.7714 60.9808 23.1776 61.6997 23.5004C61.8123 23.5561 61.9374 23.582 62.0629 23.5757C62.1885 23.5694 62.3101 23.5311 62.4163 23.4644C62.5688 23.344 62.4651 23.1375 62.2413 23.0275C59.6765 21.8602 58.4177 20.0575 59.0811 18.4473C59.1048 18.2885 58.9674 18.1151 58.6787 18.0528C58.3901 17.9904 58.1195 18.0645 58.0582 18.2177C57.4889 19.5841 58.1326 21.0654 59.6795 22.2904Z" fill="#C6C6C6"/>
<path opacity="0.75" d="M60.4619 16.2188C60.5694 16.2992 60.6954 16.3518 60.8283 16.3717C60.9613 16.3916 61.0971 16.3783 61.2234 16.3328C62.5198 15.8096 63.9094 15.5508 65.3096 15.5719C66.7098 15.5929 68.0921 15.8934 69.3745 16.4555C69.4875 16.5089 69.6126 16.5318 69.7372 16.522C69.8618 16.5122 69.9816 16.4699 70.0844 16.3995C70.2196 16.2669 70.1333 16.0725 69.861 15.9649C66.687 14.6298 62.9993 14.5454 60.4843 15.8114C60.297 15.9075 60.2949 16.0505 60.4619 16.2188Z" fill="#C6C6C6"/>
<path opacity="0.75" d="M62.3965 21.2264C63.3546 21.9066 64.4605 22.352 65.6239 22.5263C66.7872 22.7006 67.9749 22.5987 69.0898 22.229C71.1276 21.455 71.3886 19.7081 69.662 18.3989C68.7039 17.7187 67.598 17.2732 66.4347 17.099C65.2713 16.9247 64.0836 17.0266 62.9687 17.3963C60.9685 18.1759 60.7061 19.9321 62.3965 21.2264ZM68.8565 18.708C70.172 19.7456 69.9711 21.0908 68.41 21.6974C67.541 21.9864 66.6151 22.0663 65.7081 21.9304C64.8011 21.7946 63.939 21.4468 63.1926 20.9158C61.8771 19.8783 62.0781 18.5331 63.6392 17.9265C64.5088 17.642 65.4339 17.5645 66.34 17.7003C67.2462 17.836 68.1081 18.1812 68.8565 18.708Z" fill="#C6C6C6"/>
</g>
</g>
<path d="M100.152 45.6306L99.3917 50.7218C99.3862 50.9277 99.4346 51.1317 99.532 51.3137C99.6295 51.4957 99.7728 51.6495 99.9478 51.7602C100.425 52.1 100.977 52.3224 101.557 52.4093C102.137 52.4962 102.729 52.4451 103.285 52.2601C103.485 52.2056 103.667 52.1004 103.813 51.955C103.96 51.8095 104.065 51.6286 104.12 51.4301L104.881 46.3389L100.152 45.6306Z" fill="#3C3C3B"/>
<path d="M102.31 47.3385C101.007 47.1433 100.041 46.3786 100.153 45.6306C100.264 44.8825 101.411 44.4342 102.715 44.6295C104.018 44.8247 104.984 45.5894 104.872 46.3375C104.76 47.0856 103.613 47.5338 102.31 47.3385Z" fill="#1D1D1B"/>
<path d="M20.9414 33.7653L20.1808 38.8566C20.1726 39.0617 20.2188 39.2654 20.3148 39.4474C20.4107 39.6294 20.5531 39.7833 20.7275 39.8935C21.2065 40.2336 21.7595 40.4564 22.3412 40.5435C22.9228 40.6306 23.5167 40.5797 24.0741 40.3949C24.2738 40.3403 24.4558 40.2352 24.6022 40.0897C24.7486 39.9442 24.8544 39.7634 24.9093 39.5649L25.6699 34.4736L20.9414 33.7653Z" fill="#3C3C3B"/>
<path d="M23.099 35.4733C21.7958 35.2781 20.83 34.5134 20.9418 33.7653C21.0535 33.0172 22.2005 32.569 23.5037 32.7642C24.8069 32.9594 25.7727 33.7241 25.6609 34.4722C25.5492 35.2203 24.4021 35.6685 23.099 35.4733Z" fill="#1D1D1B"/>
<path d="M63.9703 17.632L63.2097 22.7232C63.2006 22.9285 63.2464 23.1326 63.3424 23.3148C63.4385 23.4969 63.5813 23.6506 63.7564 23.7602C64.2355 24.1003 64.7884 24.323 65.3701 24.4101C65.9518 24.4973 66.5456 24.4463 67.1031 24.2615C67.3025 24.208 67.484 24.1029 67.6291 23.9569C67.7742 23.8108 67.8776 23.6291 67.9289 23.4301L68.6895 18.3389L63.9703 17.632Z" fill="#3C3C3B"/>
<path d="M68.1464 17.2739C68.3219 17.3776 68.4625 17.5308 68.5501 17.7141C68.6378 17.8973 68.6686 18.1022 68.6387 18.3027C68.6087 18.5032 68.5194 18.6901 68.382 18.8396C68.2446 18.9892 68.0654 19.0945 67.8673 19.1423C67.3099 19.3271 66.716 19.378 66.1344 19.2909C65.5527 19.2038 64.9997 18.981 64.5207 18.6409C64.3452 18.5372 64.2047 18.384 64.117 18.2008C64.0293 18.0175 63.9985 17.8126 64.0285 17.6121C64.0584 17.4117 64.1478 17.2247 64.2852 17.0752C64.4225 16.9257 64.6017 16.8203 64.7998 16.7726C65.3573 16.5877 65.9511 16.5368 66.5328 16.6239C67.1144 16.7111 67.6674 16.9338 68.1464 17.2739Z" fill="#1D1D1B"/>
<path d="M57.2008 62.9401L56.4444 68.0033C56.4382 68.2081 56.4852 68.4112 56.581 68.5928C56.6767 68.7745 56.818 68.9286 56.9911 69.0403C57.4727 69.3749 58.0255 69.5943 58.6061 69.6813C59.1867 69.7683 59.7794 69.7204 60.3377 69.5416C60.5359 69.4855 60.716 69.3796 60.8607 69.2339C61.0053 69.0883 61.1097 68.9079 61.1635 68.7102L61.9199 63.647L57.2008 62.9401Z" fill="#3C3C3B"/>
<path d="M61.3773 62.582C61.5682 62.6814 61.7234 62.8375 61.8212 63.0285C61.919 63.2194 61.9546 63.4358 61.9229 63.6475C61.8913 63.8592 61.7941 64.0557 61.6448 64.2096C61.4954 64.3636 61.3015 64.4673 61.0898 64.5064C60.5315 64.6853 59.9388 64.7331 59.3582 64.6461C58.7775 64.5592 58.2248 64.3398 57.7432 64.0051C57.5522 63.9057 57.397 63.7496 57.2992 63.5587C57.2014 63.3677 57.1659 63.1513 57.1975 62.9396C57.2291 62.7279 57.3264 62.5315 57.4757 62.3775C57.625 62.2236 57.819 62.1198 58.0306 62.0807C58.589 61.9018 59.1817 61.854 59.7623 61.941C60.3429 62.028 60.8957 62.2474 61.3773 62.582Z" fill="#1D1D1B"/>
<path d="M36.7803 33.9693C36.9622 33.9953 37.1476 33.9737 37.3183 33.9066L54.3244 27.3808C54.582 27.2775 54.7875 27.0767 54.8958 26.8224C55.004 26.5682 55.0062 26.2814 54.9017 26.0251C54.7973 25.7688 54.5948 25.564 54.3388 25.4558C54.0828 25.3476 53.7942 25.3449 53.5367 25.4481L36.5211 31.9725C36.2655 32.0723 36.0599 32.2683 35.9488 32.518C35.8377 32.7677 35.8302 33.051 35.9278 33.3067C35.994 33.4849 36.1089 33.6413 36.2595 33.7584C36.4101 33.8754 36.5904 33.9485 36.7803 33.9693Z" fill="#B2B2B2"/>
<path d="M89.443 41.8582C89.6695 41.8892 89.8998 41.8455 90.0986 41.7339C90.2974 41.6223 90.4538 41.4489 90.5439 41.2403C90.6339 41.0316 90.6526 40.7993 90.5972 40.5788C90.5417 40.3582 90.4151 40.1617 90.2367 40.0192L75.8822 28.7957C75.7769 28.6957 75.6518 28.6186 75.5149 28.5693C75.378 28.5201 75.2324 28.4997 75.0873 28.5096C74.9421 28.5195 74.8007 28.5593 74.6721 28.6267C74.5435 28.694 74.4306 28.7873 74.3404 28.9007C74.2503 29.014 74.185 29.1448 74.1487 29.2848C74.1123 29.4247 74.1058 29.5707 74.1296 29.7135C74.1533 29.8562 74.2067 29.9925 74.2864 30.1137C74.3661 30.2349 74.4703 30.3382 74.5924 30.4172L88.9563 41.6421C89.0967 41.7554 89.2646 41.83 89.443 41.8582Z" fill="#B2B2B2"/>
<path d="M85.6249 44.2566L86.8945 44.4468L86.1981 49.1084L84.9285 48.9182L85.6249 44.2566Z" fill="#878787"/>
<path d="M117.699 51.4392L114.492 46.7851L108.5 43.5379L103.049 42.1961L95.5202 42.0235L90.8614 43.2931L87.6909 45.2154L85.7839 48.5877C85.7089 45.8736 85.836 43.2852 87.2648 41.57C89.7933 39.3127 92.4632 37.2677 96.5474 37.3351C100.607 37.0437 104.689 37.4612 108.608 38.5686C111.974 39.7957 114.974 41.8521 117.326 44.5449C118.623 46.5442 118.659 48.8706 117.699 51.4392Z" fill="#878787"/>
<path d="M118.067 50.7213L117.662 55.1111C117.282 56.4296 116.092 57.5788 114.52 58.6423C111.378 60.6931 107.033 61.3412 101.775 60.8305C97.024 60.4998 92.475 58.7747 88.705 55.8737C86.8366 53.4544 84.8394 50.9968 85.5775 49.0157L86.1357 45.279C87.7748 51.7421 93.8188 54.7104 101.575 56.1875C109.906 57.0344 115.863 55.6344 118.067 50.7213Z" fill="#878787"/>
<path d="M114.581 46.3976C120.603 51.1201 119.689 57.2389 112.546 60.0179C105.403 62.7969 94.8129 61.1819 88.8283 56.4651C82.8436 51.7483 83.7201 45.6238 90.863 42.8448C98.0059 40.0658 108.59 41.6608 114.581 46.3976ZM89.7929 56.0556C95.3249 60.4563 105.167 61.9307 111.73 59.3703C118.292 56.81 119.146 51.1597 113.611 46.7777C108.076 42.3957 98.2417 40.932 91.6699 43.491C85.0981 46.0499 84.2162 51.696 89.7887 56.0836L89.7929 56.0556Z" fill="#878787"/>
<path d="M117.906 49.0925L119.176 49.2827L118.479 53.9443L117.21 53.7541L117.906 49.0925Z" fill="#878787"/>
<path d="M115.277 41.7359C121.299 46.4584 120.385 52.5772 113.243 55.3469C106.102 58.1165 95.5101 56.5108 89.5255 51.794C83.5409 47.0772 84.4174 40.9528 91.5588 38.1831C98.7003 35.4134 109.285 36.999 115.277 41.7359ZM90.4887 51.3939C96.0222 55.7853 105.865 57.2596 112.427 54.6993C118.989 52.139 119.843 46.4886 114.307 42.116C108.771 37.7433 98.9389 36.261 92.3657 38.8293C85.7926 41.3975 84.912 47.0343 90.4859 51.4126L90.4887 51.3939Z" fill="#1D1D1B"/>
<g opacity="0.75">
<path opacity="0.75" d="M88.1615 43.0322C89.2648 41.8781 90.624 40.9961 92.1313 40.456C92.4479 40.3315 92.7818 40.2191 93.1426 40.1204C96.5039 39.1966 100.024 38.9824 103.477 39.4914C106.93 40.0003 110.239 41.2213 113.192 43.0759C113.497 43.284 113.793 43.4907 114.058 43.7118C116.24 45.4427 117.422 47.3771 117.664 49.2281C118.036 52.0821 116.169 54.7345 112.183 56.3246C109.25 57.376 106.12 57.7805 103.01 57.5101C100.696 57.3543 98.4123 56.8998 96.2154 56.158C94.0629 55.4559 92.047 54.3915 90.2557 53.0113C86.1686 49.8108 85.5611 45.8995 88.1615 43.0322Z" fill="#EDEDED"/>
<path opacity="0.75" d="M99.1709 49.5708C99.9593 50.127 100.868 50.4914 101.823 50.6345C102.778 50.7776 103.754 50.6954 104.67 50.3946C106.314 49.7525 106.524 48.3419 105.141 47.2464C104.352 46.6902 103.444 46.3258 102.488 46.1827C101.533 46.0396 100.558 46.1218 99.6412 46.4226C98.0007 47.046 97.7899 48.4566 99.1709 49.5708Z" fill="#575756"/>
<g opacity="0.75">
<path opacity="0.75" d="M106.331 57.2153C106.49 57.3343 106.688 57.388 106.886 57.3651C108.645 57.228 110.375 56.8441 112.025 56.2248C115.218 54.9841 117.144 52.9707 117.452 50.5815C117.477 50.4133 117.253 50.246 116.971 50.2037C116.689 50.1615 116.433 50.2664 116.408 50.4345C116.122 52.6649 114.324 54.535 111.345 55.6932C109.799 56.2738 108.176 56.629 106.526 56.7478C106.253 56.7738 106.104 56.9329 106.195 57.0993C106.226 57.152 106.274 57.1928 106.331 57.2153Z" fill="#C6C6C6"/>
<path opacity="0.75" d="M90.3173 52.9159C94.0196 55.6008 98.4247 57.1599 102.997 57.4035C103.279 57.4457 103.503 57.2978 103.489 57.1334C103.475 56.9689 103.22 56.8067 102.934 56.7924C97.3113 56.4086 91.8152 54.019 89.3207 50.8374C89.2279 50.7487 89.1152 50.6833 88.992 50.6466C88.8687 50.6098 88.7385 50.6029 88.6122 50.6262C88.3538 50.683 88.2521 50.8492 88.3816 51.0119C88.9488 51.7204 89.5986 52.3596 90.3173 52.9159Z" fill="#C6C6C6"/>
<path opacity="0.75" d="M86.9968 48.1288C87.1303 48.2247 87.2911 48.2755 87.4556 48.274C87.7376 48.3162 87.9442 48.1561 87.9115 47.9889C87.0569 43.8018 91.5503 40.3585 98.3693 40.0046C98.6503 39.9894 98.807 39.8409 98.7367 39.6681C98.6634 39.5704 98.5656 39.4934 98.4532 39.4447C98.3408 39.396 98.2176 39.3774 98.0958 39.3906C90.7764 39.8127 85.9456 43.5207 86.8711 48.0049C86.902 48.0559 86.9452 48.0985 86.9968 48.1288Z" fill="#C6C6C6"/>
<path opacity="0.75" d="M102.926 40.0485C103.03 40.1246 103.152 40.1725 103.28 40.1875C106.832 40.6343 110.209 41.9857 113.084 44.1105C114.518 45.1686 115.602 46.6282 116.196 48.3016C116.258 48.4045 116.348 48.4877 116.456 48.5411C116.564 48.5945 116.685 48.616 116.805 48.6029C117.084 48.597 117.277 48.4635 117.226 48.2935C116.58 46.5119 115.412 44.9627 113.873 43.8467C110.784 41.5433 107.149 40.0741 103.322 39.5826C103.04 39.5403 102.784 39.6452 102.761 39.804C102.762 39.8561 102.778 39.9068 102.808 39.9501C102.837 39.9934 102.878 40.0275 102.926 40.0485Z" fill="#C6C6C6"/>
<path opacity="0.75" d="M93.1859 51.9888C94.006 52.6147 94.8934 53.1481 95.8317 53.579C95.9452 53.6351 96.0709 53.6622 96.1974 53.6578C96.3239 53.6534 96.4473 53.6177 96.5563 53.5539C96.7102 53.4241 96.6051 53.2269 96.3907 53.1184C93.1223 51.5782 91.3233 49.2744 91.5485 46.93C91.7738 44.5856 94.0818 42.8397 97.5837 42.2372C97.8501 42.1912 97.9626 42.017 97.8425 41.8558C97.753 41.7653 97.6426 41.6981 97.521 41.6599C97.3993 41.6217 97.2702 41.6137 97.1448 41.6366C93.2784 42.2991 90.8001 44.22 90.5131 46.7844C90.304 48.6346 91.2696 50.4697 93.1859 51.9888Z" fill="#C6C6C6"/>
<path opacity="0.75" d="M101.681 41.9628C101.797 42.0498 101.936 42.1035 102.081 42.1181C104.887 42.4609 107.581 43.4292 109.961 44.9509C112.061 46.3352 113.05 48.1451 112.889 49.8019C112.865 49.9607 113.099 50.1295 113.383 50.1624C113.666 50.1954 113.921 50.0998 113.935 49.9396C114.11 48.1225 112.961 46.2312 110.722 44.6161C108.151 42.8679 105.175 41.7977 102.076 41.5062C101.794 41.4639 101.554 41.5904 101.549 41.752C101.552 41.7951 101.566 41.8369 101.589 41.8736C101.612 41.9104 101.643 41.941 101.681 41.9628Z" fill="#C6C6C6"/>
<path opacity="0.75" d="M100.002 54.8721C100.097 54.9431 100.209 54.9894 100.327 55.0069C105.28 55.9494 110.341 54.9501 112.635 52.5908C112.77 52.4582 112.684 52.2639 112.411 52.1562C112.298 52.1076 112.174 52.0883 112.052 52.1C111.929 52.1116 111.811 52.1539 111.709 52.223C109.62 54.374 105.006 55.2779 100.481 54.4282C100.199 54.3859 99.9285 54.46 99.886 54.616C99.8767 54.6653 99.8828 54.7162 99.9034 54.762C99.9241 54.8077 99.9583 54.8462 100.002 54.8721Z" fill="#C6C6C6"/>
<path opacity="0.75" d="M102.494 53.116C102.625 53.2098 102.781 53.2631 102.942 53.2691C105.807 53.3926 108.278 52.6166 109.548 51.1927C110.818 49.7689 110.633 47.9838 109.03 46.4257C108.925 46.3505 108.804 46.3014 108.676 46.2822C108.549 46.2631 108.418 46.2747 108.296 46.3158C108.055 46.3848 107.99 46.566 108.149 46.7235C109.523 48.0755 109.685 49.6279 108.567 50.8739C107.449 52.1199 105.3 52.8008 102.807 52.6949C102.525 52.6526 102.309 52.8113 102.342 52.9785C102.357 53.0103 102.378 53.0389 102.404 53.0625C102.43 53.0861 102.461 53.1043 102.494 53.116Z" fill="#C6C6C6"/>
<path opacity="0.75" d="M95.7777 50.8585C96.3982 51.3434 97.0768 51.7499 97.7979 52.0684C97.9116 52.1237 98.0372 52.1503 98.1635 52.146C98.2899 52.1416 98.4132 52.1063 98.5225 52.0432C98.667 51.9121 98.5713 51.7163 98.3475 51.6063C95.7733 50.4376 94.5145 48.6349 95.1403 47.0191C95.1654 46.8509 95.0279 46.6775 94.7487 46.6166C94.4695 46.5557 94.1895 46.6283 94.1282 46.7815C93.5964 48.1536 94.2307 49.6335 95.7777 50.8585Z" fill="#C6C6C6"/>
<path opacity="0.75" d="M96.5598 44.7867C96.6682 44.8689 96.7957 44.9227 96.9305 44.9429C97.0652 44.9631 97.2029 44.949 97.3306 44.9021C98.6257 44.3739 100.015 44.11 101.416 44.1263C102.817 44.1426 104.201 44.4386 105.486 44.9968C105.597 45.0521 105.721 45.0761 105.844 45.0659C105.968 45.0558 106.086 45.012 106.186 44.9393C106.322 44.8068 106.235 44.6124 105.971 44.5155C102.773 43.215 99.0982 43.1708 96.5888 44.3994C96.3948 44.4754 96.3871 44.6557 96.5598 44.7867Z" fill="#C6C6C6"/>
<path opacity="0.75" d="M98.4993 49.8049C99.4577 50.4807 100.562 50.9233 101.723 51.0972C102.884 51.2712 104.069 51.1714 105.183 50.8062C107.222 50.0228 107.482 48.2853 105.757 46.9667C104.798 46.291 103.694 45.8483 102.533 45.6744C101.372 45.5005 100.187 45.6002 99.0729 45.9655C97.0633 46.7437 96.8065 48.4626 98.4993 49.8049ZM104.961 47.2772C106.276 48.3148 106.075 49.66 104.513 50.2759C103.643 50.5604 102.718 50.6379 101.812 50.5022C100.906 50.3664 100.044 50.0212 99.2954 49.4944C97.9813 48.4475 98.1823 47.1023 99.7434 46.4957C100.613 46.2112 101.538 46.1337 102.444 46.2695C103.35 46.4052 104.212 46.7504 104.961 47.2772Z" fill="#C6C6C6"/>
</g>
</g>
<path d="M6.43345 32.3938L7.70312 32.584L7.00673 37.2456L5.73705 37.0554L6.43345 32.3938Z" fill="#878787"/>
<path d="M38.5189 39.578L35.3027 34.9225L29.3382 31.6795L23.8967 30.3391L16.3683 30.1665L11.7001 31.4347L8.52958 33.357L6.67898 36.7377C6.6039 34.0236 6.73107 31.4353 8.15986 29.72C10.6884 27.4628 13.3582 25.4177 17.4424 25.4851C21.4769 25.1996 25.5322 25.6132 29.4274 26.7074C32.7939 27.9349 35.7937 29.9912 38.1456 32.6837C39.4518 34.6844 39.4699 37.008 38.5189 39.578Z" fill="#878787"/>
<path d="M38.8855 38.8599L38.4702 43.2483C38.0906 44.5668 36.9001 45.716 35.3284 46.7795C32.1398 48.8233 27.8513 49.4798 22.5935 48.9691C17.8388 48.6387 13.2866 46.9131 9.51355 44.0109C7.6372 41.5809 5.65744 39.1354 6.3767 37.1515L6.93493 33.4148C8.56459 39.8765 14.618 42.8462 22.3651 44.3219C30.7245 45.173 36.6716 43.7716 38.8855 38.8599Z" fill="#878787"/>
<path d="M35.3992 34.5363C41.4215 39.2587 40.5074 45.3776 33.3645 48.1566C26.2216 50.9356 15.6312 49.3205 9.6372 44.6023C3.64317 39.8841 4.52907 33.7611 11.672 30.9821C18.8148 28.2031 29.408 29.7994 35.3992 34.5363ZM10.6112 44.1943C16.1381 48.5655 25.9806 50.0399 32.5524 47.481C39.1241 44.9221 39.9591 39.2689 34.4336 34.8883C28.9081 30.5077 19.0548 29.0413 12.4924 31.6016C5.93005 34.1619 5.07215 39.8403 10.607 44.2223L10.6112 44.1943Z" fill="#878787"/>
<path d="M38.7147 37.2297L39.9844 37.4199L39.288 42.0815L38.0183 41.8913L38.7147 37.2297Z" fill="#878787"/>
<path d="M36.0951 29.8746C42.1173 34.597 41.2032 40.7159 34.0617 43.4855C26.9202 46.2552 16.3285 44.6495 10.3344 39.9313C4.34041 35.2131 5.22631 29.09 12.3678 26.3204C19.5093 23.5507 30.1038 25.1377 36.0951 29.8746ZM11.307 39.5326C16.8325 43.9132 26.675 45.3875 33.2482 42.8193C39.8214 40.251 40.6549 34.6072 35.128 30.2359C29.6012 25.8647 19.7507 24.3796 13.1869 26.9492C6.62311 29.5189 5.76799 35.1786 11.3043 39.5513L11.307 39.5326Z" fill="#1D1D1B"/>
<g opacity="0.75">
<path opacity="0.75" d="M8.97163 31.1696C10.0749 30.0156 11.4341 29.1335 12.9414 28.5934C13.2579 28.4689 13.5919 28.3566 13.9526 28.2578C17.3223 27.3385 20.8498 27.1311 24.3081 27.6492C27.7665 28.1672 31.079 29.3992 34.0324 31.2657C34.3283 31.4724 34.6242 31.6791 34.8985 31.9016C37.0732 33.6218 38.2575 35.5374 38.4999 37.3884C38.8807 40.2438 37.014 42.8963 33.0187 44.4849C30.0854 45.5378 26.9552 45.9424 23.8457 45.6705C21.532 45.5147 19.2478 45.0602 17.0508 44.3184C14.8879 43.6119 12.8631 42.5395 11.0658 41.1487C6.98804 37.9496 6.38059 34.0383 8.97163 31.1696Z" fill="#EDEDED"/>
<path opacity="0.75" d="M19.9888 37.7103C20.7756 38.2661 21.6827 38.6303 22.6365 38.7731C23.5903 38.916 24.564 38.8336 25.4788 38.5326C27.1221 37.8906 27.3329 36.48 25.9492 35.3845C25.1624 34.8286 24.2553 34.4645 23.3015 34.3216C22.3477 34.1787 21.374 34.2611 20.4592 34.5621C18.8186 35.1855 18.6079 36.5961 19.9888 37.7103Z" fill="#575756"/>
<g opacity="0.75">
<path opacity="0.75" d="M27.1419 45.353C27.3036 45.4731 27.5053 45.5273 27.7055 45.5043C29.4617 45.3668 31.1889 44.9824 32.8354 44.3625C36.029 43.1218 37.9541 41.1084 38.2629 38.7192C38.288 38.551 38.0632 38.3836 37.7811 38.3414C37.4991 38.2992 37.2432 38.4041 37.2181 38.5722C36.8859 40.7956 35.135 42.6727 32.165 43.8323C30.6304 44.413 29.02 44.7731 27.3823 44.9019C27.0999 44.9264 26.9512 45.0856 27.0416 45.252C27.0656 45.2938 27.1002 45.3286 27.1419 45.353Z" fill="#C6C6C6"/>
<path opacity="0.75" d="M11.1296 41.0532C14.8324 43.7371 19.2372 45.2961 23.8089 45.5408C24.0909 45.583 24.3149 45.4351 24.301 45.2707C24.2871 45.1062 24.042 44.9454 23.7464 44.9297C18.1331 44.5473 12.6275 42.1563 10.133 38.9747C10.0425 38.8857 9.93138 38.82 9.80952 38.7835C9.68766 38.7469 9.55871 38.7405 9.43394 38.7649C9.17557 38.8217 9.07385 38.9879 9.20332 39.1506C9.76716 39.8586 10.4138 40.4973 11.1296 41.0532Z" fill="#C6C6C6"/>
<path opacity="0.75" d="M7.80729 36.267C7.94415 36.3635 8.10798 36.4148 8.27557 36.4136C8.55758 36.4558 8.76411 36.2957 8.73143 36.1285C7.86745 31.94 12.3622 28.4873 19.1798 28.1428C19.4608 28.1276 19.6269 27.9806 19.5473 27.8063C19.4745 27.7079 19.3769 27.6303 19.2643 27.5816C19.1517 27.5328 19.0282 27.5146 18.9063 27.5288C11.587 27.951 6.75612 31.6589 7.68164 36.1431C7.71257 36.1941 7.75576 36.2367 7.80729 36.267Z" fill="#C6C6C6"/>
<path opacity="0.75" d="M23.7389 28.1858C23.8449 28.258 23.966 28.3055 24.0929 28.3248C27.6443 28.7717 31.0213 30.1231 33.8964 32.2479C35.333 33.3035 36.4176 34.7639 37.009 36.439C37.0707 36.5419 37.1609 36.625 37.2689 36.6785C37.3768 36.7319 37.4978 36.7533 37.6175 36.7402C37.9065 36.7358 38.09 36.6009 38.0386 36.4308C37.3933 34.6492 36.2252 33.1001 34.6854 31.9841C31.6035 29.7046 27.9831 28.2543 24.1753 27.7737C23.8838 27.73 23.6279 27.8349 23.6136 27.9952C23.6189 28.0342 23.6329 28.0715 23.6546 28.1045C23.6762 28.1375 23.705 28.1653 23.7389 28.1858Z" fill="#C6C6C6"/>
<path opacity="0.75" d="M13.9965 40.1266C14.8148 40.7531 15.7031 41.2835 16.6436 41.7074C16.7554 41.7673 16.8808 41.7973 17.0076 41.7945C17.1343 41.7917 17.2581 41.7563 17.3668 41.6916C17.5208 41.5618 17.4157 41.3646 17.2012 41.2561C13.9329 39.7159 12.1338 37.4121 12.3591 35.0677C12.5844 32.7233 14.8924 30.9774 18.3943 30.375C18.6512 30.3275 18.7638 30.1533 18.6437 29.9921C18.556 29.902 18.4471 29.8349 18.327 29.7969C18.2068 29.7589 18.0792 29.7512 17.9554 29.7744C14.0889 30.4368 11.6012 32.3563 11.3142 34.9207C11.1145 36.7723 12.0896 38.6089 13.9965 40.1266Z" fill="#C6C6C6"/>
<path opacity="0.75" d="M22.4914 30.1005C22.608 30.1875 22.7462 30.2412 22.8911 30.2559C25.698 30.5976 28.3922 31.5661 30.7718 33.0887C32.8811 34.4743 33.8603 36.2828 33.7087 37.9411C33.685 38.0999 33.9099 38.2673 34.2027 38.3016C34.4955 38.3359 34.7313 38.2375 34.7456 38.0773C34.9209 36.2602 33.7714 34.3689 31.5331 32.7538C28.9637 31.0076 25.9917 29.938 22.8958 29.6453C22.6138 29.6031 22.3738 29.7295 22.3689 29.8911C22.3711 29.9331 22.3834 29.9741 22.4047 30.0105C22.426 30.0469 22.4557 30.0778 22.4914 30.1005Z" fill="#C6C6C6"/>
<path opacity="0.75" d="M20.8218 43.0113C20.9142 43.0818 21.0231 43.1277 21.1382 43.1447C26.0913 44.0872 31.1612 43.0893 33.4551 40.73C33.5808 40.5961 33.5039 40.4031 33.2317 40.2954C33.1171 40.2458 32.9917 40.2258 32.8674 40.2373C32.743 40.2487 32.6236 40.2912 32.5203 40.3608C30.4305 42.5119 25.8168 43.4157 21.292 42.566C21.0099 42.5238 20.7488 42.5992 20.6969 42.7538C20.6895 42.8042 20.6974 42.8556 20.7197 42.9015C20.742 42.9474 20.7775 42.9856 20.8218 43.0113Z" fill="#C6C6C6"/>
<path opacity="0.75" d="M23.3051 41.2536C23.4391 41.3486 23.5982 41.4024 23.7626 41.4081C26.6274 41.5316 29.0887 40.7542 30.3586 39.3303C31.6285 37.9065 31.4529 36.1228 29.8687 34.5675C29.7657 34.4927 29.6461 34.4437 29.52 34.4248C29.394 34.4059 29.2652 34.4177 29.1449 34.4591C28.9039 34.528 28.829 34.7078 28.9881 34.8654C30.3623 36.2173 30.4774 37.7627 29.406 39.0157C28.3346 40.2687 26.1482 40.9441 23.6461 40.8367C23.3641 40.7944 23.1576 40.9545 23.1808 41.1204C23.2071 41.1767 23.2506 41.2233 23.3051 41.2536Z" fill="#C6C6C6"/>
<path opacity="0.75" d="M16.5882 38.9962C17.2112 39.4828 17.8931 39.8897 18.6178 40.2075C18.7302 40.2618 18.8542 40.2878 18.979 40.2831C19.1037 40.2785 19.2253 40.2434 19.333 40.1809C19.4776 40.0498 19.3819 39.854 19.158 39.744C16.5852 38.5659 15.3344 36.774 15.9978 35.1638C16.0229 34.9956 15.8761 34.8208 15.5968 34.7599C15.3176 34.699 15.0376 34.7716 14.9763 34.9248C14.4352 36.2955 15.0413 37.7711 16.5882 38.9962Z" fill="#C6C6C6"/>
<path opacity="0.75" d="M17.3802 32.9258C17.4869 33.0079 17.6129 33.0615 17.7462 33.0814C17.8795 33.1014 18.0157 33.0871 18.1417 33.0399C19.4368 32.5117 20.8261 32.2478 22.2271 32.2641C23.6281 32.2803 25.0121 32.5763 26.2969 33.1345C26.4097 33.1889 26.535 33.2124 26.6598 33.2025C26.7846 33.1927 26.9044 33.1499 27.0069 33.0785C27.142 32.9459 27.0557 32.7516 26.7821 32.6533C23.5931 31.3542 19.9093 31.3086 17.3998 32.5372C17.2153 32.6146 17.2076 32.7949 17.3802 32.9258Z" fill="#C6C6C6"/>
<path opacity="0.75" d="M19.3118 37.9426C20.2702 38.6183 21.3745 39.061 22.5355 39.2349C23.6965 39.4088 24.8818 39.3091 25.9957 38.9438C28.0349 38.1605 28.2945 36.423 26.5693 35.1044C25.6109 34.4287 24.5066 33.986 23.3456 33.8121C22.1846 33.6382 20.9993 33.7379 19.8854 34.1032C17.8852 34.8828 17.6284 36.6017 19.3118 37.9426ZM25.7732 35.4149C27.0887 36.4525 26.8878 37.7977 25.3253 38.4136C24.4557 38.6981 23.5306 38.7756 22.6244 38.6398C21.7182 38.5041 20.8563 38.1589 20.1079 37.6321C18.7938 36.5852 18.9948 35.24 20.5559 34.6334C21.4255 34.3489 22.3506 34.2714 23.2567 34.4072C24.1629 34.5429 25.0248 34.8881 25.7732 35.4149Z" fill="#C6C6C6"/>
</g>
</g>
<path d="M71.5907 60.5489C71.7696 60.5741 71.952 60.552 72.1193 60.4848L89.1348 53.9604C89.2746 53.9207 89.4045 53.8524 89.5161 53.7599C89.6277 53.6674 89.7186 53.5527 89.783 53.4231C89.8474 53.2936 89.8839 53.152 89.8901 53.0076C89.8963 52.8631 89.872 52.7189 89.819 52.5841C89.7659 52.4493 89.6851 52.327 89.5818 52.2249C89.4785 52.1228 89.355 52.0433 89.2191 51.9913C89.0832 51.9393 88.938 51.9161 88.7927 51.9231C88.6474 51.9301 88.5052 51.9672 88.3753 52.0319L71.3692 58.5578C71.176 58.6524 71.0171 58.8041 70.9143 58.9922C70.8114 59.1803 70.7696 59.3955 70.7946 59.6084C70.8197 59.8213 70.9103 60.0215 71.054 60.1815C71.1978 60.3414 71.3877 60.4535 71.5977 60.5021L71.5907 60.5489Z" fill="#B2B2B2"/>
<path d="M48.8905 57.1963C49.1055 57.2113 49.3199 57.1598 49.5041 57.049C49.6883 56.9381 49.8334 56.7733 49.9196 56.577C50.0057 56.3808 50.0287 56.1627 49.9853 55.9527C49.9419 55.7428 49.8343 55.5511 49.6772 55.404L35.3673 44.1394C35.2599 44.0503 35.1356 43.9835 35.0019 43.9429C34.8681 43.9023 34.7276 43.8888 34.5886 43.9031C34.4497 43.9174 34.315 43.9592 34.1927 44.0262C34.0705 44.0932 33.963 44.1838 33.8766 44.2929C33.7903 44.4019 33.7268 44.5271 33.6901 44.6611C33.6533 44.795 33.6439 44.935 33.6625 45.0727C33.6811 45.2104 33.7273 45.3431 33.7983 45.4629C33.8694 45.5827 33.9638 45.6872 34.0761 45.7702L48.44 56.9951C48.5698 57.1004 48.7252 57.1698 48.8905 57.1963Z" fill="#B2B2B2"/>
<path d="M42.7479 60.9944L44.0176 61.1846L43.3212 65.8462L42.0515 65.656L42.7479 60.9944Z" fill="#878787"/>
<path d="M74.8313 68.188L71.6165 63.5232L65.6331 60.2775L60.1917 58.9371L52.6632 58.7644L48.0034 59.9765L44.8329 61.8989L42.9259 65.2712C42.8508 62.557 42.9686 59.9673 44.396 58.2614C46.9259 55.9948 49.6037 53.9605 53.68 54.0171C57.7243 53.7315 61.7893 54.1529 65.6903 55.2623C69.0556 56.4884 72.0554 58.5412 74.41 61.2293C75.7603 63.2557 75.793 65.6101 74.8313 68.188Z" fill="#878787"/>
<path d="M75.1999 67.4605L74.7846 71.8489C74.4144 73.1688 73.2146 74.3166 71.6415 75.3894C68.5107 77.4323 64.1644 78.0897 58.9065 77.579C54.1526 77.2401 49.6024 75.5118 45.828 72.6114C43.9704 70.1843 41.9705 67.7453 42.7099 65.7549L43.2682 62.0182C44.8978 68.4799 50.9512 71.4496 58.6983 72.9253C67.0389 73.7735 72.9927 72.3923 75.1999 67.4605Z" fill="#878787"/>
<path d="M71.7117 63.1462C77.734 67.8686 76.8213 73.9781 69.6784 76.7571C62.5355 79.5361 51.9451 77.921 45.9511 73.2028C39.9571 68.4846 40.843 62.3616 47.9844 59.5919C55.1259 56.8223 65.7219 58.3999 71.7117 63.1462ZM46.9237 72.8041C52.4492 77.1847 62.2917 78.6591 68.8649 76.0908C75.438 73.5226 76.2716 67.8788 70.7461 63.4982C65.2206 59.1176 55.3673 57.6511 48.8049 60.2115C42.2426 62.7718 41.3471 68.4445 46.9209 72.8228L46.9237 72.8041Z" fill="#878787"/>
<path d="M75.0292 65.8303L76.2988 66.0205L75.6024 70.6821L74.3328 70.4919L75.0292 65.8303Z" fill="#878787"/>
<path d="M72.409 58.4753C78.4312 63.1977 77.5171 69.3165 70.3756 72.0862C63.2342 74.8559 52.6424 73.2502 46.6484 68.532C40.6543 63.8137 41.5388 57.7 48.6817 54.921C55.8246 52.142 66.4177 53.7384 72.409 58.4753ZM47.621 68.1332C53.1478 72.5045 62.9903 73.9789 69.5621 71.4199C76.1339 68.861 76.9688 63.2079 71.4434 58.8273C65.9179 54.4467 56.066 52.9709 49.5022 55.5406C42.9384 58.1102 42.0443 63.7736 47.6168 68.1613L47.621 68.1332Z" fill="#1D1D1B"/>
<g opacity="0.75">
<path opacity="0.75" d="M45.2838 59.7704C46.3902 58.6201 47.7485 57.7387 49.2536 57.1942C49.5701 57.0697 49.9027 56.9667 50.2648 56.8586C53.6342 55.9369 57.1621 55.7284 60.6208 56.2465C64.0795 56.7646 67.3921 57.9978 70.3446 59.8665C70.6419 60.0638 70.9378 60.2705 71.2121 60.4931C73.3867 62.2132 74.571 64.1289 74.8135 65.9799C75.1849 68.8339 73.3181 71.4864 69.3323 73.0764C66.3914 74.145 63.2489 74.5579 60.1269 74.2858C57.8137 74.1285 55.5297 73.6772 53.3306 72.943C51.18 72.2432 49.1638 71.1855 47.3682 69.8149C43.3002 66.5505 42.6928 62.6391 45.2838 59.7704Z" fill="#EDEDED"/>
<path opacity="0.75" d="M56.3053 66.2923C57.0921 66.8482 57.9991 67.2123 58.9529 67.3552C59.9067 67.4981 60.8804 67.4157 61.7953 67.1147C63.4385 66.4726 63.6493 65.062 62.2656 63.9665C61.4788 63.4106 60.5717 63.0465 59.6179 62.9036C58.6641 62.7608 57.6904 62.8432 56.7756 63.1441C55.1323 63.7862 54.9216 65.1968 56.3053 66.2923Z" fill="#575756"/>
<g opacity="0.75">
<path opacity="0.75" d="M63.4518 73.9632C63.6158 74.0785 63.8156 74.1321 64.0155 74.1145C65.7716 73.9769 67.4988 73.5925 69.1453 72.9728C72.3389 71.732 74.2626 69.728 74.5728 67.3294C74.5966 67.1706 74.3825 66.9953 74.0897 66.961C73.7969 66.9267 73.5531 67.0143 73.528 67.1825C73.2428 69.4128 71.4543 71.2843 68.4749 72.4425C66.9286 73.0231 65.3055 73.3783 63.656 73.4971C63.383 73.5231 63.2263 73.6715 63.3153 73.8472C63.3547 73.8925 63.4007 73.9316 63.4518 73.9632Z" fill="#C6C6C6"/>
<path opacity="0.75" d="M47.4407 69.6544C51.1436 72.3383 55.5484 73.8973 60.1201 74.1419C60.4021 74.1842 60.6246 74.0456 60.6121 73.8718C60.5996 73.698 60.3518 73.5558 60.067 73.5323C54.4428 73.1578 48.9481 70.7588 46.4442 67.5758C46.3535 67.4868 46.2418 67.4218 46.1194 67.3868C45.997 67.3518 45.8678 67.3479 45.7437 67.3754C45.4867 67.4228 45.3836 67.5984 45.5131 67.7611C46.0805 68.4635 46.7273 69.0988 47.4407 69.6544Z" fill="#C6C6C6"/>
<path opacity="0.75" d="M44.1198 64.8676C44.2573 64.9629 44.4193 65.017 44.5867 65.0235C44.8687 65.0657 45.0766 64.8963 45.0439 64.7291C44.1785 60.5499 48.6827 57.0987 55.4923 56.7434C55.7733 56.7282 55.9394 56.5812 55.8598 56.4069C55.787 56.3084 55.6894 56.2309 55.5768 56.1822C55.4642 56.1334 55.3407 56.1152 55.2188 56.1294C47.898 56.5609 43.0686 60.2595 43.9941 64.7437C44.0251 64.7947 44.0683 64.8373 44.1198 64.8676Z" fill="#C6C6C6"/>
<path opacity="0.75" d="M60.05 56.7868C60.154 56.8629 60.276 56.9108 60.4041 56.9258C63.9558 57.3714 67.3332 58.7229 70.2076 60.8489C71.6393 61.891 72.7257 63.3343 73.3271 64.9932C73.3911 65.0964 73.483 65.1795 73.5924 65.2331C73.7017 65.2866 73.824 65.3084 73.9451 65.2959C74.2247 65.29 74.4082 65.1552 74.3567 64.9851C73.7115 63.2035 72.5433 61.6543 71.0036 60.5383C67.9121 58.2498 64.2776 56.797 60.4558 56.3223C60.1644 56.2786 59.9179 56.385 59.8941 56.5438C59.8938 56.5949 59.9083 56.645 59.936 56.6881C59.9636 56.7313 60.0032 56.7655 60.05 56.7868Z" fill="#C6C6C6"/>
<path opacity="0.75" d="M50.319 68.7292C51.1375 69.3574 52.0252 69.8909 52.9648 70.3194C53.078 70.3764 53.2039 70.404 53.3306 70.3996C53.4573 70.3952 53.5807 70.3589 53.6894 70.2942C53.8433 70.1645 53.7382 69.9673 53.5332 69.8602C50.2541 68.3279 48.4658 66.0162 48.6911 63.6718C48.9163 61.3274 51.2243 59.5815 54.7262 58.979C54.9926 58.933 55.1037 58.7682 54.9756 58.5962C54.8865 58.5081 54.7775 58.4424 54.6578 58.4045C54.5381 58.3666 54.4111 58.3577 54.2873 58.3784C50.4209 59.0409 47.9426 60.9618 47.6462 63.5248C47.4277 65.3736 48.4027 67.2101 50.319 68.7292Z" fill="#C6C6C6"/>
<path opacity="0.75" d="M58.8119 58.7124C58.9287 58.7917 59.0632 58.8413 59.2036 58.8571C62.0094 59.2033 64.7026 60.1714 67.0843 61.6899C69.1936 63.0755 70.1714 64.8934 70.0212 66.5423C69.9975 66.7011 70.2224 66.8685 70.5138 66.9121C70.8052 66.9558 71.0438 66.8387 71.0581 66.6785C71.2334 64.8614 70.0839 62.9701 67.8456 61.355C65.2764 59.6084 62.3043 58.5388 59.2083 58.2465C58.9169 58.2029 58.6769 58.3293 58.6814 58.4923C58.6857 58.5362 58.6996 58.5787 58.7222 58.6167C58.7447 58.6547 58.7754 58.6874 58.8119 58.7124Z" fill="#C6C6C6"/>
<path opacity="0.75" d="M57.1329 71.6124C57.224 71.686 57.3325 71.7351 57.448 71.7551C62.4024 72.6883 67.471 71.6997 69.7662 69.3311C69.892 69.1971 69.8151 69.0042 69.5414 68.9059C69.4284 68.8525 69.3033 68.8295 69.1787 68.8394C69.0541 68.8492 68.9343 68.8914 68.8315 68.9619C66.7417 71.1129 62.1265 72.0261 57.6125 71.1685C57.3211 71.1248 57.0599 71.2003 57.016 71.3657C57.0088 71.4136 57.0161 71.4626 57.0369 71.5065C57.0577 71.5505 57.0911 71.5873 57.1329 71.6124Z" fill="#C6C6C6"/>
<path opacity="0.75" d="M59.625 69.8556C59.7552 69.951 59.9116 70.0044 60.0731 70.0086C62.938 70.1322 65.3992 69.3547 66.6691 67.9309C67.9391 66.507 67.7634 64.7234 66.1793 63.1681C66.0763 63.0932 65.9566 63.0443 65.8306 63.0254C65.7045 63.0065 65.5758 63.0183 65.4554 63.0596C65.2145 63.1286 65.1489 63.3098 65.2986 63.4659C66.6823 64.8193 66.835 66.3703 65.726 67.6177C64.617 68.8651 62.4587 69.5446 59.966 69.4387C59.684 69.3964 59.4681 69.5551 59.4914 69.7209C59.5185 69.7801 59.5659 69.8278 59.625 69.8556Z" fill="#C6C6C6"/>
<path opacity="0.75" d="M52.9092 67.5982C53.5249 68.099 54.2013 68.5212 54.9224 68.8548C55.034 68.9117 55.1584 68.9391 55.2837 68.9344C55.4089 68.9297 55.5307 68.8932 55.6376 68.8283C55.7915 68.6985 55.6864 68.5013 55.4625 68.3914C52.8978 67.224 51.6389 65.4213 52.3024 63.8111C52.3275 63.643 52.19 63.4696 51.9014 63.4072C51.6128 63.3449 51.3422 63.419 51.2795 63.5815C50.7185 64.8919 51.3622 66.3732 52.9092 67.5982Z" fill="#C6C6C6"/>
<path opacity="0.75" d="M53.6891 61.5359C53.7966 61.6164 53.9226 61.669 54.0555 61.6889C54.1885 61.7088 54.3243 61.6954 54.4506 61.65C55.7462 61.1234 57.1356 60.8613 58.5363 60.8791C59.937 60.897 61.3204 61.1945 62.6044 61.754C62.7175 61.8074 62.8426 61.8303 62.9672 61.8204C63.0918 61.8106 63.2116 61.7684 63.3144 61.6979C63.451 61.556 63.3633 61.371 63.091 61.2633C59.902 59.9643 56.2168 59.928 53.7074 61.1566C53.5256 61.2153 53.5179 61.3957 53.6891 61.5359Z" fill="#C6C6C6"/>
<path opacity="0.75" d="M55.6227 66.5439C56.5828 67.2199 57.6885 67.6629 58.8511 67.837C60.0136 68.0111 61.2004 67.9116 62.316 67.5465C64.3538 66.7725 64.6148 65.0256 62.8896 63.707C61.9295 63.031 60.8238 62.5881 59.6612 62.4139C58.4987 62.2398 57.3119 62.3393 56.1963 62.7044C54.1961 63.484 53.9379 65.2123 55.6227 66.5439ZM62.0841 64.0162C63.3982 65.063 63.1987 66.3989 61.6361 67.0149C60.7665 67.2994 59.8415 67.3768 58.9353 67.2411C58.0291 67.1054 57.1672 66.7602 56.4188 66.2333C55.1047 65.1865 55.3043 63.8506 56.8668 63.2346C57.7364 62.9502 58.6615 62.8727 59.5676 63.0084C60.4738 63.1442 61.3357 63.4893 62.0841 64.0162Z" fill="#C6C6C6"/>
</g>
</g>
<path d="M43.598 35.43C44.4155 35.6026 45.2598 35.6048 46.0774 35.4363C46.8951 35.2677 47.6682 34.9322 48.3479 34.451C49.44 33.5085 50.6931 32.768 52.0481 32.2642C53.6503 31.6651 55.3239 31.2738 57.0275 31.0999C58.8472 30.8854 60.126 30.0455 60.2921 28.9338L61.9933 17.5462C62.1092 16.7708 62.8656 16.0819 64.1805 15.7727C65.8126 15.4441 67.5102 15.6984 68.9748 16.4908C70.1793 17.1775 70.6638 18.0523 70.5479 18.8277L68.8495 30.1966C68.6834 31.3082 69.6608 32.4861 71.3381 33.2245C72.9164 33.89 74.4024 34.7546 75.7594 35.7969C76.9073 36.673 77.8864 37.7483 78.6491 38.9709C79.1614 39.6317 79.8058 40.18 80.5416 40.5812C81.2774 40.9824 82.0885 41.2277 82.9238 41.3017L102.769 44.2744C104.074 44.422 105.291 45.005 106.222 45.9282C106.434 46.1152 106.596 46.3518 106.693 46.6165C106.789 46.8812 106.818 47.1656 106.777 47.444C106.735 47.7223 106.624 47.9858 106.454 48.2105C106.284 48.4352 106.06 48.614 105.803 48.7307C104.648 49.334 103.322 49.5323 102.038 49.2937L82.2119 46.3238C81.3941 46.1482 80.549 46.1417 79.7293 46.3048C78.9096 46.4679 78.1328 46.7971 77.4474 47.272C76.3608 48.2175 75.1103 48.9589 73.7566 49.4602C72.1532 50.0553 70.4802 50.4465 68.7772 50.6245C66.9575 50.839 65.6801 51.6695 65.514 52.7812L63.8156 64.1501C63.6998 64.9255 62.9433 65.6144 61.627 65.933C59.9947 66.2519 58.3004 65.9981 56.8327 65.2148C55.6296 64.5189 55.1452 63.6441 55.261 62.8687L56.9594 51.4998C57.1255 50.3881 56.1467 49.2196 54.4694 48.4812C52.893 47.812 51.4075 46.9476 50.0482 45.9088C48.8857 45.0316 47.8909 43.9542 47.1115 42.7278C46.5981 42.0685 45.953 41.5219 45.2171 41.1223C44.4811 40.7227 43.6701 40.4789 42.8354 40.4063L23.0282 37.4393C21.7359 37.2727 20.5376 36.6758 19.629 35.7458C19.417 35.5587 19.2551 35.3221 19.1582 35.0574C19.0612 34.7927 19.0323 34.5083 19.0738 34.23C19.1154 33.9517 19.2263 33.6882 19.3963 33.4635C19.5664 33.2388 19.7902 33.06 20.0477 32.9432C21.1995 32.343 22.5224 32.1474 23.802 32.3882L43.598 35.43Z" fill="#1D1D1B"/>
<path d="M43.9693 32.9448C44.7868 33.1175 45.6311 33.1197 46.4487 32.9511C47.2663 32.7826 48.0395 32.4471 48.7192 31.9659C49.8113 31.0265 51.0639 30.2891 52.418 29.7884C54.0202 29.1894 55.6937 28.7981 57.3974 28.6241C59.2171 28.4096 60.4959 27.5697 60.662 26.458L62.2767 15.6496C62.3939 14.8649 63.1504 14.176 64.4652 13.8667C66.0973 13.5382 67.795 13.7925 69.2596 14.5849C70.4641 15.2715 70.9485 16.1464 70.8313 16.9311L69.2208 27.7115C69.0533 28.8325 70.0321 30.001 71.7094 30.7394C73.2877 31.4049 74.7736 32.2695 76.1306 33.3118C77.2785 34.1846 78.2581 35.2569 79.0217 36.4764C79.5341 37.1372 80.1785 37.6856 80.9143 38.0867C81.65 38.4879 82.4612 38.7333 83.2964 38.8072L102.893 43.4427C104.195 43.5688 105.416 44.1324 106.354 45.0405C106.556 45.2268 106.71 45.4592 106.801 45.7176C106.893 45.9759 106.919 46.2524 106.879 46.523C106.839 46.7937 106.732 47.0503 106.569 47.2705C106.406 47.4908 106.192 47.6681 105.944 47.787C104.791 48.3945 103.463 48.5931 102.179 48.35L82.609 43.7948C81.7887 43.6208 80.9414 43.6177 80.1206 43.7857C79.2998 43.9537 78.5233 44.2892 77.8403 44.771C76.7537 45.7165 75.5032 46.4579 74.1495 46.9592C72.5473 47.5582 70.8737 47.9495 69.17 48.1235C67.3503 48.338 66.0715 49.1779 65.9055 50.2896L63.9586 63.3213C63.8428 64.0967 63.0863 64.7856 61.7701 65.1042C60.1379 65.4279 58.4419 65.1738 56.9758 64.386C55.7712 63.6994 55.2868 62.8246 55.4026 62.0492L57.3467 49.0362C57.5128 47.9245 56.5354 46.7466 54.8581 46.0082C53.2798 45.3427 51.7938 44.4781 50.4368 43.4358C49.2663 42.5508 48.2664 41.4626 47.4855 40.224C46.9744 39.5619 46.3302 39.0127 45.5942 38.6113C44.8582 38.21 44.0465 37.9654 43.2108 37.8931L23.1594 36.5609C21.8631 36.4192 20.6538 35.8403 19.733 34.9207C19.5309 34.7344 19.3775 34.502 19.2861 34.2436C19.1947 33.9852 19.168 33.7087 19.2084 33.4381C19.2489 33.1675 19.3552 32.9109 19.5181 32.6906C19.681 32.4704 19.8956 32.2931 20.1433 32.1742C21.2982 31.5613 22.6312 31.363 23.9179 31.6126L43.9693 32.9448Z" fill="#9D9D9C"/>
<path d="M76.6992 35.6133L76.1033 39.6022C75.8242 41.4706 74.2756 43.2156 71.5587 44.289C66.0779 46.4288 57.89 45.2022 53.265 41.5487C50.962 39.7233 50.0058 37.6317 50.2891 35.7353L50.885 31.7464L76.6992 35.6133Z" fill="#1D1D1B"/>
<path d="M55.3979 27.0545C49.9157 29.2036 49.2152 33.8932 53.8293 37.5546C58.4434 41.2161 66.6422 42.4347 72.123 40.295C77.6038 38.1552 78.3058 33.4563 73.6916 29.7948C69.0775 26.1334 60.8881 24.9162 55.3979 27.0545Z" fill="#3C3C3B"/>
<path d="M58.1175 29.2101C57.9597 29.2367 57.8145 29.3121 57.7026 29.4257C57.5907 29.5393 57.5178 29.6852 57.4943 29.8426C57.4707 29.9999 57.4978 30.1608 57.5717 30.3022C57.6455 30.4436 57.7623 30.5583 57.9054 30.63L66.9398 37.7711C67.2938 38.0221 67.7023 38.1865 68.132 38.2508C68.5616 38.3152 69.0003 38.2777 69.4122 38.1415C69.57 38.1149 69.7152 38.0394 69.8271 37.9258C69.939 37.8122 70.0119 37.6664 70.0355 37.509C70.059 37.3516 70.0319 37.1907 69.958 37.0493C69.8842 36.9079 69.7674 36.7932 69.6243 36.7215L60.6087 29.5832C60.2531 29.3319 59.843 29.1673 59.4118 29.1027C58.9807 29.0381 58.5405 29.0754 58.1269 29.2115L58.1175 29.2101Z" fill="#EDEDED"/>
</g>
<defs>
<clipPath id="clip0">
<rect width="114" height="70" fill="white" transform="matrix(-0.988966 -0.148143 -0.147752 0.989025 124 16.9971)"/>
</clipPath>
</defs>
</svg>
