<svg width="61" height="78" fill="none" xmlns="http://www.w3.org/2000/svg"><path d="M36.265 38.028l-2.105 2.02 5.69 5.962 2.104-2.02-5.69-5.962z" fill="#464646"/><path d="M38.828 40.714l-2.136-2.182c-.316.354-.651.699-1.013 1.031-.362.332-.724.64-1.103.923l2.142 2.18c.37-.308.739-.616 1.096-.939.358-.323.693-.664 1.014-1.013z" fill="#464646"/><path opacity=".5" d="M36.931 34.93c4.19-7.143 2.186-15.949-4.477-19.666-6.662-3.718-15.46-.94-19.65 6.204-4.189 7.145-2.184 15.95 4.478 19.667 6.662 3.718 15.46.94 19.65-6.204z" fill="#EBEBEB"/><path d="M13.277 30.137a.94.94 0 01-.52.244.871.871 0 01-.645-.165.796.796 0 01-.311-.565 12.82 12.82 0 01.064-2.75.943.943 0 01.978-.713c.22.015.42.11.563.267.142.155.216.36.207.574a10.953 10.953 0 00-.056 2.39.845.845 0 01-.056.387.917.917 0 01-.224.331zM22.838 40.6a.946.946 0 01-.373.207.907.907 0 01-.421.019 12.748 12.748 0 01-5.296-2.292 12.04 12.04 0 01-3.625-4.345.821.821 0 01-.024-.646.929.929 0 01.454-.5.915.915 0 01.668-.064.807.807 0 01.496.41 10.46 10.46 0 003.148 3.772 11.075 11.075 0 004.597 1.991.833.833 0 01.41.201.79.79 0 01.232.383.828.828 0 01-.011.455.91.91 0 01-.25.397l-.005.011z" fill="#fff" opacity=".5"/><path d="M12.92 16.053c-2.607 2.426-4.456 5.51-5.31 8.862-.856 3.352-.68 6.821.506 9.969a16.054 16.054 0 006.153 7.714c2.827 1.883 6.212 2.878 9.727 2.86 3.515-.017 7.003-1.047 10.021-2.959 3.018-1.911 5.432-4.619 6.937-7.78 1.504-3.16 2.031-6.633 1.514-9.978a16.01 16.01 0 00-4.419-8.814c-3.168-3.22-7.596-5.015-12.308-4.991-4.713.023-9.324 1.864-12.82 5.117zm21.755 22.119a15.734 15.734 0 01-7.669 3.915c-2.858.56-5.778.293-8.39-.767-2.612-1.06-4.8-2.866-6.284-5.19-1.485-2.323-2.202-5.059-2.06-7.862.143-2.804 1.138-5.548 2.86-7.887a15.697 15.697 0 016.814-5.251c2.721-1.085 5.67-1.38 8.472-.846 2.803.533 5.335 1.87 7.275 3.843a13.119 13.119 0 012.93 4.583 13.43 13.43 0 01.836 5.42 14.324 14.324 0 01-1.387 5.429 15.295 15.295 0 01-3.397 4.613zm8.215 5.159l-3.742 3.592 16.93 17.744 3.742-3.591L42.89 43.33z" fill="#464646"/><path d="M40.414 45.584l-.746.716 17.051 17.873.747-.717-17.052-17.872zm2.379-2.251l-1.236 1.187 17.029 17.849 1.236-1.188-17.029-17.848z" fill="#464646"/></svg>