<svg width="75" height="74" viewBox="0 0 75 74" fill="none" xmlns="http://www.w3.org/2000/svg">
<g opacity="0.2">
<path opacity="0.2" d="M68.5511 42.5069C71.6076 25.3648 60.2008 8.99263 43.0732 5.93864C25.9456 2.88464 9.58307 14.3053 6.52654 31.4474C3.47 48.5894 14.8769 64.9616 32.0045 68.0156C49.1321 71.0696 65.4945 59.6489 68.5511 42.5069Z" fill="#4A4741"/>
<path opacity="0.2" d="M68.678 42.3552C71.7139 25.2094 60.2882 8.84673 43.1579 5.80804C26.0275 2.76936 9.67953 14.2054 6.64357 31.3511C3.60761 48.4969 15.0334 64.8596 32.1637 67.8983C49.294 70.9369 65.642 59.5009 68.678 42.3552Z" fill="#494640"/>
<path opacity="0.2" d="M68.8069 42.25C71.8635 25.1079 60.4566 8.73579 43.329 5.6818C26.2014 2.62781 9.83894 14.0485 6.7824 31.1905C3.72586 48.3326 15.1327 64.7048 32.2603 67.7587C49.3879 70.8127 65.7504 59.3921 68.8069 42.25Z" fill="#49453F"/>
<path opacity="0.2" d="M68.9179 42.1478C71.9837 25.0074 60.5865 8.6247 43.4615 5.55609C26.3365 2.48748 9.96861 13.8949 6.90276 31.0353C3.83692 48.1758 15.2341 64.5584 32.3591 67.627C49.4841 70.6956 65.852 59.2882 68.9179 42.1478Z" fill="#48443E"/>
</g>
<path d="M68.8684 41.9451C71.8262 24.7857 60.3253 8.4795 43.1804 5.52422C26.0355 2.56894 9.73907 14.0837 6.7813 31.2431C3.82353 48.4025 15.3245 64.7087 32.4693 67.664C49.6142 70.6193 65.9106 59.1045 68.8684 41.9451Z" fill="#0A3D76"/>
<path d="M55.5343 54.3305C65.3206 44.5353 65.3206 28.6542 55.5342 18.859C45.7479 9.06376 29.8811 9.06375 20.0947 18.859C10.3084 28.6542 10.3084 44.5353 20.0948 54.3305C29.8811 64.1257 45.7479 64.1257 55.5343 54.3305Z" fill="white"/>
<path d="M37.8121 10.3423C23.3534 10.3423 11.584 22.1183 11.584 36.596C11.584 50.7633 22.8592 62.347 36.8977 62.8317C37.2018 62.8417 37.4979 62.8477 37.8121 62.8477C38.1963 62.8477 38.5744 62.8357 38.9526 62.8197C45.7763 62.4841 52.1999 59.4968 56.8567 54.4933C61.5135 49.4898 64.0359 42.8651 63.8873 36.0286C63.7387 29.1921 60.9308 22.6835 56.061 17.8875C51.1912 13.0914 44.6439 10.3865 37.8121 10.3483V10.3423ZM38.9626 60.4745C38.5804 60.4905 38.1963 60.5025 37.8121 60.5025C37.5099 60.5025 37.2118 60.5025 36.9017 60.4865C30.7315 60.243 24.8946 57.6203 20.6124 53.1674C16.3302 48.7145 13.9347 42.7765 13.9271 36.596C13.9271 23.4121 24.644 12.6755 37.8121 12.6755C44.0472 12.677 50.0345 15.1185 54.4956 19.4784C58.9567 23.8383 61.538 29.7712 61.6882 36.01C61.8384 42.2489 59.5456 48.2993 55.2995 52.8692C51.0533 57.4391 45.1904 60.1664 38.9626 60.4685V60.4745Z" fill="#F34A57"/>
<path d="M37.8135 16.3582C26.6083 16.3582 17.4941 25.4365 17.4941 36.5857C17.4941 47.7348 26.6103 56.8132 37.8135 56.8132C49.0167 56.8132 58.1329 47.7368 58.1329 36.5857C58.1329 25.4345 49.0187 16.3582 37.8135 16.3582ZM37.8135 54.486C27.9009 54.486 19.8352 46.4611 19.8352 36.5937C19.8352 26.7263 27.9009 18.7013 37.8135 18.7013C47.7261 18.7013 55.7938 26.7283 55.7938 36.5937C55.7938 46.4591 47.7281 54.486 37.8135 54.486Z" fill="#F34A57"/>
<path d="M37.8129 22.3787C29.8672 22.3787 23.4062 28.7553 23.4062 36.598C23.4062 44.4407 29.8712 50.8174 37.8129 50.8174C45.7546 50.8174 52.2195 44.4407 52.2195 36.598C52.2195 28.7553 45.7586 22.3787 37.8129 22.3787ZM37.8129 48.4682C31.1578 48.4682 25.7413 43.1409 25.7413 36.594C25.7413 30.0471 31.1578 24.7198 37.8129 24.7198C44.468 24.7198 49.8945 30.0471 49.8945 36.594C49.8945 43.1409 44.47 48.4682 37.8129 48.4682Z" fill="#F34A57"/>
<path d="M37.8144 28.3953C33.1262 28.3953 29.3145 32.0743 29.3145 36.5944C29.3145 41.1146 33.1262 44.7936 37.8144 44.7936C42.5025 44.7936 46.3163 41.1166 46.3163 36.5944C46.3163 32.0723 42.5025 28.3953 37.8144 28.3953ZM37.8144 42.4524C34.4128 42.4524 31.6535 39.8248 31.6535 36.5944C31.6535 33.364 34.4168 30.7385 37.8144 30.7385C41.2119 30.7385 43.9752 33.366 43.9752 36.5944C43.9752 39.8228 41.2119 42.4524 37.8144 42.4524Z" fill="#F34A57"/>
<path d="M41.0404 36.5954C41.0412 37.2079 40.8604 37.8069 40.521 38.3166C40.1816 38.8263 39.6987 39.2238 39.1335 39.4588C38.5683 39.6937 37.9462 39.7556 37.3459 39.6366C36.7456 39.5176 36.194 39.223 35.761 38.7902C35.328 38.3573 35.0329 37.8056 34.9132 37.2049C34.7936 36.6042 34.8546 35.9814 35.0886 35.4154C35.3226 34.8495 35.7191 34.3657 36.2279 34.0253C36.7367 33.6849 37.3349 33.5032 37.9469 33.5032C38.7667 33.5032 39.5529 33.8288 40.1329 34.4086C40.7129 34.9884 41.0393 35.7749 41.0404 36.5954Z" fill="#F34A57"/>
<path d="M57.2618 16.0518L56.6875 11.9922L60.4893 8.26917L60.8354 12.4729L57.2618 16.0518Z" fill="#F34A57"/>
<path d="M58.4492 17.2292L62.5191 17.814L66.2288 13.9988L62.0269 13.6623L58.4492 17.2292Z" fill="#F34A57"/>
<g style="mix-blend-mode:soft-light">
<path d="M57.7988 10.9087L58.3516 14.9702L58.5078 14.7659L58.0011 10.7084L57.7988 10.9087Z" fill="#201600"/>
</g>
<g style="mix-blend-mode:soft-light">
<path d="M59.0195 9.69678L59.5743 13.7583L59.7285 13.556L59.2238 9.49851L59.0195 9.69678Z" fill="#201600"/>
</g>
<g style="mix-blend-mode:soft-light">
<path d="M60.8294 14.6539L65.2915 15.1646L65.0714 15.3208L60.6113 14.8602L60.8294 14.6539Z" fill="#201600"/>
</g>
<g style="mix-blend-mode:soft-light">
<path d="M59.4524 16.0392L63.9165 16.5359L63.6964 16.6941L59.2363 16.2455L59.4524 16.0392Z" fill="#201600"/>
</g>
<path d="M38.8499 36.9123C38.7673 36.9975 38.6684 37.0651 38.559 37.1112C38.4497 37.1573 38.3323 37.1809 38.2137 37.1807C38.0315 37.18 37.8539 37.1238 37.7046 37.0194C37.5553 36.9151 37.4413 36.7675 37.378 36.5966C37.3147 36.4257 37.3051 36.2395 37.3503 36.0629C37.3956 35.8863 37.4937 35.7278 37.6314 35.6085L60.8421 12.4751L62.0246 13.6587L38.8499 36.9123Z" fill="#5D4837"/>
<g style="mix-blend-mode:darken">
<path d="M61.1151 57.2756L40.9538 36.8899L38.9529 34.9052C38.6708 35.1595 38.3947 35.4178 38.1225 35.6902C37.9044 35.9085 37.6963 36.1268 37.4902 36.3511L39.4912 38.3398L59.8526 58.5393L60.5129 57.8023L61.1151 57.2756Z" fill="#C9C8C8"/>
</g>
</svg>
