<svg width="72" height="72" fill="none" xmlns="http://www.w3.org/2000/svg"><g clip-path="url(#clip0)"><path d="M51.405 27.645V44.18a7.303 7.303 0 01-2.136 5.161 7.289 7.289 0 01-5.157 2.139H27.597a7.289 7.289 0 01-5.156-2.139 7.303 7.303 0 01-2.136-5.161V27.645c0-1.936.768-3.793 2.136-5.162a7.289 7.289 0 015.156-2.138h16.518c1.935 0 3.79.769 5.157 2.138a7.304 7.304 0 012.136 5.162h-.003z" fill="url(#paint0_linear)"/><path d="M40.654 24.513h-9.642a6.577 6.577 0 00-6.082 4.067c-.33.8-.5 1.657-.5 2.522v9.651a6.593 6.593 0 004.063 6.088 6.577 6.577 0 002.52.502h9.64a6.58 6.58 0 004.655-1.93 6.593 6.593 0 001.928-4.66v-9.65a6.593 6.593 0 00-1.928-4.66 6.58 6.58 0 00-4.654-1.93zm4.482 16.41c0 1.16-.46 2.272-1.28 3.092a4.368 4.368 0 01-3.09 1.281H30.9c-1.16 0-2.27-.46-3.09-1.28a4.376 4.376 0 01-1.28-3.094v-9.876c0-1.16.46-2.273 1.28-3.093a4.368 4.368 0 013.09-1.281h9.866a4.367 4.367 0 014.37 4.374v9.876z" fill="#fff"/><path d="M35.836 30.061a5.913 5.913 0 00-5.468 3.657 5.929 5.929 0 001.283 6.455 5.915 5.915 0 0010.102-4.188 5.927 5.927 0 00-1.733-4.189 5.915 5.915 0 00-4.184-1.735zm0 9.764a3.833 3.833 0 01-3.544-2.37 3.843 3.843 0 012.795-5.236 3.832 3.832 0 013.938 1.632 3.842 3.842 0 01-3.19 5.974zm6.112-11.369a1.379 1.379 0 00-.975 2.357 1.38 1.38 0 10.975-2.357z" fill="#fff"/><path d="M67.265 35.773c0 17.752-14.129 32.136-31.547 32.136-17.42 0-31.548-14.384-31.548-32.136 0-17.753 14.129-32.136 31.547-32.136 17.42 0 31.548 14.383 31.548 32.136z" fill="#FFC9E7" fill-opacity=".3" stroke="#E4829E" stroke-width=".5"/><g filter="url(#filter0_f)"><path d="M21.416 16.04c4.582-2.085 4.554-4.188 4.183-5.115-1.11-1.25-2.05-.87-3.332-.556-1.68.413-4.128 2.683-6.248 4.726-2.06 1.985-5.38 6.547-5.435 8.446-.048 1.672.85 2.947 1.268 1.557.416-1.39 4.338-6.68 9.564-9.058z" fill="#fff"/></g><path d="M22.882 63.661c14.662 4.44 41.892-1.88 42.033-33.587 4.107 16.972-11.81 44.505-42.033 33.587z" fill="#FFCBE8"/></g><defs><linearGradient id="paint0_linear" x1="43.49" y1="22.172" x2="27.713" y2="50.502" gradientUnits="userSpaceOnUse"><stop stop-color="#4845A2"/><stop offset=".19" stop-color="#8744A1"/><stop offset=".3" stop-color="#A844A1"/><stop offset=".35" stop-color="#AB429A"/><stop offset=".42" stop-color="#B43C88"/><stop offset=".51" stop-color="#C33269"/><stop offset=".6" stop-color="#D7243E"/><stop offset=".88" stop-color="#F9A326"/><stop offset="1" stop-color="#F9DD26"/></linearGradient><clipPath id="clip0"><path fill="#fff" d="M0 0h72v72H0z"/></clipPath><filter id="filter0_f" x="9.582" y="9.059" width="17.167" height="17.632" filterUnits="userSpaceOnUse" color-interpolation-filters="sRGB"><feFlood flood-opacity="0" result="BackgroundImageFix"/><feBlend in="SourceGraphic" in2="BackgroundImageFix" result="shape"/><feGaussianBlur stdDeviation=".5" result="effect1_foregroundBlur"/></filter></defs></svg>