<svg width="438" height="349" viewBox="0 0 438 349" fill="none" xmlns="http://www.w3.org/2000/svg">
<path d="M379.932 104.739L355.079 96.3733C353.381 95.8071 351.502 95.867 349.853 96.5398C348.204 97.2127 346.919 98.4439 346.278 99.9644L342.372 109.302C341.742 110.827 341.809 112.512 342.559 113.992C343.308 115.472 344.68 116.626 346.374 117.202L352.384 119.224C354.221 122.59 355.04 125.195 356.032 125.526C357.024 125.857 359.943 124.146 363.399 122.928L371.227 125.561C372.925 126.126 374.803 126.066 376.451 125.394C378.1 124.722 379.386 123.492 380.028 121.973L383.93 112.631C384.561 111.109 384.495 109.424 383.746 107.945C382.996 106.466 381.625 105.313 379.932 104.739Z" fill="url(#paint0_linear)"/>
<path d="M371.67 112.083C372.716 109.62 371.351 107.14 369.194 106.402C368.322 106.101 367.366 106.059 366.465 106.283C365.565 106.508 364.77 106.986 364.196 107.647C364.259 106.81 364.021 105.977 363.516 105.271C363.012 104.565 362.267 104.023 361.393 103.725C359.236 102.983 356.395 104.018 355.326 106.485C353.742 110.213 358.298 116.664 359.682 117.65L359.763 117.706C359.802 117.729 359.843 117.75 359.886 117.768C359.93 117.781 359.975 117.79 360.021 117.795H360.124C361.897 117.895 370.086 115.808 371.67 112.083Z" fill="#FCFCFC"/>
<path d="M244.85 186.122L219.997 177.756C218.299 177.19 216.42 177.25 214.771 177.923C213.122 178.596 211.837 179.827 211.196 181.347L207.29 190.686C206.66 192.21 206.727 193.896 207.477 195.375C208.226 196.855 209.598 198.009 211.292 198.585L217.302 200.607C219.139 203.973 219.958 206.578 220.95 206.909C221.942 207.24 224.86 205.529 228.317 204.312L236.145 206.944C237.843 207.509 239.721 207.449 241.369 206.777C243.018 206.105 244.304 204.875 244.946 203.356L248.848 194.014C249.479 192.492 249.413 190.807 248.664 189.328C247.914 187.849 246.543 186.696 244.85 186.122Z" fill="url(#paint1_linear)"/>
<path d="M236.586 193.466C237.632 191.003 236.267 188.522 234.11 187.784C233.238 187.483 232.282 187.442 231.381 187.666C230.481 187.89 229.686 188.368 229.112 189.03C229.175 188.193 228.937 187.36 228.432 186.653C227.928 185.947 227.183 185.405 226.309 185.108C224.152 184.366 221.311 185.401 220.242 187.867C218.658 191.596 223.214 198.047 224.598 199.033L224.679 199.088C224.718 199.112 224.759 199.133 224.802 199.15C224.846 199.163 224.891 199.172 224.937 199.178H225.04C226.813 199.278 235.002 197.191 236.586 193.466Z" fill="#FCFCFC"/>
<path d="M155.612 72.6942L136.931 79.4307C135.657 79.894 134.622 80.7824 134.051 81.902C133.48 83.0216 133.419 84.2812 133.883 85.4057L136.746 92.2994C137.218 93.4211 138.174 94.314 139.405 94.783C140.637 95.2521 142.045 95.2594 143.322 94.8034L147.838 93.1738C150.716 94.1809 152.599 95.2344 153.343 94.964C154.087 94.6937 154.815 92.4275 156.116 90.1864L161.999 88.063C163.272 87.5996 164.307 86.7115 164.878 85.5925C165.449 84.4735 165.511 83.2145 165.048 82.09L162.181 75.1961C161.711 74.0747 160.756 73.182 159.525 72.7132C158.294 72.2444 156.887 72.2375 155.612 72.6942Z" fill="url(#paint2_linear)"/>
<path d="M154.914 80.4781C154.166 78.6492 152.037 77.9104 150.407 78.489C149.746 78.7213 149.179 79.1349 148.789 79.6685C148.399 80.2021 148.207 80.8275 148.24 81.4523C147.82 80.964 147.23 80.6154 146.558 80.4579C145.886 80.3005 145.167 80.3425 144.507 80.5779C142.875 81.1546 141.821 83.0185 142.558 84.8598C143.689 87.6291 149.799 89.0917 151.125 89.0019L151.201 88.9954C151.236 88.9906 151.271 88.9832 151.305 88.9733C151.337 88.9604 151.368 88.9449 151.397 88.9271L151.456 88.8797C152.519 88.1262 156.043 83.2455 154.914 80.4781Z" fill="#FCFCFC"/>
<path d="M142.392 191.688L128.069 184.473C127.09 183.983 125.967 183.791 124.944 183.94C123.922 184.088 123.084 184.565 122.614 185.266L119.739 189.573C119.274 190.277 119.215 191.146 119.576 191.991C119.936 192.836 120.686 193.587 121.662 194.082L125.125 195.826C126.024 197.764 126.359 199.191 126.931 199.478C127.503 199.764 129.342 199.236 131.474 199.023L135.985 201.294C136.964 201.784 138.087 201.975 139.109 201.827C140.131 201.679 140.969 201.203 141.44 200.503L144.313 196.193C144.778 195.49 144.837 194.622 144.477 193.778C144.117 192.933 143.367 192.182 142.392 191.688Z" fill="url(#paint3_linear)"/>
<path d="M136.965 194.329C137.759 193.102 137.134 191.622 135.917 191.005C135.425 190.754 134.864 190.635 134.317 190.666C133.771 190.696 133.267 190.874 132.881 191.174C132.979 190.728 132.899 190.253 132.653 189.82C132.406 189.387 132.007 189.019 131.513 188.769C130.296 188.15 128.547 188.423 127.739 189.649C126.535 191.506 128.753 195.456 129.498 196.129L129.541 196.167C129.562 196.184 129.585 196.199 129.609 196.213C129.634 196.225 129.66 196.234 129.686 196.242L129.748 196.252C130.785 196.485 135.762 196.184 136.965 194.329Z" fill="#FCFCFC"/>
<path d="M235.705 120.754L220.382 124.386C219.337 124.636 218.389 125.224 217.745 126.019C217.101 126.815 216.815 127.755 216.947 128.633L217.776 134.018C217.915 134.894 218.462 135.636 219.297 136.081C220.132 136.527 221.188 136.639 222.234 136.394L225.939 135.515C227.907 136.489 229.12 137.421 229.731 137.275C230.341 137.129 231.322 135.486 232.73 133.904L237.555 132.759C238.6 132.509 239.548 131.922 240.192 131.126C240.835 130.331 241.123 129.392 240.991 128.514L240.16 123.128C240.022 122.252 239.476 121.511 238.641 121.066C237.806 120.621 236.751 120.509 235.705 120.754Z" fill="url(#paint4_linear)"/>
<path d="M233.677 126.568C233.457 125.126 231.989 124.393 230.651 124.695C230.11 124.816 229.604 125.081 229.21 125.452C228.816 125.822 228.553 126.278 228.462 126.752C228.236 126.349 227.857 126.037 227.379 125.863C226.902 125.689 226.352 125.661 225.81 125.784C224.471 126.085 223.327 127.404 223.536 128.854C223.87 131.037 228.204 132.645 229.221 132.687L229.279 132.688C229.307 132.687 229.334 132.685 229.362 132.68C229.388 132.673 229.414 132.664 229.439 132.653L229.493 132.622C230.436 132.141 234.01 128.749 233.677 126.568Z" fill="#FCFCFC"/>
<path d="M273.36 243.38L255.256 250.836C254.022 251.349 253.046 252.27 252.54 253.398C252.035 254.526 252.042 255.77 252.56 256.858L255.752 263.527C256.277 264.612 257.269 265.45 258.511 265.859C259.753 266.267 261.144 266.213 262.382 265.707L266.758 263.904C269.655 264.771 271.571 265.727 272.292 265.428C273.013 265.129 273.613 262.863 274.781 260.598L280.481 258.248C281.715 257.735 282.691 256.815 283.196 255.687C283.702 254.559 283.696 253.316 283.18 252.228L279.983 245.559C279.459 244.474 278.469 243.636 277.228 243.228C275.986 242.82 274.596 242.875 273.36 243.38Z" fill="url(#paint5_linear)"/>
<path d="M273.079 251.075C272.244 249.305 270.103 248.67 268.523 249.312C267.883 249.57 267.345 250.003 266.988 250.547C266.631 251.09 266.474 251.715 266.54 252.33C266.099 251.867 265.498 251.549 264.826 251.423C264.154 251.298 263.446 251.371 262.807 251.632C261.225 252.272 260.283 254.157 261.107 255.94C262.37 258.621 268.482 259.795 269.786 259.648L269.861 259.638C269.895 259.632 269.929 259.623 269.962 259.612C269.993 259.598 270.023 259.581 270.05 259.562L270.106 259.513C271.117 258.723 274.34 253.755 273.079 251.075Z" fill="#FCFCFC"/>
<path d="M2.99756 194.258L19.8209 188.595C20.9704 188.212 22.2423 188.252 23.3586 188.708C24.4749 189.163 25.3448 189.997 25.7783 191.026L28.4226 197.347C28.8492 198.379 28.8037 199.52 28.2962 200.522C27.7886 201.524 26.8601 202.305 25.7133 202.695L21.6454 204.063C20.4013 206.342 19.8469 208.105 19.1755 208.329C18.504 208.553 16.5286 207.395 14.1888 206.571L8.88991 208.353C7.7407 208.735 6.46942 208.695 5.35337 208.24C4.23733 207.785 3.36709 206.952 2.9325 205.924L0.290836 199.6C-0.136408 198.57 -0.0915337 197.429 0.415655 196.428C0.922842 195.427 1.8511 194.647 2.99756 194.258Z" fill="url(#paint6_linear)"/>
<path d="M8.59577 199.229C7.88789 197.562 8.81178 195.883 10.2718 195.383C10.8619 195.179 11.5094 195.151 12.1187 195.303C12.728 195.455 13.2666 195.779 13.6551 196.226C13.6122 195.66 13.7735 195.096 14.1151 194.618C14.4567 194.14 14.9606 193.773 15.5523 193.571C17.0123 193.069 18.9356 193.77 19.6591 195.439C20.7313 197.963 17.6473 202.33 16.7104 202.998L16.6558 203.035C16.6294 203.051 16.6015 203.065 16.5725 203.077C16.5428 203.086 16.5123 203.092 16.4814 203.096H16.4111C15.2114 203.164 9.66801 201.751 8.59577 199.229Z" fill="#FCFCFC"/>
<path d="M192.965 165.578L174.239 171.495C172.96 171.9 171.863 172.678 171.187 173.659C170.511 174.64 170.311 175.745 170.63 176.73L172.62 182.769C172.947 183.753 173.766 184.536 174.9 184.947C176.033 185.359 177.388 185.365 178.668 184.965L183.195 183.538C185.856 184.418 187.576 185.329 188.304 185.118C189.033 184.906 190.012 182.901 191.51 180.933L197.385 179.035C198.664 178.629 199.761 177.851 200.437 176.87C201.113 175.889 201.313 174.785 200.993 173.799L199.008 167.758C198.675 166.78 197.854 166.003 196.723 165.595C195.592 165.187 194.242 165.181 192.965 165.578Z" fill="url(#paint7_linear)"/>
<path d="M180.029 176.191L181.499 180.566C181.598 180.86 181.994 181.001 182.384 180.881L184.479 180.238C184.869 180.118 185.105 179.783 185.006 179.49L183.536 175.115C183.438 174.821 183.042 174.68 182.652 174.8L180.557 175.443C180.167 175.562 179.931 175.898 180.029 176.191Z" fill="#FCFCFC"/>
<path d="M190.747 173.506L190.645 173.564C190.874 173.442 191.058 173.26 191.166 173.05C191.274 172.84 191.299 172.614 191.238 172.411C191.176 172.209 191.031 172.042 190.828 171.94C190.625 171.837 190.376 171.805 190.123 171.849L186.803 172.997C187.146 172.2 187.261 171.37 187.138 170.584C186.802 169.483 185.891 169.121 185.392 169.219C185.179 169.253 184.978 169.354 184.827 169.502C184.677 169.65 184.588 169.834 184.579 170.018C184.544 170.399 184.975 170.943 184.954 171.201C184.91 171.599 184.335 172.305 183.644 173.712C183.289 174.486 183.239 175.304 183.504 176.026L183.969 177.547L184.426 179.067L184.644 179.773C184.665 179.843 184.703 179.906 184.755 179.96C184.807 180.014 184.872 180.056 184.947 180.085C185.022 180.114 185.105 180.129 185.191 180.129C185.277 180.129 185.365 180.113 185.45 180.084L191.621 177.955C191.722 177.923 191.818 177.874 191.902 177.811C191.987 177.749 192.059 177.674 192.113 177.591C192.168 177.508 192.204 177.419 192.22 177.329C192.236 177.239 192.231 177.15 192.206 177.067C192.18 176.984 192.135 176.908 192.072 176.845C192.01 176.783 191.931 176.733 191.841 176.7C191.751 176.668 191.652 176.652 191.549 176.655C191.446 176.657 191.342 176.678 191.242 176.715L191.339 176.661C191.466 176.623 191.587 176.565 191.694 176.489C191.8 176.412 191.891 176.32 191.961 176.218C192.03 176.115 192.077 176.004 192.097 175.892C192.118 175.78 192.112 175.669 192.081 175.565C192.049 175.462 191.992 175.368 191.914 175.29C191.835 175.212 191.736 175.152 191.624 175.112C191.511 175.073 191.387 175.055 191.258 175.061C191.13 175.066 191 175.094 190.877 175.143L191.217 175.025C191.344 174.987 191.465 174.929 191.572 174.853C191.679 174.777 191.769 174.684 191.839 174.582C191.908 174.479 191.955 174.368 191.975 174.256C191.996 174.144 191.99 174.033 191.959 173.929C191.927 173.826 191.87 173.732 191.792 173.654C191.713 173.577 191.614 173.516 191.502 173.477C191.389 173.437 191.265 173.419 191.136 173.425C191.008 173.43 190.878 173.458 190.755 173.508L190.747 173.506Z" fill="#FCFCFC"/>
<path d="M215.965 81.2798L199.756 86.4013C198.65 86.7521 197.7 87.4258 197.115 88.2749C196.53 89.1241 196.356 90.0798 196.633 90.9331L198.355 96.1598C198.638 97.0112 199.348 97.6892 200.328 98.0454C201.309 98.4016 202.482 98.4072 203.59 98.061L207.509 96.8253C209.812 97.5874 211.301 98.376 211.931 98.1927C212.561 98.0093 213.409 96.274 214.706 94.5708L219.791 92.9275C220.898 92.5766 221.848 91.903 222.433 91.0538C223.018 90.2046 223.191 89.2489 222.914 88.3957L221.196 83.1668C220.907 82.3205 220.196 81.6481 219.218 81.2949C218.239 80.9418 217.07 80.9363 215.965 81.2798Z" fill="url(#paint8_linear)"/>
<path d="M204.769 90.4668L206.041 94.2533C206.126 94.5075 206.469 94.6297 206.806 94.5261L208.62 93.9696C208.957 93.866 209.162 93.576 209.076 93.3218L207.804 89.5352C207.719 89.281 207.376 89.1589 207.038 89.2624L205.225 89.8189C204.887 89.9225 204.683 90.2125 204.769 90.4668Z" fill="#FCFCFC"/>
<path d="M214.046 88.1431L213.957 88.1929C214.155 88.0872 214.315 87.9298 214.408 87.7479C214.502 87.5659 214.524 87.3705 214.47 87.1952C214.417 87.0199 214.291 86.8756 214.115 86.7868C213.939 86.6981 213.724 86.6705 213.505 86.7088L210.632 87.7019C210.928 87.0118 211.028 86.2934 210.922 85.6135C210.631 84.6609 209.842 84.3471 209.41 84.4318C209.226 84.4613 209.052 84.5489 208.921 84.6771C208.791 84.8052 208.714 84.9646 208.706 85.1234C208.676 85.4537 209.049 85.9242 209.031 86.1477C208.993 86.4917 208.496 87.1034 207.898 88.3211C207.59 88.991 207.547 89.699 207.776 90.3236L208.178 91.6402L208.575 92.9558L208.763 93.5669C208.781 93.6276 208.814 93.6826 208.859 93.729C208.904 93.7754 208.96 93.8122 209.025 93.8372C209.09 93.8622 209.162 93.8751 209.236 93.875C209.311 93.8749 209.387 93.8618 209.461 93.8366L214.802 91.9935C214.889 91.9656 214.972 91.9234 215.045 91.8694C215.119 91.8153 215.181 91.7505 215.228 91.6788C215.275 91.6071 215.307 91.5299 215.32 91.4519C215.334 91.3739 215.33 91.2967 215.308 91.2247C215.286 91.1528 215.247 91.0877 215.192 91.0332C215.138 90.9788 215.07 90.9361 214.993 90.9077C214.915 90.8793 214.829 90.8659 214.74 90.8681C214.651 90.8703 214.56 90.8882 214.474 90.9206L214.558 90.8732C214.668 90.8409 214.772 90.7903 214.865 90.7243C214.957 90.6584 215.036 90.5786 215.096 90.4898C215.156 90.401 215.196 90.3051 215.214 90.208C215.232 90.1109 215.227 90.0146 215.2 89.925C215.172 89.8354 215.123 89.7545 215.055 89.6871C214.987 89.6197 214.902 89.5673 214.804 89.5331C214.707 89.4989 214.599 89.4836 214.488 89.4883C214.377 89.4929 214.264 89.5173 214.158 89.5599L214.453 89.4573C214.562 89.425 214.667 89.3743 214.759 89.3084C214.852 89.2425 214.93 89.1627 214.99 89.0739C215.051 88.9851 215.091 88.8892 215.109 88.7921C215.126 88.695 215.121 88.5987 215.094 88.5091C215.067 88.4195 215.018 88.3385 214.95 88.2711C214.882 88.2037 214.796 88.1514 214.699 88.1172C214.601 88.083 214.493 88.0677 214.382 88.0724C214.271 88.077 214.159 88.1014 214.052 88.144L214.046 88.1431Z" fill="#FCFCFC"/>
<path d="M390.423 151.567L374.587 156.231C373.505 156.55 372.585 157.204 372.025 158.049C371.466 158.893 371.314 159.86 371.603 160.739L373.395 166.119C373.69 166.995 374.4 167.709 375.371 168.105C376.342 168.501 377.495 168.547 378.578 168.232L382.406 167.107C384.685 167.961 386.164 168.815 386.78 168.65C387.396 168.484 388.196 166.747 389.438 165.056L394.406 163.556C395.487 163.237 396.408 162.583 396.967 161.738C397.526 160.894 397.678 159.927 397.39 159.048L395.601 153.666C395.301 152.795 394.59 152.086 393.621 151.693C392.652 151.301 391.503 151.255 390.423 151.567Z" fill="url(#paint9_linear)"/>
<path d="M379.601 160.522L380.923 164.424C381.012 164.686 381.352 164.822 381.682 164.729L383.455 164.227C383.785 164.134 383.981 163.846 383.892 163.584L382.569 159.682C382.48 159.42 382.141 159.284 381.811 159.377L380.037 159.879C379.707 159.972 379.512 160.26 379.601 160.522Z" fill="#FCFCFC"/>
<path d="M388.669 158.482L388.583 158.53C388.776 158.43 388.93 158.275 389.019 158.093C389.107 157.911 389.125 157.713 389.07 157.533C389.014 157.352 388.888 157.201 388.713 157.104C388.538 157.007 388.326 156.971 388.112 157.002L385.303 157.908C385.582 157.216 385.667 156.488 385.551 155.792C385.247 154.811 384.465 154.463 384.042 154.533C383.862 154.557 383.692 154.64 383.566 154.765C383.44 154.891 383.367 155.051 383.362 155.212C383.339 155.547 383.715 156.04 383.701 156.267C383.669 156.616 383.191 157.221 382.625 158.439C382.335 159.11 382.305 159.83 382.542 160.474L382.962 161.83L383.376 163.184L383.572 163.813C383.591 163.876 383.624 163.933 383.669 163.982C383.715 164.031 383.771 164.07 383.835 164.098C383.899 164.126 383.97 164.142 384.043 164.144C384.117 164.147 384.192 164.137 384.263 164.114L389.483 162.431C389.569 162.406 389.65 162.366 389.721 162.314C389.792 162.262 389.852 162.198 389.897 162.127C389.942 162.055 389.971 161.978 389.983 161.899C389.996 161.82 389.99 161.741 389.967 161.667C389.944 161.593 389.904 161.525 389.85 161.468C389.796 161.41 389.728 161.364 389.651 161.333C389.574 161.301 389.489 161.284 389.402 161.283C389.314 161.282 389.226 161.297 389.141 161.327L389.223 161.282C389.331 161.253 389.432 161.205 389.522 161.141C389.612 161.078 389.688 160.999 389.745 160.911C389.803 160.823 389.84 160.726 389.856 160.628C389.872 160.53 389.865 160.432 389.837 160.339C389.808 160.247 389.759 160.163 389.69 160.092C389.622 160.021 389.537 159.964 389.441 159.926C389.344 159.887 389.238 159.868 389.129 159.869C389.019 159.869 388.909 159.89 388.805 159.93L389.094 159.836C389.201 159.807 389.303 159.759 389.392 159.695C389.482 159.632 389.558 159.553 389.616 159.465C389.673 159.377 389.711 159.281 389.727 159.182C389.742 159.084 389.736 158.986 389.707 158.894C389.679 158.801 389.629 158.717 389.561 158.646C389.493 158.575 389.408 158.518 389.311 158.48C389.214 158.442 389.108 158.422 388.999 158.423C388.89 158.423 388.78 158.444 388.676 158.484L388.669 158.482Z" fill="#FCFCFC"/>
<path d="M126.405 147.648L111.268 153.938C110.235 154.369 109.344 155.075 108.792 155.902C108.239 156.73 108.069 157.611 108.319 158.354L109.873 162.9C110.128 163.641 110.782 164.181 111.692 164.402C112.602 164.623 113.693 164.508 114.728 164.082L118.388 162.563C120.524 163.016 121.903 163.576 122.492 163.345C123.08 163.115 123.885 161.46 125.108 159.788L129.857 157.781C130.891 157.351 131.781 156.645 132.334 155.817C132.887 154.99 133.057 154.109 132.807 153.366L131.256 148.817C130.995 148.082 130.34 147.547 129.432 147.328C128.524 147.109 127.436 147.224 126.405 147.648Z" fill="url(#paint10_linear)"/>
<path d="M115.895 157.107L117.044 160.393C117.122 160.614 117.44 160.689 117.755 160.56L119.448 159.869C119.763 159.741 119.956 159.458 119.879 159.237L118.729 155.951C118.652 155.73 118.334 155.655 118.019 155.784L116.326 156.475C116.011 156.603 115.818 156.886 115.895 157.107Z" fill="#FCFCFC"/>
<path d="M124.555 154.041L124.473 154.095C124.658 153.979 124.808 153.821 124.896 153.647C124.985 153.473 125.007 153.294 124.959 153.141C124.911 152.989 124.796 152.871 124.633 152.81C124.47 152.748 124.269 152.746 124.066 152.803L121.381 154C121.664 153.346 121.763 152.687 121.671 152.084C121.408 151.255 120.677 151.054 120.274 151.176C120.103 151.221 119.94 151.319 119.817 151.448C119.694 151.577 119.621 151.729 119.612 151.873C119.581 152.175 119.925 152.56 119.906 152.764C119.867 153.079 119.398 153.683 118.831 154.844C118.538 155.481 118.491 156.125 118.699 156.665L119.062 157.811L119.418 158.958L119.588 159.489C119.605 159.542 119.635 159.589 119.676 159.626C119.717 159.663 119.77 159.69 119.83 159.706C119.89 159.722 119.956 159.726 120.026 159.718C120.096 159.71 120.167 159.69 120.235 159.66L125.224 157.438C125.306 157.404 125.383 157.357 125.452 157.301C125.521 157.244 125.579 157.179 125.624 157.109C125.668 157.04 125.698 156.967 125.712 156.895C125.725 156.823 125.722 156.754 125.702 156.691C125.682 156.629 125.646 156.574 125.596 156.53C125.547 156.487 125.484 156.455 125.411 156.438C125.339 156.42 125.259 156.417 125.176 156.429C125.093 156.44 125.009 156.466 124.929 156.504L125.007 156.452C125.11 156.412 125.207 156.355 125.294 156.286C125.381 156.217 125.455 156.136 125.512 156.05C125.568 155.964 125.607 155.873 125.624 155.783C125.642 155.694 125.638 155.607 125.613 155.529C125.589 155.451 125.544 155.383 125.481 155.33C125.418 155.276 125.339 155.237 125.249 155.217C125.158 155.196 125.058 155.194 124.955 155.209C124.851 155.225 124.746 155.259 124.647 155.309L124.922 155.185C125.025 155.144 125.122 155.088 125.209 155.019C125.296 154.95 125.37 154.869 125.426 154.783C125.483 154.696 125.521 154.606 125.539 154.516C125.556 154.427 125.553 154.34 125.528 154.262C125.503 154.184 125.458 154.116 125.396 154.062C125.333 154.009 125.254 153.97 125.163 153.95C125.073 153.929 124.973 153.926 124.869 153.942C124.766 153.958 124.661 153.992 124.561 154.041L124.555 154.041Z" fill="#FCFCFC"/>
<path d="M43.3643 76.4388L23.2936 80.6962C21.9231 80.9882 20.6652 81.6522 19.7949 82.5431C18.9245 83.4339 18.5125 84.4792 18.6489 85.4505L19.5155 91.4023C19.6593 92.372 20.3398 93.1867 21.4083 93.6683C22.4767 94.15 23.8463 94.2594 25.2176 93.9726L30.0691 92.9461C32.5939 93.9944 34.1618 95.0006 34.9387 94.8526C35.7156 94.7046 37.0873 92.8534 38.9763 91.0774L45.2813 89.7012C46.6518 89.4092 47.9097 88.7452 48.7801 87.8543C49.6504 86.9635 50.0624 85.9181 49.926 84.9469L49.0646 78.9931C48.9125 78.0286 48.2292 77.2198 47.1624 76.7418C46.0957 76.2637 44.7312 76.1549 43.3643 76.4388V76.4388Z" fill="url(#paint11_linear)"/>
<path d="M28.2575 85.6597L28.9156 89.9675C28.9598 90.2567 29.3339 90.4217 29.7511 90.3361L31.9932 89.8756C32.4105 89.7899 32.7129 89.486 32.6687 89.1967L32.0106 84.8889C31.9664 84.5997 31.5924 84.4347 31.1751 84.5204L28.933 84.9808C28.5158 85.0665 28.2133 85.3705 28.2575 85.6597Z" fill="#FCFCFC"/>
<path d="M39.6181 83.8797L39.5039 83.9274C39.7583 83.8271 39.9791 83.6663 40.1283 83.4726C40.2775 83.2789 40.3459 83.0642 40.3219 82.8653C40.2978 82.6664 40.1828 82.4956 39.9964 82.3822C39.8101 82.2688 39.564 82.2198 39.3003 82.2436L35.7224 83.0985C36.2202 82.3589 36.4942 81.5711 36.5189 80.8083C36.3869 79.7273 35.5335 79.312 35.0096 79.3689C34.7883 79.3859 34.5652 79.4681 34.3846 79.5991C34.204 79.73 34.0793 79.9001 34.0352 80.0755C33.9276 80.439 34.2614 80.9925 34.1914 81.2387C34.071 81.6168 33.3555 82.2523 32.3896 83.551C31.883 84.2673 31.6777 85.0485 31.8088 85.7605L31.9914 87.2545L32.1668 88.7468L32.2534 89.4404C32.2615 89.5092 32.2875 89.573 32.3299 89.6283C32.3723 89.6835 32.4303 89.7291 32.5006 89.7624C32.5709 89.7957 32.652 89.8161 32.7395 89.8224C32.8269 89.8286 32.9189 89.8207 33.0101 89.799L39.6592 88.2127C39.7678 88.1894 39.874 88.1497 39.9715 88.096C40.069 88.0424 40.1557 87.9758 40.2267 87.9004C40.2976 87.8249 40.3512 87.7421 40.3843 87.6568C40.4174 87.5715 40.4294 87.4855 40.4194 87.4039C40.4095 87.3223 40.3778 87.2467 40.3264 87.1817C40.275 87.1167 40.2048 87.0636 40.1201 87.0255C40.0353 86.9874 39.9377 86.9651 39.8331 86.9599C39.7284 86.9547 39.6188 86.9668 39.5108 86.9954L39.6197 86.95C39.7551 86.9236 39.8882 86.8764 40.0107 86.8113C40.1333 86.7461 40.2428 86.6644 40.3325 86.5711C40.4222 86.4778 40.4901 86.3749 40.5323 86.2688C40.5744 86.1626 40.5897 86.0555 40.5774 85.9538C40.565 85.8522 40.5253 85.7582 40.4605 85.6777C40.3957 85.5971 40.3073 85.5318 40.2007 85.4855C40.0941 85.4393 39.9715 85.4132 39.8405 85.4088C39.7095 85.4044 39.5728 85.4218 39.4388 85.46L39.8062 85.3714C39.9416 85.345 40.0747 85.2978 40.1973 85.2326C40.3199 85.1674 40.4293 85.0857 40.519 84.9924C40.6087 84.8992 40.6767 84.7963 40.7188 84.6901C40.7609 84.584 40.7763 84.4768 40.7639 84.3752C40.7516 84.2735 40.7118 84.1796 40.647 84.099C40.5823 84.0185 40.4939 83.9531 40.3873 83.9069C40.2806 83.8606 40.1581 83.8345 40.0271 83.8301C39.896 83.8257 39.7593 83.8431 39.6253 83.8813L39.6181 83.8797Z" fill="#FCFCFC"/>
<path d="M359.791 198.836L341.741 203.399C340.508 203.711 339.359 204.373 338.544 205.24C337.729 206.107 337.314 207.107 337.391 208.023L337.89 213.636C337.973 214.551 338.541 215.304 339.47 215.732C340.398 216.16 341.612 216.227 342.845 215.919L347.208 214.818C349.406 215.744 350.755 216.655 351.453 216.495C352.151 216.334 353.456 214.545 355.218 212.813L360.89 211.343C362.122 211.03 363.272 210.368 364.087 209.501C364.902 208.635 365.316 207.634 365.24 206.718L364.746 201.103C364.655 200.194 364.084 199.446 363.156 199.022C362.229 198.597 361.02 198.531 359.791 198.836Z" fill="url(#paint12_linear)"/>
<path d="M346.093 207.832L346.717 212.311C346.759 212.611 347.173 212.784 347.642 212.697L350.164 212.228C350.633 212.141 350.979 211.826 350.937 211.525L350.313 207.047C350.271 206.747 349.856 206.574 349.387 206.661L346.866 207.13C346.397 207.217 346.051 207.532 346.093 207.832Z" fill="#FCFCFC"/>
<path d="M356.043 205.638L355.931 205.69C356.18 205.58 356.399 205.409 356.55 205.204C356.701 204.999 356.774 204.774 356.757 204.568C356.74 204.361 356.634 204.186 356.457 204.071C356.281 203.957 356.044 203.911 355.787 203.941L352.293 204.902C352.799 204.122 353.09 203.297 353.138 202.502C353.045 201.38 352.231 200.964 351.722 201.034C351.507 201.056 351.288 201.146 351.109 201.286C350.929 201.426 350.803 201.605 350.755 201.789C350.639 202.169 350.944 202.739 350.869 202.997C350.74 203.393 350.026 204.069 349.049 205.44C348.535 206.195 348.311 207.013 348.415 207.751L348.544 209.303L348.666 210.853L348.728 211.573C348.733 211.645 348.756 211.711 348.796 211.767C348.835 211.824 348.89 211.87 348.957 211.904C349.024 211.937 349.102 211.956 349.186 211.961C349.271 211.966 349.36 211.956 349.449 211.931L355.944 210.148C356.05 210.121 356.154 210.078 356.25 210.02C356.346 209.962 356.432 209.891 356.504 209.811C356.575 209.731 356.629 209.644 356.664 209.555C356.699 209.465 356.713 209.375 356.706 209.291C356.699 209.206 356.671 209.128 356.623 209.061C356.576 208.994 356.509 208.941 356.428 208.903C356.347 208.865 356.254 208.843 356.152 208.84C356.051 208.837 355.944 208.851 355.839 208.883L355.946 208.834C356.078 208.804 356.208 208.752 356.329 208.682C356.45 208.611 356.559 208.524 356.649 208.425C356.739 208.326 356.808 208.218 356.852 208.107C356.896 207.995 356.915 207.883 356.906 207.778C356.897 207.672 356.862 207.575 356.801 207.493C356.741 207.41 356.658 207.344 356.556 207.298C356.454 207.252 356.336 207.227 356.209 207.225C356.082 207.223 355.949 207.244 355.818 207.286L356.177 207.187C356.309 207.157 356.44 207.105 356.561 207.035C356.682 206.964 356.79 206.877 356.88 206.778C356.97 206.679 357.039 206.571 357.083 206.46C357.128 206.348 357.146 206.236 357.137 206.131C357.129 206.025 357.093 205.928 357.033 205.846C356.973 205.763 356.889 205.697 356.787 205.651C356.685 205.605 356.568 205.58 356.441 205.578C356.314 205.576 356.181 205.597 356.05 205.639L356.043 205.638Z" fill="#FCFCFC"/>
<path d="M426.791 250.821L408.741 255.384C407.508 255.697 406.359 256.359 405.544 257.226C404.729 258.093 404.314 259.093 404.391 260.009L404.89 265.622C404.973 266.536 405.541 267.29 406.47 267.718C407.398 268.145 408.612 268.213 409.845 267.905L414.208 266.804C416.406 267.73 417.755 268.641 418.453 268.48C419.151 268.32 420.456 266.531 422.218 264.799L427.89 263.329C429.122 263.016 430.272 262.354 431.087 261.487C431.902 260.621 432.316 259.62 432.24 258.704L431.746 253.089C431.655 252.18 431.084 251.432 430.156 251.008C429.229 250.583 428.02 250.516 426.791 250.821Z" fill="url(#paint13_linear)"/>
<path d="M413.093 259.819L413.717 264.297C413.759 264.597 414.173 264.77 414.642 264.683L417.164 264.214C417.633 264.127 417.979 263.812 417.937 263.512L417.313 259.033C417.271 258.733 416.856 258.56 416.387 258.647L413.866 259.116C413.397 259.203 413.051 259.518 413.093 259.819Z" fill="#FCFCFC"/>
<path d="M423.043 257.624L422.931 257.676C423.18 257.566 423.399 257.395 423.55 257.19C423.701 256.985 423.774 256.76 423.757 256.554C423.74 256.347 423.634 256.172 423.457 256.058C423.281 255.943 423.044 255.897 422.787 255.927L419.293 256.888C419.799 256.109 420.09 255.283 420.138 254.488C420.045 253.366 419.231 252.95 418.722 253.02C418.507 253.042 418.288 253.132 418.109 253.272C417.929 253.412 417.803 253.592 417.755 253.775C417.639 254.156 417.944 254.725 417.869 254.983C417.74 255.379 417.026 256.055 416.049 257.426C415.535 258.182 415.311 258.999 415.415 259.737L415.544 261.289L415.666 262.839L415.728 263.559C415.733 263.631 415.756 263.697 415.796 263.753C415.835 263.81 415.89 263.856 415.957 263.89C416.024 263.923 416.102 263.942 416.186 263.947C416.271 263.952 416.36 263.942 416.449 263.918L422.944 262.134C423.05 262.107 423.154 262.064 423.25 262.006C423.346 261.948 423.432 261.877 423.504 261.797C423.575 261.717 423.629 261.63 423.664 261.541C423.699 261.451 423.713 261.361 423.706 261.277C423.699 261.192 423.671 261.114 423.623 261.047C423.576 260.981 423.509 260.927 423.428 260.889C423.347 260.851 423.254 260.829 423.152 260.826C423.051 260.823 422.944 260.838 422.839 260.869L422.946 260.82C423.078 260.79 423.208 260.738 423.329 260.668C423.45 260.598 423.559 260.51 423.649 260.411C423.739 260.312 423.808 260.204 423.852 260.093C423.896 259.981 423.915 259.87 423.906 259.764C423.897 259.658 423.862 259.561 423.801 259.479C423.741 259.396 423.658 259.33 423.556 259.284C423.454 259.238 423.336 259.213 423.209 259.211C423.082 259.209 422.949 259.23 422.818 259.273L423.177 259.173C423.309 259.143 423.44 259.091 423.561 259.021C423.682 258.95 423.79 258.863 423.88 258.764C423.97 258.665 424.039 258.557 424.083 258.446C424.128 258.334 424.146 258.222 424.137 258.117C424.129 258.011 424.093 257.914 424.033 257.832C423.973 257.749 423.889 257.683 423.787 257.637C423.685 257.591 423.568 257.566 423.441 257.564C423.314 257.562 423.181 257.583 423.05 257.625L423.043 257.624Z" fill="#FCFCFC"/>
<path d="M257.371 169.419L257.386 169.425C258.515 169.834 259.521 170.245 260.386 170.599C260.796 170.767 261.174 170.921 261.518 171.056C262.055 171.267 262.51 171.431 262.877 171.525C263.247 171.62 263.519 171.642 263.696 171.578C263.782 171.547 263.866 171.484 263.949 171.389C264.032 171.293 264.111 171.168 264.19 171.015C264.346 170.709 264.495 170.3 264.652 169.821C264.734 169.571 264.818 169.301 264.906 169.018C265.155 168.221 265.438 167.313 265.806 166.411L265.812 166.395L265.829 166.389L271.848 164.231L257.371 169.419ZM257.371 169.419L257.356 169.425M257.371 169.419L257.356 169.425M257.356 169.425L252.734 171.082C251.438 171.541 249.914 171.488 248.492 170.934C247.07 170.379 245.869 169.369 245.15 168.122L240.745 160.417C240.036 159.166 239.87 157.785 240.281 156.577C240.692 155.369 241.647 154.429 242.938 153.961M257.356 169.425L242.938 153.961M242.938 153.961L262.052 147.11C262.052 147.11 262.052 147.11 262.052 147.11C263.347 146.654 264.87 146.708 266.29 147.262C267.71 147.817 268.91 148.827 269.629 150.072L242.938 153.961ZM269.629 150.072L274.035 157.776L269.629 150.072ZM274.502 161.614C274.092 162.822 273.138 163.763 271.848 164.231L274.035 157.776C274.745 159.026 274.912 160.406 274.502 161.614Z" fill="#FCFCFC" stroke="#A3A3A3" stroke-width="0.2"/>
<path d="M264.514 157.392C262.719 153.54 258.174 151.371 254.362 152.549C250.55 153.726 248.915 157.804 250.71 161.657C252.505 165.51 257.05 167.678 260.862 166.501C264.674 165.323 266.309 161.245 264.514 157.392Z" fill="url(#paint14_linear)"/>
<path d="M261.138 159.413C262.256 160.021 262.668 162.751 260.01 163.848C257.352 164.946 255.274 162.369 255.385 161.632C255.534 160.624 257.365 160.891 258.327 160.465C259.289 160.038 260.037 158.82 261.138 159.413Z" fill="#1F1F40"/>
<path d="M257.863 161.776C257.531 162.418 257.463 163.174 257.668 163.926C258.471 164.167 259.3 164.124 259.98 163.805C261.907 162.993 262.231 161.347 261.847 160.247C261.521 160.178 261.192 160.145 260.868 160.147C260.221 160.152 259.61 160.304 259.086 160.587C258.562 160.871 258.142 161.279 257.863 161.776Z" fill="#FF2936"/>
<path d="M253.329 155.838C253.126 155.884 252.942 155.968 252.787 156.084C252.633 156.201 252.511 156.349 252.43 156.518C252.016 157.203 252.473 158.283 252.473 158.283C252.172 158.072 251.859 157.876 251.536 157.698C251.27 157.568 250.98 157.503 250.698 157.51C250.416 157.517 250.153 157.597 249.941 157.74C249.729 157.883 249.575 158.083 249.498 158.317C249.42 158.552 249.423 158.811 249.504 159.066C249.753 159.817 250.565 160.324 251.358 160.646C252.38 160.997 253.419 161.283 254.466 161.502C255.047 160.449 255.473 158.718 255.128 157.471C255.039 157.069 254.838 156.679 254.544 156.339C254.396 156.17 254.204 156.034 253.99 155.946C253.776 155.858 253.547 155.82 253.329 155.838Z" fill="#FF2936"/>
<path d="M253.316 155.778C253.163 155.801 253.022 155.854 252.902 155.934C253.31 156.059 253.678 156.303 253.942 156.624C254.298 157.082 254.51 157.606 254.551 158.129C254.592 158.653 254.461 159.153 254.173 159.567C253.913 159.972 253.517 160.282 253.031 160.461C252.546 160.64 251.992 160.68 251.436 160.576C251.191 160.516 250.95 160.433 250.718 160.327C250.919 160.437 251.126 160.536 251.338 160.621C252.363 160.974 253.404 161.261 254.454 161.479C255.036 160.418 255.464 158.674 255.117 157.418C255.028 157.013 254.826 156.621 254.532 156.278C254.383 156.109 254.191 155.973 253.977 155.885C253.763 155.797 253.535 155.76 253.316 155.778Z" fill="#BF101F"/>
<path d="M260.5 153.055C260.281 153.036 260.067 153.056 259.87 153.114C259.673 153.173 259.497 153.268 259.352 153.395C258.69 153.887 258.732 154.979 258.732 154.979C258.513 154.701 258.275 154.433 258.021 154.177C257.806 153.981 257.542 153.836 257.259 153.758C256.976 153.68 256.686 153.673 256.422 153.737C256.158 153.801 255.931 153.934 255.767 154.121C255.603 154.308 255.509 154.541 255.495 154.793C255.456 155.522 256.084 156.235 256.751 156.762C257.635 157.38 258.561 157.945 259.518 158.453C260.498 157.68 261.551 156.26 261.671 155.041C261.732 154.655 261.677 154.246 261.51 153.855C261.426 153.662 261.287 153.486 261.109 153.345C260.931 153.204 260.72 153.104 260.5 153.055Z" fill="#FF2936"/>
<path d="M260.479 152.922C260.32 152.895 260.161 152.899 260.013 152.931C260.373 153.169 260.649 153.501 260.795 153.872C260.982 154.395 261 154.935 260.847 155.423C260.694 155.911 260.377 156.325 259.935 156.613C259.526 156.902 259.016 157.065 258.465 157.081C257.914 157.097 257.346 156.966 256.83 156.704C256.608 156.574 256.399 156.424 256.206 156.257C256.369 156.415 256.543 156.565 256.726 156.705C257.618 157.334 258.551 157.909 259.516 158.426C260.504 157.636 261.565 156.183 261.686 154.938C261.747 154.544 261.691 154.127 261.523 153.728C261.434 153.529 261.289 153.35 261.105 153.208C260.921 153.066 260.704 152.967 260.479 152.922Z" fill="#BF101F"/>
<path d="M318.814 166.115L318.823 166.134C319.357 167.275 319.787 168.319 320.157 169.216C320.332 169.64 320.494 170.032 320.646 170.386C320.884 170.937 321.1 171.396 321.313 171.744C321.526 172.094 321.731 172.323 321.939 172.427C322.041 172.478 322.173 172.509 322.337 172.521C322.5 172.532 322.692 172.524 322.909 172.499C323.344 172.449 323.874 172.334 324.481 172.185C324.799 172.107 325.137 172.019 325.492 171.928C326.494 171.669 327.633 171.375 328.837 171.152L328.859 171.148L328.881 171.159L336.048 174.747L318.814 166.115ZM318.814 166.115L318.793 166.105M318.814 166.115L318.793 166.105M318.793 166.105L313.289 163.349C311.753 162.574 310.536 161.322 309.903 159.867C309.27 158.411 309.273 156.87 309.913 155.58L313.905 147.623C314.556 146.338 315.789 145.414 317.333 145.05C318.877 144.686 320.608 144.912 322.149 145.679M318.793 166.105L322.149 145.679M322.149 145.679L344.909 157.077C344.909 157.077 344.909 157.077 344.909 157.077C346.442 157.854 347.657 159.105 348.288 160.559C348.919 162.013 348.915 163.553 348.277 164.841L344.288 172.799C343.638 174.084 342.406 175.009 340.863 175.373C339.32 175.738 337.589 175.513 336.049 174.748L322.149 145.679ZM322.149 145.679C322.149 145.679 322.149 145.679 322.149 145.679M322.149 145.679L322.149 145.679" fill="#FCFCFC" stroke="#A3A3A3" stroke-width="0.2"/>
<path d="M335.737 164.668C337.799 161.273 336.341 156.696 332.478 154.444C328.616 152.193 323.814 153.121 321.751 156.516C319.689 159.912 321.147 164.489 325.01 166.74C328.872 168.991 333.674 168.064 335.737 164.668Z" fill="url(#paint15_linear)"/>
<path d="M331.173 163.116C331.488 164.365 329.144 166.258 325.898 164.743C322.652 163.228 323.488 160.078 324.302 159.746C325.414 159.289 326.644 160.918 327.848 161.45C329.051 161.982 330.858 161.888 331.173 163.116Z" fill="#1F1F40"/>
<path d="M325.961 161.703C325.113 161.803 324.364 162.188 323.831 162.797C324.233 163.604 324.917 164.268 325.739 164.647C327.985 165.774 329.751 165.082 330.466 164.121C330.275 163.81 330.05 163.517 329.796 163.249C329.289 162.716 328.674 162.295 328.006 162.026C327.337 161.757 326.635 161.646 325.961 161.703Z" fill="#FF2936"/>
<path d="M330.515 155.059C330.295 154.925 330.053 154.829 329.806 154.776C329.559 154.723 329.311 154.715 329.077 154.752C328.057 154.833 327.414 155.845 327.414 155.845C327.356 155.479 327.272 155.113 327.162 154.748C327.056 154.459 326.866 154.188 326.613 153.968C326.361 153.748 326.056 153.587 325.733 153.504C325.411 153.421 325.084 153.419 324.791 153.498C324.498 153.577 324.25 153.735 324.075 153.952C323.569 154.601 323.787 155.551 324.167 156.376C324.718 157.4 325.347 158.398 326.048 159.363C327.568 159.193 329.607 158.494 330.508 157.47C330.817 157.158 331.018 156.764 331.091 156.327C331.124 156.107 331.088 155.873 330.987 155.65C330.885 155.426 330.722 155.222 330.515 155.059Z" fill="#FF2936"/>
<path d="M330.319 154.974C330.167 154.864 329.997 154.782 329.821 154.734C330.051 155.139 330.135 155.582 330.06 155.989C329.935 156.553 329.626 157.04 329.172 157.39C328.719 157.739 328.14 157.935 327.509 157.953C326.91 157.988 326.283 157.856 325.703 157.573C325.123 157.289 324.615 156.867 324.24 156.356C324.087 156.122 323.961 155.878 323.862 155.627C323.93 155.855 324.014 156.081 324.114 156.304C324.656 157.343 325.273 158.357 325.962 159.335C327.448 159.164 329.44 158.455 330.318 157.417C330.62 157.1 330.815 156.7 330.885 156.256C330.916 156.034 330.879 155.797 330.78 155.571C330.68 155.346 330.521 155.139 330.319 154.974Z" fill="#BF101F"/>
<path d="M337.099 159.694C336.927 159.508 336.721 159.35 336.492 159.229C336.264 159.107 336.018 159.024 335.769 158.985C334.715 158.754 333.696 159.442 333.696 159.442C333.774 159.101 333.826 158.752 333.852 158.397C333.853 158.108 333.763 157.811 333.592 157.539C333.42 157.268 333.174 157.033 332.882 156.862C332.589 156.69 332.262 156.59 331.939 156.571C331.615 156.553 331.308 156.617 331.052 156.757C330.312 157.164 330.172 158.091 330.244 158.937C330.419 160.011 330.68 161.085 331.025 162.151C332.626 162.466 334.919 162.451 336.202 161.816C336.628 161.633 336.975 161.344 337.207 160.977C337.32 160.794 337.37 160.578 337.351 160.352C337.331 160.126 337.245 159.898 337.099 159.694Z" fill="#FF2936"/>
<path d="M336.624 159.511C336.517 159.364 336.384 159.234 336.233 159.132C336.318 159.575 336.25 160.007 336.041 160.355C335.729 160.831 335.265 161.178 334.706 161.351C334.147 161.523 333.519 161.515 332.901 161.327C332.309 161.166 331.746 160.843 331.28 160.398C330.813 159.952 330.464 159.403 330.273 158.815C330.206 158.552 330.168 158.287 330.158 158.025C330.151 158.257 330.16 158.492 330.187 158.729C330.36 159.853 330.615 160.977 330.948 162.092C332.46 162.424 334.62 162.409 335.825 161.746C336.225 161.555 336.549 161.253 336.766 160.869C336.869 160.674 336.909 160.444 336.884 160.204C336.859 159.965 336.769 159.725 336.624 159.511Z" fill="#BF101F"/>
<path d="M73.814 211.827L73.8229 211.846C74.3574 212.987 74.7875 214.03 75.1571 214.928C75.3321 215.352 75.4936 215.744 75.6461 216.098C75.8841 216.649 76.1001 217.108 76.3125 217.456C76.5264 217.806 76.7305 218.035 76.939 218.139C77.0407 218.19 77.1729 218.221 77.3368 218.233C77.5004 218.244 77.6917 218.236 77.9089 218.211C78.3436 218.161 78.8742 218.046 79.4814 217.897C79.7989 217.819 80.137 217.731 80.4925 217.64C81.4938 217.381 82.6329 217.087 83.8371 216.864L83.8594 216.86L83.8812 216.871L91.0483 220.459L73.814 211.827ZM73.814 211.827L73.793 211.817M73.814 211.827L73.793 211.817M73.793 211.817L68.2887 209.061C66.7531 208.286 65.5355 207.034 64.9027 205.579C64.2698 204.123 64.2734 202.582 64.9127 201.292L68.9052 193.335C69.5563 192.05 70.789 191.126 72.3332 190.762C73.8772 190.398 75.6081 190.624 77.1489 191.391M73.793 211.817L77.1489 191.391M77.1491 191.391L99.9087 202.789C99.9087 202.789 99.9088 202.789 99.9088 202.789C101.442 203.566 102.657 204.817 103.288 206.271C103.919 207.725 103.915 209.264 103.277 210.553L99.2883 218.511C98.638 219.796 97.4062 220.721 95.8629 221.085C94.3198 221.45 92.5894 221.225 91.0486 220.459L77.1491 191.391ZM77.1491 191.391C77.149 191.391 77.149 191.391 77.1489 191.391M77.1491 191.391L77.1489 191.391" fill="#FCFCFC" stroke="#A3A3A3" stroke-width="0.2"/>
<path d="M90.7363 210.38C92.7988 206.985 91.3401 202.408 87.4781 200.156C83.6161 197.905 78.8133 198.833 76.7507 202.228C74.6881 205.624 76.1469 210.201 80.0089 212.452C83.8709 214.703 88.6737 213.776 90.7363 210.38Z" fill="url(#paint16_linear)"/>
<path d="M86.1727 208.827C86.4879 210.076 84.143 211.97 80.8974 210.455C77.6518 208.939 78.4878 205.789 79.3019 205.457C80.4138 205 81.6438 206.629 82.8473 207.162C84.0507 207.694 85.8572 207.6 86.1727 208.827Z" fill="#1F1F40"/>
<path d="M80.9609 207.415C80.1129 207.515 79.3634 207.899 78.8308 208.508C79.2324 209.316 79.9169 209.98 80.7383 210.359C82.984 211.485 84.7503 210.794 85.465 209.833C85.2741 209.522 85.0492 209.229 84.7951 208.961C84.2882 208.427 83.6737 208.007 83.0053 207.738C82.3369 207.468 81.635 207.357 80.9609 207.415Z" fill="#FF2936"/>
<path d="M85.5156 200.771C85.2948 200.637 85.0535 200.541 84.8062 200.488C84.559 200.435 84.3109 200.427 84.0767 200.464C83.0569 200.545 82.4132 201.557 82.4132 201.557C82.3553 201.191 82.2713 200.825 82.1616 200.461C82.056 200.171 81.8659 199.901 81.6132 199.681C81.3606 199.461 81.0555 199.3 80.7331 199.216C80.4108 199.133 80.0842 199.131 79.7908 199.21C79.4975 199.289 79.2493 199.447 79.0748 199.664C78.568 200.313 78.7863 201.263 79.1663 202.088C79.7175 203.112 80.3462 204.11 81.0473 205.075C82.5673 204.905 84.6065 204.206 85.5075 203.183C85.8173 202.87 86.0181 202.476 86.0908 202.039C86.124 201.819 86.088 201.585 85.9866 201.362C85.8853 201.139 85.7225 200.935 85.5156 200.771Z" fill="#FF2936"/>
<path d="M85.3187 200.686C85.167 200.576 84.9972 200.494 84.8208 200.446C85.0508 200.851 85.1353 201.294 85.0599 201.701C84.9349 202.265 84.6261 202.752 84.1721 203.102C83.7182 203.451 83.1393 203.647 82.508 203.665C81.9093 203.7 81.2822 203.568 80.7023 203.285C80.1223 203.001 79.6143 202.579 79.2392 202.068C79.0867 201.834 78.9601 201.589 78.8618 201.338C78.9292 201.567 79.0132 201.793 79.1131 202.016C79.655 203.055 80.2726 204.068 80.9609 205.047C82.4468 204.876 84.439 204.167 85.3173 203.129C85.6193 202.812 85.8146 202.412 85.8845 201.968C85.9156 201.746 85.8794 201.509 85.7798 201.283C85.6802 201.058 85.5208 200.851 85.3187 200.686Z" fill="#BF101F"/>
<path d="M92.0987 205.406C91.9264 205.221 91.7199 205.063 91.4914 204.941C91.263 204.819 91.0172 204.736 90.7687 204.697C89.7149 204.466 88.6959 205.155 88.6959 205.155C88.7737 204.813 88.8255 204.464 88.8511 204.109C88.8529 203.82 88.7628 203.523 88.5912 203.252C88.4196 202.98 88.1735 202.745 87.881 202.574C87.5886 202.403 87.2617 202.302 86.9381 202.283C86.6144 202.265 86.3071 202.33 86.0514 202.47C85.3118 202.876 85.172 203.803 85.2437 204.649C85.4188 205.723 85.6798 206.797 86.0247 207.863C87.626 208.178 89.9181 208.163 91.2014 207.528C91.6276 207.345 91.974 207.056 92.2068 206.689C92.3195 206.506 92.3689 206.29 92.3499 206.064C92.3309 205.838 92.2441 205.611 92.0987 205.406Z" fill="#FF2936"/>
<path d="M91.6231 205.224C91.5165 205.076 91.3835 204.946 91.2328 204.844C91.3171 205.287 91.2491 205.719 91.0402 206.068C90.7289 206.543 90.2646 206.89 89.7058 207.063C89.147 207.236 88.5188 207.227 87.9008 207.039C87.3086 206.878 86.7455 206.555 86.2793 206.11C85.813 205.664 85.4634 205.115 85.2724 204.527C85.2057 204.264 85.1671 203.999 85.1572 203.737C85.15 203.969 85.1598 204.205 85.1864 204.442C85.3598 205.565 85.6142 206.689 85.9476 207.804C87.4594 208.136 89.6198 208.122 90.8244 207.458C91.2247 207.267 91.5489 206.965 91.7656 206.581C91.868 206.386 91.9089 206.156 91.8838 205.916C91.8586 205.677 91.7685 205.437 91.6231 205.224Z" fill="#BF101F"/>
<path d="M89.1788 100.213L89.1876 100.232C89.59 101.091 89.914 101.877 90.1922 102.553C90.3239 102.872 90.4453 103.167 90.56 103.433C90.7391 103.848 90.9014 104.192 91.0607 104.453C91.2215 104.717 91.3732 104.885 91.5256 104.962C91.5992 104.998 91.6961 105.021 91.8181 105.03C91.9398 105.039 92.0827 105.032 92.2457 105.014C92.5718 104.976 92.9704 104.89 93.4273 104.778C93.666 104.719 93.9203 104.653 94.1877 104.584C94.9415 104.39 95.7996 104.168 96.7065 104L96.7288 103.996L96.7506 104.007L102.145 106.708L89.1788 100.213ZM89.1788 100.213L89.1577 100.203M89.1788 100.213L89.1577 100.203M89.1577 100.203L85.015 98.129C83.8629 97.5472 82.9491 96.6081 82.474 95.5155C81.999 94.4229 82.0016 93.2663 82.4815 92.2981C82.4815 92.2981 82.4815 92.298 82.4815 92.298L85.4864 86.309C85.9752 85.3447 86.9004 84.6509 88.0589 84.3779C89.2173 84.105 90.5159 84.2746 91.6719 84.8497M89.1577 100.203L91.6719 84.8497M91.672 84.8497L108.802 93.4286C108.802 93.4286 108.802 93.4286 108.802 93.4286C109.952 94.0112 110.864 94.95 111.338 96.0416C111.812 97.1333 111.809 98.2887 111.329 99.2561L108.327 105.245C107.839 106.21 106.915 106.904 105.757 107.177C104.599 107.451 103.301 107.282 102.145 106.708L91.672 84.8497ZM91.672 84.8497C91.672 84.8497 91.6719 84.8497 91.6719 84.8497M91.672 84.8497L91.6719 84.8497" fill="#FCFCFC" stroke="#A3A3A3" stroke-width="0.2"/>
<path d="M101.904 99.1323C103.457 96.5767 102.359 93.1316 99.4521 91.4372C96.5454 89.7429 92.9306 90.4411 91.3782 92.9966C89.8258 95.5521 90.9237 98.9973 93.8305 100.692C96.7372 102.386 100.352 101.688 101.904 99.1323Z" fill="url(#paint17_linear)"/>
<path d="M98.4698 97.9634C98.707 98.9035 96.9421 100.329 94.4993 99.1882C92.0565 98.0476 92.6858 95.6768 93.2985 95.4268C94.1353 95.0829 95.0611 96.3092 95.9669 96.7096C96.8727 97.1101 98.2322 97.0394 98.4698 97.9634Z" fill="#1F1F40"/>
<path d="M94.5468 96.9004C93.9086 96.9753 93.3445 97.2648 92.9436 97.7231C93.2459 98.3311 93.761 98.8308 94.3793 99.1157C96.0695 99.9637 97.3989 99.4435 97.9368 98.7202C97.7931 98.4858 97.6238 98.2654 97.4326 98.0639C97.0511 97.6621 96.5886 97.346 96.0855 97.1431C95.5824 96.9403 95.0541 96.857 94.5468 96.9004Z" fill="#FF2936"/>
<path d="M97.9749 91.8998C97.8087 91.7991 97.6271 91.7266 97.441 91.6869C97.2549 91.6471 97.0681 91.6409 96.8919 91.6685C96.1243 91.7297 95.6399 92.4914 95.6399 92.4914C95.5963 92.2159 95.5331 91.9402 95.4505 91.6661C95.371 91.4481 95.228 91.2446 95.0378 91.079C94.8476 90.9133 94.618 90.7922 94.3754 90.7296C94.1328 90.667 93.8869 90.6654 93.6661 90.725C93.4454 90.7846 93.2586 90.9029 93.1272 91.0665C92.7458 91.5547 92.9101 92.27 93.1961 92.8906C93.6109 93.6616 94.0842 94.413 94.6119 95.1388C95.7559 95.0113 97.2907 94.4849 97.9688 93.7148C98.2019 93.4797 98.3531 93.1832 98.4078 92.8539C98.4328 92.6886 98.4057 92.5125 98.3294 92.3445C98.2532 92.1764 98.1306 92.0227 97.9749 91.8998Z" fill="#FF2936"/>
<path d="M97.8266 91.8352C97.7124 91.7525 97.5846 91.6909 97.4518 91.6547C97.6249 91.9594 97.6885 92.2935 97.6318 92.5997C97.5377 93.0241 97.3053 93.3907 96.9636 93.6537C96.6219 93.9166 96.1862 94.0642 95.7112 94.0779C95.2605 94.1042 94.7885 94.0047 94.352 93.7913C93.9156 93.578 93.5332 93.2599 93.2509 92.8754C93.1361 92.6995 93.0408 92.5155 92.9668 92.3266C93.0176 92.4984 93.0808 92.6687 93.156 92.8362C93.5638 93.6186 94.0286 94.3812 94.5467 95.1178C95.6651 94.9888 97.1645 94.4553 97.8255 93.6741C98.0528 93.4356 98.1998 93.1349 98.2524 92.8007C98.2759 92.6334 98.2486 92.4552 98.1736 92.2852C98.0986 92.1152 97.9787 91.9597 97.8266 91.8352Z" fill="#BF101F"/>
<path d="M102.93 95.3881C102.8 95.2488 102.645 95.1298 102.473 95.0382C102.301 94.9467 102.116 94.8843 101.929 94.855C101.136 94.681 100.369 95.1991 100.369 95.1991C100.427 94.9423 100.466 94.6794 100.486 94.4122C100.487 94.1949 100.419 93.9712 100.29 93.7668C100.161 93.5624 99.9755 93.3856 99.7554 93.2567C99.5353 93.1278 99.2893 93.052 99.0457 93.0382C98.8021 93.0243 98.5708 93.0728 98.3784 93.1782C97.8217 93.4843 97.7165 94.1818 97.7704 94.8186C97.9022 95.6268 98.0987 96.4352 98.3583 97.2374C99.5635 97.475 101.289 97.4634 102.255 96.9855C102.575 96.8477 102.836 96.6301 103.011 96.354C103.096 96.2163 103.133 96.0537 103.119 95.8836C103.105 95.7135 103.039 95.5423 102.93 95.3881Z" fill="#FF2936"/>
<path d="M102.572 95.2511C102.492 95.1398 102.392 95.0425 102.278 94.9656C102.342 95.2992 102.29 95.6243 102.133 95.8864C101.899 96.2446 101.549 96.5052 101.129 96.6353C100.708 96.7655 100.235 96.7592 99.7703 96.6174C99.3245 96.4963 98.9008 96.2535 98.5499 95.9182C98.199 95.5829 97.9358 95.1694 97.792 94.7272C97.7418 94.5288 97.7128 94.3292 97.7053 94.1322C97.6999 94.307 97.7073 94.4843 97.7273 94.6626C97.8578 95.5082 98.0493 96.3541 98.3002 97.1935C99.4381 97.443 101.064 97.4323 101.971 96.9332C102.272 96.7893 102.516 96.5618 102.679 96.2731C102.756 96.1258 102.787 95.9527 102.768 95.7725C102.749 95.5924 102.681 95.412 102.572 95.2511Z" fill="#BF101F"/>
<defs>
<linearGradient id="paint0_linear" x1="348.151" y1="97.5082" x2="374.914" y2="127.337" gradientUnits="userSpaceOnUse">
<stop stop-color="#D65F83"/>
<stop offset="1" stop-color="#DC3E6C"/>
</linearGradient>
<linearGradient id="paint1_linear" x1="213.069" y1="178.891" x2="239.832" y2="208.72" gradientUnits="userSpaceOnUse">
<stop stop-color="#D65F83"/>
<stop offset="1" stop-color="#DC3E6C"/>
</linearGradient>
<linearGradient id="paint2_linear" x1="133.61" y1="83.2077" x2="165.187" y2="85.8753" gradientUnits="userSpaceOnUse">
<stop stop-color="#D65F83"/>
<stop offset="1" stop-color="#DC3E6C"/>
</linearGradient>
<linearGradient id="paint3_linear" x1="123.873" y1="184.233" x2="134.503" y2="204.512" gradientUnits="userSpaceOnUse">
<stop stop-color="#D65F83"/>
<stop offset="1" stop-color="#DC3E6C"/>
</linearGradient>
<linearGradient id="paint4_linear" x1="217.164" y1="126.965" x2="239.272" y2="134.557" gradientUnits="userSpaceOnUse">
<stop stop-color="#D65F83"/>
<stop offset="1" stop-color="#DC3E6C"/>
</linearGradient>
<linearGradient id="paint5_linear" x1="252.174" y1="254.704" x2="283.525" y2="255.678" gradientUnits="userSpaceOnUse">
<stop stop-color="#D65F83"/>
<stop offset="1" stop-color="#DC3E6C"/>
</linearGradient>
<linearGradient id="paint6_linear" x1="24.5109" y1="189.363" x2="6.39418" y2="209.555" gradientUnits="userSpaceOnUse">
<stop stop-color="#D65F83"/>
<stop offset="1" stop-color="#DC3E6C"/>
</linearGradient>
<linearGradient id="paint7_linear" x1="7919.72" y1="7929.12" x2="8608.88" y2="8816.75" gradientUnits="userSpaceOnUse">
<stop stop-color="#65BBFF"/>
<stop offset="1" stop-color="#315DA4"/>
</linearGradient>
<linearGradient id="paint8_linear" x1="6903.95" y1="6801.09" x2="7500.46" y2="7569.38" gradientUnits="userSpaceOnUse">
<stop stop-color="#65BBFF"/>
<stop offset="1" stop-color="#315DA4"/>
</linearGradient>
<linearGradient id="paint9_linear" x1="7093.15" y1="7220.51" x2="7710.31" y2="8010.42" gradientUnits="userSpaceOnUse">
<stop stop-color="#65BBFF"/>
<stop offset="1" stop-color="#315DA4"/>
</linearGradient>
<linearGradient id="paint10_linear" x1="6289.53" y1="5534.49" x2="6834.54" y2="6170.3" gradientUnits="userSpaceOnUse">
<stop stop-color="#65BBFF"/>
<stop offset="1" stop-color="#315DA4"/>
</linearGradient>
<linearGradient id="paint11_linear" x1="6387.11" y1="8121.99" x2="6911.42" y2="9029.63" gradientUnits="userSpaceOnUse">
<stop stop-color="#65BBFF"/>
<stop offset="1" stop-color="#315DA4"/>
</linearGradient>
<linearGradient id="paint12_linear" x1="5635.2" y1="7649.04" x2="6135.13" y2="8447.63" gradientUnits="userSpaceOnUse">
<stop stop-color="#65BBFF"/>
<stop offset="1" stop-color="#315DA4"/>
</linearGradient>
<linearGradient id="paint13_linear" x1="5702.19" y1="7701.03" x2="6202.12" y2="8499.61" gradientUnits="userSpaceOnUse">
<stop stop-color="#65BBFF"/>
<stop offset="1" stop-color="#315DA4"/>
</linearGradient>
<linearGradient id="paint14_linear" x1="9056.59" y1="2156.35" x2="9738.88" y2="2255.79" gradientUnits="userSpaceOnUse">
<stop stop-color="#FFF900"/>
<stop offset="1" stop-color="#FF7C00"/>
</linearGradient>
<linearGradient id="paint15_linear" x1="5091.43" y1="7855.51" x2="5359.53" y2="8486.55" gradientUnits="userSpaceOnUse">
<stop stop-color="#FFF900"/>
<stop offset="1" stop-color="#FF7C00"/>
</linearGradient>
<linearGradient id="paint16_linear" x1="4846.24" y1="7901.24" x2="5114.32" y2="8532.28" gradientUnits="userSpaceOnUse">
<stop stop-color="#FFF900"/>
<stop offset="1" stop-color="#FF7C00"/>
</linearGradient>
<linearGradient id="paint17_linear" x1="3681.1" y1="5887.61" x2="3882.88" y2="6362.56" gradientUnits="userSpaceOnUse">
<stop stop-color="#FFF900"/>
<stop offset="1" stop-color="#FF7C00"/>
</linearGradient>
</defs>
</svg>
