<svg width="426" height="279" viewBox="0 0 426 279" fill="none" xmlns="http://www.w3.org/2000/svg">
<path d="M380.422 70.5959L355.569 61.2629C353.871 60.6311 351.992 60.6979 350.343 61.4487C348.694 62.1994 347.409 63.573 346.768 65.2693L342.862 75.6877C342.232 77.3881 342.299 79.269 343.049 80.9201C343.798 82.5712 345.17 83.8585 346.864 84.5012L352.874 86.7565C354.711 90.5128 355.53 93.4186 356.522 93.7881C357.514 94.1575 360.433 92.2486 363.889 90.89L371.717 93.8266C373.415 94.4574 375.293 94.3907 376.941 93.6408C378.59 92.891 379.876 91.5189 380.518 89.8239L384.42 79.4017C385.051 77.7029 384.985 75.823 384.236 74.173C383.486 72.523 382.115 71.2369 380.422 70.5959Z" fill="url(#paint0_linear)"/>
<path d="M372.16 78.7898C373.205 76.042 371.841 73.2749 369.684 72.4513C368.812 72.1153 367.855 72.069 366.955 72.3191C366.055 72.5693 365.26 73.1028 364.686 73.8406C364.749 72.9068 364.511 71.9774 364.006 71.1895C363.502 70.4016 362.757 69.797 361.883 69.4648C359.726 68.6374 356.885 69.792 355.816 72.5437C354.232 76.7039 358.788 83.9007 360.172 85.0013L360.253 85.0629C360.292 85.0894 360.333 85.1126 360.376 85.1322C360.42 85.1465 360.465 85.1568 360.511 85.163H360.614C362.387 85.2746 370.576 82.9462 372.16 78.7898Z" fill="#FCFCFC"/>
<path d="M245.34 161.394L220.487 152.061C218.789 151.429 216.91 151.496 215.261 152.247C213.612 152.997 212.327 154.371 211.686 156.067L207.78 166.486C207.15 168.186 207.217 170.067 207.967 171.718C208.716 173.369 210.088 174.656 211.782 175.299L217.792 177.554C219.629 181.311 220.448 184.216 221.44 184.586C222.432 184.955 225.35 183.046 228.807 181.688L236.635 184.624C238.333 185.255 240.211 185.189 241.859 184.439C243.508 183.689 244.794 182.317 245.436 180.622L249.338 170.2C249.969 168.501 249.903 166.621 249.154 164.971C248.404 163.321 247.033 162.035 245.34 161.394Z" fill="url(#paint1_linear)"/>
<path d="M237.076 169.587C238.122 166.839 236.757 164.072 234.6 163.249C233.728 162.913 232.772 162.866 231.871 163.117C230.971 163.367 230.176 163.9 229.602 164.638C229.665 163.704 229.427 162.775 228.922 161.987C228.418 161.199 227.673 160.594 226.799 160.262C224.642 159.435 221.801 160.589 220.732 163.341C219.148 167.501 223.704 174.698 225.088 175.799L225.169 175.86C225.208 175.887 225.249 175.91 225.292 175.93C225.336 175.944 225.381 175.954 225.427 175.96H225.53C227.303 176.072 235.492 173.744 237.076 169.587Z" fill="#FCFCFC"/>
<path d="M273.825 225.331L255.733 233.396C254.5 233.95 253.526 234.965 253.023 236.22C252.52 237.474 252.53 238.865 253.05 240.089L256.259 247.594C256.787 248.815 257.78 249.767 259.024 250.242C260.267 250.717 261.659 250.677 262.895 250.131L267.269 248.18C270.168 249.193 272.087 250.29 272.808 249.967C273.529 249.643 274.123 247.119 275.286 244.604L280.983 242.062C282.215 241.507 283.189 240.493 283.692 239.239C284.195 237.986 284.186 236.595 283.668 235.371L280.455 227.866C279.929 226.645 278.936 225.694 277.693 225.218C276.451 224.743 275.06 224.784 273.825 225.331V225.331Z" fill="url(#paint2_linear)"/>
<path d="M273.562 233.936C272.723 231.946 270.58 231.205 269.002 231.899C268.363 232.178 267.825 232.653 267.469 233.254C267.113 233.856 266.958 234.552 267.026 235.239C266.584 234.715 265.982 234.351 265.31 234.201C264.637 234.05 263.929 234.121 263.29 234.403C261.71 235.095 260.773 237.185 261.601 239.189C262.87 242.202 268.985 243.604 270.289 243.46L270.364 243.45C270.398 243.443 270.432 243.434 270.465 243.422C270.496 243.407 270.525 243.389 270.553 243.368L270.609 243.314C271.618 242.447 274.829 236.947 273.562 233.936Z" fill="#FCFCFC"/>
<path d="M163.048 33.4805L140.393 40.9139C138.847 41.4253 137.375 42.4332 136.299 43.7175C135.223 45.0019 134.631 46.4581 134.652 47.768L134.8 55.7993C134.83 57.1063 135.47 58.1577 136.581 58.7242C137.692 59.2907 139.183 59.3264 140.73 58.8234L146.208 57.0251C148.84 58.2459 150.397 59.5013 151.3 59.2028C152.204 58.9044 153.926 56.2965 156.248 53.7287L163.383 51.3855C164.929 50.8739 166.4 49.8664 167.475 48.5828C168.551 47.2991 169.144 45.8436 169.125 44.5336L168.973 36.5021C168.944 35.1956 168.305 34.1443 167.195 33.5781C166.084 33.0119 164.594 32.9768 163.048 33.4805V33.4805Z" fill="url(#paint3_linear)"/>
<path d="M159.003 42.5677C158.938 40.3633 156.953 39.3749 154.972 39.9724C154.17 40.212 153.395 40.671 152.762 41.2817C152.128 41.8923 151.67 42.6222 151.454 43.3633C151.201 42.763 150.709 42.3189 150.051 42.0965C149.394 41.8742 148.606 41.8855 147.803 42.1287C145.821 42.7238 143.94 44.8734 143.987 47.0919C144.084 50.4297 150.046 52.4878 151.504 52.4525L151.588 52.4488C151.628 52.445 151.668 52.4382 151.708 52.4283C151.748 52.4147 151.787 52.398 151.825 52.3785L151.908 52.3256C153.352 51.4908 159.098 45.9032 159.003 42.5677Z" fill="#FCFCFC"/>
<path d="M244.51 82.8532L227.559 88.4153C226.403 88.7979 225.301 89.552 224.497 90.513C223.692 91.4739 223.249 92.5634 223.264 93.5434L223.375 99.5522C223.397 100.53 223.877 101.317 224.708 101.741C225.539 102.164 226.655 102.191 227.812 101.815L231.91 100.469C233.88 101.382 235.045 102.322 235.721 102.098C236.396 101.875 237.685 99.9237 239.422 98.0025L244.761 96.2493C245.917 95.8664 247.018 95.1126 247.822 94.1522C248.627 93.1918 249.071 92.1028 249.057 91.1227L248.943 85.1138C248.921 84.1362 248.443 83.3497 247.612 82.9262C246.782 82.5026 245.666 82.4764 244.51 82.8532V82.8532Z" fill="url(#paint4_linear)"/>
<path d="M241.485 89.6524C241.437 88.0031 239.952 87.2636 238.47 87.7106C237.87 87.8899 237.29 88.2333 236.816 88.6902C236.342 89.1471 235.999 89.6932 235.838 90.2477C235.648 89.7985 235.28 89.4662 234.788 89.2999C234.296 89.1335 233.706 89.142 233.106 89.3239C231.623 89.7692 230.216 91.3775 230.251 93.0373C230.323 95.5347 234.784 97.0745 235.875 97.0481L235.938 97.0453C235.968 97.0425 235.998 97.0374 236.028 97.03C236.057 97.0198 236.087 97.0073 236.115 96.9927L236.177 96.9531C237.258 96.3285 241.557 92.148 241.485 89.6524Z" fill="#FCFCFC"/>
<path d="M144.616 162.782L126.099 161.164C124.834 161.057 123.445 161.385 122.236 162.075C121.028 162.765 120.097 163.762 119.648 164.848L116.911 171.512C116.47 172.599 116.547 173.684 117.125 174.53C117.704 175.376 118.737 175.915 120 176.029L124.477 176.419C125.891 178.324 126.539 179.889 127.278 179.952C128.017 180.015 130.147 178.456 132.684 177.134L138.516 177.642C139.781 177.749 141.169 177.421 142.377 176.732C143.586 176.042 144.517 175.046 144.967 173.961L147.701 167.295C148.143 166.209 148.067 165.125 147.489 164.279C146.91 163.434 145.878 162.895 144.616 162.782V162.782Z" fill="url(#paint5_linear)"/>
<path d="M138.565 169.34C139.253 167.43 138.175 165.755 136.572 165.438C135.924 165.308 135.222 165.376 134.569 165.633C133.917 165.89 133.349 166.322 132.949 166.866C132.97 166.246 132.769 165.661 132.377 165.197C131.985 164.732 131.423 164.412 130.773 164.285C129.169 163.964 127.12 165.015 126.415 166.931C125.372 169.824 128.912 174.074 129.957 174.653L130.018 174.686C130.047 174.699 130.078 174.71 130.11 174.718C130.143 174.723 130.176 174.725 130.21 174.725L130.286 174.714C131.587 174.604 137.521 172.231 138.565 169.34Z" fill="#FCFCFC"/>
<path d="M3.4878 170.471L20.3112 164.153C21.4607 163.726 22.7325 163.771 23.8488 164.279C24.9651 164.787 25.835 165.717 26.2686 166.865L28.9128 173.918C29.3394 175.069 29.294 176.342 28.7864 177.46C28.2789 178.577 27.3504 179.449 26.2035 179.884L22.1356 181.411C20.8915 183.953 20.3372 185.92 19.6657 186.17C18.9942 186.42 17.0188 185.128 14.6791 184.209L9.38014 186.196C8.23094 186.623 6.95965 186.578 5.84361 186.071C4.72756 185.563 3.85732 184.634 3.42273 183.487L0.781071 176.432C0.353827 175.282 0.398701 174.009 0.90589 172.892C1.41308 171.776 2.34134 170.905 3.4878 170.471Z" fill="url(#paint6_linear)"/>
<path d="M9.08601 176.017C8.37812 174.157 9.30202 172.284 10.762 171.727C11.3521 171.499 11.9997 171.468 12.6089 171.637C13.2182 171.807 13.7569 172.168 14.1453 172.667C14.1024 172.035 14.2637 171.406 14.6053 170.873C14.947 170.339 15.4508 169.93 16.0425 169.705C17.5026 169.145 19.4258 169.927 20.1493 171.789C21.2216 174.605 18.1376 179.477 17.2007 180.222L17.146 180.264C17.1196 180.282 17.0917 180.297 17.0627 180.311C17.0331 180.32 17.0026 180.327 16.9716 180.332H16.9014C15.7016 180.407 10.1582 178.831 9.08601 176.017Z" fill="#FCFCFC"/>
<path d="M199.38 131.106L175.763 142.634C174.15 143.423 172.769 144.718 171.921 146.236C171.072 147.755 170.826 149.372 171.236 150.736L173.783 159.083C174.202 160.442 175.241 161.434 176.675 161.842C178.108 162.249 179.82 162.039 181.434 161.257L187.144 158.474C190.509 159.307 192.688 160.337 193.606 159.915C194.524 159.493 195.75 156.456 197.63 153.388L205.04 149.711C206.652 148.922 208.034 147.626 208.882 146.108C209.73 144.59 209.977 142.973 209.567 141.609L207.025 133.258C206.598 131.908 205.557 130.925 204.126 130.523C202.695 130.12 200.99 130.33 199.38 131.106V131.106Z" fill="url(#paint7_linear)"/>
<path d="M183.089 149.094L184.927 154.839C185.05 155.224 185.54 155.355 186.02 155.131L188.603 153.927C189.083 153.702 189.373 153.208 189.25 152.822L187.413 147.078C187.289 146.692 186.8 146.561 186.319 146.785L183.736 147.99C183.256 148.214 182.966 148.709 183.089 149.094Z" fill="#FCFCFC"/>
<path d="M196.642 142.927L196.515 143.02C196.8 142.82 197.03 142.547 197.165 142.247C197.299 141.947 197.33 141.638 197.251 141.375C197.173 141.111 196.991 140.908 196.735 140.801C196.48 140.694 196.168 140.689 195.852 140.787L191.696 142.842C192.122 141.714 192.262 140.577 192.105 139.536C191.678 138.103 190.534 137.753 189.909 137.961C189.643 138.04 189.391 138.207 189.203 138.43C189.015 138.653 188.905 138.914 188.894 139.163C188.852 139.683 189.396 140.351 189.371 140.702C189.317 141.245 188.6 142.286 187.741 144.289C187.299 145.388 187.241 146.499 187.576 147.432L188.166 149.412L188.748 151.393L189.024 152.312C189.051 152.403 189.098 152.483 189.163 152.547C189.229 152.612 189.311 152.659 189.405 152.687C189.499 152.714 189.603 152.722 189.711 152.708C189.819 152.695 189.929 152.661 190.035 152.609L197.758 148.794C197.885 148.735 198.005 148.654 198.111 148.557C198.216 148.46 198.306 148.348 198.374 148.228C198.442 148.108 198.487 147.982 198.506 147.858C198.526 147.734 198.519 147.615 198.487 147.506C198.455 147.398 198.398 147.304 198.319 147.228C198.24 147.153 198.141 147.099 198.029 147.068C197.916 147.038 197.791 147.032 197.662 147.051C197.533 147.07 197.403 147.114 197.278 147.18L197.4 147.091C197.558 147.021 197.709 146.924 197.843 146.805C197.976 146.686 198.09 146.548 198.176 146.399C198.263 146.25 198.32 146.093 198.345 145.939C198.371 145.784 198.363 145.635 198.323 145.5C198.283 145.365 198.211 145.248 198.112 145.155C198.014 145.062 197.89 144.995 197.748 144.959C197.607 144.923 197.451 144.918 197.29 144.945C197.129 144.972 196.966 145.03 196.812 145.115L197.239 144.903C197.397 144.833 197.548 144.736 197.682 144.617C197.815 144.498 197.929 144.36 198.015 144.211C198.102 144.062 198.159 143.905 198.185 143.751C198.21 143.596 198.202 143.447 198.162 143.312C198.122 143.177 198.051 143.06 197.952 142.967C197.853 142.874 197.729 142.807 197.587 142.771C197.446 142.735 197.29 142.73 197.129 142.757C196.968 142.784 196.806 142.842 196.651 142.927L196.642 142.927Z" fill="#FCFCFC"/>
<path d="M56.4721 31.1625L32.8544 42.6905C31.242 43.4795 29.8606 44.7746 29.0124 46.2927C28.1641 47.8107 27.9178 49.4283 28.3274 50.7919L30.875 59.1393C31.2933 60.4987 32.3328 61.4904 33.7665 61.8978C35.2001 62.3051 36.9113 62.095 38.526 61.3133L44.2356 58.5304C47.601 59.3636 49.7794 60.393 50.6978 59.971C51.6161 59.549 52.8417 56.512 54.7222 53.4442L62.1317 49.7669C63.7442 48.9779 65.1255 47.6828 65.9738 46.1648C66.8221 44.6467 67.0683 43.0291 66.6588 41.6655L64.117 33.3139C63.6899 31.9642 62.6483 30.9818 61.2176 30.5791C59.7869 30.1765 58.0822 30.3861 56.4721 31.1625V31.1625Z" fill="url(#paint8_linear)"/>
<path d="M40.1793 49.1515L42.0165 54.8963C42.1398 55.282 42.6294 55.413 43.1101 55.1888L45.6927 53.9841C46.1734 53.7599 46.463 53.2654 46.3396 52.8797L44.5024 47.1349C44.3791 46.7492 43.8895 46.6183 43.4088 46.8425L40.8262 48.0472C40.3456 48.2714 40.0559 48.7658 40.1793 49.1515Z" fill="#FCFCFC"/>
<path d="M53.738 42.9846L53.6103 43.0778C53.8961 42.8782 54.1259 42.6049 54.2603 42.3048C54.3948 42.0047 54.4255 41.6964 54.3472 41.4326C54.2689 41.1688 54.0865 40.966 53.8312 40.8588C53.5759 40.7516 53.2636 40.7467 52.9477 40.8449L48.7922 42.8994C49.2177 41.7717 49.3583 40.6345 49.2008 39.5937C48.7738 38.1605 47.6303 37.8107 47.005 38.0189C46.7392 38.0973 46.4872 38.2646 46.299 38.4873C46.1109 38.7101 46.0005 38.972 45.9898 39.2209C45.948 39.7409 46.4914 40.4082 46.4666 40.7597C46.4127 41.3026 45.696 42.3436 44.8369 44.3467C44.3949 45.4451 44.3364 46.556 44.6716 47.489L45.2619 49.4697L45.843 51.45L46.1193 52.3691C46.1461 52.4603 46.1935 52.5404 46.2588 52.6048C46.3242 52.6691 46.4062 52.7165 46.5001 52.7441C46.594 52.7717 46.6981 52.779 46.8063 52.7656C46.9145 52.7523 47.0248 52.7185 47.1308 52.6663L54.8539 48.8516C54.9807 48.7928 55.1005 48.7124 55.2063 48.6152C55.312 48.518 55.4016 48.4061 55.4695 48.286C55.5375 48.1659 55.5825 48.0402 55.602 47.9162C55.6214 47.7922 55.6148 47.6726 55.5826 47.5644C55.5504 47.4561 55.4932 47.3616 55.4145 47.2863C55.3357 47.2109 55.237 47.1564 55.1242 47.1259C55.0114 47.0955 54.8869 47.0896 54.7579 47.1088C54.6289 47.128 54.4982 47.1718 54.3734 47.2376L54.4951 47.1488C54.6538 47.0791 54.8046 46.9818 54.9382 46.8627C55.0717 46.7437 55.1852 46.6054 55.2717 46.4565C55.3581 46.3075 55.4158 46.151 55.4411 45.9965C55.4663 45.842 55.4587 45.6928 55.4187 45.558C55.3786 45.4232 55.307 45.3057 55.2081 45.2126C55.1093 45.1196 54.9853 45.053 54.8439 45.017C54.7024 44.9809 54.5464 44.9762 54.3855 45.003C54.2245 45.0298 54.062 45.0876 53.9079 45.1729L54.3344 44.9609C54.4931 44.8912 54.6439 44.7938 54.7775 44.6748C54.911 44.5558 55.0245 44.4175 55.111 44.2686C55.1974 44.1196 55.2551 43.9631 55.2804 43.8086C55.3056 43.6541 55.298 43.5049 55.258 43.3701C55.2179 43.2353 55.1463 43.1178 55.0474 43.0247C54.9486 42.9317 54.8246 42.8651 54.6832 42.8291C54.5417 42.793 54.3857 42.7882 54.2248 42.815C54.0638 42.8419 53.9013 42.8997 53.7472 42.985L53.738 42.9846Z" fill="#FCFCFC"/>
<path d="M388.087 115.164L364.47 126.692C362.857 127.481 361.476 128.776 360.628 130.294C359.779 131.812 359.533 133.43 359.943 134.793L362.49 143.141C362.908 144.5 363.948 145.492 365.382 145.899C366.815 146.307 368.526 146.096 370.141 145.315L375.851 142.532C379.216 143.365 381.395 144.394 382.313 143.972C383.231 143.55 384.457 140.513 386.337 137.445L393.747 133.768C395.359 132.979 396.741 131.684 397.589 130.166C398.437 128.648 398.683 127.03 398.274 125.667L395.732 117.315C395.305 115.965 394.263 114.983 392.833 114.58C391.402 114.178 389.697 114.387 388.087 115.164V115.164Z" fill="url(#paint9_linear)"/>
<path d="M371.794 133.152L373.632 138.896C373.755 139.282 374.245 139.413 374.725 139.189L377.308 137.984C377.789 137.76 378.078 137.266 377.955 136.88L376.118 131.135C375.994 130.75 375.505 130.619 375.024 130.843L372.441 132.048C371.961 132.272 371.671 132.766 371.794 133.152Z" fill="#FCFCFC"/>
<path d="M385.35 126.985L385.222 127.078C385.508 126.878 385.737 126.605 385.872 126.305C386.006 126.005 386.037 125.697 385.959 125.433C385.88 125.169 385.698 124.966 385.443 124.859C385.187 124.752 384.875 124.747 384.559 124.845L380.404 126.9C380.829 125.772 380.97 124.635 380.812 123.594C380.385 122.161 379.242 121.811 378.616 122.019C378.351 122.098 378.099 122.265 377.91 122.488C377.722 122.711 377.612 122.973 377.601 123.222C377.559 123.742 378.103 124.409 378.078 124.76C378.024 125.303 377.307 126.344 376.448 128.347C376.006 129.446 375.948 130.557 376.283 131.49L376.874 133.471L377.455 135.451L377.731 136.37C377.758 136.461 377.805 136.541 377.871 136.606C377.936 136.67 378.018 136.717 378.112 136.745C378.206 136.772 378.31 136.78 378.418 136.766C378.526 136.753 378.637 136.719 378.743 136.667L386.466 132.852C386.592 132.793 386.712 132.713 386.818 132.615C386.924 132.518 387.013 132.406 387.081 132.286C387.149 132.166 387.194 132.04 387.214 131.916C387.233 131.792 387.227 131.673 387.194 131.565C387.162 131.456 387.105 131.362 387.026 131.287C386.947 131.211 386.849 131.157 386.736 131.126C386.623 131.096 386.499 131.09 386.37 131.109C386.241 131.128 386.11 131.172 385.985 131.238L386.107 131.149C386.266 131.079 386.416 130.982 386.55 130.863C386.683 130.744 386.797 130.606 386.883 130.457C386.97 130.308 387.028 130.151 387.053 129.997C387.078 129.842 387.07 129.693 387.03 129.558C386.99 129.423 386.919 129.306 386.82 129.213C386.721 129.12 386.597 129.053 386.456 129.017C386.314 128.981 386.158 128.976 385.997 129.003C385.836 129.03 385.674 129.088 385.52 129.173L385.946 128.961C386.105 128.891 386.256 128.794 386.389 128.675C386.523 128.556 386.636 128.418 386.723 128.269C386.809 128.12 386.867 127.963 386.892 127.809C386.917 127.654 386.91 127.505 386.87 127.37C386.83 127.235 386.758 127.118 386.659 127.025C386.56 126.932 386.436 126.865 386.295 126.829C386.153 126.793 385.997 126.788 385.836 126.815C385.675 126.842 385.513 126.9 385.359 126.985L385.35 126.985Z" fill="#FCFCFC"/>
<path d="M129.339 115.379L111.252 124.208C110.017 124.812 108.959 125.804 108.31 126.966C107.66 128.129 107.471 129.368 107.785 130.412L109.736 136.805C110.056 137.846 110.853 138.605 111.951 138.917C113.048 139.229 114.359 139.068 115.595 138.469L119.968 136.338C122.545 136.976 124.214 137.765 124.917 137.441C125.62 137.118 126.559 134.792 127.999 132.443L133.673 129.627C134.908 129.023 135.966 128.031 136.616 126.868C137.265 125.706 137.454 124.467 137.14 123.423L135.194 117.027C134.867 115.993 134.069 115.241 132.973 114.933C131.878 114.624 130.572 114.785 129.339 115.379V115.379Z" fill="url(#paint10_linear)"/>
<path d="M116.862 129.154L118.269 133.554C118.363 133.849 118.738 133.95 119.106 133.778L121.084 132.855C121.452 132.684 121.674 132.305 121.58 132.01L120.173 127.61C120.078 127.315 119.703 127.214 119.335 127.386L117.357 128.309C116.989 128.48 116.767 128.859 116.862 129.154Z" fill="#FCFCFC"/>
<path d="M127.243 124.431L127.145 124.503C127.364 124.35 127.54 124.14 127.643 123.911C127.746 123.681 127.769 123.445 127.709 123.243C127.649 123.041 127.51 122.885 127.314 122.803C127.119 122.721 126.88 122.717 126.638 122.793L123.455 124.366C123.781 123.503 123.889 122.632 123.768 121.835C123.441 120.737 122.565 120.469 122.086 120.629C121.883 120.689 121.69 120.817 121.546 120.987C121.402 121.158 121.317 121.359 121.309 121.549C121.277 121.947 121.693 122.458 121.674 122.728C121.633 123.143 121.084 123.941 120.426 125.475C120.088 126.316 120.043 127.167 120.3 127.881L120.752 129.398L121.197 130.915L121.409 131.618C121.429 131.688 121.465 131.75 121.515 131.799C121.565 131.848 121.628 131.884 121.7 131.906C121.772 131.927 121.852 131.932 121.935 131.922C122.018 131.912 122.102 131.886 122.183 131.846L128.098 128.924C128.195 128.879 128.286 128.818 128.367 128.743C128.448 128.669 128.517 128.583 128.569 128.491C128.621 128.399 128.656 128.303 128.67 128.208C128.685 128.113 128.68 128.021 128.656 127.939C128.631 127.856 128.587 127.783 128.527 127.726C128.467 127.668 128.391 127.626 128.305 127.603C128.218 127.579 128.123 127.575 128.024 127.59C127.925 127.604 127.825 127.638 127.73 127.688L127.823 127.62C127.944 127.567 128.06 127.492 128.162 127.401C128.264 127.31 128.351 127.204 128.417 127.09C128.484 126.976 128.528 126.856 128.547 126.738C128.567 126.619 128.561 126.505 128.53 126.402C128.499 126.299 128.444 126.209 128.369 126.138C128.293 126.066 128.198 126.015 128.09 125.988C127.981 125.96 127.862 125.956 127.739 125.977C127.616 125.998 127.491 126.042 127.373 126.107L127.7 125.945C127.821 125.891 127.937 125.817 128.039 125.726C128.141 125.634 128.228 125.529 128.294 125.415C128.361 125.3 128.405 125.181 128.424 125.062C128.443 124.944 128.438 124.83 128.407 124.726C128.376 124.623 128.321 124.533 128.246 124.462C128.17 124.391 128.075 124.34 127.967 124.312C127.858 124.285 127.739 124.281 127.616 124.301C127.492 124.322 127.368 124.366 127.25 124.432L127.243 124.431Z" fill="#FCFCFC"/>
<path d="M421.004 243.892L405.188 234.991C404.108 234.384 402.934 234.047 401.924 234.052C400.915 234.058 400.15 234.407 399.799 235.022L397.667 238.809C397.321 239.428 397.417 240.262 397.934 241.128C398.451 241.995 399.347 242.824 400.425 243.435L404.247 245.588C405.51 247.586 406.131 249.024 406.736 249.378C407.34 249.732 409.137 249.474 411.256 249.549L416.242 252.324C417.323 252.931 418.496 253.269 419.506 253.263C420.516 253.257 421.28 252.908 421.632 252.293L423.769 248.507C424.106 247.887 424.005 247.055 423.488 246.191C422.97 245.328 422.078 244.502 421.004 243.892V243.892Z" fill="url(#paint11_linear)"/>
<path d="M405.994 241.249L404.525 244.508C404.426 244.727 404.597 245.074 404.907 245.283L406.57 246.407C406.88 246.616 407.211 246.608 407.309 246.39L408.779 243.131C408.878 242.912 408.707 242.565 408.397 242.356L406.733 241.232C406.424 241.022 406.093 241.03 405.994 241.249Z" fill="#FCFCFC"/>
<path d="M415.14 245.748L415.04 245.705C415.26 245.804 415.482 245.848 415.669 245.83C415.855 245.811 415.994 245.731 416.062 245.604C416.13 245.476 416.122 245.309 416.041 245.13C415.959 244.952 415.809 244.773 415.615 244.625L412.758 242.916C413.419 242.802 413.946 242.523 414.287 242.105C414.655 241.411 414.238 240.652 413.848 240.363C413.687 240.237 413.496 240.147 413.315 240.111C413.133 240.074 412.974 240.094 412.868 240.167C412.639 240.307 412.636 240.826 412.482 240.922C412.237 241.063 411.468 240.985 410.243 241.129C409.585 241.225 409.109 241.542 408.898 242.026L408.389 242.986L407.876 243.94L407.641 244.386C407.618 244.43 407.609 244.482 407.615 244.54C407.621 244.597 407.642 244.659 407.676 244.721C407.711 244.783 407.759 244.844 407.817 244.901C407.876 244.958 407.943 245.01 408.016 245.054L413.324 248.231C413.41 248.284 413.501 248.327 413.592 248.356C413.683 248.385 413.771 248.401 413.853 248.401C413.934 248.402 414.007 248.388 414.066 248.36C414.126 248.332 414.171 248.29 414.198 248.238C414.226 248.186 414.236 248.123 414.228 248.055C414.22 247.987 414.194 247.913 414.151 247.84C414.108 247.766 414.05 247.694 413.979 247.627C413.908 247.56 413.827 247.499 413.739 247.449L413.834 247.49C413.94 247.558 414.053 247.613 414.166 247.651C414.279 247.689 414.39 247.71 414.492 247.712C414.595 247.714 414.686 247.698 414.76 247.663C414.835 247.629 414.891 247.578 414.926 247.512C414.96 247.447 414.973 247.369 414.962 247.284C414.951 247.199 414.917 247.107 414.863 247.016C414.808 246.924 414.734 246.834 414.644 246.751C414.555 246.669 414.452 246.595 414.342 246.534L414.636 246.709C414.742 246.777 414.855 246.832 414.968 246.87C415.081 246.908 415.192 246.929 415.294 246.931C415.396 246.933 415.488 246.917 415.562 246.882C415.637 246.848 415.693 246.796 415.728 246.731C415.762 246.666 415.774 246.588 415.764 246.503C415.753 246.418 415.719 246.326 415.664 246.235C415.61 246.143 415.535 246.053 415.446 245.97C415.357 245.887 415.254 245.813 415.144 245.753L415.14 245.748Z" fill="#FCFCFC"/>
<path d="M208.88 64.6853L193.064 55.7842C191.984 55.1771 190.81 54.8395 189.801 54.8453C188.791 54.851 188.027 55.1996 187.675 55.8148L185.543 59.6023C185.197 60.2208 185.293 61.0545 185.81 61.9212C186.327 62.7879 187.223 63.617 188.301 64.2275L192.123 66.3805C193.386 68.3787 194.007 69.8166 194.612 70.1704C195.216 70.5243 197.013 70.2673 199.132 70.3422L204.118 73.1168C205.199 73.724 206.372 74.0615 207.382 74.0558C208.392 74.0501 209.156 73.7015 209.508 73.0862L211.645 69.3006C211.982 68.6803 211.881 67.8483 211.364 66.9846C210.847 66.1208 209.954 65.2948 208.88 64.6853V64.6853Z" fill="url(#paint12_linear)"/>
<path d="M193.869 62.0417L192.399 65.301C192.301 65.5199 192.472 65.8669 192.781 66.0761L194.445 67.2002C194.755 67.4094 195.086 67.4016 195.184 67.1828L196.653 63.9234C196.752 63.7046 196.581 63.3576 196.271 63.1484L194.608 62.0242C194.298 61.815 193.967 61.8228 193.869 62.0417Z" fill="#FCFCFC"/>
<path d="M203.013 66.5401L202.913 66.4971C203.133 66.5963 203.356 66.6404 203.542 66.622C203.728 66.6036 203.867 66.5238 203.935 66.3962C204.003 66.2687 203.996 66.1013 203.914 65.9227C203.833 65.7441 203.682 65.5654 203.488 65.4172L200.631 63.7084C201.293 63.5942 201.819 63.3153 202.161 62.8977C202.529 62.2036 202.111 61.4448 201.721 61.1559C201.56 61.0299 201.37 60.9397 201.188 60.9032C201.006 60.8668 200.847 60.8868 200.742 60.9592C200.512 61.0994 200.509 61.6181 200.355 61.7148C200.111 61.8555 199.342 61.7773 198.116 61.9217C197.458 62.0174 196.982 62.3346 196.771 62.8189L196.262 63.7783L195.749 64.7323L195.515 65.1788C195.491 65.2228 195.482 65.2749 195.488 65.3323C195.494 65.3896 195.515 65.4511 195.55 65.513C195.585 65.575 195.632 65.6363 195.691 65.6935C195.749 65.7506 195.816 65.8025 195.889 65.8462L201.198 69.0231C201.283 69.0765 201.374 69.1191 201.465 69.1484C201.556 69.1777 201.645 69.1932 201.726 69.1939C201.808 69.1946 201.88 69.1805 201.94 69.1524C201.999 69.1243 202.044 69.0828 202.072 69.0304C202.1 68.9781 202.11 68.9158 202.102 68.8474C202.093 68.779 202.067 68.7058 202.024 68.6323C201.981 68.5587 201.923 68.4862 201.852 68.4191C201.781 68.352 201.7 68.2917 201.612 68.2417L201.708 68.2827C201.813 68.3507 201.926 68.4055 202.039 68.4437C202.152 68.4819 202.263 68.5027 202.366 68.5048C202.468 68.5068 202.559 68.4902 202.634 68.4558C202.708 68.4214 202.764 68.37 202.799 68.3048C202.834 68.2396 202.846 68.1619 202.835 68.0765C202.824 67.9911 202.79 67.8998 202.736 67.8082C202.681 67.7166 202.607 67.6266 202.517 67.5438C202.428 67.461 202.325 67.3871 202.216 67.3266L202.509 67.5016C202.615 67.5696 202.728 67.6245 202.841 67.6626C202.954 67.7008 203.065 67.7216 203.167 67.7237C203.27 67.7257 203.361 67.7091 203.435 67.6747C203.51 67.6403 203.566 67.5889 203.601 67.5237C203.635 67.4585 203.648 67.3808 203.637 67.2954C203.626 67.21 203.592 67.1187 203.538 67.0271C203.483 66.9355 203.409 66.8456 203.319 66.7627C203.23 66.6799 203.127 66.606 203.018 66.5455L203.013 66.5401Z" fill="#FCFCFC"/>
<path d="M353.731 180.166L336.305 185.161C335.115 185.504 334.002 186.156 333.207 186.976C332.413 187.795 332.003 188.716 332.067 189.536L332.484 194.56C332.555 195.379 333.093 196.028 333.982 196.367C334.871 196.706 336.038 196.707 337.229 196.369L341.441 195.163C343.546 195.888 344.834 196.641 345.508 196.462C346.182 196.283 347.458 194.609 349.173 192.964L354.649 191.362C355.839 191.019 356.953 190.367 357.747 189.547C358.541 188.728 358.951 187.807 358.888 186.987L358.475 181.961C358.397 181.147 357.856 180.503 356.968 180.167C356.081 179.831 354.918 179.831 353.731 180.166V180.166Z" fill="url(#paint13_linear)"/>
<path d="M340.361 189.529L340.841 193.172C340.873 193.417 341.214 193.541 341.602 193.449L343.689 192.956C344.077 192.864 344.366 192.592 344.333 192.347L343.854 188.704C343.821 188.46 343.481 188.336 343.092 188.427L341.006 188.92C340.617 189.012 340.329 189.285 340.361 189.529Z" fill="#FCFCFC"/>
<path d="M350.094 186.714L349.991 186.76C350.221 186.663 350.423 186.519 350.563 186.352C350.703 186.184 350.772 186.004 350.758 185.842C350.744 185.679 350.649 185.546 350.488 185.463C350.327 185.38 350.11 185.353 349.875 185.387L346.668 186.288C347.138 185.653 347.411 184.99 347.463 184.362C347.387 183.48 346.646 183.186 346.179 183.262C345.982 183.288 345.781 183.368 345.616 183.486C345.45 183.604 345.333 183.75 345.287 183.897C345.178 184.202 345.453 184.638 345.381 184.844C345.26 185.162 344.6 185.724 343.693 186.845C343.216 187.462 343.004 188.115 343.093 188.693L343.197 189.911L343.295 191.128L343.345 191.693C343.35 191.749 343.37 191.8 343.406 191.844C343.441 191.887 343.491 191.921 343.552 191.944C343.613 191.968 343.685 191.98 343.762 191.98C343.839 191.981 343.921 191.969 344.003 191.946L349.964 190.274C350.061 190.249 350.157 190.21 350.245 190.161C350.334 190.111 350.413 190.052 350.479 189.986C350.545 189.92 350.596 189.849 350.629 189.777C350.661 189.705 350.675 189.633 350.669 189.567C350.664 189.5 350.639 189.44 350.596 189.389C350.552 189.339 350.492 189.299 350.418 189.272C350.345 189.246 350.259 189.233 350.166 189.234C350.074 189.236 349.976 189.252 349.879 189.281L349.977 189.238C350.099 189.209 350.218 189.163 350.33 189.102C350.441 189.042 350.541 188.969 350.624 188.887C350.708 188.806 350.772 188.717 350.813 188.628C350.855 188.538 350.873 188.449 350.866 188.366C350.859 188.283 350.827 188.208 350.772 188.146C350.718 188.083 350.642 188.034 350.549 188.002C350.457 187.97 350.349 187.955 350.233 187.959C350.117 187.963 349.995 187.985 349.874 188.023L350.204 187.93C350.325 187.901 350.445 187.855 350.556 187.794C350.667 187.734 350.768 187.661 350.851 187.579C350.934 187.498 350.998 187.409 351.04 187.32C351.081 187.23 351.099 187.141 351.092 187.058C351.085 186.975 351.053 186.9 350.999 186.838C350.944 186.775 350.869 186.726 350.776 186.694C350.683 186.662 350.575 186.647 350.459 186.651C350.343 186.655 350.221 186.677 350.101 186.715L350.094 186.714Z" fill="#FCFCFC"/>
<path d="M257.768 142.687L257.798 142.697C258.923 143.089 259.927 143.491 260.789 143.836C261.197 143.999 261.573 144.149 261.915 144.28C262.449 144.484 262.9 144.64 263.264 144.723C263.631 144.807 263.892 144.813 264.058 144.737C264.137 144.701 264.218 144.631 264.299 144.522C264.381 144.413 264.46 144.271 264.539 144.097C264.697 143.75 264.849 143.287 265.01 142.744C265.094 142.461 265.18 142.156 265.27 141.836C265.526 140.932 265.817 139.901 266.193 138.873L266.204 138.841L266.234 138.828L272.268 136.075L257.768 142.687ZM257.768 142.687L257.74 142.7M257.768 142.687L257.74 142.7M257.74 142.7L253.106 144.814C253.106 144.814 253.106 144.814 253.106 144.814C251.816 145.396 250.303 145.425 248.897 144.892C247.49 144.359 246.306 143.307 245.603 141.967L241.267 133.627C240.573 132.282 240.42 130.763 240.838 129.401C241.256 128.039 242.212 126.943 243.497 126.352M257.74 142.7L243.497 126.352M243.497 126.352L262.659 117.614C263.948 117.034 265.46 117.007 266.865 117.54C268.27 118.073 269.453 119.124 270.155 120.463L243.497 126.352ZM243.497 126.352C243.497 126.352 243.497 126.352 243.497 126.352M243.497 126.352L243.497 126.352M270.155 120.463L274.494 128.8C275.188 130.145 275.342 131.664 274.924 133.025C274.507 134.387 273.552 135.483 272.268 136.075L270.155 120.463Z" fill="#FCFCFC" stroke="#A3A3A3" stroke-width="0.2"/>
<path d="M265.05 129.003C263.281 124.891 258.736 122.774 254.898 124.274C251.061 125.775 249.384 130.324 251.154 134.436C252.923 138.548 257.468 140.665 261.306 139.165C265.143 137.664 266.819 133.115 265.05 129.003Z" fill="url(#paint14_linear)"/>
<path d="M261.645 131.483C262.757 132.096 263.144 135.112 260.479 136.483C257.814 137.854 255.76 135.102 255.878 134.276C256.035 133.144 257.862 133.34 258.827 132.811C259.792 132.282 260.55 130.884 261.645 131.483Z" fill="#1F1F40"/>
<path d="M258.36 134.341C258.024 135.067 257.949 135.905 258.147 136.722C258.946 136.944 259.774 136.85 260.455 136.46C262.385 135.457 262.722 133.625 262.349 132.433C262.023 132.375 261.695 132.357 261.372 132.378C260.727 132.42 260.115 132.62 259.59 132.963C259.065 133.305 258.643 133.778 258.36 134.341V134.341Z" fill="#FF2936"/>
<path d="M253.844 127.577C253.641 127.64 253.456 127.744 253.301 127.884C253.145 128.024 253.022 128.196 252.939 128.39C252.52 129.18 252.967 130.362 252.967 130.362C252.668 130.143 252.357 129.942 252.036 129.762C251.771 129.631 251.481 129.575 251.199 129.599C250.917 129.624 250.654 129.728 250.44 129.9C250.227 130.072 250.072 130.305 249.992 130.572C249.913 130.839 249.913 131.129 249.992 131.409C250.234 132.234 251.042 132.755 251.832 133.07C252.851 133.404 253.888 133.664 254.933 133.848C255.523 132.636 255.964 130.675 255.629 129.3C255.543 128.855 255.345 128.431 255.055 128.067C254.908 127.887 254.718 127.746 254.504 127.66C254.291 127.573 254.063 127.545 253.844 127.577V127.577Z" fill="#FF2936"/>
<path d="M253.835 127.549C253.681 127.583 253.539 127.65 253.419 127.746C253.826 127.862 254.191 128.114 254.452 128.457C254.804 128.947 255.012 129.519 255.048 130.1C255.085 130.681 254.949 131.246 254.658 131.723C254.395 132.189 253.996 132.557 253.509 132.784C253.023 133.011 252.469 133.087 251.914 133.002C251.67 132.949 251.43 132.87 251.199 132.765C251.399 132.876 251.604 132.974 251.815 133.058C252.837 133.393 253.875 133.654 254.923 133.839C255.514 132.623 255.956 130.655 255.62 129.275C255.534 128.829 255.336 128.403 255.045 128.038C254.898 127.858 254.707 127.718 254.494 127.631C254.281 127.545 254.053 127.517 253.835 127.549V127.549Z" fill="#BF101F"/>
<path d="M261.007 124.398C260.788 124.389 260.574 124.424 260.377 124.501C260.179 124.578 260.002 124.695 259.856 124.845C259.19 125.434 259.223 126.654 259.223 126.654C259.006 126.355 258.771 126.069 258.519 125.797C258.306 125.59 258.043 125.443 257.76 125.372C257.478 125.301 257.188 125.31 256.924 125.397C256.659 125.484 256.431 125.646 256.265 125.865C256.1 126.083 256.003 126.349 255.987 126.632C255.942 127.451 256.564 128.211 257.226 128.763C258.106 129.404 259.026 129.983 259.979 130.496C260.966 129.575 262.03 127.924 262.162 126.553C262.226 126.118 262.174 125.664 262.011 125.236C261.928 125.024 261.79 124.835 261.614 124.688C261.437 124.54 261.227 124.44 261.007 124.398V124.398Z" fill="#FF2936"/>
<path d="M260.991 124.331C260.832 124.31 260.674 124.323 260.526 124.367C260.883 124.61 261.156 124.962 261.298 125.364C261.481 125.933 261.494 126.53 261.338 127.079C261.181 127.628 260.86 128.104 260.417 128.447C260.006 128.79 259.495 128.998 258.945 129.047C258.395 129.095 257.829 128.982 257.316 128.721C257.095 128.589 256.887 128.435 256.696 128.261C256.858 128.428 257.03 128.584 257.212 128.728C258.097 129.374 259.023 129.959 259.983 130.477C260.975 129.547 262.047 127.88 262.179 126.495C262.243 126.055 262.191 125.597 262.027 125.164C261.939 124.95 261.796 124.759 261.613 124.612C261.431 124.465 261.215 124.368 260.991 124.331V124.331Z" fill="#BF101F"/>
<path d="M89.5567 61.6147L89.5749 61.6515C90.2043 62.9257 90.7081 64.0827 91.1402 65.0749C91.3442 65.5434 91.5323 65.9753 91.71 66.3653C91.9882 66.9761 92.2407 67.4836 92.4907 67.8768C92.7413 68.2709 92.9821 68.5382 93.2337 68.6828C93.4872 68.8285 93.8911 68.9087 94.4349 68.9392C94.9742 68.9695 95.634 68.9505 96.3893 68.911C96.7843 68.8903 97.2051 68.864 97.6475 68.8364C98.8937 68.7586 100.312 68.67 101.808 68.6659L101.834 68.6659L101.859 68.6803L110.623 73.7121C112.509 74.788 114.645 75.344 116.565 75.2586C118.486 75.1732 120.026 74.4536 120.857 73.2689C120.858 73.2689 120.858 73.2689 120.858 73.2688L126.02 65.8382C126.02 65.8381 126.02 65.838 126.02 65.8379C126.835 64.6502 126.883 63.0948 126.154 61.5039C125.423 59.9089 123.966 58.4007 122.09 57.3146L94.2581 41.3338C92.373 40.2567 90.2358 39.6994 88.3146 39.7839C86.3928 39.8684 84.852 40.5875 84.0192 41.7721C84.0192 41.7721 84.0191 41.7722 84.0191 41.7722L78.8521 49.2016C78.8521 49.2016 78.8521 49.2017 78.852 49.2017C78.0359 50.3905 77.988 51.9477 78.7192 53.5402C79.4522 55.1367 80.9124 56.6457 82.7911 57.7311L89.5567 61.6147ZM89.5567 61.6147L89.5224 61.595L82.7914 57.7313L89.5567 61.6147Z" fill="#FCFCFC" stroke="#A3A3A3" stroke-width="0.2"/>
<path d="M111.438 65.2633C114.119 61.3162 112.092 54.9334 106.909 51.007C101.727 47.0805 95.3528 47.0973 92.6719 51.0445C89.9909 54.9916 92.0187 61.3744 97.2009 65.3008C102.383 69.2273 108.758 69.2104 111.438 65.2633Z" fill="url(#paint15_linear)"/>
<path d="M105.444 62.6321C105.812 63.9506 102.843 65.4157 98.8169 63.2744C94.791 61.133 95.8998 58.1164 96.924 57.9356C98.3231 57.6854 99.8274 59.5602 101.321 60.3241C102.814 61.0881 105.074 61.3351 105.444 62.6321Z" fill="#1F1F40"/>
<path d="M99.1097 60.9114C98.0175 60.841 97.0447 61.0419 96.3449 61.4824C96.8411 62.2744 97.7043 62.9917 98.7506 63.4814C101.609 64.9017 103.896 64.6191 104.839 63.9003C104.601 63.5882 104.319 63.2863 103.999 63.0011C103.361 62.4325 102.582 61.9448 101.729 61.5805C100.877 61.2162 99.9776 60.9865 99.1097 60.9114V60.9114Z" fill="#FF2936"/>
<path d="M103.463 52.0526C103.193 51.861 102.895 51.6977 102.586 51.5726C102.277 51.4475 101.964 51.3631 101.665 51.3245C100.368 51.084 99.4774 51.8171 99.4774 51.8171C99.4315 51.462 99.3525 51.0986 99.2408 50.7292C99.1287 50.4298 98.9082 50.122 98.6048 49.8412C98.3014 49.5603 97.9273 49.3178 97.5254 49.1414C97.1236 48.9651 96.7104 48.8621 96.3332 48.8443C95.956 48.8265 95.6301 48.8946 95.393 49.0408C94.7033 49.4815 94.9087 50.4244 95.3282 51.3014C95.9495 52.4154 96.6709 53.5294 97.4865 54.6344C99.423 54.9484 102.056 54.935 103.273 54.2712C103.688 54.0793 103.972 53.7786 104.096 53.3981C104.155 53.206 104.127 52.9794 104.015 52.7424C103.903 52.5054 103.713 52.267 103.463 52.0526V52.0526Z" fill="#FF2936"/>
<path d="M103.377 52.2324C103.191 52.0899 102.98 51.9664 102.757 51.8702C103.021 52.294 103.095 52.7071 102.967 53.039C102.764 53.4924 102.33 53.8225 101.722 53.9878C101.113 54.1531 100.355 54.1463 99.5445 53.9682C98.774 53.8148 97.9801 53.5068 97.2583 53.0814C96.5365 52.656 95.9175 52.1313 95.4758 51.5704C95.2982 51.3198 95.1546 51.0676 95.0478 50.8184C95.1168 51.0383 95.2071 51.2614 95.3181 51.4862C95.933 52.5595 96.6471 53.6331 97.4545 54.6982C99.3731 55.0051 101.982 54.9987 103.188 54.3632C103.599 54.1795 103.881 53.891 104.004 53.5252C104.061 53.3408 104.033 53.1232 103.923 52.8956C103.812 52.6679 103.624 52.4387 103.377 52.2324V52.2324Z" fill="#BF101F"/>
<path d="M112.683 56.827C112.479 56.6022 112.23 56.3919 111.95 56.2085C111.67 56.0251 111.365 55.8722 111.054 55.759C109.739 55.2181 108.4 55.5388 108.4 55.5388C108.523 55.2473 108.615 54.9403 108.674 54.6197C108.697 54.3532 108.606 54.0503 108.409 53.7458C108.212 53.4413 107.919 53.1475 107.562 52.8984C107.205 52.6492 106.799 52.4547 106.391 52.3372C105.983 52.2197 105.59 52.184 105.256 52.2343C104.291 52.381 104.045 53.195 104.073 54C104.214 55.0478 104.464 56.1225 104.821 57.2156C106.822 58.0045 109.721 58.7014 111.39 58.5122C111.943 58.475 112.402 58.315 112.724 58.0479C112.88 57.9135 112.959 57.729 112.951 57.514C112.944 57.299 112.851 57.0616 112.683 56.827V56.827Z" fill="#FF2936"/>
<path d="M112.47 57.1929C112.343 57.0458 112.179 56.9053 111.991 56.7805C112.065 57.1505 111.941 57.4659 111.64 57.6738C111.194 57.9502 110.558 58.0797 109.814 58.046C109.069 58.0122 108.248 57.8168 107.454 57.4843C106.693 57.1809 105.982 56.7607 105.409 56.274C104.835 55.7873 104.422 55.2548 104.22 54.7405C104.154 54.5154 104.125 54.2977 104.133 54.0911C104.105 54.2696 104.098 54.4557 104.114 54.6479C104.25 55.5737 104.492 56.5241 104.837 57.4916C106.788 58.2044 109.615 58.8435 111.245 58.6903C111.784 58.6621 112.232 58.5247 112.547 58.2916C112.697 58.1703 112.769 58.0037 112.755 57.81C112.742 57.6163 112.643 57.4029 112.47 57.1929V57.1929Z" fill="#BF101F"/>
<path d="M97.1503 177.941C98.4439 178.688 99.4728 179.696 100.02 180.735C100.564 181.768 100.588 182.749 100.097 183.474L100.097 183.474L96.9746 188.106C96.4796 188.833 95.4976 189.252 94.2298 189.254C92.9636 189.256 91.5271 188.841 90.2364 188.099L97.1503 177.941ZM97.1503 177.941L78.0354 166.942C76.7469 166.202 75.313 165.787 74.0482 165.788C72.7821 165.788 71.7998 166.205 71.3022 166.928C71.3021 166.929 71.3021 166.929 71.302 166.929L68.1753 171.558C68.1753 171.558 68.1752 171.558 68.1752 171.558C67.6913 172.284 67.7198 173.263 68.2644 174.294C68.8119 175.33 69.8381 176.335 71.1277 177.081L75.7494 179.745L75.7797 179.762L75.7981 179.795C76.2694 180.633 76.6521 181.393 76.9795 182.043C77.1322 182.346 77.2729 182.626 77.4049 182.878C77.6137 183.277 77.8004 183.607 77.9803 183.864C78.1606 184.121 78.3278 184.295 78.4959 184.391C78.6656 184.489 78.9332 184.551 79.2949 184.586C79.653 184.62 80.0893 184.625 80.5889 184.621C80.852 184.618 81.1324 184.612 81.4273 184.607C82.2493 184.59 83.1841 184.572 84.1726 184.609L84.1951 184.61L84.2171 184.623L90.2362 188.099L97.1503 177.941Z" fill="#FCFCFC" stroke="#A3A3A3" stroke-width="0.2"/>
<path d="M88.0373 175.026C86.3428 173.688 84.2991 172.675 82.351 172.208C80.4028 171.742 78.708 171.859 77.6354 172.534V172.534C76.5681 173.216 76.214 174.402 76.6504 175.833C77.0869 177.264 78.2784 178.823 79.9646 180.171V180.171C81.6554 181.507 83.6947 182.519 85.6401 182.987C87.5855 183.455 89.2801 183.342 90.3562 182.673V182.673C91.4292 181.992 91.7876 180.805 91.353 179.372C90.9184 177.939 89.7262 176.376 88.0373 175.026V175.026Z" fill="url(#paint16_linear)"/>
<path d="M80.6862 176.027C80.5492 175.92 80.3931 175.824 80.23 175.746C80.0668 175.668 79.901 175.611 79.7453 175.578C79.5896 175.546 79.4482 175.539 79.3319 175.558C79.2157 175.578 79.1278 175.623 79.0749 175.691V175.691C78.1616 176.95 79.539 179.209 82.1426 180.733C84.7462 182.257 87.5951 182.473 88.5082 181.216C88.5553 181.145 88.5656 181.054 88.5381 180.95C88.5107 180.847 88.4463 180.733 88.3499 180.618C88.2536 180.503 88.1279 180.39 87.9825 180.287C87.8371 180.184 87.6759 180.095 87.5114 180.026C85.0899 178.966 82.7437 177.592 80.6861 176.029L80.6862 176.027Z" fill="#1F1F40"/>
<path d="M81.9291 181.969C82.7903 182.379 83.7164 182.69 84.5806 182.861C83.981 182.377 83.2112 181.916 82.3596 181.531C80.6058 180.672 79.7777 180.572 79.7777 180.572C80.3184 181.07 81.0697 181.559 81.9291 181.969V181.969Z" fill="#FF2936"/>
<path d="M88.324 177.577C88.2983 177.564 88.2743 177.548 88.2531 177.53L86.7175 176.278C86.6726 176.242 86.6386 176.201 86.62 176.162C86.6014 176.122 86.599 176.085 86.6131 176.056C86.6269 176.026 86.6563 176.005 86.6976 175.995C86.7388 175.985 86.7902 175.987 86.8454 176.001C86.8454 176.001 88.4296 176.418 88.9049 176.536C88.9781 176.555 89.0523 176.593 89.1113 176.642C89.1704 176.691 89.2096 176.747 89.2205 176.798C89.2266 176.823 89.2253 176.847 89.2166 176.867C89.2079 176.887 89.1919 176.903 89.1698 176.914C89.1476 176.925 89.1196 176.932 89.0875 176.932C89.0555 176.933 89.02 176.928 88.9833 176.918C88.7182 176.853 88.1017 176.693 87.6132 176.564L88.5828 177.355C88.6422 177.403 88.6821 177.459 88.694 177.51C88.7058 177.56 88.6887 177.602 88.6462 177.626C88.6109 177.646 88.5601 177.651 88.5018 177.643C88.4436 177.634 88.381 177.611 88.324 177.577V177.577Z" fill="#1F1F40"/>
<path d="M81.7164 173.893C81.6534 173.856 81.6008 173.808 81.5682 173.758C81.5357 173.708 81.5252 173.66 81.5387 173.621C81.5523 173.583 81.5889 173.558 81.6421 173.549C81.6952 173.541 81.7614 173.551 81.8287 173.576L83.0362 174.037L82.0885 173.036C82.0389 172.983 82.0131 172.926 82.0166 172.879C82.02 172.832 82.0525 172.798 82.107 172.784C82.1631 172.772 82.2364 172.78 82.3113 172.809C82.3862 172.838 82.4568 172.884 82.508 172.937L83.925 174.436C83.9626 174.476 83.9874 174.518 83.9962 174.557C84.005 174.595 83.9975 174.629 83.9746 174.654C83.9514 174.68 83.9128 174.694 83.864 174.696C83.8152 174.698 83.7587 174.686 83.7022 174.663L81.7943 173.917C81.7689 173.912 81.7425 173.904 81.7164 173.893V173.893Z" fill="#1F1F40"/>
<path d="M341.857 134.186C343.151 134.933 344.18 135.941 344.727 136.98C345.271 138.013 345.295 138.994 344.804 139.719L344.804 139.719L341.682 144.35C341.187 145.077 340.205 145.497 338.937 145.499C337.671 145.5 336.234 145.086 334.943 144.344L341.857 134.186ZM341.857 134.186L322.742 123.187L341.857 134.186ZM334.943 144.344L328.924 140.868L328.902 140.855L328.88 140.854C327.891 140.817 326.956 140.835 326.134 140.851C325.839 140.857 325.559 140.863 325.296 140.865C324.796 140.87 324.36 140.864 324.002 140.83C323.64 140.796 323.373 140.734 323.203 140.636C323.035 140.539 322.868 140.365 322.687 140.108C322.507 139.852 322.321 139.521 322.112 139.122C321.98 138.87 321.839 138.591 321.686 138.288C321.359 137.638 320.976 136.878 320.505 136.04L320.487 136.007L320.456 135.989L315.835 133.325C314.545 132.58 313.519 131.575 312.971 130.539C312.427 129.508 312.398 128.529 312.882 127.803C312.882 127.803 312.882 127.803 312.882 127.803L316.009 123.173C316.009 123.173 316.009 123.173 316.009 123.173C316.507 122.449 317.489 122.033 318.755 122.032C320.02 122.032 321.454 122.447 322.742 123.187L334.943 144.344Z" fill="#FCFCFC" stroke="#A3A3A3" stroke-width="0.2"/>
<path d="M332.744 131.271C331.05 129.933 329.006 128.92 327.058 128.454C325.11 127.987 323.415 128.105 322.342 128.78V128.78C321.275 129.462 320.921 130.648 321.358 132.079C321.794 133.51 322.986 135.069 324.672 136.416V136.416C326.363 137.752 328.402 138.764 330.347 139.233C332.293 139.701 333.987 139.588 335.063 138.918V138.918C336.136 138.237 336.495 137.051 336.06 135.617C335.625 134.184 334.433 132.621 332.744 131.271V131.271Z" fill="url(#paint17_linear)"/>
<path d="M325.393 132.272C325.256 132.165 325.1 132.069 324.937 131.991C324.774 131.913 324.608 131.856 324.452 131.824C324.297 131.791 324.155 131.784 324.039 131.804C323.923 131.824 323.835 131.869 323.782 131.937V131.937C322.869 133.196 324.246 135.455 326.85 136.978C329.453 138.502 332.302 138.718 333.215 137.461C333.262 137.39 333.273 137.299 333.245 137.195C333.218 137.092 333.153 136.978 333.057 136.863C332.961 136.748 332.835 136.635 332.69 136.532C332.544 136.43 332.383 136.34 332.219 136.271C329.797 135.211 327.451 133.838 325.393 132.275L325.393 132.272Z" fill="#1F1F40"/>
<path d="M326.636 138.214C327.497 138.624 328.424 138.935 329.288 139.106C328.688 138.622 327.918 138.161 327.067 137.776C325.313 136.917 324.485 136.817 324.485 136.817C325.026 137.316 325.777 137.804 326.636 138.214V138.214Z" fill="#FF2936"/>
<path d="M333.031 133.821C333.005 133.808 332.981 133.792 332.96 133.774L331.425 132.522C331.38 132.486 331.346 132.446 331.327 132.406C331.309 132.366 331.306 132.329 331.32 132.3C331.334 132.27 331.363 132.249 331.405 132.239C331.446 132.229 331.497 132.231 331.553 132.245C331.553 132.245 333.137 132.662 333.612 132.78C333.685 132.799 333.759 132.838 333.818 132.887C333.878 132.936 333.917 132.991 333.928 133.042C333.934 133.068 333.932 133.091 333.924 133.111C333.915 133.131 333.899 133.147 333.877 133.158C333.855 133.17 333.827 133.176 333.795 133.176C333.763 133.177 333.727 133.172 333.691 133.162C333.425 133.097 332.809 132.937 332.32 132.808L333.29 133.599C333.349 133.647 333.389 133.703 333.401 133.754C333.413 133.805 333.396 133.846 333.353 133.87C333.318 133.89 333.267 133.896 333.209 133.887C333.151 133.878 333.088 133.855 333.031 133.821V133.821Z" fill="#1F1F40"/>
<path d="M326.424 130.137C326.361 130.1 326.308 130.051 326.275 130.002C326.243 129.952 326.232 129.903 326.246 129.865C326.259 129.827 326.296 129.801 326.349 129.793C326.402 129.785 326.469 129.795 326.536 129.82L327.743 130.281L326.796 129.28C326.746 129.227 326.72 129.17 326.724 129.123C326.727 129.076 326.76 129.042 326.814 129.028C326.87 129.016 326.944 129.025 327.018 129.053C327.093 129.082 327.164 129.128 327.215 129.181L328.632 130.68C328.67 130.72 328.695 130.762 328.703 130.8C328.712 130.839 328.705 130.873 328.682 130.898C328.659 130.923 328.62 130.938 328.571 130.94C328.522 130.941 328.466 130.93 328.409 130.907L326.501 130.161C326.476 130.156 326.45 130.148 326.424 130.137V130.137Z" fill="#1F1F40"/>
<defs>
<linearGradient id="paint0_linear" x1="348.641" y1="62.5291" x2="378.676" y2="92.5338" gradientUnits="userSpaceOnUse">
<stop stop-color="#D65F83"/>
<stop offset="1" stop-color="#DC3E6C"/>
</linearGradient>
<linearGradient id="paint1_linear" x1="213.559" y1="153.327" x2="243.594" y2="183.332" gradientUnits="userSpaceOnUse">
<stop stop-color="#D65F83"/>
<stop offset="1" stop-color="#DC3E6C"/>
</linearGradient>
<linearGradient id="paint2_linear" x1="252.66" y1="237.674" x2="284.04" y2="238.483" gradientUnits="userSpaceOnUse">
<stop stop-color="#D65F83"/>
<stop offset="1" stop-color="#DC3E6C"/>
</linearGradient>
<linearGradient id="paint3_linear" x1="135.284" y1="45.2197" x2="163.781" y2="57.7759" gradientUnits="userSpaceOnUse">
<stop stop-color="#D65F83"/>
<stop offset="1" stop-color="#DC3E6C"/>
</linearGradient>
<linearGradient id="paint4_linear" x1="223.737" y1="91.6368" x2="245.058" y2="101.031" gradientUnits="userSpaceOnUse">
<stop stop-color="#D65F83"/>
<stop offset="1" stop-color="#DC3E6C"/>
</linearGradient>
<linearGradient id="paint5_linear" x1="120.993" y1="162.965" x2="138.92" y2="180.618" gradientUnits="userSpaceOnUse">
<stop stop-color="#D65F83"/>
<stop offset="1" stop-color="#DC3E6C"/>
</linearGradient>
<linearGradient id="paint6_linear" x1="25.0011" y1="165.01" x2="4.66963" y2="185.321" gradientUnits="userSpaceOnUse">
<stop stop-color="#D65F83"/>
<stop offset="1" stop-color="#DC3E6C"/>
</linearGradient>
<linearGradient id="paint7_linear" x1="10002.8" y1="10025.9" x2="11028.1" y2="11036.7" gradientUnits="userSpaceOnUse">
<stop stop-color="#65BBFF"/>
<stop offset="1" stop-color="#315DA4"/>
</linearGradient>
<linearGradient id="paint8_linear" x1="9859.9" y1="9926.01" x2="10885.2" y2="10936.8" gradientUnits="userSpaceOnUse">
<stop stop-color="#65BBFF"/>
<stop offset="1" stop-color="#315DA4"/>
</linearGradient>
<linearGradient id="paint9_linear" x1="10191.5" y1="10009.9" x2="11216.8" y2="11020.7" gradientUnits="userSpaceOnUse">
<stop stop-color="#65BBFF"/>
<stop offset="1" stop-color="#315DA4"/>
</linearGradient>
<linearGradient id="paint10_linear" x1="7636.99" y1="7692.98" x2="8422.21" y2="8467.05" gradientUnits="userSpaceOnUse">
<stop stop-color="#65BBFF"/>
<stop offset="1" stop-color="#315DA4"/>
</linearGradient>
<linearGradient id="paint11_linear" x1="1110.7" y1="8266.18" x2="918.53" y2="9029.12" gradientUnits="userSpaceOnUse">
<stop stop-color="#65BBFF"/>
<stop offset="1" stop-color="#315DA4"/>
</linearGradient>
<linearGradient id="paint12_linear" x1="898.592" y1="8086.81" x2="706.417" y2="8849.72" gradientUnits="userSpaceOnUse">
<stop stop-color="#65BBFF"/>
<stop offset="1" stop-color="#315DA4"/>
</linearGradient>
<linearGradient id="paint13_linear" x1="5348.68" y1="6621.04" x2="5796.59" y2="7330.09" gradientUnits="userSpaceOnUse">
<stop stop-color="#65BBFF"/>
<stop offset="1" stop-color="#315DA4"/>
</linearGradient>
<linearGradient id="paint14_linear" x1="9075.74" y1="1823.5" x2="9756.42" y2="1919.18" gradientUnits="userSpaceOnUse">
<stop stop-color="#FFF900"/>
<stop offset="1" stop-color="#FF7C00"/>
</linearGradient>
<linearGradient id="paint15_linear" x1="6585.42" y1="11366.5" x2="6802.48" y2="12298.5" gradientUnits="userSpaceOnUse">
<stop stop-color="#FFF900"/>
<stop offset="1" stop-color="#FF7C00"/>
</linearGradient>
<linearGradient id="paint16_linear" x1="6733.47" y1="6693.34" x2="6659.86" y2="6998.79" gradientUnits="userSpaceOnUse">
<stop stop-color="#FFF900"/>
<stop offset="1" stop-color="#FF7C00"/>
</linearGradient>
<linearGradient id="paint17_linear" x1="6978.14" y1="6649.57" x2="6904.55" y2="6955.02" gradientUnits="userSpaceOnUse">
<stop stop-color="#FFF900"/>
<stop offset="1" stop-color="#FF7C00"/>
</linearGradient>
</defs>
</svg>
