<svg width="71" height="49" viewBox="0 0 71 49" fill="none" xmlns="http://www.w3.org/2000/svg">
<path fill-rule="evenodd" clip-rule="evenodd" d="M0.330078 1.87035C0.330078 1.22908 0.849684 0.709229 1.49065 0.709229H69.4368C70.0777 0.709229 70.5973 1.22908 70.5973 1.87035V47.1394C70.5973 47.7807 70.0777 48.3005 69.4368 48.3005H1.49065C0.849682 48.3005 0.330078 47.7807 0.330078 47.1394V1.87035ZM1.49065 1.34257C1.1993 1.34257 0.963117 1.57886 0.963117 1.87035V47.1394C0.963117 47.4309 1.1993 47.6672 1.49065 47.6672H69.4368C69.7281 47.6672 69.9643 47.4309 69.9643 47.1394V1.87035C69.9643 1.57886 69.7281 1.34257 69.4368 1.34257H1.49065Z" fill="#274684"/>
<path d="M0.748047 5.38575C0.748047 5.31371 16.2499 5.2583 35.3835 5.2583C54.5172 5.2583 70.019 5.31371 70.019 5.38575C70.019 5.45778 54.5172 5.50765 35.3835 5.50765C16.2499 5.50765 0.748047 5.4467 0.748047 5.38575Z" fill="#274684"/>
<path d="M3.46469 3.28775C3.46469 3.39734 3.43223 3.50447 3.37139 3.5956C3.31056 3.68672 3.22409 3.75774 3.12293 3.79968C3.02176 3.84162 2.91044 3.85259 2.80305 3.83121C2.69566 3.80983 2.59701 3.75706 2.51958 3.67956C2.44215 3.60207 2.38942 3.50334 2.36806 3.39585C2.3467 3.28836 2.35766 3.17695 2.39957 3.0757C2.44147 2.97445 2.51243 2.88791 2.60347 2.82703C2.69452 2.76614 2.80156 2.73364 2.91106 2.73364C3.05789 2.73364 3.19871 2.79202 3.30254 2.89594C3.40637 2.99985 3.46469 3.14079 3.46469 3.28775Z" fill="#274684"/>
<path d="M4.81536 3.84112C5.12112 3.84112 5.36899 3.59304 5.36899 3.28702C5.36899 2.98099 5.12112 2.73291 4.81536 2.73291C4.50959 2.73291 4.26172 2.98099 4.26172 3.28702C4.26172 3.59304 4.50959 3.84112 4.81536 3.84112Z" fill="#274684"/>
<path d="M7.24594 3.28702C7.24594 3.39661 7.21348 3.50374 7.15264 3.59486C7.09181 3.68599 7.00534 3.75701 6.90418 3.79895C6.80301 3.84089 6.69169 3.85186 6.5843 3.83048C6.47691 3.8091 6.37826 3.75632 6.30083 3.67883C6.2234 3.60134 6.17067 3.50261 6.14931 3.39512C6.12795 3.28763 6.13891 3.17622 6.18082 3.07497C6.22272 2.97372 6.29368 2.88718 6.38472 2.8263C6.47577 2.76541 6.58281 2.73291 6.69231 2.73291C6.83914 2.73291 6.97996 2.79129 7.08379 2.8952C7.18762 2.99912 7.24594 3.14006 7.24594 3.28702Z" fill="#274684"/>
<path d="M24.3388 10.2214H7.53546C7.0693 10.2214 6.69141 10.5995 6.69141 11.0659V27.8772C6.69141 28.3436 7.0693 28.7216 7.53546 28.7216H24.3388C24.805 28.7216 25.1829 28.3436 25.1829 27.8772V11.0659C25.1829 10.5995 24.805 10.2214 24.3388 10.2214Z" fill="#274684"/>
<path d="M60.5403 15.4498C60.5403 15.5163 53.343 15.5717 44.435 15.5717C35.527 15.5717 28.3242 15.5163 28.3242 15.4498C28.3242 15.3833 35.5215 15.3279 44.435 15.3279C53.3486 15.3279 60.5403 15.3833 60.5403 15.4498Z" fill="#274684"/>
<path d="M60.5403 18.8892C60.5403 18.9557 53.343 19.0111 44.435 19.0111C35.527 19.0111 28.3242 18.9557 28.3242 18.8892C28.3242 18.8227 35.5215 18.7617 44.435 18.7617C53.3486 18.7617 60.5403 18.8171 60.5403 18.8892Z" fill="#274684"/>
<path d="M60.5403 22.3236C60.5403 22.3956 53.343 22.451 44.435 22.451C35.527 22.451 28.3242 22.3956 28.3242 22.3236C28.3242 22.2515 35.5215 22.2017 44.435 22.2017C53.3486 22.2017 60.5403 22.2571 60.5403 22.3236Z" fill="#274684"/>
<path d="M15.6957 34.958H8.69171C8.22555 34.958 7.84766 35.3361 7.84766 35.8025V42.8098C7.84766 43.2761 8.22555 43.6542 8.69171 43.6542H15.6957C16.1619 43.6542 16.5397 43.2761 16.5397 42.8098V35.8025C16.5397 35.3361 16.1619 34.958 15.6957 34.958Z" fill="#274684"/>
<path d="M31.4613 34.958H24.4573C23.9912 34.958 23.6133 35.3361 23.6133 35.8025V42.8098C23.6133 43.2761 23.9912 43.6542 24.4573 43.6542H31.4613C31.9275 43.6542 32.3054 43.2761 32.3054 42.8098V35.8025C32.3054 35.3361 31.9275 34.958 31.4613 34.958Z" fill="#274684"/>
<path d="M47.2172 34.958H40.2132C39.747 34.958 39.3691 35.3361 39.3691 35.8025V42.8098C39.3691 43.2761 39.747 43.6542 40.2132 43.6542H47.2172C47.6833 43.6542 48.0612 43.2761 48.0612 42.8098V35.8025C48.0612 35.3361 47.6833 34.958 47.2172 34.958Z" fill="#274684"/>
<path d="M62.9808 34.958H55.9769C55.5107 34.958 55.1328 35.3361 55.1328 35.8025V42.8098C55.1328 43.2761 55.5107 43.6542 55.9769 43.6542H62.9808C63.447 43.6542 63.8249 43.2761 63.8249 42.8098V35.8025C63.8249 35.3361 63.447 34.958 62.9808 34.958Z" fill="#274684"/>
</svg>
