<svg width="257" height="240" viewBox="0 0 257 240" fill="none" xmlns="http://www.w3.org/2000/svg">
<g clip-path="url(#clip0)">
<g clip-path="url(#clip1)">
<path d="M187.5 221V222.5L132 230.5V228.5L187.5 221Z" fill="#40689D"/>
<path d="M132 229V230.5C88.5004 224.5 100.018 222.861 112.5 168.5L116.5 167.64C103.946 221.416 89.8153 215.3 132 229Z" fill="#40689D"/>
<path d="M107.669 195.971C109.985 188.432 112.909 178.914 115.765 166.793L158.063 164.108C156.416 174.468 154.4 182.321 152.831 188.432C152.64 189.177 152.455 189.897 152.279 190.592C151.464 193.798 150.822 196.486 150.499 198.785C150.177 201.085 150.174 203.006 150.643 204.677C151.585 208.028 154.415 210.336 160.241 212.701C166 215.039 174.717 217.447 187.51 220.969L132.5 228.899C121.629 227.416 114.367 226.144 109.779 224.233C107.486 223.278 105.87 222.167 104.804 220.798C103.74 219.431 103.219 217.799 103.133 215.787C103.046 213.772 103.395 211.381 104.07 208.502C104.744 205.624 105.742 202.264 106.95 198.315C107.182 197.556 107.422 196.774 107.669 195.971Z" fill="#B4D1FA" stroke="black" stroke-width="0.2"/>
<g filter="url(#filter0_f)">
<path d="M103.5 215C101 215 112 182 116 167L158.5 165C152.499 190.5 148.5 200.5 152 208C142 211 111.148 215 103.5 215Z" fill="#2F527F" fill-opacity="0.3"/>
</g>
</g>
<path d="M248.237 173.592L236.594 167.243C236.982 167.187 237.361 167.075 237.717 166.911L249.361 173.259C249.004 173.424 248.626 173.536 248.237 173.592Z" fill="#40689D"/>
<path d="M249.359 173.26L237.716 166.911C237.932 166.813 238.137 166.693 238.329 166.553L249.972 172.902L249.359 173.26Z" fill="#40689D"/>
<path d="M249.972 172.901L238.329 166.552C238.507 166.447 238.671 166.318 238.814 166.168L250.458 172.517C250.309 172.66 250.146 172.789 249.972 172.901Z" fill="#40689D"/>
<path d="M250.457 172.518L238.813 166.169L239.222 165.76L250.865 172.083L250.457 172.518Z" fill="#40689D"/>
<path d="M250.866 172.083L239.223 165.76C239.234 165.701 239.234 165.64 239.223 165.581C239.304 165.507 239.373 165.421 239.427 165.325L251.07 171.674L250.866 171.93C250.876 171.98 250.876 172.033 250.866 172.083Z" fill="#40689D"/>
<path d="M250.776 172.65L239.556 165.325C239.675 165.152 239.786 164.972 239.888 164.787L251.999 170.5C251.898 170.685 251.319 172.477 251.199 172.65" fill="#40689D"/>
<path d="M251.53 171.135L240.015 164.787C240.015 164.556 240.244 164.326 240.347 164.095L251.964 170.444C251.884 170.684 251.781 170.915 251.658 171.135" fill="#40689D"/>
<path d="M251.837 170.444L240.22 164.095C240.426 163.512 240.53 162.897 240.526 162.278L252.169 168.627C252.176 169.248 252.063 169.865 251.837 170.444Z" fill="#40689D"/>
<path d="M252.171 168.626L240.527 162.277L240.553 157.848L252.196 164.197L252.171 168.626Z" fill="#40689D"/>
<path d="M58.0904 200.344L46.4727 193.995L236.595 167.243L248.238 173.592L58.0904 200.344Z" fill="#40689D"/>
<path d="M56.8909 205.055L45.2477 198.706C44.9157 198.505 44.6436 198.219 44.4594 197.877C44.2753 197.535 44.186 197.149 44.2008 196.761C44.1967 196.428 44.2574 196.097 44.3795 195.788L55.9973 202.239C55.8865 202.552 55.8262 202.88 55.8185 203.212C55.8064 203.603 55.8995 203.99 56.0882 204.332C56.277 204.675 56.5543 204.96 56.8909 205.158" fill="#40689D"/>
<path d="M55.9966 202.239L44.3789 195.89C44.4189 195.758 44.468 195.524 44.53 195.401L56.1754 201.752C56.1053 201.875 56.0455 202.003 55.9966 202.136" fill="#40689D"/>
<path d="M56.1765 201.752L44.5332 195.403L44.7119 195.096L56.3552 201.445L56.1765 201.752Z" fill="#40689D"/>
<path d="M56.3552 201.445L44.7119 195.097L44.9162 194.841L56.5594 201.189L56.3552 201.445Z" fill="#40689D"/>
<path d="M56.5603 201.19L44.917 194.841L45.1468 194.61L56.7901 200.959L56.5603 201.19Z" fill="#40689D"/>
<path d="M56.7898 200.958L45.0801 194.671L45.4274 194.401L57.0707 200.702L56.7898 200.907" fill="#40689D"/>
<path d="M57.07 200.754L45.4268 194.405L45.7842 194.201L57.4275 200.549L57.07 200.754Z" fill="#40689D"/>
<path d="M57.4275 200.549L45.7842 194.2C45.9995 194.09 46.2332 194.021 46.4736 193.996L58.1169 200.344C57.8765 200.37 57.6427 200.439 57.4275 200.549Z" fill="#40689D"/>
<path d="M42 203.001L30.6406 196.224C30.8934 196.172 31.1539 196.172 31.4066 196.224L43.26 202.691C43.0072 202.639 42.2528 202.949 42 203.001Z" fill="#40689D"/>
<path d="M43.0515 202.599L31.4082 196.25C31.5335 196.285 31.6536 196.337 31.7657 196.403L43.4089 202.752C43.2969 202.686 43.1768 202.634 43.0515 202.599Z" fill="#40689D"/>
<path d="M43.406 202.751L31.7627 196.403L43.406 202.777" fill="#40689D"/>
<path d="M20 206L8.55273 199.321L30.6392 196.223L42.5 203L20 206Z" fill="#40689D"/>
<path d="M18.156 205.337L6.5127 198.988H6.64036L18.2836 205.337" fill="#40689D"/>
<path d="M18.2839 205.387L6.64062 199.038C6.83586 199.137 7.04136 199.214 7.25343 199.269L18.8967 205.617C18.6834 205.567 18.4775 205.49 18.2839 205.387Z" fill="#40689D"/>
<path d="M18.8952 205.619L7.25195 199.27C7.68133 199.361 8.12478 199.361 8.55416 199.27L20.1719 205.67C19.7512 205.761 19.3159 205.761 18.8952 205.67" fill="#40689D"/>
<path d="M15.6781 209.919L4.03484 203.468C3.49354 203.119 2.99627 202.707 2.5539 202.239C1.73328 201.427 1.08423 200.458 0.64553 199.389C0.206828 198.32 -0.0125309 197.174 0.000552616 196.018L11.6438 202.367C11.6307 203.522 11.8501 204.669 12.2888 205.738C12.7275 206.807 13.3765 207.776 14.1972 208.588C14.6532 209.021 15.1589 209.399 15.7036 209.714" fill="#40689D"/>
<path d="M11.7185 202.47L0.0751953 196.121L0.151796 186.803L11.7695 193.151L11.7185 202.47Z" fill="#40689D"/>
<path d="M11.772 193.151L0.154297 186.802L245.097 152.268L256.74 158.642L11.772 193.151Z" fill="#7F94B1"/>
<path d="M254.111 174.936L254.109 174.938C252.7 176.732 250.706 177.969 248.477 178.434C248.476 178.434 248.475 178.435 248.473 178.435L58.0777 205.16C58.0775 205.16 58.0774 205.16 58.0773 205.16C57.7956 205.197 57.5092 205.17 57.239 205.082C56.9686 204.995 56.7211 204.847 56.5143 204.652C56.3076 204.456 56.1468 204.217 56.0436 203.951C55.9405 203.686 55.8975 203.4 55.9179 203.116L55.9181 203.116L55.9182 203.11C55.9238 202.477 56.1477 201.865 56.5519 201.379C56.9554 200.893 57.5139 200.563 58.1326 200.443C58.1335 200.442 58.1343 200.442 58.1351 200.442L248.252 173.691L248.254 173.691C249.378 173.509 250.389 172.9 251.075 171.989C251.843 171.037 252.264 169.851 252.271 168.626V168.626V164.197V164.082L252.157 164.098L16.2784 197.378L16.1923 197.39V197.477V201.852C16.1718 202.407 16.2631 202.959 16.4608 203.477C16.6586 203.995 16.959 204.469 17.3438 204.868L17.345 204.869C17.7127 205.237 18.162 205.513 18.6564 205.673C19.1504 205.834 19.6753 205.875 20.1882 205.793C20.1885 205.793 20.1888 205.793 20.1892 205.793L42.2985 202.696C42.2986 202.696 42.2988 202.696 42.2989 202.696C42.5772 202.659 42.8603 202.685 43.1274 202.771C43.3947 202.858 43.6395 203.003 43.8438 203.196C44.0482 203.39 44.2071 203.626 44.3089 203.889C44.4108 204.151 44.453 204.433 44.4326 204.714L44.4323 204.714L44.4324 204.722C44.4335 205.355 44.2157 205.97 43.816 206.461C43.4169 206.951 42.8611 207.287 42.243 207.413L20.1596 210.485L20.1577 210.485C19.0948 210.655 18.0073 210.574 16.9808 210.25C15.9545 209.926 15.0173 209.367 14.243 208.618C13.4321 207.816 12.7907 206.858 12.3572 205.802C11.9236 204.745 11.7068 203.612 11.7197 202.47H11.7197V202.469V193.237L256.641 158.833L256.641 168.061C256.641 168.061 256.641 168.062 256.641 168.062C256.607 170.576 255.714 173.003 254.111 174.936Z" fill="#B4D1FA" stroke="black" stroke-width="0.2"/>
<path d="M251.992 155.802L240.349 149.453L240.604 9.2673L252.247 15.6161L251.992 155.802Z" fill="#862F40"/>
<path d="M252.247 15.616L240.604 9.26724C240.632 8.49442 240.45 7.7284 240.077 7.05173C239.703 6.37506 239.153 5.81339 238.484 5.42725L250.23 11.776C250.898 12.1622 251.449 12.7239 251.822 13.4005C252.196 14.0772 252.378 14.8432 252.349 15.616" fill="#862F40"/>
<path d="M247.674 6.42527L236 0.0801144C237.053 -0.0436756 238.177 -0.0371062 239.196 0.25567L250.84 6.60447C249.807 6.33398 248.73 6.27305 247.674 6.42527Z" fill="#9A384B"/>
<path d="M250.841 6.60399L239.197 0.255188C239.696 0.38336 240.183 0.554668 240.653 0.767188L252.296 7.11599C251.826 6.90347 251.34 6.73216 250.841 6.60399Z" fill="#9A384B"/>
<path d="M252.297 7.11635L240.653 0.767548L240.934 0.921148L252.552 7.26995L252.297 7.11635Z" fill="#9A384B"/>
<path d="M134.076 172.416L122.433 166.067L240.346 149.452L251.99 155.801L134.076 172.416Z" fill="#9A384B"/>
<path d="M16.1882 189.031L4.54492 182.682L122.433 166.067L134.076 172.416L16.1882 189.031Z" fill="#9A384B"/>
<path d="M14.5 43.4999L9.39648 32.0259L236.057 0.0770569L247.701 6.42586L14.5 43.4999Z" fill="#9A384B"/>
<path d="M11.8098 193.18L0.149414 186.8L0.255664 43.1352C5.31426 44.5064 7.76621 46.0748 11.8989 49.484L11.8098 193.18Z" fill="#9A384B"/>
<mask id="path-43-inside-1" fill="white">
<path d="M247.676 6.42458C248.858 6.26535 250.06 6.37232 251.195 6.73772C252.33 7.10311 253.37 7.71773 254.238 8.53681C255.106 9.35588 255.782 10.3588 256.215 11.4725C256.647 12.5863 256.827 13.7828 256.741 14.975V158.865L134.078 177.356L11.6221 193.33L11.9 49.4326C11.9222 46.819 12.8441 44.2934 14.5098 42.2829C16.1754 40.2724 18.4826 38.9004 21.041 38.399L247.676 6.42458ZM251.94 155.801L252.247 15.615C252.286 15.0164 252.193 14.4165 251.972 13.8587C251.752 13.3009 251.411 12.7992 250.973 12.39C250.536 11.9807 250.013 11.6742 249.443 11.4926C248.873 11.3109 248.269 11.2587 247.676 11.3398L21.0155 43.2886C19.731 43.5428 18.5738 44.2351 17.7407 45.2478C16.9075 46.2604 16.4497 47.531 16.445 48.8438L16.1897 189.029L134.078 172.415L251.966 155.801"/>
</mask>
<path d="M247.676 6.42458C248.858 6.26535 250.06 6.37232 251.195 6.73772C252.33 7.10311 253.37 7.71773 254.238 8.53681C255.106 9.35588 255.782 10.3588 256.215 11.4725C256.647 12.5863 256.827 13.7828 256.741 14.975V158.865L134.078 177.356L11.6221 193.33L11.9 49.4326C11.9222 46.819 12.8441 44.2934 14.5098 42.2829C16.1754 40.2724 18.4826 38.9004 21.041 38.399L247.676 6.42458ZM251.94 155.801L252.247 15.615C252.286 15.0164 252.193 14.4165 251.972 13.8587C251.752 13.3009 251.411 12.7992 250.973 12.39C250.536 11.9807 250.013 11.6742 249.443 11.4926C248.873 11.3109 248.269 11.2587 247.676 11.3398L21.0155 43.2886C19.731 43.5428 18.5738 44.2351 17.7407 45.2478C16.9075 46.2604 16.4497 47.531 16.445 48.8438L16.1897 189.029L134.078 172.415L251.966 155.801" fill="#E87891"/>
<path d="M247.676 6.42458L247.65 6.22637L247.648 6.22654L247.676 6.42458ZM256.741 14.975L256.541 14.9605L256.541 14.9677V14.975H256.741ZM256.741 158.865L256.77 159.063L256.941 159.038V158.865H256.741ZM134.078 177.356L134.104 177.554L134.108 177.553L134.078 177.356ZM11.6221 193.33L11.4221 193.33L11.4216 193.558L11.6479 193.528L11.6221 193.33ZM11.9 49.4326L11.7 49.4309L11.7 49.4322L11.9 49.4326ZM21.041 38.399L21.013 38.2007L21.0026 38.2027L21.041 38.399ZM252.247 15.615L252.047 15.6018L252.047 15.6145L252.247 15.615ZM247.676 11.3398L247.649 11.1416L247.648 11.1417L247.676 11.3398ZM21.0155 43.2886L20.9875 43.0902L20.9767 43.0924L21.0155 43.2886ZM16.445 48.8438L16.245 48.8431L16.245 48.8434L16.445 48.8438ZM16.1897 189.029L15.9897 189.029L15.9892 189.26L16.2176 189.227L16.1897 189.029ZM134.078 172.415L134.05 172.217L134.078 172.415ZM247.703 6.62279C248.855 6.46754 250.027 6.57184 251.134 6.9281L251.256 6.54734C250.093 6.17281 248.861 6.06316 247.65 6.22637L247.703 6.62279ZM251.134 6.9281C252.241 7.28436 253.254 7.88362 254.101 8.68229L254.375 8.39132C253.485 7.55183 252.42 6.92186 251.256 6.54734L251.134 6.9281ZM254.101 8.68229C254.948 9.48096 255.606 10.4589 256.028 11.545L256.401 11.4001C255.957 10.2587 255.265 9.23081 254.375 8.39132L254.101 8.68229ZM256.028 11.545C256.45 12.6311 256.626 13.7979 256.541 14.9605L256.94 14.9895C257.029 13.7677 256.845 12.5415 256.401 11.4001L256.028 11.545ZM256.541 14.975V158.865H256.941V14.975H256.541ZM256.711 158.668L134.048 177.158L134.108 177.553L256.77 159.063L256.711 158.668ZM134.052 177.157L11.5962 193.132L11.6479 193.528L134.104 177.554L134.052 177.157ZM11.8221 193.33L12.1 49.433L11.7 49.4322L11.4221 193.33L11.8221 193.33ZM12.1 49.4343C12.1218 46.8667 13.0275 44.3855 14.6638 42.4105L14.3558 42.1553C12.6607 44.2013 11.7226 46.7714 11.7 49.4309L12.1 49.4343ZM14.6638 42.4105C16.3001 40.4354 18.5664 39.0877 21.0795 38.5952L21.0026 38.2027C18.3988 38.713 16.0508 40.1093 14.3558 42.1553L14.6638 42.4105ZM21.069 38.597L247.704 6.62262L247.648 6.22654L21.0131 38.2009L21.069 38.597ZM252.14 155.801L252.447 15.6154L252.047 15.6145L251.74 155.8L252.14 155.801ZM252.446 15.6282C252.488 15.0001 252.389 14.3706 252.158 13.7852L251.786 13.9321C251.996 14.4624 252.085 15.0327 252.047 15.6018L252.446 15.6282ZM252.158 13.7852C251.927 13.1999 251.569 12.6734 251.11 12.2439L250.837 12.536C251.253 12.925 251.577 13.4019 251.786 13.9321L252.158 13.7852ZM251.11 12.2439C250.651 11.8144 250.102 11.4926 249.503 11.302L249.382 11.6831C249.924 11.8557 250.421 12.1471 250.837 12.536L251.11 12.2439ZM249.503 11.302C248.905 11.1113 248.271 11.0565 247.649 11.1416L247.703 11.5379C248.267 11.4609 248.84 11.5105 249.382 11.6831L249.503 11.302ZM247.648 11.1417L20.9876 43.0905L21.0434 43.4866L247.704 11.5378L247.648 11.1417ZM20.9767 43.0924C19.6467 43.3556 18.4487 44.0724 17.5862 45.1207L17.8951 45.3748C18.6989 44.3978 19.8152 43.73 21.0543 43.4848L20.9767 43.0924ZM17.5862 45.1207C16.7237 46.169 16.2499 47.4843 16.245 48.8431L16.645 48.8445C16.6495 47.5778 17.0913 46.3518 17.8951 45.3748L17.5862 45.1207ZM16.245 48.8434L15.9897 189.029L16.3897 189.03L16.645 48.8441L16.245 48.8434ZM16.2176 189.227L134.106 172.613L134.05 172.217L16.1618 188.831L16.2176 189.227ZM134.106 172.613L251.994 155.999L251.938 155.603L134.05 172.217L134.106 172.613Z" fill="black" mask="url(#path-43-inside-1)"/>
<path d="M11.8981 49.4844L0.280317 43.1356C0.276618 41.816 0.510152 40.5065 0.969721 39.27L12.613 45.6188C12.1452 46.8539 11.9031 48.1633 11.8981 49.4844Z" fill="#9A384B"/>
<path d="M12.612 45.6195L0.96875 39.2707C1.14597 38.7366 1.37696 38.2219 1.65815 37.7347L13.3014 44.0835C13.0202 44.5707 12.7892 45.0854 12.612 45.6195Z" fill="#9A384B"/>
<path d="M13.3005 44.0823L1.65723 37.7335C1.87963 37.3178 2.12691 36.916 2.3977 36.5303L14.041 42.8791C13.7611 43.2588 13.5135 43.6612 13.3005 44.0823Z" fill="#9A384B"/>
<path d="M14.0427 42.8801L2.39941 36.5313C2.64332 36.1681 2.91659 35.8256 3.21649 35.5073L14.8598 41.8561C14.5599 42.1744 14.2866 42.5169 14.0427 42.8801Z" fill="#9A384B"/>
<path d="M14.861 41.8559L3.21777 35.5071C3.49781 35.1667 3.80524 34.8499 4.13698 34.5599L15.7802 40.9599C15.4485 41.2499 15.1411 41.5667 14.861 41.9071" fill="#9A384B"/>
<path d="M15.779 40.9602L4.13574 34.5602C4.48406 34.2483 4.8507 33.9577 5.23368 33.6898L16.877 40.0386C16.494 40.3064 16.1273 40.5971 15.779 40.909" fill="#9A384B"/>
<path d="M16.8757 40.0371L5.23242 33.6883C5.70552 33.3644 6.20035 33.0735 6.71336 32.8179L18.3566 39.1667C17.8436 39.4223 17.3488 39.7132 16.8757 40.0371Z" fill="#9A384B"/>
<path d="M18.3571 39.1675L6.71387 32.8187C7.564 32.4241 8.4673 32.1567 9.39488 32.0251L21.0381 38.3995C20.1542 38.543 19.2947 38.8101 18.4848 39.1931" fill="#9A384B"/>
</g>
<defs>
<filter id="filter0_f" x="99.1348" y="161" width="63.3652" height="58" filterUnits="userSpaceOnUse" color-interpolation-filters="sRGB">
<feFlood flood-opacity="0" result="BackgroundImageFix"/>
<feBlend mode="normal" in="SourceGraphic" in2="BackgroundImageFix" result="shape"/>
<feGaussianBlur stdDeviation="2" result="effect1_foregroundBlur"/>
</filter>
<clipPath id="clip0">
<rect width="256.765" height="240" fill="white"/>
</clipPath>
<clipPath id="clip1">
<rect width="95" height="68" fill="white" transform="translate(101 164)"/>
</clipPath>
</defs>
</svg>
