<svg width="260" height="191" viewBox="0 0 260 191" fill="none" xmlns="http://www.w3.org/2000/svg">
<path d="M97.0164 191L0.582133 155.114L0.549805 40.0611L97.0487 75.9792L97.0164 191Z" fill="#053866"/>
<path d="M193.709 154.827L97.1777 118.781L97.2747 4.01561L193.903 39.9337L193.709 154.827Z" fill="#102E5B"/>
<path d="M97.0166 191L193.903 154.7V39.9339L97.0489 75.9794L97.0166 191Z" fill="#054270"/>
<path d="M0.582133 155.114L97.2104 118.526L97.275 4.01561L0.549805 40.0612L0.582133 155.114Z" fill="#0A2D49"/>
<path d="M97.0164 191L0.582133 155.082L0.549805 40.0611L97.0487 75.9792L97.0164 191Z" fill="#053866"/>
<path d="M24.6665 77.987L0.582133 68.9677L0.549805 40.0611L24.6665 49.2717V77.987Z" fill="#053866"/>
<path d="M6.98317 67.8203C4.7922 67.8758 2.61316 67.4852 0.582234 66.6729L0.517578 63.5815C5.46375 65.43 10.216 65.0794 13.8367 62.6254C18.201 59.6614 20.9488 54.8171 20.9488 47.71L23.8584 48.8573C23.8584 56.8887 21.4338 61.4462 16.2936 64.9519C13.5376 66.7772 10.303 67.7737 6.98317 67.8203Z" fill="#B9D5FD"/>
<path d="M48.7503 87.0065L24.666 77.9872V49.2718L48.7503 58.2912V87.0065Z" fill="#0E2951"/>
<path d="M72.8343 96.0258L48.75 87.0065V58.2912L72.8343 67.3105V96.0258Z" fill="#709FDC"/>
<path d="M96.9183 104.918L72.834 96.0257V67.3103L97.0476 75.9791L96.9183 104.918Z" fill="#6780B3"/>
<path d="M24.6663 106.702L0.582031 97.6831V68.9678L24.6663 77.9872V106.702Z" fill="#B9D5FD"/>
<path d="M48.7503 115.722L24.666 106.702V77.9871L48.7503 87.0065V115.722Z" fill="#274684"/>
<path d="M72.8343 124.741L48.75 115.722V87.0065L72.8343 96.0258V124.741Z" fill="#3D95D1"/>
<path d="M96.9183 133.633L72.834 124.741V96.0259L96.9183 104.918V133.633Z" fill="#B9D5FD"/>
<path d="M48.7503 144.437L24.666 135.418V106.703L48.7503 115.722V144.437Z" fill="#B9D5FD"/>
<path d="M72.8343 153.457L48.75 144.437V115.722L72.8343 124.741V153.457Z" fill="#0E2951"/>
<path d="M96.9183 162.348L72.834 153.456V124.741L96.9183 133.633V162.348Z" fill="#709FDC"/>
<path d="M24.6663 164.133L0.582031 155.082V126.367L24.6663 135.418V164.133Z" fill="#6780B3"/>
<path d="M48.7503 173.152L24.666 164.133V135.418L48.7503 144.437V173.152Z" fill="#053866"/>
<path d="M72.8343 182.172L48.75 173.152V144.437L72.8343 153.456V182.172Z" fill="#B9D5FD"/>
<path d="M97.0153 191L72.834 182.172V153.457L96.9183 162.348L97.0153 191Z" fill="#3D95D1"/>
<path d="M5.49588 61.8608C3.81118 61.8858 2.13905 61.5713 0.582031 60.9365V57.4945C4.04112 58.8012 8.30841 58.355 10.4421 56.9527C13.9981 54.6262 15.7438 51.0248 15.7438 46.0211L18.6534 47.1685C18.6534 53.3195 16.4227 57.0802 12.4464 59.7892C10.3942 61.1544 7.97152 61.8765 5.49588 61.8608Z" fill="#3D95D1"/>
<path d="M3.7825 55.2315C2.68409 55.2569 1.59288 55.0504 0.582031 54.6259V51.1839C2.65102 51.9488 5.81916 51.7576 7.56487 50.0366C9.40756 48.22 9.89248 46.7539 9.89248 43.7262L12.802 44.8736C12.802 49.0805 11.3472 51.917 8.56703 53.7654C7.16331 54.728 5.4924 55.24 3.7825 55.2315Z" fill="#3376B3"/>
<path d="M2.1661 48.6025C1.62174 48.6446 1.07567 48.5457 0.582031 48.3156V44.8736C1.09928 45.0648 2.81266 45.1923 3.49155 44.8736C4.65535 44.3 4.65535 43.1526 4.07345 41.4316L7.56487 42.5789C7.56487 44.9692 6.69201 46.6265 5.07562 47.742C4.21143 48.3019 3.20023 48.601 2.1661 48.6025Z" fill="#709FDC"/>
<path d="M96.3052 158.333L75.9062 150.716V101.093L96.6931 108.583V112.598L79.3977 106.065V148.325L96.1112 154.54L96.3052 158.333Z" fill="#274684"/>
<path d="M96.6931 159.129L75.9062 150.716V125.41L79.3977 126.558V148.325L96.6931 155.114V159.129Z" fill="#0E2951"/>
<path d="M96.3056 150.875L81.6934 145.393V109.571L96.6935 114.925V118.941L85.1848 114.543V143.609L96.6935 147.656L96.3056 150.875Z" fill="#274684"/>
<path d="M96.3045 143.991L87.9639 140.867V119.96L96.6924 122.956V126.972L91.4553 124.932V138.477L96.6924 140.74L96.3045 143.991Z" fill="#274684"/>
<path d="M96.6924 144.182L87.9639 140.868V129.904L91.4553 131.052V138.478L96.6924 140.167V144.182Z" fill="#0E2951"/>
<path d="M96.6935 151.672L81.6934 145.967V127.578L85.1848 128.725V143.609L96.6935 147.656V151.672Z" fill="#0E2951"/>
<path d="M18.8797 161.966L0.582031 155.082V133.282L18.8797 140.135V161.966Z" fill="#053866"/>
<path d="M12.6404 159.608L0.582031 155.082V140.74L12.6404 145.266V159.608Z" fill="#709FDC"/>
<path d="M72.738 77.8278L64.0095 92.5838L48.8477 76.4892L57.6085 61.7332L72.738 77.8278Z" fill="#0E2951"/>
<path d="M66.8869 77.5092L62.4256 85.0306L54.6992 76.8399L59.1605 69.2866L66.8869 77.5092Z" fill="#6780B3"/>
<path d="M72.8343 182.172L48.75 173.152V150.174L72.8343 159.193V182.172Z" fill="#3D95D1"/>
<path d="M72.8343 182.172L48.75 173.153V156.484L72.8343 165.504V182.172Z" fill="#6780B3"/>
<path d="M72.8343 182.172L48.75 173.153V162.795L72.8343 171.846V182.172Z" fill="#053866"/>
<path d="M72.8343 182.172L48.75 173.153V167.99L72.8343 177.009V182.172Z" fill="#0E2951"/>
<path d="M24.666 84.8393L48.7503 93.8586L24.666 100.966L48.7503 109.985L24.666 84.8393Z" fill="#0E2951"/>
<path d="M3.49155 98.8305L0.582031 97.6831V68.9678L3.49155 70.1151V98.8305Z" fill="#709FDC"/>
<path d="M8.14682 100.552L5.2373 99.4043V70.6889L8.14682 71.8363V100.552Z" fill="#709FDC"/>
<path d="M23.3089 106.288L20.3994 105.141V76.4256L23.3089 77.5729V106.288Z" fill="#709FDC"/>
<path d="M18.2326 104.185L14.7412 103.037V74.354L18.2326 75.5014V104.185Z" fill="#709FDC"/>
<path d="M12.8021 102.272L9.89258 101.125V72.4097L12.8021 73.5571V102.272Z" fill="#709FDC"/>
<path d="M24.6663 135.418L0.582031 126.367V97.6831L24.6663 106.702V135.418Z" fill="#0E2951"/>
<path d="M24.6666 135.418L12.6406 130.892V116.55L24.6666 121.044V135.418Z" fill="#3D95D1"/>
<path d="M12.6404 116.551L0.582031 112.025V97.6831L12.6404 102.177V116.551Z" fill="#3D95D1"/>
<path d="M39.1813 158.365L34.2351 156.516V150.843L42.899 154.094V164.037L30.5174 159.384V145.17L46.5844 151.194V169.774L26.832 162.348V138.796L46.5844 146.19" stroke="#3D95D1" stroke-width="3" stroke-miterlimit="10"/>
<path d="M77.167 180.355L93.5573 164.675" stroke="#0E2951" stroke-width="6" stroke-miterlimit="10"/>
<path d="M93.5573 186.474L77.167 158.524" stroke="#0E2951" stroke-width="6" stroke-miterlimit="10"/>
<path d="M57.4144 129.299L53.5674 127.865V123.275L57.4144 124.71V129.299Z" fill="#B9D5FD"/>
<path d="M62.7162 137.617L58.8691 136.151V131.562L62.7162 132.996V137.617Z" fill="#B9D5FD"/>
<path d="M68.0179 145.903L64.1709 144.469V139.879L68.0179 141.314V145.903Z" fill="#B9D5FD"/>
<path d="M97.0489 75.9794L193.903 39.9339L193.936 154.827L97.0166 191L97.0489 75.9794Z" fill="#053866"/>
<path d="M169.657 106.448L193.936 97.3963V126.112L169.657 135.131V106.448Z" fill="#B9D5FD"/>
<path d="M145.411 115.467L169.657 106.448V135.131L145.411 144.182V115.467Z" fill="#274684"/>
<path d="M121.165 124.486L145.411 115.467V144.182L121.165 153.202V124.486Z" fill="#053866"/>
<path d="M96.9189 133.633L121.165 124.487V153.202L96.9189 162.349V133.633Z" fill="#B9D5FD"/>
<path d="M145.411 86.7516L169.657 77.7322V106.448L145.411 115.467V86.7516Z" fill="#B9D5FD"/>
<path d="M121.165 95.7708L145.411 86.7514V115.467L121.165 124.486V95.7708Z" fill="#0E2951"/>
<path d="M96.9189 104.918L121.165 95.7709V124.486L96.9189 133.633V104.918Z" fill="#709FDC"/>
<path d="M145.411 144.182L169.657 135.131V163.846L145.411 172.897V144.182Z" fill="#0E2951"/>
<path d="M121.165 153.202L145.411 144.182V172.897L121.165 181.917V153.202Z" fill="#709FDC"/>
<path d="M96.9189 162.348L121.165 153.201V181.917L97.0159 191L96.9189 162.348Z" fill="#6780B3"/>
<path d="M169.657 49.017L193.903 39.9339L193.936 68.6811L169.657 77.7323V49.017Z" fill="#6780B3"/>
<path d="M145.411 58.0363L169.657 49.0169V77.7323L145.411 86.7516V58.0363Z" fill="#053866"/>
<path d="M121.165 67.0555L145.411 58.0361V86.7515L121.165 95.7708V67.0555Z" fill="#B9D5FD"/>
<path d="M97.0483 75.9794L121.165 67.0556V95.771L96.9189 104.918L97.0483 75.9794Z" fill="#3D95D1"/>
<path d="M96.6926 159.13V155.114L114.57 148.07V105.81L97.5332 112.152L96.3047 108.933L118.061 100.838V150.461L96.6926 159.13Z" fill="#274684"/>
<path d="M118.062 126.303L114.571 127.45V105.81L96.6934 112.599V108.583L118.062 100.838V126.303Z" fill="#0E2951"/>
<path d="M96.6934 151.672V147.656L108.752 142.78V114.288L96.6934 118.941V114.925L112.243 110.463V145.17L96.6934 151.672Z" fill="#274684"/>
<path d="M96.6926 144.182V140.167L102.447 138.223V124.678L97.5332 126.526L96.3047 123.307L105.938 119.706V140.613L96.6926 144.182Z" fill="#274684"/>
<path d="M105.939 130.223L102.448 131.37V124.678L96.6934 126.972V122.957L105.939 119.706V130.223Z" fill="#0E2951"/>
<path d="M112.243 128.47L108.752 129.617V114.288L96.6934 118.941V114.925L112.243 109.316V128.47Z" fill="#0E2951"/>
<path d="M181.812 44.4914L193.903 39.9339L193.935 54.3394L181.812 58.8331V44.4914Z" fill="#FF8098"/>
<path d="M121.262 171.336L130.087 150.014L145.314 154.763L136.521 176.085L121.262 171.336Z" fill="#0E2951"/>
<path d="M127.179 167.288L131.64 156.389L139.431 158.811L134.937 169.71L127.179 167.288Z" fill="#6780B3"/>
<path d="M121.165 67.0555L145.411 58.0361V81.0148L121.165 90.0341V67.0555Z" fill="#3D95D1"/>
<path d="M121.165 67.0555L145.411 58.0361V74.7044L121.165 83.7238V67.0555Z" fill="#6780B3"/>
<path d="M121.165 67.0555L145.411 58.0361V68.3622L121.165 77.4134V67.0555Z" fill="#053866"/>
<path d="M121.165 67.0555L145.411 58.0361V63.1991L121.165 72.2504V67.0555Z" fill="#0E2951"/>
<path d="M169.657 128.279L145.411 137.298L169.657 112.184L145.411 121.204" fill="#0E2951"/>
<path d="M193.968 126.398L190.477 127.546V98.2568L193.968 97.1094V126.398Z" fill="#709FDC"/>
<path d="M189.377 127.896L185.886 129.044V100.328L189.377 99.181V127.896Z" fill="#709FDC"/>
<path d="M174.83 133.314L171.306 134.462L171.241 105.714L174.733 104.567L174.83 133.314Z" fill="#709FDC"/>
<path d="M179.678 131.498L176.154 132.645V103.93L179.678 102.782V131.498Z" fill="#709FDC"/>
<path d="M184.528 129.713L181.004 130.86V102.145L184.528 100.998V129.713Z" fill="#709FDC"/>
<path d="M169.657 77.7322L193.936 68.681V97.3963L169.657 106.448V77.7322Z" fill="#0E2951"/>
<path d="M169.657 135.131L193.936 126.112V154.827L169.657 163.846V135.131Z" fill="#053866"/>
<path d="M169.657 77.7321L181.813 73.2065V87.5483L169.657 92.0739V77.7321Z" fill="#3D95D1"/>
<path d="M172.987 162.571L170.077 163.719C170.077 144.182 181.036 132.358 193.967 127.546V130.414C182.297 134.748 172.987 149.377 172.987 162.571Z" fill="#B9D5FD"/>
<path d="M179.421 160.277L175.93 161.424C175.93 147.656 184.27 136.788 194.001 133.155V136.597C185.499 139.752 179.421 150.174 179.421 160.277Z" fill="#3D95D1"/>
<path d="M185.594 157.982L182.329 159.13C182.329 150.525 187.275 142.238 193.903 139.752L193.967 143.035C188.795 144.979 185.594 151.767 185.594 157.982Z" fill="#3376B3"/>
<path d="M191.059 155.687L188.149 156.835C187.567 152.245 190.283 147.688 193.903 146.349L193.968 149.951C191.673 150.779 191.059 152.915 191.059 155.687Z" fill="#709FDC"/>
<path d="M155.174 65.7172L159.926 63.9324V69.3823L151.585 72.5056V62.9763L163.514 58.5144V72.155L147.997 77.9555V60.108L167.103 53.0008V75.6289L147.997 82.7679" stroke="#3D95D1" stroke-width="5" stroke-miterlimit="10"/>
<path d="M116.801 72.123L100.313 100.105" stroke="#0E2951" stroke-width="6" stroke-miterlimit="10"/>
<path d="M100.313 78.2738L116.801 93.9541" stroke="#0E2951" stroke-width="6" stroke-miterlimit="10"/>
<path d="M136.683 108.36L140.562 106.926V111.515L136.683 112.981V108.36Z" fill="#B9D5FD"/>
<path d="M131.348 104.057L135.227 102.591V107.181L131.348 108.647V104.057Z" fill="#B9D5FD"/>
<path d="M126.014 99.7229L129.893 98.2569V102.878L126.014 104.312V99.7229Z" fill="#B9D5FD"/>
<path d="M175.508 46.8498L193.902 39.9339L193.935 61.797L175.508 68.6492V46.8498Z" fill="#053866"/>
<path d="M180.455 44.9694L193.903 39.9339L193.936 55.901L180.455 60.9366V44.9694Z" fill="#709FDC"/>
<path d="M181.812 87.5482L193.935 83.0545V97.3962L181.812 101.922V87.5482Z" fill="#3D95D1"/>
<path d="M154.366 54.0523L193.903 39.9337L97.2748 4.01561L58.8369 18.4211L154.366 54.0523Z" fill="#0D3760"/>
<path d="M146.607 57.5899L96.6282 76.1067L0 40.2524L50.0437 21.6719L146.607 57.5899Z" fill="#0D3659"/>
<path d="M149.711 0L97.2103 4.07943L0.582031 39.9656L52.9533 36.0137L149.711 0Z" fill="#043D60"/>
<path d="M193.968 39.9656L157.793 4.90802L60.9385 40.9217L97.2751 76.1386L193.968 39.9656Z" fill="#03446B"/>
<path d="M97 119.5V76.1085L194 40H260L250 62.25L260 84.5H194L97 119.5Z" fill="#B4D1FA"/>
<path d="M120.398 97.2863C122.015 96.677 123.111 95.2559 123.879 93.5988L122.906 93.2634C122.385 94.4856 121.44 95.5619 120.398 95.9543C118.398 96.7082 116.877 95.2473 116.877 92.4033C116.877 89.5413 118.398 86.9522 120.398 86.1983C121.44 85.8059 122.385 86.1876 122.906 86.9994L123.865 85.9359C123.139 84.8596 122.015 84.257 120.398 84.8663C117.768 85.8577 115.699 89.1574 115.699 92.8474C115.699 96.5374 117.768 98.2777 120.398 97.2863ZM130.178 93.6007C132.877 92.5834 134.713 89.2275 134.713 85.6815C134.713 82.1355 132.877 80.1634 130.178 81.1807C127.465 82.203 125.643 85.5538 125.643 89.0998C125.643 92.6458 127.465 94.623 130.178 93.6007ZM130.178 92.2687C128.123 93.0432 126.821 91.4457 126.821 88.6557C126.821 85.8477 128.123 83.2872 130.178 82.5127C132.22 81.7433 133.535 83.3176 133.535 86.1256C133.535 88.9156 132.22 91.4993 130.178 92.2687ZM144.491 90.2046L145.629 89.776V86.23L144.793 86.545V75.871L143.656 76.2996V86.9736L138.312 88.9873V78.3133L137.175 78.7419V90.7479L144.491 87.9906V90.2046ZM152.091 85.3426C153.708 84.7333 154.804 83.3122 155.571 81.6551L154.598 81.3197C154.078 82.5419 153.132 83.6182 152.091 84.0106C150.09 84.7645 148.57 83.3036 148.57 80.4596C148.57 77.5976 150.09 75.0085 152.091 74.2546C153.132 73.8622 154.078 74.2439 154.598 75.0557L155.557 73.9922C154.831 72.9159 153.708 72.3133 152.091 72.9226C149.46 73.914 147.391 77.2137 147.391 80.9037C147.391 84.5937 149.46 86.334 152.091 85.3426ZM163.693 80.7542V79.4222L158.843 81.2501V77.1101L163.597 75.3184V73.9864L158.843 75.7781V71.9081L163.693 70.0802V68.7482L157.705 71.0047V83.0107L163.693 80.7542ZM169.589 78.5322V67.8582L172.494 66.7635V65.4315L165.561 68.0442V69.3762L168.452 68.2867V78.9607L169.589 78.5322ZM175.787 76.1966L181.116 64.612V74.188L182.254 73.7594V61.7534L181.089 62.1923L175.828 73.5531V64.1751L174.69 64.6037V76.6097L175.787 76.1966Z" fill="black"/>
<path d="M194 40H260L250 62.5L260 85H194V40Z" fill="black" fill-opacity="0.05"/>
<path fill-rule="evenodd" clip-rule="evenodd" d="M222.5 45.2715C220.996 45.2715 219.584 45.6576 218.357 46.3357C218.049 46.5054 217.663 46.3939 217.493 46.0865C217.323 45.7792 217.435 45.3924 217.742 45.2226C219.153 44.4433 220.776 44 222.5 44C227.942 44 232.354 48.4119 232.354 53.8542C232.354 59.2965 227.942 63.7083 222.5 63.7083C217.057 63.7083 212.646 59.2965 212.646 53.8542C212.646 51.9182 213.204 50.1108 214.17 48.5868C214.358 48.2902 214.751 48.2021 215.047 48.3901C215.344 48.578 215.432 48.9708 215.244 49.2673C214.404 50.5938 213.917 52.1662 213.917 53.8542C213.917 58.5942 217.76 62.4368 222.5 62.4368C227.24 62.4368 231.082 58.5942 231.082 53.8542C231.082 49.1141 227.24 45.2715 222.5 45.2715Z" fill="black"/>
<path fill-rule="evenodd" clip-rule="evenodd" d="M238 75.2209C238.746 73.9157 239.111 72.5008 239.13 71.1021C239.134 70.752 239.424 70.471 239.776 70.4746C240.128 70.4782 240.409 70.765 240.404 71.1151C240.383 72.7227 239.963 74.3488 239.107 75.8453C236.405 80.5693 230.371 82.2323 225.63 79.5596C220.889 76.887 219.237 70.8908 221.939 66.1668C224.641 61.4427 230.675 59.7797 235.416 62.4524C237.102 63.4032 238.399 64.7759 239.247 66.3625C239.412 66.6712 239.294 67.0554 238.983 67.2206C238.672 67.3858 238.286 67.2693 238.121 66.9606C237.383 65.5797 236.255 64.3851 234.785 63.5561C230.655 61.2283 225.4 62.6767 223.047 66.7912C220.693 70.9057 222.132 76.1282 226.262 78.456C230.391 80.7837 235.646 79.3354 238 75.2209Z" fill="black"/>
<path fill-rule="evenodd" clip-rule="evenodd" d="M202.997 69.203C202.886 70.7026 203.167 72.1384 203.752 73.4122C203.899 73.7311 203.759 74.1087 203.44 74.2555C203.12 74.4024 202.743 74.263 202.596 73.9441C201.924 72.48 201.601 70.8297 201.729 69.1103C202.132 63.6829 206.858 59.6048 212.286 60.0016C217.714 60.3984 221.787 65.1199 221.385 70.5473C220.982 75.9747 216.256 80.0528 210.828 79.656C208.897 79.5148 207.136 78.8256 205.687 77.7516C205.405 77.5425 205.347 77.1444 205.556 76.8623C205.765 76.5803 206.164 76.521 206.446 76.7301C207.706 77.6649 209.238 78.2649 210.922 78.3879C215.649 78.7335 219.766 75.1816 220.117 70.4546C220.467 65.7275 216.919 61.6152 212.192 61.2696C207.464 60.9241 203.348 64.4759 202.997 69.203Z" fill="black"/>
<path d="M225.188 50.4978V48.4792H222.974C221.927 48.4792 221.077 49.3134 221.077 50.3425V52.3611H219.812V54.2244H221.077V60.125H222.974V54.2244H224.551L224.871 52.3611H222.974V50.8083C222.974 50.6368 223.116 50.4978 223.29 50.4978H225.188Z" fill="black"/>
<path fill-rule="evenodd" clip-rule="evenodd" d="M214.019 65.5C216.229 65.5 218.019 67.2909 218.019 69.5V70.4583C218.019 72.6675 216.229 74.4583 214.019 74.4583H209.479C207.27 74.4583 205.479 72.6675 205.479 70.4583V69.5C205.479 67.2909 207.27 65.5 209.479 65.5H214.019ZM210.745 68.9009V71.5561C210.745 71.9509 211.181 72.19 211.514 71.9777L213.595 70.65C213.903 70.4535 213.903 70.0035 213.595 69.8069L211.514 68.4793C211.181 68.267 210.745 68.5061 210.745 68.9009Z" fill="#C43B55"/>
<rect x="205.481" y="65.5" width="12.5399" height="8.95833" rx="3" stroke="black" stroke-width="1.2"/>
<path d="M210.747 71.5561V68.9009C210.747 68.5061 211.183 68.267 211.516 68.4793L213.597 69.8069C213.906 70.0035 213.906 70.4535 213.597 70.65L211.516 71.9776C211.183 72.1899 210.747 71.9509 210.747 71.5561Z" stroke="black" stroke-width="0.8" stroke-linejoin="round"/>
<path fill-rule="evenodd" clip-rule="evenodd" d="M226.083 67.3556V74.0744L227.628 75.3542H233.188L235.041 73.7545V67.6756L233.497 66.3958H227.319L226.083 67.3556ZM228.863 71.8348V69.2753L230.717 68.3155L232.57 69.5952V71.8348L230.717 72.7946L228.863 71.8348Z" fill="#C43B55"/>
<rect x="226.083" y="66.3958" width="8.95833" height="8.95833" rx="3" stroke="black" stroke-width="1.2"/>
<circle cx="230.562" cy="70.8753" r="2.0875" stroke="black" stroke-width="1.2"/>
<circle cx="233.249" cy="68.1878" r="0.447917" fill="black"/>
</svg>
