<svg width="230" height="200" viewBox="0 0 230 200" fill="none" xmlns="http://www.w3.org/2000/svg">
<path d="M47.5172 196L-48.42 159.926L-48.4521 44.2709L47.5494 80.377L47.5172 196Z" fill="#053866"/>
<path d="M143.71 159.637L47.6768 123.403L47.7732 8.03664L143.903 44.1428L143.71 159.637Z" fill="#102E5B"/>
<path d="M47.5166 196L143.904 159.51V44.1429L47.5488 80.3772L47.5166 196Z" fill="#054270"/>
<path d="M-48.42 159.926L47.7102 123.147L47.7745 8.03664L-48.4521 44.2709L-48.42 159.926Z" fill="#0A2D49"/>
<path d="M47.5172 196L-48.42 159.894L-48.4521 44.2709L47.5494 80.377L47.5172 196Z" fill="#053866"/>
<path d="M23.4592 100.529L-0.500977 91.462V62.5964L23.4592 71.6629V100.529Z" fill="#709FDC"/>
<path d="M47.4192 109.467L23.459 100.528V71.6628L47.5478 80.3769L47.4192 109.467Z" fill="#6780B3"/>
<path d="M23.4592 129.394L-0.500977 120.328V91.4621L23.4592 100.529V129.394Z" fill="#3D95D1"/>
<path d="M47.4191 138.333L23.459 129.394V100.529L47.4191 109.467V138.333Z" fill="#B9D5FD"/>
<path d="M23.4592 158.26L-0.500977 149.194V120.328L23.4592 129.394V158.26Z" fill="#0E2951"/>
<path d="M47.4191 167.198L23.459 158.26V129.394L47.4191 138.333V167.198Z" fill="#709FDC"/>
<path d="M23.4592 187.126L-0.500977 178.059V149.193L23.4592 158.26V187.126Z" fill="#B9D5FD"/>
<path d="M47.5156 196L23.459 187.126V158.26L47.4192 167.198L47.5156 196Z" fill="#3D95D1"/>
<path d="M46.8084 163.162L26.5146 155.505V105.622L47.1944 113.151V117.188L29.9881 110.62V153.102L46.6155 159.349L46.8084 163.162Z" fill="#274684"/>
<path d="M47.1944 163.963L26.5146 155.505V130.067L29.9881 131.22V153.102L47.1944 159.926V163.963Z" fill="#0E2951"/>
<path d="M46.8094 155.665L32.2725 150.155V114.145L47.1953 119.527V123.564L35.7459 119.142V148.36L47.1953 152.429L46.8094 155.665Z" fill="#274684"/>
<path d="M46.8084 148.745L38.5107 145.605V124.588L47.1943 127.6V131.637L41.9842 129.586V143.202L47.1943 145.477L46.8084 148.745Z" fill="#274684"/>
<path d="M47.1943 148.937L38.5107 145.605V134.585L41.9842 135.738V143.203L47.1943 144.901V148.937Z" fill="#0E2951"/>
<path d="M47.1953 156.466L32.2725 150.731V132.246L35.7459 133.399V148.361L47.1953 152.429V156.466Z" fill="#0E2951"/>
<path d="M23.3639 82.2353L14.6803 97.0686L-0.40332 80.8897L8.31239 66.0564L23.3639 82.2353Z" fill="#0E2951"/>
<path d="M17.5418 81.915L13.1036 89.4758L5.41699 81.2422L9.85526 73.6493L17.5418 81.915Z" fill="#6780B3"/>
<path d="M23.4592 187.126L-0.500977 178.059V154.96L23.4592 164.027V187.126Z" fill="#3D95D1"/>
<path d="M23.4592 187.126L-0.500977 178.059V161.304L23.4592 170.37V187.126Z" fill="#6780B3"/>
<path d="M23.4592 187.126L-0.500977 178.059V167.647L23.4592 176.746V187.126Z" fill="#053866"/>
<path d="M23.4592 187.126L-0.500977 178.059V172.869L23.4592 181.936V187.126Z" fill="#0E2951"/>
<path d="M27.7695 185.299L44.0753 169.537" stroke="#0E2951" stroke-width="6" stroke-miterlimit="10"/>
<path d="M44.0753 191.451L27.7695 163.354" stroke="#0E2951" stroke-width="6" stroke-miterlimit="10"/>
<path d="M8.11919 133.976L4.29199 132.534V127.921L8.11919 129.362V133.976Z" fill="#B9D5FD"/>
<path d="M13.3936 142.337L9.56641 140.864V136.25L13.3936 137.692V142.337Z" fill="#B9D5FD"/>
<path d="M18.668 150.667L14.8408 149.225V144.612L18.668 146.053V150.667Z" fill="#B9D5FD"/>
<path d="M47.5488 80.3772L143.904 44.1429L143.936 159.638L47.5166 196L47.5488 80.3772Z" fill="#053866"/>
<path d="M119.782 111.005L143.935 101.906V130.772L119.782 139.838V111.005Z" fill="#B9D5FD"/>
<path d="M95.6611 120.071L119.782 111.005V139.839L95.6611 148.937V120.071Z" fill="#274684"/>
<path d="M71.541 129.138L95.662 120.072V148.937L71.541 158.004V129.138Z" fill="#053866"/>
<path d="M47.4189 138.333L71.54 129.138V158.004L47.4189 167.199V138.333Z" fill="#B9D5FD"/>
<path d="M95.6611 91.2058L119.782 82.1392V111.005L95.6611 120.071V91.2058Z" fill="#B9D5FD"/>
<path d="M71.541 100.272L95.662 91.2057V120.071L71.541 129.138V100.272Z" fill="#0E2951"/>
<path d="M47.4189 109.467L71.54 100.272V129.138L47.4189 138.333V109.467Z" fill="#709FDC"/>
<path d="M95.6611 148.937L119.782 139.838V168.704L95.6611 177.803V148.937Z" fill="#0E2951"/>
<path d="M71.541 158.004L95.662 148.937V177.803L71.541 186.869V158.004Z" fill="#709FDC"/>
<path d="M47.4189 167.198L71.54 158.004V186.869L47.5154 196L47.4189 167.198Z" fill="#6780B3"/>
<path d="M119.782 53.2736L143.903 44.1429L143.935 73.0407L119.782 82.1393V53.2736Z" fill="#6780B3"/>
<path d="M95.6611 62.3402L119.782 53.2736V82.1392L95.6611 91.2058V62.3402Z" fill="#053866"/>
<path d="M71.541 71.4065L95.662 62.34V91.2056L71.541 100.272V71.4065Z" fill="#B9D5FD"/>
<path d="M47.5476 80.3772L71.54 71.4067V100.272L47.4189 109.467L47.5476 80.3772Z" fill="#3D95D1"/>
<path d="M47.1945 163.963V159.926L64.9797 152.846V110.364L48.0307 116.74L46.8086 113.504L68.4531 105.366V155.249L47.1945 163.963Z" fill="#274684"/>
<path d="M68.453 130.964L64.9795 132.118V110.364L47.1943 117.188V113.151L68.453 105.366V130.964Z" fill="#0E2951"/>
<path d="M47.1943 156.466V152.429L59.1905 147.527V118.886L47.1943 123.563V119.527L62.6639 115.041V149.93L47.1943 156.466Z" fill="#274684"/>
<path d="M47.1945 148.937V144.901L52.9192 142.946V129.33L48.0307 131.189L46.8086 127.953L56.3927 124.333V145.349L47.1945 148.937Z" fill="#274684"/>
<path d="M56.3925 134.905L52.919 136.058V129.33L47.1943 131.637V127.6L56.3925 124.333V134.905Z" fill="#0E2951"/>
<path d="M62.6639 133.143L59.1905 134.296V118.886L47.1943 123.564V119.527L62.6639 113.888V133.143Z" fill="#0E2951"/>
<path d="M131.875 48.7243L143.903 44.1429L143.936 58.6238L131.875 63.1411V48.7243Z" fill="#FF8098"/>
<path d="M71.6367 176.233L80.4168 154.8L95.5647 159.573L86.8169 181.006L71.6367 176.233Z" fill="#0E2951"/>
<path d="M77.5225 172.164L81.9607 161.207L89.7116 163.642L85.2412 174.599L77.5225 172.164Z" fill="#6780B3"/>
<path d="M71.541 71.4065L95.662 62.34V85.4389L71.541 94.5055V71.4065Z" fill="#3D95D1"/>
<path d="M71.541 71.4065L95.662 62.34V79.0955L71.541 88.1621V71.4065Z" fill="#6780B3"/>
<path d="M71.541 71.4065L95.662 62.34V72.7201L71.541 81.8187V71.4065Z" fill="#053866"/>
<path d="M71.541 71.4065L95.662 62.34V67.53L71.541 76.6286V71.4065Z" fill="#0E2951"/>
<path d="M119.782 132.95L95.6611 142.017L119.782 116.772L95.6611 125.838" fill="#0E2951"/>
<path d="M143.969 131.06L140.495 132.214V102.771L143.969 101.618V131.06Z" fill="#709FDC"/>
<path d="M139.401 132.566L135.928 133.719V104.854L139.401 103.7V132.566Z" fill="#709FDC"/>
<path d="M124.928 138.012L121.423 139.166L121.358 110.268L124.832 109.115L124.928 138.012Z" fill="#709FDC"/>
<path d="M129.753 136.186L126.247 137.34V108.474L129.753 107.321V136.186Z" fill="#709FDC"/>
<path d="M134.577 134.392L131.071 135.546V106.68L134.577 105.526V134.392Z" fill="#709FDC"/>
<path d="M119.782 82.1392L143.935 73.0406V101.906L119.782 111.005V82.1392Z" fill="#0E2951"/>
<path d="M119.782 139.838L143.935 130.772V159.637L119.782 168.704V139.838Z" fill="#053866"/>
<path d="M119.782 82.1391L131.875 77.5898V92.0066L119.782 96.5559V82.1391Z" fill="#3D95D1"/>
<path d="M123.095 167.423L120.2 168.576C120.2 148.937 131.103 137.051 143.967 132.213V135.097C132.357 139.454 123.095 154.159 123.095 167.423Z" fill="#B9D5FD"/>
<path d="M129.496 165.116L126.022 166.269C126.022 152.429 134.32 141.505 144.001 137.852V141.312C135.542 144.484 129.496 154.96 129.496 165.116Z" fill="#3D95D1"/>
<path d="M135.638 162.809L132.39 163.963C132.39 155.313 137.31 146.983 143.903 144.484L143.968 147.784C138.822 149.738 135.638 156.562 135.638 162.809Z" fill="#3376B3"/>
<path d="M141.073 160.502L138.179 161.656C137.6 157.042 140.302 152.461 143.904 151.116L143.968 154.736C141.685 155.569 141.073 157.715 141.073 160.502Z" fill="#709FDC"/>
<path d="M105.374 70.0613L110.102 68.2672V73.7456L101.804 76.8852V67.306L113.672 62.8208V76.5328L98.2344 82.3636V64.4227L117.242 57.2783V80.0249L98.2344 87.2013" stroke="#3D95D1" stroke-width="5" stroke-miterlimit="10"/>
<path d="M67.1982 76.5006L50.7959 104.629" stroke="#0E2951" stroke-width="6" stroke-miterlimit="10"/>
<path d="M50.7959 82.6837L67.1982 98.4461" stroke="#0E2951" stroke-width="6" stroke-miterlimit="10"/>
<path d="M86.9775 112.927L90.8369 111.485V116.099L86.9775 117.573V112.927Z" fill="#B9D5FD"/>
<path d="M81.6709 108.602L85.5303 107.128V111.742L81.6709 113.215V108.602Z" fill="#B9D5FD"/>
<path d="M76.3643 104.245L80.2236 102.771V107.417L76.3643 108.858V104.245Z" fill="#B9D5FD"/>
<path d="M125.604 51.0951L143.903 44.1429L143.935 66.1206L125.604 73.0086V51.0951Z" fill="#053866"/>
<path d="M130.525 49.2049L143.904 44.1429L143.937 60.1937L130.525 65.2556V49.2049Z" fill="#709FDC"/>
<path d="M131.875 92.0066L143.936 87.4893V101.906L131.875 106.455V92.0066Z" fill="#3D95D1"/>
<path d="M104.57 58.3353L143.903 44.1428L47.773 8.03664L9.5332 22.5175L104.57 58.3353Z" fill="#0D3760"/>
<path d="M96.8515 61.8915L47.1302 80.5052L-49 44.4631L0.785709 25.7854L96.8515 61.8915Z" fill="#0D3659"/>
<path d="M99.9392 4L47.7093 8.10078L-48.4209 44.1749L3.68042 40.2022L99.9392 4Z" fill="#043D60"/>
<path d="M143.968 44.1749L107.979 8.93374L11.624 45.136L47.7733 80.5373L143.968 44.1749Z" fill="#03446B"/>
<path d="M47.5 124V80.5L143.5 43.5L210 43.0225L200 65.632L210 88L144 88.2416L47.5 124Z" fill="#B4D1FA"/>
<path d="M210 43L143.5 43.5L144 88H210L200 65.5L210 43Z" fill="black" fill-opacity="0.05"/>
</svg>
