<svg width="261" height="200" viewBox="0 0 261 200" fill="none" xmlns="http://www.w3.org/2000/svg">
<path d="M98.3802 200L0.5904 162.422L0.557617 41.9488L98.4129 79.5593L98.3802 200Z" fill="#053866"/>
<path d="M196.433 162.123L98.5449 124.379L98.6433 4.20547L196.63 41.816L196.433 162.123Z" fill="#102E5B"/>
<path d="M98.3789 200L196.628 161.989V41.8156L98.4117 79.5596L98.3789 200Z" fill="#054270"/>
<path d="M0.5904 162.423L98.5768 124.112L98.6424 4.20547L0.557617 41.9495L0.5904 162.423Z" fill="#0A2D49"/>
<path d="M98.3802 200L0.5904 162.389L0.557617 41.9488L98.4129 79.5593L98.3802 200Z" fill="#053866"/>
<path d="M25.0133 81.6617L0.5904 72.2174L0.557617 41.9488L25.0133 51.5933V81.6617Z" fill="#053866"/>
<path d="M7.08186 71.0162C4.8601 71.0743 2.65043 70.6653 0.590955 69.8148L0.525391 66.5777C5.54109 68.5133 10.3601 68.1462 14.0317 65.5765C18.4573 62.4729 21.2438 57.4003 21.2438 49.9583L24.1943 51.1597C24.1943 59.5695 21.7356 64.3417 16.5232 68.0127C13.7284 69.9239 10.4484 70.9674 7.08186 71.0162V71.0162Z" fill="#B9D5FD"/>
<path d="M49.4375 91.1058L25.0146 81.6614V51.593L49.4375 61.0374V91.1058Z" fill="#0E2951"/>
<path d="M73.8564 100.551L49.4336 91.1065V61.0381L73.8564 70.4825V100.551Z" fill="#709FDC"/>
<path d="M98.2803 109.861L73.8574 100.551V70.4822L98.4114 79.5594L98.2803 109.861Z" fill="#6780B3"/>
<path d="M25.0127 111.731L0.589844 102.286V72.218L25.0127 81.6624V111.731Z" fill="#B9D5FD"/>
<path d="M49.4375 121.174L25.0146 111.729V81.6611L49.4375 91.1055V121.174Z" fill="#274684"/>
<path d="M73.8564 130.619L49.4336 121.175V91.1062L73.8564 100.551V130.619Z" fill="#3D95D1"/>
<path d="M98.2803 139.93L73.8574 130.619V100.55L98.2803 109.861V139.93Z" fill="#B9D5FD"/>
<path d="M49.4375 151.244L25.0146 141.8V111.731L49.4375 121.176V151.244Z" fill="#B9D5FD"/>
<path d="M73.8564 160.688L49.4336 151.244V121.175L73.8564 130.62V160.688Z" fill="#0E2951"/>
<path d="M98.2803 169.999L73.8574 160.688V130.619L98.2803 139.93V169.999Z" fill="#709FDC"/>
<path d="M25.0127 171.867L0.589844 162.39V132.321L25.0127 141.799V171.867Z" fill="#6780B3"/>
<path d="M49.4375 181.312L25.0146 171.868V141.799L49.4375 151.244V181.312Z" fill="#053866"/>
<path d="M73.8564 190.756L49.4336 181.312V151.243L73.8564 160.688V190.756Z" fill="#B9D5FD"/>
<path d="M98.3786 200L73.8574 190.756V160.687L98.2803 169.998L98.3786 200Z" fill="#3D95D1"/>
<path d="M5.57276 64.7754C3.86438 64.8016 2.16875 64.4723 0.589844 63.8076V60.2034C4.09756 61.5717 8.42483 61.1045 10.5885 59.6361C14.1945 57.1999 15.9648 53.4289 15.9648 48.1894L18.9152 49.3908C18.9152 55.8317 16.6532 59.7696 12.621 62.6062C10.54 64.0358 8.0832 64.7919 5.57276 64.7754Z" fill="#3D95D1"/>
<path d="M3.8353 57.8342C2.72145 57.8608 1.6149 57.6446 0.589844 57.2002V53.596C2.68791 54.3969 5.90058 54.1967 7.67083 52.3946C9.53943 50.4923 10.0312 48.9572 10.0312 45.7868L12.9816 46.9883C12.9816 51.3934 11.5064 54.3635 8.68708 56.2991C7.26363 57.3071 5.56924 57.8432 3.8353 57.8342V57.8342Z" fill="#3376B3"/>
<path d="M2.19618 50.893C1.64417 50.9371 1.09042 50.8336 0.589844 50.5927V46.9885C1.11436 47.1887 2.85183 47.3222 3.54026 46.9885C4.72042 46.3878 4.72042 45.1864 4.13034 43.3843L7.67083 44.5857C7.67083 47.0886 6.78571 48.8239 5.14659 49.992C4.27026 50.5783 3.24484 50.8915 2.19618 50.893V50.893Z" fill="#709FDC"/>
<path d="M97.6583 165.793L76.9727 157.818V105.857L98.0517 113.699V117.904L80.5132 111.063V155.315L97.4616 161.822L97.6583 165.793Z" fill="#274684"/>
<path d="M98.0517 166.628L76.9727 157.818V131.32L80.5132 132.522V155.315L98.0517 162.423V166.628Z" fill="#0E2951"/>
<path d="M97.6584 157.984L82.8408 152.244V114.733L98.0518 120.34V124.545L86.3813 119.94V150.375L98.0518 154.613L97.6584 157.984Z" fill="#274684"/>
<path d="M97.659 150.776L89.2012 147.505V125.613L98.0524 128.75V132.955L92.7417 130.819V145.002L98.0524 147.372L97.659 150.776Z" fill="#274684"/>
<path d="M98.0524 150.977L89.2012 147.506V136.026L92.7417 137.228V145.003L98.0524 146.772V150.977Z" fill="#0E2951"/>
<path d="M98.0518 158.819L82.8408 152.845V133.59L86.3813 134.791V150.376L98.0518 154.614V158.819Z" fill="#0E2951"/>
<path d="M19.1447 169.598L0.589844 162.389V139.563L19.1447 146.738V169.598Z" fill="#053866"/>
<path d="M12.8177 167.129L0.589844 162.39V147.372L12.8177 152.111V167.129Z" fill="#709FDC"/>
<path d="M73.7593 81.4949L64.9081 96.9463L49.5332 80.0933L58.4172 64.642L73.7593 81.4949Z" fill="#0E2951"/>
<path d="M67.8287 81.1614L63.3047 89.0373L55.4697 80.4606L59.9937 72.5514L67.8287 81.1614Z" fill="#6780B3"/>
<path d="M73.8564 190.755L49.4336 181.311V157.25L73.8564 166.694V190.755Z" fill="#3D95D1"/>
<path d="M73.8564 190.756L49.4336 181.312V163.858L73.8564 173.302V190.756Z" fill="#6780B3"/>
<path d="M73.8564 190.755L49.4336 181.311V170.465L73.8564 179.943V190.755Z" fill="#053866"/>
<path d="M73.8564 190.755L49.4336 181.311V175.905L73.8564 185.349V190.755Z" fill="#0E2951"/>
<path d="M25.0146 88.8368L49.4375 98.2811L25.0146 105.723L49.4375 115.167L25.0146 88.8368Z" fill="#0E2951"/>
<path d="M3.54026 103.488L0.589844 102.286V72.218L3.54026 73.4194V103.488Z" fill="#709FDC"/>
<path d="M8.26291 105.29L5.3125 104.088V74.02L8.26291 75.2214V105.29Z" fill="#709FDC"/>
<path d="M23.6379 111.296L20.6875 110.095V80.0264L23.6379 81.2278V111.296Z" fill="#709FDC"/>
<path d="M18.4887 109.093L14.9482 107.892V77.8571L18.4887 79.0585V109.093Z" fill="#709FDC"/>
<path d="M12.9817 107.092L10.0312 105.89V75.8219L12.9817 77.0233V107.092Z" fill="#709FDC"/>
<path d="M25.0127 141.799L0.589844 132.321V102.286L25.0127 111.73V141.799Z" fill="#0E2951"/>
<path d="M25.0134 141.798L12.8184 137.059V122.041L25.0134 126.747V141.798Z" fill="#3D95D1"/>
<path d="M12.8177 122.043L0.589844 117.304V102.286L12.8177 106.992V122.043Z" fill="#3D95D1"/>
<path d="M39.7328 165.827L34.7171 163.891V157.951L43.5028 161.355V171.767L30.9471 166.895V152.011L47.24 158.318V177.774L27.21 169.998V145.336L47.24 153.078" stroke="#3D95D1" stroke-width="3" stroke-miterlimit="10"/>
<path d="M78.2529 188.853L94.8736 172.434" stroke="#0E2951" stroke-width="6" stroke-miterlimit="10"/>
<path d="M94.8736 195.261L78.2529 165.993" stroke="#0E2951" stroke-width="6" stroke-miterlimit="10"/>
<path d="M58.2214 135.391L54.3203 133.889V129.084L58.2214 130.585V135.391Z" fill="#B9D5FD"/>
<path d="M63.5984 144.102L59.6973 142.567V137.761L63.5984 139.263V144.102Z" fill="#B9D5FD"/>
<path d="M68.9743 152.779L65.0732 151.277V146.471L68.9743 147.973V152.779Z" fill="#B9D5FD"/>
<path d="M98.4117 79.5596L196.628 41.8156L196.66 162.122L98.3789 200L98.4117 79.5596Z" fill="#053866"/>
<path d="M172.042 111.463L196.662 101.985V132.053L172.042 141.498V111.463Z" fill="#B9D5FD"/>
<path d="M147.453 120.907L172.04 111.463V141.498L147.453 150.976V120.907Z" fill="#274684"/>
<path d="M122.869 130.352L147.456 120.908V150.976L122.869 160.421V130.352Z" fill="#053866"/>
<path d="M98.2822 139.93L122.869 130.352V160.42L98.2822 169.998V139.93Z" fill="#B9D5FD"/>
<path d="M147.453 90.8392L172.04 81.3948V111.463L147.453 120.908V90.8392Z" fill="#B9D5FD"/>
<path d="M122.869 100.284L147.456 90.8399V120.908L122.869 130.353V100.284Z" fill="#0E2951"/>
<path d="M98.2822 109.861L122.869 100.283V130.351L98.2822 139.929V109.861Z" fill="#709FDC"/>
<path d="M147.453 150.977L172.04 141.499V171.567L147.453 181.045V150.977Z" fill="#0E2951"/>
<path d="M122.869 160.42L147.456 150.976V181.044L122.869 190.489V160.42Z" fill="#709FDC"/>
<path d="M98.2822 169.998L122.869 160.42V190.489L98.3806 200L98.2822 169.998Z" fill="#6780B3"/>
<path d="M172.042 51.3267L196.629 41.8156L196.662 71.9174L172.042 81.3951V51.3267Z" fill="#6780B3"/>
<path d="M147.453 60.7701L172.04 51.3258V81.3941L147.453 90.8385V60.7701Z" fill="#053866"/>
<path d="M122.869 70.2152L147.456 60.7708V90.8392L122.869 100.284V70.2152Z" fill="#B9D5FD"/>
<path d="M98.4134 79.5591L122.869 70.2149V100.283L98.2822 109.861L98.4134 79.5591Z" fill="#3D95D1"/>
<path d="M98.0516 166.628V162.424L116.18 155.048V110.797L98.9039 117.438L97.6582 114.067L119.721 105.591V157.551L98.0516 166.628Z" fill="#274684"/>
<path d="M119.723 132.255L116.182 133.456V110.797L98.0537 117.905V113.7L119.723 105.591V132.255Z" fill="#0E2951"/>
<path d="M98.0537 158.819V154.614L110.281 149.508V119.673L98.0537 124.545V120.341L113.822 115.668V152.011L98.0537 158.819Z" fill="#274684"/>
<path d="M98.0516 150.977V146.772L103.887 144.736V130.553L98.9039 132.488L97.6582 129.118L107.427 125.347V147.239L98.0516 150.977Z" fill="#274684"/>
<path d="M107.429 136.36L103.889 137.561V130.553L98.0537 132.956V128.751L107.429 125.347V136.36Z" fill="#0E2951"/>
<path d="M113.822 134.524L110.281 135.725V119.673L98.0537 124.546V120.341L113.822 114.467V134.524Z" fill="#0E2951"/>
<path d="M184.368 46.5878L196.629 41.8156L196.662 56.8999L184.368 61.6054V46.5878Z" fill="#FF8098"/>
<path d="M122.966 179.409L131.915 157.083L147.356 162.055L138.439 184.381L122.966 179.409Z" fill="#0E2951"/>
<path d="M128.967 175.171L133.491 163.758L141.391 166.294L136.835 177.707L128.967 175.171Z" fill="#6780B3"/>
<path d="M122.869 70.2152L147.456 60.7708V84.8322L122.869 94.2766V70.2152Z" fill="#3D95D1"/>
<path d="M122.869 70.2152L147.456 60.7708V78.2245L122.869 87.6689V70.2152Z" fill="#6780B3"/>
<path d="M122.869 70.2152L147.456 60.7708V71.5834L122.869 81.0612V70.2152Z" fill="#053866"/>
<path d="M122.869 70.2152L147.456 60.7708V66.1771L122.869 75.6549V70.2152Z" fill="#0E2951"/>
<path d="M172.04 134.323L147.453 143.768L172.04 117.47L147.453 126.915" fill="#0E2951"/>
<path d="M196.694 132.355L193.153 133.556V102.887L196.694 101.685V132.355Z" fill="#709FDC"/>
<path d="M192.04 133.923L188.499 135.125V105.056L192.04 103.855V133.923Z" fill="#709FDC"/>
<path d="M177.288 139.596L173.715 140.797L173.649 110.695L177.19 109.494L177.288 139.596Z" fill="#709FDC"/>
<path d="M182.202 137.694L178.629 138.896V108.827L182.202 107.626V137.694Z" fill="#709FDC"/>
<path d="M187.121 135.825L183.548 137.027V106.958L187.121 105.757V135.825Z" fill="#709FDC"/>
<path d="M172.042 81.3954L196.662 71.9177V101.986L172.042 111.464V81.3954Z" fill="#0E2951"/>
<path d="M172.042 141.497L196.662 132.053V162.121L172.042 171.566V141.497Z" fill="#053866"/>
<path d="M172.042 81.3946L184.368 76.6558V91.6733L172.042 96.4121V81.3946Z" fill="#3D95D1"/>
<path d="M175.418 170.232L172.468 171.433C172.468 150.976 183.581 138.595 196.694 133.555V136.559C184.86 141.098 175.418 156.415 175.418 170.232Z" fill="#B9D5FD"/>
<path d="M181.945 167.83L178.404 169.031C178.404 154.614 186.862 143.234 196.73 139.43V143.034C188.108 146.338 181.945 157.251 181.945 167.83Z" fill="#3D95D1"/>
<path d="M188.204 165.427L184.893 166.628C184.893 157.618 189.908 148.941 196.629 146.338L196.694 149.775C191.449 151.811 188.204 158.919 188.204 165.427Z" fill="#3376B3"/>
<path d="M193.745 163.024L190.795 164.225C190.205 159.419 192.958 154.647 196.63 153.245L196.696 157.017C194.368 157.884 193.745 160.12 193.745 163.024Z" fill="#709FDC"/>
<path d="M157.354 68.8137L162.173 66.9449V72.6515L153.715 75.922V65.9437L165.812 61.2716V75.5549L150.076 81.6287V62.9402L169.451 55.4982V79.1925L150.076 86.6679" stroke="#3D95D1" stroke-width="5" stroke-miterlimit="10"/>
<path d="M118.442 75.5225L101.723 104.823" stroke="#0E2951" stroke-width="6" stroke-miterlimit="10"/>
<path d="M101.723 81.9624L118.442 98.3816" stroke="#0E2951" stroke-width="6" stroke-miterlimit="10"/>
<path d="M138.604 113.465L142.538 111.963V116.769L138.604 118.304V113.465Z" fill="#B9D5FD"/>
<path d="M133.195 108.961L137.129 107.426V112.231L133.195 113.766V108.961Z" fill="#B9D5FD"/>
<path d="M127.786 104.422L131.72 102.887V107.726L127.786 109.228V104.422Z" fill="#B9D5FD"/>
<path d="M177.975 49.0574L196.628 41.8156L196.661 64.709L177.975 71.884V49.0574Z" fill="#053866"/>
<path d="M182.992 47.0884L196.63 41.8156L196.662 58.5351L182.992 63.8079V47.0884Z" fill="#709FDC"/>
<path d="M184.368 91.6742L196.662 86.9688V101.986L184.368 106.725V91.6742Z" fill="#3D95D1"/>
<path d="M156.535 56.5999L196.628 41.816L98.6413 4.20547L59.6631 19.2897L156.535 56.5999Z" fill="#0D3760"/>
<path d="M148.668 60.3027L97.9865 79.692L0 42.1482L50.7471 22.6922L148.668 60.3027Z" fill="#0D3659"/>
<path d="M151.814 7.62939e-05L98.5753 4.27172L0.588867 41.8488L53.6963 37.7107L151.814 7.62939e-05Z" fill="#043D60"/>
<path d="M196.693 41.8489L160.01 5.13948L61.7939 42.8501L98.6413 79.7264L196.693 41.8489Z" fill="#03446B"/>
<path d="M97.8691 125.196V80.1146L196.727 41.8934H261L251.114 64.7348L261 87.5763H196.727L97.8691 125.196Z" fill="#B4D1FA"/>
<path d="M126.66 86.6485C128.325 86.0007 129.294 84.3097 129.294 82.3837C129.294 80.9437 128.489 79.9429 127.52 80.122C128.352 79.564 129.116 78.2587 129.116 76.7467C129.116 74.9467 128.148 74.0637 126.565 74.6797L122.512 76.2567V88.2627L126.66 86.6485ZM126.374 79.956L123.645 81.018V77.148L126.374 76.086C127.397 75.6877 127.943 76.3393 127.943 77.4193C127.943 78.5173 127.397 79.5577 126.374 79.956ZM126.428 85.4068L123.645 86.49V82.35L126.428 81.2668C127.547 80.8313 128.12 81.5803 128.12 82.6783C128.12 83.9563 127.493 84.9926 126.428 85.4068ZM132.868 84.2329L138.176 72.5913V82.1673L139.308 81.7266V69.7206L138.148 70.1719L132.908 81.589V72.211L131.776 72.6517V84.6577L132.868 84.2329ZM141.491 83.0909L142.624 82.6502V80.4362L149.406 77.7971V80.0111L150.538 79.5704V76.0244L149.706 76.3483V65.6743L144.139 67.8408L143.579 74.0885C143.197 78.3052 142.583 79.1561 141.491 79.6709V83.0909ZM144.698 73.7611L145.148 68.7798L148.573 67.447V76.789L143.306 78.8387C143.975 77.9125 144.466 76.3893 144.698 73.7611ZM158.625 74.2093V72.8773L153.795 74.7571V70.6171L158.53 68.7745V67.4425L153.795 69.2851V65.4151L158.625 63.5353V62.2033L152.662 64.5238V76.5298L158.625 74.2093ZM165.261 71.8429C167.95 70.7968 169.778 67.4212 169.778 63.8752C169.778 60.3292 167.95 58.3768 165.261 59.4228C162.56 60.4742 160.745 63.8445 160.745 67.3905C160.745 70.9365 162.56 72.8942 165.261 71.8429ZM165.261 70.5108C163.215 71.3074 161.918 69.7238 161.918 66.9338C161.918 64.1258 163.215 61.5514 165.261 60.7548C167.295 59.9637 168.605 61.5239 168.605 64.3319C168.605 67.1219 167.295 69.7197 165.261 70.5108ZM174.849 64.1337V62.9457L171.574 64.2202V65.4082L174.849 64.1337ZM116.274 112.69V100.684L114.65 101.316L111.812 111.457L108.987 103.52L107.364 104.152V116.158L108.496 115.717V105.835L111.58 114.517L112.044 114.336L115.141 103.249V113.131L116.274 112.69ZM126.871 108.567L123.2 97.9889L121.795 98.5359L118.138 111.965L119.434 111.46L120.239 108.483L124.769 106.72L125.575 109.071L126.871 108.567ZM124.428 105.521L120.567 107.024L122.504 99.8077L124.428 105.521ZM129.876 107.397V102.627L132.4 101.645C134.201 100.944 135.252 98.8791 135.252 96.9171C135.252 94.9551 134.228 93.6973 132.4 94.4089L128.743 95.832V107.838L129.876 107.397ZM132.263 100.366L129.876 101.295V96.7232L132.263 95.794C133.341 95.3745 134.078 96.0237 134.078 97.3737C134.078 98.7237 133.341 99.9465 132.263 100.366ZM144.338 101.769L140.218 97.0727L144.011 89.8905L142.592 90.4427L138.566 98.2192V92.0092L137.434 92.4499V104.456L138.566 104.015V99.9832L139.481 98.2594L142.933 102.316L144.338 101.769ZM152.274 98.6808V97.3488L147.444 99.2285V95.0885L152.179 93.2459V91.9139L147.444 93.7565V89.8865L152.274 88.0068V86.6748L146.311 88.9953V101.001L152.274 98.6808ZM158.146 96.3957V85.7217L161.039 84.5959V83.2639L154.135 85.9508V87.2828L157.014 86.1624V96.8364L158.146 96.3957ZM164.318 93.9939L169.626 82.3523V91.9283L170.759 91.4875V79.4815L169.599 79.9329L164.359 91.3499V81.9719L163.227 82.4127V94.4187L164.318 93.9939ZM181.157 87.4412V75.4352L180.024 75.876V81.042L174.703 83.1129V77.9469L173.57 78.3876V90.3936L174.703 89.9529V84.4449L180.024 82.374V87.882L181.157 87.4412ZM185.099 85.9071V75.2331L189.929 73.3533V72.0213L183.966 74.3418V86.3478L185.099 85.9071Z" fill="black"/>
<path d="M261 41.8H196.728V87.5811H261L251.261 64.6906L261 41.8Z" fill="black" fill-opacity="0.05"/>
<path d="M235.19 74.2766V68.7131L240.246 66.3288V76.6609L235.19 74.2766Z" fill="#A62E41"/>
<ellipse cx="226.247" cy="56.7912" rx="6.61061" ry="6.75559" fill="#A62E41"/>
<path fill-rule="evenodd" clip-rule="evenodd" d="M220.613 56.7114C220.613 53.4233 223.217 50.7856 226.396 50.7856C228.075 50.7856 229.589 51.5183 230.648 52.6963C230.925 53.0042 231.4 53.0293 231.708 52.7523C232.016 52.4752 232.041 52.001 231.764 51.6931C230.435 50.2166 228.523 49.2856 226.396 49.2856C222.724 49.2856 219.708 52.0478 219.191 55.6209C218.224 54.2945 216.675 53.4308 214.918 53.4308C211.964 53.4308 209.597 55.8738 209.597 58.8528C209.597 60.4378 210.267 61.8709 211.339 62.8652H209.193C207.675 62.8652 206.443 64.0965 206.443 65.6152V73.0521C206.443 73.4663 206.779 73.8021 207.193 73.8021C207.608 73.8021 207.943 73.4663 207.943 73.0521V65.6152C207.943 64.9249 208.503 64.3652 209.193 64.3652H232.732C233.422 64.3652 233.982 64.9249 233.982 65.6152V77.2808C233.982 77.9712 233.422 78.5308 232.732 78.5308H209.193C208.503 78.5308 207.943 77.9712 207.943 77.2808V75.653C207.943 75.2387 207.608 74.903 207.193 74.903C206.779 74.903 206.443 75.2387 206.443 75.653V77.2808C206.443 78.7996 207.675 80.0308 209.193 80.0308H232.732C234.25 80.0308 235.482 78.7996 235.482 77.2808V75.1373L239.139 76.9909C240.303 77.5809 241.68 76.735 241.68 75.4299V67.4086C241.68 66.1035 240.303 65.2576 239.139 65.8476L235.482 67.7012V65.6152C235.482 64.0965 234.25 62.8652 232.732 62.8652H230.473C232.41 61.5277 233.678 59.2652 233.678 56.7114C233.678 56.2971 233.342 55.9614 232.928 55.9614C232.514 55.9614 232.178 56.2971 232.178 56.7114C232.178 59.9995 229.574 62.6371 226.396 62.6371C223.217 62.6371 220.613 59.9995 220.613 56.7114ZM222.318 62.8652C221.378 62.2158 220.595 61.3483 220.038 60.3352C219.764 61.32 219.223 62.193 218.498 62.8652H222.318ZM214.918 54.9308C212.823 54.9308 211.097 56.6714 211.097 58.8528C211.097 61.0343 212.823 62.7748 214.918 62.7748C217.014 62.7748 218.74 61.0343 218.74 58.8528C218.74 56.6714 217.014 54.9308 214.918 54.9308ZM240.18 67.4086C240.18 67.2221 239.983 67.1013 239.817 67.1856L235.826 69.2081C235.742 69.2507 235.689 69.3369 235.689 69.4311V73.4074C235.689 73.5016 235.742 73.5878 235.826 73.6304L239.817 75.6529C239.983 75.7372 240.18 75.6164 240.18 75.4299V67.4086ZM210.786 76.4001C210.372 76.4001 210.036 76.7359 210.036 77.1501C210.036 77.5643 210.372 77.9001 210.786 77.9001H213.181C213.595 77.9001 213.931 77.5643 213.931 77.1501C213.931 76.7359 213.595 76.4001 213.181 76.4001H210.786ZM216.773 76.4001C216.358 76.4001 216.023 76.7359 216.023 77.1501C216.023 77.5643 216.358 77.9001 216.773 77.9001H219.167C219.582 77.9001 219.917 77.5643 219.917 77.1501C219.917 76.7359 219.582 76.4001 219.167 76.4001H216.773ZM222.759 76.4001C222.345 76.4001 222.009 76.7359 222.009 77.1501C222.009 77.5643 222.345 77.9001 222.759 77.9001H225.154C225.568 77.9001 225.904 77.5643 225.904 77.1501C225.904 76.7359 225.568 76.4001 225.154 76.4001H222.759ZM228.746 76.4001C228.332 76.4001 227.996 76.7359 227.996 77.1501C227.996 77.5643 228.332 77.9001 228.746 77.9001H231.14C231.555 77.9001 231.89 77.5643 231.89 77.1501C231.89 76.7359 231.555 76.4001 231.14 76.4001H228.746Z" fill="black"/>
<ellipse cx="214.972" cy="58.7787" rx="3.88859" ry="3.97388" fill="#A62E41"/>
</svg>
