<svg width="259" height="192" viewBox="0 0 259 192" fill="none" xmlns="http://www.w3.org/2000/svg">
<path d="M96.5172 192L0.580013 155.926L0.547852 40.2708L96.5494 76.3769L96.5172 192Z" fill="#053866"/>
<path d="M192.71 155.638L96.6768 119.403L96.7732 4.03668L192.903 40.1428L192.71 155.638Z" fill="#102E5B"/>
<path d="M96.5166 192L192.904 155.51V40.1429L96.5488 76.3772L96.5166 192Z" fill="#054270"/>
<path d="M0.580013 155.926L96.7102 119.147L96.7745 4.03668L0.547852 40.271L0.580013 155.926Z" fill="#0A2D49"/>
<path d="M96.5172 192L0.580013 155.894L0.547852 40.2708L96.5494 76.3769L96.5172 192Z" fill="#053866"/>
<path d="M24.5402 78.3953L0.580013 69.3287L0.547852 40.2708L24.5402 49.5296V78.3953Z" fill="#053866"/>
<path d="M6.94691 68.1754C4.76723 68.2312 2.59943 67.8386 0.578971 67.0221L0.514648 63.9144C5.43533 65.7726 10.163 65.4202 13.7651 62.9533C18.1069 59.9738 20.8406 55.1042 20.8406 47.9598L23.7351 49.1132C23.7351 57.1866 21.323 61.7679 16.2094 65.2921C13.4675 67.1268 10.2496 68.1286 6.94691 68.1754Z" fill="#B9D5FD"/>
<path d="M48.4992 87.462L24.5391 78.3955V49.5298L48.4992 58.5964V87.462Z" fill="#0E2951"/>
<path d="M72.4592 96.5285L48.499 87.462V58.5963L72.4592 67.6629V96.5285Z" fill="#709FDC"/>
<path d="M96.4192 105.467L72.459 96.5285V67.6628L96.5478 76.3769L96.4192 105.467Z" fill="#6780B3"/>
<path d="M24.5393 107.261L0.579102 98.1946V69.3289L24.5393 78.3955V107.261Z" fill="#B9D5FD"/>
<path d="M48.4992 116.328L24.5391 107.261V78.3954L48.4992 87.462V116.328Z" fill="#274684"/>
<path d="M72.4592 125.394L48.499 116.328V87.462L72.4592 96.5286V125.394Z" fill="#3D95D1"/>
<path d="M96.4191 134.333L72.459 125.394V96.5287L96.4191 105.467V134.333Z" fill="#B9D5FD"/>
<path d="M48.4992 145.194L24.5391 136.127V107.261L48.4992 116.328V145.194Z" fill="#B9D5FD"/>
<path d="M72.4592 154.26L48.499 145.193V116.328L72.4592 125.394V154.26Z" fill="#0E2951"/>
<path d="M96.4191 163.198L72.459 154.26V125.394L96.4191 134.333V163.198Z" fill="#709FDC"/>
<path d="M24.5393 164.993L0.579102 155.894V127.028L24.5393 136.127V164.993Z" fill="#6780B3"/>
<path d="M48.4992 174.059L24.5391 164.992V136.127L48.4992 145.193V174.059Z" fill="#053866"/>
<path d="M72.4592 183.125L48.499 174.059V145.193L72.4592 154.26V183.125Z" fill="#B9D5FD"/>
<path d="M96.5156 192L72.459 183.126V154.26L96.4192 163.198L96.5156 192Z" fill="#3D95D1"/>
<path d="M5.46762 62.1846C3.7916 62.2098 2.1281 61.8936 0.579102 61.2555V57.7955C4.02036 59.109 8.26565 58.6605 10.3883 57.2509C13.926 54.9121 15.6628 51.2919 15.6628 46.2621L18.5573 47.4154C18.5573 53.5986 16.3381 57.379 12.3823 60.1022C10.3407 61.4746 7.9305 62.2004 5.46762 62.1846Z" fill="#3D95D1"/>
<path d="M3.76307 55.5206C2.67032 55.5461 1.58474 55.3385 0.579102 54.9119V51.4518C2.63743 52.2207 5.78923 52.0285 7.52594 50.2985C9.35914 48.4723 9.84156 46.9986 9.84156 43.9551L12.7361 45.1084C12.7361 49.3374 11.2888 52.1887 8.52295 54.0469C7.12645 55.0145 5.46416 55.5292 3.76307 55.5206Z" fill="#3376B3"/>
<path d="M2.15501 48.857C1.61346 48.8993 1.0702 48.7999 0.579102 48.5686V45.1086C1.09368 45.3008 2.79823 45.429 3.47362 45.1086C4.63143 44.5319 4.63143 43.3786 4.05252 41.6486L7.52594 42.8019C7.52594 45.2047 6.65759 46.8706 5.04952 47.992C4.18979 48.5548 3.1838 48.8555 2.15501 48.857Z" fill="#709FDC"/>
<path d="M95.8084 159.162L75.5146 151.505V101.622L96.1944 109.151V113.188L78.9881 106.62V149.102L95.6155 155.349L95.8084 159.162Z" fill="#274684"/>
<path d="M96.1944 159.963L75.5146 151.505V126.067L78.9881 127.22V149.102L96.1944 155.926V159.963Z" fill="#0E2951"/>
<path d="M95.8094 151.665L81.2725 146.155V110.145L96.1953 115.527V119.564L84.7459 115.142V144.36L96.1953 148.429L95.8094 151.665Z" fill="#274684"/>
<path d="M95.8084 144.745L87.5107 141.605V120.588L96.1943 123.6V127.637L90.9842 125.586V139.202L96.1943 141.477L95.8084 144.745Z" fill="#274684"/>
<path d="M96.1943 144.937L87.5107 141.605V130.584L90.9842 131.738V139.203L96.1943 140.9V144.937Z" fill="#0E2951"/>
<path d="M96.1953 152.466L81.2725 146.731V128.246L84.7459 129.399V144.36L96.1953 148.429V152.466Z" fill="#0E2951"/>
<path d="M18.7824 162.814L0.579102 155.894V133.98L18.7824 140.868V162.814Z" fill="#053866"/>
<path d="M12.5753 160.443L0.579102 155.894V141.477L12.5753 146.027V160.443Z" fill="#709FDC"/>
<path d="M72.3639 78.2352L63.6803 93.0685L48.5967 76.8896L57.3124 62.0563L72.3639 78.2352Z" fill="#0E2951"/>
<path d="M66.5418 77.915L62.1036 85.4758L54.417 77.2422L58.8553 69.6494L66.5418 77.915Z" fill="#6780B3"/>
<path d="M72.4592 183.126L48.499 174.059V150.96L72.4592 160.027V183.126Z" fill="#3D95D1"/>
<path d="M72.4592 183.126L48.499 174.059V157.304L72.4592 166.37V183.126Z" fill="#6780B3"/>
<path d="M72.4592 183.126L48.499 174.059V163.647L72.4592 172.746V183.126Z" fill="#053866"/>
<path d="M72.4592 183.126L48.499 174.059V168.869L72.4592 177.936V183.126Z" fill="#0E2951"/>
<path d="M24.5391 85.2834L48.4992 94.35L24.5391 101.494L48.4992 110.561L24.5391 85.2834Z" fill="#0E2951"/>
<path d="M3.47362 99.348L0.579102 98.1946V69.3289L3.47362 70.4823V99.348Z" fill="#709FDC"/>
<path d="M8.10448 101.078L5.20996 99.9247V71.0591L8.10448 72.2124V101.078Z" fill="#709FDC"/>
<path d="M23.1885 106.845L20.2939 105.691V76.8257L23.1885 77.9791V106.845Z" fill="#709FDC"/>
<path d="M18.1385 104.73L14.665 103.577V74.7433L18.1385 75.8967V104.73Z" fill="#709FDC"/>
<path d="M12.7363 102.808L9.8418 101.654V72.7888L12.7363 73.9422V102.808Z" fill="#709FDC"/>
<path d="M24.5393 136.127L0.579102 127.028V98.1946L24.5393 107.261V136.127Z" fill="#0E2951"/>
<path d="M24.5392 136.127L12.5752 131.577V117.161L24.5392 121.678V136.127Z" fill="#3D95D1"/>
<path d="M12.5753 117.161L0.579102 112.611V98.1946L12.5753 102.712V117.161Z" fill="#3D95D1"/>
<path d="M38.98 159.194L34.0593 157.335V151.633L42.6785 154.901V164.896L30.3607 160.219V145.93L46.3449 151.985V170.663L26.6943 163.198V139.523L46.3449 146.955" stroke="#3D95D1" stroke-width="3" stroke-miterlimit="10"/>
<path d="M76.7695 181.299L93.0753 165.537" stroke="#0E2951" stroke-width="6" stroke-miterlimit="10"/>
<path d="M93.0753 187.451L76.7695 159.354" stroke="#0E2951" stroke-width="6" stroke-miterlimit="10"/>
<path d="M57.1192 129.976L53.292 128.534V123.921L57.1192 125.362V129.976Z" fill="#B9D5FD"/>
<path d="M62.3936 138.337L58.5664 136.864V132.25L62.3936 133.692V138.337Z" fill="#B9D5FD"/>
<path d="M67.668 146.667L63.8408 145.225V140.612L67.668 142.054V146.667Z" fill="#B9D5FD"/>
<path d="M96.5488 76.3772L192.904 40.1429L192.936 155.638L96.5166 192L96.5488 76.3772Z" fill="#053866"/>
<path d="M168.782 107.005L192.935 97.9062V126.772L168.782 135.838V107.005Z" fill="#B9D5FD"/>
<path d="M144.661 116.072L168.782 107.005V135.839L144.661 144.937V116.072Z" fill="#274684"/>
<path d="M120.541 125.138L144.662 116.072V144.937L120.541 154.004V125.138Z" fill="#053866"/>
<path d="M96.4189 134.333L120.54 125.138V154.004L96.4189 163.199V134.333Z" fill="#B9D5FD"/>
<path d="M144.661 87.2058L168.782 78.1392V107.005L144.661 116.071V87.2058Z" fill="#B9D5FD"/>
<path d="M120.541 96.2722L144.662 87.2056V116.071L120.541 125.138V96.2722Z" fill="#0E2951"/>
<path d="M96.4189 105.467L120.54 96.2724V125.138L96.4189 134.333V105.467Z" fill="#709FDC"/>
<path d="M144.661 144.937L168.782 135.838V164.704L144.661 173.803V144.937Z" fill="#0E2951"/>
<path d="M120.541 154.004L144.662 144.937V173.803L120.541 182.869V154.004Z" fill="#709FDC"/>
<path d="M96.4189 163.198L120.54 154.003V182.869L96.5154 192L96.4189 163.198Z" fill="#6780B3"/>
<path d="M168.782 49.2736L192.903 40.1429L192.935 69.0407L168.782 78.1393V49.2736Z" fill="#6780B3"/>
<path d="M144.661 58.3402L168.782 49.2736V78.1392L144.661 87.2058V58.3402Z" fill="#053866"/>
<path d="M120.541 67.4064L144.662 58.3399V87.2055L120.541 96.2721V67.4064Z" fill="#B9D5FD"/>
<path d="M96.5476 76.3771L120.54 67.4066V96.2723L96.4189 105.467L96.5476 76.3771Z" fill="#3D95D1"/>
<path d="M96.1945 159.963V155.926L113.98 148.846V106.364L97.0307 112.74L95.8086 109.504L117.453 101.366V151.249L96.1945 159.963Z" fill="#274684"/>
<path d="M117.453 126.964L113.98 128.118V106.364L96.1943 113.188V109.151L117.453 101.366V126.964Z" fill="#0E2951"/>
<path d="M96.1943 152.466V148.429L108.19 143.527V114.886L96.1943 119.563V115.527L111.664 111.041V145.93L96.1943 152.466Z" fill="#274684"/>
<path d="M96.1945 144.937V140.901L101.919 138.946V125.33L97.0307 127.189L95.8086 123.953L105.393 120.333V141.349L96.1945 144.937Z" fill="#274684"/>
<path d="M105.392 130.905L101.919 132.058V125.33L96.1943 127.637V123.6L105.392 120.333V130.905Z" fill="#0E2951"/>
<path d="M111.664 129.143L108.19 130.296V114.886L96.1943 119.564V115.527L111.664 109.888V129.143Z" fill="#0E2951"/>
<path d="M180.875 44.7243L192.903 40.1429L192.936 54.6238L180.875 59.1411V44.7243Z" fill="#FF8098"/>
<path d="M120.637 172.233L129.417 150.8L144.565 155.573L135.817 177.006L120.637 172.233Z" fill="#0E2951"/>
<path d="M126.522 168.164L130.961 157.207L138.712 159.642L134.241 170.599L126.522 168.164Z" fill="#6780B3"/>
<path d="M120.541 67.4064L144.662 58.3399V81.4388L120.541 90.5054V67.4064Z" fill="#3D95D1"/>
<path d="M120.541 67.4065L144.662 58.3399V75.0954L120.541 84.162V67.4065Z" fill="#6780B3"/>
<path d="M120.541 67.4064L144.662 58.3399V68.72L120.541 77.8186V67.4064Z" fill="#053866"/>
<path d="M120.541 67.4065L144.662 58.3399V63.5299L120.541 72.6285V67.4065Z" fill="#0E2951"/>
<path d="M168.782 128.95L144.661 138.017L168.782 112.772L144.661 121.838" fill="#0E2951"/>
<path d="M192.969 127.06L189.495 128.214V98.7711L192.969 97.6178V127.06Z" fill="#709FDC"/>
<path d="M188.401 128.566L184.928 129.719V100.854L188.401 99.7003V128.566Z" fill="#709FDC"/>
<path d="M173.928 134.012L170.423 135.166L170.358 106.268L173.832 105.115L173.928 134.012Z" fill="#709FDC"/>
<path d="M178.753 132.186L175.247 133.34V104.474L178.753 103.321V132.186Z" fill="#709FDC"/>
<path d="M183.577 130.392L180.071 131.546V102.68L183.577 101.527V130.392Z" fill="#709FDC"/>
<path d="M168.782 78.1393L192.935 69.0406V97.9063L168.782 107.005V78.1393Z" fill="#0E2951"/>
<path d="M168.782 135.838L192.935 126.772V155.638L168.782 164.704V135.838Z" fill="#053866"/>
<path d="M168.782 78.1391L180.875 73.5898V88.0066L168.782 92.5559V78.1391Z" fill="#3D95D1"/>
<path d="M172.095 163.423L169.2 164.576C169.2 144.937 180.103 133.051 192.967 128.214V131.097C181.357 135.454 172.095 150.159 172.095 163.423Z" fill="#B9D5FD"/>
<path d="M178.496 161.116L175.022 162.27C175.022 148.429 183.32 137.505 193.001 133.852V137.312C184.542 140.484 178.496 150.96 178.496 161.116Z" fill="#3D95D1"/>
<path d="M184.638 158.809L181.39 159.963C181.39 151.313 186.31 142.983 192.903 140.484L192.968 143.784C187.822 145.738 184.638 152.562 184.638 158.809Z" fill="#3376B3"/>
<path d="M190.073 156.502L187.179 157.656C186.6 153.042 189.302 148.461 192.904 147.116L192.968 150.736C190.685 151.569 190.073 153.715 190.073 156.502Z" fill="#709FDC"/>
<path d="M154.374 66.0612L159.102 64.2671V69.7455L150.804 72.8852V63.306L162.672 58.8208V72.5328L147.234 78.3636V60.4226L166.242 53.2783V76.0248L147.234 83.2012" stroke="#3D95D1" stroke-width="5" stroke-miterlimit="10"/>
<path d="M116.198 72.5007L99.7959 100.63" stroke="#0E2951" stroke-width="6" stroke-miterlimit="10"/>
<path d="M99.7959 78.6836L116.198 94.446" stroke="#0E2951" stroke-width="6" stroke-miterlimit="10"/>
<path d="M135.978 108.927L139.837 107.485V112.099L135.978 113.572V108.927Z" fill="#B9D5FD"/>
<path d="M130.671 104.602L134.53 103.128V107.742L130.671 109.215V104.602Z" fill="#B9D5FD"/>
<path d="M125.364 100.245L129.224 98.7713V103.417L125.364 104.858V100.245Z" fill="#B9D5FD"/>
<path d="M174.604 47.0951L192.903 40.1429L192.935 62.1206L174.604 69.0086V47.0951Z" fill="#053866"/>
<path d="M179.525 45.2049L192.904 40.1429L192.937 56.1937L179.525 61.2556V45.2049Z" fill="#709FDC"/>
<path d="M180.875 88.0066L192.936 83.4893V97.9061L180.875 102.455V88.0066Z" fill="#3D95D1"/>
<path d="M153.57 54.3354L192.903 40.1428L96.773 4.03668L58.5332 18.5176L153.57 54.3354Z" fill="#0D3760"/>
<path d="M145.852 57.8915L96.1302 76.5052L0 40.4632L49.7857 21.7854L145.852 57.8915Z" fill="#0D3659"/>
<path d="M148.939 0L96.7093 4.10078L0.579102 40.1749L52.6804 36.2022L148.939 0Z" fill="#043D60"/>
<path d="M192.968 40.1749L156.979 4.93378L60.624 41.136L96.7733 76.5373L192.968 40.1749Z" fill="#03446B"/>
<path d="M96.5 121.238V76.6146L193 40.2812H259L249 62.8907L259 85.5002H193L96.5 121.238Z" fill="#B4D1FA"/>
<path d="M136.391 89.0317C138.006 88.4169 139.101 86.992 139.867 85.3322L138.895 85.0002C138.375 86.2242 137.431 87.3037 136.391 87.6997C134.394 88.4605 132.875 87.0049 132.875 84.1609C132.875 81.2989 134.394 78.7045 136.391 77.9437C137.431 77.5477 138.375 77.9262 138.895 78.7362L139.853 77.6694C139.128 76.5956 138.006 75.9969 136.391 76.6117C133.764 77.6122 131.698 80.919 131.698 84.609C131.698 88.299 133.764 90.0322 136.391 89.0317ZM148.621 84.1586L146.158 80.2005C147.404 79.5823 148.526 77.967 148.526 75.807C148.526 73.593 147.335 72.6424 145.666 73.2781L141.999 74.6745V86.6805L143.134 86.248V81.478L144.954 80.785L147.28 84.6692L148.621 84.1586ZM145.529 79.2522L143.134 80.164V75.574L145.529 74.6622C146.61 74.2505 147.349 74.9051 147.349 76.2551C147.349 77.6051 146.61 78.8405 145.529 79.2522ZM159.943 79.8473V67.8413L158.315 68.4613L155.469 78.5811L152.636 70.6237L151.008 71.2438V83.2498L152.144 82.8173V72.9353L155.236 81.6397L155.701 81.4626L158.807 70.3977V80.2797L159.943 79.8473Z" fill="black"/>
<path d="M259 40.5H193V85.5H259L249 63L259 40.5Z" fill="black" fill-opacity="0.05"/>
<path d="M209.784 65.7639L209.175 66.3727V79.7667L210.392 80.6799H213.437L214.654 79.4623V66.9815L214.045 65.7639H209.784Z" fill="#C43B55"/>
<path d="M219.459 62.1112L218.743 62.9964V79.9439L220 80.9846H222.706L223.788 79.4439V63.6519C224.006 62.9012 223.993 62.5277 223.247 62.1112H219.459Z" fill="#C43B55"/>
<path d="M227.958 54.3867L227.354 55.7475V79.3886L228.562 81.0005H231.583L233.094 78.9973V56.8221L232.49 54.3867H227.958Z" fill="#C43B55"/>
<path d="M209 61.4789C215.071 61.0453 227.907 57.1424 230.683 45M230.683 45L228.948 46.301M230.683 45L231.55 46.7346" stroke="black" stroke-width="1.5" stroke-linecap="round" stroke-linejoin="round"/>
<path d="M233.094 69.5675V78.4786C233.094 79.5832 232.198 80.4786 231.094 80.4786H229.354C228.249 80.4786 227.354 79.5832 227.354 78.4786V56.3867C227.354 55.2821 228.249 54.3867 229.354 54.3867H231.094C232.198 54.3867 233.094 55.2821 233.094 56.3867V66.9583" stroke="black" stroke-width="1.5" stroke-linecap="round"/>
<path d="M218.481 77.2697V64.214C218.481 63.1094 219.377 62.214 220.481 62.214H222.222C223.326 62.214 224.222 63.1094 224.222 64.214V78.4783C224.222 79.5829 223.326 80.4783 222.222 80.4783H220.086C219.2 80.4783 218.481 79.76 218.481 78.874V78.874" stroke="black" stroke-width="1.5" stroke-linecap="round"/>
<path d="M209.088 69.1289V78.4789C209.088 79.5835 209.983 80.4789 211.088 80.4789H212.828C213.933 80.4789 214.828 79.5835 214.828 78.4789V67.3456C214.828 66.241 213.933 65.3456 212.828 65.3456H210.98C209.935 65.3456 209.088 66.1925 209.088 67.2372V67.2372" stroke="black" stroke-width="1.5" stroke-linecap="round"/>
</svg>
