<svg width="594" height="545" viewBox="0 0 594 545" fill="none" xmlns="http://www.w3.org/2000/svg">
<g opacity="0.5" filter="url(#filter0_f)">
<path d="M364.246 503.552L393.638 491.184C394.462 491.685 395.232 492.27 395.936 492.929C397.311 494.728 395.539 497.202 397.842 498.776C400.682 500.692 407.663 500.271 413.437 497.84C413.599 497.773 413.759 497.703 413.914 497.633C419.34 495.212 421.517 491.829 418.758 489.968C416.994 488.778 413.956 488.843 411.48 488.393C410.232 488.183 409.013 487.827 407.847 487.334C407.149 486.965 406.486 486.532 405.868 486.041L435.302 473.649L490.73 511.079L419.679 541L396.747 525.513L397.033 525.383C398.019 524.953 399.03 524.583 400.059 524.272C403.479 523.521 408.105 524.434 411.069 523.19C414.689 521.576 413.95 517.917 409.496 514.906C405.002 511.863 398.39 510.633 394.754 512.169C392.496 513.177 392.584 514.762 391.71 516.059C391.18 516.843 390.491 517.506 389.688 518.005C389.58 518.07 389.166 518.279 388.643 518.511C388.211 518.704 387.704 518.913 387.232 519.073L364.246 503.552Z" fill="#C2C2C2"/>
</g>
<path d="M425.48 482.227C425.48 481.552 425.13 480.961 424.411 480.475C424.296 480.398 424.186 480.329 424.049 480.25L423.928 480.192C423.838 480.149 423.743 480.106 423.649 480.068L423.579 480.036L423.516 480.014C423.366 479.958 423.209 479.901 423.047 479.854C422.88 479.807 422.712 479.764 422.541 479.724L422.483 479.71L422.411 479.697C422.209 479.652 422.002 479.611 421.791 479.578H421.773H421.721C421.496 479.542 421.272 479.51 421.061 479.481H420.991C420.766 479.449 420.521 479.422 420.285 479.395H420.245L419.672 479.33L418.998 479.249L418.874 479.234C418.65 479.204 418.441 479.173 418.229 479.139L417.899 479.083C417.674 479.042 417.45 478.995 417.225 478.948L417.106 478.921C416.941 478.885 416.779 478.847 416.621 478.806H416.607C416.445 478.766 416.286 478.721 416.126 478.676L415.976 478.629C415.866 478.597 415.751 478.561 415.648 478.527L415.49 478.473L415.165 478.354C415.124 478.339 415.082 478.325 415.041 478.307C414.905 478.253 414.772 478.197 414.643 478.138C414.018 477.81 413.424 477.423 412.871 476.983L412.999 491.784C413.554 492.223 414.148 492.611 414.774 492.942C414.902 493 415.034 493.054 415.171 493.11L415.201 493.122L415.293 493.155C415.401 493.196 415.517 493.236 415.623 493.275L415.776 493.326L416.113 493.432L416.205 493.461L416.252 493.475C416.412 493.522 416.573 493.567 416.737 493.607C416.902 493.648 417.068 493.688 417.234 493.724L417.281 493.736L417.349 493.749C417.573 493.799 417.798 493.846 418.023 493.886L418.299 493.936H418.353C418.564 493.969 418.78 494.001 418.996 494.03L419.126 494.046C419.351 494.075 419.562 494.1 419.784 494.127L420.218 494.176L420.393 494.197C420.634 494.224 420.872 494.251 421.108 494.282H421.164C421.389 494.311 421.613 494.343 421.838 494.379H421.91C422.121 494.412 422.326 494.453 422.53 494.498L422.66 494.525C422.833 494.565 423.002 494.608 423.166 494.655C423.33 494.703 423.489 494.759 423.644 494.817L423.777 494.869L424.056 494.995L424.175 495.053C424.301 495.121 424.422 495.191 424.536 495.278C425.258 495.764 425.601 496.367 425.608 497.03L425.48 482.227Z" fill="#8A4E5C"/>
<path d="M404.054 514.822C404.104 514.808 404.155 514.797 404.205 514.788L404.411 514.743L404.582 514.712L404.726 514.687L404.836 527.091L425.359 540.95L425.227 526.149L408.229 514.68C408.476 514.709 408.728 514.743 408.979 514.786L409.152 514.815L409.433 514.867L409.635 514.907L409.905 514.964L410.094 515.006C410.24 515.038 410.386 515.074 410.543 515.11L410.667 515.141C410.849 515.188 411.031 515.24 411.213 515.292L411.318 515.323C411.568 515.4 411.819 515.478 412.069 515.562L412.107 515.575C412.354 515.661 412.601 515.753 412.846 515.847L412.907 515.872C413.188 515.982 413.469 516.097 413.745 516.225L413.785 516.243C414.064 516.369 414.34 516.504 414.612 516.643L414.639 516.657C414.913 516.801 415.185 516.949 415.448 517.107H415.462C415.729 517.266 415.992 517.43 416.246 517.601C418.511 519.133 419.704 520.848 419.715 522.324L419.578 507.518C419.564 506.054 418.371 504.338 416.107 502.796C415.853 502.625 415.59 502.458 415.322 502.301H415.309C415.044 502.146 414.776 501.997 414.5 501.851L414.471 501.838C414.201 501.698 413.927 501.563 413.646 501.437L413.606 501.419C413.329 501.296 413.051 501.177 412.768 501.066H412.752L412.709 501.051C412.462 500.954 412.21 500.862 411.961 500.774H411.932C411.68 500.686 411.426 500.608 411.175 500.533L411.116 500.513H411.078C410.894 500.459 410.709 500.408 410.525 500.36L410.413 500.331C410.263 500.292 410.113 500.256 409.963 500.223L409.88 500.203L409.786 500.183L409.505 500.124L409.31 500.086L409.024 500.034L408.887 500.01H408.854C408.597 499.967 408.346 499.931 408.094 499.902H408.036H407.991C407.766 499.877 407.555 499.857 407.339 499.841H407.285C407.262 499.843 407.239 499.843 407.216 499.841C406.813 499.818 406.422 499.809 406.04 499.818H405.912C405.726 499.818 405.542 499.834 405.364 499.85H405.328C405.139 499.866 404.957 499.886 404.775 499.911C404.756 499.912 404.736 499.912 404.717 499.911H404.677L404.452 499.947L404.297 499.974L404.072 500.023L403.953 500.048H403.935C403.776 500.086 403.621 500.131 403.47 500.178L403.367 500.212C403.214 500.264 403.063 500.318 402.917 500.376C402.771 500.435 402.693 500.482 402.596 500.533L402.508 500.585L402.4 500.644L402.315 500.7L402.207 500.77C402.151 500.808 402.099 500.846 402.048 500.887L401.958 500.954L401.926 500.979C401.866 501.03 401.807 501.082 401.753 501.134L401.733 501.154L401.607 501.282L401.574 501.323L401.515 501.39C401.477 501.435 401.439 501.482 401.405 501.53L401.356 501.595L401.331 501.629C401.313 501.653 401.299 501.678 401.284 501.703C401.268 501.728 401.223 501.793 401.196 501.84C401.169 501.887 401.153 501.91 401.133 501.946L401.059 502.081C401.052 502.097 401.043 502.113 401.034 502.128C401.034 502.146 401.019 502.164 401.01 502.18C400.969 502.258 400.933 502.339 400.895 502.418C400.895 502.436 400.879 502.454 400.873 502.47C400.825 502.578 400.778 502.683 400.733 502.789C400.688 502.895 400.664 502.953 400.628 503.034L400.587 503.126C400.542 503.225 400.497 503.322 400.45 503.416C400.423 503.468 400.396 503.518 400.367 503.567C400.338 503.616 400.342 503.616 400.329 503.639C400.288 503.711 400.243 503.785 400.194 503.864C400.145 503.943 400.131 503.952 400.1 503.996L399.951 504.194L399.886 504.278C399.817 504.361 399.747 504.444 399.662 504.527L399.644 504.547C399.565 504.635 399.48 504.721 399.392 504.806L399.313 504.878C399.248 504.939 399.183 504.997 399.113 505.056C399.082 505.085 399.046 505.112 399.01 505.141C398.974 505.17 398.871 505.251 398.799 505.305C398.765 505.33 398.734 505.357 398.698 505.382C398.59 505.458 398.473 505.532 398.365 505.607L398.327 505.627H398.311L398.266 505.652L398.239 505.665L398.183 505.694L398.145 505.715L398.084 505.744L398.03 505.771L397.972 505.8L397.9 505.834L397.833 505.865L397.756 505.901L397.651 505.951L397.601 505.975L397.43 506.052C397.044 506.225 396.59 506.412 396.168 506.553L375.622 492.679L375.75 507.48L396.298 521.354C396.72 521.213 397.174 521.026 397.561 520.853L397.88 520.707L398.012 520.644L398.107 520.597L398.143 520.579L398.212 520.545L398.257 520.522L398.309 520.495L398.352 520.475L398.388 520.455L398.426 520.435L398.45 520.421L398.473 520.408C398.59 520.336 398.698 520.261 398.81 520.183L398.907 520.111C398.981 520.057 399.053 520.001 399.131 519.944L399.185 519.902L399.232 519.859C399.3 519.801 399.367 519.742 399.43 519.684L399.511 519.607C399.599 519.524 399.682 519.438 399.763 519.353L399.781 519.333C399.855 519.252 399.927 519.169 400.005 519.085L400.073 519L400.216 518.807C400.228 518.791 400.243 518.773 400.255 518.755L400.313 518.672C400.36 518.6 400.405 518.528 400.448 518.447C400.464 518.42 400.477 518.393 400.491 518.366C400.504 518.339 400.54 518.278 400.563 518.233C400.612 518.136 400.657 518.04 400.702 517.941L400.742 517.851C400.776 517.77 400.812 517.689 400.848 517.608C400.884 517.527 400.94 517.383 400.987 517.282C400.995 517.268 401.002 517.253 401.007 517.237C401.046 517.156 401.084 517.073 401.124 516.992C401.14 516.96 401.156 516.929 401.174 516.897L401.25 516.758L401.308 516.655C401.338 516.607 401.367 516.562 401.398 516.517C401.42 516.48 401.444 516.444 401.47 516.409L401.52 516.342C401.553 516.297 401.592 516.25 401.63 516.205C401.648 516.181 401.667 516.159 401.688 516.137C401.738 516.081 401.789 516.025 401.845 515.971L401.868 515.948C401.933 515.886 402.001 515.826 402.072 515.771L402.16 515.701C402.212 515.663 402.266 515.622 402.322 515.584L402.43 515.514C402.49 515.476 402.556 515.436 402.623 515.398L402.711 515.35C402.812 515.296 402.917 515.242 403.032 515.191C403.146 515.139 403.324 515.078 403.481 515.026L403.585 514.993C403.74 514.903 403.892 514.86 404.054 514.822Z" fill="#9A5364"/>
<path d="M488.813 499.371L488.943 514.172L425.359 540.95L425.226 526.149L488.813 499.371Z" fill="#DD6A85"/>
<path d="M375.627 492.649L401.931 481.57C402.669 482.023 403.359 482.551 403.989 483.144C405.219 484.765 403.632 486.967 405.695 488.37C408.236 490.084 414.482 489.719 419.65 487.531C419.796 487.471 419.938 487.41 420.077 487.347C424.935 485.179 426.883 482.152 424.414 480.486C422.841 479.42 420.115 479.488 417.898 479.078C416.781 478.89 415.691 478.572 414.649 478.129C414.023 477.801 413.429 477.414 412.876 476.974L439.212 465.883L488.816 499.389L425.229 526.167L404.708 512.308L404.962 512.191C405.845 511.806 406.75 511.475 407.672 511.197C410.732 510.522 414.862 511.341 417.516 510.228C420.756 508.782 420.095 505.505 416.107 502.807C412.076 500.084 406.169 498.984 402.913 500.358C400.891 501.258 400.972 502.677 400.19 503.839C399.713 504.541 399.093 505.135 398.37 505.58C398.273 505.638 397.903 505.825 397.435 506.029C397.049 506.203 396.595 506.389 396.173 506.531L375.627 492.649Z" fill="#F985A0"/>
<g opacity="0.5" filter="url(#filter1_f)">
<path d="M273.928 507.155C272.165 505.963 269.122 506.031 266.651 505.581C265.402 505.369 264.183 505.012 263.018 504.517C262.318 504.15 261.654 503.717 261.036 503.224L290.47 490.832L267.552 475.347C267.644 475.302 267.745 475.255 267.848 475.21C268.831 474.781 269.837 474.411 270.864 474.103C274.281 473.352 278.905 474.263 281.981 472.979C285.482 471.418 284.745 467.757 280.287 464.751C275.793 461.706 269.181 460.478 265.435 462.052C263.289 463.013 263.375 464.596 262.501 465.893C261.972 466.678 261.283 467.341 260.479 467.838C260.371 467.906 259.957 468.113 259.434 468.347C259.002 468.54 258.495 468.749 258.023 468.909L235.044 453.404L163.986 483.328L219.412 520.758L248.808 508.39C249.631 508.892 250.401 509.478 251.105 510.137C252.48 511.936 250.707 514.409 253.01 515.984C255.85 517.899 262.831 517.481 268.606 515.048C268.77 514.981 268.929 514.911 269.086 514.841C274.51 512.388 276.685 509.015 273.928 507.155Z" fill="#C9C9C9"/>
</g>
<path d="M268.299 461.291H268.283C267.366 461.568 266.466 461.898 265.587 462.278L265.324 462.402L265.455 477.203L265.717 477.079C266.593 476.7 267.489 476.371 268.402 476.094H268.418C268.643 476.043 268.888 476 269.133 475.964C269.423 475.923 269.721 475.89 270.031 475.865L269.903 461.064C269.598 461.088 269.299 461.122 269.005 461.163C268.771 461.196 268.524 461.239 268.299 461.291Z" fill="#613345"/>
<path d="M285.988 491.064L285.858 476.261L259.52 487.353L259.628 499.67C256.57 500.036 253.822 499.748 252.339 498.748C251.353 498.073 251.202 497.228 251.177 496.342V495.609C251.177 494.88 251.121 494.156 250.64 493.524C250.011 492.931 249.323 492.404 248.587 491.95L222.278 503.029L222.408 517.83L248.715 506.751C249.451 507.201 250.14 507.725 250.771 508.314C251.2 508.881 251.285 509.519 251.303 510.171V510.904C251.303 511.871 251.4 512.816 252.469 513.538C255.011 515.253 261.257 514.887 266.427 512.701L266.856 512.514C270.294 510.981 272.273 509.015 272.249 507.408C272.217 503.895 272.187 500.383 272.157 496.872L285.988 491.064Z" fill="#8E2838"/>
<path d="M280.354 457.345L280.484 472.146C277.955 475.516 271.657 477.037 268.431 476.092C267.514 476.369 266.614 476.699 265.735 477.081L265.472 477.205L265.342 462.404L265.605 462.28C266.483 461.898 267.384 461.568 268.301 461.291C271.362 459.113 277.613 449.601 280.354 457.345Z" fill="#551821"/>
<path d="M222.271 503.041L172.667 469.541L172.797 484.342L222.401 517.842L222.271 503.041Z" fill="#641A26"/>
<path d="M271.058 490.866C269.485 489.8 266.759 489.868 264.542 489.458C263.425 489.271 262.334 488.953 261.29 488.512C260.665 488.181 260.071 487.793 259.515 487.353L285.853 476.261L265.333 462.404L265.595 462.28C266.474 461.898 267.374 461.568 268.292 461.291C271.35 460.616 275.482 461.435 278.241 460.274C281.387 458.876 280.713 455.602 276.727 452.91C272.693 450.184 266.786 449.087 263.434 450.501C261.513 451.36 261.589 452.777 260.807 453.94C260.331 454.643 259.711 455.236 258.987 455.68C258.891 455.739 258.52 455.925 258.053 456.13C257.666 456.303 257.212 456.49 256.79 456.634L236.244 442.757L172.657 469.537L222.262 503.043L248.571 491.963C249.307 492.417 249.995 492.945 250.624 493.537C251.853 495.157 250.267 497.36 252.33 498.761C254.871 500.477 261.117 500.111 266.287 497.925C266.434 497.864 266.577 497.801 266.717 497.738C271.581 495.557 273.527 492.532 271.058 490.866Z" fill="url(#paint0_linear)"/>
<g opacity="0.5" filter="url(#filter2_f)">
<path d="M223.679 390.241L288.872 362.784L339.731 397.131L312.728 408.501C313.295 408.954 313.904 409.351 314.548 409.688C315.616 410.142 316.735 410.468 317.88 410.66C320.151 411.08 322.94 411.01 324.557 412.103C327.087 413.812 325.094 416.915 320.115 419.137C319.972 419.2 319.825 419.265 319.666 419.328C314.368 421.559 307.96 421.944 305.358 420.185C303.243 418.757 304.868 416.49 303.605 414.831C302.96 414.225 302.254 413.688 301.498 413.228L274.535 424.586L253.493 410.376C253.578 410.336 253.668 410.293 253.762 410.253C254.664 409.86 255.589 409.521 256.531 409.236C259.676 408.546 263.914 409.385 266.624 408.242C269.947 406.763 269.27 403.405 265.181 400.644C261.047 397.851 254.991 396.726 251.653 398.132C249.581 399.054 249.664 400.509 248.86 401.701C248.372 402.421 247.736 403.029 246.995 403.484C246.896 403.545 246.521 403.733 246.044 403.947C245.644 404.125 245.175 404.318 244.739 404.467L223.679 390.241Z" fill="#C9C9C9"/>
</g>
<path d="M259.779 398.767L259.913 398.737L260.122 398.692C260.172 398.681 260.223 398.674 260.273 398.665L260.421 398.641L260.525 410.444L280.057 423.635L279.933 409.549L263.756 398.623C263.994 398.65 264.234 398.683 264.475 398.722L264.632 398.751L264.908 398.8L265.092 398.836L265.362 398.892L265.531 398.931L265.955 399.032L266.068 399.061C266.243 399.106 266.416 399.156 266.591 399.205L266.683 399.234C266.926 399.306 267.166 399.38 267.405 399.459H267.431C267.672 399.542 267.91 399.63 268.148 399.722L268.2 399.743C268.47 399.848 268.735 399.967 269 400.08L269.036 400.096C269.303 400.217 269.566 400.345 269.824 400.478L269.849 400.491C270.11 400.626 270.368 400.768 270.618 400.916H270.633C270.887 401.067 271.137 401.224 271.379 401.386C273.534 402.843 274.669 404.478 274.682 405.87C274.64 401.175 274.598 396.48 274.556 391.784C274.545 390.39 273.41 388.757 271.256 387.3C271.013 387.136 270.764 386.979 270.51 386.828H270.494C270.245 386.68 269.986 386.538 269.726 386.401L269.699 386.387C269.44 386.255 269.18 386.129 268.914 386.007L268.874 385.989C268.611 385.872 268.346 385.764 268.079 385.654H268.063L268.018 385.639C267.793 385.546 267.551 385.461 267.312 385.378L267.279 385.366C267.043 385.285 266.805 385.211 266.566 385.142L266.504 385.124H266.463C266.292 385.072 266.117 385.025 265.944 384.98L265.829 384.95C265.69 384.914 265.551 384.881 265.409 384.849L265.326 384.829L265.232 384.809L264.976 384.755L264.78 384.717L264.52 384.669L264.382 384.645H264.346C264.108 384.606 263.868 384.573 263.632 384.543H263.569H263.524C263.317 384.521 263.111 384.503 262.908 384.487H262.857H262.794C262.603 384.487 262.412 384.467 262.223 384.462H262.207C262.03 384.462 261.855 384.462 261.682 384.462H261.551C261.376 384.462 261.205 384.478 261.037 384.492H261.021H260.983C260.805 384.507 260.635 384.528 260.466 384.55H260.408H260.369L260.17 384.584L260.008 384.613C259.943 384.613 259.877 384.64 259.815 384.654L259.682 384.683H259.664C259.513 384.719 259.367 384.762 259.215 384.806L259.116 384.838C258.972 384.887 258.83 384.937 258.696 384.993C258.561 385.049 258.487 385.092 258.39 385.144L258.307 385.191L258.203 385.247L258.123 385.301L258.019 385.369C257.968 385.405 257.916 385.441 257.866 385.479L257.781 385.544L257.752 385.567C257.693 385.616 257.64 385.663 257.588 385.715L257.568 385.735C257.525 385.776 257.487 385.814 257.449 385.857L257.415 385.895L257.361 385.958C257.325 386.001 257.289 386.046 257.255 386.091L257.21 386.151L257.186 386.185L257.141 386.255L257.055 386.385L256.999 386.484C256.974 386.529 256.95 386.574 256.927 386.619L256.903 386.659L256.882 386.707C256.842 386.785 256.806 386.864 256.77 386.943L256.75 386.983C256.703 387.091 256.655 387.208 256.61 387.307C256.581 387.377 256.55 387.446 256.518 387.516L256.478 387.611C256.435 387.705 256.392 387.797 256.345 387.887C256.323 387.934 256.298 387.979 256.271 388.024C256.244 388.069 256.246 388.074 256.231 388.099C256.193 388.168 256.148 388.238 256.103 388.308C256.058 388.377 256.04 388.395 256.008 388.438C255.977 388.481 255.918 388.562 255.871 388.623L255.808 388.704C255.743 388.784 255.673 388.863 255.602 388.944L255.588 388.958C255.512 389.041 255.431 389.124 255.348 389.203L255.274 389.272C255.213 389.331 255.148 389.387 255.083 389.443L254.988 389.522L254.784 389.682L254.689 389.751C254.586 389.823 254.483 389.895 254.373 389.963L254.352 389.974L254.319 389.992L254.298 390.003L254.249 390.028L254.218 390.046L254.161 390.075L254.121 390.095L254.056 390.127L254.002 390.154L253.932 390.188L253.849 390.226L253.797 390.251L253.701 390.296L253.647 390.32L253.49 390.392C253.119 390.556 252.683 390.736 252.278 390.874L232.73 377.669L232.854 391.755L252.402 404.96C252.806 404.825 253.242 404.645 253.613 404.478L253.773 404.406H253.8L253.921 404.348L253.968 404.328L254.056 404.285L254.112 404.258L254.179 404.224L254.222 404.204L254.287 404.17L254.321 404.155L254.377 404.125L254.402 404.112L254.444 404.089H254.462L254.489 404.074C254.599 404.006 254.714 403.936 254.806 403.862L254.905 403.79L255.105 403.635L255.154 403.559L255.202 403.516C255.265 403.462 255.327 403.408 255.386 403.352L255.467 403.277C255.55 403.199 255.629 403.118 255.705 403.035L255.718 403.019C255.79 402.94 255.858 402.859 255.923 402.781L255.986 402.702L256.125 402.515L256.159 402.47L256.217 402.385C256.262 402.317 256.305 402.248 256.345 402.178L256.399 402.079C256.419 402.043 256.44 402.009 256.458 401.973C256.505 401.881 256.55 401.787 256.59 401.692C256.604 401.667 256.616 401.64 256.626 401.613L256.734 401.362L256.86 401.071C256.869 401.054 256.877 401.036 256.885 401.018L256.992 400.793L257.04 400.703C257.062 400.658 257.087 400.613 257.111 400.57C257.129 400.536 257.148 400.503 257.17 400.471C257.195 400.426 257.224 400.381 257.253 400.338L257.32 400.237C257.336 400.215 257.352 400.194 257.37 400.174C257.401 400.129 257.437 400.087 257.473 400.044C257.491 400.021 257.51 399.999 257.529 399.979C257.577 399.925 257.626 399.873 257.68 399.819L257.7 399.799C257.761 399.74 257.826 399.684 257.896 399.628L257.979 399.563C258.028 399.527 258.078 399.488 258.132 399.452L258.235 399.385C258.293 399.349 258.354 399.311 258.419 399.275L258.502 399.228C258.599 399.178 258.698 399.126 258.808 399.079C258.918 399.032 259.084 398.971 259.228 398.924L259.327 398.89C259.48 398.836 259.626 398.803 259.779 398.767Z" fill="#3F679B"/>
<path d="M340.575 398.162L340.451 384.073L315.385 394.618L315.486 406.343H315.463L315.299 406.361C315.099 406.383 314.902 406.403 314.704 406.419H314.645L314.214 406.451H314.054L313.731 406.464H313.614C313.362 406.464 313.113 406.464 312.87 406.464H312.774C312.569 406.464 312.369 406.451 312.176 406.439H312.129C311.947 406.426 311.767 406.41 311.592 406.39L311.462 406.374C311.311 406.356 311.163 406.336 311.012 406.313H310.96C310.805 406.289 310.653 406.259 310.511 406.226L310.396 406.201C310.259 406.169 310.122 406.133 309.992 406.097L309.934 406.082L309.853 406.055L309.642 405.985L309.534 405.947L309.358 405.879L309.262 405.839L309.098 405.765L309.006 405.72C308.949 405.693 308.896 405.663 308.842 405.634L308.767 405.594C308.691 405.549 308.617 405.504 308.543 405.457C307.604 404.82 307.46 404.006 307.437 403.161V402.486C307.437 401.791 307.383 401.101 306.925 400.498C306.327 399.935 305.671 399.436 304.968 399.009L279.933 409.549L280.057 423.635L305.092 413.091C305.797 413.517 306.456 414.015 307.058 414.577C307.469 415.119 307.55 415.731 307.568 416.354C307.568 416.579 307.568 416.804 307.568 417.029C307.568 417.953 307.658 418.852 308.678 419.543C308.75 419.59 308.821 419.633 308.902 419.677L308.979 419.72L309.138 419.806L309.233 419.848L309.397 419.925L309.493 419.963L309.547 419.986L309.671 420.033L309.776 420.071L309.983 420.138L310.071 420.165H310.086H310.122C310.255 420.206 310.394 420.24 310.534 420.273L310.594 420.287H310.644C310.792 420.321 310.945 420.35 311.093 420.377H311.131C311.277 420.399 311.43 420.422 311.581 420.44H311.646H311.706C311.882 420.46 312.061 420.476 312.246 420.489H312.295C312.491 420.503 312.691 420.51 312.893 420.516H312.985C313.228 420.516 313.477 420.516 313.729 420.516H313.798H313.859L314.18 420.503H314.34L314.8 420.471H314.827C315.027 420.456 315.227 420.433 315.43 420.411L315.587 420.393C315.764 420.372 315.942 420.35 316.122 420.323H316.187H316.209C316.375 420.298 316.542 420.273 316.71 420.244L316.793 420.228L317.216 420.152L317.405 420.114L317.724 420.049C317.795 420.035 317.865 420.017 317.935 420.001L318.236 419.934L318.317 419.916L318.384 419.898C318.656 419.83 318.928 419.761 319.2 419.684L319.305 419.655C319.582 419.576 319.856 419.493 320.13 419.405L320.213 419.376C320.494 419.284 320.775 419.187 321.053 419.086L321.103 419.066C321.391 418.958 321.678 418.841 321.959 418.726L322.368 418.551C322.559 418.465 322.743 418.378 322.923 418.292L323.105 418.2L323.451 418.025L323.651 417.917L323.956 417.748C324.019 417.712 324.082 417.676 324.143 417.638L324.258 417.573L324.442 417.458L324.604 417.357C324.714 417.285 324.828 417.215 324.925 417.132L325.028 417.062C325.165 416.966 325.296 416.871 325.421 416.774L325.516 416.7C325.588 416.642 325.664 416.583 325.741 416.525L325.781 416.489C325.871 416.412 325.956 416.336 326.042 416.264L326.156 416.16C326.275 416.048 326.381 415.936 326.491 415.823C326.581 415.726 326.666 415.628 326.745 415.529L326.817 415.434C326.857 415.38 326.902 415.326 326.938 415.272L326.967 415.227C326.988 415.2 327.003 415.173 327.021 415.146C327.066 415.077 327.109 415.007 327.147 414.939C327.163 414.91 327.181 414.881 327.194 414.852L327.223 414.805C327.259 414.73 327.293 414.658 327.322 414.58C327.322 414.566 327.322 414.555 327.338 414.541C327.358 414.492 327.379 414.44 327.394 414.391C327.41 414.341 327.414 414.328 327.423 414.296L327.437 414.247C327.458 414.173 327.474 414.098 327.486 414.022C327.487 414.007 327.487 413.992 327.486 413.977V413.932C327.496 413.852 327.501 413.772 327.502 413.691V413.667C327.475 410.324 327.446 406.981 327.414 403.64L340.575 398.162Z" fill="#5988C6"/>
<path d="M232.724 377.667L293.242 352.18L340.451 384.062L315.385 394.618C315.912 395.038 316.478 395.407 317.075 395.72C318.066 396.14 319.104 396.442 320.166 396.619C322.274 397.008 324.865 396.945 326.366 397.968C328.714 399.556 326.864 402.434 322.243 404.49C322.11 404.55 321.973 404.609 321.834 404.667C316.915 406.738 310.968 407.096 308.55 405.463C306.588 404.139 308.101 402.034 306.925 400.494C306.327 399.93 305.671 399.431 304.968 399.005L279.934 409.549L260.401 396.363L260.651 396.248C261.488 395.883 262.346 395.568 263.221 395.306C266.142 394.665 270.074 395.441 272.591 394.382C275.676 393.008 275.047 389.884 271.243 387.327C267.405 384.737 261.783 383.691 258.685 384.995C256.761 385.852 256.838 387.201 256.092 388.31C255.639 388.978 255.049 389.542 254.362 389.965C254.267 390.021 253.912 390.19 253.479 390.395C253.108 390.559 252.672 390.739 252.268 390.876L232.724 377.667Z" fill="#71A0DD"/>
<g opacity="0.5" filter="url(#filter3_f)">
<path d="M516.509 408.816L487.385 396.551C486.57 397.049 485.808 397.629 485.111 398.283C483.75 400.081 485.504 402.524 483.224 404.064C480.411 405.964 473.495 405.548 467.772 403.137C467.61 403.07 467.453 403.003 467.298 402.933C461.921 400.533 459.769 397.183 462.501 395.339C464.247 394.158 467.26 394.235 469.709 393.781C470.944 393.573 472.151 393.221 473.304 392.73C473.998 392.368 474.655 391.939 475.268 391.451L446.123 379.173L423.38 394.532C422.911 394.374 422.403 394.165 421.974 393.972C421.459 393.747 421.052 393.538 420.947 393.472C420.144 392.981 419.455 392.325 418.925 391.548C418.059 390.259 418.145 388.689 416.019 387.74C412.307 386.166 405.769 387.39 401.302 390.403C396.889 393.385 396.159 397.012 399.626 398.559C402.673 399.843 407.265 398.937 410.636 399.683C411.653 399.99 412.652 400.355 413.626 400.779L413.918 400.916L391.205 416.261L461.595 445.899L516.509 408.816Z" fill="#CBCED0"/>
</g>
<path d="M465.696 382.486C465.696 381.811 466.056 381.186 466.795 380.687C466.915 380.605 467.039 380.529 467.168 380.462L467.292 380.399C467.384 380.354 467.478 380.311 467.577 380.273L467.649 380.24L467.714 380.217C467.869 380.159 468.029 380.102 468.195 380.055C468.363 380.006 468.536 379.963 468.714 379.922L468.775 379.907L468.853 379.893C469.06 379.848 469.269 379.808 469.482 379.772H469.503H469.57C469.783 379.737 469.998 379.706 470.217 379.677H470.305C470.529 379.646 470.774 379.619 471.013 379.592H471.053L471.215 379.572L471.693 379.518C471.918 379.493 472.143 379.466 472.367 379.437L472.5 379.421C472.725 379.392 472.936 379.36 473.149 379.327L473.489 379.268C473.713 379.225 473.949 379.178 474.178 379.129L474.306 379.099C474.473 379.063 474.637 379.023 474.801 378.982H474.814C474.983 378.94 475.145 378.895 475.309 378.848L475.459 378.803L475.794 378.697L475.958 378.641C476.068 378.602 476.183 378.564 476.282 378.524L476.416 378.472C476.558 378.416 476.697 378.357 476.827 378.299C477.471 377.96 478.082 377.562 478.652 377.109L478.517 392.317C477.949 392.77 477.338 393.169 476.695 393.507C476.562 393.568 476.423 393.626 476.282 393.682L476.25 393.696L476.158 393.73C476.047 393.773 475.935 393.814 475.821 393.851C475.769 393.871 475.715 393.887 475.661 393.905C475.554 393.943 475.437 393.977 475.329 394.011L475.225 394.044L475.174 394.058C475.012 394.105 474.848 394.15 474.684 394.191H474.664C474.502 394.231 474.34 394.269 474.176 394.305L474.122 394.319L474.041 394.334C473.817 394.386 473.592 394.433 473.367 394.476L473.084 394.526H473.024C472.812 394.559 472.599 394.591 472.381 394.618L472.237 394.636C472.012 394.665 471.81 394.69 471.594 394.715H471.574L471.125 394.766L470.9 394.793L470.201 394.876L470.116 394.89C469.897 394.917 469.682 394.948 469.469 394.984L469.381 394.998C469.166 395.034 468.954 395.074 468.748 395.119L468.613 395.149C468.435 395.189 468.262 395.232 468.094 395.281C467.925 395.331 467.766 395.387 467.609 395.445L467.471 395.499C467.373 395.54 467.278 395.583 467.186 395.628L467.06 395.688C466.933 395.756 466.809 395.832 466.69 395.913C465.95 396.415 465.598 397.037 465.591 397.712L465.696 382.486Z" fill="#0B224A"/>
<path d="M406.343 396.819C406.343 396.792 406.343 396.761 406.325 396.732C406.318 396.707 406.312 396.681 406.309 396.655C406.309 396.655 406.309 396.637 406.309 396.628C406.309 396.619 406.309 396.547 406.294 396.507C406.278 396.466 406.294 396.446 406.294 396.417C406.294 396.388 406.294 396.331 406.294 396.289C406.294 396.246 406.294 396.241 406.294 396.217V396.185L406.426 380.977C406.426 381.011 406.426 381.045 406.426 381.08C406.426 381.116 406.426 381.164 406.426 381.206C406.426 381.249 406.426 381.267 406.437 381.299L406.451 381.418C406.451 381.454 406.464 381.487 406.473 381.523C406.482 381.559 406.473 381.582 406.489 381.611C406.505 381.64 406.509 381.683 406.521 381.719C406.527 381.747 406.535 381.775 406.545 381.802C406.545 381.816 406.545 381.829 406.561 381.845C406.597 381.95 406.64 382.053 406.689 382.153C406.739 382.25 406.795 382.343 406.858 382.432L406.887 382.477C406.951 382.566 407.02 382.652 407.093 382.733L407.156 382.801L407.228 382.875L407.316 382.956L407.397 383.026L407.475 383.091C407.523 383.127 407.57 383.165 407.622 383.201L407.698 383.257L407.873 383.37L407.943 383.412C407.997 383.444 408.051 383.475 408.109 383.505L408.185 383.547C408.269 383.59 408.354 383.631 408.446 383.671C408.619 383.745 408.797 383.81 408.981 383.869L409.17 383.921C409.295 383.957 409.419 383.995 409.549 384.024L409.653 384.047C409.799 384.08 409.947 384.11 410.102 384.136L410.284 384.166C410.423 384.188 410.563 384.208 410.706 384.226L410.848 384.244C411.032 384.267 411.221 384.285 411.41 384.298C411.529 384.298 411.65 384.314 411.769 384.323L412.073 384.341L412.446 384.357H412.744L413.459 384.373H413.479H414.324H414.863H415.131H415.58H415.697H415.895L416.243 384.386L416.564 384.404L416.899 384.427H417.011C417.135 384.427 417.258 384.449 417.38 384.46H417.456C417.616 384.476 417.773 384.496 417.93 384.519H417.984C418.209 384.553 418.447 384.593 418.658 384.642H418.678H418.701H418.732L418.78 384.656H418.818L418.883 384.676L418.93 384.692L419.011 384.717L419.063 384.732L419.157 384.764L419.215 384.784L419.321 384.818L419.382 384.84L419.499 384.881L419.564 384.903L419.683 384.944L419.761 384.971L419.874 385.011L419.966 385.045L420.076 385.085L420.175 385.121L420.287 385.164L420.388 385.202L420.503 385.247L420.604 385.286L420.716 385.331L420.818 385.371L420.93 385.416L421.029 385.456L421.148 385.506L421.235 385.542L421.433 385.63L421.705 385.756L421.57 400.964L421.298 400.838L421.101 400.752L421.035 400.725L420.894 400.667L420.813 400.633L420.683 400.579L420.593 400.543L420.469 400.496L420.375 400.458L420.254 400.413L420.155 400.375L420.042 400.332L419.946 400.296L419.831 400.255L419.739 400.222L419.631 400.181L419.53 400.147L419.438 400.116L419.341 400.082L419.254 400.051L419.171 400.024L419.087 399.994L419.011 399.97L418.935 399.945L418.867 399.923L418.802 399.902L418.741 399.884L418.69 399.869L418.643 399.855L418.598 399.842H418.566H418.523C418.299 399.792 418.074 399.754 417.849 399.718C417.676 399.691 417.501 399.668 417.324 399.648H417.234C417.079 399.632 416.921 399.617 416.764 399.605L416.434 399.585L416.108 399.567C415.996 399.567 415.883 399.567 415.767 399.554H415.443H414.994H414.715H414.182H413.484H413.311C413.072 399.554 412.837 399.549 412.603 399.54H412.569H412.277L411.929 399.527C411.823 399.527 411.72 399.513 411.614 399.506L411.268 399.484H411.23C411.05 399.468 410.875 399.453 410.7 399.432L410.569 399.414C410.482 399.414 410.392 399.394 410.304 399.381C410.248 399.381 410.194 399.363 410.138 399.354L409.958 399.324C409.81 399.297 409.662 399.268 409.509 399.234L409.403 399.212H409.374C409.253 399.183 409.149 399.147 409.021 399.113C408.958 399.095 408.896 399.081 408.837 399.061C408.653 399.003 408.473 398.938 408.3 398.866C408.21 398.825 408.125 398.782 408.039 398.74L407.954 398.695L407.799 398.607H407.779L407.725 398.571L407.556 398.463L407.473 398.405L407.332 398.297L407.284 398.261C407.274 398.25 407.263 398.24 407.251 398.231L407.172 398.162L407.084 398.079L407.013 398.007L406.968 397.959L406.95 397.937C406.876 397.856 406.807 397.77 406.743 397.681L406.729 397.665C406.723 397.656 406.718 397.647 406.714 397.638C406.652 397.548 406.596 397.455 406.545 397.359C406.497 397.261 406.454 397.161 406.417 397.058C406.417 397.058 406.417 397.04 406.417 397.031V397.01C406.417 396.983 406.401 396.956 406.395 396.929C406.388 396.902 406.352 396.858 406.343 396.819Z" fill="#204D7F"/>
<path d="M400.616 400.105L400.481 415.313L465.825 442.83L465.958 427.622L400.616 400.105Z" fill="#204D80"/>
<path d="M465.958 427.622L465.826 442.83L516.799 408.407L516.931 393.199L465.958 427.622Z" fill="#0E2754"/>
<path d="M516.931 393.199L489.899 381.814C489.142 382.275 488.434 382.813 487.787 383.419C486.524 385.083 488.153 387.357 486.034 388.787C483.423 390.55 477.004 390.163 471.692 387.928L471.243 387.737C466.255 385.508 464.255 382.398 466.79 380.687C468.412 379.592 471.209 379.662 473.483 379.241C474.63 379.048 475.751 378.722 476.822 378.267C477.466 377.928 478.077 377.53 478.646 377.078L451.589 365.67L430.469 379.929C430.033 379.781 429.57 379.587 429.163 379.41C428.685 379.196 428.309 379.007 428.21 378.946C427.466 378.486 426.828 377.873 426.339 377.147C425.534 375.951 425.615 374.494 423.643 373.615C420.196 372.16 414.127 373.289 409.981 376.088C405.885 378.856 405.207 382.221 408.427 383.658C411.253 384.849 415.507 384.011 418.65 384.703C419.594 384.986 420.521 385.326 421.425 385.72L421.697 385.846L400.607 400.102L465.949 427.62L516.931 393.199Z" fill="#0A3D76"/>
<path d="M402 6H428.492" stroke="#EBF2F9" stroke-width="10.45" stroke-miterlimit="10"/>
<path d="M432.437 6H445.686" stroke="#EBF2F9" stroke-width="10.45" stroke-miterlimit="10"/>
<path d="M87.687 14.0042H61.1953" stroke="#EBF2F9" stroke-width="11.28" stroke-miterlimit="10"/>
<path d="M57.2459 14.0042H44" stroke="#EBF2F9" stroke-width="11.28" stroke-miterlimit="10"/>
<path d="M23.475 330.909C23.475 332.639 22.9624 334.33 22.002 335.768C21.0416 337.206 19.6766 338.327 18.0797 338.988C16.4827 339.65 14.7256 339.823 13.0305 339.485C11.3354 339.147 9.77855 338.313 8.55685 337.09C7.33515 335.866 6.50349 334.308 6.16709 332.611C5.83069 330.914 6.00467 329.156 6.66699 327.558C7.32931 325.96 8.45022 324.595 9.88795 323.635C11.3257 322.675 13.0156 322.163 14.744 322.164C17.0602 322.166 19.2809 323.088 20.9181 324.728C22.5553 326.368 23.475 328.591 23.475 330.909V330.909Z" stroke="#EBF2F9" stroke-width="10.45" stroke-miterlimit="10"/>
<path d="M144.59 165.34C144.599 169.162 143.474 172.901 141.358 176.082C139.243 179.264 136.231 181.746 132.706 183.214C129.18 184.682 125.298 185.069 121.552 184.328C117.806 183.586 114.364 181.749 111.662 179.049C108.959 176.348 107.119 172.906 106.372 169.158C105.626 165.41 106.007 161.525 107.469 157.994C108.93 154.463 111.405 151.445 114.581 149.323C117.757 147.201 121.491 146.07 125.309 146.073C130.418 146.073 135.318 148.102 138.933 151.714C142.548 155.327 144.582 160.228 144.59 165.34Z" stroke="#EBF2F9" stroke-width="10.45" stroke-miterlimit="10"/>
<path d="M591 319.131C591.006 321.903 590.19 324.615 588.655 326.923C587.12 329.231 584.935 331.031 582.377 332.096C579.819 333.16 577.002 333.442 574.284 332.904C571.566 332.366 569.069 331.033 567.108 329.075C565.147 327.116 563.812 324.619 563.27 321.901C562.728 319.182 563.005 316.363 564.066 313.802C565.126 311.241 566.922 309.052 569.226 307.513C571.531 305.974 574.24 305.153 577.01 305.155C580.717 305.155 584.272 306.627 586.895 309.248C589.518 311.868 590.994 315.423 591 319.131Z" stroke="#EBF2F9" stroke-width="6" stroke-miterlimit="10"/>
<defs>
<filter id="filter0_f" x="360.246" y="469.649" width="134.484" height="75.3515" filterUnits="userSpaceOnUse" color-interpolation-filters="sRGB">
<feFlood flood-opacity="0" result="BackgroundImageFix"/>
<feBlend mode="normal" in="SourceGraphic" in2="BackgroundImageFix" result="shape"/>
<feGaussianBlur stdDeviation="2" result="effect1_foregroundBlur"/>
</filter>
<filter id="filter1_f" x="159.986" y="449.404" width="134.484" height="75.3537" filterUnits="userSpaceOnUse" color-interpolation-filters="sRGB">
<feFlood flood-opacity="0" result="BackgroundImageFix"/>
<feBlend mode="normal" in="SourceGraphic" in2="BackgroundImageFix" result="shape"/>
<feGaussianBlur stdDeviation="2" result="effect1_foregroundBlur"/>
</filter>
<filter id="filter2_f" x="219.679" y="358.784" width="124.052" height="69.8016" filterUnits="userSpaceOnUse" color-interpolation-filters="sRGB">
<feFlood flood-opacity="0" result="BackgroundImageFix"/>
<feBlend mode="normal" in="SourceGraphic" in2="BackgroundImageFix" result="shape"/>
<feGaussianBlur stdDeviation="2" result="effect1_foregroundBlur"/>
</filter>
<filter id="filter3_f" x="387.205" y="375.173" width="133.305" height="74.7263" filterUnits="userSpaceOnUse" color-interpolation-filters="sRGB">
<feFlood flood-opacity="0" result="BackgroundImageFix"/>
<feBlend mode="normal" in="SourceGraphic" in2="BackgroundImageFix" result="shape"/>
<feGaussianBlur stdDeviation="2" result="effect1_foregroundBlur"/>
</filter>
<linearGradient id="paint0_linear" x1="282.364" y1="472.9" x2="176.13" y2="468.617" gradientUnits="userSpaceOnUse">
<stop stop-color="#A62E41"/>
<stop offset="1" stop-color="#E13152"/>
</linearGradient>
</defs>
</svg>
