<svg width="602" height="551" fill="none" xmlns="http://www.w3.org/2000/svg"><g filter="url(#filter0_d)"><g filter="url(#filter1_f)"><path d="M368.246 505.552l29.392-12.368a14.025 14.025 0 012.298 1.745c1.375 1.799-.397 4.273 1.906 5.847 2.84 1.916 9.821 1.495 15.595-.936.162-.067.322-.137.477-.207 5.426-2.421 7.603-5.804 4.844-7.665-1.764-1.19-4.802-1.125-7.278-1.575a16.256 16.256 0 01-3.633-1.059 12.796 12.796 0 01-1.979-1.293l29.434-12.392 55.428 37.43L423.679 543l-22.932-15.487.286-.13c.986-.43 1.997-.8 3.026-1.111 3.42-.751 8.046.162 11.01-1.082 3.62-1.614 2.881-5.273-1.573-8.284-4.494-3.043-11.106-4.273-14.742-2.737-2.258 1.008-2.17 2.593-3.044 3.89a6.726 6.726 0 01-2.022 1.946c-.108.065-.522.274-1.045.506a16.92 16.92 0 01-1.411.562l-22.986-15.521z" fill="#C2C2C2"/></g><path d="M429.48 484.227c0-.675-.35-1.266-1.069-1.752a6.102 6.102 0 00-.362-.225l-.121-.058a5.018 5.018 0 00-.279-.124l-.07-.032-.063-.022a6.606 6.606 0 00-.975-.29l-.058-.014-.072-.013a9.857 9.857 0 00-.62-.119h-.07a30.328 30.328 0 00-.66-.097h-.07c-.225-.032-.47-.059-.706-.086h-.04l-.573-.065-.674-.081-.124-.015c-.224-.03-.433-.061-.645-.095l-.33-.056c-.225-.041-.449-.088-.674-.135l-.119-.027a12.78 12.78 0 01-.485-.115h-.014c-.162-.04-.321-.085-.481-.13l-.15-.047a9.86 9.86 0 01-.328-.102l-.158-.054-.325-.119c-.041-.015-.083-.029-.124-.047a8.494 8.494 0 01-.398-.169 11.226 11.226 0 01-1.772-1.155l.128 14.801c.555.439 1.149.827 1.775 1.158.128.058.26.112.397.168l.03.012.092.033c.108.041.224.081.33.12l.153.051.337.106.092.029.047.014a17.053 17.053 0 00.982.249l.047.012.068.013c.224.05.449.097.674.137l.276.05h.054c.211.033.427.065.643.094l.13.016c.225.029.436.054.658.081l.434.049.175.021c.241.027.479.054.715.085h.056c.225.029.449.061.674.097h.072c.211.033.416.074.62.119l.13.027a6.872 6.872 0 01.984.292l.133.052.279.126.119.058c.126.068.247.138.361.225.722.486 1.065 1.089 1.072 1.752l-.128-14.803z" fill="#8A4E5C"/><path d="M408.054 516.822c.05-.014.101-.025.151-.034l.206-.045.171-.031.144-.025.11 12.404 20.523 13.859-.132-14.801-16.998-11.469c.247.029.499.063.75.106l.173.029.281.052.202.04.27.057.189.042c.146.032.292.068.449.104l.124.031c.182.047.364.099.546.151l.105.031c.25.077.501.155.751.239l.038.013c.247.086.494.178.739.272l.061.025c.281.11.562.225.838.353l.04.018c.279.126.555.261.827.4l.027.014c.274.144.546.292.809.45h.014c.267.159.53.323.784.494 2.265 1.532 3.458 3.247 3.469 4.723l-.137-14.806c-.014-1.464-1.207-3.18-3.471-4.722a14.87 14.87 0 00-.785-.495h-.013a21.623 21.623 0 00-.809-.45l-.029-.013c-.27-.14-.544-.275-.825-.401l-.04-.018a20.59 20.59 0 00-.838-.353h-.016l-.043-.015a23.22 23.22 0 00-.748-.277h-.029a17.411 17.411 0 00-.757-.241l-.059-.02h-.038a18.978 18.978 0 00-.553-.153l-.112-.029c-.15-.039-.3-.075-.45-.108l-.083-.02-.094-.02-.281-.059-.195-.038-.286-.052-.137-.024h-.033a14.93 14.93 0 00-.76-.108h-.103a17.598 17.598 0 00-.652-.061h-.054a.397.397 0 01-.069 0 14.605 14.605 0 00-1.176-.023h-.128c-.186 0-.37.016-.548.032h-.036c-.189.016-.371.036-.553.061a.561.561 0 01-.058 0h-.04l-.225.036-.155.027-.225.049-.119.025h-.018a7.182 7.182 0 00-.465.13l-.103.034a9.519 9.519 0 00-.45.164c-.146.059-.224.106-.321.157l-.088.052-.108.059-.085.056-.108.07a2.415 2.415 0 00-.159.117l-.09.067-.032.025c-.06.051-.119.103-.173.155l-.02.02-.126.128-.033.041-.059.067a2.115 2.115 0 00-.11.14l-.049.065-.025.034c-.018.024-.032.049-.047.074-.016.025-.061.09-.088.137-.027.047-.043.07-.063.106l-.074.135a.423.423 0 01-.025.047c0 .018-.015.036-.024.052-.041.078-.077.159-.115.238 0 .018-.016.036-.022.052-.048.108-.095.213-.14.319-.045.106-.069.164-.105.245l-.041.092c-.045.099-.09.196-.137.29a3.095 3.095 0 01-.083.151c-.029.049-.025.049-.038.072a7.038 7.038 0 01-.135.225c-.049.079-.063.088-.094.132l-.149.198-.065.084a3.144 3.144 0 01-.224.249l-.018.02a5.097 5.097 0 01-.252.259l-.079.072a4.96 4.96 0 01-.2.178c-.031.029-.067.056-.103.085-.036.029-.139.11-.211.164-.034.025-.065.052-.101.077-.108.076-.225.15-.333.225l-.038.02h-.016l-.045.025-.027.013-.056.029-.038.021-.061.029-.054.027-.058.029-.072.034-.067.031-.077.036-.105.05-.05.024-.171.077c-.386.173-.84.36-1.262.501l-20.546-13.874.128 14.801 20.548 13.874c.422-.141.876-.328 1.263-.501l.319-.146.132-.063.095-.047.036-.018.069-.034.045-.023.052-.027.043-.02.036-.02.038-.02.024-.014.023-.013c.117-.072.225-.147.337-.225l.097-.072.224-.167.054-.042.047-.043a7.03 7.03 0 00.198-.175l.081-.077c.088-.083.171-.169.252-.254l.018-.02c.074-.081.146-.164.224-.248l.068-.085.143-.193c.012-.016.027-.034.039-.052l.058-.083c.047-.072.092-.144.135-.225.016-.027.029-.054.043-.081.013-.027.049-.088.072-.133.049-.097.094-.193.139-.292l.04-.09c.034-.081.07-.162.106-.243.036-.081.092-.225.139-.326a.228.228 0 00.02-.045c.039-.081.077-.164.117-.245a2.17 2.17 0 01.05-.095l.076-.139.058-.103c.03-.048.059-.093.09-.138.022-.037.046-.073.072-.108l.05-.067a2.64 2.64 0 01.168-.205c.05-.056.101-.112.157-.166l.023-.023a2.64 2.64 0 01.204-.177l.088-.07c.052-.038.106-.079.162-.117l.108-.07c.06-.038.126-.078.193-.116l.088-.048c.101-.054.206-.108.321-.159.114-.052.292-.113.449-.165l.104-.033a1.63 1.63 0 01.469-.171z" fill="#9A5364"/><path d="M492.813 501.371l.13 14.801-63.584 26.778-.133-14.801 63.587-26.778z" fill="#DD6A85"/><path d="M379.627 494.649l26.304-11.079c.738.453 1.428.981 2.058 1.574 1.23 1.621-.357 3.823 1.706 5.226 2.541 1.714 8.787 1.349 13.955-.839.146-.06.288-.121.427-.184 4.858-2.168 6.806-5.195 4.337-6.861-1.573-1.066-4.299-.998-6.516-1.408a14.417 14.417 0 01-3.249-.949 11.19 11.19 0 01-1.773-1.155l26.336-11.091 49.604 33.506-63.587 26.778-20.521-13.859.254-.117a24.409 24.409 0 012.71-.994c3.06-.675 7.19.144 9.844-.969 3.24-1.446 2.579-4.723-1.409-7.421-4.031-2.723-9.938-3.823-13.194-2.449-2.022.9-1.941 2.319-2.723 3.481a6.01 6.01 0 01-1.82 1.741c-.097.058-.467.245-.935.449-.386.174-.84.36-1.262.502l-20.546-13.882z" fill="#F985A0"/><g filter="url(#filter2_f)"><path d="M277.928 509.155c-1.763-1.192-4.806-1.124-7.277-1.574a16.237 16.237 0 01-3.633-1.064c-.7-.367-1.364-.8-1.982-1.293l29.434-12.392-22.918-15.485c.092-.045.193-.092.296-.137a26.747 26.747 0 013.016-1.107c3.417-.751 8.041.16 11.117-1.124 3.501-1.561 2.764-5.222-1.694-8.228-4.494-3.045-11.106-4.273-14.852-2.699-2.146.961-2.06 2.544-2.934 3.841a6.664 6.664 0 01-2.022 1.945c-.108.068-.522.275-1.045.509a16.92 16.92 0 01-1.411.562l-22.979-15.505-71.058 29.924 55.426 37.43 29.396-12.368a14.129 14.129 0 012.297 1.747c1.375 1.799-.398 4.272 1.905 5.847 2.84 1.915 9.821 1.497 15.596-.936.164-.067.323-.137.48-.207 5.424-2.453 7.599-5.826 4.842-7.686z" fill="#C9C9C9"/></g><path d="M272.299 463.291h-.016c-.917.277-1.817.607-2.696.987l-.263.124.131 14.801.262-.124a25.149 25.149 0 012.685-.985h.016c.225-.051.47-.094.715-.13.29-.041.588-.074.898-.099l-.128-14.801c-.305.024-.604.058-.898.099a8.457 8.457 0 00-.706.128z" fill="#613345"/><path d="M289.988 493.064l-.13-14.803-26.338 11.092.108 12.317c-3.058.366-5.806.078-7.289-.922-.986-.675-1.137-1.52-1.162-2.406v-.733c0-.729-.056-1.453-.537-2.085a12.75 12.75 0 00-2.053-1.574l-26.309 11.079.13 14.801 26.307-11.079c.736.45 1.425.974 2.056 1.563.429.567.514 1.205.532 1.857v.733c0 .967.097 1.912 1.166 2.634 2.542 1.715 8.788 1.349 13.958-.837l.429-.187c3.438-1.533 5.417-3.499 5.393-5.106-.032-3.513-.062-7.025-.092-10.536l13.831-5.808z" fill="#8E2838"/><path d="M284.354 459.345l.13 14.801c-2.529 3.37-8.827 4.891-12.053 3.946-.917.277-1.817.607-2.696.989l-.263.124-.13-14.801.263-.124a24.563 24.563 0 012.696-.989c3.061-2.178 9.312-11.69 12.053-3.946z" fill="#551821"/><path d="M226.271 505.041l-49.604-33.5.13 14.801 49.604 33.5-.13-14.801z" fill="#641A26"/><path d="M275.058 492.866c-1.573-1.066-4.299-.998-6.516-1.408a14.517 14.517 0 01-3.252-.946 11.637 11.637 0 01-1.775-1.159l26.338-11.092-20.52-13.857.262-.124a24.579 24.579 0 012.697-.989c3.058-.675 7.19.144 9.949-1.017 3.146-1.398 2.472-4.672-1.514-7.364-4.034-2.726-9.941-3.823-13.293-2.409-1.921.859-1.845 2.276-2.627 3.439a5.96 5.96 0 01-1.82 1.74c-.096.059-.467.245-.934.45-.387.173-.841.36-1.263.504l-20.546-13.877-63.587 26.78 49.605 33.506 26.309-11.08c.736.454 1.424.982 2.053 1.574 1.229 1.62-.357 3.823 1.706 5.224 2.541 1.716 8.787 1.35 13.957-.836.147-.061.29-.124.43-.187 4.864-2.181 6.81-5.206 4.341-6.872z" fill="url(#paint0_linear)"/><g filter="url(#filter3_f)"><path d="M227.679 392.241l65.193-27.457 50.859 34.347-27.003 11.37c.567.453 1.176.85 1.82 1.187 1.068.454 2.187.78 3.332.972 2.271.42 5.06.35 6.677 1.443 2.53 1.709.537 4.812-4.442 7.034-.143.063-.29.128-.449.191-5.298 2.231-11.706 2.616-14.308.857-2.115-1.428-.49-3.695-1.753-5.354a12.773 12.773 0 00-2.107-1.603l-26.963 11.358-21.042-14.21c.085-.04.175-.083.269-.123a25.207 25.207 0 012.769-1.017c3.145-.69 7.383.149 10.093-.994 3.323-1.479 2.646-4.837-1.443-7.598-4.134-2.793-10.19-3.918-13.528-2.512-2.072.922-1.989 2.377-2.793 3.569a6.126 6.126 0 01-1.865 1.783 12.26 12.26 0 01-.951.463c-.4.178-.869.371-1.305.52l-21.06-14.226z" fill="#C9C9C9"/></g><path d="M263.779 400.767l.134-.03.209-.045c.05-.011.101-.018.151-.027l.148-.024.104 11.803 19.532 13.191-.124-14.086-16.177-10.926c.238.027.478.06.719.099l.157.029.276.049.184.036.27.056.169.039.424.101.113.029c.175.045.348.095.523.144l.092.029c.243.072.483.146.722.225h.026c.241.083.479.171.717.263l.052.021c.27.105.535.224.8.337l.036.016c.267.121.53.249.788.382l.025.013c.261.135.519.277.769.425h.015c.254.151.504.308.746.47 2.155 1.457 3.29 3.092 3.303 4.484l-.126-14.086c-.011-1.394-1.146-3.027-3.3-4.484a15.404 15.404 0 00-.746-.472h-.016c-.249-.148-.508-.29-.768-.427l-.027-.014a21.042 21.042 0 00-.785-.38l-.04-.018c-.263-.117-.528-.225-.795-.335h-.016l-.045-.015a13.269 13.269 0 00-.706-.261l-.033-.012a15.08 15.08 0 00-.713-.224l-.062-.018h-.041a13.284 13.284 0 00-.519-.144l-.115-.03a13.55 13.55 0 00-.42-.101l-.083-.02-.094-.02-.256-.054-.196-.038-.26-.048-.138-.024h-.036a20.102 20.102 0 00-.714-.102h-.108a22.72 22.72 0 00-.616-.056h-.114c-.191 0-.382-.02-.571-.025h-.672c-.175 0-.346.016-.514.03h-.054c-.178.015-.348.036-.517.058h-.097l-.199.034-.162.029c-.065 0-.131.027-.193.041l-.133.029h-.018c-.151.036-.297.079-.449.123l-.099.032a6.662 6.662 0 00-.42.155c-.135.056-.209.099-.306.151l-.083.047-.104.056-.08.054-.104.068c-.051.036-.103.072-.153.11l-.085.065-.029.023a2.353 2.353 0 00-.164.148l-.02.02a1.947 1.947 0 00-.119.122l-.034.038-.054.063a3.431 3.431 0 00-.106.133l-.045.06-.024.034-.045.07-.086.13-.056.099-.072.135-.024.04-.021.048c-.04.078-.076.157-.112.236l-.02.04c-.047.108-.095.225-.14.324a6.33 6.33 0 01-.092.209l-.04.095a5.86 5.86 0 01-.207.413c-.027.045-.025.05-.04.075a3.676 3.676 0 01-.128.209c-.045.069-.063.087-.095.13-.031.043-.09.124-.137.185l-.063.081c-.065.08-.135.159-.206.24l-.014.014a5.028 5.028 0 01-.24.245l-.074.069a4.469 4.469 0 01-.191.171l-.095.079-.204.16-.095.069a6.685 6.685 0 01-.316.212l-.021.011-.033.018-.021.011-.049.025-.031.018-.057.029-.04.02-.065.032-.054.027-.07.034-.083.038-.052.025-.096.045-.054.024-.157.072c-.371.164-.807.344-1.212.482l-19.548-13.205.124 14.086 19.548 13.205c.404-.135.84-.315 1.211-.482l.16-.072h.027l.121-.058.047-.02.088-.043.056-.027.067-.034.043-.02.065-.034.034-.015.056-.03.025-.013.042-.023h.018l.027-.015c.11-.068.225-.138.317-.212l.099-.072.2-.155.049-.076.048-.043c.063-.054.125-.108.184-.164l.081-.075c.083-.078.162-.159.238-.242l.013-.016c.072-.079.14-.16.205-.238l.063-.079.139-.187.034-.045.058-.085c.045-.068.088-.137.128-.207l.054-.099c.02-.036.041-.07.059-.106.047-.092.092-.186.132-.281a.563.563 0 00.036-.079l.108-.251.126-.291a.86.86 0 00.025-.053l.107-.225.048-.09a2.8 2.8 0 01.13-.232 1.84 1.84 0 01.083-.133l.067-.101a.768.768 0 01.05-.063c.031-.045.067-.087.103-.13a3.697 3.697 0 01.207-.225l.02-.02c.061-.059.126-.115.196-.171l.083-.065c.049-.036.099-.075.153-.111l.103-.067c.058-.036.119-.074.184-.11l.083-.047c.097-.05.196-.102.306-.149.11-.047.276-.108.42-.155l.099-.034c.153-.054.299-.087.452-.123z" fill="#3F679B"/><path d="M344.575 400.162l-.124-14.089-25.066 10.545.101 11.725h-.023l-.164.018c-.2.022-.397.042-.595.058h-.059l-.431.032h-.16l-.323.013h-.957c-.205 0-.405-.013-.598-.025h-.047a12.742 12.742 0 01-.537-.049l-.13-.016a13.875 13.875 0 01-.45-.061h-.052a6.166 6.166 0 01-.449-.087l-.115-.025a10.324 10.324 0 01-.404-.104l-.058-.015-.081-.027-.211-.07-.108-.038-.176-.068-.096-.04-.164-.074-.092-.045c-.057-.027-.11-.057-.164-.086l-.075-.04a8.358 8.358 0 01-.224-.137c-.939-.637-1.083-1.451-1.106-2.296v-.675c0-.695-.054-1.385-.512-1.988a11.764 11.764 0 00-1.957-1.489l-25.035 10.54.124 14.086 25.035-10.544c.705.426 1.364.924 1.966 1.486.411.542.492 1.154.51 1.777v.675c0 .924.09 1.823 1.11 2.514.072.047.143.09.224.134l.077.043.159.086.095.042.164.077.096.038.054.023.124.047.105.038.207.067.088.027h.051c.133.041.272.075.412.108l.06.014h.05c.148.034.301.063.449.09h.038c.146.022.299.045.45.063h.125c.176.02.355.036.54.049h.049c.196.014.396.021.598.027h.966l.321-.013h.16l.46-.032h.027c.2-.015.4-.038.603-.06l.157-.018c.177-.021.355-.043.535-.07h.087c.166-.025.333-.05.501-.079l.083-.016.423-.076.189-.038.319-.065c.071-.014.141-.032.211-.048l.301-.067.081-.018.067-.018c.272-.068.544-.137.816-.214l.105-.029c.277-.079.551-.162.825-.25l.083-.029c.281-.092.562-.189.84-.29l.05-.02c.288-.108.575-.225.856-.34l.409-.175c.191-.086.375-.173.555-.259l.182-.092.346-.175.2-.108.305-.169c.063-.036.126-.072.187-.11l.115-.065.184-.115.162-.101c.11-.072.224-.142.321-.225l.103-.07c.137-.096.268-.191.393-.288l.095-.074c.072-.058.148-.117.225-.175l.04-.036c.09-.077.175-.153.261-.225l.114-.104c.119-.112.225-.224.335-.337.09-.097.175-.195.254-.294l.072-.095c.04-.054.085-.108.121-.162l.029-.045c.021-.027.036-.054.054-.081.045-.069.088-.139.126-.207.016-.029.034-.058.047-.087l.029-.047c.036-.075.07-.147.099-.225 0-.014 0-.025.016-.039a1.825 1.825 0 00.085-.245l.014-.049c.021-.074.037-.149.049-.225a.338.338 0 000-.045v-.045c.01-.08.015-.16.016-.241v-.024a6680.04 6680.04 0 00-.088-10.027l13.161-5.478z" fill="#5988C6"/><path d="M236.724 379.667l60.518-25.487 47.209 31.882-25.066 10.556c.527.42 1.093.789 1.69 1.102.991.42 2.029.722 3.091.899 2.108.389 4.699.326 6.2 1.349 2.348 1.588.498 4.466-4.123 6.522-.133.06-.27.119-.409.177-4.919 2.071-10.866 2.429-13.284.796-1.962-1.324-.449-3.429-1.625-4.969a11.657 11.657 0 00-1.957-1.489l-25.034 10.544-19.533-13.186.25-.115c.837-.365 1.695-.68 2.57-.942 2.921-.641 6.853.135 9.37-.924 3.085-1.374 2.456-4.498-1.348-7.055-3.838-2.59-9.46-3.636-12.558-2.332-1.924.857-1.847 2.206-2.593 3.315a5.703 5.703 0 01-1.73 1.655c-.095.056-.45.225-.883.43-.371.164-.807.344-1.211.481l-19.544-13.209z" fill="#71A0DD"/><g filter="url(#filter4_f)"><path d="M520.509 410.816l-29.124-12.265a13.961 13.961 0 00-2.274 1.732c-1.361 1.798.393 4.241-1.887 5.781-2.813 1.9-9.729 1.484-15.452-.927a16.072 16.072 0 01-.474-.204c-5.377-2.4-7.529-5.75-4.797-7.594 1.746-1.181 4.759-1.104 7.208-1.558a15.926 15.926 0 003.595-1.051 12.252 12.252 0 001.964-1.279l-29.145-12.278-22.743 15.359a16.142 16.142 0 01-1.406-.56 10.933 10.933 0 01-1.027-.5 6.642 6.642 0 01-2.022-1.924c-.866-1.289-.78-2.859-2.906-3.808-3.712-1.574-10.25-.35-14.717 2.663-4.413 2.982-5.143 6.609-1.676 8.156 3.047 1.284 7.639.378 11.01 1.124 1.017.307 2.016.672 2.99 1.096l.292.137-22.713 15.345 70.39 29.638 54.914-37.083z" fill="#CBCED0"/></g><path d="M469.696 384.486c0-.675.36-1.3 1.099-1.799a3.62 3.62 0 01.373-.225l.124-.063c.092-.045.186-.088.285-.126l.072-.033.065-.023c.155-.058.315-.115.481-.162.168-.049.341-.092.519-.133l.061-.015.078-.014c.207-.045.416-.085.629-.121h.088c.213-.035.428-.066.647-.095h.088c.224-.031.469-.058.708-.085h.04l.162-.02.478-.054c.225-.025.45-.052.674-.081l.133-.016c.225-.029.436-.061.649-.094l.34-.059c.224-.043.46-.09.689-.139l.128-.03c.167-.036.331-.076.495-.117h.013c.169-.042.331-.087.495-.134l.15-.045.335-.106.164-.056c.11-.039.225-.077.324-.117l.134-.052c.142-.056.281-.115.411-.173a11.667 11.667 0 001.825-1.19l-.135 15.208c-.568.453-1.179.852-1.822 1.19a8.682 8.682 0 01-.413.175l-.032.014-.092.034a6.417 6.417 0 01-.337.121c-.052.02-.106.036-.16.054-.107.038-.224.072-.332.106l-.104.033-.051.014a13.61 13.61 0 01-.49.133h-.02c-.162.04-.324.078-.488.114l-.054.014-.081.015c-.224.052-.449.099-.674.142l-.283.05h-.06c-.212.033-.425.065-.643.092l-.144.018c-.225.029-.427.054-.643.079h-.02l-.449.051-.225.027-.699.083-.085.014c-.219.027-.434.058-.647.094l-.088.014c-.215.036-.427.076-.633.121l-.135.03c-.178.04-.351.083-.519.132a7.65 7.65 0 00-.485.164l-.138.054a5.333 5.333 0 00-.285.129l-.126.06a4.098 4.098 0 00-.37.225c-.74.502-1.092 1.124-1.099 1.799l.105-15.226z" fill="#0B224A"/><path d="M410.343 398.819c0-.027 0-.058-.018-.087a.501.501 0 01-.016-.077v-.027c0-.009 0-.081-.015-.121-.016-.041 0-.061 0-.09v-.232l.132-15.208v.229c0 .043 0 .061.011.093l.014.119c0 .036.013.069.022.105.009.036 0 .059.016.088.016.029.02.072.032.108a.605.605 0 00.024.083c0 .014 0 .027.016.043.036.105.079.208.128.308.05.097.106.19.169.279l.029.045c.064.089.133.175.206.256l.063.068.072.074.088.081.081.07.078.065c.048.036.095.074.147.11l.076.056.175.113.07.042c.054.032.108.063.166.093l.076.042c.084.043.169.084.261.124.173.074.351.139.535.198l.189.052c.125.036.249.074.379.103l.104.023c.146.033.294.063.449.089l.182.03c.139.022.279.042.422.06l.142.018c.184.023.373.041.562.054.119 0 .24.016.359.025l.304.018.373.016h.298l.715.016h2.436l.348.013.321.018.335.023h.112c.124 0 .247.022.369.033h.076c.16.016.317.036.474.059h.054c.225.034.463.074.674.123h.074l.048.014h.038l.065.02.047.016.081.025.052.015.094.032.058.02.106.034.061.022.117.041.065.022.119.041.078.027.113.04.092.034.11.04.099.036.112.043.101.038.115.045.101.039.112.045.102.04.112.045.099.04.119.05.087.036.198.088.272.126-.135 15.208-.272-.126-.197-.086-.066-.027-.141-.058-.081-.034-.13-.054-.09-.036-.124-.047-.094-.038-.121-.045-.099-.038-.113-.043-.096-.036-.115-.041-.092-.033-.108-.041-.101-.034-.092-.031-.097-.034-.087-.031-.083-.027-.084-.03-.076-.024-.076-.025-.068-.022-.065-.021-.061-.018-.051-.015-.047-.014-.045-.013h-.075a12.524 12.524 0 00-1.199-.194h-.09a17.825 17.825 0 00-.47-.043l-.33-.02-.326-.018c-.112 0-.225 0-.341-.013h-2.456c-.239 0-.474-.005-.708-.014h-.326l-.348-.013c-.106 0-.209-.014-.315-.021l-.346-.022h-.038c-.18-.016-.355-.031-.53-.052l-.131-.018c-.087 0-.177-.02-.265-.033-.056 0-.11-.018-.166-.027l-.18-.03a11.886 11.886 0 01-.449-.09l-.106-.022h-.029c-.121-.029-.225-.065-.353-.099-.063-.018-.125-.032-.184-.052a6.435 6.435 0 01-.537-.195c-.09-.041-.175-.084-.261-.126l-.085-.045-.155-.088h-.02l-.054-.036-.169-.108-.083-.058-.141-.108-.048-.036a.235.235 0 00-.033-.03l-.079-.069-.088-.083-.071-.072-.045-.048-.018-.022a2.824 2.824 0 01-.207-.256l-.014-.016a.182.182 0 01-.015-.027 2.836 2.836 0 01-.169-.279 2.955 2.955 0 01-.128-.301v-.048c0-.027-.016-.054-.022-.081-.007-.027-.043-.071-.052-.11z" fill="#204D7F"/><path d="M404.616 402.105l-.135 15.208 65.344 27.517.133-15.208-65.342-27.517z" fill="#204D80"/><path d="M469.958 429.622l-.132 15.208 50.973-34.423.132-15.208-50.973 34.423z" fill="#0E2754"/><path d="M520.931 395.199l-27.032-11.385c-.757.461-1.465.999-2.112 1.605-1.263 1.664.366 3.938-1.753 5.368-2.611 1.763-9.03 1.376-14.342-.859l-.449-.191c-4.988-2.229-6.988-5.339-4.453-7.05 1.622-1.095 4.419-1.025 6.693-1.446a14.833 14.833 0 003.339-.974 11.677 11.677 0 001.824-1.189l-27.057-11.408-21.12 14.259a17.487 17.487 0 01-1.306-.519 12.118 12.118 0 01-.953-.464 6.163 6.163 0 01-1.871-1.799c-.805-1.196-.724-2.653-2.696-3.532-3.447-1.455-9.516-.326-13.662 2.473-4.096 2.768-4.774 6.133-1.554 7.57 2.826 1.191 7.08.353 10.223 1.045a24.7 24.7 0 012.775 1.017l.272.126-21.09 14.256 65.342 27.518 50.982-34.421z" fill="#0A3D76"/><g filter="url(#filter5_d)" stroke="#EBF2F9" stroke-width="10.45" stroke-miterlimit="10"><path d="M406 8h26.492m3.945 0h13.249"/></g><path d="M91.687 16.004H65.195m-3.949 0H48" stroke="#EBF2F9" stroke-width="11.28" stroke-miterlimit="10"/><path d="M27.475 332.909a8.749 8.749 0 01-5.395 8.079 8.728 8.728 0 01-9.523-1.898 8.747 8.747 0 016.187-14.926 8.734 8.734 0 016.174 2.564 8.749 8.749 0 012.557 6.181v0zM148.59 167.34a19.314 19.314 0 01-11.884 17.874 19.284 19.284 0 01-21.044-4.165 19.32 19.32 0 012.919-29.726 19.284 19.284 0 0110.728-3.25 19.275 19.275 0 0113.624 5.641 19.308 19.308 0 015.657 13.626z" stroke="#EBF2F9" stroke-width="10.45" stroke-miterlimit="10"/><path d="M595 321.131a14.004 14.004 0 01-8.623 12.965 13.998 13.998 0 01-19.107-10.195 14.007 14.007 0 0113.74-16.746c3.707 0 7.262 1.472 9.885 4.093a14.001 14.001 0 014.105 9.883z" stroke="#EBF2F9" stroke-width="6" stroke-miterlimit="10"/></g><defs><filter id="filter0_d" x=".775" y="2.775" width="601.225" height="548.225" filterUnits="userSpaceOnUse" color-interpolation-filters="sRGB"><feFlood flood-opacity="0" result="BackgroundImageFix"/><feColorMatrix in="SourceAlpha" values="0 0 0 0 0 0 0 0 0 0 0 0 0 0 0 0 0 0 127 0"/><feOffset dy="4"/><feGaussianBlur stdDeviation="2"/><feColorMatrix values="0 0 0 0 0 0 0 0 0 0 0 0 0 0 0 0 0 0 0.25 0"/><feBlend in2="BackgroundImageFix" result="effect1_dropShadow"/><feBlend in="SourceGraphic" in2="effect1_dropShadow" result="shape"/></filter><filter id="filter1_f" x="364.246" y="471.649" width="134.484" height="75.352" filterUnits="userSpaceOnUse" color-interpolation-filters="sRGB"><feFlood flood-opacity="0" result="BackgroundImageFix"/><feBlend in="SourceGraphic" in2="BackgroundImageFix" result="shape"/><feGaussianBlur stdDeviation="2" result="effect1_foregroundBlur"/></filter><filter id="filter2_f" x="163.986" y="451.404" width="134.484" height="75.354" filterUnits="userSpaceOnUse" color-interpolation-filters="sRGB"><feFlood flood-opacity="0" result="BackgroundImageFix"/><feBlend in="SourceGraphic" in2="BackgroundImageFix" result="shape"/><feGaussianBlur stdDeviation="2" result="effect1_foregroundBlur"/></filter><filter id="filter3_f" x="223.679" y="360.784" width="124.052" height="69.802" filterUnits="userSpaceOnUse" color-interpolation-filters="sRGB"><feFlood flood-opacity="0" result="BackgroundImageFix"/><feBlend in="SourceGraphic" in2="BackgroundImageFix" result="shape"/><feGaussianBlur stdDeviation="2" result="effect1_foregroundBlur"/></filter><filter id="filter4_f" x="391.205" y="377.173" width="133.305" height="74.726" filterUnits="userSpaceOnUse" color-interpolation-filters="sRGB"><feFlood flood-opacity="0" result="BackgroundImageFix"/><feBlend in="SourceGraphic" in2="BackgroundImageFix" result="shape"/><feGaussianBlur stdDeviation="2" result="effect1_foregroundBlur"/></filter><filter id="filter5_d" x="404" y=".775" width="51.686" height="18.45" filterUnits="userSpaceOnUse" color-interpolation-filters="sRGB"><feFlood flood-opacity="0" result="BackgroundImageFix"/><feColorMatrix in="SourceAlpha" values="0 0 0 0 0 0 0 0 0 0 0 0 0 0 0 0 0 0 127 0"/><feOffset dx="2" dy="2"/><feGaussianBlur stdDeviation="2"/><feColorMatrix values="0 0 0 0 0 0 0 0 0 0 0 0 0 0 0 0 0 0 0.15 0"/><feBlend in2="BackgroundImageFix" result="effect1_dropShadow"/><feBlend in="SourceGraphic" in2="effect1_dropShadow" result="shape"/></filter><linearGradient id="paint0_linear" x1="286.364" y1="474.9" x2="180.13" y2="470.617" gradientUnits="userSpaceOnUse"><stop stop-color="#A62E41"/><stop offset="1" stop-color="#E13152"/></linearGradient></defs></svg>