<svg width="802" height="483" fill="none" xmlns="http://www.w3.org/2000/svg"><g filter="url(#filter0_f)"><path d="M388.169 348.208l-142.793 47.913 43.224 66.075 198.366 4.637-36.663-45.595-62.134-73.03z" fill="url(#paint0_linear)"/></g><path d="M420.971 223.013c-28.29 10.562-59.252 11.61-79.501 0 0 0-8.225-38.091 0-60.278 6.175-24.73 29.109-31.648 46.698-28.981 0 0 3.276-3.654 11.563 0 26.257 17.775 23.555 49.46 21.24 89.259z" fill="#412716"/><path d="M416.341 167.275c-10.802 4.024-19.309.099-30.825 0-16.405 0-25.299 5.985-35.94 0-6.481 18.636-14.016 28.304-7.973 59.216 6.043 30.912 4.317 41.112 9.035 56.772 29.051 17.51 41.752 19.203 62.547-.043 0 0-3.404-23.112 7.016-50.16 6.56-27.048 2.053-42.623-1.337-57.323-.615-3.105-1.733-5.836-2.523-8.462z" fill="#3C2415"/><path d="M379.448 172.781c-19.651 0-32.407 67.515-30.447 127.815 24.217 9.203 43.48 13.878 69.102-3.682 2.218-56.949-18.117-124.133-38.655-124.133z" fill="#3B2415"/><path d="M339.716 254.759s9.47-5.949 23.527-10.285c1.382-.426 2.567-1.39 3.047-2.754 2.303-6.536.892-12.366.892-20.264l30.678-2.75s-.875 12.294.691 22.697c.319 2.114 2.082 3.626 4.183 4.017 3.076.572 6.52 1.614 16.073 4.404 5.358 0-37.39 48.579-37.39 48.579l-41.701-43.644z" fill="#FFCFAE"/><path d="M420.985 345.361l14.032 73.784s-24.393 12.409-52.316 12.409a102.28 102.28 0 01-49.752-12.409l12.039-73.784.647-33.079c-9.679-7.281-6.354-27.009-6.354-27.009l-6.332-28.686 19.033-8.099 9.517-4.05 2.831 6.309c8.734 14.001 25.491 14.098 35.934-1.023l3.291-5.286 11.983 4.05 19.702 6.483-7.004 31.56s2.094 18.242-7.251 26.75v32.08z" fill="#E63067"/><path d="M417.85 316.271s-26.938 19.041-65.729 1.152c0 0 36.227 9.753 65.729-1.152z" fill="#C11C57"/><path d="M344.098 286.141s-13.78 40.38-24.426 60.758c0 0 27.694 17.997 43.576 33.813 0 0-3.563 21.687-9.769 13.606 0 0-43.066-25.604-53.416-40.874 0 0 14.087-82.424 32.907-96.857a53.861 53.861 0 0111.128 29.554zm79.773 0s11.506 42.562 22.17 62.94c0 0-13.073 9.271-42.486 33.267l11.439 9.271s39.632-25.596 47.803-38.139c0 0-13.641-82.775-27.556-98.602a63.034 63.034 0 00-11.37 31.263z" fill="#E63067"/><path d="M263.104 383.179s19.835-6.509 59.289 4.623l2.724 8.18-62.013-12.803zm178.422 10.435l59.081-10.84s-22.516-4.521-58.632 4.546m-58.739 39.606c27.256 0 49.352-7.877 49.352-17.593 0-9.717-22.096-17.594-49.352-17.594-27.256 0-49.351 7.877-49.351 17.594 0 9.716 22.095 17.593 49.351 17.593z" fill="#06264A"/><path d="M330.85 405.876l101.608.41a9.857 9.857 0 006.095-2.124 9.807 9.807 0 003.459-5.435l3.268-55.974a13.602 13.602 0 00-3.001-11.189 13.652 13.652 0 00-4.734-3.595 13.7 13.7 0 00-5.817-1.248l-99.134.941c-2.016.018-4.003.48-5.82 1.352a13.684 13.684 0 00-4.688 3.695 13.61 13.61 0 00-2.794 11.29l2.31 55.37a9.806 9.806 0 003.59 4.714 9.85 9.85 0 005.658 1.793z" fill="#EDF5FF" stroke="#71A0DD" stroke-width=".3"/><path d="M408.497 327.108l-75.906.554a13.712 13.712 0 00-10.508 5.046 13.61 13.61 0 00-2.794 11.29l2.743 55.997a9.804 9.804 0 003.59 4.713 9.851 9.851 0 005.658 1.794h25.23l51.987-79.394z" fill="url(#paint1_linear)"/><path d="M382.498 377.326c6.687 0 12.108-4.996 12.108-11.159s-5.421-11.158-12.108-11.158-12.108 4.995-12.108 11.158c0 6.163 5.421 11.159 12.108 11.159z" fill="#61A6FF"/><path d="M324.646 394.963a84.416 84.416 0 00-25.291-8.577c-8.06-1.387-18.733-2.977-29.675-3.907-9.004-.762-11.027 5.278-10.353 12.484 1.164 12.434 10.572 26.846 22.374 30.771 20.115 6.648 58.457 18.608 102.058 28.403 0 0 8.262-13.533 5.059-24.969l-8.212-4.652-55.96-29.553z" fill="#0A3D76"/><path d="M352.171 446.035s-6.632-4.332-9.91-.295c-3.256 4.261-3.32 3.459-6.992 3.681-3.694-.002-16.313-4.365-29.744-8.175-13.408-3.585-25.175 8.763-20.487 18.414 4.688 9.651 31.46 4.168 38.06 4.951 6.6.783 7.789 1.773 13.752.589 5.963-1.184 22.176.661 22.526-4.38.159-4.792-4.613-12.83-7.205-14.785z" fill="#B4D1FA" stroke="#263238" stroke-width=".5" stroke-miterlimit="10" stroke-linecap="round" stroke-linejoin="round"/><path d="M295.884 464.725c1.266-6.966-.807-16.884-2.377-22.415-7.761 3.492-12.109 11.715-8.411 18.187 1.53 2.624 5.681 3.853 10.788 4.228z" fill="#C43B55" stroke="#263238" stroke-width=".5" stroke-miterlimit="10" stroke-linecap="round" stroke-linejoin="round"/><mask id="a" maskUnits="userSpaceOnUse" x="283" y="440" width="77" height="26"><path d="M351.949 445.948s-6.661-3.734-9.882.232c-4.534 4.579-3.261 3.398-6.868 3.617-3.63-.003-15.924-4.481-29.12-8.223-13.104-3.937-25.774 6.998-20.969 18.371 4.368 8.31 31.524 3.605 38.008 4.374 6.485.769 8.12 1.601 13.978.437 5.858-1.163 21.5 1.017 21.843-3.936.156-4.708-4.444-12.951-6.99-14.872z" fill="#B4D1FA" stroke="#263238" stroke-width=".5" stroke-miterlimit="10" stroke-linecap="round" stroke-linejoin="round"/></mask><g mask="url(#a)"><path d="M302.567 465.274c-.989-5.84-2.299-22.302-4.984-25.881m12.808 27.876c-.606-6.417-3.028-23.993-6.344-27.208m14.366 26.85c-.201-6.295-2.544-21.824-5.175-23.724m13.589 20.849c-.561-5.018-3.041-17.263-5.041-19.528m16.005 21.269c-3.693-4.503-7.02-19.742-5.715-20.205m16.058 21.274c-12.57-6.95-9.961-24.808-3.236-25.913" stroke="#0A3D76" stroke-width="4" stroke-linecap="round"/></g><path d="M424.082 447.982s5.19-5.665 8.469-1.628c3.255 4.261 9.255 5.157 12.926 5.379 3.695-.002 16.314-4.365 29.745-8.174 13.408-3.585 25.175 8.762 20.487 18.413-4.688 9.651-31.461 4.169-38.061 4.951-6.6.783-7.788 1.774-13.751.589-5.963-1.184-22.177.662-22.527-4.38-.158-4.791.12-13.195 2.712-15.15z" fill="#B4D1FA" stroke="#000" stroke-width=".5" stroke-miterlimit="10" stroke-linecap="round" stroke-linejoin="round"/><path d="M484.374 466.753c-1.265-6.966.808-16.884 2.377-22.415 7.761 3.492 12.11 11.716 8.411 18.187-1.529 2.624-5.68 3.853-10.788 4.228z" fill="#C43B55" stroke="#263238" stroke-width=".5" stroke-miterlimit="10" stroke-linecap="round" stroke-linejoin="round"/><mask id="b" maskUnits="userSpaceOnUse" x="421" y="442" width="76" height="26"><path d="M423.943 446.227s8.475-2.294 11.696 1.672c4.534 4.58 5.816 3.707 9.423 3.926 3.629-.002 15.924-4.48 29.119-8.223 13.105-3.936 25.775 6.999 20.97 18.371-4.369 8.311-31.525 3.605-38.009 4.374-6.484.769-8.12 1.601-13.978.437-5.858-1.163-21.499 1.017-21.843-3.936-.156-4.707.075-14.701 2.622-16.621z" fill="#B4D1FA" stroke="#263238" stroke-width=".5" stroke-miterlimit="10" stroke-linecap="round" stroke-linejoin="round"/></mask><g mask="url(#b)"><path d="M477.692 467.302c.99-5.84 2.3-22.302 4.985-25.88m-12.808 27.876c.606-6.418 3.028-23.994 6.344-27.208m-14.366 26.85c.2-6.296 2.543-21.825 5.175-23.725m-13.59 20.85c.562-5.019 3.041-17.264 5.042-19.529m-16.005 21.269c3.693-4.502 7.019-19.741 5.715-20.205m-16.059 21.274c12.571-6.95 9.961-24.808 3.237-25.912" stroke="#0A3D76" stroke-width="4" stroke-linecap="round"/></g><path d="M425.778 464.756c-2.108-.744-41.127-12.726-41.127-12.726l-8.954 2.436s-12.158 4.584-21.128 7.375c-5.016-1.001-13.287-5.405-8.858-15.186.597-1.317 1.851-2.234 3.206-2.741 3.491-1.307 10.181-4.099 14.021-6.238 4.389-2.461 11.504-6.655 16.166-8.542 3.514-1.397 4.329-1.926 4.401-2.125l-.271-.116s.322-.025.271.116l37.031 15.877 9.133 2.615c7.888 7.093 7.031 13.569 0 18.724-.833.531-3.017.969-3.891.531z" fill="#FFCFAE"/><path d="M380.453 449.815c.449-.299-1.976.54-15.268 6.295-5.429 2.351-10.044 3.74-13.92 4.52.85.898 3.286 1.113 4.179 1.064 2.067-.383 3.533-.803 3.686-1.356 7.866-2.847 13.891-4.723 23.119-7.825l-1.796-2.698z" fill="#EAAB85"/><path d="M439.855 394.963a84.397 84.397 0 0125.291-8.577c8.059-1.387 18.732-2.977 29.675-3.907 9.071-.762 11.077 5.278 10.403 12.484-1.147 12.434-7.284 28.504-19.087 32.412-20.115 6.665-58.456 18.608-102.058 28.42 0 0-11.549-15.225-8.43-26.627l8.329-4.652 55.877-29.553z" fill="#0A3D76"/><path d="M347.582 444.198c-6.117 5.249-3.058 16.184 6.989 17.496 1.311 0 4.106-.262 4.805-1.312m61.598 3.062c1.042.709 4.805 2.624 8.467 1.204 9.007-6.89 6.385-12.139 2.016-17.388-.291-.291-1.572-2.187-2.62-2.187" stroke="#000" stroke-width=".5"/><g filter="url(#filter1_f)"><path d="M278.518 423.738c-11.855-4.676-17.214-19.033-18.412-25.628 22.004 21.582 51.642 30.574 92.506 43.613l-5.838 3.147c-17.812-4.946-56.401-16.456-68.256-21.132z" fill="#000" fill-opacity=".1"/></g><g filter="url(#filter2_f)"><path d="M502.597 406.653c-20.657 19.333-89.063 37.018-121.245 44.511l3.143 4.047c29.937-7.044 90.26-23.83 102.385-28.326 9.43-3.497 14.669-15.886 15.717-20.232z" fill="#000" fill-opacity=".1"/></g><path d="M415.731 462.132l-25.399-8.27 2.245-.45c16.57 6.381 30.581 9.682 33.202 11.344 1.525.967-6.349-1.609-10.048-2.624z" fill="#DCA17D"/><path d="M396.696 223.186c-17.003 7.732-18.786 4.272-28.444.539v.218c11.695 21.588 23.092 10.653 28.444-.218v-.539z" fill="#EAAB85"/><path d="M353.539 192.699c.835 5.03 2.353 11.022 4.707 16.738 7.065 10.803 12.262 21.115 24.23 21.115 10.961 0 16.674-9.33 23.752-21.115a65.488 65.488 0 004.2-14.774c1.712-10.844-10.297-25.49-10.297-25.49s-1.962-19.149-11.77-14.731c-16.675 12.767-27.45 6.695-33.839 21.563-3.087 7.183-1.48.196-.983 16.694z" fill="#FFCFAE"/><path d="M354.01 192.196c-2.044-4.896-5.377-7.87-7.366-6.651-1.988 1.219-2.08 6.189 0 11.085 2.081 4.896 5.377 7.87 7.366 6.651 1.989-1.22 2.026-6.226 0-11.085z" fill="#FFCFAE"/><path d="M353.312 193.822c-1.253-3.011-3.315-4.84-4.567-4.083-1.252.758-1.289 3.806 0 6.817 1.289 3.012 3.296 4.878 4.567 4.083 1.27-.794 1.27-3.806 0-6.817z" fill="#EAAB85"/><path d="M354.823 196.613c-.607-1.737-2.062-2.624-3.24-1.848a3.797 3.797 0 00-.995 4.397c.626 1.848 2.063 2.642 3.241 1.958a3.702 3.702 0 00.994-4.507zm55.752-8.655c2.363-4.896 5.739-6.549 7.554-3.646 1.815 2.904.564 8.872-1.813 13.789-2.378 4.917-5.741 6.383-6.726 3.972-1.829-2.882-1.365-9.219.985-14.115z" fill="#FFCFAE"/><path d="M412.12 191.718c1.686-2.901 3.729-3.984 4.552-2.421.823 1.562.079 5.193-1.619 8.072-1.698 2.878-3.746 4.002-4.61 2.414-.864-1.588-.036-5.188 1.677-8.065z" fill="#EAAB85"/><path d="M410.575 197.061c.678-1.838 1.848-2.756 2.619-2.011.77.745.821 2.833.156 4.67-.665 1.837-1.85 2.741-2.619 2.012-.768-.73-.827-2.786-.156-4.671z" fill="#FFCFAE"/><path d="M354.522 194.663c-3.388-4.526-7.371-12.855-4.094-27.118l5.565-3.816c0 15.566-5.191 14.769-1.471 30.934zm55.417.491c3.388-4.526 7.371-12.855 4.094-27.118l-14.393-4.264c0 16.695 12.26 16.204 10.299 31.382zm-51.957-13.782c1.53-2.355 7.369-9.243 16.21-4.95.556.271.828.381 1.122 1.431-8.017-2.096-12.11-1.363-17.332 3.519z" fill="#412716"/><path d="M405.441 181.372c-1.53-2.355-7.369-9.243-16.21-4.95-.557.271-.828.381-1.123 1.431 8.018-2.096 12.111-1.363 17.333 3.519z" fill="#412716"/><path d="M386.133 198.362c0-1.7-1.492-8.702-3.683-8.702s-3.996 7.002-3.996 8.702a3.9 3.9 0 001.361 2.196 3.875 3.875 0 004.864 0 3.901 3.901 0 001.362-2.196h.092z" fill="#FFCFAE"/><path d="M378.343 201.538c-.814.821.402 1.234.402 1.234h1.622s1.623 1.643 3.236 0h1.622s1.215-.413.407-1.234" stroke="#EAAB85" stroke-width=".8" stroke-miterlimit="10" stroke-linejoin="round"/><path d="M380.023 187.789s2.108 2.677.145 9.821l-.145-9.821z" fill="#EAAB85"/><path d="M366.406 183.057c1.37-.502 1.815-.34 3.845-.338.926.107 1.834.334 2.701.673 0 0 2.016 2.014 2.257 2.276.423.476.264 1.013-.379 1.099-.643.087-1.352-.109-1.894-.002-4.171.666-5.065.92-7.44-.008a12.862 12.862 0 01-2.697-1.344 10.128 10.128 0 013.607-2.356z" fill="#fff"/><path d="M368.898 183.425c1.322-.008 2.384 1.032 2.372 2.325a2.333 2.333 0 01-.58 1.515c-.81.358-2.785.152-3.671.004a2.264 2.264 0 01-.537-1.489c.012-1.292 1.094-2.346 2.416-2.355z" fill="#28160D" stroke="#1C1105" stroke-width=".2" stroke-miterlimit="10"/><path d="M368.862 187.104c-.756.005-1.363-.59-1.356-1.328.007-.739.625-1.341 1.381-1.346.756-.005 1.363.59 1.356 1.328-.006.739-.625 1.341-1.381 1.346z" fill="#000"/><path opacity=".77" d="M370.223 185.765a.666.666 0 01-.679-.665.69.69 0 01.691-.673.665.665 0 01.679.664.691.691 0 01-.691.674z" fill="#fff"/><path d="M375.385 186.281l-2.397-2.614a1.733 1.733 0 00-.808-.49l-.993-.255a4.836 4.836 0 00-1.554-.136l-2.55.198a3.457 3.457 0 00-1.477.46l-2.64 1.57-.853.046 2.469-2.186a4.098 4.098 0 011.775-.561l2.543-.197a5.331 5.331 0 011.784.162l.986.256c.644.104 1.26.333 1.814.672l2.826 3.183-.925-.108z" fill="#D3A688"/><path opacity=".5" d="M375.633 186.392l-2.397-2.612a2.014 2.014 0 00-.963-.584l-.985-.255a5.192 5.192 0 00-1.716-.15l-2.55.198a3.698 3.698 0 00-1.626.513l-2.599 1.562" stroke="#0A0001" stroke-width=".3" stroke-miterlimit="10"/><path d="M375.293 186.767l-1.06-.002a8.137 8.137 0 00-1.656.163c-1.265.27-3.965.936-6.405.168-.149-.047-1.206-.594-1.348-.667l-1.347-.667" stroke="#472A22" stroke-width=".2" stroke-miterlimit="10"/><path d="M397.032 183.177c-1.35-.542-1.8-.398-3.83-.466-.93.074-1.844.266-2.72.572 0 0-2.069 1.92-2.311 2.17-.442.456-.297.991.344 1.099.641.108 1.355-.061 1.895.064 4.155.802 5.05 1.084 7.443.249a12.841 12.841 0 002.733-1.235 10.376 10.376 0 00-3.554-2.453z" fill="#fff"/><path d="M394.517 183.471c1.324.068 2.387 1.152 2.372 2.422a2.149 2.149 0 01-.652 1.526c-1.404.059-2.16-.005-3.509-.163-.4-.432-.642-1-.635-1.609.014-1.27 1.1-2.244 2.424-2.176z" fill="#28160D" stroke="#1C1105" stroke-width=".2" stroke-miterlimit="10"/><path d="M394.474 187.092c-.757-.038-1.365-.66-1.357-1.387.009-.728.629-1.286 1.387-1.247.757.039 1.364.66 1.356 1.388-.008.727-.628 1.285-1.386 1.246z" fill="#000"/><path opacity=".77" d="M395.849 185.793c-.379-.02-.683-.331-.679-.694.004-.364.315-.643.694-.624.379.019.683.33.678.694-.004.364-.314.643-.693.624z" fill="#fff"/><path d="M387.971 186.039l2.466-2.493c.225-.225.512-.383.828-.455l.992-.217a4.913 4.913 0 011.559-.081l2.552.283c.52.059 1.021.232 1.466.505l2.593 1.638.852.075-2.413-2.24a4.175 4.175 0 00-1.761-.613l-2.546-.283a5.36 5.36 0 00-1.782.099l-.999.218c-.647.08-1.27.284-1.833.599l-2.896 3.04.922-.075z" fill="#D3A688"/><path opacity=".5" d="M387.722 186.144l2.466-2.489a2 2 0 01.978-.541l.993-.218a5.248 5.248 0 011.673-.089l2.546.282a3.766 3.766 0 011.613.561l2.606 1.63" stroke="#0A0001" stroke-width=".3" stroke-miterlimit="10"/><path d="M388.044 186.557l1.06.034a8.5 8.5 0 011.659.215c1.258.306 3.933 1.045 6.394.381.157-.04 1.222-.536 1.365-.603.512-.229 0 0 1.365-.602" stroke="#472A22" stroke-width=".2" stroke-miterlimit="10"/><path d="M390.896 210.434v-.002c.173-.942-.646-1.679-1.544-1.668l-14.75.171c-.895.011-1.682.766-1.482 1.697h0v.002c.413 1.836 1.541 3.48 3.183 4.651 1.641 1.171 3.693 1.797 5.799 1.773 2.106-.024 4.139-.695 5.746-1.903 1.607-1.208 2.689-2.877 3.048-4.721z" fill="#920E08" stroke="#EA908A" stroke-width=".4"/><mask id="c" maskUnits="userSpaceOnUse" x="373" y="208" width="18" height="9"><path d="M389.355 208.964c.802-.01 1.489.643 1.345 1.432-.349 1.792-1.401 3.419-2.972 4.599-1.571 1.181-3.563 1.84-5.629 1.863-2.065.023-4.075-.591-5.68-1.736-1.605-1.145-2.703-2.748-3.104-4.531-.167-.781.491-1.446 1.29-1.456l14.75-.171z" fill="#920E08"/></mask><g mask="url(#c)"><path d="M390.81 208.947c.003.467-.026.988-.11 1.449l-17.385.195a8.016 8.016 0 01-.16-1.439l17.655-.205z" fill="#fff"/></g><path d="M388.561 214.301a8.882 8.882 0 01-2.921 1.881 9.855 9.855 0 01-3.533.693 9.9 9.9 0 01-3.552-.611 8.962 8.962 0 01-2.977-1.812c1.759-1.435 4.06-2.244 6.459-2.272 2.398-.028 4.723.728 6.524 2.121z" fill="#F85C66"/><path d="M528.545 25.595l-19.329-7.26a5.324 5.324 0 00-4.064.144 5.335 5.335 0 00-2.781 2.972l-3.038 8.105a5.347 5.347 0 003.113 6.856l4.674 1.754c1.429 2.922 2.066 5.183 2.838 5.47.771.288 3.041-1.197 5.729-2.254l6.088 2.284c1.32.49 2.781.439 4.063-.144a5.34 5.34 0 002.782-2.97l3.035-8.107a5.34 5.34 0 00-3.11-6.85z" fill="#EBF2F9"/><path d="M522.121 31.97c.813-2.138-.249-4.291-1.926-4.932a3.381 3.381 0 00-3.887 1.081 3.397 3.397 0 00-2.18-3.404c-1.678-.644-3.888.254-4.719 2.395-1.232 3.236 2.312 8.835 3.388 9.691l.063.048c.03.02.062.039.096.054a.54.54 0 00.104.024h.081c1.378.087 7.748-1.724 8.98-4.958z" fill="#FCFCFC"/><path d="M576.344 238.656l-29.665-11.143a8.176 8.176 0 00-6.238.222 8.19 8.19 0 00-4.267 4.562l-4.663 12.438a8.202 8.202 0 004.778 10.523l7.173 2.692c2.194 4.485 3.171 7.954 4.355 8.395 1.184.441 4.668-1.838 8.793-3.46l9.344 3.506a8.175 8.175 0 006.236-.222 8.19 8.19 0 004.269-4.557l4.658-12.443a8.195 8.195 0 00-4.773-10.513z" fill="#EBF2F9"/><path d="M566.481 248.439c1.249-3.281-.381-6.584-2.955-7.568a5.189 5.189 0 00-5.966 1.659 5.222 5.222 0 00-.811-3.165 5.203 5.203 0 00-2.535-2.059c-2.574-.988-5.966.39-7.242 3.676-1.891 4.967 3.548 13.559 5.2 14.874l.096.073c.047.032.096.059.147.083a.965.965 0 00.161.037h.124c2.115.133 11.891-2.647 13.781-7.61z" fill="#FCFCFC"/><path d="M662.341 10.698l-18.41 5.76a5.207 5.207 0 00-2.966 2.418 4.952 4.952 0 00-.472 3.73l2.116 7.587a4.654 4.654 0 002.314 2.858 4.9 4.9 0 003.732.324l4.451-1.394c2.654 1.298 4.356 2.569 5.089 2.337.734-.231 1.629-2.597 3.07-4.891l5.797-1.816a5.21 5.21 0 002.965-2.418 4.953 4.953 0 00.474-3.73l-2.119-7.586a4.646 4.646 0 00-2.312-2.858 4.89 4.89 0 00-3.729-.321z" fill="#EBF2F9"/><path d="M660.982 18.962c-.551-2.012-2.517-2.966-4.122-2.475a3.299 3.299 0 00-1.647 1.135 3.227 3.227 0 00-.681 1.864 2.971 2.971 0 00-1.517-1.193 3.144 3.144 0 00-1.967-.03c-1.607.49-2.776 2.4-2.236 4.424.834 3.046 6.532 5.082 7.804 5.09l.073-.002a.624.624 0 00.101-.015.556.556 0 00.092-.043l.06-.046c1.081-.722 4.873-5.665 4.04-8.709z" fill="#FCFCFC"/><path d="M296.888 223.051l-19.285 5.555a5.458 5.458 0 00-3.152 2.442c-.704 1.181-.921 2.57-.604 3.861l1.963 7.923a4.783 4.783 0 002.314 3.02c1.158.644 2.546.796 3.864.421l4.662-1.344c2.715 1.407 4.442 2.765 5.211 2.542.768-.224 1.77-2.658 3.335-5.006l6.073-1.752a5.464 5.464 0 003.152-2.441c.704-1.181.922-2.568.606-3.86l-1.967-7.923a4.777 4.777 0 00-2.311-3.019c-1.157-.644-2.545-.795-3.861-.419z" fill="#EBF2F9"/><path d="M295.224 231.598c-.512-2.102-2.523-3.139-4.206-2.666a3.459 3.459 0 00-1.744 1.14 3.365 3.365 0 00-.762 1.919 3.06 3.06 0 00-1.539-1.274 3.264 3.264 0 00-2.041-.079c-1.684.471-2.955 2.427-2.456 4.542.774 3.183 6.628 5.431 7.949 5.468h.076a.615.615 0 00.105-.013.645.645 0 00.097-.042l.064-.047c1.144-.725 5.229-5.767 4.457-8.948z" fill="#FCFCFC"/><path d="M101.972 329.807l-35.42-12.152c-2.42-.828-5.05-.803-7.314.069-2.264.871-3.98 2.518-4.77 4.581l-4.799 12.674c-.777 2.068-.566 4.379.59 6.428 1.155 2.05 3.16 3.671 5.575 4.509l8.56 2.943c2.821 4.664 4.207 8.265 5.561 8.768 1.354.504 5.384-1.755 10.136-3.335l11.167 3.741c2.42.827 5.05.803 7.314-.069 2.264-.871 3.979-2.519 4.77-4.582l4.808-12.672c.76-2.066.538-4.368-.619-6.409-1.156-2.04-3.153-3.655-5.559-4.494z" fill="#EBF2F9"/><path d="M68.284 333.738l-3.226 8.599c-.216.578.17 1.244.862 1.488l3.72 1.314c.692.245 1.429-.025 1.645-.602l3.226-8.599c.216-.577-.17-1.243-.862-1.488l-3.72-1.314c-.692-.245-1.429.025-1.645.602zm20.304 7.138l-.22-.031c.483.079.97.013 1.38-.186.41-.2.716-.521.867-.908.15-.388.136-.817-.042-1.216a2.084 2.084 0 00-.931-.969l-6.26-2.124c1.455-.836 2.614-1.99 3.37-3.355.814-2.107-.096-3.742-.948-4.178a1.914 1.914 0 00-1.17-.223 1.537 1.537 0 00-.98.508c-.507.552-.518 1.905-.857 2.282-.539.565-2.227.988-4.922 2.361-1.446.785-2.494 1.998-2.963 3.431l-1.127 2.911-1.136 2.901-.52 1.354a.928.928 0 00-.06.421c.012.144.058.287.133.42.076.133.18.254.308.355.128.102.275.182.435.236l11.63 3.951c.188.07.387.107.586.109a1.61 1.61 0 00.573-.094c.18-.065.339-.16.47-.282.13-.121.23-.266.29-.425.063-.159.085-.329.068-.501a1.212 1.212 0 00-.168-.497 1.471 1.471 0 00-.376-.415 1.702 1.702 0 00-.524-.267l.208.03c.232.091.479.142.727.149a1.99 1.99 0 00.717-.107 1.69 1.69 0 00.589-.345c.164-.15.288-.33.365-.528.076-.198.104-.41.081-.624a1.486 1.486 0 00-.215-.617 1.81 1.81 0 00-.477-.511 2.082 2.082 0 00-.66-.32l.643.217c.23.091.478.142.726.149.249.008.492-.029.717-.107.224-.077.425-.195.589-.345.164-.15.288-.33.365-.528.077-.198.104-.41.081-.624a1.486 1.486 0 00-.215-.617 1.81 1.81 0 00-.477-.511 2.082 2.082 0 00-.66-.32l-.01-.01z" fill="#FCFCFC"/><path d="M282.204 15.45l-19.434 8.26a6.36 6.36 0 00-3.108 2.847c-.664 1.258-.82 2.647-.434 3.865l2.394 7.456c.393 1.214 1.295 2.155 2.509 2.617 1.214.462 2.641.408 3.97-.151l4.699-1.994c2.846.978 4.704 2.037 5.46 1.739.757-.299 1.689-2.85 3.17-5.379l6.095-2.644a6.361 6.361 0 003.108-2.847c.664-1.258.82-2.647.434-3.864l-2.389-7.46a4.152 4.152 0 00-2.515-2.597c-1.211-.458-2.634-.404-3.959.151z" fill="#EBF2F9"/><path d="M269.074 30.128l1.666 5.029c.112.338.513.485.897.329l2.06-.838c.384-.156.604-.556.492-.894l-1.666-5.028c-.112-.338-.513-.485-.897-.33l-2.06.838c-.384.156-.604.556-.492.894zm11.221-4.565l-.103.07c.231-.148.413-.363.515-.607.102-.245.119-.504.046-.733a.886.886 0 00-.446-.525 1.073 1.073 0 00-.732-.078l-3.383 1.434c.319-.924.401-1.878.238-2.772-.397-1.247-1.356-1.629-1.868-1.499-.218.047-.421.17-.571.345a.948.948 0 00-.234.6c-.019.437.452 1.043.442 1.34-.028.456-.591 1.285-1.242 2.92-.333.898-.348 1.836-.042 2.652l.55 1.723.542 1.723.257.8a.532.532 0 00.327.346c.079.03.165.044.254.04a.754.754 0 00.266-.06l6.287-2.661a.974.974 0 00.493-.434.855.855 0 00.099-.304.715.715 0 00-.027-.3.625.625 0 00-.393-.405.757.757 0 00-.305-.042.888.888 0 00-.314.08l.098-.066a1.184 1.184 0 00.623-.529c.067-.12.11-.248.126-.377a.88.88 0 00-.032-.374.765.765 0 00-.493-.501.928.928 0 00-.38-.046 1.1 1.1 0 00-.391.108l.347-.148a1.175 1.175 0 00.623-.53c.067-.119.11-.247.126-.377a.85.85 0 00-.032-.373.765.765 0 00-.492-.501.932.932 0 00-.381-.046c-.133.01-.266.047-.391.108h-.007z" fill="#FCFCFC"/><path d="M119.873 202.53H9.127a9.12 9.12 0 01-6.454-2.677A9.144 9.144 0 010 193.391v-66.253c0-2.423.962-4.748 2.673-6.461A9.12 9.12 0 019.127 118h110.746c2.421 0 4.742.963 6.454 2.677a9.145 9.145 0 012.673 6.461v66.253a9.147 9.147 0 01-2.673 6.462 9.121 9.121 0 01-6.454 2.677zM9.127 118.834a8.244 8.244 0 00-5.821 2.419 8.264 8.264 0 00-2.416 5.828v66.253a8.264 8.264 0 002.416 5.829 8.244 8.244 0 005.821 2.419h110.746a8.242 8.242 0 005.821-2.419 8.265 8.265 0 002.416-5.829v-66.253a8.264 8.264 0 00-2.416-5.828 8.242 8.242 0 00-5.821-2.419H9.127z" fill="#C4C4C4"/><path d="M24.246 180.781a2.187 2.187 0 01-2.027-1.361 2.199 2.199 0 01-.163-.843v-41.248a2.206 2.206 0 012.19-2.205 2.205 2.205 0 012.202 2.205v41.248a2.193 2.193 0 01-2.202 2.204z" fill="#E0E0E0"/><path d="M24.244 180.976a2.187 2.187 0 01-2.027-1.362 2.195 2.195 0 01-.163-.843v-26.592a2.194 2.194 0 013.032-2.03 2.195 2.195 0 011.36 2.03v26.592a2.196 2.196 0 01-1.357 2.04c-.268.11-.555.166-.845.165z" fill="#EBF2F9"/><path d="M22.863 182.701v3.667h-.377v-3.336h-.855v-.331h1.232zm.879 1.827c0-1.142.605-1.862 1.46-1.862.856 0 1.46.697 1.46 1.862s-.615 1.862-1.46 1.862c-.844 0-1.46-.697-1.46-1.862zm2.533 0c0-.982-.434-1.519-1.072-1.519-.64 0-1.084.537-1.084 1.519 0 .982.445 1.519 1.084 1.519.638 0 1.072-.537 1.072-1.519z" fill="#B3B3B3"/><path d="M33.027 180.782a2.195 2.195 0 01-1.557-.646 2.212 2.212 0 01-.645-1.559v-41.248a2.218 2.218 0 012.202-2.205 2.201 2.201 0 012.19 2.205v41.248a2.197 2.197 0 01-1.349 2.037 2.187 2.187 0 01-.84.168z" fill="#E0E0E0"/><path d="M33.027 180.976a2.203 2.203 0 01-2.202-2.205v-34.965a2.218 2.218 0 012.202-2.205 2.201 2.201 0 012.19 2.205v34.965a2.193 2.193 0 01-2.19 2.205z" fill="#EBF2F9"/><path d="M32.503 186.025v.343h-2.567v-.274l1.518-1.497c.422-.399.49-.651.49-.902s-.296-.685-.855-.685a1.25 1.25 0 00-.993.411l-.274-.229a1.641 1.641 0 011.3-.525c.742 0 1.21.377 1.21.982a1.5 1.5 0 01-.593 1.143l-1.244 1.222 2.008.011zm.445-1.497c0-1.142.616-1.862 1.46-1.862.845 0 1.472.697 1.472 1.862s-.616 1.862-1.471 1.862c-.856 0-1.46-.697-1.46-1.862zm2.544 0c0-.982-.444-1.519-1.083-1.519-.64 0-1.073.537-1.073 1.519 0 .982.434 1.519 1.073 1.519s1.083-.537 1.083-1.519z" fill="#B3B3B3"/><path d="M41.802 180.782a2.187 2.187 0 01-2.027-1.362 2.199 2.199 0 01-.164-.843v-41.248a2.206 2.206 0 012.19-2.205 2.205 2.205 0 012.202 2.205v41.248a2.191 2.191 0 01-2.201 2.205z" fill="#E0E0E0"/><path d="M41.802 180.976a2.187 2.187 0 01-2.027-1.361 2.199 2.199 0 01-.164-.843V158.45a2.193 2.193 0 013.033-2.029 2.18 2.18 0 011.192 1.188c.11.266.168.552.168.841v20.31a2.193 2.193 0 01-2.202 2.216z" fill="#EBF2F9"/><path d="M41.227 185.306c0 .617-.445 1.085-1.323 1.085a1.937 1.937 0 01-1.324-.468l.183-.297c.31.286.72.438 1.14.422.605 0 .947-.285.947-.742s-.319-.72-.992-.72h-.263v-.286l1.016-1.267H38.74v-.332h2.35v.263l-1.038 1.302c.787.046 1.175.457 1.175 1.04zm.536-.778c0-1.142.604-1.862 1.46-1.862s1.46.697 1.46 1.862-.616 1.862-1.46 1.862-1.46-.697-1.46-1.862zm2.532 0c0-.982-.445-1.519-1.072-1.519s-1.084.537-1.084 1.519c0 .983.445 1.519 1.084 1.519s1.072-.536 1.072-1.519z" fill="#B3B3B3"/><path d="M50.588 180.782a2.196 2.196 0 01-1.557-.646 2.21 2.21 0 01-.645-1.559v-41.248a2.218 2.218 0 012.202-2.205 2.201 2.201 0 012.19 2.205v41.248a2.199 2.199 0 01-1.35 2.037 2.187 2.187 0 01-.84.168z" fill="#E0E0E0"/><path d="M50.586 180.976a2.203 2.203 0 01-2.202-2.205v-34.965a2.218 2.218 0 012.202-2.205 2.201 2.201 0 012.19 2.205v34.965a2.193 2.193 0 01-2.19 2.205z" fill="#EBF2F9"/><path d="M50.588 185.397h-.742v.971h-.4v-.971h-2.064v-.274l1.94-2.422h.421l-1.87 2.365h1.585v-.845h.365v.845h.765v.331zm.366-.869c0-1.142.605-1.862 1.46-1.862.856 0 1.46.697 1.46 1.862s-.615 1.862-1.46 1.862c-.844 0-1.46-.697-1.46-1.862zm2.533 0c0-.982-.445-1.519-1.073-1.519-.627 0-1.14.537-1.14 1.519 0 .983.444 1.519 1.14 1.519s1.073-.536 1.073-1.519z" fill="#B3B3B3"/><path d="M59.358 180.782a2.187 2.187 0 01-2.026-1.362 2.199 2.199 0 01-.164-.843v-41.248a2.206 2.206 0 012.19-2.205 2.205 2.205 0 012.202 2.205v41.248a2.193 2.193 0 01-2.202 2.205z" fill="#E0E0E0"/><path d="M59.358 180.975a2.187 2.187 0 01-2.027-1.361 2.199 2.199 0 01-.164-.843v-28.318a2.193 2.193 0 013.032-2.029 2.192 2.192 0 011.36 2.029v28.272a2.197 2.197 0 01-1.346 2.082c-.271.113-.562.17-.855.168z" fill="#EBF2F9"/><path d="M59.167 185.283c0 .629-.434 1.143-1.324 1.143-.48.015-.95-.152-1.312-.469l.183-.297a1.53 1.53 0 001.14.423c.628 0 .959-.308.959-.754 0-.445-.297-.754-1.22-.754h-.788l.194-1.839h1.997v.331H57.33l-.126 1.143h.468c1.084-.012 1.495.422 1.495 1.073zm.48-.755c0-1.142.616-1.862 1.46-1.862s1.46.697 1.46 1.862-.616 1.862-1.46 1.862-1.46-.697-1.46-1.862zm2.532 0c0-.982-.433-1.519-1.072-1.519-.64 0-1.141.537-1.141 1.519 0 .983.445 1.519 1.14 1.519.697 0 1.073-.536 1.073-1.519z" fill="#B3B3B3"/><path d="M68.15 180.782a2.196 2.196 0 01-1.557-.646 2.21 2.21 0 01-.645-1.559v-41.248a2.218 2.218 0 012.202-2.205 2.201 2.201 0 012.19 2.205v41.248a2.199 2.199 0 01-1.349 2.037 2.187 2.187 0 01-.84.168z" fill="#E0E0E0"/><path d="M68.149 180.782a2.167 2.167 0 01-2.202-2.01V158.45a2.284 2.284 0 012.202-2.387 2.19 2.19 0 012.19 2.193v20.31a2.192 2.192 0 01-2.19 2.216z" fill="#EBF2F9"/><path d="M67.86 185.271a1.14 1.14 0 01-1.255 1.142c-.97 0-1.506-.674-1.506-1.827 0-1.154.684-1.897 1.677-1.897.3-.012.6.055.867.195l-.148.308a1.253 1.253 0 00-.708-.171c-.799 0-1.3.502-1.3 1.496a2.725 2.725 0 000 .297 1.139 1.139 0 011.14-.628 1.134 1.134 0 011.121.644c.066.138.104.288.112.441zm-.377 0c0-.491-.354-.8-.924-.8a.848.848 0 00-.936.811c0 .4.331.777.97.777a.793.793 0 00.617-.191.808.808 0 00.273-.586v-.011zm.809-.743c0-1.142.605-1.862 1.46-1.862.856 0 1.46.697 1.46 1.862s-.615 1.862-1.46 1.862c-.844 0-1.46-.697-1.46-1.862zm2.533 0c0-.982-.445-1.519-1.073-1.519-.627 0-1.084.537-1.084 1.519 0 .983.445 1.519 1.084 1.519.64 0 1.073-.536 1.073-1.519z" fill="#B3B3B3"/><path d="M76.924 180.782a2.187 2.187 0 01-2.027-1.362 2.199 2.199 0 01-.164-.843v-41.248a2.206 2.206 0 012.19-2.205 2.201 2.201 0 012.191 2.205v41.248a2.199 2.199 0 01-1.35 2.037 2.187 2.187 0 01-.84.168z" fill="#E0E0E0"/><path d="M76.923 180.977a2.187 2.187 0 01-2.027-1.362 2.197 2.197 0 01-.163-.843v-37.056a2.197 2.197 0 011.349-2.037c.267-.11.552-.168.84-.168a2.19 2.19 0 012.19 2.205v37.056a2.199 2.199 0 01-1.348 2.037 2.187 2.187 0 01-.841.168z" fill="#EBF2F9"/><path d="M76.454 182.701v.263l-1.53 3.427h-.376l1.506-3.336h-1.882v.686h-.365v-1.017l2.647-.023zm.373 1.827c0-1.142.605-1.862 1.46-1.862.856 0 1.46.697 1.46 1.862s-.615 1.862-1.46 1.862c-.844 0-1.46-.697-1.46-1.862zm2.533 0c0-.982-.434-1.519-1.073-1.519-.638 0-1.083.537-1.083 1.519 0 .983.445 1.519 1.084 1.519.638 0 1.095-.536 1.095-1.519h-.023z" fill="#B3B3B3"/><path d="M85.705 180.782a2.196 2.196 0 01-1.557-.646 2.214 2.214 0 01-.645-1.559v-41.248a2.218 2.218 0 012.202-2.205 2.201 2.201 0 012.19 2.205v41.248a2.197 2.197 0 01-1.35 2.037 2.187 2.187 0 01-.84.168z" fill="#E0E0E0"/><path d="M85.704 180.977a2.203 2.203 0 01-2.202-2.205v-16.118a2.203 2.203 0 013.043-2.036 2.188 2.188 0 011.35 2.036v16.118a2.199 2.199 0 01-1.35 2.037 2.187 2.187 0 01-.841.168z" fill="#EBF2F9"/><path d="M85.268 185.339c0 .652-.548 1.051-1.427 1.051-.878 0-1.414-.399-1.414-1.051a.926.926 0 01.707-.902.809.809 0 01-.57-.8c0-.605.502-.97 1.278-.97.775 0 1.289.365 1.289.97a.826.826 0 01-.582.8.941.941 0 01.719.902zm-.388 0c0-.456-.388-.742-1.038-.742s-1.027.286-1.027.742c0 .457.376.732 1.026.732s1.039-.275 1.039-.732zm-1.038-1.039c.57 0 .912-.251.912-.651s-.365-.663-.913-.663c-.547 0-.9.252-.9.663 0 .411.33.651.9.651zm1.934.228c0-1.142.616-1.862 1.46-1.862.845 0 1.472.697 1.472 1.862s-.616 1.862-1.471 1.862c-.856 0-1.46-.697-1.46-1.862zm2.544 0c0-.982-.444-1.519-1.083-1.519-.64 0-1.073.537-1.073 1.519 0 .983.434 1.519 1.073 1.519s1.084-.536 1.084-1.519z" fill="#B3B3B3"/><path d="M94.48 180.782a2.187 2.187 0 01-2.026-1.362 2.199 2.199 0 01-.164-.843v-41.248a2.206 2.206 0 012.19-2.205 2.205 2.205 0 012.202 2.205v41.248a2.193 2.193 0 01-2.201 2.205z" fill="#E0E0E0"/><path d="M94.479 180.783a2.156 2.156 0 01-2.19-2.011v-5.711a2.288 2.288 0 011.32-2.178c.274-.127.57-.198.87-.21a2.195 2.195 0 012.202 2.194v5.711a2.198 2.198 0 01-1.358 2.04c-.267.11-.554.166-.844.165z" fill="#EBF2F9"/><path d="M93.831 184.494c0 1.245-.685 1.896-1.677 1.896-.301.013-.6-.054-.867-.194l.148-.308c.214.126.46.185.707.171.8 0 1.301-.502 1.301-1.496a2.725 2.725 0 000-.297 1.144 1.144 0 01-1.14.628 1.144 1.144 0 01-1.148-1.607 1.132 1.132 0 01.687-.626c.152-.05.313-.068.472-.052.98.058 1.517.732 1.517 1.885zm-.525-.719c0-.412-.33-.789-.97-.789a.806.806 0 00-.62.196.79.79 0 00-.27.593c0 .491.354.799.925.799a.835.835 0 00.64-.197.842.842 0 00.295-.602zm1.059.753c0-1.143.616-1.862 1.46-1.862.845 0 1.46.697 1.46 1.862s-.615 1.862-1.46 1.862c-.844 0-1.46-.697-1.46-1.862zm2.533 0c0-.983-.433-1.52-1.072-1.52-.64 0-1.084.537-1.084 1.52 0 .982.445 1.519 1.084 1.519s1.072-.537 1.072-1.519z" fill="#B3B3B3"/><path d="M103.262 180.782a2.193 2.193 0 01-1.557-.646 2.202 2.202 0 01-.644-1.559v-41.248a2.22 2.22 0 01.648-1.556 2.21 2.21 0 011.553-.649 2.201 2.201 0 012.191 2.205v41.248a2.197 2.197 0 01-2.191 2.205z" fill="#E0E0E0"/><path d="M103.265 180.782a2.168 2.168 0 01-2.202-2.01V158.45a2.274 2.274 0 011.329-2.181 2.27 2.27 0 01.873-.206 2.19 2.19 0 012.19 2.193v20.31a2.186 2.186 0 01-.633 1.566 2.194 2.194 0 01-1.557.65z" fill="#EBF2F9"/><path d="M100.115 182.701v3.667h-.377v-3.335h-.867v-.332h1.244zm.879 1.827c0-1.142.605-1.862 1.46-1.862.856 0 1.461.697 1.461 1.862s-.616 1.862-1.461 1.862c-.844 0-1.46-.697-1.46-1.862zm2.533 0c0-.982-.434-1.519-1.073-1.519-.638 0-1.083.537-1.083 1.519 0 .983.445 1.519 1.083 1.519.639 0 1.073-.536 1.073-1.519zm.923 0c0-1.142.616-1.862 1.461-1.862.844 0 1.46.697 1.46 1.862s-.616 1.862-1.46 1.862c-.845 0-1.461-.697-1.461-1.862zm2.533 0c0-.982-.434-1.519-1.072-1.519-.639 0-1.084.537-1.084 1.519 0 .983.445 1.519 1.084 1.519.638 0 1.072-.536 1.072-1.519z" fill="#B3B3B3"/><path d="M42.19 222.758c-.498.715-1.197 1.252-2.094 1.61-.89.351-1.929.527-3.116.527-1.2 0-2.266-.28-3.197-.841-.93-.567-1.653-1.371-2.165-2.411-.506-1.04-.766-2.245-.78-3.616v-1.287c0-2.221.517-3.944 1.549-5.166 1.039-1.222 2.495-1.833 4.37-1.833 1.538 0 2.776.395 3.714 1.185.937.783 1.51 1.897 1.72 3.343h-1.943c-.364-1.952-1.524-2.928-3.48-2.928-1.302 0-2.29.459-2.965 1.378-.667.912-1.005 2.235-1.011 3.971v1.205c0 1.655.377 2.972 1.133 3.951.755.972 1.777 1.459 3.065 1.459.729 0 1.366-.081 1.912-.244a2.953 2.953 0 001.356-.82v-3.313h-3.41v-1.58h5.343v5.41zm3.495-3.647c0-1.074.21-2.04.627-2.897.425-.858 1.012-1.52 1.76-1.986.756-.466 1.616-.699 2.58-.699 1.491 0 2.695.517 3.613 1.55.924 1.033 1.386 2.408 1.386 4.123v.132c0 1.067-.206 2.026-.617 2.877a4.616 4.616 0 01-1.75 1.975c-.756.473-1.626.709-2.611.709-1.484 0-2.688-.517-3.612-1.55-.917-1.033-1.376-2.401-1.376-4.103v-.131zm1.882.223c0 1.215.28 2.191.84 2.927.566.736 1.322 1.104 2.266 1.104.951 0 1.706-.371 2.266-1.114.56-.75.84-1.796.84-3.14 0-1.202-.287-2.175-.86-2.918-.566-.749-1.322-1.124-2.266-1.124-.924 0-1.67.368-2.236 1.104-.567.736-.85 1.79-.85 3.161zm10.971-.223c0-1.074.21-2.04.628-2.897.425-.858 1.011-1.52 1.76-1.986.755-.466 1.615-.699 2.58-.699 1.49 0 2.695.517 3.612 1.55.924 1.033 1.386 2.408 1.386 4.123v.132c0 1.067-.206 2.026-.617 2.877a4.615 4.615 0 01-1.75 1.975c-.756.473-1.626.709-2.61.709-1.485 0-2.689-.517-3.613-1.55-.917-1.033-1.376-2.401-1.376-4.103v-.131zm1.882.223c0 1.215.28 2.191.84 2.927.567.736 1.322 1.104 2.266 1.104.951 0 1.707-.371 2.267-1.114.56-.75.84-1.796.84-3.14 0-1.202-.287-2.175-.86-2.918-.567-.749-1.323-1.124-2.267-1.124-.924 0-1.67.368-2.236 1.104-.567.736-.85 1.79-.85 3.161zm11.022-.213c0-1.709.395-3.066 1.184-4.072.789-1.013 1.834-1.52 3.136-1.52 1.336 0 2.378.473 3.126 1.418l.091-1.215h1.71v10.697c0 1.418-.421 2.536-1.264 3.353-.837.817-1.963 1.226-3.38 1.226a5.62 5.62 0 01-2.316-.507c-.756-.337-1.332-.8-1.73-1.388l.97-1.124c.803.993 1.785 1.489 2.945 1.489.91 0 1.619-.257 2.125-.77.512-.513.769-1.236.769-2.168v-.942c-.75.865-1.771 1.297-3.066 1.297-1.282 0-2.32-.517-3.116-1.55-.79-1.033-1.184-2.441-1.184-4.224zm1.882.213c0 1.235.253 2.208.759 2.917.506.702 1.214 1.054 2.124 1.054 1.18 0 2.047-.537 2.6-1.611v-5.004c-.573-1.047-1.433-1.57-2.58-1.57-.91 0-1.622.354-2.134 1.063-.513.709-.77 1.759-.77 3.151zm13.268 5.358H84.72v-15.559h1.872v15.559zm8.583.203c-1.483 0-2.69-.486-3.621-1.459-.931-.979-1.397-2.286-1.397-3.92v-.344c0-1.088.206-2.057.617-2.908.419-.857.999-1.526 1.74-2.005a4.368 4.368 0 012.429-.73c1.423 0 2.53.47 3.318 1.408.79.939 1.184 2.283 1.184 4.032v.78h-7.416c.027 1.08.34 1.955.94 2.624.608.661 1.377.992 2.308.992.66 0 1.22-.135 1.68-.405.458-.27.86-.628 1.203-1.074l1.143.892c-.917 1.411-2.293 2.117-4.127 2.117zm-.232-9.826c-.756 0-1.39.277-1.902.831-.513.547-.83 1.316-.951 2.309h5.483v-.142c-.054-.952-.31-1.688-.769-2.208-.458-.527-1.079-.79-1.861-.79zm643.545 1.055h-4.367v14.633h4.367v-14.633zm-36.437-2.114h-4.366v16.747h4.366V214.01zm9.111-3.498h-4.367v20.245h4.367v-20.245zm9.106 1.118h-4.367v19.138h4.367V211.63zm9.11-6.473h-4.367v25.602h4.367v-25.602zm18.221.12h-4.367v25.481h4.367v-25.481zm9.107 8.368h-4.367v17.112h4.367v-17.112zm9.11-7.239h-4.367v24.362h4.367v-24.362zm9.11-5.49h-4.366v29.841h4.366v-29.841zm9.111 5.358h-4.367v24.484h4.367v-24.484z" fill="#E0E0E0"/><path d="M793.156 248.909H685.844a8.838 8.838 0 01-6.254-2.594 8.863 8.863 0 01-2.59-6.261v-64.199a8.86 8.86 0 012.59-6.261 8.838 8.838 0 016.254-2.594h107.312c2.346 0 4.595.933 6.254 2.594a8.86 8.86 0 012.59 6.261v64.199c0 2.348-.932 4.6-2.59 6.261a8.838 8.838 0 01-6.254 2.594zm-107.312-81.101a7.99 7.99 0 00-5.641 2.344 8.009 8.009 0 00-2.341 5.648v64.198a8.009 8.009 0 002.341 5.648 7.99 7.99 0 005.641 2.344h107.312a7.994 7.994 0 008.037-7.959v-64.198a8.009 8.009 0 00-2.341-5.648 7.989 7.989 0 00-5.641-2.344l-107.367-.033z" fill="#EBF2F9"/><path d="M746.932 188.285c0 .121-12.415.232-27.726.232-15.312 0-27.727-.111-27.727-.232 0-.122 12.415-.232 27.727-.232 15.311 0 27.726.066 27.726.232z" fill="#EBF2F9"/><path d="M710.259 263.268l3.725-7.176h2.138l-4.922 8.962v5.33h-1.882v-5.33l-4.922-8.962h2.157l3.706 7.176zm14.249 7.116c-.105-.209-.19-.582-.255-1.119-.843.877-1.85 1.315-3.02 1.315-1.045 0-1.905-.294-2.578-.883-.667-.596-1-1.348-1-2.258 0-1.106.418-1.963 1.255-2.571.843-.616 2.026-.923 3.549-.923h1.764v-.834c0-.635-.189-1.139-.568-1.512-.379-.38-.938-.569-1.677-.569-.647 0-1.189.163-1.627.49-.438.328-.657.723-.657 1.188h-1.823c0-.53.186-1.04.558-1.531.38-.497.889-.89 1.53-1.178a5.171 5.171 0 012.127-.432c1.222 0 2.18.308 2.873.923.693.608 1.052 1.449 1.078 2.522v4.889c0 .975.124 1.75.373 2.326v.157h-1.902zm-3.01-1.384a3.18 3.18 0 001.618-.442c.509-.294.879-.677 1.107-1.148v-2.179h-1.421c-2.222 0-3.333.651-3.333 1.953 0 .569.189 1.014.568 1.335.379.321.866.481 1.461.481zm10.102-9.237l.059 1.335c.81-1.021 1.869-1.531 3.176-1.531 2.242 0 3.372 1.266 3.392 3.799v7.018h-1.814v-7.028c-.006-.766-.183-1.332-.529-1.698-.34-.367-.873-.55-1.598-.55-.588 0-1.105.157-1.549.471a3.202 3.202 0 00-1.039 1.237v7.568h-1.814v-10.621h1.716zm9.925 5.222c0-1.629.386-2.938 1.157-3.926.771-.995 1.781-1.492 3.029-1.492 1.242 0 2.226.425 2.951 1.276v-5.536h1.814v15.077h-1.667l-.088-1.139c-.726.89-1.735 1.335-3.029 1.335-1.229 0-2.232-.504-3.01-1.511-.771-1.008-1.157-2.323-1.157-3.946v-.138zm1.814.206c0 1.205.248 2.147.745 2.827.497.681 1.183 1.021 2.059 1.021 1.15 0 1.99-.517 2.519-1.551v-4.878c-.542-1.001-1.376-1.502-2.5-1.502-.889 0-1.581.344-2.078 1.031-.497.687-.745 1.704-.745 3.052zm15.366 5.389c-1.438 0-2.608-.471-3.51-1.413-.902-.949-1.353-2.215-1.353-3.799v-.334c0-1.053.2-1.992.598-2.817.406-.831.968-1.479 1.687-1.943a4.237 4.237 0 012.353-.707c1.379 0 2.45.455 3.215 1.364.765.91 1.147 2.212 1.147 3.907v.756h-7.186c.026 1.047.33 1.894.912 2.542.588.642 1.333.962 2.235.962.641 0 1.183-.131 1.627-.392a4.084 4.084 0 001.167-1.041l1.108.864c-.889 1.368-2.222 2.051-4 2.051zm-.225-9.521c-.732 0-1.347.268-1.844.805-.496.53-.803 1.276-.921 2.238h5.313v-.137c-.052-.923-.3-1.636-.745-2.14-.444-.511-1.045-.766-1.803-.766zm11.033 2.582l2.353-3.878h2.117l-3.47 5.252 3.578 5.369h-2.098l-2.451-3.975-2.451 3.975h-2.108l3.579-5.369-3.471-5.252h2.098l2.324 3.878z" fill="#E0E0E0"/><defs><filter id="filter0_f" x="243.376" y="346.208" width="245.59" height="122.625" filterUnits="userSpaceOnUse" color-interpolation-filters="sRGB"><feFlood flood-opacity="0" result="BackgroundImageFix"/><feBlend in="SourceGraphic" in2="BackgroundImageFix" result="shape"/><feGaussianBlur stdDeviation="1" result="effect1_foregroundBlur"/></filter><filter id="filter1_f" x="256.106" y="394.11" width="100.505" height="54.759" filterUnits="userSpaceOnUse" color-interpolation-filters="sRGB"><feFlood flood-opacity="0" result="BackgroundImageFix"/><feBlend in="SourceGraphic" in2="BackgroundImageFix" result="shape"/><feGaussianBlur stdDeviation="2" result="effect1_foregroundBlur"/></filter><filter id="filter2_f" x="377.352" y="402.653" width="129.245" height="56.558" filterUnits="userSpaceOnUse" color-interpolation-filters="sRGB"><feFlood flood-opacity="0" result="BackgroundImageFix"/><feBlend in="SourceGraphic" in2="BackgroundImageFix" result="shape"/><feGaussianBlur stdDeviation="2" result="effect1_foregroundBlur"/></filter><linearGradient id="paint0_linear" x1="334.139" y1="302.612" x2="376.552" y2="531.327" gradientUnits="userSpaceOnUse"><stop stop-color="#B4D1FA" stop-opacity="0"/><stop offset="1" stop-opacity=".2"/></linearGradient><linearGradient id="paint1_linear" x1="382.108" y1="359.919" x2="257.556" y2="362.871" gradientUnits="userSpaceOnUse"><stop stop-color="#71A0DD" stop-opacity="0"/><stop offset="1" stop-color="#71A0DD" stop-opacity=".5"/></linearGradient></defs></svg>