<svg width="338" height="239" fill="none" xmlns="http://www.w3.org/2000/svg"><g filter="url(#filter0_d)"><path d="M170.679 233L2 180.09l158.369-49.823 171.248 49.823L170.679 233z" fill="#FFF5F7"/></g><g filter="url(#filter1_di)"><rect x="118.245" y="57.54" width="17.59" height="17.633" rx="2" fill="#A62E41"/><path fill-rule="evenodd" clip-rule="evenodd" d="M126.921 69.468h.666s.201-.022.304-.133c.094-.102.091-.293.091-.293s-.013-.896.402-1.028c.409-.13.934.866 1.49 1.249.421.29.741.226.741.226l1.487-.02s.779-.049.41-.662c-.031-.05-.215-.454-1.107-1.283-.932-.868-.807-.728.316-2.23.685-.913.958-1.472.873-1.71-.082-.229-.585-.168-.585-.168l-1.675.01s-.124-.017-.216.038c-.09.054-.148.18-.148.18s-.265.708-.619 1.31c-.746 1.27-1.044 1.337-1.166 1.258-.284-.184-.213-.738-.213-1.132 0-1.23.186-1.744-.362-1.877-.182-.044-.316-.073-.782-.078-.598-.006-1.104.002-1.39.143-.191.093-.338.302-.248.314.111.015.361.068.494.25.172.233.166.76.166.76s.098 1.448-.231 1.627c-.225.124-.535-.128-1.2-1.28-.341-.59-.598-1.242-.598-1.242s-.05-.122-.138-.187c-.107-.08-.258-.104-.258-.104l-1.591.01s-.239.007-.327.11c-.078.093-.006.285-.006.285s1.246 2.923 2.657 4.396c1.294 1.35 2.763 1.261 2.763 1.261z" fill="#fff"/></g><g filter="url(#filter2_di)"><rect x="206.194" y="57.54" width="17.59" height="17.633" rx="2" fill="#A62E41"/><path fill-rule="evenodd" clip-rule="evenodd" d="M220.449 63.964s-.109-.782-.443-1.126c-.424-.452-.899-.454-1.116-.48-1.559-.115-3.898-.115-3.898-.115h-.004s-2.339 0-3.898.115c-.218.026-.692.028-1.116.48-.334.344-.443 1.126-.443 1.126s-.111.918-.111 1.835v.86c0 .919.111 1.836.111 1.836s.109.782.443 1.126c.424.452.98.438 1.228.485.892.087 3.788.114 3.788.114s2.341-.004 3.9-.118c.217-.027.692-.03 1.116-.481.334-.344.443-1.126.443-1.126s.111-.917.111-1.835v-.86c0-.918-.111-1.836-.111-1.836zm-6.609 3.739l-.001-3.187 3.01 1.599-3.009 1.588z" fill="#fff"/></g><g filter="url(#filter3_di)"><rect x="143.866" y="33.774" width="17.59" height="17.633" rx="2" fill="#A62E41"/><path d="M155.298 51.407v-6.27h2.085l.521-2.612h-2.606V41.48c0-1.045.522-1.567 1.564-1.567h1.042V37.3h-2.085c-1.915 0-3.127 1.505-3.127 3.657v1.567h-2.085v2.613h2.085v6.27h2.606z" fill="#fff"/></g><g filter="url(#filter4_di)"><rect x="180.575" y="33.774" width="17.59" height="17.633" rx="2" fill="#A62E41"/><path d="M189.37 39.686a2.884 2.884 0 00-2.875 2.882 2.87 2.87 0 002.875 2.882 2.884 2.884 0 002.875-2.882c0-1.576-1.303-2.882-2.875-2.882zm0 4.728a1.852 1.852 0 01-1.842-1.846c0-1.013.831-1.846 1.842-1.846 1.011 0 1.842.833 1.842 1.846a1.852 1.852 0 01-1.842 1.846zm2.988-4.144a.652.652 0 10-.651-.653c0 .361.291.654.651.654z" fill="#fff"/><path d="M194.041 37.93c-.584-.608-1.415-.924-2.358-.924h-4.627c-1.954 0-3.257 1.306-3.257 3.265v4.616c0 .968.315 1.801.944 2.409.606.585 1.415.878 2.335.878h4.582c.966 0 1.775-.315 2.359-.878.606-.585.921-1.419.921-2.387v-4.638c0-.946-.315-1.756-.899-2.342zm-.09 6.98c0 .697-.247 1.26-.651 1.643s-.966.585-1.64.585h-4.582c-.673 0-1.235-.202-1.639-.585-.404-.405-.607-.968-.607-1.666V40.27c0-.675.203-1.238.607-1.644.382-.382.966-.585 1.639-.585h4.627c.674 0 1.236.203 1.64.608.382.405.606.968.606 1.621v4.638z" fill="#fff"/></g><g filter="url(#filter5_di)"><path d="M95.863 25.06L83.99 20.565a3.248 3.248 0 00-2.498.089 3.293 3.293 0 00-1.707 1.84l-1.867 5.019a3.337 3.337 0 00.09 2.52 3.291 3.291 0 001.822 1.726l2.872 1.086c.878 1.81 1.27 3.21 1.743 3.387.474.178 1.868-.742 3.52-1.396l3.74 1.415a3.25 3.25 0 002.496-.09 3.295 3.295 0 001.709-1.839l1.865-5.02a3.332 3.332 0 00-.088-2.519 3.286 3.286 0 00-1.823-1.723z" fill="url(#paint0_linear)"/><path d="M91.915 29.008c.5-1.324-.153-2.657-1.183-3.054a2.062 2.062 0 00-2.388.67c.03-.45-.084-.898-.325-1.277a2.087 2.087 0 00-1.015-.831c-1.03-.399-2.388.157-2.898 1.483-.757 2.004 1.42 5.47 2.08 6.001l.04.03a.406.406 0 00.058.033.365.365 0 00.064.015h.05c.847.054 4.76-1.068 5.517-3.07z" fill="#FCFCFC"/></g><g filter="url(#filter6_di)"><path d="M176.909 7.242l-7.795 2.63a2.477 2.477 0 00-1.295 1.034c-.297.481-.402 1.032-.291 1.534l.684 3.074c.113.5.432.908.888 1.135.455.228 1.009.255 1.542.078l1.884-.637c1.069.492 1.744.987 2.054.882.311-.106.744-1.087 1.401-2.048l2.455-.829a2.474 2.474 0 001.293-1.033c.298-.481.403-1.032.293-1.534l-.685-3.074a1.663 1.663 0 00-.887-1.135c-.455-.227-1.009-.255-1.541-.077z" fill="url(#paint1_linear)"/></g><path d="M176.13 10.636a1.274 1.274 0 00-1.657-.96c-.275.09-.526.262-.714.49a1.45 1.45 0 00-.33.776 1.08 1.08 0 00-.602-.469 1.324 1.324 0 00-.819.015c-.682.224-1.216 1.026-1.041 1.851.272 1.242 2.596 2 3.126 1.985l.031-.002a.258.258 0 00.042-.007.22.22 0 00.039-.02l.027-.019c.468-.312 2.17-2.399 1.898-3.64z" fill="#FCFCFC"/><g filter="url(#filter7_di)"><path d="M287.841 131.276l-8.884 2.986a2.806 2.806 0 00-1.473 1.178c-.338.549-.457 1.178-.33 1.751l.787 3.511c.13.571.495 1.038 1.015 1.298.519.261 1.151.293 1.758.092l2.148-.723c1.22.564 1.99 1.131 2.344 1.011.354-.12.846-1.24 1.593-2.335l2.798-.941a2.809 2.809 0 001.473-1.177c.338-.549.457-1.178.331-1.751l-.789-3.511a1.908 1.908 0 00-1.013-1.298c-.519-.26-1.151-.293-1.758-.091z" fill="url(#paint2_linear)"/><path d="M286.962 135.154a1.456 1.456 0 00-1.891-1.1 1.767 1.767 0 00-.813.557c-.214.26-.346.571-.375.886a1.243 1.243 0 00-.688-.538 1.508 1.508 0 00-.934.015c-.777.254-1.385 1.169-1.184 2.112.313 1.418 2.965 2.289 3.569 2.273l.035-.002a.267.267 0 00.048-.008.235.235 0 00.045-.022l.03-.022c.533-.356 2.471-2.734 2.158-4.151z" fill="#FCFCFC"/></g><g filter="url(#filter8_di)"><path d="M265.193 51.411l-12.323 5.298a4.615 4.615 0 00-2.055 1.743c-.475.754-.647 1.574-.479 2.28l1.05 4.325c.173.704.672 1.236 1.388 1.48.715.244 1.59.179 2.432-.18l2.979-1.279c1.684.51 2.76 1.089 3.239.896.478-.192 1.189-1.712 2.232-3.232l3.868-1.693a4.619 4.619 0 002.055-1.743c.475-.754.647-1.574.479-2.28l-1.047-4.327c-.178-.7-.678-1.227-1.392-1.468-.715-.24-1.586-.176-2.426.18z" fill="url(#paint3_linear)"/><path d="M256.392 60.175l.767 2.978c.052.2.297.279.549.176l1.351-.553c.251-.102.413-.348.361-.548l-.767-2.978c-.052-.2-.297-.278-.549-.175l-1.351.552c-.251.103-.413.349-.361.548z" fill="#FCFCFC"/><path d="M263.459 57.364l-.067.045a.989.989 0 00.352-.379.653.653 0 00.069-.443.445.445 0 00-.246-.306.656.656 0 00-.448-.029l-2.17.947c.248-.565.352-1.142.302-1.678-.176-.742-.747-.949-1.071-.858a.77.77 0 00-.372.222.647.647 0 00-.178.367c-.036.264.221.618.199.797-.043.276-.437.79-.93 1.792-.256.55-.318 1.115-.174 1.6l.244 1.026.238 1.025.115.476c.011.047.032.09.064.124.031.034.071.06.118.077.047.016.1.023.155.019a.516.516 0 00.168-.043l4.032-1.758a.726.726 0 00.329-.273.582.582 0 00.078-.186.42.42 0 000-.18.316.316 0 00-.078-.146.331.331 0 00-.142-.089.458.458 0 00-.186-.018.617.617 0 00-.199.056l.064-.042a.859.859 0 00.514-.565.515.515 0 00.001-.224.4.4 0 00-.097-.182.418.418 0 00-.18-.109.563.563 0 00-.232-.018.767.767 0 00-.248.075l.223-.098a.856.856 0 00.414-.334.7.7 0 00.099-.23.486.486 0 00.001-.225.383.383 0 00-.097-.182.409.409 0 00-.179-.109.567.567 0 00-.233-.018.771.771 0 00-.247.075h-.005z" fill="#FCFCFC"/></g><g filter="url(#filter9_di)"><path d="M106.807 103.865l-12.521 5.369a4.665 4.665 0 00-2.085 1.772c-.481.768-.654 1.604-.48 2.326l1.08 4.416c.178.72.687 1.264 1.416 1.515.729.251 1.618.188 2.474-.176l3.027-1.296c1.714.525 2.81 1.12 3.296.925.486-.196 1.205-1.745 2.262-3.292l3.93-1.716a4.656 4.656 0 002.085-1.773c.481-.768.654-1.603.481-2.325l-1.078-4.419c-.183-.714-.693-1.254-1.42-1.502-.728-.248-1.614-.185-2.467.176z" fill="url(#paint4_linear)"/><path d="M97.878 112.797l.787 3.043c.052.205.302.286.558.182l1.373-.559c.255-.104.419-.354.367-.558l-.787-3.044c-.053-.204-.302-.286-.558-.182l-1.373.559c-.255.104-.42.354-.367.559z" fill="#FCFCFC"/><path d="M105.059 109.958l-.069.046c.154-.097.28-.233.358-.385a.666.666 0 00.069-.452.46.46 0 00-.251-.314.668.668 0 00-.456-.031l-2.204.957c.251-.576.355-1.165.303-1.711-.181-.759-.762-.972-1.091-.881a.778.778 0 00-.378.225.652.652 0 00-.18.374c-.036.269.226.632.203.814-.042.282-.442.805-.942 1.825-.258.56-.32 1.137-.172 1.632l.25 1.048.245 1.048.117.486a.275.275 0 00.186.206.391.391 0 00.158.02.532.532 0 00.17-.043l4.097-1.776a.706.706 0 00.413-.467.439.439 0 000-.184.345.345 0 00-.079-.15.349.349 0 00-.146-.091.47.47 0 00-.189-.019.632.632 0 00-.202.057l.065-.043a.881.881 0 00.421-.34.698.698 0 00.1-.235.506.506 0 00.001-.229.415.415 0 00-.099-.186.423.423 0 00-.183-.111.562.562 0 00-.237-.02.761.761 0 00-.251.075l.226-.099a.88.88 0 00.421-.339.698.698 0 00.1-.235.52.52 0 00.001-.229.41.41 0 00-.282-.298.597.597 0 00-.237-.02.788.788 0 00-.251.076l-.005-.001z" fill="#FCFCFC"/></g><g filter="url(#filter10_f)"><path d="M173.757 145.68l-54.602 18.367 16.528 25.328 75.853 1.778-14.02-17.479-23.759-27.994z" fill="url(#paint5_linear)"/></g><path d="M186.3 97.689c-10.817 4.048-22.657 4.45-30.399 0 0 0-3.146-14.602 0-23.107 2.361-9.48 11.13-12.132 17.856-11.11 0 0 1.253-1.4 4.422 0 10.04 6.814 9.007 18.96 8.121 34.217z" fill="#412716"/><path d="M184.53 76.322c-4.131 1.543-7.384.038-11.787 0-6.273 0-9.674 2.294-13.743 0-2.479 7.144-5.36 10.85-3.049 22.7 2.311 11.849 1.651 15.759 3.455 21.762 11.109 6.712 15.965 7.361 23.917-.016 0 0-1.302-8.86 2.683-19.228 2.508-10.369.785-16.34-.511-21.974-.236-1.19-.663-2.237-.965-3.244z" fill="#3C2415"/><path d="M170.423 78.433c-7.514 0-12.392 25.881-11.643 48.995 9.261 3.528 16.627 5.32 26.424-1.411.848-21.83-6.927-47.584-14.781-47.584z" fill="#3B2415"/><path d="M155.231 109.858s3.03-1.908 7.661-3.506c1.367-.471 2.605-1.425 2.854-2.849.348-1.995-.012-3.939-.012-6.411l11.73-1.054s-.225 3.169.025 6.509c.159 2.131 1.923 3.68 3.982 4.256.933.261 2.176.628 4.003 1.163 2.049 0-14.297 18.622-14.297 18.622l-15.946-16.73z" fill="#FFCFAE"/><path d="M186.307 144.588l5.366 28.284s-9.328 4.757-20.005 4.757a39.044 39.044 0 01-19.025-4.757l4.603-28.284.248-12.68c-3.701-2.792-2.43-10.354-2.43-10.354l-2.421-10.996 7.278-3.105 3.639-1.552 1.083 2.418c3.339 5.367 9.747 5.405 13.74-.392l1.259-2.026 4.582 1.552 7.534 2.485-2.678 12.099s.8 6.992-2.773 10.254v12.297z" fill="#E63067"/><path d="M185.108 133.437s-10.301 7.299-25.134.441c0 0 13.852 3.739 25.134-.441z" fill="#C11C57"/><path d="M156.906 121.887s-5.269 15.479-9.34 23.29c0 0 10.59 6.899 16.663 12.962 0 0-1.363 8.313-3.736 5.215 0 0-16.468-9.815-20.425-15.668 0 0 5.387-31.596 12.583-37.129a20.676 20.676 0 014.255 11.33zm30.504 0s4.4 16.316 8.478 24.127c0 0-4.999 3.554-16.246 12.752l4.374 3.554s15.155-9.811 18.279-14.619c0 0-5.216-31.731-10.537-37.798a24.202 24.202 0 00-4.348 11.984z" fill="#E63067"/><path d="M125.935 159.085s7.584-2.495 22.671 1.772l1.041 3.136-23.712-4.908zm68.225 4.001l22.592-4.156s-8.61-1.733-22.42 1.743m-22.462 15.182c10.423 0 18.872-3.02 18.872-6.744 0-3.725-8.449-6.744-18.872-6.744-10.422 0-18.871 3.019-18.871 6.744 0 3.724 8.449 6.744 18.871 6.744z" fill="#06264A"/><path d="M151.84 167.786l38.853.157a3.757 3.757 0 003.654-2.898l1.249-21.456a5.208 5.208 0 00-1.147-4.289 5.226 5.226 0 00-4.035-1.857l-37.907.361a5.25 5.25 0 00-2.226.518 5.248 5.248 0 00-2.811 3.461 5.25 5.25 0 00-.05 2.283l.883 21.226c.261.729.74 1.36 1.373 1.807a3.766 3.766 0 002.164.687z" fill="#EDF5FF" stroke="#71A0DD" stroke-width=".3"/><path d="M181.53 137.592l-29.025.212a5.236 5.236 0 00-5.087 6.262l1.049 21.466a3.758 3.758 0 003.536 2.494h9.648l19.879-30.434z" fill="url(#paint6_linear)"/><path d="M171.588 156.841c2.557 0 4.63-1.915 4.63-4.277 0-2.363-2.073-4.278-4.63-4.278s-4.63 1.915-4.63 4.278c0 2.362 2.073 4.277 4.63 4.277z" fill="#61A6FF"/><path d="M149.467 163.602a32.25 32.25 0 00-9.671-3.288c-3.082-.531-7.163-1.141-11.347-1.498-3.443-.291-4.217 2.024-3.959 4.786.445 4.766 4.042 10.291 8.555 11.796 7.692 2.548 22.353 7.133 39.026 10.887 0 0 3.159-5.187 1.934-9.571l-3.14-1.783-21.398-11.329z" fill="#0A3D76"/><path d="M159.991 183.18s-2.536-1.66-3.79-.113c-1.244 1.634-1.269 1.326-2.673 1.411-1.413-.001-6.238-1.673-11.374-3.133-5.127-1.375-9.627 3.359-7.834 7.058 1.793 3.7 12.03 1.598 14.554 1.898 2.524.3 2.978.68 5.258.226 2.28-.454 8.48.253 8.614-1.679.061-1.837-1.764-4.918-2.755-5.668z" fill="#B4D1FA" stroke="#263238" stroke-width=".5" stroke-miterlimit="10" stroke-linecap="round" stroke-linejoin="round"/><path d="M138.467 190.345c.484-2.67-.309-6.472-.909-8.592-2.967 1.338-4.63 4.491-3.216 6.971.585 1.006 2.172 1.477 4.125 1.621z" fill="#C43B55" stroke="#263238" stroke-width=".5" stroke-miterlimit="10" stroke-linecap="round" stroke-linejoin="round"/><mask id="a" maskUnits="userSpaceOnUse" x="133" y="180" width="30" height="11"><path d="M159.906 183.147s-2.547-1.431-3.779.089c-1.734 1.756-1.247 1.303-2.626 1.387-1.388-.001-6.089-1.718-11.135-3.152-5.011-1.509-9.856 2.682-8.018 7.042 1.67 3.186 12.054 1.382 14.534 1.676 2.479.295 3.104.614 5.345.168 2.24-.446 8.221.39 8.352-1.509.06-1.804-1.699-4.964-2.673-5.701z" fill="#B4D1FA" stroke="#263238" stroke-width=".5" stroke-miterlimit="10" stroke-linecap="round" stroke-linejoin="round"/></mask><g mask="url(#a)"><path d="M141.024 190.555c-.378-2.238-.879-8.549-1.906-9.92m4.898 10.685c-.232-2.46-1.158-9.197-2.426-10.429m5.494 10.292c-.077-2.413-.973-8.366-1.979-9.094m5.196 7.992c-.215-1.924-1.163-6.618-1.928-7.486m6.12 8.153c-1.412-1.726-2.684-7.567-2.185-7.745m6.141 8.155c-4.807-2.664-3.809-9.51-1.238-9.933" stroke="#0A3D76" stroke-width="2" stroke-linecap="round"/></g><path d="M187.49 183.927s1.985-2.172 3.239-.624c1.244 1.633 3.539 1.977 4.942 2.062 1.413-.001 6.239-1.673 11.374-3.134 5.127-1.374 9.627 3.359 7.834 7.059-1.792 3.699-12.03 1.598-14.553 1.898-2.524.3-2.979.68-5.259.226-2.28-.454-8.48.253-8.614-1.68-.06-1.836.046-5.058 1.037-5.807z" fill="#B4D1FA" stroke="#000" stroke-width=".5" stroke-miterlimit="10" stroke-linecap="round" stroke-linejoin="round"/><path d="M210.545 191.123c-.483-2.671.309-6.473.909-8.593 2.968 1.339 4.631 4.491 3.217 6.972-.585 1.006-2.173 1.477-4.126 1.621z" fill="#C43B55" stroke="#263238" stroke-width=".5" stroke-miterlimit="10" stroke-linecap="round" stroke-linejoin="round"/><mask id="b" maskUnits="userSpaceOnUse" x="186" y="181" width="30" height="11"><path d="M187.436 183.254s3.241-.879 4.473.641c1.734 1.756 2.223 1.421 3.603 1.505 1.388-.001 6.089-1.717 11.135-3.152 5.011-1.509 9.855 2.683 8.018 7.042-1.67 3.186-12.054 1.382-14.534 1.677-2.479.295-3.105.613-5.345.167-2.24-.446-8.221.39-8.352-1.509-.06-1.804.028-5.635 1.002-6.371z" fill="#B4D1FA" stroke="#263238" stroke-width=".5" stroke-miterlimit="10" stroke-linecap="round" stroke-linejoin="round"/></mask><g mask="url(#b)"><path d="M207.989 191.332c.379-2.238.88-8.549 1.906-9.92m-4.897 10.685c.231-2.459 1.158-9.197 2.426-10.429m-5.494 10.292c.077-2.413.973-8.366 1.979-9.094m-5.196 7.992c.214-1.924 1.162-6.618 1.927-7.486m-6.12 8.153c1.413-1.726 2.684-7.567 2.186-7.745m-6.141 8.155c4.807-2.664 3.809-9.51 1.238-9.933" stroke="#0A3D76" stroke-width="2" stroke-linecap="round"/></g><path d="M188.139 190.356c-.806-.285-15.727-4.878-15.727-4.878l-3.423.934s-4.65 1.757-8.08 2.827c-1.672-.335-4.292-1.662-3.811-4.483.243-1.427 1.621-2.357 2.96-2.906 1.333-.546 2.982-1.277 4.052-1.874 1.678-.944 4.399-2.551 6.181-3.275 1.344-.535 1.656-.738 1.683-.815l-.103-.044s.123-.01.103.044l14.16 6.087 3.492 1.002c3.017 2.719 2.689 5.202 0 7.178-.318.203-1.153.371-1.487.203z" fill="#FFCFAE"/><path d="M170.807 184.629c.172-.115-.756.207-5.838 2.413-2.077.901-3.841 1.434-5.323 1.733.325.344 1.256.427 1.598.408.79-.147 1.35-.308 1.409-.52 3.008-1.091 5.312-1.811 8.841-3l-.687-1.034z" fill="#EAAB85"/><path d="M193.522 163.602a32.24 32.24 0 019.671-3.288c3.082-.531 7.163-1.141 11.347-1.498 3.469-.291 4.236 2.024 3.978 4.786-.438 4.766-2.785 10.927-7.298 12.425-7.692 2.555-22.353 7.133-39.026 10.894 0 0-4.416-5.836-3.223-10.207l3.185-1.783 21.366-11.329z" fill="#0A3D76"/><path d="M158.238 182.476c-2.34 2.012-1.17 6.204 2.672 6.707.501 0 1.57-.101 1.838-.503m23.553 1.174c.399.272 1.838 1.006 3.238.461 3.444-2.641 2.442-4.653.771-6.665-.111-.112-.601-.838-1.002-.838" stroke="#000" stroke-width=".5"/><g filter="url(#filter11_f)"><path d="M131.829 174.633c-4.533-1.793-6.583-7.296-7.04-9.824 8.414 8.273 19.747 11.72 35.372 16.718l-2.232 1.206c-6.811-1.896-21.567-6.308-26.1-8.1z" fill="#000" fill-opacity=".1"/></g><g filter="url(#filter12_f)"><path d="M217.513 168.083c-7.898 7.412-34.056 14.191-46.362 17.063l1.202 1.551c11.447-2.7 34.514-9.134 39.15-10.858 3.606-1.34 5.61-6.089 6.01-7.756z" fill="#000" fill-opacity=".1"/></g><path d="M184.297 189.35l-9.713-3.17.859-.172c6.336 2.446 11.694 3.711 12.696 4.348.583.371-2.428-.616-3.842-1.006z" fill="#DCA17D"/><path d="M177.017 97.755c-6.501 2.964-7.183 1.637-10.876.206v.084c4.472 8.275 8.83 4.083 10.876-.084v-.206z" fill="#EAAB85"/><path d="M160.515 86.068c.319 1.928.899 4.225 1.8 6.416 2.701 4.141 4.688 8.094 9.265 8.094 4.191 0 6.376-3.576 9.082-8.094a25.163 25.163 0 001.606-5.663c.655-4.157-3.937-9.771-3.937-9.771s-.75-7.341-4.501-5.647c-6.376 4.894-10.496 2.566-12.939 8.265-1.181 2.754-.566.076-.376 6.4z" fill="#FFCFAE"/><path d="M160.695 85.876c-.782-1.877-2.056-3.017-2.816-2.55-.761.467-.796 2.372 0 4.25.795 1.876 2.056 3.016 2.816 2.549.761-.468.775-2.387 0-4.25z" fill="#FFCFAE"/><path d="M160.429 86.499c-.479-1.155-1.268-1.856-1.747-1.566-.479.29-.493 1.46 0 2.614s1.261 1.87 1.747 1.565c.485-.305.485-1.459 0-2.613z" fill="#EAAB85"/><path d="M161.006 87.568c-.233-.666-.789-1.005-1.239-.708a1.46 1.46 0 00-.381 1.686c.24.708.789 1.012 1.24.75a1.425 1.425 0 00.38-1.728zm21.319-3.318c.904-1.876 2.195-2.51 2.888-1.397.694 1.113.216 3.4-.693 5.285-.909 1.885-2.195 2.447-2.572 1.523-.699-1.105-.522-3.534.377-5.41z" fill="#FFCFAE"/><path d="M182.916 85.692c.644-1.112 1.426-1.527 1.74-.928.315.599.031 1.99-.619 3.094-.649 1.104-1.432 1.534-1.762.926-.331-.609-.014-1.989.641-3.092z" fill="#EAAB85"/><path d="M182.324 87.74c.259-.704.707-1.056 1.002-.77.294.285.314 1.085.06 1.79-.255.704-.708 1.05-1.002.77-.294-.28-.316-1.067-.06-1.79z" fill="#FFCFAE"/><path d="M160.891 86.821c-1.296-1.735-2.819-4.928-1.566-10.395l2.128-1.463c0 5.967-1.985 5.661-.562 11.858zm21.191.189c1.295-1.735 2.818-4.928 1.565-10.396l-5.504-1.634c0 6.4 4.689 6.211 3.939 12.03zm-19.868-5.284c.585-.903 2.818-3.543 6.199-1.897.212.103.316.146.429.548-3.066-.803-4.631-.522-6.628 1.35z" fill="#412716"/><path d="M180.361 81.726c-.585-.903-2.817-3.543-6.198-1.897-.213.103-.317.146-.429.548 3.066-.803 4.631-.522 6.627 1.35z" fill="#412716"/><path d="M172.979 88.24c0-.652-.571-3.336-1.409-3.336-.837 0-1.528 2.684-1.528 3.335a1.5 1.5 0 00.521.842 1.481 1.481 0 002.38-.842h.036z" fill="#FFCFAE"/><path d="M170.001 89.457c-.311.315.154.473.154.473h.62s.62.63 1.237 0h.62s.465-.158.156-.473" stroke="#EAAB85" stroke-width=".8" stroke-miterlimit="10" stroke-linejoin="round"/><path d="M170.643 84.187s.806 1.026.055 3.764l-.055-3.764z" fill="#EAAB85"/><path d="M165.433 82.372c.524-.192.694-.13 1.47-.13.355.042.702.129 1.034.259 0 0 .773.772.866.872.162.183.101.389-.145.422-.246.033-.517-.042-.724-.001-1.596.255-1.938.353-2.847-.003a4.931 4.931 0 01-1.032-.515 3.856 3.856 0 011.378-.904z" fill="#fff"/><path d="M166.385 82.517a.891.891 0 01.916.884.883.883 0 01-.22.579c-.31.138-1.069.062-1.41.007a.864.864 0 01-.209-.568c.002-.493.415-.897.923-.902z" fill="#28160D" stroke="#1C1105" stroke-width=".2" stroke-miterlimit="10"/><path d="M166.378 83.923a.51.51 0 01-.523-.506.527.527 0 01.528-.516.51.51 0 01.523.505.527.527 0 01-.528.517z" fill="#000"/><path opacity=".77" d="M166.896 83.41a.255.255 0 01-.262-.253.265.265 0 01.265-.258.256.256 0 01.262.253.264.264 0 01-.265.258z" fill="#fff"/><path d="M168.871 83.61l-.919-1.003a.665.665 0 00-.31-.187l-.379-.098a1.853 1.853 0 00-.595-.052l-.976.076a1.322 1.322 0 00-.564.176l-1.009.602-.326.017.942-.838a1.57 1.57 0 01.679-.215l.973-.075c.23-.018.461.003.683.062l.377.098c.246.04.482.128.695.257l1.083 1.22-.354-.04z" fill="#D3A688"/><path opacity=".5" d="M168.966 83.65l-.918-1a.774.774 0 00-.369-.224l-.377-.098a1.983 1.983 0 00-.657-.058l-.975.076c-.22.016-.433.084-.622.197l-.993.599" stroke="#0A0001" stroke-width=".3" stroke-miterlimit="10"/><path d="M168.834 83.795h-.405a3.054 3.054 0 00-.633.062c-.484.103-1.516.359-2.45.064a10.557 10.557 0 01-.516-.256l-.516-.255" stroke="#472A22" stroke-width=".2" stroke-miterlimit="10"/><path d="M177.145 82.451c-.518-.208-.69-.156-1.467-.19a4.232 4.232 0 00-1.041.202s-.789.707-.881.799c-.169.168-.112.368.133.411.246.043.519-.017.726.032 1.593.316 1.936.425 2.851.124.367-.11.717-.26 1.045-.448a4.061 4.061 0 00-1.366-.93z" fill="#fff"/><path d="M176.179 82.573c.51.05.921.462.919.922a.712.712 0 01-.247.54 7.7 7.7 0 01-1.349-.124.867.867 0 01-.249-.595c.002-.46.417-.792.926-.743z" fill="#28160D" stroke="#1C1105" stroke-width=".2" stroke-miterlimit="10"/><path d="M176.172 83.896c-.292-.028-.527-.267-.526-.532.001-.265.238-.457.53-.429.292.028.527.267.526.532-.001.265-.238.457-.53.43z" fill="#000"/><path opacity=".77" d="M176.697 83.408c-.146-.014-.264-.133-.263-.266 0-.132.119-.229.265-.214.146.014.263.133.263.266-.001.132-.119.229-.265.214z" fill="#fff"/><path d="M173.682 83.467l.939-.914a.649.649 0 01.317-.165l.379-.077c.195-.038.397-.046.597-.023l.977.116c.2.024.392.09.562.193l.996.618.326.031-.927-.84a1.662 1.662 0 00-.675-.235l-.976-.115a2.12 2.12 0 00-.682.03l-.382.076c-.247.027-.485.1-.701.214l-1.103 1.115.353-.024z" fill="#D3A688"/><path opacity=".5" d="M173.586 83.508l.94-.91a.761.761 0 01.373-.196l.38-.076a2.08 2.08 0 01.64-.026l.975.115c.22.025.432.098.619.214l1.001.614" stroke="#0A0001" stroke-width=".3" stroke-miterlimit="10"/><path d="M173.708 83.692l.406.016c.214.008.426.037.635.084.482.115 1.506.392 2.447.163.059-.013.466-.187.521-.21l.521-.212" stroke="#472A22" stroke-width=".2" stroke-miterlimit="10"/><path d="M174.921 92.89h0v-.002c.083-.455-.312-.79-.715-.785l-5.637.066c-.403.005-.784.35-.688.8h0l.001.002c.164.735.615 1.39 1.265 1.856.65.465 1.461.712 2.291.703a3.854 3.854 0 002.27-.755c.637-.48 1.069-1.145 1.213-1.884z" fill="#920E08" stroke="#EA908A" stroke-width=".4"/><mask id="c" maskUnits="userSpaceOnUse" x="168" y="92" width="7" height="4"><path d="M174.209 92.303c.307-.003.571.247.515.55-.133.686-.535 1.31-1.136 1.763a3.656 3.656 0 01-2.152.714 3.673 3.673 0 01-2.172-.666c-.614-.439-1.034-1.053-1.187-1.737-.064-.3.188-.554.494-.558l5.638-.066z" fill="#920E08"/></mask><g mask="url(#c)"><path d="M174.767 92.297a3.05 3.05 0 01-.043.556l-6.647.074a3.013 3.013 0 01-.061-.551l6.751-.08z" fill="#fff"/></g><path d="M173.906 94.35a3.392 3.392 0 01-1.117.72c-.425.17-.885.261-1.351.266a3.77 3.77 0 01-1.358-.234 3.422 3.422 0 01-1.139-.694c.673-.55 1.553-.86 2.47-.871a4.009 4.009 0 012.495.813z" fill="#F85C66"/><path d="M227.435 22.011l-7.391-2.783a2.03 2.03 0 00-1.554.056c-.49.224-.873.633-1.063 1.139l-1.162 3.107a2.058 2.058 0 00.056 1.56c.223.492.631.876 1.134 1.068l1.788.672c.546 1.12.79 1.987 1.085 2.097.295.11 1.163-.459 2.191-.864l2.328.876a2.031 2.031 0 001.553-.056 2.043 2.043 0 001.064-1.138l1.16-3.108a2.055 2.055 0 00-.054-1.559 2.041 2.041 0 00-1.135-1.067z" fill="#EBF2F9"/><path d="M224.978 24.455c.311-.82-.094-1.644-.736-1.89a1.289 1.289 0 00-1.486.414 1.304 1.304 0 00-.834-1.305c-.641-.246-1.486.098-1.804.919-.471 1.24.884 3.387 1.295 3.715l.024.018a.268.268 0 00.037.02.22.22 0 00.04.01h.031c.527.033 2.962-.661 3.433-1.9z" fill="#FCFCFC"/><path d="M245.712 103.685l-11.343-4.272a3.12 3.12 0 00-2.386.086 3.133 3.133 0 00-1.631 1.748l-1.783 4.768a3.155 3.155 0 00.085 2.395 3.135 3.135 0 001.741 1.639l2.743 1.032c.839 1.719 1.213 3.049 1.666 3.218.452.169 1.784-.704 3.362-1.326l3.573 1.344a3.125 3.125 0 004.017-1.832l1.781-4.77a3.15 3.15 0 00-.084-2.393 3.131 3.131 0 00-1.741-1.637z" fill="#EBF2F9"/><path d="M241.94 107.436c.477-1.258-.146-2.524-1.13-2.901a1.984 1.984 0 00-2.282.636 1.992 1.992 0 00-1.279-2.003c-.984-.379-2.281.15-2.769 1.409-.723 1.904 1.356 5.198 1.988 5.702l.037.028a.44.44 0 00.056.031.33.33 0 00.062.015h.047c.809.051 4.547-1.015 5.27-2.917z" fill="#FCFCFC"/><path d="M278.728 16.242l-7.107 2.473a2.2 2.2 0 00-1.162.964c-.26.447-.34.957-.224 1.42l.721 2.841a1.6 1.6 0 00.852 1.047c.426.208.938.23 1.423.063l1.719-.598c.999.45 1.635.904 1.918.805.284-.1.653-1.01 1.231-1.902l2.238-.78c.484-.17.902-.516 1.162-.963.259-.446.34-.957.224-1.42l-.722-2.84a1.595 1.595 0 00-.851-1.047 1.859 1.859 0 00-1.422-.063z" fill="#EBF2F9"/><path d="M278.112 19.393a1.202 1.202 0 00-1.553-.878 1.395 1.395 0 00-.644.457 1.3 1.3 0 00-.282.72 1.033 1.033 0 00-.568-.431 1.215 1.215 0 00-.754.018c-.621.21-1.091.955-.907 1.717.286 1.146 2.447 1.834 2.935 1.817l.028-.002a.255.255 0 00.039-.007.297.297 0 00.036-.017l.023-.019c.423-.291 1.932-2.23 1.647-3.375z" fill="#FCFCFC"/><path d="M139.014 97.63l-7.456 2.458a2.349 2.349 0 00-1.24.98c-.285.459-.387.988-.283 1.469l.643 2.954c.107.481.41.875.844 1.097.434.221.964.253 1.473.086l1.803-.594c1.019.481 1.662.961 1.959.862.297-.099.714-1.036 1.345-1.952l2.348-.774a2.35 2.35 0 001.239-.981c.286-.459.388-.986.285-1.468l-.645-2.954a1.604 1.604 0 00-.843-1.096c-.434-.222-.963-.253-1.472-.087z" fill="#EBF2F9"/><path d="M138.259 100.888a1.223 1.223 0 00-1.579-.937 1.476 1.476 0 00-.684.463 1.376 1.376 0 00-.318.742 1.045 1.045 0 00-.574-.456 1.26 1.26 0 00-.782.007c-.653.208-1.166.973-1.002 1.766.256 1.194 2.473 1.943 2.98 1.933l.029-.001a.28.28 0 00.04-.007.264.264 0 00.038-.018l.025-.018c.449-.296 2.083-2.282 1.827-3.474z" fill="#FCFCFC"/><path d="M64.388 138.988l-14.48-4.888c-.99-.333-2.035-.352-2.909-.054-.873.299-1.503.892-1.752 1.648l-1.506 4.649c-.243.758-.086 1.617.44 2.39.524.772 1.373 1.395 2.361 1.732l3.5 1.184c1.271 1.76 1.937 3.11 2.492 3.312.555.201 2.086-.593 3.927-1.128l4.562 1.508c.99.333 2.035.352 2.908.053.873-.298 1.503-.891 1.752-1.647l1.51-4.648c.237-.758.075-1.614-.45-2.384-.525-.769-1.37-1.389-2.355-1.727z" fill="#EBF2F9"/><path d="M51.221 140.126l-1.04 3.244c-.07.218.11.476.4.577l1.566.543c.292.101.585.006.655-.212l1.04-3.244c.07-.218-.11-.476-.4-.577l-1.567-.542c-.291-.101-.584-.007-.654.211z" fill="#FCFCFC"/><path d="M59.505 142.919l-.092-.014c.202.035.4.016.563-.055a.57.57 0 00.327-.332.553.553 0 00-.057-.457.964.964 0 00-.416-.375l-2.65-.866c.572-.299 1.012-.721 1.279-1.226.266-.783-.163-1.408-.529-1.581a.907.907 0 00-.489-.097.578.578 0 00-.388.181c-.19.202-.15.711-.277.849-.204.206-.887.347-1.952.834-.57.28-.963.724-1.11 1.258l-.368 1.083-.373 1.079-.17.503a.31.31 0 00-.011.158.41.41 0 00.069.159.56.56 0 00.138.137.73.73 0 00.187.094l4.925 1.611c.08.028.163.045.245.048a.684.684 0 00.233-.03.497.497 0 00.185-.1.361.361 0 00.117-.345.476.476 0 00-.085-.188.684.684 0 00-.17-.161.873.873 0 00-.224-.106l.087.014c.098.036.202.058.304.064a.872.872 0 00.292-.033.616.616 0 00.232-.123.44.44 0 00.146-.428.59.59 0 00-.11-.235.847.847 0 00-.212-.197 1.039 1.039 0 00-.283-.128l.272.089c.098.036.202.058.305.064a.872.872 0 00.291-.033.603.603 0 00.232-.123.44.44 0 00.146-.428.592.592 0 00-.109-.235.845.845 0 00-.213-.197 1.036 1.036 0 00-.283-.128l-.005-.004z" fill="#FCFCFC"/><path d="M133.395 18.091l-7.532 3.58a2.78 2.78 0 00-1.222 1.14c-.269.485-.346 1.006-.213 1.45l.826 2.713c.136.442.47.77.928.91.459.14 1.006.083 1.521-.16l1.82-.863c1.077.29 1.775.636 2.067.505.293-.13.681-1.104 1.277-2.084l2.363-1.143a2.782 2.782 0 001.223-1.14c.268-.485.345-1.007.212-1.45l-.824-2.715a1.362 1.362 0 00-.931-.902c-.458-.14-1.002-.082-1.515.159z" fill="#EBF2F9"/><path d="M128.213 23.826l.592 1.86c.04.124.196.17.349.1l.821-.371c.153-.07.244-.226.204-.351l-.593-1.86c-.039-.125-.195-.17-.348-.101l-.821.371c-.153.07-.244.227-.204.352zm4.325-1.926l-.041.029a.59.59 0 00.206-.244.406.406 0 00.027-.28.292.292 0 00-.166-.188.412.412 0 00-.282-.01l-1.323.634a2.12 2.12 0 00.126-1.06c-.138-.463-.504-.582-.703-.52a.464.464 0 00-.225.147.397.397 0 00-.098.234c-.012.166.162.384.155.497-.017.174-.244.504-.515 1.143-.14.35-.157.706-.049 1.008l.191.64.189.64.089.298a.183.183 0 00.122.123c.03.01.063.012.098.009a.308.308 0 00.103-.03l2.46-1.178a.422.422 0 00.238-.296.267.267 0 00-.007-.113.217.217 0 00-.054-.09.219.219 0 00-.093-.054.288.288 0 00-.117-.007.383.383 0 00-.123.039l.039-.028a.51.51 0 00.3-.365.316.316 0 00-.007-.14.254.254 0 00-.068-.113.27.27 0 00-.117-.065.352.352 0 00-.146-.008.469.469 0 00-.152.052l.136-.065a.54.54 0 00.247-.218.44.44 0 00.053-.147.316.316 0 00-.008-.14.262.262 0 00-.067-.113.275.275 0 00-.117-.065.353.353 0 00-.146-.008.461.461 0 00-.152.052h-.003z" fill="#FCFCFC"/><path d="M71.164 89.836H28.816a3.483 3.483 0 01-2.468-1.026 3.51 3.51 0 01-1.022-2.477V60.936c0-.93.368-1.82 1.022-2.477a3.483 3.483 0 012.468-1.026h42.348c.926 0 1.813.369 2.468 1.026a3.51 3.51 0 011.022 2.477v25.397c0 .929-.368 1.82-1.022 2.477a3.483 3.483 0 01-2.468 1.026zM28.816 57.752a3.148 3.148 0 00-2.226.928 3.171 3.171 0 00-.924 2.234v25.397c.002.838.334 1.641.924 2.234.59.593 1.391.926 2.226.927h42.348a3.148 3.148 0 002.226-.927c.59-.593.923-1.396.924-2.234V60.914a3.172 3.172 0 00-.924-2.234 3.148 3.148 0 00-2.226-.928H28.816z" fill="#C4C4C4"/><path d="M34.597 81.499a.835.835 0 01-.775-.522.842.842 0 01-.062-.324v-15.81a.847.847 0 01.837-.845.84.84 0 01.842.845v15.811a.843.843 0 01-.519.782.834.834 0 01-.323.064z" fill="#E0E0E0"/><path d="M34.596 81.573a.835.835 0 01-.837-.846V70.534a.843.843 0 01.837-.841.834.834 0 01.778.518.843.843 0 01.064.323v10.193a.843.843 0 01-.842.846z" fill="#EBF2F9"/><path d="M34.068 82.235v1.406h-.144v-1.28h-.327v-.126h.471zm.337.7c0-.438.231-.714.559-.714.327 0 .558.267.558.714 0 .447-.236.714-.558.714-.323 0-.559-.267-.559-.714zm.969 0c0-.376-.166-.582-.41-.582-.245 0-.415.206-.415.582 0 .377.17.583.415.583.244 0 .41-.206.41-.583z" fill="#B3B3B3"/><path d="M37.956 81.499a.84.84 0 01-.778-.522.846.846 0 01-.064-.323V64.842a.85.85 0 01.842-.845.84.84 0 01.837.845v15.812a.846.846 0 01-.516.78.835.835 0 01-.321.065z" fill="#E0E0E0"/><path d="M37.956 81.573a.84.84 0 01-.842-.845V67.324a.851.851 0 01.842-.845.841.841 0 01.837.845v13.404a.846.846 0 01-.516.78.835.835 0 01-.321.065z" fill="#EBF2F9"/><path d="M37.755 83.509v.131h-.982v-.105l.58-.574c.162-.153.188-.25.188-.346 0-.096-.113-.262-.327-.262a.48.48 0 00-.38.157l-.105-.087a.625.625 0 01.498-.202c.283 0 .462.145.462.377a.576.576 0 01-.227.438l-.475.468.768.005zm.17-.574c0-.438.235-.713.558-.713.323 0 .563.267.563.713 0 .447-.236.714-.563.714-.327 0-.558-.267-.558-.714zm.973 0c0-.376-.17-.582-.415-.582-.244 0-.41.206-.41.582 0 .377.166.583.41.583.245 0 .415-.206.415-.583z" fill="#B3B3B3"/><path d="M41.31 81.499a.835.835 0 01-.837-.845V64.842a.847.847 0 01.838-.845.84.84 0 01.842.845v15.812a.845.845 0 01-.52.782.836.836 0 01-.322.063z" fill="#E0E0E0"/><path d="M41.31 81.574a.835.835 0 01-.837-.845v-7.79a.842.842 0 011.16-.778.838.838 0 01.52.778v7.785a.843.843 0 01-.518.786.835.835 0 01-.324.064z" fill="#EBF2F9"/><path d="M41.09 83.234c0 .236-.17.416-.505.416a.74.74 0 01-.506-.18l.07-.114a.61.61 0 00.436.162c.23 0 .362-.11.362-.284 0-.176-.122-.276-.38-.276h-.1v-.11l.388-.486h-.715v-.127h.898v.1l-.397.5c.301.018.45.175.45.399zm.205-.299c0-.438.232-.713.559-.713.327 0 .558.267.558.713 0 .447-.235.714-.558.714-.323 0-.559-.267-.559-.714zm.969 0c0-.376-.17-.582-.41-.582-.24 0-.415.206-.415.582 0 .377.17.583.415.583.244 0 .41-.206.41-.583z" fill="#B3B3B3"/><path d="M44.67 81.499a.838.838 0 01-.777-.522.848.848 0 01-.064-.323V64.842a.851.851 0 01.842-.845.84.84 0 01.837.845v15.812a.844.844 0 01-.516.78.835.835 0 01-.321.065z" fill="#E0E0E0"/><path d="M44.67 81.573a.84.84 0 01-.842-.845V67.324a.852.852 0 01.842-.845.841.841 0 01.837.845v13.404a.842.842 0 01-.837.845z" fill="#EBF2F9"/><path d="M44.67 83.269h-.284v.372h-.153v-.373h-.79v-.105l.742-.928h.162l-.716.906h.607v-.324h.14v.325h.292v.127zm.14-.334c0-.438.23-.713.558-.713.327 0 .558.267.558.713 0 .447-.235.714-.558.714-.323 0-.558-.267-.558-.714zm.968 0c0-.376-.17-.582-.41-.582-.24 0-.436.206-.436.582 0 .377.17.583.436.583s.41-.206.41-.583z" fill="#B3B3B3"/><path d="M48.025 81.499a.835.835 0 01-.838-.845V64.842a.847.847 0 01.838-.845.84.84 0 01.842.845v15.812a.843.843 0 01-.842.845z" fill="#E0E0E0"/><path d="M48.023 81.573a.835.835 0 01-.837-.845V69.873a.842.842 0 011.16-.779.839.839 0 01.52.779V80.71a.845.845 0 01-.516.798.835.835 0 01-.327.065z" fill="#EBF2F9"/><path d="M47.952 83.225c0 .24-.166.438-.506.438a.728.728 0 01-.502-.18l.07-.114a.59.59 0 00.436.162c.24 0 .366-.118.366-.288 0-.171-.113-.29-.466-.29h-.301l.074-.704h.763v.127h-.637l-.048.437h.18c.414-.004.57.162.57.412zm.183-.29c0-.438.235-.713.558-.713.323 0 .559.267.559.713 0 .447-.236.714-.559.714-.323 0-.558-.267-.558-.714zm.968 0c0-.376-.166-.582-.41-.582-.244 0-.436.206-.436.582 0 .377.17.583.436.583s.41-.206.41-.583z" fill="#B3B3B3"/><path d="M51.386 81.499a.84.84 0 01-.778-.522.848.848 0 01-.064-.323V64.842a.852.852 0 01.842-.845.84.84 0 01.837.845v15.812a.842.842 0 01-.837.845z" fill="#E0E0E0"/><path d="M51.384 81.499a.828.828 0 01-.842-.77v-7.79a.878.878 0 01.842-.916.836.836 0 01.838.84v7.786a.844.844 0 01-.515.785.837.837 0 01-.323.065z" fill="#EBF2F9"/><path d="M51.275 83.221a.44.44 0 01-.48.438c-.37 0-.576-.258-.576-.7 0-.443.262-.727.642-.727a.646.646 0 01.331.074l-.057.118a.479.479 0 00-.27-.066c-.306 0-.497.193-.497.574a1.029 1.029 0 000 .114.436.436 0 01.436-.24.434.434 0 01.471.415zm-.144 0c0-.188-.135-.306-.353-.306a.322.322 0 00-.358.31c0 .154.126.298.37.298a.303.303 0 00.312-.174.307.307 0 00.029-.124v-.004zm.309-.286c0-.438.232-.713.559-.713.327 0 .558.267.558.713 0 .447-.235.714-.558.714-.323 0-.559-.267-.559-.714zm.969 0c0-.376-.17-.582-.41-.582-.24 0-.415.206-.415.582 0 .377.17.583.415.583.244 0 .41-.206.41-.583z" fill="#B3B3B3"/><path d="M54.741 81.499a.835.835 0 01-.837-.845V64.842a.847.847 0 01.837-.845.84.84 0 01.838.845v15.812a.844.844 0 01-.516.78.835.835 0 01-.322.065z" fill="#E0E0E0"/><path d="M54.74 81.574a.835.835 0 01-.838-.845V66.524a.842.842 0 01.838-.845.833.833 0 01.775.522.844.844 0 01.063.323V80.73a.844.844 0 01-.517.78.835.835 0 01-.321.065z" fill="#EBF2F9"/><path d="M54.56 82.235v.1l-.584 1.315h-.144l.576-1.28h-.72v.264h-.14v-.39l1.012-.009zm.144.7c0-.438.23-.713.558-.713.327 0 .558.267.558.713 0 .447-.235.714-.558.714-.323 0-.558-.267-.558-.714zm.968 0c0-.376-.166-.582-.41-.582-.244 0-.414.206-.414.582 0 .377.17.583.414.583.244 0 .419-.206.419-.583h-.009z" fill="#B3B3B3"/><path d="M58.099 81.499a.839.839 0 01-.778-.522.848.848 0 01-.064-.323V64.842a.852.852 0 01.842-.845.84.84 0 01.837.845v15.812a.842.842 0 01-.837.845z" fill="#E0E0E0"/><path d="M58.098 81.573a.84.84 0 01-.842-.845V74.55a.848.848 0 01.52-.781.84.84 0 011.16.78v6.18a.842.842 0 01-.838.844z" fill="#EBF2F9"/><path d="M57.931 83.246c0 .25-.209.403-.545.403-.336 0-.54-.153-.54-.403a.356.356 0 01.27-.346.309.309 0 01-.218-.306c0-.232.191-.373.488-.373s.493.14.493.373a.316.316 0 01-.222.306.358.358 0 01.275.346zm-.148 0c0-.175-.148-.284-.397-.284-.248 0-.393.109-.393.284s.145.28.393.28c.249 0 .397-.105.397-.28zm-.397-.398c.218 0 .35-.097.35-.25s-.14-.254-.35-.254c-.21 0-.345.096-.345.254s.127.25.345.25zm.74.087c0-.438.236-.714.558-.714.323 0 .563.267.563.714 0 .447-.235.714-.563.714-.327 0-.558-.267-.558-.714zm.973 0c0-.377-.17-.582-.415-.582-.244 0-.41.205-.41.582 0 .376.166.582.41.582.245 0 .415-.206.415-.582z" fill="#B3B3B3"/><path d="M61.454 81.499a.835.835 0 01-.837-.845V64.842a.847.847 0 01.837-.845.84.84 0 01.842.845v15.812a.843.843 0 01-.842.845z" fill="#E0E0E0"/><path d="M61.453 81.499a.822.822 0 01-.838-.77v-2.19a.879.879 0 01.505-.835.87.87 0 01.333-.08.835.835 0 01.778.518.843.843 0 01.064.323v2.189a.843.843 0 01-.842.845z" fill="#EBF2F9"/><path d="M61.205 82.922c0 .478-.262.727-.641.727a.652.652 0 01-.332-.074l.057-.118a.479.479 0 00.27.065c.306 0 .498-.192.498-.573a1.029 1.029 0 000-.114.437.437 0 01-.437.24.435.435 0 01-.475-.437.44.44 0 01.48-.438c.375.022.58.28.58.722zm-.2-.275c0-.158-.127-.303-.371-.303a.304.304 0 00-.34.303c0 .188.135.306.353.306a.323.323 0 00.358-.306zm.404.289c0-.438.235-.714.558-.714.323 0 .559.267.559.714 0 .446-.236.713-.559.713-.323 0-.558-.267-.558-.713zm.968 0c0-.377-.166-.583-.41-.583-.244 0-.414.206-.414.583 0 .376.17.582.414.582.244 0 .41-.206.41-.582z" fill="#B3B3B3"/><path d="M64.814 81.499a.838.838 0 01-.778-.522.848.848 0 01-.064-.323V64.842a.85.85 0 01.842-.845.84.84 0 01.837.845v15.812a.844.844 0 01-.516.78.835.835 0 01-.321.065z" fill="#E0E0E0"/><path d="M64.814 81.498a.828.828 0 01-.842-.77v-7.79a.877.877 0 01.842-.915.836.836 0 01.837.84v7.786a.844.844 0 01-.515.785.835.835 0 01-.322.064z" fill="#EBF2F9"/><path d="M63.61 82.235v1.406h-.145v-1.279h-.331v-.127h.475zm.336.7c0-.438.231-.713.559-.713.327 0 .558.267.558.713 0 .447-.236.714-.558.714-.323 0-.559-.267-.559-.714zm.969 0c0-.376-.166-.582-.41-.582-.245 0-.415.206-.415.582 0 .377.17.583.415.583.244 0 .41-.206.41-.583zm.352 0c0-.438.235-.713.558-.713.323 0 .558.267.558.713 0 .447-.235.714-.558.714-.323 0-.558-.267-.558-.714zm.968 0c0-.376-.166-.582-.41-.582-.244 0-.414.206-.414.582 0 .377.17.583.414.583.244 0 .41-.206.41-.583z" fill="#B3B3B3"/><path d="M41.46 97.59c-.191.274-.458.48-.8.617a3.23 3.23 0 01-1.192.202c-.46 0-.867-.108-1.223-.323a2.182 2.182 0 01-.828-.924c-.193-.398-.293-.86-.298-1.386v-.493c0-.852.197-1.512.592-1.98.397-.469.954-.703 1.671-.703.588 0 1.062.151 1.42.454.359.3.578.727.658 1.281h-.743c-.14-.748-.583-1.122-1.33-1.122-.498 0-.876.176-1.134.528-.256.35-.385.857-.387 1.522v.463c0 .634.144 1.139.433 1.514.289.373.68.56 1.172.56.279 0 .523-.032.732-.094a1.13 1.13 0 00.518-.315v-1.27h-1.304v-.605h2.043v2.073zm1.336-1.398c0-.412.08-.782.24-1.111.163-.329.387-.582.673-.761.29-.179.618-.268.987-.268.57 0 1.03.198 1.38.594.354.396.53.923.53 1.58v.051c0 .409-.078.777-.235 1.103a1.766 1.766 0 01-.67.757 1.839 1.839 0 01-.998.272c-.567 0-1.027-.198-1.38-.594-.352-.396-.527-.92-.527-1.573v-.05zm.72.085c0 .466.107.84.32 1.122.218.282.506.424.867.424.364 0 .653-.143.867-.428.214-.287.321-.688.321-1.203 0-.461-.11-.834-.329-1.119a1.031 1.031 0 00-.866-.43c-.354 0-.639.14-.855.422-.217.283-.325.686-.325 1.212zm4.195-.085c0-.412.08-.782.24-1.111.162-.329.387-.582.673-.761.289-.179.618-.268.987-.268.57 0 1.03.198 1.38.594.354.396.53.923.53 1.58v.051c0 .409-.078.777-.235 1.103a1.768 1.768 0 01-.67.757 1.839 1.839 0 01-.998.272c-.567 0-1.028-.198-1.38-.594-.352-.396-.527-.92-.527-1.573v-.05zm.72.085c0 .466.107.84.32 1.122.217.282.506.424.867.424.364 0 .653-.143.867-.428.214-.287.321-.688.321-1.203 0-.461-.11-.834-.329-1.119a1.031 1.031 0 00-.866-.43c-.354 0-.639.14-.855.422-.217.283-.325.686-.325 1.212zm4.214-.082c0-.654.151-1.175.453-1.56a1.444 1.444 0 011.2-.583c.51 0 .908.181 1.195.544l.035-.466h.653v4.1c0 .544-.16.972-.483 1.285-.32.314-.75.47-1.292.47-.302 0-.597-.064-.886-.194a1.525 1.525 0 01-.662-.532l.371-.43c.307.38.683.57 1.126.57.348 0 .62-.098.813-.295.196-.197.294-.474.294-.831v-.361c-.287.331-.677.497-1.173.497-.49 0-.887-.198-1.191-.594-.302-.396-.453-.936-.453-1.62zm.72.082c0 .474.097.847.29 1.118.193.27.464.404.812.404.452 0 .783-.206.995-.617v-1.919c-.22-.4-.548-.601-.987-.601a.95.95 0 00-.816.407c-.196.272-.294.675-.294 1.208zm5.073 2.054h-.715v-5.964h.715v5.964zm3.282.078c-.567 0-1.029-.187-1.384-.56-.356-.375-.534-.876-.534-1.502v-.132c0-.417.078-.788.236-1.115.16-.328.381-.585.665-.768a1.67 1.67 0 01.929-.28c.544 0 .967.18 1.269.54.301.36.452.875.452 1.545v.3h-2.836c.01.413.13.749.36 1.005.232.254.526.38.882.38.253 0 .467-.051.642-.155.176-.103.33-.24.46-.412l.438.342c-.35.541-.877.812-1.578.812zm-.088-3.767a.95.95 0 00-.728.319c-.196.21-.317.504-.363.885h2.097v-.054c-.021-.365-.12-.648-.294-.847-.176-.202-.413-.303-.712-.303zm246.083.405h-1.67v5.609h1.67v-5.61zm-13.933-.81h-1.67v6.419h1.67v-6.42zm3.484-1.342h-1.67v7.761h1.67v-7.76zm3.482.429h-1.67v7.336h1.67v-7.336zm3.483-2.481h-1.669v9.814h1.669v-9.814zm6.968.047h-1.67v9.767h1.67V90.89zm3.482 3.207h-1.67v6.559h1.67v-6.56zm3.484-2.776h-1.67v9.339h1.67v-9.339zm3.484-2.104h-1.67v11.439h1.67V89.217zm3.484 2.054h-1.67v9.386h1.67v-9.386z" fill="#E0E0E0"/><path d="M328.619 107.615h-41.035a3.376 3.376 0 01-2.391-.994 3.4 3.4 0 01-.991-2.401V79.611c0-.9.356-1.764.991-2.4a3.374 3.374 0 012.391-.994h41.035c.897 0 1.757.357 2.391.994a3.4 3.4 0 01.99 2.4v24.609c0 .901-.356 1.764-.99 2.401a3.376 3.376 0 01-2.391.994zm-41.035-31.089a3.05 3.05 0 00-2.157.899 3.073 3.073 0 00-.895 2.165v24.609c.001.812.323 1.591.895 2.165a3.056 3.056 0 002.157.899h41.035a3.056 3.056 0 003.073-3.051v-24.61a3.073 3.073 0 00-.895-2.165 3.05 3.05 0 00-2.157-.898l-41.056-.013z" fill="#EBF2F9"/><path d="M310.944 84.376c0 .046-4.747.088-10.602.088-5.854 0-10.602-.042-10.602-.088 0-.047 4.748-.09 10.602-.09 5.855 0 10.602.026 10.602.09z" fill="#EBF2F9"/><path d="M296.921 113.12l1.425-2.751h.817l-1.882 3.435v2.044h-.719v-2.044l-1.882-3.435h.824l1.417 2.751zm5.449 2.728c-.04-.081-.072-.224-.097-.429a1.547 1.547 0 01-1.155.504c-.4 0-.729-.113-.986-.339a1.11 1.11 0 01-.382-.865c0-.424.16-.753.479-.986.323-.236.775-.354 1.357-.354h.675v-.32c0-.243-.072-.436-.217-.579-.145-.145-.359-.218-.641-.218-.248 0-.455.062-.623.188-.167.125-.251.277-.251.455h-.697c0-.203.071-.399.214-.587.145-.19.34-.341.585-.451a1.96 1.96 0 01.813-.166c.467 0 .834.118 1.098.354.265.233.403.555.413.967v1.874c0 .373.047.671.142.891v.061h-.727zm-1.151-.531c.218 0 .424-.056.619-.169.195-.113.336-.26.423-.44v-.836h-.543c-.85 0-1.275.25-1.275.749 0 .218.073.389.218.512a.83.83 0 00.558.184zm3.863-3.541l.022.512c.31-.391.715-.587 1.215-.587.857 0 1.29.486 1.297 1.456v2.691h-.693v-2.694c-.003-.294-.07-.511-.203-.651-.13-.141-.334-.211-.611-.211a1 1 0 00-.592.18c-.17.121-.303.279-.398.475v2.901h-.693v-4.072h.656zm3.795 2.002c0-.624.148-1.126.443-1.505a1.395 1.395 0 011.158-.572c.475 0 .851.163 1.128.489v-2.122h.694v5.78h-.637l-.034-.437c-.278.341-.664.512-1.159.512-.469 0-.853-.193-1.15-.58-.295-.386-.443-.89-.443-1.512v-.053zm.694.079c0 .462.095.823.285 1.084.19.261.452.391.787.391.44 0 .761-.198.963-.594v-1.87c-.207-.384-.526-.576-.956-.576a.924.924 0 00-.794.395c-.19.263-.285.653-.285 1.17zm5.876 2.066c-.55 0-.998-.181-1.343-.542-.344-.364-.517-.849-.517-1.456v-.128c0-.404.076-.764.229-1.08.155-.319.37-.567.645-.745.277-.181.577-.271.899-.271.528 0 .938.174 1.23.523.292.349.439.848.439 1.498v.289h-2.748c.01.402.126.727.348.975.225.246.51.369.855.369.245 0 .452-.05.622-.151.17-.1.319-.233.446-.399l.424.331c-.34.525-.85.787-1.529.787zm-.087-3.65a.917.917 0 00-.704.309c-.19.203-.308.489-.353.858h2.032v-.053c-.02-.354-.115-.627-.285-.82-.17-.196-.4-.294-.69-.294zm4.219.99l.9-1.487h.81l-1.327 2.013 1.368 2.059h-.802l-.938-1.524-.937 1.524h-.806l1.369-2.059-1.327-2.013h.802l.888 1.487z" fill="#E0E0E0"/><defs><filter id="filter0_d" x="0" y="128.267" width="337.617" height="110.733" filterUnits="userSpaceOnUse" color-interpolation-filters="sRGB"><feFlood flood-opacity="0" result="BackgroundImageFix"/><feColorMatrix in="SourceAlpha" values="0 0 0 0 0 0 0 0 0 0 0 0 0 0 0 0 0 0 127 0"/><feOffset dx="2" dy="2"/><feGaussianBlur stdDeviation="2"/><feColorMatrix values="0 0 0 0 0 0 0 0 0 0 0 0 0 0 0 0 0 0 0.2 0"/><feBlend in2="BackgroundImageFix" result="effect1_dropShadow"/><feBlend in="SourceGraphic" in2="effect1_dropShadow" result="shape"/></filter><filter id="filter1_di" x="116.245" y="55.54" width="25.59" height="25.633" filterUnits="userSpaceOnUse" color-interpolation-filters="sRGB"><feFlood flood-opacity="0" result="BackgroundImageFix"/><feColorMatrix in="SourceAlpha" values="0 0 0 0 0 0 0 0 0 0 0 0 0 0 0 0 0 0 127 0"/><feOffset dx="2" dy="2"/><feGaussianBlur stdDeviation="2"/><feColorMatrix values="0 0 0 0 0 0 0 0 0 0 0 0 0 0 0 0 0 0 0.15 0"/><feBlend in2="BackgroundImageFix" result="effect1_dropShadow"/><feBlend in="SourceGraphic" in2="effect1_dropShadow" result="shape"/><feColorMatrix in="SourceAlpha" values="0 0 0 0 0 0 0 0 0 0 0 0 0 0 0 0 0 0 127 0" result="hardAlpha"/><feOffset dx="-2" dy="-2"/><feGaussianBlur stdDeviation="2"/><feComposite in2="hardAlpha" operator="arithmetic" k2="-1" k3="1"/><feColorMatrix values="0 0 0 0 0 0 0 0 0 0 0 0 0 0 0 0 0 0 0.2 0"/><feBlend in2="shape" result="effect2_innerShadow"/></filter><filter id="filter2_di" x="204.194" y="55.54" width="25.59" height="25.633" filterUnits="userSpaceOnUse" color-interpolation-filters="sRGB"><feFlood flood-opacity="0" result="BackgroundImageFix"/><feColorMatrix in="SourceAlpha" values="0 0 0 0 0 0 0 0 0 0 0 0 0 0 0 0 0 0 127 0"/><feOffset dx="2" dy="2"/><feGaussianBlur stdDeviation="2"/><feColorMatrix values="0 0 0 0 0 0 0 0 0 0 0 0 0 0 0 0 0 0 0.15 0"/><feBlend in2="BackgroundImageFix" result="effect1_dropShadow"/><feBlend in="SourceGraphic" in2="effect1_dropShadow" result="shape"/><feColorMatrix in="SourceAlpha" values="0 0 0 0 0 0 0 0 0 0 0 0 0 0 0 0 0 0 127 0" result="hardAlpha"/><feOffset dx="-2" dy="-2"/><feGaussianBlur stdDeviation="2"/><feComposite in2="hardAlpha" operator="arithmetic" k2="-1" k3="1"/><feColorMatrix values="0 0 0 0 0 0 0 0 0 0 0 0 0 0 0 0 0 0 0.2 0"/><feBlend in2="shape" result="effect2_innerShadow"/></filter><filter id="filter3_di" x="141.866" y="31.774" width="25.59" height="25.633" filterUnits="userSpaceOnUse" color-interpolation-filters="sRGB"><feFlood flood-opacity="0" result="BackgroundImageFix"/><feColorMatrix in="SourceAlpha" values="0 0 0 0 0 0 0 0 0 0 0 0 0 0 0 0 0 0 127 0"/><feOffset dx="2" dy="2"/><feGaussianBlur stdDeviation="2"/><feColorMatrix values="0 0 0 0 0 0 0 0 0 0 0 0 0 0 0 0 0 0 0.15 0"/><feBlend in2="BackgroundImageFix" result="effect1_dropShadow"/><feBlend in="SourceGraphic" in2="effect1_dropShadow" result="shape"/><feColorMatrix in="SourceAlpha" values="0 0 0 0 0 0 0 0 0 0 0 0 0 0 0 0 0 0 127 0" result="hardAlpha"/><feOffset dx="-2" dy="-2"/><feGaussianBlur stdDeviation="2"/><feComposite in2="hardAlpha" operator="arithmetic" k2="-1" k3="1"/><feColorMatrix values="0 0 0 0 0 0 0 0 0 0 0 0 0 0 0 0 0 0 0.2 0"/><feBlend in2="shape" result="effect2_innerShadow"/></filter><filter id="filter4_di" x="178.575" y="31.774" width="25.59" height="25.633" filterUnits="userSpaceOnUse" color-interpolation-filters="sRGB"><feFlood flood-opacity="0" result="BackgroundImageFix"/><feColorMatrix in="SourceAlpha" values="0 0 0 0 0 0 0 0 0 0 0 0 0 0 0 0 0 0 127 0"/><feOffset dx="2" dy="2"/><feGaussianBlur stdDeviation="2"/><feColorMatrix values="0 0 0 0 0 0 0 0 0 0 0 0 0 0 0 0 0 0 0.15 0"/><feBlend in2="BackgroundImageFix" result="effect1_dropShadow"/><feBlend in="SourceGraphic" in2="effect1_dropShadow" result="shape"/><feColorMatrix in="SourceAlpha" values="0 0 0 0 0 0 0 0 0 0 0 0 0 0 0 0 0 0 127 0" result="hardAlpha"/><feOffset dx="-2" dy="-2"/><feGaussianBlur stdDeviation="2"/><feComposite in2="hardAlpha" operator="arithmetic" k2="-1" k3="1"/><feColorMatrix values="0 0 0 0 0 0 0 0 0 0 0 0 0 0 0 0 0 0 0.2 0"/><feBlend in2="shape" result="effect2_innerShadow"/></filter><filter id="filter5_di" x="75.712" y="18.357" width="28.267" height="24.1" filterUnits="userSpaceOnUse" color-interpolation-filters="sRGB"><feFlood flood-opacity="0" result="BackgroundImageFix"/><feColorMatrix in="SourceAlpha" values="0 0 0 0 0 0 0 0 0 0 0 0 0 0 0 0 0 0 127 0"/><feOffset dx="2" dy="2"/><feGaussianBlur stdDeviation="2"/><feColorMatrix values="0 0 0 0 0 0 0 0 0 0 0 0 0 0 0 0 0 0 0.15 0"/><feBlend in2="BackgroundImageFix" result="effect1_dropShadow"/><feBlend in="SourceGraphic" in2="effect1_dropShadow" result="shape"/><feColorMatrix in="SourceAlpha" values="0 0 0 0 0 0 0 0 0 0 0 0 0 0 0 0 0 0 127 0" result="hardAlpha"/><feOffset dx="-2" dy="-2"/><feGaussianBlur stdDeviation="2"/><feComposite in2="hardAlpha" operator="arithmetic" k2="-1" k3="1"/><feColorMatrix values="0 0 0 0 0 0 0 0 0 0 0 0 0 0 0 0 0 0 0.2 0"/><feBlend in2="shape" result="effect2_innerShadow"/></filter><filter id="filter6_di" x="165.485" y="5.126" width="20.58" height="17.86" filterUnits="userSpaceOnUse" color-interpolation-filters="sRGB"><feFlood flood-opacity="0" result="BackgroundImageFix"/><feColorMatrix in="SourceAlpha" values="0 0 0 0 0 0 0 0 0 0 0 0 0 0 0 0 0 0 127 0"/><feOffset dx="2" dy="2"/><feGaussianBlur stdDeviation="2"/><feColorMatrix values="0 0 0 0 0 0 0 0 0 0 0 0 0 0 0 0 0 0 0.15 0"/><feBlend in2="BackgroundImageFix" result="effect1_dropShadow"/><feBlend in="SourceGraphic" in2="effect1_dropShadow" result="shape"/><feColorMatrix in="SourceAlpha" values="0 0 0 0 0 0 0 0 0 0 0 0 0 0 0 0 0 0 127 0" result="hardAlpha"/><feOffset dx="-2" dy="-2"/><feGaussianBlur stdDeviation="2"/><feComposite in2="hardAlpha" operator="arithmetic" k2="-1" k3="1"/><feColorMatrix values="0 0 0 0 0 0 0 0 0 0 0 0 0 0 0 0 0 0 0.2 0"/><feBlend in2="shape" result="effect2_innerShadow"/></filter><filter id="filter7_di" x="275.104" y="129.145" width="22.345" height="19.251" filterUnits="userSpaceOnUse" color-interpolation-filters="sRGB"><feFlood flood-opacity="0" result="BackgroundImageFix"/><feColorMatrix in="SourceAlpha" values="0 0 0 0 0 0 0 0 0 0 0 0 0 0 0 0 0 0 127 0"/><feOffset dx="2" dy="2"/><feGaussianBlur stdDeviation="2"/><feColorMatrix values="0 0 0 0 0 0 0 0 0 0 0 0 0 0 0 0 0 0 0.15 0"/><feBlend in2="BackgroundImageFix" result="effect1_dropShadow"/><feBlend in="SourceGraphic" in2="effect1_dropShadow" result="shape"/><feColorMatrix in="SourceAlpha" values="0 0 0 0 0 0 0 0 0 0 0 0 0 0 0 0 0 0 127 0" result="hardAlpha"/><feOffset dx="-2" dy="-2"/><feGaussianBlur stdDeviation="2"/><feComposite in2="hardAlpha" operator="arithmetic" k2="-1" k3="1"/><feColorMatrix values="0 0 0 0 0 0 0 0 0 0 0 0 0 0 0 0 0 0 0.2 0"/><feBlend in2="shape" result="effect2_innerShadow"/></filter><filter id="filter8_di" x="248.273" y="49.088" width="27.848" height="23.595" filterUnits="userSpaceOnUse" color-interpolation-filters="sRGB"><feFlood flood-opacity="0" result="BackgroundImageFix"/><feColorMatrix in="SourceAlpha" values="0 0 0 0 0 0 0 0 0 0 0 0 0 0 0 0 0 0 127 0"/><feOffset dx="2" dy="2"/><feGaussianBlur stdDeviation="2"/><feColorMatrix values="0 0 0 0 0 0 0 0 0 0 0 0 0 0 0 0 0 0 0.15 0"/><feBlend in2="BackgroundImageFix" result="effect1_dropShadow"/><feBlend in="SourceGraphic" in2="effect1_dropShadow" result="shape"/><feColorMatrix in="SourceAlpha" values="0 0 0 0 0 0 0 0 0 0 0 0 0 0 0 0 0 0 127 0" result="hardAlpha"/><feOffset dx="-2" dy="-2"/><feGaussianBlur stdDeviation="2"/><feComposite in2="hardAlpha" operator="arithmetic" k2="-1" k3="1"/><feColorMatrix values="0 0 0 0 0 0 0 0 0 0 0 0 0 0 0 0 0 0 0.2 0"/><feBlend in2="shape" result="effect2_innerShadow"/></filter><filter id="filter9_di" x="89.655" y="101.54" width="28.183" height="23.875" filterUnits="userSpaceOnUse" color-interpolation-filters="sRGB"><feFlood flood-opacity="0" result="BackgroundImageFix"/><feColorMatrix in="SourceAlpha" values="0 0 0 0 0 0 0 0 0 0 0 0 0 0 0 0 0 0 127 0"/><feOffset dx="2" dy="2"/><feGaussianBlur stdDeviation="2"/><feColorMatrix values="0 0 0 0 0 0 0 0 0 0 0 0 0 0 0 0 0 0 0.15 0"/><feBlend in2="BackgroundImageFix" result="effect1_dropShadow"/><feBlend in="SourceGraphic" in2="effect1_dropShadow" result="shape"/><feColorMatrix in="SourceAlpha" values="0 0 0 0 0 0 0 0 0 0 0 0 0 0 0 0 0 0 127 0" result="hardAlpha"/><feOffset dx="-2" dy="-2"/><feGaussianBlur stdDeviation="2"/><feComposite in2="hardAlpha" operator="arithmetic" k2="-1" k3="1"/><feColorMatrix values="0 0 0 0 0 0 0 0 0 0 0 0 0 0 0 0 0 0 0.2 0"/><feBlend in2="shape" result="effect2_innerShadow"/></filter><filter id="filter10_f" x="117.155" y="143.68" width="96.381" height="49.473" filterUnits="userSpaceOnUse" color-interpolation-filters="sRGB"><feFlood flood-opacity="0" result="BackgroundImageFix"/><feBlend in="SourceGraphic" in2="BackgroundImageFix" result="shape"/><feGaussianBlur stdDeviation="1" result="effect1_foregroundBlur"/></filter><filter id="filter11_f" x="120.789" y="160.809" width="43.373" height="25.924" filterUnits="userSpaceOnUse" color-interpolation-filters="sRGB"><feFlood flood-opacity="0" result="BackgroundImageFix"/><feBlend in="SourceGraphic" in2="BackgroundImageFix" result="shape"/><feGaussianBlur stdDeviation="2" result="effect1_foregroundBlur"/></filter><filter id="filter12_f" x="167.151" y="164.083" width="54.362" height="26.614" filterUnits="userSpaceOnUse" color-interpolation-filters="sRGB"><feFlood flood-opacity="0" result="BackgroundImageFix"/><feBlend in="SourceGraphic" in2="BackgroundImageFix" result="shape"/><feGaussianBlur stdDeviation="2" result="effect1_foregroundBlur"/></filter><linearGradient id="paint0_linear" x1="97.354" y1="28.407" x2="78.317" y2="27.893" gradientUnits="userSpaceOnUse"><stop stop-color="#A62E41"/><stop offset="1" stop-color="#E13152"/></linearGradient><linearGradient id="paint1_linear" x1="178.816" y1="8.205" x2="168.349" y2="15.232" gradientUnits="userSpaceOnUse"><stop stop-color="#A62E41"/><stop offset="1" stop-color="#E13152"/></linearGradient><linearGradient id="paint2_linear" x1="290.018" y1="132.38" x2="278.1" y2="140.383" gradientUnits="userSpaceOnUse"><stop stop-color="#A62E41"/><stop offset="1" stop-color="#E13152"/></linearGradient><linearGradient id="paint3_linear" x1="4953.25" y1="5346.43" x2="5447.53" y2="5884.93" gradientUnits="userSpaceOnUse"><stop stop-color="#65BBFF"/><stop offset="1" stop-color="#315DA4"/></linearGradient><linearGradient id="paint4_linear" x1="4891" y1="5522.1" x2="5396.86" y2="6071.81" gradientUnits="userSpaceOnUse"><stop stop-color="#65BBFF"/><stop offset="1" stop-color="#315DA4"/></linearGradient><linearGradient id="paint5_linear" x1="153.097" y1="128.201" x2="169.392" y2="215.861" gradientUnits="userSpaceOnUse"><stop stop-color="#B4D1FA" stop-opacity="0"/><stop offset="1" stop-opacity=".2"/></linearGradient><linearGradient id="paint6_linear" x1="171.439" y1="150.169" x2="123.812" y2="151.295" gradientUnits="userSpaceOnUse"><stop stop-color="#71A0DD" stop-opacity="0"/><stop offset="1" stop-color="#71A0DD" stop-opacity=".5"/></linearGradient></defs></svg>