<svg width="66" height="86" fill="none" xmlns="http://www.w3.org/2000/svg"><g filter="url(#filter0_di)"><path d="M44.519 22.452L12.783 34.079c-2.166.797-4.038 2.338-5.205 4.287-1.167 1.949-1.535 4.147-1.023 6.114l3.188 12.05c.524 1.962 1.884 3.53 3.783 4.36 1.899.83 4.183.855 6.352.069l7.673-2.806c4.46 1.778 7.337 3.608 8.57 3.193 1.233-.416 2.94-4.402 5.52-8.31l9.958-3.732c2.166-.797 4.038-2.338 5.205-4.287 1.167-1.949 1.534-4.147 1.023-6.114l-3.18-12.055c-.536-1.95-1.899-3.506-3.794-4.329-1.895-.822-4.17-.847-6.334-.067z" fill="url(#paint0_linear)"/><path d="M22.305 44.751l2.238 8.127c.15.545.78.81 1.405.592l3.362-1.176c.625-.219 1.01-.838.86-1.384l-2.238-8.127c-.15-.545-.779-.81-1.404-.592l-3.362 1.176c-.625.219-1.01.839-.86 1.384zm18.305-6.404l-.17.103c.381-.218.69-.546.874-.927.184-.38.232-.792.135-1.163a1.4 1.4 0 00-.667-.868 1.722 1.722 0 00-1.164-.18l-5.522 2.023c.586-1.446.798-2.958.614-4.393-.53-2.014-2.028-2.694-2.857-2.526a1.689 1.689 0 00-.94.505 1.505 1.505 0 00-.425.936c-.067.695.634 1.695.593 2.165-.084.724-1.052 2-2.23 4.552-.608 1.404-.71 2.895-.29 4.216l.732 2.784.72 2.781.342 1.292a.856.856 0 00.493.576c.123.054.26.083.403.085.143.001.29-.025.43-.076l10.264-3.754a1.556 1.556 0 00.824-.653 1.35 1.35 0 00.183-.476 1.127 1.127 0 00-.017-.479.996.996 0 00-.594-.675 1.208 1.208 0 00-.482-.09c-.17.003-.344.038-.51.104l.163-.098a1.905 1.905 0 001.039-.794c.117-.186.197-.387.234-.591.037-.204.03-.407-.02-.597a1.22 1.22 0 00-.745-.835 1.49 1.49 0 00-.603-.102 1.77 1.77 0 00-.633.143l.566-.21a1.901 1.901 0 001.04-.794c.117-.186.197-.387.233-.59.037-.205.03-.408-.019-.597a1.219 1.219 0 00-.745-.836 1.489 1.489 0 00-.604-.102 1.77 1.77 0 00-.633.143l-.012-.002z" fill="#FCFCFC"/></g><defs><linearGradient id="paint0_linear" x1="12856.8" y1="15558.8" x2="14248.9" y2="17103.9" gradientUnits="userSpaceOnUse"><stop stop-color="#65BBFF"/><stop offset="1" stop-color="#315DA4"/></linearGradient><filter id="filter0_di" x="4.33" y="19.884" width="59.722" height="47.647" filterUnits="userSpaceOnUse" color-interpolation-filters="sRGB"><feFlood flood-opacity="0" result="BackgroundImageFix"/><feColorMatrix in="SourceAlpha" values="0 0 0 0 0 0 0 0 0 0 0 0 0 0 0 0 0 0 127 0"/><feOffset dx="2" dy="2"/><feGaussianBlur stdDeviation="2"/><feColorMatrix values="0 0 0 0 0 0 0 0 0 0 0 0 0 0 0 0 0 0 0.15 0"/><feBlend in2="BackgroundImageFix" result="effect1_dropShadow"/><feBlend in="SourceGraphic" in2="effect1_dropShadow" result="shape"/><feColorMatrix in="SourceAlpha" values="0 0 0 0 0 0 0 0 0 0 0 0 0 0 0 0 0 0 127 0" result="hardAlpha"/><feOffset dx="-2" dy="-2"/><feGaussianBlur stdDeviation="2"/><feComposite in2="hardAlpha" operator="arithmetic" k2="-1" k3="1"/><feColorMatrix values="0 0 0 0 0 0 0 0 0 0 0 0 0 0 0 0 0 0 0.2 0"/><feBlend in2="shape" result="effect2_innerShadow"/></filter></defs></svg>