<svg width="802" height="483" viewBox="0 0 802 483" fill="none" xmlns="http://www.w3.org/2000/svg">
<g filter="url(#filter0_f)">
<path d="M388.169 348.208L245.376 396.121L288.6 462.196L486.966 466.833L450.303 421.238L388.169 348.208Z" fill="url(#paint0_linear)"/>
</g>
<path d="M420.971 223.013C392.681 233.575 361.719 234.623 341.47 223.013C341.47 223.013 333.245 184.922 341.47 162.735C347.645 138.005 370.579 131.087 388.168 133.754C388.168 133.754 391.444 130.1 399.731 133.754C425.988 151.529 423.286 183.214 420.971 223.013Z" fill="#412716"/>
<path d="M416.341 167.275C405.539 171.299 397.032 167.374 385.516 167.275C369.111 167.275 360.217 173.26 349.576 167.275C343.095 185.911 335.56 195.579 341.603 226.491C347.646 257.403 345.92 267.603 350.638 283.263C379.689 300.773 392.39 302.466 413.185 283.22C413.185 283.22 409.781 260.108 420.201 233.06C426.761 206.012 422.254 190.437 418.864 175.737C418.249 172.632 417.131 169.901 416.341 167.275Z" fill="#3C2415"/>
<path d="M379.448 172.781C359.797 172.781 347.041 240.296 349.001 300.596C373.218 309.799 392.481 314.474 418.103 296.914C420.321 239.965 399.986 172.781 379.448 172.781Z" fill="#3B2415"/>
<path d="M339.716 254.759C339.716 254.759 349.186 248.81 363.243 244.474C364.625 244.048 365.81 243.084 366.29 241.72C368.593 235.184 367.182 229.354 367.182 221.456L397.86 218.706C397.86 218.706 396.985 231 398.551 241.403C398.87 243.517 400.633 245.029 402.734 245.42C405.81 245.992 409.254 247.034 418.807 249.824C424.165 249.824 381.417 298.403 381.417 298.403L339.716 254.759Z" fill="#FFCFAE"/>
<path d="M420.985 345.361L435.017 419.145C435.017 419.145 410.624 431.554 382.701 431.554C365.333 431.709 348.21 427.439 332.949 419.145L344.988 345.361L345.635 312.282C335.956 305.001 339.281 285.273 339.281 285.273L332.949 256.587L351.982 248.488L361.499 244.438L364.33 250.747C373.064 264.748 389.821 264.845 400.264 249.724L403.555 244.438L415.538 248.488L435.24 254.971L428.236 286.531C428.236 286.531 430.33 304.773 420.985 313.281V345.361Z" fill="#E63067"/>
<path d="M417.85 316.271C417.85 316.271 390.912 335.312 352.121 317.423C352.121 317.423 388.348 327.176 417.85 316.271Z" fill="#C11C57"/>
<path d="M344.098 286.141C344.098 286.141 330.318 326.521 319.672 346.899C319.672 346.899 347.366 364.896 363.248 380.712C363.248 380.712 359.685 402.399 353.479 394.318C353.479 394.318 310.413 368.714 300.063 353.444C300.063 353.444 314.15 271.02 332.97 256.587C339.549 265.106 343.425 275.399 344.098 286.141Z" fill="#E63067"/>
<path d="M423.871 286.141C423.871 286.141 435.377 328.703 446.041 349.081C446.041 349.081 432.968 358.352 403.555 382.348L414.994 391.619C414.994 391.619 454.626 366.023 462.797 353.48C462.797 353.48 449.156 270.705 435.241 254.878C428.72 264.093 424.793 274.89 423.871 286.141Z" fill="#E63067"/>
<path d="M263.104 383.179C263.104 383.179 282.939 376.67 322.393 387.802L325.117 395.982L263.104 383.179Z" fill="#06264A"/>
<path d="M441.526 393.614L500.607 382.774C500.607 382.774 478.091 378.253 441.975 387.32" fill="#06264A"/>
<path d="M383.236 426.926C410.492 426.926 432.588 419.049 432.588 409.333C432.588 399.616 410.492 391.739 383.236 391.739C355.98 391.739 333.885 399.616 333.885 409.333C333.885 419.049 355.98 426.926 383.236 426.926Z" fill="#06264A"/>
<path d="M330.85 405.876L432.458 406.286C434.672 406.282 436.819 405.533 438.553 404.162C440.286 402.79 441.505 400.875 442.012 398.727L445.28 342.753C445.635 340.782 445.55 338.758 445.031 336.825C444.513 334.891 443.573 333.095 442.279 331.564C440.985 330.033 439.369 328.806 437.545 327.969C435.722 327.132 433.735 326.706 431.728 326.721L332.594 327.662C330.578 327.68 328.591 328.142 326.774 329.014C324.958 329.886 323.357 331.148 322.086 332.709C320.816 334.269 319.906 336.09 319.423 338.042C318.94 339.994 318.895 342.028 319.292 343.999L321.602 399.369C322.283 401.272 323.537 402.918 325.192 404.083C326.848 405.248 328.824 405.874 330.85 405.876Z" fill="#EDF5FF" stroke="#71A0DD" stroke-width="0.3"/>
<path d="M408.497 327.108L332.591 327.662C330.575 327.679 328.588 328.141 326.772 329.013C324.955 329.885 323.354 331.147 322.083 332.708C320.813 334.268 319.903 336.09 319.42 338.041C318.937 339.993 318.892 342.027 319.289 343.998L322.032 399.995C322.713 401.897 323.967 403.544 325.622 404.708C327.278 405.873 329.254 406.5 331.28 406.502H356.51L408.497 327.108Z" fill="url(#paint1_linear)"/>
<path d="M382.498 377.326C389.185 377.326 394.606 372.33 394.606 366.167C394.606 360.004 389.185 355.009 382.498 355.009C375.811 355.009 370.39 360.004 370.39 366.167C370.39 372.33 375.811 377.326 382.498 377.326Z" fill="#61A6FF"/>
<path d="M324.646 394.963C316.721 390.779 308.184 387.884 299.355 386.386C291.295 384.999 280.622 383.409 269.68 382.479C260.676 381.717 258.653 387.757 259.327 394.963C260.491 407.397 269.899 421.809 281.701 425.734C301.816 432.382 340.158 444.342 383.759 454.137C383.759 454.137 392.021 440.604 388.818 429.168L380.606 424.516L324.646 394.963Z" fill="#0A3D76"/>
<path d="M352.171 446.035C352.171 446.035 345.539 441.703 342.261 445.74C339.005 450.001 338.941 449.199 335.269 449.421C331.575 449.419 318.956 445.056 305.525 441.246C292.117 437.661 280.35 450.009 285.038 459.66C289.726 469.311 316.498 463.828 323.098 464.611C329.698 465.394 330.887 466.384 336.85 465.2C342.813 464.016 359.026 465.861 359.376 460.82C359.535 456.028 354.763 447.99 352.171 446.035Z" fill="#B4D1FA" stroke="#263238" stroke-width="0.5" stroke-miterlimit="10" stroke-linecap="round" stroke-linejoin="round"/>
<path d="M295.884 464.725C297.15 457.759 295.077 447.841 293.507 442.31C285.746 445.802 281.398 454.025 285.096 460.497C286.626 463.121 290.777 464.35 295.884 464.725Z" fill="#C43B55" stroke="#263238" stroke-width="0.5" stroke-miterlimit="10" stroke-linecap="round" stroke-linejoin="round"/>
<mask id="mask0" mask-type="alpha" maskUnits="userSpaceOnUse" x="283" y="440" width="77" height="26">
<path d="M351.949 445.948C351.949 445.948 345.288 442.214 342.067 446.18C337.533 450.759 338.806 449.578 335.199 449.797C331.569 449.794 319.275 445.316 306.079 441.574C292.975 437.637 280.305 448.572 285.11 459.945C289.478 468.255 316.634 463.55 323.118 464.319C329.603 465.088 331.238 465.92 337.096 464.756C342.954 463.593 358.596 465.773 358.939 460.82C359.095 456.112 354.495 447.869 351.949 445.948Z" fill="#B4D1FA" stroke="#263238" stroke-width="0.5" stroke-miterlimit="10" stroke-linecap="round" stroke-linejoin="round"/>
</mask>
<g mask="url(#mask0)">
<path d="M302.567 465.274C301.578 459.434 300.268 442.972 297.583 439.393M310.391 467.269C309.785 460.852 307.363 443.276 304.047 440.061M318.413 466.911C318.212 460.616 315.869 445.087 313.238 443.187M326.827 464.036C326.266 459.018 323.786 446.773 321.786 444.508M337.791 465.777C334.098 461.274 330.771 446.035 332.076 445.572M348.134 466.846C335.564 459.896 338.173 442.038 344.898 440.933" stroke="#0A3D76" stroke-width="4" stroke-linecap="round"/>
</g>
<path d="M424.082 447.982C424.082 447.982 429.272 442.317 432.551 446.354C435.806 450.615 441.806 451.511 445.477 451.733C449.172 451.731 461.791 447.368 475.222 443.559C488.63 439.974 500.397 452.321 495.709 461.972C491.021 471.623 464.248 466.141 457.648 466.923C451.048 467.706 449.86 468.697 443.897 467.512C437.934 466.328 421.72 468.174 421.37 463.132C421.212 458.341 421.49 449.937 424.082 447.982Z" fill="#B4D1FA" stroke="black" stroke-width="0.5" stroke-miterlimit="10" stroke-linecap="round" stroke-linejoin="round"/>
<path d="M484.374 466.753C483.109 459.787 485.182 449.869 486.751 444.338C494.512 447.83 498.861 456.054 495.162 462.525C493.633 465.149 489.482 466.378 484.374 466.753Z" fill="#C43B55" stroke="#263238" stroke-width="0.5" stroke-miterlimit="10" stroke-linecap="round" stroke-linejoin="round"/>
<mask id="mask1" mask-type="alpha" maskUnits="userSpaceOnUse" x="421" y="442" width="76" height="26">
<path d="M423.943 446.227C423.943 446.227 432.418 443.933 435.639 447.899C440.173 452.479 441.455 451.606 445.062 451.825C448.691 451.823 460.986 447.345 474.181 443.602C487.286 439.666 499.956 450.601 495.151 461.973C490.782 470.284 463.626 465.578 457.142 466.347C450.658 467.116 449.022 467.948 443.164 466.784C437.306 465.621 421.665 467.801 421.321 462.848C421.165 458.141 421.396 448.147 423.943 446.227Z" fill="#B4D1FA" stroke="#263238" stroke-width="0.5" stroke-miterlimit="10" stroke-linecap="round" stroke-linejoin="round"/>
</mask>
<g mask="url(#mask1)">
<path d="M477.692 467.302C478.682 461.462 479.992 445 482.677 441.422M469.869 469.298C470.475 462.88 472.897 445.304 476.213 442.09M461.847 468.94C462.047 462.644 464.39 447.115 467.022 445.215M453.432 466.065C453.994 461.046 456.473 448.801 458.474 446.536M442.469 467.805C446.162 463.303 449.488 448.064 448.184 447.6M432.125 468.874C444.696 461.924 442.086 444.066 435.362 442.962" stroke="#0A3D76" stroke-width="4" stroke-linecap="round"/>
</g>
<path d="M425.778 464.756C423.67 464.012 384.651 452.03 384.651 452.03L375.697 454.466C375.697 454.466 363.539 459.05 354.569 461.841C349.553 460.84 341.282 456.436 345.711 446.655C346.308 445.338 347.562 444.421 348.917 443.914C352.408 442.607 359.098 439.815 362.938 437.676C367.327 435.215 374.442 431.021 379.104 429.134C382.618 427.737 383.433 427.208 383.505 427.009L383.234 426.893C383.234 426.893 383.556 426.868 383.505 427.009L420.536 442.886L429.669 445.501C437.557 452.594 436.7 459.07 429.669 464.225C428.836 464.756 426.652 465.194 425.778 464.756Z" fill="#FFCFAE"/>
<path d="M380.453 449.815C380.902 449.516 378.477 450.355 365.185 456.11C359.756 458.461 355.141 459.85 351.265 460.63C352.115 461.528 354.551 461.743 355.444 461.694C357.511 461.311 358.977 460.891 359.13 460.338C366.996 457.491 373.021 455.615 382.249 452.513L380.453 449.815Z" fill="#EAAB85"/>
<path d="M439.855 394.963C447.779 390.779 456.316 387.884 465.146 386.386C473.205 384.999 483.878 383.409 494.821 382.479C503.892 381.717 505.898 387.757 505.224 394.963C504.077 407.397 497.94 423.467 486.137 427.375C466.022 434.04 427.681 445.983 384.079 455.795C384.079 455.795 372.53 440.57 375.649 429.168L383.978 424.516L439.855 394.963Z" fill="#0A3D76"/>
<path d="M347.582 444.198C341.465 449.447 344.524 460.382 354.571 461.694C355.882 461.694 358.677 461.432 359.376 460.382" stroke="black" stroke-width="0.5"/>
<path d="M420.974 463.444C422.016 464.153 425.779 466.068 429.441 464.648C438.448 457.758 435.826 452.509 431.457 447.26C431.166 446.969 429.885 445.073 428.837 445.073" stroke="black" stroke-width="0.5"/>
<g filter="url(#filter1_f)">
<path d="M278.518 423.738C266.663 419.062 261.304 404.705 260.106 398.11C282.11 419.692 311.748 428.684 352.612 441.723L346.774 444.87C328.962 439.924 290.373 428.414 278.518 423.738Z" fill="black" fill-opacity="0.1"/>
</g>
<g filter="url(#filter2_f)">
<path d="M502.597 406.653C481.94 425.986 413.534 443.671 381.352 451.164L384.495 455.211C414.432 448.167 474.755 431.381 486.88 426.885C496.31 423.388 501.549 410.999 502.597 406.653Z" fill="black" fill-opacity="0.1"/>
</g>
<path d="M415.731 462.132L390.332 453.862L392.577 453.412C409.147 459.793 423.158 463.094 425.779 464.756C427.304 465.723 419.43 463.147 415.731 462.132Z" fill="#DCA17D"/>
<path d="M396.696 223.186C379.693 230.918 377.91 227.458 368.252 223.725L368.252 223.943C379.947 245.531 391.344 234.596 396.696 223.725V223.186Z" fill="#EAAB85"/>
<path d="M353.539 192.699C354.374 197.729 355.892 203.721 358.246 209.437C365.311 220.24 370.508 230.552 382.476 230.552C393.437 230.552 399.15 221.222 406.228 209.437C408.265 204.563 409.678 199.414 410.428 194.663C412.14 183.819 400.131 169.173 400.131 169.173C400.131 169.173 398.169 150.024 388.361 154.442C371.686 167.209 360.911 161.137 354.522 176.005C351.435 183.188 353.042 176.201 353.539 192.699Z" fill="#FFCFAE"/>
<path d="M354.01 192.196C351.966 187.3 348.633 184.326 346.644 185.545C344.656 186.764 344.564 191.734 346.644 196.63C348.725 201.526 352.021 204.5 354.01 203.281C355.999 202.061 356.036 197.055 354.01 192.196Z" fill="#FFCFAE"/>
<path d="M353.312 193.822C352.059 190.811 349.997 188.982 348.745 189.739C347.493 190.497 347.456 193.545 348.745 196.556C350.034 199.568 352.041 201.434 353.312 200.639C354.582 199.845 354.582 196.833 353.312 193.822Z" fill="#EAAB85"/>
<path d="M354.823 196.613C354.216 194.876 352.761 193.989 351.583 194.765C350.969 195.294 350.541 196.007 350.362 196.799C350.183 197.591 350.262 198.419 350.588 199.162C351.214 201.01 352.651 201.804 353.829 201.12C354.48 200.594 354.934 199.861 355.114 199.041C355.295 198.222 355.192 197.366 354.823 196.613Z" fill="#FFCFAE"/>
<path d="M410.575 187.958C412.938 183.062 416.314 181.409 418.129 184.312C419.944 187.216 418.693 193.184 416.316 198.101C413.938 203.018 410.575 204.484 409.59 202.073C407.761 199.191 408.225 192.854 410.575 187.958Z" fill="#FFCFAE"/>
<path d="M412.12 191.718C413.806 188.817 415.849 187.734 416.672 189.297C417.495 190.859 416.751 194.49 415.053 197.369C413.355 200.247 411.307 201.371 410.443 199.783C409.579 198.195 410.407 194.595 412.12 191.718Z" fill="#EAAB85"/>
<path d="M410.575 197.061C411.253 195.223 412.423 194.305 413.194 195.05C413.964 195.795 414.015 197.883 413.35 199.72C412.685 201.557 411.5 202.461 410.731 201.732C409.963 201.002 409.904 198.946 410.575 197.061Z" fill="#FFCFAE"/>
<path d="M354.522 194.663C351.134 190.137 347.151 181.808 350.428 167.545L355.993 163.729C355.993 179.295 350.802 178.498 354.522 194.663Z" fill="#412716"/>
<path d="M409.939 195.154C413.327 190.628 417.31 182.299 414.033 168.036L399.64 163.772C399.64 180.467 411.9 179.976 409.939 195.154Z" fill="#412716"/>
<path d="M357.982 181.372C359.512 179.017 365.351 172.129 374.192 176.422C374.748 176.693 375.02 176.803 375.314 177.853C367.297 175.757 363.204 176.49 357.982 181.372Z" fill="#412716"/>
<path d="M405.441 181.372C403.911 179.017 398.072 172.129 389.231 176.422C388.674 176.693 388.403 176.803 388.108 177.853C396.126 175.757 400.219 176.49 405.441 181.372Z" fill="#412716"/>
<path d="M386.133 198.362C386.133 196.662 384.641 189.66 382.45 189.66C380.259 189.66 378.454 196.662 378.454 198.362C378.645 199.228 379.126 200.003 379.815 200.558C380.505 201.114 381.363 201.416 382.247 201.416C383.132 201.416 383.99 201.114 384.679 200.558C385.369 200.003 385.849 199.228 386.041 198.362H386.133Z" fill="#FFCFAE"/>
<path d="M378.343 201.538C377.529 202.359 378.745 202.772 378.745 202.772H380.367C380.367 202.772 381.99 204.415 383.603 202.772H385.225C385.225 202.772 386.44 202.359 385.632 201.538" stroke="#EAAB85" stroke-width="0.8" stroke-miterlimit="10" stroke-linejoin="round"/>
<path d="M380.023 187.789C380.023 187.789 382.131 190.466 380.168 197.61L380.023 187.789Z" fill="#EAAB85"/>
<path d="M366.406 183.057C367.776 182.555 368.221 182.717 370.251 182.719C371.177 182.826 372.085 183.053 372.952 183.392C372.952 183.392 374.968 185.406 375.209 185.668C375.632 186.144 375.473 186.681 374.83 186.767C374.187 186.854 373.478 186.658 372.936 186.765C368.765 187.431 367.871 187.685 365.496 186.757C364.547 186.416 363.642 185.965 362.799 185.413C363.817 184.379 365.048 183.575 366.406 183.057Z" fill="white"/>
<path d="M368.898 183.425C370.22 183.417 371.282 184.457 371.27 185.75C371.265 186.326 371.047 186.855 370.69 187.265C369.88 187.623 367.905 187.417 367.019 187.269C366.679 186.867 366.477 186.348 366.482 185.78C366.494 184.488 367.576 183.434 368.898 183.425Z" fill="#28160D" stroke="#1C1105" stroke-width="0.2" stroke-miterlimit="10"/>
<path d="M368.862 187.104C368.106 187.109 367.499 186.514 367.506 185.776C367.513 185.037 368.131 184.435 368.887 184.43C369.643 184.425 370.25 185.02 370.243 185.758C370.237 186.497 369.618 187.099 368.862 187.104Z" fill="black"/>
<path opacity="0.77" d="M370.223 185.765C369.845 185.767 369.541 185.469 369.544 185.1C369.548 184.731 369.857 184.429 370.235 184.427C370.613 184.424 370.917 184.722 370.914 185.091C370.91 185.461 370.601 185.762 370.223 185.765Z" fill="white"/>
<path d="M375.385 186.281L372.988 183.667C372.77 183.432 372.49 183.263 372.18 183.177L371.187 182.922C370.681 182.793 370.156 182.747 369.633 182.786L367.083 182.984C366.562 183.024 366.057 183.181 365.606 183.444L362.966 185.014L362.113 185.06L364.582 182.874C365.122 182.553 365.73 182.362 366.357 182.313L368.9 182.116C369.501 182.069 370.104 182.124 370.684 182.278L371.67 182.534C372.314 182.638 372.93 182.867 373.484 183.206L376.31 186.389L375.385 186.281Z" fill="#D3A688"/>
<path opacity="0.5" d="M375.633 186.392L373.236 183.78C372.978 183.498 372.644 183.296 372.273 183.196L371.288 182.941C370.729 182.796 370.149 182.745 369.572 182.791L367.022 182.989C366.447 183.031 365.89 183.207 365.396 183.502L362.797 185.064" stroke="#0A0001" stroke-width="0.3" stroke-miterlimit="10"/>
<path d="M375.293 186.767L374.233 186.765C373.676 186.763 373.121 186.817 372.577 186.928C371.312 187.198 368.612 187.864 366.172 187.096C366.023 187.049 364.966 186.502 364.824 186.429L363.477 185.762" stroke="#472A22" stroke-width="0.2" stroke-miterlimit="10"/>
<path d="M397.032 183.177C395.682 182.635 395.232 182.779 393.202 182.711C392.272 182.785 391.358 182.977 390.482 183.283C390.482 183.283 388.413 185.203 388.171 185.453C387.729 185.909 387.874 186.444 388.515 186.552C389.156 186.66 389.87 186.491 390.41 186.616C394.565 187.418 395.46 187.7 397.853 186.865C398.812 186.56 399.729 186.146 400.586 185.63C399.591 184.575 398.379 183.739 397.032 183.177Z" fill="white"/>
<path d="M394.517 183.471C395.841 183.539 396.904 184.623 396.889 185.893C396.883 186.494 396.636 187.029 396.237 187.419C394.833 187.478 394.077 187.414 392.728 187.256C392.328 186.824 392.086 186.256 392.093 185.647C392.107 184.377 393.193 183.403 394.517 183.471Z" fill="#28160D" stroke="#1C1105" stroke-width="0.2" stroke-miterlimit="10"/>
<path d="M394.474 187.092C393.717 187.054 393.109 186.432 393.117 185.705C393.126 184.977 393.746 184.419 394.504 184.458C395.261 184.497 395.868 185.118 395.86 185.846C395.852 186.573 395.232 187.131 394.474 187.092Z" fill="black"/>
<path opacity="0.77" d="M395.849 185.793C395.47 185.773 395.166 185.462 395.17 185.099C395.174 184.735 395.485 184.456 395.864 184.475C396.243 184.494 396.547 184.805 396.542 185.169C396.538 185.533 396.228 185.812 395.849 185.793Z" fill="white"/>
<path d="M387.971 186.039L390.437 183.546C390.662 183.321 390.949 183.163 391.265 183.091L392.257 182.874C392.767 182.764 393.294 182.737 393.816 182.793L396.368 183.076C396.888 183.135 397.389 183.308 397.834 183.581L400.427 185.219L401.279 185.294L398.866 183.054C398.334 182.72 397.731 182.51 397.105 182.441L394.559 182.158C393.962 182.091 393.36 182.125 392.777 182.257L391.778 182.475C391.131 182.555 390.508 182.759 389.945 183.074L387.049 186.114L387.971 186.039Z" fill="#D3A688"/>
<path opacity="0.5" d="M387.722 186.144L390.188 183.655C390.453 183.387 390.793 183.199 391.166 183.114L392.159 182.896C392.706 182.777 393.272 182.747 393.832 182.807L396.378 183.089C396.951 183.15 397.504 183.342 397.991 183.65L400.597 185.28" stroke="#0A0001" stroke-width="0.3" stroke-miterlimit="10"/>
<path d="M388.044 186.557L389.104 186.591C389.663 186.608 390.219 186.68 390.763 186.806C392.021 187.112 394.696 187.851 397.157 187.187C397.314 187.147 398.379 186.651 398.522 186.584C399.034 186.355 398.522 186.584 399.887 185.982" stroke="#472A22" stroke-width="0.2" stroke-miterlimit="10"/>
<path d="M390.896 210.434L390.896 210.432C391.069 209.49 390.25 208.753 389.352 208.764L374.602 208.935C373.707 208.946 372.92 209.701 373.12 210.632L373.12 210.632L373.12 210.634C373.533 212.47 374.661 214.114 376.303 215.285C377.944 216.456 379.996 217.082 382.102 217.058C384.208 217.034 386.241 216.363 387.848 215.155C389.455 213.947 390.537 212.278 390.896 210.434Z" fill="#920E08" stroke="#EA908A" stroke-width="0.4"/>
<mask id="mask2" mask-type="alpha" maskUnits="userSpaceOnUse" x="373" y="208" width="18" height="9">
<path d="M389.355 208.964C390.157 208.954 390.844 209.607 390.7 210.396C390.351 212.188 389.299 213.815 387.728 214.995C386.157 216.176 384.165 216.835 382.099 216.858C380.034 216.881 378.024 216.267 376.419 215.122C374.814 213.977 373.716 212.374 373.315 210.591C373.148 209.81 373.806 209.145 374.605 209.135L389.355 208.964Z" fill="#920E08"/>
</mask>
<g mask="url(#mask2)">
<path d="M390.81 208.947C390.813 209.414 390.784 209.935 390.7 210.396L373.315 210.591C373.218 210.138 373.165 209.613 373.155 209.152L390.81 208.947Z" fill="white"/>
</g>
<path d="M388.561 214.301C387.745 215.098 386.751 215.739 385.64 216.182C384.53 216.625 383.327 216.861 382.107 216.875C380.888 216.889 379.678 216.681 378.555 216.264C377.431 215.847 376.418 215.23 375.578 214.452C377.337 213.017 379.638 212.208 382.037 212.18C384.435 212.152 386.76 212.908 388.561 214.301Z" fill="#F85C66"/>
<path d="M528.545 25.5947L509.216 18.3344C507.895 17.843 506.434 17.8949 505.152 18.4789C503.869 19.0629 502.869 20.1315 502.371 21.4511L499.333 29.5557C498.843 30.8785 498.895 32.3416 499.479 33.626C500.062 34.9104 501.128 35.9118 502.446 36.4118L507.12 38.1662C508.549 41.0883 509.186 43.3487 509.958 43.6362C510.729 43.9236 512.999 42.4386 515.687 41.3817L521.775 43.6661C523.095 44.1569 524.556 44.1049 525.838 43.5216C527.121 42.9383 528.12 41.871 528.62 40.5524L531.655 32.4448C532.146 31.1233 532.094 29.6609 531.511 28.3774C530.929 27.0938 529.862 26.0933 528.545 25.5947Z" fill="#EBF2F9"/>
<path d="M522.121 31.9692C522.934 29.8316 521.872 27.6789 520.195 27.0382C519.517 26.7768 518.773 26.7408 518.073 26.9354C517.373 27.1301 516.754 27.545 516.308 28.119C516.357 27.3926 516.172 26.6695 515.779 26.0566C515.387 25.4437 514.808 24.9733 514.128 24.7149C512.45 24.0712 510.24 24.9694 509.409 27.1101C508.177 30.3465 511.721 35.9452 512.797 36.8015L512.86 36.8494C512.89 36.8699 512.922 36.888 512.956 36.9032C512.99 36.9144 513.025 36.9224 513.06 36.9272H513.141C514.519 37.014 520.889 35.2027 522.121 31.9692Z" fill="#FCFCFC"/>
<path d="M576.344 238.656L546.679 227.513C544.652 226.759 542.409 226.839 540.441 227.735C538.473 228.631 536.939 230.271 536.174 232.297L531.511 244.735C530.759 246.765 530.839 249.011 531.734 250.982C532.629 252.953 534.267 254.49 536.289 255.258L543.462 257.95C545.656 262.435 546.633 265.904 547.817 266.345C549.001 266.786 552.485 264.507 556.61 262.885L565.954 266.391C567.981 267.144 570.222 267.065 572.19 266.169C574.158 265.274 575.693 263.636 576.459 261.612L581.117 249.169C581.871 247.141 581.791 244.897 580.897 242.927C580.003 240.957 578.366 239.421 576.344 238.656Z" fill="#EBF2F9"/>
<path d="M566.481 248.439C567.73 245.158 566.1 241.855 563.526 240.871C562.485 240.47 561.343 240.415 560.269 240.714C559.195 241.012 558.245 241.649 557.56 242.53C557.635 241.415 557.351 240.306 556.749 239.365C556.146 238.424 555.258 237.702 554.214 237.306C551.64 236.318 548.248 237.696 546.972 240.982C545.081 245.949 550.52 254.541 552.172 255.856L552.268 255.929C552.315 255.961 552.364 255.988 552.415 256.012C552.467 256.029 552.521 256.041 552.576 256.049H552.7C554.815 256.182 564.591 253.402 566.481 248.439Z" fill="#FCFCFC"/>
<path d="M662.341 10.6977L643.931 16.4573C642.676 16.8541 641.609 17.7237 640.965 18.876C640.321 20.0283 640.151 21.3696 640.493 22.6067L642.609 30.193C642.959 31.4279 643.791 32.4555 644.923 33.0515C646.056 33.6476 647.397 33.7638 648.655 33.3748L653.106 31.9813C655.76 33.279 657.462 34.5497 658.195 34.3181C658.929 34.0865 659.824 31.7212 661.265 29.4268L667.062 27.6109C668.317 27.2138 669.382 26.3446 670.027 25.1929C670.671 24.0413 670.842 22.7007 670.501 21.4636L668.382 13.8769C668.033 12.6425 667.202 11.6151 666.07 11.0194C664.938 10.4237 663.598 10.308 662.341 10.6977Z" fill="#EBF2F9"/>
<path d="M660.982 18.962C660.431 16.9499 658.465 15.9955 656.86 16.4874C656.209 16.6845 655.632 17.0824 655.213 17.6224C654.794 18.1623 654.555 18.8157 654.532 19.4859C654.174 18.9316 653.643 18.5134 653.015 18.2931C652.388 18.0728 651.699 18.062 651.048 18.2623C649.441 18.7521 648.272 20.6622 648.812 22.6867C649.646 25.7333 655.344 27.7695 656.616 27.7763L656.689 27.7752C656.723 27.7728 656.757 27.7676 656.79 27.7597C656.822 27.7483 656.853 27.7342 656.882 27.7174L656.942 27.6714C658.023 26.9486 661.815 22.0065 660.982 18.962Z" fill="#FCFCFC"/>
<path d="M296.888 223.051L277.603 228.606C276.288 228.989 275.154 229.867 274.451 231.048C273.747 232.229 273.53 233.618 273.847 234.909L275.81 242.832C276.135 244.121 276.967 245.207 278.124 245.852C279.282 246.496 280.67 246.648 281.988 246.273L286.65 244.929C289.365 246.336 291.092 247.694 291.861 247.471C292.629 247.247 293.631 244.813 295.196 242.465L301.269 240.713C302.584 240.33 303.717 239.452 304.421 238.272C305.125 237.091 305.343 235.704 305.027 234.412L303.06 226.489C302.736 225.2 301.905 224.115 300.749 223.47C299.592 222.826 298.204 222.675 296.888 223.051Z" fill="#EBF2F9"/>
<path d="M295.224 231.598C294.712 229.496 292.701 228.459 291.018 228.932C290.337 229.121 289.726 229.521 289.274 230.072C288.823 230.623 288.555 231.295 288.512 231.991C288.157 231.407 287.617 230.96 286.973 230.717C286.328 230.473 285.613 230.446 284.932 230.638C283.248 231.109 281.977 233.065 282.476 235.18C283.25 238.363 289.104 240.611 290.425 240.648L290.501 240.648C290.536 240.647 290.572 240.642 290.606 240.635C290.64 240.623 290.672 240.61 290.703 240.593L290.767 240.546C291.911 239.821 295.996 234.779 295.224 231.598Z" fill="#FCFCFC"/>
<path d="M101.972 329.807L66.552 317.655C64.132 316.827 61.5024 316.852 59.2381 317.724C56.9738 318.595 55.2588 320.242 54.4679 322.305L49.6694 334.979C48.8916 337.047 49.1034 339.358 50.2585 341.407C51.4136 343.457 53.4181 345.078 55.8339 345.916L64.3931 348.859C67.2152 353.523 68.6015 357.124 69.9552 357.627C71.3089 358.131 75.3386 355.872 80.0909 354.292L91.2576 358.033C93.6776 358.86 96.3071 358.836 98.5715 357.964C100.836 357.093 102.551 355.445 103.342 353.382L108.15 340.71C108.91 338.644 108.688 336.342 107.531 334.301C106.375 332.261 104.378 330.646 101.972 329.807Z" fill="#EBF2F9"/>
<path d="M68.2835 333.738L65.0581 342.337C64.8416 342.915 65.2273 343.581 65.9196 343.825L69.6398 345.139C70.3322 345.384 71.0689 345.114 71.2855 344.537L74.5109 335.938C74.7274 335.361 74.3418 334.695 73.6494 334.45L69.9292 333.136C69.2369 332.891 68.5001 333.161 68.2835 333.738Z" fill="#FCFCFC"/>
<path d="M88.5878 340.876L88.3687 340.845C88.851 340.924 89.3388 340.858 89.7485 340.659C90.1582 340.459 90.4645 340.138 90.6149 339.751C90.7653 339.363 90.7505 338.934 90.573 338.535C90.3955 338.136 90.0664 337.794 89.6419 337.566L83.3825 335.442C84.8371 334.606 85.996 333.452 86.7511 332.087C87.5664 329.98 86.6558 328.345 85.8035 327.909C85.4501 327.713 85.0326 327.633 84.6341 327.686C84.2356 327.738 83.8854 327.92 83.6532 328.194C83.1473 328.746 83.1356 330.099 82.7974 330.476C82.2582 331.041 80.5696 331.464 77.8754 332.837C76.4292 333.622 75.3813 334.835 74.9116 336.268L73.7849 339.179L72.6488 342.08L72.1286 343.434C72.0762 343.568 72.0558 343.711 72.0685 343.855C72.0812 343.999 72.1267 344.142 72.2025 344.275C72.2783 344.408 72.3829 344.529 72.5103 344.63C72.6377 344.732 72.7854 344.812 72.945 344.866L84.5749 348.817C84.7625 348.887 84.9618 348.924 85.1609 348.926C85.36 348.929 85.5549 348.897 85.734 348.832C85.9131 348.767 86.0728 348.672 86.2035 348.55C86.3342 348.429 86.4333 348.284 86.4949 348.125C86.5565 347.966 86.5793 347.796 86.5621 347.624C86.5448 347.453 86.4878 347.284 86.3944 347.127C86.301 346.971 86.1732 346.829 86.0184 346.712C85.8637 346.595 85.6852 346.504 85.4937 346.445L85.7024 346.475C85.9337 346.566 86.181 346.617 86.4292 346.624C86.6774 346.632 86.9212 346.595 87.1456 346.517C87.3701 346.44 87.5705 346.322 87.7346 346.172C87.8986 346.022 88.0228 345.842 88.0996 345.644C88.1764 345.446 88.2041 345.234 88.1811 345.02C88.1581 344.807 88.0848 344.597 87.9657 344.403C87.8467 344.209 87.6843 344.035 87.4887 343.892C87.2931 343.749 87.0683 343.64 86.8281 343.572L87.4715 343.789C87.7028 343.88 87.9502 343.931 88.1984 343.938C88.4465 343.946 88.6904 343.909 88.9148 343.831C89.1393 343.754 89.3397 343.636 89.5037 343.486C89.6678 343.336 89.792 343.156 89.8688 342.958C89.9456 342.76 89.9733 342.548 89.9503 342.334C89.9273 342.121 89.854 341.911 89.7349 341.717C89.6159 341.523 89.4535 341.349 89.2579 341.206C89.0623 341.063 88.8374 340.954 88.5972 340.886L88.5878 340.876Z" fill="#FCFCFC"/>
<path d="M282.204 15.4493L262.77 23.7105C261.443 24.2762 260.326 25.2997 259.662 26.5573C258.998 27.8148 258.842 29.2041 259.228 30.4216L261.622 37.8776C262.015 39.092 262.917 40.0332 264.131 40.4952C265.345 40.9573 266.772 40.9028 268.101 40.3436L272.8 38.35C275.646 39.3276 277.504 40.3869 278.26 40.0886C279.017 39.7902 279.949 37.239 281.43 34.7101L287.525 32.0656C288.852 31.4998 289.969 30.4763 290.633 29.2188C291.297 27.9613 291.453 26.5719 291.067 25.3545L288.678 17.8952C288.278 16.6885 287.375 15.7553 286.163 15.2976C284.952 14.8399 283.529 14.8944 282.204 15.4493Z" fill="#EBF2F9"/>
<path d="M269.074 30.1282L270.74 35.1569C270.852 35.4946 271.253 35.6419 271.637 35.486L273.697 34.6482C274.081 34.4923 274.301 34.0922 274.189 33.7545L272.523 28.7258C272.411 28.3881 272.01 28.2408 271.626 28.3967L269.566 29.2345C269.182 29.3904 268.962 29.7905 269.074 30.1282Z" fill="#FCFCFC"/>
<path d="M280.295 25.5634L280.192 25.6329C280.423 25.4849 280.605 25.2702 280.707 25.0257C280.809 24.7812 280.826 24.5221 280.753 24.2926C280.68 24.0632 280.522 23.8776 280.307 23.7678C280.093 23.6579 279.834 23.6306 279.575 23.6904L276.192 25.1242C276.511 24.1996 276.593 23.2458 276.43 22.3516C276.033 21.1047 275.074 20.7232 274.562 20.8534C274.344 20.9002 274.141 21.0233 273.991 21.1982C273.842 21.3731 273.759 21.5871 273.757 21.7973C273.738 22.2351 274.209 22.8412 274.199 23.1374C274.171 23.5937 273.608 24.4232 272.957 26.058C272.624 26.9565 272.609 27.8941 272.915 28.7101L273.465 30.4333L274.007 32.1556L274.264 32.9553C274.289 33.0347 274.33 33.1062 274.387 33.1656C274.443 33.225 274.512 33.2712 274.591 33.3016C274.67 33.3319 274.756 33.3459 274.845 33.3426C274.935 33.3393 275.025 33.3188 275.111 33.2824L281.398 30.6209C281.501 30.5804 281.598 30.5211 281.683 30.4465C281.768 30.372 281.838 30.2837 281.891 30.187C281.944 30.0902 281.977 29.9869 281.99 29.8832C282.002 29.7795 281.993 29.6776 281.963 29.5834C281.933 29.4893 281.883 29.4049 281.815 29.3352C281.748 29.2655 281.664 29.2119 281.57 29.1777C281.475 29.1435 281.372 29.1293 281.265 29.136C281.159 29.1427 281.052 29.1701 280.951 29.2166L281.049 29.1504C281.178 29.1031 281.3 29.0317 281.407 28.9407C281.514 28.8497 281.604 28.7409 281.672 28.621C281.739 28.5011 281.782 28.3726 281.798 28.2435C281.814 28.1144 281.803 27.9873 281.766 27.8701C281.729 27.7528 281.666 27.6478 281.581 27.5616C281.496 27.4754 281.392 27.4098 281.273 27.3687C281.155 27.3276 281.025 27.312 280.893 27.3228C280.76 27.3336 280.627 27.3706 280.502 27.4314L280.849 27.2833C280.979 27.236 281.101 27.1647 281.208 27.0736C281.315 26.9826 281.405 26.8738 281.472 26.7539C281.539 26.634 281.582 26.5056 281.598 26.3764C281.615 26.2473 281.604 26.1202 281.566 26.003C281.529 25.8857 281.466 25.7807 281.381 25.6945C281.297 25.6083 281.192 25.5427 281.074 25.5016C280.955 25.4605 280.826 25.4449 280.693 25.4557C280.56 25.4665 280.427 25.5035 280.302 25.5644L280.295 25.5634Z" fill="#FCFCFC"/>
<path d="M119.873 202.53H9.12709C6.70643 202.53 4.38492 201.567 2.67326 199.853C0.961594 198.139 0 195.815 0 193.391V127.138C0 124.715 0.961594 122.39 2.67326 120.677C4.38492 118.963 6.70643 118 9.12709 118H119.873C122.294 118 124.615 118.963 126.327 120.677C128.038 122.39 129 124.715 129 127.138V193.391C129 195.815 128.038 198.139 126.327 199.853C124.615 201.567 122.294 202.53 119.873 202.53ZM9.12709 118.834C6.94338 118.837 4.84997 119.707 3.30585 121.253C1.76173 122.799 0.892908 124.895 0.88989 127.081V193.334C0.892908 195.521 1.76173 197.617 3.30585 199.163C4.84997 200.709 6.94338 201.579 9.12709 201.582H119.873C122.057 201.579 124.15 200.709 125.694 199.163C127.238 197.617 128.107 195.521 128.11 193.334V127.081C128.107 124.895 127.238 122.799 125.694 121.253C124.15 119.707 122.057 118.837 119.873 118.834H9.12709Z" fill="#C4C4C4"/>
<path d="M24.2462 180.781C23.9576 180.781 23.6718 180.724 23.4053 180.613C23.1388 180.502 22.8968 180.34 22.6932 180.135C22.4897 179.93 22.3286 179.687 22.2192 179.42C22.1098 179.152 22.0542 178.866 22.0557 178.577V137.329C22.0557 136.746 22.2861 136.187 22.6966 135.774C23.1071 135.361 23.6642 135.127 24.2462 135.124C24.8302 135.124 25.3903 135.356 25.8032 135.77C26.2161 136.183 26.4481 136.744 26.4481 137.329V178.577C26.4496 178.867 26.3937 179.154 26.2836 179.422C26.1735 179.69 26.0113 179.934 25.8066 180.139C25.6018 180.344 25.3585 180.506 25.0906 180.617C24.8228 180.727 24.5358 180.783 24.2462 180.781Z" fill="#E0E0E0"/>
<path d="M24.2443 180.976C23.9556 180.976 23.6699 180.919 23.4034 180.808C23.1368 180.697 22.8948 180.534 22.6913 180.33C22.4877 180.125 22.3266 179.882 22.2172 179.614C22.1078 179.347 22.0522 179.06 22.0537 178.771V152.179C22.0537 151.597 22.2846 151.039 22.6953 150.628C23.1061 150.217 23.6633 149.986 24.2443 149.986C24.5329 149.984 24.8189 150.04 25.086 150.149C25.3531 150.259 25.5959 150.42 25.8005 150.624C26.0052 150.828 26.1675 151.07 26.2783 151.337C26.3891 151.604 26.4462 151.89 26.4462 152.179V178.771C26.4477 179.061 26.3918 179.349 26.2816 179.617C26.1715 179.885 26.0094 180.129 25.8046 180.334C25.5999 180.539 25.3565 180.701 25.0887 180.811C24.8208 180.921 24.5338 180.977 24.2443 180.976Z" fill="#EBF2F9"/>
<path d="M22.863 182.701V186.368H22.4865V183.032H21.6309V182.701H22.863Z" fill="#B3B3B3"/>
<path d="M23.7422 184.528C23.7422 183.386 24.3469 182.666 25.2025 182.666C26.0582 182.666 26.6629 183.363 26.6629 184.528C26.6629 185.693 26.0468 186.39 25.2025 186.39C24.3583 186.39 23.7422 185.693 23.7422 184.528ZM26.275 184.528C26.275 183.546 25.8414 183.009 25.2025 183.009C24.5636 183.009 24.1187 183.546 24.1187 184.528C24.1187 185.51 24.5636 186.047 25.2025 186.047C25.8414 186.047 26.275 185.51 26.275 184.528Z" fill="#B3B3B3"/>
<path d="M33.0271 180.782C32.7379 180.782 32.4516 180.725 32.1845 180.614C31.9173 180.503 31.6746 180.341 31.4701 180.136C31.2656 179.931 31.1035 179.688 30.9928 179.421C30.8821 179.153 30.8252 178.867 30.8252 178.577V137.329C30.8282 136.745 31.0612 136.186 31.4735 135.773C31.8857 135.36 32.444 135.127 33.0271 135.124C33.6091 135.127 34.1663 135.361 34.5767 135.774C34.9872 136.187 35.2176 136.746 35.2176 137.329V178.577C35.2191 178.866 35.1636 179.152 35.0541 179.42C34.9447 179.687 34.7836 179.93 34.5801 180.135C34.3765 180.34 34.1345 180.503 33.868 180.614C33.6015 180.725 33.3157 180.782 33.0271 180.782Z" fill="#E0E0E0"/>
<path d="M33.0271 180.976C32.4431 180.976 31.8831 180.743 31.4701 180.33C31.0572 179.917 30.8252 179.356 30.8252 178.771V143.806C30.8282 143.222 31.0612 142.663 31.4735 142.25C31.8857 141.837 32.444 141.604 33.0271 141.601C33.6091 141.604 34.1663 141.838 34.5767 142.251C34.9872 142.664 35.2176 143.223 35.2176 143.806V178.771C35.2191 179.06 35.1636 179.347 35.0541 179.614C34.9447 179.881 34.7836 180.124 34.5801 180.329C34.3765 180.534 34.1345 180.697 33.868 180.808C33.6015 180.919 33.3157 180.976 33.0271 180.976Z" fill="#EBF2F9"/>
<path d="M32.5034 186.025V186.368H29.9364V186.094L31.4538 184.597C31.8759 184.198 31.9443 183.946 31.9443 183.695C31.9443 183.444 31.6477 183.01 31.0887 183.01C30.9031 183 30.7179 183.032 30.5462 183.104C30.3746 183.175 30.2208 183.283 30.0961 183.421L29.8223 183.192C29.9864 183.014 30.1883 182.874 30.4133 182.783C30.6383 182.692 30.8807 182.652 31.1229 182.667C31.8645 182.667 32.3322 183.044 32.3322 183.649C32.3245 183.872 32.2672 184.09 32.1646 184.288C32.0619 184.485 31.9165 184.657 31.739 184.792L30.4954 186.014L32.5034 186.025Z" fill="#B3B3B3"/>
<path d="M32.9482 184.528C32.9482 183.386 33.5643 182.666 34.4086 182.666C35.2528 182.666 35.8803 183.363 35.8803 184.528C35.8803 185.693 35.2642 186.39 34.4086 186.39C33.5529 186.39 32.9482 185.693 32.9482 184.528ZM35.4924 184.528C35.4924 183.546 35.0475 183.009 34.4086 183.009C33.7697 183.009 33.3361 183.546 33.3361 184.528C33.3361 185.51 33.7697 186.047 34.4086 186.047C35.0475 186.047 35.4924 185.51 35.4924 184.528Z" fill="#B3B3B3"/>
<path d="M41.8018 180.782C41.5132 180.782 41.2274 180.725 40.9609 180.614C40.6944 180.503 40.4525 180.34 40.2489 180.135C40.0453 179.93 39.8842 179.687 39.7748 179.42C39.6654 179.152 39.6099 178.866 39.6114 178.577V137.329C39.6114 136.746 39.8418 136.187 40.2522 135.774C40.6627 135.361 41.2198 135.127 41.8018 135.124C42.3858 135.124 42.9459 135.356 43.3588 135.77C43.7718 136.183 44.0038 136.744 44.0038 137.329V178.577C44.0053 178.867 43.9494 179.154 43.8392 179.422C43.7291 179.691 43.567 179.934 43.3622 180.139C43.1574 180.344 42.9141 180.507 42.6463 180.617C42.3784 180.727 42.0914 180.783 41.8018 180.782Z" fill="#E0E0E0"/>
<path d="M41.8018 180.976C41.5132 180.976 41.2274 180.919 40.9609 180.808C40.6944 180.698 40.4525 180.535 40.2489 180.33C40.0453 180.125 39.8842 179.882 39.7748 179.615C39.6654 179.347 39.6099 179.061 39.6114 178.772V158.45C39.6114 157.869 39.8421 157.311 40.2529 156.9C40.6637 156.488 41.2209 156.257 41.8018 156.257C42.0905 156.256 42.3765 156.311 42.6436 156.421C42.9107 156.53 43.1535 156.692 43.3582 156.896C43.5628 157.099 43.7251 157.342 43.8359 157.609C43.9467 157.875 44.0038 158.161 44.0038 158.45V178.76C44.0068 179.051 43.952 179.34 43.8425 179.609C43.7331 179.879 43.5712 180.124 43.3663 180.33C43.1614 180.536 42.9175 180.7 42.6489 180.811C42.3804 180.922 42.0924 180.978 41.8018 180.976Z" fill="#EBF2F9"/>
<path d="M41.2269 185.306C41.2269 185.923 40.782 186.391 39.9035 186.391C39.4194 186.406 38.9473 186.239 38.5801 185.923L38.7626 185.626C39.0724 185.912 39.4824 186.064 39.9035 186.048C40.5082 186.048 40.8504 185.763 40.8504 185.306C40.8504 184.849 40.531 184.586 39.8579 184.586H39.5954V184.3L40.6109 183.033H38.7398V182.701H41.09V182.964L40.0518 184.266C40.839 184.312 41.2269 184.723 41.2269 185.306Z" fill="#B3B3B3"/>
<path d="M41.7627 184.528C41.7627 183.386 42.3674 182.666 43.223 182.666C44.0787 182.666 44.6834 183.363 44.6834 184.528C44.6834 185.693 44.0673 186.39 43.223 186.39C42.3788 186.39 41.7627 185.693 41.7627 184.528ZM44.2955 184.528C44.2955 183.546 43.8505 183.009 43.223 183.009C42.5955 183.009 42.1392 183.546 42.1392 184.528C42.1392 185.511 42.5841 186.047 43.223 186.047C43.8619 186.047 44.2955 185.511 44.2955 184.528Z" fill="#B3B3B3"/>
<path d="M50.5876 180.782C50.2985 180.782 50.0121 180.725 49.745 180.614C49.4779 180.503 49.2351 180.341 49.0307 180.136C48.8262 179.931 48.664 179.688 48.5534 179.421C48.4427 179.153 48.3857 178.867 48.3857 178.577V137.329C48.3887 136.745 48.6217 136.186 49.034 135.773C49.4463 135.36 50.0046 135.127 50.5876 135.124C51.1696 135.127 51.7268 135.361 52.1372 135.774C52.5477 136.187 52.7782 136.746 52.7782 137.329V178.577C52.7797 178.866 52.7241 179.152 52.6147 179.42C52.5053 179.687 52.3442 179.93 52.1406 180.135C51.9371 180.34 51.6951 180.503 51.4285 180.614C51.162 180.725 50.8763 180.782 50.5876 180.782Z" fill="#E0E0E0"/>
<path d="M50.5857 180.976C50.0017 180.976 49.4416 180.743 49.0287 180.33C48.6158 179.917 48.3838 179.356 48.3838 178.771V143.806C48.3868 143.222 48.6197 142.663 49.032 142.25C49.4443 141.837 50.0026 141.604 50.5857 141.601C51.1677 141.604 51.7248 141.838 52.1353 142.251C52.5458 142.664 52.7762 143.223 52.7762 143.806V178.771C52.7777 179.06 52.7222 179.347 52.6127 179.614C52.5033 179.881 52.3422 180.124 52.1387 180.329C51.9351 180.534 51.6931 180.697 51.4266 180.808C51.1601 180.919 50.8743 180.976 50.5857 180.976Z" fill="#EBF2F9"/>
<path d="M50.5877 185.397H49.8462V186.368H49.4468V185.397H47.3818V185.123L49.3214 182.701H49.7435L47.8724 185.066H49.4583V184.221H49.8233V185.066H50.5877V185.397Z" fill="#B3B3B3"/>
<path d="M50.9541 184.528C50.9541 183.386 51.5588 182.666 52.4144 182.666C53.2701 182.666 53.8748 183.363 53.8748 184.528C53.8748 185.693 53.2587 186.39 52.4144 186.39C51.5702 186.39 50.9541 185.693 50.9541 184.528ZM53.4869 184.528C53.4869 183.546 53.0419 183.009 52.4144 183.009C51.7869 183.009 51.2735 183.546 51.2735 184.528C51.2735 185.511 51.7185 186.047 52.4144 186.047C53.1104 186.047 53.4869 185.511 53.4869 184.528Z" fill="#B3B3B3"/>
<path d="M59.3585 180.782C59.0699 180.782 58.7841 180.725 58.5176 180.614C58.2511 180.503 58.0091 180.34 57.8055 180.135C57.602 179.93 57.4409 179.687 57.3315 179.42C57.2221 179.152 57.1665 178.866 57.168 178.577V137.329C57.168 136.746 57.3984 136.187 57.8089 135.774C58.2194 135.361 58.7765 135.127 59.3585 135.124C59.9425 135.124 60.5026 135.356 60.9155 135.77C61.3284 136.183 61.5604 136.744 61.5604 137.329V178.577C61.5619 178.867 61.506 179.154 61.3959 179.422C61.2858 179.691 61.1236 179.934 60.9189 180.139C60.7141 180.344 60.4708 180.507 60.2029 180.617C59.9351 180.727 59.6481 180.783 59.3585 180.782Z" fill="#E0E0E0"/>
<path d="M59.3575 180.975C59.0689 180.975 58.7831 180.918 58.5166 180.807C58.2501 180.696 58.0081 180.534 57.8046 180.329C57.601 180.124 57.4399 179.881 57.3305 179.614C57.2211 179.346 57.1655 179.06 57.167 178.771V150.453C57.167 149.872 57.3978 149.314 57.8086 148.903C58.2194 148.491 58.7766 148.26 59.3575 148.26C59.6462 148.259 59.9322 148.314 60.1993 148.424C60.4664 148.533 60.7092 148.695 60.9138 148.898C61.1184 149.102 61.2808 149.345 61.3916 149.611C61.5024 149.878 61.5594 150.164 61.5594 150.453V178.725C61.5671 179.019 61.5157 179.311 61.4083 179.585C61.301 179.858 61.1398 180.107 60.9344 180.317C60.729 180.527 60.4836 180.693 60.2127 180.807C59.9418 180.92 59.651 180.977 59.3575 180.975Z" fill="#EBF2F9"/>
<path d="M59.1667 185.283C59.1667 185.912 58.7332 186.426 57.8433 186.426C57.3626 186.441 56.8939 186.274 56.5312 185.957L56.7138 185.66C56.8653 185.805 57.0446 185.917 57.2408 185.989C57.4369 186.062 57.6458 186.094 57.8547 186.083C58.4822 186.083 58.813 185.775 58.813 185.329C58.813 184.884 58.5164 184.575 57.5923 184.575H56.8051L56.999 182.736H58.9956V183.067H57.3299L57.2044 184.21H57.6721C58.756 184.198 59.1667 184.632 59.1667 185.283Z" fill="#B3B3B3"/>
<path d="M59.6465 184.528C59.6465 183.386 60.2626 182.666 61.1068 182.666C61.9511 182.666 62.5672 183.363 62.5672 184.528C62.5672 185.693 61.9511 186.39 61.1068 186.39C60.2626 186.39 59.6465 185.693 59.6465 184.528ZM62.1793 184.528C62.1793 183.546 61.7457 183.009 61.1068 183.009C60.4679 183.009 59.9659 183.546 59.9659 184.528C59.9659 185.511 60.4109 186.047 61.1068 186.047C61.8028 186.047 62.1793 185.511 62.1793 184.528Z" fill="#B3B3B3"/>
<path d="M68.1502 180.782C67.861 180.782 67.5747 180.725 67.3075 180.614C67.0404 180.503 66.7977 180.341 66.5932 180.136C66.3887 179.931 66.2265 179.688 66.1159 179.421C66.0052 179.153 65.9482 178.867 65.9482 178.577V137.329C65.9512 136.745 66.1842 136.186 66.5965 135.773C67.0088 135.36 67.5671 135.127 68.1502 135.124C68.7322 135.127 69.2893 135.361 69.6998 135.774C70.1103 136.187 70.3407 136.746 70.3407 137.329V178.577C70.3422 178.866 70.2866 179.152 70.1772 179.42C70.0678 179.687 69.9067 179.93 69.7031 180.135C69.4996 180.34 69.2576 180.503 68.9911 180.614C68.7246 180.725 68.4388 180.782 68.1502 180.782Z" fill="#E0E0E0"/>
<path d="M68.1486 180.782C67.5945 180.792 67.0575 180.59 66.6479 180.216C66.2384 179.842 65.9875 179.325 65.9467 178.772V158.45C65.9329 158.148 65.9792 157.847 66.0827 157.563C66.1862 157.279 66.345 157.018 66.5498 156.796C66.7546 156.574 67.0014 156.395 67.2758 156.269C67.5503 156.143 67.8469 156.073 68.1486 156.063C68.7296 156.063 69.2868 156.294 69.6976 156.705C70.1083 157.117 70.3391 157.674 70.3391 158.256V178.566C70.3421 178.856 70.2877 179.144 70.179 179.412C70.0702 179.681 69.9094 179.926 69.7057 180.132C69.502 180.338 69.2595 180.501 68.9922 180.613C68.7249 180.725 68.4382 180.782 68.1486 180.782Z" fill="#EBF2F9"/>
<path d="M67.8596 185.271C67.8604 185.431 67.8276 185.59 67.7632 185.736C67.6989 185.883 67.6045 186.014 67.4861 186.122C67.3678 186.23 67.2282 186.311 67.0763 186.361C66.9244 186.412 66.7637 186.429 66.6046 186.413C65.6349 186.413 65.0986 185.739 65.0986 184.586C65.0986 183.432 65.7832 182.689 66.7757 182.689C67.0768 182.677 67.3759 182.744 67.6428 182.884L67.4945 183.192C67.2808 183.066 67.0347 183.007 66.7872 183.021C65.9885 183.021 65.4865 183.523 65.4865 184.517C65.4811 184.616 65.4811 184.715 65.4865 184.814C65.59 184.605 65.7548 184.433 65.9587 184.321C66.1626 184.209 66.3959 184.162 66.6274 184.186C66.78 184.173 66.9336 184.192 67.079 184.24C67.2243 184.288 67.3585 184.365 67.4735 184.467C67.5885 184.568 67.6819 184.691 67.7482 184.83C67.8145 184.968 67.8524 185.118 67.8596 185.271ZM67.4831 185.271C67.4831 184.78 67.1294 184.471 66.559 184.471C66.4435 184.459 66.3267 184.47 66.2158 184.505C66.1049 184.539 66.0024 184.597 65.9146 184.673C65.8268 184.749 65.7556 184.842 65.7055 184.947C65.6554 185.052 65.6275 185.166 65.6234 185.282C65.6234 185.682 65.9543 186.059 66.5932 186.059C66.7036 186.072 66.8154 186.061 66.9215 186.028C67.0276 185.995 67.1257 185.941 67.2095 185.868C67.2932 185.794 67.3608 185.705 67.4079 185.604C67.455 185.503 67.4806 185.394 67.4831 185.282V185.271Z" fill="#B3B3B3"/>
<path d="M68.292 184.528C68.292 183.386 68.8967 182.666 69.7523 182.666C70.608 182.666 71.2127 183.363 71.2127 184.528C71.2127 185.693 70.5966 186.39 69.7523 186.39C68.9081 186.39 68.292 185.693 68.292 184.528ZM70.8248 184.528C70.8248 183.546 70.3798 183.009 69.7523 183.009C69.1248 183.009 68.6685 183.546 68.6685 184.528C68.6685 185.511 69.1134 186.047 69.7523 186.047C70.3912 186.047 70.8248 185.511 70.8248 184.528Z" fill="#B3B3B3"/>
<path d="M76.9239 180.782C76.6353 180.782 76.3495 180.725 76.083 180.614C75.8165 180.503 75.5745 180.34 75.371 180.135C75.1674 179.93 75.0063 179.687 74.8969 179.42C74.7875 179.152 74.7319 178.866 74.7334 178.577V137.329C74.7334 136.746 74.9638 136.187 75.3743 135.774C75.7848 135.361 76.3419 135.127 76.9239 135.124C77.5059 135.127 78.0631 135.361 78.4735 135.774C78.884 136.187 79.1144 136.746 79.1144 137.329V178.577C79.1159 178.866 79.0604 179.152 78.951 179.42C78.8416 179.687 78.6804 179.93 78.4769 180.135C78.2733 180.34 78.0314 180.503 77.7648 180.614C77.4983 180.725 77.2125 180.782 76.9239 180.782Z" fill="#E0E0E0"/>
<path d="M76.9229 180.977C76.6343 180.977 76.3485 180.92 76.082 180.809C75.8155 180.698 75.5735 180.535 75.37 180.33C75.1664 180.125 75.0053 179.882 74.8959 179.615C74.7865 179.347 74.7309 179.061 74.7325 178.772V141.716C74.7309 141.427 74.7865 141.141 74.8959 140.873C75.0053 140.606 75.1664 140.363 75.37 140.158C75.5735 139.953 75.8155 139.79 76.082 139.679C76.3485 139.569 76.6343 139.511 76.9229 139.511C77.2116 139.511 77.4974 139.569 77.7639 139.679C78.0304 139.79 78.2724 139.953 78.4759 140.158C78.6795 140.363 78.8406 140.606 78.95 140.873C79.0594 141.141 79.115 141.427 79.1135 141.716V178.772C79.115 179.061 79.0594 179.347 78.95 179.615C78.8406 179.882 78.6795 180.125 78.4759 180.33C78.2724 180.535 78.0304 180.698 77.7639 180.809C77.4974 180.92 77.2116 180.977 76.9229 180.977Z" fill="#EBF2F9"/>
<path d="M76.4535 182.701V182.964L74.9247 186.391H74.5482L76.0542 183.055H74.1717V183.741H73.8066V182.724L76.4535 182.701Z" fill="#B3B3B3"/>
<path d="M76.8271 184.528C76.8271 183.386 77.4318 182.666 78.2875 182.666C79.1431 182.666 79.7478 183.363 79.7478 184.528C79.7478 185.693 79.1317 186.39 78.2875 186.39C77.4432 186.39 76.8271 185.693 76.8271 184.528ZM79.3599 184.528C79.3599 183.546 78.9264 183.009 78.2875 183.009C77.6486 183.009 77.2036 183.546 77.2036 184.528C77.2036 185.511 77.6486 186.047 78.2875 186.047C78.9264 186.047 79.3827 185.511 79.3827 184.528H79.3599Z" fill="#B3B3B3"/>
<path d="M85.7048 180.782C85.4157 180.782 85.1293 180.725 84.8622 180.614C84.595 180.503 84.3523 180.341 84.1478 180.136C83.9434 179.931 83.7812 179.688 83.6705 179.421C83.5599 179.153 83.5029 178.867 83.5029 178.577V137.329C83.5059 136.745 83.7389 136.186 84.1512 135.773C84.5634 135.36 85.1218 135.127 85.7048 135.124C86.2868 135.127 86.844 135.361 87.2544 135.774C87.6649 136.187 87.8954 136.746 87.8953 137.329V178.577C87.8969 178.866 87.8413 179.152 87.7319 179.42C87.6225 179.687 87.4614 179.93 87.2578 180.135C87.0543 180.34 86.8122 180.503 86.5457 180.614C86.2792 180.725 85.9935 180.782 85.7048 180.782Z" fill="#E0E0E0"/>
<path d="M85.7039 180.977C85.1199 180.977 84.5598 180.744 84.1469 180.331C83.7339 179.917 83.502 179.357 83.502 178.772V162.654C83.502 162.365 83.5589 162.078 83.6696 161.811C83.7802 161.543 83.9424 161.3 84.1469 161.095C84.3513 160.891 84.5941 160.728 84.8612 160.617C85.1284 160.507 85.4147 160.45 85.7039 160.45C85.9925 160.45 86.2782 160.507 86.5448 160.618C86.8113 160.729 87.0533 160.891 87.2568 161.096C87.4604 161.301 87.6215 161.544 87.7309 161.811C87.8403 162.079 87.8959 162.365 87.8944 162.654V178.772C87.8959 179.061 87.8403 179.347 87.7309 179.615C87.6215 179.882 87.4604 180.125 87.2568 180.33C87.0533 180.535 86.8113 180.698 86.5448 180.809C86.2782 180.92 85.9925 180.977 85.7039 180.977Z" fill="#EBF2F9"/>
<path d="M85.2676 185.339C85.2676 185.991 84.7199 186.39 83.8415 186.39C82.963 186.39 82.4268 185.991 82.4268 185.339C82.4261 185.131 82.4955 184.929 82.6239 184.765C82.7523 184.602 82.932 184.486 83.1341 184.437C82.9647 184.385 82.8172 184.278 82.7142 184.134C82.6111 183.989 82.5583 183.815 82.5637 183.637C82.5637 183.032 83.0656 182.667 83.8415 182.667C84.6173 182.667 85.1307 183.032 85.1307 183.637C85.1334 183.816 85.0782 183.99 84.9732 184.135C84.8683 184.279 84.7193 184.385 84.5488 184.437C84.752 184.486 84.9332 184.601 85.0635 184.764C85.1938 184.928 85.2656 185.13 85.2676 185.339ZM84.8797 185.339C84.8797 184.883 84.4918 184.597 83.8415 184.597C83.1911 184.597 82.8147 184.883 82.8147 185.339C82.8147 185.796 83.1911 186.071 83.8415 186.071C84.4918 186.071 84.8797 185.796 84.8797 185.339ZM83.8415 184.3C84.4119 184.3 84.7542 184.049 84.7542 183.649C84.7542 183.249 84.3891 182.986 83.8415 182.986C83.2938 182.986 82.9401 183.238 82.9401 183.649C82.9401 184.06 83.271 184.3 83.8415 184.3Z" fill="#B3B3B3"/>
<path d="M85.7764 184.528C85.7764 183.386 86.3924 182.666 87.2367 182.666C88.081 182.666 88.7085 183.363 88.7085 184.528C88.7085 185.693 88.0924 186.39 87.2367 186.39C86.381 186.39 85.7764 185.693 85.7764 184.528ZM88.3205 184.528C88.3205 183.546 87.8756 183.009 87.2367 183.009C86.5978 183.009 86.1643 183.546 86.1643 184.528C86.1643 185.511 86.5978 186.047 87.2367 186.047C87.8756 186.047 88.3205 185.511 88.3205 184.528Z" fill="#B3B3B3"/>
<path d="M94.4806 180.782C94.192 180.782 93.9062 180.725 93.6397 180.614C93.3732 180.503 93.1312 180.34 92.9276 180.135C92.724 179.93 92.5629 179.687 92.4535 179.42C92.3441 179.152 92.2886 178.866 92.2901 178.577V137.329C92.2901 136.746 92.5205 136.187 92.931 135.774C93.3415 135.361 93.8986 135.127 94.4806 135.124C95.0646 135.124 95.6246 135.356 96.0376 135.77C96.4505 136.183 96.6825 136.744 96.6825 137.329V178.577C96.684 178.867 96.6281 179.154 96.518 179.422C96.4079 179.691 96.2457 179.934 96.0409 180.139C95.8362 180.344 95.5928 180.507 95.325 180.617C95.0572 180.727 94.7702 180.783 94.4806 180.782Z" fill="#E0E0E0"/>
<path d="M94.479 180.783C93.9261 180.793 93.3904 180.59 92.9827 180.216C92.575 179.841 92.3265 179.325 92.2885 178.772V173.061C92.2748 172.76 92.3206 172.459 92.4234 172.176C92.5262 171.893 92.684 171.633 92.8876 171.411C93.0912 171.189 93.3366 171.009 93.6097 170.883C93.8829 170.756 94.1783 170.685 94.479 170.673C94.7677 170.672 95.0537 170.728 95.3208 170.837C95.5879 170.947 95.8307 171.108 96.0353 171.312C96.2399 171.516 96.4023 171.758 96.5131 172.025C96.6239 172.292 96.6809 172.578 96.6809 172.867V178.578C96.6825 178.868 96.6266 179.155 96.5164 179.424C96.4063 179.692 96.2442 179.935 96.0394 180.14C95.8346 180.345 95.5913 180.508 95.3235 180.618C95.0556 180.728 94.7686 180.784 94.479 180.783Z" fill="#EBF2F9"/>
<path d="M93.831 184.494C93.831 185.739 93.1464 186.39 92.1538 186.39C91.8528 186.403 91.5537 186.336 91.2868 186.196L91.4351 185.888C91.6488 186.014 91.895 186.073 92.1425 186.059C92.9411 186.059 93.4431 185.557 93.4431 184.563C93.4485 184.464 93.4485 184.365 93.4431 184.266C93.3396 184.474 93.1749 184.647 92.9709 184.759C92.767 184.871 92.5336 184.918 92.3022 184.894C92.1439 184.908 91.9845 184.889 91.834 184.838C91.6835 184.788 91.5453 184.706 91.4282 184.598C91.3112 184.491 91.2178 184.36 91.1541 184.214C91.0905 184.068 91.058 183.911 91.0586 183.752C91.0578 183.592 91.0906 183.433 91.155 183.287C91.2193 183.14 91.3137 183.008 91.432 182.901C91.5504 182.793 91.69 182.711 91.8419 182.661C91.9938 182.611 92.1545 182.593 92.3136 182.609C93.2948 182.667 93.831 183.341 93.831 184.494ZM93.3062 183.775C93.3062 183.363 92.9753 182.986 92.3364 182.986C92.2251 182.974 92.1123 182.984 92.0054 183.018C91.8985 183.052 91.7999 183.108 91.716 183.182C91.632 183.256 91.5647 183.347 91.5182 183.45C91.4718 183.552 91.4474 183.662 91.4465 183.775C91.4465 184.266 91.8002 184.574 92.3706 184.574C92.4852 184.587 92.6011 184.576 92.7112 184.542C92.8213 184.508 92.9234 184.452 93.011 184.377C93.0987 184.302 93.1701 184.21 93.2208 184.106C93.2716 184.003 93.3006 183.89 93.3062 183.775Z" fill="#B3B3B3"/>
<path d="M94.3652 184.528C94.3652 183.385 94.9813 182.666 95.8256 182.666C96.6698 182.666 97.2859 183.363 97.2859 184.528C97.2859 185.693 96.6698 186.39 95.8256 186.39C94.9813 186.39 94.3652 185.693 94.3652 184.528ZM96.898 184.528C96.898 183.545 96.4645 183.008 95.8256 183.008C95.1867 183.008 94.7417 183.545 94.7417 184.528C94.7417 185.51 95.1867 186.047 95.8256 186.047C96.4645 186.047 96.898 185.51 96.898 184.528Z" fill="#B3B3B3"/>
<path d="M103.262 180.782C102.973 180.782 102.687 180.725 102.42 180.614C102.153 180.503 101.91 180.341 101.705 180.136C101.501 179.931 101.339 179.688 101.228 179.421C101.117 179.153 101.061 178.867 101.061 178.577V137.329C101.064 136.745 101.297 136.186 101.709 135.773C102.121 135.36 102.679 135.127 103.262 135.124C103.844 135.127 104.402 135.361 104.812 135.774C105.223 136.187 105.453 136.746 105.453 137.329V178.577C105.454 178.866 105.399 179.152 105.289 179.42C105.18 179.687 105.019 179.93 104.815 180.135C104.612 180.34 104.37 180.503 104.103 180.614C103.837 180.725 103.551 180.782 103.262 180.782Z" fill="#E0E0E0"/>
<path d="M103.265 180.782C102.711 180.792 102.174 180.59 101.764 180.216C101.355 179.842 101.104 179.325 101.063 178.772V158.45C101.049 158.148 101.095 157.847 101.199 157.563C101.302 157.279 101.461 157.018 101.666 156.796C101.871 156.574 102.118 156.395 102.392 156.269C102.666 156.143 102.963 156.073 103.265 156.063C103.846 156.063 104.403 156.294 104.814 156.705C105.225 157.117 105.455 157.674 105.455 158.256V178.566C105.458 178.856 105.404 179.144 105.295 179.412C105.186 179.681 105.026 179.926 104.822 180.132C104.618 180.338 104.376 180.501 104.108 180.613C103.841 180.725 103.554 180.782 103.265 180.782Z" fill="#EBF2F9"/>
<path d="M100.115 182.701V186.368H99.7381V183.033H98.8711V182.701H100.115Z" fill="#B3B3B3"/>
<path d="M100.994 184.528C100.994 183.386 101.599 182.666 102.454 182.666C103.31 182.666 103.915 183.363 103.915 184.528C103.915 185.693 103.299 186.39 102.454 186.39C101.61 186.39 100.994 185.693 100.994 184.528ZM103.527 184.528C103.527 183.546 103.093 183.009 102.454 183.009C101.816 183.009 101.371 183.546 101.371 184.528C101.371 185.511 101.816 186.047 102.454 186.047C103.093 186.047 103.527 185.511 103.527 184.528Z" fill="#B3B3B3"/>
<path d="M104.45 184.528C104.45 183.386 105.066 182.666 105.911 182.666C106.755 182.666 107.371 183.363 107.371 184.528C107.371 185.693 106.755 186.39 105.911 186.39C105.066 186.39 104.45 185.693 104.45 184.528ZM106.983 184.528C106.983 183.546 106.549 183.009 105.911 183.009C105.272 183.009 104.827 183.546 104.827 184.528C104.827 185.511 105.272 186.047 105.911 186.047C106.549 186.047 106.983 185.511 106.983 184.528Z" fill="#B3B3B3"/>
<path d="M42.1906 222.758C41.6915 223.473 40.9934 224.01 40.0963 224.368C39.206 224.719 38.1672 224.895 36.9801 224.895C35.7795 224.895 34.7138 224.615 33.783 224.054C32.8522 223.487 32.1305 222.683 31.6179 221.643C31.112 220.603 30.8524 219.398 30.8389 218.027V216.74C30.8389 214.519 31.3549 212.796 32.3868 211.574C33.4256 210.352 34.8825 209.741 36.7576 209.741C38.2954 209.741 39.5331 210.136 40.4706 210.926C41.4082 211.709 41.9815 212.823 42.1906 214.269H40.2481C39.8838 212.317 38.7237 211.341 36.7677 211.341C35.4659 211.341 34.4778 211.8 33.8033 212.719C33.1355 213.631 32.7983 214.954 32.7915 216.69V217.895C32.7915 219.55 33.1692 220.867 33.9247 221.846C34.6801 222.818 35.702 223.305 36.9903 223.305C37.7187 223.305 38.3561 223.224 38.9024 223.061C39.4488 222.899 39.9007 222.626 40.2582 222.241V218.928H36.8486V217.348H42.1906V222.758Z" fill="#E0E0E0"/>
<path d="M45.6852 219.111C45.6852 218.037 45.8943 217.071 46.3124 216.214C46.7374 215.356 47.3242 214.694 48.0729 214.228C48.8283 213.762 49.6883 213.529 50.6528 213.529C52.1434 213.529 53.3474 214.046 54.2647 215.079C55.1888 216.112 55.6508 217.487 55.6508 219.202V219.334C55.6508 220.401 55.4451 221.36 55.0337 222.211C54.629 223.055 54.0455 223.713 53.2833 224.186C52.5279 224.659 51.6578 224.895 50.673 224.895C49.1892 224.895 47.9852 224.378 47.0611 223.345C46.1438 222.312 45.6852 220.944 45.6852 219.242V219.111ZM47.567 219.334C47.567 220.549 47.8469 221.525 48.4067 222.261C48.9733 222.997 49.7288 223.365 50.673 223.365C51.6241 223.365 52.3795 222.994 52.9393 222.251C53.4992 221.501 53.7791 220.455 53.7791 219.111C53.7791 217.909 53.4924 216.936 52.9191 216.193C52.3525 215.444 51.5971 215.069 50.6528 215.069C49.7288 215.069 48.9834 215.437 48.4169 216.173C47.8503 216.909 47.567 217.963 47.567 219.334Z" fill="#E0E0E0"/>
<path d="M58.5383 219.111C58.5383 218.037 58.7474 217.071 59.1656 216.214C59.5905 215.356 60.1773 214.694 60.926 214.228C61.6815 213.762 62.5414 213.529 63.506 213.529C64.9966 213.529 66.2006 214.046 67.1179 215.079C68.0419 216.112 68.504 217.487 68.504 219.202V219.334C68.504 220.401 68.2983 221.36 67.8868 222.211C67.4821 223.055 66.8987 223.713 66.1365 224.186C65.3811 224.659 64.511 224.895 63.5262 224.895C62.0423 224.895 60.8383 224.378 59.9143 223.345C58.997 222.312 58.5383 220.944 58.5383 219.242V219.111ZM60.4202 219.334C60.4202 220.549 60.7001 221.525 61.2599 222.261C61.8265 222.997 62.5819 223.365 63.5262 223.365C64.4772 223.365 65.2327 222.994 65.7925 222.251C66.3523 221.501 66.6323 220.455 66.6323 219.111C66.6323 217.909 66.3456 216.936 65.7723 216.193C65.2057 215.444 64.4503 215.069 63.506 215.069C62.5819 215.069 61.8366 215.437 61.27 216.173C60.7034 216.909 60.4202 217.963 60.4202 219.334Z" fill="#E0E0E0"/>
<path d="M71.4421 219.121C71.4421 217.412 71.8367 216.055 72.6258 215.049C73.415 214.036 74.4604 213.529 75.7622 213.529C77.0977 213.529 78.1398 214.002 78.8885 214.947L78.9795 213.732H80.6894V224.429C80.6894 225.847 80.2678 226.965 79.4247 227.782C78.5883 228.599 77.4619 229.008 76.0455 229.008C75.2563 229.008 74.484 228.839 73.7286 228.501C72.9732 228.164 72.3965 227.701 71.9985 227.113L72.9698 225.989C73.7724 226.982 74.7538 227.478 75.914 227.478C76.8245 227.478 77.5327 227.221 78.0386 226.708C78.5512 226.195 78.8075 225.472 78.8075 224.54V223.598C78.0589 224.463 77.037 224.895 75.742 224.895C74.4604 224.895 73.4217 224.378 72.6258 223.345C71.8367 222.312 71.4421 220.904 71.4421 219.121ZM73.3239 219.334C73.3239 220.569 73.5768 221.542 74.0827 222.251C74.5886 222.953 75.2968 223.305 76.2074 223.305C77.3877 223.305 78.2545 222.768 78.8075 221.694V216.69C78.2342 215.643 77.3742 215.12 76.2276 215.12C75.317 215.12 74.6054 215.474 74.0928 216.183C73.5802 216.892 73.3239 217.942 73.3239 219.334Z" fill="#E0E0E0"/>
<path d="M86.5919 224.692H84.7202V209.133H86.5919V224.692Z" fill="#E0E0E0"/>
<path d="M95.1755 224.895C93.6916 224.895 92.4843 224.409 91.5535 223.436C90.6227 222.457 90.1573 221.15 90.1573 219.516V219.172C90.1573 218.084 90.363 217.115 90.7744 216.264C91.1926 215.407 91.7727 214.738 92.5146 214.259C93.2633 213.772 94.0727 213.529 94.9428 213.529C96.366 213.529 97.4722 213.999 98.2613 214.937C99.0505 215.876 99.445 217.22 99.445 218.969V219.749H92.029C92.056 220.829 92.3696 221.704 92.9699 222.373C93.5769 223.034 94.3459 223.365 95.2767 223.365C95.9377 223.365 96.4975 223.23 96.9562 222.96C97.4148 222.69 97.8161 222.332 98.1601 221.886L99.3034 222.778C98.3861 224.189 97.0101 224.895 95.1755 224.895ZM94.9428 215.069C94.1874 215.069 93.5533 215.346 93.0407 215.9C92.5281 216.447 92.2111 217.216 92.0897 218.209H97.5733V218.067C97.5194 217.115 97.2631 216.379 96.8044 215.859C96.3457 215.332 95.7252 215.069 94.9428 215.069Z" fill="#E0E0E0"/>
<path d="M738.488 216.124H734.121V230.757H738.488V216.124Z" fill="#E0E0E0"/>
<path d="M702.051 214.01H697.685V230.757H702.051V214.01Z" fill="#E0E0E0"/>
<path d="M711.162 210.512H706.795V230.757H711.162V210.512Z" fill="#E0E0E0"/>
<path d="M720.268 211.63H715.901V230.768H720.268V211.63Z" fill="#E0E0E0"/>
<path d="M729.378 205.157H725.011V230.759H729.378V205.157Z" fill="#E0E0E0"/>
<path d="M747.599 205.277H743.232V230.758H747.599V205.277Z" fill="#E0E0E0"/>
<path d="M756.706 213.645H752.339V230.757H756.706V213.645Z" fill="#E0E0E0"/>
<path d="M765.816 206.406H761.449V230.768H765.816V206.406Z" fill="#E0E0E0"/>
<path d="M774.926 200.916H770.56V230.757H774.926V200.916Z" fill="#E0E0E0"/>
<path d="M784.037 206.274H779.67V230.758H784.037V206.274Z" fill="#E0E0E0"/>
<path d="M793.156 248.909H685.844C683.498 248.909 681.249 247.976 679.59 246.315C677.932 244.654 677 242.402 677 240.054V175.855C677 173.506 677.932 171.254 679.59 169.594C681.249 167.933 683.498 167 685.844 167H793.156C795.502 167 797.751 167.933 799.41 169.594C801.068 171.254 802 173.506 802 175.855V240.054C802 242.402 801.068 244.654 799.41 246.315C797.751 247.976 795.502 248.909 793.156 248.909ZM685.844 167.808C683.728 167.811 681.7 168.654 680.203 170.152C678.707 171.65 677.865 173.681 677.862 175.8V239.998C677.865 242.117 678.707 244.148 680.203 245.646C681.7 247.144 683.728 247.987 685.844 247.99H793.156C794.206 247.996 795.246 247.794 796.218 247.398C797.19 247.001 798.074 246.416 798.821 245.677C799.567 244.938 800.161 244.059 800.568 243.091C800.975 242.122 801.187 241.082 801.193 240.031V175.833C801.19 173.714 800.348 171.683 798.852 170.185C797.356 168.687 795.327 167.844 793.211 167.841L685.844 167.808Z" fill="#EBF2F9"/>
<path d="M746.932 188.285C746.932 188.406 734.517 188.517 719.206 188.517C703.894 188.517 691.479 188.406 691.479 188.285C691.479 188.163 703.894 188.053 719.206 188.053C734.517 188.053 746.932 188.119 746.932 188.285Z" fill="#EBF2F9"/>
<path d="M710.259 263.268L713.984 256.092H716.122L711.2 265.054V270.384H709.318V265.054L704.396 256.092H706.553L710.259 263.268Z" fill="#E0E0E0"/>
<path d="M724.508 270.384C724.403 270.175 724.318 269.802 724.253 269.265C723.41 270.142 722.403 270.58 721.233 270.58C720.188 270.58 719.328 270.286 718.655 269.697C717.988 269.101 717.655 268.349 717.655 267.439C717.655 266.333 718.073 265.476 718.91 264.868C719.753 264.252 720.936 263.945 722.459 263.945H724.223V263.111C724.223 262.476 724.034 261.972 723.655 261.599C723.276 261.219 722.717 261.03 721.978 261.03C721.331 261.03 720.789 261.193 720.351 261.52C719.913 261.848 719.694 262.243 719.694 262.708H717.871C717.871 262.178 718.057 261.668 718.429 261.177C718.809 260.68 719.318 260.287 719.959 259.999C720.606 259.711 721.315 259.567 722.086 259.567C723.308 259.567 724.266 259.875 724.959 260.49C725.652 261.098 726.011 261.939 726.037 263.012V267.901C726.037 268.876 726.161 269.651 726.41 270.227V270.384H724.508ZM721.498 269C722.067 269 722.606 268.853 723.116 268.558C723.625 268.264 723.995 267.881 724.223 267.41V265.231H722.802C720.58 265.231 719.469 265.882 719.469 267.184C719.469 267.753 719.658 268.198 720.037 268.519C720.416 268.84 720.903 269 721.498 269Z" fill="#E0E0E0"/>
<path d="M731.6 259.763L731.659 261.098C732.469 260.077 733.528 259.567 734.835 259.567C737.077 259.567 738.207 260.833 738.227 263.366V270.384H736.413V263.356C736.407 262.59 736.23 262.024 735.884 261.658C735.544 261.291 735.011 261.108 734.286 261.108C733.698 261.108 733.181 261.265 732.737 261.579C732.293 261.893 731.946 262.306 731.698 262.816V270.384H729.884V259.763H731.6Z" fill="#E0E0E0"/>
<path d="M741.525 264.985C741.525 263.356 741.911 262.047 742.682 261.059C743.453 260.064 744.463 259.567 745.711 259.567C746.953 259.567 747.937 259.992 748.662 260.843V255.307H750.476V270.384H748.809L748.721 269.245C747.995 270.135 746.986 270.58 745.692 270.58C744.463 270.58 743.46 270.076 742.682 269.069C741.911 268.061 741.525 266.746 741.525 265.123V264.985ZM743.339 265.191C743.339 266.396 743.587 267.338 744.084 268.018C744.581 268.699 745.267 269.039 746.143 269.039C747.293 269.039 748.133 268.522 748.662 267.488V262.61C748.12 261.609 747.286 261.108 746.162 261.108C745.273 261.108 744.581 261.452 744.084 262.139C743.587 262.826 743.339 263.843 743.339 265.191Z" fill="#E0E0E0"/>
<path d="M758.705 270.58C757.267 270.58 756.097 270.109 755.195 269.167C754.293 268.218 753.842 266.952 753.842 265.368V265.034C753.842 263.981 754.042 263.042 754.44 262.217C754.846 261.386 755.408 260.738 756.127 260.274C756.852 259.803 757.636 259.567 758.48 259.567C759.859 259.567 760.93 260.022 761.695 260.931C762.46 261.841 762.842 263.143 762.842 264.838V265.594H755.656C755.682 266.641 755.986 267.488 756.568 268.136C757.156 268.778 757.901 269.098 758.803 269.098C759.444 269.098 759.986 268.967 760.43 268.706C760.875 268.444 761.264 268.097 761.597 267.665L762.705 268.529C761.816 269.897 760.483 270.58 758.705 270.58ZM758.48 261.059C757.748 261.059 757.133 261.327 756.636 261.864C756.14 262.394 755.833 263.14 755.715 264.102H761.028V263.965C760.976 263.042 760.728 262.329 760.283 261.825C759.839 261.314 759.238 261.059 758.48 261.059Z" fill="#E0E0E0"/>
<path d="M769.513 263.641L771.866 259.763H773.983L770.513 265.015L774.091 270.384H771.993L769.542 266.409L767.091 270.384H764.983L768.562 265.015L765.091 259.763H767.189L769.513 263.641Z" fill="#E0E0E0"/>
<defs>
<filter id="filter0_f" x="243.376" y="346.208" width="245.59" height="122.625" filterUnits="userSpaceOnUse" color-interpolation-filters="sRGB">
<feFlood flood-opacity="0" result="BackgroundImageFix"/>
<feBlend mode="normal" in="SourceGraphic" in2="BackgroundImageFix" result="shape"/>
<feGaussianBlur stdDeviation="1" result="effect1_foregroundBlur"/>
</filter>
<filter id="filter1_f" x="256.106" y="394.11" width="100.505" height="54.7594" filterUnits="userSpaceOnUse" color-interpolation-filters="sRGB">
<feFlood flood-opacity="0" result="BackgroundImageFix"/>
<feBlend mode="normal" in="SourceGraphic" in2="BackgroundImageFix" result="shape"/>
<feGaussianBlur stdDeviation="2" result="effect1_foregroundBlur"/>
</filter>
<filter id="filter2_f" x="377.352" y="402.653" width="129.245" height="56.5578" filterUnits="userSpaceOnUse" color-interpolation-filters="sRGB">
<feFlood flood-opacity="0" result="BackgroundImageFix"/>
<feBlend mode="normal" in="SourceGraphic" in2="BackgroundImageFix" result="shape"/>
<feGaussianBlur stdDeviation="2" result="effect1_foregroundBlur"/>
</filter>
<linearGradient id="paint0_linear" x1="334.139" y1="302.612" x2="376.552" y2="531.327" gradientUnits="userSpaceOnUse">
<stop stop-color="#B4D1FA" stop-opacity="0"/>
<stop offset="1" stop-opacity="0.2"/>
</linearGradient>
<linearGradient id="paint1_linear" x1="382.108" y1="359.919" x2="257.556" y2="362.871" gradientUnits="userSpaceOnUse">
<stop stop-color="#71A0DD" stop-opacity="0"/>
<stop offset="1" stop-color="#71A0DD" stop-opacity="0.5"/>
</linearGradient>
</defs>
</svg>
