<svg width="67" height="88" fill="none" xmlns="http://www.w3.org/2000/svg"><g filter="url(#filter0_di)"><path d="M45.297 23.295l-32.24 11.77c-2.202.807-4.1 2.374-5.282 4.359-1.181 1.985-1.549 4.227-1.022 6.236l3.276 12.304c.538 2.004 1.926 3.608 3.86 4.46 1.934.852 4.257.884 6.46.089l7.795-2.84c4.542 1.827 7.472 3.703 8.725 3.282 1.254-.42 2.978-4.483 5.59-8.462l10.116-3.779c2.201-.806 4.1-2.373 5.281-4.358 1.181-1.986 1.55-4.228 1.023-6.236L55.61 27.81c-.55-1.992-1.94-3.582-3.87-4.427-1.93-.846-4.245-.877-6.443-.088z" fill="url(#paint0_linear)"/><path d="M22.765 46.018l2.291 8.304c.154.558.794.83 1.43.61l3.415-1.188c.636-.22 1.026-.852.872-1.41l-2.29-8.303c-.155-.558-.795-.83-1.43-.61l-3.416 1.187c-.635.221-1.026.853-.872 1.41zm18.598-6.46l-.173.105c.387-.221.7-.554.887-.942a1.73 1.73 0 00.134-1.186c-.1-.38-.34-.693-.68-.89a1.752 1.752 0 00-1.184-.188L34.736 38.5c.593-1.474.805-3.015.615-4.48-.543-2.058-2.069-2.758-2.91-2.59-.359.057-.7.24-.957.511a1.53 1.53 0 00-.429.953c-.067.709.648 1.733.608 2.212-.084.739-1.065 2.038-2.258 4.636-.614 1.43-.715 2.951-.285 4.301l.75 2.844.74 2.841.35 1.32a.881.881 0 00.503.59c.126.056.265.085.41.088.146.002.294-.024.437-.075l10.429-3.79a1.57 1.57 0 00.836-.662c.094-.153.157-.317.185-.484a1.153 1.153 0 00-.018-.49 1.024 1.024 0 00-.606-.691 1.227 1.227 0 00-.49-.094c-.174.002-.35.038-.518.105l.164-.1a1.917 1.917 0 001.055-.806c.12-.19.2-.394.237-.602a1.42 1.42 0 00-.021-.61 1.256 1.256 0 00-.76-.855 1.514 1.514 0 00-.614-.106 1.789 1.789 0 00-.643.143l.576-.211a1.918 1.918 0 001.055-.807 1.7 1.7 0 00.236-.602 1.41 1.41 0 00-.021-.608 1.256 1.256 0 00-.76-.856 1.515 1.515 0 00-.613-.107 1.789 1.789 0 00-.644.144l-.012-.003z" fill="#FCFCFC"/></g><defs><linearGradient id="paint0_linear" x1="13120.2" y1="15913.6" x2="14544.7" y2="17490.4" gradientUnits="userSpaceOnUse"><stop stop-color="#65BBFF"/><stop offset="1" stop-color="#315DA4"/></linearGradient><filter id="filter0_di" x="4.519" y="20.725" width="60.595" height="48.362" filterUnits="userSpaceOnUse" color-interpolation-filters="sRGB"><feFlood flood-opacity="0" result="BackgroundImageFix"/><feColorMatrix in="SourceAlpha" values="0 0 0 0 0 0 0 0 0 0 0 0 0 0 0 0 0 0 127 0"/><feOffset dx="2" dy="2"/><feGaussianBlur stdDeviation="2"/><feColorMatrix values="0 0 0 0 0 0 0 0 0 0 0 0 0 0 0 0 0 0 0.15 0"/><feBlend in2="BackgroundImageFix" result="effect1_dropShadow"/><feBlend in="SourceGraphic" in2="effect1_dropShadow" result="shape"/><feColorMatrix in="SourceAlpha" values="0 0 0 0 0 0 0 0 0 0 0 0 0 0 0 0 0 0 127 0" result="hardAlpha"/><feOffset dx="-2" dy="-2"/><feGaussianBlur stdDeviation="2"/><feComposite in2="hardAlpha" operator="arithmetic" k2="-1" k3="1"/><feColorMatrix values="0 0 0 0 0 0 0 0 0 0 0 0 0 0 0 0 0 0 0.2 0"/><feBlend in2="shape" result="effect2_innerShadow"/></filter></defs></svg>