<svg width="219" height="174" fill="none" xmlns="http://www.w3.org/2000/svg"><g clip-path="url(#clip0)"><path d="M62.5 33l2.4-1.58L121 20.5l60.793 10.483-.917 104.551-116.148.194L62.5 33z" fill="url(#paint0_linear)"/><path d="M64.89 31.427L37.635 46.5v121.25l27.519-32.315-.264-104.009z" fill="url(#paint1_linear)"/><path d="M154.454 168.434l-116.818.135V64.568l116.862-.038-.044 103.904z" fill="#102E5B"/><g opacity=".9" filter="url(#filter0_f)"><circle cx="100.5" cy="85.5" r="40.5" fill="url(#paint2_radial)"/></g><path d="M154.453 168.433l27.617-33.167-.278-104.284-27.295 33.548-.044 103.903z" fill="#0A2D49"/><path d="M154.497 64.53l27.295-33.548.268 105.065-27.607 32.386.044-103.903z" fill="#053866"/><path d="M154.497 64.53l27.295-33.548.268 105.038-27.607 32.413.044-103.903z" fill="#053866"/><path d="M175.192 40.116l6.601-9.134.267 27.284-6.868 8.142V40.116z" fill="#053866"/><path d="M177.58 54.639c-1.468-3.165-2.158-7.28-2.158-14.533l.829-1.019c0 6.418.785 10.791 2.03 13.47 1.032 2.214 2.389 2.53 3.8.863l-.021 2.791c-.7.835-1.17 1.019-1.823 1.019-.924 0-1.919-1.009-2.657-2.591z" fill="#FF8098"/><path d="M168.32 48.27l6.872-8.153v26.291l-6.872 8.146V48.27z" fill="#0E2951"/><path d="M161.45 56.411l6.869-8.142v26.285l-6.869 8.142V56.411z" fill="#FF8098"/><path d="M154.498 64.53l6.953-8.118v26.284l-6.869 8.03-.084-26.196zm20.694 1.878l6.868-8.142v25.928l-6.868 8.142V66.408z" fill="#911A31"/><path d="M168.32 74.554l6.872-8.146v25.928l-6.872 8.146V74.554z" fill="#C43B55"/><path d="M161.45 82.697l6.869-8.143v25.929l-6.869 8.142V82.697z" fill="#053866"/><path d="M154.582 90.727l6.869-8.03v25.928l-6.869 8.027V90.727z" fill="#053866"/><path d="M168.32 100.482l6.872-8.146v25.929l-6.872 8.142v-25.925z" fill="#FF8098"/><path d="M161.45 108.625l6.869-8.143v25.925l-6.869 8.146v-25.928z" fill="#0E2951"/><path d="M154.582 116.652l6.869-8.027v25.928l-6.713 8.017-.156-25.918z" fill="#0E2951"/><path d="M175.192 118.265l6.868-8.173v25.928l-6.868 8.173v-25.928z" fill="#C43B55"/><path d="M168.32 126.408l6.872-8.143v25.928l-6.872 8.143v-25.928z" fill="#053866"/><path d="M161.45 134.554l6.869-8.146v25.928l-6.869 8.143v-25.925z" fill="#FF8098"/><path d="M154.737 142.57l6.713-8.017v25.925l-6.997 7.956.284-25.864z" fill="#911A31"/><path d="M178.677 49.977c-1.134-2.445-1.77-5.84-1.77-11.395l.819-1.036c0 4.52.497 7.769 1.512 9.87.609 1.267 1.827 1.671 2.812.49v3.107c-.535.635-.893.835-1.401.835-.71.01-1.384-.632-1.972-1.871z" fill="#D6516B"/><path d="M179.783 44.54c-.792-1.67-1.208-4.23-1.208-8.03l.829-1.018c0 2.716.139 4.074.677 5.697.497 1.556 1.401 1.729 1.989 1.02v3.106c-.368.435-.561.547-.913.547-.508 0-.978-.455-1.374-1.321z" fill="#C43B55"/><path d="M180.772 39.101c-.461-1.018 1.015-5.959 1.015-8.119-.166 1.556-.894 5.012-.562 5.528.193.289.413-5.354.562-5.528l.267 8.635c-.21.262-.247.262-.45.262-.298 0-.585-.289-.832-.778z" fill="#A62E41"/><path d="M154.737 135.728l4.842-5.81V91.763l-4.842 5.738v-3.626l5.837-6.601v44.804l-5.82 6.876-.017-3.226z" fill="#F985A0"/><path d="M154.737 135.728l4.842-5.81v-19.151l.995-1.096v22.407l-5.837 7.273v-3.623z" fill="#C43B55"/><path d="M154.653 129.545l3.275-3.884V99.417l-3.191 3.602v-3.344l4.186-4.747v32.346l-4.169 4.947-.101-2.676z" fill="#F985A0"/><path d="M154.737 122.866l1.492-2.044v-12.228l-1.492 1.841v-3.627l2.487-2.703v18.876l-2.379 2.819-.108-2.934z" fill="#F985A0"/><path d="M154.647 122.553l1.557-1.663v-6.29l1.008-1.011V123l-2.473 2.993-.092-3.44z" fill="#C43B55"/><path d="M154.737 129.314l3.191-3.654v-12.989l.995-1.124v16.242l-4.186 5.151v-3.626z" fill="#C43B55"/><path d="M176.842 122.523l5.218-6.187v19.684l-5.218 6.218v-19.715z" fill="#003A79"/><path d="M178.622 127.158l3.438-4.088v12.95l-3.438 4.085v-12.947z" fill="#FF8098"/><path d="M165.795 51.732l2.497 13.325-4.324 14.532-2.491-13.324 4.318-14.533z" fill="#C43B55"/><path d="M165.352 58.554l1.272 6.818-2.202 7.396-1.276-6.791 2.206-7.423z" fill="#911A31"/><path d="M161.45 139.731l6.869-8.142v20.747l-6.869 8.142v-20.747z" fill="#C43B55"/><path d="M161.45 145.43l6.869-8.143v15.049l-6.869 8.143V145.43z" fill="#911A31"/><path d="M161.45 151.157l6.869-8.173v9.352l-6.869 8.142v-9.321z" fill="#053866"/><path d="M161.45 155.82l6.869-8.146v4.662l-6.869 8.142v-4.658z" fill="#0E2951"/><path d="M168.939 94.927l5.634-7.874-5.634-6.207 5.634-7.874-5.634 21.955z" fill="#911A31"/><path d="M181.232 59.301l.829-1.035v25.928l-.829 1.035V59.302zm-1.327 1.555l.829-1.036v25.93l-.829 1.035V60.856zm-4.328 5.178l.832-1.035v25.928l-.832 1.035V66.035zm1.448-1.87l.999-1.036v25.901l-.999 1.036V64.164zm1.55-1.756l.829-1.035V87.3l-.829 1.035V62.409z" fill="#FF8098"/><path d="M175.192 92.336l6.868-8.142v25.898l-6.868 8.173V92.336z" fill="#0E2951"/><path d="M175.192 105.287l3.431-4.058v12.951l-3.431 4.085v-12.978zm3.43-17.036l3.438-4.057v12.95l-3.438 4.085V88.251z" fill="#911A31"/><path d="M169.99 129.953l3.533-4.883v15.558l-3.533 4.903V133.26l2.873-3.98v9.389l-2.213 3.073v-6.567l1.55-2.149v3.748l-.887 1.223" stroke="#F985A0" stroke-miterlimit="10"/><path d="M159.387 160.478l-3.962-17.867 1.465-1.62 4.175 17.952-1.678 1.535z" fill="#003A79"/><path d="M157.133 162.553l-2.104 2.625 3.441-25.826 2.104-2.065-3.441 25.266z" fill="#003A79"/><path d="M165.849 108.598l1.096-1.297v4.146l-1.096 1.294v-4.143zm-1.512 7.48l1.096-1.297v4.146l-1.096 1.324v-4.173zm-1.513 7.511l1.096-1.297v4.146l-1.096 1.294v-4.143z" fill="#911A31"/><path d="M154.497 64.53l-116.863.038.048 103.838 116.771.028.044-103.904z" fill="#054270"/><path d="M154.453 168.434l-116.808.101-.01-103.967 116.862-.038-.044 103.904z" fill="#053866"/><path d="M66.947 142.523l-29.302.041v-25.969l29.302-.014v25.942z" fill="#F4F9FF"/><path d="M96.209 142.52l-29.262.003v-25.942l29.261-.034v25.973z" fill="#55A2E0"/><path d="M125.473 142.489l-29.265.031v-25.973l29.265-.03v25.972z" fill="#A8D2FC"/><path d="M154.737 142.57l-29.264-.081v-25.972l29.264.084v25.969z" fill="#B9D5FD"/><path d="M96.209 116.547l-29.262.034V90.609l29.261-.03v25.968z" fill="#55A2E0"/><path d="M125.473 116.516l-29.265.031v-25.97l29.265-.03v25.969z" fill="#A8D2FC"/><path d="M154.737 116.601l-29.264-.085V90.547l29.264.082V116.6z" fill="#55A2E0"/><path d="M96.209 168.489l-29.262.003v-25.969l29.261-.003v25.969z" fill="#0E2951"/><path d="M125.473 168.458l-29.265.03v-25.969l29.265-.03v25.969z" fill="#FF8098"/><path d="M154.454 168.434h-29.201V142.57h29.485l-.284 25.864z" fill="#911A31"/><path d="M66.947 90.608l-29.302.013-.01-26.054 29.312.072v25.969z" fill="#C43B55"/><path d="M125.473 90.547l-29.265.03V64.608l29.265-.034v25.973z" fill="#0E2951"/><path d="M154.737 90.628l-29.264-.081V64.574l29.024-.044.24 26.098z" fill="#911A31"/><path d="M129.218 138.961v-44.88l25.235-.026-.457 3.324-20.565.02v38.22l21.306.109v3.63l-25.519-.397z" fill="#55A2E0"/><path d="M128.944 94.082l25.794-.214V97.5l-21.307-.102v19.151l-4.213-.024-.274-22.444z" fill="#003A79"/><path d="M136.243 132.941v-32.119l18.494-1.147v3.192l-14.282.234v26.142l14.282.068v3.63h-18.494z" fill="#55A2E0"/><path d="M143.848 125.959V107.05l10.797-.038-.649 3.369-5.932-.014v12.251l6.673-.071v3.446l-10.889-.034z" fill="#55A2E0"/><path d="M143.848 107.05l10.889-.241v3.633l-6.673-.075v6.285l-4.216-.088v-9.514z" fill="#003A79"/><path d="M136.243 99.784l18.494-.11v3.345l-14.282.082v13.416h-4.212V99.784z" fill="#003A79"/><path d="M52.275 77.623l-14.63.027-.01-13.083 14.64.085v12.971z" fill="#FF8098"/><path d="M106.941 168.369l-10.614-16.315 18.376-9.436 10.652 16.302-18.414 9.449z" fill="#C43B55"/><path d="M108.853 162.071l-5.424-8.343 9.403-4.822 5.383 8.353-9.362 4.812z" fill="#911A31"/><path d="M125.473 85.358l-29.265.03v-20.78l29.265-.034v20.784z" fill="#053866"/><path d="M125.473 79.65l-29.265.031V64.608l29.265-.034V79.65z" fill="#911A31"/><path d="M125.473 73.942l-29.265.004v-9.338l29.265-.034v9.368z" fill="#C43B55"/><path d="M125.473 69.273l-29.265.004v-4.248l29.265-.03v4.275z" fill="#FF8098"/><path d="M94.448 120.774l-25.742.038 25.742 16.438-25.742.037" fill="#003A79"/><path d="M37.604 116.347l4.216-.143v26.489l-4.216.142v-26.488zm5.543.322l4.213-.143v25.973l-4.213.139v-25.969zm17.675-.074l4.213-.143-.078 26.02-4.253.153.118-26.03zm-5.972.054l4.254-.149v25.969l-4.253.152v-25.972zm-5.85.023l4.253-.152v25.972l-4.253.153v-25.973z" fill="#55A2E0"/><path d="M66.947 116.581l-29.302.013V90.622l29.302-.014v25.973z" fill="#A8D2FC"/><path d="M66.947 168.492l-29.302.044v-25.972l29.302-.041v25.969z" fill="#053866"/><path d="M66.947 103.579l-14.672.014V90.622l14.672-.014v12.971z" fill="#55A2E0"/><path d="M37.604 146.465v-2.588c15.608 0 28.835 6.978 28.835 24.649l-3.512-.055c0-11.942-11.237-22.027-25.323-22.006z" fill="#FF8098"/><path d="M37.568 152.067v-3.096c11.744 0 21.81 7.011 21.81 19.463l-4.212.139c0-9.151-7.336-16.523-17.598-16.506z" fill="#D6516B"/><path d="M37.604 157.881l.078-2.992c7.998 0 13.97 5.834 13.97 13.616l-3.941.065c0-5.62-3.864-10.679-10.107-10.689z" fill="#C43B55"/><path d="M37.604 164.135l.078-3.28c4.371 0 7.65 3.195 6.946 7.541l-3.512-.054c0-2.509-.741-4.234-3.512-4.207z" fill="#A62E41"/><path d="M93.048 87.895l-23.06-.099.082-20.465 23.06.072-.065 16.139-18.728-.082.05-12.336 14.398.065-.037 8.618-10.067-.048.02-4.93 5.736.034" stroke="#F985A0" stroke-width="4" stroke-miterlimit="10"/><path d="M150.64 87.423l-19.899-19.738m0 19.745l19.899-19.752" stroke="#003A79" stroke-width="6" stroke-miterlimit="10"/><path d="M106.744 111.352l-4.683-.014v-4.153l4.683-.013v4.18zm6.439-5.722l-4.683-.017v-4.149l4.683.017v4.149zm6.437-5.721l-4.68.013v-4.18l4.68.017v4.15z" fill="#F4F9FF"/><path d="M59.885 84.37l-22.24.027-.01-19.83 22.25.089V84.37z" fill="#053866"/><path d="M53.916 79.066l-16.271-.003-.01-14.496 16.281.058v14.441z" fill="#FF8098"/><path d="M52.276 116.591l-14.631.004v-12.971l14.63-.031v12.998z" fill="#55A2E0"/><path opacity=".3" d="M154.5 168.3l27.5-32.5v-105l-27.5 33.7v103.8z" fill="#000"/><path d="M154.731 90.6l-117.04.407V142.6h117.04v-52z" fill="#D6516B"/><path d="M181.793 30.982l32.704 17.075L189.932 81l-35.434-16.47 27.295-33.548z" fill="#084C80"/><path d="M33.53 42.6L64.9 31.42 37.932 64.2 4 75.604 33.53 42.6z" fill="#084C7F"/><path d="M132.274 97.1l22.229-32.651H37.771L15.27 96.859l117.004.241zm62.604-91.662l-13.085 25.545-116.903.444L77.606 5l117.272.438z" fill="#084C80"/></g><defs><linearGradient id="paint0_linear" x1="198.468" y1="27.323" x2="197.371" y2="55.205" gradientUnits="userSpaceOnUse"><stop stop-color="#215198"/><stop offset="1" stop-color="#1F447C"/></linearGradient><linearGradient id="paint1_linear" x1="77.5" y1="112" x2="41" y2="100" gradientUnits="userSpaceOnUse"><stop stop-color="#032B57"/><stop offset="1" stop-color="#0A3D76"/></linearGradient><radialGradient id="paint2_radial" cx="0" cy="0" r="1" gradientUnits="userSpaceOnUse" gradientTransform="rotate(90 14.25 85.784) scale(32.1207)"><stop stop-color="#0095FF"/><stop offset="1" stop-color="#BCE3FF"/></radialGradient><clipPath id="clip0"><path fill="#fff" d="M0 0h219v174H0z"/></clipPath><filter id="filter0_f" x="-20" y="-35" width="241" height="241" filterUnits="userSpaceOnUse" color-interpolation-filters="sRGB"><feFlood flood-opacity="0" result="BackgroundImageFix"/><feBlend in="SourceGraphic" in2="BackgroundImageFix" result="shape"/><feGaussianBlur stdDeviation="40" result="effect1_foregroundBlur"/></filter></defs></svg>