<svg width="134" height="130" fill="none" xmlns="http://www.w3.org/2000/svg"><g clip-path="url(#clip0)"><path d="M25.407 3.204l108.561.377-1.097 95.82-107.684.188.22-96.385z" fill="#102E5B"/><path d="M25.596 3.142L.063 33.74 0 129.215l25.596-29.877V3.142z" fill="#0A2D49"/><path d="M108.373 129.843L0 129.969l.063-96.228 107.746-.188.564 96.29z" fill="#102E5B"/><path d="M108.373 129.843l25.596-30.662V3.58l-25.502 30.191-.094 96.071z" fill="#0A2D49"/><path d="M108.467 33.772l25.502-30.19v96.321l-25.596 29.94.094-96.07z" fill="#053866"/><path d="M108.467 33.772l25.502-30.19v96.29l-25.596 29.971.094-96.07z" fill="#053866"/><path d="M127.601 11.121l6.367-7.54V27.93l-6.367 7.54V11.12z" fill="#053866"/><path d="M129.797 24.567c-1.349-2.921-2.008-6.723-2.008-13.446l.784-.973c0 5.937.722 9.99 1.882 12.472.973 2.042 2.227 2.356 3.513.785l-.031 2.576c-.659.786-1.098.974-1.694.974-.815 0-1.756-.911-2.446-2.387z" fill="#B9D5FD"/><path d="M121.233 18.661l6.368-7.54V35.47l-6.368 7.54V18.66z" fill="#FF8098"/><path d="M114.866 26.201l6.368-7.54V43.01l-6.368 7.508V26.201z" fill="#709FDC"/><path d="M108.467 33.772l6.399-7.571v24.316l-6.368 7.446-.031-24.19z" fill="#911A31"/><path d="M127.601 35.469l6.367-7.54v23.97l-6.367 7.54V35.47z" fill="#B9D5FD"/><path d="M121.233 43.009l6.368-7.54v23.97l-6.368 7.54V43.01z" fill="#C43B55"/><path d="M114.866 50.517l6.368-7.509V66.98l-6.368 7.54V50.517z" fill="#3D95D1"/><path d="M108.498 57.963l6.368-7.446V74.52l-6.368 7.414v-23.97z" fill="#B9D5FD"/><path d="M121.233 66.98l6.368-7.54v24l-6.368 7.54V66.979z" fill="#FF8098"/><path d="M114.866 74.52l6.368-7.54v24l-6.368 7.54v-24z" fill="#0E2951"/><path d="M108.498 81.933l6.368-7.414v24.002l-6.242 7.414-.126-24.002z" fill="#709FDC"/><path d="M127.601 83.441l6.367-7.57v24.001l-6.367 7.54v-23.97z" fill="#911A31"/><path d="M121.233 90.981l6.368-7.54v23.971l-6.368 7.54v-23.97z" fill="#053866"/><path d="M114.866 98.521l6.368-7.54v23.971l-6.368 7.54v-23.97z" fill="#FF8098"/><path d="M108.624 105.935l6.242-7.414v23.971l-6.493 7.351.251-23.908zm22.208-85.672c-1.066-2.262-1.631-5.403-1.631-10.555l.784-.974c0 4.178.471 7.194 1.412 9.142.564 1.162 1.694 1.54 2.603.44v2.89c-.502.597-.815.785-1.286.785-.721 0-1.348-.597-1.882-1.728z" fill="#3D95D1"/><path d="M131.867 15.237c-.722-1.54-1.13-3.927-1.13-7.414l.784-.974c0 2.545.126 3.738.628 5.278.47 1.445 1.286 1.602 1.85.974v2.89c-.345.408-.533.503-.846.503-.502-.032-.941-.472-1.286-1.257z" fill="#3376B3"/><path d="M132.777 10.179c-.439-.942-.659-2.325-.659-4.304l.91-.974c-.157 1.445-.157 2.388.157 2.89a.58.58 0 00.784 0v2.89c-.188.252-.22.252-.408.252-.282-.031-.565-.283-.784-.754z" fill="#709FDC"/><path d="M108.624 99.59l4.486-5.373V58.905l-4.486 5.31v-3.33l5.427-6.127v41.47l-5.396 6.346-.031-2.985z" fill="#FF8098"/><path d="M108.624 99.59l4.486-5.373v-18.19l.941-.942v21.143l-5.427 6.723v-3.362z" fill="#0E2951"/><path d="M108.562 93.871l3.042-3.581V66.005l-2.98 3.33v-3.11l3.89-4.367v29.908l-3.858 4.587-.094-2.482z" fill="#FF8098"/><path d="M108.624 87.682l1.38-1.885v-11.31l-1.38 1.697v-3.361l2.321-2.482v17.467l-2.196 2.607-.125-2.733z" fill="#FF8098"/><path d="M108.562 87.4l1.38-1.414v-6.19l.909-.973v9.174l-2.227 2.576-.062-3.173z" fill="#0E2951"/><path d="M108.624 93.651l2.98-3.361V77.85l.91-.975v15.363l-3.89 4.775v-3.362z" fill="#0E2951"/><path d="M129.139 87.368l4.83-5.718v18.222l-4.83 5.749V87.368z" fill="#C43B55"/><path d="M130.769 91.672l3.199-3.801v12l-3.199 3.771v-11.97z" fill="#FF8098"/><path d="M118.881 21.866l2.321 12.346-4.015 13.446-2.29-12.346 3.984-13.446z" fill="#0E2951"/><path d="M118.473 28.18l1.192 6.315-2.07 6.849-1.16-6.284 2.038-6.88z" fill="#6780B3"/><path d="M114.866 103.296l6.368-7.54v19.196l-6.368 7.54v-19.196z" fill="#C43B55"/><path d="M114.866 108.574l6.368-7.54v13.918l-6.368 7.54v-13.918z" fill="#911A31"/><path d="M114.866 113.883l6.368-7.571v8.639l-6.368 7.54v-8.608z" fill="#053866"/><path d="M114.866 118.188l6.368-7.54v4.304l-6.368 7.54v-4.304z" fill="#0E2951"/><path d="M121.798 61.858l5.238-7.288-5.238-5.75 5.238-7.288-5.238 20.326z" fill="#911A31"/><path d="M133.185 28.871l.784-.942v23.97l-.784.974V28.871zm-1.223 1.446l.784-.943v23.97l-.784.974V30.317zm-4.017 4.806l.784-.974v24.002l-.784.943v-23.97zm1.35-1.728l.91-.974v23.97l-.91.943V33.395zm1.442-1.633l.753-.974V54.79l-.753.942v-23.97z" fill="#55A2E0"/><path d="M127.601 59.44l6.367-7.54v23.97l-6.367 7.571V59.44z" fill="#0E2951"/><path d="M127.601 71.44l3.168-3.77v12.001l-3.168 3.77v-12zm3.168-15.77l3.199-3.77v12l-3.199 3.77v-12z" fill="#55A2E0"/><path d="M122.771 94.97l3.262-3.895v12.347l-3.262 3.895v-9.739l2.666-3.141v7.445l-2.039 2.419v-5.215l1.411-1.696v2.984l-.815.974" stroke="#3D95D1" stroke-miterlimit="10"/><path d="M112.952 122.492l-3.67-16.525 1.349-1.508 3.858 16.619-1.537 1.414z" fill="#003A79"/><path d="M110.852 124.408l-1.945 2.419 3.2-23.876 1.944-1.917-3.199 23.374z" fill="#003A79"/><path d="M118.944 74.488l1.004-1.194v3.833l-1.004 1.194v-3.833zm-1.412 6.912l1.004-1.194v3.832l-1.004 1.225V81.4zm-1.411 6.973l1.035-1.225v3.864l-1.035 1.194v-3.833z" fill="#B9D5FD"/><path d="M108.468 33.772L.063 33.741l.063 96.102h108.248l.094-96.07z" fill="#054270"/><path d="M108.374 129.843l-108.28.094-.03-96.196 108.404.031-.094 96.071z" fill="#053866"/><path d="M27.257 105.873l-27.164.031V81.902l27.164-.031v24.002z" fill="#F4F9FF"/><path d="M54.39 105.872H27.258V81.871l27.132-.032v24.033z" fill="#274684"/><path d="M81.492 105.841l-27.101.031V81.839l27.1-.032v24.034z" fill="#3D95D1"/><path d="M108.624 105.935l-27.133-.094V81.807l27.133.095v24.033zM54.39 81.839l-27.132.031V57.837l27.132-.031v24.033z" fill="#B9D5FD"/><path d="M81.492 81.808l-27.101.031V57.806h27.1v24.002z" fill="#0E2951"/><path d="M108.624 81.902l-27.133-.094V57.806l27.133.063v24.033z" fill="#709FDC"/><path d="M54.39 129.906H27.258v-24.034H54.39v24.034z" fill="#C43B55"/><path d="M81.634 129.874l-27.243.032v-24.034l27.243-.031v24.033z" fill="#709FDC"/><path d="M108.373 129.843l-26.693.031v-24.033l26.944.094-.251 23.908zM27.259 57.837l-27.164.031-.032-24.127 27.196.094v24.002z" fill="#911A31"/><path d="M54.39 57.806l-27.132.031V33.835l27.132-.031v24.002z" fill="#053866"/><path d="M81.492 57.806H54.39V33.804l27.1-.032v24.034z" fill="#0E2951"/><path d="M108.624 57.869l-27.133-.063V33.773h26.976l.157 24.096z" fill="#3D95D1"/><path d="M84.974 102.574v-41.5l23.399-.032-.439 3.079h-19.04v35.374l19.73.094v3.362l-23.65-.377z" fill="#274684"/><path d="M84.723 61.073l23.901-.22v3.362l-19.73-.095v17.72h-3.92l-.251-20.766z" fill="#0E2951"/><path d="M91.498 97.013v-29.72l17.126-1.068v2.954l-13.236.22v24.19l13.236.063v3.361H91.498z" fill="#274684"/><path d="M98.556 90.541V73.074l10.006-.063-.628 3.142-5.489-.032v11.341l6.179-.062v3.173l-10.068-.032z" fill="#274684"/><path d="M98.556 73.074l10.068-.251v3.361l-6.179-.063v5.812l-3.89-.062v-8.797z" fill="#0E2951"/><path d="M91.498 66.351l17.126-.126v3.11l-13.236.063v12.41h-3.89V66.35z" fill="#0E2951"/><path d="M13.645 45.836l-13.55.031-.032-12.126 13.582.094v12z" fill="#FF8098"/><path d="M64.335 129.78l-9.85-15.08 17.033-8.733 9.88 15.08-17.063 8.733z" fill="#0E2951"/><path d="M66.091 123.968l-5.019-7.728 8.72-4.461 4.988 7.728-8.689 4.461z" fill="#6780B3"/><path d="M81.492 53l-27.101.03V33.805l27.1-.032V53z" fill="#053866"/><path d="M81.492 47.721l-27.101.032v-13.95l27.1-.03V47.72z" fill="#911A31"/><path d="M81.492 42.443H54.39v-8.64l27.1-.03v8.67z" fill="#C43B55"/><path d="M81.492 38.108H54.39v-4.304l27.1-.032v4.336z" fill="#FF8098"/><path d="M52.76 85.766l-23.87.031 23.87 15.206-23.87.031" fill="#0E2951"/><path d="M.063 81.65l3.89-.125v24.504l-3.89.126V81.651zm5.113.315l3.92-.126v24.002l-3.92.157V81.965zm16.404-.063l3.89-.157-.063 24.096-3.952.125.126-24.064zm-5.552.031l3.953-.126v24.034l-3.953.125V81.933zm-5.426.032l3.952-.158v24.034l-3.952.157V81.964z" fill="#709FDC"/><path d="M27.257 81.87l-27.164.032V57.87l27.164-.032v24.034z" fill="#0E2951"/><path d="M27.257 129.906l-27.164.031v-24.033l27.164-.032v24.034z" fill="#053866"/><path d="M27.258 69.838l-13.613.032V57.869l13.613-.032v12.001z" fill="#3D95D1"/><path d="M.063 109.517v-2.388c14.46 0 26.725 6.44 26.725 22.808l-3.262-.063c0-11.027-10.414-20.357-23.463-20.357z" fill="#B9D5FD"/><path d="M0 114.7v-2.89c10.884 0 20.232 6.472 20.232 18.001l-3.921.126c0-8.42-6.775-15.237-16.311-15.237z" fill="#3D95D1"/><path d="M.063 120.104l.063-2.765c7.403 0 12.955 5.404 12.955 12.598L9.442 130c-.031-5.215-3.607-9.896-9.379-9.896z" fill="#3376B3"/><path d="M.063 125.885l.063-3.048c4.047 0 7.09 2.953 6.43 6.975l-3.262-.063c0-2.294-.69-3.896-3.23-3.864z" fill="#709FDC"/><path d="M51.473 55.292h-21.36V36.348h21.36v14.923H34.127V39.836l13.331.031v7.948h-9.316V43.26h5.301" stroke="#3D95D1" stroke-width="2" stroke-miterlimit="10"/><path d="M104.829 54.916L86.385 36.63m0 18.286l18.444-18.285" stroke="#0E2951" stroke-width="4" stroke-miterlimit="10"/><path d="M64.146 77.032h-4.329V73.2l4.329-.032v3.864zm5.96-5.277l-4.329-.032V67.89l4.329.032v3.833zm5.959-5.31l-4.329.032v-3.865h4.329v3.833z" fill="#B9D5FD"/><path d="M20.703 52.088H.095L.063 33.74l20.64.094v18.253z" fill="#C43B55"/><path d="M15.182 47.155H.095L.063 33.741l15.12.063v13.351z" fill="#FF8098"/><path d="M13.643 81.902H.093V69.9l13.55-.032v12.033z" fill="#3D95D1"/><path d="M72.302 3.425l-47.114-.409L.064 33.741l47.459.063 24.78-30.38z" fill="#165B93"/><path d="M133.185 1.665l.407-1.005.251-.66" fill="#34DD17"/><path d="M133.969 3.581l-51.38-.157-22.772 30.474 48.651-.126 25.501-30.19z" fill="#165B93"/><path d="M121.266 10.273l-12.798 23.5L.063 33.74 12.8 10.053l108.467.22zm2.006-2.167l10.696-4.524-108.78-.566L14.553 7.73l108.718.377z" fill="#004376"/><path d="M108.679 57.572H0v48.285h108.679V57.572z" fill="#FF8098"/></g><defs><clipPath id="clip0"><path fill="#fff" d="M0 0h134v130H0z"/></clipPath></defs></svg>