<svg width="259" height="120" fill="none" xmlns="http://www.w3.org/2000/svg"><path d="M38.539 54.267l-1.59.147c-.766-4.834-1.596-8.975-2.488-12.422-.46 1.093-.969 2.635-1.526 4.624-.544 1.976-.92 3.258-1.13 3.846a.877.877 0 00-.146.021h-.146c-.196 0-.516-.02-.962-.063a12.295 12.295 0 00-.858-.063c-.014-.406-.369-1.758-1.066-4.056-.697-2.312-1.115-3.79-1.255-4.435-.25 2.27-1.226 6.404-2.927 12.4l-1.297-.125c.196-1.528.677-3.93 1.443-7.21.767-3.278 1.22-5.814 1.36-7.608.25-.028.453-.042.606-.042.14 0 .655.056 1.547.168.195.028.474.666.837 1.913a88.626 88.626 0 011.129 4.077c.376 1.486.613 2.361.71 2.627.391-.966.858-2.536 1.402-4.708.557-2.171.948-3.551 1.17-4.14.224.014.928.077 2.113.19.362 1.414.71 2.942 1.045 4.581.349 1.64.718 3.503 1.108 5.59.405 2.088.712 3.65.92 4.688zm1.61-9.08l-.419-1.072c.363-.364.823-.651 1.38-.862a4.405 4.405 0 011.653-.336c2.355 0 3.533 2.046 3.533 6.137 0 .56-.034 1.387-.104 2.48a52.779 52.779 0 00-.084 2.46c-.111.434-.327.651-.648.651-.25 0-.481-.126-.69-.378a1.286 1.286 0 01-.314-.841c0-.098.007-.168.021-.21-.864.84-1.784 1.26-2.76 1.26-.739 0-1.387-.265-1.945-.798a2.7 2.7 0 01-.815-1.975c0-1.303.502-2.48 1.505-3.531 1.018-1.051 2.168-1.577 3.45-1.577a.69.69 0 01.168.021c.056 0 .118.007.188.021.084.014.146.021.188.021-.111-1.64-.76-2.459-1.944-2.459-.697 0-1.485.33-2.363.988zm4.37 6.579c.028-.981.042-1.724.042-2.228 0-.42-.014-1.01-.042-1.766h-.167c-.99.014-1.896.386-2.719 1.114-.808.729-1.212 1.611-1.212 2.648 0 .449.132.806.397 1.072a1.4 1.4 0 001.004.4c.613 0 1.512-.414 2.697-1.24zm3.722-8.555l1.171.21c0 .295.007.512.021.652.767-.49 1.54-.736 2.321-.736 1.269 0 2.258.547 2.97 1.64.71 1.093 1.066 2.333 1.066 3.72 0 .7-.056 1.373-.167 2.018a9.171 9.171 0 01-.544 1.954 3.591 3.591 0 01-1.234 1.598c-.544.392-1.206.588-1.986.588-.74 0-1.45-.196-2.133-.588.056 2.452.104 4.273.146 5.464-.125.435-.37.652-.732.652-.25 0-.495-.105-.732-.315a1.267 1.267 0 01-.418-.736l.251-16.12zm1.36 2.228l.062 6.789c.167.336.425.61.774.82.348.196.732.294 1.15.294.543 0 1.003-.175 1.38-.526.39-.35.662-.812.815-1.387a10.09 10.09 0 00.335-1.64c.07-.504.105-1.036.105-1.596 0-2.382-.802-3.573-2.405-3.573a4.39 4.39 0 00-1.443.23c-.432.14-.69.337-.774.59zm15.369 8.302l.062.925c-.334.084-.571.126-.71.126a2.24 2.24 0 01-1.444-.525 4.324 4.324 0 01-1.066-1.282 39.643 39.643 0 01-.795-1.514 6.47 6.47 0 00-.773-1.282c-.28-.35-.565-.525-.858-.525a.784.784 0 00-.313.063c.056.84.153 2.2.292 4.077-.125.435-.369.652-.731.652-.251 0-.495-.098-.732-.294a1.366 1.366 0 01-.418-.757c.055-2.354.083-4.568.083-6.642 0-1.527.063-2.739.188-3.636l.941.337c.112.546.175 1.33.189 2.354.014 1.008.027 1.632.041 1.87.419-.07.781-.287 1.088-.651.32-.365.578-.778.773-1.24.21-.463.426-.918.649-1.367.223-.448.508-.826.857-1.135a1.907 1.907 0 011.276-.462c.25 0 .64.084 1.17.252l-.083.715a2.103 2.103 0 00-.335-.021c-.557 0-1.045.238-1.463.714a4.868 4.868 0 00-.92 1.556 8.96 8.96 0 01-.753 1.618c-.307.519-.642.82-1.004.904.516.126.955.476 1.317 1.05a6.7 6.7 0 01.837 1.787c.195.603.474 1.156.836 1.66.363.491.809.736 1.339.736.139 0 .292-.02.46-.063zm9.347-1.513l.209.925c-.614.224-1.527.476-2.74.756-1.198.267-2.09.4-2.676.4a2.3 2.3 0 01-1.569-.589 3.77 3.77 0 01-1.003-1.534c-.223-.63-.39-1.247-.502-1.85a11.551 11.551 0 01-.146-1.807c0-3.503 1.575-5.255 4.725-5.255a2.96 2.96 0 011.987.736c.571.476.857 1.1.857 1.87 0 .421-.118.792-.355 1.115a2.614 2.614 0 01-.837.777c-.32.182-.739.35-1.254.505a11.62 11.62 0 01-1.339.336c-.39.07-.857.147-1.4.231-.544.084-.92.147-1.13.19.014.406.035.763.063 1.071.042.309.112.645.21 1.01.11.35.25.644.417.882.181.224.425.413.732.567.307.154.67.231 1.087.231.502 0 1.116-.041 1.84-.126a49.707 49.707 0 001.924-.294c.572-.098.872-.147.9-.147zm-7.09-4.498c1.897-.546 3.451-1.12 4.664-1.723-.098-.463-.23-.799-.397-1.01-.168-.21-.419-.314-.753-.314-.85 0-1.624.294-2.321.882-.683.589-1.08 1.31-1.192 2.165zm7.466-3.11l-.188-.925a884.45 884.45 0 018.824-.463c.335.014.62.14.857.379.237.238.356.49.356.756 0 .42-.279.659-.837.715l-3.91-.19c.07 1.052.105 2.586.105 4.604.014 2.003.041 3.468.083 4.392-.125.407-.37.61-.732.61-.237 0-.467-.098-.69-.294a1.258 1.258 0 01-.418-.715c.195-3.447.397-6.34.607-8.68l-4.057-.19zm12.547 7.902c0 .239.013.554.041.946-.125.434-.37.652-.732.652-.25 0-.495-.098-.732-.295a1.367 1.367 0 01-.418-.756c.042-1.135.09-2.796.147-4.982.07-2.185.118-3.664.146-4.434l.962-.168c.167.896.272 2.087.313 3.573.042 1.485.098 2.592.168 3.32.265-.392 1.017-1.415 2.258-3.068 1.24-1.654 2.084-2.887 2.53-3.7a4.62 4.62 0 01.586-.083c.265 0 .446.119.543.357.112.238.182.687.21 1.345l.397 8.66c-.126.42-.37.63-.732.63-.251 0-.495-.098-.732-.294a1.366 1.366 0 01-.418-.757l.104-3.384c.07-1.807.126-3.09.168-3.846-2.384 2.732-3.987 4.827-4.81 6.284zm14.386-8.912l.941.21.481 10.194c-.126.42-.37.631-.732.631-.251 0-.495-.105-.732-.315a1.228 1.228 0 01-.439-.736c0-.042.063-1.226.188-3.552v-.168c-.39-.028-.969-.042-1.736-.042-1.157 0-2.028-.035-2.613-.105.07.813.16 2.123.271 3.93-.125.435-.369.652-.731.652-.251 0-.495-.098-.732-.294a1.366 1.366 0 01-.418-.757c.041-.7.062-1.401.062-2.102 0-.448-.007-1.12-.02-2.018a130.02 130.02 0 01-.022-1.996c0-1.345.042-2.473.126-3.384l.94.231c.28 3.04.426 4.603.44 4.687 2.384.126 3.61.19 3.68.19.572 0 .858-.036.858-.106 0-.28.027-1.17.083-2.67.056-1.498.091-2.325.105-2.48zm3.534-.125c.599-.056 1.505-.148 2.718-.274a95.15 95.15 0 012.572-.273c.348.014.641.147.878.4.251.238.377.497.377.777 0 .42-.279.659-.837.715-.516-.042-1.296-.112-2.342-.21-1.045-.098-1.84-.169-2.384-.21.014.854.098 2.241.251 4.16.154 1.92.23 3.385.23 4.394 0 .868-.341 1.303-1.024 1.303-.572 0-.858-.393-.858-1.177 0-.925.021-1.913.063-2.964.042-1.065.105-2.277.188-3.636.084-1.373.14-2.375.168-3.005zm6.461 6.305c0-.56.056-1.184.167-1.87.126-.687.307-1.409.544-2.166.237-.756.592-1.387 1.066-1.891.474-.505 1.025-.757 1.652-.757 1.339 0 2.412.61 3.221 1.829.808 1.205 1.212 2.55 1.212 4.035 0 .63-.069 1.261-.209 1.892a8.24 8.24 0 01-.606 1.828 3.996 3.996 0 01-1.213 1.514c-.516.392-1.122.616-1.819.672-1.283-.168-2.272-.714-2.97-1.64-.697-.938-1.045-2.087-1.045-3.446zm3.555-5.59c-.488.055-.899.504-1.234 1.344a9.857 9.857 0 00-.648 2.46 17.018 17.018 0 00-.147 2.08c0 .785.237 1.513.711 2.186.488.659 1.032.988 1.631.988.433 0 .823-.168 1.171-.505.349-.336.621-.75.816-1.24a7.868 7.868 0 00.46-1.513c.111-.504.167-.953.167-1.345 0-1.149-.258-2.15-.773-3.006-.516-.854-1.234-1.338-2.154-1.45zm6.461-.715c2.161-.463 3.478-.694 3.952-.694 1.868 0 2.802.806 2.802 2.417 0 .56-.097 1.107-.293 1.64-.181.518-.411.861-.69 1.03 1.088.742 1.631 1.765 1.631 3.068 0 1.233-.404 2.193-1.212 2.88-.795.686-1.847 1.03-3.158 1.03-1.561 0-2.725-.421-3.492-1.262l.46-10.11zm1.192 5.275l.188 4.267c.349.168.746.252 1.192.252.864 0 1.659-.273 2.384-.82.725-.546 1.087-1.184 1.087-1.912 0-.505-.195-.967-.585-1.388-.391-.434-.885-.651-1.485-.651-.348 0-1.275.084-2.781.252zm-.209-4.33l.146 3.237c.209-.028.53-.049.962-.063a8.753 8.753 0 001.046-.084 3.95 3.95 0 00.878-.315c.321-.168.572-.456.753-.862.195-.406.327-.939.397-1.597-.139-.42-.565-.63-1.276-.63-.32 0-.822.048-1.505.146-.683.098-1.15.154-1.401.168zm8.866.757l-.418-1.072c.362-.364.822-.651 1.38-.862a4.402 4.402 0 011.652-.336c2.356 0 3.534 2.046 3.534 6.137 0 .56-.035 1.387-.105 2.48a52.59 52.59 0 00-.084 2.46c-.111.434-.327.651-.648.651-.251 0-.481-.126-.69-.378a1.286 1.286 0 01-.313-.841c0-.098.007-.168.02-.21-.864.84-1.784 1.26-2.76 1.26-.739 0-1.387-.265-1.944-.798a2.699 2.699 0 01-.816-1.975c0-1.303.502-2.48 1.506-3.531 1.017-1.051 2.167-1.577 3.45-1.577.056 0 .111.007.167.021.056 0 .119.007.188.021.084.014.147.021.189.021-.112-1.64-.76-2.459-1.945-2.459-.697 0-1.485.33-2.363.988zm4.37 6.579c.028-.981.042-1.724.042-2.228 0-.42-.014-1.01-.042-1.766h-.167c-.99.014-1.896.386-2.718 1.114-.809.729-1.213 1.611-1.213 2.648 0 .449.132.806.397 1.072a1.4 1.4 0 001.004.4c.613 0 1.512-.414 2.697-1.24zm10.644-8.408l.313 11.287c-.139.42-.376.63-.711.63-.237 0-.474-.097-.71-.294a1.255 1.255 0 01-.419-.714l.209-4.561c-.585.378-1.191.574-1.819.588-.53 1.752-1.199 3.034-2.007 3.847-.795.812-2.07 1.464-3.827 1.954l-.334-.904c2.606-.658 4.091-2.389 4.454-5.19a4.073 4.073 0 01-1.673-1.283 3.2 3.2 0 01-.649-1.976c0-1.485.377-2.473 1.13-2.963.752-.49 1.944-.736 3.575-.736a9.61 9.61 0 012.468.316zm-1.15 4.582l-.105-3.32c-.488-.155-1.206-.232-2.154-.232-.669 0-1.24.154-1.714.463-.474.294-.711.777-.711 1.45 0 .757.299 1.408.899 1.955.599.532 1.255.798 1.965.798.837 0 1.443-.371 1.82-1.114zm16.205-4.098l-.104.904a10.842 10.842 0 00-1.506-.127c-.962 0-1.756.295-2.384.883a4.476 4.476 0 00-1.296 2.06c-.223.785-.335 1.66-.335 2.627 0 .449.028.848.084 1.198.056.35.153.694.293 1.03.153.337.383.603.69.799.32.182.711.273 1.171.273.613 0 1.394-.119 2.342-.357.293-.112.523-.168.69-.168.334 0 .537.392.606 1.177-1.226.392-2.363.588-3.408.588-1.52 0-2.551-.371-3.095-1.114-.53-.756-.795-1.976-.795-3.657 0-.98.063-1.835.189-2.564.139-.743.376-1.43.711-2.06a3.408 3.408 0 011.442-1.471c.642-.336 1.422-.505 2.342-.505 1.032 0 1.82.162 2.363.484zm.649.778l-.189-.925c1.868-.112 4.81-.267 8.825-.463.334.014.62.14.857.379.237.238.355.49.355.756 0 .42-.278.659-.836.715l-3.91-.19c.069 1.052.104 2.586.104 4.604.014 2.003.042 3.468.084 4.392-.126.407-.369.61-.732.61-.237 0-.467-.098-.69-.294a1.26 1.26 0 01-.418-.715c.195-3.447.397-6.34.606-8.68l-4.056-.19zm10.957-1.409l1.171.21c0 .295.007.512.021.652.766-.49 1.54-.736 2.321-.736 1.268 0 2.258.547 2.969 1.64.711 1.093 1.066 2.333 1.066 3.72 0 .7-.055 1.373-.167 2.018a9.132 9.132 0 01-.544 1.954 3.588 3.588 0 01-1.233 1.598c-.544.392-1.206.588-1.987.588-.739 0-1.45-.196-2.133-.588.056 2.452.105 4.273.147 5.464-.126.435-.37.652-.732.652-.251 0-.495-.105-.732-.315a1.269 1.269 0 01-.418-.736l.251-16.12zm1.359 2.228l.063 6.789c.167.336.425.61.773.82.349.196.732.294 1.15.294.544 0 1.004-.175 1.381-.526.39-.35.662-.812.815-1.387.167-.588.279-1.135.335-1.64.069-.504.104-1.036.104-1.596 0-2.382-.801-3.573-2.405-3.573-.515 0-.996.077-1.442.23-.433.14-.69.337-.774.59zm8.636-.252l-.418-1.072c.362-.364.822-.651 1.38-.862a4.402 4.402 0 011.652-.336c2.356 0 3.534 2.046 3.534 6.137 0 .56-.035 1.387-.105 2.48a52.59 52.59 0 00-.084 2.46c-.111.434-.327.651-.648.651-.251 0-.481-.126-.69-.378a1.286 1.286 0 01-.313-.841c0-.098.007-.168.02-.21-.864.84-1.784 1.26-2.76 1.26-.739 0-1.387-.265-1.944-.798a2.699 2.699 0 01-.816-1.975c0-1.303.502-2.48 1.506-3.531 1.017-1.051 2.167-1.577 3.45-1.577.056 0 .111.007.167.021.056 0 .119.007.188.021.084.014.147.021.189.021-.112-1.64-.76-2.459-1.945-2.459-.697 0-1.485.33-2.363.988zm4.37 6.579c.028-.981.042-1.724.042-2.228 0-.42-.014-1.01-.042-1.766h-.167c-.99.014-1.896.386-2.718 1.114-.809.729-1.213 1.611-1.213 2.648 0 .449.132.806.397 1.072a1.4 1.4 0 001.004.4c.613 0 1.512-.414 2.697-1.24zm2.802-7.146l-.188-.925a880.92 880.92 0 018.824-.463c.335.014.621.14.858.379.237.238.355.49.355.756 0 .42-.279.659-.836.715l-3.911-.19c.07 1.052.105 2.586.105 4.604.014 2.003.042 3.468.084 4.392-.126.407-.37.61-.732.61-.237 0-.467-.098-.69-.294a1.254 1.254 0 01-.418-.715c.195-3.447.397-6.34.606-8.68l-4.057-.19zm18.381 7.608l.209.925c-.614.224-1.527.476-2.74.756-1.198.267-2.091.4-2.676.4-.6 0-1.122-.196-1.568-.589a3.77 3.77 0 01-1.004-1.534c-.223-.63-.39-1.247-.502-1.85a11.502 11.502 0 01-.146-1.807c0-3.503 1.575-5.255 4.725-5.255a2.96 2.96 0 011.987.736c.572.476.857 1.1.857 1.87 0 .421-.118.792-.355 1.115a2.612 2.612 0 01-.837.777c-.32.182-.738.35-1.254.505-.502.154-.948.266-1.338.336-.391.07-.858.147-1.402.231-.543.084-.92.147-1.129.19.014.406.035.763.063 1.071.042.309.112.645.209 1.01.112.35.251.644.418.882.182.224.426.413.732.567.307.154.669.231 1.088.231a16.4 16.4 0 001.84-.126 49.438 49.438 0 001.923-.294c.572-.098.872-.147.9-.147zm-7.089-4.498c1.896-.546 3.45-1.12 4.663-1.723-.098-.463-.23-.799-.397-1.01-.168-.21-.418-.314-.753-.314-.85 0-1.624.294-2.321.882-.683.589-1.081 1.31-1.192 2.165zm8.552-4.245c.6-.056 1.506-.148 2.719-.274a95.15 95.15 0 012.572-.273c.348.014.641.147.878.4.251.238.376.497.376.777 0 .42-.278.659-.836.715-.516-.042-1.296-.112-2.342-.21a146.21 146.21 0 00-2.384-.21c.014.854.098 2.241.251 4.16.153 1.92.23 3.385.23 4.394 0 .868-.341 1.303-1.024 1.303-.572 0-.858-.393-.858-1.177 0-.925.021-1.913.063-2.964.042-1.065.104-2.277.188-3.636a185.6 185.6 0 00.167-3.005zm9.222 9.037c0 .239.014.554.042.946-.126.434-.37.652-.732.652-.251 0-.495-.098-.732-.295a1.368 1.368 0 01-.418-.756c.042-1.135.09-2.796.146-4.982.07-2.185.119-3.664.147-4.434l.961-.168c.168.896.272 2.087.314 3.573.042 1.485.098 2.592.167 3.32.265-.392 1.018-1.415 2.259-3.068 1.24-1.654 2.084-2.887 2.53-3.7a4.51 4.51 0 01.585-.083c.265 0 .446.119.544.357.112.238.181.687.209 1.345l.397 8.66c-.125.42-.369.63-.731.63-.251 0-.495-.098-.732-.294a1.362 1.362 0 01-.418-.757c.013-.462.048-1.59.104-3.384.07-1.807.126-3.09.167-3.846-2.383 2.732-3.987 4.827-4.809 6.284z" fill="#000"/><path d="M234.7 43.358l.314 11.287c-.139.42-.376.63-.711.63-.237 0-.474-.097-.711-.294a1.26 1.26 0 01-.418-.714l.209-4.561c-.585.378-1.192.574-1.819.588-.53 1.752-1.199 3.034-2.008 3.847-.794.812-2.07 1.464-3.826 1.954l-.335-.904c2.607-.658 4.092-2.389 4.454-5.19a4.08 4.08 0 01-1.673-1.283 3.2 3.2 0 01-.648-1.976c0-1.485.377-2.473 1.129-2.963.753-.49 1.945-.736 3.576-.736.85 0 1.673.105 2.467.316zm-1.15 4.582l-.104-3.32c-.488-.155-1.206-.232-2.154-.232-.669 0-1.241.154-1.715.463-.474.294-.711.777-.711 1.45 0 .757.3 1.408.9 1.955.599.532 1.254.798 1.965.798.837 0 1.443-.371 1.819-1.114zM25.846 80.322c0 .238.014.553.042.946-.126.434-.37.651-.732.651-.251 0-.495-.098-.732-.294a1.366 1.366 0 01-.418-.757c.042-1.135.09-2.795.146-4.98.07-2.187.119-3.665.146-4.436l.962-.168c.168.897.272 2.088.314 3.573.042 1.486.098 2.593.167 3.321.265-.392 1.018-1.415 2.259-3.069 1.24-1.653 2.084-2.886 2.53-3.699.306-.056.502-.084.585-.084.265 0 .446.12.544.358.112.238.181.686.21 1.345l.396 8.66c-.125.42-.369.63-.731.63-.251 0-.495-.099-.732-.295a1.367 1.367 0 01-.418-.756c.013-.463.048-1.59.104-3.384.07-1.808.125-3.09.167-3.846-2.384 2.732-3.987 4.827-4.81 6.284zm14.261-8.764l7.047.063.48 10.193c-.125.42-.369.63-.731.63-.251 0-.495-.104-.732-.315a1.227 1.227 0 01-.44-.735c.015-.252.036-1.044.064-2.375a1201.63 1201.63 0 01.209-6.243c-.39-.027-.97-.041-1.736-.041-1.045 0-1.917-.043-2.614-.127.042.463.077 1.955.105 4.477.028 2.508.056 3.966.084 4.372-.126.434-.37.651-.732.651-.251 0-.495-.098-.732-.294a1.367 1.367 0 01-.418-.756c.041-.701.062-1.402.062-2.102 0-.365-.007-.967-.02-1.808-.015-.84-.022-1.506-.022-1.996 0-1.444.042-2.642.126-3.594z" fill="#000"/><path d="M47.091 83.958l-.335-.904a3.54 3.54 0 001.255-.862c.362-.392.662-.798.9-1.218.236-.435.438-.974.606-1.619a16.843 16.843 0 00.544-3.489 30.09 30.09 0 00.062-1.597c.014-.365.021-.848.021-1.45 0-.855.077-1.367.23-1.535.195-.21 1.276-.315 3.241-.315 1.547 0 2.426-.007 2.635-.021.028 5.689.097 9.38.209 11.076-.14.42-.383.63-.732.63-.237 0-.467-.097-.69-.293a1.258 1.258 0 01-.418-.715c-.014-.546-.021-1.36-.021-2.438v-2.417c.014-1.079.02-1.892.02-2.438a90.06 90.06 0 00-.02-2.27 12.32 12.32 0 01-1.736.168 14.99 14.99 0 00-1.212.063 37.62 37.62 0 00-.105 2.06c-.028.91-.056 1.716-.084 2.417a15.806 15.806 0 01-.25 2.354c-.154.869-.377 1.611-.67 2.228-.279.602-.718 1.142-1.317 1.618-.586.49-1.297.813-2.133.967zm11.815-10.971l-.419-1.072c.363-.365.823-.652 1.38-.862a4.405 4.405 0 011.652-.336c2.356 0 3.534 2.046 3.534 6.137 0 .56-.035 1.387-.104 2.48a52.88 52.88 0 00-.084 2.46c-.111.434-.328.65-.648.65-.251 0-.481-.125-.69-.378a1.285 1.285 0 01-.314-.84c0-.098.007-.168.021-.21-.864.84-1.784 1.26-2.76 1.26-.74 0-1.387-.266-1.945-.798a2.7 2.7 0 01-.815-1.976c0-1.303.501-2.48 1.505-3.53 1.018-1.052 2.168-1.577 3.45-1.577.056 0 .112.007.168.02a.98.98 0 01.188.022c.084.014.146.02.188.02-.111-1.638-.76-2.458-1.945-2.458-.697 0-1.484.33-2.362.988zm4.37 6.578c.028-.98.042-1.723.042-2.228 0-.42-.014-1.008-.042-1.765h-.168c-.99.014-1.895.385-2.718 1.114-.808.728-1.213 1.611-1.213 2.648 0 .448.133.806.398 1.072.278.266.613.4 1.003.4.614 0 1.513-.414 2.698-1.24zM73 71.41l.94.21.481 10.194c-.125.42-.37.63-.732.63-.25 0-.495-.104-.732-.315a1.227 1.227 0 01-.439-.735c0-.042.063-1.226.188-3.552v-.168c-.39-.028-.968-.042-1.735-.042-1.157 0-2.029-.035-2.614-.106.07.813.16 2.123.272 3.93-.126.435-.37.652-.732.652-.25 0-.495-.098-.732-.294a1.367 1.367 0 01-.418-.756c.042-.701.063-1.402.063-2.102 0-.449-.007-1.121-.021-2.018a141.07 141.07 0 01-.021-1.997c0-1.345.042-2.473.125-3.383l.941.23c.28 3.041.425 4.604.44 4.688 2.383.126 3.61.189 3.68.189.571 0 .857-.035.857-.105 0-.28.028-1.17.084-2.67.055-1.499.09-2.326.104-2.48zm4.955 8.912c0 .238.014.553.042.946-.126.434-.37.651-.732.651-.251 0-.495-.098-.732-.294a1.366 1.366 0 01-.418-.757c.042-1.135.09-2.795.146-4.98.07-2.187.119-3.665.147-4.436l.962-.168c.167.897.271 2.088.313 3.573.042 1.486.098 2.593.167 3.321.265-.392 1.018-1.415 2.259-3.069 1.24-1.653 2.084-2.886 2.53-3.699a4.5 4.5 0 01.585-.084c.265 0 .447.12.544.358.112.238.181.686.21 1.345l.397 8.66c-.126.42-.37.63-.732.63-.251 0-.495-.099-.732-.295a1.366 1.366 0 01-.418-.756l.104-3.384c.07-1.808.126-3.09.167-3.846-2.383 2.732-3.986 4.827-4.809 6.284zm8.385-9.311l1.171.21c0 .294.007.512.021.652.767-.49 1.54-.736 2.321-.736 1.269 0 2.258.547 2.97 1.64.71 1.092 1.066 2.332 1.066 3.72 0 .7-.056 1.373-.167 2.017a9.17 9.17 0 01-.544 1.955 3.591 3.591 0 01-1.234 1.597c-.544.393-1.206.589-1.986.589-.74 0-1.45-.196-2.133-.589.055 2.453.104 4.274.146 5.465-.125.434-.37.652-.732.652-.25 0-.495-.106-.732-.316a1.268 1.268 0 01-.418-.735l.251-16.121zm1.36 2.228l.062 6.789c.167.336.425.61.774.82.348.195.732.294 1.15.294.543 0 1.003-.175 1.38-.526.39-.35.662-.813.815-1.387a9.92 9.92 0 00.335-1.64c.07-.504.105-1.036.105-1.597 0-2.382-.802-3.573-2.405-3.573a4.39 4.39 0 00-1.443.231c-.432.14-.69.337-.774.589zm7.883 4.351c0-.56.055-1.184.167-1.871.125-.687.306-1.408.543-2.165.237-.757.593-1.387 1.067-1.892.474-.504 1.025-.756 1.652-.756 1.338 0 2.412.61 3.22 1.828.809 1.206 1.213 2.55 1.213 4.036 0 .63-.07 1.261-.209 1.892a8.296 8.296 0 01-.607 1.828 3.992 3.992 0 01-1.212 1.513c-.516.393-1.123.617-1.82.673-1.282-.168-2.272-.715-2.969-1.64-.697-.938-1.045-2.087-1.045-3.446zm3.554-5.591c-.487.056-.899.504-1.233 1.345a9.887 9.887 0 00-.649 2.46 17.084 17.084 0 00-.146 2.08c0 .784.237 1.513.711 2.186.488.658 1.032.988 1.631.988.432 0 .823-.169 1.171-.505.349-.336.62-.75.816-1.24a7.87 7.87 0 00.46-1.513 6.35 6.35 0 00.167-1.345c0-1.15-.258-2.151-.774-3.006s-1.234-1.338-2.154-1.45zm6.462-.715c2.16-.462 3.478-.693 3.952-.693 1.868 0 2.802.805 2.802 2.417a4.74 4.74 0 01-.293 1.64c-.181.517-.411.86-.69 1.029 1.087.743 1.631 1.765 1.631 3.069 0 1.233-.404 2.192-1.213 2.879-.794.687-1.847 1.03-3.157 1.03-1.562 0-2.726-.42-3.492-1.261l.46-10.11zm1.192 5.276l.188 4.266c.348.169.746.253 1.192.253.864 0 1.659-.274 2.384-.82.724-.547 1.087-1.184 1.087-1.913 0-.504-.195-.967-.586-1.387-.39-.434-.885-.651-1.484-.651-.349 0-1.276.084-2.781.252zm-.209-4.33l.146 3.237c.209-.028.53-.05.962-.063.432-.014.78-.042 1.045-.084.265-.056.558-.161.879-.316.32-.168.571-.455.752-.861.196-.407.328-.94.398-1.598-.14-.42-.565-.63-1.276-.63-.321 0-.822.049-1.505.147-.684.098-1.151.154-1.401.168zm8.866.757l-.419-1.072c.363-.365.823-.652 1.38-.862a4.41 4.41 0 011.652-.336c2.356 0 3.534 2.046 3.534 6.137 0 .56-.035 1.387-.104 2.48a52.582 52.582 0 00-.084 2.46c-.111.434-.327.65-.648.65-.251 0-.481-.125-.69-.378a1.286 1.286 0 01-.314-.84c0-.098.007-.168.021-.21-.864.84-1.784 1.26-2.76 1.26-.739 0-1.387-.266-1.945-.798a2.702 2.702 0 01-.815-1.976c0-1.303.502-2.48 1.505-3.53 1.018-1.052 2.168-1.577 3.451-1.577a.74.74 0 01.167.02c.056 0 .118.008.188.022.084.014.146.02.188.02-.111-1.638-.76-2.458-1.945-2.458-.697 0-1.484.33-2.362.988zm4.37 6.578c.028-.98.042-1.723.042-2.228 0-.42-.014-1.008-.042-1.765h-.167c-.99.014-1.896.385-2.719 1.114-.808.728-1.213 1.611-1.213 2.648 0 .448.133.806.398 1.072.279.266.613.4 1.003.4.614 0 1.513-.414 2.698-1.24zm9.723-8.155l.941.21.481 10.194c-.125.42-.369.63-.732.63-.251 0-.495-.104-.732-.315a1.232 1.232 0 01-.439-.735c0-.042.063-1.226.189-3.552v-.168a26.313 26.313 0 00-1.736-.042c-1.157 0-2.028-.035-2.614-.106.07.813.16 2.123.272 3.93-.125.435-.369.652-.732.652-.251 0-.495-.098-.732-.294a1.368 1.368 0 01-.418-.756c.042-.701.063-1.402.063-2.102 0-.449-.007-1.121-.021-2.018a141.07 141.07 0 01-.021-1.997c0-1.345.042-2.473.125-3.383l.941.23c.279 3.041.426 4.604.44 4.688 2.383.126 3.61.189 3.68.189.571 0 .857-.035.857-.105 0-.28.028-1.17.084-2.67.056-1.499.09-2.326.104-2.48zm4.956 8.912c0 .238.014.553.042.946-.126.434-.369.651-.732.651-.251 0-.495-.098-.732-.294a1.368 1.368 0 01-.418-.757c.042-1.135.091-2.795.146-4.98.07-2.187.119-3.665.147-4.436l.962-.168c.167.897.271 2.088.313 3.573.042 1.486.098 2.593.168 3.321.264-.392 1.017-1.415 2.258-3.069 1.241-1.653 2.084-2.886 2.53-3.699.307-.056.502-.084.586-.084.264 0 .446.12.543.358.112.238.181.686.209 1.345l.398 8.66c-.126.42-.37.63-.732.63-.251 0-.495-.099-.732-.295a1.362 1.362 0 01-.418-.756l.104-3.384c.07-1.808.126-3.09.168-3.846-2.384 2.732-3.987 4.827-4.81 6.284zm16.561-.294l.209.924c-.613.225-1.526.477-2.739.757-1.199.266-2.091.4-2.676.4a2.3 2.3 0 01-1.569-.59 3.768 3.768 0 01-1.003-1.533 12.046 12.046 0 01-.502-1.85 11.505 11.505 0 01-.147-1.807c0-3.503 1.576-5.255 4.726-5.255a2.96 2.96 0 011.987.736c.571.476.857 1.1.857 1.87 0 .42-.119.792-.356 1.114a2.609 2.609 0 01-.836.778c-.321.182-.739.35-1.255.504a11.63 11.63 0 01-1.338.337c-.39.07-.857.147-1.401.23-.544.085-.92.148-1.129.19.014.406.035.764.063 1.072.042.308.111.644.209 1.009.111.35.251.644.418.882.181.225.425.414.732.568.307.154.669.231 1.087.231.502 0 1.115-.042 1.84-.126a49.828 49.828 0 001.924-.294c.572-.098.871-.147.899-.147zm-7.088-4.498c1.895-.547 3.45-1.121 4.663-1.724-.098-.462-.23-.798-.398-1.008-.167-.21-.418-.316-.752-.316-.851 0-1.624.294-2.322.883-.683.589-1.08 1.31-1.191 2.165zm14.365-4.519l1.171.21c0 .294.007.512.021.652.767-.49 1.54-.736 2.321-.736 1.269 0 2.258.547 2.969 1.64.711 1.092 1.067 2.332 1.067 3.72 0 .7-.056 1.373-.167 2.017a9.19 9.19 0 01-.544 1.955 3.59 3.59 0 01-1.234 1.597c-.544.393-1.206.589-1.986.589-.739 0-1.45-.196-2.133-.589.056 2.453.104 4.274.146 5.465-.125.434-.369.652-.732.652-.251 0-.495-.106-.732-.316a1.268 1.268 0 01-.418-.735l.251-16.121zm1.359 2.228l.063 6.789c.167.336.425.61.774.82.348.195.732.294 1.15.294.544 0 1.004-.175 1.38-.526.39-.35.662-.813.815-1.387.168-.588.279-1.135.335-1.64.07-.504.105-1.036.105-1.597 0-2.382-.802-3.573-2.405-3.573a4.39 4.39 0 00-1.443.231c-.432.14-.69.337-.774.589zm8.636-.252l-.418-1.072c.363-.365.823-.652 1.38-.862a4.41 4.41 0 011.652-.336c2.356 0 3.534 2.046 3.534 6.137 0 .56-.035 1.387-.104 2.48a52.582 52.582 0 00-.084 2.46c-.112.434-.328.65-.648.65-.251 0-.481-.125-.69-.378a1.286 1.286 0 01-.314-.84c0-.098.007-.168.021-.21-.864.84-1.785 1.26-2.76 1.26-.739 0-1.387-.266-1.945-.798a2.699 2.699 0 01-.816-1.976c0-1.303.502-2.48 1.506-3.53 1.018-1.052 2.168-1.577 3.45-1.577a.69.69 0 01.168.02.98.98 0 01.188.022c.083.014.146.02.188.02-.112-1.638-.76-2.458-1.945-2.458-.697 0-1.484.33-2.363.988zm4.371 6.578c.028-.98.042-1.723.042-2.228 0-.42-.014-1.008-.042-1.765h-.168c-.989.014-1.895.385-2.718 1.114-.809.728-1.213 1.611-1.213 2.648 0 .448.133.806.398 1.072a1.4 1.4 0 001.003.4c.614 0 1.513-.414 2.698-1.24zm4.705-2.69l-.084-1.177c.042 0 .104.007.188.021h.209c1.408 0 2.112-.616 2.112-1.85-.153-1.079-.746-1.618-1.777-1.618-.391 0-.962.112-1.715.336l-.376-.61c.585-.546 1.422-.819 2.509-.819.767 0 1.408.196 1.924.589.516.392.773.966.773 1.723 0 .463-.09.918-.271 1.366-.182.435-.419.764-.711.988.529.112.941.477 1.233 1.093.307.602.46 1.282.46 2.039 0 .98-.313 1.835-.941 2.564-.627.729-1.435 1.093-2.425 1.093-.488 0-1.074-.14-1.757-.42-.683-.28-1.024-.631-1.024-1.051 0-.295.188-.442.564-.442.251 0 .579.12.983.358.404.224.739.336 1.004.336.585 0 1.101-.26 1.547-.778.446-.518.669-1.093.669-1.723 0-.673-.237-1.177-.711-1.514-.46-.35-1.052-.525-1.777-.525-.279 0-.481.007-.606.021zm6.649-5.591c2.161-.462 3.478-.693 3.952-.693 1.868 0 2.802.805 2.802 2.417a4.71 4.71 0 01-.293 1.64c-.181.517-.411.86-.69 1.029 1.088.743 1.631 1.765 1.631 3.069 0 1.233-.404 2.192-1.212 2.879-.795.687-1.847 1.03-3.158 1.03-1.561 0-2.725-.42-3.492-1.261l.46-10.11zm1.192 5.276l.188 4.266a2.7 2.7 0 001.192.253c.864 0 1.659-.274 2.384-.82.725-.547 1.087-1.184 1.087-1.913 0-.504-.195-.967-.585-1.387-.391-.434-.885-.651-1.485-.651-.348 0-1.275.084-2.781.252zm-.209-4.33l.146 3.237c.209-.028.53-.05.962-.063a8.778 8.778 0 001.046-.084c.265-.056.557-.161.878-.316.321-.168.571-.455.753-.861.195-.407.327-.94.397-1.598-.139-.42-.565-.63-1.276-.63-.32 0-.822.049-1.505.147-.683.098-1.15.154-1.401.168zm9.953 8.092c0 .238.014.553.042.946-.125.434-.369.651-.732.651-.251 0-.495-.098-.732-.294a1.368 1.368 0 01-.418-.757c.042-1.135.091-2.795.147-4.98.069-2.187.118-3.665.146-4.436l.962-.168c.167.897.272 2.088.313 3.573.042 1.486.098 2.593.168 3.321.265-.392 1.017-1.415 2.258-3.069 1.241-1.653 2.084-2.886 2.53-3.699.307-.056.502-.084.586-.084.265 0 .446.12.543.358.112.238.182.686.21 1.345l.397 8.66c-.126.42-.37.63-.732.63-.251 0-.495-.099-.732-.295a1.368 1.368 0 01-.418-.756l.104-3.384c.07-1.808.126-3.09.168-3.846-2.384 2.732-3.987 4.827-4.81 6.284zm7.465-7.902l-.188-.926a888.55 888.55 0 018.824-.462c.335.014.621.14.858.378.237.239.355.49.355.757 0 .42-.279.659-.836.715l-3.91-.19c.069 1.051.104 2.586.104 4.603.014 2.004.042 3.468.084 4.393-.126.406-.37.61-.732.61-.237 0-.467-.099-.69-.295a1.253 1.253 0 01-.418-.714c.195-3.447.397-6.34.606-8.68l-4.057-.19zm12.547 7.902c0 .238.014.553.042.946-.126.434-.37.651-.732.651-.251 0-.495-.098-.732-.294a1.362 1.362 0 01-.418-.757c.041-1.135.09-2.795.146-4.98.07-2.187.118-3.665.146-4.436l.962-.168c.168.897.272 2.088.314 3.573.042 1.486.097 2.593.167 3.321.265-.392 1.018-1.415 2.259-3.069 1.24-1.653 2.084-2.886 2.53-3.699.306-.056.502-.084.585-.084.265 0 .446.12.544.358.111.238.181.686.209 1.345l.397 8.66c-.125.42-.369.63-.732.63-.251 0-.494-.099-.731-.295a1.364 1.364 0 01-.419-.756l.105-3.384c.07-1.808.125-3.09.167-3.846-2.384 2.732-3.987 4.827-4.809 6.284z" fill="#000"/><path d="M230.309 71.158l.314 11.287c-.139.42-.376.63-.711.63-.237 0-.474-.098-.711-.294a1.26 1.26 0 01-.418-.715l.209-4.56c-.586.378-1.192.574-1.819.588-.53 1.752-1.199 3.034-2.008 3.846-.794.813-2.07 1.465-3.826 1.955l-.335-.904c2.607-.658 4.092-2.389 4.454-5.191a4.08 4.08 0 01-1.673-1.282 3.2 3.2 0 01-.648-1.976c0-1.485.376-2.473 1.129-2.963.753-.49 1.945-.736 3.576-.736.85 0 1.673.105 2.467.315zm-1.15 4.582l-.104-3.32c-.488-.155-1.206-.232-2.154-.232-.669 0-1.241.154-1.715.462-.474.295-.711.778-.711 1.45 0 .757.3 1.409.899 1.955.6.533 1.255.799 1.966.799.836 0 1.443-.371 1.819-1.114z" fill="#000"/><path fill-rule="evenodd" clip-rule="evenodd" d="M133.952.436c23.984 1.005 47.224 5.93 73.47 13.107 29.631 8.103 45.934 25.661 50.341 43.96 4.404 18.284-3.057 37.362-21.05 48.509-10.834 6.712-28.14 10.33-47.997 11.989-19.878 1.661-42.415 1.366-63.806.189-21.394-1.177-41.66-3.236-57.006-5.107a715.237 715.237 0 01-18.86-2.535c-4.72-.706-7.794-1.239-8.693-1.464l.39-.807c.81.202 3.798.724 8.546 1.434a715.359 715.359 0 0018.816 2.529c15.32 1.868 35.549 3.923 56.898 5.098 21.352 1.174 43.805 1.466 63.578-.186 19.796-1.654 36.803-5.248 47.359-11.788 17.611-10.91 25.003-29.66 20.655-47.715-4.345-18.038-20.401-35.324-49.593-43.307-26.207-7.166-49.313-12.056-73.117-13.053-23.795-.996-48.324 1.894-77.37 10.327C44 15.25 31.587 21.82 21.709 29.916c-9.88 8.098-17.19 17.698-19.547 27.372-2.354 9.662.228 19.404 10.141 27.85 9.928 8.457 27.26 15.657 54.52 20.133l-.265.834c-27.404-4.5-45.01-11.766-55.163-20.416C1.228 77.027-1.415 67.019.992 57.139c2.403-9.866 9.84-19.604 19.823-27.786 9.984-8.184 22.546-14.84 35.254-18.53C85.253 2.35 109.957-.568 133.952.437z" fill="#000"/></svg>