<svg version="1.1" id="Слой_1" xmlns="http://www.w3.org/2000/svg" x="0" y="0" viewBox="0 0 270 250" xml:space="preserve" enable-background="new 0 0 270 250"><style>.st0{fill:#904a5a}.st1{fill:#743c49}.st2{fill:#882f40}.st3{fill:#824351}.st4{fill:#874654}.st5{fill:#8b4857}.st6{fill:#944d5d}.st7{fill:#994f60}.st9{fill:#7d414e}.st10{fill:#40689d}.st11{fill:#2f527f}.st12{fill:#687991}.st13{fill:#65758c}.st15{fill:#5e6d82}.st16{fill:#b4d1fa;stroke:#000;stroke-width:.2}.st20{fill:#9a384b}</style><path class="st0" d="M259.1 48.8l-11-6 11 6z"/><path class="st1" d="M160.7 239.2l-11-6-1.9-8.6 11 6 1.9 8.6z"/><path class="st2" d="M158.9 230.6l-11-6h.2l11 6h-.2m.1-.1l-11-6c.3-.1.6-.3.8-.5l11.1 6c-.2.2-.5.4-.9.5m.9-.5l-11-6c.2-.1.4-.3.6-.5l11 6c-.1.2-.4.4-.6.5z"/><path class="st2" d="M160.5 229.5l-11-6 .6-.6 11 6.1-.6.6"/><path class="st2" d="M153.4 237.2l-10.9-10.9c4.7-1.7 7.4-2.8 9.2-6.3l14.3 5.1c0 .3-12.4 11.9-12.6 12.1z"/><path class="st2" d="M161.7 228.2l-11-6c.2-.3.3-.5.5-.8l11 6c-.2.3-.4.6-.5.8z"/><path class="st2" d="M162.1 227.4l-11-6c.2-.3.3-.7.5-1l11 6c-.1.3-.3.7-.5 1zm.5-1.1l-11-6c.3-.9.5-1.9.5-2.8l11 6c0 .9-.2 2-.5 2.8z"/><path class="st3" d="M253.1 50.8l-11.1-6 .2-.4 11.1 5.9c-.1.1-.1.3-.2.5"/><path class="st4" d="M253.3 50.3l-11-5.9c.1-.1.2-.3.3-.4l11 6-.3.3"/><path class="st5" d="M253.7 50l-11-6c.1-.1.2-.3.4-.4l11.1 6-.5.4"/><path class="st0" d="M254.1 49.5l-11.1-6 .5-.4 11 6-.4.4"/><path class="st6" d="M254.5 49.1l-11-6c.2-.2.4-.3.7-.4l11 6c-.2.2-.5.3-.7.4z"/><path class="st7" d="M255.3 48.7l-11-6c.4-.2.8-.3 1.4-.4.5-.1 1-.1 1.6 0l11 6c-.5-.1-1-.1-1.6 0-.6.1-1 .3-1.4.4z"/><path class="st6" d="M258.2 48.4l-11-6c.2.1.5.1.7.2l11.1 6c-.3 0-.5-.1-.8-.2"/><path class="st0" d="M258.9 48.7l-11-6.1 11 6.1"/><path class="st1" d="M260.4 55.1l-11-6-7.3-4.3 11 6 7.3 4.3z"/><path d="M259.1 48.8c.5.3.9.7 1.3 1.3.3.5.5 1 .7 1.7.1.6.1 1.2 0 1.8s-.3 1.2-.7 1.7l-7.2-4.3c.3-.6.8-1.2 1.5-1.6.6-.4 1.4-.7 2.1-.8.6-.3 1.5-.2 2.3.2z" fill="#cb697f"/><path class="st2" d="M163.8 225.7l-11.7-8.3V204l12.2 4.5-.5 17.2zm.1-18.1l-11-6 89.9-156.9c4.9.7 7.1 2.2 10.6 6.5l-89.5 156.4z"/><path class="st2" d="M163.1 210l-11-6c0-.6.1-1.4.3-2l11 6c-.1.8-.3 1.4-.3 2z"/><path class="st9" d="M163.5 208.1l-11-6 .3-.6 11 6-.3.6z"/><path class="st3" d="M163.8 207.5l-11.1-6 11.2 5.8"/><path class="st10" d="M171.8 200l-1.8 5.1-.1.3 1.8-5.1v-.3"/><path class="st10" d="M171.7 200.3l-1.8 5.1c-.2.5-.5.9-.8 1.4l1.8-5.1c.3-.5.6-1 .8-1.4zm-.8 1.2l-1.8 5.1-.3.3c-.7.6-1.6 1.3-2.4 1.7l1.8-5.1c.8-.5 1.7-1 2.4-1.7l.3-.3"/><path class="st10" d="M168.2 203.6l-1.8 5.1c-.8.5-1.8.9-2.7 1.4-5.5 2.1-11.3 3.7-17 4.5h-.2c-.5.1-1 .1-1.7 0l1.8-6.3c.5.1 1.8.5 2.3.4l-.5.7c5.9-.8 11.6-2.3 17-4.5 1-.3 1.9-.7 2.8-1.3z"/><path class="st10" d="M146.5 209.5l-1.8 5.1-1.2-.3 1.9-5.1c.4.1.8.2 1.1.3"/><path class="st10" d="M145.5 209.2l3.5 4.9c-5.1 1.2-6.9 0-8.6-2.3l4.2-3c.1.2.5.3.9.4z"/><path class="st10" d="M146.6 210.7l-4 3.1c-1.3-.3-1.3-.8-2.4-2l3.2-3.6c.3.2 1.7 1 2 1.3"/><path class="st10" d="M144.9 208.4l-3.1 5c-.5-.4-.9-.8-1.4-1.4-.2-.3-.4-.7-.4-1-.1-.4 0-.8.1-1.2l1.8-5.1c-.1.4.2.5.2.8.1.4.3.8.5 1.2.4.5 1.7 1.3 2.3 1.7z"/><path class="st11" d="M161.4 197.9l-1.8 5.1-1.2-.2 1.8-5.1 1.2.2z"/><path class="st11" d="M161.7 197.4l-3.2 5.3c-.9-.1-2.1-.3-3.3-.3-6.9-.4-13.8-.1-20.6.7-4.5.5-8.9 1.4-13.3 2.4-2.9.6-5.8 1.7-8.5 2.9v-5.3c2.7-1.4 7.3-2.6 10.2-3.2 4.4-1 8.7-2.3 13.2-2.8 6.8-.9 13.7-1.3 20.6-.8 1.3 0 2.4.2 3.3.3"/><path class="st12" d="M114 203.6l-1.8 5.1 1.8-5.1"/><path class="st10" d="M130.5 209.6l-1.8 5.1c-.5 1.2-.9.9-1.2 1.2v-6.7c.3-.2 2.9.6 3 .4z"/><path class="st10" d="M130.5 207.9l-2 7.3c-1.5 1.7-5.2.4-5.4.5l4.1-5.8c.2 0 3.1-1.7 3.3-2z"/><path class="st10" d="M129.5 210.7l-1.8 5.1c-.5.3-1 .4-1.6.5h-.6c-3 0-6.1-.1-9.1-.3l-2.6-.4 1.8-5.1 2.6.3c3 .3 6.1.4 9.1.4h.6c.5 0 1.1-.2 1.6-.5z"/><path class="st10" d="M115.6 210.5l-1.8 5c-1.7-.2-3.2-.6-4.8-1.2l1.8-5.1c1.7.5 3.2.8 5 1.2"/><path class="st12" d="M110.6 209.5l-1.8 5.1 1.8-5.1z"/><path class="st13" d="M110.6 209.5l-1.8 5.1c-.9-.3-1.8-.6-2.6-1l1.8-5.1c.8.3 1.7.6 2.6 1"/><path d="M107.9 208.3l-1.8 5.1c-.6-.3-1.3-.6-1.8-1l1.8-5.1c.6.3 1.2.7 1.8 1z" fill="#617187"/><path class="st15" d="M106.2 207.3l-1.8 5.1h-.1c-.8-.6-1.6-1.5-2.1-2.4-.3-.5-.4-1-.4-1.6 0-.5 0-1.2.2-1.7l1.8-5.1c-.2.5-.2 1.2-.2 1.7.1.5.2 1.2.5 1.6.5.9 1.2 1.8 2.1 2.4z"/><path class="st16" d="M132.6 191.4c4.6-.6 9.3-.9 13.9-1 4-.1 7.9 0 11.8.5 2.2.2 4.3.6 6.4 1.3 1.2.3 2.3.8 3.3 1.5 1.4.7 2.5 1.8 3.2 3.1.3.4.4.9.5 1.5s.1 1-.1 1.6c-.3.8-.7 1.6-1.4 2.1-1.5 1.3-3.1 2.3-5 3-5.5 2.1-11.2 3.7-17 4.5h-.2c-1.2.1-2.3-.1-3.3-.5s-2-1.3-2.6-2.1c-.5-.9-.6-1.8-.2-2.5.4-.7 1.2-1.3 2.3-1.5 3.5-.5 6.8-1.3 10.1-2.2 2.3-.6 4.5-1.4 6.6-2.4l.3-.2.2-.1h-.3c-1.5-.3-2.9-.4-4.5-.5-6.9-.4-13.8-.1-20.7.7-4.5.5-8.9 1.4-13.3 2.4-2.9.6-5.9 1.7-8.6 3l-.5.3-.3.1h.3c3.6.6 7.2.8 10.9.7 1.2 0 2.3.2 3.2.8.9.6 1.8 1.5 2.3 2.5.3.8.1 1.6-.3 2.2-.4.6-1.3.9-2.3 1.2h-.6c-3 0-6.1-.1-9.1-.4-2.5-.2-5.1-.7-7.5-1.5-1.7-.5-3.1-1.3-4.5-2.3-.8-.6-1.6-1.5-2.1-2.4-.3-.5-.5-1-.5-1.7s0-1.2.2-1.8c.4-.8 1-1.7 1.8-2.3 1.9-1.4 4-2.5 6.2-3.2 7.2-2.2 14.2-3.7 21.4-4.4z"/><path class="st11" d="M176.9 164.1l-3 8.5-.8-.3 3-8.5.8.3"/><path class="st11" d="M176.1 163.8l-3 8.5-.6-.2 3-8.5.6.2z"/><path class="st10" d="M186.5 166.9l-3 8.5-.1.4 3-8.5.1-.4zm-.2.5l-3 8.6c-.3.6-.7 1.2-1.2 1.7l3-8.5c.5-.6.8-1.2 1.2-1.8m-1.2 1.6l-3 8.5c-1 1.2-2.3 2.1-3.8 2.8l3-8.5c1.5-.7 2.8-1.6 3.8-2.8z"/><path class="st10" d="M181.4 171.9l-3 8.5c-.7.4-1.5.8-2.3 1.2-6.8 2.9-14.4 4.9-21.9 6.2l3.5-8.5c7.3-1.3 14.5-3.3 21.3-6.2 1-.5 1.7-.8 2.4-1.2z"/><path class="st10" d="M157.8 179.2l1.9 7.5-11.5 2.1 3-8.5 6.6-1.1z"/><path class="st11" d="M175.4 163.6l-3 8.5c-1.5-.4-2.9-.7-4.4-.9l3-8.5c1.5.2 3 .5 4.4.9z"/><path class="st11" d="M171.7 161.8l-3.8 9.3c-1.6-.2-3.3-.4-5.2-.6-10.6-.6-21.1-.2-31.6 1.2h-.7c-6.3.7-12.7 1.9-18.8 3.2-4.5 1-8.9 2.4-13.2 4.3l-1.8.9 2.6-9.5c.5-.3 2.5-1.2 3.1-1.4 4.2-1.8 7.7-1.7 12.1-2.6 6.2-1.5 12.5-3.7 18.9-4.5h.7c10.5-1.4 21-1.4 31.5-.7 2 0 4 0 5.5.2"/><path class="st11" d="M99.9 171.8l-3 8.5c-.8.4-1.7.9-2.3 1.7l2.8-8.5c.6-.6 1.5-1.3 2.3-1.7"/><path class="st12" d="M97.4 173.4l-2.9 8.5 2.9-8.5z"/><path class="st13" d="M97.4 173.4l-3 8.5-.2.2 3-8.5.2-.2z"/><path class="st15" d="M88.1 174.8l-3 8.5c-.3-.6-.5-1.3-.6-1.9-.1-.6 0-1.4.2-2l3-8.5c-.2.6-.3 1.4-.2 2 0 .6.3 1.4.6 1.9"/><path class="st10" d="M161.7 175.9l-13.5 12.9c-2.3.3-4.7.7-7.2 1-6.9.8-13.8 1.4-20.8 1.5-5.9.1-11.7-.1-17.5-.7l-2.2-.2c.2-3.6-4.5-7.7-1.2-10.6l7.3-1.2c5.9.6 13.4.7 19.2.5 6.9-.1 12-.1 18.9-.9 2.5-.3 5.8.3 8.1 0"/><path class="st10" d="M105.7 180.5l-5.2 9.8c-2.3-.3-4.6-.8-6.9-1.5l-.6-.2 2.9-8.5 1.5-.9c2.3.6 3.8 2.3 6.1 2.6m-7.6-1.7l-2.9 8.5c-1-.3-2.1-.7-3-1.3l3-8.5c.9.6 1.9 1 2.9 1.3z"/><path class="st10" d="M93 179l-2.9 8.5-.8-.4c-.4-.2-.8-.5-1.3-.8l3-8.5c.4.3.8.5 1.3.8l.7.4m-2.2-1.3l-3 8.5c-1.2-.7-2.1-1.8-2.7-2.8l3-8.5c.6 1 1.5 2 2.7 2.8"/><path d="M182.1 159.3c1.7.8 3 2.1 4.1 3.7.6 1 .8 2.3.5 3.5-.2.9-.7 1.9-1.5 2.6-1.8 1.7-3.8 3-6 4-6.9 2.9-14 4.9-21.3 6.2l-6.6 1.2c-2.3.3-4.7.6-7.2.9-6.9.8-13.8 1.4-20.7 1.5-5.9.2-11.7-.1-17.5-.7-3.1-.3-6.2-.9-9.1-1.8-1.6-.4-3-1-4.5-1.9-1.7-.8-3-2.1-4-3.7-.4-.6-.6-1.4-.6-2-.1-.7 0-1.5.3-2.1.5-1.2 1.3-2.2 2.2-2.9 2.7-2 5.8-3.6 9-4.6 10.1-3.3 20.6-5.5 31.2-6.6 6.9-.8 13.8-1.4 20.8-1.5 5.9-.2 11.7.1 17.5.7 3.1.3 6.2.9 9.1 1.8 1.3.5 2.8 1 4.3 1.7zm-6.3 5.9c.4-.3.8-.7 1.2-1.2-.3-.1-.8-.3-1.5-.5-3.1-.8-6.4-1.3-9.7-1.5-10.6-.6-20.8-.3-31.3 1l-.6.1-3.6.4c-6.4.7-9.4 1.5-15.7 2.9-4.5 1-8.9 2.4-13.2 4.3-1.5.6-2.9 1.6-4.1 2.6l-.2.3c.5.2.9.4 1.5.5 3.1.8 6.5 1.4 9.7 1.5 10.6.6 21.2.2 31.8-1.2 2.3-.3 4.5-.6 6.7-.9l6.5-1.2c4.8-.8 9.5-2.1 14.1-3.6 3-.5 5.8-1.8 8.4-3.5" fill="#b4d1fa"/><defs><filter id="Adobe_OpacityMaskFilter" filterUnits="userSpaceOnUse" x="87.3" y="154.9" width="99.7" height="28.2"><feColorMatrix values="1 0 0 0 0 0 1 0 0 0 0 0 1 0 0 0 0 0 1 0"/></filter></defs><mask maskUnits="userSpaceOnUse" x="87.3" y="154.9" width="99.7" height="28.2" id="path-65-inside-1_2_"><path d="M182.1 159.3c1.7.8 3 2.1 4.1 3.7.6 1 .8 2.3.5 3.5-.2.9-.7 1.9-1.5 2.6-1.8 1.7-3.8 3-6 4-6.9 2.9-14 4.9-21.3 6.2l-6.6 1.2c-2.3.3-4.7.6-7.2.9-6.9.8-13.8 1.4-20.7 1.5-5.9.2-11.7-.1-17.5-.7-3.1-.3-6.2-.9-9.1-1.8-1.6-.4-3-1-4.5-1.9-1.7-.8-3-2.1-4-3.7-.4-.6-.6-1.4-.6-2-.1-.7 0-1.5.3-2.1.5-1.2 1.3-2.2 2.2-2.9 2.7-2 5.8-3.6 9-4.6 10.1-3.3 20.6-5.5 31.2-6.6 6.9-.8 13.8-1.4 20.8-1.5 5.9-.2 11.7.1 17.5.7 3.1.3 6.2.9 9.1 1.8 1.3.5 2.8 1 4.3 1.7zm-6.3 5.9c.4-.3.8-.7 1.2-1.2-.3-.1-.8-.3-1.5-.5-3.1-.8-6.4-1.3-9.7-1.5-10.6-.6-20.8-.3-31.3 1l-.6.1-3.6.4c-6.4.7-9.4 1.5-15.7 2.9-4.5 1-8.9 2.4-13.2 4.3-1.5.6-2.9 1.6-4.1 2.6l-.2.3c.5.2.9.4 1.5.5 3.1.8 6.5 1.4 9.7 1.5 10.6.6 21.2.2 31.8-1.2 2.3-.3 4.5-.6 6.7-.9l6.5-1.2c4.8-.8 9.5-2.1 14.1-3.6 3-.5 5.8-1.8 8.4-3.5" fill="#fff" filter="url(#Adobe_OpacityMaskFilter)"/></mask><path d="M182.1 159.3l.1-.2-.1.2zm4 3.7l.2-.1-.2.1zm.6 3.4h.2-.2zm-1.5 2.6l.1.1-.1-.1zm-6 4l.1.2-.1-.2zm-21.4 6.2v-.2.2zm-6.6 1.1v.2-.2zm-7.2 1.1v.2-.2zm-20.7 1.4v-.2.2zm-17.6-.7v-.2.2zm-9-1.8l-.1.2.1-.2zm-4.5-1.9l.1-.2-.1.2zm-4-3.6l-.2.1.2-.1zm-.3-4.1l-.2-.1.2.1zm2.1-2.9l-.1-.2.1.2zm9-4.6l.1.2-.1-.2zm31.1-6.6v.2-.2zm20.8-1.5v.2-.2zm17.6.7v.2-.2zm9.1 1.7l-.1.2.1-.2zm-.7 6.6l.2.1.2-.2-.2-.1-.2.2zm-1.5-.5l.1-.2-.1.2zm-9.6-1.5v.2-.2zm-31.3 1.1v.2-.2zm-.6.1v-.2.2zm-3.6.4v.2-.2zm-15.7 2.9v.2-.2zm-13.1 4.2l.1.2-.1-.2zm-4.1 2.7l-.1-.1.1.1zm-.2.2l-.1-.1-.2.2.3.1v-.2zm1.4.6v-.2.2zm9.8 1.4v-.2.2zm31.7-1.1v-.2.2zm6.8-.9v.2-.2zm6.4-1.1v.2-.2zm14.1-3.6l-.1-.2.1.2zm14.6-9.5c1.7.8 3 2.1 4 3.7l.3-.2c-1-1.6-2.4-2.9-4.2-3.8l-.1.3zm3.9 3.6c.6.9.7 2.2.5 3.2l.4.1c.3-1.3.1-2.5-.5-3.6l-.4.3zm.6 3.3c-.2.9-.7 1.8-1.4 2.5l.3.3c.7-.7 1.3-1.7 1.5-2.7l-.4-.1zm-1.5 2.5c-1.7 1.7-3.8 3-6 3.9l.2.4c2.3-.9 4.3-2.3 6.1-4l-.3-.3zm-5.9 3.9c-6.8 2.8-14 4.9-21.3 6.2l.1.4c7.3-1.3 14.5-3.3 21.4-6.3l-.2-.3zm-21.3 6.3l-6.6 1.2.1.4 6.6-1.2-.1-.4zm-6.6 1c-2.3.3-4.7.6-7.2.9l.1.4c2.5-.3 4.9-.6 7.2-.9l-.1-.4zm-7.2 1.1c-6.9.8-13.8 1.4-20.7 1.5v.4c6.9-.1 13.9-.6 20.8-1.5l-.1-.4zm-20.7 1.4c-5.9.2-11.7-.1-17.5-.7v.4c5.9.6 11.7.8 17.6.7l-.1-.4zm-17.4-.7c-3-.3-6.2-.9-9.1-1.8l-.1.4c3 .8 6.1 1.5 9.2 1.8v-.4zm-9.2-1.8c-1.6-.4-3-1-4.4-1.9l-.2.4c1.5.8 2.9 1.5 4.5 1.9-.1 0 .1-.4.1-.4zm-4.4-1.8c-1.6-.8-2.9-2.1-3.9-3.6l-.3.2c.9 1.6 2.4 2.9 4.1 3.8l.1-.4zm-3.9-3.6c-.3-.6-.5-1.3-.6-2h-.4c.1.7.3 1.5.6 2.1l.4-.1zm-.6-1.9c-.1-.7 0-1.4.3-2l-.4-.1c-.3.7-.4 1.5-.3 2.2l.4-.1zm.3-2.1c.4-1.2 1.2-2.1 2.1-2.8l-.3-.3c-.9.8-1.8 1.9-2.2 3l.4.1zm2.1-2.8c2.7-2 5.8-3.6 8.9-4.5l-.1-.4c-3.2 1-6.3 2.6-9 4.6l.2.3zm8.9-4.5c10.1-3.3 20.5-5.5 31.2-6.6v-.4c-10.7 1-21.1 3.2-31.3 6.6l.1.4zm31.1-6.6c6.9-.8 13.8-1.4 20.8-1.5v-.4c-7 .1-13.9.6-20.8 1.5v.4zm20.7-1.5c5.9-.2 11.7.1 17.5.7v-.4c-5.9-.6-11.7-.8-17.6-.7l.1.4zm17.5.7c3 .3 6.2.9 9.1 1.8l.1-.4c-3-.8-6.1-1.5-9.2-1.8v.4zm9.1 1.7c1.6.4 3 1 4.4 1.7l.2-.4c-1.5-.7-2.9-1.4-4.5-1.8l-.1.5zm-1.6 7.7c.4-.3.8-.7 1.3-1.2l-.3-.2c-.3.4-.7.7-1.2 1l.2.4zm1.2-1.5c-.3-.1-.8-.3-1.6-.5l-.1.4c.6.2 1.2.3 1.5.5l.2-.4zm-1.6-.5c-3.2-.8-6.5-1.3-9.7-1.5v.4c3.2.2 6.5.6 9.6 1.5l.1-.4zm-9.7-1.5c-10.6-.6-20.8-.3-31.3 1l.1.4c10.5-1.4 20.7-1.7 31.2-1v-.4zm-31.3 1.1l-.6.1v.4l.6-.1v-.4zm-.6.1l-3.6.4.1.4 3.6-.4-.1-.4zm-3.6.4c-6.4.7-9.5 1.5-15.7 2.9l.1.4c6.2-1.5 9.3-2.1 15.7-2.9l-.1-.4zm-15.7 2.9c-4.5 1-9 2.4-13.2 4.3l.1.3c4.3-1.8 8.7-3.2 13.2-4.3l-.1-.3zm-13.2 4.2c-1.6.6-2.9 1.6-4.1 2.7l.3.3c1.2-1 2.5-2 4-2.6l-.2-.4zm-4.1 2.7l-.2.3.3.3.2-.3-.3-.3zm-.2.6c.5.2 1 .4 1.6.5l.1-.4c-.5-.1-1-.3-1.5-.5l-.2.4zm1.5.6c3.2.8 6.5 1.4 9.7 1.5v-.4c-3.2-.2-6.5-.6-9.7-1.5v.4zm9.8 1.4c10.7.6 21.2.2 31.8-1.2l-.1-.4c-10.6 1.4-21.1 1.7-31.8 1.2l.1.4zm31.7-1.1c2.3-.3 4.5-.6 6.7-.9l-.1-.4c-2.2.3-4.4.6-6.7.9l.1.4zm6.8-.9l6.5-1.2-.1-.4-6.5 1.2.1.4zm6.5-1.1c4.8-.8 9.5-2.1 14.1-3.6l-.1-.4c-4.6 1.5-9.3 2.6-14.1 3.6l.1.4zm14.1-3.6c2.9-.8 5.8-2.2 8.4-3.8l-.2-.3c-2.5 1.6-5.3 2.9-8.3 3.8l.1.3z" mask="url(#path-65-inside-1_2_)"/><path class="st15" d="M200.2 124.9l-2.9 8.5v-.3l2.9-8.5c.1 0 .1.2 0 .3z"/><path class="st10" d="M209.4 127.9l-2.9 8.5c0 .2-.1.3-.2.5l2.9-8.5c.1 0 .1-.2.2-.5zm-.3.7l-2.9 8.5c-.2.4-.4.8-.7 1.3-.3.3-.5.7-.8 1l2.9-8.5c.3-.3.5-.6.8-1s.5-.9.7-1.3zm-1.5 2.2l-2.9 8.5c-1.5 1.6-3.2 2.9-5.1 4h-.2l2.9-8.5h.2c1.8-1 3.6-2.4 5.1-4m-5.4 4l-2.9 8.5c-7.1 3.8-14.7 6.6-22.6 8.4h-.6c-.5.1-1 .1-1.7 0l2.9-8.5c.5.1 1 .1 1.7 0 .2 0 .4-.1.6-.1 8-1.8 15.5-4.6 22.6-8.3z"/><path class="st10" d="M177.5 143.2l-2.9 8.5-1.2-.3 2.9-8.5c.4.2.9.3 1.2.3z"/><path class="st10" d="M176.3 142.9l-2.9 8.5c-.3-.1-.6-.2-.9-.4l2.9-8.5c.3.2.6.3.9.4z"/><path class="st10" d="M175.4 142.6l-2.9 8.5c-.3-.2-.6-.3-.9-.6l2.8-8.4c.2.2.6.4 1 .5"/><path class="st10" d="M176.8 142.1l-2.1 9.6c-2.8-.5-4.1-1.8-4.4-2.2-.3-.3-.5-.7-.6-1.3-.1-.4-.1-.9.1-1.4l2.9-8.5c-.1.4-.1.9 0 1.4.1.4 1.2.6 1.5 1 .3.4.7.8 1.2 1.2"/><path class="st11" d="M200.3 124.5l-2.9 8.5v-.3s0-.1-.3-.3l2.9-8.5.3.3v.3zm-.5-.6l-2.9 8.6-.5-.3-.3-.3 2.9-8.5.4.2.4.3"/><path class="st11" d="M199 123.3l-2.8 8.5c-.7-.3-1.6-.6-2.4-.9l2.9-8.5c.7.2 1.6.5 2.3.9"/><path class="st11" d="M202.2 123.3l-8.6 7.6-1-.3c-2.3-.6-4.7-1.2-7-1.5l-2.4-9.7c2.4.3 10 2 12.3 2.7l.9.3M79.9 134.8l-2.9 8.5c-1.2.6-2.2 1.4-3.1 2.2l-.6.6 2.8-8.6.7-.7c.9-.8 2-1.3 3.1-2z"/><path class="st11" d="M76.2 137.6l-2.9 8.5c-.3.3-.6.7-.8 1.2l2.9-8.5c.2-.5.4-.9.8-1.2m-.9 1.1l-2.9 8.5 2.9-8.5z"/><path class="st10" d="M160.3 145.4l-2.8 9.2c-.2.2-1.2 1.2-1.7 1.2l-1.7-8.1c.2-.2 6.2-2.3 6.2-2.3z"/><path class="st10" d="M159.2 147.1l-2.9 8.5c-.4.2-.9.4-1.5.5-3.3.5-6.9 1-10.6 1.5-10.2 1.3-20.5 2-30.8 2.2-8.6.2-17.1-.1-25.7-1l-3.2-.4 2.9-8.5 3.2.4c8.6.9 17.1 1.3 25.7 1 10.4-.2 20.6-.9 30.8-2.2 3.8-.4 7.2-.9 10.6-1.5.5-.1 1.1-.2 1.5-.5z"/><path class="st10" d="M90.9 150.3l-6.5 8.1c-3.3-.5-6.6-1.2-9.8-2.2l-.6-.2 2.9-8.5.6.2c3.3.9 10.1 2.1 13.4 2.6z"/><path class="st10" d="M79.9 148.1l-6 7.9c-1.5-.5-2.9-1-4.3-1.8l2.9-8.5c1.6.8 6 1.9 7.4 2.4z"/><path class="st10" d="M72.7 145.7l-2.9 8.5-1-.6c-.5-.3-1.2-.6-1.7-1L70 144c.5.4 1 .7 1.7 1l1 .7z"/><path class="st10" d="M70 144.2l-2.9 8.5c-1.4-.9-2.4-2.1-3.2-3.6-.4-.7-.7-1.6-.7-2.4-.1-.8 0-1.7.3-2.5l2.9-8.5c-.3.8-.3 1.7-.3 2.5.1.8.3 1.7.7 2.4.7 1.5 1.8 2.6 3.2 3.6z"/><path class="st11" d="M188.6 120.6l-2.9 8.5c-2.4-.3-5.2-.6-8.3-.9-16.1-.9-32.3-.4-48.3 1.7-9.5 1.2-18.9 2.7-28.2 4.9-6.8 1.6-13.5 3.7-20 6.4-1.4.6-2.7 1.3-4 2l2.9-8.5c1.3-.7 2.6-1.3 4-1.9 6.1-3.6 12.9-5.6 20-6.5 9.3-2.1 18.7-3.8 28.2-4.8 16-2.1 32.3-3.2 48.4-2.3 3.8-1.2 6.2.2 8.1 1.5"/><path class="st16" d="M128.5 114.8c-15.7 1.7-31.2 5.1-46.1 10.1-4.6 1.6-9 3.8-12.9 6.7-1.4 1-2.4 2.4-3.1 4-.3.8-.4 1.7-.4 2.6.1.8.3 1.7.7 2.5 1.2 1.9 2.8 3.5 4.8 4.6 1.9 1 3.9 1.8 6 2.4 4.3 1.3 8.6 2.1 13 2.6 8.6.9 17.1 1.3 25.7 1 10.4-.2 20.6-.9 30.8-2.2 3.8-.4 7.2-.9 10.6-1.5 1.2-.2 1.9-.7 2.3-1.4.4-.7.4-1.6-.1-2.5-.7-.9-1.6-1.7-2.7-2.2-1-.4-2.3-.6-3.5-.5-3.3.5-6.8 1-10.6 1.5-15.9 2.1-32 2.6-48 1.7-5.2-.3-10.4-1.2-15.4-2.4-1.3-.3-2.6-.8-3.8-1.5h-.1c-.3-.2-.4-.4-.6-.7v-.1c0-.1-.1-.3 0-.7.3-.7.8-1.4 1.5-1.8 2.2-1.8 4.6-3.2 7.2-4.2m44.7-18c10.2-1.3 20.5-2 30.8-2.2 8.6-.2 17.1.1 25.7 1 4.4.5 8.8 1.4 13.1 2.6 2.1.6 4.1 1.4 5.9 2.4 2 1 3.7 2.6 4.8 4.6l.7 3.5v.1c-.1 1-.5 2.1-1.2 2.9-1.6 2.1-3.7 3.9-6 5-7.2 3.8-14.6 6.5-22.5 8.3l-.2.1c-.2.1-.4.1-.6.1-1 .1-2.2-.1-3.1-.4-1-.4-1.9-.9-2.6-1.8-.3-.3-.6-.7-.7-1.3-.1-.4-.1-.9.1-1.4.2-.4.4-.8.8-1.2.4-.3.7-.4 1.3-.5 5.2-1.3 10.4-2.8 15.3-4.8 3.1-1.2 6.1-2.7 8.7-4.8.7-.5 1.3-1.4 1.5-2.2v-.3s0-.2-.8-.6c-1.2-.6-2.4-1.2-3.8-1.5-5-1.3-10.1-2.1-15.3-2.4-16.1-.9-32.3-.4-48.3 1.7-9.5 1-18.9 2.7-28.1 4.8-6.8 1.6-13.5 3.7-20 6.4"/><path class="st2" d="M141.6 235.2l-12.2-6.1c5.9-.9 12.8-2.5 18.2-4.7l11 6c-5.5 2.3-11.1 3.9-17 4.8zm-18.8-.5l-11-6h.2l11 6h-.2z"/><path class="st2" d="M122.9 234.8l-11-6 .9.3 11 6-.9-.3z"/><path class="st2" d="M123.8 235.1l-11-6.1h.6c5.6.7 11.5.7 17.1 0l13.1 7c-5.8.7-14.4 1.9-20.1 1.2l.3-2.1"/><path class="st10" d="M225.9 91.9l-6.7 13.6c-3.9 2.2-7.9 4-12 5.5-14.8 5.5-36.2 10.4-61.4 13.5-13.7 1.8-27.5 2.7-41.3 3-11.4.3-22.8-.1-34.2-1.4-1.5-.2-2.9-.3-4.3-.6L62.3 115c1.4.2 9.3 1.6 10.9 1.7 11.4 1.3 23 1.9 34.4 1.5 14.7-2.6 28-3.9 40.8-3.7 25.2-5.6 46.9-8.4 61.7-11.9 4.2-1.5 14.6-7 18.5-9.2"/><path class="st20" d="M118.4 243.2l-11-6c-2.1-1.3-3.9-3.1-5.1-5.3-1.2-2.2-1.8-4.7-1.7-7.1l11.1 6c-.1 2.5.5 4.9 1.7 7.1 1.1 2.2 2.9 4 5 5.3"/><path class="st10" d="M231 88.3l-2.9 8.5-.1.4-.1.3 2.9-8.6.1-.3.1-.3m-.3.6l-2.9 8.5c-.5 1-1.2 2-1.9 2.8l2.9-8.5c.7-.8 1.4-1.7 1.9-2.8z"/><path class="st10" d="M228.8 91.9l-2.9 8.5c-.6.6-1.3 1.3-2 1.9-1.6 1.3-3.1 2.3-4.8 3.2L222 97c1.7-.9 3.3-2.1 4.8-3.2.7-.6 1.4-1.2 2-1.9zM79.9 117l-14 8.6c-4.3-.6-8.6-1.5-12.8-2.8l-.9-.3 2.9-8.5.9.3c4.5.2 10-2.8 13.8-.3"/><path class="st10" d="M61.1 115.5l-8.8 6.9c-1.8-.5-3.6-1.3-5.2-2.1l2.5-8.8c4.4 1.9 6.9 2.9 11.5 4z"/><path class="st10" d="M50 111.6l-2.9 8.6c-.5-.2-.9-.5-1.4-.7-.7-.4-1.4-.8-2-1.3l2.9-8.5c.6.4 1.4.9 2 1.3.5.2.9.4 1.4.6"/><path class="st11" d="M222.3 86.9l-3.5 6.9c.1-.2.2-.5.2-.8 0-.3-.1-.5-.2-.8-.2-.4-2.4-.9-2.8-1.3 1-1.5 1.3-3.9-.5-12.7.4.2 8.4 4.8 8.6 5.1.1.3-.5 2.6-.5 2.8s-.4 1.5-.5 1.7"/><path class="st11" d="M220.8 82.7l-2.9 8.5c-.3-.2-.5-.4-.8-.5l2.9-8.5c.2.1.5.3.8.5zm-.9-.7l-2.9 8.5-3.3-2 5.5-6.9c.3.1.5.3.7.4"/><path class="st11" d="M219.3 81.7l-2.9 8.5c-1-.5-6.7-2.4-7.8-2.7l7.4-7c1.2.4 2.3.8 3.5 1.4"/><path class="st11" d="M215.8 80.4L213 89l-1.5-.4c-3.2-.9-11.7-2.3-15.1-2.8l8.1-7.7c3.3.5 6.7 1.2 9.9 2.1l1.4.2"/><path class="st11" d="M204.4 77.9l-2.9 8.5c-3.3-.5-7-.9-11.1-1.3-21.7-1.3-43.5-.4-65 2.4-4.8.6-9.4 1.3-13.9 2l2.9-8.5c4.5-.6 9.1-1.4 13.9-2 21.6-4.2 43.4-3.7 65.2-2.4 4.1.3 7.7.7 11.1 1.3"/><path class="st11" d="M114.4 80.9l-2.8 8.5c-.6.1-1.2.1-1.8 0l2.9-8.5c.7.1 1.2.1 1.7 0m-1.8 0l-2.9 8.5-1.3-.3 2.9-8.5c.6.1.9.2 1.3.3z"/><path class="st11" d="M111.5 80.6l-2.9 8.5c-.3-.1-.6-.2-.9-.4l2.9-8.5.9.4z"/><path class="st11" d="M110.6 80.2l-2.9 8.5c-.3-.1-.6-.3-.9-.5l2.9-8.5.9.5z"/><path class="st11" d="M154.1 75.4l-47.3 12.8c-.5-.4-1-.9-1.4-1.5-.2-.3-.3-.7-.4-1-.1-.3 0-.7.1-1.2L108 76c-.1.4-.1.7-.1 1.2.1.4.2.7.4 1 .3.5 1.6 1 2.2 1.5m-7.6 3l-2.9 8.5c-.4.2-.8.3-1.3.4-9.8 1.9-19.4 4.3-29 7.4-5.1 1.7-10 3.8-14.6 6.3l2.9-8.5c4.7-2.6 9.6-4.7 14.6-6.3 9.5-3.1 19.1-5.5 29-7.4.5-.1.9-.2 1.3-.4z"/><path class="st11" d="M58 96.9l-.3 7.2c-1 .6-4.6 2.5-5.5 3.2-.8.6-1.7 1.4-2.4 2.1l2.9-8.4c.4-1.2 1.2-2 2.4-2.2.9-.7 1.8-1.3 2.9-1.9m-5.4 4.1l-2.9 8.5c-.4.5-.8 1-1.2 1.7l2.9-8.5c.3-.6.7-1.2 1.2-1.7z"/><path class="st11" d="M51.5 102.6l-2.9 8.5-.1.3 2.8-8.5.2-.3"/><path d="M115.8 219l-11-6 3.8-3 11 6-3.8 3z" fill="#9c5061"/><path class="st16" d="M149.4 116.2c20.5-2.4 40.7-7.1 60.2-13.8 6-2.1 11.7-5 16.8-8.8 1.8-1.4 3.1-3.1 4.1-5.2.4-1.1.5-2.2.5-3.4-.1-1.1-.4-2.2-1-3.2-1.5-2.4-3.7-4.4-6.4-5.9-2.5-1.3-5.1-2.2-7.8-3-5.6-1.6-11.2-2.6-17-3.2-11.2-1.1-22.5-1.4-33.7-1-13.5.4-26.9 1.5-40.3 3.3-4.9.6-9.4 1.3-13.8 2-1.5.3-2.5 1-3 1.8-.5 1-.5 2 .2 3.2 1 1.2 2.1 2.1 3.6 2.8 1.4.5 3 .8 4.5.6 4.4-.7 8.9-1.4 13.8-2 20.8-2.9 41.8-3.8 62.8-2.8 6.8.3 13.6 1.3 20.1 2.9 1.6.4 3.4 1 4.9 1.8h.1c.4.3.6.5.8.9v.1c0 .1.1.4 0 .9-.4 1-1.1 1.8-1.9 2.3-2.9 2.3-6 4.3-9.4 5.5m-58.1 24.2c-13.4 1.8-26.8 2.9-40.3 3.3-11.2.4-22.4.1-33.7-1-5.8-.6-11.5-1.6-17.1-3.2-2.7-.8-5.4-1.7-7.7-3-2.6-1.3-4.8-3.3-6.4-5.9l-1-4.4v-.1c.1-1.4.7-2.7 1.5-3.8 2-2.7 4.7-5.1 7.7-6.6 9.4-5 19.1-8.6 29.3-11l.3-.1c.3-.1.5-.1.8-.1 1.4-.1 2.9.1 4.1.5 1.4.5 2.5 1.2 3.4 2.3.4.4.8.9 1 1.6.1.5.1 1.2-.1 1.8s-.5 1.1-1.1 1.5c-.5.4-1 .6-1.6.7-6.8 1.7-13.5 3.8-19.9 6.4-4.1 1.5-7.9 3.6-11.3 6.3-1 .7-1.6 1.8-1.9 2.9v.4s0 .3 1.1.8c1.5.8 3.2 1.5 4.9 1.8 6.6 1.6 13.3 2.6 20 2.9 21.1 1 42.3.1 63.2-2.8 12.4-1.5 24.7-3.8 36.8-6.6 8.9-2.1 17.6-4.9 26.1-8.5"/><path class="st20" d="M114.5 237.4l-13.9-12.7v-9.6l13.9 4.5v17.8z"/><path class="st20" d="M113.2 222l-12.7-6.9L12.4 84.9l11 6L113.2 222z"/><path class="st5" d="M24.4 84.3l-11-6 .1-.1 11 5.9s-.1 0-.1.2"/><path class="st0" d="M24.5 84.1l-11-6 .5-.4 11 6c-.2.2-.3.3-.5.4"/><path class="st6" d="M25 83.8l-11-6c.2-.1.4-.3.6-.3l11 6c-.1 0-.4.2-.6.3z"/><path class="st7" d="M25.7 83.4l-11-6c.4-.2.7-.3 1.2-.3.5-.1 1-.1 1.5 0l11.1 6.1c-.5-.1-1-.1-1.5 0-.6 0-.9.2-1.3.2"/><path class="st6" d="M28.4 83.2l-11-6c.2.1.5.1.7.2l11 6c-.3-.1-.5-.2-.7-.2z"/><path class="st0" d="M29 83.4l-11-6 11 6h-.1.1z"/><path d="M253.2 50.9l-89.3 156.4c-.5.8-.7 1.8-.6 2.7v13.5c0 1.5-.3 2.9-1.2 4.2-.6 1-1.6 2-2.7 2.6-5.3 2.1-12.4 4-17.8 4.9-5.6.7-11.5.7-17.1 0-1.4-.2-2.5-.9-3.2-2-.8-1-1.2-2.4-1-3.7v-11.2c0-.8-.4-1.7-.8-2.4l-89-131.3c-.4-.5-.9-1-1.6-1.3-.6-.3-1.4-.4-2-.3-.9.1-1.8.6-2.4 1.3-.9.7-1.6 1.9-1.8 3-.2 1.3.1 2.5.8 3.5L111.7 221v9.6c0 7.1 4.3 12.8 10.7 13.9 6.3.8 12.8.8 19 0 6.7-1 18.4-3.5 23.6-8.1 1.5-1.3 2.7-2.6 3.8-4.3 2-3 3-6.5 3-10v-12.3L260.3 55l-7.1-4.1z" fill-rule="evenodd" clip-rule="evenodd" fill="#e87891"/><defs><filter id="Adobe_OpacityMaskFilter_1_" filterUnits="userSpaceOnUse" x="22.4" y="50.6" width="238.1" height="194.9"><feColorMatrix values="1 0 0 0 0 0 1 0 0 0 0 0 1 0 0 0 0 0 1 0"/></filter></defs><mask maskUnits="userSpaceOnUse" x="22.4" y="50.6" width="238.1" height="194.9" id="path-131-inside-2_2_"><path d="M253.2 50.9l-89.3 156.4c-.5.8-.7 1.8-.6 2.7v13.5c0 1.5-.3 2.9-1.2 4.2-.6 1-1.6 2-2.7 2.6-5.3 2.1-12.4 4-17.8 4.9-5.6.7-11.5.7-17.1 0-1.4-.2-2.5-.9-3.2-2-.8-1-1.2-2.4-1-3.7v-11.2c0-.8-.4-1.7-.8-2.4l-89-131.3c-.4-.5-.9-1-1.6-1.3-.6-.3-1.4-.4-2-.3-.9.1-1.8.6-2.4 1.3-.9.7-1.6 1.9-1.8 3-.2 1.3.1 2.5.8 3.5L111.7 221v9.6c0 7.1 4.3 12.8 10.7 13.9 6.3.8 12.8.8 19 0 6.7-1 18.4-3.5 23.6-8.1 1.5-1.3 2.7-2.6 3.8-4.3 2-3 3-6.5 3-10v-12.3L260.3 55l-7.1-4.1z" fill-rule="evenodd" clip-rule="evenodd" fill="#fff" filter="url(#Adobe_OpacityMaskFilter_1_)"/></mask><path d="M163.9 207.3l-.2-.1.2.1zm89.3-156.4l.1-.2-.2-.1-.1.2.2.1zM163.1 210h.2-.2zm0 13.5h-.2.2zm-1.1 4.2l-.2-.1.2.1zm-2.6 2.7l.1.2-.1-.2zm-17.8 4.8v.2-.2zm-17.1 0v.2-.2zm-3.3-2l.2-.1-.2.1zm-1-3.7h.2-.2zm0-11.1h-.2.2zm-.9-2.4l.2-.1-.2.1zM30.4 84.7l.2-.1-.2.1zm-1.6-1.3l-.1.2.1-.2zm-2-.3v-.2.2zm-2.4 1.2l.1.2-.1-.2zm-1.8 3.1h-.2.2zm.8 3.5l.2-.1-.2.1zm88.2 130.2h.2v-.2l-.2.2zm10.7 23.5v.2-.2zm19 0v.2-.2zm23.6-7.9l.1.2.1-.1-.1-.1h-.1zm0-.1l-.1-.2-.1.1.1.1h.1zm3.9-4.2l-.2-.1.2.1zm3-10.2h.2-.2zm0-12.2l-.2-.1v.1h.2zm88.5-155l.2.1V55l-.2-.1v.1zM164 207.4L253.3 51l-.3-.2-89.3 156.4.3.2zm-.6 2.6c0-.9.2-1.9.6-2.6l-.3-.2c-.5.8-.7 1.9-.7 2.8h.4zm0 13.5V210h-.4v13.5h.4zm-1.2 4.3c.7-1.3 1.2-2.8 1.2-4.3h-.4c0 1.5-.3 2.8-1 4.1l.2.2zm-2.7 2.7c1.2-.6 2.1-1.6 2.7-2.7l-.3-.2c-.6 1-1.6 2-2.6 2.6l.2.3zm-.2-.3c-5.3 2.1-12.4 4-17.7 4.8l.1.4c5.3-.8 12.4-2.8 17.8-4.9l-.2-.3zm-17.7 4.8c-5.6.7-11.4.7-17 0l-.1.4c5.8.7 11.5.7 17.1 0v-.4zm-17.1 0c-1.3-.2-2.4-.8-3.1-1.9l-.3.2c.8 1.2 2.1 1.9 3.5 2.1v-.4zm-3.2-1.9c-.7-1-1.2-2.3-.9-3.6h-.4c-.2 1.4.2 2.7 1 3.9l.3-.3zm-.9-3.6v-11.2h-.4v11.2h.4zm0-11.1c0-.9-.4-1.8-.8-2.5l-.3.2c.4.7.8 1.5.8 2.3h.3zm-.9-2.5l-89-131.3-.3.2 89 131.3.3-.2zM30.6 84.6c-.4-.6-.9-1-1.7-1.4l-.2.4c.6.3 1.2.7 1.5 1.3l.4-.3zm-1.7-1.4c-.6-.3-1.5-.4-2.1-.3l.1.4c.6-.1 1.4 0 1.9.2l.1-.3zm-2.1-.3c-.9.1-1.9.6-2.5 1.4l.3.3c.6-.6 1.5-1 2.3-1.2l-.1-.5zm-2.5 1.2c-1 .8-1.7 2-1.9 3.2l.4.1c.2-1.2.8-2.2 1.7-2.9 0 .1-.2-.4-.2-.4zm-1.9 3.3c-.2 1.3.1 2.6.8 3.7l.3-.2c-.6-.9-.9-2.2-.7-3.3 0-.1-.4-.2-.4-.2zm.9 3.6l88.2 130.2.3-.2L23.6 90.7l-.3.3zm88.1 130.1v9.6h.4v-9.6h-.4zm0 9.6c0 7.1 4.3 13 10.8 14.1l.1-.4c-6.3-1-10.5-6.7-10.5-13.7h-.4zm10.9 14.1c6.4.8 12.8.8 19.1 0l-.1-.4c-6.3.8-12.7.8-19 0v.4zm19.1 0c3.3-.5 7.9-1.4 12.3-2.7 4.4-1.3 8.7-3 11.3-5.4l-.3-.3c-2.5 2.3-6.8 4-11.2 5.3-4.4 1.3-9 2.2-12.3 2.6l.2.5zm23.7-8.2l-.4.2.4-.2zm3.5-4.3c-1 1.6-2.3 3-3.8 4.2l.3.3c1.5-1.3 2.8-2.7 3.9-4.3l-.4-.2zm3-10.1c0 3.6-1 7-3 9.9l.3.2c2-3 3-6.6 3-10.1h-.3zm0-12.2v12.2h.4v-12.3h-.4v.1zm88.5-155.1l-88.4 155 .3.2 88.4-154.9-.3-.3zm-7-3.8l7.1 4.1.2-.3-7.1-4.1-.2.3z" mask="url(#path-131-inside-2_2_)"/><path d="M23.4 90.9l-11-6.1c-.5-.6-.7-1.3-.8-2.1-.1-.7 0-1.6.3-2.2l11 5.9c-.3.7-.4 1.5-.3 2.2 0 .9.3 1.6.8 2.3" fill="#793e4b"/><path class="st9" d="M22.8 86.5l-11-6c.1-.2.2-.5.3-.7l11 6.1-.3.6"/><path class="st3" d="M23.2 85.9l-11-6.1c0-.2.2-.4.3-.6l11 6.1c0 .2-.2.4-.3.6z"/><path class="st4" d="M23.5 85.3l-11-6.1.4-.5 11 6.1-.4.5z"/><path class="st5" d="M23.9 84.9l-11-6.1.4-.4 11 6c-.1.2-.3.3-.4.5z"/><path class="st0" d="M24.3 84.5l-11-6.1 11 6.1"/><path class="st10" d="M255.8 45l-3.6 8.7c.2-.5.3-1 .3-1.6s-.2-1-.4-1.5l2.6-9.8c.2.4 1.3 2.1 1.4 2.6 0 .6-.1 1.1-.3 1.6z"/><path class="st10" d="M255 42.2l-2.9 8.5c-.5-.8-1.2-1.5-1.9-2l.2-12.3c.8.5 4.1 5 4.6 5.8z"/><path class="st10" d="M253.2 40.2l-2.9 8.5c-.4-.3-.8-.6-1.4-.9l-1-.5 2.9-8.5c.4.2.7.3 1 .5.4.3.9.6 1.4.9z"/><path class="st10" d="M260.3 41.1l-12.4 6.2c-1.6-.8-12-4.9-13.7-5.5l11.7-5c1.6.5 12.7 3.5 14.4 4.3z"/><path class="st10" d="M250.2 35.4l-7.4 9.8c-.6-.2-1.4-.4-2.2-.6-4.6-1.3-13.8-2.8-18.4-3.6l7.4-7.8c4.7.6 8.5-1.3 13.1 0 .7.1 6.8 1.9 7.5 2.2z"/><path class="st10" d="M229.6 33.1l-2.9 8.5c-4.6-.7-9.8-1.3-15.4-1.7-29.9-1.8-60-.6-89.7 3.2-6.6.8-13 1.8-19 2.7l2.9-8.5c6.2-.9 12.4-1.9 19-2.7 29.7-3.9 60-6.1 89.9-4.3 5.6.5 10.6 2.2 15.2 2.8zm-124.1 4.3l-2.9 8.5c-.6.1-1.2.1-1.8 0l2.9-8.5c.6.1 1.2.1 1.8 0z"/><path class="st10" d="M103.8 37.4l-2.9 8.5-1.3-.3 2.9-8.5 1.3.3z"/><path class="st10" d="M113.3 39.8c-5.5 4-8.8 7.4-13.7 5.8-.3-.1-2-.8-2.2-1.3l4.2-7.6c.3.2.6.3.9.4"/><path class="st10" d="M101.6 36.7l-2.9 8.5c-.3-.1-.6-.3-.9-.5l2.9-8.5c.2.2.6.3.9.5z"/><path class="st10" d="M111 35.6l-13.3 9c-.5-.4-1-.8-1.4-1.5-.2-.3-.3-.7-.4-1-.1-.4 0-.7.1-1.2l2.9-8.5c-.1.4-.1.7-.1 1.2.1.4.9.1 1.2.5.3.5 1 .6 1.6 1m-11.4 3.8l-2.9 8.5c-.1.2-.2.4-.4.6l3-8.5c.2-.2.3-.4.3-.6"/><path class="st10" d="M89.9 39.4L87 47.9c-.2.2-.4.4-.6.5l2.9-8.5c.1-.1.3-.3.6-.5z"/><path class="st10" d="M90.1 37.7c.1 0 .2-.3.3-.2.5.6-1 5.2-3.5 10.7-.4.2-.5.5-2 .7-13.6 2.5-27 6-40 10.2-7.1 2.3-13.9 5.2-20.4 8.8l2.9-8.5c6.5-3.6 13.2-8.1 20.3-10.2 13.1-4.3 25.6-7.4 39.2-9.9.4-.1 2.7-1.4 3.2-1.6z"/><path class="st10" d="M33 55.7L24.5 68c-1.5.8-2.8 1.7-4.1 2.6s-2.4 2-3.5 3.1l2.2-9.9c1-1.2 2.2-2.2 3.5-3.1 1.4-.9 3.5-.4 4.8-1.3"/><path class="st10" d="M19.9 65.2L17 73.8c-.7.7-1.4 1.7-1.8 2.6l2.9-8.5c.5-1 1.1-1.8 1.8-2.7z"/><path class="st10" d="M18.1 67.8l-2.9 8.5-.1.5 2.9-8.5c-.1-.1-.1-.3.1-.5m246.2-19.5l-3 8.5c0 .2-.1.3-.2.5-.1.1-.1.3-.2.4l2.9-8.5c.1-.1.1-.3.2-.4.1-.1.5-2.5.6-2.6"/><path class="st10" d="M264.2 48.4l-3.1 9.3c-.6 1.4-1.5 2.6-2.4 3.7l-20.8 4.3c1-1 25.8-17.6 26.5-18.9"/><path class="st10" d="M261.5 52.8l-2.9 8.5c-.8.8-1.7 1.7-2.6 2.4-2 1.7-4.1 3.1-6.4 4.4l2.9-8.5c2.2-1.3 4.4-2.6 6.4-4.3 1-.7 1.8-1.5 2.6-2.5"/><path class="st10" d="M252.5 59.7l-2.9 8.5c-5.3 2.9-10.8 5.4-16.5 7.5-20.2 7.5-49.6 14.1-83.8 18.4-18.7 2.3-37.4 3.7-56.2 4.1-15.6.4-31.2-.2-46.6-2-1.9-.2-3.8-.5-5.6-.7l2.9-8.5c1.8.3 3.8.5 5.6.7C64.9 89.4 80.5 90 96 89.6c18.8-.4 37.5-1.8 56.2-4.1 34.3-4.2 63.7-10.8 83.8-18.3 5.8-2.1 11.3-4.6 16.5-7.5z"/><path class="st10" d="M55.5 85.3L40.8 95.4c-5.9-.8-11.6-2.1-17.3-3.8l-1.3-.3 2.9-8.5 1.3.4c6.8-.6 12.4.9 17.3 3.8"/><path class="st10" d="M33 82.6l-10.8 8.8c-2.3-.7-4.6-1.7-6.8-2.7l2.9-8.5c2.2 1 4.4 2 6.8 2.7"/><path class="st10" d="M18.6 80.1l-2.9 8.5-1.8-.9c-4.5-2.5-4.6-3.3-5-4.2V68.1"/><path class="st16" d="M120.9 28c-6.9.8-13.2 1.8-19.3 2.7-1.2.2-1.9.7-2.3 1.4-.4.7-.4 1.6.1 2.5.6.9 1.6 1.7 2.7 2.2 1 .5 2.3.6 3.5.5 6.2-.9 12.4-1.9 19-2.7 29.8-3.9 59.8-4.9 89.7-3.2 9.9.6 19.8 2.1 29.4 4.6 2.8.7 5.5 1.6 8.2 2.9l.1.1c1.4.6 2.1 1.6 2.9 2.8l.2.3.2.3c.2.5.1.7.1 1.3 0 .6-.2 1.2-.4 1.7v.1l-.1.2c-.7 1.6-1.7 2.8-2.9 3.9-4.2 3.3-8.7 6.1-13.7 8.2l-.1.1c-12.1 5-24.6 9.1-37.4 11.9-17.3 4-34.8 7.1-52.4 9.2-29.8 3.9-59.8 4.9-89.7 3.1v.1c-9.9-.5-19.7-2.1-29.2-4.6-2.8-.7-5.4-1.7-8.1-3l-.2-.1c-1.4-.6-2.5-1.7-3.2-3-.4-.7-.5-1.7-.3-2.5 1-2.8 3-5.1 5.6-6.7 7.6-5 15.9-8.9 24.6-11.6 13.1-4.3 26.5-7.7 40-10.2h.1c.1 0 .2 0 .3-.1.3-.1.6-.2.8-.3.4-.2.7-.6.8-1 .2-.4.3-.8.2-1.4-.1-.4-.2-.8-.5-1.3-.7-.9-1.7-1.6-2.8-2-1-.4-2.3-.5-3.5-.3-24 4.8-43.8 10.6-57.1 16.9-5.2 2.2-10.2 5.5-14.4 9.7-1.5 1.6-2.5 3.5-3 5.5-.4 2.1-.1 4.3.9 6.2 1.8 2.8 4.3 5.2 7.2 6.8 3 1.7 6.3 3 9.6 4.4 1.6.5 17.1 4.2 22.9 4.6 6.4.5 31.1 2 46.6 1.6 18.8-.4 37.5-1.8 56.2-4.1 84.4-9.8 106.6-30.3 106.6-30.3 2.2-1.8 4-4 5-6.6.5-1.3.7-2.5.6-3.8-.1-1.3-.5-2.6-1.2-3.7-1.8-2.8-4.3-5.2-7.2-6.8-3-1.7-6.3-3-9.6-4.1-7.5-2.2-15.2-3.7-22.9-4.5-15.5-1.7-30.9-2.4-46.5-2-18.8.5-37.4 1.8-56.1 4.1"/></svg>