<svg version="1.1" id="Слой_1" xmlns="http://www.w3.org/2000/svg" x="0" y="0" viewBox="0 0 270 250" xml:space="preserve"><style>.st0{fill:#882f40}.st1{fill:#e87891;stroke:#000;stroke-width:.2}.st3{fill:#40689d}</style><path class="st0" d="M194.9 220.5l-10.6-5.7c.7-.1 1.4-.3 2-.6l10.6 5.6c-.6.3-1.3.5-2 .7"/><path class="st0" d="M196.9 219.8l-10.6-5.6c.4-.2.8-.4 1.1-.6l10.6 5.7c-.4.2-.7.4-1.1.5"/><path class="st0" d="M196.6 221.7l-11-7.1c1.9-.9 2.5-1.5 2.8-1.7l16 1.9c-.3.2-7.5 6.7-7.8 6.9z"/><path class="st0" d="M198.9 218.6l-10.6-5.7c.3-.2 3.5-3.6 3.8-3.9l7.5 8.9c-.2.3-.5.5-.7.7"/><path class="st0" d="M199.6 217.9l-10.6-5.7c.2-.2.4-.5.6-.8l10.6 5.7c-.2.3-.4.5-.6.8z"/><path class="st0" d="M200.2 217.1l-10.6-5.7.6-.9 10.6 5.7-.6.9z"/><path class="st0" d="M200.8 216.2l-10.6-5.6c.2-.4.4-.7.5-1.1l10.6 5.7c-.2.4-.3.8-.5 1"/><path class="st0" d="M201.9 218.3l-12.1-6.5c.3-.9 1.5-4.4 1.5-5.4l10.6 5.7c-.1 1 .3 5.3 0 6.2zm-21 6.6l-6.1-8.8 9.6-1.4 16.1 5.9-19.6 4.3z"/><path class="st0" d="M181.7 221.2l-10.6-5.7h.2l10.6 5.7h-.2z"/><path class="st0" d="M181.9 221.3l-10.6-5.7c.3.2.7.3 1.1.4l10.6 5.7c-.4-.1-.8-.2-1.1-.4zm1.1.4l-10.6-5.7c.8.2 1.5.2 2.3.1l10.6 5.7c-.8.1-1.6.1-2.3-.1zm18.8-3.8l-10.5-11.5.1-52.8 10.5 5.7-.1 58.6zm-24.5 11.4l-10.5-5.7c-2.2-1.3-4-3.2-5.2-5.4s-1.8-4.8-1.7-7.3l10.6 5.7c-.1 2.6.5 5.1 1.7 7.3 1.1 2.3 2.9 4.1 5.1 5.4"/><path class="st0" d="M201.9 163.7l-10.5-10.1c0-.6.1-1.2.3-1.8l15.4 2.4c-.2.6-5.2 8.9-5.2 9.5z"/><path class="st0" d="M202.2 157.6l-10.6-5.7c.4-1.9 3-3.5 4.5-3.4l6.3 8.4c.1.2-.1.5-.2.7"/><path class="st0" d="M202.5 156.9l-10.5-5.7.3-.6 10.5 5.7c.1.2-.2.4-.3.6"/><path class="st0" d="M202.9 156.4l-10.5-5.7c.1-.2.2-.3.4-.5l10.6 5.7c-.3.1-.4.3-.5.5z"/><path class="st0" d="M203.3 155.9l-10.6-5.7c.1-.2.3-.3.4-.4l10.6 5.7c-.2.1-.3.2-.4.4z"/><path class="st0" d="M203.7 155.5l-10.6-5.7c.2-.1.3-.3.5-.4l10.5 5.8-.4.3m.5-.4l-10.5-5.8.7-.4 10.5 5.7-.7.5"/><path class="st0" d="M201.9 163.7l-7.6-14.8c.4-.2.8-.3 1.2-.3.5-.1.9-.1 1.4 0l10.5 5.7c-.1 0 1.1 1 1 1-.3 0-2-.1-2.3 0-.4 0-3.8 8.2-4.2 8.4z"/><path class="st0" d="M207.4 154.4l-10.5-5.7c.2.1.4.1.6.2l10.6 5.7c-.2-.1-.4-.2-.7-.2zm.7.2l-10.6-5.7 10.6 5.7zm-4.3-7.2l-10.6-5.7c-.6-.4-1.5-1.1-1.7-1.8-.4-1.6-.2-8.8-.2-9.5l11.9 13.7c0 .7.6.8.9 1.4.3.6-.1 1.5.5 1.9m-58.4 79.9l-10.6-5.7c.7-.1 4.7-1.4 7.9-5.1l4.6 10.3c-.6.2-1.3.4-1.9.5z"/><path class="st0" d="M148.1 226.7l-10.4-5.7c.4-.2.8-.4 1.1-.6l10.4 5.7c-.3.2-.7.4-1.1.6z"/><path class="st0" d="M149.3 226.1l-10.6-5.7c.3-.2.6-.4.8-.6l10.6 5.7c-.3.2-.5.5-.8.6"/><path class="st0" d="M149.1 226.7l-9.6-6.9.7-.7 15.4 1.1c-.2.2-5.3 5.1-5.5 5.3"/><path class="st0" d="M150.8 224.7l-11.5-4.5c.9-.9 1.4-1.7 1.6-2l10.6 5.7c-.3.3-.5.6-.7.8z"/><path class="st0" d="M151.4 223.9l-10.6-5.7c.2-.3 1.4-2.1 1.5-3.5l9.6 8.4c-.1.2-.3.5-.5.8z"/><path class="st0" d="M152 223l-10.6-5.7c.2-.4.4-.8.5-1.2l10.6 5.7c-.1.5-.3.8-.5 1.2z"/><path class="st0" d="M150.1 231l-8.1-14.9c.3-.9.5-1.9.5-2.9l11.6 1.3c1.1 2.2-3.7 15.6-4 16.5z"/><path class="st0" d="M135 231l-11.1-7.7 11.7-1.6 18.2 4.7L135 231z"/><path class="st0" d="M131.9 228.5l-10.6-5.7h.1l10.5 5.7z"/><path class="st0" d="M132.1 228.6l-10.6-5.7c.2.1.5.2.7.3l10.6 5.7c-.3-.1-.5-.2-.7-.3z"/><path class="st0" d="M131.4 229.5l-9.1-6.4c.5.1 1.1.1 1.6 0l26.7 4c-.5.1-16.3 3.4-16.8 3.3m68.1-86.5l-10.6-5.8.1-62.6 15-.6-2.7 69.1-1.8-.1zm-74.4 92.8l-10.6-5.7c-1.9-1.1-3.5-2.7-4.5-4.6-1.1-1.9-1.6-4.1-1.5-6.3 0-.6.1-1.2.3-1.8l11.3 5.7c-.2.6 0 1.3 0 1.9-.1 2.2-.1 4.1.9 6.1 1.1 1.8 2.1 3.6 4.1 4.7"/><path class="st0" d="M121.6 227.7l-10.7-7.5c0-2.3.9-3.3 1.4-3.3l14.5 4.7c-.2.2-5.1 5.8-5.2 6.1z"/><path class="st0" d="M122.1 223.3l-10.6-5.8.3-.5 10.6 5.7c-.1.2-.2.3-.3.6m.4-.6l-10.6-5.7c.1-.2.2-.3.4-.5l10.6 5.7c-.2.2-.3.4-.4.5z"/><path class="st0" d="M122.8 222.3l-10.6-5.7.4-.4 10.6 5.7c-.1.1-.3.2-.4.4"/><path class="st0" d="M123.2 221.8l-11.9-4c.9-1.9 2.3-2.8 3.7-2.8l8.8 6.4-.6.4"/><path class="st0" d="M123.8 221.4l-10.5-5.7c.2-.1.4-.3.6-.4l10.6 5.7c-.2.2-.5.3-.7.4z"/><path class="st0" d="M124.8 221.6l-11-6.3c.4-.2.8-.3 1.2-.4.5-.1 1-.1 1.4 0l11.2 6.2c-.5-.1-1.4-.1-1.9 0-.3.1-.5.3-.9.5zM203 82.5l-11.5-6.9c0-1.2-.2-2.3-.8-3.4-.6-1-1.4-1.9-2.4-2.5l11.7 4.8c1 .6 1.8 1.4 2.4 2.5.6 1 .6 4.3.6 5.5z"/><path class="st0" d="M123.4 219.8l-10.6-5.7c-.6-.4-1.1-.9-1.4-1.5s-.5-1.3-.5-2l10.6 5.7c-.1.7.1 1.4.4 2.1.4.5.9 1 1.5 1.4zM195.2 66l-10.6-5.7c1.7-.3 3.5-.2 5.2.3l13.4 6.8c-1.6-.5-6.2-1.7-8-1.4z"/><path class="st0" d="M200.4 66.2l-10.6-5.7c.8.2 1.6.5 2.3.9l10.6 5.7c-.7-.3-1.5-.6-2.3-.9zm2.4.9l-10.6-5.7.5.2 10.6 5.7c-.2-.1-.3-.2-.5-.2m-49.7 151.8l-10.6-5.7.1-84.5 10.6 5.7-.1 84.5zm28.1-147.8l-6.1-9.5 9.6-1.3 14.2 6.2-17.7 4.6z"/><path class="st0" d="M154.4 139.1l-11.8-10.3c.1-1.2-.2-2.3-.8-3.3s-1.4-1.9-2.4-2.5l10.5 5.7c1 .6 1.8 1.4 2.4 2.5.7 1 2.2 6.7 2.1 7.9zm22.3 89l-17-17.3.2-130.8 15.2-1.4 1.6 149.5z"/><path class="st0" d="M165.5 102.4L160 80.1c0-2.2.4-4.3 1.2-6.4l14.6 1.8c-.8 2-10.3 24.7-10.3 26.9z"/><path class="st0" d="M171.7 79.3l-10.6-5.7c.3-.9.7-1.7 1.1-2.5l10.6 5.7c-.4.8-.8 1.7-1.1 2.5zm1.1-2.5l-10.6-5.7c.4-.7.8-1.4 1.2-2l10.6 5.7c-.4.6-.8 1.3-1.2 2zm1.2-2l-10.6-5.7c.4-.6.9-1.2 1.4-1.7l10.6 5.7c-.5.5-1 1.1-1.4 1.7zm1.4-1.7l-10.6-5.8c.5-.6 1-1.1 1.6-1.6l10.7 5.8c-.5.5-1.1 1-1.7 1.6"/><path class="st0" d="M177.1 71.5l-10.6-5.7c.6-.5 1.2-1 1.8-1.4l10.6 5.7c-.6.4-1.3.9-1.8 1.4z"/><path class="st0" d="M178.8 70.1l-10.6-5.7c.8-.5 1.6-1 2.5-1.4l10.5 5.7c-.8.3-1.6.8-2.4 1.4z"/><path class="st0" d="M170 76.5l.7-13.6c1.4-.7 2.9-1.1 4.4-1.3l10.5 5.7c-1.5.2-5.7 6.1-7.1 6.7"/><path class="st1" d="M195.2 66.1c8.2-1.2 15 5.1 15 14.1v62.6c0 1.2-.4 2.3-1.1 3.2-.7.9-1.8 1.5-2.9 1.7-.5.1-1.1 0-1.6-.1-.5-.2-1-.4-1.3-.8-.4-.4-.7-.8-.9-1.3s-.3-1-.2-1.5V81.3c.1-.9-.1-1.8-.4-2.7-.3-.9-.9-1.6-1.5-2.3-.7-.6-1.5-1.1-2.4-1.4s-1.8-.3-2.7-.2l-9.6 1.3c-2 .4-3.8 1.4-5 3-1.3 1.5-2 3.5-2 5.5l-.3 130.8c-.1.9.1 1.8.4 2.7.3.9.9 1.6 1.5 2.3.7.6 1.5 1.1 2.4 1.4.9.3 1.8.3 2.7.2l9.6-1.4c2-.4 3.8-1.4 5-2.9 1.3-1.5 2-3.5 2-5.5l.1-52.8c0-1.2.4-2.3 1.1-3.2.7-.9 1.8-1.5 2.9-1.7.5-.1 1.1 0 1.6.1.5.2 1 .4 1.3.8.4.4.7.8.9 1.3s.3 1 .2 1.5V211c0 8.9-6.9 17.1-15.1 18.4l-9.6 1.3c-8.3 1.2-15-5.1-15-14l.1-130.9c0-4.3 1.5-8.5 4.2-11.9 2.8-3.4 6.6-5.6 10.8-6.5l9.8-1.3z"/><path class="st0" d="M146.3 119.2l-12.6-5.4c4.2-.9 5.8-.4 7.5 0l10.4 5.7c-1.7-.5-3.5-.6-5.3-.3"/><path class="st0" d="M141.7 121.7l-.6-8c.8.2 1.6.5 2.3.9l10.6 5.7c-.7-.4-7.3.2-8.1 0"/><path class="st0" d="M153.9 120.3l-10.6-5.7.5.2 10.6 5.6-.5-.1"/><path d="M199.7 28.8L185 23.1c-.6-.4-1.1-.9-1.5-1.5l10.2 5.8c4.3 3.3 5.3 1.1 6 1.4z" fill="#2f527f"/><path class="st0" d="M133 123.9l-6.8-9.2 9.6-1.3 14.9 7.1-17.7 3.4z"/><path class="st3" d="M194.6 10.8L184 5.1c.3.1.5.2.7.3l10.6 5.7c-.2-.1-.5-.2-.7-.3z"/><path class="st3" d="M193.5 12.9l-12.1-7.5c1-.3 1.5-.5 2.7-.4l10.5 5.7-1.1 2.2z"/><path class="st3" d="M192.7 10.8l-10.6-5.7c.5-.1.9-.1 1.4 0l10.6 5.7c-.5-.1-1-.1-1.4 0z"/><path class="st3" d="M192.2 10.9l-10.6-5.7.5-.1 10.6 5.7-.5.1z"/><path class="st0" d="M123 218.2l-12-7.4.1-77.7 19.1-11.9-7.2 97z"/><path class="st3" d="M190.9 11.7L180.3 6l.3-.2 10.6 5.7-.3.2m.3-.3l-10.6-5.7.6-.3 10.6 5.7-.6.3zm.6-.3l-10.6-5.7.4-.2 10.6 5.7-.4.2"/><path class="st0" d="M121.6 138.9l-10.6-5.8c0-2.2.4-4.3 1.2-6.4l10.6 5.7c-.8 2.2-1.1 4.3-1.2 6.5"/><path class="st0" d="M119.3 142.8l-7-16c.3-.9.7-1.7 1.2-2.5l24-4.8c-.5.7-17.9 22.4-18.2 23.3z"/><path class="st0" d="M124 130l-10.6-5.7c.4-.7.8-1.4 1.2-2l10.6 5.7c-.5.6-.9 1.3-1.2 2z"/><path class="st0" d="M125.2 128l-10.6-5.7c.4-.6.9-1.2 1.4-1.7l10.6 5.7c-.6.5-1.1 1.1-1.4 1.7"/><path class="st0" d="M126.5 126.3l-10.6-5.8c.5-.6 1-1.1 1.6-1.6l10.6 5.7c-.5.5-1.1 1-1.6 1.7"/><path class="st0" d="M123 135.7l-8.9-12.6c2.3-4.2 4.6-5.1 5.3-5.6l23.7 2.8c-.7.4-19.5 14.9-20.1 15.4z"/><path class="st0" d="M121.6 132.7l-2.2-15.2c.8-.5 1.6-1 2.5-1.4l10.6 5.7c-1 .4-10.1 10.4-10.9 10.9z"/><path class="st0" d="M124.2 131.5l-2.3-15.4c1.4-.7 2.9-1.1 4.4-1.3l19.1 6.5c-1.5.2-13 2.5-14.4 3.1"/><path class="st3" d="M190.5 12L180 6.3c.7-.7 1.1-1 1.8-.8l11.2 6.1-2.5.4z"/><path class="st1" d="M146.4 119.3c8.3-1.2 15 5.2 15 14.1l-.2 84.5c0 8.9-6.8 17.2-15.1 18.4l-11.7 1.7c-7.1 1-12.8-4.4-12.8-12.1 0-1.2.4-2.3 1.1-3.2s1.8-1.5 2.9-1.7c.5-.1 1.1 0 1.6.1.5.2 1 .4 1.3.8.4.4.7.8.9 1.3.2.5.3 1 .2 1.5 0 .6.1 1.2.3 1.8.2.6.6 1.1 1 1.5.5.4 1 .8 1.6 1 .6.2 1.2.3 1.8.2l11.7-1.6c2-.4 3.8-1.4 5-3 1.3-1.5 2-3.5 2-5.5l.1-84.5c.1-.9-.1-1.8-.4-2.7-.3-.9-.9-1.6-1.5-2.3-.7-.6-1.5-1.1-2.4-1.4-.9-.3-1.8-.3-2.7-.2l-9.6 1.3c-2 .4-3.7 1.4-5 3-1.3 1.5-2 3.5-2 5.5v77.4c0 1.2-.4 2.3-1.1 3.2s-1.8 1.5-2.9 1.7c-.5.1-1.1 0-1.6-.1-.5-.2-1-.4-1.4-.8-.4-.4-.7-.8-.9-1.3-.2-.5-.2-1-.2-1.6l.1-77.3c0-4.3 1.5-8.5 4.2-11.9 2.7-3.4 6.6-5.6 10.8-6.5l9.9-1.3z"/><path class="st3" d="M182 23.5l-11.5-8.3 9.5-9 14.6 5.8L182 23.5zM70.2 132.7l-8.5-3.8c-.5-.3-1.8-2-2.1-2.5s-.5-1.2-.5-1.8c0-.7.1-1.4.3-2.1l20 1.2c-.3.7-9.8 5.2-9.8 5.9 0 .6.1 1.2.4 1.8.3.5-.4 1 .2 1.3z"/><path class="st3" d="M69.9 128.3l-10.6-5.6c.1-.3.2-.6.3-.8l10.6 5.7c-.1.2-.2.4-.3.7zm.3-.7l-10.6-5.7.3-.6 10.6 5.7c0 .2-.1.4-.3.6m.3-.6l-10.6-5.7c.1-.2.2-.3.4-.5l10.5 5.7-.3.5"/><path class="st3" d="M70.8 126.5L60 121.1c.4-.6.6-.7.7-.8l10.6 5.7c-.2.2-.4.3-.5.5"/><path class="st3" d="M69.7 130.1l-9-9.6c.2-.2.4-.3.6-.4l10.5 5.7c-.2.1-1.9 4.1-2.1 4.3z"/><path class="st3" d="M71.8 125.8l-10.7-5.6c.6-.6 1.6-.8 1.9-.9l9.6 5.9c-.3.3-.5.4-.8.6"/><path class="st3" d="M59.4 122.5l1.1-1.9c.4-.5 2-1.2 2.3-1.2 10.9-2.5 21.5-6.2 31.6-11.1h29.5c-10.1 4.9-39.6 14.3-50.6 16.8l-.9.3"/><path class="st3" d="M105.7 116.1l-11.2-7.8c8.8-4.1 17.3-9 25.3-14.5l35.9-9.2c-8.1 5.5-41.2 27.3-50 31.5z"/><path class="st3" d="M118.6 111.9l1.2-18.1c5.8-4 11.3-8.3 16.5-13l10.6 5.7c-5.3 4.7-22.5 21.4-28.3 25.4z"/><path class="st3" d="M147.5 88.5l-11.3-7.7c4.2-3.8 8.2-7.8 12-12.1L163 74c-3.8 4.3-11.3 10.7-15.5 14.5z"/><path class="st3" d="M158.5 76.5l-10.2-7.8c3.4-3.8 6.6-7.9 9.5-12.1l25.3-9.6c-3 4.2-21.2 25.7-24.6 29.5z"/><path class="st3" d="M156.6 83l1.2-26.4c3-4.2 5.7-8.6 8.1-13.2l21.3-5.3c-2.5 4.6-27.6 40.7-30.6 44.9z"/><path class="st3" d="M176.5 49.2l-10.6-5.7c2.9-5.3 5.3-10.8 7.4-16.5h17c-2.1 5.7-9.6 18.4-12.5 23.7"/><path class="st3" d="M184 32.7L173.4 27c.6-1.7 1.2-3.3 1.7-5.1l10.6 5.7c-.6 1.9-1.2 3.5-1.7 5.1z"/><path class="st3" d="M181.3 28.2l-10.5-5.7c-.4-.2-.8-.6-1.1-.9-.4-.6-.7-1.3-.8-2.1-.1-.7 0-1.5.3-2.2l10.6 5.7c-.3.7-.4 1.5-.3 2.2.1.7.4 1.5.8 2.1.2.4.6.7 1 .9z"/><path class="st3" d="M181.7 28l-12.6-10.7c0-.2.2-.5.3-.7l14.1 5c-.1.2-1.7 6.1-1.8 6.4z"/><path class="st3" d="M180 22.3l-10.8-2c-.5-1.9-.5-3.3.6-4.4l10.6 5.7c-.2.3-.3.4-.4.7"/><path class="st3" d="M180.3 21.8l-11.1-4.7c.3-.6.4-1 .9-1.5l10.6 5.7-.4.5"/><path class="st3" d="M179.9 22.7l-9.8-7.1 1.4-1.3 9.3 6.5c.4-.2.6.4.5.5"/><path class="st0" d="M88.9 238l-4.9-9.1c.7-.1 3.9-.6 6.1-4.8l9.8 8.4c-.7.2-10.3 5.4-11 5.5z"/><path class="st0" d="M96.5 234L86 228.2c.4-.2.8-.4 1.1-.6l10.6 5.7c-.4.3-.8.5-1.2.7z"/><path class="st0" d="M97.6 233.3L87 227.6c.3-.2.6-.4.8-.6l10.6 5.7c-.2.2-.5.4-.8.6zm.9-.6L87.9 227l.7-.7 10.5 5.7c-.1.2-.4.4-.6.7zm.7-.7l-10.5-5.7c.2-.2.4-.5.6-.8l10.6 5.7c-.3.2-.5.5-.7.8z"/><path class="st0" d="M87.5 242.6l1.7-17.2.6-.9 13.5 5.5c-.1.3-15.6 12.3-15.8 12.6z"/><path class="st0" d="M100.3 230.3l-10.5-5.7c.2-.4.4-.8.5-1.2l10.6 5.7c-.2.3-.3.7-.6 1.2"/><path class="st0" d="M102.9 231.4l-13.5-5.2c2-4.3 1.5-7.5 1.5-8.5h12.5c0 1 .3 11.4 0 12.4m-16.8 9.7l-12.1-9.6 9.6-1.3 10.6 5.7-8.1 5.2z"/><path class="st0" d="M81.3 235.3l-10.5-5.7h.2l10.5 5.7h-.2z"/><path class="st0" d="M81.5 235.4L71 229.7c.3.2.7.3 1.1.4l10.5 5.7c-.4-.1-.8-.2-1.1-.4z"/><path class="st0" d="M82.6 235.8L72 230.1c.8.1 1.5.1 2.3 0L85 236c-.8.1-1.5.1-2.3 0"/><path class="st0" d="M76.9 243.4l-10.6-5.7c-2.2-1.3-4-3.2-5.2-5.4s-1.8-4.8-1.7-7.3l12-.6c-.1 2.6-1 11.4.2 13.7 1.3 2.1 3.1 4 5.3 5.3zm26.5-15.3l-12.5-7.6.1-66 12.4-3v76.6z"/><path class="st0" d="M101.5 160.3L91 154.6c0-1.2-.2-2.3-.8-3.4s-1.4-1.9-2.4-2.5l10.6 5.7c1 .6 1.8 1.4 2.4 2.5.5 1.1.8 2.2.7 3.4M94.7 145l-10.6-5.7c1.7-.3 3.5-.2 5.2.3l10.6 5.7c-1.7-.5-3.5-.6-5.2-.3z"/><path class="st0" d="M90.6 146l-1.2-6.5c.8.2 1.6.5 2.3.9l10.6 5.7c-.7-.4-2.1.8-2.9.6"/><path class="st0" d="M102.3 146.1l-10.6-5.7.5.3 10.6 5.7-.5-.3zm-32.5 84.5l-10.5-5v-56.1l10.6 5.7-.1 55.4zm14.7-84.2L74 140.6l10.2-1.4 13.8 5.7-13.5 1.5z"/><path class="st0" d="M69.8 177.4l-10.5-7.9c0-.6.3-1.7.7-2.4l13 3.9c-.2.6-2.6 5.8-2.6 6.4"/><path class="st0" d="M70.1 176l-10.4-8.2c.1-.2.2-.5.3-.7l11.8 4.3c-.1.2-1.5 1.9-1.6 2.2"/><path class="st0" d="M70.6 172.8L60 167.1c.1-.2.5-.7.8-.8l10.1 6.1c-.1.2-.3.4-.3.6"/><path class="st0" d="M70.7 173.5l-10.3-6.8c.1-.2 1.4-1.6 2.8-2l11.2 6.1c-.1.1-3.4 1.5-3.5 1.7"/><path class="st0" d="M71.3 171.8l-10.4-5.3.4-.4 10.4 5.3c-.1 0-.3.2-.4.4m.4-.5l-9.9-5.3c.2-.1.3-.3.5-.4l9.9 5.4c-.2.1-.3.2-.5.3"/><path class="st0" d="M72.2 171l-10.4-5.4.7-.4 10.4 5.4-.7.4z"/><path class="st0" d="M72.9 170.6l-10.6-5.5c.4-.2.9-.5 1.4-.6s.9-.1 1.4 0l11.2 6.2c-.5-.1-1.6-.5-2.1-.5-.5.1-.9.2-1.3.4z"/><path class="st0" d="M75.5 170.3L65 164.6c.2.1.4.1.6.2l10.6 5.7c-.2-.1-.5-.1-.7-.2zm-3.6-2.8l-10.6-5.7c-.6-.4-1.1-.9-1.4-1.5-.3-.6-.5-1.3-.5-2 0-2.1.4-4.2 1.1-6.1l10.6 5.7c-.7 2-1.1 4-1.1 6.1 0 .7.1 1.4.5 2 .3.7.8 1.2 1.4 1.5z"/><path class="st0" d="M70.3 161.2l-9.8-9c.3-.8.7-1.7 1.1-2.4l16.1.3c-.3.7-7.1 10.3-7.4 11.1z"/><path class="st0" d="M72.2 155.5l-10.5-5.7c.4-.7.7-1.3 1.2-1.9l10.6 5.7c-.6.6-.9 1.2-1.3 1.9z"/><path class="st0" d="M73.4 153.6l-10.6-5.7c.4-.6.8-1.1 1.3-1.7l10.6 5.7c-.5.5-.9 1.1-1.3 1.7z"/><path class="st0" d="M61.7 149.8l2.5-3.6 1.5-1.5 15.5.8c-.5.5-6 6-6.4 6.5"/><path class="st0" d="M76.2 150.5l-10.5-5.8c.6-.5 1.1-1 1.8-1.4l10.6 5.7c-.8.4-1.4.9-1.9 1.5"/><path class="st0" d="M64.5 154.4l2.9-11.1c.7-.5 1.5-1 2.3-1.4l20.9 2.8c-.8.4-11.8 3.8-12.6 4.3"/><path class="st0" d="M76.3 154.4L69.8 142c1.3-.6 2.8-1.1 4.2-1.3l16.8 5.3c-1.5.2-7.5 3.1-8.9 3.7"/><path class="st1" d="M94.7 145.1c8.3-1.2 15 5.1 15 14l-.1 65.9c0 8.9-6.8 17.1-15.1 18.4l-9.6 1.3c-8.3 1.2-15-5.2-15-14.1l.1-55.4c0-1.2.4-2.3 1.1-3.2.7-.9 1.8-1.5 2.9-1.7.5-.1 1 0 1.5.1.5.2 1 .4 1.3.8.4.4.7.8.9 1.3.2.5.3 1 .2 1.5v55.4c-.1.9.1 1.8.4 2.7s.9 1.6 1.5 2.3c.7.6 1.5 1.1 2.4 1.4.9.3 1.8.3 2.7.2l9.6-1.3c2-.4 3.7-1.4 5-3 1.3-1.5 2-3.5 2-5.5l.1-65.9c.1-.9-.1-1.8-.4-2.7s-.9-1.6-1.5-2.3c-.7-.6-1.5-1.1-2.4-1.4-.9-.3-1.8-.3-2.7-.2l-10.4 1.4c-1.8.4-3.4 1.3-4.6 2.7s-1.8 3.2-1.8 5c0 1.2-.4 2.3-1.1 3.2s-1.8 1.5-2.9 1.7c-.5.1-1.1 0-1.6-.1-.5-.2-1-.4-1.3-.8-.4-.4-.7-.8-.9-1.3-.2-.5-.3-1-.2-1.5 0-4.1 1.4-8.2 4.1-11.4 2.6-3.2 6.3-5.4 10.3-6.2l10.5-1.3z"/><path d="M186.4 27.6c0 .1 0 .1-.1.2.1 0 .1-.1.1-.2zm0 0c-.1 0-.1.1-.1.1s.1 0 .1-.1zm7.9.2C171.7 94.6 119.9 119.6 81 131.6c-6.2 1.9-6.9 1.4-10 1.2-4.5-.3-4.9-6.1-.5-7.2l2.9-.6 4.7-1.1c89.8-25.8 108.4-96.2 108.4-96.2-3.2 2.1-4.7.3-4.7.3-4.7-4.4 1.4-8.2 1.4-8.2l10.4-8.9c1.1-.1 2.1.4 2.5 1.4 1.4 2.8 4.5 9.1 5.2 11.3 1.5 4.7.3 5.1-.2 5.7-2.8 3.4-6.8-1.5-6.8-1.5z" fill="#b4d1fa" stroke="#000" stroke-width=".2"/></svg>