<svg version="1.1" id="Слой_1" xmlns="http://www.w3.org/2000/svg" x="0" y="0" viewBox="0 0 250 250" xml:space="preserve"><style>.st0{fill:#335786}.st1{fill:#b4d1fa;stroke:#000;stroke-width:.2}.st2{fill:#40689d}.st3{fill:#9a384b}.st4{fill:#e87891;stroke:#000;stroke-width:.2}</style><path class="st0" d="M110.8 115.3l-.8 4.2L10 94.2l5.5-15.4 7.7-2.3c6.4-.5 8.2 7.7 3.6 10.5l-7.3 3.2 91.3 25.1zM8.9 101.9l8-.9 5.1 5.9-7.8 2.2-5.3-7.2z"/><path class="st0" d="M14.1 109.1l6.7-3.2 1.6 1.6-7.8 2.2c-.1-.2-.3-.4-.5-.6"/><path class="st0" d="M14.6 109.7l6.4-4.2c.1.2 1.6 2 1.9 2.7l-7.8 2.2c-.2-.2-.4-.5-.5-.7"/><path class="st0" d="M15 106.9l7.9 1.4c.1.3.5.9.6 1.2l-7.3 5.2c-.1-.3-.9-4-1.1-4.3"/><path class="st0" d="M15.4 111.4l7.8-2.2c0 .2.1.3.1.5l-11 8.1c-2.3-.9 3.2-6.3 3.1-6.4z"/><path class="st0" d="M15.5 111.9l7.8-2.2v.4l-7.8 2.2v-.4z"/><path class="st0" d="M15.5 112.3l7.8-2.2v.4l-7.8 2.2c.1-.1.1-.2 0-.4m.1.4l7.8-2.2v.4l-7.8 2.2v-.4"/><path class="st0" d="M15.6 113.1s6.7-5.8 7.7-3.9c1.1 2.1-1 5.1-1 5.1l-6.7-.8v-.4"/><path class="st0" d="M15.6 113.5l7.8-2.2v.3l-7.8 2.2v-.3"/><path class="st0" d="M15.5 113.8l7.8-2.1-.3.5-7.6 2v-.4"/><path class="st0" d="M15.5 114.1l7.8-2.2-.3.5-7.6 2v-.3h.1z"/><path class="st0" d="M15.4 114.4l7.3-3 .1 1.3-7.4 2v-.3"/><path class="st0" d="M15.3 114.7l7.8-2.2c0 .1-.1.2-.1.3l-7.8 2.2c0-.1 0-.2.1-.3"/><path class="st0" d="M15.2 115l7-2.3c0 .1.3-1 .2-.9l-7.4 3.6c.2-.2.2-.3.2-.4"/><path class="st0" d="M15.1 115.3l7.4-3.3c0 .1-.1 1.5-.2 1.6l-7.4 2c.1 0 .2-.2.2-.3"/><path class="st0" d="M15 115.6l7.6-3.1-.3 1.1-7.5 2.3.2-.3"/><path class="st0" d="M15 114.6l8.2-5c0 .1-.9 4.5-1 4.6l-7.6 2.1.4-1.7z"/><path class="st0" d="M14.5 116.3l7.9-2.3c-.2.3-.3.4-.4.6l-7.8 2.2c.1-.2.2-.4.3-.5z"/><path class="st0" d="M18.7 112.9l3.3 1.6c-.6.6-1.2 1.2-2 1.4-3.6 1.1-5.6 1.7-8.6 1.8 1.4-.9.9-1.4 2.7-1"/><path class="st1" d="M17.6 78.9c.8.2 1.6.7 2.2 1.2.6.6 1.1 1.3 1.4 2.1.3.6.5 1.3.5 2s-.1 1.4-.3 2c-.2.7-.6 1.2-1.1 1.8-.5.5-1 .9-1.7 1.2l-6.9 2.9-.3.1.3.1 96.9 26-6.2 8.7L10 102.7l-.3-.1.2.2 5.1 5.9c.9 1 1.4 2.4 1.4 3.8s-.5 2.7-1.4 3.8c-.5.6-1.2 1-2 1.2s-1.6.2-2.3 0c-1-.3-1.9-.8-2.6-1.6L-8.5 96.8c-.6-.7-1-1.4-1.2-2.3-.2-.8-.3-1.7-.1-2.6.1-.8.4-1.6.9-2.2s1.2-1.2 1.9-1.5L14.6 79c.9-.4 2-.4 3-.1z"/><path class="st2" d="M83 218.9l-8.6-4.7 2.8 1.5 8.6 4.7c-.9-.5-1.8-1-2.8-1.5z"/><path class="st2" d="M85.8 220.4l-8.6-4.7c4.7 2.3 9.6 4.1 14.7 5.4l8.6 4.7c-5-1.3-10-3.1-14.7-5.4"/><path class="st2" d="M100.5 225.8l-8.6-4.7c10.5 2.7 21.4 3.2 32.1 1.7 9.4-1.3 18.6-4.1 27.2-8.2l8.6 4.7c-8.6 4.1-17.7 6.8-27.2 8.2-10.7 1.5-21.6.9-32.1-1.7"/><path class="st2" d="M149.2 228.9l2-14.3c5.3-2.5 10.4-5.4 15.2-8.7l37.1-12.2c-4.8 3.3-39.1 26-44.4 28.4"/><path class="st2" d="M174.9 210.6l-14.8-.6c4.7-2.8 13.8-9.8 17.4-12.9l10.1 4.4c-3.5 3.1-8.8 6.4-12.7 9.1"/><path class="st2" d="M186.2 201.7l-19.3 3.7c6-4 17.2-14.6 20.2-17.9l10.8 2.9c-3.1 3.4-8.4 8.3-11.7 11.3"/><path class="st2" d="M195.6 192.1l-9.7-3.4c3-3.4 12.7-15.8 15-20.5l4 13c-2.5 3.6-5.9 8-9.3 10.9z"/><path class="st2" d="M204 181.5l-8.6-4.7c2.8-3.9 5.3-8 7.6-12.3l9.6 4.8c-2.3 4.2-5.7 8.7-8.4 12.7"/><path class="st2" d="M212.1 169.7l-9.2-5.3c2.7-5 5.1-10.3 7.1-15.6l9.3 4.4c-2 5.4-4.5 11.5-7.2 16.5z"/><path class="st2" d="M218.6 153.5l-8.6-4.7c4.7-12.6 7.1-26 7.1-39.5 0-35.7-17.1-64.6-43.1-78.7l9.4 4c26 14.1 42.7 44.1 42.7 79.8 0 13.5-2.5 26.6-7.2 39.3"/><path class="st2" d="M175.2 31.7l-8.6-4.7c-.9-.5-1.5-1.4-1.8-2.3-.3-1-.3-3.3 1.8-4.9l8 7.2c-.4.9-.3 1.1 0 2.1s.2 2.1 1.1 2.6"/><path class="st2" d="M173.3 27.4l-8.6-4.4c.1-.1.4-1.5.5-1.6l.5-.7 9.3 5.5-.4.4-1.3.8z"/><path class="st2" d="M175 26.6l-9.7-5.1c.2-.5.3-.8.8-1.3l9.3 5.5-.4.9z"/><path class="st2" d="M174.2 25.2l-8.5-4.5.8-.8 11.4 4.2c-.1.1-3.5.9-3.7 1.1"/><path class="st2" d="M174.5 24.9l-8.4-4.7.4-.4 8.9 4.6c-.1.1-.3.7-.4.8"/><path class="st2" d="M175.4 24.5l-8.9-4.6.5-.4 8.8 4.6-.4.4z"/><path class="st2" d="M175.8 24.5l-9.3-4.6c.4-.4.9-.7 1.1-.8l9.5 4.6c-.3 0-1.1.6-1.3.8z"/><path class="st2" d="M176.2 23.5l-9.7-3.7c1.3-1.3 2.7-1.4 3.7-1.4l9.4 5.2c-.5-.1-1.2.3-1.7.4-.4.1-.5-.2-.8 0"/><path class="st2" d="M178.8 23.2l-9.8-4.7c.7-.1 1.3-.2 1.7 0 1.6.7 3.1 1.5 4.7 2.3l11.3 6.2c-1.6-.8-6.8-1-8.4-1.7l.5-2.1m5.3 2.3l-8.6-4.7c1 .5 2 1 3 1.6l8.3 4.6c-1-.5-1.7-1-2.7-1.5M133 17.8l-8.6-4.7c.5-.1 1-.1 1.4 0l8.6 4.7c-.4-.1-.9-.1-1.4 0"/><path class="st2" d="M134.5 17.9l-8.6-4.7c.2.1.5.1.7.2l8.6 4.7c-.3-.1-.5-.2-.7-.2z"/><path class="st2" d="M126.5 21l-1.4-8c.6-.1.9 0 1.5.4l8.6 4.8.4.4m-57 208.5l-8.6-4.7c-28.3-15.4-47-46.9-47-85.8.1-14.7 2.7-29.2 7.8-43l8.6 4.8c-5.1 13.8-7.7 28.3-7.8 42.9 0 38.9 18.7 70.4 47 85.8zM39.4 98.4l-8.6-4.8c2.2-5.9 4.7-11.6 7.7-17.1l8.6 4.8c-3 5.5-5.6 11.2-7.7 17.1"/><path class="st2" d="M46 91.8l-7.6-15.2c2.5-4.6 5.2-9.1 8.2-13.4l17.9-4.3c-3 4.3-15 17.8-17.5 22.5"/><path class="st2" d="M55.3 67.9l-8.6-4.7c2.8-4 5.9-7.9 9.1-11.6l18.9-2.7c-3.3 3.7-16.6 15-19.4 19"/><path class="st2" d="M64.4 56.3l-8.6-4.7c3.2-3.7 6.7-7.1 10.3-10.4l18.9-.7c-3.6 3.2-17.3 12.1-20.6 15.8"/><path class="st2" d="M74.8 45.9l-8.6-4.7c3.9-3.5 7.9-6.7 12.2-9.7l10.1 4.4c-4.4 2.9-9.9 6.5-13.7 10z"/><path class="st2" d="M87 36.2l-8.6-4.7c5.2-3.6 10.7-6.8 16.5-9.5l8.6 4.7c-5.8 2.7-11.3 5.9-16.5 9.5"/><path class="st2" d="M102.8 27l-8-5c9.4-4.4 20.2-7.7 30.5-9.1l9.1 4.9c-10.3 1.5-21.9 5.2-31.3 9.6"/><path class="st1" d="M31.7 141.3C31.8 81 77.2 25.8 133.1 17.9c.5-.1 1.1 0 1.6.1.5.2 1 .4 1.4.8s.7.8.9 1.3.3 1 .2 1.6c0 1.2-.4 2.3-1.2 3.2-.7.9-1.8 1.5-2.9 1.8C81.7 33.8 40 84.7 40 140.1s41.5 94.6 92.9 87.3 93.1-58 93.2-113.5c0-38.8-20.4-69.7-50.4-82.1-.5-.2-.9-.6-1.3-1-.3-.4-.6-.9-.8-1.4s-.2-1.1-.2-1.6.2-1.1.5-1.5c.3-.8.8-1.4 1.5-1.9.6-.5 1.4-.8 2.2-1 .6-.1 1.3 0 1.8.2 32.6 13.5 54.8 47.1 54.7 89.4-.1 60.3-45.5 115.6-101.4 123.4-55.9 7.8-101.1-34.8-101-95.1z"/><path class="st3" d="M94.8 197.2l-8.6-4.7c.7.4 1.4.8 2.2 1.1l8.6 4.7-2.2-1.1"/><path class="st3" d="M96.9 198.3l-8.6-4.7c3.6 1.8 7.3 3.1 11.2 4.1l15.1 7.5c-3.9-1-14.1-5.1-17.7-6.9z"/><path class="st3" d="M107.4 203.1l-7.9-5.4c8 2 16.4 2.5 24.5 1.3.5-.1 1-.1 1.4 0l8.6 4.7c-.5-.1-.5.6-1 .7-8.2 1.2-16.9 1.3-24.9-.7"/><path class="st3" d="M134.1 203.8l-8.6-4.7c.2.1.4.1.6.2l8.7 4.7c-.2-.1-.4-.2-.7-.2"/><path class="st3" d="M134 204.4l-12.2-5.1c1.9-.2 3.4-.7 4.5 0l8.6 4.7c.9.7.5.7-.9.4zm30.8-5.9l-8.6-4.7c-.6-.3-1.2-.9-1.5-1.5s-.4-1.2-.5-1.9c0-.8.2-1.9.5-2.1l13.2.5c-.2.6-5 5.6-5 6.2 0 .7.2 1.3.5 1.9.3.7.8 1.3 1.4 1.6"/><path class="st3" d="M163.1 193.3l-8.6-4.7c0-.2.5-1 .5-1l8.5 5c-.2.2-.4.5-.4.7z"/><path class="st3" d="M163.5 192.5l-8.6-4.7c-.1-.1.9-1.3 1.6-1.8l7.5 5.6c-.1.3-.4.7-.5.9z"/><path class="st3" d="M163.9 192l-8.6-4.7c.6-.9 1.1-1.1 2-1.8l7 6-.4.5z"/><path class="st3" d="M164.2 191.5l-8.6-4.7.4-.4 8.6 4.7c0 .1-.2.3-.4.4"/><path class="st3" d="M162.9 195.1l-6.9-8.7c.2-.1.3-.3.5-.4 2.9-2 5.8-4.3 8.4-6.7l14.1 2.5c-2.7 2.4-11 6.8-13.9 8.9-.2.1-.3.3-.5.4"/><path class="st3" d="M164.6 193.5l.3-14.1c2.5-2.3 5.9-5.7 8.1-8.3l15.3-.4c-2.3 2.6-12.2 11.1-14.8 13.4"/><path class="st3" d="M180.8 176.7l-8.6-4.7c2.3-2.6 4.4-5.3 6.4-8.1l8.6 4.6c-2 2.9-4.1 5.6-6.4 8.2"/><path class="st3" d="M185.4 177l-6.8-13.2c2.1-3 4-6.2 5.7-9.5l10.2 4.8c-1.8 3.4-7 14.9-9.1 17.9z"/><path class="st3" d="M193 159.2l-8.6-4.7c2.1-3.8 3.9-7.8 5.4-11.9l8.6 4.7c-1.6 4.1-3.4 8.1-5.4 11.9z"/><path class="st3" d="M198.3 147.3l-8.6-4.7c3.6-9.7 5.4-19.9 5.5-30.2 0-27.2-13.1-49.3-32.9-60.1l8.6 4.7c22.3 9.9 40.8 31.7 34.1 61.2-.1 10.3-3.1 19.4-6.7 29.1zM133.2 42.6l-8.8-5.8c9.2-1.4 18.5-.9 27.5 1.4l12.1 6.1c-9-2.2-21.7-3-30.8-1.7z"/><path class="st3" d="M160.4 42.9l-8.6-4.7c4.3 1.1 8.5 2.7 12.5 4.6l8.9 4.9c-4-2-8.8-1.4-13.1-2.5"/><path class="st3" d="M172.4 48.5l-8.1-5.7 2.4 1.3 8.6 4.7-2.9-.3zM90.3 205.4l-8.6-4.6c-22.2-12.1-36.9-36.8-36.8-67.2 0-11.5 2.1-22.9 6.1-33.7l14.8-3.8c-4 10.8-7.9 30.5-7.9 42 5.4 24.7 10.2 55.2 32.4 67.3"/><path class="st3" d="M59.6 104.6L51 99.9c1.6-4.6 3.8-10.1 6.6-14.1l10.1 5.1c-2.3 4.1-6.4 9.1-8.1 13.7z"/><path class="st3" d="M65.6 91.2L57 86.5c1.9-3.6 4.1-7.1 6.5-10.5L83 75c-2.3 3.4-15.3 12.6-17.4 16.2"/><path class="st3" d="M72.1 80.7l-8.6-4.6c2.2-3.2 4.6-6.3 7.1-9.1L93 61.1C90.4 64 74.3 77.6 72.1 80.7z"/><path class="st3" d="M79.2 71.7L70.6 67c2.5-2.9 5.2-5.6 8.1-8.2l24-2.2c-2.9 2.6-20.9 12.2-23.5 15.1"/><path class="st3" d="M87.4 63.5l-8.7-4.7c3-2.7 6.2-5.3 9.6-7.6l21.3.9c-3.4 2.3-19.2 8.6-22.2 11.4"/><path class="st3" d="M96.9 55.9l-8.6-4.7c4.1-2.8 8.4-5.3 12.9-7.4l10.1 4.8c-4.6 2.1-10.3 4.5-14.4 7.3z"/><path class="st3" d="M109.8 48.5l-8.6-4.7c7.3-3.5 15.2-5.8 23.2-7l8.6 4.7c-8 1.2-15.9 3.5-23.2 7"/><path class="st4" d="M133 41.6c43.7-6.1 79.1 27.1 79 74.4-.2 16.1-4.2 32-11.7 46.2-7.5 14.3-18.3 26.6-31.5 35.9-.6.4-1.2.6-1.9.7-.7.1-1.5 0-2.1-.3s-1.2-.9-1.5-1.5c-.5-1.1-.5-2.3-.2-3.4s1.1-2.1 2.1-2.8c11.8-8.3 21.5-19.4 28.2-32.2s10.3-27 10.5-41.5c0-42.3-31.7-72.2-70.9-66.7-39.2 5.4-71.1 44.3-71.2 86.7-.1 42.3 31.7 72.3 71 66.7.5-.1 1.1 0 1.6.1.5.2 1 .4 1.4.8.4.4.7.8.9 1.3s.3 1 .2 1.6c0 1.2-.4 2.3-1.1 3.2-.7.9-1.8 1.5-2.9 1.8-43.7 6.2-79.1-27.1-79-74.4-.2-47.3 35.4-90.5 79.1-96.6z"/><path class="st2" d="M107.5 174.8l-8.6-4.7 1.4.7 8.6 4.7-1.4-.7z"/><path class="st2" d="M108.7 176.1l-8.2-5.5c2.4 1.2 5.1 2.4 7.7 3.1l9 5c-2.7-.8-6.1-1.4-8.5-2.6z"/><path class="st2" d="M109.8 182.5l-1.9-8.9c1.4.4 2.8.6 4.3.9 4.1.6 8.3.6 12.4 0 4.9-.7 9.6-2.1 14-4.2l8.6 4.7c-4.4 2.1-9.2 3.8-14.1 4.4-4.1.6-8.1.6-12.2 0-1.4-.2-3.3-.1-4.6-.4"/><path class="st2" d="M138.3 184.5l.3-14.2c2.7-1.3 5.3-2.8 7.8-4.5l9.6 4.8c-2.5 1.7-2.6 8.7-5.3 10"/><path class="st2" d="M155.5 171.4l-9.3-5.5c2-1.4 4.1-3.1 5.9-4.8l10.1 4.8c-1.8 1.7-4.6 4.1-6.7 5.5z"/><path class="st2" d="M160.8 165.9l-8.8-4.7c1.7-1.5 3.8-3.6 5.4-5.3l8.4 5.1c-1.7 1.7-3.3 3.3-5 4.9"/><path class="st2" d="M161.4 171l-4.4-14.7c1.5-1.7 3.3-3.9 4.6-5.8h14c-1.3 1.9-8.5 8.8-10 10.5"/><path class="st2" d="M170 155.5l-8.6-4.7c1.4-2 2.6-4.1 3.8-6.3l10.7 4.5c-1.2 2.2-4.5 4.5-5.9 6.5"/><path class="st2" d="M175 149.9l-9.8-5.3c1.4-2.6 2.6-5.2 3.6-8l9.2 4.9c-1 2.7-1.6 5.4-3 8"/><path class="st2" d="M177.4 141.2l-8.6-4.7c.8-2.2 1.5-4.5 2.1-6.8 5.7-23.2-3.3-44.8-20.5-54.1l9 4.2c17.2 9.3 25.8 31.5 20.2 54.6-.7 2.3-1.3 4.6-2.2 6.8zm-56.9-67l4-11.9c4.8-.7 9.9-.8 14.8-.1 1.7.2 3.4.6 5 1l8.6 4.7c-1.6-.4-3.3-.8-5-1-4.8-.7-10.8-.1-15.6.6"/><path class="st2" d="M142 71.1l2.3-7.9c3 .8 6 1.9 8.8 3.3l8.6 4.7c-2.8-1.4-5.8-2.5-8.9-3.3M103.1 183l-8.6-4.7c-12.7-6.9-21.6-19.6-24.8-34.9-.2-.9-.1-1.8.2-2.7l9.2 4.6c-.3.9-.9 1.9-.8 2.8 3.2 15.2 12 28 24.8 34.9z"/><path class="st2" d="M79.1 146.1l-9.2-5.4c.1-.2.2-.5.3-.7l9.7 4.9c-.1.2-.7 1-.8 1.2z"/><path class="st2" d="M79.5 145.3l-9.3-5.3.3-.6 11.7 2.5-2.7 3.4z"/><path class="st2" d="M79.2 144.1l-8.6-4.7c.1-.2.2-.3.4-.5l8.6 4.7c-.1.2-.3.4-.4.5z"/><path class="st2" d="M79.5 144.4l-8.6-5.5.4-.4 8.6 4.7c0 .2-.2 1.1-.4 1.2zm.5-1.2l-8.6-4.7c.2-.1.3-.2.5-.3l8.6 4.7c-.2.1-.3.3-.5.3"/><path class="st2" d="M69.9 140.7s.4-1.6 1.7-2.5c.2-.1 1.2-.6 1.6-.7l9.2 5.2c-.2.1-1.5 1.1-1.7 1.3"/><path class="st2" d="M77.3 147.6l-4.7-9.9.3-.1c.3-.1.6-.2.9-.2.5-.1 1-.1 1.4 0l9.4 5.3c-.5-.1-1.2.3-1.7.4-.3 0-1-.1-1.3 0l-4.3 4.5z"/><path class="st2" d="M83.8 142.2l-8.6-4.7c.2.1.5.1.7.2l8.6 4.7c-.2-.1-.4-.2-.7-.2"/><path class="st2" d="M83.3 142.7l-8.1-5.3.8.3 9 5c.4.4-.1.5-1.3.4m-2.9-19c-2.3-.7-8.6-4.7-8.6-4.7-.8-.5-1.4-1.2-1.7-2-.3-.8-.4-1.8-.2-2.7.7-2.7 1.5-5.4 2.4-8l10.5 3.9c-1 2.6-3.1 6.2-3.8 8.9-.3.9-.3 1.3 0 2.1s3.1 2.4 3.8 2.8c0 0 .3.5-2.4-.3z"/><path class="st2" d="M81.5 111.3l-8.8-4.4c1.2-3.2 2.8-6.7 4.4-9.7l14.2 2c-1.7 3-8.6 8.9-9.8 12.1"/><path class="st2" d="M84.8 105.6l-7.7-8.3c1.4-2.6 2.9-5 4.5-7.4l15.8-3.8c-1.7 2.4-10.4 13.3-11.7 15.8"/><path class="st2" d="M90.3 94.7l-15.7 7.7c3.3-8 12.5-23.6 29.5-33.1l-8.7 19c-1.9 2.1-3.6 4.2-5.1 6.4"/><path class="st2" d="M95.2 89.1l-8.5-5.5c3.3-5.2 14.4-11.8 16.4-13.6L102 82.3c-2 1.8-4.1 5.2-5.9 7.2"/><path class="st2" d="M100.6 83.6l-8.3-5.8c2.2-1.9 4.4-3.8 6.8-5.4l15.2 3.9c-2.4 1.6-11.2 4.9-13.4 6.8"/><path class="st2" d="M107.8 77.1l-8.6-4.7c2.9-2 6-3.8 9.2-5.3l15.2 2.6c-3.2 1.6-12.8 5.4-15.8 7.4"/><path class="st2" d="M117 71.8l-8.6-4.7c5.2-2.4 10.7-4.1 16.3-4.9l8.6 4.7c-5.6.7-11.1 2.4-16.3 4.9"/><path class="st1" d="M147.9 67c0-.1-20.7-3.1-37.9 7.4-16.2 9.9-22.1 17.2-28.3 31.9-6.5 15.3-1.6 17.3 1.3 18.2 1-.2 1.9-.6 2.6-1.3.7-.7 1.2-1.5 1.4-2.5 5.8-24 25.2-41.8 46.3-44.8 4.1-.6 8.3-.6 12.4 0 25.5 3.8 40.6 30.1 33.8 58.6-5.8 23.9-25.2 41.8-46.3 44.8-4.1.6-8.3.6-12.4 0-17.9-2.6-30.7-16.3-34.3-34.1-.1-.9-.8-1.7-1.4-2.3-1.2-1.1-7.7-2-6.7 5.3 3 21.1 19.3 37 40.3 40.1 4.8.7 9.7.7 14.6 0 24.8-3.5 47.5-24.5 54.3-52.6 8-33.5-9.7-64.3-39.7-68.7"/><path class="st3" d="M159.9 118.1l-8.7-4.5c-.4-.2-.8-.6-1.1-1s-.5-.9-.6-1.4c-.7-3.2-2.1-6.1-4.1-8.7s-4.4-4.7-7.3-6.3l9.1 4.3c2.8 1.6 6.5 3.3 8.4 5.9 2 2.6 4.1 5.2 4.9 8.4.1.5 1.5.4 1.8.8.2.4-2.1 2.1-1.7 2.3m-42.1 34.8l-8.6-4.7c.2.2.5.3.8.4l8.6 4.7-.8-.4z"/><path class="st3" d="M118.9 153.5l-8.2-5.1c1.3.7 2.8 1.2 4.2 1.6l8.6 4.7c-1.5-.4-2.9-.9-4.2-1.6"/><path class="st3" d="M123.4 154.7l-8.6-4.7c3 .8 6 .9 9 .5 2.4-.3 4.6-1 6.8-1.9l.9-.4 8.6 4.7-.9.4c-2.2.9-4.5 1.6-6.8 1.9-2.9.4-6 .2-9-.5"/><path class="st3" d="M139.9 153.7l-8.4-5.5c1.5-.7 3.1-1.6 4.4-2.6l8.6 4.7c-1.3 1-3.1 2.7-4.6 3.4z"/><path class="st3" d="M137.5 158.4l-1.6-12.8c1.1-.8 2.2-1.6 3.2-2.5l17.7.4c-1 .9-11.1 6.1-12.2 6.8"/><path class="st3" d="M147.7 147.8l-8.6-4.7c.9-.8 1.8-1.7 2.7-2.7l8.6 4.7c-.9 1-1.7 1.9-2.7 2.7"/><path class="st3" d="M150 147.4l-8.3-6.9c.8-.9 1.6-1.9 2.4-3l10.2 5.7c-.8 1-3.4 3.2-4.3 4.2z"/><path class="st3" d="M154.3 143.6l-10.2-6.1c.8-1.1 1.5-2.3 2.1-3.5l10.2 5.4c-.6 1.2-1.7 2.3-2.5 3.4"/><path class="st3" d="M155.5 139.3l-9.4-5.4c.8-1.4 1.4-2.9 2-4.5l10.3 5.2c-.6 1.5-1.8 3.2-2.5 4.6"/><path class="st3" d="M158.1 135.6l-9.8-6c.6-1.7 1.1-3.4 1.4-5.1l.4-1.2 8.8 5.1c-.1.3.9 1 .8 1.3-.3 1.7-1 4.3-1.6 5.9z"/><path class="st3" d="M158.5 128.3l-8.6-4.7c.1-.2.2-.6.3-.8l8.6 4.8c0 .3-.1.5-.3.7"/><path class="st3" d="M158.8 127.7l-8.6-4.6.3-.6c3.6 1.6 5.3 2.8 8.6 4.8-.1.1-.2.3-.3.4"/><path class="st3" d="M159.2 127.1l-9.9-1.7c.9-2.3.6-4.1 4-4.8l6.1 6c-.1.2-.2.4-.2.5"/><path class="st3" d="M159.5 126.6l-8.6-4.7c.1-.2.9-1.2 3-1.6l6 5.9-.4.4z"/><path class="st3" d="M158.5 129.2l-7.2-7.7c.2-.1.4-.3.5-.4l11.3 4.3c-.2.1-3 .7-3.1.8"/><path class="st3" d="M160.5 125.8l-8.6-4.7c.1-.3 1.6-.9 2-.8l7.4 5.1c-.3.2-.6.3-.8.4"/><path class="st3" d="M161.1 125.4l-8.6-4.7c.4-.2.8-.3 1.2-.4h1.5l8.6 4.7-.6-.1h-.9c-.4.1-.8.2-1.2.5"/><path class="st3" d="M163.8 125.1l-8.6-4.7c.2.1.4.1.6.2l8.6 4.7c-.2 0-.4-.1-.6-.2z"/><path class="st3" d="M160.2 127.5l-5.1-7.2c.4.1.6.1.8.3l8.6 4.7c.7.4 1 .7 1.1 1.3m-45-31.7l3.5-10.2c4-.6 8-.4 11.9.6l8.6 4.7c-3.9-1-7.9-1.2-11.9-.6"/><path class="st3" d="M141.5 90.8l-5.5-5.4c1.9.5 3.7 1.2 5.5 2l8.6 4.7c-1.8-.9-4.9-.4-6.8-.9"/><path class="st3" d="M150.1 92.1l-8.6-4.7 1 .5 8.6 4.8-1-.6m-35.9 68.8l-8.8-4.6c-3.7-2.1-6.9-4.9-9.5-8.3-2.6-3.4-4.4-7.3-5.3-11.4-2-8-1.3-16.9 1.6-24.6l8.9 5.1c-2.9 7.7-2.8 16.1-.8 24.1 1 4.2 2.1 7.6 4.6 11 2.5 3.2 5.5 6.6 9.3 8.7z"/><path class="st3" d="M100.7 117l-8.6-4.7c.7-2 1.6-4 2.6-5.9l10.6 5.1c-1 1.9-3.9 3.5-4.6 5.5z"/><path class="st3" d="M103.3 111.1l-8.6-4.7c.9-1.6 1.8-3.1 2.8-4.6l8.6 4.7c-1 1.5-1.9 3-2.8 4.6"/><path class="st3" d="M100.3 112.6l-2.7-10.8c1-1.4 2-2.7 3.1-3.9l8.6 4.7c-1.1 1.2-5.1 11.2-6.1 12.6"/><path class="st3" d="M108.3 108.6l-7.6-10.8c1.1-1.2 2.3-2.4 3.5-3.5l16.7-.8c-1.2 1.1-6.9 11.7-8 13"/><path class="st3" d="M112.8 99.1l-8.6-4.7c1.3-1.2 2.7-2.3 4.2-3.3l11.8 4.3c-1.6 1-6.1 2.5-7.4 3.7"/><path class="st3" d="M116.9 95.8l-8.7-4.7c1.8-1.3 3.7-2.3 5.7-3.3l21.5 2c-2 .9-16.7 4.7-18.5 6"/><path class="st3" d="M116.8 97l-2.8-9.2c.4-.2.8-.4 1.1-.5 2.9-1.2 5.9-2.1 9-2.5l12.4 4.4c-3.1.4-9.9 1.6-12.8 2.8l-6.9 5z"/><path class="st4" d="M125.8 100.2c-14.1 6-22.4 22.8-18.7 37.5 1.2 5.6 4.5 10.6 9.2 13.8 4.7 3.3 10.5 4.6 16.2 3.7 2.4-.3 4.7-1 6.9-1.9 4.9-2.2 9.1-5.6 12.4-9.8 3.3-4.2 5.6-9.1 6.6-14.4.2-1 .6-1.9 1.4-2.6.7-.7 1.6-1.2 2.6-1.4h.9c.5.1 1 .2 1.5.5s.8.7 1.1 1.1c.3.5.5 1 .6 1.5.1.5 0 1.1-.1 1.6-1.3 6.9-4.3 13.3-8.6 18.8s-9.9 9.9-16.3 12.7c-2.9 1.2-5.9 2.1-8.9 2.5-15.1 2.2-29.1-6.8-33.2-22.9h-.1.1c-4.9-19.2 6.1-41.1 24.5-49 2.9-1.2 5.9-2.1 8.9-2.5 15.1-2.1 29.1 6.9 33.2 22.9.3 1.1.1 2.3-.4 3.4-.5 1-1.4 1.9-2.5 2.4-.3.1-.7.2-1 .3-.9.1-1.8-.1-2.5-.6s-1.2-1.3-1.4-2.1c-1.2-5.6-4.5-10.5-9.2-13.8s-10.5-4.6-16.2-3.7c-2.5.4-4.8 1.1-7 2z"/><path class="st0" d="M169.1 134.4l7.8-2.2-66.6-17.4c-.8 1.5-1.2 2.3-1.7 3.8l60.5 15.8zm14.5 15l7.8-2.2 4.7 13.6-10.6 3-1.9-14.4z"/><path class="st0" d="M188.3 155.3l7.8-2.2c.1.1.2.3.3.5l-7.8 2.2c-.1-.2-.2-.4-.3-.5z"/><path class="st0" d="M188.6 155.7l7.8-2.1c.1.2.3.5.4.7l-7.8 2.2c-.1-.2-.3-.5-.4-.8"/><path class="st0" d="M189 156.4l7.8-2.2c.1.3.3.6.3.9l-7.8 2.2c-.1-.2-.2-.6-.3-.9m.3 1l7.8-2.2c0 .2 0 .4.1.6l-7.8 2.2c.1-.3.1-.5-.1-.6z"/><path class="st0" d="M189.5 157.9l7.8-2.2v.4l-7.8 2.2v-.4zm0 .5l7.8-2.2v.4l-7.8 2.2v-.4zm.1.4l7.8-2.2v.4l-7.8 2.2v-.4"/><path class="st0" d="M189.6 159.1l7.8-2.2v.3l-7.8 2.2v-.3zm0 .4l7.8-2.2v.3l-7.8 2.2v-.3"/><path class="st0" d="M189.5 159.8l7.8-2.2v.3l-7.8 2.2v-.3z"/><path class="st0" d="M189.5 160.1l7.8-2.2v.3l-7.8 2.2v-.3z"/><path class="st0" d="M189.4 160.4l7.8-2.2v.3l-7.8 2.2v-.3"/><path class="st0" d="M189.3 160.7l7.8-2.2v.3l-7.9 2.1c0-.1 0-.2.1-.2"/><path class="st0" d="M189.2 160.9l7.8-2.2c0 .1-.1.2-.1.3l-7.8 2.2c.1-.1.1-.2.1-.3m-.1.4l7.8-2.2-.1.3-7.8 2.2c0-.1.1-.2.1-.3"/><path class="st0" d="M189 161.6l7.8-2.2c-.1.1-.1.2-.2.3l-7.8 2.2s.1-.2.2-.3m-.2.4l7.8-2.2-.2.4-7.8 2.2c0-.2.1-.3.2-.4"/><path class="st0" d="M188.5 162.3l7.8-2.2c-.1.1-.2.3-.3.4l-7.8 2.2c.1 0 .2-.2.3-.4m-.3.5l7.8-2.2-.2.3c-.5.5-1.1.9-1.8 1.1 0 0-8 2.3-8.6 2.3-.6-.1 1.6-.5 2.1-1 0-.2.6-.4.7-.5zm-13-25.3l18.1-.9 3 .8-7.8 2.8-13.3-2.7z"/><path class="st0" d="M192.7 135.2l6.7-1.5-6.2 2.9-7.8 2.2 7.3-3.6zm-4.7-9.7l7.8-2.2c.7-.2 1.2-.2 2.4 0 1.7.4 2.5 1.7 2.5 1.7l-6.8 3.8-5.6-3.4-.3.1"/><path class="st0" d="M188.4 125.4l7.8-2.2h.4l-7.8 2.2h-.4z"/><path class="st0" d="M188.8 125.4l7.8-2.2h.3l-7.8 2.2h-.3"/><path class="st0" d="M189.1 125.3l7.8-2.2h.3l-7.8 2.2h-.3m.4.1l7.8-2.2h.3l-7.8 2.2h-.3zm.3 0l7.8-2.2h.3l-7.8 2.2h-.3m.3.1l7.8-2.2h.3l-7.8 2.2h-.3m.3 0l7.8-2.2h.3l-7.8 2.2h-.3m.2.1l7.8-2.2.3.1-7.8 2.2-.3-.1zm.3.1l7.8-2.2.3.1-7.8 2.2-.3-.1zm.3.1l7.8-2.2.3.1-7.8 2.2-.3-.1m.3.2l7.8-2.2.3.2-7.8 2.2-.3-.2zm.3.2l7.8-2.2c.1.1.2.1.3.2l-7.8 2.2-.3-.2m.3.2l7.8-2.2.3.3-7.8 2.2-.3-.3"/><path class="st0" d="M192.4 126.6l7.8-2.2.4.4-7.8 2.2-.4-.4z"/><path class="st0" d="M192.8 127l7.8-2.2c.2.2.4.5.6.8l-7.8 2.3c-.2-.3-.4-.5-.6-.9"/><path class="st0" d="M193.4 127.9l7.3-2.9c.3.2.4.4 1 1.4.9 1.5.7 4.9-.5 5.8l-7.2-3.6c-.2-.3-.3-.6-.6-.7"/><path class="st0" d="M193.9 128.5l7.6-2.3c.1.3.4.8.4 1.7l-7.8 1.5c-.1-.3-.2-.5-.3-.8.1 0 .1 0 .1-.1z"/><path class="st0" d="M193.9 128.8l7.7-1.7c0 .2.3 1.5.4 1.7l-7.7 1.2c0-.2-.4-1.1-.4-1.2z"/><path class="st0" d="M194.3 130l7.7-2.1v.4l-7.7 2.1v-.4"/><path class="st0" d="M194.3 129.4l7.7-1.1v.4l-7.6 2.5s-.1-1.6-.1-1.8z"/><path class="st0" d="M194.4 130.9l7.6-2.1v.4l-7.6 2v-.3z"/><path class="st0" d="M194.4 131.2l7.6-2.4v.8l-7.6 1.9v-.3"/><path class="st0" d="M194.4 131.6l7.6-2.3v.8l-7.6 1.8v-.3z"/><path class="st0" d="M194.4 131.9l7.6-2.7v.8l-7.6 2.2v-.3"/><path class="st0" d="M194.3 132.2l7.8-2.2v.3l-7.8 2.2v-.3z"/><path class="st0" d="M194.4 131.3l7.7-1v.3l-7.8 2.2-.3.2"/><path class="st0" d="M194.2 132.8l7.8-2.2v.3l-8 2.5.2-.6z"/><path class="st0" d="M194.1 133.1l7.8-2.2c-.1.1-.1.2-.1.3l-7.8 2.1s0-.1.1-.2"/><path class="st0" d="M193.9 133.4l7.8-2.2c-.1.1-.1.2-.1.3-3.1 1.9-5 1.9-8.1 2.3l.4-.4z"/><path class="st0" d="M193.8 133.7l7.8-2.2-.2.3-7.8 2.2.2-.3zm-.2.4l7.8-2.2-.7.7-7.4 1.8.3-.3z"/><path class="st0" d="M193.4 134.4l8.2-2.7s-1.5 1.6-1.7 1.7l-6.8 1.4c.1-.1.3-.2.3-.4"/><path class="st0" d="M194.3 132.5l7.3-.8c-.4.8-1.6 1.7-2.1 1.9l-7.8 2.2c.5-.2 2.2-2.8 2.6-3.3zm6.4 11.4l9.5-2 4.2 1.2-7.8 2.8-5.9-2z"/><path class="st0" d="M210.8 139.1l6.9.2-6.2 2.9-7.8 2.2 7.1-5.3zm-4.7-8l7.8-2.2c.7-.2 1.2-.2 2.4 0 1.7.4 2.5 1.7 2.5 1.7l-6.8 3.8-5.6-3.4-.3.1"/><path class="st0" d="M206.6 131l7.8-2.2h.4L207 131h-.4z"/><path class="st0" d="M206.9 131l7.8-2.2h.3l-7.8 2.2h-.3m.4 0l7.8-2.2h.3l-7.8 2.2h-.3"/><path class="st0" d="M207.6 131l7.8-2.2h.3l-7.8 2.2h-.3z"/><path class="st0" d="M207.9 131l7.8-2.2h.3l-7.8 2.2h-.3m.3.1l7.8-2.2h.3l-7.8 2.2h-.3"/><path class="st0" d="M208.5 131.1l7.8-2.2h.3l-7.8 2.2h-.3m.3.1l7.8-2.2.3.1-7.8 2.2-.3-.1zm.3.1l7.8-2.2.3.1-7.8 2.2-.3-.1zm.3.2l7.8-2.2.3.1-7.8 2.2-.3-.1m.3.2l7.8-2.2.3.2-7.8 2.2-.3-.2z"/><path class="st0" d="M210 131.8l7.8-2.2c.1.1.2.1.3.2l-7.8 2.2-.3-.2"/><path class="st0" d="M210.3 132l7.8-2.2.3.3-7.8 2.2-.3-.3"/><path class="st0" d="M210.6 132.3l7.8-2.2.4.4-7.8 2.2-.4-.4z"/><path class="st0" d="M211 132.7l7.8-2.2c.2.2.4.5.6.8l-7.8 2.3c-.2-.4-.4-.6-.6-.9"/><path class="st0" d="M211.6 133.5l7.3-2.9c.3.2.4.4 1 1.4.9 1.5.7 4.9-.5 5.8l-7.2-3.6c-.2-.3-.4-.5-.6-.7"/><path class="st0" d="M212.1 134.2l7.6-2.3c.1.3.4.8.4 1.7l-7.3 3.7c-.1-.3-.7-2.7-.8-3 .1 0 .1-.1.1-.1z"/><path class="st0" d="M212.4 135.1l7.4-2.4c0 .2.3 1.5.4 1.7l-7.7 1.2c-.1-.1-.1-.3-.1-.5z"/><path class="st0" d="M212.5 135.6l7.7-2.1v.4l-7.7 2.1v-.4m0 .5l7.6-2.1v.4l-7.6 2.5v-.8z"/><path class="st0" d="M212.6 136.5l7.6-2.1v.4l-7.6 2v-.3z"/><path class="st0" d="M212.6 136.8l7.6-2.4v.8l-7.6 1.9v-.3"/><path class="st0" d="M212.6 137.2l7.6-2.3v.8l-7.6 1.8v-.3z"/><path class="st0" d="M212.5 137.5l7.6-2.7v.8l-7.6 2.2v-.3m0 .3l7.8-2.2v.3l-7.8 2.2v-.3z"/><path class="st0" d="M212.6 136.9l7.7-1v.3l-7.8 2.2-.3.2"/><path class="st0" d="M212.3 138.4l7.8-2.2v.3l-8 2.5.2-.6z"/><path class="st0" d="M212.2 138.7l7.8-2.2c-.1.1-.1.2-.1.3l-7.8 2.1s.1-.1.1-.2"/><path class="st0" d="M212.5 137.8l7.4-1c-.1.1-.1.2-.1.3-3.1 1.9-5 1.9-8.1 2.3l.8-1.6z"/><path class="st0" d="M212 139.4l7.8-2.2-.2.3-7.8 2.2.2-.3z"/><path class="st0" d="M211.8 139.7l7.8-2.2-.7.7-7.4 1.8.3-.3z"/><path class="st0" d="M211.5 140l8.2-2.7s-1.5 1.7-1.7 1.7l-6.8 1.4c.2-.1.3-.2.3-.4"/><path class="st0" d="M211.7 139.5l8-2.1c-.4.8-1.6 1.7-2.1 1.9l-7.8 2.2c.5-.3 1.5-1.6 1.9-2zm14.3-3.3l7.4-2.2c.7-.2 1.2-.2 2.4 0 1.7.4 2.5 1.7 2.5 1.7l-6.8 3.8-7.2-1.9 1.7-1.4"/><path class="st0" d="M226.1 136.1l7.8-2.2h.4l-7.8 2.2h-.4z"/><path class="st0" d="M226.5 136.1l7.8-2.2h.3l-7.8 2.2h-.3"/><path class="st0" d="M226.8 136l7.8-2.2h.3l-7.8 2.2h-.3m.4.1l7.8-2.2h.3l-7.8 2.2h-.3z"/><path class="st0" d="M227.5 136.1l7.8-2.2h.3l-7.8 2.2h-.3"/><path class="st0" d="M227.8 136.1l7.8-2.2h.3l-7.8 2.2h-.3m.3.1l7.8-2.2h.3l-7.8 2.2h-.3m.2.1l7.8-2.2.3.1-7.8 2.2-.3-.1zm.3.1l7.8-2.2.3.1-7.8 2.2-.3-.1zm.3.1l7.8-2.2.3.1-7.8 2.2-.3-.1m.3.2l7.8-2.2.3.2-7.8 2.2-.3-.2zm.3.2l7.8-2.2c.1.1.2.1.3.2l-7.8 2.2-.3-.2m.3.2l7.8-2.2.3.3-7.8 2.2-.3-.3"/><path class="st0" d="M230.1 137.3l7.8-2.2.4.4-7.8 2.2-.4-.4z"/><path class="st0" d="M230.5 137.7l7.8-2.2c.2.2.4.5.6.8l-7.8 2.3c-.2-.3-.4-.5-.6-.9"/><path class="st0" d="M231.1 138.6l7.3-2.9c.3.2.4.4 1 1.4.9 1.5.7 4.9-.5 5.8l-7.2-3.6c-.2-.3-.4-.6-.6-.7"/><path class="st0" d="M229.5 136.5l9.8.4c.1.3.4.8.4 1.7l-6.5 3.7c-.8.2-1.4.7-1.7 1.4-.3.8-.8-.6-.9-.8 0 0-1.1-6.3-1.1-6.4z"/><path class="st0" d="M231.9 140.2l7.4-2.4c0 .2.3 1.5.4 1.7l-7.7 1.2c0-.2-.1-.4-.1-.5z"/><path class="st0" d="M232 140.7l7.7-2.1v.4l-7.7 2.1v-.4m.1.4l7.6-2.1v.4l-7.6 2.5v-.8z"/><path class="st0" d="M232.1 141.6l7.6-2.1v.4l-7.6 2v-.3z"/><path class="st0" d="M232.1 141.9l7.6-2.4v.8l-7.6 1.9v-.3"/><path class="st0" d="M232.1 142.2l7.6-2.3v.8l-7.6 1.8v-.3z"/><path class="st0" d="M232.1 142.6l7.6-2.7v.8l-7.6 2.2v-.3"/><path class="st0" d="M232 142.9l7.8-2.2v.3l-7.8 2.2v-.3z"/><path class="st0" d="M232.1 142l7.7-1v.3l-7.8 2.2-.3.2"/><path class="st0" d="M231.9 143.5l7.8-2.2v.3l-8 2.5.2-.6z"/><path class="st0" d="M231.8 143.8l7.8-2.2c-.1.1-.1.2-.1.3l-7.8 2.2c0-.1 0-.2.1-.3"/><path class="st0" d="M231.6 144.1l7.8-2.2c-.1.1-.1.2-.1.3-3.1 1.9-5 1.9-8.1 2.3l.4-.4z"/><path class="st0" d="M231.5 144.4l7.8-2.2-.2.3-7.8 2.2.2-.3zm-.2.4l7.8-2.2-.7.7-7.4 1.8.3-.3z"/><path class="st0" d="M231 145.1l8.2-2.7s-1.5 1.6-1.7 1.7l-6.8 1.4c.2-.1.3-.2.3-.4"/><path class="st0" d="M232.5 140.9l6.8 1.6c-.4.8-1.6 1.7-2.1 1.9l-7.8 2.2c.4-.3 2.7-5.3 3.1-5.7zM202 154.1l8.8-1.7 4.6 5.8-10 3-3.4-7.1z"/><path class="st0" d="M207.6 160.5l7.8-2.2c.1.1.2.3.3.5l-7.8 2.2c-.1-.2-.2-.4-.3-.5"/><path class="st0" d="M207.9 160.9l7.8-2.2c.2.2.3.5.4.7l-7.8 2.2c-.1-.2-.3-.4-.4-.7z"/><path class="st0" d="M208.3 161.6l7.8-2.2.3.9-7.8 2.2-.3-.9"/><path class="st0" d="M208.6 162.5l7.8-2.2c.1.2.1.4.1.5l-7.8 2.2c0-.1 0-.3-.1-.5zm.2.6l7.8-2.1v.5l-7.8 2.2v-.6"/><path class="st0" d="M208.8 163.5l7.8-2.2v.4l-7.8 2.2v-.4zm.1.4l7.8-2.2v.4l-7.8 2.2v-.4z"/><path class="st0" d="M208.9 164.3l7.8-2.2v.3l-7.8 2.2v-.3"/><path class="st0" d="M208.8 164.6l7.8-2.2v.3l-7.8 2.2v-.3zm0 .4l7.8-2.2v.3l-7.8 2.2v-.3z"/><path class="st0" d="M208.8 165.3l7.8-2.2v.3l-8 2.2v-.3"/><path class="st0" d="M208.6 165.6l7.8-2.2v.3l-7.8 2.2v-.3z"/><path class="st0" d="M208.6 165.9l7.8-2.2-.1.3-7.8 2.2.1-.3"/><path class="st0" d="M208.5 166.2l7.8-2.2-.1.3-7.8 2.1.1-.2m-.1.3l7.8-2.2c0 .1 0 .2-.1.3l-7.8 2.2.1-.3"/><path class="st0" d="M208.3 166.8l7.8-2.2-.2.3-7.8 2.2.2-.3m-.2.4l7.9-2.2c0 .1-.2.2-.2.4l-7.8 2.2.1-.4"/><path class="st0" d="M207.8 167.5l7.8-2.2c-.1.1-.2.3-.3.4l-7.8 2.2.3-.4z"/><path class="st0" d="M207.5 167.9l1.7-10.9 5.5 8.4c-.5.5-.7 1.3-1.4 1.5l-7.8 2.2c.7-.2 1.3-.6 1.8-1.1l.2-.1zm9.1-15.2l7.8-2.2 10.3 12.9-7.8 2.2-10.3-12.9z"/><path class="st0" d="M221.8 158.2l12.9 5.2c.1.1.2.3.3.4l-6.5 6.3-1.6-4.5"/><path class="st0" d="M227.2 166.1l7.8-2.2c.1.2.3.5.4.7l-7.8 2.2c-.1-.2-.2-.5-.4-.7m.4.7l7.8-2.2.3.9-7.8 2.2c0-.3-.1-.6-.3-.9m.4.9l7.8-2.2c0 .2.1.4.1.6l-7.8 2.2c0-.2-.1-.4-.1-.6"/><path class="st0" d="M228.1 168.3l6.7-4.7c1 1.1 1.1 1.6 1.1 3l-7.8 2.2v-.5z"/><path class="st0" d="M228.1 168.7l7.6-3.2c.1 0 .2 1.2.2 1.4l-7.8 2.2v-.4z"/><path class="st0" d="M228.2 169.1l7.6-3.7c.1.1.2 1.4.2 1.9l-7.8 2.2v-.4zm0 .4l7.8-2.2v.3l-7.8 2.2v-.3z"/><path class="st0" d="M228.2 168.5l7.8-.8v.3l-7.9 2.2v-.3"/><path class="st0" d="M228.2 170.1l7.8-3.4c.2 2.3-.2 3.4-1.9 4.7l-8.4 2.5 2.5-3.8z"/><path class="st0" d="M228.1 170.5l7.8-2.2v.3l-7.8 2.2v-.3"/><path class="st0" d="M228 170.8l7.8-2.2v.3l-7.8 2.2v-.3"/><path class="st0" d="M227.9 171.1l7.8-2.2c0 .1-.1.2-.1.3l-7.8 2.2c.1-.1.1-.2.1-.3"/><path class="st0" d="M227.8 171.4l7.8-2.2c0 .1-.1.2-.1.3l-7.8 2.2c.1-.1.1-.2.1-.3"/><path class="st0" d="M227.7 171.7l7.8-2.2c0 .1-.1.2-.1.3l-7.8 2.1.1-.2m-.1.3l7.8-2.2c-.1.1-.1.2-.2.3l-7.8 2.2c.1-.1.1-.2.2-.3"/><path class="st0" d="M227.4 172.3l7.8-2.2c-.1.1-.2.2-.2.3l-7.8 2.2.2-.3m-.3.4l7.8-2.2c-.1.1-.2.3-.3.4l-7.8 2.2c.1-.1.2-.3.3-.4z"/><path class="st0" d="M226.8 173.1l8.8-3.3c-.1.1-1.1 1.3-1.2 1.4-.5.5-1.1.9-1.8 1.1l-7.8 2.2c.5-.4.9-.4 1.3-.9l.7-.5zm5.6-28.3l4.6-.4-14.1 6.9-6.3 1.4 15.8-7.9z"/><path class="st1" d="M169.1 134.5l18.2-8.6c1-.5 2-.5 3.1-.3.8.2 1.5.6 2.1 1.2.6.5 1.1 1.2 1.4 2 .6 1.2.7 2.7.3 4s-1.3 2.4-2.5 3.1l-6.2 3-.2.1.3.1 3 .8 18.1-8.7c.9-.5 2-.5 3-.3 1 .3 2 .9 2.6 1.8.7.8 1.1 1.8 1.3 2.9.1 1.1 0 2.2-.5 3.1-.5 1-1.2 1.8-2.1 2.4l-6.2 2.9-.2.1.3.1 3 .8 18.1-8.6c.9-.5 2-.6 3.1-.3.8.2 1.5.6 2.1 1.1s1.1 1.2 1.4 1.9c.6 1.2.7 2.7.3 4s-1.3 2.4-2.5 3.1l-13.6 6.5-.1.1.1.1 10.3 12.9c.9 1.1 1.3 2.5 1.3 3.9-.1 1.4-.6 2.7-1.6 3.7-.5.5-1.2.9-2 1.1-.7.2-1.5.2-2.2 0-1.1-.3-2-.9-2.7-1.8l-.1.1.1-.1-13.9-17.3-3-.8-.3-.1.2.2 4.6 5.9c.9 1.1 1.3 2.4 1.3 3.8-.1 1.4-.6 2.7-1.6 3.7-.5.5-1.2.9-2 1.1-.7.2-1.5.2-2.2 0-1.1-.3-2-.9-2.7-1.8l-13.6-17.2-3-.8-.3-.1.2.2 4.6 5.8c.9 1.1 1.3 2.4 1.3 3.8-.1 1.4-.6 2.7-1.6 3.7-.5.5-1.2.9-2 1.1-.7.2-1.5.2-2.2 0-1.1-.3-2-.9-2.7-1.8L167.4 145l-61-17.5c.3-2.5 1.1-6.3 2.2-9.1l60.5 16.1z"/></svg>