<svg width="219" height="174" viewBox="0 0 219 174" fill="none" xmlns="http://www.w3.org/2000/svg">
<g clip-path="url(#clip0)">
<path d="M62.5 33L64.9 31.42L121 20.5L181.793 30.9825L180.876 135.534L64.728 135.728L62.5 33Z" fill="url(#paint0_linear)"/>
<path d="M64.8899 31.4272L37.6351 46.4999V64.5676L37.6358 167.751L65.1539 135.436L64.8899 31.4272Z" fill="url(#paint1_linear)"/>
<path d="M154.454 168.434L37.6358 168.569L37.6351 64.5676L154.498 64.5303L154.454 168.434Z" fill="#102E5B"/>
<g opacity="0.9" filter="url(#filter0_f)">
<circle cx="100.5" cy="85.5" r="40.5" fill="url(#paint2_radial)"/>
</g>
<path d="M154.453 168.433L182.07 135.266L181.792 30.9824L154.497 64.5303L154.453 168.433Z" fill="#0A2D49"/>
<path d="M154.497 64.5303L181.792 30.9824L182.06 136.047L154.453 168.433L154.497 64.5303Z" fill="#053866"/>
<path d="M154.497 64.5303L181.792 30.9824L182.06 136.02L154.453 168.433L154.497 64.5303Z" fill="#053866"/>
<path d="M175.192 40.1164L181.793 30.9824L182.06 58.2655L175.192 66.408V40.1164Z" fill="#053866"/>
<path d="M177.58 54.6389C176.112 51.4743 175.422 47.3589 175.422 40.1061L176.251 39.0874C176.251 45.505 177.036 49.8784 178.281 52.5575C179.313 54.7714 180.67 55.0871 182.081 53.4199L182.06 56.2111C181.36 57.0464 180.89 57.2297 180.237 57.2297C179.313 57.2297 178.318 56.2212 177.58 54.6389Z" fill="#FF8098"/>
<path d="M168.32 48.2694L175.192 40.1167V66.4083L168.32 74.5542V48.2694Z" fill="#0E2951"/>
<path d="M161.45 56.4115L168.319 48.269V74.5538L161.45 82.6963V56.4115Z" fill="#FF8098"/>
<path d="M154.498 64.5303L161.451 56.4116V82.6964L154.582 90.7269L154.498 64.5303Z" fill="#911A31"/>
<path d="M175.192 66.4081L182.06 58.2656V84.1939L175.192 92.3364V66.4081Z" fill="#911A31"/>
<path d="M168.32 74.5541L175.192 66.4082V92.3365L168.32 100.482V74.5541Z" fill="#C43B55"/>
<path d="M161.45 82.6967L168.319 74.5542V100.483L161.45 108.625V82.6967Z" fill="#053866"/>
<path d="M154.582 90.7272L161.451 82.6968V108.625L154.582 116.652V90.7272Z" fill="#053866"/>
<path d="M168.32 100.482L175.192 92.3364V118.265L168.32 126.407V100.482Z" fill="#FF8098"/>
<path d="M161.45 108.625L168.319 100.482V126.407L161.45 134.553V108.625Z" fill="#0E2951"/>
<path d="M154.582 116.652L161.451 108.625V134.553L154.738 142.57L154.582 116.652Z" fill="#0E2951"/>
<path d="M175.192 118.265L182.06 110.092V136.02L175.192 144.193V118.265Z" fill="#C43B55"/>
<path d="M168.32 126.408L175.192 118.265V144.193L168.32 152.336V126.408Z" fill="#053866"/>
<path d="M161.45 134.554L168.319 126.408V152.336L161.45 160.479V134.554Z" fill="#FF8098"/>
<path d="M154.737 142.57L161.45 134.553V160.478L154.453 168.434L154.737 142.57Z" fill="#911A31"/>
<path d="M178.677 49.9769C177.543 47.5322 176.907 44.1366 176.907 38.5815L177.726 37.5459C177.726 42.0653 178.223 45.3149 179.238 47.4167C179.847 48.6832 181.065 49.0873 182.05 47.9057V51.0126C181.515 51.6475 181.157 51.8479 180.649 51.8479C179.939 51.8581 179.265 51.2163 178.677 49.9769Z" fill="#D6516B"/>
<path d="M179.783 44.5408C178.991 42.8702 178.575 40.31 178.575 36.5104L179.404 35.4917C179.404 38.2081 179.543 39.5663 180.081 41.1894C180.578 42.7446 181.482 42.9177 182.07 42.2081V45.315C181.702 45.7496 181.509 45.8617 181.157 45.8617C180.649 45.8617 180.179 45.4067 179.783 44.5408Z" fill="#C43B55"/>
<path d="M180.772 39.1011C180.311 38.0825 181.787 33.142 181.787 30.9824C181.621 32.5376 180.893 35.9942 181.225 36.5103C181.418 36.799 181.638 31.1556 181.787 30.9824L182.054 39.6173C181.844 39.8787 181.807 39.8787 181.604 39.8787C181.306 39.8787 181.019 39.5901 180.772 39.1011Z" fill="#A62E41"/>
<path d="M154.737 135.728L159.579 129.918V91.7628L154.737 97.5013V93.8748L160.574 87.2739V132.078L154.754 138.954L154.737 135.728Z" fill="#F985A0"/>
<path d="M154.737 135.728L159.579 129.918V110.767L160.574 109.671V132.078L154.737 139.351V135.728Z" fill="#C43B55"/>
<path d="M154.653 129.545L157.928 125.661V99.4166L154.737 103.019V99.6747L158.923 94.9277V127.274L154.754 132.221L154.653 129.545Z" fill="#F985A0"/>
<path d="M154.737 122.866L156.229 120.822V108.594L154.737 110.435V106.808L157.224 104.105V122.981L154.845 125.8L154.737 122.866Z" fill="#F985A0"/>
<path d="M154.647 122.553L156.204 120.89V114.6L157.212 113.589V123L154.739 125.993L154.647 122.553Z" fill="#C43B55"/>
<path d="M154.737 129.314L157.928 125.66V112.671L158.923 111.547V127.789L154.737 132.94V129.314Z" fill="#C43B55"/>
<path d="M176.842 122.523L182.06 116.336V136.02L176.842 142.238V122.523Z" fill="#003A79"/>
<path d="M178.622 127.158L182.06 123.07V136.02L178.622 140.105V127.158Z" fill="#FF8098"/>
<path d="M165.795 51.7324L168.292 65.0565L163.968 79.5894L161.477 66.2653L165.795 51.7324Z" fill="#C43B55"/>
<path d="M165.352 58.5542L166.624 65.3724L164.422 72.7679L163.146 65.9768L165.352 58.5542Z" fill="#911A31"/>
<path d="M161.45 139.731L168.319 131.589V152.336L161.45 160.478V139.731Z" fill="#C43B55"/>
<path d="M161.45 145.43L168.319 137.287V152.336L161.45 160.479V145.43Z" fill="#911A31"/>
<path d="M161.45 151.157L168.319 142.984V152.336L161.45 160.478V151.157Z" fill="#053866"/>
<path d="M161.45 155.82L168.319 147.674V152.336L161.45 160.478V155.82Z" fill="#0E2951"/>
<path d="M168.939 94.9272L174.573 87.0529L168.939 80.8459L174.573 72.9717L168.939 94.9272Z" fill="#911A31"/>
<path d="M181.232 59.3013L182.061 58.2656V84.1939L181.232 85.2295V59.3013Z" fill="#FF8098"/>
<path d="M179.905 60.856L180.734 59.8203V85.7486L179.905 86.7842V60.856Z" fill="#FF8098"/>
<path d="M175.577 66.0342L176.409 64.9985V90.9268L175.577 91.9625V66.0342Z" fill="#FF8098"/>
<path d="M177.025 64.1636L178.024 63.1279V89.029L177.025 90.0647V64.1636Z" fill="#FF8098"/>
<path d="M178.575 62.4082L179.404 61.3726V87.3008L178.575 88.3365V62.4082Z" fill="#FF8098"/>
<path d="M175.192 92.3363L182.06 84.1938V110.092L175.192 118.265V92.3363Z" fill="#0E2951"/>
<path d="M175.192 105.287L178.623 101.229V114.18L175.192 118.265V105.287Z" fill="#911A31"/>
<path d="M178.622 88.2515L182.06 84.1938V97.1444L178.622 101.229V88.2515Z" fill="#911A31"/>
<path d="M169.99 129.953L173.523 125.07V140.628L169.99 145.531V133.26L172.863 129.28V138.669L170.65 141.742V135.175L172.2 133.026V136.774L171.313 137.997" stroke="#F985A0" stroke-miterlimit="10"/>
<path d="M159.387 160.478L155.425 142.611L156.89 140.991L161.065 158.943L159.387 160.478Z" fill="#003A79"/>
<path d="M157.133 162.553L155.029 165.178L158.47 139.352L160.574 137.287L157.133 162.553Z" fill="#003A79"/>
<path d="M165.849 108.598L166.945 107.301V111.447L165.849 112.741V108.598Z" fill="#911A31"/>
<path d="M164.337 116.078L165.433 114.781V118.927L164.337 120.251V116.078Z" fill="#911A31"/>
<path d="M162.824 123.589L163.92 122.292V126.438L162.824 127.732V123.589Z" fill="#911A31"/>
<path d="M154.497 64.5303L37.6345 64.5676L37.6819 168.406L154.453 168.434L154.497 64.5303Z" fill="#054270"/>
<path d="M154.453 168.434L37.6446 168.535L37.6345 64.5676L154.497 64.5303L154.453 168.434Z" fill="#053866"/>
<path d="M66.9468 142.523L37.6449 142.564V116.595L66.9468 116.581V142.523Z" fill="#F4F9FF"/>
<path d="M96.2085 142.52L66.9473 142.523V116.581L96.2085 116.547V142.52Z" fill="#55A2E0"/>
<path d="M125.473 142.489L96.2083 142.52V116.547L125.473 116.517V142.489Z" fill="#A8D2FC"/>
<path d="M154.737 142.57L125.473 142.489V116.517L154.737 116.601V142.57Z" fill="#B9D5FD"/>
<path d="M96.2085 116.547L66.9473 116.581V90.6087L96.2085 90.5781V116.547Z" fill="#55A2E0"/>
<path d="M125.473 116.516L96.2083 116.547V90.5779L125.473 90.5474V116.516Z" fill="#A8D2FC"/>
<path d="M154.737 116.601L125.473 116.516V90.5474L154.737 90.6289V116.601Z" fill="#55A2E0"/>
<path d="M96.2085 168.489L66.9473 168.492V142.523L96.2085 142.52V168.489Z" fill="#0E2951"/>
<path d="M125.473 168.458L96.2083 168.488V142.519L125.473 142.489V168.458Z" fill="#FF8098"/>
<path d="M154.454 168.434H125.253V142.57L154.738 142.57L154.454 168.434Z" fill="#911A31"/>
<path d="M66.9465 90.6077L37.6446 90.6213L37.6345 64.5674L66.9465 64.6387V90.6077Z" fill="#C43B55"/>
<path d="M125.473 90.5466L96.2083 90.5772V64.6082L125.473 64.5742V90.5466Z" fill="#0E2951"/>
<path d="M154.737 90.6283L125.473 90.5468V64.5744L154.497 64.5303L154.737 90.6283Z" fill="#911A31"/>
<path d="M129.218 138.961V94.0819L154.453 94.0547L153.996 97.3789L133.431 97.3993V135.619L154.737 135.728V139.358L129.218 138.961Z" fill="#55A2E0"/>
<path d="M128.944 94.0816L154.738 93.8677V97.5009L133.431 97.399V116.55L129.218 116.526L128.944 94.0816Z" fill="#003A79"/>
<path d="M136.243 132.941V100.822L154.737 99.6748V102.867L140.455 103.101V129.243L154.737 129.311V132.941H136.243Z" fill="#55A2E0"/>
<path d="M143.848 125.959V107.05L154.645 107.012L153.996 110.381L148.064 110.367V122.618L154.737 122.547V125.993L143.848 125.959Z" fill="#55A2E0"/>
<path d="M143.848 107.05L154.737 106.809V110.442L148.064 110.367V116.652L143.848 116.564V107.05Z" fill="#003A79"/>
<path d="M136.243 99.7835L154.737 99.6748V103.019L140.455 103.101V116.517H136.243V99.7835Z" fill="#003A79"/>
<path d="M52.2753 77.6232L37.6446 77.6504L37.6345 64.5674L52.2753 64.6523V77.6232Z" fill="#FF8098"/>
<path d="M106.941 168.369L96.3267 152.054L114.703 142.618L125.355 158.92L106.941 168.369Z" fill="#C43B55"/>
<path d="M108.853 162.071L103.429 153.728L112.832 148.906L118.215 157.259L108.853 162.071Z" fill="#911A31"/>
<path d="M125.473 85.3583L96.2083 85.3888V64.6082L125.473 64.5742V85.3583Z" fill="#053866"/>
<path d="M125.473 79.6504L96.2083 79.681V64.6082L125.473 64.5742V79.6504Z" fill="#911A31"/>
<path d="M125.473 73.9425L96.2083 73.9459V64.6082L125.473 64.5742V73.9425Z" fill="#C43B55"/>
<path d="M125.473 69.2735L96.2083 69.2769V65.0291L125.473 64.9985V69.2735Z" fill="#FF8098"/>
<path d="M94.448 120.774L68.7057 120.812L94.448 137.25L68.7057 137.287" fill="#003A79"/>
<path d="M37.6038 116.347L41.8197 116.204V142.693L37.6038 142.835V116.347Z" fill="#55A2E0"/>
<path d="M43.147 116.669L47.3596 116.526V142.499L43.147 142.638V116.669Z" fill="#55A2E0"/>
<path d="M60.8223 116.595L65.0349 116.452L64.9571 142.472L60.7039 142.625L60.8223 116.595Z" fill="#55A2E0"/>
<path d="M54.8507 116.649L59.1039 116.5V142.469L54.8507 142.621V116.649Z" fill="#55A2E0"/>
<path d="M48.9996 116.672L53.2528 116.52V142.492L48.9996 142.645V116.672Z" fill="#55A2E0"/>
<path d="M66.9468 116.581L37.6449 116.594V90.622L66.9468 90.6084V116.581Z" fill="#A8D2FC"/>
<path d="M66.9468 168.492L37.6449 168.536V142.564L66.9468 142.523V168.492Z" fill="#053866"/>
<path d="M66.9466 103.579L52.2753 103.593V90.622L66.9466 90.6084V103.579Z" fill="#55A2E0"/>
<path d="M37.6038 146.465V143.877C53.2122 143.877 66.4387 150.855 66.4387 168.526L62.9265 168.471C62.9265 156.529 51.6896 146.444 37.6038 146.465Z" fill="#FF8098"/>
<path d="M37.5676 152.067V148.971C49.312 148.971 59.3782 155.982 59.3782 168.434L55.1657 168.573C55.1657 159.422 47.83 152.05 37.5676 152.067Z" fill="#D6516B"/>
<path d="M37.6038 157.881L37.6816 154.889C45.6804 154.889 51.6524 160.723 51.6524 168.505L47.7105 168.57C47.7105 162.95 43.8465 157.891 37.6038 157.881Z" fill="#C43B55"/>
<path d="M37.6038 164.135L37.6816 160.855C42.0532 160.855 45.3319 164.05 44.6281 168.396L41.1159 168.342C41.1159 165.833 40.3749 164.108 37.6038 164.135Z" fill="#A62E41"/>
<path d="M93.0481 87.8949L69.9889 87.7964L70.0701 67.3315L93.1293 67.4028L93.065 83.5418L74.3368 83.4603L74.3876 71.1244L88.7847 71.1889L88.7475 79.8067L78.6813 79.7592L78.7016 74.8289L84.4368 74.8628" stroke="#F985A0" stroke-width="4" stroke-miterlimit="10"/>
<path d="M150.64 87.4233L130.741 67.6851" stroke="#003A79" stroke-width="6" stroke-miterlimit="10"/>
<path d="M130.741 87.43L150.64 67.6782" stroke="#003A79" stroke-width="6" stroke-miterlimit="10"/>
<path d="M106.744 111.352L102.061 111.338V107.185L106.744 107.172V111.352Z" fill="#F4F9FF"/>
<path d="M113.183 105.63L108.5 105.613V101.464L113.183 101.481V105.63Z" fill="#F4F9FF"/>
<path d="M119.62 99.9085L114.94 99.9221V95.7422L119.62 95.7592V99.9085Z" fill="#F4F9FF"/>
<path d="M59.885 84.3701L37.6446 84.3973L37.6345 64.5674L59.885 64.6557V84.3701Z" fill="#053866"/>
<path d="M53.9163 79.0663L37.6446 79.0629L37.6345 64.5674L53.9163 64.6251V79.0663Z" fill="#FF8098"/>
<path d="M52.2756 116.591L37.6449 116.595V103.624L52.2756 103.593V116.591Z" fill="#55A2E0"/>
<path opacity="0.3" d="M154.5 168.3L182 135.8V30.7998L154.5 64.4998V168.3Z" fill="black"/>
<path d="M154.731 90.6006L37.6912 91.0069V142.601H154.731V90.6006Z" fill="#D6516B"/>
<path d="M181.793 30.9824L214.497 48.0566L189.932 81L154.498 64.5303L181.793 30.9824Z" fill="#084C80"/>
<path d="M33.5306 42.6001L64.9 31.4199L37.9318 64.2001L4 75.6045L33.5306 42.6001Z" fill="#084C7F"/>
<path d="M132.274 97.1001L154.503 64.4487L37.7708 64.4487L15.2699 96.8591L132.274 97.1001Z" fill="#084C80"/>
<path d="M194.878 5.43802L181.793 30.9826L64.8902 31.4274L77.6057 5L194.878 5.43802Z" fill="#084C80"/>
</g>
<defs>
<filter id="filter0_f" x="-20" y="-35" width="241" height="241" filterUnits="userSpaceOnUse" color-interpolation-filters="sRGB">
<feFlood flood-opacity="0" result="BackgroundImageFix"/>
<feBlend mode="normal" in="SourceGraphic" in2="BackgroundImageFix" result="shape"/>
<feGaussianBlur stdDeviation="40" result="effect1_foregroundBlur"/>
</filter>
<linearGradient id="paint0_linear" x1="198.468" y1="27.3234" x2="197.371" y2="55.2045" gradientUnits="userSpaceOnUse">
<stop stop-color="#215198"/>
<stop offset="1" stop-color="#1F447C"/>
</linearGradient>
<linearGradient id="paint1_linear" x1="77.4999" y1="112" x2="40.9999" y2="99.9999" gradientUnits="userSpaceOnUse">
<stop stop-color="#032B57"/>
<stop offset="1" stop-color="#0A3D76"/>
</linearGradient>
<radialGradient id="paint2_radial" cx="0" cy="0" r="1" gradientUnits="userSpaceOnUse" gradientTransform="translate(100.034 71.5345) rotate(90) scale(32.1207)">
<stop stop-color="#0095FF"/>
<stop offset="1" stop-color="#BCE3FF"/>
</radialGradient>
<clipPath id="clip0">
<rect width="219" height="174" fill="white"/>
</clipPath>
</defs>
</svg>
