<svg width="219" height="174" viewBox="0 0 219 174" fill="none" xmlns="http://www.w3.org/2000/svg">
<path d="M64.89 31.4273L181.793 30.9825L180.876 135.534L64.7275 135.728L64.89 31.4273Z" fill="url(#paint0_linear)"/>
<path d="M64.8896 31.4273L37.6348 64.5677L37.6354 167.751L65.1535 135.436L64.8896 31.4273Z" fill="url(#paint1_linear)"/>
<g opacity="0.9" filter="url(#filter0_f)">
<circle cx="100.5" cy="85.5" r="40.5" fill="url(#paint2_radial)"/>
</g>
<path d="M154.453 168.434L37.6354 168.57L37.6348 64.5677L154.497 64.5304L154.453 168.434Z" fill="#102E5B"/>
<path d="M154.453 168.434L182.07 135.266L181.793 30.9825L154.497 64.5303L154.453 168.434Z" fill="#0A2D49"/>
<path d="M154.497 64.5303L181.792 30.9825L182.06 136.047L154.453 168.434L154.497 64.5303Z" fill="#053866"/>
<path d="M154.497 64.5303L181.792 30.9825L182.06 136.02L154.453 168.434L154.497 64.5303Z" fill="#053866"/>
<path d="M175.191 40.1165L181.793 30.9825L182.06 58.2656L175.191 66.4081V40.1165Z" fill="#053866"/>
<path d="M177.581 54.639C176.112 51.4744 175.422 47.359 175.422 40.1062L176.251 39.0875C176.251 45.5051 177.036 49.8785 178.281 52.5576C179.313 54.7715 180.67 55.0872 182.081 53.42L182.06 56.2112C181.36 57.0465 180.89 57.2298 180.237 57.2298C179.313 57.2298 178.318 56.2214 177.581 54.639Z" fill="#FF8098"/>
<path d="M168.32 48.2692L175.192 40.1165V66.4081L168.32 74.554V48.2692Z" fill="#0E2951"/>
<path d="M161.45 56.4115L168.319 48.269V74.5538L161.45 82.6963V56.4115Z" fill="#FF8098"/>
<path d="M154.498 64.5302L161.451 56.4114V82.6963L154.583 90.7267L154.498 64.5302Z" fill="#911A31"/>
<path d="M175.191 66.4079L182.06 58.2654V84.1937L175.191 92.3362V66.4079Z" fill="#911A31"/>
<path d="M168.32 74.5539L175.192 66.408V92.3363L168.32 100.482V74.5539Z" fill="#C43B55"/>
<path d="M161.45 82.6967L168.319 74.5542V100.482L161.45 108.625V82.6967Z" fill="#053866"/>
<path d="M154.582 90.7272L161.451 82.6968V108.625L154.582 116.652V90.7272Z" fill="#053866"/>
<path d="M168.32 100.482L175.192 92.3366V118.265L168.32 126.407V100.482Z" fill="#FF8098"/>
<path d="M161.45 108.625L168.319 100.482V126.407L161.45 134.553V108.625Z" fill="#0E2951"/>
<path d="M154.582 116.652L161.451 108.625V134.553L154.738 142.57L154.582 116.652Z" fill="#0E2951"/>
<path d="M175.191 118.265L182.06 110.092V136.02L175.191 144.193V118.265Z" fill="#C43B55"/>
<path d="M168.32 126.408L175.192 118.265V144.193L168.32 152.336V126.408Z" fill="#053866"/>
<path d="M161.45 134.554L168.319 126.408V152.336L161.45 160.479V134.554Z" fill="#FF8098"/>
<path d="M154.737 142.57L161.45 134.553V160.478L154.453 168.434L154.737 142.57Z" fill="#911A31"/>
<path d="M178.677 49.977C177.543 47.5323 176.907 44.1367 176.907 38.5816L177.726 37.546C177.726 42.0655 178.223 45.315 179.239 47.4168C179.848 48.6833 181.066 49.0874 182.05 47.9058V51.0127C181.516 51.6476 181.157 51.848 180.649 51.848C179.939 51.8582 179.266 51.2164 178.677 49.977Z" fill="#D6516B"/>
<path d="M179.783 44.541C178.991 42.8704 178.575 40.3102 178.575 36.5106L179.404 35.4919C179.404 38.2083 179.543 39.5666 180.081 41.1896C180.578 42.7448 181.482 42.9179 182.07 42.2083V45.3152C181.702 45.7498 181.509 45.8619 181.157 45.8619C180.649 45.8619 180.179 45.4069 179.783 44.541Z" fill="#C43B55"/>
<path d="M180.772 39.1012C180.311 38.0826 181.787 33.1421 181.787 30.9825C181.621 32.5377 180.893 35.9943 181.225 36.5104C181.418 36.7991 181.638 31.1557 181.787 30.9825L182.054 39.6173C181.844 39.8788 181.807 39.8788 181.604 39.8788C181.306 39.8788 181.019 39.5902 180.772 39.1012Z" fill="#A62E41"/>
<path d="M154.737 135.728L159.579 129.918V91.7628L154.737 97.5012V93.8748L160.574 87.2739V132.078L154.754 138.954L154.737 135.728Z" fill="#F985A0"/>
<path d="M154.737 135.728L159.579 129.919V110.767L160.574 109.671V132.078L154.737 139.351V135.728Z" fill="#C43B55"/>
<path d="M154.652 129.545L157.928 125.661V99.4165L154.737 103.019V99.6745L158.922 94.9276V127.273L154.754 132.221L154.652 129.545Z" fill="#F985A0"/>
<path d="M154.737 122.866L156.229 120.822V108.594L154.737 110.435V106.808L157.224 104.106V122.981L154.846 125.8L154.737 122.866Z" fill="#F985A0"/>
<path d="M154.647 122.554L156.204 120.89V114.6L157.212 113.589V123L154.739 125.993L154.647 122.554Z" fill="#C43B55"/>
<path d="M154.737 129.314L157.928 125.66V112.671L158.923 111.548V127.789L154.737 132.94V129.314Z" fill="#C43B55"/>
<path d="M176.842 122.523L182.059 116.336V136.02L176.842 142.237V122.523Z" fill="#003A79"/>
<path d="M178.622 127.158L182.06 123.07V136.02L178.622 140.105V127.158Z" fill="#FF8098"/>
<path d="M165.795 51.7326L168.292 65.0567L163.968 79.5896L161.478 66.2655L165.795 51.7326Z" fill="#C43B55"/>
<path d="M165.352 58.554L166.624 65.3722L164.421 72.7677L163.146 65.9766L165.352 58.554Z" fill="#911A31"/>
<path d="M161.45 139.732L168.319 131.589V152.336L161.45 160.478V139.732Z" fill="#C43B55"/>
<path d="M161.45 145.429L168.319 137.287V152.336L161.45 160.479V145.429Z" fill="#911A31"/>
<path d="M161.45 151.158L168.319 142.984V152.336L161.45 160.478V151.158Z" fill="#053866"/>
<path d="M161.45 155.82L168.319 147.674V152.336L161.45 160.478V155.82Z" fill="#0E2951"/>
<path d="M168.939 94.9271L174.573 87.0529L168.939 80.8459L174.573 72.9716L168.939 94.9271Z" fill="#911A31"/>
<path d="M181.231 59.301L182.06 58.2654V84.1937L181.231 85.2293V59.301Z" fill="#FF8098"/>
<path d="M179.905 60.8562L180.734 59.8205V85.7488L179.905 86.7844V60.8562Z" fill="#FF8098"/>
<path d="M175.577 66.0343L176.409 64.9987V90.927L175.577 91.9626V66.0343Z" fill="#FF8098"/>
<path d="M177.025 64.1636L178.023 63.128V89.0291L177.025 90.0647V64.1636Z" fill="#FF8098"/>
<path d="M178.575 62.408L179.404 61.3724V87.3007L178.575 88.3363V62.408Z" fill="#FF8098"/>
<path d="M175.191 92.3365L182.06 84.194V110.092L175.191 118.265V92.3365Z" fill="#0E2951"/>
<path d="M175.191 105.287L178.622 101.23V114.18L175.191 118.265V105.287Z" fill="#911A31"/>
<path d="M178.622 88.2517L182.06 84.194V97.1446L178.622 101.229V88.2517Z" fill="#911A31"/>
<path d="M169.99 129.952L173.523 125.07V140.628L169.99 145.531V133.26L172.863 129.28V138.669L170.65 141.742V135.175L172.2 133.025V136.774L171.313 137.996" stroke="#F985A0" stroke-miterlimit="10"/>
<path d="M159.387 160.478L155.425 142.611L156.89 140.991L161.065 158.944L159.387 160.478Z" fill="#003A79"/>
<path d="M157.133 162.553L155.028 165.178L158.469 139.351L160.574 137.287L157.133 162.553Z" fill="#003A79"/>
<path d="M165.849 108.598L166.945 107.301V111.447L165.849 112.741V108.598Z" fill="#911A31"/>
<path d="M164.337 116.078L165.433 114.781V118.927L164.337 120.251V116.078Z" fill="#911A31"/>
<path d="M162.824 123.589L163.92 122.292V126.438L162.824 127.732V123.589Z" fill="#911A31"/>
<path d="M154.497 64.5304L37.6348 64.5677L37.6821 168.406L154.453 168.434L154.497 64.5304Z" fill="#054270"/>
<path d="M154.453 168.434L37.6449 168.535L37.6348 64.5677L154.497 64.5304L154.453 168.434Z" fill="#053866"/>
<path d="M66.9464 142.523L37.6445 142.564V116.595L66.9464 116.581V142.523Z" fill="#F4F9FF"/>
<path d="M96.2085 142.52L66.9473 142.523V116.581L96.2085 116.547V142.52Z" fill="#55A2E0"/>
<path d="M125.473 142.489L96.208 142.519V116.547L125.473 116.516V142.489Z" fill="#A8D2FC"/>
<path d="M154.737 142.57L125.473 142.489V116.516L154.737 116.601V142.57Z" fill="#B9D5FD"/>
<path d="M96.2085 116.547L66.9473 116.581V90.6085L96.2085 90.5779V116.547Z" fill="#55A2E0"/>
<path d="M125.473 116.516L96.208 116.547V90.5777L125.473 90.5471V116.516Z" fill="#A8D2FC"/>
<path d="M154.737 116.601L125.473 116.516V90.5471L154.737 90.6286V116.601Z" fill="#55A2E0"/>
<path d="M96.2085 168.488L66.9473 168.492V142.523L96.2085 142.519V168.488Z" fill="#0E2951"/>
<path d="M125.473 168.458L96.208 168.488V142.519L125.473 142.489V168.458Z" fill="#FF8098"/>
<path d="M154.454 168.434H125.253V142.57L154.738 142.57L154.454 168.434Z" fill="#911A31"/>
<path d="M66.9468 90.6078L37.6449 90.6214L37.6348 64.5675L66.9468 64.6388V90.6078Z" fill="#C43B55"/>
<path d="M94.1814 88.7811L68.9736 88.8083V66.4385L94.1814 66.408V88.7811Z" stroke="#F985A0" stroke-width="4" stroke-miterlimit="10"/>
<path d="M125.473 90.5467L96.208 90.5773V64.6082L125.473 64.5743V90.5467Z" fill="#0E2951"/>
<path d="M154.737 90.6284L125.473 90.5469V64.5745L154.497 64.5304L154.737 90.6284Z" fill="#911A31"/>
<path d="M129.219 138.961V94.0819L154.454 94.0548L153.997 97.379L133.431 97.3994V135.619L154.738 135.728V139.358L129.219 138.961Z" fill="#55A2E0"/>
<path d="M128.944 94.0817L154.737 93.8678V97.501L133.431 97.3991V116.55L129.218 116.526L128.944 94.0817Z" fill="#003A79"/>
<path d="M136.242 132.941V100.822L154.737 99.6746V102.866L140.455 103.101V129.243L154.737 129.311V132.941H136.242Z" fill="#55A2E0"/>
<path d="M143.849 125.959V107.049L154.646 107.012L153.996 110.38L148.065 110.367V122.618L154.737 122.547V125.993L143.849 125.959Z" fill="#55A2E0"/>
<path d="M143.849 107.049L154.737 106.808V110.442L148.065 110.367V116.652L143.849 116.564V107.049Z" fill="#003A79"/>
<path d="M136.242 99.7833L154.737 99.6746V103.019L140.455 103.101V116.516H136.242V99.7833Z" fill="#003A79"/>
<path d="M52.2755 77.6233L37.6449 77.6505L37.6348 64.5675L52.2755 64.6524V77.6233Z" fill="#FF8098"/>
<path d="M106.941 168.369L96.3271 152.054L114.703 142.618L125.355 158.92L106.941 168.369Z" fill="#C43B55"/>
<path d="M108.853 162.071L103.429 153.728L112.832 148.906L118.215 157.259L108.853 162.071Z" fill="#911A31"/>
<path d="M125.473 85.3583L96.208 85.3889V64.6082L125.473 64.5743V85.3583Z" fill="#053866"/>
<path d="M125.473 79.6505L96.208 79.681V64.6082L125.473 64.5743V79.6505Z" fill="#911A31"/>
<path d="M125.473 73.9426L96.208 73.946V64.6082L125.473 64.5743V73.9426Z" fill="#C43B55"/>
<path d="M125.473 69.2737L96.208 69.2771V65.0292L125.473 64.9987V69.2737Z" fill="#FF8098"/>
<path d="M94.4484 120.775L68.7061 120.812L94.4484 137.25L68.7061 137.287" fill="#003A79"/>
<path d="M37.6035 116.347L41.8195 116.204V142.693L37.6035 142.835V116.347Z" fill="#55A2E0"/>
<path d="M43.1475 116.669L47.36 116.526V142.499L43.1475 142.638V116.669Z" fill="#55A2E0"/>
<path d="M60.8225 116.595L65.0351 116.452L64.9573 142.472L60.7041 142.625L60.8225 116.595Z" fill="#55A2E0"/>
<path d="M54.8506 116.649L59.1038 116.499V142.468L54.8506 142.621V116.649Z" fill="#55A2E0"/>
<path d="M49 116.672L53.2532 116.52V142.492L49 142.645V116.672Z" fill="#55A2E0"/>
<path d="M66.9464 116.581L37.6445 116.594V90.6218L66.9464 90.6082V116.581Z" fill="#A8D2FC"/>
<path d="M66.9464 168.492L37.6445 168.536V142.564L66.9464 142.523V168.492Z" fill="#053866"/>
<path d="M66.9466 103.579L52.2754 103.593V90.6218L66.9466 90.6082V103.579Z" fill="#55A2E0"/>
<path d="M37.6035 146.465V143.878C53.212 143.878 66.4385 150.855 66.4385 168.526L62.9263 168.471C62.9263 156.529 51.6894 146.445 37.6035 146.465Z" fill="#FF8098"/>
<path d="M37.5674 152.068V148.971C49.3118 148.971 59.378 155.983 59.378 168.434L55.1654 168.573C55.1654 159.422 47.8298 152.051 37.5674 152.068Z" fill="#D6516B"/>
<path d="M37.6035 157.881L37.6813 154.889C45.6801 154.889 51.6522 160.723 51.6522 168.505L47.7103 168.57C47.7103 162.95 43.8462 157.891 37.6035 157.881Z" fill="#C43B55"/>
<path d="M37.6035 164.135L37.6813 160.855C42.0529 160.855 45.3316 164.05 44.6278 168.397L41.1157 168.342C41.1157 165.833 40.3747 164.108 37.6035 164.135Z" fill="#A62E41"/>
<path d="M93.0484 87.8951L69.9893 87.7966L70.0705 67.3318L93.1296 67.4031L93.0653 83.542L74.3372 83.4606L74.3879 71.1246L88.7851 71.1891L88.7479 79.807L78.6817 79.7594L78.702 74.8291L84.4372 74.8631" stroke="#F985A0" stroke-width="4" stroke-miterlimit="10"/>
<path d="M150.639 87.4231L130.74 67.6849" stroke="#003A79" stroke-width="6" stroke-miterlimit="10"/>
<path d="M130.74 87.43L150.639 67.6782" stroke="#003A79" stroke-width="6" stroke-miterlimit="10"/>
<path d="M106.744 111.352L102.062 111.338V107.185L106.744 107.172V111.352Z" fill="#F4F9FF"/>
<path d="M113.183 105.63L108.5 105.613V101.464L113.183 101.481V105.63Z" fill="#F4F9FF"/>
<path d="M119.62 99.9085L114.94 99.922V95.7421L119.62 95.7591V99.9085Z" fill="#F4F9FF"/>
<path d="M59.8852 84.3703L37.6449 84.3974L37.6348 64.5675L59.8852 64.6558V84.3703Z" fill="#053866"/>
<path d="M53.9166 79.0664L37.6449 79.063L37.6348 64.5675L53.9166 64.6252V79.0664Z" fill="#FF8098"/>
<path d="M52.2752 116.591L37.6445 116.595V103.624L52.2752 103.593V116.591Z" fill="#55A2E0"/>
<path d="M154.731 90.6004L37.6914 91.0067V142.6H154.731V90.6004Z" fill="#D6516B"/>
<path opacity="0.3" d="M154.2 169L181.7 136.5V31.5L154.2 65V169Z" fill="black"/>
<path d="M181.793 30.9825L214.497 48.0567L189.932 81.0001L154.498 64.5303L181.793 30.9825Z" fill="#084C7F"/>
<path d="M33.5306 42.6001L64.7318 31.8001L37.9318 64.2001L4 75.6046L33.5306 42.6001Z" fill="#084C7F"/>
<path d="M132.274 97.1003L154.503 64.4489L37.7704 64.4489L15.2695 96.8592L132.274 97.1003Z" fill="#084C7F"/>
<path d="M194.878 5.43802L181.794 30.9826L64.8906 31.4274L77.6061 5L194.878 5.43802Z" fill="#084C7F"/>
<defs>
<filter id="filter0_f" x="-20" y="-35" width="241" height="241" filterUnits="userSpaceOnUse" color-interpolation-filters="sRGB">
<feFlood flood-opacity="0" result="BackgroundImageFix"/>
<feBlend mode="normal" in="SourceGraphic" in2="BackgroundImageFix" result="shape"/>
<feGaussianBlur stdDeviation="40" result="effect1_foregroundBlur"/>
</filter>
<linearGradient id="paint0_linear" x1="198.156" y1="37.1852" x2="197.232" y2="62.5355" gradientUnits="userSpaceOnUse">
<stop stop-color="#215198"/>
<stop offset="1" stop-color="#1F447C"/>
</linearGradient>
<linearGradient id="paint1_linear" x1="77.4995" y1="112" x2="40.9995" y2="100" gradientUnits="userSpaceOnUse">
<stop stop-color="#032B57"/>
<stop offset="1" stop-color="#0A3D76"/>
</linearGradient>
<radialGradient id="paint2_radial" cx="0" cy="0" r="1" gradientUnits="userSpaceOnUse" gradientTransform="translate(100.034 71.5345) rotate(90) scale(32.1207)">
<stop stop-color="#0095FF"/>
<stop offset="1" stop-color="#BCE3FF"/>
</radialGradient>
</defs>
</svg>
