<svg version="1.1" id="Слой_1" xmlns="http://www.w3.org/2000/svg" x="0" y="0" viewBox="0 0 250 250" xml:space="preserve"><style>.st0{fill:#9a384b}.st1{fill:#40689d}.st2{fill:#882f40}.st3{fill:#e87891;stroke:#000;stroke-width:.2}.st6{fill:#2f527f}.st8{fill:#793e4b}</style><path class="st0" d="M135.8 225.5l-10.6-5.8c-11.4-6.3-20.6-16-26.3-27.8-4.9-10.1-6.7-21.9-6.7-34.2-.1-11.1 1.7-22.2 5.5-32.6l10.6 5.8c-3.7 10.5-5.6 21.5-5.5 32.6 0 12.4 1.7 24.1 6.7 34.2 5.6 11.9 14.8 21.6 26.3 27.8z"/><path class="st0" d="M107.5 132.6l-9.9-7.7c1-2.7 2.2-5.4 3.5-8 .4-.9 2.4-4 2.8-4.8l11.1 6.1c-.5.9-2 4.4-2.4 5.3-1.3 2.6-3.4 5.8-4.4 8.6"/><path class="st1" d="M78.8 39l-11.1-5.9c.7-.1 2.5-.6 3.2-.5L82.8 39c-.7-.2-2.2-.1-2.9 0"/><path class="st1" d="M81.5 38.6l-10.6-5.8c.3.1.7.2 1 .4L82.5 39c-.3-.2-.6-.4-1-.4zm1 .3l-10.6-5.8h.2l10.6 5.8h-.2zm-42 73.6l-11.1-6.3c-3.9-12.9-3.9-26.7 0-39.6l.6-1.8L42.5 71l-.6 1.8C38 85.7 36.6 99.1 40.5 112"/><path class="st1" d="M40.7 70.6L30 64.8c.8-2.2 3.2-7.6 4.3-9.7l9.2 9c-1 2.1-2 4.3-2.8 6.5z"/><path class="st1" d="M43.6 64.1L33 58.3c.9-1.7 1.9-3.3 3-4.8l10.6 5.8a38.8 38.8 0 00-3 4.8z"/><path class="st1" d="M41.5 73L36 53.5c1-1.4 2.1-2.8 3.2-4.1l18.8-.9C56.8 49.8 42.5 71.6 41.5 73z"/><path class="st1" d="M49.8 55.1l-10.6-5.8c1-1.1 2-2.1 3.1-3.1l.8-.7L55.5 50l-2.6 2c-1.1 1-2.1 2-3.1 3.1z"/><path class="st1" d="M53.7 51.2L43 45.5c1.6-1.4 3.2-2.7 4.9-3.9l10.6 5.7c-1.7 1.2-2 3-3.6 4.4"/><path class="st1" d="M58.5 48.8L48 41.5c2.5-1.7 5-3.2 7.7-4.5l10.6 5.8c-2.6 1.3-5.4 4.3-7.8 6z"/><path class="st1" d="M50.1 55.2l5.7-18.1c4-1.8 8.1-3.3 12.4-4.3h.6l10.6 5.7-.6.1c-4.3 1-24.8 14.7-28.7 16.6z"/><path class="st0" d="M85.1 205.4l-10.8-6.2 9.7-1.4 14.5 6.4-13.4 1.2z"/><path class="st2" d="M79.8 213.1l-10.6-5.8c-.9-.5-1.5-1.2-2-2.1s-.7-1.8-.7-2.8l10.6 5.8c0 1 .2 2 .7 2.8s1.2 1.5 2 2.1"/><path class="st2" d="M78.3 210.5l-11.8-8.1.1-60.4 11 5 .7 63.5zm20.6-4.5l-15-8.1.3-172.4L96 30.4 98.9 206z"/><path class="st0" d="M65.9 144.7l-8.4-9.8 16.9-2.4 10.6 5.8-19.1 6.4z"/><path class="st2" d="M37 211.7l-10.6-5.8 31.1-71 10.6 5.8-31.1 71z"/><path class="st0" d="M22.7 213.7l-10.6-5.8 14.5-2.5 10.8 6.2-14.7 2.1z"/><path class="st2" d="M16.4 222.1l-10.6-5.9c-1.2-.7-2.1-1.9-2.5-3.3-.4-1.4-.2-4.1 1.6-7l9.8 8.7c-.6 1.3-.4 2.1 0 3.5s.6 3.1 1.8 3.9"/><path class="st2" d="M14.1 214.6l-10.6-5.8.3-.7 10.6 5.8c0 .3-.2.5-.3.7z"/><path class="st0" d="M53.4 139.8L42.8 134l4.3 1 10.6 5.8-4.3-1z"/><path class="st2" d="M14.4 213.9l-10.6-5.8 32.3-67.3 10.6 5.8-32.3 67.3z"/><path class="st0" d="M48.6 137.9L38 132.1l.9.5 10.6 5.8-.9-.5"/><path class="st0" d="M49.5 138.4l-10.6-5.8c1.2.6 2.4 1.1 3.7 1.4l10.6 5.8c-1.3-.4-2.6-.8-3.7-1.4z"/><path class="st0" d="M53.1 139.8L42.5 134h.3l10.6 5.8h-.3zM85.4 23.7l-10.6-5.8c4-.5 8.1-.9 12.2-.9.4 0 1.4.1 1.8.3l10.8 5.9c-.4-.1-1.7-.4-2.1-.4-4 0-8.1.3-12.1.9z"/><path class="st0" d="M98.9 22.9l-10.6-5.8.9.3 10.6 5.8-.9-.3z"/><path class="st0" d="M99.8 23.3l-10.6-5.8h.2l10.6 5.8h-.2z"/><path class="st2" d="M44.4 145.5l-10.6-5.8c-9.8-5.3-21.2-18.2-23.3-42.6l12.3 6.6c2.3 24.4 11.8 36.5 21.6 41.8z"/><path class="st0" d="M21 102.9l-10.6-5.8 7.7-1.9 10.6 5.8-7.7 1.9zm.3-21.8l-10.6-5.9c.5-5.1 1.7-10.2 3.5-15.1l13.1 4.2c-1.9 5-5.5 11.6-6 16.8"/><path class="st0" d="M24.7 66.1l-10.6-5.8c.9-2.5 2-5 3.3-7.3L28 58.7c-1.2 2.4-2.3 4.9-3.3 7.4z"/><path class="st0" d="M23.7 67.1L17.4 53c1-2 2.2-3.8 3.5-5.7l14.6.7c-1.2 1.8-10.7 17.2-11.8 19.1z"/><path class="st0" d="M31.5 53.1l-10.6-5.8c1.2-1.7 2.6-3.4 4-5l15.4.8c-1.4 1.7-7.5 8.2-8.8 10z"/><path class="st0" d="M35.5 48l-11.6-4.6c1.7-2.2 5.3-5.8 7-7.3l11.9 6c-1.7 1.5-5.9 6.1-7.5 7.8"/><path class="st0" d="M40.3 43.1l-10.6-5.8c2.1-1.9 6.3-5.1 9.5-6.9L47 38c-2.3 1.6-4.6 3.3-6.7 5.1z"/><path class="st0" d="M47 38l-10.6-5.8c1.9-1.3 3.8-2.5 5.8-3.6 1.6-.9 3.3-1.8 4.9-2.6l13.1 5.3c-1.7.8-5.8 2.1-7.5 3.1-1.9 1-3.8 2.3-5.7 3.6"/><path class="st0" d="M57.8 33.4L47.1 26c8.8-4 18.8-6.9 28.3-8.2l18.2 5.1c-9.5 1.3-27 6.5-35.8 10.5z"/><path class="st3" d="M85.4 23.8c4-.6 8.1-.9 12.2-.9.7 0 1.4.2 2 .4.6.3 1.2.7 1.6 1.2.5.5.8 1.1 1 1.7s.3 1.3.3 2l-.3 176.4c0 1.6-.6 3.2-1.6 4.5s-2.5 2.1-4.1 2.4L83 213.4c-.7.1-1.5 0-2.2-.2s-1.4-.6-1.9-1.1-1-1.1-1.2-1.8c-.3-.7-.4-1.4-.3-2.2v-60.5h-.1l-4.2.6H73v.1l-29.6 67.3c-.5 1-1.2 2-2.1 2.7-.9.7-1.9 1.2-3.1 1.4l-18.8 2.7c-2.1.3-3.8-.7-4.8-2.3-.9-1.6-1.1-3.9-.1-6.1l32.3-67.3v-.1h-.1c-10.2-4.5-23.2-17.4-25.6-43.6l7.5-2c2.5 26.8 17.2 37 24.8 38.8l4.2 1-34.9 72.7-.1.2h.2l14.2-2h.1v-.1l31.1-70.9 16.7-2.3v66.7h.1l9.7-1.4h.1v-.1l.3-172.5V31H95c-3.2.1-6.3.4-9.5.8-10.4 1.4-20.6 4.6-29.8 9.6-13.7 7.8-24.8 20-26.8 39.5l-7.5.1c2.5-23.2 16-38 31.4-46.6 10.1-5.5 21.2-9.1 32.6-10.6z"/><path class="st1" d="M59 121.6l-10.6-5.8.7.3 10.7 5.7c-.3 0-.5-.1-.8-.2"/><path class="st1" d="M59.6 122.2l-10.5-6.1c.9.4 1.9.8 2.9 1.1l.8.2 11.5 5.9h-1.7c-1-.3-2-.7-3-1.1"/><path class="st1" d="M63.4 123.3l-10.6-5.8c3.2.8 6.5.9 9.8.4 1.3-.2 4-.7 5.2-1l9.8 6c-1.3.3-3.1.6-4.4.8-3.3.6-6.6.4-9.8-.4"/><path class="st1" d="M78.5 123.5l-12-4.8V42.2l12 4.8v76.5zm-24 6.3L43.9 124c-5.7-3.1-10.8-8.7-14.5-17.8l11.1 5.8c4.5 9 8.3 14.7 14 17.8z"/><path d="M79.4 38.4c.8-.1 1.5-.1 2.3.1.7.2 1.4.6 2 1.1s1 1.1 1.3 1.9c.3.7.4 1.5.4 2.2l-.1 80.4c0 1.6-.5 3.1-1.4 4.3-.9 1.3-2.2 2.2-3.7 2.7-2.3.7-4.6 1.2-7 1.6-4.6.7-9.3.4-13.8-.9-7.6-2.3-14.6-8.3-19.3-19.9-3.9-12.9-3.9-26.7 0-39.6C42.6 64.7 47 57.6 52.9 52c7.3-6.6 16.2-11.3 25.9-13.4l.6-.2zm-2.3 84.5l.1-74.9c-7.2 1.9-13.8 5.5-19.3 10.4-4.6 4.4-8.1 9.9-10 15.9-3.2 10.9-3.2 22.4 0 33.3 3.3 8.3 8.3 13.5 14.7 15.4 3.4 1 7.1 1.2 10.6.6 1.3-.1 2.6-.3 3.9-.7z" fill="#b4d1fa"/><path d="M79.4 38.4v-.2.2zm6 5.4h-.2.2zm-.1 80.4h-.2.2zm-5.1 7l.1.2-.1-.2zm-7 1.6v-.2.2zm-13.8-.9l-.1.2.1-.2zm-19.2-19.8l-.2.1.2-.1zm0-39.6l-.2-.1.2.1zM52.9 52zm25.9-13.4v-.2.2zM77.2 48h.2v-.3l-.3.1.1.2zM58 58.5zM48 74.4l-.2-.1.2.1zm0 33.3l-.2.1.2-.1zm14.6 15.4l-.1.2.1-.2zm10.6.6v-.2.2zm6.2-85.1c.7-.1 1.5-.1 2.2.1l.1-.4c-.8-.2-1.6-.3-2.4-.1l.1.4zm2.2.1c.7.2 1.4.7 1.9 1.2l.3-.3c-.6-.5-1.3-1-2.1-1.3l-.1.4zm1.9 1.2c.6.5 1 1 1.3 1.7l.4-.1c-.3-.7-.8-1.4-1.4-1.9l-.3.3zm1.3 1.7c.3.7.4 1.4.4 2.2h.4c0-.8-.1-1.6-.4-2.3l-.4.1zm.4 2.2l-.1 80.4h.4l.1-80.4h-.4zm-.1 80.4c0 1.5-.5 3-1.4 4.2l.3.2c.9-1.3 1.4-2.8 1.4-4.4h-.3zm-1.4 4.2c-.9 1.2-2.1 2.1-3.6 2.6l.1.4c1.5-.5 2.8-1.6 3.8-2.8l-.3-.2zm-3.6 2.6c-2.3.7-4.6 1.2-7 1.6l.1.4c2.4-.4 4.7-.9 7-1.6l-.1-.4zm-6.9 1.6c-4.6.7-9.2.4-13.7-.9l-.1.4c4.5 1.3 9.2 1.6 13.8.9v-.4zm-13.7-.8c-7.6-2.3-14.5-8.2-19.2-19.7l-.4.1c4.7 11.7 11.7 17.6 19.4 20l.2-.4zM40.4 112a68.14 68.14 0 010-39.5l-.4-.1c-3.9 13-3.9 26.8 0 39.7l.4-.1zm0-39.5c2.4-7.8 6.8-14.8 12.7-20.4l-.3-.3c-6 5.7-10.4 12.8-12.8 20.6l.4.1zm12.7-20.4c7.3-6.6 16.1-11.2 25.7-13.4l-.1-.4c-9.7 2.2-18.5 6.9-25.9 13.5l.3.3zm25.7-13.4l.6-.1-.1-.4-.6.1.1.4zm-1.5 84.2l.1-74.9H77l-.1 74.9h.4zm-.1-75.1c-7.2 1.9-13.9 5.5-19.4 10.5l.3.2c5.5-4.9 12.2-8.4 19.3-10.3l-.2-.4zM57.8 58.3c-4.7 4.4-8.1 9.9-10.1 16l.4.1c1.9-6 5.3-11.5 10-15.9l-.3-.2zm-10.1 16c-3.2 10.9-3.1 22.5.1 33.4l.4-.1c-3.2-10.8-3.3-22.4-.1-33.2l-.4-.1zm.1 33.4c3.3 8.3 8.4 13.6 14.8 15.5l.1-.4c-6.3-1.9-11.2-7.1-14.6-15.3l-.3.2zm14.8 15.6c3.5 1 7.1 1.2 10.7.6l-.1-.4c-3.5.6-7.1.4-10.5-.6l-.1.4zm10.7.6c1.3-.2 2.7-.6 4-1l-.2-.2c-1.3.3-2.8.7-4.1.9l.3.3z"/><path d="M218.5 202.6l-10.6-5.8-.3-.2 10.6 5.8c.1.1.2.2.3.2z" fill="#5e6d82"/><path class="st1" d="M196.8 181.1l-10.6-5.8c5.8-6 6.8-9.2 7.5-10.1l5.5 13.3c-.9 1-1.7 1.8-2.4 2.6z"/><path class="st1" d="M199.2 178.5l-10.6-5.8.2-.2c.8-1 1.6-2 2.3-3l10.6 5.8c-.7 1-1.5 2.1-2.3 3l-.2.2z"/><path class="st1" d="M199.4 178.6l-8.4-9.1c1.2-1.7 2.4-3.6 3.4-5.5l18.6-1.5c-1 1.9-10.1 12-11.3 13.8"/><path class="st1" d="M205.1 169.8l-10.6-5.8.8-1.6c1-2.1 2-4.3 2.8-6.4l10.6 5.8c-.8 2.1-1.7 4.3-2.8 6.4l-.8 1.6z"/><path class="st1" d="M208.7 161.8L198 156c.6-1.7 1.2-3.5 1.6-5.2 0-.2 0-.3.2-.5l10.8 5.8c0 .2 0 .4-.2.5-.5 1.8-1 3.5-1.6 5.2"/><path class="st1" d="M210.6 156.1l-10.6-5.8c.1-.2.2-.5.3-.7l10.5 5.9c-.1.2-.2.4-.3.7"/><path class="st1" d="M210.8 155.5l-10.6-5.8c.1-.2.2-.4.3-.5l10.6 5.8c0 .1-.2.3-.3.5zm.3-.7l-10.6-5.8.4-.5 10.6 5.8-.4.5z"/><path class="st1" d="M212.1 154.3l-14.4-6.4c.4-.2 4.8-1.1 5.2-1.2h1.1c.6.1.9.2 1.2.4l.5.2 11.3 6.4h-1.4c-.4.1-3.1.4-3.5.6zm-57.5 34.9l-10.7-5.7 1.1.6 10.6 5.8c-.4-.3-.7-.4-1-.7"/><path class="st1" d="M155.6 189.8L145 184a31 31 0 005.8 2.1l10.6 5.8a31 31 0 01-5.8-2.1z"/><path class="st1" d="M161.4 191.9l-10.6-5.8c4.2 1.1 8.5 1.3 12.8.7 3.8-.6 7.4-1.7 10.8-3.3l12.9 6.1c-3.4 1.6-9.5 4.1-13.3 4.6-4.3.6-9.1-.1-13.3-1.2"/><path class="st1" d="M185 189.3l-15.5-3.9c3-1 8.9-4 10.8-5.3l10.7 5.7c-1.9 1.3-3.9 2.4-6 3.5"/><path class="st1" d="M187.3 192.5l-7-12.4c1.6-1.1 3-2.2 4.4-3.5l18.2 1.4c-1.4 1.3-4.8 6.4-6.4 7.5"/><path class="st1" d="M195.4 182.4l-10.6-5.8 5.2-4.8 6.8 9.4-1.4 1.2"/><path class="st6" d="M200 120.1l-11.4-5.9c-.2-.1-.4-.2-.5-.3-1.4-1.2-3-2.3-4.7-3.2l10.7 5.4c1.7.9 3.9 2.4 5.4 3.6.2.2.3.3.5.4zm-50 77.3l-10.6-5.9c-7.1-3.9-12.8-9.9-16.3-17.2 0-.1-.1-.2-.2-.3l12.9 2.3 1.6 2.6c3.5 7.3 5.6 14.6 12.6 18.5z"/><path class="st1" d="M115 187.5l-10.6-5.8 15.6-16 13.3 5.2-18.3 16.6z"/><path class="st6" d="M131.7 172.1l-11.7-6.4c-1-4-1.5-8.1-1.5-12.3 0-5.8 1-11.6 2.8-17l11.6 4.2c-1.8 5.5-3.8 12.9-3.8 18.6 0 4.1 1.6 8.8 2.6 12.9z"/><path class="st1" d="M135.5 133.5l-10.6-5.8.9-1.7 11.1 5.6-1.4 1.9z"/><path class="st1" d="M136.1 132.4l-10.6-5.8c1.1-2.1 2.3-4.1 3.7-6l10.6 5.8c-1.4 2-2.7 4-3.7 6z"/><path class="st1" d="M139.7 129.2l-10.6-8.5c2.2-3.1 4.4-6 7.4-8.6l9.2 8.6c-1.4 1.6-4.7 6.7-6 8.5z"/><path class="st1" d="M143.8 121.3l-10.6-5.8c1.5-1.6 3-3.2 4.7-4.7l10.6 5.8c-1.7 1.5-3.3 3.1-4.7 4.7z"/><path class="st1" d="M148.4 116.7l-10.6-5.8c1.7-1.6 3.6-3 5.5-4.4l10.6 5.8c-2 1.4-3.8 2.8-5.5 4.4"/><path class="st1" d="M153.8 112.4l-10.6-5.8c2.3-1.6 4.8-3 7.3-4.2l10.6 5.8c-2.5 1.1-5 2.5-7.3 4.2"/><path class="st1" d="M155.6 113.7l-5.1-11.3c4.2-2 8.6-3.3 13.2-4l10.6 5.8c-4.5.7-9 2-13.2 4"/><path d="M131.9 142.2l-10.6-5.8-10.2-7 5.5 2.4 15.3 10.4z" fill="#285ea4"/><path class="st0" d="M241.6 160.1l-12.1-5.8c1.1-.3 1.7-.6 3.5 0l10.4 5.8h-1.8z"/><path class="st0" d="M243.4 160.2l-10.6-5.8 10.8 5.8"/><path class="st2" d="M241.5 150.8l-10.6-5.8c-.6-.4-1.1-.9-1.5-1.5-.3-.6-.5-1.3-.4-2v-2.9c0-3.8-.3-7.7-.9-11.4l11.2 5.2c.6 3.8.8 8.3.7 12.1 0 1 .4 1.9.4 2.9-.1.7-.3 1.1 0 1.7.3.6 1.1.8 1.7 1.2"/><path class="st0" d="M242.2 123.5l-10.7-5.8c.5-.1 1-.1 1.4 0l10.6 5.8c-.3-.1-.8-.1-1.3 0"/><path class="st0" d="M242.8 123.5l-10.5-5.9 1.6.4 10.6 5.8-1.7-.3zm1.5.3l-10.6-5.8 10.6 5.8zm-65.2 34.6l-10.6-5.8 31.6-5.3 11 6.4-32 4.7zm-6.4 9.2l-10.6-5.8c-.3-.1-.5-.3-.7-.5-.4-.4-.7-.9-.9-1.4s-.3-1.1-.3-1.6l10.6 5.8c0 .6.1 1.1.3 1.7.2.5.5 1 .9 1.4.2.2.4.3.7.4m26.9-55.2l-11.1-6.7 14.9-19 11.1 5.7-14.9 20z"/><path class="st8" d="M199.9 118.2l-10.6-5.8c-.2-.1-.4-.3-.6-.4-.6-.6-1.1-1.4-1.2-2.3-.2-.9-.1-1.8.2-2.6l10.6 5.8c-.3.8-.4 1.7-.2 2.6s.6 1.6 1.2 2.3c.1.1.4.3.6.4z"/><path d="M198.3 112.9l-10.6-5.8c0-.2.2-.5.3-.7l10.6 5.8c-.1.3-.2.5-.3.7z" fill="#7d414e"/><path d="M198.6 112.2l-10.6-5.7c0-.2.2-.4.3-.6l10.6 5.7c-.1.3-.2.5-.3.6" fill="#824351"/><path d="M198.9 111.7l-10.6-5.8.2-.2 10.6 5.8-.2.2z" fill="#874654"/><path class="st0" d="M140.2 217.3l-10.6-5.8 2 1 10.6 5.8-2-1"/><path class="st0" d="M142.2 218.4l-10.6-5.8c3.3 1.6 6.7 2.9 10.2 3.8l10.5 5.7c-3.5-.9-6.9-2.1-10.1-3.7z"/><path class="st0" d="M152.4 222.9l-12-6.9c7.3 1.9 16.4 2.6 23.8 1.5 6.6-.9 13-2.9 19-5.7l10.6 5.8c-6 2.9-12.1 5.2-18.7 6.1-7.4 1.1-15.4 1.1-22.7-.8z"/><path class="st0" d="M190.3 222.1l-7.1-10.3c3.6-1.7 7.1-3.7 10.4-6l11.9 6c-3.3 2.3-8.2 4.4-11.9 6.1"/><path class="st0" d="M204.6 212.1l-12.7-5.2c2.7-1.9 8.5-6.4 11-8.7l10.4 7.5c-2.5 2.3-5.9 4.5-8.7 6.4z"/><path class="st0" d="M212.7 205.8l-11.3-6.2c2.3-2.1 4.5-4.3 6.6-6.7l10.6 5.8c-2 2.3-3.6 5-5.9 7.1zm6-7.1l-10.6-5.8.4-.5c1.9-2.2 3.7-4.6 5.4-7l10.7 5.8c-1.7 2.4-3.5 4.8-5.4 7l-.5.5"/><path class="st0" d="M224.6 191.3l-11.3-5.1c1.9-2.7 4.7-7 6.3-10l10.3 6.5c-1.7 3-3.4 5.8-5.3 8.6z"/><path class="st0" d="M229.8 182.7l-10.6-5.8c1.9-3.5 3.5-7.1 4.9-10.9l11.8 5.6c-1.4 3.7-3.3 8.1-5.2 11.6"/><path class="st0" d="M233.5 175.1l-9.8-8.1c1-2.7 2.2-6.4 2.9-9.2 0-.2.6-2.9 2.9-3.5l12.8 5.9c0 .2-5 3.2-5.1 3.4-.7 2.8-1 6.5-2 9.2"/><path class="st0" d="M237.4 163l-10.5-5.8c.1-.2.2-.5.3-.7l10.6 5.8c-.1.3-.2.5-.4.7"/><path class="st0" d="M237.7 162.3l-10.6-5.8c0-.2.2-.4.3-.6l10.6 5.8c-.1.3-.2.4-.3.6z"/><path class="st0" d="M238.1 161.8l-10.6-5.8.4-.5 10.8 5.8-.4.5"/><path class="st0" d="M238.1 161.8l-10.4-6.3.4-.4 10.6 5.8 1-.8"/><path class="st0" d="M239.3 161.3l-11.1-6.2c.2-.1.3-.3.5-.4l10.6 5.8c-.1.1.2.6 0 .8zm.1-.8l-10.6-5.8.7-.4 10.6 5.8-.7.4"/><path class="st0" d="M239.3 160.7l-11-5.8c.6-.6 1.9-.8 2.3-.9.4-.1.7-.1 1.1 0l10.6 5.8c-.4-.1-.7-.1-1.1 0-.4.1-1.5.7-1.9.9z"/><path class="st8" d="M214 92.6l-10.6-5.9c-1.8-1.1-3.6-2.1-5.4-3.1l10.6 5.8c1.7 1 3.5 2 5.4 3.2"/><path class="st0" d="M173.4 134.7l-8.7-7.5 66.8-9.5 12.9 6.1-71 10.9zm-2.4 31l-10.9-7.5.1-26.1 10.5 5.8.3 27.8z"/><path class="st0" d="M171.1 138.7l-10.9-6.5c0-.6.2-1.8.5-2.4l10.4 6.4c-.2.6.6 1.9.6 2.5"/><path class="st0" d="M171.1 136.2l-10.6-5.8c.2-1.1 1.5-1.8 1.6-2l9.3 7.1c-.1.2-.2.4-.3.7z"/><path class="st0" d="M171.5 135.5l-10.6-5.8c.1-.2.2-.4.3-.5l10.6 5.8c-.2.1-.3.3-.3.5z"/><path class="st0" d="M170.7 140.7l-9.5-11.5.3-.3c1-1.1 2.8-1.7 3.4-1.7l8.1 6.9-.7.6-1.6 7.3"/><path class="st3" d="M246.2 126.4c1.1 5.5 1.7 11.1 1.7 16.8v3.2c0 1.1-.5 2.2-1.2 3.1-.7.9-1.7 1.5-2.9 1.7-.5.1-1.1 0-1.6-.2s-1-.5-1.4-.8c-.4-.4-.7-.8-.9-1.4-.2-.5-.2-1.1-.2-1.6v-2.9c0-3.8-.3-7.7-.9-11.5v-.1h-.1l-59.7 8.4h-.1v17.4h.1l35.9-5.3c.4 0 .8.1 1.2.3.1 0 .2.1.2.1l-1.6 8.7-39.9 5.6c-.5.1-1 .1-1.5-.1-.5-.1-.9-.4-1.3-.7-.4-.4-.7-.8-.9-1.3s-.3-1-.3-1.6v-26.1c0-1.3.4-2.5 1.3-3.5.7-.9 1.7-1.5 2.9-1.7l67.3-9.5c.9-.1 1.8.1 2.6.7.7.6 1.2 1.4 1.3 2.3z"/><path class="st0" d="M113.1 120.4l-10.6-5.8c1.8-3.3 3.8-6.6 5.9-9.6l16.8.9c-2.2 3-10.4 11.2-12.1 14.5z"/><path class="st0" d="M119 110.8l-10.6-5.8c2-2.9 4.2-5.7 6.6-8.3l14.1 1.4c-2.4 2.6-8.1 9.8-10.1 12.7"/><path class="st0" d="M125.6 102.4L115 96.6c2.3-2.6 4.8-5.2 7.4-7.5l17.4 1.9c-2.6 2.4-11.9 8.8-14.2 11.4z"/><path class="st0" d="M133 94.9l-10.6-5.8c2.8-2.5 5.8-4.8 8.9-7l10.6 5.8c-3.2 2.2-6.1 4.5-8.9 7z"/><path class="st0" d="M140.5 90.2l-9.2-8c3.7-2.6 7.6-4.9 11.7-6.8l13.2 5c-4.2 1.9-12 7.2-15.7 9.8z"/><path class="st0" d="M154.4 82l-11.5-6.6c6.8-3.2 14-5.4 21.4-6.5 8-1.3 16.3-1 24.2.9l10.6 5.8c-7.9-1.9-16.1-2.2-24.2-.9-7.4 1.1-13.5 4-20.3 7.2"/><path class="st0" d="M197.1 75.7l-13.3-6.9c1.2.3 4 .6 8.7 1.7 2.5.9 14.4 4.6 22.5 11l8.7 6.4c-2.4-1.2-18.6-10.4-21.1-11.2-1.1-.3-2.3-.7-3.4-1"/><path class="st3" d="M245.2 164.8c-3.7 14.4-10.7 27.8-20.5 39-12.7 15.2-30.4 25.2-49.9 28.3-13.1 2.1-26.6-.2-38.3-6.4-11.8-6.2-21.2-16-26.9-28-5-10.1-6.7-21.8-6.7-34.2-.2-14.1 2.8-28 8.9-40.6 12.5-25.2 36.3-44.4 63.3-48.2 9.2-1.6 18.6-.9 27.5 1.9 7 2.7 13.8 6.1 20 10.3.5.3.9.7 1.2 1.2s.5 1.1.5 1.7c.1 1.3-.3 2.6-1.1 3.6L205 116.7c-1.1 1.1-1.8 1.6-3 1.8-.5.1-1 0-1.5-.1s-.9-.4-1.3-.7c-.8-.8-1.2-1.9-1.3-3 0-1.1.4-2.2 1.1-3.1l14.9-18.9.1-.1-.1-.1c-4.6-3-9.6-5.4-14.7-7.3-7.8-2.5-16.2-3-24.3-1.6-24 3.2-45 20.2-56.2 42.7-5.4 11.3-8 23.6-7.8 36.1 0 11.5 1.6 21.8 5.8 30.3 5.1 10.7 13.4 19.4 23.9 24.9s22.4 7.5 34.1 5.6v-.1.1c17.3-2.8 33.1-11.7 44.4-25.1 8.7-10 14.9-21.9 18.2-34.7.2-.9.7-1.8 1.4-2.5s1.6-1.1 2.5-1.3c.3-.1.7-.1 1.1 0 .5.1 1 .3 1.5.7.4.3.8.7 1.1 1.2s.4 1 .5 1.5c0 .8-.1 1.3-.2 1.8z"/><path class="st1" d="M170.8 107.6l-7.1-9.2c5.2-.8 10.5-.5 15.6.8L190 105c-5.1-1.3-14 1.9-19.2 2.6z"/><path class="st1" d="M185.3 104.1l-5.9-4.9c2.4.6 4.8 1.5 7 2.6l10.6 5.8c-2.2-1.1-9.3-2.9-11.7-3.5z"/><path d="M190 105c-36.3-8.4-54.5 28.3-54.5 28.3l-.1.1-.1-.1-15.1-9.5c-1.6 3.1-2.5 4.8-3.7 8l15.3 10.3h.1v.1c-1.8 5.5-2.7 11.2-2.7 16.9h0c0 4.1.5 8.3 1.5 12.3v.1h0l-16.2 15.3c.6 2.3 2.2 6.4 3.9 9.2l15.3-16.2.1-.1.1.1.2.3h0c3.5 7.4 9.3 13.5 16.6 17.3 7.2 3.8 15.5 5.2 23.6 4h0c9.3-1.4 18-5.4 25.1-11.6l.1-.1h.1l16.9 11.2h0s.1.1.2 0c.1 0 .2-.1.4-.3.3-.3.8-.7 1.3-1.4.5-.5 1-1.2 1.6-1.9.1-.1.2-.2.3-.4.7-.9 1.5-1.9 2.4-2.9l-16.6-11.1-.1-.1.1-.1c2.8-3.5 5.2-7.3 7.2-11.4h0c2.2-4.4 3.9-9 5.2-13.7h0c.2-.5.2-1 .2-1.6-.1-.5-.2-1-.5-1.5s-1.1-1.5-2.8-1.5l-4 .6c-.2.8-.3 1.3-.4 1.6-.1.5-.1.6-.3 1.2h0c-1.1 4-2.5 7.9-4.4 11.7-1.8 3.6-4 7.1-6.5 10.2h0c-.8 1-1.7 1.9-2.6 2.8-6.1 6.1-14.1 10.1-22.7 11.4-6.6 1.1-13.5-.1-19.4-3.2-6-3.1-10.7-8.1-13.6-14.2-.8-1.6-1.4-3.2-2-4.9h0c-1.2-4-1.9-8.1-1.8-12.3h0c0-5.7 1.2-11.4 3.4-16.8l1.6-3.8c6.3-12.7 18.3-22.4 32-24.4 4.3-.7 8.7-.4 12.9.7s8.1 3.1 11.5 5.9c.4.3.8.5 1.3.6.2.1.3.1.4.1h.5c.3 0 .6-.2 1-.4s.7-.5 1-.8h0l1.2-1.2c.6-.6 1.7-1.7 2.8-3.4-1.4-1.1-1.9-1.5-2.1-1.6h0l-.2-.2-.3-.3-.1-.1c-4.6-3.2-9.5-5.8-14.6-7.2m-56.5 75h0" fill="#b4d1fa" stroke="#000" stroke-width=".2"/><path class="st1" d="M197.1 107.6l-10.6-5.7c.5.2.9.4 1.4.7l10.6 5.8c-.5-.3-1-.5-1.4-.8"/></svg>