<?xml version="1.0" encoding="utf-8"?>
<!-- Generator: Adobe Illustrator 23.0.3, SVG Export Plug-In . SVG Version: 6.00 Build 0)  -->
<svg version="1.1" id="Слой_1" xmlns="http://www.w3.org/2000/svg" xmlns:xlink="http://www.w3.org/1999/xlink" x="0px" y="0px"
	 viewBox="0 0 220 220" style="enable-background:new 0 0 220 220;" xml:space="preserve">
<style type="text/css">
	.st0{fill:#40689D;}
	.st1{fill:#9A384B;}
	.st2{fill:#793E4B;}
	.st3{fill:#882F40;}
	.st4{fill:#E87891;stroke:#000000;stroke-width:0.2;}
	.st5{fill:#5E6D82;}
	.st6{fill:#B4D1FA;stroke:#000000;stroke-width:0.2;}
</style>
<path class="st0" d="M91.1,28.6l-12.4-6.8c6.9-1,14-0.6,20.8,1.1l12.4,6.8C105.1,27.9,98,27.6,91.1,28.6z"/>
<path class="st0" d="M59.8,152.9l-13.4-7c-16.7-9.1-27.8-27.8-27.8-50.9c0-8.7,1.6-17.4,4.6-25.5l14,6.6c-3,8.2-3.8,16.9-3.9,25.6
	C33.4,124.6,43.1,143.8,59.8,152.9"/>
<path class="st0" d="M35.7,76.3l-12.4-6.8c1.3-3.5,2.9-6.8,4.7-10.1l12.4,6.8c-1.7,3.3-3.2,6.6-4.5,10.1"/>
<path class="st0" d="M38,76.3L27.9,59.4c1.5-2.7,3.1-5.4,4.9-7.9l12.4,6.8c-1.8,2.5-2.1,10.3-3.6,13"/>
<path class="st0" d="M45.1,58.3l-12.4-6.8c1.7-2.4,3.5-4.7,5.5-6.9l12.4,6.8C48.6,53.6,46.8,55.9,45.1,58.3"/>
<path class="st0" d="M43.4,61L38,44.6c2-2.2,4-4.2,6.2-6.2h25.7c-2.1,2-21.3,17.1-23.2,19.2"/>
<path class="st0" d="M56.6,45.2l-12.3-6.8c2.3-2,4.7-4,7.2-5.7l12.4,6.8c-2.5,1.8-4.9,3.7-7.2,5.7"/>
<path class="st0" d="M52.4,53.9l-1-21.2c3.1-2.1,6.3-4,9.7-5.6l12.4,6.8C70.2,35.5,55.5,51.7,52.4,53.9z"/>
<path class="st0" d="M67.1,38.4l-5.9-11.4c5.5-2.6,11.4-4.4,17.5-5.3l24.1,6.4C96.6,29.1,72.6,35.8,67.1,38.4z"/>
<path class="st0" d="M102.4,28.7l-3-5.8c3.2,0.8,6.4,2,9.4,3.5l12.4,6.8C118.2,31.7,105.6,29.5,102.4,28.7z"/>
<path class="st0" d="M121.2,33.2l-12.4-6.8c0.6,0.3,1.2,0.6,1.8,0.9l12.4,6.8C122.4,33.8,121.8,33.5,121.2,33.2z"/>
<path class="st1" d="M206.2,195.8l-12.4-6.8c0.1-0.1,0.2-0.3,0.3-0.4l12.6,6.8l-0.3,0.4"/>
<path class="st1" d="M206.7,195.4l-13.1-5.9c0.5-0.8,0.8-1.3,1.3-2.2l12.2,7.4L206.7,195.4z"/>
<path class="st1" d="M207,194.7l-12.4-6.8c0.2-0.3,0.3-0.6,0.4-0.9l12.4,6.8C207.3,194,207.1,194.3,207,194.7"/>
<path class="st1" d="M207.4,193.8L195,187c0.2-0.5,0.3-0.9,0.4-1.4l12.4,6.8C207.7,192.8,207.5,193.3,207.4,193.8z"/>
<path class="st1" d="M204.1,197.7l-8.8-12.1l0.2-1.6l12.4,6.8L204.1,197.7z"/>
<path class="st1" d="M199.7,205.2l-13-7.6l10.4-12.6l15.8,1.9L199.7,205.2z"/>
<path class="st1" d="M193.6,207.9l-9.8-8.1l0.7-0.3l15.7,5.8L193.6,207.9z"/>
<path class="st1" d="M196.9,206.3l-12.4-6.8c0.3-0.1,0.6-0.3,0.9-0.5l18.6,3.6C203.7,202.8,197.2,206.1,196.9,206.3z"/>
<path class="st1" d="M197.8,205.7l-12.4-6.8l0.7-0.5l12.5,6.8L197.8,205.7"/>
<path class="st1" d="M198.5,205.2l-12.8-6.5c0.2-0.2,1.1-1.1,1.3-1.3l12,7.3C198.9,204.9,198.7,205.1,198.5,205.2z"/>
<path class="st1" d="M199,204.7l-12.4-6.8l0.2-0.2l12.4,6.8L199,204.7z"/>
<path class="st1" d="M208,190.8l-13.8-2.2c1.7-1.3,1.5-6.3,1.3-7.1c-0.2-0.8-0.7-1.5-1.3-2.2l13.6,3c0.6,0.6-0.2,5.1,0.1,5.9
	C208.1,189.1,208.1,189.9,208,190.8z"/>
<path class="st1" d="M194.7,207l-12.4-6.8l1.4-0.4l12.4,6.8L194.7,207z"/>
<path class="st1" d="M191.1,206.7l-12.4-6.8L191.1,206.7H191"/>
<path class="st1" d="M191.3,206.8l-12.4-6.8l0.8,0.3l12.4,6.7l-0.8-0.3"/>
<path class="st1" d="M191.4,207.4l-11.7-7.1c0.6,0.1,1.2,0.1,1.8,0c0.3,0,0.5-0.1,0.8-0.2l12.4,6.9c-0.3,0.1-0.5,0.2-0.8,0.2
	c-0.6,0.1-0.8,0.8-1.4,0.7"/>
<path class="st2" d="M174.9,207c-0.7-0.4-1.9-1.5-2.5-2.1l12.4,6.7c0.6,0.6,1.9,1.7,2.6,2.2"/>
<path class="st2" d="M187.3,213.7"/>
<path class="st1" d="M206.5,186.1l-12.4-6.8l-40.5-38.3l12.4,6.8L206.5,186.1z"/>
<path class="st2" d="M166.1,147.9l-12.4-6.8c-0.3-0.2-0.6-0.5-0.9-0.6l12.4,6.8C165.5,147.4,165.8,147.6,166.1,147.9z"/>
<path class="st1" d="M185.2,212.2l-12.4-6.8l-40.4-38.3l13.4,3.3L185.2,212.2z"/>
<path class="st1" d="M158.8,141.4l-10.5-8.6c0.6-0.2,1.2-0.4,1.8-0.4c1.4-0.2,2.8-0.1,4.2,0.2l12.4,6.8c-1.4-0.3-2.8-0.4-4.2-0.2
	C161.9,139.2,159.4,141.2,158.8,141.4z"/>
<path class="st1" d="M163.6,141.1l-9.3-8.5c0.7,0.2,1.3,0.4,1.9,0.7l12.3,6.8c-0.6-0.3-1.3-0.5-1.9-0.7"/>
<path class="st1" d="M168.5,140.1l-12.3-6.8l0.4,0.2l12.4,6.8L168.5,140.1z"/>
<path class="st1" d="M158.1,140.4l-12.4-6.8l2.6-0.8l12.4,6.8L158.1,140.4z"/>
<path class="st3" d="M144.1,161.8l-14.7-8.3l-7.7-7.3l12.4,6.8L144.1,161.8z"/>
<path class="st1" d="M55.1,160.5l-12.4-6.8l2,1l12.4,6.8L55.1,160.5z"/>
<path class="st1" d="M57.1,161.9l-12.4-7.2c3.3,1.6,6.8,2.9,10.4,3.9l15.4,7.6C66.8,165.3,60.4,163.6,57.1,161.9z"/>
<path class="st1" d="M67.5,165.4L55,158.6c7.6,1.9,15.4,2.3,23.1,1.2h0.7c6.6-1,13-3,19.1-5.9l13,6.7c-5.6,3.6-13.1,5.1-19.7,6.1
	h-0.4c-7.7,1.1-15.6,1-23.2-0.9"/>
<path class="st1" d="M95.6,168.4l2.2-14.2c3.9-1.8,7.8-4.3,11.3-6.8l20.7,3.2C126.3,153,99.5,166.5,95.6,168.4z"/>
<path class="st1" d="M122.3,154.5l-13.2-7.1c2.9-2,5.7-4.2,8.3-6.6l13.2,6.7C128,149.9,125.2,152.5,122.3,154.5z"/>
<path class="st1" d="M131,147.9l-13.6-7.1c2.5-2.2,4.9-4.6,7.1-7.1l13.6,7.1C135.8,143.3,133.5,145.7,131,147.9z"/>
<path class="st1" d="M138.3,141l-13.9-7.3c2.2-2.5,4.3-5.2,6.2-7.9l17,4.5C145.8,133,140.6,138.5,138.3,141z"/>
<path class="st1" d="M144.6,133.1l-13.9-7.3c2.1-2.9,3.9-6,5.6-9.2l13.9,7.3C148.5,127,146.6,130.1,144.6,133.1z"/>
<path class="st1" d="M150.3,124.2l-13.9-7.6c2-3.8,3.8-7.7,5.2-11.7l13.9,7.6C154,116.5,152.3,120.4,150.3,124.2z"/>
<path class="st1" d="M155.1,113.4l-13.5-8.5c3.4-9.2,5.2-18.8,5.3-28.6c0.2-25.9-12-46.8-30.7-57.1l13.1,5.8
	c18.6,10.2,31.7,31.4,31.5,57.3C160.7,92.1,158.5,104.2,155.1,113.4z"/>
<path class="st1" d="M51.3,167.5l-12.4-6.8l-1.6-0.9c-0.7-0.5-1.2-1.2-1.4-2c-0.2-0.8-0.3-2,0.6-3.4l12.1,7.7
	c-0.3,0.8-0.4,1.6-0.2,2.4c0.2,0.8,0.7,1.5,1.4,2L51.3,167.5"/>
<path class="st1" d="M48.6,162.2l-12.5-6.4c0-0.9,0.4-1.3,0.4-1.3l12.4,7.1C48.8,161.8,48.7,162,48.6,162.2z"/>
<path class="st1" d="M48.8,161.6l-12.4-6.8c0.6-1.2,1-1.1,1.1-1.2l11.8,7L48.8,161.6v0.1V161.6z"/>
<path class="st1" d="M49.1,161.1l-12.4-6.8c0.1-0.1,1.1-1.4,2.4-1.7l14.3,7C53.4,159.7,49.2,160.9,49.1,161.1z"/>
<path class="st1" d="M49.4,160.7L37,153.9l0.4-0.4l12.4,6.8L49.4,160.7z"/>
<path class="st1" d="M49.7,160.3l-12.4-6.8l0.4-0.3l12.4,6.8L49.7,160.3z"/>
<path class="st1" d="M50.2,160l-12.4-6.8c0.2-0.1,0.4-0.2,0.6-0.3l12.4,6.8L50.2,160z"/>
<path class="st1" d="M50.7,159.7l-12.4-6.8c0.3-0.2,0.7-0.3,1-0.3c0.4-0.1,0.8-0.1,1.2,0l13.3,7.1c-0.4-0.1-1.7-0.4-2.1-0.3
	C51.4,159.4,51.1,159.5,50.7,159.7z"/>
<path class="st1" d="M53,159.4l-12.5-6.8l0.5,0.2l12.4,6.8l-0.5-0.2"/>
<path class="st1" d="M53.5,159.6l-12.4-6.8L53.5,159.6z"/>
<path class="st1" d="M92.5,12.5L80.1,5.7h0.7c8.5-1.2,17.3-0.8,25.7,1.4l13.1,7c-8.3-2.1-17.3-2.1-25.8-0.9h-0.8"/>
<path class="st1" d="M118.8,14.5l-14-7.9c4,1,9.3,2.7,13,4.5l12.4,6.8C126.5,16.1,122.7,15.5,118.8,14.5z"/>
<path class="st1" d="M130.2,17.9l-12.4-6.8l2.2,1.1l12.4,6.8L130.2,17.9z"/>
<path class="st1" d="M144.8,173.9l-12.4-6.8c-1.4-1.4-2.4-3.1-3-5c-0.6-1.9-0.7-3.9-0.4-5.8l13.8,5.2c-0.3,2-1.6,5.6-1,7.5
	s1.6,3.6,3,5"/>
<path class="st1" d="M141.4,163.1l-12.4-6.8l0.4-2.9l12.4,6.8L141.4,163.1z"/>
<path class="st1" d="M23.3,73l-12.4-6.8c1.6-4.4,3.5-8.7,5.8-12.9L38,51.6C35.8,55.7,24.9,68.5,23.3,73z"/>
<path class="st1" d="M29.1,60.1l-12.4-6.8c1.9-3.5,3.9-6.9,6.2-10.2l12.4,6.8C33,53.1,30.9,56.5,29.1,60.1"/>
<path class="st1" d="M29.9,66.3l-7.1-23.2c2.1-3,4.4-6,6.9-8.8l21.7,1.1C48.9,38.3,32.6,62,30.5,65.1"/>
<path class="st1" d="M39.2,50.3l-9.5-15.9c2.4-2.8,5-5.4,7.8-7.9l27.5,0.5C62.3,29.6,41.7,47.6,39.2,50.3z"/>
<path class="st1" d="M43.4,43.6l-5.9-17.1c2.9-2.6,6-5.1,9.2-7.3l27.7,0.6C71.2,22.1,46.3,41,43.4,43.6z"/>
<path class="st1" d="M59.1,26l-12.4-6.8c3.9-2.7,8-5.1,12.3-7.1l12.4,6.8C67.1,21,63,23.3,59.1,26z"/>
<path class="st1" d="M63.4,27.1L59,12.2C65.7,9,72.8,6.8,80.1,5.7l30.2,8.4C103,15.2,70.1,23.9,63.4,27.1z"/>
<path class="st1" d="M29.5,146.6L17,139.9c-0.4-0.2-0.8-0.6-1.1-1C8.5,126.5,4.7,112.2,5,97.7C5.1,87,7.1,76.3,10.9,66.2l23-9.5
	c-3.7,10.1-16.3,37.1-16.4,47.9c-0.3,14.4,3.5,28.6,10.9,41c0.3,0.4,0.6,0.8,1.1,1"/>
<path class="st4" d="M195.5,214.3 M195.5,214.3L195.5,214.3 M195.5,214.3 M197,213.9c4.1-1.4,6.9-4.8,6.9-4.8l0,0l7.2-8.4l0.1,0.1
	l-0.1-0.1h0c1.9-2.3,3.1-5.2,3.5-8.1v0l0.2-1.6l0,0l0,0c0.4-1.9,0.2-3.9-0.3-5.8c-0.6-1.9-1.6-3.6-3-5c0,0,0,0,0,0l-40.3-38.2h0
	c-1.1-1.1-2.5-1.9-3.9-2.3c-1.5-0.5-3-0.6-4.5-0.4h0c-0.6,0.1-1.2,0.2-1.8,0.4l0,0l0,0l-2.7,0.8l-0.1,0l0,0l-7.4-7.1l-0.1-0.1l0-0.1
	c9.9-15.3,15.3-33,15.6-51.2c0.4-44.3-32.2-75.3-72.9-69.4l0,0h0h-0.8c-41.1,6.2-74.6,47.4-75,92.1v0c-0.3,14.4,3.5,28.6,10.9,40.9
	l0,0c0.3,0.5,0.7,0.9,1.2,1.1c0.5,0.2,1.1,0.3,1.6,0.2l0,0h0c0.7-0.1,1.3-0.4,1.9-0.8l0,0c0.8-0.6,1.3-1.5,1.5-2.5
	c0.2-1,0.1-2-0.4-2.9c-6.8-11.2-10.2-24.2-9.9-37.3C24.7,63,55.2,25.6,92.5,19.8l0,0h0h0.6c37-5.2,66.8,22.9,66.4,63.3
	c-0.4,40.5-30.9,77.9-68.2,83.5l0,0h0h-0.7c-12.8,2-25.8-0.4-37.1-6.9h0c-0.6-0.3-1.2-0.4-1.8-0.3c-0.6,0.1-1.2,0.3-1.7,0.7
	c-0.5,0.4-0.9,0.8-1.2,1.4l0,0h0c-0.5,0.8-0.7,1.7-0.6,2.7c0.2,0.9,0.7,1.8,1.4,2.3c12.3,7.1,26.7,9.8,40.8,7.6l0,0h0h0.7
	c16-2.7,30.9-10.2,42.8-21.4l0.1-0.1l0.1,0.1l7.7,7.3l0,0l0,0.1l-0.4,2.9l0,0c-0.3,1.9-0.2,3.9,0.4,5.8c0.6,1.9,1.6,3.6,3,5
	c0,0,0,0,0,0l40.4,38.2l0.1,0.1c1.1,1,2.3,1.7,3.8,2.1c1.5,0.4,3,0.6,4.5,0.3h0c0.6-0.1,1.2-0.2,1.8-0.4h0.1l1.1-0.3L197,213.9z
	 M208.1,190.7L208.1,190.7l0,0.1l-0.1,1.6v0c-0.2,1.3-0.7,2.5-1.5,3.5l0,0l-7.1,8.6l-0.1,0.1l-0.2,0.2c-0.8,0.7-1.6,1.4-2.8,1.8
	l-1.4,0.6c-1.3,0.7-2.8-0.1-2.8-0.1c-0.7-0.2-1.2-0.6-1.7-1l0,0L149.8,168l0,0c-0.6-0.6-1.1-1.4-1.3-2.2c-0.3-0.8-0.3-1.7-0.2-2.5
	c0,0,0,0,0,0l0.5-3.5l0,0l0,0l9.6-11.7l0,0l0,0l3.2-1c0,0,0,0,0,0c0.3-0.1,0.5-0.2,0.8-0.2c0.7-0.1,1.3-0.1,2,0.1
	c0.6,0.2,1.2,0.5,1.8,0.9l0,0l40.4,38.2l0,0c0.6,0.6,1.1,1.4,1.3,2.2C208.1,189,208.2,189.9,208.1,190.7 M147.5,141.4l-6.3,7.5
	l-0.1,0.1l0.1,0.1l3.4,3.1l1,1l0.7-0.9l5.6-6.9l0.1-0.1l-0.1-0.1L147.5,141.4L147.5,141.4z"/>
<path class="st1" d="M145.6,153l-4.4-4l6.1-7.3l4.5,3.7L145.6,153z"/>
<path class="st3" d="M151.9,145.3l-5.1-3l0.7-1l0,0L151.9,145.3z"/>
<path class="st0" d="M62.7,145.4l-12.4-6.8l1.6,0.8l12.4,6.8C63.8,146,63.3,145.7,62.7,145.4"/>
<path class="st0" d="M64.3,146.3l-12.4-6.8c2.6,1.3,7.6,2.9,10.4,3.6l12.4,6.8C71.9,149.1,66.7,148.4,64.3,146.3z"/>
<path class="st0" d="M72.6,149.4l-12.4-6.8c6,1.5,12.2,1.8,18.2,0.9c5.4-0.8,10.6-2.3,15.5-4.6l12.4,6.8c-4.9,2.3-10.1,3.9-15.5,4.6
	C84.8,151.2,78.6,150.9,72.6,149.4z"/>
<path class="st0" d="M99.4,149.6l-5.5-10.8c3-1.4,5.8-3.1,8.5-4.9l19.3,3.7C119,139.5,102.4,148.2,99.4,149.6z"/>
<path class="st0" d="M114.8,140.7l-12.4-6.8c2.2-1.6,4.4-3.2,6.4-5.1l20.3,4.8C127,135.5,117,139.2,114.8,140.7z"/>
<path class="st0" d="M121.1,135.7l-12.4-6.8c1.9-1.7,3.7-3.5,5.5-5.5l12.4,6.8C124.9,132.1,123.1,134,121.1,135.7z"/>
<path class="st0" d="M122.5,139.5l-8.4-16.1l1.6-1.8c1.1-1.3,2.2-2.7,3.1-4.2l20.8-0.2c-1,1.4-10.5,9.7-11.6,11.1L122.5,139.5z"/>
<path class="st0" d="M129.5,128.4l-10.7-10.9c1.6-2.2,3-4.6,4.3-7l15.1,4.9C136.9,117.8,131.1,126.1,129.5,128.4z"/>
<path class="st0" d="M135.5,117.2l-12.4-6.8c1.5-2.9,2.9-5.8,4-8.9l12.6,6.8c-1.1,3.1-2.4,6-4,8.9"/>
<path class="st0" d="M139.6,108.4l-6.9-2l-5.7-4.8c2.7-7.2,4.2-14.7,4.2-22.4c0.2-11.4-3.3-22.6-9.9-31.9c-0.4-0.5-0.6-1.2-0.7-1.8
	c-0.1-0.7-0.2-2.1,0.7-2.9l12,7.8c-0.3,0.6-0.4,1.2-0.3,1.9c0,0.6,0.2,1.3,0.6,1.8c12.4,6.1,10.1,20.5,9.9,31.9
	C143.6,93.6,142.3,101.2,139.6,108.4z"/>
<path class="st0" d="M133.3,50.3l-12.4-6.8c0.1-0.2,0.2-0.4,0.3-0.6l12.4,6.8C133.4,49.9,133.3,50.1,133.3,50.3z"/>
<path class="st0" d="M133.5,49.7l-12.4-6.8c0.1-0.2,0.2-0.3,0.3-0.5l12.4,6.8C133.7,49.3,133.6,49.5,133.5,49.7z"/>
<path class="st0" d="M133.8,49.2l-12.4-6.8c0.1-0.1,0.2-0.3,0.3-0.4l12.5,6.8L133.8,49.2"/>
<path class="st0" d="M134.2,48.8L121.8,42l0.3-0.4l12.4,6.9l-0.4,0.4"/>
<path class="st0" d="M134.5,48.5l-12.4-6.8l0.4-0.4l12.4,6.8L134.5,48.5z"/>
<path class="st0" d="M134.6,58.3l-12-17c0.2-0.1,0.4-0.2,0.6-0.3l14.9,7.7L134.6,58.3z"/>
<path class="st0" d="M135,49.9l-11.8-9c0.3-0.2,0.7-0.3,1.1-0.3c0.4-0.1,0.8-0.1,1.3,0l13,7.2c-0.4-0.1-0.9,0.4-1.3,0.4
	C136.8,48.2,135.3,49.8,135,49.9z"/>
<path class="st0" d="M137.9,47.4l-12.4-6.8c0.2,0,0.4,0.1,0.6,0.2l12.4,6.8C138.3,47.6,138.1,47.5,137.9,47.4z"/>
<path class="st0" d="M138.4,47.6L126,40.9l12.5,6.8"/>
<path class="st5" d="M123,43.6l-12.4-6.8l-0.2-0.1c-1.1-0.8-2.3-1.5-3.6-2.2l12.4,6.8c1.2,0.7,2.4,1.4,3.6,2.2L123,43.6z"/>
<path class="st6" d="M91.1,28.7L91.1,28.7C58,33.3,31.3,66.1,31.2,101.8C31.1,137.5,58,162.6,91,158c33-4.6,59.9-37.4,59.9-73.1v0
	c0.2-13-3.7-25.7-11.3-36.3c-0.3-0.4-0.8-0.7-1.3-0.9c-0.5-0.2-1.1-0.2-1.6-0.1l0,0v0c-0.8,0.1-1.5,0.5-2.1,1v0
	c-0.7,0.7-1.2,1.5-1.4,2.5c-0.2,1,0,2,0.5,2.8c6.7,9.3,10.2,20.6,9.9,32c0,0,0,0,0,0l0,0.4c-0.2,15.5-5.7,30.1-15.6,42l0,0.1
	c-9.3,11.7-22.5,19.5-37.2,21.9h0c-6.7,1.1-13.5,0.6-19.9-1.4c-6.5-2-12.4-5.4-17.3-10l0,0c-5-5-9-10.9-11.6-17.5
	c-2.6-6.6-3.9-13.6-3.7-20.7c0.2-15.5,5.6-30.5,15.5-42.5C63,46.5,76.3,38.7,91,36.3l0,0c11.1-1.7,22.4,0.9,31.8,7.1
	c0.6,0.4,1.4,0.6,2.1,0.5c0.6-0.1,1.1-0.3,1.6-0.6c0.5-0.3,0.9-0.8,1.2-1.3l0,0v0c0.6-0.8,0.9-1.8,0.7-2.8c-0.1-1-0.6-1.9-1.4-2.5
	C116.5,29.6,103.7,26.7,91.1,28.7"/>
</svg>
