<?xml version="1.0" encoding="utf-8"?>
<!-- Generator: Adobe Illustrator 23.0.3, SVG Export Plug-In . SVG Version: 6.00 Build 0)  -->
<svg version="1.1" id="Слой_1" xmlns="http://www.w3.org/2000/svg" xmlns:xlink="http://www.w3.org/1999/xlink" x="0px" y="0px"
	 viewBox="0 0 200 200" style="enable-background:new 0 0 200 200;" xml:space="preserve">
<style type="text/css">
	.st0{fill:#882F40;}
	.st1{fill:#9A384B;}
	.st2{fill:#944D5D;}
	.st3{fill:#904A5A;}
	.st4{fill:#793E4B;}
	.st5{fill:#40689D;}
	.st6{fill:#773D4A;}
	.st7{fill:#9F5263;}
	.st8{fill:#7D414E;}
	.st9{fill:#824351;}
	.st10{fill:#874654;}
	.st11{fill:#8B4857;}
	.st12{fill:#994F60;}
	.st13{fill:#9C4354;}
	.st14{fill-rule:evenodd;clip-rule:evenodd;fill:#E87891;}
	.st15{fill:#B4D1FA;stroke:#000000;stroke-width:0.2;}
	.st16{fill:#B4D1FA;}
	.st17{fill:#E87891;}
</style>
<path class="st0" d="M188.3,146.9l-9.6-5.2h0.1l9.6,5.2H188.3z"/>
<path class="st0" d="M188.5,146.9l-9.6-5.2c0.1,0,0.3,0,0.4,0c0.1,0,0.2-0.1,0.4-0.1l9.6,5.2c-0.1,0.1-0.2,0.1-0.4,0.1
	C188.8,146.9,188.6,146.9,188.5,146.9z"/>
<path class="st0" d="M189.3,146.8l-9.6-5.2l0.3-0.1l9.6,5.2L189.3,146.8z"/>
<path class="st0" d="M189.5,146.7l-9.6-5.2L189.5,146.7"/>
<path class="st0" d="M188.3,147.8l-11.6-6.9c1.7,0.7,3.3,1.4,3.9-0.5l11.8,5.1L188.3,147.8z"/>
<path class="st0" d="M189.8,146.4l-9.6-5.3h0.1l9.7,5.2v0.1"/>
<path class="st0" d="M190,146.3l-9.7-5.2V141l9.7,5.2V146.3z"/>
<path class="st0" d="M190,146.2l-9.6-5.2c0-0.1,0.1,0,0.1-0.1l9.6,5.1C190,146,190,146.1,190,146.2"/>
<path class="st0" d="M190.1,145.9l-9.6-5.2c0.1-0.2,0.1-0.4,0.1-0.6l9.6,5.2c0,0.2,0,0.4,0,0.6"/>
<path class="st0" d="M192,147.3l-11.4-7.2l0.1-45l9.6,5.2L192,147.3z"/>
<path class="st1" d="M151.8,168.6l-8.3-6.1c0.4,0,3.2-1.1,3.6-1.3l15.3,2.3c-0.4,0.2-7.4,6.9-7.9,6.9"/>
<path class="st1" d="M154.4,167.4l-9.6-5.2c0.2-0.1,0.5-0.2,0.7-0.4l9.6,5.2C154.9,167.2,154.7,167.4,154.4,167.4"/>
<path class="st1" d="M155.1,167l-9.6-5.2l0.5-0.4l9.6,5.2L155.1,167z"/>
<path class="st1" d="M155.6,166.6l-9.6-5.2l0.4-0.4l9.6,5.2L155.6,166.6z"/>
<path class="st1" d="M156,166.2l-9.6-5.2l0.4-0.5l9.6,5.2L156,166.2z"/>
<path class="st1" d="M156.4,165.7l-9.6-5.2l0.3-0.5l9.6,5.2L156.4,165.7z"/>
<path class="st1" d="M156.8,165.2l-9.6-5.2c0.1-0.2,0.2-0.5,0.3-0.7l9.6,5.2C157,164.7,156.9,164.9,156.8,165.2z"/>
<path class="st1" d="M154.1,171.6l-7.8-10.6c0.2-0.6,1.7-0.9,1.5-5.5l9.5,7.1C157.4,163.3,154.4,171.1,154.1,171.6z"/>
<path class="st0" d="M190.3,100.4l-9.6-5.2c0-0.2,0-0.4-0.2-0.6c-0.1-0.2-0.3-0.4-0.5-0.5l9.6,5.2c0.2,0.1,0.3,0.3,0.5,0.5
	C190.2,99.9,190.3,100.1,190.3,100.4z"/>
<path class="st2" d="M163.5,146.4l-9.6-5.2l1.6,0.6l9.6,5.2L163.5,146.4z"/>
<path class="st0" d="M167,138.5l-9.6-5.2l21.4,8.4l9.6,5.2L167,138.5z"/>
<path class="st3" d="M166.8,138.4l-9.6-5.2L166.8,138.4z"/>
<path class="st2" d="M166.9,138.4l-9.6-5.2L166.9,138.4z"/>
<path class="st3" d="M162.7,146l-9.6-5.2l0.3,0.1l9.6,5.2L162.7,146z"/>
<path class="st2" d="M163,146.2l-9.6-5.2l0.6,0.3l9.6,5.2L163,146.2z"/>
<path class="st1" d="M182.8,96.9l-7.4-9.8c0.4-0.3,1.8-1.3,2.8-1.3l10.6,6C188.3,92.1,183.2,96.6,182.8,96.9z"/>
<path class="st1" d="M186.4,91.6l-9.6-5.3c0.8-0.4,1.7-0.6,2.7-0.7c1-0.2,2.1-0.1,3.1,0.2l9.6,5.2c-1-0.3-1.6,0.9-2.6,1
	C188.6,92.1,187.2,91.2,186.4,91.6"/>
<path class="st1" d="M192.1,91l-9.6-5.2c0.5,0.1,1,0.3,1.4,0.5l9.6,5.2C193.1,91.3,192.6,91.1,192.1,91z"/>
<path class="st4" d="M162.7,146l-9.6-5.2c-1.3-0.8-2.4-1.9-3.2-3.2c-0.7-1.3-1.1-2.9-1-4.4l9.7,5.2c-0.1,1.5,0.3,3.1,1,4.4
	C160.3,144.1,161.4,145.3,162.7,146"/>
<path class="st5" d="M142.3,157.4l-9.6-5.2c0.4-0.1,0.9-0.1,1.3,0l10.1,5.6C143.6,157.7,142.6,157.4,142.3,157.4"/>
<path class="st5" d="M143.5,157.7l-9.6-5.4c0.2,0.1,0.4,0.1,0.6,0.2l9.9,5.5C144.3,158.1,143.7,157.7,143.5,157.7z"/>
<path class="st1" d="M165.2,105.7l-9.6-5.2l19.8-13.4l12,6.1L165.2,105.7z"/>
<path class="st6" d="M158.5,138.4l-9.6-5.2V111l9.6,5.2V138.4z"/>
<path class="st7" d="M163.6,106.8l-9.6-5.2l1.6-1.1l9.6,5.2L163.6,106.8z"/>
<path class="st4" d="M158.6,116.2L149,111c0-1.3,0.2-2.6,0.7-3.8l9.6,5.2C158.8,113.6,158.6,114.9,158.6,116.2z"/>
<path class="st8" d="M159.3,112.4l-9.6-5.2c0.2-0.5,0.4-1,0.7-1.5l9.6,5.2C159.7,111.4,159.5,111.9,159.3,112.4z"/>
<path class="st9" d="M159.9,110.9l-9.6-5.2c0.2-0.4,0.5-0.8,0.7-1.2l9.6,5.2C160.4,110.1,160.2,110.5,159.9,110.9z"/>
<path class="st10" d="M160.7,109.7l-9.6-5.2c0.3-0.3,0.5-0.7,0.8-1l9.6,5.2C161.2,109,160.9,109.4,160.7,109.7z"/>
<path class="st11" d="M161.5,108.7l-9.6-5.2c0.3-0.3,0.6-0.6,0.9-0.9l9.6,5.2C162.1,108.1,161.7,108.4,161.5,108.7z"/>
<path class="st3" d="M162.4,107.8l-9.6-5.2c0.3-0.3,0.7-0.6,1.1-0.9l9.6,5.2C163.1,107.2,162.7,107.5,162.4,107.8z"/>
<path class="st2" d="M163.5,106.9l-9.6-5.2h0.1l9.6,5.2H163.5z"/>
<path class="st1" d="M159.7,164.4l-11.9-7l0.1-70.1l9.6,5.2L159.7,164.4z"/>
<path class="st1" d="M157.5,92.6l-9.6-5.2c0-0.7-0.1-1.4-0.5-2c-0.3-0.6-0.8-1.1-1.5-1.5l10,4.2c0.6,0.4,1.2,1.4,1.5,2
	S157.6,91.9,157.5,92.6z"/>
<path class="st3" d="M96.8,88.9l-9.6-5.2l1.1,0.6l9.6,5.2C97.5,89.3,97.1,89.1,96.8,88.9z"/>
<path class="st2" d="M97.9,89.5l-9.6-5.2c1.9,1,4,1.7,6,2.2l9.6,5.2C101.9,91.2,99.9,90.5,97.9,89.5z"/>
<path class="st12" d="M104,91.7l-9.6-5.2c4.3,1.1,8.9,1.3,13.3,0.7c3.9-0.6,7.7-1.7,11.3-3.4l9.6,5.2c-3.6,1.7-7.4,2.8-11.3,3.4
	C112.8,93.1,108.3,92.9,104,91.7z"/>
<path class="st1" d="M23.5,186l-9.6-5.2l129.7-18.2l9.6,5.3L23.5,186z"/>
<path class="st1" d="M21.3,185.6l-9.6-5.2h0.1l9.6,5.3L21.3,185.6"/>
<path class="st1" d="M21.4,185.6l-9.6-5.2c0.2,0.1,0.4,0.2,0.7,0.3l9.6,5.2C21.9,185.8,21.7,185.8,21.4,185.6z"/>
<path class="st1" d="M22.1,185.9l-9.5-5.2c0.5,0.1,1,0.1,1.4,0l11.1,5.9c-0.5,0.1-3.5,0.1-3.9,0"/>
<path class="st1" d="M11.7,171.9L2,166.8c0-0.6,0.1-1.4,0.3-2l11.7,3.8C13.8,169.2,11.6,171.2,11.7,171.9"/>
<path class="st1" d="M12,170l-9.6-5.2c0.1-0.3,0.2-0.5,0.3-0.7l9.6,5.2C12.2,169.5,12.1,169.7,12,170z"/>
<path class="st1" d="M12.3,169.3l-10-4.4l0.7-1.4l9.6,5.2L12.3,169.3z"/>
<path class="st1" d="M12.4,169.2L3,163.5c0.1-0.1,0.5-0.8,1.2-1.3l9.4,5.5C13.5,167.8,12.5,169.1,12.4,169.2z"/>
<path class="st1" d="M13,168.3L3.4,163l0.4-0.4l9.6,5.2L13,168.3z"/>
<path class="st1" d="M13.4,167.9l-9.6-5.2l0.4-0.4l9.6,5.3L13.4,167.9z"/>
<path class="st1" d="M13,169l-8.8-6.8l0.6-0.3l9.6,5.3L13,169z"/>
<path class="st1" d="M14.3,167.4L4.6,162c0.2-0.1,1-0.3,1.2-0.3l9.3,5.2C15,167,14.5,167.3,14.3,167.4z"/>
<path class="st1" d="M13.6,195L4,189.8c-0.6-0.4-1.1-0.9-1.5-1.5c-0.3-0.6-0.5-1.9-0.5-2.6l9.6,5.8c0,0.7,0.1,1.4,0.5,2
	S13,194.6,13.6,195z"/>
<path class="st1" d="M15.1,167l-9.5-5.3c0.6-0.1,1.1-0.1,1.7,0l9.5,5.3c-0.6-0.1-1.1-0.1-1.6-0.1"/>
<path class="st1" d="M16.8,167l-9.5-5.3c0.2,0.1,0.6,0.2,0.8,0.3l9.5,5.2C17.3,167.1,17,167,16.8,167z"/>
<path class="st1" d="M17.5,167.2L7.9,162H8l9.6,5.3L17.5,167.2"/>
<path class="st1" d="M11.6,191.8L2,186.2v-19.6l9.6,5.2V191.8z"/>
<path class="st1" d="M13.5,160.2L3.9,155c-0.6-0.3-1-0.8-1.4-1.3c-0.3-0.6-0.4-1.7-0.4-2.3l11.9-1.2c0,0.6-0.3,7.8,0,8.3
	C14.4,159,12.9,159.9,13.5,160.2"/>
<path class="st1" d="M11.7,157l-9.6-5.2l0.1-52.3l10.3,5L11.7,157z"/>
<path class="st3" d="M41.6,99.2L32,94c0.3,0.1,0.5,0.3,0.8,0.4l9.6,5.2C42.1,99.4,41.8,99.3,41.6,99.2z"/>
<path class="st2" d="M42.4,99.6l-9.6-5.2c1.4,0.7,2.9,1.3,4.4,1.6l9.6,5.2C45.3,100.8,43.8,100.3,42.4,99.6z"/>
<path class="st12" d="M46.8,101.2L37.2,96c3.2,0.8,6.5,1,9.7,0.5c2.8-0.4,5.6-1.3,8.2-2.5l9.6,5.2c-2.6,1.2-5.4,2.1-8.2,2.5
	C53.3,102.2,50,102,46.8,101.2z"/>
<path class="st2" d="M64.8,99.3L55.1,94c1.6-0.7,3.1-1.6,4.5-2.6l9.6,5.2C67.9,97.6,66.3,98.5,64.8,99.3z"/>
<path class="st3" d="M69.3,96.7l-9.6-5.2c1.2-0.8,2.3-1.7,3.4-2.7l9.6,5.2C71.6,94.9,70.5,95.8,69.3,96.7z"/>
<path class="st11" d="M72.7,94l-9.6-5.2c0.9-0.8,1.8-1.7,2.7-2.7l9.6,5.2C74.5,92.2,73.6,93.1,72.7,94z"/>
<path class="st1" d="M16,99.6l-9.6-5.2l21.8-3.1l9.6,5.2L16,99.6z"/>
<path class="st1" d="M11.8,104.7l-9.6-5.2c0-0.6,0.1-1.2,0.3-1.8l9.6,5.2C11.9,103.5,11.8,104.1,11.8,104.7z"/>
<path class="st1" d="M12.1,102.9l-9.6-5.2c0.1-0.2,0.2-0.5,0.3-0.7l9.6,5.2C12.3,102.5,12.2,102.7,12.1,102.9z"/>
<path class="st1" d="M9.8,115.7L2.8,97c0.2-0.7,1.7-1.9,1.8-2l8.1,6.7C12.7,101.9,9.9,115.5,9.8,115.7z"/>
<path class="st1" d="M12.8,101.7l-9.6-5.2c0.1-0.2,0.2-0.3,0.4-0.5l9.6,5.2C13,101.3,12.9,101.5,12.8,101.7z"/>
<path class="st1" d="M13.2,101.2L3.5,96l0.4-0.4l9.6,5.2L13.2,101.2z"/>
<path class="st1" d="M13.6,100.8L4,95.6c0.2-0.2,0.3-0.3,0.5-0.4l9.6,5.2C13.9,100.5,13.7,100.6,13.6,100.8z"/>
<path class="st1" d="M12,104l-7.5-8.9c0.2-0.2,0.4-0.3,0.7-0.4L17,99.5c-0.2,0.1-0.8,1.3-1,1.5"/>
<path class="st1" d="M14.7,100l-9.5-5.3c0.4-0.2,1.6-0.4,2.6-0.5l8.3,5.3C15.6,99.7,15.2,99.8,14.7,100"/>
<path class="st13" d="M41.6,99.2L32,94c-1.4-0.8-2.6-1.6-3.8-2.6c-3-2.6-5.4-5.9-7-9.5c-1.6-3.7-2.4-7.6-2.2-11.6
	c0-4.1,0.7-8.1,2.1-11.9l14.3,3.5c-1.4,3.8-6.8,9.6-6.8,13.6c-0.1,4,0.6,7.9,2.2,11.6c1.6,3.6,4,6.9,7,9.5
	C38.9,97.5,40.2,98.4,41.6,99.2"/>
<path class="st14" d="M162.7,79.4c-0.5-0.2-1.1-0.2-1.6-0.1l-22.4,3.1c-6,5.4-13.5,8.9-21.4,10.1c-7.4,1.1-15-0.3-21.4-4.1
	l-20.5,2.8c-4.8,5.6-11.5,9.4-18.8,10.5c-3.3,0.5-6.7,0.3-10-0.6c-3.2-0.9-6.3-2.5-8.8-4.6L16,99.6c-1.2,0.2-2.3,0.9-3,1.8
	c-0.8,0.9-1.2,2.1-1.2,3.3V157c0,0.5,0.1,1.1,0.3,1.6s0.5,0.9,0.9,1.3c0.4,0.3,0.9,0.6,1.4,0.7s1.1,0.1,1.6,0c1-0.3,1.9-1,2.6-1.9
	c0.6-0.9,1-2,0.9-3.1V112c0-1.2,0.4-2.4,1.2-3.3c0.8-0.9,1.8-1.6,3-1.8l129.6-18.2c0.5-0.1,1.1,0,1.6,0.1c0.5,0.2,1,0.4,1.4,0.8
	s0.7,0.8,0.9,1.4c0.2,0.5,0.3,1.1,0.2,1.6l-0.1,70.1c0,1.2-0.4,2.4-1.2,3.3c-0.8,0.9-1.8,1.6-3,1.8L23.5,186c-0.5,0.1-1.1,0-1.6-0.1
	c-0.5-0.2-1-0.4-1.4-0.8c-0.4-0.4-0.7-0.8-0.9-1.4c-0.2-0.5-0.3-1.1-0.2-1.6v-11.6c0-0.5-0.1-1.1-0.3-1.6c-0.2-0.5-0.5-0.9-0.9-1.3
	s-0.9-0.6-1.4-0.7c-0.5-0.1-1.1-0.1-1.6,0c-1,0.3-1.9,1-2.6,1.9c-0.6,0.9-1,2-0.9,3.1v19.6c0,0.6,0,1.1,0.2,1.6s0.5,1,0.9,1.4
	s0.9,0.7,1.4,0.8c0.5,0.2,1.1,0.2,1.6,0.1L161.1,175c1.2-0.2,2.3-0.9,3-1.8c0.8-0.9,1.2-2.1,1.2-3.3V147l-1.6-0.6
	c-0.1-0.1-0.3-0.1-0.4-0.2c0.1,0.1,0.2,0.1,0.3,0.2l1.6,0.6l19.8,7.8c1.3,0.5,2.7,0.6,4,0.4c1.7-0.3,3.4-1,4.8-2.1
	c1.3-1.1,2.4-2.4,3.1-4c0.7-1.5,1.1-3.2,1.1-4.9v-45c0.1-1.5-0.3-3.1-1-4.4c-0.7-1.4-1.8-2.5-3.2-3.2c-1.4-0.8-3.1-1-4.7-0.8
	c-1.4,0.2-2.8,0.8-4,1.6l-19.8,13.3V83.2c0-0.6,0-1.1-0.2-1.6s-0.5-1-0.9-1.4C163.7,79.8,163.3,79.5,162.7,79.4z M190.2,100.3v45
	v0.1c0,0.2,0,0.3-0.1,0.6c-0.1,0.2-0.3,0.4-0.5,0.6c-0.2,0.2-0.4,0.3-0.7,0.3c-0.2,0.1-0.4,0.1-0.6,0l-21.4-8.4
	c-0.2-0.1-0.4-0.3-0.5-0.5s-0.2-0.4-0.2-0.7v-22.2c0-0.3,0.1-0.5,0.2-0.8c0.1-0.2,0.3-0.4,0.5-0.6l21.3-14.4
	c0.2-0.1,0.4-0.2,0.6-0.2c0.2-0.1,0.5-0.1,0.7,0s0.3,0.3,0.5,0.5C190.2,99.9,190.2,100.1,190.2,100.3z"/>
<path d="M161.1,79.2v0.2l0,0V79.2z M138.7,82.4v-0.2h-0.1l0,0L138.7,82.4z M117.3,92.4v-0.2l0,0V92.4z M95.9,88.4l0.1-0.2h-0.1h-0.1
	L95.9,88.4z M75.3,91.2V91h-0.1L75.3,91.2L75.3,91.2z M56.5,101.7v0.2l0,0V101.7z M46.5,101.2l0.1-0.2L46.5,101.2z M37.7,96.6
	l0.1-0.2l-0.1-0.1h-0.1L37.7,96.6z M15.9,99.6v-0.2l0,0V99.6z M12.9,101.4l-0.2-0.1L12.9,101.4z M11.7,104.7h0.2l0,0H11.7z
	 M11.7,157h0.2l0,0H11.7z M15.9,160.6v0.2l0,0l0,0V160.6z M19.5,155.6h-0.2l0,0H19.5z M19.5,112h0.2l0,0H19.5z M23.7,106.9v-0.2l0,0
	V106.9z M153.3,88.7v0.2l0,0V88.7z M157.5,92.6h-0.2l0,0l0,0H157.5z M157.4,162.7h-0.2l0,0H157.4z M153.2,167.8v0.2l0,0V167.8z
	 M23.5,186v-0.2l0,0V186z M19.6,183.7l-0.2,0.1L19.6,183.7z M19.3,182h0.2l0,0l0,0H19.3z M19.3,170.5h-0.2l0,0H19.3z M15.1,166.9
	v-0.2l0,0l0,0V166.9z M12.5,168.8l0.2,0.1L12.5,168.8z M11.6,171.9h0.2l0,0H11.6z M11.6,191.5h0.2l0,0l0,0H11.6z M12.7,194.4
	l0.1-0.1L12.7,194.4z M15.8,195.4v-0.2l0,0V195.4z M161.1,175v0.2l0,0V175z M165.3,169.9h0.2l0,0H165.3z M165.3,147h0.2v-0.1
	l-0.1-0.1L165.3,147z M163.7,146.4l-0.1,0.2l0,0L163.7,146.4z M163.3,146.2l0.1-0.2l-0.2,0.4L163.3,146.2z M163.6,146.4l-0.1,0.2
	l0,0L163.6,146.4z M165.3,147l0.1-0.2l0,0L165.3,147z M185,154.8l-0.1,0.2l0,0L185,154.8z M189,155.3v0.2l0,0V155.3z M193.8,153.2
	l0.1,0.2l0,0L193.8,153.2z M198,144.3h0.2l0,0H198z M198,99.3h-0.2l0,0H198z M197,94.8l-0.2,0.1l0,0L197,94.8z M193.8,91.6l0.1-0.2
	l0,0L193.8,91.6z M189.1,90.8v-0.2l0,0V90.8z M185.1,92.4l0.1,0.2l0,0L185.1,92.4z M165.3,105.7h-0.2v0.4l0.3-0.2L165.3,105.7z
	 M165.3,83.2h-0.2l0,0l0,0H165.3z M190.2,100.3H190l0,0H190.2z M190.2,145.5h0.2l0,0H190.2z M190.1,146l0.2,0.1L190.1,146z
	 M189.6,146.6l-0.1-0.2l0,0L189.6,146.6z M189,146.9v-0.2l0,0l0,0V146.9z M188.4,146.9l-0.1,0.2l0,0l0,0L188.4,146.9z M167,138.5
	l-0.1,0.2l0,0L167,138.5z M166.5,138l-0.2,0.1l0,0L166.5,138z M166.3,137.3h0.2l0,0H166.3z M166.3,115.1h-0.2l0,0H166.3z
	 M166.5,114.4l-0.2-0.1l0,0L166.5,114.4z M167,113.8l0.1,0.2l0,0L167,113.8z M188.4,99.4l-0.1-0.2l0,0L188.4,99.4z M189,99.2v0.2
	l0,0l0,0V99.2z M189.6,99.2l0.1-0.2l0,0l0,0L189.6,99.2z M190.1,99.7l-0.2,0.1l0,0L190.1,99.7z M161.1,79.5c0.5-0.1,1-0.1,1.5,0
	l0.1-0.4c-0.6-0.2-1.1-0.2-1.7-0.1L161.1,79.5z M138.7,82.6l22.4-3.1l-0.1-0.4l-22.4,3.1L138.7,82.6z M117.3,92.6
	c8-1.2,15.5-4.7,21.5-10.1l-0.3-0.3c-6,5.3-13.4,8.8-21.3,10L117.3,92.6z M95.8,88.6c6.5,3.8,14.1,5.1,21.6,4l-0.1-0.3
	c-7.3,1.1-14.9-0.3-21.3-4L95.8,88.6z M75.4,91.4l20.5-2.8l-0.1-0.4L75.3,91L75.4,91.4z M56.5,101.9c7.4-1.2,14.1-5,18.9-10.6
	L75.1,91c-4.8,5.6-11.4,9.3-18.7,10.5L56.5,101.9z M46.5,101.4c3.3,0.9,6.7,1.1,10,0.6l-0.1-0.4c-3.3,0.5-6.7,0.3-9.9-0.6V101.4z
	 M37.6,96.7c2.6,2.2,5.6,3.8,8.9,4.7l0.1-0.4c-3.2-0.9-6.2-2.4-8.8-4.6L37.6,96.7z M16,99.8l21.8-3.1l-0.1-0.4l-21.8,3.1L16,99.8z
	 M13.1,101.5c0.7-0.9,1.8-1.5,2.9-1.7l-0.1-0.4c-1.2,0.2-2.3,0.9-3.1,1.8L13.1,101.5z M11.9,104.7c0-1.2,0.6-2.4,1.3-3.3l-0.3-0.3
	c-0.8,1-1.4,2.4-1.4,3.6L11.9,104.7L11.9,104.7z M11.9,157v-52.6l-0.4,0.2V157H11.9z M12.2,158.5c-0.2-0.5-0.3-1-0.3-1.5h-0.4
	c0,0.6,0.1,1.1,0.3,1.7L12.2,158.5z M13.1,159.7c-0.4-0.3-0.7-0.7-0.9-1.2l-0.4,0.2c0.2,0.5,0.6,1,1,1.3L13.1,159.7z M14.4,160.4
	c-0.5-0.1-0.9-0.4-1.3-0.7l-0.3,0.3c0.4,0.4,0.9,0.6,1.5,0.8L14.4,160.4z M15.9,160.4c-0.5,0.1-1,0.1-1.5,0l-0.1,0.4
	c0.6,0.1,1.1,0.1,1.7,0L15.9,160.4z M18.4,158.6c-0.6,0.9-1.5,1.5-2.5,1.8l0.1,0.4c1.1-0.4,2-1,2.7-2L18.4,158.6z M19.3,155.7
	c0,1.1-0.3,2.1-0.9,2.9l0.3,0.2c0.7-0.9,1-2,1-3.2L19.3,155.7z M19.3,111.8v43.9h0.4V112L19.3,111.8z M20.5,108.5
	c-0.8,1-1.2,2.2-1.2,3.4l0.4,0.5c0-1.2,0.4-2.8,1.1-3.7L20.5,108.5z M23.7,106.7c-1.2,0.2-2.3,0.8-3.2,1.8l0.3,0.2
	c0.7-0.9,2.2-1.5,3.3-1.7L23.7,106.7z M153.3,88.5L23.7,106.7l0.1,0.4l129.6-18.2L153.3,88.5z M155,88.6c-0.6-0.2-1.2-0.2-1.7-0.1
	l0.1,0.4c0.5-0.1,1,0,1.6,0.1L155,88.6z M156.5,89.5c-0.4-0.4-0.9-0.7-1.5-0.9l-0.1,0.4c0.5,0.2,1,0.4,1.3,0.8L156.5,89.5z
	 M157.5,90.9c-0.2-0.5-0.5-1-1-1.4l-0.3,0.3c0.4,0.4,0.7,0.8,0.9,1.3L157.5,90.9z M157.7,92.6c0-0.6,0.1-1.2-0.2-1.7l-0.4,0.2
	c0.2,0.5,0.2,1,0.2,1.5H157.7z M157.6,162.7l0.1-70.1h-0.4l-0.1,70.1H157.6z M156.4,166.1c0.8-1,1.2-2.2,1.2-3.4h-0.4
	c0,1.2-0.4,2.3-1.1,3.2L156.4,166.1z M153.2,168c1.2-0.2,2.6-1.2,3.4-2.1h-0.5c-0.7,0.9-2.1,1.5-3.1,1.7L153.2,168z M23.6,186.1
	L153.2,168l-0.1-0.4L23.5,185.7L23.6,186.1z M21.9,186c0.6,0.2,1.2,0.2,1.7,0.1l-0.1-0.4c-0.5,0.1-1,0-1.6-0.1V186z M20.4,185.1
	c0.4,0.4,0.9,0.7,1.5,0.9v-0.4c-0.5-0.2-0.9-0.4-1.2-0.8L20.4,185.1z M19.4,183.7c0.2,0.5,0.5,1,1,1.4l0.3-0.3
	c-0.4-0.4-0.7-0.8-0.9-1.3L19.4,183.7z M19.1,182c0,0.6,0,1.2,0.3,1.7l0.4-0.2c-0.2-0.5-0.3-0.9-0.3-1.5H19.1z M19.1,170.5V182h0.4
	v-11.6h-0.4V170.5z M18.9,169c0.2,0.5,0.2,1,0.2,1.5h0.4c0-0.6,0-1.1-0.2-1.6L18.9,169z M18,167.8c0.4,0.3,0.7,0.7,0.9,1.2l0.4-0.1
	c-0.2-0.5-0.6-1.1-1-1.4L18,167.8z M16.6,167.1c0.5,0.1,1,0.3,1.4,0.7l0.3-0.3c-0.4-0.4-1-0.6-1.6-0.8L16.6,167.1z M15.2,167.1
	c0.5-0.1,0.9-0.1,1.4,0l0.1-0.4c-0.5-0.1-1-0.1-1.6,0L15.2,167.1z M12.7,168.9c0.6-0.9,1.5-1.5,2.5-1.8l-0.1-0.4c-1.1,0.3-2,1-2.7,2
	L12.7,168.9z M11.8,172c0-1.1,0.3-2.3,0.9-3.1l-0.3-0.2c-0.7,0.9-1,2-1,3.2L11.8,172z M11.8,191.5v-19.6h-0.4v19.6H11.8z M12,193
	c-0.2-0.5-0.2-1-0.2-1.5h-0.4c0,0.6,0,1.2,0.2,1.6L12,193z M12.9,194.3c-0.4-0.4-0.7-0.8-0.9-1.3l-0.4,0.1c0.2,0.5,0.5,1,1,1.4
	L12.9,194.3z M14.3,195.1c-0.5-0.2-1.2-0.5-1.5-0.9l-0.2,0.3c0.4,0.4,1,0.8,1.6,1L14.3,195.1z M15.8,195.2c-0.5,0.1-1,0-1.5-0.1
	l-0.1,0.4c0.6,0.2,1.1,0.2,1.7,0.1L15.8,195.2z M161,174.8L15.8,195.2l0.1,0.4l145.3-20.4L161,174.8z M163.9,173.1
	c-0.7,0.9-1.8,1.5-2.9,1.7l0.1,0.4c1.2-0.2,2.3-0.9,3.1-1.9L163.9,173.1z M165.1,169.9c0,1.2-0.4,2.3-1.2,3.2l0.3,0.2
	c0.8-1,1.3-2.3,1.3-3.5L165.1,169.9z M165.1,147v22.9h0.4V147H165.1z M163.6,146.6l1.6,0.6l0.1-0.4l-1.6-0.6L163.6,146.6z
	 M163.2,146.4c0.1,0.1,0.3,0.1,0.4,0.2l0.2-0.4c-0.1-0.1-0.3-0.1-0.4-0.2L163.2,146.4z M163.7,146.2c-0.1,0-0.2-0.1-0.3-0.2
	l-0.2,0.4c0.1,0.1,0.2,0.1,0.4,0.2L163.7,146.2z M165.3,146.8l-1.6-0.6l-0.1,0.4l1.6,0.6L165.3,146.8z M185.1,154.6l-19.8-7.8
	l-0.1,0.4L185,155L185.1,154.6z M189,155.1c-1.3,0.2-2.7-0.1-3.9-0.5L185,155c1.3,0.5,2.7,0.7,4.1,0.5L189,155.1z M193.6,153
	c-1.3,1.1-2.9,1.8-4.7,2.1l0.1,0.4c1.8-0.3,3.5-1,4.9-2.2L193.6,153z M196.7,149.1c-0.7,1.5-1.9,2.8-3.1,3.9l0.3,0.3
	c1.3-1.1,2.4-2.5,3.2-4L196.7,149.1z M197.8,144.3c0,1.7-0.4,3.3-1.1,4.8l0.4,0.2c0.7-1.6,1.1-3.3,1.1-5H197.8z M197.8,99.3v45h0.4
	v-45H197.8z M196.8,94.9c0.7,1.3,1.1,2.9,1,4.4h0.4c0.1-1.6-0.3-3.2-1.1-4.6L196.8,94.9z M193.7,91.8c1.3,0.8,2.4,1.7,3.1,3.1
	l0.3-0.2c-0.8-1.4-1.8-2.4-3.2-3.2L193.7,91.8z M189.1,91c1.6-0.2,3.3,0.1,4.6,0.8l0.2-0.3c-1.5-0.8-3.2-1.2-4.9-0.9L189.1,91z
	 M185.2,92.6c1.2-0.8,2.5-1.4,3.9-1.6l-0.1-0.4c-1.5,0.2-2.8,0.9-4,1.7L185.2,92.6z M165.4,105.9l19.8-13.3l-0.2-0.3l-19.8,13.3
	L165.4,105.9z M165.1,83.2v22.5h0.4V83.2H165.1z M164.9,81.6c0.2,0.5,0.3,1.2,0.2,1.7l0.4-0.1c0-0.6,0-1.3-0.3-1.8L164.9,81.6z
	 M164,80.3c0.4,0.4,0.7,0.8,0.9,1.3l0.4-0.1c-0.2-0.5-0.5-1-1-1.4L164,80.3z M162.6,79.5c0.5,0.2,1.1,0.5,1.4,0.9l0.3-0.3
	c-0.4-0.4-1-0.8-1.6-1L162.6,79.5z M190.4,145.4v-45H190v45H190.4z M190.4,145.5v-0.1H190v0.1H190.4z M190.3,146.1
	c0.1-0.1,0.1-0.2,0.1-0.3s0-0.2,0-0.3H190c0,0.1,0,0.2,0,0.2c0,0.1,0,0.1-0.1,0.2L190.3,146.1z M189.8,146.7
	c0.2-0.2,0.4-0.4,0.5-0.6l-0.4-0.2c-0.1,0.2-0.2,0.4-0.4,0.5L189.8,146.7z M189,147.1c0.3-0.1,0.6-0.2,0.8-0.4l-0.3-0.3
	c-0.2,0.1-0.4,0.2-0.6,0.3L189,147.1z M188.3,147.1c0.2,0.1,0.5,0.1,0.7,0l-0.1-0.4c-0.2,0-0.3,0-0.5,0L188.3,147.1z M167,138.6
	l21.3,8.5l0.1-0.4l-21.3-8.5L167,138.6z M166.3,138.1c0.2,0.2,0.5,0.4,0.7,0.5l0.1-0.4c-0.2-0.1-0.3-0.2-0.5-0.4L166.3,138.1z
	 M166.1,137.3c0,0.3,0.1,0.6,0.2,0.8l0.3-0.3c-0.1-0.2-0.1-0.3-0.1-0.5H166.1z M166.1,115.1v22.2h0.4v-22.2
	C166.5,115.1,166.1,115.1,166.1,115.1z M166.3,114.3c-0.1,0.3-0.2,0.6-0.2,0.8h0.4c0-0.2,0.1-0.5,0.2-0.7L166.3,114.3z M167,113.6
	c-0.3,0.2-0.6,0.5-0.7,0.7l0.4,0.2c0.1-0.2,0.3-0.4,0.5-0.5L167,113.6z M188.2,99.3l-21.3,14.4l0.2,0.3l21.3-14.4L188.2,99.3z
	 M188.9,99c-0.2,0-0.5,0.1-0.7,0.3l0.2,0.3c0.2-0.1,0.3-0.2,0.5-0.2V99z M189.7,99c-0.3-0.1-0.5-0.1-0.8,0v0.4
	c0.2-0.1,0.5-0.1,0.7,0L189.7,99z M190.3,99.6c-0.1-0.2-0.4-0.4-0.6-0.6l-0.1,0.4c0.2,0.1,0.3,0.1,0.4,0.3L190.3,99.6z M190.4,100.4
	c0-0.3,0.1-0.6-0.1-0.8l-0.3,0.1c0.1,0.2,0,0.6,0,0.7C190,100.4,190.4,100.4,190.4,100.4z"/>
<path class="st5" d="M129.9,159.8l-11-5.6c1.3-0.7,12-1.8,14.4-2.1c0.3,0,0.6,0,0.8,0.2l9.5,5.4L129.9,159.8z"/>
<path class="st5" d="M127.5,167.2l-9.6-5.2c-0.6-0.3-1-0.8-1.4-1.4c-0.3-0.6-0.5-1.2-0.4-1.9c0-0.5,0.1-0.9,0.2-1.3
	c0-0.1,0.8-0.2,0.9-0.3l8.9,5.2c-0.2,0.5-0.3,1.1-0.3,1.6c0,0.7,0.1,1.3,0.4,1.9C126.5,166.3,126.9,166.8,127.5,167.2"/>
<path class="st5" d="M126.8,164.4l-10.6-6.5c0,0,0.1-0.5,0.1-0.6c0.1-0.3,0.5-1.2,0.6-1.4l9.4,5.5
	C126.4,161.7,126.9,164.2,126.8,164.4z"/>
<path class="st5" d="M126.3,161.6l-9.6-5.2c0.1-0.2,0.4-1.2,1.4-1.6l9,6.4C126.9,161.3,126.4,161.4,126.3,161.6"/>
<path class="st5" d="M126.6,161.1l-9.6-5.2c0.1-0.1,1-2.1,4.3-2.1l11.1,5.1L126.6,161.1"/>
<path class="st5" d="M127,160.6l-9.6-5.2c0.1-0.1,0.3-0.3,0.4-0.4l9.6,5.2L127,160.6z"/>
<path class="st5" d="M127.4,160.3l-9.6-5.2c0.1-0.1,0.3-0.3,0.5-0.4l9.6,5.2C127.7,160,127.5,160.1,127.4,160.3z"/>
<path class="st5" d="M127.8,159.9l-9.7-5.2l0.8-0.5l9.4,5.3L127.8,159.9"/>
<path class="st5" d="M128.4,159.5l-9.6-5.2c0.4-0.2,0.7-0.3,1.1-0.3l9.6,5.2C129.2,159.3,128.8,159.4,128.4,159.5z"/>
<path class="st15" d="M146,161L146,161L146,161c0,1.1-0.4,2.2-1.1,3c-0.7,0.8-1.7,1.4-2.7,1.6l-12.7,1.8l0,0c-0.5,0.1-1,0-1.5-0.1
	c-0.5-0.2-0.9-0.4-1.3-0.7s-0.6-0.8-0.8-1.2c-0.2-0.5-0.2-1-0.2-1.4l0,0l0,0c0-1.1,0.4-2.1,1.1-3c0.7-0.8,1.7-1.4,2.7-1.6l12.7-1.8
	l0,0c0.5-0.1,1,0,1.4,0.1c0.5,0.2,0.9,0.4,1.3,0.7c0.4,0.3,0.6,0.7,0.8,1.2C146,160,146,160.5,146,161z"/>
<path class="st5" d="M118.2,160.8l-9.7-5.2c0.4-0.1,0.9-0.1,1.3,0l9.6,5.2C119,160.7,118.5,160.7,118.2,160.8"/>
<path class="st5" d="M119.4,160.9l-9.7-5.2c0.2,0,0.4,0.1,0.6,0.2l9.6,5.2C119.8,161,119.6,160.9,119.4,160.9"/>
<path class="st1" d="M160.9,79.4l-9.9-5.2c0.5-0.1,1.5-0.3,2-0.2l9.6,5.3c-0.5-0.1-1-0.1-1.5-0.1"/>
<path class="st1" d="M162.5,79.3l-9.6-5.2c0.2,0.1,0.4,0.1,0.7,0.2l9.6,5.2C163,79.5,162.8,79.4,162.5,79.3z"/>
<path class="st1" d="M163.2,79.6l-9.6-5.2h0.1l9.6,5.2H163.2z"/>
<path class="st5" d="M105.4,163l-10.5-4.1l1.3-1.6l12.3-1.7l5,2.4l4.7,2.9L105.4,163z"/>
<path class="st5" d="M103.6,170.7l-9.9-5.2c-0.6-0.3-1-0.8-1.4-1.4c-0.3-0.6-0.5-1.2-0.4-1.9c0-0.6,0.1-1.1,0.3-1.6l15.9,1.7
	c-0.2,0.5-6.3,4.6-6.3,5.2c0,0.7,1.5,1.3,1.9,1.9C104,169.9,103.1,170.3,103.6,170.7z"/>
<path class="st5" d="M101.9,165.6l-9.7-5c0.1-0.2,0.2-0.7,0.3-0.9c0.1-0.4,1-2.4,5.7-2.7l4,8C102,165.2,101.9,165.4,101.9,165.6z"/>
<path class="st5" d="M102.2,165l-9.6-5.2c0.1-0.2,0.2-0.3,0.3-0.5l9.6,5.2C102.3,164.6,102.2,164.8,102.2,165z"/>
<path class="st5" d="M102.5,164.5l-9.6-5.2l0.3-0.4l9.6,5.2L102.5,164.5z"/>
<path class="st5" d="M102.8,164l-9.6-5.2l0.4-0.4l9.6,5.2L102.8,164z"/>
<path class="st5" d="M103.2,163.6l-9.6-5.2c0.1-0.1,2.1-0.3,2.3-0.4l7.8,5.3C103.5,163.4,103.4,163.5,103.2,163.6z"/>
<path class="st5" d="M103.7,163.3l-7.4-4.4c0.2-0.1,0.2-0.4,0.4-0.5l7.5,4.5C104.1,163,103.9,163.1,103.7,163.3"/>
<path class="st5" d="M104.3,162.9l-9.4-4.5c0.4-0.2,2.8-0.4,3.2-0.5l7.3,4.6C105.1,162.6,104.7,162.8,104.3,162.9"/>
<path class="st15" d="M121.9,164.3L121.9,164.3L121.9,164.3c0,1.1-0.3,2.2-1,3c-0.7,0.9-1.6,1.5-2.7,1.7l-12.7,1.8l0,0
	c-0.5,0.1-1,0-1.5-0.1s-0.9-0.4-1.3-0.7s-0.6-0.8-0.8-1.2c-0.2-0.5-0.2-1-0.2-1.4l0,0l0,0c0-1.1,0.4-2.1,1.1-3
	c0.7-0.8,1.6-1.4,2.7-1.6l12.7-1.8c0.5-0.1,1,0,1.4,0.2c0.5,0.2,0.9,0.4,1.2,0.7c0.3,0.3,0.6,0.7,0.8,1.2
	C121.8,163.4,121.9,163.9,121.9,164.3z"/>
<path class="st1" d="M138.7,82.4l-9.6-5.2l22.4-3.1l9.6,5.2L138.7,82.4z"/>
<path class="st5" d="M88.9,166.8l-4.5-7.8c0.4-0.1,0.9-0.1,1.4,0l9.5,5.4c-0.4-0.1-0.9-0.1-1.3,0"/>
<path class="st5" d="M95.3,164.3l-9.6-5.3c0.2,0.1,0.4,0.1,0.6,0.2l9.6,5.2C95.7,164.4,95.5,164.3,95.3,164.3"/>
<path class="st5" d="M95.9,164.5l-9.6-5.2l8.4,6.3L95.9,164.5"/>
<path class="st5" d="M75.8,167.2l-4.1-6.4l12.7-1.8l9.6,5.2L75.8,167.2z"/>
<path class="st5" d="M79.2,174l-9.6-5.2c-0.6-0.3-1-0.8-1.4-1.4c-0.3-0.6-0.5-1.2-0.4-1.9c0-0.6,0.1-1.1,0.3-1.6l9.6,5.2
	c-0.2,0.5-0.3,1.1-0.3,1.6c0,0.7,0.1,1.3,0.4,1.9C78.2,173.1,78.7,173.6,79.2,174"/>
<path class="st5" d="M77.7,169l-9.6-5.2c0.1-0.2,0.2-0.4,0.3-0.7l9.7,5.2C77.9,168.6,77.8,168.8,77.7,169"/>
<path class="st5" d="M78,168.4l-9.6-5.2c0.1-0.2,0.2-0.3,0.3-0.5l9.6,5.2C78.2,168,78.1,168.2,78,168.4z"/>
<path class="st5" d="M78.3,167.9l-9.6-5.2l0.3-0.4l9.6,5.2L78.3,167.9z"/>
<path class="st5" d="M78.6,167.4l-9.6-5.2l0.4-0.4L79,167L78.6,167.4"/>
<path class="st5" d="M79,167l-9.6-5.2c0.1-0.1,0.3-0.3,0.5-0.4l9.6,5.2C79.3,166.8,79.2,166.9,79,167z"/>
<path class="st5" d="M79.5,166.7l-9.6-5.2c0.2-0.2,0.4-0.3,0.6-0.4l9.7,5.2C79.9,166.4,79.7,166.5,79.5,166.7"/>
<path class="st5" d="M78.3,171.8L67.9,166c-0.3,0.3-1.2-4.3,3.8-5.2l9.6,5.2c-0.4,0-0.8,0.2-1.1,0.3"/>
<path class="st5" d="M131.7,19.6l2.1,1.1c2.3,1.2,4.6,3,6.4,4.9c0.2,0.2,0.4,0.3,0.7,0.4"/>
<polygon class="st16" points="117.4,9.7 130.8,19.1 136.6,22.5 140.5,25.8 142.8,26.4 145.6,19.1 127.5,10.6 "/>
<path class="st15" d="M97.7,167.8L97.7,167.8L97.7,167.8c0,1.1-0.4,2.2-1.1,3s-1.7,1.4-2.7,1.6l-12.7,1.8l0,0c-0.5,0.1-1,0-1.5-0.1
	c-0.5-0.2-0.9-0.4-1.3-0.7s-0.6-0.8-0.8-1.2c-0.2-0.5-0.2-1-0.2-1.4l0,0l0,0c0-1.1,0.4-2.1,1.1-3c0.7-0.8,1.7-1.4,2.7-1.6l12.7-1.8
	l0,0c0.5-0.1,1,0,1.5,0.1c0.5,0.2,0.9,0.4,1.3,0.7s0.6,0.8,0.8,1.2C97.7,166.8,97.7,167.3,97.7,167.8z"/>
<path class="st12" d="M104,91.7l-9.6-5.2c4.3,1.1,8.9,1.3,13.3,0.7c3.9-0.6,7.7-1.7,11.3-3.4l9.6,5.2c-3.6,1.7-7.4,2.8-11.3,3.4
	C112.8,93.1,108.3,92.9,104,91.7z"/>
<path class="st2" d="M128.5,89.1l-9.6-5.2c2.2-1,4.2-2.2,6.2-3.6l9.6,5.2C132.8,86.8,130.7,88,128.5,89.1z"/>
<path class="st3" d="M134.7,85.5l-9.6-5.2c1.4-1,2.7-2,4-3.1l9.6,5.2C137.4,83.5,136.1,84.5,134.7,85.5z"/>
<path class="st5" d="M65.7,170.4l-5.5-8c0.4-0.1,0.9-0.1,1.3,0l9.6,5.2C70.7,167.5,66.1,170.3,65.7,170.4z"/>
<path class="st5" d="M71.1,167.7l-9.6-5.2c0.2,0.1,0.4,0.1,0.6,0.2l9.6,5.2C71.5,167.8,71.3,167.7,71.1,167.7"/>
<path class="st5" d="M71.7,167.9l-9.6-5.2h0.1L71.7,167.9L71.7,167.9"/>
<path class="st5" d="M57.4,170l-9.8-6l12.6-1.6l10.2,5.4L57.4,170z"/>
<path class="st5" d="M55,177.3l-9.6-5.2c-0.6-0.3-1-0.8-1.4-1.4c-0.3-0.6-0.5-1.2-0.4-1.9c0-0.6,0.1-1.1,0.3-1.6l9.6,5.2
	c-0.2,0.5-0.3,1.1-0.3,1.6c0,0.7,0.1,1.3,0.4,1.9C54,176.5,54.5,177,55,177.3z"/>
<path class="st5" d="M53.8,174l-9.9-6.8c0.1-0.2,0.2-0.5,0.4-0.8l9.5,5.3C53.7,172,53.9,173.7,53.8,174z"/>
<path class="st5" d="M53.8,171.8l-9.7-5c1.2-2.5,2.2-2.2,2.3-2.3l7.8,6.8C54.1,171.4,54,171.6,53.8,171.8"/>
<path class="st5" d="M54.1,171.3l-9.6-5.2l0.3-0.4l9.6,5.2L54.1,171.3z"/>
<path class="st5" d="M54.5,170.8l-9.7-5.2l0.5-0.6l9.7,5.3L54.5,170.8"/>
<path class="st5" d="M54.2,171.8l-9.2-6.5c0.9-0.8,1.8-1.2,3.6-1.4l9.2,5.5L54.2,171.8z"/>
<path class="st5" d="M55.3,170.1l-9.6-5.2c0.2-0.1,0.4-0.3,0.6-0.4l9.6,5.2C55.8,169.8,55.5,169.9,55.3,170.1z"/>
<path class="st5" d="M56,169.7l-9.6-5.2c0.4-0.2,0.7-0.3,1.1-0.3l9.6,5.2C56.7,169.4,56.4,169.5,56,169.7"/>
<path class="st15" d="M73.5,171.2L73.5,171.2L73.5,171.2c0,1.1-0.4,2.2-1.1,3s-1.7,1.4-2.7,1.6L57,177.6l0,0c-0.5,0.1-1,0-1.5-0.1
	s-0.9-0.4-1.3-0.7c-0.4-0.3-0.6-0.8-0.8-1.2c-0.2-0.5-0.3-1-0.2-1.4l0,0l0,0c0-1.1,0.4-2.1,1.1-3c0.7-0.8,1.7-1.4,2.7-1.6l12.7-1.8
	l0,0c0.5-0.1,1,0,1.4,0.1c0.5,0.1,0.9,0.4,1.3,0.7s0.6,0.7,0.8,1.2C73.5,170.2,73.6,170.7,73.5,171.2z"/>
<path class="st5" d="M100.9,81.3l-9.6-5.2l1,0.5l9.6,5.2L100.9,81.3z"/>
<path class="st5" d="M101.8,81.8l-9.6-5.2c1.6,0.8,3.2,1.4,4.9,1.8l9.6,5.2C105,83.1,103.4,82.5,101.8,81.8z"/>
<path class="st5" d="M103.3,86.1l-6.2-7.7c3.4,0.9,7,1.1,10.6,0.5c3.1-0.4,6.1-1.3,9-2.7l9.6,5.2c-2.8,1.4-5.8,2.3-8.9,2.7
	c-3.6,0.6-7,4.1-10.5,3.2"/>
<path class="st5" d="M113.4,86.8l3.2-10.6c1.7-0.8,3.4-1.8,5-2.9l13.1,5.1C133.1,79.5,115.2,85.9,113.4,86.8z"/>
<path class="st5" d="M131.2,78.6l-9.6-5.2c1.3-0.9,2.5-1.9,3.7-3l9.6,5.2C133.8,76.7,132.5,77.7,131.2,78.6z"/>
<path class="st5" d="M133.3,80.3l-8-9.9c1.1-1,2.2-2,3.1-3.1l13.2,4.2c-1,1.1-5.2,6.6-6.3,7.6"/>
<path class="st5" d="M138.1,72.4l-9.6-5.1c1-1.1,1.9-2.3,2.8-3.5l9.6,5.2C140,70.2,139.1,71.4,138.1,72.4"/>
<path class="st5" d="M141.2,70.1l-11.6-3.7c0.9-1.8,3.4-5.4,4.1-6.8l9.6,5.2C142.6,66.3,142.1,68.8,141.2,70.1z"/>
<path class="st5" d="M143.4,66.5l-9.6-6.8c0.9-1.7,1.7-3.4,2.3-5.2l12.5-0.6c-0.7,1.8-3.7,10.4-4.6,12"/>
<path class="st5" d="M145.6,59.7l-9.6-5.2c1.5-4.2,2.3-8.6,2.4-13c0-0.6,0.1-1.1,0.3-1.6l9.6,5.2c-0.2,0.5,2.1,6,2.1,6.5
	C150.4,56.1,147.2,55.6,145.6,59.7z"/>
<path class="st5" d="M148.4,45.1l-9.6-5.2c0.1-0.2,0.2-0.4,0.3-0.7l9.6,5.2C148.5,44.7,148.4,44.9,148.4,45.1"/>
<path class="st5" d="M148.6,44.4l-9.6-5.2c0.1-0.2,0.2-0.4,0.3-0.5l9.6,5.2C148.8,44.1,148.7,44.3,148.6,44.4z"/>
<path class="st5" d="M148.9,43.9l-9.6-5.2c0.1-0.2,0.2-0.3,0.3-0.4l9.6,5.2C149.1,43.6,149,43.8,148.9,43.9"/>
<path class="st5" d="M149.3,43.5l-9.6-5.2l0.4-0.4l9.6,5.2C149.6,43.2,149.4,43.3,149.3,43.5z"/>
<path class="st5" d="M148.6,46.5L138.4,41c0.1-0.1,0-3.7,3.7-4.2l11.1,5.1l0.5,0.5c-0.2,0.1-3.6,1.7-3.7,1.8"/>
<path class="st5" d="M150.2,42.7l-9.6-5.2l0.6-0.4l9.6,5.2C150.6,42.4,150.4,42.6,150.2,42.7z"/>
<path class="st5" d="M150.8,42.3l-9.6-5.2c0.4-0.2,0.7-0.3,1.1-0.3c0.4-0.1,0.9-0.1,1.3,0l9.6,5.2c-0.4-0.1-0.9-0.1-1.3,0
	C151.6,42,151.2,42.1,150.8,42.3"/>
<path class="st5" d="M153.2,42.4l-9.6-5.6c0.2,0.1,0.5,0.1,0.7,0.2l9.9,5.4C153.9,42.3,153.4,42.4,153.2,42.4z"/>
<path class="st1" d="M75.4,91.3l-9.6-5.2l20.5-2.9l9.6,5.2L75.4,91.3z"/>
<path class="st5" d="M117.4,9.6l-9.6-5.2c4.4-0.6,9-0.4,13.3,0.7l9.7,5.3c-4.4-1.1-8.9-1.4-13.3-0.7"/>
<path class="st5" d="M129.4,11.5l-9.5-6.7c2.1,0.5,5.5,1.5,7.4,2.5l9.6,5.2C134.9,11.6,131.4,12.1,129.4,11.5z"/>
<path class="st5" d="M136.9,12.6l-9.6-5.2c0.4,0.2,0.8,0.4,1.2,0.6l9.1,7.6L136.9,12.6z"/>
<path class="st5" d="M96.8,88.9l-9.6-5.2c-0.3-0.2-0.6-0.3-0.9-0.5c-5.1-3-9.4-7.4-12.2-12.7c-3.2-5.9-4.8-12.6-4.7-19.3
	c0-2,0.1-4,0.3-5.9c0.5-3.5,1.3-7,2.6-10.4l9.6,5.2c-1.2,3.3-2.1,6.8-2.6,10.4c-0.3,2-0.4,3.9-0.4,5.9c-0.1,6.7,1.6,13.4,4.8,19.3
	c2.8,5.2,7.1,9.6,12.2,12.7C96.2,88.6,96.5,88.8,96.8,88.9z"/>
<path class="st5" d="M80.6,52.1L70,42.8c0.5-6,4.1-12.3,5.2-14.4L88,30.8C86.9,32.9,81.4,49.9,80.6,52.1z"/>
<path class="st5" d="M84.8,33.7l-9.6-5.2c1-1.8,2-3.5,3.1-5.1l17.4,2C94.5,27,85.7,31.9,84.8,33.7z"/>
<path class="st5" d="M87.9,28.6l-9.6-5.2c1.1-1.5,2.2-3,3.5-4.4l9.6,5.2C90.2,25.6,89,27.1,87.9,28.6z"/>
<path class="st5" d="M89.3,30.6L81.8,19c1.2-1.4,2.5-2.7,3.9-4l14,3C98.3,19.3,90.5,29.2,89.3,30.6z"/>
<path class="st5" d="M95.3,20.2L85.7,15c1.5-1.3,3-2.6,4.7-3.7l9.6,5.2C98.4,17.7,96.8,18.9,95.3,20.2z"/>
<path class="st5" d="M91.9,26.3l-1.5-15c2-1.3,4-2.5,6.2-3.6l14.2,4.1C108.6,12.9,93.8,25,91.9,26.3z"/>
<path class="st5" d="M106.2,13l-9.6-5.2c3.6-1.7,7.4-2.8,11.3-3.4L122,9.1C118,9.6,109.7,11.3,106.2,13z"/>
<path class="st15" d="M117.4,9.7L117.4,9.7c-19.3,2.7-35.4,20.4-38,40.9c-0.3,1.9-0.4,3.9-0.4,5.9l0,0c-0.1,6.7,1.5,13.3,4.7,19.2
	c2.8,5.2,7,9.6,12.2,12.6c6.5,3.8,14,5.2,21.4,4l0,0c8-1.2,15.4-4.7,21.4-10l0,0c5.3-4.6,9.5-10.2,12.4-16.5s4.5-13.2,4.6-20.2l0,0
	l0,0c0-0.5,0-1-0.2-1.4c-0.2-0.5-0.5-0.9-0.8-1.2c-0.4-0.3-0.8-0.6-1.3-0.7c-0.5-0.1-1-0.2-1.4-0.1c-1.1,0.2-2.1,0.8-2.8,1.6
	c-0.7,0.9-1.1,1.9-1.1,3l0,0c0,18.3-13.8,35.2-30.8,37.5s-30.8-10.7-30.8-29s13.9-35.1,30.9-37.5c4.1-0.6,8.3-0.3,12.2,1
	c3.9,1.3,7.5,3.6,10.4,6.6 M117.4,9.7c5.1-0.8,10.3-0.3,15.2,1.3c4.9,1.6,9.3,4.4,12.9,8.1 M140,25.4L140,25.4L140,25.4 M140,25.4
	c0.4,0.4,0.8,0.6,1.3,0.8c0.5,0.2,1,0.2,1.5,0.1 M142.8,26.3L142.8,26.3L142.8,26.3 M142.8,26.3c0.8-0.1,1.5-0.5,2.1-1
	s1.1-1.1,1.3-1.9c0.3-0.7,0.4-1.5,0.3-2.3c-0.1-0.8-0.5-1.4-1-2 M142.8,26.3L142.8,26.3L142.8,26.3"/>
<path class="st5" d="M140.1,25.6l-9.3-5.1c-0.3-0.2-0.5-0.4-0.8-0.6c-0.5-0.5-1-1-1.5-1.4l1.4,0.5l1.6,0.6c0,0,0.4,0.2,0.5,0.2
	l3.2,1.7l0.4,0.3l2.6,1.9l0.3,0.2L140.1,25.6z"/>
<path class="st1" d="M45.7,91.5l-9.6-5.3l0.6,0.3l9.7,5.3L45.7,91.5"/>
<path class="st1" d="M46.4,91.9l-9.6-5.2c1,0.5,2.1,0.9,3.2,1.2l9.6,5.2C48.5,92.8,47.4,92.4,46.4,91.9z"/>
<path class="st1" d="M48.6,93.7L40,87.8c2.3,0.6,4.7,0.7,7,0.4l20.3,2.9C65,91.4,52.7,95.6,50.4,95"/>
<path class="st1" d="M56.6,93.4L47,88.2c2-0.3,4-0.9,5.9-1.8l9.6,5.2C60.6,92.5,58.6,93.1,56.6,93.4z"/>
<path class="st1" d="M51,98.7l1.9-12.3c1.2-0.5,2.3-1.2,3.3-1.9l14.1,2.3C69.2,87.6,52.1,98.2,51,98.7z"/>
<path class="st1" d="M65.8,89.7l-9.6-5.2c0.9-0.6,1.7-1.2,2.5-1.9l9.6,5.2C67.5,88.5,66.6,89.1,65.8,89.7z"/>
<path class="st1" d="M68.2,87.8l-10.5-4.4c0.9-0.6,2.4-2.2,3-2.9l9.6,5.2C69.7,86.4,69,87.1,68.2,87.8z"/>
<path class="st1" d="M69.9,86.8l-9.7-5.7c0.7-0.7,2.4-3.1,2.9-3.9l9.6,5.2C72.2,83.2,70.6,86,69.9,86.8z"/>
<path class="st1" d="M72.3,83.1l-9.6-5.2c0.6-0.9,1.2-1.8,1.7-2.7l9.6,5.2C73.4,81.3,72.9,82.2,72.3,83.1z"/>
<path class="st1" d="M73.8,80.7l-9.6-5.2c0.6-1.1,1.2-2.6,1.6-3.7l9.7,5C75.1,77.9,74.4,79.6,73.8,80.7z"/>
<path class="st1" d="M75.4,77.2l-9.7-5c1-2.7,1.5-5.9,1.6-8.8c0.1-3.5-0.7-6.9-2.3-9.9c-1.7-3-4.1-5.6-7.1-7.3L68.5,50
	c3,1.7,4.4,5.7,6.1,8.7s2.5,6.5,2.3,9.9C76.9,71.6,76.4,74.5,75.4,77.2z"/>
<path class="st13" d="M30.7,63.6L21,58.7c0.6-1.6,1.7-4.1,2.5-5.6l13.6,4.1C36.3,58.7,31.3,61.9,30.7,63.6"/>
<path class="st13" d="M32.8,58.9l-9.7-5.2c0.7-1.3,2.2-3.5,3.1-4.7l15.1,4C40.5,54.2,33.5,57.6,32.8,58.9z"/>
<path class="st13" d="M35.1,55.1l-9.6-5.2c0.8-1.1,1.6-2.2,2.5-3.2l17,2.6C44.1,50.3,35.9,54,35.1,55.1z"/>
<path class="st13" d="M37.6,51.9L28,46.7c0.9-1,1.9-2,2.9-2.9l16.4,5.1C46.3,49.8,38.5,50.9,37.6,51.9z"/>
<path class="st13" d="M40.5,49l-9.6-5.2c1.1-1,2.2-1.9,3.4-2.7l20,4C53.1,46,41.6,48.1,40.5,49z"/>
<path class="st13" d="M43.9,46.3l-9.6-5.2c1.4-1,3-1.9,4.6-2.6l15.9,4.4C53.1,43.6,45.4,45.3,43.9,46.3z"/>
<path class="st13" d="M48.5,43.7l-9.6-5.2c2.6-1.2,5.3-2,8.2-2.4c3.2-0.5,6.5-0.3,9.7,0.5l9.6,5.2c-3.2-0.8-5.6,2-8.9,2.5
	C54.7,44.6,51.1,42.5,48.5,43.7z"/>
<path class="st13" d="M65.3,42.8l-8.7-6.2c1.5,0.4,3.1,0.8,4.5,1.5l9.6,5.2C69.4,42.7,66.9,43.2,65.3,42.8z"/>
<path class="st13" d="M70.8,43.4l-9.6-5.2l0.8,0.4l9.7,5.2L70.8,43.4"/>
<path class="st17" d="M78.9,56.4c-0.1,6.7,1.5,13.4,4.7,19.3c-1.5,5.8-4.3,11.1-8.3,15.6c-4.8,5.6-11.5,9.4-18.8,10.5
	c-3.3,0.5-6.7,0.3-10-0.6c-3.2-0.9-6.3-2.5-8.8-4.6c-3-2.6-5.4-5.9-7-9.5c-1.6-3.6-2.4-7.6-2.2-11.6c0-16.7,12.7-32,28.1-34.2
	c4.3-0.7,8.6-0.2,12.6,1.4c4,1.6,7.5,4.3,10.1,7.7C79.1,52.5,78.9,54.4,78.9,56.4z M56.6,93.4C67.8,91.8,76.9,80.7,77,68.6
	c0-12.1-9.1-20.6-20.3-19S36.3,62.3,36.3,74.3S45.3,95,56.6,93.4"/>
<path d="M78.9,56.4h0.2l0,0H78.9z M83.6,75.7h0.2v-0.1v-0.1L83.6,75.7z M75.4,91.3L75.4,91.3L75.4,91.3L75.4,91.3z M56.5,101.9v0.2
	l0,0V101.9z M37.7,96.7l-0.1,0.2l0,0L37.7,96.7z M28.5,75.6h0.2l0,0H28.5z M56.6,41.4v0.2l0,0V41.4z M79.3,50.5h0.2v-0.1v-0.1
	L79.3,50.5z M78.7,56.4c-0.1,6.8,1.6,13.5,4.8,19.4h0.4c-3.2-5.9-4.9-12.7-4.8-19.4H78.7z M83.5,75.7c-1.4,5.8-4.3,11.1-8.2,15.5
	l0.3,0.3c4-4.5,6.9-9.9,8.3-15.7L83.5,75.7z M75.3,91.2c-4.8,5.6-11.5,9.3-18.8,10.5l0.1,0.4c7.4-1.2,14.2-5,19-10.6L75.3,91.2z
	 M56.5,101.7c-3.3,0.5-6.7,0.3-9.9-0.6l-0.1,0.4c3.3,0.9,6.7,1.1,10,0.6V101.7z M46.6,101.1c-3.2-0.9-6.2-2.4-8.8-4.6l-0.3,0.3
	c2.6,2.2,6.2,3.9,9.5,4.8L46.6,101.1z M37.9,96.5c-3-2.6-5.3-5.8-6.9-9.4l-0.4,0.2c1.6,3.7,4,6.9,7,9.6L37.9,96.5z M31,87.1
	c-1.6-3.6-2.4-7.5-2.3-11.5h-0.5c-0.1,4,0.9,8.2,2.5,11.9L31,87.1z M28.7,75.6c0-16.6,12.8-31.8,28.1-34l-0.2-0.4
	c-15.5,2.2-28.4,17.6-28.4,34.4H28.7z M56.7,41.6c4.2-0.7,8.5-0.2,12.5,1.4l0.2-0.4c-4-1.6-8.5-2.1-12.8-1.4L56.7,41.6z M69.2,43
	c4,1.6,7.4,4.2,10,7.6l0.3-0.2c-2.6-3.5-6.1-6.2-10.1-7.8L69.2,43z M79.1,50.5c-0.3,2-0.4,3.9-0.4,5.9h0.4c0-2,0.2-3.9,0.4-5.9H79.1
	z M56.6,93.6c11.3-1.6,20.5-12.8,20.5-25h-0.4c0,12-9.1,23-20.2,24.6L56.6,93.6z M77.1,68.6c0-12.2-9.2-20.9-20.5-19.2l0.1,0.4
	c11.1-1.6,20.1,6.8,20,18.8H77.1z M56.7,49.4c-11.3,1.7-20.6,12.9-20.7,25h0.4c0-12,9.2-23,20.3-24.6V49.4z M36.1,74.4
	c0,12.2,9.2,20.9,20.5,19.2l-0.1-0.4c-11.1,1.6-20.1-6.8-20.1-18.8L36.1,74.4z"/>
<rect x="163" y="145" class="st17" width="2.1" height="3"/>
</svg>
