<svg width="706" height="420" viewBox="0 0 706 420" fill="none" xmlns="http://www.w3.org/2000/svg">
<g filter="url(#filter0_d)">
<path d="M352.448 414L700 281.532L352.448 146.162L2 281.532L352.448 414Z" fill="#F1F1F1"/>
</g>
<g filter="url(#filter1_f)">
<path d="M362.587 243.469L185.675 310.377L46.389 259.502L222.316 195.68L362.587 243.469Z" fill="url(#paint0_linear)"/>
</g>
<path d="M338.414 368.434L181.663 309.072L181.609 118.865L338.414 178.227V368.434Z" fill="#053866"/>
<path d="M495.546 308.639L338.633 249.006L338.795 59.2859L495.869 118.702L495.546 308.639Z" fill="#083556"/>
<path d="M338.359 368.434L495.812 308.423L495.866 118.702L338.413 178.227L338.359 368.434Z" fill="#054270"/>
<path d="M181.663 309.072L338.684 248.627L338.792 59.2859L181.609 118.864L181.663 309.072Z" fill="#063D66"/>
<g filter="url(#filter2_f)">
<ellipse cx="338.784" cy="217.047" rx="105.651" ry="105.011" fill="url(#paint1_radial)"/>
</g>
<path d="M338.364 368.434L181.667 309.072L181.613 118.865L338.418 178.226L338.364 368.434Z" fill="#053866"/>
<path d="M220.788 181.581L181.667 166.646L181.613 118.864L220.788 134.124V181.581Z" fill="#053866"/>
<path d="M192.081 164.807C188.517 164.897 184.972 164.252 181.667 162.913L181.559 157.826C189.598 160.91 197.315 160.315 203.25 156.203C210.319 151.332 214.797 143.27 214.797 131.581L219.546 133.475C219.546 146.787 215.607 154.254 207.243 160.045C202.754 163.068 197.487 164.722 192.081 164.807Z" fill="#D1D1D1"/>
<path d="M259.963 196.516L220.789 181.581V134.124L259.963 149.059V196.516Z" fill="#0E2951"/>
<path d="M299.081 211.454L259.961 196.519V149.061L299.081 163.942V211.454Z" fill="#D1D1D1"/>
<path d="M338.202 226.171L299.082 211.453V163.941L338.418 178.227L338.202 226.171Z" fill="#848484"/>
<path d="M220.784 229.039L181.664 214.158V166.646L220.784 181.582V229.039Z" fill="#848484"/>
<path d="M259.959 243.973L220.785 229.038V181.581L259.959 196.516V243.973Z" fill="#A5A5A5"/>
<path d="M299.077 258.909L259.957 243.974V196.517L299.077 211.452V258.909Z" fill="#053866"/>
<path d="M338.198 273.629L299.078 258.91V211.453L338.198 226.172V273.629Z" fill="#132F7C"/>
<path d="M259.959 291.431L220.785 276.55V229.039L259.959 243.974V291.431Z" fill="#D1D1D1"/>
<path d="M299.077 306.365L259.957 291.43V243.973L299.077 258.908V306.365Z" fill="#0E2951"/>
<path d="M338.198 321.085L299.078 306.366V258.909L338.198 273.628V321.085Z" fill="#053866"/>
<path d="M220.784 324.006L181.664 309.071V261.614L220.784 276.549V324.006Z" fill="#A5A5A5"/>
<path d="M259.959 338.888L220.785 324.007V276.55L259.959 291.431V338.888Z" fill="#053866"/>
<path d="M299.077 353.823L259.957 338.888V291.431L299.077 306.366V353.823Z" fill="#D1D1D1"/>
<path d="M338.364 368.435L299.082 353.824V306.367L338.202 321.086L338.364 368.435Z" fill="#848484"/>
<path d="M189.65 154.957C186.908 154.998 184.188 154.464 181.664 153.388V147.706C187.276 149.871 194.237 149.113 197.69 146.84C203.464 142.998 206.269 137.046 206.269 128.766L211.018 130.66C211.018 140.834 207.403 147.057 200.927 151.548C197.589 153.781 193.663 154.967 189.65 154.957Z" fill="#C5C5C5"/>
<path d="M186.844 143.974C185.069 144.009 183.306 143.677 181.664 143V137.318C185.01 138.617 190.19 138.292 193.049 135.424C196.017 132.448 196.827 130.013 196.827 124.98L201.575 126.874C201.575 133.8 199.201 138.508 194.722 141.593C192.391 143.155 189.648 143.984 186.844 143.974Z" fill="#A5A5A5"/>
<path d="M184.254 132.988C183.363 133.064 182.467 132.896 181.664 132.501V126.819C182.527 127.144 185.333 127.361 186.412 126.819C188.301 125.845 188.301 123.951 187.384 121.138L193.049 123.032C193.049 126.982 191.646 129.742 189.002 131.581C187.585 132.493 185.938 132.981 184.254 132.988Z" fill="#767676"/>
<path d="M337.228 314.429L304.043 301.82V219.785L337.821 232.177V238.833L309.763 228.01V297.87L336.904 308.152L337.228 314.429Z" fill="#A5A5A5"/>
<path d="M337.821 315.727L304.043 301.82V259.991L309.763 261.885V297.87L337.821 309.071V315.727Z" fill="#ADADAD"/>
<path d="M337.23 302.092L313.488 293.055V233.801L337.824 242.622V249.277L319.154 242.08V290.079L337.824 296.735L337.23 302.092Z" fill="#A5A5A5"/>
<path d="M337.227 290.729L323.629 285.534V250.956L337.82 255.934V262.59L329.295 259.235V281.638L337.82 285.372L337.227 290.729Z" fill="#A5A5A5"/>
<path d="M337.82 291.052L323.629 285.532V267.458L329.295 269.352V281.636L337.82 284.396V291.052Z" fill="#ADADAD"/>
<path d="M337.824 303.39L313.488 294.028V263.562L319.154 265.456V290.078L337.824 296.734V303.39Z" fill="#ADADAD"/>
<path d="M211.396 320.437L181.664 309.073V272.98L211.396 284.344V320.437Z" fill="#053866"/>
<path d="M201.197 316.541L181.664 309.074V285.318L201.197 292.786V316.541Z" fill="#D1D1D1"/>
<path d="M298.918 181.311L284.726 205.77L260.121 179.147L274.312 154.688L298.918 181.311Z" fill="#A5A5A5"/>
<path d="M289.42 180.77L282.136 193.27L269.617 179.688L276.848 167.242L289.42 180.77Z" fill="#848484"/>
<path d="M299.077 353.824L259.957 338.889V300.956L299.077 315.837V353.824Z" fill="#A5A5A5"/>
<path d="M299.077 353.825L259.957 338.89V311.401L299.077 326.282V353.825Z" fill="#848484"/>
<path d="M299.077 353.825L259.957 338.89V321.844L299.077 336.725V353.825Z" fill="#053866"/>
<path d="M299.077 353.823L259.957 338.888V330.393L299.077 345.274V353.823Z" fill="#0E2951"/>
<path d="M220.785 192.945L259.959 207.88L220.785 219.568L259.959 234.504L220.785 192.945Z" fill="#848484"/>
<path d="M186.359 216.051L181.664 214.157V166.7L186.359 168.594V216.051Z" fill="#D1D1D1"/>
<path d="M193.971 218.92L189.223 217.026V169.515L193.971 171.463V218.92Z" fill="#D1D1D1"/>
<path d="M218.569 228.39L213.82 226.496V179.039L218.569 180.933V228.39Z" fill="#D1D1D1"/>
<path d="M210.318 224.928L204.652 223.034V175.577L210.318 177.471V224.928Z" fill="#D1D1D1"/>
<path d="M201.522 221.734L196.773 219.84V172.383L201.522 174.277V221.734Z" fill="#D1D1D1"/>
<path d="M220.784 276.551L181.664 261.616V214.159L220.784 229.04V276.551Z" fill="#0E2951"/>
<path d="M220.786 276.549L201.199 269.081V245.326L220.786 252.793V276.549Z" fill="#848484"/>
<path d="M201.197 245.328L181.664 237.86V214.159L201.197 221.626V245.328Z" fill="#848484"/>
<path d="M243.72 313.348L237.029 310.805V303.012L248.684 307.45V321.086L232.065 314.755V295.274L253.703 303.499V328.932L227.047 318.813V286.508L253.703 296.627" stroke="#ADADAD" stroke-width="4" stroke-miterlimit="10"/>
<path d="M306.148 350.848L332.75 324.874" stroke="#0E2951" stroke-width="6" stroke-miterlimit="10"/>
<path d="M332.75 360.966L306.148 314.754" stroke="#0E2951" stroke-width="6" stroke-miterlimit="10"/>
<path d="M274.04 266.43L267.781 264.049V256.474L274.04 258.855V266.43Z" fill="#848484"/>
<path d="M282.623 280.174L276.363 277.794V270.165L282.623 272.545V280.174Z" fill="#848484"/>
<path d="M291.259 293.866L285 291.485V283.91L291.259 286.291V293.866Z" fill="#848484"/>
<path d="M338.413 178.227L495.866 118.702V308.639L338.359 368.434L338.413 178.227Z" fill="#053866"/>
<path d="M456.473 228.605L495.863 213.669V261.181L456.473 276.116V228.605Z" fill="#848484"/>
<path d="M417.031 243.539L456.475 228.604V276.115L417.031 290.996V243.539Z" fill="#A5A5A5"/>
<path d="M377.637 258.476L417.027 243.54V290.997L377.637 305.933V258.476Z" fill="#053866"/>
<path d="M338.195 273.628L377.639 258.476V305.934L338.195 321.085V273.628Z" fill="#132F7C"/>
<path d="M417.031 196.085L456.475 181.15V228.607L417.031 243.542V196.085Z" fill="#D1D1D1"/>
<path d="M377.637 211.018L417.027 196.083V243.54L377.637 258.476V211.018Z" fill="#0E2951"/>
<path d="M338.195 226.171L377.639 211.019V258.476L338.195 273.628V226.171Z" fill="#053866"/>
<path d="M417.031 290.999L456.475 276.118V323.575L417.031 338.51V290.999Z" fill="#0E2951"/>
<path d="M377.637 305.934L417.027 290.999V338.51L377.637 353.391V305.934Z" fill="#D1D1D1"/>
<path d="M338.195 321.085L377.639 305.934V353.391L338.357 368.434L338.195 321.085Z" fill="#848484"/>
<path d="M456.477 133.692L495.867 118.702V166.213L456.477 181.149V133.692Z" fill="#A5A5A5"/>
<path d="M417.031 148.626L456.475 133.691V181.148L417.031 196.083V148.626Z" fill="#053866"/>
<path d="M377.641 163.562L417.031 148.627V196.084L377.641 211.019V163.562Z" fill="#D1D1D1"/>
<path d="M338.411 178.227L377.639 163.562V211.019L338.195 226.171L338.411 178.227Z" fill="#848484"/>
<path d="M337.82 315.727V309.071L366.904 297.491V227.631L339.223 238.075L337.227 232.772L372.57 219.352V301.387L337.82 315.727Z" fill="#A5A5A5"/>
<path d="M372.57 261.452L366.904 263.346V227.631L337.82 238.833V232.177L372.57 219.352V261.452Z" fill="#ADADAD"/>
<path d="M337.82 303.391V296.735L357.461 288.726V241.648L337.82 249.278V242.622L363.127 235.317V292.676L337.82 303.391Z" fill="#A5A5A5"/>
<path d="M337.82 291.053V284.397L347.209 281.204V258.801L339.223 261.832L337.227 256.529L352.875 250.576V285.154L337.82 291.053Z" fill="#A5A5A5"/>
<path d="M352.875 268L347.209 269.894V258.801L337.82 262.589V255.933L352.875 250.576V268Z" fill="#ADADAD"/>
<path d="M363.127 265.026L357.461 266.974V241.649L337.82 249.279V242.623L363.127 233.424V265.026Z" fill="#ADADAD"/>
<path d="M476.168 126.224L495.863 118.702V142.512L476.168 149.98V126.224Z" fill="#D1D1D1"/>
<path d="M377.805 335.913L392.104 300.685L416.871 308.531L402.572 343.759L377.805 335.913Z" fill="#A5A5A5"/>
<path d="M387.355 329.204L394.64 311.238L407.32 315.243L399.982 333.208L387.355 329.204Z" fill="#848484"/>
<path d="M377.641 163.562L417.031 148.627V186.614L377.641 201.495V163.562Z" fill="#A5A5A5"/>
<path d="M377.641 163.562L417.031 148.627V176.17L377.641 191.052V163.562Z" fill="#848484"/>
<path d="M377.641 163.562L417.031 148.627V165.727L377.641 180.608V163.562Z" fill="#053866"/>
<path d="M377.641 163.562L417.031 148.627V157.177L377.641 172.112V163.562Z" fill="#0E2951"/>
<path d="M456.475 264.753L417.031 279.688L456.475 238.129L417.031 253.064" fill="#848484"/>
<path d="M495.923 261.615L490.258 263.509V215.132L495.923 213.184V261.615Z" fill="#D1D1D1"/>
<path d="M488.474 264.104L482.754 265.998V218.541L488.474 216.647V264.104Z" fill="#D1D1D1"/>
<path d="M464.785 273.033L459.12 274.927L459.012 227.47L464.677 225.576L464.785 273.033Z" fill="#D1D1D1"/>
<path d="M472.666 270.057L467 271.951V224.494L472.666 222.6V270.057Z" fill="#D1D1D1"/>
<path d="M480.599 267.08L474.879 268.974V221.517L480.599 219.623V267.08Z" fill="#D1D1D1"/>
<path d="M456.477 181.149L495.867 166.213V213.67L456.477 228.606V181.149Z" fill="#0E2951"/>
<path d="M456.477 276.118L495.867 261.183V308.64L456.477 323.575V276.118Z" fill="#053866"/>
<path d="M456.477 181.148L476.172 173.681V197.436L456.477 204.904V181.148Z" fill="#848484"/>
<path d="M461.873 321.41L457.125 323.304C457.125 291.052 474.932 271.463 495.922 263.509V268.271C476.982 275.468 461.873 299.602 461.873 321.41Z" fill="#D1D1D1"/>
<path d="M472.287 317.623L466.621 319.517C466.621 296.735 480.165 278.77 495.975 272.817V278.499C482.161 283.748 472.287 300.902 472.287 317.623Z" fill="#C5C5C5"/>
<path d="M482.323 313.834L477.035 315.728C477.035 301.496 485.075 287.805 495.813 283.693L495.921 289.104C487.557 292.351 482.323 303.606 482.323 313.834Z" fill="#A5A5A5"/>
<path d="M491.226 310.047L486.478 311.941C485.507 304.365 489.931 296.843 495.813 294.624L495.921 300.577C492.252 301.93 491.226 305.447 491.226 310.047Z" fill="#767676"/>
<path d="M433.384 161.829L440.075 159.286V167.024L428.366 171.461V157.879L445.147 151.548V171.029L423.348 179.254V153.821L450.165 143.647V175.953L423.348 186.126" stroke="#ADADAD" stroke-width="4" stroke-miterlimit="10"/>
<path d="M370.522 171.949L343.758 218.162" stroke="#0E2951" stroke-width="6" stroke-miterlimit="10"/>
<path d="M343.758 182.068L370.522 207.988" stroke="#0E2951" stroke-width="6" stroke-miterlimit="10"/>
<path d="M402.844 231.853L409.157 229.472V237.047L402.844 239.428V231.853Z" fill="#848484"/>
<path d="M394.207 224.656L400.466 222.275V229.904L394.207 232.285V224.656Z" fill="#848484"/>
<path d="M385.52 217.512L391.833 215.131V222.706L385.52 225.087V217.512Z" fill="#848484"/>
<path d="M465.918 130.12L495.865 118.702V154.85L465.918 166.159V130.12Z" fill="#053866"/>
<path d="M476.168 197.436L495.863 189.969V213.67L476.168 221.138V197.436Z" fill="#848484"/>
<path d="M554.629 60.3686L495.868 118.702L338.793 59.2863L397.5 0.573669L554.629 60.3686Z" fill="#084C7F"/>
<path d="M338.523 178.281L280.032 236.398L122.957 177.144L181.611 118.865L338.523 178.281Z" fill="#094573"/>
<path d="M338.793 59.2869L280.032 0.57431L122.957 59.8822L181.611 118.865L338.793 59.2869Z" fill="#084C7F"/>
<path d="M554.632 176.657L495.871 118.702L338.418 178.227L397.503 236.452L554.632 176.657Z" fill="#084C7F"/>
<defs>
<filter id="filter0_d" x="0" y="144.162" width="706" height="275.838" filterUnits="userSpaceOnUse" color-interpolation-filters="sRGB">
<feFlood flood-opacity="0" result="BackgroundImageFix"/>
<feColorMatrix in="SourceAlpha" type="matrix" values="0 0 0 0 0 0 0 0 0 0 0 0 0 0 0 0 0 0 127 0"/>
<feOffset dx="2" dy="2"/>
<feGaussianBlur stdDeviation="2"/>
<feColorMatrix type="matrix" values="0 0 0 0 0 0 0 0 0 0 0 0 0 0 0 0 0 0 0.1 0"/>
<feBlend mode="normal" in2="BackgroundImageFix" result="effect1_dropShadow"/>
<feBlend mode="normal" in="SourceGraphic" in2="effect1_dropShadow" result="shape"/>
</filter>
<filter id="filter1_f" x="41.3906" y="190.68" width="326.198" height="124.697" filterUnits="userSpaceOnUse" color-interpolation-filters="sRGB">
<feFlood flood-opacity="0" result="BackgroundImageFix"/>
<feBlend mode="normal" in="SourceGraphic" in2="BackgroundImageFix" result="shape"/>
<feGaussianBlur stdDeviation="2.5" result="effect1_foregroundBlur"/>
</filter>
<filter id="filter2_f" x="153.133" y="32.036" width="371.302" height="370.022" filterUnits="userSpaceOnUse" color-interpolation-filters="sRGB">
<feFlood flood-opacity="0" result="BackgroundImageFix"/>
<feBlend mode="normal" in="SourceGraphic" in2="BackgroundImageFix" result="shape"/>
<feGaussianBlur stdDeviation="40" result="effect1_foregroundBlur"/>
</filter>
<linearGradient id="paint0_linear" x1="353.22" y1="312.31" x2="271.456" y2="135.141" gradientUnits="userSpaceOnUse">
<stop offset="0.0960889"/>
<stop offset="0.978163" stop-color="white" stop-opacity="0"/>
</linearGradient>
<radialGradient id="paint1_radial" cx="0" cy="0" r="1" gradientUnits="userSpaceOnUse" gradientTransform="translate(337.57 180.836) rotate(90) scale(83.2845 83.7922)">
<stop stop-color="#0095FF"/>
<stop offset="1" stop-color="#BCE3FF"/>
</radialGradient>
</defs>
</svg>
