<svg width="810" height="131" viewBox="0 0 810 131" fill="none" xmlns="http://www.w3.org/2000/svg">
<path d="M7.27997 49.6328H37.4019C41.4235 49.6328 44.6836 53.3107 44.6836 57.8475V65.5047C44.6836 70.0416 41.4235 73.7194 37.4019 73.7194H7.27997C3.2584 73.7194 -0.00173187 70.0416 -0.00173187 65.5047V57.8475C-0.00173187 53.3107 3.2584 49.6328 7.27997 49.6328Z" fill="#F0C49F"/>
<g style="mix-blend-mode:multiply" opacity="0.6">
<path d="M7.27997 49.6328H37.4019C41.4235 49.6328 44.6836 53.3107 44.6836 57.8475V65.5047C44.6836 70.0416 41.4235 73.7194 37.4019 73.7194H7.27997C3.2584 73.7194 -0.00173187 70.0416 -0.00173187 65.5047V57.8475C-0.00173187 53.3107 3.2584 49.6328 7.27997 49.6328Z" fill="#F0C49F"/>
</g>
<path d="M0.00357611 57.8473V68.2556C0.00943309 70.2841 0.648499 72.2455 1.80858 73.7954C2.96866 75.3452 4.5756 76.3846 6.34732 76.731C5.25577 77.4413 4.34881 78.4627 3.71727 79.6929C3.08572 80.9231 2.75175 82.3188 2.7488 83.7404V89.0749C2.75327 90.7715 3.22815 92.424 4.10689 93.8009C4.98563 95.1777 6.22419 96.2099 7.64901 96.7528C6.97055 97.4534 6.42863 98.3054 6.05764 99.2549C5.68666 100.204 5.49472 101.23 5.49402 102.268V105.731C5.49885 107.719 6.20074 109.624 7.44637 111.029C8.692 112.435 10.3801 113.228 12.142 113.234H12.7185C11.982 113.953 11.3914 114.843 10.9867 115.843C10.5821 116.842 10.373 117.929 10.3737 119.028V123.007C10.3785 125.041 11.0968 126.99 12.3717 128.428C13.6466 129.867 15.3743 130.677 17.1772 130.683H44.5974C45.0765 130.682 45.5543 130.624 46.0226 130.51H72.7245C78.7545 130.283 86.6996 126.519 86.6996 126.519C86.6996 126.519 91.9897 123.853 93.8084 123.696L102.59 121.814L101.652 62.1107H85.1809C85.1809 62.1107 70.8094 49.6326 67.7945 22.2628C66.2663 16.1334 66.3762 7.44385 66.534 3.37135C66.5594 2.69278 66.3698 2.02619 65.9993 1.4909C65.6287 0.955614 65.1014 0.586586 64.5117 0.449885C59.3214 -0.77479 52.7012 -1.5153 52.1371 26.7687C51.9951 33.8894 56.1737 39.4726 52.1371 54.1051H14.1094C13.2804 54.1044 12.4856 53.7324 11.8996 53.0709C11.3136 52.4093 10.9845 51.5124 10.9845 50.5772V49.6326H7.27841C5.35005 49.6407 3.50283 50.5091 2.13991 52.0481C0.77698 53.5871 0.00899967 55.6718 0.00357611 57.8473Z" fill="#F0C49F"/>
<g style="mix-blend-mode:multiply" opacity="0.3">
<path d="M54.1235 31.4742C54.1582 31.8937 57.375 51.1959 57.2565 51.5956C57.1381 51.9952 56.947 52.3626 56.6955 52.6742C56.4441 52.9858 54.4651 54.1758 54.1235 54.3463C53.7819 54.5168 53.4125 54.6051 53.039 54.6054L52.0751 54.0589C54.1235 46.0601 54.5911 43.302 52.8278 32.8862C51.1552 23.0056 52.4096 -0.0503109 61.1418 0.00400204C61.3813 0.0591319 61.6125 0.153011 61.8281 0.282728C53.7228 2.36916 52.8278 20.1818 54.1235 31.4742Z" fill="#F0C49F"/>
</g>
<g style="mix-blend-mode:multiply" opacity="0.3">
<path d="M7.27552 49.6328H10.9816V50.58C10.98 51.2747 11.1624 51.9541 11.5054 52.531C10.3798 54.0114 9.76068 55.8971 9.75994 57.8475V68.2559C9.76625 70.2842 10.4055 72.2453 11.5655 73.7951C12.7255 75.3449 14.3322 76.3844 16.1037 76.7312C15.0121 77.4422 14.1052 78.4641 13.4737 79.6946C12.8422 80.9252 12.5082 82.3213 12.5052 83.7432V89.0752C12.5098 90.7721 12.985 92.4248 13.8642 93.8017C14.7434 95.1786 15.9824 96.2106 17.4077 96.753C16.7285 97.4537 16.186 98.306 15.8146 99.256C15.4432 100.206 15.2511 101.233 15.2504 102.271V105.734C15.2552 107.722 15.9574 109.627 17.2035 111.033C18.4497 112.439 20.1384 113.231 21.9007 113.237H22.4772C21.7408 113.956 21.1503 114.845 20.7457 115.844C20.3411 116.843 20.1319 117.929 20.1323 119.028V123.005C20.1371 125.038 20.8552 126.987 22.1296 128.425C23.4039 129.863 25.1311 130.674 26.9336 130.68H17.1743C15.3714 130.675 13.6437 129.864 12.3688 128.426C11.0939 126.988 10.3756 125.039 10.3708 123.005V119.028C10.3716 117.931 10.5815 116.847 10.986 115.85C11.3906 114.852 11.9805 113.965 12.7156 113.247H12.1391C10.3773 113.241 8.68912 112.448 7.44348 111.043C6.19785 109.637 5.49596 107.732 5.49113 105.745V102.271C5.49152 101.233 5.6833 100.206 6.0543 99.2563C6.42529 98.3064 6.96738 97.4539 7.64613 96.753C6.22111 96.2105 4.98235 95.1784 4.10357 93.8014C3.22478 92.4245 2.75004 90.7719 2.74591 89.0752V83.7432C2.74892 82.3213 3.0829 80.9252 3.71442 79.6946C4.34594 78.4641 5.25286 77.4422 6.34443 76.7312C4.57271 76.3848 2.96577 75.3455 1.80569 73.7956C0.645609 72.2457 0.00654523 70.2844 0.000688246 68.2559V57.8475C0.00611181 55.672 0.774088 53.5873 2.13701 52.0483C3.49994 50.5093 5.34716 49.641 7.27552 49.6328V49.6328Z" fill="#F0C49F"/>
</g>
<g style="mix-blend-mode:multiply" opacity="0.3">
<path d="M85.6347 62.1064H101.648V121.525L94.3279 123.407V73.48C94.3272 72.2705 94.0791 71.0775 93.603 69.9938C93.1268 68.9101 92.4355 67.9649 91.5826 67.2319L85.6347 62.1064Z" fill="#F0C49F"/>
</g>
<path d="M98.9658 61.9119V128.085C98.9656 128.468 99.0197 128.847 99.1251 129.201C99.2306 129.554 99.3853 129.876 99.5804 130.146C99.7754 130.417 100.007 130.632 100.262 130.778C100.517 130.925 100.79 131 101.066 131H809.703L809.702 59.0003L101.066 59C100.509 59 99.9749 59.3068 99.581 59.8529C99.1871 60.399 98.9658 61.1396 98.9658 61.9119Z" fill="url(#paint0_linear)"/>
<g style="mix-blend-mode:multiply" opacity="0.3">
<path d="M98.9641 117V128.068C98.9635 128.453 99.0949 128.834 99.3507 129.19C99.6066 129.546 99.9819 129.869 100.455 130.141C100.929 130.413 101.491 130.629 102.109 130.777C102.728 130.924 103.391 131 104.061 131H809.703C810.372 131 809.701 131 809.701 131L809.7 117H98.9641Z" fill="url(#paint1_linear)"/>
</g>
<g style="mix-blend-mode:multiply" opacity="0.3">
<path d="M105.553 118.619C104.831 115.207 106.697 111.781 109.721 110.967C112.746 110.152 115.783 112.257 116.505 115.669C117.227 119.081 115.361 122.507 112.336 123.322C109.312 124.137 106.275 122.031 105.553 118.619Z" fill="#0A3D76"/>
</g>
<path d="M112.483 122.853C109.374 122.853 106.853 120.01 106.853 116.502C106.853 112.994 109.374 110.15 112.483 110.15C115.593 110.15 118.113 112.994 118.113 116.502C118.113 120.01 115.593 122.853 112.483 122.853Z" fill="#B4D1FA"/>
<g style="mix-blend-mode:multiply" opacity="0.3">
<path d="M110.449 110.588C110.014 111.149 109.691 111.809 109.499 112.522C109.307 113.235 109.251 113.986 109.336 114.725C109.421 115.464 109.643 116.175 109.989 116.81C110.335 117.445 110.797 117.99 111.343 118.409C111.89 118.827 112.509 119.111 113.159 119.239C113.81 119.368 114.478 119.34 115.118 119.156C115.758 118.972 116.357 118.637 116.874 118.173C117.391 117.709 117.815 117.127 118.117 116.464C118.117 116.477 118.117 116.49 118.117 116.5C118.118 117.657 117.84 118.792 117.311 119.783C116.783 120.774 116.024 121.583 115.118 122.124C114.212 122.664 113.192 122.915 112.168 122.849C111.145 122.784 110.157 122.405 109.31 121.752C108.464 121.099 107.792 120.199 107.366 119.147C106.94 118.095 106.777 116.931 106.894 115.782C107.011 114.634 107.404 113.543 108.031 112.627C108.657 111.712 109.493 111.007 110.449 110.588V110.588Z" fill="#71A0DD"/>
</g>
<path d="M113.339 114.603C112.546 113.779 112.325 112.595 112.844 111.959C113.364 111.322 114.428 111.474 115.221 112.298C116.014 113.122 116.235 114.306 115.715 114.942C115.196 115.579 114.132 115.427 113.339 114.603Z" fill="white"/>
<path d="M137.945 80C139.723 80 140.661 78.88 140.661 77.48C140.661 76.304 139.863 75.338 138.869 75.184C139.751 75.002 140.479 74.218 140.479 73.042C140.479 71.796 139.569 70.662 137.791 70.662H132.877V80H137.945ZM137.357 74.4H134.865V72.37H137.357C138.029 72.37 138.449 72.804 138.449 73.392C138.449 73.98 138.029 74.4 137.357 74.4ZM137.427 78.278H134.865V76.108H137.427C138.211 76.108 138.631 76.612 138.631 77.2C138.631 77.872 138.183 78.278 137.427 78.278ZM145.268 80.168C146.654 80.168 147.494 79.566 147.942 78.936L146.78 77.858C146.458 78.306 145.968 78.586 145.352 78.586C144.274 78.586 143.518 77.788 143.518 76.612C143.518 75.436 144.274 74.652 145.352 74.652C145.968 74.652 146.458 74.904 146.78 75.38L147.942 74.288C147.494 73.672 146.654 73.07 145.268 73.07C143.182 73.07 141.684 74.54 141.684 76.612C141.684 78.698 143.182 80.168 145.268 80.168ZM152.283 80.168C153.333 80.168 154.397 79.846 155.069 79.23L154.285 78.082C153.851 78.502 153.053 78.754 152.479 78.754C151.331 78.754 150.645 78.04 150.533 77.186H155.559V76.794C155.559 74.582 154.187 73.07 152.171 73.07C150.113 73.07 148.671 74.652 148.671 76.612C148.671 78.782 150.225 80.168 152.283 80.168ZM153.837 75.982H150.505C150.589 75.31 151.065 74.484 152.171 74.484C153.347 74.484 153.795 75.338 153.837 75.982ZM165.745 81.722H167.523V78.446H166.781V73.238H165.003V78.446H162.203V73.238H160.425V80H165.745V81.722ZM171.82 80.168C172.87 80.168 173.934 79.846 174.606 79.23L173.822 78.082C173.388 78.502 172.59 78.754 172.016 78.754C170.868 78.754 170.182 78.04 170.07 77.186H175.096V76.794C175.096 74.582 173.724 73.07 171.708 73.07C169.65 73.07 168.208 74.652 168.208 76.612C168.208 78.782 169.762 80.168 171.82 80.168ZM173.374 75.982H170.042C170.126 75.31 170.602 74.484 171.708 74.484C172.884 74.484 173.332 75.338 173.374 75.982ZM175.75 80.168C177.472 80.168 178.312 79.062 178.592 76.724L178.816 74.792H180.958V80H182.736V73.238H177.262L176.828 76.514C176.618 78.152 176.296 78.712 175.75 78.712V80.168ZM186.209 80L189.079 75.758V80H190.857V73.238H189.065L186.279 77.326V73.238H184.501V80H186.209ZM195.574 81.722H197.366V80H201.524V81.722H203.302V78.446H202.56V73.238H197.086L196.652 76.514C196.442 78.152 196.12 78.418 195.574 78.516V81.722ZM198.64 74.792H200.782V78.446H197.646C198.066 78.054 198.332 77.452 198.43 76.626L198.64 74.792ZM207.557 80.168C209.797 80.168 211.141 78.544 211.141 76.612C211.141 74.694 209.797 73.07 207.557 73.07C205.331 73.07 203.987 74.694 203.987 76.612C203.987 78.544 205.331 80.168 207.557 80.168ZM207.557 78.586C206.451 78.586 205.835 77.676 205.835 76.612C205.835 75.562 206.451 74.652 207.557 74.652C208.663 74.652 209.293 75.562 209.293 76.612C209.293 77.676 208.663 78.586 207.557 78.586ZM215.61 80.168C216.996 80.168 217.836 79.566 218.284 78.936L217.122 77.858C216.8 78.306 216.31 78.586 215.694 78.586C214.616 78.586 213.86 77.788 213.86 76.612C213.86 75.436 214.616 74.652 215.694 74.652C216.31 74.652 216.8 74.904 217.122 75.38L218.284 74.288C217.836 73.672 216.996 73.07 215.61 73.07C213.524 73.07 212.026 74.54 212.026 76.612C212.026 78.698 213.524 80.168 215.61 80.168ZM222.484 80V74.792H224.374V73.238H218.802V74.792H220.692V80H222.484ZM227.197 80L230.067 75.758V80H231.845V73.238H230.053L227.267 77.326V73.238H225.489V80H227.197ZM238.833 73.238H233.611V80H235.389V74.792H238.833V73.238ZM241.746 80V77.298H244.546V80H246.324V73.238H244.546V75.744H241.746V73.238H239.968V80H241.746ZM247.851 82.646C248.075 82.702 248.523 82.744 248.733 82.744C249.895 82.716 250.791 82.38 251.295 81.106L254.473 73.238H252.555L250.791 77.942L249.027 73.238H247.123L249.867 80.098L249.615 80.672C249.447 81.036 249.139 81.162 248.677 81.162C248.509 81.162 248.271 81.12 248.117 81.05L247.851 82.646ZM258.305 80V74.792H260.195V73.238H254.623V74.792H256.513V80H258.305ZM261.31 73.238V80H265.398C266.91 80 267.75 78.978 267.75 77.774C267.75 76.584 266.966 75.562 265.398 75.562H263.088V73.238H261.31ZM265.132 77.046C265.636 77.046 265.93 77.354 265.93 77.774C265.93 78.194 265.636 78.502 265.132 78.502H263.088V77.046H265.132ZM270.424 80V73.238H268.632V80H270.424ZM274.307 79.314C274.307 78.404 273.705 77.886 273.047 77.886C272.459 77.886 271.955 78.39 271.955 79.006C271.955 79.608 272.375 80.014 272.907 80.014C273.005 80.014 273.131 79.986 273.173 79.972C273.061 80.462 272.543 81.05 272.095 81.288L272.865 81.918C273.719 81.302 274.307 80.364 274.307 79.314ZM135.299 98.168C137.315 98.168 138.561 97.328 138.561 96.138C138.561 95.116 137.483 94.584 136.657 94.528C137.553 94.388 138.421 93.8 138.421 92.932C138.421 91.784 137.231 91.07 135.117 91.084C133.885 91.084 132.905 91.546 132.247 92.204L133.115 93.254C133.647 92.736 134.333 92.484 135.215 92.484C136.013 92.484 136.573 92.764 136.573 93.17C136.573 93.646 136.111 93.898 135.187 93.898H133.801V95.27H135.187C136.111 95.27 136.699 95.508 136.699 96.026C136.699 96.46 136.209 96.754 135.299 96.754C134.487 96.754 133.591 96.516 132.961 95.984L132.149 97.09C132.807 97.734 133.899 98.168 135.299 98.168ZM145.728 98V93.632C145.728 91.686 144.314 91.07 142.774 91.07C141.71 91.07 140.646 91.406 139.82 92.134L140.492 93.324C141.066 92.792 141.738 92.526 142.466 92.526C143.362 92.526 143.95 92.974 143.95 93.66V94.57C143.502 94.038 142.704 93.744 141.808 93.744C140.73 93.744 139.456 94.346 139.456 95.928C139.456 97.44 140.73 98.168 141.808 98.168C142.69 98.168 143.488 97.846 143.95 97.3V98H145.728ZM142.522 96.964C141.822 96.964 141.248 96.6 141.248 95.97C141.248 95.312 141.822 94.948 142.522 94.948C143.096 94.948 143.656 95.144 143.95 95.536V96.376C143.656 96.768 143.096 96.964 142.522 96.964ZM154.099 98L151.341 94.304L154.015 91.238H151.831L149.269 94.248V91.238H147.491V98H149.269V96.264L150.081 95.396L151.873 98H154.099ZM160.822 98V93.632C160.822 91.686 159.408 91.07 157.868 91.07C156.804 91.07 155.74 91.406 154.914 92.134L155.586 93.324C156.16 92.792 156.832 92.526 157.56 92.526C158.456 92.526 159.044 92.974 159.044 93.66V94.57C158.596 94.038 157.798 93.744 156.902 93.744C155.824 93.744 154.55 94.346 154.55 95.928C154.55 97.44 155.824 98.168 156.902 98.168C157.784 98.168 158.582 97.846 159.044 97.3V98H160.822ZM157.616 96.964C156.916 96.964 156.342 96.6 156.342 95.97C156.342 95.312 156.916 94.948 157.616 94.948C158.19 94.948 158.75 95.144 159.044 95.536V96.376C158.75 96.768 158.19 96.964 157.616 96.964ZM165.049 98.168C167.065 98.168 168.311 97.328 168.311 96.138C168.311 95.116 167.233 94.584 166.407 94.528C167.303 94.388 168.171 93.8 168.171 92.932C168.171 91.784 166.981 91.07 164.867 91.084C163.635 91.084 162.655 91.546 161.997 92.204L162.865 93.254C163.397 92.736 164.083 92.484 164.965 92.484C165.763 92.484 166.323 92.764 166.323 93.17C166.323 93.646 165.861 93.898 164.937 93.898H163.551V95.27H164.937C165.861 95.27 166.449 95.508 166.449 96.026C166.449 96.46 165.959 96.754 165.049 96.754C164.237 96.754 163.341 96.516 162.711 95.984L161.899 97.09C162.557 97.734 163.649 98.168 165.049 98.168ZM169.43 91.238V93.688C169.43 95.088 170.13 95.914 172.02 95.914C172.86 95.914 173.56 95.732 173.994 95.494V98H175.786V91.238H173.994V94.066C173.686 94.22 173.252 94.332 172.636 94.332C171.698 94.332 171.208 94.024 171.208 93.072V91.238H169.43ZM179.25 98L182.12 93.758V98H183.898V91.238H182.106L179.32 95.326V91.238H177.542V98H179.25ZM192.271 98L189.513 94.304L192.187 91.238H190.003L187.441 94.248V91.238H185.663V98H187.441V96.264L188.253 95.396L190.045 98H192.271ZM196.499 100.646C196.723 100.702 197.171 100.744 197.381 100.744C198.543 100.716 199.439 100.38 199.943 99.106L203.121 91.238H201.203L199.439 95.942L197.675 91.238H195.771L198.515 98.098L198.263 98.672C198.095 99.036 197.787 99.162 197.325 99.162C197.157 99.162 196.919 99.12 196.765 99.05L196.499 100.646ZM203.285 99.722H205.077V98H209.235V99.722H211.013V96.446H210.271V91.238H204.797L204.363 94.514C204.153 96.152 203.831 96.418 203.285 96.516V99.722ZM206.351 92.792H208.493V96.446H205.357C205.777 96.054 206.043 95.452 206.141 94.626L206.351 92.792ZM215.268 98.168C217.508 98.168 218.852 96.544 218.852 94.612C218.852 92.694 217.508 91.07 215.268 91.07C213.042 91.07 211.698 92.694 211.698 94.612C211.698 96.544 213.042 98.168 215.268 98.168ZM215.268 96.586C214.162 96.586 213.546 95.676 213.546 94.612C213.546 93.562 214.162 92.652 215.268 92.652C216.374 92.652 217.004 93.562 217.004 94.612C217.004 95.676 216.374 96.586 215.268 96.586ZM224.581 98C225.939 98 226.667 97.188 226.667 96.166C226.667 95.354 226.121 94.682 225.379 94.514C226.009 94.332 226.527 93.786 226.527 92.974C226.527 92.064 225.827 91.238 224.455 91.238H220.171V98H224.581ZM224.147 96.544H221.949V95.284H224.147C224.595 95.284 224.847 95.578 224.847 95.914C224.847 96.306 224.581 96.544 224.147 96.544ZM224.091 93.828H221.949V92.694H224.091C224.483 92.694 224.721 92.932 224.721 93.268C224.721 93.576 224.483 93.828 224.091 93.828ZM227.744 98.168C229.466 98.168 230.306 97.062 230.586 94.724L230.81 92.792H232.952V98H234.73V91.238H229.256L228.822 94.514C228.612 96.152 228.29 96.712 227.744 96.712V98.168ZM239.673 98.168C240.723 98.168 241.787 97.846 242.459 97.23L241.675 96.082C241.241 96.502 240.443 96.754 239.869 96.754C238.721 96.754 238.035 96.04 237.923 95.186H242.949V94.794C242.949 92.582 241.577 91.07 239.561 91.07C237.503 91.07 236.061 92.652 236.061 94.612C236.061 96.782 237.615 98.168 239.673 98.168ZM241.227 93.982H237.895C237.979 93.31 238.455 92.484 239.561 92.484C240.737 92.484 241.185 93.338 241.227 93.982ZM247.272 98V92.792H249.162V91.238H243.59V92.792H245.48V98H247.272ZM254.687 98C256.045 98 256.773 97.188 256.773 96.166C256.773 95.354 256.227 94.682 255.485 94.514C256.115 94.332 256.633 93.786 256.633 92.974C256.633 92.064 255.933 91.238 254.561 91.238H250.277V98H254.687ZM254.253 96.544H252.055V95.284H254.253C254.701 95.284 254.953 95.578 254.953 95.914C254.953 96.306 254.687 96.544 254.253 96.544ZM254.197 93.828H252.055V92.694H254.197C254.589 92.694 254.827 92.932 254.827 93.268C254.827 93.576 254.589 93.828 254.197 93.828ZM261.616 98.168C263.856 98.168 265.2 96.544 265.2 94.612C265.2 92.694 263.856 91.07 261.616 91.07C259.39 91.07 258.046 92.694 258.046 94.612C258.046 96.544 259.39 98.168 261.616 98.168ZM261.616 96.586C260.51 96.586 259.894 95.676 259.894 94.612C259.894 93.562 260.51 92.652 261.616 92.652C262.722 92.652 263.352 93.562 263.352 94.612C263.352 95.676 262.722 96.586 261.616 96.586ZM270.383 98.168C272.119 98.168 273.379 96.866 273.379 94.612C273.379 92.358 272.119 91.07 270.383 91.07C269.557 91.07 268.815 91.434 268.297 92.092V91.238H266.519V100.576H268.297V97.132C268.843 97.832 269.585 98.168 270.383 98.168ZM269.823 96.586C269.249 96.586 268.591 96.236 268.297 95.816V93.422C268.591 92.988 269.249 92.652 269.823 92.652C270.845 92.652 271.531 93.45 271.531 94.612C271.531 95.788 270.845 96.586 269.823 96.586ZM277.859 98.168C278.909 98.168 279.973 97.846 280.645 97.23L279.861 96.082C279.427 96.502 278.629 96.754 278.055 96.754C276.907 96.754 276.221 96.04 276.109 95.186H281.135V94.794C281.135 92.582 279.763 91.07 277.747 91.07C275.689 91.07 274.247 92.652 274.247 94.612C274.247 96.782 275.801 98.168 277.859 98.168ZM279.413 93.982H276.081C276.165 93.31 276.641 92.484 277.747 92.484C278.923 92.484 279.371 93.338 279.413 93.982ZM284.197 98V95.298H286.997V98H288.775V91.238H286.997V93.744H284.197V91.238H282.419V98H284.197ZM139.191 116V109.238H132.835V116H134.613V110.792H137.413V116H139.191ZM144.092 116.168C146.332 116.168 147.676 114.544 147.676 112.612C147.676 110.694 146.332 109.07 144.092 109.07C141.866 109.07 140.522 110.694 140.522 112.612C140.522 114.544 141.866 116.168 144.092 116.168ZM144.092 114.586C142.986 114.586 142.37 113.676 142.37 112.612C142.37 111.562 142.986 110.652 144.092 110.652C145.198 110.652 145.828 111.562 145.828 112.612C145.828 113.676 145.198 114.586 144.092 114.586ZM148.365 116.168C150.087 116.168 150.927 115.062 151.207 112.724L151.431 110.792H153.573V116H155.351V109.238H149.877L149.443 112.514C149.233 114.152 148.911 114.712 148.365 114.712V116.168ZM156.878 118.646C157.102 118.702 157.55 118.744 157.76 118.744C158.922 118.716 159.818 118.38 160.322 117.106L163.5 109.238H161.582L159.818 113.942L158.054 109.238H156.15L158.894 116.098L158.642 116.672C158.474 117.036 158.166 117.162 157.704 117.162C157.536 117.162 157.298 117.12 157.144 117.05L156.878 118.646ZM164.084 109.238V111.688C164.084 113.088 164.784 113.914 166.674 113.914C167.514 113.914 168.214 113.732 168.648 113.494V116H170.44V109.238H168.648V112.066C168.34 112.22 167.906 112.332 167.29 112.332C166.352 112.332 165.862 112.024 165.862 111.072V109.238H164.084ZM175.374 116.168C176.424 116.168 177.488 115.846 178.16 115.23L177.376 114.082C176.942 114.502 176.144 114.754 175.57 114.754C174.422 114.754 173.736 114.04 173.624 113.186H178.65V112.794C178.65 110.582 177.278 109.07 175.262 109.07C173.204 109.07 171.762 110.652 171.762 112.612C171.762 114.782 173.316 116.168 175.374 116.168ZM176.928 111.982H173.596C173.68 111.31 174.156 110.484 175.262 110.484C176.438 110.484 176.886 111.338 176.928 111.982ZM181.713 116V113.298H184.513V116H186.291V109.238H184.513V111.744H181.713V109.238H179.935V116H181.713ZM189.834 116V113.298H192.634V116H194.412V109.238H192.634V111.744H189.834V109.238H188.056V116H189.834ZM196.177 109.238V116H200.265C201.777 116 202.617 114.978 202.617 113.774C202.617 112.584 201.833 111.562 200.265 111.562H197.955V109.238H196.177ZM199.999 113.046C200.503 113.046 200.797 113.354 200.797 113.774C200.797 114.194 200.503 114.502 199.999 114.502H197.955V113.046H199.999ZM205.291 116V109.238H203.499V116H205.291ZM215.04 116V109.238H212.688L211.05 113.27L209.384 109.238H207.046V116H208.824V111.604L210.644 116H211.456L213.262 111.604V116H215.04ZM218.516 116L221.386 111.758V116H223.164V109.238H221.372L218.586 113.326V109.238H216.808V116H218.516ZM232.375 116.168C234.111 116.168 235.371 114.866 235.371 112.612C235.371 110.358 234.111 109.07 232.375 109.07C231.549 109.07 230.807 109.434 230.289 110.092V109.238H228.511V118.576H230.289V115.132C230.835 115.832 231.577 116.168 232.375 116.168ZM231.815 114.586C231.241 114.586 230.583 114.236 230.289 113.816V111.422C230.583 110.988 231.241 110.652 231.815 110.652C232.837 110.652 233.523 111.45 233.523 112.612C233.523 113.788 232.837 114.586 231.815 114.586ZM239.851 116.168C240.901 116.168 241.965 115.846 242.637 115.23L241.853 114.082C241.419 114.502 240.621 114.754 240.047 114.754C238.899 114.754 238.213 114.04 238.101 113.186H243.127V112.794C243.127 110.582 241.755 109.07 239.739 109.07C237.681 109.07 236.239 110.652 236.239 112.612C236.239 114.782 237.793 116.168 239.851 116.168ZM241.405 111.982H238.073C238.157 111.31 238.633 110.484 239.739 110.484C240.915 110.484 241.363 111.338 241.405 111.982ZM246.875 116.168C248.891 116.168 250.137 115.328 250.137 114.138C250.137 113.116 249.059 112.584 248.233 112.528C249.129 112.388 249.997 111.8 249.997 110.932C249.997 109.784 248.807 109.07 246.693 109.084C245.461 109.084 244.481 109.546 243.823 110.204L244.691 111.254C245.223 110.736 245.909 110.484 246.791 110.484C247.589 110.484 248.149 110.764 248.149 111.17C248.149 111.646 247.687 111.898 246.763 111.898H245.377V113.27H246.763C247.687 113.27 248.275 113.508 248.275 114.026C248.275 114.46 247.785 114.754 246.875 114.754C246.063 114.754 245.167 114.516 244.537 113.984L243.725 115.09C244.383 115.734 245.475 116.168 246.875 116.168ZM251.228 118.646C251.452 118.702 251.9 118.744 252.11 118.744C253.272 118.716 254.168 118.38 254.672 117.106L257.85 109.238H255.932L254.168 113.942L252.404 109.238H250.5L253.244 116.098L252.992 116.672C252.824 117.036 252.516 117.162 252.054 117.162C251.886 117.162 251.648 117.12 251.494 117.05L251.228 118.646ZM258.014 116.168C259.736 116.168 260.576 115.062 260.856 112.724L261.08 110.792H263.222V116H265V109.238H259.526L259.092 112.514C258.882 114.152 258.56 114.712 258.014 114.712V116.168ZM266.765 109.238V116H270.853C272.365 116 273.205 114.978 273.205 113.774C273.205 112.584 272.421 111.562 270.853 111.562H268.543V109.238H266.765ZM270.587 113.046C271.091 113.046 271.385 113.354 271.385 113.774C271.385 114.194 271.091 114.502 270.587 114.502H268.543V113.046H270.587ZM276.885 116V110.792H278.775V109.238H273.203V110.792H275.093V116H276.885ZM285.728 116V111.632C285.728 109.686 284.314 109.07 282.774 109.07C281.71 109.07 280.646 109.406 279.82 110.134L280.492 111.324C281.066 110.792 281.738 110.526 282.466 110.526C283.362 110.526 283.95 110.974 283.95 111.66V112.57C283.502 112.038 282.704 111.744 281.808 111.744C280.73 111.744 279.456 112.346 279.456 113.928C279.456 115.44 280.73 116.168 281.808 116.168C282.69 116.168 283.488 115.846 283.95 115.3V116H285.728ZM282.522 114.964C281.822 114.964 281.248 114.6 281.248 113.97C281.248 113.312 281.822 112.948 282.522 112.948C283.096 112.948 283.656 113.144 283.95 113.536V114.376C283.656 114.768 283.096 114.964 282.522 114.964ZM290.529 116V110.792H292.419V109.238H286.847V110.792H288.737V116H290.529ZM299.372 116V111.632C299.372 109.686 297.958 109.07 296.418 109.07C295.354 109.07 294.29 109.406 293.464 110.134L294.136 111.324C294.71 110.792 295.382 110.526 296.11 110.526C297.006 110.526 297.594 110.974 297.594 111.66V112.57C297.146 112.038 296.348 111.744 295.452 111.744C294.374 111.744 293.1 112.346 293.1 113.928C293.1 115.44 294.374 116.168 295.452 116.168C296.334 116.168 297.132 115.846 297.594 115.3V116H299.372ZM296.166 114.964C295.466 114.964 294.892 114.6 294.892 113.97C294.892 113.312 295.466 112.948 296.166 112.948C296.74 112.948 297.3 113.144 297.594 113.536V114.376C297.3 114.768 296.74 114.964 296.166 114.964ZM309.13 116V109.238H306.778L305.14 113.27L303.474 109.238H301.136V116H302.914V111.604L304.734 116H305.546L307.352 111.604V116H309.13ZM312.606 116L315.476 111.758V116H317.254V109.238H315.462L312.676 113.326V109.238H310.898V116H312.606ZM319.929 116.154C320.545 116.154 321.063 115.636 321.063 115.02C321.063 114.404 320.545 113.886 319.929 113.886C319.313 113.886 318.795 114.404 318.795 115.02C318.795 115.636 319.313 116.154 319.929 116.154Z" fill="#F5F9FF"/>
<defs>
<linearGradient id="paint0_linear" x1="454.334" y1="59" x2="454.334" y2="131" gradientUnits="userSpaceOnUse">
<stop stop-color="#0A3D76"/>
<stop offset="1" stop-color="#0C53A3"/>
</linearGradient>
<linearGradient id="paint1_linear" x1="454.482" y1="117" x2="454.482" y2="131" gradientUnits="userSpaceOnUse">
<stop stop-color="#0A3D76"/>
<stop offset="1" stop-color="#0C53A3"/>
</linearGradient>
</defs>
</svg>
