<svg width="810" height="131" fill="none" xmlns="http://www.w3.org/2000/svg"><path d="M7.28 49.633h30.122c4.021 0 7.282 3.678 7.282 8.214v7.658c0 4.537-3.26 8.214-7.282 8.214H7.28c-4.022 0-7.282-3.677-7.282-8.214v-7.657c0-4.537 3.26-8.215 7.282-8.215z" fill="#F0C49F"/><path d="M7.28 49.633h30.122c4.021 0 7.282 3.678 7.282 8.214v7.658c0 4.537-3.26 8.214-7.282 8.214H7.28c-4.022 0-7.282-3.677-7.282-8.214v-7.657c0-4.537 3.26-8.215 7.282-8.215z" fill="#F0C49F" opacity=".6"/><path d="M.004 57.847v10.409c.005 2.028.644 3.99 1.805 5.54 1.16 1.55 2.767 2.589 4.538 2.935-1.091.71-1.998 1.732-2.63 2.962a8.925 8.925 0 00-.968 4.047v5.335c.004 1.697.48 3.349 1.358 4.726.879 1.377 2.117 2.409 3.542 2.952a7.53 7.53 0 00-1.591 2.502 8.307 8.307 0 00-.564 3.013v3.463c.005 1.988.707 3.893 1.952 5.298 1.246 1.406 2.934 2.199 4.696 2.205h.577a7.649 7.649 0 00-1.732 2.609 8.49 8.49 0 00-.613 3.185v3.979c.005 2.034.723 3.983 1.998 5.421 1.275 1.439 3.002 2.249 4.805 2.255h27.42c.48-.001.957-.059 1.426-.173h26.702c6.03-.227 13.975-3.991 13.975-3.991s5.29-2.666 7.108-2.823l8.782-1.882-.938-59.703H85.181S70.809 49.633 67.795 22.263c-1.529-6.13-1.419-14.82-1.261-18.892a3.112 3.112 0 00-.535-1.88A2.513 2.513 0 0064.512.45c-5.19-1.225-11.81-1.965-12.375 26.319-.142 7.12 4.037 12.704 0 27.336H14.11c-.829 0-1.623-.373-2.21-1.034-.585-.662-.914-1.559-.914-2.494v-.944H7.278c-1.928.008-3.775.876-5.138 2.415-1.363 1.54-2.131 3.624-2.136 5.8z" fill="#F0C49F"/><path d="M54.123 31.474c.035.42 3.252 19.722 3.134 20.122-.119.4-.31.767-.561 1.078-.252.312-2.23 1.502-2.572 1.672-.342.17-.712.26-1.085.26l-.964-.547c2.048-7.999 2.516-10.757.753-21.173C51.155 23.006 52.41-.05 61.142.004c.24.055.47.149.686.279-8.105 2.086-9 19.899-7.705 31.191zM7.276 49.633h3.706v.947c-.002.695.18 1.374.523 1.951-1.125 1.48-1.744 3.366-1.745 5.316v10.409c.006 2.028.646 3.99 1.806 5.54 1.16 1.549 2.766 2.588 4.538 2.935-1.092.711-1.999 1.733-2.63 2.964a8.931 8.931 0 00-.969 4.048v5.332c.005 1.697.48 3.35 1.36 4.727.878 1.377 2.117 2.409 3.543 2.951a7.53 7.53 0 00-1.593 2.503 8.312 8.312 0 00-.565 3.015v3.463c.005 1.988.707 3.893 1.953 5.299 1.247 1.406 2.935 2.198 4.698 2.204h.576a7.65 7.65 0 00-1.731 2.607 8.49 8.49 0 00-.614 3.184v3.977c.005 2.033.723 3.982 1.998 5.42 1.274 1.438 3.001 2.249 4.804 2.255h-9.76c-1.803-.005-3.53-.816-4.805-2.254-1.275-1.438-1.993-3.387-1.998-5.421v-3.977c0-1.097.21-2.181.615-3.178a7.647 7.647 0 011.73-2.603h-.577c-1.762-.006-3.45-.799-4.696-2.204-1.245-1.406-1.947-3.311-1.952-5.298v-3.474a8.31 8.31 0 01.563-3.015 7.531 7.531 0 011.592-2.503c-1.425-.543-2.664-1.575-3.542-2.952-.88-1.377-1.354-3.03-1.358-4.726v-5.332a8.931 8.931 0 01.968-4.048c.632-1.23 1.539-2.253 2.63-2.964-1.771-.346-3.378-1.385-4.538-2.935-1.16-1.55-1.8-3.512-1.805-5.54V57.847c.005-2.175.773-4.26 2.136-5.799 1.363-1.539 3.21-2.407 5.139-2.415zm78.359 12.473h16.013v59.419l-7.32 1.882V73.48c0-1.21-.249-2.403-.725-3.486a7.732 7.732 0 00-2.02-2.762l-5.948-5.126z" fill="#F0C49F" opacity=".3"/><path d="M98.966 61.912v66.173c0 .383.054.762.16 1.116.105.353.26.675.454.945.195.271.427.486.682.632.255.147.528.222.804.222h708.637l-.001-72H101.066c-.557 0-1.091.307-1.485.853-.394.546-.615 1.287-.615 2.059z" fill="url(#paint0_linear)"/><path d="M98.964 117v11.068c0 .385.13.766.387 1.122.256.356.63.679 1.104.951a6.275 6.275 0 001.654.636 8.501 8.501 0 001.952.223h705.64l-.001-14H98.964z" fill="url(#paint1_linear)" opacity=".3"/><path d="M105.553 118.619c-.722-3.412 1.144-6.838 4.168-7.652 3.025-.815 6.062 1.29 6.784 4.702.722 3.412-1.144 6.838-4.169 7.653-3.024.815-6.061-1.291-6.783-4.703z" fill="#0A3D76" opacity=".3"/><path d="M112.483 122.853c-3.109 0-5.63-2.843-5.63-6.351s2.521-6.352 5.63-6.352c3.11 0 5.63 2.844 5.63 6.352 0 3.508-2.52 6.351-5.63 6.351z" fill="#B4D1FA"/><path d="M110.449 110.588a5.48 5.48 0 00-.95 1.934 5.9 5.9 0 00-.163 2.203c.085.739.307 1.45.653 2.085.346.635.808 1.18 1.354 1.599a4.392 4.392 0 001.816.83 4.15 4.15 0 001.959-.083 4.491 4.491 0 001.756-.983 5.17 5.17 0 001.243-1.709v.036a6.976 6.976 0 01-.806 3.283c-.528.991-1.287 1.8-2.193 2.341a5.104 5.104 0 01-2.95.725 5.218 5.218 0 01-2.858-1.097c-.846-.653-1.518-1.553-1.944-2.605a7.085 7.085 0 01-.472-3.365 6.817 6.817 0 011.137-3.155c.626-.915 1.462-1.62 2.418-2.039z" fill="#71A0DD" opacity=".3"/><path d="M113.339 114.603c-.793-.824-1.014-2.008-.495-2.644.52-.637 1.584-.485 2.377.339.793.824 1.014 2.008.494 2.644-.519.637-1.583.485-2.376-.339z" fill="#fff"/><path d="M137.945 80c1.778 0 2.716-1.12 2.716-2.52 0-1.176-.798-2.142-1.792-2.296.882-.182 1.61-.966 1.61-2.142 0-1.246-.91-2.38-2.688-2.38h-4.914V80h5.068zm-.588-5.6h-2.492v-2.03h2.492c.672 0 1.092.434 1.092 1.022 0 .588-.42 1.008-1.092 1.008zm.07 3.878h-2.562v-2.17h2.562c.784 0 1.204.504 1.204 1.092 0 .672-.448 1.078-1.204 1.078zm7.841 1.89c1.386 0 2.226-.602 2.674-1.232l-1.162-1.078a1.707 1.707 0 01-1.428.728c-1.078 0-1.834-.798-1.834-1.974s.756-1.96 1.834-1.96c.616 0 1.106.252 1.428.728l1.162-1.092c-.448-.616-1.288-1.218-2.674-1.218-2.086 0-3.584 1.47-3.584 3.542 0 2.086 1.498 3.556 3.584 3.556zm7.015 0c1.05 0 2.114-.322 2.786-.938l-.784-1.148c-.434.42-1.232.672-1.806.672-1.148 0-1.834-.714-1.946-1.568h5.026v-.392c0-2.212-1.372-3.724-3.388-3.724-2.058 0-3.5 1.582-3.5 3.542 0 2.17 1.554 3.556 3.612 3.556zm1.554-4.186h-3.332c.084-.672.56-1.498 1.666-1.498 1.176 0 1.624.854 1.666 1.498zm11.908 5.74h1.778v-3.276h-.742v-5.208h-1.778v5.208h-2.8v-5.208h-1.778V80h5.32v1.722zm6.075-1.554c1.05 0 2.114-.322 2.786-.938l-.784-1.148c-.434.42-1.232.672-1.806.672-1.148 0-1.834-.714-1.946-1.568h5.026v-.392c0-2.212-1.372-3.724-3.388-3.724-2.058 0-3.5 1.582-3.5 3.542 0 2.17 1.554 3.556 3.612 3.556zm1.554-4.186h-3.332c.084-.672.56-1.498 1.666-1.498 1.176 0 1.624.854 1.666 1.498zm2.376 4.186c1.722 0 2.562-1.106 2.842-3.444l.224-1.932h2.142V80h1.778v-6.762h-5.474l-.434 3.276c-.21 1.638-.532 2.198-1.078 2.198v1.456zM186.209 80l2.87-4.242V80h1.778v-6.762h-1.792l-2.786 4.088v-4.088h-1.778V80h1.708zm9.365 1.722h1.792V80h4.158v1.722h1.778v-3.276h-.742v-5.208h-5.474l-.434 3.276c-.21 1.638-.532 1.904-1.078 2.002v3.206zm3.066-6.93h2.142v3.654h-3.136c.42-.392.686-.994.784-1.82l.21-1.834zm8.917 5.376c2.24 0 3.584-1.624 3.584-3.556 0-1.918-1.344-3.542-3.584-3.542-2.226 0-3.57 1.624-3.57 3.542 0 1.932 1.344 3.556 3.57 3.556zm0-1.582c-1.106 0-1.722-.91-1.722-1.974 0-1.05.616-1.96 1.722-1.96 1.106 0 1.736.91 1.736 1.96 0 1.064-.63 1.974-1.736 1.974zm8.053 1.582c1.386 0 2.226-.602 2.674-1.232l-1.162-1.078a1.707 1.707 0 01-1.428.728c-1.078 0-1.834-.798-1.834-1.974s.756-1.96 1.834-1.96c.616 0 1.106.252 1.428.728l1.162-1.092c-.448-.616-1.288-1.218-2.674-1.218-2.086 0-3.584 1.47-3.584 3.542 0 2.086 1.498 3.556 3.584 3.556zm6.874-.168v-5.208h1.89v-1.554h-5.572v1.554h1.89V80h1.792zm4.713 0l2.87-4.242V80h1.778v-6.762h-1.792l-2.786 4.088v-4.088h-1.778V80h1.708zm11.636-6.762h-5.222V80h1.778v-5.208h3.444v-1.554zM241.746 80v-2.702h2.8V80h1.778v-6.762h-1.778v2.506h-2.8v-2.506h-1.778V80h1.778zm6.105 2.646c.224.056.672.098.882.098 1.162-.028 2.058-.364 2.562-1.638l3.178-7.868h-1.918l-1.764 4.704-1.764-4.704h-1.904l2.744 6.86-.252.574c-.168.364-.476.49-.938.49-.168 0-.406-.042-.56-.112l-.266 1.596zM258.305 80v-5.208h1.89v-1.554h-5.572v1.554h1.89V80h1.792zm3.005-6.762V80h4.088c1.512 0 2.352-1.022 2.352-2.226 0-1.19-.784-2.212-2.352-2.212h-2.31v-2.324h-1.778zm3.822 3.808c.504 0 .798.308.798.728s-.294.728-.798.728h-2.044v-1.456h2.044zM270.424 80v-6.762h-1.792V80h1.792zm3.883-.686c0-.91-.602-1.428-1.26-1.428-.588 0-1.092.504-1.092 1.12 0 .602.42 1.008.952 1.008.098 0 .224-.028.266-.042-.112.49-.63 1.078-1.078 1.316l.77.63c.854-.616 1.442-1.554 1.442-2.604zM135.299 98.168c2.016 0 3.262-.84 3.262-2.03 0-1.022-1.078-1.554-1.904-1.61.896-.14 1.764-.728 1.764-1.596 0-1.148-1.19-1.862-3.304-1.848-1.232 0-2.212.462-2.87 1.12l.868 1.05c.532-.518 1.218-.77 2.1-.77.798 0 1.358.28 1.358.686 0 .476-.462.728-1.386.728h-1.386v1.372h1.386c.924 0 1.512.238 1.512.756 0 .434-.49.728-1.4.728-.812 0-1.708-.238-2.338-.77l-.812 1.106c.658.644 1.75 1.078 3.15 1.078zM145.728 98v-4.368c0-1.946-1.414-2.562-2.954-2.562-1.064 0-2.128.336-2.954 1.064l.672 1.19c.574-.532 1.246-.798 1.974-.798.896 0 1.484.448 1.484 1.134v.91c-.448-.532-1.246-.826-2.142-.826-1.078 0-2.352.602-2.352 2.184 0 1.512 1.274 2.24 2.352 2.24.882 0 1.68-.322 2.142-.868v.7h1.778zm-3.206-1.036c-.7 0-1.274-.364-1.274-.994 0-.658.574-1.022 1.274-1.022.574 0 1.134.196 1.428.588v.84c-.294.392-.854.588-1.428.588zM154.099 98l-2.758-3.696 2.674-3.066h-2.184l-2.562 3.01v-3.01h-1.778V98h1.778v-1.736l.812-.868L151.873 98h2.226zm6.723 0v-4.368c0-1.946-1.414-2.562-2.954-2.562-1.064 0-2.128.336-2.954 1.064l.672 1.19c.574-.532 1.246-.798 1.974-.798.896 0 1.484.448 1.484 1.134v.91c-.448-.532-1.246-.826-2.142-.826-1.078 0-2.352.602-2.352 2.184 0 1.512 1.274 2.24 2.352 2.24.882 0 1.68-.322 2.142-.868v.7h1.778zm-3.206-1.036c-.7 0-1.274-.364-1.274-.994 0-.658.574-1.022 1.274-1.022.574 0 1.134.196 1.428.588v.84c-.294.392-.854.588-1.428.588zm7.433 1.204c2.016 0 3.262-.84 3.262-2.03 0-1.022-1.078-1.554-1.904-1.61.896-.14 1.764-.728 1.764-1.596 0-1.148-1.19-1.862-3.304-1.848-1.232 0-2.212.462-2.87 1.12l.868 1.05c.532-.518 1.218-.77 2.1-.77.798 0 1.358.28 1.358.686 0 .476-.462.728-1.386.728h-1.386v1.372h1.386c.924 0 1.512.238 1.512.756 0 .434-.49.728-1.4.728-.812 0-1.708-.238-2.338-.77l-.812 1.106c.658.644 1.75 1.078 3.15 1.078zm4.381-6.93v2.45c0 1.4.7 2.226 2.59 2.226.84 0 1.54-.182 1.974-.42V98h1.792v-6.762h-1.792v2.828c-.308.154-.742.266-1.358.266-.938 0-1.428-.308-1.428-1.26v-1.834h-1.778zM179.25 98l2.87-4.242V98h1.778v-6.762h-1.792l-2.786 4.088v-4.088h-1.778V98h1.708zm13.021 0l-2.758-3.696 2.674-3.066h-2.184l-2.562 3.01v-3.01h-1.778V98h1.778v-1.736l.812-.868L190.045 98h2.226zm4.228 2.646c.224.056.672.098.882.098 1.162-.028 2.058-.364 2.562-1.638l3.178-7.868h-1.918l-1.764 4.704-1.764-4.704h-1.904l2.744 6.86-.252.574c-.168.364-.476.49-.938.49-.168 0-.406-.042-.56-.112l-.266 1.596zm6.786-.924h1.792V98h4.158v1.722h1.778v-3.276h-.742v-5.208h-5.474l-.434 3.276c-.21 1.638-.532 1.904-1.078 2.002v3.206zm3.066-6.93h2.142v3.654h-3.136c.42-.392.686-.994.784-1.82l.21-1.834zm8.917 5.376c2.24 0 3.584-1.624 3.584-3.556 0-1.918-1.344-3.542-3.584-3.542-2.226 0-3.57 1.624-3.57 3.542 0 1.932 1.344 3.556 3.57 3.556zm0-1.582c-1.106 0-1.722-.91-1.722-1.974 0-1.05.616-1.96 1.722-1.96 1.106 0 1.736.91 1.736 1.96 0 1.064-.63 1.974-1.736 1.974zM224.581 98c1.358 0 2.086-.812 2.086-1.834 0-.812-.546-1.484-1.288-1.652a1.557 1.557 0 001.148-1.54c0-.91-.7-1.736-2.072-1.736h-4.284V98h4.41zm-.434-1.456h-2.198v-1.26h2.198c.448 0 .7.294.7.63 0 .392-.266.63-.7.63zm-.056-2.716h-2.142v-1.134h2.142c.392 0 .63.238.63.574 0 .308-.238.56-.63.56zm3.653 4.34c1.722 0 2.562-1.106 2.842-3.444l.224-1.932h2.142V98h1.778v-6.762h-5.474l-.434 3.276c-.21 1.638-.532 2.198-1.078 2.198v1.456zm11.929 0c1.05 0 2.114-.322 2.786-.938l-.784-1.148c-.434.42-1.232.672-1.806.672-1.148 0-1.834-.714-1.946-1.568h5.026v-.392c0-2.212-1.372-3.724-3.388-3.724-2.058 0-3.5 1.582-3.5 3.542 0 2.17 1.554 3.556 3.612 3.556zm1.554-4.186h-3.332c.084-.672.56-1.498 1.666-1.498 1.176 0 1.624.854 1.666 1.498zM247.272 98v-5.208h1.89v-1.554h-5.572v1.554h1.89V98h1.792zm7.415 0c1.358 0 2.086-.812 2.086-1.834 0-.812-.546-1.484-1.288-1.652a1.557 1.557 0 001.148-1.54c0-.91-.7-1.736-2.072-1.736h-4.284V98h4.41zm-.434-1.456h-2.198v-1.26h2.198c.448 0 .7.294.7.63 0 .392-.266.63-.7.63zm-.056-2.716h-2.142v-1.134h2.142c.392 0 .63.238.63.574 0 .308-.238.56-.63.56zm7.419 4.34c2.24 0 3.584-1.624 3.584-3.556 0-1.918-1.344-3.542-3.584-3.542-2.226 0-3.57 1.624-3.57 3.542 0 1.932 1.344 3.556 3.57 3.556zm0-1.582c-1.106 0-1.722-.91-1.722-1.974 0-1.05.616-1.96 1.722-1.96 1.106 0 1.736.91 1.736 1.96 0 1.064-.63 1.974-1.736 1.974zm8.767 1.582c1.736 0 2.996-1.302 2.996-3.556s-1.26-3.542-2.996-3.542c-.826 0-1.568.364-2.086 1.022v-.854h-1.778v9.338h1.778v-3.444c.546.7 1.288 1.036 2.086 1.036zm-.56-1.582c-.574 0-1.232-.35-1.526-.77v-2.394c.294-.434.952-.77 1.526-.77 1.022 0 1.708.798 1.708 1.96 0 1.176-.686 1.974-1.708 1.974zm8.036 1.582c1.05 0 2.114-.322 2.786-.938l-.784-1.148c-.434.42-1.232.672-1.806.672-1.148 0-1.834-.714-1.946-1.568h5.026v-.392c0-2.212-1.372-3.724-3.388-3.724-2.058 0-3.5 1.582-3.5 3.542 0 2.17 1.554 3.556 3.612 3.556zm1.554-4.186h-3.332c.084-.672.56-1.498 1.666-1.498 1.176 0 1.624.854 1.666 1.498zM284.197 98v-2.702h2.8V98h1.778v-6.762h-1.778v2.506h-2.8v-2.506h-1.778V98h1.778zm-145.006 18v-6.762h-6.356V116h1.778v-5.208h2.8V116h1.778zm4.901.168c2.24 0 3.584-1.624 3.584-3.556 0-1.918-1.344-3.542-3.584-3.542-2.226 0-3.57 1.624-3.57 3.542 0 1.932 1.344 3.556 3.57 3.556zm0-1.582c-1.106 0-1.722-.91-1.722-1.974 0-1.05.616-1.96 1.722-1.96 1.106 0 1.736.91 1.736 1.96 0 1.064-.63 1.974-1.736 1.974zm4.273 1.582c1.722 0 2.562-1.106 2.842-3.444l.224-1.932h2.142V116h1.778v-6.762h-5.474l-.434 3.276c-.21 1.638-.532 2.198-1.078 2.198v1.456zm8.513 2.478c.224.056.672.098.882.098 1.162-.028 2.058-.364 2.562-1.638l3.178-7.868h-1.918l-1.764 4.704-1.764-4.704h-1.904l2.744 6.86-.252.574c-.168.364-.476.49-.938.49-.168 0-.406-.042-.56-.112l-.266 1.596zm7.206-9.408v2.45c0 1.4.7 2.226 2.59 2.226.84 0 1.54-.182 1.974-.42V116h1.792v-6.762h-1.792v2.828c-.308.154-.742.266-1.358.266-.938 0-1.428-.308-1.428-1.26v-1.834h-1.778zm11.29 6.93c1.05 0 2.114-.322 2.786-.938l-.784-1.148c-.434.42-1.232.672-1.806.672-1.148 0-1.834-.714-1.946-1.568h5.026v-.392c0-2.212-1.372-3.724-3.388-3.724-2.058 0-3.5 1.582-3.5 3.542 0 2.17 1.554 3.556 3.612 3.556zm1.554-4.186h-3.332c.084-.672.56-1.498 1.666-1.498 1.176 0 1.624.854 1.666 1.498zm4.785 4.018v-2.702h2.8V116h1.778v-6.762h-1.778v2.506h-2.8v-2.506h-1.778V116h1.778zm8.121 0v-2.702h2.8V116h1.778v-6.762h-1.778v2.506h-2.8v-2.506h-1.778V116h1.778zm6.343-6.762V116h4.088c1.512 0 2.352-1.022 2.352-2.226 0-1.19-.784-2.212-2.352-2.212h-2.31v-2.324h-1.778zm3.822 3.808c.504 0 .798.308.798.728s-.294.728-.798.728h-2.044v-1.456h2.044zm5.292 2.954v-6.762h-1.792V116h1.792zm9.749 0v-6.762h-2.352l-1.638 4.032-1.666-4.032h-2.338V116h1.778v-4.396l1.82 4.396h.812l1.806-4.396V116h1.778zm3.476 0l2.87-4.242V116h1.778v-6.762h-1.792l-2.786 4.088v-4.088h-1.778V116h1.708zm13.859.168c1.736 0 2.996-1.302 2.996-3.556s-1.26-3.542-2.996-3.542c-.826 0-1.568.364-2.086 1.022v-.854h-1.778v9.338h1.778v-3.444c.546.7 1.288 1.036 2.086 1.036zm-.56-1.582c-.574 0-1.232-.35-1.526-.77v-2.394c.294-.434.952-.77 1.526-.77 1.022 0 1.708.798 1.708 1.96 0 1.176-.686 1.974-1.708 1.974zm8.036 1.582c1.05 0 2.114-.322 2.786-.938l-.784-1.148c-.434.42-1.232.672-1.806.672-1.148 0-1.834-.714-1.946-1.568h5.026v-.392c0-2.212-1.372-3.724-3.388-3.724-2.058 0-3.5 1.582-3.5 3.542 0 2.17 1.554 3.556 3.612 3.556zm1.554-4.186h-3.332c.084-.672.56-1.498 1.666-1.498 1.176 0 1.624.854 1.666 1.498zm5.47 4.186c2.016 0 3.262-.84 3.262-2.03 0-1.022-1.078-1.554-1.904-1.61.896-.14 1.764-.728 1.764-1.596 0-1.148-1.19-1.862-3.304-1.848-1.232 0-2.212.462-2.87 1.12l.868 1.05c.532-.518 1.218-.77 2.1-.77.798 0 1.358.28 1.358.686 0 .476-.462.728-1.386.728h-1.386v1.372h1.386c.924 0 1.512.238 1.512.756 0 .434-.49.728-1.4.728-.812 0-1.708-.238-2.338-.77l-.812 1.106c.658.644 1.75 1.078 3.15 1.078zm4.353 2.478c.224.056.672.098.882.098 1.162-.028 2.058-.364 2.562-1.638l3.178-7.868h-1.918l-1.764 4.704-1.764-4.704H250.5l2.744 6.86-.252.574c-.168.364-.476.49-.938.49-.168 0-.406-.042-.56-.112l-.266 1.596zm6.786-2.478c1.722 0 2.562-1.106 2.842-3.444l.224-1.932h2.142V116H265v-6.762h-5.474l-.434 3.276c-.21 1.638-.532 2.198-1.078 2.198v1.456zm8.751-6.93V116h4.088c1.512 0 2.352-1.022 2.352-2.226 0-1.19-.784-2.212-2.352-2.212h-2.31v-2.324h-1.778zm3.822 3.808c.504 0 .798.308.798.728s-.294.728-.798.728h-2.044v-1.456h2.044zm6.298 2.954v-5.208h1.89v-1.554h-5.572v1.554h1.89V116h1.792zm8.843 0v-4.368c0-1.946-1.414-2.562-2.954-2.562-1.064 0-2.128.336-2.954 1.064l.672 1.19c.574-.532 1.246-.798 1.974-.798.896 0 1.484.448 1.484 1.134v.91c-.448-.532-1.246-.826-2.142-.826-1.078 0-2.352.602-2.352 2.184 0 1.512 1.274 2.24 2.352 2.24.882 0 1.68-.322 2.142-.868v.7h1.778zm-3.206-1.036c-.7 0-1.274-.364-1.274-.994 0-.658.574-1.022 1.274-1.022.574 0 1.134.196 1.428.588v.84c-.294.392-.854.588-1.428.588zm8.007 1.036v-5.208h1.89v-1.554h-5.572v1.554h1.89V116h1.792zm8.843 0v-4.368c0-1.946-1.414-2.562-2.954-2.562-1.064 0-2.128.336-2.954 1.064l.672 1.19c.574-.532 1.246-.798 1.974-.798.896 0 1.484.448 1.484 1.134v.91c-.448-.532-1.246-.826-2.142-.826-1.078 0-2.352.602-2.352 2.184 0 1.512 1.274 2.24 2.352 2.24.882 0 1.68-.322 2.142-.868v.7h1.778zm-3.206-1.036c-.7 0-1.274-.364-1.274-.994 0-.658.574-1.022 1.274-1.022.574 0 1.134.196 1.428.588v.84c-.294.392-.854.588-1.428.588zM309.13 116v-6.762h-2.352l-1.638 4.032-1.666-4.032h-2.338V116h1.778v-4.396l1.82 4.396h.812l1.806-4.396V116h1.778zm3.476 0l2.87-4.242V116h1.778v-6.762h-1.792l-2.786 4.088v-4.088h-1.778V116h1.708zm7.323.154c.616 0 1.134-.518 1.134-1.134 0-.616-.518-1.134-1.134-1.134-.616 0-1.134.518-1.134 1.134 0 .616.518 1.134 1.134 1.134z" fill="#F5F9FF"/><defs><linearGradient id="paint0_linear" x1="454.334" y1="59" x2="454.334" y2="131" gradientUnits="userSpaceOnUse"><stop stop-color="#0A3D76"/><stop offset="1" stop-color="#0C53A3"/></linearGradient><linearGradient id="paint1_linear" x1="454.482" y1="117" x2="454.482" y2="131" gradientUnits="userSpaceOnUse"><stop stop-color="#0A3D76"/><stop offset="1" stop-color="#0C53A3"/></linearGradient></defs></svg>