<svg width="1134" height="177" viewBox="0 0 1134 177" fill="none" xmlns="http://www.w3.org/2000/svg">
<path d="M9.85746 67.1748H50.641C56.086 67.1748 60.5 72.1526 60.5 78.2929V88.6566C60.5 94.797 56.086 99.7747 50.641 99.7747H9.85746C4.41246 99.7747 -0.0015831 94.797 -0.0015831 88.6566V78.2929C-0.0015831 72.1526 4.41246 67.1748 9.85746 67.1748Z" fill="#F0C49F"/>
<g style="mix-blend-mode:multiply" opacity="0.6">
<path d="M9.85746 67.1748H50.641C56.086 67.1748 60.5 72.1526 60.5 78.2929V88.6566C60.5 94.797 56.086 99.7747 50.641 99.7747H9.85746C4.41246 99.7747 -0.0015831 94.797 -0.0015831 88.6566V78.2929C-0.0015831 72.1526 4.41246 67.1748 9.85746 67.1748Z" fill="#F0C49F"/>
</g>
<path d="M0.00202396 78.2932V92.3804C0.009954 95.1259 0.875216 97.7804 2.4459 99.8781C4.01659 101.976 6.1923 103.383 8.59112 103.851C7.11322 104.813 5.88525 106.195 5.03016 107.86C4.17508 109.525 3.72291 111.414 3.71891 113.338V120.558C3.72497 122.854 4.36793 125.091 5.55769 126.955C6.74746 128.818 8.4244 130.215 10.3535 130.95C9.43495 131.898 8.70121 133.051 8.19891 134.336C7.69662 135.621 7.43675 137.01 7.4358 138.414V143.102C7.44233 145.792 8.39265 148.37 10.0792 150.273C11.7657 152.175 14.0513 153.248 16.4368 153.256H17.2174C16.2202 154.23 15.4205 155.434 14.8727 156.787C14.3248 158.14 14.0417 159.61 14.0426 161.098V166.484C14.0491 169.237 15.0217 171.875 16.7478 173.821C18.4739 175.768 20.8132 176.865 23.2542 176.872H60.3797C61.0285 176.871 61.6752 176.792 62.3094 176.638H98.4623C106.627 176.331 117.384 171.237 117.384 171.237C117.384 171.237 124.546 167.629 127.009 167.416L138.898 164.868L137.629 84.0636H115.328C115.328 84.0636 95.8694 67.1751 91.7874 30.1315C89.7183 21.8357 89.867 10.0749 90.0807 4.56294C90.1151 3.64454 89.8584 2.74234 89.3567 2.01786C88.855 1.29337 88.1411 0.793914 87.3426 0.608895C80.3152 -1.04864 71.3519 -2.05087 70.5881 36.2301C70.3958 45.8675 76.0534 53.4241 70.5881 73.2284H19.1006C17.9782 73.2275 16.902 72.724 16.1086 71.8286C15.3152 70.9333 14.8696 69.7193 14.8696 68.4535V67.1751H9.85177C7.24087 67.1861 4.73983 68.3614 2.8945 70.4443C1.04917 72.5273 0.00936717 75.3489 0.00202396 78.2932Z" fill="#F0C49F"/>
<g style="mix-blend-mode:multiply" opacity="0.3">
<path d="M73.2793 42.5992C73.3262 43.1671 77.6817 69.2916 77.5213 69.8324C77.3608 70.3733 77.1021 70.8705 76.7617 71.2923C76.4212 71.7141 73.7418 73.3247 73.2793 73.5555C72.8167 73.7862 72.3166 73.9057 71.8109 73.9061L70.5059 73.1664C73.2793 62.3405 73.9123 58.6075 71.525 44.5103C69.2603 31.1374 70.9588 -0.0675207 82.7817 0.00598903C83.106 0.0806044 83.4189 0.207665 83.7109 0.383231C72.7368 3.20711 71.525 27.3156 73.2793 42.5992Z" fill="#F0C49F"/>
</g>
<g style="mix-blend-mode:multiply" opacity="0.3">
<path d="M9.84885 67.1748H14.8666V68.4567C14.8645 69.397 15.1115 70.3165 15.5759 71.0974C14.0519 73.101 13.2136 75.6532 13.2126 78.2929V92.3801C13.2212 95.1254 14.0866 97.7796 15.6572 99.8772C17.2278 101.975 19.4032 103.382 21.8017 103.851C20.3238 104.813 19.0959 106.196 18.2408 107.862C17.3858 109.527 16.9336 111.417 16.9295 113.341V120.558C16.9358 122.855 17.5792 125.092 18.7696 126.955C19.9599 128.819 21.6375 130.215 23.5672 130.95C22.6477 131.898 21.9132 133.051 21.4103 134.337C20.9075 135.623 20.6473 137.012 20.6464 138.418V143.105C20.6529 145.796 21.6037 148.374 23.2909 150.277C24.9781 152.18 27.2645 153.252 29.6506 153.259H30.4311C29.4341 154.232 28.6346 155.436 28.0867 156.788C27.5389 158.141 27.2557 159.611 27.2563 161.097V166.48C27.2628 169.232 28.235 171.87 29.9604 173.816C31.6859 175.763 34.0243 176.86 36.4648 176.868H23.2513C20.8102 176.861 18.471 175.764 16.7449 173.817C15.0188 171.871 14.0462 169.233 14.0396 166.48V161.097C14.0408 159.613 14.3249 158.146 14.8727 156.796C15.4205 155.446 16.2191 154.245 17.2145 153.273H16.4339C14.0484 153.265 11.7628 152.192 10.0763 150.29C8.38974 148.387 7.43941 145.809 7.43288 143.119V138.418C7.4334 137.013 7.69307 135.623 8.19537 134.338C8.69768 133.052 9.43164 131.898 10.3506 130.95C8.42123 130.215 6.74402 128.818 5.55419 126.955C4.36436 125.091 3.72159 122.854 3.71599 120.558V113.341C3.72007 111.417 4.17225 109.527 5.0273 107.862C5.88235 106.196 7.11027 104.813 8.5882 103.851C6.18939 103.382 4.01367 101.976 2.44298 99.8779C0.872296 97.7802 0.0070362 95.1256 -0.000893845 92.3801V78.2929C0.00644937 75.3486 1.04625 72.527 2.89158 70.4441C4.73691 68.3611 7.23794 67.1859 9.84885 67.1748V67.1748Z" fill="#F0C49F"/>
</g>
<g style="mix-blend-mode:multiply" opacity="0.3">
<path d="M115.947 84.0576H137.629V164.477L127.717 167.024V99.4512C127.716 97.8141 127.38 96.1994 126.736 94.7327C126.091 93.266 125.155 91.9868 124 90.9947L115.947 84.0576Z" fill="#F0C49F"/>
</g>
<path d="M134 83.923V173.073C133.999 173.589 134.209 174.099 134.618 174.576C135.027 175.052 135.626 175.485 136.383 175.85C137.139 176.214 138.037 176.504 139.026 176.701C140.015 176.898 141.074 177 142.144 177H1134L1134 80.0004L142.144 80C139.984 80 137.913 80.4133 136.385 81.149C134.858 81.8847 134 82.8826 134 83.923Z" fill="url(#paint0_linear)"/>
<g style="mix-blend-mode:multiply" opacity="0.3">
<path d="M134 158V173.021C133.998 173.543 134.4 174.061 135.184 174.543C135.967 175.026 137.116 175.465 138.564 175.834C140.013 176.204 141.734 176.497 143.627 176.697C145.521 176.897 147.551 177 149.601 177H1118.39C1120.44 177 1122.47 176.897 1124.36 176.697C1126.26 176.497 1127.98 176.204 1129.43 175.835C1130.88 175.465 1132.03 175.026 1132.81 174.544C1133.6 174.061 1134 173.543 1134 173.021V158H134Z" fill="url(#paint1_linear)"/>
</g>
<g style="mix-blend-mode:multiply" opacity="0.3">
<path d="M142.905 160.545C141.927 155.927 144.454 151.29 148.549 150.187C152.644 149.085 156.756 151.934 157.733 156.552C158.711 161.17 156.184 165.807 152.09 166.91C147.995 168.012 143.883 165.163 142.905 160.545Z" fill="#0A3D76"/>
</g>
<path d="M152.303 166.274C148.093 166.274 144.68 162.426 144.68 157.678C144.68 152.931 148.093 149.082 152.303 149.082C156.513 149.082 159.926 152.931 159.926 157.678C159.926 162.426 156.513 166.274 152.303 166.274Z" fill="#B4D1FA"/>
<g style="mix-blend-mode:multiply" opacity="0.3">
<path d="M149.543 149.676C148.955 150.436 148.517 151.328 148.257 152.293C147.997 153.259 147.922 154.275 148.037 155.275C148.151 156.276 148.452 157.238 148.921 158.097C149.389 158.956 150.014 159.694 150.754 160.261C151.494 160.827 152.332 161.211 153.213 161.385C154.094 161.56 154.998 161.521 155.865 161.272C156.732 161.024 157.542 160.57 158.242 159.942C158.942 159.314 159.516 158.526 159.926 157.629C159.926 157.647 159.926 157.664 159.926 157.678C159.927 159.243 159.55 160.779 158.835 162.121C158.119 163.462 157.092 164.557 155.865 165.289C154.638 166.02 153.257 166.36 151.871 166.271C150.486 166.183 149.148 165.669 148.002 164.786C146.856 163.903 145.946 162.683 145.369 161.259C144.793 159.836 144.572 158.261 144.73 156.706C144.889 155.151 145.421 153.675 146.269 152.436C147.117 151.197 148.249 150.242 149.543 149.676V149.676Z" fill="#71A0DD"/>
</g>
<path d="M153.458 155.11C152.385 153.995 152.085 152.393 152.789 151.532C153.492 150.671 154.933 150.876 156.006 151.991C157.079 153.106 157.379 154.708 156.675 155.569C155.972 156.43 154.532 156.225 153.458 155.11Z" fill="white"/>
<path d="M196.184 112C198.47 112 199.676 110.56 199.676 108.76C199.676 107.248 198.65 106.006 197.372 105.808C198.506 105.574 199.442 104.566 199.442 103.054C199.442 101.452 198.272 99.994 195.986 99.994H189.668V112H196.184ZM195.428 104.8H192.224V102.19H195.428C196.292 102.19 196.832 102.748 196.832 103.504C196.832 104.26 196.292 104.8 195.428 104.8ZM195.518 109.786H192.224V106.996H195.518C196.526 106.996 197.066 107.644 197.066 108.4C197.066 109.264 196.49 109.786 195.518 109.786ZM205.6 112.216C207.382 112.216 208.462 111.442 209.038 110.632L207.544 109.246C207.13 109.822 206.5 110.182 205.708 110.182C204.322 110.182 203.35 109.156 203.35 107.644C203.35 106.132 204.322 105.124 205.708 105.124C206.5 105.124 207.13 105.448 207.544 106.06L209.038 104.656C208.462 103.864 207.382 103.09 205.6 103.09C202.918 103.09 200.992 104.98 200.992 107.644C200.992 110.326 202.918 112.216 205.6 112.216ZM214.618 112.216C215.968 112.216 217.336 111.802 218.2 111.01L217.192 109.534C216.634 110.074 215.608 110.398 214.87 110.398C213.394 110.398 212.512 109.48 212.368 108.382H218.83V107.878C218.83 105.034 217.066 103.09 214.474 103.09C211.828 103.09 209.974 105.124 209.974 107.644C209.974 110.434 211.972 112.216 214.618 112.216ZM216.616 106.834H212.332C212.44 105.97 213.052 104.908 214.474 104.908C215.986 104.908 216.562 106.006 216.616 106.834ZM231.927 114.214H234.213V110.002H233.259V103.306H230.973V110.002H227.373V103.306H225.087V112H231.927V114.214ZM239.738 112.216C241.088 112.216 242.456 111.802 243.32 111.01L242.312 109.534C241.754 110.074 240.728 110.398 239.99 110.398C238.514 110.398 237.632 109.48 237.488 108.382H243.95V107.878C243.95 105.034 242.186 103.09 239.594 103.09C236.948 103.09 235.094 105.124 235.094 107.644C235.094 110.434 237.092 112.216 239.738 112.216ZM241.736 106.834H237.452C237.56 105.97 238.172 104.908 239.594 104.908C241.106 104.908 241.682 106.006 241.736 106.834ZM244.791 112.216C247.005 112.216 248.085 110.794 248.445 107.788L248.733 105.304H251.487V112H253.773V103.306H246.735L246.177 107.518C245.907 109.624 245.493 110.344 244.791 110.344V112.216ZM258.238 112L261.928 106.546V112H264.214V103.306H261.91L258.328 108.562V103.306H256.042V112H258.238ZM270.279 114.214H272.583V112H277.929V114.214H280.215V110.002H279.261V103.306H272.223L271.665 107.518C271.395 109.624 270.981 109.966 270.279 110.092V114.214ZM274.221 105.304H276.975V110.002H272.943C273.483 109.498 273.825 108.724 273.951 107.662L274.221 105.304ZM285.686 112.216C288.566 112.216 290.294 110.128 290.294 107.644C290.294 105.178 288.566 103.09 285.686 103.09C282.824 103.09 281.096 105.178 281.096 107.644C281.096 110.128 282.824 112.216 285.686 112.216ZM285.686 110.182C284.264 110.182 283.472 109.012 283.472 107.644C283.472 106.294 284.264 105.124 285.686 105.124C287.108 105.124 287.918 106.294 287.918 107.644C287.918 109.012 287.108 110.182 285.686 110.182ZM296.039 112.216C297.821 112.216 298.901 111.442 299.477 110.632L297.983 109.246C297.569 109.822 296.939 110.182 296.147 110.182C294.761 110.182 293.789 109.156 293.789 107.644C293.789 106.132 294.761 105.124 296.147 105.124C296.939 105.124 297.569 105.448 297.983 106.06L299.477 104.656C298.901 103.864 297.821 103.09 296.039 103.09C293.357 103.09 291.431 104.98 291.431 107.644C291.431 110.326 293.357 112.216 296.039 112.216ZM304.878 112V105.304H307.308V103.306H300.144V105.304H302.574V112H304.878ZM310.937 112L314.627 106.546V112H316.913V103.306H314.609L311.027 108.562V103.306H308.741V112H310.937ZM325.897 103.306H319.183V112H321.469V105.304H325.897V103.306ZM329.643 112V108.526H333.243V112H335.529V103.306H333.243V106.528H329.643V103.306H327.357V112H329.643ZM337.492 115.402C337.78 115.474 338.356 115.528 338.626 115.528C340.12 115.492 341.272 115.06 341.92 113.422L346.006 103.306H343.54L341.272 109.354L339.004 103.306H336.556L340.084 112.126L339.76 112.864C339.544 113.332 339.148 113.494 338.554 113.494C338.338 113.494 338.032 113.44 337.834 113.35L337.492 115.402ZM350.933 112V105.304H353.363V103.306H346.199V105.304H348.629V112H350.933ZM354.796 103.306V112H360.052C361.996 112 363.076 110.686 363.076 109.138C363.076 107.608 362.068 106.294 360.052 106.294H357.082V103.306H354.796ZM359.71 108.202C360.358 108.202 360.736 108.598 360.736 109.138C360.736 109.678 360.358 110.074 359.71 110.074H357.082V108.202H359.71ZM366.514 112V103.306H364.21V112H366.514ZM371.507 111.118C371.507 109.948 370.733 109.282 369.887 109.282C369.131 109.282 368.483 109.93 368.483 110.722C368.483 111.496 369.023 112.018 369.707 112.018C369.833 112.018 369.995 111.982 370.049 111.964C369.905 112.594 369.239 113.35 368.663 113.656L369.653 114.466C370.751 113.674 371.507 112.468 371.507 111.118ZM381.15 112.216C383.742 112.216 385.344 111.136 385.344 109.606C385.344 108.292 383.958 107.608 382.896 107.536C384.048 107.356 385.164 106.6 385.164 105.484C385.164 104.008 383.634 103.09 380.916 103.108C379.332 103.108 378.072 103.702 377.226 104.548L378.342 105.898C379.026 105.232 379.908 104.908 381.042 104.908C382.068 104.908 382.788 105.268 382.788 105.79C382.788 106.402 382.194 106.726 381.006 106.726H379.224V108.49H381.006C382.194 108.49 382.95 108.796 382.95 109.462C382.95 110.02 382.32 110.398 381.15 110.398C380.106 110.398 378.954 110.092 378.144 109.408L377.1 110.83C377.946 111.658 379.35 112.216 381.15 112.216ZM394.558 112V106.384C394.558 103.882 392.74 103.09 390.76 103.09C389.392 103.09 388.024 103.522 386.962 104.458L387.826 105.988C388.564 105.304 389.428 104.962 390.364 104.962C391.516 104.962 392.272 105.538 392.272 106.42V107.59C391.696 106.906 390.67 106.528 389.518 106.528C388.132 106.528 386.494 107.302 386.494 109.336C386.494 111.28 388.132 112.216 389.518 112.216C390.652 112.216 391.678 111.802 392.272 111.1V112H394.558ZM390.436 110.668C389.536 110.668 388.798 110.2 388.798 109.39C388.798 108.544 389.536 108.076 390.436 108.076C391.174 108.076 391.894 108.328 392.272 108.832V109.912C391.894 110.416 391.174 110.668 390.436 110.668ZM405.321 112L401.775 107.248L405.213 103.306H402.405L399.111 107.176V103.306H396.825V112H399.111V109.768L400.155 108.652L402.459 112H405.321ZM413.964 112V106.384C413.964 103.882 412.146 103.09 410.166 103.09C408.798 103.09 407.43 103.522 406.368 104.458L407.232 105.988C407.97 105.304 408.834 104.962 409.77 104.962C410.922 104.962 411.678 105.538 411.678 106.42V107.59C411.102 106.906 410.076 106.528 408.924 106.528C407.538 106.528 405.9 107.302 405.9 109.336C405.9 111.28 407.538 112.216 408.924 112.216C410.058 112.216 411.084 111.802 411.678 111.1V112H413.964ZM409.842 110.668C408.942 110.668 408.204 110.2 408.204 109.39C408.204 108.544 408.942 108.076 409.842 108.076C410.58 108.076 411.3 108.328 411.678 108.832V109.912C411.3 110.416 410.58 110.668 409.842 110.668ZM419.4 112.216C421.992 112.216 423.594 111.136 423.594 109.606C423.594 108.292 422.208 107.608 421.146 107.536C422.298 107.356 423.414 106.6 423.414 105.484C423.414 104.008 421.884 103.09 419.166 103.108C417.582 103.108 416.322 103.702 415.476 104.548L416.592 105.898C417.276 105.232 418.158 104.908 419.292 104.908C420.318 104.908 421.038 105.268 421.038 105.79C421.038 106.402 420.444 106.726 419.256 106.726H417.474V108.49H419.256C420.444 108.49 421.2 108.796 421.2 109.462C421.2 110.02 420.57 110.398 419.4 110.398C418.356 110.398 417.204 110.092 416.394 109.408L415.35 110.83C416.196 111.658 417.6 112.216 419.4 112.216ZM425.032 103.306V106.456C425.032 108.256 425.932 109.318 428.362 109.318C429.442 109.318 430.342 109.084 430.9 108.778V112H433.204V103.306H430.9V106.942C430.504 107.14 429.946 107.284 429.154 107.284C427.948 107.284 427.318 106.888 427.318 105.664V103.306H425.032ZM437.658 112L441.348 106.546V112H443.634V103.306H441.33L437.748 108.562V103.306H435.462V112H437.658ZM454.4 112L450.854 107.248L454.292 103.306H451.484L448.19 107.176V103.306H445.904V112H448.19V109.768L449.234 108.652L451.538 112H454.4ZM189.308 138.402C189.596 138.474 190.172 138.528 190.442 138.528C191.936 138.492 193.088 138.06 193.736 136.422L197.822 126.306H195.356L193.088 132.354L190.82 126.306H188.372L191.9 135.126L191.576 135.864C191.36 136.332 190.964 136.494 190.37 136.494C190.154 136.494 189.848 136.44 189.65 136.35L189.308 138.402ZM198.033 137.214H200.337V135H205.683V137.214H207.969V133.002H207.015V126.306H199.977L199.419 130.518C199.149 132.624 198.735 132.966 198.033 133.092V137.214ZM201.975 128.304H204.729V133.002H200.697C201.237 132.498 201.579 131.724 201.705 130.662L201.975 128.304ZM213.439 135.216C216.319 135.216 218.047 133.128 218.047 130.644C218.047 128.178 216.319 126.09 213.439 126.09C210.577 126.09 208.849 128.178 208.849 130.644C208.849 133.128 210.577 135.216 213.439 135.216ZM213.439 133.182C212.017 133.182 211.225 132.012 211.225 130.644C211.225 129.294 212.017 128.124 213.439 128.124C214.861 128.124 215.671 129.294 215.671 130.644C215.671 132.012 214.861 133.182 213.439 133.182ZM225.413 135C227.159 135 228.095 133.956 228.095 132.642C228.095 131.598 227.393 130.734 226.439 130.518C227.249 130.284 227.915 129.582 227.915 128.538C227.915 127.368 227.015 126.306 225.251 126.306H219.743V135H225.413ZM224.855 133.128H222.029V131.508H224.855C225.431 131.508 225.755 131.886 225.755 132.318C225.755 132.822 225.413 133.128 224.855 133.128ZM224.783 129.636H222.029V128.178H224.783C225.287 128.178 225.593 128.484 225.593 128.916C225.593 129.312 225.287 129.636 224.783 129.636ZM229.48 135.216C231.694 135.216 232.774 133.794 233.134 130.788L233.422 128.304H236.176V135H238.462V126.306H231.424L230.866 130.518C230.596 132.624 230.182 133.344 229.48 133.344V135.216ZM244.818 135.216C246.168 135.216 247.536 134.802 248.4 134.01L247.392 132.534C246.834 133.074 245.808 133.398 245.07 133.398C243.594 133.398 242.712 132.48 242.568 131.382H249.03V130.878C249.03 128.034 247.266 126.09 244.674 126.09C242.028 126.09 240.174 128.124 240.174 130.644C240.174 133.434 242.172 135.216 244.818 135.216ZM246.816 129.834H242.532C242.64 128.97 243.252 127.908 244.674 127.908C246.186 127.908 246.762 129.006 246.816 129.834ZM254.587 135V128.304H257.017V126.306H249.853V128.304H252.283V135H254.587ZM264.12 135C265.866 135 266.802 133.956 266.802 132.642C266.802 131.598 266.1 130.734 265.146 130.518C265.956 130.284 266.622 129.582 266.622 128.538C266.622 127.368 265.722 126.306 263.958 126.306H258.45V135H264.12ZM263.562 133.128H260.736V131.508H263.562C264.138 131.508 264.462 131.886 264.462 132.318C264.462 132.822 264.12 133.128 263.562 133.128ZM263.49 129.636H260.736V128.178H263.49C263.994 128.178 264.3 128.484 264.3 128.916C264.3 129.312 263.994 129.636 263.49 129.636ZM273.029 135.216C275.909 135.216 277.637 133.128 277.637 130.644C277.637 128.178 275.909 126.09 273.029 126.09C270.167 126.09 268.439 128.178 268.439 130.644C268.439 133.128 270.167 135.216 273.029 135.216ZM273.029 133.182C271.607 133.182 270.815 132.012 270.815 130.644C270.815 129.294 271.607 128.124 273.029 128.124C274.451 128.124 275.261 129.294 275.261 130.644C275.261 132.012 274.451 133.182 273.029 133.182ZM284.301 135.216C286.533 135.216 288.153 133.542 288.153 130.644C288.153 127.746 286.533 126.09 284.301 126.09C283.239 126.09 282.285 126.558 281.619 127.404V126.306H279.333V138.312H281.619V133.884C282.321 134.784 283.275 135.216 284.301 135.216ZM283.581 133.182C282.843 133.182 281.997 132.732 281.619 132.192V129.114C281.997 128.556 282.843 128.124 283.581 128.124C284.895 128.124 285.777 129.15 285.777 130.644C285.777 132.156 284.895 133.182 283.581 133.182ZM293.913 135.216C295.263 135.216 296.631 134.802 297.495 134.01L296.487 132.534C295.929 133.074 294.903 133.398 294.165 133.398C292.689 133.398 291.807 132.48 291.663 131.382H298.125V130.878C298.125 128.034 296.361 126.09 293.769 126.09C291.123 126.09 289.269 128.124 289.269 130.644C289.269 133.434 291.267 135.216 293.913 135.216ZM295.911 129.834H291.627C291.735 128.97 292.347 127.908 293.769 127.908C295.281 127.908 295.857 129.006 295.911 129.834ZM302.063 135V131.526H305.663V135H307.949V126.306H305.663V129.528H302.063V126.306H299.777V135H302.063ZM322.995 135V126.306H314.823V135H317.109V128.304H320.709V135H322.995ZM329.297 135.216C332.177 135.216 333.905 133.128 333.905 130.644C333.905 128.178 332.177 126.09 329.297 126.09C326.435 126.09 324.707 128.178 324.707 130.644C324.707 133.128 326.435 135.216 329.297 135.216ZM329.297 133.182C327.875 133.182 327.083 132.012 327.083 130.644C327.083 129.294 327.875 128.124 329.297 128.124C330.719 128.124 331.529 129.294 331.529 130.644C331.529 132.012 330.719 133.182 329.297 133.182ZM334.791 135.216C337.005 135.216 338.085 133.794 338.445 130.788L338.733 128.304H341.487V135H343.773V126.306H336.735L336.177 130.518C335.907 132.624 335.493 133.344 334.791 133.344V135.216ZM345.736 138.402C346.024 138.474 346.6 138.528 346.87 138.528C348.364 138.492 349.516 138.06 350.164 136.422L354.25 126.306H351.784L349.516 132.354L347.248 126.306H344.8L348.328 135.126L348.004 135.864C347.788 136.332 347.392 136.494 346.798 136.494C346.582 136.494 346.276 136.44 346.078 136.35L345.736 138.402ZM355.001 126.306V129.456C355.001 131.256 355.901 132.318 358.331 132.318C359.411 132.318 360.311 132.084 360.869 131.778V135H363.173V126.306H360.869V129.942C360.473 130.14 359.915 130.284 359.123 130.284C357.917 130.284 357.287 129.888 357.287 128.664V126.306H355.001ZM369.517 135.216C370.867 135.216 372.235 134.802 373.099 134.01L372.091 132.534C371.533 133.074 370.507 133.398 369.769 133.398C368.293 133.398 367.411 132.48 367.267 131.382H373.729V130.878C373.729 128.034 371.965 126.09 369.373 126.09C366.727 126.09 364.873 128.124 364.873 130.644C364.873 133.434 366.871 135.216 369.517 135.216ZM371.515 129.834H367.231C367.339 128.97 367.951 127.908 369.373 127.908C370.885 127.908 371.461 129.006 371.515 129.834ZM377.666 135V131.526H381.266V135H383.552V126.306H381.266V129.528H377.666V126.306H375.38V135H377.666ZM388.108 135V131.526H391.708V135H393.994V126.306H391.708V129.528H388.108V126.306H385.822V135H388.108ZM396.263 126.306V135H401.519C403.463 135 404.543 133.686 404.543 132.138C404.543 130.608 403.535 129.294 401.519 129.294H398.549V126.306H396.263ZM401.177 131.202C401.825 131.202 402.203 131.598 402.203 132.138C402.203 132.678 401.825 133.074 401.177 133.074H398.549V131.202H401.177ZM407.981 135V126.306H405.677V135H407.981ZM420.516 135V126.306H417.492L415.386 131.49L413.244 126.306H410.238V135H412.524V129.348L414.864 135H415.908L418.23 129.348V135H420.516ZM424.984 135L428.674 129.546V135H430.96V126.306H428.656L425.074 131.562V126.306H422.788V135H424.984ZM194.582 158.216C196.814 158.216 198.434 156.542 198.434 153.644C198.434 150.746 196.814 149.09 194.582 149.09C193.52 149.09 192.566 149.558 191.9 150.404V149.306H189.614V161.312H191.9V156.884C192.602 157.784 193.556 158.216 194.582 158.216ZM193.862 156.182C193.124 156.182 192.278 155.732 191.9 155.192V152.114C192.278 151.556 193.124 151.124 193.862 151.124C195.176 151.124 196.058 152.15 196.058 153.644C196.058 155.156 195.176 156.182 193.862 156.182ZM204.195 158.216C205.545 158.216 206.913 157.802 207.777 157.01L206.769 155.534C206.211 156.074 205.185 156.398 204.447 156.398C202.971 156.398 202.089 155.48 201.945 154.382H208.407V153.878C208.407 151.034 206.643 149.09 204.051 149.09C201.405 149.09 199.551 151.124 199.551 153.644C199.551 156.434 201.549 158.216 204.195 158.216ZM206.193 152.834H201.909C202.017 151.97 202.629 150.908 204.051 150.908C205.563 150.908 206.139 152.006 206.193 152.834ZM213.226 158.216C215.818 158.216 217.42 157.136 217.42 155.606C217.42 154.292 216.034 153.608 214.972 153.536C216.124 153.356 217.24 152.6 217.24 151.484C217.24 150.008 215.71 149.09 212.992 149.108C211.408 149.108 210.148 149.702 209.302 150.548L210.418 151.898C211.102 151.232 211.984 150.908 213.118 150.908C214.144 150.908 214.864 151.268 214.864 151.79C214.864 152.402 214.27 152.726 213.082 152.726H211.3V154.49H213.082C214.27 154.49 215.026 154.796 215.026 155.462C215.026 156.02 214.396 156.398 213.226 156.398C212.182 156.398 211.03 156.092 210.22 155.408L209.176 156.83C210.022 157.658 211.426 158.216 213.226 158.216ZM218.822 161.402C219.11 161.474 219.686 161.528 219.956 161.528C221.45 161.492 222.602 161.06 223.25 159.422L227.336 149.306H224.87L222.602 155.354L220.334 149.306H217.886L221.414 158.126L221.09 158.864C220.874 159.332 220.478 159.494 219.884 159.494C219.668 159.494 219.362 159.44 219.164 159.35L218.822 161.402ZM227.547 158.216C229.761 158.216 230.841 156.794 231.201 153.788L231.489 151.304H234.243V158H236.529V149.306H229.491L228.933 153.518C228.663 155.624 228.249 156.344 227.547 156.344V158.216ZM238.798 149.306V158H244.054C245.998 158 247.078 156.686 247.078 155.138C247.078 153.608 246.07 152.294 244.054 152.294H241.084V149.306H238.798ZM243.712 154.202C244.36 154.202 244.738 154.598 244.738 155.138C244.738 155.678 244.36 156.074 243.712 156.074H241.084V154.202H243.712ZM251.81 158V151.304H254.24V149.306H247.076V151.304H249.506V158H251.81ZM263.179 158V152.384C263.179 149.882 261.361 149.09 259.381 149.09C258.013 149.09 256.645 149.522 255.583 150.458L256.447 151.988C257.185 151.304 258.049 150.962 258.985 150.962C260.137 150.962 260.893 151.538 260.893 152.42V153.59C260.317 152.906 259.291 152.528 258.139 152.528C256.753 152.528 255.115 153.302 255.115 155.336C255.115 157.28 256.753 158.216 258.139 158.216C259.273 158.216 260.299 157.802 260.893 157.1V158H263.179ZM259.057 156.668C258.157 156.668 257.419 156.2 257.419 155.39C257.419 154.544 258.157 154.076 259.057 154.076C259.795 154.076 260.515 154.328 260.893 154.832V155.912C260.515 156.416 259.795 156.668 259.057 156.668ZM269.353 158V151.304H271.783V149.306H264.619V151.304H267.049V158H269.353ZM280.722 158V152.384C280.722 149.882 278.904 149.09 276.924 149.09C275.556 149.09 274.188 149.522 273.126 150.458L273.99 151.988C274.728 151.304 275.592 150.962 276.528 150.962C277.68 150.962 278.436 151.538 278.436 152.42V153.59C277.86 152.906 276.834 152.528 275.682 152.528C274.296 152.528 272.658 153.302 272.658 155.336C272.658 157.28 274.296 158.216 275.682 158.216C276.816 158.216 277.842 157.802 278.436 157.1V158H280.722ZM276.6 156.668C275.7 156.668 274.962 156.2 274.962 155.39C274.962 154.544 275.7 154.076 276.6 154.076C277.338 154.076 278.058 154.328 278.436 154.832V155.912C278.058 156.416 277.338 156.668 276.6 156.668ZM293.267 158V149.306H290.243L288.137 154.49L285.995 149.306H282.989V158H285.275V152.348L287.615 158H288.659L290.981 152.348V158H293.267ZM297.736 158L301.426 152.546V158H303.712V149.306H301.408L297.826 154.562V149.306H295.54V158H297.736ZM307.152 158.198C307.944 158.198 308.61 157.532 308.61 156.74C308.61 155.948 307.944 155.282 307.152 155.282C306.36 155.282 305.694 155.948 305.694 156.74C305.694 157.532 306.36 158.198 307.152 158.198Z" fill="#F5F9FF"/>
<defs>
<linearGradient id="paint0_linear" x1="634" y1="80" x2="634" y2="177" gradientUnits="userSpaceOnUse">
<stop stop-color="#0A3D76"/>
<stop offset="1" stop-color="#0C53A3"/>
</linearGradient>
<linearGradient id="paint1_linear" x1="634" y1="158" x2="634" y2="177" gradientUnits="userSpaceOnUse">
<stop stop-color="#0A3D76"/>
<stop offset="1" stop-color="#0C53A3"/>
</linearGradient>
</defs>
</svg>
