<svg width="1920" height="675" viewBox="0 0 1920 675" fill="none" xmlns="http://www.w3.org/2000/svg">
<g clip-path="url(#clip0)">
<g opacity="0.15" clip-path="url(#clip1)">
<path d="M1411.8 136.536L1411.71 136.541C1411.47 136.541 1411.23 136.493 1411.01 136.401C1410.79 136.309 1410.58 136.174 1410.41 136.004C1410.24 135.833 1410.11 135.631 1410.02 135.409C1409.92 135.187 1409.88 134.948 1409.88 134.708C1409.92 131.942 1410.26 129.189 1410.89 126.497C1410.95 126.263 1411.05 126.042 1411.19 125.846C1411.33 125.651 1411.51 125.485 1411.71 125.358C1411.91 125.231 1412.14 125.145 1412.38 125.106C1412.62 125.067 1412.86 125.075 1413.09 125.13C1413.33 125.184 1413.55 125.284 1413.74 125.424C1413.94 125.565 1414.1 125.742 1414.23 125.946C1414.36 126.15 1414.44 126.377 1414.48 126.615C1414.52 126.852 1414.51 127.094 1414.46 127.329C1413.88 129.747 1413.58 132.221 1413.54 134.707C1413.54 135.176 1413.36 135.628 1413.03 135.968C1412.71 136.308 1412.27 136.511 1411.8 136.536V136.536ZM1415.32 121.328C1415.01 121.343 1414.7 121.277 1414.41 121.135C1414.13 120.993 1413.89 120.781 1413.72 120.518C1413.54 120.256 1413.43 119.952 1413.41 119.638C1413.39 119.323 1413.44 119.007 1413.58 118.721C1414.75 116.221 1416.22 113.867 1417.94 111.706C1418.09 111.515 1418.27 111.356 1418.48 111.237C1418.69 111.118 1418.93 111.042 1419.17 111.013C1419.41 110.985 1419.65 111.005 1419.88 111.071C1420.12 111.137 1420.33 111.249 1420.52 111.401C1420.71 111.552 1420.87 111.739 1420.99 111.951C1421.1 112.164 1421.18 112.397 1421.2 112.638C1421.23 112.879 1421.2 113.122 1421.14 113.354C1421.07 113.586 1420.95 113.803 1420.8 113.99C1419.26 115.927 1417.95 118.038 1416.9 120.28C1416.76 120.581 1416.54 120.839 1416.26 121.024C1415.98 121.209 1415.66 121.315 1415.33 121.33L1415.32 121.328ZM1425.03 109.197C1424.64 109.217 1424.25 109.111 1423.93 108.897C1423.6 108.682 1423.36 108.37 1423.22 108.004C1423.09 107.639 1423.07 107.24 1423.18 106.866C1423.29 106.491 1423.51 106.161 1423.82 105.922C1425.99 104.25 1428.35 102.82 1430.83 101.657C1431.05 101.555 1431.29 101.496 1431.53 101.485C1431.77 101.473 1432.01 101.509 1432.23 101.591C1432.46 101.672 1432.67 101.797 1432.85 101.959C1433.02 102.121 1433.17 102.316 1433.27 102.534C1433.37 102.751 1433.43 102.987 1433.44 103.227C1433.45 103.467 1433.42 103.707 1433.34 103.933C1433.25 104.16 1433.13 104.368 1432.97 104.545C1432.81 104.723 1432.61 104.867 1432.39 104.97C1430.14 106.018 1428.01 107.309 1426.04 108.819C1425.75 109.046 1425.4 109.179 1425.03 109.2L1425.03 109.197ZM1439.05 102.469C1438.6 102.493 1438.16 102.349 1437.81 102.063C1437.45 101.778 1437.22 101.372 1437.15 100.924C1437.08 100.477 1437.18 100.019 1437.43 99.6394C1437.67 99.2601 1438.05 98.9863 1438.49 98.8708C1441.1 98.1833 1443.75 97.6763 1446.43 97.3537C1446.91 97.2947 1447.4 97.43 1447.78 97.73C1448.16 98.0299 1448.41 98.4699 1448.47 98.953C1448.53 99.4362 1448.39 99.9231 1448.1 100.306C1447.8 100.69 1447.36 100.938 1446.87 100.997C1444.37 101.298 1441.88 101.773 1439.44 102.419C1439.32 102.454 1439.19 102.475 1439.06 102.482L1439.05 102.469ZM1460.54 100.436C1459.4 100.493 1458.23 100.513 1457.05 100.494C1456.19 100.479 1455.33 100.478 1454.49 100.489C1454.25 100.492 1454.01 100.448 1453.78 100.359C1453.56 100.27 1453.36 100.138 1453.19 99.9702C1453.01 99.8024 1452.88 99.6024 1452.78 99.3814C1452.69 99.1604 1452.63 98.9229 1452.63 98.6823C1452.63 98.4418 1452.67 98.2029 1452.76 97.9794C1452.85 97.7559 1452.98 97.5521 1453.15 97.3797C1453.32 97.2072 1453.52 97.0695 1453.74 96.9744C1453.96 96.8793 1454.2 96.8286 1454.44 96.8253C1455.31 96.8127 1456.21 96.8145 1457.11 96.8296C1458.79 96.8602 1460.46 96.8013 1462.13 96.653C1462.37 96.6312 1462.62 96.6567 1462.84 96.7283C1463.07 96.7998 1463.29 96.9158 1463.47 97.0698C1463.66 97.2238 1463.81 97.4127 1463.92 97.6257C1464.03 97.8388 1464.1 98.0717 1464.12 98.3114C1464.15 98.551 1464.12 98.7926 1464.05 99.0223C1463.98 99.252 1463.86 99.4654 1463.71 99.6503C1463.55 99.8352 1463.37 99.9879 1463.15 100.1C1462.94 100.212 1462.71 100.281 1462.47 100.302C1461.84 100.371 1461.19 100.416 1460.54 100.449L1460.54 100.436ZM1470.08 98.8514C1469.63 98.8744 1469.19 98.7327 1468.84 98.4531C1468.49 98.1735 1468.25 97.7753 1468.18 97.334C1468.1 96.8926 1468.19 96.4387 1468.43 96.0581C1468.66 95.6775 1469.03 95.3967 1469.46 95.2687C1471.82 94.5683 1474.09 93.5793 1476.21 92.3238C1476.42 92.2004 1476.65 92.1192 1476.89 92.0848C1477.13 92.0505 1477.37 92.0636 1477.6 92.1236C1477.84 92.1835 1478.06 92.2891 1478.25 92.4342C1478.45 92.5793 1478.61 92.7612 1478.73 92.9694C1478.86 93.1776 1478.94 93.4081 1478.97 93.6477C1479.01 93.8873 1478.99 94.1313 1478.93 94.3658C1478.87 94.6003 1478.77 94.8207 1478.62 95.0144C1478.48 95.2081 1478.3 95.3713 1478.09 95.4948C1475.71 96.9047 1473.16 98.0159 1470.51 98.8032C1470.37 98.8412 1470.23 98.8617 1470.08 98.8643L1470.08 98.8514ZM1483.35 90.8517C1482.99 90.8703 1482.62 90.7786 1482.31 90.5883C1482 90.398 1481.75 90.1181 1481.6 89.7846C1481.44 89.4511 1481.39 89.0796 1481.46 88.718C1481.52 88.3565 1481.69 88.0216 1481.94 87.7569C1483.64 85.9756 1485.1 83.9854 1486.3 81.8341C1486.42 81.624 1486.58 81.4394 1486.77 81.2908C1486.96 81.1423 1487.18 81.0326 1487.41 80.9682C1487.64 80.9037 1487.89 80.8857 1488.13 80.9152C1488.37 80.9446 1488.6 81.021 1488.81 81.1399C1489.02 81.2588 1489.2 81.418 1489.35 81.6082C1489.5 81.7985 1489.61 82.0161 1489.67 82.2487C1489.74 82.4814 1489.75 82.7244 1489.73 82.964C1489.7 83.2036 1489.62 83.435 1489.5 83.6451C1488.15 86.066 1486.5 88.3057 1484.59 90.3104C1484.26 90.6482 1483.82 90.8492 1483.36 90.8724L1483.35 90.8517ZM1491.03 77.3435C1490.74 77.3582 1490.45 77.3023 1490.18 77.1803C1489.92 77.0584 1489.68 76.874 1489.5 76.6428C1489.32 76.4116 1489.2 76.1403 1489.14 75.8518C1489.09 75.5633 1489.11 75.2661 1489.19 74.9851C1489.91 72.5853 1490.41 70.1243 1490.67 67.6334C1490.7 67.3908 1490.77 67.155 1490.88 66.9398C1490.99 66.7246 1491.15 66.5342 1491.34 66.3799C1491.53 66.2256 1491.74 66.1104 1491.98 66.041C1492.21 65.9717 1492.45 65.9497 1492.7 65.9762C1492.94 66.0027 1493.17 66.0772 1493.39 66.1954C1493.6 66.3136 1493.79 66.4731 1493.94 66.6645C1494.09 66.8559 1494.2 67.0755 1494.26 67.3103C1494.33 67.545 1494.34 67.7904 1494.31 68.0318C1494.02 70.747 1493.48 73.4294 1492.69 76.045C1492.59 76.4095 1492.37 76.7322 1492.08 76.9685C1491.78 77.2049 1491.42 77.3431 1491.04 77.3643L1491.03 77.3435ZM1734 62.2026C1733.68 62.2186 1733.37 62.1527 1733.09 62.0113C1732.8 61.87 1732.56 61.658 1732.39 61.3959C1730.97 59.2909 1729.44 57.197 1727.84 55.1772C1727.54 54.7961 1727.41 54.311 1727.46 53.8287C1727.52 53.3463 1727.76 52.9061 1728.15 52.605C1728.53 52.3039 1729.01 52.1664 1729.49 52.223C1729.98 52.2795 1730.42 52.5254 1730.72 52.9065C1732.37 54.9993 1733.96 57.169 1735.43 59.3525C1735.61 59.6215 1735.71 59.9338 1735.73 60.2574C1735.75 60.581 1735.69 60.9043 1735.54 61.1942C1735.4 61.4841 1735.18 61.7302 1734.91 61.9074C1734.64 62.0846 1734.32 62.1864 1734 62.2026V62.2026ZM1479.18 62.8616L1479.07 62.867C1476.36 62.8596 1473.66 62.6454 1470.98 62.2262C1470.5 62.1482 1470.07 61.883 1469.79 61.489C1469.51 61.0949 1469.39 60.6042 1469.47 60.1249C1469.55 59.6456 1469.81 59.2169 1470.2 58.9331C1470.6 58.6494 1471.09 58.5338 1471.57 58.6118C1474.06 59.0049 1476.57 59.2075 1479.1 59.2179C1479.58 59.2071 1480.05 59.3896 1480.4 59.7253C1480.75 60.061 1480.96 60.5224 1480.97 61.008C1480.98 61.4936 1480.8 61.9636 1480.46 62.3147C1480.12 62.6657 1479.66 62.869 1479.18 62.8799L1479.18 62.8616ZM1487.01 62.4443C1486.52 62.4825 1486.04 62.3268 1485.68 62.0114C1485.31 61.6961 1485.08 61.2469 1485.04 60.7626C1485 60.2784 1485.16 59.7988 1485.47 59.4294C1485.79 59.06 1486.24 58.8309 1486.72 58.7927C1488.02 58.6513 1489.37 58.4736 1490.74 58.2553C1490.56 56.3667 1490.27 54.4908 1489.87 52.6379C1489.8 52.3999 1489.79 52.1521 1489.83 51.9093C1489.87 51.6665 1489.95 51.4336 1490.08 51.2245C1490.21 51.0154 1490.38 50.8344 1490.58 50.6922C1490.78 50.5501 1491.01 50.4497 1491.25 50.397C1491.49 50.3444 1491.73 50.3405 1491.98 50.3857C1492.22 50.4309 1492.45 50.5242 1492.65 50.6601C1492.86 50.796 1493.03 50.9717 1493.17 51.1767C1493.3 51.3817 1493.39 51.6118 1493.44 51.8533C1493.86 53.7544 1494.16 55.6783 1494.36 57.6153C1494.83 57.5274 1495.33 57.6328 1495.73 57.9084C1496.13 58.1839 1496.4 58.607 1496.49 59.0846C1496.58 59.5621 1496.47 60.0551 1496.19 60.4549C1495.92 60.8547 1495.5 61.1288 1495.02 61.2167C1494.63 61.2938 1494.24 61.3657 1493.86 61.4374C1493.56 61.6797 1493.19 61.821 1492.81 61.841C1492.57 61.853 1492.34 61.8205 1492.11 61.7452C1490.4 62.0276 1488.73 62.258 1487.11 62.4337L1487.01 62.4443ZM1724.29 49.8935C1724.02 49.9075 1723.75 49.8621 1723.5 49.7605C1723.25 49.659 1723.03 49.5038 1722.85 49.3061C1721.13 47.4338 1719.31 45.5877 1717.43 43.8174C1717.08 43.4841 1716.87 43.0241 1716.86 42.5386C1716.84 42.0532 1717.02 41.582 1717.36 41.2288C1717.69 40.8755 1718.15 40.6692 1718.63 40.6551C1719.12 40.641 1719.59 40.8203 1719.94 41.1536C1721.87 42.9842 1723.76 44.8895 1725.54 46.8269C1725.78 47.0828 1725.93 47.4004 1726 47.7424C1726.06 48.0845 1726.02 48.4369 1725.89 48.7585C1725.76 49.0801 1725.54 49.3576 1725.25 49.5586C1724.97 49.7596 1724.64 49.8758 1724.29 49.8935V49.8935ZM1502.4 59.4788C1501.94 59.5014 1501.5 59.3557 1501.15 59.0699C1500.8 58.784 1500.57 58.3782 1500.5 57.9308C1500.43 57.4835 1500.53 57.0263 1500.77 56.6475C1501.02 56.2688 1501.4 55.9954 1501.84 55.88C1504.22 55.2366 1506.72 54.5111 1509.27 53.6942C1509.73 53.5459 1510.24 53.5874 1510.67 53.8096C1511.1 54.0317 1511.43 54.4162 1511.57 54.8786C1511.72 55.341 1511.68 55.8433 1511.46 56.2751C1511.24 56.7069 1510.85 57.0327 1510.39 57.181C1507.78 58.0166 1505.22 58.7712 1502.78 59.4178C1502.65 59.4536 1502.52 59.4751 1502.39 59.4818L1502.4 59.4788ZM1463.8 60.233C1463.55 60.2465 1463.3 60.2075 1463.06 60.1183C1460.93 59.3127 1458.88 58.3012 1456.94 57.0979C1456.54 56.8563 1456.14 56.5985 1455.76 56.3479C1455.55 56.2206 1455.37 56.0526 1455.23 55.8538C1455.09 55.6551 1454.98 55.4297 1454.93 55.1909C1454.88 54.9522 1454.87 54.7049 1454.91 54.4638C1454.96 54.2227 1455.05 53.9927 1455.18 53.7873C1455.31 53.5819 1455.49 53.4054 1455.69 53.2681C1455.89 53.1308 1456.12 53.0357 1456.36 52.9882C1456.6 52.9407 1456.85 52.942 1457.09 52.9918C1457.33 53.0416 1457.55 53.139 1457.75 53.2782C1458.12 53.515 1458.49 53.752 1458.87 53.9892C1460.61 55.0668 1462.45 55.9726 1464.36 56.6935C1464.75 56.8428 1465.08 57.1225 1465.29 57.4857C1465.5 57.8489 1465.58 58.2736 1465.52 58.6885C1465.45 59.1034 1465.24 59.4833 1464.93 59.7646C1464.62 60.0458 1464.22 60.2112 1463.8 60.233V60.233ZM1517.34 54.7156C1516.9 54.7376 1516.47 54.6018 1516.13 54.3329C1515.78 54.064 1515.54 53.6798 1515.46 53.2502C1515.37 52.8205 1515.44 52.374 1515.65 51.9917C1515.87 51.6094 1516.21 51.3167 1516.62 51.1668C1518.96 50.3109 1521.4 49.371 1523.89 48.3689C1524.11 48.2733 1524.35 48.2234 1524.6 48.222C1524.84 48.2207 1525.08 48.268 1525.31 48.3611C1525.53 48.4542 1525.73 48.5913 1525.91 48.7644C1526.08 48.9374 1526.21 49.143 1526.3 49.3689C1526.39 49.5948 1526.44 49.8367 1526.44 50.0802C1526.43 50.3237 1526.38 50.5641 1526.28 50.7872C1526.18 51.0103 1526.04 51.2117 1525.87 51.3795C1525.69 51.5473 1525.48 51.6783 1525.25 51.7646C1522.74 52.7816 1520.25 53.7365 1517.88 54.6048C1517.7 54.6699 1517.52 54.7083 1517.33 54.7186L1517.34 54.7156ZM1531.9 48.8668C1531.47 48.8894 1531.05 48.7604 1530.71 48.5024C1530.36 48.2444 1530.12 47.8737 1530.02 47.4554C1529.93 47.037 1529.98 46.5976 1530.17 46.214C1530.36 45.8304 1530.69 45.5271 1531.08 45.3571C1533.37 44.3648 1535.77 43.2884 1538.21 42.1758C1538.43 42.0704 1538.67 42.0098 1538.91 41.9974C1539.15 41.985 1539.4 42.0212 1539.63 42.1037C1539.85 42.1863 1540.06 42.3136 1540.24 42.4782C1540.42 42.6428 1540.57 42.8414 1540.67 43.0625C1540.77 43.2835 1540.83 43.5226 1540.83 43.7656C1540.84 44.0087 1540.8 44.2509 1540.71 44.4782C1540.63 44.7054 1540.5 44.9131 1540.33 45.0891C1540.16 45.2651 1539.96 45.4059 1539.74 45.5033C1537.27 46.6327 1534.85 47.7155 1532.54 48.7169C1532.33 48.8075 1532.12 48.8593 1531.89 48.8698L1531.9 48.8668ZM1712.89 39.1252C1712.44 39.1482 1711.99 39.0008 1711.64 38.7117C1709.67 37.0901 1707.61 35.5098 1705.52 33.9968C1705.32 33.8563 1705.16 33.6788 1705.03 33.4743C1704.91 33.2699 1704.82 33.0425 1704.78 32.8051C1704.74 32.5678 1704.75 32.3252 1704.81 32.0911C1704.86 31.8571 1704.96 31.6361 1705.1 31.441C1705.24 31.2458 1705.42 31.0802 1705.63 30.9537C1705.83 30.8271 1706.06 30.7421 1706.29 30.7034C1706.77 30.6253 1707.26 30.7408 1707.66 31.0245C1709.83 32.5781 1711.94 34.2135 1713.96 35.8844C1714.25 36.1193 1714.46 36.4349 1714.56 36.7896C1714.66 37.1444 1714.65 37.5218 1714.54 37.8723C1714.42 38.2228 1714.2 38.53 1713.91 38.7536C1713.62 38.9772 1713.26 39.1067 1712.89 39.1252V39.1252ZM1450.57 51.9451C1450.09 51.9692 1449.63 51.8047 1449.27 51.487C1446.85 49.3381 1445.02 47.178 1443.83 45.067C1443.71 44.8572 1443.62 44.6241 1443.59 44.3815C1443.55 44.1388 1443.57 43.8916 1443.63 43.6545C1443.69 43.4173 1443.8 43.1951 1443.95 43.001C1444.1 42.8069 1444.29 42.6448 1444.5 42.5244C1444.71 42.4041 1444.95 42.3278 1445.19 42.3002C1445.44 42.2726 1445.68 42.2942 1445.92 42.3638C1446.15 42.4333 1446.37 42.5494 1446.56 42.7051C1446.75 42.8608 1446.91 43.0529 1447.02 43.2701C1448.01 45.0272 1449.59 46.8727 1451.7 48.7488C1451.97 48.9901 1452.16 49.3071 1452.26 49.6594C1452.35 50.0117 1452.33 50.3832 1452.21 50.7265C1452.09 51.0698 1451.87 51.3693 1451.58 51.5868C1451.29 51.8044 1450.94 51.93 1450.57 51.9477L1450.57 51.9451ZM1489.4 46.5887C1489.02 46.6077 1488.65 46.5097 1488.33 46.3082C1488.01 46.1068 1487.76 45.8116 1487.62 45.4633C1486.68 43.1698 1485.48 40.9913 1484.05 38.9705C1483.91 38.7753 1483.81 38.5544 1483.75 38.3204C1483.7 38.0863 1483.69 37.8437 1483.73 37.6064C1483.77 37.3691 1483.85 37.1417 1483.98 36.9372C1484.1 36.7327 1484.27 36.5552 1484.46 36.4147C1484.66 36.2742 1484.88 36.1736 1485.11 36.1184C1485.35 36.0633 1485.59 36.0549 1485.83 36.0935C1486.06 36.1322 1486.29 36.2172 1486.5 36.3437C1486.7 36.4702 1486.88 36.6358 1487.02 36.8309C1488.62 39.0795 1489.95 41.5042 1491 44.0574C1491.11 44.3284 1491.16 44.6225 1491.13 44.9149C1491.11 45.2074 1491.01 45.4896 1490.85 45.7378C1490.7 45.9859 1490.48 46.1928 1490.23 46.3409C1489.98 46.489 1489.69 46.574 1489.4 46.5887V46.5887ZM1546.16 42.3311C1545.74 42.3532 1545.32 42.2281 1544.98 41.9769C1544.64 41.7258 1544.4 41.3643 1544.29 40.9539C1544.19 40.5435 1544.23 40.1096 1544.41 39.7262C1544.59 39.3427 1544.9 39.0334 1545.28 38.8509C1547.52 37.7774 1549.88 36.6242 1552.31 35.4231C1552.74 35.2075 1553.25 35.1735 1553.71 35.3287C1554.17 35.4838 1554.55 35.8154 1554.76 36.2504C1554.98 36.6854 1555.01 37.1883 1554.86 37.6484C1554.7 38.1085 1554.37 38.4881 1553.94 38.7037C1551.49 39.9133 1549.11 41.0751 1546.86 42.152C1546.64 42.26 1546.41 42.3236 1546.16 42.339L1546.16 42.3311ZM1700.17 29.9504C1699.79 29.9681 1699.42 29.8706 1699.11 29.6712C1696.94 28.3082 1694.7 26.9913 1692.44 25.7563C1692.23 25.6409 1692.04 25.4851 1691.89 25.2977C1691.74 25.1103 1691.63 24.8951 1691.56 24.6644C1691.43 24.1983 1691.48 23.6971 1691.71 23.2712C1691.95 22.8452 1692.34 22.5292 1692.8 22.3929C1693.27 22.2565 1693.77 22.3108 1694.2 22.544C1696.52 23.8151 1698.83 25.1706 1701.06 26.5722C1701.38 26.7793 1701.64 27.0856 1701.78 27.447C1701.93 27.8083 1701.95 28.2059 1701.85 28.5821C1701.75 28.9584 1701.54 29.2937 1701.24 29.5396C1700.94 29.7855 1700.57 29.9292 1700.18 29.9498L1700.17 29.9504ZM1560.23 35.3785C1559.81 35.3991 1559.4 35.2755 1559.06 35.0283C1558.72 34.7812 1558.48 34.4254 1558.37 34.0205C1558.26 33.6156 1558.3 33.186 1558.47 32.8034C1558.64 32.4209 1558.93 32.1085 1559.31 31.9184C1561.49 30.8111 1563.77 29.649 1566.29 28.3437C1566.72 28.121 1567.23 28.0788 1567.69 28.2264C1568.15 28.3741 1568.54 28.6995 1568.76 29.131C1568.98 29.5626 1569.02 30.0649 1568.88 30.5276C1568.73 30.9902 1568.4 31.3753 1567.97 31.598C1565.45 32.8978 1563.16 34.0708 1560.98 35.1811C1560.74 35.3004 1560.49 35.3678 1560.23 35.3785V35.3785ZM1444.51 38.4787C1444.2 38.494 1443.9 38.4341 1443.63 38.3042C1443.36 38.1744 1443.12 37.9787 1442.94 37.7347C1442.76 37.4907 1442.64 37.206 1442.6 36.9062C1442.56 36.6063 1442.59 36.3006 1442.7 36.0165C1443.65 33.4312 1445.81 31.1991 1448.93 29.5596C1449.15 29.4411 1449.38 29.3666 1449.63 29.3403C1449.87 29.314 1450.11 29.3366 1450.35 29.4066C1450.58 29.4767 1450.8 29.5928 1450.99 29.7482C1451.18 29.9036 1451.33 30.0951 1451.44 30.3114C1451.56 30.5277 1451.63 30.7645 1451.65 31.0078C1451.67 31.2511 1451.64 31.4961 1451.56 31.7282C1451.49 31.9603 1451.37 32.175 1451.21 32.3595C1451.05 32.544 1450.85 32.6946 1450.63 32.8026C1448.32 34.0133 1446.77 35.5632 1446.13 37.2814C1446.01 37.6185 1445.79 37.9117 1445.5 38.1246C1445.21 38.3375 1444.87 38.4606 1444.51 38.4787V38.4787ZM1480.12 34.2058C1479.72 34.2258 1479.32 34.1132 1478.99 33.8854C1477.73 33.0071 1476.34 32.3345 1474.87 31.8927C1474.06 31.656 1473.23 31.4515 1472.4 31.2497C1472.16 31.2012 1471.94 31.1052 1471.73 30.9676C1471.53 30.8299 1471.36 30.6532 1471.23 30.448C1471.1 30.2428 1471.01 30.0132 1470.96 29.7727C1470.92 29.5321 1470.93 29.2856 1470.98 29.0475C1471.04 28.8094 1471.14 28.5847 1471.28 28.3864C1471.42 28.1882 1471.6 28.0205 1471.81 27.8932C1472.02 27.7659 1472.25 27.6816 1472.49 27.6452C1472.73 27.6088 1472.98 27.6212 1473.22 27.6814C1474.12 27.898 1475.02 28.1146 1475.9 28.3792C1477.74 28.9296 1479.49 29.7701 1481.07 30.8691C1481.38 31.0862 1481.62 31.3967 1481.75 31.757C1481.88 32.1173 1481.89 32.5092 1481.79 32.8775C1481.68 33.2459 1481.47 33.5721 1481.17 33.8104C1480.87 34.0487 1480.5 34.1869 1480.12 34.2058V34.2058ZM1574.18 28.1856C1573.76 28.2069 1573.35 28.085 1573.01 27.84C1572.67 27.595 1572.43 27.2417 1572.32 26.8387C1572.21 26.4358 1572.24 26.0073 1572.41 25.6246C1572.57 25.2418 1572.87 24.9277 1573.24 24.7344L1578.01 22.2423L1580.19 21.101C1580.62 20.8762 1581.12 20.8317 1581.59 20.9773C1582.05 21.123 1582.44 21.4468 1582.66 21.8775C1582.89 22.3083 1582.93 22.8107 1582.79 23.2742C1582.64 23.7378 1582.32 24.1245 1581.89 24.3493L1579.71 25.4854L1574.93 27.9803C1574.7 28.1019 1574.44 28.1719 1574.18 28.1856V28.1856ZM1686.41 22.4299C1686.11 22.445 1685.82 22.3863 1685.54 22.2589C1683.23 21.163 1680.84 20.123 1678.46 19.1666C1678.22 19.0831 1678.01 18.9539 1677.83 18.7868C1677.65 18.6197 1677.51 18.418 1677.41 18.1938C1677.31 17.9695 1677.25 17.7274 1677.25 17.4817C1677.24 17.236 1677.29 16.9918 1677.38 16.7637C1677.47 16.5356 1677.61 16.3283 1677.78 16.154C1677.95 15.9797 1678.16 15.8421 1678.39 15.7494C1678.61 15.6566 1678.86 15.6107 1679.1 15.6142C1679.35 15.6177 1679.59 15.6707 1679.82 15.7699C1682.27 16.7517 1684.72 17.8199 1687.11 18.9464C1687.48 19.1193 1687.78 19.4119 1687.97 19.7774C1688.15 20.1429 1688.21 20.56 1688.13 20.9621C1688.05 21.3641 1687.84 21.7278 1687.53 21.9949C1687.22 22.2619 1686.82 22.4169 1686.41 22.4351L1686.41 22.4299ZM1457.32 30.6593C1456.84 30.7104 1456.35 30.5672 1455.98 30.2614C1455.6 29.9555 1455.36 29.512 1455.31 29.0284C1455.26 28.5448 1455.4 28.0608 1455.7 27.6827C1456.01 27.3047 1456.45 27.0637 1456.94 27.0126C1459.65 26.5843 1462.39 26.4349 1465.13 26.5666C1465.37 26.5774 1465.61 26.6354 1465.82 26.7373C1466.04 26.8392 1466.24 26.983 1466.4 27.1605C1466.56 27.338 1466.69 27.5457 1466.77 27.7718C1466.85 27.9979 1466.89 28.2379 1466.88 28.4781C1466.87 28.7183 1466.81 28.9541 1466.71 29.1719C1466.6 29.3897 1466.46 29.5853 1466.28 29.7475C1466.11 29.9098 1465.9 30.0355 1465.67 30.1174C1465.45 30.1994 1465.21 30.236 1464.97 30.2252C1462.48 30.1045 1459.99 30.2386 1457.53 30.6255C1457.46 30.6406 1457.39 30.6519 1457.32 30.6593V30.6593ZM1588.09 20.9419C1587.67 20.9706 1587.25 20.8518 1586.91 20.6058C1586.56 20.3597 1586.31 20.0017 1586.2 19.5927C1586.09 19.1837 1586.13 18.749 1586.3 18.3628C1586.48 17.9766 1586.78 17.6628 1587.16 17.4748L1589.56 16.2333C1591.09 15.4389 1592.7 14.6769 1594.31 13.9754C1594.76 13.7815 1595.26 13.7724 1595.71 13.95C1596.16 14.1277 1596.53 14.4776 1596.72 14.9227C1596.91 15.3679 1596.92 15.8718 1596.74 16.3237C1596.57 16.7756 1596.22 17.1384 1595.77 17.3323C1594.24 18.0014 1592.7 18.7279 1591.24 19.4877L1588.84 20.7264C1588.61 20.8477 1588.35 20.9177 1588.09 20.9315L1588.09 20.9419ZM1671.86 16.6044C1671.64 16.615 1671.41 16.5838 1671.19 16.5124C1668.75 15.6976 1666.26 14.9482 1663.79 14.2819C1663.55 14.22 1663.34 14.1127 1663.15 13.9663C1662.95 13.8199 1662.79 13.6373 1662.67 13.4287C1662.55 13.2202 1662.47 12.99 1662.44 12.7512C1662.41 12.5124 1662.43 12.2698 1662.49 12.0372C1662.55 11.8046 1662.66 11.5867 1662.81 11.3958C1662.95 11.205 1663.14 11.045 1663.35 10.9251C1663.55 10.8051 1663.79 10.7276 1664.02 10.6969C1664.26 10.6662 1664.51 10.6829 1664.74 10.7461C1667.28 11.4299 1669.84 12.2019 1672.35 13.0395C1672.76 13.1746 1673.1 13.447 1673.33 13.8094C1673.55 14.1719 1673.64 14.6017 1673.59 15.0245C1673.53 15.4474 1673.32 15.8367 1673.01 16.1251C1672.69 16.4136 1672.29 16.5831 1671.86 16.6044V16.6044ZM1656.72 12.529C1656.57 12.537 1656.41 12.5254 1656.26 12.4945C1653.74 11.9801 1651.17 11.5381 1648.65 11.1859C1648.41 11.1527 1648.18 11.0727 1647.97 10.9507C1647.76 10.8286 1647.58 10.6668 1647.43 10.4745C1647.29 10.2821 1647.18 10.063 1647.12 9.82973C1647.06 9.59642 1647.05 9.35344 1647.08 9.11466C1647.11 8.87588 1647.19 8.64599 1647.32 8.4381C1647.44 8.23021 1647.6 8.0484 1647.79 7.90305C1647.98 7.7577 1648.2 7.65166 1648.44 7.59097C1648.67 7.53029 1648.91 7.51615 1649.15 7.54937C1651.75 7.911 1654.39 8.36482 1656.99 8.89649C1657.43 8.98551 1657.82 9.23068 1658.09 9.58605C1658.36 9.94141 1658.49 10.3826 1658.45 10.8269C1658.42 11.2712 1658.23 11.6881 1657.91 11.9995C1657.59 12.311 1657.17 12.4955 1656.72 12.5186L1656.72 12.529ZM1602.46 14.6969C1602.02 14.718 1601.58 14.5776 1601.24 14.3016C1600.89 14.0257 1600.65 13.6329 1600.57 13.1965C1600.49 12.7601 1600.58 12.3096 1600.8 11.9288C1601.03 11.548 1601.39 11.2629 1601.81 11.1263C1604.31 10.3094 1606.9 9.58718 1609.52 8.97894C1609.99 8.87341 1610.49 8.95857 1610.9 9.21585C1611.3 9.47314 1611.59 9.88169 1611.7 10.3524C1611.81 10.8232 1611.73 11.3179 1611.48 11.7288C1611.22 12.1397 1610.82 12.4334 1610.35 12.5459C1607.83 13.1279 1605.35 13.8238 1602.95 14.6067C1602.79 14.659 1602.63 14.6893 1602.46 14.6969V14.6969ZM1641.19 10.3717C1641.12 10.3755 1641.04 10.374 1640.97 10.3674C1638.39 10.1801 1635.8 10.0775 1633.26 10.0664C1633.02 10.0653 1632.78 10.0167 1632.56 9.92351C1632.33 9.83031 1632.13 9.69431 1631.96 9.52325C1631.79 9.35219 1631.66 9.14943 1631.57 8.92654C1631.48 8.70366 1631.43 8.46502 1631.43 8.22424C1631.43 7.98347 1631.48 7.74528 1631.58 7.52327C1631.67 7.30125 1631.8 7.09977 1631.98 6.93032C1632.15 6.76087 1632.35 6.62678 1632.57 6.53569C1632.79 6.4446 1633.03 6.3983 1633.27 6.39944C1635.89 6.41183 1638.57 6.51523 1641.24 6.71137C1641.72 6.71679 1642.19 6.91521 1642.53 7.263C1642.87 7.61078 1643.05 8.07943 1643.05 8.56586C1643.04 9.05228 1642.85 9.51663 1642.5 9.85675C1642.15 10.1969 1641.68 10.3849 1641.2 10.3795L1641.19 10.3717ZM1617.72 11.1409C1617.48 11.1641 1617.24 11.14 1617.01 11.0697C1616.78 10.9995 1616.56 10.8846 1616.38 10.7317C1616.19 10.5787 1616.04 10.3906 1615.92 10.1782C1615.81 9.96575 1615.74 9.73311 1615.72 9.49356C1615.69 9.25401 1615.72 9.01223 1615.79 8.78203C1615.86 8.55183 1615.97 8.33772 1616.13 8.15191C1616.28 7.96611 1616.47 7.81225 1616.68 7.69913C1616.89 7.58601 1617.12 7.51584 1617.36 7.49263C1619.96 7.12131 1622.63 6.83513 1625.3 6.65355C1625.79 6.62087 1626.26 6.78199 1626.63 7.10148C1627 7.42097 1627.22 7.87265 1627.25 8.35716C1627.28 8.84167 1627.12 9.31932 1626.8 9.68503C1626.49 10.0507 1626.03 10.2746 1625.55 10.3072C1622.97 10.4813 1620.39 10.7576 1617.9 11.1242C1617.84 11.1324 1617.78 11.1379 1617.72 11.1409V11.1409Z" fill="white"/>
<path d="M1734.92 49.5265L1729.49 59.5199L1782.19 91.7348L1734.92 49.5265Z" fill="#BDCDFF"/>
<path d="M1724.82 71.4232L1728.47 82.3901L1779.84 90.2449L1724.82 71.4232Z" fill="#BDCDFF"/>
<path d="M1782.19 91.7348L1694.8 66.7556L1723.99 54.8055L1782.19 91.7348Z" fill="white"/>
<path d="M1734.92 49.5266L1782.19 91.7349L1753.2 40.6993L1734.92 49.5266Z" fill="white"/>
</g>
<g opacity="0.2">
<path d="M562.104 410.779L562.181 410.783C562.376 410.783 562.57 410.744 562.75 410.669C562.931 410.594 563.095 410.484 563.233 410.346C563.371 410.207 563.481 410.043 563.555 409.862C563.63 409.681 563.668 409.487 563.668 409.291C563.637 407.04 563.36 404.8 562.841 402.609C562.796 402.418 562.715 402.238 562.601 402.079C562.487 401.92 562.343 401.785 562.177 401.682C562.012 401.578 561.827 401.509 561.634 401.477C561.441 401.445 561.244 401.451 561.054 401.496C560.864 401.54 560.684 401.622 560.525 401.736C560.367 401.85 560.232 401.994 560.129 402.16C560.026 402.326 559.956 402.511 559.924 402.704C559.893 402.897 559.899 403.095 559.943 403.285C560.411 405.254 560.663 407.267 560.694 409.29C560.694 409.672 560.84 410.04 561.103 410.316C561.365 410.593 561.724 410.759 562.104 410.779V410.779ZM559.239 398.401C559.495 398.414 559.75 398.36 559.98 398.245C560.209 398.129 560.405 397.956 560.547 397.743C560.69 397.529 560.775 397.282 560.795 397.026C560.814 396.77 560.767 396.513 560.658 396.28C559.702 394.246 558.513 392.33 557.114 390.571C556.993 390.415 556.843 390.285 556.671 390.189C556.5 390.092 556.311 390.03 556.116 390.007C555.92 389.984 555.722 389.999 555.533 390.053C555.344 390.107 555.167 390.199 555.013 390.322C554.859 390.444 554.731 390.597 554.637 390.77C554.542 390.942 554.483 391.132 554.462 391.328C554.441 391.524 554.459 391.723 554.516 391.912C554.572 392.1 554.665 392.276 554.79 392.429C556.041 394.006 557.105 395.724 557.958 397.548C558.074 397.794 558.254 398.003 558.479 398.154C558.704 398.305 558.966 398.391 559.237 398.403L559.239 398.401ZM551.351 388.528C551.667 388.544 551.98 388.458 552.244 388.283C552.508 388.109 552.709 387.854 552.819 387.557C552.929 387.26 552.941 386.935 552.854 386.631C552.767 386.326 552.586 386.057 552.335 385.863C550.565 384.501 548.653 383.337 546.631 382.391C546.454 382.307 546.263 382.26 546.068 382.25C545.873 382.241 545.678 382.27 545.494 382.337C545.31 382.403 545.141 382.505 544.997 382.636C544.852 382.768 544.735 382.927 544.652 383.104C544.569 383.281 544.521 383.472 544.512 383.668C544.503 383.863 544.532 384.059 544.598 384.243C544.665 384.427 544.766 384.596 544.898 384.741C545.029 384.886 545.188 385.003 545.364 385.086C547.193 385.94 548.924 386.991 550.526 388.22C550.763 388.405 551.05 388.513 551.349 388.53L551.351 388.528ZM539.95 383.051C540.318 383.07 540.679 382.952 540.965 382.72C541.251 382.488 541.441 382.158 541.498 381.793C541.555 381.429 541.475 381.056 541.273 380.748C541.072 380.439 540.763 380.216 540.407 380.122C538.288 379.562 536.133 379.149 533.957 378.886C533.564 378.838 533.169 378.948 532.857 379.192C532.546 379.436 532.344 379.794 532.296 380.188C532.248 380.581 532.358 380.977 532.602 381.289C532.846 381.601 533.203 381.804 533.596 381.852C535.634 382.097 537.653 382.484 539.637 383.009C539.738 383.038 539.842 383.055 539.947 383.061L539.95 383.051ZM522.49 381.393C523.413 381.44 524.368 381.456 525.324 381.44C526.024 381.429 526.724 381.428 527.407 381.437C527.602 381.439 527.796 381.404 527.978 381.331C528.159 381.259 528.325 381.151 528.465 381.015C528.605 380.878 528.717 380.715 528.794 380.536C528.871 380.356 528.912 380.163 528.915 379.967C528.918 379.771 528.882 379.577 528.81 379.395C528.737 379.213 528.63 379.047 528.494 378.907C528.357 378.766 528.195 378.654 528.015 378.577C527.836 378.499 527.643 378.458 527.447 378.455C526.735 378.445 526.003 378.446 525.273 378.458C523.911 378.483 522.548 378.435 521.191 378.314C520.997 378.296 520.8 378.317 520.614 378.375C520.427 378.433 520.254 378.528 520.103 378.653C519.953 378.778 519.829 378.932 519.738 379.105C519.647 379.279 519.592 379.468 519.574 379.663C519.556 379.858 519.577 380.055 519.635 380.242C519.693 380.429 519.788 380.603 519.913 380.753C520.038 380.904 520.191 381.028 520.364 381.119C520.537 381.21 520.727 381.266 520.921 381.284C521.433 381.34 521.961 381.377 522.488 381.403L522.49 381.393ZM514.736 380.102C515.1 380.121 515.457 380.006 515.742 379.778C516.026 379.55 516.217 379.226 516.279 378.867C516.34 378.508 516.268 378.139 516.077 377.829C515.885 377.519 515.586 377.291 515.238 377.186C513.318 376.616 511.475 375.811 509.752 374.789C509.583 374.688 509.396 374.622 509.201 374.594C509.006 374.566 508.808 374.577 508.617 374.626C508.427 374.674 508.248 374.76 508.091 374.878C507.933 374.996 507.801 375.144 507.7 375.314C507.6 375.483 507.534 375.671 507.506 375.866C507.478 376.061 507.489 376.259 507.538 376.45C507.587 376.641 507.672 376.821 507.79 376.978C507.908 377.136 508.056 377.269 508.225 377.369C510.159 378.517 512.226 379.422 514.381 380.063C514.496 380.094 514.615 380.11 514.734 380.113L514.736 380.102ZM503.945 373.59C504.242 373.605 504.537 373.53 504.792 373.376C505.046 373.221 505.249 372.993 505.373 372.722C505.496 372.45 505.536 372.148 505.486 371.854C505.437 371.559 505.3 371.287 505.094 371.071C503.712 369.621 502.52 368.001 501.546 366.25C501.45 366.08 501.32 365.929 501.166 365.808C501.011 365.687 500.834 365.598 500.645 365.546C500.456 365.493 500.259 365.478 500.064 365.502C499.87 365.526 499.682 365.588 499.511 365.685C499.34 365.782 499.19 365.911 499.07 366.066C498.949 366.221 498.86 366.398 498.807 366.588C498.755 366.777 498.741 366.975 498.765 367.17C498.788 367.365 498.851 367.553 498.947 367.724C500.044 369.694 501.386 371.517 502.941 373.149C503.204 373.424 503.562 373.588 503.942 373.607L503.945 373.59ZM497.7 362.595C497.938 362.607 498.175 362.562 498.392 362.463C498.609 362.363 498.799 362.213 498.946 362.025C499.093 361.837 499.192 361.616 499.236 361.382C499.28 361.147 499.267 360.905 499.198 360.676C498.613 358.723 498.209 356.72 497.991 354.693C497.973 354.495 497.917 354.304 497.824 354.128C497.732 353.953 497.605 353.798 497.452 353.673C497.299 353.547 497.123 353.453 496.933 353.397C496.743 353.34 496.544 353.322 496.348 353.344C496.151 353.365 495.961 353.426 495.788 353.522C495.615 353.618 495.463 353.748 495.34 353.904C495.218 354.06 495.128 354.238 495.076 354.429C495.023 354.62 495.009 354.82 495.035 355.017C495.272 357.226 495.713 359.41 496.351 361.538C496.436 361.835 496.612 362.098 496.853 362.29C497.094 362.482 497.389 362.595 497.697 362.612L497.7 362.595ZM300.227 350.241C300.483 350.254 300.739 350.2 300.968 350.085C301.197 349.97 301.393 349.798 301.536 349.584C302.686 347.871 303.928 346.168 305.228 344.524C305.472 344.214 305.584 343.819 305.538 343.427C305.492 343.034 305.292 342.676 304.982 342.431C304.673 342.185 304.279 342.074 303.887 342.12C303.495 342.165 303.137 342.365 302.893 342.676C301.548 344.379 300.26 346.144 299.067 347.921C298.92 348.14 298.834 348.394 298.817 348.657C298.8 348.921 298.853 349.184 298.971 349.42C299.089 349.656 299.268 349.856 299.489 350C299.709 350.145 299.964 350.228 300.227 350.241V350.241ZM507.335 350.811L507.422 350.815C509.624 350.81 511.822 350.636 513.997 350.295C514.386 350.232 514.734 350.016 514.965 349.695C515.195 349.374 515.289 348.975 515.226 348.585C515.162 348.195 514.947 347.846 514.627 347.615C514.306 347.384 513.908 347.29 513.518 347.353C511.495 347.673 509.45 347.837 507.401 347.846C507.006 347.837 506.624 347.985 506.339 348.258C506.054 348.531 505.889 348.907 505.88 349.302C505.871 349.697 506.02 350.08 506.293 350.366C506.565 350.651 506.94 350.817 507.335 350.826L507.335 350.811ZM500.97 350.47C501.364 350.501 501.753 350.375 502.053 350.118C502.353 349.862 502.539 349.496 502.57 349.102C502.601 348.708 502.475 348.317 502.219 348.017C501.962 347.716 501.597 347.53 501.204 347.498C500.146 347.383 499.051 347.238 497.935 347.061C498.079 345.524 498.317 343.997 498.647 342.489C498.696 342.295 498.706 342.094 498.676 341.896C498.646 341.698 498.576 341.509 498.471 341.339C498.367 341.169 498.229 341.021 498.066 340.905C497.903 340.79 497.719 340.708 497.524 340.665C497.329 340.622 497.128 340.619 496.931 340.656C496.735 340.693 496.549 340.769 496.382 340.879C496.216 340.99 496.074 341.133 495.964 341.299C495.854 341.466 495.779 341.653 495.743 341.85C495.403 343.397 495.154 344.963 494.997 346.539C494.609 346.468 494.209 346.553 493.884 346.778C493.559 347.002 493.337 347.346 493.265 347.735C493.194 348.123 493.28 348.525 493.504 348.85C493.728 349.175 494.071 349.398 494.459 349.47C494.775 349.533 495.091 349.592 495.403 349.65C495.645 349.847 495.943 349.962 496.255 349.978C496.447 349.988 496.64 349.962 496.823 349.901C498.213 350.131 499.567 350.318 500.883 350.462L500.97 350.47ZM308.117 340.224C308.335 340.236 308.553 340.199 308.756 340.116C308.958 340.034 309.14 339.907 309.288 339.746C310.685 338.223 312.166 336.721 313.689 335.28C313.976 335.009 314.144 334.635 314.155 334.24C314.167 333.845 314.021 333.461 313.75 333.174C313.479 332.886 313.106 332.718 312.711 332.707C312.317 332.695 311.934 332.841 311.647 333.112C310.083 334.602 308.542 336.152 307.097 337.728C306.906 337.937 306.779 338.195 306.729 338.474C306.679 338.752 306.71 339.039 306.816 339.3C306.923 339.562 307.102 339.788 307.333 339.952C307.563 340.115 307.835 340.21 308.117 340.224V340.224ZM488.463 348.055C488.83 348.073 489.191 347.955 489.476 347.722C489.761 347.489 489.95 347.159 490.007 346.795C490.063 346.431 489.983 346.059 489.781 345.751C489.58 345.443 489.271 345.22 488.916 345.126C486.98 344.602 484.946 344.011 482.873 343.346C482.498 343.225 482.09 343.259 481.739 343.44C481.388 343.621 481.123 343.933 481.003 344.31C480.883 344.686 480.916 345.095 481.097 345.446C481.277 345.798 481.59 346.063 481.966 346.184C484.087 346.864 486.168 347.479 488.155 348.005C488.257 348.034 488.363 348.052 488.469 348.057L488.463 348.055ZM519.83 348.674C520.035 348.685 520.239 348.653 520.431 348.58C522.166 347.925 523.833 347.102 525.409 346.123C525.735 345.927 526.054 345.717 526.364 345.513C526.534 345.409 526.682 345.273 526.798 345.111C526.914 344.949 526.997 344.766 527.041 344.571C527.085 344.377 527.09 344.176 527.055 343.98C527.02 343.783 526.947 343.596 526.838 343.429C526.73 343.262 526.589 343.118 526.424 343.006C526.26 342.895 526.074 342.817 525.879 342.779C525.684 342.74 525.483 342.741 525.288 342.781C525.093 342.822 524.909 342.901 524.745 343.014C524.452 343.207 524.149 343.4 523.835 343.593C522.425 344.47 520.932 345.207 519.379 345.793C519.06 345.914 518.792 346.142 518.621 346.438C518.45 346.733 518.385 347.079 518.438 347.416C518.491 347.754 518.658 348.063 518.912 348.292C519.165 348.521 519.49 348.656 519.83 348.674V348.674ZM476.316 344.176C476.671 344.194 477.022 344.084 477.303 343.865C477.584 343.646 477.777 343.334 477.848 342.984C477.918 342.634 477.861 342.271 477.687 341.96C477.513 341.649 477.233 341.41 476.898 341.288C474.999 340.591 473.012 339.826 470.994 339.01C470.812 338.932 470.616 338.892 470.418 338.891C470.22 338.889 470.024 338.928 469.842 339.004C469.659 339.079 469.493 339.191 469.354 339.332C469.214 339.473 469.105 339.64 469.031 339.824C468.957 340.008 468.92 340.204 468.923 340.403C468.926 340.601 468.969 340.796 469.048 340.978C469.128 341.16 469.242 341.324 469.386 341.46C469.529 341.597 469.698 341.703 469.883 341.774C471.931 342.602 473.949 343.379 475.878 344.086C476.02 344.139 476.17 344.17 476.322 344.179L476.316 344.176ZM464.481 339.414C464.829 339.433 465.173 339.328 465.452 339.118C465.731 338.908 465.928 338.606 466.007 338.266C466.087 337.925 466.044 337.568 465.887 337.256C465.73 336.943 465.468 336.697 465.147 336.558C463.286 335.75 461.336 334.874 459.352 333.968C459.174 333.882 458.98 333.833 458.783 333.823C458.586 333.813 458.388 333.842 458.203 333.909C458.017 333.976 457.846 334.08 457.701 334.214C457.555 334.348 457.438 334.51 457.356 334.689C457.273 334.869 457.228 335.064 457.221 335.262C457.215 335.459 457.248 335.657 457.318 335.842C457.388 336.026 457.495 336.196 457.631 336.339C457.768 336.482 457.931 336.597 458.112 336.676C460.115 337.595 462.083 338.477 463.964 339.292C464.129 339.366 464.306 339.408 464.487 339.417L464.481 339.414ZM317.378 331.462C317.748 331.481 318.111 331.361 318.397 331.126C319.995 329.806 321.667 328.521 323.369 327.289C323.528 327.175 323.662 327.031 323.765 326.864C323.868 326.698 323.937 326.513 323.968 326.32C324 326.127 323.993 325.929 323.948 325.739C323.903 325.548 323.821 325.368 323.707 325.21C323.593 325.051 323.449 324.916 323.283 324.813C323.117 324.71 322.932 324.641 322.739 324.609C322.35 324.545 321.951 324.639 321.631 324.87C319.866 326.134 318.152 327.465 316.506 328.825C316.274 329.016 316.106 329.273 316.023 329.561C315.94 329.85 315.946 330.157 316.04 330.442C316.135 330.728 316.313 330.978 316.552 331.16C316.79 331.342 317.078 331.447 317.378 331.462V331.462ZM530.582 341.93C530.97 341.95 531.351 341.816 531.643 341.558C533.607 339.809 535.092 338.052 536.059 336.334C536.162 336.163 536.23 335.973 536.258 335.776C536.287 335.578 536.276 335.377 536.225 335.184C536.174 334.991 536.086 334.81 535.964 334.652C535.842 334.494 535.69 334.362 535.517 334.264C535.343 334.166 535.152 334.104 534.954 334.082C534.756 334.059 534.555 334.077 534.364 334.133C534.173 334.19 533.996 334.284 533.842 334.411C533.688 334.538 533.561 334.694 533.469 334.871C532.663 336.301 531.384 337.802 529.667 339.329C529.446 339.525 529.288 339.783 529.214 340.07C529.14 340.357 529.153 340.659 529.251 340.938C529.349 341.218 529.528 341.462 529.765 341.639C530.002 341.816 530.286 341.918 530.582 341.933L530.582 341.93ZM499.025 337.566C499.331 337.582 499.634 337.502 499.894 337.338C500.153 337.174 500.355 336.934 500.473 336.65C501.235 334.784 502.208 333.011 503.373 331.367C503.487 331.208 503.569 331.028 503.614 330.838C503.658 330.647 503.665 330.45 503.634 330.257C503.602 330.063 503.533 329.878 503.43 329.712C503.328 329.546 503.193 329.401 503.035 329.287C502.876 329.172 502.697 329.09 502.506 329.045C502.316 329.001 502.119 328.994 501.926 329.025C501.734 329.057 501.549 329.126 501.383 329.229C501.217 329.332 501.072 329.466 500.958 329.625C499.66 331.455 498.575 333.428 497.726 335.506C497.634 335.726 497.597 335.966 497.617 336.204C497.638 336.442 497.715 336.671 497.842 336.873C497.969 337.075 498.143 337.244 498.349 337.364C498.555 337.485 498.787 337.554 499.025 337.566V337.566ZM452.889 334.093C453.232 334.112 453.572 334.01 453.848 333.805C454.125 333.601 454.323 333.307 454.408 332.973C454.493 332.639 454.459 332.286 454.313 331.974C454.167 331.662 453.918 331.41 453.607 331.261C451.789 330.387 449.868 329.449 447.892 328.471C447.539 328.295 447.13 328.267 446.756 328.394C446.383 328.52 446.074 328.79 445.899 329.144C445.724 329.498 445.696 329.907 445.822 330.281C445.949 330.656 446.218 330.965 446.571 331.14C448.558 332.125 450.491 333.071 452.322 333.948C452.499 334.036 452.691 334.087 452.889 334.1L452.889 334.093ZM327.719 323.997C328.023 324.012 328.323 323.932 328.581 323.77C330.338 322.661 332.162 321.59 333.999 320.585C334.171 320.491 334.322 320.364 334.444 320.212C334.567 320.059 334.658 319.884 334.713 319.696C334.824 319.317 334.779 318.909 334.59 318.562C334.4 318.216 334.081 317.959 333.703 317.847C333.324 317.736 332.917 317.781 332.571 317.97C330.683 319.004 328.807 320.107 326.997 321.248C326.729 321.416 326.523 321.665 326.406 321.96C326.29 322.254 326.27 322.577 326.35 322.883C326.429 323.19 326.604 323.462 326.848 323.663C327.093 323.863 327.395 323.98 327.71 323.997L327.719 323.997ZM441.456 328.433C441.796 328.45 442.132 328.35 442.407 328.148C442.681 327.947 442.879 327.658 442.967 327.328C443.054 326.999 443.026 326.649 442.887 326.338C442.748 326.026 442.507 325.772 442.204 325.617C440.432 324.716 438.577 323.77 436.527 322.707C436.176 322.526 435.768 322.492 435.392 322.612C435.016 322.732 434.703 322.997 434.522 323.348C434.341 323.699 434.307 324.108 434.427 324.484C434.547 324.861 434.812 325.174 435.162 325.356C437.209 326.414 439.07 327.369 440.847 328.273C441.036 328.37 441.244 328.425 441.456 328.433V328.433ZM535.51 330.972C535.756 330.984 536.001 330.936 536.223 330.83C536.446 330.724 536.638 330.565 536.784 330.366C536.93 330.168 537.024 329.936 537.058 329.692C537.093 329.448 537.066 329.199 536.981 328.968C536.208 326.864 534.454 325.047 531.91 323.712C531.737 323.616 531.546 323.555 531.349 323.534C531.152 323.512 530.952 323.531 530.762 323.588C530.572 323.645 530.395 323.739 530.242 323.866C530.089 323.992 529.963 324.148 529.871 324.324C529.779 324.5 529.723 324.693 529.707 324.891C529.69 325.089 529.713 325.288 529.775 325.477C529.837 325.666 529.935 325.841 530.065 325.991C530.195 326.141 530.354 326.264 530.532 326.351C532.41 327.337 533.674 328.599 534.189 329.997C534.29 330.271 534.469 330.51 534.704 330.683C534.939 330.857 535.219 330.957 535.51 330.972V330.972ZM506.567 327.49C506.893 327.506 507.215 327.414 507.484 327.229C508.506 326.514 509.635 325.967 510.829 325.608C511.489 325.415 512.163 325.249 512.837 325.085C513.032 325.045 513.216 324.967 513.38 324.855C513.544 324.743 513.684 324.6 513.792 324.433C513.899 324.266 513.972 324.079 514.007 323.883C514.041 323.687 514.036 323.487 513.992 323.293C513.947 323.099 513.865 322.916 513.749 322.755C513.633 322.593 513.486 322.457 513.317 322.353C513.147 322.25 512.959 322.181 512.763 322.151C512.567 322.122 512.367 322.132 512.174 322.181C511.442 322.357 510.71 322.533 509.993 322.748C508.496 323.196 507.079 323.88 505.796 324.774C505.54 324.951 505.346 325.203 505.24 325.496C505.135 325.79 505.124 326.109 505.209 326.408C505.294 326.708 505.471 326.974 505.714 327.168C505.958 327.362 506.256 327.474 506.567 327.49V327.49ZM430.119 322.578C430.458 322.595 430.792 322.496 431.067 322.296C431.342 322.097 431.54 321.81 431.63 321.482C431.719 321.154 431.693 320.805 431.557 320.494C431.422 320.182 431.184 319.926 430.883 319.769L427.002 317.74L425.229 316.811C424.879 316.628 424.471 316.592 424.095 316.71C423.718 316.829 423.404 317.092 423.221 317.443C423.039 317.793 423.003 318.202 423.121 318.579C423.239 318.957 423.502 319.271 423.852 319.454L425.625 320.379L429.508 322.41C429.697 322.509 429.906 322.566 430.119 322.578V322.578ZM338.896 317.878C339.139 317.891 339.382 317.843 339.603 317.739C341.488 316.848 343.428 316.002 345.364 315.224C345.552 315.156 345.724 315.051 345.871 314.915C346.017 314.779 346.134 314.615 346.216 314.432C346.298 314.25 346.342 314.053 346.346 313.853C346.35 313.653 346.314 313.454 346.239 313.268C346.165 313.083 346.054 312.914 345.914 312.772C345.773 312.63 345.605 312.518 345.42 312.443C345.235 312.367 345.037 312.33 344.837 312.333C344.638 312.335 344.441 312.378 344.258 312.459C342.265 313.258 340.273 314.127 338.334 315.043C338.032 315.184 337.786 315.422 337.635 315.72C337.484 316.017 337.438 316.356 337.503 316.684C337.567 317.011 337.74 317.307 337.992 317.524C338.245 317.742 338.563 317.868 338.896 317.883L338.896 317.878ZM525.094 324.606C525.487 324.648 525.88 324.532 526.187 324.283C526.494 324.034 526.69 323.673 526.732 323.279C526.773 322.886 526.657 322.492 526.408 322.184C526.16 321.876 525.799 321.68 525.406 321.639C523.205 321.29 520.973 321.168 518.747 321.274C518.552 321.283 518.36 321.33 518.183 321.413C518.006 321.496 517.847 321.613 517.715 321.758C517.584 321.902 517.482 322.071 517.415 322.255C517.348 322.439 517.319 322.634 517.327 322.83C517.336 323.025 517.383 323.217 517.466 323.395C517.549 323.572 517.666 323.731 517.81 323.863C517.954 323.995 518.123 324.097 518.307 324.164C518.49 324.231 518.685 324.261 518.881 324.252C520.902 324.154 522.928 324.264 524.927 324.579C524.982 324.591 525.038 324.6 525.094 324.606V324.606ZM418.807 316.681C419.15 316.704 419.491 316.607 419.771 316.407C420.051 316.207 420.253 315.916 420.343 315.583C420.433 315.25 420.405 314.896 420.263 314.582C420.121 314.268 419.876 314.012 419.567 313.859L417.616 312.848C416.372 312.202 415.06 311.581 413.753 311.01C413.391 310.852 412.982 310.845 412.615 310.989C412.248 311.134 411.953 311.418 411.795 311.781C411.638 312.143 411.63 312.553 411.775 312.921C411.919 313.289 412.204 313.584 412.565 313.742C413.814 314.287 415.061 314.878 416.251 315.497L418.201 316.505C418.389 316.604 418.595 316.661 418.807 316.672L418.807 316.681ZM350.721 313.139C350.906 313.148 351.09 313.123 351.265 313.065C353.249 312.402 355.273 311.792 357.285 311.25C357.474 311.2 357.652 311.113 357.807 310.994C357.962 310.874 358.093 310.726 358.191 310.556C358.289 310.386 358.352 310.199 358.378 310.005C358.403 309.81 358.39 309.613 358.339 309.424C358.288 309.234 358.201 309.057 358.081 308.902C357.962 308.746 357.813 308.616 357.643 308.518C357.474 308.421 357.286 308.358 357.092 308.333C356.898 308.308 356.701 308.321 356.512 308.373C354.444 308.929 352.362 309.557 350.324 310.238C349.995 310.348 349.715 310.57 349.532 310.865C349.349 311.159 349.275 311.509 349.322 311.853C349.369 312.197 349.535 312.514 349.79 312.749C350.046 312.984 350.375 313.122 350.721 313.139V313.139ZM363.026 309.825C363.152 309.831 363.277 309.822 363.4 309.797C365.455 309.378 367.538 309.019 369.591 308.733C369.785 308.706 369.972 308.641 370.14 308.541C370.309 308.442 370.457 308.31 370.575 308.154C370.693 307.997 370.779 307.819 370.829 307.629C370.878 307.439 370.889 307.242 370.862 307.047C370.835 306.853 370.77 306.666 370.671 306.497C370.572 306.327 370.44 306.179 370.284 306.061C370.128 305.943 369.95 305.856 369.76 305.807C369.571 305.758 369.373 305.746 369.179 305.773C367.067 306.067 364.921 306.436 362.806 306.868C362.452 306.941 362.135 307.14 361.917 307.429C361.699 307.719 361.593 308.078 361.62 308.439C361.647 308.801 361.805 309.14 362.064 309.394C362.323 309.647 362.665 309.797 363.027 309.816L363.026 309.825ZM407.128 311.596C407.489 311.613 407.843 311.499 408.125 311.275C408.407 311.05 408.598 310.731 408.663 310.375C408.727 310.02 408.661 309.654 408.476 309.344C408.291 309.034 408 308.802 407.657 308.69C405.627 308.025 403.518 307.437 401.39 306.942C401.007 306.856 400.605 306.925 400.273 307.134C399.941 307.344 399.705 307.676 399.616 308.059C399.528 308.442 399.594 308.845 399.8 309.179C400.007 309.514 400.337 309.753 400.719 309.845C402.761 310.319 404.783 310.885 406.73 311.523C406.859 311.565 406.993 311.59 407.128 311.596V311.596ZM375.647 308.071C375.708 308.074 375.77 308.073 375.832 308.068C377.927 307.916 380.035 307.832 382.099 307.824C382.294 307.823 382.488 307.783 382.668 307.707C382.849 307.632 383.012 307.521 383.15 307.382C383.288 307.243 383.397 307.078 383.47 306.896C383.544 306.715 383.582 306.521 383.581 306.325C383.58 306.129 383.541 305.935 383.465 305.754C383.389 305.573 383.279 305.409 383.14 305.272C383.001 305.134 382.836 305.024 382.655 304.95C382.474 304.876 382.28 304.838 382.084 304.839C379.956 304.849 377.776 304.933 375.613 305.092C375.218 305.096 374.84 305.258 374.564 305.541C374.288 305.824 374.135 306.205 374.14 306.601C374.144 306.997 374.305 307.375 374.588 307.652C374.87 307.929 375.251 308.082 375.646 308.077L375.647 308.071ZM394.728 308.7C394.923 308.719 395.119 308.699 395.306 308.642C395.493 308.585 395.667 308.492 395.818 308.367C395.969 308.243 396.094 308.09 396.186 307.917C396.278 307.744 396.335 307.555 396.353 307.36C396.372 307.165 396.353 306.968 396.296 306.781C396.238 306.593 396.145 306.419 396.021 306.268C395.897 306.117 395.744 305.991 395.571 305.899C395.399 305.807 395.21 305.75 395.015 305.731C392.907 305.429 390.736 305.195 388.563 305.047C388.169 305.021 387.781 305.152 387.484 305.412C387.187 305.672 387.005 306.039 386.979 306.433C386.952 306.828 387.083 307.216 387.343 307.514C387.602 307.812 387.969 307.994 388.363 308.021C390.458 308.163 392.552 308.388 394.584 308.687C394.633 308.693 394.679 308.698 394.728 308.7V308.7Z" fill="white"/>
<path d="M299.481 339.945L303.898 348.081L261.068 374.297L299.481 339.945Z" fill="#BDCDFF"/>
<path d="M307.691 357.773L304.73 366.698L262.976 373.084L307.691 357.773Z" fill="#BDCDFF"/>
<path d="M261.068 374.293L332.095 353.974L308.367 344.244L261.068 374.293Z" fill="white"/>
<path d="M299.483 339.945L261.068 374.298L284.623 332.756L299.483 339.945Z" fill="white"/>
</g>
<rect x="1453.03" y="351.057" width="58.4181" height="33.1283" rx="1.5" transform="rotate(30.8153 1453.03 351.057)" stroke="#283455" stroke-width="3"/>
<path d="M1452.67 352.253C1458.11 360.758 1468.86 381.889 1469.48 382.259C1470.1 382.63 1490.54 382.205 1502.32 381.865" stroke="#283455" stroke-width="3"/>
<g opacity="0.6" filter="url(#filter0_f)">
<mask id="path-13-inside-1" fill="white">
<rect x="1746.79" y="236.568" width="84.6106" height="9.40118" rx="1" transform="rotate(15.7351 1746.79 236.568)"/>
</mask>
<rect x="1746.79" y="236.568" width="84.6106" height="9.40118" rx="1" transform="rotate(15.7351 1746.79 236.568)" stroke="white" stroke-opacity="0.5" stroke-width="4" mask="url(#path-13-inside-1)"/>
<mask id="path-14-inside-2" fill="white">
<rect x="1742.71" y="251.046" width="84.6106" height="9.40118" rx="1" transform="rotate(15.7351 1742.71 251.046)"/>
</mask>
<rect x="1742.71" y="251.046" width="84.6106" height="9.40118" rx="1" transform="rotate(15.7351 1742.71 251.046)" stroke="white" stroke-opacity="0.5" stroke-width="4" mask="url(#path-14-inside-2)"/>
<mask id="path-15-inside-3" fill="white">
<rect x="1763.96" y="272.663" width="58.2873" height="9.40118" rx="1" transform="rotate(15.7351 1763.96 272.663)"/>
</mask>
<rect x="1763.96" y="272.663" width="58.2873" height="9.40118" rx="1" transform="rotate(15.7351 1763.96 272.663)" stroke="white" stroke-opacity="0.5" stroke-width="4" mask="url(#path-15-inside-3)"/>
<path d="M1823.53 313.864L1763.04 296.822C1762.02 296.532 1760.94 297.1 1760.6 298.111L1751.16 326.3C1750.52 328.204 1747.79 328.086 1747.32 326.134L1738.86 291.07C1738.69 290.367 1738.16 289.81 1737.46 289.614L1724.23 285.885C1723.16 285.585 1722.54 284.48 1722.84 283.417L1739.6 223.925C1739.9 222.862 1741.01 222.243 1742.07 222.542L1841.38 250.522C1842.44 250.821 1843.06 251.926 1842.76 252.989L1826 312.481C1825.7 313.545 1824.6 314.164 1823.53 313.864Z" stroke="white" stroke-opacity="0.5" stroke-width="2"/>
</g>
<g filter="url(#filter1_f)">
<mask id="path-17-inside-4" fill="white">
<rect width="54.5265" height="6.0585" rx="1" transform="matrix(-0.756625 0.65385 0.65385 0.756625 1694.37 304.295)"/>
</mask>
<rect width="54.5265" height="6.0585" rx="1" transform="matrix(-0.756625 0.65385 0.65385 0.756625 1694.37 304.295)" stroke="#283455" stroke-width="4" mask="url(#path-17-inside-4)"/>
<mask id="path-18-inside-5" fill="white">
<rect width="54.5265" height="6.0585" rx="1" transform="matrix(-0.756625 0.65385 0.65385 0.756625 1700.7 311.629)"/>
</mask>
<rect width="54.5265" height="6.0585" rx="1" transform="matrix(-0.756625 0.65385 0.65385 0.756625 1700.7 311.629)" stroke="#283455" stroke-width="4" mask="url(#path-18-inside-5)"/>
<mask id="path-19-inside-6" fill="white">
<rect width="37.5627" height="6.0585" rx="1" transform="matrix(-0.756625 0.65385 0.65385 0.756625 1694.21 330.055)"/>
</mask>
<rect width="37.5627" height="6.0585" rx="1" transform="matrix(-0.756625 0.65385 0.65385 0.756625 1694.21 330.055)" stroke="#283455" stroke-width="4" mask="url(#path-19-inside-6)"/>
<path d="M1671.24 369.918L1700.83 344.346C1701.64 343.648 1702.85 343.707 1703.59 344.479L1714.64 356.068C1716.02 357.521 1718.44 356.255 1718.04 354.288L1713.97 334.345C1713.83 333.636 1714.07 332.904 1714.62 332.431L1720.47 327.374C1721.31 326.652 1721.4 325.389 1720.68 324.553L1695.57 295.492C1694.84 294.656 1693.58 294.564 1692.74 295.286L1643.51 337.83C1642.68 338.552 1642.59 339.815 1643.31 340.651L1668.42 369.713C1669.14 370.548 1670.41 370.64 1671.24 369.918Z" stroke="#283455" stroke-width="2"/>
</g>
<g filter="url(#filter2_f)">
<path d="M1386.57 376.433L1383.89 386.339" stroke="#454F66" stroke-width="3" stroke-linecap="round" stroke-linejoin="round"/>
</g>
<g filter="url(#filter3_f)">
<path d="M1368.04 395.432L1357.79 394.963" stroke="#454F66" stroke-width="3" stroke-linecap="round" stroke-linejoin="round"/>
</g>
<g filter="url(#filter4_f)">
<path d="M1369.12 380.212L1374.37 389.028" stroke="#454F66" stroke-width="3" stroke-linecap="round" stroke-linejoin="round"/>
</g>
<path d="M1375.58 444.968L1404.9 427.95C1406.29 427.146 1408.06 427.572 1408.93 428.917L1414.4 437.402C1416.05 439.951 1420.01 438.726 1419.92 435.693L1419.53 421.266C1419.5 420.168 1420.07 419.142 1421.02 418.59L1425.61 415.93C1427.04 415.099 1427.53 413.263 1426.69 411.83L1409.44 382.102C1408.61 380.669 1406.77 380.182 1405.34 381.014L1355.31 410.052C1353.88 410.884 1353.39 412.72 1354.22 414.152L1371.48 443.88C1372.31 445.313 1374.15 445.8 1375.58 444.968Z" fill="white" fill-opacity="0.15"/>
<rect x="1370.6" y="412.895" width="34.7674" height="19.2161" rx="1.5" transform="rotate(-30.5982 1370.6 412.895)" fill="#283455" fill-opacity="0.6" stroke="#283455" stroke-width="3"/>
<path d="M1370.35 413.236C1376.55 412.8 1391.12 413.216 1391.5 412.99C1391.88 412.764 1397.67 401.599 1400.95 395.143" stroke="#283455" stroke-width="3"/>
<g filter="url(#filter5_f)">
<path d="M239.658 112.826L242.299 124.043" stroke="#283455" stroke-width="3" stroke-linecap="round" stroke-linejoin="round"/>
</g>
<g filter="url(#filter6_f)">
<path d="M259.738 134.836L271.261 134.691" stroke="#283455" stroke-width="3" stroke-linecap="round" stroke-linejoin="round"/>
</g>
<g filter="url(#filter7_f)">
<path d="M259.098 117.717L252.873 127.415" stroke="#283455" stroke-width="3" stroke-linecap="round" stroke-linejoin="round"/>
</g>
<path d="M249.746 190.339L216.871 169.768C215.513 168.918 213.728 169.285 212.815 170.601L205.402 181.287C203.673 183.78 199.759 182.425 199.943 179.396L201.013 161.691C201.079 160.594 200.541 159.549 199.61 158.967L194.069 155.5C192.665 154.621 192.239 152.77 193.118 151.365L213.98 118.025C214.859 116.62 216.71 116.194 218.114 117.073L273.791 151.912C275.196 152.791 275.622 154.642 274.743 156.047L253.88 189.387C253.002 190.791 251.15 191.218 249.746 190.339Z" fill="#283455"/>
<rect x="-2.07103" y="0.459161" width="44.5819" height="24.9894" rx="1.5" transform="matrix(-0.843397 -0.53729 -0.53729 0.843397 257.971 152.888)" fill="white" fill-opacity="0.3" stroke="#283455" stroke-width="3"/>
<path d="M259.234 154.947C251.453 154.138 233.088 154.054 232.616 153.754C232.143 153.453 225.324 139.152 221.464 130.886" stroke="#283455" stroke-width="3"/>
<rect x="100.044" y="172.699" width="63.9429" height="36.9889" rx="3" transform="rotate(-22.1995 100.044 172.699)" fill="white" fill-opacity="0.19"/>
<path d="M135.837 184.775L101.742 176.492C99.8662 176.037 99.6604 173.451 101.44 172.705L157.957 148.997C159.807 148.221 161.52 150.347 160.369 151.989L137.947 183.979C137.474 184.653 136.637 184.969 135.837 184.775Z" fill="#57617C"/>
<g opacity="0.5">
<path d="M614.704 259.774C614.704 259.345 614.534 258.934 614.231 258.63C613.929 258.327 613.518 258.157 613.09 258.157C612.662 258.157 612.251 258.327 611.949 258.63C611.646 258.934 611.476 259.345 611.476 259.774C611.473 259.987 611.512 260.197 611.59 260.395C611.669 260.592 611.785 260.772 611.933 260.924C612.081 261.077 612.257 261.198 612.452 261.282C612.647 261.366 612.856 261.411 613.068 261.414C613.502 261.414 613.918 261.241 614.225 260.933C614.532 260.626 614.704 260.209 614.704 259.774V259.774Z" fill="#3A445C"/>
<path d="M606.058 261.303C606.384 261.312 606.704 261.223 606.979 261.048C607.254 260.874 607.471 260.621 607.601 260.322C607.732 260.023 607.771 259.692 607.713 259.371C607.655 259.05 607.503 258.754 607.276 258.52C607.049 258.286 606.757 258.126 606.439 258.059C606.12 257.992 605.789 258.022 605.487 258.144C605.186 258.267 604.927 258.477 604.745 258.748C604.564 259.018 604.466 259.337 604.466 259.663C604.466 260.09 604.632 260.501 604.93 260.807C605.227 261.113 605.632 261.291 606.058 261.303V261.303Z" fill="#3A445C"/>
<path d="M600.684 259.596C600.687 259.384 600.648 259.173 600.57 258.975C600.491 258.778 600.375 258.598 600.227 258.446C600.079 258.294 599.903 258.172 599.708 258.088C599.513 258.004 599.304 257.959 599.092 257.957C598.694 258.003 598.326 258.195 598.059 258.495C597.793 258.795 597.646 259.183 597.646 259.585C597.646 259.987 597.793 260.375 598.059 260.675C598.326 260.975 598.694 261.167 599.092 261.214C599.516 261.208 599.921 261.035 600.219 260.732C600.517 260.429 600.684 260.021 600.684 259.596V259.596Z" fill="#3A445C"/>
<path d="M592.99 268.969H589.164C587.13 269.121 585.161 269.751 583.415 270.808C583.683 269.398 583.839 267.968 583.879 266.532C583.89 266.392 583.89 266.251 583.879 266.111V265.823V258.401C583.131 258.447 582.39 258.574 581.668 258.777V265.779V266.377C581.619 268.696 581.201 270.992 580.43 273.179L578.528 277.766L582.287 274.531C584.289 272.828 586.723 271.716 589.319 271.318L601.26 271.473C602.046 271.485 602.825 271.329 603.546 271.016C604.266 270.703 604.912 270.239 605.44 269.656L596.02 269.545C594.984 269.53 593.959 269.335 592.99 268.969Z" fill="#3A445C"/>
<path d="M624.7 271.894C623.681 268.624 623.166 265.217 623.174 261.791V260.926L623.328 248.652C623.352 246.704 622.604 244.827 621.249 243.432C619.893 242.036 618.041 241.236 616.097 241.207H613.643V243.555H616.075C616.731 243.561 617.378 243.697 617.981 243.954C618.584 244.211 619.13 244.585 619.589 245.055C620.047 245.524 620.408 246.08 620.651 246.689C620.895 247.299 621.015 247.951 621.007 248.607L620.852 260.86C620.863 261.007 620.863 261.156 620.852 261.303C620.84 261.495 620.84 261.687 620.852 261.879C620.843 264.333 621.073 266.782 621.537 269.191C618.931 267.306 615.885 266.123 612.692 265.757H606.721H604.355H595.886C594.562 265.733 593.301 265.187 592.378 264.237C591.454 263.287 590.943 262.009 590.955 260.683V258.622H588.588V260.683C588.577 261.649 588.755 262.608 589.113 263.505C589.471 264.402 590.002 265.219 590.676 265.91C591.35 266.602 592.152 267.153 593.039 267.534C593.925 267.914 594.877 268.116 595.842 268.127H603.515H606.257H612.581C617.623 268.438 622.665 273.113 622.731 273.157L626.402 276.569L624.7 271.894Z" fill="#3A445C"/>
<path d="M603.89 225.962L580.759 225.674C579.66 225.66 578.568 225.863 577.547 226.271C576.526 226.68 575.595 227.287 574.808 228.057C574.022 228.826 573.394 229.744 572.962 230.757C572.53 231.771 572.302 232.859 572.29 233.961L572.091 249.271C571.969 253.299 571.223 257.283 569.88 261.081L568 265.756L571.759 262.41C571.759 262.41 577.885 257.026 583.811 256.783L603.404 257.026C605.619 257.05 607.753 256.194 609.34 254.645C610.927 253.097 611.838 250.981 611.873 248.762L612.05 234.471C612.08 232.262 611.24 230.131 609.713 228.538C608.185 226.946 606.094 226.02 603.89 225.962V225.962ZM609.617 248.718C609.609 249.509 609.445 250.291 609.134 251.019C608.824 251.747 608.374 252.406 607.809 252.96C607.244 253.513 606.576 253.95 605.843 254.245C605.11 254.539 604.326 254.687 603.536 254.678L583.877 254.434C580.07 254.799 576.425 256.159 573.307 258.378C573.962 255.466 574.34 252.499 574.435 249.515C574.447 249.294 574.447 249.072 574.435 248.85V248.274L574.612 233.983C574.621 233.192 574.785 232.41 575.095 231.682C575.405 230.954 575.856 230.294 576.42 229.741C576.985 229.188 577.653 228.751 578.386 228.456C579.119 228.161 579.903 228.014 580.693 228.023L603.846 228.333C604.636 228.342 605.416 228.506 606.143 228.817C606.869 229.128 607.527 229.579 608.08 230.145C608.632 230.711 609.068 231.38 609.362 232.115C609.656 232.849 609.803 233.635 609.794 234.426L609.617 248.718Z" fill="#3A445C"/>
<path d="M584.143 244.397C583.677 244.448 583.246 244.669 582.933 245.019C582.62 245.369 582.446 245.822 582.446 246.292C582.446 246.762 582.62 247.215 582.933 247.565C583.246 247.914 583.677 248.136 584.143 248.186C584.609 248.136 585.041 247.914 585.354 247.565C585.667 247.215 585.84 246.762 585.84 246.292C585.84 245.822 585.667 245.369 585.354 245.019C585.041 244.669 584.609 244.448 584.143 244.397V244.397Z" fill="#3A445C"/>
<path d="M592.302 244.507C591.931 244.503 591.566 244.609 591.255 244.813C590.943 245.016 590.699 245.307 590.553 245.65C590.406 245.992 590.365 246.37 590.433 246.736C590.501 247.103 590.676 247.44 590.936 247.707C591.196 247.973 591.528 248.156 591.892 248.233C592.256 248.31 592.634 248.278 592.979 248.139C593.324 248.001 593.621 247.763 593.831 247.456C594.041 247.148 594.156 246.785 594.16 246.413C594.163 246.166 594.117 245.92 594.025 245.691C593.934 245.461 593.798 245.252 593.625 245.075C593.453 244.898 593.247 244.757 593.02 244.659C592.793 244.562 592.549 244.51 592.302 244.507V244.507Z" fill="#3A445C"/>
<path d="M600.485 244.619C600.113 244.615 599.748 244.721 599.437 244.924C599.125 245.127 598.881 245.419 598.735 245.761C598.588 246.103 598.547 246.482 598.615 246.848C598.683 247.214 598.858 247.552 599.118 247.818C599.378 248.085 599.711 248.268 600.074 248.345C600.438 248.422 600.816 248.389 601.161 248.25C601.506 248.112 601.803 247.874 602.013 247.567C602.223 247.26 602.338 246.897 602.342 246.524C602.348 246.276 602.304 246.03 602.214 245.799C602.123 245.568 601.987 245.357 601.814 245.18C601.641 245.002 601.434 244.861 601.206 244.765C600.978 244.668 600.732 244.619 600.485 244.619V244.619Z" fill="#3A445C"/>
</g>
<path d="M1723.08 394.545H1771.79V393.708C1771.79 393.541 1773.38 377.543 1760.36 374.511H1753.95H1753.62L1753.37 374.699C1751.5 375.647 1749.44 376.141 1747.36 376.141C1745.27 376.141 1743.21 375.647 1741.34 374.699L1741.09 374.49H1734.56H1734.35C1721.33 377.522 1722.89 393.52 1722.92 393.687L1723.08 394.545Z" fill="#343F58" fill-opacity="0.5"/>
<path d="M1747.44 372.017C1754.39 372.017 1759.96 364.531 1759.96 357.504C1759.96 354.157 1758.64 350.947 1756.27 348.581C1753.91 346.214 1750.71 344.884 1747.37 344.884C1744.03 344.884 1740.82 346.214 1738.46 348.581C1736.1 350.947 1734.77 354.157 1734.77 357.504C1734.83 364.531 1740.49 372.017 1747.44 372.017Z" fill="#343F58" fill-opacity="0.5"/>
<path d="M126.59 567.277C116.349 567.277 108 574.079 108 582.445C108 590.81 116.299 597.596 126.59 597.596C136.881 597.596 145.197 590.794 145.197 582.445C145.197 574.096 136.848 567.277 126.59 567.277ZM126.59 594.203C118.291 594.203 111.386 588.931 111.386 582.445C111.386 575.959 118.208 570.67 126.59 570.67C134.972 570.67 141.811 575.959 141.811 582.445C141.811 588.931 134.989 594.203 126.59 594.203Z" fill="#283455"/>
<path d="M144.616 591.708C143.691 591.708 142.786 591.983 142.016 592.498C141.246 593.014 140.646 593.746 140.292 594.603C139.938 595.46 139.845 596.403 140.025 597.313C140.206 598.223 140.652 599.058 141.307 599.714C141.961 600.37 142.795 600.817 143.703 600.998C144.611 601.179 145.552 601.086 146.408 600.731C147.263 600.376 147.994 599.775 148.508 599.004C149.022 598.232 149.297 597.326 149.297 596.398C149.297 595.154 148.804 593.961 147.926 593.082C147.048 592.202 145.858 591.708 144.616 591.708V591.708ZM144.616 598.826C144.137 598.826 143.668 598.684 143.27 598.417C142.871 598.15 142.561 597.771 142.377 597.327C142.194 596.884 142.146 596.395 142.239 595.924C142.333 595.453 142.564 595.021 142.903 594.681C143.242 594.341 143.673 594.11 144.143 594.016C144.614 593.923 145.101 593.971 145.544 594.155C145.986 594.338 146.365 594.65 146.631 595.049C146.898 595.448 147.04 595.918 147.04 596.398C147.042 596.718 146.981 597.036 146.86 597.332C146.739 597.629 146.561 597.898 146.336 598.126C146.111 598.353 145.843 598.533 145.548 598.656C145.252 598.779 144.936 598.843 144.616 598.843V598.826Z" fill="#283455"/>
<path d="M151.421 598.078C150.986 598.075 150.56 598.201 150.197 598.441C149.835 598.681 149.551 599.024 149.383 599.426C149.215 599.827 149.171 600.27 149.255 600.698C149.339 601.125 149.548 601.518 149.855 601.826C150.163 602.134 150.554 602.343 150.981 602.427C151.408 602.511 151.849 602.467 152.25 602.298C152.651 602.13 152.993 601.846 153.233 601.483C153.472 601.119 153.599 600.692 153.595 600.257C153.591 599.68 153.36 599.129 152.954 598.721C152.547 598.313 151.996 598.083 151.421 598.078V598.078ZM151.421 601.321C151.139 601.321 150.869 601.209 150.67 601.009C150.471 600.81 150.359 600.539 150.359 600.257C150.363 599.977 150.477 599.711 150.676 599.515C150.874 599.319 151.142 599.209 151.421 599.209C151.698 599.209 151.964 599.319 152.16 599.516C152.356 599.712 152.467 599.979 152.467 600.257C152.467 600.536 152.357 600.805 152.161 601.004C151.966 601.203 151.7 601.317 151.421 601.321V601.321Z" fill="#283455"/>
<path d="M118.489 588.115C118.853 588.115 119.21 588.007 119.513 587.804C119.816 587.601 120.052 587.313 120.191 586.976C120.331 586.639 120.367 586.267 120.296 585.909C120.225 585.551 120.049 585.222 119.792 584.964C119.534 584.706 119.206 584.53 118.848 584.459C118.491 584.388 118.121 584.424 117.784 584.564C117.447 584.704 117.159 584.94 116.957 585.244C116.755 585.547 116.646 585.904 116.646 586.269C116.646 586.512 116.694 586.752 116.787 586.976C116.879 587.2 117.015 587.403 117.186 587.575C117.357 587.746 117.56 587.882 117.784 587.975C118.007 588.068 118.247 588.115 118.489 588.115V588.115Z" fill="#283455"/>
<path d="M126.49 588.115C126.854 588.115 127.211 588.007 127.513 587.804C127.816 587.601 128.053 587.313 128.192 586.976C128.332 586.639 128.368 586.267 128.297 585.909C128.226 585.551 128.05 585.222 127.793 584.964C127.535 584.706 127.207 584.53 126.849 584.459C126.492 584.388 126.121 584.424 125.785 584.564C125.448 584.704 125.16 584.94 124.958 585.244C124.756 585.547 124.647 585.904 124.647 586.269C124.647 586.512 124.695 586.752 124.788 586.976C124.88 587.2 125.016 587.403 125.187 587.575C125.358 587.746 125.561 587.882 125.785 587.975C126.008 588.068 126.248 588.115 126.49 588.115V588.115Z" fill="#283455"/>
<path d="M134.473 588.115C134.838 588.115 135.194 588.007 135.497 587.804C135.8 587.601 136.036 587.313 136.175 586.976C136.315 586.639 136.351 586.267 136.28 585.909C136.209 585.551 136.034 585.222 135.776 584.964C135.518 584.706 135.19 584.53 134.833 584.459C134.475 584.388 134.105 584.424 133.768 584.564C133.432 584.704 133.144 584.94 132.941 585.244C132.739 585.547 132.631 585.904 132.631 586.269C132.631 586.512 132.679 586.752 132.771 586.976C132.864 587.2 132.999 587.403 133.171 587.575C133.342 587.746 133.545 587.882 133.768 587.975C133.992 588.068 134.231 588.115 134.473 588.115V588.115Z" fill="#283455"/>
<path d="M178.822 632.051H172.531H171.635L170.971 632.567C169.608 633.303 168.067 633.643 166.522 633.548C165.005 633.63 163.493 633.309 162.14 632.617L161.41 632.035H154.771H154.156C143.467 634.546 141.741 645.888 142.322 651.543L142.571 653.921H190.324L190.59 651.543C191.237 645.905 189.461 634.563 178.822 632.051ZM187.121 650.346H145.907C145.807 647.369 146.173 637.706 154.937 635.577H160.198C162.122 636.67 164.313 637.2 166.522 637.107C168.729 637.197 170.918 636.673 172.846 635.594H178.191C186.889 637.772 187.237 647.402 187.138 650.346H187.121Z" fill="#283455"/>
<path d="M166.523 603.465C163.002 603.465 159.624 604.867 157.134 607.362C154.644 609.858 153.245 613.242 153.245 616.77C153.245 623.872 158.954 631.24 166.523 631.24C174.092 631.24 179.802 623.872 179.802 616.77C179.802 613.242 178.403 609.858 175.913 607.362C173.423 604.867 170.045 603.465 166.523 603.465ZM166.523 627.88C161.693 627.88 156.797 622.891 156.797 616.804C156.797 614.219 157.821 611.74 159.646 609.912C161.47 608.085 163.944 607.058 166.523 607.058C169.103 607.058 171.577 608.085 173.401 609.912C175.225 611.74 176.25 614.219 176.25 616.804C176.184 622.841 171.337 627.88 166.523 627.88Z" fill="#283455"/>
<path opacity="0.5" d="M188.248 570.591C188.265 575.909 187.521 581.202 186.039 586.311C190.562 581.931 196.018 578.621 202.003 576.625C204.301 577.054 206.635 577.267 208.973 577.26C213.13 577.271 217.259 576.582 221.185 575.222C231.109 571.729 238 564.081 238 555.242C238 543.068 225.017 533.223 208.973 533.223C201.119 533.076 193.463 535.681 187.343 540.58C185.118 542.337 183.306 544.558 182.038 547.086C180.769 549.615 180.073 552.39 180 555.215C180.094 558.236 180.887 561.195 182.318 563.862C183.748 566.528 185.777 568.831 188.248 570.591ZM220.627 557.094C221.153 557.094 221.667 557.249 222.105 557.54C222.542 557.831 222.883 558.244 223.085 558.728C223.286 559.211 223.339 559.743 223.236 560.257C223.133 560.77 222.88 561.242 222.508 561.612C222.136 561.982 221.662 562.234 221.146 562.336C220.63 562.438 220.095 562.386 219.608 562.186C219.122 561.985 218.707 561.646 218.414 561.211C218.122 560.776 217.966 560.264 217.966 559.74C217.966 559.043 218.243 558.374 218.736 557.878C219.229 557.383 219.899 557.101 220.6 557.094H220.627ZM209.027 557.094C209.553 557.094 210.067 557.249 210.505 557.54C210.942 557.831 211.283 558.244 211.485 558.728C211.686 559.211 211.739 559.743 211.636 560.257C211.533 560.77 211.28 561.242 210.908 561.612C210.536 561.982 210.062 562.234 209.546 562.336C209.03 562.438 208.495 562.386 208.008 562.186C207.522 561.985 207.107 561.646 206.814 561.211C206.522 560.776 206.366 560.264 206.366 559.74C206.366 559.043 206.643 558.374 207.136 557.878C207.629 557.383 208.299 557.101 209 557.094H209.027ZM197.427 557.094C197.953 557.094 198.467 557.249 198.905 557.54C199.342 557.831 199.683 558.244 199.885 558.728C200.086 559.211 200.139 559.743 200.036 560.257C199.933 560.77 199.68 561.242 199.308 561.612C198.936 561.982 198.462 562.234 197.946 562.336C197.43 562.438 196.895 562.386 196.408 562.186C195.922 561.985 195.507 561.646 195.214 561.211C194.922 560.776 194.766 560.264 194.766 559.74C194.766 559.043 195.043 558.374 195.536 557.878C196.029 557.383 196.699 557.101 197.4 557.094H197.427Z" fill="#3A445D"/>
<g filter="url(#filter8_f)">
<path d="M1501.76 252.313C1500.36 252.313 1498.99 252.729 1497.82 253.509C1496.66 254.289 1495.75 255.398 1495.21 256.695C1494.68 257.992 1494.54 259.42 1494.81 260.797C1495.08 262.174 1495.76 263.439 1496.75 264.432C1497.74 265.424 1499 266.101 1500.38 266.375C1501.75 266.648 1503.18 266.508 1504.47 265.971C1505.76 265.433 1506.87 264.523 1507.65 263.356C1508.43 262.188 1508.84 260.816 1508.84 259.412C1508.84 257.529 1508.1 255.723 1506.77 254.392C1505.44 253.061 1503.64 252.313 1501.76 252.313ZM1501.76 263.316C1500.99 263.316 1500.23 263.087 1499.59 262.658C1498.95 262.229 1498.45 261.619 1498.16 260.906C1497.86 260.193 1497.79 259.407 1497.94 258.65C1498.09 257.893 1498.46 257.197 1499 256.651C1499.55 256.105 1500.24 255.733 1501 255.582C1501.75 255.432 1502.54 255.509 1503.25 255.804C1503.96 256.1 1504.57 256.6 1505 257.243C1505.43 257.885 1505.66 258.64 1505.66 259.412C1505.66 259.925 1505.55 260.432 1505.36 260.906C1505.16 261.38 1504.88 261.81 1504.51 262.173C1504.15 262.535 1503.72 262.823 1503.25 263.019C1502.78 263.215 1502.27 263.316 1501.76 263.316V263.316Z" fill="#26314C"/>
<path d="M1492.88 228.837V226.683H1480.05C1479.77 227.417 1479.44 228.127 1479.09 228.837H1492.88Z" fill="#26314C"/>
<path d="M1492.88 235.771V233.617H1476.06C1475.5 234.367 1474.89 235.086 1474.24 235.771H1492.88Z" fill="#26314C"/>
<path d="M1492.88 240.552H1479.53V242.706H1492.88V240.552Z" fill="#26314C"/>
<path d="M1509.69 264.025C1509.04 264.025 1508.4 264.219 1507.86 264.583C1507.31 264.947 1506.89 265.465 1506.64 266.07C1506.39 266.675 1506.32 267.341 1506.45 267.984C1506.58 268.627 1506.89 269.217 1507.36 269.68C1507.82 270.144 1508.41 270.459 1509.05 270.587C1509.69 270.715 1510.35 270.649 1510.96 270.399C1511.56 270.148 1512.08 269.723 1512.44 269.178C1512.81 268.634 1513 267.993 1513 267.338C1513 266.459 1512.65 265.616 1512.03 264.995C1511.41 264.374 1510.57 264.025 1509.69 264.025ZM1509.69 269.042C1509.24 269.042 1508.81 268.862 1508.49 268.543C1508.17 268.223 1507.99 267.79 1507.99 267.338C1507.99 266.886 1508.17 266.453 1508.49 266.133C1508.81 265.813 1509.24 265.634 1509.69 265.634C1509.92 265.634 1510.14 265.678 1510.34 265.764C1510.55 265.849 1510.74 265.975 1510.9 266.133C1511.05 266.291 1511.18 266.479 1511.26 266.686C1511.35 266.892 1511.39 267.114 1511.39 267.338C1511.39 267.562 1511.35 267.783 1511.26 267.99C1511.18 268.197 1511.05 268.384 1510.9 268.543C1510.74 268.701 1510.55 268.826 1510.34 268.912C1510.14 268.998 1509.92 269.042 1509.69 269.042V269.042Z" fill="#26314C"/>
<path d="M1484.45 210.828C1484.8 212.464 1485.02 214.126 1485.11 215.797C1495.5 217.738 1503.27 225.002 1503.27 233.663C1503.27 243.815 1492.62 252.074 1479.53 252.074C1473.88 252.162 1468.33 250.51 1463.64 247.341C1461.99 248.127 1460.28 248.799 1458.54 249.353C1464.38 254.355 1471.85 257.047 1479.53 256.925C1495.26 256.925 1508.04 246.537 1508.04 233.734C1508.04 222.234 1497.88 212.745 1484.45 210.828Z" fill="#26314C"/>
<path d="M1443.05 185.603C1421.6 185.603 1404.17 199.801 1404.17 217.076C1404.17 234.35 1421.6 248.525 1443.05 248.525C1448.84 248.656 1454.61 247.592 1459.98 245.397C1465.35 243.203 1470.21 239.926 1474.27 235.77H1467.32C1460.35 241.072 1451.8 243.879 1443.05 243.745C1424.15 243.745 1408.97 231.771 1408.97 217.076C1408.97 202.38 1424.25 190.383 1443.05 190.383C1461.85 190.383 1477.15 202.357 1477.15 217.076C1477.13 220.419 1475.93 223.715 1474.41 226.687L1480.03 226.683C1481.28 223.633 1481.92 220.37 1481.92 217.076C1481.94 199.706 1464.49 185.603 1443.05 185.603Z" fill="#26314C"/>
<path d="M1408.92 238.445C1407.08 238.441 1405.28 238.982 1403.75 240.001C1402.22 241.02 1401.03 242.471 1400.33 244.17C1399.62 245.869 1399.43 247.739 1399.79 249.545C1400.14 251.351 1401.02 253.01 1402.32 254.313C1403.62 255.616 1405.27 256.504 1407.07 256.865C1408.88 257.226 1410.74 257.043 1412.44 256.34C1414.14 255.636 1415.59 254.444 1416.61 252.915C1417.63 251.385 1418.18 249.586 1418.18 247.745C1418.18 245.283 1417.2 242.921 1415.46 241.178C1413.73 239.434 1411.37 238.452 1408.92 238.445V238.445ZM1408.92 253.827C1407.71 253.832 1406.53 253.477 1405.52 252.808C1404.52 252.139 1403.73 251.186 1403.27 250.069C1402.8 248.952 1402.68 247.723 1402.92 246.536C1403.15 245.35 1403.73 244.26 1404.58 243.405C1405.44 242.549 1406.53 241.967 1407.71 241.733C1408.89 241.498 1410.12 241.621 1411.24 242.086C1412.35 242.551 1413.3 243.337 1413.97 244.344C1414.64 245.352 1414.99 246.536 1414.99 247.745C1414.98 249.356 1414.34 250.9 1413.2 252.039C1412.07 253.178 1410.52 253.821 1408.92 253.827V253.827Z" fill="#26314C"/>
<path d="M1400.3 256.051C1399.45 256.051 1398.62 256.304 1397.91 256.777C1397.2 257.25 1396.65 257.923 1396.33 258.71C1396 259.497 1395.92 260.363 1396.08 261.198C1396.25 262.034 1396.66 262.801 1397.26 263.404C1397.86 264.006 1398.63 264.416 1399.46 264.582C1400.29 264.748 1401.16 264.663 1401.94 264.337C1402.73 264.011 1403.4 263.459 1403.87 262.751C1404.34 262.043 1404.6 261.21 1404.6 260.358C1404.59 259.218 1404.14 258.126 1403.33 257.32C1402.53 256.513 1401.44 256.057 1400.3 256.051V256.051ZM1400.3 263.151C1399.77 263.151 1399.25 262.992 1398.8 262.696C1398.36 262.399 1398.01 261.978 1397.81 261.485C1397.61 260.992 1397.55 260.45 1397.66 259.927C1397.76 259.403 1398.02 258.923 1398.39 258.545C1398.77 258.168 1399.25 257.911 1399.77 257.807C1400.3 257.703 1400.84 257.756 1401.33 257.96C1401.82 258.165 1402.24 258.51 1402.54 258.954C1402.83 259.398 1402.99 259.919 1402.99 260.453C1402.97 261.152 1402.67 261.814 1402.17 262.299C1401.67 262.785 1401 263.056 1400.3 263.056V263.151Z" fill="#26314C"/>
<path d="M1462.81 205.387H1423.91V208.534H1462.81V205.387Z" fill="#26314C"/>
<path d="M1462.81 215.491H1423.91V218.638H1462.81V215.491Z" fill="#26314C"/>
<path d="M1443.35 225.618H1423.91V228.765H1443.35V225.618Z" fill="#26314C"/>
</g>
<g opacity="0.45" filter="url(#filter9_f)">
<path d="M1632.02 609.198H1634.96C1636.07 607.776 1637.05 606.25 1637.87 604.64H1635.27C1634.35 606.271 1633.26 607.798 1632.02 609.198V609.198Z" fill="#26314C"/>
<path d="M1635.24 604.69H1637.95C1638.29 604.006 1638.75 603.228 1639.03 602.521H1636.21C1635.93 603.228 1635.59 604.015 1635.24 604.69Z" fill="#26314C"/>
<path d="M1630.04 611.273H1633.23C1633.85 610.613 1634.43 609.921 1634.98 609.199H1632.02C1631.4 609.929 1630.74 610.621 1630.04 611.273V611.273Z" fill="#26314C"/>
<path d="M1628.86 609.198H1632.02C1633.26 607.798 1634.35 606.271 1635.27 604.64H1632.59C1631.53 606.299 1630.27 607.828 1628.86 609.198Z" fill="#26314C"/>
<path d="M1632.54 604.69H1635.24C1635.62 604.017 1635.99 603.23 1636.3 602.521H1633.75C1633.41 603.237 1632.97 604.024 1632.54 604.69Z" fill="#26314C"/>
<path d="M1632.02 609.199H1628.86C1628.14 609.93 1627.38 610.622 1626.58 611.273H1630.04C1630.74 610.621 1631.4 609.929 1632.02 609.199Z" fill="#26314C"/>
</g>
<g opacity="0.45">
<path d="M1679.89 642.047L1744.19 612.606V542.775L1679.89 562.726V642.047Z" fill="#303C5C" fill-opacity="0.36"/>
<path d="M1583.36 595.067L1679.89 642.047V562.726L1583.36 530.794V595.067Z" fill="#354364"/>
<path d="M1600.86 660.176L1648.57 638.334V586.528L1600.86 601.327V660.176Z" fill="#303C5C"/>
<path d="M1529.24 625.318L1600.86 660.175V601.326L1529.24 573.21V625.318Z" fill="#354364"/>
<path d="M1534.98 668.456L1568.37 653.168V616.908L1534.98 627.269V668.456Z" fill="#303C5C"/>
<path d="M1495 646.713L1534.98 668.456V627.269L1495 611.155V646.713Z" fill="#354364"/>
<path d="M1744.19 542.776L1679.89 562.727L1583.56 530.794L1651.91 517.222L1744.19 542.776Z" fill="#1B2745"/>
<path d="M1651.91 517.222L1629.94 494.148L1563.82 505.169L1583.56 530.794L1651.91 517.222Z" fill="#303C5C" fill-opacity="0.36"/>
<path d="M1704.08 607.587V622.816L1691.89 628.152V610.571L1704.08 607.587Z" fill="#45516D"/>
<path d="M1703.45 608.482L1692.94 611.178V611.738L1703.45 609.006V608.482Z" fill="#303C5C"/>
<path d="M1703.45 609.718L1692.94 612.414V612.974L1703.45 610.242V609.718Z" fill="#303C5C"/>
<path d="M1703.45 611.155L1692.94 613.848V614.411L1703.45 611.676V611.155Z" fill="#303C5C"/>
<path d="M1703.45 612.538L1692.94 615.234V615.797L1703.45 613.062V612.538Z" fill="#303C5C"/>
<path d="M1703.45 618.994L1698.37 620.576L1698.38 621.21L1703.45 619.518V618.994Z" fill="#303C5C"/>
<path d="M1703.45 619.909L1698.37 621.492L1698.38 622.129L1703.45 620.434V619.909Z" fill="#303C5C"/>
<path d="M1703.45 621.02L1698.37 622.6L1698.38 623.237L1703.45 621.544V621.02Z" fill="#303C5C"/>
<path d="M1651.91 517.222V553.347L1679.89 562.727L1744.19 542.776L1651.91 517.222Z" fill="#303C5C" fill-opacity="0.36"/>
<path d="M1717.3 514.194L1744.19 542.775L1679.89 562.726L1657.89 530.794L1717.3 514.194Z" fill="#45516D"/>
<path d="M1725.87 567.502C1724.32 567.502 1723.06 565.763 1723.06 563.618C1723.06 561.473 1724.32 559.734 1725.87 559.734C1727.42 559.734 1728.68 561.473 1728.68 563.618C1728.68 565.763 1727.42 567.502 1725.87 567.502Z" fill="#303C5C"/>
<path d="M1714.15 566.207C1714.15 568.352 1715.41 570.091 1716.96 570.091C1718.52 570.091 1719.78 568.352 1719.78 566.207C1719.78 564.062 1718.52 562.323 1716.96 562.323C1715.41 562.323 1714.15 564.068 1714.15 566.207Z" fill="#303C5C"/>
<path d="M1704.78 568.809C1704.78 570.954 1706.04 572.696 1707.59 572.696C1709.15 572.696 1710.4 570.954 1710.4 568.809C1710.4 566.664 1709.14 564.924 1707.59 564.924C1706.04 564.924 1704.78 566.652 1704.78 568.809Z" fill="#303C5C"/>
<path d="M1648.57 586.528L1600.86 601.327L1529.24 573.211L1574.7 563.617L1648.57 586.528Z" fill="#45516D"/>
<path d="M1648.57 586.528L1662.12 603.878L1615.01 621.21L1600.86 601.327L1648.57 586.528Z" fill="#45516D"/>
<path d="M1574.7 563.617L1556.88 557.025L1512.35 564.912L1529.24 573.21L1574.7 563.617Z" fill="#303C5C" fill-opacity="0.36"/>
<path d="M1627.16 593.167L1553.87 568.014L1551.76 568.458L1624.71 593.926L1627.16 593.167Z" fill="#303C5C" fill-opacity="0.36"/>
<path d="M1648.57 586.528L1600.86 601.327L1599.93 600.963L1647.77 586.279L1648.57 586.528Z" fill="#303C5C" fill-opacity="0.36"/>
<path d="M1534.98 627.269L1495 611.154C1496.18 611.631 1526.42 603.869 1526.42 603.869L1568.37 616.905L1534.98 627.269Z" fill="#303C5C"/>
<path d="M1568.37 616.908L1549.58 604.88L1517.27 612.538L1534.98 627.269L1568.37 616.908Z" fill="#45516D"/>
<path d="M1526.42 603.869H1539.54L1508.14 611.738L1495 611.154L1526.42 603.869Z" fill="#45516D"/>
<path d="M1519.03 654.7C1519.03 655.56 1519.67 655.853 1520.58 656.256L1530.12 661.097C1531.41 661.743 1531.67 660.401 1531.67 659.541V644.769C1531.67 643.91 1531.11 643.706 1530.12 643.214L1520.58 638.373C1518.55 637.336 1519.16 639.443 1519.03 643.427V654.7Z" fill="#45516D"/>
<path d="M1530.69 646.224L1521.22 641.599V642.129L1530.69 646.914V646.224Z" fill="#303C5C"/>
<path d="M1530.69 648.046L1521.22 643.418V643.952L1530.69 648.736V648.046Z" fill="#303C5C"/>
<path d="M1530.69 650.09L1521.22 645.462V645.995L1530.69 650.78V650.09Z" fill="#303C5C"/>
<path d="M1530.47 655.696L1524.48 652.772L1524.41 653.326L1530.47 656.389V655.696Z" fill="#303C5C"/>
<path d="M1530.47 657.079L1524.48 654.155L1524.41 654.706L1530.47 657.769V657.079Z" fill="#303C5C"/>
<path d="M1530.47 658.489L1524.48 655.566L1524.41 656.117L1530.47 659.18V658.489Z" fill="#303C5C"/>
</g>
<g clip-path="url(#clip2)">
<path d="M428.37 162L366 142.492V96.2245L428.37 109.443V162Z" fill="#253354"/>
<path d="M466 140.704L428.37 162V109.442L466 91.4146V140.704Z" fill="#1E2A47"/>
<path d="M366 96.2244L404.067 83L466 91.4148L428.37 109.443L366 96.2244Z" fill="#3C465E"/>
<path opacity="0.6" d="M384.103 89.9358L442.883 102.75L444.091 123.701L446.161 126.707L447.186 122.843L448.576 124.046L449.956 121.297L450.991 122.843L449.659 99.2429L389.285 88.1355L384.103 89.9358Z" fill="#1E2947"/>
<path opacity="0.6" d="M391.623 101.655L428.369 86.3029L434.622 87.1515L399.366 103.296L391.623 101.655Z" fill="#1E2947"/>
<path d="M391.623 101.655V150.507L399.366 152.928V103.296L391.623 101.655Z" fill="#1E2947"/>
<path d="M442.193 148.69C442.193 149.259 441.767 149.454 441.157 149.72L434.775 152.929C433.913 153.356 433.74 152.461 433.74 151.897V142.108C433.74 141.54 434.113 141.405 434.775 141.079L441.157 137.87C442.51 137.183 442.097 138.579 442.193 141.219V148.69Z" fill="white"/>
<path d="M434.393 143.072L440.729 140.008V140.361L434.393 143.531V143.072Z" fill="#25304C"/>
<path d="M434.393 144.28L440.729 141.214V141.567L434.393 144.738V144.28Z" fill="#25304C"/>
<path d="M434.393 145.634L440.729 142.57V142.921L434.393 146.093V145.634Z" fill="#25304C"/>
<path d="M434.544 149.35L438.548 147.412L438.598 147.779L434.544 149.807V149.35Z" fill="#25304C"/>
<path d="M434.544 150.266L438.548 148.328L438.598 148.695L434.544 150.723V150.266Z" fill="#25304C"/>
<path d="M434.544 151.2L438.548 149.262L438.598 149.629L434.544 151.657V151.2Z" fill="#25304C"/>
</g>
<g opacity="0.8">
<path d="M550.702 528.267L575.655 508.475L575.398 551.125L550.702 579.869V528.267Z" fill="#202C49"/>
<path d="M550.701 579.868L473.062 573.48V525.468L550.701 528.266V579.868Z" fill="#293759"/>
<path d="M473.062 525.469L506.507 507.045L575.654 508.475L550.701 528.267L473.062 525.469Z" fill="#1E2A47"/>
<path d="M497.474 608.394H489.17V609.008H497.474V608.394Z" fill="#1B2745"/>
<path d="M502.32 548.373V544.379H497.106V548.373C497.106 549 497.331 549.607 497.739 550.082C498.148 550.556 498.713 550.868 499.332 550.96V554.555C498.662 554.644 498.044 554.965 497.585 555.463H501.84C501.382 554.965 500.764 554.643 500.094 554.555V550.96C500.713 550.868 501.278 550.556 501.687 550.082C502.095 549.607 502.32 549 502.32 548.373V548.373Z" fill="#1B2745"/>
<path d="M509.705 545.147V544.171H509.451V545.147C507.236 545.202 505.362 546.754 504.658 548.902C504.726 548.76 504.832 548.641 504.964 548.557C505.097 548.473 505.25 548.429 505.406 548.429C505.563 548.429 505.716 548.473 505.849 548.557C505.981 548.641 506.087 548.76 506.155 548.902H506.317C506.384 548.76 506.49 548.641 506.623 548.557C506.755 548.473 506.908 548.429 507.065 548.429C507.221 548.429 507.375 548.473 507.507 548.557C507.639 548.641 507.745 548.76 507.813 548.902H507.973C508.038 548.765 508.138 548.648 508.264 548.565C508.39 548.481 508.537 548.434 508.688 548.428C508.839 548.422 508.988 548.457 509.121 548.53C509.253 548.603 509.363 548.71 509.439 548.841V553.356H509.319C509.319 553.356 509.177 554.921 509.736 555.316C510.108 555.576 510.789 555.474 511.019 555.083C511.271 554.652 511.28 554.24 511.06 554.292C510.84 554.343 510.958 554.874 510.637 555.021C510.243 555.197 509.902 555.063 509.851 554.586C509.822 554.172 509.817 553.757 509.837 553.342H509.694V548.793C509.776 548.672 509.888 548.575 510.02 548.511C510.151 548.448 510.297 548.42 510.442 548.431C510.588 548.442 510.728 548.492 510.848 548.574C510.968 548.657 511.065 548.77 511.128 548.902H511.255C511.322 548.76 511.429 548.641 511.561 548.557C511.693 548.473 511.847 548.429 512.003 548.429C512.16 548.429 512.313 548.473 512.445 548.557C512.578 548.641 512.684 548.76 512.751 548.902H512.913C512.981 548.76 513.087 548.641 513.219 548.557C513.352 548.473 513.505 548.429 513.662 548.429C513.818 548.429 513.971 548.473 514.104 548.557C514.236 548.641 514.342 548.76 514.41 548.902H514.486C513.794 546.754 511.922 545.195 509.705 545.147Z" fill="#1B2745"/>
<path d="M520.232 546.722L518.14 544.207L516.051 546.722H517.369V554.081H518.914V546.722H520.232Z" fill="#1B2745"/>
<path d="M524.832 546.722L522.74 544.207L520.648 546.722H521.966V554.081H523.514V546.722H524.832Z" fill="#1B2745"/>
<path d="M524.593 554.816H516.29V555.427H524.593V554.816Z" fill="#1B2745"/>
<path d="M333 605.947L506.508 614.36V590.46L333 583.041V605.947Z" fill="#293759"/>
<path d="M506.508 590.46L540.504 561.126V581.752L506.508 614.36V590.46Z" fill="#1B2745"/>
<path d="M506.508 588.601L540.504 559.267L387.634 554.643L333 581.181L506.508 588.601Z" fill="#3C465E"/>
<path d="M475.201 601.953V597.958H469.987V601.953C469.988 602.579 470.212 603.184 470.62 603.658C471.027 604.133 471.591 604.445 472.209 604.537V608.128C471.539 608.216 470.921 608.536 470.462 609.033H474.717C474.258 608.536 473.64 608.216 472.971 608.128V604.537C473.59 604.447 474.156 604.135 474.565 603.661C474.975 603.186 475.201 602.58 475.201 601.953V601.953Z" fill="#1B2745"/>
<path d="M482.587 598.725V597.75H482.332V598.725C480.118 598.783 478.244 600.332 477.54 602.482H477.552C477.618 602.34 477.724 602.22 477.857 602.135C477.989 602.051 478.143 602.006 478.3 602.006C478.457 602.006 478.61 602.051 478.743 602.135C478.875 602.22 478.981 602.34 479.048 602.482H479.21C479.277 602.34 479.383 602.22 479.515 602.135C479.648 602.051 479.801 602.006 479.958 602.006C480.115 602.006 480.269 602.051 480.401 602.135C480.534 602.22 480.64 602.34 480.706 602.482H480.866C480.93 602.345 481.031 602.228 481.157 602.144C481.283 602.06 481.43 602.012 481.581 602.006C481.732 601.999 481.882 602.035 482.015 602.108C482.147 602.182 482.257 602.29 482.332 602.422V606.934H482.212C482.212 606.934 482.071 608.499 482.629 608.894C483.002 609.156 483.683 609.052 483.91 608.662C484.165 608.23 484.174 607.819 483.954 607.87C483.734 607.921 483.852 608.453 483.53 608.599C483.136 608.778 482.796 608.641 482.745 608.167C482.715 607.752 482.711 607.336 482.731 606.92H482.587V602.371C482.669 602.249 482.781 602.152 482.913 602.088C483.045 602.024 483.191 601.997 483.336 602.008C483.482 602.019 483.622 602.069 483.743 602.153C483.863 602.236 483.959 602.35 484.021 602.482H484.148C484.215 602.34 484.321 602.22 484.453 602.135C484.586 602.051 484.74 602.006 484.897 602.006C485.053 602.006 485.207 602.051 485.34 602.135C485.472 602.22 485.578 602.34 485.645 602.482H485.807C485.874 602.34 485.979 602.22 486.112 602.135C486.244 602.051 486.398 602.006 486.555 602.006C486.712 602.006 486.866 602.051 486.998 602.135C487.13 602.22 487.236 602.34 487.303 602.482H487.38C486.675 600.332 484.802 598.783 482.587 598.725Z" fill="#1B2745"/>
<path d="M493.112 600.301L491.02 597.783L488.931 600.301H490.247V607.66H491.794V600.301H493.112Z" fill="#1B2745"/>
<path d="M497.713 600.301L495.622 597.783L493.53 600.301H494.848V607.66H496.396V600.301H497.713Z" fill="#1B2745"/>
<path opacity="0.6" d="M398.231 609.109V585.829L438.624 557.988L445.867 558.262L409.09 586.95L408.823 609.622L398.231 609.109Z" fill="#1A2644"/>
<path opacity="0.6" d="M359.151 570.339L520.869 578.067V600.586L527.521 594.204V572.329L366.06 566.983L359.151 570.339Z" fill="#1A2644"/>
<path d="M550.702 528.267L571.449 549.922L592.71 528.267L575.655 508.475L550.702 528.267Z" fill="#454F66"/>
<path d="M473.062 525.469L513.298 519.896C513.298 519.896 542.377 502.646 541.492 503.176C540.607 503.705 506.516 507.045 506.516 507.045L473.062 525.469Z" fill="#454F66"/>
</g>
<g clip-path="url(#clip3)">
<path d="M490.67 207L442.991 185.173V133.398L490.67 148.191V207Z" fill="#253354"/>
<path d="M526.645 181.323L490.669 207V148.191L526.645 126.169V181.323Z" fill="#1E2A47"/>
<path d="M442.991 133.398L490.67 148.191L526.646 126.169L479.396 116.107L442.991 133.398Z" fill="#3C465E"/>
<path d="M465.443 140.363L497.8 120.026L498.903 120.262L466.83 140.794L465.443 140.363Z" fill="#1B2848"/>
<path d="M442.991 133.398L429 151.37L477.137 170.2L490.669 148.191L442.991 133.398Z" fill="#3C465E"/>
<path d="M479.396 116.107L492.256 99L543 104.935L526.646 126.169L479.396 116.107Z" fill="#1B2848"/>
<path d="M491.549 147.651L443.801 133.014L442.991 133.398L490.67 148.191L491.549 147.651Z" fill="#1B2848"/>
<path d="M479.396 116.107L526.646 126.169L525.907 126.621L478.974 116.308L479.396 116.107Z" fill="#1B2848"/>
<path d="M472.735 181.452V192.741L481.772 196.699V183.664L472.735 181.452Z" fill="white"/>
<path d="M473.199 182.116L480.992 184.115V184.53L473.199 182.504V182.116Z" fill="#4C402C"/>
<path d="M473.199 183.032L480.992 185.029V185.446L473.199 183.42V183.032Z" fill="#4C402C"/>
<path d="M473.199 184.095L480.992 186.094V186.511L473.199 184.484V184.095Z" fill="#4C402C"/>
<path d="M473.199 185.123L480.992 187.12V187.538L473.199 185.511V185.123Z" fill="#4C402C"/>
<path d="M473.199 189.909L476.969 191.082L476.956 191.553L473.199 190.298V189.909Z" fill="#4C402C"/>
<path d="M473.199 190.589L476.969 191.761L476.956 192.232L473.199 190.977V190.589Z" fill="#4C402C"/>
<path d="M473.199 191.41L476.969 192.583L476.956 193.054L473.199 191.799V191.41Z" fill="#4C402C"/>
</g>
</g>
<defs>
<filter id="filter0_f" x="1717.77" y="217.467" width="130.07" height="115.198" filterUnits="userSpaceOnUse" color-interpolation-filters="sRGB">
<feFlood flood-opacity="0" result="BackgroundImageFix"/>
<feBlend mode="normal" in="SourceGraphic" in2="BackgroundImageFix" result="shape"/>
<feGaussianBlur stdDeviation="2" result="effect1_foregroundBlur"/>
</filter>
<filter id="filter1_f" x="1640.82" y="292.799" width="82.3454" height="79.6056" filterUnits="userSpaceOnUse" color-interpolation-filters="sRGB">
<feFlood flood-opacity="0" result="BackgroundImageFix"/>
<feBlend mode="normal" in="SourceGraphic" in2="BackgroundImageFix" result="shape"/>
<feGaussianBlur stdDeviation="0.5" result="effect1_foregroundBlur"/>
</filter>
<filter id="filter2_f" x="1381.39" y="373.932" width="7.68338" height="14.9075" filterUnits="userSpaceOnUse" color-interpolation-filters="sRGB">
<feFlood flood-opacity="0" result="BackgroundImageFix"/>
<feBlend mode="normal" in="SourceGraphic" in2="BackgroundImageFix" result="shape"/>
<feGaussianBlur stdDeviation="0.5" result="effect1_foregroundBlur"/>
</filter>
<filter id="filter3_f" x="1355.29" y="392.463" width="15.2528" height="5.46903" filterUnits="userSpaceOnUse" color-interpolation-filters="sRGB">
<feFlood flood-opacity="0" result="BackgroundImageFix"/>
<feBlend mode="normal" in="SourceGraphic" in2="BackgroundImageFix" result="shape"/>
<feGaussianBlur stdDeviation="0.5" result="effect1_foregroundBlur"/>
</filter>
<filter id="filter4_f" x="1366.62" y="377.711" width="10.2548" height="13.817" filterUnits="userSpaceOnUse" color-interpolation-filters="sRGB">
<feFlood flood-opacity="0" result="BackgroundImageFix"/>
<feBlend mode="normal" in="SourceGraphic" in2="BackgroundImageFix" result="shape"/>
<feGaussianBlur stdDeviation="0.5" result="effect1_foregroundBlur"/>
</filter>
<filter id="filter5_f" x="237.158" y="110.326" width="7.64197" height="16.2174" filterUnits="userSpaceOnUse" color-interpolation-filters="sRGB">
<feFlood flood-opacity="0" result="BackgroundImageFix"/>
<feBlend mode="normal" in="SourceGraphic" in2="BackgroundImageFix" result="shape"/>
<feGaussianBlur stdDeviation="0.5" result="effect1_foregroundBlur"/>
</filter>
<filter id="filter6_f" x="257.238" y="132.191" width="16.5226" height="5.14436" filterUnits="userSpaceOnUse" color-interpolation-filters="sRGB">
<feFlood flood-opacity="0" result="BackgroundImageFix"/>
<feBlend mode="normal" in="SourceGraphic" in2="BackgroundImageFix" result="shape"/>
<feGaussianBlur stdDeviation="0.5" result="effect1_foregroundBlur"/>
</filter>
<filter id="filter7_f" x="250.373" y="115.217" width="11.2249" height="14.6981" filterUnits="userSpaceOnUse" color-interpolation-filters="sRGB">
<feFlood flood-opacity="0" result="BackgroundImageFix"/>
<feBlend mode="normal" in="SourceGraphic" in2="BackgroundImageFix" result="shape"/>
<feGaussianBlur stdDeviation="0.5" result="effect1_foregroundBlur"/>
</filter>
<filter id="filter8_f" x="1393" y="182.603" width="123" height="91.0481" filterUnits="userSpaceOnUse" color-interpolation-filters="sRGB">
<feFlood flood-opacity="0" result="BackgroundImageFix"/>
<feBlend mode="normal" in="SourceGraphic" in2="BackgroundImageFix" result="shape"/>
<feGaussianBlur stdDeviation="1.5" result="effect1_foregroundBlur"/>
</filter>
<filter id="filter9_f" x="1622.58" y="598.521" width="20.4421" height="16.752" filterUnits="userSpaceOnUse" color-interpolation-filters="sRGB">
<feFlood flood-opacity="0" result="BackgroundImageFix"/>
<feBlend mode="normal" in="SourceGraphic" in2="BackgroundImageFix" result="shape"/>
<feGaussianBlur stdDeviation="2" result="effect1_foregroundBlur"/>
</filter>
<clipPath id="clip0">
<rect width="1920" height="675" fill="white"/>
</clipPath>
<clipPath id="clip1">
<rect width="374" height="119" fill="white" transform="translate(1404 17.7805) rotate(-2.87833)"/>
</clipPath>
<clipPath id="clip2">
<rect width="100" height="79" fill="white" transform="translate(366 83)"/>
</clipPath>
<clipPath id="clip3">
<rect width="114" height="108" fill="white" transform="translate(429 99)"/>
</clipPath>
</defs>
</svg>
