<svg width="375" height="680" viewBox="0 0 375 680" fill="none" xmlns="http://www.w3.org/2000/svg">
<g clip-path="url(#clip0)">
<rect width="375" height="680" transform="matrix(1 0 0 -1 0 680)" fill="white"/>
<path d="M212.396 400.426L166.327 320.416C166.327 322.564 202.431 383.779 212.396 400.579V400.426Z" fill="#C2D5E5"/>
<path d="M212.396 532.907L166.327 570.189C166.327 570.189 188.863 552.315 212.396 533.444V532.907Z" fill="#B9D0E2"/>
<path d="M212.396 341.358C189.017 330.235 166.327 319.572 166.327 320.416L212.396 341.972V341.358Z" fill="#C2D5E5"/>
<path d="M212.396 485.959L166.327 483.351L212.396 486.496V485.959Z" fill="#B9D0E2"/>
<path d="M195.528 638.89L166.327 685.027L212.396 685.717H240.381L195.528 638.89Z" fill="#D3E1ED"/>
<path d="M260.457 628.243L195.018 638.635L240.077 685.777L260.457 628.243Z" fill="#E1EAF2"/>
<path d="M213.31 597.193L166.328 570.266L195.529 638.635L261.37 628.243L213.31 597.193Z" fill="#D0DFEB"/>
<path d="M271.457 489.435C247.925 508.306 166.327 570.266 166.327 570.266L260.761 628.548L271.457 489.435Z" fill="#E1EAF2"/>
<path d="M284.841 372.278L404.191 320.464L271.378 489.991L284.841 372.278Z" fill="#E6EEF5"/>
<path d="M214.83 486.082L166.327 483.351V570.266L213.309 534.484L271.457 489.708L214.83 486.082Z" fill="#B9D0E2"/>
<path d="M215.134 405.109L166.327 483.351L212.396 485.96L271.457 489.708L215.134 405.109Z" fill="#C2D5E5"/>
<path d="M285.098 372.278L166.328 320.416L215.135 405.109L285.098 372.278Z" fill="#C2D5E5"/>
<path d="M192.21 198.366L166.25 320.416C166.25 319.572 188.939 330.235 212.319 341.358L285.352 372.533L192.21 198.366Z" fill="#ADC7DC"/>
<path d="M-14.1146 646.287L-68.7686 698.912L32.1842 602.408L-14.1146 646.287Z" fill="#D0DFEB"/>
<path d="M75.6465 724.84C75.6465 724.84 106.461 654.265 106.461 653.805L75.6465 724.84Z" fill="#C2D5E5"/>
<path d="M121.025 333.533L80.3219 343.813L-20.6309 372.196C-20.6309 372.273 65.6811 348.339 121.025 333.533Z" fill="#C2D5E5"/>
<path d="M-52.6714 465.324C-47.0757 477.061 32.184 602.485 32.184 602.485L-53.0547 464.404L-52.9014 464.711C-52.9014 464.864 -52.8247 465.094 -52.6714 465.324Z" fill="#E1EAF2"/>
<path d="M106.461 653.805L32.1836 602.408C34.1766 604.249 106.461 653.805 106.461 653.805Z" fill="#ADC7DC"/>
<path d="M-69.8418 559.143L32.184 602.408L-8.13573 585.302L-69.8418 559.143Z" fill="#E1EAF2"/>
<path d="M0.832125 463.33L-20.6309 372.273L32.1834 602.408L0.832125 463.33Z" fill="#E6EEF5"/>
<path d="M106.461 653.805C106.461 654.189 75.6465 724.84 75.6465 724.84L130.3 701.06L106.461 653.805Z" fill="#E6EEF5"/>
<path d="M166.327 685.564L106.461 653.805L76.1025 724.441L166.327 685.564Z" fill="#ADC7DC"/>
<path d="M166.327 685.564V685.027L195.783 638.89L106.461 653.805L166.327 685.564Z" fill="#E1EAF2"/>
<path d="M71.8905 685.947L24.2119 729.827L75.6465 724.84L106.461 653.805L71.8905 685.947Z" fill="#C2D5E5"/>
<path d="M-7.0625 695.153L71.8906 685.947L32.1841 602.408L-7.0625 695.153Z" fill="#C2D5E5"/>
<path d="M-68.7686 698.912L-7.06245 695.153L32.1842 602.408L-68.7686 698.912Z" fill="#D0DFEB"/>
<path d="M71.8901 685.947L106.461 653.805C106.461 653.805 34.1766 604.249 32.1836 602.408L71.8901 685.947Z" fill="#B9D0E2"/>
<path d="M106.461 653.805C106.461 653.805 113.973 545.181 113.973 543.494L32.1836 602.408L106.461 653.805Z" fill="#ADC7DC"/>
<path d="M106.461 653.805L167.103 569.536L113.896 543.57C113.973 545.181 106.461 653.805 106.461 653.805Z" fill="#C2D5E5"/>
<path d="M195.783 639.146L166.327 570.266V569.729L106.461 653.805L195.783 639.146Z" fill="#E6EEF5"/>
<path d="M166.327 569.729V483.888C166.327 484.425 113.014 543.838 113.014 543.838L166.327 569.729Z" fill="#E1EAF2"/>
<path d="M-69.8414 559.143L-106.348 646.288H-14.0376L32.2611 602.408L-69.8414 559.143Z" fill="#D3E1ED"/>
<path d="M113.973 543.494L89.6738 451.593L32.1836 602.408L113.973 543.494Z" fill="#E1EAF2"/>
<path d="M285.097 372.278L214.83 405.109L271.408 489.736L280.229 422.765C280.229 422.765 284.407 373.659 285.097 372.278Z" fill="#ADC7DC"/>
<path d="M-52.9785 464.48L-69.7656 559.143L-8.05946 585.301L32.2603 602.408C32.1837 602.408 -47.3828 476.217 -52.9785 464.48Z" fill="#B9D0E2"/>
<path d="M113.973 543.494C113.973 543.494 166.327 484.425 166.327 483.888L89.6738 451.593L113.973 543.494Z" fill="#E6EEF5"/>
<path d="M32.184 602.408L-20.6303 372.273L-53.0547 464.404L32.184 602.408Z" fill="#E6EEF5"/>
<path d="M166.327 483.889V483.352V320.482C163.798 329.381 89.6738 451.593 89.6738 451.593L166.327 483.889Z" fill="#D0DFEB"/>
<path d="M32.1834 602.408L89.6735 451.593L0.832031 463.33L32.1834 602.408Z" fill="#D3E1ED"/>
<path d="M89.6736 451.593L-20.6309 372.273L0.832137 463.33L89.6736 451.593Z" fill="#D0DFEB"/>
<path d="M-20.6309 372.273L89.6736 451.67C89.6736 451.67 163.754 329.654 166.284 320.756L121.025 333.61C65.681 348.339 -20.6309 372.273 -20.6309 372.273Z" fill="#C2D5E5"/>
<path d="M166.328 483.352V319.415C166.328 321.639 205.17 388.309 215.135 405.109L212.701 409.067L166.328 483.352Z" fill="#E1EAF2"/>
<path d="M5.67279 146.27L-20.6309 372.273L61.0472 264.509L5.67279 146.27Z" fill="#E6EEF5"/>
<path d="M60.7918 263.743L-19.8457 371.767L120.936 333.878L166.01 321.029L60.7918 263.743Z" fill="#E1EAF2"/>
<path d="M61.0479 263.88L167.05 321.713L192.211 198.366L61.0479 263.88Z" fill="#D3E1ED"/>
<path d="M192.211 198.366L285.096 372.233L398.251 324.44L192.211 198.366Z" fill="#D3E1ED"/>
<path d="M469.305 402.158L271.457 489.708L410.294 515.399L469.305 402.158Z" fill="#B9D0E2"/>
<path d="M398.251 325.353L271.457 489.708L467.604 403.892L398.251 325.353Z" fill="#C4D7E6"/>
<path d="M-95.124 244.59L-20.6302 372.273L5.67287 145.504L-95.124 244.59Z" fill="#D3E1ED"/>
<path d="M416.359 715.926L386.721 669.645L325.71 702.827L416.359 715.926Z" fill="#B9D0E2"/>
<path d="M348.301 749.08C338.851 729.639 325.686 702.154 325.819 702.675L240.041 685.725L357.78 768.014C357.199 766.658 353.063 758.791 348.301 749.08Z" fill="#E6EEF5"/>
<path d="M259.544 628.547L240.041 685.725L325.691 702.751C325.71 702.826 260.385 629.679 259.544 628.547Z" fill="#D0DFEB"/>
<path d="M325.71 702.826L309.01 620.007L259.24 628.547L325.71 702.826Z" fill="#C4D7E6"/>
<path d="M325.71 702.826L386.721 669.645L309.011 620.007L325.71 702.826Z" fill="#ADC7DC"/>
<path d="M386.389 669.947L473.992 650.769L435.057 601.15L386.389 669.947Z" fill="#ADC7DC"/>
<path d="M309.01 620.007L386.72 669.645L436.578 599.628L309.01 620.007Z" fill="#B9D0E2"/>
<path d="M260.457 628.852L309.011 620.007L271.457 489.434L260.457 628.852Z" fill="#D3E1ED"/>
<path d="M410.907 514.915L309.01 620.007L397.511 607.849C397.511 607.849 435.075 601.834 435.056 601.759C435.546 598.706 410.578 516.424 410.907 514.915Z" fill="#D3E1ED"/>
<path d="M410.907 514.915L271.457 489.708L309.01 620.007L410.907 514.915Z" fill="#C4D7E6"/>
<path d="M398.251 325.962L381.811 243.823L192.211 198.366L398.251 325.962Z" fill="#E6EEF5"/>
<path d="M310.87 147.063L430.221 198.876L297.346 29.3078L310.87 147.063Z" fill="#E6EEF5"/>
<path d="M240.858 33.2576L171.796 43.8905L192.355 -50.9258L239.337 -15.1439L297.486 29.6323L240.858 33.2576Z" fill="#ADC7DC"/>
<path d="M241.162 114.231L171.796 43.8904L238.424 33.3804L297.486 29.6322L241.162 114.231Z" fill="#C2D5E5"/>
<path d="M311.126 147.062L191.956 198.367L241.163 114.231L311.126 147.062Z" fill="#C2D5E5"/>
<path d="M192.357 -50.3886L171.796 44.1459C171.796 43.6089 139.043 -24.4979 139.043 -24.4979L192.357 -50.3886Z" fill="#E1EAF2"/>
<path d="M140.002 -24.1534L115.703 67.7474L58.2129 -83.0681L140.002 -24.1534Z" fill="#E1EAF2"/>
<path d="M-26.2249 55.8668L-43.7373 -39.8028L17.9689 -65.9616L58.2886 -83.0683C58.212 -83.0683 -20.6292 44.1299 -26.2249 55.8668Z" fill="#E1EAF2"/>
<path d="M140.002 -24.1533C140.002 -24.1533 171.797 43.6089 171.797 44.1459L115.703 67.7474L140.002 -24.1533Z" fill="#E6EEF5"/>
<path d="M59.261 -85.1008L5.39806 147.068L-27.0264 54.9365L59.261 -85.1008Z" fill="#E6EEF5"/>
<path d="M171.797 43.8903L192.357 198.858C189.827 189.959 115.703 67.747 115.703 67.747L171.797 43.8903Z" fill="#D0DFEB"/>
<path d="M58.2127 -83.0681L115.703 67.7474L26.8613 56.0105L58.2127 -83.0681Z" fill="#D3E1ED"/>
<path d="M115.702 67.7475L5.39746 147.068L26.8605 56.0106L115.702 67.7475Z" fill="#D0DFEB"/>
<path d="M5.39746 147.067L115.702 67.6704C115.702 67.6704 189.783 189.686 192.312 198.584L147.053 185.73C91.7093 171.001 5.39746 147.067 5.39746 147.067Z" fill="#C2D5E5"/>
<path d="M-27.026 54.9365L5.39845 147.068L-131.045 140.394L-27.026 54.9365Z" fill="#D0DFEB"/>
<path d="M171.796 43.8903L192.21 198.622C192.792 196.73 231.769 131.356 241.163 114.231L238.729 110.273L171.796 43.8903Z" fill="#E1EAF2"/>
<path d="M60.2818 264.764L5.67285 147.036L192.466 198.367L60.2818 264.764Z" fill="#E1EAF2"/>
<path d="M191.956 198.367L311.125 147.108L424.28 194.9L191.956 198.367Z" fill="#D3E1ED"/>
<path d="M495.333 117.182L297.485 29.6321L436.322 3.94053L495.333 117.182Z" fill="#B9D0E2"/>
<path d="M-95.1236 244.334L-131.045 140.393L5.39845 147.067L-95.1236 244.334Z" fill="#C4D7E6"/>
<path d="M424.28 193.987L297.486 29.6324L493.633 115.449L424.28 193.987Z" fill="#C4D7E6"/>
<path d="M436.936 4.42485L335.039 -100.667L423.54 -88.5087L461.173 -82.2654C461.173 -82.2654 436.608 2.91645 436.936 4.42485Z" fill="#D3E1ED"/>
<path d="M436.935 4.42482L297.485 29.6321L335.039 -100.667L436.935 4.42482Z" fill="#C7D9E8"/>
<path d="M423.916 194.281L192.211 198.367L382.832 244.59L423.916 194.281Z" fill="#ADC7DC"/>
<path d="M297.346 29.5631L240.951 114.348L310.871 147.036L297.346 29.5631Z" fill="#D3E1ED"/>
<path d="M336.389 -101.189L297.346 30.074L276.421 -131.835L336.389 -101.189Z" fill="#C2D5E5"/>
<path d="M191.956 -49.8588L276.421 -133.367L297.346 29.8185L191.956 -49.8588Z" fill="#B9D0E2"/>
</g>
<defs>
<clipPath id="clip0">
<rect width="375" height="680" fill="white" transform="matrix(1 0 0 -1 0 680)"/>
</clipPath>
</defs>
</svg>
