<svg width="1920" height="1080" viewBox="0 0 1920 1080" fill="none" xmlns="http://www.w3.org/2000/svg">
<g clip-path="url(#clip0)">
<rect width="1920" height="1080" fill="white"/>
<path d="M1130.55 263.112L1040.28 106.459C1040.28 110.665 1111.03 230.52 1130.55 263.412V263.112Z" fill="#C2D5E5"/>
<path d="M1130.55 892.574C1094.35 863.286 1040.28 819.429 1040.28 820.18V821.232L1130.55 893.024V892.574Z" fill="#B9D0E2"/>
<path d="M1130.55 522.496L1040.28 595.49C1040.28 595.49 1084.44 560.495 1130.55 523.547V522.496Z" fill="#B9D0E2"/>
<path d="M1130.55 147.462C1084.74 125.684 1040.28 104.807 1040.28 106.459L1130.55 148.664V147.462Z" fill="#C2D5E5"/>
<path d="M1130.55 430.577L1040.28 425.471L1130.55 431.629V430.577Z" fill="#B9D0E2"/>
<path d="M1162.74 915.373L1040.28 960.912L968 984.5L1040.28 1002.67L1149.03 1029.21L1162.74 915.373Z" fill="#ADC7DC"/>
<path d="M1129.59 1024.56L1040.29 1002.67L968.5 984.5L1130.5 1099.5L1149.03 1029.21L1129.59 1024.56Z" fill="#E1EAF2"/>
<path d="M1185.25 821.698L1040.28 820.331C1040.28 819.58 1125.35 887.277 1161.54 916.565L1185.25 821.698Z" fill="#B9D0E2"/>
<path d="M1130.55 789.582L1040.28 738.475V820.331L1130.55 821.683H1185.38L1130.55 789.582Z" fill="#D3E1ED"/>
<path d="M1224.72 709.154L1040.28 738.475L1184.79 821.799L1224.72 709.154Z" fill="#E1EAF2"/>
<path d="M1132.34 648.361L1040.28 595.641V738.475L1130.55 730.365L1226.51 709.154L1132.34 648.361Z" fill="#D0DFEB"/>
<path d="M1246.27 437.381C1200.16 474.329 1040.28 595.64 1040.28 595.64L1225.32 709.75L1246.27 437.381Z" fill="#E1EAF2"/>
<path d="M1272.5 208L1506.35 106.555L1246.12 438.471L1272.5 208Z" fill="#E6EEF5"/>
<path d="M1135.32 430.818L1000 410L1040.28 595.641L1132.34 525.583L1246.27 437.916L1135.32 430.818Z" fill="#B9D0E2"/>
<path d="M1135.92 272.28L1000 410L1130.55 430.577L1246.27 437.916L1135.92 272.28Z" fill="#C2D5E5"/>
<path d="M1273 208L1040.28 106.459L1135.92 272.281L1273 208Z" fill="#C2D5E5"/>
<path d="M1792.72 218.64L1630.59 269.845L1723.25 288.504L1792.72 218.64Z" fill="#D3E1ED"/>
<path d="M1623.5 837.5L1472 790L1528.96 880.935L1623.5 837.5Z" fill="#C2D5E5"/>
<path d="M1097.43 -8.43896H1064.92H1040.13V106.459C1040.13 104.807 1084.59 125.684 1130.4 147.462L1273.5 208.5L1097.43 -8.43896Z" fill="#ADC7DC"/>
<path d="M915.775 1171.48L1130.5 1099.5L967.5 983.5" fill="#E6EEF5"/>
<path d="M968.343 984.493L862.606 898.281L902.858 1099.39L901.807 1099.69L915.775 1171.48" fill="#D0DFEB"/>
<path d="M227.435 -8.43896C248.011 61.8518 267.386 127.787 267.386 127.787L227.735 -8.43896H227.435Z" fill="#ADC7DC"/>
<path d="M325.063 889.27L216.022 783.684C217.074 786.237 325.063 889.27 325.063 889.27Z" fill="#D0DFEB"/>
<path d="M579.64 847.516L456.932 855.776L700.546 840.156L579.64 847.516Z" fill="#D3E1ED"/>
<path d="M969.244 985.244L993.275 1004.77L969.545 985.094L969.244 985.244Z" fill="#D0DFEB"/>
<path d="M969.695 851.571L862.606 898.282L1040.29 821.382L969.695 851.571Z" fill="#E1EAF2"/>
<path d="M18.3645 964.216L37.8897 1074.31L3.64551 873.649L18.3645 964.216Z" fill="#D3E1ED"/>
<path d="M686.729 744.483L579.641 847.516L777.446 658.572L686.729 744.483Z" fill="#D0DFEB"/>
<path d="M647.378 923.664L456.932 855.777C460.386 858.78 647.378 923.664 647.378 923.664Z" fill="#D3E1ED"/>
<path d="M862.606 898.281C862.606 898.281 922.984 760.103 922.984 759.202L862.606 898.281Z" fill="#C2D5E5"/>
<path d="M788.861 1018.89C779.549 1012.58 646.627 922.012 647.378 923.514L788.861 1018.89Z" fill="#D3E1ED"/>
<path d="M456.932 855.776L487.721 888.969C470.149 869.895 457.983 856.828 456.932 855.776C456.932 855.776 456.932 855.626 456.932 855.776Z" fill="#ADC7DC"/>
<path d="M507.399 743.582L577.54 573.863C576.188 576.566 509.652 738.024 507.399 743.582Z" fill="#ADC7DC"/>
<path d="M113.587 26.406L406.615 221.057L267.386 127.787L113.587 26.406Z" fill="#B9D0E2"/>
<path d="M173.065 607.806L86.4033 553.736L86.5535 553.887C131.762 582.874 172.164 608.707 172.164 608.707L173.065 607.806Z" fill="#D0DFEB"/>
<path d="M-36.6074 474.584C-35.5561 475.485 2.59321 500.117 45.9993 527.903L-36.6074 474.584Z" fill="#D3E1ED"/>
<path d="M951.519 132.143L871.766 152.269L673.961 207.84C673.961 207.991 843.079 161.13 951.519 132.143Z" fill="#C2D5E5"/>
<path d="M789.161 1018.29C786.908 1007.47 761.825 908.044 761.825 908.044L789.161 1018.29Z" fill="#ADC7DC"/>
<path d="M-71 1083.32L18.3654 964.217L-45.1666 1047.12L-71 1082.87V1083.32Z" fill="#E1EAF2"/>
<path d="M611.181 390.175C622.145 413.155 777.445 658.722 777.445 658.722L610.43 388.373L610.73 388.974C610.73 389.274 610.88 389.725 611.181 390.175Z" fill="#E1EAF2"/>
<path d="M168.107 1099.39L179.823 1133.79L168.258 1099.39L123.35 965.268L146.479 1036.16L168.107 1099.39Z" fill="#C2D5E5"/>
<path d="M922.983 759.202L777.445 658.572C781.35 662.176 922.983 759.202 922.983 759.202Z" fill="#ADC7DC"/>
<path d="M88.3552 161.43L76.9404 222.709L77.8416 223.61C79.6439 213.097 83.549 189.216 88.3552 161.43Z" fill="#E6EEF5"/>
<path d="M324.762 455.96L577.538 573.863L435.905 507.327L324.762 455.96Z" fill="#C4D7E6"/>
<path d="M577.537 573.863L777.445 658.572L698.443 625.079L577.537 573.863Z" fill="#E1EAF2"/>
<path d="M716.015 386.27L673.961 207.99L777.445 658.572L716.015 386.27Z" fill="#E6EEF5"/>
<path d="M490.875 957.908L538.487 1099.39L456.932 855.777L490.875 957.908Z" fill="#ADC7DC"/>
<path d="M354.048 1028.2L345.637 987.948C349.992 1008.67 353.447 1025.35 354.048 1028.2Z" fill="#E1EAF2"/>
<path d="M968.343 984.493L968.5 984.5L1040.29 821.382L968.343 984.493Z" fill="#D3E1ED"/>
<path d="M212.116 349.923L324.762 455.96L212.417 350.223L212.116 349.923Z" fill="#E1EAF2"/>
<path d="M901.806 1099.69L903.008 1099.54L862.756 898.281C862.756 898.281 789.461 1021.74 789.461 1019.34" fill="#E1EAF2"/>
<path d="M789.699 1018.14L739.747 1099.39L721.573 1128.98L901.806 1099.69" fill="#E6EEF5"/>
<path d="M789.31 1019.34C789.31 1019.19 789.16 1018.89 789.16 1018.44V1018.59L789.31 1019.34Z" fill="#E6EEF5"/>
<path d="M788.861 1018.89L647.319 922.326L630.19 1048.11L789.311 1019.34L788.861 1018.89Z" fill="#D3E1ED"/>
<path d="M789.311 1019.34L631.908 1045.47L689.883 1099.39L721.574 1128.98L739.747 1099.39L789.311 1019.34Z" fill="#C2D5E5"/>
<path d="M456.932 855.777C457.983 856.828 470.149 869.895 487.571 888.819L531.878 936.731C531.878 936.731 630.706 1043.82 631.757 1045.47L647.378 923.664C647.378 923.664 460.386 858.78 456.932 855.777Z" fill="#E6EEF5"/>
<path d="M532.028 936.731L538.487 1099.54L631.907 1045.62C630.856 1043.82 532.028 936.731 532.028 936.731Z" fill="#D3E1ED"/>
<path d="M487.721 888.819L456.932 855.777L538.487 1099.39L532.029 936.731L487.721 888.819Z" fill="#ADC7DC"/>
<path d="M399.107 1099.39L376.277 1134.69L538.487 1099.39L490.875 957.909L399.107 1099.39Z" fill="#C2D5E5"/>
<path d="M345.639 987.947L354.05 1028.2L354.35 1028.35L369.069 1099.54L376.278 1134.69L399.108 1099.54L492.628 957.653L324.557 888.07C324.707 886.868 337.078 946.494 345.639 987.947Z" fill="#E1EAF2"/>
<path d="M490.876 957.908L456.932 855.777L325.062 889.27L490.876 957.908Z" fill="#B9D0E2"/>
<path d="M345.638 987.947C337.077 946.494 325.062 888.219 325.062 889.27L252.668 985.845L356.673 1032.05C356.222 1029.2 349.994 1008.67 345.638 987.947Z" fill="#E6EEF5"/>
<path d="M354.349 1028.35L354.049 1028.2H353.899L252.668 985.695L347.14 1099.39L376.278 1134.69L369.068 1099.39L354.349 1028.35Z" fill="#D3E1ED"/>
<path d="M216.022 783.684L252.297 989.234L325.063 889.12C325.063 889.27 217.074 786.237 216.022 783.684Z" fill="#D0DFEB"/>
<path d="M123.35 965.268L252.667 985.694L216.019 783.684L123.35 965.268Z" fill="#E1EAF2"/>
<path d="M252.667 985.695L123.35 965.268L168.258 1099.39L179.823 1133.79V1133.94L180.423 1135.44L197.696 1099.39L252.667 985.695Z" fill="#C2D5E5"/>
<path d="M123.351 965.268L37.8906 1074.31L146.481 1036.16L123.351 965.268Z" fill="#C2D5E5"/>
<path d="M3.64551 873.649L37.8897 1074.31L123.35 965.268L3.64551 873.649Z" fill="#D3E1ED"/>
<path d="M142.875 815.675L3.64551 873.65L123.35 965.268L216.02 783.684L142.875 815.675Z" fill="#C9D9E6"/>
<path d="M-71 1096.99L37.8906 1074.31L3.5 874L-71 1083.32V1096.99Z" fill="#C7D6E3"/>
<path d="M1040.29 819.556L968.5 984.5L1040.29 960.912L1130.55 929.522L1162.14 915.969L1040.29 819.556Z" fill="#D3E1ED"/>
<path d="M862.606 898.282L968.343 984.493L1040.29 821.382L862.606 898.282Z" fill="#E1EAF2"/>
<path d="M325.063 889.27L333.324 724.056L216.022 783.683L325.063 889.27Z" fill="#C4D7E6"/>
<path d="M24.6727 723.306C25.5738 725.559 3.64551 873.8 3.64551 873.8L142.875 815.675L216.17 783.834L24.6727 723.306Z" fill="#D3E1ED"/>
<path d="M325.062 889.27L456.932 855.777L333.322 724.056L325.062 889.27Z" fill="#C2D5E5"/>
<path d="M788.86 1018.89L789.461 1019.19L789.311 1018.29L762.126 907.894L647.678 923.364C646.476 922.012 779.548 1012.58 788.86 1018.89Z" fill="#C2D5E5"/>
<path d="M789.162 1019.74C789.162 1022.15 865.169 897.169 865.169 897.169L761.825 907.894C761.825 908.044 787.059 1009.08 789.162 1019.74Z" fill="#ADC7DC"/>
<path d="M1447.63 1113.25L1415.42 982.811L1326.64 1102.52L1447.63 1113.25Z" fill="#ADC7DC"/>
<path d="M922.984 759.202C922.984 759.953 862.606 898.281 862.606 898.281L969.695 851.721L922.984 759.202Z" fill="#E6EEF5"/>
<path d="M1040.28 821.382L922.983 759.202L969.694 851.571L1040.28 821.382Z" fill="#ADC7DC"/>
<path d="M1040.28 821.382V820.331V738.775L922.983 759.202L1040.28 821.382Z" fill="#E1EAF2"/>
<path d="M855.246 822.133L761.825 908.044L862.605 898.281L922.983 759.202L855.246 822.133Z" fill="#C2D5E5"/>
<path d="M647.378 923.664L761.826 908.044L700.547 840.156L647.378 923.664Z" fill="#E1EAF2"/>
<path d="M700.546 840.156L456.932 855.776L647.378 923.664L700.546 840.156Z" fill="#D3E1ED"/>
<path d="M761.825 908.044L855.246 822.133L700.546 840.157L761.825 908.044Z" fill="#B9D0E2"/>
<path d="M700.546 840.156L855.246 822.133L777.445 658.572L700.546 840.156Z" fill="#C2D5E5"/>
<path d="M579.641 847.516L700.547 840.156L777.446 658.572L579.641 847.516Z" fill="#D0DFEB"/>
<path d="M507.247 743.732L456.932 855.776L579.64 847.516L507.247 743.732Z" fill="#E6EEF5"/>
<path d="M507.246 743.732L579.64 847.516L686.728 744.483L507.246 743.732Z" fill="#C2D5E5"/>
<path d="M333.321 724.056L456.931 855.777L507.246 743.732L333.321 724.056Z" fill="#B9D0E2"/>
<path d="M855.246 822.133L922.983 759.202C922.983 759.202 781.35 662.176 777.445 658.572L855.246 822.133Z" fill="#B9D0E2"/>
<path d="M1159.76 915.969L1415.42 982.811C1415.42 982.811 1189.16 825.302 1185.25 821.698L1159.76 915.969Z" fill="#C2D5E5"/>
<path d="M922.983 759.202C922.983 759.202 937.702 546.527 937.702 543.223L777.445 658.572L922.983 759.202Z" fill="#ADC7DC"/>
<path d="M922.983 759.202L1041.8 594.212L937.552 543.373C937.702 546.527 922.983 759.202 922.983 759.202Z" fill="#C2D5E5"/>
<path d="M1040.28 738.775V738.475V595.64V594.589L922.983 759.202L1040.28 738.775Z" fill="#E6EEF5"/>
<path d="M1471 790L1623.27 837.607L1728 842.5L1471 790Z" fill="#D0DFEB"/>
<path d="M1728 842.5L1643.12 752.663L1470.5 790L1728 842.5Z" fill="#E6EEF5"/>
<path d="M-71 822.283V859.081L3.64641 873.65L-71 822.283Z" fill="#C4D7E6"/>
<path d="M24.6735 723.155L-71 721.954L-33 984L3.64639 873.8C3.64639 873.65 25.5747 725.408 24.6735 723.155Z" fill="#E1EAF2"/>
<path d="M-71 721.954L24.6736 723.155L-64.6919 667.584L-71 663.678V721.954Z" fill="#ADC7DC"/>
<path d="M-64.6924 667.584L24.673 723.155L172.163 608.708L-64.6924 667.584Z" fill="#D0DFEB"/>
<path d="M-47.5703 553.136L-64.6924 667.133V667.584L172.163 608.708L-47.5703 553.136Z" fill="#E1EAF2"/>
<path d="M172.165 608.707C172.165 608.707 131.763 582.874 86.5548 553.886L86.705 554.187L46.0025 527.903C2.59643 500.117 -35.5528 475.485 -36.6042 474.584L-47.5684 553.135L172.165 608.707Z" fill="#E6EEF5"/>
<path d="M1040.29 594.589L1000 409.5C1000 410.551 935.824 543.898 935.824 543.898L1040.29 594.589Z" fill="#E1EAF2"/>
<path d="M1817.93 1036.87L1728.09 985.919L1670.5 1195L1937.5 1156.5L1928.73 1101.1L1817.93 1036.87Z" fill="#D3E1ED"/>
<path d="M1930.34 951.23L1728.09 985.919L1930.34 1102V951.23Z" fill="#E1EAF2"/>
<path d="M1826.5 896.099L1728.09 842.5V985.919L1821.14 972.641L1933.01 952.836L1826.5 896.099Z" fill="#D0DFEB"/>
<path d="M1834.5 704L1728 842.5L1931.41 952.836L1834.5 704Z" fill="#E1EAF2"/>
<path d="M1671 1195L1728.09 986.219L1610.79 1006.65L1671 1195Z" fill="#E1EAF2"/>
<path d="M1610.79 1006.65L1728 842.5L1623 837.5C1623.15 840.654 1610.79 1006.65 1610.79 1006.65Z" fill="#C2D5E5"/>
<path d="M1728.09 986.219V985.919V842.308L1610.79 1006.65L1728.09 986.219Z" fill="#E6EEF5"/>
<path d="M23.2061 723.745L172.164 608.708L216.435 784.229L23.2061 723.745Z" fill="#C2D5E5"/>
<path d="M577.54 573.863L506.01 744.483H686.881L777.598 658.572L577.54 573.863Z" fill="#D3E1ED"/>
<path d="M937.702 543.223L890.091 363.291L777.445 658.572L937.702 543.223Z" fill="#E1EAF2"/>
<path d="M278.35 502.971L171.473 608.664L216.02 783.684L324.76 455.96L278.35 502.971Z" fill="#E6EEF5"/>
<path d="M610.729 388.974L611.18 390.025C610.88 389.725 610.729 389.274 610.729 388.974Z" fill="#7EA7C9"/>
<path d="M45.9998 527.904L86.7024 554.188L86.5522 553.887L86.402 553.737L85.5008 553.136L34.7353 448.451L-39.1602 286.992L-36.6069 474.585L45.9998 527.904Z" fill="#D3E1ED"/>
<path d="M171.472 609.735L278.35 502.971L85.501 553.136L86.4021 553.737L171.472 609.735Z" fill="#D0DFEB"/>
<path d="M216.022 783.684L333.324 724.056L324.763 455.96L216.022 783.684Z" fill="#D3E1ED"/>
<path d="M577.537 573.863L333.321 724.056L507.246 743.732C507.246 743.732 507.246 743.732 507.246 743.582C509.649 738.024 576.185 576.566 577.537 573.863Z" fill="#ADC7DC"/>
<path d="M1273 208L1135.32 272.281L1246.18 437.971L1263.46 306.849C1263.46 306.849 1271.65 210.703 1273 208Z" fill="#ADC7DC"/>
<path d="M610.73 388.974L610.43 388.373C610.43 388.523 610.58 389.124 611.03 390.025L610.73 388.974Z" fill="#E6EEF5"/>
<path d="M610.579 388.523L577.687 573.862L698.593 625.078L777.595 658.572C777.445 658.572 621.543 411.503 610.579 388.523Z" fill="#E1EAF2"/>
<path d="M1907.5 727L1834.5 704C1834.5 704 1929.29 950.649 1930.34 952.301L1907.5 727Z" fill="#C2D5E5"/>
<path d="M1988.14 647.203L1859.68 634.892L1833 705L1907.5 727L1988.14 647.203Z" fill="#D3E1ED"/>
<path d="M1859.68 634.892L1985.47 648.273L2034.71 463.609L1859.68 634.892Z" fill="#E1EAF2"/>
<path d="M1769.76 550.856L1859.68 634.892L1947.63 549.262L1769.76 550.856Z" fill="#C2D5E5"/>
<path d="M1822.21 328.188L1769.22 550.856L1947.79 549.262L2043.81 460.932L1822.21 328.188Z" fill="#D3E1ED"/>
<path d="M937.702 543.223C937.702 543.223 1000 410.551 1000 409.5L890.091 363.291L937.702 543.223Z" fill="#E6EEF5"/>
<path d="M-39.1602 286.992L34.7353 448.451L76.9398 222.709" fill="#E1EAF2"/>
<path d="M78.3372 222.742L88.3545 161.43C97.6665 107.06 109.682 38.121 112.836 27.6074L-39.1602 286.992" fill="#E6EEF5"/>
<path d="M577.538 573.862L324.762 455.96L333.323 724.056L577.538 573.862Z" fill="#C4D7E6"/>
<path d="M777.445 658.572L673.962 207.99L610.43 388.373L777.445 658.572Z" fill="#E6EEF5"/>
<path d="M1000 410L1040.28 106.59C1035.33 124.013 890.091 363.291 890.091 363.291L1000 410Z" fill="#D0DFEB"/>
<path d="M34.7354 448.451L85.5009 553.136L278.35 502.971L34.7354 448.451Z" fill="#C2D5E5"/>
<path d="M324.76 455.96L34.7354 448.451L278.35 502.971L324.76 455.96Z" fill="#E1EAF2"/>
<path d="M777.446 658.572L890.091 363.291L716.017 386.27L777.446 658.572Z" fill="#D3E1ED"/>
<path d="M577.537 573.862C577.537 573.712 577.537 573.712 577.537 573.862L611.991 385.461L435.904 507.326L577.537 573.862Z" fill="#E6EEF5"/>
<path d="M34.7354 448.45L324.76 455.96L212.114 349.923" fill="#D0DFEB"/>
<path d="M212.116 349.924L75.6615 222.207L33.376 449.692" fill="#D3E1ED"/>
<path d="M890.09 363.291L673.961 207.99L716.015 386.27L890.09 363.291Z" fill="#D0DFEB"/>
<path d="M673.961 207.99L890.09 363.441C890.09 363.441 1035.24 124.548 1040.2 107.125L951.519 132.293C843.079 161.13 673.961 207.99 673.961 207.99Z" fill="#C2D5E5"/>
<path d="M1821.14 328.188L2032.57 457.721C2032.57 457.721 2176.95 250.869 2181.91 233.447L2095.2 254.322C1986.76 283.159 1821.14 328.188 1821.14 328.188Z" fill="#C2D5E5"/>
<path d="M-71 -7.53809V105.708L-39.1589 286.992L112.837 27.6073C112.988 26.8563 115.12 24.3105 115.27 24.1603L-71 -7.53809Z" fill="#D5E2ED"/>
<path d="M610.431 388.373L406.617 221.057L324.762 455.961L610.431 388.373Z" fill="#D3E1ED"/>
<path d="M435.905 507.327L610.431 388.373L324.762 455.96L435.905 507.327Z" fill="#E1EAF2"/>
<path d="M610.429 388.373L673.961 207.99L406.616 221.057L610.429 388.373Z" fill="#D0DFEB"/>
<path d="M84.9014 -8.43896H-71V-7.5378L113.288 26.2558L113.438 26.1056L84.9014 -8.43896Z" fill="#C2D5E5"/>
<path d="M1040.29 -8.43896H980.658L1040.29 109.764L1000 410L1131.15 280.029L1135.92 272.281C1116.39 239.388 1040.29 110.815 1040.29 106.459V-8.43896Z" fill="#E1EAF2"/>
<path d="M324.76 455.961L406.616 221.057L212.415 350.224L324.76 455.961Z" fill="#E1EAF2"/>
<path d="M704.901 -8.43896L673.961 207.991L871.766 152.269L720.371 -8.43896H704.901Z" fill="#E6EEF5"/>
<path d="M720.37 -8.43896L871.766 152.269L951.346 132.818L1039.66 107.661L742.899 -8.43896H720.37Z" fill="#E1EAF2"/>
<path d="M76.7314 224.347L212.115 349.924L212.415 350.224L113.588 26.4058L113.438 26.2556C113.438 26.2556 113.438 26.2556 113.287 26.4058C113.137 26.556 112.987 27.0066 112.837 27.6074C109.683 38.1209 97.6672 107.06 88.3552 161.43C83.6992 189.216 78.5338 213.834 76.7314 224.347Z" fill="#E1EAF2"/>
<path d="M84.9014 -8.43896L113.438 26.2558L113.588 26.406C113.588 26.406 118.094 12.2878 124.853 -8.43896H84.9014V-8.43896Z" fill="#ADC7DC"/>
<path d="M212.415 350.224L406.616 221.057L266.935 128.238" fill="#E6EEF5"/>
<path d="M266.935 128.238L113.587 26.406L212.415 350.224" fill="#C4D7E6"/>
<path d="M742.9 -8.43896L1040.2 108.731L980.657 -8.43896H742.9Z" fill="#D3E1ED"/>
<path d="M1092.66 -10.0962L1273 207.912L1494.71 114.339L1092.66 -10.0962Z" fill="#D3E1ED"/>
<path d="M527.824 -8.43896L267.388 127.787L406.617 221.057L540.29 -8.43896H527.824Z" fill="#B9D0E2"/>
<path d="M1633.93 266.503L1246.27 437.916L1518.31 488.218L1633.93 266.503Z" fill="#B9D0E2"/>
<path d="M226.604 -8.43896L267.284 129.607L527.822 -8.43896H226.604Z" fill="#ADC7DC"/>
<path d="M540.289 -8.43896L406.616 221.057L673.961 207.991L551.103 -8.43896H540.289Z" fill="#C4D7E6"/>
<path d="M1630.59 269.844L1491.42 113.549L1691.4 150.099L1630.59 269.844Z" fill="#ADC7DC"/>
<path d="M1630.59 269.844L1688.94 149.946L1792.78 219.53L1630.59 269.844Z" fill="#C4D7E6"/>
<path d="M1494.71 116.127L1246.27 437.916L1630.6 269.897L1494.71 116.127Z" fill="#C4D7E6"/>
<path d="M551.104 -8.43896L673.962 207.991L704.902 -8.43896H551.104Z" fill="#D3E1ED"/>
<path d="M1694.82 70.728L1494.64 116.225L1446.46 -19.731L1694.82 70.728Z" fill="#D3E1ED"/>
<path d="M1630.59 269.844L1633.5 423.5L1724.18 287.777L1630.59 269.844Z" fill="#D3E1ED"/>
<path d="M124.703 -8.43896C117.944 12.2878 113.438 26.406 113.438 26.406L267.237 127.787C267.237 127.787 247.862 61.8518 227.285 -8.43896H124.703Z" fill="#D5E2ED"/>
<path d="M689.882 1099.39L631.907 1045.47L538.486 1099.39L721.573 1128.98L689.882 1099.39Z" fill="#ADC7DC"/>
<path d="M347.139 1099.39L252.667 985.695L197.696 1099.39L180.424 1135.44H183.278L311.994 1134.84L376.277 1134.69L347.139 1099.39Z" fill="#E6EEF5"/>
<path d="M1529.28 879.016L1611.21 1006.21L1623.5 837.5L1529.28 879.016Z" fill="#ADC7DC"/>
<path d="M1476.13 1040.57L1447.63 1113.84L1611.21 1006.21L1530.19 880.827L1476.13 1040.57Z" fill="#C2D5E5"/>
<path d="M1396.84 945.741L1414.92 982.677L1415.24 982.749L1428.56 1038.75L1447.63 1113.25L1476.17 1040.71L1530.09 881.01L1352.26 854.884C1352.1 853.682 1378.33 907.677 1396.84 945.741Z" fill="#E1EAF2"/>
<path d="M1530.19 880.827L1472.12 790.214L1352.58 855.181L1530.19 880.827Z" fill="#B9D0E2"/>
<path d="M1396.84 945.74C1378.33 907.676 1352.53 853.864 1352.79 854.883L1184.72 821.697L1415.42 982.81C1414.28 980.156 1406.17 964.754 1396.84 945.74Z" fill="#E6EEF5"/>
<path d="M1415.42 982.811L1160.35 915.373L1326.64 1103.12L1415.42 982.811Z" fill="#D3E1ED"/>
<path d="M1222.93 709.75L1184.72 821.698L1352.54 855.034C1352.58 855.18 1224.58 711.965 1222.93 709.75Z" fill="#D0DFEB"/>
<path d="M1352.58 855.18L1319.86 693.029L1222.34 709.75L1352.58 855.18Z" fill="#C4D7E6"/>
<path d="M1352.58 855.18L1472.12 790.214L1319.86 693.029L1352.58 855.18Z" fill="#ADC7DC"/>
<path d="M1471.5 790.5L1643.12 753.259L1567 657L1471.5 790.5Z" fill="#ADC7DC"/>
<path d="M1319.85 693.029L1472.12 790.214L1567 657L1319.85 693.029Z" fill="#B9D0E2"/>
<path d="M1224.72 710.346L1319.86 693.029L1246.27 437.381L1224.72 710.346Z" fill="#D3E1ED"/>
<path d="M1519.51 487.269L1319.86 693.029L1493.26 669.224L1567 657C1567 657 1518.87 490.223 1519.51 487.269Z" fill="#D3E1ED"/>
<path d="M1519.51 487.269L1246.27 437.916L1319.85 693.029L1519.51 487.269Z" fill="#C4D7E6"/>
<path d="M1671 1195L1611.21 1006.21L1446.44 1113.25L1671 1195Z" fill="#ADC7DC"/>
<path d="M1296.07 1066.02L1162.14 915.969L1148.43 1029.81L1130.5 1099.5L1260.93 1101.47H1325.45L1296.07 1066.02Z" fill="#E6EEF5"/>
<path d="M1838.01 149.503L1687.82 149.503C1687.82 148.752 1792.77 220.065 1792.77 220.065L1838.01 149.503Z" fill="#B9D0E2"/>
<path d="M1994.57 8.10247L1798.13 -10.0872C1798.13 -10.0872 1842.75 18.4239 1878.95 47.7117L1994.57 8.10247Z" fill="#B9D0E2"/>
<path d="M1783.93 118.366L1693.67 69.8857L1688.93 149.946L1783.93 153.093H1842.02L1783.93 118.366Z" fill="#D3E1ED"/>
<path d="M1878.1 40.5647L1693.67 69.8859L1838.17 153.21L1878.1 40.5647Z" fill="#E1EAF2"/>
<path d="M1785.72 -20.2281L1693.67 -72.9485V69.8859L1783.93 61.7755L1879.89 40.5647L1785.72 -20.2281Z" fill="#D0DFEB"/>
<path d="M1688.93 149.946L1693.67 70.186L1495.71 115.69L1688.93 149.946Z" fill="#E1EAF2"/>
<path d="M1791.52 221.62L2002.51 184.072C2002.51 184.072 1839.53 153.704 1835.63 150.099L1791.52 221.62Z" fill="#C2D5E5"/>
<path d="M1693.67 70.1862V69.8858V-72.9486V-74L1448.82 -11.4192L1693.67 70.1862Z" fill="#E6EEF5"/>
<path d="M1999.53 184.072L1792.78 218.995L1948.87 294.929L2004.2 278.944L1999.53 184.072Z" fill="#D3E1ED"/>
<path d="M1876.31 41.1603L1836.98 153.21L2005.92 186.444C2005.96 186.59 1877.96 43.3756 1876.31 41.1603Z" fill="#D0DFEB"/>
<path d="M2005.96 186.591L1993.5 7.03225L1875.74 40.7536L2005.96 186.591Z" fill="#C4D7E6"/>
<path d="M1950.14 293.931L1792.77 218.995L1821.92 328.305L1950.14 293.931Z" fill="#E6EEF5"/>
<path d="M179.824 1133.79L168.109 1099.39L123 965L37.8906 1074.31L96.3161 1099.39L180.425 1135.44L179.824 1133.94V1133.79Z" fill="#E1EAF2"/>
<path d="M196.5 1192.5C187.939 1162.76 181.927 1141.3 180.425 1135.44L96.4663 1099.39L37.8906 1074.31L-71 1096.99V1101.19L178.773 1135.29C176.52 1141.15 118.812 1296.81 109.5 1325.5L196.5 1192.5Z" fill="#D0DFEB"/>
<path d="M1728 842.5L1835 704L1642.62 753.395L1643.52 753.996L1728 842.5Z" fill="#D0DFEB"/>
<path d="M1517.96 487.251L1567 657L1634.06 422.968" fill="#E1EAF2"/>
<path d="M1633.5 423.5L1630.59 269.844L1518.19 487.695" fill="#E6EEF5"/>
<path d="M1567 657L1642.62 753.395L1835 704L1567 657Z" fill="#C2D5E5"/>
<path d="M1859.5 635L1567 657L1834.57 703.893L1859.5 635Z" fill="#E1EAF2"/>
<path d="M1567 657L1859.68 634.892L1769.23 550.182" fill="#D0DFEB"/>
<path d="M1769.23 550.182L1633.58 423.071L1567 657" fill="#D3E1ED"/>
<path d="M1633.5 423.5L1769.23 550.182L1769.53 550.483L1723.73 288.579L1633.5 423.5Z" fill="#E1EAF2"/>
<path d="M1822.75 328.188L1723.58 288.373L1769.53 550.483" fill="#C4D7E6"/>
<path d="M1723.19 288.578L1822.75 328.188C1822.75 328.188 1813.29 288.93 1792.72 218.64L1723.19 288.578Z" fill="#ADC7DC"/>
<path d="M1494.71 117.318L1452.4 -10.8232H1091.58L1494.71 117.318Z" fill="#E6EEF5"/>
<path d="M2018.12 715.181L1984.4 650.414L1907.5 726.5L2018.12 715.181Z" fill="#E1EAF2"/>
<path d="M1985.47 810.992V717.857L1907.5 726.5L1985.47 810.992Z" fill="#ADC7DC"/>
<path d="M1923.38 897.169L2000.99 828.121C2000.99 828.121 1911.41 730.105 1907.5 726.5L1923.38 897.169Z" fill="#B9D0E2"/>
</g>
<defs>
<clipPath id="clip0">
<rect width="1920" height="1080" fill="white"/>
</clipPath>
</defs>
</svg>
