<svg width="660" height="700" fill="none" xmlns="http://www.w3.org/2000/svg"><g filter="url(#filter0_d)"><path d="M358.968 693.43l288.623-107.055-297.369-115.83-287.457 109.98L358.968 693.43z" fill="#FFF5F7"/></g><g filter="url(#filter1_f)"><path d="M383.865 511.159l-191.273 72.159-68.02-25.023 191.832-66.69 67.461 19.554z" fill="url(#paint0_linear)"/></g><g clip-path="url(#clip0)"><path d="M356.243 647.3l-168.98-63.866-.058-204.638 169.038 63.865V647.3z" fill="#053866"/><path d="M526.983 582.424l-170.738-63.912-.775-204.665 2.916-2.422 168.586 65.893.011 205.106z" fill="#083556"/><path d="M356.245 647.3l170.669-64.929.058-205.265-170.669 64.402-.058 205.792z" fill="#054270"/><path d="M187.263 583.129l171.705-69.294-2.632-200.714-2.033-1.696-167.098 65.957.058 205.747z" fill="#063D66"/><g filter="url(#filter2_f)"><ellipse cx="355.713" cy="462.308" rx="116.858" ry="81.584" fill="url(#paint1_radial)"/></g><path d="M356.247 647.303l-168.979-63.869-.058-204.638 169.037 63.865v204.642z" fill="#053866"/><path d="M229.469 446.344l-42.201-16.086-.059-51.462 42.26 16.435v51.113z" fill="#053866"/><path d="M198.444 427.759a27.737 27.737 0 01-11.122-2.021l-.116-5.428c8.587 3.291 16.827 2.656 23.166-1.732 7.549-5.197 12.332-13.801 12.332-26.273l5.071 2.021c0 14.205-4.206 22.173-13.138 28.352a29.84 29.84 0 01-16.193 5.081z" fill="#FF8098"/><path d="M271.727 461.542l-42.259-16.169v-51.379l42.259 16.169v51.379z" fill="#0E2951"/><path d="M313.985 478.429l-42.26-16.17V410.88l42.26 16.111v51.438z" fill="#FF8098"/><path d="M356.244 493.622l-42.26-15.972v-51.571l42.547 15.847-.287 51.696zm-126.778 3.383l-42.26-16.111v-51.437l42.26 16.169v51.379z" fill="#911A31"/><path d="M271.727 512.204l-42.259-15.766v-50.094l42.259 15.765v50.095z" fill="#C43B55"/><path d="M313.985 529.09l-42.26-16.17v-51.378l42.26 16.169v51.379z" fill="#053866"/><path d="M356.244 544.288l-42.26-15.59.056-51.036 42.204 15.918v50.708z" fill="#132F7C"/><path d="M271.727 564.553l-42.259-16.111v-51.995l42.259 15.742v52.364z" fill="#FF8098"/><path d="M313.989 579.751l-42.26-16.17v-51.378l42.26 16.169v51.379z" fill="#0E2951"/><path d="M356.25 596.638l-42.259-15.99V529.09l42.259 15.991v51.557z" fill="#053866"/><path d="M229.466 599.327l-42.26-15.924v-51.624l42.26 15.887v51.661z" fill="#C43B55"/><path d="M271.727 615.214l-42.259-16.125v-51.423l42.259 16.125v51.423z" fill="#053866"/><path d="M313.985 631.147l-42.259-16.169v-51.379l42.259 16.17v51.378z" fill="#FF8098"/><path d="M356.244 647.3l-42.26-15.901v-51.648l42.26 16.598V647.3z" fill="#911A31"/><path d="M195.944 417.633c-3 .045-5.976-.54-8.738-1.72v-6.227c6.14 2.372 13.756 1.542 17.535-.949 6.317-4.211 9.387-10.735 9.387-19.809l5.196 2.076c0 11.15-3.956 17.97-11.041 22.893a22.061 22.061 0 01-12.339 3.736z" fill="#D6516B"/><path d="M192.923 405.812a13.696 13.696 0 01-5.717-1.126v-6.566c3.693 1.501 9.41 1.126 12.566-2.189 3.275-3.439 4.169-6.253 4.169-12.069l5.24 2.188c0 8.005-2.62 13.446-7.563 17.01a15.018 15.018 0 01-8.695 2.752z" fill="#C43B55"/><path d="M189.898 393.973a4.734 4.734 0 01-2.692-.554v-6.468c.897.37 3.813.616 4.934 0 1.963-1.108 1.963-3.264 1.01-6.467l5.887 2.156c0 4.496-1.458 7.638-4.205 9.732-1.473 1.038-3.184 1.593-4.934 1.601z" fill="#A62E41"/><path d="M355.588 588.195l-36.534-13.498v-87.825l37.188 13.267v7.125l-30.891-11.586v75.976l29.715 12.238.522 4.303z" fill="#C43B55"/><path d="M356.242 589.883l-37.188-14.747v-44.597l6.297 2.273v38.135l30.891 11.878v7.058z" fill="#F985A0"/><path d="M355.554 574.591l-26.356-8.322V502.07l27.047 9.597v7.242l-20.75-7.83v52.224l20.75 7.242-.691 4.046z" fill="#C43B55"/><path d="M355.554 560.394l-14.52-3.916v-35.832l15.214 5.284v7.065l-9.14-3.561v23.78l9.14 3.963-.694 3.217z" fill="#C43B55"/><path d="M356.248 562.864l-15.214-5.926v-18.285l6.074 2.205v11.897l9.14 2.963v7.146z" fill="#F985A0"/><path d="M356.245 576.374l-27.047-9.923V534.31l6.297 2.34v25.613l20.75 7.056v7.055z" fill="#F985A0"/><path d="M219.324 595.536l-32.118-12.133v-39.115l32.118 12.131v39.117z" fill="#053866"/><path d="M207.491 591.053l-20.285-7.65v-25.606l20.285 8.078v25.178z" fill="#FF8098"/><path d="M313.985 444.991l-15.458 26.683-26.802-29.045 15.458-26.683 26.802 29.045z" fill="#C43B55"/><path d="M303.845 444.378l-8.083 13.787-13.892-14.981 8.024-13.727 13.951 14.921z" fill="#911A31"/><path d="M313.985 631.028l-42.259-16.22v-41.196l42.259 16.161v41.255z" fill="#C43B55"/><path d="M313.985 630.687l-42.259-16.646v-30.638l42.259 16.585v30.699z" fill="#911A31"/><path d="M313.985 630.615l-42.259-16.562v-18.901l42.259 16.501v18.962z" fill="#053866"/><path d="M313.985 631.252l-42.259-16.146v-9.184l42.259 16.087v9.243z" fill="#0E2951"/><path d="M229.468 458.164l42.259 15.779-42.259 12.349 42.259 15.779-42.259-43.907z" fill="#911A31"/><path d="M192.277 483.495l-5.071-2.073v-51.965l5.071 2.074v51.964zm8.451 1.689l-5.07-2.007v-50.343l5.07 2.064v50.286zm27.046 10.131l-6.76-2.009v-50.341l6.76 2.009v50.341zm-10.142-3.377l-5.07-2.009v-50.341l5.07 2.009v50.341zm-8.45-3.377l-5.07-2.009v-50.341l5.07 2.009v50.341z" fill="#FF8098"/><path d="M229.466 547.666l-42.26-16.169v-51.379l42.26 16.111v51.437z" fill="#0E2951"/><path d="M229.466 547.666l-21.975-8.078v-25.696l21.975 8.077v25.697zm-21.975-33.774l-20.285-8.091v-25.683l20.285 7.664v26.11z" fill="#911A31"/><path fill-rule="evenodd" clip-rule="evenodd" d="M234.539 556.11l30.637 12.064-1.625 4.453-24.428-9.618v29.517l22.948 9.035v-22.155l-17.764-7.004v15.778l12.581 4.971v-9.514l-7.454-2.943v3.252l5.432 2.142-1.627 4.453-8.39-3.308v-13.445l16.623 6.565v19.705l-21.75-8.595V565.5l26.934 10.62v32.34l-32.117-12.646V556.11z" fill="#F985A0"/><path fill-rule="evenodd" clip-rule="evenodd" d="M352.861 603.309l-28.779 27.103-5.028-4.982 28.779-27.103 5.028 4.982z" fill="#0E2951"/><path fill-rule="evenodd" clip-rule="evenodd" d="M325.078 588.195l27.783 48.83-6.024 3.519-27.783-48.83 6.024-3.519z" fill="#0E2951"/><path d="M286.937 537.534l-6.761-2.827v-8.994l6.761 2.827v8.994zm8.451 15.198l-6.761-2.812v-9.009l6.761 2.811v9.01zm10.144 13.51l-6.761-2.423v-7.709l6.761 2.423v7.709z" fill="#911A31"/><path d="M356.53 441.926l170.44-64.818v205.498l-170.728 64.695.288-205.375z" fill="#053866"/><path d="M484.713 496.273l42.259-16.155v51.393l-42.259 16.155v-51.393z" fill="#911A31"/><path d="M440.763 512.77l43.95-15.765v50.152l-43.95 15.708V512.77z" fill="#C43B55"/><path d="M398.508 528.372l42.26-16.169v51.378l-42.26 16.17v-51.379z" fill="#053866"/><path d="M356.245 544.255l42.26-15.21v51.246l-42.26 16.347v-52.383z" fill="#132F7C"/><path d="M440.763 460.825l43.949-16.169v52.588l-43.949 15.665v-52.084z" fill="#FF8098"/><path d="M398.508 477.712l42.26-16.169v51.379l-42.26 16.169v-51.379z" fill="#0E2951"/><path d="M356.245 493.087l42.26-16.347v51.201l-42.26 16.348v-51.202z" fill="#053866"/><path d="M440.769 562.842l44.016-15.691-.293 51.428-43.723 16.686v-52.423z" fill="#0E2951"/><path d="M398.508 579.976l42.259-17.11v52.407l-42.259 15.963v-51.26z" fill="#FF8098"/><path d="M356.245 596.352l42.259-16.376v51.29l-42.259 16.031v-50.945z" fill="#911A31"/><path d="M484.711 393.321l42.259-16.213V428.5l-42.259 16.156v-51.335z" fill="#C43B55"/><path d="M440.759 410.164l43.949-16.169v51.379l-43.949 16.169v-51.379z" fill="#053866"/><path d="M398.5 426.646l42.259-15.765v50.095L398.5 476.741v-50.095z" fill="#FF8098"/><path d="M356.474 441.901l42.029-15.821v51.201l-42.26 16.347.231-51.727z" fill="#911A31"/><path d="M356.237 589.839v-6.952l30.959-12.494v-74.67l-30.45 11.162-2.196-5.668 38.879-14.344v87.684l-37.192 15.282z" fill="#C43B55"/><path d="M393.431 531.068l-6.229 2.072v-37.368l-30.959 11.502v-7.093l37.188-13.308v44.195z" fill="#F985A0"/><path d="M356.243 576.375v-7.1l20.991-8.543v-50.218l-20.991 8.139v-7.1l27.046-7.793v61.186l-27.046 11.429z" fill="#C43B55"/><path d="M356.237 562.914v-7.2l9.096-3.12v-23.367l-8.626 3.161-2.157-5.531 16.904-6.209v36.066l-15.217 6.2z" fill="#C43B55"/><path d="M371.457 538.926l-6.136 1.987v-11.637l-9.078 3.704v-7.06l15.214-5.272v18.278z" fill="#F985A0"/><path d="M383.289 534.623l-6.055 2.027v-25.884l-20.991 8.125v-7.225l27.046-9.594v32.551z" fill="#F985A0"/><path d="M504.994 385.23l21.974-8.122v25.71l-21.974 8.064V385.23z" fill="#FF8098"/><path d="M398.5 611.976l15.467-37.29 26.792 8.306-15.468 37.289-26.791-8.305z" fill="#C43B55"/><path d="M408.641 604.151l8.018-19.332 13.957 4.309-8.077 19.332-13.898-4.309z" fill="#911A31"/><path d="M398.5 426.624l42.259-15.743v40.042L398.5 466.608v-39.984z" fill="#C43B55"/><path d="M398.5 426.933l42.259-16.052v29.602L398.5 456.476v-29.543z" fill="#911A31"/><path d="M398.5 426.654l42.259-15.773v18.059L398.5 444.655v-18.001z" fill="#053866"/><path d="M398.5 426.99l42.259-16.109v9.222L398.5 436.212v-9.222z" fill="#0E2951"/><path d="M484.708 535.266l-43.949 15.779 43.949-43.906-43.949 15.779" fill="#911A31"/><path d="M526.966 532.124l-6.761 2.034v-51.947l6.761-2.092v52.005zm-8.452 2.252l-6.672 2.521-.088-51.392 6.76-2.009v50.88zm-25.356 9.593l-6.713 2.718-.048-51.05 6.634-2.009.127 50.341zm8.455-3.378l-6.761 3.159v-51.491l6.761-2.009v50.341zm8.451-3.377l-6.761 4.344v-52.676l6.761-2.009v50.341z" fill="#FF8098"/><path d="M484.711 445.627l42.259-16.169v51.379l-42.259 16.169v-51.379z" fill="#0E2951"/><path d="M484.711 546.95l42.259-16.17v51.379l-42.259 16.17V546.95z" fill="#053866"/><path d="M484.711 445.575l20.284-7.674v24.412l-20.284 7.674v-24.412z" fill="#911A31"/><path d="M489.864 596.621l-5.373 1.958c0-34.612 19.616-55.885 42.479-64.422v5.111c-20.63 7.724-37.106 33.949-37.106 57.353z" fill="#FF8098"/><path d="M501.586 592.215l-6.349 2.447c0-24.714 14.434-43.915 31.732-50.372v6.164c-15.114 5.694-25.383 23.621-25.383 41.761z" fill="#D6516B"/><path d="M511.842 588.298l-4.884 1.958c0-15.004 8.475-29.931 20.008-34.267v5.827c-8.983 3.423-15.124 15.7-15.124 26.482z" fill="#C43B55"/><path d="M521.995 584.476l-4.781 1.864c-1.028-8.127 3.541-16.222 9.768-18.602l-.017 6.58c-3.885 1.451-4.97 5.224-4.97 10.158z" fill="#A62E41"/><path fill-rule="evenodd" clip-rule="evenodd" d="M479.637 400.749v40.607l-30.557 11.743-1.7-4.555 27.456-10.552v-30.189l-24.205 9.302v22.666l18.777-7.178v-16.14l-13.35 5.102v9.672l7.864-3.019v-3.267l-3.984 1.535-1.704-4.554 10.489-4.04v13.691l-17.466 6.705v-20.093l22.952-8.772v26.55l-28.379 10.848v-33.07l33.807-12.992z" fill="#F985A0"/><path fill-rule="evenodd" clip-rule="evenodd" d="M359.622 483.225l29.211-50.39 6.287 3.648-29.212 50.39-6.286-3.648z" fill="#0E2951"/><path fill-rule="evenodd" clip-rule="evenodd" d="M388.445 476.741l-28.823-28.503 4.984-5.271 28.823 28.503-4.984 5.271z" fill="#0E2951"/><path d="M425.547 499.832l6.76-2.826V506l-6.76 2.827v-8.995zm-8.451-7.172l6.761-2.41v7.723l-6.761 2.41v-7.723zm-10.146-8.43l6.761-2.423v7.709l-6.761 2.423v-7.709z" fill="#911A31"/><path d="M494.852 389.703l32.117-12.595v39.874l-32.117 12.475v-39.754z" fill="#053866"/><path d="M504.993 462.879l21.975-8.092v26.302l-21.964 8.1-.011-26.31z" fill="#911A31"/><path opacity=".3" d="M187.893 377.747l168.451 63.874V647.52l-169.203-63.874.752-205.899z" fill="#000"/><path d="M589.516 314.565l-63.508 62.544-169.664-63.985 63.351-62.668 169.821 64.109z" fill="#084C80"/><path d="M356.531 441.926l-63.583 63.523-169.976-63.852 65.25-63.701 168.309 64.03z" fill="#094573"/><path d="M356.343 313.122L293.931 250l-169.764 64.347 63.392 63.995 168.784-65.22zm233.173 127.153l-63.397-63.169-169.874 64.879 63.746 63.463 169.525-65.173z" fill="#084C80"/></g><path fill-rule="evenodd" clip-rule="evenodd" d="M131.992 188.001l42.331 58.461-34.259 47.299 69.523 22.945-25.178 37.111 68.21-22.885 103.74 107.083 11.27-128.249 72.959 22.58 108.097 50.979-46.149-76.891 71.986-39.644-83.879-23.339 30.338-38.377 81.116-55.818-150.85-40.431-142.096-38.358-69.256 40.068-26.934 38.642-80.969 38.824zm81.613-39.118l26.275-37.697 1.979 24.84-28.254 12.857zm28.603-13.015l-1.994-25.022 60.601-1.647-58.607 26.669zm59.342-27.049l-60.826 1.652 68.2-39.456-7.374 37.804zm8.221-37.811l140.914 38.038-70.204 33.75-70.71-71.788zm71.09 72.005c11.83 5.597 28.223 12.264 44.08 18.527l42.662-2.991-16.509-49.3-70.233 33.764zm70.617-33.754l16.496 49.264 132.614-9.299-149.11-39.965zm147.033 42.027l-77.669 53.446-9.911-4.941 87.58-48.505zm-87.963 48.717l10.029 5-30.311 38.344-38.591-10.738 58.873-32.606zm-58.743 33.016l38.219 10.634-12.353 15.627-25.866-26.261zm26.121 26.52l12.475-15.781 82.596 22.982-82.197 5.869-12.874-13.07zm13.05 13.419l82.267-5.874-70.857 39.021-11.41-33.147zm11.235 33.634l44.991 74.961-63.146-67.357 18.155-7.604zm-18.51 7.752l63.747 67.999-106.352-50.155 42.605-17.844zm-43.16 17.611l-72.41-22.411 88.638-23.628-16.228 46.039zm15.732-46.28l-88.614 23.622-.169-42.177 88.783 18.555zm-88.479-19.169l45.847-67.334 37.228 33.434-83.075 33.9zm83.352-34.135l-37.169-33.382 61.495-16.231-24.326 49.613zm24.25-49.965l-61.703 16.285-20.511-34.563 31.702-2.223c4.394 1.736 8.746 3.44 12.947 5.081l4.454 1.739c8.02 3.131 15.306 5.974 21.034 8.294 3.386 1.371 6.225 2.557 8.349 3.511 1.062.477 1.944.895 2.624 1.247.471.244.839.454 1.104.629zm-49.678-20.559l42.003-2.945 7.742 23.119a14.175 14.175 0 00-1.005-.563 54.043 54.043 0 00-2.642-1.257c-2.13-.956-4.975-2.145-8.362-3.516-5.73-2.32-13.017-5.165-21.037-8.295l-4.455-1.74a3880.47 3880.47 0 01-12.244-4.803zm50.237 20.508l34.584 17.241 90.336-50.031-132.783 9.311 7.863 23.479zm-51.847-20.757l-31.132 2.183-12.078-20.352c11.652 5.501 27.656 12.02 43.21 18.169zm-31.328 2.558l20.399 34.374-74.718-30.565 54.319-3.809zm-54.821 3.993l74.927 30.65-63.633 7.107-11.294-37.757zm11.399 38.108l63.307-7.07-56.628 29.4-6.679-22.33zm6.354 22.499l-6.718-22.458-14.651 1.636 8.946 27.272 12.423-6.45zm.43.183l56.915-29.55-45.684 67.095-11.231-37.545zm11.78 37.904l83.128-33.921 5.796 52.505-88.924-18.584zm89.261 18.355l20.263-25.633-26.007-26.404 5.744 52.037zm.416.054l20.102-25.428 12.707 12.901-32.809 12.527zm-.081.417l33.102-12.639 11.358 32.997-44.46-20.358zm44.319 20.69l-18.044 7.556-25.983-27.716 44.027 20.16zm-44.714-20.365l26.315 28.07-42.48 17.791 16.165-45.861zm-5.506-53.765l58.54-32.421-34.267-17.083-24.273 49.504zm-84.488 34.849l-13.39-.016 13.556 41.328-.166-41.312zm-.05 42.344l-36.356 6.712-12.089-48.785 48.445 42.073zm-48.892-42.378l12.181 49.155-33.635 6.21-30.641-46.631 52.095-8.734zm-52.319 9.049l30.481 46.387-43.457 8.023 12.976-54.41zm-13.786 54.639l-32.246-10.643-34.276 32.962 66.522-22.319zm-66.11 21.423l33.477-32.194-9.506-3.137-23.971 35.331zm23.825-35.759l-67.787-22.373 77.399 8.206-9.612 14.167zm9.891-14.5l-77.879-8.256 123.075-17.682-45.196 25.938zm45.87-26.399L141.07 293.382l107.346-75.752 17.142 57.867zm-18.368-57.443l-106.054 74.841 33.525-46.284 72.529-28.557zm-72.691 28.037l-41.798-57.725 58.823 14.809-17.025 42.916zm17.159-43.254l-58.866-14.82 79.953-38.337-21.087 53.157zm21.671-53.433l28.56-12.996 6.378 80.06-34.938-67.064zm35.316 67.265l-6.407-80.419 59.078-26.883-52.671 107.302zm.287.232l52.734-107.429 21.687 66.114-74.421 41.315zm74.742-41.493l-21.321-64.999 35.073 57.364-13.752 7.635zm14.066-7.813l42.303-24.557-77.894-33.652 35.591 58.209zm-35.836-58.708l7.384-37.856 70.378 71.452-77.762-33.596zm78.475 34.373l12.195 20.55-54.134 3.795 41.939-24.345zm-42.809 24.846l11.319 37.841-14.661 1.637-10.44-31.828 13.782-7.65zm-3.707 39.519l-10.396-31.69-74.077 41.124 84.473-9.434zm.114.35l8.988 27.399-39.663 20.593-54.295-38.503 84.97-9.489zm-86.048 9.401l-56.053-14.112-17.009 42.878 73.062-28.766zm.243-.311l-56.162-14.139 21.094-53.175 35.068 67.314zm.666.721l54.104 38.368-37.042 19.231-17.062-57.599zm16.634 58.415l-12.949 54.297-32.394-10.692 45.343-43.605zm-45.73 43.478l-9.589-3.165 9.7-14.297 44.756-25.686-44.867 43.148zm47.145-44.4l36.386-18.891 14.589 10.346-50.975 8.545zm51.918-8.259l34.554.042 13.746 41.905-48.3-41.947zm34.436-.319l-34.861-.042-14.748-10.458 39.447-20.48 10.162 30.98zm-9.838-31.148l12.414-6.445 11.25 37.61-13.446-.016-10.218-31.149zm-90.323 95.282l43.483-8.028 58.912 114.063L253.08 330.835zm102.715 105.866l-58.847-113.965 33.507-6.186 25.34 120.151zM330.81 316.484l36.457-6.731-11.093 126.977-25.364-120.246z" fill="#E0E0E0"/><path fill-rule="evenodd" clip-rule="evenodd" d="M100.044 102.816l52.735 67.9-101.08 29.813L48 201.62l108.919 33.117-65.864 70.078 3.07 1.339 134.18 58.542L357.826 443l71.165-57.376 182.648-30.296-31.89-49.93 78.87-43.434.673-1.368-109.846-22.095 76.045-61.739-69.899-8.56 19.048-82.04-87.787 43.846-30.769-66.801-57.605 47.967-70.068-108.46-57.969 105.583-57.494-55.581 11.744 65.675-124.648-15.575zm76.812 110.675l72.925 27.077-94.705-68.269 21.78 41.192zm-1.28.184l-22.167-41.861-98.635 29.042 120.802 12.819zm0 .935l-123.01-13.252 105.446 32.25 17.564-18.998zm75.074 28.618l-158.3 61.427h146.953l11.347-61.427zm-22.345 119.506l10.721-56.58-144.901-.742 134.18 57.322zm2.358 2.521l126.067 75.081-57.484-65.795-68.583-9.286zm69.789 9.144l57.652 66.419 34.964-95.687-92.616 29.268zm94.123-29.323l-33.807 94.047 67.178-54.201-33.371-39.846zm36.456 39.143l175.207-29.567-129.228-22.201-45.979 51.768zm47.404-52.74l130.263 22.379-78.075-79.216-20.977 35.559-.048.033-31.163 21.245zm-1.701-.292l27.703-18.886c-2.57.851-5.973 1.88-10.007 3.052-6.886 2.001-15.631 4.421-25.25 7.084l-.003.001-3.306.915-2.036.564c-3.666 1.015-7.426 2.06-11.232 3.124l24.131 4.146zm32.766-22.55l20.213-34.781-41.328-23.813 21.115 58.594zm-21.079-60.147l42.134 24.508 16.632-33.744-58.766 9.236zm13.361-61.437l35.413 18.252 16.564-35.934-51.977 17.682zm53.295-17.676l-16.761 36.362 84.163-28.977-67.402-7.385zm-.498-1.883l17.455-76.565-21.396 36.553 3.941 40.012zm-5.009-40.607l20.958-35.958-82.178 39.692 61.22-3.734zm-51.856 59.709l-99.198-73.873-3.255 84.337 102.453-10.464zM396.045 199.21l43.774 82.764 46.109-33.805-89.883-48.959zm153.807-70.793l-47.754 57.262 51.319-17.459-3.565-39.803zm-50.36 59.203l-102.92 10.511 90.055 49.053 12.865-59.564zm-119.946 7.911l14.506 1.541 2.939-81.429-17.445 79.888zm17.108-83.43l-38.015 24.068-19.287 53.979 57.302-78.047zm-58.884 78.905l19.718-55.183-31.83-9.565-45.832 48.383 57.944 16.365zm-58.626-17.39l45.227-47.745-53.356-16.034 8.129 63.779zm-24.681-65.795l14.619.83-52.86-51.101 38.241 50.271zm-1.22.268l-38.124-50.056 10.747 60.101 27.377-10.045zm-28.34 11.484l-118.928-15.092 122.184 33.295-3.256-18.203zm3.776 19.402l-122.704-33.741 169.875 68.36-47.171-34.619zm49.213 36.382l-172.67-69.37 146.234 133.901 26.436-64.531zm-26.014 67.831l-11.565 62.61 57.776 65.446-46.211-128.056zm49.459 129.673l91.946-29.056-44.809-33.23-47.137 62.286zm49.395-62.105l43.726 32.426 16.284-22.116-60.01-10.31zm61.333 10.537l-15.843 21.517c14.015-4.89 32.753-10.37 50.936-15.488l-35.093-6.029zm.796-1.08l36.985 6.354c4.639-1.301 9.224-2.575 13.668-3.806l2.51-.695 2.721-.753.115-.032c9.621-2.663 18.357-5.081 25.235-7.079 4.066-1.181 7.476-2.214 10.032-3.062a62.64 62.64 0 003.154-1.124c.18-.072.347-.14.499-.205l-67.955-26.218-26.964 36.62zm95.388-11.506l-21.497-59.655-45.899 33.652 67.396 26.003zm-70.28-27.664l-43.318-81.901-17.083 41.39 60.401 40.511zm-61.418-41.193l17.173-41.607-14.689-1.56-15.327 34.553 12.843 8.614zm-.467 1.131l-12.87-8.632-13.256 29.882 15.89 3.549 10.236-24.799zm-13.388-10.424l15.085-34.008-39.505-4.196-17.611 10.014 42.031 28.19zm-.494 1.113L319.5 203.03l-66.162 37.623 95.425 21.311 13.439-30.294zm-42.65-30.05l17.052-9.697-54.431-15.373 37.379 25.07zm-41.848-29.806l-7.914-62.091-14.737-.804 22.651 62.895zm-23.87-62.627l-27.757 10.128 3.348 18.719 47.495 34.858-23.086-63.705zm64.552 93.096l-39.401-26.427-26.08 63.663 65.481-37.236zm-65.479 40.219l46.872 129.889 32.533-73.34-79.405-56.549zm80.403 57.26l-30.935 69.739 45.128-59.632-14.193-10.107zm17.689 9.823l60.539 10.401 26.536-36.039-87.075 25.638zm-1.612-.775l87.833-25.862-70.647-15.777-17.186 41.639zm15.997-41.905l-15.922-3.556-15.655 35.294 14.28 10.17 17.297-41.908zm-32.575 31.027l15.459-34.85-93.814-20.951 78.355 55.801zm44.292-56.269l-10.064 24.382 69.589 15.542-59.525-39.924zM298.206 373.19l-58.17-65.892-10.456 56.6 68.626 9.292zm41.585-181.882l38.501 4.09 18.28-81.769-56.781 77.679zm135.517 140.85l-25.398-4.363c-19.408 5.444-39.692 11.343-54.392 16.533l33.396 39.883 46.394-52.053zM247.584 238.05L104.469 106.74l49.479 63.606 93.636 67.704zm24.543-129.131l53.167 15.977 1.143-116.788-54.31 100.811zM327.334 6.602l-.753 118.681 31.311 9.409-30.558-128.09zm31.709 128.436l38.183-24.017-68.815-104.42 30.632 128.437zm141.522 50.599l48.219-57.815-60.845 3.943 12.626 53.872zm108.363 166.835l-31.624-48.467-44.994-29.363 76.618 77.83zm-77.463-79.396l16.765-33.363 43.836 32.428-60.601.935zm1.515.84l45.83 29.899 13.643-30.863-59.473.964zm90.968-96.967l-75.164 60.476-10.468-30.878 85.632-29.598zm32.121 84.792l-76.198 41.926 13.997-30.591 62.201-11.335zm-105.87-21.733l107.531 20.837-64.073 11.296-43.458-32.133zM400.136 112.066l98.111 73.037-56.086-81.783-42.025 8.746zm43.901-8.337l41.411 26.892 13.743 54.482-55.154-81.374zm-2.259-1.725l-40.407 9.017 53.207-45.054-12.8 36.037zm43.035 27.324l-41.146-27.324 12.417-36.037 28.729 63.361zM193.314 246.031l-35.302-11.294-62.578 67.01 97.88-55.716zm-16.458-30.87l-18.008 18.712 36.024 11.405 53.405-4.331-71.421-25.786zM96.187 302.5l98.685-55.716 53.415-4.282-152.1 59.998zm451-63.998l-58.1 8.672 38.067-31.678 9.451-7.864 10.582 30.87zm-20.843-23.892l10.054-8.367-35.804-18.04-12.595 58.316 38.345-31.909z" fill="#71A0DD"/><path d="M217.462 54.23a4.23 4.23 0 11-8.46 0 4.23 4.23 0 018.46 0zm-112 49a4.23 4.23 0 11-8.46 0 4.23 4.23 0 018.46 0zm-11 202a4.23 4.23 0 11-8.461-.001 4.23 4.23 0 018.461.001zm236.897-301a4.23 4.23 0 11-8.46 0 4.23 4.23 0 018.46 0zm247.103 82a4.23 4.23 0 11-8.46 0 4.23 4.23 0 018.46 0zm-118-24a4.23 4.23 0 11-8.46 0 4.23 4.23 0 018.46 0zm169 114a4.23 4.23 0 11-8.46 0 4.23 4.23 0 018.46 0zm-577 25a4.23 4.23 0 11-8.461-.001 4.23 4.23 0 018.461.001zM660 260.223a4.23 4.23 0 11-8.46 0 4.23 4.23 0 018.46 0zm-43.538 95.007a4.23 4.23 0 11-8.46 0 4.23 4.23 0 018.46 0z" fill="#0A3D76"/><path d="M208.721 237.264c5.516 0 8.425-3.335 8.425-7.504 0-3.502-2.475-6.378-5.558-6.837 2.736-.541 4.994-2.876 4.994-6.378 0-3.71-2.823-7.086-8.338-7.086H193v27.805h15.721zm-1.824-16.675h-7.73v-6.045h7.73c2.085 0 3.388 1.293 3.388 3.044 0 1.75-1.303 3.001-3.388 3.001zm.217 11.547h-7.947v-6.461h7.947c2.432 0 3.735 1.5 3.735 3.251 0 2.001-1.389 3.21-3.735 3.21z" fill="url(#paint2_linear)"/><path d="M253.153 237.264l-11.161-27.805h-7.731l-11.204 27.805h7.035l1.824-4.711h12.421l1.78 4.711h7.036zm-10.51-9.922h-9.033l4.516-11.964 4.517 11.964z" fill="url(#paint3_linear)"/><path d="M290.918 209.459v22.594h-9.163v-22.594h-6.211v22.594h-9.207v-22.594h-6.166v27.805h36.958v-27.805h-6.211z" fill="url(#paint4_linear)"/><path d="M322.676 209.459v27.805h13.68c6.21 0 9.598-4.044 9.598-8.838s-3.431-8.838-9.598-8.838h-7.513v-4.919h14.983v-5.21h-21.15zm12.855 15.34c2.388 0 4.126 1.376 4.126 3.627 0 2.21-1.738 3.627-4.126 3.627h-6.688v-7.254h6.688z" fill="url(#paint5_linear)"/><path d="M360.069 237.264l13.811-18.634v18.634h6.167v-27.805h-6.341l-13.42 17.967v-17.967h-6.167v27.805h5.95z" fill="url(#paint6_linear)"/><path d="M400.046 237.764c6.905 0 11.9-3.377 11.9-8.171 0-4.168-3.822-6.378-6.732-6.67 3.171-.541 6.297-2.834 6.297-6.336 0-4.627-4.69-7.545-11.465-7.545-5.081 0-9.207 1.876-11.552 4.418l3.084 3.711c2.041-1.876 5.037-2.877 7.86-2.877 3.301 0 5.907 1.084 5.907 3.294 0 2.042-2.476 2.959-5.907 2.959h-5.863v5.211h5.863c4.343 0 6.384 1.001 6.384 3.21 0 2.084-2.215 3.543-6.036 3.543-2.823 0-6.471-1.167-8.469-3.168l-3.214 3.96c2.128 2.502 6.601 4.461 11.943 4.461z" fill="url(#paint7_linear)"/><path d="M447.008 237.264v-27.805h-6.21v10.922h-13.68v-10.922h-6.167v27.805h6.167v-11.673h13.68v11.673h6.21z" fill="url(#paint8_linear)"/><path d="M477.558 237.264v-5.211h-14.332v-6.295h14.028v-5.211h-14.028v-5.878h14.332v-5.21H457.06v27.805h20.498z" fill="url(#paint9_linear)"/><path d="M500.749 237.764c6.384 0 10.032-3.377 12.117-6.837l-5.298-2.459c-1.216 2.293-3.822 4.043-6.819 4.043-5.255 0-9.076-3.876-9.076-9.129s3.821-9.129 9.076-9.129c2.997 0 5.603 1.792 6.819 4.043l5.298-2.501c-2.041-3.46-5.733-6.795-12.117-6.795-8.685 0-15.417 5.836-15.417 14.382s6.732 14.382 15.417 14.382z" fill="url(#paint10_linear)"/><defs><linearGradient id="paint0_linear" x1="344.392" y1="512.665" x2="256.307" y2="419.193" gradientUnits="userSpaceOnUse"><stop/><stop offset=".978" stop-color="#FEF4F7" stop-opacity="0"/></linearGradient><linearGradient id="paint2_linear" x1="210.29" y1="223.382" x2="479.283" y2="223.382" gradientUnits="userSpaceOnUse"><stop stop-color="#8D2716"/><stop offset="1" stop-color="#C9081F"/></linearGradient><linearGradient id="paint3_linear" x1="210.29" y1="223.382" x2="479.283" y2="223.382" gradientUnits="userSpaceOnUse"><stop stop-color="#8D2716"/><stop offset="1" stop-color="#C9081F"/></linearGradient><linearGradient id="paint4_linear" x1="210.29" y1="223.382" x2="479.283" y2="223.382" gradientUnits="userSpaceOnUse"><stop stop-color="#8D2716"/><stop offset="1" stop-color="#C9081F"/></linearGradient><linearGradient id="paint5_linear" x1="210.29" y1="223.382" x2="479.283" y2="223.382" gradientUnits="userSpaceOnUse"><stop stop-color="#8D2716"/><stop offset="1" stop-color="#C9081F"/></linearGradient><linearGradient id="paint6_linear" x1="210.29" y1="223.382" x2="479.283" y2="223.382" gradientUnits="userSpaceOnUse"><stop stop-color="#8D2716"/><stop offset="1" stop-color="#C9081F"/></linearGradient><linearGradient id="paint7_linear" x1="210.29" y1="223.382" x2="479.283" y2="223.382" gradientUnits="userSpaceOnUse"><stop stop-color="#8D2716"/><stop offset="1" stop-color="#C9081F"/></linearGradient><linearGradient id="paint8_linear" x1="210.29" y1="223.382" x2="479.283" y2="223.382" gradientUnits="userSpaceOnUse"><stop stop-color="#8D2716"/><stop offset="1" stop-color="#C9081F"/></linearGradient><linearGradient id="paint9_linear" x1="210.29" y1="223.382" x2="479.283" y2="223.382" gradientUnits="userSpaceOnUse"><stop stop-color="#8D2716"/><stop offset="1" stop-color="#C9081F"/></linearGradient><linearGradient id="paint10_linear" x1="210.29" y1="223.382" x2="479.283" y2="223.382" gradientUnits="userSpaceOnUse"><stop stop-color="#8D2716"/><stop offset="1" stop-color="#C9081F"/></linearGradient><filter id="filter0_d" x="60.765" y="468.545" width="592.826" height="230.885" filterUnits="userSpaceOnUse" color-interpolation-filters="sRGB"><feFlood flood-opacity="0" result="BackgroundImageFix"/><feColorMatrix in="SourceAlpha" values="0 0 0 0 0 0 0 0 0 0 0 0 0 0 0 0 0 0 127 0"/><feOffset dx="2" dy="2"/><feGaussianBlur stdDeviation="2"/><feColorMatrix values="0 0 0 0 0 0 0 0 0 0 0 0 0 0 0 0 0 0 0.1 0"/><feBlend in2="BackgroundImageFix" result="effect1_dropShadow"/><feBlend in="SourceGraphic" in2="effect1_dropShadow" result="shape"/></filter><filter id="filter1_f" x="119.572" y="486.605" width="269.293" height="101.713" filterUnits="userSpaceOnUse" color-interpolation-filters="sRGB"><feFlood flood-opacity="0" result="BackgroundImageFix"/><feBlend in="SourceGraphic" in2="BackgroundImageFix" result="shape"/><feGaussianBlur stdDeviation="2.5" result="effect1_foregroundBlur"/></filter><filter id="filter2_f" x="158.855" y="300.724" width="393.717" height="323.168" filterUnits="userSpaceOnUse" color-interpolation-filters="sRGB"><feFlood flood-opacity="0" result="BackgroundImageFix"/><feBlend in="SourceGraphic" in2="BackgroundImageFix" result="shape"/><feGaussianBlur stdDeviation="40" result="effect1_foregroundBlur"/></filter><radialGradient id="paint1_radial" cx="0" cy="0" r="1" gradientUnits="userSpaceOnUse" gradientTransform="matrix(0 64.7044 -92.6807 0 354.37 434.175)"><stop stop-color="#0095FF"/><stop offset="1" stop-color="#BCE3FF"/></radialGradient><clipPath id="clip0"><path fill="#fff" transform="translate(42 250)" d="M0 0h547.514v397.52H0z"/></clipPath></defs></svg>