<svg width="660" height="700" viewBox="0 0 660 700" fill="none" xmlns="http://www.w3.org/2000/svg">
<g clip-path="url(#clip0)">
<g filter="url(#filter0_d)">
<path d="M359.961 700.074L648.105 590.416L287.095 455.721L2.11877 565.368L359.961 700.074Z" fill="#FFF5F7"/>
</g>
<g clip-path="url(#clip1)">
<g filter="url(#filter1_f)">
<path d="M384.282 515.42L191.75 587.615L66.2119 539.943L242.6 471.083L384.282 515.42Z" fill="url(#paint0_linear)"/>
</g>
<path d="M356.651 651.163L187.61 587.484L187.552 383.444L356.651 447.123V651.163Z" fill="#053866"/>
<path d="M527.453 586.476L356.653 522.752L355.878 318.686L358.794 316.271L527.442 381.971L527.453 586.476Z" fill="#083556"/>
<path d="M356.653 651.162L527.384 586.424L527.442 381.76L356.711 445.973L356.653 651.162Z" fill="#054270"/>
<path d="M187.61 587.179L359.377 518.088L356.744 317.962L354.711 316.271L187.552 382.034L187.61 587.179Z" fill="#063D66"/>
<g filter="url(#filter2_f)">
<ellipse cx="356" cy="501.531" rx="116.604" ry="116.135" fill="url(#paint1_radial)"/>
</g>
<path d="M356.655 651.166L187.615 587.484L187.557 383.444L356.655 447.123V651.166Z" fill="#053866"/>
<path d="M229.831 450.795L187.615 434.756L187.556 383.444L229.831 399.831V450.795Z" fill="#053866"/>
<path d="M198.795 432.264C194.987 432.361 191.2 431.675 187.669 430.249L187.553 424.837C196.143 428.119 204.386 427.486 210.728 423.11C218.279 417.929 223.064 409.35 223.064 396.914L228.137 398.929C228.137 413.092 223.929 421.037 214.993 427.198C210.198 430.415 204.571 432.174 198.795 432.264V432.264Z" fill="#FF8098"/>
<path d="M272.105 465.948L229.83 449.826V398.598L272.105 414.72V465.948Z" fill="#0E2951"/>
<path d="M314.378 482.786L272.103 466.664V415.435L314.378 431.499V482.786Z" fill="#FF8098"/>
<path d="M356.652 497.935L314.377 482.01V430.589L356.939 446.39L356.652 497.935Z" fill="#911A31"/>
<path d="M229.828 501.308L187.553 485.244V433.957L229.828 450.079V501.308Z" fill="#911A31"/>
<path d="M272.105 516.462L229.83 500.743V450.795L272.105 466.514V516.462Z" fill="#C43B55"/>
<path d="M314.378 533.298L272.103 517.176V465.948L314.378 482.07V533.298Z" fill="#053866"/>
<path d="M356.652 548.453L314.377 532.907L314.433 482.021L356.652 497.893V548.453Z" fill="#132F7C"/>
<path d="M272.105 568.658L229.83 552.594V500.751L272.105 516.447V568.658Z" fill="#FF8098"/>
<path d="M314.381 583.811L272.107 567.689V516.461L314.381 532.583V583.811Z" fill="#0E2951"/>
<path d="M356.658 600.649L314.383 584.706V533.299L356.658 549.243V600.649Z" fill="#053866"/>
<path d="M229.828 603.33L187.553 587.453V535.98L229.828 551.821V603.33Z" fill="#C43B55"/>
<path d="M272.105 619.171L229.83 603.093V551.82L272.105 567.898V619.171Z" fill="#053866"/>
<path d="M314.378 635.057L272.103 618.935V567.707L314.378 583.829V635.057Z" fill="#FF8098"/>
<path d="M356.652 651.162L314.377 635.308V583.812L356.652 600.361V651.162Z" fill="#911A31"/>
<path d="M196.294 422.168C193.293 422.213 190.316 421.629 187.553 420.453V414.244C193.696 416.61 201.314 415.782 205.094 413.298C211.414 409.099 214.485 402.594 214.485 393.547L219.682 395.616C219.682 406.734 215.725 413.535 208.638 418.443C204.983 420.883 200.687 422.18 196.294 422.168V422.168Z" fill="#D6516B"/>
<path d="M193.272 410.382C191.313 410.422 189.366 410.04 187.553 409.259V402.712C191.247 404.209 196.966 403.834 200.123 400.53C203.4 397.1 204.294 394.294 204.294 388.495L209.536 390.678C209.536 398.659 206.915 404.084 201.97 407.638C199.397 409.438 196.368 410.394 193.272 410.382V410.382Z" fill="#C43B55"/>
<path d="M190.246 398.578C189.319 398.664 188.388 398.473 187.553 398.025V391.576C188.451 391.945 191.367 392.19 192.489 391.576C194.452 390.471 194.452 388.321 193.499 385.128L199.388 387.277C199.388 391.761 197.93 394.893 195.182 396.981C193.708 398.016 191.996 398.57 190.246 398.578Z" fill="#A62E41"/>
<path d="M355.996 592.23L319.448 578.772V491.205L356.65 504.432V511.537L325.748 499.984V575.738L355.473 587.941L355.996 592.23Z" fill="#C43B55"/>
<path d="M356.65 593.914L319.448 579.21V534.743L325.748 537.01V575.033L356.65 586.876V593.914Z" fill="#F985A0"/>
<path d="M355.962 578.667L329.597 570.369V506.358L356.653 515.927V523.148L335.896 515.34V567.411L356.653 574.632L355.962 578.667Z" fill="#C43B55"/>
<path d="M355.962 564.512L341.437 560.607V524.879L356.656 530.148V537.193L347.513 533.642V557.352L356.656 561.304L355.962 564.512Z" fill="#C43B55"/>
<path d="M356.656 566.974L341.437 561.065V542.834L347.513 545.032V556.894L356.656 559.849V566.974Z" fill="#F985A0"/>
<path d="M356.653 580.444L329.597 570.55V538.503L335.896 540.837V566.375L356.653 573.41V580.444Z" fill="#F985A0"/>
<path d="M219.682 599.55L187.553 587.453V548.452L219.682 560.547V599.55Z" fill="#053866"/>
<path d="M207.845 595.081L187.553 587.452V561.922L207.845 569.976V595.081Z" fill="#FF8098"/>
<path d="M314.378 449.446L298.914 476.05L272.103 447.091L287.567 420.486L314.378 449.446Z" fill="#C43B55"/>
<path d="M304.234 448.834L296.148 462.581L282.252 447.644L290.278 433.957L304.234 448.834Z" fill="#911A31"/>
<path d="M314.378 634.939L272.103 618.766V577.691L314.378 593.804V634.939Z" fill="#C43B55"/>
<path d="M314.378 634.598L272.103 618.001V587.453L314.378 603.99V634.598Z" fill="#911A31"/>
<path d="M314.378 634.526L272.103 618.013V599.167L314.378 615.62V634.526Z" fill="#053866"/>
<path d="M314.378 635.162L272.103 619.063V609.906L314.378 625.946V635.162Z" fill="#0E2951"/>
<path d="M229.83 462.581L272.105 478.313L229.83 490.626L272.105 506.359L229.83 462.581Z" fill="#911A31"/>
<path d="M192.625 487.838L187.553 485.77V433.957L192.625 436.025V487.838Z" fill="#FF8098"/>
<path d="M201.08 489.521L196.008 487.52V437.324L201.08 439.382V489.521Z" fill="#FF8098"/>
<path d="M228.136 499.622L221.373 497.619V447.426L228.136 449.429V499.622Z" fill="#FF8098"/>
<path d="M217.99 496.255L212.918 494.252V444.059L217.99 446.062V496.255Z" fill="#FF8098"/>
<path d="M209.537 492.888L204.465 490.885V440.692L209.537 442.695V492.888Z" fill="#FF8098"/>
<path d="M229.828 551.821L187.553 535.699V484.47L229.828 500.534V551.821Z" fill="#0E2951"/>
<path d="M229.828 551.82L207.845 543.766V518.145L229.828 526.199V551.82Z" fill="#911A31"/>
<path d="M207.845 518.145L187.553 510.077V484.47L207.845 492.111V518.145Z" fill="#911A31"/>
<path fill-rule="evenodd" clip-rule="evenodd" d="M234.903 560.24L265.551 572.268L263.925 576.708L239.489 567.118V596.548L262.445 605.558V583.468L244.674 576.484V592.215L257.26 597.172V587.686L249.803 584.752V587.994L255.237 590.13L253.61 594.569L245.217 591.271V577.866L261.846 584.411V604.059L240.088 595.49V569.602L267.031 580.191V612.436L234.903 599.827V560.24Z" fill="#F985A0"/>
<path fill-rule="evenodd" clip-rule="evenodd" d="M353.268 607.301L324.478 634.325L319.448 629.357L348.238 602.333L353.268 607.301Z" fill="#0E2951"/>
<path fill-rule="evenodd" clip-rule="evenodd" d="M325.475 592.23L353.268 640.918L347.241 644.427L319.448 595.739L325.475 592.23Z" fill="#0E2951"/>
<path d="M287.32 541.718L280.557 538.899V529.932L287.32 532.75V541.718Z" fill="#911A31"/>
<path d="M295.774 556.871L289.011 554.068V545.085L295.774 547.888V556.871Z" fill="#911A31"/>
<path d="M305.921 570.342L299.158 567.926V560.24L305.921 562.655V570.342Z" fill="#911A31"/>
<path d="M356.939 446.39L527.44 381.761V586.659L356.65 651.163L356.939 446.39Z" fill="#053866"/>
<path d="M485.168 500.578L527.442 484.47V535.712L485.168 551.82V500.578Z" fill="#911A31"/>
<path d="M441.202 517.027L485.167 501.308V551.312L441.202 566.974V517.027Z" fill="#C43B55"/>
<path d="M398.932 532.583L441.206 516.461V567.689L398.932 583.811V532.583Z" fill="#053866"/>
<path d="M356.653 548.419L398.928 533.254V584.35L356.653 600.649V548.419Z" fill="#132F7C"/>
<path d="M441.201 465.233L485.167 449.111V501.546L441.201 517.165V465.233Z" fill="#FF8098"/>
<path d="M398.932 482.071L441.206 465.949V517.178L398.932 533.3V482.071Z" fill="#0E2951"/>
<path d="M356.653 497.401L398.928 481.102V532.154L356.653 548.453V497.401Z" fill="#053866"/>
<path d="M441.207 566.952L485.239 551.306L484.946 602.584L441.207 619.222V566.952Z" fill="#0E2951"/>
<path d="M398.932 584.036L441.206 566.976V619.229L398.932 635.146V584.036Z" fill="#FF8098"/>
<path d="M356.653 600.363L398.928 584.036V635.176L356.653 651.16V600.363Z" fill="#911A31"/>
<path d="M485.165 397.928L527.44 381.761V433.004L485.165 449.112V397.928Z" fill="#C43B55"/>
<path d="M441.197 414.721L485.163 398.599V449.827L441.197 465.95V414.721Z" fill="#053866"/>
<path d="M398.923 431.155L441.198 415.436V465.384L398.923 481.103V431.155Z" fill="#FF8098"/>
<path d="M356.883 446.365L398.926 430.59V481.641L356.651 497.94L356.883 446.365Z" fill="#911A31"/>
<path d="M356.645 593.869V586.938L387.616 574.48V500.029L357.155 511.159L354.958 505.508L393.85 491.205V578.633L356.645 593.869Z" fill="#C43B55"/>
<path d="M393.853 535.271L387.621 537.337V500.078L356.651 511.546V504.474L393.853 491.205V535.271Z" fill="#F985A0"/>
<path d="M356.651 580.445V573.366L377.65 564.848V514.777L356.651 522.892V515.813L383.707 508.043V569.05L356.651 580.445Z" fill="#C43B55"/>
<path d="M356.645 567.024V559.845L365.745 556.734V533.435L357.115 536.587L354.958 531.072L371.867 524.882V560.842L356.645 567.024Z" fill="#C43B55"/>
<path d="M371.87 543.106L365.733 545.087V533.484L356.651 537.178V530.139L371.87 524.882V543.106Z" fill="#F985A0"/>
<path d="M383.707 538.816L377.65 540.837V515.028L356.651 523.129V515.926L383.707 506.359V538.816Z" fill="#F985A0"/>
<path d="M505.455 389.859L527.438 381.761V407.396L505.455 415.436V389.859Z" fill="#FF8098"/>
<path d="M398.923 615.942L414.396 578.761L441.198 587.043L425.724 624.223L398.923 615.942Z" fill="#C43B55"/>
<path d="M409.068 608.14L417.089 588.864L431.051 593.161L422.971 612.437L409.068 608.14Z" fill="#911A31"/>
<path d="M398.923 431.133L441.198 415.436V455.36L398.923 471V431.133Z" fill="#C43B55"/>
<path d="M398.923 431.44L441.198 415.436V444.951L398.923 460.897V431.44Z" fill="#911A31"/>
<path d="M398.923 431.162L441.198 415.436V433.442L398.923 449.111V431.162Z" fill="#053866"/>
<path d="M398.923 431.498L441.198 415.436V424.631L398.923 440.692V431.498Z" fill="#0E2951"/>
<path d="M485.163 539.457L441.197 555.189L485.163 511.412L441.197 527.144" fill="#911A31"/>
<path d="M527.436 536.324L520.673 538.351V486.557L527.436 484.471V536.324Z" fill="#FF8098"/>
<path d="M518.981 538.57L512.306 541.082L512.218 489.841L518.981 487.838V538.57Z" fill="#FF8098"/>
<path d="M493.615 548.134L486.901 550.845L486.852 499.944L493.489 497.941L493.615 548.134Z" fill="#FF8098"/>
<path d="M502.073 544.766L495.31 547.916V496.576L502.073 494.573V544.766Z" fill="#FF8098"/>
<path d="M510.527 541.399L503.764 545.73V493.209L510.527 491.205V541.399Z" fill="#FF8098"/>
<path d="M485.165 450.08L527.44 433.958V485.186L485.165 501.309V450.08Z" fill="#0E2951"/>
<path d="M485.165 551.106L527.44 534.984V586.212L485.165 602.335V551.106Z" fill="#053866"/>
<path d="M485.165 450.028L505.457 442.377V466.717L485.165 474.368V450.028Z" fill="#911A31"/>
<path d="M490.32 600.632L484.946 602.584C484.946 568.074 504.568 546.863 527.44 538.351V543.447C506.802 551.148 490.32 577.297 490.32 600.632Z" fill="#FF8098"/>
<path d="M502.047 596.238L495.695 598.679C495.695 574.037 510.135 554.892 527.439 548.454V554.6C512.32 560.277 502.047 578.152 502.047 596.238Z" fill="#D6516B"/>
<path d="M512.307 592.334L507.421 594.286C507.421 579.326 515.899 564.442 527.436 560.119V565.929C518.45 569.342 512.307 581.583 512.307 592.334Z" fill="#C43B55"/>
<path d="M522.463 588.523L517.681 590.381C516.652 582.278 521.222 574.206 527.452 571.833L527.435 578.394C523.549 579.841 522.463 583.603 522.463 588.523Z" fill="#A62E41"/>
<path fill-rule="evenodd" clip-rule="evenodd" d="M480.09 405.333V445.822L449.522 457.53L447.821 452.988L475.287 442.468V412.367L451.073 421.641V444.241L469.857 437.085V420.991L456.503 426.079V435.722L464.369 432.712V429.455L460.383 430.985L458.679 426.444L469.172 422.417V436.067L451.7 442.753V422.718L474.66 413.972V440.445L446.27 451.261V418.288L480.09 405.333Z" fill="#F985A0"/>
<path fill-rule="evenodd" clip-rule="evenodd" d="M360.031 487.568L389.253 437.325L395.542 440.963L366.32 491.206L360.031 487.568Z" fill="#0E2951"/>
<path fill-rule="evenodd" clip-rule="evenodd" d="M388.865 481.103L360.031 452.684L365.018 447.428L393.851 475.847L388.865 481.103Z" fill="#0E2951"/>
<path d="M425.98 504.127L432.743 501.308V510.276L425.98 513.095V504.127Z" fill="#911A31"/>
<path d="M417.526 496.976L424.289 494.573V502.273L417.526 504.675V496.976Z" fill="#911A31"/>
<path d="M407.377 488.57L414.14 486.154V493.841L407.377 496.257V488.57Z" fill="#911A31"/>
<path d="M495.311 394.319L527.439 381.761V421.519L495.311 433.958V394.319Z" fill="#053866"/>
<path d="M505.455 467.282L527.438 459.214V485.438L505.466 493.515L505.455 467.282Z" fill="#911A31"/>
<path opacity="0.3" d="M188.24 382.399L356.752 446.086V651.382L187.488 587.695L188.24 382.399Z" fill="black"/>
<path d="M590.009 319.402L526.478 381.762L356.753 317.964L420.126 255.48L590.009 319.402Z" fill="#084C80"/>
<path d="M356.939 446.39L293.334 509.727L123.296 446.062L188.57 382.547L356.939 446.39Z" fill="#094573"/>
<path d="M356.751 317.963L294.316 255.026L124.491 319.184L187.906 382.992L356.751 317.963Z" fill="#084C80"/>
<path d="M590.009 444.743L526.589 381.76L356.653 446.449L420.422 509.726L590.009 444.743Z" fill="#084C80"/>
</g>
<path fill-rule="evenodd" clip-rule="evenodd" d="M131.992 188.001L174.323 246.462L140.064 293.761L209.587 316.706L184.409 353.817L252.619 330.932L356.359 438.015L367.629 309.766L440.588 332.346L548.685 383.325L502.536 306.434L574.522 266.79L490.643 243.451L520.981 205.074L602.097 149.256L451.247 108.825L309.151 70.4672L239.895 110.535L212.961 149.177L131.992 188.001ZM213.605 148.883L239.88 111.186L241.859 136.026L213.605 148.883ZM242.208 135.868L240.214 110.846L300.815 109.199L242.208 135.868ZM301.55 108.819L240.724 110.471L308.924 71.015L301.55 108.819ZM309.771 71.0078L450.685 109.046L380.481 142.796L309.771 71.0078ZM380.861 143.013C392.691 148.61 409.084 155.277 424.941 161.54L467.603 158.549L451.094 109.249L380.861 143.013ZM451.478 109.259L467.974 158.523L600.588 149.224L451.478 109.259ZM598.511 151.286L520.842 204.732L510.931 199.791L598.511 151.286ZM510.548 200.003L520.577 205.003L490.266 243.347L451.675 232.609L510.548 200.003ZM451.805 233.019L490.024 243.653L477.671 259.28L451.805 233.019ZM477.926 259.539L490.401 243.758L572.997 266.74L490.8 272.609L477.926 259.539ZM490.976 272.958L573.243 267.084L502.386 306.105L490.976 272.958ZM502.211 306.592L547.202 381.553L484.056 314.196L502.211 306.592ZM483.701 314.344L547.448 382.343L441.096 332.188L483.701 314.344ZM440.541 331.955L368.131 309.544L456.769 285.916L440.541 331.955ZM456.273 285.675L367.659 309.297L367.49 267.12L456.273 285.675ZM367.794 266.506L413.641 199.172L450.869 232.606L367.794 266.506ZM451.146 232.371L413.977 198.989L475.472 182.758L451.146 232.371ZM475.396 182.406L413.693 198.691L393.182 164.128L424.884 161.905C429.278 163.641 433.63 165.345 437.831 166.986C439.337 167.574 440.823 168.154 442.285 168.725C450.305 171.856 457.591 174.699 463.319 177.019C466.705 178.39 469.544 179.576 471.668 180.53C472.73 181.007 473.612 181.425 474.292 181.777C474.763 182.021 475.131 182.231 475.396 182.406ZM425.718 161.847L467.721 158.902L475.463 182.021C475.196 181.853 474.858 181.665 474.458 181.458C473.769 181.1 472.881 180.68 471.816 180.201C469.686 179.245 466.841 178.056 463.454 176.685C457.724 174.365 450.437 171.52 442.417 168.39C440.955 167.819 439.468 167.239 437.962 166.65C433.984 165.096 429.872 163.486 425.718 161.847ZM475.955 182.355L510.539 199.596L600.875 149.565L468.092 158.876L475.955 182.355ZM424.108 161.598L392.976 163.781L380.898 143.429C392.55 148.93 408.554 155.449 424.108 161.598ZM392.78 164.156L413.179 198.53L338.461 167.965L392.78 164.156ZM337.959 168.149L412.886 198.799L349.253 205.906L337.959 168.149ZM349.358 206.257L412.665 199.187L356.037 228.587L349.358 206.257ZM355.712 228.756L348.994 206.298L334.343 207.934L343.289 235.206L355.712 228.756ZM356.142 228.939L413.057 199.389L367.373 266.484L356.142 228.939ZM367.922 266.843L451.05 232.922L456.846 285.427L367.922 266.843ZM457.183 285.198L477.446 259.565L451.439 233.161L457.183 285.198ZM457.599 285.252L477.701 259.824L490.408 272.725L457.599 285.252ZM457.518 285.669L490.62 273.03L501.978 306.027L457.518 285.669ZM501.837 306.359L483.793 313.915L457.81 286.199L501.837 306.359ZM457.123 285.994L483.438 314.064L440.958 331.855L457.123 285.994ZM451.617 232.229L510.157 199.808L475.89 182.725L451.617 232.229ZM367.129 267.078L353.739 267.062L367.295 308.39L367.129 267.078ZM367.079 309.422L330.723 316.134L318.634 267.349L367.079 309.422ZM318.187 267.044L330.368 316.199L296.733 322.409L266.092 275.778L318.187 267.044ZM265.868 276.093L296.349 322.48L252.892 330.503L265.868 276.093ZM252.082 330.732L219.836 320.089L185.56 353.051L252.082 330.732ZM185.972 352.155L219.449 319.961L209.943 316.824L185.972 352.155ZM209.797 316.396L142.01 294.023L219.409 302.229L209.797 316.396ZM219.688 301.896L141.809 293.64L264.884 275.958L219.688 301.896ZM265.558 275.497L141.07 293.382L248.416 217.63L265.558 275.497ZM247.19 218.054L141.136 292.895L174.661 246.611L247.19 218.054ZM174.499 246.091L132.701 188.366L191.524 203.175L174.499 246.091ZM191.658 202.837L132.792 188.017L212.745 149.68L191.658 202.837ZM213.329 149.404L241.889 136.408L248.267 216.468L213.329 149.404ZM248.645 216.669L242.238 136.25L301.316 109.367L248.645 216.669ZM248.932 216.901L301.666 109.472L323.353 175.586L248.932 216.901ZM323.674 175.408L302.353 110.409L337.426 167.773L323.674 175.408ZM337.74 167.595L380.043 143.038L302.149 109.386L337.74 167.595ZM301.904 108.887L309.288 71.0306L379.666 142.483L301.904 108.887ZM380.379 143.26L392.574 163.81L338.44 167.605L380.379 143.26ZM337.57 168.106L348.889 205.947L334.228 207.584L323.788 175.756L337.57 168.106ZM333.863 207.625L323.467 175.935L249.39 217.059L333.863 207.625ZM333.977 207.975L342.965 235.374L303.302 255.967L249.007 217.464L333.977 207.975ZM247.929 217.376L191.876 203.264L174.867 246.142L247.929 217.376ZM248.172 217.065L192.01 202.926L213.104 149.751L248.172 217.065ZM248.838 217.786L302.942 256.154L265.9 275.385L248.838 217.786ZM265.472 276.201L252.523 330.498L220.129 319.806L265.472 276.201ZM219.742 319.679L210.153 316.514L219.853 302.217L264.609 276.531L219.742 319.679ZM266.887 275.279L303.273 256.388L317.862 266.734L266.887 275.279ZM318.805 267.02L353.359 267.062L367.105 308.967L318.805 267.02ZM353.241 266.701L318.38 266.659L303.632 256.201L343.079 235.721L353.241 266.701ZM343.403 235.553L355.817 229.108L367.067 266.718L353.621 266.702L343.403 235.553ZM253.08 330.835L296.563 322.807L355.475 436.87L253.08 330.835ZM355.795 436.701L296.948 322.736L330.455 316.55L355.795 436.701ZM330.81 316.484L367.267 309.753L356.174 436.73L330.81 316.484Z" fill="#E0E0E0"/>
<path fill-rule="evenodd" clip-rule="evenodd" d="M99.6732 102.99L152.408 170.891L51.3277 200.704L47.629 201.795L156.548 234.912L90.6846 304.99L93.7535 306.329L227.934 364.87L357.455 443.175L428.62 385.798L611.268 355.502L579.378 305.573L658.248 262.139L658.921 260.77L549.075 238.676L625.12 176.936L555.221 168.376L574.269 86.3371L486.482 130.182L455.713 63.3812L398.108 111.349L328.04 2.88916L270.071 108.472L212.577 52.8904L224.321 118.566L99.6732 102.99ZM176.485 213.666L249.41 240.743L154.705 172.473L176.485 213.666ZM175.205 213.85L153.038 171.989L54.4031 201.03L175.205 213.85ZM175.205 214.784L52.1945 201.533L157.641 233.783L175.205 214.784ZM250.279 243.403L91.9795 304.829H238.932L250.279 243.403ZM227.934 362.908L238.655 306.329L93.7535 305.587L227.934 362.908ZM230.292 365.429L356.359 440.51L298.875 374.716L230.292 365.429ZM300.081 374.573L357.733 440.993L392.697 345.305L300.081 374.573ZM394.204 345.251L360.397 439.298L427.575 385.097L394.204 345.251ZM430.66 384.393L605.867 354.827L476.639 332.625L430.66 384.393ZM478.064 331.653L608.327 354.033L530.252 274.816L509.275 310.376L509.227 310.409L478.064 331.653ZM476.363 331.361L504.066 312.475C501.496 313.326 498.093 314.356 494.059 315.528C487.173 317.528 478.428 319.949 468.809 322.611L468.806 322.612L465.5 323.527L463.464 324.091C459.798 325.107 456.038 326.151 452.232 327.215L476.363 331.361ZM509.129 308.812L529.342 274.031L488.014 250.218L509.129 308.812ZM488.05 248.664L530.184 273.172L546.816 239.429L488.05 248.664ZM501.411 187.227L536.824 205.479L553.388 169.545L501.411 187.227ZM554.707 169.552L537.946 205.913L622.108 176.936L554.707 169.552ZM554.208 167.669L571.663 91.1034L550.267 127.656L554.208 167.669ZM549.199 127.062L570.157 91.1034L487.979 130.796L549.199 127.062ZM497.343 186.771L398.145 112.897L394.89 197.234L497.343 186.771ZM395.674 199.385L439.448 282.148L485.557 248.343L395.674 199.385ZM549.481 128.591L501.727 185.853L553.046 168.395L549.481 128.591ZM499.121 187.794L396.201 198.306L486.256 247.358L499.121 187.794ZM379.175 195.706L393.681 197.247L396.62 115.818L379.175 195.706ZM396.283 112.275L358.268 136.343L338.981 190.323L396.283 112.275ZM337.399 191.181L357.117 135.997L325.287 126.432L279.455 174.815L337.399 191.181ZM278.773 173.791L324 126.046L270.644 110.012L278.773 173.791ZM254.092 107.996L268.711 108.826L215.851 57.7245L254.092 107.996ZM252.872 108.263L214.748 58.2071L225.495 118.308L252.872 108.263ZM224.533 119.747L105.604 104.656L227.788 137.95L224.533 119.747ZM228.308 139.149L105.604 105.409L275.479 173.769L228.308 139.149ZM277.521 175.532L104.851 106.162L251.085 240.063L277.521 175.532ZM251.507 243.363L239.942 305.973L297.718 371.419L251.507 243.363ZM300.966 373.036L392.912 343.98L348.103 310.75L300.966 373.036ZM350.361 310.931L394.087 343.357L410.371 321.24L350.361 310.931ZM411.695 321.468L395.852 342.984C409.866 338.094 428.604 332.615 446.787 327.497L411.695 321.468ZM412.49 320.388L449.475 326.742C454.114 325.441 458.699 324.167 463.143 322.936L465.653 322.241L468.374 321.487L468.49 321.455C478.11 318.793 486.846 316.375 493.724 314.377C497.79 313.195 501.2 312.163 503.756 311.314C505.035 310.89 506.093 310.514 506.91 310.19C507.09 310.119 507.257 310.051 507.409 309.986L439.454 283.767L412.49 320.388ZM507.878 308.881L486.381 249.227L440.482 282.878L507.878 308.881ZM437.598 281.218L394.28 199.317L377.197 240.706L437.598 281.218ZM376.18 240.024L393.353 198.418L378.664 196.857L363.337 231.41L376.18 240.024ZM375.713 241.155L362.843 232.523L349.587 262.406L365.477 265.954L375.713 241.155ZM362.325 230.731L377.41 196.724L337.905 192.527L320.294 202.541L362.325 230.731ZM361.831 231.845L319.129 203.204L252.967 240.827L348.392 262.139L361.831 231.845ZM319.181 201.795L336.233 192.098L281.802 176.725L319.181 201.795ZM277.333 171.989L269.419 109.898L254.682 109.094L277.333 171.989ZM253.463 109.361L225.706 119.49L229.054 138.209L276.549 173.066L253.463 109.361ZM318.015 202.457L278.614 176.031L252.534 239.694L318.015 202.457ZM252.536 242.677L299.408 372.565L331.941 299.226L252.536 242.677ZM332.939 299.937L302.004 369.676L347.132 310.044L332.939 299.937ZM350.628 309.76L411.167 320.16L437.703 284.121L350.628 309.76ZM349.016 308.985L436.849 283.123L366.202 267.345L349.016 308.985ZM365.013 267.079L349.091 263.524L333.436 298.817L347.716 308.987L365.013 267.079ZM332.438 298.107L347.897 263.257L254.083 242.305L332.438 298.107ZM376.73 241.838L366.666 266.22L436.255 281.761L376.73 241.838ZM297.835 373.365L239.665 307.472L229.209 364.073L297.835 373.365ZM339.42 191.482L377.921 195.572L396.201 113.803L339.42 191.482ZM474.938 332.333L449.539 327.969C430.131 333.413 409.847 339.313 395.147 344.502L428.543 384.385L474.938 332.333ZM247.213 238.225L104.098 106.915L153.577 170.52L247.213 238.225ZM271.756 109.094L324.923 125.071L326.066 8.2821L271.756 109.094ZM326.963 6.77625L326.21 125.457L357.521 134.867L326.963 6.77625ZM358.672 135.212L396.855 111.195L328.04 6.77625L358.672 135.212ZM500.194 185.812L548.413 127.997L487.568 131.94L500.194 185.812ZM608.557 352.646L576.933 304.18L531.939 274.816L608.557 352.646ZM531.094 273.251L547.859 239.888L591.695 272.316L531.094 273.251ZM532.609 274.091L578.439 303.989L592.082 273.127L532.609 274.091ZM623.577 177.123L548.413 237.6L537.946 206.721L623.577 177.123ZM655.698 261.916L579.5 303.842L593.497 273.251L655.698 261.916ZM549.828 240.182L657.359 261.02L593.286 272.316L549.828 240.182ZM399.766 112.24L497.876 185.278L441.79 103.495L399.766 112.24ZM443.666 103.903L485.077 130.796L498.82 185.278L443.666 103.903ZM441.407 102.179L401 111.195L454.207 66.1417L441.407 102.179ZM484.442 129.502L443.297 102.179L455.713 66.1417L484.442 129.502ZM192.943 246.205L157.641 234.912L95.0631 301.922L192.943 246.205ZM176.485 215.336L158.477 234.048L194.501 245.453L247.906 241.121L176.485 215.336ZM95.816 302.675L194.501 246.958L247.916 242.677L95.816 302.675ZM546.816 238.676L488.717 247.349L526.783 215.671L536.234 207.806L546.816 238.676ZM525.973 214.784L536.027 206.418L500.224 188.377L487.628 246.694L525.973 214.784Z" fill="#71A0DD"/>
<path d="M217.462 54.23C217.462 56.5662 215.568 58.46 213.231 58.46C210.894 58.46 209 56.5662 209 54.23C209 51.8938 210.894 50 213.231 50C215.568 50 217.462 51.8938 217.462 54.23Z" fill="#0A3D76"/>
<path d="M105.462 103.23C105.462 105.566 103.568 107.46 101.231 107.46C98.8943 107.46 97 105.566 97 103.23C97 100.894 98.8943 99 101.231 99C103.568 99 105.462 100.894 105.462 103.23Z" fill="#0A3D76"/>
<path d="M94.4621 305.23C94.4621 307.566 92.5678 309.46 90.231 309.46C87.8943 309.46 86 307.566 86 305.23C86 302.894 87.8943 301 90.231 301C92.5678 301 94.4621 302.894 94.4621 305.23Z" fill="#0A3D76"/>
<path d="M331.359 4.23C331.359 6.56616 329.465 8.46 327.128 8.46C324.791 8.46 322.897 6.56616 322.897 4.23C322.897 1.89384 324.791 0 327.128 0C329.465 0 331.359 1.89384 331.359 4.23Z" fill="#0A3D76"/>
<path d="M578.462 86.23C578.462 88.5662 576.568 90.46 574.231 90.46C571.894 90.46 570 88.5662 570 86.23C570 83.8938 571.894 82 574.231 82C576.568 82 578.462 83.8938 578.462 86.23Z" fill="#0A3D76"/>
<path d="M460.462 62.23C460.462 64.5662 458.568 66.46 456.231 66.46C453.894 66.46 452 64.5662 452 62.23C452 59.8938 453.894 58 456.231 58C458.568 58 460.462 59.8938 460.462 62.23Z" fill="#0A3D76"/>
<path d="M629.462 176.23C629.462 178.566 627.568 180.46 625.231 180.46C622.894 180.46 621 178.566 621 176.23C621 173.894 622.894 172 625.231 172C627.568 172 629.462 173.894 629.462 176.23Z" fill="#0A3D76"/>
<path d="M52.4621 201.23C52.4621 203.566 50.5678 205.46 48.231 205.46C45.8943 205.46 44 203.566 44 201.23C44 198.894 45.8943 197 48.231 197C50.5678 197 52.4621 198.894 52.4621 201.23Z" fill="#0A3D76"/>
<path d="M660 260.223C660 262.559 658.106 264.453 655.769 264.453C653.432 264.453 651.538 262.559 651.538 260.223C651.538 257.887 653.432 255.993 655.769 255.993C658.106 255.993 660 257.887 660 260.223Z" fill="#0A3D76"/>
<path d="M616.462 355.23C616.462 357.566 614.568 359.46 612.231 359.46C609.894 359.46 608 357.566 608 355.23C608 352.894 609.894 351 612.231 351C614.568 351 616.462 352.894 616.462 355.23Z" fill="#0A3D76"/>
<path d="M205.375 260.506C210.89 260.506 213.8 257.171 213.8 253.002C213.8 249.501 211.324 246.624 208.241 246.166C210.977 245.624 213.235 243.289 213.235 239.788C213.235 236.078 210.412 232.701 204.897 232.701H189.653V260.506H205.375ZM203.551 243.831H195.82V237.787H203.551C205.635 237.787 206.938 239.079 206.938 240.83C206.938 242.581 205.635 243.831 203.551 243.831ZM203.768 255.379H195.82V248.917H203.768C206.2 248.917 207.503 250.418 207.503 252.169C207.503 254.17 206.113 255.379 203.768 255.379Z" fill="url(#paint2_linear)"/>
<path d="M249.806 260.506L238.645 232.701H230.914L219.71 260.506H226.745L228.569 255.795H240.99L242.771 260.506H249.806ZM239.296 250.585H230.263L234.78 238.62L239.296 250.585Z" fill="url(#paint3_linear)"/>
<path d="M287.572 232.701V255.295H278.408V232.701H272.198V255.295H262.991V232.701H256.824V260.506H293.782V232.701H287.572Z" fill="url(#paint4_linear)"/>
<path d="M319.329 232.701V260.506H333.009C339.22 260.506 342.607 256.462 342.607 251.668C342.607 246.874 339.176 242.831 333.009 242.831H325.496V237.912H340.479V232.701H319.329ZM332.184 248.042C334.573 248.042 336.31 249.417 336.31 251.668C336.31 253.878 334.573 255.295 332.184 255.295H325.496V248.042H332.184Z" fill="url(#paint5_linear)"/>
<path d="M356.723 260.506L370.533 241.872V260.506H376.7V232.701H370.359L356.94 250.668V232.701H350.773V260.506H356.723Z" fill="url(#paint6_linear)"/>
<path d="M396.7 261.006C403.605 261.006 408.599 257.63 408.599 252.836C408.599 248.667 404.777 246.458 401.868 246.166C405.038 245.624 408.165 243.331 408.165 239.829C408.165 235.202 403.474 232.284 396.7 232.284C391.618 232.284 387.493 234.16 385.147 236.703L388.231 240.413C390.272 238.537 393.269 237.537 396.092 237.537C399.392 237.537 401.998 238.62 401.998 240.83C401.998 242.872 399.522 243.79 396.092 243.79H390.229V249H396.092C400.434 249 402.476 250.001 402.476 252.21C402.476 254.295 400.261 255.754 396.439 255.754C393.616 255.754 389.968 254.587 387.97 252.586L384.757 256.546C386.885 259.047 391.358 261.006 396.7 261.006Z" fill="url(#paint7_linear)"/>
<path d="M443.661 260.506V232.701H437.451V243.623H423.771V232.701H417.604V260.506H423.771V248.834H437.451V260.506H443.661Z" fill="url(#paint8_linear)"/>
<path d="M474.211 260.506V255.295H459.88V249H473.907V243.79H459.88V237.912H474.211V232.701H453.713V260.506H474.211Z" fill="url(#paint9_linear)"/>
<path d="M497.403 261.006C503.787 261.006 507.435 257.63 509.519 254.17L504.221 251.71C503.005 254.003 500.399 255.754 497.403 255.754C492.148 255.754 488.326 251.877 488.326 246.624C488.326 241.372 492.148 237.495 497.403 237.495C500.399 237.495 503.005 239.287 504.221 241.538L509.519 239.037C507.478 235.577 503.787 232.242 497.403 232.242C488.717 232.242 481.985 238.078 481.985 246.624C481.985 255.17 488.717 261.006 497.403 261.006Z" fill="url(#paint10_linear)"/>
</g>
<defs>
<filter id="filter0_d" x="0.118774" y="453.721" width="653.986" height="252.353" filterUnits="userSpaceOnUse" color-interpolation-filters="sRGB">
<feFlood flood-opacity="0" result="BackgroundImageFix"/>
<feColorMatrix in="SourceAlpha" type="matrix" values="0 0 0 0 0 0 0 0 0 0 0 0 0 0 0 0 0 0 127 0"/>
<feOffset dx="2" dy="2"/>
<feGaussianBlur stdDeviation="2"/>
<feColorMatrix type="matrix" values="0 0 0 0 0 0 0 0 0 0 0 0 0 0 0 0 0 0 0.1 0"/>
<feBlend mode="normal" in2="BackgroundImageFix" result="effect1_dropShadow"/>
<feBlend mode="normal" in="SourceGraphic" in2="effect1_dropShadow" result="shape"/>
</filter>
<filter id="filter1_f" x="61.2119" y="466.083" width="328.071" height="126.533" filterUnits="userSpaceOnUse" color-interpolation-filters="sRGB">
<feFlood flood-opacity="0" result="BackgroundImageFix"/>
<feBlend mode="normal" in="SourceGraphic" in2="BackgroundImageFix" result="shape"/>
<feGaussianBlur stdDeviation="2.5" result="effect1_foregroundBlur"/>
</filter>
<filter id="filter2_f" x="159.395" y="305.396" width="393.209" height="392.269" filterUnits="userSpaceOnUse" color-interpolation-filters="sRGB">
<feFlood flood-opacity="0" result="BackgroundImageFix"/>
<feBlend mode="normal" in="SourceGraphic" in2="BackgroundImageFix" result="shape"/>
<feGaussianBlur stdDeviation="40" result="effect1_foregroundBlur"/>
</filter>
<linearGradient id="paint0_linear" x1="373.688" y1="582.006" x2="296.258" y2="411.458" gradientUnits="userSpaceOnUse">
<stop offset="0.0960889"/>
<stop offset="0.978163" stop-color="#B4D1FA" stop-opacity="0"/>
</linearGradient>
<radialGradient id="paint1_radial" cx="0" cy="0" r="1" gradientUnits="userSpaceOnUse" gradientTransform="translate(354.659 461.485) rotate(90) scale(92.1068 92.4794)">
<stop stop-color="#0095FF"/>
<stop offset="1" stop-color="#BCE3FF"/>
</radialGradient>
<linearGradient id="paint2_linear" x1="206.943" y1="246.624" x2="475.937" y2="246.624" gradientUnits="userSpaceOnUse">
<stop stop-color="#8D2716"/>
<stop offset="1" stop-color="#C9081F"/>
</linearGradient>
<linearGradient id="paint3_linear" x1="206.943" y1="246.624" x2="475.937" y2="246.624" gradientUnits="userSpaceOnUse">
<stop stop-color="#8D2716"/>
<stop offset="1" stop-color="#C9081F"/>
</linearGradient>
<linearGradient id="paint4_linear" x1="206.943" y1="246.624" x2="475.937" y2="246.624" gradientUnits="userSpaceOnUse">
<stop stop-color="#8D2716"/>
<stop offset="1" stop-color="#C9081F"/>
</linearGradient>
<linearGradient id="paint5_linear" x1="206.943" y1="246.624" x2="475.937" y2="246.624" gradientUnits="userSpaceOnUse">
<stop stop-color="#8D2716"/>
<stop offset="1" stop-color="#C9081F"/>
</linearGradient>
<linearGradient id="paint6_linear" x1="206.943" y1="246.624" x2="475.937" y2="246.624" gradientUnits="userSpaceOnUse">
<stop stop-color="#8D2716"/>
<stop offset="1" stop-color="#C9081F"/>
</linearGradient>
<linearGradient id="paint7_linear" x1="206.943" y1="246.624" x2="475.937" y2="246.624" gradientUnits="userSpaceOnUse">
<stop stop-color="#8D2716"/>
<stop offset="1" stop-color="#C9081F"/>
</linearGradient>
<linearGradient id="paint8_linear" x1="206.943" y1="246.624" x2="475.937" y2="246.624" gradientUnits="userSpaceOnUse">
<stop stop-color="#8D2716"/>
<stop offset="1" stop-color="#C9081F"/>
</linearGradient>
<linearGradient id="paint9_linear" x1="206.943" y1="246.624" x2="475.937" y2="246.624" gradientUnits="userSpaceOnUse">
<stop stop-color="#8D2716"/>
<stop offset="1" stop-color="#C9081F"/>
</linearGradient>
<linearGradient id="paint10_linear" x1="206.943" y1="246.624" x2="475.937" y2="246.624" gradientUnits="userSpaceOnUse">
<stop stop-color="#8D2716"/>
<stop offset="1" stop-color="#C9081F"/>
</linearGradient>
<clipPath id="clip0">
<rect width="660" height="700" fill="white"/>
</clipPath>
<clipPath id="clip1">
<rect width="547.712" height="396.357" fill="white" transform="translate(42.2946 255.026)"/>
</clipPath>
</defs>
</svg>
