<svg width="650" height="400" viewBox="0 0 650 400" fill="none" xmlns="http://www.w3.org/2000/svg">
<g clip-path="url(#clip0)">
<g filter="url(#filter0_d)">
<path d="M331 399.5L578 305.5L253.5 183L7 277L331 399.5Z" fill="#FFF5F7"/>
</g>
<g clip-path="url(#clip1)">
<g filter="url(#filter1_f)">
<path d="M351.849 241.213L187.829 302.887L58.6932 255.992L221.8 197.162L351.849 241.213Z" fill="url(#paint0_linear)"/>
</g>
<path d="M328.163 357.573L183.259 302.986L183.21 128.082L328.163 182.668V357.573Z" fill="#053866"/>
<path d="M474.576 302.123L328.164 247.498L327.5 72.57L330 70.5L474.567 126.819L474.576 302.123Z" fill="#083556"/>
<path d="M328.164 357.572L474.517 302.078L474.567 126.638L328.214 181.682L328.164 357.572Z" fill="#054270"/>
<path d="M183.259 302.726L330.5 243.5L328.243 71.95L326.5 70.5L183.21 126.873L183.259 302.726Z" fill="#063D66"/>
<g filter="url(#filter2_f)">
<ellipse cx="327.605" cy="229.307" rx="99.9545" ry="99.5519" fill="url(#paint1_radial)"/>
</g>
<path d="M328.167 357.575L183.264 302.986L183.214 128.082L328.167 182.668V357.575Z" fill="#053866"/>
<path d="M219.452 185.815L183.264 172.067L183.214 128.082L219.452 142.129V185.815Z" fill="#053866"/>
<path d="M192.847 169.931C189.583 170.013 186.337 169.425 183.309 168.203L183.211 163.564C190.574 166.377 197.64 165.834 203.076 162.084C209.549 157.642 213.651 150.288 213.651 139.628L217.999 141.356C217.999 153.496 214.392 160.307 206.733 165.588C202.621 168.345 197.798 169.854 192.847 169.931Z" fill="#FF8098"/>
<path d="M255.689 198.805L219.451 184.985V141.072L255.689 154.892V198.805Z" fill="#0E2951"/>
<path d="M291.926 213.238L255.688 199.418V155.505L291.926 169.274V213.238Z" fill="#FF8098"/>
<path d="M328.164 226.224L291.925 212.573V168.495L328.41 182.039L328.164 226.224Z" fill="#911A31"/>
<path d="M219.449 229.116L183.211 215.346V171.382L219.449 185.202V229.116Z" fill="#911A31"/>
<path d="M255.689 242.106L219.451 228.631V185.815L255.689 199.29V242.106Z" fill="#C43B55"/>
<path d="M291.926 256.538L255.688 242.718V198.805L291.926 212.625V256.538Z" fill="#053866"/>
<path d="M328.164 269.529L291.925 256.203L291.973 212.583L328.164 226.188V269.529Z" fill="#132F7C"/>
<path d="M255.689 286.849L219.451 273.079V228.639L255.689 242.093V286.849Z" fill="#FF8098"/>
<path d="M291.929 299.838L255.691 286.018V242.105L291.929 255.925V299.838Z" fill="#0E2951"/>
<path d="M328.169 314.272L291.931 300.605V256.539L328.169 270.206V314.272Z" fill="#053866"/>
<path d="M219.449 316.57L183.211 302.96V258.837L219.449 272.416V316.57Z" fill="#C43B55"/>
<path d="M255.689 330.149L219.451 316.367V272.415L255.689 286.197V330.149Z" fill="#053866"/>
<path d="M291.926 343.767L255.688 329.947V286.033L291.926 299.853V343.767Z" fill="#FF8098"/>
<path d="M328.164 357.572L291.925 343.982V299.839L328.164 314.025V357.572Z" fill="#911A31"/>
<path d="M190.703 161.276C188.131 161.315 185.579 160.814 183.211 159.806V154.484C188.476 156.511 195.007 155.802 198.247 153.673C203.664 150.073 206.297 144.497 206.297 136.742L210.752 138.516C210.752 148.046 207.36 153.875 201.285 158.083C198.152 160.174 194.469 161.286 190.703 161.276Z" fill="#D6516B"/>
<path d="M188.113 151.173C186.433 151.207 184.765 150.88 183.211 150.211V144.598C186.377 145.881 191.279 145.56 193.986 142.728C196.795 139.788 197.561 137.383 197.561 132.412L202.055 134.282C202.055 141.124 199.808 145.774 195.569 148.821C193.363 150.364 190.767 151.183 188.113 151.173Z" fill="#C43B55"/>
<path d="M185.519 141.054C184.724 141.128 183.927 140.964 183.211 140.58V135.052C183.98 135.368 186.48 135.579 187.442 135.052C189.125 134.105 189.125 132.262 188.307 129.525L193.356 131.367C193.356 135.21 192.106 137.895 189.75 139.685C188.487 140.573 187.019 141.047 185.519 141.054Z" fill="#A62E41"/>
<path d="M327.602 307.055L296.272 295.518V220.455L328.162 231.794V237.884L301.672 227.981V292.918L327.153 303.378L327.602 307.055Z" fill="#C43B55"/>
<path d="M328.162 308.498L296.272 295.894V257.777L301.672 259.719V292.313L328.162 302.466V308.498Z" fill="#F985A0"/>
<path d="M327.572 295.428L304.972 288.315V233.445L328.164 241.647V247.837L310.371 241.144V285.78L328.164 291.97L327.572 295.428Z" fill="#C43B55"/>
<path d="M327.572 283.294L315.121 279.947V249.321L328.167 253.838V259.876L320.33 256.833V277.157L328.167 280.545L327.572 283.294Z" fill="#C43B55"/>
<path d="M328.167 285.405L315.121 280.34V264.712L320.33 266.596V276.765L328.167 279.297V285.405Z" fill="#F985A0"/>
<path d="M328.164 296.952L304.972 288.471V261L310.371 263V284.892L328.164 290.922V296.952Z" fill="#F985A0"/>
<path d="M210.752 313.33L183.211 302.96V269.528L210.752 279.896V313.33Z" fill="#053866"/>
<path d="M200.605 309.499L183.211 302.96V281.074L200.605 287.978V309.499Z" fill="#FF8098"/>
<path d="M291.926 184.659L278.67 207.465L255.688 182.64L268.943 159.834L291.926 184.659Z" fill="#C43B55"/>
<path d="M283.231 184.135L276.299 195.919L264.387 183.115L271.267 171.382L283.231 184.135Z" fill="#911A31"/>
<path d="M291.926 343.665L255.688 329.802V294.592L291.926 308.404V343.665Z" fill="#C43B55"/>
<path d="M291.926 343.373L255.688 329.146V302.96L291.926 317.135V343.373Z" fill="#911A31"/>
<path d="M291.926 343.312L255.688 329.157V313.002L291.926 327.105V343.312Z" fill="#053866"/>
<path d="M291.926 343.857L255.688 330.057V322.207L291.926 335.957V343.857Z" fill="#0E2951"/>
<path d="M219.451 195.918L255.689 209.405L219.451 219.959L255.689 233.445L219.451 195.918Z" fill="#911A31"/>
<path d="M187.559 217.569L183.211 215.796V171.382L187.559 173.154V217.569Z" fill="#FF8098"/>
<path d="M194.806 219.012L190.458 217.297V174.268L194.806 176.033V219.012Z" fill="#FF8098"/>
<path d="M217.998 227.671L212.201 225.954V182.927L217.998 184.644V227.671Z" fill="#FF8098"/>
<path d="M209.301 224.784L204.953 223.067V180.041L209.301 181.758V224.784Z" fill="#FF8098"/>
<path d="M202.056 221.898L197.708 220.181V177.155L202.056 178.872V221.898Z" fill="#FF8098"/>
<path d="M219.449 272.416L183.211 258.596V214.682L219.449 228.452V272.416Z" fill="#0E2951"/>
<path d="M219.449 272.415L200.605 265.511V243.548L219.449 250.452V272.415Z" fill="#911A31"/>
<path d="M200.605 243.549L183.211 236.633V214.682L200.605 221.232V243.549Z" fill="#911A31"/>
<path fill-rule="evenodd" clip-rule="evenodd" d="M223.799 279.632L250.071 289.943L248.677 293.75L227.73 285.529V310.757L247.408 318.48V299.544L232.175 293.557V307.042L242.964 311.291V303.16L236.572 300.644V303.424L241.23 305.255L239.835 309.06L232.641 306.233V294.742L246.895 300.353V317.195L228.244 309.849V287.658L251.34 296.735V324.376L223.799 313.567V279.632Z" fill="#F985A0"/>
<path fill-rule="evenodd" clip-rule="evenodd" d="M325.263 319.974L300.584 343.139L296.272 338.881L320.951 315.715L325.263 319.974Z" fill="#0E2951"/>
<path fill-rule="evenodd" clip-rule="evenodd" d="M301.438 307.055L325.263 348.791L320.097 351.799L296.272 310.063L301.438 307.055Z" fill="#0E2951"/>
<path d="M268.731 263.755L262.934 261.339V253.652L268.731 256.068V263.755Z" fill="#911A31"/>
<path d="M275.978 276.745L270.181 274.342V266.642L275.978 269.045V276.745Z" fill="#911A31"/>
<path d="M284.677 288.293L278.88 286.222V279.632L284.677 281.703V288.293Z" fill="#911A31"/>
<path d="M328.409 182.039L474.565 126.639V302.279L328.162 357.573L328.409 182.039Z" fill="#053866"/>
<path d="M438.329 228.49L474.567 214.682V258.607L438.329 272.415V228.49Z" fill="#911A31"/>
<path d="M400.641 242.59L438.328 229.115V271.98L400.641 285.406V242.59Z" fill="#C43B55"/>
<path d="M364.406 255.925L400.644 242.105V286.018L364.406 299.838V255.925Z" fill="#053866"/>
<path d="M328.165 269.5L364.403 256.5V300.3L328.165 314.272V269.5Z" fill="#132F7C"/>
<path d="M400.64 198.192L438.328 184.372V229.32L400.64 242.709V198.192Z" fill="#FF8098"/>
<path d="M364.406 212.626L400.644 198.806V242.719L364.406 256.539V212.626Z" fill="#0E2951"/>
<path d="M328.165 225.767L364.403 211.795V255.557L328.165 269.529V225.767Z" fill="#053866"/>
<path d="M400.645 285.386L438.39 271.975L438.139 315.931L400.645 330.192V285.386Z" fill="#0E2951"/>
<path d="M364.406 300.031L400.644 285.407V330.199L364.406 343.843V300.031Z" fill="#FF8098"/>
<path d="M328.165 314.027L364.403 300.031V343.869L328.165 357.57V314.027Z" fill="#911A31"/>
<path d="M438.327 140.497L474.565 126.639V170.564L438.327 184.372V140.497Z" fill="#C43B55"/>
<path d="M400.637 154.893L438.325 141.073V184.986L400.637 198.806V154.893Z" fill="#053866"/>
<path d="M364.399 168.98L400.637 155.505V198.321L364.399 211.795V168.98Z" fill="#FF8098"/>
<path d="M328.361 182.018L364.401 168.495V212.257L328.163 226.229L328.361 182.018Z" fill="#911A31"/>
<path d="M328.158 308.46V302.519L354.706 291.84V228.019L328.594 237.56L326.711 232.716L360.05 220.456V295.399L328.158 308.46Z" fill="#C43B55"/>
<path d="M360.053 258.229L354.711 260V228.061L328.163 237.892V231.83L360.053 220.456V258.229Z" fill="#F985A0"/>
<path d="M328.163 296.953V290.885L346.163 283.583V240.661L328.163 247.618V241.55L351.356 234.889V287.185L328.163 296.953Z" fill="#C43B55"/>
<path d="M328.158 285.448V279.294L335.958 276.627V256.656L328.561 259.357L326.711 254.63L341.207 249.323V280.149L328.158 285.448Z" fill="#C43B55"/>
<path d="M341.209 264.945L335.948 266.643V256.698L328.163 259.864V253.83L341.209 249.323V264.945Z" fill="#F985A0"/>
<path d="M351.356 261.268L346.163 263V240.877L328.163 247.821V241.646L351.356 233.446V261.268Z" fill="#F985A0"/>
<path d="M455.719 133.581L474.563 126.639V148.614L455.719 155.506V133.581Z" fill="#FF8098"/>
<path d="M364.399 327.381L377.663 295.51L400.637 302.608L387.373 334.48L364.399 327.381Z" fill="#C43B55"/>
<path d="M373.095 320.693L379.971 304.17L391.939 307.853L385.013 324.376L373.095 320.693Z" fill="#911A31"/>
<path d="M364.399 168.961L400.637 155.505V189.729L364.399 203.135V168.961Z" fill="#C43B55"/>
<path d="M364.399 169.224L400.637 155.505V180.806L364.399 194.475V169.224Z" fill="#911A31"/>
<path d="M364.399 168.986L400.637 155.505V170.94L364.399 184.372V168.986Z" fill="#053866"/>
<path d="M364.399 169.274L400.637 155.505V163.387L364.399 177.155V169.274Z" fill="#0E2951"/>
<path d="M438.325 261.817L400.637 275.303L438.325 237.777L400.637 251.263" fill="#911A31"/>
<path d="M474.561 259.131L468.764 260.87V216.471L474.561 214.683V259.131Z" fill="#FF8098"/>
<path d="M467.314 261.057L461.592 263.211L461.517 219.286L467.314 217.569V261.057Z" fill="#FF8098"/>
<path d="M445.57 269.256L439.814 271.579L439.773 227.947L445.462 226.229L445.57 269.256Z" fill="#FF8098"/>
<path d="M452.82 266.369L447.023 269.069V225.059L452.82 223.342V266.369Z" fill="#FF8098"/>
<path d="M460.067 263.482L454.27 267.195V222.173L460.067 220.456V263.482Z" fill="#FF8098"/>
<path d="M438.327 185.203L474.565 171.383V215.296L438.327 229.116V185.203Z" fill="#0E2951"/>
<path d="M438.327 271.803L474.565 257.983V301.897L438.327 315.717V271.803Z" fill="#053866"/>
<path d="M438.327 185.158L455.721 178.599V199.464L438.327 206.023V185.158Z" fill="#911A31"/>
<path d="M442.746 314.257L438.139 315.93C438.139 286.348 454.959 268.166 474.565 260.87V265.237C456.874 271.839 442.746 294.254 442.746 314.257Z" fill="#FF8098"/>
<path d="M452.797 310.491L447.353 312.583C447.353 291.46 459.731 275.049 474.564 269.53V274.798C461.604 279.665 452.797 294.987 452.797 310.491Z" fill="#D6516B"/>
<path d="M461.593 307.144L457.404 308.817C457.404 295.993 464.672 283.235 474.562 279.529V284.509C466.858 287.435 461.593 297.928 461.593 307.144Z" fill="#C43B55"/>
<path d="M470.298 303.877L466.199 305.47C465.317 298.524 469.235 291.605 474.575 289.571L474.561 295.195C471.229 296.435 470.298 299.66 470.298 303.877Z" fill="#A62E41"/>
<path fill-rule="evenodd" clip-rule="evenodd" d="M433.976 146.845V181.552L407.773 191.589L406.315 187.696L429.859 178.677V152.874L409.102 160.825V180.197L425.204 174.063V160.267L413.757 164.628V172.895L420.5 170.315V167.522L417.083 168.834L415.622 164.942L424.617 161.489V173.191L409.64 178.922V161.748L429.322 154.25V176.943L404.985 186.215V157.95L433.976 146.845Z" fill="#F985A0"/>
<path fill-rule="evenodd" clip-rule="evenodd" d="M331.06 217.338L356.11 174.269L361.501 177.387L336.451 220.456L331.06 217.338Z" fill="#0E2951"/>
<path fill-rule="evenodd" clip-rule="evenodd" d="M355.777 211.796L331.06 187.434L335.335 182.929L360.051 207.291L355.777 211.796Z" fill="#0E2951"/>
<path d="M387.593 231.532L393.39 229.116V236.803L387.593 239.219V231.532Z" fill="#911A31"/>
<path d="M380.346 225.402L386.143 223.342V229.942L380.346 232.002V225.402Z" fill="#911A31"/>
<path d="M371.646 218.197L377.443 216.126V222.715L371.646 224.786V218.197Z" fill="#911A31"/>
<path d="M447.023 137.404L474.564 126.639V160.719L447.023 171.382V137.404Z" fill="#053866"/>
<path d="M455.719 199.948L474.563 193.032V215.512L455.729 222.435L455.719 199.948Z" fill="#911A31"/>
<path opacity="0.3" d="M183.799 127.186L328.25 181.779V357.761L183.154 303.168L183.799 127.186Z" fill="black"/>
<path d="M528.2 73.1841L473.74 126.64L328.25 71.9517L382.574 18.3895L528.2 73.1841Z" fill="#084C80"/>
<path d="M328.41 182.039L273.887 236.332L128.129 181.758L184.082 127.312L328.41 182.039Z" fill="#094573"/>
<path d="M328.249 71.9507L274.729 18L129.153 72.9974L183.513 127.694L328.249 71.9507Z" fill="#084C80"/>
<path d="M528.199 180.628L473.835 126.638L328.164 182.09L382.828 236.332L528.199 180.628Z" fill="#084C80"/>
</g>
</g>
<defs>
<filter id="filter0_d" x="5" y="181" width="579" height="224.5" filterUnits="userSpaceOnUse" color-interpolation-filters="sRGB">
<feFlood flood-opacity="0" result="BackgroundImageFix"/>
<feColorMatrix in="SourceAlpha" type="matrix" values="0 0 0 0 0 0 0 0 0 0 0 0 0 0 0 0 0 0 127 0"/>
<feOffset dx="2" dy="2"/>
<feGaussianBlur stdDeviation="2"/>
<feColorMatrix type="matrix" values="0 0 0 0 0 0 0 0 0 0 0 0 0 0 0 0 0 0 0.1 0"/>
<feBlend mode="normal" in2="BackgroundImageFix" result="effect1_dropShadow"/>
<feBlend mode="normal" in="SourceGraphic" in2="effect1_dropShadow" result="shape"/>
</filter>
<filter id="filter1_f" x="53.6932" y="192.162" width="303.156" height="115.726" filterUnits="userSpaceOnUse" color-interpolation-filters="sRGB">
<feFlood flood-opacity="0" result="BackgroundImageFix"/>
<feBlend mode="normal" in="SourceGraphic" in2="BackgroundImageFix" result="shape"/>
<feGaussianBlur stdDeviation="2.5" result="effect1_foregroundBlur"/>
</filter>
<filter id="filter2_f" x="147.65" y="49.7552" width="359.909" height="359.104" filterUnits="userSpaceOnUse" color-interpolation-filters="sRGB">
<feFlood flood-opacity="0" result="BackgroundImageFix"/>
<feBlend mode="normal" in="SourceGraphic" in2="BackgroundImageFix" result="shape"/>
<feGaussianBlur stdDeviation="40" result="effect1_foregroundBlur"/>
</filter>
<linearGradient id="paint0_linear" x1="343.165" y1="304.669" x2="268.078" y2="141.028" gradientUnits="userSpaceOnUse">
<stop offset="0.0960889"/>
<stop offset="0.978163" stop-color="#B4D1FA" stop-opacity="0"/>
</linearGradient>
<radialGradient id="paint1_radial" cx="0" cy="0" r="1" gradientUnits="userSpaceOnUse" gradientTransform="translate(326.456 194.979) rotate(90) scale(78.9549 79.2743)">
<stop stop-color="#0095FF"/>
<stop offset="1" stop-color="#BCE3FF"/>
</radialGradient>
<clipPath id="clip0">
<rect width="650" height="400" fill="white"/>
</clipPath>
<clipPath id="clip1">
<rect width="469.504" height="339.761" fill="white" transform="translate(58.6934 18)"/>
</clipPath>
</defs>
</svg>
