<svg width="659" height="696" viewBox="0 0 659 696" fill="none" xmlns="http://www.w3.org/2000/svg">
<g clip-path="url(#clip0)">
<g filter="url(#filter0_f)">
<path d="M349.983 556.213L154.168 629.914L5.32057e-05 573.873L194.724 503.571L349.983 556.213Z" fill="url(#paint0_linear)"/>
</g>
<path d="M321.705 695.262L148.713 630.032L148.653 421.021L321.705 486.251V695.262Z" fill="#053866"/>
<path d="M496.5 629L321.707 563.723L321.809 353.944L496.489 419.511L496.5 629Z" fill="#083556"/>
<path d="M321.707 695.262L496.429 628.946L496.489 419.295L321.767 485.073L321.707 695.262Z" fill="#054270"/>
<path d="M148.713 629.72L321.809 566.545V353.944L148.653 419.577L148.713 629.72Z" fill="#063D66"/>
<g filter="url(#filter1_f)">
<ellipse cx="321.039" cy="541.985" rx="119.33" ry="118.964" fill="url(#paint1_radial)"/>
</g>
<path d="M321.711 695.266L148.719 630.032L148.659 421.021L321.711 486.251V695.266Z" fill="#053866"/>
<path d="M191.922 490.012L148.718 473.583L148.659 421.021L191.922 437.807V490.012Z" fill="#053866"/>
<path d="M160.159 471.03C156.262 471.129 152.387 470.426 148.773 468.966L148.655 463.422C157.445 466.784 165.881 466.135 172.371 461.653C180.099 456.345 184.996 447.558 184.996 434.819L190.187 436.883C190.187 451.391 185.881 459.53 176.736 465.84C171.828 469.136 166.07 470.938 160.159 471.03V471.03Z" fill="#FF8098"/>
<path d="M235.182 505.535L191.919 489.02V436.543L235.182 453.058V505.535Z" fill="#0E2951"/>
<path d="M278.444 522.783L235.181 506.268V453.791L278.444 470.246V522.783Z" fill="#FF8098"/>
<path d="M321.706 538.301L278.443 521.988V469.314L322 485.5L321.706 538.301Z" fill="#911A31"/>
<path d="M191.918 541.756L148.655 525.301V472.765L191.918 489.28V541.756Z" fill="#911A31"/>
<path d="M235.182 557.28L191.919 541.178V490.013L235.182 506.115V557.28Z" fill="#C43B55"/>
<path d="M278.444 574.527L235.181 558.012V505.535L278.444 522.05V574.527Z" fill="#053866"/>
<path d="M321.706 590.05L278.443 574.126L278.5 522L321.706 538.258V590.05Z" fill="#132F7C"/>
<path d="M235.182 610.747L191.919 594.292V541.186L235.182 557.265V610.747Z" fill="#FF8098"/>
<path d="M278.447 626.27L235.184 609.755V557.278L278.447 573.793V626.27Z" fill="#0E2951"/>
<path d="M321.713 643.518L278.45 627.186V574.527L321.713 590.859V643.518Z" fill="#053866"/>
<path d="M191.918 646.265L148.655 630V577.273L191.918 593.5V646.265Z" fill="#C43B55"/>
<path d="M235.182 662.491L191.919 646.022V593.499L235.182 609.969V662.491Z" fill="#053866"/>
<path d="M278.444 678.765L235.181 662.25V609.773L278.444 626.288V678.765Z" fill="#FF8098"/>
<path d="M321.706 695.262L278.443 679.022V626.271L321.706 643.223V695.262Z" fill="#911A31"/>
<path d="M157.6 460.688C154.529 460.735 151.482 460.136 148.655 458.932V452.571C154.941 454.994 162.738 454.146 166.606 451.602C173.073 447.301 176.216 440.638 176.216 431.369L181.535 433.49C181.535 444.878 177.485 451.844 170.232 456.872C166.492 459.371 162.095 460.7 157.6 460.688V460.688Z" fill="#D6516B"/>
<path d="M154.508 448.614C152.502 448.656 150.51 448.264 148.655 447.465V440.758C152.435 442.291 158.288 441.908 161.519 438.523C164.872 435.01 165.786 432.135 165.786 426.195L171.152 428.431C171.152 436.606 168.469 442.163 163.409 445.804C160.775 447.648 157.676 448.627 154.508 448.614V448.614Z" fill="#C43B55"/>
<path d="M151.41 436.523C150.462 436.611 149.509 436.415 148.655 435.957V429.351C149.573 429.728 152.558 429.98 153.706 429.351C155.715 428.218 155.715 426.017 154.739 422.745L160.766 424.947C160.766 429.54 159.274 432.748 156.461 434.887C154.954 435.947 153.201 436.515 151.41 436.523Z" fill="#A62E41"/>
<path d="M321.035 634.894L283.633 621.108V531.407L321.704 544.957V552.234L290.079 540.4V618L320.5 630.5L321.035 634.894Z" fill="#C43B55"/>
<path d="M321.704 636.619L283.633 621.556V576.251L290.079 578.302V617.278L321.704 629.41V636.619Z" fill="#F985A0"/>
<path d="M321 621L294.019 612.5V546.93L321.707 556.732V564.128L300.465 556.13V609.47L321.707 616.867L321 621Z" fill="#C43B55"/>
<path d="M321 606.5L306.136 602.5V565.902L321.71 571.299V578.515L312.354 574.878V599.166L321.71 603.214L321 606.5Z" fill="#C43B55"/>
<path d="M321.71 609.022L306.136 602.97V583.15L312.354 585.227V598.697L321.71 601.724V609.022Z" fill="#F985A0"/>
<path d="M321.707 622.821L294.019 612.685V579.701L300.465 581.752V608.409L321.707 615.615V622.821Z" fill="#F985A0"/>
<path d="M181.535 642.392L148.655 630V590.049L181.535 602.439V642.392Z" fill="#053866"/>
<path d="M169.421 637.814L148.655 630V603.847L169.421 612.097V637.814Z" fill="#FF8098"/>
<path d="M278.444 488.63L262.619 515.883L235.181 486.218L251.006 458.965L278.444 488.63Z" fill="#C43B55"/>
<path d="M268.064 488.004L259.788 502.086L245.567 486.785L253.781 472.765L268.064 488.004Z" fill="#911A31"/>
<path d="M278.444 678.643L235.181 662.076V620L278.444 636.506V678.643Z" fill="#C43B55"/>
<path d="M278.444 678.294L235.181 661.293V630L278.444 646.94V678.294Z" fill="#911A31"/>
<path d="M278.444 678.221L235.181 661.305V642L278.444 658.854V678.221Z" fill="#053866"/>
<path d="M278.444 678.872L235.181 662.381V653L278.444 669.431V678.872Z" fill="#0E2951"/>
<path d="M191.919 502.086L235.182 518.202L191.919 530.814L235.182 546.93L191.919 502.086Z" fill="#911A31"/>
<path d="M153.845 527.958L148.655 525.84V472.765L153.845 474.883V527.958Z" fill="#FF8098"/>
<path d="M162.498 529.682L157.307 527.633V476.214L162.498 478.322V529.682Z" fill="#FF8098"/>
<path d="M190.186 540.03L183.265 537.978V486.561L190.186 488.613V540.03Z" fill="#FF8098"/>
<path d="M179.803 536.581L174.612 534.529V483.112L179.803 485.164V536.581Z" fill="#FF8098"/>
<path d="M171.153 533.132L165.962 531.08V479.663L171.153 481.715V533.132Z" fill="#FF8098"/>
<path d="M191.918 593.5L148.655 576.985V524.508L191.918 540.963V593.5Z" fill="#0E2951"/>
<path d="M191.918 593.499L169.421 585.249V559.004L191.918 567.254V593.499Z" fill="#911A31"/>
<path d="M169.421 559.004L148.655 550.74V524.508L169.421 532.336V559.004Z" fill="#911A31"/>
<path fill-rule="evenodd" clip-rule="evenodd" d="M197.111 602.124L228.476 614.445L226.812 618.994L201.804 609.17V639.317L225.297 648.546V625.918L207.111 618.764V634.879L219.991 639.956V630.239L212.36 627.233V630.555L217.921 632.742L216.256 637.29L207.666 633.911V620.18L224.684 626.885V647.011L202.417 638.233V611.714L229.991 622.561V655.592L197.111 642.676V602.124Z" fill="#F985A0"/>
<path fill-rule="evenodd" clip-rule="evenodd" d="M318.243 650.332L288.781 678.014L283.633 672.926L313.095 645.243L318.243 650.332Z" fill="#0E2951"/>
<path fill-rule="evenodd" clip-rule="evenodd" d="M289.8 634.894L318.243 684.768L312.076 688.363L283.633 638.488L289.8 634.894Z" fill="#0E2951"/>
<path d="M250.753 583.151L243.833 580.264V571.077L250.753 573.965V583.151Z" fill="#911A31"/>
<path d="M259.405 598.673L252.484 595.802V586.6L259.405 589.471V598.673Z" fill="#911A31"/>
<path d="M269.79 612.473L262.869 609.998V602.124L269.79 604.598V612.473Z" fill="#911A31"/>
<path d="M322 485.5L496.487 419.297V629.187L321.705 695.263L322 485.5Z" fill="#053866"/>
<path d="M453.227 541.009L496.489 524.508V576.999L453.227 593.5V541.009Z" fill="#911A31"/>
<path d="M408.233 557.858L453.226 541.756V592.979L408.233 609.023V557.858Z" fill="#C43B55"/>
<path d="M364.975 573.793L408.238 557.278V609.755L364.975 626.27V573.793Z" fill="#053866"/>
<path d="M321.708 591.223L364.971 574.526V626.822L321.708 643.518V591.223Z" fill="#132F7C"/>
<path d="M408.232 504.803L453.226 488.288V542L408.232 558V504.803Z" fill="#FF8098"/>
<path d="M364.975 522.051L408.238 505.536V558.013L364.975 574.528V522.051Z" fill="#0E2951"/>
<path d="M321.708 537.754L364.971 521.058V573.353L321.708 590.05V537.754Z" fill="#053866"/>
<path d="M408.239 609L453.3 592.973L453 645.5L408.239 662.543V609Z" fill="#0E2951"/>
<path d="M364.975 626.5L408.238 609.024V662.551L364.975 678.855V626.5Z" fill="#FF8098"/>
<path d="M321.708 643.225L364.971 626.5V678.886L321.708 695.259V643.225Z" fill="#911A31"/>
<path d="M453.225 435.857L496.488 419.297V471.788L453.225 488.288V435.857Z" fill="#C43B55"/>
<path d="M408.229 453.06L453.222 436.545V489.021L408.229 505.536V453.06Z" fill="#053866"/>
<path d="M364.966 469.894L408.229 453.792V504.957L364.966 521.059V469.894Z" fill="#FF8098"/>
<path d="M321.943 485.475L364.969 469.315V521.61L321.706 538.307L321.943 485.475Z" fill="#911A31"/>
<path d="M321.7 636.573V629.473L353.394 616.712V540.446L322.221 551.848L319.973 546.058L359.775 531.408V620.965L321.7 636.573Z" fill="#C43B55"/>
<path d="M359.777 577.623L353.4 579.5V540.496L321.706 552.244V545L359.777 531.408V577.623Z" fill="#F985A0"/>
<path d="M321.706 622.822V615.57L343.195 606.845V555.554L321.706 563.866V556.615L349.394 548.656V611.149L321.706 622.822Z" fill="#C43B55"/>
<path d="M321.7 609.073V601.719L331.012 598.532V574.667L322.181 577.895L319.973 572.245L337.278 565.904V602.741L321.7 609.073Z" fill="#C43B55"/>
<path d="M337.281 584.573L331 586.602V574.717L321.706 578.5V571.289L337.281 565.904V584.573Z" fill="#F985A0"/>
<path d="M349.394 581.048L343.195 583.151V555.811L321.706 564.109V556.73L349.394 546.931V581.048Z" fill="#F985A0"/>
<path d="M473.989 427.592L496.485 419.297V445.556L473.989 453.792V427.592Z" fill="#FF8098"/>
<path d="M364.966 659.183L380.801 621.097L408.229 629.58L392.394 667.667L364.966 659.183Z" fill="#C43B55"/>
<path d="M375.348 651.192L383.556 631.446L397.845 635.847L389.576 655.593L375.348 651.192Z" fill="#911A31"/>
<path d="M364.966 469.871L408.229 453.792V494.689L364.966 510.71V469.871Z" fill="#C43B55"/>
<path d="M364.966 470.186L408.229 453.792V484.026L364.966 500.361V470.186Z" fill="#911A31"/>
<path d="M364.966 469.902L408.229 453.792V472.236L364.966 488.288V469.902Z" fill="#053866"/>
<path d="M364.966 470.245L408.229 453.792V463.211L364.966 479.664V470.245Z" fill="#0E2951"/>
<path d="M453.222 580.835L408.229 596.951L453.222 552.106L408.229 568.222" fill="#911A31"/>
<path d="M496.483 577.625L489.562 579.703V526.646L496.483 524.509V577.625Z" fill="#FF8098"/>
<path d="M487.831 579.926L481 582.5L480.91 530.01L487.831 527.958V579.926Z" fill="#FF8098"/>
<path d="M461.872 589.724L455 592.5L454.951 540.359L461.742 538.307L461.872 589.724Z" fill="#FF8098"/>
<path d="M470.527 586.273L463.606 589.5V536.909L470.527 534.857V586.273Z" fill="#FF8098"/>
<path d="M479.179 582.824L472.258 587.261V533.46L479.179 531.408V582.824Z" fill="#FF8098"/>
<path d="M453.225 489.28L496.487 472.765V525.242L453.225 541.757V489.28Z" fill="#0E2951"/>
<path d="M453.225 592.768L496.487 576.253V628.73L453.225 645.245V592.768Z" fill="#053866"/>
<path d="M453.225 489.227L473.991 481.389V506.323L453.225 514.16V489.227Z" fill="#911A31"/>
<path d="M458.5 643.5L453 645.5C453 610.149 473.081 588.421 496.487 579.702V584.922C475.368 592.811 458.5 619.596 458.5 643.5Z" fill="#FF8098"/>
<path d="M470.5 639L464 641.5C464 616.258 478.777 596.646 496.486 590.051V596.347C481.013 602.163 470.5 620.473 470.5 639Z" fill="#D6516B"/>
<path d="M481 635L476 637C476 621.675 484.676 606.429 496.483 602V607.952C487.287 611.448 481 623.987 481 635Z" fill="#C43B55"/>
<path d="M491.394 631.096L486.5 633C485.447 624.699 490.124 616.431 496.5 614L496.483 620.721C492.505 622.203 491.394 626.057 491.394 631.096Z" fill="#A62E41"/>
<path fill-rule="evenodd" clip-rule="evenodd" d="M448.03 443.443V484.918L416.748 496.912L415.007 492.259L443.115 481.482V450.648L418.335 460.149V483.299L437.559 475.968V459.483L423.892 464.694V474.573L431.942 471.489V468.152L427.863 469.72L426.119 465.068L436.857 460.943V474.926L418.977 481.775V461.252L442.474 452.292V479.41L413.42 490.49V456.713L448.03 443.443Z" fill="#F985A0"/>
<path fill-rule="evenodd" clip-rule="evenodd" d="M325.165 527.682L355.07 476.215L361.506 479.941L331.601 531.408L325.165 527.682Z" fill="#0E2951"/>
<path fill-rule="evenodd" clip-rule="evenodd" d="M354.672 521.059L325.165 491.947L330.268 486.563L359.775 515.676L354.672 521.059Z" fill="#0E2951"/>
<path d="M392.656 544.644L399.577 541.757V550.943L392.656 553.83V544.644Z" fill="#911A31"/>
<path d="M384.004 537.318L390.925 534.857V542.744L384.004 545.206V537.318Z" fill="#911A31"/>
<path d="M373.617 528.708L380.538 526.233V534.107L373.617 536.582V528.708Z" fill="#911A31"/>
<path d="M463.606 432.161L496.486 419.297V460.023L463.606 472.765V432.161Z" fill="#053866"/>
<path d="M473.989 506.901L496.485 498.636V525.5L474 533.773L473.989 506.901Z" fill="#911A31"/>
<path d="M560.519 355.418L495.502 419.297L321.81 353.945L386.664 289.938L560.519 355.418Z" fill="#084C80"/>
<path d="M322 485.5L256.908 550.38L82.8955 485.164L149.695 420.102L322 485.5Z" fill="#094573"/>
<path d="M321.808 353.944L257.914 289.473L84.1187 355.195L149.016 420.557L321.808 353.944Z" fill="#084C80"/>
<path d="M560.518 483.813L495.615 419.295L321.707 485.56L386.967 550.379L560.518 483.813Z" fill="#084C80"/>
</g>
<path fill-rule="evenodd" clip-rule="evenodd" d="M118.128 192.102L161.411 251.839L126.381 300.169L197.467 323.615L171.723 361.535L241.466 338.151L344.887 418.594L359.062 316.523L433.661 339.596L544.189 391.686L497.002 313.118L570.607 272.61L484.842 248.762L515.862 209.547L598.802 152.512L444.56 111.199L299.269 72.0048L228.456 112.946L200.917 152.431L118.128 192.102ZM201.576 152.13L228.441 113.612L230.465 138.994L201.576 152.13ZM230.821 138.832L228.783 113.264L290.747 111.581L230.821 138.832ZM291.498 111.193L229.304 112.882L299.037 72.5645L291.498 111.193ZM299.903 72.5572L443.986 111.425L372.203 145.911L299.903 72.5572ZM372.591 146.133C384.688 151.852 401.449 158.664 417.662 165.064L461.284 162.007L444.404 111.633L372.591 146.133ZM444.796 111.643L461.663 161.981L597.258 152.479L444.796 111.643ZM595.135 154.586L515.719 209.198L505.585 204.15L595.135 154.586ZM505.194 204.366L515.449 209.475L484.457 248.655L444.998 237.683L505.194 204.366ZM445.131 238.102L484.209 248.968L471.578 264.936L445.131 238.102ZM471.839 265.2L484.594 249.075L569.047 272.559L485.002 278.556L471.839 265.2ZM485.183 278.912L569.298 272.91L496.849 312.782L485.183 278.912ZM496.67 313.28L542.672 389.877L478.107 321.05L496.67 313.28ZM477.744 321.202L542.924 390.683L434.181 339.434L477.744 321.202ZM433.613 339.196L359.575 316.296L450.206 292.153L433.613 339.196ZM449.699 291.907L359.093 316.044L358.92 272.947L449.699 291.907ZM359.231 272.319L406.108 203.517L444.173 237.681L359.231 272.319ZM444.457 237.44L406.452 203.33L469.33 186.745L444.457 237.44ZM469.252 186.385L406.162 203.026L385.19 167.709L417.605 165.437C422.098 167.211 426.547 168.952 430.842 170.629C432.382 171.23 433.902 171.823 435.397 172.406C443.597 175.605 451.047 178.511 456.903 180.88C460.365 182.281 463.268 183.494 465.44 184.468C466.526 184.956 467.427 185.382 468.123 185.743C468.604 185.992 468.981 186.207 469.252 186.385ZM418.457 165.378L461.404 162.368L469.32 185.991C469.047 185.821 468.702 185.628 468.293 185.416C467.588 185.051 466.68 184.621 465.591 184.132C463.413 183.155 460.505 181.94 457.041 180.539C451.183 178.169 443.731 175.262 435.532 172.063C434.036 171.48 432.516 170.887 430.976 170.286C426.909 168.698 422.705 167.053 418.457 165.378ZM469.823 186.333L505.185 203.95L597.551 152.828L461.784 162.341L469.823 186.333ZM416.811 165.124L384.979 167.354L372.63 146.558C384.543 152.179 400.907 158.84 416.811 165.124ZM384.778 167.737L405.636 202.861L329.239 171.629L384.778 167.737ZM328.725 171.817L405.337 203.136L340.273 210.398L328.725 171.817ZM340.38 210.756L405.111 203.532L347.21 233.574L340.38 210.756ZM346.877 233.746L340.008 210.798L325.028 212.47L334.175 240.337L346.877 233.746ZM347.317 233.933L405.511 203.739L358.8 272.297L347.317 233.933ZM359.362 272.663L444.359 238.003L450.284 291.653L359.362 272.663ZM450.629 291.419L471.348 265.227L444.757 238.247L450.629 291.419ZM451.055 291.475L471.608 265.491L484.601 278.674L451.055 291.475ZM450.971 291.901L484.818 278.986L496.432 312.703L450.971 291.901ZM496.287 313.042L477.838 320.763L451.271 292.443L496.287 313.042ZM450.568 292.232L477.475 320.915L434.04 339.094L450.568 292.232ZM444.939 237.295L504.794 204.167L469.757 186.712L444.939 237.295ZM358.551 272.904L344.86 272.888L358.721 315.117L358.551 272.904ZM358.5 316.171L321.326 323.03L308.966 273.181L358.5 316.171ZM308.509 272.87L320.963 323.097L286.572 329.442L255.242 281.794L308.509 272.87ZM255.013 282.116L286.179 329.515L241.746 337.712L255.013 282.116ZM240.918 337.946L207.946 327.071L172.9 360.752L240.918 337.946ZM173.321 359.837L207.551 326.941L197.831 323.735L173.321 359.837ZM197.682 323.298L128.371 300.437L207.51 308.822L197.682 323.298ZM207.795 308.482L128.165 300.045L254.007 281.978L207.795 308.482ZM254.696 281.507L127.41 299.782L237.169 222.377L254.696 281.507ZM235.915 222.811L127.477 299.284L161.756 251.99L235.915 222.811ZM161.591 251.459L118.853 192.475L178.998 207.607L161.591 251.459ZM179.135 207.262L118.946 192.119L200.696 152.946L179.135 207.262ZM201.294 152.663L230.496 139.384L237.017 221.19L201.294 152.663ZM237.403 221.396L230.852 139.222L291.258 111.753L237.403 221.396ZM237.697 221.633L291.616 111.86L313.791 179.416L237.697 221.633ZM314.119 179.234L292.318 112.818L328.181 171.433L314.119 179.234ZM328.501 171.251L371.755 146.158L292.11 111.772L328.501 171.251ZM291.859 111.263L299.409 72.5804L371.37 145.591L291.859 111.263ZM372.098 146.385L384.568 167.383L329.217 171.262L372.098 146.385ZM328.327 171.773L339.901 210.439L324.911 212.112L314.236 179.591L328.327 171.773ZM324.537 212.154L313.908 179.773L238.165 221.794L324.537 212.154ZM324.654 212.511L333.844 240.509L293.289 261.551L237.773 222.208L324.654 212.511ZM236.672 222.117L179.358 207.698L161.966 251.512L236.672 222.117ZM236.919 221.8L179.495 207.353L201.063 153.018L236.919 221.8ZM237.6 222.537L292.921 261.741L255.046 281.393L237.6 222.537ZM254.608 282.226L241.369 337.707L208.247 326.783L254.608 282.226ZM207.851 326.652L198.046 323.418L207.964 308.81L253.726 282.563L207.851 326.652ZM256.055 281.284L293.259 261.981L308.176 272.552L256.055 281.284ZM309.141 272.845L344.472 272.887L358.527 315.707L309.141 272.845ZM344.351 272.519L308.706 272.476L293.627 261.79L333.96 240.863L344.351 272.519ZM334.291 240.691L346.984 234.105L358.487 272.536L344.739 272.52L334.291 240.691ZM241.938 338.051L286.399 329.848L343.983 417.425L241.938 338.051ZM344.31 417.252L286.792 329.776L321.052 323.455L344.31 417.252ZM321.415 323.388L358.692 316.51L344.697 417.282L321.415 323.388Z" fill="#E0E0E0"/>
<path fill-rule="evenodd" clip-rule="evenodd" d="M81.3016 105.237L135.222 174.619L31.8692 205.082L28.0874 206.196L139.455 240.036L72.1109 311.642L75.2488 313.01L212.446 372.829L306.309 460.337L403.576 382.929L604.398 363.257L571.791 312.238L652.434 267.857L653.121 266.458L540.807 243.882L618.561 180.796L547.09 172.049L566.566 88.2207L476.806 133.022L445.345 64.764L386.446 113.778L314.803 2.9525L255.53 110.838L196.744 54.0444L208.752 121.152L81.3016 105.237ZM159.84 218.326L234.405 245.994L137.57 176.236L159.84 218.326ZM158.531 218.515L135.866 175.741L35.0137 205.415L158.531 218.515ZM158.531 219.469L32.7556 205.929L140.572 238.882L158.531 219.469ZM235.293 248.712L73.4349 311.478H223.691L235.293 248.712ZM212.446 370.824L223.408 313.01L75.2488 312.253L212.446 370.824ZM214.857 373.4L305.187 457.615L284.982 382.889L214.857 373.4ZM286.214 382.744L306.592 458.108L380.913 352.837L286.214 382.744ZM382.454 352.782L309.317 456.376L402.508 382.212L382.454 352.782ZM405.662 381.493L598.875 362.567L466.742 339.881L405.662 381.493ZM468.199 338.888L601.391 361.755L521.56 280.811L500.112 317.146L500.062 317.18L468.199 338.888ZM466.46 338.589L494.786 319.291C492.158 320.161 488.679 321.213 484.554 322.411C477.513 324.455 468.572 326.928 458.736 329.648L458.733 329.649L455.352 330.584L453.27 331.161C449.523 332.198 445.678 333.266 441.786 334.353L466.46 338.589ZM499.962 315.548L520.629 280.008L478.373 255.676L499.962 315.548ZM478.41 254.088L521.491 279.131L538.497 244.651L478.41 254.088ZM492.071 191.311L528.28 209.961L545.216 173.244L492.071 191.311ZM546.565 173.251L529.427 210.405L615.482 180.796L546.565 173.251ZM546.055 171.326L563.902 93.0909L542.025 130.441L546.055 171.326ZM540.933 129.833L562.362 93.0909L478.337 133.649L540.933 129.833ZM487.912 190.845L386.484 115.36L383.155 201.536L487.912 190.845ZM383.957 203.734L428.715 288.303L475.86 253.76L383.957 203.734ZM541.221 131.396L492.394 189.907L544.867 172.068L541.221 131.396ZM489.729 191.891L384.495 202.631L476.575 252.754L489.729 191.891ZM367.087 199.974L381.919 201.549L384.925 118.344L367.087 199.974ZM384.58 114.725L345.71 139.318L325.989 194.474L384.58 114.725ZM324.372 195.351L344.533 138.964L311.987 129.19L265.125 178.629L324.372 195.351ZM264.428 177.582L310.672 128.795L256.116 112.412L264.428 177.582ZM239.191 110.352L254.139 111.2L200.091 58.9839L239.191 110.352ZM237.945 110.625L198.963 59.4771L209.952 120.889L237.945 110.625ZM208.968 122.36L87.3657 106.939L212.296 140.96L208.968 122.36ZM212.828 142.185L87.3657 107.708L261.06 177.56L212.828 142.185ZM263.148 179.361L86.5958 108.478L236.118 245.299L263.148 179.361ZM236.549 248.671L224.724 312.647L283.799 379.521L236.549 248.671ZM287.119 381.173L381.133 351.483L335.316 317.528L287.119 381.173ZM337.625 317.713L382.334 350.846L398.985 328.248L337.625 317.713ZM400.337 328.48L384.138 350.466C398.468 345.469 417.627 339.87 436.219 334.64L400.337 328.48ZM401.151 327.376L438.967 333.869C443.71 332.54 448.399 331.238 452.942 329.98L455.509 329.27L458.291 328.5L458.409 328.467C468.246 325.746 477.178 323.276 484.211 321.234C488.369 320.027 491.856 318.972 494.469 318.105C495.776 317.671 496.858 317.287 497.694 316.956C497.878 316.883 498.048 316.814 498.204 316.748L428.721 289.957L401.151 327.376ZM498.683 315.619L476.703 254.663L429.772 289.048L498.683 315.619ZM426.824 287.352L382.532 203.664L365.064 245.957L426.824 287.352ZM364.024 245.26L381.583 202.746L366.565 201.151L350.893 236.458L364.024 245.26ZM363.547 246.416L350.388 237.595L336.834 268.13L353.081 271.756L363.547 246.416ZM349.858 235.764L365.282 201.015L324.889 196.727L306.883 206.959L349.858 235.764ZM349.353 236.902L305.691 207.637L238.041 246.081L335.612 267.857L349.353 236.902ZM305.744 206.196L323.18 196.288L267.525 180.579L305.744 206.196ZM262.955 175.741L254.864 112.295L239.796 111.474L262.955 175.741ZM238.549 111.747L210.168 122.096L213.591 141.224L262.154 176.842L238.549 111.747ZM304.552 206.874L264.265 179.871L237.599 244.922L304.552 206.874ZM237.601 247.97L285.527 380.692L318.791 305.753L237.601 247.97ZM319.812 306.479L288.181 377.739L334.323 316.807L319.812 306.479ZM337.898 316.517L399.798 327.144L426.931 290.319L337.898 316.517ZM336.25 315.724L426.057 289.298L353.822 273.177L336.25 315.724ZM352.606 272.905L336.327 269.272L320.319 305.335L334.92 315.727L352.606 272.905ZM319.299 304.609L335.105 268.999L239.183 247.591L319.299 304.609ZM364.587 247.113L354.297 272.027L425.45 287.907L364.587 247.113ZM283.919 381.509L224.44 314.179L213.75 372.014L283.919 381.509ZM326.438 195.659L365.804 199.838L384.495 116.286L326.438 195.659ZM465.002 339.582L439.032 335.123C419.189 340.686 398.449 346.714 383.418 352.017L403.497 381.485L465.002 339.582ZM232.158 243.421L85.826 109.247L136.417 174.24L232.158 243.421ZM257.253 111.474L311.616 127.799L312.784 8.46305L257.253 111.474ZM313.701 6.92436L312.931 128.194L344.946 137.809L313.701 6.92436ZM346.123 138.162L385.165 113.621L314.803 6.92436L346.123 138.162ZM490.826 189.865L540.129 130.789L477.916 134.818L490.826 189.865ZM601.625 360.338L569.291 310.815L523.285 280.811L601.625 360.338ZM522.421 279.211L539.563 245.12L584.384 278.256L522.421 279.211ZM523.97 280.069L570.831 310.62L584.78 279.084L523.97 280.069ZM616.984 180.987L540.129 242.782L529.427 211.23L616.984 180.987ZM649.827 267.629L571.915 310.469L586.228 279.211L649.827 267.629ZM541.576 245.421L651.525 266.713L586.011 278.256L541.576 245.421ZM388.14 114.689L488.457 189.319L431.109 105.753L388.14 114.689ZM433.028 106.17L475.369 133.649L489.421 189.319L433.028 106.17ZM430.718 104.408L389.402 113.621L443.806 67.5847L430.718 104.408ZM474.721 132.328L432.65 104.408L445.345 67.5847L474.721 132.328ZM176.668 251.576L140.572 240.036L76.5878 308.507L176.668 251.576ZM159.84 220.033L141.428 239.153L178.261 250.807L232.867 246.381L159.84 220.033ZM77.3577 309.277L178.261 252.345L232.877 247.97L77.3577 309.277ZM538.496 243.882L479.091 252.744L518.013 220.375L527.677 212.339L538.496 243.882ZM517.185 219.469L527.465 210.92L490.857 192.486L477.978 252.075L517.185 219.469Z" fill="#71A0DD"/>
<path d="M203.63 56.6372C203.63 59.0243 201.694 60.9595 199.305 60.9595C196.916 60.9595 194.979 59.0243 194.979 56.6372C194.979 54.2501 196.916 52.3149 199.305 52.3149C201.694 52.3149 203.63 54.2501 203.63 56.6372Z" fill="#0A3D76"/>
<path d="M86.7744 105.876C86.7744 108.263 84.8378 110.198 82.449 110.198C80.0601 110.198 78.1235 108.263 78.1235 105.876C78.1235 103.489 80.0601 101.554 82.449 101.554C84.8378 101.554 86.7744 103.489 86.7744 105.876Z" fill="#0A3D76"/>
<path d="M78.0253 311.807C78.0253 314.194 76.0888 316.129 73.6999 316.129C71.3111 316.129 69.3745 314.194 69.3745 311.807C69.3745 309.42 71.3111 307.485 73.6999 307.485C76.0888 307.485 78.0253 309.42 78.0253 311.807Z" fill="#0A3D76"/>
<path d="M317.728 4.32251C317.728 6.70963 315.792 8.64478 313.403 8.64478C311.014 8.64478 309.078 6.70963 309.078 4.32251C309.078 1.93539 311.014 0.000244141 313.403 0.000244141C315.792 0.000244141 317.728 1.93539 317.728 4.32251Z" fill="#0A3D76"/>
<path d="M568.701 90.4888C568.701 92.8759 566.764 94.811 564.375 94.811C561.986 94.811 560.05 92.8759 560.05 90.4888C560.05 88.1016 561.986 86.1665 564.375 86.1665C566.764 86.1665 568.701 88.1016 568.701 90.4888Z" fill="#0A3D76"/>
<path d="M450.14 65.8701C450.14 68.2572 448.203 70.1924 445.814 70.1924C443.425 70.1924 441.489 68.2572 441.489 65.8701C441.489 63.483 443.425 61.5479 445.814 61.5479C448.203 61.5479 450.14 63.483 450.14 65.8701Z" fill="#0A3D76"/>
<path d="M622.589 179.733C622.589 182.12 620.653 184.055 618.264 184.055C615.875 184.055 613.938 182.12 613.938 179.733C613.938 177.346 615.875 175.41 618.264 175.41C620.653 175.41 622.589 177.346 622.589 179.733Z" fill="#0A3D76"/>
<path d="M658.002 265.9C658.002 268.287 656.066 270.222 653.677 270.222C651.288 270.222 649.352 268.287 649.352 265.9C649.352 263.513 651.288 261.578 653.677 261.578C656.066 261.578 658.002 263.513 658.002 265.9Z" fill="#0A3D76"/>
<path d="M608.56 364.382C608.56 366.769 606.623 368.704 604.235 368.704C601.846 368.704 599.909 366.769 599.909 364.382C599.909 361.995 601.846 360.06 604.235 360.06C606.623 360.06 608.56 361.995 608.56 364.382Z" fill="#0A3D76"/>
<path d="M207.589 266.188C213.229 266.188 216.204 262.78 216.204 258.521C216.204 254.943 213.673 252.004 210.52 251.535C213.318 250.981 215.627 248.596 215.627 245.018C215.627 241.227 212.74 237.776 207.101 237.776H191.515V266.188H207.589ZM205.724 249.15H197.82V242.973H205.724C207.856 242.973 209.188 244.294 209.188 246.083C209.188 247.872 207.856 249.15 205.724 249.15ZM205.946 260.949H197.82V254.346H205.946C208.433 254.346 209.765 255.88 209.765 257.669C209.765 259.713 208.344 260.949 205.946 260.949Z" fill="url(#paint2_linear)"/>
<path d="M253.02 266.188L241.608 237.776H233.703L222.247 266.188H229.441L231.306 261.375H244.005L245.826 266.188H253.02ZM242.274 256.05H233.037L237.655 243.825L242.274 256.05Z" fill="url(#paint3_linear)"/>
<path d="M291.634 237.776V260.864H282.265V237.776H275.915V260.864H266.501V237.776H260.195V266.188H297.984V237.776H291.634Z" fill="url(#paint4_linear)"/>
<path d="M324.106 237.776V266.188H338.094C344.443 266.188 347.907 262.056 347.907 257.158C347.907 252.259 344.399 248.127 338.094 248.127H330.411V243.101H345.731V237.776H324.106ZM337.25 253.452C339.692 253.452 341.468 254.858 341.468 257.158C341.468 259.415 339.692 260.864 337.25 260.864H330.411V253.452H337.25Z" fill="url(#paint5_linear)"/>
<path d="M362.34 266.188L376.461 247.148V266.188H382.766V237.776H376.283L362.562 256.135V237.776H356.256V266.188H362.34Z" fill="url(#paint6_linear)"/>
<path d="M403.215 266.699C410.276 266.699 415.383 263.249 415.383 258.35C415.383 254.091 411.475 251.833 408.5 251.535C411.741 250.981 414.938 248.638 414.938 245.06C414.938 240.332 410.143 237.35 403.215 237.35C398.02 237.35 393.802 239.267 391.404 241.866L394.556 245.657C396.644 243.74 399.707 242.718 402.594 242.718C405.969 242.718 408.633 243.825 408.633 246.083C408.633 248.17 406.102 249.107 402.594 249.107H396.599V254.432H402.594C407.034 254.432 409.121 255.454 409.121 257.711C409.121 259.841 406.857 261.332 402.949 261.332C400.063 261.332 396.333 260.139 394.29 258.095L391.004 262.141C393.18 264.697 397.754 266.699 403.215 266.699Z" fill="url(#paint7_linear)"/>
<path d="M451.233 266.188V237.776H444.883V248.937H430.896V237.776H424.59V266.188H430.896V254.261H444.883V266.188H451.233Z" fill="url(#paint8_linear)"/>
<path d="M482.47 266.188V260.864H467.816V254.432H482.159V249.107H467.816V243.101H482.47V237.776H461.511V266.188H482.47Z" fill="url(#paint9_linear)"/>
<path d="M506.183 266.699C512.71 266.699 516.44 263.249 518.572 259.713L513.154 257.2C511.911 259.543 509.246 261.332 506.183 261.332C500.809 261.332 496.902 257.371 496.902 252.004C496.902 246.636 500.809 242.675 506.183 242.675C509.246 242.675 511.911 244.507 513.154 246.807L518.572 244.251C516.485 240.716 512.71 237.308 506.183 237.308C497.301 237.308 490.419 243.271 490.419 252.004C490.419 260.736 497.301 266.699 506.183 266.699Z" fill="url(#paint10_linear)"/>
<path d="M33.1225 206.408C33.1225 209.324 30.7579 211.688 27.841 211.688C24.9242 211.688 22.5596 209.324 22.5596 206.408C22.5596 203.492 24.9242 201.128 27.841 201.128C30.7579 201.128 33.1225 203.492 33.1225 206.408Z" fill="#0A3D76"/>
<defs>
<filter id="filter0_f" x="-5" y="498.572" width="359.983" height="136.342" filterUnits="userSpaceOnUse" color-interpolation-filters="sRGB">
<feFlood flood-opacity="0" result="BackgroundImageFix"/>
<feBlend mode="normal" in="SourceGraphic" in2="BackgroundImageFix" result="shape"/>
<feGaussianBlur stdDeviation="2.5" result="effect1_foregroundBlur"/>
</filter>
<filter id="filter1_f" x="121.708" y="343.021" width="398.661" height="397.929" filterUnits="userSpaceOnUse" color-interpolation-filters="sRGB">
<feFlood flood-opacity="0" result="BackgroundImageFix"/>
<feBlend mode="normal" in="SourceGraphic" in2="BackgroundImageFix" result="shape"/>
<feGaussianBlur stdDeviation="40" result="effect1_foregroundBlur"/>
</filter>
<linearGradient id="paint0_linear" x1="339.615" y1="632.043" x2="249.83" y2="436.557" gradientUnits="userSpaceOnUse">
<stop offset="0.0960889"/>
<stop offset="0.978163" stop-color="#B4D1FA" stop-opacity="0"/>
</linearGradient>
<radialGradient id="paint1_radial" cx="0" cy="0" r="1" gradientUnits="userSpaceOnUse" gradientTransform="translate(319.667 500.963) rotate(90) scale(94.3511 94.6413)">
<stop stop-color="#0095FF"/>
<stop offset="1" stop-color="#BCE3FF"/>
</radialGradient>
<linearGradient id="paint2_linear" x1="508.49" y1="252.004" x2="217.653" y2="182.516" gradientUnits="userSpaceOnUse">
<stop stop-color="#A62E41"/>
<stop offset="1" stop-color="#E13152"/>
</linearGradient>
<linearGradient id="paint3_linear" x1="508.49" y1="252.004" x2="217.653" y2="182.516" gradientUnits="userSpaceOnUse">
<stop stop-color="#A62E41"/>
<stop offset="1" stop-color="#E13152"/>
</linearGradient>
<linearGradient id="paint4_linear" x1="508.49" y1="252.004" x2="217.653" y2="182.516" gradientUnits="userSpaceOnUse">
<stop stop-color="#A62E41"/>
<stop offset="1" stop-color="#E13152"/>
</linearGradient>
<linearGradient id="paint5_linear" x1="508.49" y1="252.004" x2="217.653" y2="182.516" gradientUnits="userSpaceOnUse">
<stop stop-color="#A62E41"/>
<stop offset="1" stop-color="#E13152"/>
</linearGradient>
<linearGradient id="paint6_linear" x1="508.49" y1="252.004" x2="217.653" y2="182.516" gradientUnits="userSpaceOnUse">
<stop stop-color="#A62E41"/>
<stop offset="1" stop-color="#E13152"/>
</linearGradient>
<linearGradient id="paint7_linear" x1="508.49" y1="252.004" x2="217.653" y2="182.516" gradientUnits="userSpaceOnUse">
<stop stop-color="#A62E41"/>
<stop offset="1" stop-color="#E13152"/>
</linearGradient>
<linearGradient id="paint8_linear" x1="508.49" y1="252.004" x2="217.653" y2="182.516" gradientUnits="userSpaceOnUse">
<stop stop-color="#A62E41"/>
<stop offset="1" stop-color="#E13152"/>
</linearGradient>
<linearGradient id="paint9_linear" x1="508.49" y1="252.004" x2="217.653" y2="182.516" gradientUnits="userSpaceOnUse">
<stop stop-color="#A62E41"/>
<stop offset="1" stop-color="#E13152"/>
</linearGradient>
<linearGradient id="paint10_linear" x1="508.49" y1="252.004" x2="217.653" y2="182.516" gradientUnits="userSpaceOnUse">
<stop stop-color="#A62E41"/>
<stop offset="1" stop-color="#E13152"/>
</linearGradient>
<clipPath id="clip0">
<rect width="560.516" height="406.014" fill="white" transform="translate(0 289.473)"/>
</clipPath>
</defs>
</svg>
