<svg width="170" height="124" viewBox="0 0 170 124" fill="none" xmlns="http://www.w3.org/2000/svg">
<g clip-path="url(#clip0)">
<g filter="url(#filter0_f)">
<path d="M106.146 80.8076L46.7571 103.135L-0.000869083 86.1578L59.0574 64.8602L106.146 80.8076Z" fill="url(#paint0_linear)"/>
</g>
<path d="M97.5711 122.932L45.104 103.17L45.0859 39.8516L97.5711 59.6128V122.932Z" fill="#053866"/>
<path d="M150.471 103.076L97.5703 83.0827L97.6013 19.5312L150.58 39.3945L150.471 103.076Z" fill="#083556"/>
<path d="M97.5703 122.932L150.562 102.842L150.58 39.3291L97.5885 59.2561L97.5703 122.932Z" fill="#054270"/>
<path d="M45.104 103.076L97.6025 83.9377V19.5312L45.0859 39.4143L45.104 103.076Z" fill="#063D66"/>
<g filter="url(#filter1_f)">
<ellipse cx="97.3677" cy="76.4972" rx="36.192" ry="36.0397" fill="url(#paint1_radial)"/>
</g>
<path d="M97.5531 122.932L45.104 103.17L45.0859 39.8516L97.5711 59.6128L97.5531 122.932Z" fill="#053866"/>
<path d="M58.2072 60.7522L45.104 55.775L45.0859 39.8516L58.2072 44.937V60.7522Z" fill="#053866"/>
<path d="M48.575 55.0018C47.3932 55.0317 46.2178 54.8189 45.1217 54.3765L45.0859 52.697C47.7519 53.7154 50.3106 53.5189 52.2788 52.161C54.6227 50.553 56.1078 47.8909 56.1078 44.0317L57.6824 44.6571C57.6824 49.0523 56.3762 51.5178 53.6029 53.4296C52.1143 54.4278 50.3679 54.9739 48.575 55.0018Z" fill="#FF8098"/>
<path d="M71.3283 65.4549L58.207 60.4518V44.5542L71.3283 49.5573V65.4549Z" fill="#0E2951"/>
<path d="M84.4494 70.68L71.3281 65.6768V49.7793L84.4494 54.7643V70.68Z" fill="#FF8098"/>
<path d="M97.4985 75.3826L84.4492 70.4391V54.4819L97.5705 59.28L97.4985 75.3826Z" fill="#6780B3"/>
<path d="M58.2072 76.428L45.0859 71.443V55.5273L58.2072 60.5305V76.428Z" fill="#911A31"/>
<path d="M71.3283 81.1306L58.207 76.2526V60.7524L71.3283 65.6305V81.1306Z" fill="#C43B55"/>
<path d="M84.4494 86.3553L71.3281 81.3522V65.4546L84.4494 70.4577V86.3553Z" fill="#053866"/>
<path d="M97.5705 91.0583L84.4492 86.2343V70.6802L97.5705 75.5042V91.0583Z" fill="#132F7C"/>
<path d="M71.3322 97.3284L58.2109 92.3434V76.4277L71.3322 81.4308V97.3284Z" fill="#FF8098"/>
<path d="M84.4533 102.031L71.332 97.0279V81.1304L84.4533 86.1335V102.031Z" fill="#0E2951"/>
<path d="M97.5744 107.256L84.4531 102.308V86.3555L97.5744 91.3032V107.256Z" fill="#053866"/>
<path d="M58.2072 108.301L45.0859 103.298V87.4004L58.2072 92.4035V108.301Z" fill="#6780B3"/>
<path d="M71.3322 113.004L58.2109 108.014V92.103L71.3322 97.0923V113.004Z" fill="#053866"/>
<path d="M84.4494 118.229L71.3281 113.226V97.3281L84.4494 102.331V118.229Z" fill="#FF8098"/>
<path d="M97.5705 122.931L84.4492 118.011V102.031L97.5164 106.987L97.5705 122.931Z" fill="#3D95D1"/>
<path d="M47.799 51.8688C46.8674 51.8828 45.9433 51.7016 45.0859 51.3367V49.4098C46.9924 50.1438 49.3571 49.8869 50.5303 49.1161C52.4917 47.8132 53.445 45.7946 53.445 42.9868L55.0581 43.6291C55.0581 47.0792 53.8299 49.1896 51.6302 50.7127C50.4959 51.4699 49.1623 51.8723 47.799 51.8688Z" fill="#D6516B"/>
<path d="M46.861 48.2113C46.2528 48.2237 45.6486 48.1052 45.0859 47.863V45.8312C46.2324 46.2956 48.0075 46.1795 48.9875 45.154C50.0045 44.0897 50.2818 43.219 50.2818 41.4194L51.909 42.0967C51.909 44.5735 51.0954 46.2569 49.5607 47.3599C48.7619 47.9186 47.8219 48.215 46.861 48.2113Z" fill="#C43B55"/>
<path d="M45.9217 44.5484C45.6341 44.5751 45.3452 44.5158 45.0859 44.3768V42.3757C45.3645 42.49 46.27 42.5663 46.6182 42.3757C47.2276 42.0326 47.2276 41.3656 46.9316 40.3745L48.7599 41.0416C48.7599 42.4329 48.3072 43.4049 47.454 44.0528C46.9966 44.3741 46.4651 44.5459 45.9217 44.5484Z" fill="#A62E41"/>
<path d="M97.3673 104.643L86.0234 100.467V73.2925L97.5702 77.3973V79.6021L87.9786 76.0171V99.1584L97.2566 102.564L97.3673 104.643Z" fill="#A7C3EE"/>
<path d="M97.5702 105.166L86.0234 100.603V86.8779L87.9786 87.4994V99.3067L97.5702 102.982V105.166Z" fill="#F985A0"/>
<path d="M97.3647 100.986L89.1719 97.9435V77.9951L97.5695 80.9646V83.2054L91.127 80.7824V96.9415L97.5695 99.1823L97.3647 100.986Z" fill="#A7C3EE"/>
<path d="M97.3738 96.8056L92.8477 95.0994V83.7427L97.5713 85.3778V87.5638L94.7335 86.4619V93.8198L97.5713 95.0461L97.3738 96.8056Z" fill="#A7C3EE"/>
<path d="M97.5713 96.8055L92.8477 94.9719V88.9678L94.7335 89.597V93.6776L97.5713 94.5944V96.8055Z" fill="#F985A0"/>
<path d="M97.5695 100.986L89.1719 97.9158V87.9233L91.127 88.5445V96.6201L97.5695 98.8032V100.986Z" fill="#F985A0"/>
<path d="M55.0581 106.734L45.0859 102.98V91.0581L55.0581 94.8117V106.734Z" fill="#053866"/>
<path d="M51.3842 105.688L45.0859 103.189V95.2378L51.3842 97.7372V105.688Z" fill="#709FDC"/>
<path d="M84.4494 60.3335L79.6498 68.5897L71.3281 59.6029L76.1277 51.3467L84.4494 60.3335Z" fill="#C43B55"/>
<path d="M81.2996 60.1442L78.7898 64.4101L74.4766 59.7748L76.9678 55.5273L81.2996 60.1442Z" fill="#911A31"/>
<path d="M84.4494 118.229L71.3281 113.21V100.463L84.4494 105.464V118.229Z" fill="#C43B55"/>
<path d="M84.4494 118.229L71.3281 113.078V103.598L84.4494 108.73V118.229Z" fill="#911A31"/>
<path d="M84.4494 118.229L71.3281 113.104V107.256L84.4494 112.362V118.229Z" fill="#053866"/>
<path d="M84.4494 118.229L71.3281 113.233V110.391L84.4494 115.369V118.229Z" fill="#0E2951"/>
<path d="M58.2109 64.4102L71.3322 69.2924L58.2109 73.1133L71.3322 77.9956L58.2109 64.4102Z" fill="#911A31"/>
<path d="M46.6605 72.2479L45.0859 71.6062V55.5273L46.6605 56.169V72.2479Z" fill="#FF8098"/>
<path d="M49.2855 72.7698L47.7109 72.1488V56.5718L49.2855 57.2105V72.7698Z" fill="#FF8098"/>
<path d="M57.6814 75.9051L55.582 75.2834V59.707L57.6814 60.3287V75.9051Z" fill="#FF8098"/>
<path d="M54.5316 74.8596L52.957 74.238V58.6616L54.5316 59.2833V74.8596Z" fill="#FF8098"/>
<path d="M51.9105 73.8147L50.3359 73.1931V57.6167L51.9105 58.2383V73.8147Z" fill="#FF8098"/>
<path d="M58.2072 92.1033L45.0859 87.1002V71.2026L58.2072 76.1876V92.1033Z" fill="#0E2951"/>
<path d="M58.2098 92.1032L51.3867 89.6038V81.6528L58.2098 84.1522V92.1032Z" fill="#3D95D1"/>
<path d="M51.3842 81.653L45.0859 79.1493V71.2026L51.3842 73.7064V81.653Z" fill="#3D95D1"/>
<path fill-rule="evenodd" clip-rule="evenodd" d="M59.7812 94.7158L69.2939 98.4485L68.7894 99.8265L61.2048 96.8504V105.983L68.3299 108.779V101.924L62.8141 99.7568V104.639L66.7205 106.177V103.233L64.4062 102.323V103.329L66.0928 103.992L65.5877 105.369L62.9827 104.346V100.186L68.1441 102.217V108.314L61.3906 105.655V97.6213L69.7534 100.907V110.914L59.7812 107.001V94.7158Z" fill="#3D95D1"/>
<path fill-rule="evenodd" clip-rule="evenodd" d="M96.5205 109.32L87.5847 117.707L86.0234 116.165L94.9592 107.779L96.5205 109.32Z" fill="#0E2951"/>
<path fill-rule="evenodd" clip-rule="evenodd" d="M87.894 104.644L96.5205 119.753L94.6499 120.842L86.0234 105.732L87.894 104.644Z" fill="#0E2951"/>
<path d="M76.0525 88.9682L73.9531 88.0935V85.3105L76.0525 86.1852V88.9682Z" fill="#B9D5FD"/>
<path d="M78.6775 93.6703L76.5781 92.8004V90.0127L78.6775 90.8826V93.6703Z" fill="#B9D5FD"/>
<path d="M81.826 97.8509L79.7266 97.1012V94.7158L81.826 95.4655V97.8509Z" fill="#B9D5FD"/>
<path d="M97.5885 59.2561L150.58 39.3291V102.914L97.5703 122.932L97.5885 59.2561Z" fill="#053866"/>
<path d="M137.457 76.2014L150.578 71.2026V87.1045L137.457 92.1033V76.2014Z" fill="#B9D5FD"/>
<path d="M123.812 81.3058L137.459 76.4277V91.9455L123.812 96.8059V81.3058Z" fill="#C43B55"/>
<path d="M110.691 86.1335L123.813 81.1304V97.028L110.691 102.031V86.1335Z" fill="#053866"/>
<path d="M97.5703 91.4135L110.692 86.3555V102.198L97.5703 107.256V91.4135Z" fill="#132F7C"/>
<path d="M123.812 65.2326L137.459 60.2295V76.3636L123.812 81.3802V65.2326Z" fill="#FF8098"/>
<path d="M110.691 70.4577L123.813 65.4546V81.3522L110.691 86.3553V70.4577Z" fill="#0E2951"/>
<path d="M97.5703 75.2153L110.692 70.1572V85.9998L97.5703 91.0579V75.2153Z" fill="#053866"/>
<path d="M123.812 97.0885L137.459 92.1035V108.001L123.812 113.004V97.0885Z" fill="#0E2951"/>
<path d="M110.691 101.809L123.813 96.8062V112.722L110.691 117.707V101.809Z" fill="#709FDC"/>
<path d="M97.5703 107.098L110.692 102.031V117.901L97.6242 122.932L97.5703 107.098Z" fill="#911A31"/>
<path d="M137.457 44.346L150.578 39.3291V55.231L137.457 60.2298V44.346Z" fill="#C43B55"/>
<path d="M123.809 49.5573L137.455 44.5542V60.4518L123.809 65.4549V49.5573Z" fill="#053866"/>
<path d="M110.688 54.6573L123.809 49.7793V65.2794L110.688 70.1574V54.6573Z" fill="#FF8098"/>
<path d="M97.6421 59.3774L110.692 54.4819V70.3245L97.5703 75.3826L97.6421 59.3774Z" fill="#3D95D1"/>
<path d="M97.2457 105.166V102.965L107.179 99.1349V76.0306L97.7249 79.4846L97.043 77.7308L109.115 73.2925V100.423L97.2457 105.166Z" fill="#B9D5FD"/>
<path d="M109.117 87.2931L107.234 87.9229V76.0458L97.5703 79.7709V77.5574L109.117 73.2925V87.2931Z" fill="#F985A0"/>
<path d="M97.5703 100.986V98.7895L104.088 96.1462V80.6077L97.5703 83.126V80.9292L105.968 78.5181V97.45L97.5703 100.986Z" fill="#B9D5FD"/>
<path d="M97.2421 96.8061V94.658L100.391 93.6277V86.3977L97.7126 87.3756L97.043 85.6642L102.291 83.7432V94.9025L97.2421 96.8061Z" fill="#B9D5FD"/>
<path d="M102.294 89.3986L100.516 90.0134V86.4128L97.5703 87.6423V85.482L102.294 83.7432V89.3986Z" fill="#F985A0"/>
<path d="M105.968 88.3308L104.088 88.968V80.6852L97.5703 83.1807V81.0038L105.968 77.9951V88.3308Z" fill="#F985A0"/>
<path d="M143.754 41.8422L150.577 39.3291V47.2844L143.754 49.7794V41.8422Z" fill="#FF8098"/>
<path d="M110.688 112.001L115.49 100.463L123.809 103.033L119.006 114.571L110.688 112.001Z" fill="#0E2951"/>
<path d="M113.84 109.581L116.329 103.599L120.663 104.932L118.155 110.914L113.84 109.581Z" fill="#6780B3"/>
<path d="M110.688 54.6504L123.809 49.7793V62.1689L110.688 67.0223V54.6504Z" fill="#C43B55"/>
<path d="M110.688 54.7459L123.809 49.7793V58.9387L110.688 63.8872V54.7459Z" fill="#911A31"/>
<path d="M110.688 54.6597L123.809 49.7793V55.367L110.688 60.2296V54.6597Z" fill="#053866"/>
<path d="M110.688 54.7637L123.809 49.7793V52.6327L110.688 57.6171V54.7637Z" fill="#0E2951"/>
<path d="M137.455 88.2662L123.809 93.1484L137.455 79.563L123.809 84.4453" fill="#911A31"/>
<path d="M150.576 87.2939L148.477 87.9232V71.8499L150.576 71.2026V87.2939Z" fill="#709FDC"/>
<path d="M147.955 87.8239L145.855 88.4456V72.8692L147.955 72.2476V87.8239Z" fill="#709FDC"/>
<path d="M140.08 90.9592L138.02 91.5808L137.98 76.0044L140.041 75.3828L140.08 90.9592Z" fill="#709FDC"/>
<path d="M142.705 89.9143L140.605 90.5359V74.9595L142.705 74.3379V89.9143Z" fill="#709FDC"/>
<path d="M145.33 88.8689L143.23 89.4905V73.9141L145.33 73.2925V88.8689Z" fill="#709FDC"/>
<path d="M137.457 60.5305L150.578 55.5273V71.4249L137.457 76.428V60.5305Z" fill="#0E2951"/>
<path d="M137.457 91.8815L150.578 86.8784V102.776L137.457 107.779V91.8815Z" fill="#053866"/>
<path d="M137.457 60.5141L143.755 58.1396V65.693L137.457 68.0675V60.5141Z" fill="#911A31"/>
<path d="M139.063 107.15L137.457 107.779C137.457 97.0695 143.479 90.5648 150.578 87.9233V89.5046C144.173 91.8945 139.063 99.9086 139.063 107.15Z" fill="#B9D5FD"/>
<path d="M142.53 106.098L140.605 106.734C140.605 99.0871 145.207 93.0566 150.578 91.0586V92.9658C145.885 94.7277 142.53 100.486 142.53 106.098Z" fill="#3D95D1"/>
<path d="M146.045 104.548L144.281 105.166C144.281 100.524 146.963 96.0574 150.544 94.7158L150.579 96.4811C147.79 97.5402 146.045 101.212 146.045 104.548Z" fill="#3376B3"/>
<path d="M149.031 103.493L147.47 104.121C147.151 101.607 148.605 99.11 150.539 98.3735L150.575 100.349C149.368 100.798 149.031 101.966 149.031 103.493Z" fill="#709FDC"/>
<path fill-rule="evenodd" clip-rule="evenodd" d="M135.88 46.644V59.2086L126.392 62.8421L125.864 61.4326L134.389 58.1678V48.8266L126.874 51.7049V58.7181L132.704 56.4973V51.5031L128.559 53.0819V56.0745L131 55.1404V54.1295L129.763 54.6043L129.234 53.1952L132.491 51.9454V56.1816L127.068 58.2563V52.0391L134.195 49.3247V57.54L125.383 60.8965V50.6641L135.88 46.644Z" fill="#F985A0"/>
<path fill-rule="evenodd" clip-rule="evenodd" d="M98.6172 72.164L107.687 56.5723L109.639 57.701L100.569 73.2928L98.6172 72.164Z" fill="#0E2951"/>
<path fill-rule="evenodd" clip-rule="evenodd" d="M107.567 70.1574L98.6172 61.338L100.165 59.707L109.114 68.5264L107.567 70.1574Z" fill="#0E2951"/>
<path d="M119.086 77.3024L121.185 76.4277V79.2107L119.086 80.0854V77.3024Z" fill="#911A31"/>
<path d="M116.461 75.0835L118.56 74.3379V76.7273L116.461 77.473V75.0835Z" fill="#911A31"/>
<path d="M113.312 72.4748L115.412 71.7251V74.1105L113.312 74.8602V72.4748Z" fill="#911A31"/>
<path d="M140.605 43.2262L150.578 39.3291V51.6669L140.605 55.5271V43.2262Z" fill="#053866"/>
<path d="M143.754 65.8685L150.577 63.3647V71.5331L143.754 74.1343V65.8685Z" fill="#911A31"/>
<path d="M170 19.9778L150.281 39.3299L97.6016 19.5317L117.271 0.141113L170 19.9778Z" fill="#084C80"/>
<path d="M97.8173 59.2964L77.9172 79.0405L25.1406 59.2837L45.4003 39.5732L97.8173 59.2964Z" fill="#094573"/>
<path d="M97.601 19.5312L78.2223 0L25.5117 19.9101L45.1944 39.7113L97.601 19.5312Z" fill="#084C80"/>
<path d="M170 58.8745L150.315 39.3291L97.5703 59.4037L117.363 79.0404L170 58.8745Z" fill="#084C80"/>
</g>
<defs>
<filter id="filter0_f" x="-5" y="59.8604" width="116.147" height="48.2747" filterUnits="userSpaceOnUse" color-interpolation-filters="sRGB">
<feFlood flood-opacity="0" result="BackgroundImageFix"/>
<feBlend mode="normal" in="SourceGraphic" in2="BackgroundImageFix" result="shape"/>
<feGaussianBlur stdDeviation="2.5" result="effect1_foregroundBlur"/>
</filter>
<filter id="filter1_f" x="-18.8242" y="-39.5425" width="232.384" height="232.079" filterUnits="userSpaceOnUse" color-interpolation-filters="sRGB">
<feFlood flood-opacity="0" result="BackgroundImageFix"/>
<feBlend mode="normal" in="SourceGraphic" in2="BackgroundImageFix" result="shape"/>
<feGaussianBlur stdDeviation="40" result="effect1_foregroundBlur"/>
</filter>
<linearGradient id="paint0_linear" x1="103.002" y1="103.78" x2="75.8221" y2="44.5349" gradientUnits="userSpaceOnUse">
<stop offset="0.0960889"/>
<stop offset="0.978163" stop-color="#B4D1FA" stop-opacity="0"/>
</linearGradient>
<radialGradient id="paint1_radial" cx="0" cy="0" r="1" gradientUnits="userSpaceOnUse" gradientTransform="translate(96.9517 64.0697) rotate(90) scale(28.5832 28.704)">
<stop stop-color="#0095FF"/>
<stop offset="1" stop-color="#BCE3FF"/>
</radialGradient>
<clipPath id="clip0">
<rect width="170" height="123" fill="white"/>
</clipPath>
</defs>
</svg>
