<svg width="170" height="124" viewBox="0 0 170 124" fill="none" xmlns="http://www.w3.org/2000/svg">
<g clip-path="url(#clip0)">
<g filter="url(#filter0_f)">
<path d="M106.146 81.6109L46.7571 104.042L-0.00084853 86.986L59.0574 65.5891L106.146 81.6109Z" fill="url(#paint0_linear)"/>
</g>
<path d="M97.5711 123.932L45.104 104.078L45.0859 40.4644L97.5711 60.3178V123.932Z" fill="#053866"/>
<path d="M150.471 103.983L97.5703 83.8966L97.6013 20.0488L150.58 40.0047L150.471 103.983Z" fill="#083556"/>
<path d="M97.5703 123.932L150.562 103.748L150.58 39.939L97.5885 59.9589L97.5703 123.932Z" fill="#054270"/>
<path d="M45.104 103.983L97.6025 84.7556V20.0488L45.0859 40.0246L45.104 103.983Z" fill="#063D66"/>
<g filter="url(#filter1_f)">
<ellipse cx="97.3677" cy="77.2805" rx="36.192" ry="36.2078" fill="url(#paint1_radial)"/>
</g>
<path d="M97.5531 123.932L45.104 104.078L45.0859 40.4644L97.5711 60.3178L97.5531 123.932Z" fill="#053866"/>
<path d="M58.2072 61.4625L45.104 56.4621L45.0859 40.4644L58.2072 45.5735V61.4625Z" fill="#053866"/>
<path d="M48.575 55.6848C47.3932 55.7148 46.2178 55.501 45.1217 55.0566L45.0859 53.3693C47.7519 54.3924 50.3106 54.195 52.2788 52.8308C54.6227 51.2153 56.1078 48.5408 56.1078 44.6636L57.6824 45.2918C57.6824 49.7075 56.3762 52.1846 53.6029 54.1052C52.1143 55.1081 50.3679 55.6568 48.575 55.6848Z" fill="#FF8098"/>
<path d="M71.3283 66.1871L58.207 61.1606V45.189L71.3283 50.2154V66.1871Z" fill="#0E2951"/>
<path d="M84.4494 71.4366L71.3281 66.4102V50.4385L84.4494 55.4467V71.4366Z" fill="#FF8098"/>
<path d="M97.4985 76.1607L84.4492 71.1942V55.1626L97.5705 59.983L97.4985 76.1607Z" fill="#911A31"/>
<path d="M58.2072 77.211L45.0859 72.2028V56.2129L58.2072 61.2393V77.211Z" fill="#911A31"/>
<path d="M71.3283 81.9356L58.207 77.0348V61.4624L71.3283 66.3632V81.9356Z" fill="#C43B55"/>
<path d="M84.4494 87.1847L71.3281 82.1582V66.1865L84.4494 71.213V87.1847Z" fill="#053866"/>
<path d="M97.5705 91.9092L84.4492 87.0626V71.436L97.5705 76.2826V91.9092Z" fill="#132F7C"/>
<path d="M71.3283 98.2091L58.207 93.2008V77.2109L71.3283 82.2374V98.2091Z" fill="#FF8098"/>
<path d="M84.4494 102.933L71.3281 97.9067V81.9351L84.4494 86.9615V102.933Z" fill="#0E2951"/>
<path d="M97.5705 108.183L84.4492 103.212V87.1851L97.5705 92.1559V108.183Z" fill="#053866"/>
<path d="M58.2072 109.233L45.0859 104.207V88.2349L58.2072 93.2613V109.233Z" fill="#C43B55"/>
<path d="M71.3283 113.958L58.207 108.945V92.9595L71.3283 97.9721V113.958Z" fill="#053866"/>
<path d="M84.4494 119.208L71.3281 114.181V98.2095L84.4494 103.236V119.208Z" fill="#FF8098"/>
<path d="M97.5705 123.932L84.4492 118.989V102.934L97.5164 107.914L97.5705 123.932Z" fill="#911A31"/>
<path d="M47.799 52.5377C46.8674 52.5518 45.9433 52.3696 45.0859 52.003V50.0672C46.9924 50.8046 49.3571 50.5465 50.5303 49.7722C52.4917 48.4632 53.445 46.4351 53.445 43.6143L55.0581 44.2595C55.0581 47.7257 53.8299 49.8459 51.6302 51.3762C50.4959 52.1369 49.1623 52.5412 47.799 52.5377Z" fill="#D6516B"/>
<path d="M46.861 48.8626C46.2528 48.8751 45.6486 48.756 45.0859 48.5126V46.4714C46.2324 46.938 48.0075 46.8213 48.9875 45.791C50.0045 44.7218 50.2818 43.847 50.2818 42.0391L51.909 42.7195C51.909 45.2078 51.0954 46.8991 49.5607 48.0072C48.7619 48.5685 47.8219 48.8663 46.861 48.8626Z" fill="#C43B55"/>
<path d="M45.9217 45.1816C45.6341 45.2085 45.3452 45.1489 45.0859 45.0093V42.9988C45.3645 43.1137 46.27 43.1903 46.6182 42.9988C47.2276 42.6541 47.2276 41.984 46.9316 40.9883L48.7599 41.6584C48.7599 43.0562 48.3072 44.0328 47.454 44.6838C46.9966 45.0065 46.4651 45.1792 45.9217 45.1816Z" fill="#A62E41"/>
<path d="M97.3673 105.559L86.0234 101.363V74.0615L97.5702 78.1855V80.4006L87.9786 76.7988V100.048L97.2566 103.47L97.3673 105.559Z" fill="#C43B55"/>
<path d="M97.5702 106.083L86.0234 101.499V87.71L87.9786 88.3343V100.197L97.5702 103.889V106.083Z" fill="#F985A0"/>
<path d="M97.3647 101.884L89.1719 98.827V78.7856L97.5695 81.769V84.0202L91.127 81.5859V97.8204L97.5695 100.072L97.3647 101.884Z" fill="#C43B55"/>
<path d="M97.3738 97.6839L92.8477 95.9698V84.5601L97.5713 86.2028V88.399L94.7335 87.292V94.6842L97.5713 95.9162L97.3738 97.6839Z" fill="#C43B55"/>
<path d="M97.5713 97.6839L92.8477 95.8417V89.8096L94.7335 90.4417V94.5414L97.5713 95.4625V97.6839Z" fill="#F985A0"/>
<path d="M97.5695 101.884L89.1719 98.7988V88.7598L91.127 89.3839V97.4971L97.5695 99.6904V101.884Z" fill="#F985A0"/>
<path d="M55.0581 107.658L45.0859 103.887V91.9097L55.0581 95.6807V107.658Z" fill="#053866"/>
<path d="M51.3842 106.608L45.0859 104.097V96.1089L51.3842 98.6199V106.608Z" fill="#FF8098"/>
<path d="M84.4494 61.0419L79.6498 69.3366L71.3281 60.3079L76.1277 52.0132L84.4494 61.0419Z" fill="#C43B55"/>
<path d="M81.2996 60.8512L78.7898 65.1371L74.4766 60.4802L76.9678 56.2129L81.2996 60.8512Z" fill="#911A31"/>
<path d="M84.4494 119.207L71.3281 114.165V101.359L84.4494 106.383V119.207Z" fill="#C43B55"/>
<path d="M84.4494 119.207L71.3281 114.032V104.508L84.4494 109.664V119.207Z" fill="#911A31"/>
<path d="M84.4494 119.207L71.3281 114.059V108.183L84.4494 113.313V119.207Z" fill="#053866"/>
<path d="M84.4494 119.207L71.3281 114.188V111.333L84.4494 116.334V119.207Z" fill="#0E2951"/>
<path d="M58.207 65.1372L71.3283 70.0422L58.207 73.881L71.3283 78.786L58.207 65.1372Z" fill="#911A31"/>
<path d="M46.6605 73.0114L45.0859 72.3667V56.2129L46.6605 56.8576V73.0114Z" fill="#FF8098"/>
<path d="M49.2855 73.5362L47.7109 72.9124V57.2627L49.2855 57.9044V73.5362Z" fill="#FF8098"/>
<path d="M57.6815 76.6857L55.582 76.0611V60.4121L57.6815 61.0366V76.6857Z" fill="#FF8098"/>
<path d="M54.5316 75.6359L52.957 75.0113V59.3623L54.5316 59.9868V75.6359Z" fill="#FF8098"/>
<path d="M51.9105 74.5861L50.3359 73.9615V58.3125L51.9105 58.937V74.5861Z" fill="#FF8098"/>
<path d="M58.2072 92.9596L45.0859 87.9331V71.9614L58.2072 76.9697V92.9596Z" fill="#0E2951"/>
<path d="M58.2059 92.9595L51.3828 90.4485V82.4604L58.2059 84.9715V92.9595Z" fill="#911A31"/>
<path d="M51.3842 82.4605L45.0859 79.9451V71.9614L51.3842 74.4768V82.4605Z" fill="#911A31"/>
<path fill-rule="evenodd" clip-rule="evenodd" d="M59.7812 95.585L69.2939 99.3351L68.7894 100.719L61.2048 97.7295V106.905L68.3299 109.714V102.827L62.8142 100.649V105.554L66.7205 107.1V104.142L64.4062 103.227V104.238L66.0928 104.904L65.5877 106.288L62.9827 105.26V101.081L68.1441 103.121V109.247L61.3906 106.575V98.504L69.7534 101.805V111.859L59.7812 107.927V95.585Z" fill="#F985A0"/>
<path fill-rule="evenodd" clip-rule="evenodd" d="M96.5205 110.257L87.5847 118.682L86.0234 117.133L94.9592 108.708L96.5205 110.257Z" fill="#0E2951"/>
<path fill-rule="evenodd" clip-rule="evenodd" d="M87.894 105.559L96.5205 120.738L94.6499 121.832L86.0234 106.653L87.894 105.559Z" fill="#0E2951"/>
<path d="M76.0525 89.8099L73.9531 88.9312V86.1353L76.0525 87.014V89.8099Z" fill="#911A31"/>
<path d="M78.6775 94.534L76.5781 93.6601V90.8594L78.6775 91.7334V94.534Z" fill="#911A31"/>
<path d="M81.826 98.7347L79.7266 97.9815V95.585L81.826 96.3382V98.7347Z" fill="#911A31"/>
<path d="M97.5885 59.9593L150.58 39.9395V103.821L97.5703 123.932L97.5885 59.9593Z" fill="#053866"/>
<path d="M137.457 76.9835L150.578 71.9614V87.9375L137.457 92.9596V76.9835Z" fill="#911A31"/>
<path d="M123.812 82.1117L137.459 77.2109V92.8011L123.812 97.6841V82.1117Z" fill="#C43B55"/>
<path d="M110.691 86.9615L123.813 81.9351V97.9068L110.691 102.933V86.9615Z" fill="#053866"/>
<path d="M97.5703 92.2667L110.692 87.1851V103.102L97.5703 108.183V92.2667Z" fill="#132F7C"/>
<path d="M123.812 65.9639L137.459 60.9375V76.9092L123.812 81.9356V65.9639Z" fill="#FF8098"/>
<path d="M110.691 71.2134L123.813 66.187V82.1587L110.691 87.1851V71.2134Z" fill="#0E2951"/>
<path d="M97.5703 75.9928L110.692 70.9111V86.8276L97.5703 91.9092V75.9928Z" fill="#053866"/>
<path d="M123.812 97.9682L137.459 92.96V108.932L123.812 113.958V97.9682Z" fill="#0E2951"/>
<path d="M110.691 102.711L123.813 97.6846V113.674L110.691 118.683V102.711Z" fill="#FF8098"/>
<path d="M97.5703 108.025L110.692 102.934V118.878L97.6242 123.932L97.5703 108.025Z" fill="#911A31"/>
<path d="M137.457 44.9797L150.578 39.9395V55.9155L137.457 60.9376V44.9797Z" fill="#C43B55"/>
<path d="M123.812 50.2154L137.459 45.189V61.1607L123.812 66.1871V50.2154Z" fill="#053866"/>
<path d="M110.688 55.3393L123.809 50.4385V66.0109L110.688 70.9116V55.3393Z" fill="#FF8098"/>
<path d="M97.6421 60.0814L110.692 55.1631V71.0796L97.5703 76.1612L97.6421 60.0814Z" fill="#911A31"/>
<path d="M97.2457 106.084V103.872L107.179 100.024V76.8124L97.7249 80.2826L97.043 78.5205L109.115 74.0615V101.319L97.2457 106.084Z" fill="#C43B55"/>
<path d="M109.117 88.1274L107.234 88.7602V76.8277L97.5703 80.5702V78.3464L109.117 74.0615V88.1274Z" fill="#F985A0"/>
<path d="M97.5703 101.884V99.677L104.088 97.0213V81.4104L97.5703 83.9405V81.7334L105.968 79.311V98.3312L97.5703 101.884Z" fill="#C43B55"/>
<path d="M97.2421 97.6849V95.5268L100.391 94.4916V87.2279L97.7126 88.2104L97.043 86.491L102.291 84.561V95.7724L97.2421 97.6849Z" fill="#C43B55"/>
<path d="M102.294 90.2429L100.516 90.8605V87.2431L97.5703 88.4783V86.3079L102.294 84.561V90.2429Z" fill="#F985A0"/>
<path d="M105.968 89.17L104.088 89.8102V81.4888L97.5703 83.9959V81.8088L105.968 78.7861V89.17Z" fill="#F985A0"/>
<path d="M143.754 42.4643L150.577 39.9395V47.9318L143.754 50.4385V42.4643Z" fill="#FF8098"/>
<path d="M110.688 112.951L115.49 101.359L123.809 103.941L119.006 115.533L110.688 112.951Z" fill="#C43B55"/>
<path d="M113.84 110.519L116.329 104.509L120.663 105.848L118.155 111.858L113.84 110.519Z" fill="#911A31"/>
<path d="M110.688 55.3323L123.809 50.4385V62.8858L110.688 67.7619V55.3323Z" fill="#C43B55"/>
<path d="M110.688 55.4282L123.809 50.4385V59.6406L110.688 64.6122V55.4282Z" fill="#911A31"/>
<path d="M110.688 55.3416L123.809 50.4385V56.0522L110.688 60.9375V55.3416Z" fill="#053866"/>
<path d="M110.688 55.4461L123.809 50.4385V53.3052L110.688 58.3128V55.4461Z" fill="#0E2951"/>
<path d="M137.459 89.1046L123.812 94.0096L137.459 80.3608L123.812 85.2659" fill="#911A31"/>
<path d="M150.576 88.1282L148.477 88.7604V72.6122L150.576 71.9619V88.1282Z" fill="#FF8098"/>
<path d="M147.955 88.6607L145.855 89.2853V73.6363L147.955 73.0117V88.6607Z" fill="#FF8098"/>
<path d="M140.08 91.8102L138.02 92.4347L137.98 76.7857L140.041 76.1611L140.08 91.8102Z" fill="#FF8098"/>
<path d="M142.705 90.7599L140.605 91.3844V75.7354L142.705 75.1108V90.7599Z" fill="#FF8098"/>
<path d="M145.33 89.7105L143.23 90.3351V74.6861L145.33 74.0615V89.7105Z" fill="#FF8098"/>
<path d="M137.457 61.2398L150.578 56.2134V72.1851L137.457 77.2115V61.2398Z" fill="#0E2951"/>
<path d="M137.457 92.7369L150.578 87.7104V103.682L137.457 108.709V92.7369Z" fill="#053866"/>
<path d="M137.457 61.2234L143.755 58.8379V66.4265L137.457 68.812V61.2234Z" fill="#911A31"/>
<path d="M139.063 108.077L137.457 108.708C137.457 97.9491 143.479 91.414 150.578 88.7603V90.3489C144.173 92.7499 139.063 100.801 139.063 108.077Z" fill="#FF8098"/>
<path d="M142.53 107.02L140.605 107.658C140.605 99.9756 145.207 93.917 150.578 91.9097V93.8258C145.885 95.5959 142.53 101.381 142.53 107.02Z" fill="#D6516B"/>
<path d="M146.045 105.463L144.281 106.084C144.281 101.419 146.963 96.9323 150.544 95.5845L150.579 97.358C147.79 98.4221 146.045 102.111 146.045 105.463Z" fill="#C43B55"/>
<path d="M149.035 104.402L147.474 105.034C147.154 102.507 148.609 99.9991 150.543 99.2593L150.579 101.244C149.372 101.695 149.035 102.868 149.035 104.402Z" fill="#A62E41"/>
<path fill-rule="evenodd" clip-rule="evenodd" d="M135.88 47.2886V59.9117L126.392 63.5621L125.864 62.1461L134.389 58.8661V49.4813L126.874 52.373V59.4189L132.704 57.1877V52.1703L128.559 53.7564V56.763L131 55.8246V54.809L129.763 55.286L129.234 53.8703L132.491 52.6146V56.8706L127.068 58.955V52.7087L134.195 49.9818V58.2354L125.383 61.6075V51.3274L135.88 47.2886Z" fill="#F985A0"/>
<path fill-rule="evenodd" clip-rule="evenodd" d="M98.6172 72.9272L107.687 57.2627L109.639 58.3967L100.569 74.0612L98.6172 72.9272Z" fill="#0E2951"/>
<path fill-rule="evenodd" clip-rule="evenodd" d="M107.567 70.9117L98.6172 62.0512L100.165 60.4126L109.114 69.2731L107.567 70.9117Z" fill="#0E2951"/>
<path d="M119.086 78.0902L121.185 77.2114V80.0074L119.086 80.8861V78.0902Z" fill="#911A31"/>
<path d="M116.461 75.86L118.56 75.1108V77.5114L116.461 78.2606V75.86Z" fill="#911A31"/>
<path d="M113.312 73.2395L115.412 72.4863V74.8829L113.312 75.6361V73.2395Z" fill="#911A31"/>
<path d="M140.605 43.8548L150.578 39.9395V52.3348L140.605 56.213V43.8548Z" fill="#053866"/>
<path d="M143.754 66.6028L150.577 64.0874V72.0711L143.754 74.5865V66.6028Z" fill="#911A31"/>
<path opacity="0.3" d="M45.2999 40.1387L97.6031 59.9945V124.001L45.0664 104.145L45.2999 40.1387Z" fill="black"/>
<path d="M170 20.4971L150.281 39.9394L97.6016 20.0489L117.271 0.567871L170 20.4971Z" fill="#084C80"/>
<path d="M97.8173 59.9997L77.9172 79.8358L25.1406 59.9869L45.4003 40.1846L97.8173 59.9997Z" fill="#094573"/>
<path d="M97.601 20.049L78.2223 0.426758L25.5117 20.4297L45.1945 40.3232L97.601 20.049Z" fill="#084C80"/>
<path d="M170 59.5755L150.315 39.939L97.5703 60.1072L117.363 79.8354L170 59.5755Z" fill="#084C80"/>
</g>
<defs>
<filter id="filter0_f" x="-5" y="60.5889" width="116.147" height="48.4532" filterUnits="userSpaceOnUse" color-interpolation-filters="sRGB">
<feFlood flood-opacity="0" result="BackgroundImageFix"/>
<feBlend mode="normal" in="SourceGraphic" in2="BackgroundImageFix" result="shape"/>
<feGaussianBlur stdDeviation="2.5" result="effect1_foregroundBlur"/>
</filter>
<filter id="filter1_f" x="-18.8242" y="-38.9272" width="232.384" height="232.416" filterUnits="userSpaceOnUse" color-interpolation-filters="sRGB">
<feFlood flood-opacity="0" result="BackgroundImageFix"/>
<feBlend mode="normal" in="SourceGraphic" in2="BackgroundImageFix" result="shape"/>
<feGaussianBlur stdDeviation="40" result="effect1_foregroundBlur"/>
</filter>
<linearGradient id="paint0_linear" x1="103.002" y1="104.69" x2="75.6126" y2="45.2656" gradientUnits="userSpaceOnUse">
<stop offset="0.0960889"/>
<stop offset="0.978163" stop-color="#B4D1FA" stop-opacity="0"/>
</linearGradient>
<radialGradient id="paint1_radial" cx="0" cy="0" r="1" gradientUnits="userSpaceOnUse" gradientTransform="translate(96.9517 64.7951) rotate(90) scale(28.7165 28.704)">
<stop stop-color="#0095FF"/>
<stop offset="1" stop-color="#BCE3FF"/>
</radialGradient>
<clipPath id="clip0">
<rect width="170" height="123.574" fill="white" transform="translate(0 0.426758)"/>
</clipPath>
</defs>
</svg>
