<svg width="377" height="158" viewBox="0 0 377 158" fill="none" xmlns="http://www.w3.org/2000/svg">
<path d="M0 10C0 4.47715 4.47715 0 10 0H45H367C372.523 0 377 4.47715 377 10V114C377 119.523 372.523 124 367 124H78.9318C77.0176 124 75.1435 124.549 73.5323 125.583L29.7212 153.688C27.9695 154.812 25.8802 152.846 26.8954 151.029L33.6857 138.878C37.4107 132.213 32.5921 124 24.9563 124H10C4.47715 124 0 119.523 0 114V62V49V10Z" fill="url(#paint0_linear)"/>
<path d="M45 0H10C4.47715 0 0 4.47715 0 10V49C35.4688 49.2867 46.6664 39.8971 45 0Z" fill="url(#paint1_linear)"/>
<path d="M19.7107 29.7793C20.7536 29.7793 21.6215 28.9779 21.7043 27.9382L22.9951 11.7419C23.1558 9.72523 21.5626 8 19.5396 8C17.5134 8 15.9191 9.73026 16.0846 11.7496L17.4117 27.9427C17.4967 28.9804 18.3638 29.7793 19.405 29.7793H19.7107Z" fill="#F5F9FF"/>
<circle cx="19.5426" cy="34.3639" r="2.63633" fill="#F5F9FF"/>
<defs>
<linearGradient id="paint0_linear" x1="188.5" y1="0" x2="188.5" y2="158" gradientUnits="userSpaceOnUse">
<stop stop-color="#0A3D76"/>
<stop offset="1" stop-color="#0C53A3"/>
</linearGradient>
<linearGradient id="paint1_linear" x1="43.7669" y1="24.5032" x2="1.3333" y2="23.6636" gradientUnits="userSpaceOnUse">
<stop stop-color="#A62E41"/>
<stop offset="1" stop-color="#E13152"/>
</linearGradient>
</defs>
</svg>
