<svg width="430" height="280" viewBox="0 0 430 280" fill="none" xmlns="http://www.w3.org/2000/svg">
<path d="M360 67L364.358 69.4513C365.229 67.9031 365.213 66.0091 364.316 64.4758C363.419 62.9424 361.776 62 360 62V67ZM346.642 80.5487C345.288 82.9555 346.142 86.0041 348.549 87.3579C350.955 88.7117 354.004 87.8581 355.358 85.4513L346.642 80.5487ZM341 62C338.239 62 336 64.2386 336 67C336 69.7614 338.239 72 341 72V62ZM355.642 64.5487L346.642 80.5487L355.358 85.4513L364.358 69.4513L355.642 64.5487ZM360 62H341V72H360V62ZM357.504 62.6676L39.0039 246.168L43.9961 254.832L362.496 71.3324L357.504 62.6676Z" fill="url(#paint0_linear)"/>
<path fill-rule="evenodd" clip-rule="evenodd" d="M430 254H40V251H430V254Z" fill="black"/>
<path fill-rule="evenodd" clip-rule="evenodd" d="M40.9239 252.638V261.388H38.9922V252.638H40.9239Z" fill="black"/>
<path fill-rule="evenodd" clip-rule="evenodd" d="M360.03 252.638V261.388H357.133V252.638H360.03Z" fill="black"/>
<path d="M44.6395 274.001C44.6395 276.029 44.2767 277.536 43.5512 278.521C42.8256 279.507 41.6915 280 40.1489 280C38.6259 280 37.4984 279.52 36.7663 278.559C36.0342 277.592 35.6551 276.151 35.6289 274.235V271.924C35.6289 269.921 35.9917 268.433 36.7172 267.46C37.4428 266.487 38.5802 266 40.1293 266C41.6654 266 42.7962 266.471 43.5218 267.413C44.2473 268.349 44.6199 269.796 44.6395 271.755V274.001ZM42.8256 271.634C42.8256 270.168 42.6099 269.101 42.1785 268.433C41.7471 267.759 41.064 267.422 40.1293 267.422C39.2011 267.422 38.5246 267.756 38.0997 268.424C37.6748 269.091 37.4559 270.118 37.4428 271.503V274.273C37.4428 275.745 37.665 276.834 38.1095 277.539C38.5605 278.238 39.2403 278.587 40.1489 278.587C41.0444 278.587 41.7079 278.256 42.1393 277.595C42.5772 276.934 42.806 275.892 42.8256 274.469V271.634Z" fill="black"/>
<path d="M361.007 280H358.58V268.798L355 269.967V268.003L360.696 266H361.007V280Z" fill="black"/>
<path fill-rule="evenodd" clip-rule="evenodd" d="M39 253V0H41V253H39Z" fill="black"/>
<path fill-rule="evenodd" clip-rule="evenodd" d="M39.9505 253.61H31.2578V250.693H39.9505V253.61Z" fill="black"/>
<path d="M18.6083 253.001C18.6083 255.029 18.2455 256.536 17.5199 257.521C16.7944 258.507 15.6603 259 14.1177 259C12.5947 259 11.4671 258.52 10.735 257.559C10.0029 256.592 9.6238 255.151 9.59766 253.235V250.924C9.59766 248.921 9.96043 247.433 10.686 246.46C11.4115 245.487 12.5489 245 14.0981 245C15.6341 245 16.765 245.471 17.4905 246.413C18.2161 247.349 18.5887 248.796 18.6083 250.755V253.001ZM16.7944 250.634C16.7944 249.168 16.5787 248.101 16.1473 247.433C15.7159 246.759 15.0328 246.422 14.0981 246.422C13.1699 246.422 12.4933 246.756 12.0685 247.424C11.6436 248.091 11.4246 249.118 11.4115 250.503V253.273C11.4115 254.745 11.6338 255.834 12.0783 256.539C12.5293 257.238 13.2091 257.587 14.1177 257.587C15.0132 257.587 15.6766 257.256 16.108 256.595C16.546 255.934 16.7748 254.892 16.7944 253.469V250.634Z" fill="black"/>
<path fill-rule="evenodd" clip-rule="evenodd" d="M39.9622 192.36H31.2695V189.443H39.9622V192.36Z" fill="black"/>
<path fill-rule="evenodd" clip-rule="evenodd" d="M39.9583 131.109H31.2656V128.192H39.9583V131.109Z" fill="black"/>
<path fill-rule="evenodd" clip-rule="evenodd" d="M39.9583 69.86H31.2656V66.9434H39.9583V69.86Z" fill="black"/>
<path fill-rule="evenodd" clip-rule="evenodd" d="M39.9622 8.61001H31.2695V5.69336H39.9622V8.61001Z" fill="black"/>
<path d="M5.2864 195.378H3.83156V185.745L0.914062 186.815V185.503L5.05957 183.948H5.2864V195.378Z" fill="black"/>
<path d="M16.667 190.526C16.667 192.219 16.3776 193.477 15.7988 194.3C15.22 195.123 14.3153 195.534 13.0847 195.534C11.8697 195.534 10.9702 195.133 10.3862 194.331C9.80214 193.524 9.4997 192.321 9.47884 190.722V188.792C9.47884 187.12 9.76824 185.878 10.3471 185.065C10.9259 184.253 11.8332 183.847 13.069 183.847C14.2944 183.847 15.1965 184.24 15.7753 185.026C16.3541 185.808 16.6514 187.016 16.667 188.651V190.526ZM15.22 188.55C15.22 187.326 15.0479 186.435 14.7037 185.878C14.3596 185.315 13.8147 185.034 13.069 185.034C12.3286 185.034 11.7889 185.313 11.4499 185.87C11.111 186.427 10.9363 187.284 10.9259 188.44V190.753C10.9259 191.982 11.1031 192.891 11.4577 193.479C11.8175 194.063 12.3598 194.354 13.0847 194.354C13.799 194.354 14.3283 194.078 14.6725 193.526C15.0218 192.974 15.2043 192.104 15.22 190.917V188.55Z" fill="black"/>
<path d="M18.3956 186.19C18.3956 185.508 18.612 184.946 19.0448 184.503C19.4828 184.06 20.0434 183.839 20.7265 183.839C21.42 183.839 21.9805 184.063 22.4081 184.511C22.8409 184.953 23.0573 185.529 23.0573 186.237V186.792C23.0573 187.479 22.8383 188.042 22.4003 188.479C21.9675 188.912 21.4148 189.128 20.7421 189.128C20.0642 189.128 19.5037 188.912 19.0604 188.479C18.6172 188.042 18.3956 187.461 18.3956 186.737V186.19ZM19.475 186.792C19.475 187.198 19.5897 187.534 19.8191 187.8C20.0486 188.06 20.3562 188.19 20.7421 188.19C21.1123 188.19 21.4096 188.063 21.6338 187.808C21.8632 187.552 21.9779 187.203 21.9779 186.761V186.19C21.9779 185.784 21.8658 185.448 21.6416 185.183C21.4174 184.917 21.1123 184.784 20.7265 184.784C20.3406 184.784 20.0355 184.917 19.8113 185.183C19.5871 185.448 19.475 185.795 19.475 186.222V186.792ZM23.9412 192.589C23.9412 191.907 24.1576 191.347 24.5904 190.909C25.0284 190.466 25.589 190.245 26.2721 190.245C26.9552 190.245 27.5157 190.464 27.9537 190.901C28.3917 191.339 28.6108 191.92 28.6108 192.644V193.198C28.6108 193.881 28.3917 194.443 27.9537 194.886C27.5209 195.323 26.9656 195.542 26.2877 195.542C25.6098 195.542 25.0493 195.326 24.606 194.894C24.1628 194.456 23.9412 193.875 23.9412 193.151V192.589ZM25.0206 193.198C25.0206 193.61 25.1353 193.948 25.3647 194.214C25.5942 194.474 25.9018 194.604 26.2877 194.604C26.6631 194.604 26.963 194.477 27.1872 194.222C27.4114 193.961 27.5235 193.61 27.5235 193.167V192.589C27.5235 192.177 27.4088 191.841 27.1794 191.581C26.9552 191.321 26.6527 191.19 26.2721 191.19C25.9018 191.19 25.5994 191.321 25.3647 191.581C25.1353 191.836 25.0206 192.183 25.0206 192.62V193.198ZM21.0706 194.519L20.2493 194.003L25.8106 185.112L26.6319 185.628L21.0706 194.519Z" fill="black"/>
<path d="M7.99342 134.551H0.531508V133.512L4.47365 129.137C5.05767 128.475 5.45919 127.939 5.6782 127.527C5.90242 127.111 6.01453 126.681 6.01453 126.238C6.01453 125.645 5.83463 125.158 5.47483 124.777C5.11503 124.397 4.6353 124.207 4.03564 124.207C3.31604 124.207 2.75548 124.413 2.35397 124.824C1.95767 125.23 1.75952 125.798 1.75952 126.527H0.3125C0.3125 125.48 0.648834 124.634 1.3215 123.988C1.99938 123.342 2.90409 123.02 4.03564 123.02C5.09417 123.02 5.9311 123.298 6.54641 123.855C7.16171 124.408 7.46937 125.145 7.46937 126.066C7.46937 127.186 6.75499 128.52 5.32622 130.066L2.27575 133.371H7.99342V134.551Z" fill="black"/>
<path d="M16.6677 129.699C16.6677 131.392 16.3783 132.65 15.7995 133.473C15.2207 134.296 14.316 134.707 13.0854 134.707C11.8704 134.707 10.9709 134.306 10.3869 133.504C9.80285 132.697 9.50041 131.493 9.47955 129.895V127.965C9.47955 126.293 9.76895 125.051 10.3478 124.238C10.9266 123.426 11.8339 123.02 13.0697 123.02C14.2951 123.02 15.1972 123.413 15.776 124.199C16.3548 124.98 16.6521 126.189 16.6677 127.824V129.699ZM15.2207 127.723C15.2207 126.499 15.0486 125.608 14.7045 125.051C14.3603 124.488 13.8154 124.207 13.0697 124.207C12.3293 124.207 11.7896 124.486 11.4506 125.043C11.1117 125.6 10.937 126.457 10.9266 127.613V129.926C10.9266 131.155 11.1039 132.064 11.4584 132.652C11.8182 133.236 12.3605 133.527 13.0854 133.527C13.7997 133.527 14.329 133.251 14.6732 132.699C15.0225 132.147 15.205 131.277 15.2207 130.09V127.723Z" fill="black"/>
<path d="M18.3963 125.363C18.3963 124.681 18.6127 124.118 19.0455 123.676C19.4835 123.233 20.0441 123.012 20.7272 123.012C21.4207 123.012 21.9813 123.236 22.4088 123.684C22.8416 124.126 23.058 124.702 23.058 125.41V125.965C23.058 126.652 22.839 127.215 22.401 127.652C21.9682 128.085 21.4155 128.301 20.7428 128.301C20.0649 128.301 19.5044 128.085 19.0611 127.652C18.6179 127.215 18.3963 126.634 18.3963 125.91V125.363ZM19.4757 125.965C19.4757 126.371 19.5904 126.707 19.8199 126.973C20.0493 127.233 20.3569 127.363 20.7428 127.363C21.113 127.363 21.4103 127.236 21.6345 126.98C21.8639 126.725 21.9786 126.376 21.9786 125.934V125.363C21.9786 124.957 21.8665 124.621 21.6423 124.355C21.4181 124.09 21.113 123.957 20.7272 123.957C20.3413 123.957 20.0363 124.09 19.812 124.355C19.5878 124.621 19.4757 124.967 19.4757 125.395V125.965ZM23.9419 131.762C23.9419 131.079 24.1583 130.52 24.5911 130.082C25.0291 129.639 25.5897 129.418 26.2728 129.418C26.9559 129.418 27.5164 129.637 27.9544 130.074C28.3925 130.512 28.6115 131.092 28.6115 131.816V132.371C28.6115 133.053 28.3925 133.616 27.9544 134.059C27.5216 134.496 26.9663 134.715 26.2884 134.715C25.6105 134.715 25.05 134.499 24.6067 134.066C24.1635 133.629 23.9419 133.048 23.9419 132.324V131.762ZM25.0213 132.371C25.0213 132.783 25.136 133.121 25.3655 133.387C25.5949 133.647 25.9025 133.777 26.2884 133.777C26.6639 133.777 26.9637 133.65 27.1879 133.395C27.4121 133.134 27.5242 132.783 27.5242 132.34V131.762C27.5242 131.35 27.4095 131.014 27.1801 130.754C26.9559 130.493 26.6534 130.363 26.2728 130.363C25.9025 130.363 25.6001 130.493 25.3655 130.754C25.136 131.009 25.0213 131.355 25.0213 131.793V132.371ZM21.0713 133.691L20.25 133.176L25.8113 124.285L26.6326 124.801L21.0713 133.691Z" fill="black"/>
<path d="M2.63554 68.2988H3.72276C4.40585 68.2884 4.94295 68.1087 5.33403 67.7598C5.72512 67.4108 5.92066 66.9395 5.92066 66.3457C5.92066 65.0124 5.25581 64.3457 3.92612 64.3457C3.30039 64.3457 2.7998 64.5254 2.42435 64.8848C2.05413 65.2389 1.86901 65.7103 1.86901 66.2988H0.421995C0.421995 65.3978 0.750507 64.6504 1.40753 64.0566C2.06977 63.4577 2.9093 63.1582 3.92612 63.1582C5.00031 63.1582 5.84244 63.4421 6.45254 64.0098C7.06263 64.5775 7.36768 65.3665 7.36768 66.377C7.36768 66.8717 7.20603 67.3509 6.88273 67.8145C6.56465 68.278 6.12924 68.6243 5.5765 68.8535C6.20224 69.0514 6.68458 69.3796 7.02352 69.8379C7.36768 70.2962 7.53975 70.8561 7.53975 71.5176C7.53975 72.5384 7.20603 73.3483 6.53858 73.9473C5.87112 74.5462 5.00291 74.8457 3.93394 74.8457C2.86498 74.8457 1.99416 74.5566 1.32149 73.9785C0.654039 73.4004 0.320312 72.6374 0.320312 71.6895H1.77515C1.77515 72.2884 1.97069 72.7676 2.36178 73.127C2.75287 73.4863 3.27692 73.666 3.93394 73.666C4.63268 73.666 5.16717 73.4837 5.5374 73.1191C5.90762 72.7546 6.09274 72.2311 6.09274 71.5488C6.09274 70.8874 5.88937 70.3796 5.48264 70.0254C5.07591 69.6712 4.48929 69.4889 3.72276 69.4785H2.63554V68.2988Z" fill="black"/>
<path d="M16.6677 69.8379C16.6677 71.5306 16.3783 72.7884 15.7995 73.6113C15.2207 74.4342 14.316 74.8457 13.0854 74.8457C11.8704 74.8457 10.9709 74.4447 10.3869 73.6426C9.80284 72.8353 9.5004 71.6322 9.47954 70.0332V68.1035C9.47954 66.4316 9.76894 65.1895 10.3478 64.377C10.9266 63.5645 11.8339 63.1582 13.0697 63.1582C14.2951 63.1582 15.1972 63.5514 15.776 64.3379C16.3548 65.1191 16.6521 66.3275 16.6677 67.9629V69.8379ZM15.2207 67.8613C15.2207 66.6374 15.0486 65.7467 14.7044 65.1895C14.3603 64.627 13.8154 64.3457 13.0697 64.3457C12.3293 64.3457 11.7896 64.6243 11.4506 65.1816C11.1117 65.7389 10.937 66.5957 10.9266 67.752V70.0645C10.9266 71.2936 11.1038 72.2025 11.4584 72.791C11.8182 73.3743 12.3605 73.666 13.0854 73.666C13.7997 73.666 14.329 73.39 14.6732 72.8379C15.0225 72.2858 15.205 71.416 15.2207 70.2285V67.8613Z" fill="black"/>
<path d="M18.3963 65.502C18.3963 64.8197 18.6127 64.2572 19.0455 63.8145C19.4835 63.3717 20.0441 63.1504 20.7272 63.1504C21.4207 63.1504 21.9812 63.3743 22.4088 63.8223C22.8416 64.265 23.058 64.8405 23.058 65.5488V66.1035C23.058 66.791 22.839 67.3535 22.401 67.791C21.9682 68.2233 21.4155 68.4395 20.7428 68.4395C20.0649 68.4395 19.5044 68.2233 19.0611 67.791C18.6179 67.3535 18.3963 66.7728 18.3963 66.0488V65.502ZM19.4757 66.1035C19.4757 66.5098 19.5904 66.8457 19.8198 67.1113C20.0493 67.3717 20.3569 67.502 20.7428 67.502C21.113 67.502 21.4103 67.3743 21.6345 67.1191C21.8639 66.8639 21.9786 66.515 21.9786 66.0723V65.502C21.9786 65.0957 21.8665 64.7598 21.6423 64.4941C21.4181 64.2285 21.113 64.0957 20.7272 64.0957C20.3413 64.0957 20.0362 64.2285 19.812 64.4941C19.5878 64.7598 19.4757 65.1061 19.4757 65.5332V66.1035ZM23.9419 71.9004C23.9419 71.2181 24.1583 70.6582 24.5911 70.2207C25.0291 69.778 25.5897 69.5566 26.2728 69.5566C26.9559 69.5566 27.5164 69.7754 27.9544 70.2129C28.3924 70.6504 28.6115 71.2311 28.6115 71.9551V72.5098C28.6115 73.1921 28.3924 73.7546 27.9544 74.1973C27.5216 74.6348 26.9663 74.8535 26.2884 74.8535C25.6105 74.8535 25.05 74.6374 24.6067 74.2051C24.1635 73.7676 23.9419 73.1868 23.9419 72.4629V71.9004ZM25.0213 72.5098C25.0213 72.9212 25.136 73.2598 25.3654 73.5254C25.5949 73.7858 25.9025 73.916 26.2884 73.916C26.6638 73.916 26.9637 73.7884 27.1879 73.5332C27.4121 73.2728 27.5242 72.9212 27.5242 72.4785V71.9004C27.5242 71.4889 27.4095 71.153 27.1801 70.8926C26.9559 70.6322 26.6534 70.502 26.2728 70.502C25.9025 70.502 25.6001 70.6322 25.3654 70.8926C25.136 71.1478 25.0213 71.4941 25.0213 71.9316V72.5098ZM21.0713 73.8301L20.25 73.3145L25.8113 64.4238L26.6326 64.9395L21.0713 73.8301Z" fill="black"/>
<path d="M6.64064 9.07617H8.22062V10.2559H6.64064V12.8965H5.1858V10.2559H0V9.4043L5.09976 1.52148H6.64064V9.07617ZM1.64256 9.07617H5.1858V3.49805L5.01372 3.81055L1.64256 9.07617Z" fill="black"/>
<path d="M16.6681 8.04492C16.6681 9.73763 16.3787 10.9954 15.7999 11.8184C15.2211 12.6413 14.3163 13.0527 13.0857 13.0527C11.8708 13.0527 10.9713 12.6517 10.3872 11.8496C9.80322 11.0423 9.50078 9.83919 9.47992 8.24023V6.31055C9.47992 4.63867 9.76932 3.39648 10.3481 2.58398C10.9269 1.77148 11.8343 1.36523 13.0701 1.36523C14.2955 1.36523 15.1976 1.75846 15.7764 2.54492C16.3552 3.32617 16.6524 4.53451 16.6681 6.16992V8.04492ZM15.2211 6.06836C15.2211 4.8444 15.049 3.95378 14.7048 3.39648C14.3607 2.83398 13.8158 2.55273 13.0701 2.55273C12.3296 2.55273 11.7899 2.83138 11.451 3.38867C11.112 3.94596 10.9374 4.80273 10.9269 5.95898V8.27148C10.9269 9.50065 11.1042 10.4095 11.4588 10.998C11.8186 11.5814 12.3609 11.873 13.0857 11.873C13.8001 11.873 14.3294 11.597 14.6735 11.0449C15.0229 10.4928 15.2054 9.62305 15.2211 8.43555V6.06836Z" fill="black"/>
<path d="M18.3967 3.70898C18.3967 3.02669 18.6131 2.46419 19.0459 2.02148C19.4839 1.57878 20.0444 1.35742 20.7275 1.35742C21.4211 1.35742 21.9816 1.58138 22.4092 2.0293C22.842 2.47201 23.0584 3.04753 23.0584 3.75586V4.31055C23.0584 4.99805 22.8394 5.56055 22.4014 5.99805C21.9686 6.43034 21.4159 6.64648 20.7432 6.64648C20.0653 6.64648 19.5047 6.43034 19.0615 5.99805C18.6183 5.56055 18.3967 4.97982 18.3967 4.25586V3.70898ZM19.4761 4.31055C19.4761 4.7168 19.5908 5.05273 19.8202 5.31836C20.0497 5.57878 20.3573 5.70898 20.7432 5.70898C21.1134 5.70898 21.4106 5.58138 21.6349 5.32617C21.8643 5.07096 21.979 4.72201 21.979 4.2793V3.70898C21.979 3.30273 21.8669 2.9668 21.6427 2.70117C21.4185 2.43555 21.1134 2.30273 20.7275 2.30273C20.3417 2.30273 20.0366 2.43555 19.8124 2.70117C19.5882 2.9668 19.4761 3.31315 19.4761 3.74023V4.31055ZM23.9423 10.1074C23.9423 9.42513 24.1587 8.86523 24.5915 8.42773C25.0295 7.98503 25.59 7.76367 26.2731 7.76367C26.9562 7.76367 27.5168 7.98242 27.9548 8.41992C28.3928 8.85742 28.6118 9.43815 28.6118 10.1621V10.7168C28.6118 11.3991 28.3928 11.9616 27.9548 12.4043C27.522 12.8418 26.9667 13.0605 26.2888 13.0605C25.6109 13.0605 25.0503 12.8444 24.6071 12.4121C24.1639 11.9746 23.9423 11.3939 23.9423 10.6699V10.1074ZM25.0217 10.7168C25.0217 11.1283 25.1364 11.4668 25.3658 11.7324C25.5953 11.9928 25.9029 12.123 26.2888 12.123C26.6642 12.123 26.9641 11.9954 27.1883 11.7402C27.4125 11.4798 27.5246 11.1283 27.5246 10.6855V10.1074C27.5246 9.69596 27.4099 9.36003 27.1805 9.09961C26.9562 8.83919 26.6538 8.70898 26.2731 8.70898C25.9029 8.70898 25.6005 8.83919 25.3658 9.09961C25.1364 9.35482 25.0217 9.70117 25.0217 10.1387V10.7168ZM21.0717 12.0371L20.2504 11.5215L25.8117 2.63086L26.6329 3.14648L21.0717 12.0371Z" fill="black"/>
<defs>
<linearGradient id="paint0_linear" x1="350.182" y1="158.75" x2="51.2017" y2="147.608" gradientUnits="userSpaceOnUse">
<stop stop-color="#A62E41"/>
<stop offset="1" stop-color="#E13152"/>
</linearGradient>
</defs>
</svg>
