<svg width="310" height="150" fill="none" xmlns="http://www.w3.org/2000/svg"><rect width="310" height="150" rx="10" fill="#fff"/><path opacity=".2" stroke="#0A3D76" d="M38 38.5h240m-240 31h240m-240 31h240"/><path stroke="#0A3D76" d="M38 131.5h240m-243-93h2m-2 31h2m-2 31h2m.5 31.5V6"/><path d="M26.963 95.463v.92h-.2c-.843.015-1.515.265-2.015.75-.5.484-.789 1.166-.867 2.045.45-.516 1.062-.774 1.84-.774.742 0 1.334.262 1.775.785.445.524.668 1.2.668 2.028 0 .879-.24 1.582-.72 2.109-.477.528-1.118.791-1.922.791-.817 0-1.479-.312-1.987-.937-.508-.629-.762-1.438-.762-2.426v-.416c0-1.57.334-2.77 1.002-3.598.672-.832 1.67-1.258 2.995-1.277h.193zm-1.424 3.844a1.73 1.73 0 00-1.025.334c-.313.222-.53.502-.65.838v.398c0 .703.157 1.269.474 1.699.316.43.71.645 1.183.645.489 0 .872-.18 1.149-.539.281-.36.422-.83.422-1.412 0-.586-.143-1.059-.428-1.418a1.351 1.351 0 00-1.125-.545zm3.52 38.054c0 1.27-.217 2.213-.65 2.83-.434.618-1.112.926-2.034.926-.91 0-1.584-.301-2.021-.902-.438-.606-.665-1.508-.68-2.707v-1.447c0-1.254.217-2.186.65-2.795.434-.61 1.113-.914 2.04-.914.917 0 1.593.294 2.027.884.433.586.656 1.493.668 2.719v1.406zm-1.084-1.482c0-.918-.13-1.586-.387-2.004-.258-.422-.666-.633-1.225-.633-.554 0-.959.209-1.213.627-.253.418-.384 1.061-.392 1.928v1.734c0 .922.133 1.604.398 2.045.27.438.676.656 1.219.656.535 0 .932-.207 1.19-.621.261-.414.398-1.066.41-1.957v-1.775zM22.271 72h-1.09v-7.225l-2.185.803v-.984l3.106-1.166h.17V72zm8.766 0h-5.59v-.78l2.953-3.28c.438-.497.739-.899.903-1.208.168-.312.252-.634.252-.966 0-.446-.135-.81-.405-1.096-.27-.285-.628-.428-1.078-.428-.539 0-.959.154-1.26.463-.296.305-.445.73-.445 1.277h-1.084c0-.785.252-1.42.756-1.904.508-.484 1.186-.726 2.033-.726.793 0 1.42.209 1.881.627.461.414.692.966.692 1.658 0 .84-.536 1.84-1.606 3l-2.285 2.478h4.283V72zm-8.766-29h-1.09v-7.225l-2.185.803v-.984l3.106-1.166h.17V43zm8.35-6.305c0 .426-.113.805-.34 1.137a2.269 2.269 0 01-.908.78c.445.19.797.47 1.055.837.261.367.392.783.392 1.248 0 .738-.25 1.326-.75 1.764-.496.437-1.15.656-1.963.656-.82 0-1.478-.219-1.974-.656-.492-.441-.738-1.03-.738-1.764 0-.46.125-.877.375-1.248a2.37 2.37 0 011.048-.843 2.236 2.236 0 01-.896-.78 2.01 2.01 0 01-.328-1.13c0-.72.23-1.29.691-1.712.461-.422 1.069-.632 1.822-.632.75 0 1.356.21 1.817.632.465.422.697.993.697 1.711zm-.885 3.979c0-.477-.152-.865-.457-1.166-.3-.301-.695-.451-1.183-.451-.489 0-.881.148-1.178.445-.293.297-.44.688-.44 1.172s.143.865.428 1.142c.29.278.69.416 1.201.416.508 0 .907-.138 1.196-.416.289-.28.433-.662.433-1.142zm-1.629-5.432c-.425 0-.771.133-1.037.399-.261.261-.392.619-.392 1.072 0 .434.129.785.386 1.055.262.265.61.398 1.043.398.434 0 .78-.133 1.038-.398.261-.27.392-.621.392-1.055 0-.434-.135-.787-.404-1.06-.27-.274-.611-.41-1.026-.41z" fill="#0A3D76"/><path stroke="#0A3D76" d="M82.5 134v-2"/><path d="M83.272 145h-1.09v-7.225l-2.186.803v-.984l3.106-1.166h.17V145z" fill="#0A3D76"/><path stroke="#0A3D76" d="M133.5 134v-2"/><path d="M137.299 145h-5.59v-.779l2.953-3.282c.438-.496.738-.898.902-1.207.168-.312.252-.634.252-.966 0-.446-.134-.811-.404-1.096-.269-.285-.629-.428-1.078-.428-.539 0-.959.154-1.26.463-.297.305-.445.731-.445 1.277h-1.084c0-.785.252-1.42.756-1.904.508-.484 1.185-.726 2.033-.726.793 0 1.42.209 1.881.627.461.414.691.966.691 1.658 0 .84-.535 1.84-1.605 3l-2.285 2.478h4.283V145z" fill="#0A3D76"/><path stroke="#0A3D76" d="M186.5 134v-2"/><path d="M185.285 140.207h.815c.511-.008.914-.143 1.207-.404.293-.262.439-.615.439-1.061 0-1-.498-1.5-1.494-1.5-.469 0-.844.135-1.125.404-.277.266-.416.62-.416 1.061h-1.084c0-.676.246-1.236.738-1.682.496-.449 1.125-.673 1.887-.673.805 0 1.436.212 1.893.638.457.426.685 1.018.685 1.776 0 .371-.121.73-.363 1.078a2.162 2.162 0 01-.979.779c.469.148.83.395 1.084.738.258.344.387.764.387 1.26 0 .766-.25 1.373-.75 1.822-.5.45-1.15.674-1.951.674-.801 0-1.453-.217-1.957-.65-.5-.434-.75-1.006-.75-1.717h1.09c0 .449.146.809.439 1.078.293.27.686.404 1.178.404.523 0 .924-.136 1.201-.41.277-.273.416-.666.416-1.177 0-.497-.152-.877-.457-1.143-.305-.266-.744-.402-1.318-.41h-.815v-.885z" fill="#0A3D76"/><path stroke="#0A3D76" d="M239.5 134v-2"/><path d="M240.285 142.135h1.184v.885h-1.184V145h-1.09v-1.98h-3.884v-.639l3.82-5.912h1.154v5.666zm-3.744 0h2.654v-4.184l-.129.235-2.525 3.949z" fill="#0A3D76"/><path d="M38.5 130.5l44-30L134 84l52.5-4.5 29-22.5 24-19" stroke="url(#paint0_linear)" stroke-width="2"/><circle cx="239.5" cy="37.5" r="2.5" fill="#A62E41"/><circle cx="186.5" cy="79.5" r="2.5" fill="#A62E41"/><circle cx="134.5" cy="83.5" r="2.5" fill="#A62E41"/><circle cx="38.5" cy="130.5" r="2.5" fill="#A62E41"/><circle cx="82.5" cy="100.5" r="2.5" fill="#A62E41"/><path d="M35 8.5L37.5 5 40 8.5M275 129l3.5 2.5-3.5 2.5" stroke="#0A3D76" stroke-linecap="round"/><defs><linearGradient id="paint0_linear" x1="233.304" y1="84.25" x2="44.771" y2="75.454" gradientUnits="userSpaceOnUse"><stop stop-color="#A62E41"/><stop offset="1" stop-color="#E13152"/></linearGradient></defs></svg>