<svg width="310" height="150" fill="none" xmlns="http://www.w3.org/2000/svg"><rect width="310" height="150" rx="10" fill="#fff"/><path opacity=".2" stroke="#0A3D76" d="M38 26.5h240m-240 26h240m-240 27h240m-240 26h240"/><path stroke="#0A3D76" d="M38 131.5h240M35 26.5h2m-2 27h2m-2 26h2m-2 26h2m.5 26.5V6"/><path d="M16.299 110h-5.59v-.779l2.953-3.282c.438-.496.738-.898.902-1.207.168-.312.252-.634.252-.966 0-.446-.134-.811-.404-1.096-.27-.285-.629-.428-1.078-.428-.54 0-.959.154-1.26.463-.297.305-.445.731-.445 1.277h-1.084c0-.785.252-1.42.756-1.904.508-.484 1.185-.726 2.033-.726.793 0 1.42.209 1.88.627.462.414.692.966.692 1.658 0 .84-.535 1.84-1.605 3l-2.285 2.478h4.283V110zm1.646-4.277l.434-4.254h4.371v1.002h-3.451l-.258 2.326a2.754 2.754 0 011.424-.369c.777 0 1.394.258 1.851.773.457.512.686 1.205.686 2.08 0 .879-.238 1.573-.715 2.08-.473.504-1.135.756-1.986.756-.754 0-1.37-.209-1.846-.627-.476-.418-.748-.996-.814-1.734h1.025c.066.488.24.857.521 1.107.282.246.653.369 1.114.369.504 0 .898-.171 1.183-.515.29-.344.434-.819.434-1.424 0-.57-.156-1.027-.469-1.371-.308-.348-.72-.522-1.236-.522-.473 0-.844.104-1.113.311l-.288.234-.867-.222zm11.59.638c0 1.27-.217 2.213-.65 2.83-.434.618-1.112.926-2.033.926-.91 0-1.584-.301-2.022-.902-.437-.606-.664-1.508-.68-2.707v-1.447c0-1.254.217-2.186.65-2.795.434-.61 1.114-.914 2.04-.914.918 0 1.594.294 2.027.884.434.586.656 1.493.668 2.719v1.406zm-1.084-1.482c0-.918-.129-1.586-.387-2.004-.257-.422-.666-.633-1.224-.633-.555 0-.96.209-1.213.627-.254.418-.385 1.061-.393 1.928v1.734c0 .922.133 1.604.399 2.045.27.438.676.656 1.219.656.535 0 .931-.207 1.189-.621.262-.414.398-1.066.41-1.957v-1.775zm4.608 32.482c0 1.27-.217 2.213-.65 2.83-.434.618-1.112.926-2.034.926-.91 0-1.584-.301-2.021-.902-.438-.606-.665-1.508-.68-2.707v-1.447c0-1.254.217-2.186.65-2.795.434-.61 1.113-.914 2.04-.914.917 0 1.593.294 2.027.884.433.586.656 1.493.668 2.719v1.406zm-1.084-1.482c0-.918-.13-1.586-.387-2.004-.258-.422-.666-.633-1.225-.633-.554 0-.959.209-1.213.627-.253.418-.384 1.061-.392 1.928v1.734c0 .922.133 1.604.398 2.045.27.438.676.656 1.219.656.535 0 .932-.207 1.19-.621.261-.414.398-1.066.41-1.957v-1.775zM11.207 79.723l.434-4.254h4.37v1.002h-3.45l-.258 2.326c.418-.246.892-.37 1.424-.37.777 0 1.394.258 1.851.774.457.512.686 1.205.686 2.08 0 .88-.239 1.572-.715 2.08-.473.504-1.135.756-1.986.756-.754 0-1.37-.209-1.846-.627-.477-.418-.748-.996-.815-1.734h1.026c.066.488.24.857.521 1.107.281.246.653.37 1.114.37.503 0 .898-.172 1.183-.516.29-.344.434-.819.434-1.424 0-.57-.157-1.027-.47-1.371-.308-.348-.72-.522-1.235-.522-.473 0-.844.104-1.114.31l-.287.235-.867-.222zm11.59.638c0 1.27-.217 2.213-.65 2.83-.434.618-1.112.926-2.034.926-.91 0-1.584-.3-2.021-.902-.438-.606-.664-1.508-.68-2.707V79.06c0-1.254.217-2.186.65-2.795.434-.61 1.114-.914 2.04-.914.918 0 1.593.294 2.027.884.433.586.656 1.492.668 2.72v1.405zm-1.084-1.482c0-.918-.129-1.586-.387-2.004-.258-.422-.666-.633-1.224-.633-.555 0-.96.21-1.213.627-.254.418-.385 1.06-.393 1.928v1.734c0 .922.133 1.604.399 2.045.27.438.675.656 1.218.656.535 0 .932-.207 1.19-.62.261-.415.398-1.067.41-1.958V78.88zm7.822 1.482c0 1.27-.217 2.213-.65 2.83-.434.618-1.112.926-2.033.926-.91 0-1.584-.3-2.022-.902-.437-.606-.664-1.508-.68-2.707V79.06c0-1.254.217-2.186.65-2.795.434-.61 1.114-.914 2.04-.914.918 0 1.594.294 2.027.884.434.586.656 1.492.668 2.72v1.405zm-1.084-1.482c0-.918-.129-1.586-.387-2.004-.257-.422-.666-.633-1.224-.633-.555 0-.96.21-1.213.627-.254.418-.385 1.06-.393 1.928v1.734c0 .922.133 1.604.399 2.045.27.438.676.656 1.219.656.535 0 .931-.207 1.189-.62.262-.415.398-1.067.41-1.958V78.88zM16.217 50.078L12.684 58h-1.137l3.521-7.64h-4.617v-.891h5.766v.61zm1.728 3.645l.434-4.254h4.371v1.002h-3.451l-.258 2.326c.418-.246.893-.37 1.424-.37.777 0 1.394.258 1.851.774.457.512.686 1.205.686 2.08 0 .88-.238 1.572-.715 2.08-.473.504-1.135.756-1.986.756-.754 0-1.37-.209-1.846-.627-.476-.418-.748-.996-.814-1.734h1.025c.066.488.24.857.521 1.107.282.246.653.37 1.114.37.504 0 .898-.172 1.183-.516.29-.344.434-.819.434-1.424 0-.57-.156-1.027-.469-1.371-.308-.348-.72-.522-1.236-.522-.473 0-.844.104-1.113.31l-.288.235-.867-.222zm11.59.638c0 1.27-.217 2.213-.65 2.83-.434.618-1.112.926-2.033.926-.91 0-1.584-.3-2.022-.902-.437-.606-.664-1.508-.68-2.707V53.06c0-1.253.217-2.185.65-2.794.434-.61 1.114-.914 2.04-.914.918 0 1.594.295 2.027.884.434.586.656 1.492.668 2.72v1.405zm-1.084-1.482c0-.918-.129-1.586-.387-2.004-.257-.422-.666-.633-1.224-.633-.555 0-.96.21-1.213.627-.254.418-.385 1.06-.393 1.928v1.734c0 .922.133 1.604.399 2.045.27.438.676.656 1.219.656.535 0 .931-.207 1.189-.62.262-.415.398-1.067.41-1.958V52.88zM11.271 30h-1.09v-7.225l-2.185.803v-.984l3.106-1.166h.17V30zm8.526-3.639c0 1.27-.217 2.213-.65 2.83-.434.618-1.112.926-2.034.926-.91 0-1.584-.3-2.021-.902-.438-.606-.664-1.508-.68-2.707V25.06c0-1.254.217-2.186.65-2.795.434-.61 1.114-.914 2.04-.914.918 0 1.593.294 2.027.884.433.586.656 1.492.668 2.72v1.405zm-1.084-1.482c0-.918-.129-1.586-.387-2.004-.258-.422-.666-.633-1.224-.633-.555 0-.96.21-1.213.627-.254.418-.385 1.06-.393 1.928v1.734c0 .922.133 1.604.399 2.045.27.438.675.656 1.218.656.535 0 .932-.207 1.19-.62.261-.415.398-1.067.41-1.958V24.88zm7.822 1.482c0 1.27-.217 2.213-.65 2.83-.434.618-1.112.926-2.033.926-.91 0-1.584-.3-2.022-.902-.437-.606-.664-1.508-.68-2.707V25.06c0-1.254.217-2.186.65-2.795.434-.61 1.114-.914 2.04-.914.918 0 1.594.294 2.027.884.434.586.656 1.492.668 2.72v1.405zm-1.084-1.482c0-.918-.129-1.586-.387-2.004-.257-.422-.666-.633-1.224-.633-.555 0-.96.21-1.213.627-.254.418-.385 1.06-.393 1.928v1.734c0 .922.133 1.604.399 2.045.27.438.676.656 1.219.656.535 0 .931-.207 1.189-.62.262-.415.398-1.067.41-1.958V24.88zm7.822 1.482c0 1.27-.216 2.213-.65 2.83-.433.618-1.111.926-2.033.926-.91 0-1.584-.3-2.022-.902-.437-.606-.664-1.508-.68-2.707V25.06c0-1.254.217-2.186.651-2.795.434-.61 1.113-.914 2.04-.914.917 0 1.593.294 2.026.884.434.586.657 1.492.668 2.72v1.405zM32.19 24.88c0-.918-.129-1.586-.386-2.004-.258-.422-.666-.633-1.225-.633-.555 0-.959.21-1.213.627-.254.418-.384 1.06-.392 1.928v1.734c0 .922.133 1.604.398 2.045.27.438.676.656 1.219.656.535 0 .931-.207 1.19-.62.261-.415.398-1.067.41-1.958V24.88z" fill="#0A3D76"/><path stroke="#0A3D76" d="M82.5 134v-2"/><path d="M83.272 145h-1.09v-7.225l-2.186.803v-.984l3.106-1.166h.17V145z" fill="#0A3D76"/><path stroke="#0A3D76" d="M133.5 134v-2"/><path d="M137.299 145h-5.59v-.779l2.953-3.282c.438-.496.738-.898.902-1.207.168-.312.252-.634.252-.966 0-.446-.134-.811-.404-1.096-.269-.285-.629-.428-1.078-.428-.539 0-.959.154-1.26.463-.297.305-.445.731-.445 1.277h-1.084c0-.785.252-1.42.756-1.904.508-.484 1.185-.726 2.033-.726.793 0 1.42.209 1.881.627.461.414.691.966.691 1.658 0 .84-.535 1.84-1.605 3l-2.285 2.478h4.283V145z" fill="#0A3D76"/><path stroke="#0A3D76" d="M186.5 134v-2"/><path d="M185.285 140.207h.815c.511-.008.914-.143 1.207-.404.293-.262.439-.615.439-1.061 0-1-.498-1.5-1.494-1.5-.469 0-.844.135-1.125.404-.277.266-.416.62-.416 1.061h-1.084c0-.676.246-1.236.738-1.682.496-.449 1.125-.673 1.887-.673.805 0 1.436.212 1.893.638.457.426.685 1.018.685 1.776 0 .371-.121.73-.363 1.078a2.162 2.162 0 01-.979.779c.469.148.83.395 1.084.738.258.344.387.764.387 1.26 0 .766-.25 1.373-.75 1.822-.5.45-1.15.674-1.951.674-.801 0-1.453-.217-1.957-.65-.5-.434-.75-1.006-.75-1.717h1.09c0 .449.146.809.439 1.078.293.27.686.404 1.178.404.523 0 .924-.136 1.201-.41.277-.273.416-.666.416-1.177 0-.497-.152-.877-.457-1.143-.305-.266-.744-.402-1.318-.41h-.815v-.885z" fill="#0A3D76"/><path stroke="#0A3D76" d="M239.5 134v-2"/><path d="M240.285 142.135h1.184v.885h-1.184V145h-1.09v-1.98h-3.884v-.639l3.82-5.912h1.154v5.666zm-3.744 0h2.654v-4.184l-.129.235-2.525 3.949z" fill="#0A3D76"/><path d="M37.5 118.5l45-9.5L134 84l52.5-4.5 27.5-27L239.5 26" stroke="url(#paint0_linear)" stroke-width="2"/><circle cx="239.5" cy="26.5" r="2.5" fill="#A62E41"/><circle cx="186.5" cy="79.5" r="2.5" fill="#A62E41"/><circle cx="134.5" cy="83.5" r="2.5" fill="#A62E41"/><circle cx="37.5" cy="118.5" r="2.5" fill="#A62E41"/><circle cx="82.5" cy="108.5" r="2.5" fill="#A62E41"/><path d="M35 8.5L37.5 5 40 8.5M275 129l3.5 2.5-3.5 2.5" stroke="#0A3D76" stroke-linecap="round"/><defs><linearGradient id="paint0_linear" x1="233.273" y1="72.25" x2="43.806" y2="63.366" gradientUnits="userSpaceOnUse"><stop stop-color="#A62E41"/><stop offset="1" stop-color="#E13152"/></linearGradient></defs></svg>