<svg width="30" height="30" viewBox="0 0 30 30" fill="none" xmlns="http://www.w3.org/2000/svg">
<path d="M7.5 21L4 17L6.5 14H8.25H10L14.5 11L15.5 12.5L11 15.5V18H14.5V22M7.5 21V18.5L6 17L7.5 15.5V21ZM7.5 21V25.5H9.5V20H12.5V22M12.5 22H14.5M12.5 22H11.5V25.5H18V22H14.5" stroke="#EB5757" stroke-linejoin="round"/>
<circle cx="9" cy="12" r="2" stroke="#EB5757"/>
<path d="M16.9997 10.4095L18.4524 9.34202" stroke="#EB5757" stroke-linecap="round"/>
<path d="M13.9997 15.4095L15.4524 14.342" stroke="#EB5757" stroke-linecap="round"/>
<path d="M16.9998 13.4095L20.4998 11" stroke="#EB5757" stroke-linecap="round"/>
<path d="M20 7C22.1824 6.49644 22.5638 5.6575 23 3.99999C23.3972 6.01764 24.0864 6.6402 26 7C23.6923 7.60614 23.3721 8.43056 23 10C22.6663 8.06121 21.9891 7.42414 20 7Z" stroke="#EB5757" stroke-linejoin="round"/>
</svg>
