<svg width="41" height="31" viewBox="0 0 41 31" fill="none" xmlns="http://www.w3.org/2000/svg">
<path d="M19.1345 16.264C19.1345 18.671 17.1832 20.6223 14.7762 20.6223C12.3692 20.6223 10.418 18.671 10.418 16.264C10.418 13.857 12.3692 11.9057 14.7762 11.9057C17.1832 11.9057 19.1345 13.857 19.1345 16.264Z" fill="#C43B55"/>
<path d="M28.6406 16.264C28.6406 23.9226 22.4321 30.1312 14.7734 30.1312C7.1148 30.1312 0.90625 23.9226 0.90625 16.264C0.90625 8.60534 7.1148 2.39679 14.7734 2.39679C22.4321 2.39679 28.6406 8.60534 28.6406 16.264ZM4.0957 16.264C4.0957 22.1611 8.87629 26.9417 14.7734 26.9417C20.6706 26.9417 25.4512 22.1611 25.4512 16.264C25.4512 10.3668 20.6706 5.58624 14.7734 5.58624C8.87629 5.58624 4.0957 10.3668 4.0957 16.264Z" fill="#C43B55"/>
<path fill-rule="evenodd" clip-rule="evenodd" d="M14.774 2.99108C7.44359 2.99108 1.50112 8.93355 1.50112 16.264C1.50112 23.5944 7.44359 29.5368 14.774 29.5368C22.1044 29.5368 28.0469 23.5944 28.0469 16.264C28.0469 11.1207 25.1216 6.65961 20.8412 4.45568C20.5494 4.30542 20.4347 3.94706 20.5849 3.65524C20.7352 3.36342 21.0935 3.24866 21.3853 3.39892C26.0459 5.79862 29.2355 10.6583 29.2355 16.264C29.2355 24.2508 22.7609 30.7255 14.774 30.7255C6.78713 30.7255 0.3125 24.2508 0.3125 16.264C0.3125 8.27709 6.78713 1.80246 14.774 1.80246C15.1022 1.80246 15.3683 2.06854 15.3683 2.39677C15.3683 2.725 15.1022 2.99108 14.774 2.99108Z" fill="black"/>
<path fill-rule="evenodd" clip-rule="evenodd" d="M14.7762 26.3672C9.19637 26.3672 4.67299 21.8438 4.67299 16.264C4.67299 10.6841 9.19637 6.16074 14.7762 6.16074C20.3561 6.16074 24.8795 10.6841 24.8795 16.264C24.8795 20.1788 22.653 23.5747 19.3945 25.2524C19.1027 25.4027 18.9879 25.7611 19.1382 26.0529C19.2884 26.3447 19.6468 26.4595 19.9386 26.3092C23.5773 24.4356 26.0681 20.6412 26.0681 16.264C26.0681 10.0277 21.0126 4.97212 14.7762 4.97212C8.53991 4.97212 3.48438 10.0277 3.48438 16.264C3.48438 22.5003 8.53991 27.5558 14.7762 27.5558C15.1045 27.5558 15.3705 27.2898 15.3705 26.9615C15.3705 26.6333 15.1045 26.3672 14.7762 26.3672Z" fill="black"/>
<path fill-rule="evenodd" clip-rule="evenodd" d="M8.13159 14.4849C9.11422 10.8177 12.8836 8.64146 16.5508 9.62408C20.218 10.6067 22.3943 14.3761 21.4117 18.0433C20.4291 21.7105 16.6597 23.8868 12.9925 22.9042C10.4198 22.2148 8.57985 20.1539 8.05089 17.7163C7.98128 17.3955 7.66483 17.1919 7.34406 17.2616C7.0233 17.3312 6.8197 17.6476 6.88931 17.9684C7.50897 20.8239 9.66555 23.2433 12.6848 24.0523C16.9861 25.2048 21.4073 22.6523 22.5598 18.351C23.7123 14.0497 21.1598 9.62849 16.8585 8.47596C12.5572 7.32344 8.13601 9.87601 6.98348 14.1773C6.89853 14.4943 7.08667 14.8202 7.40372 14.9052C7.72076 14.9901 8.04664 14.802 8.13159 14.4849Z" fill="black"/>
<path fill-rule="evenodd" clip-rule="evenodd" d="M18.4173 15.2875C17.878 13.2747 15.8091 12.0803 13.7964 12.6196C11.7836 13.1589 10.5892 15.2277 11.1285 17.2405C11.6678 19.2532 13.7367 20.4477 15.7494 19.9084C17.161 19.5301 18.1712 18.3994 18.4617 17.0608C18.5313 16.74 18.8477 16.5364 19.1685 16.606C19.4893 16.6756 19.6929 16.9921 19.6233 17.3129C19.2421 19.0694 17.9153 20.5586 16.057 21.0565C13.4102 21.7657 10.6896 20.1949 9.98039 17.5481C9.27117 14.9013 10.8419 12.1807 13.4887 11.4715C16.1356 10.7622 18.8562 12.333 19.5654 14.9798C19.6503 15.2969 19.4622 15.6227 19.1452 15.7077C18.8281 15.7926 18.5022 15.6045 18.4173 15.2875Z" fill="black"/>
<path fill-rule="evenodd" clip-rule="evenodd" d="M18.1194 16.4389C18.1445 16.1117 17.8995 15.8261 17.5722 15.801L16.7133 15.7353L33.2421 6.19242L35.6286 6.47995C35.9544 6.51921 36.2504 6.28687 36.2897 5.96099C36.329 5.63512 36.0966 5.33913 35.7707 5.29986L34.9577 5.20191L35.27 5.02158L37.6565 5.30911C37.9824 5.34837 38.2784 5.11603 38.3176 4.79016C38.3569 4.46428 38.1246 4.16829 37.7987 4.12903L36.9856 4.03107L37.298 3.85074L39.6845 4.13827C40.0103 4.17753 40.3063 3.94519 40.3456 3.61932C40.3849 3.29345 40.1525 2.99745 39.8266 2.95819L38.0302 2.74175L38.741 1.07775C38.8699 0.775904 38.7297 0.42669 38.4279 0.297757C38.126 0.168822 37.7768 0.308992 37.6479 0.610836L36.7037 2.82137L36.3913 3.0017L36.713 2.24859C36.842 1.94674 36.7018 1.59753 36.3999 1.4686C36.0981 1.33966 35.7489 1.47983 35.6199 1.78168L34.6757 3.99221L34.3634 4.17253L34.6851 3.41943C34.814 3.11758 34.6738 2.76837 34.372 2.63943C34.0701 2.5105 33.7209 2.65067 33.592 2.95251L32.6477 5.16305L16.1067 14.7131L16.4953 13.8939C16.636 13.5973 16.5097 13.2429 16.2132 13.1022C15.9166 12.9615 15.5622 13.0878 15.4215 13.3843L14.2153 15.9265C14.1314 16.1034 14.1399 16.3102 14.2382 16.4795C14.3364 16.6488 14.5117 16.7589 14.7069 16.7739L17.4815 16.9862C17.8088 17.0112 18.0944 16.7662 18.1194 16.4389Z" fill="black"/>
</svg>
