<svg width="24" height="24" viewBox="0 0 28 28" fill="none" xmlns="http://www.w3.org/2000/svg">
<g filter="url(#filter0_i)">
<path d="M0 4.66667C0 2.08934 2.08934 0 4.66667 0H23.3333C25.9107 0 28 2.08934 28 4.66667V23.3333C28 25.9107 25.9107 28 23.3333 28H4.66667C2.08934 28 0 25.9107 0 23.3333V4.66667Z" fill="#A62E41"/>
</g>
<path d="M18.3245 14C17.7334 14 16.5511 15.1822 14.1867 15.1822C11.8223 15.1822 10.64 14 10.0489 14C9.3987 14 8.8667 14.532 8.8667 15.1822C8.8667 15.7733 9.22137 16.0689 9.45781 16.1871C10.1671 16.6009 12.4134 17.5467 12.4134 17.5467L9.87159 20.7387C9.87159 20.7387 9.3987 21.2707 9.3987 21.6844C9.3987 22.3347 9.9307 22.8667 10.5809 22.8667C11.172 22.8667 11.4676 22.4529 11.4676 22.4529L14.1867 19.32L16.8467 22.4529C16.8467 22.4529 17.1423 22.8667 17.7334 22.8667C18.3836 22.8667 18.9156 22.3347 18.9156 21.6844C18.9156 21.3298 18.4427 20.7387 18.4427 20.7387L15.96 17.5467C15.96 17.5467 18.2063 16.6009 18.9156 16.1871C19.152 16.0098 19.5067 15.7733 19.5067 15.1822C19.5067 14.532 18.9747 14 18.3245 14Z" fill="white"/>
<path d="M14.1866 5.13336C11.8813 5.13336 10.0488 6.96581 10.0488 9.27114C10.0488 11.5765 11.8813 13.4089 14.1866 13.4089C16.4919 13.4089 18.3244 11.5765 18.3244 9.27114C18.3244 6.96581 16.4919 5.13336 14.1866 5.13336ZM14.1866 11.34C13.0635 11.34 12.1177 10.3943 12.1177 9.27114C12.1177 8.14803 13.0635 7.20225 14.1866 7.20225C15.3097 7.20225 16.2555 8.14803 16.2555 9.27114C16.2555 10.3943 15.3097 11.34 14.1866 11.34Z" fill="white"/>
<defs>
<filter id="filter0_i" x="-4" y="-4" width="32" height="32" filterUnits="userSpaceOnUse" color-interpolation-filters="sRGB">
<feFlood flood-opacity="0" result="BackgroundImageFix"/>
<feBlend mode="normal" in="SourceGraphic" in2="BackgroundImageFix" result="shape"/>
<feColorMatrix in="SourceAlpha" type="matrix" values="0 0 0 0 0 0 0 0 0 0 0 0 0 0 0 0 0 0 127 0" result="hardAlpha"/>
<feOffset dx="-4" dy="-4"/>
<feGaussianBlur stdDeviation="4"/>
<feComposite in2="hardAlpha" operator="arithmetic" k2="-1" k3="1"/>
<feColorMatrix type="matrix" values="0 0 0 0 0 0 0 0 0 0 0 0 0 0 0 0 0 0 0.15 0"/>
<feBlend mode="normal" in2="shape" result="effect1_innerShadow"/>
</filter>
</defs>
</svg>
