<svg width="60" height="60" fill="none" xmlns="http://www.w3.org/2000/svg"><rect width="60" height="60" rx="10" fill="#A62E41"/><path d="M30 20.117c-5.363 0-9.807 4.367-9.807 9.807A9.776 9.776 0 0030 39.73c5.44 0 9.806-4.444 9.806-9.806 0-5.363-4.443-9.807-9.806-9.807zm0 16.089c-3.448 0-6.282-2.835-6.282-6.282 0-3.448 2.834-6.283 6.282-6.283 3.447 0 6.282 2.835 6.282 6.283 0 3.447-2.835 6.282-6.282 6.282zm10.19-14.097a2.222 2.222 0 100-4.444 2.222 2.222 0 000 4.444z" fill="#fff"/><path d="M45.935 14.141C43.944 12.073 41.11 11 37.891 11H22.11C15.443 11 11 15.444 11 22.109v15.706c0 3.294 1.073 6.129 3.218 8.197C16.286 48.004 19.044 49 22.186 49h15.629c3.294 0 6.052-1.073 8.044-2.988C47.927 44.02 49 41.185 49 37.892V22.108c0-3.218-1.073-5.976-3.065-7.968zm-.306 23.75c0 2.375-.843 4.29-2.222 5.593-1.379 1.302-3.294 1.992-5.592 1.992h-15.63c-2.298 0-4.213-.69-5.592-1.992-1.38-1.38-2.069-3.294-2.069-5.67V22.11c0-2.299.69-4.214 2.069-5.593 1.302-1.302 3.294-1.992 5.593-1.992h15.782c2.298 0 4.213.69 5.592 2.069 1.303 1.379 2.069 3.294 2.069 5.516v15.78z" fill="#fff"/></svg>