<svg width="24" height="24" viewBox="0 0 24 24" fill="none" xmlns="http://www.w3.org/2000/svg">
<g filter="url(#filter0_i)">
<path d="M0 4C0 1.79086 1.79086 0 4 0H20C22.2091 0 24 1.79086 24 4V20C24 22.2091 22.2091 24 20 24H4C1.79086 24 0 22.2091 0 20V4Z" fill="#A62E41"/>
</g>
<path d="M4.64601 9.44713H7.79847V19.6H4.64601V9.44713ZM6.2281 4.40002C7.23595 4.40002 8.05629 5.22165 8.05629 6.23107C8.05629 7.24049 7.23595 8.06211 6.2281 8.06211C5.21439 8.06211 4.3999 7.24049 4.3999 6.23107C4.3999 5.22165 5.21439 4.40002 6.2281 4.40002Z" fill="white"/>
<path d="M9.77905 9.44711H12.7967V10.838H12.8378C13.2597 10.0399 14.2851 9.20062 15.8203 9.20062C19.0079 9.20062 19.5997 11.3016 19.5997 14.0365V19.6H16.4531V14.6644C16.4531 13.4848 16.4356 11.9707 14.8183 11.9707C13.1776 11.9707 12.9315 13.2559 12.9315 14.5764V19.6H9.78491L9.77905 9.44711Z" fill="white"/>
<defs>
<filter id="filter0_i" x="-4" y="-4" width="28" height="28" filterUnits="userSpaceOnUse" color-interpolation-filters="sRGB">
<feFlood flood-opacity="0" result="BackgroundImageFix"/>
<feBlend mode="normal" in="SourceGraphic" in2="BackgroundImageFix" result="shape"/>
<feColorMatrix in="SourceAlpha" type="matrix" values="0 0 0 0 0 0 0 0 0 0 0 0 0 0 0 0 0 0 127 0" result="hardAlpha"/>
<feOffset dx="-4" dy="-4"/>
<feGaussianBlur stdDeviation="4"/>
<feComposite in2="hardAlpha" operator="arithmetic" k2="-1" k3="1"/>
<feColorMatrix type="matrix" values="0 0 0 0 0 0 0 0 0 0 0 0 0 0 0 0 0 0 0.15 0"/>
<feBlend mode="normal" in2="shape" result="effect1_innerShadow"/>
</filter>
</defs>
</svg>
