<svg width="30" height="30" fill="none" xmlns="http://www.w3.org/2000/svg"><path d="M13.872 6.516a1.831 1.831 0 012.256 0 2.83 2.83 0 002.137.573 1.83 1.83 0 011.953 1.127 2.831 2.831 0 001.566 1.565 1.83 1.83 0 011.127 1.954c-.107.76.1 1.532.573 2.137a1.831 1.831 0 010 2.256 2.83 2.83 0 00-.573 2.137 1.83 1.83 0 01-1.127 1.953 2.832 2.832 0 00-1.566 1.566 1.83 1.83 0 01-1.953 1.127 2.83 2.83 0 00-2.137.573 1.831 1.831 0 01-2.256 0 2.83 2.83 0 00-2.137-.573 1.83 1.83 0 01-1.954-1.127 2.831 2.831 0 00-1.565-1.566 1.83 1.83 0 01-1.127-1.953 2.83 2.83 0 00-.573-2.137 1.831 1.831 0 010-2.256 2.83 2.83 0 00.573-2.137A1.831 1.831 0 018.216 9.78a2.831 2.831 0 001.565-1.565 1.831 1.831 0 011.954-1.127 2.83 2.83 0 002.137-.573z" stroke="#EB5757"/><path d="M14.57 18.796c-.172.173-.354.184-.544.034l-.495-.378a4.577 4.577 0 01-.65-.599 4.818 4.818 0 00-.179-.196 2.299 2.299 0 01-.07-.078 2.095 2.095 0 00-.094-.103c-.117-.117-.206-.145-.266-.084-.13.129-.18.332-.154.609.027.274.121.562.283.864.043.05.099.118.166.205.055.072.113.138.173.198.04.04.104.095.192.167.089.069.153.123.192.162.08.08.118.175.114.283a.406.406 0 01-.129.289.406.406 0 01-.289.128.37.37 0 01-.28-.116 2.563 2.563 0 00-.19-.164 2.636 2.636 0 01-.192-.167 10.41 10.41 0 01-.533-.592c-.221-.26-.399-.458-.534-.593a4.363 4.363 0 00-.196-.179 5.687 5.687 0 01-.194-.181.352.352 0 01-.11-.279.429.429 0 01.133-.289c.184-.184.393-.172.627.036l.025.021c-.002-.412.112-.731.34-.96.265-.265.56-.337.883-.216.216.081.473.27.77.567l.15.15.134.139c.11.11.266.236.468.38.204.141.36.267.468.375a.362.362 0 01.112.28.419.419 0 01-.13.287zm1.61-1.714c-.337.336-.691.53-1.066.584-.413.059-.78-.073-1.102-.395-.356-.355-.563-.75-.622-1.183-.065-.48.08-.897.432-1.25.245-.245.487-.408.727-.491.317-.109.585-.053.804.166.154.155.205.378.152.67-.024.134-.102.373-.234.716l-.397 1.025a.902.902 0 00.41-.08c.131-.06.26-.151.383-.275.188-.188.31-.386.363-.594.047-.186.107-.314.177-.384.146-.146.29-.148.432-.006.16.16.174.408.04.744a2.22 2.22 0 01-.5.753zm-1.848-1.734a.668.668 0 00-.204.466c-.006.18.05.386.168.616l.27-.679c.104-.275.176-.506.215-.692a1.06 1.06 0 00-.449.29zm3.943-4.272c.404.699.756 1.348 1.057 1.946.084.17.145.368.183.597a.441.441 0 01-.133.407c-.18.175-.49.143-.93-.095-.167-.091-.453-.287-.858-.588.033.091.056.151.07.18.101.247.265.624.491 1.132a.45.45 0 01.047.236.431.431 0 01-.116.41c-.064.07-.192.08-.386.033a2.28 2.28 0 01-.66-.285c-.218-.13-.665-.443-1.341-.936a2.909 2.909 0 01-.327-.268.346.346 0 01-.106-.279.436.436 0 01.133-.288c.152-.152.32-.17.506-.055.097.06.21.142.338.244.182.15.29.236.324.262.128.091.336.242.622.453-.18-.39-.416-.864-.706-1.423-.125-.24-.108-.44.05-.599.157-.156.361-.157.614-.002.179.108.402.257.67.447l.7.49c-.03-.057-.347-.595-.95-1.614-.09-.152-.063-.3.082-.445a.443.443 0 01.289-.133c.114-.01.21.024.287.101.014.014.03.038.05.072z" fill="#EB5757"/></svg>