<svg width="170" height="140" viewBox="0 0 170 140" fill="none" xmlns="http://www.w3.org/2000/svg">
<path d="M159.968 81.1112C153.666 61.8829 119.169 50.6803 81.4966 50.6803C48.771 50.6803 9.33564 61.8745 3.02498 81.1112C-4.45801 104.018 29.7725 130.62 81.4966 130.62C133.221 130.62 167.485 104.018 159.968 81.1112Z" fill="url(#paint0_radial)"/>
<path d="M81.4963 128.731C40.0073 128.731 12.5862 112.328 4.65427 97.0875C1.97703 91.9293 1.41164 86.8714 2.99139 82.0392C5.80998 73.445 15.3716 65.4611 29.9052 59.5588C44.4388 53.6566 62.847 50.3627 81.4963 50.3627C100.146 50.3627 118.471 53.6315 133.087 59.5588C147.704 65.4862 157.199 73.445 160.01 82.0392C161.581 86.8463 161.024 91.9042 158.347 97.0875C150.415 112.328 122.985 128.731 81.4963 128.731Z" fill="url(#paint1_linear)"/>
<path d="M81.4966 126.975C41.3878 126.975 14.873 111.091 7.20711 96.3769C4.62132 91.3608 4.07257 86.5035 5.60242 81.8553C8.32124 73.5453 17.5669 65.8289 31.6183 60.1189C45.6697 54.409 63.4709 51.2238 81.5049 51.2238C99.5389 51.2238 117.257 54.3839 131.392 60.1189C145.526 65.854 154.672 73.4952 157.416 81.8553C158.937 86.5035 158.397 91.3859 155.803 96.3769C148.128 111.116 121.614 126.975 81.4966 126.975Z" fill="url(#paint2_radial)"/>
<g filter="url(#filter0_f)">
<path d="M4.29969 83.4899C2.72748 88.145 3.29142 93.0095 5.94879 98.033C13.8269 112.769 41.0756 128.677 82.2948 128.677C123.522 128.677 150.771 112.794 158.658 98.033C161.324 93.0346 161.879 88.145 160.316 83.4899" stroke="white" stroke-width="2"/>
</g>
<path opacity="0.22" d="M130.07 85.8431C126.187 76.2791 104.677 69.5826 81.4969 69.5826C58.3162 69.5826 36.8068 76.2707 32.9322 85.8431C28.3094 97.2296 49.6359 110.48 81.4969 110.48C113.358 110.48 134.693 97.2296 130.07 85.8431Z" fill="url(#paint3_linear)"/>
<g style="mix-blend-mode:multiply" opacity="0.34">
<g filter="url(#filter1_f)">
<path d="M151.072 104.21C143.755 107.22 124.466 98.7762 115.735 94.1782L119.061 89.5801L158.555 96.2682C159.109 97.6615 158.388 101.201 151.072 104.21Z" fill="#341E01" fill-opacity="0.6"/>
</g>
</g>
<g style="mix-blend-mode:multiply" opacity="0.34">
<g filter="url(#filter2_f)">
<path d="M153.982 75.3678C171.442 86.654 94.118 102.12 92.4551 102.12L111.578 55.3035L142.342 57.3935L156.476 67.0077L153.982 75.3678Z" fill="#2B1800" fill-opacity="0.7"/>
</g>
</g>
<path style="mix-blend-mode:multiply" d="M80.6818 116.516C108.307 116.516 130.701 104.206 130.701 89.0199C130.701 73.834 108.307 61.5234 80.6818 61.5234C53.0567 61.5234 30.6621 73.834 30.6621 89.0199C30.6621 104.206 53.0567 116.516 80.6818 116.516Z" fill="url(#paint4_radial)"/>
<path d="M140.396 32.7312C140.396 32.7312 140.396 51.2991 136.297 66.4225C136.297 66.4225 126.719 83.8367 113.956 93.0078C113.956 93.0078 101.95 102.94 80.6987 102.94C68.8852 102.972 57.3218 99.5185 47.4409 93.0078C34.6783 83.8116 25.1084 66.4225 25.1084 66.4225C20.9678 51.2573 20.9678 32.7312 20.9678 32.7312" fill="url(#paint5_radial)"/>
<path style="mix-blend-mode:multiply" d="M131.899 73.4115C131.899 73.4115 121.148 77.1568 119.718 78.8707C119.718 78.8707 116.392 86.1858 115.702 91.6366C122.47 86.2359 128.207 78.8289 131.899 73.4115Z" fill="url(#paint6_linear)"/>
<path d="M80.6821 84.564C105.975 84.564 128.39 77.2824 136.297 66.3807C140.396 51.2489 140.396 32.7312 140.396 32.7312H20.9678C20.9678 32.7312 20.9678 51.2907 25.0668 66.4142C32.6662 77.274 55.3895 84.564 80.6821 84.564Z" fill="url(#paint7_linear)"/>
<path style="mix-blend-mode:multiply" opacity="0.3" d="M132.83 53.1299C132.83 53.1299 131.467 46.517 119.46 46.3665C107.454 46.216 103.979 56.3067 103.979 64.4997C103.979 71.9318 105.758 83.9119 115.902 85.4752C126.046 87.0386 136.148 76.0534 131.525 74.2058C130.202 73.7393 128.784 73.6165 127.401 73.8489C126.019 74.0813 124.717 74.6613 123.618 75.535C121.173 77.6669 114.106 81.8887 114.106 66.7485C114.106 59.1157 117.207 55.0444 120.167 55.1363C122.47 55.2199 124.69 57.8199 125.281 63.2289C125.281 63.2289 129.138 65.5781 131.525 62.6019C133.911 59.6257 132.83 53.1299 132.83 53.1299Z" fill="url(#paint8_linear)"/>
<path style="mix-blend-mode:multiply" opacity="0.4" d="M125.622 60.8463C123.126 65.5996 121.336 70.6948 120.309 75.9698C124.107 74.4534 127.78 72.6364 131.292 70.5357C132.513 68.6454 133.548 66.6408 134.385 64.5499C135.275 61.4566 125.622 60.8463 125.622 60.8463Z" fill="url(#paint9_linear)"/>
<path d="M80.6816 55.3788C113.661 55.3788 140.396 45.2204 140.396 32.6894C140.396 20.1584 113.661 10 80.6816 10C47.7023 10 20.9673 20.1584 20.9673 32.6894C20.9673 45.2204 47.7023 55.3788 80.6816 55.3788Z" fill="url(#paint10_linear)"/>
<path d="M80.6822 53.4719C111.563 53.4719 136.597 43.9611 136.597 32.2288C136.597 20.4966 111.563 10.9857 80.6822 10.9857C49.8014 10.9857 24.7676 20.4966 24.7676 32.2288C24.7676 43.9611 49.8014 53.4719 80.6822 53.4719Z" fill="url(#paint11_linear)"/>
<path d="M127.326 68.3537C126.519 68.0719 125.831 67.5213 125.378 66.793C124.924 66.0648 124.731 65.2026 124.832 64.3492C125.27 60.488 127.177 56.9469 130.153 54.4675C132.813 52.1434 137.503 50.7222 142.674 50.7222C155.437 50.7222 167.418 60.4534 167.418 74.7994C167.418 84.6392 160.052 91.2855 155.928 93.71C153.483 95.1563 149.276 96.218 144.595 96.218C131.758 96.218 123.626 86.8881 120.483 82.4071C119.976 81.697 119.716 80.838 119.744 79.964C119.773 79.0899 120.088 78.25 120.641 77.5749C121.734 76.2519 123.001 75.0847 124.408 74.1055C126.607 72.5106 129.325 71.8117 132.015 72.1492C132.015 72.1492 134.385 79.1215 140.604 81.1949C148.919 83.9788 154.007 81.1949 154.007 81.1949C154.007 81.1949 157.599 66.9826 143.198 63.6386C132.905 61.2559 135.491 70.9621 127.401 68.4373L127.326 68.3537Z" fill="url(#paint12_linear)"/>
<g filter="url(#filter3_f)">
<path d="M145.668 96.2682C135.69 97.2714 125.713 88.6047 121.972 84.146C125.63 87.8244 131.012 91.3797 137.769 91.2521C144.448 91.1259 149.825 89.5801 153.982 81.6379C154.912 79.8624 158.694 87.908 160.218 89.9981C159.525 91.6701 155.645 95.2649 145.668 96.2682Z" fill="url(#paint13_linear)"/>
</g>
<g filter="url(#filter4_f)">
<path d="M125.869 66.7931C126.322 67.5213 127.01 68.0719 127.817 68.3537L127.892 68.4373C128.638 68.8477 130.907 68.6083 131.948 68.4373L130.644 54.4675C127.668 56.947 125.761 60.488 125.323 64.3492C125.222 65.2026 125.415 66.0648 125.869 66.7931Z" fill="url(#paint14_linear)" fill-opacity="0.28"/>
</g>
<path d="M153.982 81.0778C153.982 81.0778 154.065 80.593 154.14 79.7235C154.243 78.5386 154.243 77.347 154.14 76.1621C153.999 74.5056 153.586 72.8841 152.918 71.3634C152.543 70.5151 152.069 69.7151 151.504 68.9807C150.938 68.215 150.273 67.5289 149.525 66.9408C148.038 65.7617 146.347 64.8689 144.537 64.3074C143.705 64.0377 142.858 63.8171 142.001 63.647C141.241 63.4903 140.465 63.4201 139.689 63.438C138.515 63.4429 137.364 63.7726 136.364 64.391C136.006 64.6167 135.732 64.8174 135.532 64.9595L135.258 65.1852L135.499 64.9261C135.735 64.6857 135.988 64.4622 136.256 64.2572C137.236 63.5073 138.411 63.06 139.64 62.9698C140.455 62.9043 141.274 62.9296 142.084 63.045C142.981 63.1636 143.868 63.3508 144.736 63.6052C145.671 63.8764 146.581 64.2288 147.455 64.6585C148.369 65.1172 149.228 65.6781 150.016 66.3306C151.575 67.6007 152.79 69.2453 153.55 71.1126C154.186 72.7271 154.532 74.4425 154.572 76.1788C154.607 77.389 154.515 78.5995 154.298 79.7904C154.22 80.2258 154.114 80.6558 153.982 81.0778Z" fill="white"/>
<path d="M153.982 81.0778C153.982 81.0778 148.893 83.8952 140.579 81.0778C134.36 79.0045 131.99 72.0321 131.99 72.0321C129.299 71.6947 126.581 72.3936 124.382 73.9884C122.828 75.0707 121.445 76.3843 120.283 77.8842C122.262 82.173 125.862 87.0302 131.516 89.1704C145.251 94.4122 153.042 85.0154 153.982 81.0778Z" fill="url(#paint15_linear)"/>
<path d="M120.309 77.9176C120.309 77.9176 120.616 78.5195 121.215 79.5311C121.514 80.0327 121.897 80.643 122.371 81.3035C122.844 81.9639 123.41 82.6912 124.033 83.452C124.74 84.2593 125.508 85.0111 126.328 85.7009C127.24 86.4661 128.22 87.146 129.255 87.7324C129.524 87.8922 129.802 88.0373 130.086 88.1671C130.357 88.3123 130.634 88.4435 130.918 88.5601C131.209 88.6687 131.516 88.8192 131.791 88.9028L132.73 89.1954C133.977 89.6099 135.257 89.9175 136.555 90.115L138.517 90.3157C139.166 90.3157 139.823 90.3157 140.463 90.3157C141.103 90.3157 141.743 90.1568 142.375 90.09C143.007 90.0231 143.589 89.789 144.196 89.6552C144.803 89.5215 145.335 89.2289 145.859 89.0366C146.383 88.8443 146.923 88.535 147.422 88.2674C147.921 87.9999 148.386 87.6906 148.819 87.3813C149.251 87.0719 149.65 86.7626 150.041 86.4282C150.721 85.8315 151.358 85.1861 151.945 84.497C152.194 84.171 152.444 83.8784 152.643 83.5941L153.167 82.7581C153.389 82.364 153.586 81.9564 153.758 81.5375L153.924 81.0777L153.799 81.5459C153.672 81.9881 153.508 82.4187 153.309 82.8334L152.835 83.6694C152.652 83.9787 152.419 84.288 152.194 84.6391C151.645 85.3895 151.03 86.0889 150.357 86.7292C149.991 87.0887 149.526 87.4064 149.135 87.7658C148.744 88.1253 148.212 88.4012 147.73 88.744C147.247 89.0867 146.682 89.3125 146.142 89.58C145.601 89.8475 144.978 90.0482 144.371 90.2572C143.764 90.4662 143.123 90.6083 142.475 90.742C141.826 90.8758 141.161 90.9511 140.488 91.0096C139.814 91.0681 139.132 91.0597 138.451 91.0514L136.405 90.8758C135.067 90.6472 133.749 90.3118 132.464 89.8726L131.525 89.5633C131.176 89.4546 130.901 89.3041 130.585 89.1787C130.269 89.0533 129.987 88.9028 129.696 88.7607C129.405 88.6186 129.122 88.4597 128.864 88.2925C126.857 87.0896 125.085 85.5286 123.634 83.6861C122.616 82.3888 121.735 80.9878 121.007 79.506C120.741 78.9793 120.55 78.553 120.433 78.2604L120.309 77.9176Z" fill="white"/>
<path style="mix-blend-mode:screen" d="M104.004 80.2752C106.842 79.7736 109.558 79.1828 112.152 78.5029L113.274 53.1299L104.644 55.2534L104.004 80.2752Z" fill="url(#paint16_linear)"/>
<path style="mix-blend-mode:screen" d="M100.479 80.852L102.449 80.5427L103.547 55.3787L101.052 55.9806L100.479 80.852Z" fill="url(#paint17_linear)"/>
<g filter="url(#filter5_f)">
<ellipse cx="81.6463" cy="31.059" rx="56.9539" ry="20.9003" fill="white"/>
</g>
<ellipse cx="81.6463" cy="31.8952" rx="56.9539" ry="20.9003" fill="#9C6720"/>
<g filter="url(#filter6_f)">
<ellipse cx="81.6463" cy="31.8951" rx="52.7967" ry="19.2283" fill="#E4AA60"/>
</g>
<g filter="url(#filter7_f)">
<ellipse cx="81.6459" cy="31.8952" rx="43.6508" ry="15.0482" fill="#F1C998"/>
</g>
<g filter="url(#filter8_f)">
<ellipse cx="81.6463" cy="31.8951" rx="36.1678" ry="10.8682" fill="#FFE0BA"/>
</g>
<g filter="url(#filter9_f)">
<path d="M143.173 50.7054C155.936 50.7054 167.501 60.8547 167.501 75.2006C167.501 85.0405 160.6 90.9177 156.476 93.3421" stroke="url(#paint18_linear)" stroke-opacity="0.5"/>
</g>
<g filter="url(#filter10_f)">
<path d="M139.964 32.7311C139.964 45.2621 113.229 55.4205 80.2494 55.4205C47.2701 55.4205 20.5352 45.2621 20.5352 32.7311" stroke="white" stroke-width="2"/>
</g>
<defs>
<filter id="filter0_f" x="0.429688" y="81.1699" width="163.752" height="50.5067" filterUnits="userSpaceOnUse" color-interpolation-filters="sRGB">
<feFlood flood-opacity="0" result="BackgroundImageFix"/>
<feBlend mode="normal" in="SourceGraphic" in2="BackgroundImageFix" result="shape"/>
<feGaussianBlur stdDeviation="1" result="effect1_foregroundBlur"/>
</filter>
<filter id="filter1_f" x="107.735" y="81.5801" width="58.9657" height="31.2637" filterUnits="userSpaceOnUse" color-interpolation-filters="sRGB">
<feFlood flood-opacity="0" result="BackgroundImageFix"/>
<feBlend mode="normal" in="SourceGraphic" in2="BackgroundImageFix" result="shape"/>
<feGaussianBlur stdDeviation="4" result="effect1_foregroundBlur"/>
</filter>
<filter id="filter2_f" x="88.4551" y="51.3035" width="72.0922" height="54.8168" filterUnits="userSpaceOnUse" color-interpolation-filters="sRGB">
<feFlood flood-opacity="0" result="BackgroundImageFix"/>
<feBlend mode="normal" in="SourceGraphic" in2="BackgroundImageFix" result="shape"/>
<feGaussianBlur stdDeviation="2" result="effect1_foregroundBlur"/>
</filter>
<filter id="filter3_f" x="117.972" y="77.384" width="46.2464" height="22.9642" filterUnits="userSpaceOnUse" color-interpolation-filters="sRGB">
<feFlood flood-opacity="0" result="BackgroundImageFix"/>
<feBlend mode="normal" in="SourceGraphic" in2="BackgroundImageFix" result="shape"/>
<feGaussianBlur stdDeviation="2" result="effect1_foregroundBlur"/>
</filter>
<filter id="filter4_f" x="121.297" y="50.4675" width="14.6515" height="22.1964" filterUnits="userSpaceOnUse" color-interpolation-filters="sRGB">
<feFlood flood-opacity="0" result="BackgroundImageFix"/>
<feBlend mode="normal" in="SourceGraphic" in2="BackgroundImageFix" result="shape"/>
<feGaussianBlur stdDeviation="2" result="effect1_foregroundBlur"/>
</filter>
<filter id="filter5_f" x="22.6924" y="8.15869" width="117.908" height="45.8007" filterUnits="userSpaceOnUse" color-interpolation-filters="sRGB">
<feFlood flood-opacity="0" result="BackgroundImageFix"/>
<feBlend mode="normal" in="SourceGraphic" in2="BackgroundImageFix" result="shape"/>
<feGaussianBlur stdDeviation="1" result="effect1_foregroundBlur"/>
</filter>
<filter id="filter6_f" x="24.8496" y="8.66675" width="113.593" height="46.4566" filterUnits="userSpaceOnUse" color-interpolation-filters="sRGB">
<feFlood flood-opacity="0" result="BackgroundImageFix"/>
<feBlend mode="normal" in="SourceGraphic" in2="BackgroundImageFix" result="shape"/>
<feGaussianBlur stdDeviation="2" result="effect1_foregroundBlur"/>
</filter>
<filter id="filter7_f" x="33.9951" y="12.8469" width="95.3016" height="38.0965" filterUnits="userSpaceOnUse" color-interpolation-filters="sRGB">
<feFlood flood-opacity="0" result="BackgroundImageFix"/>
<feBlend mode="normal" in="SourceGraphic" in2="BackgroundImageFix" result="shape"/>
<feGaussianBlur stdDeviation="2" result="effect1_foregroundBlur"/>
</filter>
<filter id="filter8_f" x="41.4785" y="17.027" width="80.3356" height="29.7363" filterUnits="userSpaceOnUse" color-interpolation-filters="sRGB">
<feFlood flood-opacity="0" result="BackgroundImageFix"/>
<feBlend mode="normal" in="SourceGraphic" in2="BackgroundImageFix" result="shape"/>
<feGaussianBlur stdDeviation="2" result="effect1_foregroundBlur"/>
</filter>
<filter id="filter9_f" x="141.173" y="48.2054" width="28.8281" height="47.5677" filterUnits="userSpaceOnUse" color-interpolation-filters="sRGB">
<feFlood flood-opacity="0" result="BackgroundImageFix"/>
<feBlend mode="normal" in="SourceGraphic" in2="BackgroundImageFix" result="shape"/>
<feGaussianBlur stdDeviation="1" result="effect1_foregroundBlur"/>
</filter>
<filter id="filter10_f" x="15.5352" y="28.7311" width="129.429" height="31.6894" filterUnits="userSpaceOnUse" color-interpolation-filters="sRGB">
<feFlood flood-opacity="0" result="BackgroundImageFix"/>
<feBlend mode="normal" in="SourceGraphic" in2="BackgroundImageFix" result="shape"/>
<feGaussianBlur stdDeviation="2" result="effect1_foregroundBlur"/>
</filter>
<radialGradient id="paint0_radial" cx="0" cy="0" r="1" gradientUnits="userSpaceOnUse" gradientTransform="translate(81.4966 90.177) scale(59.548 85.6216)">
<stop offset="0.01" stop-color="#F0F0F0"/>
<stop offset="1" stop-color="#C7C7C7"/>
</radialGradient>
<linearGradient id="paint1_linear" x1="78.0749" y1="130.52" x2="78.0749" y2="52.5381" gradientUnits="userSpaceOnUse">
<stop stop-color="white"/>
<stop offset="1" stop-color="white"/>
</linearGradient>
<radialGradient id="paint2_radial" cx="0" cy="0" r="1" gradientUnits="userSpaceOnUse" gradientTransform="translate(78.0752 89.8673) scale(83.5227 40.3112)">
<stop offset="0.82" stop-color="white"/>
<stop offset="0.88" stop-color="#F8F7F7"/>
<stop offset="0.98" stop-color="#E4E2E1"/>
<stop offset="1" stop-color="#E0DDDC"/>
</radialGradient>
<linearGradient id="paint3_linear" x1="84.4801" y1="110.464" x2="84.4801" y2="69.5826" gradientUnits="userSpaceOnUse">
<stop offset="0.33" stop-color="#D8D8D8"/>
<stop offset="1" stop-color="#B5B5B5"/>
</linearGradient>
<radialGradient id="paint4_radial" cx="0" cy="0" r="1" gradientUnits="userSpaceOnUse" gradientTransform="translate(84.7285 86.5615) scale(37.2184 16.9172)">
<stop offset="0.51" stop-color="#1C0B05"/>
<stop offset="0.56" stop-color="#2A1A14"/>
<stop offset="0.65" stop-color="#4D403B"/>
<stop offset="0.77" stop-color="#877E7B"/>
<stop offset="0.92" stop-color="#D5D2D1"/>
<stop offset="1" stop-color="white"/>
</radialGradient>
<radialGradient id="paint5_radial" cx="0" cy="0" r="1" gradientUnits="userSpaceOnUse" gradientTransform="translate(83.4175 76.3885) scale(55.0083 28.7615)">
<stop stop-color="white"/>
<stop offset="0.23" stop-color="#FCFCFB"/>
<stop offset="0.43" stop-color="#F5F2F1"/>
<stop offset="0.62" stop-color="#E7E2DE"/>
<stop offset="0.8" stop-color="#D5CBC5"/>
<stop offset="0.99" stop-color="#BDAEA4"/>
<stop offset="1" stop-color="#BBABA1"/>
</radialGradient>
<linearGradient id="paint6_linear" x1="125.222" y1="77.0231" x2="116.376" y2="90.1538" gradientUnits="userSpaceOnUse">
<stop offset="0.24" stop-color="#B6AAA0"/>
<stop offset="0.27" stop-color="#BBB0A7"/>
<stop offset="0.48" stop-color="#DCD5D1"/>
<stop offset="0.64" stop-color="#F0ECEA"/>
<stop offset="0.73" stop-color="#F7F5F4"/>
</linearGradient>
<linearGradient id="paint7_linear" x1="21.2172" y1="61.3229" x2="140.247" y2="51.4903" gradientUnits="userSpaceOnUse">
<stop stop-color="#FEFEFE"/>
<stop offset="0.01" stop-color="#E8E4E1"/>
<stop offset="0.02" stop-color="#D6CFC9"/>
<stop offset="0.03" stop-color="#C7BEB7"/>
<stop offset="0.05" stop-color="#BDB3AA"/>
<stop offset="0.06" stop-color="#B8ACA2"/>
<stop offset="0.1" stop-color="#B6AAA0"/>
<stop offset="0.21" stop-color="#D2CBC5"/>
<stop offset="0.68" stop-color="#F7F5F4"/>
<stop offset="1" stop-color="#E1DCD8"/>
</linearGradient>
<linearGradient id="paint8_linear" x1="101.95" y1="59.3164" x2="130.033" y2="69.8073" gradientUnits="userSpaceOnUse">
<stop stop-color="white"/>
<stop offset="0.22" stop-color="#F9F8F7"/>
<stop offset="0.56" stop-color="#E9E4E1"/>
<stop offset="0.89" stop-color="#D5CBC5"/>
<stop offset="0.98" stop-color="#D5CBC5"/>
</linearGradient>
<linearGradient id="paint9_linear" x1="131.134" y1="59.3916" x2="124.931" y2="74.8763" gradientUnits="userSpaceOnUse">
<stop offset="0.11" stop-color="#D5CBC5"/>
<stop offset="0.44" stop-color="#E9E4E1"/>
<stop offset="0.78" stop-color="#F9F8F7"/>
<stop offset="1" stop-color="white"/>
</linearGradient>
<linearGradient id="paint10_linear" x1="80.6816" y1="55.3788" x2="80.6816" y2="10" gradientUnits="userSpaceOnUse">
<stop stop-color="#F2F2F2"/>
<stop offset="0.24" stop-color="#E5E4E4"/>
<stop offset="0.69" stop-color="#C3BFBE"/>
<stop offset="1" stop-color="#A9A2A0"/>
</linearGradient>
<linearGradient id="paint11_linear" x1="24.7593" y1="32.2288" x2="136.597" y2="32.2288" gradientUnits="userSpaceOnUse">
<stop stop-color="#B6ADA4"/>
<stop offset="0.13" stop-color="#C9C3BD"/>
<stop offset="0.39" stop-color="#F6F6F6"/>
<stop offset="0.47" stop-color="#F2F2F2"/>
<stop offset="0.55" stop-color="#E5E5E5"/>
<stop offset="0.56" stop-color="#E2E2E2"/>
<stop offset="0.68" stop-color="#DAD8D5"/>
<stop offset="0.79" stop-color="#D7D3CF"/>
<stop offset="0.84" stop-color="#C1B9B2"/>
<stop offset="0.9" stop-color="#B1A79D"/>
<stop offset="0.95" stop-color="#A79C91"/>
<stop offset="1" stop-color="#A4988D"/>
</linearGradient>
<linearGradient id="paint12_linear" x1="119.718" y1="73.4116" x2="167.418" y2="73.4116" gradientUnits="userSpaceOnUse">
<stop offset="0.02" stop-color="#D5CBC5"/>
<stop offset="0.11" stop-color="#D5CBC5"/>
<stop offset="0.44" stop-color="#E9E4E1"/>
<stop offset="0.78" stop-color="#F9F8F7"/>
<stop offset="1" stop-color="white"/>
</linearGradient>
<linearGradient id="paint13_linear" x1="141.095" y1="81.384" x2="141.095" y2="96.3483" gradientUnits="userSpaceOnUse">
<stop offset="0.385417" stop-color="#361F00" stop-opacity="0"/>
<stop offset="1" stop-color="#563408" stop-opacity="0.43"/>
</linearGradient>
<linearGradient id="paint14_linear" x1="125.297" y1="65.3357" x2="130.74" y2="57.8399" gradientUnits="userSpaceOnUse">
<stop stop-color="#5A380B"/>
<stop offset="1" stop-color="#5A380B" stop-opacity="0"/>
</linearGradient>
<linearGradient id="paint15_linear" x1="124.083" y1="74.6071" x2="148.768" y2="88.5443" gradientUnits="userSpaceOnUse">
<stop stop-color="#CECAC7"/>
<stop offset="0.28" stop-color="#F0EEED"/>
<stop offset="0.45" stop-color="#ECEAE9"/>
<stop offset="0.64" stop-color="#E1DEDC"/>
<stop offset="0.83" stop-color="#CFCAC7"/>
<stop offset="1" stop-color="#B8B2AE"/>
</linearGradient>
<linearGradient id="paint16_linear" x1="108.909" y1="55.6296" x2="108.254" y2="81.7464" gradientUnits="userSpaceOnUse">
<stop stop-color="white"/>
<stop offset="0.06" stop-color="#ECECEC"/>
<stop offset="0.33" stop-color="#999999"/>
<stop offset="0.57" stop-color="#575757"/>
<stop offset="0.76" stop-color="#282828"/>
<stop offset="0.91" stop-color="#0B0B0B"/>
<stop offset="1"/>
</linearGradient>
<linearGradient id="paint17_linear" x1="582.957" y1="2423.38" x2="436.733" y2="3136.39" gradientUnits="userSpaceOnUse">
<stop stop-color="white"/>
<stop offset="0.06" stop-color="#ECECEC"/>
<stop offset="0.33" stop-color="#999999"/>
<stop offset="0.57" stop-color="#575757"/>
<stop offset="0.76" stop-color="#282828"/>
<stop offset="0.91" stop-color="#0B0B0B"/>
<stop offset="1"/>
</linearGradient>
<linearGradient id="paint18_linear" x1="159.386" y1="90.4161" x2="142.602" y2="51.1897" gradientUnits="userSpaceOnUse">
<stop stop-color="#4A2F0A" stop-opacity="0.5"/>
<stop offset="1" stop-color="#4A2F0A" stop-opacity="0"/>
</linearGradient>
</defs>
</svg>
