<svg width="129" height="108" viewBox="0 0 129 108" fill="none" xmlns="http://www.w3.org/2000/svg">
<g clip-path="url(#clip0)">
<g filter="url(#filter0_d)">
<path fill-rule="evenodd" clip-rule="evenodd" d="M23.947 14.0513L113.231 22.2534C116.08 22.5173 118.323 25.478 117.534 28.2276L103.147 78.2394C102.359 80.989 100.01 82.9978 97.1884 82.5385L47.5208 74.4542L32.1174 85.475L35.7311 72.5353L23.6189 70.5638C20.7734 70.1006 19.3963 67.4417 19.315 64.5943L18.0079 18.3487C17.9036 15.4928 21.0986 13.7874 23.947 14.0513Z" fill="url(#paint0_linear)"/>
</g>
<path d="M51.5519 34.566C51.5967 34.3948 51.6373 34.2042 51.6739 33.9942C51.7104 33.7842 51.7529 33.4678 51.8011 33.0449C52.061 30.769 51.7847 28.998 50.9721 27.7319C50.1735 26.4547 48.8544 25.7096 47.015 25.4963C45.2377 25.2903 43.7723 25.6623 42.6186 26.6123C41.4787 27.5513 40.8037 28.9411 40.5936 30.7817C40.3962 32.5104 40.6986 33.8875 41.5009 34.913C42.3031 35.9385 43.5555 36.55 45.2582 36.7473C46.3768 36.877 47.454 36.7625 48.4898 36.4037C49.5256 36.0449 50.5463 35.4323 51.5519 34.566ZM51.0061 37.5271C50.15 38.2973 49.1177 38.8455 47.9093 39.1717C46.7133 39.4993 45.4318 39.5839 44.0647 39.4254C41.6535 39.1459 39.8384 38.2235 38.6193 36.6582C37.4016 35.0805 36.934 33.0542 37.2166 30.5793C37.5247 27.8805 38.6169 25.8144 40.4932 24.3812C42.3695 22.9479 44.7245 22.3955 47.5582 22.724C50.3298 23.0453 52.3777 24.19 53.7019 26.1581C55.0262 28.1262 55.503 30.7333 55.1324 33.9793C54.7674 37.1755 53.8207 40.0082 52.2921 42.4773C50.7635 44.9464 48.7821 46.8589 46.3479 48.2149C45.2851 48.81 44.1517 49.2519 42.9475 49.5408C41.7558 49.8311 40.725 49.9258 39.855 49.825C39.2087 49.7501 38.7396 49.5571 38.4477 49.246C38.1558 48.9349 38.0411 48.5058 38.1036 47.9586C38.122 47.7969 38.2316 47.4441 38.4322 46.9003C38.4684 46.8037 38.5018 46.732 38.5323 46.6851C38.6538 46.7244 38.7945 46.7596 38.9547 46.7908C39.1149 46.822 39.3192 46.852 39.5678 46.8808C41.9416 47.156 44.1832 46.4392 46.2924 44.7305C48.4141 43.0232 49.9853 40.6221 51.0061 37.5271Z" fill="#F1F2F2"/>
<path d="M60.9525 48.7875C61.0265 48.7356 61.1286 48.668 61.259 48.5848C61.3977 48.495 61.5721 48.3905 61.7822 48.2712C61.9425 48.1914 62.0613 48.1107 62.1386 48.0289C62.2159 47.9472 62.2602 47.8578 62.2713 47.7608C62.3113 47.41 62.3332 47.1858 62.3368 47.0879C62.3479 46.9909 62.3564 46.9163 62.3624 46.864C62.4443 46.1477 62.5269 45.5902 62.6102 45.1916C62.6935 44.7929 62.7706 44.5486 62.8413 44.4585L62.8573 44.1201L62.7991 44.034C62.8085 43.9519 62.8166 43.881 62.8234 43.8213C62.8386 43.755 62.8487 43.6995 62.8538 43.6547C62.9007 43.2443 62.7479 42.962 62.3952 42.8077C62.0501 42.6543 61.8971 42.406 61.9363 42.0628C61.9483 41.9583 62.0672 41.8435 62.293 41.7185C62.5197 41.586 62.8468 41.4348 63.2742 41.2651C63.3682 40.9055 63.4698 40.5127 63.5789 40.0868C63.688 39.661 63.8134 39.1916 63.9551 38.6788C63.9364 38.5783 63.923 38.4974 63.9149 38.4359C63.9076 38.367 63.907 38.3065 63.913 38.2543C63.9428 37.9931 63.9999 37.7578 64.0843 37.5483C64.1687 37.3388 64.2742 37.1431 64.4008 36.9612C64.4798 36.8645 64.5784 36.7625 64.6964 36.6552C64.8153 36.5404 64.9579 36.417 65.124 36.2851C65.2562 36.187 65.3567 36.1003 65.4258 36.0251C65.4957 35.9425 65.5336 35.8751 65.5396 35.8228C65.5464 35.7632 65.5258 35.7116 65.4779 35.6683C65.4374 35.6258 65.3724 35.5994 65.2829 35.589C65.007 35.557 64.5904 35.5995 64.033 35.7164C63.4764 35.8258 63.064 35.865 62.7955 35.8339C62.706 35.8236 62.6402 35.8046 62.598 35.777C62.5633 35.7503 62.5489 35.7109 62.5548 35.6586C62.5719 35.5094 62.5943 35.3797 62.622 35.2695C62.6497 35.1593 62.6773 35.0831 62.7048 35.0409C62.8426 34.9586 62.9502 34.8765 63.0276 34.7947C63.1124 34.7138 63.1599 34.6286 63.1701 34.5391C63.1744 34.5018 63.2172 34.4576 63.2986 34.4065C63.3875 34.3563 63.5202 34.3188 63.6969 34.2939C64.4051 34.1793 64.9441 34.0905 65.314 34.0275C65.6914 33.9654 65.907 33.9299 65.9609 33.921C66.3904 33.8649 66.7979 33.8365 67.1834 33.8357C67.5697 33.8276 67.9269 33.8425 68.255 33.8805C68.2923 33.8848 68.3655 33.9046 68.4748 33.94C68.585 33.9678 68.6596 33.9765 68.6986 33.9659C68.8503 33.9608 69.0099 33.9528 69.1773 33.9419C69.2221 33.9471 69.35 33.9846 69.5612 34.0544C69.7731 34.1168 70.0688 34.2077 70.448 34.3273C70.5318 34.3218 70.6234 34.3136 70.7229 34.3024C70.9391 34.3274 71.1143 34.3817 71.2483 34.4653C71.3897 34.5497 71.4947 34.6564 71.5631 34.7853C71.6649 34.8198 71.7643 34.8426 71.8612 34.8539C72.0551 34.8763 72.224 34.9526 72.3678 35.0826C72.5199 35.2061 72.6441 35.3755 72.7404 35.5908C72.8226 35.7969 72.8825 36.0004 72.92 36.2013C72.9583 36.3948 72.966 36.5922 72.943 36.7937C72.8978 37.1892 72.7689 37.5561 72.5565 37.8944C72.3524 38.2261 72.065 38.5255 71.6945 38.7926C71.6546 38.8107 71.4566 38.9238 71.1003 39.1321C70.7524 39.3337 70.2442 39.6151 69.5758 39.9762C69.5036 40.0132 69.418 40.0675 69.3192 40.1393C69.2203 40.211 69.1024 40.2843 68.9653 40.3591C68.3121 40.6539 67.6829 40.9364 67.0778 41.2066C66.5707 41.4125 66.1838 41.5907 65.9173 41.7413C65.6507 41.8919 65.5132 42.0045 65.5046 42.0791C65.4876 42.2283 65.5356 42.37 65.6488 42.5041C65.7627 42.6307 65.9451 42.7539 66.1959 42.8736C66.5609 43.052 66.9722 43.2546 67.4298 43.4815C67.8875 43.7084 68.3748 43.9728 68.8919 44.2746C68.9424 44.2956 69.0024 44.3328 69.0718 44.3862C69.1488 44.4405 69.2327 44.4994 69.3237 44.5628C69.9377 44.8759 70.3776 45.2255 70.6432 45.6116C70.9172 45.9911 71.0282 46.4085 70.9762 46.8637C70.9003 47.5278 70.2279 48.0888 68.9591 48.5467C67.6977 49.0055 65.8432 49.3653 63.3955 49.6262C63.3463 49.7263 63.2896 49.8256 63.2254 49.924C63.1688 50.0233 63.1162 50.1193 63.0679 50.212C63.0063 50.288 62.9245 50.3428 62.8224 50.3763C62.7195 50.4173 62.6046 50.4305 62.4779 50.4158C62.3362 50.3994 62.2303 50.3342 62.1602 50.2203C62.0893 50.1138 62.0512 49.9506 62.0461 49.7307C61.9924 49.6716 61.9465 49.6436 61.9084 49.6467L61.2516 49.7408C61.1747 49.6865 61.1011 49.6364 61.0308 49.5904C60.9671 49.5528 60.9001 49.511 60.8298 49.4651C60.7603 49.4117 60.707 49.3488 60.67 49.2765C60.6321 49.2116 60.6174 49.1418 60.6259 49.0672C60.6336 49.0001 60.6623 48.9467 60.7122 48.9071C60.7686 48.8758 60.8488 48.836 60.9525 48.7875ZM64.9929 43.8798C64.8735 43.8659 64.7572 43.9583 64.6438 44.1569C64.5388 44.3489 64.4371 44.6433 64.3389 45.0402C64.2664 45.4098 64.1935 45.7832 64.1202 46.1603C64.0478 46.53 63.9753 46.8996 63.9028 47.2693C63.8368 47.4506 63.7769 47.6441 63.7232 47.8495L63.7328 47.9641L63.8171 48.0192C64.1248 47.9717 64.4664 47.9243 64.8421 47.8771C65.0956 47.9064 65.2473 47.9013 65.2972 47.8617C65.3554 47.8155 65.9918 47.6019 67.2065 47.2209C67.7226 47.069 68.1139 46.9177 68.3804 46.7672C68.6478 46.6091 68.7892 46.4629 68.8045 46.3286C68.8139 46.2465 68.7893 46.1643 68.7307 46.0819C68.6721 45.9995 68.5804 45.9095 68.4556 45.8119C68.1307 45.5474 67.7659 45.301 67.3613 45.0727C66.9576 44.8369 66.5107 44.6151 66.0207 44.4071C65.9561 44.3769 65.8804 44.3455 65.7934 44.3127C65.7148 44.2734 65.625 44.2327 65.524 44.1908C65.3685 44.0972 65.2485 44.0228 65.1642 43.9677C65.0872 43.9134 65.0301 43.8841 64.9929 43.8798ZM68.1222 35.7364C67.8388 35.7036 67.6051 35.6992 67.421 35.7232C67.2452 35.7407 67.115 35.7898 67.0302 35.8707C66.9637 35.9235 66.8871 36.0318 66.8003 36.1957C66.7211 36.3604 66.6271 36.5877 66.5184 36.8775C66.4698 37.0382 66.4266 37.2185 66.3886 37.4182C66.3581 37.6188 66.333 37.839 66.3132 38.0786C66.209 38.2631 66.1044 38.4173 65.9996 38.5413L66.0223 38.8388C65.8902 39.2015 65.7927 39.4927 65.7298 39.7122C65.6669 39.9317 65.6312 40.0788 65.6227 40.1534C65.6099 40.2654 65.6233 40.3463 65.663 40.3963C65.7026 40.4462 65.7634 40.4759 65.8454 40.4854C65.92 40.4941 66.1046 40.4323 66.3993 40.3001C66.7014 40.1687 67.1174 39.9674 67.6471 39.6961C68.2324 39.401 68.6774 39.1765 68.9821 39.0228C69.2951 38.8625 69.4752 38.7737 69.5225 38.7565C69.6331 38.6484 69.7395 38.5435 69.8418 38.4419C69.9524 38.3338 70.0588 38.2289 70.1611 38.1273C70.3058 37.9853 70.4148 37.8581 70.4881 37.7456C70.5622 37.6256 70.6048 37.5172 70.6159 37.4202C70.6364 37.2411 70.5988 37.0742 70.5031 36.9194C70.4075 36.7647 70.2538 36.6221 70.042 36.4918C69.9708 36.4533 69.8417 36.393 69.6547 36.3108C69.475 36.2295 69.2395 36.1417 68.948 36.0475C68.7096 35.9518 68.5217 35.8772 68.3843 35.8234C68.2469 35.7697 68.1595 35.7407 68.1222 35.7364Z" fill="#F1F2F2"/>
<path d="M81.9669 35.2871C82.1309 35.3061 82.2443 35.3722 82.3069 35.4853C82.3695 35.5984 82.3893 35.7557 82.3663 35.9571C82.3228 36.3377 82.2637 36.69 82.1889 37.014C82.1215 37.3389 82.0323 37.6234 81.9213 37.8676C81.7728 38.1755 81.6284 38.4801 81.4882 38.7815C81.3563 39.0762 81.2198 39.3779 81.0788 39.6867C80.9524 39.8006 80.8667 39.8889 80.8218 39.9518C80.789 40.1068 80.7528 40.2576 80.7134 40.4042C80.6991 40.4631 80.6629 40.5156 80.6047 40.5618C80.554 40.6088 80.4875 40.6616 80.4053 40.7201C80.3744 40.7921 80.3343 40.8782 80.2851 40.9784C80.2367 41.0711 80.1788 41.1815 80.1112 41.3098C79.8739 41.6679 79.5608 42.0929 79.1722 42.5847C78.7918 43.0699 78.3313 43.6289 77.7905 44.2619C77.7694 44.3804 77.7528 44.4919 77.7409 44.5964L76.961 45.867C76.6893 46.327 76.4459 46.7713 76.2306 47.2C76.0237 47.6222 75.8562 48.0299 75.7282 48.4234C75.6578 48.6421 75.5992 48.8243 75.5523 48.9701C75.5138 49.1093 75.4911 49.2087 75.4843 49.2684C75.4757 49.343 75.5072 49.4639 75.5788 49.6309C75.6513 49.7905 75.6853 49.889 75.6811 49.9263C75.6623 50.0905 75.418 50.2777 74.9482 50.4879C74.4858 50.6989 74.2029 50.7947 74.0993 50.7751C73.99 50.7398 73.8733 50.7036 73.7491 50.6665C73.6315 50.6378 73.5217 50.6062 73.4199 50.5717C73.2676 50.5163 73.1542 50.4502 73.0799 50.3735C73.0046 50.3043 72.9726 50.2212 72.9837 50.1242C72.9922 50.0496 73.0349 49.9071 73.1119 49.6968C73.2165 49.3762 73.3326 49.0873 73.4603 48.8298C73.5962 48.5658 73.752 48.3268 73.9276 48.1128L73.9662 48.0719C73.9473 48.0395 73.9329 48 73.9231 47.9535C73.9208 47.9078 73.9114 47.8576 73.895 47.8028C73.9476 47.6728 74.0186 47.5147 74.1079 47.3284C74.1972 47.1422 74.3122 46.9287 74.4531 46.688C74.5413 46.5772 74.6338 46.4291 74.7305 46.2438C74.8281 46.0509 74.9212 45.8311 75.0099 45.5843C74.7736 45.3377 74.5834 45.085 74.4391 44.8264C74.2949 44.5677 74.2041 44.304 74.1669 44.035C74.1217 43.9012 74.0617 43.7317 73.987 43.5265C73.9131 43.3138 73.8359 43.0629 73.7556 42.7739L73.2541 39.8238C73.2573 39.5974 73.254 39.3286 73.2442 39.0174C73.2427 38.6997 73.2198 38.3379 73.1756 37.9321L73.3056 37.6863L73.1436 37.418C73.1504 37.3583 73.1524 37.2754 73.1494 37.1692C73.1547 37.0564 73.1552 36.9204 73.1507 36.7611C73.1454 36.6092 73.145 36.4807 73.1494 36.3753C73.1622 36.2634 73.1729 36.1701 73.1814 36.0955C73.213 35.8194 73.2783 35.6115 73.3774 35.4718C73.4765 35.332 73.6102 35.253 73.7785 35.2347C73.8307 35.2407 73.8866 35.2472 73.9463 35.2541C74.0142 35.2544 74.0855 35.2589 74.1601 35.2675C74.2496 35.2779 74.5354 35.19 75.0176 35.0039C75.2264 35.0281 75.3878 35.1035 75.5017 35.2301C75.6166 35.3493 75.6849 35.5122 75.7066 35.7188C75.717 35.8259 75.7149 35.9769 75.7002 36.1717C75.6863 36.3592 75.6644 36.5835 75.6346 36.8446C75.6184 36.9864 75.58 37.1899 75.5195 37.4551C75.4664 37.7211 75.4327 37.9175 75.4182 38.0444C75.413 38.0892 75.4108 38.1418 75.4114 38.2024C75.4204 38.2564 75.4268 38.3327 75.4306 38.4314C75.4099 38.6785 75.4015 38.9838 75.4053 39.3471C75.4174 39.7039 75.4348 40.1142 75.4573 40.578C75.4714 40.8518 75.5001 41.1954 75.5435 41.6087C75.5878 42.0145 75.6394 42.4893 75.6981 43.0329C75.7493 43.1144 75.7987 43.2109 75.8464 43.3222C75.9024 43.427 75.953 43.5463 75.9982 43.6801L76.0714 43.7339C76.1161 43.7391 76.2434 43.5837 76.4533 43.2678C76.6715 42.9453 76.9723 42.4622 77.3556 41.8186C77.4106 41.7342 77.476 41.6246 77.5519 41.4897C77.6286 41.3474 77.7191 41.184 77.8233 40.9995C77.8657 40.959 77.9135 40.9041 77.9668 40.8346C78.02 40.7652 78.0825 40.6817 78.1541 40.5841C78.2058 40.4616 78.2801 40.3076 78.3769 40.1223C78.4744 39.9294 78.5945 39.7052 78.7371 39.4495C78.8536 39.2891 78.9856 39.0927 79.1331 38.8603C79.2889 38.6212 79.4609 38.3387 79.6493 38.0128C79.6619 37.9688 79.8275 37.7423 80.1463 37.3331C80.4734 36.9174 80.9415 36.3252 81.5507 35.5565C81.6215 35.4664 81.6934 35.3991 81.7665 35.3546C81.8404 35.3027 81.9072 35.2802 81.9669 35.2871Z" fill="#F1F2F2"/>
<path d="M83.2073 38.9125L83.1115 38.1642C83.1733 38.0202 83.2351 37.8761 83.2969 37.7321C83.3595 37.5805 83.418 37.4323 83.4724 37.2874C83.529 37.1881 83.6126 37.1184 83.7229 37.0783C83.8416 37.0315 83.9904 37.0185 84.1694 37.0392C84.2365 37.047 84.3389 37.0438 84.4766 37.0295C84.6216 37.016 84.724 37.0128 84.7837 37.0197C84.8508 37.0274 84.9343 37.09 85.0342 37.2075C85.1342 37.3249 85.2056 37.3936 85.2487 37.4138C85.3051 37.3825 85.3758 37.3264 85.4606 37.2455C85.5528 37.1655 85.6634 37.0573 85.7923 36.921C85.9029 36.8128 86.0072 36.7266 86.1052 36.6624C86.2033 36.5981 86.3062 36.5571 86.414 36.5394C86.5265 36.6129 86.6253 36.6735 86.7106 36.7211C86.7593 36.757 86.7891 36.7945 86.7997 36.8335C86.8178 36.8734 86.823 36.927 86.8154 36.9941C86.8111 37.0314 86.7831 37.1114 86.7313 37.2339C86.6804 37.349 86.6057 37.5067 86.5072 37.707C86.3996 37.9213 86.3149 38.1005 86.2531 38.2446C86.1913 38.3886 86.1483 38.5008 86.124 38.5812C85.9925 38.7399 85.8851 38.8862 85.8018 39.0202C85.7268 39.1476 85.6825 39.271 85.6688 39.3904C85.6518 39.5396 85.6709 39.7687 85.7263 40.0775C85.7825 40.3789 85.8713 40.7597 85.9925 41.2198C86.1629 41.8444 86.334 42.4955 86.5059 43.1732C86.6478 43.9155 86.8034 44.6366 86.9727 45.3367C87.1429 46.0293 87.3273 46.6971 87.5258 47.3401C87.7284 48.0138 87.9013 48.5177 88.0444 48.8518C88.1876 49.186 88.3039 49.3582 88.3934 49.3686C88.468 49.3772 88.5249 49.3422 88.5641 49.2636C88.6116 49.1784 88.646 49.0425 88.6673 48.8559C88.6759 48.7813 88.6944 48.6852 88.723 48.5675C88.759 48.4507 88.8074 48.324 88.8684 48.1874C88.9585 47.9937 89.0479 47.7735 89.1366 47.5267C89.2555 47.1473 89.3614 46.8155 89.4543 46.5314C89.5547 46.2482 89.6392 46.0047 89.7078 45.8009C89.753 45.6701 89.8189 45.3904 89.9057 44.9619C89.9924 44.5335 90.0967 43.952 90.2184 43.2176C90.2269 43.143 90.25 43.0398 90.2877 42.9081C90.3329 42.7772 90.3765 42.6273 90.4185 42.4582C90.4679 42.2901 90.5069 42.1471 90.5355 42.0295C90.5649 41.9044 90.5851 41.7933 90.5962 41.6963C90.6158 41.5247 90.6262 41.2688 90.6273 40.9287C90.6292 40.5811 90.64 40.3215 90.6596 40.1499C90.8252 39.6927 90.982 39.2459 91.1301 38.8094C91.2565 38.4309 91.3715 38.1191 91.475 37.874C91.5794 37.6215 91.6654 37.4311 91.733 37.3028C91.883 37.048 92.0548 36.8335 92.2485 36.6594C92.4431 36.4778 92.652 36.3357 92.8753 36.233L92.9648 36.2433C93.0393 36.252 93.0861 36.2725 93.1051 36.305C93.1315 36.3383 93.1409 36.3885 93.1332 36.4557C93.078 36.608 93.0308 36.7235 92.9916 36.8022C92.9986 36.9391 93.0048 37.0834 93.0101 37.2353C92.9664 37.4192 92.9224 37.5729 92.8781 37.6963C92.8538 37.7767 92.8244 37.9018 92.7898 38.0717C92.7562 38.2341 92.7257 38.4347 92.6984 38.6735C92.6882 38.7631 92.6548 38.9558 92.5983 39.2517C92.5427 39.5401 92.4569 39.9271 92.341 40.4127C92.2161 41.1089 92.0804 41.8001 91.934 42.4863C91.795 43.1734 91.6524 43.86 91.5059 44.5462C91.3508 45.375 91.1776 46.1299 90.9864 46.811C90.7961 47.4845 90.5916 48.0846 90.3727 48.6112C90.2979 48.9352 90.1853 49.2926 90.0348 49.6835C89.8918 50.0752 89.7152 50.497 89.5049 50.949L89.0941 51.4685C89.0684 51.4957 88.8224 51.5655 88.3562 51.6779C87.8908 51.7827 87.6321 51.8322 87.5799 51.8261C87.468 51.8132 87.3169 51.6482 87.1264 51.3313C86.9368 51.0069 86.7236 50.5248 86.487 49.885C86.2584 49.3065 86.0784 48.8321 85.9469 48.4615C85.8164 48.0834 85.7389 47.8023 85.7146 47.618C85.7074 47.5491 85.6948 47.4607 85.677 47.3528C85.6591 47.2449 85.6391 47.1216 85.6172 46.983C85.5056 46.6374 85.3619 46.2087 85.1862 45.6969C85.0179 45.1859 84.8225 44.5811 84.6001 43.8825C84.5667 43.7122 84.5175 43.5478 84.4525 43.389C84.3958 43.2237 84.3214 43.0487 84.2291 42.8642L84.147 42.8887C84.0777 43.0319 84.0042 43.2124 83.9264 43.4302C83.8487 43.648 83.7583 43.9097 83.6554 44.2153C83.5578 44.4082 83.459 44.5782 83.3591 44.7254C83.1978 45.1452 83.0173 45.6007 82.8176 46.0917C82.6179 46.5827 82.4028 47.1097 82.1722 47.6727C82.1053 47.8615 82.0376 48.0578 81.9689 48.2616C81.9003 48.4653 81.8234 48.6757 81.7381 48.8926L81.4946 49.2387C81.4392 49.4591 81.3805 49.6753 81.3185 49.8874C81.2466 50.053 81.1556 50.2542 81.0455 50.4909C80.9436 50.7211 80.8176 50.9975 80.6673 51.3204C80.6254 51.4894 80.5549 51.6098 80.4561 51.6815C80.3638 51.7615 80.2427 51.7967 80.0927 51.7868C80.0744 51.815 80.0411 51.8414 79.993 51.866C79.944 51.8982 79.8655 51.9231 79.7577 51.9409C79.6815 51.9471 79.6302 51.8996 79.604 51.7983C79.577 51.7044 79.5737 51.568 79.5941 51.3889C79.6061 51.2844 79.6435 51.1224 79.7063 50.9029C79.7692 50.6833 79.8575 50.4062 79.9713 50.0716C80.0977 49.6931 80.1956 49.3982 80.2651 49.187C80.3429 48.9692 80.3926 48.8313 80.4144 48.7733C80.4647 48.5977 80.5251 48.3666 80.5956 48.0799C80.6662 47.7932 80.7456 47.4621 80.8338 47.0867C80.8598 46.9915 80.8958 46.8747 80.9418 46.7363C80.9962 46.5914 81.0605 46.425 81.1349 46.237C81.1893 46.0921 81.3099 45.6978 81.4968 45.0541C81.6845 44.4029 81.9352 43.4982 82.2489 42.3399C82.575 41.2058 82.8945 40.0633 83.2073 38.9125Z" fill="#F1F2F2"/>
<path fill-rule="evenodd" clip-rule="evenodd" d="M31.5111 56.3188C31.4794 56.5822 31.2402 56.7696 30.9768 56.7375L30.4995 56.6793C30.2361 56.6471 30.0483 56.4076 30.08 56.1442C30.1117 55.8809 30.3509 55.6934 30.6143 55.7255L31.0916 55.7838C31.355 55.8159 31.5428 56.0554 31.5111 56.3188Z" fill="white"/>
<path fill-rule="evenodd" clip-rule="evenodd" d="M92.7274 63.9221C92.6951 64.1856 92.4554 64.3727 92.1921 64.34L91.7206 64.2815C91.4573 64.2488 91.27 64.0086 91.3023 63.7452C91.3346 63.4817 91.5743 63.2946 91.8376 63.3273L92.3091 63.3858C92.5724 63.4185 92.7597 63.6586 92.7274 63.9221ZM90.3748 63.63C90.3425 63.8935 90.1029 64.0806 89.8395 64.0479L88.8967 63.9308C88.6333 63.8981 88.4461 63.658 88.4784 63.3945C88.5107 63.131 88.7503 62.9439 89.0137 62.9766L89.9565 63.0937C90.2199 63.1264 90.4071 63.3665 90.3748 63.63ZM87.5509 63.2793C87.5186 63.5428 87.2789 63.7299 87.0156 63.6972L86.0727 63.5801C85.8094 63.5474 85.6221 63.3073 85.6544 63.0438C85.6867 62.7803 85.9264 62.5932 86.1897 62.6259L87.1326 62.743C87.3959 62.7757 87.5832 63.0158 87.5509 63.2793ZM84.7269 62.9287C84.6946 63.1922 84.4549 63.3792 84.1916 63.3465L83.2487 63.2295C82.9854 63.1968 82.7981 62.9567 82.8304 62.6932C82.8627 62.4297 83.1024 62.2426 83.3657 62.2753L84.3086 62.3924C84.5719 62.4251 84.7592 62.6652 84.7269 62.9287ZM81.9029 62.578C81.8706 62.8415 81.631 63.0286 81.3676 62.9959L80.4248 62.8788C80.1614 62.8461 79.9742 62.606 80.0065 62.3425C80.0388 62.079 80.2784 61.8919 80.5418 61.9246L81.4846 62.0417C81.748 62.0744 81.9353 62.3145 81.9029 62.578ZM79.079 62.2273C79.0467 62.4908 78.807 62.6779 78.5437 62.6452L77.6008 62.5281C77.3375 62.4954 77.1502 62.2553 77.1825 61.9918C77.2148 61.7283 77.4545 61.5413 77.7178 61.574L78.6607 61.691C78.924 61.7237 79.1113 61.9638 79.079 62.2273ZM76.255 61.8767C76.2227 62.1402 75.983 62.3273 75.7197 62.2946L74.7768 62.1775C74.5135 62.1448 74.3262 61.9047 74.3585 61.6412C74.3908 61.3777 74.6305 61.1906 74.8938 61.2233L75.8367 61.3404C76.1 61.3731 76.2873 61.6132 76.255 61.8767ZM73.431 61.526C73.3987 61.7895 73.1591 61.9766 72.8957 61.9439L71.9529 61.8268C71.6895 61.7941 71.5023 61.554 71.5346 61.2905C71.5669 61.027 71.8065 60.8399 72.0699 60.8726L73.0128 60.9897C73.2761 61.0224 73.4634 61.2625 73.431 61.526ZM70.6071 61.1753C70.5748 61.4388 70.3351 61.6259 70.0718 61.5932L69.1289 61.4762C68.8656 61.4435 68.6783 61.2033 68.7106 60.9399C68.7429 60.6764 68.9826 60.4893 69.2459 60.522L70.1888 60.639C70.4521 60.6717 70.6394 60.9119 70.6071 61.1753ZM67.7831 60.8247C67.7508 61.0882 67.5111 61.2753 67.2478 61.2426L66.3049 61.1255C66.0416 61.0928 65.8543 60.8527 65.8866 60.5892C65.9189 60.3257 66.1586 60.1386 66.4219 60.1713L67.3648 60.2884C67.6281 60.3211 67.8154 60.5612 67.7831 60.8247ZM64.9591 60.474C64.9268 60.7375 64.6872 60.9246 64.4238 60.8919L63.481 60.7748C63.2176 60.7421 63.0304 60.502 63.0627 60.2385C63.095 59.975 63.3346 59.7879 63.598 59.8206L64.5409 59.9377C64.8042 59.9704 64.9915 60.2105 64.9591 60.474ZM62.1352 60.1234C62.1029 60.3869 61.8632 60.574 61.5999 60.5413L60.657 60.4242C60.3937 60.3915 60.2064 60.1514 60.2387 59.8879C60.271 59.6244 60.5107 59.4373 60.774 59.47L61.7169 59.5871C61.9802 59.6198 62.1675 59.8599 62.1352 60.1234ZM59.3112 59.7727C59.2789 60.0362 59.0392 60.2233 58.7759 60.1906L57.833 60.0735C57.5697 60.0408 57.3824 59.8007 57.4147 59.5372C57.447 59.2737 57.6867 59.0866 57.95 59.1193L58.8929 59.2364C59.1562 59.2691 59.3435 59.5092 59.3112 59.7727ZM56.4872 59.422C56.4549 59.6855 56.2153 59.8726 55.9519 59.8399L55.0091 59.7228C54.7457 59.6902 54.5585 59.45 54.5908 59.1865C54.6231 58.9231 54.8627 58.736 55.1261 58.7687L56.069 58.8857C56.3323 58.9184 56.5196 59.1585 56.4872 59.422ZM53.6633 59.0714C53.631 59.3349 53.3913 59.522 53.128 59.4893L52.1851 59.3722C51.9218 59.3395 51.7345 59.0994 51.7668 58.8359C51.7991 58.5724 52.0388 58.3853 52.3021 58.418L53.245 58.5351C53.5083 58.5678 53.6956 58.8079 53.6633 59.0714ZM50.8393 58.7207C50.807 58.9842 50.5673 59.1713 50.304 59.1386L49.3611 59.0215C49.0978 58.9888 48.9105 58.7487 48.9428 58.4852C48.9751 58.2217 49.2148 58.0346 49.4781 58.0673L50.421 58.1844C50.6843 58.2171 50.8716 58.4572 50.8393 58.7207ZM48.0153 58.3701C47.983 58.6335 47.7434 58.8206 47.48 58.7879L46.5372 58.6709C46.2738 58.6382 46.0866 58.3981 46.1189 58.1346C46.1512 57.8711 46.3908 57.684 46.6542 57.7167L47.597 57.8338C47.8604 57.8664 48.0477 58.1066 48.0153 58.3701ZM45.1914 58.0194C45.1591 58.2829 44.9194 58.47 44.6561 58.4373L43.7132 58.3202C43.4499 58.2875 43.2626 58.0474 43.2949 57.7839C43.3272 57.5204 43.5669 57.3333 43.8302 57.366L44.7731 57.4831C45.0364 57.5158 45.2237 57.7559 45.1914 58.0194ZM42.3674 57.6687C42.3351 57.9322 42.0954 58.1193 41.8321 58.0866L40.8892 57.9695C40.6259 57.9368 40.4386 57.6967 40.4709 57.4332C40.5032 57.1697 40.7429 56.9826 41.0062 57.0153L41.9491 57.1324C42.2124 57.1651 42.3997 57.4052 42.3674 57.6687ZM39.5434 57.3181C39.5111 57.5816 39.2715 57.7687 39.0081 57.736L38.0653 57.6189C37.8019 57.5862 37.6147 57.3461 37.647 57.0826C37.6793 56.8191 37.9189 56.632 38.1823 56.6647L39.1251 56.7818C39.3885 56.8145 39.5758 57.0546 39.5434 57.3181ZM36.7195 56.9674C36.6872 57.2309 36.4475 57.418 36.1842 57.3853L35.2413 57.2682C34.978 57.2355 34.7907 56.9954 34.823 56.7319C34.8553 56.4684 35.095 56.2813 35.3583 56.314L36.3012 56.4311C36.5645 56.4638 36.7518 56.7039 36.7195 56.9674ZM33.8955 56.6167C33.8632 56.8802 33.6235 57.0673 33.3602 57.0346L32.8888 56.9761C32.6254 56.9434 32.4382 56.7033 32.4705 56.4398C32.5028 56.1763 32.7424 55.9892 33.0058 56.0219L33.4772 56.0804C33.7405 56.1131 33.9278 56.3533 33.8955 56.6167Z" fill="white"/>
<path fill-rule="evenodd" clip-rule="evenodd" d="M94.1634 64.1012C94.1317 64.3645 93.8925 64.552 93.6291 64.5199L93.1518 64.4616C92.8884 64.4295 92.7006 64.1899 92.7323 63.9266C92.764 63.6632 93.0032 63.4758 93.2666 63.5079L93.7439 63.5661C94.0073 63.5982 94.1951 63.8378 94.1634 64.1012Z" fill="white"/>
</g>
<defs>
<filter id="filter0_d" x="17.0054" y="13.0245" width="107.689" height="79.4504" filterUnits="userSpaceOnUse" color-interpolation-filters="sRGB">
<feFlood flood-opacity="0" result="BackgroundImageFix"/>
<feColorMatrix in="SourceAlpha" type="matrix" values="0 0 0 0 0 0 0 0 0 0 0 0 0 0 0 0 0 0 127 0"/>
<feOffset dx="3" dy="3"/>
<feGaussianBlur stdDeviation="2"/>
<feColorMatrix type="matrix" values="0 0 0 0 0 0 0 0 0 0 0 0 0 0 0 0 0 0 0.5 0"/>
<feBlend mode="normal" in2="BackgroundImageFix" result="effect1_dropShadow"/>
<feBlend mode="normal" in="SourceGraphic" in2="effect1_dropShadow" result="shape"/>
</filter>
<linearGradient id="paint0_linear" x1="52.6586" y1="6.7307" x2="88.9452" y2="97.0652" gradientUnits="userSpaceOnUse">
<stop stop-color="#E20613"/>
<stop offset="0.31" stop-color="#CF0B14"/>
<stop offset="0.93" stop-color="#9F1815"/>
<stop offset="1" stop-color="#991915"/>
</linearGradient>
<clipPath id="clip0">
<rect width="114.836" height="90.3604" fill="white" transform="matrix(0.987011 0.160653 -0.159113 0.98726 14.6577 0)"/>
</clipPath>
</defs>
</svg>
