<svg width="205" height="162" fill="none" xmlns="http://www.w3.org/2000/svg"><g filter="url(#filter0_d)"><path d="M53.656 155.592c-27.06 0-44.945-10.665-50.118-20.575-1.747-3.354-2.115-6.642-1.085-9.784 1.838-5.588 8.075-10.78 17.554-14.617 9.48-3.838 21.486-5.98 33.65-5.98 12.163 0 24.115 2.126 33.648 5.98 9.534 3.854 15.727 9.029 17.56 14.617 1.025 3.125.661 6.414-1.085 9.784-5.173 9.91-23.063 20.575-50.124 20.575z" fill="url(#paint0_linear)"/></g><g filter="url(#filter1_i)"><path d="M53.654 154.453c-26.16 0-43.454-10.328-48.454-19.895-1.686-3.262-2.044-6.42-1.046-9.442 1.773-5.403 7.803-10.421 16.968-14.134 9.165-3.712 20.775-5.783 32.538-5.783 11.762 0 23.318 2.054 32.537 5.783 9.219 3.73 15.184 8.698 16.974 14.134.992 3.022.64 6.197-1.052 9.442-5.006 9.583-22.3 19.895-48.465 19.895z" fill="#fff"/></g><path opacity=".22" d="M85.335 127.708c-2.533-6.218-16.562-10.573-31.681-10.573-15.12 0-29.148 4.349-31.675 10.573-3.015 7.404 10.894 16.02 31.675 16.02 20.78 0 34.696-8.616 31.68-16.02z" fill="url(#paint1_linear)"/><g filter="url(#filter2_f)" opacity=".34"><path d="M99.032 139.657c-4.772 1.957-17.354-3.534-23.048-6.523l2.17-2.99 25.758 4.349c.362.906-.108 3.207-4.88 5.164z" fill="#341E01" fill-opacity=".6"/></g><g filter="url(#filter3_f)" opacity=".34"><path d="M100.932 120.897c11.388 7.339-39.045 17.395-40.13 17.395l12.473-30.441 20.065 1.359 9.219 6.252-1.627 5.435z" fill="#2B1800" fill-opacity=".7"/></g><path style="mix-blend-mode:multiply" d="M53.124 147.65c18.018 0 32.625-8.005 32.625-17.879s-14.607-17.878-32.625-17.878S20.5 119.897 20.5 129.771s14.606 17.879 32.624 17.879z" fill="url(#paint2_radial)"/><path d="M92.073 93.175s0 12.073-2.674 21.906c0 0-6.247 11.323-14.571 17.286 0 0-7.831 6.458-21.692 6.458a39.307 39.307 0 01-21.692-6.458c-8.324-5.979-14.566-17.286-14.566-17.286-2.7-9.861-2.7-21.906-2.7-21.906" fill="url(#paint3_radial)"/><path style="mix-blend-mode:multiply" d="M86.529 119.623s-7.012 2.435-7.945 3.55c0 0-2.17 4.756-2.62 8.3 4.415-3.511 8.157-8.328 10.565-11.85z" fill="url(#paint4_linear)"/><path d="M53.125 126.877c16.497 0 31.117-4.735 36.274-11.823 2.674-9.839 2.674-21.88 2.674-21.88H14.178s0 12.068 2.673 21.902c4.957 7.061 19.778 11.801 36.274 11.801z" fill="url(#paint5_linear)"/><path style="mix-blend-mode:multiply" opacity=".3" d="M87.14 106.438s-.89-4.3-8.72-4.398c-7.831-.097-10.098 6.464-10.098 11.791 0 4.832 1.16 12.622 7.777 13.638 6.616 1.017 13.204-6.126 10.19-7.327a5.416 5.416 0 00-5.158.864c-1.594 1.386-6.204 4.131-6.204-5.713 0-4.963 2.023-7.61 3.954-7.55 1.502.054 2.95 1.745 3.335 5.262 0 0 2.516 1.527 4.072-.408 1.557-1.935.852-6.159.852-6.159z" fill="url(#paint6_linear)"/><path style="mix-blend-mode:multiply" opacity=".4" d="M82.436 111.455a35.836 35.836 0 00-3.465 9.833 50.32 50.32 0 007.163-3.533 22.75 22.75 0 002.018-3.892c.58-2.012-5.716-2.408-5.716-2.408z" fill="url(#paint7_linear)"/><path d="M53.125 107.9c21.51 0 38.948-6.605 38.948-14.753S74.635 78.394 53.125 78.394 14.178 85 14.178 93.147 31.615 107.9 53.125 107.9z" fill="url(#paint8_linear)"/><path d="M53.123 106.658c20.142 0 36.47-6.184 36.47-13.813 0-7.628-16.328-13.812-36.47-13.812-20.14 0-36.469 6.184-36.469 13.813 0 7.628 16.328 13.812 36.47 13.812z" fill="url(#paint9_linear)"/><path d="M83.548 116.338a2.455 2.455 0 01-1.627-2.604 9.792 9.792 0 013.47-6.425c1.736-1.511 4.795-2.435 8.168-2.435 8.324 0 16.138 6.327 16.138 15.655 0 6.398-4.804 10.72-7.494 12.296-1.595.94-4.339 1.631-7.392 1.631-8.373 0-13.676-6.067-15.726-8.98a2.583 2.583 0 01.103-3.142 12.35 12.35 0 012.456-2.256 6.986 6.986 0 014.962-1.272s1.546 4.533 5.602 5.882c5.423 1.81 8.742 0 8.742 0s2.343-9.241-7.05-11.416c-6.713-1.549-5.027 4.762-10.303 3.12l-.05-.054z" fill="url(#paint10_linear)"/><g filter="url(#filter4_f)"><path d="M95.508 134.486c-6.507.653-13.015-4.982-15.455-7.882 2.386 2.392 5.896 4.704 10.303 4.621 4.356-.082 7.864-1.087 10.575-6.251.606-1.155 3.073 4.077 4.067 5.436-.452 1.087-2.982 3.424-9.49 4.076z" fill="url(#paint11_linear)"/></g><g filter="url(#filter5_f)"><path d="M82.6 115.321a2.45 2.45 0 001.27 1.015l.05.054c.486.267 1.966.111 2.645 0l-.85-9.083a9.79 9.79 0 00-3.472 6.425c-.065.555.06 1.115.357 1.589z" fill="url(#paint12_linear)" fill-opacity=".28"/></g><path d="M100.933 124.612s.054-.316.103-.881c.067-.77.067-1.545 0-2.316a9.801 9.801 0 00-.797-3.12 7.537 7.537 0 00-.922-1.549 6.923 6.923 0 00-1.29-1.326 10.018 10.018 0 00-3.254-1.713 14.515 14.515 0 00-1.654-.429 6.695 6.695 0 00-1.508-.136 4.158 4.158 0 00-2.169.62c-.233.146-.412.277-.542.369l-.18.147.158-.168a4.72 4.72 0 01.493-.435 4.128 4.128 0 012.208-.837 7.206 7.206 0 011.594.048c.585.078 1.163.199 1.73.365.61.176 1.203.405 1.773.685a8.847 8.847 0 011.67 1.087 7.8 7.8 0 012.305 3.109 9.56 9.56 0 01.667 3.294c.023.787-.037 1.574-.179 2.348-.051.284-.12.563-.206.838z" fill="#fff"/><path d="M100.936 124.607s-3.319 1.832-8.742 0c-4.056-1.348-5.602-5.882-5.602-5.882a6.99 6.99 0 00-4.962 1.272 12.198 12.198 0 00-2.673 2.533c1.29 2.789 3.639 5.947 7.326 7.339 8.96 3.408 14.04-2.702 14.653-5.262z" fill="url(#paint13_linear)"/><path d="M78.97 122.552s.201.391.592 1.049c.195.326.445.723.754 1.153.309.429.677.902 1.084 1.397.461.524.962 1.013 1.497 1.462a12.85 12.85 0 001.909 1.321c.175.104.356.198.542.282a5.7 5.7 0 00.542.256c.19.071.39.168.57.223l.613.19c.813.269 1.647.469 2.494.598l1.28.13h1.269c.417 0 .835-.103 1.247-.146.412-.044.792-.196 1.188-.283.396-.087.743-.277 1.084-.402.342-.125.694-.326 1.02-.5.325-.174.629-.375.91-.577.283-.201.543-.402.798-.619a12.23 12.23 0 001.242-1.256c.163-.212.325-.402.455-.587l.342-.544a7.07 7.07 0 00.385-.793l.109-.299-.082.304a5.29 5.29 0 01-.32.837l-.309.544c-.119.201-.271.402-.417.63-.359.488-.76.943-1.199 1.359-.239.234-.542.441-.797.674-.255.234-.602.414-.916.636-.315.223-.684.37-1.036.544-.353.174-.76.304-1.155.44a11.245 11.245 0 01-2.532.49c-.44.038-.885.032-1.33.027l-1.334-.114a16.62 16.62 0 01-2.57-.653l-.613-.201c-.228-.071-.407-.168-.613-.25-.206-.081-.39-.179-.58-.272a5.068 5.068 0 01-.542-.304 12.536 12.536 0 01-3.411-2.995 15.427 15.427 0 01-1.714-2.718 10.84 10.84 0 01-.374-.81l-.081-.223z" fill="#fff"/><path style="mix-blend-mode:screen" d="M68.336 124.087a67.027 67.027 0 005.314-1.152l.732-16.498-5.629 1.38-.417 16.27z" fill="url(#paint14_linear)"/><path style="mix-blend-mode:screen" d="M66.04 124.463l1.283-.202.715-16.362-1.625.392-.374 16.172z" fill="url(#paint15_linear)"/><g filter="url(#filter6_f)"><ellipse cx="53.754" cy="92.087" rx="37.147" ry="13.59" fill="#fff"/></g><ellipse cx="53.754" cy="92.632" rx="37.147" ry="13.59" fill="#9C6720"/><g filter="url(#filter7_f)"><ellipse cx="53.754" cy="92.629" rx="34.435" ry="12.502" fill="#E4AA60"/></g><g filter="url(#filter8_f)"><ellipse cx="53.752" cy="92.63" rx="28.47" ry="9.785" fill="#F1C998"/></g><g filter="url(#filter9_f)"><ellipse cx="53.756" cy="92.628" rx="23.59" ry="7.067" fill="#FFE0BA"/></g><g filter="url(#filter10_f)"><path d="M93.883 104.861c8.324 0 15.867 6.599 15.867 15.927 0 6.398-4.501 10.22-7.191 11.796" stroke="url(#paint16_linear)" stroke-opacity=".5"/></g><g filter="url(#filter11_f)"><path d="M91.79 93.174c0 8.147-17.438 14.753-38.948 14.753s-38.947-6.606-38.947-14.753" stroke="#fff" stroke-width="2"/></g><g clip-path="url(#clip0)"><g filter="url(#filter12_d)"><path fill-rule="evenodd" clip-rule="evenodd" d="M91.725 15.228l97.052 8.888c3.096.286 5.535 3.494 4.678 6.474l-15.639 54.195c-.857 2.98-3.41 5.156-6.477 4.658l-53.989-8.76-16.743 11.942 3.928-14.022-13.166-2.136c-3.094-.502-4.59-3.383-4.679-6.469l-1.42-50.114c-.114-3.094 3.359-4.942 6.455-4.656z" fill="url(#paint17_linear)"/></g><path d="M114.056 43.639c-2.114-.254-3.877-.94-5.29-2.057.054-.448.302-1.14.744-2.077.44.63 1.066 1.17 1.878 1.618.836.43 1.751.705 2.747.824 1.302.156 2.342-.008 3.122-.492.803-.502 1.266-1.27 1.39-2.308.1-.833-.047-1.583-.441-2.249-.392-.686-1.007-1.234-1.845-1.644a3.54 3.54 0 00-1.694.199c-.517.185-.903.48-1.158.882-.162-.02-.347-.114-.553-.283-.205-.19-.301-.335-.288-.437.236-.425.632-.8 1.186-1.126l6.552-4.07c-.176-.084-2.144-.35-5.905-.802-.732-.087-1.327-.117-1.784-.09a3.62 3.62 0 00-1.24.285 8.397 8.397 0 01-.218-1.542 9.605 9.605 0 01.038-1.604c.746.316 2.166.6 4.26.85 1.586.191 2.813.276 3.681.257.891-.038 1.622-.198 2.192-.48.344.227.596.536.755.926.18.393.243.813.189 1.26a2.657 2.657 0 01-.64 1.47c-.359.41-.962.885-1.81 1.422l-3.008 1.867c1.52.223 2.706.82 3.56 1.788.873.97 1.229 2.127 1.068 3.469-.195 1.626-.933 2.796-2.215 3.508-1.258.695-3.016.907-5.273.636zm18.027 1.646a9.924 9.924 0 01.751-.494c.145-.077.252-.154.321-.23a.421.421 0 00.116-.25c.028-.322.042-.529.043-.618l.018-.206c.058-.66.12-1.172.186-1.54.067-.367.132-.593.195-.678l.006-.31-.056-.078.017-.196c.013-.06.021-.112.024-.153.033-.377-.114-.632-.443-.765-.321-.132-.468-.356-.44-.672.008-.096.115-.204.319-.324a7.09 7.09 0 01.891-.44c.078-.332.162-.695.251-1.088.09-.393.194-.827.311-1.3a5.478 5.478 0 01-.043-.222.806.806 0 01-.006-.167 2.495 2.495 0 01.416-1.198 2.78 2.78 0 01.265-.287c.106-.109.234-.225.384-.35.119-.094.209-.176.271-.246.062-.078.095-.14.099-.188a.158.158 0 00-.06-.14c-.039-.039-.099-.061-.182-.069-.254-.022-.636.027-1.146.148-.509.115-.887.161-1.135.14a.43.43 0 01-.183-.048c-.033-.024-.047-.06-.043-.108.012-.137.03-.256.052-.358a.772.772 0 01.071-.212 1.47 1.47 0 00.291-.233.39.39 0 00.124-.238c.003-.035.042-.076.115-.125.081-.048.202-.086.364-.113.648-.123 1.142-.218 1.48-.285l.592-.114a8.86 8.86 0 011.123-.108c.355-.018.684-.013.986.014.035.003.103.02.204.049a.493.493 0 00.206.018c.14-.008.286-.02.44-.034.041.004.16.035.356.094.196.052.47.128.822.228a4.98 4.98 0 00.252-.03c.2.018.362.063.488.136a.754.754 0 01.297.286c.095.029.187.047.276.055a.823.823 0 01.472.197c.143.11.261.262.355.457.081.187.141.372.18.555.04.177.052.357.036.543a2.383 2.383 0 01-.328 1.018c-.179.31-.436.591-.77.845a62.458 62.458 0 01-1.919 1.139 1.825 1.825 0 00-.232.156 3.037 3.037 0 01-.32.21c-.594.287-1.165.561-1.715.824a9.736 9.736 0 00-1.054.52c-.241.144-.365.25-.371.32a.502.502 0 00.143.385c.108.114.279.222.512.326.341.154.724.33 1.15.526.427.197.882.427 1.365.69a.826.826 0 01.168.098l.236.156c.573.272.986.581 1.24.929.261.34.374.72.337 1.14-.053.61-.658 1.141-1.813 1.593-1.149.452-2.845.828-5.09 1.128a2.563 2.563 0 01-.149.278 8.69 8.69 0 00-.138.267.467.467 0 01-.221.157.648.648 0 01-.316.045.374.374 0 01-.297-.171c-.068-.096-.107-.245-.117-.446-.051-.053-.094-.078-.129-.074l-.602.103a6.51 6.51 0 00-.395-.242.514.514 0 01-.151-.17.299.299 0 01-.046-.19.211.211 0 01.075-.149c.052-.03.124-.069.218-.116zm3.594-4.6c-.11-.01-.215.078-.314.263-.092.178-.178.45-.258.817l-.174 1.033-.172 1.022a6.287 6.287 0 00-.151.536l.012.105.079.048c.282-.05.595-.103.939-.156.234.021.373.013.418-.025.052-.044.632-.255 1.74-.635.471-.152.827-.3 1.068-.445.242-.152.369-.29.38-.413a.328.328 0 00-.074-.224 1.28 1.28 0 00-.26-.241 7.2 7.2 0 00-1.025-.65 10.861 10.861 0 00-1.461-.658 3.816 3.816 0 00-.251-.105 11.376 11.376 0 01-.336-.196.42.42 0 00-.16-.076zm2.675-7.544a2.732 2.732 0 00-.645.005c-.161.02-.28.069-.356.145-.059.05-.127.151-.203.304a7.96 7.96 0 00-.242.632 4.773 4.773 0 00-.106.499 8.81 8.81 0 00-.053.607 2.763 2.763 0 01-.277.432l.028.273c-.112.335-.195.605-.247.808a3.195 3.195 0 00-.087.407c-.009.103.005.177.043.221.037.045.094.071.17.078.068.006.237-.056.504-.184.275-.128.653-.323 1.133-.585l1.211-.65c.284-.156.447-.241.49-.258.099-.102.195-.201.286-.297l.286-.296a2.19 2.19 0 00.291-.358.752.752 0 00.11-.302.7.7 0 00-.117-.456 1.25 1.25 0 00-.434-.38 6.402 6.402 0 00-1.017-.38 88.985 88.985 0 00-.524-.192 1.379 1.379 0 00-.244-.073zm12.722-.758c.151.013.257.071.317.173.061.102.083.246.067.431-.031.35-.076.675-.137.974-.054.3-.129.562-.225.79-.129.285-.254.568-.376.848l-.354.84c-.113.108-.19.19-.229.25a8.197 8.197 0 01-.089.417.258.258 0 01-.096.147 1.808 1.808 0 01-.179.15 6.856 6.856 0 01-.104.24l-.152.308c-.209.334-.487.732-.832 1.193-.338.454-.747.978-1.229 1.572a5.02 5.02 0 00-.037.308l-.686 1.184c-.238.428-.451.842-.638 1.24-.18.393-.324.77-.432 1.135l-.148.505a2.09 2.09 0 00-.055.275c-.006.069.026.179.096.33.07.145.104.234.101.269-.013.15-.233.328-.66.533-.42.205-.678.3-.773.284-.102-.03-.21-.06-.325-.09a3.566 3.566 0 01-.305-.08.821.821 0 01-.318-.172.258.258 0 01-.095-.226c.006-.07.042-.2.108-.396.088-.296.188-.564.299-.803.118-.246.255-.469.411-.67l.035-.038a.394.394 0 01-.043-.107.594.594 0 00-.029-.138 8.243 8.243 0 01.485-1.036c.079-.103.16-.241.244-.414a5.26 5.26 0 00.241-.611 3.397 3.397 0 01-.544-.681 2.064 2.064 0 01-.27-.719 21.522 21.522 0 00-.178-.462 11.674 11.674 0 01-.232-.684l-.534-2.692a18.195 18.195 0 00-.029-.739 9.852 9.852 0 00-.091-.993l.114-.229-.156-.242a1.577 1.577 0 00-.001-.228 5.166 5.166 0 00-.009-.374 4.704 4.704 0 01-.01-.354l.022-.257c.022-.254.077-.447.165-.577a.498.498 0 01.363-.228 4.7 4.7 0 00.155.014 1.92 1.92 0 01.197.007c.082.007.343-.08.782-.263a.679.679 0 01.45.195.731.731 0 01.201.443c.012.098.014.237.005.416-.008.172-.022.378-.043.618-.012.13-.042.318-.091.563a7.243 7.243 0 00-.078.543c-.004.04-.005.09-.003.145.01.049.018.119.024.21a9.286 9.286 0 00-.001.84c.02.326.046.702.079 1.127.019.25.054.564.105.942l.177 1.302c.049.074.097.16.144.262.054.094.104.203.148.324l.069.048c.041.003.155-.142.34-.437.192-.302.457-.752.793-1.352a5.12 5.12 0 00.173-.306c.067-.132.146-.285.237-.456.038-.038.081-.09.128-.155s.103-.143.166-.234a6.37 6.37 0 01.193-.43c.085-.178.19-.387.315-.625.103-.15.22-.333.349-.55.138-.223.289-.486.454-.79.011-.04.157-.252.44-.636l1.248-1.664a.756.756 0 01.193-.19c.067-.05.128-.072.183-.067zm1.231 3.293l-.107-.684.16-.4c.054-.141.104-.278.15-.413a.426.426 0 01.225-.198.86.86 0 01.41-.047c.062.006.156 0 .282-.016.133-.016.227-.022.282-.017.062.006.141.06.235.166a.827.827 0 00.203.184.986.986 0 00.19-.16c.083-.075.182-.177.298-.306.099-.101.192-.183.281-.244a.728.728 0 01.281-.12c.105.064.197.117.277.158a.202.202 0 01.085.101.282.282 0 01.018.147 1.124 1.124 0 01-.071.222c-.044.107-.109.253-.194.44a9.142 9.142 0 00-.221.498c-.053.134-.09.238-.11.312a3.836 3.836 0 00-.286.41.885.885 0 00-.113.344c-.012.137.012.346.07.628.06.275.151.622.274 1.04.172.57.345 1.162.52 1.779.149.677.31 1.334.484 1.972.173.63.36 1.238.558 1.823.203.612.375 1.07.515 1.373.14.303.251.458.334.465.068.006.12-.028.154-.1.041-.08.07-.205.085-.377a2.13 2.13 0 01.044-.266c.03-.108.071-.225.124-.352a7.22 7.22 0 00.23-.612c.1-.351.189-.658.268-.92.085-.263.157-.488.215-.677.038-.121.092-.379.161-.774s.15-.93.244-1.607a1.81 1.81 0 01.056-.286c.038-.12.075-.26.109-.415a9.06 9.06 0 00.097-.396c.024-.116.04-.218.047-.307.014-.158.017-.393.01-.705a7.126 7.126 0 01.01-.715c.141-.423.274-.837.4-1.24.106-.35.204-.64.293-.867.09-.234.165-.41.223-.53.132-.237.285-.438.459-.602a2.18 2.18 0 01.565-.407l.083.007c.069.006.112.024.131.053.025.03.034.076.029.138a3.255 3.255 0 01-.121.32c.009.126.019.258.027.397-.035.17-.072.312-.11.426a6.564 6.564 0 00-.141.9c-.007.083-.033.26-.077.533a25.39 25.39 0 01-.208 1.071 56.576 56.576 0 01-.323 1.912c-.11.633-.224 1.266-.342 1.899a24.5 24.5 0 01-.421 2.09 14.98 14.98 0 01-.52 1.665c-.061.299-.155.63-.284.992a15.1 15.1 0 01-.456 1.173l-.365.487c-.023.025-.247.095-.673.21-.426.108-.662.16-.71.155-.104-.009-.247-.156-.43-.442-.182-.293-.39-.73-.624-1.31a39.635 39.635 0 01-.532-1.292c-.129-.343-.208-.599-.235-.767a4.037 4.037 0 00-.041-.242l-.064-.338a70.147 70.147 0 00-.428-1.168 163.05 163.05 0 01-.585-1.65 2.398 2.398 0 00-.148-.448 3.959 3.959 0 00-.218-.476l-.075.025c-.06.133-.123.3-.189.502-.067.202-.143.444-.23.727a4.374 4.374 0 01-.26.475c-.138.389-.293.81-.464 1.266l-.554 1.465c-.057.175-.114.357-.172.545-.058.189-.124.384-.197.585l-.215.323c-.046.203-.094.403-.146.6-.062.153-.141.34-.236.56-.088.213-.197.47-.327.77-.035.155-.096.267-.186.336a.444.444 0 01-.331.105.232.232 0 01-.09.075.585.585 0 01-.214.075c-.07.008-.119-.035-.145-.127a1.004 1.004 0 01-.02-.375c.009-.096.039-.246.092-.448.052-.203.126-.46.223-.77l.248-.818c.066-.201.108-.329.127-.383.042-.162.091-.375.149-.64.058-.265.123-.57.194-.916a6.74 6.74 0 01.091-.324c.046-.135.101-.289.165-.463.047-.134.148-.499.303-1.094.157-.601.365-1.437.625-2.507.271-1.048.537-2.103.796-3.166z" fill="#fff"/><path fill-rule="evenodd" clip-rule="evenodd" d="M99.946 47.013a.52.52 0 01-.58.454l-.52-.063a.522.522 0 11.126-1.034l.518.063c.286.035.49.294.456.58zm66.543 8.239a.52.52 0 01-.581.453l-.513-.063a.522.522 0 11.127-1.034l.513.063c.286.036.49.296.454.581zm-2.557-.316a.52.52 0 01-.582.453l-1.025-.127a.522.522 0 11.128-1.034l1.025.127a.522.522 0 01.454.581zm-3.069-.38a.522.522 0 01-.582.453l-1.025-.127a.521.521 0 11.127-1.034l1.025.127c.286.035.49.295.455.581zm-3.07-.38a.521.521 0 01-.582.453l-1.025-.127a.522.522 0 11.127-1.034l1.025.127c.287.035.49.295.455.581zm-3.07-.38a.52.52 0 01-.582.453l-1.024-.127a.522.522 0 11.127-1.034l1.025.127a.522.522 0 01.454.581zm-3.069-.38a.521.521 0 01-.582.453l-1.025-.127a.521.521 0 11.127-1.034l1.025.127c.286.035.49.295.455.581zm-3.07-.38a.521.521 0 01-.582.453l-1.025-.127a.521.521 0 11.127-1.034l1.025.127c.287.035.49.296.455.581zm-3.07-.38a.52.52 0 01-.582.453l-1.024-.127a.522.522 0 11.127-1.034l1.025.127a.522.522 0 01.454.581zm-3.069-.38a.521.521 0 01-.582.453l-1.025-.127a.521.521 0 11.127-1.034l1.025.127c.286.035.49.295.455.581zm-3.07-.38a.521.521 0 01-.582.453l-1.025-.127a.521.521 0 11.127-1.034l1.025.127c.287.035.49.296.455.581zm-3.07-.38a.52.52 0 01-.581.453l-1.025-.127a.522.522 0 11.127-1.034l1.025.127a.52.52 0 01.454.581zm-3.069-.38a.521.521 0 01-.582.453l-1.025-.127a.521.521 0 11.127-1.034l1.025.127c.286.035.49.295.455.581zm-3.07-.38a.521.521 0 01-.582.453l-1.025-.127a.522.522 0 01.127-1.034l1.025.127c.287.035.49.296.455.581zm-3.07-.38a.52.52 0 01-.581.453l-1.025-.127a.522.522 0 11.127-1.034l1.025.127a.52.52 0 01.454.581zm-3.069-.38a.521.521 0 01-.582.453l-1.025-.127a.521.521 0 11.127-1.034l1.025.127c.286.035.49.296.455.581zm-3.07-.38a.521.521 0 01-.582.453l-1.025-.127a.522.522 0 11.128-1.034l1.024.127c.287.035.49.296.455.581zm-3.07-.38a.52.52 0 01-.581.453l-1.025-.127a.522.522 0 11.127-1.034l1.025.127a.52.52 0 01.454.581zm-3.069-.38a.521.521 0 01-.582.453l-1.025-.127a.521.521 0 11.127-1.034l1.025.127c.286.035.49.296.455.581zm-3.07-.38a.52.52 0 01-.582.453l-1.025-.127a.522.522 0 11.128-1.034l1.024.127c.287.035.49.295.455.581zm-3.069-.38a.522.522 0 01-.582.453l-1.025-.127a.522.522 0 11.127-1.034l1.025.127c.286.035.49.295.455.581zm-3.07-.38a.521.521 0 01-.582.453l-1.025-.127a.522.522 0 11.127-1.034l1.025.127c.286.035.49.296.455.581zm-3.07-.38a.52.52 0 01-.582.453l-.512-.064a.521.521 0 11.127-1.034l.513.064a.522.522 0 01.454.581z" fill="#fff"/><path fill-rule="evenodd" clip-rule="evenodd" d="M168.049 55.446a.52.52 0 01-.58.454l-.519-.063a.521.521 0 11.125-1.034l.519.063c.286.035.49.295.455.58z" fill="#fff"/><path d="M103.87 69.172a7.83 7.83 0 01-2.364-.689 7.056 7.056 0 01-1.926-1.329 5.41 5.41 0 01.253-1.108 5.78 5.78 0 01.487-1.015 4.482 4.482 0 001.422 1.644 4.91 4.91 0 002.106.782c1.233.16 2.254-.214 3.064-1.123.809-.91 1.379-2.146 1.71-3.71-1.373.773-2.739 1.07-4.097.893-1.305-.17-2.293-.817-2.964-1.94-.672-1.123-.899-2.517-.682-4.18.146-1.123.49-2.093 1.033-2.91.561-.815 1.265-1.41 2.114-1.786.869-.394 1.813-.525 2.832-.392 1.108.145 2.048.605 2.819 1.383.771.776 1.311 1.798 1.618 3.065.328 1.248.391 2.651.188 4.21-.388 2.973-1.227 5.158-2.518 6.554-1.288 1.376-2.986 1.926-5.095 1.651zm2.223-7.226a8.094 8.094 0 002.814-1.092c.204-1.982.099-3.55-.314-4.703-.392-1.172-1.053-1.818-1.983-1.94-.822-.107-1.518.141-2.087.743-.566.582-.922 1.424-1.065 2.526-.163 1.247-.014 2.27.445 3.07.477.802 1.207 1.268 2.19 1.396zm12.608 9.159c-1.251-.163-2.307-.64-3.168-1.428-.857-.81-1.475-1.862-1.851-3.159-.358-1.294-.432-2.752-.221-4.373.223-1.705.733-3.182 1.532-4.43.82-1.268 1.85-2.202 3.091-2.801 1.242-.6 2.586-.805 4.034-.616 1.198.156 2.209.626 3.033 1.41.843.787 1.436 1.815 1.779 3.086.364 1.253.443 2.669.237 4.249-.227 1.746-.743 3.265-1.548 4.555-.786 1.293-1.783 2.252-2.992 2.877-1.205.604-2.514.814-3.926.63zm.703-2.255c1.34.174 2.487-.258 3.44-1.296.954-1.039 1.558-2.535 1.812-4.49.233-1.787.07-3.32-.491-4.599-.54-1.296-1.409-2.16-2.607-2.59-.876-.115-1.707.062-2.496.53-.788.468-1.451 1.164-1.989 2.088-.521.925-.862 2.012-1.025 3.26-.168 1.288-.147 2.454.062 3.496.228 1.045.619 1.878 1.174 2.5.573.624 1.28.991 2.12 1.1zm17-2.093c-.017.126.049.308.198.545.156.232.394.527.713.883.208.226.423.45.644.671.229.216.454.435.675.656.096.102.22.237.371.405.153.16.33.35.533.57.147.147.301.296.461.445.167.15.346.302.538.455.125.125.264.262.418.41.154.15.332.31.534.484.117.093.196.244.239.455.044.205.052.466.023.783l-.117.235-.101.035a.602.602 0 01-.244-.119 4.45 4.45 0 01-.359-.277 113.295 113.295 0 00-1.44-.92 5.332 5.332 0 01-.679-.473 5.96 5.96 0 01-.547-.534 3.938 3.938 0 00-.376-.366 9.014 9.014 0 00-.538-.446 7.438 7.438 0 01-.925-.814c-.304-.322-.554-.57-.75-.743-.196-.173-.334-.265-.417-.275a.532.532 0 00-.139.26c-.115.288-.246.652-.393 1.095-.141.438-.301.95-.48 1.536-.014.107-.043.184-.087.23a.194.194 0 01-.182.062c-.246-.032-.424-.116-.535-.252-.111-.137-.15-.325-.119-.565.042-.322.105-.657.189-1.005.09-.348.208-.711.354-1.09a5.73 5.73 0 00.125-.446 2.89 2.89 0 00.078-.375c.038-.29-.056-.556-.281-.797-.219-.24-.323-.405-.311-.493.018-.14.052-.257.103-.353a.612.612 0 01.223-.23c.225-.106.434-.207.627-.304a.18.18 0 00.101-.112.935.935 0 00.062-.252l.026-.199a8.99 8.99 0 01.027-.208c.092-.56.184-1.14.275-1.745l.027-.208a4.75 4.75 0 00.03-.372c.002-.115.012-.22.031-.314.019-.1.034-.19.045-.273a6.384 6.384 0 00-.062-.335 1.023 1.023 0 01-.003-.27 4.43 4.43 0 01.064-.348 5.47 5.47 0 00.065-.348 3.34 3.34 0 00.019-.373c.008-.16.018-.28.028-.362a1.5 1.5 0 01.237-.634c.134-.194.322-.378.563-.552.231-.15.46-.255.686-.315.233-.066.463-.084.691-.054.107.014.264.044.469.09.213.04.38.068.5.084.082.01.297.11.645.296.143.031.27.067.38.107.111.034.2.068.266.102l.346.228c.083.05.144.08.181.091.102.052.189.096.262.13a.638.638 0 01.186.121l.267.17c.107.065.226.138.357.22.212.143.406.303.582.48.182.178.35.366.504.566.172.254.294.497.367.731.073.228.095.45.067.664a2.815 2.815 0 01-.054.272 3.67 3.67 0 01-.098.382c-.043.18-.164.367-.362.56a4.8 4.8 0 01-.829.594 8.906 8.906 0 01-.868.455 3.194 3.194 0 01-.722.224 1.064 1.064 0 00-.21.136 2.122 2.122 0 01-.432.213c-.217.088-.51.194-.879.319-.672.227-1.147.374-1.425.44-.277.06-.423.147-.438.26zm-.4-4.693c.132-.073.256-.143.374-.211a.64.64 0 01.434-.078c.076.01.156.107.242.291.092.179.132.31.122.392a2.193 2.193 0 01-.087.296 13.73 13.73 0 01-.235.624c-.225.593-.358.968-.397 1.123-.039.15-.111.384-.217.704a3.228 3.228 0 00-.118.312c-.007.056-.003.099.013.126a.13.13 0 00.09.05 205.74 205.74 0 002.078-.73c.052-.006.108-.015.167-.026.06-.018.117-.036.171-.055l.165-.161a49.1 49.1 0 001.234-.6c.271-.157.478-.32.622-.487a1.01 1.01 0 00.251-.526c.031-.233-.075-.481-.317-.744-.242-.262-.62-.533-1.136-.812a8.18 8.18 0 00-1.207-.562 4.622 4.622 0 00-1.015-.267c-.404-.053-.719-.02-.946.098-.221.113-.349.308-.385.585a2.006 2.006 0 00-.017.499c.018.111.056.164.114.16zm7.189 6.453a3.233 3.233 0 00-.014-.637 3.27 3.27 0 01-.01-.656c.01-.082.033-.207.068-.376.042-.174.068-.302.079-.384.03-.234.06-.586.09-1.057.036-.477.069-.832.1-1.066.051-.39.139-.893.264-1.506.124-.612.282-1.33.473-2.152.077-.298.173-.52.289-.665.121-.145.264-.207.428-.185.057.007.105.052.146.134.047.083.092.205.136.364.127.158.255.303.386.436a.95.95 0 01.206.412c.038.152.044.33.017.532-.024.183-.099.44-.225.77-.12.324-.19.572-.213.742a7.571 7.571 0 01-.146.828 2.076 2.076 0 01-.161.499l-.144.29a25 25 0 01-.007.644c-.066.357-.127.73-.184 1.121a7.76 7.76 0 00-.061 1.205c.01.412.042.83.096 1.255.079.575.208 1.018.385 1.33.185.307.413.478.684.513.139.018.27.003.391-.045a1.22 1.22 0 00.382-.268c.097-.103.191-.21.282-.32.092-.11.182-.217.273-.32.095-.09.2-.205.314-.344.116-.146.244-.318.386-.518.156-.365.326-.731.509-1.099l.549-1.112.186-.467c.077-.196.157-.42.242-.672.161-.3.334-.723.521-1.27.193-.546.415-1.21.664-1.993.067-.12.148-.272.243-.46.101-.185.216-.401.345-.647a6.76 6.76 0 01.2-.427c.095-.193.226-.436.393-.728a.6.6 0 01.319-.305.926.926 0 01.508-.06c.12.016.195.106.225.27.037.16.035.397-.006.712-.078.6-.25 1.325-.515 2.176a28.71 28.71 0 01-1.078 2.883 5.04 5.04 0 01-.145.376 16.14 16.14 0 01-.21.502 3.992 3.992 0 01-.102.41c-.039.15-.09.322-.154.52-.147.34-.282.707-.404 1.102-.116.396-.221.809-.315 1.24a1.757 1.757 0 01-.075.278 8.145 8.145 0 01-.145.444 4.093 4.093 0 00-.207.849l-.006.49c.071.1.121.183.15.25.037.063.053.114.048.151a1.42 1.42 0 01-.247.344 3.206 3.206 0 01-.405.38 2.03 2.03 0 01-.496.33.787.787 0 01-.415.08c-.113-.014-.215-.098-.304-.25-.088-.16-.124-.302-.108-.429l.01-.075c.033-.06.065-.13.095-.21a.193.193 0 00-.016-.098 1.315 1.315 0 01-.02-.147l.075-.134c.034-.06.069-.13.105-.208l-.033-.12a1.02 1.02 0 00-.045-.17c.017-.036.036-.078.055-.127.02-.055.048-.122.084-.201.006-.05.008-.115.006-.192.012-.043.029-.105.053-.185l.089-.316c.039-.104.07-.19.091-.258a.784.784 0 00.051-.166.27.27 0 00-.012-.127c-.008-.04-.024-.068-.047-.084-.04.008-.1.049-.18.122a2.987 2.987 0 00-.262.312c-.123.157-.23.285-.319.382l-.17.19-.055.127c-.2.212-.377.388-.531.528a4.458 4.458 0 01-.344.282 2.098 2.098 0 01-.474.237 2.833 2.833 0 01-.626.15 2.3 2.3 0 00-.344.051 1.96 1.96 0 01-.622-.177.922.922 0 01-.382-.32 4.585 4.585 0 01-.665-1.617 5.768 5.768 0 01-.042-1.892zm8.226 5.511a9.211 9.211 0 01.71-.427 1.07 1.07 0 00.305-.201.386.386 0 00.116-.226 9.56 9.56 0 00.065-.57l.025-.189c.079-.605.156-1.077.232-1.413.076-.337.145-.543.206-.619l.018-.286-.048-.074.023-.18c.014-.056.023-.103.028-.14.045-.347-.081-.589-.377-.724-.291-.134-.417-.346-.38-.636.012-.089.114-.184.307-.288.194-.11.474-.233.838-.372.085-.303.176-.635.274-.994a70.2 70.2 0 01.338-1.188 4.775 4.775 0 01-.031-.207.71.71 0 01.001-.154 2.281 2.281 0 01.431-1.089 2.4 2.4 0 01.255-.256 4.9 4.9 0 01.367-.308c.113-.082.2-.154.259-.217.061-.069.094-.125.1-.17a.148.148 0 00-.051-.131c-.033-.037-.088-.06-.164-.07-.233-.03-.587 0-1.061.093-.474.086-.824.114-1.051.084a.404.404 0 01-.167-.05c-.029-.023-.041-.057-.035-.101.017-.126.037-.236.062-.329a.696.696 0 01.074-.193 1.3 1.3 0 00.277-.204.364.364 0 00.124-.215c.004-.032.041-.069.111-.11a.995.995 0 01.339-.091c.602-.089 1.06-.157 1.374-.206l.55-.083a8.145 8.145 0 011.038-.057c.327-.002.63.015.908.05.031.005.093.023.185.054a.457.457 0 00.19.025 13.1 13.1 0 00.406-.015c.038.005.146.038.324.1.179.056.428.136.748.242.071-.004.149-.01.234-.018.183.024.33.072.443.145a.7.7 0 01.263.275c.085.03.169.05.251.061a.752.752 0 01.427.2c.127.107.23.252.309.435.067.176.115.35.144.52.03.164.034.332.012.502a2.206 2.206 0 01-.343.928 2.684 2.684 0 01-.742.75 13.5 13.5 0 00-.509.28 51.34 51.34 0 01-1.304.697c-.061.03-.135.076-.219.135-.085.06-.186.12-.303.182-.558.242-1.095.474-1.612.695a8.976 8.976 0 00-.991.439c-.228.124-.346.218-.354.281a.46.46 0 00.116.362c.095.109.248.215.459.32.307.155.653.332 1.038.53.385.197.795.427 1.229.69.043.018.093.05.151.096l.212.153c.516.272.884.574 1.104.904.228.325.316.68.266 1.065-.073.562-.651 1.029-1.733 1.401-1.075.373-2.652.656-4.731.847a2.52 2.52 0 01-.148.25 6.12 6.12 0 00-.138.242.434.434 0 01-.21.137.596.596 0 01-.293.029.345.345 0 01-.267-.17c-.058-.09-.088-.23-.09-.416-.044-.05-.083-.075-.115-.073l-.559.072a5.804 5.804 0 00-.354-.239.466.466 0 01-.132-.161.276.276 0 01-.035-.178.192.192 0 01.075-.135c.049-.026.117-.058.206-.098zm3.491-4.109c-.101-.013-.201.064-.3.23-.092.162-.182.41-.27.745l-.201.947-.199.937a5.908 5.908 0 00-.16.489l.007.097.071.048c.261-.037.551-.073.871-.108.214.028.343.025.386-.008.05-.038.592-.211 1.627-.52.44-.122.773-.245 1.001-.37.229-.13.351-.252.366-.366a.3.3 0 00-.059-.21 1.2 1.2 0 00-.23-.232 6.605 6.605 0 00-.918-.64 9.958 9.958 0 00-1.319-.662 3.544 3.544 0 00-.227-.107 10.09 10.09 0 01-.302-.193.389.389 0 00-.144-.077zm2.762-6.86a2.509 2.509 0 00-.595-.02.547.547 0 00-.333.12.903.903 0 00-.199.273 7.45 7.45 0 00-.249.574 4.614 4.614 0 00-.117.456 8.62 8.62 0 00-.073.559c-.09.155-.181.284-.272.388l.016.252a11.38 11.38 0 00-.26.737 3.15 3.15 0 00-.097.372c-.012.095-.002.163.031.206.033.043.084.07.154.078.063.008.22-.042.472-.15.258-.108.613-.273 1.066-.497l1.141-.554c.267-.132.421-.205.462-.219a55 55 0 00.274-.262c.096-.09.187-.178.275-.263a2.03 2.03 0 00.283-.32.683.683 0 00.112-.274.644.644 0 00-.089-.425 1.156 1.156 0 00-.385-.368 5.935 5.935 0 00-.921-.39 86.1 86.1 0 00-.475-.197 1.301 1.301 0 00-.221-.076z" fill="#fff"/></g><g filter="url(#filter13_f)"><path d="M54.82 29.69c6.772-4.437 6.946-9.243 6.186-11.092-.521 4.437-3.04 7.503-4.233 8.482 0 0-5.535 4.24-6.512 5.219-.977.979-2.8 2.088-4.884 6.524-2.084 4.436-1.086 6.524 0 7.829 1.628 1.957 9.312 5.023 11.396 6.85 2.084 1.827 2.17 5.546 1.953 7.177-.65 2.61-1.041 2.675-5.21 8.155-4.167 5.48-3.906 9.895-3.255 11.417-.26-3.132 2.496-7.829 3.907-9.786 1.303-1.631 4.298-5.285 5.86-6.85 1.955-1.958 2.16-5.546 1.629-7.83-.532-2.283-2.93-5.545-7.489-7.176-4.558-1.63-5.644-4.132-6.186-5.545-.543-2.61.065-8.938 6.837-13.375z" fill="url(#paint18_linear)"/></g><g filter="url(#filter14_f)"><path d="M56.122 35.56c6.773-4.437 6.946-9.243 6.187-11.091-.521 4.436-3.04 7.502-4.233 8.481 0 0-5.536 4.24-6.512 5.22-.977.978-2.8 2.087-4.884 6.523-2.084 4.437-1.086 6.525 0 7.83 1.628 1.956 9.312 5.023 11.396 6.85 2.084 1.826 2.17 5.545 1.953 7.176-.65 2.61-1.042 2.675-5.21 8.155-4.167 5.48-3.907 9.895-3.255 11.417-.26-3.131 2.496-7.829 3.907-9.786 1.302-1.63 4.298-5.284 5.86-6.85 1.954-1.957 2.16-5.546 1.629-7.829-.532-2.283-2.93-5.545-7.49-7.176-4.558-1.631-5.643-4.132-6.185-5.546-.543-2.61.065-8.938 6.837-13.374z" fill="url(#paint19_linear)"/></g><defs><linearGradient id="paint0_linear" x1="51.425" y1="156.755" x2="51.425" y2="106.051" gradientUnits="userSpaceOnUse"><stop stop-color="#fff"/><stop offset="1" stop-color="#fff"/></linearGradient><linearGradient id="paint1_linear" x1="55.6" y1="143.717" x2="55.6" y2="117.135" gradientUnits="userSpaceOnUse"><stop offset=".33" stop-color="#D8D8D8"/><stop offset="1" stop-color="#B5B5B5"/></linearGradient><linearGradient id="paint4_linear" x1="82.174" y1="121.971" x2="76.429" y2="130.526" gradientUnits="userSpaceOnUse"><stop offset=".24" stop-color="#B6AAA0"/><stop offset=".27" stop-color="#BBB0A7"/><stop offset=".48" stop-color="#DCD5D1"/><stop offset=".64" stop-color="#F0ECEA"/><stop offset=".73" stop-color="#F7F5F4"/></linearGradient><linearGradient id="paint5_linear" x1="14.34" y1="111.765" x2="91.972" y2="105.333" gradientUnits="userSpaceOnUse"><stop stop-color="#FEFEFE"/><stop offset=".01" stop-color="#E8E4E1"/><stop offset=".02" stop-color="#D6CFC9"/><stop offset=".03" stop-color="#C7BEB7"/><stop offset=".05" stop-color="#BDB3AA"/><stop offset=".06" stop-color="#B8ACA2"/><stop offset=".1" stop-color="#B6AAA0"/><stop offset=".21" stop-color="#D2CBC5"/><stop offset=".68" stop-color="#F7F5F4"/><stop offset="1" stop-color="#E1DCD8"/></linearGradient><linearGradient id="paint6_linear" x1="66.999" y1="110.461" x2="85.301" y2="117.319" gradientUnits="userSpaceOnUse"><stop stop-color="#fff"/><stop offset=".22" stop-color="#F9F8F7"/><stop offset=".56" stop-color="#E9E4E1"/><stop offset=".89" stop-color="#D5CBC5"/><stop offset=".98" stop-color="#D5CBC5"/></linearGradient><linearGradient id="paint7_linear" x1="86.031" y1="110.509" x2="82.007" y2="120.586" gradientUnits="userSpaceOnUse"><stop offset=".11" stop-color="#D5CBC5"/><stop offset=".44" stop-color="#E9E4E1"/><stop offset=".78" stop-color="#F9F8F7"/><stop offset="1" stop-color="#fff"/></linearGradient><linearGradient id="paint8_linear" x1="53.125" y1="107.9" x2="53.125" y2="78.394" gradientUnits="userSpaceOnUse"><stop stop-color="#F2F2F2"/><stop offset=".24" stop-color="#E5E4E4"/><stop offset=".69" stop-color="#C3BFBE"/><stop offset="1" stop-color="#A9A2A0"/></linearGradient><linearGradient id="paint9_linear" x1="16.649" y1="92.846" x2="89.593" y2="92.846" gradientUnits="userSpaceOnUse"><stop stop-color="#B6ADA4"/><stop offset=".13" stop-color="#C9C3BD"/><stop offset=".39" stop-color="#F6F6F6"/><stop offset=".47" stop-color="#F2F2F2"/><stop offset=".55" stop-color="#E5E5E5"/><stop offset=".56" stop-color="#E2E2E2"/><stop offset=".68" stop-color="#DAD8D5"/><stop offset=".79" stop-color="#D7D3CF"/><stop offset=".84" stop-color="#C1B9B2"/><stop offset=".9" stop-color="#B1A79D"/><stop offset=".95" stop-color="#A79C91"/><stop offset="1" stop-color="#A4988D"/></linearGradient><linearGradient id="paint10_linear" x1="78.586" y1="119.627" x2="109.697" y2="119.627" gradientUnits="userSpaceOnUse"><stop offset=".02" stop-color="#D5CBC5"/><stop offset=".11" stop-color="#D5CBC5"/><stop offset=".44" stop-color="#E9E4E1"/><stop offset=".78" stop-color="#F9F8F7"/><stop offset="1" stop-color="#fff"/></linearGradient><linearGradient id="paint11_linear" x1="92.525" y1="124.809" x2="92.525" y2="134.539" gradientUnits="userSpaceOnUse"><stop offset=".385" stop-color="#361F00" stop-opacity="0"/><stop offset="1" stop-color="#563408" stop-opacity=".43"/></linearGradient><linearGradient id="paint12_linear" x1="82.227" y1="114.373" x2="85.763" y2="109.489" gradientUnits="userSpaceOnUse"><stop stop-color="#5A380B"/><stop offset="1" stop-color="#5A380B" stop-opacity="0"/></linearGradient><linearGradient id="paint13_linear" x1="81.435" y1="120.399" x2="97.511" y2="129.504" gradientUnits="userSpaceOnUse"><stop stop-color="#CECAC7"/><stop offset=".28" stop-color="#F0EEED"/><stop offset=".45" stop-color="#ECEAE9"/><stop offset=".64" stop-color="#E1DEDC"/><stop offset=".83" stop-color="#CFCAC7"/><stop offset="1" stop-color="#B8B2AE"/></linearGradient><linearGradient id="paint14_linear" x1="71.535" y1="108.062" x2="71.11" y2="125.044" gradientUnits="userSpaceOnUse"><stop stop-color="#fff"/><stop offset=".06" stop-color="#ECECEC"/><stop offset=".33" stop-color="#999"/><stop offset=".57" stop-color="#575757"/><stop offset=".76" stop-color="#282828"/><stop offset=".91" stop-color="#0B0B0B"/><stop offset="1"/></linearGradient><linearGradient id="paint15_linear" x1="380.438" y1="1647.6" x2="285.553" y2="2111.3" gradientUnits="userSpaceOnUse"><stop stop-color="#fff"/><stop offset=".06" stop-color="#ECECEC"/><stop offset=".33" stop-color="#999"/><stop offset=".57" stop-color="#575757"/><stop offset=".76" stop-color="#282828"/><stop offset=".91" stop-color="#0B0B0B"/><stop offset="1"/></linearGradient><linearGradient id="paint16_linear" x1="104.458" y1="130.681" x2="93.568" y2="105.152" gradientUnits="userSpaceOnUse"><stop stop-color="#4A2F0A" stop-opacity=".5"/><stop offset="1" stop-color="#4A2F0A" stop-opacity="0"/></linearGradient><linearGradient id="paint17_linear" x1="122.935" y1="7.295" x2="162.168" y2="105.269" gradientUnits="userSpaceOnUse"><stop stop-color="#E20613"/><stop offset=".31" stop-color="#CF0B14"/><stop offset=".93" stop-color="#9F1815"/><stop offset="1" stop-color="#991915"/></linearGradient><linearGradient id="paint18_linear" x1="57.424" y1="49.262" x2="39.602" y2="49.262" gradientUnits="userSpaceOnUse"><stop stop-color="#FFF5EA"/><stop offset="1" stop-color="#E0E0E0" stop-opacity="0"/></linearGradient><linearGradient id="paint19_linear" x1="58.727" y1="55.132" x2="40.904" y2="55.132" gradientUnits="userSpaceOnUse"><stop stop-color="#FFF6EB"/><stop offset="1" stop-color="#E0E0E0" stop-opacity="0"/></linearGradient><filter id="filter0_d" x=".883" y="104.636" width="109.55" height="56.956" filterUnits="userSpaceOnUse" color-interpolation-filters="sRGB"><feFlood flood-opacity="0" result="BackgroundImageFix"/><feColorMatrix in="SourceAlpha" values="0 0 0 0 0 0 0 0 0 0 0 0 0 0 0 0 0 0 127 0"/><feOffset dx="2" dy="3"/><feGaussianBlur stdDeviation="1.5"/><feColorMatrix values="0 0 0 0 0 0 0 0 0 0 0 0 0 0 0 0 0 0 0.2 0"/><feBlend in2="BackgroundImageFix" result="effect1_dropShadow"/><feBlend in="SourceGraphic" in2="effect1_dropShadow" result="shape"/></filter><filter id="filter1_i" x="-1.398" y="105.199" width="105.119" height="54.254" filterUnits="userSpaceOnUse" color-interpolation-filters="sRGB"><feFlood flood-opacity="0" result="BackgroundImageFix"/><feBlend in="SourceGraphic" in2="BackgroundImageFix" result="shape"/><feColorMatrix in="SourceAlpha" values="0 0 0 0 0 0 0 0 0 0 0 0 0 0 0 0 0 0 127 0" result="hardAlpha"/><feOffset dx="-6" dy="6"/><feGaussianBlur stdDeviation="2.5"/><feComposite in2="hardAlpha" operator="arithmetic" k2="-1" k3="1"/><feColorMatrix values="0 0 0 0 0 0 0 0 0 0 0 0 0 0 0 0 0 0 0.15 0"/><feBlend in2="shape" result="effect1_innerShadow"/></filter><filter id="filter2_f" x="67.984" y="122.144" width="44.023" height="25.925" filterUnits="userSpaceOnUse" color-interpolation-filters="sRGB"><feFlood flood-opacity="0" result="BackgroundImageFix"/><feBlend in="SourceGraphic" in2="BackgroundImageFix" result="shape"/><feGaussianBlur stdDeviation="4" result="effect1_foregroundBlur"/></filter><filter id="filter3_f" x="56.803" y="103.851" width="49.803" height="38.441" filterUnits="userSpaceOnUse" color-interpolation-filters="sRGB"><feFlood flood-opacity="0" result="BackgroundImageFix"/><feBlend in="SourceGraphic" in2="BackgroundImageFix" result="shape"/><feGaussianBlur stdDeviation="2" result="effect1_foregroundBlur"/></filter><filter id="filter4_f" x="76.053" y="120.809" width="32.945" height="17.73" filterUnits="userSpaceOnUse" color-interpolation-filters="sRGB"><feFlood flood-opacity="0" result="BackgroundImageFix"/><feBlend in="SourceGraphic" in2="BackgroundImageFix" result="shape"/><feGaussianBlur stdDeviation="2" result="effect1_foregroundBlur"/></filter><filter id="filter5_f" x="78.227" y="103.307" width="12.338" height="17.231" filterUnits="userSpaceOnUse" color-interpolation-filters="sRGB"><feFlood flood-opacity="0" result="BackgroundImageFix"/><feBlend in="SourceGraphic" in2="BackgroundImageFix" result="shape"/><feGaussianBlur stdDeviation="2" result="effect1_foregroundBlur"/></filter><filter id="filter6_f" x="14.607" y="76.497" width="78.294" height="31.179" filterUnits="userSpaceOnUse" color-interpolation-filters="sRGB"><feFlood flood-opacity="0" result="BackgroundImageFix"/><feBlend in="SourceGraphic" in2="BackgroundImageFix" result="shape"/><feGaussianBlur stdDeviation="1" result="effect1_foregroundBlur"/></filter><filter id="filter7_f" x="15.318" y="76.127" width="76.871" height="33.005" filterUnits="userSpaceOnUse" color-interpolation-filters="sRGB"><feFlood flood-opacity="0" result="BackgroundImageFix"/><feBlend in="SourceGraphic" in2="BackgroundImageFix" result="shape"/><feGaussianBlur stdDeviation="2" result="effect1_foregroundBlur"/></filter><filter id="filter8_f" x="21.281" y="78.846" width="64.941" height="27.569" filterUnits="userSpaceOnUse" color-interpolation-filters="sRGB"><feFlood flood-opacity="0" result="BackgroundImageFix"/><feBlend in="SourceGraphic" in2="BackgroundImageFix" result="shape"/><feGaussianBlur stdDeviation="2" result="effect1_foregroundBlur"/></filter><filter id="filter9_f" x="26.166" y="81.562" width="55.179" height="22.133" filterUnits="userSpaceOnUse" color-interpolation-filters="sRGB"><feFlood flood-opacity="0" result="BackgroundImageFix"/><feBlend in="SourceGraphic" in2="BackgroundImageFix" result="shape"/><feGaussianBlur stdDeviation="2" result="effect1_foregroundBlur"/></filter><filter id="filter10_f" x="91.883" y="102.361" width="20.367" height="32.654" filterUnits="userSpaceOnUse" color-interpolation-filters="sRGB"><feFlood flood-opacity="0" result="BackgroundImageFix"/><feBlend in="SourceGraphic" in2="BackgroundImageFix" result="shape"/><feGaussianBlur stdDeviation="1" result="effect1_foregroundBlur"/></filter><filter id="filter11_f" x="4.895" y="85.174" width="95.895" height="31.753" filterUnits="userSpaceOnUse" color-interpolation-filters="sRGB"><feFlood flood-opacity="0" result="BackgroundImageFix"/><feBlend in="SourceGraphic" in2="BackgroundImageFix" result="shape"/><feGaussianBlur stdDeviation="4" result="effect1_foregroundBlur"/></filter><filter id="filter12_d" x="84.268" y="14.198" width="116.362" height="85.427" filterUnits="userSpaceOnUse" color-interpolation-filters="sRGB"><feFlood flood-opacity="0" result="BackgroundImageFix"/><feColorMatrix in="SourceAlpha" values="0 0 0 0 0 0 0 0 0 0 0 0 0 0 0 0 0 0 127 0"/><feOffset dx="3" dy="3"/><feGaussianBlur stdDeviation="2"/><feColorMatrix values="0 0 0 0 0 0 0 0 0 0 0 0 0 0 0 0 0 0 0.35 0"/><feBlend in2="BackgroundImageFix" result="effect1_dropShadow"/><feBlend in="SourceGraphic" in2="effect1_dropShadow" result="shape"/></filter><filter id="filter13_f" x="42.16" y="16.598" width="21.749" height="65.653" filterUnits="userSpaceOnUse" color-interpolation-filters="sRGB"><feFlood flood-opacity="0" result="BackgroundImageFix"/><feBlend in="SourceGraphic" in2="BackgroundImageFix" result="shape"/><feGaussianBlur stdDeviation="1" result="effect1_foregroundBlur"/></filter><filter id="filter14_f" x="43.463" y="22.469" width="21.749" height="65.653" filterUnits="userSpaceOnUse" color-interpolation-filters="sRGB"><feFlood flood-opacity="0" result="BackgroundImageFix"/><feBlend in="SourceGraphic" in2="BackgroundImageFix" result="shape"/><feGaussianBlur stdDeviation="1" result="effect1_foregroundBlur"/></filter><radialGradient id="paint2_radial" cx="0" cy="0" r="1" gradientUnits="userSpaceOnUse" gradientTransform="matrix(24.2749 0 0 10.9998 55.764 128.173)"><stop offset=".51" stop-color="#1C0B05"/><stop offset=".56" stop-color="#2A1A14"/><stop offset=".65" stop-color="#4D403B"/><stop offset=".77" stop-color="#877E7B"/><stop offset=".92" stop-color="#D5D2D1"/><stop offset="1" stop-color="#fff"/></radialGradient><radialGradient id="paint3_radial" cx="0" cy="0" r="1" gradientUnits="userSpaceOnUse" gradientTransform="matrix(35.878 0 0 18.7011 54.91 121.561)"><stop stop-color="#fff"/><stop offset=".23" stop-color="#FCFCFB"/><stop offset=".43" stop-color="#F5F2F1"/><stop offset=".62" stop-color="#E7E2DE"/><stop offset=".8" stop-color="#D5CBC5"/><stop offset=".99" stop-color="#BDAEA4"/><stop offset="1" stop-color="#BBABA1"/></radialGradient><clipPath id="clip0"><path fill="#fff" transform="rotate(9.217 40.815 506.337) skewX(.033)" d="M0 0h124.817v97.926H0z"/></clipPath></defs></svg>