<svg width="24" height="24" viewBox="0 0 24 24" fill="none" xmlns="http://www.w3.org/2000/svg">
<g filter="url(#filter0_i)">
<path d="M0 4C0 1.79086 1.79086 0 4 0H20C22.2091 0 24 1.79086 24 4V20C24 22.2091 22.2091 24 20 24H4C1.79086 24 0 22.2091 0 20V4Z" fill="#A62E41"/>
</g>
<path fill-rule="evenodd" clip-rule="evenodd" d="M11.8367 16.235H12.7452C12.7452 16.235 13.0197 16.2049 13.1598 16.0539C13.2888 15.9152 13.2846 15.6548 13.2846 15.6548C13.2846 15.6548 13.2669 14.4357 13.8327 14.2561C14.3905 14.0793 15.1067 15.4344 15.8659 15.9554C16.4399 16.3498 16.8762 16.2633 16.8762 16.2633L18.906 16.235C18.906 16.235 19.9679 16.1696 19.4644 15.3347C19.4231 15.2664 19.1712 14.7171 17.9552 13.5884C16.6824 12.407 16.8528 12.5981 18.386 10.5546C19.3198 9.31012 19.693 8.55033 19.5765 8.22492C19.4652 7.91498 18.7785 7.9969 18.7785 7.9969L16.493 8.01114C16.493 8.01114 16.3236 7.98803 16.1979 8.06314C16.0751 8.13681 15.9961 8.30849 15.9961 8.30849C15.9961 8.30849 15.6343 9.27153 15.1519 10.0905C14.1342 11.8187 13.7272 11.9099 13.5609 11.8026C13.174 11.5525 13.2706 10.7979 13.2706 10.2618C13.2706 8.58706 13.5246 7.88877 12.776 7.70801C12.5275 7.64796 12.3447 7.60834 11.7093 7.60195C10.8938 7.59349 10.2036 7.60442 9.81278 7.79592C9.55278 7.92323 9.3522 8.20697 9.47436 8.22327C9.62541 8.24349 9.96754 8.31551 10.1489 8.56251C10.3831 8.88111 10.3749 9.59674 10.3749 9.59674C10.3749 9.59674 10.5094 11.5682 10.0606 11.8131C9.75253 11.9811 9.32992 11.6382 8.4226 10.0703C7.95769 9.26719 7.60669 8.37947 7.60669 8.37947C7.60669 8.37947 7.539 8.21357 7.41829 8.12484C7.27178 8.01733 7.06708 7.98308 7.06708 7.98308L4.89524 7.99731C4.89524 7.99731 4.56921 8.00639 4.44952 8.14816C4.34305 8.27424 4.44106 8.53506 4.44106 8.53506C4.44106 8.53506 6.14139 12.5131 8.06664 14.5178C9.83197 16.3557 11.8367 16.235 11.8367 16.235Z" fill="white"/>
<defs>
<filter id="filter0_i" x="-4" y="-4" width="28" height="28" filterUnits="userSpaceOnUse" color-interpolation-filters="sRGB">
<feFlood flood-opacity="0" result="BackgroundImageFix"/>
<feBlend mode="normal" in="SourceGraphic" in2="BackgroundImageFix" result="shape"/>
<feColorMatrix in="SourceAlpha" type="matrix" values="0 0 0 0 0 0 0 0 0 0 0 0 0 0 0 0 0 0 127 0" result="hardAlpha"/>
<feOffset dx="-4" dy="-4"/>
<feGaussianBlur stdDeviation="4"/>
<feComposite in2="hardAlpha" operator="arithmetic" k2="-1" k3="1"/>
<feColorMatrix type="matrix" values="0 0 0 0 0 0 0 0 0 0 0 0 0 0 0 0 0 0 0.15 0"/>
<feBlend mode="normal" in2="shape" result="effect1_innerShadow"/>
</filter>
</defs>
</svg>
