<svg width="60" height="60" viewBox="0 0 60 60" fill="none" xmlns="http://www.w3.org/2000/svg">
<rect width="60" height="60" rx="10" fill="#A62E41"/>
<path d="M11.6153 23.6178H19.4964V49H11.6153V23.6178ZM15.5705 11C18.0901 11 20.141 13.0541 20.141 15.5776C20.141 18.1012 18.0901 20.1552 15.5705 20.1552C13.0362 20.1552 11 18.1012 11 15.5776C11 13.0541 13.0362 11 15.5705 11Z" fill="white"/>
<path d="M24.4473 23.6177H31.9915V27.0949H32.094C33.1488 25.0995 35.7123 23.0015 39.5504 23.0015C47.5194 23.0015 48.999 28.254 48.999 35.091V48.9999H41.1325V36.6609C41.1325 33.7119 41.0885 29.9266 37.0454 29.9266C32.9437 29.9266 32.3284 33.1397 32.3284 36.4408V48.9999H24.4619L24.4473 23.6177Z" fill="white"/>
</svg>
