<svg width="263" height="175" viewBox="0 0 263 175" fill="none" xmlns="http://www.w3.org/2000/svg">
<path d="M161.034 107.074C154.732 87.8455 120.235 76.6429 82.5623 76.6429C49.8367 76.6429 10.4013 87.8372 4.09065 107.074C-3.39234 129.981 30.8382 156.583 82.5623 156.583C134.286 156.583 168.55 129.981 161.034 107.074Z" fill="url(#paint0_radial)"/>
<path style="mix-blend-mode:multiply" d="M81.9803 175C127.257 175 163.961 154.343 163.961 128.86C163.961 103.378 127.257 82.7208 81.9803 82.7208C36.7038 82.7208 0 103.378 0 128.86C0 154.343 36.7038 175 81.9803 175Z" fill="url(#paint1_radial)"/>
<path d="M82.5622 154.693C41.0732 154.693 13.6522 138.291 5.72019 123.05C3.04294 117.892 2.47756 112.834 4.05731 108.002C6.8759 99.4077 16.4375 91.4237 30.9711 85.5215C45.5048 79.6192 63.9129 76.3253 82.5622 76.3253C101.211 76.3253 119.536 79.5941 134.153 85.5215C148.77 91.4488 158.265 99.4077 161.075 108.002C162.647 112.809 162.09 117.867 159.413 123.05C151.481 138.291 124.051 154.693 82.5622 154.693Z" fill="url(#paint2_linear)"/>
<path d="M82.562 152.938C42.4532 152.938 15.9384 137.053 8.27254 122.339C5.68675 117.323 5.138 112.466 6.66785 107.818C9.38667 99.508 18.6323 91.7916 32.6837 86.0816C46.7351 80.3716 64.5363 77.1864 82.5703 77.1864C100.604 77.1864 118.322 80.3465 132.457 86.0816C146.591 91.8166 155.737 99.4578 158.481 107.818C160.003 112.466 159.462 117.348 156.868 122.339C149.194 137.078 122.679 152.938 82.562 152.938Z" fill="url(#paint3_radial)"/>
<g filter="url(#filter0_f)">
<path d="M5.36536 109.453C3.79315 114.108 4.3571 118.972 7.01447 123.996C14.8926 138.731 42.1413 154.639 83.3605 154.639C124.588 154.639 151.837 138.757 159.724 123.996C162.389 118.997 162.945 114.108 161.381 109.453" stroke="white" stroke-width="2"/>
</g>
<path opacity="0.22" d="M131.135 111.806C127.253 102.242 105.743 95.5453 82.5625 95.5453C59.3819 95.5453 37.8724 102.233 33.9979 111.806C29.3751 123.192 50.7016 136.443 82.5625 136.443C114.423 136.443 135.758 123.192 131.135 111.806Z" fill="url(#paint4_linear)"/>
<g style="mix-blend-mode:multiply" opacity="0.34">
<g filter="url(#filter1_f)">
<path d="M152.138 130.173C144.821 133.183 125.531 124.739 116.801 120.141L120.127 115.543L159.621 122.231C160.175 123.624 159.454 127.163 152.138 130.173Z" fill="#341E01" fill-opacity="0.6"/>
</g>
</g>
<g style="mix-blend-mode:multiply" opacity="0.34">
<g filter="url(#filter2_f)">
<path d="M155.048 101.33C172.508 112.617 95.1836 128.083 93.5208 128.083L112.644 81.2661L143.407 83.3561L157.542 92.9703L155.048 101.33Z" fill="#2B1800" fill-opacity="0.7"/>
</g>
</g>
<path style="mix-blend-mode:multiply" d="M81.7474 142.479C109.373 142.479 131.767 130.168 131.767 114.983C131.767 99.7967 109.373 87.4861 81.7474 87.4861C54.1223 87.4861 31.7278 99.7967 31.7278 114.983C31.7278 130.168 54.1223 142.479 81.7474 142.479Z" fill="url(#paint5_radial)"/>
<path d="M141.462 58.6938C141.462 58.6938 141.462 77.2617 137.363 92.3852C137.363 92.3852 127.785 109.799 115.022 118.97C115.022 118.97 103.016 128.902 81.7641 128.902C69.9506 128.934 58.3873 125.481 48.5064 118.97C35.7437 109.774 26.1738 92.3852 26.1738 92.3852C22.0332 77.2199 22.0332 58.6938 22.0332 58.6938" fill="url(#paint6_radial)"/>
<path style="mix-blend-mode:multiply" d="M132.964 99.3741C132.964 99.3741 122.214 103.119 120.784 104.833C120.784 104.833 117.458 112.148 116.768 117.599C123.536 112.199 129.273 104.792 132.964 99.3741Z" fill="url(#paint7_linear)"/>
<path d="M81.7475 110.527C107.04 110.527 129.456 103.245 137.363 92.3434C141.462 77.2115 141.462 58.6938 141.462 58.6938H22.0332C22.0332 58.6938 22.0332 77.2533 26.1322 92.3768C33.7316 103.237 56.455 110.527 81.7475 110.527Z" fill="url(#paint8_linear)"/>
<path style="mix-blend-mode:multiply" opacity="0.3" d="M133.896 79.0925C133.896 79.0925 132.532 72.4797 120.526 72.3292C108.52 72.1787 105.045 82.2694 105.045 90.4623C105.045 97.8945 106.824 109.875 116.968 111.438C127.111 113.001 137.213 102.016 132.59 100.168C131.268 99.7019 129.849 99.5792 128.467 99.8116C127.085 100.044 125.783 100.624 124.683 101.498C122.239 103.63 115.172 107.851 115.172 92.7112C115.172 85.0784 118.273 81.007 121.233 81.099C123.536 81.1826 125.756 83.7826 126.346 89.1916C126.346 89.1916 130.204 91.5408 132.59 88.5646C134.977 85.5884 133.896 79.0925 133.896 79.0925Z" fill="url(#paint9_linear)"/>
<path style="mix-blend-mode:multiply" opacity="0.4" d="M126.687 86.809C124.191 91.5622 122.401 96.6575 121.374 101.932C125.172 100.416 128.845 98.599 132.357 96.4984C133.578 94.6081 134.614 92.6034 135.45 90.5125C136.34 87.4193 126.687 86.809 126.687 86.809Z" fill="url(#paint10_linear)"/>
<path d="M81.7475 81.3415C114.727 81.3415 141.462 71.1831 141.462 58.6521C141.462 46.121 114.727 35.9626 81.7475 35.9626C48.7682 35.9626 22.0332 46.121 22.0332 58.6521C22.0332 71.1831 48.7682 81.3415 81.7475 81.3415Z" fill="url(#paint11_linear)"/>
<path d="M81.7476 79.4346C112.628 79.4346 137.662 69.9237 137.662 58.1915C137.662 46.4592 112.628 36.9484 81.7476 36.9484C50.8668 36.9484 25.833 46.4592 25.833 58.1915C25.833 69.9237 50.8668 79.4346 81.7476 79.4346Z" fill="url(#paint12_linear)"/>
<path d="M128.392 94.3163C127.584 94.0346 126.897 93.484 126.443 92.7557C125.99 92.0274 125.797 91.1652 125.897 90.3118C126.335 86.4506 128.242 82.9096 131.219 80.4302C133.879 78.106 138.568 76.6848 143.74 76.6848C156.503 76.6848 168.484 86.416 168.484 100.762C168.484 110.602 161.117 117.248 156.993 119.673C154.549 121.119 150.342 122.181 145.661 122.181C132.823 122.181 124.692 112.851 121.549 108.37C121.041 107.66 120.781 106.801 120.81 105.927C120.839 105.053 121.154 104.213 121.707 103.538C122.8 102.215 124.067 101.047 125.473 100.068C127.672 98.4733 130.39 97.7744 133.081 98.1118C133.081 98.1118 135.451 105.084 141.67 107.158C149.984 109.941 155.073 107.158 155.073 107.158C155.073 107.158 158.664 92.9453 144.264 89.6012C133.971 87.2186 136.556 96.9247 128.466 94.3999L128.392 94.3163Z" fill="url(#paint13_linear)"/>
<g filter="url(#filter3_f)">
<path d="M146.733 122.231C136.756 123.234 126.779 114.567 123.037 110.109C126.695 113.787 132.077 117.342 138.835 117.215C145.513 117.089 150.89 115.543 155.048 107.601C155.977 105.825 159.759 113.871 161.284 115.961C160.591 117.633 156.711 121.228 146.733 122.231Z" fill="url(#paint14_linear)"/>
</g>
<g filter="url(#filter4_f)">
<path d="M126.935 92.7557C127.388 93.484 128.076 94.0346 128.883 94.3164L128.958 94.4C129.704 94.8104 131.973 94.571 133.014 94.4L131.71 80.4302C128.734 82.9096 126.827 86.4506 126.389 90.3119C126.288 91.1652 126.481 92.0274 126.935 92.7557Z" fill="url(#paint15_linear)" fill-opacity="0.28"/>
</g>
<path d="M155.048 107.04C155.048 107.04 155.131 106.556 155.206 105.686C155.308 104.501 155.308 103.31 155.206 102.125C155.065 100.468 154.652 98.8467 153.983 97.326C153.609 96.4777 153.134 95.6778 152.57 94.9434C152.004 94.1776 151.338 93.4916 150.591 92.9035C149.104 91.7243 147.412 90.8315 145.602 90.27C144.771 90.0003 143.924 89.7798 143.066 89.6096C142.306 89.4529 141.531 89.3828 140.755 89.4006C139.581 89.4055 138.43 89.7352 137.429 90.3537C137.072 90.5794 136.797 90.78 136.598 90.9221L136.323 91.1479L136.565 90.8887C136.801 90.6483 137.054 90.4248 137.321 90.2199C138.301 89.47 139.477 89.0227 140.705 88.9324C141.52 88.867 142.34 88.8922 143.15 89.0077C144.047 89.1262 144.933 89.3135 145.802 89.5678C146.737 89.839 147.647 90.1915 148.521 90.6212C149.434 91.0799 150.293 91.6408 151.082 92.2932C152.64 93.5634 153.856 95.208 154.615 97.0752C155.252 98.6897 155.598 100.405 155.638 102.141C155.672 103.352 155.58 104.562 155.364 105.753C155.285 106.188 155.18 106.618 155.048 107.04Z" fill="white"/>
<path d="M155.048 107.04C155.048 107.04 149.959 109.858 141.645 107.04C135.425 104.967 133.056 97.9948 133.056 97.9948C130.365 97.6573 127.647 98.3562 125.448 99.951C123.893 101.033 122.511 102.347 121.349 103.847C123.328 108.136 126.928 112.993 132.582 115.133C146.317 120.375 154.108 110.978 155.048 107.04Z" fill="url(#paint16_linear)"/>
<path d="M121.374 103.88C121.374 103.88 121.682 104.482 122.28 105.494C122.58 105.995 122.962 106.606 123.436 107.266C123.91 107.927 124.475 108.654 125.099 109.415C125.806 110.222 126.573 110.974 127.394 111.664C128.306 112.429 129.285 113.109 130.32 113.695C130.59 113.855 130.867 114 131.152 114.13C131.422 114.275 131.7 114.406 131.983 114.523C132.274 114.631 132.582 114.782 132.856 114.865L133.796 115.158C135.043 115.573 136.322 115.88 137.62 116.078L139.583 116.278C140.231 116.278 140.888 116.278 141.528 116.278C142.168 116.278 142.809 116.119 143.441 116.053C144.072 115.986 144.654 115.752 145.261 115.618C145.868 115.484 146.4 115.192 146.924 114.999C147.448 114.807 147.989 114.498 148.487 114.23C148.986 113.963 149.452 113.653 149.884 113.344C150.317 113.035 150.716 112.725 151.106 112.391C151.787 111.794 152.423 111.149 153.01 110.46C153.26 110.134 153.509 109.841 153.709 109.557L154.233 108.721C154.455 108.327 154.652 107.919 154.823 107.5L154.989 107.04L154.865 107.509C154.737 107.951 154.573 108.381 154.374 108.796L153.9 109.632C153.717 109.941 153.484 110.251 153.26 110.602C152.711 111.352 152.096 112.052 151.422 112.692C151.057 113.051 150.591 113.369 150.2 113.728C149.809 114.088 149.277 114.364 148.795 114.707C148.313 115.049 147.747 115.275 147.207 115.543C146.667 115.81 146.043 116.011 145.436 116.22C144.829 116.429 144.189 116.571 143.54 116.705C142.892 116.838 142.227 116.914 141.553 116.972C140.88 117.031 140.198 117.022 139.516 117.014L137.471 116.838C136.133 116.61 134.815 116.274 133.53 115.835L132.59 115.526C132.241 115.417 131.967 115.267 131.651 115.141C131.335 115.016 131.052 114.865 130.761 114.723C130.47 114.581 130.187 114.422 129.93 114.255C127.922 113.052 126.15 111.491 124.7 109.649C123.681 108.351 122.801 106.95 122.072 105.469C121.806 104.942 121.615 104.516 121.499 104.223L121.374 103.88Z" fill="white"/>
<path style="mix-blend-mode:screen" d="M105.069 106.238C107.907 105.736 110.623 105.145 113.217 104.466L114.34 79.0925L105.71 81.216L105.069 106.238Z" fill="url(#paint17_linear)"/>
<path style="mix-blend-mode:screen" d="M101.544 106.815L103.515 106.505L104.612 81.3413L102.118 81.9432L101.544 106.815Z" fill="url(#paint18_linear)"/>
<g filter="url(#filter5_f)">
<ellipse cx="82.7119" cy="57.0217" rx="56.9539" ry="20.9003" fill="white"/>
</g>
<ellipse cx="82.7119" cy="57.8578" rx="56.9539" ry="20.9003" fill="#9C6720"/>
<g filter="url(#filter6_f)">
<ellipse cx="82.7119" cy="57.8577" rx="52.7967" ry="19.2283" fill="#E4AA60"/>
</g>
<g filter="url(#filter7_f)">
<ellipse cx="82.7118" cy="57.8577" rx="43.6508" ry="15.0482" fill="#F1C998"/>
</g>
<g filter="url(#filter8_f)">
<ellipse cx="82.712" cy="57.8578" rx="36.1678" ry="10.8682" fill="#FFE0BA"/>
</g>
<g filter="url(#filter9_f)">
<path d="M144.239 76.668C157.001 76.668 168.567 86.8172 168.567 101.163C168.567 111.003 161.666 116.88 157.542 119.305" stroke="url(#paint19_linear)" stroke-opacity="0.5"/>
</g>
<g filter="url(#filter10_f)">
<path d="M141.029 58.6938C141.029 71.2248 114.294 81.3832 81.3151 81.3832C48.3358 81.3832 21.6008 71.2248 21.6008 58.6938" stroke="white" stroke-width="2"/>
</g>
<g clip-path="url(#clip0)">
<g filter="url(#filter11_d)">
<path fill-rule="evenodd" clip-rule="evenodd" d="M157.947 14.0513L247.231 22.2534C250.08 22.5173 252.323 25.478 251.534 28.2276L237.147 78.2394C236.359 80.989 234.01 82.9978 231.188 82.5385L181.521 74.4542L166.117 85.475L169.731 72.5353L157.619 70.5638C154.773 70.1006 153.396 67.4417 153.315 64.5943L152.008 18.3487C151.904 15.4928 155.099 13.7874 157.947 14.0513Z" fill="url(#paint20_linear)"/>
</g>
<path d="M185.552 34.566C185.597 34.3948 185.637 34.2042 185.674 33.9942C185.71 33.7842 185.753 33.4678 185.801 33.0449C186.061 30.769 185.785 28.998 184.972 27.7319C184.173 26.4547 182.854 25.7096 181.015 25.4963C179.238 25.2903 177.772 25.6623 176.619 26.6123C175.479 27.5513 174.804 28.9411 174.594 30.7817C174.396 32.5104 174.699 33.8875 175.501 34.913C176.303 35.9385 177.556 36.55 179.258 36.7473C180.377 36.877 181.454 36.7625 182.49 36.4037C183.526 36.0449 184.546 35.4323 185.552 34.566ZM185.006 37.5271C184.15 38.2973 183.118 38.8455 181.909 39.1717C180.713 39.4993 179.432 39.5839 178.065 39.4254C175.654 39.1459 173.838 38.2235 172.619 36.6582C171.402 35.0805 170.934 33.0542 171.217 30.5793C171.525 27.8805 172.617 25.8144 174.493 24.3812C176.37 22.9479 178.725 22.3955 181.558 22.724C184.33 23.0453 186.378 24.19 187.702 26.1581C189.026 28.1262 189.503 30.7333 189.132 33.9793C188.767 37.1755 187.821 40.0082 186.292 42.4773C184.763 44.9464 182.782 46.8589 180.348 48.2149C179.285 48.81 178.152 49.2519 176.948 49.5408C175.756 49.8311 174.725 49.9258 173.855 49.825C173.209 49.7501 172.74 49.5571 172.448 49.246C172.156 48.9349 172.041 48.5058 172.104 47.9586C172.122 47.7969 172.232 47.4441 172.432 46.9003C172.468 46.8037 172.502 46.732 172.532 46.6851C172.654 46.7244 172.795 46.7596 172.955 46.7908C173.115 46.822 173.319 46.852 173.568 46.8808C175.942 47.156 178.183 46.4392 180.292 44.7305C182.414 43.0232 183.985 40.6221 185.006 37.5271Z" fill="#F1F2F2"/>
<path d="M194.953 48.7875C195.026 48.7356 195.129 48.668 195.259 48.5848C195.398 48.495 195.572 48.3905 195.782 48.2712C195.942 48.1914 196.061 48.1107 196.139 48.0289C196.216 47.9472 196.26 47.8578 196.271 47.7608C196.311 47.41 196.333 47.1858 196.337 47.0879C196.348 46.9909 196.356 46.9163 196.362 46.864C196.444 46.1477 196.527 45.5902 196.61 45.1916C196.694 44.7929 196.771 44.5486 196.841 44.4585L196.857 44.1201L196.799 44.034C196.809 43.9519 196.817 43.881 196.823 43.8213C196.839 43.755 196.849 43.6995 196.854 43.6547C196.901 43.2443 196.748 42.962 196.395 42.8077C196.05 42.6543 195.897 42.406 195.936 42.0628C195.948 41.9583 196.067 41.8435 196.293 41.7185C196.52 41.586 196.847 41.4348 197.274 41.2651C197.368 40.9055 197.47 40.5127 197.579 40.0868C197.688 39.661 197.813 39.1916 197.955 38.6788C197.936 38.5783 197.923 38.4974 197.915 38.4359C197.908 38.367 197.907 38.3065 197.913 38.2543C197.943 37.9931 198 37.7578 198.084 37.5483C198.169 37.3388 198.274 37.1431 198.401 36.9612C198.48 36.8645 198.578 36.7625 198.696 36.6552C198.815 36.5404 198.958 36.417 199.124 36.2851C199.256 36.187 199.357 36.1003 199.426 36.0251C199.496 35.9425 199.534 35.8751 199.54 35.8228C199.546 35.7632 199.526 35.7116 199.478 35.6683C199.437 35.6258 199.372 35.5994 199.283 35.589C199.007 35.557 198.59 35.5995 198.033 35.7164C197.476 35.8258 197.064 35.865 196.795 35.8339C196.706 35.8236 196.64 35.8046 196.598 35.777C196.563 35.7503 196.549 35.7109 196.555 35.6586C196.572 35.5094 196.594 35.3797 196.622 35.2695C196.65 35.1593 196.677 35.0831 196.705 35.0409C196.843 34.9586 196.95 34.8765 197.028 34.7947C197.112 34.7138 197.16 34.6286 197.17 34.5391C197.174 34.5018 197.217 34.4576 197.299 34.4065C197.387 34.3563 197.52 34.3188 197.697 34.2939C198.405 34.1793 198.944 34.0905 199.314 34.0275C199.691 33.9654 199.907 33.9299 199.961 33.921C200.39 33.8649 200.798 33.8365 201.183 33.8357C201.57 33.8276 201.927 33.8425 202.255 33.8805C202.292 33.8848 202.366 33.9046 202.475 33.94C202.585 33.9678 202.66 33.9765 202.699 33.9659C202.85 33.9608 203.01 33.9528 203.177 33.9419C203.222 33.9471 203.35 33.9846 203.561 34.0544C203.773 34.1168 204.069 34.2077 204.448 34.3273C204.532 34.3218 204.623 34.3136 204.723 34.3024C204.939 34.3274 205.114 34.3817 205.248 34.4653C205.39 34.5497 205.495 34.6564 205.563 34.7853C205.665 34.8198 205.764 34.8426 205.861 34.8539C206.055 34.8763 206.224 34.9526 206.368 35.0826C206.52 35.2061 206.644 35.3755 206.74 35.5908C206.823 35.7969 206.882 36.0004 206.92 36.2013C206.958 36.3948 206.966 36.5922 206.943 36.7937C206.898 37.1892 206.769 37.5561 206.556 37.8944C206.352 38.2261 206.065 38.5255 205.694 38.7926C205.655 38.8107 205.457 38.9238 205.1 39.1321C204.752 39.3337 204.244 39.6151 203.576 39.9762C203.504 40.0132 203.418 40.0675 203.319 40.1393C203.22 40.211 203.102 40.2843 202.965 40.3591C202.312 40.6539 201.683 40.9364 201.078 41.2066C200.571 41.4125 200.184 41.5907 199.917 41.7413C199.651 41.8919 199.513 42.0045 199.505 42.0791C199.488 42.2283 199.536 42.37 199.649 42.5041C199.763 42.6307 199.945 42.7539 200.196 42.8736C200.561 43.052 200.972 43.2546 201.43 43.4815C201.887 43.7084 202.375 43.9728 202.892 44.2746C202.942 44.2956 203.002 44.3328 203.072 44.3862C203.149 44.4405 203.233 44.4994 203.324 44.5628C203.938 44.8759 204.378 45.2255 204.643 45.6116C204.917 45.9911 205.028 46.4085 204.976 46.8637C204.9 47.5278 204.228 48.0888 202.959 48.5467C201.698 49.0055 199.843 49.3653 197.395 49.6262C197.346 49.7263 197.29 49.8256 197.225 49.924C197.169 50.0233 197.116 50.1193 197.068 50.212C197.006 50.288 196.924 50.3428 196.822 50.3763C196.719 50.4173 196.605 50.4305 196.478 50.4158C196.336 50.3994 196.23 50.3342 196.16 50.2203C196.089 50.1138 196.051 49.9506 196.046 49.7307C195.992 49.6716 195.947 49.6436 195.908 49.6467L195.252 49.7408C195.175 49.6865 195.101 49.6364 195.031 49.5904C194.967 49.5528 194.9 49.511 194.83 49.4651C194.76 49.4117 194.707 49.3488 194.67 49.2765C194.632 49.2116 194.617 49.1418 194.626 49.0672C194.634 49.0001 194.662 48.9467 194.712 48.9071C194.769 48.8758 194.849 48.836 194.953 48.7875ZM198.993 43.8798C198.874 43.8659 198.757 43.9583 198.644 44.1569C198.539 44.3489 198.437 44.6433 198.339 45.0402C198.266 45.4098 198.194 45.7832 198.12 46.1603C198.048 46.53 197.975 46.8996 197.903 47.2693C197.837 47.4506 197.777 47.6441 197.723 47.8495L197.733 47.9641L197.817 48.0192C198.125 47.9717 198.466 47.9243 198.842 47.8771C199.096 47.9064 199.247 47.9013 199.297 47.8617C199.355 47.8155 199.992 47.6019 201.206 47.2209C201.723 47.069 202.114 46.9177 202.38 46.7672C202.648 46.6091 202.789 46.4629 202.805 46.3286C202.814 46.2465 202.789 46.1643 202.731 46.0819C202.672 45.9995 202.58 45.9095 202.456 45.8119C202.131 45.5474 201.766 45.301 201.361 45.0727C200.958 44.8369 200.511 44.6151 200.021 44.4071C199.956 44.3769 199.88 44.3455 199.793 44.3127C199.715 44.2734 199.625 44.2327 199.524 44.1908C199.368 44.0972 199.249 44.0228 199.164 43.9677C199.087 43.9134 199.03 43.8841 198.993 43.8798ZM202.122 35.7364C201.839 35.7036 201.605 35.6992 201.421 35.7232C201.245 35.7407 201.115 35.7898 201.03 35.8707C200.964 35.9235 200.887 36.0318 200.8 36.1957C200.721 36.3604 200.627 36.5877 200.518 36.8775C200.47 37.0382 200.427 37.2185 200.389 37.4182C200.358 37.6188 200.333 37.839 200.313 38.0786C200.209 38.2631 200.104 38.4173 200 38.5413L200.022 38.8388C199.89 39.2015 199.793 39.4927 199.73 39.7122C199.667 39.9317 199.631 40.0788 199.623 40.1534C199.61 40.2654 199.623 40.3463 199.663 40.3963C199.703 40.4462 199.763 40.4759 199.845 40.4854C199.92 40.4941 200.105 40.4323 200.399 40.3001C200.701 40.1687 201.117 39.9674 201.647 39.6961C202.232 39.401 202.677 39.1765 202.982 39.0228C203.295 38.8625 203.475 38.7737 203.523 38.7565C203.633 38.6484 203.74 38.5435 203.842 38.4419C203.952 38.3338 204.059 38.2289 204.161 38.1273C204.306 37.9853 204.415 37.8581 204.488 37.7456C204.562 37.6256 204.605 37.5172 204.616 37.4202C204.636 37.2411 204.599 37.0742 204.503 36.9194C204.407 36.7647 204.254 36.6221 204.042 36.4918C203.971 36.4533 203.842 36.393 203.655 36.3108C203.475 36.2295 203.24 36.1417 202.948 36.0475C202.71 35.9518 202.522 35.8772 202.384 35.8234C202.247 35.7697 202.16 35.7407 202.122 35.7364Z" fill="#F1F2F2"/>
<path d="M215.967 35.2871C216.131 35.3061 216.244 35.3722 216.307 35.4853C216.37 35.5984 216.389 35.7557 216.366 35.9571C216.323 36.3377 216.264 36.69 216.189 37.014C216.122 37.3389 216.032 37.6234 215.921 37.8676C215.773 38.1755 215.628 38.4801 215.488 38.7815C215.356 39.0762 215.22 39.3779 215.079 39.6867C214.952 39.8006 214.867 39.8889 214.822 39.9518C214.789 40.1068 214.753 40.2576 214.713 40.4042C214.699 40.4631 214.663 40.5156 214.605 40.5618C214.554 40.6088 214.488 40.6616 214.405 40.7201C214.374 40.7921 214.334 40.8782 214.285 40.9784C214.237 41.0711 214.179 41.1815 214.111 41.3098C213.874 41.6679 213.561 42.0929 213.172 42.5847C212.792 43.0699 212.331 43.6289 211.79 44.2619C211.769 44.3804 211.753 44.4919 211.741 44.5964L210.961 45.867C210.689 46.327 210.446 46.7713 210.231 47.2C210.024 47.6222 209.856 48.0299 209.728 48.4234C209.658 48.6421 209.599 48.8243 209.552 48.9701C209.514 49.1093 209.491 49.2087 209.484 49.2684C209.476 49.343 209.507 49.4639 209.579 49.6309C209.651 49.7905 209.685 49.889 209.681 49.9263C209.662 50.0905 209.418 50.2777 208.948 50.4879C208.486 50.6989 208.203 50.7947 208.099 50.7751C207.99 50.7398 207.873 50.7036 207.749 50.6665C207.631 50.6378 207.522 50.6062 207.42 50.5717C207.268 50.5163 207.154 50.4502 207.08 50.3735C207.005 50.3043 206.973 50.2212 206.984 50.1242C206.992 50.0496 207.035 49.9071 207.112 49.6968C207.216 49.3762 207.333 49.0873 207.46 48.8298C207.596 48.5658 207.752 48.3268 207.928 48.1128L207.966 48.0719C207.947 48.0395 207.933 48 207.923 47.9535C207.921 47.9078 207.911 47.8576 207.895 47.8028C207.948 47.6728 208.019 47.5147 208.108 47.3284C208.197 47.1422 208.312 46.9287 208.453 46.688C208.541 46.5772 208.634 46.4291 208.731 46.2438C208.828 46.0509 208.921 45.8311 209.01 45.5843C208.774 45.3377 208.583 45.085 208.439 44.8264C208.295 44.5677 208.204 44.304 208.167 44.035C208.122 43.9012 208.062 43.7317 207.987 43.5265C207.913 43.3138 207.836 43.0629 207.756 42.7739L207.254 39.8238C207.257 39.5974 207.254 39.3286 207.244 39.0174C207.243 38.6997 207.22 38.3379 207.176 37.9321L207.306 37.6863L207.144 37.418C207.15 37.3583 207.152 37.2754 207.149 37.1692C207.155 37.0564 207.155 36.9204 207.151 36.7611C207.145 36.6092 207.145 36.4807 207.149 36.3753C207.162 36.2634 207.173 36.1701 207.181 36.0955C207.213 35.8194 207.278 35.6115 207.377 35.4718C207.476 35.332 207.61 35.253 207.778 35.2347C207.831 35.2407 207.887 35.2472 207.946 35.2541C208.014 35.2544 208.086 35.2589 208.16 35.2675C208.25 35.2779 208.535 35.19 209.018 35.0039C209.226 35.0281 209.388 35.1035 209.502 35.2301C209.617 35.3493 209.685 35.5122 209.707 35.7188C209.717 35.8259 209.715 35.9769 209.7 36.1717C209.686 36.3592 209.664 36.5835 209.635 36.8446C209.618 36.9864 209.58 37.1899 209.52 37.4551C209.466 37.7211 209.433 37.9175 209.418 38.0444C209.413 38.0892 209.411 38.1418 209.411 38.2024C209.42 38.2564 209.427 38.3327 209.431 38.4314C209.41 38.6785 209.401 38.9838 209.405 39.3471C209.417 39.7039 209.435 40.1142 209.457 40.578C209.471 40.8518 209.5 41.1954 209.544 41.6087C209.588 42.0145 209.639 42.4893 209.698 43.0329C209.749 43.1144 209.799 43.2109 209.846 43.3222C209.902 43.427 209.953 43.5463 209.998 43.6801L210.071 43.7339C210.116 43.7391 210.243 43.5837 210.453 43.2678C210.672 42.9453 210.972 42.4622 211.356 41.8186C211.411 41.7342 211.476 41.6246 211.552 41.4897C211.629 41.3474 211.719 41.184 211.823 40.9995C211.866 40.959 211.913 40.9041 211.967 40.8346C212.02 40.7652 212.082 40.6817 212.154 40.5841C212.206 40.4616 212.28 40.3076 212.377 40.1223C212.474 39.9294 212.595 39.7052 212.737 39.4495C212.854 39.2891 212.986 39.0927 213.133 38.8603C213.289 38.6212 213.461 38.3387 213.649 38.0128C213.662 37.9688 213.828 37.7423 214.146 37.3331C214.473 36.9174 214.942 36.3252 215.551 35.5565C215.621 35.4664 215.693 35.3991 215.766 35.3546C215.84 35.3027 215.907 35.2802 215.967 35.2871Z" fill="#F1F2F2"/>
<path d="M217.207 38.9125L217.111 38.1642C217.173 38.0202 217.235 37.8761 217.297 37.7321C217.36 37.5805 217.418 37.4323 217.472 37.2874C217.529 37.1881 217.613 37.1184 217.723 37.0783C217.842 37.0315 217.99 37.0185 218.169 37.0392C218.237 37.047 218.339 37.0438 218.477 37.0295C218.622 37.016 218.724 37.0128 218.784 37.0197C218.851 37.0274 218.934 37.09 219.034 37.2075C219.134 37.3249 219.206 37.3936 219.249 37.4138C219.305 37.3825 219.376 37.3264 219.461 37.2455C219.553 37.1655 219.663 37.0573 219.792 36.921C219.903 36.8128 220.007 36.7266 220.105 36.6624C220.203 36.5981 220.306 36.5571 220.414 36.5394C220.526 36.6129 220.625 36.6735 220.711 36.7211C220.759 36.757 220.789 36.7945 220.8 36.8335C220.818 36.8734 220.823 36.927 220.815 36.9941C220.811 37.0314 220.783 37.1114 220.731 37.2339C220.68 37.349 220.606 37.5067 220.507 37.707C220.4 37.9213 220.315 38.1005 220.253 38.2446C220.191 38.3886 220.148 38.5008 220.124 38.5812C219.993 38.7399 219.885 38.8862 219.802 39.0202C219.727 39.1476 219.682 39.271 219.669 39.3904C219.652 39.5396 219.671 39.7687 219.726 40.0775C219.783 40.3789 219.871 40.7597 219.992 41.2198C220.163 41.8444 220.334 42.4955 220.506 43.1732C220.648 43.9155 220.803 44.6366 220.973 45.3367C221.143 46.0293 221.327 46.6971 221.526 47.3401C221.728 48.0138 221.901 48.5177 222.044 48.8518C222.188 49.186 222.304 49.3582 222.393 49.3686C222.468 49.3772 222.525 49.3422 222.564 49.2636C222.612 49.1784 222.646 49.0425 222.667 48.8559C222.676 48.7813 222.694 48.6852 222.723 48.5675C222.759 48.4507 222.807 48.324 222.868 48.1874C222.959 47.9937 223.048 47.7735 223.137 47.5267C223.255 47.1473 223.361 46.8155 223.454 46.5314C223.555 46.2482 223.639 46.0047 223.708 45.8009C223.753 45.6701 223.819 45.3904 223.906 44.9619C223.992 44.5335 224.097 43.952 224.218 43.2176C224.227 43.143 224.25 43.0398 224.288 42.9081C224.333 42.7772 224.376 42.6273 224.418 42.4582C224.468 42.2901 224.507 42.1471 224.535 42.0295C224.565 41.9044 224.585 41.7933 224.596 41.6963C224.616 41.5247 224.626 41.2688 224.627 40.9287C224.629 40.5811 224.64 40.3215 224.66 40.1499C224.825 39.6927 224.982 39.2459 225.13 38.8094C225.256 38.4309 225.371 38.1191 225.475 37.874C225.579 37.6215 225.665 37.4311 225.733 37.3028C225.883 37.048 226.055 36.8335 226.249 36.6594C226.443 36.4778 226.652 36.3357 226.875 36.233L226.965 36.2433C227.039 36.252 227.086 36.2725 227.105 36.305C227.131 36.3383 227.141 36.3885 227.133 36.4557C227.078 36.608 227.031 36.7235 226.992 36.8022C226.999 36.9391 227.005 37.0834 227.01 37.2353C226.966 37.4192 226.922 37.5729 226.878 37.6963C226.854 37.7767 226.824 37.9018 226.79 38.0717C226.756 38.2341 226.726 38.4347 226.698 38.6735C226.688 38.7631 226.655 38.9558 226.598 39.2517C226.543 39.5401 226.457 39.9271 226.341 40.4127C226.216 41.1089 226.08 41.8001 225.934 42.4863C225.795 43.1734 225.652 43.86 225.506 44.5462C225.351 45.375 225.178 46.1299 224.986 46.811C224.796 47.4845 224.592 48.0846 224.373 48.6112C224.298 48.9352 224.185 49.2926 224.035 49.6835C223.892 50.0752 223.715 50.497 223.505 50.949L223.094 51.4685C223.068 51.4957 222.822 51.5655 222.356 51.6779C221.891 51.7827 221.632 51.8322 221.58 51.8261C221.468 51.8132 221.317 51.6482 221.126 51.3313C220.937 51.0069 220.724 50.5248 220.487 49.885C220.258 49.3065 220.078 48.8321 219.947 48.4615C219.816 48.0834 219.739 47.8023 219.715 47.618C219.707 47.5491 219.695 47.4607 219.677 47.3528C219.659 47.2449 219.639 47.1216 219.617 46.983C219.506 46.6374 219.362 46.2087 219.186 45.6969C219.018 45.1859 218.823 44.5811 218.6 43.8825C218.567 43.7122 218.517 43.5478 218.453 43.389C218.396 43.2237 218.321 43.0487 218.229 42.8642L218.147 42.8887C218.078 43.0319 218.004 43.2124 217.926 43.4302C217.849 43.648 217.758 43.9097 217.655 44.2153C217.558 44.4082 217.459 44.5782 217.359 44.7254C217.198 45.1452 217.017 45.6007 216.818 46.0917C216.618 46.5827 216.403 47.1097 216.172 47.6727C216.105 47.8615 216.038 48.0578 215.969 48.2616C215.9 48.4653 215.823 48.6757 215.738 48.8926L215.495 49.2387C215.439 49.4591 215.38 49.6753 215.318 49.8874C215.247 50.053 215.156 50.2542 215.045 50.4909C214.944 50.7211 214.818 50.9975 214.667 51.3204C214.625 51.4894 214.555 51.6098 214.456 51.6815C214.364 51.7615 214.243 51.7967 214.093 51.7868C214.074 51.815 214.041 51.8414 213.993 51.866C213.944 51.8982 213.866 51.9231 213.758 51.9409C213.681 51.9471 213.63 51.8996 213.604 51.7983C213.577 51.7044 213.574 51.568 213.594 51.3889C213.606 51.2844 213.643 51.1224 213.706 50.9029C213.769 50.6833 213.858 50.4062 213.971 50.0716C214.098 49.6931 214.196 49.3982 214.265 49.187C214.343 48.9692 214.393 48.8313 214.414 48.7733C214.465 48.5977 214.525 48.3666 214.596 48.0799C214.666 47.7932 214.746 47.4621 214.834 47.0867C214.86 46.9915 214.896 46.8747 214.942 46.7363C214.996 46.5914 215.061 46.425 215.135 46.237C215.189 46.0921 215.31 45.6978 215.497 45.0541C215.685 44.4029 215.935 43.4982 216.249 42.3399C216.575 41.2058 216.894 40.0633 217.207 38.9125Z" fill="#F1F2F2"/>
<path fill-rule="evenodd" clip-rule="evenodd" d="M165.511 56.3188C165.479 56.5822 165.24 56.7696 164.977 56.7375L164.499 56.6793C164.236 56.6471 164.048 56.4076 164.08 56.1442C164.112 55.8809 164.351 55.6934 164.614 55.7255L165.092 55.7838C165.355 55.8159 165.543 56.0554 165.511 56.3188Z" fill="white"/>
<path fill-rule="evenodd" clip-rule="evenodd" d="M226.727 63.9221C226.695 64.1856 226.455 64.3727 226.192 64.34L225.721 64.2815C225.457 64.2488 225.27 64.0086 225.302 63.7452C225.335 63.4817 225.574 63.2946 225.838 63.3273L226.309 63.3858C226.572 63.4185 226.76 63.6586 226.727 63.9221ZM224.375 63.63C224.343 63.8935 224.103 64.0806 223.84 64.0479L222.897 63.9308C222.633 63.8981 222.446 63.658 222.478 63.3945C222.511 63.131 222.75 62.9439 223.014 62.9766L223.957 63.0937C224.22 63.1264 224.407 63.3665 224.375 63.63ZM221.551 63.2793C221.519 63.5428 221.279 63.7299 221.016 63.6972L220.073 63.5801C219.809 63.5474 219.622 63.3073 219.654 63.0438C219.687 62.7803 219.926 62.5932 220.19 62.6259L221.133 62.743C221.396 62.7757 221.583 63.0158 221.551 63.2793ZM218.727 62.9287C218.695 63.1922 218.455 63.3792 218.192 63.3465L217.249 63.2295C216.985 63.1968 216.798 62.9567 216.83 62.6932C216.863 62.4297 217.102 62.2426 217.366 62.2753L218.309 62.3924C218.572 62.4251 218.759 62.6652 218.727 62.9287ZM215.903 62.578C215.871 62.8415 215.631 63.0286 215.368 62.9959L214.425 62.8788C214.161 62.8461 213.974 62.606 214.006 62.3425C214.039 62.079 214.278 61.8919 214.542 61.9246L215.485 62.0417C215.748 62.0744 215.935 62.3145 215.903 62.578ZM213.079 62.2273C213.047 62.4908 212.807 62.6779 212.544 62.6452L211.601 62.5281C211.337 62.4954 211.15 62.2553 211.182 61.9918C211.215 61.7283 211.454 61.5413 211.718 61.574L212.661 61.691C212.924 61.7237 213.111 61.9638 213.079 62.2273ZM210.255 61.8767C210.223 62.1402 209.983 62.3273 209.72 62.2946L208.777 62.1775C208.514 62.1448 208.326 61.9047 208.359 61.6412C208.391 61.3777 208.63 61.1906 208.894 61.2233L209.837 61.3404C210.1 61.3731 210.287 61.6132 210.255 61.8767ZM207.431 61.526C207.399 61.7895 207.159 61.9766 206.896 61.9439L205.953 61.8268C205.69 61.7941 205.502 61.554 205.535 61.2905C205.567 61.027 205.807 60.8399 206.07 60.8726L207.013 60.9897C207.276 61.0224 207.463 61.2625 207.431 61.526ZM204.607 61.1753C204.575 61.4388 204.335 61.6259 204.072 61.5932L203.129 61.4762C202.866 61.4435 202.678 61.2033 202.711 60.9399C202.743 60.6764 202.983 60.4893 203.246 60.522L204.189 60.639C204.452 60.6717 204.639 60.9119 204.607 61.1753ZM201.783 60.8247C201.751 61.0882 201.511 61.2753 201.248 61.2426L200.305 61.1255C200.042 61.0928 199.854 60.8527 199.887 60.5892C199.919 60.3257 200.159 60.1386 200.422 60.1713L201.365 60.2884C201.628 60.3211 201.815 60.5612 201.783 60.8247ZM198.959 60.474C198.927 60.7375 198.687 60.9246 198.424 60.8919L197.481 60.7748C197.218 60.7421 197.03 60.502 197.063 60.2385C197.095 59.975 197.335 59.7879 197.598 59.8206L198.541 59.9377C198.804 59.9704 198.991 60.2105 198.959 60.474ZM196.135 60.1234C196.103 60.3869 195.863 60.574 195.6 60.5413L194.657 60.4242C194.394 60.3915 194.206 60.1514 194.239 59.8879C194.271 59.6244 194.511 59.4373 194.774 59.47L195.717 59.5871C195.98 59.6198 196.167 59.8599 196.135 60.1234ZM193.311 59.7727C193.279 60.0362 193.039 60.2233 192.776 60.1906L191.833 60.0735C191.57 60.0408 191.382 59.8007 191.415 59.5372C191.447 59.2737 191.687 59.0866 191.95 59.1193L192.893 59.2364C193.156 59.2691 193.344 59.5092 193.311 59.7727ZM190.487 59.422C190.455 59.6855 190.215 59.8726 189.952 59.8399L189.009 59.7228C188.746 59.6902 188.558 59.45 188.591 59.1865C188.623 58.9231 188.863 58.736 189.126 58.7687L190.069 58.8857C190.332 58.9184 190.52 59.1585 190.487 59.422ZM187.663 59.0714C187.631 59.3349 187.391 59.522 187.128 59.4893L186.185 59.3722C185.922 59.3395 185.734 59.0994 185.767 58.8359C185.799 58.5724 186.039 58.3853 186.302 58.418L187.245 58.5351C187.508 58.5678 187.696 58.8079 187.663 59.0714ZM184.839 58.7207C184.807 58.9842 184.567 59.1713 184.304 59.1386L183.361 59.0215C183.098 58.9888 182.911 58.7487 182.943 58.4852C182.975 58.2217 183.215 58.0346 183.478 58.0673L184.421 58.1844C184.684 58.2171 184.872 58.4572 184.839 58.7207ZM182.015 58.3701C181.983 58.6335 181.743 58.8206 181.48 58.7879L180.537 58.6709C180.274 58.6382 180.087 58.3981 180.119 58.1346C180.151 57.8711 180.391 57.684 180.654 57.7167L181.597 57.8338C181.86 57.8664 182.048 58.1066 182.015 58.3701ZM179.191 58.0194C179.159 58.2829 178.919 58.47 178.656 58.4373L177.713 58.3202C177.45 58.2875 177.263 58.0474 177.295 57.7839C177.327 57.5204 177.567 57.3333 177.83 57.366L178.773 57.4831C179.036 57.5158 179.224 57.7559 179.191 58.0194ZM176.367 57.6687C176.335 57.9322 176.095 58.1193 175.832 58.0866L174.889 57.9695C174.626 57.9368 174.439 57.6967 174.471 57.4332C174.503 57.1697 174.743 56.9826 175.006 57.0153L175.949 57.1324C176.212 57.1651 176.4 57.4052 176.367 57.6687ZM173.543 57.3181C173.511 57.5816 173.271 57.7687 173.008 57.736L172.065 57.6189C171.802 57.5862 171.615 57.3461 171.647 57.0826C171.679 56.8191 171.919 56.632 172.182 56.6647L173.125 56.7818C173.388 56.8145 173.576 57.0546 173.543 57.3181ZM170.719 56.9674C170.687 57.2309 170.448 57.418 170.184 57.3853L169.241 57.2682C168.978 57.2355 168.791 56.9954 168.823 56.7319C168.855 56.4684 169.095 56.2813 169.358 56.314L170.301 56.4311C170.565 56.4638 170.752 56.7039 170.719 56.9674ZM167.896 56.6167C167.863 56.8802 167.624 57.0673 167.36 57.0346L166.889 56.9761C166.625 56.9434 166.438 56.7033 166.47 56.4398C166.503 56.1763 166.742 55.9892 167.006 56.0219L167.477 56.0804C167.741 56.1131 167.928 56.3533 167.896 56.6167Z" fill="white"/>
<path fill-rule="evenodd" clip-rule="evenodd" d="M228.163 64.1012C228.132 64.3645 227.893 64.552 227.629 64.5199L227.152 64.4616C226.888 64.4295 226.701 64.1899 226.732 63.9266C226.764 63.6632 227.003 63.4758 227.267 63.5079L227.744 63.5661C228.007 63.5982 228.195 63.8378 228.163 64.1012Z" fill="white"/>
</g>
<defs>
<filter id="filter0_f" x="1.49512" y="107.133" width="163.752" height="50.5067" filterUnits="userSpaceOnUse" color-interpolation-filters="sRGB">
<feFlood flood-opacity="0" result="BackgroundImageFix"/>
<feBlend mode="normal" in="SourceGraphic" in2="BackgroundImageFix" result="shape"/>
<feGaussianBlur stdDeviation="1" result="effect1_foregroundBlur"/>
</filter>
<filter id="filter1_f" x="108.801" y="107.543" width="58.9657" height="31.2637" filterUnits="userSpaceOnUse" color-interpolation-filters="sRGB">
<feFlood flood-opacity="0" result="BackgroundImageFix"/>
<feBlend mode="normal" in="SourceGraphic" in2="BackgroundImageFix" result="shape"/>
<feGaussianBlur stdDeviation="4" result="effect1_foregroundBlur"/>
</filter>
<filter id="filter2_f" x="89.5208" y="77.2661" width="72.0922" height="54.8168" filterUnits="userSpaceOnUse" color-interpolation-filters="sRGB">
<feFlood flood-opacity="0" result="BackgroundImageFix"/>
<feBlend mode="normal" in="SourceGraphic" in2="BackgroundImageFix" result="shape"/>
<feGaussianBlur stdDeviation="2" result="effect1_foregroundBlur"/>
</filter>
<filter id="filter3_f" x="119.037" y="103.347" width="46.2464" height="22.9642" filterUnits="userSpaceOnUse" color-interpolation-filters="sRGB">
<feFlood flood-opacity="0" result="BackgroundImageFix"/>
<feBlend mode="normal" in="SourceGraphic" in2="BackgroundImageFix" result="shape"/>
<feGaussianBlur stdDeviation="2" result="effect1_foregroundBlur"/>
</filter>
<filter id="filter4_f" x="122.363" y="76.4302" width="14.6515" height="22.1964" filterUnits="userSpaceOnUse" color-interpolation-filters="sRGB">
<feFlood flood-opacity="0" result="BackgroundImageFix"/>
<feBlend mode="normal" in="SourceGraphic" in2="BackgroundImageFix" result="shape"/>
<feGaussianBlur stdDeviation="2" result="effect1_foregroundBlur"/>
</filter>
<filter id="filter5_f" x="23.7581" y="34.1214" width="117.908" height="45.8007" filterUnits="userSpaceOnUse" color-interpolation-filters="sRGB">
<feFlood flood-opacity="0" result="BackgroundImageFix"/>
<feBlend mode="normal" in="SourceGraphic" in2="BackgroundImageFix" result="shape"/>
<feGaussianBlur stdDeviation="1" result="effect1_foregroundBlur"/>
</filter>
<filter id="filter6_f" x="25.9153" y="34.6294" width="113.593" height="46.4566" filterUnits="userSpaceOnUse" color-interpolation-filters="sRGB">
<feFlood flood-opacity="0" result="BackgroundImageFix"/>
<feBlend mode="normal" in="SourceGraphic" in2="BackgroundImageFix" result="shape"/>
<feGaussianBlur stdDeviation="2" result="effect1_foregroundBlur"/>
</filter>
<filter id="filter7_f" x="35.061" y="38.8095" width="95.3016" height="38.0965" filterUnits="userSpaceOnUse" color-interpolation-filters="sRGB">
<feFlood flood-opacity="0" result="BackgroundImageFix"/>
<feBlend mode="normal" in="SourceGraphic" in2="BackgroundImageFix" result="shape"/>
<feGaussianBlur stdDeviation="2" result="effect1_foregroundBlur"/>
</filter>
<filter id="filter8_f" x="42.5442" y="42.9896" width="80.3356" height="29.7363" filterUnits="userSpaceOnUse" color-interpolation-filters="sRGB">
<feFlood flood-opacity="0" result="BackgroundImageFix"/>
<feBlend mode="normal" in="SourceGraphic" in2="BackgroundImageFix" result="shape"/>
<feGaussianBlur stdDeviation="2" result="effect1_foregroundBlur"/>
</filter>
<filter id="filter9_f" x="142.239" y="74.168" width="28.8281" height="47.5677" filterUnits="userSpaceOnUse" color-interpolation-filters="sRGB">
<feFlood flood-opacity="0" result="BackgroundImageFix"/>
<feBlend mode="normal" in="SourceGraphic" in2="BackgroundImageFix" result="shape"/>
<feGaussianBlur stdDeviation="1" result="effect1_foregroundBlur"/>
</filter>
<filter id="filter10_f" x="16.6008" y="54.6938" width="129.429" height="31.6894" filterUnits="userSpaceOnUse" color-interpolation-filters="sRGB">
<feFlood flood-opacity="0" result="BackgroundImageFix"/>
<feBlend mode="normal" in="SourceGraphic" in2="BackgroundImageFix" result="shape"/>
<feGaussianBlur stdDeviation="2" result="effect1_foregroundBlur"/>
</filter>
<filter id="filter11_d" x="151.005" y="13.0245" width="107.689" height="79.4504" filterUnits="userSpaceOnUse" color-interpolation-filters="sRGB">
<feFlood flood-opacity="0" result="BackgroundImageFix"/>
<feColorMatrix in="SourceAlpha" type="matrix" values="0 0 0 0 0 0 0 0 0 0 0 0 0 0 0 0 0 0 127 0"/>
<feOffset dx="3" dy="3"/>
<feGaussianBlur stdDeviation="2"/>
<feColorMatrix type="matrix" values="0 0 0 0 0 0 0 0 0 0 0 0 0 0 0 0 0 0 0.5 0"/>
<feBlend mode="normal" in2="BackgroundImageFix" result="effect1_dropShadow"/>
<feBlend mode="normal" in="SourceGraphic" in2="effect1_dropShadow" result="shape"/>
</filter>
<radialGradient id="paint0_radial" cx="0" cy="0" r="1" gradientUnits="userSpaceOnUse" gradientTransform="translate(82.5623 116.14) scale(59.548 85.6216)">
<stop offset="0.01" stop-color="#F0F0F0"/>
<stop offset="1" stop-color="#C7C7C7"/>
</radialGradient>
<radialGradient id="paint1_radial" cx="0" cy="0" r="1" gradientUnits="userSpaceOnUse" gradientTransform="translate(87.7362 125.05) scale(75.9487 35.3451)">
<stop offset="0.12" stop-color="#1C0B05"/>
<stop offset="0.21" stop-color="#20100A"/>
<stop offset="0.32" stop-color="#2D1E18"/>
<stop offset="0.44" stop-color="#433530"/>
<stop offset="0.56" stop-color="#615550"/>
<stop offset="0.69" stop-color="#877E7B"/>
<stop offset="0.83" stop-color="#B6B1AF"/>
<stop offset="0.96" stop-color="#ECEBEB"/>
<stop offset="1" stop-color="white"/>
</radialGradient>
<linearGradient id="paint2_linear" x1="79.1408" y1="156.482" x2="79.1408" y2="78.5008" gradientUnits="userSpaceOnUse">
<stop stop-color="white"/>
<stop offset="1" stop-color="white"/>
</linearGradient>
<radialGradient id="paint3_radial" cx="0" cy="0" r="1" gradientUnits="userSpaceOnUse" gradientTransform="translate(79.1406 115.83) scale(83.5227 40.3112)">
<stop offset="0.82" stop-color="white"/>
<stop offset="0.88" stop-color="#F8F7F7"/>
<stop offset="0.98" stop-color="#E4E2E1"/>
<stop offset="1" stop-color="#E0DDDC"/>
</radialGradient>
<linearGradient id="paint4_linear" x1="85.5457" y1="136.426" x2="85.5457" y2="95.5453" gradientUnits="userSpaceOnUse">
<stop offset="0.33" stop-color="#D8D8D8"/>
<stop offset="1" stop-color="#B5B5B5"/>
</linearGradient>
<radialGradient id="paint5_radial" cx="0" cy="0" r="1" gradientUnits="userSpaceOnUse" gradientTransform="translate(85.7941 112.524) scale(37.2184 16.9172)">
<stop offset="0.51" stop-color="#1C0B05"/>
<stop offset="0.56" stop-color="#2A1A14"/>
<stop offset="0.65" stop-color="#4D403B"/>
<stop offset="0.77" stop-color="#877E7B"/>
<stop offset="0.92" stop-color="#D5D2D1"/>
<stop offset="1" stop-color="white"/>
</radialGradient>
<radialGradient id="paint6_radial" cx="0" cy="0" r="1" gradientUnits="userSpaceOnUse" gradientTransform="translate(84.4829 102.351) scale(55.0083 28.7615)">
<stop stop-color="white"/>
<stop offset="0.23" stop-color="#FCFCFB"/>
<stop offset="0.43" stop-color="#F5F2F1"/>
<stop offset="0.62" stop-color="#E7E2DE"/>
<stop offset="0.8" stop-color="#D5CBC5"/>
<stop offset="0.99" stop-color="#BDAEA4"/>
<stop offset="1" stop-color="#BBABA1"/>
</radialGradient>
<linearGradient id="paint7_linear" x1="126.288" y1="102.986" x2="117.441" y2="116.116" gradientUnits="userSpaceOnUse">
<stop offset="0.24" stop-color="#B6AAA0"/>
<stop offset="0.27" stop-color="#BBB0A7"/>
<stop offset="0.48" stop-color="#DCD5D1"/>
<stop offset="0.64" stop-color="#F0ECEA"/>
<stop offset="0.73" stop-color="#F7F5F4"/>
</linearGradient>
<linearGradient id="paint8_linear" x1="22.2826" y1="87.2855" x2="141.313" y2="77.453" gradientUnits="userSpaceOnUse">
<stop stop-color="#FEFEFE"/>
<stop offset="0.01" stop-color="#E8E4E1"/>
<stop offset="0.02" stop-color="#D6CFC9"/>
<stop offset="0.03" stop-color="#C7BEB7"/>
<stop offset="0.05" stop-color="#BDB3AA"/>
<stop offset="0.06" stop-color="#B8ACA2"/>
<stop offset="0.1" stop-color="#B6AAA0"/>
<stop offset="0.21" stop-color="#D2CBC5"/>
<stop offset="0.68" stop-color="#F7F5F4"/>
<stop offset="1" stop-color="#E1DCD8"/>
</linearGradient>
<linearGradient id="paint9_linear" x1="103.016" y1="85.279" x2="131.098" y2="95.77" gradientUnits="userSpaceOnUse">
<stop stop-color="white"/>
<stop offset="0.22" stop-color="#F9F8F7"/>
<stop offset="0.56" stop-color="#E9E4E1"/>
<stop offset="0.89" stop-color="#D5CBC5"/>
<stop offset="0.98" stop-color="#D5CBC5"/>
</linearGradient>
<linearGradient id="paint10_linear" x1="132.199" y1="85.3543" x2="125.997" y2="100.839" gradientUnits="userSpaceOnUse">
<stop offset="0.11" stop-color="#D5CBC5"/>
<stop offset="0.44" stop-color="#E9E4E1"/>
<stop offset="0.78" stop-color="#F9F8F7"/>
<stop offset="1" stop-color="white"/>
</linearGradient>
<linearGradient id="paint11_linear" x1="81.7475" y1="81.3415" x2="81.7475" y2="35.9626" gradientUnits="userSpaceOnUse">
<stop stop-color="#F2F2F2"/>
<stop offset="0.24" stop-color="#E5E4E4"/>
<stop offset="0.69" stop-color="#C3BFBE"/>
<stop offset="1" stop-color="#A9A2A0"/>
</linearGradient>
<linearGradient id="paint12_linear" x1="25.8247" y1="58.1915" x2="137.662" y2="58.1915" gradientUnits="userSpaceOnUse">
<stop stop-color="#B6ADA4"/>
<stop offset="0.13" stop-color="#C9C3BD"/>
<stop offset="0.39" stop-color="#F6F6F6"/>
<stop offset="0.47" stop-color="#F2F2F2"/>
<stop offset="0.55" stop-color="#E5E5E5"/>
<stop offset="0.56" stop-color="#E2E2E2"/>
<stop offset="0.68" stop-color="#DAD8D5"/>
<stop offset="0.79" stop-color="#D7D3CF"/>
<stop offset="0.84" stop-color="#C1B9B2"/>
<stop offset="0.9" stop-color="#B1A79D"/>
<stop offset="0.95" stop-color="#A79C91"/>
<stop offset="1" stop-color="#A4988D"/>
</linearGradient>
<linearGradient id="paint13_linear" x1="120.784" y1="99.3742" x2="168.484" y2="99.3742" gradientUnits="userSpaceOnUse">
<stop offset="0.02" stop-color="#D5CBC5"/>
<stop offset="0.11" stop-color="#D5CBC5"/>
<stop offset="0.44" stop-color="#E9E4E1"/>
<stop offset="0.78" stop-color="#F9F8F7"/>
<stop offset="1" stop-color="white"/>
</linearGradient>
<linearGradient id="paint14_linear" x1="142.16" y1="107.347" x2="142.16" y2="122.311" gradientUnits="userSpaceOnUse">
<stop offset="0.385417" stop-color="#361F00" stop-opacity="0"/>
<stop offset="1" stop-color="#563408" stop-opacity="0.43"/>
</linearGradient>
<linearGradient id="paint15_linear" x1="126.363" y1="91.2984" x2="131.806" y2="83.8026" gradientUnits="userSpaceOnUse">
<stop stop-color="#5A380B"/>
<stop offset="1" stop-color="#5A380B" stop-opacity="0"/>
</linearGradient>
<linearGradient id="paint16_linear" x1="125.149" y1="100.57" x2="149.833" y2="114.507" gradientUnits="userSpaceOnUse">
<stop stop-color="#CECAC7"/>
<stop offset="0.28" stop-color="#F0EEED"/>
<stop offset="0.45" stop-color="#ECEAE9"/>
<stop offset="0.64" stop-color="#E1DEDC"/>
<stop offset="0.83" stop-color="#CFCAC7"/>
<stop offset="1" stop-color="#B8B2AE"/>
</linearGradient>
<linearGradient id="paint17_linear" x1="109.975" y1="81.5922" x2="109.319" y2="107.709" gradientUnits="userSpaceOnUse">
<stop stop-color="white"/>
<stop offset="0.06" stop-color="#ECECEC"/>
<stop offset="0.33" stop-color="#999999"/>
<stop offset="0.57" stop-color="#575757"/>
<stop offset="0.76" stop-color="#282828"/>
<stop offset="0.91" stop-color="#0B0B0B"/>
<stop offset="1"/>
</linearGradient>
<linearGradient id="paint18_linear" x1="584.023" y1="2449.34" x2="437.799" y2="3162.36" gradientUnits="userSpaceOnUse">
<stop stop-color="white"/>
<stop offset="0.06" stop-color="#ECECEC"/>
<stop offset="0.33" stop-color="#999999"/>
<stop offset="0.57" stop-color="#575757"/>
<stop offset="0.76" stop-color="#282828"/>
<stop offset="0.91" stop-color="#0B0B0B"/>
<stop offset="1"/>
</linearGradient>
<linearGradient id="paint19_linear" x1="160.452" y1="116.379" x2="143.668" y2="77.1523" gradientUnits="userSpaceOnUse">
<stop stop-color="#4A2F0A" stop-opacity="0.5"/>
<stop offset="1" stop-color="#4A2F0A" stop-opacity="0"/>
</linearGradient>
<linearGradient id="paint20_linear" x1="186.659" y1="6.7307" x2="222.945" y2="97.0652" gradientUnits="userSpaceOnUse">
<stop stop-color="#E20613"/>
<stop offset="0.31" stop-color="#CF0B14"/>
<stop offset="0.93" stop-color="#9F1815"/>
<stop offset="1" stop-color="#991915"/>
</linearGradient>
<clipPath id="clip0">
<rect width="114.836" height="90.3604" fill="white" transform="matrix(0.987011 0.160653 -0.159113 0.98726 148.658 0)"/>
</clipPath>
</defs>
</svg>
