<?xml version="1.0" encoding="utf-8"?>
<!-- Generator: Adobe Illustrator 24.0.0, SVG Export Plug-In . SVG Version: 6.00 Build 0)  -->
<svg version="1.1" id="Слой_1" xmlns="http://www.w3.org/2000/svg" xmlns:xlink="http://www.w3.org/1999/xlink" x="0px" y="0px"
	 viewBox="0 0 200 200" style="enable-background:new 0 0 200 200;" xml:space="preserve">
<style type="text/css">
	.st0{fill:#40689D;}
	.st1{fill:#A2BEE6;stroke:#000000;stroke-width:0.2;}
</style>
<path class="st0" d="M102.1,153.9l-7-11.2c2.1-0.3,4.3-0.2,6.3,0.3l9.6,5.3c-2.1-0.5-4.2-0.6-6.3-0.3"/>
<path class="st0" d="M107.1,151.9l-5.7-8.8c1,0.3,2,0.6,2.9,1.1l9.6,5.3c-0.9-0.4-1.9-0.8-2.9-1.1"/>
<path class="st0" d="M114,149.4l-9.6-5.3l0.6,0.3l9.6,5.3L114,149.4z"/>
<path class="st0" d="M94.7,186.2l-9.6-5.3c-5.1-2.8-8.6-8.6-8.6-15.6c0-2.7,0.5-5.3,1.4-7.9l9.6,5.3c-0.9,2.5,6,6.4,6,9.1
	C93.6,178.9,89.6,183.4,94.7,186.2"/>
<path class="st0" d="M90.1,179.2L78,157.4c0.4-1.1,0.9-2.1,1.4-3.1l9.6,5.3c-0.5,1,8.1,10.2,7.7,11.2"/>
<path class="st0" d="M89.6,167.4l-10.3-13.1c0.5-0.8,1-1.6,1.5-2.4l9.6,5.3c-0.5,0.8-1,1.6-1.5,2.4"/>
<path class="st0" d="M91.6,163.6l-10.7-11.7c0.5-0.7,1.1-1.4,1.7-2.1l9.6,5.3c-0.6,0.7-1.2,1.4-1.7,2.1"/>
<path class="st0" d="M92.2,162.8l-9.6-13.1c0.6-0.7,1.2-1.3,1.9-1.9l20.3,4.4c-0.7,0.6-11.9,2.1-12.5,2.8"/>
<path class="st0" d="M94.1,153.1l-9.6-5.3c0.7-0.6,1.5-1.2,2.2-1.8l22.4,4.2C108.3,150.8,94.8,152.5,94.1,153.1"/>
<path class="st0" d="M96.3,151.4l-9.6-5.3c1-0.7,2-1.2,3-1.7l9.6,5.3C98.2,150.1,97.2,150.7,96.3,151.4"/>
<path class="st0" d="M96.8,156.5l-7.1-12.2c1.7-0.8,3.5-1.3,5.4-1.6l9.6,5.3c-1.9,0.3-3.7,0.8-5.4,1.6"/>
<path class="st1" d="M104.7,148.1L104.7,148.1c10.1-1.4,18.3,6.3,18.3,17.2c0,10.9-8.3,21-18.4,22.4c-10.1,1.4-18.3-6.3-18.3-17.2
	C86.3,159.6,94.6,149.5,104.7,148.1z"/>
<path class="st0" d="M87.3,111L76.7,99.6l25.7-27.1l15.2,2.4L87.3,111z"/>
<path class="st0" d="M86.2,140.6l-9.6-5.2l0.1-35.8l9.6,5.2L86.2,140.6z"/>
<path class="st0" d="M112,77.7L100.9,74l1.8-2l9.6,5.3L112,77.7z"/>
<path class="st0" d="M108.9,83l-6.3-11c0.4-0.4,0.7-0.8,1-1.3l9.6,5.3c-0.3,0.4-0.7,0.9-1.1,1.3"/>
<path class="st0" d="M108.5,86.6l-4.9-15.8c0.3-0.5,0.6-1,0.9-1.5l9.6,5.3C113.9,75.1,108.9,86.1,108.5,86.6z"/>
<path class="st0" d="M109.5,84.9l-5-15.6c0.3-0.6,0.6-1.2,0.8-1.9l9.6,5.3C114.8,73.4,109.9,84.3,109.5,84.9z"/>
<path class="st0" d="M109.8,84.2l-4.4-16.8c0.6-1.5,0.9-3.1,0.9-4.7c0.1-1.9-0.4-3.8-1.3-5.4c-0.9-1.7-2.2-3-3.9-4l9.6,5.3
	c1.6,0.9,3,2.3,3.9,4c0.9,1.7,1.3,3.5,1.3,5.4c0,1.6-1.2,11.7-1.7,13.2"/>
<path class="st0" d="M104.9,17.7l-9.6-5.3c5.5-0.8,11.1-0.5,16.5,0.8l14.5,6.7C120.9,18.6,110.4,16.9,104.9,17.7"/>
<path class="st0" d="M121.5,18.6l-9.6-5.3c2.6,0.7,5.2,1.6,7.6,2.8l9.6,5.3C126.6,20.2,124.1,19.3,121.5,18.6"/>
<path class="st0" d="M129,21.4l-9.6-5.3l1.5,0.8l9.6,5.3C130,21.9,129.5,21.7,129,21.4"/>
<path class="st0" d="M56.8,81.3l-9.6-5.2l0-5l16.9-1.8L56.8,81.3z"/>
<path class="st0" d="M56.9,76.3L47.2,71c0-6.9,1.3-13.8,3.7-20.3l13.2,1.6C61.7,58.8,56.9,69.4,56.9,76.3"/>
<path class="st0" d="M60.5,56l-9.6-5.3c1-2.8,2.2-5.5,3.6-8.1l18,0.8C71.1,46.1,61.5,53.2,60.5,56"/>
<path class="st0" d="M64.2,47.9l-9.7-5.2c1.2-2.2,2.5-4.3,3.9-6.3l11.7,3.5C68.7,41.8,65.3,45.7,64.2,47.9"/>
<path class="st0" d="M56.5,39.2l2-3c1.3-1.9,2.8-3.8,4.3-5.5L79,34.3c-1.5,1.8-9.5,5.3-10.8,7.2"/>
<path class="st0" d="M58.9,35.6l3.9-5c1.5-1.7,3.2-3.4,4.9-5l9.6,5.3c-1.7,1.6-3.4,3.2-4.9,5"/>
<path class="st0" d="M68.8,48.4l-1.1-22.7c1.8-1.7,3.8-3.2,5.8-4.6l12.8,4.6c-2,1.4-9.6,17.8-11.4,19.5"/>
<path class="st0" d="M83.1,26.4l-9.6-5.3c2.5-1.7,5.1-3.2,7.8-4.5l15.8,4.5C94.4,22.4,85.6,24.7,83.1,26.4"/>
<path class="st0" d="M90.9,21.9l-9.6-5.3c4.4-2.1,9.1-3.5,14-4.2l14.5,6.2C105,19.3,95.4,19.8,90.9,21.9"/>
<path class="st1" d="M104.9,17.8L104.9,17.8L104.9,17.8c26.4-3.7,47.8,16.5,47.8,45c-0.2,15.6-6.2,30.5-17,41.8l0,0L123.1,118l0,0v0
	v17.3l-36.8,5.2l0.1-35.7L112,77.8c2.5-2.6,3.9-6.1,4-9.7v0c0-6.7-5-11.4-11.2-10.5c-6.2,0.9-11.2,7-11.2,13.6v0v4.9l-36.7,5.1v-4.9
	C57,47.8,78.5,21.6,104.9,17.8z"/>
</svg>
