<svg width="30" height="30" fill="none" xmlns="http://www.w3.org/2000/svg"><path d="M12 13.579l-3.315 3.316L12 20.21m6.158-6.631l3.316 3.316-3.316 3.316" stroke="#EB5757" stroke-linecap="round" stroke-linejoin="round"/><path d="M16.74 12.308a.5.5 0 10-.954-.3l.954.3zm-3.796 8.7a.5.5 0 00.954.3l-.954-.3zm2.842-9l-2.842 9 .954.3 2.842-9-.954-.3z" fill="#EB5757"/><path d="M3 9.79V22a2 2 0 002 2h19.684a2 2 0 002-2V9.79M3 9.79V8a2 2 0 012-2h19.684a2 2 0 012 2v1.79M3 9.79h23.684" stroke="#EB5757"/><path d="M8.685 7.895h13.263m1.42 0h1.422" stroke="#EB5757" stroke-linecap="round"/><circle cx="7.405" cy="7.847" r=".426" fill="#EB5757"/><circle cx="6.079" cy="7.847" r=".426" fill="#EB5757"/><circle cx="4.847" cy="7.847" r=".426" fill="#EB5757"/></svg>