<svg width="200" height="130" viewBox="0 0 200 130" fill="none" xmlns="http://www.w3.org/2000/svg">
<g clip-path="url(#clip0)">
<g filter="url(#filter0_d)">
<path d="M156.485 34.8825L156.409 45.3629C156.419 45.5368 156.518 45.661 156.7 45.6486L157.249 45.6547C157.386 45.6454 157.517 45.5491 157.553 45.3721L157.629 34.8917C157.619 34.7178 157.521 34.5936 157.338 34.6061L156.789 34.5999C156.604 34.5689 156.475 34.7086 156.485 34.8825Z" fill="url(#paint0_linear)"/>
<path d="M156.531 47.1589L156.493 51.1299C156.503 51.3036 156.6 51.4276 156.778 51.415L157.315 51.4208C157.449 51.4114 157.578 51.3151 157.612 51.1382L157.65 47.1672C157.64 46.9935 157.543 46.8695 157.365 46.882L156.828 46.8763C156.649 46.8888 156.523 47.0286 156.531 47.1589Z" fill="url(#paint1_linear)"/>
<path d="M156.738 28.4949L156.507 82.368C156.514 84.7622 158.439 86.6706 160.782 86.6334L183.026 86.4332C185.413 86.3929 187.337 84.47 187.375 82.0727L187.605 28.1996C187.599 25.8054 185.674 23.897 183.331 23.9342L161.086 24.1344C158.697 24.1314 156.732 26.1007 156.738 28.4949Z" fill="url(#paint2_linear)"/>
<path d="M161.346 24.4071L182.604 24.2288C183.74 24.234 184.77 24.6739 185.558 25.4726C186.347 26.2713 186.756 27.3104 186.776 28.4197L186.811 29.0154C186.834 27.903 186.379 26.8244 185.59 26.0257C184.802 25.227 183.728 24.7902 182.595 24.8276L161.337 25.0059C160.201 25.0007 159.136 25.4605 158.352 26.2423C157.567 27.024 157.106 28.1246 157.083 29.237L157.095 28.6808C157.106 28.1246 157.205 27.5623 157.437 27.0332C157.668 26.5042 157.991 26.0541 158.361 25.6435C158.73 25.2329 159.237 24.9407 159.747 24.6911C160.218 24.5296 160.778 24.4046 161.346 24.4071Z" fill="url(#paint3_linear)"/>
<path d="M182.766 86.1607L161.552 86.3357C160.984 86.3331 160.455 86.2423 159.918 86.024C159.381 85.8056 158.927 85.496 158.557 85.1377C158.184 84.7368 157.853 84.2904 157.649 83.7922C157.446 83.2939 157.327 82.747 157.338 82.1909L157.348 81.5922C157.324 82.7045 157.78 83.7829 158.568 84.5815C159.357 85.3802 160.43 85.8169 161.563 85.7795L182.821 85.6015C183.956 85.6067 185.022 85.1469 185.847 84.3197C186.632 83.538 187.092 82.4376 187.116 81.3253L187.106 81.924C187.095 82.4801 186.996 83.0424 186.765 83.5714C186.533 84.1003 186.21 84.5503 185.841 84.9609C185.428 85.3745 184.964 85.6636 184.452 85.8706C183.894 86.0382 183.334 86.1633 182.766 86.1607Z" fill="url(#paint4_linear)"/>
<path d="M186.788 28.5626L186.561 81.7397C186.542 82.1764 186.476 82.5729 186.323 82.9758C186.169 83.3786 185.925 83.7444 185.587 84.0298C185.297 84.3554 184.913 84.6006 184.524 84.7591C184.135 84.9176 183.696 84.9925 183.256 85.0241L160.569 85.2557C160.126 85.2439 159.724 85.1856 159.318 85.0406C158.911 84.8955 158.543 84.6606 158.259 84.3327C157.974 84.0048 157.734 83.6737 157.535 83.2961C157.38 82.9153 157.311 82.4849 157.285 82.0513L157.513 28.8742C157.511 28.0906 157.779 27.3748 158.275 26.7733C158.771 26.1717 159.456 25.7744 160.245 25.6308C160.418 25.5749 160.639 25.5591 160.817 25.5898L164.798 25.5659C164.931 25.5564 165.021 25.5935 165.156 25.6274C165.247 25.6644 165.384 25.7417 165.433 25.8252C165.526 25.9056 165.578 26.0326 165.627 26.1161C165.679 26.243 165.684 26.3298 165.691 26.4598C165.706 26.72 165.763 26.9336 165.949 27.0944C166.136 27.2552 166.364 27.3695 166.584 27.3537L177.685 27.2553C177.949 27.2363 178.164 27.1339 178.333 26.9912C178.499 26.8051 178.619 26.5788 178.604 26.3187C178.596 26.1886 178.635 26.0987 178.672 25.9655C178.711 25.8756 178.791 25.7392 178.875 25.6462C178.958 25.5532 179.043 25.5035 179.173 25.4507C179.303 25.3979 179.391 25.3916 179.523 25.3821L183.504 25.3582C184.344 25.3416 185.204 25.6718 185.814 26.2812C186.425 26.8905 186.781 27.6922 186.788 28.5626Z" fill="#F5F9FF"/>
<path d="M182.791 38.0119C182.791 38.0754 178.01 38.1729 172.112 38.2305C166.215 38.2881 161.443 38.2839 161.444 38.2204C161.444 38.1569 166.225 38.0637 172.118 38.0061C178.011 37.9485 182.791 37.9526 182.791 38.0119Z" fill="#263238"/>
<path d="M182.804 39.3291C182.803 39.3885 178.022 39.486 172.125 39.5435C166.228 39.601 161.456 39.5966 161.456 39.5372C161.457 39.4778 166.237 39.3803 172.131 39.3228C178.024 39.2654 182.804 39.2697 182.804 39.3291Z" fill="#263238"/>
<path d="M175.611 40.5686C174.181 40.689 172.746 40.7395 171.313 40.72C169.879 40.772 168.445 40.7538 167.015 40.6656C167.015 40.6102 168.937 40.5411 171.313 40.5142C173.689 40.4874 175.611 40.5132 175.611 40.5686Z" fill="#263238"/>
<path d="M182.886 42.1347L160.256 42.6527L160.354 56.8166L182.984 56.2986L182.886 42.1347Z" fill="#71A0DD"/>
<path d="M162.661 46.0788C163.162 46.0673 163.566 45.6658 163.563 45.1821C163.559 44.6983 163.151 44.3155 162.649 44.327C162.148 44.3385 161.745 44.7399 161.748 45.2237C161.751 45.7074 162.16 46.0903 162.661 46.0788Z" fill="#FAFAFA"/>
<path d="M181.654 45.7418L180.9 45.0525L180.209 45.754L180.195 43.6886L181.636 43.6558L181.654 45.7418ZM180.899 44.9616L180.924 44.9858L181.586 45.5946L181.574 43.7192L180.263 43.749L180.279 45.5996L180.899 44.9616Z" fill="#FAFAFA"/>
<path d="M175.955 44.5757C175.955 44.6224 173.453 44.6976 170.411 44.7403C167.368 44.7831 164.854 44.7783 164.854 44.7316C164.854 44.6849 167.356 44.5998 170.411 44.5568C173.466 44.5139 175.955 44.529 175.955 44.5757Z" fill="#FAFAFA"/>
<path d="M169.156 45.8689C168.45 45.9748 167.735 46.0185 167.021 45.9993C166.301 46.0452 165.579 46.0269 164.866 45.9448C165.579 45.8456 166.301 45.8077 167.021 45.8318C167.733 45.7836 168.448 45.796 169.156 45.8689Z" fill="#FAFAFA"/>
<path d="M160.538 76.4663C160.746 76.5004 160.957 76.516 161.169 76.5129L182.743 76.1201L182.667 65.0853L160.463 65.59L160.538 76.4663ZM181.458 66.5838L181.497 68.6146L180.762 67.9365L180.107 68.6462L180.072 66.6153L181.458 66.5838ZM162.818 67.4666C162.994 67.4626 163.166 67.5095 163.313 67.6012C163.46 67.693 163.575 67.8256 163.643 67.9822C163.712 68.1388 163.73 68.3124 163.697 68.481C163.664 68.6497 163.581 68.8058 163.457 68.9296C163.334 69.0535 163.176 69.1395 163.003 69.1768C162.831 69.2141 162.652 69.2011 162.489 69.1393C162.326 69.0774 162.187 68.9697 162.088 68.8296C161.989 68.6895 161.936 68.5234 161.935 68.3522C161.933 68.1227 162.025 67.9005 162.191 67.7344C162.357 67.5683 162.582 67.472 162.818 67.4666Z" fill="#A62E41"/>
<path d="M180.733 67.911L180.758 67.9311L181.407 68.5402L181.374 66.6694L180.088 66.711L180.121 68.5487L180.733 67.911Z" fill="#A62E41"/>
<path d="M162.836 69.0257C163.328 69.0145 163.724 68.6131 163.721 68.1292C163.718 67.6453 163.316 67.2621 162.824 67.2733C162.332 67.2846 161.936 67.686 161.939 68.1699C161.943 68.6538 162.344 69.0369 162.836 69.0257Z" fill="#FAFAFA"/>
<path d="M180.737 68.0024L181.475 68.6922L181.436 66.6273L180.024 66.6593L180.059 68.7243L180.737 68.0024ZM181.374 66.67L181.407 68.5408L180.757 67.9317L180.732 67.9116L180.12 68.5493L180.088 66.7116L181.374 66.67Z" fill="#FAFAFA"/>
<path d="M182.398 58.0296C182.398 58.0778 177.475 58.1764 171.407 58.2471C165.339 58.3178 160.404 58.334 160.405 58.2859C160.405 58.2377 165.327 58.1391 171.4 58.0683C177.472 57.9976 182.398 57.9815 182.398 58.0296Z" fill="#263238"/>
<path d="M182.409 59.1425C182.408 59.1907 177.486 59.2893 171.418 59.36C165.349 59.4307 160.415 59.4469 160.415 59.3988C160.416 59.3506 165.338 59.252 171.411 59.1812C177.483 59.1105 182.409 59.0909 182.409 59.1425Z" fill="#263238"/>
<path d="M182.423 60.4095C182.422 60.4577 177.5 60.5563 171.431 60.627C165.363 60.6977 160.429 60.7139 160.429 60.6657C160.429 60.6176 165.352 60.519 171.424 60.4482C177.497 60.3775 182.423 60.3579 182.423 60.4095Z" fill="#263238"/>
<path d="M171.906 61.6134C171.906 61.6611 169.342 61.7362 166.179 61.7786C163.015 61.8209 160.439 61.8145 160.439 61.7668C160.439 61.7191 163.007 61.6439 166.171 61.6015C169.335 61.5592 171.906 61.5657 171.906 61.6134Z" fill="#263238"/>
<path d="M182.398 77.8181C182.398 77.8662 177.475 77.9649 171.407 78.0356C165.339 78.1063 160.404 78.1225 160.405 78.0743C160.405 78.0261 165.327 77.9275 171.4 77.8568C177.472 77.786 182.398 77.7699 182.398 77.8181Z" fill="#263238"/>
<path d="M182.409 78.931C182.408 78.9792 177.486 79.0778 171.418 79.1485C165.349 79.2192 160.415 79.2354 160.415 79.1872C160.416 79.1391 165.338 79.0404 171.411 78.9697C177.483 78.899 182.409 78.8794 182.409 78.931Z" fill="#263238"/>
<path d="M182.423 80.1978C182.422 80.246 177.5 80.3446 171.431 80.4153C165.363 80.486 160.429 80.5022 160.429 80.4541C160.429 80.4059 165.352 80.3073 171.424 80.2365C177.497 80.1658 182.423 80.1462 182.423 80.1978Z" fill="#263238"/>
<path d="M171.906 81.4018C171.906 81.4495 169.342 81.5247 166.179 81.567C163.015 81.6094 160.439 81.6029 160.439 81.5552C160.439 81.5076 163.007 81.4323 166.171 81.39C169.335 81.3477 171.906 81.3541 171.906 81.4018Z" fill="#263238"/>
<path d="M175.375 26.2628L168.442 26.3196C168.398 26.3226 168.352 26.2835 168.306 26.2443C168.261 26.2051 168.258 26.1629 168.256 26.1207C168.253 26.0785 168.253 26.0785 168.251 26.0363C168.248 25.9941 168.292 25.9911 168.292 25.9911L168.333 25.9459C168.376 25.9429 168.376 25.9429 168.42 25.9399L175.353 25.883C175.397 25.88 175.397 25.88 175.44 25.877C175.484 25.874 175.486 25.9162 175.486 25.9162C175.486 25.9162 175.532 25.9553 175.535 25.9975C175.537 26.0397 175.537 26.0397 175.539 26.0819C175.542 26.1241 175.542 26.1241 175.544 26.1663C175.547 26.2085 175.503 26.2115 175.503 26.2115L175.462 26.2568C175.419 26.2598 175.375 26.2628 175.375 26.2628Z" fill="url(#paint5_linear)"/>
<path d="M167.013 26.4425C167.101 26.4362 167.144 26.433 167.229 26.3835C167.271 26.3372 167.356 26.2876 167.353 26.2444C167.394 26.1981 167.389 26.1117 167.384 26.0253C167.379 25.9389 167.333 25.8988 167.287 25.8588C167.24 25.8187 167.194 25.7787 167.104 25.7418C167.017 25.7481 166.973 25.7513 166.885 25.7576C166.801 25.8071 166.759 25.8534 166.718 25.8998C166.677 25.9461 166.638 26.0357 166.643 26.1221C166.646 26.1653 166.648 26.2085 166.651 26.2517C166.653 26.2949 166.699 26.335 166.746 26.375C166.792 26.4151 166.836 26.4119 166.838 26.4551C166.926 26.4488 166.969 26.4456 167.013 26.4425Z" fill="url(#paint6_linear)"/>
<path d="M176.732 26.4137C176.775 26.4105 176.819 26.4074 176.863 26.4042C176.907 26.4011 176.948 26.3547 176.989 26.3083C177.03 26.262 177.072 26.2156 177.069 26.1724C177.067 26.1291 177.108 26.0828 177.105 26.0396C177.103 25.9963 177.1 25.9531 177.098 25.9099C177.095 25.8667 177.049 25.8266 177.003 25.7865C176.956 25.7465 176.913 25.7496 176.866 25.7096C176.823 25.7127 176.776 25.6727 176.733 25.6758C176.689 25.679 176.645 25.6821 176.601 25.6853C176.558 25.6884 176.516 25.7348 176.475 25.7812C176.434 25.8276 176.393 25.8739 176.395 25.9172C176.354 25.9635 176.356 26.0068 176.359 26.05C176.362 26.0932 176.364 26.1364 176.367 26.1796C176.369 26.2229 176.415 26.2629 176.462 26.303C176.508 26.343 176.552 26.3399 176.598 26.38C176.644 26.42 176.688 26.4169 176.732 26.4137Z" fill="url(#paint7_linear)"/>
</g>
<path d="M194.753 29.6234L195.021 81.7574L161.928 25.707C162.142 25.6382 162.414 25.6202 162.635 25.6604L167.553 25.6648C167.716 25.654 167.829 25.7014 167.995 25.7452C168.108 25.7926 168.278 25.8909 168.34 25.9964C168.456 26.0983 168.521 26.2584 168.583 26.3639C168.648 26.5239 168.655 26.633 168.666 26.7966C168.687 27.1239 168.76 27.393 168.992 27.5968C169.224 27.8007 169.507 27.9464 169.779 27.9284L183.492 27.9007C183.819 27.8792 184.084 27.7522 184.29 27.5742C184.494 27.3416 184.639 27.0582 184.617 26.7309C184.606 26.5673 184.654 26.4546 184.697 26.2874C184.745 26.1747 184.843 26.0039 184.944 25.8876C185.046 25.7714 185.151 25.7096 185.311 25.6443C185.47 25.579 185.579 25.5719 185.742 25.5611L190.66 25.5655C191.205 25.5296 191.705 25.661 192.209 25.8469C192.713 26.0327 193.17 26.3313 193.525 26.7461C193.88 27.161 194.236 27.5758 194.431 28.0559C194.627 28.5361 194.717 29.0779 194.753 29.6234Z" fill="#D0E4FF" fill-opacity="0.2"/>
<path d="M178.592 31.3037C177.092 32.2891 175.865 33.6869 174.246 34.4564C172.232 35.4135 169.877 35.2786 167.679 34.8945C165.482 34.5104 163.302 33.8976 161.071 33.9657C159.856 33.9962 158.664 34.2909 157.575 34.829V36.6045H186.338V30.0267C183.723 29.3934 180.841 29.825 178.592 31.3037ZM171.139 35.7758C171.109 35.7758 171.08 35.7639 171.059 35.7427C171.038 35.7215 171.026 35.6927 171.026 35.6628C171.026 35.6328 171.038 35.604 171.059 35.5828C171.08 35.5616 171.109 35.5497 171.139 35.5497C171.169 35.5497 171.198 35.5616 171.219 35.5828C171.24 35.604 171.252 35.6328 171.252 35.6628C171.252 35.6927 171.24 35.7215 171.219 35.7427C171.198 35.7639 171.169 35.7758 171.139 35.7758ZM171.856 35.7758C171.834 35.7758 171.812 35.7692 171.793 35.7568C171.774 35.7443 171.76 35.7267 171.751 35.706C171.743 35.6854 171.741 35.6626 171.745 35.6407C171.749 35.6188 171.76 35.5986 171.776 35.5828C171.792 35.567 171.812 35.5562 171.834 35.5519C171.856 35.5475 171.879 35.5498 171.899 35.5583C171.92 35.5669 171.938 35.5814 171.95 35.6C171.963 35.6185 171.969 35.6404 171.969 35.6628C171.969 35.6927 171.957 35.7215 171.936 35.7427C171.915 35.7639 171.886 35.7758 171.856 35.7758ZM172.574 35.7758C172.544 35.7758 172.516 35.7639 172.494 35.7427C172.473 35.7215 172.461 35.6927 172.461 35.6628C172.461 35.6328 172.473 35.604 172.494 35.5828C172.516 35.5616 172.544 35.5497 172.574 35.5497C172.605 35.5497 172.633 35.5616 172.655 35.5828C172.676 35.604 172.688 35.6328 172.688 35.6628C172.688 35.6927 172.676 35.7215 172.655 35.7427C172.633 35.7639 172.605 35.7758 172.574 35.7758ZM185.192 33.2308C185.244 33.179 185.31 33.1437 185.382 33.1294C185.454 33.1151 185.528 33.1224 185.596 33.1504C185.664 33.1784 185.722 33.2258 185.763 33.2866C185.803 33.3475 185.825 33.419 185.825 33.4922C185.825 33.5654 185.803 33.637 185.763 33.6979C185.722 33.7587 185.664 33.8061 185.596 33.8341C185.528 33.8621 185.454 33.8694 185.382 33.8551C185.31 33.8408 185.244 33.8055 185.192 33.7537C185.123 33.6836 185.085 33.5892 185.086 33.4912C185.087 33.3931 185.127 33.2995 185.197 33.2308H185.192Z" fill="#71A0DD"/>
<path d="M166.194 35.0427C169.558 35.5531 173.727 35.9383 177.662 35.5531C179.634 35.3606 184.374 31.5208 186.337 31.2793C186.337 29.8357 186.337 28.4148 186.337 28.1031C186.105 26.9275 185.072 25.2584 183.492 25.2584H179.067C179.067 25.2584 178.118 25.2582 178.118 25.8904C178.118 26.5226 177.802 27.155 176.538 27.1549H166.739C166.135 27.0928 165.539 26.845 165.475 25.8904C165.419 25.0562 161.998 25.2584 160.417 25.2584C158.205 25.5744 157.383 27.3911 157.383 28.4192L157.478 35.6892C160.399 36.1355 163.449 35.8201 166.194 35.0427Z" fill="#71A0DD"/>
<path d="M171.138 35.5648C171.115 35.5648 171.093 35.5715 171.075 35.5839C171.056 35.5963 171.042 35.614 171.033 35.6346C171.024 35.6553 171.022 35.678 171.027 35.6999C171.031 35.7219 171.042 35.742 171.058 35.7578C171.073 35.7736 171.094 35.7844 171.116 35.7888C171.138 35.7931 171.16 35.7909 171.181 35.7823C171.202 35.7738 171.219 35.7593 171.232 35.7407C171.244 35.7221 171.251 35.7002 171.251 35.6779C171.251 35.6479 171.239 35.6191 171.218 35.5979C171.197 35.5767 171.168 35.5648 171.138 35.5648Z" fill="#263238"/>
<path d="M171.855 35.7909C171.917 35.7909 171.968 35.7403 171.968 35.6779C171.968 35.6154 171.917 35.5648 171.855 35.5648C171.792 35.5648 171.741 35.6154 171.741 35.6779C171.741 35.7403 171.792 35.7909 171.855 35.7909Z" fill="#263238"/>
<path d="M172.573 35.7909C172.636 35.7909 172.687 35.7403 172.687 35.6779C172.687 35.6154 172.636 35.5648 172.573 35.5648C172.511 35.5648 172.46 35.6154 172.46 35.6779C172.46 35.7403 172.511 35.7909 172.573 35.7909Z" fill="#263238"/>
<path d="M171.397 32.8374C172.228 32.0084 172.228 30.6644 171.397 29.8354C170.567 29.0065 169.22 29.0065 168.389 29.8354C167.558 30.6644 167.558 32.0084 168.389 32.8374C169.22 33.6664 170.567 33.6664 171.397 32.8374Z" fill="#B4D1FA"/>
<path d="M185.459 33.8617C185.663 33.8617 185.829 33.696 185.829 33.4917C185.829 33.2874 185.663 33.1217 185.459 33.1217C185.254 33.1217 185.088 33.2874 185.088 33.4917C185.088 33.696 185.254 33.8617 185.459 33.8617Z" fill="#71A0DD"/>
<path opacity="0.3" d="M178.592 31.3037C177.092 32.2891 175.865 33.6869 174.245 34.4564C172.231 35.4135 169.877 35.2786 167.679 34.8945C165.481 34.5104 163.301 33.8976 161.07 33.9657C159.856 33.9962 158.567 34.2909 157.479 34.829V36.6045H186.337V30.0267C183.722 29.3934 180.841 29.825 178.592 31.3037ZM171.138 35.7758C171.108 35.7758 171.079 35.7639 171.058 35.7427C171.037 35.7215 171.025 35.6927 171.025 35.6628C171.025 35.6328 171.037 35.604 171.058 35.5828C171.079 35.5616 171.108 35.5497 171.138 35.5497C171.168 35.5497 171.197 35.5616 171.218 35.5828C171.24 35.604 171.252 35.6328 171.252 35.6628C171.252 35.6927 171.24 35.7215 171.218 35.7427C171.197 35.7639 171.168 35.7758 171.138 35.7758ZM171.855 35.7758C171.833 35.7758 171.811 35.7692 171.792 35.7568C171.774 35.7443 171.759 35.7267 171.751 35.706C171.742 35.6854 171.74 35.6626 171.744 35.6407C171.749 35.6188 171.759 35.5986 171.775 35.5828C171.791 35.567 171.811 35.5562 171.833 35.5519C171.855 35.5475 171.878 35.5498 171.899 35.5583C171.919 35.5669 171.937 35.5814 171.95 35.6C171.962 35.6185 171.969 35.6404 171.969 35.6628C171.969 35.6927 171.957 35.7215 171.936 35.7427C171.914 35.7639 171.885 35.7758 171.855 35.7758ZM172.574 35.7758C172.544 35.7758 172.515 35.7639 172.494 35.7427C172.472 35.7215 172.461 35.6927 172.461 35.6628C172.461 35.6328 172.472 35.604 172.494 35.5828C172.515 35.5616 172.544 35.5497 172.574 35.5497C172.604 35.5497 172.633 35.5616 172.654 35.5828C172.675 35.604 172.687 35.6328 172.687 35.6628C172.687 35.6927 172.675 35.7215 172.654 35.7427C172.633 35.7639 172.604 35.7758 172.574 35.7758ZM185.191 33.2308C185.243 33.179 185.309 33.1437 185.381 33.1294C185.453 33.1151 185.528 33.1224 185.595 33.1504C185.663 33.1784 185.721 33.2258 185.762 33.2866C185.803 33.3475 185.824 33.419 185.824 33.4922C185.824 33.5654 185.803 33.637 185.762 33.6979C185.721 33.7587 185.663 33.8061 185.595 33.8341C185.528 33.8621 185.453 33.8694 185.381 33.8551C185.309 33.8408 185.243 33.8055 185.191 33.7537C185.123 33.6836 185.084 33.5892 185.085 33.4912C185.086 33.3931 185.126 33.2995 185.196 33.2308H185.191Z" fill="black"/>
<g filter="url(#filter1_d)">
<g filter="url(#filter2_di)">
<path d="M117.245 85.8148L16.1553 85.9966C15.9657 85.9936 15.7786 85.9533 15.6045 85.878C15.4305 85.8027 15.273 85.6939 15.1411 85.5578C15.0092 85.4217 14.9054 85.261 14.8356 85.0847C14.7658 84.9085 14.7315 84.7203 14.7346 84.5309L14.9487 18.4404C14.9508 18.2498 14.9907 18.0615 15.0661 17.8863C15.1414 17.7112 15.2508 17.5527 15.3878 17.42C15.5249 17.2873 15.6869 17.1831 15.8645 17.1134C16.042 17.0437 16.2317 17.0098 16.4225 17.0138L118.15 17C118.339 17.003 118.526 17.0433 118.7 17.1186C118.874 17.1939 119.032 17.3027 119.164 17.4388C119.296 17.5749 119.4 17.7357 119.469 17.9119C119.539 18.0881 119.573 18.2763 119.57 18.4658L118.617 84.1972C118.606 84.9957 118.039 85.8263 117.245 85.8148Z" fill="#3C3C3B"/>
<path d="M116.848 20.4332H17.4424V82.5612H116.848V20.4332Z" fill="white"/>
<path d="M67.144 19.6233C67.743 19.6233 68.2285 19.138 68.2285 18.5395C68.2285 17.9409 67.743 17.4557 67.144 17.4557C66.5451 17.4557 66.0596 17.9409 66.0596 18.5395C66.0596 19.138 66.5451 19.6233 67.144 19.6233Z" fill="#3C3C3B"/>
<path d="M67.1439 19.2621C67.5432 19.2621 67.8669 18.9386 67.8669 18.5395C67.8669 18.1405 67.5432 17.817 67.1439 17.817C66.7446 17.817 66.4209 18.1405 66.4209 18.5395C66.4209 18.9386 66.7446 19.2621 67.1439 19.2621Z" fill="#3C3C3B"/>
</g>
<path d="M5.01723 112.093H128.549C131.356 112.093 133.074 108.984 131.595 106.57L120.275 88.162C119.956 87.6413 119.508 87.211 118.976 86.9122C118.443 86.6133 117.842 86.4558 117.231 86.4546H16.6022C15.997 86.4553 15.4018 86.6096 14.8726 86.903C14.3434 87.1964 13.8974 87.6193 13.5764 88.132L1.99146 106.547C0.478572 108.952 2.1941 112.093 5.01723 112.093Z" fill="#3C3C3B"/>
<g filter="url(#filter3_i)">
<path d="M4.60518 111.37H128.952C129.596 111.369 130.229 111.197 130.784 110.869C131.339 110.542 131.797 110.073 132.11 109.51C132.422 108.946 132.579 108.31 132.562 107.666C132.546 107.022 132.358 106.394 132.017 105.848L120.618 87.4255C120.295 86.9037 119.844 86.473 119.308 86.1742C118.771 85.8754 118.168 85.7184 117.553 85.7181H16.2615C15.6537 85.7183 15.0558 85.8722 14.5235 86.1655C13.9912 86.4588 13.5419 86.882 13.2173 87.3956L1.56098 105.825C1.21518 106.37 1.02208 106.999 1.00178 107.644C0.981486 108.29 1.13473 108.929 1.44557 109.495C1.75641 110.061 2.21347 110.534 2.76916 110.864C3.32486 111.193 3.95887 111.368 4.60518 111.37Z" fill="#3C3C3B"/>
</g>
<path opacity="0.5" d="M91.9815 108.894C92.0025 108.949 92.0097 109.008 92.0027 109.066C91.9957 109.125 91.9747 109.18 91.9413 109.228C91.908 109.277 91.8634 109.316 91.8115 109.343C91.7595 109.37 91.7017 109.385 91.643 109.384H41.9158C41.8575 109.384 41.8002 109.369 41.7489 109.341C41.6976 109.313 41.6537 109.273 41.6212 109.225C41.5886 109.177 41.5682 109.121 41.5618 109.063C41.5553 109.005 41.5631 108.946 41.5843 108.892L44.861 100.226C44.8876 100.158 44.9341 100.1 44.9945 100.059C45.055 100.018 45.1264 99.9959 45.1995 99.9962H88.3663C88.4393 99.9959 88.5108 100.018 88.5713 100.059C88.6317 100.1 88.6782 100.158 88.7048 100.226L91.9815 108.894Z" stroke="black" stroke-width="0.3" stroke-miterlimit="10"/>
<path d="M74.5554 111.913H59.0236C58.441 111.718 58.4226 111.663 58.3005 111.08C58.2918 110.879 58.3629 110.683 58.4983 110.535C58.6338 110.386 58.8226 110.297 59.0236 110.286H74.5669C74.7679 110.297 74.9567 110.386 75.0922 110.535C75.2276 110.683 75.2987 110.879 75.29 111.08C75.2071 111.692 74.9653 111.729 74.5554 111.913Z" fill="#8F8F8F"/>
<g filter="url(#filter4_di)">
<path d="M113.633 99.2368L19.9332 99.2828C19.8714 99.2807 19.8111 99.2628 19.7582 99.2308C19.7053 99.1987 19.6615 99.1536 19.631 99.0998C19.6005 99.046 19.5843 98.9853 19.584 98.9235C19.5837 98.8616 19.5993 98.8008 19.6293 98.7467L25.3492 87.8973C25.3798 87.8443 25.4238 87.8003 25.4767 87.7696C25.5296 87.739 25.5897 87.7227 25.6509 87.7224H107.904C107.964 87.7223 108.022 87.7375 108.074 87.7665C108.126 87.7955 108.17 87.8374 108.201 87.8881L113.93 98.6915C113.962 98.7453 113.98 98.8065 113.981 98.8691C113.982 98.9317 113.967 98.9935 113.937 99.0485C113.907 99.1035 113.863 99.1498 113.81 99.1828C113.757 99.2158 113.696 99.2344 113.633 99.2368Z" fill="#8F8F8F"/>
<path d="M25.4562 98.7214H20.3695C20.0195 98.7214 20.1715 98.0956 20.3695 97.9L20.8162 97.0739C20.9168 96.9847 21.048 96.9378 21.1823 96.9427H26.269C26.6191 96.9427 26.8286 97.2051 26.6329 97.4029L25.8246 98.5903C25.7238 98.6806 25.5915 98.7278 25.4562 98.7214Z" fill="#3C3C3B"/>
<path d="M32.1091 98.7215H27.0132C26.6632 98.7215 26.4559 98.4568 26.6494 98.2613L27.4576 97.0739C27.5573 96.9847 27.6877 96.9377 27.8214 96.9428H32.9081C33.2582 96.9428 33.4677 97.2051 33.2743 97.403L32.466 98.5903C32.3677 98.6773 32.2403 98.7241 32.1091 98.7215Z" fill="#3C3C3B"/>
<path d="M38.7589 98.7214H33.6929C33.3429 98.7214 33.1333 98.4568 33.3291 98.2612L34.135 97.0739C34.2356 96.9847 34.3668 96.9378 34.5011 96.9427H39.5878C39.9379 96.9427 40.1474 97.2051 39.9517 97.4029L39.1434 98.5903C39.0915 98.637 39.0307 98.6727 38.9646 98.6953C38.8985 98.7178 38.8285 98.7267 38.7589 98.7214Z" fill="#3C3C3B"/>
<path d="M46.3004 98.7215H40.3387C39.9864 98.7215 39.7791 98.4569 39.9726 98.2613L40.7808 97.074C40.8812 96.9844 41.0125 96.9374 41.1469 96.9428H47.1087C47.4587 96.9428 47.6682 97.2051 47.4748 97.403L46.6666 98.5904C46.5659 98.6795 46.4348 98.7265 46.3004 98.7215Z" fill="#3C3C3B"/>
<path d="M81.7506 98.3855C81.7345 98.5741 81.5042 98.7214 81.2325 98.7214H48.2783C47.5184 98.7214 47.3158 98.4568 47.5046 98.2612L48.2829 97.0739C48.3301 97.0299 48.3856 96.9957 48.446 96.9732C48.5065 96.9507 48.5708 96.9403 48.6353 96.9427H80.5578C80.9263 96.9427 81.0759 97.1015 81.274 97.5341L81.7483 98.2934C81.7537 98.3238 81.7545 98.3548 81.7506 98.3855Z" fill="#3C3C3B"/>
<path d="M88.7918 98.7212H83.1041C83.0148 98.7317 82.9245 98.7132 82.8465 98.6684C82.7686 98.6237 82.7071 98.5551 82.6711 98.4727L82.0172 97.2877C81.9711 97.1059 82.1784 96.9425 82.4501 96.9425H88.0618C88.1507 96.9326 88.2405 96.9511 88.3183 96.9954C88.3961 97.0396 88.4578 97.1073 88.4947 97.1888L89.2247 98.3761C89.2707 98.5579 89.0635 98.7212 88.7918 98.7212Z" fill="#3C3C3B"/>
<path d="M95.3103 98.7215H90.318C90.0716 98.7215 89.8574 98.6179 89.8229 98.4729L88.9893 97.2879C88.9387 97.1061 89.1735 96.9427 89.4821 96.9427H94.4836C94.7277 96.9427 94.9441 97.0463 94.9787 97.189L95.8123 98.3763C95.8652 98.5581 95.6188 98.7215 95.3103 98.7215Z" fill="#3C3C3B"/>
<path d="M101.591 98.7215H96.7873C96.698 98.7315 96.6079 98.7129 96.53 98.6682C96.4522 98.6235 96.3906 98.5551 96.3544 98.4729L95.6221 97.2879C95.5784 97.1061 95.7833 96.9427 96.055 96.9427H100.792C101.006 96.9427 101.162 96.9428 101.6 97.5341L102.031 98.3763C102.067 98.5581 101.853 98.7215 101.591 98.7215Z" fill="#3C3C3B"/>
<path d="M36.3672 96.2985H21.8325C21.5147 96.2985 21.4364 96.0016 21.6022 95.8382L22.1894 94.9178C22.2828 94.842 22.4007 94.8027 22.521 94.8074H37.0558C37.3735 94.8074 37.5624 95.0375 37.3873 95.1917L36.6965 96.1811C36.6047 96.2589 36.4876 96.3007 36.3672 96.2985Z" fill="#3C3C3B"/>
<path d="M42.3235 96.2984H37.6927C37.3726 96.2984 37.1815 96.0683 37.3588 95.9141L38.0289 94.9247C38.1232 94.8488 38.2418 94.8096 38.3628 94.8142H42.9936C43.3113 94.8142 43.5025 95.0443 43.3252 95.1985L42.6551 96.1879C42.5616 96.2638 42.4438 96.3031 42.3235 96.2984Z" fill="#3C3C3B"/>
<path d="M48.3371 96.2983H44.1001C43.8077 96.2983 43.6396 96.0682 43.7961 95.914L44.4087 94.9246C44.4918 94.8497 44.6008 94.8101 44.7126 94.8141H48.9519C49.2421 94.8141 49.4125 95.0442 49.2559 95.1984L48.6411 96.1878C48.558 96.2627 48.4489 96.3023 48.3371 96.2983Z" fill="#3C3C3B"/>
<path d="M111.665 96.2985H99.3199C99.1172 96.2985 98.9422 96.2111 98.91 96.0914L98.1501 95.1043C98.1086 94.9524 98.3044 94.8143 98.5623 94.8143H110.914C111.117 94.8143 111.266 94.8143 111.683 95.3091L112.072 96.0109C112.118 96.1627 111.923 96.2985 111.665 96.2985Z" fill="#3C3C3B"/>
<path d="M112.845 98.7215H109.073C108.94 98.7266 108.809 98.6795 108.71 98.5903L107.901 97.403C107.708 97.2051 107.915 96.9428 108.265 96.9428H112.037C112.171 96.9377 112.301 96.9847 112.401 97.0739L113.209 98.2613C113.405 98.4568 113.195 98.7215 112.845 98.7215Z" fill="#3C3C3B"/>
<path d="M107.505 98.7215H103.296C103.162 98.7264 103.03 98.6795 102.93 98.5903L102.122 97.403C101.928 97.2051 102.138 96.9428 102.488 96.9428H106.688C106.822 96.9377 106.952 96.9847 107.052 97.0739L107.86 98.2613C108.07 98.4568 107.855 98.7215 107.505 98.7215Z" fill="#3C3C3B"/>
<path d="M54.6753 96.2984H50.1228C49.8073 96.2984 49.6208 96.0683 49.7958 95.9141L50.4544 94.9247C50.5461 94.8489 50.6625 94.8096 50.7814 94.8142H55.3385C55.6516 94.8142 55.8381 95.0443 55.6654 95.1985L55.0069 96.1879C54.9139 96.2646 54.7957 96.3039 54.6753 96.2984Z" fill="#3C3C3B"/>
<path d="M61.2638 96.2983H56.6583C56.3682 96.2983 56.1978 96.0682 56.3544 95.914L56.9692 94.9246C57.0523 94.8497 57.1613 94.8101 57.2732 94.8141H61.8786C62.1711 94.8141 62.3392 95.0442 62.1826 95.1984L61.57 96.1878C61.4864 96.2633 61.3764 96.3029 61.2638 96.2983Z" fill="#3C3C3B"/>
<path d="M67.927 96.2982H63.3215C62.9715 96.2982 62.7551 96.0474 62.9347 95.8495L63.3768 94.959C63.4282 94.9101 63.489 94.872 63.5554 94.8471C63.6219 94.8222 63.6927 94.811 63.7637 94.8141H67.6575C67.7458 94.8042 67.835 94.8208 67.9137 94.8618C67.9925 94.9027 68.0572 94.9663 68.0997 95.0442L68.3714 95.9347C68.4244 96.128 68.2125 96.2982 67.927 96.2982Z" fill="#3C3C3B"/>
<path d="M80.3823 96.2983H76.1269C76.0402 96.308 75.9527 96.2912 75.8758 96.2501C75.7989 96.209 75.7363 96.1456 75.6963 96.0682L75.4338 95.18C75.3785 94.9959 75.5858 94.8233 75.8644 94.8233H79.855C79.933 94.8188 80.0109 94.8334 80.0819 94.8659C80.153 94.8984 80.215 94.9478 80.2626 95.0097L80.7899 95.9002C80.8981 96.0866 80.6932 96.2983 80.3823 96.2983Z" fill="#3C3C3B"/>
<path d="M86.5234 96.2983H82.2656C82.1793 96.3081 82.092 96.2914 82.0154 96.2503C81.9389 96.2091 81.8767 96.1456 81.8373 96.0682L81.1281 95.1708C81.0728 94.9867 81.2801 94.8141 81.5587 94.8141H85.9132C85.9908 94.8098 86.0683 94.8245 86.139 94.857C86.2096 94.8895 86.2712 94.9387 86.3184 95.0005L86.9217 95.891C87.0438 96.0866 86.8319 96.2983 86.5234 96.2983Z" fill="#3C3C3B"/>
<path d="M92.6559 96.2984H88.3337C88.2461 96.3086 88.1574 96.2921 88.0793 96.251C88.0012 96.21 87.9374 96.1463 87.8962 96.0683L87.1847 95.1801C87.1294 94.996 87.339 94.8234 87.6199 94.8234H92.0872C92.1662 94.8186 92.2452 94.833 92.3174 94.8655C92.3896 94.8979 92.4529 94.9475 92.5016 95.0098L93.0704 95.9003C93.1878 96.0867 92.9714 96.2984 92.6559 96.2984Z" fill="#3C3C3B"/>
<path d="M97.7679 96.2982H93.9753C93.8951 96.3055 93.8146 96.2872 93.7455 96.2459C93.6763 96.2045 93.6222 96.1422 93.5908 96.0681L92.9667 95.1799C92.9184 94.9958 93.1026 94.8232 93.349 94.8232H97.2291C97.3007 94.8202 97.3718 94.8358 97.4356 94.8685C97.4993 94.9012 97.5535 94.9498 97.5929 95.0096L98.1294 95.9001C98.233 96.0865 98.0442 96.2982 97.7679 96.2982Z" fill="#3C3C3B"/>
<path d="M34.5178 94.2227H22.9904C22.7601 94.2227 22.6289 94.0041 22.7601 93.8407L23.3727 92.7638H23.7342L35.2731 92.75C35.5034 92.75 35.6346 92.9663 35.5034 93.1297L34.7481 94.1076C34.721 94.1431 34.6862 94.1719 34.6463 94.1918C34.6064 94.2118 34.5624 94.2223 34.5178 94.2227Z" fill="#3C3C3B"/>
<path d="M40.073 94.2228H35.8798C35.5919 94.2228 35.4192 94.0042 35.5804 93.8408L36.1837 92.8629C36.2655 92.7891 36.373 92.7503 36.4831 92.7547H40.6763C40.9665 92.7547 41.1369 92.971 40.978 93.1344L40.3701 94.1123C40.2891 94.1862 40.1826 94.2258 40.073 94.2228Z" fill="#3C3C3B"/>
<path d="M45.9329 94.2228H41.7512C41.461 94.2228 41.2906 94.0042 41.4495 93.8408L42.0528 92.8629C42.1346 92.7891 42.2421 92.7503 42.3522 92.7547H46.5454C46.8356 92.7547 47.006 92.971 46.8471 93.1344L46.2438 94.1123C46.2021 94.1507 46.153 94.1803 46.0996 94.1992C46.0462 94.2182 45.9895 94.2262 45.9329 94.2228Z" fill="#3C3C3B"/>
<path d="M110.63 94.2228H101.147C100.638 94.2711 100.611 94.1055 100.371 93.8523L99.648 93.1298C99.6158 92.9802 99.8138 92.7685 100.01 92.7685L109.709 92.7547C109.863 92.7547 110.252 92.6535 110.491 93.1298L110.941 93.9375C110.973 94.087 110.835 94.2228 110.63 94.2228Z" fill="#3C3C3B"/>
<path d="M51.8624 94.2229H47.6691C47.379 94.2229 47.2086 94.0043 47.3675 93.8409L47.9708 92.8629C48.0533 92.7888 48.1616 92.75 48.2725 92.7548H52.4657C52.7535 92.7548 52.9262 92.9711 52.7651 93.1345L52.164 94.1124C52.0816 94.1869 51.9735 94.2265 51.8624 94.2229Z" fill="#3C3C3B"/>
<path d="M57.2882 94.2228H53.0949C52.8048 94.2228 52.6344 94.0042 52.7933 93.8408L53.3966 92.8629C53.4784 92.7891 53.5858 92.7503 53.6959 92.7547H57.8892C58.1793 92.7547 58.3497 92.971 58.1908 93.1344L57.5875 94.1123C57.5061 94.187 57.3986 94.2266 57.2882 94.2228Z" fill="#3C3C3B"/>
<path d="M63.7241 94.2228H58.946C58.6075 94.2228 58.4002 93.9719 58.5729 93.7763L58.992 92.8974C59.0412 92.8494 59.0997 92.8121 59.1638 92.7875C59.2279 92.763 59.2964 92.7518 59.3651 92.7547H63.4639C63.5498 92.7456 63.6365 92.7627 63.7126 92.8038C63.7886 92.8449 63.8504 92.908 63.8899 92.9848L64.1501 93.8661C64.2031 94.0525 63.9981 94.2228 63.7241 94.2228Z" fill="#3C3C3B"/>
<path d="M70.2352 94.2228H65.457C65.3506 94.2001 65.2502 94.1555 65.1621 94.0917C65.0741 94.0278 65.0004 93.9463 64.9458 93.8523L64.6349 92.8974C64.5843 92.7685 64.8652 92.7547 65.008 92.7547H69.9749C70.0609 92.7456 70.1476 92.7627 70.2236 92.8038C70.2996 92.8449 70.3615 92.908 70.4009 92.9848L70.6612 93.8661C70.7141 94.0525 70.5092 94.2228 70.2352 94.2228Z" fill="#3C3C3B"/>
<path d="M76.1982 94.2228H71.9866C71.9009 94.2323 71.8143 94.2154 71.7385 94.1743C71.6628 94.1331 71.6015 94.0697 71.5629 93.9927L71.3004 93.1114C71.2474 92.9296 71.4523 92.7616 71.7264 92.7616H75.6778C75.7551 92.756 75.8325 92.7699 75.9029 92.802C75.9734 92.8342 76.0345 92.8836 76.0808 92.9457L76.6012 93.827C76.7141 94.0111 76.5045 94.2228 76.1982 94.2228Z" fill="#3C3C3B"/>
<path d="M82.6341 94.2227H78.4247C77.9642 94.2227 77.6372 93.9926 77.5957 93.8522L77.3033 93.1044C77.2503 92.9226 77.4553 92.7546 77.7293 92.7546H82.0492C82.1264 92.749 82.2039 92.7629 82.2743 92.7951C82.3447 92.8273 82.4059 92.8767 82.4522 92.9387L83.0463 93.82C83.1522 94.011 82.9403 94.2227 82.6341 94.2227Z" fill="#3C3C3B"/>
<path d="M88.1827 94.2227H84.3878C84.3076 94.2297 84.2273 94.2112 84.1582 94.1699C84.0892 94.1286 84.0349 94.0665 84.0032 93.9926L83.3769 93.1113C83.3285 92.9295 83.5127 92.7616 83.7614 92.7616H87.3214C87.393 92.7574 87.4643 92.7722 87.5282 92.8045C87.5921 92.8369 87.6463 92.8856 87.6853 92.9456L88.5465 93.8269C88.6478 94.011 88.459 94.2227 88.1827 94.2227Z" fill="#3C3C3B"/>
<path d="M99.1687 94.2227H95.4038C95.2289 94.1875 95.0686 94.101 94.9433 93.9742L94.0659 93.0837C93.6261 92.7869 93.9991 92.7546 94.2732 92.7546H98.2246C98.3019 92.749 98.3793 92.7629 98.4497 92.7951C98.5202 92.8273 98.5813 92.8767 98.6276 92.9387L99.5809 93.82C99.6869 94.011 99.4773 94.2227 99.1687 94.2227Z" fill="#3C3C3B"/>
<path d="M93.5351 94.2229H90.2468C90.0718 94.2229 89.8853 94.2229 89.5237 93.8616L88.8007 93.1391C88.7569 92.9573 88.9319 92.7778 89.1622 92.7778L92.7268 92.764C92.795 92.7606 92.8629 92.7759 92.923 92.8084C92.9831 92.8409 93.0331 92.8892 93.0676 92.9481L93.8759 93.8294C93.9726 94.0112 93.793 94.2229 93.5351 94.2229Z" fill="#3C3C3B"/>
<path d="M33.6033 92.1451H24.2013C24.1552 92.155 24.1071 92.1505 24.0636 92.1321C24.0201 92.1138 23.9833 92.0825 23.9582 92.0426C23.9331 92.0027 23.9208 91.956 23.9231 91.9089C23.9254 91.8618 23.9421 91.8166 23.971 91.7793L24.5053 90.8404C24.532 90.8053 24.567 90.7772 24.6072 90.7588C24.6473 90.7403 24.6914 90.732 24.7355 90.7346H34.4991C34.5452 90.7247 34.5933 90.7293 34.6368 90.7476C34.6802 90.7659 34.717 90.7972 34.7422 90.8371C34.7673 90.877 34.7795 90.9237 34.7772 90.9708C34.7749 91.0179 34.7582 91.0632 34.7293 91.1005L33.8336 92.0393C33.8068 92.0744 33.7718 92.1025 33.7317 92.121C33.6915 92.1394 33.6474 92.1477 33.6033 92.1451Z" fill="#3C3C3B"/>
<path d="M39.3952 92.1451H35.3678C35.0892 92.1451 34.9234 91.9357 35.0776 91.7792L35.9987 90.8404C36.0778 90.7685 36.182 90.7304 36.2889 90.7346H40.3163C40.5926 90.7346 40.7584 90.9439 40.6042 91.1004L39.6831 92.0392C39.6047 92.1108 39.5013 92.1489 39.3952 92.1451Z" fill="#3C3C3B"/>
<path d="M45.3659 92.145H41.3385C41.0598 92.145 40.8963 91.9357 41.0483 91.7792L41.9694 90.8404C42.0478 90.7688 42.1511 90.7307 42.2573 90.7345H46.2847C46.5633 90.7345 46.7291 90.9439 46.5749 91.1004L45.6538 92.0392C45.5751 92.1104 45.472 92.1483 45.3659 92.145Z" fill="#3C3C3B"/>
<path d="M51.0634 92.1451H47.0475C46.7688 92.1451 46.603 91.9357 46.7573 91.7792L47.6784 90.8404C47.7575 90.7685 47.8617 90.7304 47.9686 90.7346H51.996C52.2723 90.7346 52.4381 90.9439 52.2861 91.1004L51.3651 92.0392C51.3246 92.0764 51.277 92.105 51.2251 92.1231C51.1733 92.1413 51.1182 92.1488 51.0634 92.1451Z" fill="#3C3C3B"/>
<path d="M56.9828 92.145H52.9553C52.679 92.145 52.5132 91.9357 52.6652 91.7792L53.5863 90.8404C53.6646 90.7688 53.768 90.7307 53.8741 90.7345H57.9015C58.1802 90.7345 58.346 90.9439 58.1917 91.1004L57.2706 92.0392C57.1921 92.1106 57.0888 92.1486 56.9828 92.145Z" fill="#3C3C3B"/>
<path d="M63.5119 92.145H58.9226C58.5979 92.145 58.3976 91.9149 58.5634 91.717L59.3141 90.8725C59.3611 90.8266 59.417 90.7906 59.4784 90.7669C59.5397 90.7432 59.6053 90.7321 59.671 90.7345H63.2632C63.3466 90.7263 63.4305 90.7441 63.5034 90.7852C63.5763 90.8264 63.6348 90.889 63.6708 90.9646L63.9218 91.8091C63.9725 91.9816 63.7744 92.145 63.5119 92.145Z" fill="#3C3C3B"/>
<path d="M69.7648 92.145H65.1755C64.8554 92.145 64.8554 91.862 64.8186 91.717L64.7334 90.8725C64.7808 90.8264 64.8371 90.7904 64.8988 90.7666C64.9606 90.7429 65.0265 90.732 65.0926 90.7345H69.5161C69.5995 90.7263 69.6834 90.7441 69.7563 90.7852C69.8292 90.8264 69.8877 90.889 69.9237 90.9646L70.1747 91.8091C70.2254 91.9816 70.0296 92.145 69.7648 92.145Z" fill="#3C3C3B"/>
<path d="M75.4932 92.145H71.4566C71.3732 92.1532 71.2893 92.1354 71.2164 92.0943C71.1435 92.0531 71.085 91.9905 71.049 91.9149L70.798 91.0704C70.7473 90.8956 70.9454 90.7322 71.2079 90.7322H75.0027C75.0748 90.733 75.1457 90.7507 75.2097 90.7838C75.2737 90.817 75.329 90.8647 75.3712 90.9232L75.8709 91.7699C75.9883 91.9425 75.788 92.145 75.4932 92.145Z" fill="#3C3C3B"/>
<path d="M81.3284 92.1449H77.2848C77.2011 92.1535 77.1167 92.136 77.0433 92.0948C76.97 92.0536 76.9111 91.9907 76.875 91.9148L76.2072 91.0703C76.1565 90.8954 76.3545 90.732 76.617 90.732H80.4119C80.4859 90.7283 80.5597 90.7424 80.6271 90.7733C80.6944 90.8041 80.7533 90.8508 80.7988 90.9092L81.7199 91.756C81.8189 91.9424 81.6232 92.1449 81.3284 92.1449Z" fill="#3C3C3B"/>
<path d="M86.7601 92.145H82.7396C82.6565 92.1533 82.5729 92.1356 82.5003 92.0944C82.4277 92.0532 82.3697 91.9904 82.3343 91.9149L81.6711 91.0704C81.6204 90.8955 81.8162 90.7321 82.0787 90.7321H85.8413C85.9151 90.7274 85.9889 90.7411 86.0561 90.772C86.1232 90.8029 86.1816 90.8501 86.2259 90.9093L87.1355 91.7561C87.2529 91.9425 87.0526 92.145 86.7601 92.145Z" fill="#3C3C3B"/>
<path d="M97.938 92.1452H94.1109C93.9386 92.1138 93.7789 92.034 93.6504 91.9151L92.7592 91.0591C92.3148 90.7738 92.6924 90.7415 92.9711 90.7415H96.9709C97.0483 90.7367 97.1258 90.7503 97.1971 90.7811C97.2683 90.8119 97.3312 90.859 97.3808 90.9187L98.3479 91.7655C98.4653 91.9427 98.2512 92.1452 97.938 92.1452Z" fill="#3C3C3B"/>
<path d="M92.3335 92.145H88.4972C88.4163 92.1526 88.3351 92.1345 88.2652 92.0931C88.1953 92.0518 88.1403 91.9894 88.1081 91.9149L87.4725 91.0704C87.4242 90.8955 87.6107 90.7322 87.8617 90.7322H91.47C91.5414 90.728 91.6127 90.7421 91.6772 90.7731C91.7417 90.8041 91.7972 90.851 91.8385 90.9093L92.7112 91.7561C92.8056 91.9425 92.6145 92.145 92.3335 92.145Z" fill="#3C3C3B"/>
<path d="M103.351 92.1451H99.4175C99.2379 92.1152 99.0703 92.0355 98.9339 91.915L98.0128 91.059C97.5523 90.7737 97.9437 90.7415 98.2293 90.7415H102.349C102.429 90.7356 102.51 90.749 102.584 90.7806C102.658 90.8122 102.724 90.8611 102.775 90.9233L103.772 91.77C103.889 91.9426 103.671 92.1451 103.351 92.1451Z" fill="#3C3C3B"/>
<path d="M109.085 92.1452H105.076C104.894 92.1159 104.724 92.0361 104.586 91.9151L103.653 91.0591C103.192 90.7737 103.584 90.7415 103.883 90.7415H108.843C108.923 90.7362 109.004 90.7493 109.078 90.7801C109.152 90.8108 109.219 90.8583 109.272 90.9187L109.774 91.6919C109.889 91.869 110.128 92.0462 109.085 92.1452Z" fill="#3C3C3B"/>
<path d="M101.889 89.982H108.465C108.504 89.9781 108.542 89.9641 108.574 89.9415C108.607 89.9188 108.633 89.8882 108.65 89.8526C108.667 89.817 108.675 89.7776 108.672 89.7382C108.67 89.6988 108.657 89.6607 108.635 89.6276L107.945 88.7072C107.928 88.6767 107.903 88.6512 107.873 88.633C107.843 88.6149 107.809 88.6048 107.774 88.6036H100.475C100.435 88.6073 100.397 88.6212 100.364 88.644C100.331 88.6668 100.305 88.6977 100.288 88.7336C100.271 88.7696 100.263 88.8094 100.266 88.8491C100.269 88.8888 100.282 88.9271 100.304 88.9603L101.35 89.8807C101.391 89.9451 101.819 89.982 101.889 89.982Z" fill="#3C3C3B"/>
<path d="M95.7962 89.9819H99.7108C99.9802 89.9819 100.139 89.7795 99.9894 89.6276L99.0914 88.7072C99.0149 88.6372 98.914 88.6001 98.8104 88.6036H94.8958C94.6264 88.6036 94.4652 88.8084 94.6149 88.9603L95.5153 89.8807C95.5921 89.9498 95.6929 89.9861 95.7962 89.9819Z" fill="#3C3C3B"/>
<path d="M89.9935 89.9819H93.9081C94.1775 89.9819 94.3387 89.7795 94.189 89.6276L93.2886 88.7072C93.2122 88.6372 93.1113 88.6001 93.0077 88.6036H89.0931C88.8237 88.6036 88.6625 88.8084 88.8122 88.9603L89.7102 89.8807C89.7878 89.9501 89.8894 89.9865 89.9935 89.9819Z" fill="#3C3C3B"/>
<path d="M84.4622 89.9819H88.3768C88.6462 89.9819 88.8051 89.7795 88.6554 89.6276L87.7574 88.7072C87.6809 88.6372 87.5801 88.6001 87.4765 88.6036H83.5618C83.2924 88.6036 83.1312 88.8084 83.2809 88.9603L84.1813 89.8807C84.2581 89.9498 84.3589 89.9861 84.4622 89.9819Z" fill="#3C3C3B"/>
<path d="M78.7025 89.9819H82.6171C82.8865 89.9819 83.0477 89.7795 82.898 89.6276L81.9977 88.7072C81.9212 88.6372 81.8203 88.6001 81.7167 88.6036H77.8021C77.5327 88.6036 77.3738 88.8084 77.5235 88.9603L78.4216 89.8807C78.4984 89.9498 78.5992 89.9861 78.7025 89.9819Z" fill="#3C3C3B"/>
<path d="M71.9996 89.982H76.4577C76.7709 89.982 76.9666 89.7518 76.8054 89.5678L76.0754 88.7463C76.03 88.7011 75.9756 88.6659 75.9157 88.6429C75.8558 88.6199 75.7918 88.6097 75.7277 88.6128H72.2414C72.1596 88.6051 72.0775 88.6231 72.0064 88.6644C71.9354 88.7057 71.8791 88.7681 71.8454 88.8429L71.6013 89.6644C71.5529 89.8255 71.744 89.982 71.9996 89.982Z" fill="#3C3C3B"/>
<path d="M65.9306 89.9822H70.3887C70.6995 89.9822 70.6995 89.7083 70.7364 89.568L70.817 88.7465C70.7715 88.7013 70.7171 88.6661 70.6572 88.6431C70.5973 88.6201 70.5333 88.6099 70.4693 88.6131H66.1609C66.0791 88.6057 65.9971 88.6239 65.9262 88.6651C65.8552 88.7063 65.7988 88.7685 65.7648 88.8432L65.5207 89.6646C65.4816 89.8257 65.6727 89.9822 65.9306 89.9822Z" fill="#3C3C3B"/>
<path d="M60.0035 89.9819H63.932C64.0137 89.9893 64.0957 89.9711 64.1667 89.9299C64.2376 89.8887 64.294 89.8264 64.328 89.7518L64.5721 88.9303C64.6205 88.7601 64.4294 88.6013 64.1738 88.6013H60.4894C60.4174 88.5965 60.3454 88.6098 60.2798 88.6399C60.2143 88.6701 60.1573 88.7161 60.1141 88.7739L59.6282 89.5953C59.5223 89.7863 59.7134 89.9819 60.0035 89.9819Z" fill="#3C3C3B"/>
<path d="M53.9738 89.9819H57.9022C57.984 89.9893 58.066 89.9711 58.1369 89.9299C58.2079 89.8887 58.2643 89.8264 58.2983 89.7518L58.9454 88.9303C58.996 88.7601 58.8049 88.6013 58.5493 88.6013H54.8765C54.8045 88.5965 54.7324 88.6098 54.6668 88.6399C54.6013 88.6701 54.5443 88.7161 54.5011 88.7739L53.61 89.5953C53.4948 89.7863 53.6883 89.9819 53.9738 89.9819Z" fill="#3C3C3B"/>
<path d="M48.7979 89.982H52.3441C52.4205 89.9873 52.4965 89.9677 52.5608 89.9262C52.6252 89.8847 52.6743 89.8236 52.701 89.7519L53.2859 88.9304C53.3296 88.7601 53.1569 88.6013 52.9267 88.6013H49.6015C49.5349 88.5979 49.4686 88.612 49.4091 88.6423C49.3497 88.6726 49.2993 88.718 49.263 88.7739L48.4594 89.5954C48.3627 89.7864 48.54 89.982 48.7979 89.982Z" fill="#3C3C3B"/>
<path d="M37.7621 89.9819H41.2922C41.4561 89.9499 41.6069 89.8697 41.7251 89.7518L42.5425 88.9211C42.9524 88.645 42.6047 88.6127 42.3491 88.6127H38.6648C38.5928 88.6084 38.5209 88.6219 38.4554 88.652C38.3899 88.6821 38.3329 88.7279 38.2894 88.7853L37.3775 89.6068C37.2808 89.7863 37.4765 89.9819 37.7621 89.9819Z" fill="#3C3C3B"/>
<path d="M43.2876 89.9821H47.0226C47.1017 89.9882 47.1808 89.9693 47.2486 89.928C47.3164 89.8867 47.3695 89.8251 47.4002 89.752L48.015 88.9305C48.0634 88.7602 47.8815 88.6014 47.6374 88.6014H44.1327C44.0634 88.5977 43.9944 88.6115 43.9319 88.6417C43.8695 88.6719 43.8158 88.7174 43.7757 88.774L42.9283 89.5955C42.827 89.7865 43.0135 89.9821 43.2876 89.9821Z" fill="#3C3C3B"/>
<path d="M32.65 89.9819H36.1685C36.3316 89.9493 36.4815 89.8692 36.5991 89.7518L37.4189 88.9211C37.8265 88.645 37.4788 88.6127 37.2232 88.6127H33.5388C33.4669 88.6084 33.3949 88.6219 33.3295 88.652C33.264 88.6821 33.207 88.7279 33.1635 88.7853L32.2723 89.6068C32.1664 89.7863 32.3621 89.9819 32.65 89.9819Z" fill="#3C3C3B"/>
<path d="M25.6324 89.982H31.3178C31.5088 89.9532 31.6885 89.8738 31.8382 89.7519L32.4623 88.9212C32.4623 88.6128 32.1744 88.6128 31.8682 88.6128H26.268C26.1832 88.6055 26.0978 88.6172 26.0182 88.6471C25.9385 88.6769 25.8665 88.7242 25.8074 88.7854L25.1719 89.8784C25.1719 89.8784 25.2755 89.982 25.6324 89.982Z" fill="#3C3C3B"/>
<path d="M74.3694 96.2984H69.7409C69.6437 96.3114 69.5448 96.2967 69.4556 96.256C69.3663 96.2153 69.2904 96.1502 69.2366 96.0683L68.9235 95.1709C68.859 94.9868 69.1031 94.8142 69.4278 94.8142H74.1092C74.1975 94.8083 74.286 94.8219 74.3684 94.8542C74.4508 94.8864 74.525 94.9364 74.5858 95.0006L74.8415 95.8911C75.0648 96.3789 74.7332 96.2984 74.3694 96.2984Z" fill="#3C3C3B"/>
<path d="M102.185 97.8308H107.667" stroke="#8F8F8F" stroke-miterlimit="10"/>
</g>
<path d="M24.9976 85.3638H17.1453C17.0181 85.3638 16.915 85.4668 16.915 85.5939V85.8562C16.915 85.9833 17.0181 86.0863 17.1453 86.0863H24.9976C25.1248 86.0863 25.2278 85.9833 25.2278 85.8562V85.5939C25.2278 85.4668 25.1248 85.3638 24.9976 85.3638Z" fill="#3C3C3B"/>
<path d="M116.091 85.3638H108.239C108.112 85.3638 108.009 85.4668 108.009 85.5939V85.8562C108.009 85.9833 108.112 86.0863 108.239 86.0863H116.091C116.218 86.0863 116.322 85.9833 116.322 85.8562V85.5939C116.322 85.4668 116.218 85.3638 116.091 85.3638Z" fill="#3C3C3B"/>
<path d="M24.8705 87.8904L19.0861 98.367H7.51953L13.6632 87.8904H24.8705Z" fill="#3C3C3B"/>
<path d="M109.07 87.8904L114.852 98.367H126.083L119.914 87.8904H109.07Z" fill="#3C3C3B"/>
<path d="M109.881 87.8904L115.868 98.367" stroke="black" stroke-width="0.05" stroke-miterlimit="10"/>
<path d="M110.243 87.8904L116.23 98.367" stroke="black" stroke-width="0.05" stroke-miterlimit="10"/>
<path d="M110.604 87.8904L116.591 98.367" stroke="black" stroke-width="0.05" stroke-miterlimit="10"/>
<path d="M110.965 87.8904L116.952 98.367" stroke="black" stroke-width="0.05" stroke-miterlimit="10"/>
<path d="M111.327 87.8904L117.314 98.367" stroke="black" stroke-width="0.05" stroke-miterlimit="10"/>
<path d="M111.688 87.8904L117.676 98.367" stroke="black" stroke-width="0.05" stroke-miterlimit="10"/>
<path d="M112.051 87.8904L118.038 98.367" stroke="black" stroke-width="0.05" stroke-miterlimit="10"/>
<path d="M112.41 87.8904L118.397 98.367" stroke="black" stroke-width="0.05" stroke-miterlimit="10"/>
<path d="M112.774 87.8904L118.761 98.367" stroke="black" stroke-width="0.05" stroke-miterlimit="10"/>
<path d="M109.52 87.8903L115.507 98.3669" stroke="black" stroke-width="0.05" stroke-miterlimit="10"/>
<path d="M109.158 87.8909L115.145 98.3675" stroke="black" stroke-width="0.05" stroke-miterlimit="10"/>
<path d="M113.857 87.8904L119.844 98.367" stroke="black" stroke-width="0.05" stroke-miterlimit="10"/>
<path d="M114.219 87.8904L120.206 98.367" stroke="black" stroke-width="0.05" stroke-miterlimit="10"/>
<path d="M114.581 87.8904L120.568 98.367" stroke="black" stroke-width="0.05" stroke-miterlimit="10"/>
<path d="M114.942 87.8904L120.929 98.367" stroke="black" stroke-width="0.05" stroke-miterlimit="10"/>
<path d="M115.305 87.8904L121.292 98.367" stroke="black" stroke-width="0.05" stroke-miterlimit="10"/>
<path d="M115.664 87.8904L121.651 98.367" stroke="black" stroke-width="0.05" stroke-miterlimit="10"/>
<path d="M116.026 87.8904L122.013 98.367" stroke="black" stroke-width="0.05" stroke-miterlimit="10"/>
<path d="M116.388 87.8904L122.375 98.367" stroke="black" stroke-width="0.05" stroke-miterlimit="10"/>
<path d="M116.749 87.8904L122.736 98.367" stroke="black" stroke-width="0.05" stroke-miterlimit="10"/>
<path d="M113.495 87.8904L119.482 98.367" stroke="black" stroke-width="0.05" stroke-miterlimit="10"/>
<path d="M113.135 87.8904L119.122 98.367" stroke="black" stroke-width="0.05" stroke-miterlimit="10"/>
<path d="M117.834 87.8904L123.821 98.367" stroke="black" stroke-width="0.05" stroke-miterlimit="10"/>
<path d="M118.196 87.8904L124.183 98.367" stroke="black" stroke-width="0.05" stroke-miterlimit="10"/>
<path d="M118.558 87.8904L124.545 98.367" stroke="black" stroke-width="0.05" stroke-miterlimit="10"/>
<path d="M118.919 87.8904L124.906 98.367" stroke="black" stroke-width="0.05" stroke-miterlimit="10"/>
<path d="M119.28 87.8904L125.267 98.367" stroke="black" stroke-width="0.05" stroke-miterlimit="10"/>
<path d="M119.64 87.8904L125.629 98.367" stroke="black" stroke-width="0.05" stroke-miterlimit="10"/>
<path d="M117.473 87.8904L123.46 98.367" stroke="black" stroke-width="0.05" stroke-miterlimit="10"/>
<path d="M117.111 87.8904L123.098 98.367" stroke="black" stroke-width="0.05" stroke-miterlimit="10"/>
<path d="M23.6931 87.8904L17.7061 98.367" stroke="black" stroke-width="0.05" stroke-miterlimit="10"/>
<path d="M23.3318 87.8904L17.3447 98.367" stroke="black" stroke-width="0.05" stroke-miterlimit="10"/>
<path d="M22.9705 87.8904L16.9834 98.367" stroke="black" stroke-width="0.05" stroke-miterlimit="10"/>
<path d="M22.6082 87.8904L16.6211 98.367" stroke="black" stroke-width="0.05" stroke-miterlimit="10"/>
<path d="M22.2478 87.8904L16.2607 98.367" stroke="black" stroke-width="0.05" stroke-miterlimit="10"/>
<path d="M21.8855 87.8904L15.8984 98.367" stroke="black" stroke-width="0.05" stroke-miterlimit="10"/>
<path d="M21.5232 87.8904L15.5361 98.367" stroke="black" stroke-width="0.05" stroke-miterlimit="10"/>
<path d="M21.1619 87.8904L15.1748 98.367" stroke="black" stroke-width="0.05" stroke-miterlimit="10"/>
<path d="M20.8015 87.8904L14.8145 98.367" stroke="black" stroke-width="0.05" stroke-miterlimit="10"/>
<path d="M24.0535 87.8904L18.0664 98.367" stroke="black" stroke-width="0.05" stroke-miterlimit="10"/>
<path d="M24.4158 87.8904L18.4287 98.367" stroke="black" stroke-width="0.05" stroke-miterlimit="10"/>
<path d="M24.7791 87.8904L18.792 98.367" stroke="black" stroke-width="0.05" stroke-miterlimit="10"/>
<path d="M19.7175 87.8904L13.7305 98.367" stroke="black" stroke-width="0.05" stroke-miterlimit="10"/>
<path d="M19.3543 87.8904L13.3672 98.367" stroke="black" stroke-width="0.05" stroke-miterlimit="10"/>
<path d="M18.9939 87.8904L13.0068 98.367" stroke="black" stroke-width="0.05" stroke-miterlimit="10"/>
<path d="M18.6326 87.8904L12.6455 98.367" stroke="black" stroke-width="0.05" stroke-miterlimit="10"/>
<path d="M18.2712 87.8904L12.2842 98.367" stroke="black" stroke-width="0.05" stroke-miterlimit="10"/>
<path d="M17.9089 87.8904L11.9219 98.367" stroke="black" stroke-width="0.05" stroke-miterlimit="10"/>
<path d="M17.5476 87.8904L11.5605 98.367" stroke="black" stroke-width="0.05" stroke-miterlimit="10"/>
<path d="M17.1853 87.8904L11.1982 98.367" stroke="black" stroke-width="0.05" stroke-miterlimit="10"/>
<path d="M16.824 87.8904L10.8369 98.367" stroke="black" stroke-width="0.05" stroke-miterlimit="10"/>
<path d="M20.0789 87.8904L14.0918 98.367" stroke="black" stroke-width="0.05" stroke-miterlimit="10"/>
<path d="M20.4402 87.8904L14.4531 98.367" stroke="black" stroke-width="0.05" stroke-miterlimit="10"/>
<path d="M15.74 87.8904L9.75293 98.367" stroke="black" stroke-width="0.05" stroke-miterlimit="10"/>
<path d="M15.3787 87.8904L9.3916 98.367" stroke="black" stroke-width="0.05" stroke-miterlimit="10"/>
<path d="M15.0154 87.8904L9.02832 98.367" stroke="black" stroke-width="0.05" stroke-miterlimit="10"/>
<path d="M14.655 87.8904L8.66797 98.367" stroke="black" stroke-width="0.05" stroke-miterlimit="10"/>
<path d="M14.2927 87.8903L8.30566 98.3669" stroke="black" stroke-width="0.05" stroke-miterlimit="10"/>
<path d="M13.9314 87.8909L7.94434 98.3675" stroke="black" stroke-width="0.05" stroke-miterlimit="10"/>
<path d="M16.1003 87.8904L10.1133 98.367" stroke="black" stroke-width="0.05" stroke-miterlimit="10"/>
<path d="M16.4627 87.8904L10.4756 98.367" stroke="black" stroke-width="0.05" stroke-miterlimit="10"/>
<path d="M117.002 82.808L17.4741 82.808L17.4741 20.2632L117.002 20.2632L117.002 82.808Z" fill="url(#paint8_linear)"/>
</g>
<path d="M117.092 19.3773H17.2451V82.7724H117.092V19.3773Z" fill="white"/>
<path d="M21.5076 22.6942C21.5076 22.8601 21.4583 23.0222 21.366 23.16C21.2737 23.2979 21.1424 23.4054 20.9889 23.4688C20.8354 23.5323 20.6664 23.5489 20.5034 23.5165C20.3405 23.4842 20.1907 23.4043 20.0732 23.2871C19.9557 23.1698 19.8757 23.0204 19.8433 22.8578C19.8109 22.6952 19.8275 22.5266 19.8911 22.3734C19.9547 22.2202 20.0624 22.0893 20.2006 21.9971C20.3387 21.905 20.5012 21.8558 20.6674 21.8558C20.7777 21.8558 20.887 21.8775 20.9889 21.9197C21.0908 21.9618 21.1835 22.0235 21.2615 22.1014C21.3395 22.1793 21.4014 22.2717 21.4436 22.3734C21.4858 22.4751 21.5076 22.5841 21.5076 22.6942Z" fill="#263238"/>
<path d="M24.9225 22.6942C24.9216 22.859 24.8718 23.0198 24.7794 23.1563C24.6871 23.2929 24.5562 23.3991 24.4035 23.4615C24.2507 23.5239 24.0828 23.5398 23.9209 23.5071C23.7591 23.4745 23.6106 23.3947 23.4942 23.2779C23.3778 23.1611 23.2986 23.0125 23.2667 22.8508C23.2348 22.6892 23.2516 22.5217 23.315 22.3696C23.3784 22.2175 23.4855 22.0875 23.6229 21.9961C23.7602 21.9046 23.9216 21.8558 24.0867 21.8558C24.1968 21.8558 24.3059 21.8776 24.4076 21.9197C24.5093 21.9619 24.6016 22.0238 24.6793 22.1017C24.7569 22.1796 24.8184 22.272 24.8601 22.3737C24.9019 22.4754 24.923 22.5843 24.9225 22.6942Z" fill="#263238"/>
<path d="M28.3416 22.6942C28.3416 22.8603 28.2922 23.0225 28.1997 23.1605C28.1071 23.2985 27.9756 23.4059 27.8218 23.4692C27.6681 23.5326 27.4989 23.5489 27.3358 23.5162C27.1727 23.4835 27.023 23.4032 26.9056 23.2855C26.7883 23.1678 26.7087 23.018 26.6767 22.8551C26.6448 22.6921 26.6621 22.5234 26.7264 22.3703C26.7907 22.2172 26.8991 22.0866 27.0378 21.995C27.1766 21.9034 27.3395 21.855 27.5058 21.8558C27.6159 21.8558 27.725 21.8776 27.8267 21.9198C27.9284 21.9619 28.0207 22.0238 28.0984 22.1017C28.176 22.1796 28.2375 22.2721 28.2792 22.3737C28.321 22.4754 28.3422 22.5844 28.3416 22.6942Z" fill="#263238"/>
<path d="M91.1255 53.9024C91.1255 53.9649 80.4887 54.0184 67.3626 54.0184C54.2364 54.0184 43.5996 53.9649 43.5996 53.9024C43.5996 53.84 54.2364 53.7865 67.3626 53.7865C80.4887 53.7865 91.1255 53.84 91.1255 53.9024Z" fill="#263238"/>
<path d="M79.5677 55.5345C79.5677 55.6014 73.8694 55.6505 66.8393 55.6505C59.8092 55.6505 54.1064 55.6014 54.1064 55.5345C54.1064 55.4676 59.8047 55.4186 66.8393 55.4186C73.8739 55.4186 79.5677 55.4721 79.5677 55.5345Z" fill="#263238"/>
<path d="M51.1618 61.0645H24.5117V78.4078H51.1618V61.0645Z" fill="#71A0DD"/>
<path d="M28.3775 64.5072C28.3775 64.718 28.3149 64.9241 28.1975 65.0994C28.0801 65.2747 27.9133 65.4113 27.7181 65.492C27.5229 65.5726 27.3082 65.5937 27.101 65.5526C26.8938 65.5115 26.7034 65.41 26.5541 65.2609C26.4047 65.1118 26.303 64.9219 26.2617 64.7152C26.2205 64.5084 26.2417 64.2941 26.3225 64.0994C26.4034 63.9046 26.5403 63.7381 26.7159 63.621C26.8916 63.5039 27.0981 63.4414 27.3094 63.4414C27.5927 63.4414 27.8643 63.5537 28.0647 63.7536C28.265 63.9535 28.3775 64.2246 28.3775 64.5072Z" fill="#FAFAFA"/>
<path d="M49.718 65.4037L48.8242 64.5475L48.0063 65.3769L47.9795 62.8929H49.6733L49.718 65.4037ZM48.8242 64.436L48.851 64.4627L49.6242 65.2209V62.9509H48.0823L48.1091 65.1807L48.8242 64.436Z" fill="#FAFAFA"/>
<path d="M43.0057 63.9408C43.0057 64.0032 40.0784 64.0567 36.4672 64.0567C32.8561 64.0567 29.9287 64.0032 29.9287 63.9408C29.9287 63.8783 32.8561 63.8248 36.4672 63.8248C40.0784 63.8248 43.0057 63.8783 43.0057 63.9408Z" fill="#FAFAFA"/>
<path d="M34.97 65.4035C34.1351 65.5183 33.2914 65.5571 32.4494 65.5195C31.6074 65.5568 30.7637 65.518 29.9287 65.4035C30.7635 65.2864 31.6074 65.2476 32.4494 65.2876C33.2914 65.2473 34.1353 65.2862 34.97 65.4035Z" fill="#FAFAFA"/>
<path d="M80.6852 61.0645H54.0352V78.4078H80.6852V61.0645Z" fill="#A62E41"/>
<path d="M57.9009 64.5072C57.9009 64.718 57.8383 64.9241 57.7209 65.0994C57.6036 65.2747 57.4367 65.4113 57.2416 65.492C57.0464 65.5726 56.8316 65.5937 56.6244 65.5526C56.4172 65.5115 56.2269 65.41 56.0775 65.2609C55.9281 65.1118 55.8264 64.9219 55.7852 64.7152C55.744 64.5084 55.7651 64.2941 55.846 64.0994C55.9268 63.9046 56.0637 63.7381 56.2394 63.621C56.415 63.5039 56.6215 63.4414 56.8328 63.4414C57.1161 63.4414 57.3878 63.5537 57.5881 63.7536C57.7884 63.9535 57.9009 64.2246 57.9009 64.5072Z" fill="#FAFAFA"/>
<path d="M79.2409 65.4037L78.3471 64.5475L77.5337 65.3769L77.5068 62.8929H79.1962L79.2409 65.4037ZM78.3471 64.436L78.3739 64.4627L79.147 65.2209L79.1202 62.9509H77.5828V65.1807L78.3471 64.436Z" fill="#FAFAFA"/>
<path d="M72.5286 63.9408C72.5286 64.0032 69.6012 64.0567 65.9946 64.0567C62.3879 64.0567 59.4561 64.0032 59.4561 63.9408C59.4561 63.8783 62.3834 63.8248 65.9946 63.8248C69.6057 63.8248 72.5286 63.8783 72.5286 63.9408Z" fill="#FAFAFA"/>
<path d="M64.4974 65.4035C63.6624 65.518 62.8187 65.5568 61.9767 65.5195C61.1347 65.5571 60.291 65.5183 59.4561 65.4035C60.2908 65.2862 61.1347 65.2473 61.9767 65.2876C62.8187 65.2476 63.6626 65.2864 64.4974 65.4035Z" fill="#FAFAFA"/>
<path d="M110.161 61.0645H83.5107V78.4078H110.161V61.0645Z" fill="#71A0DD"/>
<path d="M87.3756 64.5072C87.3756 64.718 87.3129 64.9241 87.1955 65.0994C87.0782 65.2747 86.9113 65.4113 86.7162 65.492C86.521 65.5726 86.3062 65.5937 86.099 65.5526C85.8918 65.5115 85.7015 65.41 85.5521 65.2609C85.4027 65.1118 85.301 64.9219 85.2598 64.7152C85.2186 64.5084 85.2397 64.2941 85.3206 64.0994C85.4014 63.9046 85.5383 63.7381 85.714 63.621C85.8896 63.5039 86.0961 63.4414 86.3074 63.4414C86.5907 63.4414 86.8624 63.5537 87.0627 63.7536C87.263 63.9535 87.3756 64.2246 87.3756 64.5072Z" fill="#FAFAFA"/>
<path d="M108.717 65.4037L107.823 64.5475L107.009 65.3769L106.982 62.8929H108.676L108.717 65.4037ZM107.823 64.436L107.849 64.4627L108.623 65.2209L108.6 62.9509H107.058V65.1807L107.823 64.436Z" fill="#FAFAFA"/>
<path d="M102.004 63.9408C102.004 64.0032 99.0764 64.0567 95.4653 64.0567C91.8541 64.0567 88.9268 64.0032 88.9268 63.9408C88.9268 63.8783 91.8541 63.8248 95.4653 63.8248C99.0764 63.8248 102.004 63.8783 102.004 63.9408Z" fill="#FAFAFA"/>
<path d="M93.9681 65.4035C93.1331 65.518 92.2894 65.5568 91.4474 65.5195C90.6054 65.5571 89.7617 65.5183 88.9268 65.4035C89.7615 65.2862 90.6054 65.2473 91.4474 65.2876C92.2894 65.2476 93.1333 65.2864 93.9681 65.4035Z" fill="#FAFAFA"/>
<g opacity="0.3">
<path opacity="0.3" d="M60.376 36.8524C61.9189 35.3129 61.9189 32.8168 60.376 31.2772C58.8332 29.7377 56.3316 29.7377 54.7888 31.2772C53.2459 32.8168 53.2459 35.3129 54.7888 36.8524C56.3316 38.392 58.8332 38.392 60.376 36.8524Z" fill="black"/>
</g>
<path d="M90.2039 31.5287C84.9973 34.9492 80.7381 39.8013 75.1158 42.4725C68.1259 45.7949 59.9516 45.3267 52.3226 43.9933C44.6936 42.6599 37.1272 40.5326 29.382 40.769C25.167 40.8751 21.026 41.8978 17.248 43.7658V49.929H117.091V27.0959C108.014 24.8973 98.0117 26.3957 90.2039 31.5287ZM64.3315 47.0525C64.2272 47.0525 64.1271 47.0112 64.0534 46.9376C63.9796 46.864 63.9382 46.7642 63.9382 46.6601C63.9382 46.556 63.9796 46.4562 64.0534 46.3826C64.1271 46.309 64.2272 46.2677 64.3315 46.2677C64.4358 46.2677 64.5358 46.309 64.6096 46.3826C64.6833 46.4562 64.7248 46.556 64.7248 46.6601C64.7248 46.7642 64.6833 46.864 64.6096 46.9376C64.5358 47.0112 64.4358 47.0525 64.3315 47.0525ZM66.8209 47.0525C66.7431 47.0525 66.667 47.0295 66.6024 46.9864C66.5377 46.9433 66.4873 46.882 66.4575 46.8103C66.4277 46.7386 66.4199 46.6597 66.4351 46.5835C66.4503 46.5074 66.4877 46.4375 66.5428 46.3826C66.5978 46.3277 66.6678 46.2903 66.7441 46.2752C66.8204 46.2601 66.8995 46.2678 66.9714 46.2975C67.0432 46.3272 67.1046 46.3775 67.1479 46.4421C67.1911 46.5066 67.2141 46.5825 67.2141 46.6601C67.2141 46.7642 67.1727 46.864 67.099 46.9376C67.0252 47.0112 66.9252 47.0525 66.8209 47.0525ZM69.3147 47.0525C69.2104 47.0525 69.1103 47.0112 69.0366 46.9376C68.9628 46.864 68.9214 46.7642 68.9214 46.6601C68.9214 46.556 68.9628 46.4562 69.0366 46.3826C69.1103 46.309 69.2104 46.2677 69.3147 46.2677C69.419 46.2677 69.519 46.309 69.5928 46.3826C69.6665 46.4562 69.708 46.556 69.708 46.6601C69.708 46.7642 69.6665 46.864 69.5928 46.9376C69.519 47.0112 69.419 47.0525 69.3147 47.0525ZM113.113 38.2181C113.293 38.0383 113.523 37.9158 113.772 37.8661C114.022 37.8164 114.281 37.8417 114.516 37.9389C114.751 38.036 114.953 38.2006 115.094 38.4119C115.236 38.6231 115.311 38.8715 115.311 39.1256C115.311 39.3797 115.236 39.6281 115.094 39.8394C114.953 40.0506 114.751 40.2152 114.516 40.3124C114.281 40.4096 114.022 40.4349 113.772 40.3852C113.523 40.3355 113.293 40.213 113.113 40.0332C112.875 39.79 112.742 39.4623 112.746 39.1219C112.749 38.7816 112.888 38.4565 113.131 38.2181H113.113Z" fill="#71A0DD"/>
<path d="M47.1727 44.5077C58.8472 46.2796 73.3202 47.6165 86.9788 46.2796C93.8247 45.6112 107.901 30.1212 114.714 29.283C117.091 28.4906 117.488 25.717 117.091 25.717H17.2441V46.3204C27.3831 47.8697 37.6424 47.2063 47.1727 44.5077Z" fill="#82B4F5"/>
<path d="M64.3318 46.3204C64.254 46.3204 64.1779 46.3435 64.1133 46.3866C64.0486 46.4297 63.9982 46.491 63.9684 46.5627C63.9386 46.6344 63.9309 46.7133 63.946 46.7894C63.9612 46.8656 63.9987 46.9355 64.0537 46.9904C64.1087 47.0453 64.1788 47.0826 64.255 47.0978C64.3313 47.1129 64.4104 47.1052 64.4823 47.0754C64.5541 47.0457 64.6156 46.9954 64.6588 46.9309C64.702 46.8664 64.7251 46.7905 64.7251 46.7129C64.7251 46.6088 64.6836 46.509 64.6099 46.4354C64.5361 46.3618 64.4361 46.3204 64.3318 46.3204Z" fill="#263238"/>
<path d="M66.821 47.1053C67.0382 47.1053 67.2143 46.9296 67.2143 46.7129C67.2143 46.4961 67.0382 46.3204 66.821 46.3204C66.6038 46.3204 66.4277 46.4961 66.4277 46.7129C66.4277 46.9296 66.6038 47.1053 66.821 47.1053Z" fill="#263238"/>
<path d="M69.3152 47.1053C69.5324 47.1053 69.7085 46.9296 69.7085 46.7129C69.7085 46.4961 69.5324 46.3204 69.3152 46.3204C69.098 46.3204 68.9219 46.4961 68.9219 46.7129C68.9219 46.9296 69.098 47.1053 69.3152 47.1053Z" fill="#263238"/>
<path d="M60.376 36.8525C61.9189 35.313 61.9189 32.8169 60.376 31.2773C58.8332 29.7378 56.3316 29.7378 54.7888 31.2773C53.2459 32.8169 53.2459 35.313 54.7888 36.8525C56.3316 38.3921 58.8332 38.3921 60.376 36.8525Z" fill="#B4D1FA"/>
<path d="M114.042 40.4078C114.753 40.4078 115.329 39.8328 115.329 39.1235C115.329 38.4141 114.753 37.8391 114.042 37.8391C113.331 37.8391 112.755 38.4141 112.755 39.1235C112.755 39.8328 113.331 40.4078 114.042 40.4078Z" fill="#71A0DD"/>
<path opacity="0.3" d="M90.2039 31.5287C84.9973 34.9492 80.7381 39.8013 75.1158 42.4725C68.1259 45.7949 59.9516 45.3267 52.3226 43.9933C44.6936 42.6599 37.1272 40.5326 29.382 40.769C25.167 40.8751 21.026 41.8978 17.248 43.7658V49.929H117.091V27.0959C108.014 24.8973 98.0117 26.3957 90.2039 31.5287ZM64.3315 47.0525C64.2272 47.0525 64.1271 47.0112 64.0534 46.9376C63.9796 46.864 63.9382 46.7642 63.9382 46.6601C63.9382 46.556 63.9796 46.4562 64.0534 46.3826C64.1271 46.309 64.2272 46.2677 64.3315 46.2677C64.4358 46.2677 64.5358 46.309 64.6096 46.3826C64.6833 46.4562 64.7248 46.556 64.7248 46.6601C64.7248 46.7642 64.6833 46.864 64.6096 46.9376C64.5358 47.0112 64.4358 47.0525 64.3315 47.0525ZM66.8209 47.0525C66.7431 47.0525 66.667 47.0295 66.6024 46.9864C66.5377 46.9433 66.4873 46.882 66.4575 46.8103C66.4277 46.7386 66.4199 46.6597 66.4351 46.5835C66.4503 46.5074 66.4877 46.4375 66.5428 46.3826C66.5978 46.3277 66.6678 46.2903 66.7441 46.2752C66.8204 46.2601 66.8995 46.2678 66.9714 46.2975C67.0432 46.3272 67.1046 46.3775 67.1479 46.4421C67.1911 46.5066 67.2141 46.5825 67.2141 46.6601C67.2141 46.7642 67.1727 46.864 67.099 46.9376C67.0252 47.0112 66.9252 47.0525 66.8209 47.0525ZM69.3147 47.0525C69.2104 47.0525 69.1103 47.0112 69.0366 46.9376C68.9628 46.864 68.9214 46.7642 68.9214 46.6601C68.9214 46.556 68.9628 46.4562 69.0366 46.3826C69.1103 46.309 69.2104 46.2677 69.3147 46.2677C69.419 46.2677 69.519 46.309 69.5928 46.3826C69.6665 46.4562 69.708 46.556 69.708 46.6601C69.708 46.7642 69.6665 46.864 69.5928 46.9376C69.519 47.0112 69.419 47.0525 69.3147 47.0525ZM113.113 38.2181C113.293 38.0383 113.523 37.9158 113.772 37.8661C114.022 37.8164 114.281 37.8417 114.516 37.9389C114.751 38.036 114.953 38.2006 115.094 38.4119C115.236 38.6231 115.311 38.8715 115.311 39.1256C115.311 39.3797 115.236 39.6281 115.094 39.8394C114.953 40.0506 114.751 40.2152 114.516 40.3124C114.281 40.4096 114.022 40.4349 113.772 40.3852C113.523 40.3355 113.293 40.213 113.113 40.0332C112.875 39.79 112.742 39.4623 112.746 39.1219C112.749 38.7816 112.888 38.4565 113.131 38.2181H113.113Z" fill="#71A0DD"/>
<path d="M113.203 71.3973C113.314 71.2724 113.436 71.1589 113.57 71.0584C113.802 70.8577 114.133 70.5857 114.499 70.2869V70.3582C114.142 70.0461 113.815 69.7562 113.605 69.5466C113.473 69.4399 113.352 69.3204 113.243 69.1898C113.387 69.2795 113.522 69.3825 113.646 69.4975C113.887 69.6938 114.218 69.9747 114.58 70.2869L114.62 70.3226L114.58 70.3582C114.213 70.6526 113.878 70.9157 113.632 71.103C113.497 71.2122 113.354 71.3106 113.203 71.3973Z" fill="#263238"/>
<path d="M21.5833 69.1764C21.4728 69.3013 21.3501 69.4148 21.2169 69.5153C20.9844 69.716 20.6582 69.988 20.2872 70.2868V70.2155C20.6493 70.5276 20.971 70.8175 21.1811 71.0271C21.31 71.1359 21.4296 71.2552 21.5386 71.3839C21.396 71.2929 21.2615 71.19 21.1364 71.0762C20.8951 70.88 20.5643 70.599 20.2023 70.2868L20.1621 70.2512L20.2023 70.2199C20.5688 69.9211 20.904 69.658 21.1498 69.4707C21.2863 69.3613 21.4312 69.2629 21.5833 69.1764Z" fill="#263238"/>
<path d="M146.029 55.3079C146.029 56.4047 145.14 57.2939 144.043 57.2939H131.076L133.691 54.679L132.755 53.7428L129.01 57.4879C128.752 57.7465 128.752 58.1654 129.01 58.424L132.755 62.1691L133.691 61.2329L131.076 58.618H144.043C145.87 58.6157 147.351 57.1351 147.353 55.3079V52.6598H146.029V55.3079Z" fill="#0A3D76"/>
<path d="M130.14 50.0117C130.14 48.9147 131.03 48.0256 132.127 48.0256H145.093L142.478 50.6406L143.414 51.5767L147.159 47.8317C147.417 47.5731 147.417 47.1542 147.159 46.8956L143.414 43.1505L142.478 44.0867L145.093 46.7016H132.127C130.299 46.7037 128.819 48.1845 128.816 50.0117V52.6598H130.14V50.0117Z" fill="#0A3D76"/>
</g>
<defs>
<filter id="filter0_d" x="154.409" y="21.9337" width="39.1965" height="70.7002" filterUnits="userSpaceOnUse" color-interpolation-filters="sRGB">
<feFlood flood-opacity="0" result="BackgroundImageFix"/>
<feColorMatrix in="SourceAlpha" type="matrix" values="0 0 0 0 0 0 0 0 0 0 0 0 0 0 0 0 0 0 127 0"/>
<feOffset dx="2" dy="2"/>
<feGaussianBlur stdDeviation="2"/>
<feColorMatrix type="matrix" values="0 0 0 0 0 0 0 0 0 0 0 0 0 0 0 0 0 0 0.2 0"/>
<feBlend mode="normal" in2="BackgroundImageFix" result="effect1_dropShadow"/>
<feBlend mode="normal" in="SourceGraphic" in2="effect1_dropShadow" result="shape"/>
</filter>
<filter id="filter1_d" x="-1" y="15" width="139.563" height="103.093" filterUnits="userSpaceOnUse" color-interpolation-filters="sRGB">
<feFlood flood-opacity="0" result="BackgroundImageFix"/>
<feColorMatrix in="SourceAlpha" type="matrix" values="0 0 0 0 0 0 0 0 0 0 0 0 0 0 0 0 0 0 127 0"/>
<feOffset dx="2" dy="2"/>
<feGaussianBlur stdDeviation="2"/>
<feColorMatrix type="matrix" values="0 0 0 0 0.0392157 0 0 0 0 0.239216 0 0 0 0 0.462745 0 0 0 0.3 0"/>
<feBlend mode="normal" in2="BackgroundImageFix" result="effect1_dropShadow"/>
<feBlend mode="normal" in="SourceGraphic" in2="effect1_dropShadow" result="shape"/>
</filter>
<filter id="filter2_di" x="12.7344" y="15" width="112.836" height="76.9966" filterUnits="userSpaceOnUse" color-interpolation-filters="sRGB">
<feFlood flood-opacity="0" result="BackgroundImageFix"/>
<feColorMatrix in="SourceAlpha" type="matrix" values="0 0 0 0 0 0 0 0 0 0 0 0 0 0 0 0 0 0 127 0"/>
<feOffset dx="2" dy="2"/>
<feGaussianBlur stdDeviation="2"/>
<feColorMatrix type="matrix" values="0 0 0 0 0 0 0 0 0 0 0 0 0 0 0 0 0 0 0.15 0"/>
<feBlend mode="normal" in2="BackgroundImageFix" result="effect1_dropShadow"/>
<feBlend mode="normal" in="SourceGraphic" in2="effect1_dropShadow" result="shape"/>
<feColorMatrix in="SourceAlpha" type="matrix" values="0 0 0 0 0 0 0 0 0 0 0 0 0 0 0 0 0 0 127 0" result="hardAlpha"/>
<feOffset dx="-2" dy="-2"/>
<feGaussianBlur stdDeviation="2"/>
<feComposite in2="hardAlpha" operator="arithmetic" k2="-1" k3="1"/>
<feColorMatrix type="matrix" values="0 0 0 0 0 0 0 0 0 0 0 0 0 0 0 0 0 0 0.2 0"/>
<feBlend mode="normal" in2="shape" result="effect2_innerShadow"/>
</filter>
<filter id="filter3_i" x="-1" y="83.7181" width="133.563" height="27.652" filterUnits="userSpaceOnUse" color-interpolation-filters="sRGB">
<feFlood flood-opacity="0" result="BackgroundImageFix"/>
<feBlend mode="normal" in="SourceGraphic" in2="BackgroundImageFix" result="shape"/>
<feColorMatrix in="SourceAlpha" type="matrix" values="0 0 0 0 0 0 0 0 0 0 0 0 0 0 0 0 0 0 127 0" result="hardAlpha"/>
<feOffset dx="-2" dy="-2"/>
<feGaussianBlur stdDeviation="2"/>
<feComposite in2="hardAlpha" operator="arithmetic" k2="-1" k3="1"/>
<feColorMatrix type="matrix" values="0 0 0 0 0 0 0 0 0 0 0 0 0 0 0 0 0 0 0.2 0"/>
<feBlend mode="normal" in2="shape" result="effect1_innerShadow"/>
</filter>
<filter id="filter4_di" x="17.584" y="85.7224" width="102.397" height="19.5604" filterUnits="userSpaceOnUse" color-interpolation-filters="sRGB">
<feFlood flood-opacity="0" result="BackgroundImageFix"/>
<feColorMatrix in="SourceAlpha" type="matrix" values="0 0 0 0 0 0 0 0 0 0 0 0 0 0 0 0 0 0 127 0"/>
<feOffset dx="2" dy="2"/>
<feGaussianBlur stdDeviation="2"/>
<feColorMatrix type="matrix" values="0 0 0 0 0 0 0 0 0 0 0 0 0 0 0 0 0 0 0.15 0"/>
<feBlend mode="normal" in2="BackgroundImageFix" result="effect1_dropShadow"/>
<feBlend mode="normal" in="SourceGraphic" in2="effect1_dropShadow" result="shape"/>
<feColorMatrix in="SourceAlpha" type="matrix" values="0 0 0 0 0 0 0 0 0 0 0 0 0 0 0 0 0 0 127 0" result="hardAlpha"/>
<feOffset dx="-2" dy="-2"/>
<feGaussianBlur stdDeviation="2"/>
<feComposite in2="hardAlpha" operator="arithmetic" k2="-1" k3="1"/>
<feColorMatrix type="matrix" values="0 0 0 0 0 0 0 0 0 0 0 0 0 0 0 0 0 0 0.2 0"/>
<feBlend mode="normal" in2="shape" result="effect2_innerShadow"/>
</filter>
<linearGradient id="paint0_linear" x1="156.956" y1="45.6205" x2="156.859" y2="34.5815" gradientUnits="userSpaceOnUse">
<stop stop-color="#808080"/>
<stop offset="0.01" stop-color="#727272"/>
<stop offset="0.06" stop-color="#4F4F4F"/>
<stop offset="0.1" stop-color="#323232"/>
<stop offset="0.15" stop-color="#1C1C1C"/>
<stop offset="0.2" stop-color="#0C0C0C"/>
<stop offset="0.26" stop-color="#030303"/>
<stop offset="0.34"/>
<stop offset="0.7"/>
<stop offset="0.75" stop-color="#050505"/>
<stop offset="0.8" stop-color="#131313"/>
<stop offset="0.86" stop-color="#2A2A2A"/>
<stop offset="0.92" stop-color="#4B4B4B"/>
<stop offset="0.98" stop-color="#747474"/>
<stop offset="1" stop-color="#808080"/>
</linearGradient>
<linearGradient id="paint1_linear" x1="156.462" y1="151.496" x2="156.378" y2="142.993" gradientUnits="userSpaceOnUse">
<stop stop-color="#808080"/>
<stop offset="0.01" stop-color="#727272"/>
<stop offset="0.06" stop-color="#4F4F4F"/>
<stop offset="0.1" stop-color="#323232"/>
<stop offset="0.15" stop-color="#1C1C1C"/>
<stop offset="0.2" stop-color="#0C0C0C"/>
<stop offset="0.26" stop-color="#030303"/>
<stop offset="0.34"/>
<stop offset="0.7"/>
<stop offset="0.75" stop-color="#050505"/>
<stop offset="0.8" stop-color="#131313"/>
<stop offset="0.86" stop-color="#2A2A2A"/>
<stop offset="0.92" stop-color="#4B4B4B"/>
<stop offset="0.98" stop-color="#747474"/>
<stop offset="1" stop-color="#808080"/>
</linearGradient>
<linearGradient id="paint2_linear" x1="188.242" y1="55.1177" x2="155.992" y2="54.9467" gradientUnits="userSpaceOnUse">
<stop stop-color="#323232"/>
<stop offset="0.03" stop-color="#1C1C1C"/>
<stop offset="0.06" stop-color="#0C0C0C"/>
<stop offset="0.1" stop-color="#030303"/>
<stop offset="0.15"/>
<stop offset="0.87"/>
<stop offset="0.91" stop-color="#050505"/>
<stop offset="0.95" stop-color="#131313"/>
<stop offset="0.99" stop-color="#2A2A2A"/>
<stop offset="1" stop-color="#333333"/>
</linearGradient>
<linearGradient id="paint3_linear" x1="171.919" y1="24.6221" x2="171.892" y2="22.4364" gradientUnits="userSpaceOnUse">
<stop/>
<stop offset="0.16" stop-color="#050505"/>
<stop offset="0.34" stop-color="#131313"/>
<stop offset="0.53" stop-color="#2A2A2A"/>
<stop offset="0.74" stop-color="#4B4B4B"/>
<stop offset="0.95" stop-color="#747474"/>
<stop offset="1" stop-color="#808080"/>
</linearGradient>
<linearGradient id="paint4_linear" x1="172.185" y1="81.2217" x2="172.294" y2="86.3702" gradientUnits="userSpaceOnUse">
<stop/>
<stop offset="0.16" stop-color="#050505"/>
<stop offset="0.34" stop-color="#131313"/>
<stop offset="0.53" stop-color="#2A2A2A"/>
<stop offset="0.74" stop-color="#4B4B4B"/>
<stop offset="0.95" stop-color="#747474"/>
<stop offset="1" stop-color="#808080"/>
</linearGradient>
<linearGradient id="paint5_linear" x1="171.92" y1="23.8726" x2="171.949" y2="27.2202" gradientUnits="userSpaceOnUse">
<stop/>
<stop offset="0.14" stop-color="#050505"/>
<stop offset="0.3" stop-color="#131313"/>
<stop offset="0.47" stop-color="#2A2A2A"/>
<stop offset="0.65" stop-color="#4B4B4B"/>
<stop offset="0.83" stop-color="#747474"/>
<stop offset="1" stop-color="#A1A1A1"/>
</linearGradient>
<linearGradient id="paint6_linear" x1="169.046" y1="61.1272" x2="169.215" y2="63.4704" gradientUnits="userSpaceOnUse">
<stop/>
<stop offset="0.14" stop-color="#050505"/>
<stop offset="0.3" stop-color="#131313"/>
<stop offset="0.47" stop-color="#2A2A2A"/>
<stop offset="0.65" stop-color="#4B4B4B"/>
<stop offset="0.83" stop-color="#747474"/>
<stop offset="1" stop-color="#A1A1A1"/>
</linearGradient>
<linearGradient id="paint7_linear" x1="178.8" y1="61.3627" x2="178.97" y2="63.7231" gradientUnits="userSpaceOnUse">
<stop/>
<stop offset="0.14" stop-color="#050505"/>
<stop offset="0.3" stop-color="#131313"/>
<stop offset="0.47" stop-color="#2A2A2A"/>
<stop offset="0.65" stop-color="#4B4B4B"/>
<stop offset="0.83" stop-color="#747474"/>
<stop offset="1" stop-color="#A1A1A1"/>
</linearGradient>
<linearGradient id="paint8_linear" x1="20.5422" y1="51.5356" x2="113.991" y2="54.7284" gradientUnits="userSpaceOnUse">
<stop stop-color="#A62E41"/>
<stop offset="1" stop-color="#E13152"/>
</linearGradient>
<clipPath id="clip0">
<rect width="200" height="130" fill="white"/>
</clipPath>
</defs>
</svg>
