<svg width="24" height="24" viewBox="0 0 24 24" fill="none" xmlns="http://www.w3.org/2000/svg">
<g filter="url(#filter0_i)">
<path d="M0 4C0 1.79086 1.79086 0 4 0H20C22.2091 0 24 1.79086 24 4V20C24 22.2091 22.2091 24 20 24H4C1.79086 24 0 22.2091 0 20V4Z" fill="#A62E41"/>
</g>
<path fill-rule="evenodd" clip-rule="evenodd" d="M19.4479 8.74195C19.4479 8.74195 19.2992 7.67822 18.8437 7.20989C18.2656 6.59486 17.6177 6.59198 17.3209 6.5563C15.1938 6.40002 12.0032 6.40002 12.0032 6.40002H11.9966C11.9966 6.40002 8.806 6.40002 6.67895 6.5563C6.3816 6.59198 5.73418 6.59486 5.15563 7.20989C4.7001 7.67834 4.5519 8.74195 4.5519 8.74195C4.5519 8.74195 4.3999 9.99141 4.3999 11.2403V12.4115C4.3999 13.6609 4.5519 14.9099 4.5519 14.9099C4.5519 14.9099 4.7001 15.9736 5.15563 16.4419C5.73418 17.0569 6.4937 17.0377 6.8319 17.1019C8.0479 17.2205 11.9999 17.2572 11.9999 17.2572C11.9999 17.2572 15.1938 17.2524 17.3209 17.0961C17.6177 17.0599 18.2656 17.0571 18.8437 16.442C19.2992 15.9736 19.4479 14.91 19.4479 14.91C19.4479 14.91 19.5999 13.661 19.5999 12.4115V11.2403C19.5999 9.99141 19.4479 8.74195 19.4479 8.74195ZM10.4305 13.8308L10.43 9.49361L14.5369 11.6697L10.4305 13.8308Z" fill="white"/>
<defs>
<filter id="filter0_i" x="-4" y="-4" width="28" height="28" filterUnits="userSpaceOnUse" color-interpolation-filters="sRGB">
<feFlood flood-opacity="0" result="BackgroundImageFix"/>
<feBlend mode="normal" in="SourceGraphic" in2="BackgroundImageFix" result="shape"/>
<feColorMatrix in="SourceAlpha" type="matrix" values="0 0 0 0 0 0 0 0 0 0 0 0 0 0 0 0 0 0 127 0" result="hardAlpha"/>
<feOffset dx="-4" dy="-4"/>
<feGaussianBlur stdDeviation="4"/>
<feComposite in2="hardAlpha" operator="arithmetic" k2="-1" k3="1"/>
<feColorMatrix type="matrix" values="0 0 0 0 0 0 0 0 0 0 0 0 0 0 0 0 0 0 0.15 0"/>
<feBlend mode="normal" in2="shape" result="effect1_innerShadow"/>
</filter>
</defs>
</svg>
