<svg width="200" height="130" viewBox="0 0 200 130" fill="none" xmlns="http://www.w3.org/2000/svg">
<g clip-path="url(#clip0)">
<g filter="url(#filter0_d)">
<path d="M61.9504 94.2537C58.9504 98.7537 53.5 103 52.5 102.5L55.4504 91.2536C58.4504 90.7536 64.3504 90.6537 61.9504 94.2537Z" fill="#98B0D1"/>
<path d="M135.56 88.2537C138.56 92.7537 144 97.5 145 97L142.06 85.2536C139.06 84.7536 133.16 84.6537 135.56 88.2537Z" fill="#98B0D1"/>
<path d="M90.9004 129.064C90.9004 129.064 94.0145 130.898 96.5197 129.431C99.0249 127.964 100.786 126.864 100.786 126.864L95.2836 123.632L90.9004 129.064Z" fill="#FAB29A"/>
<g style="mix-blend-mode:multiply" opacity="0.5">
<path d="M90.9004 129.064C90.9004 129.064 94.0145 130.898 96.5197 129.431C99.0249 127.964 100.786 126.864 100.786 126.864L95.2836 123.632L90.9004 129.064Z" fill="#CC8A79"/>
</g>
<path d="M132.819 109.217C131.663 110.915 129.268 112.705 124.404 109.984C124.514 110.16 125.996 112.514 125.307 115.291C125.229 115.607 125.126 115.916 124.998 116.215L124.969 116.281C123.524 119.583 119.075 119.828 117.85 119.425C117.879 119.487 118.675 121.171 117.402 123.225C117.24 123.482 117.06 123.727 116.863 123.958C114.824 126.372 111.999 125.792 111.145 125.532C110.485 125.281 109.866 124.933 109.311 124.498C109.173 125.422 108.821 126.301 108.284 127.065C107.941 127.547 107.486 127.937 106.958 128.203C106.43 128.469 105.845 128.602 105.254 128.591C102.888 128.609 101.028 127.942 98.8863 126.783C98.4021 126.522 97.9069 126.236 97.3861 125.928C96.7148 125.528 96.0033 125.092 95.2366 124.622C91.2276 122.168 75.6278 114.469 75.6278 114.469C75.6278 114.469 72.7448 112.085 69.4509 109.422C66.6119 107.123 63.4685 104.61 61.6162 103.246L58.5094 101.756L49.4569 97.4208L45.2021 95.3814L32.9805 89.542L49.7797 65.5316L58.0619 69.1519L68.4533 73.6891L74.6264 76.3888L88.7004 73.1279L92.0712 72.3357L103.354 79.4882L131.282 97.2007L132.382 101.676L133.482 104.141C133.604 104.414 133.673 104.707 133.688 105.006C133.686 105.026 133.686 105.045 133.688 105.065C133.739 105.993 133.677 107.955 132.819 109.217Z" fill="#FFC5B1"/>
<g style="mix-blend-mode:multiply" opacity="0.5">
<path d="M97.4018 125.947C96.7306 125.547 96.019 125.11 95.2524 124.641C91.2433 122.187 75.6435 114.488 75.6435 114.488C75.6435 114.488 72.7605 112.104 69.4667 109.441C66.6277 107.141 63.4843 104.628 61.6319 103.264L58.5252 101.775L49.458 97.4209L51.38 94.0684L65.0982 100.542C65.0982 100.542 82.1211 114.88 87.0399 117.976C91.9586 121.072 97.2221 125.096 97.2221 125.096L97.4018 125.947Z" fill="#FFC5B1"/>
</g>
<path d="M42.5002 98C39.5002 102.5 33.5498 106.3 32.5498 105.8L36.0002 95C39.0002 94.5 44.9002 94.4 42.5002 98Z" fill="#515151"/>
<path d="M156 94C159 98.5 162 103 164.5 102.2L161.06 91.2537C158.06 90.7537 153.6 90.4 156 94Z" fill="#515151"/>
<g style="mix-blend-mode:multiply" opacity="0.5">
<path d="M68.4543 73.6891L58.5251 101.775L45.2031 95.3924L58.0666 69.1519L68.4543 73.6891Z" fill="#FFC5B1"/>
</g>
<g style="mix-blend-mode:multiply" opacity="0.5">
<path d="M133.505 104.144L132.405 101.679L131.305 97.2044L103.373 79.4919L92.0722 72.3357L88.7013 73.128L86.5776 76.1797L77.0996 89.1789C77.0996 89.1789 78.7172 93.254 83.9147 92.8175C89.1122 92.3811 93.5027 85.1699 95.3367 84.3152C96.0703 83.9741 100.134 85.4156 105.178 87.5504C112.631 91.6768 127.167 99.772 130.263 101.855C131.582 102.706 132.749 103.772 133.714 105.01C133.699 104.711 133.628 104.417 133.505 104.144Z" fill="#FFC5B1"/>
</g>
<g style="mix-blend-mode:multiply" opacity="0.5">
<path d="M125.314 115.302C122.38 113.244 117.454 109.888 114.937 108.164C110.815 105.34 111.328 101.775 111.328 101.775L124.404 109.984C124.522 110.171 126.004 112.525 125.314 115.302Z" fill="#FFC5B1"/>
</g>
<g style="mix-blend-mode:multiply" opacity="0.5">
<path d="M117.411 123.24C115.324 121.835 111.909 119.528 109.829 118.104C106.675 115.962 106.528 111.847 106.528 111.847L117.859 119.429C117.888 119.502 118.684 121.186 117.411 123.24Z" fill="#FFC5B1"/>
</g>
<g style="mix-blend-mode:multiply" opacity="0.5">
<path d="M109.326 124.52C109.188 125.444 108.836 126.323 108.299 127.087C106.198 125.867 104.165 124.534 102.206 123.097C99.4627 120.965 99.6058 118.746 99.6058 118.746L109.326 124.52Z" fill="#FFC5B1"/>
</g>
<path d="M173.262 83.2552L149.769 91.8492L140.232 95.3411C140.166 95.4218 140.096 95.4988 140.027 95.5758C138.375 97.3885 136.509 98.9935 134.47 100.355C133.248 101.191 132.401 101.665 132.401 101.665L131.741 100.817C131.075 99.9608 130.255 99.2356 129.324 98.6789L125.337 96.3204L117.792 91.7942L116.387 90.9542L115.488 90.415L99.4921 80.805C98.9058 80.4549 98.2091 80.3383 97.5408 80.4785C97.4289 80.5005 97.3186 80.5299 97.2107 80.5666L92.6074 82.1585L92.347 82.2465C92.2571 82.2787 92.169 82.3154 92.0829 82.3565C91.6148 82.5745 91.2189 82.922 90.9421 83.3579C87.4172 88.9258 83.7493 90.6644 80.9946 90.9946C80.665 91.0363 80.333 91.0572 80.0006 91.0569C79.3688 91.0612 78.7386 90.9922 78.1226 90.8515C77.855 90.7892 77.6042 90.6695 77.3874 90.5007C77.1706 90.3319 76.9931 90.1179 76.8672 89.8737C76.7412 89.6295 76.6699 89.3609 76.658 89.0864C76.6462 88.8119 76.6941 88.5381 76.7985 88.2839L81.8016 77.3424C82.2363 76.2459 83.0425 75.3371 84.0794 74.7749L97.6508 67.439C98.5379 66.9588 99.5485 66.7556 100.552 66.8557L124.005 69.2179L131.282 66.5403L140.782 63.0301L162.651 54.9606L171.571 78.7656L173.262 83.2552Z" fill="#FAB29A"/>
<path d="M66.8882 71.2939L52.5502 102.571L42.6137 98.059L32.5342 93.4814L49.4214 62.8796L56.4419 66.2615L66.8882 71.2939Z" fill="#B4D1FA"/>
<g style="mix-blend-mode:multiply" opacity="0.5">
<path d="M98.9021 126.801C97.8017 126.203 96.617 125.473 95.2525 124.641C91.2434 122.187 75.6436 114.488 75.6436 114.488C75.6436 114.488 72.7606 112.104 69.4668 109.441C70.934 109.485 73.9197 110.017 76.9788 113.109L81.0319 111.176C81.0319 111.176 85.4664 111.542 87.161 117.389L91.3461 115.526C92.3006 116.065 93.1114 116.825 93.7102 117.743C94.309 118.661 94.6782 119.71 94.7867 120.8C94.7867 120.8 98.1502 122 98.7114 124.101C98.9574 124.979 99.0223 125.898 98.9021 126.801Z" fill="#E18971"/>
</g>
<path d="M72.6312 116.615C71.8992 116.699 71.1584 116.572 70.4964 116.248C68.0022 115.089 65.6547 110.552 67.5254 109.224C67.5254 109.224 68.5267 108.219 71.1273 109.778C72.6532 110.695 73.6472 111.579 74.2304 112.456C74.6108 112.998 74.8445 113.63 74.909 114.29C75.0007 115.335 74.0617 116.425 72.6312 116.615Z" fill="#FAB29A"/>
<g style="mix-blend-mode:multiply" opacity="0.5">
<path d="M72.6318 116.615C73.0224 115.179 73.5583 113.787 74.2311 112.459C74.6114 113.002 74.8452 113.634 74.9096 114.293C75.0013 115.335 74.0623 116.425 72.6318 116.615Z" fill="#CC8A79"/>
</g>
<path d="M76.832 122.598C76.3007 122.478 75.7983 122.255 75.3542 121.94C74.91 121.625 74.5329 121.224 74.2449 120.762C73.9568 120.3 73.7635 119.785 73.6762 119.248C73.5889 118.71 73.6093 118.161 73.7363 117.631C74.1473 115.825 74.851 114.097 75.8197 112.518C78.0205 109.067 84.5164 110.526 83.8672 116.314L81.373 121.926C81.373 121.926 79.1135 123.096 76.832 122.598Z" fill="#FAB29A"/>
<path d="M91.9985 120.067L88.9908 126.324C88.8257 126.405 85.8693 127.425 83.3715 125.642C83.2101 125.525 83.0597 125.402 82.9203 125.275C80.9689 123.621 81.3724 121.912 81.3724 121.912L83.8666 116.3C83.8666 116.3 85.6566 112.87 88.7634 113.663L88.9578 113.718C92.1819 114.723 92.8018 117.701 91.9985 120.067Z" fill="#FAB29A"/>
<path d="M97.5659 123.463C97.2395 125.099 95.8676 129.281 95.8676 129.281C95.2991 129.824 94.3565 130.414 91.7889 129.483C91.3352 129.321 90.9086 129.093 90.5234 128.804C89.7116 128.205 89.1624 127.315 88.9902 126.321L91.4551 121.186C92.5555 120.239 93.6009 120.027 94.5105 120.21C96.4362 120.606 97.709 122.73 97.5659 123.463Z" fill="#FAB29A"/>
<g style="mix-blend-mode:multiply" opacity="0.5">
<path d="M88.7631 113.677C87.8791 114.334 86.2359 115.878 85.1172 118.845C84.2845 121.065 83.4886 123.485 82.9164 125.29C80.965 123.636 81.3685 121.927 81.3685 121.927L83.8627 116.315C83.8627 116.315 85.6564 112.885 88.7631 113.677Z" fill="#CC8A79"/>
</g>
<g style="mix-blend-mode:multiply" opacity="0.5">
<path d="M94.5105 120.221C93.92 120.731 93.0433 121.798 92.2217 123.973C91.5358 125.807 90.9489 127.516 90.5234 128.808C89.7116 128.208 89.1624 127.319 88.9902 126.324L91.4551 121.189C92.5555 120.25 93.6009 120.037 94.5105 120.221Z" fill="#CC8A79"/>
</g>
<g style="mix-blend-mode:multiply" opacity="0.5">
<path d="M171.575 78.7546C154.292 84.5866 134.316 91.4384 132.526 92.5278C131.186 93.334 129.724 93.9174 128.198 94.2554C126.327 93.0633 123.936 91.5557 121.324 89.9235C125.682 86.4793 125.3 80.9113 125.3 80.9113C123.947 85.1808 121.746 87.5577 119.64 88.8745C110.408 83.1268 99.3236 76.4034 98.5093 76.3631C97.1522 76.3264 91.3165 78.2227 91.3165 78.2227C91.3165 78.2227 90.9497 84.0915 86.1813 87.7594C84.5709 89.0103 82.8367 90.0931 81.0059 90.9909C83.7605 90.6608 87.4285 88.9222 90.9534 83.3542C91.0588 83.1909 91.1818 83.0396 91.3201 82.903C91.3701 82.8514 91.4227 82.8024 91.4779 82.7563L91.5109 82.727L91.6796 82.5949H91.6979L91.8667 82.4849L91.8997 82.4666C91.965 82.4287 92.0324 82.3944 92.1014 82.3638C92.1413 82.3418 92.183 82.3234 92.2261 82.3088L92.3655 82.2538L92.6259 82.1658L97.2292 80.5739L97.3869 80.5262H97.4273L97.5373 80.5005C98.2123 80.3557 98.9171 80.471 99.5107 80.8233L115.507 90.415L117.81 91.7942L125.337 96.3204L129.324 98.7083C130.255 99.265 131.075 99.9901 131.741 100.847L132.401 101.694C132.401 101.694 133.249 101.221 134.47 100.385C136.594 98.9609 138.528 97.2723 140.225 95.3594L173.262 83.2552L171.575 78.7546Z" fill="#CC8A79"/>
</g>
<g style="mix-blend-mode:multiply" opacity="0.5">
<path d="M149.769 91.8493L140.232 95.3412C140.166 95.4219 140.096 95.4989 140.027 95.5759L131.282 66.5404L140.782 63.0302L149.769 91.8493Z" fill="#CC8A79"/>
</g>
<path d="M165.552 89.964L155.788 93.2981L144.748 97.0651L133.513 64.5451L144.513 60.5103L151.713 57.8694L165.552 89.964Z" fill="#B4D1FA"/>
<g style="mix-blend-mode:multiply">
<path d="M165.552 89.964L155.788 93.2981L144.513 60.5103L151.713 57.8694L165.552 89.964Z" fill="#B3B3B3"/>
</g>
<path d="M192 38.5V89.3564L164.301 102.285L160.013 91.8566L158.67 88.5921L156.704 83.8054L153.55 76.1321L152.75 74.1844L147.19 60.6643L146.782 59.6776L146.214 58.2911L167.341 50.5187L192 38.5Z" fill="black"/>
<g style="mix-blend-mode:multiply">
<path d="M56.4419 66.2615L42.6137 98.059L32.5342 93.4814L49.4214 62.8796L56.4419 66.2615Z" fill="#B3B3B3"/>
</g>
<path d="M54.8532 63.8371L54.1526 65.1575L53.1696 67.0135L46.8057 79.0187L45.8227 80.8784L39.5615 92.6892L37.8595 95.8987L32.5777 105.864L14.6707 95.4071L10.4452 92.9386L8.03906 91.5338V38L34.5804 54.0473L54.8532 63.8371Z" fill="black"/>
<circle cx="50.5927" cy="95.8876" r="2.68354" fill="#71A0DD"/>
<circle cx="148.734" cy="90.5207" r="2.68354" fill="#71A0DD"/>
</g>
<path d="M79.8159 29.7233V11.2766H77.193L72.751 17.112L74.4643 19.4628L76.8123 16.3377V29.7233H79.8159Z" fill="#A62E41"/>
<path d="M88.8297 30.0552C92.8487 30.0552 94.6678 25.2707 94.6678 20.5138C94.6678 15.7569 92.8487 11 88.8297 11C84.7896 11 82.9916 15.7569 82.9916 20.5138C82.9916 25.2707 84.7896 30.0552 88.8297 30.0552ZM88.8297 26.5705C86.7991 26.5705 86.0376 23.9155 86.0376 20.5138C86.0376 17.112 86.7991 14.4847 88.8297 14.4847C90.8392 14.4847 91.6007 17.112 91.6007 20.5138C91.6007 23.9155 90.8392 26.5705 88.8297 26.5705Z" fill="#A62E41"/>
<path d="M103.004 30.0552C107.023 30.0552 108.843 25.2707 108.843 20.5138C108.843 15.7569 107.023 11 103.004 11C98.9643 11 97.1663 15.7569 97.1663 20.5138C97.1663 25.2707 98.9643 30.0552 103.004 30.0552ZM103.004 26.5705C100.974 26.5705 100.212 23.9155 100.212 20.5138C100.212 17.112 100.974 14.4847 103.004 14.4847C105.014 14.4847 105.775 17.112 105.775 20.5138C105.775 23.9155 105.014 26.5705 103.004 26.5705Z" fill="#A62E41"/>
<path d="M114.747 20.1819C116.925 20.1819 118.343 18.2183 118.343 15.6463C118.343 13.0466 116.925 11 114.747 11C112.589 11 111.172 13.0466 111.172 15.6463C111.172 18.2183 112.589 20.1819 114.747 20.1819ZM114.958 29.7233L123.99 11.2766H122.383L113.372 29.7233H114.958ZM122.51 30.0552C124.667 30.0552 126.106 28.0639 126.106 25.4919C126.106 22.8922 124.667 20.8456 122.51 20.8456C120.352 20.8456 118.935 22.8922 118.935 25.4919C118.935 28.0639 120.352 30.0552 122.51 30.0552ZM114.747 18.0247C113.795 18.0247 113.076 17.0844 113.076 15.6463C113.076 14.0975 113.795 13.1848 114.747 13.1848C115.72 13.1848 116.418 14.0975 116.418 15.6463C116.418 17.0844 115.72 18.0247 114.747 18.0247ZM122.51 27.898C121.537 27.898 120.839 26.9853 120.839 25.4919C120.839 23.9708 121.537 23.0305 122.51 23.0305C123.483 23.0305 124.202 23.9708 124.202 25.4919C124.202 26.9853 123.483 27.898 122.51 27.898Z" fill="#A62E41"/>
<path d="M73.7093 47.2356L70.1367 41.3699L73.4821 36.1836H71.2729L68.2936 41.1214V36.1836H66.501V47.2356H68.2936V43.8388L68.9501 42.8115L71.5001 47.2356H73.7093Z" fill="#A62E41"/>
<path d="M83.01 47.2356L79.7657 36.1836H77.5186L74.2615 47.2356H76.3066L76.8369 45.3632H80.4474L80.9649 47.2356H83.01ZM79.955 43.292H77.3292L78.6421 38.5365L79.955 43.292Z" fill="#A62E41"/>
<path d="M85.1958 36.1836H83.3905V39.2821C83.3905 41.7345 84.3752 43.3583 86.5213 43.3583C87.1652 43.3583 87.7964 43.2092 88.3392 42.9938V47.2356H90.1318V36.1836H88.3392V40.9226C87.8974 41.1545 87.3419 41.2871 86.7359 41.2871C85.7639 41.2871 85.1958 40.7237 85.1958 39.2821V36.1836Z" fill="#A62E41"/>
<path d="M98.3932 47.2356V45.1644H94.2273V42.6624H98.3048V40.5912H94.2273V38.2548H98.3932V36.1836H92.4346V47.2356H98.3932Z" fill="#A62E41"/>
<path d="M104.503 47.4345C106.359 47.4345 107.42 46.0923 108.025 44.717L106.485 43.7394C106.132 44.6507 105.374 45.3467 104.503 45.3467C102.976 45.3467 101.865 43.8057 101.865 41.7179C101.865 39.6301 102.976 38.0891 104.503 38.0891C105.374 38.0891 106.132 38.8016 106.485 39.6964L108.025 38.7022C107.432 37.3269 106.359 36.0013 104.503 36.0013C101.979 36.0013 100.022 38.3211 100.022 41.7179C100.022 45.1147 101.979 47.4345 104.503 47.4345Z" fill="#A62E41"/>
<path d="M113.473 47.2356V38.2548H115.922V36.1836H109.206V38.2548H111.668V47.2356H113.473Z" fill="#A62E41"/>
<path d="M122.272 47.2356C123.876 47.2356 124.722 45.91 124.722 44.2531C124.722 42.8612 124.002 41.7179 123.106 41.5356C123.901 41.3202 124.557 40.3923 124.557 39.0005C124.557 37.5258 123.737 36.1836 122.134 36.1836H117.703V47.2356H122.272ZM121.742 40.6077H119.495V38.2051H121.742C122.348 38.2051 122.727 38.7188 122.727 39.4147C122.727 40.1106 122.348 40.6077 121.742 40.6077ZM121.805 45.1975H119.495V42.6292H121.805C122.512 42.6292 122.891 43.2257 122.891 43.9217C122.891 44.717 122.487 45.1975 121.805 45.1975Z" fill="#A62E41"/>
<path d="M130.694 47.4345C133.244 47.4345 135.1 45.0484 135.1 41.7179C135.1 38.3874 133.244 36.0013 130.694 36.0013C128.156 36.0013 126.301 38.3874 126.301 41.7179C126.301 45.0484 128.156 47.4345 130.694 47.4345ZM130.694 45.3467C129.141 45.3467 128.144 43.7725 128.144 41.7179C128.144 39.6467 129.141 38.0891 130.694 38.0891C132.247 38.0891 133.257 39.6467 133.257 41.7179C133.257 43.7725 132.247 45.3467 130.694 45.3467Z" fill="#A62E41"/>
<path d="M80.9873 57.2211H119.098" stroke="#F5F9FF" stroke-width="0.5"/>
<path d="M88.6113 64.8435H111.478" stroke="#F5F9FF" stroke-width="0.5"/>
<rect x="16" y="98" width="8" height="60" transform="rotate(-180 16 98)" fill="url(#paint0_linear)"/>
<rect x="184" y="36" width="8" height="60" fill="url(#paint1_linear)"/>
</g>
<defs>
<filter id="filter0_d" x="6.03906" y="37" width="187.961" height="96" filterUnits="userSpaceOnUse" color-interpolation-filters="sRGB">
<feFlood flood-opacity="0" result="BackgroundImageFix"/>
<feColorMatrix in="SourceAlpha" type="matrix" values="0 0 0 0 0 0 0 0 0 0 0 0 0 0 0 0 0 0 127 0"/>
<feOffset dy="1"/>
<feGaussianBlur stdDeviation="1"/>
<feColorMatrix type="matrix" values="0 0 0 0 0 0 0 0 0 0 0 0 0 0 0 0 0 0 0.15 0"/>
<feBlend mode="normal" in2="BackgroundImageFix" result="effect1_dropShadow"/>
<feBlend mode="normal" in="SourceGraphic" in2="effect1_dropShadow" result="shape"/>
</filter>
<linearGradient id="paint0_linear" x1="16" y1="123.286" x2="24" y2="123.286" gradientUnits="userSpaceOnUse">
<stop stop-color="#F5F9FF" stop-opacity="0"/>
<stop offset="1" stop-color="#F5F9FF"/>
</linearGradient>
<linearGradient id="paint1_linear" x1="184" y1="61.2857" x2="192" y2="61.2857" gradientUnits="userSpaceOnUse">
<stop stop-color="#F5F9FF" stop-opacity="0"/>
<stop offset="1" stop-color="#F5F9FF"/>
</linearGradient>
<clipPath id="clip0">
<rect width="200" height="130" fill="white"/>
</clipPath>
</defs>
</svg>
