<svg width="24" height="24" viewBox="0 0 24 24" fill="none" xmlns="http://www.w3.org/2000/svg">
<path fill-rule="evenodd" clip-rule="evenodd" d="M7 4.59374C7 3.71354 7.7558 3 8.68812 3H14.3152C15.2475 3 16.0033 3.71354 16.0033 4.59374V18.4062C16.0033 19.2864 15.2475 19.9999 14.3152 19.9999H8.68812C7.7558 19.9999 7 19.2864 7 18.4062V4.59374ZM14.3152 3.79687H8.68812C8.22196 3.79687 7.84406 4.15364 7.84406 4.59374V18.0055C7.84406 18.116 7.9336 18.2055 8.04406 18.2055H14.9592C15.0697 18.2055 15.1592 18.116 15.1592 18.0055V4.59374C15.1592 4.15364 14.7813 3.79687 14.3152 3.79687Z" fill="#A62E41"/>
<path d="M9.25 3.76691C9.25 3.44925 9.50193 3 9.81271 3H13.1889C13.4997 3 13.7517 3.44925 13.7517 3.76691C13.7517 4.08458 13.4997 4.3421 13.1889 4.3421H9.81271C9.50193 4.3421 9.25 4.08458 9.25 3.76691Z" fill="#A62E41"/>
<path d="M11.0767 19.0083C11.0767 18.7737 11.2681 18.5835 11.5042 18.5835V18.5835C11.7403 18.5835 11.9317 18.7737 11.9317 19.0083V19.0083C11.9317 19.243 11.7403 19.4332 11.5042 19.4332V19.4332C11.2681 19.4332 11.0767 19.243 11.0767 19.0083V19.0083Z" fill="white"/>
</svg>
