<svg width="26" height="26" viewBox="0 0 26 26" fill="none" xmlns="http://www.w3.org/2000/svg">
<path fill-rule="evenodd" clip-rule="evenodd" d="M5.8623 3.41968C5.8623 2.12987 6.97036 1.08337 8.33638 1.08337H16.5838C17.9513 1.08337 19.0579 2.12987 19.0579 3.41968V23.6637C19.0579 24.9535 17.9513 26 16.5838 26H8.33638C6.97036 26 5.8623 24.9535 5.8623 23.6637V3.41968ZM16.5838 2.25153H8.33638C7.65337 2.25153 7.09934 2.77478 7.09934 3.41968V23.0775C7.09934 23.2387 7.23126 23.3706 7.39248 23.3706H17.5277C17.6054 23.3706 17.68 23.3397 17.735 23.2847C17.79 23.2298 17.8208 23.1552 17.8208 23.0775V3.41968C17.8208 2.77478 17.2668 2.25153 16.5838 2.25153V2.25153Z" fill="#A62E41"/>
<path d="M9.1602 2.20756C9.1602 1.74147 9.52956 1.08337 9.98538 1.08337H14.9335C15.3879 1.08337 15.7587 1.74293 15.7587 2.20756C15.7607 2.42863 15.6749 2.64146 15.5203 2.79943C15.3656 2.9574 15.1546 3.04762 14.9335 3.05033H9.98538C9.87586 3.04918 9.76764 3.02647 9.6669 2.98349C9.56615 2.94051 9.47486 2.87811 9.39824 2.79985C9.32161 2.72159 9.26115 2.62901 9.22031 2.52738C9.17947 2.42575 9.15904 2.31708 9.1602 2.20756V2.20756Z" fill="#A62E41"/>
<path d="M11.8379 24.546C11.8379 24.203 12.1178 23.9246 12.4637 23.9246C12.8096 23.9246 13.0911 24.203 13.0911 24.546C13.0909 24.6281 13.0745 24.7094 13.0428 24.7852C13.0112 24.861 12.9649 24.9297 12.9066 24.9876C12.8484 25.0455 12.7792 25.0913 12.7032 25.1224C12.6272 25.1535 12.5459 25.1693 12.4637 25.1689C12.3817 25.1691 12.3005 25.1532 12.2247 25.122C12.1489 25.0908 12.0799 25.0449 12.0218 24.9871C11.9637 24.9292 11.9175 24.8605 11.886 24.7848C11.8544 24.7092 11.8381 24.628 11.8379 24.546V24.546Z" fill="white"/>
</svg>
