<svg width="32" height="99" fill="none" xmlns="http://www.w3.org/2000/svg"><g filter="url(#filter0_f)"><path d="M18.734 19.088C29.118 12.265 29.384 4.873 28.22 2.03c-.798 6.823-4.659 11.54-6.49 13.044 0 0-8.486 6.522-9.984 8.027-1.497 1.505-4.293 3.211-7.488 10.034-3.195 6.823-1.664 10.034 0 12.04 2.497 3.01 14.278 7.727 17.473 10.536 3.194 2.81 3.328 8.529 2.995 11.037-.998 4.014-1.598 4.114-7.988 12.542-6.39 8.429-5.99 15.218-4.992 17.56-.4-4.817 3.828-12.041 5.99-15.051 1.998-2.509 6.59-8.128 8.987-10.536 2.995-3.01 3.311-8.528 2.496-12.04-.816-3.512-4.493-8.529-11.482-11.037-6.99-2.509-8.653-6.355-9.485-8.529-.832-4.013.1-13.746 10.483-20.57z" fill="url(#paint0_linear)"/></g><defs><linearGradient id="paint0_linear" x1="22.728" y1="49.189" x2="-4.597" y2="49.189" gradientUnits="userSpaceOnUse"><stop stop-color="#FFF6EB"/><stop offset="1" stop-color="#E0E0E0" stop-opacity="0"/></linearGradient><filter id="filter0_f" x=".392" y=".03" width="31.213" height="98.819" filterUnits="userSpaceOnUse" color-interpolation-filters="sRGB"><feFlood flood-opacity="0" result="BackgroundImageFix"/><feBlend in="SourceGraphic" in2="BackgroundImageFix" result="shape"/><feGaussianBlur stdDeviation="1" result="effect1_foregroundBlur"/></filter></defs></svg>