<svg width="24" height="24" viewBox="0 0 24 24" fill="none" xmlns="http://www.w3.org/2000/svg">
<g filter="url(#filter0_i)">
<rect width="24" height="24" rx="5" fill="#A62E41"/>
<path fill-rule="evenodd" clip-rule="evenodd" d="M14.4144 5.20321H9.48025C9.07149 5.20321 8.74012 5.51801 8.74012 5.90633V18.0937C8.74012 18.482 9.07149 18.7968 9.48025 18.7968H14.4144C14.8232 18.7968 15.1545 18.482 15.1545 18.0937V5.90633C15.1545 5.51801 14.8232 5.20321 14.4144 5.20321ZM9.48025 4.50009C8.66273 4.50009 8 5.12969 8 5.90633V18.0937C8 18.8704 8.66273 19.4999 9.48025 19.4999H14.4144C15.2319 19.4999 15.8947 18.8704 15.8947 18.0937V5.90633C15.8947 5.12969 15.2319 4.50009 14.4144 4.50009H9.48025Z" fill="white"/>
<path d="M9.97339 5.17669C9.97339 4.89639 10.1943 4.5 10.4668 4.5H13.4273C13.6998 4.5 13.9207 4.89639 13.9207 5.17669C13.9207 5.45698 13.6998 5.6842 13.4273 5.6842H10.4668C10.1943 5.6842 9.97339 5.45698 9.97339 5.17669Z" fill="white"/>
<path d="M11.4529 17.378C11.4529 17.1328 11.6738 16.934 11.9463 16.934C12.2188 16.934 12.4397 17.1328 12.4397 17.378C12.4397 17.6233 12.2188 17.8221 11.9463 17.8221C11.6738 17.8221 11.4529 17.6233 11.4529 17.378Z" fill="white"/>
</g>
<defs>
<filter id="filter0_i" x="-4" y="-4" width="28" height="28" filterUnits="userSpaceOnUse" color-interpolation-filters="sRGB">
<feFlood flood-opacity="0" result="BackgroundImageFix"/>
<feBlend mode="normal" in="SourceGraphic" in2="BackgroundImageFix" result="shape"/>
<feColorMatrix in="SourceAlpha" type="matrix" values="0 0 0 0 0 0 0 0 0 0 0 0 0 0 0 0 0 0 127 0" result="hardAlpha"/>
<feOffset dx="-4" dy="-4"/>
<feGaussianBlur stdDeviation="4"/>
<feComposite in2="hardAlpha" operator="arithmetic" k2="-1" k3="1"/>
<feColorMatrix type="matrix" values="0 0 0 0 0 0 0 0 0 0 0 0 0 0 0 0 0 0 0.15 0"/>
<feBlend mode="normal" in2="shape" result="effect1_innerShadow"/>
</filter>
</defs>
</svg>
