<svg width="24" height="24" fill="none" xmlns="http://www.w3.org/2000/svg"><path d="M16.733 12c-.733 0-2.2 1.466-5.133 1.466S7.2 12 6.467 12A1.47 1.47 0 005 13.466c0 .734.44 1.1.733 1.247.88.514 3.667 1.687 3.667 1.687l-3.153 3.96s-.587.66-.587 1.173c0 .807.66 1.467 1.467 1.467.733 0 1.1-.514 1.1-.514L11.6 18.6l3.3 3.886S15.267 23 16 23c.807 0 1.467-.66 1.467-1.467 0-.44-.587-1.173-.587-1.173L13.8 16.4s2.787-1.173 3.667-1.687c.293-.22.733-.513.733-1.246 0-.807-.66-1.467-1.467-1.467zM11.604 1a5.102 5.102 0 00-5.133 5.134 5.102 5.102 0 005.133 5.133 5.102 5.102 0 005.133-5.133A5.102 5.102 0 0011.604 1zm0 7.7c-1.393 0-2.567-1.173-2.567-2.566 0-1.394 1.174-2.567 2.567-2.567 1.393 0 2.567 1.173 2.567 2.567 0 1.393-1.174 2.566-2.567 2.566z" fill="#4A4B4D"/></svg>