<svg width="30" height="30" viewBox="0 0 30 30" fill="none" xmlns="http://www.w3.org/2000/svg">
<path d="M20.0292 21.2833C19.3129 20.4424 18.0506 20.3415 17.2098 21.0578C16.755 21.4452 16.5167 21.9922 16.507 22.5459L16.9843 23.8772C17.7006 24.718 18.9629 24.819 19.8037 24.1027C20.6445 23.3864 20.7455 22.1241 20.0292 21.2833Z" fill="#C43B55"/>
<path d="M16.6249 10.2654C17.2807 9.37664 17.0918 8.12447 16.203 7.46864C15.7224 7.11397 15.1355 7.00633 14.594 7.12284L13.4062 7.89045C12.7504 8.77925 12.9393 10.0314 13.8281 10.6872C14.7168 11.3431 15.969 11.1542 16.6249 10.2654Z" fill="#C43B55"/>
<path d="M11.6053 14.7855C12.2612 13.8967 12.0723 12.6445 11.1835 11.9887C10.7029 11.634 10.1159 11.5263 9.57451 11.6429L8.38671 12.4105C7.73088 13.2993 7.91973 14.5514 8.80852 15.2073C9.69732 15.8631 10.9495 15.6742 11.6053 14.7855Z" fill="#C43B55"/>
<path d="M29 15.4998C29 22.1272 23.6274 27.9998 17 27.9998C15.8333 27.9998 14 27.4998 13.5 26.9998C12.7345 26.2343 15.6777 20.9493 8 18.9998C7 18.6664 5 17.4998 5 15.4998C5 8.87234 10.3726 3.49976 17 3.49976C21.3375 3.49976 25.1375 5.80104 27.2456 9.24925" stroke="black" stroke-linecap="round" stroke-linejoin="round"/>
<path d="M7.5 7.0001C7.5 -0.999845 4.5 -1.00022 4.5 7.0001V18.9998H7.5V7.0001Z" fill="#C43B55"/>
<path d="M4.5 7.00008C4.5 -1.00024 7.5 -0.999864 7.5 7.00008V18.9998M4.5 18.9998V22.0001L7.5 22.0002V18.9998M4.5 18.9998H7.5M4.5 18.9998V9.49976" stroke="black" stroke-linecap="round"/>
<path d="M3.5 26.4999C3.5 22.9998 4 22.4998 5.99981 22.4999L7.5 22.4998C11.5 26.9998 6 29.9998 1 28.9998C3 28.9998 3.50019 27.4998 3.5 26.4999Z" fill="#C43B55"/>
<path d="M5.90274 28.973C4.48785 29.5182 2.71397 29.6638 1 29.2982C2.96117 29.2982 3.45165 27.7293 3.45146 26.6836C3.45146 23.0227 3.94176 22.4998 5.90274 22.4999L5.99046 22.4999C7.17766 22.4998 8.42448 22.983 8.81093 24.1056C9.35828 25.6955 8.64532 27.0281 7.59418 27.9711" stroke="black" stroke-linecap="round" stroke-linejoin="round"/>
<path d="M15 10.9998C16.1046 10.9998 17 10.1043 17 8.99976C17 7.89519 16.1046 6.99976 15 6.99976C13.8954 6.99976 13 7.89519 13 8.99976C13 9.50698 13.1888 9.9701 13.5 10.3227" stroke="black" stroke-linecap="round"/>
<path d="M20.068 11.5174C20.3539 12.5844 21.4506 13.2175 22.5175 12.9316C23.0945 12.777 23.5446 12.3853 23.7911 11.8894L23.9317 10.4821C23.6458 9.41521 22.5491 8.78205 21.4822 9.06793C20.4153 9.35381 19.7821 10.4505 20.068 11.5174Z" fill="#C43B55"/>
<path d="M22.5155 15.6809C21.5388 16.1969 21.1654 17.4069 21.6813 18.3836C21.9604 18.9117 22.4424 19.2635 22.9807 19.3936L24.384 19.2177C25.3606 18.7017 25.7341 17.4917 25.2181 16.5151C24.7021 15.5384 23.4921 15.165 22.5155 15.6809Z" fill="#C43B55"/>
<path d="M22 8.99976C20.8954 8.99976 20 9.89519 20 10.9998C20 12.1043 20.8954 12.9998 22 12.9998C23.1046 12.9998 24 12.1043 24 10.9998C24 10.4024 23.7381 9.86623 23.3229 9.49976" stroke="black" stroke-linecap="round"/>
<path d="M25.5 17.4998C25.5 16.3952 24.6046 15.4998 23.5 15.4998C22.3954 15.4998 21.5 16.3952 21.5 17.4998C21.5 18.6043 22.3954 19.4998 23.5 19.4998C24.0072 19.4998 24.4703 19.3109 24.8229 18.9998" stroke="black" stroke-linecap="round"/>
<path d="M18.5 24.4998C17.3954 24.4998 16.5 23.6043 16.5 22.4998C16.5 21.3952 17.3954 20.4998 18.5 20.4998C19.6046 20.4998 20.5 21.3952 20.5 22.4998C20.5 22.864 20.4026 23.2056 20.2324 23.4998" stroke="black" stroke-linecap="round"/>
<path d="M10 15.4998C8.89543 15.4998 8 14.6043 8 13.4998C8 12.3952 8.89543 11.4998 10 11.4998C11.1046 11.4998 12 12.3952 12 13.4998C12 13.9013 11.8817 14.2752 11.6779 14.5885" stroke="black" stroke-linecap="round"/>
</svg>
