<svg width="260" height="175" viewBox="0 0 260 175" fill="none" xmlns="http://www.w3.org/2000/svg">
<path d="M159.968 115.111C153.666 95.8829 119.169 84.6803 81.4966 84.6803C48.771 84.6803 9.33564 95.8745 3.02498 115.111C-4.45801 138.018 29.7725 164.62 81.4966 164.62C133.221 164.62 167.485 138.018 159.968 115.111Z" fill="url(#paint0_radial)"/>
<path d="M81.4963 162.731C40.0073 162.731 12.5862 146.328 4.65427 131.087C1.97703 125.929 1.41164 120.871 2.99139 116.039C5.80998 107.445 15.3716 99.4611 29.9052 93.5588C44.4388 87.6566 62.847 84.3627 81.4963 84.3627C100.146 84.3627 118.471 87.6315 133.087 93.5588C147.704 99.4862 157.199 107.445 160.01 116.039C161.581 120.846 161.024 125.904 158.347 131.087C150.415 146.328 122.985 162.731 81.4963 162.731Z" fill="url(#paint1_linear)"/>
<path d="M81.4966 160.975C41.3878 160.975 14.873 145.091 7.20711 130.377C4.62132 125.361 4.07257 120.504 5.60242 115.855C8.32124 107.545 17.5669 99.8289 31.6183 94.1189C45.6697 88.409 63.4709 85.2238 81.5049 85.2238C99.5389 85.2238 117.257 88.3839 131.392 94.1189C145.526 99.854 154.672 107.495 157.416 115.855C158.937 120.504 158.397 125.386 155.803 130.377C148.128 145.116 121.614 160.975 81.4966 160.975Z" fill="url(#paint2_radial)"/>
<g filter="url(#filter0_f)">
<path d="M4.29969 117.49C2.72748 122.145 3.29142 127.009 5.94879 132.033C13.8269 146.769 41.0756 162.677 82.2948 162.677C123.522 162.677 150.771 146.794 158.658 132.033C161.324 127.035 161.879 122.145 160.316 117.49" stroke="white" stroke-width="2"/>
</g>
<path opacity="0.22" d="M130.07 119.843C126.187 110.279 104.677 103.583 81.4969 103.583C58.3162 103.583 36.8068 110.271 32.9322 119.843C28.3094 131.23 49.6359 144.48 81.4969 144.48C113.358 144.48 134.693 131.23 130.07 119.843Z" fill="url(#paint3_linear)"/>
<g style="mix-blend-mode:multiply" opacity="0.34">
<g filter="url(#filter1_f)">
<path d="M151.072 138.21C143.755 141.22 124.466 132.776 115.735 128.178L119.061 123.58L158.555 130.268C159.109 131.662 158.388 135.201 151.072 138.21Z" fill="#341E01" fill-opacity="0.6"/>
</g>
</g>
<g style="mix-blend-mode:multiply" opacity="0.34">
<g filter="url(#filter2_f)">
<path d="M153.982 109.368C171.442 120.654 94.118 136.12 92.4551 136.12L111.578 89.3035L142.342 91.3935L156.476 101.008L153.982 109.368Z" fill="#2B1800" fill-opacity="0.7"/>
</g>
</g>
<path style="mix-blend-mode:multiply" d="M80.6818 150.516C108.307 150.516 130.701 138.206 130.701 123.02C130.701 107.834 108.307 95.5234 80.6818 95.5234C53.0567 95.5234 30.6621 107.834 30.6621 123.02C30.6621 138.206 53.0567 150.516 80.6818 150.516Z" fill="url(#paint4_radial)"/>
<path d="M140.396 66.7312C140.396 66.7312 140.396 85.2991 136.297 100.423C136.297 100.423 126.719 117.837 113.956 127.008C113.956 127.008 101.95 136.94 80.6987 136.94C68.8852 136.972 57.3218 133.519 47.4409 127.008C34.6783 117.812 25.1084 100.423 25.1084 100.423C20.9678 85.2573 20.9678 66.7312 20.9678 66.7312" fill="url(#paint5_radial)"/>
<path style="mix-blend-mode:multiply" d="M131.899 107.411C131.899 107.411 121.148 111.157 119.718 112.871C119.718 112.871 116.392 120.186 115.702 125.637C122.47 120.236 128.207 112.829 131.899 107.411Z" fill="url(#paint6_linear)"/>
<path d="M80.6821 118.564C105.975 118.564 128.39 111.282 136.297 100.381C140.396 85.2489 140.396 66.7312 140.396 66.7312H20.9678C20.9678 66.7312 20.9678 85.2907 25.0668 100.414C32.6662 111.274 55.3895 118.564 80.6821 118.564Z" fill="url(#paint7_linear)"/>
<path style="mix-blend-mode:multiply" opacity="0.3" d="M132.83 87.1299C132.83 87.1299 131.467 80.517 119.46 80.3665C107.454 80.216 103.979 90.3067 103.979 98.4997C103.979 105.932 105.758 117.912 115.902 119.475C126.046 121.039 136.148 110.053 131.525 108.206C130.202 107.739 128.784 107.617 127.401 107.849C126.019 108.081 124.717 108.661 123.618 109.535C121.173 111.667 114.106 115.889 114.106 100.749C114.106 93.1157 117.207 89.0444 120.167 89.1363C122.47 89.2199 124.69 91.8199 125.281 97.2289C125.281 97.2289 129.138 99.5781 131.525 96.6019C133.911 93.6257 132.83 87.1299 132.83 87.1299Z" fill="url(#paint8_linear)"/>
<path style="mix-blend-mode:multiply" opacity="0.4" d="M125.622 94.8463C123.126 99.5996 121.336 104.695 120.309 109.97C124.107 108.453 127.78 106.636 131.292 104.536C132.513 102.645 133.548 100.641 134.385 98.5499C135.275 95.4566 125.622 94.8463 125.622 94.8463Z" fill="url(#paint9_linear)"/>
<path d="M80.6816 89.3788C113.661 89.3788 140.396 79.2204 140.396 66.6894C140.396 54.1584 113.661 44 80.6816 44C47.7023 44 20.9673 54.1584 20.9673 66.6894C20.9673 79.2204 47.7023 89.3788 80.6816 89.3788Z" fill="url(#paint10_linear)"/>
<path d="M80.6822 87.4719C111.563 87.4719 136.597 77.9611 136.597 66.2288C136.597 54.4966 111.563 44.9857 80.6822 44.9857C49.8014 44.9857 24.7676 54.4966 24.7676 66.2288C24.7676 77.9611 49.8014 87.4719 80.6822 87.4719Z" fill="url(#paint11_linear)"/>
<path d="M127.326 102.354C126.519 102.072 125.831 101.521 125.378 100.793C124.924 100.065 124.731 99.2026 124.832 98.3492C125.27 94.488 127.177 90.9469 130.153 88.4675C132.813 86.1434 137.503 84.7222 142.674 84.7222C155.437 84.7222 167.418 94.4534 167.418 108.799C167.418 118.639 160.052 125.286 155.928 127.71C153.483 129.156 149.276 130.218 144.595 130.218C131.758 130.218 123.626 120.888 120.483 116.407C119.976 115.697 119.716 114.838 119.744 113.964C119.773 113.09 120.088 112.25 120.641 111.575C121.734 110.252 123.001 109.085 124.408 108.105C126.607 106.511 129.325 105.812 132.015 106.149C132.015 106.149 134.385 113.122 140.604 115.195C148.919 117.979 154.007 115.195 154.007 115.195C154.007 115.195 157.599 100.983 143.198 97.6386C132.905 95.2559 135.491 104.962 127.401 102.437L127.326 102.354Z" fill="url(#paint12_linear)"/>
<g filter="url(#filter3_f)">
<path d="M145.668 130.268C135.69 131.271 125.713 122.605 121.972 118.146C125.63 121.824 131.012 125.38 137.769 125.252C144.448 125.126 149.825 123.58 153.982 115.638C154.912 113.862 158.694 121.908 160.218 123.998C159.525 125.67 155.645 129.265 145.668 130.268Z" fill="url(#paint13_linear)"/>
</g>
<g filter="url(#filter4_f)">
<path d="M125.869 100.793C126.322 101.521 127.01 102.072 127.817 102.354L127.892 102.437C128.638 102.848 130.907 102.608 131.948 102.437L130.644 88.4675C127.668 90.947 125.761 94.488 125.323 98.3492C125.222 99.2026 125.415 100.065 125.869 100.793Z" fill="url(#paint14_linear)" fill-opacity="0.28"/>
</g>
<path d="M153.982 115.078C153.982 115.078 154.065 114.593 154.14 113.723C154.243 112.539 154.243 111.347 154.14 110.162C153.999 108.506 153.586 106.884 152.918 105.363C152.543 104.515 152.069 103.715 151.504 102.981C150.938 102.215 150.273 101.529 149.525 100.941C148.038 99.7617 146.347 98.8689 144.537 98.3074C143.705 98.0377 142.858 97.8171 142.001 97.647C141.241 97.4903 140.465 97.4201 139.689 97.438C138.515 97.4429 137.364 97.7726 136.364 98.391C136.006 98.6167 135.732 98.8174 135.532 98.9595L135.258 99.1852L135.499 98.9261C135.735 98.6857 135.988 98.4622 136.256 98.2572C137.236 97.5073 138.411 97.06 139.64 96.9698C140.455 96.9043 141.274 96.9296 142.084 97.045C142.981 97.1636 143.868 97.3508 144.736 97.6052C145.671 97.8764 146.581 98.2288 147.455 98.6585C148.369 99.1172 149.228 99.6781 150.016 100.331C151.575 101.601 152.79 103.245 153.55 105.113C154.186 106.727 154.532 108.442 154.572 110.179C154.607 111.389 154.515 112.599 154.298 113.79C154.22 114.226 154.114 114.656 153.982 115.078Z" fill="white"/>
<path d="M153.982 115.078C153.982 115.078 148.893 117.895 140.579 115.078C134.36 113.004 131.99 106.032 131.99 106.032C129.299 105.695 126.581 106.394 124.382 107.988C122.828 109.071 121.445 110.384 120.283 111.884C122.262 116.173 125.862 121.03 131.516 123.17C145.251 128.412 153.042 119.015 153.982 115.078Z" fill="url(#paint15_linear)"/>
<path d="M120.309 111.918C120.309 111.918 120.616 112.52 121.215 113.531C121.514 114.033 121.897 114.643 122.371 115.303C122.844 115.964 123.41 116.691 124.033 117.452C124.74 118.259 125.508 119.011 126.328 119.701C127.24 120.466 128.22 121.146 129.255 121.732C129.524 121.892 129.802 122.037 130.086 122.167C130.357 122.312 130.634 122.443 130.918 122.56C131.209 122.669 131.516 122.819 131.791 122.903L132.73 123.195C133.977 123.61 135.257 123.918 136.555 124.115L138.517 124.316C139.166 124.316 139.823 124.316 140.463 124.316C141.103 124.316 141.743 124.157 142.375 124.09C143.007 124.023 143.589 123.789 144.196 123.655C144.803 123.521 145.335 123.229 145.859 123.037C146.383 122.844 146.923 122.535 147.422 122.267C147.921 122 148.386 121.691 148.819 121.381C149.251 121.072 149.65 120.763 150.041 120.428C150.721 119.832 151.358 119.186 151.945 118.497C152.194 118.171 152.444 117.878 152.643 117.594L153.167 116.758C153.389 116.364 153.586 115.956 153.758 115.538L153.924 115.078L153.799 115.546C153.672 115.988 153.508 116.419 153.309 116.833L152.835 117.669C152.652 117.979 152.419 118.288 152.194 118.639C151.645 119.389 151.03 120.089 150.357 120.729C149.991 121.089 149.526 121.406 149.135 121.766C148.744 122.125 148.212 122.401 147.73 122.744C147.247 123.087 146.682 123.312 146.142 123.58C145.601 123.848 144.978 124.048 144.371 124.257C143.764 124.466 143.123 124.608 142.475 124.742C141.826 124.876 141.161 124.951 140.488 125.01C139.814 125.068 139.132 125.06 138.451 125.051L136.405 124.876C135.067 124.647 133.749 124.312 132.464 123.873L131.525 123.563C131.176 123.455 130.901 123.304 130.585 123.179C130.269 123.053 129.987 122.903 129.696 122.761C129.405 122.619 129.122 122.46 128.864 122.293C126.857 121.09 125.085 119.529 123.634 117.686C122.616 116.389 121.735 114.988 121.007 113.506C120.741 112.979 120.55 112.553 120.433 112.26L120.309 111.918Z" fill="white"/>
<path style="mix-blend-mode:screen" d="M104.004 114.275C106.842 113.774 109.558 113.183 112.152 112.503L113.274 87.1299L104.644 89.2534L104.004 114.275Z" fill="url(#paint16_linear)"/>
<path style="mix-blend-mode:screen" d="M100.479 114.852L102.449 114.543L103.547 89.3787L101.052 89.9806L100.479 114.852Z" fill="url(#paint17_linear)"/>
<g filter="url(#filter5_f)">
<ellipse cx="81.6463" cy="65.059" rx="56.9539" ry="20.9003" fill="white"/>
</g>
<ellipse cx="81.6463" cy="65.8952" rx="56.9539" ry="20.9003" fill="#9C6720"/>
<g filter="url(#filter6_f)">
<ellipse cx="81.6463" cy="65.8951" rx="52.7967" ry="19.2283" fill="#E4AA60"/>
</g>
<g filter="url(#filter7_f)">
<ellipse cx="81.6459" cy="65.8952" rx="43.6508" ry="15.0482" fill="#F1C998"/>
</g>
<g filter="url(#filter8_f)">
<ellipse cx="81.6463" cy="65.8951" rx="36.1678" ry="10.8682" fill="#FFE0BA"/>
</g>
<g filter="url(#filter9_f)">
<path d="M143.173 84.7054C155.936 84.7054 167.501 94.8547 167.501 109.201C167.501 119.041 160.6 124.918 156.476 127.342" stroke="url(#paint18_linear)" stroke-opacity="0.5"/>
</g>
<g filter="url(#filter10_f)">
<path d="M139.964 66.7311C139.964 79.2621 113.229 89.4205 80.2494 89.4205C47.2701 89.4205 20.5352 79.2621 20.5352 66.7311" stroke="white" stroke-width="2"/>
</g>
<g filter="url(#filter11_d)">
<path fill-rule="evenodd" clip-rule="evenodd" d="M156.289 22.0514L245.574 30.2534C248.422 30.5174 250.665 33.4781 249.877 36.2277L235.49 86.2395C234.701 88.9891 232.352 90.9979 229.531 90.5386L179.863 82.4543L164.46 93.475L168.073 80.5353L155.961 78.5638C153.116 78.1007 151.739 75.4417 151.657 72.5944L150.35 26.3488C150.246 23.4928 153.441 21.7874 156.289 22.0514Z" fill="url(#paint19_linear)"/>
</g>
<path d="M175.034 57.3223C171.534 56.9952 168.595 55.9399 166.216 54.1562C166.285 53.4159 166.664 52.2634 167.354 50.6985C168.107 51.7193 169.163 52.5817 170.523 53.2858C171.92 53.9594 173.442 54.3733 175.091 54.5273C177.245 54.7286 178.954 54.4131 180.22 53.581C181.523 52.7184 182.254 51.429 182.415 49.7129C182.543 48.3333 182.268 47.1026 181.589 46.0208C180.912 44.9053 179.874 44.0276 178.474 43.3877C177.498 43.2965 176.569 43.4303 175.687 43.7892C174.842 44.1175 174.218 44.6193 173.816 45.2944C173.546 45.2693 173.238 45.1216 172.89 44.8515C172.545 44.5477 172.38 44.3117 172.396 44.1435C172.768 43.4315 173.404 42.7951 174.305 42.2344L184.939 35.2344C184.645 35.1052 181.386 34.7497 175.161 34.168C173.949 34.0548 172.967 34.031 172.214 34.0964C171.462 34.1618 170.783 34.336 170.18 34.6191C169.977 33.8873 169.835 33.0424 169.755 32.0845C169.678 31.093 169.675 30.2103 169.748 29.4363C170.992 29.926 173.347 30.3327 176.813 30.6566C179.437 30.9018 181.466 30.9895 182.898 30.9197C184.367 30.8193 185.565 30.524 186.494 30.0337C187.071 30.3932 187.5 30.8915 187.78 31.5286C188.093 32.1689 188.215 32.8591 188.146 33.5994C188.058 34.5416 187.727 35.3593 187.153 36.0524C186.579 36.7455 185.604 37.5539 184.228 38.4775L179.346 41.6871C181.863 41.9903 183.847 42.9223 185.296 44.4834C186.779 46.0476 187.417 47.9401 187.21 50.1609C186.958 52.8529 185.79 54.8143 183.707 56.0452C181.66 57.2456 178.769 57.6713 175.034 57.3223Z" fill="white"/>
<path d="M193.295 56.7876C193.369 56.7356 193.471 56.6681 193.601 56.5849C193.74 56.4951 193.914 56.3906 194.125 56.2712C194.285 56.1915 194.404 56.1108 194.481 56.029C194.558 55.9472 194.602 55.8578 194.614 55.7608C194.654 55.4101 194.675 55.1858 194.679 55.0879C194.69 54.9909 194.699 54.9163 194.705 54.8641C194.787 54.1477 194.869 53.5902 194.952 53.1916C195.036 52.793 195.113 52.5486 195.184 52.4585L195.2 52.1202L195.141 52.034C195.151 51.9519 195.159 51.8811 195.166 51.8214C195.181 51.7551 195.191 51.6995 195.196 51.6548C195.243 51.2444 195.09 50.962 194.738 50.8078C194.392 50.6544 194.239 50.4061 194.279 50.0628C194.291 49.9583 194.409 49.8436 194.635 49.7185C194.862 49.586 195.189 49.4349 195.617 49.2651C195.711 48.9055 195.812 48.5128 195.921 48.0869C196.03 47.661 196.156 47.1917 196.297 46.6788C196.279 46.5784 196.265 46.4974 196.257 46.436C196.25 46.3671 196.249 46.3065 196.255 46.2543C196.285 45.9931 196.342 45.7578 196.427 45.5483C196.511 45.3388 196.616 45.1431 196.743 44.9612C196.822 44.8645 196.921 44.7625 197.039 44.6552C197.158 44.5405 197.3 44.4171 197.466 44.2851C197.598 44.187 197.699 44.1004 197.768 44.0252C197.838 43.9426 197.876 43.8751 197.882 43.8229C197.889 43.7632 197.868 43.7117 197.82 43.6683C197.78 43.6258 197.715 43.5994 197.625 43.589C197.349 43.5571 196.933 43.5996 196.375 43.7165C195.819 43.8259 195.406 43.8651 195.138 43.834C195.048 43.8236 194.982 43.8047 194.94 43.7771C194.906 43.7504 194.891 43.7109 194.897 43.6587C194.914 43.5094 194.937 43.3797 194.964 43.2695C194.992 43.1593 195.02 43.0831 195.047 43.0409C195.185 42.9586 195.293 42.8766 195.37 42.7948C195.455 42.7139 195.502 42.6287 195.512 42.5391C195.517 42.5018 195.56 42.4576 195.641 42.4066C195.73 42.3564 195.863 42.3188 196.039 42.2939C196.747 42.1794 197.286 42.0906 197.656 42.0276C198.034 41.9654 198.249 41.9299 198.303 41.921C198.733 41.8649 199.14 41.8365 199.526 41.8358C199.912 41.8276 200.269 41.8425 200.597 41.8805C200.635 41.8848 200.708 41.9047 200.817 41.94C200.927 41.9679 201.002 41.9765 201.041 41.9659C201.193 41.9608 201.352 41.9528 201.52 41.942C201.564 41.9472 201.692 41.9847 201.903 42.0545C202.115 42.1168 202.411 42.2078 202.79 42.3273C202.874 42.3219 202.966 42.3136 203.065 42.3025C203.281 42.3275 203.457 42.3818 203.591 42.4654C203.732 42.5498 203.837 42.6565 203.905 42.7854C204.007 42.8198 204.107 42.8427 204.204 42.8539C204.397 42.8764 204.566 42.9526 204.71 43.0827C204.862 43.2062 204.986 43.3756 205.083 43.5908C205.165 43.797 205.225 44.0005 205.262 44.2014C205.301 44.3948 205.308 44.5923 205.285 44.7938C205.24 45.1893 205.111 45.5562 204.899 45.8945C204.695 46.2262 204.407 46.5256 204.037 46.7927C203.997 46.8107 203.799 46.9239 203.443 47.1321C203.095 47.3338 202.586 47.6151 201.918 47.9762C201.846 48.0132 201.76 48.0676 201.661 48.1393C201.563 48.211 201.445 48.2843 201.308 48.3592C200.654 48.654 200.025 48.9365 199.42 49.2066C198.913 49.4125 198.526 49.5908 198.26 49.7414C197.993 49.8919 197.855 50.0045 197.847 50.0792C197.83 50.2284 197.878 50.3701 197.991 50.5041C198.105 50.6307 198.287 50.7539 198.538 50.8737C198.903 51.0521 199.314 51.2547 199.772 51.4816C200.23 51.7085 200.717 51.9729 201.234 52.2747C201.285 52.2957 201.345 52.3329 201.414 52.3863C201.491 52.4405 201.575 52.4994 201.666 52.5629C202.28 52.8759 202.72 53.2255 202.986 53.6117C203.259 53.9912 203.37 54.4085 203.318 54.8637C203.243 55.5278 202.57 56.0888 201.301 56.5467C200.04 57.0055 198.185 57.3653 195.738 57.6262C195.689 57.7264 195.632 57.8257 195.568 57.9241C195.511 58.0234 195.459 58.1193 195.41 58.212C195.349 58.2881 195.267 58.3429 195.165 58.3764C195.062 58.4174 194.947 58.4306 194.82 58.4159C194.678 58.3995 194.573 58.3343 194.502 58.2203C194.432 58.1138 194.394 57.9506 194.388 57.7308C194.335 57.6716 194.289 57.6436 194.251 57.6468L193.594 57.7408C193.517 57.6866 193.443 57.6364 193.373 57.5905C193.309 57.5529 193.242 57.5111 193.172 57.4651C193.103 57.4117 193.049 57.3489 193.012 57.2765C192.974 57.2116 192.96 57.1419 192.968 57.0673C192.976 57.0001 193.005 56.9467 193.054 56.9072C193.111 56.8759 193.191 56.836 193.295 56.7876ZM197.335 51.8798C197.216 51.866 197.099 51.9584 196.986 52.157C196.881 52.3489 196.779 52.6434 196.681 53.0403C196.609 53.4099 196.536 53.7833 196.463 54.1604C196.39 54.53 196.318 54.8997 196.245 55.2693C196.179 55.4507 196.119 55.6441 196.065 55.8496L196.075 55.9641L196.159 56.0192C196.467 55.9717 196.809 55.9243 197.184 55.8771C197.438 55.9065 197.59 55.9014 197.639 55.8618C197.698 55.8156 198.334 55.602 199.549 55.221C200.065 55.0691 200.456 54.9178 200.723 54.7672C200.99 54.6092 201.131 54.463 201.147 54.3287C201.156 54.2466 201.132 54.1644 201.073 54.082C201.014 53.9996 200.923 53.9096 200.798 53.8119C200.473 53.5475 200.108 53.3011 199.704 53.0728C199.3 52.837 198.853 52.6151 198.363 52.4071C198.298 52.377 198.223 52.3455 198.136 52.3128C198.057 52.2734 197.967 52.2328 197.866 52.1908C197.711 52.0972 197.591 52.0228 197.506 51.9677C197.43 51.9134 197.372 51.8841 197.335 51.8798ZM200.465 43.7364C200.181 43.7036 199.947 43.6992 199.763 43.7233C199.588 43.7407 199.457 43.7899 199.372 43.8708C199.306 43.9236 199.229 44.0319 199.143 44.1958C199.063 44.3605 198.969 44.5878 198.861 44.8776C198.812 45.0383 198.769 45.2185 198.731 45.4183C198.7 45.6189 198.675 45.839 198.655 46.0787C198.551 46.2632 198.447 46.4174 198.342 46.5414L198.365 46.8388C198.232 47.2016 198.135 47.4927 198.072 47.7123C198.009 47.9318 197.974 48.0789 197.965 48.1535C197.952 48.2654 197.966 48.3464 198.005 48.3963C198.045 48.4463 198.106 48.476 198.188 48.4855C198.262 48.4941 198.447 48.4324 198.742 48.3002C199.044 48.1688 199.46 47.9675 199.989 47.6962C200.575 47.401 201.02 47.1766 201.324 47.0229C201.637 46.8625 201.817 46.7738 201.865 46.7566C201.975 46.6484 202.082 46.5435 202.184 46.442C202.295 46.3338 202.401 46.229 202.503 46.1274C202.648 45.9854 202.757 45.8581 202.83 45.7456C202.905 45.6257 202.947 45.5172 202.958 45.4202C202.979 45.2411 202.941 45.0742 202.845 44.9195C202.75 44.7648 202.596 44.6222 202.384 44.4918C202.313 44.4533 202.184 44.393 201.997 44.3109C201.817 44.2296 201.582 44.1418 201.29 44.0476C201.052 43.9519 200.864 43.8772 200.727 43.8235C200.589 43.7698 200.502 43.7408 200.465 43.7364Z" fill="white"/>
<path d="M214.309 43.2872C214.473 43.3062 214.587 43.3722 214.649 43.4853C214.712 43.5984 214.732 43.7557 214.709 43.9572C214.665 44.3378 214.606 44.6901 214.531 45.0141C214.464 45.3389 214.375 45.6235 214.264 45.8677C214.115 46.1756 213.971 46.4802 213.83 46.7815C213.699 47.0762 213.562 47.378 213.421 47.6867C213.295 47.8006 213.209 47.889 213.164 47.9518C213.131 48.1068 213.095 48.2576 213.056 48.4043C213.041 48.4631 213.005 48.5156 212.947 48.5618C212.896 48.6089 212.83 48.6616 212.748 48.7202C212.717 48.7922 212.677 48.8783 212.627 48.9784C212.579 49.0711 212.521 49.1816 212.454 49.3099C212.216 49.668 211.903 50.0929 211.514 50.5847C211.134 51.0699 210.674 51.629 210.133 52.262C210.112 52.3805 210.095 52.492 210.083 52.5964L209.303 53.8671C209.032 54.327 208.788 54.7714 208.573 55.2001C208.366 55.6222 208.199 56.03 208.07 56.4235C208 56.6421 207.942 56.8244 207.895 56.9701C207.856 57.1093 207.833 57.2088 207.827 57.2685C207.818 57.3431 207.85 57.4639 207.921 57.631C207.994 57.7906 208.028 57.8891 208.023 57.9264C208.005 58.0905 207.76 58.2777 207.29 58.4879C206.828 58.699 206.545 58.7948 206.442 58.7752C206.332 58.7399 206.216 58.7037 206.091 58.6666C205.974 58.6379 205.864 58.6062 205.762 58.5718C205.61 58.5163 205.496 58.4503 205.422 58.3736C205.347 58.3044 205.315 58.2213 205.326 58.1243C205.334 58.0497 205.377 57.9072 205.454 57.6968C205.559 57.3763 205.675 57.0873 205.803 56.8299C205.939 56.5659 206.094 56.3269 206.27 56.1128L206.309 56.072C206.29 56.0395 206.275 56 206.265 55.9535C206.263 55.9079 206.254 55.8577 206.237 55.8029C206.29 55.6729 206.361 55.5147 206.45 55.3285C206.539 55.1423 206.655 54.9288 206.795 54.688C206.884 54.5773 206.976 54.4292 207.073 54.2438C207.17 54.051 207.264 53.8312 207.352 53.5844C207.116 53.3377 206.926 53.0851 206.781 52.8265C206.637 52.5678 206.546 52.304 206.509 52.0351C206.464 51.9013 206.404 51.7318 206.329 51.5266C206.255 51.3139 206.178 51.063 206.098 50.7739L205.596 47.8239C205.6 47.5974 205.596 47.3286 205.586 47.0175C205.585 46.6998 205.562 46.338 205.518 45.9322L205.648 45.6864L205.486 45.4181C205.493 45.3584 205.495 45.2755 205.492 45.1693C205.497 45.0565 205.497 44.9204 205.493 44.7611C205.488 44.6093 205.487 44.4807 205.492 44.3754C205.505 44.2635 205.515 44.1702 205.524 44.0956C205.555 43.8195 205.621 43.6116 205.72 43.4718C205.819 43.3321 205.952 43.2531 206.121 43.2348C206.173 43.2408 206.229 43.2473 206.289 43.2542C206.357 43.2545 206.428 43.259 206.502 43.2676C206.592 43.278 206.878 43.1901 207.36 43.004C207.569 43.0282 207.73 43.1036 207.844 43.2302C207.959 43.3493 208.027 43.5123 208.049 43.7189C208.059 43.826 208.057 43.9769 208.042 44.1718C208.029 44.3592 208.007 44.5835 207.977 44.8447C207.961 44.9865 207.922 45.1899 207.862 45.4551C207.809 45.7212 207.775 45.9176 207.76 46.0445C207.755 46.0892 207.753 46.1419 207.754 46.2025C207.763 46.2564 207.769 46.3328 207.773 46.4315C207.752 46.6786 207.744 46.9838 207.748 47.3472C207.76 47.704 207.777 48.1142 207.8 48.5781C207.814 48.8519 207.842 49.1954 207.886 49.6087C207.93 50.0146 207.982 50.4893 208.04 51.0329C208.092 51.1145 208.141 51.2109 208.189 51.3223C208.245 51.4271 208.295 51.5464 208.34 51.6801L208.414 51.734C208.458 51.7391 208.586 51.5838 208.796 51.2678C209.014 50.9453 209.315 50.4622 209.698 49.8186C209.753 49.7343 209.818 49.6246 209.894 49.4898C209.971 49.3474 210.061 49.184 210.166 48.9995C210.208 48.9591 210.256 48.9041 210.309 48.8347C210.362 48.7652 210.425 48.6817 210.496 48.5842C210.548 48.4616 210.622 48.3077 210.719 48.1223C210.817 47.9295 210.937 47.7052 211.079 47.4496C211.196 47.2892 211.328 47.0927 211.475 46.8603C211.631 46.6213 211.803 46.3388 211.992 46.0128C212.004 45.9689 212.17 45.7424 212.489 45.3332C212.816 44.9174 213.284 44.3252 213.893 43.5565C213.964 43.4664 214.036 43.3992 214.109 43.3547C214.183 43.3028 214.249 43.2803 214.309 43.2872Z" fill="white"/>
<path d="M215.55 46.9126L215.454 46.1643C215.516 46.0202 215.577 45.8762 215.639 45.7321C215.702 45.5806 215.76 45.4324 215.815 45.2875C215.871 45.1882 215.955 45.1185 216.065 45.0783C216.184 45.0316 216.333 45.0186 216.512 45.0393C216.579 45.0471 216.681 45.0438 216.819 45.0295C216.964 45.0161 217.066 45.0128 217.126 45.0197C217.193 45.0275 217.277 45.0901 217.377 45.2075C217.476 45.3249 217.548 45.3937 217.591 45.4138C217.647 45.3825 217.718 45.3265 217.803 45.2456C217.895 45.1655 218.006 45.0573 218.135 44.9211C218.245 44.8129 218.35 44.7267 218.448 44.6624C218.546 44.5982 218.648 44.5572 218.756 44.5394C218.869 44.6129 218.968 44.6735 219.053 44.7212C219.102 44.7571 219.131 44.7946 219.142 44.8336C219.16 44.8735 219.165 44.927 219.158 44.9942C219.153 45.0315 219.125 45.1114 219.074 45.234C219.023 45.349 218.948 45.5067 218.85 45.707C218.742 45.9214 218.657 46.1006 218.595 46.2446C218.534 46.3887 218.491 46.5009 218.466 46.5813C218.335 46.7399 218.227 46.8863 218.144 47.0203C218.069 47.1477 218.025 47.2711 218.011 47.3905C217.994 47.5397 218.013 47.7687 218.069 48.0776C218.125 48.379 218.214 48.7597 218.335 49.2198C218.505 49.8444 218.676 50.4956 218.848 51.1733C218.99 51.9155 219.146 52.6367 219.315 53.3368C219.485 54.0294 219.67 54.6972 219.868 55.3402C220.071 56.0139 220.244 56.5178 220.387 56.8519C220.53 57.186 220.646 57.3583 220.736 57.3686C220.81 57.3773 220.867 57.3423 220.906 57.2637C220.954 57.1784 220.988 57.0426 221.01 56.856C221.018 56.7814 221.037 56.6852 221.065 56.5676C221.101 56.4508 221.15 56.3241 221.211 56.1875C221.301 55.9938 221.39 55.7735 221.479 55.5267C221.598 55.1473 221.704 54.8156 221.797 54.5315C221.897 54.2483 221.981 54.0048 222.05 53.801C222.095 53.6701 222.161 53.3905 222.248 52.962C222.335 52.5335 222.439 51.9521 222.561 51.2177C222.569 51.143 222.592 51.0399 222.63 50.9081C222.675 50.7773 222.719 50.6273 222.761 50.4583C222.81 50.2901 222.849 50.1472 222.878 50.0295C222.907 49.9044 222.927 49.7934 222.939 49.6963C222.958 49.5247 222.968 49.2689 222.97 48.9287C222.971 48.5812 222.982 48.3216 223.002 48.15C223.167 47.6928 223.324 47.246 223.472 46.8095C223.599 46.431 223.714 46.1192 223.817 45.8741C223.922 45.6216 224.008 45.4312 224.075 45.3029C224.225 45.0481 224.397 44.8336 224.591 44.6595C224.785 44.4779 224.994 44.3357 225.218 44.233L225.307 44.2434C225.382 44.252 225.428 44.2726 225.447 44.305C225.474 44.3383 225.483 44.3886 225.475 44.4557C225.42 44.6081 225.373 44.7236 225.334 44.8022C225.341 44.9391 225.347 45.0835 225.352 45.2353C225.309 45.4193 225.265 45.573 225.22 45.6964C225.196 45.7767 225.167 45.9019 225.132 46.0717C225.098 46.2342 225.068 46.4348 225.041 46.6736C225.03 46.7631 224.997 46.9558 224.941 47.2517C224.885 47.5402 224.799 47.9272 224.683 48.4127C224.558 49.109 224.423 49.8002 224.276 50.4864C224.137 51.1734 223.995 51.8601 223.848 52.5463C223.693 53.3751 223.52 54.13 223.329 54.811C223.138 55.4846 222.934 56.0846 222.715 56.6112C222.64 56.9352 222.528 57.2927 222.377 57.6835C222.234 58.0752 222.057 58.4971 221.847 58.949L221.436 59.4685C221.411 59.4958 221.165 59.5656 220.698 59.6779C220.233 59.7828 219.974 59.8322 219.922 59.8262C219.81 59.8132 219.659 59.6483 219.469 59.3314C219.279 59.007 219.066 58.5249 218.829 57.885C218.601 57.3066 218.421 56.8321 218.289 56.4615C218.159 56.0835 218.081 55.8023 218.057 55.6181C218.05 55.5492 218.037 55.4608 218.019 55.3529C218.001 55.2449 217.981 55.1217 217.959 54.983C217.848 54.6374 217.704 54.2087 217.528 53.6969C217.36 53.186 217.165 52.5812 216.942 51.8825C216.909 51.7123 216.86 51.5478 216.795 51.3891C216.738 51.2238 216.664 51.0488 216.571 50.8642L216.489 50.8887C216.42 51.0319 216.347 51.2124 216.269 51.4302C216.191 51.648 216.101 51.9098 215.998 52.2154C215.9 52.4082 215.801 52.5783 215.701 52.7255C215.54 53.1453 215.36 53.6007 215.16 54.0917C214.96 54.5827 214.745 55.1097 214.515 55.6728C214.448 55.8616 214.38 56.0579 214.311 56.2617C214.243 56.4654 214.166 56.6758 214.08 56.8927L213.837 57.2388C213.781 57.4592 213.723 57.6754 213.661 57.8875C213.589 58.0531 213.498 58.2542 213.388 58.491C213.286 58.7211 213.16 58.9976 213.01 59.3204C212.968 59.4895 212.897 59.6098 212.798 59.6816C212.706 59.7616 212.585 59.7967 212.435 59.7869C212.417 59.815 212.383 59.8414 212.335 59.8661C212.286 59.8982 212.208 59.9232 212.1 59.9409C212.024 59.9472 211.973 59.8997 211.946 59.7984C211.919 59.7045 211.916 59.568 211.936 59.3889C211.948 59.2845 211.986 59.1225 212.049 58.9029C212.111 58.6834 212.2 58.4063 212.314 58.0717C212.44 57.6932 212.538 57.3983 212.607 57.1871C212.685 56.9693 212.735 56.8314 212.757 56.7734C212.807 56.5978 212.867 56.3666 212.938 56.0799C213.008 55.7932 213.088 55.4622 213.176 55.0868C213.202 54.9915 213.238 54.8747 213.284 54.7364C213.338 54.5915 213.403 54.425 213.477 54.2371C213.532 54.0921 213.652 53.6978 213.839 53.0541C214.027 52.403 214.278 51.4983 214.591 50.34C214.917 49.2058 215.237 48.0634 215.55 46.9126Z" fill="white"/>
<path fill-rule="evenodd" clip-rule="evenodd" d="M163.853 64.3188C163.822 64.5822 163.582 64.7696 163.319 64.7375L162.842 64.6793C162.578 64.6471 162.391 64.4076 162.422 64.1442C162.454 63.8809 162.693 63.6934 162.957 63.7255L163.434 63.7838C163.697 63.8159 163.885 64.0554 163.853 64.3188Z" fill="white"/>
<path fill-rule="evenodd" clip-rule="evenodd" d="M225.069 71.9222C225.037 72.1857 224.797 72.3728 224.534 72.3401L224.063 72.2816C223.799 72.2489 223.612 72.0088 223.644 71.7453C223.677 71.4818 223.916 71.2947 224.18 71.3274L224.651 71.3859C224.914 71.4186 225.102 71.6587 225.069 71.9222ZM222.717 71.6301C222.685 71.8936 222.445 72.0807 222.182 72.048L221.239 71.9309C220.975 71.8982 220.788 71.6581 220.82 71.3946C220.853 71.1311 221.092 70.944 221.356 70.9767L222.299 71.0938C222.562 71.1265 222.749 71.3666 222.717 71.6301ZM219.893 71.2794C219.861 71.5429 219.621 71.73 219.358 71.6973L218.415 71.5803C218.151 71.5476 217.964 71.3074 217.996 71.0439C218.029 70.7805 218.268 70.5934 218.532 70.6261L219.475 70.7431C219.738 70.7758 219.925 71.0159 219.893 71.2794ZM217.069 70.9288C217.037 71.1923 216.797 71.3794 216.534 71.3467L215.591 71.2296C215.327 71.1969 215.14 70.9568 215.172 70.6933C215.205 70.4298 215.444 70.2427 215.708 70.2754L216.651 70.3925C216.914 70.4252 217.101 70.6653 217.069 70.9288ZM214.245 70.5781C214.213 70.8416 213.973 71.0287 213.71 70.996L212.767 70.8789C212.503 70.8462 212.316 70.6061 212.349 70.3426C212.381 70.0791 212.62 69.892 212.884 69.9247L213.827 70.0418C214.09 70.0745 214.277 70.3146 214.245 70.5781ZM211.421 70.2275C211.389 70.4909 211.149 70.678 210.886 70.6453L209.943 70.5283C209.68 70.4956 209.492 70.2555 209.525 69.992C209.557 69.7285 209.797 69.5414 210.06 69.5741L211.003 69.6912C211.266 69.7239 211.453 69.964 211.421 70.2275ZM208.597 69.8768C208.565 70.1403 208.325 70.3274 208.062 70.2947L207.119 70.1776C206.856 70.1449 206.668 69.9048 206.701 69.6413C206.733 69.3778 206.973 69.1907 207.236 69.2234L208.179 69.3405C208.442 69.3732 208.629 69.6133 208.597 69.8768ZM205.773 69.5261C205.741 69.7896 205.501 69.9767 205.238 69.944L204.295 69.8269C204.032 69.7942 203.844 69.5541 203.877 69.2906C203.909 69.0271 204.149 68.8401 204.412 68.8727L205.355 68.9898C205.618 69.0225 205.805 69.2626 205.773 69.5261ZM202.949 69.1755C202.917 69.439 202.677 69.6261 202.414 69.5934L201.471 69.4763C201.208 69.4436 201.02 69.2035 201.053 68.94C201.085 68.6765 201.325 68.4894 201.588 68.5221L202.531 68.6392C202.794 68.6719 202.981 68.912 202.949 69.1755ZM200.125 68.8248C200.093 69.0883 199.853 69.2754 199.59 69.2427L198.647 69.1256C198.384 69.0929 198.196 68.8528 198.229 68.5893C198.261 68.3258 198.501 68.1387 198.764 68.1714L199.707 68.2885C199.97 68.3212 200.157 68.5613 200.125 68.8248ZM197.301 68.4741C197.269 68.7376 197.029 68.9247 196.766 68.892L195.823 68.775C195.56 68.7423 195.372 68.5021 195.405 68.2387C195.437 67.9752 195.677 67.7881 195.94 67.8208L196.883 67.9378C197.146 67.9705 197.333 68.2107 197.301 68.4741ZM194.477 68.1235C194.445 68.387 194.205 68.5741 193.942 68.5414L192.999 68.4243C192.736 68.3916 192.548 68.1515 192.581 67.888C192.613 67.6245 192.853 67.4374 193.116 67.4701L194.059 67.5872C194.322 67.6199 194.51 67.86 194.477 68.1235ZM191.653 67.7728C191.621 68.0363 191.381 68.2234 191.118 68.1907L190.175 68.0736C189.912 68.0409 189.724 67.8008 189.757 67.5373C189.789 67.2738 190.029 67.0867 190.292 67.1194L191.235 67.2365C191.498 67.2692 191.686 67.5093 191.653 67.7728ZM188.829 67.4222C188.797 67.6857 188.557 67.8728 188.294 67.8401L187.351 67.723C187.088 67.6903 186.901 67.4502 186.933 67.1867C186.965 66.9232 187.205 66.7361 187.468 66.7688L188.411 66.8859C188.674 66.9186 188.862 67.1587 188.829 67.4222ZM186.005 67.0715C185.973 67.335 185.733 67.5221 185.47 67.4894L184.527 67.3723C184.264 67.3396 184.077 67.0995 184.109 66.836C184.141 66.5725 184.381 66.3854 184.644 66.4181L185.587 66.5352C185.85 66.5679 186.038 66.808 186.005 67.0715ZM183.181 66.7208C183.149 66.9843 182.909 67.1714 182.646 67.1387L181.703 67.0216C181.44 66.9889 181.253 66.7488 181.285 66.4853C181.317 66.2219 181.557 66.0348 181.82 66.0675L182.763 66.1845C183.026 66.2172 183.214 66.4573 183.181 66.7208ZM180.357 66.3702C180.325 66.6337 180.085 66.8208 179.822 66.7881L178.879 66.671C178.616 66.6383 178.429 66.3982 178.461 66.1347C178.493 65.8712 178.733 65.6841 178.996 65.7168L179.939 65.8339C180.202 65.8666 180.39 66.1067 180.357 66.3702ZM177.533 66.0195C177.501 66.283 177.261 66.4701 176.998 66.4374L176.055 66.3203C175.792 66.2876 175.605 66.0475 175.637 65.784C175.669 65.5205 175.909 65.3334 176.172 65.3661L177.115 65.4832C177.378 65.5159 177.566 65.756 177.533 66.0195ZM174.709 65.6689C174.677 65.9323 174.437 66.1194 174.174 66.0867L173.231 65.9697C172.968 65.937 172.781 65.6969 172.813 65.4334C172.845 65.1699 173.085 64.9828 173.348 65.0155L174.291 65.1325C174.554 65.1652 174.742 65.4054 174.709 65.6689ZM171.885 65.3182C171.853 65.5817 171.614 65.7688 171.35 65.7361L170.407 65.619C170.144 65.5863 169.957 65.3462 169.989 65.0827C170.021 64.8192 170.261 64.6321 170.524 64.6648L171.467 64.7819C171.731 64.8146 171.918 65.0547 171.885 65.3182ZM169.062 64.9675C169.029 65.231 168.79 65.4181 168.526 65.3854L167.583 65.2683C167.32 65.2356 167.133 64.9955 167.165 64.732C167.197 64.4685 167.437 64.2814 167.7 64.3141L168.643 64.4312C168.907 64.4639 169.094 64.704 169.062 64.9675ZM166.238 64.6169C166.205 64.8804 165.966 65.0675 165.702 65.0348L165.231 64.9762C164.967 64.9435 164.78 64.7034 164.813 64.4399C164.845 64.1764 165.084 63.9893 165.348 64.022L165.819 64.0806C166.083 64.1133 166.27 64.3534 166.238 64.6169Z" fill="white"/>
<path fill-rule="evenodd" clip-rule="evenodd" d="M226.506 72.1012C226.474 72.3645 226.235 72.552 225.971 72.5199L225.494 72.4616C225.231 72.4295 225.043 72.1899 225.075 71.9266C225.106 71.6632 225.346 71.4758 225.609 71.5079L226.086 71.5661C226.35 71.5982 226.537 71.8378 226.506 72.1012Z" fill="white"/>
<defs>
<filter id="filter0_f" x="0.429688" y="115.17" width="163.752" height="50.5067" filterUnits="userSpaceOnUse" color-interpolation-filters="sRGB">
<feFlood flood-opacity="0" result="BackgroundImageFix"/>
<feBlend mode="normal" in="SourceGraphic" in2="BackgroundImageFix" result="shape"/>
<feGaussianBlur stdDeviation="1" result="effect1_foregroundBlur"/>
</filter>
<filter id="filter1_f" x="107.735" y="115.58" width="58.9657" height="31.2637" filterUnits="userSpaceOnUse" color-interpolation-filters="sRGB">
<feFlood flood-opacity="0" result="BackgroundImageFix"/>
<feBlend mode="normal" in="SourceGraphic" in2="BackgroundImageFix" result="shape"/>
<feGaussianBlur stdDeviation="4" result="effect1_foregroundBlur"/>
</filter>
<filter id="filter2_f" x="88.4551" y="85.3035" width="72.0922" height="54.8168" filterUnits="userSpaceOnUse" color-interpolation-filters="sRGB">
<feFlood flood-opacity="0" result="BackgroundImageFix"/>
<feBlend mode="normal" in="SourceGraphic" in2="BackgroundImageFix" result="shape"/>
<feGaussianBlur stdDeviation="2" result="effect1_foregroundBlur"/>
</filter>
<filter id="filter3_f" x="117.972" y="111.384" width="46.2464" height="22.9642" filterUnits="userSpaceOnUse" color-interpolation-filters="sRGB">
<feFlood flood-opacity="0" result="BackgroundImageFix"/>
<feBlend mode="normal" in="SourceGraphic" in2="BackgroundImageFix" result="shape"/>
<feGaussianBlur stdDeviation="2" result="effect1_foregroundBlur"/>
</filter>
<filter id="filter4_f" x="121.297" y="84.4675" width="14.6515" height="22.1964" filterUnits="userSpaceOnUse" color-interpolation-filters="sRGB">
<feFlood flood-opacity="0" result="BackgroundImageFix"/>
<feBlend mode="normal" in="SourceGraphic" in2="BackgroundImageFix" result="shape"/>
<feGaussianBlur stdDeviation="2" result="effect1_foregroundBlur"/>
</filter>
<filter id="filter5_f" x="22.6924" y="42.1587" width="117.908" height="45.8007" filterUnits="userSpaceOnUse" color-interpolation-filters="sRGB">
<feFlood flood-opacity="0" result="BackgroundImageFix"/>
<feBlend mode="normal" in="SourceGraphic" in2="BackgroundImageFix" result="shape"/>
<feGaussianBlur stdDeviation="1" result="effect1_foregroundBlur"/>
</filter>
<filter id="filter6_f" x="24.8496" y="42.6667" width="113.593" height="46.4566" filterUnits="userSpaceOnUse" color-interpolation-filters="sRGB">
<feFlood flood-opacity="0" result="BackgroundImageFix"/>
<feBlend mode="normal" in="SourceGraphic" in2="BackgroundImageFix" result="shape"/>
<feGaussianBlur stdDeviation="2" result="effect1_foregroundBlur"/>
</filter>
<filter id="filter7_f" x="33.9951" y="46.8469" width="95.3016" height="38.0965" filterUnits="userSpaceOnUse" color-interpolation-filters="sRGB">
<feFlood flood-opacity="0" result="BackgroundImageFix"/>
<feBlend mode="normal" in="SourceGraphic" in2="BackgroundImageFix" result="shape"/>
<feGaussianBlur stdDeviation="2" result="effect1_foregroundBlur"/>
</filter>
<filter id="filter8_f" x="41.4785" y="51.027" width="80.3356" height="29.7363" filterUnits="userSpaceOnUse" color-interpolation-filters="sRGB">
<feFlood flood-opacity="0" result="BackgroundImageFix"/>
<feBlend mode="normal" in="SourceGraphic" in2="BackgroundImageFix" result="shape"/>
<feGaussianBlur stdDeviation="2" result="effect1_foregroundBlur"/>
</filter>
<filter id="filter9_f" x="141.173" y="82.2054" width="28.8281" height="47.5677" filterUnits="userSpaceOnUse" color-interpolation-filters="sRGB">
<feFlood flood-opacity="0" result="BackgroundImageFix"/>
<feBlend mode="normal" in="SourceGraphic" in2="BackgroundImageFix" result="shape"/>
<feGaussianBlur stdDeviation="1" result="effect1_foregroundBlur"/>
</filter>
<filter id="filter10_f" x="15.5352" y="62.7311" width="129.429" height="31.6894" filterUnits="userSpaceOnUse" color-interpolation-filters="sRGB">
<feFlood flood-opacity="0" result="BackgroundImageFix"/>
<feBlend mode="normal" in="SourceGraphic" in2="BackgroundImageFix" result="shape"/>
<feGaussianBlur stdDeviation="2" result="effect1_foregroundBlur"/>
</filter>
<filter id="filter11_d" x="149.348" y="21.0247" width="107.689" height="79.4504" filterUnits="userSpaceOnUse" color-interpolation-filters="sRGB">
<feFlood flood-opacity="0" result="BackgroundImageFix"/>
<feColorMatrix in="SourceAlpha" type="matrix" values="0 0 0 0 0 0 0 0 0 0 0 0 0 0 0 0 0 0 127 0"/>
<feOffset dx="3" dy="3"/>
<feGaussianBlur stdDeviation="2"/>
<feColorMatrix type="matrix" values="0 0 0 0 0 0 0 0 0 0 0 0 0 0 0 0 0 0 0.5 0"/>
<feBlend mode="normal" in2="BackgroundImageFix" result="effect1_dropShadow"/>
<feBlend mode="normal" in="SourceGraphic" in2="effect1_dropShadow" result="shape"/>
</filter>
<radialGradient id="paint0_radial" cx="0" cy="0" r="1" gradientUnits="userSpaceOnUse" gradientTransform="translate(81.4966 124.177) scale(59.548 85.6216)">
<stop offset="0.01" stop-color="#F0F0F0"/>
<stop offset="1" stop-color="#C7C7C7"/>
</radialGradient>
<linearGradient id="paint1_linear" x1="78.0749" y1="164.52" x2="78.0749" y2="86.5381" gradientUnits="userSpaceOnUse">
<stop stop-color="white"/>
<stop offset="1" stop-color="white"/>
</linearGradient>
<radialGradient id="paint2_radial" cx="0" cy="0" r="1" gradientUnits="userSpaceOnUse" gradientTransform="translate(78.0752 123.867) scale(83.5227 40.3112)">
<stop offset="0.82" stop-color="white"/>
<stop offset="0.88" stop-color="#F8F7F7"/>
<stop offset="0.98" stop-color="#E4E2E1"/>
<stop offset="1" stop-color="#E0DDDC"/>
</radialGradient>
<linearGradient id="paint3_linear" x1="84.4801" y1="144.464" x2="84.4801" y2="103.583" gradientUnits="userSpaceOnUse">
<stop offset="0.33" stop-color="#D8D8D8"/>
<stop offset="1" stop-color="#B5B5B5"/>
</linearGradient>
<radialGradient id="paint4_radial" cx="0" cy="0" r="1" gradientUnits="userSpaceOnUse" gradientTransform="translate(84.7285 120.562) scale(37.2184 16.9172)">
<stop offset="0.51" stop-color="#1C0B05"/>
<stop offset="0.56" stop-color="#2A1A14"/>
<stop offset="0.65" stop-color="#4D403B"/>
<stop offset="0.77" stop-color="#877E7B"/>
<stop offset="0.92" stop-color="#D5D2D1"/>
<stop offset="1" stop-color="white"/>
</radialGradient>
<radialGradient id="paint5_radial" cx="0" cy="0" r="1" gradientUnits="userSpaceOnUse" gradientTransform="translate(83.4175 110.388) scale(55.0083 28.7615)">
<stop stop-color="white"/>
<stop offset="0.23" stop-color="#FCFCFB"/>
<stop offset="0.43" stop-color="#F5F2F1"/>
<stop offset="0.62" stop-color="#E7E2DE"/>
<stop offset="0.8" stop-color="#D5CBC5"/>
<stop offset="0.99" stop-color="#BDAEA4"/>
<stop offset="1" stop-color="#BBABA1"/>
</radialGradient>
<linearGradient id="paint6_linear" x1="125.222" y1="111.023" x2="116.376" y2="124.154" gradientUnits="userSpaceOnUse">
<stop offset="0.24" stop-color="#B6AAA0"/>
<stop offset="0.27" stop-color="#BBB0A7"/>
<stop offset="0.48" stop-color="#DCD5D1"/>
<stop offset="0.64" stop-color="#F0ECEA"/>
<stop offset="0.73" stop-color="#F7F5F4"/>
</linearGradient>
<linearGradient id="paint7_linear" x1="21.2172" y1="95.3229" x2="140.247" y2="85.4903" gradientUnits="userSpaceOnUse">
<stop stop-color="#FEFEFE"/>
<stop offset="0.01" stop-color="#E8E4E1"/>
<stop offset="0.02" stop-color="#D6CFC9"/>
<stop offset="0.03" stop-color="#C7BEB7"/>
<stop offset="0.05" stop-color="#BDB3AA"/>
<stop offset="0.06" stop-color="#B8ACA2"/>
<stop offset="0.1" stop-color="#B6AAA0"/>
<stop offset="0.21" stop-color="#D2CBC5"/>
<stop offset="0.68" stop-color="#F7F5F4"/>
<stop offset="1" stop-color="#E1DCD8"/>
</linearGradient>
<linearGradient id="paint8_linear" x1="101.95" y1="93.3164" x2="130.033" y2="103.807" gradientUnits="userSpaceOnUse">
<stop stop-color="white"/>
<stop offset="0.22" stop-color="#F9F8F7"/>
<stop offset="0.56" stop-color="#E9E4E1"/>
<stop offset="0.89" stop-color="#D5CBC5"/>
<stop offset="0.98" stop-color="#D5CBC5"/>
</linearGradient>
<linearGradient id="paint9_linear" x1="131.134" y1="93.3916" x2="124.931" y2="108.876" gradientUnits="userSpaceOnUse">
<stop offset="0.11" stop-color="#D5CBC5"/>
<stop offset="0.44" stop-color="#E9E4E1"/>
<stop offset="0.78" stop-color="#F9F8F7"/>
<stop offset="1" stop-color="white"/>
</linearGradient>
<linearGradient id="paint10_linear" x1="80.6816" y1="89.3788" x2="80.6816" y2="44" gradientUnits="userSpaceOnUse">
<stop stop-color="#F2F2F2"/>
<stop offset="0.24" stop-color="#E5E4E4"/>
<stop offset="0.69" stop-color="#C3BFBE"/>
<stop offset="1" stop-color="#A9A2A0"/>
</linearGradient>
<linearGradient id="paint11_linear" x1="24.7593" y1="66.2288" x2="136.597" y2="66.2288" gradientUnits="userSpaceOnUse">
<stop stop-color="#B6ADA4"/>
<stop offset="0.13" stop-color="#C9C3BD"/>
<stop offset="0.39" stop-color="#F6F6F6"/>
<stop offset="0.47" stop-color="#F2F2F2"/>
<stop offset="0.55" stop-color="#E5E5E5"/>
<stop offset="0.56" stop-color="#E2E2E2"/>
<stop offset="0.68" stop-color="#DAD8D5"/>
<stop offset="0.79" stop-color="#D7D3CF"/>
<stop offset="0.84" stop-color="#C1B9B2"/>
<stop offset="0.9" stop-color="#B1A79D"/>
<stop offset="0.95" stop-color="#A79C91"/>
<stop offset="1" stop-color="#A4988D"/>
</linearGradient>
<linearGradient id="paint12_linear" x1="119.718" y1="107.412" x2="167.418" y2="107.412" gradientUnits="userSpaceOnUse">
<stop offset="0.02" stop-color="#D5CBC5"/>
<stop offset="0.11" stop-color="#D5CBC5"/>
<stop offset="0.44" stop-color="#E9E4E1"/>
<stop offset="0.78" stop-color="#F9F8F7"/>
<stop offset="1" stop-color="white"/>
</linearGradient>
<linearGradient id="paint13_linear" x1="141.095" y1="115.384" x2="141.095" y2="130.348" gradientUnits="userSpaceOnUse">
<stop offset="0.385417" stop-color="#361F00" stop-opacity="0"/>
<stop offset="1" stop-color="#563408" stop-opacity="0.43"/>
</linearGradient>
<linearGradient id="paint14_linear" x1="125.297" y1="99.3357" x2="130.74" y2="91.8399" gradientUnits="userSpaceOnUse">
<stop stop-color="#5A380B"/>
<stop offset="1" stop-color="#5A380B" stop-opacity="0"/>
</linearGradient>
<linearGradient id="paint15_linear" x1="124.083" y1="108.607" x2="148.768" y2="122.544" gradientUnits="userSpaceOnUse">
<stop stop-color="#CECAC7"/>
<stop offset="0.28" stop-color="#F0EEED"/>
<stop offset="0.45" stop-color="#ECEAE9"/>
<stop offset="0.64" stop-color="#E1DEDC"/>
<stop offset="0.83" stop-color="#CFCAC7"/>
<stop offset="1" stop-color="#B8B2AE"/>
</linearGradient>
<linearGradient id="paint16_linear" x1="108.909" y1="89.6296" x2="108.254" y2="115.746" gradientUnits="userSpaceOnUse">
<stop stop-color="white"/>
<stop offset="0.06" stop-color="#ECECEC"/>
<stop offset="0.33" stop-color="#999999"/>
<stop offset="0.57" stop-color="#575757"/>
<stop offset="0.76" stop-color="#282828"/>
<stop offset="0.91" stop-color="#0B0B0B"/>
<stop offset="1"/>
</linearGradient>
<linearGradient id="paint17_linear" x1="582.957" y1="2457.38" x2="436.733" y2="3170.39" gradientUnits="userSpaceOnUse">
<stop stop-color="white"/>
<stop offset="0.06" stop-color="#ECECEC"/>
<stop offset="0.33" stop-color="#999999"/>
<stop offset="0.57" stop-color="#575757"/>
<stop offset="0.76" stop-color="#282828"/>
<stop offset="0.91" stop-color="#0B0B0B"/>
<stop offset="1"/>
</linearGradient>
<linearGradient id="paint18_linear" x1="159.386" y1="124.416" x2="142.602" y2="85.1897" gradientUnits="userSpaceOnUse">
<stop stop-color="#4A2F0A" stop-opacity="0.5"/>
<stop offset="1" stop-color="#4A2F0A" stop-opacity="0"/>
</linearGradient>
<linearGradient id="paint19_linear" x1="185.001" y1="14.7308" x2="221.288" y2="105.065" gradientUnits="userSpaceOnUse">
<stop stop-color="#E20613"/>
<stop offset="0.31" stop-color="#CF0B14"/>
<stop offset="0.93" stop-color="#9F1815"/>
<stop offset="1" stop-color="#991915"/>
</linearGradient>
</defs>
</svg>
