<svg width="208" height="163" viewBox="0 0 208 163" fill="none" xmlns="http://www.w3.org/2000/svg">
<path d="M101.432 123.289C97.7356 112.047 77.5058 105.498 55.4133 105.498C36.2219 105.498 13.0958 112.042 9.39503 123.289C5.00676 136.68 25.0806 152.232 55.4133 152.232C85.7459 152.232 105.839 136.68 101.432 123.289Z" fill="url(#paint0_radial)"/>
<path style="mix-blend-mode:multiply" d="M55.0759 162.998C81.6274 162.998 103.152 150.921 103.152 136.024C103.152 121.127 81.6274 109.05 55.0759 109.05C28.5243 109.05 7 121.127 7 136.024C7 150.921 28.5243 162.998 55.0759 162.998Z" fill="url(#paint1_radial)"/>
<path d="M55.4166 151.124C31.0861 151.124 15.0056 141.535 10.354 132.625C8.78402 129.61 8.45246 126.653 9.37887 123.828C11.0318 118.803 16.639 114.136 25.162 110.685C33.685 107.235 44.4801 105.309 55.4166 105.309C66.3532 105.309 77.0995 107.22 85.6713 110.685C94.243 114.151 99.8112 118.803 101.459 123.828C102.381 126.638 102.054 129.595 100.484 132.625C95.8325 141.535 79.7471 151.124 55.4166 151.124Z" fill="url(#paint2_linear)"/>
<path d="M55.4158 150.101C31.8947 150.101 16.3456 140.814 11.8501 132.212C10.3337 129.28 10.0119 126.44 10.909 123.723C12.5035 118.865 17.9254 114.353 26.1656 111.015C34.4058 107.677 44.845 105.815 55.4207 105.815C65.9964 105.815 76.3868 107.662 84.6758 111.015C92.9647 114.368 98.3281 118.835 99.9372 123.723C100.829 126.44 100.513 129.294 98.9913 132.212C94.4908 140.829 78.9418 150.101 55.4158 150.101Z" fill="url(#paint3_radial)"/>
<g filter="url(#filter0_f)">
<path d="M10.1474 124.677C9.22541 127.398 9.55612 130.242 11.1145 133.179C15.7345 141.794 31.714 151.094 55.8862 151.094C80.0634 151.094 96.043 141.808 100.668 133.179C102.231 130.257 102.557 127.398 101.64 124.677" stroke="white" stroke-width="2"/>
</g>
<path opacity="0.22" d="M83.9008 126.054C81.6238 120.462 69.01 116.547 55.4161 116.547C41.8222 116.547 29.2084 120.457 26.9363 126.054C24.2253 132.71 36.7318 140.457 55.4161 140.457C74.1003 140.457 86.6118 132.71 83.9008 126.054Z" fill="url(#paint4_linear)"/>
<g style="mix-blend-mode:multiply" opacity="0.34">
<g filter="url(#filter1_f)">
<path d="M96.2194 136.796C91.9287 138.556 80.6167 133.619 75.4971 130.931L77.4474 128.243L100.608 132.153C100.933 132.968 100.51 135.037 96.2194 136.796Z" fill="#341E01" fill-opacity="0.6"/>
</g>
</g>
<g style="mix-blend-mode:multiply" opacity="0.34">
<g filter="url(#filter2_f)">
<path d="M97.926 119.929C108.165 126.527 62.8199 135.569 61.8447 135.569L73.0592 108.199L91.0998 109.421L99.3888 115.042L97.926 119.929Z" fill="#2B1800" fill-opacity="0.7"/>
</g>
</g>
<path style="mix-blend-mode:multiply" d="M54.9405 143.983C71.1408 143.983 84.2736 136.786 84.2736 127.908C84.2736 119.031 71.1408 111.833 54.9405 111.833C38.7403 111.833 25.6074 119.031 25.6074 127.908C25.6074 136.786 38.7403 143.983 54.9405 143.983Z" fill="url(#paint5_radial)"/>
<path d="M89.9595 95.0034C89.9595 95.0034 89.9595 105.859 87.5558 114.7C87.5558 114.7 81.9388 124.881 74.4543 130.242C74.4543 130.242 67.4136 136.049 54.951 136.049C48.0231 136.067 41.242 134.049 35.4476 130.242C27.9631 124.866 22.351 114.7 22.351 114.7C19.9229 105.834 19.9229 95.0034 19.9229 95.0034" fill="url(#paint6_radial)"/>
<path style="mix-blend-mode:multiply" d="M84.9747 118.784C84.9747 118.784 78.6702 120.974 77.8316 121.976C77.8316 121.976 75.8813 126.252 75.4766 129.439C79.4455 126.282 82.8098 121.951 84.9747 118.784Z" fill="url(#paint7_linear)"/>
<path d="M54.9412 125.306C69.7735 125.306 82.9188 121.049 87.5558 114.676C89.9595 105.829 89.9595 95.0034 89.9595 95.0034H19.9229C19.9229 95.0034 19.9228 105.854 22.3266 114.695C26.7832 121.044 40.1089 125.306 54.9412 125.306Z" fill="url(#paint8_linear)"/>
<path style="mix-blend-mode:multiply" opacity="0.3" d="M85.5217 106.929C85.5217 106.929 84.7221 103.063 77.6814 102.975C70.6406 102.887 68.6025 108.786 68.6025 113.576C68.6025 117.921 69.646 124.925 75.5945 125.839C81.543 126.753 87.4672 120.331 84.7562 119.25C83.9806 118.978 83.1488 118.906 82.3382 119.042C81.5275 119.178 80.7642 119.517 80.1193 120.028C78.6858 121.274 74.5413 123.742 74.5413 114.891C74.5413 110.429 76.36 108.048 78.0958 108.102C79.4464 108.151 80.7483 109.671 81.0945 112.833C81.0945 112.833 83.3569 114.207 84.7562 112.467C86.1556 110.727 85.5217 106.929 85.5217 106.929Z" fill="url(#paint9_linear)"/>
<path style="mix-blend-mode:multiply" opacity="0.4" d="M81.2939 111.439C79.8302 114.218 78.7805 117.197 78.1782 120.281C80.4057 119.394 82.5594 118.332 84.6192 117.104C85.335 115.999 85.9424 114.827 86.433 113.605C86.9547 111.796 81.2939 111.439 81.2939 111.439Z" fill="url(#paint10_linear)"/>
<path d="M54.9412 108.244C74.2813 108.244 89.9595 102.305 89.9595 94.979C89.9595 87.6531 74.2813 81.7144 54.9412 81.7144C35.6011 81.7144 19.9229 87.6531 19.9229 94.979C19.9229 102.305 35.6011 108.244 54.9412 108.244Z" fill="url(#paint11_linear)"/>
<path d="M54.9415 107.127C73.0509 107.127 87.7315 101.567 87.7315 94.7077C87.7315 87.8488 73.0509 82.2886 54.9415 82.2886C36.832 82.2886 22.1514 87.8488 22.1514 94.7077C22.1514 101.567 36.832 107.127 54.9415 107.127Z" fill="url(#paint12_linear)"/>
<path d="M82.295 115.83C81.8215 115.665 81.4184 115.344 81.1524 114.918C80.8864 114.492 80.7734 113.988 80.8322 113.489C81.0892 111.232 82.2074 109.162 83.9528 107.712C85.5131 106.353 88.263 105.522 91.2958 105.522C98.7802 105.522 105.806 111.212 105.806 119.598C105.806 125.351 101.486 129.237 99.0679 130.654C97.6344 131.499 95.1672 132.12 92.4221 132.12C84.8938 132.12 80.1252 126.666 78.2822 124.046C77.9845 123.631 77.8321 123.129 77.8489 122.618C77.8657 122.107 78.0506 121.616 78.3748 121.221C79.0158 120.448 79.7589 119.765 80.5836 119.193C81.8732 118.26 83.4671 117.852 85.045 118.049C85.045 118.049 86.4346 122.125 90.0817 123.337C94.9576 124.965 97.9416 123.337 97.9416 123.337C97.9416 123.337 100.048 115.029 91.603 113.074C85.5667 111.681 87.0831 117.355 82.3389 115.879L82.295 115.83Z" fill="url(#paint13_linear)"/>
<g filter="url(#filter3_f)">
<path d="M93.0495 132.148C87.1985 132.734 81.3475 127.668 79.1533 125.061C81.2987 127.211 84.4547 129.29 88.4174 129.215C92.3341 129.142 95.4874 128.238 97.9253 123.595C98.4704 122.557 100.688 127.26 101.582 128.482C101.176 129.46 98.9005 131.561 93.0495 132.148Z" fill="url(#paint14_linear)"/>
</g>
<g filter="url(#filter4_f)">
<path d="M81.4408 114.916C81.7068 115.341 82.11 115.663 82.5834 115.828L82.6273 115.877C83.0646 116.117 84.3954 115.977 85.0061 115.877L84.2412 107.71C82.4959 109.159 81.3776 111.23 81.1207 113.487C81.0618 113.986 81.1748 114.49 81.4408 114.916Z" fill="url(#paint15_linear)" fill-opacity="0.28"/>
</g>
<path d="M97.9277 123.269C97.9277 123.269 97.9764 122.986 98.0203 122.477C98.0806 121.785 98.0806 121.088 98.0203 120.395C97.9376 119.427 97.6954 118.479 97.3036 117.59C97.084 117.094 96.8057 116.626 96.4747 116.197C96.1427 115.749 95.7524 115.348 95.3142 115.004C94.4419 114.315 93.4501 113.793 92.3887 113.465C91.9009 113.307 91.4044 113.178 90.9016 113.079C90.4558 112.987 90.0011 112.946 89.5461 112.957C88.8573 112.959 88.1826 113.152 87.5958 113.514C87.3861 113.646 87.2252 113.763 87.1082 113.846L86.9473 113.978L87.0887 113.827C87.2273 113.686 87.3756 113.555 87.5324 113.436C88.1071 112.997 88.7965 112.736 89.5168 112.683C89.9948 112.645 90.4756 112.659 90.9503 112.727C91.4764 112.796 91.9963 112.906 92.5057 113.054C93.054 113.213 93.5875 113.419 94.1001 113.67C94.6358 113.938 95.1396 114.266 95.6019 114.648C96.516 115.39 97.2287 116.352 97.6741 117.443C98.0474 118.387 98.2505 119.39 98.2739 120.405C98.2941 121.113 98.2401 121.82 98.113 122.516C98.0671 122.771 98.0052 123.022 97.9277 123.269V123.269Z" fill="white"/>
<path d="M97.9249 123.265C97.9249 123.265 94.9409 124.912 90.065 123.265C86.4179 122.053 85.0283 117.977 85.0283 117.977C83.4504 117.779 81.8565 118.188 80.5669 119.12C79.6551 119.753 78.8446 120.521 78.1631 121.398C79.3235 123.905 81.4348 126.745 84.7504 127.996C92.8053 131.061 97.3739 125.567 97.9249 123.265Z" fill="url(#paint16_linear)"/>
<path d="M78.1782 121.417C78.1782 121.417 78.3586 121.769 78.7097 122.361C78.8852 122.654 79.1095 123.011 79.3874 123.397C79.6654 123.783 79.9969 124.208 80.3626 124.653C80.7772 125.125 81.227 125.564 81.7083 125.968C82.2433 126.415 82.8177 126.813 83.4246 127.155C83.5825 127.249 83.7453 127.334 83.9122 127.41C84.0707 127.494 84.2335 127.571 84.3998 127.639C84.5705 127.703 84.7509 127.791 84.9118 127.84L85.4627 128.011C86.1939 128.253 86.9442 128.433 87.7056 128.548L88.8563 128.666C89.2366 128.666 89.6218 128.666 89.9973 128.666C90.3727 128.666 90.7482 128.573 91.1187 128.534C91.4893 128.495 91.8306 128.358 92.1865 128.28C92.5425 128.201 92.8545 128.03 93.1617 127.918C93.4689 127.805 93.7858 127.625 94.0784 127.468C94.3709 127.312 94.644 127.131 94.8975 126.95C95.1511 126.769 95.3851 126.588 95.6143 126.393C96.0131 126.044 96.3863 125.667 96.7308 125.264C96.8771 125.073 97.0234 124.902 97.1404 124.736L97.4476 124.247C97.5777 124.017 97.6933 123.779 97.7938 123.534L97.8913 123.265L97.8181 123.539C97.7434 123.797 97.6472 124.049 97.5305 124.291L97.2525 124.78C97.1453 124.961 97.0088 125.142 96.8771 125.347C96.5549 125.786 96.1943 126.195 95.7995 126.569C95.585 126.779 95.312 126.965 95.0828 127.175C94.8536 127.385 94.5416 127.546 94.2588 127.747C93.976 127.947 93.6444 128.079 93.3275 128.236C93.0106 128.392 92.6449 128.509 92.2889 128.631C91.933 128.754 91.5576 128.837 91.1772 128.915C90.7969 128.993 90.4069 129.037 90.0119 129.071C89.617 129.106 89.2172 129.101 88.8173 129.096L87.6179 128.993C86.8332 128.859 86.0603 128.663 85.3067 128.407L84.7557 128.226C84.551 128.162 84.3901 128.074 84.2048 128.001C84.0195 127.928 83.8537 127.84 83.6831 127.757C83.5124 127.673 83.3466 127.581 83.1955 127.483C82.0183 126.78 80.979 125.867 80.1286 124.79C79.5313 124.031 79.0148 123.212 78.5878 122.346C78.4318 122.038 78.3196 121.789 78.2514 121.618L78.1782 121.417Z" fill="white"/>
<path style="mix-blend-mode:screen" d="M68.6191 122.797C70.2834 122.504 71.8762 122.159 73.3975 121.761L74.0557 106.928L68.9946 108.169L68.6191 122.797Z" fill="url(#paint17_linear)"/>
<path style="mix-blend-mode:screen" d="M66.5503 123.135L67.7048 122.955L68.3478 108.243L66.8864 108.595L66.5503 123.135Z" fill="url(#paint18_linear)"/>
<g filter="url(#filter5_f)">
<ellipse cx="55.507" cy="94.0259" rx="33.3996" ry="12.2187" fill="white"/>
</g>
<ellipse cx="55.507" cy="94.5156" rx="33.3996" ry="12.2187" fill="#9C6720"/>
<g filter="url(#filter6_f)">
<ellipse cx="55.5066" cy="94.5142" rx="30.9616" ry="11.2412" fill="#E4AA60"/>
</g>
<g filter="url(#filter7_f)">
<ellipse cx="55.504" cy="94.5148" rx="25.5982" ry="8.79749" fill="#F1C998"/>
</g>
<g filter="url(#filter8_f)">
<ellipse cx="55.5073" cy="94.5129" rx="21.2099" ry="6.35374" fill="#FFE0BA"/>
</g>
<g filter="url(#filter9_f)">
<path d="M91.5879 105.511C99.0723 105.511 105.855 111.445 105.855 119.832C105.855 125.584 101.808 129.02 99.3893 130.437" stroke="url(#paint19_linear)" stroke-opacity="0.5"/>
</g>
<g filter="url(#filter10_f)">
<path d="M89.7066 95.0034C89.7066 102.329 74.0284 108.268 54.6883 108.268C35.3482 108.268 19.6699 102.329 19.6699 95.0034" stroke="white" stroke-width="2"/>
</g>
<g clip-path="url(#clip0)">
<g filter="url(#filter11_d)">
<path fill-rule="evenodd" clip-rule="evenodd" d="M86.5651 16.3167L190.557 25.8404C193.875 26.1469 196.488 29.5846 195.569 32.7772L178.812 90.8474C177.893 94.04 175.158 96.3725 171.872 95.8392L114.022 86.4523L96.0816 99.2487L100.29 84.2241L86.183 81.9349C82.8688 81.3971 81.2649 78.3097 81.1702 75.0036L79.6477 21.3066C79.5263 17.9904 83.2475 16.0102 86.5651 16.3167Z" fill="url(#paint20_linear)"/>
</g>
<path d="M110.493 46.7588C108.228 46.4871 106.338 45.7522 104.825 44.5542C104.882 44.075 105.148 43.3335 105.622 42.3296C106.093 43.0049 106.764 43.5826 107.635 44.0626C108.53 44.5235 109.511 44.8179 110.578 44.9459C111.972 45.1131 113.087 44.9375 113.923 44.419C114.783 43.8813 115.279 43.057 115.413 41.946C115.52 41.0529 115.362 40.2495 114.939 39.5359C114.519 38.8005 113.861 38.2133 112.963 37.7742C112.331 37.6984 111.726 37.7695 111.148 37.9873C110.593 38.186 110.18 38.5011 109.907 38.9324C109.733 38.9115 109.535 38.8104 109.314 38.6292C109.095 38.4262 108.992 38.2702 109.005 38.1613C109.259 37.7056 109.683 37.3034 110.277 36.9548L117.297 32.5928C117.108 32.504 114.999 32.2179 110.969 31.7346C110.185 31.6405 109.548 31.6083 109.058 31.638C108.569 31.6676 108.126 31.7692 107.729 31.9426C107.61 31.4642 107.532 30.9136 107.497 30.2906C107.463 29.6458 107.477 29.0729 107.537 28.5718C108.336 28.9107 109.857 29.2147 112.101 29.4838C113.8 29.6876 115.115 29.779 116.046 29.758C117.001 29.7178 117.784 29.5466 118.394 29.2442C118.763 29.4872 119.033 29.8179 119.203 30.2361C119.396 30.657 119.464 31.107 119.406 31.5863C119.333 32.1962 119.104 32.7212 118.72 33.1613C118.336 33.6013 117.689 34.1094 116.781 34.6854L113.558 36.6854C115.186 36.9249 116.458 37.5635 117.372 38.6012C118.308 39.6415 118.689 40.8805 118.517 42.3183C118.308 44.061 117.517 45.314 116.144 46.0774C114.795 46.8217 112.911 47.0488 110.493 46.7588Z" fill="white"/>
<path d="M129.81 48.5237C129.881 48.4708 129.98 48.4017 130.107 48.3165C130.241 48.2245 130.41 48.1172 130.614 47.9943C130.77 47.9117 130.885 47.8292 130.959 47.7468C131.033 47.6644 131.074 47.5754 131.082 47.4798C131.112 47.1342 131.128 46.9133 131.129 46.817C131.137 46.7214 131.144 46.6479 131.148 46.5964C131.21 45.8905 131.276 45.3406 131.348 44.9468C131.419 44.553 131.488 44.3108 131.556 44.2204L131.563 43.8876L131.503 43.8045C131.51 43.7236 131.516 43.6538 131.521 43.595C131.534 43.5294 131.543 43.4746 131.547 43.4305C131.582 43.026 131.424 42.7528 131.072 42.6107C130.728 42.4692 130.571 42.2294 130.6 41.8911C130.609 41.7882 130.723 41.6723 130.942 41.5434C131.162 41.4071 131.481 41.2499 131.897 41.0717C131.98 40.7159 132.07 40.3274 132.166 39.9061C132.262 39.4848 132.373 39.0203 132.499 38.5127C132.478 38.4145 132.463 38.3354 132.453 38.2752C132.444 38.2078 132.442 38.1483 132.446 38.0968C132.469 37.8394 132.519 37.6067 132.596 37.3987C132.674 37.1906 132.773 36.9955 132.893 36.8134C132.968 36.7163 133.062 36.6135 133.176 36.5049C133.29 36.389 133.427 36.264 133.587 36.1299C133.715 36.03 133.812 35.9422 133.878 35.8665C133.944 35.7834 133.98 35.7162 133.984 35.6647C133.99 35.6059 133.968 35.5558 133.919 35.5145C133.878 35.4738 133.814 35.4496 133.725 35.4418C133.453 35.4178 133.043 35.4707 132.497 35.6005C131.951 35.7229 131.546 35.7724 131.281 35.749C131.192 35.7412 131.127 35.7244 131.084 35.6984C131.049 35.6731 131.034 35.6347 131.039 35.5832C131.052 35.4362 131.07 35.3081 131.095 35.1991C131.119 35.0901 131.144 35.0145 131.17 34.9724C131.304 34.8878 131.408 34.8043 131.482 34.7219C131.563 34.6402 131.608 34.5552 131.615 34.4669C131.618 34.4302 131.659 34.3856 131.738 34.3333C131.825 34.2816 131.954 34.2412 132.128 34.212C132.823 34.0805 133.351 33.9788 133.714 33.907C134.084 33.8359 134.296 33.7952 134.349 33.7851C134.771 33.7185 135.171 33.6796 135.551 33.6686C135.932 33.6502 136.284 33.6553 136.608 33.6839C136.645 33.6871 136.718 33.7046 136.827 33.7364C136.936 33.7609 137.01 33.7674 137.048 33.7559C137.197 33.7468 137.354 33.7347 137.519 33.7196C137.563 33.7235 137.69 33.7569 137.9 33.8198C138.111 33.8754 138.405 33.9569 138.781 34.0641C138.864 34.0566 138.954 34.046 139.052 34.0323C139.265 34.0512 139.439 34.0998 139.574 34.1783C139.715 34.2575 139.822 34.3595 139.892 34.4843C139.994 34.5154 140.092 34.5352 140.188 34.5436C140.38 34.5605 140.548 34.6309 140.693 34.7548C140.847 34.8721 140.974 35.0351 141.074 35.2441C141.161 35.4443 141.225 35.6427 141.267 35.839C141.31 36.0281 141.323 36.2218 141.306 36.4204C141.272 36.8101 141.155 37.174 140.954 37.512C140.762 37.8434 140.487 38.1452 140.129 38.4175C140.09 38.4363 139.898 38.5527 139.552 38.7668C139.215 38.9742 138.722 39.2643 138.073 39.6369C138.002 39.6752 137.92 39.7309 137.824 39.804C137.729 39.8771 137.614 39.9522 137.481 40.0294C136.845 40.3365 136.233 40.6309 135.644 40.9125C135.15 41.1283 134.773 41.3137 134.514 41.4688C134.256 41.6239 134.123 41.7382 134.117 41.8117C134.104 41.9588 134.155 42.0966 134.27 42.2253C134.386 42.3467 134.569 42.4628 134.819 42.5738C135.184 42.7392 135.594 42.9273 136.051 43.1379C136.508 43.3486 136.996 43.5953 137.513 43.8779C137.564 43.8972 137.624 43.9321 137.694 43.9827C137.771 44.034 137.855 44.0896 137.947 44.1495C138.56 44.4406 139.003 44.7723 139.275 45.1445C139.555 45.51 139.675 45.917 139.636 46.3656C139.579 47.02 138.932 47.5892 137.694 48.0729C136.463 48.5574 134.645 48.9605 132.24 49.2823C132.194 49.382 132.141 49.481 132.08 49.5794C132.027 49.6785 131.978 49.7742 131.933 49.8665C131.874 49.9429 131.795 49.9989 131.695 50.0346C131.595 50.0776 131.482 50.0936 131.357 50.0826C131.217 50.0703 131.11 50.009 131.038 49.899C130.966 49.7962 130.924 49.6369 130.913 49.4211C130.858 49.3644 130.812 49.3382 130.775 49.3423L130.13 49.4522C130.053 49.401 129.979 49.3537 129.909 49.3105C129.845 49.2752 129.778 49.2359 129.707 49.1927C129.637 49.1421 129.583 49.0817 129.545 49.0117C129.506 48.9489 129.489 48.8808 129.496 48.8073C129.501 48.7411 129.528 48.6879 129.576 48.6477C129.631 48.6154 129.709 48.5741 129.81 48.5237ZM133.661 43.5943C133.543 43.584 133.43 43.6778 133.324 43.8759C133.226 44.0673 133.133 44.3593 133.047 44.7518C132.986 45.1169 132.924 45.4857 132.861 45.8581C132.8 46.2232 132.738 46.5882 132.677 46.9533C132.617 47.1332 132.563 47.3249 132.515 47.5282L132.528 47.6404L132.612 47.6923C132.914 47.6374 133.25 47.5817 133.619 47.5253C133.869 47.5473 134.019 47.5382 134.067 47.498C134.123 47.4511 134.744 47.2242 135.931 46.8174C136.436 46.6544 136.817 46.4953 137.076 46.3402C137.335 46.1778 137.471 46.0304 137.482 45.8981C137.489 45.8172 137.463 45.7371 137.403 45.6577C137.343 45.5783 137.25 45.4923 137.124 45.3998C136.797 45.1487 136.431 44.9164 136.026 44.7029C135.622 44.4821 135.176 44.2761 134.687 44.0849C134.623 44.057 134.548 44.0281 134.461 43.9983C134.383 43.9617 134.293 43.9242 134.192 43.8857C134.037 43.7979 133.916 43.728 133.832 43.6761C133.754 43.6248 133.697 43.5976 133.661 43.5943ZM136.527 35.5107C136.247 35.486 136.017 35.4879 135.836 35.5165C135.663 35.5383 135.536 35.5901 135.455 35.6719C135.39 35.7255 135.318 35.834 135.237 35.9973C135.163 36.1612 135.076 36.387 134.977 36.6746C134.934 36.8338 134.896 37.012 134.864 37.2093C134.839 37.4071 134.82 37.6241 134.807 37.86C134.709 38.0441 134.61 38.1984 134.51 38.323L134.541 38.6146C134.42 38.9745 134.332 39.2631 134.276 39.4805C134.219 39.6978 134.188 39.8433 134.182 39.9168C134.172 40.0271 134.188 40.1063 134.228 40.1543C134.268 40.2023 134.329 40.2299 134.41 40.237C134.484 40.2435 134.664 40.1779 134.951 40.0401C135.245 39.903 135.65 39.6941 136.164 39.4133C136.733 39.1078 137.166 38.8754 137.462 38.7162C137.766 38.5503 137.941 38.4583 137.988 38.4401C138.094 38.3309 138.196 38.225 138.294 38.1225C138.4 38.0133 138.502 37.9075 138.6 37.8049C138.739 37.6616 138.843 37.5336 138.912 37.4212C138.982 37.3013 139.021 37.1936 139.029 37.098C139.045 36.9216 139.003 36.7586 138.905 36.6092C138.807 36.4597 138.651 36.3238 138.439 36.2014C138.368 36.1655 138.239 36.1097 138.053 36.034C137.873 35.9589 137.639 35.879 137.349 35.7942C137.112 35.7066 136.925 35.6383 136.788 35.5892C136.651 35.5401 136.564 35.5139 136.527 35.5107Z" fill="white"/>
<path d="M150.158 34.6989C150.32 34.7131 150.434 34.775 150.498 34.8844C150.563 34.9939 150.587 35.1479 150.57 35.3464C150.537 35.7214 150.488 36.0691 150.423 36.3894C150.365 36.7103 150.285 36.9923 150.182 37.2351C150.044 37.5416 149.91 37.8447 149.78 38.1445C149.658 38.4375 149.531 38.7376 149.4 39.0447C149.279 39.16 149.197 39.2491 149.154 39.312C149.126 39.4651 149.094 39.6143 149.059 39.7594C149.047 39.8176 149.013 39.8701 148.957 39.917C148.908 39.9646 148.844 40.0183 148.764 40.0779C148.736 40.1495 148.699 40.2352 148.653 40.3349C148.607 40.4272 148.553 40.5373 148.49 40.6651C148.266 41.0233 147.969 41.4491 147.599 41.9427C147.237 42.4295 146.798 42.991 146.282 43.6273C146.264 43.7443 146.251 43.8543 146.242 43.9572L145.507 45.2263C145.252 45.6855 145.024 46.1285 144.823 46.5554C144.631 46.9757 144.476 47.3807 144.361 47.7707C144.297 47.9874 144.244 48.168 144.202 48.3125C144.168 48.4502 144.148 48.5485 144.143 48.6074C144.136 48.6809 144.171 48.7988 144.246 48.961C144.321 49.1158 144.358 49.2116 144.354 49.2484C144.34 49.4102 144.105 49.6006 143.647 49.8197C143.197 50.0394 142.921 50.1411 142.818 50.1246C142.71 50.0928 142.594 50.0604 142.47 50.0273C142.354 50.0022 142.245 49.9741 142.143 49.9429C141.992 49.8925 141.878 49.8307 141.803 49.7574C141.727 49.6914 141.693 49.6106 141.702 49.515C141.708 49.4415 141.746 49.3004 141.816 49.0917C141.911 48.774 142.018 48.487 142.137 48.2307C142.264 47.9677 142.411 47.7287 142.578 47.5137L142.615 47.4725C142.596 47.4412 142.58 47.4028 142.569 47.3574C142.566 47.3126 142.555 47.2635 142.538 47.2101C142.586 47.081 142.652 46.9237 142.735 46.7384C142.818 46.553 142.926 46.3402 143.058 46.0999C143.142 45.9888 143.229 45.8408 143.319 45.6561C143.41 45.4641 143.496 45.2457 143.577 45.0008C143.338 44.7649 143.144 44.5218 142.994 44.2715C142.845 44.0213 142.749 43.7646 142.705 43.5014C142.657 43.3712 142.593 43.2063 142.514 43.0066C142.436 42.7997 142.353 42.5553 142.266 42.2735L141.693 39.3888C141.69 39.1662 141.68 38.9023 141.662 38.5969C141.652 38.2848 141.62 37.93 141.565 37.5325L141.687 37.2875L141.52 37.0283C141.525 36.9695 141.525 36.888 141.519 36.7837C141.522 36.6728 141.518 36.5391 141.51 36.3828C141.5 36.2337 141.497 36.1074 141.498 36.0038C141.508 35.8935 141.516 35.8016 141.522 35.7281C141.546 35.456 141.605 35.25 141.699 35.1101C141.793 34.9702 141.922 34.8889 142.088 34.8665C142.139 34.871 142.194 34.8759 142.253 34.8811C142.32 34.8795 142.391 34.882 142.465 34.8885C142.553 34.8963 142.832 34.8023 143.302 34.6066C143.509 34.6248 143.67 34.6945 143.786 34.8159C143.902 34.9299 143.974 35.0881 144.001 35.2905C144.014 35.3954 144.016 35.5438 144.006 35.7356C143.998 35.9201 143.982 36.141 143.96 36.3984C143.947 36.5381 143.915 36.739 143.862 37.0011C143.817 37.2639 143.789 37.4578 143.778 37.5828C143.774 37.6269 143.774 37.6787 143.776 37.7382C143.786 37.791 143.795 37.8658 143.801 37.9627C143.787 38.206 143.787 38.5061 143.8 38.8629C143.822 39.2131 143.85 39.6157 143.885 40.0707C143.906 40.3393 143.943 40.6761 143.997 41.081C144.051 41.4785 144.115 41.9435 144.187 42.4759C144.24 42.5547 144.291 42.6481 144.341 42.7562C144.399 42.8577 144.452 42.9735 144.5 43.1037L144.574 43.1546C144.618 43.1585 144.739 43.0025 144.938 42.6865C145.144 42.3638 145.428 41.8812 145.788 41.2386C145.84 41.1543 145.902 41.0449 145.973 40.9103C146.045 40.7685 146.129 40.6055 146.227 40.4215C146.268 40.3806 146.314 40.3253 146.364 40.2557C146.415 40.186 146.474 40.1023 146.542 40.0046C146.59 39.8828 146.659 39.7296 146.749 39.5449C146.84 39.3528 146.953 39.1293 147.086 38.8743C147.197 38.7137 147.322 38.5172 147.461 38.2849C147.608 38.0459 147.77 37.7638 147.947 37.4385C147.958 37.395 148.115 37.1681 148.419 36.7576C148.73 36.3404 149.175 35.7461 149.755 34.9746C149.823 34.8842 149.892 34.8162 149.962 34.7706C150.034 34.7176 150.099 34.6937 150.158 34.6989Z" fill="white"/>
<path d="M151.477 38.2272L151.363 37.4947C151.42 37.3515 151.477 37.2083 151.534 37.0652C151.592 36.9146 151.645 36.7675 151.695 36.6236C151.748 36.5246 151.829 36.4539 151.936 36.4115C152.052 36.3624 152.198 36.3456 152.375 36.3612C152.442 36.367 152.542 36.3611 152.678 36.3434C152.82 36.3263 152.921 36.3203 152.98 36.3255C153.046 36.3314 153.13 36.3906 153.232 36.5033C153.334 36.616 153.406 36.6816 153.449 36.7002C153.504 36.668 153.572 36.611 153.653 36.5293C153.742 36.4482 153.848 36.3389 153.971 36.2016C154.078 36.0924 154.178 36.0049 154.273 35.9392C154.368 35.8734 154.468 35.8304 154.574 35.8101C154.687 35.8793 154.786 35.9361 154.871 35.9807C154.92 36.0147 154.95 36.0507 154.962 36.0887C154.981 36.1274 154.987 36.1799 154.982 36.2461C154.978 36.2828 154.953 36.3621 154.905 36.4839C154.858 36.5983 154.789 36.7552 154.697 36.9546C154.597 37.168 154.518 37.3464 154.461 37.4895C154.404 37.6327 154.364 37.7441 154.343 37.8237C154.217 37.9831 154.115 38.1297 154.037 38.2636C153.966 38.3908 153.926 38.5132 153.916 38.6308C153.903 38.7779 153.928 39.0024 153.991 39.3043C154.054 39.5989 154.152 39.9705 154.283 40.4193C154.468 41.0284 154.654 41.6634 154.841 42.3246C155.001 43.05 155.174 43.7543 155.359 44.4375C155.545 45.1134 155.745 45.7645 155.958 46.3908C156.175 47.0472 156.359 47.5376 156.509 47.862C156.659 48.1865 156.778 48.3526 156.867 48.3604C156.94 48.3668 156.996 48.3309 157.032 48.2526C157.077 48.1677 157.107 48.0332 157.123 47.8494C157.129 47.7759 157.145 47.6809 157.17 47.5646C157.202 47.4489 157.247 47.3231 157.303 47.1873C157.387 46.9946 157.469 46.7758 157.55 46.531C157.657 46.1551 157.752 45.8264 157.836 45.5448C157.928 45.2638 158.005 45.0224 158.067 44.8204C158.108 44.6906 158.165 44.4141 158.239 43.9908C158.313 43.5676 158.401 42.9936 158.501 42.2689C158.507 42.1953 158.527 42.0934 158.561 41.9629C158.602 41.8332 158.641 41.6847 158.678 41.5175C158.722 41.351 158.757 41.2095 158.782 41.0932C158.807 40.9695 158.824 40.8598 158.833 40.7642C158.847 40.5951 158.851 40.3435 158.843 40.0093C158.835 39.6678 158.839 39.4125 158.854 39.2434C159.005 38.7899 159.148 38.3467 159.282 37.9139C159.396 37.5387 159.501 37.2293 159.597 36.9858C159.693 36.7349 159.773 36.5456 159.836 36.4178C159.977 36.1634 160.14 35.9481 160.327 35.7719C160.513 35.5882 160.716 35.443 160.933 35.3362L161.021 35.344C161.095 35.3505 161.142 35.3694 161.161 35.4007C161.188 35.4328 161.199 35.4818 161.193 35.548C161.143 35.6992 161.099 35.8139 161.063 35.8922C161.073 36.0265 161.083 36.1682 161.092 36.3172C161.054 36.4991 161.015 36.6512 160.975 36.7737C160.953 36.8533 160.927 36.977 160.898 37.1448C160.869 37.3053 160.844 37.5032 160.824 37.7385C160.816 37.8267 160.788 38.0169 160.74 38.3091C160.693 38.5939 160.619 38.9764 160.518 39.4566C160.413 40.1439 160.298 40.8265 160.172 41.5046C160.053 42.1832 159.931 42.8616 159.805 43.5396C159.674 44.358 159.524 45.1043 159.354 45.7784C159.184 46.4452 158.999 47.0401 158.797 47.5633C158.732 47.8836 158.63 48.2378 158.493 48.6257C158.362 49.0144 158.199 49.4335 158.004 49.8832L157.613 50.4045C157.589 50.432 157.348 50.5071 156.892 50.63C156.436 50.7454 156.182 50.8009 156.131 50.7964C156.02 50.7866 155.867 50.6286 155.67 50.3224C155.475 50.0088 155.252 49.5409 155.002 48.9186C154.761 48.3565 154.571 47.8952 154.432 47.5347C154.293 47.1668 154.209 46.8927 154.18 46.7123C154.171 46.6448 154.157 46.5583 154.136 46.4528C154.116 46.3472 154.093 46.2266 154.067 46.091C153.948 45.7545 153.795 45.3372 153.608 44.8391C153.429 44.3417 153.22 43.7528 152.982 43.0723C152.945 42.906 152.892 42.7458 152.824 42.5916C152.763 42.4307 152.685 42.2608 152.59 42.0819L152.509 42.1082C152.445 42.2507 152.377 42.43 152.306 42.6461C152.236 42.8621 152.153 43.1216 152.06 43.4246C151.969 43.6167 151.876 43.7864 151.782 43.9336C151.634 44.3504 151.468 44.8026 151.285 45.2903C151.101 45.778 150.903 46.3015 150.691 46.8608C150.63 47.0481 150.568 47.2428 150.506 47.4448C150.444 47.6468 150.374 47.8555 150.296 48.0709L150.065 48.4173C150.016 48.6353 149.964 48.8493 149.909 49.0594C149.842 49.2239 149.758 49.424 149.656 49.6595C149.561 49.8883 149.445 50.1633 149.305 50.4845C149.268 50.6517 149.202 50.7718 149.107 50.8449C149.018 50.926 148.899 50.9638 148.751 50.9581C148.734 50.9862 148.702 51.0131 148.655 51.0386C148.608 51.0715 148.531 51.0981 148.425 51.1184C148.35 51.1266 148.299 51.0813 148.27 50.9825C148.241 50.891 148.234 50.757 148.249 50.5805C148.258 50.4776 148.291 50.3174 148.347 50.1C148.403 49.8827 148.483 49.6081 148.586 49.2764C148.7 48.9011 148.789 48.6088 148.852 48.3995C148.923 48.1834 148.968 48.0466 148.988 47.9891C149.033 47.8152 149.086 47.5865 149.148 47.303C149.21 47.0194 149.279 46.6921 149.356 46.321C149.379 46.2267 149.412 46.111 149.453 45.9738C149.503 45.83 149.562 45.6648 149.63 45.4781C149.68 45.3343 149.788 44.9437 149.955 44.3064C150.123 43.6617 150.346 42.7662 150.624 41.6199C150.915 40.497 151.2 39.3661 151.477 38.2272Z" fill="white"/>
<path fill-rule="evenodd" clip-rule="evenodd" d="M95.372 50.3747C95.335 50.6805 95.0566 50.8982 94.7501 50.8609L94.1947 50.7934C93.8882 50.7562 93.6696 50.4781 93.7066 50.1723C93.7435 49.8665 94.0219 49.6488 94.3284 49.6861L94.8839 49.7536C95.1904 49.7909 95.4089 50.069 95.372 50.3747Z" fill="white"/>
<path fill-rule="evenodd" clip-rule="evenodd" d="M166.675 59.2039C166.638 59.5099 166.358 59.7271 166.052 59.6891L165.503 59.6212C165.196 59.5832 164.978 59.3044 165.015 58.9985C165.053 58.6925 165.332 58.4753 165.639 58.5132L166.188 58.5812C166.495 58.6192 166.713 58.898 166.675 59.2039ZM163.935 58.8647C163.897 59.1707 163.618 59.3879 163.312 59.35L162.213 59.214C161.907 59.176 161.689 58.8972 161.726 58.5913C161.764 58.2853 162.043 58.0681 162.35 58.1061L163.448 58.242C163.755 58.28 163.973 58.5588 163.935 58.8647ZM160.646 58.4576C160.608 58.7635 160.329 58.9808 160.022 58.9428L158.924 58.8068C158.618 58.7689 158.399 58.4901 158.437 58.1841C158.475 57.8782 158.754 57.6609 159.061 57.6989L160.159 57.8348C160.465 57.8728 160.684 58.1516 160.646 58.4576ZM157.357 58.0504C157.319 58.3563 157.04 58.5736 156.733 58.5356L155.635 58.3997C155.328 58.3617 155.11 58.0829 155.148 57.777C155.186 57.471 155.465 57.2538 155.771 57.2917L156.87 57.4277C157.176 57.4656 157.394 57.7444 157.357 58.0504ZM154.068 57.6432C154.03 57.9492 153.751 58.1664 153.444 58.1285L152.346 57.9925C152.039 57.9545 151.821 57.6757 151.859 57.3698C151.896 57.0638 152.176 56.8466 152.482 56.8846L153.58 57.0205C153.887 57.0585 154.105 57.3373 154.068 57.6432ZM150.778 57.2361C150.741 57.542 150.462 57.7593 150.155 57.7213L149.057 57.5853C148.75 57.5474 148.532 57.2686 148.57 56.9626C148.607 56.6567 148.886 56.4394 149.193 56.4774L150.291 56.6134C150.598 56.6513 150.816 56.9301 150.778 57.2361ZM147.489 56.8289C147.452 57.1348 147.173 57.3521 146.866 57.3141L145.768 57.1782C145.461 57.1402 145.243 56.8614 145.28 56.5555C145.318 56.2495 145.597 56.0323 145.904 56.0702L147.002 56.2062C147.309 56.2442 147.527 56.523 147.489 56.8289ZM144.2 56.4217C144.163 56.7277 143.883 56.9449 143.577 56.907L142.478 56.771C142.172 56.733 141.954 56.4542 141.991 56.1483C142.029 55.8423 142.308 55.6251 142.615 55.6631L143.713 55.799C144.02 55.837 144.238 56.1158 144.2 56.4217ZM140.911 56.0146C140.873 56.3205 140.594 56.5378 140.288 56.4998L139.189 56.3638C138.883 56.3259 138.665 56.0471 138.702 55.7411C138.74 55.4352 139.019 55.2179 139.326 55.2559L140.424 55.3919C140.731 55.4298 140.949 55.7086 140.911 56.0146ZM137.622 55.6074C137.584 55.9134 137.305 56.1306 136.998 56.0926L135.9 55.9567C135.593 55.9187 135.375 55.6399 135.413 55.334C135.451 55.028 135.73 54.8108 136.036 54.8487L137.135 54.9847C137.441 55.0227 137.659 55.3015 137.622 55.6074ZM134.333 55.2002C134.295 55.5062 134.016 55.7234 133.709 55.6855L132.611 55.5495C132.304 55.5115 132.086 55.2328 132.124 54.9268C132.161 54.6209 132.441 54.4036 132.747 54.4416L133.846 54.5775C134.152 54.6155 134.37 54.8943 134.333 55.2002ZM131.044 54.7931C131.006 55.099 130.727 55.3163 130.42 55.2783L129.322 55.1424C129.015 55.1044 128.797 54.8256 128.835 54.5196C128.872 54.2137 129.151 53.9964 129.458 54.0344L130.556 54.1704C130.863 54.2083 131.081 54.4871 131.044 54.7931ZM127.754 54.3859C127.717 54.6919 127.438 54.9091 127.131 54.8711L126.033 54.7352C125.726 54.6972 125.508 54.4184 125.546 54.1125C125.583 53.8065 125.862 53.5893 126.169 53.6272L127.267 53.7632C127.574 53.8012 127.792 54.08 127.754 54.3859ZM124.465 53.9787C124.428 54.2847 124.148 54.5019 123.842 54.464L122.744 54.328C122.437 54.2901 122.219 54.0113 122.256 53.7053C122.294 53.3994 122.573 53.1821 122.88 53.2201L123.978 53.356C124.285 53.394 124.503 53.6728 124.465 53.9787ZM121.176 53.5716C121.138 53.8775 120.859 54.0948 120.553 54.0568L119.454 53.9209C119.148 53.8829 118.93 53.6041 118.967 53.2981C119.005 52.9922 119.284 52.7749 119.591 52.8129L120.689 52.9489C120.996 52.9868 121.214 53.2656 121.176 53.5716ZM117.887 53.1644C117.849 53.4704 117.57 53.6876 117.263 53.6496L116.165 53.5137C115.859 53.4757 115.64 53.1969 115.678 52.891C115.716 52.585 115.995 52.3678 116.302 52.4057L117.4 52.5417C117.706 52.5797 117.925 52.8585 117.887 53.1644ZM114.598 52.7572C114.56 53.0632 114.281 53.2804 113.974 53.2425L112.876 53.1065C112.569 53.0686 112.351 52.7898 112.389 52.4838C112.427 52.1779 112.706 51.9606 113.012 51.9986L114.111 52.1345C114.417 52.1725 114.635 52.4513 114.598 52.7572ZM111.309 52.3501C111.271 52.656 110.992 52.8733 110.685 52.8353L109.587 52.6994C109.28 52.6614 109.062 52.3826 109.1 52.0766C109.137 51.7707 109.417 51.5535 109.723 51.5914L110.821 51.7274C111.128 51.7653 111.346 52.0441 111.309 52.3501ZM108.019 51.9429C107.982 52.2489 107.703 52.4661 107.396 52.4281L106.298 52.2922C105.991 52.2542 105.773 51.9754 105.811 51.6695C105.848 51.3635 106.127 51.1463 106.434 51.1843L107.532 51.3202C107.839 51.3582 108.057 51.637 108.019 51.9429ZM104.73 51.5358C104.693 51.8417 104.414 52.0589 104.107 52.021L103.009 51.885C102.702 51.8471 102.484 51.5683 102.521 51.2623C102.559 50.9564 102.838 50.7391 103.145 50.7771L104.243 50.913C104.55 50.951 104.768 51.2298 104.73 51.5358ZM101.441 51.1286C101.404 51.4345 101.124 51.6518 100.818 51.6138L99.7195 51.4779C99.4128 51.4399 99.1947 51.1611 99.2323 50.8551C99.2699 50.5492 99.5491 50.332 99.8558 50.3699L100.954 50.5059C101.261 50.5438 101.479 50.8226 101.441 51.1286ZM98.152 50.7214C98.1144 51.0274 97.8353 51.2446 97.5285 51.2066L96.9794 51.1387C96.6727 51.1007 96.4546 50.8219 96.4922 50.516C96.5299 50.21 96.809 49.9928 97.1157 50.0307L97.6648 50.0987C97.9715 50.1367 98.1897 50.4155 98.152 50.7214Z" fill="white"/>
<path fill-rule="evenodd" clip-rule="evenodd" d="M168.346 59.4109C168.309 59.7167 168.031 59.9344 167.724 59.8971L167.169 59.8296C166.862 59.7923 166.644 59.5142 166.681 59.2084C166.718 58.9026 166.996 58.6849 167.303 58.7222L167.858 58.7897C168.164 58.827 168.383 59.1051 168.346 59.4109Z" fill="white"/>
<path d="M99.5783 74.1182C98.6782 74.0009 97.8339 73.7549 97.0452 73.3803C96.2566 73.0057 95.5686 72.5309 94.9814 71.956C95.0394 71.5105 95.13 71.1145 95.253 70.7681C95.3761 70.4216 95.5499 70.0592 95.7745 69.6807C96.1308 70.3841 96.6386 70.9713 97.2978 71.4423C97.9791 71.8936 98.7314 72.1729 99.5549 72.2802C100.876 72.4524 101.971 72.0513 102.838 71.0769C103.705 70.1025 104.316 68.7775 104.67 67.102C103.199 67.9297 101.736 68.2488 100.28 68.0591C98.8823 67.8769 97.8235 67.1839 97.104 65.9801C96.3845 64.7762 96.1408 63.2833 96.373 61.5012C96.5298 60.2983 96.899 59.259 97.4805 58.3833C98.0812 57.5101 98.8362 56.8723 99.7456 56.4697C100.677 56.0474 101.689 55.9074 102.78 56.0497C103.968 56.2044 104.974 56.6981 105.801 57.5307C106.627 58.3633 107.205 59.4581 107.535 60.815C107.886 62.1521 107.953 63.656 107.735 65.3267C107.32 68.5121 106.421 70.8529 105.038 72.3491C103.658 73.823 101.838 74.4127 99.5783 74.1182ZM101.96 66.3751C103.079 66.1584 104.084 65.7684 104.976 65.2049C105.194 63.0812 105.082 61.4015 104.639 60.1658C104.219 58.9103 103.51 58.2177 102.515 58.0879C101.634 57.9731 100.888 58.2384 100.278 58.8839C99.6712 59.507 99.2907 60.4089 99.1369 61.5895C98.9627 62.9261 99.1216 64.0229 99.6137 64.8799C100.125 65.7394 100.907 66.2378 101.96 66.3751Z" fill="white"/>
<path d="M115.47 76.1892C114.129 76.0145 112.998 75.5046 112.076 74.6595C111.157 73.7921 110.495 72.6639 110.092 71.2747C109.708 69.8881 109.629 68.326 109.856 66.5885C110.094 64.7618 110.641 63.1794 111.497 61.8411C112.375 60.483 113.479 59.4828 114.809 58.8406C116.139 58.1984 117.58 57.9784 119.131 58.1805C120.414 58.3478 121.498 58.8514 122.382 59.6915C123.285 60.5341 123.92 61.6364 124.288 62.9983C124.678 64.3404 124.762 65.8579 124.542 67.5509C124.298 69.422 123.745 71.049 122.883 72.4319C122.04 73.8173 120.972 74.8447 119.677 75.5141C118.385 76.1613 116.983 76.3864 115.47 76.1892ZM116.223 73.7727C117.659 73.9599 118.888 73.4971 119.91 72.3842C120.931 71.2713 121.578 69.6679 121.851 67.574C122.101 65.6583 121.925 64.0156 121.325 62.6461C120.746 61.2567 119.815 60.3312 118.531 59.8694C117.593 59.7471 116.702 59.9368 115.857 60.4384C115.013 60.94 114.302 61.6856 113.725 62.6752C113.168 63.6672 112.802 64.8315 112.627 66.1681C112.447 67.5492 112.47 68.7981 112.694 69.9147C112.938 71.0339 113.357 71.9267 113.952 72.5933C114.566 73.2623 115.323 73.6554 116.223 73.7727Z" fill="white"/>
<path d="M134.439 71.5301C134.422 71.6653 134.493 71.8603 134.652 72.1149C134.819 72.3636 135.074 72.6787 135.416 73.0603C135.639 73.3026 135.869 73.5423 136.106 73.7796C136.351 74.0109 136.592 74.2452 136.83 74.4825C136.932 74.5921 137.065 74.7366 137.227 74.916C137.39 75.0885 137.58 75.2921 137.797 75.5267C137.956 75.6849 138.121 75.8439 138.292 76.0038C138.471 76.1646 138.663 76.3272 138.868 76.4915C139.002 76.6259 139.152 76.7726 139.316 76.9316C139.481 77.0907 139.672 77.2634 139.889 77.4498C140.013 77.5486 140.099 77.711 140.145 77.9371C140.192 78.1564 140.2 78.436 140.17 78.7759L140.044 79.0277L139.936 79.0652C139.868 79.0564 139.781 79.0141 139.674 78.9383C139.573 78.8701 139.445 78.7708 139.29 78.6406C139.259 78.6159 139.113 78.5213 138.852 78.3566C138.598 78.1929 138.23 77.9592 137.747 77.6555C137.479 77.4968 137.236 77.3276 137.019 77.148C136.802 76.9616 136.607 76.7711 136.433 76.5765C136.331 76.4601 136.197 76.3291 136.03 76.1836C135.87 76.039 135.678 75.8798 135.453 75.706C135.221 75.5314 135.022 75.368 134.857 75.2157C134.691 75.0634 134.56 74.9362 134.463 74.8342C134.136 74.4891 133.868 74.2238 133.659 74.0383C133.449 73.8528 133.3 73.7543 133.212 73.7428C133.132 73.8287 133.082 73.9219 133.062 74.0225C132.94 74.3297 132.8 74.7206 132.641 75.1952C132.491 75.6639 132.32 76.2124 132.128 76.8407C132.113 76.9557 132.081 77.0376 132.034 77.0864C131.985 77.142 131.921 77.1645 131.839 77.1539C131.576 77.1195 131.385 77.0293 131.266 76.8832C131.148 76.737 131.105 76.5355 131.138 76.2785C131.183 75.9336 131.251 75.5745 131.341 75.2011C131.437 74.8285 131.564 74.4393 131.72 74.0332C131.778 73.855 131.822 73.6958 131.854 73.5556C131.894 73.4094 131.922 73.2755 131.938 73.1538C131.978 72.8427 131.878 72.558 131.636 72.2996C131.402 72.042 131.291 71.8659 131.303 71.7712C131.322 71.6225 131.359 71.4966 131.414 71.3937C131.476 71.2849 131.556 71.2024 131.653 71.1463C131.894 71.0333 132.118 70.925 132.324 70.8212C132.375 70.8003 132.411 70.7603 132.433 70.7012C132.462 70.6362 132.484 70.5462 132.499 70.4313C132.508 70.3637 132.517 70.2926 132.527 70.2183C132.537 70.1371 132.547 70.0627 132.556 69.9951C132.654 69.3959 132.753 68.7726 132.851 68.1251C132.857 68.0778 132.867 68.0034 132.88 67.902C132.893 67.8005 132.904 67.6678 132.911 67.5037C132.914 67.3802 132.925 67.2682 132.945 67.1677C132.966 67.0603 132.982 66.9627 132.993 66.8748C132.97 66.7343 132.948 66.6145 132.927 66.5154C132.913 66.4104 132.912 66.314 132.923 66.2261C132.934 66.1449 132.957 66.0207 132.992 65.8534C133.029 65.6793 133.052 65.5551 133.061 65.4807C133.074 65.3861 133.081 65.2529 133.083 65.0812C133.091 64.9103 133.101 64.781 133.113 64.6931C133.144 64.4496 133.229 64.2233 133.366 64.0143C133.51 63.8061 133.711 63.6088 133.969 63.4224C134.217 63.2621 134.462 63.1496 134.704 63.0849C134.954 63.0143 135.201 62.9949 135.444 63.0266C135.559 63.0416 135.727 63.0738 135.948 63.1231C136.176 63.1666 136.354 63.1967 136.483 63.2135C136.571 63.2249 136.801 63.3306 137.174 63.5305C137.328 63.5643 137.464 63.6026 137.582 63.6456C137.701 63.6817 137.796 63.7182 137.867 63.7549C138.025 63.8581 138.149 63.9395 138.237 63.9992C138.327 64.0521 138.391 64.0846 138.431 64.0966C138.54 64.1522 138.634 64.1988 138.712 64.2364C138.796 64.2749 138.863 64.318 138.912 64.3656C138.994 64.4176 139.089 64.4782 139.197 64.5473C139.312 64.6172 139.439 64.6957 139.579 64.7827C139.807 64.9362 140.015 65.1077 140.203 65.2973C140.399 65.4878 140.579 65.6901 140.743 65.9041C140.928 66.1758 141.059 66.437 141.136 66.6878C141.215 66.9318 141.239 67.1688 141.209 67.3987C141.2 67.4663 141.18 67.5635 141.15 67.6902C141.127 67.8111 141.092 67.9475 141.045 68.0995C140.999 68.293 140.87 68.4928 140.658 68.6989C140.446 68.8983 140.15 69.1107 139.77 69.3363C139.435 69.5333 139.125 69.6958 138.84 69.8237C138.556 69.9449 138.298 70.0247 138.066 70.0633C137.97 70.1127 137.895 70.1614 137.84 70.2093C137.764 70.2681 137.61 70.3443 137.377 70.4378C137.145 70.5313 136.831 70.6451 136.435 70.7792C135.716 71.0225 135.207 71.1797 134.909 71.2509C134.612 71.3153 134.455 71.4084 134.439 71.5301ZM134.012 66.502C134.152 66.4241 134.286 66.3487 134.412 66.2757C134.54 66.196 134.695 66.1681 134.877 66.1919C134.958 66.2025 135.045 66.3065 135.136 66.5041C135.235 66.6958 135.278 66.8356 135.267 66.9235C135.261 66.9708 135.23 67.0768 135.174 67.2415C135.118 67.4061 135.034 67.629 134.922 67.9101C134.681 68.5458 134.539 68.9469 134.497 69.1133C134.455 69.2729 134.378 69.5242 134.264 69.867C134.226 69.9514 134.184 70.0628 134.138 70.2013C134.13 70.2622 134.135 70.3075 134.151 70.3372C134.175 70.3677 134.207 70.3857 134.247 70.3909C135.681 69.8901 136.424 69.6292 136.475 69.6083C136.53 69.6018 136.59 69.5924 136.654 69.5801C136.718 69.561 136.779 69.5414 136.837 69.5214L137.014 69.3485C137.439 69.1494 137.879 68.9352 138.336 68.7058C138.626 68.5373 138.848 68.3633 139.002 68.184C139.156 68.0046 139.246 67.8169 139.271 67.6208C139.304 67.3705 139.191 67.1048 138.932 66.8234C138.673 66.5421 138.267 66.2519 137.714 65.953C137.246 65.6925 136.815 65.4919 136.421 65.3511C136.027 65.2036 135.665 65.1082 135.334 65.065C134.901 65.0086 134.563 65.0436 134.319 65.1701C134.083 65.2907 133.946 65.4997 133.907 65.7973C133.877 66.0272 133.871 66.2052 133.889 66.3314C133.908 66.4507 133.949 66.5076 134.012 66.502Z" fill="white"/>
<path d="M141.714 73.4169C141.732 73.2748 141.728 73.0473 141.7 72.7341C141.672 72.421 141.668 72.1867 141.688 72.0312C141.7 71.9432 141.724 71.8089 141.761 71.6281C141.806 71.4413 141.835 71.304 141.846 71.2161C141.879 70.9659 141.911 70.5884 141.942 70.0836C141.981 69.5729 142.017 69.1924 142.049 68.9422C142.104 68.5229 142.198 67.985 142.332 67.3285C142.466 66.6719 142.635 65.903 142.839 65.0218C142.922 64.7025 143.025 64.465 143.148 64.3091C143.279 64.1542 143.432 64.0881 143.608 64.111C143.668 64.119 143.721 64.167 143.764 64.2552C143.814 64.3443 143.863 64.4744 143.909 64.6455C144.045 64.8146 144.183 64.9701 144.323 65.1121C144.431 65.2361 144.504 65.3833 144.544 65.5535C144.585 65.717 144.591 65.9069 144.563 66.1233C144.537 66.3194 144.456 66.5943 144.321 66.9481C144.193 67.2959 144.117 67.5611 144.093 67.7437C144.048 68.0953 143.995 68.3911 143.937 68.6311C143.885 68.8651 143.828 69.0433 143.764 69.1656L143.61 69.4757C143.61 69.682 143.608 69.9121 143.602 70.1659C143.532 70.5487 143.466 70.9493 143.405 71.3677C143.351 71.7802 143.329 72.2106 143.339 72.659C143.351 73.1006 143.385 73.5487 143.443 74.0032C143.528 74.6195 143.665 75.0947 143.855 75.429C144.053 75.7574 144.298 75.9405 144.588 75.9784C144.737 75.9978 144.877 75.9816 145.007 75.9299C145.146 75.8722 145.282 75.7765 145.416 75.6427C145.52 75.5325 145.621 75.4184 145.719 75.3005C145.817 75.1825 145.914 75.068 146.011 74.9569C146.113 74.8601 146.225 74.7372 146.348 74.5881C146.471 74.4323 146.609 74.2473 146.761 74.0333C146.928 73.6425 147.11 73.2501 147.306 72.8561C147.502 72.4621 147.698 72.0647 147.895 71.664C147.946 71.5331 148.013 71.3664 148.094 71.1638C148.176 70.9545 148.263 70.7147 148.353 70.4445C148.525 70.1231 148.712 69.6694 148.912 69.0834C149.119 68.4983 149.356 67.7865 149.623 66.9479C149.695 66.8197 149.782 66.6556 149.884 66.4557C149.992 66.2566 150.115 66.0251 150.253 65.761C150.293 65.6631 150.364 65.5108 150.467 65.3041C150.569 65.0974 150.71 64.8372 150.888 64.5235C150.964 64.3682 151.078 64.2593 151.23 64.1966C151.384 64.1272 151.565 64.1062 151.775 64.1335C151.903 64.1502 151.984 64.2467 152.016 64.4228C152.055 64.593 152.053 64.8472 152.009 65.1853C151.925 65.8277 151.742 66.605 151.458 67.5171C151.181 68.4232 150.796 69.4528 150.302 70.6057C150.268 70.7112 150.216 70.8455 150.146 71.0084C150.085 71.1654 150.01 71.3447 149.922 71.5464C149.898 71.674 149.862 71.8206 149.813 71.9861C149.771 72.1458 149.716 72.3312 149.647 72.5423C149.49 72.9069 149.346 73.3007 149.215 73.7238C149.091 74.1478 148.978 74.5905 148.877 75.0518C148.868 75.1194 148.841 75.2191 148.797 75.3508C148.759 75.4834 148.707 75.6418 148.642 75.8258C148.577 76.0099 148.527 76.1754 148.495 76.3224C148.462 76.4694 148.437 76.6072 148.42 76.7357C148.417 76.9209 148.414 77.096 148.413 77.2609C148.489 77.3671 148.543 77.4566 148.574 77.5295C148.614 77.5965 148.631 77.6503 148.626 77.6909C148.569 77.8073 148.481 77.93 148.361 78.0588C148.248 78.1884 148.103 78.3243 147.926 78.4663C147.74 78.6277 147.563 78.7457 147.395 78.8201C147.227 78.8945 147.079 78.9233 146.951 78.9066C146.829 78.8907 146.72 78.8009 146.625 78.6371C146.53 78.4666 146.492 78.3137 146.509 78.1785L146.52 78.0973C146.556 78.0332 146.589 77.9585 146.621 77.8733C146.626 77.8395 146.62 77.8043 146.604 77.7679C146.596 77.7255 146.589 77.6731 146.583 77.6104C146.601 77.5784 146.628 77.5303 146.664 77.4662C146.7 77.4021 146.737 77.3279 146.776 77.2435C146.766 77.2079 146.755 77.1651 146.741 77.1151C146.733 77.066 146.717 77.0055 146.692 76.9335C146.711 76.8946 146.731 76.8491 146.751 76.7967C146.773 76.7376 146.803 76.6659 146.841 76.5815C146.848 76.5274 146.85 76.4589 146.847 76.376C146.86 76.3295 146.879 76.2632 146.904 76.1771C146.93 76.0842 146.962 75.9714 147 75.8388C147.042 75.7274 147.075 75.6353 147.098 75.5627C147.129 75.4842 147.147 75.4247 147.152 75.3841C147.158 75.3367 147.154 75.2915 147.139 75.2483C147.13 75.2059 147.114 75.1762 147.088 75.1592C147.046 75.1674 146.982 75.2106 146.896 75.2889C146.817 75.368 146.723 75.4795 146.615 75.6236C146.483 75.7921 146.369 75.9285 146.273 76.0329C146.185 76.1314 146.124 76.1992 146.092 76.2363L146.033 76.373C145.818 76.5994 145.628 76.7879 145.464 76.9384C145.301 77.0822 145.178 77.1831 145.094 77.241C144.951 77.3392 144.782 77.4238 144.587 77.4947C144.399 77.5664 144.175 77.6198 143.916 77.6548C143.784 77.6651 143.661 77.6835 143.548 77.71C143.291 77.6765 143.069 77.6132 142.881 77.52C142.694 77.4268 142.558 77.3128 142.472 77.1778C142.122 76.6439 141.884 76.0662 141.759 75.4447C141.634 74.8231 141.619 74.1472 141.714 73.4169Z" fill="white"/>
<path d="M150.528 79.3212C150.596 79.275 150.69 79.215 150.809 79.1412C150.937 79.0615 151.097 78.9689 151.289 78.8633C151.436 78.793 151.545 78.7213 151.616 78.648C151.688 78.5748 151.729 78.4943 151.741 78.4063C151.782 78.0885 151.805 77.8852 151.81 77.7964C151.821 77.7085 151.83 77.6409 151.836 77.5935C151.921 76.9443 152.004 76.4393 152.085 76.0786C152.167 75.7178 152.24 75.497 152.306 75.4161L152.325 75.1092L152.274 75.0302C152.283 74.9559 152.292 74.8916 152.299 74.8375C152.313 74.7775 152.323 74.7273 152.329 74.6867C152.377 74.3147 152.242 74.0565 151.924 73.9119C151.613 73.7681 151.477 73.5407 151.518 73.2296C151.53 73.135 151.64 73.0323 151.847 72.9218C152.055 72.8044 152.354 72.6715 152.745 72.523C152.835 72.1978 152.933 71.8426 153.038 71.4574C153.144 71.0723 153.264 70.6478 153.4 70.1842C153.385 70.0927 153.374 70.0191 153.367 69.9632C153.362 69.9006 153.362 69.8456 153.368 69.7983C153.399 69.5616 153.454 69.3487 153.534 69.1596C153.613 68.9706 153.712 68.7943 153.83 68.6308C153.903 68.5441 153.994 68.4528 154.103 68.3569C154.212 68.2543 154.343 68.1442 154.496 68.0265C154.618 67.9392 154.71 67.8619 154.774 67.7945C154.839 67.7204 154.874 67.6597 154.88 67.6124C154.888 67.5583 154.87 67.5112 154.827 67.4713C154.79 67.4322 154.732 67.4073 154.651 67.3967C154.4 67.3641 154.021 67.3973 153.513 67.4961C153.006 67.5882 152.631 67.6184 152.387 67.5866C152.306 67.5761 152.247 67.558 152.209 67.5324C152.178 67.5077 152.165 67.4717 152.171 67.4244C152.189 67.2891 152.211 67.1717 152.238 67.072C152.265 66.9723 152.291 66.9035 152.316 66.8656C152.443 66.7926 152.542 66.7196 152.613 66.6464C152.691 66.574 152.736 66.4973 152.746 66.4161C152.751 66.3823 152.79 66.3428 152.865 66.2975C152.946 66.2531 153.067 66.2207 153.228 66.2004C153.873 66.1057 154.364 66.0321 154.701 65.9797C155.045 65.9282 155.241 65.8988 155.29 65.8915C155.681 65.8461 156.052 65.8257 156.402 65.83C156.753 65.8276 157.078 65.8458 157.375 65.8846C157.409 65.889 157.475 65.908 157.574 65.9415C157.674 65.9682 157.741 65.977 157.777 65.9679C157.915 65.9653 158.06 65.9601 158.212 65.9524C158.253 65.9577 158.368 65.9934 158.559 66.0596C158.751 66.1189 159.018 66.2053 159.361 66.3188C159.437 66.315 159.521 66.3086 159.611 66.2998C159.807 66.3254 159.966 66.3769 160.086 66.4545C160.213 66.533 160.307 66.6312 160.368 66.7491C160.46 66.7817 160.55 66.8038 160.637 66.8152C160.813 66.8382 160.966 66.9096 161.094 67.0295C161.231 67.1436 161.341 67.299 161.426 67.4956C161.497 67.6838 161.549 67.8693 161.58 68.0522C161.612 68.2283 161.616 68.4077 161.593 68.5903C161.546 68.9487 161.424 69.28 161.226 69.5844C161.035 69.8828 160.77 70.1508 160.43 70.3884C160.393 70.4043 160.212 70.5044 159.885 70.6888C159.566 70.8673 159.1 71.1161 158.488 71.4352C158.422 71.4678 158.343 71.5161 158.253 71.5799C158.162 71.6437 158.053 71.7087 157.928 71.7749C157.33 72.034 156.755 72.2822 156.201 72.5195C155.737 72.6998 155.383 72.8565 155.139 72.9897C154.895 73.123 154.768 73.2234 154.759 73.291C154.742 73.4263 154.783 73.5555 154.884 73.6787C154.986 73.7951 155.15 73.9093 155.376 74.0213C155.705 74.1879 156.076 74.3773 156.488 74.5892C156.901 74.8011 157.34 75.0475 157.805 75.3282C157.851 75.3479 157.905 75.3824 157.967 75.4318C158.036 75.4821 158.112 75.5366 158.193 75.5954C158.747 75.8876 159.141 76.2107 159.377 76.5646C159.621 76.9127 159.716 77.293 159.662 77.7055C159.583 78.3074 158.965 78.8079 157.805 79.207C156.653 79.607 154.963 79.9094 152.735 80.1143C152.689 80.2046 152.636 80.294 152.577 80.3825C152.524 80.4719 152.475 80.5583 152.429 80.6418C152.372 80.71 152.297 80.7587 152.204 80.7878C152.11 80.8237 152.005 80.8341 151.89 80.8192C151.762 80.8024 151.667 80.7419 151.605 80.6375C151.542 80.5399 151.51 80.3913 151.508 80.1916C151.46 80.1372 151.419 80.1112 151.384 80.1136L150.786 80.1904C150.717 80.1401 150.651 80.0937 150.588 80.051C150.53 80.0161 150.47 79.9773 150.407 79.9346C150.344 79.8853 150.297 79.8275 150.264 79.7613C150.231 79.7019 150.218 79.6384 150.227 79.5708C150.235 79.51 150.262 79.4619 150.308 79.4266C150.36 79.3989 150.433 79.3638 150.528 79.3212ZM154.269 74.9189C154.16 74.9048 154.053 74.9871 153.948 75.1659C153.849 75.3388 153.753 75.6047 153.658 75.9637C153.587 76.2983 153.515 76.6363 153.443 76.9777C153.372 77.3123 153.301 77.6469 153.23 77.9815C153.167 78.1452 153.11 78.32 153.058 78.5059L153.066 78.6099L153.141 78.6611C153.422 78.622 153.733 78.5834 154.075 78.5454C154.305 78.5754 154.442 78.5727 154.488 78.5375C154.542 78.4963 155.123 78.3107 156.232 77.9807C156.703 77.8495 157.061 77.7173 157.305 77.5841C157.55 77.4441 157.681 77.3133 157.697 77.1915C157.706 77.1171 157.685 77.0422 157.633 76.9666C157.581 76.8911 157.499 76.8082 157.387 76.7179C157.096 76.4736 156.768 76.2452 156.403 76.0327C156.04 75.8134 155.637 75.6061 155.195 75.411C155.137 75.3827 155.068 75.3532 154.99 75.3223C154.919 75.2856 154.838 75.2475 154.747 75.2081C154.607 75.1211 154.499 75.052 154.423 75.0009C154.354 74.9506 154.303 74.9233 154.269 74.9189ZM157.228 67.5676C156.971 67.5341 156.759 67.527 156.591 67.5465C156.431 67.56 156.312 67.603 156.234 67.6753C156.173 67.7223 156.102 67.8197 156.021 67.9673C155.946 68.1158 155.858 68.3208 155.755 68.5825C155.708 68.7278 155.666 68.8908 155.629 69.0716C155.598 69.2533 155.572 69.4528 155.551 69.6701C155.454 69.8362 155.357 69.9749 155.26 70.086L155.276 70.3564C155.151 70.6839 155.058 70.9469 154.998 71.1454C154.937 71.3439 154.903 71.4769 154.894 71.5445C154.881 71.646 154.892 71.7196 154.927 71.7655C154.963 71.8114 155.017 71.8391 155.092 71.8488C155.159 71.8576 155.328 71.804 155.598 71.6878C155.874 71.5725 156.255 71.3952 156.74 71.1558C157.276 70.8955 157.683 70.6976 157.962 70.562C158.249 70.4206 158.414 70.3424 158.457 70.3274C158.559 70.2306 158.657 70.1368 158.752 70.0459C158.854 69.9492 158.952 69.8554 159.046 69.7645C159.18 69.6375 159.28 69.5234 159.349 69.4223C159.418 69.3144 159.458 69.2165 159.469 69.1285C159.491 68.9662 159.459 68.8142 159.374 68.6725C159.289 68.5308 159.152 68.3994 158.961 68.2783C158.897 68.2424 158.781 68.186 158.612 68.109C158.45 68.0329 158.237 67.9501 157.974 67.8608C157.759 67.7708 157.589 67.7006 157.465 67.65C157.341 67.5995 157.262 67.572 157.228 67.5676Z" fill="white"/>
</g>
<defs>
<filter id="filter0_f" x="0.637207" y="116.356" width="110.511" height="43.7379" filterUnits="userSpaceOnUse" color-interpolation-filters="sRGB">
<feFlood flood-opacity="0" result="BackgroundImageFix"/>
<feBlend mode="normal" in="SourceGraphic" in2="BackgroundImageFix" result="shape"/>
<feGaussianBlur stdDeviation="4" result="effect1_foregroundBlur"/>
</filter>
<filter id="filter1_f" x="67.4971" y="120.243" width="41.1965" height="24.9234" filterUnits="userSpaceOnUse" color-interpolation-filters="sRGB">
<feFlood flood-opacity="0" result="BackgroundImageFix"/>
<feBlend mode="normal" in="SourceGraphic" in2="BackgroundImageFix" result="shape"/>
<feGaussianBlur stdDeviation="4" result="effect1_foregroundBlur"/>
</filter>
<filter id="filter2_f" x="57.8447" y="104.199" width="45.5857" height="35.37" filterUnits="userSpaceOnUse" color-interpolation-filters="sRGB">
<feFlood flood-opacity="0" result="BackgroundImageFix"/>
<feBlend mode="normal" in="SourceGraphic" in2="BackgroundImageFix" result="shape"/>
<feGaussianBlur stdDeviation="2" result="effect1_foregroundBlur"/>
</filter>
<filter id="filter3_f" x="75.1533" y="119.446" width="30.4289" height="16.7484" filterUnits="userSpaceOnUse" color-interpolation-filters="sRGB">
<feFlood flood-opacity="0" result="BackgroundImageFix"/>
<feBlend mode="normal" in="SourceGraphic" in2="BackgroundImageFix" result="shape"/>
<feGaussianBlur stdDeviation="2" result="effect1_foregroundBlur"/>
</filter>
<filter id="filter4_f" x="77.1055" y="103.71" width="11.9007" height="16.2995" filterUnits="userSpaceOnUse" color-interpolation-filters="sRGB">
<feFlood flood-opacity="0" result="BackgroundImageFix"/>
<feBlend mode="normal" in="SourceGraphic" in2="BackgroundImageFix" result="shape"/>
<feGaussianBlur stdDeviation="2" result="effect1_foregroundBlur"/>
</filter>
<filter id="filter5_f" x="20.1074" y="79.8071" width="70.7991" height="28.4375" filterUnits="userSpaceOnUse" color-interpolation-filters="sRGB">
<feFlood flood-opacity="0" result="BackgroundImageFix"/>
<feBlend mode="normal" in="SourceGraphic" in2="BackgroundImageFix" result="shape"/>
<feGaussianBlur stdDeviation="1" result="effect1_foregroundBlur"/>
</filter>
<filter id="filter6_f" x="20.5449" y="79.2729" width="69.9233" height="30.4825" filterUnits="userSpaceOnUse" color-interpolation-filters="sRGB">
<feFlood flood-opacity="0" result="BackgroundImageFix"/>
<feBlend mode="normal" in="SourceGraphic" in2="BackgroundImageFix" result="shape"/>
<feGaussianBlur stdDeviation="2" result="effect1_foregroundBlur"/>
</filter>
<filter id="filter7_f" x="25.9058" y="81.7173" width="59.1964" height="25.595" filterUnits="userSpaceOnUse" color-interpolation-filters="sRGB">
<feFlood flood-opacity="0" result="BackgroundImageFix"/>
<feBlend mode="normal" in="SourceGraphic" in2="BackgroundImageFix" result="shape"/>
<feGaussianBlur stdDeviation="2" result="effect1_foregroundBlur"/>
</filter>
<filter id="filter8_f" x="30.2974" y="84.1592" width="50.4199" height="20.7075" filterUnits="userSpaceOnUse" color-interpolation-filters="sRGB">
<feFlood flood-opacity="0" result="BackgroundImageFix"/>
<feBlend mode="normal" in="SourceGraphic" in2="BackgroundImageFix" result="shape"/>
<feGaussianBlur stdDeviation="2" result="effect1_foregroundBlur"/>
</filter>
<filter id="filter9_f" x="89.5879" y="103.011" width="18.7667" height="29.8576" filterUnits="userSpaceOnUse" color-interpolation-filters="sRGB">
<feFlood flood-opacity="0" result="BackgroundImageFix"/>
<feBlend mode="normal" in="SourceGraphic" in2="BackgroundImageFix" result="shape"/>
<feGaussianBlur stdDeviation="1" result="effect1_foregroundBlur"/>
</filter>
<filter id="filter10_f" x="10.6699" y="87.0034" width="88.0367" height="30.2646" filterUnits="userSpaceOnUse" color-interpolation-filters="sRGB">
<feFlood flood-opacity="0" result="BackgroundImageFix"/>
<feBlend mode="normal" in="SourceGraphic" in2="BackgroundImageFix" result="shape"/>
<feGaussianBlur stdDeviation="4" result="effect1_foregroundBlur"/>
</filter>
<filter id="filter11_d" x="78.645" y="15.2856" width="124.11" height="90.9631" filterUnits="userSpaceOnUse" color-interpolation-filters="sRGB">
<feFlood flood-opacity="0" result="BackgroundImageFix"/>
<feColorMatrix in="SourceAlpha" type="matrix" values="0 0 0 0 0 0 0 0 0 0 0 0 0 0 0 0 0 0 127 0"/>
<feOffset dx="3" dy="3"/>
<feGaussianBlur stdDeviation="2"/>
<feColorMatrix type="matrix" values="0 0 0 0 0 0 0 0 0 0 0 0 0 0 0 0 0 0 0.5 0"/>
<feBlend mode="normal" in2="BackgroundImageFix" result="effect1_dropShadow"/>
<feBlend mode="normal" in="SourceGraphic" in2="effect1_dropShadow" result="shape"/>
</filter>
<radialGradient id="paint0_radial" cx="0" cy="0" r="1" gradientUnits="userSpaceOnUse" gradientTransform="translate(55.4133 128.589) scale(34.9208 50.056)">
<stop offset="0.01" stop-color="#F0F0F0"/>
<stop offset="1" stop-color="#C7C7C7"/>
</radialGradient>
<radialGradient id="paint1_radial" cx="0" cy="0" r="1" gradientUnits="userSpaceOnUse" gradientTransform="translate(58.4513 133.796) scale(44.5387 20.6634)">
<stop offset="0.12" stop-color="#1C0B05"/>
<stop offset="0.21" stop-color="#20100A"/>
<stop offset="0.32" stop-color="#2D1E18"/>
<stop offset="0.44" stop-color="#433530"/>
<stop offset="0.56" stop-color="#615550"/>
<stop offset="0.69" stop-color="#877E7B"/>
<stop offset="0.83" stop-color="#B6B1AF"/>
<stop offset="0.96" stop-color="#ECEBEB"/>
<stop offset="1" stop-color="white"/>
</radialGradient>
<linearGradient id="paint2_linear" x1="53.4102" y1="152.17" x2="53.4102" y2="106.581" gradientUnits="userSpaceOnUse">
<stop stop-color="white"/>
<stop offset="1" stop-color="white"/>
</linearGradient>
<radialGradient id="paint3_radial" cx="0" cy="0" r="1" gradientUnits="userSpaceOnUse" gradientTransform="translate(53.4094 128.407) scale(48.9803 23.5667)">
<stop offset="0.82" stop-color="white"/>
<stop offset="0.88" stop-color="#F8F7F7"/>
<stop offset="0.98" stop-color="#E4E2E1"/>
<stop offset="1" stop-color="#E0DDDC"/>
</radialGradient>
<linearGradient id="paint4_linear" x1="57.1655" y1="140.447" x2="57.1655" y2="116.547" gradientUnits="userSpaceOnUse">
<stop offset="0.33" stop-color="#D8D8D8"/>
<stop offset="1" stop-color="#B5B5B5"/>
</linearGradient>
<radialGradient id="paint5_radial" cx="0" cy="0" r="1" gradientUnits="userSpaceOnUse" gradientTransform="translate(57.3137 126.471) scale(21.8261 9.89013)">
<stop offset="0.51" stop-color="#1C0B05"/>
<stop offset="0.56" stop-color="#2A1A14"/>
<stop offset="0.65" stop-color="#4D403B"/>
<stop offset="0.77" stop-color="#877E7B"/>
<stop offset="0.92" stop-color="#D5D2D1"/>
<stop offset="1" stop-color="white"/>
</radialGradient>
<radialGradient id="paint6_radial" cx="0" cy="0" r="1" gradientUnits="userSpaceOnUse" gradientTransform="translate(56.5454 120.526) scale(32.2586 16.8145)">
<stop stop-color="white"/>
<stop offset="0.23" stop-color="#FCFCFB"/>
<stop offset="0.43" stop-color="#F5F2F1"/>
<stop offset="0.62" stop-color="#E7E2DE"/>
<stop offset="0.8" stop-color="#D5CBC5"/>
<stop offset="0.99" stop-color="#BDAEA4"/>
<stop offset="1" stop-color="#BBABA1"/>
</radialGradient>
<linearGradient id="paint7_linear" x1="81.0594" y1="120.896" x2="75.8935" y2="128.587" gradientUnits="userSpaceOnUse">
<stop offset="0.24" stop-color="#B6AAA0"/>
<stop offset="0.27" stop-color="#BBB0A7"/>
<stop offset="0.48" stop-color="#DCD5D1"/>
<stop offset="0.64" stop-color="#F0ECEA"/>
<stop offset="0.73" stop-color="#F7F5F4"/>
</linearGradient>
<linearGradient id="paint8_linear" x1="20.0691" y1="111.719" x2="89.8692" y2="105.935" gradientUnits="userSpaceOnUse">
<stop stop-color="#FEFEFE"/>
<stop offset="0.01" stop-color="#E8E4E1"/>
<stop offset="0.02" stop-color="#D6CFC9"/>
<stop offset="0.03" stop-color="#C7BEB7"/>
<stop offset="0.05" stop-color="#BDB3AA"/>
<stop offset="0.06" stop-color="#B8ACA2"/>
<stop offset="0.1" stop-color="#B6AAA0"/>
<stop offset="0.21" stop-color="#D2CBC5"/>
<stop offset="0.68" stop-color="#F7F5F4"/>
<stop offset="1" stop-color="#E1DCD8"/>
</linearGradient>
<linearGradient id="paint9_linear" x1="67.4128" y1="110.546" x2="83.8688" y2="116.712" gradientUnits="userSpaceOnUse">
<stop stop-color="white"/>
<stop offset="0.22" stop-color="#F9F8F7"/>
<stop offset="0.56" stop-color="#E9E4E1"/>
<stop offset="0.89" stop-color="#D5CBC5"/>
<stop offset="0.98" stop-color="#D5CBC5"/>
</linearGradient>
<linearGradient id="paint10_linear" x1="84.5266" y1="110.589" x2="80.9085" y2="119.649" gradientUnits="userSpaceOnUse">
<stop offset="0.11" stop-color="#D5CBC5"/>
<stop offset="0.44" stop-color="#E9E4E1"/>
<stop offset="0.78" stop-color="#F9F8F7"/>
<stop offset="1" stop-color="white"/>
</linearGradient>
<linearGradient id="paint11_linear" x1="54.9412" y1="108.244" x2="54.9412" y2="81.7144" gradientUnits="userSpaceOnUse">
<stop stop-color="#F2F2F2"/>
<stop offset="0.24" stop-color="#E5E4E4"/>
<stop offset="0.69" stop-color="#C3BFBE"/>
<stop offset="1" stop-color="#A9A2A0"/>
</linearGradient>
<linearGradient id="paint12_linear" x1="22.1465" y1="94.7077" x2="87.7315" y2="94.7077" gradientUnits="userSpaceOnUse">
<stop stop-color="#B6ADA4"/>
<stop offset="0.13" stop-color="#C9C3BD"/>
<stop offset="0.39" stop-color="#F6F6F6"/>
<stop offset="0.47" stop-color="#F2F2F2"/>
<stop offset="0.55" stop-color="#E5E5E5"/>
<stop offset="0.56" stop-color="#E2E2E2"/>
<stop offset="0.68" stop-color="#DAD8D5"/>
<stop offset="0.79" stop-color="#D7D3CF"/>
<stop offset="0.84" stop-color="#C1B9B2"/>
<stop offset="0.9" stop-color="#B1A79D"/>
<stop offset="0.95" stop-color="#A79C91"/>
<stop offset="1" stop-color="#A4988D"/>
</linearGradient>
<linearGradient id="paint13_linear" x1="77.8336" y1="118.787" x2="105.806" y2="118.787" gradientUnits="userSpaceOnUse">
<stop offset="0.02" stop-color="#D5CBC5"/>
<stop offset="0.11" stop-color="#D5CBC5"/>
<stop offset="0.44" stop-color="#E9E4E1"/>
<stop offset="0.78" stop-color="#F9F8F7"/>
<stop offset="1" stop-color="white"/>
</linearGradient>
<linearGradient id="paint14_linear" x1="90.3678" y1="123.446" x2="90.3678" y2="132.195" gradientUnits="userSpaceOnUse">
<stop offset="0.385417" stop-color="#361F00" stop-opacity="0"/>
<stop offset="1" stop-color="#563408" stop-opacity="0.43"/>
</linearGradient>
<linearGradient id="paint15_linear" x1="81.1055" y1="114.064" x2="84.2847" y2="109.672" gradientUnits="userSpaceOnUse">
<stop stop-color="#5A380B"/>
<stop offset="1" stop-color="#5A380B" stop-opacity="0"/>
</linearGradient>
<linearGradient id="paint16_linear" x1="80.3913" y1="119.482" x2="94.8455" y2="127.668" gradientUnits="userSpaceOnUse">
<stop stop-color="#CECAC7"/>
<stop offset="0.28" stop-color="#F0EEED"/>
<stop offset="0.45" stop-color="#ECEAE9"/>
<stop offset="0.64" stop-color="#E1DEDC"/>
<stop offset="0.83" stop-color="#CFCAC7"/>
<stop offset="1" stop-color="#B8B2AE"/>
</linearGradient>
<linearGradient id="paint17_linear" x1="71.4959" y1="108.389" x2="71.1138" y2="123.658" gradientUnits="userSpaceOnUse">
<stop stop-color="white"/>
<stop offset="0.06" stop-color="#ECECEC"/>
<stop offset="0.33" stop-color="#999999"/>
<stop offset="0.57" stop-color="#575757"/>
<stop offset="0.76" stop-color="#282828"/>
<stop offset="0.91" stop-color="#0B0B0B"/>
<stop offset="1"/>
</linearGradient>
<linearGradient id="paint18_linear" x1="349.233" y1="1492.62" x2="263.919" y2="1909.54" gradientUnits="userSpaceOnUse">
<stop stop-color="white"/>
<stop offset="0.06" stop-color="#ECECEC"/>
<stop offset="0.33" stop-color="#999999"/>
<stop offset="0.57" stop-color="#575757"/>
<stop offset="0.76" stop-color="#282828"/>
<stop offset="0.91" stop-color="#0B0B0B"/>
<stop offset="1"/>
</linearGradient>
<linearGradient id="paint19_linear" x1="101.096" y1="128.727" x2="91.3047" y2="105.772" gradientUnits="userSpaceOnUse">
<stop stop-color="#4A2F0A" stop-opacity="0.5"/>
<stop offset="1" stop-color="#4A2F0A" stop-opacity="0"/>
</linearGradient>
<linearGradient id="paint20_linear" x1="120.006" y1="7.81655" x2="162.046" y2="112.797" gradientUnits="userSpaceOnUse">
<stop stop-color="#E20613"/>
<stop offset="0.31" stop-color="#CF0B14"/>
<stop offset="0.93" stop-color="#9F1815"/>
<stop offset="1" stop-color="#991915"/>
</linearGradient>
<clipPath id="clip0">
<rect width="133.742" height="104.928" fill="white" transform="matrix(0.987089 0.16017 -0.159593 0.987183 75.7456 0)"/>
</clipPath>
</defs>
</svg>
