<svg version="1.1" id="Слой_1" xmlns="http://www.w3.org/2000/svg" xmlns:xlink="http://www.w3.org/1999/xlink" x="0" y="0" viewBox="0 0 240 200" xml:space="preserve"><style>.st12{fill:#8fb1db}.st19{fill:#0a3d76}.st23{fill:#b01e34}</style><linearGradient id="SVGID_1_" gradientUnits="userSpaceOnUse" x1="12.654" y1="56.028" x2="108.604" y2="187.032" gradientTransform="translate(0 16)"><stop offset="0" stop-color="#b4d1fa" stop-opacity="0"/><stop offset="1" stop-opacity=".2"/></linearGradient><path d="M25.8 64.9L-10.3 73l46.6 59.3 19.1 20.6 34.5-7.9-64.1-80.1z" fill="url(#SVGID_1_)"/><path d="M90.3 39.2C90 38 89.6 37 89 36c-.7-1.3-1.7-2.9-2.9-4-.6-.6-1.2-.9-1.7-1.1-.6-.1-1.2-.1-1.6.4-.3.2-.4.5-.6.9-.2.4-.3.9-.5 1.5-.3 1.1-.4 2.4-.5 3.8-.3 2.7-.2 5.5-.2 6.4 0 .3 0 .6-.1.9-.5 2.6-3.3 16.6-8.7 25.7-1.4 2.3-2.1 5.4-2.6 8.9-.5 3.4-.6 7.3-.5 11 .1 7.4 1.1 14.2 1.5 16.5.1.6.1 1.2 0 1.8 0 .2-.1.4-.1.6-.3 1.9-.8 5.1-2.6 9.7-2 5.1-5.7 12-12.7 21-.9 1.1-1.5 2.7-1.8 4.4-.3 1.6-.4 3.4-.1 4.9.4 2.6 2.4 5.7 6.9 7.2s11.5 1.3 21.9-2.7c5.5-2.1 10.2-6 13-11.3.9-1.5 1.5-3.3 1.5-5.1 0-1.5.4-3.6 1.1-5.7.7-2.1 1.6-4.4 2.8-6.2.4-.7.9-1.5 1.4-2.3l.1-.1c.5-.9 1-1.7 1.5-2.6 1.1-1.6 2.2-3.3 3.7-4.4 3.1-2.4 7.4-6.1 10.7-9.9 1.7-1.9 3.3-3.8 4.4-5.6 1.1-1.8 1.9-3.4 2-4.7.1-.8.5-1.6 1.1-2.6.3-.4.6-.9.9-1.4l.1-.1c.4-.6.8-1.1 1.1-1.7 1.5-2.4 2.9-5.2 2.3-8.6 0-.2-.1-.3 0-.4 0-.1.1-.2.1-.3.1-.1.1-.1.3-.1.1 0 .2 0 .3.1.3.1.6.2.9.4 0 0 .1 0 .1.1.3.1.7.3 1.1.4.9.3 1.9.6 2.9.4 1-.1 2-.6 2.9-1.9.4-2.1-.6-3.7-1.9-5-.6-.6-1.4-1.2-2-1.8l-.1-.1c-.7-.6-1.4-1.1-1.7-1.6-2.6-3.1-6.1-5.1-8.4-6.5l-.1-.1c-.6-.3-1.1-.6-1.5-.9-.4-.3-.9-.5-1-.8-.3-.3-.4-.4-.3-.6 0-.2.2-.4.6-.6l8.4.3.1.1c.1.1.1.2.3.4.3.4.9 1.1 1.9 2.6.3.4.6.9.9 1.6.1.3.3.6.5.9.6.9 1.3 2.1 2.1 3.1 1.8 2 4.5 3.6 9.1 3.2.1-.1.2-.1.3-.2.1-.1.2-.1.3-.2.2-.1.3-.3.4-.7.1-.4.1-.9 0-1.3v-.3c-.1-1.1-.7-2.1-1.5-3.3-.2-.3-.3-.5-.5-.7-.7-1-1.5-2.1-2.1-3.3-2.9-4.7-6.2-7.4-7.7-8.4-2.6-.9-3.9-1.9-4.6-2.5-.4-.3-.6-.6-.7-.8-.1-.1-.1-.2-.1-.2v-.6h.1c1.9-.1 3.9-.1 5.9.3.9.1 1.5.3 2.3.6L90.3 39.2zm0 0L136.9 53 90.3 39.2zm0 0l1.5 6.2-1.5-6.2zm0 0l1.5 6.2-1.5-6.2zM136.9 53c1.3.5 3.7 1.3 5.9 1.4 2.3.1 4.5-.4 5.6-2.5L136.9 53zm0 0c2.6.9 9.6 3.2 11.6-1.1L136.9 53zm11.6-1.2c.2-.4.2-.9.1-1.2-.1-.4-.3-.8-.6-1-1.4-1.1-3.9-3.1-6.4-5.1-1.3-.9-2.5-1.9-3.7-2.6-1.1-.8-2-1.4-2.6-1.6-.6-.3-1.4-.6-2.1-1-.4-.2-.7-.3-.9-.4-.1-.1-.2-.1-.3-.1l-.1-.1 16.6 13.1zm0 0l-56.6-6.7 56.6 6.7zm-56.6-6.5h.1c.1 0 .2-.1.3-.1.3-.1.7-.2 1.2-.4 1-.3 2.4-.8 4.2-1.3 3.5-1.1 8.1-2.6 12.8-4.2 4.7-1.6 9.4-3.4 13-5.1 1.8-.9 3.3-1.6 4.4-2.4.6-.4 1-.7 1.4-1 .3-.3.6-.6.6-.9l-38 15.4zm38-15.4c.4-1.9 2-3.7 3.9-5.3 1.7-1.6 3.8-2.9 4.9-3.7.3-.1.9-.4 1.4-.6.3-.1.6-.1.8-.2h.3c.1 0 .1.1.2.1 1 1 1.9 2.1 2.1 3.6.2 1.4-.2 3.1-1.6 5.2l-12 .9zm11.6-.9c-2.1 2.4-4.5 4.9-6.4 6.7-.9.9-1.7 1.6-2.4 2.1-.3.3-.5.4-.7.6l-.2.2-.1.1 9.8-9.7zm-9.6 9.7c.1 0 .1 0 0 0 .3.1 2.4 1.2 3.4 1.6l-3.4-1.6zm.1 0c.4-.4 5.7-5.1 9.7-9.7l-9.7 9.7zm0 0l4.7-9.7 1.8-8.1c.4-.3 2.1-1 2.6-.6 2.1 2.1 3.3 4.5.4 8.8l-9.5 9.6z" fill="#f9c8a3" stroke="#795438" stroke-width=".081"/><path d="M148.5 51.8l-11 1.3c-.3 0-.6-.2-.9-.3l-1.1-.3c-.1 0 .1 0 0 0l-2.9-.4-32.4-4.5c-2.9-.4-3-4.5-.2-5.1.1 0 .3-.1.4-.1l13.2-5.1c.1 0 .1-.1.2-.1l15.3-7.2c.2-.1.4-.3.6-.4l8.6-8.7c.9-.9 3.7 5.9 2.9 8.2 0 .1-3.4 3.8-3.5 3.9l-5 4.6c-.1.1-.6.4-.6.5-.3.9-1.4.3.7 1.2l14.7 11.2c.5.3.8.8 1 1.3z" fill="#f9c8a3"/><linearGradient id="SVGID_2_" gradientUnits="userSpaceOnUse" x1="91.02" y1="21.449" x2="92.114" y2="3.912" gradientTransform="translate(0 16)"><stop offset="0" stop-color="gray"/><stop offset=".01" stop-color="#727272"/><stop offset=".06" stop-color="#4f4f4f"/><stop offset=".1" stop-color="#323232"/><stop offset=".15" stop-color="#1c1c1c"/><stop offset=".2" stop-color="#0c0c0c"/><stop offset=".26" stop-color="#030303"/><stop offset=".34"/><stop offset=".7"/><stop offset=".75" stop-color="#050505"/><stop offset=".8" stop-color="#131313"/><stop offset=".86" stop-color="#2a2a2a"/><stop offset=".92" stop-color="#4b4b4b"/><stop offset=".98" stop-color="#747474"/><stop offset="1" stop-color="gray"/></linearGradient><path d="M91.2 20.4L90.1 37c0 .3.1.5.4.5l.9.1c.2 0 .4-.1.5-.4L93 20.4c0-.3-.1-.5-.4-.5l-.9-.1c-.3.1-.5.3-.5.6z" fill="url(#SVGID_2_)"/><linearGradient id="SVGID_3_" gradientUnits="userSpaceOnUse" x1="80.551" y1="189.77" x2="81.392" y2="176.25" gradientTransform="translate(0 16)"><stop offset="0" stop-color="gray"/><stop offset=".01" stop-color="#727272"/><stop offset=".06" stop-color="#4f4f4f"/><stop offset=".1" stop-color="#323232"/><stop offset=".15" stop-color="#1c1c1c"/><stop offset=".2" stop-color="#0c0c0c"/><stop offset=".26" stop-color="#030303"/><stop offset=".34"/><stop offset=".7"/><stop offset=".75" stop-color="#050505"/><stop offset=".8" stop-color="#131313"/><stop offset=".86" stop-color="#2a2a2a"/><stop offset=".92" stop-color="#4b4b4b"/><stop offset=".98" stop-color="#747474"/><stop offset="1" stop-color="gray"/></linearGradient><path d="M90 39.8l-.4 6.3c0 .3.1.5.4.5l.9.1c.2 0 .4-.1.5-.4l.4-6.3c0-.3-.1-.5-.4-.5l-.9-.1c-.3 0-.5.2-.5.4z" fill="url(#SVGID_3_)"/><linearGradient id="SVGID_4_" gradientUnits="userSpaceOnUse" x1="139.199" y1="39.929" x2="88.672" y2="36.778" gradientTransform="translate(0 16)"><stop offset="0" stop-color="#323232"/><stop offset=".03" stop-color="#1c1c1c"/><stop offset=".06" stop-color="#0c0c0c"/><stop offset=".1" stop-color="#030303"/><stop offset=".15"/><stop offset=".87"/><stop offset=".91" stop-color="#050505"/><stop offset=".95" stop-color="#131313"/><stop offset=".99" stop-color="#2a2a2a"/><stop offset="1" stop-color="#333"/></linearGradient><path d="M92.3 9.9L87 95.7c-.2 3.8 2.6 7.1 6.3 7.3l34.9 2.2c3.7.2 6.9-2.6 7.2-6.4l5.3-85.8c.2-3.8-2.6-7.1-6.3-7.3L99.5 3.5c-3.7-.3-7 2.6-7.2 6.4z" fill="url(#SVGID_4_)"/><linearGradient id="SVGID_5_" gradientUnits="userSpaceOnUse" x1="116.879" y1="-10.404" x2="117.092" y2="-13.953" gradientTransform="translate(0 16)"><stop offset="0"/><stop offset=".16" stop-color="#050505"/><stop offset=".34" stop-color="#131313"/><stop offset=".53" stop-color="#2a2a2a"/><stop offset=".74" stop-color="#4b4b4b"/><stop offset=".95" stop-color="#747474"/><stop offset="1" stop-color="gray"/></linearGradient><path d="M100.1 4l33.7 2.1c1.8.1 3.4 1 4.6 2.4 1.1 1.4 1.7 3.1 1.6 4.9v1c.1-1.8-.5-3.6-1.6-5s-2.9-2.2-4.7-2.3L100 5c-1.8-.1-3.5.5-4.9 1.6-1.3 1.1-2.1 2.9-2.3 4.7l.1-.9c.1-.9.3-1.8.7-2.6.4-.9 1-1.5 1.6-2.1.6-.6 1.4-1.1 2.3-1.4.7-.2 1.7-.3 2.6-.3z" fill="url(#SVGID_5_)"/><linearGradient id="SVGID_6_" gradientUnits="userSpaceOnUse" x1="111.397" y1="79.444" x2="110.973" y2="87.811" gradientTransform="translate(0 16)"><stop offset="0"/><stop offset=".16" stop-color="#050505"/><stop offset=".34" stop-color="#131313"/><stop offset=".53" stop-color="#2a2a2a"/><stop offset=".74" stop-color="#4b4b4b"/><stop offset=".95" stop-color="#747474"/><stop offset="1" stop-color="gray"/></linearGradient><path d="M127.6 104.7L94 102.5c-.9-.1-1.7-.3-2.6-.7-.9-.4-1.5-1-2.1-1.6-.6-.7-1.1-1.4-1.3-2.3-.3-.9-.4-1.7-.4-2.6l.1-1c-.1 1.8.5 3.6 1.6 5s2.9 2.2 4.7 2.3l33.7 2.1c1.8.1 3.5-.5 4.9-1.7 1.3-1.1 2.1-2.9 2.3-4.7l-.1 1c-.1.9-.3 1.8-.7 2.6s-1 1.5-1.6 2.1c-.7.6-1.4 1.1-2.3 1.3-.8.3-1.7.4-2.6.4z" fill="url(#SVGID_6_)"/><path d="M139.3 13.5l-5.2 84.7c-.1.7-.2 1.3-.5 1.9-.3.6-.7 1.1-1.2 1.6s-1.1.9-1.7 1.1c-.6.2-1.3.3-2 .3l-35.6-2.2c-.7-.1-1.3-.2-1.9-.5s-1.1-.7-1.6-1.2c-.4-.6-.8-1.1-1.1-1.7-.2-.6-.3-1.3-.3-2l5.2-84.7c.1-1.2.6-2.4 1.4-3.3.8-1 1.9-1.5 3.2-1.7.3-.1.6-.1.9 0l6.2.4c.2 0 .4.1.6.1.1.1.4.2.4.4.1.1.2.4.3.5.1.2.1.4.1.6 0 .4.1.8.4 1.1s.6.5 1 .5l17.4 1.1c.4 0 .8-.1 1.1-.4.3-.3.5-.6.5-1.1 0-.2.1-.4.1-.6.1-.1.2-.4.4-.5.1-.1.3-.2.5-.3.2-.1.4-.1.6-.1l6.2.4c1.3.1 2.6.7 3.5 1.7.7 1.2 1.2 2.4 1.1 3.9z" fill="#b4d1fa"/><linearGradient id="SVGID_7_" gradientUnits="userSpaceOnUse" x1="116.843" y1="-11.632" x2="116.501" y2="-6.153" gradientTransform="translate(0 16)"><stop offset="0"/><stop offset=".14" stop-color="#050505"/><stop offset=".3" stop-color="#131313"/><stop offset=".47" stop-color="#2a2a2a"/><stop offset=".65" stop-color="#4b4b4b"/><stop offset=".83" stop-color="#747474"/><stop offset="1" stop-color="#a1a1a1"/></linearGradient><path d="M122.1 8.7l-11-.7c-.1 0-.1-.1-.2-.1-.1-.1-.1-.1-.1-.2v-.1c0-.1.1-.1.1-.1l.1-.1h.1l11 .7h.1c.1 0 .1.1.1.1l.1.1v.2l-.1.1-.1.1h-.1z" fill="url(#SVGID_7_)"/><linearGradient id="SVGID_8_" gradientUnits="userSpaceOnUse" x1="108.922" y1="47.741" x2="108.922" y2="51.507" gradientTransform="translate(0 16)"><stop offset="0"/><stop offset=".14" stop-color="#050505"/><stop offset=".3" stop-color="#131313"/><stop offset=".47" stop-color="#2a2a2a"/><stop offset=".65" stop-color="#4b4b4b"/><stop offset=".83" stop-color="#747474"/><stop offset="1" stop-color="#a1a1a1"/></linearGradient><path d="M108.9 8c.1 0 .2 0 .4-.1.1-.1.2-.1.2-.2.1-.1.1-.2.1-.4 0-.1-.1-.2-.1-.3-.1-.1-.1-.1-.3-.2h-.4c-.1.1-.2.1-.3.2-.1.1-.1.2-.1.4v.2c0 .1.1.1.1.2l.1.1c.1.1.2.1.3.1z" fill="url(#SVGID_8_)"/><linearGradient id="SVGID_9_" gradientUnits="userSpaceOnUse" x1="124.309" y1="49.116" x2="124.309" y2="52.908" gradientTransform="translate(0 16)"><stop offset="0"/><stop offset=".14" stop-color="#050505"/><stop offset=".3" stop-color="#131313"/><stop offset=".47" stop-color="#2a2a2a"/><stop offset=".65" stop-color="#4b4b4b"/><stop offset=".83" stop-color="#747474"/><stop offset="1" stop-color="#a1a1a1"/></linearGradient><path d="M124.3 9h.2c.1 0 .1-.1.2-.1.1-.1.1-.1.1-.2s.1-.1.1-.2v-.2c0-.1-.1-.1-.1-.2-.1-.1-.1-.1-.2-.1s-.1-.1-.2-.1h-.2c-.1 0-.2 0-.3.1-.1.1-.1.1-.1.2-.1.1-.1.1-.1.2v.2c0 .1.1.1.1.2.1.1.1.1.2.1.1.1.2.1.3.1z" fill="url(#SVGID_9_)"/><path class="st12" d="M95.1 19.1l-1.6 22c0 .2 0 .5.1.7.1.2.2.4.4.6.1.2.4.4.6.4.2.1.4.1.7.2l37.3 2.6c.2 0 .5 0 .7-.1s.4-.2.6-.4c.2-.1.4-.4.4-.6s.1-.4.2-.7l1.4-22.5c0-.2 0-.5-.1-.7-.1-.2-.2-.4-.4-.6-.1-.2-.4-.4-.6-.4-.2-.1-.4-.1-.7-.2L97 17.3c-.5 0-.9.1-1.2.4-.4.5-.6.9-.7 1.4zm-1.7 26.1l-.3 1.8v.4c.1.1.1.2.1.4.1.1.1.1.3.2s.2.1.4.1l38.9 2.7c.1 0 .2 0 .4-.1.1-.1.2-.1.3-.2.1-.1.1-.1.2-.3.1-.1.1-.2.1-.4l.1-1.8c0-.1 0-.2-.1-.4-.1-.1-.1-.2-.1-.3-.1-.1-.1-.1-.3-.2-.1-.1-.2-.1-.4-.1l-38.9-2.7c-.2 0-.5.1-.6.2 0 .3-.1.5-.1.7zM93 56.1l-1.6 22c0 .2 0 .5.1.7s.2.4.4.6.4.4.6.4c.2.1.4.1.7.2l37.3 2.6c.2 0 .5 0 .7-.1s.4-.2.6-.4c.2-.1.4-.4.4-.6.1-.2.1-.4.2-.7l1.4-22.5c0-.2 0-.5-.1-.7-.1-.2-.2-.4-.4-.6-.1-.2-.4-.4-.6-.4s-.4-.1-.7-.2l-37-1.9c-.5 0-.9.1-1.2.4-.7.4-.8.8-.8 1.2z"/><path d="M139.3 13.5l-4 66.1L98 5.8c.3-.1.6-.1.9 0l6.2.4c.2 0 .4.1.6.1.1.1.4.2.4.4.1.1.2.4.3.5.1.2.1.4.1.6 0 .4.1.8.4 1.1s.6.5 1 .5l17.4 1.1c.4 0 .8-.1 1.1-.4.3-.3.5-.6.5-1.1 0-.2.1-.4.1-.6.1-.1.2-.4.4-.5.1-.1.3-.2.5-.3.2-.1.4-.1.6-.1l6.2.4c.7 0 1.3.2 1.9.5.6.3 1.1.7 1.6 1.2.4.6.9 1.1 1.1 1.7-.1.7 0 1.5 0 2.2z" fill="#d0e4ff" fill-opacity=".2"/><linearGradient id="SVGID_10_" gradientUnits="userSpaceOnUse" x1="95.678" y1="46.094" x2="123.539" y2="46.094" gradientTransform="matrix(.998 .06258 -.0624 .9981 3.763 40.434)"><stop offset="0" stop-color="#8d2716"/><stop offset="1" stop-color="#c9081f"/></linearGradient><path d="M96.8 88.1L126 90c1.1.1 1.9 1 1.8 2.1l-.3 4.9c-.1 1.1-1 1.9-2.1 1.8l-29.2-1.9c-1.1-.1-1.9-1-1.8-2.1l.3-4.9c.1-1.1 1-1.9 2.1-1.8z" fill="url(#SVGID_10_)"/><path d="M101.5 94.2c.6.1 1.1-.2 1.1-.7 0-.4-.3-.6-.6-.6.3 0 .6-.2.6-.6 0-.4-.4-.7-1-.8-.4 0-.9.1-1.1.4l.3.4c.2-.1.5-.2.7-.2.3 0 .5.1.5.4 0 .2-.2.3-.6.2h-.4v.5h.5c.4 0 .6.1.6.4s-.2.3-.6.3c-.3 0-.6-.1-.7-.4l-.3.4c.1.1.5.3 1 .3zm4.1.2l-.9-2.6-.7-.1-1.1 2.5.6.1.2-.4 1.1.1.1.4h.7zm-.9-.9l-.8-.1.5-1.1.3 1.2zm3.5 1.1l-1-1.4 1.1-1.1-.7-.1-1 1.1.1-1.1h-.6l-.1 2.6h.6l.1-.8.2-.2.7 1.1.6-.1zm2.9.2l-.9-2.6-.7-.1-1.1 2.5.6.1.2-.4 1.1.1.1.4h.7zm-.9-1l-.8-.1.5-1.1.3 1.2zm2.2 1.1c.6.1 1.1-.2 1.1-.7 0-.4-.3-.6-.6-.6.3 0 .6-.2.6-.6 0-.4-.4-.7-1-.8-.4 0-.9.1-1.1.4l.3.4c.2-.1.5-.2.7-.2.3 0 .5.1.5.4s-.2.3-.6.2h-.5v.5h.5c.4 0 .6.1.6.4 0 .2-.2.3-.6.3-.3 0-.6-.1-.7-.4l-.3.4c.2.1.6.3 1.1.3zm4.1.2l-.9-2.6-.7-.1-1.1 2.5.6.1.2-.4 1.1.1.1.4h.7zm-.9-1l-.8-.1.5-1.1.3 1.2zm2.2 1.1l.1-2.1.8.1v-.5l-2.1-.1v.5l.8.1-.1 2.1h.5zm1.5-2.5l-.1 2.6 1.2.1c.6 0 .9-.4.9-.8s-.3-.9-.8-.9l-.6-.1.1-.9h-.7zm1 1.5c.2 0 .4.1.4.4s-.2.4-.4.4l-.6-.1.1-.7h.5z" fill="#f5f9ff"/><defs><path id="SVGID_11_" transform="rotate(-85.995 103.522 13.301) scale(1.00004)" d="M100.4 5h6.2v16.6h-6.2z"/></defs><clipPath id="SVGID_12_"><use xlink:href="#SVGID_11_" overflow="visible"/></clipPath><g clip-path="url(#SVGID_12_)"><linearGradient id="SVGID_13_" gradientUnits="userSpaceOnUse" x1="101.47" y1="-3.297" x2="106.044" y2="-2.899" gradientTransform="translate(0 16)"><stop offset="0" stop-color="#b6142c"/><stop offset="1" stop-color="#a62e41"/></linearGradient><path d="M102.5 13.8c.5 0 .7-.2.9-.4l-.4-.2c-.1.1-.3.3-.5.3-.4 0-.6-.4-.6-.7s.4-.6.7-.6c.2 0 .4.1.5.4l.4-.1c-.1-.3-.4-.5-.9-.6-.6-.1-1.1.4-1.2 1s.5.9 1.1.9z" fill="url(#SVGID_13_)"/><linearGradient id="SVGID_14_" gradientUnits="userSpaceOnUse" x1="101.476" y1="-3.388" x2="106.05" y2="-2.99" gradientTransform="translate(0 16)"><stop offset="0" stop-color="#b6142c"/><stop offset="1" stop-color="#a62e41"/></linearGradient><path d="M106 14.1l.1-2.1-.6-.1-.6 1.2-.4-1.3-.6-.1-.1 2.1h.4l.1-1.4.5 1.5h.2l.7-1.4-.1 1.4.4.2z" fill="url(#SVGID_14_)"/><path class="st19" d="M107 13.6l.1-.5c.1-.1.2-.1.4-.1s.4.2.4.4c0 .3-.2.4-.4.4-.3 0-.5 0-.5-.2zm0 .5v-.2c.1.1.3.2.4.3.4 0 .7-.2.7-.7 0-.5-.2-.8-.6-.9-.2 0-.4.1-.5.2V12h-.4l-.1 2.1h.5zm2.1.2c.5 0 .9-.3.9-.7s-.3-.8-.8-.9c-.5 0-.9.3-.9.7 0 .5.3.9.8.9zm0-.3c-.3 0-.4-.2-.4-.4s.1-.4.4-.4c.3 0 .4.2.4.4s-.1.4-.4.4z"/><path class="st19" d="M111.5 14.4l-.5-.8.6-.7h-.4l-.4.4-.3-.5h-.4l.4.8-.6.7h.4l.4-.5.3.5.5.1z"/><linearGradient id="SVGID_15_" gradientUnits="userSpaceOnUse" x1="96.832" y1="-3.222" x2="99.611" y2="-3.006" gradientTransform="translate(0 16)"><stop offset="0" stop-color="#1758a0"/><stop offset="1" stop-color="#0a3d76"/></linearGradient><path d="M98.3 11h.1l1.1.8.1.1c0 .1-.1.1-.2.1l-1.1-.7-1.2.6c-.1 0-.1 0-.1-.1s0-.1.1-.1l1.2-.7zm-.1 2.8c.1 0 .1.1.1.1l-.1.5 1.1-.5c.1 0 .1 0 .1.1s0 .1-.1.1l-1.2.6c-.1.1-.1 0-.3 0l-1.1-.7-.1-.1c.1-.1.1-.1.2 0l1 .6.1-.5c.1-.2.2-.2.3-.2z" fill-rule="evenodd" clip-rule="evenodd" fill="url(#SVGID_15_)"/><linearGradient id="SVGID_16_" gradientUnits="userSpaceOnUse" x1="96.432" y1="-3.221" x2="99.869" y2="-2.934" gradientTransform="translate(0 16)"><stop offset="0" stop-color="#cd1732"/><stop offset=".5" stop-color="#b6142c"/><stop offset="1" stop-color="#8b1022"/></linearGradient><path d="M99.9 12c.1 0 .1.1.1.1l-.1 1.7c0 .1-.1.1-.1.1-.1 0-.1-.1-.1-.1l.1-1.5-1.4.6v.4c0 .1-.1.1-.1.1-.1 0-.1-.1-.1-.1v-.4l-1.3-.9-.1 1.5c0 .1-.1.1-.1.1-.1 0-.1-.1-.1-.1l.1-1.7c0-.1 0-.1.1-.1h.1l1.5 1 1.5-.7c-.1 0 0 0 0 0z" fill-rule="evenodd" clip-rule="evenodd" fill="url(#SVGID_16_)"/><linearGradient id="SVGID_17_" gradientUnits="userSpaceOnUse" x1="95.64" y1="-3.309" x2="100.445" y2="-2.94" gradientTransform="translate(0 16)"><stop offset="0" stop-color="#b6142c"/><stop offset="1" stop-color="#a62e41"/></linearGradient><path d="M98.1 10.3c.2-.1.3-.1.5 0l1.8 1.2c.1.1.1.2.1.4-.1.1-.2.1-.4 0l-1.7-1.1-2.2 1L96 14l2 1.3 1.9-.9c.1-.1.4-.1.4 0 .1.1 0 .2-.1.3l-1.8.9c-.1.1-.4.1-.6-.1l-1.9-1.3c-.1-.1-.3-.1-.2-.4l.1-2.2c0-.2.1-.4.3-.4l2-.9z" fill-rule="evenodd" clip-rule="evenodd" fill="url(#SVGID_17_)"/><path class="st23" d="M101.7 15c.1 0 .3-.1.4-.1l-.1-.1c-.1.1-.1.1-.2.1s-.2-.1-.2-.3c0-.1.1-.2.3-.2.1 0 .1.1.1.1l.1-.1c-.1-.1-.1-.2-.3-.2-.2 0-.4.1-.4.4 0 .2.1.4.3.4zm.6 0v-.4l.1-.1h.1v-.1c-.1 0-.1 0-.2.1v-.1h-.1l-.1.6h.2zm.6.1c.1 0 .2 0 .2-.1l-.1-.1c-.1 0-.1.1-.1.2-.1-.1-.1-.1-.1-.2h.4c0-.1-.1-.3-.3-.3-.1 0-.3.1-.3.3 0 0 .1.2.3.2zm.1-.4h-.3c0-.1.1-.1.1-.1.2 0 .2.1.2.1z"/><path class="st23" d="M103.7 15.1v-.4c0-.1-.1-.2-.2-.2s-.2 0-.3.1l.1.1.1-.1c.1 0 .1.1.1.1v.1c0-.1-.1-.1-.1-.1-.1 0-.2 0-.2.1s.1.2.2.2.1 0 .2-.1l.1.2zm-.2-.1c-.1 0-.1-.1 0 0-.1-.1 0-.1.1-.1s.1 0 .1.1h-.2zm.6.1h.1V15h-.1s-.1 0-.1-.1v-.2h.1v-.1h-.1v-.1h-.1v.1h-.1v.1h.1v.3c0 .1.1.1.2.1zm.3-.5c.1 0 .1 0 0 0 .1-.1.1-.1 0-.1s0-.1 0 .1c-.1-.1 0 0 0 0zm0 .5l.1-.6h-.1l-.1.6h.1zm.5.1l.3-.5h-.2l-.1.4-.1-.4h-.1l.2.5zm.6.1c.1 0 .2 0 .2-.1l-.1-.1c-.1 0-.1.1-.1.2-.1-.1-.1-.1-.1-.2h.4c0-.1-.1-.3-.3-.3-.1 0-.3.1-.3.3 0 0 .1.1.3.2zm.2-.4h-.3c0-.1.1-.1.1-.1s.2 0 .2.1zm1.3.4l.1-.7h-.2l-.2.4-.1-.4h-.2l-.1.7h.1l.1-.5.2.6h.1l.3-.5v.4h-.1zm.7 0V15c0-.1-.1-.2-.2-.2s-.2 0-.3.1l.1.1.1-.1c.1 0 .1.1.1.1 0-.1-.1-.1-.1-.1-.1 0-.2 0-.2.1s.1.2.2.2.1 0 .2-.1l.1.2zm-.3 0c-.1 0-.1-.1 0 0-.1-.1 0-.1.1-.1s.1 0 .1.1v.1c-.1-.1-.1-.1-.2-.1zm.6.1V15l.1-.1h.1v-.1c-.1 0-.1 0-.2.1v-.1h-.1l-.1.6h.2zm.8.1l-.2-.3.2-.2h-.2l-.2.2v-.4h-.1l-.1.7h.1v-.1l.1-.1.1.2h.3zm.4 0c.1 0 .2 0 .2-.1l-.1-.1c-.1 0-.1.1-.1.2-.1-.1-.1-.1-.1-.2h.4c0-.1-.1-.3-.3-.3-.1 0-.3.1-.3.3-.1 0 .1.2.3.2zm.1-.3h-.3c0-.1.1-.1.1-.1.1 0 .2 0 .2.1z"/><path class="st23" d="M109.7 15.6h.1v-.1h-.1s-.1 0-.1-.1v-.2h.1V15h-.1v-.1h-.1v.1h-.1v.1h.1v.3c0 .1.1.2.2.2zm.3-.7c.1 0 .1 0 0 0 .1-.1.1-.1 0-.1v.1zm.1.7l.1-.6h-.2l-.1.6h.2zm.6 0v-.4c0-.1-.1-.1-.1-.2-.1 0-.1 0-.2.1V15h-.1l-.1.6h.1v-.4l.1-.1c.1 0 .1 0 .1.1v.4h.2zm.4.2c.1 0 .3 0 .4-.2v-.5h-.1v.1l-.1-.1c-.1 0-.3.1-.3.3s.1.3.2.3.1 0 .2-.1v.1c-.1.1-.2.1-.3.1 0 0-.1 0 0 0h-.1.1zm.1-.3c-.1 0-.1-.1-.1-.1 0-.1.1-.1.1-.1.1 0 .1 0 .1.1v.1h-.1z"/></g><path class="st12" d="M91 82.3l-.2 1.8v.4c.1.1.1.2.1.4.1.1.1.1.3.2s.2.1.4.1l39.3 2.7c.1 0 .2 0 .4-.1.1-.1.2-.1.3-.2.1-.1.1-.1.2-.3.1-.1.1-.2.1-.4l.1-1.8c0-.1 0-.2-.1-.4s-.1-.2-.1-.3c-.1-.1-.1-.1-.3-.2-.1-.1-.2-.1-.4-.1l-39.2-2.7c-.2 0-.5.1-.7.2-.1.3-.1.5-.2.7z"/><linearGradient id="SVGID_18_" gradientUnits="userSpaceOnUse" x1="130.689" y1="70.537" x2="202.211" y2="-27.597" gradientTransform="matrix(1 0 0 -1 0 200)"><stop offset="0" stop-color="#b4d1fa" stop-opacity="0"/><stop offset="1" stop-opacity=".2"/></linearGradient><path d="M137.3 126.5l-27.1 6.1 43.7 46.9c7.4 7.6 43.3 19.7 48.5 16.9l-65.1-69.9z" fill="url(#SVGID_18_)"/><path d="M170.6 119.7h0c.9.2 1.9 0 2.7-.3 1.5-.5 3-.6 4.6-.3 1 .3 1.8.5 2.3.8.5.3.8.6.9.9v0l.2.7v0h0c1.9 4.3 3.4 8.8 4.5 13.4h0c1.3 3.5 1.9 8.8 2.2 13.2.1 2.2.2 4.2.3 5.6v2.2s0 0 0 0 0 0 0 0h0c0 .3.2.7.4 1.1.2.5.5 1 .8 1.5.6 1.1 1.4 2.2 2.1 3.1.7 1.1 1.6 2 2.6 2.8h0c1.9 1.5 2.9 2.7 3.5 3.6.3.4.5.7.6 1 .1.1.1.2.1.3v.1s0 0 0 0h0c6.3 10.7 9.4 14.2 10.7 15.3h0c1.3 1 2.4 2.2 3.3 3.5 1.1 1.6 1.6 3 1.7 4.1.1 1.1-.3 2-1 2.6-.7.7-1.8 1.1-3.1 1.4-1.3.3-2.9.4-4.7.4-7 0-16.7-2-22.9-3.5-3.9-1-7.5-3-10.2-5.9l-7.5-8h0c-.4-.4-.8-.9-1.1-1.3-.9-1.3-2.6-2.5-4.3-3.5-1.7-1-3.5-1.8-4.6-2.2-.7-.3-1.4-.6-2-1.1h0c-.7-.5-1.5-.9-2.4-1.4-3-1.7-7.3-4.2-12.5-9.5-.3-.3-.8-1-1.4-1.9-.1-.2-.3-.4-.4-.6-.5-.7-1.1-1.6-1.7-2.4-1.6-2.2-3.5-4.5-5.3-5.7-2.4-1.6-5.6-5.1-7.5-7.2h0c-1-1.2-2.2-2.2-3.6-3-2.9-1.7-4-3.2-4.4-4.3-.2-.5-.2-.9-.2-1.2 0-.1 0-.2.1-.3v-.1s0 0 0 0h0l.1-.1c.1 0 .1-.1.3-.2.2-.2.5-.4 1-.6.8-.5 2.1-1 3.6-1.1 3.1-.3 7.5.9 12.5 6.7h0c5.2 6 8.6 8.6 10.7 9.7h0c.3.2.6.2.9.2.3 0 .6-.1.9-.3.3-.2.5-.4.7-.7.2-.3.2-.6.2-.9v0c0-1.7 0-4-.1-6.2s-.2-4.4-.6-5.8c-.4-2-1.5-5.4-2.4-8.3-.5-1.5-.9-2.8-1.2-3.8-.2-.5-.3-.9-.4-1.2 0-.1-.1-.2-.1-.3v-.1h0s0 0 0 0h0c-.7-2-1.9-5.2-2.9-7.8-.5-1.3-1-2.5-1.3-3.4-.2-.4-.3-.8-.4-1l-.1-.3v-.1h0s0 0 0 0h0s0 0 0 0h0v-.1c0-.1-.1-.2-.2-.4-.2-.4-.4-.9-.6-1.5-.5-1.3-1.2-3-1.9-4.8-.7-1.8-1.4-3.7-2-5.2-.6-1.6-1-2.9-1.1-3.5-.2-1.3.5-2.3 1.2-3 .4-.3.7-.6 1-.8.1-.1.3-.2.4-.2 0 0 .1 0 .1-.1 0 0 0 0 0 0h0c.6-.2 1.2-.2 1.8-.1.6.1 1.2.4 1.6.7h0c.2.2.5.5.8.9.3.4.7 1 1.1 1.7.8 1.3 1.6 2.9 2.4 4.5.8 1.6 1.5 3.2 2 4.3.3.6.5 1.1.6 1.4.1.2.1.3.2.4v.1h0s0 0 0 0 0 0 0 0h0s0 0 0 0h0v.1c0 .1.1.2.1.3.1.3.3.6.6 1.1.5 1 1.1 2.3 1.9 3.9 1.5 3.2 3.5 7.3 5.1 11.1 1.5 3.6 2.2 5.4 2.5 6.4.1.2.1.4.2.5.1.2.1.3.2.4.1.1.1.1.2.1h.2s0 0 0 0h.4s0-.1.1-.1c.1-.1.1-.2.2-.4.2-.3.5-.8.9-1.2.4-.4.8-.9 1.2-1.3.4-.4.9-.6 1.3-.7.9-.1 1.7-.2 2.6-.1h0c.8 0 1.6-.2 2.2-.6h0s0 0 0 0c.6-.4 1.4-1 2.1-1.4.4-.2.7-.4 1.1-.6.3-.2.6-.3.8-.3 0 0 0 0 0 0s0 0 0 0 0 0 0 0 0 0 0 0 0 0 0 0c.1 0 .1 0 .2-.1.2-.1.5-.1.8-.2 1 .2 2.1.1 3.5.5z" fill="#f9c8a3" stroke="#795438" stroke-width=".1"/></svg>