<svg width="428" height="630" viewBox="0 0 428 630" fill="none" xmlns="http://www.w3.org/2000/svg">
<g filter="url(#filter0_d)">
<path d="M185.367 624L2 529.345L204.028 441L402 529.345L185.367 624Z" fill="#FFF5F7"/>
</g>
<g filter="url(#filter1_f)">
<path d="M95.7422 489L123.742 543L154.242 528L169.742 532.5H210.742L177.742 522L117.742 477.5L95.7422 489Z" fill="url(#paint0_linear)"/>
</g>
<path d="M173.849 41.1937C173.849 27.1686 139.318 24.6314 119.012 43.4081C88.0441 72.0445 90.387 91.2763 87.0314 143.38C83.3536 200.258 114.279 195.533 114.279 195.533C138.303 201.739 150.722 195.627 150.722 195.627C143.366 208.649 158.525 207.514 173.331 193.619L194.144 98.2149C196.372 36.0528 173.849 41.1937 173.849 41.1937Z" fill="#412716"/>
<path d="M154.886 96.1775C122.497 96.1775 102.884 113.309 94.8971 77.9158C88.7629 97.3759 86.9508 121.007 85.2864 146.931C81.6086 203.809 114.565 196.039 114.565 196.039C144.68 195.141 163.463 187.529 163.463 187.529C156.108 200.552 165.375 216.914 173.109 193.619L189.353 120.543C178.467 128.791 168.779 96.1775 154.886 96.1775Z" fill="#3C2415"/>
<path d="M165.207 125.11C176.342 126.382 183.99 104.811 184.384 80.7435C183.377 70.591 184.659 68.5363 174.852 61.1693C159.818 49.8751 162.161 68.2736 133.226 76.9009C133.219 80.0772 128.722 85.1659 129.163 89.08C131.24 107.477 147.44 123.08 165.207 125.11Z" fill="#FFCFAE"/>
<path d="M181.425 77.8901L181.626 77.1793C178.459 73.9069 172.821 73.4777 170.284 74.0947L170.405 75.9723C172.276 75.5299 174.218 75.4718 176.112 75.8014C178.006 76.1311 179.814 76.8417 181.425 77.8901Z" fill="#412716"/>
<path d="M146.373 79.1804C150.749 76.0555 158.373 75.5995 160.185 75.7739V73.856C155.068 73.9048 150.088 75.5196 145.917 78.483L146.373 79.1804Z" fill="#412716"/>
<path d="M167.239 88.0653C167.239 88.0653 167.239 92.1251 169.269 95.6774C171.3 99.2297 172.316 99.2297 171.808 100.752C171.301 102.275 168.763 101.622 168.093 101.622C167.424 101.622 166.224 102.272 166.224 102.272" stroke="#D3A688" stroke-width="0.5" stroke-miterlimit="10"/>
<path d="M179.123 83.4125C177.805 82.9222 177.375 83.0791 175.418 83.0791C174.523 83.1828 173.646 83.4025 172.808 83.7327C172.808 83.7327 170.851 85.6937 170.616 85.9487C170.205 86.4128 170.355 86.9357 170.975 87.0207C171.595 87.1056 172.28 86.9161 172.802 87.0207C176.82 87.6743 177.681 87.9227 179.978 87.0207C180.896 86.6888 181.772 86.25 182.587 85.7133C181.612 84.7046 180.43 83.9197 179.123 83.4125Z" fill="white"/>
<path d="M176.729 87.4573C177.99 87.4573 179.012 86.433 179.012 85.1695C179.012 83.906 177.99 82.8817 176.729 82.8817C175.468 82.8817 174.445 83.906 174.445 85.1695C174.445 86.433 175.468 87.4573 176.729 87.4573Z" fill="#28160D" stroke="#1C1105" stroke-width="0.2" stroke-miterlimit="10"/>
<path d="M176.73 86.4784C177.45 86.4784 178.034 85.8929 178.034 85.1707C178.034 84.4484 177.45 83.8629 176.73 83.8629C176.009 83.8629 175.425 84.4484 175.425 85.1707C175.425 85.8929 176.009 86.4784 176.73 86.4784Z" fill="black"/>
<path opacity="0.77" d="M175.424 85.1707C175.784 85.1707 176.076 84.8779 176.076 84.5168C176.076 84.1556 175.784 83.8629 175.424 83.8629C175.064 83.8629 174.771 84.1556 174.771 84.5168C174.771 84.8779 175.064 85.1707 175.424 85.1707Z" fill="white"/>
<path d="M170.44 86.5559L172.769 84.0066C172.98 83.7778 173.251 83.6126 173.551 83.5294L174.51 83.281C175 83.1559 175.507 83.1117 176.011 83.1503L178.47 83.3464C178.972 83.3865 179.459 83.5408 179.893 83.7974L182.43 85.3335L183.252 85.3793L180.884 83.2418C180.365 82.9286 179.779 82.7407 179.175 82.6928L176.722 82.4967C176.143 82.4505 175.561 82.5035 175 82.6535L174.047 82.9019C173.425 83.0031 172.829 83.2252 172.292 83.5556L169.546 86.6605L170.44 86.5559Z" fill="#D3A688"/>
<path opacity="0.5" d="M170.2 86.6615L172.529 84.1122C172.78 83.8378 173.104 83.6405 173.462 83.5435L174.415 83.2951C174.955 83.154 175.515 83.1054 176.072 83.1513L178.531 83.3474C179.085 83.3888 179.622 83.5613 180.097 83.8507L182.595 85.3803" stroke="#0A0001" stroke-width="0.3" stroke-miterlimit="10"/>
<path d="M170.523 87H171.548C172.085 86.9986 172.62 87.0534 173.146 87.1635C174.366 87.4316 176.969 88.092 179.33 87.34C179.474 87.2942 180.498 86.7581 180.635 86.6861L181.94 86.0322" stroke="#472A22" stroke-width="0.2" stroke-miterlimit="10"/>
<path d="M152.086 83.645C153.425 83.0064 153.894 83.1324 155.96 82.9521C156.914 82.9792 157.86 83.1305 158.775 83.4021C158.775 83.4021 161.023 85.293 161.287 85.5412C161.771 85.9929 161.661 86.559 161.015 86.7059C160.368 86.8527 159.628 86.7156 159.086 86.8742C154.904 87.9348 154.011 88.277 151.511 87.5352C150.511 87.2689 149.546 86.8861 148.635 86.3949C149.575 85.2407 150.752 84.3028 152.086 83.645Z" fill="white"/>
<path d="M154.986 87.6979C156.317 87.5819 157.3 86.4061 157.183 85.0719C157.065 83.7376 155.891 82.75 154.561 82.866C153.23 82.982 152.247 84.1577 152.364 85.492C152.482 86.8263 153.656 87.8139 154.986 87.6979Z" fill="#28160D" stroke="#1C1105" stroke-width="0.2" stroke-miterlimit="10"/>
<path d="M154.892 86.6632C155.653 86.5969 156.215 85.9249 156.148 85.1622C156.08 84.3995 155.41 83.8349 154.649 83.9012C153.889 83.9675 153.327 84.6396 153.394 85.4023C153.461 86.165 154.132 86.7295 154.892 86.6632Z" fill="black"/>
<path opacity="0.77" d="M153.393 85.4031C153.773 85.3699 154.054 85.0339 154.021 84.6525C153.987 84.2712 153.652 83.9889 153.271 84.0221C152.891 84.0552 152.61 84.3912 152.644 84.7726C152.677 85.1539 153.013 85.4362 153.393 85.4031Z" fill="white"/>
<path d="M161.539 86.1662L158.845 83.688C158.598 83.4643 158.294 83.3148 157.967 83.2567L156.938 83.0821C156.41 82.9952 155.871 82.9952 155.342 83.0822L152.757 83.5165C152.231 83.6061 151.732 83.8137 151.298 84.124L148.768 85.9797L147.904 86.1038L150.206 83.6278C150.726 83.2491 151.326 82.9967 151.96 82.8904L154.538 82.4567C155.143 82.355 155.76 82.3576 156.364 82.4643L157.399 82.6383C158.065 82.688 158.715 82.8676 159.312 83.1671L162.485 86.1949L161.539 86.1662Z" fill="#D3A688"/>
<path opacity="0.5" d="M161.8 86.2561L159.106 83.7778C158.815 83.5111 158.456 83.3325 158.068 83.263L157.04 83.0884C156.472 82.9934 155.893 82.9923 155.325 83.085L152.747 83.5187C152.166 83.6135 151.615 83.8452 151.141 84.1946L148.596 86.0447" stroke="#0A0001" stroke-width="0.3" stroke-miterlimit="10"/>
<path d="M161.49 86.6425L160.409 86.7368C159.839 86.7851 159.277 86.8925 158.729 87.0574C157.466 87.4531 154.786 88.3902 152.224 87.8132C152.061 87.7786 150.937 87.3058 150.786 87.2424C150.246 87.0249 150.786 87.2424 149.348 86.6716" stroke="#472A22" stroke-width="0.2" stroke-miterlimit="10"/>
<path d="M173.212 109.028C173.834 110.776 172.053 114.03 167.35 114.492C167.055 114.531 165.64 114.531 165.345 114.492C162.894 114.017 160.055 110.931 160.134 109.298C161.009 108.102 170.906 108.102 173.212 109.028Z" fill="#712A26"/>
<path d="M162.772 113.227C164.422 112.709 168.492 111.907 171.572 112.839C171.244 113.33 166.134 116.277 162.772 113.227Z" fill="#A03D3D"/>
<path d="M173.131 109.064C169.813 108.364 165.008 108.172 160.486 109.064C160.486 109.064 160.54 109.652 161.94 109.784C162.892 109.873 164.039 110.143 166.837 110.143C169.517 110.143 171.193 109.865 172.083 109.765C173.482 109.606 173.131 109.064 173.131 109.064Z" fill="#F5E5DC"/>
<path d="M134.001 92.0785C131.606 86.3709 127.701 82.9033 125.37 84.3248C123.04 85.7463 122.932 91.5401 125.37 97.2476C127.809 102.955 131.671 106.423 134.001 105.001C136.332 103.58 136.375 97.743 134.001 92.0785Z" fill="#FFCFAE"/>
<path d="M132.688 93.0524C131.313 89.522 129.048 87.3777 127.673 88.2657C126.298 89.1538 126.258 92.7275 127.673 96.2579C129.089 99.7883 131.293 101.976 132.688 101.045C134.083 100.113 134.083 96.5828 132.688 93.0524Z" fill="#EAAB85"/>
<path d="M135.299 96.6687C134.548 94.6195 132.752 93.573 131.296 94.4887C130.539 95.1131 130.01 95.9545 129.789 96.8887C129.568 97.8228 129.666 98.8004 130.069 99.6772C130.842 101.857 132.615 102.795 134.071 101.988C134.875 101.367 135.435 100.502 135.658 99.5349C135.881 98.5681 135.755 97.5573 135.299 96.6687Z" fill="#FFCFAE"/>
<path d="M135.174 93.6474C133.368 91.2381 130.429 86.5428 127.641 82.9905C126.678 78.4754 129.291 72.7693 130.937 65.6212L136.697 61.6768C136.697 67.0057 146.058 68.4491 145.409 71.3187C130.937 79.4383 132.599 82.4747 135.174 93.6474Z" fill="#412716"/>
<path d="M209.449 533.724L168.27 533.052C168.27 533.052 167.437 520.128 177.634 521.673C203.207 525.563 209.698 528.191 210.762 530.445C211.418 531.79 209.449 533.724 209.449 533.724Z" fill="#380D14"/>
<path d="M210.16 531.694L168.277 531.061C168.277 531.061 167.335 517.17 177.549 518.604C181.101 519.104 184.423 521.772 187.318 522.306C217.265 527.709 210.16 531.694 210.16 531.694Z" fill="#A62E41"/>
<path d="M130.81 528.969C128.999 530.739 127.3 532.613 125.722 534.581C120.671 541.185 120.969 545.083 131.873 541.492C132.916 541.131 135.936 539.688 137.893 539.056C137.893 539.056 140.614 537.667 143.969 535.88C148.352 533.561 154.054 530.055 155.054 527.593C155.05 526.184 155.16 522.778 153.054 521.191C147.91 517.312 141.304 520.885 136.234 524.638C133.252 526.749 130.81 528.969 130.81 528.969Z" fill="#380D14"/>
<path d="M130.859 528.112C129.036 529.867 127.327 531.725 125.741 533.677C120.66 540.205 120.96 544.04 131.927 540.49C132.977 540.151 136.014 538.706 137.982 538.082C137.982 538.082 140.719 536.709 144.094 534.961C148.068 532.892 153.076 529.154 154.405 527.487C155.577 526.713 155.076 523.104 153.577 520.857C149.94 515.666 141.488 520.139 136.389 523.849C133.314 525.971 130.859 528.112 130.859 528.112Z" fill="#A62E41"/>
<path d="M171.582 522.043H183.515C183.515 522.043 176.696 526.417 171.582 522.043Z" fill="#F9C8A3"/>
<path d="M141.422 520.46H152.684C152.684 520.46 145.234 524.056 141.422 520.46Z" fill="#F9C8A3"/>
<path d="M189.077 264.946C184.724 241.538 125.73 250.26 117.482 271.476C109.233 292.692 132.995 384.91 132.995 395.53C132.995 406.15 127.28 416.534 127.28 435.31C127.28 454.086 132.281 481.442 140.489 520.609H152.619C136.728 409.096 157.533 329.115 159.358 325.341C160.706 323.632 166.515 389.754 166.286 395.883C165.828 408.118 161.636 414.907 160.275 435.31C158.913 455.712 171.637 522 171.637 522H183.618C183.618 522 178.133 436.712 185.425 384.097C194.334 319.86 194.549 294.33 189.077 264.946Z" fill="#094D98"/>
<path d="M132.591 398.001C137.487 400.29 142.987 403.563 147.817 395.071C150.714 353.063 157.207 326.911 158.951 324.622C160.172 323.021 162.479 380.507 163.633 394.858C168.516 398.677 178.966 397.479 183.675 394.858C184.01 391.466 184.399 388.169 184.815 384.99C193.682 319.036 197.505 292.126 188.45 262.641C181.743 240.926 125.4 247.555 117.191 269.354C108.981 291.153 132.631 385.82 132.631 396.72C132.631 397.076 132.604 397.514 132.591 398.001Z" fill="#0C58AD"/>
<path d="M133.111 395.272C133.111 384.463 118.68 293.682 126.87 272.087C129.644 265.305 134.687 259.41 141.343 255.168C147.999 250.927 155.961 248.535 164.193 248.304C145.538 247.857 122.499 256.208 117.631 269.135C109.413 290.742 127.166 384.816 127.166 395.625C127.166 406.435 127.408 416.856 127.408 435.958C127.408 455.059 132.277 480.207 140.481 520.093H143.171C134.98 480.207 130.946 454.942 130.946 435.817C130.946 416.691 133.111 406.07 133.111 395.272Z" fill="#0A3D76"/>
<path d="M166.378 439.612C167.719 419.28 166.217 411.076 166.66 398.878C166.901 392.768 160.162 319.052 158.834 320.743C158.27 321.457 157.264 324.782 156.07 330.305C156.434 328.781 156.991 327.295 157.734 325.875C159.075 324.172 162.447 393.459 162.233 399.557C161.777 411.754 162.032 417.968 160.677 438.335C159.322 458.702 171.583 522 171.583 522H174.346C174.346 522 165.01 459.933 166.378 439.612Z" fill="#0A3D76"/>
<path d="M90.107 211.939C89.154 200.914 96.8184 204.643 98.9391 208.653C101.06 212.663 126.053 279.076 124.979 282.416C123.905 285.755 91.9996 233.249 90.107 211.939Z" fill="#FFCFAE"/>
<path d="M202.252 208.304C197.769 210.798 197.501 198.728 199.514 194.436C201.353 190.601 230.735 147.054 237.661 137.009C238.333 136.03 238.896 136.405 239.312 136.298C239.943 136.137 240.95 136.995 239.957 139.409C234.91 151.788 219.272 198.728 202.252 208.304Z" fill="#FFCFAE"/>
<path d="M171.771 138.618C169.167 134.005 156.173 137.277 154.012 138.98C151.851 140.684 194.28 209.323 200.884 208.72C210.012 207.714 182.871 158.306 171.771 138.618Z" fill="#FFCFAE"/>
<path d="M164.482 140.093C166.742 139.119 169.153 138.538 171.61 138.377C168.71 134.085 156.147 137.331 154.012 138.94C151.878 140.549 193.207 207.446 200.589 208.546C188.468 192.599 162.616 141.327 164.482 140.093Z" fill="#EAAB85"/>
<path d="M202.254 208.304C213.811 200.419 226.079 175.862 233.126 157.14C226.336 174.253 216.747 190.121 204.751 204.093C204.751 204.093 200.375 209.458 193.838 198.528C186.778 186.699 195.06 203.892 195.06 203.892C195.06 203.892 199.382 210.236 202.254 208.304Z" fill="#EAAB85"/>
<path d="M115.865 283.288C114.161 267.704 129.288 238.789 127.798 222.655C126.308 206.521 106.443 148.234 118.402 140.429C130.362 132.623 167.167 133.361 169.771 137.036C172.375 140.711 180.401 168.043 180.925 187.302C180.925 187.302 168.616 201.585 191.341 272.116C174.321 287.003 129.744 289.926 115.865 283.288Z" fill="#D6516B"/>
<path d="M127.434 286.077C131.058 260.421 138.024 212.663 154.507 212.314C162.44 212.153 174.293 223.378 181.501 236.066C174.991 197.172 179.863 189.206 180.923 187.275C173.597 194.118 153.892 198.578 140.722 193.98C123.581 186.007 121.031 157.877 117.3 141.475C106.951 152.593 126.843 207.781 127.796 222.694C128.816 238.708 115.246 269.071 115.864 283.328C119.551 284.847 123.456 285.775 127.434 286.077Z" fill="#C43B55"/>
<path d="M161.529 134.957V117.499L133.734 98.7222L139.503 135.694C139.503 135.694 164.308 164.891 161.529 134.957Z" fill="#FFCFAE"/>
<path d="M120.994 160.613C123.302 157.234 118.524 143.178 117.302 141.435C116.081 139.691 87.7725 204.187 90.0141 210.249C95.8395 226.249 111.208 174.99 120.994 160.613Z" fill="#FFCFAE"/>
<path d="M117.301 141.435C118.066 147.162 119.033 155.906 118.201 158.307C114.281 169.559 102.093 204.053 95.5566 211.067C103.986 209.31 113.583 172.094 121.06 160.613C123.436 156.845 118.939 145.351 117.301 141.435Z" fill="#EAAB85"/>
<path d="M134.198 97.7972C135.857 100.913 138.68 102.378 139.224 99.9293C139.768 97.481 137.038 91.2013 135.693 92.7987C134.348 94.396 133.292 96.0574 134.198 97.7972Z" fill="#FFCFAE"/>
<path d="M237.81 139.048C240.696 142.226 240.817 135.024 243.18 135.292C248.804 136.003 246.978 133.468 247.488 130.142C248.508 123.544 247.663 127.634 243.206 124.349C240.522 122.391 243.045 116.074 240.938 116.074C239.247 116.074 239.153 120.902 239.112 129.485C239.086 136.392 236.428 137.532 237.81 139.048Z" fill="#FFCFAE"/>
<path d="M126.775 279.747C126.949 278.406 127.486 277.44 126.882 277.373C126.278 277.306 125.057 278.192 124.869 279.479C124.681 280.767 125.124 281.974 125.741 282.041C126.359 282.108 126.587 281.035 126.775 279.747Z" fill="#E1AA7E"/>
<path d="M119.61 278.581C120.402 277.24 121.301 276.126 122.039 276.448C122.778 276.77 122.737 278.178 121.932 279.56C121.127 280.941 119.892 281.813 119.154 281.478C118.415 281.142 118.845 279.962 119.61 278.581Z" fill="#E1AA7E"/>
<path d="M124.121 279.265C124.296 277.629 124.94 276.341 124.121 276.247C123.302 276.153 121.853 277.28 121.692 278.929C121.53 280.579 122.39 282.135 123.155 282.229C123.92 282.323 123.96 280.901 124.121 279.265Z" fill="#E1AA7E"/>
<path d="M114.16 263.828C116.455 267.476 115.073 277.87 118.965 277.239C122.455 276.716 127.234 271.03 117.247 262.232L114.16 263.828Z" fill="#FFCFAE"/>
<path d="M121.301 267.664C115.086 268.214 115.824 275.335 116.616 277.521C117.475 279.922 122.321 280.727 123.985 279.426C125.65 278.125 123.69 267.449 121.301 267.664Z" fill="#FFCFAE"/>
<path d="M123.072 278.299C124.092 281.115 125.314 282.322 126.079 282.014C126.844 281.705 126.079 280.109 125.139 277.306C124.2 274.503 123.555 270.694 122.79 271.043C122.025 271.392 122.052 275.496 123.072 278.299Z" fill="#FFCFAE"/>
<path d="M120.293 278.46C120.897 281.263 122.629 282.389 123.421 282.215C124.213 282.041 122.964 279.533 122.36 276.77C121.756 274.007 121.206 272.183 120.414 272.371C119.622 272.559 119.689 275.67 120.293 278.46Z" fill="#FFCFAE"/>
<path d="M116.628 277.628C117.38 280.914 118.588 281.933 119.313 281.732C120.038 281.531 119.205 279.425 118.454 276.153C117.702 272.88 117.111 270.587 116.346 270.788C115.581 270.989 115.877 274.356 116.628 277.628Z" fill="#FFCFAE"/>
<path d="M122.563 273.954C125.248 276.314 127.529 275.979 128.039 274.732C128.214 274.316 122.751 266.832 121.019 267.785C119.798 268.469 119.865 271.594 122.563 273.954Z" fill="#FFCFAE"/>
<path d="M128.777 276.77C129.462 277.722 130.643 278.111 129.838 278.849C129.032 279.586 127.865 278.849 127.153 277.816C125.918 276.032 123.408 273.269 127.435 273.792C128.241 273.927 128.026 275.75 128.777 276.77Z" fill="#FFCFAE"/>
<path d="M244.938 142.59L242.92 141.728L250.251 107.389L252.407 107.389L244.938 142.59Z" fill="#303030"/>
<path d="M243.783 142.158L238.608 140.434L245.939 107.316H250.683L243.783 142.158Z" fill="#B4D1FA"/>
<path d="M248.629 126.615C248.629 125.824 248.212 125.475 246.521 125.421C244.83 125.368 243.77 125.421 243.743 126.226C243.716 127.031 244.83 127.3 246.521 127.353C248.212 127.407 248.602 127.407 248.629 126.615Z" fill="#FFCFAE"/>
<path d="M248.36 129.204C248.36 128.412 247.93 128.09 246.239 128.05C244.548 128.01 243.192 128.05 243.179 128.788C243.165 129.526 244.521 129.928 246.239 129.982C247.957 130.036 248.333 129.995 248.36 129.204Z" fill="#FFCFAE"/>
<path d="M247.984 131.94C248.145 131.162 247.984 130.598 246.843 130.679C245.151 130.679 243.796 130.679 243.769 131.417C243.742 132.154 245.111 132.637 246.843 132.611C247.849 132.584 247.849 132.584 247.984 131.94Z" fill="#FFCFAE"/>
<path d="M247.594 133.992C247.809 133.227 247.326 133.12 246.856 133.039C245.634 132.838 244.52 132.865 244.494 133.656C244.467 134.448 245.836 134.193 246.762 134.327C246.762 134.354 247.514 134.274 247.594 133.992Z" fill="#FFCFAE"/>
<path d="M161.531 127.141V124.502C150.59 120.027 141.424 113.975 134.748 104.812C140.028 119.833 156.455 126.464 161.531 127.141Z" fill="#EAAB85"/>
<g filter="url(#filter2_d)">
<path d="M386.002 14H265.998C262.845 14 259.723 14.6271 256.81 15.8453C253.898 17.0636 251.252 18.8492 249.023 21.1001C246.794 23.351 245.027 26.0231 243.822 28.9637C242.617 31.9042 241.998 35.0556 242 38.2378V64.4707C241.998 67.6521 242.617 70.8027 243.822 73.7424C245.028 76.682 246.795 79.353 249.024 81.6026C251.253 83.8522 253.899 85.6362 256.812 86.8527C259.724 88.0692 262.846 88.6942 265.998 88.692H273.202C274.514 93.8182 275.036 100.285 271.989 106.537C271.212 108.131 272.562 110.118 274.238 109.541C281.837 106.925 295.553 100.671 299.536 88.692H386.002C392.367 88.692 398.471 86.1402 402.971 81.5978C407.472 77.0554 410 70.8946 410 64.4707V38.2378C410 31.8124 407.472 25.6499 402.972 21.1049C398.472 16.5599 392.368 14.0044 386.002 14Z" fill="url(#paint1_linear)"/>
</g>
<path d="M258.367 48.7331H260.333V46.6667H267.926V48.7331H269.892V44.9363H268.85V35.4611H261.24L260.585 41.2235C260.198 44.5331 259.577 44.9867 258.367 45.1211V48.7331ZM262.534 41.3579L263.004 37.1915H266.885V44.9363H261.055C261.811 44.2475 262.332 43.1051 262.534 41.3579Z" fill="#F5F9FF"/>
<path d="M278.064 46.6667V41.2907C278.064 39.1067 276.485 38.3507 274.687 38.3507C273.393 38.3507 272.217 38.7707 271.277 39.6611L271.999 40.8875C272.705 40.1987 273.494 39.8627 274.401 39.8627C275.527 39.8627 276.3 40.4339 276.3 41.3747V42.5843C275.712 41.8955 274.771 41.5427 273.679 41.5427C272.352 41.5427 270.857 42.3155 270.857 44.1803C270.857 45.9779 272.352 46.8683 273.679 46.8683C274.754 46.8683 275.695 46.4819 276.3 45.7931V46.6667H278.064ZM274.368 45.6587C273.377 45.6587 272.637 45.0875 272.637 44.2139C272.637 43.3235 273.377 42.7523 274.368 42.7523C275.141 42.7523 275.897 43.0379 276.3 43.5923V44.8187C275.897 45.3731 275.141 45.6587 274.368 45.6587Z" fill="#F5F9FF"/>
<path d="M284.719 46.8683C286.819 46.8683 288.314 45.2723 288.314 42.6011C288.314 39.9299 286.819 38.3507 284.719 38.3507C283.661 38.3507 282.72 38.8547 282.115 39.6611V38.5523H280.351V49.7579H282.115V45.5411C282.77 46.4147 283.694 46.8683 284.719 46.8683ZM284.198 45.3059C283.375 45.3059 282.501 44.8019 282.115 44.2139V41.0051C282.501 40.4003 283.375 39.9131 284.198 39.9131C285.593 39.9131 286.483 41.0387 286.483 42.6011C286.483 44.1803 285.593 45.3059 284.198 45.3059Z" fill="#F5F9FF"/>
<path d="M291.76 46.6667L295.557 41.0555V46.6667H297.321V38.5523H295.557L291.827 44.0123V38.5523H290.063V46.6667H291.76Z" fill="#F5F9FF"/>
<path d="M308.701 46.6667V38.5523H306.382L304.165 43.7939L301.913 38.5523H299.612V46.6667H301.376V41.0219L303.812 46.6667H304.517L306.937 41.0219V46.6667H308.701Z" fill="#F5F9FF"/>
<path d="M318.992 46.8683C320.571 46.8683 321.529 46.1963 322.1 45.4235L320.941 44.3483C320.487 44.9699 319.866 45.3059 319.076 45.3059C317.598 45.3059 316.623 44.1803 316.623 42.6011C316.623 41.0219 317.598 39.9131 319.076 39.9131C319.866 39.9131 320.487 40.2323 320.941 40.8707L322.1 39.7955C321.529 39.0227 320.571 38.3507 318.992 38.3507C316.523 38.3507 314.792 40.1483 314.792 42.6011C314.792 45.0707 316.523 46.8683 318.992 46.8683Z" fill="#F5F9FF"/>
<path d="M331.241 46.6667L327.797 42.2315L331.173 38.5523H328.989L325.411 42.4667V38.5523H323.647V46.6667H325.411V44.4827L326.537 43.3235L329.023 46.6667H331.241Z" fill="#F5F9FF"/>
<path d="M334.187 46.6667L337.984 41.0555V46.6667H339.748V38.5523H337.984L334.254 44.0123V38.5523H332.49V46.6667H334.187Z" fill="#F5F9FF"/>
<path d="M341.198 48.7331H342.962V46.6667H348.422V48.7331H350.186V45.1211H349.296V38.5523H343.03L342.542 42.5003C342.274 44.6339 341.887 45.0371 341.198 45.2051V48.7331ZM344.592 40.0979H347.532V45.1211H343.231C343.802 44.6171 344.189 43.8275 344.306 42.7019L344.592 40.0979Z" fill="#F5F9FF"/>
<path d="M359.23 46.6667L355.786 42.2315L359.162 38.5523H356.978L353.4 42.4667V38.5523H351.636V46.6667H353.4V44.4827L354.526 43.3235L357.012 46.6667H359.23Z" fill="#F5F9FF"/>
<path d="M360.126 49.8419C360.378 49.9091 360.865 49.9595 361.117 49.9595C362.377 49.9427 363.352 49.5059 363.906 48.1283L367.821 38.5523H365.922L363.553 44.6339L361.185 38.5523H359.303L362.629 46.7675L362.226 47.6915C361.991 48.2291 361.621 48.3971 361.067 48.3971C360.865 48.3971 360.58 48.3467 360.395 48.2627L360.126 49.8419Z" fill="#F5F9FF"/>
<path d="M377.241 46.8683C379.946 46.8683 381.727 45.3731 381.727 42.9875C381.727 40.7195 380.03 39.3587 378.132 39.3587C377.107 39.3587 376.2 39.7619 375.662 40.2995V37.5611H380.971V35.4611H373.277V41.8955L374.94 42.3323C375.612 41.6939 376.368 41.4251 377.292 41.4251C378.569 41.4251 379.308 42.0971 379.308 43.0883C379.308 43.9955 378.552 44.7515 377.225 44.7515C376.049 44.7515 375.007 44.3147 374.251 43.5251L372.924 45.1883C373.881 46.2299 375.293 46.8683 377.241 46.8683Z" fill="#F5F9FF"/>
<path d="M385.598 40.8707C387.328 40.8707 388.454 39.6779 388.454 38.1155C388.454 36.5363 387.328 35.2931 385.598 35.2931C383.884 35.2931 382.759 36.5363 382.759 38.1155C382.759 39.6779 383.884 40.8707 385.598 40.8707ZM385.766 46.6667L392.939 35.4611H391.663L384.506 46.6667H385.766ZM391.763 46.8683C393.477 46.8683 394.619 45.6587 394.619 44.0963C394.619 42.5171 393.477 41.2739 391.763 41.2739C390.05 41.2739 388.924 42.5171 388.924 44.0963C388.924 45.6587 390.05 46.8683 391.763 46.8683ZM385.598 39.5603C384.842 39.5603 384.271 38.9891 384.271 38.1155C384.271 37.1747 384.842 36.6203 385.598 36.6203C386.371 36.6203 386.925 37.1747 386.925 38.1155C386.925 38.9891 386.371 39.5603 385.598 39.5603ZM391.763 45.5579C390.991 45.5579 390.436 45.0035 390.436 44.0963C390.436 43.1723 390.991 42.6011 391.763 42.6011C392.536 42.6011 393.107 43.1723 393.107 44.0963C393.107 45.0035 392.536 45.5579 391.763 45.5579Z" fill="#F5F9FF"/>
<path d="M280.789 68.3349C283.174 68.3349 284.619 67.3269 284.619 65.9325C284.619 64.6557 283.275 64.0509 282.301 63.9837C283.325 63.8325 284.451 63.1437 284.451 62.0349C284.451 60.6573 282.973 59.8173 280.587 59.8341C279.109 59.8341 277.966 60.3717 277.193 61.1613L278.067 62.2365C278.722 61.5813 279.579 61.2621 280.671 61.2621C281.797 61.2621 282.62 61.6821 282.62 62.2701C282.62 62.9757 281.847 63.3285 280.637 63.3285H278.907V64.7397H280.637C281.881 64.7397 282.771 65.0253 282.771 65.7981C282.771 66.4533 282.032 66.8901 280.789 66.8901C279.713 66.8901 278.638 66.5709 277.882 65.8989L277.059 67.0245C277.865 67.8141 279.125 68.3349 280.789 68.3349Z" fill="#F5F9FF"/>
<path d="M293.117 68.1333V62.7573C293.117 60.5733 291.537 59.8173 289.74 59.8173C288.446 59.8173 287.27 60.2373 286.329 61.1277L287.052 62.3541C287.757 61.6653 288.547 61.3293 289.454 61.3293C290.58 61.3293 291.353 61.9005 291.353 62.8413V64.0509C290.765 63.3621 289.824 63.0093 288.732 63.0093C287.405 63.0093 285.909 63.7821 285.909 65.6469C285.909 67.4445 287.405 68.3349 288.732 68.3349C289.807 68.3349 290.748 67.9485 291.353 67.2597V68.1333H293.117ZM289.421 67.1253C288.429 67.1253 287.69 66.5541 287.69 65.6805C287.69 64.7901 288.429 64.2189 289.421 64.2189C290.193 64.2189 290.949 64.5045 291.353 65.0589V66.2853C290.949 66.8397 290.193 67.1253 289.421 67.1253Z" fill="#F5F9FF"/>
<path d="M306.976 68.1333V60.0189H299.718V68.1333H301.482V61.5645H305.212V68.1333H306.976Z" fill="#F5F9FF"/>
<path d="M312.929 68.3349C315.533 68.3349 317.113 66.4029 317.113 64.0677C317.113 61.7493 315.533 59.8173 312.929 59.8173C310.359 59.8173 308.763 61.7493 308.763 64.0677C308.763 66.4029 310.359 68.3349 312.929 68.3349ZM312.929 66.7725C311.434 66.7725 310.594 65.5125 310.594 64.0677C310.594 62.6397 311.434 61.3797 312.929 61.3797C314.441 61.3797 315.281 62.6397 315.281 64.0677C315.281 65.5125 314.441 66.7725 312.929 66.7725Z" fill="#F5F9FF"/>
<path d="M318.057 70.1997H319.821V68.1333H325.281V70.1997H327.045V66.5877H326.155V60.0189H319.889L319.401 63.9669C319.133 66.1005 318.746 66.5037 318.057 66.6717V70.1997ZM321.451 61.5645H324.391V66.5877H320.09C320.661 66.0837 321.048 65.2941 321.165 64.1685L321.451 61.5645Z" fill="#F5F9FF"/>
<path d="M335.753 68.1333V60.0189H328.495V68.1333H330.259V61.5645H333.989V68.1333H335.753Z" fill="#F5F9FF"/>
<path d="M339.74 68.1333L343.537 62.5221V68.1333H345.301V60.0189H343.537L339.807 65.4789V60.0189H338.043V68.1333H339.74Z" fill="#F5F9FF"/>
<path d="M351.288 68.3349C352.867 68.3349 353.825 67.6629 354.396 66.8901L353.237 65.8149C352.783 66.4365 352.162 66.7725 351.372 66.7725C349.894 66.7725 348.919 65.6469 348.919 64.0677C348.919 62.4885 349.894 61.3797 351.372 61.3797C352.162 61.3797 352.783 61.6989 353.237 62.3373L354.396 61.2621C353.825 60.4893 352.867 59.8173 351.288 59.8173C348.818 59.8173 347.088 61.6149 347.088 64.0677C347.088 66.5373 348.818 68.3349 351.288 68.3349Z" fill="#F5F9FF"/>
<path d="M363.536 68.1333L360.092 63.6981L363.469 60.0189H361.285L357.707 63.9333V60.0189H355.943V68.1333H357.707V65.9493L358.832 64.7901L361.319 68.1333H363.536Z" fill="#F5F9FF"/>
<path d="M364.433 71.3085C364.685 71.3757 365.172 71.4261 365.424 71.4261C366.684 71.4093 367.658 70.9725 368.213 69.5949L372.127 60.0189H370.229L367.86 66.1005L365.491 60.0189H363.61L366.936 68.2341L366.533 69.1581C366.298 69.6957 365.928 69.8637 365.374 69.8637C365.172 69.8637 364.886 69.8133 364.702 69.7293L364.433 71.3085Z" fill="#F5F9FF"/>
<path d="M374.915 64.7061L375.217 56.9277H373.067L373.386 64.7061H374.915ZM374.142 68.3013C374.78 68.3013 375.318 67.7637 375.318 67.1421C375.318 66.5037 374.78 65.9661 374.142 65.9661C373.504 65.9661 372.983 66.5037 372.983 67.1421C372.983 67.7637 373.504 68.3013 374.142 68.3013Z" fill="#F5F9FF"/>
<defs>
<filter id="filter0_d" x="0" y="439" width="408" height="191" filterUnits="userSpaceOnUse" color-interpolation-filters="sRGB">
<feFlood flood-opacity="0" result="BackgroundImageFix"/>
<feColorMatrix in="SourceAlpha" type="matrix" values="0 0 0 0 0 0 0 0 0 0 0 0 0 0 0 0 0 0 127 0"/>
<feOffset dx="2" dy="2"/>
<feGaussianBlur stdDeviation="2"/>
<feColorMatrix type="matrix" values="0 0 0 0 0 0 0 0 0 0 0 0 0 0 0 0 0 0 0.2 0"/>
<feBlend mode="normal" in2="BackgroundImageFix" result="effect1_dropShadow"/>
<feBlend mode="normal" in="SourceGraphic" in2="effect1_dropShadow" result="shape"/>
</filter>
<filter id="filter1_f" x="93.7422" y="475.5" width="119" height="69.5" filterUnits="userSpaceOnUse" color-interpolation-filters="sRGB">
<feFlood flood-opacity="0" result="BackgroundImageFix"/>
<feBlend mode="normal" in="SourceGraphic" in2="BackgroundImageFix" result="shape"/>
<feGaussianBlur stdDeviation="1" result="effect1_foregroundBlur"/>
</filter>
<filter id="filter2_d" x="228" y="0" width="200" height="127.643" filterUnits="userSpaceOnUse" color-interpolation-filters="sRGB">
<feFlood flood-opacity="0" result="BackgroundImageFix"/>
<feColorMatrix in="SourceAlpha" type="matrix" values="0 0 0 0 0 0 0 0 0 0 0 0 0 0 0 0 0 0 127 0"/>
<feOffset dx="2" dy="2"/>
<feGaussianBlur stdDeviation="8"/>
<feColorMatrix type="matrix" values="0 0 0 0 0.65098 0 0 0 0 0.180392 0 0 0 0 0.254902 0 0 0 0.3 0"/>
<feBlend mode="normal" in2="BackgroundImageFix" result="effect1_dropShadow"/>
<feBlend mode="normal" in="SourceGraphic" in2="effect1_dropShadow" result="shape"/>
</filter>
<linearGradient id="paint0_linear" x1="101.242" y1="462.5" x2="177.143" y2="562.239" gradientUnits="userSpaceOnUse">
<stop stop-color="#B4D1FA" stop-opacity="0"/>
<stop offset="1" stop-opacity="0.2"/>
</linearGradient>
<linearGradient id="paint1_linear" x1="404.821" y1="61.8215" x2="247.123" y2="55.874" gradientUnits="userSpaceOnUse">
<stop stop-color="#A62E41"/>
<stop offset="1" stop-color="#E13152"/>
</linearGradient>
</defs>
</svg>
