<svg width="428" height="630" fill="none" xmlns="http://www.w3.org/2000/svg"><g filter="url(#filter0_d)"><path d="M185.367 624L2 529.345 204.028 441 402 529.345 185.367 624z" fill="#FFF5F7"/></g><g filter="url(#filter1_f)"><path d="M95.742 489l28 54 30.5-15 15.5 4.5h41l-33-10.5-60-44.5-22 11.5z" fill="url(#paint0_linear)"/></g><path d="M173.849 41.194c0-14.025-34.531-16.563-54.837 2.214-30.968 28.636-28.625 47.868-31.98 99.972-3.678 56.878 27.247 52.153 27.247 52.153 24.024 6.206 36.443.094 36.443.094-7.356 13.022 7.803 11.887 22.609-2.008l20.813-95.404c2.228-62.162-20.295-57.021-20.295-57.021z" fill="#412716"/><path d="M154.886 96.177c-32.389 0-52.002 17.132-59.989-18.261-6.134 19.46-7.946 43.091-9.61 69.015-3.678 56.878 29.278 49.108 29.278 49.108 30.115-.898 48.898-8.51 48.898-8.51-7.355 13.023 1.912 29.385 9.646 6.09l16.244-73.076c-10.886 8.248-20.574-24.366-34.467-24.366z" fill="#3C2415"/><path d="M165.207 125.11c11.135 1.272 18.783-20.299 19.177-44.367-1.007-10.152.275-12.207-9.532-19.574-15.034-11.294-12.691 7.105-41.626 15.732-.007 3.176-4.504 8.265-4.063 12.179 2.077 18.397 18.277 34 36.044 36.03z" fill="#FFCFAE"/><path d="M181.425 77.89l.201-.71c-3.167-3.273-8.805-3.702-11.342-3.085l.121 1.877a14.214 14.214 0 0111.02 1.918zm-35.052 1.29c4.376-3.125 12-3.58 13.812-3.406v-1.918a25.048 25.048 0 00-14.268 4.627l.456.697z" fill="#412716"/><path d="M167.239 88.065s0 4.06 2.03 7.612c2.031 3.553 3.047 3.553 2.539 5.075-.507 1.523-3.045.87-3.715.87-.669 0-1.869.65-1.869.65" stroke="#D3A688" stroke-width=".5" stroke-miterlimit="10"/><path d="M179.123 83.412c-1.318-.49-1.748-.333-3.705-.333-.895.104-1.772.324-2.61.654 0 0-1.957 1.96-2.192 2.216-.411.464-.261.987.359 1.072.62.085 1.305-.105 1.827 0 4.018.653 4.879.902 7.176 0a12.419 12.419 0 002.609-1.308 9.697 9.697 0 00-3.464-2.3z" fill="#fff"/><path d="M176.729 87.457a2.285 2.285 0 002.283-2.287 2.285 2.285 0 00-2.283-2.288 2.286 2.286 0 00-2.284 2.287 2.286 2.286 0 002.284 2.288z" fill="#28160D" stroke="#1C1105" stroke-width=".2" stroke-miterlimit="10"/><path d="M176.73 86.478c.72 0 1.304-.585 1.304-1.307a1.306 1.306 0 10-2.609 0c0 .722.584 1.307 1.305 1.307z" fill="#000"/><path opacity=".77" d="M175.424 85.17a.653.653 0 10-.002-1.305.653.653 0 00.002 1.306z" fill="#fff"/><path d="M170.44 86.556l2.329-2.55c.211-.228.482-.393.782-.477l.959-.248a4.6 4.6 0 011.501-.13l2.459.195c.502.04.989.195 1.423.451l2.537 1.537.822.045-2.368-2.137a3.908 3.908 0 00-1.709-.55l-2.453-.195a5.095 5.095 0 00-1.722.156l-.953.249a4.828 4.828 0 00-1.755.654l-2.746 3.105.894-.105z" fill="#D3A688"/><path opacity=".5" d="M170.2 86.662l2.329-2.55a1.96 1.96 0 01.933-.569l.953-.248c.54-.141 1.1-.19 1.657-.144l2.459.196a3.514 3.514 0 011.566.504l2.498 1.53" stroke="#0A0001" stroke-width=".3" stroke-miterlimit="10"/><path d="M170.523 87h1.025a7.698 7.698 0 011.598.163c1.22.269 3.823.929 6.184.177.144-.046 1.168-.582 1.305-.654l1.305-.654" stroke="#472A22" stroke-width=".2" stroke-miterlimit="10"/><path d="M152.086 83.645c1.339-.639 1.808-.513 3.874-.693.954.027 1.9.178 2.815.45 0 0 2.248 1.891 2.512 2.14.484.45.374 1.017-.272 1.164-.647.147-1.387.01-1.929.168-4.182 1.06-5.075 1.403-7.575.661a13.23 13.23 0 01-2.876-1.14 10.36 10.36 0 013.451-2.75z" fill="#fff"/><path d="M154.986 87.698a2.42 2.42 0 002.197-2.626 2.425 2.425 0 00-2.622-2.206 2.42 2.42 0 00-2.197 2.626 2.425 2.425 0 002.622 2.206z" fill="#28160D" stroke="#1C1105" stroke-width=".2" stroke-miterlimit="10"/><path d="M154.892 86.663a1.386 1.386 0 00-.243-2.762 1.383 1.383 0 00-1.255 1.501 1.385 1.385 0 001.498 1.261z" fill="#000"/><path opacity=".77" d="M153.393 85.403a.692.692 0 10-.123-1.379.692.692 0 00.123 1.38z" fill="#fff"/><path d="M161.539 86.166l-2.694-2.478a1.769 1.769 0 00-.878-.431l-1.029-.175a4.915 4.915 0 00-1.596 0l-2.585.434a3.527 3.527 0 00-1.459.608l-2.53 1.856-.864.124 2.302-2.476a4.142 4.142 0 011.754-.738l2.578-.433a5.372 5.372 0 011.826.007l1.035.174c.666.05 1.316.23 1.913.53l3.173 3.027-.946-.029z" fill="#D3A688"/><path opacity=".5" d="M161.8 86.256l-2.694-2.478a2.077 2.077 0 00-1.038-.515l-1.028-.175a5.258 5.258 0 00-1.715-.003l-2.578.434a3.716 3.716 0 00-1.606.676l-2.545 1.85" stroke="#0A0001" stroke-width=".3" stroke-miterlimit="10"/><path d="M161.49 86.642l-1.081.095a8.24 8.24 0 00-1.68.32c-1.263.396-3.943 1.333-6.505.756-.163-.034-1.287-.507-1.438-.57-.54-.218 0 0-1.438-.571" stroke="#472A22" stroke-width=".2" stroke-miterlimit="10"/><path d="M173.212 109.028c.622 1.748-1.159 5.002-5.862 5.464-.295.039-1.71.039-2.005 0-2.451-.475-5.29-3.561-5.211-5.194.875-1.196 10.772-1.196 13.078-.27z" fill="#712A26"/><path d="M162.772 113.227c1.65-.518 5.72-1.32 8.8-.388-.328.491-5.438 3.438-8.8.388z" fill="#A03D3D"/><path d="M173.131 109.064c-3.318-.7-8.123-.892-12.645 0 0 0 .054.588 1.454.72.952.089 2.099.359 4.897.359 2.68 0 4.356-.278 5.246-.378 1.399-.159 1.048-.701 1.048-.701z" fill="#F5E5DC"/><path d="M134.001 92.079c-2.395-5.708-6.3-9.176-8.631-7.754-2.33 1.421-2.438 7.215 0 12.923 2.439 5.707 6.301 9.175 8.631 7.753 2.331-1.421 2.374-7.258 0-12.922z" fill="#FFCFAE"/><path d="M132.688 93.052c-1.375-3.53-3.64-5.674-5.015-4.786-1.375.888-1.415 4.462 0 7.992 1.416 3.53 3.62 5.718 5.015 4.787 1.395-.932 1.395-4.462 0-7.993z" fill="#EAAB85"/><path d="M135.299 96.669c-.751-2.05-2.547-3.096-4.003-2.18a4.443 4.443 0 00-1.507 2.4 4.296 4.296 0 00.28 2.788c.773 2.18 2.546 3.118 4.002 2.311a4.337 4.337 0 001.587-2.453 4.198 4.198 0 00-.359-2.866z" fill="#FFCFAE"/><path d="M135.174 93.647c-1.806-2.409-4.745-7.104-7.533-10.657-.963-4.515 1.65-10.22 3.296-17.369l5.76-3.944c0 5.329 9.361 6.772 8.712 9.642-14.472 8.12-12.81 11.156-10.235 22.328z" fill="#412716"/><path d="M209.449 533.724l-41.179-.672s-.833-12.924 9.364-11.379c25.573 3.89 32.064 6.518 33.128 8.772.656 1.345-1.313 3.279-1.313 3.279z" fill="#380D14"/><path d="M210.16 531.694l-41.883-.633s-.942-13.891 9.272-12.457c3.552.5 6.874 3.168 9.769 3.702 29.947 5.403 22.842 9.388 22.842 9.388z" fill="#A62E41"/><path d="M130.81 528.969a62.645 62.645 0 00-5.088 5.612c-5.051 6.604-4.753 10.502 6.151 6.911 1.043-.361 4.063-1.804 6.02-2.436 0 0 2.721-1.389 6.076-3.176 4.383-2.319 10.085-5.825 11.085-8.287-.004-1.409.106-4.815-2-6.402-5.144-3.879-11.75-.306-16.82 3.447-2.982 2.111-5.424 4.331-5.424 4.331z" fill="#380D14"/><path d="M130.859 528.112a61.963 61.963 0 00-5.118 5.565c-5.081 6.528-4.781 10.363 6.186 6.813 1.05-.339 4.087-1.784 6.055-2.408 0 0 2.737-1.373 6.112-3.121 3.974-2.069 8.982-5.807 10.311-7.474 1.172-.774.671-4.383-.828-6.63-3.637-5.191-12.089-.718-17.188 2.992a69.37 69.37 0 00-5.53 4.263z" fill="#A62E41"/><path d="M171.582 522.043h11.933s-6.819 4.374-11.933 0zm-30.16-1.583h11.262s-7.45 3.596-11.262 0z" fill="#F9C8A3"/><path d="M189.077 264.946c-4.353-23.408-63.347-14.686-71.595 6.53-8.249 21.216 15.513 113.434 15.513 124.054 0 10.62-5.715 21.004-5.715 39.78s5.001 46.132 13.209 85.299h12.13c-15.891-111.513 4.914-191.494 6.739-195.268 1.348-1.709 7.157 64.413 6.928 70.542-.458 12.235-4.65 19.024-6.011 39.427-1.362 20.402 11.362 86.69 11.362 86.69h11.981s-5.485-85.288 1.807-137.903c8.909-64.237 9.124-89.767 3.652-119.151z" fill="#094D98"/><path d="M132.591 398.001c4.896 2.289 10.396 5.562 15.226-2.93 2.897-42.008 9.39-68.16 11.134-70.449 1.221-1.601 3.528 55.885 4.682 70.236 4.883 3.819 15.333 2.621 20.042 0 .335-3.392.724-6.689 1.14-9.868 8.867-65.954 12.69-92.864 3.635-122.349-6.707-21.715-63.05-15.086-71.259 6.713-8.21 21.799 15.44 116.466 15.44 127.366 0 .356-.027.794-.04 1.281z" fill="#0C58AD"/><path d="M133.111 395.272c0-10.809-14.431-101.59-6.241-123.185 2.774-6.782 7.817-12.677 14.473-16.919 6.656-4.241 14.618-6.633 22.85-6.864-18.655-.447-41.694 7.904-46.562 20.831-8.218 21.607 9.535 115.681 9.535 126.49 0 10.81.242 21.231.242 40.333 0 19.101 4.869 44.249 13.073 84.135h2.69c-8.191-39.886-12.225-65.151-12.225-84.276 0-19.126 2.165-29.747 2.165-40.545z" fill="#0A3D76"/><path d="M166.378 439.612c1.341-20.332-.161-28.536.282-40.734.241-6.11-6.498-79.826-7.826-78.135-.564.714-1.57 4.039-2.764 9.562.364-1.524.921-3.01 1.664-4.43 1.341-1.703 4.713 67.584 4.499 73.682-.456 12.197-.201 18.411-1.556 38.778C159.322 458.702 171.583 522 171.583 522h2.763s-9.336-62.067-7.968-82.388z" fill="#0A3D76"/><path d="M90.107 211.939c-.953-11.025 6.711-7.296 8.832-3.286 2.121 4.01 27.114 70.423 26.04 73.763-1.074 3.339-32.98-49.167-34.872-70.477zm112.145-3.635c-4.483 2.494-4.751-9.576-2.738-13.868 1.839-3.835 31.221-47.382 38.147-57.427.672-.979 1.235-.604 1.651-.711.631-.161 1.638.697.645 3.111-5.047 12.379-20.685 59.319-37.705 68.895z" fill="#FFCFAE"/><path d="M171.771 138.618c-2.604-4.613-15.598-1.341-17.759.362-2.161 1.704 40.268 70.343 46.872 69.74 9.128-1.006-18.013-50.414-29.113-70.102z" fill="#FFCFAE"/><path d="M164.482 140.093a21.576 21.576 0 017.128-1.716c-2.9-4.292-15.463-1.046-17.598.563-2.134 1.609 39.195 68.506 46.577 69.606-12.121-15.947-37.973-67.219-36.107-68.453z" fill="#EAAB85"/><path d="M202.254 208.304c11.557-7.885 23.825-32.442 30.872-51.164a166.143 166.143 0 01-28.375 46.953s-4.376 5.365-10.913-5.565c-7.06-11.829 1.222 5.364 1.222 5.364s4.322 6.344 7.194 4.412z" fill="#EAAB85"/><path d="M115.865 283.288c-1.704-15.584 13.423-44.499 11.933-60.633-1.49-16.134-21.355-74.421-9.396-82.226 11.96-7.806 48.765-7.068 51.369-3.393 2.604 3.675 10.63 31.007 11.154 50.266 0 0-12.309 14.283 10.416 84.814-17.02 14.887-61.597 17.81-75.476 11.172z" fill="#D6516B"/><path d="M127.434 286.077c3.624-25.656 10.59-73.414 27.073-73.763 7.933-.161 19.786 11.064 26.994 23.752-6.51-38.894-1.638-46.86-.578-48.791-7.326 6.843-27.031 11.303-40.201 6.705-17.141-7.973-19.691-36.103-23.422-52.505-10.349 11.118 9.543 66.306 10.496 81.219 1.02 16.014-12.55 46.377-11.932 60.634a37.908 37.908 0 0011.57 2.749z" fill="#C43B55"/><path d="M161.529 134.957v-17.458l-27.795-18.777 5.769 36.972s24.805 29.197 22.026-.737zm-40.535 25.656c2.308-3.379-2.47-17.435-3.692-19.178-1.221-1.744-29.53 62.752-27.288 68.814 5.826 16 21.194-35.259 30.98-49.636z" fill="#FFCFAE"/><path d="M117.301 141.435c.765 5.727 1.732 14.471.9 16.872-3.92 11.252-16.108 45.746-22.644 52.76 8.429-1.757 18.026-38.973 25.503-50.454 2.376-3.768-2.121-15.262-3.759-19.178z" fill="#EAAB85"/><path d="M134.198 97.797c1.659 3.116 4.482 4.581 5.026 2.132.544-2.448-2.186-8.728-3.531-7.13-1.345 1.597-2.401 3.258-1.495 4.998zm103.612 41.251c2.886 3.178 3.007-4.024 5.37-3.756 5.624.711 3.798-1.824 4.308-5.15 1.02-6.598.175-2.508-4.282-5.793-2.684-1.958-.161-8.275-2.268-8.275-1.691 0-1.785 4.828-1.826 13.411-.026 6.907-2.684 8.047-1.302 9.563z" fill="#FFCFAE"/><path d="M126.775 279.747c.174-1.341.711-2.307.107-2.374-.604-.067-1.825.819-2.013 2.106-.188 1.288.255 2.495.872 2.562.618.067.846-1.006 1.034-2.294zm-7.165-1.166c.792-1.341 1.691-2.455 2.429-2.133.739.322.698 1.73-.107 3.112-.805 1.381-2.04 2.253-2.778 1.918-.739-.336-.309-1.516.456-2.897z" fill="#E1AA7E"/><path d="M124.121 279.265c.175-1.636.819-2.924 0-3.018-.819-.094-2.268 1.033-2.429 2.682-.162 1.65.698 3.206 1.463 3.3.765.094.805-1.328.966-2.964z" fill="#E1AA7E"/><path d="M114.16 263.828c2.295 3.648.913 14.042 4.805 13.411 3.49-.523 8.269-6.209-1.718-15.007l-3.087 1.596z" fill="#FFCFAE"/><path d="M121.301 267.664c-6.215.55-5.477 7.671-4.685 9.857.859 2.401 5.705 3.206 7.369 1.905 1.665-1.301-.295-11.977-2.684-11.762z" fill="#FFCFAE"/><path d="M123.072 278.299c1.02 2.816 2.242 4.023 3.007 3.715.765-.309 0-1.905-.94-4.708-.939-2.803-1.584-6.612-2.349-6.263-.765.349-.738 4.453.282 7.256zm-2.779.161c.604 2.803 2.336 3.929 3.128 3.755.792-.174-.457-2.682-1.061-5.445-.604-2.763-1.154-4.587-1.946-4.399-.792.188-.725 3.299-.121 6.089zm-3.665-.832c.752 3.286 1.96 4.305 2.685 4.104.725-.201-.108-2.307-.859-5.579-.752-3.273-1.343-5.566-2.108-5.365-.765.201-.469 3.568.282 6.84z" fill="#FFCFAE"/><path d="M122.563 273.954c2.685 2.36 4.966 2.025 5.476.778.175-.416-5.288-7.9-7.02-6.947-1.221.684-1.154 3.809 1.544 6.169z" fill="#FFCFAE"/><path d="M128.777 276.77c.685.952 1.866 1.341 1.061 2.079-.806.737-1.973 0-2.685-1.033-1.235-1.784-3.745-4.547.282-4.024.806.135.591 1.958 1.342 2.978z" fill="#FFCFAE"/><path d="M244.938 142.59l-2.018-.862 7.331-34.339h2.156l-7.469 35.201z" fill="#303030"/><path d="M243.783 142.158l-5.175-1.724 7.331-33.118h4.744l-6.9 34.842z" fill="#B4D1FA"/><path d="M248.629 126.615c0-.791-.417-1.14-2.108-1.194-1.691-.053-2.751 0-2.778.805-.027.805 1.087 1.074 2.778 1.127 1.691.054 2.081.054 2.108-.738zm-.269 2.589c0-.792-.43-1.114-2.121-1.154-1.691-.04-3.047 0-3.06.738-.014.738 1.342 1.14 3.06 1.194 1.718.054 2.094.013 2.121-.778zm-.376 2.736c.161-.778 0-1.342-1.141-1.261-1.692 0-3.047 0-3.074.738-.027.737 1.342 1.22 3.074 1.194 1.006-.027 1.006-.027 1.141-.671zm-.39 2.052c.215-.765-.268-.872-.738-.953-1.222-.201-2.336-.174-2.362.617-.027.792 1.342.537 2.268.671 0 .027.752-.053.832-.335z" fill="#FFCFAE"/><path d="M161.531 127.141v-2.639c-10.941-4.475-20.107-10.527-26.783-19.69 5.28 15.021 21.707 21.652 26.783 22.329z" fill="#EAAB85"/><g filter="url(#filter2_d)"><path d="M386.002 14H265.998c-3.153 0-6.275.627-9.188 1.845a23.994 23.994 0 00-7.787 5.255 24.23 24.23 0 00-5.201 7.864A24.42 24.42 0 00242 38.238V64.47a24.408 24.408 0 001.822 9.271 24.232 24.232 0 005.202 7.86 23.966 23.966 0 007.788 5.25 23.786 23.786 0 009.186 1.84h7.204c1.312 5.126 1.834 11.593-1.213 17.845-.777 1.594.573 3.581 2.249 3.004 7.599-2.616 21.315-8.87 25.298-20.849h86.466a23.884 23.884 0 0016.969-7.094A24.334 24.334 0 00410 64.47V38.238a24.353 24.353 0 00-7.028-17.133A23.903 23.903 0 00386.002 14z" fill="url(#paint1_linear)"/></g><path d="M258.367 48.733h1.966v-2.066h7.593v2.066h1.966v-3.797h-1.042v-9.475h-7.61l-.655 5.763c-.387 3.31-1.008 3.763-2.218 3.897v3.612zm4.167-7.375l.47-4.166h3.881v7.744h-5.83c.756-.688 1.277-1.83 1.479-3.578zm15.53 5.309V41.29c0-2.184-1.579-2.94-3.377-2.94-1.294 0-2.47.42-3.41 1.31l.722 1.227c.706-.69 1.495-1.025 2.402-1.025 1.126 0 1.899.57 1.899 1.512v1.21c-.588-.69-1.529-1.042-2.621-1.042-1.327 0-2.822.773-2.822 2.637 0 1.798 1.495 2.688 2.822 2.688 1.075 0 2.016-.386 2.621-1.075v.874h1.764zm-3.696-1.008c-.991 0-1.731-.572-1.731-1.445 0-.89.74-1.462 1.731-1.462.773 0 1.529.286 1.932.84v1.227c-.403.554-1.159.84-1.932.84zm10.351 1.209c2.1 0 3.595-1.596 3.595-4.267 0-2.671-1.495-4.25-3.595-4.25a3.239 3.239 0 00-2.604 1.31v-1.109h-1.764v11.206h1.764V45.54c.655.874 1.579 1.327 2.604 1.327zm-.521-1.562c-.823 0-1.697-.504-2.083-1.092v-3.209c.386-.605 1.26-1.092 2.083-1.092 1.395 0 2.285 1.126 2.285 2.688 0 1.58-.89 2.705-2.285 2.705zm7.562 1.361l3.797-5.611v5.61h1.764v-8.114h-1.764l-3.73 5.46v-5.46h-1.764v8.115h1.697zm16.941 0v-8.115h-2.319l-2.217 5.242-2.252-5.242h-2.301v8.115h1.764v-5.645l2.436 5.645h.705l2.42-5.645v5.645h1.764zm10.291.201c1.579 0 2.537-.672 3.108-1.445l-1.159-1.075c-.454.622-1.075.958-1.865.958-1.478 0-2.453-1.126-2.453-2.705 0-1.58.975-2.688 2.453-2.688.79 0 1.411.32 1.865.958l1.159-1.076c-.571-.772-1.529-1.444-3.108-1.444-2.469 0-4.2 1.797-4.2 4.25 0 2.47 1.731 4.267 4.2 4.267zm12.249-.201l-3.444-4.436 3.376-3.679h-2.184l-3.578 3.915v-3.915h-1.764v8.115h1.764v-2.184l1.126-1.16 2.486 3.344h2.218zm2.946 0l3.797-5.611v5.61h1.764v-8.114h-1.764l-3.73 5.46v-5.46h-1.764v8.115h1.697zm7.011 2.066h1.764v-2.066h5.46v2.066h1.764v-3.612h-.89v-6.569h-6.266l-.488 3.948c-.268 2.134-.655 2.537-1.344 2.705v3.528zm3.394-8.635h2.94v5.023h-4.301c.571-.504.958-1.294 1.075-2.42l.286-2.603zm14.638 6.569l-3.444-4.436 3.376-3.679h-2.184l-3.578 3.915v-3.915h-1.764v8.115h1.764v-2.184l1.126-1.16 2.486 3.344h2.218zm.896 3.175a5 5 0 00.991.117c1.26-.016 2.235-.453 2.789-1.83l3.915-9.577h-1.899l-2.369 6.082-2.368-6.082h-1.882l3.326 8.215-.403.924c-.235.538-.605.706-1.159.706-.202 0-.487-.05-.672-.134l-.269 1.579zm17.115-2.974c2.705 0 4.486-1.495 4.486-3.88 0-2.269-1.697-3.63-3.595-3.63-1.025 0-1.932.404-2.47.942v-2.74h5.309v-2.1h-7.694v6.434l1.663.437c.672-.638 1.428-.907 2.352-.907 1.277 0 2.016.672 2.016 1.663 0 .907-.756 1.663-2.083 1.663-1.176 0-2.218-.436-2.974-1.226l-1.327 1.663c.957 1.042 2.369 1.68 4.317 1.68zm8.357-5.998c1.73 0 2.856-1.192 2.856-2.755 0-1.579-1.126-2.822-2.856-2.822-1.714 0-2.839 1.243-2.839 2.822 0 1.563 1.125 2.756 2.839 2.756zm.168 5.797l7.173-11.206h-1.276l-7.157 11.206h1.26zm5.997.201c1.714 0 2.856-1.21 2.856-2.772 0-1.579-1.142-2.822-2.856-2.822-1.713 0-2.839 1.243-2.839 2.822 0 1.563 1.126 2.772 2.839 2.772zm-6.165-7.308c-.756 0-1.327-.57-1.327-1.445 0-.94.571-1.495 1.327-1.495.773 0 1.327.555 1.327 1.495 0 .874-.554 1.445-1.327 1.445zm6.165 5.998c-.772 0-1.327-.554-1.327-1.462 0-.924.555-1.495 1.327-1.495.773 0 1.344.571 1.344 1.495 0 .908-.571 1.462-1.344 1.462zM280.789 68.335c2.385 0 3.83-1.008 3.83-2.402 0-1.277-1.344-1.882-2.318-1.95 1.024-.15 2.15-.84 2.15-1.948 0-1.378-1.478-2.218-3.864-2.2-1.478 0-2.621.537-3.394 1.326l.874 1.075c.655-.655 1.512-.974 2.604-.974 1.126 0 1.949.42 1.949 1.008 0 .706-.773 1.058-1.983 1.058h-1.73v1.412h1.73c1.244 0 2.134.285 2.134 1.058 0 .655-.739 1.092-1.982 1.092-1.076 0-2.151-.32-2.907-.991l-.823 1.126c.806.79 2.066 1.31 3.73 1.31zm12.328-.202v-5.376c0-2.184-1.58-2.94-3.377-2.94-1.294 0-2.47.42-3.411 1.31l.723 1.227c.705-.689 1.495-1.025 2.402-1.025 1.126 0 1.899.572 1.899 1.512v1.21c-.588-.689-1.529-1.042-2.621-1.042-1.327 0-2.823.773-2.823 2.638 0 1.797 1.496 2.688 2.823 2.688 1.075 0 2.016-.386 2.621-1.075v.873h1.764zm-3.696-1.008c-.992 0-1.731-.57-1.731-1.445 0-.89.739-1.461 1.731-1.461.772 0 1.528.285 1.932.84v1.226c-.404.555-1.16.84-1.932.84zm17.555 1.008V60.02h-7.258v8.114h1.764v-6.568h3.73v6.568h1.764zm5.953.202c2.604 0 4.184-1.932 4.184-4.267 0-2.319-1.58-4.25-4.184-4.25-2.57 0-4.166 1.931-4.166 4.25 0 2.335 1.596 4.267 4.166 4.267zm0-1.563c-1.495 0-2.335-1.26-2.335-2.704 0-1.428.84-2.688 2.335-2.688 1.512 0 2.352 1.26 2.352 2.688 0 1.445-.84 2.704-2.352 2.704zm5.128 3.428h1.764v-2.067h5.46V70.2h1.764v-3.612h-.89v-6.57h-6.266l-.488 3.949c-.268 2.133-.655 2.537-1.344 2.705V70.2zm3.394-8.636h2.94v5.024h-4.301c.571-.504.958-1.294 1.075-2.42l.286-2.604zm14.302 6.569V60.02h-7.258v8.114h1.764v-6.568h3.73v6.568h1.764zm3.987 0l3.797-5.61v5.61h1.764V60.02h-1.764l-3.73 5.46v-5.46h-1.764v8.114h1.697zm11.548.202c1.579 0 2.537-.672 3.108-1.445l-1.159-1.075c-.454.621-1.075.957-1.865.957-1.478 0-2.453-1.125-2.453-2.704 0-1.58.975-2.688 2.453-2.688.79 0 1.411.319 1.865.957l1.159-1.075c-.571-.773-1.529-1.445-3.108-1.445-2.47 0-4.2 1.798-4.2 4.25 0 2.47 1.73 4.268 4.2 4.268zm12.248-.202l-3.444-4.435 3.377-3.68h-2.184l-3.578 3.915V60.02h-1.764v8.114h1.764V65.95l1.125-1.159 2.487 3.343h2.217zm.897 3.175c.252.068.739.118.991.118 1.26-.017 2.234-.454 2.789-1.831l3.914-9.576h-1.898L367.86 66.1l-2.369-6.081h-1.881l3.326 8.215-.403.924c-.235.538-.605.706-1.159.706-.202 0-.488-.05-.672-.135l-.269 1.58zm10.482-6.602l.302-7.778h-2.15l.319 7.778h1.529zm-.773 3.595c.638 0 1.176-.537 1.176-1.159a1.19 1.19 0 00-1.176-1.176c-.638 0-1.159.538-1.159 1.176 0 .622.521 1.16 1.159 1.16z" fill="#F5F9FF"/><defs><filter id="filter0_d" x="0" y="439" width="408" height="191" filterUnits="userSpaceOnUse" color-interpolation-filters="sRGB"><feFlood flood-opacity="0" result="BackgroundImageFix"/><feColorMatrix in="SourceAlpha" values="0 0 0 0 0 0 0 0 0 0 0 0 0 0 0 0 0 0 127 0"/><feOffset dx="2" dy="2"/><feGaussianBlur stdDeviation="2"/><feColorMatrix values="0 0 0 0 0 0 0 0 0 0 0 0 0 0 0 0 0 0 0.2 0"/><feBlend in2="BackgroundImageFix" result="effect1_dropShadow"/><feBlend in="SourceGraphic" in2="effect1_dropShadow" result="shape"/></filter><filter id="filter1_f" x="93.742" y="475.5" width="119" height="69.5" filterUnits="userSpaceOnUse" color-interpolation-filters="sRGB"><feFlood flood-opacity="0" result="BackgroundImageFix"/><feBlend in="SourceGraphic" in2="BackgroundImageFix" result="shape"/><feGaussianBlur stdDeviation="1" result="effect1_foregroundBlur"/></filter><filter id="filter2_d" x="228" y="0" width="200" height="127.643" filterUnits="userSpaceOnUse" color-interpolation-filters="sRGB"><feFlood flood-opacity="0" result="BackgroundImageFix"/><feColorMatrix in="SourceAlpha" values="0 0 0 0 0 0 0 0 0 0 0 0 0 0 0 0 0 0 127 0"/><feOffset dx="2" dy="2"/><feGaussianBlur stdDeviation="8"/><feColorMatrix values="0 0 0 0 0.65098 0 0 0 0 0.180392 0 0 0 0 0.254902 0 0 0 0.3 0"/><feBlend in2="BackgroundImageFix" result="effect1_dropShadow"/><feBlend in="SourceGraphic" in2="effect1_dropShadow" result="shape"/></filter><linearGradient id="paint0_linear" x1="101.242" y1="462.5" x2="177.143" y2="562.239" gradientUnits="userSpaceOnUse"><stop stop-color="#B4D1FA" stop-opacity="0"/><stop offset="1" stop-opacity=".2"/></linearGradient><linearGradient id="paint1_linear" x1="404.821" y1="61.822" x2="247.123" y2="55.874" gradientUnits="userSpaceOnUse"><stop stop-color="#A62E41"/><stop offset="1" stop-color="#E13152"/></linearGradient></defs></svg>