<svg width="240" height="197" viewBox="0 0 240 197" fill="none" xmlns="http://www.w3.org/2000/svg">
<g clip-path="url(#clip0)">
<path fill-rule="evenodd" clip-rule="evenodd" d="M70.4158 23.4099C104.834 -9.19646 175.353 -9.3906 212.728 33.2705C259.166 86.2213 230.406 174.946 174.089 187.096C133.257 195.918 107.809 182.832 84.2526 170.718C63.802 160.201 44.7771 150.417 18.3501 156.339C31.0255 138.032 35.3465 116.389 39.6316 94.9269C44.8728 68.6756 50.0604 42.693 70.4158 23.4099ZM36.4389 144.945C44.2224 145.218 51.9281 146.594 59.3266 149.033L59.5815 148.195C52.3289 145.793 44.7826 144.397 37.1525 144.046C40.1238 137.015 42.5639 129.771 44.4521 122.373L43.5448 122.138C41.6111 129.709 39.0956 137.119 36.0209 144.302L35.7456 144.945H36.4389ZM51.4664 89.9202L50.5488 89.7261C55.1366 67.389 60.6113 46.0534 77.0558 30.4604C80.643 27.0945 84.5883 24.1339 88.8208 21.6318L89.2999 22.4493C85.124 24.9094 81.233 27.8258 77.6981 31.145C61.4473 46.5541 56.0745 67.7467 51.4664 89.9202ZM110.974 13.6105L110.75 12.7011C118.787 10.6759 127.044 9.66331 135.33 9.6867C138.124 9.6867 140.938 9.7991 143.7 10.0239L143.619 10.964C140.887 10.7392 138.093 10.6268 135.33 10.6268C127.119 10.6074 118.938 11.6131 110.974 13.6207V13.6105ZM133.557 179.146C138.436 179.925 143.368 180.314 148.309 180.311C154.446 180.306 160.572 179.776 166.619 178.727L166.456 177.797C160.456 178.844 154.378 179.37 148.288 179.371C143.406 179.371 138.531 178.985 133.71 178.216L133.557 179.146ZM188.375 169.97L188.864 170.777C203.494 161.805 215.004 146.366 221.284 127.278C223.955 119.198 225.556 110.802 226.046 102.305L225.118 102.254C224.627 110.667 223.04 118.981 220.398 126.982C214.189 145.855 202.811 161.121 188.375 169.97ZM211.09 48.5569C215.425 55.1002 218.816 62.2246 221.162 69.7188L222.059 69.4429C219.689 61.8596 216.256 54.652 211.864 48.0357L211.09 48.5569Z" fill="#1A1A1A"/>
<path d="M29.7599 172.065C29.6681 172.759 29.1176 173.393 27.9452 173.975L22.6744 176.591C22.3308 176.756 21.9413 176.798 21.5705 176.711C21.1998 176.623 20.8698 176.412 20.6354 176.111L9.4209 161.366L15.9151 158.127C18.8513 163.778 30.2594 168.601 29.7599 172.065Z" fill="url(#paint0_linear)"/>
<path d="M17.7401 157.187L15.854 158.127C19.4426 164.881 35.0715 170.389 27.9452 173.975L29.8313 173.035C36.9576 169.489 21.3287 163.951 17.7401 157.187Z" fill="url(#paint1_linear)"/>
<path style="mix-blend-mode:multiply" opacity="0.2" d="M29.7599 172.065C29.6681 172.759 29.1176 173.393 27.9452 173.975L22.6744 176.591C22.3308 176.756 21.9413 176.798 21.5705 176.711C21.1998 176.624 20.8698 176.412 20.6354 176.111L9.4209 161.366L12.4794 159.844C15.2932 164.452 20.8903 170.91 29.7599 172.065Z" fill="url(#paint2_linear)"/>
<path d="M4.36425 150.443L9.98168 161.785C6.40324 163.563 4.43561 163.256 3.07968 161.989C2.27261 161.149 1.62335 160.169 1.16302 159.098C0.585997 158.081 0.192547 156.971 0.000797119 155.818C-0.162323 153.968 0.785811 152.251 4.36425 150.443Z" fill="url(#paint3_linear)"/>
<path style="mix-blend-mode:screen" opacity="0.3" d="M5.17905 152.078L9.17548 160.14C7.28005 161.159 5.20019 161.788 3.05849 161.99C2.25143 161.149 1.60216 160.169 1.14184 159.098C0.571923 158.08 0.185399 156.97 0 155.818C1.46052 154.238 3.22135 152.966 5.17905 152.078Z" fill="url(#paint4_linear)"/>
<path style="mix-blend-mode:color-burn" opacity="0.3" d="M1.30615 159.404C1.73559 160.362 2.32906 161.237 3.05969 161.989C5.20139 161.788 7.28124 161.159 9.17668 160.14L7.31099 156.339L1.30615 159.404Z" fill="url(#paint5_linear)"/>
<path d="M17.2398 160.753C12.0914 163.318 9.38971 162.715 7.52403 160.753C6.57173 159.653 5.78831 158.416 5.19958 157.085C4.50012 155.805 3.99501 154.427 3.70092 152.997C3.26253 150.33 4.42476 147.807 9.57322 145.242C9.26738 145.395 9.71595 146.846 10.5316 148.798C11.839 151.889 13.3302 154.898 14.997 157.81C16.0572 159.67 16.934 160.906 17.2398 160.753Z" fill="url(#paint6_linear)"/>
<path style="mix-blend-mode:screen" opacity="0.3" d="M14.9977 157.831C12.5732 158.968 10.0769 159.944 7.52478 160.753C6.57247 159.653 5.78905 158.416 5.20032 157.085C4.50086 155.805 3.99576 154.427 3.70166 152.997C5.884 151.449 8.16583 150.046 10.5323 148.798C11.839 151.896 13.3302 154.912 14.9977 157.831Z" fill="url(#paint7_linear)"/>
<path style="mix-blend-mode:color-burn" opacity="0.3" d="M5.31201 157.299C5.87796 158.552 6.62324 159.716 7.52432 160.753C10.0764 159.944 12.5727 158.968 14.9972 157.831C14.2836 156.615 13.4884 155.123 12.734 153.6L5.31201 157.299Z" fill="url(#paint8_linear)"/>
<path style="mix-blend-mode:multiply" d="M9.5742 145.262C8.80933 145.637 8.0672 146.057 7.3517 146.519C7.17838 148.277 13.3973 160.825 14.9062 161.765C15.7033 161.469 16.4828 161.128 17.2408 160.743C16.2009 161.274 8.53432 145.783 9.5742 145.262Z" fill="url(#paint9_linear)"/>
<path d="M54.9721 132.336C57.0655 136.5 58.7554 140.856 60.0187 145.344C60.3551 146.58 60.6202 147.766 60.8139 148.869C61.6397 153.437 61.2624 156.696 59.4987 157.575L16.5371 161.274C16.2516 161.417 15.5991 160.641 14.7733 159.374C12.5744 155.782 10.7013 151.999 9.1763 148.072C8.66655 146.642 8.45246 145.661 8.73792 145.518L23.2352 129.444L37.6611 113.422C39.853 112.329 43.6761 115.18 47.6827 120.401C50.4895 124.136 52.9305 128.132 54.9721 132.336Z" fill="url(#paint10_linear)"/>
<path style="mix-blend-mode:screen" opacity="0.3" d="M42.1973 131.815C42.9619 133.593 43.8183 135.463 44.7766 137.404C45.735 139.346 46.6933 141.144 47.6516 142.83C48.7731 144.792 49.8843 146.58 50.9446 148.154L14.7728 159.404C12.5723 155.803 10.6991 152.01 9.17578 148.072L25.4164 136.413L39.9646 125.98C40.5661 127.779 41.3104 129.771 42.1973 131.815Z" fill="url(#paint11_linear)"/>
<path style="mix-blend-mode:color-burn" opacity="0.3" d="M44.8585 137.66L11.8472 154.101C12.7312 155.918 13.7078 157.688 14.7731 159.404L50.9755 148.164C49.956 146.591 48.804 144.802 47.6825 142.841C46.7446 141.226 45.8032 139.499 44.8585 137.66Z" fill="url(#paint12_linear)"/>
<path d="M53.7587 132.949C59.7533 145.068 60.9563 154.98 59.0295 155.94C57.4085 156.748 52.678 151.669 47.6519 142.841C46.6935 141.158 45.7352 139.349 44.7769 137.415C43.8186 135.473 42.952 133.603 42.1976 131.825C38.2317 122.476 37.1001 115.629 38.6803 114.822C40.5969 113.862 47.7538 120.83 53.7587 132.949Z" fill="url(#paint13_linear)"/>
<path d="M58.6927 145.763C60.2219 151.454 60.2016 155.358 59.0291 155.981C57.8567 156.604 54.6351 153.641 50.9751 148.164L58.6927 145.763Z" fill="url(#paint14_linear)"/>
<g style="mix-blend-mode:screen">
<path d="M39.5674 114.372C41.4942 113.412 48.6511 120.381 54.6458 132.5C60.6404 144.618 61.8536 154.54 59.9268 155.501C59.8173 155.55 59.6998 155.577 59.5801 155.583C61.2215 153.457 59.5801 143.709 54.4826 133.399C45.98 116.028 39.5674 114.372 39.5674 114.372Z" fill="#A62A00"/>
</g>
<path style="mix-blend-mode:multiply" d="M38.68 114.822C38.5432 114.902 38.4246 115.01 38.3316 115.138C38.2386 115.267 38.1732 115.413 38.1396 115.568C41.1981 118.511 45.2761 123.957 48.9056 131.314C54.003 141.533 55.6342 150.249 54.8492 153.253C56.7557 155.358 58.2544 156.318 59.0292 155.94C60.956 154.98 59.753 145.068 53.7584 132.949C47.7637 120.83 40.5966 113.862 38.68 114.822Z" fill="url(#paint15_linear)"/>
<path d="M129.502 57.2221C132.091 57.2221 133.457 55.5871 133.457 53.5435C133.457 51.8268 132.295 50.4167 130.847 50.1919C132.132 49.9262 133.192 48.7818 133.192 47.0651C133.192 45.2463 131.867 43.5909 129.277 43.5909H122.121V57.2221H129.502ZM128.645 49.0475H125.016V46.0842H128.645C129.624 46.0842 130.236 46.7177 130.236 47.5761C130.236 48.4344 129.624 49.0475 128.645 49.0475ZM128.747 54.7084H125.016V51.5407H128.747C129.889 51.5407 130.501 52.2764 130.501 53.1348C130.501 54.1157 129.848 54.7084 128.747 54.7084Z" fill="white"/>
<path d="M144.082 57.2221V50.8459C144.082 48.0052 142.023 47.106 139.78 47.106C138.23 47.106 136.681 47.5965 135.478 48.6592L136.456 50.3963C137.292 49.6197 138.271 49.2314 139.331 49.2314C140.636 49.2314 141.493 49.8854 141.493 50.8868V52.2151C140.84 51.4385 139.678 51.0094 138.373 51.0094C136.803 51.0094 134.948 51.8881 134.948 54.1975C134.948 56.4046 136.803 57.4673 138.373 57.4673C139.658 57.4673 140.82 56.9973 141.493 56.2002V57.2221H144.082ZM139.413 55.7098C138.393 55.7098 137.557 55.1784 137.557 54.2588C137.557 53.2983 138.393 52.7669 139.413 52.7669C140.249 52.7669 141.065 53.053 141.493 53.6252V54.8514C141.065 55.4237 140.249 55.7098 139.413 55.7098Z" fill="white"/>
<path d="M158.293 57.2221V47.3513H154.868L152.482 53.2369L150.056 47.3513H146.651V57.2221H149.24V50.805L151.891 57.2221H153.074L155.704 50.805V57.2221H158.293Z" fill="white"/>
<path d="M92.8264 77.6585V67.7877H83.5693V77.6585H86.1589V70.0562H90.2369V77.6585H92.8264Z" fill="white"/>
<path d="M99.9645 77.9038C103.227 77.9038 105.184 75.5331 105.184 72.7129C105.184 69.9131 103.227 67.5425 99.9645 67.5425C96.7225 67.5425 94.765 69.9131 94.765 72.7129C94.765 75.5331 96.7225 77.9038 99.9645 77.9038ZM99.9645 75.5944C98.3536 75.5944 97.4565 74.2661 97.4565 72.7129C97.4565 71.1802 98.3536 69.8518 99.9645 69.8518C101.575 69.8518 102.493 71.1802 102.493 72.7129C102.493 74.2661 101.575 75.5944 99.9645 75.5944Z" fill="white"/>
<path d="M109.695 77.6585V73.7143H113.773V77.6585H116.362V67.7877H113.773V71.4458H109.695V67.7877H107.105V77.6585H109.695Z" fill="white"/>
<path d="M124.561 77.9038C127.089 77.9038 128.924 76.0032 128.924 72.7129C128.924 69.4226 127.089 67.5425 124.561 67.5425C123.358 67.5425 122.277 68.0738 121.523 69.0343V67.7877H118.933V81.4188H121.523V76.3914C122.318 77.4133 123.399 77.9038 124.561 77.9038ZM123.745 75.5944C122.909 75.5944 121.951 75.0835 121.523 74.4704V70.9758C121.951 70.3423 122.909 69.8518 123.745 69.8518C125.234 69.8518 126.233 71.0167 126.233 72.7129C126.233 74.4296 125.234 75.5944 123.745 75.5944Z" fill="white"/>
<path d="M139.323 77.6585V71.2823C139.323 68.4417 137.264 67.5425 135.021 67.5425C133.471 67.5425 131.922 68.0329 130.719 69.0956L131.697 70.8327C132.533 70.0562 133.512 69.6679 134.572 69.6679C135.877 69.6679 136.734 70.3218 136.734 71.3232V72.6516C136.081 71.875 134.919 71.4458 133.614 71.4458C132.044 71.4458 130.189 72.3246 130.189 74.6339C130.189 76.8411 132.044 77.9038 133.614 77.9038C134.899 77.9038 136.061 77.4337 136.734 76.6367V77.6585H139.323ZM134.654 76.1462C133.634 76.1462 132.799 75.6149 132.799 74.6952C132.799 73.7347 133.634 73.2034 134.654 73.2034C135.49 73.2034 136.306 73.4895 136.734 74.0617V75.2879C136.306 75.8601 135.49 76.1462 134.654 76.1462Z" fill="white"/>
<path d="M148.315 77.6585C150.292 77.6585 151.353 76.4732 151.353 74.9813C151.353 73.796 150.558 72.8151 149.477 72.5698C150.394 72.3042 151.149 71.5071 151.149 70.3218C151.149 68.9935 150.129 67.7877 148.131 67.7877H141.892V77.6585H148.315ZM147.683 75.5331H144.481V73.6938H147.683C148.335 73.6938 148.702 74.123 148.702 74.6135C148.702 75.1857 148.315 75.5331 147.683 75.5331ZM147.601 71.5684H144.481V69.9131H147.601C148.172 69.9131 148.519 70.2605 148.519 70.751C148.519 71.2006 148.172 71.5684 147.601 71.5684Z" fill="white"/>
<path d="M156.327 77.6585L160.507 71.4663V77.6585H163.096V67.7877H160.486L156.429 73.7551V67.7877H153.839V77.6585H156.327Z" fill="white"/>
<path d="M164.749 77.9038C167.257 77.9038 168.481 76.2893 168.888 72.8764L169.215 70.0562H172.334V77.6585H174.924V67.7877H166.951L166.319 72.5698C166.013 74.9609 165.544 75.7784 164.749 75.7784V77.9038Z" fill="white"/>
<path d="M182.082 77.9038C184.101 77.9038 185.324 77.025 185.977 76.1053L184.284 74.5317C183.815 75.1857 183.102 75.5944 182.205 75.5944C180.635 75.5944 179.534 74.4296 179.534 72.7129C179.534 70.9962 180.635 69.8518 182.205 69.8518C183.102 69.8518 183.815 70.2196 184.284 70.9145L185.977 69.3204C185.324 68.4212 184.101 67.5425 182.082 67.5425C179.044 67.5425 176.862 69.6883 176.862 72.7129C176.862 75.7579 179.044 77.9038 182.082 77.9038Z" fill="white"/>
<path d="M190.28 77.6585L192.217 74.2661H194.235V77.6585H196.825V67.7877H190.85C188.669 67.7877 187.445 69.2796 187.445 71.0167C187.445 72.7742 188.506 73.796 189.627 74.0821L187.343 77.6585H190.28ZM191.258 72.0998C190.524 72.0998 190.076 71.6502 190.076 71.0167C190.076 70.4036 190.545 69.9744 191.258 69.9744H194.235V72.0998H191.258Z" fill="white"/>
<path d="M112.868 98.095V88.2242H103.611V98.095H106.2V90.4926H110.278V98.095H112.868Z" fill="white"/>
<path d="M121.066 98.3402C123.595 98.3402 125.43 96.4396 125.43 93.1493C125.43 89.8591 123.595 87.9789 121.066 87.9789C119.863 87.9789 118.783 88.5103 118.028 89.4708V88.2242H115.439V101.855H118.028V96.8279C118.823 97.8497 119.904 98.3402 121.066 98.3402ZM120.251 96.0309C119.415 96.0309 118.456 95.52 118.028 94.9069V91.4122C118.456 90.7787 119.415 90.2882 120.251 90.2882C121.739 90.2882 122.738 91.4531 122.738 93.1493C122.738 94.866 121.739 96.0309 120.251 96.0309Z" fill="white"/>
<path d="M131.893 98.3402C135.156 98.3402 137.113 95.9696 137.113 93.1493C137.113 90.3495 135.156 87.9789 131.893 87.9789C128.651 87.9789 126.694 90.3495 126.694 93.1493C126.694 95.9696 128.651 98.3402 131.893 98.3402ZM131.893 96.0309C130.283 96.0309 129.385 94.7025 129.385 93.1493C129.385 91.6166 130.283 90.2882 131.893 90.2882C133.504 90.2882 134.422 91.6166 134.422 93.1493C134.422 94.7025 133.504 96.0309 131.893 96.0309Z" fill="white"/>
<path d="M143.663 98.3402C145.192 98.3402 146.742 97.8702 147.721 96.971L146.579 95.2952C145.947 95.9083 144.784 96.2761 143.948 96.2761C142.276 96.2761 141.277 95.2339 141.114 93.9872H148.434V93.415C148.434 90.1861 146.436 87.9789 143.5 87.9789C140.502 87.9789 138.402 90.2882 138.402 93.1493C138.402 96.317 140.666 98.3402 143.663 98.3402ZM145.926 92.2297H141.073C141.196 91.2488 141.889 90.043 143.5 90.043C145.213 90.043 145.865 91.2896 145.926 92.2297Z" fill="white"/>
<path d="M159.929 98.095L155.912 92.6997L159.806 88.2242H156.626L152.894 92.618V88.2242H150.305V98.095H152.894V95.5608L154.077 94.2938L156.687 98.095H159.929Z" fill="white"/>
<path d="M165.641 98.095V90.4926H168.394V88.2242H160.279V90.4926H163.031V98.095H165.641Z" fill="white"/>
<path d="M172.362 93.9259L174.585 93.272C174.381 93.088 174.218 92.7406 174.218 92.4136C174.218 90.697 177.623 90.4722 177.623 87.4884C177.623 85.5879 176.012 84.2595 173.382 84.2595C171.628 84.2595 169.997 84.9748 168.917 86.2418L170.568 88.1015C171.2 87.3454 172.057 86.8345 173.076 86.8345C174.198 86.8345 174.666 87.3658 174.666 87.9994C174.666 89.4095 171.69 89.6956 171.69 92.1275C171.69 92.8428 171.934 93.4559 172.362 93.9259ZM173.341 98.3198C174.238 98.3198 174.993 97.5636 174.993 96.6644C174.993 95.7652 174.238 95.0091 173.341 95.0091C172.444 95.0091 171.69 95.7652 171.69 96.6644C171.69 97.5636 172.444 98.3198 173.341 98.3198Z" fill="white"/>
<g filter="url(#filter0_d)">
<rect x="80.6499" y="114.444" width="116" height="29.6328" rx="8" fill="url(#paint16_linear)"/>
<path d="M104.78 133.928C107.006 133.928 108.616 132.794 108.616 131.184C108.616 129.784 107.384 129.042 106.446 128.944C107.468 128.762 108.476 127.992 108.476 126.816C108.476 125.262 106.964 124.282 104.78 124.282C103.142 124.282 101.812 124.912 101.056 125.766L102.05 127.012C102.708 126.382 103.674 126.046 104.584 126.046C105.648 126.046 106.488 126.41 106.488 127.152C106.488 127.838 105.69 128.146 104.584 128.146H102.694V129.896H104.584C105.984 129.896 106.642 130.232 106.642 130.974C106.642 131.674 105.928 132.164 104.696 132.164C103.786 132.164 102.61 131.772 101.966 131.1L100.93 132.43C101.616 133.27 103.058 133.928 104.78 133.928ZM119.527 133.76L115.929 124.422H113.437L109.825 133.76H112.093L112.681 132.178H116.685L117.259 133.76H119.527ZM116.139 130.428H113.227L114.683 126.41L116.139 130.428ZM129.083 133.76L125.121 128.804L128.831 124.422H126.381L123.077 128.594V124.422H121.089V133.76H123.077V130.89L123.805 130.022L126.633 133.76H129.083ZM139.398 133.76L135.8 124.422H133.308L129.696 133.76H131.964L132.552 132.178H136.556L137.13 133.76H139.398ZM136.01 130.428H133.098L134.554 126.41L136.01 130.428ZM144.07 133.928C146.296 133.928 147.906 132.794 147.906 131.184C147.906 129.784 146.674 129.042 145.736 128.944C146.758 128.762 147.766 127.992 147.766 126.816C147.766 125.262 146.254 124.282 144.07 124.282C142.432 124.282 141.102 124.912 140.346 125.766L141.34 127.012C141.998 126.382 142.964 126.046 143.874 126.046C144.938 126.046 145.778 126.41 145.778 127.152C145.778 127.838 144.98 128.146 143.874 128.146H141.984V129.896H143.874C145.274 129.896 145.932 130.232 145.932 130.974C145.932 131.674 145.218 132.164 143.986 132.164C143.076 132.164 141.9 131.772 141.256 131.1L140.22 132.43C140.906 133.27 142.348 133.928 144.07 133.928ZM158.817 133.76L155.219 124.422H152.727L149.115 133.76H151.383L151.971 132.178H155.975L156.549 133.76H158.817ZM155.429 130.428H152.517L153.973 126.41L155.429 130.428ZM163.635 133.76V126.172H166.351V124.422H158.903V126.172H161.633V133.76H163.635ZM168.325 124.422V133.76H172.693C174.723 133.76 175.829 132.388 175.829 130.75C175.829 129.126 174.709 127.74 172.693 127.74H170.313V124.422H168.325ZM172.427 129.49C173.211 129.49 173.799 129.98 173.799 130.75C173.799 131.534 173.211 132.01 172.427 132.01H170.313V129.49H172.427Z" fill="#F5F9FF"/>
<rect x="80.6499" y="114.444" width="116" height="29.6328" rx="8" stroke="white"/>
</g>
<path d="M37.8851 71.9771C37.7884 68.4826 38.0446 64.9872 38.6497 61.5443C39.2295 58.0811 40.0643 54.6657 41.1475 51.3261C42.2178 47.9655 43.5296 44.6871 45.0726 41.5166C46.6414 38.3405 48.4122 35.2687 50.374 32.3202C52.3803 29.4094 54.5842 26.6405 56.9701 24.0332L58.8052 22.1224C59.4373 21.4991 60.0898 20.9064 60.7219 20.2933C61.9657 19.0467 63.3726 17.9738 64.7183 16.8396C70.2127 12.4989 76.3537 9.05079 82.9163 6.62134C77.1372 10.3186 71.6805 14.4991 66.6044 19.1182C61.673 23.7285 57.2626 28.8685 53.4529 34.4456C49.6302 40.051 46.4078 46.0448 43.839 52.3275C42.5544 55.4747 41.3718 58.6832 40.3931 61.9632C39.3733 65.2522 38.536 68.5953 37.8851 71.9771Z" fill="#1A1A1A"/>
<path d="M199.578 10.494C205.366 13.227 210.727 16.7896 215.492 21.0699C220.336 25.3132 224.64 30.1385 228.307 35.4367C230.136 38.1043 231.788 40.8896 233.252 43.7748C233.619 44.4901 233.935 45.236 234.271 45.9615C234.608 46.687 234.954 47.4227 235.291 48.1788L236.208 50.4166L236.983 52.7157C239.054 58.8038 240.088 65.1977 240.041 71.6297C238.645 65.513 236.711 59.5323 234.261 53.758C231.788 48.0846 228.773 42.6641 225.259 37.5723C221.731 32.472 217.803 27.6611 213.514 23.1851C209.157 18.6473 204.501 14.4075 199.578 10.494Z" fill="#1A1A1A"/>
<path d="M227.94 154.08C226.554 157.117 224.906 160.026 223.016 162.776C221.149 165.548 219.105 168.196 216.899 170.706C214.672 173.237 212.288 175.626 209.763 177.858C207.234 180.083 204.582 182.164 201.821 184.091C199.026 185.96 196.125 187.666 193.135 189.201C192.38 189.579 191.605 189.926 190.841 190.284C190.076 190.641 189.322 190.989 188.537 191.305C187.752 191.622 186.987 191.959 186.202 192.256L183.806 193.073C177.476 195.246 170.831 196.358 164.14 196.363C170.522 194.915 176.765 192.908 182.797 190.365C188.736 187.805 194.408 184.663 199.731 180.985C202.422 179.187 204.981 177.204 207.489 175.15C209.997 173.097 212.403 170.91 214.779 168.682C219.498 164.127 223.896 159.248 227.94 154.08Z" fill="#1A1A1A"/>
</g>
<defs>
<filter id="filter0_d" x="72.1499" y="105.944" width="149" height="62.6328" filterUnits="userSpaceOnUse" color-interpolation-filters="sRGB">
<feFlood flood-opacity="0" result="BackgroundImageFix"/>
<feColorMatrix in="SourceAlpha" type="matrix" values="0 0 0 0 0 0 0 0 0 0 0 0 0 0 0 0 0 0 127 0"/>
<feOffset dx="8" dy="8"/>
<feGaussianBlur stdDeviation="8"/>
<feColorMatrix type="matrix" values="0 0 0 0 0 0 0 0 0 0 0 0 0 0 0 0 0 0 0.25 0"/>
<feBlend mode="normal" in2="BackgroundImageFix" result="effect1_dropShadow"/>
<feBlend mode="normal" in="SourceGraphic" in2="effect1_dropShadow" result="shape"/>
</filter>
<linearGradient id="paint0_linear" x1="16.5054" y1="160.18" x2="28.103" y2="183.5" gradientUnits="userSpaceOnUse">
<stop stop-color="#921C00"/>
<stop offset="0.52" stop-color="#FF6500"/>
<stop offset="1" stop-color="#921C00"/>
</linearGradient>
<linearGradient id="paint1_linear" x1="-11010.7" y1="3790.73" x2="-10861" y2="4228.9" gradientUnits="userSpaceOnUse">
<stop stop-color="#921C00"/>
<stop offset="0.52" stop-color="#FF6500"/>
<stop offset="1" stop-color="#921C00"/>
</linearGradient>
<linearGradient id="paint2_linear" x1="-14253.9" y1="3684.4" x2="-14253.9" y2="4115.65" gradientUnits="userSpaceOnUse">
<stop stop-color="#921C00"/>
<stop offset="0.52" stop-color="#FF6500"/>
<stop offset="1" stop-color="#921C00"/>
</linearGradient>
<linearGradient id="paint3_linear" x1="1.41157" y1="152.013" x2="6.90561" y2="163.06" gradientUnits="userSpaceOnUse">
<stop stop-color="#FF4400"/>
<stop offset="0.52" stop-color="#FF9400"/>
<stop offset="1" stop-color="#FF4400"/>
</linearGradient>
<linearGradient id="paint4_linear" x1="2.20831" y1="153.624" x2="6.11507" y2="161.48" gradientUnits="userSpaceOnUse">
<stop stop-color="#CFCFCF"/>
<stop offset="0.85"/>
</linearGradient>
<linearGradient id="paint5_linear" x1="3.578" y1="156.388" x2="6.57971" y2="162.424" gradientUnits="userSpaceOnUse">
<stop stop-color="white"/>
<stop offset="0.11" stop-color="#D7D7D7"/>
<stop offset="0.29" stop-color="#979797"/>
<stop offset="0.47" stop-color="#616161"/>
<stop offset="0.64" stop-color="#373737"/>
<stop offset="0.78" stop-color="#191919"/>
<stop offset="0.91" stop-color="#070707"/>
<stop offset="1"/>
</linearGradient>
<linearGradient id="paint6_linear" x1="-9604.04" y1="3460.4" x2="-9604.04" y2="3741.2" gradientUnits="userSpaceOnUse">
<stop stop-color="#921C00"/>
<stop offset="0.52" stop-color="#FF6500"/>
<stop offset="1" stop-color="#921C00"/>
</linearGradient>
<linearGradient id="paint7_linear" x1="-7966.44" y1="2455.1" x2="-7966.44" y2="2623.91" gradientUnits="userSpaceOnUse">
<stop stop-color="#CFCFCF"/>
<stop offset="0.85"/>
</linearGradient>
<linearGradient id="paint8_linear" x1="-6828.3" y1="1568.13" x2="-6828.3" y2="1651.03" gradientUnits="userSpaceOnUse">
<stop stop-color="white"/>
<stop offset="0.11" stop-color="#D7D7D7"/>
<stop offset="0.29" stop-color="#979797"/>
<stop offset="0.47" stop-color="#616161"/>
<stop offset="0.64" stop-color="#373737"/>
<stop offset="0.78" stop-color="#191919"/>
<stop offset="0.91" stop-color="#070707"/>
<stop offset="1"/>
</linearGradient>
<linearGradient id="paint9_linear" x1="-6940.48" y1="3322.97" x2="-6940.48" y2="3591.96" gradientUnits="userSpaceOnUse">
<stop stop-color="#921C00"/>
<stop offset="0.52" stop-color="#FF6500"/>
<stop offset="1" stop-color="#921C00"/>
</linearGradient>
<linearGradient id="paint10_linear" x1="-35715.6" y1="8593.79" x2="-35715.6" y2="10919" gradientUnits="userSpaceOnUse">
<stop stop-color="#FF4400"/>
<stop offset="0.52" stop-color="#FF9400"/>
<stop offset="1" stop-color="#FF4400"/>
</linearGradient>
<linearGradient id="paint11_linear" x1="-28564.9" y1="6425.36" x2="-28564.9" y2="7237.56" gradientUnits="userSpaceOnUse">
<stop stop-color="#CFCFCF"/>
<stop offset="0.85"/>
</linearGradient>
<linearGradient id="paint12_linear" x1="-26755.8" y1="4466.31" x2="-26755.8" y2="4797.48" gradientUnits="userSpaceOnUse">
<stop stop-color="white"/>
<stop offset="0.11" stop-color="#D7D7D7"/>
<stop offset="0.29" stop-color="#979797"/>
<stop offset="0.47" stop-color="#616161"/>
<stop offset="0.64" stop-color="#373737"/>
<stop offset="0.78" stop-color="#191919"/>
<stop offset="0.91" stop-color="#070707"/>
<stop offset="1"/>
</linearGradient>
<linearGradient id="paint13_linear" x1="-14606.8" y1="8404.07" x2="-13552.3" y2="8404.07" gradientUnits="userSpaceOnUse">
<stop stop-color="#921C00"/>
<stop offset="0.52" stop-color="#FF6500"/>
<stop offset="1" stop-color="#921C00"/>
</linearGradient>
<linearGradient id="paint14_linear" x1="-5894.95" y1="2391.72" x2="-5552.3" y2="2391.72" gradientUnits="userSpaceOnUse">
<stop stop-color="#921C00"/>
<stop offset="0.52" stop-color="#FF6500"/>
<stop offset="1" stop-color="#921C00"/>
</linearGradient>
<linearGradient id="paint15_linear" x1="42.2231" y1="118.678" x2="63.5579" y2="161.578" gradientUnits="userSpaceOnUse">
<stop offset="0.01" stop-color="white"/>
<stop offset="1" stop-color="#757575"/>
</linearGradient>
<linearGradient id="paint16_linear" x1="193.074" y1="129.261" x2="84.797" y2="120.16" gradientUnits="userSpaceOnUse">
<stop stop-color="#A62E41"/>
<stop offset="1" stop-color="#E13152"/>
</linearGradient>
<clipPath id="clip0">
<rect width="240" height="196.364" fill="white"/>
</clipPath>
</defs>
</svg>
