<svg width="240" height="197" viewBox="0 0 240 197" fill="none" xmlns="http://www.w3.org/2000/svg">
<g clip-path="url(#clip0)">
<path fill-rule="evenodd" clip-rule="evenodd" d="M70.4173 23.4098C104.836 -9.19658 175.354 -9.39072 212.729 33.2704C259.167 86.2212 230.407 174.946 174.09 187.096C133.259 195.918 107.811 182.831 84.2541 170.718C63.8035 160.201 44.7785 150.417 18.3516 156.339C31.0269 138.031 35.3479 116.389 39.6331 94.9268C44.8743 68.6755 50.0619 42.6928 70.4173 23.4098ZM36.4403 144.945C44.2238 145.218 51.9296 146.594 59.328 149.032L59.5829 148.195C52.3304 145.793 44.7841 144.397 37.154 144.046C40.1253 137.015 42.5653 129.77 44.4536 122.373L43.5462 122.138C41.6126 129.709 39.0971 137.119 36.0223 144.301L35.7471 144.945H36.4403ZM51.4678 89.9201L50.5503 89.7259C55.138 67.3889 60.6127 46.0532 77.0572 30.4602C80.6445 27.0944 84.5898 24.1338 88.8222 21.6317L89.3014 22.4491C85.1255 24.9093 81.2345 27.8256 77.6995 31.1448C61.4487 46.5539 56.076 67.7465 51.4678 89.9201ZM110.976 13.6104L110.752 12.701C118.788 10.6758 127.045 9.66319 135.332 9.68658C138.125 9.68658 140.939 9.79898 143.702 10.0238L143.62 10.9639C140.888 10.7391 138.095 10.6267 135.332 10.6267C127.121 10.6073 118.939 11.613 110.976 13.6206V13.6104ZM133.558 179.146C138.437 179.925 143.37 180.314 148.31 180.311C154.448 180.305 160.573 179.776 166.62 178.727L166.457 177.797C160.458 178.844 154.38 179.37 148.29 179.37C143.408 179.371 138.533 178.985 133.711 178.216L133.558 179.146ZM188.377 169.97L188.866 170.777C203.496 161.805 215.006 146.366 221.286 127.278C223.957 119.198 225.557 110.802 226.047 102.305L225.119 102.254C224.628 110.667 223.041 118.98 220.399 126.982C214.19 145.855 202.813 161.121 188.377 169.97ZM211.091 48.5567C215.426 55.1001 218.817 62.2245 221.164 69.7187L222.061 69.4428C219.69 61.8595 216.258 54.6519 211.866 48.0356L211.091 48.5567Z" fill="#1A1A1A"/>
<path d="M29.7609 172.065C29.6691 172.759 29.1186 173.393 27.9462 173.975L22.6754 176.591C22.3317 176.756 21.9423 176.798 21.5715 176.711C21.2007 176.624 20.8708 176.412 20.6364 176.111L9.42188 161.366L15.9161 158.127C18.8522 163.778 30.2604 168.601 29.7609 172.065Z" fill="url(#paint0_linear)"/>
<path d="M17.7415 157.187L15.8555 158.127C19.4441 164.881 35.073 170.388 27.9467 173.975L29.8328 173.035C36.9591 169.489 21.3302 163.951 17.7415 157.187Z" fill="url(#paint1_linear)"/>
<path style="mix-blend-mode:multiply" opacity="0.2" d="M29.7609 172.064C29.6691 172.759 29.1186 173.393 27.9462 173.975L22.6753 176.591C22.3317 176.756 21.9423 176.798 21.5715 176.71C21.2007 176.623 20.8708 176.412 20.6364 176.111L9.42188 161.366L12.4804 159.843C15.2942 164.452 20.8912 170.91 29.7609 172.064Z" fill="url(#paint2_linear)"/>
<path d="M4.36522 150.443L9.98266 161.785C6.40422 163.563 4.43659 163.257 3.08066 161.989C2.27359 161.149 1.62432 160.169 1.164 159.098C0.586973 158.081 0.193523 156.971 0.00177368 155.818C-0.161346 153.968 0.786787 152.251 4.36522 150.443Z" fill="url(#paint3_linear)"/>
<path style="mix-blend-mode:screen" opacity="0.3" d="M5.17905 152.078L9.17548 160.14C7.28005 161.159 5.20019 161.788 3.05849 161.989C2.25143 161.149 1.60216 160.169 1.14184 159.098C0.571923 158.08 0.185399 156.97 0 155.818C1.46052 154.238 3.22135 152.966 5.17905 152.078Z" fill="url(#paint4_linear)"/>
<path style="mix-blend-mode:color-burn" opacity="0.3" d="M1.30859 159.404C1.73803 160.362 2.33151 161.237 3.06213 161.989C5.20383 161.788 7.28368 161.159 9.17912 160.14L7.31344 156.338L1.30859 159.404Z" fill="url(#paint5_linear)"/>
<path d="M17.2408 160.753C12.0924 163.318 9.39069 162.715 7.52501 160.753C6.57271 159.653 5.78929 158.416 5.20056 157.085C4.5011 155.804 3.99599 154.427 3.70189 152.997C3.26351 150.33 4.42574 147.806 9.5742 145.242C9.26835 145.395 9.71693 146.846 10.5325 148.798C11.84 151.889 13.3311 154.898 14.9979 157.81C16.0582 159.67 16.935 160.906 17.2408 160.753Z" fill="url(#paint6_linear)"/>
<path style="mix-blend-mode:screen" opacity="0.3" d="M14.9992 157.83C12.5747 158.967 10.0783 159.943 7.52624 160.753C6.57394 159.652 5.79052 158.416 5.20179 157.084C4.50233 155.804 3.99722 154.427 3.70312 152.997C5.88547 151.448 8.16729 150.045 10.5338 148.797C11.8405 151.895 13.3316 154.912 14.9992 157.83Z" fill="url(#paint7_linear)"/>
<path style="mix-blend-mode:color-burn" opacity="0.3" d="M5.3125 157.299C5.87845 158.552 6.62373 159.716 7.52481 160.753C10.0769 159.944 12.5732 158.967 14.9977 157.83C14.2841 156.614 13.4889 155.123 12.7344 153.6L5.3125 157.299Z" fill="url(#paint8_linear)"/>
<path style="mix-blend-mode:multiply" d="M9.57371 145.262C8.80884 145.637 8.06671 146.057 7.35121 146.519C7.17789 148.277 13.3968 160.825 14.9057 161.765C15.7028 161.469 16.4823 161.128 17.2403 160.743C16.2005 161.274 8.53383 145.783 9.57371 145.262Z" fill="url(#paint9_linear)"/>
<path d="M54.9712 132.336C57.0645 136.5 58.7544 140.856 60.0177 145.344C60.3541 146.58 60.6192 147.766 60.8129 148.869C61.6387 153.437 61.2615 156.696 59.4977 157.575L16.5361 161.274C16.2506 161.417 15.5982 160.641 14.7724 159.373C12.5735 155.782 10.7003 151.999 9.17533 148.072C8.66558 146.642 8.45148 145.661 8.73694 145.518L23.2342 129.444L37.6601 113.422C39.852 112.329 43.6751 115.18 47.6818 120.401C50.4885 124.135 52.9296 128.132 54.9712 132.336Z" fill="url(#paint10_linear)"/>
<path style="mix-blend-mode:screen" opacity="0.3" d="M42.1973 131.815C42.9619 133.593 43.8183 135.463 44.7766 137.404C45.735 139.346 46.6933 141.144 47.6516 142.83C48.7731 144.792 49.8843 146.58 50.9446 148.154L14.7728 159.404C12.5723 155.803 10.6991 152.01 9.17578 148.072L25.4164 136.413L39.9646 125.98C40.5661 127.779 41.3104 129.771 42.1973 131.815Z" fill="url(#paint11_linear)"/>
<path style="mix-blend-mode:color-burn" opacity="0.3" d="M44.859 137.66L11.8477 154.101C12.7316 155.918 13.7083 157.688 14.7736 159.404L50.976 148.164C49.9565 146.59 48.8045 144.802 47.683 142.84C46.7451 141.226 45.8037 139.499 44.859 137.66Z" fill="url(#paint12_linear)"/>
<path d="M53.7582 132.949C59.7528 145.068 60.9558 154.98 59.029 155.94C57.408 156.748 52.6775 151.669 47.6514 142.841C46.6931 141.158 45.7347 139.349 44.7764 137.415C43.8181 135.473 42.9515 133.603 42.1971 131.825C38.2312 122.476 37.0996 115.63 38.6798 114.822C40.5965 113.862 47.7533 120.831 53.7582 132.949Z" fill="url(#paint13_linear)"/>
<path d="M58.6942 145.763C60.2234 151.454 60.203 155.358 59.0306 155.981C57.8582 156.604 54.6366 153.641 50.9766 148.164L58.6942 145.763Z" fill="url(#paint14_linear)"/>
<g style="mix-blend-mode:screen">
<path d="M39.5703 114.373C41.4972 113.412 48.654 120.381 54.6487 132.5C60.6433 144.619 61.8565 154.54 59.9297 155.501C59.8203 155.55 59.7027 155.577 59.5831 155.583C61.2244 153.457 59.5831 143.709 54.4856 133.399C45.983 116.028 39.5703 114.373 39.5703 114.373Z" fill="#A62A00"/>
</g>
<path style="mix-blend-mode:multiply" d="M38.681 114.822C38.5442 114.902 38.4256 115.01 38.3325 115.138C38.2395 115.267 38.1742 115.413 38.1406 115.568C41.1991 118.511 45.2771 123.957 48.9065 131.314C54.004 141.533 55.6352 150.249 54.8502 153.253C56.7567 155.358 58.2553 156.318 59.0301 155.94C60.957 154.98 59.754 145.068 53.7593 132.949C47.7647 120.831 40.5976 113.862 38.681 114.822Z" fill="url(#paint15_linear)"/>
<path d="M129.503 57.2219C132.092 57.2219 133.458 55.587 133.458 53.5434C133.458 51.8267 132.296 50.4166 130.848 50.1918C132.133 49.9261 133.193 48.7817 133.193 47.065C133.193 45.2462 131.868 43.5908 129.278 43.5908H122.122V57.2219H129.503ZM128.646 49.0474H125.017V46.0841H128.646C129.625 46.0841 130.237 46.7176 130.237 47.5759C130.237 48.4343 129.625 49.0474 128.646 49.0474ZM128.748 54.7083H125.017V51.5406H128.748C129.89 51.5406 130.502 52.2763 130.502 53.1346C130.502 54.1156 129.849 54.7083 128.748 54.7083Z" fill="white"/>
<path d="M144.083 57.2219V50.8458C144.083 48.0051 142.024 47.1059 139.781 47.1059C138.231 47.1059 136.682 47.5964 135.479 48.6591L136.457 50.3962C137.293 49.6196 138.272 49.2313 139.332 49.2313C140.637 49.2313 141.494 49.8852 141.494 50.8866V52.215C140.841 51.4384 139.679 51.0093 138.374 51.0093C136.804 51.0093 134.949 51.888 134.949 54.1973C134.949 56.4045 136.804 57.4672 138.374 57.4672C139.659 57.4672 140.821 56.9971 141.494 56.2001V57.2219H144.083ZM139.414 55.7096C138.394 55.7096 137.558 55.1783 137.558 54.2586C137.558 53.2981 138.394 52.7668 139.414 52.7668C140.25 52.7668 141.066 53.0529 141.494 53.6251V54.8513C141.066 55.4235 140.25 55.7096 139.414 55.7096Z" fill="white"/>
<path d="M158.294 57.2219V47.3511H154.869L152.483 53.2368L150.057 47.3511H146.652V57.2219H149.241V50.8049L151.892 57.2219H153.075L155.705 50.8049V57.2219H158.294Z" fill="white"/>
<path d="M92.8274 77.6584V67.7876H83.5703V77.6584H86.1598V70.056H90.2378V77.6584H92.8274Z" fill="white"/>
<path d="M99.9654 77.9036C103.228 77.9036 105.185 75.533 105.185 72.7128C105.185 69.913 103.228 67.5423 99.9654 67.5423C96.7234 67.5423 94.766 69.913 94.766 72.7128C94.766 75.533 96.7234 77.9036 99.9654 77.9036ZM99.9654 75.5943C98.3546 75.5943 97.4575 74.2659 97.4575 72.7128C97.4575 71.18 98.3546 69.8517 99.9654 69.8517C101.576 69.8517 102.494 71.18 102.494 72.7128C102.494 74.2659 101.576 75.5943 99.9654 75.5943Z" fill="white"/>
<path d="M109.696 77.6584V73.7142H113.774V77.6584H116.363V67.7876H113.774V71.4457H109.696V67.7876H107.106V77.6584H109.696Z" fill="white"/>
<path d="M124.562 77.9036C127.09 77.9036 128.925 76.003 128.925 72.7128C128.925 69.4225 127.09 67.5423 124.562 67.5423C123.359 67.5423 122.278 68.0737 121.524 69.0342V67.7876H118.934V81.4187H121.524V76.3913C122.319 77.4132 123.4 77.9036 124.562 77.9036ZM123.746 75.5943C122.91 75.5943 121.952 75.0834 121.524 74.4703V70.9757C121.952 70.3421 122.91 69.8517 123.746 69.8517C125.235 69.8517 126.234 71.0165 126.234 72.7128C126.234 74.4294 125.235 75.5943 123.746 75.5943Z" fill="white"/>
<path d="M139.324 77.6584V71.2822C139.324 68.4415 137.265 67.5423 135.022 67.5423C133.472 67.5423 131.923 68.0328 130.72 69.0955L131.698 70.8326C132.534 70.056 133.513 69.6677 134.573 69.6677C135.878 69.6677 136.735 70.3217 136.735 71.3231V72.6515C136.082 71.8749 134.92 71.4457 133.615 71.4457C132.045 71.4457 130.19 72.3245 130.19 74.6338C130.19 76.8409 132.045 77.9036 133.615 77.9036C134.9 77.9036 136.062 77.4336 136.735 76.6366V77.6584H139.324ZM134.655 76.1461C133.635 76.1461 132.799 75.6147 132.799 74.6951C132.799 73.7346 133.635 73.2032 134.655 73.2032C135.491 73.2032 136.307 73.4894 136.735 74.0616V75.2878C136.307 75.86 135.491 76.1461 134.655 76.1461Z" fill="white"/>
<path d="M148.316 77.6584C150.293 77.6584 151.354 76.4731 151.354 74.9812C151.354 73.7959 150.558 72.8149 149.478 72.5697C150.395 72.304 151.15 71.507 151.15 70.3217C151.15 68.9933 150.13 67.7876 148.132 67.7876H141.893V77.6584H148.316ZM147.684 75.533H144.482V73.6937H147.684C148.336 73.6937 148.703 74.1229 148.703 74.6134C148.703 75.1856 148.316 75.533 147.684 75.533ZM147.602 71.5683H144.482V69.913H147.602C148.173 69.913 148.52 70.2604 148.52 70.7509C148.52 71.2005 148.173 71.5683 147.602 71.5683Z" fill="white"/>
<path d="M156.328 77.6584L160.508 71.4661V77.6584H163.097V67.7876H160.487L156.43 73.755V67.7876H153.84V77.6584H156.328Z" fill="white"/>
<path d="M164.75 77.9036C167.258 77.9036 168.482 76.2891 168.889 72.8763L169.216 70.056H172.335V77.6584H174.925V67.7876H166.952L166.32 72.5697C166.014 74.9608 165.545 75.7782 164.75 75.7782V77.9036Z" fill="white"/>
<path d="M182.083 77.9036C184.102 77.9036 185.325 77.0249 185.978 76.1052L184.285 74.5316C183.816 75.1856 183.103 75.5943 182.206 75.5943C180.636 75.5943 179.535 74.4294 179.535 72.7128C179.535 70.9961 180.636 69.8517 182.206 69.8517C183.103 69.8517 183.816 70.2195 184.285 70.9144L185.978 69.3203C185.325 68.4211 184.102 67.5423 182.083 67.5423C179.045 67.5423 176.863 69.6882 176.863 72.7128C176.863 75.7578 179.045 77.9036 182.083 77.9036Z" fill="white"/>
<path d="M190.281 77.6584L192.218 74.2659H194.236V77.6584H196.826V67.7876H190.851C188.67 67.7876 187.446 69.2794 187.446 71.0165C187.446 72.7741 188.507 73.7959 189.628 74.082L187.344 77.6584H190.281ZM191.259 72.0997C190.525 72.0997 190.077 71.6501 190.077 71.0165C190.077 70.4034 190.546 69.9743 191.259 69.9743H194.236V72.0997H191.259Z" fill="white"/>
<path d="M112.869 98.0948V88.224H103.612V98.0948H106.201V90.4925H110.279V98.0948H112.869Z" fill="white"/>
<path d="M121.067 98.3401C123.596 98.3401 125.431 96.4395 125.431 93.1492C125.431 89.859 123.596 87.9788 121.067 87.9788C119.864 87.9788 118.784 88.5101 118.029 89.4707V88.224H115.44V101.855H118.029V96.8278C118.824 97.8496 119.905 98.3401 121.067 98.3401ZM120.252 96.0308C119.416 96.0308 118.457 95.5199 118.029 94.9068V91.4121C118.457 90.7786 119.416 90.2881 120.252 90.2881C121.74 90.2881 122.739 91.453 122.739 93.1492C122.739 94.8659 121.74 96.0308 120.252 96.0308Z" fill="white"/>
<path d="M131.894 98.3401C135.157 98.3401 137.114 95.9695 137.114 93.1492C137.114 90.3494 135.157 87.9788 131.894 87.9788C128.652 87.9788 126.695 90.3494 126.695 93.1492C126.695 95.9695 128.652 98.3401 131.894 98.3401ZM131.894 96.0308C130.284 96.0308 129.386 94.7024 129.386 93.1492C129.386 91.6165 130.284 90.2881 131.894 90.2881C133.505 90.2881 134.423 91.6165 134.423 93.1492C134.423 94.7024 133.505 96.0308 131.894 96.0308Z" fill="white"/>
<path d="M143.664 98.3401C145.193 98.3401 146.743 97.87 147.722 96.9708L146.58 95.295C145.948 95.9081 144.785 96.276 143.949 96.276C142.277 96.276 141.278 95.2337 141.115 93.9871H148.435V93.4149C148.435 90.1859 146.437 87.9788 143.501 87.9788C140.503 87.9788 138.403 90.2881 138.403 93.1492C138.403 96.3169 140.667 98.3401 143.664 98.3401ZM145.927 92.2296H141.074C141.197 91.2486 141.89 90.0429 143.501 90.0429C145.214 90.0429 145.866 91.2895 145.927 92.2296Z" fill="white"/>
<path d="M159.93 98.0948L155.913 92.6996L159.807 88.224H156.627L152.895 92.6179V88.224H150.306V98.0948H152.895V95.5607L154.078 94.2937L156.688 98.0948H159.93Z" fill="white"/>
<path d="M165.642 98.0948V90.4925H168.395V88.224H160.279V90.4925H163.032V98.0948H165.642Z" fill="white"/>
<path d="M172.363 93.9258L174.586 93.2718C174.382 93.0879 174.219 92.7405 174.219 92.4135C174.219 90.6968 177.624 90.472 177.624 87.4883C177.624 85.5877 176.013 84.2594 173.383 84.2594C171.629 84.2594 169.998 84.9746 168.918 86.2417L170.569 88.1014C171.201 87.3453 172.058 86.8344 173.077 86.8344C174.199 86.8344 174.667 87.3657 174.667 87.9992C174.667 89.4093 171.691 89.6955 171.691 92.1274C171.691 92.8427 171.935 93.4558 172.363 93.9258ZM173.342 98.3196C174.239 98.3196 174.994 97.5635 174.994 96.6643C174.994 95.7651 174.239 95.0089 173.342 95.0089C172.445 95.0089 171.691 95.7651 171.691 96.6643C171.691 97.5635 172.445 98.3196 173.342 98.3196Z" fill="white"/>
<g filter="url(#filter0_d)">
<rect x="80.6523" y="114.444" width="116" height="29.6328" rx="8" fill="url(#paint16_linear)"/>
<path d="M104.782 133.928C107.008 133.928 108.618 132.794 108.618 131.184C108.618 129.784 107.386 129.042 106.448 128.944C107.47 128.762 108.478 127.992 108.478 126.816C108.478 125.262 106.966 124.282 104.782 124.282C103.144 124.282 101.814 124.912 101.058 125.766L102.052 127.012C102.71 126.382 103.676 126.046 104.586 126.046C105.65 126.046 106.49 126.41 106.49 127.152C106.49 127.838 105.692 128.146 104.586 128.146H102.696V129.896H104.586C105.986 129.896 106.644 130.232 106.644 130.974C106.644 131.674 105.93 132.164 104.698 132.164C103.788 132.164 102.612 131.772 101.968 131.1L100.932 132.43C101.618 133.27 103.06 133.928 104.782 133.928ZM119.529 133.76L115.931 124.422H113.439L109.827 133.76H112.095L112.683 132.178H116.687L117.261 133.76H119.529ZM116.141 130.428H113.229L114.685 126.41L116.141 130.428ZM129.086 133.76L125.124 128.804L128.834 124.422H126.384L123.08 128.594V124.422H121.092V133.76H123.08V130.89L123.808 130.022L126.636 133.76H129.086ZM139.4 133.76L135.802 124.422H133.31L129.698 133.76H131.966L132.554 132.178H136.558L137.132 133.76H139.4ZM136.012 130.428H133.1L134.556 126.41L136.012 130.428ZM144.073 133.928C146.299 133.928 147.909 132.794 147.909 131.184C147.909 129.784 146.677 129.042 145.739 128.944C146.761 128.762 147.769 127.992 147.769 126.816C147.769 125.262 146.257 124.282 144.073 124.282C142.435 124.282 141.105 124.912 140.349 125.766L141.343 127.012C142.001 126.382 142.967 126.046 143.877 126.046C144.941 126.046 145.781 126.41 145.781 127.152C145.781 127.838 144.983 128.146 143.877 128.146H141.987V129.896H143.877C145.277 129.896 145.935 130.232 145.935 130.974C145.935 131.674 145.221 132.164 143.989 132.164C143.079 132.164 141.903 131.772 141.259 131.1L140.223 132.43C140.909 133.27 142.351 133.928 144.073 133.928ZM158.82 133.76L155.222 124.422H152.73L149.117 133.76H151.386L151.974 132.178H155.978L156.552 133.76H158.82ZM155.432 130.428H152.52L153.976 126.41L155.432 130.428ZM163.637 133.76V126.172H166.353V124.422H158.905V126.172H161.635V133.76H163.637ZM168.328 124.422V133.76H172.696C174.726 133.76 175.832 132.388 175.832 130.75C175.832 129.126 174.712 127.74 172.696 127.74H170.316V124.422H168.328ZM172.43 129.49C173.214 129.49 173.802 129.98 173.802 130.75C173.802 131.534 173.214 132.01 172.43 132.01H170.316V129.49H172.43Z" fill="#F5F9FF"/>
<rect x="80.6523" y="114.444" width="116" height="29.6328" rx="8" stroke="white"/>
</g>
<path d="M37.8871 71.9769C37.7904 68.4823 38.0465 64.9869 38.6517 61.5441C39.2314 58.0808 40.0663 54.6654 41.1495 51.3258C42.2198 47.9653 43.5316 44.6869 45.0745 41.5163C46.6434 38.3403 48.4142 35.2685 50.3759 32.3199C52.3822 29.4091 54.5862 26.6402 56.9721 24.033L58.8072 22.1221C59.4393 21.4988 60.0917 20.9062 60.7238 20.2931C61.9676 19.0465 63.3745 17.9735 64.7203 16.8393C70.2147 12.4987 76.3556 9.05054 82.9183 6.62109C77.1392 10.3184 71.6824 14.4989 66.6063 19.118C61.6749 23.7282 57.2645 28.8682 53.4548 34.4453C49.6322 40.0508 46.4097 46.0446 43.8409 52.3272C42.5564 55.4744 41.3738 58.683 40.395 61.963C39.3753 65.252 38.538 68.5951 37.8871 71.9769Z" fill="#1A1A1A"/>
<path d="M199.578 10.4937C205.367 13.2266 210.728 16.7892 215.492 21.0695C220.337 25.3129 224.641 30.1382 228.308 35.4363C230.137 38.1039 231.788 40.8893 233.252 43.7744C233.619 44.4897 233.935 45.2356 234.272 45.9611C234.608 46.6866 234.955 47.4223 235.291 48.1785L236.209 50.4163L236.983 52.7154C239.054 58.8034 240.088 65.1973 240.042 71.6293C238.646 65.5126 236.711 59.532 234.261 53.7576C231.788 48.0842 228.773 42.6638 225.259 37.572C221.731 32.4717 217.804 27.6608 213.515 23.1847C209.157 18.6469 204.501 14.4071 199.578 10.4937Z" fill="#1A1A1A"/>
<path d="M227.941 154.08C226.554 157.116 224.907 160.026 223.017 162.776C221.149 165.547 219.106 168.196 216.9 170.705C214.672 173.237 212.289 175.626 209.763 177.858C207.234 180.083 204.583 182.164 201.821 184.091C199.026 185.96 196.126 187.666 193.135 189.2C192.381 189.578 191.606 189.926 190.841 190.283C190.077 190.641 189.322 190.988 188.537 191.305C187.752 191.622 186.988 191.959 186.203 192.255L183.807 193.073C177.476 195.246 170.832 196.357 164.141 196.363C170.523 194.914 176.765 192.907 182.797 190.365C188.736 187.805 194.409 184.663 199.731 180.985C202.423 179.186 204.982 177.204 207.49 175.15C209.998 173.096 212.404 170.91 214.779 168.682C219.499 164.126 223.896 159.247 227.941 154.08Z" fill="#1A1A1A"/>
</g>
<defs>
<filter id="filter0_d" x="72.1523" y="105.944" width="149" height="62.6328" filterUnits="userSpaceOnUse" color-interpolation-filters="sRGB">
<feFlood flood-opacity="0" result="BackgroundImageFix"/>
<feColorMatrix in="SourceAlpha" type="matrix" values="0 0 0 0 0 0 0 0 0 0 0 0 0 0 0 0 0 0 127 0"/>
<feOffset dx="8" dy="8"/>
<feGaussianBlur stdDeviation="8"/>
<feColorMatrix type="matrix" values="0 0 0 0 0 0 0 0 0 0 0 0 0 0 0 0 0 0 0.25 0"/>
<feBlend mode="normal" in2="BackgroundImageFix" result="effect1_dropShadow"/>
<feBlend mode="normal" in="SourceGraphic" in2="effect1_dropShadow" result="shape"/>
</filter>
<linearGradient id="paint0_linear" x1="16.5064" y1="160.18" x2="28.1039" y2="183.5" gradientUnits="userSpaceOnUse">
<stop stop-color="#921C00"/>
<stop offset="0.52" stop-color="#FF6500"/>
<stop offset="1" stop-color="#921C00"/>
</linearGradient>
<linearGradient id="paint1_linear" x1="-11010.7" y1="3790.73" x2="-10861" y2="4228.9" gradientUnits="userSpaceOnUse">
<stop stop-color="#921C00"/>
<stop offset="0.52" stop-color="#FF6500"/>
<stop offset="1" stop-color="#921C00"/>
</linearGradient>
<linearGradient id="paint2_linear" x1="-14253.9" y1="3684.4" x2="-14253.9" y2="4115.65" gradientUnits="userSpaceOnUse">
<stop stop-color="#921C00"/>
<stop offset="0.52" stop-color="#FF6500"/>
<stop offset="1" stop-color="#921C00"/>
</linearGradient>
<linearGradient id="paint3_linear" x1="1.41255" y1="152.013" x2="6.90658" y2="163.06" gradientUnits="userSpaceOnUse">
<stop stop-color="#FF4400"/>
<stop offset="0.52" stop-color="#FF9400"/>
<stop offset="1" stop-color="#FF4400"/>
</linearGradient>
<linearGradient id="paint4_linear" x1="2.20831" y1="153.624" x2="6.11507" y2="161.48" gradientUnits="userSpaceOnUse">
<stop stop-color="#CFCFCF"/>
<stop offset="0.85"/>
</linearGradient>
<linearGradient id="paint5_linear" x1="3.58045" y1="156.388" x2="6.58215" y2="162.424" gradientUnits="userSpaceOnUse">
<stop stop-color="white"/>
<stop offset="0.11" stop-color="#D7D7D7"/>
<stop offset="0.29" stop-color="#979797"/>
<stop offset="0.47" stop-color="#616161"/>
<stop offset="0.64" stop-color="#373737"/>
<stop offset="0.78" stop-color="#191919"/>
<stop offset="0.91" stop-color="#070707"/>
<stop offset="1"/>
</linearGradient>
<linearGradient id="paint6_linear" x1="-9604.04" y1="3460.4" x2="-9604.04" y2="3741.2" gradientUnits="userSpaceOnUse">
<stop stop-color="#921C00"/>
<stop offset="0.52" stop-color="#FF6500"/>
<stop offset="1" stop-color="#921C00"/>
</linearGradient>
<linearGradient id="paint7_linear" x1="-7966.44" y1="2455.1" x2="-7966.44" y2="2623.91" gradientUnits="userSpaceOnUse">
<stop stop-color="#CFCFCF"/>
<stop offset="0.85"/>
</linearGradient>
<linearGradient id="paint8_linear" x1="-6828.3" y1="1568.13" x2="-6828.3" y2="1651.03" gradientUnits="userSpaceOnUse">
<stop stop-color="white"/>
<stop offset="0.11" stop-color="#D7D7D7"/>
<stop offset="0.29" stop-color="#979797"/>
<stop offset="0.47" stop-color="#616161"/>
<stop offset="0.64" stop-color="#373737"/>
<stop offset="0.78" stop-color="#191919"/>
<stop offset="0.91" stop-color="#070707"/>
<stop offset="1"/>
</linearGradient>
<linearGradient id="paint9_linear" x1="-6940.48" y1="3322.97" x2="-6940.48" y2="3591.96" gradientUnits="userSpaceOnUse">
<stop stop-color="#921C00"/>
<stop offset="0.52" stop-color="#FF6500"/>
<stop offset="1" stop-color="#921C00"/>
</linearGradient>
<linearGradient id="paint10_linear" x1="-35715.6" y1="8593.79" x2="-35715.6" y2="10919" gradientUnits="userSpaceOnUse">
<stop stop-color="#FF4400"/>
<stop offset="0.52" stop-color="#FF9400"/>
<stop offset="1" stop-color="#FF4400"/>
</linearGradient>
<linearGradient id="paint11_linear" x1="-28564.9" y1="6425.36" x2="-28564.9" y2="7237.56" gradientUnits="userSpaceOnUse">
<stop stop-color="#CFCFCF"/>
<stop offset="0.85"/>
</linearGradient>
<linearGradient id="paint12_linear" x1="-26755.8" y1="4466.31" x2="-26755.8" y2="4797.48" gradientUnits="userSpaceOnUse">
<stop stop-color="white"/>
<stop offset="0.11" stop-color="#D7D7D7"/>
<stop offset="0.29" stop-color="#979797"/>
<stop offset="0.47" stop-color="#616161"/>
<stop offset="0.64" stop-color="#373737"/>
<stop offset="0.78" stop-color="#191919"/>
<stop offset="0.91" stop-color="#070707"/>
<stop offset="1"/>
</linearGradient>
<linearGradient id="paint13_linear" x1="-14606.8" y1="8404.07" x2="-13552.3" y2="8404.07" gradientUnits="userSpaceOnUse">
<stop stop-color="#921C00"/>
<stop offset="0.52" stop-color="#FF6500"/>
<stop offset="1" stop-color="#921C00"/>
</linearGradient>
<linearGradient id="paint14_linear" x1="-5894.95" y1="2391.71" x2="-5552.3" y2="2391.71" gradientUnits="userSpaceOnUse">
<stop stop-color="#921C00"/>
<stop offset="0.52" stop-color="#FF6500"/>
<stop offset="1" stop-color="#921C00"/>
</linearGradient>
<linearGradient id="paint15_linear" x1="42.2241" y1="118.678" x2="63.5589" y2="161.578" gradientUnits="userSpaceOnUse">
<stop offset="0.01" stop-color="white"/>
<stop offset="1" stop-color="#757575"/>
</linearGradient>
<linearGradient id="paint16_linear" x1="193.077" y1="129.26" x2="84.7994" y2="120.16" gradientUnits="userSpaceOnUse">
<stop stop-color="#A62E41"/>
<stop offset="1" stop-color="#E13152"/>
</linearGradient>
<clipPath id="clip0">
<rect width="240" height="196.364" fill="white"/>
</clipPath>
</defs>
</svg>
