<svg width="162" height="62" viewBox="0 0 162 62" fill="none" xmlns="http://www.w3.org/2000/svg">
<g clip-path="url(#clip0)">
<path d="M70.3845 36.58C75.0756 36.688 77.0783 34.044 82.4081 34.2384C87.7379 34.4328 90.2133 34.9469 93.9265 34.9469C97.6396 34.9469 100.602 33.4434 106.953 34.2254C113.304 35.0074 117.988 38.9128 122.47 38.7875C126.952 38.6622 128.337 36.6924 132.967 37.1244C137.597 37.5564 140.238 42.5122 140.115 46.461C139.993 50.4098 136.186 52.9416 132.686 52.8897C129.185 52.8379 130.423 61.8103 127.785 61.6807C125.147 61.5511 128.485 52.0084 124.61 51.8053C120.734 51.6022 122.888 59.8748 120.088 59.9266C117.288 59.9785 120.146 52.7731 115.78 52.4058C111.413 52.0386 111.691 55.8621 109.324 55.5856C106.957 55.3091 106.924 49.4853 99.9671 49.0532C91.6206 48.4959 95.0596 59.2839 91.1263 59.0246C87.6332 58.7957 92.5697 44.6032 85.1542 44.4607C75.1947 44.2662 80.9539 61.6973 75.6566 61.7664C69.7963 61.8399 75.606 48.8934 71.0846 48.6989C66.5631 48.5045 68.8401 58.6601 65.5599 58.2842C62.2798 57.9083 65.0728 49.7963 61.789 49.4118C58.5053 49.0273 50 51.0881 50 41.6783C50 32.2686 65.6826 36.4591 70.3845 36.58Z" fill="white"/>
<path d="M50.0273 41.7476C50.0273 51.1574 58.5326 49.0922 61.8164 49.4811C65.1001 49.8699 62.2963 57.956 65.5728 58.3405C68.8494 58.725 66.576 48.5651 71.0975 48.7596C75.6189 48.954 69.8092 61.9005 75.6695 61.8227C80.9668 61.7579 74.888 47.2904 84.3801 47.4726C91.8064 47.6152 87.6461 58.852 91.1428 59.0809C95.0725 59.3402 91.6371 48.5522 99.98 49.1052C106.941 49.5675 106.966 55.4086 109.337 55.6635C111.708 55.9184 111.441 52.1165 115.793 52.4837C120.144 52.851 117.305 60.0736 120.101 60.0088C122.898 59.944 120.747 51.6715 124.623 51.8875C128.498 52.1035 125.164 61.6333 127.802 61.7629C130.44 61.8925 129.198 52.9071 132.698 52.9719C136.199 53.0367 140.02 50.4575 140.128 46.5259C140.148 45.4394 139.975 44.3603 139.621 43.3596C139.267 42.3588 138.74 41.459 138.075 40.7193C137.613 42.4475 136.235 44.3182 132.529 44.7848C125.269 45.7051 122.273 43.907 111.751 43.1121C101.229 42.3171 101.391 40.931 91.4675 38.2524C81.5441 35.5738 81.2735 39.9417 76.3406 40.0842C71.4078 40.2268 72.3135 41.7087 64.3423 41.4365C58.8935 41.2637 55.6819 38.3172 54.2168 36.4724C51.7414 37.1075 50.0273 38.6283 50.0273 41.7476Z" fill="#DEF0FF"/>
<g opacity="0.7">
<path opacity="0.7" d="M61.789 49.4852C65.0728 49.8741 62.2762 57.9601 65.5599 58.3447C68.8437 58.7292 66.5595 48.5693 71.0846 48.7637C75.6096 48.9581 69.7963 61.9003 75.6457 61.8226C80.943 61.7577 75.1838 44.3267 85.1433 44.5168C92.5697 44.6594 87.6224 58.8518 91.1154 59.0808C95.0487 59.34 91.6098 48.552 99.9563 49.105C106.914 49.5673 106.942 55.4085 109.313 55.6634C111.684 55.9183 111.417 52.1163 115.769 52.4836C120.121 52.8508 117.277 59.0735 120.077 59.0087C122.878 58.9439 120.723 51.6713 124.599 51.8873C128.474 52.1034 125.137 60.6331 127.774 60.7627C130.412 60.8923 129.174 52.907 132.675 52.9718C136.175 53.0366 139.996 50.4573 140.105 46.5258C140.132 45.2959 139.904 44.0771 139.441 42.9787C138.732 44.5339 137.874 45.984 136.882 47.2991C134.717 49.9648 130.686 49.1007 126.959 49.1007C123.231 49.1007 124.043 51.9651 120.882 51.8744C117.721 51.7837 117.515 50.6128 111.68 50.3234C105.845 50.0339 102.179 45.9339 97.2463 45.7179C92.3135 45.5018 90.751 41.7561 86.0599 41.324C81.3688 40.892 80.5389 44.3008 78.5542 45.1648C76.5695 46.0289 77.3814 43.4021 74.4044 42.9701C71.4274 42.5381 70.0742 48.1545 67.0069 47.9385C63.9397 47.7225 64.8418 45.5623 57.5346 44.3742C54.8193 43.9545 52.2475 42.6715 50.0866 40.6587C50.0289 41.0248 49.9999 41.3965 50 41.769C50 51.1572 58.5053 49.0964 61.789 49.4852Z" fill="#AED7FF"/>
<path opacity="0.7" d="M61.789 49.4852C65.0728 49.8741 62.2762 57.9601 65.5599 58.3447C68.8437 58.7292 66.5595 48.5693 71.0846 48.7637C75.6096 48.9581 69.7963 58.9003 75.6457 61.8226C80.943 61.7577 74.8635 47.2899 84.3781 47.4725C91.8045 47.6151 87.6224 58.8518 91.1154 59.0808C95.0487 59.34 91.6098 48.552 99.9563 49.105C106.914 49.5673 106.942 55.4085 109.313 55.6634C111.684 55.9183 111.417 52.1163 115.769 52.4836C120.121 52.8508 117.277 60.0735 120.077 60.0087C122.878 59.9439 120.723 51.6713 124.599 51.8873C128.474 52.1034 125.137 61.6331 127.774 61.7627C130.412 61.8923 129.174 52.907 132.675 52.9718C136.175 53.0366 139.996 50.4573 140.105 46.5258C140.132 45.2959 139.904 44.0771 139.441 42.9787C138.732 44.5339 137.874 45.984 136.882 47.2991C134.717 49.9648 130.686 49.1007 126.959 49.1007C123.231 49.1007 124.043 51.9651 120.882 51.8744C117.721 51.7837 117.515 50.6128 111.68 50.3234C105.845 50.0339 102.179 45.9339 97.2463 45.7179C92.3135 45.5018 90.751 41.7561 86.0599 41.324C81.3688 40.892 80.5389 44.3008 78.5542 45.1648C76.5695 46.0289 77.3814 43.4021 74.4044 42.9701C71.4274 42.5381 70.0742 48.1545 67.0069 47.9385C63.9397 47.7225 64.8418 45.5623 57.5346 44.3742C54.8193 43.9545 52.2475 42.6715 50.0866 40.6587C50.0289 41.0248 49.9999 41.3965 50 41.769C50 51.1572 58.5053 49.0964 61.789 49.4852Z" fill="#AED7FF"/>
</g>
<path fill-rule="evenodd" clip-rule="evenodd" d="M31.3665 18.7519C31.6329 18.6052 31.9569 18.6048 32.2236 18.751L40.4897 23.514C40.9163 23.7478 41.1269 24.4451 40.8907 24.8674C40.6545 25.2897 39.9506 25.5056 39.5241 25.2718L31.8177 20.8071L24.1482 25.2183C23.7221 25.4531 23.082 25.189 22.8449 24.7672C22.6078 24.3454 22.7483 23.7314 23.1744 23.4966L31.3665 18.7519ZM31.8177 39.6048C32.3053 39.6065 32.8219 39.9724 32.8202 40.4551V43.6904L39.3869 39.9056C39.813 39.6709 40.4721 40.0484 40.7091 40.4702C40.9462 40.892 40.7654 41.4254 40.3393 41.66L32.7701 46.0211C32.1191 46.3294 31.5267 46.3294 30.8653 46.0211L23.1457 41.5598C22.7228 41.3194 22.5938 40.6458 22.8366 40.2272C23.0795 39.8086 23.7755 39.6151 24.1983 39.8555L30.8151 43.6904V40.4551C30.8168 39.9724 31.3301 39.6032 31.8177 39.6048Z" fill="url(#paint0_linear)"/>
<path fill-rule="evenodd" clip-rule="evenodd" d="M43.9823 25.3054C44.2482 25.4695 44.3527 25.7304 44.3527 26.0524V38.7538C44.3527 39.2572 43.9689 39.6271 43.4778 39.6652C42.9771 39.7041 42.3476 39.4065 42.3476 38.9032V28.0757L32.8234 33.565V36.6249C32.8234 37.1282 32.304 37.5498 31.8209 37.5498C31.3377 37.5498 30.8183 37.1282 30.8183 36.6249V33.5396L21.2942 28.0757V38.8029C21.2942 39.3063 20.8249 39.7052 20.3417 39.7052C19.8586 39.7052 19.2891 39.3519 19.2891 38.8485V26.2712C19.2891 25.9501 19.4512 25.6527 19.716 25.4883C19.9807 25.3239 20.4376 25.2571 20.7086 25.4099L31.8209 31.8353L43.1301 25.3054C43.4012 25.1506 43.7163 25.1413 43.9823 25.3054Z" fill="url(#paint1_linear)"/>
<path fill-rule="evenodd" clip-rule="evenodd" d="M29.913 14.3406C31.0625 13.6403 31.9258 13.2322 33.071 13.9396L45.7532 21.2582C46.585 21.772 46.8837 22.7302 46.3638 23.5523C45.8439 24.3745 44.7009 24.2224 43.8691 23.7085L31.8178 16.7468L17.7822 24.8373V40.1996L31.8178 48.2767L43.9193 41.3032C44.7709 40.8222 46.1688 40.6093 46.6555 41.4511C47.1421 42.2928 46.7051 43.2342 45.8534 43.7152L34.1946 50.4263C33.1346 51.025 31.4191 51.6118 29.9631 50.733L16.529 42.9633C15.3715 42.3531 14.7745 41.8538 14.7745 40.5572V25.0679C14.7514 23.8035 15.0866 22.8443 16.1781 22.2607L29.913 14.3406Z" fill="url(#paint2_linear)"/>
<path fill-rule="evenodd" clip-rule="evenodd" d="M33.0929 8.89397C23.4285 -3.37961 6.64086 -0.540485 3.85784 14.0788C3.28981 17.0792 3.48724 23.0471 3.48724 23.0471L5.03822 23.8341C5.03822 23.8341 6.66846 20.0903 7.90979 17.7891C8.55754 16.5956 9.31377 15.4642 10.1689 14.4093C10.5152 13.9782 10.74 13.7321 10.74 13.7321C11.1314 15.8065 13.1772 24.3241 14.8181 23.0551L33.0929 8.89397Z" fill="#B5292A"/>
<path opacity="0.2" fill-rule="evenodd" clip-rule="evenodd" d="M10.7403 13.735C11.7937 12.5497 12.9516 11.4616 14.2 10.4838C14.9877 9.9173 11.7138 14.7351 16.8259 21.4982L14.822 23.0518C13.1762 24.3222 11.1218 15.8226 10.7403 13.735Z" fill="#181714"/>
<path opacity="0.2" fill-rule="evenodd" clip-rule="evenodd" d="M11.0603 15.1985C11.2309 15.6122 11.8963 17.1605 12.575 17.9827C13.3705 18.9494 15.0013 19.1758 15.0013 19.1758C15.0013 19.1758 14.0803 20.8329 13.0776 21.5504C12.2459 19.8201 11.4939 17.0476 11.0603 15.1985Z" fill="#181714"/>
<path fill-rule="evenodd" clip-rule="evenodd" d="M11.9137 20.4561C10.8452 22.4638 14.3594 26.9698 16.6245 25.9653C22.1964 23.5014 31.693 17.8035 35.619 13.4496C37.6637 11.184 34.7859 6.14006 31.9679 5.76567C29.2433 5.39362 13.7556 16.9778 11.9137 20.4561Z" fill="white"/>
<path opacity="0.2" fill-rule="evenodd" clip-rule="evenodd" d="M36.2695 10.8181C31.7356 15.3082 21.4282 22.0153 16.5568 23.5144C14.9977 23.9947 13.137 22.4409 11.9276 20.4272L11.9117 20.4578C10.8432 22.4655 14.3573 26.9715 16.6225 25.967C22.1944 23.5031 31.691 17.8052 35.617 13.4513C36.2552 12.7567 36.4182 11.8119 36.2695 10.8181Z" fill="#181714"/>
<path fill-rule="evenodd" clip-rule="evenodd" d="M5.80142 25.8611C5.13461 26.0574 4.42437 26.0502 3.76173 25.8402C3.09908 25.6303 2.51421 25.2273 2.08208 24.6829C1.64994 24.1384 1.39022 23.4773 1.33621 22.7843C1.2822 22.0913 1.43634 21.398 1.7789 20.7931C2.12146 20.1883 2.63683 19.6996 3.25895 19.3895C3.88107 19.0794 4.5816 18.9622 5.27077 19.0528C5.95994 19.1435 6.60635 19.4378 7.12716 19.8982C7.64796 20.3585 8.01944 20.9639 8.19399 21.6368C8.43526 22.5142 8.31892 23.4514 7.87047 24.2432C7.42201 25.035 6.678 25.6168 5.80142 25.8611Z" fill="white"/>
<path opacity="0.2" fill-rule="evenodd" clip-rule="evenodd" d="M1.7882 21.1295C1.51273 21.8309 1.46754 22.6019 1.65916 23.3307C1.83484 24.1741 2.32735 24.918 3.03521 25.4091C3.74307 25.9001 4.61233 26.1009 5.46385 25.9701C6.31537 25.8393 7.08427 25.3868 7.6121 24.7059C8.13992 24.0251 8.38644 23.1676 8.30085 22.3104C8.11137 22.8028 7.80763 23.2432 7.41464 23.5952C7.02165 23.9473 6.55066 24.201 6.04044 24.3354C5.60205 24.4413 5.14709 24.4597 4.70155 24.3898C4.25602 24.3198 3.82863 24.1628 3.4438 23.9276C3.05897 23.6924 2.72423 23.3837 2.45872 23.0192C2.1932 22.6546 2.0021 22.2413 1.89633 21.8029C1.83962 21.5823 1.80342 21.3568 1.7882 21.1295V21.1295Z" fill="#181714"/>
<path opacity="0.2" fill-rule="evenodd" clip-rule="evenodd" d="M12.6776 23.8974C13.6807 24.6069 14.9053 24.9324 16.1283 24.8147C18.2435 24.6113 28.7442 18.7224 31.2031 17.3315C26.664 20.7484 20.6235 24.1938 16.6146 25.9673C15.3582 26.5228 13.7103 25.3717 12.6776 23.8974Z" fill="#181714"/>
<path d="M61.4136 35.4574C65.3553 35.4574 67.6078 33.3 68.8948 31.0894L65.6235 29.518C64.8727 30.9828 63.2638 32.1015 61.4136 32.1015C58.1691 32.1015 55.8094 29.6245 55.8094 26.2686C55.8094 22.9127 58.1691 20.4357 61.4136 20.4357C63.2638 20.4357 64.8727 21.581 65.6235 23.0192L68.8948 21.4212C67.6346 19.2106 65.3553 17.0798 61.4136 17.0798C56.0508 17.0798 51.8945 20.8086 51.8945 26.2686C51.8945 31.7286 56.0508 35.4574 61.4136 35.4574Z" fill="url(#paint3_linear)"/>
<path d="M90.5481 35.1378V17.3728H85.1852L80.8413 28.1064L76.4974 17.3728H71.1613V35.1378H74.9689V22.6996L80.01 35.1378H81.6725L86.7136 22.6996V35.1378H90.5481Z" fill="url(#paint4_linear)"/>
<path d="M98.5343 31.0095V26.455C99.0974 25.6027 100.358 24.9635 101.457 24.9635C103.441 24.9635 104.755 26.4817 104.755 28.7189C104.755 30.9562 103.441 32.4477 101.457 32.4477C100.358 32.4477 99.0974 31.8351 98.5343 31.0095ZM98.5343 35.1377V33.4864C99.5533 34.7649 100.974 35.4574 102.53 35.4574C105.801 35.4574 108.268 33.007 108.268 28.7189C108.268 24.5107 105.828 21.9539 102.53 21.9539C101.001 21.9539 99.5533 22.6197 98.5343 23.9248V17.3728H95.1289V35.1377H98.5343Z" fill="#0A3D76"/>
<path d="M116.847 35.4574C121.137 35.4574 123.711 32.3678 123.711 28.6923C123.711 25.0434 121.137 21.9539 116.847 21.9539C112.583 21.9539 110.009 25.0434 110.009 28.6923C110.009 32.3678 112.583 35.4574 116.847 35.4574ZM116.847 32.4477C114.729 32.4477 113.549 30.7165 113.549 28.6923C113.549 26.6947 114.729 24.9635 116.847 24.9635C118.965 24.9635 120.172 26.6947 120.172 28.6923C120.172 30.7165 118.965 32.4477 116.847 32.4477Z" fill="#0A3D76"/>
<path d="M137.146 35.1377L132.507 28.5325L136.851 22.2735H133.044L130.389 26.242L127.708 22.2735H123.9L128.217 28.5325L123.632 35.1377H127.413L130.389 30.7964L133.339 35.1377H137.146Z" fill="#0A3D76"/>
<path d="M55.6245 46.5171C57.0914 46.5171 57.9297 45.7306 58.4087 44.9248L57.1912 44.3519C56.9118 44.8859 56.3131 45.2937 55.6245 45.2937C54.4171 45.2937 53.539 44.3908 53.539 43.1674C53.539 41.944 54.4171 41.041 55.6245 41.041C56.3131 41.041 56.9118 41.4585 57.1912 41.9828L58.4087 41.4003C57.9396 40.5944 57.0914 39.8177 55.6245 39.8177C53.6288 39.8177 52.082 41.177 52.082 43.1674C52.082 45.1578 53.6288 46.5171 55.6245 46.5171Z" fill="#B01E34"/>
<path d="M60.4895 46.4006V43.3033C60.699 43.0023 61.2579 42.7693 61.677 42.7693C61.8167 42.7693 61.9364 42.779 62.0262 42.7984V41.5945C61.4275 41.5945 60.8288 41.9343 60.4895 42.3518V41.711H59.2222V46.4006H60.4895Z" fill="#B01E34"/>
<path d="M65.0833 46.5171C65.8317 46.5171 66.5901 46.2938 67.0691 45.8666L66.5103 45.0704C66.2009 45.3617 65.6321 45.5365 65.223 45.5365C64.4047 45.5365 63.9158 45.0413 63.8359 44.449H67.4184V44.1771C67.4184 42.6431 66.4404 41.5945 65.0035 41.5945C63.5366 41.5945 62.5087 42.6916 62.5087 44.0509C62.5087 45.5559 63.6164 46.5171 65.0833 46.5171ZM66.191 43.614H63.816C63.8758 43.148 64.2151 42.5751 65.0035 42.5751C65.8417 42.5751 66.161 43.1674 66.191 43.614Z" fill="#B01E34"/>
<path d="M72.495 46.4006V43.3713C72.495 42.0217 71.4871 41.5945 70.3894 41.5945C69.631 41.5945 68.8726 41.8275 68.2839 42.3324L68.7629 43.1577C69.172 42.7887 69.651 42.6042 70.1699 42.6042C70.8085 42.6042 71.2276 42.9149 71.2276 43.3907V44.0218C70.9083 43.6528 70.3395 43.449 69.7009 43.449C68.9325 43.449 68.0244 43.8665 68.0244 44.9636C68.0244 46.0122 68.9325 46.5171 69.7009 46.5171C70.3295 46.5171 70.8983 46.2938 71.2276 45.9151V46.4006H72.495ZM70.2098 45.6821C69.7109 45.6821 69.3017 45.4297 69.3017 44.9927C69.3017 44.5364 69.7109 44.284 70.2098 44.284C70.6189 44.284 71.0181 44.4199 71.2276 44.6917V45.2743C71.0181 45.5462 70.6189 45.6821 70.2098 45.6821Z" fill="#B01E34"/>
<path d="M75.3686 46.5171C75.8975 46.5171 76.2367 46.3812 76.4263 46.2161L76.1569 45.284C76.0871 45.352 75.9074 45.4199 75.7178 45.4199C75.4384 45.4199 75.2788 45.1966 75.2788 44.9053V42.7887H76.2567V41.711H75.2788V40.4294H74.0015V41.711H73.2032V42.7887H74.0015V45.2355C74.0015 46.0705 74.4805 46.5171 75.3686 46.5171Z" fill="#B01E34"/>
<path d="M77.7524 41.2061C78.1716 41.2061 78.5108 40.876 78.5108 40.4682C78.5108 40.0604 78.1716 39.74 77.7524 39.74C77.3433 39.74 76.994 40.0604 76.994 40.4682C76.994 40.876 77.3433 41.2061 77.7524 41.2061ZM78.3911 46.4006V41.711H77.1238V46.4006H78.3911Z" fill="#B01E34"/>
<path d="M82.2622 46.4006L84.1981 41.711H82.831L81.5737 44.9733L80.3163 41.711H78.9592L80.8951 46.4006H82.2622Z" fill="#B01E34"/>
<path d="M87.0291 46.5171C87.7775 46.5171 88.5359 46.2938 89.0149 45.8666L88.4561 45.0704C88.1467 45.3617 87.5779 45.5365 87.1688 45.5365C86.3505 45.5365 85.8615 45.0413 85.7817 44.449H89.3641V44.1771C89.3641 42.6431 88.3862 41.5945 86.9492 41.5945C85.4824 41.5945 84.4545 42.6916 84.4545 44.0509C84.4545 45.5559 85.5622 46.5171 87.0291 46.5171ZM88.1367 43.614H85.7618C85.8216 43.148 86.1609 42.5751 86.9492 42.5751C87.7875 42.5751 88.1068 43.1674 88.1367 43.614Z" fill="#B01E34"/>
<path d="M100.077 46.4006V39.9245H98.0817L96.4651 43.8373L94.8485 39.9245H92.8627V46.4006H94.2797V41.8663L96.1557 46.4006H96.7744L98.6504 41.8663V46.4006H100.077Z" fill="#B01E34"/>
<path d="M105.531 46.4006V43.3713C105.531 42.0217 104.523 41.5945 103.425 41.5945C102.667 41.5945 101.908 41.8275 101.319 42.3324L101.798 43.1577C102.208 42.7887 102.687 42.6042 103.206 42.6042C103.844 42.6042 104.263 42.9149 104.263 43.3907V44.0218C103.944 43.6528 103.375 43.449 102.736 43.449C101.968 43.449 101.06 43.8665 101.06 44.9636C101.06 46.0122 101.968 46.5171 102.736 46.5171C103.365 46.5171 103.934 46.2938 104.263 45.9151V46.4006H105.531ZM103.245 45.6821C102.746 45.6821 102.337 45.4297 102.337 44.9927C102.337 44.5364 102.746 44.284 103.245 44.284C103.655 44.284 104.054 44.4199 104.263 44.6917V45.2743C104.054 45.5462 103.655 45.6821 103.245 45.6821Z" fill="#B01E34"/>
<path d="M108.055 46.4006V43.3033C108.264 43.0023 108.823 42.7693 109.242 42.7693C109.382 42.7693 109.502 42.779 109.592 42.7984V41.5945C108.993 41.5945 108.394 41.9343 108.055 42.3518V41.711H106.788V46.4006H108.055Z" fill="#B01E34"/>
<path d="M115.094 46.4006L113.128 43.8373L115.034 41.711H113.477L111.651 43.7985V39.9245H110.384V46.4006H111.651V45.1966L112.23 44.5947L113.507 46.4006H115.094Z" fill="#B01E34"/>
<path d="M117.931 46.5171C118.679 46.5171 119.437 46.2938 119.916 45.8666L119.358 45.0704C119.048 45.3617 118.479 45.5365 118.07 45.5365C117.252 45.5365 116.763 45.0413 116.683 44.449H120.266V44.1771C120.266 42.6431 119.288 41.5945 117.851 41.5945C116.384 41.5945 115.356 42.6916 115.356 44.0509C115.356 45.5559 116.464 46.5171 117.931 46.5171ZM119.038 43.614H116.663C116.723 43.148 117.062 42.5751 117.851 42.5751C118.689 42.5751 119.008 43.1674 119.038 43.614Z" fill="#B01E34"/>
<path d="M122.798 46.5171C123.326 46.5171 123.666 46.3812 123.855 46.2161L123.586 45.284C123.516 45.352 123.336 45.4199 123.147 45.4199C122.867 45.4199 122.708 45.1966 122.708 44.9053V42.7887H123.686V41.711H122.708V40.4294H121.43V41.711H120.632V42.7887H121.43V45.2355C121.43 46.0705 121.909 46.5171 122.798 46.5171Z" fill="#B01E34"/>
<path d="M125.181 41.2061C125.601 41.2061 125.94 40.876 125.94 40.4682C125.94 40.0604 125.601 39.74 125.181 39.74C124.772 39.74 124.423 40.0604 124.423 40.4682C124.423 40.876 124.772 41.2061 125.181 41.2061ZM125.82 46.4006V41.711H124.553V46.4006H125.82Z" fill="#B01E34"/>
<path d="M131.597 46.4006V43.0897C131.597 42.177 131.088 41.5945 130.031 41.5945C129.242 41.5945 128.653 41.9634 128.344 42.3227V41.711H127.077V46.4006H128.344V43.2451C128.554 42.9635 128.943 42.6916 129.442 42.6916C129.981 42.6916 130.33 42.9149 130.33 43.5655V46.4006H131.597Z" fill="#B01E34"/>
<path d="M134.831 48.3036C136.019 48.3036 137.436 47.8667 137.436 46.0802V41.711H136.159V42.313C135.769 41.8372 135.25 41.5945 134.672 41.5945C133.454 41.5945 132.546 42.4489 132.546 43.983C132.546 45.5462 133.464 46.3715 134.672 46.3715C135.26 46.3715 135.779 46.0996 136.159 45.6335V46.1093C136.159 47.0317 135.44 47.2938 134.831 47.2938C134.223 47.2938 133.714 47.1288 133.325 46.7113L132.756 47.6045C133.364 48.1191 134.003 48.3036 134.831 48.3036ZM135.071 45.2743C134.352 45.2743 133.853 44.7888 133.853 43.983C133.853 43.1771 134.352 42.6916 135.071 42.6916C135.49 42.6916 135.949 42.9149 136.159 43.2256V44.7403C135.949 45.0413 135.49 45.2743 135.071 45.2743Z" fill="#B01E34"/>
</g>
<defs>
<linearGradient id="paint0_linear" x1="22.721" y1="31.6403" x2="41.2624" y2="31.7817" gradientUnits="userSpaceOnUse">
<stop stop-color="#1758A0"/>
<stop offset="1" stop-color="#0A3D76"/>
</linearGradient>
<linearGradient id="paint1_linear" x1="19.2891" y1="31.6185" x2="44.3487" y2="31.9612" gradientUnits="userSpaceOnUse">
<stop stop-color="#CD1732"/>
<stop offset="0.5" stop-color="#B6142C"/>
<stop offset="1" stop-color="#8B1022"/>
</linearGradient>
<linearGradient id="paint2_linear" x1="14.7734" y1="30.2332" x2="46.8578" y2="30.4501" gradientUnits="userSpaceOnUse">
<stop stop-color="#B6142C"/>
<stop offset="1" stop-color="#A62E41"/>
</linearGradient>
<linearGradient id="paint3_linear" x1="51.8945" y1="25.2218" x2="90.5385" y2="25.8659" gradientUnits="userSpaceOnUse">
<stop stop-color="#B6142C"/>
<stop offset="1" stop-color="#A62E41"/>
</linearGradient>
<linearGradient id="paint4_linear" x1="51.8945" y1="25.2218" x2="90.5385" y2="25.8659" gradientUnits="userSpaceOnUse">
<stop stop-color="#B6142C"/>
<stop offset="1" stop-color="#A62E41"/>
</linearGradient>
<clipPath id="clip0">
<rect width="162" height="62" fill="white"/>
</clipPath>
</defs>
</svg>
