<svg width="120" height="43" viewBox="0 0 120 43" fill="none" xmlns="http://www.w3.org/2000/svg">
<path d="M52.3359 26.288C55.8639 26.288 57.8799 24.344 59.0319 22.352L56.1039 20.936C55.4319 22.256 53.9919 23.264 52.3359 23.264C49.4319 23.264 47.3199 21.032 47.3199 18.008C47.3199 14.984 49.4319 12.752 52.3359 12.752C53.9919 12.752 55.4319 13.784 56.1039 15.08L59.0319 13.64C57.9039 11.648 55.8639 9.728 52.3359 9.728C47.5359 9.728 43.8159 13.088 43.8159 18.008C43.8159 22.928 47.5359 26.288 52.3359 26.288ZM78.4124 26V9.992H73.6124L69.7244 19.664L65.8364 9.992H61.0604V26H64.4684V14.792L68.9804 26H70.4684L74.9804 14.792V26H78.4124Z" fill="url(#paint0_linear)"/>
<path d="M84.5677 22.28V18.176C85.0717 17.408 86.1997 16.832 87.1837 16.832C88.9597 16.832 90.1357 18.2 90.1357 20.216C90.1357 22.232 88.9597 23.576 87.1837 23.576C86.1997 23.576 85.0717 23.024 84.5677 22.28ZM84.5677 26V24.512C85.4797 25.664 86.7517 26.288 88.1437 26.288C91.0717 26.288 93.2797 24.08 93.2797 20.216C93.2797 16.424 91.0957 14.12 88.1437 14.12C86.7757 14.12 85.4797 14.72 84.5677 15.896V9.992H81.5197V26H84.5677ZM100.958 26.288C104.798 26.288 107.102 23.504 107.102 20.192C107.102 16.904 104.798 14.12 100.958 14.12C97.1422 14.12 94.8382 16.904 94.8382 20.192C94.8382 23.504 97.1422 26.288 100.958 26.288ZM100.958 23.576C99.0622 23.576 98.0062 22.016 98.0062 20.192C98.0062 18.392 99.0622 16.832 100.958 16.832C102.854 16.832 103.934 18.392 103.934 20.192C103.934 22.016 102.854 23.576 100.958 23.576ZM119.127 26L114.975 20.048L118.863 14.408H115.455L113.079 17.984L110.679 14.408H107.271L111.135 20.048L107.031 26H110.415L113.079 22.088L115.719 26H119.127Z" fill="#0A3D76"/>
<path fill-rule="evenodd" clip-rule="evenodd" d="M18.7646 6.12509C19.0662 5.95887 19.4332 5.95849 19.7353 6.12406L29.0002 11.5002C29.4834 11.765 29.6582 12.3674 29.3906 12.8457C29.1231 13.324 28.5146 13.497 28.0314 13.2322L19.2521 8.1223L10.4864 12.9516C10.0038 13.2175 9.39486 13.0457 9.12629 12.568C8.85772 12.0903 9.03121 11.4875 9.51379 11.2216L18.7646 6.12509ZM19.2533 28.4204C19.8056 28.4222 20.2518 28.8669 20.2499 29.4137L20.2364 33.3235L28.0136 29.0402C28.4962 28.7744 29.1051 28.9462 29.3736 29.424C29.6421 29.9017 29.4686 30.5045 28.9859 30.7703L20.2364 35.651C19.4991 36.0002 18.9991 36.0002 18.2499 35.651L9.50048 30.5002C9.02155 30.2279 8.85625 29.6229 9.13126 29.1487C9.40628 28.6746 10.0175 28.511 10.4964 28.7832L18.2365 33.3036L18.2499 29.4069C18.2518 28.8602 18.7011 28.4185 19.2533 28.4204Z" fill="url(#paint1_linear)"/>
<path fill-rule="evenodd" clip-rule="evenodd" d="M31.4999 13.4999C31.8011 13.6857 31.9858 14.0234 31.9858 14.3881V27.8075C31.9858 28.3776 31.5422 28.8397 30.995 28.8397C30.4478 28.8397 30.0042 28.3776 30.0042 27.8075V16.1311L20.3475 21.8695V25.4918C20.3475 26.0619 19.9039 26.5241 19.3567 26.5241C18.8095 26.5241 18.3659 26.0619 18.3659 25.4918V21.8735L7.98153 16.0223V27.9679C7.98153 28.538 7.53792 29.0001 6.9907 29.0001C6.44349 29.0001 5.99988 28.538 5.99988 27.9679V14.2905C5.99988 13.9268 6.18356 13.59 6.48341 13.4038C6.78325 13.2176 7.15502 13.2095 7.46206 13.3825L19.3535 20.0828L30.5187 13.4829C30.8257 13.3076 31.1987 13.3141 31.4999 13.4999Z" fill="url(#paint2_linear)"/>
<path fill-rule="evenodd" clip-rule="evenodd" d="M17.0996 0.904222C18.4016 0.11095 19.354 -0.397108 20.651 0.404104L35 8.80615C35.9421 9.38813 36.3432 10.3603 35.7543 11.2914C35.1655 12.2226 33.9305 11.8734 32.9884 11.2914L19.5 3.30615L3.5 12.2246V30.3062L19.5 39.4196L33.004 31.5635C33.9686 31.0187 35.5335 30.6101 36.0847 31.5635C36.6359 32.5169 36.0709 33.4905 35.1063 34.0353L22 41.8062C20.7995 42.4842 19 42.8062 17.351 41.8108L2.01257 33.1122C0.701566 32.4211 0.000982222 31.9975 0.000982222 30.529L0.00107428 12.9813C-0.0251571 11.5492 0.426202 10.2255 1.66239 9.56455L17.0996 0.904222Z" fill="url(#paint3_linear)"/>
<path d="M46.5317 34.7481C47.5801 34.7481 48.1791 34.1971 48.5215 33.6325L47.6514 33.2311C47.4517 33.6053 47.0238 33.891 46.5317 33.891C45.6688 33.891 45.0412 33.2584 45.0412 32.4012C45.0412 31.5441 45.6688 30.9114 46.5317 30.9114C47.0238 30.9114 47.4517 31.2039 47.6514 31.5713L48.5215 31.1631C48.1863 30.5985 47.5801 30.0543 46.5317 30.0543C45.1054 30.0543 44 31.0066 44 32.4012C44 33.7958 45.1054 34.7481 46.5317 34.7481Z" fill="#B01E34"/>
<path d="M50.0086 34.6665V32.4964C50.1583 32.2856 50.5577 32.1223 50.8572 32.1223C50.9571 32.1223 51.0427 32.1291 51.1068 32.1427V31.2992C50.6789 31.2992 50.2511 31.5373 50.0086 31.8298V31.3808H49.1029V34.6665H50.0086Z" fill="#B01E34"/>
<path d="M53.2916 34.7481C53.8265 34.7481 54.3685 34.5917 54.7108 34.2924L54.3115 33.7345C54.0904 33.9386 53.6839 34.0611 53.3915 34.0611C52.8067 34.0611 52.4572 33.7141 52.4002 33.2992H54.9604V33.1087C54.9604 32.0339 54.2615 31.2992 53.2346 31.2992C52.1862 31.2992 51.4517 32.0679 51.4517 33.0203C51.4517 34.0747 52.2433 34.7481 53.2916 34.7481ZM54.0833 32.7141H52.3859C52.4287 32.3876 52.6712 31.9862 53.2346 31.9862C53.8336 31.9862 54.0619 32.4012 54.0833 32.7141Z" fill="#B01E34"/>
<path d="M58.5886 34.6665V32.5441C58.5886 31.5985 57.8683 31.2992 57.0838 31.2992C56.5418 31.2992 55.9998 31.4624 55.579 31.8162L55.9213 32.3944C56.2137 32.1359 56.556 32.0067 56.9269 32.0067C57.3833 32.0067 57.6828 32.2243 57.6828 32.5577V32.9998C57.4546 32.7413 57.0481 32.5985 56.5917 32.5985C56.0426 32.5985 55.3936 32.891 55.3936 33.6597C55.3936 34.3944 56.0426 34.7481 56.5917 34.7481C57.041 34.7481 57.4475 34.5917 57.6828 34.3264V34.6665H58.5886ZM56.9554 34.1631C56.5988 34.1631 56.3064 33.9862 56.3064 33.6801C56.3064 33.3604 56.5988 33.1835 56.9554 33.1835C57.2478 33.1835 57.5331 33.2788 57.6828 33.4692V33.8774C57.5331 34.0679 57.2478 34.1631 56.9554 34.1631Z" fill="#B01E34"/>
<path d="M60.6422 34.7481C61.0202 34.7481 61.2627 34.6529 61.3982 34.5373L61.2056 33.8842C61.1557 33.9318 61.0274 33.9794 60.8919 33.9794C60.6922 33.9794 60.5781 33.823 60.5781 33.6189V32.1359H61.277V31.3808H60.5781V30.4828H59.6652V31.3808H59.0947V32.1359H59.6652V33.8502C59.6652 34.4352 60.0075 34.7481 60.6422 34.7481Z" fill="#B01E34"/>
<path d="M62.3459 31.0271C62.6455 31.0271 62.8879 30.7958 62.8879 30.5101C62.8879 30.2243 62.6455 29.9998 62.3459 29.9998C62.0535 29.9998 61.8039 30.2243 61.8039 30.5101C61.8039 30.7958 62.0535 31.0271 62.3459 31.0271ZM62.8023 34.6665V31.3808H61.8966V34.6665H62.8023Z" fill="#B01E34"/>
<path d="M65.5689 34.6665L66.9525 31.3808H65.9754L65.0768 33.6665L64.1783 31.3808H63.2084L64.5919 34.6665H65.5689Z" fill="#B01E34"/>
<path d="M68.9757 34.7481C69.5106 34.7481 70.0526 34.5917 70.3949 34.2924L69.9955 33.7345C69.7744 33.9386 69.3679 34.0611 69.0755 34.0611C68.4907 34.0611 68.1413 33.7141 68.0842 33.2992H70.6445V33.1087C70.6445 32.0339 69.9456 31.2992 68.9186 31.2992C67.8703 31.2992 67.1357 32.0679 67.1357 33.0203C67.1357 34.0747 67.9273 34.7481 68.9757 34.7481ZM69.7673 32.7141H68.07C68.1127 32.3876 68.3552 31.9862 68.9186 31.9862C69.5177 31.9862 69.7459 32.4012 69.7673 32.7141Z" fill="#B01E34"/>
<path d="M78.301 34.6665V30.1291H76.8746L75.7193 32.8706L74.564 30.1291H73.1448V34.6665H74.1575V31.4896L75.4982 34.6665H75.9404L77.2811 31.4896V34.6665H78.301Z" fill="#B01E34"/>
<path d="M82.1982 34.6665V32.5441C82.1982 31.5985 81.4779 31.2992 80.6934 31.2992C80.1514 31.2992 79.6094 31.4624 79.1886 31.8162L79.531 32.3944C79.8233 32.1359 80.1657 32.0067 80.5365 32.0067C80.9929 32.0067 81.2925 32.2243 81.2925 32.5577V32.9998C81.0643 32.7413 80.6578 32.5985 80.2013 32.5985C79.6522 32.5985 79.0032 32.891 79.0032 33.6597C79.0032 34.3944 79.6522 34.7481 80.2013 34.7481C80.6506 34.7481 81.0571 34.5917 81.2925 34.3264V34.6665H82.1982ZM80.565 34.1631C80.2085 34.1631 79.9161 33.9862 79.9161 33.6801C79.9161 33.3604 80.2085 33.1835 80.565 33.1835C80.8574 33.1835 81.1427 33.2788 81.2925 33.4692V33.8774C81.1427 34.0679 80.8574 34.1631 80.565 34.1631Z" fill="#B01E34"/>
<path d="M84.0023 34.6665V32.4964C84.152 32.2856 84.5514 32.1223 84.8509 32.1223C84.9508 32.1223 85.0364 32.1291 85.1005 32.1427V31.2992C84.6726 31.2992 84.2447 31.5373 84.0023 31.8298V31.3808H83.0966V34.6665H84.0023Z" fill="#B01E34"/>
<path d="M89.0326 34.6665L87.6277 32.8706L88.9898 31.3808H87.8773L86.5722 32.8434V30.1291H85.6665V34.6665H86.5722V33.823L86.9858 33.4012L87.8987 34.6665H89.0326Z" fill="#B01E34"/>
<path d="M91.0601 34.7481C91.595 34.7481 92.137 34.5917 92.4793 34.2924L92.0799 33.7345C91.8588 33.9386 91.4523 34.0611 91.1599 34.0611C90.5751 34.0611 90.2257 33.7141 90.1686 33.2992H92.7289V33.1087C92.7289 32.0339 92.03 31.2992 91.003 31.2992C89.9547 31.2992 89.2201 32.0679 89.2201 33.0203C89.2201 34.0747 90.0117 34.7481 91.0601 34.7481ZM91.8517 32.7141H90.1544C90.1972 32.3876 90.4396 31.9862 91.003 31.9862C91.6021 31.9862 91.8303 32.4012 91.8517 32.7141Z" fill="#B01E34"/>
<path d="M94.5384 34.7481C94.9164 34.7481 95.1589 34.6529 95.2944 34.5373L95.1018 33.8842C95.0519 33.9318 94.9235 33.9794 94.788 33.9794C94.5884 33.9794 94.4743 33.823 94.4743 33.6189V32.1359H95.1732V31.3808H94.4743V30.4828H93.5614V31.3808H92.9909V32.1359H93.5614V33.8502C93.5614 34.4352 93.9037 34.7481 94.5384 34.7481Z" fill="#B01E34"/>
<path d="M96.2421 31.0271C96.5416 31.0271 96.7841 30.7958 96.7841 30.5101C96.7841 30.2243 96.5416 29.9998 96.2421 29.9998C95.9497 29.9998 95.7001 30.2243 95.7001 30.5101C95.7001 30.7958 95.9497 31.0271 96.2421 31.0271ZM96.6985 34.6665V31.3808H95.7928V34.6665H96.6985Z" fill="#B01E34"/>
<path d="M100.827 34.6665V32.3468C100.827 31.7073 100.464 31.2992 99.7076 31.2992C99.1442 31.2992 98.7234 31.5577 98.5023 31.8094V31.3808H97.5966V34.6665H98.5023V32.4556C98.6521 32.2584 98.9302 32.0679 99.2868 32.0679C99.6719 32.0679 99.9215 32.2243 99.9215 32.6801V34.6665H100.827Z" fill="#B01E34"/>
<path d="M103.139 35.9998C103.987 35.9998 105 35.6937 105 34.442V31.3808H104.087V31.8026C103.809 31.4692 103.438 31.2992 103.025 31.2992C102.154 31.2992 101.505 31.8978 101.505 32.9726C101.505 34.0679 102.162 34.6461 103.025 34.6461C103.445 34.6461 103.816 34.4556 104.087 34.1291V34.4624C104.087 35.1087 103.574 35.2924 103.139 35.2924C102.704 35.2924 102.34 35.1767 102.062 34.8842L101.655 35.5101C102.09 35.8706 102.547 35.9998 103.139 35.9998ZM103.31 33.8774C102.796 33.8774 102.44 33.5373 102.44 32.9726C102.44 32.408 102.796 32.0679 103.31 32.0679C103.609 32.0679 103.937 32.2243 104.087 32.442V33.5032C103.937 33.7141 103.609 33.8774 103.31 33.8774Z" fill="#B01E34"/>
<path d="M107.973 33.7701V32.5109C108.133 32.2753 108.493 32.0985 108.807 32.0985C109.374 32.0985 109.749 32.5183 109.749 33.1368C109.749 33.7554 109.374 34.1677 108.807 34.1677C108.493 34.1677 108.133 33.9984 107.973 33.7701ZM107.973 34.9115V34.4549C108.264 34.8084 108.669 34.9998 109.114 34.9998C110.048 34.9998 110.752 34.3224 110.752 33.1368C110.752 31.9733 110.056 31.2664 109.114 31.2664C108.677 31.2664 108.264 31.4505 107.973 31.8113V29.9998H107V34.9115H107.973Z" fill="#0A3D76"/>
<path d="M113.203 34.9998C114.428 34.9998 115.163 34.1456 115.163 33.1294C115.163 32.1206 114.428 31.2664 113.203 31.2664C111.985 31.2664 111.25 32.1206 111.25 33.1294C111.25 34.1456 111.985 34.9998 113.203 34.9998ZM113.203 34.1677C112.598 34.1677 112.261 33.6891 112.261 33.1294C112.261 32.5772 112.598 32.0985 113.203 32.0985C113.808 32.0985 114.152 32.5772 114.152 33.1294C114.152 33.6891 113.808 34.1677 113.203 34.1677Z" fill="#0A3D76"/>
<path d="M119 34.9115L117.675 33.0853L118.916 31.3548H117.828L117.07 32.452L116.304 31.3548H115.217L116.45 33.0853L115.14 34.9115H116.22L117.07 33.7112L117.913 34.9115H119Z" fill="#0A3D76"/>
<defs>
<linearGradient id="paint0_linear" x1="42.9999" y1="17.6329" x2="119.953" y2="19.5893" gradientUnits="userSpaceOnUse">
<stop stop-color="#B6142C"/>
<stop offset="1" stop-color="#A62E41"/>
</linearGradient>
<linearGradient id="paint1_linear" x1="9.00024" y1="20.4451" x2="30.0003" y2="20.6053" gradientUnits="userSpaceOnUse">
<stop stop-color="#1758A0"/>
<stop offset="1" stop-color="#0A3D76"/>
</linearGradient>
<linearGradient id="paint2_linear" x1="5.99988" y1="20.2325" x2="31.9822" y2="20.5724" gradientUnits="userSpaceOnUse">
<stop stop-color="#CD1732"/>
<stop offset="0.5" stop-color="#B6142C"/>
<stop offset="1" stop-color="#8B1022"/>
</linearGradient>
<linearGradient id="paint3_linear" x1="2.0551e-07" y1="18.8034" x2="36.3006" y2="19.0494" gradientUnits="userSpaceOnUse">
<stop stop-color="#B6142C"/>
<stop offset="1" stop-color="#A62E41"/>
</linearGradient>
</defs>
</svg>
