<svg width="238" height="174" viewBox="0 0 238 174" fill="none" xmlns="http://www.w3.org/2000/svg">
<g clip-path="url(#clip0)">
<g filter="url(#filter0_f)">
<path d="M148.606 114.313L65.4613 145.898L0.00019606 121.881L82.6816 91.753L148.606 114.313Z" fill="url(#paint0_linear)"/>
</g>
<path d="M136.598 173.904L63.1444 145.949L63.1191 56.3755L136.598 84.3305L136.598 173.904Z" fill="#053866"/>
<path d="M210.661 145.815L136.6 117.531L136.643 27.6294L210.814 55.7286L210.661 145.815Z" fill="#083556"/>
<path d="M136.6 173.903L210.788 145.483L210.814 55.6362L136.625 83.8255L136.6 173.903Z" fill="#054270"/>
<path d="M63.1444 145.815L136.642 118.741L136.642 27.6294L63.1191 55.7566L63.1444 145.815Z" fill="#063D66"/>
<g filter="url(#filter1_f)">
<ellipse cx="136.316" cy="108.215" rx="50.6688" ry="50.983" fill="url(#paint1_radial)"/>
</g>
<path d="M136.577 173.904L63.1483 145.949L63.123 56.3755L136.602 84.3305L136.577 173.904Z" fill="#053866"/>
<path d="M81.4927 85.9423L63.1484 78.9014L63.123 56.3755L81.4927 63.5695L81.4927 85.9423Z" fill="#053866"/>
<path d="M68.0058 77.8074C66.3512 77.8497 64.7057 77.5486 63.1712 76.9228L63.1211 74.5469C66.8535 75.9876 70.4356 75.7096 73.1911 73.7887C76.4726 71.514 78.5517 67.748 78.5517 62.2887L80.7561 63.1733C80.7561 69.3909 78.9275 72.8788 75.0448 75.5832C72.9608 76.9954 70.5158 77.7679 68.0058 77.8074Z" fill="#FF8098"/>
<path d="M99.8611 92.5949L81.4912 85.5173L81.4912 63.0281L99.8611 70.1056L99.8611 92.5949Z" fill="#0E2951"/>
<path d="M118.23 99.9862L99.8604 92.9087L99.8604 70.4194L118.23 77.4714L118.23 99.9862Z" fill="#FF8098"/>
<path d="M136.499 106.639L118.23 99.6455L118.23 77.0719L136.6 83.8594L136.499 106.639Z" fill="#911A31"/>
<path d="M81.4909 108.117L63.1211 101.065L63.1211 78.5505L81.4909 85.6281L81.4909 108.117Z" fill="#911A31"/>
<path d="M99.8611 114.77L81.4912 107.869L81.4912 85.9423L99.8611 92.8429L99.8611 114.77Z" fill="#C43B55"/>
<path d="M118.23 122.161L99.8604 115.084L99.8604 92.5945L118.23 99.6721L118.23 122.161Z" fill="#053866"/>
<path d="M136.6 128.814L118.23 121.99L118.23 99.9863L136.6 106.811L136.6 128.814Z" fill="#132F7C"/>
<path d="M99.8611 137.684L81.4912 130.632L81.4912 108.117L99.8611 115.195L99.8611 137.684Z" fill="#FF8098"/>
<path d="M118.231 144.336L99.8613 137.259L99.8613 114.77L118.231 121.847L118.231 144.336Z" fill="#0E2951"/>
<path d="M136.602 151.728L118.232 144.729L118.232 122.161L136.602 129.161L136.602 151.728Z" fill="#053866"/>
<path d="M81.4909 153.206L63.1211 146.129L63.1211 123.64L81.4909 130.717L81.4909 153.206Z" fill="#C43B55"/>
<path d="M99.8611 159.859L81.4912 152.801L81.4912 130.292L99.8611 137.35L99.8611 159.859Z" fill="#053866"/>
<path d="M118.23 167.251L99.8604 160.173L99.8604 137.684L118.23 144.762L118.23 167.251Z" fill="#FF8098"/>
<path d="M136.6 173.903L118.23 166.944L118.23 144.337L136.525 151.348L136.6 173.903Z" fill="#911A31"/>
<path d="M66.9193 73.3754C65.6152 73.3952 64.3214 73.1387 63.1211 72.6225L63.1211 69.8967C65.7901 70.9351 69.1007 70.5717 70.7432 69.4813C73.4892 67.6381 74.8237 64.7825 74.8237 60.8105L77.0821 61.7192C77.0821 66.5997 75.3627 69.5852 72.283 71.7399C70.695 72.811 68.828 73.3803 66.9193 73.3754Z" fill="#D6516B"/>
<path d="M65.6062 68.2009C64.7547 68.2186 63.9088 68.0509 63.1211 67.7082L63.1211 64.8341C64.7261 65.491 67.2112 65.3268 68.5832 63.876C70.007 62.3705 70.3953 61.1387 70.3953 58.593L72.6734 59.5511C72.6734 63.0548 71.5344 65.4363 69.3857 66.9965C68.2674 67.7869 66.9514 68.2063 65.6062 68.2009Z" fill="#C43B55"/>
<path d="M64.2912 63.019C63.8885 63.0569 63.484 62.973 63.1211 62.7764L63.1211 59.9454C63.5111 60.1072 64.7787 60.215 65.2663 59.9454C66.1195 59.4601 66.1195 58.5165 65.7051 57.1145L68.2646 58.0581C68.2646 60.0263 67.6308 61.4013 66.4364 62.318C65.7961 62.7724 65.052 63.0156 64.2912 63.019Z" fill="#A62E41"/>
<path d="M136.315 148.032L120.434 142.124L120.434 103.682L136.599 109.489L136.599 112.608L123.171 107.536L123.171 140.273L136.16 145.091L136.315 148.032Z" fill="#C43B55"/>
<path d="M136.599 148.771L120.434 142.316L120.434 122.9L123.171 123.78L123.171 140.483L136.599 145.682L136.599 148.771Z" fill="#F985A0"/>
<path d="M136.314 142.858L124.844 138.554L124.844 110.335L136.6 114.535L136.6 117.705L127.581 114.278L127.581 137.137L136.6 140.307L136.314 142.858Z" fill="#C43B55"/>
<path d="M136.325 136.945L129.988 134.531L129.988 118.465L136.601 120.778L136.601 123.871L132.628 122.312L132.628 132.721L136.601 134.456L136.325 136.945Z" fill="#C43B55"/>
<path d="M136.601 136.945L129.988 134.351L129.988 125.857L132.628 126.747L132.628 132.52L136.601 133.817L136.601 136.945Z" fill="#F985A0"/>
<path d="M136.6 142.858L124.844 138.515L124.844 124.379L127.581 125.258L127.581 136.682L136.6 139.77L136.6 142.858Z" fill="#F985A0"/>
<path d="M77.0821 150.989L63.1211 145.679L63.1211 128.814L77.0821 134.123L77.0821 150.989Z" fill="#053866"/>
<path d="M71.9386 149.51L63.1211 145.975L63.1211 134.727L71.9386 138.263L71.9386 149.51Z" fill="#FF8098"/>
<path d="M118.23 85.3501L111.511 97.0296L99.8604 84.3165L106.58 72.637L118.23 85.3501Z" fill="#C43B55"/>
<path d="M113.824 85.0817L110.31 91.1165L104.271 84.5592L107.759 78.5505L113.824 85.0817Z" fill="#911A31"/>
<path d="M118.23 167.251L99.8604 160.151L99.8604 142.119L118.23 149.193L118.23 167.251Z" fill="#C43B55"/>
<path d="M118.23 167.25L99.8604 159.964L99.8604 146.554L118.23 153.813L118.23 167.25Z" fill="#911A31"/>
<path d="M118.23 167.251L99.8604 160.002L99.8604 151.728L118.23 158.951L118.23 167.251Z" fill="#053866"/>
<path d="M118.23 167.251L99.8604 160.183L99.8604 156.163L118.23 163.205L118.23 167.251Z" fill="#0E2951"/>
<path d="M81.4912 91.1165L99.8611 98.0231L81.4912 103.428L99.8611 110.335L81.4912 91.1165Z" fill="#911A31"/>
<path d="M65.3255 102.204L63.1211 101.296L63.1211 78.5505L65.3255 79.4583L65.3255 102.204Z" fill="#FF8098"/>
<path d="M68.9993 102.943L66.7949 102.065L66.7949 80.0288L68.9993 80.9323L68.9993 102.943Z" fill="#FF8098"/>
<path d="M80.7556 107.378L77.8164 106.498L77.8164 84.4633L80.7556 85.3426L80.7556 107.378Z" fill="#FF8098"/>
<path d="M76.347 105.899L74.1426 105.02L74.1426 82.9852L76.347 83.8646L76.347 105.899Z" fill="#FF8098"/>
<path d="M72.6741 104.421L70.4697 103.542L70.4697 81.5071L72.6741 82.3865L72.6741 104.421Z" fill="#FF8098"/>
<path d="M81.4909 130.292L63.1211 123.215L63.1211 100.726L81.4909 107.778L81.4909 130.292Z" fill="#0E2951"/>
<path d="M81.4908 130.292L71.9385 126.757L71.9385 115.509L81.4908 119.045L81.4908 130.292Z" fill="#911A31"/>
<path d="M71.9386 115.509L63.1211 111.967L63.1211 100.726L71.9386 104.268L71.9386 115.509Z" fill="#911A31"/>
<path fill-rule="evenodd" clip-rule="evenodd" d="M83.6963 133.988L97.0141 139.269L96.3077 141.218L85.6893 137.008L85.6893 149.928L95.6644 153.883L95.6644 144.185L87.9424 141.12L87.9424 148.026L93.4113 150.202L93.4113 146.037L90.1712 144.749L90.1712 146.173L92.5325 147.11L91.8253 149.059L88.1783 147.611L88.1783 141.726L95.4043 144.6L95.4043 153.225L85.9494 149.463L85.9494 138.099L97.6574 142.747L97.6574 156.902L83.6963 151.367L83.6963 133.988Z" fill="#F985A0"/>
<path fill-rule="evenodd" clip-rule="evenodd" d="M135.129 154.648L122.619 166.512L120.434 164.331L132.944 152.468L135.129 154.648Z" fill="#0E2951"/>
<path fill-rule="evenodd" clip-rule="evenodd" d="M123.052 148.032L135.129 169.406L132.511 170.947L120.434 149.573L123.052 148.032Z" fill="#0E2951"/>
<path d="M106.473 125.858L103.534 124.62L103.534 120.683L106.473 121.921L106.473 125.858Z" fill="#911A31"/>
<path d="M110.147 132.51L107.208 131.279L107.208 127.335L110.147 128.566L110.147 132.51Z" fill="#911A31"/>
<path d="M114.556 138.423L111.617 137.363L111.617 133.988L114.556 135.049L114.556 138.423Z" fill="#911A31"/>
<path d="M136.625 83.8261L210.814 55.6367L210.814 145.586L136.6 173.904L136.625 83.8261Z" fill="#053866"/>
<path d="M192.444 107.797L210.814 100.726L210.814 123.221L192.444 130.292L192.444 107.797Z" fill="#911A31"/>
<path d="M173.34 115.018L192.444 108.118L192.444 130.07L173.34 136.945L173.34 115.018Z" fill="#C43B55"/>
<path d="M154.971 121.847L173.341 114.77L173.341 137.259L154.971 144.336L154.971 121.847Z" fill="#053866"/>
<path d="M136.601 129.317L154.97 122.161L154.97 144.573L136.601 151.728L136.601 129.317Z" fill="#132F7C"/>
<path d="M173.34 92.2809L192.444 85.2034L192.444 107.693L173.34 114.77L173.34 92.2809Z" fill="#FF8098"/>
<path d="M154.971 99.6728L173.341 92.5952L173.341 115.084L154.971 122.162L154.971 99.6728Z" fill="#0E2951"/>
<path d="M136.601 106.403L154.97 99.2473L154.97 121.659L136.601 128.814L136.601 106.403Z" fill="#053866"/>
<path d="M173.342 137.345L192.446 130.293L192.446 152.782L173.342 159.86L173.342 137.345Z" fill="#0E2951"/>
<path d="M154.971 144.023L173.341 136.946L173.341 159.461L154.971 166.513L154.971 144.023Z" fill="#FF8098"/>
<path d="M136.601 151.505L154.97 144.338L154.97 166.788L136.676 173.904L136.601 151.505Z" fill="#911A31"/>
<path d="M192.443 62.7338L210.813 55.6367L210.813 78.132L192.443 85.2035L192.443 62.7338Z" fill="#C43B55"/>
<path d="M173.338 70.1061L192.442 63.0286L192.442 85.5178L173.338 92.5954L173.338 70.1061Z" fill="#053866"/>
<path d="M154.968 77.3206L173.338 70.4199L173.338 92.3469L154.968 99.2476L154.968 77.3206Z" fill="#FF8098"/>
<path d="M136.7 83.9978L154.969 77.0725L154.969 99.484L136.6 106.639L136.7 83.9978Z" fill="#911A31"/>
<path d="M136.147 148.772L136.147 145.658L150.054 140.24L150.054 107.556L136.818 112.442L135.863 109.961L152.764 103.683L152.764 142.063L136.147 148.772Z" fill="#C43B55"/>
<path d="M152.765 123.488L150.129 124.379L150.129 107.578L136.6 112.847L136.6 109.716L152.765 103.683L152.765 123.488Z" fill="#F985A0"/>
<path d="M136.6 142.859L136.6 139.751L145.724 136.012L145.724 114.031L136.6 117.593L136.6 114.485L148.356 111.074L148.356 137.856L136.6 142.859Z" fill="#C43B55"/>
<path d="M136.142 136.946L136.142 133.907L140.551 132.449L140.551 122.222L136.801 123.605L135.863 121.184L143.211 118.466L143.211 134.253L136.142 136.946Z" fill="#C43B55"/>
<path d="M143.213 126.467L140.724 127.336L140.724 122.243L136.6 123.982L136.6 120.926L143.213 118.466L143.213 126.467Z" fill="#F985A0"/>
<path d="M148.356 124.956L145.724 125.858L145.724 114.141L136.6 117.671L136.6 114.591L148.356 110.335L148.356 124.956Z" fill="#F985A0"/>
<path d="M201.26 59.1919L210.812 55.6367L210.812 66.8905L201.26 70.4201L201.26 59.1919Z" fill="#FF8098"/>
<path d="M154.968 158.442L161.692 142.12L173.338 145.755L166.614 162.077L154.968 158.442Z" fill="#C43B55"/>
<path d="M159.376 155.017L162.861 146.555L168.928 148.441L165.417 156.903L159.376 155.017Z" fill="#911A31"/>
<path d="M154.968 77.3108L173.338 70.4199L173.338 87.9466L154.968 94.8125L154.968 77.3108Z" fill="#C43B55"/>
<path d="M154.968 77.4458L173.338 70.4199L173.338 83.3771L154.968 90.3775L154.968 77.4458Z" fill="#911A31"/>
<path d="M154.968 77.3239L173.338 70.4199L173.338 78.3244L154.968 85.2034L154.968 77.3239Z" fill="#053866"/>
<path d="M154.968 77.471L173.338 70.4199L173.338 74.4564L154.968 81.5075L154.968 77.471Z" fill="#0E2951"/>
<path d="M192.442 124.865L173.338 131.771L192.442 112.553L173.338 119.46" fill="#911A31"/>
<path d="M210.811 123.49L207.872 124.38L207.872 101.642L210.811 100.726L210.811 123.49Z" fill="#FF8098"/>
<path d="M207.138 124.239L204.199 125.119L204.199 103.084L207.138 102.204L207.138 124.239Z" fill="#FF8098"/>
<path d="M196.115 128.674L193.231 129.554L193.176 107.519L196.06 106.64L196.115 128.674Z" fill="#FF8098"/>
<path d="M199.791 127.196L196.852 128.075L196.852 106.04L199.791 105.161L199.791 127.196Z" fill="#FF8098"/>
<path d="M203.464 125.718L200.525 126.597L200.525 104.562L203.464 103.683L203.464 125.718Z" fill="#FF8098"/>
<path d="M192.443 85.6287L210.813 78.5511L210.813 101.04L192.443 108.118L192.443 85.6287Z" fill="#0E2951"/>
<path d="M192.443 129.979L210.813 122.901L210.813 145.391L192.443 152.468L192.443 129.979Z" fill="#053866"/>
<path d="M192.443 85.6059L201.261 82.2469L201.261 92.9323L192.443 96.2912L192.443 85.6059Z" fill="#911A31"/>
<path d="M194.692 151.578L192.443 152.468C192.443 137.318 200.875 128.116 210.813 124.38L210.813 126.616C201.845 129.997 194.692 141.334 194.692 151.578Z" fill="#FF8098"/>
<path d="M199.546 150.09L196.852 150.99C196.852 140.172 203.293 131.641 210.813 128.815L210.813 131.513C204.243 134.005 199.546 142.15 199.546 150.09Z" fill="#D6516B"/>
<path d="M204.463 147.898L201.994 148.772C201.994 142.205 205.748 135.887 210.761 133.989L210.812 136.486C206.907 137.984 204.463 143.179 204.463 147.898Z" fill="#C43B55"/>
<path d="M208.651 146.405L206.465 147.294C206.018 143.737 208.055 140.205 210.762 139.163L210.812 141.958C209.123 142.594 208.651 144.245 208.651 146.405Z" fill="#A62E41"/>
<path fill-rule="evenodd" clip-rule="evenodd" d="M190.238 65.985L190.238 83.7592L176.955 88.8993L176.216 86.9054L188.151 82.2869L188.151 69.0725L177.629 73.1442L177.629 83.0654L185.791 79.9237L185.791 72.8588L179.988 75.0922L179.988 79.3257L183.407 78.0043L183.407 76.5742L181.675 77.2459L180.934 75.2525L185.494 73.4845L185.494 79.4772L177.901 82.4121L177.901 73.617L187.878 69.7772L187.878 81.3989L175.542 86.1471L175.542 71.6719L190.238 65.985Z" fill="#F985A0"/>
<path fill-rule="evenodd" clip-rule="evenodd" d="M138.068 102.086L150.766 80.0293L153.499 81.6261L140.801 103.683L138.068 102.086Z" fill="#0E2951"/>
<path fill-rule="evenodd" clip-rule="evenodd" d="M150.597 99.2477L138.068 86.7716L140.235 84.4644L152.764 96.9405L150.597 99.2477Z" fill="#0E2951"/>
<path d="M166.726 109.355L169.665 108.118L169.665 112.055L166.726 113.292L166.726 109.355Z" fill="#911A31"/>
<path d="M163.052 106.216L165.991 105.161L165.991 108.541L163.052 109.596L163.052 106.216Z" fill="#911A31"/>
<path d="M158.642 102.526L161.581 101.465L161.581 104.84L158.642 105.9L158.642 102.526Z" fill="#911A31"/>
<path d="M196.852 61.1497L210.813 55.6367L210.813 73.0902L196.852 78.551L196.852 61.1497Z" fill="#053866"/>
<path d="M201.26 93.1801L210.812 89.6382L210.812 100.88L201.26 104.422L201.26 93.1801Z" fill="#911A31"/>
<path opacity="0.3" d="M63.4187 55.9167L136.643 83.8752L136.643 174L63.0918 146.042L63.4187 55.9167Z" fill="black"/>
<path d="M238.002 28.2609L210.395 55.6369L136.644 27.6298L164.181 0.199219L238.002 28.2609Z" fill="#084C80"/>
<path d="M136.946 83.8827L109.085 111.813L35.1982 83.8647L63.5618 55.9816L136.946 83.8827Z" fill="#094573"/>
<path d="M136.643 27.6295L109.513 1.80498e-08L35.7178 28.1655L63.2736 56.1769L136.643 27.6295Z" fill="#084C80"/>
<path d="M238.001 83.2858L210.443 55.6362L136.6 84.0345L164.31 111.813L238.001 83.2858Z" fill="#084C80"/>
<path d="M79.2153 50.881C81.4396 50.9066 82.6276 49.6449 82.646 48.0508C82.6614 46.7117 81.6758 45.6003 80.4344 45.4106C81.5401 45.2161 82.4611 44.3339 82.4766 42.9949C82.4929 41.5761 81.3694 40.2718 79.1452 40.2462L72.998 40.1754L72.8755 50.808L79.2153 50.881ZM78.5532 44.4962L75.4359 44.4602L75.4625 42.1488L78.5799 42.1847C79.4205 42.1944 79.9402 42.6946 79.9325 43.3641C79.9248 44.0337 79.3939 44.5058 78.5532 44.4962ZM78.5899 48.9128L75.385 48.8759L75.4134 46.405L78.6184 46.442C79.5992 46.4533 80.118 47.0332 80.1102 47.7027C80.1014 48.4679 79.5357 48.9237 78.5899 48.9128Z" fill="#F5F9FF"/>
<path d="M97.1331 51.0874L92.7547 40.403L89.6373 40.3671L84.9963 50.9476L87.8335 50.9803L88.5898 49.1875L93.5986 49.2452L94.2959 51.0548L97.1331 51.0874ZM92.9386 47.2447L89.2958 47.2027L91.1699 42.6486L92.9386 47.2447Z" fill="#F5F9FF"/>
<path d="M112.485 40.6303L112.386 49.2703L108.69 49.2277L108.79 40.5877L106.285 40.5589L106.186 49.1989L102.473 49.1561L102.573 40.5161L100.086 40.4874L99.9632 51.1201L114.867 51.2918L114.99 40.6591L112.485 40.6303Z" fill="#F5F9FF"/>
<path d="M125.292 40.7778L125.17 51.4105L130.686 51.474C133.191 51.5029 134.575 49.9723 134.596 48.1391C134.617 46.3059 133.251 44.7437 130.764 44.715L127.734 44.6801L127.756 42.7991L133.798 42.8687L133.821 40.8761L125.292 40.7778ZM130.408 46.7038C131.372 46.7149 132.066 47.2491 132.056 48.1099C132.046 48.9547 131.34 49.4887 130.376 49.4776L127.679 49.4465L127.711 46.6728L130.408 46.7038Z" fill="#F5F9FF"/>
<path d="M140.249 51.5842L145.9 44.5227L145.818 51.6483L148.305 51.677L148.428 41.0444L145.871 41.0149L140.38 47.8231L140.459 40.9526L137.972 40.9239L137.85 51.5565L140.249 51.5842Z" fill="#F5F9FF"/>
<path d="M156.368 51.9612C159.153 51.9933 161.182 50.7253 161.203 48.8921C161.221 47.298 159.69 46.4353 158.518 46.3102C159.799 46.1177 161.07 45.2555 161.085 43.9165C161.105 42.147 159.227 41.0094 156.495 40.9779C154.446 40.9543 152.774 41.6524 151.817 42.614L153.044 44.047C153.875 43.3392 155.088 42.9705 156.226 42.9836C157.557 42.999 158.603 43.4255 158.594 44.2704C158.585 45.0515 157.582 45.3907 156.199 45.3748L153.835 45.3475L153.812 47.3401L156.176 47.3674C157.927 47.3876 158.746 47.7796 158.736 48.6245C158.727 49.4215 157.827 49.9692 156.286 49.9514C155.148 49.9383 153.682 49.475 152.885 48.7006L151.572 50.2C152.419 51.1664 154.214 51.9364 156.368 51.9612Z" fill="#F5F9FF"/>
<path d="M175.309 51.9881L175.431 41.3555L172.927 41.3266L172.879 45.5032L167.362 45.4396L167.41 41.2631L164.923 41.2344L164.801 51.867L167.287 51.8957L167.339 47.4322L172.856 47.4958L172.804 51.9593L175.309 51.9881Z" fill="#F5F9FF"/>
<path d="M187.628 52.13L187.651 50.1374L181.872 50.0708L181.9 47.6637L187.556 47.7289L187.579 45.7363L181.923 45.6711L181.948 43.4234L187.728 43.49L187.751 41.4974L179.485 41.4022L179.362 52.0348L187.628 52.13Z" fill="#F5F9FF"/>
<path d="M196.978 52.4291C199.553 52.4587 201.039 51.1845 201.895 49.8711L199.769 48.9059C199.269 49.777 198.21 50.4344 197.002 50.4205C194.882 50.3961 193.358 48.8958 193.382 46.8873C193.405 44.8787 194.963 43.414 197.082 43.4384C198.29 43.4523 199.333 44.1499 199.814 45.0163L201.962 44.0845C201.154 42.7519 199.68 41.4595 197.105 41.4298C193.603 41.3895 190.862 43.5899 190.825 46.8578C190.787 50.1257 193.476 52.3887 196.978 52.4291Z" fill="#F5F9FF"/>
</g>
<defs>
<filter id="filter0_f" x="-5" y="86.7531" width="158.605" height="64.1447" filterUnits="userSpaceOnUse" color-interpolation-filters="sRGB">
<feFlood flood-opacity="0" result="BackgroundImageFix"/>
<feBlend mode="normal" in="SourceGraphic" in2="BackgroundImageFix" result="shape"/>
<feGaussianBlur stdDeviation="2.5" result="effect1_foregroundBlur"/>
</filter>
<filter id="filter1_f" x="5.64746" y="-22.7676" width="261.338" height="261.966" filterUnits="userSpaceOnUse" color-interpolation-filters="sRGB">
<feFlood flood-opacity="0" result="BackgroundImageFix"/>
<feBlend mode="normal" in="SourceGraphic" in2="BackgroundImageFix" result="shape"/>
<feGaussianBlur stdDeviation="40" result="effect1_foregroundBlur"/>
</filter>
<linearGradient id="paint0_linear" x1="144.204" y1="146.81" x2="105.494" y2="63.3053" gradientUnits="userSpaceOnUse">
<stop offset="0.0960889"/>
<stop offset="0.978163" stop-color="#B4D1FA" stop-opacity="0"/>
</linearGradient>
<radialGradient id="paint1_radial" cx="0" cy="0" r="1" gradientUnits="userSpaceOnUse" gradientTransform="translate(135.734 90.635) rotate(90) scale(40.4348 40.1856)">
<stop stop-color="#0095FF"/>
<stop offset="1" stop-color="#BCE3FF"/>
</radialGradient>
<clipPath id="clip0">
<rect width="238" height="174" fill="white"/>
</clipPath>
</defs>
</svg>
