<?xml version="1.0" encoding="utf-8"?>
<!-- Generator: Adobe Illustrator 23.0.3, SVG Export Plug-In . SVG Version: 6.00 Build 0)  -->
<svg version="1.1" id="Слой_1" xmlns="http://www.w3.org/2000/svg" xmlns:xlink="http://www.w3.org/1999/xlink" x="0px" y="0px"
	 viewBox="0 0 168 179" style="enable-background:new 0 0 168 179;" xml:space="preserve">
<style type="text/css">
	.st0{fill:#5A1923;}
	.st1{fill:#561822;}
	.st2{fill:#671D28;}
	.st3{fill:#6E1E2B;}
	.st4{fill:#6A1D2A;}
	.st5{fill:#6F1F2C;}
	.st6{fill:#531721;}
	.st7{fill:#5D1A24;}
	.st8{fill:#601B26;}
	.st9{fill:#641C27;}
	.st10{fill:#72202D;}
	.st11{fill:#6B1E2A;}
	.st12{fill:#74202D;}
	.st13{fill:#681D29;}
	.st14{fill:#5B1924;}
	.st15{fill:#591923;}
	.st16{fill:#B4D1FA;stroke:#000000;stroke-width:0.4;stroke-miterlimit:10;}
	.st17{fill:#75202E;}
	.st18{fill:#A62E41;stroke:#000000;stroke-width:0.4;}
</style>
<path class="st0" d="M147.5,126l-6.6-5.1c1-1.8,2.3-4.6,3.2-6.6l7.4,4.4C150.7,120.7,148.4,124.2,147.5,126z"/>
<path class="st1" d="M117.3,164.9l-6.8-3.7c-0.3-0.2-0.6-0.4-0.8-0.6l6.8,3.7C116.8,164.6,117,164.8,117.3,164.9z"/>
<path class="st2" d="M120.3,156.1l-6.7-4.3c1.7-1.2,3.4-2.4,4.9-3.7l9.2,2.1C126.2,151.5,122.1,154.9,120.3,156.1z"/>
<path class="st3" d="M163.7,69.8l-6.8-3.7c0.2,0,0.4,0,0.6,0.1l6.8,3.7C164,69.9,163.9,69.8,163.7,69.8z"/>
<path class="st4" d="M164.2,69.9l-6.8-3.7c0.2,0.1,0.4,0.1,0.6,0.2l6.8,3.7C164.7,70,164.4,70,164.2,69.9z"/>
<path class="st2" d="M164.9,70.1l-7.6-4c0,0,0.9,0.3,0.9,0.4L164.9,70.1C164.9,70.2,164.9,70.2,164.9,70.1z"/>
<path class="st1" d="M160.4,85.9l-8.2-5.2c0.1-1,0.1-2.1,0.1-3.1s0-2-0.1-3.1l9.5,2.2c0,1,0.8,3.7,0.8,4.8
	C162.5,82.5,160.5,84.8,160.4,85.9z"/>
<path class="st5" d="M134.7,121.7l-6.9-3.8l13.2,2.8l6.9,3.7L134.7,121.7z"/>
<path class="st6" d="M151.5,119.1l-7.6-4.1l-10.6-8.9l7.3,4L151.5,119.1z"/>
<path class="st6" d="M125.4,151.8l-6.9-3.7l-4.2-13.7l9.2,1L125.4,151.8z"/>
<path class="st1" d="M123.8,141.2l-9.5-6.7c-0.3-1-0.3-2.5,0.8-4.3l7.6,3.6C122.4,134.7,123.5,140.2,123.8,141.2z"/>
<path class="st0" d="M121.3,135.1l-6.8-3.7c0.1-0.2,0.2-0.5,0.3-0.7l6.8,3.7C121.4,134.7,121.3,134.9,121.3,135.1z"/>
<path class="st7" d="M121.6,134.5l-6.8-3.7c0.1-0.2,0.2-0.4,0.3-0.5l6.8,3.7C121.8,134.1,121.7,134.3,121.6,134.5z"/>
<path class="st8" d="M121.9,133.9l-6.8-3.7c0.1-0.2,0.2-0.3,0.4-0.5l6.8,3.7C122.1,133.6,122,133.8,121.9,133.9z"/>
<path class="st9" d="M122.2,133.5l-6.8-3.7c0.1-0.1,0.1-0.1,0.2-0.2c0.8-0.9,1.7-1.7,2.5-2.7l8.6,1.8c-0.8,0.9-3.4,3.7-4.3,4.6
	C122.4,133.4,122.3,133.4,122.2,133.5z"/>
<path class="st8" d="M124.6,133.1l-6.5-6.2c1.8-2,3.5-4.2,5.1-6.4l9.2,3.7C130.8,126.4,126.4,131.1,124.6,133.1z"/>
<path class="st7" d="M130,124.2l-6.8-3.7c0.1-0.2,0.3-0.4,0.4-0.6l6.8,3.7C130.2,123.8,130.1,124,130,124.2z"/>
<path class="st8" d="M130.3,124.2l-7.5-3.2c0.1-0.2,0.8-1.3,1.1-1.6l6.8,3.7C130.6,123.3,130.4,124,130.3,124.2z"/>
<path class="st8" d="M127.9,127.8l-4-8.3c0.5-0.7,1.3-1.1,1.8-1.3l6,4.3C131.7,122.8,128.1,127.7,127.9,127.8z"/>
<path class="st2" d="M131.2,122.7l-6.8-3.7c0.2-0.1,0.3-0.3,0.5-0.4l6.8,3.7C131.5,122.5,131.3,122.6,131.2,122.7z"/>
<path class="st4" d="M131.6,122.3l-7-3.5c0.4-0.4,0.9-0.5,1.1-0.6l6.5,3.7C132.1,122.1,131.8,122.2,131.6,122.3z"/>
<path class="st3" d="M132.1,124l-6.6-5.7c0.4-0.2,0.8-0.3,1.2-0.4s0.8,0,1.2,0l7.1,3.8c-0.4-0.1-0.2,1.5-0.6,1.6
	S132.5,123.8,132.1,124z"/>
<path class="st1" d="M145.4,89.5l-6.9-3.8l13.7-5.1l6.8,3.8L145.4,89.5z"/>
<path class="st1" d="M140.4,110.1l-6.8-3.7c-1.2-1-1.6-2.8-1-4.6c1.3-3.9,2.3-8,2.9-12c0.1-0.3,0.1-0.7,0.3-1l7.7,2.9
	c-0.1,0.3-1.1,1.5-1.2,1.8c-0.6,4.1-1.6,8.1-2.9,12C138.8,107.2,139.2,109,140.4,110.1z"/>
<path class="st0" d="M142.5,92.4l-6.9-3.3c0.1-0.5,0.3-0.9,0.4-1.1l6.8,3.7C142.7,92,142.6,92.2,142.5,92.4z"/>
<path class="st7" d="M142.8,91.8L136,88c0.1-0.2,0.2-0.4,0.3-0.5l6.8,3.7C143,91.4,142.9,91.6,142.8,91.8z"/>
<path class="st8" d="M143.1,91.4l-6.8-3.9c0.1-0.2,0.3-0.4,0.5-0.6l6.8,3.7C143.4,90.9,143.2,91.3,143.1,91.4z"/>
<path class="st9" d="M143.5,90.8l-6.8-3.7c0.1-0.1,0.3-0.3,0.4-0.4l6.8,3.7C143.8,90.5,143.6,90.6,143.5,90.8z"/>
<path class="st2" d="M143.9,90.4l-6.8-3.7c0.2-0.1,0.3-0.3,0.5-0.4l6.8,3.7C144.2,90.1,144.1,90.2,143.9,90.4z"/>
<path class="st4" d="M144.4,90l-6.8-3.7c0.2-0.1,0.4-0.3,0.6-0.4l6.8,3.7C144.8,89.7,144.6,89.8,144.4,90z"/>
<path class="st1" d="M142.7,93.2l-7.3-3c0.2-3.3,2.5-4.2,3.4-4.7l6.6,3.9C145.3,89.5,142.8,93.2,142.7,93.2z"/>
<path class="st6" d="M116.5,164.3l-6.8-3.7l-9.6-10.1l7,3.4L116.5,164.3z"/>
<path class="st10" d="M149.7,69l-6.8-4.2l14.4,1.3l7.3,3.9L149.7,69z"/>
<path class="st3" d="M84,169.6l-6.8-3.7c0.9-0.1,1.9-0.2,2.8-0.3s2.1-0.4,3-0.6l11.5,5.4c-0.9,0.2-9.1,4.7-10,4.8S85,169.5,84,169.6
	z"/>
<path class="st9" d="M89.7,168.8l-6.8-3.8l2.9-14.9l6.9,3.5L89.7,168.8z"/>
<path class="st1" d="M92.7,153.6l-6.8-3.7c0.1-0.3,0.1-0.5,0.2-0.8l6.8,3.7C92.8,153.1,92.7,153.4,92.7,153.6z"/>
<path class="st0" d="M92.9,152.9l-6.8-3.7c0.1-0.2,0.2-0.5,0.3-0.7l6.8,3.7C93.1,152.4,93,152.6,92.9,152.9z"/>
<path class="st7" d="M93.2,152.2l-6.8-3.7c0.1-0.2,0.2-0.4,0.3-0.5l6.8,3.7C93.4,151.8,93.3,152,93.2,152.2z"/>
<path class="st8" d="M93.5,151.7l-6.8-3.7c0.1-0.2,0.2-0.3,0.4-0.5l6.8,3.7C93.8,151.4,93.6,151.5,93.5,151.7z"/>
<path class="st9" d="M93.9,151.2l-6.8-3.7c0.1-0.1,0.3-0.3,0.4-0.4l6.8,3.7C94.2,150.9,94,151.1,93.9,151.2z"/>
<path class="st2" d="M92.1,157.9l-6.3-7.8c0.5-2.6,2.4-3.6,2.8-3.8l6.5,4.1C94.9,150.5,92.3,157.8,92.1,157.9z"/>
<path class="st4" d="M94.8,150.4l-6.8-3.7c0.2-0.1,0.4-0.3,0.6-0.4l7.2,3.8C95.6,150.2,95,150.3,94.8,150.4z"/>
<path class="st2" d="M93,153.8l-4.4-7.5c0.2-0.1,0.3-0.2,0.5-0.2c2.5-0.8,5.4-1.9,7.8-3l6.7,3.9c-2.4,1.1-4.9,2.1-7.4,2.9
	C96.1,150,93.2,153.8,93,153.8z"/>
<path class="st4" d="M103.3,147.1l-6.7-3.9c1.1-0.5,2.3-1.1,3.4-1.7c0.1,0,0.2-0.1,0.2-0.1l7.1,3.7c-0.1,0-0.6,0.3-0.6,0.3
	C105.5,146,104.4,146.6,103.3,147.1z"/>
<path class="st4" d="M107,145.3l-6.8-3.9c0.4-0.2,0.8-0.3,1.2-0.4c0.5-0.1,1,0,1.4,0.1l7.1,3.9c-0.4-0.1-0.9-0.2-1.4-0.2
	C108,144.9,107.4,145.1,107,145.3z"/>
<path class="st4" d="M109.6,144.8l-6.8-3.7c0.2,0.1,0.4,0.1,0.6,0.2l7,3.9C110.2,145.1,109.8,144.9,109.6,144.8z"/>
<path class="st2" d="M107.1,145.6l-3.7-4.3c0,0,0.1,0,0.1,0.1l6.9,3.8C110.4,145.2,107.1,145.7,107.1,145.6z"/>
<path class="st1" d="M78.6,178.1l-6.8-3.7c-0.9-0.5-1.5-1.4-1.8-2.5l7,3.4C77.3,176.4,77.7,177.6,78.6,178.1z"/>
<path class="st11" d="M140.5,57.8l-6.8-3.8L144,42.5l9.8,1.6L140.5,57.8z"/>
<path class="st1" d="M144.1,76.6l-6.8-3.7c-0.9-0.5-1.6-1.5-1.8-2.7c-0.6-3.9-1.6-7.7-2.9-11.2c-0.4-1-0.3-2.1,0.1-3.2l6.8,3.7
	c-0.4,1.1-0.4,2.2-0.1,3.2c1.3,3.5,2.3,7.3,2.9,11.2C142.5,75.1,143.2,76.1,144.1,76.6z"/>
<path class="st0" d="M139.1,61.5l-6.4-5.7c0.1-0.2,0.2-0.5,0.3-0.7l8.9,2.8C141.8,58.1,139.2,61.2,139.1,61.5z"/>
<path class="st7" d="M139.8,58.8l-6.8-3.7c0.1-0.2,0.2-0.4,0.3-0.5l6.8,3.7C140,58.4,139.9,58.6,139.8,58.8z"/>
<path class="st8" d="M139.8,59.1l-6.9-3.9c0.1-0.2,0.6-1,0.8-1.2l7.5,3.5C141.1,57.7,139.9,59,139.8,59.1z"/>
<path class="st9" d="M140.5,57.8l-6.8-3.7L140.5,57.8z"/>
<path class="st1" d="M152,46.9l-8-4.4c-0.9-1.7-1.8-3.4-2.8-4.9l6.8,3.7C149,42.9,151.1,45.2,152,46.9z"/>
<path class="st4" d="M148.5,32l-6.8-3.7c0,0,0,0,0.1,0L148.5,32z"/>
<path class="st3" d="M148.7,32.4l-7-4.1c0.4-0.2,0.8-0.3,1.2-0.4c0.5-0.1,0.9,0,1.4,0.1l7.3,3.9c-0.4-0.1-1.1,0-1.6,0
	C149.5,32,149.1,32.2,148.7,32.4z"/>
<path class="st4" d="M151.1,31.7l-6.8-3.7c0.2,0.1,0.4,0.1,0.6,0.2l7.2,3.9C151.9,32.1,151.3,31.8,151.1,31.7z"/>
<path class="st2" d="M151.7,32l-6.8-3.7c0,0,0.1,0,0.1,0.1l6.8,3.7C151.8,32,151.8,32,151.7,32z"/>
<path class="st6" d="M76.8,175.6l-6.8-3.7l-3-14.7l6.8,3.7L76.8,175.6z"/>
<path class="st12" d="M135.2,39.2l-7.1-4.3l13.8-6.7l7.2,4L135.2,39.2z"/>
<path class="st8" d="M62.7,152.5l-6.8-3.7c0.1-0.1,0.2-0.2,0.3-0.3l6.8,3.7C62.9,152.3,62.8,152.4,62.7,152.5z"/>
<path class="st9" d="M63,152.2l-6.8-3.7c0.1-0.1,0.3-0.3,0.4-0.4l6.8,3.7C63.2,151.9,63.1,152.1,63,152.2z"/>
<path class="st2" d="M63.4,151.8l-6.8-3.7c0.2-0.1,0.3-0.3,0.5-0.4l6.8,3.7C63.7,151.5,63.5,151.7,63.4,151.8z"/>
<path class="st4" d="M62.5,153.1l-7.1-3.7c0.8-1.3,2.2-2.1,2.7-2.3l7.1,3.9C65.1,151.2,62.8,153,62.5,153.1z"/>
<path class="st3" d="M64.5,151l-6.8-3.7c0.4-0.2,0.8-0.3,1.2-0.4c0.5-0.1,0.9,0,1.4,0.1l7.2,3.9c-0.5-0.1-1.3-0.2-1.8-0.2
	C65.3,150.8,64.9,150.9,64.5,151z"/>
<path class="st4" d="M67,150.8l-6.8-3.7c0.1,0,0.2,0.1,0.3,0.1l6.8,3.7C67.3,150.8,67.2,150.8,67,150.8
	C67.1,150.8,67.1,150.8,67,150.8z"/>
<path class="st3" d="M67.4,150.9l-7.3-3.9c3.5,0.6,7.4,1.6,11,1.7c0.3,0,0.5,0,0.7,0.1l7.1,3.9c-0.2-0.1-0.8-0.1-1-0.1
	C74.3,152.4,70.8,151.7,67.4,150.9z"/>
<path class="st4" d="M78.6,152.9l-7.6-4.3c0.2,0.1,1.1,0.1,1.4,0.3l7.4,4.1C79.6,153,78.8,152.9,78.6,152.9z"/>
<path class="st2" d="M78.4,152.6l-6-3.6c0,0,0.1,0,0.1,0.1l7.3,4C79.8,153.1,78.5,152.6,78.4,152.6z"/>
<path class="st13" d="M51.8,170l-5.3-8.8l9.4-12.4l6.8,3.7L51.8,170z"/>
<path class="st1" d="M131.5,47.8l-6.8-3.7c-0.4-0.2-0.7-0.5-1-0.8c-2.4-2.8-5-5.3-7.9-7.4c-1.3-1-1.8-2.7-1.3-4.5l8.8,0.9
	c-0.5,1.8-2,6.3-0.7,7.3c2.9,2.1,5.5,4.6,7.9,7.4C130.8,47.3,131.1,47.6,131.5,47.8z"/>
<path class="st2" d="M48.4,162.6l-6.8-3.7c0.5,0.3,1.1,0.6,1.6,0.8l6.8,3.7C49.5,163.2,49,162.9,48.4,162.6z"/>
<path class="st4" d="M50,163.4l-6.8-3.7c1.1,0.5,2.2,1,3.3,1.5l6.8,3.7C52.2,164.5,51.1,164,50,163.4z"/>
<path class="st2" d="M67,128.4l-6.8-3.7c0.4,0.2,0.8,0.4,1.1,0.6l6.8,3.7C67.7,128.8,67.3,128.6,67,128.4z"/>
<path class="st4" d="M68.1,129l-6.8-3.7c1.9,0.9,3.9,1.7,5.9,2.2l6.8,3.7C72,130.7,70,129.9,68.1,129z"/>
<path class="st3" d="M74,131.2l-6.8-3.7c4,1,8.4,1.3,12.9,0.7l14.3,3.2C85.9,135.6,78.1,132.2,74,131.2z"/>
<path class="st3" d="M86.3,135.2l-6.2-7c3.8-0.5,7.5-1.7,10.9-3.3l14.1,1.3C101.7,127.8,90.1,134.6,86.3,135.2z"/>
<path class="st4" d="M96,131l-4.9-6.1c2.1-1,4.1-2.2,6.1-3.5l10.6,2C105.8,124.7,98.1,130,96,131z"/>
<path class="st2" d="M103.9,125.1l-6.8-3.7c1.6-1.1,3.1-2.3,4.5-3.6l11.5,0.7C111.7,119.8,105.5,124,103.9,125.1z"/>
<path class="st9" d="M108.5,121.5l-6.8-3.7c1.3-1.2,2.6-2.5,3.8-3.9l13.6,1.1C117.9,116.4,109.8,120.3,108.5,121.5z"/>
<path class="st8" d="M112.3,117.6l-6.8-3.7c1.2-1.4,2.3-2.8,3.4-4.3l6.8,3.7C114.6,114.8,113.5,116.3,112.3,117.6z"/>
<path class="st7" d="M115.4,118l-6.5-8.4c1.1-1.6,2.1-3.2,3.1-5l6.8,3.7C117.8,110.1,116.5,116.4,115.4,118z"/>
<path class="st0" d="M119.6,110l-7.6-5.3c1.1-2,2-4.1,2.8-6.3l8.9,1.7C122.9,102.2,120.6,107.9,119.6,110z"/>
<path class="st1" d="M121.6,102.1l-6.8-3.7c1.8-5,2.9-10.4,2.9-15.9c0-14.4-6.9-26-17.4-31.7l6.8,3.7c10.5,5.7,17.4,17.4,17.4,31.7
	C124.5,91.7,123.4,97,121.6,102.1z"/>
<path class="st14" d="M121.3,35.1l-6.8-3.7l4.3-14.9l7.1,3.5L121.3,35.1z"/>
<path class="st1" d="M43.8,170.3l-6.8-3.7c-0.8-0.4-1.6-0.9-2.4-1.4c-1.5-0.9-2.2-2.7-1.6-4.6l10.2,0.1c-0.5,1.9-3.2,7.3-1.8,8.2
	C42.2,169.4,43,169.9,43.8,170.3z"/>
<path class="st14" d="M39.9,164.3l-6.9-3.7l4.5-15.5l6.8,3.9L39.9,164.3z"/>
<path class="st8" d="M116.8,10.2L110,6.5c0.1-0.1,0.2-0.2,0.3-0.3l6.8,3.7C117,10,116.9,10.1,116.8,10.2z"/>
<path class="st9" d="M117.1,9.9l-6.8-3.7c0.1-0.1,0.3-0.3,0.4-0.4l6.8,3.7C117.3,9.6,117.2,9.7,117.1,9.9z"/>
<path class="st2" d="M117.5,9.5l-6.8-3.7c0.2-0.1,0.3-0.3,0.5-0.4l6.8,3.7C117.8,9.2,117.6,9.3,117.5,9.5z"/>
<path class="st4" d="M117.4,11.1l-7.7-4.2c0.4-0.6,1.8-1.7,2-1.8l8,3.9C119.6,9,117.7,10.9,117.4,11.1z"/>
<path class="st3" d="M118.6,9.2l-7.2-4c0.6-0.4,1.2-0.5,1.6-0.6c0.5-0.1,0.9,0,1.4,0.1l6.8,3.7c-0.5-0.1-0.6,0.3-1.1,0.3
	C119.7,8.8,119,9,118.6,9.2z"/>
<path class="st4" d="M120.9,8.9l-6.5-4.2c0.1,0,0.2,0.1,0.3,0.1c2.3,0.9,4.4,1.8,6.5,2.8l6.8,3.7c-2.1-1-4.2-1.9-6.5-2.8
	C121.4,8.5,121,9,120.9,8.9z"/>
<path class="st2" d="M128,11.3l-6.8-3.7c0.8,0.4,1.5,0.8,2.3,1.2l6.8,3.7C129.5,12.1,128.8,11.7,128,11.3z"/>
<path class="st13" d="M107.5,25l-7.1-5.8L110,6.5l7.5,4.2L107.5,25z"/>
<path class="st1" d="M44.3,149l-6.8-3.7c-1.8-1.5-3.5-3.1-5.2-4.9l7,3.2C40.9,145.4,43.3,147.3,44.3,149z"/>
<path class="st4" d="M39.2,135.1l-6.8-3.7c0,0,0,0,0.1,0L39.2,135.1C39.2,135.1,39.3,135,39.2,135.1z"/>
<path class="st3" d="M39.3,135l-6.8-3.7c0.4-0.2,0.8-0.3,1.2-0.4c0.5-0.1,0.9,0,1.4,0.1l6.8,3.7c-0.4-0.1-0.9-0.1-1.4-0.1
	C40,134.7,39.7,134.9,39.3,135z"/>
<path class="st4" d="M41.8,134.8L35,131c0.2,0.1,0.4,0.1,0.6,0.2l6.8,3.7C42.3,134.9,42.1,134.8,41.8,134.8z"/>
<path class="st2" d="M42.5,135l-6.8-3.7c0,0,0.1,0,0.1,0.1l6.8,3.7C42.5,135,42.5,135,42.5,135z"/>
<path class="st3" d="M100.1,22.5l-6.7-4.3c2.4,0.2,4.7,0.5,7,1l7.6,4.1C105.7,22.9,102.5,22.7,100.1,22.5z"/>
<path class="st3" d="M87.1,42.1l-6.8-3.7c5.5-0.8,10.9-0.5,15.8,0.8l6.8,3.7C98,41.6,92.7,41.3,87.1,42.1z"/>
<path class="st4" d="M98,45.4l-1.9-6.2c2.5,0.7,4.9,1.5,7.2,2.7l6.8,3.7C107.8,44.4,100.5,46,98,45.4z"/>
<path class="st2" d="M110.1,45.5l-6.8-3.7c0.5,0.2,0.9,0.5,1.4,0.7l6.8,3.7C111.1,46,110.6,45.8,110.1,45.5z"/>
<path class="st1" d="M94.7,30.1l-6.8-3.7c-0.9-0.5-1.5-1.4-1.8-2.5l7.8,1.6C94.1,26.6,93.8,29.6,94.7,30.1z"/>
<path class="st12" d="M26,141.5l-6.8-5.1l14.1-5.4l8.5,3.7L26,141.5z"/>
<path class="st6" d="M92.9,27.6l-6.8-3.7L83.2,9.6l6.8,3.7L92.9,27.6z"/>
<path class="st11" d="M15.6,133.5l-6.9-3.8l11-12.2l7,3.5L15.6,133.5z"/>
<path class="st1" d="M22.2,150.8l-6.8-3.7c-0.4-0.2-0.8-0.6-1.1-1c-2.3-3.3-4.4-7-6.4-11.1c-0.5-1.1-0.9-2.5,0.4-4.8l6.3,5
	c-0.4,1.2-0.4,2.4,0.1,3.5c1.9,4.1,4.1,7.9,6.4,11.1C21.3,150.2,21.7,150.6,22.2,150.8z"/>
<path class="st0" d="M14.7,136.8l-7.3-4c0.1-1.2,0.6-2,0.7-2.2l6.8,3.7C14.8,134.7,14.8,136.6,14.7,136.8z"/>
<path class="st7" d="M14.9,134.5l-6.8-3.7c0.2-1,1.7-2.2,1.8-2.3l7.1,4.2C16.9,132.8,15,134.3,14.9,134.5z"/>
<path class="st8" d="M15.2,133.9l-6.8-3.7c0.1-0.2,0.2-0.3,0.4-0.5l6.8,3.7C15.4,133.6,15.3,133.8,15.2,133.9z"/>
<path class="st9" d="M15.6,133.5l-6.8-3.7L15.6,133.5z"/>
<path class="st1" d="M26.2,121.6l-6.8-3.7c-0.7-2.4-1.4-4.8-1.9-7.3l6.8,3.7C24.8,116.8,25.4,119.3,26.2,121.6z"/>
<path class="st3" d="M28.6,105.9l-6.8-3.7c0.2,0,0.4,0,0.5,0.1l6.8,3.7C29,105.9,28.8,105.9,28.6,105.9z"/>
<path class="st4" d="M29.2,106l-6.8-3.7c0.2,0.1,0.4,0.1,0.6,0.2l6.8,3.7C29.6,106.1,29.4,106,29.2,106z"/>
<path class="st2" d="M29.8,106.2l-6.8-3.7c0,0,0.1,0,0.1,0.1l6.8,3.7C29.9,106.2,29.8,106.2,29.8,106.2z"/>
<path class="st1" d="M63.7,37.7L56.9,34c-0.3-0.2-0.6-0.4-0.8-0.6l6.8,3.7C63.1,37.4,63.4,37.6,63.7,37.7z"/>
<path class="st4" d="M67.1,28.6l-6.8-3.7c0.4-0.2,0.9-0.4,1.3-0.6l6.8,3.7C67.9,28.2,67.5,28.4,67.1,28.6z"/>
<path class="st3" d="M67,30.6l-5.4-6.3c1.9-0.9,3.8-1.7,5.7-2.4l9.6,4.1C75,26.7,68.8,29.7,67,30.6z"/>
<path class="st15" d="M75.6,26.5l-8.4-4.6l3.1-15.5l10.8,2.2L75.6,26.5z"/>
<path class="st1" d="M77.1,10.1l-6.8-3.7c0.1-0.3,0.1-0.5,0.2-0.8l6.8,3.7C77.3,9.6,77.2,9.8,77.1,10.1z"/>
<path class="st0" d="M77.3,9.3l-6.8-3.7c0.1-0.2,0.2-0.5,0.3-0.7l6.8,3.7C77.5,8.8,77.4,9.1,77.3,9.3z"/>
<path class="st7" d="M77.6,8.6l-6.8-3.7c0.1-0.2,0.2-0.4,0.3-0.5l6.8,3.7C77.9,8.3,77.7,8.4,77.6,8.6z"/>
<path class="st15" d="M77.6,12.7L71,4.5c0.1-0.2,0.5-0.6,0.7-0.8l8.6,3C80.1,6.9,77.7,12.5,77.6,12.7z"/>
<path class="st9" d="M78.3,7.6l-6.8-3.7c0.1-0.1,0.3-0.3,0.4-0.4l6.8,3.7C78.6,7.4,78.5,7.5,78.3,7.6z"/>
<path class="st15" d="M77.6,12.7L70,7.1c0.4-3,2.1-3.9,2.3-4l8.4,3.6C80.7,6.9,77.8,12.6,77.6,12.7z"/>
<path class="st4" d="M79.8,7.6l-7.4-4.5c0.2-0.1,0.8-0.4,1.1-0.5l8,4.2C81.3,7,80,7.5,79.8,7.6z"/>
<path class="st3" d="M80.7,7.5L73,2.8c0.3-0.1,0.6-0.2,0.9-0.3C76,2,78.2,1.6,80.4,1.3c2.1-0.3,4.3-0.5,6.4-0.6c0.4,0,0.7,0,1.1,0.1
	l6.8,3.7c-0.3-0.1-0.3,1.1-0.7,1.1c-2.1,0.1-3.9,0.3-6,0.6c-2.2,0.3-4,0.5-6.2,1C81.5,7.1,81,7.3,80.7,7.5z"/>
<path class="st4" d="M94.3,4.8l-6.4-4c0.2,0.1,0.4,0.1,0.6,0.2l6.8,3.7C95.1,4.6,94.5,4.8,94.3,4.8z"/>
<path class="st2" d="M95.3,4.7L88.5,1c0,0,0.1,0,0.1,0.1l6.8,3.7C95.4,4.7,95.4,4.7,95.3,4.7z"/>
<path class="st1" d="M62.5,136.6l-6.8-3.7c-12.8-7-21.3-21.2-21.3-38.8c0-6.7,1.3-13.3,3.5-19.4l11.5,2.7
	c-2.3,6.1-8.2,13.7-8.2,20.4C41.2,115.4,49.7,129.7,62.5,136.6z"/>
<path class="st0" d="M44.8,78.5l-6.9-3.8c1-2.7,2.2-5.2,3.6-7.7L52,68.4C50.6,70.9,45.7,75.8,44.8,78.5z"/>
<path class="st7" d="M48.2,70.8l-6.8-3.7c1.1-2.1,2.4-4.1,3.7-6.1l13.3-0.6C57.1,62.4,49.4,68.7,48.2,70.8z"/>
<path class="st8" d="M52,64.7L45.1,61c1.3-1.8,2.7-3.6,4.1-5.2l11.7,0.9C59.5,58.3,53.3,62.9,52,64.7z"/>
<path class="st9" d="M56.1,59.5l-6.8-3.7c1.5-1.7,3-3.3,4.7-4.7l16.7-2.9C68.9,49.6,57.6,57.8,56.1,59.5z"/>
<path class="st2" d="M60.8,54.7L54,51c1.8-1.6,3.6-3.1,5.5-4.4l6.8,3.7C64.4,51.7,62.6,53.2,60.8,54.7z"/>
<path class="st4" d="M66.3,50.4l-6.8-3.7c2.4-1.6,4.9-3.1,7.4-4.3l18.6-0.2C83,43.4,68.7,48.7,66.3,50.4z"/>
<path class="st3" d="M73.8,46.1L67,42.4c4.2-2,8.7-3.4,13.3-4l13.1,3.5C88.8,42.5,78,44.1,73.8,46.1z"/>
<path class="st16" d="M87.1,42.1c25.2-3.5,45.7,15.7,45.7,43c-0.1,27.2-20.6,52.3-45.9,55.8c-25.2,3.5-45.7-15.7-45.7-43
	C41.3,70.7,61.9,45.6,87.1,42.1z M86.9,131.9c20.7-2.9,37.5-23.4,37.5-45.7S107.7,48.1,87.1,51c-20.6,2.9-37.5,23.4-37.5,45.7
	C49.5,119,66.3,134.8,86.9,131.9z"/>
<path class="st10" d="M13.5,106.2l-5.3-5.7l14.7,1.8l7.1,4L13.5,106.2z"/>
<path class="st1" d="M25.3,87.4l-7.7-5c0.5-2.6,1.1-5.3,1.9-7.8l8.7,3.2C27.4,80.4,25.8,84.8,25.3,87.4z"/>
<path class="st6" d="M62.9,37.1l-6.8-3.7l-9.3-9.8l6.8,3.7L62.9,37.1z"/>
<path class="st8" d="M40,53.6l-7.5-5.2c1.4-1.9,2.9-3.7,4.4-5.4l8.4,4.5C43.7,49.2,41.4,51.7,40,53.6z"/>
<path class="st9" d="M44.8,49l-8.3-5.6c0.3-0.3,0.9-1.1,1.2-1.4l7.7,4.1C45.1,46.5,45,48.8,44.8,49z"/>
<path class="st17" d="M11.6,92.1l-8-4.5l14.1-5.2l8.5,4.7L11.6,92.1z"/>
<path class="st1" d="M9.1,112.6l-6.8-3.7c-1-0.6-1.7-1.7-1.8-3c-0.2-2.3-0.3-4.6-0.3-6.9s0.2-4.7,0.3-7c0-0.5,0.1-0.9,0.3-1.4
	l6.8,3.7c-0.2,0.4-0.3,0.9-0.3,1.4c-0.2,2.3-0.3,4.7-0.3,7c0,2.4,0.8,4.4,1,6.7C8,110.8,8,112.1,9.1,112.6z"/>
<path class="st0" d="M7.5,94.3l-6.8-3.7c0.1-0.2,0.2-0.5,0.3-0.7l6.8,3.7C7.7,93.9,7.6,94.1,7.5,94.3z"/>
<path class="st7" d="M7.8,93.6L1,89.9c0.1-0.2,0.2-0.4,0.3-0.5l6.8,3.7C8.1,93.3,7.9,93.5,7.8,93.6z"/>
<path class="st1" d="M8.1,108.8L0.4,95.3c-0.5-7.2,2.5-7.3,4.3-8.1l4,5.4C8.4,92.8,8.2,108.7,8.1,108.8z"/>
<path class="st9" d="M8.5,92.7L1.7,89c0.1-0.1,0.3-0.3,0.4-0.4l6.8,3.7C8.8,92.4,8.7,92.5,8.5,92.7z"/>
<path class="st2" d="M8.8,93.1l-6.7-4.5c0.2-0.1,0.3-0.3,0.5-0.4l7.9,3.7C10.4,92,9,92.9,8.8,93.1z"/>
<path class="st4" d="M9.4,91.9l-6.8-3.7c0.2-0.1,0.4-0.3,0.6-0.4l6.8,3.7C9.8,91.6,9.6,91.7,9.4,91.9z"/>
<path class="st3" d="M10.1,92.4l-6.8-4.6c0.1-0.1,1.2-0.6,1.3-0.6l8.8,4.2C13.3,91.4,10.2,92.3,10.1,92.4z"/>
<path class="st6" d="M45.3,46.5l-7.7-4.4L33.3,28l7.8,3.6L45.3,46.5z"/>
<path class="st1" d="M40.1,31.7L33.3,28c-0.3-1-0.2-2,0.1-3l6.8,3.7C39.9,29.7,39.8,30.8,40.1,31.7z"/>
<path class="st0" d="M40.2,28.7L33.4,25c0.1-0.2,0.2-0.5,0.3-0.7l6.8,3.7C40.4,28.3,40.3,28.5,40.2,28.7z"/>
<path class="st7" d="M40.5,28.1l-6.8-3.7c0.1-0.2,0.2-0.4,0.3-0.5l6.8,3.7C40.7,27.7,40.6,27.9,40.5,28.1z"/>
<path class="st6" d="M41.2,32.5L33.3,28c-0.7-2.7,0.9-4.5,1.1-4.7l6.8,3.7C41.1,27.2,41.3,32.4,41.2,32.5z"/>
<path class="st9" d="M41.7,30.1l-7.3-6.7c0.1-0.1,0.3-0.3,0.4-0.4l8.2,4.1C42.9,27.2,41.8,29.9,41.7,30.1z"/>
<path class="st2" d="M43.5,27.9L34.8,23c2.7-2.4,5.7-4.7,8.9-6.9l6.8,3.7C49.8,24.9,46.3,25.5,43.5,27.9z"/>
<path class="st4" d="M48.9,23.9l-5.8-7.4c0.8-0.5,2.1-1.5,2.9-2c0.2-0.1,0.6-0.3,1-0.5l9.5,3.8c-0.2,0.1-2,1.7-2.1,1.8
	C53.7,20.1,49.7,23.4,48.9,23.9z"/>
<path class="st3" d="M53.4,17.9l-6.9-3.7c0.4-0.2,0.9-0.3,1.3-0.4c0.5-0.1,0.9,0,1.4,0.1l6.8,3.7c-0.4-0.1-0.9-0.1-1.4-0.1
	C54.2,17.6,53.8,17.7,53.4,17.9z"/>
<path class="st4" d="M55.9,17.6l-6.8-3.7c0.2,0.1,0.4,0.1,0.6,0.2l6.8,3.7C56.4,17.7,56.2,17.6,55.9,17.6z"/>
<path class="st2" d="M56.6,17.8l-7.5-3.9c0,0,0.8,0.2,0.8,0.3l6.8,3.7C56.6,17.9,56.6,17.8,56.6,17.8z"/>
<path class="st6" d="M28.2,79.1l-8.8-4.5L8.9,65.7l6.8,3.7L28.2,79.1z"/>
<path class="st5" d="M25.5,50.6l-6.6-5l13.5,2.8l8.1,4.4L25.5,50.6z"/>
<path class="st1" d="M21.3,73.9L8.9,65.7c-1.3-1.1-1.6-2.9-1-4.7l8.4,3.6C15.7,66.4,20.1,72.9,21.3,73.9z"/>
<path class="st0" d="M14.7,64.7L7.9,61c0-0.1,0.1-0.1,0.1-0.2c1.4-3.4,3-6.7,4.6-9.8l8.8,4c-1.6,3.1-3.8,6.8-5.2,10.3
	C16.2,65.5,14.7,64.7,14.7,64.7z"/>
<path class="st7" d="M20.7,56.8L12.6,51c0.6-1.1,1.2-2.1,1.8-3.2c0.1-0.1,0.2-0.2,0.2-0.4l8.2,4.4c-0.1,0.1-1.1,1.2-1.1,1.4
	C21.1,54.2,21.3,55.7,20.7,56.8z"/>
<path class="st8" d="M21.4,51.2l-6.8-3.7c0.1-0.2,0.2-0.3,0.4-0.5l6.8,3.7C21.7,50.9,21.6,51.1,21.4,51.2z"/>
<path class="st9" d="M20.4,55l-7.8-3.9c2.2-4.4,2.8-4.5,2.8-4.5l7.9,3.6C23.2,50.4,20.5,54.8,20.4,55z"/>
<path class="st2" d="M22.3,52.3l-6.9-5.7c0.3-0.3,0.8-0.5,1-0.6l6.3,3.9C22.5,50.1,22.5,52.2,22.3,52.3z"/>
<path class="st4" d="M22.7,50l-6.8-3.7c0.2-0.1,0.4-0.3,0.6-0.4l6.8,3.7C23.1,49.7,22.9,49.8,22.7,50z"/>
<path class="st3" d="M23.2,50.9l-6.7-5c0.4-0.2,0.8-0.3,1.2-0.4c0.4-0.1,0.8,0,1.2,0.1l6.8,3.6c-0.4-0.1-0.8-0.1-1.2,0
	C24.1,49.3,23.6,50.7,23.2,50.9z"/>
<path class="st18" d="M166.8,73.3c0.2,2.3,0.3,4.6,0.3,6.9c0,2.4-0.2,4.7-0.3,7c-0.1,1.9-1.4,3.7-3.2,4.3l-14,5.2
	c-0.5,2.6-1.1,5.3-1.9,7.8l10.5,8.8c1.3,1.1,1.7,3.1,0.9,4.9c-1.9,4.7-4.1,9-6.4,12.9c-0.8,1.3-2,2.2-3.3,2.3c-0.4,0.1-0.8,0-1.2,0
	l-13.6-2.8c-1.6,2.2-3.4,4.3-5.2,6.3l4.3,14c0.5,1.7-0.1,3.8-1.5,5.1c-3.3,3-7.1,5.8-11.2,8.5c-0.6,0.4-1.1,0.6-1.7,0.7
	c-1.1,0.2-2.2-0.2-3-1l-9.6-10.1c-2.3,1.1-4.6,2.1-7,3l-3,15.5c-0.4,1.9-1.8,3.5-3.6,3.9c-2.1,0.5-4.3,0.9-6.4,1.3
	c-2.2,0.3-4.3,0.4-6.4,0.6c-1.8,0.1-3.2-1.1-3.6-2.9l-3-14.6c-2.4-0.2-4.7-0.5-7-1l-9.6,12.7c-0.8,1-1.9,1.7-3,1.8
	c-0.6,0.1-1.2,0-1.7-0.2c-4.1-1.5-7.8-3.3-11.1-5.3c-1.5-0.9-2.1-2.8-1.5-4.7l4.4-15.3c-1.8-1.5-3.5-3.1-5.2-4.9l-13.6,6.6
	c-0.4,0.2-0.8,0.3-1.2,0.4c-1.3,0.2-2.5-0.3-3.3-1.4c-2.3-3.3-4.4-7-6.4-11.1c-0.8-1.6-0.4-3.7,0.9-5.2L26,121.5
	c-0.7-2.4-1.4-4.8-1.9-7.3L10.4,113c-1.7-0.2-3-1.6-3.1-3.4C7.1,107.3,7,105,7,102.7s0.2-4.7,0.3-7c0.1-1.9,1.4-3.7,3.2-4.3l14-5.2
	c0.5-2.6,1.1-5.3,1.9-7.8l-10.5-8.9c-1.3-1.1-1.7-3.1-0.9-4.9c1.9-4.7,4.1-9,6.4-12.9c0.8-1.3,2-2.2,3.3-2.3c0.4-0.1,0.8,0,1.2,0
	l13.6,2.8c1.6-2.2,3.4-4.3,5.2-6.3l-4.3-14c-0.5-1.7,0.1-3.8,1.5-5.1c3.3-3,7.1-5.8,11.2-8.5c0.6-0.4,1.1-0.6,1.7-0.7
	c1.1-0.2,2.2,0.2,3,1l9.6,10.1c2.3-1.1,4.6-2.1,7-3l3-15.5c0.4-1.9,1.8-3.5,3.6-3.9c2.1-0.5,4.3-0.9,6.5-1.2
	c2.1-0.3,4.3-0.5,6.4-0.6c1.8-0.1,3.2,1.1,3.6,2.9l3,14.6c2.4,0.2,4.7,0.5,7,1l9.6-12.8c0.8-1,1.9-1.7,3-1.8c0.6-0.1,1.2,0,1.7,0.2
	c4.1,1.5,7.8,3.3,11.1,5.3c1.4,0.9,2.1,2.8,1.5,4.7L130,33.9c1.8,1.5,3.5,3.1,5.2,4.9l13.6-6.6c0.4-0.2,0.8-0.3,1.2-0.4
	c1.3-0.2,2.5,0.3,3.3,1.4c2.3,3.3,4.4,7,6.4,11.1c0.8,1.6,0.4,3.7-0.9,5.2l-10.6,11.8c0.8,2.4,1.4,4.8,1.9,7.3l14,1.3
	C165.4,70,166.7,71.4,166.8,73.3z M159,84.4c0.1-1,0.1-2.1,0.1-3.1s0-2-0.1-3.1L145.4,77c-1.6-0.1-2.8-1.4-3.1-3.1
	c-0.6-3.9-1.6-7.7-2.9-11.2c-0.6-1.6-0.2-3.5,1.1-4.9l10.3-11.5c-0.9-1.7-1.8-3.4-2.8-4.9l-13.2,6.4c-0.4,0.2-0.8,0.3-1.2,0.4
	c-1.2,0.2-2.3-0.2-3.1-1.2c-2.4-2.8-5-5.3-7.9-7.4c-1.3-1-1.8-2.7-1.3-4.5l4.3-14.8c-1.6-0.8-3.2-1.6-4.9-2.3l-9.3,12.4
	c-0.8,1-1.9,1.7-3,1.8c-0.5,0.1-1,0-1.4-0.1c-3.5-0.9-7.1-1.5-10.8-1.6c-1.6-0.1-2.9-1.2-3.3-2.9L90,13.3c-0.9,0.1-1.9,0.2-2.8,0.3
	s-1.9,0.3-2.8,0.5l-3,15.1C81,31,79.7,32.5,78.1,33c-3.7,1.2-7.3,2.7-10.8,4.6c-0.5,0.3-0.9,0.4-1.4,0.5c-1.1,0.2-2.2-0.2-3-1
	l-9.3-9.8c-1.7,1.2-3.4,2.4-4.9,3.7l4.2,13.7c0.5,1.6,0,3.5-1.3,4.8c-2.9,3-5.6,6.2-7.9,9.7c-0.8,1.1-1.9,1.9-3.1,2
	c-0.4,0.1-0.8,0-1.2,0l-13.2-2.7c-1,1.8-1.9,3.7-2.8,5.7l10.3,8.6c1.2,1,1.6,2.8,1,4.6c-1.3,3.9-2.3,8-2.9,12
	c-0.3,1.8-1.5,3.4-3.1,4L15,98.5c-0.1,1-0.1,2-0.1,3.1c0,1,0,2.1,0.1,3.1l13.6,1.2c1.6,0.1,2.8,1.4,3.1,3.1
	c0.6,3.9,1.6,7.7,2.9,11.2c0.6,1.6,0.2,3.5-1.1,4.9l-10.3,11.5c0.9,1.7,1.8,3.4,2.8,4.9l13.2-6.4c0.4-0.2,0.8-0.3,1.2-0.4
	c1.2-0.2,2.3,0.2,3.1,1.1c2.4,2.8,5,5.3,7.9,7.4c1.3,1,1.8,2.7,1.3,4.5l-4.3,14.9c1.6,0.8,3.2,1.6,4.9,2.3l9.3-12.4
	c0.8-1,1.9-1.7,3-1.8c0.5-0.1,1,0,1.4,0.1c3.5,0.9,7.1,1.5,10.8,1.6c1.6,0.1,2.9,1.2,3.3,2.9l2.9,14.3c0.9-0.1,1.9-0.2,2.8-0.3
	s1.9-0.3,2.8-0.5l3-15.1c0.4-1.8,1.7-3.3,3.3-3.8c3.7-1.2,7.3-2.7,10.8-4.6c0.5-0.3,0.9-0.4,1.4-0.5c1.1-0.2,2.2,0.2,3,1l9.3,9.8
	c1.7-1.2,3.4-2.4,4.9-3.7l-4.2-13.7c-0.5-1.6,0-3.5,1.3-4.9c2.9-3,5.6-6.2,7.9-9.7c0.8-1.1,1.9-1.9,3.1-2c0.4-0.1,0.8,0,1.2,0
	l13.2,2.7c1-1.8,1.9-3.7,2.8-5.7l-10.3-8.6c-1.2-1-1.6-2.8-1-4.6c1.3-3.9,2.3-8,2.9-12c0.3-1.8,1.5-3.4,3.1-4L159,84.4z"/>
</svg>
