<svg width="462" height="201" viewBox="0 0 462 201" fill="none" xmlns="http://www.w3.org/2000/svg">
<g clip-path="url(#clip0)">
<g filter="url(#filter0_d)">
<path d="M285.217 285L12 178.448L313.022 79L608 178.448L285.217 285Z" fill="#FFF5F7"/>
</g>
<g filter="url(#filter1_f)">
<path d="M384.172 159.644L267.141 203.754L175 170.214L291.379 128.138L384.172 159.644Z" fill="url(#paint0_linear)"/>
</g>
<path d="M367.271 242.865L263.88 203.825L263.844 78.7312L367.271 117.772V242.865Z" fill="#053866"/>
<path d="M471.518 203.638L367.272 164.139L367.334 38.5859L471.733 77.8279L471.518 203.638Z" fill="#083556"/>
<path d="M367.272 242.865L471.698 203.175L471.733 77.6987L367.308 117.067L367.272 242.865Z" fill="#054270"/>
<path d="M263.88 203.638L367.333 165.828V38.5859L263.844 77.867L263.88 203.638Z" fill="#063D66"/>
<g filter="url(#filter2_f)">
<ellipse cx="366.873" cy="151.129" rx="71.3194" ry="71.2004" fill="url(#paint1_radial)"/>
</g>
<path d="M367.239 242.865L263.883 203.825L263.847 78.7312L367.274 117.772L367.239 242.865Z" fill="#053866"/>
<path d="M289.704 120.023L263.883 110.19L263.847 78.7312L289.704 88.778V120.023Z" fill="#053866"/>
<path d="M270.721 108.662C268.392 108.721 266.076 108.3 263.916 107.426L263.845 104.109C269.099 106.12 274.141 105.732 278.019 103.05C282.638 99.8728 285.565 94.6135 285.565 86.9893L288.668 88.2247C288.668 96.9078 286.094 101.779 280.629 105.556C277.695 107.528 274.254 108.607 270.721 108.662Z" fill="#FF8098"/>
<path d="M315.56 129.313L289.703 119.429V88.0217L315.56 97.9059V129.313Z" fill="#0E2951"/>
<path d="M341.415 139.636L315.559 129.752V98.3442L341.415 108.193V139.636Z" fill="#FF8098"/>
<path d="M367.13 148.926L341.415 139.16V107.635L367.272 117.114L367.13 148.926Z" fill="#911A31"/>
<path d="M289.702 150.992L263.845 141.143V109.7L289.702 119.584V150.992Z" fill="#911A31"/>
<path d="M315.56 160.282L289.703 150.645V120.023L315.56 129.66V160.282Z" fill="#C43B55"/>
<path d="M341.415 170.605L315.559 160.72V129.313L341.415 139.197V170.605Z" fill="#053866"/>
<path d="M367.272 179.895L341.415 170.365V139.636L367.272 149.166V179.895Z" fill="#132F7C"/>
<path d="M315.56 192.283L289.703 182.434V150.991L315.56 160.875V192.283Z" fill="#FF8098"/>
<path d="M341.417 201.573L315.561 191.689V160.282L341.417 170.166V201.573Z" fill="#0E2951"/>
<path d="M367.276 211.896L341.419 202.122V170.605L367.276 180.38V211.896Z" fill="#053866"/>
<path d="M289.702 213.961L263.845 204.077V172.669L289.702 182.553V213.961Z" fill="#C43B55"/>
<path d="M315.56 223.252L289.703 213.395V181.96L315.56 191.817V223.252Z" fill="#053866"/>
<path d="M341.415 233.574L315.559 223.69V192.283L341.415 202.167V233.574Z" fill="#FF8098"/>
<path d="M269.191 102.472C267.356 102.5 265.535 102.142 263.845 101.421V97.6143C267.602 99.0645 272.262 98.5569 274.574 97.0342C278.439 94.4601 280.317 90.4721 280.317 84.925L283.496 86.194C283.496 93.0099 281.076 97.1792 276.741 100.188C274.506 101.684 271.878 102.479 269.191 102.472Z" fill="#D6516B"/>
<path d="M267.343 95.2461C266.145 95.2707 264.954 95.0365 263.845 94.558V90.5441C266.104 91.4616 269.602 91.2322 271.534 89.2061C273.538 87.1036 274.084 85.3833 274.084 81.8281L277.291 83.1661C277.291 88.0593 275.687 91.3851 272.663 93.5641C271.089 94.6679 269.237 95.2535 267.343 95.2461Z" fill="#C43B55"/>
<path d="M265.492 88.0094C264.925 88.0622 264.356 87.9451 263.845 87.6705V83.717C264.394 83.9429 266.178 84.0935 266.865 83.717C268.066 83.0392 268.066 81.7214 267.482 79.7634L271.085 81.0813C271.085 83.8299 270.193 85.7502 268.512 87.0304C267.61 87.665 266.563 88.0045 265.492 88.0094Z" fill="#A62E41"/>
<path d="M366.871 206.735L344.517 198.483V144.797L367.27 152.907V157.263L348.369 150.18V195.898L366.653 202.627L366.871 206.735Z" fill="#C43B55"/>
<path d="M367.27 207.767L344.517 198.752V171.637L348.369 172.864V196.191L367.27 203.452V207.767Z" fill="#F985A0"/>
<path d="M366.869 199.509L350.724 193.498V154.088L367.272 159.954V164.381L354.577 159.595V191.519L367.272 195.945L366.869 199.509Z" fill="#C43B55"/>
<path d="M366.885 191.25L357.966 187.879V165.443L367.274 168.673V172.992L361.682 170.815V185.351L367.274 187.774L366.885 191.25Z" fill="#C43B55"/>
<path d="M367.274 191.25L357.966 187.628V175.766L361.682 177.009V185.071L367.274 186.882V191.25Z" fill="#F985A0"/>
<path d="M367.272 199.509L350.724 193.443V173.702L354.577 174.929V190.883L367.272 195.196V199.509Z" fill="#F985A0"/>
<path d="M283.496 210.863L263.845 203.448V179.895L283.496 187.31V210.863Z" fill="#053866"/>
<path d="M276.256 208.799L263.845 203.861V188.153L276.256 193.091V208.799Z" fill="#FF8098"/>
<path d="M341.415 119.196L331.957 135.507L315.559 117.752L325.017 101.441L341.415 119.196Z" fill="#C43B55"/>
<path d="M335.212 118.821L330.266 127.249L321.766 118.091L326.675 109.7L335.212 118.821Z" fill="#911A31"/>
<path d="M341.415 233.574L315.559 223.659V198.477L341.415 208.356V233.574Z" fill="#C43B55"/>
<path d="M289.703 127.249L315.56 136.894L289.703 144.443L315.56 154.088L289.703 127.249Z" fill="#911A31"/>
<path d="M266.948 142.733L263.845 141.465V109.7L266.948 110.968V142.733Z" fill="#FF8098"/>
<path d="M272.12 143.765L269.017 142.538V111.764L272.12 113.026V143.765Z" fill="#FF8098"/>
<path d="M288.667 149.958L284.53 148.73V117.957L288.667 119.185V149.958Z" fill="#FF8098"/>
<path d="M282.462 147.894L279.359 146.666V115.893L282.462 117.121V147.894Z" fill="#FF8098"/>
<path d="M277.292 145.83L274.189 144.601V113.829L277.292 115.057V145.83Z" fill="#FF8098"/>
<path d="M289.702 181.96L263.845 172.076V140.668L289.702 150.517V181.96Z" fill="#0E2951"/>
<path d="M289.702 181.96L276.256 177.022V161.314L289.702 166.252V181.96Z" fill="#911A31"/>
<path d="M276.256 161.314L263.845 156.368V140.668L276.256 145.615V161.314Z" fill="#911A31"/>
<path fill-rule="evenodd" clip-rule="evenodd" d="M292.806 187.122L311.551 194.496L310.557 197.218L295.611 191.339V209.382L309.651 214.906V201.362L298.782 197.081V206.725L306.48 209.764V203.949L301.919 202.15V204.138L305.243 205.447L304.248 208.169L299.114 206.147V197.928L309.285 201.941V213.987L295.977 208.733V192.862L312.457 199.353V219.123L292.806 211.392V187.122Z" fill="#F985A0"/>
<path d="M324.867 175.766L320.73 174.038V168.54L324.867 170.268V175.766Z" fill="#911A31"/>
<path d="M330.037 185.057L325.9 183.338V177.831L330.037 179.549V185.057Z" fill="#911A31"/>
<path d="M336.244 193.315L332.107 191.834V187.122L336.244 188.603V193.315Z" fill="#911A31"/>
<path d="M367.308 117.068L471.733 77.6997V203.319L367.272 242.866L367.308 117.068Z" fill="#053866"/>
<path d="M445.877 150.544L471.734 140.669V172.085L445.877 181.96V150.544Z" fill="#911A31"/>
<path d="M418.986 160.629L445.877 150.992V181.649L418.986 191.251V160.629Z" fill="#C43B55"/>
<path d="M393.132 170.166L418.988 160.282V191.689L393.132 201.573V170.166Z" fill="#053866"/>
<path d="M367.274 180.598L393.13 170.605V201.904L367.274 211.896V180.598Z" fill="#132F7C"/>
<path d="M418.986 128.875L445.877 118.991V150.398L418.986 160.283V128.875Z" fill="#FF8098"/>
<path d="M393.132 139.198L418.988 129.314V160.721L393.132 170.606V139.198Z" fill="#0E2951"/>
<path d="M367.274 148.597L393.13 138.604V169.903L367.274 179.896V148.597Z" fill="#053866"/>
<path d="M418.989 191.81L445.88 181.961V213.369L418.989 223.253V191.81Z" fill="#0E2951"/>
<path d="M393.132 201.136L418.988 191.252V222.695L393.132 232.543V201.136Z" fill="#FF8098"/>
<path d="M445.875 87.6111L471.732 77.6997V109.116L445.875 118.991V87.6111Z" fill="#C43B55"/>
<path d="M418.983 97.9069L445.874 88.0227V119.43L418.983 129.314V97.9069Z" fill="#053866"/>
<path d="M393.127 107.982L418.984 98.3452V128.967L393.127 138.604V107.982Z" fill="#FF8098"/>
<path d="M367.414 117.307L393.129 107.636V138.935L367.272 148.927L367.414 117.307Z" fill="#911A31"/>
<path d="M366.635 207.768V203.419L386.211 195.853V150.208L367.58 157.032L366.236 153.567L390.024 144.798V198.399L366.635 207.768Z" fill="#C43B55"/>
<path d="M390.026 172.458L386.316 173.702V150.238L367.272 157.597V153.224L390.026 144.798V172.458Z" fill="#F985A0"/>
<path d="M367.272 199.51V195.17L380.116 189.948V159.25L367.272 164.225V159.885L383.821 155.121V192.523L367.272 199.51Z" fill="#C43B55"/>
<path d="M366.628 191.252V187.008L372.834 184.972V170.689L367.555 172.621L366.236 169.24L376.579 165.445V187.491L366.628 191.252Z" fill="#C43B55"/>
<path d="M376.581 176.618L373.078 177.832V170.719L367.272 173.148V168.88L376.581 165.445V176.618Z" fill="#F985A0"/>
<path d="M383.821 174.508L380.116 175.767V159.403L367.272 164.333V160.033L383.821 154.089V174.508Z" fill="#F985A0"/>
<path d="M458.286 82.6647L471.732 77.6997V93.4162L458.286 98.3455V82.6647Z" fill="#FF8098"/>
<path d="M393.127 221.272L402.591 198.478L418.984 203.555L409.52 226.349L393.127 221.272Z" fill="#C43B55"/>
<path d="M393.127 107.969L418.984 98.3452V122.822L393.127 132.411V107.969Z" fill="#C43B55"/>
<path d="M393.127 108.157L418.984 98.3452V116.441L393.127 126.217V108.157Z" fill="#911A31"/>
<path d="M393.127 107.987L418.984 98.3452V109.384L393.127 118.991V107.987Z" fill="#053866"/>
<path d="M393.127 108.192L418.984 98.3452V103.982L393.127 113.83V108.192Z" fill="#0E2951"/>
<path d="M445.874 174.381L418.983 184.026L445.874 157.187L418.983 166.832" fill="#911A31"/>
<path d="M451.044 179.701L446.985 180.929L446.907 150.156L450.967 148.928L451.044 179.701Z" fill="#FF8098"/>
<path d="M456.218 177.636L452.081 178.864V148.091L456.218 146.863V177.636Z" fill="#FF8098"/>
<path d="M461.388 175.571L457.251 176.799V146.026L461.388 144.798V175.571Z" fill="#FF8098"/>
<path d="M445.876 119.585L471.732 109.701V141.108L445.876 150.993V119.585Z" fill="#0E2951"/>
<path d="M445.876 181.522L471.732 171.638V203.046L445.876 212.93V181.522Z" fill="#053866"/>
<path d="M445.876 119.553L458.287 114.862V129.785L445.876 134.476V119.553Z" fill="#911A31"/>
<path d="M449.04 211.687L445.876 212.93C445.876 191.772 457.743 178.921 471.732 173.703V176.827C459.11 181.548 449.04 197.381 449.04 211.687Z" fill="#FF8098"/>
<path d="M455.874 209.609L452.081 210.865C452.081 195.758 461.148 183.844 471.732 179.896V183.664C462.484 187.145 455.874 198.521 455.874 209.609Z" fill="#D6516B"/>
<path d="M462.794 206.548L459.318 207.768C459.318 198.596 464.602 189.773 471.659 187.123L471.73 190.61C466.233 192.703 462.794 199.956 462.794 206.548Z" fill="#C43B55"/>
<path fill-rule="evenodd" clip-rule="evenodd" d="M442.771 92.1516V116.974L424.075 124.153L423.034 121.368L439.834 114.918V96.4635L425.024 102.15V116.005L436.513 111.618V101.751L428.345 104.87V110.783L433.156 108.937V106.94L430.718 107.878L429.676 105.094L436.094 102.625V110.994L425.407 115.093V102.81L439.45 97.4476V113.678L422.086 120.309V100.094L442.771 92.1516Z" fill="#F985A0"/>
<path fill-rule="evenodd" clip-rule="evenodd" d="M369.339 142.568L387.213 111.765L391.059 113.995L373.186 144.798L369.339 142.568Z" fill="#0E2951"/>
<path fill-rule="evenodd" clip-rule="evenodd" d="M386.975 138.605L369.339 121.181L372.389 117.959L390.025 135.383L386.975 138.605Z" fill="#0E2951"/>
<path d="M409.676 152.72L413.813 150.992V156.49L409.676 158.218V152.72Z" fill="#911A31"/>
<path d="M404.505 148.336L408.642 146.863V151.583L404.505 153.057V148.336Z" fill="#911A31"/>
<path d="M398.297 143.183L402.434 141.701V146.414L398.297 147.895V143.183Z" fill="#911A31"/>
<path d="M452.081 85.3989L471.732 77.6997V102.074L452.081 109.701V85.3989Z" fill="#053866"/>
<path d="M458.286 130.131L471.731 125.185V140.884L458.286 145.83V130.131Z" fill="#911A31"/>
<path opacity="0.3" d="M264.264 78.0908L367.332 117.136V243L263.804 203.955L264.264 78.0908Z" fill="black"/>
<path d="M510.001 39.4682L471.143 77.7002L367.333 38.5868L406.094 0.278564L510.001 39.4682Z" fill="#084C80"/>
<path d="M367.759 117.146L328.544 156.153L224.543 117.121L264.467 78.1812L367.759 117.146Z" fill="#094573"/>
<path d="M367.333 38.586L329.145 0L225.275 39.3346L264.061 78.4539L367.333 38.586Z" fill="#084C80"/>
<path d="M510.001 116.313L471.211 77.6987L367.272 117.358L406.276 156.153L510.001 116.313Z" fill="#084C80"/>
</g>
<defs>
<filter id="filter0_d" x="10" y="77" width="604" height="214" filterUnits="userSpaceOnUse" color-interpolation-filters="sRGB">
<feFlood flood-opacity="0" result="BackgroundImageFix"/>
<feColorMatrix in="SourceAlpha" type="matrix" values="0 0 0 0 0 0 0 0 0 0 0 0 0 0 0 0 0 0 127 0"/>
<feOffset dx="2" dy="2"/>
<feGaussianBlur stdDeviation="2"/>
<feColorMatrix type="matrix" values="0 0 0 0 0 0 0 0 0 0 0 0 0 0 0 0 0 0 0.2 0"/>
<feBlend mode="normal" in2="BackgroundImageFix" result="effect1_dropShadow"/>
<feBlend mode="normal" in="SourceGraphic" in2="effect1_dropShadow" result="shape"/>
</filter>
<filter id="filter1_f" x="170" y="123.138" width="219.172" height="85.616" filterUnits="userSpaceOnUse" color-interpolation-filters="sRGB">
<feFlood flood-opacity="0" result="BackgroundImageFix"/>
<feBlend mode="normal" in="SourceGraphic" in2="BackgroundImageFix" result="shape"/>
<feGaussianBlur stdDeviation="2.5" result="effect1_foregroundBlur"/>
</filter>
<filter id="filter2_f" x="215.553" y="-0.0717773" width="302.639" height="302.401" filterUnits="userSpaceOnUse" color-interpolation-filters="sRGB">
<feFlood flood-opacity="0" result="BackgroundImageFix"/>
<feBlend mode="normal" in="SourceGraphic" in2="BackgroundImageFix" result="shape"/>
<feGaussianBlur stdDeviation="40" result="effect1_foregroundBlur"/>
</filter>
<linearGradient id="paint0_linear" x1="377.976" y1="205.029" x2="324.19" y2="88.0869" gradientUnits="userSpaceOnUse">
<stop offset="0.0960889"/>
<stop offset="0.978163" stop-color="#B4D1FA" stop-opacity="0"/>
</linearGradient>
<radialGradient id="paint1_radial" cx="0" cy="0" r="1" gradientUnits="userSpaceOnUse" gradientTransform="translate(366.053 126.577) rotate(90) scale(56.4693 56.5637)">
<stop stop-color="#0095FF"/>
<stop offset="1" stop-color="#BCE3FF"/>
</radialGradient>
<clipPath id="clip0">
<rect width="510" height="243" fill="white"/>
</clipPath>
</defs>
</svg>
