<svg width="192" height="200" viewBox="0 0 192 200" fill="none" xmlns="http://www.w3.org/2000/svg">
<path d="M163.359 135.648L156.846 130.616C157.833 128.839 159.116 126.076 160.004 124.103L167.306 128.445C166.517 130.418 164.247 133.872 163.359 135.648Z" fill="#5A1923"/>
<path d="M133.556 174.036L126.846 170.384C126.55 170.187 126.254 169.99 126.056 169.792L132.767 173.444C133.063 173.74 133.26 173.937 133.556 174.036Z" fill="#561822"/>
<path d="M136.517 165.352L129.905 161.108C131.583 159.924 133.26 158.74 134.741 157.457L143.819 159.529C142.339 160.812 138.293 164.168 136.517 165.352Z" fill="#671D28"/>
<path d="M179.346 80.1893L172.635 76.538C172.833 76.538 173.03 76.538 173.227 76.6367L179.938 80.2879C179.642 80.2879 179.543 80.1893 179.346 80.1893Z" fill="#6E1E2B"/>
<path d="M179.839 80.2878L173.129 76.6365C173.326 76.7352 173.524 76.7352 173.721 76.8339L180.431 80.4851C180.333 80.3864 180.037 80.3865 179.839 80.2878Z" fill="#6A1D2A"/>
<path d="M180.53 80.4853L173.03 76.538C173.03 76.538 173.918 76.8341 173.918 76.9328L180.629 80.584C180.53 80.584 180.53 80.584 180.53 80.4853Z" fill="#671D28"/>
<path d="M176.088 96.0769L167.996 90.9455C168.095 89.9587 168.095 88.8732 168.095 87.8863C168.095 86.8995 168.095 85.9127 167.996 84.8272L177.371 86.9982C177.371 87.985 178.16 90.6494 178.16 91.7349C178.16 92.7218 176.187 94.9914 176.088 96.0769Z" fill="#561822"/>
<path d="M150.728 131.405L143.919 127.655L156.945 130.418L163.754 134.069L150.728 131.405Z" fill="#6F1F2C"/>
<path d="M167.307 128.839L159.807 124.793L149.347 116.011L156.55 119.958L167.307 128.839Z" fill="#531721"/>
<path d="M141.551 161.108L134.742 157.457L130.597 143.938L139.676 144.924L141.551 161.108Z" fill="#531721"/>
<path d="M139.971 150.648L130.596 144.036C130.3 143.049 130.3 141.569 131.385 139.793L138.885 143.345C138.589 144.234 139.675 149.661 139.971 150.648Z" fill="#561822"/>
<path d="M137.504 144.628L130.794 140.977C130.893 140.78 130.991 140.484 131.09 140.286L137.8 143.938C137.603 144.234 137.504 144.431 137.504 144.628Z" fill="#5A1923"/>
<path d="M137.801 144.036L131.091 140.385C131.19 140.188 131.288 139.99 131.387 139.892L138.097 143.543C137.999 143.642 137.9 143.839 137.801 144.036Z" fill="#5D1A24"/>
<path d="M138.096 143.444L131.386 139.793C131.484 139.596 131.583 139.497 131.78 139.299L138.491 142.951C138.293 143.148 138.195 143.345 138.096 143.444Z" fill="#601B26"/>
<path d="M138.392 143.049L131.682 139.398C131.781 139.299 131.781 139.299 131.879 139.201C132.669 138.313 133.557 137.523 134.347 136.536L142.833 138.313C142.044 139.201 139.478 141.964 138.59 142.852C138.59 142.951 138.491 142.951 138.392 143.049Z" fill="#641C27"/>
<path d="M140.761 142.655L134.346 136.536C136.122 134.563 137.8 132.392 139.379 130.221L148.458 133.872C146.879 136.043 142.537 140.681 140.761 142.655Z" fill="#601B26"/>
<path d="M146.089 133.872L139.378 130.221C139.477 130.023 139.674 129.826 139.773 129.629L146.484 133.28C146.286 133.477 146.187 133.675 146.089 133.872Z" fill="#5D1A24"/>
<path d="M146.386 133.872L138.985 130.714C139.084 130.517 139.775 129.431 140.071 129.135L146.781 132.786C146.683 132.984 146.485 133.675 146.386 133.872Z" fill="#601B26"/>
<path d="M144.018 137.425L140.07 129.234C140.564 128.543 141.353 128.148 141.847 127.951L147.767 132.194C147.767 132.49 144.215 137.326 144.018 137.425Z" fill="#601B26"/>
<path d="M147.274 132.392L140.563 128.741C140.761 128.642 140.86 128.445 141.057 128.346L147.767 131.997C147.57 132.195 147.373 132.293 147.274 132.392Z" fill="#671D28"/>
<path d="M147.668 131.997L140.76 128.543C141.155 128.148 141.648 128.05 141.846 127.951L148.26 131.602C148.161 131.8 147.865 131.898 147.668 131.997Z" fill="#6A1D2A"/>
<path d="M148.162 133.675L141.649 128.05C142.044 127.852 142.438 127.754 142.833 127.655C143.228 127.556 143.623 127.655 144.017 127.655L151.024 131.405C150.629 131.306 150.826 132.885 150.432 132.984C150.037 133.083 148.557 133.477 148.162 133.675Z" fill="#6E1E2B"/>
<path d="M161.287 99.6295L154.478 95.8796L167.997 90.8469L174.707 94.5968L161.287 99.6295Z" fill="#561822"/>
<path d="M156.352 119.958L149.642 116.307C148.458 115.32 148.063 113.544 148.655 111.767C149.938 107.919 150.925 103.873 151.517 99.9255C151.616 99.6295 151.616 99.2348 151.813 98.9387L159.412 101.8C159.313 102.097 158.326 103.281 158.227 103.577C157.635 107.623 156.649 111.57 155.366 115.419C154.774 117.096 155.168 118.872 156.352 119.958Z" fill="#561822"/>
<path d="M158.424 102.491L151.615 99.2347C151.714 98.7413 151.911 98.3466 152.01 98.1492L158.72 101.8C158.622 102.097 158.523 102.294 158.424 102.491Z" fill="#5A1923"/>
<path d="M158.721 101.899L152.01 98.1492C152.109 97.9519 152.208 97.7545 152.306 97.6558L159.017 101.307C158.918 101.504 158.819 101.702 158.721 101.899Z" fill="#5D1A24"/>
<path d="M159.017 101.504L152.307 97.6557C152.406 97.4584 152.603 97.261 152.801 97.0637L159.511 100.715C159.314 101.011 159.116 101.406 159.017 101.504Z" fill="#601B26"/>
<path d="M159.411 100.912L152.7 97.2611C152.799 97.1624 152.996 96.965 153.095 96.8663L159.805 100.518C159.707 100.616 159.509 100.715 159.411 100.912Z" fill="#641C27"/>
<path d="M159.806 100.518L153.096 96.8664C153.293 96.7677 153.392 96.5704 153.589 96.4717L160.299 100.123C160.102 100.222 160.003 100.32 159.806 100.518Z" fill="#671D28"/>
<path d="M160.299 100.123L153.589 96.4716C153.786 96.3729 153.984 96.1755 154.181 96.0768L160.891 99.7281C160.694 99.8268 160.497 99.9254 160.299 100.123Z" fill="#6A1D2A"/>
<path d="M158.623 103.281L151.419 100.32C151.616 97.0637 153.886 96.1756 154.774 95.6822L161.287 99.5308C161.188 99.6295 158.721 103.281 158.623 103.281Z" fill="#561822"/>
<path d="M132.767 173.443L126.057 169.792L116.583 159.825L123.491 163.181L132.767 173.443Z" fill="#531721"/>
<path d="M165.53 79.3998L158.82 75.2551L173.03 76.538L180.234 80.3866L165.53 79.3998Z" fill="#72202D"/>
<path d="M100.695 178.674L93.9849 175.022C94.873 174.924 95.8598 174.825 96.748 174.726C97.6361 174.628 98.8203 174.332 99.7084 174.134L111.057 179.463C110.169 179.66 102.077 184.101 101.189 184.2C100.301 184.299 101.682 178.575 100.695 178.674Z" fill="#6E1E2B"/>
<path d="M106.321 177.884L99.6108 174.134L102.473 159.431L109.282 162.885L106.321 177.884Z" fill="#641C27"/>
<path d="M109.282 162.885L102.571 159.233C102.67 158.937 102.67 158.74 102.769 158.444L109.479 162.095C109.38 162.391 109.282 162.687 109.282 162.885Z" fill="#561822"/>
<path d="M109.478 162.194L102.768 158.543C102.866 158.345 102.965 158.049 103.064 157.852L109.774 161.503C109.675 161.7 109.577 161.898 109.478 162.194Z" fill="#5A1923"/>
<path d="M109.775 161.503L103.064 157.852C103.163 157.654 103.262 157.457 103.36 157.358L110.071 161.01C109.972 161.108 109.873 161.306 109.775 161.503Z" fill="#5D1A24"/>
<path d="M110.07 161.01L103.359 157.358C103.458 157.161 103.557 157.062 103.754 156.865L110.464 160.516C110.366 160.714 110.168 160.812 110.07 161.01Z" fill="#601B26"/>
<path d="M110.465 160.516L103.754 156.865C103.853 156.766 104.05 156.569 104.149 156.47L110.859 160.122C110.761 160.22 110.563 160.418 110.465 160.516Z" fill="#641C27"/>
<path d="M108.69 167.128L102.473 159.431C102.967 156.865 104.842 155.878 105.236 155.681L111.651 159.727C111.453 159.825 108.887 167.029 108.69 167.128Z" fill="#671D28"/>
<path d="M111.353 159.727L104.643 156.076C104.84 155.977 105.038 155.779 105.235 155.681L112.34 159.431C112.143 159.529 111.551 159.628 111.353 159.727Z" fill="#6A1D2A"/>
<path d="M109.577 163.082L105.235 155.681C105.432 155.582 105.531 155.483 105.728 155.483C108.195 154.694 111.057 153.609 113.425 152.523L120.037 156.372C117.669 157.457 115.202 158.444 112.735 159.233C112.636 159.332 109.774 163.082 109.577 163.082Z" fill="#671D28"/>
<path d="M119.741 156.47L113.129 152.621C114.215 152.128 115.399 151.536 116.485 150.944C116.583 150.944 116.682 150.845 116.682 150.845L123.688 154.496C123.59 154.496 123.096 154.792 123.096 154.792C121.912 155.385 120.827 155.977 119.741 156.47Z" fill="#6A1D2A"/>
<path d="M123.392 154.694L116.682 150.845C117.076 150.648 117.471 150.549 117.866 150.451C118.359 150.352 118.853 150.451 119.247 150.549L126.254 154.398C125.859 154.299 125.366 154.2 124.872 154.2C124.379 154.299 123.787 154.497 123.392 154.694Z" fill="#6A1D2A"/>
<path d="M125.959 154.201L119.249 150.549C119.446 150.648 119.644 150.648 119.841 150.747L126.749 154.595C126.551 154.497 126.157 154.299 125.959 154.201Z" fill="#6A1D2A"/>
<path d="M123.492 154.99L119.84 150.747C119.84 150.747 119.939 150.747 119.939 150.845L126.748 154.595C126.748 154.595 123.492 155.089 123.492 154.99Z" fill="#671D28"/>
<path d="M95.367 187.062L88.6566 183.41C87.7685 182.917 87.1764 182.029 86.8804 180.943L93.7881 184.298C94.0841 185.384 94.4789 186.568 95.367 187.062Z" fill="#561822"/>
<path d="M156.45 68.3473L149.74 64.5974L159.904 53.249L169.575 54.8279L156.45 68.3473Z" fill="#6B1E2A"/>
<path d="M160.004 86.8995L153.294 83.2483C152.405 82.7549 151.715 81.7681 151.517 80.5839C150.925 76.7353 149.938 72.9854 148.656 69.5315C148.261 68.5447 148.36 67.4592 148.754 66.3737L155.465 70.0249C155.07 71.1104 155.07 72.1959 155.366 73.1828C156.649 76.6366 157.636 80.3865 158.228 84.2351C158.425 85.4193 159.116 86.4061 160.004 86.8995Z" fill="#561822"/>
<path d="M155.069 71.9986L148.753 66.3738C148.852 66.1764 148.95 65.8803 149.049 65.683L157.832 68.4461C157.733 68.6434 155.167 71.7026 155.069 71.9986Z" fill="#5A1923"/>
<path d="M155.76 69.3342L149.05 65.683C149.148 65.4856 149.247 65.2883 149.346 65.1896L156.056 68.8408C155.958 68.9395 155.859 69.1368 155.76 69.3342Z" fill="#5D1A24"/>
<path d="M155.761 69.6302L148.952 65.7816C149.05 65.5842 149.544 64.7948 149.741 64.5974L157.142 68.0513C157.044 68.2486 155.859 69.5315 155.761 69.6302Z" fill="#601B26"/>
<path d="M156.45 68.3474L149.74 64.6962L156.45 68.3474Z" fill="#641C27"/>
<path d="M167.799 57.5911L159.904 53.2491C159.016 51.5715 158.128 49.8939 157.141 48.4137L163.851 52.0649C164.838 53.6438 166.911 55.9135 167.799 57.5911Z" fill="#561822"/>
<path d="M164.345 42.8874L157.635 39.2362C157.635 39.2362 157.635 39.2362 157.733 39.2362L164.345 42.8874Z" fill="#6A1D2A"/>
<path d="M164.542 43.2822L157.635 39.2363C158.029 39.0389 158.424 38.9402 158.819 38.8415C159.312 38.7429 159.707 38.8415 160.2 38.9402L167.404 42.7888C167.01 42.6901 166.319 42.7888 165.825 42.7888C165.332 42.8875 164.937 43.0849 164.542 43.2822Z" fill="#6E1E2B"/>
<path d="M166.912 42.5914L160.202 38.9401C160.399 39.0388 160.596 39.0388 160.794 39.1375L167.899 42.9861C167.701 42.9861 167.109 42.69 166.912 42.5914Z" fill="#6A1D2A"/>
<path d="M167.504 42.8874L160.793 39.2362C160.793 39.2362 160.892 39.2362 160.892 39.3349L167.603 42.9861C167.603 42.8874 167.603 42.8874 167.504 42.8874Z" fill="#671D28"/>
<path d="M93.5907 184.594L86.8804 180.943L83.9199 166.437L90.6303 170.088L93.5907 184.594Z" fill="#531721"/>
<path d="M151.221 49.9925L144.214 45.7491L157.832 39.1375L164.938 43.0847L151.221 49.9925Z" fill="#74202D"/>
<path d="M79.6772 161.799L72.9668 158.148C73.0655 158.049 73.1642 157.95 73.2628 157.852L79.9732 161.503C79.8745 161.602 79.7758 161.7 79.6772 161.799Z" fill="#601B26"/>
<path d="M79.9721 161.503L73.2617 157.852C73.3604 157.753 73.5578 157.556 73.6564 157.457L80.3668 161.108C80.1694 161.207 80.0708 161.404 79.9721 161.503Z" fill="#641C27"/>
<path d="M80.3671 161.108L73.6567 157.457C73.8541 157.358 73.9528 157.161 74.1501 157.062L80.8605 160.713C80.6632 160.812 80.4658 161.01 80.3671 161.108Z" fill="#671D28"/>
<path d="M79.4796 162.391L72.4731 158.74C73.2626 157.457 74.6441 156.668 75.1376 156.47L82.144 160.319C82.0453 160.516 79.7756 162.293 79.4796 162.391Z" fill="#6A1D2A"/>
<path d="M81.4521 160.319L74.7417 156.668C75.1364 156.47 75.5312 156.372 75.9259 156.273C76.4193 156.174 76.814 156.273 77.3074 156.372L84.4125 160.22C83.9191 160.122 83.1297 160.023 82.6362 160.023C82.2415 160.122 81.8468 160.22 81.4521 160.319Z" fill="#6E1E2B"/>
<path d="M83.9193 160.122L77.209 156.47C77.3077 156.47 77.4063 156.569 77.505 156.569L84.2154 160.22C84.2154 160.122 84.1167 160.122 83.9193 160.122C84.018 160.122 84.018 160.122 83.9193 160.122Z" fill="#6A1D2A"/>
<path d="M84.3141 160.22L77.1104 156.372C80.5642 156.964 84.4128 157.95 87.9654 158.049C88.2614 158.049 88.4588 158.049 88.6561 158.148L95.6625 161.996C95.4652 161.898 94.8731 161.898 94.6757 161.898C91.1232 161.7 87.6693 161.01 84.3141 160.22Z" fill="#6E1E2B"/>
<path d="M95.367 162.194L87.8672 157.951C88.0646 158.049 88.9527 158.049 89.2487 158.247L96.5512 162.293C96.3538 162.293 95.5644 162.194 95.367 162.194Z" fill="#6A1D2A"/>
<path d="M95.1699 161.898L89.249 158.345C89.249 158.345 89.3477 158.345 89.3477 158.444L96.5515 162.391C96.5515 162.391 95.2686 161.898 95.1699 161.898Z" fill="#671D28"/>
<path d="M68.9201 179.068L63.6899 170.384L72.966 158.148L79.6764 161.799L68.9201 179.068Z" fill="#681D29"/>
<path d="M147.569 58.479L140.859 54.8278C140.464 54.6305 140.168 54.3344 139.872 54.0384C137.504 51.2753 134.938 48.8082 132.076 46.7359C130.793 45.7491 130.3 44.0715 130.793 42.2952L139.477 43.1834C138.984 44.9596 137.504 49.4003 138.786 50.3871C141.648 52.4595 144.214 54.9265 146.582 57.6896C146.878 57.9856 147.174 58.2817 147.569 58.479Z" fill="#561822"/>
<path d="M65.5649 171.766L58.8545 168.115C59.3479 168.411 59.94 168.707 60.4334 168.904L67.1438 172.555C66.6504 172.358 66.157 172.062 65.5649 171.766Z" fill="#671D28"/>
<path d="M67.1435 172.555L60.4331 168.904C61.5186 169.397 62.6041 169.891 63.6896 170.384L70.4 174.036C69.3145 173.641 68.229 173.147 67.1435 172.555Z" fill="#6A1D2A"/>
<path d="M83.9193 138.017L77.209 134.365C77.6037 134.563 77.9984 134.76 78.2945 134.958L85.0048 138.609C84.6101 138.411 84.2154 138.214 83.9193 138.017Z" fill="#671D28"/>
<path d="M85.0063 138.609L78.2959 134.958C80.1709 135.846 82.1445 136.635 84.1181 137.129L90.8285 140.78C88.8549 140.286 86.8812 139.497 85.0063 138.609Z" fill="#40689D"/>
<path d="M90.8271 140.78L84.1167 137.129C88.064 138.115 92.406 138.411 96.8467 137.819L110.958 140.977C102.57 145.122 94.873 141.767 90.8271 140.78Z" fill="#40689D"/>
<path d="M102.965 144.727L96.8467 137.819C100.597 137.326 104.248 136.142 107.603 134.563L121.517 135.846C118.162 137.425 106.715 144.135 102.965 144.727Z" fill="#40689D"/>
<path d="M112.537 140.582L107.702 134.563C109.774 133.576 111.748 132.392 113.721 131.109L124.182 133.083C122.208 134.365 114.609 139.596 112.537 140.582Z" fill="#40689D"/>
<path d="M120.333 134.76L113.623 131.109C115.202 130.024 116.682 128.839 118.064 127.556L129.412 128.247C128.031 129.53 121.912 133.675 120.333 134.76Z" fill="#40689D"/>
<path d="M124.872 131.208L118.162 127.556C119.444 126.372 120.727 125.089 121.912 123.708L135.332 124.793C134.148 126.175 126.155 130.023 124.872 131.208Z" fill="#40689D"/>
<path d="M128.623 127.359L121.913 123.708C123.097 122.326 124.182 120.945 125.268 119.465L131.978 123.116C130.893 124.596 129.807 126.076 128.623 127.359Z" fill="#40689D"/>
<path d="M131.682 127.754L125.268 119.465C126.354 117.886 127.34 116.307 128.327 114.531L135.038 118.182C134.051 119.958 132.768 126.175 131.682 127.754Z" fill="#40689D"/>
<path d="M135.826 119.859L128.327 114.629C129.412 112.655 130.3 110.583 131.09 108.412L139.872 110.09C139.083 112.162 136.813 117.787 135.826 119.859Z" fill="#40689D"/>
<path d="M137.801 112.063L131.091 108.412C132.867 103.478 133.952 98.1493 133.952 92.7218C133.952 78.5116 127.143 67.0645 116.782 61.4396L123.492 65.0909C133.854 70.7157 140.663 82.2615 140.663 96.373C140.663 101.801 139.577 107.031 137.801 112.063Z" fill="#40689D"/>
<path d="M137.504 45.9466L130.794 42.2953L135.037 27.5917L142.044 31.0456L137.504 45.9466Z" fill="#5B1924"/>
<path d="M61.0254 179.364L54.315 175.713C53.5255 175.319 52.7361 174.825 51.9466 174.332C50.4664 173.444 49.7756 171.667 50.3677 169.792L60.4333 169.891C59.9399 171.766 57.2754 177.095 58.657 177.983C59.4464 178.476 60.2359 178.97 61.0254 179.364Z" fill="#561822"/>
<path d="M57.1772 173.444L50.3682 169.792L54.8088 154.497L61.5192 158.345L57.1772 173.444Z" fill="#5B1924"/>
<path d="M133.063 21.3747L126.353 17.7235C126.452 17.6248 126.55 17.5261 126.649 17.4274L133.359 21.0787C133.261 21.1773 133.162 21.276 133.063 21.3747Z" fill="#601B26"/>
<path d="M133.36 21.0788L126.65 17.4276C126.749 17.3289 126.946 17.1315 127.045 17.0328L133.755 20.6841C133.558 20.7827 133.459 20.8814 133.36 21.0788Z" fill="#641C27"/>
<path d="M133.753 20.6839L127.043 17.0327C127.24 16.934 127.339 16.7366 127.536 16.6379L134.247 20.2892C134.049 20.3879 133.852 20.4865 133.753 20.6839Z" fill="#671D28"/>
<path d="M133.655 22.263L126.056 18.1184C126.451 17.5263 127.832 16.4408 128.03 16.3421L135.924 20.1907C135.826 20.1907 133.951 22.0656 133.655 22.263Z" fill="#6A1D2A"/>
<path d="M134.84 20.388L127.735 16.4407C128.327 16.046 128.919 15.9473 129.314 15.8486C129.807 15.7499 130.202 15.8486 130.695 15.9473L137.406 19.5985C136.912 19.4998 136.814 19.8946 136.32 19.8946C135.925 19.9933 135.235 20.1906 134.84 20.388Z" fill="#6E1E2B"/>
<path d="M137.11 20.0918L130.695 15.9472C130.794 15.9472 130.893 16.0459 130.991 16.0459C133.261 16.934 135.333 17.8222 137.406 18.809L144.116 22.4602C142.044 21.4734 139.971 20.5853 137.702 19.6971C137.603 19.6971 137.208 20.1905 137.11 20.0918Z" fill="#6A1D2A"/>
<path d="M144.115 22.4604L137.405 18.8091C138.194 19.2039 138.885 19.5986 139.674 19.9933L146.385 23.6446C145.595 23.2498 144.905 22.8551 144.115 22.4604Z" fill="#671D28"/>
<path d="M123.886 35.9797L116.88 30.2561L126.353 17.7235L133.754 21.8681L123.886 35.9797Z" fill="#681D29"/>
<path d="M61.52 158.345L54.8097 154.694C53.0334 153.214 51.3558 151.635 49.6782 149.858L56.586 153.016C58.1649 154.793 60.5332 156.667 61.52 158.345Z" fill="#561822"/>
<path d="M56.4867 144.628L49.7764 140.977C49.7764 140.977 49.7764 140.977 49.875 140.977L56.4867 144.628C56.4867 144.628 56.5854 144.53 56.4867 144.628Z" fill="#6A1D2A"/>
<path d="M56.5849 144.53L49.8745 140.879C50.2692 140.681 50.664 140.582 51.0587 140.484C51.5521 140.385 51.9468 140.484 52.4402 140.582L59.1506 144.234C58.7559 144.135 58.2625 144.135 57.7691 144.135C57.2756 144.234 56.9796 144.431 56.5849 144.53Z" fill="#6E1E2B"/>
<path d="M59.0522 144.332L52.3418 140.582C52.5392 140.681 52.7365 140.681 52.9339 140.78L59.6443 144.431C59.5456 144.431 59.3482 144.332 59.0522 144.332Z" fill="#6A1D2A"/>
<path d="M59.7421 144.53L53.0317 140.879C53.0317 140.879 53.1304 140.879 53.1304 140.977L59.8408 144.628C59.7421 144.53 59.7421 144.53 59.7421 144.53Z" fill="#671D28"/>
<path d="M116.584 33.5126L109.972 29.2693C112.341 29.4667 114.61 29.7627 116.88 30.2561L124.38 34.3021C122.11 33.9073 118.952 33.71 116.584 33.5126Z" fill="#6E1E2B"/>
<path d="M103.756 52.8543L97.0454 49.2031C102.473 48.4136 107.802 48.7096 112.637 49.9925L119.348 53.6437C114.512 52.3609 109.282 52.0648 103.756 52.8543Z" fill="#40689D"/>
<path d="M114.511 56.1107L112.636 49.9924C115.103 50.6832 117.471 51.4727 119.741 52.6568L126.451 56.3081C124.182 55.1239 116.978 56.7028 114.511 56.1107Z" fill="#40689D"/>
<path d="M126.453 56.2095L119.742 52.5583C120.236 52.7557 120.63 53.0517 121.124 53.2491L127.834 56.9003C127.439 56.7029 126.946 56.5056 126.453 56.2095Z" fill="#40689D"/>
<path d="M111.254 41.0124L104.544 37.3612C103.656 36.8677 103.064 35.9796 102.768 34.8941L110.465 36.473C110.662 37.5585 110.366 40.519 111.254 41.0124Z" fill="#561822"/>
<path d="M43.4594 150.944L36.749 145.911L50.6632 140.582L59.0511 144.234L43.4594 150.944Z" fill="#74202D"/>
<path d="M109.478 38.5455L102.768 34.8943L99.9058 20.7828L106.616 24.434L109.478 38.5455Z" fill="#531721"/>
<path d="M33.1967 143.049L26.3877 139.3L37.2427 127.26L44.1504 130.714L33.1967 143.049Z" fill="#6B1E2A"/>
<path d="M39.7111 160.121L33.0007 156.47C32.606 156.273 32.2113 155.878 31.9152 155.483C29.6456 152.227 27.5732 148.576 25.5996 144.53C25.1062 143.444 24.7115 142.063 25.9943 139.793L32.2113 144.727C31.8166 145.911 31.8166 147.095 32.31 148.181C34.1849 152.227 36.3559 155.977 38.6256 159.135C38.823 159.529 39.2177 159.924 39.7111 160.121Z" fill="#561822"/>
<path d="M32.3097 146.306L25.106 142.359C25.2046 141.175 25.698 140.385 25.7967 140.188L32.5071 143.839C32.4084 144.234 32.4084 146.109 32.3097 146.306Z" fill="#5A1923"/>
<path d="M32.5063 144.036L25.7959 140.385C25.9933 139.398 27.4735 138.214 27.5722 138.115L34.5786 142.26C34.4799 142.359 32.6049 143.839 32.5063 144.036Z" fill="#5D1A24"/>
<path d="M32.8031 143.444L26.0928 139.793C26.1915 139.596 26.2901 139.497 26.4875 139.299L33.1979 142.951C33.0005 143.148 32.9018 143.345 32.8031 143.444Z" fill="#601B26"/>
<path d="M33.1982 143.05L26.4878 139.398L33.1982 143.05Z" fill="#641C27"/>
<path d="M43.6576 131.306L36.9472 127.655C36.2564 125.287 35.5657 122.918 35.0723 120.451L41.7826 124.103C42.276 126.57 42.8681 129.037 43.6576 131.306Z" fill="#561822"/>
<path d="M46.0268 115.813L39.3164 112.162C39.5138 112.162 39.7111 112.162 39.8098 112.261L46.5202 115.912C46.4215 115.813 46.2241 115.813 46.0268 115.813Z" fill="#6E1E2B"/>
<path d="M46.6186 115.912L39.9082 112.261C40.1056 112.359 40.3029 112.359 40.5003 112.458L47.2107 116.109C47.0133 116.011 46.8159 115.912 46.6186 115.912Z" fill="#6A1D2A"/>
<path d="M47.2104 116.109L40.5 112.458C40.5 112.458 40.5987 112.458 40.5987 112.557L47.309 116.208C47.309 116.109 47.2104 116.109 47.2104 116.109Z" fill="#671D28"/>
<path d="M80.6629 48.5122L73.9525 44.8609C73.6565 44.6636 73.3604 44.4662 73.1631 44.2689L79.8735 47.9201C80.0708 48.2161 80.3669 48.4135 80.6629 48.5122Z" fill="#561822"/>
<path d="M84.0194 39.5323L77.3091 35.881C77.7038 35.6837 78.1972 35.4863 78.5919 35.2889L85.3023 38.9402C84.8089 39.1375 84.4142 39.3349 84.0194 39.5323Z" fill="#6A1D2A"/>
<path d="M83.9196 41.5058L78.5908 35.2888C80.4658 34.4007 82.3407 33.6112 84.2157 32.9205L93.6891 36.9664C91.8142 37.6572 85.6959 40.6177 83.9196 41.5058Z" fill="#6E1E2B"/>
<path d="M92.406 37.4598L84.1167 32.9204L87.1758 17.6248L97.8335 19.7958L92.406 37.4598Z" fill="#591923"/>
<path d="M93.8876 21.2762L87.1772 17.625C87.2759 17.3289 87.2759 17.1316 87.3746 16.8355L94.085 20.4867C94.085 20.7828 93.9863 20.9801 93.8876 21.2762Z" fill="#561822"/>
<path d="M94.0844 20.4865L87.374 16.8353C87.4727 16.6379 87.5714 16.3419 87.6701 16.1445L94.3804 19.7958C94.2818 19.9931 94.1831 20.2892 94.0844 20.4865Z" fill="#5A1923"/>
<path d="M94.3808 19.7958L87.6704 16.1445C87.7691 15.9472 87.8678 15.7498 87.9665 15.6511L94.6768 19.3024C94.6768 19.4997 94.4795 19.5984 94.3808 19.7958Z" fill="#5D1A24"/>
<path d="M94.3802 23.8418L87.8672 15.7498C87.9659 15.5525 88.3606 15.1578 88.558 14.9604L97.0446 17.9208C96.8472 18.1182 94.4789 23.6444 94.3802 23.8418Z" fill="#591923"/>
<path d="M95.0712 18.809L88.3608 15.1578C88.4595 15.0591 88.6569 14.8617 88.7556 14.7631L95.4659 18.4143C95.3672 18.6117 95.2686 18.7103 95.0712 18.809Z" fill="#641C27"/>
<path d="M94.3802 23.8419L86.8804 18.3157C87.2751 15.3553 88.9527 14.4672 89.1501 14.3685L97.4393 17.921C97.4393 18.1184 94.5776 23.7432 94.3802 23.8419Z" fill="#591923"/>
<path d="M96.5515 18.8092L89.249 14.3685C89.4464 14.2698 90.0385 13.9737 90.3345 13.8751L98.2291 18.0197C98.0317 18.2171 96.7488 18.7105 96.5515 18.8092Z" fill="#6A1D2A"/>
<path d="M97.4393 18.7103L89.8408 14.0723C90.1369 13.9736 90.4329 13.8749 90.729 13.7762C92.8013 13.2828 94.9723 12.8881 97.1433 12.592C99.2156 12.296 101.387 12.0986 103.459 11.9999C103.854 11.9999 104.15 11.9999 104.544 12.0986L111.255 15.7498C110.959 15.6512 110.959 16.8353 110.564 16.8353C108.492 16.934 106.715 17.1314 104.643 17.4274C102.472 17.7235 100.696 17.9208 98.5248 18.4143C98.2288 18.3156 97.7354 18.5129 97.4393 18.7103Z" fill="#6E1E2B"/>
<path d="M110.861 16.046L104.545 12.0987C104.742 12.1974 104.94 12.1974 105.137 12.2961L111.847 15.9473C111.65 15.8486 111.058 16.046 110.861 16.046Z" fill="#6A1D2A"/>
<path d="M111.847 15.9472L105.137 12.296C105.137 12.296 105.235 12.296 105.235 12.3947L111.946 16.0459C111.946 15.9472 111.946 15.9472 111.847 15.9472Z" fill="#671D28"/>
<path d="M79.4796 146.109L72.7692 142.457C60.138 135.55 51.75 121.537 51.75 104.169C51.75 97.5571 53.0329 91.0441 55.2039 85.0245L66.5523 87.689C64.2826 93.7085 58.4604 101.208 58.4604 107.82C58.4604 125.188 66.8483 139.3 79.4796 146.109Z" fill="#40689D"/>
<path d="M62.0131 88.7744L55.2041 85.0245C56.1909 82.3601 57.3751 79.8931 58.7566 77.426L69.1182 78.8076C67.7367 81.2746 62.9013 86.11 62.0131 88.7744Z" fill="#40689D"/>
<path d="M65.3681 81.1759L58.6577 77.5246C59.7432 75.4523 61.0261 73.4787 62.3089 71.5051L75.4336 70.913C74.1508 72.8866 66.5523 79.1036 65.3681 81.1759Z" fill="#40689D"/>
<path d="M69.1172 75.1564L62.3081 71.5052C63.591 69.7289 64.9725 67.9526 66.3541 66.3737L77.8998 67.2619C76.5183 68.8408 70.4 73.3801 69.1172 75.1564Z" fill="#40689D"/>
<path d="M73.1645 70.0249L66.4541 66.3737C67.9343 64.6961 69.4146 63.1172 71.0921 61.7356L87.572 58.8738C85.7957 60.2554 74.6447 68.3473 73.1645 70.0249Z" fill="#40689D"/>
<path d="M77.8017 65.2883L71.0913 61.637C72.8676 60.0581 74.6439 58.5779 76.5188 57.295L83.2292 60.9463C81.3542 62.3278 79.5779 63.808 77.8017 65.2883Z" fill="#40689D"/>
<path d="M83.2294 61.0448L76.519 57.3936C78.8874 55.8147 81.3545 54.3344 83.8215 53.1502L102.176 52.9529C99.7093 54.1371 85.5978 59.3672 83.2294 61.0448Z" fill="#40689D"/>
<path d="M90.6303 56.8014L83.9199 53.1502C88.0646 51.1766 92.5052 49.795 97.0446 49.2029L109.972 52.6568C105.433 53.2489 94.7749 54.8278 90.6303 56.8014Z" fill="#40689D"/>
<path d="M103.544 150.253L103.558 150.352L103.544 150.253C78.7436 153.697 58.5601 134.806 58.56 107.919C58.6586 81.1217 78.9554 56.3995 103.769 52.9532C128.569 49.5087 148.752 68.3999 148.753 95.287C148.654 122.084 128.456 146.806 103.544 150.253ZM103.571 141.569C124.053 138.7 140.663 118.424 140.663 96.3728L66.7492 106.734L66.6492 106.734C66.6492 106.734 66.6492 106.734 66.6492 106.734C66.5504 128.793 83.1752 144.441 103.571 141.569Z" fill="#B4D1FA" stroke="black" stroke-width="0.2"/>
<path d="M31.1252 116.109L25.895 110.484L40.4013 112.261L47.4077 116.208L31.1252 116.109Z" fill="#72202D"/>
<path d="M42.7699 97.5572L35.1714 92.6231C35.6648 90.0574 36.2569 87.3929 37.0463 84.9259L45.6317 88.0837C44.8422 90.6495 43.2633 94.9915 42.7699 97.5572Z" fill="#561822"/>
<path d="M79.8756 47.9202L73.1652 44.269L63.9878 34.5981L70.6982 38.2494L79.8756 47.9202Z" fill="#531721"/>
<path d="M57.2766 64.2026L49.8755 59.0711C51.257 57.1962 52.7373 55.4199 54.2175 53.7423L62.5068 58.183C60.9279 59.8606 58.6582 62.3276 57.2766 64.2026Z" fill="#601B26"/>
<path d="M62.0133 59.6632L53.8228 54.137C54.1188 53.841 54.7109 53.0515 55.0069 52.7555L62.6054 56.8014C62.3094 57.1962 62.2107 59.4659 62.0133 59.6632Z" fill="#641C27"/>
<path d="M29.2505 102.195L21.356 97.7543L35.2701 92.6229L43.6581 97.2609L29.2505 102.195Z" fill="#75202E"/>
<path d="M26.7832 122.425L20.0728 118.774C19.086 118.182 18.3952 117.096 18.2965 115.813C18.0992 113.544 18.0005 111.274 18.0005 109.004C18.0005 106.735 18.1979 104.366 18.2965 102.097C18.2965 101.603 18.3952 101.208 18.5926 100.715L25.3029 104.366C25.1056 104.761 25.0069 105.254 25.0069 105.748C24.8095 108.017 24.7109 110.386 24.7109 112.655C24.7109 115.024 25.5003 116.997 25.6977 119.267C25.6977 120.649 25.6977 121.932 26.7832 122.425Z" fill="#561822"/>
<path d="M25.2045 104.366L18.4941 100.715C18.5928 100.517 18.6915 100.221 18.7902 100.024L25.5006 103.675C25.4019 103.971 25.3032 104.169 25.2045 104.366Z" fill="#5A1923"/>
<path d="M25.5009 103.675L18.7905 100.024C18.8892 99.8267 18.9879 99.6293 19.0866 99.5306L25.7969 103.182C25.7969 103.379 25.5996 103.577 25.5009 103.675Z" fill="#5D1A24"/>
<path d="M25.7963 118.675L18.1978 105.353C17.7043 98.2478 20.6648 98.1491 22.4411 97.3597L26.3884 102.689C26.0923 102.886 25.8949 118.576 25.7963 118.675Z" fill="#561822"/>
<path d="M26.1913 102.787L19.481 99.1361C19.5796 99.0374 19.777 98.84 19.8757 98.7413L26.586 102.393C26.4874 102.491 26.3887 102.59 26.1913 102.787Z" fill="#641C27"/>
<path d="M26.4877 103.182L19.876 98.7412C20.0733 98.6425 20.172 98.4452 20.3694 98.3465L28.1653 101.998C28.0666 102.096 26.685 102.985 26.4877 103.182Z" fill="#671D28"/>
<path d="M27.0795 101.998L20.3691 98.3466C20.5665 98.2479 20.7639 98.0505 20.9612 97.9518L27.6716 101.603C27.4742 101.702 27.2769 101.8 27.0795 101.998Z" fill="#6A1D2A"/>
<path d="M27.7714 102.491L21.061 97.9518C21.1597 97.8531 22.2452 97.3597 22.3439 97.3597L31.0279 101.504C30.9292 101.504 27.8701 102.392 27.7714 102.491Z" fill="#6E1E2B"/>
<path d="M62.5073 57.1962L54.9088 52.8542L50.6655 38.9401L58.3627 42.4926L62.5073 57.1962Z" fill="#531721"/>
<path d="M57.3754 42.5913L50.6651 38.9401C50.369 37.9533 50.4677 36.9664 50.7638 35.9796L57.4741 39.6308C57.1781 40.6177 57.0794 41.7032 57.3754 42.5913Z" fill="#561822"/>
<path d="M57.4745 39.6309L50.7642 35.9797C50.8628 35.7823 50.9615 35.4862 51.0602 35.2889L57.7706 38.9401C57.6719 39.2362 57.5732 39.4335 57.4745 39.6309Z" fill="#5A1923"/>
<path d="M57.7694 39.0386L51.0591 35.3874C51.1578 35.19 51.2564 34.9927 51.3551 34.894L58.0655 38.5452C57.9668 38.6439 57.8681 38.8413 57.7694 39.0386Z" fill="#5D1A24"/>
<path d="M58.4598 43.3808L50.664 38.9401C49.9732 36.2757 51.5521 34.4994 51.7495 34.3021L58.4598 37.9533C58.3611 38.1507 58.5585 43.2821 58.4598 43.3808Z" fill="#531721"/>
<path d="M58.9548 41.0124L51.751 34.4007C51.8497 34.302 52.047 34.1047 52.1457 34.006L60.2376 38.0519C60.1389 38.1506 59.0534 40.815 58.9548 41.0124Z" fill="#641C27"/>
<path d="M60.7313 38.8415L52.146 34.0061C54.8104 31.6377 57.7709 29.368 60.9287 27.197L67.639 30.8482C66.9483 35.881 63.4944 36.4731 60.7313 38.8415Z" fill="#671D28"/>
<path d="M66.059 34.8941L60.3354 27.5916C61.1249 27.0982 62.4078 26.1114 63.1972 25.618C63.3946 25.5193 63.7893 25.3219 64.184 25.1246L73.5588 28.8745C73.3615 28.9732 71.5852 30.5521 71.4865 30.6508C70.7957 31.1442 66.8485 34.4007 66.059 34.8941Z" fill="#6A1D2A"/>
<path d="M70.5 28.9732L63.6909 25.322C64.0856 25.1246 64.5791 25.0259 64.9738 24.9272C65.4672 24.8285 65.8619 24.9272 66.3553 25.0259L73.0657 28.6771C72.671 28.5785 72.1776 28.5785 71.6841 28.5785C71.2894 28.6771 70.8947 28.7758 70.5 28.9732Z" fill="#6E1E2B"/>
<path d="M72.9667 28.677L66.2563 25.0258C66.4537 25.1245 66.6511 25.1245 66.8484 25.2232L73.5588 28.8744C73.4601 28.7757 73.2628 28.677 72.9667 28.677Z" fill="#6A1D2A"/>
<path d="M73.6575 28.8744L66.2563 25.0258C66.2563 25.0258 67.0458 25.2232 67.0458 25.3219L73.7562 28.9731C73.6575 28.9731 73.6575 28.8744 73.6575 28.8744Z" fill="#671D28"/>
<path d="M45.6325 89.3664L36.9485 84.9258L26.5869 76.1431L33.2973 79.7943L45.6325 89.3664Z" fill="#531721"/>
<path d="M42.9681 61.2423L36.4551 56.3082L49.7771 59.0713L57.7704 63.4133L42.9681 61.2423Z" fill="#6F1F2C"/>
<path d="M38.823 84.235L26.5864 76.1431C25.3036 75.0576 25.0075 73.2813 25.5996 71.5051L33.8889 75.0576C33.2968 76.8339 37.6388 83.2482 38.823 84.235Z" fill="#561822"/>
<path d="M32.3105 75.1563L25.6001 71.5051C25.6001 71.4064 25.6988 71.4064 25.6988 71.3077C27.0803 67.9525 28.6592 64.696 30.2381 61.6369L38.9221 65.5842C37.3432 68.6433 35.1722 72.2945 33.7907 75.7484C33.7907 75.9458 32.3105 75.1563 32.3105 75.1563Z" fill="#5A1923"/>
<path d="M38.2305 67.3603L30.2373 61.6368C30.8294 60.5513 31.4215 59.5645 32.0136 58.479C32.1123 58.3803 32.2109 58.2816 32.2109 58.0842L40.3029 62.4262C40.2042 62.5249 39.2174 63.6104 39.2174 63.8078C38.6253 64.7946 38.8226 66.2748 38.2305 67.3603Z" fill="#5D1A24"/>
<path d="M38.9213 61.8342L32.2109 58.183C32.3096 57.9856 32.4083 57.8869 32.6057 57.6896L39.316 61.3408C39.2173 61.5382 39.1187 61.7355 38.9213 61.8342Z" fill="#601B26"/>
<path d="M37.9345 65.5843L30.2373 61.7357C32.4083 57.3937 33.0004 57.295 33.0004 57.295L40.7963 60.8475C40.6976 61.0449 38.0332 65.3869 37.9345 65.5843Z" fill="#641C27"/>
<path d="M39.8105 62.9197L33.0015 57.2948C33.2975 56.9988 33.7909 56.8014 33.9883 56.7028L40.2052 60.5514C40.0079 60.7487 40.0079 62.821 39.8105 62.9197Z" fill="#671D28"/>
<path d="M40.205 60.65L33.4946 56.9987C33.692 56.9 33.8894 56.7027 34.0867 56.604L40.7971 60.2552C40.5997 60.3539 40.4024 60.4526 40.205 60.65Z" fill="#6A1D2A"/>
<path d="M40.6981 61.5381L34.0864 56.604C34.4812 56.4066 34.8759 56.308 35.2706 56.2093C35.6653 56.1106 36.0601 56.2093 36.4548 56.308L43.1652 59.8605C42.7704 59.7618 42.3757 59.7618 41.981 59.8605C41.5862 59.9592 41.0928 61.3407 40.6981 61.5381Z" fill="#6E1E2B"/>
<mask id="mask0" mask-type="alpha" maskUnits="userSpaceOnUse" x="24" y="15" width="159" height="173">
<path d="M182.405 83.6429C182.602 85.9125 182.701 88.1822 182.701 90.4519C182.701 92.8203 182.504 95.09 182.405 97.3596C182.306 99.2346 181.023 101.011 179.247 101.603L165.432 106.734C164.938 109.3 164.346 111.965 163.557 114.432L173.918 123.116C175.201 124.201 175.596 126.175 174.807 127.951C172.932 132.589 170.761 136.832 168.491 140.681C167.701 141.964 166.517 142.852 165.234 142.951C164.84 143.049 164.445 142.951 164.05 142.951L150.629 140.188C149.051 142.359 147.274 144.431 145.498 146.405L149.741 160.22C150.235 161.898 149.643 163.97 148.261 165.253C145.005 168.213 141.255 170.976 137.209 173.641C136.617 174.035 136.123 174.233 135.531 174.331C134.446 174.529 133.36 174.134 132.571 173.345L123.097 163.378C120.828 164.463 118.558 165.45 116.189 166.338L113.229 181.634C112.834 183.509 111.453 185.088 109.676 185.483C107.604 185.976 105.433 186.371 103.361 186.765C101.19 187.061 99.1175 187.16 97.0452 187.357C95.2689 187.456 93.8874 186.272 93.4927 184.496L90.5322 170.088C88.1638 169.891 85.8942 169.595 83.6245 169.101L74.151 181.634C73.3616 182.621 72.2761 183.312 71.1906 183.41C70.5985 183.509 70.0064 183.41 69.513 183.213C65.467 181.733 61.8158 179.956 58.5593 177.983C57.0791 177.095 56.487 175.22 57.0791 173.345L61.4211 158.246C59.6448 156.766 57.9672 155.187 56.2896 153.411L42.8689 159.924C42.4742 160.121 42.0794 160.22 41.6847 160.319C40.4018 160.516 39.2177 160.023 38.4282 158.937C36.1585 155.681 34.0862 152.029 32.1126 147.983C31.3231 146.405 31.7178 144.332 33.0007 142.852L43.461 131.208C42.7702 128.839 42.0794 126.471 41.586 124.004L28.0666 122.82C26.389 122.622 25.1062 121.241 25.0075 119.464C24.8101 117.195 24.7114 114.925 24.7114 112.655C24.7114 110.386 24.9088 108.017 25.0075 105.748C25.1062 103.873 26.389 102.096 28.1653 101.504L41.9807 96.3728C42.4742 93.8071 43.0662 91.1427 43.8557 88.6756L33.4941 79.893C32.2112 78.8074 31.8165 76.8338 32.606 75.0575C34.4809 70.4195 36.6519 66.1762 38.9216 62.3276C39.7111 61.0447 40.8952 60.1566 42.1781 60.0579C42.5728 59.9592 42.9676 60.0579 43.3623 60.0579L56.783 62.821C58.3619 60.65 60.1382 58.5777 61.9145 56.604L57.6712 42.7886C57.1778 41.111 57.7698 39.0387 59.1514 37.7558C62.4079 34.7953 66.1578 32.0323 70.2038 29.3678C70.7958 28.9731 71.2893 28.7758 71.8813 28.6771C72.9668 28.4797 74.0523 28.8744 74.8418 29.6639L84.3153 39.6308C86.5849 38.5453 88.8546 37.5584 91.223 36.6703L94.1834 21.3746C94.5782 19.4997 95.9597 17.9208 97.736 17.526C99.8083 17.0326 101.979 16.6379 104.15 16.3418C106.223 16.0458 108.394 15.8484 110.466 15.7498C112.242 15.6511 113.624 16.8353 114.018 18.6115L116.979 33.0191C119.347 33.2164 121.617 33.5125 123.887 34.0059L133.36 21.3746C134.15 20.3878 135.235 19.697 136.321 19.5983C136.913 19.4997 137.505 19.5983 137.998 19.7957C142.044 21.2759 145.695 23.0522 148.952 25.0258C150.333 25.914 151.024 27.7889 150.432 29.6639L146.09 44.7622C147.866 46.2424 149.544 47.8214 151.222 49.5976L164.642 43.0846C165.037 42.8873 165.432 42.7886 165.826 42.6899C167.109 42.4925 168.294 42.9859 169.083 44.0714C171.353 47.3279 173.425 50.9792 175.399 55.0251C176.188 56.604 175.793 58.6764 174.51 60.1566L164.05 71.801C164.84 74.1694 165.432 76.5378 165.925 79.0048L179.741 80.2877C181.023 80.3864 182.306 81.7679 182.405 83.6429ZM174.708 94.5965C174.807 93.6097 174.807 92.5242 174.807 91.5374C174.807 90.5506 174.807 89.5638 174.708 88.4783L161.287 87.2941C159.708 87.1954 158.524 85.9125 158.228 84.235C157.636 80.3864 156.649 76.6365 155.366 73.1826C154.774 71.6037 155.169 69.7287 156.452 68.3472L166.616 56.9988C165.728 55.3212 164.84 53.6436 163.853 52.1634L150.827 58.479C150.432 58.6764 150.037 58.775 149.643 58.8737C148.458 59.0711 147.373 58.6764 146.584 57.6895C144.215 54.9264 141.649 52.4594 138.788 50.3871C137.505 49.4003 137.011 47.7227 137.505 45.9464L141.748 31.3415C140.169 30.552 138.59 29.7626 136.913 29.0718L127.735 41.3083C126.946 42.2952 125.86 42.9859 124.775 43.0846C124.281 43.1833 123.788 43.0846 123.393 42.9859C119.939 42.0978 116.387 41.5057 112.736 41.407C111.157 41.3084 109.874 40.2229 109.479 38.5453L106.617 24.4338C105.729 24.5324 104.742 24.6311 103.854 24.7298C102.966 24.8285 101.979 25.0258 101.091 25.2232L98.1307 40.1242C97.736 41.9004 96.4531 43.3807 94.8742 43.8741C91.223 45.0583 87.6704 46.5385 84.2166 48.4134C83.7232 48.7095 83.3284 48.8082 82.835 48.9069C81.7495 49.1042 80.664 48.7095 79.8746 47.92L70.6972 38.2492C69.0196 39.4334 67.342 40.6176 65.8618 41.9004L70.0064 55.4199C70.4998 56.9988 70.0064 58.8737 68.7235 60.1566C65.8618 63.117 63.1973 66.2749 60.9277 69.7287C60.1382 70.8142 59.0527 71.6037 57.8685 71.7024C57.4738 71.801 57.0791 71.7024 56.6843 71.7024L43.6583 69.0379C42.6715 70.8142 41.7834 72.6892 40.8952 74.6628L51.0595 83.1495C52.2437 84.1363 52.6384 85.9125 52.0463 87.6888C50.7634 91.5374 49.7766 95.5834 49.1845 99.5306C48.8885 101.307 47.7043 102.886 46.1254 103.478L32.606 108.511C32.5073 109.498 32.5073 110.484 32.5073 111.57C32.5073 112.557 32.5073 113.642 32.606 114.629L46.0267 115.813C47.6056 115.912 48.7898 117.195 49.0858 118.872C49.6779 122.721 50.6647 126.471 51.9476 129.925C52.5397 131.504 52.145 133.379 50.8621 134.76L40.6979 146.108C41.586 147.786 42.4742 149.464 43.461 150.944L56.487 144.628C56.8817 144.431 57.2764 144.332 57.6712 144.234C58.8553 144.036 59.9408 144.431 60.7303 145.319C63.0987 148.082 65.6644 150.549 68.5262 152.621C69.809 153.608 70.3024 155.286 69.809 157.062L65.5657 171.766C67.1446 172.555 68.7235 173.345 70.4011 174.035L79.5785 161.799C80.368 160.812 81.4535 160.121 82.539 160.023C83.0324 159.924 83.5258 160.023 83.9205 160.121C87.3744 161.009 90.9269 161.602 94.5782 161.7C96.1571 161.799 97.4399 162.884 97.8347 164.562L100.696 178.673C101.585 178.575 102.571 178.476 103.46 178.377C104.348 178.279 105.334 178.081 106.223 177.884L109.183 162.983C109.578 161.207 110.861 159.727 112.44 159.233C116.091 158.049 119.643 156.569 123.097 154.694C123.591 154.398 123.985 154.299 124.479 154.2C125.564 154.003 126.65 154.398 127.439 155.187L136.617 164.858C138.294 163.674 139.972 162.49 141.452 161.207L137.307 147.687C136.814 146.108 137.307 144.234 138.59 142.852C141.452 139.892 144.116 136.734 146.386 133.28C147.176 132.194 148.261 131.405 149.445 131.306C149.84 131.208 150.235 131.306 150.629 131.306L163.655 133.971C164.642 132.194 165.53 130.319 166.419 128.346L156.254 119.859C155.07 118.872 154.675 117.096 155.268 115.32C156.55 111.471 157.537 107.425 158.129 103.478C158.425 101.702 159.61 100.123 161.188 99.5306L174.708 94.5965Z" fill="white"/>
</mask>
<g mask="url(#mask0)">
<path d="M182.405 83.6429C182.602 85.9125 182.701 88.1822 182.701 90.4519C182.701 92.8203 182.504 95.09 182.405 97.3596C182.306 99.2346 181.023 101.011 179.247 101.603L165.432 106.734C164.938 109.3 164.346 111.965 163.557 114.432L173.918 123.116C175.201 124.201 175.596 126.175 174.807 127.951C172.932 132.589 170.761 136.832 168.491 140.681C167.701 141.964 166.517 142.852 165.234 142.951C164.84 143.049 164.445 142.951 164.05 142.951L150.629 140.188C149.051 142.359 147.274 144.431 145.498 146.405L149.741 160.22C150.235 161.898 149.643 163.97 148.261 165.253C145.005 168.213 141.255 170.976 137.209 173.641C136.617 174.035 136.123 174.233 135.531 174.331C134.446 174.529 133.36 174.134 132.571 173.345L123.097 163.378C120.828 164.463 118.558 165.45 116.189 166.338L113.229 181.634C112.834 183.509 111.453 185.088 109.676 185.483C107.604 185.976 105.433 186.371 103.361 186.765C101.19 187.061 99.1175 187.16 97.0452 187.357C95.2689 187.456 93.8874 186.272 93.4927 184.496L90.5322 170.088C88.1638 169.891 85.8942 169.595 83.6245 169.101L74.151 181.634C73.3616 182.621 72.2761 183.312 71.1906 183.41C70.5985 183.509 70.0064 183.41 69.513 183.213C65.467 181.733 61.8158 179.956 58.5593 177.983C57.0791 177.095 56.487 175.22 57.0791 173.345L61.4211 158.246C59.6448 156.766 57.9672 155.187 56.2896 153.411L42.8689 159.924C42.4742 160.121 42.0794 160.22 41.6847 160.319C40.4018 160.516 39.2177 160.023 38.4282 158.937C36.1585 155.681 34.0862 152.029 32.1126 147.983C31.3231 146.405 31.7178 144.332 33.0007 142.852L43.461 131.208C42.7702 128.839 42.0794 126.471 41.586 124.004L28.0666 122.82C26.389 122.622 25.1062 121.241 25.0075 119.464C24.8101 117.195 24.7114 114.925 24.7114 112.655C24.7114 110.386 24.9088 108.017 25.0075 105.748C25.1062 103.873 26.389 102.096 28.1653 101.504L41.9807 96.3728C42.4742 93.8071 43.0662 91.1427 43.8557 88.6756L33.4941 79.893C32.2112 78.8074 31.8165 76.8338 32.606 75.0575C34.4809 70.4195 36.6519 66.1762 38.9216 62.3276C39.7111 61.0447 40.8952 60.1566 42.1781 60.0579C42.5728 59.9592 42.9676 60.0579 43.3623 60.0579L56.783 62.821C58.3619 60.65 60.1382 58.5777 61.9145 56.604L57.6712 42.7886C57.1778 41.111 57.7698 39.0387 59.1514 37.7558C62.4079 34.7953 66.1578 32.0323 70.2038 29.3678C70.7958 28.9731 71.2893 28.7758 71.8813 28.6771C72.9668 28.4797 74.0523 28.8744 74.8418 29.6639L84.3153 39.6308C86.5849 38.5453 88.8546 37.5584 91.223 36.6703L94.1834 21.3746C94.5782 19.4997 95.9597 17.9208 97.736 17.526C99.8083 17.0326 101.979 16.6379 104.15 16.3418C106.223 16.0458 108.394 15.8484 110.466 15.7498C112.242 15.6511 113.624 16.8353 114.018 18.6115L116.979 33.0191C119.347 33.2164 121.617 33.5125 123.887 34.0059L133.36 21.3746C134.15 20.3878 135.235 19.697 136.321 19.5983C136.913 19.4997 137.505 19.5983 137.998 19.7957C142.044 21.2759 145.695 23.0522 148.952 25.0258C150.333 25.914 151.024 27.7889 150.432 29.6639L146.09 44.7622C147.866 46.2424 149.544 47.8214 151.222 49.5976L164.642 43.0846C165.037 42.8873 165.432 42.7886 165.826 42.6899C167.109 42.4925 168.294 42.9859 169.083 44.0714C171.353 47.3279 173.425 50.9792 175.399 55.0251C176.188 56.604 175.793 58.6764 174.51 60.1566L164.05 71.801C164.84 74.1694 165.432 76.5378 165.925 79.0048L179.741 80.2877C181.023 80.3864 182.306 81.7679 182.405 83.6429ZM174.708 94.5965C174.807 93.6097 174.807 92.5242 174.807 91.5374C174.807 90.5506 174.807 89.5638 174.708 88.4783L161.287 87.2941C159.708 87.1954 158.524 85.9125 158.228 84.235C157.636 80.3864 156.649 76.6365 155.366 73.1826C154.774 71.6037 155.169 69.7287 156.452 68.3472L166.616 56.9988C165.728 55.3212 164.84 53.6436 163.853 52.1634L150.827 58.479C150.432 58.6764 150.037 58.775 149.643 58.8737C148.458 59.0711 147.373 58.6764 146.584 57.6895C144.215 54.9264 141.649 52.4594 138.788 50.3871C137.505 49.4003 137.011 47.7227 137.505 45.9464L141.748 31.3415C140.169 30.552 138.59 29.7626 136.913 29.0718L127.735 41.3083C126.946 42.2952 125.86 42.9859 124.775 43.0846C124.281 43.1833 123.788 43.0846 123.393 42.9859C119.939 42.0978 116.387 41.5057 112.736 41.407C111.157 41.3084 109.874 40.2229 109.479 38.5453L106.617 24.4338C105.729 24.5324 104.742 24.6311 103.854 24.7298C102.966 24.8285 101.979 25.0258 101.091 25.2232L98.1307 40.1242C97.736 41.9004 96.4531 43.3807 94.8742 43.8741C91.223 45.0583 87.6704 46.5385 84.2166 48.4134C83.7232 48.7095 83.3284 48.8082 82.835 48.9069C81.7495 49.1042 80.664 48.7095 79.8746 47.92L70.6972 38.2492C69.0196 39.4334 67.342 40.6176 65.8618 41.9004L70.0064 55.4199C70.4998 56.9988 70.0064 58.8737 68.7235 60.1566C65.8618 63.117 63.1973 66.2749 60.9277 69.7287C60.1382 70.8142 59.0527 71.6037 57.8685 71.7024C57.4738 71.801 57.0791 71.7024 56.6843 71.7024L43.6583 69.0379C42.6715 70.8142 41.7834 72.6892 40.8952 74.6628L51.0595 83.1495C52.2437 84.1363 52.6384 85.9125 52.0463 87.6888C50.7634 91.5374 49.7766 95.5834 49.1845 99.5306C48.8885 101.307 47.7043 102.886 46.1254 103.478L32.606 108.511C32.5073 109.498 32.5073 110.484 32.5073 111.57C32.5073 112.557 32.5073 113.642 32.606 114.629L46.0267 115.813C47.6056 115.912 48.7898 117.195 49.0858 118.872C49.6779 122.721 50.6647 126.471 51.9476 129.925C52.5397 131.504 52.145 133.379 50.8621 134.76L40.6979 146.108C41.586 147.786 42.4742 149.464 43.461 150.944L56.487 144.628C56.8817 144.431 57.2764 144.332 57.6712 144.234C58.8553 144.036 59.9408 144.431 60.7303 145.319C63.0987 148.082 65.6644 150.549 68.5262 152.621C69.809 153.608 70.3024 155.286 69.809 157.062L65.5657 171.766C67.1446 172.555 68.7235 173.345 70.4011 174.035L79.5785 161.799C80.368 160.812 81.4535 160.121 82.539 160.023C83.0324 159.924 83.5258 160.023 83.9205 160.121C87.3744 161.009 90.9269 161.602 94.5782 161.7C96.1571 161.799 97.4399 162.884 97.8347 164.562L100.696 178.673C101.585 178.575 102.571 178.476 103.46 178.377C104.348 178.279 105.334 178.081 106.223 177.884L109.183 162.983C109.578 161.207 110.861 159.727 112.44 159.233C116.091 158.049 119.643 156.569 123.097 154.694C123.591 154.398 123.985 154.299 124.479 154.2C125.564 154.003 126.65 154.398 127.439 155.187L136.617 164.858C138.294 163.674 139.972 162.49 141.452 161.207L137.307 147.687C136.814 146.108 137.307 144.234 138.59 142.852C141.452 139.892 144.116 136.734 146.386 133.28C147.176 132.194 148.261 131.405 149.445 131.306C149.84 131.208 150.235 131.306 150.629 131.306L163.655 133.971C164.642 132.194 165.53 130.319 166.419 128.346L156.254 119.859C155.07 118.872 154.675 117.096 155.268 115.32C156.55 111.471 157.537 107.425 158.129 103.478C158.425 101.702 159.61 100.123 161.188 99.5306L174.708 94.5965Z" fill="#A62E41" stroke="black" stroke-width="0.4"/>
</g>
</svg>
