<svg width="126" height="144" viewBox="0 0 126 144" fill="none" xmlns="http://www.w3.org/2000/svg">
<path d="M70.3224 126.622C101.854 123.168 125.942 95.6696 125.942 63.1791C125.942 28.4179 97.7626 0.238281 63.0014 0.238281C28.2401 0.238281 0.0605469 28.4179 0.0605469 63.1791C0.0605469 90.1532 17.0288 113.164 40.8736 122.12L22.6348 143.338L57.3612 129.48C61.4879 127.833 65.9056 127.106 70.3224 126.622Z" fill="#B6D7FF"/>
<path d="M57.6669 75.1787L55.427 24.7803H72.5624L70.2105 75.1787H57.6669ZM63.9387 100.602C59.0109 100.602 54.867 96.458 54.867 91.6421C54.867 86.7143 59.0109 82.5704 63.9387 82.5704C68.8666 82.5704 72.8984 86.7143 72.8984 91.6421C72.8984 96.458 68.8666 100.602 63.9387 100.602Z" fill="white"/>
</svg>
