<svg width="126" height="144" fill="none" xmlns="http://www.w3.org/2000/svg"><path d="M70.322 126.622c31.532-3.454 55.62-30.952 55.62-63.443 0-34.761-28.18-62.94-62.94-62.94C28.24.238.06 28.417.06 63.178c0 26.974 16.968 49.985 40.813 58.941l-18.24 21.218 34.727-13.858c4.127-1.647 8.545-2.374 12.961-2.858z" fill="#B6D7FF"/><path d="M57.667 75.179l-2.24-50.399h17.135l-2.352 50.4H57.667zm6.272 25.423c-4.928 0-9.072-4.144-9.072-8.96 0-4.928 4.144-9.072 9.072-9.072 4.928 0 8.96 4.144 8.96 9.072 0 4.816-4.032 8.96-8.96 8.96z" fill="#fff"/></svg>