<svg width="32" height="32" fill="none" xmlns="http://www.w3.org/2000/svg"><path d="M15.99 7l4.56 1.946 5.266 2.247.096 11.149-9.922 3.293L6 22.342l.202-11.17 4.186-2.845 1.175.445c.463-.197 1.084-.393 1.54-.587L11.987 7.8 15.99 7z" fill="#B4D1FA"/><path d="M6.202 11.172l9.788 3.957m-9.788-3.957l4.894 1.979 4.894 1.978m-9.788-3.957L6 22.342l9.99 3.293M6.202 11.172l4.186-2.845 1.175.445M15.99 7l9.826 4.193M15.99 7l4.56 1.946 5.266 2.247M15.99 7l-4.002.8 1.114.385m12.714 3.008l-9.826 3.936m9.826-3.936l-4.368.334-3.262-1.256m7.63.922l.096 11.149-9.922 3.293m0-10.506l3.452-3.258-2.633-1.053m-.819 4.311v10.506m-.64-15.364l1.459-.567m-1.459.567l1.459.547m-1.459-.547l-3.787-1.499m5.246.932l1.377.567m-1.377-.567l-3.707-1.52m3.707 2.634l1.377-.547m-6.623-1.499c.463-.197 1.084-.393 1.54-.587" stroke="#0A3D76" stroke-width=".7" stroke-linejoin="round"/></svg>