<svg width="32" height="32" viewBox="0 0 32 32" fill="none" xmlns="http://www.w3.org/2000/svg">
<path d="M6.20156 11.1729L15.989 15.1314M6.20156 11.1729L11.0953 13.1522L15.989 15.1314M6.20156 11.1729L6 22.3457L15.989 25.64M6.20156 11.1729L10.3875 8.32692L11.5622 8.77266M15.989 7L25.814 11.1936M15.989 7L20.549 8.94635L25.814 11.1936M15.989 7L11.9875 7.80015L13.1015 8.1851M25.814 11.1936L15.989 15.1314M25.814 11.1936L21.446 11.5281L18.1851 10.2719M25.814 11.1936L25.91 22.3457L15.989 25.64M15.989 15.1314L19.4409 11.8725L16.8079 10.819M15.989 15.1314V25.64M15.3496 10.2719L16.8079 9.70465M15.3496 10.2719L16.8079 10.819M15.3496 10.2719L11.5622 8.77266M16.8079 9.70465L18.1851 10.2719M16.8079 9.70465L13.1015 8.1851M16.8079 10.819L18.1851 10.2719M11.5622 8.77266C12.0259 8.57514 12.6459 8.3796 13.1015 8.1851" stroke="#0A3D76" stroke-width="0.7" stroke-linejoin="round"/>
</svg>
