<svg width="33" height="33" fill="none" xmlns="http://www.w3.org/2000/svg"><path d="M9.65 19.492l-.382.383.15 8.235.894.582h1.356l1.046-.582v-7.852l-.616-.766H9.65zm6.427-1.981l-.79.24v10.662l.79.246h1.702l.681-.56v-9.935c.137-.472-.211-.391-.68-.653h-1.703zm5.007-4.499l-.38.821v14.272l1.02.62h1.589l1.002-.857V14.482l-.38-1.47c-1.207-.653-1.822-.59-2.851 0z" fill="#AAA"/><path d="M9.158 16.797c3.819-.273 11.894-2.728 13.64-10.367m0 0l-1.091.819m1.09-.819l.546 1.092" stroke="#0A3D76" stroke-width=".7" stroke-linecap="round" stroke-linejoin="round"/><path d="M24.314 21.885v5.864a1 1 0 01-1 1h-1.61a1 1 0 01-1-1V13.335a1 1 0 011-1h1.61a1 1 0 011 1v6.909m-9.191 6.486v-8.47a1 1 0 011-1h1.61a1 1 0 011 1v9.489a1 1 0 01-1 1h-1.61c-.553 0-1-.457-1-1.01v0" stroke="#0A3D76" stroke-width=".7" stroke-linecap="round"/><path d="M9.213 21.61v6.14a1 1 0 001 1h1.611a1 1 0 001-1v-7.52a1 1 0 00-1-1h-1.61a1 1 0 00-1 1v.19" stroke="#0A3D76" stroke-width=".5" stroke-linecap="round"/></svg>