<svg width="32" height="32" fill="none" xmlns="http://www.w3.org/2000/svg"><path d="M8.924 18.495l-.383.383.15 8.234.894.583h1.356l1.047-.583v-7.851l-.617-.766H8.924z" fill="url(#paint0_linear)"/><path d="M15.35 16.514l-.79.24v10.661l.79.247h1.703l.68-.561v-9.934c.138-.473-.21-.392-.68-.654H15.35z" fill="url(#paint1_linear)"/><path d="M20.357 12.014l-.38.822v14.271l1.021.62h1.588l1.002-.856V13.485l-.38-1.47c-1.207-.654-1.821-.59-2.85 0z" fill="url(#paint2_linear)"/><path d="M8.431 15.8c3.82-.273 11.894-2.729 13.64-10.367m0 0l-1.09.818m1.09-.818l.546 1.091" stroke="#0A3D76" stroke-width=".7" stroke-linecap="round" stroke-linejoin="round"/><path d="M23.588 20.888v5.864a1 1 0 01-1 1h-1.611a1 1 0 01-1-1V12.338a1 1 0 011-1h1.61a1 1 0 011 1v6.908m-9.191 6.487v-8.471a1 1 0 011-1h1.611a1 1 0 011 1v9.49a1 1 0 01-1 1h-1.611c-.552 0-1-.458-1-1.01v0" stroke="#0A3D76" stroke-width=".7" stroke-linecap="round"/><path d="M8.487 20.612v6.14a1 1 0 001 1h1.61a1 1 0 001-1v-7.52a1 1 0 00-1-1h-1.61a1 1 0 00-1 1v.19" stroke="#0A3D76" stroke-width=".5" stroke-linecap="round"/><defs><linearGradient id="paint0_linear" x1="11.882" y1="23.095" x2="8.642" y2="23.069" gradientUnits="userSpaceOnUse"><stop stop-color="#A62E41"/><stop offset="1" stop-color="#E13152"/></linearGradient><linearGradient id="paint1_linear" x1="17.665" y1="22.087" x2="14.654" y2="22.069" gradientUnits="userSpaceOnUse"><stop stop-color="#A62E41"/><stop offset="1" stop-color="#E13152"/></linearGradient><linearGradient id="paint2_linear" x1="23.477" y1="19.638" x2="20.082" y2="19.622" gradientUnits="userSpaceOnUse"><stop stop-color="#A62E41"/><stop offset="1" stop-color="#E13152"/></linearGradient></defs></svg>