<svg width="32" height="32" fill="none" xmlns="http://www.w3.org/2000/svg"><path d="M20.305 21.363a1.573 1.573 0 00-2.77.993l.376 1.047a1.573 1.573 0 102.394-2.04z" fill="url(#paint0_linear)"/><path d="M17.625 12.699a1.573 1.573 0 00-1.597-2.471l-.934.604a1.573 1.573 0 102.53 1.867z" fill="url(#paint1_linear)"/><path d="M13.68 16.254a1.573 1.573 0 00-1.597-2.472l-.934.604a1.573 1.573 0 002.53 1.868z" fill="url(#paint2_linear)"/><path d="M27.358 16.815c0 5.211-4.225 9.83-9.436 9.83-.918 0-2.36-.394-2.753-.787-.602-.602 1.713-4.758-4.325-6.29-.786-.263-2.359-1.18-2.359-2.753A9.436 9.436 0 0125.978 11.9" stroke="#0A3D76" stroke-width=".7" stroke-linecap="round" stroke-linejoin="round"/><path d="M10.451 10.132c0-6.291-2.359-6.292-2.359 0v9.435h2.36v-9.435z" fill="url(#paint3_linear)"/><path d="M8.092 10.132c0-6.292 2.36-6.291 2.36 0v9.435m-2.36 0v2.36h2.36v-2.36m-2.36 0h2.36m-2.36 0v-7.47" stroke="#0A3D76" stroke-width=".7" stroke-linecap="round"/><path d="M7.306 25.465c0-2.753.393-3.146 1.965-3.146h1.18c3.146 3.539-1.18 5.898-5.111 5.112 1.573 0 1.966-1.18 1.966-1.966z" fill="url(#paint4_linear)"/><path d="M9.195 27.41c-1.113.428-2.507.543-3.855.255 1.542 0 1.928-1.233 1.928-2.056 0-2.878.385-3.29 1.927-3.29v0c.977 0 2.012.397 2.309 1.329.389 1.22-.167 2.245-.979 2.974" stroke="#0A3D76" stroke-width=".7" stroke-linecap="round" stroke-linejoin="round"/><path d="M16.349 13.277a1.573 1.573 0 10-1.18-.533" stroke="#0A3D76" stroke-width=".7" stroke-linecap="round"/><path d="M20.334 13.684a1.573 1.573 0 002.927.292l.11-1.106a1.573 1.573 0 10-3.037.814z" fill="url(#paint5_linear)"/><path d="M22.258 16.958a1.573 1.573 0 00.366 2.92l1.104-.139a1.573 1.573 0 10-1.47-2.781z" fill="url(#paint6_linear)"/><path d="M21.853 11.704a1.573 1.573 0 101.04.393m1.712 6.291a1.573 1.573 0 10-.532 1.18m-4.972 4.324a1.573 1.573 0 111.362-.786m-8.046-6.291a1.573 1.573 0 111.32-.716" stroke="#0A3D76" stroke-width=".7" stroke-linecap="round"/><defs><linearGradient id="paint0_linear" x1="18.151" y1="21.26" x2="20.019" y2="23.55" gradientUnits="userSpaceOnUse"><stop stop-color="#A62E41"/><stop offset="1" stop-color="#E13152"/></linearGradient><linearGradient id="paint1_linear" x1="17.236" y1="10.578" x2="15.43" y2="12.918" gradientUnits="userSpaceOnUse"><stop stop-color="#A62E41"/><stop offset="1" stop-color="#E13152"/></linearGradient><linearGradient id="paint2_linear" x1="13.29" y1="14.133" x2="11.485" y2="16.473" gradientUnits="userSpaceOnUse"><stop stop-color="#A62E41"/><stop offset="1" stop-color="#E13152"/></linearGradient><linearGradient id="paint3_linear" x1="10.379" y1="12.49" x2="8.161" y2="12.482" gradientUnits="userSpaceOnUse"><stop stop-color="#A62E41"/><stop offset="1" stop-color="#E13152"/></linearGradient><linearGradient id="paint4_linear" x1="11.343" y1="24.951" x2="5.524" y2="24.804" gradientUnits="userSpaceOnUse"><stop stop-color="#A62E41"/><stop offset="1" stop-color="#E13152"/></linearGradient><linearGradient id="paint5_linear" x1="22.235" y1="14.702" x2="21.531" y2="11.831" gradientUnits="userSpaceOnUse"><stop stop-color="#A62E41"/><stop offset="1" stop-color="#E13152"/></linearGradient><linearGradient id="paint6_linear" x1="21.688" y1="19.038" x2="24.331" y2="17.713" gradientUnits="userSpaceOnUse"><stop stop-color="#A62E41"/><stop offset="1" stop-color="#E13152"/></linearGradient></defs></svg>