<svg width="33" height="33" fill="none" xmlns="http://www.w3.org/2000/svg"><path d="M19.376 24.494c-2.496.535-4.457.223-5.126 0V26.5c2.496 1.426 4.457.594 5.126 0v-2.006zm-7.355-2.897l-2.228-3.789c5.348 1.961 12.108.892 14.485 0l-2.674 3.789c-4.279 1.247-8.171.52-9.582 0zm-6.464-9.806l2.006 3.12c3.744 2.14 13.594 1.56 17.828.669l3.12-4.234c-8.558 3.565-18.868 1.783-22.954.445z" fill="#AAA"/><path fill-rule="evenodd" clip-rule="evenodd" d="M16.727 7.178c-.667 0-1.32.013-1.958.04a.439.439 0 11-.037-.876c.65-.027 1.316-.041 1.995-.041 3.481 0 6.649.37 8.959.977 1.152.303 2.116.67 2.802 1.097.662.412 1.19.958 1.19 1.652s-.528 1.24-1.19 1.652c-.686.426-1.65.794-2.802 1.097-2.31.607-5.478.977-8.96.977-3.481 0-6.649-.37-8.959-.977-1.152-.303-2.116-.67-2.802-1.097-.662-.412-1.19-.958-1.19-1.652 0-.562.35-1.027.815-1.392.473-.37 1.135-.694 1.926-.975 1.587-.564 3.795-.985 6.332-1.2a.439.439 0 11.074.874c-2.494.211-4.621.623-6.112 1.152-.748.265-1.31.552-1.678.84-.373.292-.479.53-.479.7 0 .215.173.534.776.909.58.36 1.45.7 2.562.993 2.218.583 5.307.948 8.736.948 3.428 0 6.517-.365 8.735-.948 1.113-.293 1.982-.633 2.562-.994.603-.374.776-.693.776-.907 0-.214-.173-.533-.776-.908-.58-.36-1.45-.7-2.562-.993-2.218-.583-5.307-.948-8.735-.948z" fill="#0A3D76"/><path fill-rule="evenodd" clip-rule="evenodd" d="M28.825 10.759a.438.438 0 01.12.608L19.91 24.846v1.137c0 .668-.438 1.288-1.118 1.454-1.42.349-2.488.337-3.9-.002a1.492 1.492 0 01-1.129-1.46v-.91L4.728 11.586a.438.438 0 11.73-.488l9.11 13.59a.438.438 0 01.073.244v1.043c0 .297.195.544.458.607 1.28.309 2.205.318 3.483.004a.61.61 0 00.45-.603v-1.27a.44.44 0 01.074-.244l9.11-13.59a.44.44 0 01.61-.12z" fill="#0A3D76"/><path fill-rule="evenodd" clip-rule="evenodd" d="M26.208 14.839a.438.438 0 01-.144.603c-.786.483-2.013.843-3.45 1.09-1.449.25-3.157.392-4.938.413-3.552.041-7.457-.398-10.22-1.468l.317-.817c2.615 1.012 6.393 1.45 9.893 1.408 1.744-.02 3.405-.159 4.8-.4 1.406-.241 2.498-.58 3.138-.973a.44.44 0 01.604.144zM9.393 18.108a.44.44 0 01.555-.277c3.206 1.067 6.864 1.32 10.439.749a.439.439 0 11.138.866c-3.7.59-7.502.332-10.854-.784a.438.438 0 01-.278-.554zm14.775.009a.438.438 0 01-.29.548 24.38 24.38 0 01-1.676.453.439.439 0 11-.199-.854 23.284 23.284 0 001.616-.436.44.44 0 01.55.289zm-7.07 4.472c-1.845.014-3.822-.295-5.581-.975l.317-.817c1.643.635 3.508.929 5.257.915 1.755-.013 3.357-.335 4.486-.899l.393.785c-1.286.642-3.032.977-4.872.991zm-1.881 2.701a6.93 6.93 0 01-1.642-.51l.372-.794c.411.192.9.343 1.431.442a.438.438 0 11-.161.862zm4.777-.514c-.994.496-2.218.692-3.391.66a.439.439 0 11.023-.877c1.074.03 2.146-.153 2.975-.567l.393.784z" fill="#0A3D76"/></svg>