<svg width="32" height="32" fill="none" xmlns="http://www.w3.org/2000/svg"><path d="M18.649 23.497c-2.496.534-4.457.222-5.126 0v2.005c2.496 1.427 4.457.595 5.126 0v-2.005z" fill="url(#paint0_linear)"/><path d="M11.295 20.599l-2.229-3.788c5.349 1.96 12.109.891 14.486 0l-2.674 3.788c-4.28 1.248-8.172.52-9.583 0z" fill="url(#paint1_linear)"/><path d="M4.83 10.794l2.006 3.12c3.744 2.14 13.594 1.56 17.828.668l3.12-4.234c-8.557 3.566-18.868 1.783-22.953.446z" fill="url(#paint2_linear)"/><path fill-rule="evenodd" clip-rule="evenodd" d="M16 6.18c-.666 0-1.32.014-1.957.04a.439.439 0 11-.037-.876c.65-.027 1.316-.04 1.994-.04 3.482 0 6.65.37 8.96.977 1.151.302 2.115.67 2.801 1.096.663.412 1.19.959 1.19 1.652 0 .694-.527 1.24-1.19 1.652-.686.427-1.65.794-2.802 1.097-2.31.607-5.477.977-8.96.977-3.48 0-6.648-.37-8.959-.977-1.151-.303-2.115-.67-2.801-1.097-.663-.411-1.19-.958-1.19-1.652 0-.561.349-1.026.815-1.391.472-.37 1.134-.695 1.925-.976 1.587-.563 3.795-.985 6.332-1.2a.439.439 0 11.074.874c-2.494.211-4.621.623-6.112 1.152-.747.266-1.31.552-1.677.84-.374.292-.48.531-.48.701 0 .215.173.533.777.908.58.36 1.449.7 2.561.993 2.218.583 5.307.949 8.736.949 3.429 0 6.517-.366 8.736-.949 1.112-.292 1.981-.633 2.561-.993.604-.375.776-.693.776-.908 0-.214-.172-.532-.776-.907-.58-.36-1.449-.701-2.561-.994-2.219-.582-5.307-.948-8.736-.948z" fill="#0A3D76"/><path fill-rule="evenodd" clip-rule="evenodd" d="M28.099 9.761a.438.438 0 01.12.608l-9.036 13.48v1.136c0 .669-.438 1.288-1.118 1.455-1.42.348-2.488.337-3.899-.003a1.492 1.492 0 01-1.13-1.46v-.91L4.002 10.588a.438.438 0 11.73-.487l9.11 13.59a.438.438 0 01.074.243v1.043c0 .298.194.544.457.608 1.28.308 2.205.317 3.484.004a.61.61 0 00.45-.604v-1.27a.44.44 0 01.073-.244l9.11-13.59a.44.44 0 01.61-.12z" fill="#0A3D76"/><path fill-rule="evenodd" clip-rule="evenodd" d="M25.482 13.841a.438.438 0 01-.144.603c-.787.483-2.014.844-3.45 1.091-1.45.25-3.157.392-4.939.412-3.552.042-7.457-.398-10.22-1.467l.317-.818c2.615 1.012 6.394 1.45 9.893 1.409 1.745-.02 3.405-.16 4.8-.4 1.407-.242 2.498-.58 3.139-.974a.44.44 0 01.604.144zm-16.816 3.27a.44.44 0 01.556-.278c3.206 1.067 6.864 1.32 10.438.75a.439.439 0 11.139.865c-3.701.59-7.503.332-10.855-.783a.438.438 0 01-.278-.555zm14.776.008a.438.438 0 01-.29.549c-.553.17-1.113.322-1.677.452a.439.439 0 11-.198-.854 23.322 23.322 0 001.615-.436.439.439 0 01.55.29zm-7.07 4.473c-1.845.014-3.822-.295-5.582-.975l.317-.818c1.643.635 3.508.93 5.258.916 1.754-.014 3.356-.336 4.485-.9l.393.785c-1.286.642-3.031.977-4.871.991zm-1.882 2.7a6.938 6.938 0 01-1.641-.509l.37-.794c.413.192.902.343 1.433.442a.438.438 0 11-.162.862zm4.777-.514c-.993.496-2.217.692-3.39.66a.439.439 0 11.023-.876c1.074.029 2.145-.154 2.975-.568l.392.784z" fill="#0A3D76"/><defs><linearGradient id="paint0_linear" x1="18.491" y1="24.893" x2="13.68" y2="24.704" gradientUnits="userSpaceOnUse"><stop stop-color="#A62E41"/><stop offset="1" stop-color="#E13152"/></linearGradient><linearGradient id="paint1_linear" x1="23.105" y1="19.049" x2="9.554" y2="18.108" gradientUnits="userSpaceOnUse"><stop stop-color="#A62E41"/><stop offset="1" stop-color="#E13152"/></linearGradient><linearGradient id="paint2_linear" x1="27.077" y1="12.867" x2="5.704" y2="10.775" gradientUnits="userSpaceOnUse"><stop stop-color="#A62E41"/><stop offset="1" stop-color="#E13152"/></linearGradient></defs></svg>