<svg width="33" height="33" fill="none" xmlns="http://www.w3.org/2000/svg"><g clip-path="url(#clip0)"><path d="M20.253 21.8l-1.102-1.102 1.115-1.336.882.882.886-.005 5.508 5.73-2.228 2.229-5.508-5.731.447-.667z" fill="#AAA"/><path fill-rule="evenodd" clip-rule="evenodd" d="M13.92 8.075c-3.338.032-6.064 2.774-6.087 6.123a5.935 5.935 0 006.003 6.006c3.34-.032 6.065-2.774 6.088-6.123a5.97 5.97 0 00-.893-3.202.402.402 0 01.13-.55.392.392 0 01.545.122 6.759 6.759 0 011.011 3.622c-.026 3.788-3.11 6.89-6.886 6.926a6.713 6.713 0 01-6.79-6.793c.025-3.789 3.109-6.89 6.886-6.927a6.702 6.702 0 013.813 1.134c.18.12.227.368.103.55a.399.399 0 01-.551.113 5.922 5.922 0 00-3.371-1.001z" fill="#0A3D76"/><path fill-rule="evenodd" clip-rule="evenodd" d="M13.824 21.795c4.215-.04 7.656-3.501 7.685-7.73a7.491 7.491 0 00-7.578-7.58c-4.215.04-7.655 3.501-7.685 7.73a7.538 7.538 0 001.128 4.04.402.402 0 01-.13.55.392.392 0 01-.546-.121 8.325 8.325 0 01-1.245-4.462c.033-4.667 3.83-8.487 8.483-8.533a8.27 8.27 0 018.366 8.37c-.032 4.666-3.83 8.487-8.483 8.532a8.256 8.256 0 01-4.698-1.396.396.396 0 01-.103-.552.399.399 0 01.551-.112 7.476 7.476 0 004.255 1.264z" fill="#0A3D76"/><path fill-rule="evenodd" clip-rule="evenodd" d="M20.212 18.863l1.177 1.182.295-.045c.433-.066.868.076 1.174.384l4.587 4.6c.306.308.448.744.383 1.179l-.025.164a1.42 1.42 0 01-.4.79l-.8.804c-.214.215-.49.355-.788.4l-.164.025a1.366 1.366 0 01-1.174-.384l-4.587-4.601a1.376 1.376 0 01-.382-1.178l.044-.296-1.177-1.18 1.837-1.844zm.134 3.065l-.054.361a.59.59 0 00.164.505l4.586 4.601a.586.586 0 00.504.165l.163-.025a.605.605 0 00.338-.172l.801-.803a.61.61 0 00.171-.34l.025-.163a.59.59 0 00-.164-.505l-4.587-4.601a.585.585 0 00-.503-.165l-.36.055-1.084 1.087zm.339-1.456l-.483-.484-.706.71.483.483.706-.709z" fill="#0A3D76"/></g><defs><clipPath id="clip0"><path fill="#fff" transform="translate(.727 .998)" d="M0 0h32v32H0z"/></clipPath></defs></svg>