<svg width="32" height="32" fill="none" xmlns="http://www.w3.org/2000/svg"><g clip-path="url(#clip0)"><path d="M19.526 20.802l-1.102-1.101 1.116-1.336.881.881.886-.005 5.509 5.731-2.228 2.228-5.509-5.73.447-.668z" fill="url(#paint0_linear)"/><path fill-rule="evenodd" clip-rule="evenodd" d="M13.194 7.077c-3.339.033-6.064 2.774-6.088 6.124a5.935 5.935 0 006.004 6.005c3.339-.032 6.064-2.774 6.088-6.123a5.97 5.97 0 00-.893-3.201.402.402 0 01.13-.55.392.392 0 01.545.121 6.758 6.758 0 011.01 3.622c-.026 3.789-3.109 6.89-6.886 6.927a6.713 6.713 0 01-6.79-6.794c.026-3.788 3.11-6.89 6.886-6.926a6.702 6.702 0 013.814 1.133c.18.121.226.368.102.551a.399.399 0 01-.55.113 5.922 5.922 0 00-3.372-1.002z" fill="#0A3D76"/><path fill-rule="evenodd" clip-rule="evenodd" d="M13.098 20.798c4.214-.041 7.655-3.502 7.684-7.73a7.491 7.491 0 00-7.578-7.58c-4.214.04-7.655 3.5-7.684 7.729a7.538 7.538 0 001.127 4.04.402.402 0 01-.13.55.392.392 0 01-.545-.12 8.325 8.325 0 01-1.245-4.463c.032-4.667 3.83-8.487 8.483-8.532a8.27 8.27 0 018.365 8.369c-.032 4.667-3.83 8.487-8.483 8.532a8.255 8.255 0 01-4.698-1.396.395.395 0 01-.103-.551.399.399 0 01.552-.113 7.476 7.476 0 004.255 1.265z" fill="#0A3D76"/><path fill-rule="evenodd" clip-rule="evenodd" d="M19.485 17.866l1.178 1.181.294-.045a1.37 1.37 0 011.175.384l4.586 4.601c.307.308.448.744.383 1.178l-.025.164a1.421 1.421 0 01-.399.79l-.8.804a1.405 1.405 0 01-.789.4l-.163.025a1.366 1.366 0 01-1.175-.383l-4.586-4.602a1.376 1.376 0 01-.383-1.177l.045-.296-1.178-1.18 1.837-1.844zm.134 3.064l-.054.361a.59.59 0 00.164.505l4.587 4.601a.585.585 0 00.503.165l.164-.025a.605.605 0 00.337-.171l.801-.804a.61.61 0 00.171-.339l.025-.164a.59.59 0 00-.164-.505l-4.586-4.6a.585.585 0 00-.504-.165l-.36.054-1.084 1.087zm.34-1.455l-.483-.484-.707.709.483.483.706-.708z" fill="#0A3D76"/></g><defs><linearGradient id="paint0_linear" x1="26.568" y1="22.758" x2="18.659" y2="22.553" gradientUnits="userSpaceOnUse"><stop stop-color="#A62E41"/><stop offset="1" stop-color="#E13152"/></linearGradient><clipPath id="clip0"><path fill="#fff" d="M0 0h32v32H0z"/></clipPath></defs></svg>