<svg width="33" height="33" fill="none" xmlns="http://www.w3.org/2000/svg"><path d="M25.649 23.867v-4.142l4.18-1.775v7.692l-4.18-1.775z" fill="#AAA"/><ellipse cx="18.812" cy="10.849" rx="5.054" ry="5.03" fill="#AAA"/><path fill-rule="evenodd" clip-rule="evenodd" d="M14.282 10.79c0-2.55 2.077-4.621 4.643-4.621a4.64 4.64 0 013.42 1.495.35.35 0 10.515-.475 5.342 5.342 0 00-3.934-1.72c-2.905 0-5.271 2.308-5.343 5.186a3.847 3.847 0 00-3.431-2.1 3.837 3.837 0 00-3.845 3.828 3.82 3.82 0 001.726 3.196H5.246a1.35 1.35 0 00-1.35 1.35v6.026a.35.35 0 10.7 0v-6.026a.65.65 0 01.65-.65h19.052a.65.65 0 01.65.65v9.663a.65.65 0 01-.65.65H5.246a.65.65 0 01-.65-.65v-1.7a.35.35 0 10-.7 0v1.7c0 .746.604 1.35 1.35 1.35h19.052a1.35 1.35 0 001.35-1.35v-2.43l3.513 1.733a.85.85 0 001.226-.762v-6.787a.85.85 0 00-1.226-.762l-3.513 1.733V16.93a1.35 1.35 0 00-1.35-1.35h-3.043a5.318 5.318 0 003.015-4.79.35.35 0 10-.7 0c0 2.55-2.078 4.62-4.645 4.62-2.566 0-4.643-2.07-4.643-4.62zm2.315 4.789a5.349 5.349 0 01-2.622-2.783 3.824 3.824 0 01-1.705 2.783h4.327zm-6.445-6.324a3.137 3.137 0 00-3.145 3.128 3.137 3.137 0 003.145 3.129 3.137 3.137 0 003.145-3.129 3.137 3.137 0 00-3.145-3.128zm19.535 9.09a.15.15 0 00-.216-.134l-3.58 1.767a.15.15 0 00-.084.135v3.253c0 .057.033.11.084.135l3.58 1.767a.15.15 0 00.216-.135v-6.787zm-22.695 7.31a.35.35 0 100 .7h1.831a.35.35 0 100-.7h-1.83zm4.577 0a.35.35 0 100 .7h1.83a.35.35 0 100-.7h-1.83zm4.577 0a.35.35 0 100 .7h1.83a.35.35 0 100-.7h-1.83zm4.576 0a.35.35 0 100 .7h1.831a.35.35 0 100-.7h-1.83z" fill="#0A3D76"/><ellipse cx="10.165" cy="12.355" rx="3.194" ry="3.179" fill="#AAA"/></svg>