<svg width="63" height="61" fill="none" xmlns="http://www.w3.org/2000/svg"><g filter="url(#filter0_di)"><path d="M27.669 38.85c6.536 0 11.834-5.302 11.834-11.842 0-6.54-5.298-11.843-11.834-11.843s-11.835 5.302-11.835 11.843c0 6.54 5.299 11.842 11.835 11.842z" fill="#71A0DD"/><path d="M27.669 38.85c6.536 0 11.834-5.302 11.834-11.842 0-6.54-5.298-11.843-11.834-11.843s-11.835 5.302-11.835 11.843c0 6.54 5.299 11.842 11.835 11.842z" fill="url(#paint0_radial)" fill-opacity=".7"/></g><path d="M27.669 15.335c-11.665 11.673 0 23.346 0 23.346s11.834-11.673 0-23.346zM15.834 27.008h23.669" stroke="#B4D1FA" stroke-miterlimit="10"/><path d="M36.628 19.226c-2.64 1.229-5.945 2.03-8.96 2.03-3.016 0-6.32-.801-8.96-2.03m17.92 15.564c-2.64-1.23-5.945-2.03-8.96-2.03-3.016 0-6.32.8-8.96 2.03m21.81-14.21l4.057-1.016M32.74 13.135l1.353-3.721M18.2 16.18l-5.07-3.72m1.69 13.87h-4.058m8.791 10.49l-5.071 5.752m24.852-8.459l5.58 4.06" stroke="#B4D1FA" stroke-miterlimit="10"/><g filter="url(#filter1_di)"><path d="M35.276 9.752a2.875 2.875 0 002.874-2.876 2.875 2.875 0 10-2.874 2.876z" fill="#F985A0"/><path d="M35.276 9.752a2.875 2.875 0 002.874-2.876 2.875 2.875 0 10-2.874 2.876z" fill="url(#paint1_radial)" fill-opacity=".7"/></g><g filter="url(#filter2_di)"><path d="M47.449 21.594a2.875 2.875 0 002.874-2.876 2.875 2.875 0 10-2.874 2.876z" fill="#D6516B"/><path d="M47.449 21.594a2.875 2.875 0 002.874-2.876 2.875 2.875 0 10-2.874 2.876z" fill="url(#paint2_radial)" fill-opacity=".7"/></g><g filter="url(#filter3_di)"><path d="M47.619 43.587c1.867 0 3.381-1.591 3.381-3.553s-1.514-3.553-3.381-3.553c-1.868 0-3.382 1.59-3.382 3.553 0 1.962 1.514 3.553 3.382 3.553z" fill="#F985A0"/><path d="M47.619 43.587c1.867 0 3.381-1.591 3.381-3.553s-1.514-3.553-3.381-3.553c-1.868 0-3.382 1.59-3.382 3.553 0 1.962 1.514 3.553 3.382 3.553z" fill="url(#paint3_radial)" fill-opacity=".7"/></g><g filter="url(#filter4_di)"><path d="M12.452 49c1.868 0 3.382-1.59 3.382-3.553 0-1.962-1.514-3.552-3.382-3.552-1.867 0-3.381 1.59-3.381 3.552S10.585 49 12.452 49z" fill="#A62E41"/><path d="M12.452 49c1.868 0 3.382-1.59 3.382-3.553 0-1.962-1.514-3.552-3.382-3.552-1.867 0-3.381 1.59-3.381 3.552S10.585 49 12.452 49z" fill="url(#paint4_radial)" fill-opacity=".7"/></g><g filter="url(#filter5_di)"><path d="M7.381 29.715a3.382 3.382 0 003.381-3.384 3.382 3.382 0 10-3.38 3.384z" fill="#D6516B"/><path d="M7.381 29.715a3.382 3.382 0 003.381-3.384 3.382 3.382 0 10-3.38 3.384z" fill="url(#paint5_radial)" fill-opacity=".7"/></g><g filter="url(#filter6_di)"><path d="M10.256 13.812c1.96 0 3.55-1.515 3.55-3.383 0-1.869-1.59-3.384-3.55-3.384-1.961 0-3.55 1.515-3.55 3.384 0 1.868 1.589 3.383 3.55 3.383z" fill="#F985A0"/><path d="M10.256 13.812c1.96 0 3.55-1.515 3.55-3.383 0-1.869-1.59-3.384-3.55-3.384-1.961 0-3.55 1.515-3.55 3.384 0 1.868 1.589 3.383 3.55 3.383z" fill="url(#paint6_radial)" fill-opacity=".7"/></g><defs><radialGradient id="paint0_radial" cx="0" cy="0" r="1" gradientUnits="userSpaceOnUse" gradientTransform="matrix(11.66527 13.53386 -24.23202 20.88635 21.751 18.887)"><stop stop-color="#fff"/><stop offset=".395" stop-color="#fff" stop-opacity="0"/></radialGradient><radialGradient id="paint1_radial" cx="0" cy="0" r="1" gradientUnits="userSpaceOnUse" gradientTransform="matrix(.84531 1.69174 -1.69107 .84498 34.6 5.015)"><stop stop-color="#fff"/><stop offset="1" stop-color="#fff" stop-opacity="0"/></radialGradient><radialGradient id="paint2_radial" cx="0" cy="0" r="1" gradientUnits="userSpaceOnUse" gradientTransform="rotate(70.029 11.32 42.015) scale(1.97997 1.97897)"><stop stop-color="#fff"/><stop offset="1" stop-color="#fff" stop-opacity="0"/></radialGradient><radialGradient id="paint3_radial" cx="0" cy="0" r="1" gradientUnits="userSpaceOnUse" gradientTransform="matrix(.5072 1.52255 -1.4493 .48279 46.435 38.68)"><stop stop-color="#fff"/><stop offset="1" stop-color="#fff" stop-opacity="0"/></radialGradient><radialGradient id="paint4_radial" cx="0" cy="0" r="1" gradientUnits="userSpaceOnUse" gradientTransform="rotate(74.754 -22.92 29.364) scale(1.92879 1.8359)"><stop stop-color="#fff"/><stop offset="1" stop-color="#fff" stop-opacity="0"/></radialGradient><radialGradient id="paint5_radial" cx="0" cy="0" r="1" gradientUnits="userSpaceOnUse" gradientTransform="matrix(.50718 2.19926 -2.19795 .50688 5.86 24.47)"><stop stop-color="#fff"/><stop offset="1" stop-color="#fff" stop-opacity="0"/></radialGradient><radialGradient id="paint6_radial" cx="0" cy="0" r="1" gradientUnits="userSpaceOnUse" gradientTransform="matrix(.67625 2.03008 -2.13047 .70969 8.734 8.399)"><stop stop-color="#fff"/><stop offset="1" stop-color="#fff" stop-opacity="0"/></radialGradient><filter id="filter0_di" x="7.834" y="7.165" width="37.669" height="37.684" filterUnits="userSpaceOnUse" color-interpolation-filters="sRGB"><feFlood flood-opacity="0" result="BackgroundImageFix"/><feColorMatrix in="SourceAlpha" values="0 0 0 0 0 0 0 0 0 0 0 0 0 0 0 0 0 0 127 0"/><feOffset dx="2" dy="2"/><feGaussianBlur stdDeviation="2"/><feColorMatrix values="0 0 0 0 0 0 0 0 0 0 0 0 0 0 0 0 0 0 0.2 0"/><feBlend in2="BackgroundImageFix" result="effect1_dropShadow"/><feBlend in="SourceGraphic" in2="effect1_dropShadow" result="shape"/><feColorMatrix in="SourceAlpha" values="0 0 0 0 0 0 0 0 0 0 0 0 0 0 0 0 0 0 127 0" result="hardAlpha"/><feOffset dx="-8" dy="-8"/><feGaussianBlur stdDeviation="7"/><feComposite in2="hardAlpha" operator="arithmetic" k2="-1" k3="1"/><feColorMatrix values="0 0 0 0 0 0 0 0 0 0 0 0 0 0 0 0 0 0 0.4 0"/><feBlend in2="shape" result="effect2_innerShadow"/></filter><filter id="filter1_di" x="28.402" y="0" width="21.748" height="21.752" filterUnits="userSpaceOnUse" color-interpolation-filters="sRGB"><feFlood flood-opacity="0" result="BackgroundImageFix"/><feColorMatrix in="SourceAlpha" values="0 0 0 0 0 0 0 0 0 0 0 0 0 0 0 0 0 0 127 0"/><feOffset dx="4" dy="4"/><feGaussianBlur stdDeviation="4"/><feColorMatrix values="0 0 0 0 0 0 0 0 0 0 0 0 0 0 0 0 0 0 0.2 0"/><feBlend in2="BackgroundImageFix" result="effect1_dropShadow"/><feBlend in="SourceGraphic" in2="effect1_dropShadow" result="shape"/><feColorMatrix in="SourceAlpha" values="0 0 0 0 0 0 0 0 0 0 0 0 0 0 0 0 0 0 127 0" result="hardAlpha"/><feOffset dx="-4" dy="-4"/><feGaussianBlur stdDeviation="4"/><feComposite in2="hardAlpha" operator="arithmetic" k2="-1" k3="1"/><feColorMatrix values="0 0 0 0 0 0 0 0 0 0 0 0 0 0 0 0 0 0 0.15 0"/><feBlend in2="shape" result="effect2_innerShadow"/></filter><filter id="filter2_di" x="40.575" y="11.842" width="21.748" height="21.752" filterUnits="userSpaceOnUse" color-interpolation-filters="sRGB"><feFlood flood-opacity="0" result="BackgroundImageFix"/><feColorMatrix in="SourceAlpha" values="0 0 0 0 0 0 0 0 0 0 0 0 0 0 0 0 0 0 127 0"/><feOffset dx="4" dy="4"/><feGaussianBlur stdDeviation="4"/><feColorMatrix values="0 0 0 0 0 0 0 0 0 0 0 0 0 0 0 0 0 0 0.2 0"/><feBlend in2="BackgroundImageFix" result="effect1_dropShadow"/><feBlend in="SourceGraphic" in2="effect1_dropShadow" result="shape"/><feColorMatrix in="SourceAlpha" values="0 0 0 0 0 0 0 0 0 0 0 0 0 0 0 0 0 0 127 0" result="hardAlpha"/><feOffset dx="-4" dy="-4"/><feGaussianBlur stdDeviation="4"/><feComposite in2="hardAlpha" operator="arithmetic" k2="-1" k3="1"/><feColorMatrix values="0 0 0 0 0 0 0 0 0 0 0 0 0 0 0 0 0 0 0.15 0"/><feBlend in2="shape" result="effect2_innerShadow"/></filter><filter id="filter3_di" x="40.237" y="32.481" width="22.762" height="23.105" filterUnits="userSpaceOnUse" color-interpolation-filters="sRGB"><feFlood flood-opacity="0" result="BackgroundImageFix"/><feColorMatrix in="SourceAlpha" values="0 0 0 0 0 0 0 0 0 0 0 0 0 0 0 0 0 0 127 0"/><feOffset dx="4" dy="4"/><feGaussianBlur stdDeviation="4"/><feColorMatrix values="0 0 0 0 0 0 0 0 0 0 0 0 0 0 0 0 0 0 0.2 0"/><feBlend in2="BackgroundImageFix" result="effect1_dropShadow"/><feBlend in="SourceGraphic" in2="effect1_dropShadow" result="shape"/><feColorMatrix in="SourceAlpha" values="0 0 0 0 0 0 0 0 0 0 0 0 0 0 0 0 0 0 127 0" result="hardAlpha"/><feOffset dx="-4" dy="-4"/><feGaussianBlur stdDeviation="4"/><feComposite in2="hardAlpha" operator="arithmetic" k2="-1" k3="1"/><feColorMatrix values="0 0 0 0 0 0 0 0 0 0 0 0 0 0 0 0 0 0 0.15 0"/><feBlend in2="shape" result="effect2_innerShadow"/></filter><filter id="filter4_di" x="5.071" y="37.895" width="22.762" height="23.105" filterUnits="userSpaceOnUse" color-interpolation-filters="sRGB"><feFlood flood-opacity="0" result="BackgroundImageFix"/><feColorMatrix in="SourceAlpha" values="0 0 0 0 0 0 0 0 0 0 0 0 0 0 0 0 0 0 127 0"/><feOffset dx="4" dy="4"/><feGaussianBlur stdDeviation="4"/><feColorMatrix values="0 0 0 0 0 0 0 0 0 0 0 0 0 0 0 0 0 0 0.2 0"/><feBlend in2="BackgroundImageFix" result="effect1_dropShadow"/><feBlend in="SourceGraphic" in2="effect1_dropShadow" result="shape"/><feColorMatrix in="SourceAlpha" values="0 0 0 0 0 0 0 0 0 0 0 0 0 0 0 0 0 0 127 0" result="hardAlpha"/><feOffset dx="-4" dy="-4"/><feGaussianBlur stdDeviation="4"/><feComposite in2="hardAlpha" operator="arithmetic" k2="-1" k3="1"/><feColorMatrix values="0 0 0 0 0 0 0 0 0 0 0 0 0 0 0 0 0 0 0.15 0"/><feBlend in2="shape" result="effect2_innerShadow"/></filter><filter id="filter5_di" x="0" y="18.948" width="22.762" height="22.767" filterUnits="userSpaceOnUse" color-interpolation-filters="sRGB"><feFlood flood-opacity="0" result="BackgroundImageFix"/><feColorMatrix in="SourceAlpha" values="0 0 0 0 0 0 0 0 0 0 0 0 0 0 0 0 0 0 127 0"/><feOffset dx="4" dy="4"/><feGaussianBlur stdDeviation="4"/><feColorMatrix values="0 0 0 0 0 0 0 0 0 0 0 0 0 0 0 0 0 0 0.2 0"/><feBlend in2="BackgroundImageFix" result="effect1_dropShadow"/><feBlend in="SourceGraphic" in2="effect1_dropShadow" result="shape"/><feColorMatrix in="SourceAlpha" values="0 0 0 0 0 0 0 0 0 0 0 0 0 0 0 0 0 0 127 0" result="hardAlpha"/><feOffset dx="-4" dy="-4"/><feGaussianBlur stdDeviation="4"/><feComposite in2="hardAlpha" operator="arithmetic" k2="-1" k3="1"/><feColorMatrix values="0 0 0 0 0 0 0 0 0 0 0 0 0 0 0 0 0 0 0.15 0"/><feBlend in2="shape" result="effect2_innerShadow"/></filter><filter id="filter6_di" x="2.705" y="3.045" width="23.101" height="22.767" filterUnits="userSpaceOnUse" color-interpolation-filters="sRGB"><feFlood flood-opacity="0" result="BackgroundImageFix"/><feColorMatrix in="SourceAlpha" values="0 0 0 0 0 0 0 0 0 0 0 0 0 0 0 0 0 0 127 0"/><feOffset dx="4" dy="4"/><feGaussianBlur stdDeviation="4"/><feColorMatrix values="0 0 0 0 0 0 0 0 0 0 0 0 0 0 0 0 0 0 0.2 0"/><feBlend in2="BackgroundImageFix" result="effect1_dropShadow"/><feBlend in="SourceGraphic" in2="effect1_dropShadow" result="shape"/><feColorMatrix in="SourceAlpha" values="0 0 0 0 0 0 0 0 0 0 0 0 0 0 0 0 0 0 127 0" result="hardAlpha"/><feOffset dx="-4" dy="-4"/><feGaussianBlur stdDeviation="4"/><feComposite in2="hardAlpha" operator="arithmetic" k2="-1" k3="1"/><feColorMatrix values="0 0 0 0 0 0 0 0 0 0 0 0 0 0 0 0 0 0 0.15 0"/><feBlend in2="shape" result="effect2_innerShadow"/></filter></defs></svg>