<svg width="68" height="89" fill="none" xmlns="http://www.w3.org/2000/svg"><g filter="url(#filter0_di)"><path d="M53.303 41.24c-2.318 4.745-6.45 7.827-11.039 10.517-2.684 1.545-2.652 7.127-2.652 7.127l-.291 11.004c0 5.725-2.453 2.822-7.359 6.693l-4.415-.484c-4.905 0-7.849 0-7.849-6.209 0-3.815-.313-8.135-.313-10.784 0-4.818-1.747-6.905-2.62-7.347A25.841 25.841 0 017.6 42.695 25.416 25.416 0 014.01 30.39a25.388 25.388 0 012.881-12.484 25.784 25.784 0 018.634-9.557 26.236 26.236 0 0112.239-4.253 26.32 26.32 0 0112.798 2.11 25.957 25.957 0 0110.172 7.95 25.489 25.489 0 015.015 11.808 26.489 26.489 0 01-2.446 15.276z" fill="#B4D1FA"/><path d="M53.303 41.24c-2.318 4.745-6.45 7.827-11.039 10.517-2.684 1.545-2.652 7.127-2.652 7.127l-.291 11.004c0 5.725-2.453 2.822-7.359 6.693l-4.415-.484c-4.905 0-7.849 0-7.849-6.209 0-3.815-.313-8.135-.313-10.784 0-4.818-1.747-6.905-2.62-7.347A25.841 25.841 0 017.6 42.695 25.416 25.416 0 014.01 30.39a25.388 25.388 0 012.881-12.484 25.784 25.784 0 018.634-9.557 26.236 26.236 0 0112.239-4.253 26.32 26.32 0 0112.798 2.11 25.957 25.957 0 0110.172 7.95 25.489 25.489 0 015.015 11.808 26.489 26.489 0 01-2.446 15.276z" fill="url(#paint0_radial)" fill-opacity=".8"/></g><g filter="url(#filter1_di)"><path d="M38.532 56.258H20.488c-.978 0-1.77.65-1.77 1.451 0 .802.792 1.452 1.77 1.452h18.044c.978 0 1.77-.65 1.77-1.452 0-.801-.792-1.451-1.77-1.451z" fill="#F985A0"/></g><g filter="url(#filter2_di)"><path d="M38.532 61.096H20.488c-.978 0-1.77.65-1.77 1.452 0 .802.792 1.452 1.77 1.452h18.044c.978 0 1.77-.65 1.77-1.452 0-.802-.792-1.452-1.77-1.452z" fill="#F985A0"/></g><g filter="url(#filter3_di)"><path d="M38.532 65.935H20.488c-.978 0-1.77.65-1.77 1.452 0 .802.792 1.452 1.77 1.452h18.044c.978 0 1.77-.65 1.77-1.452 0-.802-.792-1.452-1.77-1.452z" fill="#F985A0"/></g><path d="M25.233 36.904a10.214 10.214 0 004.498 1.1c2.58 0 4.1-1.192 4.1-2.872s-1.058-2.505-3.67-3.36c-3.307-.978-5.16-2.414-5.16-4.797 0-2.383 2.514-4.582 6.284-4.582a9.986 9.986 0 014.333.825l-.695 1.771a9.189 9.189 0 00-3.704-.794c-2.679 0-3.67 1.375-3.67 2.536 0 1.16 1.19 2.352 3.869 3.269 3.307 1.1 4.96 2.474 4.96 4.949 0 2.474-2.215 4.857-6.813 4.857a11.482 11.482 0 01-4.96-1.07l.628-1.832zm4.277-14.517v-2.903h1.91l.051 2.795" fill="#C43B55"/><path d="M31.471 39.806v2.904h-1.91l-.052-2.838" fill="#C43B55"/><path d="M39.32 70.774H19.698c0 2.097 1.471 8.226 9.81 8.226 7.499 0 9.812-5.484 9.812-8.226z" fill="#71A0DD"/><defs><filter id="filter0_di" x="0" y="0" width="68" height="88.581" filterUnits="userSpaceOnUse" color-interpolation-filters="sRGB"><feFlood flood-opacity="0" result="BackgroundImageFix"/><feColorMatrix in="SourceAlpha" values="0 0 0 0 0 0 0 0 0 0 0 0 0 0 0 0 0 0 127 0"/><feOffset dx="4" dy="4"/><feGaussianBlur stdDeviation="4"/><feColorMatrix values="0 0 0 0 0 0 0 0 0 0 0 0 0 0 0 0 0 0 0.2 0"/><feBlend in2="BackgroundImageFix" result="effect1_dropShadow"/><feBlend in="SourceGraphic" in2="effect1_dropShadow" result="shape"/><feColorMatrix in="SourceAlpha" values="0 0 0 0 0 0 0 0 0 0 0 0 0 0 0 0 0 0 127 0" result="hardAlpha"/><feOffset dx="-4" dy="-4"/><feGaussianBlur stdDeviation="4"/><feComposite in2="hardAlpha" operator="arithmetic" k2="-1" k3="1"/><feColorMatrix values="0 0 0 0 0 0 0 0 0 0 0 0 0 0 0 0 0 0 0.2 0"/><feBlend in2="shape" result="effect2_innerShadow"/></filter><filter id="filter1_di" x="14.717" y="52.258" width="37.585" height="18.903" filterUnits="userSpaceOnUse" color-interpolation-filters="sRGB"><feFlood flood-opacity="0" result="BackgroundImageFix"/><feColorMatrix in="SourceAlpha" values="0 0 0 0 0 0 0 0 0 0 0 0 0 0 0 0 0 0 127 0"/><feOffset dx="4" dy="4"/><feGaussianBlur stdDeviation="4"/><feColorMatrix values="0 0 0 0 0 0 0 0 0 0 0 0 0 0 0 0 0 0 0.2 0"/><feBlend in2="BackgroundImageFix" result="effect1_dropShadow"/><feBlend in="SourceGraphic" in2="effect1_dropShadow" result="shape"/><feColorMatrix in="SourceAlpha" values="0 0 0 0 0 0 0 0 0 0 0 0 0 0 0 0 0 0 127 0" result="hardAlpha"/><feOffset dx="-4" dy="-4"/><feGaussianBlur stdDeviation="4"/><feComposite in2="hardAlpha" operator="arithmetic" k2="-1" k3="1"/><feColorMatrix values="0 0 0 0 0 0 0 0 0 0 0 0 0 0 0 0 0 0 0.15 0"/><feBlend in2="shape" result="effect2_innerShadow"/></filter><filter id="filter2_di" x="14.717" y="57.096" width="37.585" height="18.903" filterUnits="userSpaceOnUse" color-interpolation-filters="sRGB"><feFlood flood-opacity="0" result="BackgroundImageFix"/><feColorMatrix in="SourceAlpha" values="0 0 0 0 0 0 0 0 0 0 0 0 0 0 0 0 0 0 127 0"/><feOffset dx="4" dy="4"/><feGaussianBlur stdDeviation="4"/><feColorMatrix values="0 0 0 0 0 0 0 0 0 0 0 0 0 0 0 0 0 0 0.2 0"/><feBlend in2="BackgroundImageFix" result="effect1_dropShadow"/><feBlend in="SourceGraphic" in2="effect1_dropShadow" result="shape"/><feColorMatrix in="SourceAlpha" values="0 0 0 0 0 0 0 0 0 0 0 0 0 0 0 0 0 0 127 0" result="hardAlpha"/><feOffset dx="-4" dy="-4"/><feGaussianBlur stdDeviation="4"/><feComposite in2="hardAlpha" operator="arithmetic" k2="-1" k3="1"/><feColorMatrix values="0 0 0 0 0 0 0 0 0 0 0 0 0 0 0 0 0 0 0.15 0"/><feBlend in2="shape" result="effect2_innerShadow"/></filter><filter id="filter3_di" x="14.717" y="61.935" width="37.585" height="18.903" filterUnits="userSpaceOnUse" color-interpolation-filters="sRGB"><feFlood flood-opacity="0" result="BackgroundImageFix"/><feColorMatrix in="SourceAlpha" values="0 0 0 0 0 0 0 0 0 0 0 0 0 0 0 0 0 0 127 0"/><feOffset dx="4" dy="4"/><feGaussianBlur stdDeviation="4"/><feColorMatrix values="0 0 0 0 0 0 0 0 0 0 0 0 0 0 0 0 0 0 0.2 0"/><feBlend in2="BackgroundImageFix" result="effect1_dropShadow"/><feBlend in="SourceGraphic" in2="effect1_dropShadow" result="shape"/><feColorMatrix in="SourceAlpha" values="0 0 0 0 0 0 0 0 0 0 0 0 0 0 0 0 0 0 127 0" result="hardAlpha"/><feOffset dx="-4" dy="-4"/><feGaussianBlur stdDeviation="4"/><feComposite in2="hardAlpha" operator="arithmetic" k2="-1" k3="1"/><feColorMatrix values="0 0 0 0 0 0 0 0 0 0 0 0 0 0 0 0 0 0 0.15 0"/><feBlend in2="shape" result="effect2_innerShadow"/></filter><radialGradient id="paint0_radial" cx="0" cy="0" r="1" gradientUnits="userSpaceOnUse" gradientTransform="rotate(48.878 -4.667 28.27) scale(23.1236 36.6515)"><stop stop-color="#fff"/><stop offset=".724" stop-color="#fff" stop-opacity="0"/></radialGradient></defs></svg>