<svg width="338" height="236" viewBox="0 0 338 236" fill="none" xmlns="http://www.w3.org/2000/svg">
<g filter="url(#filter0_di)">
<path d="M122.372 27.6C129.017 27.6 134.403 22.1938 134.403 15.525C134.403 8.85612 129.017 3.44995 122.372 3.44995C115.727 3.44995 110.341 8.85612 110.341 15.525C110.341 22.1938 115.727 27.6 122.372 27.6Z" fill="#F985A0"/>
<path d="M122.372 25.1855C127.688 25.1855 131.997 20.8606 131.997 15.5255C131.997 10.1904 127.688 5.86548 122.372 5.86548C117.057 5.86548 112.747 10.1904 112.747 15.5255C112.747 20.8606 117.057 25.1855 122.372 25.1855Z" fill="#C43B55" stroke="#D6516B" stroke-miterlimit="10"/>
<path d="M122.372 22.7698C126.359 22.7698 129.591 19.5261 129.591 15.5248C129.591 11.5235 126.359 8.27979 122.372 8.27979C118.385 8.27979 115.154 11.5235 115.154 15.5248C115.154 19.5261 118.385 22.7698 122.372 22.7698Z" fill="#D6516B" stroke="#C43B55" stroke-miterlimit="10"/>
<path d="M122.373 20.3561C125.03 20.3561 127.185 18.1936 127.185 15.5261C127.185 12.8585 125.03 10.696 122.373 10.696C119.715 10.696 117.56 12.8585 117.56 15.5261C117.56 18.1936 119.715 20.3561 122.373 20.3561Z" fill="#F985A0"/>
<path d="M122.372 17.9401C123.701 17.9401 124.779 16.8589 124.779 15.5251C124.779 14.1913 123.701 13.1101 122.372 13.1101C121.043 13.1101 119.966 14.1913 119.966 15.5251C119.966 16.8589 121.043 17.9401 122.372 17.9401Z" fill="#D6516B"/>
<path d="M122.372 16.2495C122.77 16.2495 123.093 15.9252 123.093 15.525C123.093 15.1249 122.77 14.8005 122.372 14.8005C121.973 14.8005 121.65 15.1249 121.65 15.525C121.65 15.9252 121.973 16.2495 122.372 16.2495Z" fill="#A62E41"/>
</g>
<g filter="url(#filter1_d)">
<path d="M123.748 15.0794L135.483 10.0703L136.336 10.2314C137 9.94789 137.997 9.52259 139.436 8.9083L138.094 8.82512L138.965 7.79712C138.965 7.79712 136.53 8.8368 135.865 9.1204L135.389 9.84804L123.654 14.8571L123.781 14.5404L122.372 15.5353L124.063 15.2072L123.748 15.0794Z" fill="black"/>
</g>
<g filter="url(#filter2_di)">
<path d="M34.0308 90.026C36.5329 90.026 38.5613 87.9936 38.5613 85.4865C38.5613 82.9794 36.5329 80.947 34.0308 80.947C31.5286 80.947 29.5002 82.9794 29.5002 85.4865C29.5002 87.9936 31.5286 90.026 34.0308 90.026Z" fill="#71A0DD"/>
<path d="M34.0308 90.026C36.5329 90.026 38.5613 87.9936 38.5613 85.4865C38.5613 82.9794 36.5329 80.947 34.0308 80.947C31.5286 80.947 29.5002 82.9794 29.5002 85.4865C29.5002 87.9936 31.5286 90.026 34.0308 90.026Z" fill="url(#paint0_radial)" fill-opacity="0.7"/>
</g>
<path d="M34.0309 81.0112C29.5651 85.4859 34.0311 89.9605 34.0311 89.9605C34.0311 89.9605 38.5614 85.4859 34.0309 81.0112Z" stroke="#B4D1FA" stroke-miterlimit="10"/>
<path d="M29.5002 85.4868H38.5613" stroke="#B4D1FA" stroke-miterlimit="10"/>
<path d="M37.4611 82.5034C36.4503 82.9746 35.1853 83.2816 34.0309 83.2816C32.8764 83.2816 31.6114 82.9746 30.6006 82.5034" stroke="#B4D1FA" stroke-miterlimit="10"/>
<path d="M37.4611 88.4692C36.4503 87.998 35.1853 87.691 34.0309 87.691C32.8764 87.691 31.6114 87.998 30.6006 88.4692" stroke="#B4D1FA" stroke-miterlimit="10"/>
<path d="M38.9502 83.0209L40.5035 82.6323" stroke="#B4D1FA" stroke-miterlimit="10"/>
<path d="M35.9727 80.1686L36.4904 78.7419" stroke="#B4D1FA" stroke-miterlimit="10"/>
<path d="M30.4065 81.3364L28.4648 79.9097" stroke="#B4D1FA" stroke-miterlimit="10"/>
<path d="M29.1119 85.2271H27.5586" stroke="#B4D1FA" stroke-miterlimit="10"/>
<path d="M30.9243 89.2476L28.9827 91.4525" stroke="#B4D1FA" stroke-miterlimit="10"/>
<path d="M38.4971 88.2095L40.6329 89.7659" stroke="#B4D1FA" stroke-miterlimit="10"/>
<g filter="url(#filter3_di)">
<path d="M36.9433 78.8714C37.551 78.8714 38.0436 78.3778 38.0436 77.769C38.0436 77.1601 37.551 76.6665 36.9433 76.6665C36.3356 76.6665 35.843 77.1601 35.843 77.769C35.843 78.3778 36.3356 78.8714 36.9433 78.8714Z" fill="#F985A0"/>
<path d="M36.9433 78.8714C37.551 78.8714 38.0436 78.3778 38.0436 77.769C38.0436 77.1601 37.551 76.6665 36.9433 76.6665C36.3356 76.6665 35.843 77.1601 35.843 77.769C35.843 78.3778 36.3356 78.8714 36.9433 78.8714Z" fill="url(#paint1_radial)" fill-opacity="0.7"/>
</g>
<g filter="url(#filter4_di)">
<path d="M41.6032 83.4107C42.2109 83.4107 42.7035 82.9171 42.7035 82.3083C42.7035 81.6994 42.2109 81.2058 41.6032 81.2058C40.9955 81.2058 40.5029 81.6994 40.5029 82.3083C40.5029 82.9171 40.9955 83.4107 41.6032 83.4107Z" fill="#D6516B"/>
<path d="M41.6032 83.4107C42.2109 83.4107 42.7035 82.9171 42.7035 82.3083C42.7035 81.6994 42.2109 81.2058 41.6032 81.2058C40.9955 81.2058 40.5029 81.6994 40.5029 82.3083C40.5029 82.9171 40.9955 83.4107 41.6032 83.4107Z" fill="url(#paint2_radial)" fill-opacity="0.7"/>
</g>
<g filter="url(#filter5_di)">
<path d="M41.6682 91.8406C42.3831 91.8406 42.9627 91.2309 42.9627 90.4788C42.9627 89.7267 42.3831 89.1169 41.6682 89.1169C40.9533 89.1169 40.3738 89.7267 40.3738 90.4788C40.3738 91.2309 40.9533 91.8406 41.6682 91.8406Z" fill="#F985A0"/>
<path d="M41.6682 91.8406C42.3831 91.8406 42.9627 91.2309 42.9627 90.4788C42.9627 89.7267 42.3831 89.1169 41.6682 89.1169C40.9533 89.1169 40.3738 89.7267 40.3738 90.4788C40.3738 91.2309 40.9533 91.8406 41.6682 91.8406Z" fill="url(#paint3_radial)" fill-opacity="0.7"/>
</g>
<g filter="url(#filter6_di)">
<path d="M28.2058 93.9161C28.9207 93.9161 29.5003 93.3064 29.5003 92.5542C29.5003 91.8021 28.9207 91.1924 28.2058 91.1924C27.4909 91.1924 26.9114 91.8021 26.9114 92.5542C26.9114 93.3064 27.4909 93.9161 28.2058 93.9161Z" fill="#A62E41"/>
<path d="M28.2058 93.9161C28.9207 93.9161 29.5003 93.3064 29.5003 92.5542C29.5003 91.8021 28.9207 91.1924 28.2058 91.1924C27.4909 91.1924 26.9114 91.8021 26.9114 92.5542C26.9114 93.3064 27.4909 93.9161 28.2058 93.9161Z" fill="url(#paint4_radial)" fill-opacity="0.7"/>
</g>
<g filter="url(#filter7_di)">
<path d="M26.2644 86.5239C26.9793 86.5239 27.5589 85.9432 27.5589 85.2269C27.5589 84.5106 26.9793 83.9299 26.2644 83.9299C25.5495 83.9299 24.97 84.5106 24.97 85.2269C24.97 85.9432 25.5495 86.5239 26.2644 86.5239Z" fill="#D6516B"/>
<path d="M26.2644 86.5239C26.9793 86.5239 27.5589 85.9432 27.5589 85.2269C27.5589 84.5106 26.9793 83.9299 26.2644 83.9299C25.5495 83.9299 24.97 84.5106 24.97 85.2269C24.97 85.9432 25.5495 86.5239 26.2644 86.5239Z" fill="url(#paint5_radial)" fill-opacity="0.7"/>
</g>
<g filter="url(#filter8_di)">
<path d="M27.3645 80.4282C28.1152 80.4282 28.7237 79.8475 28.7237 79.1312C28.7237 78.4149 28.1152 77.8342 27.3645 77.8342C26.6139 77.8342 26.0054 78.4149 26.0054 79.1312C26.0054 79.8475 26.6139 80.4282 27.3645 80.4282Z" fill="#F985A0"/>
<path d="M27.3645 80.4282C28.1152 80.4282 28.7237 79.8475 28.7237 79.1312C28.7237 78.4149 28.1152 77.8342 27.3645 77.8342C26.6139 77.8342 26.0054 78.4149 26.0054 79.1312C26.0054 79.8475 26.6139 80.4282 27.3645 80.4282Z" fill="url(#paint6_radial)" fill-opacity="0.7"/>
</g>
<g filter="url(#filter9_di)">
<path d="M95.9096 56.4417C95.0219 58.2604 93.4402 59.4419 91.6834 60.4732C90.6558 61.0655 90.6682 63.2049 90.6682 63.2049L90.5565 67.4234C90.5565 69.6179 89.6175 68.505 87.7395 69.9888L86.0492 69.8034C84.1712 69.8034 83.0444 69.8034 83.0444 67.4234C83.0444 65.9609 82.9247 64.3049 82.9247 63.2896C82.9247 61.4426 82.2559 60.6424 81.9215 60.4732C80.4737 59.6267 79.2665 58.4315 78.4126 56.9992C77.5587 55.5669 77.086 53.9442 77.0386 52.2826C76.9912 50.6209 77.3707 48.9745 78.1416 47.4969C78.9124 46.0194 80.0496 44.7589 81.4469 43.8332C82.8443 42.9075 84.4562 42.3466 86.1323 42.203C87.8083 42.0595 89.4939 42.3378 91.0316 43.0121C92.5693 43.6864 93.9091 44.7347 94.9258 46.0591C95.9425 47.3835 96.6031 48.9408 96.8458 50.5857C97.1229 52.5862 96.7972 54.623 95.9096 56.4417Z" fill="#B4D1FA"/>
<path d="M95.9096 56.4417C95.0219 58.2604 93.4402 59.4419 91.6834 60.4732C90.6558 61.0655 90.6682 63.2049 90.6682 63.2049L90.5565 67.4234C90.5565 69.6179 89.6175 68.505 87.7395 69.9888L86.0492 69.8034C84.1712 69.8034 83.0444 69.8034 83.0444 67.4234C83.0444 65.9609 82.9247 64.3049 82.9247 63.2896C82.9247 61.4426 82.2559 60.6424 81.9215 60.4732C80.4737 59.6267 79.2665 58.4315 78.4126 56.9992C77.5587 55.5669 77.086 53.9442 77.0386 52.2826C76.9912 50.6209 77.3707 48.9745 78.1416 47.4969C78.9124 46.0194 80.0496 44.7589 81.4469 43.8332C82.8443 42.9075 84.4562 42.3466 86.1323 42.203C87.8083 42.0595 89.4939 42.3378 91.0316 43.0121C92.5693 43.6864 93.9091 44.7347 94.9258 46.0591C95.9425 47.3835 96.6031 48.9408 96.8458 50.5857C97.1229 52.5862 96.7972 54.623 95.9096 56.4417Z" fill="url(#paint7_radial)" fill-opacity="0.8"/>
</g>
<g filter="url(#filter10_di)">
<path d="M90.2549 62.199H83.3468C82.9726 62.199 82.6692 62.4481 82.6692 62.7554C82.6692 63.0627 82.9726 63.3119 83.3468 63.3119H90.2549C90.6292 63.3119 90.9326 63.0627 90.9326 62.7554C90.9326 62.4481 90.6292 62.199 90.2549 62.199Z" fill="#F985A0"/>
</g>
<g filter="url(#filter11_di)">
<path d="M90.2549 64.054H83.3468C82.9726 64.054 82.6692 64.3031 82.6692 64.6104C82.6692 64.9177 82.9726 65.1669 83.3468 65.1669H90.2549C90.6292 65.1669 90.9326 64.9177 90.9326 64.6104C90.9326 64.3031 90.6292 64.054 90.2549 64.054Z" fill="#F985A0"/>
</g>
<g filter="url(#filter12_di)">
<path d="M90.2549 65.9089H83.3468C82.9726 65.9089 82.6692 66.1581 82.6692 66.4654C82.6692 66.7727 82.9726 67.0218 83.3468 67.0218H90.2549C90.6292 67.0218 90.9326 66.7727 90.9326 66.4654C90.9326 66.1581 90.6292 65.9089 90.2549 65.9089Z" fill="#F985A0"/>
</g>
<path d="M85.1632 54.7796C85.691 55.0487 86.2824 55.1935 86.8851 55.2011C87.8726 55.2011 88.455 54.7444 88.455 54.1003C88.455 53.4563 88.0499 53.1401 87.0496 52.8122C85.7835 52.4374 85.0745 51.887 85.0745 50.9736C85.0745 50.0602 86.0368 49.217 87.4801 49.217C88.0524 49.1978 88.6212 49.3063 89.1387 49.5332L88.8728 50.2124C88.4306 50.0143 87.9461 49.9103 87.4548 49.9079C86.4293 49.9079 86.0494 50.4349 86.0494 50.8799C86.0494 51.3249 86.5052 51.7816 87.5308 52.133C88.7968 52.5545 89.4299 53.0815 89.4299 54.0301C89.4299 54.9786 88.5816 55.8921 86.8217 55.8921C86.1623 55.8982 85.511 55.7576 84.9226 55.4822L85.1632 54.7796Z" fill="#C43B55"/>
<path d="M86.8005 49.2154V48.1025H87.532L87.5518 49.1742" fill="#C43B55"/>
<path d="M87.5518 55.8926V57.0055H86.8203L86.8005 55.9179" fill="#C43B55"/>
<path d="M90.5561 67.7639H83.0439C83.0439 68.5677 83.6074 70.9171 86.8 70.9171C89.6704 70.9171 90.5561 68.815 90.5561 67.7639Z" fill="#71A0DD"/>
<g filter="url(#filter13_d)">
<path d="M43.3692 22.4331H42.4507C42.1125 22.4331 41.8384 22.7072 41.8384 23.0453V27.3822C41.8384 27.7203 42.1125 27.9944 42.4507 27.9944H43.3692C43.7073 27.9944 43.9815 27.7203 43.9815 27.3822V23.0453C43.9815 22.7072 43.7073 22.4331 43.3692 22.4331Z" fill="#D6516B"/>
<path d="M46.3159 19.9917H45.3975C45.0593 19.9917 44.7852 20.2679 44.7852 20.6085V27.3777C44.7852 27.7184 45.0593 27.9945 45.3975 27.9945H46.3159C46.6541 27.9945 46.9282 27.7184 46.9282 27.3777V20.6085C46.9282 20.2679 46.6541 19.9917 46.3159 19.9917Z" fill="#C43B55"/>
<path d="M49.2625 18.7708H48.344C48.0058 18.7708 47.7317 19.0473 47.7317 19.3885V27.3767C47.7317 27.7178 48.0058 27.9944 48.344 27.9944H49.2625C49.6006 27.9944 49.8748 27.7178 49.8748 27.3767V19.3885C49.8748 19.0473 49.6006 18.7708 49.2625 18.7708Z" fill="#A62E41"/>
<path d="M37.4181 23.3831C37.4087 21.3508 38.0994 19.3782 39.3722 17.8021C40.645 16.226 42.421 15.144 44.3971 14.7408C46.3732 14.3377 48.4269 14.6383 50.2075 15.5915C51.9882 16.5447 53.3855 18.0912 54.1609 19.9672M54.1609 19.9672L54.8306 17.8021M54.1609 19.9672L52.0736 19.1217" stroke="#F985A0" stroke-width="4" stroke-miterlimit="10" stroke-linecap="round" stroke-linejoin="round"/>
<path d="M37.4181 26.6688L38.2886 24.8681C37.7388 24.6024 37.0978 24.6023 36.548 24.8679C35.9982 25.1336 35.5998 25.6358 35.4664 26.2317L37.4181 26.6688ZM34.886 28.8235C34.6446 29.9014 35.3227 30.9709 36.4006 31.2123C37.4785 31.4536 38.5479 30.7755 38.7893 29.6977L34.886 28.8235ZM38.8693 29.5918C39.8637 30.0725 41.0596 29.6561 41.5404 28.6616C42.0211 27.6672 41.6047 26.4713 40.6102 25.9905L38.8693 29.5918ZM35.5569 27.4009C36.4732 29.7302 38.1675 31.6679 40.3524 32.8751L42.2869 29.3739C40.9229 28.6203 39.8573 27.406 39.2792 25.9366L35.5569 27.4009ZM40.3524 32.8751C42.5377 34.0825 45.074 34.4816 47.5219 34.0012L46.7516 30.0761C45.2292 30.3749 43.6504 30.1273 42.2869 29.3739L40.3524 32.8751ZM47.5219 34.0012C49.9697 33.5208 52.1701 32.1924 53.7457 30.2508L50.6397 27.7303C49.6503 28.9495 48.2743 29.7772 46.7516 30.0761L47.5219 34.0012ZM53.7457 30.2508C55.3209 28.3097 56.1736 25.8768 56.1608 23.3726L52.1609 23.393C52.1689 24.9767 51.6294 26.5107 50.6397 27.7303L53.7457 30.2508ZM35.4664 26.2317L34.886 28.8235L38.7893 29.6977L39.3697 27.1058L35.4664 26.2317ZM36.5476 28.4694L38.8693 29.5918L40.6102 25.9905L38.2886 24.8681L36.5476 28.4694Z" fill="#F985A0"/>
</g>
<g filter="url(#filter14_di)">
<path d="M275.722 115.002L290.861 112.685C291.165 114.676 291.074 116.707 290.594 118.662C290.114 120.618 289.253 122.459 288.063 124.082C286.872 125.704 285.373 127.076 283.653 128.118C281.932 129.161 280.024 129.854 278.036 130.158C274.021 130.772 269.927 129.764 266.655 127.356C263.382 124.947 261.199 121.336 260.586 117.316C260.232 114.991 260.416 112.616 261.125 110.374C261.833 108.133 263.047 106.084 264.673 104.387C266.298 102.69 268.291 101.39 270.499 100.587C272.706 99.7848 275.068 99.5013 277.402 99.7587L275.722 115.002Z" fill="#C43B55"/>
<path d="M280.635 99.8101L278.804 111.56L290.323 109.393C290.323 109.393 288.62 102.809 280.635 99.8101Z" fill="#71A0DD"/>
</g>
<g filter="url(#filter15_di)">
<path d="M76.1211 113.533H82.8817C82.8817 114.878 82.4899 116.192 81.7553 117.312C81.0206 118.433 79.9758 119.309 78.7517 119.831C77.5275 120.353 76.1784 120.498 74.8732 120.248C73.568 119.997 72.3648 119.363 71.4141 118.424C70.4634 117.485 69.8076 116.283 69.5287 114.968C69.2498 113.654 69.3602 112.285 69.8461 111.034C70.332 109.782 71.1718 108.704 72.2604 107.933C73.349 107.163 74.638 106.734 75.966 106.702L76.1211 113.533Z" fill="#B4D1FA"/>
<path d="M77.9419 111.867L77.7869 105.033C79.5956 105.028 81.3383 105.721 82.6602 106.97C83.9189 108.244 84.6461 109.958 84.6914 111.759L77.9419 111.867Z" fill="#0A3D76"/>
</g>
<g filter="url(#filter16_di)">
<path d="M211.16 40.9829L216.291 33.5202C216.539 33.16 216.855 32.853 217.223 32.617C217.59 32.3811 218 32.221 218.43 32.146C218.859 32.071 219.299 32.0827 219.724 32.1803C220.149 32.278 220.55 32.4596 220.904 32.7147L221.626 33.2308C222.042 33.5303 222.523 33.7277 223.029 33.8073C223.535 33.887 224.052 33.8465 224.54 33.6893C225.027 33.5321 225.472 33.2625 225.837 32.9019C226.203 32.5414 226.48 32.0999 226.645 31.6127L229.136 24.2895C229.358 23.6383 229.778 23.0733 230.335 22.6733C230.893 22.2733 231.561 22.0583 232.246 22.0583C232.931 22.0583 233.598 22.2733 234.156 22.6733C234.713 23.0733 235.133 23.6383 235.355 24.2895L236.559 27.836C236.774 28.4642 237.171 29.0128 237.701 29.4105C238.23 29.8081 238.866 30.0363 239.526 30.0653C240.186 30.0942 240.839 29.9227 241.401 29.5729C241.963 29.2232 242.407 28.7115 242.675 28.1045L243.715 25.7332C243.953 25.1959 244.329 24.732 244.804 24.3895C245.28 24.0469 245.838 23.838 246.42 23.7844C247.003 23.7307 247.589 23.8342 248.118 24.0842C248.648 24.3342 249.101 24.7217 249.432 25.2066C249.776 25.7136 250.253 26.1143 250.811 26.3639C251.368 26.6134 251.984 26.7018 252.589 26.6193C253.194 26.5367 253.763 26.2864 254.235 25.8965C254.706 25.5065 255.06 24.9923 255.256 24.4115L256.422 20.9835C257.494 17.845 262 18.0752 262.735 21.3323L267.196 40.9829C267.196 40.9829 211.316 40.826 211.16 40.9829Z" fill="#F985A0"/>
<g opacity="0.3">
<path opacity="0.3" d="M211.16 40.9829L216.291 33.5202C216.539 33.16 216.855 32.853 217.223 32.617C217.59 32.3811 218 32.221 218.43 32.146C218.859 32.071 219.299 32.0827 219.724 32.1803C220.149 32.278 220.55 32.4596 220.904 32.7147L221.626 33.2308C222.042 33.5303 222.523 33.7277 223.029 33.8073C223.535 33.887 224.052 33.8465 224.54 33.6893C225.027 33.5321 225.472 33.2625 225.837 32.9019C226.203 32.5414 226.48 32.0999 226.645 31.6127L229.136 24.2895C229.358 23.6383 229.778 23.0733 230.335 22.6733C230.893 22.2733 231.561 22.0583 232.246 22.0583C232.931 22.0583 233.598 22.2733 234.156 22.6733C234.713 23.0733 235.133 23.6383 235.355 24.2895L236.559 27.836C236.774 28.4642 237.171 29.0128 237.701 29.4105C238.23 29.8081 238.866 30.0363 239.526 30.0653C240.186 30.0942 240.839 29.9227 241.401 29.5729C241.963 29.2232 242.407 28.7115 242.675 28.1045L243.715 25.7332C243.953 25.1959 244.329 24.732 244.804 24.3895C245.28 24.0469 245.838 23.838 246.42 23.7844C247.003 23.7307 247.589 23.8342 248.118 24.0842C248.648 24.3342 249.101 24.7217 249.432 25.2066C249.776 25.7136 250.253 26.1143 250.811 26.3639C251.368 26.6134 251.984 26.7018 252.589 26.6193C253.194 26.5367 253.763 26.2864 254.235 25.8965C254.706 25.5065 255.06 24.9923 255.256 24.4115L256.422 20.9835C257.494 17.845 262 18.0752 262.735 21.3323L267.196 40.9829C267.196 40.9829 211.316 40.826 211.16 40.9829Z" fill="#B6B6B6"/>
</g>
<path d="M211.018 41.1738L215.18 28.9161C215.394 28.2849 215.798 27.7358 216.335 27.3443C216.872 26.9528 217.516 26.7382 218.18 26.7297C218.843 26.7213 219.493 26.9196 220.04 27.2974C220.586 27.6751 221.003 28.2138 221.233 28.8394L223.228 34.2725C223.425 34.8081 223.759 35.2817 224.197 35.6448C224.635 36.0079 225.162 36.2477 225.722 36.3395C226.283 36.4314 226.857 36.372 227.387 36.1675C227.918 35.9631 228.384 35.6208 228.74 35.1757L230.356 33.1531C230.874 32.5062 231.619 32.0847 232.438 31.9762C233.256 31.8678 234.085 32.0807 234.752 32.5707L238.519 35.3396C239.069 35.7448 239.734 35.9634 240.416 35.9638H245.21C245.891 35.9637 246.554 36.1811 247.104 36.5846L250.67 39.207C251.017 39.4624 251.412 39.6452 251.83 39.7443C252.249 39.8435 252.683 39.857 253.107 39.7841C253.531 39.7113 253.936 39.5535 254.298 39.3201C254.66 39.0868 254.972 38.7827 255.214 38.4258L258.562 33.5018C258.603 33.4391 258.649 33.3798 258.694 33.3205C260.04 31.6083 262.731 31.9709 263.706 33.9168L267.289 41.0587C267.289 41.0587 211.018 40.9436 211.018 41.1738Z" fill="#B4D1FA"/>
<path d="M267.269 41.0594L262.915 37.4954C256.942 33.077 254.108 41.4848 249.411 35.1764L247.795 33.1538C247.277 32.5069 246.532 32.0854 245.713 31.9769C244.895 31.8684 244.066 32.0813 243.4 32.5714L241.526 33.9488C239.745 35.2577 237.596 35.9635 235.39 35.9645H232.962C232.28 35.9636 231.615 36.181 231.064 36.5852L227.498 39.2076C226.034 40.2852 225.015 40.4282 222.673 38.4544C222.673 38.4544 220.134 36.362 220.071 36.3027C218.826 34.7788 216.221 34.7788 215.101 36.3027C214.83 36.6689 214.549 37.0002 214.244 37.3489L210.879 41.0768C210.879 41.0768 267.269 40.8257 267.269 41.0594Z" fill="#0A3D76"/>
<path d="M226.489 12.7497C226.489 12.7985 224.494 12.8403 222.038 12.8403C219.582 12.8403 217.591 12.7985 217.591 12.7497C217.591 12.701 219.586 12.6592 222.045 12.6592C224.505 12.6592 226.489 12.701 226.489 12.7497Z" fill="#F985A0"/>
<path d="M216.613 11.9854H215.09V13.5163H216.613V11.9854Z" fill="#F985A0"/>
<path d="M243.285 12.7497C243.285 12.7985 241.29 12.8403 238.831 12.8403C236.371 12.8403 234.38 12.7985 234.38 12.7497C234.38 12.701 236.371 12.6592 238.831 12.6592C241.29 12.6592 243.285 12.701 243.285 12.7497Z" fill="#F985A0"/>
<path d="M233.406 11.9854H231.883V13.5163H233.406V11.9854Z" fill="#B4D1FA"/>
<path d="M260.078 12.7497C260.078 12.7985 258.087 12.8403 255.627 12.8403C253.168 12.8403 251.177 12.7985 251.177 12.7497C251.177 12.701 253.168 12.6592 255.627 12.6592C258.087 12.6592 260.078 12.701 260.078 12.7497Z" fill="#F985A0"/>
<path d="M250.202 11.9854H248.679V13.5163H250.202V11.9854Z" fill="#0A3D76"/>
</g>
<g filter="url(#filter17_d)">
<path d="M170.875 230L2 177.09L160.553 127.267L332 177.09L170.875 230Z" fill="#F5F9FF"/>
</g>
<path d="M308.328 69.0468L306.102 68.0001C306.012 67.9567 305.935 67.8889 305.88 67.8041C305.825 67.7192 305.795 67.6207 305.792 67.5195C305.785 67.2564 305.768 66.991 305.739 66.725C305.689 66.239 305.6 65.7578 305.474 65.2859C305.446 65.181 305.449 65.0699 305.484 64.9669C305.519 64.864 305.583 64.7739 305.669 64.7085L307.709 63.1373C307.815 63.0562 307.887 62.9375 307.91 62.8051C307.934 62.6727 307.907 62.5363 307.835 62.4231L306.58 60.4203C306.512 60.3113 306.406 60.2317 306.283 60.1965C306.16 60.1613 306.029 60.1731 305.914 60.2295L303.792 61.2802C303.691 61.3319 303.576 61.3487 303.464 61.3282C303.352 61.3076 303.25 61.2508 303.173 61.1663C302.477 60.4363 301.671 59.8224 300.785 59.3474C300.681 59.2899 300.598 59.1992 300.55 59.0894C300.502 58.9795 300.491 58.8566 300.518 58.7397L300.863 57.3291C300.893 57.1986 300.876 57.0613 300.814 56.9428C300.752 56.8243 300.649 56.7328 300.525 56.6856L298.335 55.8883C298.291 55.8711 298.246 55.8603 298.2 55.8564C298.091 55.8459 297.982 55.87 297.887 55.9253C297.793 55.9806 297.717 56.0645 297.672 56.1651L296.899 57.8456L296.712 58.2557C296.269 58.2407 295.826 58.2574 295.386 58.3058C294.799 58.3693 294.219 58.4881 293.653 58.6606C293.551 58.6929 293.441 58.6925 293.338 58.6594C293.236 58.6263 293.146 58.562 293.082 58.4755L291.831 56.8126C291.749 56.7031 291.629 56.629 291.495 56.6048C291.361 56.5806 291.223 56.6083 291.109 56.6822L289.594 57.6503L289.16 57.9293C289.046 58.0023 288.962 58.1155 288.925 58.2473C288.888 58.379 288.9 58.5199 288.96 58.6429L289.828 60.4351C289.879 60.5351 289.897 60.6489 289.879 60.76C289.861 60.8711 289.809 60.9735 289.73 61.0524C289.258 61.5373 288.838 62.0718 288.478 62.647C288.445 62.6931 288.414 62.741 288.386 62.7905C288.377 62.8073 288.366 62.8232 288.353 62.8377C288.289 62.9235 288.202 62.9881 288.101 63.0233C288.001 63.0585 287.893 63.0627 287.79 63.0353L285.523 62.475C285.498 62.4679 285.473 62.4635 285.447 62.4619C285.328 62.4513 285.21 62.4803 285.109 62.5444C285.009 62.6085 284.932 62.7041 284.89 62.8167L284.097 65.0223C284.051 65.1511 284.054 65.2929 284.107 65.4194C284.159 65.546 284.256 65.6481 284.379 65.7056L286.702 66.7939C286.798 66.8381 286.879 66.9107 286.933 67.0023C286.988 67.0938 287.013 67.1998 287.007 67.3065C286.986 67.7973 287.002 68.289 287.054 68.7774C287.083 69.0409 287.121 69.3008 287.17 69.5571C287.19 69.659 287.18 69.7643 287.144 69.8611C287.107 69.958 287.044 70.0426 286.963 70.1055L285.002 71.6169C284.897 71.6976 284.826 71.815 284.803 71.946C284.779 72.0771 284.805 72.2122 284.876 72.3248L286.12 74.3049C286.193 74.4211 286.305 74.5061 286.436 74.5435C286.567 74.5809 286.706 74.5681 286.829 74.5076L288.506 73.6756C288.614 73.6203 288.738 73.6034 288.856 73.6276C288.975 73.6517 289.082 73.7156 289.161 73.8088C289.785 74.57 290.521 75.2287 291.345 75.7616C291.441 75.8225 291.515 75.9127 291.558 76.0192C291.6 76.1257 291.608 76.2431 291.58 76.3544L291.081 78.4216C291.049 78.5555 291.067 78.6967 291.131 78.8182C291.195 78.9397 291.302 79.0331 291.43 79.0805L293.602 79.8778C293.728 79.9241 293.866 79.9211 293.989 79.8693C294.112 79.8175 294.212 79.7207 294.268 79.5982L294.313 79.5003L295.211 77.5475C295.257 77.4457 295.334 77.3608 295.429 77.3041C295.525 77.2474 295.635 77.2216 295.746 77.2303C296.301 77.2692 296.859 77.2582 297.412 77.1973C297.713 77.1642 298.007 77.1158 298.299 77.0566C298.398 77.0351 298.501 77.0425 298.596 77.0779C298.691 77.1133 298.774 77.1752 298.835 77.2565L300.104 78.945C300.188 79.0559 300.309 79.1312 300.445 79.1561C300.58 79.181 300.72 79.1536 300.837 79.0794L302.788 77.8265C302.841 77.791 302.888 77.7472 302.927 77.6967C302.988 77.6155 303.025 77.5192 303.035 77.4182C303.045 77.3172 303.027 77.2154 302.984 77.1238L302.29 75.6972C302.249 75.6112 302.231 75.516 302.237 75.4208C302.243 75.3256 302.274 75.2337 302.326 75.154C302.354 75.1117 302.388 75.0734 302.427 75.0401C303.389 74.2266 304.18 73.2272 304.756 72.1004C304.803 72.0073 304.876 71.9303 304.966 71.8787C305.056 71.8272 305.159 71.8035 305.263 71.8105C305.293 71.8128 305.323 71.8176 305.353 71.8247L307.188 72.2803C307.316 72.3121 307.452 72.2948 307.569 72.2318C307.686 72.1688 307.776 72.0644 307.822 71.9386L307.84 71.888L308.615 69.7387C308.661 69.608 308.658 69.4645 308.605 69.3364C308.552 69.2083 308.453 69.105 308.328 69.0468ZM291.4 66.8309C291.465 66.4399 291.566 66.056 291.702 65.684C291.973 64.9437 292.734 63.9807 293.392 63.557C293.462 63.5109 293.533 63.4676 293.604 63.4249C297.944 60.8519 302.83 64.8998 301.113 69.7581C300.888 70.3931 300.325 71.1716 299.743 71.6784C299.618 71.7884 299.485 71.8887 299.345 71.9785C298.784 72.3392 298.166 72.6004 297.518 72.7507C294.044 73.5321 290.8 70.5793 291.4 66.8309Z" fill="#EBF2F9"/>
<path d="M172.409 20.1214L171.167 19.5482C171.116 19.5244 171.073 19.4873 171.043 19.4408C171.012 19.3943 170.995 19.3404 170.994 19.285C170.99 19.1409 170.98 18.9955 170.964 18.8499C170.936 18.5837 170.887 18.3202 170.816 18.0618C170.8 18.0044 170.802 17.9435 170.822 17.8871C170.841 17.8308 170.877 17.7815 170.925 17.7456L172.064 16.8852C172.123 16.8408 172.163 16.7758 172.176 16.7033C172.189 16.6308 172.174 16.5561 172.134 16.4941L171.434 15.3973C171.395 15.3376 171.336 15.294 171.268 15.2748C171.199 15.2555 171.126 15.2619 171.062 15.2928L169.878 15.8682C169.821 15.8965 169.757 15.9057 169.694 15.8945C169.632 15.8832 169.575 15.8521 169.532 15.8058C169.143 15.4061 168.694 15.0699 168.199 14.8098C168.141 14.7783 168.095 14.7286 168.068 14.6685C168.041 14.6083 168.035 14.541 168.05 14.477L168.242 13.7045C168.26 13.6331 168.25 13.5578 168.215 13.493C168.18 13.4281 168.123 13.378 168.054 13.3521L166.832 12.9155C166.807 12.9061 166.782 12.9002 166.756 12.8981C166.695 12.8923 166.634 12.9055 166.582 12.9358C166.529 12.9661 166.487 13.012 166.462 13.0671L166.03 13.9874L165.926 14.2119C165.679 14.2037 165.431 14.2129 165.186 14.2394C164.858 14.2742 164.534 14.3392 164.219 14.4337C164.161 14.4514 164.1 14.4512 164.043 14.433C163.986 14.4149 163.936 14.3797 163.899 14.3323L163.202 13.4217C163.156 13.3617 163.089 13.3211 163.014 13.3079C162.939 13.2947 162.862 13.3098 162.798 13.3503L161.953 13.8804L161.711 14.0332C161.647 14.0732 161.6 14.1352 161.579 14.2073C161.559 14.2795 161.566 14.3566 161.599 14.424L162.083 15.4054C162.112 15.4602 162.122 15.5225 162.112 15.5833C162.102 15.6442 162.073 15.7003 162.029 15.7435C161.765 16.009 161.531 16.3017 161.33 16.6167C161.312 16.642 161.294 16.6682 161.279 16.6953C161.273 16.7045 161.267 16.7132 161.26 16.7211C161.225 16.7681 161.176 16.8035 161.12 16.8228C161.064 16.842 161.003 16.8443 160.946 16.8294L159.681 16.5225C159.667 16.5186 159.653 16.5162 159.638 16.5153C159.572 16.5096 159.506 16.5254 159.45 16.5605C159.394 16.5956 159.351 16.648 159.327 16.7096L158.885 17.9174C158.859 17.988 158.861 18.0656 158.89 18.1349C158.919 18.2042 158.974 18.2602 159.042 18.2917L160.339 18.8876C160.392 18.9118 160.437 18.9516 160.468 19.0017C160.498 19.0518 160.513 19.1099 160.509 19.1683C160.497 19.4371 160.506 19.7064 160.535 19.9739C160.551 20.1181 160.573 20.2604 160.6 20.4008C160.611 20.4566 160.606 20.5143 160.585 20.5673C160.565 20.6204 160.53 20.6667 160.484 20.7011L159.39 21.5288C159.331 21.573 159.292 21.6373 159.279 21.709C159.266 21.7808 159.28 21.8548 159.32 21.9164L160.014 23.0008C160.054 23.0644 160.117 23.111 160.19 23.1315C160.263 23.152 160.341 23.145 160.409 23.1118L161.346 22.6562C161.406 22.6259 161.475 22.6166 161.541 22.6299C161.608 22.6431 161.667 22.6781 161.711 22.7291C162.059 23.1459 162.47 23.5067 162.93 23.7985C162.984 23.8319 163.025 23.8813 163.049 23.9396C163.073 23.9979 163.077 24.0622 163.062 24.1231L162.783 25.2552C162.765 25.3285 162.775 25.4058 162.811 25.4724C162.847 25.5389 162.906 25.59 162.977 25.616L164.19 26.0526C164.26 26.078 164.337 26.0763 164.406 26.0479C164.475 26.0196 164.53 25.9666 164.561 25.8995L164.587 25.8459L165.088 24.7765C165.114 24.7208 165.156 24.6743 165.21 24.6432C165.263 24.6122 165.325 24.598 165.386 24.6028C165.696 24.6241 166.008 24.6181 166.317 24.5847C166.484 24.5666 166.649 24.5401 166.812 24.5077C166.867 24.4959 166.924 24.5 166.977 24.5193C167.03 24.5387 167.077 24.5726 167.111 24.6171L167.819 25.5418C167.866 25.6025 167.933 25.6438 168.009 25.6574C168.085 25.671 168.163 25.656 168.228 25.6154L169.317 24.9293C169.346 24.9099 169.373 24.8859 169.395 24.8582C169.428 24.8137 169.449 24.761 169.455 24.7057C169.46 24.6504 169.45 24.5946 169.426 24.5445L169.039 23.7633C169.016 23.7162 169.006 23.664 169.01 23.6119C169.013 23.5598 169.03 23.5094 169.059 23.4657C169.075 23.4426 169.094 23.4216 169.115 23.4034C169.652 22.9579 170.094 22.4106 170.415 21.7936C170.442 21.7426 170.482 21.7004 170.533 21.6722C170.583 21.644 170.641 21.631 170.698 21.6348C170.715 21.6361 170.732 21.6387 170.749 21.6426L171.773 21.8921C171.845 21.9095 171.92 21.9 171.986 21.8655C172.051 21.831 172.101 21.7739 172.127 21.705L172.137 21.6772L172.569 20.5003C172.595 20.4287 172.593 20.3501 172.563 20.28C172.534 20.2098 172.479 20.1532 172.409 20.1214ZM162.961 18.9079C162.997 18.6938 163.054 18.4835 163.13 18.2798C163.281 17.8744 163.705 17.3471 164.073 17.115C164.112 17.0898 164.152 17.0661 164.191 17.0427C166.614 15.6337 169.341 17.8504 168.382 20.5109C168.257 20.8586 167.942 21.2849 167.618 21.5625C167.548 21.6227 167.473 21.6776 167.395 21.7268C167.082 21.9243 166.737 22.0674 166.376 22.1497C164.437 22.5776 162.626 20.9606 162.961 18.9079Z" fill="#EBF2F9"/>
<path d="M85.2576 8.42504L84.2223 7.93906C84.1802 7.91893 84.1445 7.88743 84.119 7.84804C84.0935 7.80866 84.0793 7.76292 84.078 7.71591C84.0749 7.59375 84.0667 7.47054 84.0534 7.34706C84.0299 7.12141 83.9888 6.89799 83.9303 6.67892C83.917 6.63021 83.9186 6.57861 83.9348 6.53081C83.9509 6.48301 83.9809 6.44121 84.0209 6.41081L84.9697 5.68132C85.0191 5.64366 85.0525 5.58858 85.0633 5.5271C85.0742 5.46563 85.0616 5.40229 85.0282 5.34976L84.4448 4.41986C84.4128 4.36927 84.3636 4.3323 84.3064 4.31597C84.2492 4.29964 84.1881 4.30509 84.1346 4.33128L83.148 4.81911C83.1008 4.8431 83.0472 4.85092 82.9952 4.84138C82.9432 4.83184 82.8957 4.80545 82.8598 4.76622C82.5362 4.42729 82.1614 4.14226 81.7494 3.92172C81.7008 3.89505 81.6623 3.85294 81.6398 3.80193C81.6174 3.75092 81.6122 3.69387 81.6252 3.6396L81.7853 2.98468C81.7996 2.9241 81.7916 2.86031 81.7626 2.8053C81.7337 2.75029 81.6858 2.70783 81.6281 2.6859L80.6095 2.31574C80.5894 2.30773 80.5682 2.30274 80.5467 2.30093C80.4961 2.29603 80.4453 2.30721 80.4013 2.33291C80.3573 2.3586 80.3224 2.39753 80.3015 2.44424L79.9418 3.22449L79.8545 3.41486C79.6488 3.4079 79.4428 3.41567 79.2381 3.43813C78.965 3.46763 78.6951 3.52277 78.4321 3.60285C78.3844 3.61788 78.3332 3.61769 78.2857 3.60231C78.2381 3.58693 78.1963 3.55711 78.1662 3.51692L77.5846 2.74486C77.5463 2.69404 77.4905 2.65961 77.4282 2.64839C77.366 2.63718 77.3018 2.65 77.2485 2.68431L76.5441 3.1338L76.3423 3.26336C76.289 3.29722 76.25 3.34979 76.2328 3.41096C76.2155 3.47212 76.2214 3.53755 76.2491 3.59465L76.6528 4.42673C76.6765 4.47317 76.6848 4.52603 76.6766 4.57759C76.6684 4.62916 76.6441 4.67672 76.6072 4.71334C76.3876 4.93846 76.1924 5.18665 76.0251 5.45367C76.0096 5.47511 75.9953 5.49735 75.9821 5.5203C75.9778 5.52813 75.9727 5.53548 75.9669 5.54225C75.9372 5.58207 75.8965 5.61207 75.8498 5.62841C75.8031 5.64475 75.7527 5.64669 75.705 5.634L74.6508 5.37382C74.6392 5.37054 74.6272 5.3685 74.6152 5.36774C74.5601 5.36286 74.5049 5.37632 74.4582 5.40607C74.4114 5.43581 74.3755 5.48021 74.3561 5.53246L73.9875 6.5565C73.966 6.61633 73.9675 6.68213 73.9918 6.74089C74.016 6.79964 74.0613 6.84707 74.1185 6.87378L75.1988 7.37906C75.2436 7.39956 75.2811 7.43329 75.3065 7.47578C75.3318 7.51826 75.3438 7.56751 75.3408 7.61702C75.331 7.8449 75.3384 8.07321 75.3628 8.29997C75.3759 8.4223 75.3939 8.54296 75.4168 8.66194C75.4257 8.70926 75.4214 8.75815 75.4043 8.80312C75.3873 8.8481 75.3581 8.88738 75.3201 8.91656L74.4082 9.61829C74.3595 9.65575 74.3265 9.71027 74.3156 9.7711C74.3047 9.83194 74.3168 9.89467 74.3495 9.94694L74.9282 10.8663C74.962 10.9202 75.0143 10.9597 75.0751 10.9771C75.136 10.9945 75.201 10.9885 75.2578 10.9604L76.0382 10.5741C76.0885 10.5484 76.1458 10.5406 76.201 10.5518C76.2562 10.563 76.3061 10.5927 76.3426 10.636C76.6327 10.9894 76.9753 11.2952 77.3583 11.5426C77.403 11.5709 77.4378 11.6128 77.4575 11.6622C77.4772 11.7117 77.4809 11.7662 77.468 11.8179L77.2359 12.7776C77.221 12.8398 77.2292 12.9053 77.2591 12.9618C77.2889 13.0182 77.3383 13.0615 77.3978 13.0836L78.4085 13.4537C78.4668 13.4752 78.531 13.4738 78.5883 13.4497C78.6456 13.4257 78.6918 13.3808 78.7179 13.3239L78.7391 13.2784L79.1567 12.3718C79.1782 12.3245 79.2136 12.2851 79.2581 12.2588C79.3025 12.2324 79.3539 12.2205 79.4053 12.2245C79.6636 12.2426 79.923 12.2374 80.1804 12.2092C80.3203 12.1938 80.4571 12.1714 80.593 12.1439C80.639 12.1339 80.6869 12.1373 80.7311 12.1538C80.7752 12.1702 80.8138 12.1989 80.8424 12.2367L81.4326 13.0206C81.4714 13.0721 81.5279 13.1071 81.5909 13.1186C81.6539 13.1302 81.719 13.1175 81.7732 13.083L82.6807 12.5013C82.7054 12.4849 82.7273 12.4645 82.7456 12.4411C82.7736 12.4034 82.7909 12.3586 82.7955 12.3118C82.8001 12.2649 82.7919 12.2176 82.7718 12.1751L82.4491 11.5127C82.4301 11.4728 82.4217 11.4286 82.4246 11.3844C82.4276 11.3402 82.4418 11.2975 82.4658 11.2605C82.4791 11.2409 82.4949 11.2231 82.5127 11.2076C82.9602 10.8299 83.3285 10.3659 83.596 9.84276C83.618 9.79955 83.652 9.76378 83.6939 9.73986C83.7358 9.71595 83.7837 9.70493 83.8318 9.70818C83.846 9.70924 83.8601 9.71145 83.8739 9.71479L84.7272 9.92632C84.787 9.94105 84.8502 9.93303 84.9046 9.90377C84.959 9.87451 85.0009 9.82607 85.0221 9.76767L85.0308 9.74414L85.391 8.74628C85.4126 8.68561 85.4109 8.61896 85.3862 8.55949C85.3615 8.50003 85.3156 8.45205 85.2576 8.42504ZM77.3839 7.39624C77.4143 7.2147 77.4614 7.03643 77.5246 6.86373C77.6506 6.52001 78.0045 6.07291 78.3105 5.87619C78.3433 5.85477 78.3763 5.83468 78.409 5.81485C80.428 4.62027 82.7006 6.49965 81.9018 8.75527C81.797 9.05008 81.5351 9.41152 81.2647 9.64684C81.2064 9.69792 81.1444 9.74449 81.0792 9.78618C80.8184 9.95364 80.531 10.0749 80.2297 10.1447C78.6139 10.5075 77.1049 9.13654 77.3839 7.39624Z" fill="#EBF2F9"/>
<g filter="url(#filter18_f)">
<path d="M122.209 141.45L107.087 146.05L147.576 197.186L177.732 196.757L122.209 141.45Z" fill="url(#paint8_linear)"/>
</g>
<path d="M118.995 75.3781L119.32 74.7561L124.416 75.9582L124.457 77.7684L118.849 76.0002L118.995 75.3781Z" fill="#6F3725"/>
<path d="M123.079 77.8861L117.885 74.0735L118.708 73.1265L124.289 77.1907" fill="black"/>
<path d="M119.409 73.7642C119.394 73.6727 119.402 73.5789 119.433 73.4914C119.463 73.4039 119.514 73.325 119.581 73.2611C119.648 73.1983 119.729 73.1516 119.817 73.1247C119.905 73.1036 119.997 73.1036 120.085 73.1247C120.425 73.2129 120.747 73.3573 121.04 73.552C122.013 74.0515 123.108 74.2618 124.196 74.1581C124.666 74.1302 125.135 74.2352 125.549 74.4612C126.618 75.0673 128.545 76.2795 128.871 77.4614C129.139 78.5039 131.329 80.9768 132.111 81.7587C132.183 81.83 132.235 81.9191 132.262 82.0169C132.289 82.1147 132.29 82.2179 132.265 82.3163C132.241 82.414 132.192 82.5038 132.123 82.5769C132.054 82.6495 131.968 82.7036 131.873 82.7345C131.072 82.9618 130.088 83.3982 129.641 84.1952C129.417 84.5982 127.793 83.4194 127.557 83.0224C127.484 82.8979 127.366 82.8059 127.228 82.7648C126.397 82.5163 123.404 81.6344 122.565 81.6435C122.479 81.6431 122.395 81.6245 122.317 81.5889C122.239 81.5515 122.17 81.4978 122.115 81.4314C122.012 81.3041 121.919 81.1647 121.949 81.0798C122.006 80.9071 121.088 81.1556 120.849 80.604C120.611 80.0525 120.526 79.1554 119.968 78.4615C119.914 78.396 119.847 78.3433 119.771 78.3069C119.4 78.122 118.219 77.5038 118.279 76.9098C118.448 76.214 118.704 75.5428 119.043 74.9127L119.2 75.0491C119.17 75.1985 119.192 75.354 119.264 75.4885C119.337 75.6255 119.456 75.7327 119.599 75.7916L119.653 75.831C119.775 75.9127 119.912 75.9703 120.055 76.0007L120.689 76.3037C120.751 76.339 120.819 76.3626 120.889 76.3734L121.423 76.4553C121.475 76.4644 121.528 76.4644 121.58 76.4553L123.498 76.234C123.498 76.234 119.72 76.0492 119.409 73.7642Z" fill="#F9C8A3"/>
<path d="M116.543 75.3352C117.866 75.1058 119.049 74.3712 119.843 73.2857C120.637 72.2003 120.979 70.8487 120.798 69.5154C120.618 68.1821 119.928 66.9711 118.874 66.137C117.82 65.303 116.484 64.911 115.148 65.0436C113.825 65.273 112.642 66.0077 111.848 67.0931C111.054 68.1786 110.712 69.5301 110.893 70.8634C111.073 72.1967 111.763 73.4078 112.817 74.2418C113.871 75.0758 115.207 75.4678 116.543 75.3352Z" fill="#A6CCF4" stroke="black" stroke-width="2" stroke-miterlimit="10"/>
<path d="M118.121 62.1545C117.008 62.45 118.398 63.6318 119.185 63.8061C120.18 64.0478 121.147 64.3925 122.067 64.8343H122.128C122.227 64.8853 122.315 64.9545 122.387 65.0382L122.414 65.0618L122.885 65.4252C122.933 65.4586 122.976 65.4995 123.011 65.5463L123.258 65.8891C123.297 65.9413 123.328 65.9991 123.349 66.0604L123.877 67.5377C123.877 67.5377 122.824 65.7207 121.374 65.4016C120.551 65.2184 120.05 66.2879 120.75 66.7252L120.798 66.7518C121.549 67.2663 122.128 67.9854 122.465 68.8199C122.648 69.2282 122.95 69.5739 123.334 69.8127C124.238 70.4036 125.845 71.2899 126.868 71.0802C127.805 70.8911 130.6 71.5883 131.52 71.8631C131.603 71.892 131.693 71.8991 131.779 71.8838C131.865 71.8675 131.946 71.831 132.014 71.7774C132.084 71.7228 132.138 71.6516 132.171 71.5706C132.205 71.4913 132.219 71.4051 132.21 71.3195C132.102 70.6606 132.075 69.7506 132.545 69.1184C132.78 68.8052 131.228 68.034 130.83 68.0104C130.705 68.0045 130.587 67.9516 130.501 67.8627C129.988 67.3368 128.185 65.4252 127.857 64.8343C127.824 64.7692 127.777 64.7126 127.718 64.6688C127.66 64.6235 127.592 64.593 127.519 64.5802C127.38 64.5477 127.217 64.5329 127.175 64.5802C127.055 64.6895 126.916 63.9154 126.379 63.942C125.842 63.9686 125.134 64.2375 124.386 64.1045C124.277 64.0849 124.173 64.0404 124.085 63.9745C123.753 63.7441 119.824 62.1043 118.106 62.1634L118.121 62.1545Z" fill="#F9C8A3"/>
<path d="M166.87 63.3004L166.361 68.6796C166.361 68.6796 163.12 70.1529 161.504 69.3628C159.888 68.5727 159.85 68.7674 159.85 68.7674L159.793 64.794L163.225 64.1399L166.87 63.3004Z" fill="#F9C8A3"/>
<path d="M165.155 64.9648C164.154 66.7373 162.439 68.026 159.797 67.5965L159.797 64.6984C160.619 64.3711 163.892 65.4201 164.655 64.9648L165.155 64.9648Z" fill="#EAAB85"/>
<path d="M167.667 61.8353L172.737 45.145L156.385 47.9503C156.385 47.9503 154.065 65.4075 157.242 65.6397C160.419 65.872 163.361 64.7553 163.361 64.7553C165.287 63.9963 166.338 63.5272 167.667 61.8353Z" fill="#F9C8A3"/>
<path d="M154.261 58.3622L156.541 58.6767L155.823 57.8319L154.261 58.3622Z" fill="#C69B7D"/>
<path d="M155.836 53.5522C155.118 55.0455 154.876 55.9179 153.762 57.3587C153.682 57.4329 153.626 57.5284 153.601 57.6334C153.576 57.7385 153.583 57.8486 153.62 57.9511C153.658 58.0526 153.722 58.1433 153.806 58.2148C153.893 58.283 153.999 58.3262 154.11 58.3395C155.131 58.42 155.449 58.1847 156.141 58.5464C157.031 59.0015 157.053 58.2036 156.991 57.7069L155.836 53.5522Z" fill="#F9C8A3"/>
<path d="M158.252 52.0184C157.99 51.9846 157.804 51.7444 157.838 51.4819C157.872 51.2115 158.125 51.0246 158.394 51.0707L160.225 51.3851C160.519 51.4348 160.791 51.5611 160.993 51.7425C161.292 52.0033 161.03 52.488 160.648 52.3803L160.331 52.2908C160.31 52.2848 160.289 52.2805 160.267 52.2777L158.252 52.0184Z" fill="#202020"/>
<path d="M155.668 61.0588C155.668 61.0588 157.078 61.4799 157.438 61.007" stroke="#B96665" stroke-width="0.64" stroke-linecap="round" stroke-linejoin="round"/>
<path d="M164.857 57.1663C165.464 56.2484 166.33 56.41 166.559 56.964C166.788 57.518 165.385 58.9097 164.783 58.6547C164.3 58.4531 164.492 57.7177 164.857 57.1663Z" fill="#EAAB85"/>
<path d="M164.615 57.8308C164.962 57.0357 165.521 57.0678 165.698 57.4925C165.875 57.9173 165.04 59.1724 164.632 59.0281C164.301 58.9117 164.418 58.3128 164.615 57.8308Z" fill="#F9C8A3"/>
<path d="M169.197 65.5723C170.917 65.9736 170.175 64.0734 170.175 64.0734C170.175 64.0734 174.084 60.784 175.27 58.8845C176.457 56.985 178.098 51.0441 177.42 49.9117C177.001 49.1795 179.916 42.4807 167.64 38.894C167.64 38.894 163.585 40.3699 161.274 40.006C158.964 39.642 154.23 39.0867 154.23 39.0867C154.23 39.0867 149.62 42.1176 156.329 48.2776C156.329 48.2776 164.895 46.4338 163.872 53.5225C163.782 54.0968 163.238 56.1046 163.66 56.3472C163.866 56.4643 164.224 55.7312 165.126 55.0275C167.207 53.4486 169.691 55.7466 166.17 59.4775C165.539 60.1536 164.947 60.0215 164.527 60.3536C164.527 60.3536 163.223 64.1766 169.197 65.5723Z" fill="#202020"/>
<path d="M159.939 53.5603C159.618 53.349 159.495 53.362 158.976 53.2367C158.732 53.2062 158.487 53.2069 158.246 53.2387C158.246 53.2387 157.613 53.6209 157.535 53.6719C157.399 53.7657 157.409 53.9107 157.568 53.9723C157.728 54.034 157.92 54.0288 158.053 54.0893C159.081 54.5159 159.295 54.6354 159.956 54.549C160.219 54.5219 160.477 54.4644 160.725 54.3777C160.524 54.0542 160.257 53.7753 159.939 53.5603Z" fill="white"/>
<path d="M158.872 53.4257C158.533 53.3409 158.2 53.5366 158.13 53.8626C158.109 53.9584 158.113 54.0547 158.138 54.1452C158.508 54.3248 158.716 54.4149 159.116 54.524C159.236 54.4438 159.325 54.3207 159.358 54.1695C159.429 53.8434 159.211 53.5104 158.872 53.4257Z" fill="#28160D" stroke="#1C1105" stroke-width="0.2" stroke-miterlimit="10"/>
<path d="M158.668 54.3573C158.862 54.4059 159.053 54.2939 159.093 54.1073C159.134 53.9206 159.009 53.7298 158.815 53.6812C158.62 53.6327 158.43 53.7446 158.389 53.9313C158.349 54.118 158.474 54.3087 158.668 54.3573Z" fill="black"/>
<path opacity="0.77" d="M159.027 54.0378C159.125 54.0621 159.22 54.006 159.24 53.9125C159.261 53.8191 159.198 53.7236 159.101 53.6993C159.004 53.675 158.908 53.7311 158.888 53.8245C158.868 53.918 158.93 54.0135 159.027 54.0378Z" fill="white"/>
<path d="M157.458 53.8133L158.223 53.3037C158.292 53.2582 158.374 53.2328 158.458 53.2305L158.727 53.2276C158.864 53.2266 159.001 53.2475 159.132 53.2897L159.773 53.4974C159.903 53.5398 160.023 53.6107 160.123 53.7047L160.707 54.2634L160.922 54.3277L160.418 53.6246C160.299 53.5105 160.155 53.4246 159.997 53.3736L159.358 53.1663C159.208 53.1174 159.05 53.0939 158.893 53.0968L158.626 53.1002C158.455 53.0866 158.284 53.1058 158.123 53.1569L157.215 53.7832L157.458 53.8133Z" fill="#D3A688"/>
<path opacity="0.5" d="M157.388 53.8272L158.152 53.3181C158.235 53.2633 158.332 53.233 158.433 53.2309L158.699 53.2275C158.851 53.2256 159.002 53.2488 159.147 53.2962L159.787 53.5037C159.931 53.5497 160.064 53.6285 160.173 53.7334L160.746 54.2875" stroke="#0A0001" stroke-width="0.3" stroke-miterlimit="10"/>
<path d="M157.45 53.952L157.721 54.0167C157.863 54.0503 158.001 54.0982 158.134 54.1596C158.441 54.3052 159.091 54.6385 159.759 54.5955C159.799 54.5929 160.101 54.5205 160.141 54.5108L160.524 54.4261" stroke="#472A22" stroke-width="0.2" stroke-miterlimit="10"/>
<path d="M131.206 69.3739C131.357 68.0554 132.055 68.0377 132.055 68.0377C132.055 68.0377 141.101 70.6608 147.066 71.2697C152.437 71.8181 160.891 71.3031 160.891 71.3031C160.891 71.3031 165.521 68.8101 168.299 70.6029C170.713 72.1586 171.072 73.9276 171.055 75.9655C171.039 77.1527 170.679 78.2721 170.021 79.178C169.362 80.0838 168.436 80.7341 167.364 81.0439C162.444 82.4795 148.655 77.3046 148.655 77.3046L131.569 72.3212C131.355 71.6897 131.137 70.0115 131.206 69.3739Z" fill="#3F76BC"/>
<path d="M177.643 196.923C178.682 195.914 178.059 190.252 178.059 190.252C178.059 190.252 172.711 185.389 171.976 189.111C171.24 192.834 166.896 194.509 164.422 194.965C162.772 195.269 162.223 196.282 162.04 196.923H177.643Z" fill="#1E3055"/>
<path d="M178.244 190.839C174.232 191.532 171.237 190.839 171.237 190.839C171.29 186.434 170.503 184.356 168.838 172.958C166.642 157.93 163.649 140.343 161.762 129.501C160.677 123.266 160.84 118.893 160.84 118.893L164.119 118.821L176.505 117.603C176.505 117.603 174.153 138.205 174.487 148.164C174.567 150.541 174.487 150.797 175.033 153.14C177.368 161.328 178.244 190.839 178.244 190.839Z" fill="#2B478B"/>
<path d="M174.522 150.139C172.301 154.77 170.974 165.528 168.898 172.972C166.701 157.944 163.709 140.358 161.821 129.516C161.915 125.42 163.175 121.454 164.107 118.821L176.274 118.821C176.274 118.821 174.188 140.18 174.522 150.139Z" fill="#233862"/>
<path d="M163.613 197.8C164.679 196.791 164.04 191.129 164.04 191.129C164.04 191.129 158.546 186.266 157.791 189.989C157.036 193.711 152.577 195.396 150.033 195.842C148.338 196.146 147.776 197.159 147.588 197.8H163.613Z" fill="#233862"/>
<path d="M153.731 118.454C153.731 118.454 158.714 177.206 157.442 190.56C157.442 190.56 160.256 191.387 164.307 191.112C164.307 191.112 169.033 161.38 167.478 155.205C166.397 150.913 174.303 119.205 174.303 119.205L153.731 118.454Z" fill="#2B478B"/>
<path d="M177.587 119.12C176.442 121.775 154.509 120.992 153.257 119.12C152.748 118.358 155.229 110.738 154.895 101.876C154.711 96.9691 154.602 91.6785 154.623 86.9655C154.661 79.2753 152.892 77.2302 153.864 76.7604C156.294 74.1829 158.497 69.7431 164.297 69.6007C165.371 69.6341 167.539 69.3821 168.442 70.0303C169.345 70.6785 170.084 71.8618 170.556 72.9375C172.26 76.8674 174.679 83.8317 174.862 92.0554C175.14 104.729 179.023 115.772 177.587 119.12Z" fill="#71A0DD"/>
<path d="M162.816 81.7465C162.816 81.7465 161.992 94.9996 154.891 101.876C154.706 96.9687 154.598 91.6782 154.618 86.9652C156.74 83.8053 159.539 81.5295 162.816 81.7465Z" fill="#3F76BC"/>
<path d="M163.628 71.9664C163.563 70.7296 162.367 69.9606 161.256 70.5061C159.217 71.5064 156.136 73.4365 153.723 76.7637C152.24 78.8082 145.708 91.7615 144.983 91.8196C144.257 91.8777 132.141 81.3427 132.141 81.3427C132.141 81.3427 128.777 82.5992 128.647 84.4161C128.647 84.4161 134.212 89.9371 139.672 94.96C143.132 98.1433 148.356 98.213 151.793 94.9997C155.805 91.2476 160.664 86.1251 162.585 81.7762C163.776 79.0824 163.771 74.6731 163.628 71.9664Z" fill="#71A0DD"/>
<path d="M159.757 68.2256C161.317 68.257 164.779 68.1768 166.074 66.9428C166.197 66.8217 166.361 66.7485 166.536 66.7372C166.71 66.7266 166.87 66.9429 167.044 67.2391C167.761 68.4591 167.761 69.0157 168.299 69.8871C165.584 69.1711 161.868 70.0303 161.868 70.0303C160.194 70.6497 159.55 70.9486 158.438 71.7486C158.797 70.4008 159.118 70.3115 159.112 68.9193C159.107 68.8308 159.119 68.7422 159.148 68.6579C159.179 68.5744 159.226 68.4975 159.287 68.4313C159.349 68.3646 159.425 68.3122 159.51 68.2779C159.588 68.245 159.672 68.2273 159.757 68.2256Z" fill="#D2DFF9"/>
<path d="M110.494 135.091V119.904C110.494 119.357 110.05 118.913 109.503 118.913C108.955 118.913 108.512 119.357 108.512 119.904V135.091C108.512 135.638 108.955 136.082 109.503 136.082C110.05 136.082 110.494 135.638 110.494 135.091Z" fill="#C9E0FF"/>
<path d="M119.51 135.094V118.512C119.51 117.964 119.066 117.521 118.519 117.521C117.972 117.521 117.528 117.964 117.528 118.512V135.094C117.528 135.641 117.972 136.085 118.519 136.085C119.066 136.085 119.51 135.641 119.51 135.094Z" fill="#C9E0FF"/>
<path d="M128.847 135.094V116.155C128.847 115.608 128.403 115.164 127.856 115.164C127.309 115.164 126.865 115.608 126.865 116.155V135.094C126.865 135.641 127.309 136.085 127.856 136.085C128.403 136.085 128.847 135.641 128.847 135.094Z" fill="#C9E0FF"/>
<path d="M124.461 135.091V128.713C124.461 128.166 124.017 127.722 123.47 127.722C122.922 127.722 122.479 128.166 122.479 128.713V135.091C122.479 135.638 122.922 136.082 123.47 136.082C124.017 136.082 124.461 135.638 124.461 135.091Z" fill="#EBF2F9"/>
<path d="M112.806 135.094V118.065C112.806 117.518 112.362 117.074 111.815 117.074C111.268 117.074 110.824 117.518 110.824 118.065V135.094C110.824 135.641 111.268 136.085 111.815 136.085C112.362 136.085 112.806 135.641 112.806 135.094Z" fill="#E0E0E0"/>
<path d="M121.982 135.094V114.083C121.982 113.536 121.539 113.092 120.991 113.092C120.444 113.092 120 113.536 120 114.083V135.094C120 135.641 120.444 136.085 120.991 136.085C121.539 136.085 121.982 135.641 121.982 135.094Z" fill="#E0E0E0"/>
<path d="M133.962 135.094V114.083C133.962 113.536 133.518 113.092 132.971 113.092C132.423 113.092 131.98 113.536 131.98 114.083V135.094C131.98 135.641 132.423 136.085 132.971 136.085C133.518 136.085 133.962 135.641 133.962 135.094Z" fill="#EBF2F9"/>
<path d="M131.496 135.091V109.541C131.496 108.994 131.052 108.55 130.505 108.55C129.957 108.55 129.513 108.994 129.513 109.541V135.091C129.513 135.638 129.957 136.082 130.505 136.082C131.052 136.082 131.496 135.638 131.496 135.091Z" fill="#E0E0E0"/>
<path d="M115.233 135.091V125.009C115.233 124.462 114.79 124.018 114.242 124.018C113.695 124.018 113.251 124.462 113.251 125.009V135.091C113.251 135.638 113.695 136.082 114.242 136.082C114.79 136.082 115.233 135.638 115.233 135.091Z" fill="#EBF2F9"/>
<path d="M136.8 137.124C136.8 137.169 129.724 137.202 120.996 137.202C112.268 137.202 105.189 137.169 105.189 137.124C105.189 137.079 112.265 137.046 120.996 137.046C129.727 137.046 136.8 137.082 136.8 137.124Z" fill="#EBF2F9"/>
<path d="M105.481 133.031H104.271V133.488H105.481V133.031Z" fill="#EBF2F9"/>
<path d="M105.481 126.92H104.271V127.378H105.481V126.92Z" fill="#EBF2F9"/>
<path d="M105.481 115.418H104.271V115.876H105.481V115.418Z" fill="#EBF2F9"/>
<path d="M105.481 109.64H104.271V110.097H105.481V109.64Z" fill="#EBF2F9"/>
<path d="M105.54 121.171H104.33V121.628H105.54V121.171Z" fill="#EBF2F9"/>
<path d="M199.259 106.749C199.048 106.748 198.847 106.664 198.698 106.515C198.549 106.366 198.465 106.164 198.464 105.953V91.0176C198.464 90.8064 198.548 90.6039 198.697 90.4546C198.846 90.3053 199.048 90.2214 199.259 90.2214C199.363 90.2211 199.467 90.2414 199.563 90.2813C199.66 90.3211 199.748 90.3798 199.821 90.4538C199.895 90.5278 199.954 90.6157 199.994 90.7125C200.033 90.8092 200.054 90.9129 200.053 91.0176V105.953C200.053 106.057 200.033 106.161 199.993 106.257C199.953 106.354 199.894 106.442 199.821 106.516C199.747 106.59 199.659 106.648 199.563 106.688C199.466 106.728 199.363 106.749 199.259 106.749Z" fill="#EBF2F9"/>
<path d="M199.259 106.818C199.048 106.818 198.846 106.734 198.697 106.585C198.548 106.435 198.464 106.233 198.464 106.022V96.3848C198.465 96.1739 198.549 95.9718 198.698 95.8226C198.847 95.6735 199.048 95.5894 199.259 95.5886C199.363 95.5886 199.466 95.6092 199.563 95.6492C199.659 95.6892 199.747 95.7479 199.821 95.8218C199.894 95.8957 199.953 95.9835 199.993 96.0801C200.033 96.1767 200.053 96.2802 200.053 96.3848V106.013C200.055 106.118 200.035 106.223 199.996 106.321C199.957 106.419 199.899 106.508 199.825 106.582C199.751 106.657 199.662 106.717 199.565 106.757C199.468 106.798 199.364 106.818 199.259 106.818Z" fill="#E0E0E0"/>
<path d="M198.759 107.441V108.768H198.625V107.553H198.313V107.433L198.759 107.441Z" fill="#E0E0E0"/>
<path d="M199.076 108.106C199.076 107.682 199.296 107.43 199.605 107.43C199.913 107.43 200.133 107.682 200.133 108.106C200.133 108.53 199.91 108.779 199.605 108.779C199.299 108.779 199.076 108.527 199.076 108.106ZM199.993 108.106C199.993 107.751 199.833 107.556 199.605 107.556C199.376 107.556 199.213 107.751 199.213 108.106C199.213 108.461 199.373 108.656 199.605 108.656C199.836 108.656 199.993 108.458 199.993 108.106Z" fill="#E0E0E0"/>
<path d="M202.438 106.75C202.333 106.75 202.23 106.729 202.134 106.689C202.037 106.649 201.95 106.591 201.876 106.517C201.802 106.443 201.743 106.355 201.704 106.258C201.664 106.162 201.643 106.058 201.643 105.954V91.0186C201.643 90.9139 201.663 90.8102 201.703 90.7135C201.743 90.6167 201.801 90.5288 201.875 90.4548C201.949 90.3808 202.037 90.3221 202.133 90.2823C202.23 90.2424 202.333 90.222 202.438 90.2224C202.542 90.2224 202.645 90.243 202.741 90.2831C202.838 90.3231 202.925 90.3818 202.999 90.4558C203.072 90.5297 203.13 90.6175 203.17 90.7141C203.21 90.8107 203.23 90.9142 203.229 91.0186V105.954C203.229 106.164 203.146 106.366 202.998 106.516C202.849 106.665 202.648 106.749 202.438 106.75Z" fill="#EBF2F9"/>
<path d="M202.438 106.819C202.333 106.82 202.23 106.799 202.133 106.759C202.037 106.719 201.949 106.661 201.875 106.587C201.801 106.513 201.743 106.425 201.703 106.328C201.663 106.231 201.643 106.128 201.643 106.023V93.3648C201.643 93.2601 201.663 93.1564 201.703 93.0596C201.743 92.9629 201.801 92.875 201.875 92.801C201.949 92.7269 202.037 92.6683 202.133 92.6284C202.23 92.5886 202.333 92.5682 202.438 92.5686C202.542 92.5686 202.645 92.5892 202.741 92.6293C202.838 92.6693 202.925 92.728 202.999 92.802C203.072 92.8759 203.13 92.9637 203.17 93.0603C203.21 93.1569 203.23 93.2603 203.229 93.3648V106.023C203.23 106.127 203.21 106.231 203.17 106.328C203.13 106.424 203.072 106.512 202.999 106.586C202.925 106.66 202.838 106.718 202.741 106.759C202.645 106.799 202.542 106.819 202.438 106.819Z" fill="#E0E0E0"/>
<path d="M202.237 108.648V108.769H201.317V108.674L201.869 108.127C202.017 107.978 202.046 107.889 202.046 107.798C202.046 107.646 201.937 107.551 201.734 107.551C201.667 107.547 201.6 107.558 201.537 107.583C201.475 107.608 201.419 107.647 201.374 107.697L201.277 107.614C201.337 107.551 201.41 107.501 201.491 107.468C201.572 107.436 201.659 107.421 201.746 107.425C202.014 107.425 202.186 107.563 202.186 107.783C202.183 107.864 202.161 107.944 202.124 108.015C202.086 108.087 202.033 108.15 201.969 108.199L201.517 108.643L202.237 108.648Z" fill="#E0E0E0"/>
<path d="M202.409 108.107C202.409 107.683 202.629 107.431 202.938 107.431C203.247 107.431 203.467 107.683 203.467 108.107C203.467 108.531 203.244 108.78 202.938 108.78C202.632 108.78 202.409 108.528 202.409 108.107ZM203.327 108.107C203.327 107.752 203.167 107.557 202.938 107.557C202.709 107.557 202.546 107.752 202.546 108.107C202.546 108.462 202.706 108.657 202.938 108.657C203.17 108.657 203.327 108.459 203.327 108.107Z" fill="#E0E0E0"/>
<path d="M205.613 106.75C205.508 106.751 205.404 106.731 205.307 106.692C205.209 106.652 205.121 106.594 205.046 106.52C204.971 106.446 204.912 106.357 204.871 106.26C204.831 106.163 204.81 106.059 204.81 105.954V91.0186C204.81 90.9139 204.83 90.8102 204.87 90.7135C204.91 90.6167 204.968 90.5288 205.042 90.4548C205.116 90.3808 205.204 90.3221 205.3 90.2823C205.397 90.2424 205.5 90.222 205.605 90.2224C205.815 90.2224 206.018 90.3063 206.167 90.4556C206.316 90.6049 206.399 90.8074 206.399 91.0186V105.954C206.399 106.163 206.316 106.364 206.169 106.513C206.022 106.662 205.822 106.747 205.613 106.75Z" fill="#EBF2F9"/>
<path d="M205.613 106.819C205.508 106.82 205.404 106.801 205.306 106.761C205.209 106.722 205.12 106.664 205.045 106.59C204.97 106.515 204.911 106.427 204.871 106.33C204.83 106.232 204.81 106.128 204.81 106.023V98.6768C204.81 98.5722 204.83 98.4685 204.87 98.3717C204.91 98.2749 204.968 98.187 205.042 98.113C205.116 98.039 205.204 97.9804 205.3 97.9405C205.397 97.9006 205.5 97.8803 205.605 97.8807C205.71 97.8795 205.814 97.8993 205.911 97.9388C206.009 97.9783 206.097 98.0367 206.172 98.1108C206.247 98.1848 206.306 98.273 206.347 98.3701C206.387 98.4673 206.408 98.5715 206.408 98.6768V106.028C206.406 106.239 206.322 106.44 206.173 106.588C206.024 106.736 205.823 106.819 205.613 106.819Z" fill="#E0E0E0"/>
<path d="M205.404 108.387C205.404 108.611 205.244 108.78 204.924 108.78C204.75 108.785 204.579 108.725 204.447 108.611L204.515 108.502C204.626 108.605 204.773 108.661 204.924 108.656C205.144 108.656 205.264 108.553 205.264 108.387C205.264 108.221 205.153 108.124 204.907 108.124H204.81V108.023L205.181 107.554H204.504V107.433H205.362V107.554L204.984 108.023C205.264 108.026 205.404 108.175 205.404 108.387Z" fill="#E0E0E0"/>
<path d="M205.596 108.106C205.596 107.682 205.819 107.43 206.125 107.43C206.431 107.43 206.654 107.682 206.654 108.106C206.654 108.53 206.431 108.779 206.125 108.779C205.819 108.779 205.596 108.527 205.596 108.106ZM206.514 108.106C206.514 107.751 206.357 107.556 206.125 107.556C205.894 107.556 205.733 107.751 205.733 108.106C205.733 108.462 205.894 108.656 206.125 108.656C206.357 108.656 206.525 108.459 206.525 108.106H206.514Z" fill="#E0E0E0"/>
<path d="M208.789 106.75C208.579 106.75 208.376 106.666 208.227 106.517C208.078 106.367 207.995 106.165 207.995 105.954V91.0186C207.994 90.9139 208.015 90.8102 208.054 90.7135C208.094 90.6167 208.153 90.5288 208.227 90.4548C208.3 90.3808 208.388 90.3221 208.485 90.2823C208.581 90.2424 208.685 90.222 208.789 90.2224C209 90.2224 209.202 90.3063 209.351 90.4556C209.5 90.6049 209.584 90.8074 209.584 91.0186V105.954C209.583 106.165 209.499 106.367 209.35 106.516C209.201 106.665 209 106.749 208.789 106.75Z" fill="#EBF2F9"/>
<path d="M208.789 106.819C208.685 106.82 208.581 106.799 208.485 106.759C208.388 106.719 208.3 106.661 208.227 106.587C208.153 106.513 208.094 106.425 208.054 106.328C208.015 106.231 207.994 106.128 207.995 106.023V93.3648C207.994 93.2601 208.015 93.1564 208.054 93.0596C208.094 92.9629 208.153 92.875 208.227 92.801C208.3 92.7269 208.388 92.6683 208.485 92.6284C208.581 92.5886 208.685 92.5682 208.789 92.5686C209 92.5686 209.202 92.6525 209.351 92.8018C209.5 92.9511 209.584 93.1536 209.584 93.3648V106.023C209.584 106.128 209.563 106.231 209.523 106.328C209.483 106.424 209.425 106.512 209.351 106.586C209.277 106.66 209.19 106.719 209.093 106.759C208.997 106.799 208.894 106.819 208.789 106.819Z" fill="#E0E0E0"/>
<path d="M208.795 108.413H208.526V108.76H208.392V108.413H207.646V108.313L208.349 107.433H208.5L207.823 108.293H208.395V107.986H208.526V108.293H208.792L208.795 108.413Z" fill="#E0E0E0"/>
<path d="M208.918 108.106C208.918 107.682 209.141 107.43 209.447 107.43C209.753 107.43 209.979 107.682 209.979 108.106C209.979 108.53 209.753 108.779 209.447 108.779C209.141 108.779 208.918 108.527 208.918 108.106ZM209.839 108.106C209.839 107.751 209.678 107.556 209.447 107.556C209.215 107.556 209.058 107.751 209.058 108.106C209.058 108.462 209.215 108.656 209.447 108.656C209.678 108.656 209.839 108.459 209.839 108.106Z" fill="#E0E0E0"/>
<path d="M211.956 106.75C211.745 106.75 211.543 106.666 211.394 106.517C211.245 106.367 211.161 106.165 211.161 105.954V91.0186C211.161 90.9139 211.181 90.8102 211.221 90.7135C211.261 90.6167 211.319 90.5288 211.393 90.4548C211.467 90.3808 211.555 90.3221 211.651 90.2823C211.748 90.2424 211.852 90.222 211.956 90.2224C212.167 90.2224 212.369 90.3063 212.518 90.4556C212.667 90.6049 212.751 90.8074 212.751 91.0186V105.954C212.75 106.165 212.666 106.367 212.517 106.516C212.368 106.665 212.167 106.749 211.956 106.75Z" fill="#EBF2F9"/>
<path d="M211.956 106.819C211.851 106.819 211.748 106.799 211.651 106.759C211.555 106.719 211.467 106.661 211.393 106.587C211.319 106.513 211.261 106.425 211.221 106.328C211.181 106.231 211.161 106.128 211.161 106.023V95.7903C211.161 95.6856 211.181 95.5819 211.221 95.4852C211.261 95.3884 211.319 95.3005 211.393 95.2265C211.467 95.1525 211.555 95.0939 211.651 95.054C211.748 95.0141 211.851 94.9938 211.956 94.9941C212.167 94.9941 212.369 95.078 212.518 95.2273C212.667 95.3766 212.75 95.5791 212.75 95.7903V106.023C212.75 106.127 212.73 106.231 212.69 106.328C212.65 106.424 212.591 106.512 212.518 106.586C212.444 106.66 212.356 106.718 212.26 106.758C212.163 106.798 212.06 106.819 211.956 106.819Z" fill="#E0E0E0"/>
<path d="M211.893 108.379C211.893 108.605 211.736 108.78 211.413 108.78C211.239 108.785 211.069 108.725 210.938 108.611L211.004 108.502C211.114 108.605 211.26 108.66 211.41 108.656C211.636 108.656 211.756 108.545 211.756 108.384C211.756 108.224 211.65 108.098 211.313 108.098H211.027L211.095 107.433H211.822V107.554H211.218L211.173 107.978H211.344C211.742 107.986 211.893 108.144 211.893 108.379Z" fill="#E0E0E0"/>
<path d="M212.065 108.106C212.065 107.682 212.288 107.43 212.594 107.43C212.899 107.43 213.122 107.682 213.122 108.106C213.122 108.53 212.899 108.779 212.594 108.779C212.288 108.779 212.065 108.527 212.065 108.106ZM212.982 108.106C212.982 107.751 212.825 107.556 212.594 107.556C212.362 107.556 212.205 107.751 212.205 108.106C212.205 108.462 212.362 108.656 212.594 108.656C212.825 108.656 212.982 108.459 212.982 108.106Z" fill="#E0E0E0"/>
<path d="M215.141 106.75C214.93 106.749 214.729 106.665 214.58 106.516C214.431 106.367 214.347 106.165 214.346 105.954V91.0186C214.346 90.8074 214.43 90.6049 214.579 90.4556C214.728 90.3063 214.93 90.2224 215.141 90.2224C215.245 90.222 215.349 90.2424 215.445 90.2823C215.542 90.3221 215.63 90.3808 215.704 90.4548C215.777 90.5288 215.836 90.6167 215.876 90.7135C215.916 90.8102 215.936 90.9139 215.935 91.0186V105.954C215.935 106.165 215.852 106.367 215.703 106.517C215.554 106.666 215.352 106.75 215.141 106.75Z" fill="#EBF2F9"/>
<path d="M215.14 106.749C214.94 106.752 214.747 106.678 214.599 106.543C214.452 106.408 214.361 106.221 214.346 106.022V98.6758C214.34 98.5667 214.356 98.4576 214.393 98.3549C214.43 98.2522 214.487 98.158 214.562 98.0779C214.636 97.9977 214.725 97.9333 214.824 97.8885C214.924 97.8436 215.031 97.8192 215.14 97.8167C215.245 97.8163 215.348 97.8366 215.445 97.8765C215.541 97.9164 215.629 97.975 215.703 98.049C215.777 98.123 215.835 98.2109 215.875 98.3077C215.915 98.4045 215.935 98.5082 215.935 98.6128V105.967C215.931 106.176 215.846 106.375 215.697 106.521C215.549 106.667 215.349 106.749 215.14 106.749Z" fill="#E0E0E0"/>
<path d="M215.037 108.373C215.036 108.43 215.023 108.487 215 108.539C214.976 108.591 214.941 108.638 214.899 108.676C214.856 108.714 214.806 108.743 214.751 108.761C214.697 108.779 214.639 108.785 214.582 108.78C214.231 108.78 214.039 108.536 214.039 108.118C214.039 107.7 214.285 107.431 214.645 107.431C214.755 107.425 214.863 107.45 214.96 107.502L214.906 107.611C214.827 107.568 214.738 107.547 214.648 107.551C214.362 107.551 214.179 107.734 214.179 108.095C214.177 108.13 214.177 108.166 214.179 108.201C214.217 108.128 214.275 108.068 214.347 108.027C214.419 107.987 214.501 107.969 214.582 107.975C214.639 107.968 214.697 107.972 214.751 107.989C214.806 108.006 214.856 108.034 214.899 108.071C214.942 108.109 214.977 108.155 215 108.207C215.024 108.259 215.037 108.316 215.037 108.373ZM214.903 108.373C214.903 108.198 214.774 108.087 214.568 108.087C214.527 108.082 214.485 108.086 214.445 108.098C214.405 108.11 214.368 108.13 214.337 108.156C214.305 108.183 214.279 108.216 214.26 108.253C214.241 108.291 214.23 108.331 214.228 108.373C214.228 108.519 214.348 108.659 214.577 108.659C214.617 108.665 214.659 108.662 214.698 108.65C214.737 108.639 214.773 108.619 214.804 108.592C214.835 108.565 214.86 108.532 214.877 108.495C214.894 108.457 214.903 108.417 214.903 108.376V108.373Z" fill="#E0E0E0"/>
<path d="M215.191 108.107C215.191 107.683 215.414 107.431 215.72 107.431C216.026 107.431 216.249 107.683 216.249 108.107C216.249 108.531 216.026 108.78 215.72 108.78C215.414 108.78 215.191 108.528 215.191 108.107ZM216.109 108.107C216.109 107.751 215.951 107.557 215.72 107.557C215.488 107.557 215.331 107.751 215.331 108.107C215.331 108.462 215.488 108.657 215.72 108.657C215.951 108.657 216.109 108.459 216.109 108.107Z" fill="#E0E0E0"/>
<path d="M218.316 106.75C218.105 106.749 217.904 106.665 217.755 106.516C217.606 106.367 217.522 106.165 217.521 105.954V91.0186C217.521 90.8074 217.605 90.6049 217.754 90.4556C217.903 90.3063 218.105 90.2224 218.316 90.2224C218.525 90.2239 218.726 90.3086 218.873 90.4578C219.02 90.607 219.103 90.8087 219.102 91.0186V105.954C219.102 106.163 219.019 106.365 218.872 106.514C218.725 106.663 218.525 106.748 218.316 106.75Z" fill="#EBF2F9"/>
<path d="M218.316 106.819C218.105 106.819 217.903 106.735 217.754 106.586C217.605 106.436 217.521 106.234 217.521 106.023V92.6053C217.521 92.5003 217.541 92.3962 217.58 92.2989C217.62 92.2017 217.678 92.1132 217.752 92.0387C217.826 91.9641 217.914 91.905 218.01 91.8646C218.107 91.8242 218.211 91.8035 218.316 91.8035C218.42 91.8042 218.523 91.8256 218.619 91.8663C218.715 91.9071 218.802 91.9664 218.875 92.0409C218.948 92.1154 219.006 92.2036 219.045 92.3005C219.084 92.3973 219.103 92.5009 219.102 92.6053V106.023C219.103 106.232 219.02 106.434 218.873 106.583C218.726 106.733 218.525 106.817 218.316 106.819Z" fill="#E0E0E0"/>
<path d="M218.147 107.442V107.554L217.593 108.782H217.444L217.99 107.554H217.31V107.803H217.175V107.433L218.147 107.442Z" fill="#E0E0E0"/>
<path d="M218.287 108.106C218.287 107.682 218.51 107.43 218.816 107.43C219.122 107.43 219.348 107.682 219.348 108.106C219.348 108.53 219.122 108.779 218.816 108.779C218.51 108.779 218.287 108.527 218.287 108.106ZM219.208 108.106C219.208 107.751 219.048 107.556 218.816 107.556C218.585 107.556 218.427 107.751 218.427 108.106C218.427 108.462 218.585 108.656 218.816 108.656C219.048 108.656 219.208 108.459 219.208 108.106Z" fill="#E0E0E0"/>
<path d="M221.492 106.75C221.281 106.749 221.08 106.665 220.931 106.516C220.782 106.367 220.698 106.165 220.697 105.954V91.0186C220.697 90.8074 220.781 90.6049 220.93 90.4556C221.079 90.3063 221.281 90.2224 221.492 90.2224C221.596 90.222 221.7 90.2424 221.796 90.2823C221.893 90.3221 221.981 90.3808 222.055 90.4548C222.129 90.5288 222.187 90.6167 222.227 90.7135C222.267 90.8102 222.287 90.9139 222.287 91.0186V105.954C222.287 106.165 222.203 106.367 222.054 106.517C221.905 106.666 221.703 106.75 221.492 106.75Z" fill="#EBF2F9"/>
<path d="M221.492 106.819C221.281 106.819 221.079 106.735 220.93 106.586C220.781 106.436 220.697 106.234 220.697 106.023V100.186C220.697 99.9749 220.781 99.7724 220.93 99.6231C221.079 99.4738 221.281 99.3899 221.492 99.3899C221.596 99.3895 221.7 99.4099 221.796 99.4497C221.893 99.4896 221.981 99.5482 222.054 99.6222C222.128 99.6962 222.187 99.7842 222.227 99.8809C222.266 99.9777 222.287 100.081 222.286 100.186V106.023C222.287 106.127 222.266 106.231 222.227 106.328C222.187 106.424 222.128 106.512 222.054 106.586C221.981 106.66 221.893 106.719 221.796 106.759C221.7 106.799 221.596 106.819 221.492 106.819Z" fill="#E0E0E0"/>
<path d="M221.334 108.413C221.334 108.648 221.137 108.794 220.82 108.794C220.503 108.794 220.308 108.648 220.308 108.413C220.308 108.338 220.333 108.264 220.38 108.205C220.427 108.146 220.492 108.104 220.565 108.087C220.504 108.069 220.449 108.032 220.411 107.98C220.374 107.928 220.354 107.864 220.357 107.8C220.357 107.585 220.54 107.451 220.82 107.451C221.1 107.451 221.286 107.585 221.286 107.8C221.288 107.865 221.268 107.928 221.23 107.98C221.191 108.032 221.137 108.07 221.074 108.087C221.148 108.103 221.214 108.145 221.261 108.204C221.309 108.264 221.334 108.337 221.334 108.413ZM221.194 108.413C221.194 108.25 221.054 108.147 220.82 108.147C220.585 108.147 220.445 108.25 220.445 108.413C220.445 108.576 220.585 108.679 220.82 108.679C221.054 108.679 221.194 108.562 221.194 108.413ZM220.817 108.024C221.023 108.024 221.146 107.932 221.146 107.786C221.146 107.64 221.017 107.554 220.817 107.554C220.617 107.554 220.488 107.645 220.488 107.794C220.488 107.943 220.614 108.024 220.817 108.024Z" fill="#E0E0E0"/>
<path d="M221.523 108.106C221.523 107.682 221.743 107.43 222.052 107.43C222.361 107.43 222.581 107.682 222.581 108.106C222.581 108.53 222.358 108.779 222.052 108.779C221.746 108.779 221.523 108.527 221.523 108.106ZM222.441 108.106C222.441 107.751 222.281 107.556 222.052 107.556C221.823 107.556 221.66 107.751 221.66 108.106C221.66 108.462 221.82 108.656 222.052 108.656C222.283 108.656 222.441 108.459 222.441 108.106Z" fill="#E0E0E0"/>
<path d="M224.668 106.75C224.457 106.749 224.256 106.665 224.107 106.516C223.959 106.366 223.876 106.164 223.876 105.954V91.0186C223.875 90.9142 223.896 90.8107 223.935 90.7141C223.975 90.6175 224.033 90.5297 224.107 90.4558C224.18 90.3818 224.268 90.3231 224.364 90.2831C224.46 90.243 224.563 90.2224 224.668 90.2224C224.772 90.222 224.875 90.2424 224.972 90.2823C225.069 90.3221 225.156 90.3808 225.23 90.4548C225.304 90.5288 225.363 90.6167 225.402 90.7135C225.442 90.8102 225.463 90.9139 225.462 91.0186V105.954C225.462 106.165 225.378 106.367 225.229 106.517C225.08 106.666 224.878 106.75 224.668 106.75Z" fill="#EBF2F9"/>
<path d="M224.667 106.75C224.467 106.753 224.274 106.679 224.127 106.544C223.98 106.408 223.89 106.222 223.875 106.022V103.978C223.869 103.869 223.885 103.76 223.922 103.657C223.958 103.554 224.016 103.46 224.089 103.38C224.163 103.3 224.252 103.235 224.352 103.19C224.451 103.145 224.558 103.121 224.667 103.118C224.772 103.118 224.875 103.138 224.972 103.178C225.068 103.218 225.156 103.277 225.23 103.351C225.304 103.425 225.362 103.513 225.402 103.609C225.442 103.706 225.462 103.81 225.462 103.915V105.962C225.459 106.172 225.375 106.372 225.226 106.52C225.077 106.667 224.876 106.75 224.667 106.75Z" fill="#E0E0E0"/>
<path d="M224.43 108.095C224.43 108.545 224.184 108.78 223.824 108.78C223.714 108.785 223.606 108.76 223.509 108.708L223.564 108.6C223.642 108.645 223.731 108.667 223.821 108.663C224.107 108.663 224.29 108.476 224.29 108.118C224.29 108.087 224.29 108.05 224.29 108.009C224.251 108.083 224.192 108.143 224.12 108.183C224.048 108.223 223.966 108.241 223.884 108.236C223.828 108.242 223.771 108.237 223.717 108.22C223.663 108.203 223.613 108.174 223.571 108.137C223.529 108.099 223.495 108.053 223.471 108.002C223.448 107.95 223.435 107.894 223.435 107.838C223.436 107.78 223.449 107.724 223.473 107.672C223.496 107.619 223.531 107.573 223.573 107.535C223.616 107.496 223.666 107.467 223.721 107.45C223.775 107.432 223.833 107.425 223.89 107.431C224.247 107.431 224.43 107.674 224.43 108.095ZM224.247 107.84C224.247 107.694 224.127 107.554 223.898 107.554C223.857 107.548 223.816 107.551 223.776 107.563C223.737 107.575 223.701 107.595 223.67 107.622C223.639 107.65 223.614 107.683 223.597 107.721C223.58 107.758 223.572 107.799 223.572 107.84C223.572 108.015 223.704 108.127 223.907 108.127C223.948 108.132 223.99 108.128 224.03 108.116C224.07 108.104 224.107 108.084 224.138 108.057C224.17 108.03 224.196 107.997 224.215 107.96C224.234 107.923 224.245 107.882 224.247 107.84Z" fill="#E0E0E0"/>
<path d="M224.624 108.106C224.624 107.682 224.847 107.43 225.153 107.43C225.459 107.43 225.685 107.682 225.685 108.106C225.685 108.53 225.459 108.779 225.153 108.779C224.847 108.779 224.624 108.527 224.624 108.106ZM225.545 108.106C225.545 107.75 225.384 107.556 225.153 107.556C224.921 107.556 224.764 107.75 224.764 108.106C224.764 108.461 224.921 108.656 225.153 108.656C225.384 108.656 225.545 108.458 225.545 108.106Z" fill="#E0E0E0"/>
<path d="M227.846 106.75C227.635 106.75 227.433 106.666 227.284 106.517C227.135 106.367 227.052 106.165 227.052 105.954V91.0186C227.051 90.9139 227.071 90.8102 227.111 90.7135C227.151 90.6167 227.21 90.5288 227.283 90.4548C227.357 90.3808 227.445 90.3221 227.542 90.2823C227.638 90.2424 227.742 90.222 227.846 90.2224C228.057 90.2224 228.259 90.3063 228.408 90.4556C228.557 90.6049 228.641 90.8074 228.641 91.0186V105.954C228.64 106.165 228.556 106.367 228.407 106.516C228.258 106.665 228.057 106.749 227.846 106.75Z" fill="#EBF2F9"/>
<path d="M227.845 106.749C227.645 106.753 227.451 106.679 227.304 106.544C227.156 106.408 227.065 106.222 227.051 106.022V98.6758C227.045 98.5666 227.061 98.4573 227.098 98.3545C227.134 98.2516 227.192 98.1572 227.266 98.077C227.34 97.9968 227.43 97.9324 227.529 97.8877C227.629 97.8429 227.736 97.8188 227.845 97.8167C228.056 97.8167 228.258 97.9005 228.407 98.0498C228.556 98.1991 228.64 98.4017 228.64 98.6128V105.967C228.636 106.176 228.55 106.374 228.402 106.52C228.253 106.666 228.054 106.748 227.845 106.749Z" fill="#E0E0E0"/>
<path d="M226.705 107.442V108.768H226.571V107.554H226.248V107.433L226.705 107.442Z" fill="#E0E0E0"/>
<path d="M227.022 108.106C227.022 107.682 227.243 107.43 227.551 107.43C227.86 107.43 228.08 107.682 228.08 108.106C228.08 108.53 227.857 108.779 227.551 108.779C227.245 108.779 227.022 108.527 227.022 108.106ZM227.94 108.106C227.94 107.751 227.78 107.556 227.551 107.556C227.323 107.556 227.16 107.751 227.16 108.106C227.16 108.462 227.32 108.656 227.551 108.656C227.783 108.656 227.94 108.459 227.94 108.106Z" fill="#E0E0E0"/>
<path d="M228.275 108.106C228.275 107.682 228.495 107.43 228.804 107.43C229.113 107.43 229.333 107.682 229.333 108.106C229.333 108.53 229.11 108.779 228.804 108.779C228.498 108.779 228.275 108.527 228.275 108.106ZM229.193 108.106C229.193 107.751 229.032 107.556 228.804 107.556C228.575 107.556 228.412 107.751 228.412 108.106C228.412 108.462 228.572 108.656 228.804 108.656C229.035 108.656 229.193 108.459 229.193 108.106Z" fill="#E0E0E0"/>
<defs>
<filter id="filter0_di" x="106.341" y="-0.550049" width="34.0623" height="34.15" filterUnits="userSpaceOnUse" color-interpolation-filters="sRGB">
<feFlood flood-opacity="0" result="BackgroundImageFix"/>
<feColorMatrix in="SourceAlpha" type="matrix" values="0 0 0 0 0 0 0 0 0 0 0 0 0 0 0 0 0 0 127 0"/>
<feOffset dx="2" dy="2"/>
<feGaussianBlur stdDeviation="2"/>
<feColorMatrix type="matrix" values="0 0 0 0 0 0 0 0 0 0 0 0 0 0 0 0 0 0 0.2 0"/>
<feBlend mode="normal" in2="BackgroundImageFix" result="effect1_dropShadow"/>
<feBlend mode="normal" in="SourceGraphic" in2="effect1_dropShadow" result="shape"/>
<feColorMatrix in="SourceAlpha" type="matrix" values="0 0 0 0 0 0 0 0 0 0 0 0 0 0 0 0 0 0 127 0" result="hardAlpha"/>
<feOffset dx="-4" dy="-4"/>
<feGaussianBlur stdDeviation="4"/>
<feComposite in2="hardAlpha" operator="arithmetic" k2="-1" k3="1"/>
<feColorMatrix type="matrix" values="0 0 0 0 0 0 0 0 0 0 0 0 0 0 0 0 0 0 0.2 0"/>
<feBlend mode="normal" in2="shape" result="effect2_innerShadow"/>
</filter>
<filter id="filter1_d" x="118.372" y="3.79712" width="33.064" height="23.7382" filterUnits="userSpaceOnUse" color-interpolation-filters="sRGB">
<feFlood flood-opacity="0" result="BackgroundImageFix"/>
<feColorMatrix in="SourceAlpha" type="matrix" values="0 0 0 0 0 0 0 0 0 0 0 0 0 0 0 0 0 0 127 0"/>
<feOffset dx="4" dy="4"/>
<feGaussianBlur stdDeviation="4"/>
<feColorMatrix type="matrix" values="0 0 0 0 0 0 0 0 0 0 0 0 0 0 0 0 0 0 0.2 0"/>
<feBlend mode="normal" in2="BackgroundImageFix" result="effect1_dropShadow"/>
<feBlend mode="normal" in="SourceGraphic" in2="effect1_dropShadow" result="shape"/>
</filter>
<filter id="filter2_di" x="21.5002" y="72.947" width="23.0611" height="23.079" filterUnits="userSpaceOnUse" color-interpolation-filters="sRGB">
<feFlood flood-opacity="0" result="BackgroundImageFix"/>
<feColorMatrix in="SourceAlpha" type="matrix" values="0 0 0 0 0 0 0 0 0 0 0 0 0 0 0 0 0 0 127 0"/>
<feOffset dx="2" dy="2"/>
<feGaussianBlur stdDeviation="2"/>
<feColorMatrix type="matrix" values="0 0 0 0 0 0 0 0 0 0 0 0 0 0 0 0 0 0 0.2 0"/>
<feBlend mode="normal" in2="BackgroundImageFix" result="effect1_dropShadow"/>
<feBlend mode="normal" in="SourceGraphic" in2="effect1_dropShadow" result="shape"/>
<feColorMatrix in="SourceAlpha" type="matrix" values="0 0 0 0 0 0 0 0 0 0 0 0 0 0 0 0 0 0 127 0" result="hardAlpha"/>
<feOffset dx="-8" dy="-8"/>
<feGaussianBlur stdDeviation="7"/>
<feComposite in2="hardAlpha" operator="arithmetic" k2="-1" k3="1"/>
<feColorMatrix type="matrix" values="0 0 0 0 0 0 0 0 0 0 0 0 0 0 0 0 0 0 0.4 0"/>
<feBlend mode="normal" in2="shape" result="effect2_innerShadow"/>
</filter>
<filter id="filter3_di" x="31.843" y="72.6665" width="18.2006" height="18.2049" filterUnits="userSpaceOnUse" color-interpolation-filters="sRGB">
<feFlood flood-opacity="0" result="BackgroundImageFix"/>
<feColorMatrix in="SourceAlpha" type="matrix" values="0 0 0 0 0 0 0 0 0 0 0 0 0 0 0 0 0 0 127 0"/>
<feOffset dx="4" dy="4"/>
<feGaussianBlur stdDeviation="4"/>
<feColorMatrix type="matrix" values="0 0 0 0 0 0 0 0 0 0 0 0 0 0 0 0 0 0 0.2 0"/>
<feBlend mode="normal" in2="BackgroundImageFix" result="effect1_dropShadow"/>
<feBlend mode="normal" in="SourceGraphic" in2="effect1_dropShadow" result="shape"/>
<feColorMatrix in="SourceAlpha" type="matrix" values="0 0 0 0 0 0 0 0 0 0 0 0 0 0 0 0 0 0 127 0" result="hardAlpha"/>
<feOffset dx="-4" dy="-4"/>
<feGaussianBlur stdDeviation="4"/>
<feComposite in2="hardAlpha" operator="arithmetic" k2="-1" k3="1"/>
<feColorMatrix type="matrix" values="0 0 0 0 0 0 0 0 0 0 0 0 0 0 0 0 0 0 0.15 0"/>
<feBlend mode="normal" in2="shape" result="effect2_innerShadow"/>
</filter>
<filter id="filter4_di" x="36.5029" y="77.2058" width="18.2006" height="18.2049" filterUnits="userSpaceOnUse" color-interpolation-filters="sRGB">
<feFlood flood-opacity="0" result="BackgroundImageFix"/>
<feColorMatrix in="SourceAlpha" type="matrix" values="0 0 0 0 0 0 0 0 0 0 0 0 0 0 0 0 0 0 127 0"/>
<feOffset dx="4" dy="4"/>
<feGaussianBlur stdDeviation="4"/>
<feColorMatrix type="matrix" values="0 0 0 0 0 0 0 0 0 0 0 0 0 0 0 0 0 0 0.2 0"/>
<feBlend mode="normal" in2="BackgroundImageFix" result="effect1_dropShadow"/>
<feBlend mode="normal" in="SourceGraphic" in2="effect1_dropShadow" result="shape"/>
<feColorMatrix in="SourceAlpha" type="matrix" values="0 0 0 0 0 0 0 0 0 0 0 0 0 0 0 0 0 0 127 0" result="hardAlpha"/>
<feOffset dx="-4" dy="-4"/>
<feGaussianBlur stdDeviation="4"/>
<feComposite in2="hardAlpha" operator="arithmetic" k2="-1" k3="1"/>
<feColorMatrix type="matrix" values="0 0 0 0 0 0 0 0 0 0 0 0 0 0 0 0 0 0 0.15 0"/>
<feBlend mode="normal" in2="shape" result="effect2_innerShadow"/>
</filter>
<filter id="filter5_di" x="36.3738" y="85.1169" width="18.5889" height="18.7237" filterUnits="userSpaceOnUse" color-interpolation-filters="sRGB">
<feFlood flood-opacity="0" result="BackgroundImageFix"/>
<feColorMatrix in="SourceAlpha" type="matrix" values="0 0 0 0 0 0 0 0 0 0 0 0 0 0 0 0 0 0 127 0"/>
<feOffset dx="4" dy="4"/>
<feGaussianBlur stdDeviation="4"/>
<feColorMatrix type="matrix" values="0 0 0 0 0 0 0 0 0 0 0 0 0 0 0 0 0 0 0.2 0"/>
<feBlend mode="normal" in2="BackgroundImageFix" result="effect1_dropShadow"/>
<feBlend mode="normal" in="SourceGraphic" in2="effect1_dropShadow" result="shape"/>
<feColorMatrix in="SourceAlpha" type="matrix" values="0 0 0 0 0 0 0 0 0 0 0 0 0 0 0 0 0 0 127 0" result="hardAlpha"/>
<feOffset dx="-4" dy="-4"/>
<feGaussianBlur stdDeviation="4"/>
<feComposite in2="hardAlpha" operator="arithmetic" k2="-1" k3="1"/>
<feColorMatrix type="matrix" values="0 0 0 0 0 0 0 0 0 0 0 0 0 0 0 0 0 0 0.15 0"/>
<feBlend mode="normal" in2="shape" result="effect2_innerShadow"/>
</filter>
<filter id="filter6_di" x="22.9114" y="87.1924" width="18.5889" height="18.7237" filterUnits="userSpaceOnUse" color-interpolation-filters="sRGB">
<feFlood flood-opacity="0" result="BackgroundImageFix"/>
<feColorMatrix in="SourceAlpha" type="matrix" values="0 0 0 0 0 0 0 0 0 0 0 0 0 0 0 0 0 0 127 0"/>
<feOffset dx="4" dy="4"/>
<feGaussianBlur stdDeviation="4"/>
<feColorMatrix type="matrix" values="0 0 0 0 0 0 0 0 0 0 0 0 0 0 0 0 0 0 0.2 0"/>
<feBlend mode="normal" in2="BackgroundImageFix" result="effect1_dropShadow"/>
<feBlend mode="normal" in="SourceGraphic" in2="effect1_dropShadow" result="shape"/>
<feColorMatrix in="SourceAlpha" type="matrix" values="0 0 0 0 0 0 0 0 0 0 0 0 0 0 0 0 0 0 127 0" result="hardAlpha"/>
<feOffset dx="-4" dy="-4"/>
<feGaussianBlur stdDeviation="4"/>
<feComposite in2="hardAlpha" operator="arithmetic" k2="-1" k3="1"/>
<feColorMatrix type="matrix" values="0 0 0 0 0 0 0 0 0 0 0 0 0 0 0 0 0 0 0.15 0"/>
<feBlend mode="normal" in2="shape" result="effect2_innerShadow"/>
</filter>
<filter id="filter7_di" x="20.97" y="79.9299" width="18.5889" height="18.594" filterUnits="userSpaceOnUse" color-interpolation-filters="sRGB">
<feFlood flood-opacity="0" result="BackgroundImageFix"/>
<feColorMatrix in="SourceAlpha" type="matrix" values="0 0 0 0 0 0 0 0 0 0 0 0 0 0 0 0 0 0 127 0"/>
<feOffset dx="4" dy="4"/>
<feGaussianBlur stdDeviation="4"/>
<feColorMatrix type="matrix" values="0 0 0 0 0 0 0 0 0 0 0 0 0 0 0 0 0 0 0.2 0"/>
<feBlend mode="normal" in2="BackgroundImageFix" result="effect1_dropShadow"/>
<feBlend mode="normal" in="SourceGraphic" in2="effect1_dropShadow" result="shape"/>
<feColorMatrix in="SourceAlpha" type="matrix" values="0 0 0 0 0 0 0 0 0 0 0 0 0 0 0 0 0 0 127 0" result="hardAlpha"/>
<feOffset dx="-4" dy="-4"/>
<feGaussianBlur stdDeviation="4"/>
<feComposite in2="hardAlpha" operator="arithmetic" k2="-1" k3="1"/>
<feColorMatrix type="matrix" values="0 0 0 0 0 0 0 0 0 0 0 0 0 0 0 0 0 0 0.15 0"/>
<feBlend mode="normal" in2="shape" result="effect2_innerShadow"/>
</filter>
<filter id="filter8_di" x="22.0054" y="73.8342" width="18.7183" height="18.594" filterUnits="userSpaceOnUse" color-interpolation-filters="sRGB">
<feFlood flood-opacity="0" result="BackgroundImageFix"/>
<feColorMatrix in="SourceAlpha" type="matrix" values="0 0 0 0 0 0 0 0 0 0 0 0 0 0 0 0 0 0 127 0"/>
<feOffset dx="4" dy="4"/>
<feGaussianBlur stdDeviation="4"/>
<feColorMatrix type="matrix" values="0 0 0 0 0 0 0 0 0 0 0 0 0 0 0 0 0 0 0.2 0"/>
<feBlend mode="normal" in2="BackgroundImageFix" result="effect1_dropShadow"/>
<feBlend mode="normal" in="SourceGraphic" in2="effect1_dropShadow" result="shape"/>
<feColorMatrix in="SourceAlpha" type="matrix" values="0 0 0 0 0 0 0 0 0 0 0 0 0 0 0 0 0 0 127 0" result="hardAlpha"/>
<feOffset dx="-4" dy="-4"/>
<feGaussianBlur stdDeviation="4"/>
<feComposite in2="hardAlpha" operator="arithmetic" k2="-1" k3="1"/>
<feColorMatrix type="matrix" values="0 0 0 0 0 0 0 0 0 0 0 0 0 0 0 0 0 0 0.15 0"/>
<feBlend mode="normal" in2="shape" result="effect2_innerShadow"/>
</filter>
<filter id="filter9_di" x="73.0347" y="38.1663" width="35.9072" height="43.8226" filterUnits="userSpaceOnUse" color-interpolation-filters="sRGB">
<feFlood flood-opacity="0" result="BackgroundImageFix"/>
<feColorMatrix in="SourceAlpha" type="matrix" values="0 0 0 0 0 0 0 0 0 0 0 0 0 0 0 0 0 0 127 0"/>
<feOffset dx="4" dy="4"/>
<feGaussianBlur stdDeviation="4"/>
<feColorMatrix type="matrix" values="0 0 0 0 0 0 0 0 0 0 0 0 0 0 0 0 0 0 0.2 0"/>
<feBlend mode="normal" in2="BackgroundImageFix" result="effect1_dropShadow"/>
<feBlend mode="normal" in="SourceGraphic" in2="effect1_dropShadow" result="shape"/>
<feColorMatrix in="SourceAlpha" type="matrix" values="0 0 0 0 0 0 0 0 0 0 0 0 0 0 0 0 0 0 127 0" result="hardAlpha"/>
<feOffset dx="-4" dy="-4"/>
<feGaussianBlur stdDeviation="4"/>
<feComposite in2="hardAlpha" operator="arithmetic" k2="-1" k3="1"/>
<feColorMatrix type="matrix" values="0 0 0 0 0 0 0 0 0 0 0 0 0 0 0 0 0 0 0.2 0"/>
<feBlend mode="normal" in2="shape" result="effect2_innerShadow"/>
</filter>
<filter id="filter10_di" x="78.6692" y="58.199" width="24.2634" height="17.1129" filterUnits="userSpaceOnUse" color-interpolation-filters="sRGB">
<feFlood flood-opacity="0" result="BackgroundImageFix"/>
<feColorMatrix in="SourceAlpha" type="matrix" values="0 0 0 0 0 0 0 0 0 0 0 0 0 0 0 0 0 0 127 0"/>
<feOffset dx="4" dy="4"/>
<feGaussianBlur stdDeviation="4"/>
<feColorMatrix type="matrix" values="0 0 0 0 0 0 0 0 0 0 0 0 0 0 0 0 0 0 0.2 0"/>
<feBlend mode="normal" in2="BackgroundImageFix" result="effect1_dropShadow"/>
<feBlend mode="normal" in="SourceGraphic" in2="effect1_dropShadow" result="shape"/>
<feColorMatrix in="SourceAlpha" type="matrix" values="0 0 0 0 0 0 0 0 0 0 0 0 0 0 0 0 0 0 127 0" result="hardAlpha"/>
<feOffset dx="-4" dy="-4"/>
<feGaussianBlur stdDeviation="4"/>
<feComposite in2="hardAlpha" operator="arithmetic" k2="-1" k3="1"/>
<feColorMatrix type="matrix" values="0 0 0 0 0 0 0 0 0 0 0 0 0 0 0 0 0 0 0.15 0"/>
<feBlend mode="normal" in2="shape" result="effect2_innerShadow"/>
</filter>
<filter id="filter11_di" x="78.6692" y="60.054" width="24.2634" height="17.1129" filterUnits="userSpaceOnUse" color-interpolation-filters="sRGB">
<feFlood flood-opacity="0" result="BackgroundImageFix"/>
<feColorMatrix in="SourceAlpha" type="matrix" values="0 0 0 0 0 0 0 0 0 0 0 0 0 0 0 0 0 0 127 0"/>
<feOffset dx="4" dy="4"/>
<feGaussianBlur stdDeviation="4"/>
<feColorMatrix type="matrix" values="0 0 0 0 0 0 0 0 0 0 0 0 0 0 0 0 0 0 0.2 0"/>
<feBlend mode="normal" in2="BackgroundImageFix" result="effect1_dropShadow"/>
<feBlend mode="normal" in="SourceGraphic" in2="effect1_dropShadow" result="shape"/>
<feColorMatrix in="SourceAlpha" type="matrix" values="0 0 0 0 0 0 0 0 0 0 0 0 0 0 0 0 0 0 127 0" result="hardAlpha"/>
<feOffset dx="-4" dy="-4"/>
<feGaussianBlur stdDeviation="4"/>
<feComposite in2="hardAlpha" operator="arithmetic" k2="-1" k3="1"/>
<feColorMatrix type="matrix" values="0 0 0 0 0 0 0 0 0 0 0 0 0 0 0 0 0 0 0.15 0"/>
<feBlend mode="normal" in2="shape" result="effect2_innerShadow"/>
</filter>
<filter id="filter12_di" x="78.6692" y="61.9089" width="24.2634" height="17.1129" filterUnits="userSpaceOnUse" color-interpolation-filters="sRGB">
<feFlood flood-opacity="0" result="BackgroundImageFix"/>
<feColorMatrix in="SourceAlpha" type="matrix" values="0 0 0 0 0 0 0 0 0 0 0 0 0 0 0 0 0 0 127 0"/>
<feOffset dx="4" dy="4"/>
<feGaussianBlur stdDeviation="4"/>
<feColorMatrix type="matrix" values="0 0 0 0 0 0 0 0 0 0 0 0 0 0 0 0 0 0 0.2 0"/>
<feBlend mode="normal" in2="BackgroundImageFix" result="effect1_dropShadow"/>
<feBlend mode="normal" in="SourceGraphic" in2="effect1_dropShadow" result="shape"/>
<feColorMatrix in="SourceAlpha" type="matrix" values="0 0 0 0 0 0 0 0 0 0 0 0 0 0 0 0 0 0 127 0" result="hardAlpha"/>
<feOffset dx="-4" dy="-4"/>
<feGaussianBlur stdDeviation="4"/>
<feComposite in2="hardAlpha" operator="arithmetic" k2="-1" k3="1"/>
<feColorMatrix type="matrix" values="0 0 0 0 0 0 0 0 0 0 0 0 0 0 0 0 0 0 0.15 0"/>
<feBlend mode="normal" in2="shape" result="effect2_innerShadow"/>
</filter>
<filter id="filter13_d" x="32.8372" y="10.5664" width="29.994" height="29.633" filterUnits="userSpaceOnUse" color-interpolation-filters="sRGB">
<feFlood flood-opacity="0" result="BackgroundImageFix"/>
<feColorMatrix in="SourceAlpha" type="matrix" values="0 0 0 0 0 0 0 0 0 0 0 0 0 0 0 0 0 0 127 0"/>
<feOffset dx="2" dy="2"/>
<feGaussianBlur stdDeviation="2"/>
<feColorMatrix type="matrix" values="0 0 0 0 0 0 0 0 0 0 0 0 0 0 0 0 0 0 0.15 0"/>
<feBlend mode="normal" in2="BackgroundImageFix" result="effect1_dropShadow"/>
<feBlend mode="normal" in="SourceGraphic" in2="effect1_dropShadow" result="shape"/>
</filter>
<filter id="filter14_di" x="256.411" y="95.6665" width="40.6263" height="40.6675" filterUnits="userSpaceOnUse" color-interpolation-filters="sRGB">
<feFlood flood-opacity="0" result="BackgroundImageFix"/>
<feColorMatrix in="SourceAlpha" type="matrix" values="0 0 0 0 0 0 0 0 0 0 0 0 0 0 0 0 0 0 127 0"/>
<feOffset dx="2" dy="2"/>
<feGaussianBlur stdDeviation="2"/>
<feColorMatrix type="matrix" values="0 0 0 0 0 0 0 0 0 0 0 0 0 0 0 0 0 0 0.15 0"/>
<feBlend mode="normal" in2="BackgroundImageFix" result="effect1_dropShadow"/>
<feBlend mode="normal" in="SourceGraphic" in2="effect1_dropShadow" result="shape"/>
<feColorMatrix in="SourceAlpha" type="matrix" values="0 0 0 0 0 0 0 0 0 0 0 0 0 0 0 0 0 0 127 0" result="hardAlpha"/>
<feOffset dx="-4" dy="-4"/>
<feGaussianBlur stdDeviation="4"/>
<feComposite in2="hardAlpha" operator="arithmetic" k2="-1" k3="1"/>
<feColorMatrix type="matrix" values="0 0 0 0 0 0 0 0 0 0 0 0 0 0 0 0 0 0 0.2 0"/>
<feBlend mode="normal" in2="shape" result="effect2_innerShadow"/>
</filter>
<filter id="filter15_di" x="67.3782" y="103.033" width="23.3133" height="23.3338" filterUnits="userSpaceOnUse" color-interpolation-filters="sRGB">
<feFlood flood-opacity="0" result="BackgroundImageFix"/>
<feColorMatrix in="SourceAlpha" type="matrix" values="0 0 0 0 0 0 0 0 0 0 0 0 0 0 0 0 0 0 127 0"/>
<feOffset dx="2" dy="2"/>
<feGaussianBlur stdDeviation="2"/>
<feColorMatrix type="matrix" values="0 0 0 0 0 0 0 0 0 0 0 0 0 0 0 0 0 0 0.15 0"/>
<feBlend mode="normal" in2="BackgroundImageFix" result="effect1_dropShadow"/>
<feBlend mode="normal" in="SourceGraphic" in2="effect1_dropShadow" result="shape"/>
<feColorMatrix in="SourceAlpha" type="matrix" values="0 0 0 0 0 0 0 0 0 0 0 0 0 0 0 0 0 0 127 0" result="hardAlpha"/>
<feOffset dx="-2" dy="-2"/>
<feGaussianBlur stdDeviation="2"/>
<feComposite in2="hardAlpha" operator="arithmetic" k2="-1" k3="1"/>
<feColorMatrix type="matrix" values="0 0 0 0 0 0 0 0 0 0 0 0 0 0 0 0 0 0 0.2 0"/>
<feBlend mode="normal" in2="shape" result="effect2_innerShadow"/>
</filter>
<filter id="filter16_di" x="208.879" y="9.98535" width="64.4106" height="37.1884" filterUnits="userSpaceOnUse" color-interpolation-filters="sRGB">
<feFlood flood-opacity="0" result="BackgroundImageFix"/>
<feColorMatrix in="SourceAlpha" type="matrix" values="0 0 0 0 0 0 0 0 0 0 0 0 0 0 0 0 0 0 127 0"/>
<feOffset dx="2" dy="2"/>
<feGaussianBlur stdDeviation="2"/>
<feColorMatrix type="matrix" values="0 0 0 0 0 0 0 0 0 0 0 0 0 0 0 0 0 0 0.15 0"/>
<feBlend mode="normal" in2="BackgroundImageFix" result="effect1_dropShadow"/>
<feBlend mode="normal" in="SourceGraphic" in2="effect1_dropShadow" result="shape"/>
<feColorMatrix in="SourceAlpha" type="matrix" values="0 0 0 0 0 0 0 0 0 0 0 0 0 0 0 0 0 0 127 0" result="hardAlpha"/>
<feOffset dx="-2" dy="-2"/>
<feGaussianBlur stdDeviation="2"/>
<feComposite in2="hardAlpha" operator="arithmetic" k2="-1" k3="1"/>
<feColorMatrix type="matrix" values="0 0 0 0 0 0 0 0 0 0 0 0 0 0 0 0 0 0 0.2 0"/>
<feBlend mode="normal" in2="shape" result="effect2_innerShadow"/>
</filter>
<filter id="filter17_d" x="0" y="125.267" width="338" height="110.733" filterUnits="userSpaceOnUse" color-interpolation-filters="sRGB">
<feFlood flood-opacity="0" result="BackgroundImageFix"/>
<feColorMatrix in="SourceAlpha" type="matrix" values="0 0 0 0 0 0 0 0 0 0 0 0 0 0 0 0 0 0 127 0"/>
<feOffset dx="2" dy="2"/>
<feGaussianBlur stdDeviation="2"/>
<feColorMatrix type="matrix" values="0 0 0 0 0 0 0 0 0 0 0 0 0 0 0 0 0 0 0.2 0"/>
<feBlend mode="normal" in2="BackgroundImageFix" result="effect1_dropShadow"/>
<feBlend mode="normal" in="SourceGraphic" in2="effect1_dropShadow" result="shape"/>
</filter>
<filter id="filter18_f" x="105.087" y="139.45" width="74.6454" height="59.7358" filterUnits="userSpaceOnUse" color-interpolation-filters="sRGB">
<feFlood flood-opacity="0" result="BackgroundImageFix"/>
<feBlend mode="normal" in="SourceGraphic" in2="BackgroundImageFix" result="shape"/>
<feGaussianBlur stdDeviation="1" result="effect1_foregroundBlur"/>
</filter>
<radialGradient id="paint0_radial" cx="0" cy="0" r="1" gradientUnits="userSpaceOnUse" gradientTransform="translate(31.7655 82.3737) rotate(49.2781) scale(6.84535 12.254)">
<stop stop-color="white"/>
<stop offset="0.395402" stop-color="white" stop-opacity="0"/>
</radialGradient>
<radialGradient id="paint1_radial" cx="0" cy="0" r="1" gradientUnits="userSpaceOnUse" gradientTransform="translate(36.6844 77.0556) rotate(63.4801) scale(0.724759 0.7239)">
<stop stop-color="white"/>
<stop offset="1" stop-color="white" stop-opacity="0"/>
</radialGradient>
<radialGradient id="paint2_radial" cx="0" cy="0" r="1" gradientUnits="userSpaceOnUse" gradientTransform="translate(41.409 81.6598) rotate(70.0532) scale(0.758874 0.757727)">
<stop stop-color="white"/>
<stop offset="1" stop-color="white" stop-opacity="0"/>
</radialGradient>
<radialGradient id="paint3_radial" cx="0" cy="0" r="1" gradientUnits="userSpaceOnUse" gradientTransform="translate(41.2152 89.96) rotate(71.5989) scale(0.615099 0.584884)">
<stop stop-color="white"/>
<stop offset="1" stop-color="white" stop-opacity="0"/>
</radialGradient>
<radialGradient id="paint4_radial" cx="0" cy="0" r="1" gradientUnits="userSpaceOnUse" gradientTransform="translate(27.8175 91.9057) rotate(74.7735) scale(0.739302 0.702901)">
<stop stop-color="white"/>
<stop offset="1" stop-color="white" stop-opacity="0"/>
</radialGradient>
<radialGradient id="paint5_radial" cx="0" cy="0" r="1" gradientUnits="userSpaceOnUse" gradientTransform="translate(25.6819 84.5136) rotate(77.0301) scale(0.865119 0.863587)">
<stop stop-color="white"/>
<stop offset="1" stop-color="white" stop-opacity="0"/>
</radialGradient>
<radialGradient id="paint6_radial" cx="0" cy="0" r="1" gradientUnits="userSpaceOnUse" gradientTransform="translate(26.782 78.353) rotate(71.5989) scale(0.820132 0.85978)">
<stop stop-color="white"/>
<stop offset="1" stop-color="white" stop-opacity="0"/>
</radialGradient>
<radialGradient id="paint7_radial" cx="0" cy="0" r="1" gradientUnits="userSpaceOnUse" gradientTransform="translate(83.0444 45.6905) rotate(48.9154) scale(8.85904 14.0393)">
<stop stop-color="white"/>
<stop offset="0.723942" stop-color="white" stop-opacity="0"/>
</radialGradient>
<linearGradient id="paint8_linear" x1="115.892" y1="143.942" x2="178.865" y2="216.82" gradientUnits="userSpaceOnUse">
<stop stop-color="#B4D1FA" stop-opacity="0"/>
<stop offset="1" stop-opacity="0.2"/>
</linearGradient>
</defs>
</svg>
