<svg width="48" height="48" fill="none" xmlns="http://www.w3.org/2000/svg"><g filter="url(#filter0_di)"><path d="M19.613 24.172h17.66c0 3.508-1.024 6.938-2.943 9.86a17.68 17.68 0 01-7.845 6.57 17.462 17.462 0 01-10.131 1.087 17.574 17.574 0 01-9.036-4.758 17.881 17.881 0 01-4.925-9.015c-.728-3.43-.44-7 .83-10.264a17.798 17.798 0 016.306-8.088 17.51 17.51 0 019.68-3.213l.404 17.821z" fill="#B4D1FA"/><path d="M24.37 19.827L23.963 2a18.465 18.465 0 0112.73 5.053A18.42 18.42 0 0142 19.546l-17.63.281z" fill="#0A3D76"/></g><defs><filter id="filter0_di" x="0" y="0" width="48" height="48" filterUnits="userSpaceOnUse" color-interpolation-filters="sRGB"><feFlood flood-opacity="0" result="BackgroundImageFix"/><feColorMatrix in="SourceAlpha" values="0 0 0 0 0 0 0 0 0 0 0 0 0 0 0 0 0 0 127 0"/><feOffset dx="2" dy="2"/><feGaussianBlur stdDeviation="2"/><feColorMatrix values="0 0 0 0 0 0 0 0 0 0 0 0 0 0 0 0 0 0 0.15 0"/><feBlend in2="BackgroundImageFix" result="effect1_dropShadow"/><feBlend in="SourceGraphic" in2="effect1_dropShadow" result="shape"/><feColorMatrix in="SourceAlpha" values="0 0 0 0 0 0 0 0 0 0 0 0 0 0 0 0 0 0 127 0" result="hardAlpha"/><feOffset dx="-2" dy="-2"/><feGaussianBlur stdDeviation="2"/><feComposite in2="hardAlpha" operator="arithmetic" k2="-1" k3="1"/><feColorMatrix values="0 0 0 0 0 0 0 0 0 0 0 0 0 0 0 0 0 0 0.2 0"/><feBlend in2="shape" result="effect2_innerShadow"/></filter></defs></svg>