<svg width="90" height="71" fill="none" xmlns="http://www.w3.org/2000/svg"><g filter="url(#filter0_di)"><path d="M33.427 65c17.356 0 31.426-14.103 31.426-31.5S50.783 2 33.427 2C16.07 2 2 16.103 2 33.5S16.07 65 33.427 65z" fill="#F985A0"/><path d="M33.427 58.7c13.885 0 25.141-11.282 25.141-25.2S47.312 8.3 33.427 8.3C19.542 8.3 8.285 19.582 8.285 33.5s11.257 25.2 25.142 25.2z" fill="#C43B55" stroke="#D6516B" stroke-miterlimit="10"/><path d="M33.427 52.4c10.414 0 18.856-8.462 18.856-18.9 0-10.438-8.442-18.9-18.856-18.9-10.414 0-18.856 8.462-18.856 18.9 0 10.438 8.442 18.9 18.856 18.9z" fill="#D6516B" stroke="#C43B55" stroke-miterlimit="10"/><path d="M33.427 46.1c6.943 0 12.57-5.641 12.57-12.6s-5.627-12.6-12.57-12.6c-6.943 0-12.57 5.641-12.57 12.6s5.627 12.6 12.57 12.6z" fill="#F985A0"/><path d="M33.427 39.8c3.471 0 6.285-2.82 6.285-6.3s-2.814-6.3-6.285-6.3c-3.472 0-6.286 2.82-6.286 6.3s2.814 6.3 6.286 6.3z" fill="#D6516B"/><path d="M33.426 35.39a1.888 1.888 0 001.886-1.89c0-1.044-.845-1.89-1.886-1.89a1.888 1.888 0 00-1.886 1.89c0 1.044.845 1.89 1.886 1.89z" fill="#A62E41"/></g><g filter="url(#filter1_d)"><path d="M37.02 32.337L67.675 19.27l2.227.42L78 16.24l-3.506-.217 2.277-2.682-8.098 3.452-1.244 1.898-30.655 13.067.333-.826-3.68 2.595 4.418-.856-.825-.333z" fill="#000"/></g><defs><filter id="filter0_di" x="-2" y="-2" width="72.853" height="73" filterUnits="userSpaceOnUse" color-interpolation-filters="sRGB"><feFlood flood-opacity="0" result="BackgroundImageFix"/><feColorMatrix in="SourceAlpha" values="0 0 0 0 0 0 0 0 0 0 0 0 0 0 0 0 0 0 127 0"/><feOffset dx="2" dy="2"/><feGaussianBlur stdDeviation="2"/><feColorMatrix values="0 0 0 0 0 0 0 0 0 0 0 0 0 0 0 0 0 0 0.2 0"/><feBlend in2="BackgroundImageFix" result="effect1_dropShadow"/><feBlend in="SourceGraphic" in2="effect1_dropShadow" result="shape"/><feColorMatrix in="SourceAlpha" values="0 0 0 0 0 0 0 0 0 0 0 0 0 0 0 0 0 0 127 0" result="hardAlpha"/><feOffset dx="-4" dy="-4"/><feGaussianBlur stdDeviation="4"/><feComposite in2="hardAlpha" operator="arithmetic" k2="-1" k3="1"/><feColorMatrix values="0 0 0 0 0 0 0 0 0 0 0 0 0 0 0 0 0 0 0.2 0"/><feBlend in2="shape" result="effect2_innerShadow"/></filter><filter id="filter1_d" x="29.427" y="9.34" width="60.573" height="36.187" filterUnits="userSpaceOnUse" color-interpolation-filters="sRGB"><feFlood flood-opacity="0" result="BackgroundImageFix"/><feColorMatrix in="SourceAlpha" values="0 0 0 0 0 0 0 0 0 0 0 0 0 0 0 0 0 0 127 0"/><feOffset dx="4" dy="4"/><feGaussianBlur stdDeviation="4"/><feColorMatrix values="0 0 0 0 0 0 0 0 0 0 0 0 0 0 0 0 0 0 0.2 0"/><feBlend in2="BackgroundImageFix" result="effect1_dropShadow"/><feBlend in="SourceGraphic" in2="effect1_dropShadow" result="shape"/></filter></defs></svg>