<svg width="332" height="225" fill="none" xmlns="http://www.w3.org/2000/svg"><g filter="url(#filter0_d)"><path d="M162.851 219L2 168.621l151.019-47.441 163.302 47.441L162.851 219z" fill="#FFF5F7"/></g><path d="M42.26 159.954c5.357 2.447 17.415 7.779 22.783 9.529l16.697-3.749-14.669-10.778-24.811 4.998z" fill="url(#paint0_linear)"/><path d="M77.663 159.688l21.086 8.701h9.675l-26.203-12.351-4.558 3.65z" fill="url(#paint1_linear)"/><path d="M105.741 150.928l34.985 17.462h9.675l-24.605-11.987 3.362-.549c5.27-.86 5.779-8.241.677-9.816a5.053 5.053 0 00-2.634-.094l-21.46 4.984z" fill="url(#paint2_linear)"/><path d="M196.719 148.555l36.7 19.834h9.674l-22.125-12.717c4.623-1.558 5.076-7.919.72-10.117l-1.77-.893a6.326 6.326 0 00-4.286-.514l-18.913 4.407z" fill="url(#paint3_linear)"/><path d="M220.42 156.038l39.125 12.227h9.737L224.249 153.3l-3.829 2.738z" fill="url(#paint4_linear)"/><path d="M168.686 158.436l18.844 8.259a22.006 22.006 0 008.835 1.851h3.587c.972 0 1.93-.22 2.804-.645 4.775-2.319 4.829-9.104.091-11.498l-19.862-10.038a17.448 17.448 0 00-12.743-1.18l-.708.207c-6.239 1.815-6.8 10.436-.848 13.044z" fill="url(#paint5_linear)"/><g filter="url(#filter1_f)"><path d="M20.881 161.674l58.05 20.462h9.207l-5.774-2.656-2.029-4.373 22.783 7.029h10.767L34.77 156.05l-13.889 5.624z" fill="url(#paint6_linear)"/></g><path d="M123.582 62.098l3.632-1.683a.878.878 0 00.506-.773c.011-.423.04-.85.087-1.278a14.68 14.68 0 01.432-2.314.88.88 0 00-.318-.93l-3.329-2.526a.857.857 0 01-.205-1.149l2.047-3.22a.847.847 0 011.088-.308l3.461 1.69a.854.854 0 001.011-.183 15.482 15.482 0 013.895-2.925.88.88 0 00.436-.978l-.562-2.269a.883.883 0 01.552-1.034l3.573-1.283a.86.86 0 011.081.445l1.262 2.703.306.66a15.562 15.562 0 014.99.651.855.855 0 00.933-.298l2.04-2.674a.884.884 0 011.179-.21l2.471 1.557.708.449a.89.89 0 01.327 1.147l-1.416 2.883a.845.845 0 00.16.993c.77.78 1.455 1.64 2.042 2.564.054.075.104.151.151.231a.87.87 0 00.972.394l3.698-.901a.89.89 0 011.034.55l1.293 3.547a.88.88 0 01-.46 1.099l-3.79 1.75a.85.85 0 00-.498.824 15.45 15.45 0 01-.266 3.62.892.892 0 00.339.882l3.199 2.43a.855.855 0 01.206 1.14l-2.03 3.184a.9.9 0 01-1.156.326l-2.738-1.338a.883.883 0 00-1.068.214 15.429 15.429 0 01-3.563 3.14.874.874 0 00-.385.954l.814 3.325a.905.905 0 01-.568 1.06l-3.545 1.282a.871.871 0 01-1.086-.45l-.074-.158-1.465-3.14a.886.886 0 00-.872-.51 15.38 15.38 0 01-4.167-.28.873.873 0 00-.875.322L137 78.017a.897.897 0 01-1.194.217l-3.184-2.015a1.003 1.003 0 01-.228-.21.898.898 0 01-.092-.921l1.133-2.294a.897.897 0 00.086-.445.901.901 0 00-.145-.429.945.945 0 00-.165-.183 15.353 15.353 0 01-3.8-4.728.861.861 0 00-.975-.443l-2.993.733a.884.884 0 01-1.035-.55l-.03-.081-1.264-3.457a.894.894 0 01.468-1.113zm27.622-3.564a10.238 10.238 0 00-.494-1.844c-.442-1.19-1.683-2.74-2.757-3.421a12.88 12.88 0 00-.345-.213c-7.083-4.138-15.056 2.373-12.253 10.186.367 1.021 1.286 2.273 2.235 3.089.204.176.422.338.65.482.916.58 1.923 1 2.981 1.242a8.282 8.282 0 009.983-9.52z" fill="#EBF2F9"/><path d="M140.856 54.058c-.207.026-.336.052-.414.104-.026.026-.052.078-.026.207.026.233.13.7.285 1.4.621 3.032 1.139 5.054 1.58 6.039l.155.311 1.036-.104.647-.051c.233-.026.388-.078.466-.13.078-.052.13-.181.13-.337 0-.155-.026-.467-.052-.881l-.052-.57c-.104-.882-.207-1.919-.363-3.085-.155-1.166-.258-1.892-.31-2.151a.989.989 0 00-.182-.519c-.181-.181-.673-.285-1.475-.285-.57 0-1.036 0-1.425.052zm3.159 8.372c-.543.052-.958.233-1.217.57-.259.311-.362.726-.31 1.193.051.518.285.933.673 1.244.388.31.854.44 1.372.389.182-.026.337-.052.466-.13.311-.13.596-.363.829-.7.233-.337.337-.674.311-.959a1.856 1.856 0 00-.492-1.01c-.285-.312-.622-.493-1.036-.597a2.235 2.235 0 00-.596 0zm187.502 57.561l-3.368-1.556a.816.816 0 01-.469-.715 14.338 14.338 0 00-.481-3.321.799.799 0 01.295-.858l3.087-2.337a.791.791 0 00.19-1.061l-1.898-2.979a.789.789 0 00-1.009-.283l-3.209 1.562a.793.793 0 01-.938-.169 14.326 14.326 0 00-3.612-2.705.81.81 0 01-.404-.903l.521-2.098a.817.817 0 00-.512-.957l-3.313-1.185a.797.797 0 00-1.002.411l-1.17 2.499-.284.61a14.437 14.437 0 00-4.627.602.797.797 0 01-.865-.275l-1.892-2.473a.82.82 0 00-1.093-.194l-2.292 1.44-.656.415a.823.823 0 00-.303 1.061l1.313 2.664a.78.78 0 01-.148.918 14.17 14.17 0 00-1.894 2.371c-.05.069-.097.14-.14.214a.804.804 0 01-.43.346.813.813 0 01-.471.018l-3.43-.833a.826.826 0 00-.958.508l-1.199 3.279a.81.81 0 00.426 1.016l3.514 1.619a.778.778 0 01.462.762 14.267 14.267 0 00.247 3.346.83.83 0 01-.314.816l-2.967 2.247a.79.79 0 00-.191 1.052l1.883 2.945a.835.835 0 001.072.301l2.539-1.237a.82.82 0 01.99.198 14.271 14.271 0 003.304 2.904.804.804 0 01.357.881l-.755 3.074a.83.83 0 00.526.98l3.288 1.185a.809.809 0 001.007-.415l.069-.146 1.358-2.904a.82.82 0 01.809-.471 14.345 14.345 0 003.863-.259.808.808 0 01.812.298l1.92 2.51a.832.832 0 001.107.2l2.952-1.863a.907.907 0 00.212-.193.825.825 0 00.085-.852l-1.05-2.121a.81.81 0 01-.079-.411.811.811 0 01.286-.566 14.187 14.187 0 003.524-4.371.804.804 0 01.904-.41l2.776.677a.815.815 0 00.959-.508l.028-.075 1.172-3.196a.83.83 0 00-.434-1.029zm-25.613-3.294a9.403 9.403 0 01.458-1.706c.41-1.101 1.561-2.533 2.556-3.163.107-.068.214-.132.321-.196 6.568-3.826 13.96 2.193 11.362 9.417-.341.944-1.193 2.102-2.073 2.855a4.976 4.976 0 01-.603.447 8.877 8.877 0 01-2.764 1.148c-5.256 1.162-10.164-3.229-9.257-8.802z" fill="#EBF2F9"/><path d="M241.934 154.76l43.757 13.687h9.481l-53.238-18.432v4.745z" fill="url(#paint7_linear)"/><path d="M226.938 57.02a3.238 3.238 0 003.237-3.24c0-1.79-1.449-3.24-3.237-3.24a3.238 3.238 0 00-3.236 3.24 3.238 3.238 0 003.236 3.24zm21.146-22.787a3.562 3.562 0 003.56-3.563 3.562 3.562 0 00-3.56-3.564 3.562 3.562 0 00-3.56 3.563 3.562 3.562 0 003.56 3.564zm24.059 16.901c0 1.134.917 1.998 1.995 1.998a1.992 1.992 0 001.996-1.998 1.992 1.992 0 00-1.996-1.998 1.992 1.992 0 00-1.995 1.998zm18.394-25.109a3.886 3.886 0 003.884-3.887 3.886 3.886 0 00-3.884-3.888 3.886 3.886 0 00-3.884 3.888 3.886 3.886 0 003.884 3.887z" fill="#EBF2F9"/><path d="M227.423 54.05l-.917-.54 21.415-23.651 26.109 20.464 16.021-28.51.917.648-16.723 29.482-26-20.464-20.822 22.57zM32.207 106.91a1.765 1.765 0 10-.002-3.53 1.765 1.765 0 00.002 3.53zm11.527-12.422a1.942 1.942 0 10-.002-3.884 1.942 1.942 0 00.002 3.884zm13.116 9.213c0 .619.5 1.09 1.088 1.09.618 0 1.088-.501 1.088-1.09 0-.618-.5-1.089-1.088-1.089-.588 0-1.088.471-1.088 1.089zm10.027-13.687c1.17 0 2.117-.95 2.117-2.12a2.118 2.118 0 10-2.117 2.12z" fill="#EBF2F9"/><path d="M32.472 105.29l-.5-.294 11.674-12.893L57.88 103.26l8.734-15.542.5.353-9.117 16.072-14.174-11.156-11.35 12.304zm160.393-75.114c1.079-.119 2.093.118 3.135.646 1.024.575 1.733 1.434 2.225 2.683.206.548.274.915.301 1.207.02.676-.21 1.28-.804 1.756a3.165 3.165 0 01-1.989.879c-1.138.09-2.152-.148-3.083-.786-.948-.592-1.639-1.497-2.167-2.653l-.143-.35c-.264-.578-.221-1.056-.08-1.428.26-.867.774-1.495 1.583-1.806.342.007.662-.109 1.022-.148zm-4.791-19.746c1.155-.136 2.107-.097 2.872.069.707.136 1.668.512 2.767 1.07 1.042.528 1.932 1.09 2.614 1.658 1.479 1.194 2.585 2.643 3.221 4.242.532 1.324.74 2.595.525 3.707-.157 1.142-.754 2.17-1.77 3.21-.665.662-1.085 1.226-1.244 1.645-.177.465-.296.96-.258 1.59-.003.553-.051.862-.122 1.048-.129.157-.373.255-.808.311-.36.04-1.329.048-2.965-.004-1.636-.053-2.587-.091-2.854-.115-.325-.054-.574-.125-.712-.306a4.11 4.11 0 01-.357-.514c-.103-.274-.221-1.055-.295-2.314-.075-1.259-.041-2.074.1-2.447.159-.419.544-.89 1.272-1.353.652-.446 1.003-.824 1.219-1.213.2-.343.225-.774.135-1.264l-.005-.17-.08-.15c-.309-.824-.87-1.163-1.724-1.097-.644.062-1.246.922-1.806 2.58-.154.589-.394.856-.545.89-.075.018-.133-.012-.191-.041l-.151.034c-.609-.03-2.073-.718-4.277-2.002-.792-.457-1.202-.831-1.346-1.181-.102-.275-.099-.828-.044-1.521.175-1.188.75-2.34 1.667-3.485.9-1.098 1.96-1.892 3.105-2.366.582-.26 1.262-.415 2.057-.51zM69.785 16.607c.5-.167.876-.209 1.043-.167.084 0 .209.167.293.46.166.584.417 1.754.709 3.55 1.46 7.688 2.17 12.91 2.129 15.626l-.042.919-2.546.752-1.586.501c-.543.168-.96.21-1.21.126-.25-.084-.46-.293-.627-.669-.166-.376-.417-1.086-.71-2.089l-.416-1.378a299.198 299.198 0 01-2.087-7.562c-.752-2.883-1.21-4.638-1.336-5.348-.167-.627-.167-1.086-.083-1.379.25-.585 1.293-1.295 3.13-2.089a40.925 40.925 0 013.339-1.253zm.668 22.56c1.335-.376 2.462-.334 3.38.126.919.501 1.545 1.295 1.92 2.507.376 1.253.25 2.465-.375 3.593-.626 1.128-1.545 1.88-2.797 2.214-.459.125-.876.209-1.21.167-.877 0-1.753-.293-2.63-.836-.876-.585-1.419-1.211-1.627-1.922-.25-.877-.209-1.838.167-2.799.375-.96 1.001-1.754 1.836-2.381.292-.292.751-.501 1.336-.669z" fill="#EBF2F9"/><g filter="url(#filter2_di)"><path d="M25.578 169.726c12.023 0 17.835-7.836 17.835-18.226 0-15.255-25.584-16.701-25.584-24.188 0-3.406 2.271-5.706 6.346-5.706 4.542 0 9.351 1.959 12.959 6.217l5.276-8.857c-4.408-5.195-10.286-7.92-17.367-7.92-10.487 0-16.9 7.835-16.9 17.288 1.717 14.108 25.65 15.751 25.65 24.529 0 3.236-2.538 6.302-7.748 6.302-6.145 0-11.021-3.492-14.16-7.665l-5.144 9.198c4.141 5.365 10.287 9.028 18.837 9.028z" fill="url(#paint8_linear)"/><path d="M69.905 169.726c13.56 0 20.106-9.624 20.106-23.762v-34.067h-9.686v33.726c0 7.921-3.54 13.372-10.42 13.372s-10.487-5.451-10.487-13.372v-33.726h-9.619v34.152c0 13.968 6.546 23.677 20.106 23.677z" fill="url(#paint9_linear)"/><path d="M108.273 168.704v-20.185h11.356c9.619 0 14.963-8.432 14.963-18.311 0-9.964-5.277-18.311-14.963-18.311h-20.84v56.807h9.484zm10.087-30.831h-10.087v-15.33h10.087c3.74 0 6.546 2.896 6.546 7.665 0 4.684-2.806 7.665-6.546 7.665z" fill="url(#paint10_linear)"/><path d="M149.956 168.704v-20.185h11.356c9.619 0 14.963-8.432 14.963-18.311 0-9.964-5.277-18.311-14.963-18.311h-20.841v56.807h9.485zm10.087-30.831h-10.087v-15.33h10.087c3.741 0 6.546 2.896 6.546 7.665 0 4.684-2.805 7.665-6.546 7.665z" fill="url(#paint11_linear)"/><path d="M203.262 169.726c13.493 0 23.313-12.264 23.313-29.383s-9.82-29.383-23.313-29.383c-13.426 0-23.245 12.264-23.245 29.383s9.819 29.383 23.245 29.383zm0-10.731c-8.216 0-13.493-8.091-13.493-18.652 0-10.646 5.277-18.652 13.493-18.652 8.216 0 13.56 8.006 13.56 18.652 0 10.561-5.344 18.652-13.56 18.652z" fill="url(#paint12_linear)"/><path d="M295.34 168.704v-46.161h12.959v-10.646h-35.536v10.646h13.025v46.161h9.552z" fill="url(#paint13_linear)"/><path fill-rule="evenodd" clip-rule="evenodd" d="M269.302 168.704l-10.02-21.633c4.809-1.448 9.752-6.813 9.752-16.863 0-10.561-5.677-18.311-14.962-18.311h-20.841v56.807h9.485v-20.185h6.947l8.751 20.185h10.888zm-26.586-30.831h9.953c3.807 0 6.68-2.896 6.68-7.665s-2.873-7.665-6.68-7.665h-9.953v15.33z" fill="url(#paint14_linear)"/></g><path d="M244.115 71.521c7.855 1.632 10.253 2.395 14.89-1.828 0 0 .321-10.919-2.946-16.768-3.267-5.85-6.421-6.834-10.83-5.252 0 0-1.035-.872-2.989.547-7.994 5.805-2.631 16.693 1.875 23.301z" fill="#412716"/><path d="M254.088 49.82c-2.358 1.68-4.459.796-7.213 1.269-3.916.717-3.912 5.185-6.781 3.853-1.078 12.103-1.167 17.426 2.696 26.17 7.897 3.988 10.366 7.664 14.273.977 0 0 4.387-15.285.359-25.915-.317-.905-3.002-5.6-3.334-6.355z" fill="#3C2415"/><path d="M244.172 83.935s.802-8.594 1.813-11.163c-.039-1.476-.012-3.4-.177-4.573l6.584-3.649c.051-.125-.874 6.11.479 9.435 1.277-.336-4.61 8.606-4.61 8.606l-4.089 1.344z" fill="#FFCFAE"/><path d="M251.334 65.862c-3.763 1.982-1.538.76-3.859 1.955l-1.844 1.114c-.06.743.582 1.386 1.279 1.18 1.273-.377 2.522-1.622 4.01-3.716l.414-.533z" fill="#F5B994"/><path d="M239.555 63.53c1.019 2.657 1.703 6.057 5.178 4.828 3.474-1.229 5.985-2.638 6.812-3.78 1.074-1.485 1.041-2.233 1.253-4.379.267-2.699.414-4.739.147-5.375-2.449-4.603-4.672-3.904-6.843-3.463-4.483 1.833-6.735 3.404-6.946 7.668-.024.492-.219 2.892.399 4.502z" fill="#FFCFAE"/><path d="M248.122 57.705c-.371-.025-.491.029-1.038.133a4.494 4.494 0 00-.726.266s-.538.487-.603.549c-.113.112-.068.206.106.19.173-.017.364-.09.51-.098 1.127-.087 1.369-.085 2.007-.383.255-.113.497-.245.723-.394a2.559 2.559 0 00-.979-.263z" fill="#fff"/><path d="M247.283 58.086c-.365.15-.628.467-.588.708.011.063.1.073.308.021.063-.015.397-.098.643-.182.041-.045.299-.097.334-.162a.386.386 0 00.036-.222c-.04-.24-.369-.313-.733-.163z" fill="#28160D" stroke="#1C1105" stroke-width=".2" stroke-miterlimit="10"/><path d="M247.344 58.322c-.198.084-.341.26-.319.394a.15.15 0 00.103.118l.461-.13c.105-.087.167-.199.152-.29-.022-.135-.199-.175-.397-.092z" fill="#000"/><path opacity=".77" d="M247.677 58.538c.107-.046.184-.142.172-.215-.012-.073-.108-.095-.215-.05-.107.046-.184.142-.172.215.012.073.108.095.215.05z" fill="#fff"/><path d="M245.702 58.686l.636-.59a.656.656 0 01.215-.128l.266-.095c.135-.048.276-.082.417-.101l.685-.09c.14-.018.276-.014.397.012l.714.154.229-.033-.669-.275a1.422 1.422 0 00-.478-.014l-.684.089a2.26 2.26 0 00-.478.117l-.264.094c-.172.05-.337.122-.485.21l-.749.715.248-.065z" fill="#D3A688"/><path opacity=".5" d="M245.643 58.735l.635-.58a.763.763 0 01.256-.15l.263-.093c.15-.053.305-.09.46-.11l.684-.087a1.29 1.29 0 01.437.013l.702.152" stroke="#0A0001" stroke-width=".3" stroke-miterlimit="10"/><path d="M245.791 58.897l.282-.043c.147-.023.295-.037.44-.043.351-.025 1.074-.04 1.7-.233.04-.013.318-.135.355-.152l.356-.151" stroke="#472A22" stroke-width=".2" stroke-miterlimit="10"/><path d="M240.889 58.611c.333-.159.444-.155.946-.262.23-.03.456-.04.674-.027 0 0 .518.24.581.273.109.06.075.16-.083.21-.158.049-.335.053-.468.1-1.023.336-1.241.428-1.837.393a3.517 3.517 0 01-.68-.088 3.4 3.4 0 01.867-.599z" fill="#fff"/><path d="M241.693 58.623c.308-.054.541.11.521.366-.005.066-.078.125-.252.19-.052.018-.332.121-.537.175-.037-.021-.252.07-.284.025a.331.331 0 01-.041-.195c.02-.255.286-.506.593-.56z" fill="#28160D" stroke="#1C1105" stroke-width=".2" stroke-miterlimit="10"/><path d="M241.673 58.862c.163-.03.286.06.276.2a.305.305 0 01-.077.172l-.376.133a.183.183 0 01-.137-.196c.011-.14.152-.28.314-.309z" fill="#000"/><path opacity=".77" d="M241.371 59.162c-.087.016-.153-.033-.147-.11.005-.076.081-.15.168-.167.087-.016.153.032.147.11-.005.076-.081.15-.168.167z" fill="#fff"/><path d="M243.118 58.64l-.616-.31a.444.444 0 00-.204-.039l-.246.009a1.805 1.805 0 00-.384.056l-.625.163c-.127.033-.25.084-.358.15l-.633.394-.209.05.585-.485a1.57 1.57 0 01.43-.183l.623-.162a1.99 1.99 0 01.44-.064l.245-.008c.159-.015.313-.01.453.019l.727.38-.228.03z" fill="#D3A688"/><path opacity=".5" d="M243.185 58.67l-.615-.304a.528.528 0 00-.243-.046l-.244.008a1.947 1.947 0 00-.423.062l-.624.16c-.14.036-.275.092-.393.165l-.622.383" stroke="#0A0001" stroke-width=".3" stroke-miterlimit="10"/><path d="M243.125 58.945l-.257.045c-.135.023-.27.054-.401.093-.318.082-.971.285-1.553.295-.037 0-.299-.029-.335-.032l-.334-.033" stroke="#472A22" stroke-width=".2" stroke-miterlimit="10"/><path d="M252.199 58.93c.684-1.328 1.679-1.907 2.227-1.28.547.625.196 2.162-.492 3.496s-1.68 1.866-1.98 1.32c-.552-.62-.435-2.209.245-3.536z" fill="#FFCFAE"/><path d="M252.8 59.776c.387-.82.86-1.196 1.054-.84.193.357.026 1.316-.364 2.132-.391.816-.865 1.202-1.068.841-.203-.36-.016-1.317.378-2.133z" fill="#F5B994"/><path d="M252.401 61.203c.188-.493.519-.781.741-.634.222.147.243.666.059 1.158-.184.493-.52.779-.741.635-.221-.143-.244-.654-.059-1.159z" fill="#FFCFAE"/><path d="M239.348 58.58c.392-.73 1.029-2.503 3.175-1.674.135.052.201.071.266.354-1.957-.245-2.125-.28-3.441 1.32zm10.522-1.834c-.445-.384-1.557-.96-4.015.086-.164.086-.243.123-.331.35 2.297-.714 2.597-.808 4.346-.436z" fill="#553723"/><path d="M243.576 59.64c.136 1.383-.319 2.121-.758 3.404a.527.527 0 00.069.21c.141.25.688.234 1.304 0 .231-.06.355-.034.57.041" stroke="#D3A688" stroke-width=".5" stroke-miterlimit="10"/><path d="M241.92 55.414c-.739 2.287-2.575 3.678-2.994 3.699l.391-4.986 5.906-5.163 7.673 3.09-.534 6.404c-7.31-5.533-4.897-8.461-6.841-7.802-1.944.66-2.677 1.899-3.601 4.758z" fill="#412616"/><g clip-path="url(#clip0)"><path d="M242.661 65.322h.005a.67.67 0 00.4-.06 3.718 3.718 0 011.74-.315 6.394 6.394 0 001.644-.235c.331-.146.093.227.093.227a1.86 1.86 0 01-.65.836 1.636 1.636 0 01-.967.304c-.684.102-1.281.02-1.83-.427-.07.026-.349-.31-.43-.33h-.005z" fill="#FFC6C6" opacity=".8"/><path d="M243.032 65.442c.43-.213.898-.316 1.369-.303.684.03 1.369-.07 2.024-.294-.204.35-.487.636-.823.832a2.065 2.065 0 01-1.09.286 1.713 1.713 0 01-.795-.083 1.802 1.802 0 01-.685-.438z" fill="#FDFCFC"/><path d="M243.032 65.442l.197-.097c.068-.032.137-.06.208-.083l.207-.062c.07-.02.141-.037.213-.05l.218-.035.216.012.433-.017c.142.007.284.015.428-.031l.236-.021.194-.05.206-.036.225-.048c.07-.013.14-.032.207-.056a.98.98 0 00.183-.078l.133-.053-.057.138c-.039.082-.085.16-.136.234l-.079.103-.086.096-.091.089-.103.081a1.55 1.55 0 01-.206.15 2.48 2.48 0 01-.933.34 1.52 1.52 0 01-.242.027l-.123-.007-.124-.007-.24-.012-.24-.013a1.41 1.41 0 01-.237-.073 1.36 1.36 0 01-.223-.106.82.82 0 01-.108-.066l-.1-.099-.094-.085a1.043 1.043 0 01-.082-.085zm0 0c.028.03.057.059.088.085l.101.086.101.059.109.06c.072.037.146.068.223.091.08.005.152.049.232.06l.234.012.24.013.124.007.111.005c.08.005.162-.025.236-.034a2.47 2.47 0 00.89-.341l.199-.144a.597.597 0 00.073-.096l.091-.083.079-.09a.611.611 0 00.092-.102c.046-.065.087-.135.122-.208l.076.078c-.07.032-.141.06-.214.082l-.232.055-.2.043-.212.036-.212.029-.217.022a1.537 1.537 0 00-.433.017c-.144.032-.29-.016-.432-.023l-.215-.012-.212.023-.212.035-.212.05-.208.069-.21.116z" fill="#CB7A63"/><path d="M246.425 64.845a5.505 5.505 0 01-2.024.294 2.895 2.895 0 00-1.369.303c.143.16.322.277.519.342-.194-.19-.237-.428.272-.474.51-.047 1.323-.01 1.766-.08.442-.07.13.563-1.231.718l.136.007a2.06 2.06 0 001.099-.278c.339-.194.626-.481.832-.832z" fill="#CEC0B6" opacity=".4"/></g><path d="M240.416 144.795a1.14 1.14 0 01-.141 1.223c-.504.697-1.681 1.298-3.008 1.857-.165.073-.328.136-.456.201l-.102.05c-.029.013-.054.028-.081.039-1.273.646-.954.962-3.301 2.327-2.674 1.555-4.104 1.187-4.452.875-.294-.264.726-1.204 1.861-2.263l.165-.154c.151-.14.303-.284.453-.426 1.343-1.282 1.315-2.072 1.76-4.423.362-1.92.085-11.235.085-11.235l4.144.453s-.759 7.142.252 8.565c.54.76 1.323.991 1.878 1.599l.108.127c.33.356.611.754.835 1.185z" fill="#FFCFAE"/><path d="M240.416 144.796a1.13 1.13 0 01-.14 1.222c-.567.679-1.721 1.283-3.01 1.849-.166.075-.318.143-.454.209l-.103.05c-.028.014-.054.028-.08.039-1.274.647-.954.962-3.301 2.327-2.675 1.556-4.104 1.188-4.452.875-.294-.263.726-1.204 1.861-2.263a9.115 9.115 0 004.448-1.655c1.695-1.229 3.105-3.029 4.291-3.973l.108.128c.329.358.61.759.832 1.192z" fill="#0A3D76"/><path d="M210.947 141.892c-.254 1.269-2.061 1.058-4.08.556-2.02-.502-1.539.095-4.414-.225-2.874-.32-3.747-1.39-3.832-1.819-.078-.379 1.342-.513 2.865-.695.191-.02.384-.044.577-.068 1.72-.216 2.979-1.327 4.541-2.239 1.48-.865 3.688-4.386 3.688-4.386l3.94.313s-2.068 3.144-2.867 4.512c-.471.804-.446 1.867-.387 2.69.051.453.041.911-.031 1.361z" fill="#FFCFAE"/><path d="M206.867 142.448c-2.02-.493-1.539.095-4.414-.225-2.874-.32-3.747-1.389-3.832-1.819-.078-.379 1.342-.513 2.865-.695l.015.03a8.094 8.094 0 004.115 1.281c1.943.047 4.015-.512 5.362-.489.05.449.04.902-.031 1.349-.248 1.275-2.061 1.064-4.08.568z" fill="#0A3D76"/><path d="M230.549 112.717l2.081 25.18c.843.175 1.71.21 2.565.102 1.184-.181 2.606-.872 2.606-.872s1.787-22.555-1.447-27.585c-3.233-5.029-5.805 3.175-5.805 3.175z" fill="#052C57"/><path d="M257.706 107.078s-19.471-7.109-24.914-5.351c-5.444 1.758-24.785 33.478-24.785 33.478s.369.492 1.375.87c.937.351 3.204.329 3.204.329s13.612-13.022 15.368-16.714c1.756-3.692 4.486-8.405 6.242-8.052 3.433 1.406 21.066-.313 24.486 1.562a8.01 8.01 0 00.482-.383c4.741-4.924 3.095-7.564 3.095-7.564l-4.553 1.825z" fill="#0A3D76"/><path d="M259.459 93.006c.736-3.091 1.1-9.23-1.515-14.198-2.373-4.5-6.048-7.829-6.27-7.697.468 3.44-3.253 9.905-4.152 9.844-1.587-.107-1.46-9.542-1.46-9.542s-4.115.364-5.718 3.138c-2.22 3.835-4.015 16.415-6.398 16.245-1.093-.079-9.336.47-9.336.47s-.595-.369-.244 1.74c0 0 .46-2.323 5.055 0 2.43 1.23 5.365 2.714 6.398 2.476 2.093-.493 3.386-3.29 5.153-6.15l1.713-3.847c2.254 12.783-.209 16.3 1.343 17.647 1.639 1.423 1.308-.357 6.459 1.878 3.379 1.468 6.363 3.381 9.519 3.749 1.656.195 2.095.027 2.497-1.093 1.173-3.253-4.447-8.766-3.044-14.66z" fill="#699DEE"/><path d="M249.395 102.348c5.684-1.33 8.881-2.108 15.762-6.152l-4.401-3.28c-.472.468-10.56 5.3-11.184 6.317-.625 1.015-.177 3.115-.177 3.115z" fill="#4A75CB"/><path d="M262.575 107.339c-.21 1.254-.853 1.576-1.716 1.358-1.138-1.065-2.1-4.534-3.411-7.814-.937-2.343-1.646-1.243-2.255-6.317-.491-4.074 4.049-11.65 4.777-13.297 1.363 5.56.383 4.505 0 7.966-.729 6.599 3.215 14.463 2.605 18.104z" fill="#4A75CB"/><path d="M249.318 99.8l-.164-.47c-.646.225-1.591.101-1.792.113l-2.192.184a1.778 1.778 0 00-1.293.68l-2.816 3.599c.134.402.659.702 1.763-.747l-1.22 1.418c.043.332.373.52 1.29-.498-.264.374-.441.655-.411.694l.002.003c.095.129.456.832 3.135-2.48.21-.133.334-.089-.637 2.308-.003.499.4 1.037 1.826-1.955.693-.055 2.066-.579 2.609-1.304l.46-.412c-.455-1.027-.41-.775-.56-1.132z" fill="#FFCFAE"/><path d="M242.824 103.159c-1.104 1.449-1.629 1.149-1.763.747l2.816-3.599a1.779 1.779 0 011.293-.68l2.192-.184c.201-.012 1.146.112 1.792-.114l.164.472c.15.357.105.105.56 1.132l-.46.412c-.543.725-1.916 1.249-2.609 1.304-1.426 2.992-1.829 2.454-1.826 1.955.971-2.397.847-2.441.637-2.308-2.679 3.312-3.04 2.609-3.135 2.48l-.002-.003c-.03-.039.147-.32.411-.694m-.07-.92c.187-.245.858-.575 1.079-.929l-1.079.929zm0 0l-1.22 1.418c.043.332.373.52 1.29-.498m0 0c.362-.402 1.337-.739 1.9-1.584-.378.484-1.5 1.015-1.9 1.584z" stroke="#F5C5A5" stroke-width=".2"/><path d="M242.599 85.64c-1.257 3.117-3.655 8.461-5.634 9.303-.977.415-3.286-.06-5.89-.859 1.826.15 3.521-.154 5.144-.604 1.758-.48 1.9-2.766 4.159-6.544 1.467-2.446 2.01-1.985 2.221-1.297z" fill="#4A75CB"/><path d="M246.888 102.042c.161-.428 1.806-.654 2.608-.714-.321.714-2.006 1.131-2.808 1.25l.2-.536z" fill="#F5C5A5"/><path d="M248.865 99.922c-1.248.104-3.745.312-3.901.625.001-.313.656-.625 3.901-.625z" fill="#EEBE9E"/><path d="M251.673 70.955s6.918 1.276 9.02 4.218c2.519 3.516 5.216 13.596 5.111 18.923-.029 1.494-1.153 2.613-2.562 3.111l-13.909 4.925s0-.937-.625-2.812c.625-1.015 11.513-6.152 11.985-6.62.472-.468-2.872-9.088-2.872-10.495 0-1.406-6.148-11.25-6.148-11.25z" fill="#699DEE"/><path d="M250.963 105.245h-19.877v-1.458h19.877a.727.727 0 01.729.729.728.728 0 01-.729.729z" fill="#EDF5FF"/><path d="M245.529 105.244h-19.204a1.863 1.863 0 01-1.79-1.387l-3.382-12.748a1.866 1.866 0 011.807-2.347h16.734a1.863 1.863 0 011.807 1.391l4.028 15.091z" fill="#EDF5FF"/><path d="M222.96 88.766a1.87 1.87 0 00-1.832 1.497c-.056.28-.048.57.025.846l3.383 12.748c.102.381.322.72.628.969l11.636-16.06h-13.84z" fill="url(#paint15_linear)"/><path d="M234.22 98.133a1.15 1.15 0 01-.621 1.409 1.15 1.15 0 01-.549.097 2.091 2.091 0 01-1.924-1.505 1.145 1.145 0 01.186-1.063 1.149 1.149 0 01.983-.443 2.096 2.096 0 011.925 1.505z" fill="#0A3D76"/><g filter="url(#filter3_d)"><path d="M78.259 181.98c-.72-.719-.289-4.75-.289-4.75s3.106-3.212 3.616-.561c.51 2.65 4.124 3.592 5.84 3.917 1.144.216 1.525.937 1.651 1.394H78.26zm24.064 0c-.779-.719-.312-4.75-.312-4.75s3.521-3.212 4.074-.561c.552 2.65 4.31 3.599 6.171 3.917 1.24.216 1.651.937 1.788 1.394h-11.721z" fill="#16233D"/><path d="M105.461 112.626l1.092 64.656h-4.993s-3.614-16.233-3.614-28.258l-1.923-11.751-1.954-9.964-11.547 49.973h-4.524s-1.887-16.936 2.813-29.21l1.81-35.247 22.84-.199z" fill="#0A3D76"/><path d="M94.07 127.465l2.808-8.904 1.103 30.604-3.912-21.7z" fill="#032953"/><path d="M93.336 78.085s-1.29 1.293-3.313.236v3.708l4.356-.378-1.043-3.566z" fill="#778FBB"/><path d="M82.573 113.033c14.63 4.56 23.319-.217 22.889-.719-2.043-7.974-2.927-23.346-2.927-23.346-.873 4.084-1.366 5.666-.385 9.547.296 1.175.918 3.593 1.961 4.205l10.349 3.68s5.433-1.154 4.775-1.682c-.658-.529-11.242-5.714-11.242-5.714-.05-2.725-.955-11.017-.955-11.017-.902-7.17-4.301-8.838-5.138-9.143a18.89 18.89 0 01-.524-.202c-2.457-1.036-4.51-1.17-7.238-1.236-2.098 1.27-15.203-2.112-16.737 2.652l5.172 32.975z" fill="#699DEE"/><path d="M96.21 77.417s-1.41 2.898-1.203 3.032c-1.404 2.03-4.369 2.5-9.363-1.718l-1.716-1.314" fill="#A9C3EA"/><path d="M91.076 81.854v-.582l2.15-.205.222.63c.116.126-1.619.44-2.372.157z" fill="#C43B55"/><path d="M93.09 78.085l-2.83.236c-2.277 0-4.252-.736-4.252-2.176v-5.55h8.24v5.55c0 1.433 1.117 1.94-1.159 1.94z" fill="#FFCFAE"/><path d="M86.003 70.745s.305 3.56 3.42 3.538c4.019-.044 5.132-2.054 5.132-2.054-1.173.885-2.522.07-3.99.073-2.741-.01-4.562-1.557-4.562-1.557z" fill="#EAAB85"/><path d="M98.634 53.72c-.705-.876-.217-.295-1.264-1.375-.674-.7-2.383-.29-3.671-.893-5.458-2.544-8.332 2.861-8.332 2.861-1.471-.16-2.693.358-3.393 1.774-.656 1.328 0 3.827.186 4.697l1.196 5.519 1.049-5.256c1.033-3.451 2.601-4.857 2.601-4.857l4.983-.405 5.284 10.013 1.21-5.721c.13-.75.896-2.205.854-2.967-.023-.442-.54-3.185-.703-3.39z" fill="#202020"/><path d="M95.839 65.19s1.158-2.66 1.974-1.623c.967 1.237.42 2.272-.601 3.858 0 0-.877 1.33-1.369.798-.004.008-.072-2.083-.004-3.033z" fill="#F9C8A3"/><path d="M84.194 65.12s-1.657-2.38-2.444-1.256c-.936 1.333-.184 2.244 1.18 3.61 0 0 1.164 1.132 1.653.559.004.007-.192-2.014-.39-2.914z" fill="#FFCFAE"/><path d="M97.633 61.407c0 2.013-.197 6.226-1.432 8.725-1.159 2.347-2.095 3.513-4.61 3.582-2.515.068-4.105-1.142-6.5-3.881-1.596-2.397-1.8-8.394-1.8-8.394s0-7.193 7.08-7.193c7.493.008 7.262 7.161 7.262 7.161z" fill="#FFCFAE"/><path d="M84.226 65.121c-.986-.136-3.22-8.701 1.38-9.95l5.244-1.595s5.95 1.663 6.137 1.587c.186-.076 1.217 2.594 1.217 2.594s.95 4.73-1.555 1.398c-.638-.846-1.632-1.25-2.678-1.403-4.458-.654-8.111-.037-8.295 2.021-.283 3.204-1.377 5.356-1.45 5.348z" fill="#202020"/><path d="M83.795 59.003l.19 5.758a.066.066 0 01-.046.067.065.065 0 01-.075-.027l-.842-1.204-.666-4.904 1.44.31z" fill="#202020"/><path d="M92.503 64.583c.008 1.302.46 1.946.947 3.099 0 .07-.013.138-.04.202-.096.247-1.072.234-1.329.166l-.459.042" stroke="#D3A688" stroke-width=".5" stroke-miterlimit="10"/><path d="M90.479 61.919a.418.418 0 10.003-.836l-1.817.022c-.272 0-.54.07-.776.203-.304.18-.15.647.2.61l.396-.04 1.994.04zm3.01-.072a.402.402 0 11-.015-.803h1.742c.263 0 .52.065.733.188.291.172.146.62-.19.586l-.392-.038-1.878.067z" fill="#202020"/><path d="M83.768 65.567c-.477-1.051-1.393-1.038-1.718-.491-.325.546.894 2.234 1.555 2.065.53-.131.449-.935.163-1.574z" fill="#EAAB85"/><path d="M83.888 66.374c-.223-.7-.802-.747-1.049-.418-.246.328.402 1.466.845 1.4.354-.055.346-.554.204-.982z" fill="#FFCFAE"/><path d="M90.154 69.543s2.135.701 4.162-.11" stroke="#B96665" stroke-width=".64" stroke-linecap="round" stroke-linejoin="round"/><path d="M90.259 78.322l-.12 3.792-6.367-4.789 2.223-2.796s1.864 3.196 4.264 3.793z" fill="#D6E4FD"/><path d="M93.123 78.103l.1 2.994-2.15.205-.814-2.97s1.852-.45 2.864-.228z" fill="#C43B55"/><path d="M94.442 81.783l-1.353-3.68c1.049-.843 1.177-2.286 1.177-2.286l1.944 1.619-1.768 4.347z" fill="#D6E4FD"/><path d="M90.26 78.322l.812 2.97 2.15-.206s-1.528.027-1.809-.263c-.28-.289-1.154-2.501-1.154-2.501z" fill="#A62E41"/><path d="M84.865 91.851c2.34-2.03 21.535-8.747 21.535-8.747l2.653 13.12-10.924 7.811-11.391.937-1.873-13.12z" fill="#457ED6"/><path d="M107.088 92.427l-16.36-6.334.976 19.709 16.346 6.325-.962-19.7z" fill="#053866"/><path d="M122.899 86.434l-16.38-6.333.952 19.658 16.364 6.355-.936-19.68z" fill="#102E5B"/><path d="M107.088 92.427l15.811-5.992.965 19.658-15.813 6.035-.963-19.7z" fill="#054270"/><path d="M90.729 86.093l15.79-5.992.955 19.613-15.77 6.087-.975-19.708z" fill="#0A2D49"/><path d="M107.088 92.427l-16.36-6.334.976 19.701 16.346 6.333-.962-19.7z" fill="#053866"/><path d="M94.82 87.718l-4.091-1.624.249 4.95 4.083 1.59-.241-4.916z" fill="#053866"/><path d="M93.558 90.388c.827-.592 1.191-1.37 1.123-2.744l-.493-.202c.06 1.217-.357 2.042-1.05 2.541-.581.415-1.368.465-2.207.14l.037.525c.34.142.706.214 1.075.21.54 0 1.069-.165 1.515-.47z" fill="#B9D5FD"/><path d="M98.903 89.307l-4.084-1.59.242 4.918 4.083 1.59-.241-4.918z" fill="#0E2951"/><path d="M102.985 90.898l-4.083-1.59.241 4.917 4.084 1.59-.242-4.917z" fill="#709FDC"/><path d="M107.088 92.427l-4.101-1.53.241 4.918 4.083 1.569-.223-4.957z" fill="#6780B3"/><path d="M95.061 92.635l-4.083-1.59.244 4.92 4.08 1.59-.24-4.92z" fill="#B9D5FD"/><path d="M99.144 94.225l-4.083-1.59.241 4.92 4.083 1.59-.241-4.92z" fill="#274684"/><path d="M103.227 95.815l-4.083-1.59.241 4.92 4.084 1.589-.242-4.92z" fill="#3D95D1"/><path d="M107.31 97.383l-4.083-1.569.241 4.92 4.083 1.567-.241-4.918zm-7.925 1.762l-4.083-1.59.244 4.917 4.083 1.59-.244-4.917z" fill="#B9D5FD"/><path d="M103.468 100.735l-4.083-1.59.244 4.917 4.08 1.59-.241-4.917z" fill="#0E2951"/><path d="M107.553 102.301l-4.084-1.566.242 4.917 4.083 1.569-.241-4.92z" fill="#709FDC"/><path d="M95.545 102.472l-4.083-1.595.241 4.917 4.084 1.598-.242-4.92z" fill="#6780B3"/><path d="M99.63 104.062l-4.084-1.59.241 4.92 4.084 1.59-.242-4.92z" fill="#053866"/><path d="M103.709 105.653l-4.08-1.591.24 4.92 4.084 1.59-.244-4.919z" fill="#B9D5FD"/><path d="M107.793 107.221l-4.083-1.569.244 4.92 4.096 1.555-.257-4.906zM92.876 89.494c.637-.454.978-1.096.926-2.15l-.493-.202c.042.857-.22 1.472-.787 1.863a1.942 1.942 0 01-1.636.074l.031.591c.26.111.54.168.824.166.404.008.802-.111 1.135-.342z" fill="#3D95D1"/><path d="M92.18 88.456c.448-.313.665-.788.628-1.517l-.493-.2c.027.526-.041.768-.333 1.076a1.134 1.134 0 01-1.153.184l.028.588a1.381 1.381 0 001.312-.131h.01z" fill="#3376B3"/><path d="M91.547 87.418a.948.948 0 00.372-.88l-.593-.203c.113.294.124.491-.065.589a.92.92 0 01-.485 0l.029.588a.55.55 0 00.262.053.831.831 0 00.48-.147z" fill="#709FDC"/><path d="M107.594 105.884l-2.835-1.096-.354-7.24 2.932 1.15-.034-.686-3.522-1.322.42 8.5 3.456 1.343-.063-.649z" fill="#274684"/><path d="M107.695 105.98l-2.935-1.193-.183-3.729-.59-.203.215 4.334 3.527 1.48-.034-.689z" fill="#0E2951"/><path d="M107.634 104.703l-1.951-.715-.244-4.977 1.951.775-.034-.689-2.539-.946.302 6.137 2.475.967.04-.552z" fill="#274684"/><path d="M107.573 103.518l-.889-.397-.116-2.321.889.36-.034-.688-1.476-.528.176 3.582 1.413.549.037-.557z" fill="#274684"/><path d="M107.57 103.42l-.886-.299-.063-1.272-.59-.203.091 1.88 1.48.583-.032-.689z" fill="#0E2951"/><path d="M107.634 104.703l-1.952-.715-.123-2.549-.593-.202.155 3.151 2.544 1.004-.031-.689z" fill="#0E2951"/><path d="M94.622 103.269l-3.102-1.207.183 3.732 3.103 1.215-.184-3.74z" fill="#053866"/><path d="M93.626 104.136l-2.043-.796.121 2.454 2.043.799-.12-2.457z" fill="#709FDC"/><path d="M100.405 89.913l-1.332 2.512 2.656 2.786 1.33-2.512-2.654-2.786z" fill="#0E2951"/><path d="M100.727 91.21l-.679 1.286 1.353 1.417.68-1.28-1.354-1.422z" fill="#6780B3"/><path d="M103.759 106.635l-4.083-1.59.194 3.937 4.083 1.59-.194-3.937z" fill="#3D95D1"/><path d="M103.812 107.715l-4.084-1.59.142 2.857 4.083 1.59-.141-2.857z" fill="#6780B3"/><path d="M103.867 108.803l-4.086-1.595.089 1.774 4.083 1.59-.086-1.769z" fill="#053866"/><path d="M103.909 109.686l-4.084-1.59.045.886 4.083 1.59-.044-.886zm-4.571-11.524l-4.083-1.59 3.947-1.172-4.083-1.59 4.22 4.352z" fill="#0E2951"/><path d="M91.474 91.248l-.496-.203.244 4.92.493.2-.241-4.918zm.786.302l-.493-.203.241 4.92.496.202-.244-4.92zm2.572 1.012l-.493-.202.242 4.92.493.202-.242-4.92zm-.862-.363l-.59-.205.24 4.914.59.203-.24-4.912zm-.921-.345l-.493-.202.241 4.92.493.2-.241-4.918z" fill="#709FDC"/><path d="M95.302 97.555l-4.08-1.59.241 4.912 4.083 1.595-.244-4.917z" fill="#0E2951"/><path d="M95.426 100.01l-2.04-.791.12 2.457 2.04.796-.12-2.462zm-2.162-3.254l-2.043-.79.118 2.454 2.046.799-.12-2.463z" fill="#3D95D1"/><path d="M99.283 104.359l-3.349-1.303.197 4.034 3.351 1.309-.157-3.183-2.725-1.062.12 2.434 2.099.822-.084-1.705-1.469-.573.048.972.839.326" stroke="#3D95D1" stroke-width="2" stroke-miterlimit="10"/><path d="M107.252 107.612l-2.594 2.655m-.183-3.738l2.961 4.818" stroke="#0E2951" stroke-width="4" stroke-miterlimit="10"/><path d="M100.904 100.7l-.653-.254.039.788.653.252-.039-.786zm.952 1.43l-.653-.255.039.786.653.26-.039-.791zm.95 1.433l-.653-.253.04.786.653.252-.04-.785z" fill="#B9D5FD"/><path d="M108.05 112.128l15.822-6.013-.973-19.68-15.811 5.992.962 19.701z" fill="#053866"/><path d="M119.665 102.695l3.965-1.498-.241-4.92-3.965 1.506.241 4.912z" fill="#B9D5FD"/><path d="M115.707 104.202l3.958-1.506-.242-4.912-3.957 1.498.241 4.92z" fill="#274684"/><path d="M111.75 105.699l3.958-1.498-.242-4.92-3.957 1.5.241 4.918z" fill="#053866"/><path d="M107.794 107.221l3.957-1.522-.241-4.917-3.958 1.519.242 4.92zm7.673-7.94l3.957-1.498-.241-4.92-3.957 1.501.241 4.917z" fill="#B9D5FD"/><path d="M111.51 100.782l3.958-1.5-.241-4.917-3.958 1.498.241 4.919z" fill="#0E2951"/><path d="M107.551 102.301l3.957-1.519-.241-4.92-3.957 1.522.241 4.917z" fill="#709FDC"/><path d="M115.949 109.119l3.96-1.503-.244-4.92-3.957 1.506.241 4.917z" fill="#0E2951"/><path d="M111.992 110.619l3.957-1.501-.241-4.917-3.957 1.498.241 4.92z" fill="#709FDC"/><path d="M108.05 112.128l3.941-1.509-.241-4.92-3.957 1.522.257 4.907zm11.131-19.264l3.963-1.504-.246-4.925-3.958 1.511.241 4.918z" fill="#6780B3"/><path d="M115.225 94.364l3.958-1.5-.242-4.918-3.957 1.498.241 4.92z" fill="#053866"/><path d="M111.268 95.862l3.958-1.498-.242-4.92-3.96 1.501.244 4.917z" fill="#B9D5FD"/><path d="M107.311 97.384l3.957-1.521-.244-4.917-3.936 1.482.223 4.956z" fill="#3D95D1"/><path d="M111.211 105.224l-.417-8.5-3.55 1.346.23.555 2.78-1.054.357 7.238-2.916 1.172.034.688 3.482-1.445z" fill="#274684"/><path d="M110.793 96.725l-3.49 1.287.034.686 2.916-1.127.184 3.705.571-.189-.215-4.362z" fill="#0E2951"/><path d="M110.199 104.306l-.291-5.944-2.552.735.034.689 1.97-.775.238 4.88-1.964.812.031.689 2.534-1.086z" fill="#274684"/><path d="M109.111 103.515l-.178-3.582-1.571.6.23.554.803-.307.113 2.318-.939.323.031.688 1.511-.594z" fill="#274684"/><path d="M108.935 99.933l-1.511.539.034.689.939-.381.055 1.145.572-.189-.089-1.803z" fill="#0E2951"/><path d="M109.896 98.167l-2.541.93.034.689 1.969-.775.129 2.625.572-.189-.163-3.28z" fill="#0E2951"/><path d="M121.047 89.65l1.977-.747-.125-2.468-1.973.757.121 2.458z" fill="#FF8098"/><path d="M114.499 109.649l1.282-3.637-2.572-.841-1.291 3.635 2.581.843z" fill="#0E2951"/><path d="M114.181 108.553l.656-1.858-1.317-.431-.65 1.861 1.311.428z" fill="#6780B3"/><path d="M111.218 94.88l3.958-1.498-.192-3.937-3.96 1.5.194 3.934z" fill="#3D95D1"/><path d="M111.166 93.8l3.957-1.501-.139-2.854-3.96 1.5.142 2.854z" fill="#6780B3"/><path d="M111.114 92.72l3.957-1.507-.086-1.768-3.96 1.5.089 1.774z" fill="#053866"/><path d="M111.068 91.834l3.957-1.504-.042-.885-3.96 1.5.045.889zm4.448 8.43l3.957-1.5-3.823 4.257 3.96-1.501" fill="#0E2951"/><path d="M123.392 96.227l-.572.192.247 5.017.572-.192-.247-5.017zm-.748.348l-.571.189.244 4.92.569-.189-.242-4.92zm-2.392.895l-.569.19.252 4.925.577-.192-.26-4.922zm.809-.296l-.575.19.242 4.919.577-.189-.244-4.92zm.791-.297l-.575.189.241 4.92.575-.189-.241-4.92z" fill="#709FDC"/><path d="M119.425 97.784l3.965-1.506-.244-4.917-3.962 1.503.241 4.92z" fill="#0E2951"/><path d="M119.909 107.615l3.963-1.501-.242-4.917-3.965 1.498.244 4.92z" fill="#053866"/><path d="M119.303 95.32l1.986-.75-.121-2.458-1.985.752.12 2.457z" fill="#3D95D1"/><path d="M123.673 101.934l-.026-.492c-2.098.802-3.834 2.804-3.672 6.153l.488-.192c-.123-2.26 1.311-4.749 3.21-5.469z" fill="#B9D5FD"/><path d="M123.729 102.992l-.028-.588c-1.59.604-2.885 2.449-2.77 4.806l.58-.186c-.095-1.732.829-3.506 2.218-4.032z" fill="#3D95D1"/><path d="M123.776 104.097l-.036-.563c-1.083.413-1.836 1.821-1.765 3.296l.524-.189c-.042-1.065.433-2.221 1.277-2.544z" fill="#3376B3"/><path d="M123.835 105.279l-.039-.62c-.593.221-1.004.996-.871 1.785l.475-.192c-.023-.471.06-.833.435-.973z" fill="#709FDC"/><path d="M115.622 93.686l3.118-1.188-.189-3.876-3.121 1.183.152 3.056 2.534-.964L118 89.56l-1.948.744.081 1.632 1.361-.52-.045-.933-.776.297" stroke="#3D95D1" stroke-width="2" stroke-miterlimit="10"/><path d="M107.834 96.566l2.507-4.762m.184 3.74l-2.874-2.717" stroke="#0E2951" stroke-width="4" stroke-miterlimit="10"/><path d="M113.992 98.84l.634-.244-.039-.786-.632.239.037.791zm-.924-.752l.632-.244-.037-.786-.634.242.039.788zm-.923-.754l.632-.237-.039-.793-.632.244.039.786z" fill="#B9D5FD"/><path d="M120.079 91.318l3.008-1.138-.188-3.745-3.003 1.149.183 3.734z" fill="#053866"/><path d="M120.838 90.007l2.203-.836-.142-2.736-2.195.836.134 2.736z" fill="#709FDC"/><path d="M121.41 97.03l1.98-.752-.12-2.458-1.98.75.12 2.46z" fill="#3D95D1"/><path d="M100.246 82.495l6.273-2.394 16.38 6.333-6.459 2.345-16.194-6.284zm-1.436.542l-8.171 3.088 16.38 6.324 8.159-3.078-16.367-6.334z" fill="#165B93"/><path d="M99.413 85.5l-8.68.578 15.777-5.966 8.698-.6L99.413 85.5zm7.713 6.953l-6.341-6.1 15.811-5.986 6.312 6.073-15.782 6.013z" fill="#9CCEF7"/><path d="M103.077 107.291c-1.863-.491-2.966-.24-2.966-.24l-3.543-1.264-1.897 2.158 1.213.491.684.332h.59s.094-.142.258.064c.165.206 1.678.789 1.678.789 0 .139 2.529 2.911 3.018 3.067.489.155.901.114.968.073.251.114.536.133.801.056a11.94 11.94 0 011.44-.07l1.372-.059c.975-.133.499-.388.499-.388a3.135 3.135 0 00-.803-.197c.824.054 1.543-.005 1.388-.239-.257-.387-1.696-.575-1.696-.575s-.933-.066-1.262-.226c-.428-.641-.752-.844-.986-1.442-.396-1.01-.606-1.185-.606-1.185s2.129.844 3.059.396c.648-.441-.375-.622-1.489-.887a74.54 74.54 0 00-1.72-.654z" fill="#FFCFAE"/><g filter="url(#filter4_f)"><path d="M102.354 110.742c.329.481 1.348 1.634 1.479 1.762.132.129.658.225 1.151.225.821-.022 2.3-.043 2.3-.225.001-.16.165-.16-.493-.32" stroke="#D3A688" stroke-width=".2" stroke-linecap="round"/></g><g filter="url(#filter5_f)"><path d="M103.119 110.49c.329.481 1.056 1.246 1.187 1.374.131.128.657.224 1.15.224.822-.021 2.099.091 2.327-.138" stroke="#D3A688" stroke-width=".2" stroke-linecap="round"/></g><g filter="url(#filter6_f)"><path d="M104.49 112.729c-.493 0-.986.256-1.479-.064-.155-.101-1.151-1.122-1.479-1.603" stroke="#D3A688" stroke-width=".2" stroke-linecap="round"/></g><path d="M80.254 78.575c-2.885.352-4.88 2.517-4.123 9.63.624 5.876 3.483 12.69 5.77 16.819.217.395.543.72.939.936 3.841 2.102 6.71 1.89 15.82 4.476l1.14-3.196s-8.94-3.173-12.917-5.312c-1.511-.816-.426-9.238-3.206-17.06-.785-2.207-1.878-4.366-3.423-6.293z" fill="#4A75CB"/><path d="M80.254 78.035c-2.885.352-4.88 2.517-4.123 9.629.624 5.876 3.483 12.691 5.77 16.82.217.395.543.72.939.935 3.841 2.103 6.71 1.891 15.82 4.477l1.14-3.196s-8.94-3.173-12.917-5.312c-1.511-.816-.426-9.238-3.206-17.06-.785-2.207-1.878-4.366-3.423-6.293z" fill="#699DEE"/><path d="M88.468 63.28c.34-.127.451-.087.956-.087.23.027.457.084.673.17 0 0 .505.506.565.572.106.12.067.254-.092.276-.16.022-.337-.027-.471 0-1.037.17-1.259.233-1.851 0a3.207 3.207 0 01-.673-.337c.251-.26.556-.464.893-.595z" fill="#fff"/><path d="M89.086 63.456a.59.59 0 01.539.83 3.103 3.103 0 01-1.067.022.59.59 0 01.528-.852z" fill="#28160D" stroke="#1C1105" stroke-width=".2" stroke-miterlimit="10"/><path d="M89.075 64.368a.313.313 0 110-.627.313.313 0 010 .627z" fill="#000"/><path opacity=".77" d="M89.423 64.047a.168.168 0 110-.337.168.168 0 010 .337z" fill="#fff"/><path d="M90.707 64.092l-.6-.658a.431.431 0 00-.202-.123l-.247-.065a1.193 1.193 0 00-.387-.033l-.635.05a.853.853 0 00-.366.117l-.655.397-.212.011.61-.552c.135-.08.286-.129.442-.141l.632-.051c.15-.012.3.002.444.04l.246.065c.16.026.314.083.453.168l.708.802-.23-.027z" fill="#D3A688"/><path opacity=".5" d="M90.77 64.118l-.6-.658a.505.505 0 00-.24-.147l-.246-.064a1.276 1.276 0 00-.428-.037l-.634.05a.905.905 0 00-.404.13l-.644.395" stroke="#0A0001" stroke-width=".3" stroke-miterlimit="10"/><path d="M90.686 64.205h-.264a1.96 1.96 0 00-.412.043c-.329.049-1.004.214-1.595.045a6.906 6.906 0 01-.337-.169l-.336-.168" stroke="#472A22" stroke-width=".2" stroke-miterlimit="10"/><path d="M95.63 63.28c-.338-.127-.45-.087-.954-.087a2.66 2.66 0 00-.673.17s-.505.506-.564.572c-.108.12-.07.255.09.277.16.022.337-.027.472 0 1.037.169 1.26.233 1.852 0 .236-.086.462-.2.673-.338a2.524 2.524 0 00-.896-.594z" fill="#fff"/><path d="M95.013 63.456a.59.59 0 01.523.864c-.44.049-.673.045-1.06-.03a.59.59 0 01.537-.834z" fill="#28160D" stroke="#1C1105" stroke-width=".2" stroke-miterlimit="10"/><path d="M95.02 64.369a.313.313 0 110-.627.313.313 0 010 .627z" fill="#000"/><path opacity=".77" d="M95.35 64.048a.168.168 0 11.001-.337.168.168 0 010 .337z" fill="#fff"/><path d="M93.39 64.093l.602-.659a.429.429 0 01.203-.123l.246-.064c.126-.033.257-.044.387-.034l.637.05c.13.011.255.05.367.117l.653.397.212.012-.611-.553a1.007 1.007 0 00-.441-.141l-.635-.051a1.309 1.309 0 00-.443.04l-.247.065c-.16.026-.314.083-.453.169l-.705.802.229-.027z" fill="#D3A688"/><path opacity=".5" d="M93.33 64.118l.6-.658a.506.506 0 01.24-.147l.246-.064c.136-.035.277-.047.416-.037l.635.05a.92.92 0 01.404.13l.656.395" stroke="#0A0001" stroke-width=".3" stroke-miterlimit="10"/><path d="M93.413 64.206h.264c.14 0 .278.014.414.042.416.055 1.036.233 1.595.046.038-.012.3-.15.336-.169l.337-.169" stroke="#472A22" stroke-width=".2" stroke-miterlimit="10"/></g><path d="M130.766 12.81l-2.212-1.016a.535.535 0 01-.309-.466 9.167 9.167 0 00-.053-.772 8.852 8.852 0 00-.263-1.397.528.528 0 01.194-.56l2.028-1.527a.512.512 0 00.124-.693l-1.246-1.945a.518.518 0 00-.663-.185l-2.108 1.02a.527.527 0 01-.616-.11 9.405 9.405 0 00-2.373-1.767.522.522 0 01-.265-.59l.342-1.37a.526.526 0 00-.048-.375.539.539 0 00-.288-.25l-2.176-.774a.524.524 0 00-.658.269l-.769 1.632-.186.398a9.552 9.552 0 00-3.04.393.525.525 0 01-.568-.18L114.37.932a.54.54 0 00-.718-.127l-1.505.94-.431.271a.536.536 0 00-.199.693l.862 1.74a.505.505 0 01-.097.6c-.47.47-.887.99-1.244 1.548a1.57 1.57 0 00-.092.14.534.534 0 01-.592.238l-2.253-.545a.546.546 0 00-.629.332l-.788 2.142a.524.524 0 00.28.663l2.308 1.057a.514.514 0 01.304.498 9.336 9.336 0 00.162 2.185.54.54 0 01-.206.533l-1.949 1.468a.515.515 0 00-.125.687l1.236 1.923a.547.547 0 00.704.197l1.668-.808a.543.543 0 01.65.129 9.356 9.356 0 002.171 1.896.519.519 0 01.234.576l-.496 2.007a.546.546 0 00.346.64l2.16.774a.534.534 0 00.661-.271l.045-.095.892-1.896a.535.535 0 01.532-.309 9.453 9.453 0 002.538-.168.537.537 0 01.532.194l1.262 1.64a.552.552 0 00.727.13l1.939-1.217a.537.537 0 00.195-.682l-.69-1.385a.54.54 0 01.036-.528.57.57 0 01.101-.11 9.265 9.265 0 002.314-2.855.526.526 0 01.594-.268l1.823.443a.541.541 0 00.63-.332l.019-.05.77-2.086a.538.538 0 00-.285-.672zm-16.825-2.15c.065-.38.166-.753.301-1.115.269-.718 1.026-1.654 1.679-2.065.07-.045.141-.087.211-.128 4.314-2.499 9.17 1.432 7.463 6.15-.224.616-.784 1.372-1.361 1.864a3.28 3.28 0 01-.397.292 5.831 5.831 0 01-1.815.75c-3.452.758-6.677-2.109-6.081-5.749z" fill="#EBF2F9"/><g filter="url(#filter7_di)"><path d="M290.897 71.655c.315-.105.552-.132.657-.105.053 0 .132.105.185.29.105.368.263 1.105.447 2.238.921 4.846 1.368 8.138 1.342 9.85l-.027.579-1.605.474-.999.316c-.342.105-.605.131-.763.079-.158-.053-.29-.185-.395-.422-.105-.237-.263-.684-.447-1.316l-.263-.87a188.227 188.227 0 01-1.316-4.766c-.473-1.817-.763-2.923-.842-3.371-.105-.395-.105-.685-.052-.87.158-.368.815-.816 1.973-1.316a25.858 25.858 0 012.105-.79zm.421 14.221c.841-.237 1.552-.21 2.131.08.578.315.973.815 1.21 1.58.237.79.158 1.553-.237 2.264-.395.711-.973 1.185-1.763 1.396-.289.079-.552.131-.763.105-.552 0-1.105-.184-1.657-.527-.553-.368-.895-.763-1.026-1.211a2.733 2.733 0 01.105-1.764 3.418 3.418 0 011.158-1.502c.184-.184.473-.316.842-.42z" fill="url(#paint16_linear)"/></g><g filter="url(#filter8_di)" fill="#0A3D76"><path d="M182.008 85.715h-8.151V83.71l2.743-2.794a36.095 36.095 0 001.535-1.684c.201-.233.372-.492.51-.768.094-.22.141-.459.139-.698a.889.889 0 00-.286-.699 1.123 1.123 0 00-.796-.258 2.186 2.186 0 00-1.074.307c-.44.278-.851.599-1.228.957l-1.654-1.963c.443-.425.932-.8 1.458-1.118a5.19 5.19 0 011.284-.51 6.34 6.34 0 011.563-.174 4.68 4.68 0 011.947.384 3.05 3.05 0 011.333 1.097c.314.47.477 1.026.468 1.592a4.073 4.073 0 01-.698 2.326 7.37 7.37 0 01-.9 1.16c-.384.398-1.194 1.16-2.443 2.277v.077h4.25v2.494zm10.761-2.18h-1.235v2.18h-2.994v-2.18h-4.48v-2.228l4.669-6.839h2.791v6.797h1.235l.014 2.27zm-4.229-2.27v-2.297a4.8 4.8 0 01.042-.699h-.084a8.228 8.228 0 01-.593 1.111l-1.249 1.851 1.884.035zm12.575-6.957l-4.187 11.561h-2.659l4.187-11.56h2.659zm2.812 11.407l3.859-8.718h-4.885v-2.515h8.109v1.795l-3.957 9.438h-3.126zm-21.808-14.251a13.396 13.396 0 0110.28-4.813 13.379 13.379 0 0110.279 4.813h2.554a15.452 15.452 0 00-12.837-6.859 15.44 15.44 0 00-12.837 6.86h2.561zm20.545 17.248a13.387 13.387 0 01-15.953 3.55 13.387 13.387 0 01-4.605-3.55h-2.562a15.445 15.445 0 0025.675 0h-2.555z"/></g><g filter="url(#filter9_di)"><path d="M37.06 69.442c1.025-.113 1.987.112 2.975.613.97.545 1.644 1.36 2.11 2.544.196.52.26.869.286 1.145.019.642-.2 1.216-.763 1.667a3 3 0 01-1.887.833c-1.08.085-2.041-.14-2.924-.745-.9-.562-1.556-1.42-2.056-2.517l-.136-.332c-.25-.548-.21-1.001-.075-1.354.246-.823.734-1.418 1.5-1.714.325.007.629-.103.97-.14zM32.516 50.71c1.096-.129 1.998-.092 2.724.065.67.13 1.583.487 2.625 1.015.989.501 1.833 1.035 2.48 1.574 1.403 1.132 2.452 2.507 3.055 4.023.505 1.257.702 2.462.498 3.517-.149 1.083-.715 2.06-1.678 3.045-.631.628-1.03 1.163-1.181 1.56-.168.442-.28.911-.245 1.508-.003.526-.048.818-.115.995-.122.149-.354.242-.767.296-.341.037-1.26.045-2.813-.005-1.551-.05-2.454-.086-2.707-.109-.308-.05-.544-.118-.675-.29a3.993 3.993 0 01-.34-.487c-.097-.26-.208-1.002-.279-2.196-.07-1.194-.039-1.968.095-2.32.15-.398.517-.845 1.207-1.284.619-.424.95-.782 1.157-1.151.188-.326.213-.735.127-1.2l-.005-.16-.076-.144c-.293-.78-.825-1.103-1.635-1.04-.61.06-1.182.876-1.714 2.449-.146.558-.373.811-.516.844-.072.016-.126-.012-.181-.04l-.144.033c-.577-.03-1.966-.681-4.057-1.9-.752-.433-1.14-.788-1.276-1.12-.098-.26-.095-.786-.042-1.443.166-1.127.71-2.22 1.58-3.305.854-1.042 1.86-1.796 2.947-2.245.551-.247 1.196-.394 1.95-.485z" fill="url(#paint17_linear)"/></g><defs><linearGradient id="paint0_linear" x1="48.961" y1="143.781" x2="78.083" y2="166.258" gradientUnits="userSpaceOnUse"><stop stop-color="#B4D1FA" stop-opacity="0"/><stop offset="1" stop-opacity=".2"/></linearGradient><linearGradient id="paint1_linear" x1="82.883" y1="146.536" x2="107.019" y2="163.605" gradientUnits="userSpaceOnUse"><stop stop-color="#B4D1FA" stop-opacity="0"/><stop offset="1" stop-opacity=".2"/></linearGradient><linearGradient id="paint2_linear" x1="113.321" y1="128.132" x2="153.427" y2="150.486" gradientUnits="userSpaceOnUse"><stop stop-color="#B4D1FA" stop-opacity="0"/><stop offset="1" stop-opacity=".2"/></linearGradient><linearGradient id="paint3_linear" x1="204.59" y1="124.58" x2="247.139" y2="147.209" gradientUnits="userSpaceOnUse"><stop stop-color="#B4D1FA" stop-opacity="0"/><stop offset="1" stop-opacity=".2"/></linearGradient><linearGradient id="paint4_linear" x1="222.79" y1="151.84" x2="260.176" y2="167.144" gradientUnits="userSpaceOnUse"><stop stop-color="#DCD5D7" stop-opacity="0"/><stop offset=".103" stop-color="#DCD5D7" stop-opacity=".85"/><stop offset="1" stop-color="#DCD5D7"/></linearGradient><linearGradient id="paint5_linear" x1="183.795" y1="134.182" x2="206.181" y2="159.551" gradientUnits="userSpaceOnUse"><stop stop-color="#B4D1FA" stop-opacity="0"/><stop offset=".672" stop-opacity=".2"/></linearGradient><linearGradient id="paint6_linear" x1="28.528" y1="158.081" x2="112.677" y2="196.671" gradientUnits="userSpaceOnUse"><stop stop-color="#B4D1FA" stop-opacity="0"/><stop offset="1" stop-opacity=".2"/></linearGradient><linearGradient id="paint7_linear" x1="250.97" y1="135.836" x2="288.431" y2="166.562" gradientUnits="userSpaceOnUse"><stop stop-color="#B4D1FA" stop-opacity="0"/><stop offset="1" stop-opacity=".2"/></linearGradient><linearGradient id="paint8_linear" x1="299.003" y1="140.343" x2="18.933" y2="109.485" gradientUnits="userSpaceOnUse"><stop stop-color="#A62E41"/><stop offset="1" stop-color="#E13152"/></linearGradient><linearGradient id="paint9_linear" x1="299.003" y1="140.343" x2="18.933" y2="109.485" gradientUnits="userSpaceOnUse"><stop stop-color="#A62E41"/><stop offset="1" stop-color="#E13152"/></linearGradient><linearGradient id="paint10_linear" x1="299.003" y1="140.343" x2="18.933" y2="109.485" gradientUnits="userSpaceOnUse"><stop stop-color="#A62E41"/><stop offset="1" stop-color="#E13152"/></linearGradient><linearGradient id="paint11_linear" x1="299.003" y1="140.343" x2="18.933" y2="109.485" gradientUnits="userSpaceOnUse"><stop stop-color="#A62E41"/><stop offset="1" stop-color="#E13152"/></linearGradient><linearGradient id="paint12_linear" x1="299.003" y1="140.343" x2="18.933" y2="109.485" gradientUnits="userSpaceOnUse"><stop stop-color="#A62E41"/><stop offset="1" stop-color="#E13152"/></linearGradient><linearGradient id="paint13_linear" x1="299.003" y1="140.343" x2="18.933" y2="109.485" gradientUnits="userSpaceOnUse"><stop stop-color="#A62E41"/><stop offset="1" stop-color="#E13152"/></linearGradient><linearGradient id="paint14_linear" x1="299.003" y1="140.343" x2="18.933" y2="109.485" gradientUnits="userSpaceOnUse"><stop stop-color="#A62E41"/><stop offset="1" stop-color="#E13152"/></linearGradient><linearGradient id="paint15_linear" x1="232.167" y1="95.403" x2="210.297" y2="95.853" gradientUnits="userSpaceOnUse"><stop stop-color="#71A0DD" stop-opacity="0"/><stop offset="1" stop-color="#71A0DD" stop-opacity=".5"/></linearGradient><linearGradient id="paint16_linear" x1="294.545" y1="81.424" x2="287.018" y2="81.359" gradientUnits="userSpaceOnUse"><stop stop-color="#A62E41"/><stop offset="1" stop-color="#E13152"/></linearGradient><linearGradient id="paint17_linear" x1="44.374" y1="67.223" x2="25.463" y2="59.583" gradientUnits="userSpaceOnUse"><stop stop-color="#A62E41"/><stop offset="1" stop-color="#E13152"/></linearGradient><filter id="filter0_d" x="0" y="119.18" width="322.321" height="105.82" filterUnits="userSpaceOnUse" color-interpolation-filters="sRGB"><feFlood flood-opacity="0" result="BackgroundImageFix"/><feColorMatrix in="SourceAlpha" values="0 0 0 0 0 0 0 0 0 0 0 0 0 0 0 0 0 0 127 0"/><feOffset dx="2" dy="2"/><feGaussianBlur stdDeviation="2"/><feColorMatrix values="0 0 0 0 0 0 0 0 0 0 0 0 0 0 0 0 0 0 0.2 0"/><feBlend in2="BackgroundImageFix" result="effect1_dropShadow"/><feBlend in="SourceGraphic" in2="effect1_dropShadow" result="shape"/></filter><filter id="filter1_f" x="18.881" y="154.05" width="97.004" height="30.086" filterUnits="userSpaceOnUse" color-interpolation-filters="sRGB"><feFlood flood-opacity="0" result="BackgroundImageFix"/><feBlend in="SourceGraphic" in2="BackgroundImageFix" result="shape"/><feGaussianBlur stdDeviation="1" result="effect1_foregroundBlur"/></filter><filter id="filter2_di" x="2.741" y="106.96" width="311.558" height="68.765" filterUnits="userSpaceOnUse" color-interpolation-filters="sRGB"><feFlood flood-opacity="0" result="BackgroundImageFix"/><feColorMatrix in="SourceAlpha" values="0 0 0 0 0 0 0 0 0 0 0 0 0 0 0 0 0 0 127 0"/><feOffset dx="2" dy="2"/><feGaussianBlur stdDeviation="2"/><feColorMatrix values="0 0 0 0 0 0 0 0 0 0 0 0 0 0 0 0 0 0 0.15 0"/><feBlend in2="BackgroundImageFix" result="effect1_dropShadow"/><feBlend in="SourceGraphic" in2="effect1_dropShadow" result="shape"/><feColorMatrix in="SourceAlpha" values="0 0 0 0 0 0 0 0 0 0 0 0 0 0 0 0 0 0 127 0" result="hardAlpha"/><feOffset dx="-4" dy="-4"/><feGaussianBlur stdDeviation="5"/><feComposite in2="hardAlpha" operator="arithmetic" k2="-1" k3="1"/><feColorMatrix values="0 0 0 0 0 0 0 0 0 0 0 0 0 0 0 0 0 0 0.25 0"/><feBlend in2="shape" result="effect2_innerShadow"/></filter><filter id="filter3_d" x="75.969" y="42.771" width="65.902" height="147.209" filterUnits="userSpaceOnUse" color-interpolation-filters="sRGB"><feFlood flood-opacity="0" result="BackgroundImageFix"/><feColorMatrix in="SourceAlpha" values="0 0 0 0 0 0 0 0 0 0 0 0 0 0 0 0 0 0 127 0"/><feOffset dx="10"/><feGaussianBlur stdDeviation="4"/><feColorMatrix values="0 0 0 0 0 0 0 0 0 0 0 0 0 0 0 0 0 0 0.25 0"/><feBlend in2="BackgroundImageFix" result="effect1_dropShadow"/><feBlend in="SourceGraphic" in2="effect1_dropShadow" result="shape"/></filter><filter id="filter4_f" x="102.054" y="110.442" width="5.549" height="2.587" filterUnits="userSpaceOnUse" color-interpolation-filters="sRGB"><feFlood flood-opacity="0" result="BackgroundImageFix"/><feBlend in="SourceGraphic" in2="BackgroundImageFix" result="shape"/><feGaussianBlur stdDeviation=".1" result="effect1_foregroundBlur"/></filter><filter id="filter5_f" x="102.819" y="110.19" width="5.263" height="2.207" filterUnits="userSpaceOnUse" color-interpolation-filters="sRGB"><feFlood flood-opacity="0" result="BackgroundImageFix"/><feBlend in="SourceGraphic" in2="BackgroundImageFix" result="shape"/><feGaussianBlur stdDeviation=".1" result="effect1_foregroundBlur"/></filter><filter id="filter6_f" x="101.232" y="110.762" width="3.558" height="2.363" filterUnits="userSpaceOnUse" color-interpolation-filters="sRGB"><feFlood flood-opacity="0" result="BackgroundImageFix"/><feBlend in="SourceGraphic" in2="BackgroundImageFix" result="shape"/><feGaussianBlur stdDeviation=".1" result="effect1_foregroundBlur"/></filter><filter id="filter7_di" x="284.784" y="69.54" width="16.008" height="27.768" filterUnits="userSpaceOnUse" color-interpolation-filters="sRGB"><feFlood flood-opacity="0" result="BackgroundImageFix"/><feColorMatrix in="SourceAlpha" values="0 0 0 0 0 0 0 0 0 0 0 0 0 0 0 0 0 0 127 0"/><feOffset dx="2" dy="2"/><feGaussianBlur stdDeviation="2"/><feColorMatrix values="0 0 0 0 0 0 0 0 0 0 0 0 0 0 0 0 0 0 0.15 0"/><feBlend in2="BackgroundImageFix" result="effect1_dropShadow"/><feBlend in="SourceGraphic" in2="effect1_dropShadow" result="shape"/><feColorMatrix in="SourceAlpha" values="0 0 0 0 0 0 0 0 0 0 0 0 0 0 0 0 0 0 127 0" result="hardAlpha"/><feOffset dx="-2" dy="-2"/><feGaussianBlur stdDeviation="2"/><feComposite in2="hardAlpha" operator="arithmetic" k2="-1" k3="1"/><feColorMatrix values="0 0 0 0 0 0 0 0 0 0 0 0 0 0 0 0 0 0 0.2 0"/><feBlend in2="shape" result="effect2_innerShadow"/></filter><filter id="filter8_di" x="171.746" y="62.605" width="45.264" height="38.96" filterUnits="userSpaceOnUse" color-interpolation-filters="sRGB"><feFlood flood-opacity="0" result="BackgroundImageFix"/><feColorMatrix in="SourceAlpha" values="0 0 0 0 0 0 0 0 0 0 0 0 0 0 0 0 0 0 127 0"/><feOffset dx="2" dy="2"/><feGaussianBlur stdDeviation="2"/><feColorMatrix values="0 0 0 0 0 0 0 0 0 0 0 0 0 0 0 0 0 0 0.15 0"/><feBlend in2="BackgroundImageFix" result="effect1_dropShadow"/><feBlend in="SourceGraphic" in2="effect1_dropShadow" result="shape"/><feColorMatrix in="SourceAlpha" values="0 0 0 0 0 0 0 0 0 0 0 0 0 0 0 0 0 0 127 0" result="hardAlpha"/><feOffset dx="-1" dy="-1"/><feGaussianBlur stdDeviation="2"/><feComposite in2="hardAlpha" operator="arithmetic" k2="-1" k3="1"/><feColorMatrix values="0 0 0 0 0 0 0 0 0 0 0 0 0 0 0 0 0 0 0.2 0"/><feBlend in2="shape" result="effect2_innerShadow"/></filter><filter id="filter9_di" x="24.002" y="48.632" width="25.976" height="33.63" filterUnits="userSpaceOnUse" color-interpolation-filters="sRGB"><feFlood flood-opacity="0" result="BackgroundImageFix"/><feColorMatrix in="SourceAlpha" values="0 0 0 0 0 0 0 0 0 0 0 0 0 0 0 0 0 0 127 0"/><feOffset dx="2" dy="2"/><feGaussianBlur stdDeviation="2"/><feColorMatrix values="0 0 0 0 0 0 0 0 0 0 0 0 0 0 0 0 0 0 0.15 0"/><feBlend in2="BackgroundImageFix" result="effect1_dropShadow"/><feBlend in="SourceGraphic" in2="effect1_dropShadow" result="shape"/><feColorMatrix in="SourceAlpha" values="0 0 0 0 0 0 0 0 0 0 0 0 0 0 0 0 0 0 127 0" result="hardAlpha"/><feOffset dx="-2" dy="-2"/><feGaussianBlur stdDeviation="2"/><feComposite in2="hardAlpha" operator="arithmetic" k2="-1" k3="1"/><feColorMatrix values="0 0 0 0 0 0 0 0 0 0 0 0 0 0 0 0 0 0 0.2 0"/><feBlend in2="shape" result="effect2_innerShadow"/></filter><clipPath id="clip0"><path fill="#fff" transform="matrix(.99851 .05315 -.05305 .99867 242.342 64.226)" d="M0 0h4.511v2.463H0z"/></clipPath></defs></svg>