<svg width="870" height="600" fill="none" xmlns="http://www.w3.org/2000/svg"><g filter="url(#filter0_d)"><path d="M443.123 594L2 455.974 416.158 326 864 455.974 443.123 594z" fill="#F5F9FF"/></g><path d="M802.167 174.123l-5.815-2.731a1.424 1.424 0 01-.81-1.254 25.526 25.526 0 00-.139-2.072 24.127 24.127 0 00-.691-3.754 1.425 1.425 0 01.509-1.507l5.329-4.099a1.403 1.403 0 00.328-1.863l-3.277-5.224a1.35 1.35 0 00-1.742-.498l-5.54 2.741a1.351 1.351 0 01-.859.125 1.37 1.37 0 01-.76-.422 24.787 24.787 0 00-6.236-4.745 1.421 1.421 0 01-.615-.673 1.437 1.437 0 01-.082-.912l.898-3.68a1.444 1.444 0 00-.882-1.679l-5.72-2.08a1.35 1.35 0 00-1.17.097 1.378 1.378 0 00-.561.625l-2.02 4.384-.489 1.07a24.112 24.112 0 00-3.462.131 24.54 24.54 0 00-4.527.925 1.357 1.357 0 01-1.494-.483l-3.266-4.338a1.402 1.402 0 00-1.887-.34l-3.956 2.526-1.133.728c-.3.19-.519.485-.616.829-.096.344-.064.711.092 1.032l2.267 4.675a1.389 1.389 0 01-.256 1.611 24.866 24.866 0 00-3.269 4.159 4.343 4.343 0 00-.241.375.696.696 0 01-.086.123 1.39 1.39 0 01-1.471.515l-5.92-1.461a.963.963 0 00-.2-.035 1.416 1.416 0 00-1.455.926l-2.07 5.754a1.44 1.44 0 00.024 1.036c.136.33.39.596.711.746l6.068 2.839a1.38 1.38 0 01.797 1.338 25.478 25.478 0 00.427 5.871 1.469 1.469 0 01-.543 1.43l-5.121 3.943a1.399 1.399 0 00-.33 1.847l3.25 5.165a1.43 1.43 0 001.851.529l4.383-2.17c.282-.145.604-.189.914-.126.31.063.59.23.795.473a24.776 24.776 0 005.704 5.094 1.432 1.432 0 01.617 1.547l-1.304 5.393c-.084.349-.038.717.13 1.034.168.317.445.561.779.684l5.676 2.08c.328.121.688.113 1.01-.022.322-.135.582-.388.728-.707l.119-.256 2.345-5.094c.121-.265.32-.487.57-.635a1.4 1.4 0 01.826-.192 24.452 24.452 0 006.671-.453 1.384 1.384 0 011.401.521l3.314 4.405a1.431 1.431 0 001.913.351l5.096-3.269c.139-.092.262-.207.365-.339a1.458 1.458 0 00.147-1.494l-1.812-3.722a1.455 1.455 0 01.094-1.417c.074-.11.163-.21.263-.297a24.822 24.822 0 006.084-7.669 1.377 1.377 0 011.561-.719l4.791 1.189c.337.083.692.038.997-.127.306-.164.54-.436.66-.765l.049-.132 2.023-5.606a1.468 1.468 0 00-.027-1.05 1.443 1.443 0 00-.722-.755zm-44.22-5.781c.171-1.02.435-2.022.79-2.992.708-1.931 2.696-4.443 4.414-5.549.184-.12.369-.233.553-.344 11.339-6.712 24.102 3.847 19.616 16.521-.588 1.657-2.06 3.687-3.578 5.01a8.6 8.6 0 01-1.041.782 15.167 15.167 0 01-4.772 2.015c-9.074 2.038-17.549-5.665-15.982-15.443zM447.129 46.49l-3.245-1.496a.79.79 0 01-.452-.687c-.01-.376-.036-.755-.077-1.135a13.175 13.175 0 00-.386-2.055.774.774 0 01.284-.825l2.974-2.245a.76.76 0 00.183-1.02l-1.829-2.861a.767.767 0 00-.972-.273l-3.092 1.501a.768.768 0 01-.904-.163 13.825 13.825 0 00-3.48-2.598.78.78 0 01-.39-.868l.502-2.015a.779.779 0 00-.071-.552.793.793 0 00-.422-.367l-3.192-1.14a.771.771 0 00-.966.395l-1.127 2.402-.274.585a13.986 13.986 0 00-4.459.579.769.769 0 01-.833-.265l-1.823-2.375a.791.791 0 00-1.054-.186l-2.208 1.383-.632.398a.793.793 0 00-.292 1.02l1.265 2.56a.751.751 0 01-.143.882c-.688.692-1.3 1.456-1.824 2.278a2.17 2.17 0 00-.135.205.778.778 0 01-.869.35l-3.304-.801a.799.799 0 00-.924.488l-1.155 3.151a.772.772 0 00.013.567.79.79 0 00.397.41l3.387 1.554a.757.757 0 01.445.732 13.657 13.657 0 00.238 3.215.795.795 0 01-.303.784l-2.859 2.159a.753.753 0 00-.183 1.011l1.813 2.829a.803.803 0 001.033.29l2.447-1.19a.792.792 0 01.954.191 13.747 13.747 0 003.183 2.79.77.77 0 01.345.847l-.728 2.953a.805.805 0 00.507.941l3.168 1.14a.783.783 0 00.564-.013.769.769 0 00.406-.387l.067-.14 1.309-2.79a.795.795 0 01.779-.453 13.832 13.832 0 003.723-.248.787.787 0 01.782.285l1.85 2.413a.81.81 0 001.067.192l2.845-1.79a.794.794 0 00.286-1.004l-1.012-2.038a.781.781 0 01.199-.939 13.639 13.639 0 003.396-4.2.771.771 0 01.871-.393l2.675.65a.79.79 0 00.556-.069.78.78 0 00.368-.419l.027-.072 1.129-3.07a.795.795 0 00-.418-.989zm-24.68-3.166a9.029 9.029 0 01.441-1.639c.395-1.057 1.504-2.433 2.463-3.038.103-.066.206-.128.309-.189 6.329-3.676 13.452 2.107 10.948 9.047-.328.908-1.149 2.02-1.997 2.744-.182.157-.377.3-.581.428a8.553 8.553 0 01-2.663 1.104c-5.065 1.116-9.795-3.102-8.92-8.457zM219.478 15.979l-2.704-1.268a.664.664 0 01-.377-.582c-.008-.319-.029-.64-.064-.962a11.206 11.206 0 00-.322-1.743.67.67 0 01.012-.387.652.652 0 01.225-.313l2.478-1.903a.646.646 0 00.153-.865l-1.524-2.425a.632.632 0 00-.81-.231l-2.577 1.272a.631.631 0 01-.753-.138 11.523 11.523 0 00-2.901-2.203.66.66 0 01-.324-.736l.418-1.708a.667.667 0 00-.41-.78l-2.661-.965a.634.634 0 00-.805.335l-.939 2.035-.228.497a11.46 11.46 0 00-3.716.49.628.628 0 01-.694-.224l-1.52-2.014a.656.656 0 00-.877-.158l-1.841 1.173-.526.338a.67.67 0 00-.244.864l1.054 2.17a.646.646 0 01-.119.748 11.573 11.573 0 00-1.52 1.931 1.774 1.774 0 00-.112.174.651.651 0 01-.724.297l-2.754-.679a.656.656 0 00-.77.414l-.963 2.671a.665.665 0 00.343.828l2.822 1.318a.645.645 0 01.37.621 11.911 11.911 0 00.199 2.726.68.68 0 01-.253.664l-2.382 1.83a.65.65 0 00-.153.858l1.512 2.398a.67.67 0 00.861.246l2.038-1.008a.65.65 0 01.795.162 11.54 11.54 0 002.653 2.365.657.657 0 01.287.718l-.606 2.503a.684.684 0 00.423.799l2.64.965a.649.649 0 00.808-.339l.055-.118 1.091-2.365a.661.661 0 01.649-.384 11.33 11.33 0 003.103-.21.642.642 0 01.651.241l1.542 2.045a.668.668 0 00.89.163l2.37-1.517a.723.723 0 00.17-.158.677.677 0 00.068-.693l-.843-1.728a.677.677 0 01.166-.796 11.528 11.528 0 002.83-3.56.641.641 0 01.726-.335l2.229.552a.65.65 0 00.77-.414l.023-.061.941-2.603a.677.677 0 00-.349-.838zm-20.567-2.684c.08-.473.203-.939.368-1.39.329-.896 1.253-2.062 2.053-2.575.085-.056.171-.109.257-.16 5.274-3.117 11.21 1.786 9.124 7.67-.274.77-.958 1.712-1.665 2.326a4.034 4.034 0 01-.484.364 7.07 7.07 0 01-2.219.935c-4.221.946-8.162-2.63-7.434-7.17z" fill="#EBF2F9"/><g filter="url(#filter1_f)"><path d="M316 363l-39.5 12 105.763 133.397 78.771-1.12L316 363z" fill="url(#paint0_linear)"/></g><path d="M307.607 190.637l.847-1.622 13.311 3.136.109 4.722-14.65-4.613.383-1.623z" fill="#6F3725"/><path d="M318.273 197.182l-13.566-9.946 2.15-2.47 14.577 10.602" fill="#000"/><path d="M308.687 186.428a1.456 1.456 0 01.063-.711 1.519 1.519 0 011.002-.957c.231-.055.471-.055.702 0 .887.23 1.73.607 2.493 1.115a14.957 14.957 0 008.244 1.581 6.565 6.565 0 013.534.791c2.792 1.581 7.826 4.743 8.677 7.826.703 2.72 6.422 9.171 8.465 11.211a1.52 1.52 0 01.402 1.454c-.062.255-.19.489-.37.68a1.576 1.576 0 01-.655.411c-2.091.593-4.662 1.732-5.83 3.811-.584 1.051-4.828-2.024-5.443-3.06a1.491 1.491 0 00-.86-.672c-2.169-.648-9.987-2.949-12.18-2.925a1.568 1.568 0 01-.647-.142 1.586 1.586 0 01-.529-.411c-.268-.332-.512-.696-.434-.917.15-.451-2.248.197-2.871-1.242-.623-1.438-.844-3.778-2.304-5.589a1.5 1.5 0 00-.512-.403c-.971-.482-4.055-2.095-3.897-3.645a21.786 21.786 0 011.995-5.209l.411.355c-.081.39-.022.796.165 1.147.192.357.501.637.876.79l.142.103c.318.213.674.364 1.049.443l1.657.79c.161.092.337.154.52.182l1.397.214c.135.023.274.023.41 0l5.009-.577s-9.869-.483-10.681-6.444z" fill="#F9C8A3"/><path d="M301.201 190.527a13.547 13.547 0 008.62-5.346 13.565 13.565 0 00-2.532-18.649 13.537 13.537 0 00-9.732-2.852 13.547 13.547 0 00-8.62 5.346 13.564 13.564 0 002.531 18.649 13.541 13.541 0 009.733 2.852z" fill="#A6CCF4" stroke="#000" stroke-width="2" stroke-miterlimit="10"/><path d="M305.322 156.143c-2.906.77.724 3.853 2.78 4.308 2.6.631 5.124 1.53 7.529 2.682h.158c.259.133.489.314.677.532l.071.062 1.229.948c.127.087.239.194.331.316l.645.894c.102.136.182.287.237.447l1.378 3.854s-2.749-4.74-6.537-5.573c-2.15-.478-3.458 2.312-1.63 3.453l.126.069a12.01 12.01 0 014.355 5.396 5.878 5.878 0 002.268 2.589c2.363 1.542 6.561 3.854 9.231 3.307 2.449-.493 9.75 1.326 12.153 2.042.217.076.45.094.677.054a1.43 1.43 0 00.614-.277c.182-.143.323-.328.41-.54.088-.207.124-.432.102-.655-.283-1.719-.354-4.093.874-5.742.615-.817-3.441-2.829-4.481-2.89a1.285 1.285 0 01-.859-.386c-1.338-1.371-6.048-6.358-6.907-7.9a1.204 1.204 0 00-.362-.431 1.173 1.173 0 00-.52-.232c-.362-.084-.787-.123-.898 0-.315.286-.677-1.734-2.079-1.664-1.402.069-3.253.77-5.206.424a1.89 1.89 0 01-.788-.34c-.866-.601-11.128-4.878-15.618-4.724l.04-.023zm127.34 2.988l-1.33 14.033s-8.465 3.843-12.687 1.782c-4.221-2.061-4.32-1.553-4.32-1.553l-.149-10.365 8.964-1.707 9.522-2.19z" fill="#F9C8A3"/><path d="M428.182 163.472c-2.614 4.624-7.093 7.986-13.995 6.865v-7.56c2.147-.854 10.697 1.883 12.689.695h1.306z" fill="#EAAB85"/><path d="M434.744 155.307l13.244-43.539-42.715 7.318s-6.06 45.54 2.239 46.146c8.3.606 15.984-2.307 15.984-2.307 5.032-1.98 7.776-3.204 11.248-7.618z" fill="#F9C8A3"/><path d="M399.726 146.251l5.955.82-1.874-2.206-4.081 1.386z" fill="#C69B7D"/><path d="M403.839 133.699c-1.875 3.895-2.507 6.171-5.417 9.93-.21.193-.357.442-.421.717-.065.274-.048.561.049.828.099.265.267.502.487.688.228.178.503.291.793.325 2.667.21 3.498-.403 5.305.54 2.325 1.187 2.384-.894 2.221-2.19l-3.017-10.838z" fill="#F9C8A3"/><path d="M409.405 129.603a.5.5 0 01-.432-.559l.195-1.521a.5.5 0 01.58-.429l5.555.953c.77.129 1.479.459 2.008.932l1.576 1.373c.402.351.049 1.003-.464.859l-2.888-.815a.61.61 0 00-.072-.014l-6.058-.779z" fill="#202020"/><path d="M403.401 153.283s3.683 1.099 4.623-.136" stroke="#B96665" stroke-width=".64" stroke-linecap="round" stroke-linejoin="round"/><path d="M427.403 143.128c1.586-2.394 3.847-1.973 4.445-.527.599 1.445-3.067 5.075-4.639 4.41-1.26-.526-.758-2.444.194-3.883z" fill="#EAAB85"/><path d="M426.772 144.861c.905-2.074 2.366-1.991 2.828-.883.463 1.109-1.719 4.383-2.783 4.006-.865-.303-.561-1.866-.045-3.123z" fill="#F9C8A3"/><path d="M438.753 165.07c4.492 1.047 2.552-3.91 2.552-3.91s10.208-8.58 13.307-13.535 7.381-20.453 5.611-23.408c-1.097-1.91 6.514-19.385-25.553-28.748 0 0-10.59 3.848-16.625 2.898-6.035-.95-18.399-2.402-18.399-2.402s-12.039 7.905 5.485 23.979c0 0 22.374-4.806 19.707 13.687-.236 1.498-1.656 6.736-.554 7.369.539.305 1.473-1.607 3.83-3.442 5.435-4.118 11.924 1.878 2.728 11.61-1.647 1.763-3.195 1.418-4.29 2.284 0 0-3.404 9.973 12.201 13.618z" fill="#202020"/><path d="M414.548 133.782c-.847-.552-1.169-.524-2.532-.866a7.684 7.684 0 00-1.91-.028s-1.642.942-1.842 1.068c-.353.232-.323.601.096.765.42.164.923.16 1.272.319 2.704 1.131 3.268 1.444 4.995 1.255a8.862 8.862 0 002.003-.401 7.296 7.296 0 00-2.082-2.112z" fill="#fff"/><path d="M411.74 133.416c-.901-.245-1.766.223-1.932 1.046-.049.242-.032.487.039.719.989.489 1.544.736 2.609 1.048.311-.194.539-.499.615-.88.166-.823-.43-1.689-1.331-1.933z" fill="#28160D" stroke="#1C1105" stroke-width=".2" stroke-miterlimit="10"/><path d="M411.256 135.778c.518.141 1.015-.128 1.11-.602.096-.474-.247-.972-.765-1.113-.518-.141-1.015.129-1.111.602-.095.474.248.972.766 1.113z" fill="#000"/><path opacity=".77" d="M412.186 134.955c.259.071.508-.064.556-.301.048-.237-.124-.487-.383-.557-.259-.071-.508.064-.556.301-.048.237.124.486.383.557z" fill="#fff"/><path d="M408.078 134.297l1.982-1.255a1.17 1.17 0 01.612-.175l.702.005c.358.003.716.063 1.061.175l1.681.555c.343.113.659.298.924.54l1.544 1.441.565.173-1.341-1.803a3.015 3.015 0 00-1.109-.654l-1.677-.554a3.903 3.903 0 00-1.219-.197l-.697-.003a3.506 3.506 0 00-1.313.12l-2.351 1.545.636.087z" fill="#D3A688"/><path opacity=".5" d="M407.892 134.336l1.981-1.253a1.37 1.37 0 01.729-.207l.697.003c.395.002.791.068 1.171.194l1.68.553c.38.123.728.328 1.016.599l1.517 1.426" stroke="#0A0001" stroke-width=".3" stroke-miterlimit="10"/><path d="M408.049 134.714l.708.173c.372.09.735.216 1.083.375.806.378 2.514 1.239 4.254 1.161.106-.004.891-.172.996-.194l.996-.195" stroke="#472A22" stroke-width=".2" stroke-miterlimit="10"/><path d="M339.502 174.976c.396-3.44 2.219-3.486 2.219-3.486s23.628 6.843 39.21 8.432c14.029 1.43 36.111.087 36.111.087s12.096-6.504 19.352-1.827c6.305 4.058 7.244 8.673 7.198 13.989-.04 3.097-.981 6.018-2.701 8.381a12.993 12.993 0 01-6.941 4.867c-12.851 3.745-48.868-9.754-48.868-9.754l-44.632-13.001c-.558-1.647-1.128-6.025-.948-7.688z" fill="#3F76BC"/><path d="M460.802 507.711c2.714-2.632 1.086-17.403 1.086-17.403s-13.968-12.686-15.89-2.975c-1.921 9.712-13.269 14.08-19.731 15.27-4.31.793-5.745 3.436-6.222 5.108h40.757z" fill="#1E3055"/><path d="M462.373 491.841c-10.48 1.809-18.304 0-18.304 0 .138-11.49-1.917-16.913-6.266-46.647-5.737-39.204-13.555-85.081-18.485-113.364-2.834-16.265-2.407-27.675-2.407-27.675l8.564-.187 32.354-3.179s-6.144 53.746-5.272 79.727c.21 6.2 0 6.868 1.427 12.98 6.101 21.359 8.389 98.345 8.389 98.345z" fill="#2B478B"/><path d="M452.649 385.667c-5.802 12.082-9.267 40.146-14.691 59.565-5.737-39.204-13.554-85.081-18.484-113.364.245-10.686 3.537-21.032 5.97-27.9h31.781s-5.448 55.718-4.576 81.699zM424.155 510c2.783-2.632 1.115-17.403 1.115-17.403s-14.351-12.686-16.324-2.974c-1.973 9.711-13.619 14.106-20.266 15.269-4.426.794-5.895 3.436-6.385 5.108h41.86z" fill="#233862"/><path d="M398.341 303.01s13.016 153.266 9.693 188.103c0 0 7.35 2.158 17.933 1.439 0 0 12.345-77.561 8.283-93.669-2.823-11.196 17.827-93.914 17.827-93.914l-53.736-1.959z" fill="#2B478B"/><path d="M460.656 304.747c-2.991 6.928-60.283 4.885-63.553 0-1.331-1.988 5.151-21.866 4.279-44.983-.482-12.801-.765-26.603-.711-38.898.099-20.061-4.522-25.396-1.983-26.622 6.347-6.723 12.103-18.305 27.253-18.677 2.806.087 8.467-.57 10.827 1.121 2.359 1.691 4.29 4.777 5.522 7.584 4.452 10.252 10.77 28.419 11.248 49.872.727 33.063 10.87 61.87 7.118 70.603z" fill="#71A0DD"/><path d="M422.072 207.252s-2.153 34.574-20.703 52.512c-.481-12.802-.764-26.603-.711-38.898 5.542-8.243 12.855-14.18 21.414-13.614z" fill="#3F76BC"/><path d="M423.933 177.928c-.104-1.234-1.298-2.007-2.449-1.549-4.565 1.814-15.241 6.966-23.165 17.875-3.873 5.333-20.934 39.125-22.83 39.276-1.896.152-33.544-27.331-33.544-27.331s-8.787 3.278-9.127 8.017c0 0 22.028 21.826 38.457 36.186 3.539 3.093 8.737 3.139 12.308.084 10.449-8.937 31.126-27.877 37.886-43.156 3.77-8.519 2.952-23.616 2.464-29.402z" fill="#71A0DD"/><path d="M414.081 171.98c4.076.082 13.117-.127 16.499-3.346a1.9 1.9 0 011.209-.537c.452-.027.871.537 1.326 1.309 1.874 3.183 1.874 4.635 3.279 6.908-7.093-1.868-16.799.374-16.799.374-4.374 1.616-6.055 2.395-8.96 4.482.938-3.516 1.777-3.749 1.76-7.38-.012-.231.02-.463.094-.682.081-.218.205-.419.365-.592.16-.174.359-.31.581-.4.204-.085.424-.132.646-.136z" fill="#D2DFF9"/><path d="M283.4 304.206h-1.178a2 2 0 00-2 2v40.789a2 2 0 002 2h1.178a2 2 0 002-2v-40.789a2 2 0 00-2-2zm23.551-3.632h-1.177a2 2 0 00-2 2v44.428a2 2 0 002 2h1.177a2 2 0 002-2v-44.428a2 2 0 00-2-2zm24.39-6.148h-1.177a2 2 0 00-2 2v50.576a2 2 0 002 2h1.177a2 2 0 002-2v-50.576a2 2 0 00-2-2z" fill="#C9E0FF"/><path d="M319.884 327.186h-1.177a2 2 0 00-2 2v17.809a2 2 0 002 2h1.177a2 2 0 002-2v-17.809a2 2 0 00-2-2z" fill="#EBF2F9"/><path d="M289.44 299.41h-1.178a2 2 0 00-2 2v45.593a2 2 0 002 2h1.178a2 2 0 002-2V301.41a2 2 0 00-2-2zm23.97-10.388h-1.178a2 2 0 00-2 2v55.981a2 2 0 002 2h1.178a2 2 0 002-2v-55.981a2 2 0 00-2-2z" fill="#E0E0E0"/><path d="M344.701 289.022h-1.177a2 2 0 00-2 2v55.981a2 2 0 002 2h1.177a2 2 0 002-2v-55.981a2 2 0 00-2-2z" fill="#EBF2F9"/><path d="M338.259 277.172h-1.178a2 2 0 00-2 2v67.823a2 2 0 002 2h1.178a2 2 0 002-2v-67.823a2 2 0 00-2-2z" fill="#E0E0E0"/><path d="M295.78 317.524h-1.178a2 2 0 00-2 2v27.471a2 2 0 002 2h1.178a2 2 0 002-2v-27.471a2 2 0 00-2-2zm58.335 34.189c0 .117-18.483.203-41.282.203-22.799 0-41.289-.086-41.289-.203 0-.117 18.483-.203 41.289-.203 22.807 0 41.282.094 41.282.203zm-81.81-10.678h-3.16v1.196h3.16v-1.196zm0-15.942h-3.16v1.195h3.16v-1.195zm0-30.002h-3.16v1.195h3.16v-1.195zm0-15.075h-3.16v1.195h3.16v-1.195zm.155 30.08h-3.16v1.195h3.16v-1.195zm244.804-37.623a2.084 2.084 0 01-2.075-2.077v-38.961a2.076 2.076 0 114.151 0v38.961a2.084 2.084 0 01-.608 1.468 2.085 2.085 0 01-1.468.609z" fill="#EBF2F9"/><path d="M517.264 272.652a2.076 2.076 0 01-2.075-2.077v-25.14a2.084 2.084 0 012.075-2.077 2.084 2.084 0 011.468.609 2.07 2.07 0 01.608 1.468v25.118a2.076 2.076 0 01-.598 1.485 2.079 2.079 0 01-1.478.614zm-1.305 1.629v3.459h-.352v-3.168h-.814v-.314l1.166.023zm.828 1.733c0-1.106.575-1.763 1.381-1.763.807 0 1.382.657 1.382 1.763 0 1.106-.583 1.756-1.382 1.756-.799 0-1.381-.657-1.381-1.756zm2.397 0c0-.926-.418-1.434-1.016-1.434-.597 0-1.023.508-1.023 1.434 0 .927.418 1.435 1.023 1.435s1.016-.516 1.016-1.435z" fill="#E0E0E0"/><path d="M525.568 272.473a2.084 2.084 0 01-1.468-.609 2.084 2.084 0 01-.608-1.468v-38.961a2.068 2.068 0 012.076-2.077 2.078 2.078 0 011.465.609 2.08 2.08 0 01.603 1.468v38.961a2.078 2.078 0 01-2.068 2.077z" fill="#EBF2F9"/><path d="M525.568 272.653a2.068 2.068 0 01-2.076-2.077v-33.022a2.072 2.072 0 114.144 0v33.022a2.08 2.08 0 01-.603 1.468 2.08 2.08 0 01-1.465.609zm-.523 4.773v.314h-2.405v-.246l1.441-1.428c.389-.388.463-.62.463-.859 0-.396-.283-.642-.814-.642a1.16 1.16 0 00-.94.381l-.254-.217a1.564 1.564 0 011.224-.493c.702 0 1.15.358 1.15.934a1.436 1.436 0 01-.567 1.083l-1.18 1.158 1.882.015zm.448-1.412c0-1.106.575-1.763 1.381-1.763.807 0 1.382.657 1.382 1.763 0 1.106-.583 1.756-1.382 1.756-.799 0-1.381-.657-1.381-1.756zm2.397 0c0-.926-.418-1.434-1.016-1.434-.597 0-1.023.508-1.023 1.434 0 .927.418 1.435 1.023 1.435s1.016-.516 1.016-1.435z" fill="#E0E0E0"/><path d="M533.863 272.473a2.074 2.074 0 01-2.098-2.077v-38.961a2.068 2.068 0 012.076-2.077 2.076 2.076 0 012.075 2.077v38.961a2.084 2.084 0 01-2.053 2.077z" fill="#EBF2F9"/><path d="M533.863 272.652a2.064 2.064 0 01-1.94-1.276 2.058 2.058 0 01-.158-.801v-19.163a2.072 2.072 0 012.075-2.077 2.08 2.08 0 011.938 1.277c.106.254.16.525.16.8v19.178a2.077 2.077 0 01-2.075 2.062zm-.545 4.094c0 .583-.419 1.024-1.255 1.024a1.813 1.813 0 01-1.247-.441l.179-.284c.289.271.673.416 1.068.404.575 0 .889-.269.889-.703 0-.433-.292-.687-.934-.687h-.254v-.262l.971-1.225h-1.77v-.314h2.241v.314l-.986 1.225c.732.008 1.098.396 1.098.949zm.5-.732c0-1.106.582-1.763 1.381-1.763s1.382.657 1.382 1.763c0 1.106-.583 1.756-1.382 1.756-.799 0-1.381-.657-1.381-1.756zm2.397 0c0-.926-.411-1.434-1.016-1.434s-1.023.508-1.023 1.434c0 .927.418 1.435 1.023 1.435s1.046-.516 1.046-1.435h-.03z" fill="#E0E0E0"/><path d="M542.158 272.473a2.075 2.075 0 01-2.076-2.077v-38.961a2.068 2.068 0 012.076-2.077 2.08 2.08 0 012.076 2.077v38.961a2.088 2.088 0 01-2.076 2.077z" fill="#EBF2F9"/><path d="M542.158 272.653a2.072 2.072 0 01-1.92-1.281 2.072 2.072 0 01-.156-.796v-33.022a2.072 2.072 0 013.544-1.468c.389.389.608.918.608 1.468v33.022a2.084 2.084 0 01-.608 1.469 2.079 2.079 0 01-1.468.608zm.015 4.161h-.702v.904h-.351v-.904h-1.949v-.262l1.837-2.294h.395l-1.769 2.242h1.493v-.8h.344v.8h.694l.008.314zm.321-.8c0-1.106.582-1.763 1.381-1.763s1.389.657 1.389 1.763c0 1.106-.59 1.756-1.389 1.756s-1.381-.657-1.381-1.756zm2.404 0c0-.926-.418-1.434-1.023-1.434s-1.015.508-1.015 1.434c0 .927.41 1.435 1.015 1.435s1.023-.516 1.023-1.435z" fill="#E0E0E0"/><path d="M550.431 272.473a2.076 2.076 0 01-2.076-2.077v-38.961a2.068 2.068 0 012.076-2.077 2.076 2.076 0 012.075 2.077v38.961a2.084 2.084 0 01-2.075 2.077z" fill="#EBF2F9"/><path d="M550.431 272.652a2.068 2.068 0 01-2.076-2.077v-26.694a2.072 2.072 0 013.543-1.468c.39.389.608.918.608 1.468v26.694a2.065 2.065 0 01-.608 1.469 2.083 2.083 0 01-1.467.608zm-.165 4.072c0 .59-.41 1.046-1.254 1.046a1.8 1.8 0 01-1.24-.441l.172-.284c.287.269.668.414 1.06.404.59 0 .904-.292.904-.71s-.276-.747-1.158-.747h-.746l.179-1.734h1.897v.314h-1.576l-.119 1.106h.448c1.038.022 1.433.433 1.433 1.046zm.448-.71c0-1.106.583-1.763 1.382-1.763.799 0 1.381.657 1.381 1.763 0 1.106-.582 1.756-1.381 1.756s-1.382-.657-1.382-1.756zm2.397 0c0-.926-.41-1.434-1.015-1.434s-1.016.508-1.016 1.434c0 .927.411 1.435 1.016 1.435s1.015-.516 1.015-1.435z" fill="#E0E0E0"/><path d="M558.749 272.473a2.085 2.085 0 01-2.076-2.077v-38.961a2.076 2.076 0 012.871-1.921 2.06 2.06 0 011.124 1.125c.104.252.157.523.156.796v38.961c0 .551-.218 1.079-.608 1.468-.389.39-.917.609-1.467.609z" fill="#EBF2F9"/><path d="M558.749 272.473a2.053 2.053 0 01-2.076-1.898v-19.163a2.13 2.13 0 012.076-2.241 2.067 2.067 0 012.075 2.077v19.185a2.076 2.076 0 01-2.075 2.04zm-.269 4.236a1.095 1.095 0 01-.362.791 1.077 1.077 0 01-.826.27c-.918 0-1.418-.635-1.418-1.726s.642-1.793 1.583-1.793c.285-.014.569.051.821.187l-.142.283a1.27 1.27 0 00-.672-.156c-.747 0-1.225.478-1.225 1.419a2.134 2.134 0 000 .277 1.095 1.095 0 011.053-.591 1.061 1.061 0 01.828.252 1.05 1.05 0 01.36.787zm-.351 0c0-.456-.336-.747-.874-.747a.791.791 0 00-.805.435.805.805 0 00-.084.312c0 .381.314.747.911.747a.755.755 0 00.595-.175.755.755 0 00.257-.565v-.007zm.754-.695c0-1.106.582-1.763 1.381-1.763s1.382.657 1.382 1.763c0 1.106-.583 1.756-1.382 1.756-.799 0-1.381-.657-1.381-1.756zm2.397 0c0-.926-.411-1.434-1.016-1.434s-1.015.508-1.015 1.434c0 .927.41 1.435 1.015 1.435s1.016-.516 1.016-1.435z" fill="#E0E0E0"/><path d="M567.044 272.473a2.08 2.08 0 01-2.075-2.077v-38.961c0-.551.218-1.079.607-1.469a2.08 2.08 0 011.468-.608 2.07 2.07 0 012.053 2.077v38.961a2.074 2.074 0 01-2.053 2.077z" fill="#EBF2F9"/><path d="M567.044 272.653a2.074 2.074 0 01-2.075-2.077v-35.002a2.084 2.084 0 01.602-1.478 2.086 2.086 0 011.473-.614 2.071 2.071 0 012.054 2.092v35.002a2.072 2.072 0 01-2.054 2.077zm-.441 1.628v.291l-1.448 3.206h-.389l1.427-3.206h-1.778v.65h-.351v-.964l2.539.023zm.366 1.733c0-1.106.583-1.763 1.382-1.763.799 0 1.389.657 1.389 1.763 0 1.106-.59 1.756-1.389 1.756s-1.382-.657-1.382-1.756zm2.405 0c0-.926-.418-1.434-1.023-1.434s-1.016.508-1.016 1.434c0 .927.411 1.435 1.016 1.435s1.023-.516 1.023-1.435z" fill="#E0E0E0"/><path d="M575.34 272.473a2.085 2.085 0 01-2.076-2.077v-38.961a2.076 2.076 0 012.871-1.921 2.074 2.074 0 011.124 1.125c.104.252.157.523.156.796v38.961c0 .551-.218 1.079-.608 1.468-.389.39-.917.609-1.467.609z" fill="#EBF2F9"/><path d="M575.339 272.652a2.076 2.076 0 01-2.075-2.077v-15.226c0-.551.218-1.079.608-1.468.389-.39.917-.609 1.467-.609a2.068 2.068 0 012.076 2.077v15.226a2.068 2.068 0 01-2.076 2.077zm-.411 4.162c0 .612-.515.993-1.344.993-.829 0-1.336-.381-1.336-.993a.87.87 0 01.672-.852.743.743 0 01-.545-.747c0-.561.477-.912 1.209-.912.732 0 1.217.351 1.217.912a.744.744 0 01-.552.747.875.875 0 01.679.852zm-.366 0c0-.426-.365-.695-.978-.695-.612 0-.978.269-.978.695 0 .426.366.695.978.695.613 0 .978-.307.978-.695zm-.985-1.017c.537 0 .859-.239.859-.62s-.336-.605-.859-.605c-.523 0-.859.239-.859.628 0 .388.329.597.859.597zm1.844.217c0-1.106.575-1.763 1.382-1.763.806 0 1.381.657 1.381 1.763 0 1.106-.582 1.756-1.381 1.756s-1.382-.657-1.382-1.756zm2.397 0c0-.926-.418-1.434-1.015-1.434-.598 0-1.023.508-1.023 1.434 0 .927.418 1.435 1.023 1.435s1.015-.516 1.015-1.435z" fill="#E0E0E0"/><path d="M583.635 272.473a2.074 2.074 0 01-2.069-2.077v-38.961a2.058 2.058 0 01.604-1.468c.192-.193.42-.346.671-.451a2.079 2.079 0 012.713 1.123c.104.252.157.523.156.796v38.961c0 .551-.218 1.079-.608 1.468-.389.39-.917.609-1.467.609z" fill="#EBF2F9"/><path d="M583.635 272.473a2.05 2.05 0 01-2.069-1.898v-5.334a2.12 2.12 0 012.069-2.241 2.067 2.067 0 012.075 2.076v5.342a2.075 2.075 0 01-2.075 2.055zm-.621 3.511c0 1.173-.642 1.786-1.583 1.786a1.568 1.568 0 01-.821-.187l.142-.284c.203.119.437.176.672.165.747 0 1.225-.486 1.225-1.42v-.284a1.117 1.117 0 01-1.061.59 1.038 1.038 0 01-.817-.258 1.04 1.04 0 01-.355-.78 1.078 1.078 0 01.361-.791 1.092 1.092 0 01.826-.27c.934 0 1.411.635 1.411 1.733zm-.477-.665c0-.381-.314-.747-.911-.747a.743.743 0 00-.598.178.762.762 0 00-.254.569c0 .456.344.747.874.747a.792.792 0 00.805-.435.805.805 0 00.084-.312zm.985.695c0-1.106.582-1.763 1.381-1.763s1.389.657 1.389 1.763c0 1.106-.59 1.756-1.389 1.756s-1.381-.657-1.381-1.756zm2.405 0c0-.926-.419-1.434-1.024-1.434-.604 0-1.015.508-1.015 1.434 0 .927.411 1.435 1.015 1.435.605 0 1.024-.516 1.024-1.435z" fill="#E0E0E0"/><path d="M591.937 272.473a2.076 2.076 0 01-2.076-2.077v-38.961a2.068 2.068 0 012.076-2.077c.55 0 1.078.219 1.468.608.389.39.607.918.607 1.469v38.961a2.08 2.08 0 01-2.075 2.077z" fill="#EBF2F9"/><path d="M591.936 272.473a2.046 2.046 0 01-2.075-1.898v-19.163a2.113 2.113 0 01.562-1.562 2.118 2.118 0 011.513-.679 2.076 2.076 0 012.076 2.077v19.185a2.08 2.08 0 01-.623 1.442 2.08 2.08 0 01-1.453.598zm-2.978 1.808v3.459h-.351v-3.168h-.844v-.314l1.195.023zm.828 1.733c0-1.106.575-1.763 1.382-1.763.806 0 1.381.657 1.381 1.763 0 1.106-.582 1.756-1.381 1.756s-1.382-.657-1.382-1.756zm2.397 0c0-.926-.418-1.434-1.015-1.434-.598 0-1.023.508-1.023 1.434 0 .927.418 1.435 1.023 1.435s1.015-.516 1.015-1.435zm.874 0c0-1.106.575-1.763 1.382-1.763.806 0 1.381.657 1.381 1.763 0 1.106-.582 1.756-1.381 1.756s-1.382-.657-1.382-1.756zm2.397 0c0-.926-.418-1.434-1.015-1.434-.598 0-1.023.508-1.023 1.434 0 .927.418 1.435 1.023 1.435s1.015-.516 1.015-1.435z" fill="#E0E0E0"/><defs><filter id="filter0_d" x="0" y="324" width="870" height="276" filterUnits="userSpaceOnUse" color-interpolation-filters="sRGB"><feFlood flood-opacity="0" result="BackgroundImageFix"/><feColorMatrix in="SourceAlpha" values="0 0 0 0 0 0 0 0 0 0 0 0 0 0 0 0 0 0 127 0"/><feOffset dx="2" dy="2"/><feGaussianBlur stdDeviation="2"/><feColorMatrix values="0 0 0 0 0 0 0 0 0 0 0 0 0 0 0 0 0 0 0.2 0"/><feBlend in2="BackgroundImageFix" result="effect1_dropShadow"/><feBlend in="SourceGraphic" in2="effect1_dropShadow" result="shape"/></filter><filter id="filter1_f" x="274.5" y="361" width="188.534" height="149.397" filterUnits="userSpaceOnUse" color-interpolation-filters="sRGB"><feFlood flood-opacity="0" result="BackgroundImageFix"/><feBlend in="SourceGraphic" in2="BackgroundImageFix" result="shape"/><feGaussianBlur stdDeviation="1" result="effect1_foregroundBlur"/></filter><linearGradient id="paint0_linear" x1="299.5" y1="369.5" x2="463.745" y2="559.83" gradientUnits="userSpaceOnUse"><stop stop-color="#B4D1FA" stop-opacity="0"/><stop offset="1" stop-opacity=".2"/></linearGradient></defs></svg>