<svg width="600" height="370" viewBox="0 0 600 370" fill="none" xmlns="http://www.w3.org/2000/svg">
<g clip-path="url(#clip0)">
<g filter="url(#filter0_d)">
<path d="M305.077 367.225L533.538 282.588L298.154 191.012L70.6154 277.962L305.077 367.225Z" fill="#FFF5F7"/>
</g>
<g filter="url(#filter1_f)">
<path d="M324.784 223.122L173.381 280.171L119.538 260.388L271.385 207.663L324.784 223.122Z" fill="url(#paint0_linear)"/>
</g>
<g clip-path="url(#clip1)">
<path d="M302.919 330.755L169.163 280.263L169.116 118.476L302.919 168.968V330.755Z" fill="#053866"/>
<path d="M438.07 279.464L302.921 228.935L302.308 67.1273L304.616 65.2125L438.062 117.307L438.07 279.464Z" fill="#083556"/>
<path d="M302.921 330.754L438.015 279.422L438.062 117.14L302.967 168.056L302.921 330.754Z" fill="#054270"/>
<path d="M169.162 280.021L305.076 225.238L302.993 66.5538L301.384 65.2125L169.116 117.358L169.162 280.021Z" fill="#063D66"/>
<g filter="url(#filter2_f)">
<ellipse cx="302.5" cy="186" rx="92.5" ry="66" fill="url(#paint1_radial)"/>
</g>
<path d="M302.923 330.757L169.167 280.262L169.121 118.476L302.923 168.968V330.757Z" fill="#053866"/>
<path d="M202.571 171.879L169.167 159.162L169.12 118.476L202.571 131.469V171.879Z" fill="#053866"/>
<path d="M178.012 157.186C174.999 157.262 172.003 156.719 169.209 155.588L169.117 151.297C175.914 153.899 182.437 153.397 187.455 149.927C193.43 145.819 197.216 139.017 197.216 129.156L201.23 130.754C201.23 141.984 197.9 148.284 190.83 153.169C187.035 155.719 182.583 157.115 178.012 157.186V157.186Z" fill="#FF8098"/>
<path d="M236.021 183.895L202.57 171.111V130.491L236.021 143.275V183.895Z" fill="#0E2951"/>
<path d="M269.47 197.245L236.019 184.462V143.842L269.47 156.579V197.245Z" fill="#FF8098"/>
<path d="M302.92 209.257L269.47 196.63V155.858L303.147 168.386L302.92 209.257Z" fill="#6780B3"/>
<path d="M202.568 211.932L169.117 199.195V158.528L202.568 171.312V211.932Z" fill="#911A31"/>
<path d="M236.021 223.948L202.57 211.484V171.879L236.021 184.343V223.948Z" fill="#C43B55"/>
<path d="M269.47 237.298L236.019 224.514V183.894L269.47 196.678V237.298Z" fill="#053866"/>
<path d="M302.92 249.314L269.47 236.988L269.513 196.639L302.92 209.224V249.314Z" fill="#132F7C"/>
<path d="M236.021 265.335L202.57 252.598V211.491L236.021 223.936V265.335Z" fill="#FF8098"/>
<path d="M269.473 277.35L236.022 264.567V223.947L269.473 236.73V277.35Z" fill="#0E2951"/>
<path d="M302.925 290.702L269.474 278.06V237.298L302.925 249.94V290.702Z" fill="#053866"/>
<path d="M202.568 292.828L169.117 280.238V239.424L202.568 251.985V292.828Z" fill="#6780B3"/>
<path d="M236.021 305.388L202.57 292.639V251.984L236.021 264.732V305.388Z" fill="#053866"/>
<path d="M269.47 317.985L236.019 305.201V264.581L269.47 277.365V317.985Z" fill="#FF8098"/>
<path d="M302.92 330.755L269.47 318.184V277.351L302.92 290.473V330.755Z" fill="#3D95D1"/>
<path d="M176.034 149.181C173.659 149.216 171.303 148.753 169.117 147.821V142.897C173.978 144.773 180.006 144.117 182.997 142.147C187.997 138.818 190.428 133.66 190.428 126.486L194.54 128.127C194.54 136.942 191.409 142.335 185.801 146.227C182.909 148.161 179.51 149.19 176.034 149.181V149.181Z" fill="#D6516B"/>
<path d="M173.643 139.835C172.092 139.867 170.552 139.564 169.117 138.945V133.753C172.04 134.94 176.565 134.643 179.064 132.023C181.657 129.304 182.364 127.079 182.364 122.481L186.512 124.211C186.512 130.54 184.438 134.841 180.525 137.659C178.489 139.087 176.092 139.844 173.643 139.835V139.835Z" fill="#C43B55"/>
<path d="M171.248 130.475C170.515 130.544 169.778 130.392 169.117 130.037V124.924C169.828 125.216 172.135 125.411 173.023 124.924C174.576 124.047 174.576 122.343 173.822 119.81L178.482 121.515C178.482 125.07 177.328 127.553 175.153 129.209C173.988 130.03 172.633 130.469 171.248 130.475Z" fill="#A62E41"/>
<path d="M302.401 284.026L273.482 273.355V203.921L302.919 214.409V220.043L278.467 210.883V270.949L301.988 280.625L302.401 284.026Z" fill="#B9D5FD"/>
<path d="M302.919 285.361L273.482 273.702V238.444L278.467 240.241V270.39L302.919 279.781V285.361Z" fill="#F985A0"/>
<path d="M302.374 273.271L281.512 266.692V215.937L302.921 223.524V229.249L286.497 223.058V264.347L302.921 270.072L302.374 273.271Z" fill="#B9D5FD"/>
<path d="M302.374 262.047L290.881 258.951V230.622L302.923 234.8V240.386L295.689 237.57V256.37L302.923 259.504L302.374 262.047Z" fill="#B9D5FD"/>
<path d="M302.923 264L290.881 259.315V244.859L295.689 246.601V256.008L302.923 258.35V264Z" fill="#F985A0"/>
<path d="M302.921 274.681L281.512 266.835V241.425L286.497 243.275V263.525L302.921 269.103V274.681Z" fill="#F985A0"/>
<path d="M194.54 289.83L169.117 280.238V249.313L194.54 258.904V289.83Z" fill="#053866"/>
<path d="M185.174 286.286L169.117 280.238V259.994L185.174 266.38V286.286Z" fill="#709FDC"/>
<path d="M269.47 170.809L257.234 191.905L236.019 168.942L248.255 147.847L269.47 170.809Z" fill="#C43B55"/>
<path d="M261.444 170.325L255.045 181.225L244.049 169.381L250.401 158.528L261.444 170.325Z" fill="#911A31"/>
<path d="M269.47 317.89L236.019 305.067V272.497L269.47 285.274V317.89Z" fill="#C43B55"/>
<path d="M269.47 317.62L236.019 304.46V280.238L269.47 293.35V317.62Z" fill="#911A31"/>
<path d="M269.47 317.563L236.019 304.47V289.527L269.47 302.573V317.563Z" fill="#053866"/>
<path d="M269.47 318.068L236.019 305.302V298.041L269.47 310.76V318.068Z" fill="#0E2951"/>
<path d="M202.57 181.225L236.021 193.699L202.57 203.462L236.021 215.937L202.57 181.225Z" fill="#911A31"/>
<path d="M173.131 201.251L169.117 199.612V158.528L173.131 160.168V201.251Z" fill="#FF8098"/>
<path d="M179.821 202.586L175.808 200.999V161.198L179.821 162.83V202.586Z" fill="#FF8098"/>
<path d="M201.229 210.596L195.878 209.007V169.208L201.229 170.796V210.596Z" fill="#FF8098"/>
<path d="M193.201 207.926L189.188 206.337V166.538L193.201 168.126V207.926Z" fill="#FF8098"/>
<path d="M186.513 205.256L182.499 203.668V163.868L186.513 165.457V205.256Z" fill="#FF8098"/>
<path d="M202.568 251.985L169.117 239.201V198.581L202.568 211.318V251.985Z" fill="#0E2951"/>
<path d="M202.568 251.984L185.174 245.598V225.282L202.568 231.669V251.984Z" fill="#3D95D1"/>
<path d="M185.174 225.283L169.117 218.885V198.581L185.174 204.64V225.283Z" fill="#3D95D1"/>
<path fill-rule="evenodd" clip-rule="evenodd" d="M206.584 258.66L230.835 268.198L229.548 271.718L210.213 264.114V287.45L228.377 294.594V277.078L214.316 271.541V284.014L224.274 287.945V280.423L218.374 278.096V280.667L222.674 282.361L221.386 285.881L214.745 283.266V272.637L227.903 277.826V293.405L210.686 286.611V266.084L232.006 274.48V300.048L206.584 290.05V258.66Z" fill="#3D95D1"/>
<path fill-rule="evenodd" clip-rule="evenodd" d="M300.243 295.976L277.462 317.403L273.482 313.465L296.262 292.037L300.243 295.976Z" fill="#0E2951"/>
<path fill-rule="evenodd" clip-rule="evenodd" d="M278.251 284.026L300.243 322.632L295.474 325.414L273.482 286.808L278.251 284.026Z" fill="#0E2951"/>
<path d="M248.06 243.974L242.708 241.739V234.628L248.06 236.863V243.974Z" fill="#B9D5FD"/>
<path d="M254.749 255.989L249.398 253.766V246.644L254.749 248.866V255.989Z" fill="#B9D5FD"/>
<path d="M262.779 266.671L257.427 264.755V258.66L262.779 260.576V266.671Z" fill="#B9D5FD"/>
<path d="M303.147 168.386L438.06 117.141V279.608L302.919 330.755L303.147 168.386Z" fill="#053866"/>
<path d="M404.611 211.353L438.062 198.581V239.212L404.611 251.984V211.353Z" fill="#B9D5FD"/>
<path d="M369.822 224.396L404.611 211.932V251.582L369.822 264V224.396Z" fill="#C43B55"/>
<path d="M336.375 236.73L369.826 223.947V264.567L336.375 277.35V236.73Z" fill="#053866"/>
<path d="M302.922 249.288L336.372 237.263V277.778L302.922 290.702V249.288Z" fill="#132F7C"/>
<path d="M369.822 183.328L404.61 170.544V212.121L369.822 224.506V183.328Z" fill="#FF8098"/>
<path d="M336.375 196.679L369.826 183.895V224.515L336.375 237.299V196.679Z" fill="#0E2951"/>
<path d="M302.922 208.834L336.372 195.91V236.39L302.922 249.314V208.834Z" fill="#053866"/>
<path d="M369.826 263.983L404.668 251.577L404.436 292.236L369.826 305.428V263.983Z" fill="#0E2951"/>
<path d="M336.375 277.529L369.826 264.001V305.434L336.375 318.055V277.529Z" fill="#709FDC"/>
<path d="M302.921 290.475L336.372 277.529V318.079L302.921 330.752V290.475Z" fill="#911A31"/>
<path d="M404.609 129.96L438.06 117.141V157.772L404.609 170.545V129.96Z" fill="#C43B55"/>
<path d="M369.819 143.276L404.607 130.492V171.112L369.819 183.896V143.276Z" fill="#053866"/>
<path d="M336.368 156.306L369.819 143.842V183.447L336.368 195.911V156.306Z" fill="#FF8098"/>
<path d="M303.103 168.367L336.37 155.858V196.338L302.92 209.262L303.103 168.367Z" fill="#3D95D1"/>
<path d="M302.915 285.326V279.83L327.421 269.952V210.918L303.318 219.743L301.58 215.262L332.354 203.922V273.244L302.915 285.326Z" fill="#B9D5FD"/>
<path d="M332.356 238.862L327.425 240.5V210.957L302.92 220.05V214.443L332.356 203.922V238.862Z" fill="#F985A0"/>
<path d="M302.92 274.681V269.068L319.535 262.314V222.612L302.92 229.046V223.433L324.328 217.273V265.646L302.92 274.681Z" fill="#B9D5FD"/>
<path d="M302.915 264.039V258.347L310.115 255.88V237.407L303.287 239.905L301.58 235.532L314.96 230.624V259.138L302.915 264.039Z" fill="#B9D5FD"/>
<path d="M314.962 245.074L310.106 246.645V237.445L302.92 240.374V234.792L314.962 230.624V245.074Z" fill="#F985A0"/>
<path d="M324.328 241.673L319.535 243.275V222.811L302.92 229.234V223.523L324.328 215.937V241.673Z" fill="#F985A0"/>
<path d="M420.664 123.562L438.058 117.141V137.468L420.664 143.843V123.562Z" fill="#FF8098"/>
<path d="M336.368 302.827L348.612 273.346L369.819 279.913L357.575 309.394L336.368 302.827Z" fill="#0E2951"/>
<path d="M344.396 296.642L350.742 281.357L361.79 284.764L355.396 300.048L344.396 296.642Z" fill="#6780B3"/>
<path d="M336.368 156.289L369.819 143.842V175.499L336.368 187.9V156.289Z" fill="#C43B55"/>
<path d="M336.368 156.533L369.819 143.842V167.246L336.368 179.89V156.533Z" fill="#911A31"/>
<path d="M336.368 156.312L369.819 143.842V158.119L336.368 170.544V156.312Z" fill="#053866"/>
<path d="M336.368 156.578L369.819 143.842V151.133L336.368 163.869V156.578Z" fill="#0E2951"/>
<path d="M404.607 242.181L369.819 254.656L404.607 219.943L369.819 232.418" fill="#911A31"/>
<path d="M438.056 239.697L432.705 241.304V200.235L438.056 198.582V239.697Z" fill="#709FDC"/>
<path d="M431.366 241.477L426.085 243.47L426.015 202.84L431.366 201.252V241.477Z" fill="#709FDC"/>
<path d="M411.295 249.062L405.982 251.21L405.944 210.851L411.195 209.262L411.295 249.062Z" fill="#709FDC"/>
<path d="M417.988 246.391L412.637 248.888V208.18L417.988 206.592V246.391Z" fill="#709FDC"/>
<path d="M424.677 243.721L419.326 247.155V205.51L424.677 203.922V243.721Z" fill="#709FDC"/>
<path d="M404.609 171.312L438.06 158.529V199.149L404.609 211.932V171.312Z" fill="#0E2951"/>
<path d="M404.609 251.418L438.06 238.634V279.254L404.609 292.038V251.418Z" fill="#053866"/>
<path d="M404.609 171.271L420.666 165.204V184.504L404.609 190.571V171.271Z" fill="#911A31"/>
<path d="M408.688 290.688L404.436 292.236C404.436 264.872 419.962 248.053 438.06 241.304V245.345C421.73 251.451 408.688 272.185 408.688 290.688Z" fill="#B9D5FD"/>
<path d="M417.967 287.204L412.941 289.139C412.941 269.6 424.367 254.42 438.059 249.315V254.188C426.096 258.69 417.967 272.863 417.967 287.204Z" fill="#3D95D1"/>
<path d="M426.085 284.108L422.219 285.656C422.219 273.794 428.928 261.992 438.057 258.564V263.171C430.946 265.878 426.085 275.583 426.085 284.108Z" fill="#3376B3"/>
<path d="M434.121 281.086L430.338 282.56C429.524 276.135 433.14 269.735 438.07 267.853L438.056 273.055C434.981 274.202 434.121 277.185 434.121 281.086Z" fill="#709FDC"/>
<path fill-rule="evenodd" clip-rule="evenodd" d="M400.593 135.832V167.936L376.406 177.22L375.06 173.618L396.793 165.276V141.409L377.633 148.763V166.683L392.496 161.008V148.247L381.929 152.281V159.928L388.154 157.541V154.958L385 156.171L383.651 152.571L391.954 149.377V160.201L378.129 165.503V149.617L396.297 142.681V163.672L373.833 172.249V146.104L400.593 135.832Z" fill="#F985A0"/>
<path fill-rule="evenodd" clip-rule="evenodd" d="M305.594 201.038L328.717 161.199L333.693 164.083L310.57 203.922L305.594 201.038Z" fill="#0E2951"/>
<path fill-rule="evenodd" clip-rule="evenodd" d="M328.409 195.911L305.594 173.377L309.54 169.209L332.355 191.744L328.409 195.911Z" fill="#0E2951"/>
<path d="M357.778 214.167L363.129 211.932V219.043L357.778 221.278V214.167Z" fill="#B9D5FD"/>
<path d="M351.089 208.497L356.44 206.592V212.697L351.089 214.602V208.497Z" fill="#911A31"/>
<path d="M343.057 201.832L348.409 199.916V206.011L343.057 207.927V201.832Z" fill="#911A31"/>
<path d="M412.637 127.099L438.059 117.141V148.666L412.637 158.529V127.099Z" fill="#053866"/>
<path d="M420.664 184.952L438.058 178.555V199.349L420.673 205.753L420.664 184.952Z" fill="#911A31"/>
<path opacity="0.3" d="M169.661 117.647L303 168.145V330.929L169.065 280.43L169.661 117.647Z" fill="black"/>
<path d="M487.569 67.6943L437.298 117.141L303 66.5544L353.145 17.0093L487.569 67.6943Z" fill="#084C80"/>
<path d="M303.147 168.386L252.818 218.607L118.273 168.126L169.922 117.764L303.147 168.386Z" fill="#094573"/>
<path d="M302.999 66.5544L253.596 16.65L119.218 67.5226L169.397 118.117L302.999 66.5544Z" fill="#084C80"/>
<path d="M487.569 167.081L437.386 117.14L302.921 168.433L353.38 218.607L487.569 167.081Z" fill="#084C80"/>
</g>
</g>
<defs>
<filter id="filter0_d" x="68.6154" y="189.012" width="470.923" height="184.213" filterUnits="userSpaceOnUse" color-interpolation-filters="sRGB">
<feFlood flood-opacity="0" result="BackgroundImageFix"/>
<feColorMatrix in="SourceAlpha" type="matrix" values="0 0 0 0 0 0 0 0 0 0 0 0 0 0 0 0 0 0 127 0"/>
<feOffset dx="2" dy="2"/>
<feGaussianBlur stdDeviation="2"/>
<feColorMatrix type="matrix" values="0 0 0 0 0 0 0 0 0 0 0 0 0 0 0 0 0 0 0.1 0"/>
<feBlend mode="normal" in2="BackgroundImageFix" result="effect1_dropShadow"/>
<feBlend mode="normal" in="SourceGraphic" in2="effect1_dropShadow" result="shape"/>
</filter>
<filter id="filter1_f" x="114.538" y="202.663" width="215.245" height="82.5082" filterUnits="userSpaceOnUse" color-interpolation-filters="sRGB">
<feFlood flood-opacity="0" result="BackgroundImageFix"/>
<feBlend mode="normal" in="SourceGraphic" in2="BackgroundImageFix" result="shape"/>
<feGaussianBlur stdDeviation="2.5" result="effect1_foregroundBlur"/>
</filter>
<filter id="filter2_f" x="130" y="40" width="345" height="292" filterUnits="userSpaceOnUse" color-interpolation-filters="sRGB">
<feFlood flood-opacity="0" result="BackgroundImageFix"/>
<feBlend mode="normal" in="SourceGraphic" in2="BackgroundImageFix" result="shape"/>
<feGaussianBlur stdDeviation="40" result="effect1_foregroundBlur"/>
</filter>
<linearGradient id="paint0_linear" x1="293.538" y1="224.313" x2="223.904" y2="150.329" gradientUnits="userSpaceOnUse">
<stop/>
<stop offset="0.978163" stop-color="#FEF4F7" stop-opacity="0"/>
</linearGradient>
<radialGradient id="paint1_radial" cx="0" cy="0" r="1" gradientUnits="userSpaceOnUse" gradientTransform="translate(301.437 163.241) rotate(90) scale(52.3448 73.3621)">
<stop stop-color="#0095FF"/>
<stop offset="1" stop-color="#BCE3FF"/>
</radialGradient>
<clipPath id="clip0">
<rect width="600" height="370" fill="white"/>
</clipPath>
<clipPath id="clip1">
<rect width="433.389" height="314.279" fill="white" transform="translate(54.1785 16.65)"/>
</clipPath>
</defs>
</svg>
