<svg width="650" height="400" viewBox="0 0 650 400" fill="none" xmlns="http://www.w3.org/2000/svg">
<g filter="url(#filter0_d)">
<path d="M326.805 379L640 259.805L326.805 138L11 259.805L326.805 379Z" fill="#FFF5F7"/>
</g>
<g filter="url(#filter1_f)">
<path d="M336.941 224.557L177.517 284.761L52.0003 238.983L210.536 181.557L336.941 224.557Z" fill="url(#paint0_linear)"/>
</g>
<path d="M314.16 338L172.904 284.586L172.855 113.438L314.16 166.852V338Z" fill="#053866"/>
<path d="M455.756 284.197L314.354 230.539L314.5 59.8295L456.048 113.292L455.756 284.197Z" fill="url(#paint1_linear)"/>
<path d="M314.111 338L455.999 284.002L456.048 113.292L314.16 166.852L314.111 338Z" fill="#054270"/>
<path d="M172.904 284.586L314.403 230.199L314.5 59.8295L172.855 113.438L172.904 284.586Z" fill="url(#paint2_linear)"/>
<path d="M314.111 338L172.904 284.586L172.855 113.438L314.16 166.852L314.111 338Z" fill="#053866"/>
<path d="M208.157 169.871L172.904 156.432L172.855 113.438L208.157 127.169V169.871Z" fill="#053866"/>
<path d="M182.289 154.777C179.077 154.858 175.883 154.278 172.904 153.073L172.807 148.496C180.052 151.271 187.005 150.735 192.354 147.035C198.724 142.653 202.76 135.398 202.76 124.881L207.039 126.585C207.039 138.563 203.489 145.282 195.952 150.492C191.907 153.212 187.161 154.701 182.289 154.777Z" fill="#FF8098"/>
<path d="M243.459 183.309L208.157 169.871V127.169L243.459 140.608V183.309Z" fill="#0E2951"/>
<path d="M278.712 196.748L243.459 183.309V140.608L278.712 153.998V196.748Z" fill="#FF8098"/>
<path d="M313.965 209.992L278.712 196.748V153.998L314.16 166.852L313.965 209.992Z" fill="#6780B3"/>
<path d="M208.157 212.573L172.904 199.183V156.432L208.157 169.871V212.573Z" fill="#911A31"/>
<path d="M243.459 226.012L208.157 212.573V169.871L243.459 183.31V226.012Z" fill="#C43B55"/>
<path d="M278.712 239.45L243.459 226.011V183.31L278.712 196.748V239.45Z" fill="#053866"/>
<path d="M313.966 252.694L278.713 239.45V196.748L313.966 209.992V252.694Z" fill="#132F7C"/>
<path d="M243.459 268.713L208.157 255.323V212.573L243.459 226.012V268.713Z" fill="#FF8098"/>
<path d="M278.712 282.152L243.459 268.714V226.012L278.712 239.45V282.152Z" fill="#0E2951"/>
<path d="M313.965 295.396L278.712 282.152V239.45L313.965 252.694V295.396Z" fill="#053866"/>
<path d="M208.157 298.025L172.904 284.586V241.885L208.157 255.323V298.025Z" fill="#6780B3"/>
<path d="M243.459 311.415L208.157 298.025V255.323L243.459 268.713V311.415Z" fill="#053866"/>
<path d="M278.712 324.853L243.459 311.415V268.713L278.712 282.152V324.853Z" fill="#FF8098"/>
<path d="M314.111 338L278.712 324.854V282.152L313.965 295.396L314.111 338Z" fill="#3D95D1"/>
<path d="M180.101 145.915C177.63 145.952 175.179 145.471 172.904 144.503V139.39C177.961 141.338 184.234 140.656 187.346 138.611C192.549 135.154 195.077 129.798 195.077 122.349L199.356 124.053C199.356 133.207 196.098 138.806 190.263 142.847C187.255 144.856 183.717 145.924 180.101 145.915Z" fill="#D6516B"/>
<path d="M177.572 136.031C175.973 136.062 174.384 135.764 172.904 135.154V130.042C175.919 131.21 180.587 130.918 183.164 128.338C185.839 125.66 186.568 123.469 186.568 118.94L190.847 120.644C190.847 126.877 188.707 131.113 184.672 133.888C182.571 135.294 180.099 136.04 177.572 136.031Z" fill="#C43B55"/>
<path d="M175.238 126.146C174.435 126.215 173.628 126.063 172.904 125.708V120.596C173.682 120.888 176.211 121.083 177.183 120.596C178.885 119.719 178.885 118.015 178.059 115.483L183.164 117.187C183.164 120.742 181.9 123.225 179.517 124.88C178.24 125.701 176.756 126.14 175.238 126.146Z" fill="#A62E41"/>
<path d="M313.09 289.407L283.186 278.062V204.247L313.625 215.397V221.386L288.34 211.648V274.507L312.798 283.759L313.09 289.407Z" fill="#A7C3EE"/>
<path d="M313.625 290.575L283.186 278.062V240.424L288.34 242.128V274.507L313.625 284.586V290.575Z" fill="#F985A0"/>
<path d="M313.09 278.305L291.695 270.174V216.857L313.625 224.794V230.783L296.801 224.307V267.496L313.625 273.485L313.09 278.305Z" fill="#A7C3EE"/>
<path d="M313.089 268.08L300.836 263.406V232.293L313.624 236.772V242.761L305.942 239.742V259.9L313.624 263.26L313.089 268.08Z" fill="#A7C3EE"/>
<path d="M313.624 268.372L300.836 263.406V247.143L305.942 248.847V259.9L313.624 262.384V268.372Z" fill="#F985A0"/>
<path d="M313.625 279.474L291.695 271.05V243.637L296.801 245.341V267.496L313.625 273.485V279.474Z" fill="#F985A0"/>
<path d="M199.697 294.811L172.904 284.586V252.11L199.697 262.335V294.811Z" fill="#053866"/>
<path d="M190.507 291.306L172.904 284.586V263.211L190.507 269.931V291.306Z" fill="#709FDC"/>
<path d="M278.566 169.627L265.777 191.635L243.604 167.68L256.393 145.671L278.566 169.627Z" fill="#C43B55"/>
<path d="M270.008 169.14L263.444 180.388L252.163 168.167L258.679 156.968L270.008 169.14Z" fill="#911A31"/>
<path d="M278.712 324.854L243.459 311.415V277.283L278.712 290.673V324.854Z" fill="#C43B55"/>
<path d="M278.712 324.854L243.459 311.415V286.68L278.712 300.07V324.854Z" fill="#911A31"/>
<path d="M278.712 324.854L243.459 311.415V296.078L278.712 309.467V324.854Z" fill="#053866"/>
<path d="M278.712 324.853L243.459 311.415V303.77L278.712 317.16V324.853Z" fill="#0E2951"/>
<path d="M208.157 180.096L243.459 193.534L208.157 204.052L243.459 217.49L208.157 180.096Z" fill="#911A31"/>
<path d="M177.135 200.887L172.904 199.183V156.481L177.135 158.185V200.887Z" fill="#FF8098"/>
<path d="M183.991 203.468L179.712 201.763V159.013L183.991 160.766V203.468Z" fill="#FF8098"/>
<path d="M206.163 211.988L201.884 210.284V167.582L206.163 169.286V211.988Z" fill="#FF8098"/>
<path d="M198.724 208.872L193.618 207.168V164.466L198.724 166.17V208.872Z" fill="#FF8098"/>
<path d="M190.799 205.999L186.52 204.295V161.593L190.799 163.297V205.999Z" fill="#FF8098"/>
<path d="M208.157 255.323L172.904 241.885V199.183L208.157 212.573V255.323Z" fill="#0E2951"/>
<path d="M208.157 255.323L190.506 248.604V227.229L208.157 233.948V255.323Z" fill="#3D95D1"/>
<path d="M190.507 227.229L172.904 220.509V199.183L190.507 205.902V227.229Z" fill="#3D95D1"/>
<path d="M228.822 288.433L222.793 286.145V279.133L233.296 283.126V295.396L218.319 289.699V272.17L237.818 279.571V302.456L213.797 293.351V264.282L237.818 273.388" stroke="#3D95D1" stroke-width="4" stroke-miterlimit="10"/>
<path d="M285.082 322.176L309.054 298.804" stroke="#0E2951" stroke-width="6" stroke-miterlimit="10"/>
<path d="M309.054 331.281L285.082 289.699" stroke="#0E2951" stroke-width="6" stroke-miterlimit="10"/>
<path d="M256.149 246.218L250.509 244.076V237.259L256.149 239.401V246.218Z" fill="#B9D5FD"/>
<path d="M263.882 258.586L258.241 256.443V249.578L263.882 251.72V258.586Z" fill="#B9D5FD"/>
<path d="M271.662 270.904L266.021 268.762V261.945L271.662 264.088V270.904Z" fill="#B9D5FD"/>
<path d="M314.16 166.852L456.048 113.292V284.197L314.111 338L314.16 166.852Z" fill="#053866"/>
<path d="M420.551 212.183L456.047 198.744V241.495L420.551 254.933V212.183Z" fill="#B9D5FD"/>
<path d="M385.006 225.622L420.551 212.183V254.934L385.006 268.324V225.622Z" fill="#C43B55"/>
<path d="M349.51 239.06L385.006 225.622V268.323L349.51 281.762V239.06Z" fill="#053866"/>
<path d="M313.965 252.694L349.51 239.06V281.762L313.965 295.396V252.694Z" fill="#132F7C"/>
<path d="M385.006 182.92L420.551 169.481V212.183L385.006 225.622V182.92Z" fill="#FF8098"/>
<path d="M349.51 196.359L385.006 182.92V225.622L349.51 239.06V196.359Z" fill="#0E2951"/>
<path d="M313.965 209.992L349.51 196.358V239.06L313.965 252.694V209.992Z" fill="#053866"/>
<path d="M385.006 268.323L420.551 254.933V297.635L385.006 311.074V268.323Z" fill="#0E2951"/>
<path d="M349.51 281.762L385.006 268.323V311.074L349.51 324.464V281.762Z" fill="#709FDC"/>
<path d="M313.965 295.395L349.51 281.762V324.464L314.111 338L313.965 295.395Z" fill="#911A31"/>
<path d="M420.551 126.779L456.047 113.292V156.043L420.551 169.481V126.779Z" fill="#C43B55"/>
<path d="M385.006 140.218L420.551 126.779V169.481L385.006 182.92V140.218Z" fill="#053866"/>
<path d="M349.51 153.657L385.006 140.218V182.92L349.51 196.358V153.657Z" fill="#FF8098"/>
<path d="M314.159 166.852L349.51 153.657V196.358L313.965 209.992L314.159 166.852Z" fill="#3D95D1"/>
<path d="M313.625 290.575V284.586L339.834 274.166V211.307L314.889 220.704L313.09 215.932L344.939 203.857V277.672L313.625 290.575Z" fill="#B9D5FD"/>
<path d="M344.939 241.738L339.834 243.442V211.307L313.625 221.386V215.397L344.939 203.857V241.738Z" fill="#F985A0"/>
<path d="M313.625 279.474V273.485L331.324 266.279V223.918L313.625 230.783V224.794L336.43 218.221V269.833L313.625 279.474Z" fill="#B9D5FD"/>
<path d="M313.625 268.372V262.383L322.085 259.51V239.352L314.889 242.079L313.09 237.307L327.191 231.951V263.065L313.625 268.372Z" fill="#B9D5FD"/>
<path d="M327.191 247.63L322.086 249.334V239.352L313.625 242.761V236.772L327.191 231.951V247.63Z" fill="#F985A0"/>
<path d="M336.43 244.952L331.324 246.705V223.917L313.625 230.783V224.794L336.43 216.516V244.952Z" fill="#F985A0"/>
<path d="M438.299 120.06L456.047 113.292V134.716L438.299 141.435V120.06Z" fill="#FF8098"/>
<path d="M349.656 308.737L362.542 277.039L384.861 284.099L371.975 315.797L349.656 308.737Z" fill="#0E2951"/>
<path d="M358.263 302.699L364.827 286.534L376.254 290.137L369.641 306.302L358.263 302.699Z" fill="#6780B3"/>
<path d="M349.51 153.657L385.006 140.218V174.399L349.51 187.789V153.657Z" fill="#C43B55"/>
<path d="M349.51 153.657L385.006 140.218V165.002L349.51 178.392V153.657Z" fill="#911A31"/>
<path d="M349.51 153.657L385.006 140.218V155.604L349.51 168.994V153.657Z" fill="#053866"/>
<path d="M349.51 153.657L385.006 140.218V147.911L349.51 161.35V153.657Z" fill="#0E2951"/>
<path d="M420.551 244.708L385.006 258.147L420.551 220.753L385.006 234.191" fill="#911A31"/>
<path d="M456.096 241.885L450.99 243.589V200.059L456.096 198.306V241.885Z" fill="#709FDC"/>
<path d="M449.386 244.124L444.231 245.828V203.127L449.386 201.422V244.124Z" fill="#709FDC"/>
<path d="M428.04 252.158L422.934 253.862L422.837 211.16L427.943 209.456L428.04 252.158Z" fill="#709FDC"/>
<path d="M435.139 249.48L430.033 251.184V208.482L435.139 206.778V249.48Z" fill="#709FDC"/>
<path d="M442.286 246.802L437.132 248.506V205.805L442.286 204.1V246.802Z" fill="#709FDC"/>
<path d="M420.551 169.481L456.047 156.043V198.744L420.551 212.183V169.481Z" fill="#0E2951"/>
<path d="M420.551 254.934L456.047 241.495V284.197L420.551 297.635V254.934Z" fill="#053866"/>
<path d="M420.551 169.481L438.299 162.762V184.137L420.551 190.857V169.481Z" fill="#911A31"/>
<path d="M425.414 295.688L421.135 297.392C421.135 268.372 437.181 250.746 456.096 243.589V247.874C439.029 254.349 425.414 276.065 425.414 295.688Z" fill="#B9D5FD"/>
<path d="M434.798 292.279L429.692 293.984C429.692 273.485 441.897 257.319 456.144 251.963V257.076C443.696 261.799 434.798 277.234 434.798 292.279Z" fill="#3D95D1"/>
<path d="M443.842 288.871L439.077 290.575C439.077 277.769 446.322 265.451 455.999 261.75L456.096 266.619C448.559 269.541 443.842 279.668 443.842 288.871Z" fill="#3376B3"/>
<path d="M451.866 285.463L447.587 287.167C446.711 280.35 450.699 273.582 455.999 271.586L456.096 276.942C452.79 278.159 451.866 281.324 451.866 285.463Z" fill="#709FDC"/>
<path d="M399.74 152.099L405.769 149.81V156.773L395.217 160.766V148.544L410.34 142.848V160.376L390.695 167.777V144.893L414.862 135.739V164.807L390.695 173.961" stroke="#F985A0" stroke-width="4" stroke-miterlimit="10"/>
<path d="M343.092 161.204L318.974 202.786" stroke="#0E2951" stroke-width="6" stroke-miterlimit="10"/>
<path d="M318.974 170.309L343.092 193.632" stroke="#0E2951" stroke-width="6" stroke-miterlimit="10"/>
<path d="M372.218 215.104L377.907 212.962V219.779L372.218 221.921V215.104Z" fill="#911A31"/>
<path d="M364.438 208.628L370.078 206.486V213.351L364.438 215.494V208.628Z" fill="#911A31"/>
<path d="M356.609 202.201L362.298 200.059V206.876L356.609 209.018V202.201Z" fill="#911A31"/>
<path d="M429.061 123.566L456.047 113.292V145.817L429.061 155.994V123.566Z" fill="#053866"/>
<path d="M438.299 184.137L456.047 177.418V198.744L438.299 205.464V184.137Z" fill="#911A31"/>
<path d="M509 60.8033L456.047 113.292L314.5 59.8295L367.404 7L509 60.8033Z" fill="#005BA0"/>
<path d="M314.257 166.901L261.547 219.195L120 165.878L172.855 113.438L314.257 166.901Z" fill="#004376"/>
<path d="M314.5 59.8295L261.547 7L120 60.3651L172.855 113.438L314.5 59.8295Z" fill="#005BA0"/>
<path d="M509 165.44L456.047 113.292L314.159 166.852L367.404 219.243L509 165.44Z" fill="#005BA0"/>
<defs>
<filter id="filter0_d" x="9" y="136" width="637" height="249" filterUnits="userSpaceOnUse" color-interpolation-filters="sRGB">
<feFlood flood-opacity="0" result="BackgroundImageFix"/>
<feColorMatrix in="SourceAlpha" type="matrix" values="0 0 0 0 0 0 0 0 0 0 0 0 0 0 0 0 0 0 127 0"/>
<feOffset dx="2" dy="2"/>
<feGaussianBlur stdDeviation="2"/>
<feColorMatrix type="matrix" values="0 0 0 0 0 0 0 0 0 0 0 0 0 0 0 0 0 0 0.1 0"/>
<feBlend mode="normal" in2="BackgroundImageFix" result="effect1_dropShadow"/>
<feBlend mode="normal" in="SourceGraphic" in2="effect1_dropShadow" result="shape"/>
</filter>
<filter id="filter1_f" x="47" y="140" width="295.461" height="184.956" filterUnits="userSpaceOnUse" color-interpolation-filters="sRGB">
<feFlood flood-opacity="0" result="BackgroundImageFix"/>
<feBlend mode="normal" in="SourceGraphic" in2="BackgroundImageFix" result="shape"/>
<feGaussianBlur stdDeviation="2.5" result="effect1_foregroundBlur"/>
</filter>
<linearGradient id="paint0_linear" x1="328.5" y1="286.5" x2="255" y2="127" gradientUnits="userSpaceOnUse">
<stop offset="0.0960889"/>
<stop offset="0.978163" stop-color="white" stop-opacity="0"/>
</linearGradient>
<linearGradient id="paint1_linear" x1="437.5" y1="107.5" x2="435.738" y2="162.212" gradientUnits="userSpaceOnUse">
<stop stop-color="#034D85"/>
<stop offset="1" stop-color="#07497B"/>
</linearGradient>
<linearGradient id="paint2_linear" x1="172.824" y1="105.736" x2="267.819" y2="165.352" gradientUnits="userSpaceOnUse">
<stop stop-color="#034F89"/>
<stop offset="1" stop-color="#014070"/>
</linearGradient>
</defs>
</svg>
