<svg width="650" height="400" viewBox="0 0 650 400" fill="none" xmlns="http://www.w3.org/2000/svg">
<g filter="url(#filter0_d)">
<path d="M326.805 379L640 259.805L326.805 138L11 259.805L326.805 379Z" fill="#FFF5F7"/>
</g>
<g clip-path="url(#clip0)">
<g filter="url(#filter1_f)">
<path d="M337.348 224.457L177.697 284.541L52.0003 238.855L210.763 181.542L337.348 224.457Z" fill="url(#paint0_linear)"/>
</g>
<path d="M314.292 337.816L173.248 284.638L173.199 114.243L314.292 167.422V337.816Z" fill="#053866"/>
<path d="M456.504 284.384L314.294 230.58L314.377 59.5595L456.797 113.013L456.504 284.384Z" fill="#083556"/>
<path d="M314.294 337.816L456.749 283.753L456.797 112.837L314.343 166.461L314.294 337.816Z" fill="#054270"/>
<path d="M173.248 284.384L314.376 232.881V59.5595L173.199 113.066L173.248 284.384Z" fill="#063D66"/>
<g filter="url(#filter2_f)">
<ellipse cx="313.75" cy="212.858" rx="97.2925" ry="96.9849" fill="url(#paint1_radial)"/>
</g>
<path d="M314.247 337.816L173.252 284.638L173.203 114.243L314.296 167.422L314.247 337.816Z" fill="#053866"/>
<path d="M208.476 170.488L173.252 157.094L173.203 114.243L208.476 127.928V170.488Z" fill="#053866"/>
<path d="M182.581 155.013C179.404 155.093 176.244 154.521 173.297 153.33L173.201 148.811C180.368 151.551 187.246 151.022 192.537 147.368C198.838 143.041 202.831 135.877 202.831 125.492L207.063 127.175C207.063 139.002 203.552 145.637 196.097 150.782C192.095 153.468 187.4 154.938 182.581 155.013Z" fill="#FF8098"/>
<path d="M243.75 183.143L208.477 169.679V126.898L243.75 140.362V183.143Z" fill="#0E2951"/>
<path d="M279.021 197.204L243.748 183.74V140.959L279.021 154.374V197.204Z" fill="#FF8098"/>
<path d="M314.1 209.859L279.021 196.556V153.614L314.294 166.526L314.1 209.859Z" fill="#911A31"/>
<path d="M208.474 212.672L173.201 199.257V156.427L208.474 169.89V212.672Z" fill="#911A31"/>
<path d="M243.75 225.327L208.477 212.2V170.488L243.75 183.615V225.327Z" fill="#C43B55"/>
<path d="M279.021 239.387L243.748 225.924V183.142L279.021 196.606V239.387Z" fill="#053866"/>
<path d="M314.294 252.043L279.021 239.061V197.204L314.294 210.186V252.043Z" fill="#132F7C"/>
<path d="M243.75 268.916L208.477 255.501V212.671L243.75 226.135V268.916Z" fill="#FF8098"/>
<path d="M279.024 281.571L243.751 268.107V225.326L279.024 238.79V281.571Z" fill="#0E2951"/>
<path d="M314.299 295.633L279.026 282.318V239.388L314.299 252.703V295.633Z" fill="#053866"/>
<path d="M208.474 298.445L173.201 284.981V242.2L208.474 255.663V298.445Z" fill="#C43B55"/>
<path d="M243.75 311.1L208.477 297.673V254.855L243.75 268.281V311.1Z" fill="#053866"/>
<path d="M279.021 325.161L243.748 311.698V268.916L279.021 282.38V325.161Z" fill="#FF8098"/>
<path d="M314.294 337.816L279.021 324.577V281.572L314.148 294.909L314.294 337.816Z" fill="#911A31"/>
<path d="M180.494 146.582C177.99 146.62 175.506 146.132 173.201 145.15V139.964C178.326 141.94 184.683 141.248 187.837 139.174C193.11 135.668 195.672 130.236 195.672 122.68L200.009 124.408C200.009 133.693 196.707 139.372 190.794 143.471C187.744 145.508 184.159 146.591 180.494 146.582Z" fill="#D6516B"/>
<path d="M177.973 136.739C176.338 136.772 174.714 136.453 173.201 135.801V130.334C176.283 131.584 181.055 131.271 183.689 128.511C186.423 125.647 187.169 123.304 187.169 118.462L191.543 120.284C191.543 126.949 189.356 131.48 185.23 134.448C183.083 135.951 180.556 136.749 177.973 136.739Z" fill="#C43B55"/>
<path d="M175.448 126.881C174.675 126.953 173.898 126.794 173.201 126.419V121.034C173.95 121.342 176.384 121.547 177.32 121.034C178.959 120.111 178.959 118.316 178.163 115.649L183.078 117.444C183.078 121.188 181.861 123.804 179.567 125.548C178.338 126.412 176.909 126.875 175.448 126.881Z" fill="#A62E41"/>
<path d="M313.747 288.602L283.252 277.362V204.234L314.292 215.281V221.214L288.508 211.567V273.841L313.449 283.006L313.747 288.602Z" fill="#C43B55"/>
<path d="M314.292 290.008L283.252 277.728V240.793L288.508 242.466V274.24L314.292 284.131V290.008Z" fill="#F985A0"/>
<path d="M313.744 278.759L291.72 270.572V216.889L314.295 224.88V230.911L296.975 224.39V267.875L314.295 273.905L313.744 278.759Z" fill="#C43B55"/>
<path d="M313.766 267.51L301.599 262.918V232.356L314.297 236.757V242.639L306.668 239.674V259.475L314.297 262.775L313.766 267.51Z" fill="#C43B55"/>
<path d="M314.297 267.51L301.599 262.575V246.418L306.668 248.111V259.092L314.297 261.56V267.51Z" fill="#F985A0"/>
<path d="M314.295 278.759L291.72 270.496V243.606L296.975 245.278V267.01L314.295 272.884V278.759Z" fill="#F985A0"/>
<path d="M200.009 294.226L173.201 284.125V252.042L200.009 262.143V294.226Z" fill="#053866"/>
<path d="M190.132 291.413L173.201 284.687V263.291L190.132 270.017V291.413Z" fill="#FF8098"/>
<path d="M279.021 169.361L266.119 191.579L243.748 167.395L256.65 145.177L279.021 169.361Z" fill="#C43B55"/>
<path d="M270.558 168.851L263.811 180.331L252.216 167.857L258.913 156.427L270.558 168.851Z" fill="#911A31"/>
<path d="M279.021 325.161L243.748 311.656V277.353L279.021 290.81V325.161Z" fill="#C43B55"/>
<path d="M279.021 325.16L243.748 311.3V285.789L279.021 299.599V325.16Z" fill="#911A31"/>
<path d="M279.021 325.161L243.748 311.371V295.632L279.021 309.372V325.161Z" fill="#053866"/>
<path d="M279.021 325.161L243.748 311.716V304.069L279.021 317.464V325.161Z" fill="#0E2951"/>
<path d="M208.477 180.331L243.75 193.469L208.477 203.751L243.75 216.89L208.477 180.331Z" fill="#911A31"/>
<path d="M177.434 201.423L173.201 199.696V156.427L177.434 158.154V201.423Z" fill="#FF8098"/>
<path d="M184.49 202.828L180.257 201.157V159.239L184.49 160.957V202.828Z" fill="#FF8098"/>
<path d="M207.063 211.264L201.419 209.591V167.674L207.063 169.347V211.264Z" fill="#FF8098"/>
<path d="M198.597 208.452L194.364 206.779V164.863L198.597 166.535V208.452Z" fill="#FF8098"/>
<path d="M191.545 205.64L187.312 203.968V162.051L191.545 163.724V205.64Z" fill="#FF8098"/>
<path d="M208.474 254.855L173.201 241.392V198.61L208.474 212.025V254.855Z" fill="#0E2951"/>
<path d="M208.474 254.855L190.132 248.129V226.733L208.474 233.459V254.855Z" fill="#911A31"/>
<path d="M190.132 226.733L173.201 219.995V198.61L190.132 205.348V226.733Z" fill="#911A31"/>
<path fill-rule="evenodd" clip-rule="evenodd" d="M212.708 261.886L238.28 271.931L236.924 275.639L216.535 267.63V292.208L235.689 299.732V281.284L220.861 275.452V288.589L231.362 292.729V284.807L225.141 282.356V285.064L229.675 286.848L228.317 290.555L221.314 287.801V276.606L235.189 282.072V298.48L217.034 291.324V269.705L239.516 278.548V305.476L212.708 294.946V261.886Z" fill="#F985A0"/>
<path fill-rule="evenodd" clip-rule="evenodd" d="M311.47 301.187L287.449 323.755L283.252 319.607L307.273 297.039L311.47 301.187Z" fill="#0E2951"/>
<path fill-rule="evenodd" clip-rule="evenodd" d="M288.28 288.602L311.47 329.261L306.442 332.191L283.252 291.532L288.28 288.602Z" fill="#0E2951"/>
<path d="M256.445 246.419L250.802 244.065V236.576L256.445 238.929V246.419Z" fill="#911A31"/>
<path d="M263.499 259.073L257.855 256.732V249.23L263.499 251.571V259.073Z" fill="#911A31"/>
<path d="M271.966 270.323L266.322 268.305V261.886L271.966 263.904V270.323Z" fill="#911A31"/>
<path d="M314.343 166.462L456.797 112.838V283.949L314.294 337.817L314.343 166.462Z" fill="#053866"/>
<path d="M421.524 212.062L456.798 198.61V241.403L421.524 254.855V212.062Z" fill="#911A31"/>
<path d="M384.841 225.799L421.525 212.672V254.431L384.841 267.511V225.799Z" fill="#C43B55"/>
<path d="M349.57 238.79L384.843 225.326V268.107L349.57 281.571V238.79Z" fill="#053866"/>
<path d="M314.296 252.999L349.569 239.387V282.021L314.296 295.632V252.999Z" fill="#132F7C"/>
<path d="M384.84 182.546L421.524 169.082V211.864L384.84 225.327V182.546Z" fill="#FF8098"/>
<path d="M349.57 196.607L384.843 183.144V225.925L349.57 239.389V196.607Z" fill="#0E2951"/>
<path d="M314.296 209.41L349.569 195.798V238.431L314.296 252.043V209.41Z" fill="#053866"/>
<path d="M384.846 268.272L421.53 254.857V297.638L384.846 311.102V268.272Z" fill="#0E2951"/>
<path d="M349.57 280.975L384.843 267.512V310.342L349.57 323.757V280.975Z" fill="#FF8098"/>
<path d="M314.296 295.208L349.569 281.573V324.28L314.441 337.818L314.296 295.208Z" fill="#911A31"/>
<path d="M421.522 126.338L456.796 112.838V155.631L421.522 169.083V126.338Z" fill="#C43B55"/>
<path d="M384.837 140.363L421.521 126.899V169.68L384.837 183.144V140.363Z" fill="#053866"/>
<path d="M349.563 154.087L384.837 140.96V182.671L349.563 195.799V154.087Z" fill="#FF8098"/>
<path d="M314.487 166.789L349.567 153.615V196.248L314.294 209.86L314.487 166.789Z" fill="#911A31"/>
<path d="M313.425 290.009V284.085L340.129 273.779V211.604L314.713 220.899L312.88 216.179L345.331 204.235V277.246L313.425 290.009Z" fill="#C43B55"/>
<path d="M345.334 241.912L340.273 243.607V211.645L314.294 221.669V215.713L345.334 204.235V241.912Z" fill="#F985A0"/>
<path d="M314.294 278.76V272.848L331.815 265.735V223.92L314.294 230.697V224.785L336.869 218.297V269.244L314.294 278.76Z" fill="#C43B55"/>
<path d="M313.415 267.512V261.731L321.881 258.958V239.502L314.68 242.134L312.88 237.528L326.989 232.359V262.389L313.415 267.512Z" fill="#C43B55"/>
<path d="M326.992 247.578L322.213 249.232V239.543L314.294 242.851V237.038L326.992 232.359V247.578Z" fill="#F985A0"/>
<path d="M336.869 244.704L331.815 246.419V224.13L314.294 230.845V224.987L336.869 216.891V244.704Z" fill="#F985A0"/>
<path d="M438.453 119.601L456.795 112.838V134.246L438.453 140.96V119.601Z" fill="#FF8098"/>
<path d="M349.563 308.404L362.474 277.354L384.837 284.27L371.926 315.319L349.563 308.404Z" fill="#C43B55"/>
<path d="M358.028 301.888L364.721 285.791L376.37 289.379L369.628 305.476L358.028 301.888Z" fill="#911A31"/>
<path d="M349.563 154.068L384.837 140.96V174.301L349.563 187.362V154.068Z" fill="#C43B55"/>
<path d="M349.563 154.325L384.837 140.96V165.608L349.563 178.925V154.325Z" fill="#911A31"/>
<path d="M349.563 154.093L384.837 140.96V155.996L349.563 169.082V154.093Z" fill="#053866"/>
<path d="M349.563 154.373L384.837 140.96V148.638L349.563 162.052V154.373Z" fill="#0E2951"/>
<path d="M421.521 244.531L384.837 257.669L421.521 221.11L384.837 234.248" fill="#911A31"/>
<path d="M456.793 241.914L451.149 243.607V200.353L456.793 198.611V241.914Z" fill="#FF8098"/>
<path d="M449.739 243.34L444.096 245.013V203.096L449.739 201.423V243.34Z" fill="#FF8098"/>
<path d="M428.574 251.777L423.036 253.45L422.931 211.533L428.469 209.86L428.574 251.777Z" fill="#FF8098"/>
<path d="M435.631 248.964L429.987 250.637V208.72L435.631 207.047V248.964Z" fill="#FF8098"/>
<path d="M442.685 246.152L437.041 247.825V205.908L442.685 204.235V246.152Z" fill="#FF8098"/>
<path d="M421.522 169.891L456.796 156.428V199.209L421.522 212.673V169.891Z" fill="#0E2951"/>
<path d="M421.522 254.259L456.796 240.795V283.576L421.522 297.04V254.259Z" fill="#053866"/>
<path d="M421.522 169.848L438.454 163.458V183.785L421.522 190.175V169.848Z" fill="#911A31"/>
<path d="M425.84 295.347L421.522 297.04C421.522 268.22 437.712 250.715 456.796 243.607V247.862C439.576 254.294 425.84 275.86 425.84 295.347Z" fill="#FF8098"/>
<path d="M435.162 292.517L429.987 294.228C429.987 273.649 442.356 257.421 456.795 252.044V257.176C444.18 261.918 435.162 277.413 435.162 292.517Z" fill="#D6516B"/>
<path d="M444.602 288.347L439.861 290.009C439.861 277.516 447.069 265.497 456.696 261.887L456.792 266.637C449.294 269.488 444.602 279.369 444.602 288.347Z" fill="#C43B55"/>
<path d="M452.644 285.506L448.447 287.198C447.588 280.431 451.499 273.712 456.698 271.73L456.794 277.047C453.55 278.255 452.644 281.397 452.644 285.506Z" fill="#A62E41"/>
<path fill-rule="evenodd" clip-rule="evenodd" d="M417.288 132.523V166.335L391.783 176.113L390.363 172.32L413.281 163.534V138.397L393.077 146.142V165.015L408.75 159.039V145.599L397.607 149.848V157.901L404.171 155.387V152.667L400.845 153.945L399.423 150.153L408.178 146.789V158.189L393.6 163.772V147.041L412.757 139.737V161.845L389.069 170.877V143.341L417.288 132.523Z" fill="#F985A0"/>
<path fill-rule="evenodd" clip-rule="evenodd" d="M317.114 201.198L341.497 159.24L346.744 162.277L322.361 204.236L317.114 201.198Z" fill="#0E2951"/>
<path fill-rule="evenodd" clip-rule="evenodd" d="M341.172 195.799L317.114 172.065L321.275 167.676L345.333 191.41L341.172 195.799Z" fill="#0E2951"/>
<path d="M372.14 215.026L377.783 212.672V220.161L372.14 222.515V215.026Z" fill="#911A31"/>
<path d="M365.086 209.054L370.73 207.047V213.478L365.086 215.484V209.054Z" fill="#911A31"/>
<path d="M356.618 202.034L362.262 200.017V206.436L356.618 208.454V202.034Z" fill="#911A31"/>
<path d="M429.987 123.325L456.795 112.838V146.04L429.987 156.427V123.325Z" fill="#053866"/>
<path d="M438.452 184.256L456.794 177.519V198.903L438.452 205.641V184.256Z" fill="#911A31"/>
<path opacity="0.3" d="M173.773 113.371L314.376 166.556V338L173.146 284.815L173.773 113.371Z" fill="black"/>
<path d="M509.001 60.7613L455.992 112.839L314.377 59.5608L367.254 7.37959L509.001 60.7613Z" fill="#084C80"/>
<path d="M314.958 166.57L261.462 219.702L119.586 166.536L174.049 113.494L314.958 166.57Z" fill="#094573"/>
<path d="M314.377 59.5595L262.283 7L120.584 60.5793L173.496 113.865L314.377 59.5595Z" fill="#084C80"/>
<path d="M509.002 165.434L456.085 112.837L314.294 166.859L367.502 219.702L509.002 165.434Z" fill="#084C80"/>
</g>
<defs>
<filter id="filter0_d" x="9" y="136" width="637" height="249" filterUnits="userSpaceOnUse" color-interpolation-filters="sRGB">
<feFlood flood-opacity="0" result="BackgroundImageFix"/>
<feColorMatrix in="SourceAlpha" type="matrix" values="0 0 0 0 0 0 0 0 0 0 0 0 0 0 0 0 0 0 127 0"/>
<feOffset dx="2" dy="2"/>
<feGaussianBlur stdDeviation="2"/>
<feColorMatrix type="matrix" values="0 0 0 0 0 0 0 0 0 0 0 0 0 0 0 0 0 0 0.1 0"/>
<feBlend mode="normal" in2="BackgroundImageFix" result="effect1_dropShadow"/>
<feBlend mode="normal" in="SourceGraphic" in2="effect1_dropShadow" result="shape"/>
</filter>
<filter id="filter1_f" x="47" y="176.542" width="295.348" height="113" filterUnits="userSpaceOnUse" color-interpolation-filters="sRGB">
<feFlood flood-opacity="0" result="BackgroundImageFix"/>
<feBlend mode="normal" in="SourceGraphic" in2="BackgroundImageFix" result="shape"/>
<feGaussianBlur stdDeviation="2.5" result="effect1_foregroundBlur"/>
</filter>
<filter id="filter2_f" x="136.457" y="35.8733" width="354.585" height="353.97" filterUnits="userSpaceOnUse" color-interpolation-filters="sRGB">
<feFlood flood-opacity="0" result="BackgroundImageFix"/>
<feBlend mode="normal" in="SourceGraphic" in2="BackgroundImageFix" result="shape"/>
<feGaussianBlur stdDeviation="40" result="effect1_foregroundBlur"/>
</filter>
<linearGradient id="paint0_linear" x1="328.895" y1="286.277" x2="255.704" y2="126.903" gradientUnits="userSpaceOnUse">
<stop offset="0.0960889"/>
<stop offset="0.978163" stop-color="#B4D1FA" stop-opacity="0"/>
</linearGradient>
<radialGradient id="paint1_radial" cx="0" cy="0" r="1" gradientUnits="userSpaceOnUse" gradientTransform="translate(312.631 179.415) rotate(90) scale(76.919 77.163)">
<stop stop-color="#0095FF"/>
<stop offset="1" stop-color="#BCE3FF"/>
</radialGradient>
<clipPath id="clip0">
<rect width="457" height="331" fill="white" transform="translate(52 7)"/>
</clipPath>
</defs>
</svg>
