<svg width="240" height="160" viewBox="0 0 240 160" fill="none" xmlns="http://www.w3.org/2000/svg">
<path d="M93.6147 160L13.2847 129.938L13.2578 33.559L93.6417 63.6474L93.6147 160Z" fill="#053866"/>
<path d="M174.161 129.698L93.75 99.5031L93.8308 3.36438L174.322 33.4528L174.161 129.698Z" fill="#102E5B"/>
<path d="M93.6152 160L174.322 129.591V33.4525L93.6422 63.6477L93.6152 160Z" fill="#054270"/>
<path d="M13.2847 129.939L93.7763 99.2895L93.8302 3.36438L13.2578 33.5596L13.2847 129.939Z" fill="#0A2D49"/>
<path d="M93.6147 160L13.2847 129.911L13.2578 33.559L93.6417 63.6474L93.6147 160Z" fill="#053866"/>
<path d="M33.347 65.3293L13.2847 57.7738L13.2578 33.559L33.347 41.2746V65.3293Z" fill="#053866"/>
<path d="M18.6183 56.813C16.7932 56.8595 14.978 56.5323 13.2863 55.8518L13.2324 53.2622C17.3526 54.8106 21.3112 54.517 24.3273 52.4612C27.9627 49.9783 30.2517 45.9203 30.2517 39.9667L32.6753 40.9278C32.6753 47.6556 30.6556 51.4734 26.3739 54.4102C24.0781 55.9392 21.3837 56.7739 18.6183 56.813Z" fill="#B9D5FD"/>
<path d="M53.4119 72.8846L33.3496 65.3291V41.2744L53.4119 48.8299V72.8846Z" fill="#0E2951"/>
<path d="M73.4705 80.4406L53.4082 72.8851V48.8304L73.4705 56.3859V80.4406Z" fill="#709FDC"/>
<path d="M93.533 87.8891L73.4707 80.4405V56.3857L93.6407 63.6475L93.533 87.8891Z" fill="#6780B3"/>
<path d="M33.3475 89.3846L13.2852 81.8291V57.7744L33.3475 65.3299V89.3846Z" fill="#B9D5FD"/>
<path d="M53.4119 96.9391L33.3496 89.3837V65.329L53.4119 72.8844V96.9391Z" fill="#274684"/>
<path d="M73.4705 104.495L53.4082 96.9397V72.885L73.4705 80.4405V104.495Z" fill="#3D95D1"/>
<path d="M93.533 111.944L73.4707 104.495V80.4402L93.533 87.8889V111.944Z" fill="#B9D5FD"/>
<path d="M53.4119 120.995L33.3496 113.44V89.3849L53.4119 96.9404V120.995Z" fill="#B9D5FD"/>
<path d="M73.4705 128.55L53.4082 120.995V96.9402L73.4705 104.496V128.55Z" fill="#0E2951"/>
<path d="M93.533 135.999L73.4707 128.55V104.495L93.533 111.944V135.999Z" fill="#709FDC"/>
<path d="M33.3475 137.494L13.2852 129.912V105.857L33.3475 113.439V137.494Z" fill="#6780B3"/>
<path d="M53.4119 145.05L33.3496 137.494V113.439L53.4119 120.995V145.05Z" fill="#053866"/>
<path d="M73.4705 152.605L53.4082 145.049V120.995L73.4705 128.55V152.605Z" fill="#B9D5FD"/>
<path d="M93.6138 160L73.4707 152.605V128.55L93.533 135.999L93.6138 160Z" fill="#3D95D1"/>
<path d="M17.3784 51.8203C15.975 51.8413 14.5822 51.5778 13.2852 51.0461V48.1627C16.1666 49.2573 19.7212 48.8836 21.4986 47.7089C24.4608 45.7599 25.915 42.7431 25.915 38.5515L28.3386 39.5126C28.3386 44.6653 26.4805 47.8156 23.1682 50.085C21.4587 51.2286 19.4406 51.8335 17.3784 51.8203Z" fill="#3D95D1"/>
<path d="M15.9512 46.2674C15.0362 46.2887 14.1272 46.1157 13.2852 45.7602V42.8768C15.0086 43.5175 17.6477 43.3574 19.1019 41.9157C20.6368 40.3939 21.0408 39.1658 21.0408 36.6295L23.4644 37.5906C23.4644 41.1147 22.2526 43.4908 19.9367 45.0393C18.7674 45.8457 17.3755 46.2746 15.9512 46.2674Z" fill="#3376B3"/>
<path d="M14.6047 40.7144C14.1512 40.7497 13.6964 40.6669 13.2852 40.4741V37.5908C13.716 37.7509 15.1433 37.8577 15.7088 37.5908C16.6782 37.1102 16.6782 36.1491 16.1935 34.7074L19.1019 35.6685C19.1019 37.6709 18.3748 39.0591 17.0283 39.9936C16.3085 40.4626 15.4661 40.7131 14.6047 40.7144Z" fill="#709FDC"/>
<path d="M93.0236 132.635L76.0312 126.254V84.6855L93.3468 90.9595V94.3234L78.9396 88.8504V124.252L92.862 129.458L93.0236 132.635Z" fill="#274684"/>
<path d="M93.3468 133.302L76.0312 126.254V105.056L78.9396 106.017V124.252L93.3468 129.938V133.302Z" fill="#0E2951"/>
<path d="M93.0236 126.387L80.8516 121.795V91.7867L93.3467 96.272V99.6359L83.7599 95.9516V120.3L93.3467 123.691L93.0236 126.387Z" fill="#274684"/>
<path d="M93.0239 120.62L86.0762 118.004V100.49L93.3471 103V106.364L88.9845 104.655V116.002L93.3471 117.897L93.0239 120.62Z" fill="#274684"/>
<path d="M93.3471 120.782L86.0762 118.005V108.821L88.9845 109.782V116.003L93.3471 117.418V120.782Z" fill="#0E2951"/>
<path d="M93.3467 127.055L80.8516 122.276V106.872L83.7599 107.833V120.301L93.3467 123.691V127.055Z" fill="#0E2951"/>
<path d="M28.5271 135.678L13.2852 129.912V111.65L28.5271 117.39V135.678Z" fill="#053866"/>
<path d="M23.3298 133.703L13.2852 129.912V117.898L23.3298 121.689V133.703Z" fill="#709FDC"/>
<path d="M73.3909 65.196L66.12 77.5571L53.4902 64.0747L60.7881 51.7136L73.3909 65.196Z" fill="#0E2951"/>
<path d="M68.5195 64.9292L64.8033 71.2298L58.3672 64.3685L62.0834 58.0411L68.5195 64.9292Z" fill="#6780B3"/>
<path d="M73.4705 152.604L53.4082 145.049V125.8L73.4705 133.355V152.604Z" fill="#3D95D1"/>
<path d="M73.4705 152.605L53.4082 145.049V131.086L73.4705 138.642V152.605Z" fill="#6780B3"/>
<path d="M73.4705 152.604L53.4082 145.049V136.372L73.4705 143.954V152.604Z" fill="#053866"/>
<path d="M73.4705 152.604L53.4082 145.049V140.724L73.4705 148.279V152.604Z" fill="#0E2951"/>
<path d="M33.3496 71.0695L53.4119 78.6249L33.3496 84.5785L53.4119 92.134L33.3496 71.0695Z" fill="#0E2951"/>
<path d="M15.7088 82.7902L13.2852 81.8291V57.7744L15.7088 58.7355V82.7902Z" fill="#709FDC"/>
<path d="M19.5877 84.2318L17.1641 83.2707V59.2159L19.5877 60.1771V84.2318Z" fill="#709FDC"/>
<path d="M32.2186 89.0369L29.7949 88.0758V64.0211L32.2186 64.9822V89.0369Z" fill="#709FDC"/>
<path d="M27.9884 87.2747L25.0801 86.3136V62.2856L27.9884 63.2468V87.2747Z" fill="#709FDC"/>
<path d="M23.4647 85.6733L21.041 84.7122V60.6575L23.4647 61.6186V85.6733Z" fill="#709FDC"/>
<path d="M33.3475 113.439L13.2852 105.857V81.8289L33.3475 89.3843V113.439Z" fill="#0E2951"/>
<path d="M33.3478 113.438L23.3301 109.647V97.6329L33.3478 101.397V113.438Z" fill="#3D95D1"/>
<path d="M23.3298 97.634L13.2852 93.8429V81.8289L23.3298 85.5933V97.634Z" fill="#3D95D1"/>
<path d="M45.4393 132.661L41.3191 131.113V126.361L48.5362 129.084V137.413L38.2223 133.516V121.608L51.6061 126.654V142.219L35.1523 135.998V116.269L51.6061 122.463" stroke="#3D95D1" stroke-width="3" stroke-miterlimit="10"/>
<path d="M77.082 151.082L90.7352 137.947" stroke="#0E2951" stroke-width="6" stroke-miterlimit="10"/>
<path d="M90.7352 156.208L77.082 132.794" stroke="#0E2951" stroke-width="6" stroke-miterlimit="10"/>
<path d="M60.6265 108.313L57.4219 107.111V103.267L60.6265 104.468V108.313Z" fill="#B9D5FD"/>
<path d="M65.0444 115.281L61.8398 114.053V110.209L65.0444 111.41V115.281Z" fill="#B9D5FD"/>
<path d="M69.4604 122.223L66.2559 121.021V117.177L69.4604 118.378V122.223Z" fill="#B9D5FD"/>
<path d="M93.6422 63.6477L174.322 33.4525L174.349 129.698L93.6152 160L93.6422 63.6477Z" fill="#053866"/>
<path d="M154.125 89.1701L174.349 81.5879V105.643L154.125 113.198V89.1701Z" fill="#B9D5FD"/>
<path d="M133.928 96.7258L154.125 89.1703V113.198L133.928 120.78V96.7258Z" fill="#274684"/>
<path d="M113.732 104.282L133.929 96.7264V120.781L113.732 128.337V104.282Z" fill="#053866"/>
<path d="M93.5352 111.944L113.732 104.282V128.336L93.5352 135.999V111.944Z" fill="#B9D5FD"/>
<path d="M133.928 72.6713L154.125 65.1158V89.1705L133.928 96.726V72.6713Z" fill="#B9D5FD"/>
<path d="M113.732 80.2273L133.929 72.6719V96.7266L113.732 104.282V80.2273Z" fill="#0E2951"/>
<path d="M93.5352 87.8887L113.732 80.2264V104.281L93.5352 111.943V87.8887Z" fill="#709FDC"/>
<path d="M133.928 120.781L154.125 113.199V137.254L133.928 144.836V120.781Z" fill="#0E2951"/>
<path d="M113.732 128.336L133.929 120.781V144.836L113.732 152.391V128.336Z" fill="#709FDC"/>
<path d="M93.5352 135.998L113.732 128.336V152.391L93.6159 160L93.5352 135.998Z" fill="#6780B3"/>
<path d="M154.125 41.0614L174.322 33.4525L174.349 57.5339L154.125 65.1161V41.0614Z" fill="#6780B3"/>
<path d="M133.928 48.6161L154.125 41.0607V65.1154L133.928 72.6708V48.6161Z" fill="#053866"/>
<path d="M113.732 56.1722L133.929 48.6167V72.6714L113.732 80.2269V56.1722Z" fill="#B9D5FD"/>
<path d="M93.6429 63.6473L113.732 56.1719V80.2266L93.5352 87.8889L93.6429 63.6473Z" fill="#3D95D1"/>
<path d="M93.3466 133.303V129.939L108.238 124.039V88.6374L94.0468 93.9502L93.0234 91.2538L111.147 84.4725V126.041L93.3466 133.303Z" fill="#274684"/>
<path d="M111.148 105.804L108.24 106.765V88.6374L93.3477 94.324V90.9601L111.148 84.4725V105.804Z" fill="#0E2951"/>
<path d="M93.3477 127.055V123.691L103.392 119.606V95.7384L93.3477 99.6363V96.2724L106.301 92.5347V121.609L93.3477 127.055Z" fill="#274684"/>
<path d="M93.3466 120.781V117.417L98.14 115.789V104.442L94.0468 105.991L93.0234 103.294L101.048 100.277V117.791L93.3466 120.781Z" fill="#274684"/>
<path d="M101.049 109.088L98.1411 110.049V104.442L93.3477 106.364V103.001L101.049 100.277V109.088Z" fill="#0E2951"/>
<path d="M106.301 107.619L103.392 108.58V95.7386L93.3477 99.6365V96.2725L106.301 91.5737V107.619Z" fill="#0E2951"/>
<path d="M164.25 37.2703L174.322 33.4525L174.348 45.5199L164.25 49.2843V37.2703Z" fill="#FF8098"/>
<path d="M113.812 143.527L121.164 125.666L133.848 129.644L126.523 147.505L113.812 143.527Z" fill="#0E2951"/>
<path d="M118.742 140.137L122.458 131.006L128.948 133.035L125.205 142.166L118.742 140.137Z" fill="#6780B3"/>
<path d="M113.732 56.1722L133.929 48.6167V67.8658L113.732 75.4213V56.1722Z" fill="#3D95D1"/>
<path d="M113.732 56.1722L133.929 48.6167V62.5796L113.732 70.1351V56.1722Z" fill="#6780B3"/>
<path d="M113.732 56.1722L133.929 48.6167V57.2668L113.732 64.8489V56.1722Z" fill="#053866"/>
<path d="M113.732 56.1722L133.929 48.6167V52.9417L113.732 60.5239V56.1722Z" fill="#0E2951"/>
<path d="M154.125 107.459L133.928 115.014L154.125 93.9763L133.928 101.532" fill="#0E2951"/>
<path d="M174.377 105.884L171.469 106.845V82.3095L174.377 81.3484V105.884Z" fill="#709FDC"/>
<path d="M170.553 107.139L167.645 108.1V84.045L170.553 83.0839V107.139Z" fill="#709FDC"/>
<path d="M158.434 111.676L155.499 112.638L155.445 88.5562L158.354 87.5951L158.434 111.676Z" fill="#709FDC"/>
<path d="M162.472 110.155L159.537 111.117V87.0618L162.472 86.1007V110.155Z" fill="#709FDC"/>
<path d="M166.513 108.66L163.578 109.621V85.5666L166.513 84.6055V108.66Z" fill="#709FDC"/>
<path d="M154.125 65.1164L174.349 57.5342V81.5889L154.125 89.1711V65.1164Z" fill="#0E2951"/>
<path d="M154.125 113.198L174.349 105.642V129.697L154.125 137.252V113.198Z" fill="#053866"/>
<path d="M154.125 65.1157L164.25 61.3246V73.3386L154.125 77.1297V65.1157Z" fill="#3D95D1"/>
<path d="M156.9 136.185L154.477 137.146C154.477 120.781 163.606 110.876 174.377 106.844V109.247C164.656 112.878 156.9 125.132 156.9 136.185Z" fill="#B9D5FD"/>
<path d="M162.26 134.264L159.352 135.225C159.352 123.691 166.299 114.587 174.405 111.544V114.427C167.323 117.07 162.26 125.8 162.26 134.264Z" fill="#3D95D1"/>
<path d="M167.401 132.342L164.682 133.303C164.682 126.094 168.802 119.153 174.322 117.07L174.376 119.82C170.067 121.449 167.401 127.136 167.401 132.342Z" fill="#3376B3"/>
<path d="M171.954 130.419L169.53 131.38C169.046 127.536 171.308 123.718 174.324 122.596L174.378 125.613C172.466 126.307 171.954 128.096 171.954 130.419Z" fill="#709FDC"/>
<path d="M142.06 55.051L146.019 53.5559V58.1212L139.071 60.7376V52.755L149.008 49.0173V60.4439L136.082 65.3029V50.3522L151.997 44.3986V63.354L136.082 69.3343" stroke="#3D95D1" stroke-width="5" stroke-miterlimit="10"/>
<path d="M110.095 60.4181L96.3613 83.8587" stroke="#0E2951" stroke-width="6" stroke-miterlimit="10"/>
<path d="M96.3613 65.5699L110.095 78.7053" stroke="#0E2951" stroke-width="6" stroke-miterlimit="10"/>
<path d="M126.658 90.7722L129.89 89.5708V93.4153L126.658 94.6434V90.7722Z" fill="#B9D5FD"/>
<path d="M122.215 87.1685L125.446 85.9404V89.7849L122.215 91.013V87.1685Z" fill="#B9D5FD"/>
<path d="M117.771 83.5376L121.003 82.3094V86.1806L117.771 87.382V83.5376Z" fill="#B9D5FD"/>
<path d="M159 39.2459L174.323 33.4525L174.35 51.7672L159 57.5072V39.2459Z" fill="#053866"/>
<path d="M163.121 37.6708L174.324 33.4525L174.351 46.8281L163.121 51.0464V37.6708Z" fill="#709FDC"/>
<path d="M164.25 73.3393L174.348 69.575V81.589L164.25 85.38V73.3393Z" fill="#3D95D1"/>
<path d="M141.388 45.2799L174.323 33.4528L93.8314 3.36438L61.8125 15.4318L141.388 45.2799Z" fill="#0D3760"/>
<path d="M134.925 48.2422L93.2923 63.7536L12.8008 33.7186L54.4873 18.1538L134.925 48.2422Z" fill="#0D3659"/>
<path d="M137.51 0.00012207L93.7767 3.41744L13.2852 33.4791L56.9105 30.1686L137.51 0.00012207Z" fill="#043D60"/>
<path d="M174.376 33.4791L144.243 4.11157L63.5625 34.2801L93.831 63.7811L174.376 33.4791Z" fill="#03446B"/>
<path d="M93.1953 100.157V64.0916L174.403 33.5146H227.2L219.079 51.7878L227.2 70.061H174.403L93.1953 100.157Z" fill="#B4D1FA"/>
<path d="M116.456 69.4933C117.898 68.982 118.664 67.5609 118.557 65.9141C118.476 64.6829 117.705 63.8067 116.855 63.935C117.563 63.4792 118.169 62.3827 118.084 61.0899C117.984 59.5508 117.074 58.7711 115.702 59.2573L112.19 60.5021L112.861 70.7675L116.456 69.4933ZM115.827 63.7638L113.462 64.602L113.246 61.2931L115.611 60.4548C116.498 60.1405 117.019 60.7116 117.079 61.635C117.141 62.5738 116.714 63.4494 115.827 63.7638ZM116.18 68.4257L113.768 69.2807L113.536 65.7409L115.949 64.8859C116.918 64.5422 117.469 65.1973 117.531 66.1361C117.602 67.2288 117.102 68.0988 116.18 68.4257Z" fill="black"/>
<path d="M121.835 67.5867L125.9 57.7685L126.435 65.9563L127.416 65.6084L126.745 55.343L125.74 55.6992L121.724 65.3271L121.199 57.3087L120.218 57.6566L120.889 67.922L121.835 67.5867Z" fill="black"/>
<path d="M129.432 66.8307L130.414 66.4829L130.29 64.5898L136.167 62.5067L136.291 64.3998L137.272 64.0519L137.074 61.02L136.353 61.2756L135.756 52.1491L130.932 53.8592L130.784 59.1868C130.68 62.7824 130.182 63.4943 129.241 63.9066L129.432 66.8307ZM131.76 58.9355L131.881 54.6879L134.849 53.6359L135.371 61.6235L130.807 63.2414C131.349 62.4666 131.7 61.1768 131.76 58.9355Z" fill="black"/>
<path d="M144.157 59.6748L144.083 58.536L139.896 60.0197L139.665 56.4799L143.768 55.0255L143.694 53.8866L139.591 55.341L139.374 52.0321L143.56 50.5483L143.486 49.4094L138.318 51.2411L138.989 61.5065L144.157 59.6748Z" fill="black"/>
<path d="M149.92 57.8211C152.25 56.9954 153.685 54.156 153.487 51.1241C153.289 48.0922 151.556 46.3761 149.226 47.2017C146.885 48.0316 145.461 50.8669 145.659 53.8988C145.857 56.9307 147.579 58.651 149.92 57.8211ZM149.846 56.6822C148.072 57.3109 146.832 55.9238 146.676 53.5383C146.519 51.1374 147.527 48.9693 149.3 48.3406C151.062 47.7161 152.313 49.0837 152.47 51.4846C152.626 53.8701 151.608 56.0577 149.846 56.6822Z" fill="black"/>
<path d="M158.007 51.4748L157.94 50.4591L155.102 51.465L155.169 52.4807L158.007 51.4748Z" fill="black"/>
<path d="M108.684 91.4941L108.013 81.2287L106.606 81.7275L104.651 90.3253L101.699 83.4669L100.291 83.9656L100.962 94.2311L101.944 93.8832L101.392 85.4338L104.616 92.9359L105.019 92.7934L107.151 83.3927L107.703 91.842L108.684 91.4941Z" fill="black"/>
<path d="M117.868 88.2392L114.016 79.1012L112.798 79.5329L110.3 90.9216L111.423 90.5234L111.972 87.9984L115.898 86.6068L116.744 88.6373L117.868 88.2392ZM115.528 85.5727L112.181 86.7589L113.499 80.6385L115.528 85.5727Z" fill="black"/>
<path d="M120.472 87.3162L120.205 83.2377L122.393 82.4623C123.954 81.9091 124.772 80.1704 124.662 78.4929C124.552 76.8153 123.573 75.7138 121.988 76.2754L118.819 77.3987L119.49 87.6641L120.472 87.3162ZM122.2 81.3654L120.131 82.0989L119.875 78.1897L121.945 77.4562C122.879 77.1251 123.57 77.6991 123.645 78.8533C123.72 80.0076 123.134 81.0343 122.2 81.3654Z" fill="black"/>
<path d="M133.005 82.8738L129.082 78.7529L132.051 72.7089L130.821 73.1448L127.679 79.691L127.332 74.3813L126.351 74.7292L127.022 84.9946L128.003 84.6467L127.778 81.1992L128.494 79.7487L131.787 83.3055L133.005 82.8738Z" fill="black"/>
<path d="M139.883 80.4361L139.808 79.2972L135.622 80.781L135.391 77.2412L139.494 75.7868L139.42 74.6479L135.316 76.1023L135.1 72.7933L139.286 71.3096L139.212 70.1707L134.044 72.0023L134.715 82.2677L139.883 80.4361Z" fill="black"/>
<path d="M144.972 78.6325L144.375 69.5059L146.882 68.6174L146.808 67.4785L140.824 69.5993L140.898 70.7382L143.394 69.8538L143.99 78.9803L144.972 78.6325Z" fill="black"/>
<path d="M150.32 76.7367L154.385 66.9185L154.92 75.1062L155.902 74.7583L155.231 64.4929L154.226 64.8492L150.209 74.4771L149.685 66.4587L148.703 66.8066L149.374 77.072L150.32 76.7367Z" fill="black"/>
<path d="M164.913 71.5645L164.242 61.2991L163.26 61.647L163.549 66.064L158.937 67.6987L158.648 63.2816L157.667 63.6295L158.338 73.8949L159.319 73.547L159.012 68.8376L163.623 67.2029L163.931 71.9124L164.913 71.5645Z" fill="black"/>
<path d="M168.329 70.3536L167.733 61.2271L171.919 59.7433L171.844 58.6044L166.677 60.4361L167.348 70.7015L168.329 70.3536Z" fill="black"/>
<path d="M227.201 33.4401H174.404V70.0649H227.201L219.201 51.7525L227.201 33.4401Z" fill="black" fill-opacity="0.05"/>
<path d="M205.998 59.4213V54.9706L210.151 53.0631V61.3288L205.998 59.4213Z" fill="#A62E41"/>
<ellipse cx="198.653" cy="45.433" rx="5.43032" ry="5.40447" fill="#A62E41"/>
<path fill-rule="evenodd" clip-rule="evenodd" d="M194.158 45.3691C194.158 42.8372 196.221 40.7786 198.774 40.7786C200.12 40.7786 201.33 41.3506 202.174 42.2647C202.456 42.569 202.93 42.5878 203.234 42.3067C203.539 42.0257 203.557 41.5512 203.276 41.2469C202.159 40.0374 200.555 39.2786 198.774 39.2786C195.81 39.2786 193.335 41.3794 192.776 44.1721C191.949 43.2064 190.718 42.5947 189.346 42.5947C186.861 42.5947 184.841 44.6005 184.841 47.0823C184.841 48.2658 185.3 49.3411 186.05 50.1422H185C183.481 50.1422 182.25 51.3734 182.25 52.8922V58.4417C182.25 58.8559 182.586 59.1917 183 59.1917C183.414 59.1917 183.75 58.8559 183.75 58.4417V52.8922C183.75 52.2019 184.31 51.6422 185 51.6422H203.621C204.312 51.6422 204.871 52.2019 204.871 52.8922V61.4247C204.871 62.1151 204.312 62.6747 203.621 62.6747H185C184.31 62.6747 183.75 62.1151 183.75 61.4247V60.5224C183.75 60.1082 183.414 59.7724 183 59.7724C182.586 59.7724 182.25 60.1082 182.25 60.5224V61.4247C182.25 62.9435 183.481 64.1747 185 64.1747H203.621C205.14 64.1747 206.371 62.9435 206.371 61.4247V60.3397L208.939 61.6068C210.102 62.1809 211.463 61.3346 211.463 60.0376V54.2333C211.463 52.9363 210.102 52.09 208.939 52.6641L206.371 53.9312V52.8922C206.371 51.3734 205.14 50.1422 203.621 50.1422H202.573C203.984 49.0271 204.89 47.3044 204.89 45.3691C204.89 44.9549 204.554 44.6191 204.14 44.6191C203.726 44.6191 203.39 44.9549 203.39 45.3691C203.39 47.9011 201.327 49.9597 198.774 49.9597C196.221 49.9597 194.158 47.9011 194.158 45.3691ZM194.975 50.1422C194.429 49.7111 193.959 49.1892 193.588 48.5993C193.379 49.1781 193.054 49.7016 192.642 50.1422H194.975ZM189.346 44.0947C187.683 44.0947 186.341 45.4357 186.341 47.0823C186.341 48.729 187.683 50.0699 189.346 50.0699C191.009 50.0699 192.352 48.729 192.352 47.0823C192.352 45.4357 191.009 44.0947 189.346 44.0947ZM209.963 54.2333C209.963 54.0481 209.769 53.9272 209.602 54.0092L206.682 55.4509C206.596 55.493 206.542 55.5799 206.542 55.6751V58.5958C206.542 58.691 206.596 58.7779 206.682 58.82L209.602 60.2617C209.769 60.3438 209.963 60.2229 209.963 60.0376V54.2333ZM185.952 60.9701C185.537 60.9701 185.202 61.3059 185.202 61.7201C185.202 62.1343 185.537 62.4701 185.952 62.4701H187.919C188.333 62.4701 188.669 62.1343 188.669 61.7201C188.669 61.3059 188.333 60.9701 187.919 60.9701H185.952ZM190.869 60.9701C190.455 60.9701 190.119 61.3059 190.119 61.7201C190.119 62.1343 190.455 62.4701 190.869 62.4701H192.836C193.251 62.4701 193.586 62.1343 193.586 61.7201C193.586 61.3059 193.251 60.9701 192.836 60.9701H190.869ZM195.787 60.9701C195.373 60.9701 195.037 61.3059 195.037 61.7201C195.037 62.1343 195.373 62.4701 195.787 62.4701H197.754C198.168 62.4701 198.504 62.1343 198.504 61.7201C198.504 61.3059 198.168 60.9701 197.754 60.9701H195.787ZM200.705 60.9701C200.29 60.9701 199.955 61.3059 199.955 61.7201C199.955 62.1343 200.29 62.4701 200.705 62.4701H202.672C203.086 62.4701 203.422 62.1343 203.422 61.7201C203.422 61.3059 203.086 60.9701 202.672 60.9701H200.705Z" fill="black"/>
<ellipse cx="189.39" cy="47.023" rx="3.19431" ry="3.1791" fill="#A62E41"/>
</svg>
