<svg width="240" height="160" viewBox="0 0 240 160" fill="none" xmlns="http://www.w3.org/2000/svg">
<path d="M94.0137 156.8L17.264 127.941L17.2383 35.4166L94.0395 64.3015L94.0137 156.8Z" fill="#053866"/>
<path d="M170.97 127.71L94.1426 98.7225L94.2198 6.4292L171.124 35.3141L170.97 127.71Z" fill="#102E5B"/>
<path d="M94.0137 156.8L171.124 127.608V35.3143L94.0394 64.3017L94.0137 156.8Z" fill="#054270"/>
<path d="M17.264 127.941L94.1681 98.5174L94.2196 6.4292L17.2383 35.4166L17.264 127.941Z" fill="#0A2D49"/>
<path d="M94.0137 156.8L17.264 127.915L17.2383 35.4166L94.0395 64.3015L94.0137 156.8Z" fill="#053866"/>
<path d="M36.4322 65.9162L17.264 58.6629L17.2383 35.4166L36.4322 42.8237V65.9162Z" fill="#053866"/>
<path d="M22.3587 57.7402C20.615 57.7848 18.8807 57.4707 17.2643 56.8175L17.2129 54.3314C21.1494 55.818 24.9316 55.536 27.8133 53.5625C31.2867 51.179 33.4736 47.2832 33.4736 41.5677L35.7893 42.4904C35.7893 48.9492 33.8596 52.6142 29.7687 55.4335C27.5752 56.9014 25.0009 57.7027 22.3587 57.7402Z" fill="#B9D5FD"/>
<path d="M55.5998 73.1695L36.4316 65.9163V42.8237L55.5998 50.077V73.1695Z" fill="#0E2951"/>
<path d="M74.7677 80.4228L55.5996 73.1696V50.077L74.7677 57.3303V80.4228Z" fill="#709FDC"/>
<path d="M93.9357 87.5735L74.7676 80.4227V57.3302L94.0386 64.3015L93.9357 87.5735Z" fill="#6780B3"/>
<path d="M36.4318 89.0089L17.2637 81.7556V58.6631L36.4318 65.9164V89.0089Z" fill="#B9D5FD"/>
<path d="M55.5998 96.262L36.4316 89.0088V65.9163L55.5998 73.1695V96.262Z" fill="#274684"/>
<path d="M74.7677 103.515L55.5996 96.2622V73.1697L74.7677 80.4229V103.515Z" fill="#3D95D1"/>
<path d="M93.9357 110.666L74.7676 103.515V80.4229L93.9357 87.5736V110.666Z" fill="#B9D5FD"/>
<path d="M55.5998 119.355L36.4316 112.101V89.0089L55.5998 96.2622V119.355Z" fill="#B9D5FD"/>
<path d="M74.7677 126.608L55.5996 119.355V96.2623L74.7677 103.516V126.608Z" fill="#0E2951"/>
<path d="M93.9357 133.759L74.7676 126.608V103.515L93.9357 110.666V133.759Z" fill="#709FDC"/>
<path d="M36.4318 135.194L17.2637 127.915V104.823L36.4318 112.101V135.194Z" fill="#6780B3"/>
<path d="M55.5998 142.447L36.4316 135.194V112.101L55.5998 119.355V142.447Z" fill="#053866"/>
<path d="M74.7677 149.7L55.5996 142.447V119.355L74.7677 126.608V149.7Z" fill="#B9D5FD"/>
<path d="M94.0129 156.8L74.7676 149.7V126.608L93.9357 133.759L94.0129 156.8Z" fill="#3D95D1"/>
<path d="M21.1745 52.9477C19.8337 52.9678 18.5029 52.7148 17.2637 52.2044V49.4364C20.0167 50.4872 23.4129 50.1284 25.111 49.0007C27.9412 47.1297 29.3306 44.2335 29.3306 40.2096L31.6462 41.1323C31.6462 46.0788 29.8709 49.1032 26.7062 51.2817C25.073 52.3796 23.1448 52.9603 21.1745 52.9477Z" fill="#3D95D1"/>
<path d="M19.8108 47.6165C18.9366 47.6369 18.0682 47.4709 17.2637 47.1296V44.3615C18.9103 44.9767 21.4318 44.8229 22.8211 43.4389C24.2877 41.978 24.6736 40.799 24.6736 38.3641L26.9892 39.2868C26.9892 42.67 25.8314 44.951 23.6187 46.4376C22.5016 47.2117 21.1717 47.6234 19.8108 47.6165Z" fill="#3376B3"/>
<path d="M18.5244 42.2855C18.0912 42.3194 17.6565 42.2399 17.2637 42.0549V39.2868C17.6753 39.4406 19.039 39.5431 19.5793 39.2868C20.5055 38.8255 20.5055 37.9028 20.0424 36.5188L22.8211 37.4415C22.8211 39.3637 22.1265 40.6965 20.84 41.5935C20.1522 42.0438 19.3474 42.2843 18.5244 42.2855Z" fill="#709FDC"/>
<path d="M93.4479 130.529L77.2129 124.404V84.4979L93.7567 90.521V93.7503L79.9916 88.4962V122.481L93.2935 127.479L93.4479 130.529Z" fill="#274684"/>
<path d="M93.7567 131.17L77.2129 124.404V104.054L79.9916 104.976V122.481L93.7567 127.941V131.17Z" fill="#0E2951"/>
<path d="M93.4479 124.532L81.8184 120.124V91.3156L93.7566 95.6214V98.8508L84.5971 95.3138V118.688L93.7566 121.943L93.4479 124.532Z" fill="#274684"/>
<path d="M93.4467 118.996L86.8086 116.484V99.6707L93.7555 102.08V105.309L89.5873 103.669V114.562L93.7555 116.381L93.4467 118.996Z" fill="#274684"/>
<path d="M93.7555 119.15L86.8086 116.484V107.668L89.5873 108.59V114.562L93.7555 115.92V119.15Z" fill="#0E2951"/>
<path d="M93.7566 125.173L81.8184 120.585V105.797L84.5971 106.719V118.688L93.7566 121.943V125.173Z" fill="#0E2951"/>
<path d="M31.8263 133.451L17.2637 127.915V110.384L31.8263 115.895V133.451Z" fill="#053866"/>
<path d="M26.8606 131.555L17.2637 127.915V116.382L26.8606 120.021V131.555Z" fill="#709FDC"/>
<path d="M74.6915 65.7882L67.7446 77.6548L55.6777 64.7117L62.6503 52.8451L74.6915 65.7882Z" fill="#0E2951"/>
<path d="M70.0338 65.5319L66.4832 71.5806L60.334 64.9937L63.8846 58.9194L70.0338 65.5319Z" fill="#6780B3"/>
<path d="M74.7677 149.7L55.5996 142.447V123.968L74.7677 131.221V149.7Z" fill="#3D95D1"/>
<path d="M74.7677 149.7L55.5996 142.447V129.043L74.7677 136.296V149.7Z" fill="#6780B3"/>
<path d="M74.7677 149.701L55.5996 142.447V134.118L74.7677 141.396V149.701Z" fill="#053866"/>
<path d="M74.7677 149.701L55.5996 142.447V138.295L74.7677 145.549V149.701Z" fill="#0E2951"/>
<path d="M36.4316 71.4268L55.5998 78.68L36.4316 84.3955L55.5998 91.6488L36.4316 71.4268Z" fill="#0E2951"/>
<path d="M19.5793 82.6783L17.2637 81.7556V58.6631L19.5793 59.5858V82.6783Z" fill="#709FDC"/>
<path d="M23.2844 84.0625L20.9688 83.1398V60.0472L23.2844 60.9699V84.0625Z" fill="#709FDC"/>
<path d="M35.3508 88.6758L33.0352 87.7531V64.6605L35.3508 65.5832V88.6758Z" fill="#709FDC"/>
<path d="M31.3119 86.9842L28.5332 86.0615V62.9946L31.3119 63.9173V86.9842Z" fill="#709FDC"/>
<path d="M26.9894 85.4462L24.6738 84.5236V61.431L26.9894 62.3537V85.4462Z" fill="#709FDC"/>
<path d="M36.4318 112.101L17.2637 104.823V81.7556L36.4318 89.0089V112.101Z" fill="#0E2951"/>
<path d="M36.4325 112.101L26.8613 108.462V96.9285L36.4325 100.542V112.101Z" fill="#3D95D1"/>
<path d="M26.8606 96.9285L17.2637 93.2891V81.7556L26.8606 85.3694V96.9285Z" fill="#3D95D1"/>
<path d="M47.9847 130.555L44.0482 129.068V124.506L50.9436 127.12V135.117L41.0894 131.375V119.944L53.8767 124.788V139.73L38.1562 133.759V114.818L53.8767 120.764" stroke="#3D95D1" stroke-width="5" stroke-miterlimit="10"/>
<path d="M78.2168 148.239L91.2614 135.63" stroke="#0E2951" stroke-width="6" stroke-miterlimit="10"/>
<path d="M91.2614 153.16L78.2168 130.683" stroke="#0E2951" stroke-width="6" stroke-miterlimit="10"/>
<path d="M62.4954 107.181L59.4336 106.027V102.337L62.4954 103.49V107.181Z" fill="#B9D5FD"/>
<path d="M66.716 113.87L63.6543 112.691V109L66.716 110.154V113.87Z" fill="#B9D5FD"/>
<path d="M70.9348 120.533L67.873 119.38V115.689L70.9348 116.843V120.533Z" fill="#B9D5FD"/>
<path d="M94.0394 64.3017L171.124 35.3143L171.149 127.71L94.0137 156.8L94.0394 64.3017Z" fill="#053866"/>
<path d="M151.826 88.8038L171.149 81.5249V104.617L151.826 111.871V88.8038Z" fill="#B9D5FD"/>
<path d="M132.529 96.0571L151.826 88.8038V111.871L132.529 119.15V96.0571Z" fill="#274684"/>
<path d="M113.232 103.31L132.529 96.0571V119.15L113.232 126.403V103.31Z" fill="#053866"/>
<path d="M93.9355 110.666L113.232 103.311V126.403L93.9355 133.759V110.666Z" fill="#B9D5FD"/>
<path d="M132.529 72.9646L151.826 65.7113V88.8039L132.529 96.0571V72.9646Z" fill="#B9D5FD"/>
<path d="M113.232 80.2177L132.529 72.9645V96.057L113.232 103.31V80.2177Z" fill="#0E2951"/>
<path d="M93.9355 87.5737L113.232 80.2179V103.31L93.9355 110.666V87.5737Z" fill="#709FDC"/>
<path d="M132.529 119.15L151.826 111.871V134.963L132.529 142.242V119.15Z" fill="#0E2951"/>
<path d="M113.232 126.403L132.529 119.15V142.242L113.232 149.495V126.403Z" fill="#709FDC"/>
<path d="M93.9355 133.759L113.232 126.403V149.495L94.0127 156.8L93.9355 133.759Z" fill="#6780B3"/>
<path d="M151.826 42.6189L171.123 35.3143L171.149 58.4325L151.826 65.7114V42.6189Z" fill="#6780B3"/>
<path d="M132.529 49.872L151.826 42.6188V65.7113L132.529 72.9646V49.872Z" fill="#053866"/>
<path d="M113.232 57.1252L132.529 49.8719V72.9645L113.232 80.2177V57.1252Z" fill="#B9D5FD"/>
<path d="M94.0385 64.3017L113.232 57.1254V80.2179L93.9355 87.5737L94.0385 64.3017Z" fill="#3D95D1"/>
<path d="M93.756 131.17V127.941L107.984 122.277V88.2914L94.425 93.3917L93.4473 90.8031L110.763 84.2931V124.199L93.756 131.17Z" fill="#274684"/>
<path d="M110.763 104.771L107.984 105.694V88.2914L93.7559 93.7505V90.5212L110.763 84.2931V104.771Z" fill="#0E2951"/>
<path d="M93.7559 125.173V121.943L103.353 118.022V95.1088L93.7559 98.8508V95.6214L106.132 92.0332V119.944L93.7559 125.173Z" fill="#274684"/>
<path d="M93.756 119.15V115.92L98.3358 114.357V103.464L94.425 104.951L93.4473 102.362L101.115 99.4659V116.279L93.756 119.15Z" fill="#274684"/>
<path d="M101.114 107.924L98.3356 108.846V103.464L93.7559 105.31V102.08L101.114 99.4659V107.924Z" fill="#0E2951"/>
<path d="M106.132 106.514L103.353 107.437V95.1089L93.7559 98.8508V95.6215L106.132 91.1106V106.514Z" fill="#0E2951"/>
<path d="M161.5 38.9794L171.123 35.3143L171.148 46.899L161.5 50.5129V38.9794Z" fill="#FF8098"/>
<path d="M113.311 140.986L120.335 123.84L132.453 127.659L125.455 144.805L113.311 140.986Z" fill="#0E2951"/>
<path d="M118.02 137.731L121.57 128.966L127.771 130.914L124.195 139.679L118.02 137.731Z" fill="#6780B3"/>
<path d="M113.232 57.1252L132.529 49.8719V68.3511L113.232 75.6044V57.1252Z" fill="#3D95D1"/>
<path d="M113.232 57.1252L132.529 49.8719V63.2764L113.232 70.5297V57.1252Z" fill="#6780B3"/>
<path d="M113.232 57.1252L132.529 49.8719V58.176L113.232 65.4549V57.1252Z" fill="#053866"/>
<path d="M113.232 57.1252L132.529 49.8719V54.024L113.232 61.3029V57.1252Z" fill="#0E2951"/>
<path d="M151.826 106.36L132.529 113.613L151.826 93.4171L132.529 100.67" fill="#0E2951"/>
<path d="M171.175 104.848L168.396 105.771V82.2169L171.175 81.2942V104.848Z" fill="#709FDC"/>
<path d="M167.521 106.053L164.742 106.975V83.8829L167.521 82.9602V106.053Z" fill="#709FDC"/>
<path d="M155.944 110.41L153.139 111.332L153.088 88.2143L155.867 87.2916L155.944 110.41Z" fill="#709FDC"/>
<path d="M159.803 108.949L156.998 109.872V86.7791L159.803 85.8564V108.949Z" fill="#709FDC"/>
<path d="M163.662 107.514L160.857 108.436V85.3438L163.662 84.4211V107.514Z" fill="#709FDC"/>
<path d="M151.826 65.7113L171.149 58.4324V81.5249L151.826 88.8038V65.7113Z" fill="#0E2951"/>
<path d="M151.826 111.871L171.149 104.617V127.71L151.826 134.963V111.871Z" fill="#053866"/>
<path d="M151.826 65.7112L161.5 62.0718V73.6052L151.826 77.2447V65.7112Z" fill="#3D95D1"/>
<path d="M154.478 133.938L152.162 134.861C152.162 119.15 160.884 109.641 171.176 105.771V108.077C161.888 111.563 154.478 123.327 154.478 133.938Z" fill="#B9D5FD"/>
<path d="M159.597 132.093L156.818 133.016C156.818 121.943 163.456 113.204 171.201 110.282V113.05C164.434 115.587 159.597 123.968 159.597 132.093Z" fill="#3D95D1"/>
<path d="M164.511 130.247L161.912 131.17C161.912 124.25 165.849 117.586 171.123 115.587L171.175 118.227C167.058 119.79 164.511 125.25 164.511 130.247Z" fill="#3376B3"/>
<path d="M168.859 128.402L166.543 129.325C166.08 125.634 168.241 121.969 171.123 120.892L171.174 123.789C169.348 124.455 168.859 126.172 168.859 128.402Z" fill="#709FDC"/>
<path d="M140.3 56.049L144.082 54.6137V58.9964L137.444 61.5081V53.8448L146.938 50.2566V61.2262L134.588 65.8909V51.5381L149.794 45.8226V64.0199L134.588 69.761" stroke="#3D95D1" stroke-width="5" stroke-miterlimit="10"/>
<path d="M109.76 61.2004L96.6387 83.7035" stroke="#0E2951" stroke-width="6" stroke-miterlimit="10"/>
<path d="M96.6387 66.1469L109.76 78.7568" stroke="#0E2951" stroke-width="6" stroke-miterlimit="10"/>
<path d="M125.582 90.3416L128.67 89.1882V92.8789L125.582 94.0579V90.3416Z" fill="#B9D5FD"/>
<path d="M121.338 86.8816L124.425 85.7026V89.3933L121.338 90.5723V86.8816Z" fill="#B9D5FD"/>
<path d="M117.092 83.396L120.179 82.217V85.9334L117.092 87.0867V83.396Z" fill="#B9D5FD"/>
<path d="M156.484 40.876L171.124 35.3143L171.15 52.8964L156.484 58.4069V40.876Z" fill="#053866"/>
<path d="M160.42 39.3639L171.123 35.3143L171.149 48.1549L160.42 52.2044V39.3639Z" fill="#709FDC"/>
<path d="M161.5 73.6053L171.148 69.9915V81.5249L161.5 85.1643V73.6053Z" fill="#3D95D1"/>
<path d="M139.656 46.6681L171.123 35.3141L94.2188 6.4292L63.627 18.0139L139.656 46.6681Z" fill="#0D3760"/>
<path d="M133.482 49.5132L93.7049 64.4042L16.8008 35.5705L56.6294 20.6283L133.482 49.5132Z" fill="#0D3659"/>
<path d="M135.952 3.19995L94.1678 6.48058L17.2637 35.3398L58.9447 32.1617L135.952 3.19995Z" fill="#043D60"/>
<path d="M171.176 35.3399L142.385 7.14697L65.3008 36.1088L94.2202 64.4298L171.176 35.3399Z" fill="#03446B"/>
<path d="M94 99.1999V64.3999L170.8 34.7999L223.6 34.3999L215.6 52.3999L223.6 70.3999L171.2 70.5932L94 99.1999Z" fill="#B4D1FA"/>
<path d="M115.501 81.9395L116.387 81.6111L116.252 79.8945L121.559 77.9282L121.695 79.6449L122.581 79.3165L122.364 76.5671L121.712 76.8084L121.059 68.5322L116.702 70.1463L116.633 74.9839C116.583 78.2489 116.14 78.9014 115.291 79.2877L115.501 81.9395ZM117.516 74.7433L117.574 70.8863L120.254 69.8933L120.826 77.1368L116.704 78.6639C117.187 77.9536 117.489 76.7784 117.516 74.7433ZM124.428 76.8654L127.996 67.9015L128.582 75.3264L129.469 74.998L128.733 65.689L127.826 66.0253L124.299 74.8158L123.725 67.5445L122.839 67.8729L123.574 77.1819L124.428 76.8654ZM133.305 73.7492C134.907 73.1557 135.885 71.6297 135.763 70.0805C135.645 68.5871 134.595 68.2293 133.938 68.4009C134.588 68.0021 135.411 67.0077 135.305 65.6679C135.18 64.0908 133.955 63.6109 132.556 64.1292C131.424 64.5485 130.566 65.5128 130.096 66.5201L130.645 67.0639C131.12 66.1264 131.762 65.4864 132.574 65.1857C133.513 64.8375 134.326 65.111 134.408 66.1437C134.493 67.2184 133.75 67.9678 132.799 68.3199L131.347 68.8579L131.428 69.8907L132.881 69.3526C133.97 68.9491 134.767 69.1567 134.858 70.3151C134.943 71.3898 134.323 72.3089 133.202 72.7243C132.326 73.0487 131.453 72.8409 130.968 72.2734L130.503 73.207C131.018 73.8782 132.056 74.2121 133.305 73.7492ZM143.469 69.8115L139.861 61.5667L138.761 61.9742L136.634 72.3435L137.649 71.9676L138.116 69.6687L141.661 68.3552L142.454 70.1874L143.469 69.8115ZM141.312 67.4213L138.29 68.5409L139.411 62.9687L141.312 67.4213ZM145.254 69.15L148.822 60.1862L149.408 67.6111L150.295 67.2827L149.56 57.9737L148.652 58.31L145.125 67.1005L144.551 59.8291L143.665 60.1575L144.4 69.4665L145.254 69.15ZM148.342 56.6147L147.912 56.3145C147.63 57.0652 147.137 57.6359 146.517 57.8653C145.887 58.0988 145.344 57.8979 144.954 57.4104L144.594 58.0034C145.091 58.5948 145.812 58.8161 146.57 58.5353C147.339 58.2504 147.974 57.5266 148.342 56.6147ZM157.898 64.4659L157.163 55.1569L156.277 55.4852L156.593 59.4907L152.428 61.0337L152.112 57.0281L151.226 57.3565L151.961 66.6655L152.847 66.3371L152.51 62.0664L156.675 60.5235L157.012 64.7942L157.898 64.4659Z" fill="black"/>
<path d="M223.601 34.3999L170.801 34.7999L171.198 70.3999H223.601L215.661 52.3999L223.601 34.3999Z" fill="black" fill-opacity="0.05"/>
<path d="M198.031 58.2833C197.315 57.4424 196.053 57.3415 195.212 58.0578C194.757 58.4452 194.519 58.9922 194.509 59.5459L194.986 60.8772C195.703 61.718 196.965 61.819 197.806 61.1027C198.646 60.3864 198.747 59.1241 198.031 58.2833Z" fill="#C43B55"/>
<path d="M194.623 47.2654C195.279 46.3766 195.09 45.1245 194.201 44.4686C193.72 44.114 193.134 44.0063 192.592 44.1228L191.404 44.8905C190.748 45.7792 190.937 47.0314 191.826 47.6872C192.715 48.3431 193.967 48.1542 194.623 47.2654Z" fill="#C43B55"/>
<path d="M189.605 51.7855C190.261 50.8967 190.072 49.6445 189.184 48.9887C188.703 48.634 188.116 48.5263 187.575 48.6429L186.387 49.4105C185.731 50.2993 185.92 51.5514 186.809 52.2073C187.697 52.8631 188.949 52.6742 189.605 51.7855Z" fill="#C43B55"/>
<path d="M207 52.4998C207 59.1272 201.627 64.9998 195 64.9998C193.833 64.9998 192 64.4998 191.5 63.9998C190.735 63.2343 193.678 57.9493 186 55.9998C185 55.6664 183 54.4998 183 52.4998C183 45.8723 188.373 40.4998 195 40.4998C199.337 40.4998 203.137 42.801 205.246 46.2492" stroke="black" stroke-linecap="round" stroke-linejoin="round"/>
<path d="M185.5 44.0001C185.5 36.0002 182.5 35.9998 182.5 44.0001V55.9998H185.5V44.0001Z" fill="#C43B55"/>
<path d="M182.5 44.0001C182.5 35.9998 185.5 36.0001 185.5 44.0001V55.9998M182.5 55.9998V59.0001L185.5 59.0002V55.9998M182.5 55.9998H185.5M182.5 55.9998V46.4998" stroke="black" stroke-linecap="round"/>
<path d="M181.5 63.4999C181.5 59.9998 182 59.4998 184 59.4999L185.5 59.4998C189.5 63.9998 184 66.9998 179 65.9998C181 65.9998 181.5 64.4998 181.5 63.4999Z" fill="#C43B55"/>
<path d="M183.903 65.973C182.488 66.5182 180.714 66.6638 179 66.2982C180.961 66.2982 181.452 64.7293 181.451 63.6836C181.451 60.0227 181.942 59.4998 183.903 59.4999L183.99 59.4999C185.178 59.4998 186.424 59.983 186.811 61.1056C187.358 62.6955 186.645 64.0281 185.594 64.9711" stroke="black" stroke-linecap="round" stroke-linejoin="round"/>
<path d="M193 47.9998C194.105 47.9998 195 47.1043 195 45.9998C195 44.8952 194.105 43.9998 193 43.9998C191.895 43.9998 191 44.8952 191 45.9998C191 46.507 191.189 46.9701 191.5 47.3227" stroke="black" stroke-linecap="round"/>
<path d="M198.068 48.5174C198.354 49.5844 199.451 50.2175 200.517 49.9316C201.094 49.777 201.545 49.3853 201.791 48.8894L201.932 47.4821C201.646 46.4152 200.549 45.782 199.482 46.0679C198.415 46.3538 197.782 47.4505 198.068 48.5174Z" fill="#C43B55"/>
<path d="M200.515 52.6809C199.539 53.1969 199.165 54.4069 199.681 55.3836C199.96 55.9117 200.442 56.2635 200.981 56.3936L202.384 56.2177C203.361 55.7017 203.734 54.4917 203.218 53.5151C202.702 52.5384 201.492 52.165 200.515 52.6809Z" fill="#C43B55"/>
<path d="M200 45.9998C198.895 45.9998 198 46.8952 198 47.9998C198 49.1043 198.895 49.9998 200 49.9998C201.105 49.9998 202 49.1043 202 47.9998C202 47.4024 201.738 46.8662 201.323 46.4998" stroke="black" stroke-linecap="round"/>
<path d="M203.5 54.4998C203.5 53.3952 202.605 52.4998 201.5 52.4998C200.395 52.4998 199.5 53.3952 199.5 54.4998C199.5 55.6043 200.395 56.4998 201.5 56.4998C202.007 56.4998 202.47 56.3109 202.823 55.9998" stroke="black" stroke-linecap="round"/>
<path d="M196.5 61.4998C195.395 61.4998 194.5 60.6043 194.5 59.4998C194.5 58.3952 195.395 57.4998 196.5 57.4998C197.605 57.4998 198.5 58.3952 198.5 59.4998C198.5 59.864 198.403 60.2056 198.232 60.4998" stroke="black" stroke-linecap="round"/>
<path d="M188 52.4998C186.895 52.4998 186 51.6043 186 50.4998C186 49.3952 186.895 48.4998 188 48.4998C189.105 48.4998 190 49.3952 190 50.4998C190 50.9013 189.882 51.2752 189.678 51.5885" stroke="black" stroke-linecap="round"/>
</svg>
