<svg width="260" height="192" viewBox="0 0 260 192" fill="none" xmlns="http://www.w3.org/2000/svg">
<path d="M97.0164 192L0.582133 155.926L0.549805 40.2708L97.0487 76.3769L97.0164 192Z" fill="#053866"/>
<path d="M193.709 155.638L97.1777 119.403L97.2747 4.03668L193.903 40.1428L193.709 155.638Z" fill="#102E5B"/>
<path d="M97.0166 192L193.903 155.51V40.1429L97.0489 76.3772L97.0166 192Z" fill="#054270"/>
<path d="M0.582133 155.926L97.2104 119.147L97.275 4.03668L0.549805 40.271L0.582133 155.926Z" fill="#0A2D49"/>
<path d="M97.0164 192L0.582133 155.894L0.549805 40.2708L97.0487 76.3769L97.0164 192Z" fill="#053866"/>
<path d="M24.6665 78.3953L0.582133 69.3287L0.549805 40.2708L24.6665 49.5296V78.3953Z" fill="#053866"/>
<path d="M6.98317 68.1754C4.7922 68.2312 2.61316 67.8386 0.582234 67.0221L0.517578 63.9144C5.46375 65.7726 10.216 65.4202 13.8367 62.9533C18.201 59.9738 20.9488 55.1042 20.9488 47.9598L23.8584 49.1132C23.8584 57.1866 21.4338 61.7679 16.2936 65.2921C13.5376 67.1268 10.303 68.1286 6.98317 68.1754Z" fill="#B9D5FD"/>
<path d="M48.7503 87.462L24.666 78.3955V49.5298L48.7503 58.5964V87.462Z" fill="#0E2951"/>
<path d="M72.8343 96.5285L48.75 87.462V58.5963L72.8343 67.6629V96.5285Z" fill="#709FDC"/>
<path d="M96.9183 105.467L72.834 96.5285V67.6628L97.0476 76.3769L96.9183 105.467Z" fill="#6780B3"/>
<path d="M24.6663 107.261L0.582031 98.1946V69.3289L24.6663 78.3955V107.261Z" fill="#B9D5FD"/>
<path d="M48.7503 116.328L24.666 107.261V78.3954L48.7503 87.462V116.328Z" fill="#274684"/>
<path d="M72.8343 125.394L48.75 116.328V87.4621L72.8343 96.5286V125.394Z" fill="#3D95D1"/>
<path d="M96.9183 134.333L72.834 125.394V96.5287L96.9183 105.467V134.333Z" fill="#B9D5FD"/>
<path d="M48.7503 145.194L24.666 136.127V107.261L48.7503 116.328V145.194Z" fill="#B9D5FD"/>
<path d="M72.8343 154.26L48.75 145.193V116.328L72.8343 125.394V154.26Z" fill="#0E2951"/>
<path d="M96.9183 163.198L72.834 154.26V125.394L96.9183 134.333V163.198Z" fill="#709FDC"/>
<path d="M24.6663 164.993L0.582031 155.894V127.028L24.6663 136.127V164.993Z" fill="#6780B3"/>
<path d="M48.7503 174.059L24.666 164.992V136.127L48.7503 145.193V174.059Z" fill="#053866"/>
<path d="M72.8343 183.125L48.75 174.059V145.193L72.8343 154.26V183.125Z" fill="#B9D5FD"/>
<path d="M97.0153 192L72.834 183.126V154.26L96.9183 163.198L97.0153 192Z" fill="#3D95D1"/>
<path d="M5.49588 62.1846C3.81118 62.2098 2.13905 61.8936 0.582031 61.2555V57.7955C4.04112 59.109 8.30841 58.6605 10.4421 57.2509C13.9981 54.9121 15.7438 51.2919 15.7438 46.2621L18.6534 47.4154C18.6534 53.5986 16.4227 57.379 12.4464 60.1022C10.3942 61.4746 7.97152 62.2004 5.49588 62.1846Z" fill="#3D95D1"/>
<path d="M3.7825 55.5206C2.68409 55.5461 1.59288 55.3385 0.582031 54.9119V51.4518C2.65102 52.2207 5.81916 52.0285 7.56487 50.2985C9.40756 48.4723 9.89248 46.9986 9.89248 43.9551L12.802 45.1084C12.802 49.3374 11.3472 52.1887 8.56703 54.0469C7.16331 55.0145 5.4924 55.5292 3.7825 55.5206Z" fill="#3376B3"/>
<path d="M2.1661 48.857C1.62174 48.8993 1.07567 48.7999 0.582031 48.5686V45.1086C1.09928 45.3008 2.81266 45.429 3.49155 45.1086C4.65535 44.5319 4.65535 43.3786 4.07345 41.6486L7.56487 42.8019C7.56487 45.2047 6.69201 46.8706 5.07562 47.992C4.21143 48.5548 3.20023 48.8555 2.1661 48.857Z" fill="#709FDC"/>
<path d="M96.3052 159.162L75.9062 151.505V101.622L96.6931 109.151V113.188L79.3977 106.62V149.102L96.1112 155.349L96.3052 159.162Z" fill="#274684"/>
<path d="M96.6931 159.963L75.9062 151.505V126.067L79.3977 127.22V149.102L96.6931 155.926V159.963Z" fill="#0E2951"/>
<path d="M96.3056 151.665L81.6934 146.155V110.145L96.6935 115.527V119.564L85.1848 115.142V144.36L96.6935 148.429L96.3056 151.665Z" fill="#274684"/>
<path d="M96.3045 144.745L87.9639 141.605V120.588L96.6924 123.6V127.637L91.4553 125.586V139.202L96.6924 141.477L96.3045 144.745Z" fill="#274684"/>
<path d="M96.6924 144.937L87.9639 141.605V130.584L91.4553 131.738V139.203L96.6924 140.901V144.937Z" fill="#0E2951"/>
<path d="M96.6935 152.466L81.6934 146.731V128.246L85.1848 129.399V144.36L96.6935 148.429V152.466Z" fill="#0E2951"/>
<path d="M18.8797 162.814L0.582031 155.894V133.98L18.8797 140.868V162.814Z" fill="#053866"/>
<path d="M12.6404 160.443L0.582031 155.894V141.477L12.6404 146.027V160.443Z" fill="#709FDC"/>
<path d="M72.738 78.2352L64.0095 93.0685L48.8477 76.8897L57.6085 62.0564L72.738 78.2352Z" fill="#0E2951"/>
<path d="M66.8869 77.915L62.4256 85.4758L54.6992 77.2422L59.1605 69.6494L66.8869 77.915Z" fill="#6780B3"/>
<path d="M72.8343 183.126L48.75 174.059V150.96L72.8343 160.027V183.126Z" fill="#3D95D1"/>
<path d="M72.8343 183.126L48.75 174.059V157.304L72.8343 166.37V183.126Z" fill="#6780B3"/>
<path d="M72.8343 183.126L48.75 174.059V163.647L72.8343 172.746V183.126Z" fill="#053866"/>
<path d="M72.8343 183.126L48.75 174.059V168.869L72.8343 177.936V183.126Z" fill="#0E2951"/>
<path d="M24.666 85.2834L48.7503 94.35L24.666 101.494L48.7503 110.561L24.666 85.2834Z" fill="#0E2951"/>
<path d="M3.49155 99.3479L0.582031 98.1946V69.3289L3.49155 70.4823V99.3479Z" fill="#709FDC"/>
<path d="M8.14682 101.078L5.2373 99.9247V71.0591L8.14682 72.2124V101.078Z" fill="#709FDC"/>
<path d="M23.3089 106.845L20.3994 105.691V76.8257L23.3089 77.9791V106.845Z" fill="#709FDC"/>
<path d="M18.2326 104.73L14.7412 103.577V74.7433L18.2326 75.8967V104.73Z" fill="#709FDC"/>
<path d="M12.8021 102.808L9.89258 101.654V72.7888L12.8021 73.9421V102.808Z" fill="#709FDC"/>
<path d="M24.6663 136.127L0.582031 127.028V98.1946L24.6663 107.261V136.127Z" fill="#0E2951"/>
<path d="M24.6666 136.127L12.6406 131.577V117.161L24.6666 121.678V136.127Z" fill="#3D95D1"/>
<path d="M12.6404 117.161L0.582031 112.611V98.1946L12.6404 102.712V117.161Z" fill="#3D95D1"/>
<path d="M39.1813 159.194L34.2351 157.335V151.633L42.899 154.901V164.896L30.5174 160.219V145.93L46.5844 151.985V170.663L26.832 163.198V139.523L46.5844 146.955" stroke="#3D95D1" stroke-width="3" stroke-miterlimit="10"/>
<path d="M77.167 181.299L93.5573 165.537" stroke="#0E2951" stroke-width="6" stroke-miterlimit="10"/>
<path d="M93.5573 187.451L77.167 159.354" stroke="#0E2951" stroke-width="6" stroke-miterlimit="10"/>
<path d="M57.4144 129.976L53.5674 128.534V123.921L57.4144 125.362V129.976Z" fill="#B9D5FD"/>
<path d="M62.7162 138.337L58.8691 136.864V132.25L62.7162 133.692V138.337Z" fill="#B9D5FD"/>
<path d="M68.0179 146.667L64.1709 145.225V140.612L68.0179 142.054V146.667Z" fill="#B9D5FD"/>
<path d="M97.0489 76.3772L193.903 40.1429L193.936 155.638L97.0166 192L97.0489 76.3772Z" fill="#053866"/>
<path d="M169.657 107.005L193.936 97.9062V126.772L169.657 135.838V107.005Z" fill="#B9D5FD"/>
<path d="M145.411 116.072L169.657 107.005V135.839L145.411 144.937V116.072Z" fill="#274684"/>
<path d="M121.165 125.138L145.411 116.072V144.937L121.165 154.004V125.138Z" fill="#053866"/>
<path d="M96.9189 134.333L121.165 125.138V154.004L96.9189 163.199V134.333Z" fill="#B9D5FD"/>
<path d="M145.411 87.2058L169.657 78.1392V107.005L145.411 116.071V87.2058Z" fill="#B9D5FD"/>
<path d="M121.165 96.2722L145.411 87.2056V116.071L121.165 125.138V96.2722Z" fill="#0E2951"/>
<path d="M96.9189 105.467L121.165 96.2724V125.138L96.9189 134.333V105.467Z" fill="#709FDC"/>
<path d="M145.411 144.937L169.657 135.838V164.704L145.411 173.803V144.937Z" fill="#0E2951"/>
<path d="M121.165 154.004L145.411 144.937V173.803L121.165 182.869V154.004Z" fill="#709FDC"/>
<path d="M96.9189 163.198L121.165 154.003V182.869L97.0159 192L96.9189 163.198Z" fill="#6780B3"/>
<path d="M169.657 49.2736L193.903 40.1429L193.936 69.0407L169.657 78.1393V49.2736Z" fill="#6780B3"/>
<path d="M145.411 58.3402L169.657 49.2736V78.1392L145.411 87.2058V58.3402Z" fill="#053866"/>
<path d="M121.165 67.4064L145.411 58.3399V87.2055L121.165 96.2721V67.4064Z" fill="#B9D5FD"/>
<path d="M97.0483 76.3771L121.165 67.4066V96.2723L96.9189 105.467L97.0483 76.3771Z" fill="#3D95D1"/>
<path d="M96.6926 159.963V155.926L114.57 148.846V106.364L97.5332 112.74L96.3047 109.504L118.061 101.366V151.249L96.6926 159.963Z" fill="#274684"/>
<path d="M118.062 126.964L114.571 128.118V106.364L96.6934 113.188V109.151L118.062 101.366V126.964Z" fill="#0E2951"/>
<path d="M96.6934 152.466V148.429L108.752 143.527V114.886L96.6934 119.563V115.527L112.243 111.041V145.93L96.6934 152.466Z" fill="#274684"/>
<path d="M96.6926 144.937V140.901L102.447 138.946V125.33L97.5332 127.189L96.3047 123.953L105.938 120.333V141.349L96.6926 144.937Z" fill="#274684"/>
<path d="M105.939 130.905L102.448 132.058V125.33L96.6934 127.637V123.6L105.939 120.333V130.905Z" fill="#0E2951"/>
<path d="M112.243 129.143L108.752 130.296V114.886L96.6934 119.564V115.527L112.243 109.888V129.143Z" fill="#0E2951"/>
<path d="M181.812 44.7243L193.903 40.1429L193.935 54.6238L181.812 59.1411V44.7243Z" fill="#FF8098"/>
<path d="M121.262 172.233L130.087 150.8L145.314 155.573L136.521 177.006L121.262 172.233Z" fill="#0E2951"/>
<path d="M127.179 168.164L131.64 157.207L139.431 159.642L134.937 170.599L127.179 168.164Z" fill="#6780B3"/>
<path d="M121.165 67.4064L145.411 58.3399V81.4388L121.165 90.5054V67.4064Z" fill="#3D95D1"/>
<path d="M121.165 67.4065L145.411 58.3399V75.0954L121.165 84.162V67.4065Z" fill="#6780B3"/>
<path d="M121.165 67.4064L145.411 58.3399V68.72L121.165 77.8186V67.4064Z" fill="#053866"/>
<path d="M121.165 67.4065L145.411 58.3399V63.5299L121.165 72.6285V67.4065Z" fill="#0E2951"/>
<path d="M169.657 128.95L145.411 138.017L169.657 112.772L145.411 121.838" fill="#0E2951"/>
<path d="M193.968 127.06L190.477 128.214V98.7711L193.968 97.6178V127.06Z" fill="#709FDC"/>
<path d="M189.377 128.566L185.886 129.719V100.854L189.377 99.7003V128.566Z" fill="#709FDC"/>
<path d="M174.83 134.012L171.306 135.166L171.241 106.268L174.733 105.115L174.83 134.012Z" fill="#709FDC"/>
<path d="M179.678 132.186L176.154 133.34V104.474L179.678 103.321V132.186Z" fill="#709FDC"/>
<path d="M184.528 130.392L181.004 131.546V102.68L184.528 101.527V130.392Z" fill="#709FDC"/>
<path d="M169.657 78.1393L193.936 69.0407V97.9064L169.657 107.005V78.1393Z" fill="#0E2951"/>
<path d="M169.657 135.838L193.936 126.772V155.637L169.657 164.704V135.838Z" fill="#053866"/>
<path d="M169.657 78.1391L181.813 73.5898V88.0066L169.657 92.5559V78.1391Z" fill="#3D95D1"/>
<path d="M172.987 163.423L170.077 164.576C170.077 144.937 181.036 133.051 193.967 128.213V131.097C182.297 135.454 172.987 150.159 172.987 163.423Z" fill="#B9D5FD"/>
<path d="M179.421 161.116L175.93 162.27C175.93 148.429 184.27 137.505 194.001 133.852V137.312C185.499 140.484 179.421 150.96 179.421 161.116Z" fill="#3D95D1"/>
<path d="M185.594 158.809L182.329 159.963C182.329 151.313 187.275 142.983 193.903 140.484L193.967 143.784C188.795 145.738 185.594 152.562 185.594 158.809Z" fill="#3376B3"/>
<path d="M191.059 156.502L188.149 157.656C187.567 153.042 190.283 148.461 193.903 147.116L193.968 150.736C191.673 151.569 191.059 153.715 191.059 156.502Z" fill="#709FDC"/>
<path d="M155.174 66.0612L159.926 64.2671V69.7455L151.585 72.8852V63.306L163.514 58.8208V72.5328L147.997 78.3636V60.4226L167.103 53.2783V76.0248L147.997 83.2012" stroke="#3D95D1" stroke-width="5" stroke-miterlimit="10"/>
<path d="M116.801 72.5007L100.313 100.63" stroke="#0E2951" stroke-width="6" stroke-miterlimit="10"/>
<path d="M100.313 78.6836L116.801 94.446" stroke="#0E2951" stroke-width="6" stroke-miterlimit="10"/>
<path d="M136.683 108.927L140.562 107.485V112.099L136.683 113.572V108.927Z" fill="#B9D5FD"/>
<path d="M131.348 104.602L135.227 103.128V107.742L131.348 109.215V104.602Z" fill="#B9D5FD"/>
<path d="M126.014 100.245L129.893 98.7713V103.417L126.014 104.858V100.245Z" fill="#B9D5FD"/>
<path d="M175.508 47.0951L193.902 40.1429L193.935 62.1206L175.508 69.0086V47.0951Z" fill="#053866"/>
<path d="M180.455 45.2049L193.903 40.1429L193.936 56.1937L180.455 61.2556V45.2049Z" fill="#709FDC"/>
<path d="M181.812 88.0066L193.935 83.4893V97.9061L181.812 102.455V88.0066Z" fill="#3D95D1"/>
<path d="M154.366 54.3354L193.903 40.1428L97.2748 4.03668L58.8369 18.5176L154.366 54.3354Z" fill="#0D3760"/>
<path d="M146.607 57.8915L96.6282 76.5052L0 40.4632L50.0437 21.7854L146.607 57.8915Z" fill="#0D3659"/>
<path d="M149.711 0L97.2103 4.10078L0.582031 40.1749L52.9533 36.2022L149.711 0Z" fill="#043D60"/>
<path d="M193.968 40.1749L157.793 4.93378L60.9385 41.136L97.2751 76.5373L193.968 40.1749Z" fill="#03446B"/>
<path d="M96.4453 121.237V76.6135L194 40.2812H260L250 62.8907L260 85.5002H194L96.4453 121.237Z" fill="#B4D1FA"/>
<path d="M118.263 87.1395C119.934 86.5067 120.906 84.8244 120.906 82.8984C120.906 81.4584 120.098 80.4504 119.126 80.6207C119.961 80.0703 120.728 78.7718 120.728 77.2598C120.728 75.4598 119.756 74.5681 118.167 75.1698L114.101 76.7104V88.7164L118.263 87.1395ZM117.976 80.4444L115.237 81.4819V77.6119L117.976 76.5744C119.003 76.1854 119.55 76.8419 119.55 77.9219C119.55 79.0199 119.003 80.0554 117.976 80.4444ZM118.031 85.8957L115.237 86.9539V82.8139L118.031 81.7557C119.153 81.3303 119.728 82.0845 119.728 83.1825C119.728 84.4605 119.099 85.4911 118.031 85.8957ZM127.559 83.8339C130.257 82.812 132.091 79.4529 132.091 75.9069C132.091 72.3609 130.257 70.392 127.559 71.4139C124.848 72.441 123.027 75.7949 123.027 79.3409C123.027 82.8869 124.848 84.861 127.559 83.8339ZM127.559 82.5019C125.505 83.28 124.205 81.6848 124.205 78.8948C124.205 76.0868 125.505 73.524 127.559 72.7459C129.599 71.973 130.914 73.545 130.914 76.353C130.914 79.143 129.599 81.729 127.559 82.5019ZM135.688 80.5385V75.7685L138.221 74.8089C140.028 74.1242 141.083 72.0688 141.083 70.1068C141.083 68.1448 140.056 66.8778 138.221 67.5729L134.551 68.9631V80.9691L135.688 80.5385ZM138.084 73.5288L135.688 74.4365V69.8645L138.084 68.9568C139.166 68.547 139.905 69.2029 139.905 70.5529C139.905 71.9029 139.166 73.119 138.084 73.5288ZM147.435 76.3044C150.132 75.2825 151.967 71.9234 151.967 68.3774C151.967 64.8314 150.132 62.8625 147.435 63.8844C144.724 64.9114 142.902 68.2653 142.902 71.8113C142.902 75.3573 144.724 77.3315 147.435 76.3044ZM147.435 74.9724C145.381 75.7505 144.08 74.1552 144.08 71.3652C144.08 68.5572 145.381 65.9945 147.435 65.2164C149.475 64.4435 150.789 66.0155 150.789 68.8235C150.789 71.6135 149.475 74.1995 147.435 74.9724ZM162.04 70.5555V58.5495L160.903 58.98V64.146L155.563 66.169V61.003L154.427 61.4336V73.4396L155.563 73.009V67.501L160.903 65.478V70.986L162.04 70.5555ZM171.788 66.8627L167.653 62.1292L171.459 54.9812L170.035 55.5206L165.996 63.2608V57.0508L164.859 57.4814V69.4874L165.996 69.0568V65.0248L166.913 63.3093L170.377 67.3969L171.788 66.8627ZM181.586 63.1508L177.902 52.5401L176.492 53.0744L172.823 66.4706L174.123 65.9778L174.931 63.0078L179.477 61.2856L180.285 63.6436L181.586 63.1508ZM179.135 60.0833L175.26 61.5513L177.204 54.3527L179.135 60.0833ZM124.791 106.667V94.6607L117.178 97.5448V109.551L118.314 109.12V98.4463L123.654 96.4233V107.097L124.791 106.667ZM128.747 105.168V100.398L131.28 99.4385C133.087 98.7538 134.141 96.6984 134.141 94.7364C134.141 92.7744 133.114 91.5074 131.28 92.2025L127.61 93.5926V105.599L128.747 105.168ZM131.143 98.1583L128.747 99.0661V94.4941L131.143 93.5863C132.224 93.1766 132.964 93.8324 132.964 95.1824C132.964 96.5324 132.224 97.7486 131.143 98.1583ZM140.494 100.934C143.191 99.9121 145.026 96.553 145.026 93.007C145.026 89.461 143.191 87.4921 140.494 88.5139C137.782 89.541 135.961 92.8949 135.961 96.4409C135.961 99.9869 137.782 101.961 140.494 100.934ZM140.494 99.6019C138.44 100.38 137.139 98.7848 137.139 95.9948C137.139 93.1868 138.44 90.624 140.494 89.8459C142.534 89.0731 143.848 90.6451 143.848 93.4531C143.848 96.2431 142.534 98.8291 140.494 99.6019ZM146.348 100.714L147.484 100.284V98.0697L154.289 95.4917V97.7057L155.426 97.2751V93.7291L154.59 94.0455V83.3715L149.004 85.4879L148.443 91.7306C148.059 95.9438 147.443 96.7892 146.348 97.2942V100.714ZM149.565 91.4132L150.017 86.4361L153.454 85.1341V94.4761L148.169 96.4783C148.84 95.5582 149.333 94.0394 149.565 91.4132ZM165.375 91.2918L161.692 80.6812L160.282 81.2155L156.612 94.6116L157.913 94.1188L158.721 91.1488L163.267 89.4267L164.075 91.7846L165.375 91.2918ZM162.924 88.2243L159.05 89.6923L160.994 82.4937L162.924 88.2243ZM167.829 90.3623L171.293 83.6499L171.841 84.2704V88.8424L172.978 88.4119V83.8399L173.525 82.8044L176.989 86.892L178.413 86.3526L174.265 81.6243L178.085 74.4711L176.661 75.0105L172.978 82.0579V76.4059L171.841 76.8364V82.4884L168.171 78.2266L166.747 78.7661L170.554 83.03L166.419 90.8965L167.829 90.3623Z" fill="black"/>
<path d="M194 40.2988H260L250 62.8994L260 85.5H194V40.2988Z" fill="black" fill-opacity="0.05"/>
<path d="M226.01 74.9203C222.042 75.7705 218.925 75.2745 217.862 74.9203V78.1085C221.83 80.3757 224.947 79.0532 226.01 78.1085V74.9203Z" fill="#C43B55"/>
<path d="M214.32 70.3146L210.777 64.2924C219.279 67.4098 230.025 65.7094 233.804 64.2924L229.553 70.3146C222.751 72.2984 216.563 71.1412 214.32 70.3146Z" fill="#C43B55"/>
<path d="M204.044 54.7281L207.232 59.6876C213.184 63.0884 228.842 62.1673 235.572 60.7503L240.532 54.0196C226.929 59.6876 210.539 56.8536 204.044 54.7281Z" fill="#C43B55"/>
<path fill-rule="evenodd" clip-rule="evenodd" d="M221.799 47.3937C220.74 47.3937 219.701 47.4156 218.688 47.4579C218.303 47.4739 217.977 47.1752 217.961 46.7907C217.945 46.4062 218.244 46.0814 218.629 46.0654C219.662 46.0223 220.721 46 221.799 46C227.334 46 232.369 46.5887 236.041 47.5537C237.872 48.0348 239.404 48.6196 240.495 49.2972C241.549 49.9517 242.387 50.8206 242.387 51.9232C242.387 53.0258 241.549 53.8947 240.495 54.5492C239.404 55.2268 237.872 55.8116 236.041 56.2927C232.369 57.2577 227.334 57.8464 221.799 57.8464C216.265 57.8464 211.229 57.2577 207.557 56.2927C205.726 55.8116 204.194 55.2268 203.103 54.5492C202.05 53.8947 201.211 53.0258 201.211 51.9232C201.211 51.0305 201.766 50.2915 202.507 49.7111C203.258 49.123 204.31 48.6068 205.568 48.1604C208.091 47.2648 211.601 46.5949 215.634 46.2534C216.018 46.2209 216.355 46.5054 216.388 46.8889C216.42 47.2724 216.136 47.6096 215.751 47.6421C211.786 47.9779 208.405 48.6323 206.035 49.4735C204.847 49.8955 203.952 50.3507 203.369 50.8078C202.775 51.2727 202.607 51.6525 202.607 51.9232C202.607 52.2638 202.881 52.7698 203.841 53.3659C204.763 53.9388 206.144 54.4802 207.912 54.9449C211.439 55.8715 216.349 56.4527 221.799 56.4527C227.25 56.4527 232.16 55.8715 235.686 54.9449C237.455 54.4802 238.835 53.9388 239.758 53.3659C240.717 52.7698 240.992 52.2638 240.992 51.9232C240.992 51.5826 240.717 51.0766 239.758 50.4805C238.835 49.9076 237.455 49.3662 235.686 48.9015C232.16 47.9749 227.25 47.3937 221.799 47.3937Z" fill="black"/>
<path fill-rule="evenodd" clip-rule="evenodd" d="M241.032 53.086C241.352 53.3 241.438 53.7329 241.223 54.0527L226.86 75.479V77.287C226.86 78.3495 226.164 79.334 225.083 79.5992C222.824 80.1532 221.127 80.1349 218.885 79.5946C217.797 79.3327 217.089 78.346 217.089 77.2735V75.8274L202.725 54.4011C202.511 54.0813 202.597 53.6485 202.917 53.4344C203.238 53.2203 203.671 53.306 203.885 53.6259L218.367 75.2281C218.444 75.3428 218.485 75.4777 218.485 75.6157V77.2735C218.485 77.747 218.794 78.1392 219.212 78.2398C221.247 78.73 222.717 78.7443 224.75 78.2457C225.159 78.1452 225.464 77.7576 225.464 77.287V75.2673C225.464 75.1293 225.505 74.9944 225.582 74.8797L240.063 53.2774C240.278 52.9576 240.711 52.8719 241.032 53.086Z" fill="black"/>
<path fill-rule="evenodd" clip-rule="evenodd" d="M236.872 59.5716C237.074 59.8994 236.972 60.3286 236.644 60.5303C235.393 61.2988 233.443 61.8717 231.16 62.265C228.856 62.6617 226.141 62.8872 223.309 62.9202C217.663 62.986 211.455 62.2872 207.062 60.5866L207.567 59.2871C211.724 60.8965 217.73 61.5914 223.293 61.5266C226.066 61.4942 228.706 61.2733 230.922 60.8915C233.159 60.5062 234.895 59.9686 235.912 59.3434C236.24 59.1417 236.67 59.2439 236.872 59.5716ZM210.142 64.7686C210.264 64.4035 210.659 64.2062 211.025 64.3279C216.121 66.0241 221.936 66.4256 227.618 65.5187C227.999 65.458 228.357 65.7168 228.418 66.0968C228.479 66.4769 228.219 66.8342 227.839 66.8949C221.955 67.8339 215.912 67.4235 210.584 65.6501C210.218 65.5284 210.02 65.1337 210.142 64.7686ZM233.63 64.7829C233.744 65.1506 233.537 65.5409 233.169 65.6547C232.289 65.9266 231.4 66.1665 230.504 66.3742C230.128 66.4612 229.753 66.2279 229.666 65.853C229.579 65.4781 229.812 65.1037 230.188 65.0166C231.052 64.8164 231.909 64.5852 232.757 64.3233C233.125 64.2095 233.516 64.4153 233.63 64.7829ZM222.391 71.8921C219.458 71.9145 216.316 71.4236 213.519 70.3426L214.022 69.0428C216.634 70.0523 219.599 70.5196 222.38 70.4984C225.169 70.4772 227.716 69.9653 229.51 69.0694L230.134 70.316C228.091 71.3364 225.316 71.8698 222.391 71.8921ZM219.4 76.1858C218.461 76.0106 217.569 75.7392 216.79 75.3763L217.381 74.1134C218.035 74.4184 218.812 74.6582 219.656 74.8159C220.035 74.8866 220.285 75.2506 220.214 75.6289C220.143 76.0072 219.779 76.2566 219.4 76.1858ZM226.994 75.3681C225.415 76.1565 223.468 76.4679 221.603 76.4175C221.218 76.4071 220.914 76.0868 220.924 75.702C220.935 75.3173 221.255 75.0139 221.641 75.0243C223.348 75.0704 225.051 74.7799 226.37 74.1216L226.994 75.3681Z" fill="black"/>
</svg>
