<svg width="240" height="160" viewBox="0 0 240 160" fill="none" xmlns="http://www.w3.org/2000/svg">
<path d="M93.6127 156.8L16.4653 127.941L16.4395 35.4166L93.6386 64.3015L93.6127 156.8Z" fill="#053866"/>
<path d="M170.967 127.71L93.7422 98.7226L93.8198 6.42932L171.122 35.3142L170.967 127.71Z" fill="#102E5B"/>
<path d="M93.6133 156.8L171.123 127.608V35.3144L93.6391 64.3018L93.6133 156.8Z" fill="#054270"/>
<path d="M16.4653 127.941L93.7679 98.5176L93.8196 6.42932L16.4395 35.4167L16.4653 127.941Z" fill="#0A2D49"/>
<path d="M93.6127 156.8L16.4653 127.915L16.4395 35.4166L93.6386 64.3015L93.6127 156.8Z" fill="#053866"/>
<path d="M35.7328 65.9162L16.4653 58.6629L16.4395 35.4166L35.7328 42.8237V65.9162Z" fill="#053866"/>
<path d="M21.5865 57.7403C19.8338 57.785 18.0905 57.4709 16.4658 56.8176L16.4141 54.3316C20.371 55.8181 24.1728 55.5362 27.0694 53.5627C30.5608 51.1791 32.7591 47.2833 32.7591 41.5679L35.0867 42.4905C35.0867 48.9493 33.147 52.6144 29.0349 55.4336C26.8301 56.9015 24.2424 57.7029 21.5865 57.7403Z" fill="#B9D5FD"/>
<path d="M54.9999 73.1696L35.7324 65.9164V42.8239L54.9999 50.0771V73.1696Z" fill="#0E2951"/>
<path d="M74.2675 80.4229L55 73.1696V50.0771L74.2675 57.3303V80.4229Z" fill="#709FDC"/>
<path d="M93.5351 87.5736L74.2676 80.4228V57.3303L93.6385 64.3016L93.5351 87.5736Z" fill="#6780B3"/>
<path d="M35.7323 89.0089L16.4648 81.7557V58.6631L35.7323 65.9164V89.0089Z" fill="#B9D5FD"/>
<path d="M54.9999 96.2621L35.7324 89.0088V65.9163L54.9999 73.1696V96.2621Z" fill="#274684"/>
<path d="M74.2675 103.515L55 96.2622V73.1697L74.2675 80.4229V103.515Z" fill="#3D95D1"/>
<path d="M93.535 110.666L74.2676 103.516V80.423L93.535 87.5737V110.666Z" fill="#B9D5FD"/>
<path d="M54.9999 119.355L35.7324 112.102V89.009L54.9999 96.2623V119.355Z" fill="#B9D5FD"/>
<path d="M74.2675 126.608L55 119.355V96.2622L74.2675 103.515V126.608Z" fill="#0E2951"/>
<path d="M93.535 133.759L74.2676 126.608V103.515L93.535 110.666V133.759Z" fill="#709FDC"/>
<path d="M35.7323 135.194L16.4648 127.915V104.823L35.7323 112.101V135.194Z" fill="#6780B3"/>
<path d="M54.9999 142.447L35.7324 135.194V112.101L54.9999 119.354V142.447Z" fill="#053866"/>
<path d="M74.2675 149.7L55 142.447V119.355L74.2675 126.608V149.7Z" fill="#B9D5FD"/>
<path d="M93.6126 156.8L74.2676 149.701V126.608L93.535 133.759L93.6126 156.8Z" fill="#3D95D1"/>
<path d="M20.3959 52.9477C19.0482 52.9678 17.7105 52.7149 16.4648 52.2044V49.4364C19.2321 50.4872 22.6459 50.1284 24.3529 49.0007C27.1977 47.1297 28.5943 44.2336 28.5943 40.2097L30.9219 41.1323C30.9219 46.0789 29.1374 49.1032 25.9563 51.2818C24.3146 52.3797 22.3764 52.9603 20.3959 52.9477Z" fill="#3D95D1"/>
<path d="M19.0252 47.6165C18.1465 47.6369 17.2735 47.4708 16.4648 47.1295V44.3615C18.12 44.9766 20.6545 44.8228 22.0511 43.4388C23.5253 41.9779 23.9132 40.7989 23.9132 38.3641L26.2408 39.2868C26.2408 42.6699 25.077 44.951 22.8528 46.4375C21.7299 47.2116 20.3931 47.6233 19.0252 47.6165Z" fill="#3376B3"/>
<path d="M17.7321 42.2856C17.2966 42.3195 16.8598 42.2399 16.4648 42.0549V39.2869C16.8786 39.4407 18.2493 39.5432 18.7925 39.2869C19.7235 38.8256 19.7235 37.9029 19.258 36.5189L22.0511 37.4415C22.0511 39.3638 21.3528 40.6965 20.0597 41.5936C19.3684 42.0439 18.5594 42.2844 17.7321 42.2856Z" fill="#709FDC"/>
<path d="M93.0437 130.529L76.7246 124.404V84.498L93.3541 90.5211V93.7504L79.5177 88.4963V122.482L92.8886 127.479L93.0437 130.529Z" fill="#274684"/>
<path d="M93.3541 131.17L76.7246 124.404V104.054L79.5177 104.976V122.481L93.3541 127.941V131.17Z" fill="#0E2951"/>
<path d="M93.0452 124.532L81.3555 120.124V91.3157L93.3556 95.6215V98.8509L84.1486 95.3139V118.688L93.3556 121.943L93.0452 124.532Z" fill="#274684"/>
<path d="M93.0436 118.996L86.3711 116.484V99.6708L93.354 102.08V105.309L89.1642 103.669V114.562L93.354 116.381L93.0436 118.996Z" fill="#274684"/>
<path d="M93.354 119.15L86.3711 116.484V107.668L89.1642 108.59V114.562L93.354 115.92V119.15Z" fill="#0E2951"/>
<path d="M93.3556 125.173L81.3555 120.585V105.797L84.1486 106.719V118.688L93.3556 121.943V125.173Z" fill="#0E2951"/>
<path d="M31.1029 133.451L16.4648 127.915V110.384L31.1029 115.895V133.451Z" fill="#053866"/>
<path d="M26.1115 131.555L16.4648 127.915V116.382L26.1115 120.021V131.555Z" fill="#709FDC"/>
<path d="M74.1904 65.7882L67.2076 77.6548L55.0781 64.7117L62.0868 52.8451L74.1904 65.7882Z" fill="#0E2951"/>
<path d="M69.5099 65.532L65.9409 71.5807L59.7598 64.9938L63.3288 58.9195L69.5099 65.532Z" fill="#6780B3"/>
<path d="M74.2675 149.7L55 142.447V123.968L74.2675 131.221V149.7Z" fill="#3D95D1"/>
<path d="M74.2675 149.701L55 142.447V129.043L74.2675 136.296V149.701Z" fill="#6780B3"/>
<path d="M74.2675 149.701L55 142.447V134.118L74.2675 141.396V149.701Z" fill="#053866"/>
<path d="M74.2675 149.701L55 142.447V138.295L74.2675 145.549V149.701Z" fill="#0E2951"/>
<path d="M35.7324 71.4268L54.9999 78.68L35.7324 84.3955L54.9999 91.6488L35.7324 71.4268Z" fill="#0E2951"/>
<path d="M18.7925 82.6784L16.4648 81.7557V58.6631L18.7925 59.5858V82.6784Z" fill="#709FDC"/>
<path d="M22.5171 84.0625L20.1895 83.1398V60.0472L22.5171 60.9699V84.0625Z" fill="#709FDC"/>
<path d="M34.646 88.6758L32.3184 87.7531V64.6606L34.646 65.5833V88.6758Z" fill="#709FDC"/>
<path d="M30.5861 86.9843L27.793 86.0616V62.9947L30.5861 63.9174V86.9843Z" fill="#709FDC"/>
<path d="M26.2417 85.4462L23.9141 84.5236V61.431L26.2417 62.3537V85.4462Z" fill="#709FDC"/>
<path d="M35.7323 112.102L16.4648 104.823V81.7557L35.7323 89.009V112.102Z" fill="#0E2951"/>
<path d="M35.7321 112.101L26.1113 108.462V96.9285L35.7321 100.542V112.101Z" fill="#3D95D1"/>
<path d="M26.1115 96.9287L16.4648 93.2892V81.7557L26.1115 85.3696V96.9287Z" fill="#3D95D1"/>
<path d="M47.3462 130.555L43.3893 129.068V124.506L50.3204 127.12V135.117L40.4151 131.375V119.944L53.2687 124.788V139.73L37.4668 133.759V114.818L53.2687 120.764" stroke="#3D95D1" stroke-width="3" stroke-miterlimit="10"/>
<path d="M77.7344 148.24L90.8466 135.63" stroke="#0E2951" stroke-width="6" stroke-miterlimit="10"/>
<path d="M90.8466 153.16L77.7344 130.683" stroke="#0E2951" stroke-width="6" stroke-miterlimit="10"/>
<path d="M61.9311 107.181L58.8535 106.027V102.337L61.9311 103.49V107.181Z" fill="#B9D5FD"/>
<path d="M66.1733 113.87L63.0957 112.691V109L66.1733 110.154V113.87Z" fill="#B9D5FD"/>
<path d="M70.4136 120.534L67.3359 119.38V115.689L70.4136 116.843V120.534Z" fill="#B9D5FD"/>
<path d="M93.6391 64.3018L171.123 35.3144L171.149 127.71L93.6133 156.8L93.6391 64.3018Z" fill="#053866"/>
<path d="M151.727 88.8039L171.149 81.525V104.618L151.727 111.871V88.8039Z" fill="#B9D5FD"/>
<path d="M132.328 96.0572L151.725 88.804V111.871L132.328 119.15V96.0572Z" fill="#274684"/>
<path d="M112.932 103.311L132.328 96.0573V119.15L112.932 126.403V103.311Z" fill="#053866"/>
<path d="M93.5352 110.666L112.932 103.311V126.403L93.5352 133.759V110.666Z" fill="#B9D5FD"/>
<path d="M132.328 72.9646L151.725 65.7114V88.8039L132.328 96.0572V72.9646Z" fill="#B9D5FD"/>
<path d="M112.932 80.2177L132.328 72.9645V96.057L112.932 103.31V80.2177Z" fill="#0E2951"/>
<path d="M93.5352 87.5737L112.932 80.2179V103.31L93.5352 110.666V87.5737Z" fill="#709FDC"/>
<path d="M132.328 119.15L151.725 111.871V134.963L132.328 142.242V119.15Z" fill="#0E2951"/>
<path d="M112.932 126.403L132.328 119.15V142.242L112.932 149.495V126.403Z" fill="#709FDC"/>
<path d="M93.5352 133.759L112.932 126.403V149.495L93.6127 156.8L93.5352 133.759Z" fill="#6780B3"/>
<path d="M151.727 42.6189L171.123 35.3144L171.149 58.4326L151.727 65.7115V42.6189Z" fill="#6780B3"/>
<path d="M132.328 49.8722L151.725 42.6189V65.7114L132.328 72.9647V49.8722Z" fill="#053866"/>
<path d="M112.932 57.1251L132.328 49.8719V72.9644L112.932 80.2177V57.1251Z" fill="#B9D5FD"/>
<path d="M93.6386 64.3017L112.932 57.1253V80.2179L93.5352 87.5736L93.6386 64.3017Z" fill="#3D95D1"/>
<path d="M93.3533 131.17V127.941L107.655 122.277V88.2914L94.0257 93.3917L93.043 90.8031L110.448 84.2931V124.199L93.3533 131.17Z" fill="#274684"/>
<path d="M110.451 104.771L107.657 105.694V88.2914L93.3555 93.7505V90.5212L110.451 84.2931V104.771Z" fill="#0E2951"/>
<path d="M93.3555 125.173V121.943L103.002 118.022V95.1088L93.3555 98.8508V95.6214L105.795 92.0332V119.944L93.3555 125.173Z" fill="#274684"/>
<path d="M93.3533 119.15V115.92L97.9568 114.357V103.464L94.0257 104.951L93.043 102.362L100.75 99.4661V116.279L93.3533 119.15Z" fill="#274684"/>
<path d="M100.752 107.924L97.959 108.847V103.464L93.3555 105.31V102.08L100.752 99.4661V107.924Z" fill="#0E2951"/>
<path d="M105.795 106.514L103.002 107.437V95.1089L93.3555 98.8508V95.6215L105.795 91.1106V106.514Z" fill="#0E2951"/>
<path d="M161.449 38.9795L171.122 35.3144L171.148 46.8991L161.449 50.5129V38.9795Z" fill="#FF8098"/>
<path d="M113.01 140.986L120.07 123.84L132.251 127.659L125.217 144.805L113.01 140.986Z" fill="#0E2951"/>
<path d="M117.742 137.731L121.311 128.966L127.544 130.914L123.949 139.679L117.742 137.731Z" fill="#6780B3"/>
<path d="M112.932 57.1251L132.328 49.8719V68.351L112.932 75.6043V57.1251Z" fill="#3D95D1"/>
<path d="M112.932 57.1251L132.328 49.8719V63.2763L112.932 70.5296V57.1251Z" fill="#6780B3"/>
<path d="M112.932 57.1251L132.328 49.8719V58.176L112.932 65.4549V57.1251Z" fill="#053866"/>
<path d="M112.932 57.1251L132.328 49.8719V54.0239L112.932 61.3028V57.1251Z" fill="#0E2951"/>
<path d="M151.725 106.36L132.328 113.614L151.725 93.4172L132.328 100.67" fill="#0E2951"/>
<path d="M171.174 104.848L168.381 105.771V82.217L171.174 81.2943V104.848Z" fill="#709FDC"/>
<path d="M167.502 106.053L164.709 106.976V83.883L167.502 82.9603V106.053Z" fill="#709FDC"/>
<path d="M155.863 110.41L153.044 111.332L152.992 88.2143L155.785 87.2916L155.863 110.41Z" fill="#709FDC"/>
<path d="M159.743 108.949L156.924 109.872V86.7792L159.743 85.8566V108.949Z" fill="#709FDC"/>
<path d="M163.622 107.514L160.803 108.436V85.3439L163.622 84.4213V107.514Z" fill="#709FDC"/>
<path d="M151.727 65.7114L171.149 58.4326V81.5251L151.727 88.804V65.7114Z" fill="#0E2951"/>
<path d="M151.727 111.871L171.149 104.617V127.71L151.727 134.963V111.871Z" fill="#053866"/>
<path d="M151.727 65.7113L161.451 62.0718V73.6053L151.727 77.2447V65.7113Z" fill="#3D95D1"/>
<path d="M154.39 133.938L152.062 134.861C152.062 119.15 160.83 109.641 171.175 105.771V108.077C161.838 111.563 154.39 123.327 154.39 133.938Z" fill="#B9D5FD"/>
<path d="M159.537 132.093L156.744 133.016C156.744 121.943 163.417 113.204 171.201 110.282V113.05C164.399 115.587 159.537 123.968 159.537 132.093Z" fill="#3D95D1"/>
<path d="M164.475 130.247L161.863 131.17C161.863 124.25 165.82 117.586 171.122 115.587L171.174 118.227C167.036 119.79 164.475 125.25 164.475 130.247Z" fill="#3376B3"/>
<path d="M168.848 128.402L166.52 129.325C166.055 125.634 168.227 121.969 171.124 120.892L171.175 123.789C169.339 124.455 168.848 126.172 168.848 128.402Z" fill="#709FDC"/>
<path d="M140.14 56.049L143.942 54.6137V58.9964L137.269 61.5081V53.8448L146.812 50.2566V61.2262L134.398 65.8909V51.5381L149.683 45.8226V64.0199L134.398 69.761" stroke="#3D95D1" stroke-width="5" stroke-miterlimit="10"/>
<path d="M109.44 61.2006L96.25 83.7036" stroke="#0E2951" stroke-width="6" stroke-miterlimit="10"/>
<path d="M96.25 66.1469L109.44 78.7568" stroke="#0E2951" stroke-width="6" stroke-miterlimit="10"/>
<path d="M125.346 90.3417L128.449 89.1884V92.8791L125.346 94.058V90.3417Z" fill="#B9D5FD"/>
<path d="M121.078 86.8817L124.182 85.7028V89.3935L121.078 90.5724V86.8817Z" fill="#B9D5FD"/>
<path d="M116.811 83.396L119.914 82.217V85.9334L116.811 87.0867V83.396Z" fill="#B9D5FD"/>
<path d="M156.406 40.8761L171.122 35.3144L171.148 52.8965L156.406 58.4069V40.8761Z" fill="#053866"/>
<path d="M160.363 39.3639L171.122 35.3144L171.148 48.155L160.363 52.2045V39.3639Z" fill="#709FDC"/>
<path d="M161.449 73.6053L171.148 69.9915V81.5249L161.449 85.1643V73.6053Z" fill="#3D95D1"/>
<path d="M139.494 46.6683L171.123 35.3142L93.8207 6.42932L63.0703 18.014L139.494 46.6683Z" fill="#0D3760"/>
<path d="M133.286 49.5132L93.3026 64.4042L16 35.5705L56.0349 20.6283L133.286 49.5132Z" fill="#0D3659"/>
<path d="M135.768 3.20001L93.7674 6.48064L16.4648 35.3399L58.3619 32.1618L135.768 3.20001Z" fill="#043D60"/>
<path d="M171.174 35.3399L142.234 7.14703L64.75 36.1088L93.8193 64.4299L171.174 35.3399Z" fill="#03446B"/>
<path d="M93.1562 100.19V64.4908L171.2 35.425H224L216 53.5125L224 71.6001H171.2L93.1562 100.19Z" fill="#B4D1FA"/>
<path d="M110.857 72.1455C112.142 71.6753 112.819 70.3977 112.716 68.926C112.639 67.8256 111.947 67.0489 111.188 67.1712C111.818 66.7574 112.354 65.7713 112.273 64.616C112.176 63.2405 111.361 62.5513 110.139 62.9983L107.011 64.1428L107.655 73.3169L110.857 72.1455ZM110.271 67.0273L108.164 67.7979L107.956 64.8407L110.063 64.0701C110.853 63.7811 111.321 64.2872 111.379 65.1124C111.438 65.9514 111.061 66.7383 110.271 67.0273ZM110.606 71.1931L108.458 71.9792L108.235 68.8157L110.384 68.0297C111.248 67.7137 111.742 68.2946 111.801 69.1336C111.87 70.1101 111.428 70.8926 110.606 71.1931Z" fill="black"/>
<path d="M118.02 69.6945C120.095 68.9354 121.363 66.3834 121.173 63.6738C120.983 60.9642 119.428 59.4449 117.353 60.204C115.268 60.967 114.01 63.5151 114.2 66.2247C114.39 68.9343 115.934 70.4574 118.02 69.6945ZM117.948 68.6766C116.368 69.2546 115.255 68.0252 115.106 65.8933C114.955 63.7476 115.845 61.7998 117.425 61.2218C118.994 60.6477 120.116 61.8595 120.267 64.0052C120.417 66.1371 119.518 68.1025 117.948 68.6766Z" fill="black"/>
<path d="M124.261 67.2419L124.005 63.597L125.954 62.8842C127.344 62.3755 128.066 60.8134 127.961 59.3142C127.856 57.815 126.977 56.8386 125.566 57.3549L122.743 58.3876L123.387 67.5617L124.261 67.2419ZM125.777 61.9049L123.934 62.5792L123.688 59.0856L125.532 58.4113C126.364 58.1069 126.983 58.614 127.055 59.6456C127.128 60.6772 126.609 61.6005 125.777 61.9049Z" fill="black"/>
<path d="M133.309 64.1011C135.384 63.342 136.653 60.7901 136.463 58.0805C136.272 55.3709 134.718 53.8516 132.643 54.6107C130.557 55.3736 129.299 57.9218 129.49 60.6314C129.68 63.341 131.224 64.8641 133.309 64.1011ZM133.238 63.0833C131.658 63.6613 130.545 62.4319 130.395 60.3C130.245 58.1543 131.134 56.2065 132.714 55.6285C134.284 55.0544 135.406 56.2662 135.557 58.4119C135.706 60.5438 134.807 62.5092 133.238 63.0833Z" fill="black"/>
<path d="M144.533 59.826L143.889 50.6519L143.015 50.9717L143.292 54.9192L139.184 56.422L138.907 52.4745L138.032 52.7943L138.676 61.9684L139.551 61.6486L139.255 57.4398L143.363 55.937L143.659 60.1458L144.533 59.826Z" fill="black"/>
<path d="M152.032 57.0827L148.513 53.4324L151.135 48.0011L150.039 48.4019L147.265 54.2838L146.932 49.5386L146.058 49.8584L146.702 59.0325L147.576 58.7127L147.36 55.6317L147.992 54.3282L150.947 57.4796L152.032 57.0827Z" fill="black"/>
<path d="M159.569 54.3254L156.092 46.1878L155.007 46.5847L152.828 56.7915L153.829 56.4254L154.307 54.1624L157.804 52.8831L158.568 54.6914L159.569 54.3254ZM157.469 51.9617L154.488 53.0521L155.637 47.5672L157.469 51.9617Z" fill="black"/>
<path d="M117.058 87.1193L116.414 77.9452L110.558 80.0877L111.202 89.2618L112.076 88.942L111.504 80.7857L115.611 79.2829L116.184 87.4392L117.058 87.1193Z" fill="black"/>
<path d="M120.102 86.0061L119.846 82.3612L121.794 81.6483C123.185 81.1397 123.907 79.5776 123.802 78.0784C123.696 76.5791 122.818 75.6027 121.406 76.1191L118.583 77.1518L119.227 86.3259L120.102 86.0061ZM121.618 80.669L119.774 81.3434L119.529 77.8498L121.372 77.1754C122.204 76.871 122.823 77.3782 122.896 78.4097C122.968 79.4413 122.45 80.3646 121.618 80.669Z" fill="black"/>
<path d="M129.15 82.8653C131.225 82.1062 132.493 79.5542 132.303 76.8446C132.113 74.135 130.559 72.6157 128.483 73.3748C126.398 74.1378 125.14 76.6859 125.33 79.3955C125.52 82.1051 127.064 83.6283 129.15 82.8653ZM129.078 81.8475C127.498 82.4255 126.386 81.196 126.236 79.0641C126.085 76.9185 126.975 74.9707 128.555 74.3927C130.124 73.8185 131.247 75.0303 131.397 77.176C131.547 79.3079 130.648 81.2733 129.078 81.8475Z" fill="black"/>
<path d="M133.76 82.7446L134.635 82.4248L134.516 80.733L139.751 78.8179L139.87 80.5097L140.744 80.1898L140.554 77.4802L139.911 77.7153L139.339 69.559L135.041 71.1312L134.933 75.8968C134.856 79.1132 134.415 79.7542 133.577 80.1313L133.76 82.7446ZM135.802 75.6634L135.892 71.8638L138.536 70.8967L139.037 78.0351L134.971 79.5225C135.451 78.8248 135.759 77.6682 135.802 75.6634Z" fill="black"/>
<path d="M148.279 75.698L144.802 67.5605L143.717 67.9574L141.538 78.1641L142.539 77.7981L143.017 75.5351L146.514 74.2558L147.279 76.0641L148.279 75.698ZM146.179 73.3343L143.198 74.4248L144.348 68.9399L146.179 73.3343Z" fill="black"/>
<path d="M150.167 75.0075L152.542 69.9063L153.008 70.3849L153.253 73.8785L154.127 73.5587L153.882 70.0651L154.259 69.2782L157.214 72.4296L158.309 72.0289L154.779 68.3825L157.412 62.9473L156.317 63.348L153.786 68.7034L153.483 64.3846L152.609 64.7044L152.912 69.0232L149.786 65.7371L148.691 66.1378L151.925 69.4267L149.082 75.4044L150.167 75.0075Z" fill="black"/>
<path d="M171.199 35.4391H223.999L215.999 53.5196L223.999 71.6H171.199V35.4391Z" fill="black" fill-opacity="0.05"/>
<path d="M196.807 63.1362C193.633 63.8164 191.139 63.4196 190.289 63.1362V65.6868C193.463 67.5006 195.957 66.4426 196.807 65.6868V63.1362Z" fill="#C43B55"/>
<path d="M187.455 59.4517L184.621 54.6339C191.423 57.1278 200.019 55.7675 203.042 54.6339L199.641 59.4517C194.2 61.0388 189.25 60.113 187.455 59.4517Z" fill="#C43B55"/>
<path d="M179.234 46.9825L181.785 50.9501C186.546 53.6707 199.072 52.9339 204.457 51.8003L208.425 46.4156C197.542 50.9501 184.43 48.6829 179.234 46.9825Z" fill="#C43B55"/>
<path fill-rule="evenodd" clip-rule="evenodd" d="M193.439 41.115C192.592 41.115 191.761 41.1325 190.95 41.1663C190.642 41.1791 190.382 40.9402 190.369 40.6326C190.356 40.3249 190.596 40.0651 190.904 40.0523C191.73 40.0179 192.577 40 193.439 40C197.867 40 201.895 40.471 204.833 41.243C206.298 41.6279 207.523 42.0957 208.396 42.6378C209.239 43.1614 209.91 43.8565 209.91 44.7386C209.91 45.6207 209.239 46.3158 208.396 46.8394C207.523 47.3815 206.298 47.8493 204.833 48.2342C201.895 49.0061 197.867 49.4771 193.439 49.4771C189.012 49.4771 184.984 49.0061 182.046 48.2342C180.581 47.8493 179.355 47.3815 178.483 46.8394C177.64 46.3158 176.969 45.6207 176.969 44.7386C176.969 44.0244 177.413 43.4332 178.006 42.9689C178.607 42.4984 179.448 42.0854 180.454 41.7283C182.472 41.0118 185.281 40.4759 188.507 40.2027C188.814 40.1767 189.084 40.4043 189.11 40.7111C189.136 41.0179 188.908 41.2877 188.601 41.3137C185.429 41.5823 182.724 42.1059 180.828 42.7788C179.877 43.1164 179.162 43.4806 178.695 43.8462C178.22 44.2181 178.085 44.522 178.085 44.7386C178.085 45.011 178.305 45.4159 179.072 45.8927C179.81 46.351 180.915 46.7842 182.33 47.1559C185.151 47.8972 189.079 48.3622 193.439 48.3622C197.8 48.3622 201.728 47.8972 204.549 47.1559C205.964 46.7842 207.068 46.351 207.806 45.8927C208.574 45.4159 208.793 45.011 208.793 44.7386C208.793 44.4661 208.574 44.0613 207.806 43.5844C207.068 43.1261 205.964 42.6929 204.549 42.3212C201.728 41.5799 197.8 41.115 193.439 41.115Z" fill="black"/>
<path fill-rule="evenodd" clip-rule="evenodd" d="M208.825 45.6688C209.082 45.84 209.15 46.1863 208.979 46.4422L197.488 63.5832V65.0296C197.488 65.8796 196.931 66.6672 196.066 66.8794C194.259 67.3225 192.902 67.3079 191.108 66.8757C190.238 66.6662 189.671 65.8768 189.671 65.0188V63.862L178.18 46.7209C178.009 46.465 178.078 46.1188 178.334 45.9475C178.59 45.7763 178.937 45.8448 179.108 46.1007L190.694 63.3825C190.755 63.4743 190.788 63.5822 190.788 63.6926V65.0188C190.788 65.3976 191.035 65.7114 191.37 65.7919C192.998 66.1841 194.174 66.1954 195.8 65.7966C196.128 65.7162 196.371 65.4061 196.371 65.0296V63.4139C196.371 63.3034 196.404 63.1955 196.465 63.1038L208.051 45.822C208.222 45.5661 208.569 45.4975 208.825 45.6688Z" fill="black"/>
<path fill-rule="evenodd" clip-rule="evenodd" d="M205.498 50.8573C205.66 51.1195 205.578 51.4629 205.315 51.6243C204.315 52.239 202.754 52.6974 200.928 53.012C199.085 53.3293 196.913 53.5097 194.648 53.5361C190.13 53.5888 185.164 53.0298 181.65 51.6692L182.054 50.6297C185.379 51.9172 190.184 52.4731 194.635 52.4213C196.854 52.3954 198.965 52.2186 200.738 51.9132C202.528 51.605 203.916 51.1749 204.73 50.6747C204.993 50.5133 205.337 50.5951 205.498 50.8573ZM184.114 55.0149C184.212 54.7228 184.528 54.565 184.82 54.6623C188.898 56.0193 193.549 56.3404 198.095 55.615C198.4 55.5664 198.686 55.7734 198.735 56.0775C198.783 56.3815 198.576 56.6673 198.271 56.7159C193.565 57.4671 188.73 57.1388 184.467 55.7201C184.175 55.6227 184.017 55.307 184.114 55.0149ZM202.904 55.0263C202.995 55.3205 202.83 55.6327 202.536 55.7237C201.832 55.9413 201.12 56.1332 200.403 56.2994C200.103 56.369 199.803 56.1823 199.733 55.8824C199.663 55.5825 199.85 55.2829 200.151 55.2133C200.842 55.0531 201.528 54.8682 202.206 54.6586C202.5 54.5676 202.813 54.7322 202.904 55.0263ZM193.913 60.7137C191.567 60.7316 189.053 60.3389 186.815 59.474L187.218 58.4343C189.308 59.2419 191.679 59.6157 193.904 59.5988C196.136 59.5817 198.173 59.1723 199.609 58.4555L200.108 59.4528C198.473 60.2691 196.253 60.6958 193.913 60.7137ZM191.52 64.1486C190.769 64.0084 190.056 63.7913 189.433 63.501L189.905 62.4907C190.429 62.7347 191.05 62.9266 191.726 63.0527C192.029 63.1093 192.228 63.4005 192.172 63.7031C192.115 64.0058 191.823 64.2052 191.52 64.1486ZM197.595 63.4945C196.332 64.1252 194.775 64.3743 193.283 64.334C192.975 64.3256 192.731 64.0694 192.74 63.7616C192.748 63.4538 193.005 63.2111 193.313 63.2194C194.679 63.2563 196.041 63.0239 197.096 62.4972L197.595 63.4945Z" fill="black"/>
</svg>
