<svg width="240" height="160" viewBox="0 0 240 160" fill="none" xmlns="http://www.w3.org/2000/svg">
<path d="M93.6127 156.8L16.4653 127.79L16.4395 34.7845L93.6386 63.8199L93.6127 156.8Z" fill="#053866"/>
<path d="M170.967 127.559L93.7422 98.4201L93.8198 5.64618L171.122 34.6815L170.967 127.559Z" fill="#102E5B"/>
<path d="M93.6133 156.8L171.123 127.456V34.6816L93.6391 63.82L93.6133 156.8Z" fill="#054270"/>
<path d="M16.4653 127.79L93.7679 98.214L93.8196 5.64618L16.4395 34.7846L16.4653 127.79Z" fill="#0A2D49"/>
<path d="M93.6127 156.8L16.4653 127.765L16.4395 34.7845L93.6386 63.8199L93.6127 156.8Z" fill="#053866"/>
<path d="M35.7328 65.443L16.4653 58.1519L16.4395 34.7845L35.7328 42.2302V65.443Z" fill="#053866"/>
<path d="M21.5865 57.2243C19.8338 57.2692 18.0905 56.9535 16.4658 56.2969L16.4141 53.7978C20.371 55.2921 24.1728 55.0087 27.0694 53.0249C30.5608 50.6289 32.7591 46.7129 32.7591 40.9677L35.0867 41.8951C35.0867 48.3875 33.147 52.0717 29.0349 54.9056C26.8301 56.3811 24.2424 57.1867 21.5865 57.2243Z" fill="#B9D5FD"/>
<path d="M54.9999 72.7341L35.7324 65.443V42.2302L54.9999 49.5213V72.7341Z" fill="#0E2951"/>
<path d="M74.2675 80.0251L55 72.734V49.5212L74.2675 56.8123V80.0251Z" fill="#709FDC"/>
<path d="M93.5351 87.213L74.2676 80.025V56.8122L93.6385 63.8198L93.5351 87.213Z" fill="#6780B3"/>
<path d="M35.7323 88.6558L16.4648 81.3648V58.152L35.7323 65.443V88.6558Z" fill="#B9D5FD"/>
<path d="M54.9999 95.9469L35.7324 88.6559V65.4431L54.9999 72.7341V95.9469Z" fill="#274684"/>
<path d="M74.2675 103.238L55 95.9469V72.7341L74.2675 80.0252V103.238Z" fill="#3D95D1"/>
<path d="M93.535 110.426L74.2676 103.238V80.0251L93.535 87.2131V110.426Z" fill="#B9D5FD"/>
<path d="M54.9999 119.16L35.7324 111.869V88.6559L54.9999 95.947V119.16Z" fill="#B9D5FD"/>
<path d="M74.2675 126.451L55 119.16V95.947L74.2675 103.238V126.451Z" fill="#0E2951"/>
<path d="M93.535 133.639L74.2676 126.451V103.238L93.535 110.426V133.639Z" fill="#709FDC"/>
<path d="M35.7323 135.081L16.4648 127.765V104.552L35.7323 111.869V135.081Z" fill="#6780B3"/>
<path d="M54.9999 142.372L35.7324 135.081V111.869L54.9999 119.16V142.372Z" fill="#053866"/>
<path d="M74.2675 149.664L55 142.372V119.16L74.2675 126.451V149.664Z" fill="#B9D5FD"/>
<path d="M93.6126 156.8L74.2676 149.664V126.451L93.535 133.639L93.6126 156.8Z" fill="#3D95D1"/>
<path d="M20.3959 52.4068C19.0482 52.427 17.7105 52.1728 16.4648 51.6597V48.8772C19.2321 49.9335 22.6459 49.5728 24.3529 48.4393C27.1977 46.5585 28.5943 43.6473 28.5943 39.6024L30.9219 40.5299C30.9219 45.5022 29.1374 48.5423 25.9563 50.7322C24.3146 51.8358 22.3764 52.4195 20.3959 52.4068Z" fill="#3D95D1"/>
<path d="M19.0252 47.0479C18.1465 47.0684 17.2735 46.9015 16.4648 46.5584V43.776C18.12 44.3943 20.6545 44.2397 22.0511 42.8485C23.5253 41.38 23.9132 40.1948 23.9132 37.7473L26.2408 38.6748C26.2408 42.0756 25.077 44.3685 22.8528 45.8628C21.7299 46.6409 20.3931 47.0548 19.0252 47.0479Z" fill="#3376B3"/>
<path d="M17.7321 41.6892C17.2966 41.7232 16.8598 41.6433 16.4648 41.4573V38.6748C16.8786 38.8294 18.2493 38.9325 18.7925 38.6748C19.7235 38.2111 19.7235 37.2836 19.258 35.8924L22.0511 36.8199C22.0511 38.7521 21.3528 40.0918 20.0597 40.9935C19.3684 41.4462 18.5594 41.688 17.7321 41.6892Z" fill="#709FDC"/>
<path d="M93.0437 130.392L76.7246 124.235V84.1214L93.3541 90.1758V93.422L79.5177 88.1405V122.303L92.8886 127.327L93.0437 130.392Z" fill="#274684"/>
<path d="M93.3541 131.037L76.7246 124.235V103.779L79.5177 104.706V122.303L93.3541 127.79V131.037Z" fill="#0E2951"/>
<path d="M93.0452 124.364L81.3555 119.933V90.9746L93.3556 95.3029V98.5491L84.1486 94.9937V118.49L93.3556 121.762L93.0452 124.364Z" fill="#274684"/>
<path d="M93.0436 118.799L86.3711 116.274V99.3732L93.354 101.795V105.041L89.1642 103.392V114.342L93.354 116.171L93.0436 118.799Z" fill="#274684"/>
<path d="M93.354 118.954L86.3711 116.274V107.412L89.1642 108.339V114.342L93.354 115.708V118.954Z" fill="#0E2951"/>
<path d="M93.3556 125.008L81.3555 120.396V105.531L84.1486 106.458V118.49L93.3556 121.762V125.008Z" fill="#0E2951"/>
<path d="M31.1029 133.33L16.4648 127.765V110.142L31.1029 115.682V133.33Z" fill="#053866"/>
<path d="M26.1115 131.423L16.4648 127.765V116.171L26.1115 119.83V131.423Z" fill="#709FDC"/>
<path d="M74.1904 65.3142L67.2076 77.2427L55.0781 64.2322L62.0868 52.3037L74.1904 65.3142Z" fill="#0E2951"/>
<path d="M69.5099 65.0566L65.9409 71.1368L59.7598 64.5156L63.3288 58.4097L69.5099 65.0566Z" fill="#6780B3"/>
<path d="M74.2675 149.663L55 142.372V123.797L74.2675 131.088V149.663Z" fill="#3D95D1"/>
<path d="M74.2675 149.664L55 142.373V128.898L74.2675 136.189V149.664Z" fill="#6780B3"/>
<path d="M74.2675 149.664L55 142.373V134L74.2675 141.316V149.664Z" fill="#053866"/>
<path d="M74.2675 149.664L55 142.373V138.199L74.2675 145.49V149.664Z" fill="#0E2951"/>
<path d="M35.7324 70.9821L54.9999 78.2732L35.7324 84.0184L54.9999 91.3094L35.7324 70.9821Z" fill="#0E2951"/>
<path d="M18.7925 82.2923L16.4648 81.3648V58.152L18.7925 59.0795V82.2923Z" fill="#709FDC"/>
<path d="M22.5171 83.6836L20.1895 82.7562V59.5433L22.5171 60.4708V83.6836Z" fill="#709FDC"/>
<path d="M34.646 88.321L32.3184 87.3936V64.1807L34.646 65.1082V88.321Z" fill="#709FDC"/>
<path d="M30.5861 86.6206L27.793 85.6931V62.5061L30.5861 63.4336V86.6206Z" fill="#709FDC"/>
<path d="M26.2417 85.0746L23.9141 84.1471V60.9343L26.2417 61.8618V85.0746Z" fill="#709FDC"/>
<path d="M35.7323 111.869L16.4648 104.552V81.3647L35.7323 88.6558V111.869Z" fill="#0E2951"/>
<path d="M35.7321 111.869L26.1113 108.21V96.6167L35.7321 100.249V111.869Z" fill="#3D95D1"/>
<path d="M26.1115 96.6167L16.4648 92.9583V81.3647L26.1115 84.9974V96.6167Z" fill="#3D95D1"/>
<path d="M47.3462 130.418L43.3893 128.924V124.338L50.3204 126.966V135.004L40.4151 131.243V119.752L53.2687 124.622V139.642L37.4668 133.639V114.6L53.2687 120.577" stroke="#3D95D1" stroke-width="3" stroke-miterlimit="10"/>
<path d="M77.7344 148.195L90.8466 135.519" stroke="#0E2951" stroke-width="6" stroke-miterlimit="10"/>
<path d="M90.8466 153.142L77.7344 130.547" stroke="#0E2951" stroke-width="6" stroke-miterlimit="10"/>
<path d="M61.9311 106.922L58.8535 105.763V102.053L61.9311 103.212V106.922Z" fill="#B9D5FD"/>
<path d="M66.1733 113.646L63.0957 112.461V108.751L66.1733 109.911V113.646Z" fill="#B9D5FD"/>
<path d="M70.4136 120.345L67.3359 119.185V115.475L70.4136 116.635V120.345Z" fill="#B9D5FD"/>
<path d="M93.6391 63.82L171.123 34.6816L171.149 127.559L93.6133 156.8L93.6391 63.82Z" fill="#053866"/>
<path d="M151.727 88.4497L171.149 81.1329V104.346L151.727 111.637V88.4497Z" fill="#B9D5FD"/>
<path d="M132.328 95.7409L151.725 88.4498V111.637L132.328 118.954V95.7409Z" fill="#274684"/>
<path d="M112.932 103.032L132.328 95.7408V118.954L112.932 126.245V103.032Z" fill="#053866"/>
<path d="M93.5352 110.426L112.932 103.032V126.245L93.5352 133.639V110.426Z" fill="#B9D5FD"/>
<path d="M132.328 72.528L151.725 65.2369V88.4498L132.328 95.7408V72.528Z" fill="#B9D5FD"/>
<path d="M112.932 79.8189L132.328 72.5279V95.7407L112.932 103.032V79.8189Z" fill="#0E2951"/>
<path d="M93.5352 87.2132L112.932 79.8191V103.032L93.5352 110.426V87.2132Z" fill="#709FDC"/>
<path d="M132.328 118.954L151.725 111.637V134.85L132.328 142.166V118.954Z" fill="#0E2951"/>
<path d="M112.932 126.245L132.328 118.953V142.166L112.932 149.457V126.245Z" fill="#709FDC"/>
<path d="M93.5352 133.639L112.932 126.245V149.457L93.6127 156.8L93.5352 133.639Z" fill="#6780B3"/>
<path d="M151.727 42.0242L171.123 34.6816L171.149 57.9202L151.727 65.237V42.0242Z" fill="#6780B3"/>
<path d="M132.328 49.3152L151.725 42.0242V65.237L132.328 72.528V49.3152Z" fill="#053866"/>
<path d="M112.932 56.6061L132.328 49.3151V72.5279L112.932 79.8189V56.6061Z" fill="#B9D5FD"/>
<path d="M93.6386 63.82L112.932 56.6063V79.8191L93.5352 87.2132L93.6386 63.82Z" fill="#3D95D1"/>
<path d="M93.3533 131.037V127.791L107.655 122.097V87.9346L94.0257 93.0615L93.043 90.4594L110.448 83.9155V124.029L93.3533 131.037Z" fill="#274684"/>
<path d="M110.451 104.5L107.657 105.428V87.9346L93.3555 93.4222V90.176L110.451 83.9155V104.5Z" fill="#0E2951"/>
<path d="M93.3555 125.008V121.762L103.002 117.82V94.7875L93.3555 98.549V95.3028L105.795 91.6959V119.752L93.3555 125.008Z" fill="#274684"/>
<path d="M93.3533 118.954V115.708L97.9568 114.136V103.187L94.0257 104.681L93.043 102.079L100.75 99.1675V116.068L93.3533 118.954Z" fill="#274684"/>
<path d="M100.752 107.669L97.959 108.597V103.187L93.3555 105.042V101.795L100.752 99.1675V107.669Z" fill="#0E2951"/>
<path d="M105.795 106.252L103.002 107.18V94.7876L93.3555 98.5491V95.3029L105.795 90.7686V106.252Z" fill="#0E2951"/>
<path d="M161.449 38.3658L171.122 34.6816L171.148 46.3267L161.449 49.9593V38.3658Z" fill="#FF8098"/>
<path d="M113.01 140.904L120.07 123.668L132.251 127.507L125.217 144.743L113.01 140.904Z" fill="#0E2951"/>
<path d="M117.742 137.632L121.311 128.821L127.544 130.779L123.949 139.59L117.742 137.632Z" fill="#6780B3"/>
<path d="M112.932 56.6061L132.328 49.3151V67.8905L112.932 75.1815V56.6061Z" fill="#3D95D1"/>
<path d="M112.932 56.6061L132.328 49.3151V62.7893L112.932 70.0804V56.6061Z" fill="#6780B3"/>
<path d="M112.932 56.6061L132.328 49.3151V57.6624L112.932 64.9792V56.6061Z" fill="#053866"/>
<path d="M112.932 56.6061L132.328 49.3151V53.4887L112.932 60.8055V56.6061Z" fill="#0E2951"/>
<path d="M151.725 106.098L132.328 113.389L151.725 93.0872L132.328 100.378" fill="#0E2951"/>
<path d="M171.174 104.578L168.381 105.505V81.8285L171.174 80.901V104.578Z" fill="#709FDC"/>
<path d="M167.502 105.788L164.709 106.716V83.5032L167.502 82.5757V105.788Z" fill="#709FDC"/>
<path d="M155.863 110.168L153.044 111.096L152.992 87.8572L155.785 86.9297L155.863 110.168Z" fill="#709FDC"/>
<path d="M159.743 108.7L156.924 109.627V86.4145L159.743 85.487V108.7Z" fill="#709FDC"/>
<path d="M163.622 107.257L160.803 108.185V84.9717L163.622 84.0443V107.257Z" fill="#709FDC"/>
<path d="M151.727 65.237L171.149 57.9202V81.133L151.727 88.4498V65.237Z" fill="#0E2951"/>
<path d="M151.727 111.637L171.149 104.346V127.559L151.727 134.85V111.637Z" fill="#053866"/>
<path d="M151.727 65.2369L161.451 61.5785V73.172L151.727 76.8304V65.2369Z" fill="#3D95D1"/>
<path d="M154.39 133.819L152.062 134.746C152.062 118.953 160.83 109.395 171.175 105.505V107.824C161.838 111.328 154.39 123.153 154.39 133.819Z" fill="#B9D5FD"/>
<path d="M159.537 131.964L156.744 132.892C156.744 121.762 163.417 112.977 171.201 110.04V112.822C164.399 115.373 159.537 123.797 159.537 131.964Z" fill="#3D95D1"/>
<path d="M164.475 130.109L161.863 131.037C161.863 124.08 165.82 117.382 171.122 115.372L171.174 118.026C167.036 119.598 164.475 125.085 164.475 130.109Z" fill="#3376B3"/>
<path d="M168.848 128.254L166.52 129.182C166.055 125.472 168.227 121.788 171.124 120.705L171.175 123.617C169.339 124.287 168.848 126.013 168.848 128.254Z" fill="#709FDC"/>
<path d="M140.14 55.5243L143.942 54.0815V58.4871L137.269 61.0119V53.3086L146.812 49.7018V60.7285L134.398 65.4174V50.9899L149.683 45.2447V63.5367L134.398 69.3077" stroke="#3D95D1" stroke-width="5" stroke-miterlimit="10"/>
<path d="M109.44 60.7026L96.25 83.3229" stroke="#0E2951" stroke-width="6" stroke-miterlimit="10"/>
<path d="M96.25 65.6748L109.44 78.3504" stroke="#0E2951" stroke-width="6" stroke-miterlimit="10"/>
<path d="M125.346 89.9956L128.449 88.8362V92.5462L125.346 93.7313V89.9956Z" fill="#B9D5FD"/>
<path d="M121.078 86.5175L124.182 85.3324V89.0423L121.078 90.2274V86.5175Z" fill="#B9D5FD"/>
<path d="M116.811 83.0137L119.914 81.8286V85.5643L116.811 86.7237V83.0137Z" fill="#B9D5FD"/>
<path d="M156.406 40.2723L171.122 34.6816L171.148 52.3553L156.406 57.8945V40.2723Z" fill="#053866"/>
<path d="M160.363 38.7523L171.122 34.6816L171.148 47.5891L160.363 51.6597V38.7523Z" fill="#709FDC"/>
<path d="M161.449 73.172L171.148 69.5394V81.1329L161.449 84.7913V73.172Z" fill="#3D95D1"/>
<path d="M139.494 46.0947L171.123 34.6815L93.8207 5.64618L63.0703 17.2912L139.494 46.0947Z" fill="#0D3760"/>
<path d="M133.286 48.9544L93.3026 63.9229L16 34.9391L56.0349 19.9191L133.286 48.9544Z" fill="#0D3659"/>
<path d="M135.768 2.40002L93.7674 5.69774L16.4648 34.7073L58.3619 31.5127L135.768 2.40002Z" fill="#043D60"/>
<path d="M171.174 34.7073L142.234 6.36755L64.75 35.4802L93.8193 63.9487L171.174 34.7073Z" fill="#03446B"/>
<path d="M93.5996 99.8851V64L171.089 34.2098H224L216 52.3916L224 70.5733L171.089 70.3999L93.5996 99.8851Z" fill="#B4D1FA"/>
<path d="M114.061 80.0181L110.522 76.293L113.226 70.7906L112.112 71.1919L109.25 77.1512L108.951 72.3305L108.062 72.6508L108.639 81.9709L109.528 81.6506L109.335 78.5206L109.987 77.2001L112.957 80.4156L114.061 80.0181ZM117.766 78.8548C119.877 78.0945 121.185 75.5093 121.014 72.7566C120.844 70.0038 119.28 68.4529 117.169 69.2132C115.048 69.9774 113.751 72.5587 113.921 75.3115C114.092 78.0642 115.645 79.6189 117.766 78.8548ZM117.702 77.8208C116.095 78.3997 114.977 77.1454 114.843 74.9796C114.708 72.7997 115.626 70.8262 117.233 70.2473C118.83 69.6722 119.958 70.9086 120.093 73.0885C120.227 75.2543 119.299 77.2457 117.702 77.8208ZM128.649 74.7635L128.071 65.4433L127.182 65.7637L127.431 69.774L123.252 71.2791L123.004 67.2688L122.114 67.5891L122.691 76.9093L123.581 76.589L123.316 72.3132L127.495 70.808L127.759 75.0838L128.649 74.7635ZM132.976 73.2046L132.463 64.9185L134.735 64.1003L134.671 63.0663L129.249 65.0191L129.313 66.0532L131.574 65.2388L132.087 73.525L132.976 73.2046ZM141.112 70.2742L141.048 69.2402L137.255 70.6064L137.056 67.3925L140.774 66.0533L140.71 65.0193L136.992 66.3585L136.806 63.3543L140.599 61.988L140.535 60.954L135.853 62.6406L136.43 71.9607L141.112 70.2742ZM147.951 67.8106L144.413 64.0855L147.117 58.5831L146.003 58.9845L143.14 64.9437L142.842 60.123L141.953 60.4433L142.53 69.7634L143.419 69.4431L143.225 66.3131L143.877 64.9926L146.848 68.2081L147.951 67.8106ZM151.785 66.601C153.05 66.1456 153.858 65.0543 154.393 63.7762L153.598 63.5053C153.24 64.4484 152.536 65.2736 151.721 65.567C150.157 66.1304 148.87 64.9798 148.733 62.7721C148.596 60.5503 149.688 58.5569 151.252 57.9935C152.067 57.7002 152.841 58.0068 153.297 58.6426L154.013 57.8275C153.381 56.984 152.453 56.504 151.188 56.9594C149.131 57.7004 147.634 60.2395 147.812 63.104C147.989 65.9685 149.728 67.342 151.785 66.601ZM158.287 64.0877L157.774 55.8015L160.045 54.9833L159.981 53.9493L154.56 55.9022L154.624 56.9362L156.885 56.1218L157.398 64.408L158.287 64.0877Z" fill="black"/>
<path d="M171.199 34.4H223.999L215.999 52.4L223.999 70.4H171.199V34.4Z" fill="black" fill-opacity="0.05"/>
<path d="M176 64.2195L181.412 54.1685C183.178 53.8352 183.634 54.0833 184.247 54.6839L179.6 64.2195H176Z" fill="#C43B55"/>
<path d="M193.266 52.8798C197.184 48.1378 201.943 49.5295 203.833 50.8181L206.41 47.7255C203.06 45.0624 195.122 41.9526 190.174 50.8181L193.266 52.8798Z" fill="#C43B55"/>
<path fill-rule="evenodd" clip-rule="evenodd" d="M182.113 39.2228C184.369 38.3456 186.953 38.2911 188.715 38.5054C189.154 38.5587 189.46 38.9319 189.46 39.3501V63.4595C189.46 63.9315 189.077 64.3141 188.605 64.3141H186.607C186.135 64.3141 185.751 63.9315 185.751 63.4595V55.1982H185.105L180.777 63.8417C180.632 64.1312 180.336 64.3141 180.012 64.3141H177.248C176.596 64.3141 176.183 63.6159 176.499 63.0463L181.244 54.4664C179.735 53.6563 177.807 51.6346 177.441 47.9908L178.576 47.8771C178.951 51.6027 181.114 53.2698 182.232 53.6638L182.868 53.8877L177.731 63.1746H179.835L184.4 54.0587H186.893V63.1746H188.319V39.6079C186.69 39.4446 184.449 39.5374 182.528 40.2846C180.532 41.0609 178.919 42.5192 178.615 45.1507L177.481 45.02C177.846 41.8673 179.829 40.1113 182.113 39.2228ZM185.953 40.4152C186.455 40.3632 186.893 40.7584 186.893 41.261V52.2569C186.893 52.6598 186.606 53.0281 186.18 53.0953C185.376 53.2221 184.297 53.2524 183.237 52.7944C182.158 52.328 181.17 51.3865 180.512 49.7084L180.504 49.6875L180.498 49.6661C180.079 48.2872 179.834 46.177 180.498 44.2978C180.834 43.3474 181.405 42.4501 182.306 41.7508C183.206 41.0517 184.404 40.5756 185.953 40.4152ZM185.751 41.5875C184.541 41.7573 183.654 42.1474 183.006 42.6504C182.303 43.1963 181.849 43.9002 181.574 44.6768C181.021 46.2424 181.212 48.0766 181.583 49.314C182.144 50.7322 182.929 51.4194 183.691 51.7486C184.383 52.0478 185.114 52.0761 185.751 52.0038V41.5875Z" fill="black"/>
<path fill-rule="evenodd" clip-rule="evenodd" d="M191.066 50.8955C190.948 50.8062 190.917 50.6408 191 50.5177C192.793 47.8476 195.841 46.0916 199.301 46.0916C201.337 46.0916 203.425 46.8348 205.086 47.9441C205.222 48.0352 205.248 48.2233 205.146 48.3511L203.542 50.3492C203.446 50.4686 203.273 50.4905 203.146 50.4044C202.05 49.6604 200.726 49.2252 199.301 49.2252C196.884 49.2252 194.76 50.4755 193.542 52.3613C193.45 52.5049 193.254 52.5448 193.117 52.4418L191.066 50.8955ZM190.588 51.9625C190.442 51.8527 190.232 51.9057 190.163 52.0746C189.674 53.2795 189.458 54.6243 189.458 56.0621C189.458 57.3351 189.608 58.5266 189.983 59.6101C190.046 59.7921 190.271 59.8494 190.42 59.727L192.55 57.9748C192.636 57.9036 192.673 57.7885 192.646 57.6797C192.52 57.1606 192.453 56.6188 192.453 56.0621C192.453 55.3029 192.577 54.5719 192.807 53.8885C192.847 53.7693 192.808 53.6369 192.708 53.5612L190.588 51.9625ZM190.824 60.8714C190.716 60.9598 190.688 61.113 190.76 61.2318C192.512 64.1109 195.682 66.0325 199.301 66.0325C201.632 66.0325 203.777 65.2351 205.476 63.8976C205.62 63.7844 205.614 63.567 205.467 63.4573L203.31 61.8413C203.212 61.7683 203.079 61.7657 202.977 61.8311C201.914 62.5071 200.653 62.899 199.301 62.899C196.615 62.899 194.292 61.3555 193.17 59.1113C193.14 59.0498 193.06 59.0319 193.006 59.0757L190.824 60.8714ZM206.387 62.7217C206.503 62.8089 206.667 62.7949 206.764 62.6863C207.696 61.6407 208.41 60.3984 208.836 59.0303C208.883 58.8801 209.04 58.7915 209.192 58.834L209.741 58.9876C209.893 59.03 209.982 59.1874 209.936 59.3378C209.359 61.2074 208.301 62.8656 206.909 64.1693C204.919 66.0311 202.243 67.172 199.301 67.172C194.938 67.172 191.162 64.6646 189.339 61.0169C188.579 59.4968 188.316 57.8049 188.316 56.0621C188.316 54.0709 188.702 52.1657 189.663 50.5067C191.586 47.1874 195.181 44.9521 199.301 44.9521C202.036 44.9521 204.794 46.1303 206.738 47.758C206.858 47.8591 206.869 48.0393 206.765 48.1572L206.757 48.1665L203.902 51.722L203.715 51.9553C203.613 52.0822 203.425 52.0983 203.303 51.9905L203.079 51.7924C202.072 50.9036 200.75 50.3647 199.301 50.3647C197.189 50.3647 195.345 51.5094 194.358 53.2138C194.261 53.3812 194.172 53.554 194.092 53.7316C193.773 54.4423 193.595 55.2306 193.595 56.0621C193.595 56.6969 193.698 57.3063 193.889 57.875C193.974 58.1257 194.075 58.3686 194.192 58.6025C195.128 60.4752 197.064 61.7595 199.301 61.7595C200.621 61.7595 201.835 61.3124 202.802 60.5613C202.94 60.4536 203.074 60.3396 203.202 60.2197C203.676 59.7763 204.12 59.1278 204.453 58.446C204.542 58.2631 204.405 58.0562 204.201 58.0562H199.871H199.158H199.015C198.858 58.0562 198.73 57.9286 198.73 57.7713V53.7831V53.4983C198.73 53.3409 198.858 53.2134 199.015 53.2134H199.301H209.609H209.839C209.973 53.2134 210.088 53.3064 210.117 53.4369L210.167 53.6605C210.337 54.4344 210.427 55.2381 210.427 56.0621C210.427 56.1173 210.427 56.1723 210.426 56.2273C210.424 56.3846 210.291 56.507 210.133 56.5007L209.563 56.478C209.406 56.4718 209.284 56.3392 209.285 56.1819C209.286 56.142 209.286 56.1021 209.286 56.0621C209.286 55.5616 209.249 55.0699 209.178 54.5897C209.158 54.4526 209.039 54.3529 208.9 54.3529H200.156C199.999 54.3529 199.871 54.4804 199.871 54.6377V56.6318C199.871 56.7892 199.999 56.9167 200.156 56.9167H205.435H205.812C206.001 56.9167 206.138 57.0973 206.086 57.2791L205.984 57.6415C205.685 58.6961 205.06 59.8883 204.289 60.7385C204.172 60.868 204.185 61.0724 204.325 61.1772L206.387 62.7217Z" fill="black"/>
</svg>
