<svg width="240" height="160" viewBox="0 0 240 160" fill="none" xmlns="http://www.w3.org/2000/svg">
<path d="M94.0137 156.8L17.264 127.941L17.2383 35.4167L94.0395 64.3016L94.0137 156.8Z" fill="#053866"/>
<path d="M170.97 127.71L94.1426 98.7226L94.2198 6.42932L171.124 35.3142L170.97 127.71Z" fill="#102E5B"/>
<path d="M94.0137 156.8L171.124 127.608V35.3144L94.0394 64.3018L94.0137 156.8Z" fill="#054270"/>
<path d="M17.264 127.941L94.1681 98.5176L94.2196 6.42932L17.2383 35.4167L17.264 127.941Z" fill="#0A2D49"/>
<path d="M94.0137 156.8L17.264 127.915L17.2383 35.4167L94.0395 64.3016L94.0137 156.8Z" fill="#053866"/>
<path d="M36.4322 65.9163L17.264 58.6631L17.2383 35.4167L36.4322 42.8238V65.9163Z" fill="#053866"/>
<path d="M22.3587 57.7403C20.615 57.7849 18.8807 57.4708 17.2643 56.8176L17.2129 54.3315C21.1494 55.818 24.9316 55.5361 27.8133 53.5626C31.2867 51.179 33.4736 47.2833 33.4736 41.5678L35.7893 42.4905C35.7893 48.9492 33.8596 52.6143 29.7687 55.4336C27.5752 56.9014 25.0009 57.7028 22.3587 57.7403Z" fill="#B9D5FD"/>
<path d="M55.5998 73.1697L36.4316 65.9164V42.8239L55.5998 50.0771V73.1697Z" fill="#0E2951"/>
<path d="M74.7677 80.4229L55.5996 73.1696V50.0771L74.7677 57.3303V80.4229Z" fill="#709FDC"/>
<path d="M93.9357 87.5736L74.7676 80.4228V57.3303L94.0386 64.3016L93.9357 87.5736Z" fill="#6780B3"/>
<path d="M36.4318 89.0089L17.2637 81.7556V58.6631L36.4318 65.9164V89.0089Z" fill="#B9D5FD"/>
<path d="M55.5998 96.2622L36.4316 89.0089V65.9164L55.5998 73.1696V96.2622Z" fill="#274684"/>
<path d="M74.7677 103.515L55.5996 96.2622V73.1697L74.7677 80.4229V103.515Z" fill="#3D95D1"/>
<path d="M93.9357 110.666L74.7676 103.515V80.4229L93.9357 87.5736V110.666Z" fill="#B9D5FD"/>
<path d="M55.5998 119.355L36.4316 112.102V89.009L55.5998 96.2623V119.355Z" fill="#B9D5FD"/>
<path d="M74.7677 126.608L55.5996 119.355V96.2623L74.7677 103.516V126.608Z" fill="#0E2951"/>
<path d="M93.9357 133.759L74.7676 126.608V103.515L93.9357 110.666V133.759Z" fill="#709FDC"/>
<path d="M36.4318 135.194L17.2637 127.915V104.823L36.4318 112.102V135.194Z" fill="#6780B3"/>
<path d="M55.5998 142.447L36.4316 135.194V112.101L55.5998 119.355V142.447Z" fill="#053866"/>
<path d="M74.7677 149.7L55.5996 142.447V119.355L74.7677 126.608V149.7Z" fill="#B9D5FD"/>
<path d="M94.0129 156.8L74.7676 149.701V126.608L93.9357 133.759L94.0129 156.8Z" fill="#3D95D1"/>
<path d="M21.1745 52.9477C19.8337 52.9678 18.5029 52.7149 17.2637 52.2044V49.4364C20.0167 50.4872 23.4129 50.1284 25.111 49.0007C27.9412 47.1297 29.3306 44.2336 29.3306 40.2097L31.6462 41.1323C31.6462 46.0789 29.8709 49.1032 26.7062 51.2818C25.073 52.3797 23.1448 52.9603 21.1745 52.9477Z" fill="#3D95D1"/>
<path d="M19.8108 47.6165C18.9366 47.6369 18.0682 47.4709 17.2637 47.1296V44.3615C18.9103 44.9767 21.4318 44.8229 22.8211 43.4389C24.2877 41.978 24.6736 40.799 24.6736 38.3641L26.9892 39.2868C26.9892 42.67 25.8314 44.951 23.6187 46.4376C22.5016 47.2117 21.1717 47.6234 19.8108 47.6165Z" fill="#3376B3"/>
<path d="M18.5244 42.2856C18.0912 42.3195 17.6565 42.2399 17.2637 42.0549V39.2869C17.6753 39.4407 19.039 39.5432 19.5793 39.2869C20.5055 38.8256 20.5055 37.9029 20.0424 36.5189L22.8211 37.4415C22.8211 39.3638 22.1265 40.6965 20.84 41.5936C20.1522 42.0439 19.3474 42.2844 18.5244 42.2856Z" fill="#709FDC"/>
<path d="M93.4479 130.529L77.2129 124.404V84.4979L93.7567 90.521V93.7503L79.9916 88.4962V122.481L93.2935 127.479L93.4479 130.529Z" fill="#274684"/>
<path d="M93.7567 131.17L77.2129 124.404V104.054L79.9916 104.976V122.481L93.7567 127.941V131.17Z" fill="#0E2951"/>
<path d="M93.4479 124.532L81.8184 120.124V91.3157L93.7566 95.6215V98.8509L84.5971 95.3139V118.688L93.7566 121.943L93.4479 124.532Z" fill="#274684"/>
<path d="M93.4467 118.996L86.8086 116.484V99.6708L93.7555 102.08V105.309L89.5873 103.669V114.562L93.7555 116.381L93.4467 118.996Z" fill="#274684"/>
<path d="M93.7555 119.15L86.8086 116.484V107.668L89.5873 108.59V114.562L93.7555 115.92V119.15Z" fill="#0E2951"/>
<path d="M93.7566 125.173L81.8184 120.585V105.797L84.5971 106.719V118.688L93.7566 121.943V125.173Z" fill="#0E2951"/>
<path d="M31.8263 133.451L17.2637 127.915V110.384L31.8263 115.895V133.451Z" fill="#053866"/>
<path d="M26.8606 131.555L17.2637 127.915V116.382L26.8606 120.021V131.555Z" fill="#709FDC"/>
<path d="M74.6915 65.7882L67.7446 77.6549L55.6777 64.7118L62.6503 52.8452L74.6915 65.7882Z" fill="#0E2951"/>
<path d="M70.0338 65.532L66.4832 71.5807L60.334 64.9938L63.8846 58.9195L70.0338 65.532Z" fill="#6780B3"/>
<path d="M74.7677 149.7L55.5996 142.447V123.968L74.7677 131.221V149.7Z" fill="#3D95D1"/>
<path d="M74.7677 149.701L55.5996 142.447V129.043L74.7677 136.296V149.701Z" fill="#6780B3"/>
<path d="M74.7677 149.701L55.5996 142.447V134.118L74.7677 141.397V149.701Z" fill="#053866"/>
<path d="M74.7677 149.701L55.5996 142.447V138.295L74.7677 145.549V149.701Z" fill="#0E2951"/>
<path d="M36.4316 71.4268L55.5998 78.68L36.4316 84.3955L55.5998 91.6488L36.4316 71.4268Z" fill="#0E2951"/>
<path d="M19.5793 82.6783L17.2637 81.7556V58.6631L19.5793 59.5858V82.6783Z" fill="#709FDC"/>
<path d="M23.2844 84.0625L20.9688 83.1398V60.0472L23.2844 60.9699V84.0625Z" fill="#709FDC"/>
<path d="M35.3508 88.6759L33.0352 87.7532V64.6606L35.3508 65.5833V88.6759Z" fill="#709FDC"/>
<path d="M31.3119 86.9843L28.5332 86.0616V62.9947L31.3119 63.9174V86.9843Z" fill="#709FDC"/>
<path d="M26.9894 85.4462L24.6738 84.5236V61.431L26.9894 62.3537V85.4462Z" fill="#709FDC"/>
<path d="M36.4318 112.101L17.2637 104.823V81.7556L36.4318 89.0089V112.101Z" fill="#0E2951"/>
<path d="M36.4325 112.101L26.8613 108.462V96.9285L36.4325 100.542V112.101Z" fill="#3D95D1"/>
<path d="M26.8606 96.9285L17.2637 93.2891V81.7556L26.8606 85.3694V96.9285Z" fill="#3D95D1"/>
<path d="M47.9847 130.555L44.0482 129.068V124.506L50.9436 127.121V135.117L41.0894 131.375V119.944L53.8767 124.788V139.73L38.1562 133.759V114.818L53.8767 120.764" stroke="#3D95D1" stroke-width="5" stroke-miterlimit="10"/>
<path d="M78.2168 148.24L91.2614 135.63" stroke="#0E2951" stroke-width="6" stroke-miterlimit="10"/>
<path d="M91.2614 153.161L78.2168 130.683" stroke="#0E2951" stroke-width="6" stroke-miterlimit="10"/>
<path d="M62.4954 107.181L59.4336 106.027V102.337L62.4954 103.49V107.181Z" fill="#B9D5FD"/>
<path d="M66.716 113.87L63.6543 112.691V109L66.716 110.154V113.87Z" fill="#B9D5FD"/>
<path d="M70.9348 120.534L67.873 119.38V115.689L70.9348 116.843V120.534Z" fill="#B9D5FD"/>
<path d="M94.0394 64.3018L171.124 35.3144L171.149 127.71L94.0137 156.8L94.0394 64.3018Z" fill="#053866"/>
<path d="M151.826 88.8038L171.149 81.5249V104.617L151.826 111.871V88.8038Z" fill="#B9D5FD"/>
<path d="M132.529 96.0572L151.826 88.804V111.871L132.529 119.15V96.0572Z" fill="#274684"/>
<path d="M113.232 103.311L132.529 96.0573V119.15L113.232 126.403V103.311Z" fill="#053866"/>
<path d="M93.9355 110.666L113.232 103.311V126.403L93.9355 133.759V110.666Z" fill="#B9D5FD"/>
<path d="M132.529 72.9646L151.826 65.7114V88.8039L132.529 96.0572V72.9646Z" fill="#B9D5FD"/>
<path d="M113.232 80.2178L132.529 72.9645V96.0571L113.232 103.31V80.2178Z" fill="#0E2951"/>
<path d="M93.9355 87.5737L113.232 80.2179V103.31L93.9355 110.666V87.5737Z" fill="#709FDC"/>
<path d="M132.529 119.15L151.826 111.871V134.963L132.529 142.242V119.15Z" fill="#0E2951"/>
<path d="M113.232 126.403L132.529 119.15V142.242L113.232 149.495V126.403Z" fill="#709FDC"/>
<path d="M93.9355 133.759L113.232 126.403V149.496L94.0127 156.8L93.9355 133.759Z" fill="#6780B3"/>
<path d="M151.826 42.6189L171.123 35.3144L171.149 58.4326L151.826 65.7115V42.6189Z" fill="#6780B3"/>
<path d="M132.529 49.8722L151.826 42.6189V65.7114L132.529 72.9647V49.8722Z" fill="#053866"/>
<path d="M113.232 57.1253L132.529 49.872V72.9646L113.232 80.2178V57.1253Z" fill="#B9D5FD"/>
<path d="M94.0385 64.3017L113.232 57.1254V80.2179L93.9355 87.5737L94.0385 64.3017Z" fill="#3D95D1"/>
<path d="M93.756 131.17V127.941L107.984 122.277V88.2914L94.425 93.3917L93.4473 90.8031L110.763 84.2931V124.199L93.756 131.17Z" fill="#274684"/>
<path d="M110.763 104.771L107.984 105.694V88.2914L93.7559 93.7505V90.5212L110.763 84.2931V104.771Z" fill="#0E2951"/>
<path d="M93.7559 125.173V121.943L103.353 118.022V95.1088L93.7559 98.8508V95.6214L106.132 92.0332V119.944L93.7559 125.173Z" fill="#274684"/>
<path d="M93.756 119.15V115.92L98.3358 114.357V103.464L94.425 104.951L93.4473 102.362L101.115 99.4661V116.279L93.756 119.15Z" fill="#274684"/>
<path d="M101.114 107.924L98.3356 108.847V103.464L93.7559 105.31V102.08L101.114 99.4661V107.924Z" fill="#0E2951"/>
<path d="M106.132 106.514L103.353 107.437V95.109L93.7559 98.851V95.6216L106.132 91.1107V106.514Z" fill="#0E2951"/>
<path d="M161.5 38.9795L171.123 35.3144L171.148 46.8991L161.5 50.5129V38.9795Z" fill="#FF8098"/>
<path d="M113.311 140.986L120.335 123.84L132.453 127.659L125.455 144.805L113.311 140.986Z" fill="#0E2951"/>
<path d="M118.02 137.731L121.57 128.966L127.771 130.914L124.195 139.679L118.02 137.731Z" fill="#6780B3"/>
<path d="M113.232 57.1253L132.529 49.872V68.3512L113.232 75.6044V57.1253Z" fill="#3D95D1"/>
<path d="M113.232 57.1253L132.529 49.872V63.2764L113.232 70.5297V57.1253Z" fill="#6780B3"/>
<path d="M113.232 57.1253L132.529 49.872V58.1761L113.232 65.455V57.1253Z" fill="#053866"/>
<path d="M113.232 57.1253L132.529 49.872V54.0241L113.232 61.3029V57.1253Z" fill="#0E2951"/>
<path d="M151.826 106.36L132.529 113.614L151.826 93.4172L132.529 100.671" fill="#0E2951"/>
<path d="M171.175 104.848L168.396 105.771V82.217L171.175 81.2943V104.848Z" fill="#709FDC"/>
<path d="M167.521 106.053L164.742 106.975V83.8829L167.521 82.9602V106.053Z" fill="#709FDC"/>
<path d="M155.944 110.41L153.139 111.333L153.088 88.2144L155.867 87.2917L155.944 110.41Z" fill="#709FDC"/>
<path d="M159.803 108.949L156.998 109.872V86.7791L159.803 85.8564V108.949Z" fill="#709FDC"/>
<path d="M163.662 107.514L160.857 108.436V85.3438L163.662 84.4211V107.514Z" fill="#709FDC"/>
<path d="M151.826 65.7114L171.149 58.4325V81.525L151.826 88.8039V65.7114Z" fill="#0E2951"/>
<path d="M151.826 111.871L171.149 104.617V127.71L151.826 134.963V111.871Z" fill="#053866"/>
<path d="M151.826 65.7113L161.5 62.0718V73.6053L151.826 77.2447V65.7113Z" fill="#3D95D1"/>
<path d="M154.478 133.938L152.162 134.861C152.162 119.15 160.884 109.641 171.176 105.771V108.077C161.888 111.563 154.478 123.327 154.478 133.938Z" fill="#B9D5FD"/>
<path d="M159.597 132.093L156.818 133.016C156.818 121.943 163.456 113.204 171.201 110.282V113.05C164.434 115.587 159.597 123.968 159.597 132.093Z" fill="#3D95D1"/>
<path d="M164.511 130.247L161.912 131.17C161.912 124.25 165.849 117.586 171.123 115.587L171.175 118.227C167.058 119.79 164.511 125.25 164.511 130.247Z" fill="#3376B3"/>
<path d="M168.859 128.402L166.543 129.325C166.08 125.634 168.241 121.969 171.123 120.892L171.174 123.789C169.348 124.455 168.859 126.172 168.859 128.402Z" fill="#709FDC"/>
<path d="M140.3 56.049L144.082 54.6138V58.9965L137.444 61.5082V53.8449L146.938 50.2567V61.2263L134.588 65.8909V51.5382L149.794 45.8227V64.0199L134.588 69.761" stroke="#3D95D1" stroke-width="5" stroke-miterlimit="10"/>
<path d="M109.76 61.2005L96.6387 83.7036" stroke="#0E2951" stroke-width="6" stroke-miterlimit="10"/>
<path d="M96.6387 66.147L109.76 78.7569" stroke="#0E2951" stroke-width="6" stroke-miterlimit="10"/>
<path d="M125.582 90.3417L128.67 89.1884V92.8791L125.582 94.058V90.3417Z" fill="#B9D5FD"/>
<path d="M121.338 86.8817L124.425 85.7028V89.3935L121.338 90.5724V86.8817Z" fill="#B9D5FD"/>
<path d="M117.092 83.396L120.179 82.217V85.9334L117.092 87.0867V83.396Z" fill="#B9D5FD"/>
<path d="M156.484 40.8761L171.124 35.3144L171.15 52.8965L156.484 58.4069V40.8761Z" fill="#053866"/>
<path d="M160.42 39.3639L171.123 35.3144L171.149 48.155L160.42 52.2045V39.3639Z" fill="#709FDC"/>
<path d="M161.5 73.6053L171.148 69.9915V81.5249L161.5 85.1643V73.6053Z" fill="#3D95D1"/>
<path d="M139.656 46.6683L171.123 35.3142L94.2188 6.42932L63.627 18.014L139.656 46.6683Z" fill="#0D3760"/>
<path d="M133.482 49.5132L93.7049 64.4042L16.8008 35.5705L56.6294 20.6283L133.482 49.5132Z" fill="#0D3659"/>
<path d="M135.952 3.20001L94.1678 6.48064L17.2637 35.3399L58.9447 32.1618L135.952 3.20001Z" fill="#043D60"/>
<path d="M171.176 35.3399L142.385 7.14697L65.3008 36.1088L94.2202 64.4298L171.176 35.3399Z" fill="#03446B"/>
<path d="M94 99.2V64.4L170.8 34.8L223.6 34.4L215.6 52.4L223.6 70.4L171.2 70.5933L94 99.2Z" fill="#B4D1FA"/>
<path d="M108.704 79.7792L105.294 71.4505L104.184 71.8316L101.811 82.1472L102.834 81.7957L103.356 79.5085L106.931 78.2801L107.681 80.1307L108.704 79.7792ZM106.605 77.3381L103.557 78.3853L104.811 72.8414L106.605 77.3381ZM115.631 77.3993L115.119 68.0754L114.225 68.3825L114.445 72.3944L110.245 73.8374L110.024 69.8255L109.13 70.1326L109.643 79.4565L110.537 79.1494L110.302 74.8719L114.502 73.4289L114.737 77.7064L115.631 77.3993ZM123.461 74.7097L120.051 66.3811L118.941 66.7622L116.567 77.0777L117.591 76.7262L118.112 74.439L121.688 73.2106L122.437 75.0612L123.461 74.7097ZM121.362 72.2687L118.314 73.3158L119.567 67.772L121.362 72.2687ZM123.914 74.725C125.195 74.2847 126.022 73.3597 126.185 69.1306L126.335 65.2762L129.038 64.3475L129.494 72.637L130.388 72.3299L129.876 63.0059L125.481 64.5155L125.297 69.3502C125.169 72.613 124.718 73.3946 123.857 73.6906L123.914 74.725ZM132.929 71.457L136.71 62.5809L137.119 70.0177L138.013 69.7106L137.5 60.3867L136.585 60.7012L132.849 69.405L132.449 62.122L131.555 62.4291L132.067 71.753L132.929 71.457ZM142.364 68.2157L141.908 59.9263L144.192 59.1419L144.135 58.1074L138.685 59.9796L138.742 61.0141L141.014 60.2334L141.47 68.5228L142.364 68.2157ZM146.697 66.7272L150.478 57.8511L150.887 65.2879L151.781 64.9808L151.268 55.6569L150.353 55.9714L146.617 64.6752L146.217 57.3922L145.323 57.6993L145.836 67.0232L146.697 66.7272ZM158.911 62.5313L155.389 58.7561L158.14 53.2962L157.02 53.681L154.108 59.5952L153.842 54.7725L152.948 55.0796L153.461 64.4035L154.355 64.0964L154.183 60.9652L154.846 59.6549L157.802 62.9124L158.911 62.5313ZM166.08 60.0687L162.67 51.74L161.56 52.1212L159.187 62.4367L160.21 62.0852L160.731 59.798L164.307 58.5696L165.057 60.4202L166.08 60.0687ZM163.981 57.6277L160.933 58.6748L162.187 53.1309L163.981 57.6277Z" fill="black"/>
<path d="M223.601 34.4L170.801 34.8L171.198 70.4H223.601L215.661 52.4L223.601 34.4Z" fill="black" fill-opacity="0.05"/>
<path d="M199.865 59.5853L198.448 58.1683L199.882 56.4505L201.015 57.584L202.155 57.5778L209.239 64.9474L206.373 67.8127L199.29 60.443L199.865 59.5853Z" fill="#C43B55"/>
<path fill-rule="evenodd" clip-rule="evenodd" d="M191.723 41.9352C187.429 41.977 183.924 45.5026 183.894 49.8098C183.864 54.117 187.32 57.5749 191.614 57.5331C195.908 57.4913 199.413 53.9657 199.443 49.6585C199.454 48.1414 199.032 46.7312 198.294 45.5415C198.147 45.3034 198.221 44.9872 198.461 44.8352C198.701 44.6831 199.015 44.7528 199.163 44.9908C199.998 46.3374 200.475 47.9342 200.463 49.6486C200.429 54.5207 196.464 58.5086 191.607 58.5559C186.75 58.6032 182.84 54.6918 182.874 49.8197C182.908 44.9476 186.873 40.9597 191.73 40.9124C193.549 40.8947 195.237 41.4331 196.634 42.3698C196.866 42.5256 196.926 42.8428 196.766 43.0785C196.607 43.3141 196.29 43.3788 196.058 43.2231C194.823 42.3953 193.333 41.9195 191.723 41.9352Z" fill="black"/>
<path fill-rule="evenodd" clip-rule="evenodd" d="M191.597 59.5795C197.017 59.5268 201.442 55.0766 201.48 49.6396C201.518 44.2026 197.154 39.8377 191.734 39.8904C186.314 39.9431 181.89 44.3934 181.852 49.8304C181.839 51.7451 182.371 53.5255 183.302 55.0273C183.45 55.2654 183.375 55.5816 183.135 55.7337C182.895 55.8857 182.581 55.816 182.434 55.578C181.405 53.9192 180.818 51.9523 180.832 49.8403C180.874 43.8384 185.758 38.9258 191.741 38.8676C197.725 38.8094 202.541 43.6278 202.499 49.6297C202.458 55.6315 197.574 60.5442 191.59 60.6023C189.349 60.6241 187.269 59.9608 185.549 58.807C185.317 58.6512 185.257 58.3339 185.417 58.0983C185.576 57.8627 185.893 57.798 186.125 57.9537C187.683 58.9986 189.565 59.5993 191.597 59.5795Z" fill="black"/>
<path fill-rule="evenodd" clip-rule="evenodd" d="M199.811 55.809L201.325 57.3281L201.704 57.2705C202.261 57.1861 202.821 57.3689 203.215 57.7641L209.113 63.681C209.507 64.0761 209.689 64.6372 209.605 65.1956L209.573 65.4068C209.515 65.7906 209.335 66.1474 209.06 66.4236L208.03 67.4567C207.755 67.7328 207.399 67.9134 207.017 67.9714L206.806 68.0033C206.25 68.0876 205.69 67.9047 205.296 67.5097L199.398 61.5926C199.004 61.1976 198.822 60.6364 198.906 60.078L198.963 59.6979L197.449 58.1794L199.811 55.809ZM199.984 59.7496L199.914 60.2142C199.878 60.4536 199.956 60.694 200.125 60.8634L206.023 66.7804C206.192 66.9497 206.432 67.0281 206.67 66.992L206.881 66.9601C207.045 66.9352 207.197 66.8578 207.315 66.7395L208.345 65.7063C208.463 65.588 208.54 65.4351 208.565 65.2706L208.597 65.0594C208.633 64.8201 208.555 64.5796 208.386 64.4103L202.488 58.4934C202.319 58.324 202.079 58.2456 201.84 58.2818L201.377 58.3522L199.984 59.7496ZM200.42 57.8781L199.799 57.2556L198.891 58.1671L199.511 58.7894L200.42 57.8781Z" fill="black"/>
<path d="M189.414 49.8424C188.984 50.0771 188.605 49.8424 188.605 50.7835V53.0783L189.414 53.8873L190.223 53.0783V50.9155C190.074 50.3762 189.886 50.149 189.414 49.8424Z" fill="#C43B55"/>
<path d="M191.438 49.4379L191.033 50.0321V53.4828L191.427 53.8873H191.842L192.651 53.0783L192.613 50.1726C192.681 50.0117 192.48 49.5272 192.247 49.4379C191.974 49.1214 191.787 49.1924 191.438 49.4379Z" fill="#C43B55"/>
<path d="M194.268 47.4155L193.494 48.0077L193.459 53.0784L194.268 53.8873L195.077 53.0784L195.077 48.0077L194.673 47.8199L194.268 47.4155Z" fill="#C43B55"/>
<path fill-rule="evenodd" clip-rule="evenodd" d="M194.688 44.9939C194.747 45.0077 194.796 45.0468 194.823 45.1005L195.056 45.5688C195.106 45.6688 195.065 45.7904 194.966 45.8404C194.866 45.8904 194.745 45.85 194.695 45.7503C194.221 47.1725 193.231 48.1408 192.16 48.7752C190.968 49.4812 189.665 49.7814 188.822 49.8419C188.71 49.8498 188.614 49.7659 188.606 49.6543C188.598 49.5428 188.682 49.4459 188.793 49.4379C189.583 49.3813 190.824 49.0961 191.955 48.4265C192.939 47.8431 193.832 46.9738 194.28 45.7153C194.192 45.7689 194.077 45.7479 194.014 45.6637C193.947 45.5743 193.965 45.4473 194.054 45.3803L194.521 45.029C194.569 44.993 194.63 44.9801 194.688 44.9939Z" fill="black"/>
<path fill-rule="evenodd" clip-rule="evenodd" d="M193.459 48.0605C193.459 47.7043 193.734 47.4155 194.074 47.4155H194.462C194.802 47.4155 195.077 47.7043 195.077 48.0605V50.5401C195.077 50.6373 195.002 50.716 194.909 50.716C194.817 50.716 194.742 50.6373 194.742 50.5401V48.0605C194.742 47.8986 194.617 47.7673 194.462 47.7673H194.074C193.919 47.7673 193.794 47.8986 193.794 48.0605V53.2423C193.794 53.4042 193.919 53.5354 194.074 53.5354H194.462C194.617 53.5354 194.742 53.4042 194.742 53.2423V51.1521C194.742 51.0549 194.817 50.9762 194.909 50.9762C195.002 50.9762 195.077 51.0549 195.077 51.1521V53.2423C195.077 53.5985 194.802 53.8873 194.462 53.8873H194.074C193.734 53.8873 193.459 53.5985 193.459 53.2423V48.0605Z" fill="black"/>
<path fill-rule="evenodd" clip-rule="evenodd" d="M191.033 49.7088C191.033 49.3358 191.308 49.0334 191.648 49.0334H192.037C192.376 49.0334 192.651 49.3358 192.651 49.7087V53.2119C192.651 53.5849 192.376 53.8872 192.037 53.8872H191.559C191.269 53.8872 191.033 53.6284 191.033 53.3091C191.033 53.2073 191.108 53.1249 191.201 53.1249C191.293 53.1249 191.368 53.2073 191.368 53.3091C191.368 53.4249 191.454 53.5189 191.559 53.5189H192.037C192.191 53.5189 192.316 53.3814 192.316 53.2119V49.7087C192.316 49.5392 192.191 49.4018 192.037 49.4018H191.648C191.493 49.4018 191.368 49.5392 191.368 49.7088V52.9151C191.368 53.0168 191.293 53.0993 191.201 53.0993C191.108 53.0993 191.033 53.0168 191.033 52.9151V49.7088Z" fill="black"/>
<path fill-rule="evenodd" clip-rule="evenodd" d="M188.605 50.4848C188.605 50.13 188.87 49.8424 189.196 49.8424H189.609C189.948 49.8424 190.223 50.1418 190.223 50.5112V53.2185C190.223 53.5879 189.948 53.8873 189.609 53.8873H189.22C188.881 53.8873 188.605 53.5879 188.605 53.2185V50.9448C188.605 50.8441 188.681 50.7624 188.773 50.7624C188.866 50.7624 188.941 50.8441 188.941 50.9448V53.2185C188.941 53.3864 189.066 53.5225 189.22 53.5225H189.609C189.763 53.5225 189.888 53.3864 189.888 53.2185V50.5112C189.888 50.3433 189.763 50.2072 189.609 50.2072H189.196C189.055 50.2072 188.941 50.3315 188.941 50.4848C188.941 50.5855 188.866 50.6672 188.773 50.6672C188.681 50.6672 188.605 50.5855 188.605 50.4848Z" fill="black"/>
</svg>
