<svg width="260" height="192" viewBox="0 0 260 192" fill="none" xmlns="http://www.w3.org/2000/svg">
<path d="M96.5172 192L0.580013 155.926L0.547852 40.2709L96.5494 76.377L96.5172 192Z" fill="#053866"/>
<path d="M192.71 155.637L96.6768 119.403L96.7732 4.03664L192.903 40.1428L192.71 155.637Z" fill="#102E5B"/>
<path d="M96.5166 192L192.904 155.51V40.1429L96.5488 76.3772L96.5166 192Z" fill="#054270"/>
<path d="M0.580013 155.926L96.7102 119.147L96.7745 4.03664L0.547852 40.2709L0.580013 155.926Z" fill="#0A2D49"/>
<path d="M96.5172 192L0.580013 155.894L0.547852 40.2709L96.5494 76.377L96.5172 192Z" fill="#053866"/>
<path d="M24.5402 78.3953L0.580013 69.3288L0.547852 40.2709L24.5402 49.5297V78.3953Z" fill="#053866"/>
<path d="M6.94691 68.1753C4.76723 68.2311 2.59943 67.8385 0.578971 67.022L0.514648 63.9144C5.43533 65.7725 10.163 65.4201 13.7651 62.9532C18.1069 59.9738 20.8406 55.1041 20.8406 47.9597L23.7351 49.1131C23.7351 57.1865 21.323 61.7679 16.2094 65.292C13.4675 67.1268 10.2496 68.1285 6.94691 68.1753Z" fill="#B9D5FD"/>
<path d="M48.4992 87.462L24.5391 78.3955V49.5298L48.4992 58.5963V87.462Z" fill="#0E2951"/>
<path d="M72.4592 96.5286L48.499 87.462V58.5964L72.4592 67.6629V96.5286Z" fill="#709FDC"/>
<path d="M96.4192 105.467L72.459 96.5285V67.6628L96.5478 76.3769L96.4192 105.467Z" fill="#6780B3"/>
<path d="M24.5393 107.261L0.579102 98.1945V69.3289L24.5393 78.3954V107.261Z" fill="#B9D5FD"/>
<path d="M48.4992 116.328L24.5391 107.261V78.3954L48.4992 87.462V116.328Z" fill="#274684"/>
<path d="M72.4592 125.394L48.499 116.328V87.4621L72.4592 96.5287V125.394Z" fill="#3D95D1"/>
<path d="M96.4191 134.333L72.459 125.394V96.5286L96.4191 105.467V134.333Z" fill="#B9D5FD"/>
<path d="M48.4992 145.194L24.5391 136.127V107.261L48.4992 116.328V145.194Z" fill="#B9D5FD"/>
<path d="M72.4592 154.26L48.499 145.194V116.328L72.4592 125.394V154.26Z" fill="#0E2951"/>
<path d="M96.4191 163.198L72.459 154.26V125.394L96.4191 134.333V163.198Z" fill="#709FDC"/>
<path d="M24.5393 164.993L0.579102 155.894V127.028L24.5393 136.127V164.993Z" fill="#6780B3"/>
<path d="M48.4992 174.059L24.5391 164.992V136.127L48.4992 145.193V174.059Z" fill="#053866"/>
<path d="M72.4592 183.126L48.499 174.059V145.193L72.4592 154.26V183.126Z" fill="#B9D5FD"/>
<path d="M96.5156 192L72.459 183.126V154.26L96.4192 163.198L96.5156 192Z" fill="#3D95D1"/>
<path d="M5.46762 62.1846C3.7916 62.2098 2.1281 61.8936 0.579102 61.2556V57.7955C4.02036 59.1091 8.26565 58.6605 10.3883 57.2509C13.926 54.9122 15.6628 51.2919 15.6628 46.2621L18.5573 47.4154C18.5573 53.5986 16.3381 57.379 12.3823 60.1022C10.3407 61.4746 7.9305 62.2004 5.46762 62.1846Z" fill="#3D95D1"/>
<path d="M3.76307 55.5207C2.67032 55.5462 1.58474 55.3386 0.579102 54.912V51.4519C2.63743 52.2208 5.78923 52.0286 7.52594 50.2986C9.35914 48.4724 9.84156 46.9987 9.84156 43.9552L12.7361 45.1085C12.7361 49.3375 11.2888 52.1888 8.52295 54.0469C7.12645 55.0146 5.46416 55.5293 3.76307 55.5207Z" fill="#3376B3"/>
<path d="M2.15501 48.857C1.61346 48.8993 1.0702 48.7999 0.579102 48.5686V45.1086C1.09368 45.3008 2.79823 45.429 3.47362 45.1086C4.63143 44.5319 4.63143 43.3786 4.05252 41.6486L7.52594 42.8019C7.52594 45.2047 6.65759 46.8706 5.04952 47.992C4.18979 48.5548 3.1838 48.8555 2.15501 48.857Z" fill="#709FDC"/>
<path d="M95.8084 159.162L75.5146 151.505V101.622L96.1944 109.151V113.188L78.9881 106.62V149.102L95.6155 155.349L95.8084 159.162Z" fill="#274684"/>
<path d="M96.1944 159.963L75.5146 151.505V126.067L78.9881 127.22V149.102L96.1944 155.926V159.963Z" fill="#0E2951"/>
<path d="M95.8094 151.665L81.2725 146.155V110.145L96.1953 115.527V119.564L84.7459 115.142V144.36L96.1953 148.429L95.8094 151.665Z" fill="#274684"/>
<path d="M95.8084 144.745L87.5107 141.605V120.588L96.1943 123.6V127.637L90.9842 125.586V139.202L96.1943 141.477L95.8084 144.745Z" fill="#274684"/>
<path d="M96.1943 144.937L87.5107 141.605V130.585L90.9842 131.738V139.203L96.1943 140.901V144.937Z" fill="#0E2951"/>
<path d="M96.1953 152.466L81.2725 146.731V128.246L84.7459 129.399V144.361L96.1953 148.429V152.466Z" fill="#0E2951"/>
<path d="M18.7824 162.814L0.579102 155.894V133.98L18.7824 140.868V162.814Z" fill="#053866"/>
<path d="M12.5753 160.443L0.579102 155.894V141.477L12.5753 146.027V160.443Z" fill="#709FDC"/>
<path d="M72.3639 78.2353L63.6803 93.0686L48.5967 76.8897L57.3124 62.0564L72.3639 78.2353Z" fill="#0E2951"/>
<path d="M66.5418 77.915L62.1036 85.4758L54.417 77.2422L58.8553 69.6493L66.5418 77.915Z" fill="#6780B3"/>
<path d="M72.4592 183.126L48.499 174.059V150.96L72.4592 160.027V183.126Z" fill="#3D95D1"/>
<path d="M72.4592 183.126L48.499 174.059V157.304L72.4592 166.37V183.126Z" fill="#6780B3"/>
<path d="M72.4592 183.126L48.499 174.059V163.647L72.4592 172.746V183.126Z" fill="#053866"/>
<path d="M72.4592 183.126L48.499 174.059V168.869L72.4592 177.936V183.126Z" fill="#0E2951"/>
<path d="M24.5391 85.2834L48.4992 94.35L24.5391 101.494L48.4992 110.561L24.5391 85.2834Z" fill="#0E2951"/>
<path d="M3.47362 99.3479L0.579102 98.1945V69.3289L3.47362 70.4822V99.3479Z" fill="#709FDC"/>
<path d="M8.10448 101.078L5.20996 99.9247V71.0591L8.10448 72.2124V101.078Z" fill="#709FDC"/>
<path d="M23.1885 106.845L20.2939 105.691V76.8258L23.1885 77.9791V106.845Z" fill="#709FDC"/>
<path d="M18.1385 104.73L14.665 103.577V74.7433L18.1385 75.8967V104.73Z" fill="#709FDC"/>
<path d="M12.7363 102.808L9.8418 101.654V72.7888L12.7363 73.9421V102.808Z" fill="#709FDC"/>
<path d="M24.5393 136.127L0.579102 127.028V98.1945L24.5393 107.261V136.127Z" fill="#0E2951"/>
<path d="M24.5392 136.127L12.5752 131.577V117.161L24.5392 121.678V136.127Z" fill="#3D95D1"/>
<path d="M12.5753 117.161L0.579102 112.611V98.1945L12.5753 102.712V117.161Z" fill="#3D95D1"/>
<path d="M38.98 159.194L34.0593 157.336V151.633L42.6785 154.901V164.896L30.3607 160.219V145.93L46.3449 151.985V170.663L26.6943 163.198V139.523L46.3449 146.955" stroke="#3D95D1" stroke-width="5" stroke-miterlimit="10"/>
<path d="M76.7695 181.299L93.0753 165.537" stroke="#0E2951" stroke-width="6" stroke-miterlimit="10"/>
<path d="M93.0753 187.451L76.7695 159.354" stroke="#0E2951" stroke-width="6" stroke-miterlimit="10"/>
<path d="M57.1192 129.976L53.292 128.534V123.921L57.1192 125.362V129.976Z" fill="#B9D5FD"/>
<path d="M62.3936 138.337L58.5664 136.864V132.25L62.3936 133.692V138.337Z" fill="#B9D5FD"/>
<path d="M67.668 146.667L63.8408 145.225V140.612L67.668 142.053V146.667Z" fill="#B9D5FD"/>
<path d="M96.5488 76.3772L192.904 40.1429L192.936 155.638L96.5166 192L96.5488 76.3772Z" fill="#053866"/>
<path d="M168.782 107.005L192.935 97.9062V126.772L168.782 135.838V107.005Z" fill="#B9D5FD"/>
<path d="M144.661 116.071L168.782 107.005V135.839L144.661 144.937V116.071Z" fill="#274684"/>
<path d="M120.541 125.138L144.662 116.072V144.937L120.541 154.004V125.138Z" fill="#053866"/>
<path d="M96.4189 134.333L120.54 125.138V154.004L96.4189 163.199V134.333Z" fill="#B9D5FD"/>
<path d="M144.661 87.2058L168.782 78.1392V107.005L144.661 116.071V87.2058Z" fill="#B9D5FD"/>
<path d="M120.541 96.2722L144.662 87.2057V116.071L120.541 125.138V96.2722Z" fill="#0E2951"/>
<path d="M96.4189 105.467L120.54 96.2724V125.138L96.4189 134.333V105.467Z" fill="#709FDC"/>
<path d="M144.661 144.937L168.782 135.838V164.704L144.661 173.803V144.937Z" fill="#0E2951"/>
<path d="M120.541 154.004L144.662 144.937V173.803L120.541 182.869V154.004Z" fill="#709FDC"/>
<path d="M96.4189 163.198L120.54 154.004V182.869L96.5154 192L96.4189 163.198Z" fill="#6780B3"/>
<path d="M168.782 49.2736L192.903 40.1429L192.935 69.0407L168.782 78.1393V49.2736Z" fill="#6780B3"/>
<path d="M144.661 58.3402L168.782 49.2736V78.1392L144.661 87.2058V58.3402Z" fill="#053866"/>
<path d="M120.541 67.4065L144.662 58.34V87.2056L120.541 96.2722V67.4065Z" fill="#B9D5FD"/>
<path d="M96.5476 76.3772L120.54 67.4067V96.2724L96.4189 105.467L96.5476 76.3772Z" fill="#3D95D1"/>
<path d="M96.1945 159.963V155.926L113.98 148.846V106.364L97.0307 112.74L95.8086 109.504L117.453 101.366V151.249L96.1945 159.963Z" fill="#274684"/>
<path d="M117.453 126.964L113.98 128.118V106.364L96.1943 113.188V109.151L117.453 101.366V126.964Z" fill="#0E2951"/>
<path d="M96.1943 152.466V148.429L108.19 143.527V114.886L96.1943 119.563V115.527L111.664 111.042V145.93L96.1943 152.466Z" fill="#274684"/>
<path d="M96.1945 144.937V140.901L101.919 138.946V125.33L97.0307 127.189L95.8086 123.953L105.393 120.333V141.349L96.1945 144.937Z" fill="#274684"/>
<path d="M105.392 130.905L101.919 132.058V125.33L96.1943 127.637V123.6L105.392 120.333V130.905Z" fill="#0E2951"/>
<path d="M111.664 129.143L108.19 130.296V114.886L96.1943 119.564V115.527L111.664 109.888V129.143Z" fill="#0E2951"/>
<path d="M180.875 44.7243L192.903 40.1429L192.936 54.6238L180.875 59.1411V44.7243Z" fill="#FF8098"/>
<path d="M120.637 172.233L129.417 150.8L144.565 155.573L135.817 177.006L120.637 172.233Z" fill="#0E2951"/>
<path d="M126.522 168.164L130.961 157.207L138.712 159.642L134.241 170.599L126.522 168.164Z" fill="#6780B3"/>
<path d="M120.541 67.4065L144.662 58.34V81.4389L120.541 90.5055V67.4065Z" fill="#3D95D1"/>
<path d="M120.541 67.4065L144.662 58.34V75.0955L120.541 84.1621V67.4065Z" fill="#6780B3"/>
<path d="M120.541 67.4065L144.662 58.34V68.7201L120.541 77.8187V67.4065Z" fill="#053866"/>
<path d="M120.541 67.4065L144.662 58.34V63.53L120.541 72.6286V67.4065Z" fill="#0E2951"/>
<path d="M168.782 128.95L144.661 138.017L168.782 112.772L144.661 121.838" fill="#0E2951"/>
<path d="M192.969 127.06L189.495 128.214V98.7711L192.969 97.6178V127.06Z" fill="#709FDC"/>
<path d="M188.401 128.566L184.928 129.719V100.854L188.401 99.7003V128.566Z" fill="#709FDC"/>
<path d="M173.928 134.012L170.423 135.166L170.358 106.268L173.832 105.115L173.928 134.012Z" fill="#709FDC"/>
<path d="M178.753 132.186L175.247 133.34V104.474L178.753 103.321V132.186Z" fill="#709FDC"/>
<path d="M183.577 130.392L180.071 131.546V102.68L183.577 101.526V130.392Z" fill="#709FDC"/>
<path d="M168.782 78.1392L192.935 69.0406V97.9063L168.782 107.005V78.1392Z" fill="#0E2951"/>
<path d="M168.782 135.838L192.935 126.772V155.637L168.782 164.704V135.838Z" fill="#053866"/>
<path d="M168.782 78.1391L180.875 73.5898V88.0066L168.782 92.5559V78.1391Z" fill="#3D95D1"/>
<path d="M172.095 163.423L169.2 164.576C169.2 144.937 180.103 133.051 192.967 128.213V131.097C181.357 135.454 172.095 150.159 172.095 163.423Z" fill="#B9D5FD"/>
<path d="M178.496 161.116L175.022 162.269C175.022 148.429 183.32 137.505 193.001 133.852V137.312C184.542 140.484 178.496 150.96 178.496 161.116Z" fill="#3D95D1"/>
<path d="M184.638 158.809L181.39 159.963C181.39 151.313 186.31 142.983 192.903 140.484L192.968 143.784C187.822 145.738 184.638 152.562 184.638 158.809Z" fill="#3376B3"/>
<path d="M190.073 156.502L187.179 157.656C186.6 153.042 189.302 148.461 192.904 147.116L192.968 150.736C190.685 151.569 190.073 153.715 190.073 156.502Z" fill="#709FDC"/>
<path d="M154.374 66.0613L159.102 64.2672V69.7456L150.804 72.8852V63.306L162.672 58.8208V72.5328L147.234 78.3636V60.4227L166.242 53.2783V76.0249L147.234 83.2013" stroke="#3D95D1" stroke-width="5" stroke-miterlimit="10"/>
<path d="M116.198 72.5006L99.7959 100.629" stroke="#0E2951" stroke-width="6" stroke-miterlimit="10"/>
<path d="M99.7959 78.6837L116.198 94.4461" stroke="#0E2951" stroke-width="6" stroke-miterlimit="10"/>
<path d="M135.978 108.927L139.837 107.485V112.099L135.978 113.573V108.927Z" fill="#B9D5FD"/>
<path d="M130.671 104.602L134.53 103.128V107.742L130.671 109.215V104.602Z" fill="#B9D5FD"/>
<path d="M125.364 100.245L129.224 98.7713V103.417L125.364 104.858V100.245Z" fill="#B9D5FD"/>
<path d="M174.604 47.0951L192.903 40.1429L192.935 62.1206L174.604 69.0086V47.0951Z" fill="#053866"/>
<path d="M179.525 45.2049L192.904 40.1429L192.937 56.1937L179.525 61.2556V45.2049Z" fill="#709FDC"/>
<path d="M180.875 88.0066L192.936 83.4893V97.9061L180.875 102.455V88.0066Z" fill="#3D95D1"/>
<path d="M153.57 54.3353L192.903 40.1428L96.773 4.03664L58.5332 18.5175L153.57 54.3353Z" fill="#0D3760"/>
<path d="M145.852 57.8915L96.1302 76.5052L0 40.4631L49.7857 21.7854L145.852 57.8915Z" fill="#0D3659"/>
<path d="M148.939 0L96.7093 4.10078L0.579102 40.1749L52.6804 36.2022L148.939 0Z" fill="#043D60"/>
<path d="M192.968 40.1748L156.979 4.93373L60.624 41.136L96.7733 76.5373L192.968 40.1748Z" fill="#03446B"/>
<path d="M96.5 120V76.5L192.5 39.5L258.5 39L248.5 61.5L258.5 84L193 84.2416L96.5 120Z" fill="#FFB4C5"/>
<path d="M258.5 39L192.5 39.5L192.996 84H258.5L248.575 61.5L258.5 39Z" fill="black" fill-opacity="0.05"/>
<path d="M96 119.956V75.3323L193.555 39H259.555L249.555 61.6095L259.555 84.2189H193.555L96 119.956Z" fill="#B4D1FA"/>
<path d="M137.792 88.3669C139.228 87.8204 140.201 86.5538 140.882 85.0785L140.018 84.7833C139.556 85.8713 138.717 86.8309 137.792 87.1829C136.016 87.8591 134.666 86.5653 134.666 84.0373C134.666 81.4933 136.016 79.1871 137.792 78.5109C138.717 78.1589 139.556 78.4953 140.018 79.2153L140.87 78.2671C140.225 77.3126 139.228 76.7804 137.792 77.3269C135.457 78.2162 133.62 81.1556 133.62 84.4356C133.62 87.7156 135.457 89.2562 137.792 88.3669ZM149.686 83.6458L146.414 74.2197L145.161 74.6968L141.902 86.6101L143.057 86.1701L143.775 83.5288L147.813 81.9911L148.531 84.0858L149.686 83.6458ZM147.509 80.9229L144.067 82.2336L145.794 75.8319L147.509 80.9229ZM152.328 82.6398L157.059 72.326V80.838L158.069 80.4536V69.7816L157.035 70.1753L152.364 80.2899V71.9539L151.355 72.3383V83.0103L152.328 82.6398ZM156.84 68.2334L156.39 67.8928C156.013 68.7564 155.417 69.4153 154.712 69.684C153.994 69.9572 153.41 69.7315 153.021 69.1758L152.571 69.8591C153.07 70.5332 153.848 70.7808 154.712 70.452C155.588 70.1185 156.354 69.2827 156.84 68.2334ZM163.591 78.3508V68.8628L166.17 67.8809V66.6969L160.015 69.0405V70.2245L162.582 69.2472V78.7352L163.591 78.3508Z" fill="black"/>
<path d="M217 77L217.381 73H224.619L225 77H217Z" fill="#A62E41"/>
<path d="M200 69H241V73H200V69Z" fill="#A62E41"/>
<path fill-rule="evenodd" clip-rule="evenodd" d="M200.684 45.1645C200.394 45.1645 200.159 45.4003 200.159 45.6913V68.7875H240.841V45.6913C240.841 45.4003 240.606 45.1645 240.316 45.1645H200.684ZM200.684 44H240.316C241.246 44 242 44.7572 242 45.6913V72.3087C242 73.2428 241.246 74 240.316 74H207.948C207.628 74 207.368 73.7393 207.368 73.4178C207.368 73.0962 207.628 72.8355 207.948 72.8355H240.316C240.606 72.8355 240.841 72.5997 240.841 72.3087V69.9519H200.159V72.3087C200.159 72.5997 200.394 72.8355 200.684 72.8355H205.019C205.339 72.8355 205.598 73.0962 205.598 73.4178C205.598 73.7393 205.339 74 205.019 74H200.684C199.754 74 199 73.2428 199 72.3087V45.6913C199 45.3096 199.126 44.9575 199.338 44.6745C199.451 44.5246 199.587 44.3941 199.742 44.2888C200.011 44.1065 200.335 44 200.684 44Z" fill="black"/>
<path fill-rule="evenodd" clip-rule="evenodd" d="M216.433 73H225.567L225.715 74.713C225.74 75.002 225.497 75.2544 225.172 75.2767C224.846 75.2989 224.562 75.0826 224.537 74.7935L224.473 74.05H217.527L217.276 76.95H224.724L224.682 76.4615C224.657 76.1724 224.9 75.92 225.225 75.8978C225.551 75.8755 225.835 76.0918 225.86 76.3809L226 78H216L216.433 73Z" fill="black"/>
<path fill-rule="evenodd" clip-rule="evenodd" d="M214 77.5C214 77.2239 214.262 77 214.585 77H226.415C226.738 77 227 77.2239 227 77.5C227 77.7761 226.738 78 226.415 78H214.585C214.262 78 214 77.7761 214 77.5Z" fill="black"/>
</svg>
