<svg width="240" height="160" viewBox="0 0 240 160" fill="none" xmlns="http://www.w3.org/2000/svg">
<path d="M94.0137 156.8L17.264 127.941L17.2383 35.4166L94.0395 64.3015L94.0137 156.8Z" fill="#053866"/>
<path d="M170.97 127.71L94.1426 98.7225L94.2198 6.4292L171.124 35.3141L170.97 127.71Z" fill="#102E5B"/>
<path d="M94.0137 156.8L171.124 127.608V35.3143L94.0394 64.3017L94.0137 156.8Z" fill="#054270"/>
<path d="M17.264 127.941L94.1681 98.5175L94.2196 6.4292L17.2383 35.4166L17.264 127.941Z" fill="#0A2D49"/>
<path d="M94.0137 156.8L17.264 127.915L17.2383 35.4166L94.0395 64.3015L94.0137 156.8Z" fill="#053866"/>
<path d="M36.4322 65.9162L17.264 58.6629L17.2383 35.4166L36.4322 42.8237V65.9162Z" fill="#053866"/>
<path d="M22.3587 57.7402C20.615 57.7849 18.8807 57.4707 17.2643 56.8175L17.2129 54.3314C21.1494 55.818 24.9316 55.536 27.8133 53.5625C31.2867 51.179 33.4736 47.2832 33.4736 41.5677L35.7893 42.4904C35.7893 48.9492 33.8596 52.6142 29.7687 55.4335C27.5752 56.9014 25.0009 57.7027 22.3587 57.7402Z" fill="#B9D5FD"/>
<path d="M55.5998 73.1695L36.4316 65.9163V42.8237L55.5998 50.077V73.1695Z" fill="#0E2951"/>
<path d="M74.7677 80.4228L55.5996 73.1695V50.077L74.7677 57.3303V80.4228Z" fill="#709FDC"/>
<path d="M93.9357 87.5735L74.7676 80.4227V57.3302L94.0386 64.3015L93.9357 87.5735Z" fill="#6780B3"/>
<path d="M36.4318 89.0089L17.2637 81.7556V58.6631L36.4318 65.9164V89.0089Z" fill="#B9D5FD"/>
<path d="M55.5998 96.262L36.4316 89.0088V65.9163L55.5998 73.1695V96.262Z" fill="#274684"/>
<path d="M74.7677 103.515L55.5996 96.2622V73.1697L74.7677 80.4229V103.515Z" fill="#3D95D1"/>
<path d="M93.9357 110.666L74.7676 103.515V80.4229L93.9357 87.5736V110.666Z" fill="#B9D5FD"/>
<path d="M55.5998 119.355L36.4316 112.101V89.0089L55.5998 96.2622V119.355Z" fill="#B9D5FD"/>
<path d="M74.7677 126.608L55.5996 119.355V96.2623L74.7677 103.516V126.608Z" fill="#0E2951"/>
<path d="M93.9357 133.759L74.7676 126.608V103.515L93.9357 110.666V133.759Z" fill="#709FDC"/>
<path d="M36.4318 135.194L17.2637 127.915V104.823L36.4318 112.101V135.194Z" fill="#6780B3"/>
<path d="M55.5998 142.447L36.4316 135.194V112.101L55.5998 119.355V142.447Z" fill="#053866"/>
<path d="M74.7677 149.7L55.5996 142.447V119.355L74.7677 126.608V149.7Z" fill="#B9D5FD"/>
<path d="M94.0129 156.8L74.7676 149.7V126.608L93.9357 133.759L94.0129 156.8Z" fill="#3D95D1"/>
<path d="M21.1745 52.9477C19.8337 52.9678 18.5029 52.7148 17.2637 52.2044V49.4364C20.0167 50.4872 23.4129 50.1284 25.111 49.0006C27.9412 47.1297 29.3306 44.2335 29.3306 40.2096L31.6462 41.1323C31.6462 46.0788 29.8709 49.1032 26.7062 51.2817C25.073 52.3796 23.1448 52.9603 21.1745 52.9477Z" fill="#3D95D1"/>
<path d="M19.8108 47.6165C18.9366 47.6369 18.0682 47.4709 17.2637 47.1296V44.3615C18.9103 44.9767 21.4318 44.8229 22.8211 43.4389C24.2877 41.978 24.6736 40.799 24.6736 38.3641L26.9892 39.2868C26.9892 42.67 25.8314 44.951 23.6187 46.4376C22.5016 47.2117 21.1717 47.6234 19.8108 47.6165Z" fill="#3376B3"/>
<path d="M18.5244 42.2855C18.0912 42.3194 17.6565 42.2399 17.2637 42.0549V39.2868C17.6753 39.4406 19.039 39.5431 19.5793 39.2868C20.5055 38.8255 20.5055 37.9028 20.0424 36.5188L22.8211 37.4415C22.8211 39.3637 22.1265 40.6965 20.84 41.5935C20.1522 42.0438 19.3474 42.2843 18.5244 42.2855Z" fill="#709FDC"/>
<path d="M93.4479 130.529L77.2129 124.404V84.4979L93.7567 90.521V93.7503L79.9916 88.4962V122.481L93.2935 127.479L93.4479 130.529Z" fill="#274684"/>
<path d="M93.7567 131.17L77.2129 124.404V104.054L79.9916 104.976V122.481L93.7567 127.941V131.17Z" fill="#0E2951"/>
<path d="M93.4479 124.532L81.8184 120.124V91.3156L93.7566 95.6214V98.8508L84.5971 95.3138V118.688L93.7566 121.943L93.4479 124.532Z" fill="#274684"/>
<path d="M93.4467 118.996L86.8086 116.484V99.6707L93.7555 102.08V105.309L89.5873 103.669V114.562L93.7555 116.381L93.4467 118.996Z" fill="#274684"/>
<path d="M93.7555 119.15L86.8086 116.484V107.668L89.5873 108.59V114.562L93.7555 115.92V119.15Z" fill="#0E2951"/>
<path d="M93.7566 125.173L81.8184 120.585V105.797L84.5971 106.719V118.688L93.7566 121.943V125.173Z" fill="#0E2951"/>
<path d="M31.8263 133.451L17.2637 127.915V110.384L31.8263 115.895V133.451Z" fill="#053866"/>
<path d="M26.8606 131.555L17.2637 127.915V116.382L26.8606 120.021V131.555Z" fill="#709FDC"/>
<path d="M74.6915 65.7882L67.7446 77.6548L55.6777 64.7117L62.6503 52.8451L74.6915 65.7882Z" fill="#0E2951"/>
<path d="M70.0338 65.5319L66.4832 71.5806L60.334 64.9937L63.8846 58.9194L70.0338 65.5319Z" fill="#6780B3"/>
<path d="M74.7677 149.7L55.5996 142.447V123.968L74.7677 131.221V149.7Z" fill="#3D95D1"/>
<path d="M74.7677 149.7L55.5996 142.447V129.043L74.7677 136.296V149.7Z" fill="#6780B3"/>
<path d="M74.7677 149.701L55.5996 142.447V134.118L74.7677 141.396V149.701Z" fill="#053866"/>
<path d="M74.7677 149.701L55.5996 142.447V138.295L74.7677 145.549V149.701Z" fill="#0E2951"/>
<path d="M36.4316 71.4268L55.5998 78.68L36.4316 84.3955L55.5998 91.6488L36.4316 71.4268Z" fill="#0E2951"/>
<path d="M19.5793 82.6783L17.2637 81.7556V58.6631L19.5793 59.5858V82.6783Z" fill="#709FDC"/>
<path d="M23.2844 84.0625L20.9688 83.1398V60.0472L23.2844 60.9699V84.0625Z" fill="#709FDC"/>
<path d="M35.3508 88.6758L33.0352 87.7531V64.6605L35.3508 65.5832V88.6758Z" fill="#709FDC"/>
<path d="M31.3119 86.9842L28.5332 86.0615V62.9946L31.3119 63.9173V86.9842Z" fill="#709FDC"/>
<path d="M26.9894 85.4462L24.6738 84.5236V61.431L26.9894 62.3537V85.4462Z" fill="#709FDC"/>
<path d="M36.4318 112.101L17.2637 104.823V81.7556L36.4318 89.0089V112.101Z" fill="#0E2951"/>
<path d="M36.4325 112.101L26.8613 108.462V96.9285L36.4325 100.542V112.101Z" fill="#3D95D1"/>
<path d="M26.8606 96.9285L17.2637 93.2891V81.7556L26.8606 85.3694V96.9285Z" fill="#3D95D1"/>
<path d="M47.9847 130.555L44.0482 129.068V124.506L50.9436 127.12V135.117L41.0894 131.375V119.944L53.8767 124.788V139.73L38.1562 133.759V114.818L53.8767 120.764" stroke="#3D95D1" stroke-width="3" stroke-miterlimit="10"/>
<path d="M78.2168 148.239L91.2614 135.63" stroke="#0E2951" stroke-width="6" stroke-miterlimit="10"/>
<path d="M91.2614 153.16L78.2168 130.683" stroke="#0E2951" stroke-width="6" stroke-miterlimit="10"/>
<path d="M62.4954 107.181L59.4336 106.027V102.337L62.4954 103.49V107.181Z" fill="#B9D5FD"/>
<path d="M66.7161 113.87L63.6543 112.691V109L66.7161 110.154V113.87Z" fill="#B9D5FD"/>
<path d="M70.9348 120.533L67.873 119.38V115.689L70.9348 116.843V120.533Z" fill="#B9D5FD"/>
<path d="M94.0394 64.3017L171.124 35.3143L171.149 127.71L94.0137 156.8L94.0394 64.3017Z" fill="#053866"/>
<path d="M151.826 88.8038L171.149 81.5249V104.617L151.826 111.871V88.8038Z" fill="#B9D5FD"/>
<path d="M132.529 96.0571L151.826 88.8038V111.871L132.529 119.15V96.0571Z" fill="#274684"/>
<path d="M113.232 103.31L132.529 96.0571V119.15L113.232 126.403V103.31Z" fill="#053866"/>
<path d="M93.9355 110.666L113.232 103.311V126.403L93.9355 133.759V110.666Z" fill="#B9D5FD"/>
<path d="M132.529 72.9646L151.826 65.7113V88.8039L132.529 96.0571V72.9646Z" fill="#B9D5FD"/>
<path d="M113.232 80.2177L132.529 72.9645V96.057L113.232 103.31V80.2177Z" fill="#0E2951"/>
<path d="M93.9355 87.5737L113.232 80.2179V103.31L93.9355 110.666V87.5737Z" fill="#709FDC"/>
<path d="M132.529 119.15L151.826 111.871V134.963L132.529 142.242V119.15Z" fill="#0E2951"/>
<path d="M113.232 126.403L132.529 119.15V142.242L113.232 149.495V126.403Z" fill="#709FDC"/>
<path d="M93.9355 133.759L113.232 126.403V149.495L94.0127 156.8L93.9355 133.759Z" fill="#6780B3"/>
<path d="M151.826 42.6189L171.123 35.3143L171.149 58.4325L151.826 65.7114V42.6189Z" fill="#6780B3"/>
<path d="M132.529 49.872L151.826 42.6188V65.7113L132.529 72.9646V49.872Z" fill="#053866"/>
<path d="M113.232 57.1252L132.529 49.8719V72.9645L113.232 80.2178V57.1252Z" fill="#B9D5FD"/>
<path d="M94.0385 64.3017L113.232 57.1254V80.2179L93.9355 87.5737L94.0385 64.3017Z" fill="#3D95D1"/>
<path d="M93.756 131.17V127.941L107.984 122.277V88.2914L94.425 93.3917L93.4473 90.8031L110.763 84.2931V124.199L93.756 131.17Z" fill="#274684"/>
<path d="M110.763 104.771L107.984 105.694V88.2914L93.7559 93.7505V90.5212L110.763 84.2931V104.771Z" fill="#0E2951"/>
<path d="M93.7559 125.173V121.943L103.353 118.022V95.1088L93.7559 98.8508V95.6214L106.132 92.0332V119.944L93.7559 125.173Z" fill="#274684"/>
<path d="M93.756 119.15V115.92L98.3358 114.357V103.464L94.425 104.951L93.4473 102.362L101.115 99.4659V116.279L93.756 119.15Z" fill="#274684"/>
<path d="M101.114 107.924L98.3356 108.846V103.464L93.7559 105.31V102.08L101.114 99.4659V107.924Z" fill="#0E2951"/>
<path d="M106.132 106.514L103.353 107.437V95.1089L93.7559 98.8508V95.6215L106.132 91.1106V106.514Z" fill="#0E2951"/>
<path d="M161.5 38.9794L171.123 35.3143L171.148 46.899L161.5 50.5129V38.9794Z" fill="#FF8098"/>
<path d="M113.311 140.986L120.335 123.84L132.453 127.659L125.455 144.805L113.311 140.986Z" fill="#0E2951"/>
<path d="M118.02 137.731L121.57 128.966L127.771 130.914L124.195 139.679L118.02 137.731Z" fill="#6780B3"/>
<path d="M113.232 57.1252L132.529 49.8719V68.3511L113.232 75.6044V57.1252Z" fill="#3D95D1"/>
<path d="M113.232 57.1252L132.529 49.8719V63.2764L113.232 70.5297V57.1252Z" fill="#6780B3"/>
<path d="M113.232 57.1252L132.529 49.8719V58.176L113.232 65.4549V57.1252Z" fill="#053866"/>
<path d="M113.232 57.1252L132.529 49.8719V54.024L113.232 61.3029V57.1252Z" fill="#0E2951"/>
<path d="M151.826 106.36L132.529 113.613L151.826 93.4171L132.529 100.67" fill="#0E2951"/>
<path d="M171.175 104.848L168.396 105.771V82.2169L171.175 81.2942V104.848Z" fill="#709FDC"/>
<path d="M167.521 106.053L164.742 106.975V83.8829L167.521 82.9602V106.053Z" fill="#709FDC"/>
<path d="M155.944 110.41L153.139 111.332L153.088 88.2143L155.867 87.2916L155.944 110.41Z" fill="#709FDC"/>
<path d="M159.803 108.949L156.998 109.872V86.7791L159.803 85.8564V108.949Z" fill="#709FDC"/>
<path d="M163.662 107.514L160.857 108.436V85.3438L163.662 84.4211V107.514Z" fill="#709FDC"/>
<path d="M151.826 65.7113L171.149 58.4324V81.5249L151.826 88.8038V65.7113Z" fill="#0E2951"/>
<path d="M151.826 111.871L171.149 104.617V127.71L151.826 134.963V111.871Z" fill="#053866"/>
<path d="M151.826 65.7112L161.5 62.0718V73.6052L151.826 77.2447V65.7112Z" fill="#3D95D1"/>
<path d="M154.478 133.938L152.162 134.861C152.162 119.15 160.884 109.641 171.176 105.771V108.077C161.888 111.563 154.478 123.327 154.478 133.938Z" fill="#B9D5FD"/>
<path d="M159.597 132.093L156.818 133.016C156.818 121.943 163.456 113.204 171.201 110.282V113.05C164.434 115.587 159.597 123.968 159.597 132.093Z" fill="#3D95D1"/>
<path d="M164.511 130.247L161.912 131.17C161.912 124.25 165.849 117.586 171.123 115.587L171.175 118.227C167.058 119.79 164.511 125.25 164.511 130.247Z" fill="#3376B3"/>
<path d="M168.859 128.402L166.543 129.325C166.08 125.634 168.241 121.969 171.123 120.892L171.174 123.789C169.348 124.455 168.859 126.172 168.859 128.402Z" fill="#709FDC"/>
<path d="M140.3 56.049L144.082 54.6137V58.9964L137.444 61.5081V53.8448L146.938 50.2566V61.2262L134.588 65.8909V51.5381L149.794 45.8226V64.0199L134.588 69.761" stroke="#3D95D1" stroke-width="5" stroke-miterlimit="10"/>
<path d="M109.76 61.2004L96.6387 83.7035" stroke="#0E2951" stroke-width="6" stroke-miterlimit="10"/>
<path d="M96.6387 66.1469L109.76 78.7568" stroke="#0E2951" stroke-width="6" stroke-miterlimit="10"/>
<path d="M125.582 90.3416L128.67 89.1882V92.8789L125.582 94.0579V90.3416Z" fill="#B9D5FD"/>
<path d="M121.338 86.8816L124.425 85.7026V89.3933L121.338 90.5723V86.8816Z" fill="#B9D5FD"/>
<path d="M117.092 83.396L120.179 82.217V85.9334L117.092 87.0867V83.396Z" fill="#B9D5FD"/>
<path d="M156.484 40.876L171.124 35.3143L171.15 52.8964L156.484 58.4069V40.876Z" fill="#053866"/>
<path d="M160.42 39.3639L171.123 35.3143L171.149 48.1549L160.42 52.2044V39.3639Z" fill="#709FDC"/>
<path d="M161.5 73.6053L171.148 69.9915V81.5249L161.5 85.1643V73.6053Z" fill="#3D95D1"/>
<path d="M139.656 46.6681L171.123 35.3141L94.2188 6.4292L63.627 18.0139L139.656 46.6681Z" fill="#0D3760"/>
<path d="M133.482 49.5131L93.7049 64.404L16.8008 35.5704L56.6294 20.6282L133.482 49.5131Z" fill="#0D3659"/>
<path d="M135.952 3.19995L94.1678 6.48058L17.2637 35.3398L58.9447 32.1617L135.952 3.19995Z" fill="#043D60"/>
<path d="M171.176 35.3399L142.385 7.14697L65.3008 36.1088L94.2202 64.4298L171.176 35.3399Z" fill="#03446B"/>
<path d="M94 99.2V64.4L170.8 34.8L224 34.418L216 52.5056L224 70.4L171.2 70.5933L94 99.2Z" fill="#B4D1FA"/>
<path d="M127.769 74.7086C129.725 74.0971 130.382 72.4882 130.323 71.1315C130.172 67.6488 125.93 70.1936 125.839 68.0956C125.801 67.2144 126.394 66.4193 127.264 66.1475C128.057 65.8995 128.833 66.0114 129.41 66.6108L129.917 65.5878C129.272 64.9528 128.392 64.7456 127.284 65.0921C125.86 65.5372 124.84 66.9191 124.907 68.4577C125.052 71.7865 129.288 69.1158 129.393 71.5216C129.424 72.2349 129.05 73.2591 127.756 73.6634C126.735 73.9827 125.924 73.584 125.416 73.0481L124.922 74.0957C125.557 74.776 126.508 75.1027 127.769 74.7086ZM136.533 71.7994L136.488 70.7644L132.64 71.967L132.5 68.7501L136.271 67.5712L136.226 66.5362L132.454 67.715L132.323 64.7079L136.171 63.5053L136.126 62.4702L131.376 63.9548L131.783 73.284L136.533 71.7994ZM141.283 70.4849C143.424 69.8156 144.791 67.2904 144.671 64.535C144.551 61.7796 143.004 60.1648 140.862 60.8341C138.71 61.5067 137.355 64.0286 137.475 66.784C137.595 69.5394 139.131 71.1576 141.283 70.4849ZM141.238 69.4499C139.607 69.9595 138.504 68.6597 138.41 66.4918C138.315 64.3099 139.277 62.3787 140.908 61.8691C142.527 61.3629 143.641 62.6452 143.736 64.8271C143.83 66.9951 142.857 68.9437 141.238 69.4499Z" fill="black"/>
<path d="M224.001 34.3999L170.801 34.7999L171.201 70.3999H224.001L216.001 52.3999L224.001 34.3999Z" fill="black" fill-opacity="0.05"/>
<path d="M197.533 58.4349L196.131 57.0337L197.55 55.3349L198.671 56.4559L199.798 56.4497L206.803 63.7376L203.969 66.571L196.964 59.2831L197.533 58.4349Z" fill="#C43B55"/>
<path fill-rule="evenodd" clip-rule="evenodd" d="M189.481 40.9808C185.234 41.0221 181.768 44.5086 181.739 48.768C181.709 53.0274 185.127 56.4469 189.373 56.4056C193.619 56.3642 197.086 52.8778 197.115 48.6184C197.126 47.1181 196.709 45.7235 195.979 44.547C195.833 44.3116 195.907 43.9989 196.144 43.8485C196.382 43.6982 196.692 43.7671 196.838 44.0025C197.664 45.3342 198.135 46.9132 198.124 48.6085C198.09 53.4266 194.169 57.3703 189.366 57.417C184.563 57.4638 180.697 53.5959 180.73 48.7778C180.764 43.9598 184.685 40.0161 189.488 39.9693C191.287 39.9518 192.956 40.4842 194.338 41.4105C194.567 41.5646 194.626 41.8783 194.468 42.1113C194.311 42.3444 193.997 42.4084 193.768 42.2543C192.547 41.4358 191.073 40.9653 189.481 40.9808Z" fill="black"/>
<path fill-rule="evenodd" clip-rule="evenodd" d="M189.358 58.4292C194.718 58.3771 199.093 53.9762 199.131 48.5996C199.168 43.2229 194.854 38.9065 189.494 38.9586C184.134 39.0107 179.758 43.4116 179.721 48.7883C179.708 50.6818 180.234 52.4424 181.155 53.9276C181.301 54.163 181.227 54.4757 180.99 54.6261C180.753 54.7764 180.442 54.7075 180.296 54.4721C179.279 52.8317 178.698 50.8867 178.713 48.7981C178.754 42.8628 183.584 38.0047 189.501 37.9471C195.417 37.8896 200.18 42.6545 200.139 48.5898C200.098 54.5251 195.268 59.3832 189.351 59.4407C187.134 59.4622 185.078 58.8063 183.377 57.6653C183.147 57.5112 183.088 57.1975 183.246 56.9645C183.403 56.7315 183.717 56.6674 183.947 56.8215C185.488 57.8548 187.349 58.4488 189.358 58.4292Z" fill="black"/>
<path fill-rule="evenodd" clip-rule="evenodd" d="M197.48 54.7006L198.978 56.2028L199.353 56.1459C199.903 56.0624 200.457 56.2432 200.846 56.634L206.679 62.4853C207.068 62.8759 207.249 63.4308 207.166 63.9831L207.134 64.1919C207.077 64.5715 206.899 64.9243 206.627 65.1974L205.608 66.2191C205.336 66.4921 204.984 66.6707 204.606 66.7281L204.398 66.7596C203.847 66.843 203.294 66.6621 202.905 66.2715L197.072 60.4201C196.682 60.0294 196.502 59.4745 196.585 58.9223L196.642 58.5464L195.144 57.0447L197.48 54.7006ZM197.651 58.5975L197.582 59.057C197.546 59.2936 197.624 59.5315 197.791 59.6989L203.624 65.5503C203.791 65.7177 204.028 65.7952 204.264 65.7595L204.472 65.7279C204.634 65.7034 204.785 65.6268 204.901 65.5098L205.92 64.4881C206.036 64.3711 206.113 64.2199 206.137 64.0572L206.169 63.8484C206.204 63.6117 206.127 63.3739 205.96 63.2064L200.127 57.3552C199.96 57.1877 199.723 57.1102 199.487 57.146L199.029 57.2156L197.651 58.5975ZM198.082 56.7467L197.468 56.1311L196.57 57.0325L197.184 57.6479L198.082 56.7467Z" fill="black"/>
</svg>
