<svg width="240" height="160" viewBox="0 0 240 160" fill="none" xmlns="http://www.w3.org/2000/svg">
<path d="M93.6127 156L16.4653 127.291L16.4395 35.2488L93.6386 63.9832L93.6127 156Z" fill="#053866"/>
<path d="M170.967 127.061L93.7422 98.2251L93.8198 6.41248L171.122 35.1469L170.967 127.061Z" fill="#102E5B"/>
<path d="M93.6133 156L171.123 126.96V35.1471L93.6391 63.9835L93.6133 156Z" fill="#054270"/>
<path d="M16.4653 127.291L93.7679 98.0211L93.8196 6.41248L16.4395 35.2489L16.4653 127.291Z" fill="#0A2D49"/>
<path d="M93.6127 156L16.4653 127.265L16.4395 35.2488L93.6386 63.9832L93.6127 156Z" fill="#053866"/>
<path d="M35.7328 65.5895L16.4653 58.374L16.4395 35.2488L35.7328 42.6172V65.5895Z" fill="#053866"/>
<path d="M21.5865 57.4561C19.8338 57.5006 18.0905 57.1881 16.4658 56.5383L16.4141 54.0651C20.371 55.5439 24.1728 55.2635 27.0694 53.3002C30.5608 50.9291 32.7591 47.0536 32.7591 41.3679L35.0867 42.2858C35.0867 48.7109 33.147 52.3569 29.0349 55.1615C26.8301 56.6217 24.2424 57.4189 21.5865 57.4561Z" fill="#B9D5FD"/>
<path d="M54.9999 72.8052L35.7324 65.5897V42.6174L54.9999 49.8329V72.8052Z" fill="#0E2951"/>
<path d="M74.2675 80.0206L55 72.8051V49.8329L74.2675 57.0484V80.0206Z" fill="#709FDC"/>
<path d="M93.5351 87.134L74.2676 80.0205V57.0482L93.6385 63.9832L93.5351 87.134Z" fill="#6780B3"/>
<path d="M35.7323 88.5619L16.4648 81.3464V58.3741L35.7323 65.5896V88.5619Z" fill="#B9D5FD"/>
<path d="M54.9999 95.7773L35.7324 88.5619V65.5896L54.9999 72.8051V95.7773Z" fill="#274684"/>
<path d="M74.2675 102.993L55 95.7775V72.8052L74.2675 80.0207V102.993Z" fill="#3D95D1"/>
<path d="M93.535 110.106L74.2676 102.993V80.0206L93.535 87.1341V110.106Z" fill="#B9D5FD"/>
<path d="M54.9999 118.75L35.7324 111.534V88.562L54.9999 95.7775V118.75Z" fill="#B9D5FD"/>
<path d="M74.2675 125.965L55 118.75V95.7776L74.2675 102.993V125.965Z" fill="#0E2951"/>
<path d="M93.535 133.079L74.2676 125.965V102.993L93.535 110.106V133.079Z" fill="#709FDC"/>
<path d="M35.7323 134.506L16.4648 127.265V104.293L35.7323 111.534V134.506Z" fill="#6780B3"/>
<path d="M54.9999 141.722L35.7324 134.506V111.534L54.9999 118.749V141.722Z" fill="#053866"/>
<path d="M74.2675 148.937L55 141.722V118.75L74.2675 125.965V148.937Z" fill="#B9D5FD"/>
<path d="M93.6126 156L74.2676 148.937V125.965L93.535 133.079L93.6126 156Z" fill="#3D95D1"/>
<path d="M20.3959 52.6886C19.0482 52.7086 17.7105 52.457 16.4648 51.9492V49.1956C19.2321 50.2409 22.6459 49.884 24.3529 48.7621C27.1977 46.9009 28.5943 44.0198 28.5943 40.0168L30.9219 40.9347C30.9219 45.8555 29.1374 48.8641 25.9563 51.0313C24.3146 52.1235 22.3764 52.7011 20.3959 52.6886Z" fill="#3D95D1"/>
<path d="M19.0252 47.3851C18.1465 47.4054 17.2735 47.2402 16.4648 46.9007V44.1471C18.12 44.759 20.6545 44.606 22.0511 43.2292C23.5253 41.7759 23.9132 40.6031 23.9132 38.1809L26.2408 39.0988C26.2408 42.4643 25.077 44.7335 22.8528 46.2123C21.7299 46.9824 20.3931 47.392 19.0252 47.3851Z" fill="#3376B3"/>
<path d="M17.7321 42.0819C17.2966 42.1156 16.8598 42.0365 16.4648 41.8524V39.0988C16.8786 39.2518 18.2493 39.3538 18.7925 39.0988C19.7235 38.6399 19.7235 37.722 19.258 36.3452L22.0511 37.2631C22.0511 39.1753 21.3528 40.5011 20.0597 41.3935C19.3684 41.8415 18.5594 42.0807 17.7321 42.0819Z" fill="#709FDC"/>
<path d="M93.0437 129.866L76.7246 123.772V84.0745L93.3541 90.0661V93.2787L79.5177 88.0519V121.86L92.8886 126.832L93.0437 129.866Z" fill="#274684"/>
<path d="M93.3541 130.504L76.7246 123.772V103.528L79.5177 104.446V121.86L93.3541 127.291V130.504Z" fill="#0E2951"/>
<path d="M93.0452 123.9L81.3555 119.515V90.8567L93.3556 95.1401V98.3526L84.1486 94.8341V118.087L93.3556 121.325L93.0452 123.9Z" fill="#274684"/>
<path d="M93.0436 118.393L86.3711 115.894V99.1682L93.354 101.565V104.777L89.1642 103.146V113.982L93.354 115.792L93.0436 118.393Z" fill="#274684"/>
<path d="M93.354 118.546L86.3711 115.894V107.123L89.1642 108.041V113.982L93.354 115.333V118.546Z" fill="#0E2951"/>
<path d="M93.3556 124.537L81.3555 119.974V105.262L84.1486 106.18V118.087L93.3556 121.325V124.537Z" fill="#0E2951"/>
<path d="M31.1029 132.773L16.4648 127.265V109.826L31.1029 115.308V132.773Z" fill="#053866"/>
<path d="M26.1115 130.886L16.4648 127.266V115.792L26.1115 119.413V130.886Z" fill="#709FDC"/>
<path d="M74.1904 65.4622L67.2076 77.2671L55.0781 64.3914L62.0868 52.5865L74.1904 65.4622Z" fill="#0E2951"/>
<path d="M69.5099 65.2072L65.9409 71.2244L59.7598 64.6718L63.3288 58.6292L69.5099 65.2072Z" fill="#6780B3"/>
<path d="M74.2675 148.937L55 141.722V123.339L74.2675 130.554V148.937Z" fill="#3D95D1"/>
<path d="M74.2675 148.937L55 141.722V128.387L74.2675 135.603V148.937Z" fill="#6780B3"/>
<path d="M74.2675 148.937L55 141.722V133.436L74.2675 140.677V148.937Z" fill="#053866"/>
<path d="M74.2675 148.938L55 141.722V137.592L74.2675 144.807V148.938Z" fill="#0E2951"/>
<path d="M35.7324 71.0714L54.9999 78.2869L35.7324 83.9726L54.9999 91.1881L35.7324 71.0714Z" fill="#0E2951"/>
<path d="M18.7925 82.2643L16.4648 81.3464V58.3741L18.7925 59.292V82.2643Z" fill="#709FDC"/>
<path d="M22.5171 83.6412L20.1895 82.7234V59.7511L22.5171 60.669V83.6412Z" fill="#709FDC"/>
<path d="M34.646 88.2306L32.3184 87.3127V64.3405L34.646 65.2583V88.2306Z" fill="#709FDC"/>
<path d="M30.5861 86.5479L27.793 85.63V62.6832L30.5861 63.6011V86.5479Z" fill="#709FDC"/>
<path d="M26.2417 85.0178L23.9141 84.0999V61.1277L26.2417 62.0456V85.0178Z" fill="#709FDC"/>
<path d="M35.7323 111.534L16.4648 104.293V81.3464L35.7323 88.5619V111.534Z" fill="#0E2951"/>
<path d="M35.7321 111.534L26.1113 107.914V96.4403L35.7321 100.035V111.534Z" fill="#3D95D1"/>
<path d="M26.1115 96.4403L16.4648 92.8198V81.3464L26.1115 84.9414V96.4403Z" fill="#3D95D1"/>
<path d="M47.3462 129.892L43.3893 128.413V123.874L50.3204 126.475V134.43L40.4151 130.708V119.336L53.2687 124.155V139.019L37.4668 133.079V114.237L53.2687 120.152" stroke="#3D95D1" stroke-width="3" stroke-miterlimit="10"/>
<path d="M77.7344 147.484L90.8466 134.94" stroke="#0E2951" stroke-width="6" stroke-miterlimit="10"/>
<path d="M90.8466 152.379L77.7344 130.019" stroke="#0E2951" stroke-width="6" stroke-miterlimit="10"/>
<path d="M61.9311 106.639L58.8535 105.492V101.82L61.9311 102.968V106.639Z" fill="#B9D5FD"/>
<path d="M66.1733 113.294L63.0957 112.121V108.449L66.1733 109.597V113.294Z" fill="#B9D5FD"/>
<path d="M70.4136 119.922L67.3359 118.775V115.104L70.4136 116.251V119.922Z" fill="#B9D5FD"/>
<path d="M93.6391 63.9835L171.123 35.1471L171.149 127.062L93.6133 156L93.6391 63.9835Z" fill="#053866"/>
<path d="M151.727 88.3579L171.149 81.1169V104.089L151.727 111.305V88.3579Z" fill="#B9D5FD"/>
<path d="M132.328 95.5735L151.725 88.358V111.305L132.328 118.546V95.5735Z" fill="#274684"/>
<path d="M112.932 102.789L132.328 95.5735V118.546L112.932 125.761V102.789Z" fill="#053866"/>
<path d="M93.5352 110.107L112.932 102.789V125.761L93.5352 133.079V110.107Z" fill="#B9D5FD"/>
<path d="M132.328 72.6012L151.725 65.3857V88.358L132.328 95.5735V72.6012Z" fill="#B9D5FD"/>
<path d="M112.932 79.8166L132.328 72.6011V95.5733L112.932 102.789V79.8166Z" fill="#0E2951"/>
<path d="M93.5352 87.1341L112.932 79.8167V102.789L93.5352 110.106V87.1341Z" fill="#709FDC"/>
<path d="M132.328 118.546L151.725 111.305V134.277L132.328 141.518V118.546Z" fill="#0E2951"/>
<path d="M112.932 125.761L132.328 118.546V141.518L112.932 148.733V125.761Z" fill="#709FDC"/>
<path d="M93.5352 133.079L112.932 125.761V148.733L93.6127 156L93.5352 133.079Z" fill="#6780B3"/>
<path d="M151.727 42.4136L171.123 35.1471L171.149 58.1449L151.727 65.3858V42.4136Z" fill="#6780B3"/>
<path d="M132.328 49.6289L151.725 42.4135V65.3857L132.328 72.6012V49.6289Z" fill="#053866"/>
<path d="M112.932 56.8444L132.328 49.6289V72.6012L112.932 79.8167V56.8444Z" fill="#B9D5FD"/>
<path d="M93.6386 63.9835L112.932 56.8445V79.8168L93.5352 87.1342L93.6386 63.9835Z" fill="#3D95D1"/>
<path d="M93.3533 130.504V127.291L107.655 121.656V87.848L94.0257 92.9218L93.043 90.3467L110.448 83.8706V123.569L93.3533 130.504Z" fill="#274684"/>
<path d="M110.451 104.242L107.657 105.16V87.848L93.3555 93.2788V90.0662L110.451 83.8706V104.242Z" fill="#0E2951"/>
<path d="M93.3555 124.537V121.325L103.002 117.424V94.63L93.3555 98.3525V95.1399L105.795 91.5704V119.336L93.3555 124.537Z" fill="#274684"/>
<path d="M93.3533 118.546V115.333L97.9568 113.778V102.942L94.0257 104.421L93.043 101.846L100.75 98.9646V115.69L93.3533 118.546Z" fill="#274684"/>
<path d="M100.752 107.378L97.959 108.296V102.942L93.3555 104.778V101.565L100.752 98.9646V107.378Z" fill="#0E2951"/>
<path d="M105.795 105.976L103.002 106.894V94.6302L93.3555 98.3526V95.1401L105.795 90.6527V105.976Z" fill="#0E2951"/>
<path d="M161.449 38.7931L171.122 35.1471L171.148 46.6715L161.449 50.2665V38.7931Z" fill="#FF8098"/>
<path d="M113.01 140.269L120.07 123.212L132.251 127.011L125.217 144.068L113.01 140.269Z" fill="#0E2951"/>
<path d="M117.742 137.031L121.311 128.311L127.544 130.249L123.949 138.968L117.742 137.031Z" fill="#6780B3"/>
<path d="M112.932 56.8444L132.328 49.6289V68.0118L112.932 75.2273V56.8444Z" fill="#3D95D1"/>
<path d="M112.932 56.8444L132.328 49.6289V62.9635L112.932 70.179V56.8444Z" fill="#6780B3"/>
<path d="M112.932 56.8444L132.328 49.6289V57.8897L112.932 65.1307V56.8444Z" fill="#053866"/>
<path d="M112.932 56.8444L132.328 49.6289V53.7593L112.932 61.0003V56.8444Z" fill="#0E2951"/>
<path d="M151.725 105.823L132.328 113.039L151.725 92.9474L132.328 100.163" fill="#0E2951"/>
<path d="M171.174 104.319L168.381 105.237V81.8053L171.174 80.8875V104.319Z" fill="#709FDC"/>
<path d="M167.502 105.517L164.709 106.435V83.4627L167.502 82.5448V105.517Z" fill="#709FDC"/>
<path d="M155.863 109.851L153.044 110.769L152.992 87.7715L155.785 86.8536L155.863 109.851Z" fill="#709FDC"/>
<path d="M159.743 108.398L156.924 109.316V86.3438L159.743 85.4259V108.398Z" fill="#709FDC"/>
<path d="M163.622 106.97L160.803 107.888V84.9159L163.622 83.998V106.97Z" fill="#709FDC"/>
<path d="M151.727 65.3858L171.149 58.1448V81.117L151.727 88.358V65.3858Z" fill="#0E2951"/>
<path d="M151.727 111.305L171.149 104.089V127.061L151.727 134.277V111.305Z" fill="#053866"/>
<path d="M151.727 65.3856L161.451 61.7651V73.2385L151.727 76.859V65.3856Z" fill="#3D95D1"/>
<path d="M154.39 133.257L152.062 134.175C152.062 118.546 160.83 109.087 171.175 105.237V107.531C161.838 110.999 154.39 122.702 154.39 133.257Z" fill="#B9D5FD"/>
<path d="M159.537 131.422L156.744 132.339C156.744 121.325 163.417 112.631 171.201 109.724V112.478C164.399 115.002 159.537 123.339 159.537 131.422Z" fill="#3D95D1"/>
<path d="M164.475 129.586L161.863 130.504C161.863 123.62 165.82 116.99 171.122 115.002L171.174 117.628C167.036 119.183 164.475 124.614 164.475 129.586Z" fill="#3376B3"/>
<path d="M168.848 127.75L166.52 128.668C166.055 124.996 168.227 121.35 171.124 120.279L171.175 123.161C169.339 123.823 168.848 125.532 168.848 127.75Z" fill="#709FDC"/>
<path d="M140.14 55.7737L143.942 54.3459V58.7057L137.269 61.2044V53.581L146.812 50.0115V60.9239L134.398 65.5643V51.2863L149.683 45.6006V63.703L134.398 69.4142" stroke="#3D95D1" stroke-width="5" stroke-miterlimit="10"/>
<path d="M109.44 60.8984L96.25 83.2843" stroke="#0E2951" stroke-width="6" stroke-miterlimit="10"/>
<path d="M96.25 65.819L109.44 78.3632" stroke="#0E2951" stroke-width="6" stroke-miterlimit="10"/>
<path d="M125.346 89.8878L128.449 88.7405V92.412L125.346 93.5848V89.8878Z" fill="#B9D5FD"/>
<path d="M121.078 86.4458L124.182 85.2729V88.9444L121.078 90.1173V86.4458Z" fill="#B9D5FD"/>
<path d="M116.811 82.9783L119.914 81.8054V85.5024L116.811 86.6497V82.9783Z" fill="#B9D5FD"/>
<path d="M156.406 40.6798L171.122 35.1471L171.148 52.6376L156.406 58.1193V40.6798Z" fill="#053866"/>
<path d="M160.363 39.1755L171.122 35.1471L171.148 47.9208L160.363 51.9492V39.1755Z" fill="#709FDC"/>
<path d="M161.449 73.2386L171.148 69.6436V81.1169L161.449 84.7374V73.2386Z" fill="#3D95D1"/>
<path d="M139.494 46.4418L171.123 35.1469L93.8207 6.41248L63.0703 17.9368L139.494 46.4418Z" fill="#0D3760"/>
<path d="M133.286 49.2719L93.3026 64.0854L16 35.4019L56.0349 20.5375L133.286 49.2719Z" fill="#0D3659"/>
<path d="M135.768 3.19995L93.7674 6.46349L16.4648 35.1724L58.3619 32.0109L135.768 3.19995Z" fill="#043D60"/>
<path d="M171.174 35.1724L142.234 7.12634L64.75 35.9373L93.8193 64.1108L171.174 35.1724Z" fill="#03446B"/>
<path d="M93.5996 98.8V64.0867L171.2 35.2H224L216 53L224 70.8H171.2L93.5996 98.8Z" fill="#B4D1FA"/>
<path d="M113.179 80.8803C114.44 80.4157 115.238 79.3188 115.758 78.0372L114.959 77.7723C114.611 78.7177 113.915 79.5479 113.103 79.8471C111.543 80.422 110.24 79.2813 110.078 77.0753C109.914 74.8553 110.985 72.8545 112.545 72.2797C113.357 71.9804 114.136 72.2812 114.6 72.9135L115.308 72.0933C114.664 71.2549 113.729 70.7819 112.468 71.2465C110.417 72.0025 108.947 74.5517 109.159 77.4139C109.37 80.2761 111.128 81.6363 113.179 80.8803ZM120.273 78.2668C122.378 77.4911 123.657 74.8971 123.454 72.1466C123.251 69.3961 121.667 67.8573 119.562 68.633C117.446 69.4126 116.177 72.0026 116.38 74.7531C116.583 77.5036 118.157 79.0464 120.273 78.2668ZM120.196 77.2336C118.593 77.8242 117.459 76.5786 117.299 74.4145C117.138 72.2364 118.035 70.2568 119.638 69.6662C121.23 69.0795 122.374 70.3071 122.535 72.4852C122.695 74.6493 121.789 76.6469 120.196 77.2336ZM131.016 75.9003L131.903 75.5735L131.7 72.823L131.048 73.0632L130.437 64.7837L129.55 65.1105L130.161 73.39L125.993 74.9255L125.382 66.646L124.495 66.9728L125.183 76.2855L130.889 74.183L131.016 75.9003ZM136.294 72.3635C137.555 71.8989 138.352 70.802 138.872 69.5204L138.073 69.2555C137.726 70.2009 137.03 71.0311 136.218 71.3303C134.658 71.9052 133.355 70.7645 133.192 68.5585C133.029 66.3385 134.099 64.3378 135.659 63.7629C136.472 63.4637 137.251 63.7644 137.715 64.3967L138.423 63.5766C137.779 62.7381 136.844 62.2651 135.583 62.7297C133.531 63.4857 132.062 66.0349 132.273 68.8971C132.485 71.7593 134.242 73.1195 136.294 72.3635ZM144.796 69.0588L144.72 68.0256L140.937 69.4194L140.7 66.2081L144.408 64.8419L144.332 63.8087L140.624 65.1749L140.402 62.1731L144.185 60.7793L144.109 59.7461L139.439 61.4667L140.126 70.7794L144.796 69.0588ZM148.86 67.5613L148.249 59.2818L150.515 58.4471L150.439 57.4139L145.032 59.4062L145.108 60.4394L147.363 59.6086L147.973 67.8881L148.86 67.5613ZM153.16 65.9772L156.768 57.0178L157.316 64.4456L158.203 64.1188L157.516 54.8061L156.608 55.1408L153.041 63.927L152.504 56.6527L151.617 56.9795L152.305 66.2922L153.16 65.9772Z" fill="black"/>
<path d="M171.199 35.2H223.999L215.999 53.1999L223.999 71.1999H171.199V35.2Z" fill="black" fill-opacity="0.05"/>
<path fill-rule="evenodd" clip-rule="evenodd" d="M194.001 39.4171C192.798 39.4171 191.668 39.726 190.686 40.2684C190.44 40.4042 190.131 40.315 189.995 40.0691C189.859 39.8232 189.949 39.5138 190.194 39.378C191.323 38.7545 192.621 38.3999 194.001 38.3999C198.354 38.3999 201.884 41.9294 201.884 46.2832C201.884 50.6371 198.354 54.1666 194.001 54.1666C189.647 54.1666 186.117 50.6371 186.117 46.2832C186.117 44.7344 186.564 43.2885 187.337 42.0694C187.487 41.8321 187.801 41.7616 188.039 41.9119C188.276 42.0623 188.346 42.3765 188.196 42.6138C187.524 43.6749 187.134 44.9328 187.134 46.2832C187.134 50.0753 190.208 53.1494 194.001 53.1494C197.793 53.1494 200.867 50.0753 200.867 46.2832C200.867 42.4912 197.793 39.4171 194.001 39.4171Z" fill="black"/>
<path fill-rule="evenodd" clip-rule="evenodd" d="M206.401 63.3766C206.998 62.3324 207.29 61.2005 207.305 60.0816C207.309 59.8015 207.54 59.5767 207.822 59.5796C208.103 59.5824 208.328 59.8119 208.325 60.092C208.307 61.378 207.972 62.6789 207.287 63.8761C205.125 67.6553 200.298 68.9857 196.505 66.8476C192.713 64.7095 191.391 59.9125 193.552 56.1333C195.714 52.354 200.541 51.0237 204.334 53.1618C205.683 53.9224 206.721 55.0206 207.399 56.2898C207.531 56.5368 207.437 56.8442 207.188 56.9763C206.939 57.1085 206.63 57.0153 206.498 56.7683C205.908 55.6636 205.005 54.7079 203.829 54.0447C200.526 52.1825 196.321 53.3412 194.438 56.6328C192.556 59.9244 193.707 64.1024 197.01 65.9646C200.314 67.8269 204.518 66.6681 206.401 63.3766Z" fill="black"/>
<path fill-rule="evenodd" clip-rule="evenodd" d="M178.398 58.5623C178.309 59.7619 178.534 60.9106 179.002 61.9296C179.12 62.1847 179.008 62.4868 178.752 62.6043C178.497 62.7218 178.195 62.6102 178.078 62.3551C177.54 61.1839 177.282 59.8636 177.384 58.4881C177.706 54.1462 181.487 50.8837 185.829 51.2011C190.172 51.5186 193.431 55.2957 193.109 59.6377C192.787 63.9796 189.005 67.2421 184.663 66.9246C183.118 66.8117 181.709 66.2603 180.551 65.4011C180.325 65.2339 180.278 64.9154 180.446 64.6897C180.613 64.4641 180.932 64.4167 181.157 64.5839C182.166 65.3318 183.392 65.8117 184.738 65.9102C188.52 66.1867 191.814 63.3452 192.094 59.5635C192.375 55.7818 189.536 52.492 185.754 52.2156C181.972 51.9391 178.679 54.7806 178.398 58.5623Z" fill="black"/>
<path d="M196.152 43.5982V41.9833H194.381C193.543 41.9833 192.863 42.6507 192.863 43.4739V45.0888H191.852V46.5795H192.863V51.2999H194.381V46.5795H195.642L195.899 45.0888H194.381V43.8466C194.381 43.7094 194.494 43.5982 194.634 43.5982H196.152Z" fill="black"/>
<path fill-rule="evenodd" clip-rule="evenodd" d="M186.833 55.5999C188.812 55.5999 190.417 57.2042 190.417 59.1832C190.417 61.1622 188.812 62.7665 186.833 62.7665H183.968C181.989 62.7665 180.385 61.1622 180.385 59.1832C180.385 57.2042 181.989 55.5999 183.968 55.5999H186.833ZM184.597 58.503V60.2623C184.597 60.6571 185.033 60.8962 185.366 60.6839L186.745 59.8042C187.053 59.6076 187.053 59.1577 186.745 58.9611L185.366 58.0814C185.033 57.8691 184.597 58.1082 184.597 58.503Z" fill="#C43B55"/>
<rect x="180.387" y="55.5999" width="10.0319" height="7.16666" rx="3" stroke="black" stroke-width="1.2"/>
<path d="M184.598 60.2623V58.5029C184.598 58.1081 185.034 57.8691 185.367 58.0814L186.746 58.9611C187.054 59.1576 187.054 59.6076 186.746 59.8042L185.367 60.6839C185.034 60.8962 184.598 60.6571 184.598 60.2623Z" stroke="black" stroke-width="0.8" stroke-linejoin="round"/>
<path fill-rule="evenodd" clip-rule="evenodd" d="M196.867 57.0844V62.4594L198.103 63.4832H202.551L204.034 62.2034V57.3403L202.798 56.3165H197.856L196.867 57.0844ZM199.091 60.6677V58.6201L200.574 57.8522L202.057 58.8761V60.6677L200.574 61.4356L199.091 60.6677Z" fill="#C43B55"/>
<rect x="196.867" y="56.3165" width="7.16667" height="7.16667" rx="3" stroke="black" stroke-width="1.2"/>
<path d="M202.001 59.9001C202.001 60.7562 201.307 61.4501 200.451 61.4501C199.595 61.4501 198.901 60.7562 198.901 59.9001C198.901 59.0441 199.595 58.3501 200.451 58.3501C201.307 58.3501 202.001 59.0441 202.001 59.9001Z" stroke="black" stroke-width="1.2"/>
<ellipse cx="202.601" cy="57.7502" rx="0.35833" ry="0.358332" fill="black"/>
</svg>
