<svg width="240" height="160" viewBox="0 0 240 160" fill="none" xmlns="http://www.w3.org/2000/svg">
<path d="M94.0137 156.8L17.264 127.941L17.2383 35.4167L94.0395 64.3016L94.0137 156.8Z" fill="#053866"/>
<path d="M170.97 127.71L94.1426 98.7226L94.2198 6.42932L171.124 35.3142L170.97 127.71Z" fill="#102E5B"/>
<path d="M94.0137 156.8L171.124 127.608V35.3144L94.0394 64.3018L94.0137 156.8Z" fill="#054270"/>
<path d="M17.264 127.941L94.1681 98.5176L94.2196 6.42932L17.2383 35.4167L17.264 127.941Z" fill="#0A2D49"/>
<path d="M94.0137 156.8L17.264 127.915L17.2383 35.4167L94.0395 64.3016L94.0137 156.8Z" fill="#053866"/>
<path d="M36.4322 65.9163L17.264 58.6631L17.2383 35.4167L36.4322 42.8238V65.9163Z" fill="#053866"/>
<path d="M22.3587 57.7403C20.615 57.7849 18.8807 57.4708 17.2643 56.8176L17.2129 54.3315C21.1494 55.818 24.9316 55.5361 27.8133 53.5626C31.2867 51.179 33.4736 47.2833 33.4736 41.5678L35.7893 42.4905C35.7893 48.9492 33.8596 52.6143 29.7687 55.4336C27.5752 56.9014 25.0009 57.7028 22.3587 57.7403Z" fill="#B9D5FD"/>
<path d="M55.5998 73.1697L36.4316 65.9164V42.8239L55.5998 50.0771V73.1697Z" fill="#0E2951"/>
<path d="M74.7677 80.4229L55.5996 73.1696V50.0771L74.7677 57.3303V80.4229Z" fill="#709FDC"/>
<path d="M93.9357 87.5735L74.7676 80.4227V57.3302L94.0386 64.3015L93.9357 87.5735Z" fill="#6780B3"/>
<path d="M36.4318 89.0089L17.2637 81.7556V58.6631L36.4318 65.9164V89.0089Z" fill="#B9D5FD"/>
<path d="M55.5998 96.2622L36.4316 89.0089V65.9164L55.5998 73.1696V96.2622Z" fill="#274684"/>
<path d="M74.7677 103.515L55.5996 96.2622V73.1697L74.7677 80.4229V103.515Z" fill="#3D95D1"/>
<path d="M93.9357 110.666L74.7676 103.515V80.4229L93.9357 87.5736V110.666Z" fill="#B9D5FD"/>
<path d="M55.5998 119.355L36.4316 112.102V89.009L55.5998 96.2623V119.355Z" fill="#B9D5FD"/>
<path d="M74.7677 126.608L55.5996 119.355V96.2623L74.7677 103.516V126.608Z" fill="#0E2951"/>
<path d="M93.9357 133.759L74.7676 126.608V103.515L93.9357 110.666V133.759Z" fill="#709FDC"/>
<path d="M36.4318 135.194L17.2637 127.915V104.823L36.4318 112.102V135.194Z" fill="#6780B3"/>
<path d="M55.5998 142.447L36.4316 135.194V112.101L55.5998 119.355V142.447Z" fill="#053866"/>
<path d="M74.7677 149.7L55.5996 142.447V119.355L74.7677 126.608V149.7Z" fill="#B9D5FD"/>
<path d="M94.0129 156.8L74.7676 149.701V126.608L93.9357 133.759L94.0129 156.8Z" fill="#3D95D1"/>
<path d="M21.1745 52.9477C19.8337 52.9678 18.5029 52.7149 17.2637 52.2044V49.4364C20.0167 50.4872 23.4129 50.1284 25.111 49.0007C27.9412 47.1297 29.3306 44.2336 29.3306 40.2097L31.6462 41.1323C31.6462 46.0789 29.8709 49.1032 26.7062 51.2818C25.073 52.3797 23.1448 52.9603 21.1745 52.9477Z" fill="#3D95D1"/>
<path d="M19.8108 47.6165C18.9366 47.6369 18.0682 47.4709 17.2637 47.1296V44.3615C18.9103 44.9767 21.4318 44.8229 22.8211 43.4389C24.2877 41.978 24.6736 40.799 24.6736 38.3641L26.9892 39.2868C26.9892 42.67 25.8314 44.951 23.6187 46.4376C22.5016 47.2117 21.1717 47.6234 19.8108 47.6165Z" fill="#3376B3"/>
<path d="M18.5244 42.2856C18.0912 42.3195 17.6565 42.2399 17.2637 42.0549V39.2869C17.6753 39.4407 19.039 39.5432 19.5793 39.2869C20.5055 38.8256 20.5055 37.9029 20.0424 36.5189L22.8211 37.4415C22.8211 39.3638 22.1265 40.6965 20.84 41.5936C20.1522 42.0439 19.3474 42.2844 18.5244 42.2856Z" fill="#709FDC"/>
<path d="M93.4479 130.529L77.2129 124.404V84.4979L93.7567 90.521V93.7503L79.9916 88.4962V122.481L93.2935 127.479L93.4479 130.529Z" fill="#274684"/>
<path d="M93.7567 131.17L77.2129 124.404V104.054L79.9916 104.976V122.481L93.7567 127.941V131.17Z" fill="#0E2951"/>
<path d="M93.4479 124.532L81.8184 120.124V91.3157L93.7566 95.6215V98.8509L84.5971 95.3139V118.688L93.7566 121.943L93.4479 124.532Z" fill="#274684"/>
<path d="M93.4467 118.996L86.8086 116.484V99.6708L93.7555 102.08V105.309L89.5873 103.669V114.562L93.7555 116.381L93.4467 118.996Z" fill="#274684"/>
<path d="M93.7555 119.15L86.8086 116.484V107.668L89.5873 108.59V114.562L93.7555 115.92V119.15Z" fill="#0E2951"/>
<path d="M93.7566 125.173L81.8184 120.585V105.797L84.5971 106.719V118.688L93.7566 121.943V125.173Z" fill="#0E2951"/>
<path d="M31.8263 133.451L17.2637 127.915V110.384L31.8263 115.895V133.451Z" fill="#053866"/>
<path d="M26.8606 131.555L17.2637 127.915V116.382L26.8606 120.021V131.555Z" fill="#709FDC"/>
<path d="M74.6915 65.7882L67.7446 77.6549L55.6777 64.7118L62.6503 52.8452L74.6915 65.7882Z" fill="#0E2951"/>
<path d="M70.0338 65.5319L66.4832 71.5806L60.334 64.9937L63.8846 58.9194L70.0338 65.5319Z" fill="#6780B3"/>
<path d="M74.7677 149.7L55.5996 142.447V123.968L74.7677 131.221V149.7Z" fill="#3D95D1"/>
<path d="M74.7677 149.701L55.5996 142.447V129.043L74.7677 136.296V149.701Z" fill="#6780B3"/>
<path d="M74.7677 149.701L55.5996 142.447V134.118L74.7677 141.397V149.701Z" fill="#053866"/>
<path d="M74.7677 149.701L55.5996 142.447V138.295L74.7677 145.549V149.701Z" fill="#0E2951"/>
<path d="M36.4316 71.4268L55.5998 78.68L36.4316 84.3955L55.5998 91.6488L36.4316 71.4268Z" fill="#0E2951"/>
<path d="M19.5793 82.6783L17.2637 81.7556V58.6631L19.5793 59.5858V82.6783Z" fill="#709FDC"/>
<path d="M23.2844 84.0625L20.9688 83.1398V60.0472L23.2844 60.9699V84.0625Z" fill="#709FDC"/>
<path d="M35.3508 88.6759L33.0352 87.7532V64.6606L35.3508 65.5833V88.6759Z" fill="#709FDC"/>
<path d="M31.3119 86.9842L28.5332 86.0615V62.9946L31.3119 63.9173V86.9842Z" fill="#709FDC"/>
<path d="M26.9894 85.4462L24.6738 84.5236V61.431L26.9894 62.3537V85.4462Z" fill="#709FDC"/>
<path d="M36.4318 112.101L17.2637 104.823V81.7556L36.4318 89.0089V112.101Z" fill="#0E2951"/>
<path d="M36.4325 112.101L26.8613 108.462V96.9285L36.4325 100.542V112.101Z" fill="#3D95D1"/>
<path d="M26.8606 96.9285L17.2637 93.2891V81.7556L26.8606 85.3694V96.9285Z" fill="#3D95D1"/>
<path d="M47.9847 130.555L44.0482 129.068V124.506L50.9436 127.121V135.117L41.0894 131.375V119.944L53.8767 124.788V139.73L38.1562 133.759V114.818L53.8767 120.764" stroke="#3D95D1" stroke-width="5" stroke-miterlimit="10"/>
<path d="M78.2168 148.24L91.2614 135.63" stroke="#0E2951" stroke-width="6" stroke-miterlimit="10"/>
<path d="M91.2614 153.161L78.2168 130.683" stroke="#0E2951" stroke-width="6" stroke-miterlimit="10"/>
<path d="M62.4954 107.181L59.4336 106.027V102.337L62.4954 103.49V107.181Z" fill="#B9D5FD"/>
<path d="M66.716 113.87L63.6543 112.691V109L66.716 110.154V113.87Z" fill="#B9D5FD"/>
<path d="M70.9348 120.534L67.873 119.38V115.689L70.9348 116.843V120.534Z" fill="#B9D5FD"/>
<path d="M94.0394 64.3018L171.124 35.3144L171.149 127.71L94.0137 156.8L94.0394 64.3018Z" fill="#053866"/>
<path d="M151.826 88.8038L171.149 81.5249V104.617L151.826 111.871V88.8038Z" fill="#B9D5FD"/>
<path d="M132.529 96.0572L151.826 88.804V111.871L132.529 119.15V96.0572Z" fill="#274684"/>
<path d="M113.232 103.311L132.529 96.0573V119.15L113.232 126.403V103.311Z" fill="#053866"/>
<path d="M93.9355 110.666L113.232 103.311V126.403L93.9355 133.759V110.666Z" fill="#B9D5FD"/>
<path d="M132.529 72.9647L151.826 65.7114V88.804L132.529 96.0572V72.9647Z" fill="#B9D5FD"/>
<path d="M113.232 80.2177L132.529 72.9645V96.057L113.232 103.31V80.2177Z" fill="#0E2951"/>
<path d="M93.9355 87.5737L113.232 80.2179V103.31L93.9355 110.666V87.5737Z" fill="#709FDC"/>
<path d="M132.529 119.15L151.826 111.871V134.963L132.529 142.242V119.15Z" fill="#0E2951"/>
<path d="M113.232 126.403L132.529 119.15V142.242L113.232 149.495V126.403Z" fill="#709FDC"/>
<path d="M93.9355 133.759L113.232 126.403V149.496L94.0127 156.8L93.9355 133.759Z" fill="#6780B3"/>
<path d="M151.826 42.6189L171.123 35.3144L171.149 58.4326L151.826 65.7115V42.6189Z" fill="#6780B3"/>
<path d="M132.529 49.8722L151.826 42.6189V65.7114L132.529 72.9647V49.8722Z" fill="#053866"/>
<path d="M113.232 57.1253L132.529 49.872V72.9646L113.232 80.2178V57.1253Z" fill="#B9D5FD"/>
<path d="M94.0385 64.3017L113.232 57.1254V80.2179L93.9355 87.5737L94.0385 64.3017Z" fill="#3D95D1"/>
<path d="M93.756 131.17V127.941L107.984 122.277V88.2914L94.425 93.3917L93.4473 90.8031L110.763 84.2931V124.199L93.756 131.17Z" fill="#274684"/>
<path d="M110.763 104.771L107.984 105.694V88.2914L93.7559 93.7505V90.5212L110.763 84.2931V104.771Z" fill="#0E2951"/>
<path d="M93.7559 125.173V121.943L103.353 118.022V95.1088L93.7559 98.8508V95.6214L106.132 92.0332V119.944L93.7559 125.173Z" fill="#274684"/>
<path d="M93.756 119.15V115.92L98.3358 114.357V103.464L94.425 104.951L93.4473 102.362L101.115 99.4661V116.279L93.756 119.15Z" fill="#274684"/>
<path d="M101.114 107.924L98.3356 108.847V103.464L93.7559 105.31V102.08L101.114 99.4661V107.924Z" fill="#0E2951"/>
<path d="M106.132 106.514L103.353 107.437V95.109L93.7559 98.851V95.6216L106.132 91.1107V106.514Z" fill="#0E2951"/>
<path d="M161.5 38.9795L171.123 35.3144L171.148 46.8991L161.5 50.5129V38.9795Z" fill="#FF8098"/>
<path d="M113.311 140.986L120.335 123.84L132.453 127.659L125.455 144.805L113.311 140.986Z" fill="#0E2951"/>
<path d="M118.02 137.731L121.57 128.966L127.771 130.914L124.195 139.679L118.02 137.731Z" fill="#6780B3"/>
<path d="M113.232 57.1253L132.529 49.872V68.3512L113.232 75.6044V57.1253Z" fill="#3D95D1"/>
<path d="M113.232 57.1253L132.529 49.872V63.2764L113.232 70.5297V57.1253Z" fill="#6780B3"/>
<path d="M113.232 57.1253L132.529 49.872V58.1761L113.232 65.455V57.1253Z" fill="#053866"/>
<path d="M113.232 57.1253L132.529 49.872V54.0241L113.232 61.3029V57.1253Z" fill="#0E2951"/>
<path d="M151.826 106.36L132.529 113.614L151.826 93.4172L132.529 100.671" fill="#0E2951"/>
<path d="M171.175 104.848L168.396 105.771V82.217L171.175 81.2943V104.848Z" fill="#709FDC"/>
<path d="M167.521 106.053L164.742 106.975V83.8829L167.521 82.9602V106.053Z" fill="#709FDC"/>
<path d="M155.944 110.41L153.139 111.333L153.088 88.2144L155.867 87.2917L155.944 110.41Z" fill="#709FDC"/>
<path d="M159.803 108.949L156.998 109.872V86.7791L159.803 85.8564V108.949Z" fill="#709FDC"/>
<path d="M163.662 107.514L160.857 108.436V85.3438L163.662 84.4211V107.514Z" fill="#709FDC"/>
<path d="M151.826 65.7114L171.149 58.4325V81.525L151.826 88.8039V65.7114Z" fill="#0E2951"/>
<path d="M151.826 111.871L171.149 104.617V127.71L151.826 134.963V111.871Z" fill="#053866"/>
<path d="M151.826 65.7113L161.5 62.0719V73.6054L151.826 77.2448V65.7113Z" fill="#3D95D1"/>
<path d="M154.478 133.938L152.162 134.861C152.162 119.15 160.884 109.641 171.176 105.771V108.077C161.888 111.563 154.478 123.327 154.478 133.938Z" fill="#B9D5FD"/>
<path d="M159.597 132.093L156.818 133.016C156.818 121.943 163.456 113.204 171.201 110.282V113.05C164.434 115.587 159.597 123.968 159.597 132.093Z" fill="#3D95D1"/>
<path d="M164.511 130.247L161.912 131.17C161.912 124.25 165.849 117.586 171.123 115.587L171.175 118.227C167.058 119.79 164.511 125.25 164.511 130.247Z" fill="#3376B3"/>
<path d="M168.859 128.402L166.543 129.325C166.08 125.634 168.241 121.969 171.123 120.892L171.174 123.789C169.348 124.455 168.859 126.172 168.859 128.402Z" fill="#709FDC"/>
<path d="M140.3 56.049L144.082 54.6138V58.9965L137.444 61.5082V53.8449L146.938 50.2567V61.2263L134.588 65.8909V51.5382L149.794 45.8227V64.0199L134.588 69.761" stroke="#3D95D1" stroke-width="5" stroke-miterlimit="10"/>
<path d="M109.76 61.2006L96.6387 83.7036" stroke="#0E2951" stroke-width="6" stroke-miterlimit="10"/>
<path d="M96.6387 66.147L109.76 78.7569" stroke="#0E2951" stroke-width="6" stroke-miterlimit="10"/>
<path d="M125.582 90.3417L128.67 89.1884V92.8791L125.582 94.058V90.3417Z" fill="#B9D5FD"/>
<path d="M121.338 86.8817L124.425 85.7028V89.3935L121.338 90.5724V86.8817Z" fill="#B9D5FD"/>
<path d="M117.092 83.396L120.179 82.217V85.9334L117.092 87.0867V83.396Z" fill="#B9D5FD"/>
<path d="M156.484 40.8761L171.124 35.3144L171.15 52.8965L156.484 58.4069V40.8761Z" fill="#053866"/>
<path d="M160.42 39.3639L171.123 35.3144L171.149 48.155L160.42 52.2045V39.3639Z" fill="#709FDC"/>
<path d="M161.5 73.6053L171.148 69.9915V81.5249L161.5 85.1643V73.6053Z" fill="#3D95D1"/>
<path d="M139.656 46.6683L171.123 35.3142L94.2188 6.42932L63.627 18.014L139.656 46.6683Z" fill="#0D3760"/>
<path d="M133.482 49.5132L93.7049 64.4042L16.8008 35.5705L56.6294 20.6283L133.482 49.5132Z" fill="#0D3659"/>
<path d="M135.952 3.20001L94.1678 6.48064L17.2637 35.3399L58.9447 32.1618L135.952 3.20001Z" fill="#043D60"/>
<path d="M171.176 35.3399L142.385 7.14697L65.3008 36.1088L94.2202 64.4298L171.176 35.3399Z" fill="#03446B"/>
<path d="M94 99.2V64.4L170.8 34.8L223.6 34.4L215.6 52.4L223.6 70.4L171.2 70.5933L94 99.2Z" fill="#B4D1FA"/>
<path d="M110.313 83.2407C111.571 82.7663 112.357 81.6636 112.863 80.3783L112.06 80.1197C111.723 81.0675 111.035 81.9029 110.226 82.2084C108.67 82.7953 107.353 81.6652 107.166 79.4612C106.977 77.2432 108.027 75.2346 109.583 74.6477C110.393 74.3422 111.177 74.6367 111.648 75.2652L112.348 74.4397C111.694 73.6066 110.753 73.1411 109.495 73.6154C107.449 74.3872 106.006 76.9472 106.25 79.8069C106.493 82.6666 108.268 84.0125 110.313 83.2407ZM116.775 80.6301L116.072 72.3579L118.331 71.5057L118.243 70.4734L112.852 72.5075L112.939 73.5398L115.188 72.6915L115.891 80.9637L116.775 80.6301ZM121.094 79.0007L120.78 75.3041L122.751 74.5604C124.157 74.0298 124.869 72.4368 124.739 70.9163C124.61 69.3958 123.702 68.4139 122.274 68.9526L119.419 70.0299L120.209 79.3344L121.094 79.0007ZM122.557 73.5683L120.692 74.2718L120.391 70.7286L122.255 70.0251C123.097 69.7075 123.734 70.2158 123.823 71.262C123.912 72.3083 123.398 73.2507 122.557 73.5683ZM131.725 74.9898L128.068 66.7667L126.971 67.1808L124.906 77.5626L125.918 77.1807L126.371 74.8789L129.909 73.5443L130.713 75.3717L131.725 74.9898ZM129.555 72.6125L126.539 73.7502L127.627 68.1714L129.555 72.6125ZM134.579 73.9132L133.876 65.641L136.135 64.7888L136.047 63.7565L130.655 65.7906L130.743 66.8229L132.991 65.9747L133.695 74.2468L134.579 73.9132ZM142.67 70.8608L142.582 69.8285L138.81 71.2516L138.537 68.0431L142.235 66.6482L142.147 65.616L138.449 67.0109L138.195 64.0117L141.966 62.5886L141.879 61.5563L137.222 63.3131L138.013 72.6175L142.67 70.8608ZM144.964 69.9952L144.261 61.723L148.033 60.2999L147.945 59.2677L143.289 61.0244L144.08 70.3288L144.964 69.9952ZM150.79 67.7971L154.304 58.8121L154.935 66.2333L155.82 65.8996L155.029 56.5952L154.123 56.9369L150.649 65.7483L150.031 58.4805L149.147 58.8142L149.938 68.1186L150.79 67.7971ZM158.185 65.0072L159.682 60.6271L161.11 60.0885L161.424 63.7851L162.309 63.4515L161.518 54.147L158.662 55.2244C157.352 55.7188 156.517 57.1566 156.663 58.8724C156.805 60.5464 157.768 61.1334 158.747 60.8792L157.152 65.3971L158.185 65.0072ZM159.148 59.7776C158.317 60.0912 157.668 59.573 157.579 58.5267C157.49 57.4805 158.015 56.534 158.846 56.2205L160.721 55.513L161.024 59.0701L159.148 59.7776Z" fill="black"/>
<path d="M223.601 34.4L170.801 34.8L171.198 70.4H223.601L215.661 52.4L223.601 34.4Z" fill="black" fill-opacity="0.05"/>
<path d="M197.131 53.264C197.131 55.671 195.179 57.6223 192.772 57.6223C190.365 57.6223 188.414 55.671 188.414 53.264C188.414 50.857 190.365 48.9058 192.772 48.9058C195.179 48.9058 197.131 50.857 197.131 53.264Z" fill="#C43B55"/>
<path d="M206.639 53.264C206.639 60.9226 200.43 67.1312 192.771 67.1312C185.113 67.1312 178.904 60.9226 178.904 53.264C178.904 45.6053 185.113 39.3968 192.771 39.3968C200.43 39.3968 206.639 45.6053 206.639 53.264ZM182.094 53.264C182.094 59.1611 186.874 63.9417 192.771 63.9417C198.669 63.9417 203.449 59.1611 203.449 53.264C203.449 47.3668 198.669 42.5862 192.771 42.5862C186.874 42.5862 182.094 47.3668 182.094 53.264Z" fill="#C43B55"/>
<path fill-rule="evenodd" clip-rule="evenodd" d="M192.772 39.9911C185.442 39.9911 179.499 45.9336 179.499 53.264C179.499 60.5944 185.442 66.5369 192.772 66.5369C200.102 66.5369 206.045 60.5944 206.045 53.264C206.045 48.1207 203.12 43.6596 198.839 41.4557C198.547 41.3055 198.433 40.9471 198.583 40.6553C198.733 40.3635 199.092 40.2487 199.383 40.3989C204.044 42.7987 207.234 47.6583 207.234 53.264C207.234 61.2509 200.759 67.7255 192.772 67.7255C184.785 67.7255 178.311 61.2509 178.311 53.264C178.311 45.2771 184.785 38.8025 192.772 38.8025C193.1 38.8025 193.366 39.0686 193.366 39.3968C193.366 39.725 193.1 39.9911 192.772 39.9911Z" fill="black"/>
<path fill-rule="evenodd" clip-rule="evenodd" d="M192.772 63.3673C187.192 63.3673 182.669 58.8439 182.669 53.2641C182.669 47.6842 187.192 43.1608 192.772 43.1608C198.352 43.1608 202.876 47.6842 202.876 53.2641C202.876 57.1789 200.649 60.5747 197.391 62.2525C197.099 62.4028 196.984 62.7611 197.134 63.053C197.285 63.3448 197.643 63.4595 197.935 63.3093C201.573 61.4357 204.064 57.6413 204.064 53.2641C204.064 47.0277 199.009 41.9722 192.772 41.9722C186.536 41.9722 181.48 47.0277 181.48 53.2641C181.48 59.5004 186.536 64.5559 192.772 64.5559C193.101 64.5559 193.367 64.2898 193.367 63.9616C193.367 63.6334 193.101 63.3673 192.772 63.3673Z" fill="black"/>
<path fill-rule="evenodd" clip-rule="evenodd" d="M186.132 51.485C187.114 47.8178 190.884 45.6415 194.551 46.6241C198.218 47.6067 200.394 51.3762 199.412 55.0434C198.429 58.7106 194.66 60.8868 190.992 59.9042C188.42 59.2149 186.58 57.1539 186.051 54.7163C185.981 54.3956 185.665 54.192 185.344 54.2616C185.023 54.3312 184.82 54.6476 184.889 54.9684C185.509 57.8239 187.666 60.2433 190.685 61.0523C194.986 62.2049 199.407 59.6523 200.56 55.351C201.712 51.0497 199.16 46.6285 194.858 45.476C190.557 44.3235 186.136 46.876 184.983 51.1773C184.899 51.4944 185.087 51.8203 185.404 51.9052C185.721 51.9902 186.047 51.802 186.132 51.485Z" fill="black"/>
<path fill-rule="evenodd" clip-rule="evenodd" d="M196.417 52.2875C195.878 50.2747 193.809 49.0803 191.796 49.6196C189.784 50.1589 188.589 52.2277 189.129 54.2405C189.668 56.2532 191.737 57.4477 193.749 56.9084C195.161 56.5301 196.171 55.3994 196.462 54.0608C196.531 53.74 196.848 53.5364 197.169 53.606C197.489 53.6756 197.693 53.9921 197.623 54.3129C197.242 56.0694 195.915 57.5586 194.057 58.0565C191.41 58.7657 188.69 57.1949 187.98 54.5481C187.271 51.9013 188.842 49.1807 191.489 48.4715C194.136 47.7622 196.856 49.333 197.565 51.9798C197.65 52.2969 197.462 52.6227 197.145 52.7077C196.828 52.7926 196.502 52.6045 196.417 52.2875Z" fill="black"/>
<path fill-rule="evenodd" clip-rule="evenodd" d="M196.119 53.439C196.144 53.1117 195.899 52.8261 195.572 52.801L194.713 52.7353L211.242 43.1925L213.629 43.48C213.954 43.5192 214.25 43.2869 214.29 42.961C214.329 42.6352 214.097 42.3392 213.771 42.2999L212.958 42.2019L213.27 42.0216L215.657 42.3091C215.982 42.3484 216.278 42.1161 216.318 41.7902C216.357 41.4643 216.125 41.1683 215.799 41.1291L214.986 41.0311L215.298 40.8508L217.684 41.1383C218.01 41.1776 218.306 40.9452 218.346 40.6193C218.385 40.2935 218.153 39.9975 217.827 39.9582L216.03 39.7418L216.741 38.0778C216.87 37.7759 216.73 37.4267 216.428 37.2978C216.126 37.1689 215.777 37.309 215.648 37.6109L214.704 39.8214L214.391 40.0017L214.713 39.2486C214.842 38.9468 214.702 38.5976 214.4 38.4686C214.098 38.3397 213.749 38.4799 213.62 38.7817L212.676 40.9922L212.363 41.1726L212.685 40.4195C212.814 40.1176 212.674 39.7684 212.372 39.6395C212.07 39.5105 211.721 39.6507 211.592 39.9525L210.648 42.1631L194.107 51.7131L194.495 50.8939C194.636 50.5973 194.51 50.2429 194.213 50.1022C193.917 49.9615 193.562 50.0878 193.421 50.3844L192.215 52.9266C192.131 53.1034 192.14 53.3102 192.238 53.4796C192.336 53.6489 192.512 53.759 192.707 53.7739L195.482 53.9862C195.809 54.0112 196.094 53.7662 196.119 53.439Z" fill="black"/>
</svg>
