<svg width="240" height="160" viewBox="0 0 240 160" fill="none" xmlns="http://www.w3.org/2000/svg">
<path d="M94.0137 156.8L17.264 127.941L17.2383 35.4166L94.0395 64.3015L94.0137 156.8Z" fill="#053866"/>
<path d="M170.97 127.71L94.1426 98.7226L94.2198 6.42932L171.124 35.3142L170.97 127.71Z" fill="#102E5B"/>
<path d="M94.0137 156.8L171.124 127.608V35.3143L94.0394 64.3018L94.0137 156.8Z" fill="#054270"/>
<path d="M17.264 127.941L94.1681 98.5176L94.2196 6.42932L17.2383 35.4167L17.264 127.941Z" fill="#0A2D49"/>
<path d="M94.0137 156.8L17.264 127.915L17.2383 35.4166L94.0395 64.3015L94.0137 156.8Z" fill="#053866"/>
<path d="M36.4322 65.9162L17.264 58.6629L17.2383 35.4166L36.4322 42.8237V65.9162Z" fill="#053866"/>
<path d="M22.3587 57.7403C20.615 57.785 18.8807 57.4709 17.2643 56.8176L17.2129 54.3316C21.1494 55.8181 24.9316 55.5362 27.8133 53.5627C31.2867 51.1791 33.4736 47.2833 33.4736 41.5679L35.7893 42.4905C35.7893 48.9493 33.8596 52.6144 29.7687 55.4336C27.5752 56.9015 25.0009 57.7029 22.3587 57.7403Z" fill="#B9D5FD"/>
<path d="M55.5998 73.1695L36.4316 65.9163V42.8237L55.5998 50.077V73.1695Z" fill="#0E2951"/>
<path d="M74.7677 80.4228L55.5996 73.1695V50.077L74.7677 57.3303V80.4228Z" fill="#709FDC"/>
<path d="M93.9357 87.5735L74.7676 80.4227V57.3302L94.0386 64.3015L93.9357 87.5735Z" fill="#6780B3"/>
<path d="M36.4318 89.0089L17.2637 81.7556V58.6631L36.4318 65.9163V89.0089Z" fill="#B9D5FD"/>
<path d="M55.5998 96.262L36.4316 89.0088V65.9163L55.5998 73.1695V96.262Z" fill="#274684"/>
<path d="M74.7677 103.515L55.5996 96.2621V73.1696L74.7677 80.4228V103.515Z" fill="#3D95D1"/>
<path d="M93.9357 110.666L74.7676 103.515V80.4229L93.9357 87.5736V110.666Z" fill="#B9D5FD"/>
<path d="M55.5998 119.355L36.4316 112.101V89.0089L55.5998 96.2622V119.355Z" fill="#B9D5FD"/>
<path d="M74.7677 126.608L55.5996 119.355V96.2622L74.7677 103.515V126.608Z" fill="#0E2951"/>
<path d="M93.9357 133.759L74.7676 126.608V103.515L93.9357 110.666V133.759Z" fill="#709FDC"/>
<path d="M36.4318 135.194L17.2637 127.915V104.823L36.4318 112.101V135.194Z" fill="#6780B3"/>
<path d="M55.5998 142.447L36.4316 135.194V112.101L55.5998 119.354V142.447Z" fill="#053866"/>
<path d="M74.7677 149.7L55.5996 142.447V119.354L74.7677 126.608V149.7Z" fill="#B9D5FD"/>
<path d="M94.0129 156.8L74.7676 149.7V126.608L93.9357 133.759L94.0129 156.8Z" fill="#3D95D1"/>
<path d="M21.1745 52.9477C19.8337 52.9678 18.5029 52.7148 17.2637 52.2044V49.4364C20.0167 50.4872 23.4129 50.1284 25.111 49.0007C27.9412 47.1297 29.3306 44.2335 29.3306 40.2096L31.6462 41.1323C31.6462 46.0788 29.8709 49.1032 26.7062 51.2817C25.073 52.3796 23.1448 52.9603 21.1745 52.9477Z" fill="#3D95D1"/>
<path d="M19.8108 47.6164C18.9366 47.6368 18.0682 47.4708 17.2637 47.1294V44.3614C18.9103 44.9765 21.4318 44.8228 22.8211 43.4387C24.2877 41.9778 24.6736 40.7989 24.6736 38.364L26.9892 39.2867C26.9892 42.6698 25.8314 44.9509 23.6187 46.4374C22.5016 47.2115 21.1717 47.6233 19.8108 47.6164Z" fill="#3376B3"/>
<path d="M18.5244 42.2855C18.0912 42.3194 17.6565 42.2399 17.2637 42.0549V39.2868C17.6753 39.4406 19.039 39.5431 19.5793 39.2868C20.5055 38.8255 20.5055 37.9028 20.0424 36.5188L22.8211 37.4415C22.8211 39.3637 22.1265 40.6965 20.84 41.5935C20.1522 42.0438 19.3474 42.2843 18.5244 42.2855Z" fill="#709FDC"/>
<path d="M93.4479 130.529L77.2129 124.404V84.4979L93.7567 90.521V93.7503L79.9916 88.4962V122.481L93.2935 127.479L93.4479 130.529Z" fill="#274684"/>
<path d="M93.7567 131.17L77.2129 124.404V104.054L79.9916 104.976V122.481L93.7567 127.941V131.17Z" fill="#0E2951"/>
<path d="M93.4479 124.532L81.8184 120.124V91.3156L93.7566 95.6214V98.8508L84.5971 95.3138V118.688L93.7566 121.943L93.4479 124.532Z" fill="#274684"/>
<path d="M93.4467 118.996L86.8086 116.484V99.6707L93.7555 102.08V105.309L89.5873 103.669V114.562L93.7555 116.381L93.4467 118.996Z" fill="#274684"/>
<path d="M93.7555 119.15L86.8086 116.484V107.668L89.5873 108.59V114.562L93.7555 115.92V119.15Z" fill="#0E2951"/>
<path d="M93.7566 125.173L81.8184 120.585V105.797L84.5971 106.719V118.688L93.7566 121.943V125.173Z" fill="#0E2951"/>
<path d="M31.8263 133.451L17.2637 127.915V110.384L31.8263 115.895V133.451Z" fill="#053866"/>
<path d="M26.8606 131.555L17.2637 127.915V116.382L26.8606 120.021V131.555Z" fill="#709FDC"/>
<path d="M74.6915 65.7881L67.7446 77.6547L55.6777 64.7116L62.6503 52.845L74.6915 65.7881Z" fill="#0E2951"/>
<path d="M70.0338 65.5319L66.4832 71.5806L60.334 64.9937L63.8846 58.9194L70.0338 65.5319Z" fill="#6780B3"/>
<path d="M74.7677 149.7L55.5996 142.447V123.968L74.7677 131.221V149.7Z" fill="#3D95D1"/>
<path d="M74.7677 149.701L55.5996 142.447V129.043L74.7677 136.296V149.701Z" fill="#6780B3"/>
<path d="M74.7677 149.7L55.5996 142.447V134.117L74.7677 141.396V149.7Z" fill="#053866"/>
<path d="M74.7677 149.701L55.5996 142.447V138.295L74.7677 145.549V149.701Z" fill="#0E2951"/>
<path d="M36.4316 71.4268L55.5998 78.68L36.4316 84.3955L55.5998 91.6488L36.4316 71.4268Z" fill="#0E2951"/>
<path d="M19.5793 82.6783L17.2637 81.7556V58.6631L19.5793 59.5858V82.6783Z" fill="#709FDC"/>
<path d="M23.2844 84.0625L20.9688 83.1398V60.0472L23.2844 60.9699V84.0625Z" fill="#709FDC"/>
<path d="M35.3508 88.6757L33.0352 87.7531V64.6605L35.3508 65.5832V88.6757Z" fill="#709FDC"/>
<path d="M31.3119 86.9842L28.5332 86.0615V62.9946L31.3119 63.9173V86.9842Z" fill="#709FDC"/>
<path d="M26.9894 85.4462L24.6738 84.5236V61.431L26.9894 62.3537V85.4462Z" fill="#709FDC"/>
<path d="M36.4318 112.101L17.2637 104.823V81.7556L36.4318 89.0089V112.101Z" fill="#0E2951"/>
<path d="M36.4325 112.101L26.8613 108.462V96.9285L36.4325 100.542V112.101Z" fill="#3D95D1"/>
<path d="M26.8606 96.9285L17.2637 93.2891V81.7556L26.8606 85.3694V96.9285Z" fill="#3D95D1"/>
<path d="M47.9847 130.555L44.0482 129.068V124.506L50.9436 127.12V135.117L41.0894 131.375V119.944L53.8767 124.788V139.73L38.1562 133.759V114.818L53.8767 120.764" stroke="#3D95D1" stroke-width="3" stroke-miterlimit="10"/>
<path d="M78.2168 148.239L91.2614 135.63" stroke="#0E2951" stroke-width="6" stroke-miterlimit="10"/>
<path d="M91.2614 153.16L78.2168 130.683" stroke="#0E2951" stroke-width="6" stroke-miterlimit="10"/>
<path d="M62.4954 107.181L59.4336 106.027V102.337L62.4954 103.49V107.181Z" fill="#B9D5FD"/>
<path d="M66.7161 113.87L63.6543 112.691V109L66.7161 110.154V113.87Z" fill="#B9D5FD"/>
<path d="M70.9348 120.534L67.873 119.38V115.689L70.9348 116.843V120.534Z" fill="#B9D5FD"/>
<path d="M94.0394 64.3018L171.124 35.3143L171.149 127.71L94.0137 156.8L94.0394 64.3018Z" fill="#053866"/>
<path d="M151.826 88.8038L171.149 81.5249V104.617L151.826 111.871V88.8038Z" fill="#B9D5FD"/>
<path d="M132.529 96.0572L151.826 88.804V111.871L132.529 119.15V96.0572Z" fill="#274684"/>
<path d="M113.232 103.31L132.529 96.0571V119.15L113.232 126.403V103.31Z" fill="#053866"/>
<path d="M93.9355 110.666L113.232 103.311V126.403L93.9355 133.759V110.666Z" fill="#B9D5FD"/>
<path d="M132.529 72.9646L151.826 65.7113V88.8039L132.529 96.0571V72.9646Z" fill="#B9D5FD"/>
<path d="M113.232 80.2177L132.529 72.9645V96.057L113.232 103.31V80.2177Z" fill="#0E2951"/>
<path d="M93.9355 87.5737L113.232 80.2179V103.31L93.9355 110.666V87.5737Z" fill="#709FDC"/>
<path d="M132.529 119.149L151.826 111.871V134.963L132.529 142.242V119.149Z" fill="#0E2951"/>
<path d="M113.232 126.403L132.529 119.15V142.242L113.232 149.495V126.403Z" fill="#709FDC"/>
<path d="M93.9355 133.758L113.232 126.403V149.495L94.0127 156.8L93.9355 133.758Z" fill="#6780B3"/>
<path d="M151.826 42.6189L171.123 35.3143L171.149 58.4325L151.826 65.7114V42.6189Z" fill="#6780B3"/>
<path d="M132.529 49.872L151.826 42.6188V65.7113L132.529 72.9646V49.872Z" fill="#053866"/>
<path d="M113.232 57.1251L132.529 49.8718V72.9644L113.232 80.2176V57.1251Z" fill="#B9D5FD"/>
<path d="M94.0385 64.3016L113.232 57.1252V80.2178L93.9355 87.5736L94.0385 64.3016Z" fill="#3D95D1"/>
<path d="M93.756 131.17V127.941L107.984 122.277V88.2912L94.425 93.3916L93.4473 90.803L110.763 84.293V124.199L93.756 131.17Z" fill="#274684"/>
<path d="M110.763 104.771L107.984 105.694V88.2912L93.7559 93.7504V90.521L110.763 84.293V104.771Z" fill="#0E2951"/>
<path d="M93.7559 125.173V121.943L103.353 118.022V95.1087L93.7559 98.8506V95.6213L106.132 92.0331V119.944L93.7559 125.173Z" fill="#274684"/>
<path d="M93.756 119.15V115.92L98.3358 114.357V103.464L94.425 104.951L93.4473 102.362L101.115 99.4661V116.279L93.756 119.15Z" fill="#274684"/>
<path d="M101.114 107.924L98.3356 108.847V103.464L93.7559 105.31V102.08L101.114 99.4661V107.924Z" fill="#0E2951"/>
<path d="M106.132 106.514L103.353 107.437V95.1089L93.7559 98.8508V95.6215L106.132 91.1106V106.514Z" fill="#0E2951"/>
<path d="M161.5 38.9794L171.123 35.3143L171.148 46.899L161.5 50.5129V38.9794Z" fill="#FF8098"/>
<path d="M113.311 140.986L120.335 123.84L132.453 127.659L125.455 144.805L113.311 140.986Z" fill="#0E2951"/>
<path d="M118.02 137.731L121.57 128.966L127.771 130.914L124.195 139.679L118.02 137.731Z" fill="#6780B3"/>
<path d="M113.232 57.1251L132.529 49.8718V68.351L113.232 75.6042V57.1251Z" fill="#3D95D1"/>
<path d="M113.232 57.1251L132.529 49.8718V63.2763L113.232 70.5295V57.1251Z" fill="#6780B3"/>
<path d="M113.232 57.1251L132.529 49.8718V58.1759L113.232 65.4548V57.1251Z" fill="#053866"/>
<path d="M113.232 57.1251L132.529 49.8718V54.0239L113.232 61.3028V57.1251Z" fill="#0E2951"/>
<path d="M151.826 106.36L132.529 113.614L151.826 93.4172L132.529 100.67" fill="#0E2951"/>
<path d="M171.175 104.848L168.396 105.771V82.2169L171.175 81.2942V104.848Z" fill="#709FDC"/>
<path d="M167.521 106.053L164.742 106.975V83.8829L167.521 82.9602V106.053Z" fill="#709FDC"/>
<path d="M155.944 110.41L153.139 111.332L153.088 88.2143L155.867 87.2916L155.944 110.41Z" fill="#709FDC"/>
<path d="M159.803 108.949L156.998 109.872V86.7791L159.803 85.8564V108.949Z" fill="#709FDC"/>
<path d="M163.662 107.514L160.857 108.436V85.3438L163.662 84.4211V107.514Z" fill="#709FDC"/>
<path d="M151.826 65.7114L171.149 58.4325V81.525L151.826 88.8039V65.7114Z" fill="#0E2951"/>
<path d="M151.826 111.871L171.149 104.617V127.71L151.826 134.963V111.871Z" fill="#053866"/>
<path d="M151.826 65.7112L161.5 62.0718V73.6052L151.826 77.2447V65.7112Z" fill="#3D95D1"/>
<path d="M154.478 133.938L152.162 134.861C152.162 119.15 160.884 109.641 171.176 105.771V108.077C161.888 111.563 154.478 123.327 154.478 133.938Z" fill="#B9D5FD"/>
<path d="M159.597 132.093L156.818 133.016C156.818 121.943 163.456 113.204 171.201 110.282V113.05C164.434 115.587 159.597 123.968 159.597 132.093Z" fill="#3D95D1"/>
<path d="M164.511 130.247L161.912 131.17C161.912 124.25 165.849 117.586 171.123 115.587L171.175 118.227C167.058 119.79 164.511 125.25 164.511 130.247Z" fill="#3376B3"/>
<path d="M168.859 128.402L166.543 129.325C166.08 125.634 168.241 121.969 171.123 120.892L171.174 123.789C169.348 124.455 168.859 126.172 168.859 128.402Z" fill="#709FDC"/>
<path d="M140.3 56.049L144.082 54.6137V58.9964L137.444 61.5081V53.8448L146.938 50.2566V61.2262L134.588 65.8909V51.5381L149.794 45.8226V64.0199L134.588 69.761" stroke="#3D95D1" stroke-width="5" stroke-miterlimit="10"/>
<path d="M109.76 61.2006L96.6387 83.7036" stroke="#0E2951" stroke-width="6" stroke-miterlimit="10"/>
<path d="M96.6387 66.1469L109.76 78.7568" stroke="#0E2951" stroke-width="6" stroke-miterlimit="10"/>
<path d="M125.582 90.3416L128.67 89.1882V92.8789L125.582 94.0579V90.3416Z" fill="#B9D5FD"/>
<path d="M121.338 86.8816L124.425 85.7026V89.3933L121.338 90.5723V86.8816Z" fill="#B9D5FD"/>
<path d="M117.092 83.396L120.179 82.217V85.9334L117.092 87.0867V83.396Z" fill="#B9D5FD"/>
<path d="M156.484 40.876L171.124 35.3143L171.15 52.8964L156.484 58.4069V40.876Z" fill="#053866"/>
<path d="M160.42 39.3639L171.123 35.3143L171.149 48.1549L160.42 52.2044V39.3639Z" fill="#709FDC"/>
<path d="M161.5 73.6053L171.148 69.9915V81.5249L161.5 85.1643V73.6053Z" fill="#3D95D1"/>
<path d="M139.656 46.6683L171.123 35.3142L94.2188 6.42932L63.627 18.014L139.656 46.6683Z" fill="#0D3760"/>
<path d="M133.482 49.5131L93.7049 64.404L16.8008 35.5704L56.6294 20.6282L133.482 49.5131Z" fill="#0D3659"/>
<path d="M135.952 3.19995L94.1678 6.48058L17.2637 35.3398L58.9447 32.1617L135.952 3.19995Z" fill="#043D60"/>
<path d="M171.176 35.3399L142.385 7.14697L65.3008 36.1088L94.2202 64.4298L171.176 35.3399Z" fill="#03446B"/>
<path d="M94 100.191V64.4916L171.2 35.4249H224L216 53.5125L224 71.6H171.2L94 100.191Z" fill="#B4D1FA"/>
<path d="M129.8 73.59C131.072 73.1559 131.901 72.0783 132.46 70.8092L131.672 70.5249C131.296 71.4619 130.576 72.2753 129.757 72.5549C128.183 73.092 126.92 71.9197 126.827 69.7097C126.734 67.4857 127.864 65.5107 129.437 64.9736C130.257 64.694 131.024 65.0137 131.467 65.6572L132.198 64.8541C131.583 64 130.666 63.5044 129.394 63.9385C127.325 64.6448 125.78 67.1586 125.9 70.0261C126.021 72.8935 127.731 74.2963 129.8 73.59ZM138.887 70.318L136.787 67.1756C137.763 66.7289 138.608 65.504 138.537 63.8255C138.465 62.1051 137.481 61.3341 136.166 61.7829L133.278 62.7688L133.671 72.0985L134.565 71.7932L134.409 68.0865L135.843 67.5972L137.831 70.6785L138.887 70.318ZM136.252 66.4216L134.366 67.0654L134.216 63.4985L136.102 62.8548C136.954 62.5641 137.566 63.0928 137.61 64.1419C137.655 65.191 137.104 66.131 136.252 66.4216ZM147.266 67.4581L146.873 58.1284L145.591 58.5662L143.644 66.3531L141.118 60.0929L139.835 60.5306L140.228 69.8604L141.122 69.555L140.799 61.8758L143.558 68.7236L143.925 68.5985L146.048 60.0843L146.371 67.7635L147.266 67.4581Z" fill="black"/>
<path d="M224.001 35.6H171.201V71.6H224.001L216.001 53.6L224.001 35.6Z" fill="black" fill-opacity="0.05"/>
<path d="M184.628 55.811L184.141 56.2981V67.0133L185.115 67.7439H187.55L188.524 66.7698V56.7851L188.037 55.811H184.628Z" fill="#C43B55"/>
<path d="M192.367 52.8889L191.795 53.5971V67.1551L192.8 67.9876H194.965L195.831 66.7551V54.1215C196.005 53.5209 195.995 53.2221 195.398 52.8889H192.367Z" fill="#C43B55"/>
<path d="M199.167 46.7094L198.684 47.798V66.7108L199.65 68.0004H202.067L203.276 66.3978V48.6576L202.792 46.7094H199.167Z" fill="#C43B55"/>
<path d="M184 52.3831C188.857 52.0362 199.126 48.9139 201.346 39.2M201.346 39.2L199.959 40.2407M201.346 39.2L202.04 40.5877" stroke="black" stroke-width="1.5" stroke-linecap="round" stroke-linejoin="round"/>
<path d="M203.276 58.8539V65.5829C203.276 66.6874 202.38 67.5829 201.276 67.5829H200.684C199.579 67.5829 198.684 66.6874 198.684 65.5829V48.7094C198.684 47.6048 199.579 46.7094 200.684 46.7094H201.276C202.38 46.7094 203.276 47.6048 203.276 48.7094V56.7666" stroke="black" stroke-width="1.5" stroke-linecap="round"/>
<path d="M191.586 65.0157V54.9711C191.586 53.8665 192.481 52.9711 193.586 52.9711H194.178C195.283 52.9711 196.178 53.8665 196.178 54.9711V65.5825C196.178 66.6871 195.283 67.5825 194.178 67.5825H192.869C192.161 67.5825 191.586 67.0079 191.586 66.2991V66.2991" stroke="black" stroke-width="1.5" stroke-linecap="round"/>
<path d="M184.07 58.5031V65.5831C184.07 66.6877 184.966 67.5831 186.07 67.5831H186.662C187.767 67.5831 188.662 66.6877 188.662 65.5831V57.4764C188.662 56.3719 187.767 55.4764 186.662 55.4764H185.584C184.748 55.4764 184.07 56.154 184.07 56.9898V56.9898" stroke="black" stroke-width="1.5" stroke-linecap="round"/>
</svg>
