<?xml version="1.0" encoding="utf-8"?>
<!-- Generator: Adobe Illustrator 24.0.0, SVG Export Plug-In . SVG Version: 6.00 Build 0)  -->
<svg version="1.1" id="Слой_1" xmlns="http://www.w3.org/2000/svg" xmlns:xlink="http://www.w3.org/1999/xlink" x="0px" y="0px"
	 viewBox="0 0 600 250" style="enable-background:new 0 0 600 250;" xml:space="preserve">
<style type="text/css">
	.st0{clip-path:url(#SVGID_2_);}
	.st1{fill:#9A384B;}
	.st2{fill:#40689D;}
	.st3{fill:#E87891;stroke:#000000;stroke-width:0.2;}
	.st4{fill:#B4D1FA;stroke:#000000;stroke-width:0.2;}
</style>
<g>
	<g>
		<defs>
			<rect id="SVGID_1_" x="174.8" width="250" height="250"/>
		</defs>
		<clipPath id="SVGID_2_">
			<use xlink:href="#SVGID_1_"  style="overflow:visible;"/>
		</clipPath>
		<g class="st0">
			<path class="st1" d="M376.6,159l-11.5-6.2l0.3,0.2l11.5,6.2L376.6,159 M377,159.2l-11.5-6.2c0.5,0.3,1.1,0.5,1.7,0.6l11.5,6.2
				C378,159.6,377.5,159.4,377,159.2"/>
			<path class="st1" d="M378.6,159.8l-11.5-6.2c1.1,0.3,2.3,0.3,3.5,0.2c1-0.1,2.1-0.4,3-0.9l11.5,6.2c-1,0.4-2,0.7-3,0.9
				C381,160.1,379.8,160.1,378.6,159.8z"/>
			<path class="st1" d="M378.1,160.4l-4.5-7.6c0.6-0.3,2.2-1.4,2.7-1.7l10.5,7c-0.5,0.4-1.1,0.7-1.7,1"/>
			<path class="st1" d="M383.9,161.1l-8.5-9.3c0.5-0.3,0.9-0.6,1.3-1l11.5,6.2c-0.4,0.4,0.5,2.5,0,2.8"/>
			<path class="st1" d="M388.4,158.6l-12-7.5l1.5-1.5l14.5,5.5C392,155.5,388.8,158.2,388.4,158.6z"/>
			<path class="st1" d="M389.2,155.9l-11.5-6.2l11.7,6.1 M389.4,155.8l-11.5-6.2l0.3-0.4l11.5,6.2L389.4,155.8"/>
			<path class="st1" d="M375.6,152.7l2.6-3.5c0.1-0.1,0.3-0.2,0.4-0.3l11.5,6.2c-0.2,0.1-0.3,0.2-0.4,0.3"/>
			<path class="st1" d="M390.1,155.1l-11.5-6.2l0.6-0.3l11.5,6.2L390.1,155.1z"/>
			<path class="st1" d="M375.7,151.8l3.4-3.2c0.3-0.1,0.6-0.2,1-0.3c0.4-0.1,0.8-0.1,1.2,0l11.5,6.3c-0.4-0.1-0.6,0.4-1,0.5
				C391.5,155.2,376.1,151.6,375.7,151.8L375.7,151.8z"/>
			<path class="st1" d="M392.8,154.6l-11.5-6.2c0.2,0,0.4,0.1,0.5,0.2l11.5,6.2C393.2,154.7,393,154.6,392.8,154.6 M393.4,154.8
				l-11.6-6.2L393.4,154.8 M394.7,149.4l-11.5-6.2c-0.6-0.3-1-0.8-1.3-1.4c-0.3-0.6-0.5-1.2-0.4-1.9c0.1-2-0.3-3.9-1.3-5.7
				c-0.9-1.7-2.3-3.2-4-4.2l11.5,6.2c1.7,1,3.1,2.5,4,4.2c0.9,1.7,1.4,3.7,1.3,5.7c0,0.7,0.1,1.3,0.4,1.9S394.2,149,394.7,149.4
				 M381.4,128.1l-11.5-7c2-0.5,4.8-0.5,6.7,0l11.5,6.3c-1.9-0.5-3.9-0.6-5.9-0.3"/>
			<path class="st1" d="M388.1,127.5l-11.5-6.2c0.9,0.2,1.8,0.6,2.7,1l11.5,6.2C390,128,389,127.7,388.1,127.5 M390.9,128.4
				l-11.6-6.2l0.5,0.3l11.5,6.2L390.9,128.4"/>
			<path class="st2" d="M356.1,202.1l-11.5-6.2c-0.7-0.4-1.3-1.1-1.5-1.9c-0.4-1.6-0.3-1.7,1.5-5.5l11.3,9.2
				c-0.3,0.8-0.8,1.7-0.5,2.5C355.6,200.9,355.4,201.7,356.1,202.1z"/>
			<path class="st2" d="M354.9,198.1l-11.7-6.7l0.3-0.6c0.3-0.6,0.5-1.1,0.8-1.7c5.8,1.2,8.8,3,12.2,6.4c-0.2,0.6-0.6,1.5-0.8,2.1
				l-0.2,0.4"/>
			<path class="st2" d="M355.7,195.4l-11.5-6.2c0.5-1.4,0.8-2.9,0.8-4.3c0.1-1.8-0.4-3.6-1.3-5.2c-0.9-1.6-2.2-2.9-3.8-3.8l13.7,4
				c1.6,0.9,3.6,2.8,4.5,4.4c0.9,1.6,1,5.9,1,7.8c0,1.5-2.2,2.2-2.7,3.6 M338.6,203.3l-11.5-6.2l0.4,0.2l11.5,6.2L338.6,203.3
				 M338.9,203.4l-11.5-6.2c0.6,0.3,1.2,0.5,1.9,0.7l11.5,6.2C340.2,204,339.6,203.7,338.9,203.4"/>
			<path class="st2" d="M334.8,205.8l-5.4-7.9c1.4,0.3,2.8,0.4,4.2,0.2c0.5-0.1,0.9-0.1,1.4,0l11.6,6.3c-0.5-0.1-0.9-0.1-1.4,0
				c-1.4,0.2-2.8,0.1-4.2-0.2"/>
			<path class="st2" d="M344.5,205.8l-9.6-7.6c0.2,0,0.4,0.1,0.6,0.2l9.8,5.1C345.1,203.4,344.7,205.8,344.5,205.8"/>
			<path class="st2" d="M346.7,205.2l-11.2-6.8h0.1L346.7,205.2L346.7,205.2z"/>
			<path class="st1" d="M372.9,166.6l-11.5-6.2c-2.8-1.7-5.1-4.1-6.6-7s-2.3-6.1-2.1-9.4c0-2.9,0.5-5.8,1.5-8.5l14.2,2
				c-1,2.7-3.6,8.3-3.6,11.2c-0.2,3.3,0,7.6,1.5,10.5s4.2,5.3,7,7"/>
			<path class="st1" d="M365.7,141.6l-11.5-6.2c0.4-1.1,0.9-2.2,1.5-3.2l11.5,6.2C366.6,139.4,366.1,140.5,365.7,141.6"/>
			<path class="st1" d="M354.2,135.8l1.5-3.6c0.5-0.9,1-1.7,1.6-2.5l15.4,2.6c-0.6,0.8-4.9,5.3-5.4,6.1"/>
			<path class="st1" d="M368.8,135.9l-11.5-6.2c0.5-0.7,1.1-1.4,1.7-2.1l11.5,6.2C369.8,134.4,369.3,135.1,368.8,135.9"/>
			<path class="st1" d="M370.4,134.1l-11.5-6.6c0.6-0.7,1.2-1.4,1.9-2l11.5,6.2c-0.7,0.6-0.8,1.6-1.4,2.3"/>
			<path class="st1" d="M372.3,131.9l-15.4-1.8c4.3-5.6,5.3-5.6,6-6.2l17.3,4.1C379.5,128.6,373,131.3,372.3,131.9L372.3,131.9z"/>
			<path class="st1" d="M374.4,130.2l-15.8-2.2c3.6-4.5,6.1-5.2,7.1-5.6l11.5,6.2C376.2,129.1,375.3,129.6,374.4,130.2"/>
			<path class="st1" d="M376.4,130.1l-10.6-7.7c1.6-0.7,3.3-1.2,5-1.5l11.5,6.2c-1.7,0.2-3.4,0.7-5,1.5"/>
			<path class="st3" d="M382.2,127.2c9.8-1.4,17.8,6.6,17.8,17.9c0,1-0.3,2.1-1,2.9c-0.6,0.8-1.6,1.4-2.6,1.6c-0.5,0-0.9,0-1.4-0.2
				c-0.4-0.2-0.8-0.4-1.2-0.8c-0.3-0.3-0.6-0.7-0.7-1.2c-0.2-0.4-0.2-0.9-0.2-1.4c0-6.9-4.9-11.8-10.9-10.9
				c-6,0.8-10.9,7.1-10.9,13.9c0,6.8,4.9,11.8,10.9,10.9c2.9-0.4,5.5-1.9,7.3-4.1c0.6-0.7,1.4-1.2,2.3-1.3c0.5-0.1,1,0,1.4,0.2
				c0.5,0.2,0.9,0.5,1.2,0.8c0.6,0.8,0.9,1.9,0.9,2.9c-0.1,1-0.5,2-1.2,2.8c-3,3.6-7.2,6-11.8,6.8c-10,1.4-18-6.6-18-18
				C364.3,138.7,372.3,128.6,382.2,127.2L382.2,127.2z"/>
			<path class="st2" d="M345.1,173.4l-11.5-6.2c2.3-0.3,4.7-0.2,7,0.4l11.5,6.2C349.8,173.1,347.4,173,345.1,173.4"/>
			<path class="st2" d="M341.6,177.6l-1-10.1c1.1,0.3,2.1,0.7,3.1,1.1l11.5,6.2c-1-0.5-2-0.9-3.1-1.1"/>
			<path class="st2" d="M352.8,171.6l-9.2-2.9l0.6,0.3l11.5,6.4l-0.6-0.3"/>
			<path class="st1" d="M311.8,229.6l-11.5-6.2l0.4,0.2l11.5,6.2L311.8,229.6L311.8,229.6z M312.2,229.7l-11.5-6.2
				c0.6,0.3,1.2,0.6,1.9,0.8c0.7,0.3,1.4,0.5,2.2,0.7l11.5,6.2c-0.7-0.2-1.5-0.4-2.2-0.7C313.4,230.3,312.8,230,312.2,229.7"/>
			<path class="st1" d="M312.3,232.9l-7.6-8c1.2,0.3,2.5,0.6,3.9,0.8c4.5,0.8,9,0.9,13.6,0.4c7.8-1.1,15.4-3.4,22.5-6.8l15.2,5.8
				c-7.1,3.4-16.7,9-24.5,10.1c-4.5,0.5-8.4,1.4-12.9,0.6c-1.4-0.3-5-1.6-6.3-1.9"/>
			<path class="st1" d="M356.3,225.6l-11.5-6.3c4.6-2.1,9-4.7,13.1-7.6l16,3.7C369.7,218.4,360.8,223.5,356.3,225.6"/>
			<path class="st1" d="M369.4,218.1l-11.5-6.3c3.5-2.5,6.9-5.2,10.1-8l14.9,5.3c-3.2,2.9-9,8-12.5,10.5"/>
			<path class="st1" d="M379.5,210l-11.5-6.2c3.1-2.8,6-5.8,8.7-8.9l27.4-8.1C401.4,189.9,382.6,207.2,379.5,210"/>
			<path class="st1" d="M389.9,202.6l-13.1-7.7c2.9-3.2,6.1-7.3,8.6-10.8l12.5,6.5c-2.5,3.5-4.1,8.3-7,11.5"/>
			<path class="st1" d="M389.9,202.6l-4.5-18.5c2.7-3.8,4.7-7.2,6.9-11.3l13.1,5.3c-2.3,4.1-6.3,9.1-9,12.9"/>
			<path class="st1" d="M395.4,193.3l-3.1-20.5c2.6-4.9,4.9-10,6.9-15.3l13.2,5.1c-2,5.3-5.9,11.5-8.6,16.4"/>
			<path class="st1" d="M399.9,182.8l-0.7-25.3c4.5-12,6.8-24.7,6.9-37.5c0-0.5,0.1-1.1,0.3-1.6c0.4-1.2,0.8-1.7,2-2.2l13,7
				c-0.2,0.5-3,3-3,3.5c-0.1,12.7-3.2,24.9-7.7,37"/>
			<path class="st1" d="M417.9,124.6l-11.5-6.2l0.3-0.6l11.5,6.2C418,124.2,418,124.4,417.9,124.6"/>
			<path class="st1" d="M418.2,124l-11.5-6.2l0.4-0.4l11.5,6.2L418.2,124"/>
			<path class="st1" d="M418.5,123.5l-11.4-6.1c0-0.2,0.2-0.3,0.3-0.4l11.5,6.2c-0.1,0.1-0.2,0.3-0.3,0.4 M418.8,123.1l-11.5-6.2
				l0.4-0.4l11.5,6.2L418.8,123.1"/>
			<path class="st1" d="M419.2,122.7l-11.5-6.2l0.4-0.4l11.6,6.3l-0.4,0.4"/>
			<path class="st1" d="M419.7,122.4l-11.6-6.3l0.6-0.4l11.5,6.2C420.2,121.9,419.7,122.4,419.7,122.4z"/>
			<path class="st1" d="M420.4,122.6l-11.7-6.8c0.3-0.2,0.7-0.3,1.1-0.3c0.4-0.1,0.8-0.1,1.2,0l12.1,6.2c0.9,0.4-0.2,0.4-1.7,0.4
				C421,122.2,420.7,122.5,420.4,122.6L420.4,122.6z"/>
			<path class="st1" d="M422.5,121.8l-11.5-6.2c0.2,0.1,0.4,0.1,0.6,0.2l11.5,6.2C422.9,121.9,422.7,121.8,422.5,121.8"/>
			<path class="st1" d="M423.1,122l-11.5-6.2l11.3,6.3"/>
			<path class="st2" d="M334.4,210.3l-11.5-6.2c-2.6-1.5-4.8-3.6-6.3-6.3c-1.5-2.6-2.2-5.6-2.1-8.6c0-2.5,0.4-4.9,1.3-7.2l14.8,4.6
				c-0.9,2.3-3.2,7.4-3.2,9.9c-0.1,3-0.8,4.9,0.7,7.6C329.6,206.7,331.7,208.8,334.4,210.3"/>
			<path class="st2" d="M319.8,190l-4-8.1c0.4-1,0.8-2,1.3-3l11.5,6.2c-0.5,1-1,1.9-1.3,3"/>
			<path class="st2" d="M327.7,190.9l-10.6-12c0.4-0.8,3.4-5.1,4.9-6.3l13.5,6.4c-0.5,0.8-5.6,8.4-6,9.2"/>
			<path class="st2" d="M330.1,183l-11.5-6.2c0.5-0.7,1.1-1.4,1.6-2.1l11.5,6.2C331.1,181.5,330.6,182.2,330.1,183"/>
			<path class="st2" d="M318.1,177.6l2.3-3.3c0.6-0.7,1.3-1.3,1.9-1.9l11.5,6.2c-0.7,0.6-1.3,1.3-1.9,1.9"/>
			<path class="st2" d="M333.6,178.8l-11.5-6.2c0.7-0.7,1.5-1.3,2.3-1.8L336,177C335.2,177.5,334.4,178.2,333.6,178.8"/>
			<path class="st2" d="M319.8,177.5l4.7-6.8c1-0.7,2.1-1.3,3.2-1.8l11.5,6.2c-1.1,0.5-2.2,1.1-3.2,1.8"/>
			<path class="st2" d="M333.4,181.1l-5.7-12.2c1.9-0.9,3.9-1.5,5.9-1.8l15.4,6.2c-2,0.3-8,2-9.8,2.9"/>
			<path class="st2" d="M174.8,250"/>
			<path class="st2" d="M365.2,107.8l-11.5-6.2l0.3,0.2l11.5,6.2L365.2,107.8z M365.6,108l-11.5-6.2c0.5,0.3,1.1,0.5,1.7,0.6
				l11.5,6.2C366.7,108.5,366.1,108.2,365.6,108 M367.3,108.6l-11.5-6.3c1.2,0.3,2.5,0.4,3.8,0.2c1.1-0.2,2.2-0.5,3.2-1l11.6,6.3
				c-1,0.5-2,0.8-3.1,1c-1.3,0.2-2.5,0.1-3.8-0.2"/>
			<path class="st2" d="M365.6,114.7l-3.2-13.1c0.6-0.3,3-1.6,4-2.5L384,105C383.4,105.4,366.2,114.5,365.6,114.7z"/>
			<path class="st2" d="M375.9,106.8l-11.5-6.2c0.5-0.3,0.9-0.6,1.3-1l15.1,4.4C380.4,104.3,376.4,106.5,375.9,106.8"/>
			<path class="st2" d="M370.3,112.4l-4.6-12.8l1.1-1.1l19.4-1.5c-0.3,0.4-8.6,8.6-9,8.8"/>
			<path class="st2" d="M378.3,104.8l-11.5-6.2c0.3-0.4,0.7-0.8,1-1.2l11.5,6.2C379,103.9,378.7,104.3,378.3,104.8"/>
			<path class="st2" d="M379.4,104.6l-13-5.5c0.3-0.5,2-2.8,2.3-3.3l12.7,6.3c-0.3,0.5-1.2,1.6-1.5,2"/>
			<path class="st2" d="M380.2,102.1l-13.5-3.4c1.4-1.2,2.6-4,2.8-4.6l11.9,6.1C381.1,100.7,380.5,101.5,380.2,102.1z"/>
			<path class="st2" d="M381,100.3l-13-3.5c1.1-1.8,2.3-5.8,2.3-7.4c0.1-1.5-0.2-3.1-0.9-4.5c-0.6-1.4-1.6-2.7-2.7-3.7
				c-0.6-0.5-0.9-1.2-1.1-1.9c-0.2-0.7-0.1-1.5,0.2-2.2l14.6,4.5c-0.3,0.7-2.7,2.7-2.5,3.5c0.2,0.8,0.4,2,1,2.5
				c1.2,1,1.9,2.1,2.5,3.5c0.6,1.4,1,3,1,4.5c0,1.6,0.1,3.5-0.5,5"/>
			<path class="st2" d="M377.3,83.2l-11.5-6.1l0.3-0.6l11.5,6.2C377.5,82.9,377.4,83.1,377.3,83.2 M377.5,82.6L366,76.4
				c0.1-0.2,0.2-0.3,0.3-0.5l11.5,6.2L377.5,82.6 M377.8,82.1l-11.5-6.2l0.3-0.3l11.5,6.2L377.8,82.1"/>
			<path class="st2" d="M378.1,81.8l-11.4-6.2l0.4-0.4l11.5,6.2L378.1,81.8"/>
			<path class="st2" d="M378.5,81.4L367,75.1l0.4-0.3l11.5,6.2C378.8,81.2,378.6,81.3,378.5,81.4"/>
			<path class="st2" d="M378.9,81.1l-11.5-6.2l0.6-0.3l11.5,6.2C379.3,80.8,379.1,80.9,378.9,81.1"/>
			<path class="st2" d="M378.4,82.1l-10.5-7.5c0.4-0.3,1.1-0.5,1.5-0.5c0.5,0,0.6,0.1,1,0.2l12,6.3c1,1-1.1,0.4-1.5,0.5
				s-0.7-0.2-1,0"/>
			<path class="st2" d="M381.8,80.5l-12.5-6.4c0.5,0,1.4,0.2,1.5,0.3l11.5,6.2C382.2,80.6,382,80.5,381.8,80.5z M382.4,80.7
				l-11.5-6.2L382.4,80.7z M371.1,77.9l-11.5-6.2c0.4-0.1,0.8-0.1,1.2,0l11.5,6.2C371.9,77.8,371.5,77.8,371.1,77.9 M372.3,77.9
				l-11.5-6.2l0.6,0.2l11.5,6.2L372.3,77.9z M372.9,78.1l-11.5-6.2L372.9,78.1"/>
			<path class="st1" d="M406.6,81.9l-11.5-6.2c-0.5-0.2-0.9-0.6-1.2-1c-6.5-10.8-15.7-19.7-26.8-25.8l14.5,4.2
				c11.7,5.4,20.7,14,26.3,25.7C408.2,79.2,409.4,82.2,406.6,81.9z"/>
			<path class="st2" d="M361.4,114.9l-11.5-6.2c-2.6-1.5-4.8-3.7-6.3-6.4s-2.2-5.7-2.1-8.7c0-2.6,0.5-5.1,1.4-7.6l16.3,0.2
				c-0.9,2.4-5.3,10.8-5.4,13.4c-0.1,3-0.2,6.2,1.3,8.9C356.6,111.1,358.8,113.3,361.4,114.9z"/>
			<path class="st2" d="M353.6,94.9L342.9,86c0.4-1,0.8-2,1.4-3l11.5,6.2c-0.5,1-1,2-1.4,3"/>
			<path class="st2" d="M354,101.8l-11.1-15.7c0.5-2,2.3-4.9,2.9-5.6l19.8-1.2c-0.5,0.8-8.8,9.5-9.2,10.3"/>
			<path class="st2" d="M357.4,88.6l-11.6-8.1c0.5-0.7,1.1-1.4,1.6-2.1l15.5,4.2C362.3,83.3,357.9,87.9,357.4,88.6z"/>
			<path class="st2" d="M358.9,84.7l-11.5-6.2c0.6-0.6,1.2-1.3,1.8-1.8l11.5,6.2C360.1,83.4,359.5,84,358.9,84.7"/>
			<path class="st2" d="M360.7,82.8L346,80.1c0.9-1.8,4.6-4.7,5.3-5.2l11.5,6.2C362.1,81.6,361.4,82.2,360.7,82.8"/>
			<path class="st2" d="M358.4,87.1l-7-12.2c0.9-0.6,1.9-1.2,2.9-1.7l11.5,6.2C364.8,79.9,359.3,86.5,358.4,87.1z"/>
			<path class="st2" d="M363.2,81.9l-8.9-8.7c1.7-0.8,3.4-1.3,5.3-1.6l12.1,6.3C369.9,78.1,364.9,81.1,363.2,81.9L363.2,81.9z"/>
			<path class="st4" d="M374.6,81.2c0,1-0.3,2-1,2.8c-0.6,0.8-1.5,1.3-2.5,1.5c-3.1,0.6-5.8,2.3-7.8,4.7c-2,2.4-3.1,5.4-3.1,8.5
				c-0.1,1.4,0.1,2.8,0.6,4.2c0.5,1.3,1.3,2.5,2.4,3.5c1,1,2.3,1.7,3.7,2.1s2.8,0.6,4.2,0.4c3.1-0.6,5.8-2.2,7.8-4.6
				s3.1-5.4,3.1-8.5c0.1-1.6-0.2-3.1-0.9-4.5c-0.6-1.4-1.6-2.7-2.8-3.7c-0.7-0.7-1.1-1.6-1.1-2.6c-0.1-1,0.2-1.9,0.8-2.7
				c0.3-0.4,0.7-0.8,1.2-1.1c0.5-0.3,1-0.5,1.5-0.5c0.4-0.1,0.8,0,1.2,0.1s0.8,0.3,1.1,0.5c2,1.7,3.5,3.8,4.6,6.1
				c1,2.3,1.6,4.9,1.5,7.5c0,10.7-8.1,20.4-17.9,21.8c-9.9,1.4-17.9-6.1-17.8-16.7c0-10.6,8.1-20.4,17.9-21.8c0.5-0.1,0.9,0,1.3,0.1
				s0.8,0.4,1.2,0.7c0.4,0.3,0.6,0.7,0.8,1.1C374.5,80.3,374.6,80.7,374.6,81.2z"/>
			<path class="st1" d="M308,236.8l-11.5-6.2c-0.8-0.4-1.6-1-2.3-1.6c-1.5-1.7-2.2-3.9-2.1-6.2c0-1.9,0-4.2,0.3-6.5
				c0.6-5.7,0.5-11.4-0.3-17.1c-1-6.2-4-11.9-8.7-16.2c-1.9-1.7-4.1-3.2-6.4-4.4l11.7,5.4c2.3,1.2,4.1,3.6,6.1,5.3
				c4.7,4.3,7.8,10,8.8,16.3c4.2,6.9,3.4,11.3,2.8,17c-0.2,2.1-2.8,4.4-2.8,6.5c0.3,1.6,0.3,3.9,1.8,5.6
				C306.1,235.2,307.1,236.3,308,236.8 M317.4,109l-11.5-6.2c-0.5-0.3-1-0.8-1.2-1.3c-0.2-0.5-0.4-1.1-0.4-1.7c0-0.5,0.1-1,0.3-1.5
				l11.5,6.2c-0.2,0.5-0.3,1-0.3,1.5c0,0.6,0.1,1.2,0.4,1.7S316.9,108.6,317.4,109z"/>
			<path class="st1" d="M316,104.4l-11.5-6.2l0.3-0.6l11.4,6.2l-0.3,0.6"/>
			<path class="st1" d="M316.2,103.8l-11.5-6.2l0.3-0.5l11.5,6.2C316.4,103.5,316.3,103.6,316.2,103.8z M316.6,103.3l-11.5-6.2
				c0.1-0.1,0.2-0.3,0.3-0.4l11.5,6.2L316.6,103.3"/>
			<path class="st1" d="M316.9,102.9l-11.5-6.2l0.4-0.4l11.5,6.2L316.9,102.9"/>
			<path class="st1" d="M317.3,102.6l-11.5-6.2l0.4-0.4l11.5,6.3L317.3,102.6"/>
			<path class="st1" d="M317.7,102.3L306.1,96l0.6-0.3l11.5,6.2l-0.6,0.3"/>
			<path class="st1" d="M311.3,105.1l-4.5-9.5c0.3-0.2,0.7-0.3,1.1-0.3c1.1-0.1,2.2-0.5,3.2-1l17.2,5.4c-1,0.5-5.7,4.2-6.8,4.4
				c-0.4,0.1-4.5,3.5-4.8,3.6"/>
			<path class="st1" d="M322.5,100.6L311,94.3c0.6-0.3,1.2-0.6,1.8-1l11.5,6.2C323.7,100,323.1,100.3,322.5,100.6"/>
			<path class="st1" d="M324.3,99.6l-11.5-6.2c0.5-0.3,0.9-0.7,1.3-1l11.5,6.2C325.2,98.9,324.7,99.3,324.3,99.6"/>
			<path class="st1" d="M318.3,105l-5.9-11.4c2.5-1.5,4.5-4.5,4.9-5.5l15.9,0.9c-0.3,0.4-7.2,9.1-7.6,9.4"/>
			<path class="st1" d="M326.7,97.4l-11.5-6.2c0.4-0.4,0.7-0.8,1-1.2l11.5,6.2C327.4,96.6,327,97.1,326.7,97.4"/>
			<path class="st1" d="M323.9,101.6L316.2,90c0.3-0.5,0.6-0.9,0.9-1.4l11.4,6.2c-0.3,0.5-0.5,1-0.9,1.4"/>
			<path class="st1" d="M326.9,100.6L317,88.5c0.3-0.6,0.6-1.2,0.8-1.8l13.5,5.9C331.1,93.2,327.2,100,326.9,100.6L326.9,100.6z"/>
			<path class="st1" d="M329.4,93l-11.5-6.2c0.6-1.5,0.9-3,0.9-4.6c0.1-1.8-0.4-3.6-1.3-5.2c-0.9-1.6-2.2-2.9-3.8-3.8l12.8,3.1
				c1.6,0.9,2.5,4.8,3.3,6.4c0.9,1.6,0.4,4,0.4,5.8C330.2,89.9,330,91.5,329.4,93 M259.7,173.2l-1.8-8.7c3.4,0.5,6.8,1.1,10.1,1.9
				l11.5,6.3c-3.3-0.8-9.6,2.9-13,2.4"/>
			<path class="st1" d="M279.4,172.8l-15.1-7.2c4.5,0.5,11.2,3.3,14.8,5l11.5,6.2C287.1,175.1,283.3,173.7,279.4,172.8z"/>
			<path class="st1" d="M289.9,176.6l-13-7c0.6,0.3,3.5,1.5,4,1.8l11.5,6.2C291.8,177.3,290.5,176.9,289.9,176.6z M319.9,71.1
				l-14-6.4c3-1.1,6.2-0.5,8.3,0l12.2,6.4C324.3,70.6,321.9,70.8,319.9,71.1z"/>
			<path class="st1" d="M325.7,70.9l-11.5-6.2c1,0.2,1.9,0.6,2.8,1.1l11.5,6.3c-0.9-0.5-1.8-0.8-2.8-1.1 M328.5,72.1L317,65.7
				l0.6,0.3l11.5,6.2l-0.6-0.3 M328.4,42.1l-5.8-8.8c10.5-1.5,21.2-1,31.5,1.6l14.5,6.7c-10.3-2.6-24.2-0.5-34.7,1"/>
			<path class="st1" d="M365.5,41.1l-11.4-6.2c4.9,1.3,9.7,3.1,14.3,5.3l11.5,6.2c-4.6-2.2-9.4-4-14.3-5.3"/>
			<path class="st1" d="M379.8,46.4l-11.5-6.2c0.9,0.5,1.8,0.9,2.7,1.4l11.5,6.2L379.8,46.4z M262.3,168l-11.5-6.2l1.1,0.6l11.5,6.2
				L262.3,168"/>
			<path class="st1" d="M263.4,168.6l-11.5-6.2c1.7,0.8,3.5,1.5,5.4,2l11.5,6.2C266.9,170.1,265.1,169.4,263.4,168.6"/>
			<path class="st1" d="M268.8,170.6l-11.5-6.2l0.6,0.2l11.5,6.2L268.8,170.6"/>
			<path class="st2" d="M276.1,141.5l-11.5-6.2l0.4,0.2l11.5,6.2L276.1,141.5z"/>
			<path class="st2" d="M276.5,141.7l-11.5-6.3c0.6,0.3,1.2,0.5,1.8,0.7l12.6,6.5c-0.6-0.2-2.4,0.8-3,0.5"/>
			<path class="st2" d="M277.4,144.1l-10.5-8c1.3,0.3,2.6,0.4,4,0.2c0.4-0.1,0.9-0.1,1.3,0l11.3,6.3c-0.4-0.1-0.6,0.9-1,1
				C281.1,143.8,278.6,144.4,277.4,144.1z"/>
			<path class="st2" d="M282.9,142.8l-10.9-6.5l0.6,0.2l11.5,6.2C284.7,143.2,284.1,143.1,282.9,142.8z"/>
			<path class="st2" d="M284.2,142.8l-11.5-6.2L284.2,142.8H284H284.2z M293,141.1l-11.5-6.1c-0.8-0.5-1.5-1.3-1.7-2.2
				c-0.3-0.9-0.2-1.9,0.2-2.8l13.9,2.7c-0.4,0.8-2.9,5.3-2.6,6.2C291.6,139.8,292.2,140.5,293,141.1"/>
			<path class="st2" d="M291.5,136.3L280,130c0-0.1,0.3-0.9,0.8-1.4l11,7L291.5,136.3"/>
			<path class="st2" d="M291.8,135.6l-11.5-6.2c0.2-0.4,0.3-0.6,0.6-0.8l12.5,6L291.8,135.6z"/>
			<path class="st2" d="M292,135.4l-11.5-6.2c0.4-0.6,0.7-1.3,0.9-2l13.9,2C295,129.8,292.3,134.7,292,135.4"/>
			<path class="st2" d="M292.9,133.4l-11.5-6.2c0.6-1.5,0.9-3.2,0.9-4.8c0.1-1.9-0.4-3.9-1.3-5.6s-2.3-3.1-4-4.1l13,5.4
				c1.7,1,2.6,2.8,3.5,4.5s1.1,4.6,1,6.5c0,1.6-0.4,3-1,4.5"/>
			<path class="st1" d="M306.7,105.2L295.2,99c-0.3-0.1-0.6-0.4-0.8-0.6c-3-3.3-4.6-7.7-4.5-12.2c0-2.6,0.5-5.1,1.4-7.6l11.5,6.2
				c-0.9,2.4-1.4,5-1.4,7.6c-0.1,4.5,1.5,8.8,4.5,12.2C306.1,104.9,306.4,105.1,306.7,105.2"/>
			<path class="st1" d="M303.6,98l-12.3-19.3c0.4-1,0.9-2.1,1.4-3.1l19.9,1.2c-0.6,1-9.4,7.8-9.7,8.8"/>
			<path class="st1" d="M303.2,86.9l-10.5-11.3c0.4-0.8,0.9-1.6,1.5-2.4l16.9,1.7C310.5,75.7,303.6,86.1,303.2,86.9z"/>
			<path class="st1" d="M305.9,79.6l-11.7-6.4c0.5-0.7,1-1.4,1.6-2.1l11.6,6.4C306.8,78.3,306.4,78.9,305.9,79.6z"/>
			<path class="st1" d="M294.8,77.4l0.9-6.3c0.6-0.6,1.2-1.3,1.8-1.8l18.2,4.9C309.8,84.3,295.4,76.8,294.8,77.4z"/>
			<path class="st1" d="M309.1,75.6l-11.5-6.2c0.7-0.6,1.4-1.2,2.2-1.7l12.1,6.5c-0.8,0.5-1.3,1.4-2,2"/>
			<path class="st1" d="M311.2,73.9l-11.4-6.2c0.9-0.6,1.8-1.2,2.8-1.7l12.3,6.2c-1,0.5-2.6,1.4-3.5,2"/>
			<path class="st1" d="M302.9,89l-7.5-17.2c3.4-5.6,10.7-7.4,12.5-7.6l11.9,6.3C318.1,70.9,304.6,88.3,302.9,89L302.9,89z"/>
			<path class="st3" d="M315.9,105.9c0-1,0.4-2,1-2.8s1.5-1.3,2.5-1.5c3.1-0.6,5.8-2.3,7.8-4.7c2-2.4,3.1-5.4,3.1-8.6
				c0.1-1.4-0.1-2.8-0.6-4.2c-0.5-1.3-1.3-2.5-2.4-3.5c-1-1-2.3-1.7-3.6-2.1c-1.4-0.4-2.8-0.6-4.2-0.4c-3.1,0.6-5.8,2.3-7.8,4.7
				c-2,2.4-3.1,5.4-3.1,8.5c-0.1,2.7,0.9,5.4,2.7,7.4c0.6,0.8,0.9,1.7,0.9,2.7c-0.1,1-0.5,1.9-1.2,2.6c-0.6,0.7-1.5,1.2-2.5,1.3
				c-0.5,0.1-1,0-1.4-0.1c-0.4-0.2-0.9-0.4-1.2-0.8c-3-3.3-4.6-7.7-4.5-12.1c0.1-10.6,8.1-20.3,18-21.7c9.9-1.4,17.9,6.1,17.8,16.7
				c0,10.6-8,20.4-17.9,21.8c-0.5,0.1-0.9,0-1.4-0.1c-0.4-0.1-0.8-0.4-1.2-0.7c-0.3-0.3-0.6-0.7-0.8-1.1
				C315.9,106.8,315.8,106.4,315.9,105.9L315.9,105.9z"/>
			<path class="st2" d="M282.3,109.6l-11.5-6.2c2.2-0.3,4.4-0.2,6.6,0.4l13,6.9C288.2,110.1,284.5,109.3,282.3,109.6"/>
			<path class="st2" d="M288.9,110l-11.5-6.2c1,0.3,2,0.6,3,1.1l11.5,6.2C291,110.6,289.9,110.2,288.9,110"/>
			<path class="st2" d="M291.9,111.1l-11.5-6.3l0.6,0.3l11.5,6.2L291.9,111.1 M272,149l-11.5-6.2c-2.8-1.6-5.1-4-6.7-6.8
				s-2.3-6-2.2-9.3c0-2.8,0.5-5.5,1.5-8.1l11.5,6.2c-0.9,2.6-1.4,5.3-1.4,8.1c-0.1,3.2,0.6,6.4,2.2,9.3C267,145,269.3,147.4,272,149
				"/>
			<path class="st2" d="M264.4,129.1l-11.3-10.6c0.4-1.1,0.9-2.2,1.4-3.2l15.8,2.3c-0.6,1-3.6,6.9-4,8"/>
			<path class="st2" d="M266.1,121.6l-11.5-6.2c0.5-0.9,1-1.7,1.6-2.5l11.5,6.2C267.1,119.9,266.5,120.7,266.1,121.6z"/>
			<path class="st2" d="M266.1,123.1l-10-10.2c0.5-0.8,1.1-1.5,1.7-2.2l17.4,2.8c-0.6,0.7-7,4.9-7.6,5.6"/>
			<path class="st2" d="M259.4,125.6l-1.5-14.9c0.6-0.7,1.3-1.3,1.9-2l15.6,4.4c-0.7,0.6-3.4,4.8-4,5.5"/>
			<path class="st2" d="M271.3,114.9l-11.5-6.2c0.7-0.6,1.5-1.3,2.3-1.8l12.2-3.3C273.5,104.1,272,114.2,271.3,114.9"/>
			<path class="st2" d="M273.6,113.1l-11.5-6.2c1-0.7,2-1.3,3.1-1.8l11.5,6.2C275.6,111.8,274.6,112.4,273.6,113.1"/>
			<path class="st2" d="M273.8,118.1l-8.6-13c1.8-0.8,3.6-1.4,5.6-1.7l19.6,7.3c-1.9,0.3-11.1,5.6-12.9,6.4"/>
			<path class="st4" d="M298.2,139.1c-0.3,0.6-0.8,1.1-1.3,1.5s-1.2,0.6-1.8,0.8c-0.7,0.1-1.4,0-2-0.3c-0.9-0.6-1.5-1.5-1.7-2.5
				s0-2.1,0.6-2.9c1.2-2.1,1.9-4.5,1.9-7c0.1-1.5-0.1-3-0.7-4.4c-0.5-1.4-1.4-2.7-2.5-3.7c-1.1-1-2.4-1.8-3.9-2.3
				c-1.4-0.5-3-0.6-4.5-0.4c-3.3,0.6-6.2,2.4-8.3,4.9c-2.1,2.6-3.3,5.8-3.3,9.1c-0.1,1.5,0.1,3,0.7,4.5c0.6,1.4,1.4,2.7,2.5,3.7
				s2.4,1.8,3.9,2.3s3,0.6,4.5,0.4c0.5-0.1,1,0,1.4,0.1c0.5,0.1,0.9,0.4,1.2,0.7c0.4,0.3,0.6,0.7,0.8,1.2c0.2,0.5,0.2,0.9,0.2,1.4
				c0,1.1-0.4,2.1-1.1,2.9c-0.7,0.8-1.6,1.4-2.7,1.6c-10.5,1.4-19-6.5-19-17.8s8.5-21.7,19.1-23.2c10.5-1.5,18.9,6.5,18.9,17.8
				C301.2,131.6,300.2,135.6,298.2,139.1z"/>
			<path class="st1" d="M259.6,175.5l-12.8-6.6c-2.2-1.2-4.2-2.6-6.1-4.2c-2.9-2.5-5.3-5.6-6.9-9c-1.6-3.5-2.4-7.3-2.4-11.1
				c0.1-13.3,2.5-26.4,7.1-38.9l11.7,5.9c-4.6,12.4-6.8,21.8-6.9,35c0,3.8,1.4,13,3,16.5c1,2.5,3.6,5.2,6.5,7.7
				C253.5,171.3,257.1,174,259.6,175.5L259.6,175.5z"/>
			<path class="st1" d="M246.4,125.1l-7.9-19.5c2-5.3,4.4-10.4,7.1-15.4l14.7,1.4c-2.7,4.9-8.2,14.9-10.1,20.2"/>
			<path class="st1" d="M256.9,96.6l-11.3-6.4c2.2-4.2,4.7-8.2,7.3-12.1l16.7,1.9C266.8,83.8,259.2,92.4,256.9,96.6z"/>
			<path class="st1" d="M264.4,84.5l-11.5-6.3c2.5-3.6,5.3-7.1,8.2-10.4l18.3-0.9C276.4,70.1,266.9,80.8,264.4,84.5z"/>
			<path class="st1" d="M272.6,74.1l-11.5-6.3c2.9-3.3,6-6.4,9.3-9.4l11,6.7C280.4,66.1,275.5,70.8,272.6,74.1z"/>
			<path class="st1" d="M281.4,65.1l-14-4c3.5-3.5,11.6-9.9,15.5-12.4l10.5,7C289.5,58.3,284.9,62.1,281.4,65.1z"/>
			<path class="st1" d="M293.4,55.6l-12-5.9c4.6-3.2,9.6-6.1,14.7-8.5l11.3,6.4C302.2,50,297.9,52.6,293.4,55.6z"/>
			<path class="st1" d="M306.4,48.1L296,41.2c8.4-4,17.3-6.6,26.5-7.9l11.5,6.2c-9.2,1.3-18.3,4.1-26.6,8.1 M236.6,223.1l-11.6-6.2
				l1.5-1.8l10.6,7.4L236.6,223.1L236.6,223.1z"/>
			<path class="st1" d="M237.4,223.1l-11.7-7c1.4-1.5,2.6-3.1,3.8-4.8l19.2-4.4C247.5,208.7,238.7,221.6,237.4,223.1z"/>
			<path class="st1" d="M240.9,217.6l-11.5-6.2c0.7-1,1.4-2,1.9-3.1l11.6,6.2C242.3,215.6,241.6,216.6,240.9,217.6 M242.9,214.5
				l-11.5-6.2L242.9,214.5z M237.5,228.7l-11.5-6.3l-0.2-0.2c-0.7-0.4-1.3-1.1-1.5-2s-0.2-1.7,0.2-2.4L236,224
				c-0.4,0.8,0.1,1.7,0.3,2.5s1.5,2,1.9,2.1C238.2,228.8,238.3,228.9,237.5,228.7L237.5,228.7z"/>
			<path class="st1" d="M236.4,227.6l-11.9-9.8c0.3-0.8,0.3-0.6,0.4-0.8l16.1,0.5C240.9,217.8,236.6,227.3,236.4,227.6z"/>
			<path class="st1" d="M236.4,223.3l-11.5-6.2c0,0,0.1-0.2,0.2-0.3l11.5,6.3c0,0.1-0.1,0.2-0.2,0.3 M243.4,216.1l-12-7.8l0.4-0.7
				l14.6,6.5c-0.2,0.4-2.5,1.9-2.5,2"/>
			<path class="st1" d="M243.3,213.8l-11.5-6.2c0.4-0.9,0.8-1.8,1.1-2.8l12.9,6.3c-0.3,1-1,3.1-1.5,4"/>
			<path class="st1" d="M231.3,216.6l1.6-11.7c0.4-1,0.8-2.3,1.2-3.9c0.8-3.5,0.2-9.3-0.8-12.8l14.6,2.7c1,3.5,0.2,13.3-0.6,16.8
				c-0.3,1.3,0,3.2-0.5,4.5"/>
			<path class="st1" d="M245.5,196.4l-11.5-6.2c-0.5-2.3-1.7-4.3-3.4-5.8c-0.7-0.6-1.4-1.1-2.2-1.5l12.3,4.1c0.8,0.4,2.3,2.7,3,3.3
				C245.5,191.8,245.1,194.2,245.5,196.4 M205.4,238.6l-11-7.1c5.7-0.9,11.3-2.6,16.6-5l11.5,6.2c-5.3,2.4-10.9,4.9-16.6,5.8"/>
			<path class="st1" d="M222.5,234l-11.5-7.5l3-1.5c0.1,0,0.4-0.3,0.9-0.3l12.5,6l-0.5,1c-1,0.5-2.5,1.5-3.5,2"/>
			<path class="st1" d="M225.7,231.1l-11.5-6.2c0.3-0.2,0.7-0.3,1.1-0.4c0.5-0.1,0.9-0.1,1.4,0l12.2,6.6c-0.4-0.1-1.6-0.1-2,0
				c-0.4,0.1-0.7-0.2-1,0"/>
			<path class="st1" d="M228.2,230.8l-11.5-6.2l0.6,0.2l11.5,6.2C228.6,230.9,228.4,230.8,228.2,230.8z"/>
			<path class="st1" d="M229.4,231.6l-12.1-6.8l11.5,6.2 M232.5,179.4l-11.5-6.3c2,0,4,0.3,6,0.9l11.5,6.3
				C236.5,179.8,234.5,179.5,232.5,179.4"/>
			<path class="st1" d="M238.5,180.3l-11.5-6.2c1.4,0.4,2.8,0.9,4.2,1.5l0.8,0.4l11.5,6.2l-0.8-0.4
				C241.3,181.2,239.9,180.7,238.5,180.3 M243.4,182.1l-11.5-6.2l0.8,0.4l11.5,6.2L243.4,182.1z M226.9,179.8l-11.5-6.2l5.6-0.5
				l11.5,6.3L226.9,179.8z"/>
			<path class="st2" d="M236.3,178.2l-12.4-6.7v-18l12.5,5.4L236.3,178.2z"/>
			<path class="st1" d="M188.1,245.9l-11.5-6.2c-0.6-0.4-1.1-0.9-1.4-1.5s-0.4-1.3-0.3-2c0-0.4,0.3-1.5,1.3-2.7l11.2,7.6
				c-0.1,0.3,0,1.1,0,1.5c-0.1,0.7-0.8,0.9-0.5,1.5c0.3,0.6,1.4,1.6,2,2"/>
			<path class="st1" d="M186.7,241.4l-11.5-6.2l0.3-0.6l11.5,6.2C186.8,240.9,186.7,241.1,186.7,241.4 M186.9,240.7l-11.5-6.2
				c0.1-0.2,0.2-0.3,0.3-0.5l11.5,6.2C187.1,240.4,187,240.6,186.9,240.7"/>
			<path class="st1" d="M187.9,241.1l-12.2-7.1l0.4-0.4l12.8,6l-1.7,0.7"/>
			<path class="st1" d="M187.5,239.9l-11.4-6.2c0.1-0.2,0.2-0.3,0.4-0.4l11.5,6.3L187.5,239.9L187.5,239.9z M187.9,239.5l-11.5-6.3
				c0.1-0.1,0.3-0.3,0.5-0.4l12,6.3c-0.2,0.1-0.4,0.4-0.5,0.5"/>
			<path class="st1" d="M188.4,239.1l-11.5-6.3c0.2-0.1,0.3-0.2,0.5-0.3l11.6,6.2C188.8,238.9,188.6,239,188.4,239.1L188.4,239.1z"
				/>
			<path class="st1" d="M175.4,235l2-2.5c0.4-0.2,0.7-0.3,1.1-0.4c1.9-0.2,3.7-0.7,5.5-1.5l18.2,4.4c-1.7,0.8-10.5,3.4-12.4,3.6
				c-0.4,0.1-3.9,4-4.3,4.2"/>
			<path class="st1" d="M179.1,232.7l4.9-2.1c0.7-0.3,1.4-0.8,2.1-1.2l16.1,2.5c-0.7,0.5-7.6,8.9-8.3,9.3"/>
			<path class="st1" d="M197.6,235.7l-11.5-6.3c0.5-0.3,0.9-0.7,1.4-1.1l12.4,6.3C199.4,235,198.1,235.3,197.6,235.7"/>
			<path class="st1" d="M192.4,243.8l-4.9-15.4c0.4-0.4,4.6-4.7,5.5-9.4c0.7-4,15.9,3.4,15.9,3.4c-0.3,0.3-9.5,11.8-9.8,12.2"/>
			<path class="st1" d="M200.1,233.4l-11.4-6.2c0.4-0.4,0.7-0.9,1-1.3l11.5,6.2C200.9,232.6,200.6,233,200.1,233.4"/>
			<path class="st1" d="M201.2,232.1l-11.5-6.2l0.6-0.8l0.5-0.8l11.5,6.2l-0.5,0.8C201.6,231.5,201.4,231.8,201.2,232.1"/>
			<path class="st1" d="M199.6,238.3l-8.8-14.1c0.4-0.8,0.8-1.7,1.1-2.5l11.5,6.2c-0.3,0.9-0.7,1.7-1.1,2.5"/>
			<path class="st1" d="M197.9,240.3l-6.1-18.5c0.9-2.7,1.4-5.4,1.4-8.3c-0.1-6,0.2-12,0.9-17.9c0.3-3,1-6,2-8.9l11.5,6.2
				c-1,2.9-1.7,5.9-2,8.9c-0.6,5.9-0.9,11.9-0.9,17.9c0.1,2.8-0.4,5.6-1.4,8.3"/>
			<path class="st1" d="M204.8,196.8l-8.7-10.1c0.4-1,0.9-2,1.4-2.9l14.7,0.2C211.8,184.8,209.9,199.7,204.8,196.8z"/>
			<path class="st1" d="M196.2,187l1.4-3.4c0.4-0.6,0.7-1.2,1.1-1.7l5.6-1.9c-0.4,0.6,5.2,9.3,4.8,9.9v0.2"/>
			<path class="st1" d="M210.2,188.1l-11.6-6.2l1.2-1.5l11.5,6.2C210.9,187.1,210.5,187.6,210.2,188.1"/>
			<path class="st1" d="M211.3,186.6l-12.5-5c0.5-1,1.5-2,3-3l10.9,6.8c-0.5,0.4-0.9,0.9-1.3,1.3"/>
			<path class="st1" d="M212.4,185.6l-11.5-6.2c0.2-0.2,0.5-0.4,0.8-0.7l1.2-1.1l11.1,6.7l-0.9,0.6
				C212.9,185.2,212.6,185.4,212.4,185.6z"/>
			<path class="st1" d="M214.3,184l-11.5-6.2c0.8-0.6,1.6-1.1,2.5-1.5l11.5,6.2C215.9,183,215.1,183.5,214.3,184 M216.9,182.5
				l-11.5-6.2c3.2-1.3,6.6-2.2,10.1-2.5L227,180C223.5,180.3,220.1,181.1,216.9,182.5"/>
			<path class="st2" d="M220.7,177.6l-11.5-6.2l16.1-2.5l12.1,6.6L220.7,177.6L220.7,177.6z"/>
			<path class="st3" d="M213.5,218.6c0,0-0.2-15.2,2.6-22.3c4-10.1,28.9-15.2,30,3.1c0.3,5.3,0.2,5.2-0.5,7.5
				c-3.3,11-9,14.4-10,17.4c-1.9,5.2,3.8,4.6,3.8,4.6c1.6-0.5,3-1.5,3.9-2.9c3.3-3.9,6-8.2,8-12.9c2.8-6.6,3.2-14,1-20.8
				c-0.8-2.3-2-4.5-3.7-6.3s-3.7-3.2-6-4.1c-3.2-1.4-6.6-2.2-10.1-2.3l-5.5,0.5V180v0.1c-4.9,0.3-9.5,2-13.6,4.7
				c-1.8,1.4-3.3,3.2-4.4,5.2c-1.9,3.8-3,7.8-3.4,12c-0.6,5.9-0.9,11.9-0.9,17.9c0,4.1-1,8.1-3,11.6c-1.3,2-3,3.7-5,5
				c-2,1.2-4.3,2-6.7,2.2c-0.9,0.2-1.8,0.7-2.4,1.4s-1,1.6-1.1,2.5c-0.1,0.4-0.1,0.9,0,1.3c0.1,0.4,0.3,0.8,0.6,1.2
				c0.3,0.3,0.6,0.6,1,0.9c0.4,0.2,0.8,0.4,1.2,0.4c5,0.4,10.1,0.3,15.1-0.5c8.3-1.1,16.3-3.6,23.7-7.5c0.9-0.5,1.6-1.3,2-2.3
				s0.4-2,0.1-3c-0.2-0.7-0.7-1.2-1.3-1.6c-0.6-0.4-1.3-0.5-2.1-0.4c-0.4,0.1-0.9,0.2-1.3,0.4c0,0-19.5,8.4-20.7,7
				C203.9,237.3,211.9,235.5,213.5,218.6L213.5,218.6z"/>
			<path class="st2" d="M220.8,154.9l-11.5-6.2l14.6-2l12.5,6.1L220.8,154.9L220.8,154.9z"/>
			<path class="st2" d="M239.5,156.9l-15.6-8.9l0.1-95.1l11.7,6.6L239.5,156.9z M213.6,184.6l-11.7-6.2l0.2-100.9l11.5,6.2V184.6z"
				/>
			<path class="st2" d="M213,84.7l-10.9-7.2c0-0.5,0.1-1.1,0.3-1.6l11.5,6.3c-0.2,0.5,0.4,1.5,0.4,2 M213.9,82.1l-11.5-6.2l0.3-0.6
				l11.5,6.2C214.2,81.7,214,81.9,213.9,82.1z"/>
			<path class="st2" d="M211.8,86.1l-9.5-9.8c0.3-1.1,0.9-1.9,1.4-2.4l10.7,7.1l-0.9,6.1"/>
			<path class="st2" d="M214.5,81L203,74.8l0.3-0.4l11.5,6.2L214.5,81z"/>
			<path class="st2" d="M214.8,80.6l-11.5-6.2c0,0,0.8-1.1,2.1-1.2c3-0.4,9.8,7.1,9.8,7.1L214.8,80.6"/>
			<path class="st2" d="M215.3,80.2L203.8,74l0.5-0.4l11.5,6.2C215.6,80,215.4,80.1,215.3,80.2z"/>
			<path class="st2" d="M213.9,83.8l-9.7-10.2l0.6-0.3l14.1,7c-0.2,0.1-3.6,2.7-3.7,2.9"/>
			<path class="st2" d="M216.2,79.6l-11.5-6.2c0.3-0.2,0.7-0.3,1.1-0.3c0.4-0.1,0.8-0.1,1.2,0l12.5,7.3c-0.4-0.1-1.4,1.4-1.8,1.5
				C217.3,81.9,216.5,79.5,216.2,79.6z"/>
			<path class="st2" d="M213.4,80.7L207,73c0.2,0.1,0.4,0.1,0.6,0.2l11.5,6.4c-0.2-0.1-2.4,1.1-2.6,1.1"/>
			<path class="st2" d="M220.1,81.2l-12.4-7.9l11.4,6.4c0,0,0.9,1.1,1,1.2V81.2z M239.6,67l-15.7-12.4c0.4-11.4-0.7-22.9-3.1-34.1
				c-0.6-2.6-1.6-5.1-3.1-7.3c-0.3-0.4-0.6-0.8-1.1-1.1l11.5,6.2c0.4,0.3,0.8,0.6,1.1,1.1c1.4,2.3,2.4,4.7,3.1,7.3
				c2.4,11.2,8.2,18.5,7.8,30"/>
			<path class="st2" d="M215.7,66.9l-11.9-6.2c-0.5-0.3-1-0.8-1.3-1.3c-0.3-0.5-0.4-1.2-0.4-1.8c-0.2-12.5,1-25,3.6-37.2
				c0.5-2,1.1-3.9,1.7-5.6l16.9,0.8c-0.6,1.7-3,11.8-3.5,13.9c-2.7,12.2-7.4,21.9-7.1,34.4c0,0.6,0.3,1,0.6,1.6
				c0.3,0.5,0.7,0.2,1.2,0.5"/>
			<path class="st2" d="M218.1,26.7l-10.6-11.8c0.5-1.4,1.1-2.8,1.9-4.2l11.5,6.2c-0.7,1.3-1.3,2.7-1.8,4.2"/>
			<path class="st2" d="M220.8,16.9l-11.5-6.2c0.2-0.3,0.3-0.6,0.5-0.9c0.2-0.3,0.5-0.8,0.8-1.2l11.5,6.2c-0.3,0.4-0.6,0.8-0.8,1.2
				S221,16.6,220.8,16.9 M222.1,14.8l-11.5-6.2c0.3-0.5,0.7-0.9,1.1-1.4l11.5,6.2C222.8,13.9,222.5,14.4,222.1,14.8"/>
			<path class="st2" d="M223.2,13.5l-11.5-6.3c0.3-0.4,0.7-0.7,1-1l11.5,6.2C223.9,12.8,223.6,13.1,223.2,13.5"/>
			<path class="st2" d="M224.2,12.5l-11.5-6.3c0.3-0.3,0.6-0.6,1-0.8l11.5,6.2C224.8,11.9,224.5,12.2,224.2,12.5"/>
			<path class="st2" d="M225.2,11.7l-11.5-6.3c0.3-0.2,0.7-0.4,1.2-0.6l11.5,6.2C226,11.2,225.6,11.4,225.2,11.7"/>
			<path class="st2" d="M209.4,10.7c0.9-3.1,5.5-5.9,5.5-5.9c0.6-0.3,1.3-0.5,2-0.7c0.7-0.1,1.6-0.1,2.3,0.1l11.5,6.2
				c-0.8-0.1-1.6-0.1-2.4,0c-0.7,0.1-6.3,6.6-7,6.9"/>
			<path class="st2" d="M230.7,10.5l-11.5-6.2c0.4,0.1,0.8,0.2,1.2,0.4l11.5,6.3C231.6,10.8,231.1,10.6,230.7,10.5"/>
			<path class="st2" d="M231.9,11l-11.5-6.3h0.3l11.5,6.3H231.9z"/>
			<path class="st3" d="M244.8,160.9C231.6,96.6,297.7,18.1,373.5,42.8c14.5,4.7,30.3,20,38.1,33c0.5,0.9,0.6,1.9,0.4,2.9
				s-0.8,1.9-1.6,2.5c-0.5,0.4-1.2,0.7-1.8,0.8c-0.6,0.1-1.2,0-1.7-0.2s-1-0.6-1.3-1.2C398.4,68.5,387.7,58.9,375,53
				c-12.7-6-27-8-40.9-5.8c-46.3,6.5-83.9,52.4-84,102.4c0,2.9,0.6,5.7,1.8,8.2c1.2,2.6,3,4.9,5.2,6.7c3.5,3,7.7,5.1,12.2,6.3
				c14.3,2,24.1,6.3,30.5,12.1c5.8,5.3,9.6,12.4,10.8,20.1c0.9,6.2,1.1,12.5,0.4,18.7c0,0.4-0.1,0.8-0.1,1.2
				c-0.1,2.1-0.2,3.6-0.2,4.9c0,0.4,0.1,0.9,0.2,1.3c0.9,0.7,2,1.2,3.1,1.5c0,0,14.4,6.6,36.1-2.4s35-22.8,43.9-33.7
				c8.8-10.9,20.7-35.8,22-50.7s2-14.4,1.7-17.5c-0.5-6,6.7-5.8,6.9-2.4s-0.9,27.4-6.5,39.4s-13.2,34.3-32.9,51.1
				s-36.6,23.9-50.2,25.5c-13.6,1.5-29.7,0-31.2-8.4s5.3-18.4-4.8-37.3c0,0-9-12.6-24.7-14.4S248.1,169,244.8,160.9"/>
			<path class="st4" d="M228.2,10c5.6-1.7,10.6,9.3,12.1,17.7c1.5,8.6,2.7,7.9,2.4,54.4c-0.3,46.5,0,99.6,0,99.6
				c-3.2-1.4-6.7-1.9-10.2-2.1l-2.8,0.2l-2.8,0.2c-4.8,0.4-9.4,2-13.4,4.7L213.7,84c0-1,0.3-2,1-2.8s1.6-1.3,2.6-1.5
				c0.5-0.1,0.9,0,1.4,0.1c0.4,0.1,0.8,0.4,1.2,0.7c0.3,0.3,0.6,0.7,0.8,1.1s0.2,0.9,0.2,1.4v71.3h0.1l14.5-2h0.1V61.2
				c0.4-11.5-0.7-22.9-3.1-34.1c-0.6-2.6-1.6-5.1-3-7.3c-0.3-0.4-0.7-0.8-1.1-1.1h-0.1l-0.1,0.1c-2.8-0.3-5,14.3-5.3,14.9
				c0,0-2.3,21.1-2.2,29.3c0.1,4.5-7.7,6-7.1-0.4c0,0,0.1-24.5,4.7-41.2C220.3,13.3,225.4,10.9,228.2,10z M235.5,175.7l0.1-15.9
				v-0.1h-0.1l-14.6,2.1h-0.1v16h0.1L235.5,175.7z"/>
		</g>
	</g>
</g>
<path class="st4" d="M359.2,199.5c-0.3,0.6-0.8,1.1-1.3,1.5s-1.2,0.6-1.8,0.8c-0.7,0.1-1.4,0-2-0.3c-0.9-0.6-1.5-1.5-1.7-2.5
	s0-2.1,0.6-2.9c1.2-2.1,1.9-4.5,1.9-7c0.1-1.5-0.1-3-0.7-4.4c-0.5-1.4-1.4-2.7-2.5-3.7c-1.1-1-2.4-1.8-3.9-2.3
	c-1.4-0.5-3-0.6-4.5-0.4c-3.3,0.6-6.2,2.4-8.3,4.9c-2.1,2.6-3.3,5.8-3.3,9.1c-0.1,1.5,0.1,3,0.7,4.5c0.6,1.4,1.4,2.7,2.5,3.7
	s2.4,1.8,3.9,2.3s3,0.6,4.5,0.4c0.5-0.1,1,0,1.4,0.1c0.5,0.1,0.9,0.4,1.2,0.7c0.4,0.3,0.6,0.7,0.8,1.2s0.2,0.9,0.2,1.4
	c0,1.1-0.4,2.1-1.1,2.9c-0.7,0.8-1.6,1.4-2.7,1.6c-10.5,1.4-19-6.5-19-17.8s8.5-21.7,19.1-23.2c10.5-1.5,18.9,6.5,18.9,17.8
	C362.2,192,361.2,196,359.2,199.5z"/>
</svg>
