<?xml version="1.0" encoding="utf-8"?>
<!-- Generator: Adobe Illustrator 23.0.3, SVG Export Plug-In . SVG Version: 6.00 Build 0)  -->
<svg version="1.1" id="Слой_1" xmlns="http://www.w3.org/2000/svg" xmlns:xlink="http://www.w3.org/1999/xlink" x="0px" y="0px"
	 viewBox="0 0 250 250" style="enable-background:new 0 0 250 250;" xml:space="preserve">
<style type="text/css">
	.st0{fill:#335786;}
	.st1{fill:#B4D1FA;stroke:#000000;stroke-width:0.2;}
	.st2{fill:#40689D;}
	.st3{fill:#9A384B;}
	.st4{fill:#E87891;stroke:#000000;stroke-width:0.2;}
</style>
<path class="st0" d="M120.8,115.3l-0.8,4.2L20,94.2l5.5-15.4l7.7-2.3c6.4-0.5,8.2,7.7,3.6,10.5l-7.3,3.2L120.8,115.3z"/>
<path class="st0" d="M18.9,101.9l8-0.9l5.1,5.9l-7.8,2.2L18.9,101.9z"/>
<path class="st0" d="M24.1,109.1l6.7-3.2c0.2,0.2,1.4,1.4,1.6,1.6l-7.8,2.2C24.5,109.5,24.3,109.3,24.1,109.1"/>
<path class="st0" d="M24.6,109.7l6.4-4.2c0.1,0.2,1.6,2,1.9,2.7l-7.8,2.2C24.9,110.2,24.7,109.9,24.6,109.7"/>
<path class="st0" d="M25,106.9l7.9,1.4c0.1,0.3,0.5,0.9,0.6,1.2l-7.3,5.2c-0.1-0.3-0.9-4-1.1-4.3"/>
<path class="st0" d="M25.4,111.4l7.8-2.2c0,0.2,0.1,0.3,0.1,0.5l-11,8.1C20,116.9,25.5,111.5,25.4,111.4z"/>
<path class="st0" d="M25.5,111.9l7.8-2.2v0.4l-7.8,2.2V111.9z"/>
<path class="st0" d="M25.5,112.3l7.8-2.2c0,0.1,0,0.3,0,0.4l-7.8,2.2C25.6,112.6,25.6,112.5,25.5,112.3"/>
<path class="st0" d="M25.6,112.7l7.8-2.2v0.4l-7.8,2.2V112.7"/>
<path class="st0" d="M25.6,113.1c0,0,6.7-5.8,7.7-3.9c1.1,2.1-1,5.1-1,5.1l-6.7-0.8V113.1"/>
<path class="st0" d="M25.6,113.5l7.8-2.2c0,0.1,0,0.2,0,0.3l-7.8,2.2C25.6,113.7,25.6,113.6,25.6,113.5"/>
<path class="st0" d="M25.5,113.8l7.8-2.1l-0.3,0.5l-7.6,2V113.8"/>
<path class="st0" d="M25.5,114.1l7.8-2.2l-0.3,0.5l-7.6,2V114.1z"/>
<path class="st0" d="M25.4,114.4l7.3-3l0.1,1.3l-7.4,2V114.4"/>
<path class="st0" d="M25.3,114.7l7.8-2.2c0,0.1-0.1,0.2-0.1,0.3l-7.8,2.2C25.2,114.9,25.2,114.8,25.3,114.7"/>
<path class="st0" d="M25.2,115l7-2.3c0,0.1,0.3-1,0.2-0.9l-7.4,3.6C25.2,115.2,25.2,115.1,25.2,115"/>
<path class="st0" d="M25.1,115.3l7.4-3.3c0,0.1-0.1,1.5-0.2,1.6l-7.4,2C25,115.6,25.1,115.4,25.1,115.3"/>
<path class="st0" d="M25,115.6l7.6-3.1l-0.3,1.1l-7.5,2.3L25,115.6"/>
<path class="st0" d="M25,114.6l8.2-5c0,0.1-0.9,4.5-1,4.6l-7.6,2.1L25,114.6z"/>
<path class="st0" d="M24.5,116.3l7.9-2.3c-0.2,0.3-0.3,0.4-0.4,0.6l-7.8,2.2C24.3,116.6,24.4,116.4,24.5,116.3z"/>
<path class="st0" d="M28.7,112.9l3.3,1.6c-0.6,0.6-1.2,1.2-2,1.4c-3.6,1.1-5.6,1.7-8.6,1.8c1.4-0.9,0.9-1.4,2.7-1"/>
<path class="st1" d="M27.6,78.9L27.6,78.9c0.8,0.2,1.6,0.7,2.2,1.2c0.6,0.6,1.1,1.3,1.4,2.1l0,0l0,0c0.3,0.6,0.5,1.3,0.5,2
	c0,0.7-0.1,1.4-0.3,2c-0.2,0.7-0.6,1.2-1.1,1.8c-0.5,0.5-1,0.9-1.7,1.2l-6.9,2.9l-0.3,0.1l0.3,0.1l96.9,26l-6.2,8.7L20,102.7
	l-0.3-0.1l0.2,0.2l5.1,5.9l0,0c0.9,1,1.4,2.4,1.4,3.8c0,1.4-0.5,2.7-1.4,3.8c-0.5,0.6-1.2,1-2,1.2c-0.8,0.2-1.6,0.2-2.3,0h0
	c-1-0.3-1.9-0.8-2.6-1.6l0,0L1.5,96.8c0,0,0,0,0,0c-0.6-0.7-1-1.4-1.2-2.3c-0.2-0.8-0.3-1.7-0.1-2.6l0,0c0.1-0.8,0.4-1.6,0.9-2.2
	c0.5-0.6,1.2-1.2,1.9-1.5c0,0,0,0,0,0L24.6,79l0,0C25.5,78.6,26.6,78.6,27.6,78.9z"/>
<path class="st2" d="M93,218.9l-8.6-4.7l2.8,1.5l8.6,4.7C94.9,219.9,94,219.4,93,218.9z"/>
<path class="st2" d="M95.8,220.4l-8.6-4.7c4.7,2.3,9.6,4.1,14.7,5.4l8.6,4.7C105.5,224.5,100.5,222.7,95.8,220.4"/>
<path class="st2" d="M110.5,225.8l-8.6-4.7c10.5,2.7,21.4,3.2,32.1,1.7c9.4-1.3,18.6-4.1,27.2-8.2l8.6,4.7
	c-8.6,4.1-17.7,6.8-27.2,8.2C131.9,229,121,228.4,110.5,225.8"/>
<path class="st2" d="M159.2,228.9l2-14.3c5.3-2.5,10.4-5.4,15.2-8.7l37.1-12.2c-4.8,3.3-39.1,26-44.4,28.4"/>
<path class="st2" d="M184.9,210.6l-14.8-0.6c4.7-2.8,13.8-9.8,17.4-12.9l10.1,4.4C194.1,204.6,188.8,207.9,184.9,210.6"/>
<path class="st2" d="M196.2,201.7l-19.3,3.7c6-4,17.2-14.6,20.2-17.9l10.8,2.9C204.8,193.8,199.5,198.7,196.2,201.7"/>
<path class="st2" d="M205.6,192.1l-9.7-3.4c3-3.4,12.7-15.8,15-20.5l4,13C212.4,184.8,209,189.2,205.6,192.1z"/>
<path class="st2" d="M214,181.5l-8.6-4.7c2.8-3.9,5.3-8,7.6-12.3l9.6,4.8c-2.3,4.2-5.7,8.7-8.4,12.7"/>
<path class="st2" d="M222.1,169.7l-9.2-5.3c2.7-5,5.1-10.3,7.1-15.6l9.3,4.4C227.3,158.6,224.8,164.7,222.1,169.7z"/>
<path class="st2" d="M228.6,153.5l-8.6-4.7c4.7-12.6,7.1-26,7.1-39.5c0-35.7-17.1-64.6-43.1-78.7l9.4,4c26,14.1,42.7,44.1,42.7,79.8
	c0,13.5-2.5,26.6-7.2,39.3"/>
<path class="st2" d="M185.2,31.7l-8.6-4.7c-0.9-0.5-1.5-1.4-1.8-2.3c-0.3-1-0.3-3.3,1.8-4.9l8,7.2c-0.4,0.9-0.3,1.1,0,2.1
	c0.3,1,0.2,2.1,1.1,2.6"/>
<path class="st2" d="M183.3,27.4l-8.6-4.4c0.1-0.1,0.4-1.5,0.5-1.6l0.5-0.7l9.3,5.5l-0.4,0.4L183.3,27.4z"/>
<path class="st2" d="M185,26.6l-9.7-5.1c0.2-0.5,0.3-0.8,0.8-1.3l9.3,5.5L185,26.6z"/>
<path class="st2" d="M184.2,25.2l-8.5-4.5c0.2-0.2,0.8-0.8,0.8-0.8l11.4,4.2C187.8,24.2,184.4,25,184.2,25.2"/>
<path class="st2" d="M184.5,24.9l-8.4-4.7c0.1-0.1,0.3-0.3,0.4-0.4l8.9,4.6c-0.1,0.1-0.3,0.7-0.4,0.8"/>
<path class="st2" d="M185.4,24.5l-8.9-4.6l0.5-0.4l8.8,4.6L185.4,24.5z"/>
<path class="st2" d="M185.8,24.5l-9.3-4.6c0.4-0.4,0.9-0.7,1.1-0.8l9.5,4.6C186.8,23.7,186,24.3,185.8,24.5z"/>
<path class="st2" d="M186.2,23.5l-9.7-3.7c1.3-1.3,2.7-1.4,3.7-1.4l9.4,5.2c-0.5-0.1-1.2,0.3-1.7,0.4c-0.4,0.1-0.5-0.2-0.8,0"/>
<path class="st2" d="M188.8,23.2l-9.8-4.7c0.7-0.1,1.3-0.2,1.7,0c1.6,0.7,3.1,1.5,4.7,2.3l11.3,6.2c-1.6-0.8-6.8-1-8.4-1.7
	L188.8,23.2"/>
<path class="st2" d="M194.1,25.5l-8.6-4.7c1,0.5,2,1,3,1.6l8.3,4.6C195.8,26.5,195.1,26,194.1,25.5"/>
<path class="st2" d="M143,17.8l-8.6-4.7c0.5-0.1,1-0.1,1.4,0l8.6,4.7C144,17.7,143.5,17.7,143,17.8"/>
<path class="st2" d="M144.5,17.9l-8.6-4.7c0.2,0.1,0.5,0.1,0.7,0.2l8.6,4.7C144.9,18,144.7,17.9,144.5,17.9z"/>
<path class="st2" d="M136.5,21l-1.4-8c0.6-0.1,0.9,0,1.5,0.4l8.6,4.8l0.4,0.4"/>
<path class="st2" d="M88.6,227.1l-8.6-4.7c-28.3-15.4-47-46.9-47-85.8c0.1-14.7,2.7-29.2,7.8-43l8.6,4.8
	c-5.1,13.8-7.7,28.3-7.8,42.9C41.6,180.2,60.3,211.7,88.6,227.1z"/>
<path class="st2" d="M49.4,98.4l-8.6-4.8c2.2-5.9,4.7-11.6,7.7-17.1l8.6,4.8C54.1,86.8,51.5,92.5,49.4,98.4"/>
<path class="st2" d="M56,91.8l-7.6-15.2c2.5-4.6,5.2-9.1,8.2-13.4l17.9-4.3c-3,4.3-15,17.8-17.5,22.5"/>
<path class="st2" d="M65.3,67.9l-8.6-4.7c2.8-4,5.9-7.9,9.1-11.6l18.9-2.7C81.4,52.6,68.1,63.9,65.3,67.9"/>
<path class="st2" d="M74.4,56.3l-8.6-4.7c3.2-3.7,6.7-7.1,10.3-10.4L95,40.5C91.4,43.7,77.7,52.6,74.4,56.3"/>
<path class="st2" d="M84.8,45.9l-8.6-4.7c3.9-3.5,7.9-6.7,12.2-9.7l10.1,4.4C94.1,38.8,88.6,42.4,84.8,45.9z"/>
<path class="st2" d="M97,36.2l-8.6-4.7c5.2-3.6,10.7-6.8,16.5-9.5l8.6,4.7C107.7,29.4,102.2,32.6,97,36.2"/>
<path class="st2" d="M112.8,27l-8-5c9.4-4.4,19.3-7.5,29.6-8.9l8.6,4.7c-10.3,1.5-20.5,5.2-29.9,9.6"/>
<path class="st1" d="M41.7,141.3C41.8,81,87.2,25.8,143.1,17.9c0.5-0.1,1.1,0,1.6,0.1c0.5,0.2,1,0.4,1.4,0.8
	c0.4,0.4,0.7,0.8,0.9,1.3c0.2,0.5,0.3,1,0.2,1.6h0v0c0,1.2-0.4,2.3-1.2,3.2c-0.7,0.9-1.8,1.5-2.9,1.8c-51.4,7.1-93.1,58-93.1,113.4
	c0,55.4,41.5,94.6,92.9,87.3c51.4-7.3,93.1-58,93.2-113.5l0,0c0-38.8-20.4-69.7-50.4-82.1c-0.5-0.2-0.9-0.6-1.3-1
	c-0.3-0.4-0.6-0.9-0.8-1.4c-0.2-0.5-0.2-1.1-0.2-1.6c0-0.5,0.2-1.1,0.5-1.5v0l0,0c0.3-0.8,0.8-1.4,1.5-1.9c0.6-0.5,1.4-0.8,2.2-1
	c0.6-0.1,1.3,0,1.8,0.2c32.6,13.5,54.8,47.1,54.7,89.4c-0.1,60.3-45.5,115.6-101.4,123.4C86.8,244.2,41.6,201.6,41.7,141.3z"/>
<path class="st3" d="M104.8,197.2l-8.6-4.7c0.7,0.4,1.4,0.8,2.2,1.1l8.6,4.7L104.8,197.2"/>
<path class="st3" d="M106.9,198.3l-8.6-4.7c3.6,1.8,7.3,3.1,11.2,4.1l15.1,7.5C120.7,204.2,110.5,200.1,106.9,198.3z"/>
<path class="st3" d="M117.4,203.1l-7.9-5.4c8,2,16.4,2.5,24.5,1.3c0.5-0.1,1-0.1,1.4,0l8.6,4.7c-0.5-0.1-0.5,0.6-1,0.7
	c-8.2,1.2-16.9,1.3-24.9-0.7"/>
<path class="st3" d="M144.1,203.8l-8.6-4.7c0.2,0.1,0.4,0.1,0.6,0.2l8.7,4.7C144.6,203.9,144.4,203.8,144.1,203.8"/>
<path class="st3" d="M144,204.4l-12.2-5.1c1.9-0.2,3.4-0.7,4.5,0l8.6,4.7C145.8,204.7,145.4,204.7,144,204.4z"/>
<path class="st3" d="M174.8,198.5l-8.6-4.7c-0.6-0.3-1.2-0.9-1.5-1.5c-0.3-0.6-0.4-1.2-0.5-1.9c0-0.8,0.2-1.9,0.5-2.1l13.2,0.5
	c-0.2,0.6-5,5.6-5,6.2c0,0.7,0.2,1.3,0.5,1.9C173.7,197.6,174.2,198.2,174.8,198.5"/>
<path class="st3" d="M173.3,193.2l-8.6-4.7c0-0.2,0.5-1,0.5-1l8.5,5C173.5,192.7,173.3,193,173.3,193.2z"/>
<path class="st3" d="M173.5,192.5l-8.6-4.7c0.1-0.2,0.2-0.4,0.3-0.6l8.8,4.4C173.9,191.9,173.6,192.3,173.5,192.5z"/>
<path class="st3" d="M173.9,192l-8.6-4.7c0.6-0.9,1.1-1.1,2-1.8l7,6L173.9,192z"/>
<path class="st3" d="M174.2,191.5l-8.6-4.7c0.1-0.1,0.3-0.3,0.4-0.4l8.6,4.7C174.6,191.2,174.4,191.4,174.2,191.5"/>
<path class="st3" d="M172.9,195.1l-6.9-8.7c0.2-0.1,0.3-0.3,0.5-0.4c2.9-2,5.8-4.3,8.4-6.7l8.6,4.7c-2.7,2.4-5.5,4.6-8.4,6.7
	c-0.2,0.1-0.3,0.3-0.5,0.4"/>
<path class="st3" d="M174.6,193.5l0.3-14.1c2.5-2.3,5-4.7,7.2-7.3l16.2-1.4c-2.3,2.6-12.2,11.1-14.8,13.4"/>
<path class="st3" d="M190.8,176.7l-8.6-4.7c2.3-2.6,4.4-5.3,6.4-8.1l8.6,4.6C195.2,171.4,193.1,174.1,190.8,176.7"/>
<path class="st3" d="M195.4,177l-6.8-13.2c2.1-3,4-6.2,5.7-9.5l10.2,4.8C202.7,162.5,197.5,174,195.4,177z"/>
<path class="st3" d="M203,159.2l-8.6-4.7c2.1-3.8,3.9-7.8,5.4-11.9l8.6,4.7C206.8,151.4,205,155.4,203,159.2z"/>
<path class="st3" d="M208.3,147.3l-8.6-4.7c3.6-9.7,5.4-19.9,5.5-30.2c0-27.2-13.1-49.3-32.9-60.1l8.6,4.7
	c22.3,9.9,40.8,31.7,34.1,61.2C214.9,128.5,211.9,137.6,208.3,147.3z"/>
<path class="st3" d="M143.2,42.6l-8.8-5.8c9.2-1.4,18.5-0.9,27.5,1.4l12.1,6.1C165,42.1,152.3,41.3,143.2,42.6z"/>
<path class="st3" d="M170.4,42.9l-8.6-4.7c4.3,1.1,8.5,2.7,12.5,4.6l8.9,4.9c-4-2-8.8-1.4-13.1-2.5"/>
<path class="st3" d="M182.4,48.5l-8.1-5.7l2.4,1.3l8.6,4.7L182.4,48.5z"/>
<path class="st3" d="M100.3,205.4l-8.6-4.6c-22.2-12.1-36.9-36.8-36.8-67.2c0-11.5,2.1-22.9,6.1-33.7l14.8-3.8
	c-4,10.8-7.9,30.5-7.9,42C73.3,162.8,78.1,193.3,100.3,205.4"/>
<path class="st3" d="M69.6,104.6L61,99.9c1.6-4.6,3.8-10.1,6.6-14.1l10.1,5.1C75.4,95,71.3,100,69.6,104.6z"/>
<path class="st3" d="M75.6,91.2l-8.6-4.7c1.9-3.6,4.1-7.1,6.5-10.5L93,75C90.7,78.4,77.7,87.6,75.6,91.2"/>
<path class="st3" d="M82.1,80.7l-8.6-4.6c2.2-3.2,4.6-6.3,7.1-9.1l22.4-5.9C100.4,64,84.3,77.6,82.1,80.7z"/>
<path class="st3" d="M89.2,71.7L80.6,67c2.5-2.9,5.2-5.6,8.1-8.2l24-2.2C109.8,59.2,91.8,68.8,89.2,71.7"/>
<path class="st3" d="M97.4,63.5l-8.7-4.7c3-2.7,6.2-5.3,9.6-7.6l21.3,0.9c-3.4,2.3-19.2,8.6-22.3,11.3"/>
<path class="st3" d="M106.9,55.9l-8.6-4.7c4.1-2.8,8.4-5.3,12.9-7.4l10.1,4.8C116.7,50.7,111,53.1,106.9,55.9z"/>
<path class="st3" d="M119.8,48.5l-8.6-4.7c7.3-3.5,15.2-5.8,23.2-7l8.6,4.7C135,42.7,127.1,45,119.8,48.5"/>
<path class="st4" d="M143,41.6L143,41.6L143,41.6c43.7-6.1,79.1,27.1,79,74.4c-0.2,16.1-4.2,32-11.7,46.2
	c-7.5,14.3-18.3,26.6-31.5,35.9c-0.6,0.4-1.2,0.6-1.9,0.7l0,0l0,0c-0.7,0.1-1.5,0-2.1-0.3s-1.2-0.9-1.5-1.5
	c-0.5-1.1-0.5-2.3-0.2-3.4c0.3-1.1,1.1-2.1,2.1-2.8l0,0c11.8-8.3,21.5-19.4,28.2-32.2c6.7-12.8,10.3-27,10.5-41.5v0
	c0-42.3-31.7-72.2-70.9-66.7c-39.2,5.4-71.1,44.3-71.2,86.7c-0.1,42.3,31.7,72.3,71,66.7c0.5-0.1,1.1,0,1.6,0.1
	c0.5,0.2,1,0.4,1.4,0.8c0.4,0.4,0.7,0.8,0.9,1.3c0.2,0.5,0.3,1,0.2,1.6l0,0v0c0,1.2-0.4,2.3-1.1,3.2c-0.7,0.9-1.8,1.5-2.9,1.8
	c-43.7,6.2-79.1-27.1-79-74.4C63.7,90.9,99.3,47.7,143,41.6z"/>
<path class="st2" d="M117.5,174.8l-8.6-4.7l1.4,0.7l8.6,4.7L117.5,174.8z"/>
<path class="st2" d="M118.7,176.1l-8.3-5.2c2.4,1.2,5,2.1,7.6,2.8l9.2,5C124.5,177.9,121.1,177.3,118.7,176.1z"/>
<path class="st2" d="M119.8,182.5l-1.9-8.9c1.4,0.4,2.8,0.6,4.3,0.9c4.1,0.6,8.3,0.6,12.4,0c4.9-0.7,9.6-2.1,14-4.2l8.6,4.7
	c-4.4,2.1-9.2,3.8-14.1,4.4c-4.1,0.6-8.1,0.6-12.2,0c-1.4-0.2-3.3-0.1-4.6-0.4"/>
<path class="st2" d="M148.3,184.5l0.3-14.2c2.7-1.3,5.3-2.8,7.8-4.5l9.6,4.8c-2.5,1.7-2.6,8.7-5.3,10"/>
<path class="st2" d="M165.5,171.4l-9.3-5.5c2-1.4,4.1-3.1,5.9-4.8l10.1,4.8C170.4,167.6,167.6,170,165.5,171.4z"/>
<path class="st2" d="M170.8,165.9l-8.6-4.7c1.7-1.5,3.3-3.2,4.9-4.9l8.6,4.7C174.1,162.7,172.5,164.3,170.8,165.9"/>
<path class="st2" d="M171.4,171l-4.4-14.7c1.5-1.7,3-3.5,4.3-5.4l14.3-0.4c-1.3,1.9-8.5,8.8-10,10.5"/>
<path class="st2" d="M180,155.5l-8.6-4.7c1.4-2,2.6-4.1,3.8-6.3l10.7,4.5C184.7,151.2,181.4,153.5,180,155.5"/>
<path class="st2" d="M185,149.9l-9.8-5.3c1.4-2.6,2.6-5.2,3.6-8l9.2,4.9c-1,2.7-1.6,5.4-3,8"/>
<path class="st2" d="M187.4,141.2l-8.6-4.7c0.8-2.2,1.5-4.5,2.1-6.8c5.7-23.2-3.3-44.8-20.5-54.1l9,4.2
	c17.2,9.3,25.8,31.5,20.2,54.6C188.9,136.7,188.3,139,187.4,141.2z"/>
<path class="st2" d="M130.5,74.2l4.2-12c4.8-0.7,9.7-0.7,14.6,0c1.7,0.2,3.4,0.6,5,1l8.6,4.7c-1.6-0.4-3.3-0.8-5-1
	c-4.8-0.7-10.8-0.1-15.6,0.6"/>
<path class="st2" d="M152,71.2l2.3-7.9c3,0.8,6,1.9,8.8,3.3l8.6,4.7c-2.8-1.4-5.8-2.5-8.9-3.3"/>
<path class="st2" d="M171.8,71.2l-8.6-4.7c0.6,0.3,1.1,0.6,1.7,0.9l8.6,4.7C172.9,71.8,172.3,71.5,171.8,71.2z"/>
<path class="st2" d="M113.1,183l-8.6-4.7c-12.7-6.9-21.6-19.6-24.8-34.9c-0.2-0.9-0.1-1.8,0.2-2.7l9.2,4.6c-0.3,0.9-0.9,1.9-0.8,2.8
	C91.5,163.3,100.3,176.1,113.1,183z"/>
<path class="st2" d="M89.1,146.1l-9.2-5.4c0.1-0.2,0.2-0.5,0.3-0.7l9.7,4.9C89.8,145.1,89.2,145.9,89.1,146.1z"/>
<path class="st2" d="M89.5,145.3l-9.3-5.3l0.3-0.6l11.7,2.5L89.5,145.3z"/>
<path class="st2" d="M89.2,144.1l-8.6-4.7c0.1-0.2,0.2-0.3,0.4-0.5l8.6,4.7C89.5,143.8,89.3,144,89.2,144.1z"/>
<path class="st2" d="M89.5,144.4l-8.6-5.5c0.1-0.1,0.3-0.3,0.4-0.4l8.6,4.7C89.9,143.4,89.7,144.3,89.5,144.4z"/>
<path class="st2" d="M90,143.2l-8.6-4.7c0.2-0.1,0.3-0.2,0.5-0.3l8.6,4.7C90.3,143,90.2,143.2,90,143.2"/>
<path class="st2" d="M79.9,140.7l1.9-2.5c0.2-0.2,0.7-0.5,0.9-0.6l9.7,5.1c-0.2,0.1-1.5,1.1-1.7,1.3"/>
<path class="st2" d="M87.3,147.6l-4.7-9.9l0.3-0.1c0.3-0.1,0.6-0.2,0.9-0.2c0.5-0.1,1-0.1,1.4,0l9.4,5.3c-0.5-0.1-1.2,0.3-1.7,0.4
	c-0.3,0-1-0.1-1.3,0L87.3,147.6z"/>
<path class="st2" d="M93.8,142.2l-8.6-4.7c0.2,0.1,0.5,0.1,0.7,0.2l8.6,4.7C94.3,142.3,94.1,142.2,93.8,142.2"/>
<path class="st2" d="M93.3,142.7l-7.5-5H86l9,5c0.4,0.4-0.1,0.5-1.3,0.4"/>
<path class="st2" d="M90.8,124.1l-8.6-4.7c-0.8-0.5-1.4-1.2-1.7-2c-0.3-0.8-0.4-1.8-0.2-2.7c0.7-2.7,1.5-5.4,2.4-8l10.5,3.9
	c-1,2.6-3.1,6.2-3.8,8.9c-0.3,0.9-0.3,1.3,0,2.1c0.3,0.8,1.8,2.1,2.5,2.5"/>
<path class="st2" d="M91.5,111.5l-8.6-4.7c1.2-3.2,2.6-6.4,4.2-9.4l14.2,2C99.6,102.4,92.7,108.3,91.5,111.5"/>
<path class="st2" d="M94.8,105.6l-7.7-8.3c1.4-2.6,2.9-5,4.5-7.4l15.8-3.8c-1.7,2.4-10.4,13.3-11.7,15.8"/>
<path class="st2" d="M100.3,94.7l-15.6,7.6c3.3-8,12.4-23.5,29.4-33l-8.7,19C103.5,90.4,101.8,92.5,100.3,94.7"/>
<path class="st2" d="M105.2,89.1l-8.5-5.5c3.3-5.2,14.4-11.8,16.4-13.6l-1.1,12.3c-2,1.8-4.1,5.2-5.9,7.2"/>
<path class="st2" d="M110.6,83.6l-8.3-5.8c2.2-1.9,4.4-3.8,6.8-5.4l15.2,3.9c-2.4,1.6-11.2,4.9-13.4,6.8"/>
<path class="st2" d="M117.8,77.1l-8.6-4.7c2.9-2,6-3.8,9.2-5.3l15.2,2.6C130.4,71.3,120.8,75.1,117.8,77.1"/>
<path class="st2" d="M127,71.9l-8.6-4.7c5.2-2.4,10.7-4.1,16.3-4.9l8.6,4.7C137.7,67.7,132.2,69.4,127,71.9"/>
<path class="st1" d="M91.5,142.4 M143.4,67 M143.2,179.4L143.2,179.4L143.2,179.4L143.2,179.4z M88.3,148.1 M128.7,188.1
	L128.7,188.1L128.7,188.1L128.7,188.1z M157.9,67L157.9,67L157.9,67 M157.9,67L157.9,67L157.9,67c0-0.1-20.7-3.1-37.9,7.4
	c-16.2,9.9-22.1,17.2-28.3,31.9c-6.5,15.3-1.6,17.3,1.3,18.2c1-0.2,1.9-0.6,2.6-1.3c0.7-0.7,1.2-1.5,1.4-2.5
	c5.8-24,25.2-41.8,46.3-44.8c4.1-0.6,8.3-0.6,12.4,0c25.5,3.8,40.6,30.1,33.8,58.6c-5.8,23.9-25.2,41.8-46.3,44.8
	c-4.1,0.6-8.3,0.6-12.4,0c-17.9-2.6-30.7-16.3-34.3-34.1c-0.1-0.9-0.8-1.7-1.4-2.3c-1.2-1.1-7.7-2-6.7,5.3c3,21.1,19.3,37,40.3,40.1
	c4.8,0.7,9.7,0.7,14.6,0c24.8-3.5,47.5-24.5,54.3-52.6C205.6,102.2,187.9,71.4,157.9,67"/>
<path class="st3" d="M169.8,118.2l-8.6-4.6c-0.4-0.2-0.8-0.6-1.1-1c-0.3-0.4-0.5-0.9-0.6-1.4c-0.7-3.2-2.1-6.1-4.1-8.7
	c-2-2.6-4.4-4.7-7.3-6.3l9.1,4.3c2.8,1.6,6.5,3.3,8.4,5.9c2,2.6,4.1,5.2,4.9,8.4c0.1,0.5,0.1,0.8,0.4,1.2
	C171.1,116.4,169.4,118,169.8,118.2"/>
<path class="st3" d="M128.5,152.7l-8.6-4.7c0.2,0.2,0.5,0.3,0.8,0.4l8.6,4.7L128.5,152.7z"/>
<path class="st3" d="M129.3,153.1l-8.6-4.7c1.3,0.7,2.8,1.2,4.2,1.6l8.6,4.7C132,154.3,130.6,153.8,129.3,153.1"/>
<path class="st3" d="M133.4,154.7l-8.6-4.7c3,0.8,6,0.9,9,0.5c2.4-0.3,4.6-1,6.8-1.9l0.9-0.4l8.6,4.7l-0.9,0.4
	c-2.2,0.9-4.5,1.6-6.8,1.9C139.5,155.6,136.4,155.4,133.4,154.7"/>
<path class="st3" d="M149.9,153.7l-8.4-5.5c1.5-0.7,3.1-1.6,4.4-2.6l8.6,4.7C153.2,151.3,151.4,153,149.9,153.7z"/>
<path class="st3" d="M147.5,158.4l-1.6-12.8c1.1-0.8,2.2-1.6,3.2-2.5l17.7,0.4c-1,0.9-11.1,6.1-12.2,6.8"/>
<path class="st3" d="M157.7,147.8l-8.6-4.7c0.9-0.8,1.8-1.7,2.7-2.7l8.6,4.7C159.5,146.1,158.7,147,157.7,147.8"/>
<path class="st3" d="M160,147.4l-8.3-6.9c0.8-0.9,1.6-1.9,2.4-3l10.2,5.7C163.5,144.2,160.9,146.4,160,147.4z"/>
<path class="st3" d="M164.3,143.6l-10.2-6.1c0.8-1.1,1.5-2.3,2.1-3.5l10.2,5.4c-0.6,1.2-1.7,2.3-2.5,3.4"/>
<path class="st3" d="M165.5,139.3l-9.4-5.4c0.8-1.4,1.4-2.9,2-4.5l10.3,5.2c-0.6,1.5-1.8,3.2-2.5,4.6"/>
<path class="st3" d="M168.1,135.6l-9.8-6c0.6-1.7,1.1-3.4,1.4-5.1c0.1-0.3,0.3-0.9,0.4-1.2l8.8,5.1c-0.1,0.3,0.9,1,0.8,1.3
	C169.4,131.4,168.7,134,168.1,135.6z"/>
<path class="st3" d="M168.5,128.3l-8.6-4.7c0.1-0.2,0.2-0.6,0.3-0.8l8.6,4.8C168.8,127.9,168.7,128.1,168.5,128.3"/>
<path class="st3" d="M168.8,127.7l-8.6-4.6l0.3-0.6c3.6,1.6,5.3,2.8,8.6,4.8C169,127.4,168.9,127.6,168.8,127.7"/>
<path class="st3" d="M169.2,127.1l-9.9-1.7c0.9-2.3,0.6-4.1,4-4.8l6.1,6C169.3,126.8,169.2,127,169.2,127.1"/>
<path class="st3" d="M169.5,126.6l-8.6-4.7c0.1-0.2,0.9-1.2,3-1.6l6,5.9L169.5,126.6z"/>
<path class="st3" d="M168.5,129.2l-7.2-7.7c0.2-0.1,0.4-0.3,0.5-0.4l11.3,4.3c-0.2,0.1-3,0.7-3.1,0.8"/>
<path class="st3" d="M170.5,125.8l-8.6-4.7c0.1-0.3,1.6-0.9,2-0.8l7.4,5.1C171,125.6,170.7,125.7,170.5,125.8"/>
<path class="st3" d="M171.1,125.4l-8.6-4.7c0.4-0.2,0.8-0.3,1.2-0.4c0.3,0,1.2,0,1.5,0l8.6,4.7l-0.6-0.1c-0.3,0-0.6,0-0.9,0
	C171.9,125,171.5,125.1,171.1,125.4"/>
<path class="st3" d="M173.8,125.1l-8.6-4.7c0.2,0.1,0.4,0.1,0.6,0.2l8.6,4.7C174.2,125.3,174,125.2,173.8,125.1z"/>
<path class="st3" d="M170.2,127.5l-5.1-7.2c0.4,0.1,0.6,0.1,0.8,0.3l8.6,4.7c0.7,0.4,1,0.7,1.1,1.3"/>
<path class="st3" d="M130.6,94.9l3.5-10.2c4-0.6,8-0.4,11.9,0.6l8.6,4.7c-3.9-1-7.9-1.2-11.9-0.6"/>
<path class="st3" d="M151.5,90.8l-5.5-5.4c1.9,0.5,3.7,1.2,5.5,2l8.6,4.7c-1.8-0.9-4.9-0.4-6.8-0.9"/>
<path class="st3" d="M160.1,92.1l-8.6-4.7l1,0.5l8.6,4.8L160.1,92.1"/>
<path class="st3" d="M124.2,160.9l-8.8-4.6c-3.7-2.1-6.9-4.9-9.5-8.3c-2.6-3.4-4.4-7.3-5.3-11.4c-2-8-1.3-16.9,1.6-24.6l8.9,5.1
	c-2.9,7.7-2.8,16.1-0.8,24.1c1,4.2,2.1,7.6,4.6,11C117.4,155.4,120.4,158.8,124.2,160.9z"/>
<path class="st3" d="M110.7,117l-8.6-4.7c0.7-2,1.6-4,2.6-5.9l10.6,5.1C114.3,113.4,111.4,115,110.7,117z"/>
<path class="st3" d="M113.3,111.1l-8.6-4.7c0.9-1.6,1.8-3.1,2.8-4.6l8.6,4.7C115.1,108,114.2,109.5,113.3,111.1"/>
<path class="st3" d="M110.3,112.6l-2.7-10.8c1-1.4,2-2.7,3.1-3.9l8.6,4.7c-1.1,1.2-5.1,11.2-6.1,12.6"/>
<path class="st3" d="M118.3,108.6l-7.6-10.8c1.1-1.2,2.3-2.4,3.5-3.5l8.6,4.7c-1.2,1.1,1.2,6.2,0.1,7.5"/>
<path class="st3" d="M122.8,99.1l-8.6-4.7c1.3-1.2,2.7-2.3,4.2-3.3l11.8,4.3C128.6,96.4,124.1,97.9,122.8,99.1"/>
<path class="st3" d="M126.9,95.8l-8.7-4.7c1.8-1.3,3.7-2.3,5.7-3.3l21.5,2C143.4,90.7,128.7,94.5,126.9,95.8"/>
<path class="st3" d="M132.6,92.5l-8.6-4.7c0.4-0.2,0.8-0.4,1.1-0.5c2.9-1.2,5.9-2.1,9-2.5l8.6,4.7c-3.1,0.4-6.1,1.3-9,2.5
	L132.6,92.5z"/>
<path class="st4" d="M135.8,100.2L135.8,100.2c-14.1,6-22.4,22.8-18.7,37.5c1.2,5.6,4.5,10.6,9.2,13.8c4.7,3.3,10.5,4.6,16.2,3.7
	c2.4-0.3,4.7-1,6.9-1.9l0,0c4.9-2.2,9.1-5.6,12.4-9.8c3.3-4.2,5.6-9.1,6.6-14.4v0c0.2-1,0.6-1.9,1.4-2.6c0.7-0.7,1.6-1.2,2.6-1.4
	c0.3,0,0.6,0,0.9,0c0.5,0.1,1,0.2,1.5,0.5c0.5,0.3,0.8,0.7,1.1,1.1c0.3,0.5,0.5,1,0.6,1.5c0.1,0.5,0,1.1-0.1,1.6l0,0l0,0
	c-1.3,6.9-4.3,13.3-8.6,18.8c-4.3,5.5-9.9,9.9-16.3,12.7c-2.9,1.2-5.9,2.1-8.9,2.5c-15.1,2.2-29.1-6.8-33.2-22.9l-0.1,0l0.1,0
	c-4.9-19.2,6.1-41.1,24.5-49l0,0c2.9-1.2,5.9-2.1,8.9-2.5c15.1-2.1,29.1,6.9,33.2,22.9c0.3,1.1,0.1,2.3-0.4,3.4
	c-0.5,1-1.4,1.9-2.5,2.4c-0.3,0.1-0.7,0.2-1,0.3c-0.9,0.1-1.8-0.1-2.5-0.6c-0.7-0.5-1.2-1.3-1.4-2.1c-1.2-5.6-4.5-10.5-9.2-13.8
	c-4.7-3.3-10.5-4.6-16.2-3.7C140.3,98.6,138,99.3,135.8,100.2z"/>
<path class="st0" d="M179.1,134.4l7.8-2.2l-66.6-17.4c-0.8,1.5-1.2,2.3-1.7,3.8L179.1,134.4z"/>
<path class="st0" d="M193.6,149.4l7.8-2.2l4.7,13.6l-10.6,3L193.6,149.4z"/>
<path class="st0" d="M198.3,155.3l7.8-2.2c0.1,0.1,0.2,0.3,0.3,0.5l-7.8,2.2C198.5,155.6,198.4,155.4,198.3,155.3z"/>
<path class="st0" d="M198.6,155.7l7.8-2.1c0.1,0.2,0.3,0.5,0.4,0.7l-7.8,2.2C198.9,156.3,198.7,156,198.6,155.7"/>
<path class="st0" d="M199,156.4l7.8-2.2c0.1,0.3,0.3,0.6,0.3,0.9l-7.8,2.2C199.2,157.1,199.1,156.7,199,156.4"/>
<path class="st0" d="M199.3,157.4l7.8-2.2c0,0.2,0,0.4,0.1,0.6l-7.8,2.2C199.5,157.7,199.5,157.5,199.3,157.4z"/>
<path class="st0" d="M199.5,157.9l7.8-2.2v0.4l-7.8,2.2V157.9z"/>
<path class="st0" d="M199.5,158.4l7.8-2.2c0,0.1,0,0.3,0,0.4l-7.8,2.2C199.5,158.6,199.5,158.5,199.5,158.4z"/>
<path class="st0" d="M199.6,158.8l7.8-2.2v0.4l-7.8,2.2C199.6,159,199.6,158.9,199.6,158.8"/>
<path class="st0" d="M199.6,159.1l7.8-2.2v0.3l-7.8,2.2V159.1z"/>
<path class="st0" d="M199.6,159.5l7.8-2.2c0,0.1,0,0.2,0,0.3l-7.8,2.2C199.6,159.7,199.6,159.6,199.6,159.5"/>
<path class="st0" d="M199.5,159.8l7.8-2.2v0.3l-7.8,2.2V159.8z"/>
<path class="st0" d="M199.5,160.1l7.8-2.2v0.3l-7.8,2.2V160.1z"/>
<path class="st0" d="M199.4,160.4l7.8-2.2v0.3l-7.8,2.2C199.4,160.7,199.4,160.5,199.4,160.4"/>
<path class="st0" d="M199.3,160.7l7.8-2.2c0,0.1,0,0.2,0,0.3l-7.9,2.1C199.2,160.8,199.2,160.7,199.3,160.7"/>
<path class="st0" d="M199.2,160.9l7.8-2.2c0,0.1-0.1,0.2-0.1,0.3l-7.8,2.2C199.2,161.1,199.2,161,199.2,160.9"/>
<path class="st0" d="M199.1,161.3l7.8-2.2l-0.1,0.3l-7.8,2.2C199,161.5,199.1,161.4,199.1,161.3"/>
<path class="st0" d="M199,161.6l7.8-2.2c-0.1,0.1-0.1,0.2-0.2,0.3l-7.8,2.2C198.8,161.9,198.9,161.7,199,161.6"/>
<path class="st0" d="M198.8,162l7.8-2.2l-0.2,0.4l-7.8,2.2C198.6,162.2,198.7,162.1,198.8,162"/>
<path class="st0" d="M198.5,162.3l7.8-2.2c-0.1,0.1-0.2,0.3-0.3,0.4l-7.8,2.2C198.3,162.7,198.4,162.5,198.5,162.3"/>
<path class="st0" d="M198.2,162.8l7.8-2.2l-0.2,0.3c-0.5,0.5-1.1,0.9-1.8,1.1c0,0-8,2.3-8.6,2.3c-0.6-0.1,2.1-0.6,2.6-1.1
	C198,163,198.1,162.9,198.2,162.8z"/>
<path class="st0" d="M185.2,137.5l18.1-0.9l3,0.8l-7.8,2.8L185.2,137.5z"/>
<path class="st0" d="M201.6,135.9l7.8-2.2l-6.2,2.9l-7.8,2.2L201.6,135.9z"/>
<path class="st0" d="M198,125.5l7.8-2.2c0.7-0.2,1.2-0.2,2.4,0c1.7,0.4,2.5,1.7,2.5,1.7l-6.8,3.8l-5.6-3.4L198,125.5"/>
<path class="st0" d="M198.4,125.4l7.8-2.2h0.4l-7.8,2.2H198.4z"/>
<path class="st0" d="M198.8,125.4l7.8-2.2h0.3l-7.8,2.2L198.8,125.4"/>
<path class="st0" d="M199.1,125.3l7.8-2.2h0.3l-7.8,2.2L199.1,125.3"/>
<path class="st0" d="M199.5,125.4l7.8-2.2h0.3l-7.8,2.2H199.5z"/>
<path class="st0" d="M199.8,125.4l7.8-2.2h0.3l-7.8,2.2H199.8"/>
<path class="st0" d="M200.1,125.5l7.8-2.2h0.3l-7.8,2.2L200.1,125.5"/>
<path class="st0" d="M200.4,125.5l7.8-2.2h0.3l-7.8,2.2L200.4,125.5"/>
<path class="st0" d="M200.6,125.6l7.8-2.2l0.3,0.1l-7.8,2.2L200.6,125.6z"/>
<path class="st0" d="M200.9,125.7l7.8-2.2l0.3,0.1l-7.8,2.2L200.9,125.7z"/>
<path class="st0" d="M201.2,125.8l7.8-2.2l0.3,0.1l-7.8,2.2L201.2,125.8"/>
<path class="st0" d="M201.5,126l7.8-2.2l0.3,0.2l-7.8,2.2L201.5,126z"/>
<path class="st0" d="M201.8,126.2l7.8-2.2c0.1,0.1,0.2,0.1,0.3,0.2l-7.8,2.2L201.8,126.2"/>
<path class="st0" d="M202.1,126.4l7.8-2.2c0.1,0.1,0.2,0.2,0.3,0.3l-7.8,2.2L202.1,126.4"/>
<path class="st0" d="M202.4,126.6l7.8-2.2l0.4,0.4l-7.8,2.2L202.4,126.6z"/>
<path class="st0" d="M202.8,127l7.8-2.2c0.2,0.2,0.4,0.5,0.6,0.8l-7.8,2.3C203.2,127.6,203,127.4,202.8,127"/>
<path class="st0" d="M203.4,127.9l7.3-2.9c0.3,0.2,0.4,0.4,1,1.4c0.9,1.5,0.7,4.9-0.5,5.8l-7.2-3.6
	C203.8,128.3,203.7,128,203.4,127.9"/>
<path class="st0" d="M203.9,128.5l7.6-2.3c0.1,0.3,0.4,0.8,0.4,1.7l-7.8,1.5c-0.1-0.3-0.2-0.5-0.3-0.8
	C203.9,128.6,203.9,128.6,203.9,128.5z"/>
<path class="st0" d="M204.2,129.5l7.4-2.4c0,0.2,0.3,1.5,0.4,1.7l-7.7,1.2C204.3,129.8,204.2,129.6,204.2,129.5z"/>
<path class="st0" d="M204.3,130l7.7-2.1v0.4l-7.7,2.1V130"/>
<path class="st0" d="M204.4,130.4l7.6-2.1c0,0.1,0,0.3,0,0.4l-7.6,2.5C204.4,131.2,204.4,130.6,204.4,130.4z"/>
<path class="st0" d="M204.4,130.9l7.6-2.1v0.4l-7.6,2V130.9z"/>
<path class="st0" d="M204.4,131.2l7.6-2.4v0.8l-7.6,1.9V131.2"/>
<path class="st0" d="M204.4,131.6l7.6-2.3c0,0.1,0,0.8,0,0.8l-7.6,1.8C204.4,131.8,204.4,131.7,204.4,131.6z"/>
<path class="st0" d="M204.4,131.9l7.6-2.7v0.8l-7.6,2.2V131.9"/>
<path class="st0" d="M204.3,132.2l7.8-2.2v0.3l-7.8,2.2V132.2z"/>
<path class="st0" d="M204.4,131.3l7.7-1c0,0.1,0,0.2,0,0.3l-7.8,2.2L204,133"/>
<path class="st0" d="M204.2,132.8l7.8-2.2v0.3l-8,2.5L204.2,132.8z"/>
<path class="st0" d="M204.1,133.1l7.8-2.2c-0.1,0.1-0.1,0.2-0.1,0.3l-7.8,2.1C204,133.3,204,133.2,204.1,133.1"/>
<path class="st0" d="M203.9,133.4l7.8-2.2c-0.1,0.1-0.1,0.2-0.1,0.3c-3.1,1.9-5,1.9-8.1,2.3L203.9,133.4z"/>
<path class="st0" d="M203.8,133.7l7.8-2.2l-0.2,0.3l-7.8,2.2L203.8,133.7z"/>
<path class="st0" d="M203.6,134.1l7.8-2.2c-0.1,0.1-0.6,0.6-0.7,0.7l-7.4,1.8C203.4,134.3,203.5,134.2,203.6,134.1z"/>
<path class="st0" d="M203.4,134.4l8.2-2.7c0,0-1.5,1.6-1.7,1.7l-6.8,1.4C203.2,134.7,203.4,134.6,203.4,134.4"/>
<path class="st0" d="M203.6,133.8l8-2.1c-0.4,0.8-1.6,1.7-2.1,1.9l-7.8,2.2C202.2,135.6,203.2,134.3,203.6,133.8z"/>
<path class="st0" d="M210.7,143.9l9.5-2l4.2,1.2l-7.8,2.8L210.7,143.9z"/>
<path class="st0" d="M220.8,139.1l6.9,0.2l-6.2,2.9l-7.8,2.2L220.8,139.1z"/>
<path class="st0" d="M216.1,131.1l7.8-2.2c0.7-0.2,1.2-0.2,2.4,0c1.7,0.4,2.5,1.7,2.5,1.7l-6.8,3.8l-5.6-3.4L216.1,131.1"/>
<path class="st0" d="M216.6,131l7.8-2.2h0.4L217,131H216.6z"/>
<path class="st0" d="M216.9,131l7.8-2.2h0.3l-7.8,2.2L216.9,131"/>
<path class="st0" d="M217.3,131l7.8-2.2h0.3l-7.8,2.2L217.3,131"/>
<path class="st0" d="M217.6,131l7.8-2.2h0.3l-7.8,2.2H217.6z"/>
<path class="st0" d="M217.9,131l7.8-2.2h0.3l-7.8,2.2H217.9"/>
<path class="st0" d="M218.2,131.1l7.8-2.2h0.3l-7.8,2.2L218.2,131.1"/>
<path class="st0" d="M218.5,131.1l7.8-2.2h0.3l-7.8,2.2L218.5,131.1"/>
<path class="st0" d="M218.8,131.2l7.8-2.2l0.3,0.1l-7.8,2.2L218.8,131.2z"/>
<path class="st0" d="M219.1,131.3l7.8-2.2l0.3,0.1l-7.8,2.2L219.1,131.3z"/>
<path class="st0" d="M219.4,131.5l7.8-2.2l0.3,0.1l-7.8,2.2L219.4,131.5"/>
<path class="st0" d="M219.7,131.7l7.8-2.2l0.3,0.2l-7.8,2.2L219.7,131.7z"/>
<path class="st0" d="M220,131.8l7.8-2.2c0.1,0.1,0.2,0.1,0.3,0.2l-7.8,2.2L220,131.8"/>
<path class="st0" d="M220.3,132l7.8-2.2c0.1,0.1,0.2,0.2,0.3,0.3l-7.8,2.2L220.3,132"/>
<path class="st0" d="M220.6,132.3l7.8-2.2l0.4,0.4l-7.8,2.2L220.6,132.3z"/>
<path class="st0" d="M221,132.7l7.8-2.2c0.2,0.2,0.4,0.5,0.6,0.8l-7.8,2.3C221.4,133.2,221.2,133,221,132.7"/>
<path class="st0" d="M221.6,133.5l7.3-2.9c0.3,0.2,0.4,0.4,1,1.4c0.9,1.5,0.7,4.9-0.5,5.8l-7.2-3.6
	C222,133.9,221.8,133.7,221.6,133.5"/>
<path class="st0" d="M222.1,134.2l7.6-2.3c0.1,0.3,0.4,0.8,0.4,1.7l-7.3,3.7c-0.1-0.3-0.7-2.7-0.8-3
	C222.1,134.3,222.1,134.2,222.1,134.2z"/>
<path class="st0" d="M222.4,135.1l7.4-2.4c0,0.2,0.3,1.5,0.4,1.7l-7.7,1.2C222.4,135.5,222.4,135.3,222.4,135.1z"/>
<path class="st0" d="M222.5,135.6l7.7-2.1v0.4l-7.7,2.1V135.6"/>
<path class="st0" d="M222.5,136.1l7.6-2.1c0,0.1,0,0.3,0,0.4l-7.6,2.5C222.5,136.8,222.5,136.2,222.5,136.1z"/>
<path class="st0" d="M222.6,136.5l7.6-2.1v0.4l-7.6,2V136.5z"/>
<path class="st0" d="M222.6,136.8l7.6-2.4v0.8l-7.6,1.9V136.8"/>
<path class="st0" d="M222.6,137.2l7.6-2.3c0,0.1,0,0.8,0,0.8l-7.6,1.8C222.6,137.4,222.6,137.3,222.6,137.2z"/>
<path class="st0" d="M222.5,137.5l7.6-2.7v0.8l-7.6,2.2V137.5"/>
<path class="st0" d="M222.5,137.8l7.8-2.2v0.3l-7.8,2.2V137.8z"/>
<path class="st0" d="M222.6,136.9l7.7-1c0,0.1,0,0.2,0,0.3l-7.8,2.2l-0.3,0.2"/>
<path class="st0" d="M222.3,138.4l7.8-2.2v0.3l-8,2.5L222.3,138.4z"/>
<path class="st0" d="M222.2,138.7l7.8-2.2c-0.1,0.1-0.1,0.2-0.1,0.3l-7.8,2.1C222.1,138.9,222.2,138.8,222.2,138.7"/>
<path class="st0" d="M222.1,139l7.8-2.2c-0.1,0.1-0.1,0.2-0.1,0.3c-3.1,1.9-5,1.9-8.1,2.3L222.1,139z"/>
<path class="st0" d="M222,139.4l7.8-2.2l-0.2,0.3l-7.8,2.2L222,139.4z"/>
<path class="st0" d="M221.8,139.7l7.8-2.2c-0.1,0.1-0.6,0.6-0.7,0.7l-7.4,1.8C221.6,139.9,221.7,139.8,221.8,139.7z"/>
<path class="st0" d="M221.5,140l8.2-2.7c0,0-1.5,1.7-1.7,1.7l-6.8,1.4C221.4,140.3,221.5,140.2,221.5,140"/>
<path class="st0" d="M221.7,139.5l8-2.1c-0.4,0.8-1.6,1.7-2.1,1.9l-7.8,2.2C220.3,141.2,221.3,139.9,221.7,139.5z"/>
<path class="st0" d="M235.6,136.2l7.8-2.2c0.7-0.2,1.2-0.2,2.4,0c1.7,0.4,2.5,1.7,2.5,1.7l-6.8,3.8l-5.6-3.4L235.6,136.2"/>
<path class="st0" d="M236.1,136.1l7.8-2.2h0.4l-7.8,2.2H236.1z"/>
<path class="st0" d="M236.5,136.1l7.8-2.2h0.3l-7.8,2.2L236.5,136.1"/>
<path class="st0" d="M236.8,136l7.8-2.2h0.3l-7.8,2.2L236.8,136"/>
<path class="st0" d="M237.2,136.1l7.8-2.2h0.3l-7.8,2.2H237.2z"/>
<path class="st0" d="M237.5,136.1l7.8-2.2h0.3l-7.8,2.2H237.5"/>
<path class="st0" d="M237.8,136.1l7.8-2.2h0.3l-7.8,2.2L237.8,136.1"/>
<path class="st0" d="M238.1,136.2l7.8-2.2h0.3l-7.8,2.2L238.1,136.2"/>
<path class="st0" d="M238.3,136.3l7.8-2.2l0.3,0.1l-7.8,2.2L238.3,136.3z"/>
<path class="st0" d="M238.6,136.4l7.8-2.2l0.3,0.1l-7.8,2.2L238.6,136.4z"/>
<path class="st0" d="M238.9,136.5l7.8-2.2l0.3,0.1l-7.8,2.2L238.9,136.5"/>
<path class="st0" d="M239.2,136.7l7.8-2.2l0.3,0.2l-7.8,2.2L239.2,136.7z"/>
<path class="st0" d="M239.5,136.9l7.8-2.2c0.1,0.1,0.2,0.1,0.3,0.2l-7.8,2.2L239.5,136.9"/>
<path class="st0" d="M239.8,137.1l7.8-2.2c0.1,0.1,0.2,0.2,0.3,0.3l-7.8,2.2L239.8,137.1"/>
<path class="st0" d="M240.1,137.3l7.8-2.2l0.4,0.4l-7.8,2.2L240.1,137.3z"/>
<path class="st0" d="M240.5,137.7l7.8-2.2c0.2,0.2,0.4,0.5,0.6,0.8l-7.8,2.3C240.9,138.3,240.7,138.1,240.5,137.7"/>
<path class="st0" d="M241.1,138.6l7.3-2.9c0.3,0.2,0.4,0.4,1,1.4c0.9,1.5,0.7,4.9-0.5,5.8l-7.2-3.6
	C241.5,139,241.3,138.7,241.1,138.6"/>
<path class="st0" d="M239.5,136.5l9.8,0.4c0.1,0.3,0.4,0.8,0.4,1.7l-6.5,3.7c-0.8,0.2-1.4,0.7-1.7,1.4c-0.3,0.8-0.8-0.6-0.9-0.8
	C240.6,142.9,239.5,136.6,239.5,136.5z"/>
<path class="st0" d="M241.9,140.2l7.4-2.4c0,0.2,0.3,1.5,0.4,1.7l-7.7,1.2C242,140.5,241.9,140.3,241.9,140.2z"/>
<path class="st0" d="M242,140.7l7.7-2.1v0.4l-7.7,2.1V140.7"/>
<path class="st0" d="M242.1,141.1l7.6-2.1c0,0.1,0,0.3,0,0.4l-7.6,2.5C242.1,141.9,242.1,141.3,242.1,141.1z"/>
<path class="st0" d="M242.1,141.6l7.6-2.1v0.4l-7.6,2V141.6z"/>
<path class="st0" d="M242.1,141.9l7.6-2.4v0.8l-7.6,1.9V141.9"/>
<path class="st0" d="M242.1,142.2l7.6-2.3c0,0.1,0,0.8,0,0.8l-7.6,1.8C242.1,142.5,242.1,142.4,242.1,142.2z"/>
<path class="st0" d="M242.1,142.6l7.6-2.7v0.8l-7.6,2.2V142.6"/>
<path class="st0" d="M242,142.9l7.8-2.2v0.3l-7.8,2.2V142.9z"/>
<path class="st0" d="M242.1,142l7.7-1c0,0.1,0,0.2,0,0.3l-7.8,2.2l-0.3,0.2"/>
<path class="st0" d="M241.9,143.5l7.8-2.2v0.3l-8,2.5L241.9,143.5z"/>
<path class="st0" d="M241.8,143.8l7.8-2.2c-0.1,0.1-0.1,0.2-0.1,0.3l-7.8,2.2C241.7,144,241.7,143.9,241.8,143.8"/>
<path class="st0" d="M241.6,144.1l7.8-2.2c-0.1,0.1-0.1,0.2-0.1,0.3c-3.1,1.9-5,1.9-8.1,2.3L241.6,144.1z"/>
<path class="st0" d="M241.5,144.4l7.8-2.2l-0.2,0.3l-7.8,2.2L241.5,144.4z"/>
<path class="st0" d="M241.3,144.8l7.8-2.2c-0.1,0.1-0.6,0.6-0.7,0.7l-7.4,1.8C241.1,145,241.2,144.9,241.3,144.8z"/>
<path class="st0" d="M241,145.1l8.2-2.7c0,0-1.5,1.6-1.7,1.7l-6.8,1.4C240.9,145.4,241,145.3,241,145.1"/>
<path class="st0" d="M242.5,140.9l6.8,1.6c-0.4,0.8-1.6,1.7-2.1,1.9l-7.8,2.2C239.8,146.3,242.1,141.3,242.5,140.9z"/>
<path class="st0" d="M212,154.1l8.8-1.7l4.6,5.8l-10,3L212,154.1z"/>
<path class="st0" d="M217.6,160.5l7.8-2.2c0.1,0.1,0.2,0.3,0.3,0.5l-7.8,2.2C217.8,160.8,217.7,160.6,217.6,160.5"/>
<path class="st0" d="M217.9,160.9l7.8-2.2c0.2,0.2,0.3,0.5,0.4,0.7l-7.8,2.2C218.2,161.4,218,161.2,217.9,160.9z"/>
<path class="st0" d="M218.3,161.6l7.8-2.2c0.1,0.3,0.2,0.6,0.3,0.9l-7.8,2.2C218.5,162.2,218.4,161.9,218.3,161.6"/>
<path class="st0" d="M218.6,162.5l7.8-2.2c0.1,0.2,0.1,0.4,0.1,0.5l-7.8,2.2C218.7,162.9,218.7,162.7,218.6,162.5z"/>
<path class="st0" d="M218.8,163.1l7.8-2.1c0,0.2,0,0.3,0,0.5l-7.8,2.2C218.8,163.4,218.8,163.3,218.8,163.1"/>
<path class="st0" d="M218.8,163.5l7.8-2.2c0,0.1,0,0.3,0,0.4l-7.8,2.2C218.8,163.8,218.8,163.7,218.8,163.5z"/>
<path class="st0" d="M218.9,163.9l7.8-2.2v0.4l-7.8,2.2V163.9z"/>
<path class="st0" d="M218.9,164.3l7.8-2.2c0,0.1,0,0.2,0,0.3l-7.8,2.2C218.9,164.5,218.9,164.4,218.9,164.3"/>
<path class="st0" d="M218.8,164.6l7.8-2.2c0,0.1,0,0.2,0,0.3l-7.8,2.2C218.8,164.8,218.8,164.7,218.8,164.6z"/>
<path class="st0" d="M218.8,165l7.8-2.2v0.3l-7.8,2.2V165z"/>
<path class="st0" d="M218.8,165.3l7.8-2.2c0,0.1,0,0.2,0,0.3l-8,2.2c0-0.1,0-0.2,0-0.3"/>
<path class="st0" d="M218.6,165.6l7.8-2.2c0,0.1,0,0.2,0,0.3l-7.8,2.2C218.6,165.8,218.6,165.7,218.6,165.6z"/>
<path class="st0" d="M218.6,165.9l7.8-2.2l-0.1,0.3l-7.8,2.2L218.6,165.9"/>
<path class="st0" d="M218.5,166.2l7.8-2.2l-0.1,0.3l-7.8,2.1L218.5,166.2"/>
<path class="st0" d="M218.4,166.5l7.8-2.2c0,0.1,0,0.2-0.1,0.3l-7.8,2.2L218.4,166.5"/>
<path class="st0" d="M218.3,166.8l7.8-2.2l-0.2,0.3l-7.8,2.2L218.3,166.8"/>
<path class="st0" d="M218.1,167.2l7.9-2.2c0,0.1-0.2,0.2-0.2,0.4l-7.8,2.2L218.1,167.2"/>
<path class="st0" d="M217.8,167.5l7.8-2.2c-0.1,0.1-0.2,0.3-0.3,0.4l-7.8,2.2L217.8,167.5z"/>
<path class="st0" d="M217.5,167.9l1.7-10.9l5.5,8.4c-0.5,0.5-0.7,1.3-1.4,1.5l-7.8,2.2c0.7-0.2,1.3-0.6,1.8-1.1L217.5,167.9z"/>
<path class="st0" d="M226.6,152.7l7.8-2.2l10.3,12.9l-7.8,2.2L226.6,152.7z"/>
<path class="st0" d="M231.8,158.2l12.9,5.2c0.1,0.1,0.2,0.3,0.3,0.4l-6.5,6.3l-1.6-4.5"/>
<path class="st0" d="M237.2,166.1l7.8-2.2c0.1,0.2,0.3,0.5,0.4,0.7l-7.8,2.2C237.5,166.6,237.4,166.3,237.2,166.1"/>
<path class="st0" d="M237.6,166.8l7.8-2.2c0.1,0.3,0.2,0.6,0.3,0.9l-7.8,2.2C237.9,167.4,237.8,167.1,237.6,166.8"/>
<path class="st0" d="M238,167.7l7.8-2.2c0,0.2,0.1,0.4,0.1,0.6l-7.8,2.2C238.1,168.1,238,167.9,238,167.7"/>
<path class="st0" d="M238.1,168.3l6.4-4.9c1,1.1,1.4,1.8,1.4,3.2l-7.8,2.2V168.3z"/>
<path class="st0" d="M238.1,168.7l7.6-3.2c0.1,0,0.2,1.2,0.2,1.4l-7.8,2.2C238.1,169,238.1,168.9,238.1,168.7z"/>
<path class="st0" d="M238.2,169.1l7.6-3.2c0.1,0.1,0.2,0.9,0.2,1.4l-7.8,2.2C238.2,169.4,238.2,169.2,238.2,169.1z"/>
<path class="st0" d="M238.2,169.5l7.8-2.2v0.3l-7.8,2.2V169.5z"/>
<path class="st0" d="M238.2,168.5l7.8-0.8c0,0.1,0,0.2,0,0.3l-7.9,2.2c0-0.1,0-0.2,0-0.3"/>
<path class="st0" d="M238.1,170.1l7.8-3.4c0.2,2.3-0.2,3.4-1.9,4.7l-8.4,2.5L238.1,170.1z"/>
<path class="st0" d="M238.1,170.5l7.8-2.2v0.3l-7.8,2.2V170.5"/>
<path class="st0" d="M238,170.8l7.8-2.2v0.3l-7.8,2.2V170.8"/>
<path class="st0" d="M237.9,171.1l7.8-2.2c0,0.1-0.1,0.2-0.1,0.3l-7.8,2.2C237.9,171.3,237.9,171.2,237.9,171.1"/>
<path class="st0" d="M237.8,171.4l7.8-2.2c0,0.1-0.1,0.2-0.1,0.3l-7.8,2.2C237.8,171.6,237.8,171.5,237.8,171.4"/>
<path class="st0" d="M237.7,171.7l7.8-2.2c0,0.1-0.1,0.2-0.1,0.3l-7.8,2.1L237.7,171.7"/>
<path class="st0" d="M237.6,172l7.8-2.2c-0.1,0.1-0.1,0.2-0.2,0.3l-7.8,2.2C237.5,172.2,237.5,172.1,237.6,172"/>
<path class="st0" d="M237.4,172.3l7.8-2.2c-0.1,0.1-0.2,0.2-0.2,0.3l-7.8,2.2L237.4,172.3"/>
<path class="st0" d="M237.1,172.7l7.8-2.2c-0.1,0.1-0.2,0.3-0.3,0.4l-7.8,2.2C236.9,173,237,172.8,237.1,172.7z"/>
<path class="st0" d="M236.8,173.1l7.8-2.2c-0.1,0.1-0.1,0.2-0.2,0.3c-0.5,0.5-1.1,0.9-1.8,1.1l-7.8,2.2c0.5-0.4,0.9-0.4,1.3-0.9
	L236.8,173.1z"/>
<path class="st0" d="M242.4,144.8l4.6-0.4l-14.1,6.9l-6.3,1.4L242.4,144.8z"/>
<path class="st1" d="M179.1,134.5L179.1,134.5L179.1,134.5l18.2-8.6c1-0.5,2-0.5,3.1-0.3c0.8,0.2,1.5,0.6,2.1,1.2
	c0.6,0.5,1.1,1.2,1.4,2l0,0l0,0c0.6,1.2,0.7,2.7,0.3,4c-0.4,1.3-1.3,2.4-2.5,3.1l-6.2,3l-0.2,0.1l0.3,0.1l3,0.8l0,0l0,0l18.1-8.7
	l0,0c0.9-0.5,2-0.5,3-0.3c1,0.3,2,0.9,2.6,1.8c0.7,0.8,1.1,1.8,1.3,2.9c0.1,1.1,0,2.2-0.5,3.1c-0.5,1-1.2,1.8-2.1,2.4l-6.2,2.9
	l-0.2,0.1l0.3,0.1l3,0.8l0,0l0,0l18.1-8.6l0,0c0.9-0.5,2-0.6,3.1-0.3c0.8,0.2,1.5,0.6,2.1,1.1c0.6,0.5,1.1,1.2,1.4,1.9l0,0l0,0
	c0.6,1.2,0.7,2.7,0.3,4c-0.4,1.3-1.3,2.4-2.5,3.1l-13.6,6.5l-0.1,0.1l0.1,0.1l10.3,12.9l0,0c0.9,1.1,1.3,2.5,1.3,3.9
	c-0.1,1.4-0.6,2.7-1.6,3.7c-0.5,0.5-1.2,0.9-2,1.1c-0.7,0.2-1.5,0.2-2.2,0h0c-1.1-0.3-2-0.9-2.7-1.8l-0.1,0.1l0.1-0.1L216,155.4l0,0
	l0,0l-3-0.8l-0.3-0.1l0.2,0.2l4.6,5.9l0,0c0.9,1.1,1.3,2.4,1.3,3.8c-0.1,1.4-0.6,2.7-1.6,3.7c-0.5,0.5-1.2,0.9-2,1.1
	c-0.7,0.2-1.5,0.2-2.2,0l0,0c-1.1-0.3-2-0.9-2.7-1.8l0,0l-13.6-17.2l0,0l0,0l-3-0.8l-0.3-0.1l0.2,0.2l4.6,5.8l0,0
	c0.9,1.1,1.3,2.4,1.3,3.8c-0.1,1.4-0.6,2.7-1.6,3.7c-0.5,0.5-1.2,0.9-2,1.1c-0.7,0.2-1.5,0.2-2.2,0l0,0c-1.1-0.3-2-0.9-2.7-1.8l0,0
	L177.4,145l0,0l0,0l-60.9-17.5c0.3-2.5,1.3-6.3,2.4-9.1L179.1,134.5z"/>
</svg>
