<svg width="43" height="34" viewBox="0 0 43 34" fill="none" xmlns="http://www.w3.org/2000/svg">
<path d="M18 33L18.381 29H25.619L26 33H18Z" fill="#A62E41"/>
<path d="M1 25H42V29H1V25Z" fill="#A62E41"/>
<path fill-rule="evenodd" clip-rule="evenodd" d="M1.68354 1.16446C1.39391 1.16446 1.15912 1.40033 1.15912 1.69129V24.7875H41.8409V1.69129C41.8409 1.40033 41.6061 1.16446 41.3165 1.16446H1.68354ZM1.68354 0H41.3165C42.2462 0 43 0.757213 43 1.69129V28.3087C43 29.2428 42.2462 30 41.3165 30H8.94774C8.62766 30 8.36818 29.7393 8.36818 29.4178C8.36818 29.0962 8.62766 28.8355 8.94774 28.8355H41.3165C41.6061 28.8355 41.8409 28.5997 41.8409 28.3087V25.9519H1.15912V28.3087C1.15912 28.5997 1.39392 28.8355 1.68354 28.8355H6.01888C6.33896 28.8355 6.59844 29.0962 6.59844 29.4178C6.59844 29.7393 6.33896 30 6.01888 30H1.68354C0.753746 30 0 29.2428 0 28.3087V1.69129C0 1.30965 0.125827 0.95753 0.338078 0.674522C0.450507 0.524611 0.587186 0.394091 0.742258 0.288845C1.01095 0.106483 1.33487 0 1.68354 0Z" fill="black"/>
<path fill-rule="evenodd" clip-rule="evenodd" d="M17.4331 29H26.5669L26.7153 30.713C26.7403 31.002 26.4969 31.2544 26.1716 31.2767C25.8463 31.2989 25.5622 31.0826 25.5372 30.7935L25.4728 30.05H18.5272L18.276 32.95H25.724L25.6817 32.4615C25.6566 32.1724 25.9001 31.92 26.2254 31.8978C26.5507 31.8755 26.8347 32.0918 26.8598 32.3809L27 34H17L17.4331 29Z" fill="black"/>
<path fill-rule="evenodd" clip-rule="evenodd" d="M15 33.5C15 33.2239 15.262 33 15.5852 33H27.4148C27.738 33 28 33.2239 28 33.5C28 33.7761 27.738 34 27.4148 34H15.5852C15.262 34 15 33.7761 15 33.5Z" fill="black"/>
</svg>
