<?xml version="1.0" encoding="utf-8"?>
<!-- Generator: Adobe Illustrator 24.0.0, SVG Export Plug-In . SVG Version: 6.00 Build 0)  -->
<svg version="1.1" id="Слой_1" xmlns="http://www.w3.org/2000/svg" xmlns:xlink="http://www.w3.org/1999/xlink" x="0px" y="0px"
	 viewBox="0 0 470 250" style="enable-background:new 0 0 470 250;" xml:space="preserve">
<style type="text/css">
	.st0{fill:#882F40;}
	.st1{fill:#E87891;stroke:#000000;stroke-width:0.2;}
	.st2{fill:#2F527F;}
	.st3{fill:#40689D;}
	.st4{fill:#B4D1FA;stroke:#000000;stroke-width:0.2;}
</style>
<path class="st0" d="M294.9,220.5l-10.6-5.7c0.7-0.1,1.4-0.3,2-0.6l10.6,5.6C296.3,220.1,295.6,220.3,294.9,220.5"/>
<path class="st0" d="M296.9,219.8l-10.6-5.6c0.4-0.2,0.8-0.4,1.1-0.6l10.6,5.7C297.6,219.5,297.3,219.7,296.9,219.8"/>
<path class="st0" d="M296.6,221.7l-11-7.1c1.9-0.9,2.5-1.5,2.8-1.7l16,1.9C304.1,215,296.9,221.5,296.6,221.7L296.6,221.7z"/>
<path class="st0" d="M298.9,218.6l-10.6-5.7c0.3-0.2,3.5-3.6,3.8-3.9l7.5,8.9C299.4,218.2,299.1,218.4,298.9,218.6"/>
<path class="st0" d="M299.6,217.9l-10.6-5.7c0.2-0.2,0.4-0.5,0.6-0.8l10.6,5.7C300,217.4,299.8,217.6,299.6,217.9z"/>
<path class="st0" d="M300.2,217.1l-10.6-5.7l0.6-0.9l10.6,5.7L300.2,217.1z"/>
<path class="st0" d="M300.8,216.2l-10.6-5.6c0.2-0.4,0.4-0.7,0.5-1.1l10.6,5.7C301.1,215.6,301,216,300.8,216.2"/>
<path class="st0" d="M301.9,218.3l-12.1-6.5c0.3-0.9,1.5-4.4,1.5-5.4l10.6,5.7C301.8,213.1,302.2,217.4,301.9,218.3z M280.9,224.9
	l-6.1-8.8l9.6-1.4l16.1,5.9L280.9,224.9z"/>
<path class="st0" d="M281.7,221.2l-10.6-5.7h0.2l10.6,5.7H281.7z"/>
<path class="st0" d="M281.9,221.3l-10.6-5.7c0.3,0.2,0.7,0.3,1.1,0.4l10.6,5.7C282.6,221.6,282.2,221.5,281.9,221.3z M283,221.7
	l-10.6-5.7c0.8,0.2,1.5,0.2,2.3,0.1l10.6,5.7C284.5,221.9,283.7,221.9,283,221.7z M301.8,217.9l-10.5-11.5l0.1-52.8l10.5,5.7
	L301.8,217.9z M277.3,229.3l-10.5-5.7c-2.2-1.3-4-3.2-5.2-5.4s-1.8-4.8-1.7-7.3l10.6,5.7c-0.1,2.6,0.5,5.1,1.7,7.3
	C273.3,226.2,275.1,228,277.3,229.3"/>
<path class="st0" d="M301.9,163.7l-10.5-10.1c0-0.6,0.1-1.2,0.3-1.8l15.4,2.4C306.9,154.8,301.9,163.1,301.9,163.7L301.9,163.7z"/>
<path class="st0" d="M302.2,157.6l-10.6-5.7c0.4-1.9,3-3.5,4.5-3.4l6.3,8.4C302.5,157.1,302.3,157.4,302.2,157.6"/>
<path class="st0" d="M302.5,156.9l-10.5-5.7l0.3-0.6l10.5,5.7C302.9,156.5,302.6,156.7,302.5,156.9"/>
<path class="st0" d="M302.9,156.4l-10.5-5.7c0.1-0.2,0.2-0.3,0.4-0.5l10.6,5.7C303.1,156,303,156.2,302.9,156.4z"/>
<path class="st0" d="M303.3,155.9l-10.6-5.7c0.1-0.2,0.3-0.3,0.4-0.4l10.6,5.7C303.5,155.6,303.4,155.7,303.3,155.9z"/>
<path class="st0" d="M303.7,155.5l-10.6-5.7c0.2-0.1,0.3-0.3,0.5-0.4l10.5,5.8L303.7,155.5 M304.2,155.1l-10.5-5.8l0.7-0.4l10.5,5.7
	L304.2,155.1"/>
<path class="st0" d="M301.9,163.7l-7.6-14.8c0.4-0.2,0.8-0.3,1.2-0.3c0.5-0.1,0.9-0.1,1.4,0l10.5,5.7c-0.1,0,1.1,1,1,1
	c-0.3,0-2-0.1-2.3,0C305.7,155.3,302.3,163.5,301.9,163.7L301.9,163.7z"/>
<path class="st0" d="M307.4,154.4l-10.5-5.7c0.2,0.1,0.4,0.1,0.6,0.2l10.6,5.7C307.9,154.5,307.7,154.4,307.4,154.4L307.4,154.4z
	 M308.1,154.6l-10.6-5.7L308.1,154.6z M303.8,147.4l-10.6-5.7c-0.6-0.4-1.5-1.1-1.7-1.8c-0.4-1.6-0.2-8.8-0.2-9.5l11.9,13.7
	c0,0.7,0.6,0.8,0.9,1.4c0.3,0.6-0.1,1.5,0.5,1.9 M246.2,227.3l-10.6-5.7c0.7-0.1,4.7-1.4,7.9-5.1l4.6,10.3
	C247.5,227,246.8,227.2,246.2,227.3L246.2,227.3z"/>
<path class="st0" d="M248.1,226.7l-10.4-5.7c0.4-0.2,0.8-0.4,1.1-0.6l10.4,5.7C248.9,226.3,248.5,226.5,248.1,226.7L248.1,226.7z"/>
<path class="st0" d="M249.3,226.1l-10.6-5.7c0.3-0.2,0.6-0.4,0.8-0.6l10.6,5.7C249.8,225.7,249.6,226,249.3,226.1"/>
<path class="st0" d="M249.1,226.7l-9.6-6.9l0.7-0.7l15.4,1.1c-0.2,0.2-5.3,5.1-5.5,5.3"/>
<path class="st0" d="M250.8,224.7l-11.5-4.5c0.9-0.9,1.4-1.7,1.6-2l10.6,5.7C251.2,224.2,251,224.5,250.8,224.7L250.8,224.7z"/>
<path class="st0" d="M251.4,223.9l-10.6-5.7c0.2-0.3,1.4-2.1,1.5-3.5l9.6,8.4C251.8,223.3,251.6,223.6,251.4,223.9z"/>
<path class="st0" d="M252,223l-10.6-5.7c0.2-0.4,0.4-0.8,0.5-1.2l10.6,5.7C252.4,222.3,252.2,222.6,252,223z"/>
<path class="st0" d="M250.1,231l-8.1-14.9c0.3-0.9,0.5-1.9,0.5-2.9l11.6,1.3C255.2,216.7,250.4,230.1,250.1,231L250.1,231z"/>
<path class="st0" d="M235,231l-11.1-7.7l11.7-1.6l18.2,4.7L235,231z"/>
<path class="st0" d="M231.9,228.5l-10.6-5.7h0.1L231.9,228.5z"/>
<path class="st0" d="M232.1,228.6l-10.6-5.7c0.2,0.1,0.5,0.2,0.7,0.3l10.6,5.7C232.5,228.8,232.3,228.7,232.1,228.6z"/>
<path class="st0" d="M231.4,229.5l-9.1-6.4c0.5,0.1,1.1,0.1,1.6,0l26.7,4c-0.5,0.1-16.3,3.4-16.8,3.3 M301.9,143.9l-10.6-5.8
	l0.1-62.6l15-0.6l-2.7,69.1L301.9,143.9L301.9,143.9z M227.5,236.7l-10.6-5.7c-1.9-1.1-3.5-2.7-4.5-4.6c-1.1-1.9-1.6-4.1-1.5-6.3
	c0-0.6,0.1-1.2,0.3-1.8l11.3,5.7c-0.2,0.6,0,1.3,0,1.9c-0.1,2.2-0.1,4.1,0.9,6.1C224.5,233.8,225.5,235.6,227.5,236.7"/>
<path class="st0" d="M221.6,227.7l-10.7-7.5c0-2.3,0.9-3.3,1.4-3.3l14.5,4.7C226.6,221.8,221.7,227.4,221.6,227.7z"/>
<path class="st0" d="M222.1,223.3l-10.6-5.8l0.3-0.5l10.6,5.7C222.3,222.9,222.2,223,222.1,223.3 M222.5,222.7l-10.6-5.7
	c0.1-0.2,0.2-0.3,0.4-0.5l10.6,5.7C222.7,222.4,222.6,222.6,222.5,222.7z"/>
<path class="st0" d="M222.8,222.3l-10.6-5.7l0.4-0.4l10.6,5.7C223.1,222,222.9,222.1,222.8,222.3"/>
<path class="st0" d="M223.2,221.8l-11.9-4c0.9-1.9,2.3-2.8,3.7-2.8l8.8,6.4L223.2,221.8"/>
<path class="st0" d="M223.8,221.4l-10.5-5.7c0.2-0.1,0.4-0.3,0.6-0.4l10.6,5.7C224.3,221.2,224,221.3,223.8,221.4z"/>
<path class="st0" d="M224.8,221.6l-11-6.3c0.4-0.2,0.8-0.3,1.2-0.4c0.5-0.1,1-0.1,1.4,0l11.2,6.2c-0.5-0.1-1.4-0.1-1.9,0
	C225.4,221.2,225.2,221.4,224.8,221.6z M303,82.5l-11.5-6.9c0-1.2-0.2-2.3-0.8-3.4c-0.6-1-1.4-1.9-2.4-2.5l11.7,4.8
	c1,0.6,1.8,1.4,2.4,2.5C303,78,303,81.3,303,82.5z"/>
<path class="st0" d="M223.4,219.8l-10.6-5.7c-0.6-0.4-1.1-0.9-1.4-1.5s-0.5-1.3-0.5-2l10.6,5.7c-0.1,0.7,0.1,1.4,0.4,2.1
	C222.3,218.9,222.8,219.4,223.4,219.8z M295.2,66l-10.6-5.7c1.7-0.3,3.5-0.2,5.2,0.3l13.4,6.8C301.6,66.9,297,65.7,295.2,66
	L295.2,66z"/>
<path class="st0" d="M300.4,66.2l-10.6-5.7c0.8,0.2,1.6,0.5,2.3,0.9l10.6,5.7C302,66.8,301.2,66.5,300.4,66.2z M302.8,67.1
	l-10.6-5.7l0.5,0.2l10.6,5.7C303.1,67.2,303,67.1,302.8,67.1 M253.1,218.9l-10.6-5.7l0.1-84.5l10.6,5.7L253.1,218.9z M281.2,71.1
	l-6.1-9.5l9.6-1.3l14.2,6.2L281.2,71.1z"/>
<path class="st0" d="M254.4,139.1l-11.8-10.3c0.1-1.2-0.2-2.3-0.8-3.3s-1.4-1.9-2.4-2.5l10.5,5.7c1,0.6,1.8,1.4,2.4,2.5
	C253,132.2,254.5,137.9,254.4,139.1L254.4,139.1z M276.7,228.1l-17-17.3L259.9,80l15.2-1.4L276.7,228.1z"/>
<path class="st0" d="M265.5,102.4L260,80.1c0-2.2,0.4-4.3,1.2-6.4l14.6,1.8C275,77.5,265.5,100.2,265.5,102.4z"/>
<path class="st0" d="M271.7,79.3l-10.6-5.7c0.3-0.9,0.7-1.7,1.1-2.5l10.6,5.7C272.4,77.6,272,78.5,271.7,79.3z M272.8,76.8
	l-10.6-5.7c0.4-0.7,0.8-1.4,1.2-2l10.6,5.7C273.6,75.4,273.2,76.1,272.8,76.8z M274,74.8l-10.6-5.7c0.4-0.6,0.9-1.2,1.4-1.7
	l10.6,5.7C274.9,73.6,274.4,74.2,274,74.8z M275.4,73.1l-10.6-5.8c0.5-0.6,1-1.1,1.6-1.6l10.7,5.8C276.6,72,276,72.5,275.4,73.1"/>
<path class="st0" d="M277.1,71.5l-10.6-5.7c0.6-0.5,1.2-1,1.8-1.4l10.6,5.7C278.3,70.5,277.6,71,277.1,71.5z"/>
<path class="st0" d="M278.8,70.1l-10.6-5.7c0.8-0.5,1.6-1,2.5-1.4l10.5,5.7C280.4,69,279.6,69.5,278.8,70.1z"/>
<path class="st0" d="M270,76.5l0.7-13.6c1.4-0.7,2.9-1.1,4.4-1.3l10.5,5.7c-1.5,0.2-5.7,6.1-7.1,6.7"/>
<path class="st1" d="M295.2,66.1c8.2-1.2,15,5.1,15,14.1v62.6c0,1.2-0.4,2.3-1.1,3.2s-1.8,1.5-2.9,1.7c-0.5,0.1-1.1,0-1.6-0.1
	c-0.5-0.2-1-0.4-1.3-0.8c-0.4-0.4-0.7-0.8-0.9-1.3s-0.3-1-0.2-1.5V81.3c0.1-0.9-0.1-1.8-0.4-2.7c-0.3-0.9-0.9-1.6-1.5-2.3
	c-0.7-0.6-1.5-1.1-2.4-1.4s-1.8-0.3-2.7-0.2l-9.6,1.3c-2,0.4-3.8,1.4-5,3c-1.3,1.5-2,3.5-2,5.5l-0.3,130.8c-0.1,0.9,0.1,1.8,0.4,2.7
	s0.9,1.6,1.5,2.3c0.7,0.6,1.5,1.1,2.4,1.4c0.9,0.3,1.8,0.3,2.7,0.2l9.6-1.4c2-0.4,3.8-1.4,5-2.9c1.3-1.5,2-3.5,2-5.5l0.1-52.8
	c0-1.2,0.4-2.3,1.1-3.2s1.8-1.5,2.9-1.7c0.5-0.1,1.1,0,1.6,0.1c0.5,0.2,1,0.4,1.3,0.8c0.4,0.4,0.7,0.8,0.9,1.3
	c0.2,0.5,0.3,1,0.2,1.5V211c0,8.9-6.9,17.1-15.1,18.4l-9.6,1.3c-8.3,1.2-15-5.1-15-14l0.1-130.9c0-4.3,1.5-8.5,4.2-11.9
	c2.8-3.4,6.6-5.6,10.8-6.5L295.2,66.1z"/>
<path class="st0" d="M246.3,119.2l-12.6-5.4c4.2-0.9,5.8-0.4,7.5,0l10.4,5.7C249.9,119,248.1,118.9,246.3,119.2"/>
<path class="st0" d="M241.7,121.7l-0.6-8c0.8,0.2,1.6,0.5,2.3,0.9l10.6,5.7c-0.7-0.4-7.3,0.2-8.1,0"/>
<path class="st0" d="M253.9,120.3l-10.6-5.7l0.5,0.2l10.6,5.6L253.9,120.3"/>
<path class="st2" d="M299.7,28.8L285,23.1c-0.6-0.4-1.1-0.9-1.5-1.5l10.2,5.8C298,30.7,299,28.5,299.7,28.8z"/>
<path class="st0" d="M233,123.9l-6.8-9.2l9.6-1.3l14.9,7.1L233,123.9z"/>
<path class="st3" d="M294.6,10.8L284,5.1c0.3,0.1,0.5,0.2,0.7,0.3l10.6,5.7C295.1,11,294.8,10.9,294.6,10.8z"/>
<path class="st3" d="M293.5,12.9l-12.1-7.5c1-0.3,1.5-0.5,2.7-0.4l10.5,5.7L293.5,12.9L293.5,12.9z"/>
<path class="st3" d="M292.7,10.8l-10.6-5.7c0.5-0.1,0.9-0.1,1.4,0l10.6,5.7C293.6,10.7,293.1,10.7,292.7,10.8z"/>
<path class="st3" d="M292.2,10.9l-10.6-5.7l0.5-0.1l10.6,5.7L292.2,10.9z"/>
<path class="st0" d="M223,218.2l-12-7.4l0.1-77.7l19.1-11.9L223,218.2L223,218.2z"/>
<path class="st3" d="M290.9,11.7L280.3,6l0.3-0.2l10.6,5.7L290.9,11.7 M291.2,11.4l-10.6-5.7l0.6-0.3l10.6,5.7L291.2,11.4z
	 M291.8,11.1l-10.6-5.7l0.4-0.2l10.6,5.7L291.8,11.1"/>
<path class="st0" d="M221.6,138.9l-10.6-5.8c0-2.2,0.4-4.3,1.2-6.4l10.6,5.7C222,134.6,221.7,136.7,221.6,138.9"/>
<path class="st0" d="M219.3,142.8l-7-16c0.3-0.9,0.7-1.7,1.2-2.5l24-4.8C237,120.2,219.6,141.9,219.3,142.8z"/>
<path class="st0" d="M224,130l-10.6-5.7c0.4-0.7,0.8-1.4,1.2-2l10.6,5.7C224.7,128.6,224.3,129.3,224,130z"/>
<path class="st0" d="M225.2,128l-10.6-5.7c0.4-0.6,0.9-1.2,1.4-1.7l10.6,5.7C226,126.8,225.5,127.4,225.2,128"/>
<path class="st0" d="M226.5,126.3l-10.6-5.8c0.5-0.6,1-1.1,1.6-1.6l10.6,5.7C227.6,125.1,227,125.6,226.5,126.3"/>
<path class="st0" d="M223,135.7l-8.9-12.6c2.3-4.2,4.6-5.1,5.3-5.6l23.7,2.8C242.4,120.7,223.6,135.2,223,135.7z"/>
<path class="st0" d="M221.6,132.7l-2.2-15.2c0.8-0.5,1.6-1,2.5-1.4l10.6,5.7C231.5,122.2,222.4,132.2,221.6,132.7z"/>
<path class="st0" d="M224.2,131.5l-2.3-15.4c1.4-0.7,2.9-1.1,4.4-1.3l19.1,6.5c-1.5,0.2-13,2.5-14.4,3.1"/>
<path class="st3" d="M290.5,12L280,6.3c0.7-0.7,1.1-1,1.8-0.8l11.2,6.1L290.5,12z"/>
<path class="st1" d="M246.4,119.3c8.3-1.2,15,5.2,15,14.1l-0.2,84.5c0,8.9-6.8,17.2-15.1,18.4l-11.7,1.7c-7.1,1-12.8-4.4-12.8-12.1
	c0-1.2,0.4-2.3,1.1-3.2s1.8-1.5,2.9-1.7c0.5-0.1,1.1,0,1.6,0.1c0.5,0.2,1,0.4,1.3,0.8c0.4,0.4,0.7,0.8,0.9,1.3
	c0.2,0.5,0.3,1,0.2,1.5c0,0.6,0.1,1.2,0.3,1.8c0.2,0.6,0.6,1.1,1,1.5c0.5,0.4,1,0.8,1.6,1s1.2,0.3,1.8,0.2l11.7-1.6
	c2-0.4,3.8-1.4,5-3c1.3-1.5,2-3.5,2-5.5l0.1-84.5c0.1-0.9-0.1-1.8-0.4-2.7s-0.9-1.6-1.5-2.3c-0.7-0.6-1.5-1.1-2.4-1.4
	c-0.9-0.3-1.8-0.3-2.7-0.2l-9.6,1.3c-2,0.4-3.7,1.4-5,3c-1.3,1.5-2,3.5-2,5.5v77.4c0,1.2-0.4,2.3-1.1,3.2s-1.8,1.5-2.9,1.7
	c-0.5,0.1-1.1,0-1.6-0.1c-0.5-0.2-1-0.4-1.4-0.8c-0.4-0.4-0.7-0.8-0.9-1.3c-0.2-0.5-0.2-1-0.2-1.6l0.1-77.3c0-4.3,1.5-8.5,4.2-11.9
	s6.6-5.6,10.8-6.5L246.4,119.3L246.4,119.3z"/>
<path class="st3" d="M282,23.5l-11.5-8.3l9.5-9l14.6,5.8L282,23.5z M170.2,132.7l-8.5-3.8c-0.5-0.3-1.8-2-2.1-2.5s-0.5-1.2-0.5-1.8
	c0-0.7,0.1-1.4,0.3-2.1l20,1.2c-0.3,0.7-9.8,5.2-9.8,5.9c0,0.6,0.1,1.2,0.4,1.8C170.3,131.9,169.6,132.4,170.2,132.7z"/>
<path class="st3" d="M169.9,128.3l-10.6-5.6c0.1-0.3,0.2-0.6,0.3-0.8l10.6,5.7C170.1,127.8,170,128,169.9,128.3z M170.2,127.6
	l-10.6-5.7l0.3-0.6l10.6,5.7C170.5,127.2,170.4,127.4,170.2,127.6 M170.5,127l-10.6-5.7c0.1-0.2,0.2-0.3,0.4-0.5l10.5,5.7L170.5,127
	"/>
<path class="st3" d="M170.8,126.5l-10.8-5.4c0.4-0.6,0.6-0.7,0.7-0.8l10.6,5.7C171.1,126.2,170.9,126.3,170.8,126.5"/>
<path class="st3" d="M169.7,130.1l-9-9.6c0.2-0.2,0.4-0.3,0.6-0.4l10.5,5.7C171.6,125.9,169.9,129.9,169.7,130.1z"/>
<path class="st3" d="M171.8,125.8l-10.7-5.6c0.6-0.6,1.6-0.8,1.9-0.9l9.6,5.9C172.3,125.5,172.1,125.6,171.8,125.8"/>
<path class="st3" d="M159.4,122.5l1.1-1.9c0.4-0.5,2-1.2,2.3-1.2c10.9-2.5,21.5-6.2,31.6-11.1h29.5c-10.1,4.9-39.6,14.3-50.6,16.8
	l-0.9,0.3"/>
<path class="st3" d="M205.7,116.1l-11.2-7.8c8.8-4.1,17.3-9,25.3-14.5l35.9-9.2C247.6,90.1,214.5,111.9,205.7,116.1L205.7,116.1z"/>
<path class="st3" d="M218.6,111.9l1.2-18.1c5.8-4,11.3-8.3,16.5-13l10.6,5.7C241.6,91.2,224.4,107.9,218.6,111.9z"/>
<path class="st3" d="M247.5,88.5l-11.3-7.7c4.2-3.8,8.2-7.8,12-12.1L263,74C259.2,78.3,251.7,84.7,247.5,88.5z"/>
<path class="st3" d="M258.5,76.5l-10.2-7.8c3.4-3.8,6.6-7.9,9.5-12.1l25.3-9.6C280.1,51.2,261.9,72.7,258.5,76.5z"/>
<path class="st3" d="M256.6,83l1.2-26.4c3-4.2,5.7-8.6,8.1-13.2l21.3-5.3C284.7,42.7,259.6,78.8,256.6,83z"/>
<path class="st3" d="M276.5,49.2l-10.6-5.7c2.9-5.3,5.3-10.8,7.4-16.5h17c-2.1,5.7-9.6,18.4-12.5,23.7"/>
<path class="st3" d="M284,32.7L273.4,27c0.6-1.7,1.2-3.3,1.7-5.1l10.6,5.7C285.1,29.5,284.5,31.1,284,32.7z"/>
<path class="st3" d="M281.3,28.2l-10.5-5.7c-0.4-0.2-0.8-0.6-1.1-0.9c-0.4-0.6-0.7-1.3-0.8-2.1c-0.1-0.7,0-1.5,0.3-2.2l10.6,5.7
	c-0.3,0.7-0.4,1.5-0.3,2.2s0.4,1.5,0.8,2.1C280.5,27.7,280.9,28,281.3,28.2z"/>
<path class="st3" d="M281.7,28l-12.6-10.7c0-0.2,0.2-0.5,0.3-0.7l14.1,5C283.4,21.8,281.8,27.7,281.7,28z"/>
<path class="st3" d="M280,22.3l-10.8-2c-0.5-1.9-0.5-3.3,0.6-4.4l10.6,5.7C280.2,21.9,280.1,22,280,22.3"/>
<path class="st3" d="M280.3,21.8l-11.1-4.7c0.3-0.6,0.4-1,0.9-1.5l10.6,5.7L280.3,21.8"/>
<path class="st3" d="M279.9,22.7l-9.8-7.1l1.4-1.3l9.3,6.5c0.4-0.2,0.6,0.4,0.5,0.5"/>
<path class="st0" d="M188.9,238l-4.9-9.1c0.7-0.1,3.9-0.6,6.1-4.8l9.8,8.4C199.2,232.7,189.6,237.9,188.9,238L188.9,238z"/>
<path class="st0" d="M196.5,234l-10.5-5.8c0.4-0.2,0.8-0.4,1.1-0.6l10.6,5.7C197.3,233.6,196.9,233.8,196.5,234L196.5,234z"/>
<path class="st0" d="M197.6,233.3l-10.6-5.7c0.3-0.2,0.6-0.4,0.8-0.6l10.6,5.7C198.2,232.9,197.9,233.1,197.6,233.3z M198.5,232.7
	l-10.6-5.7l0.7-0.7l10.5,5.7C199,232.2,198.7,232.4,198.5,232.7z M199.2,232l-10.5-5.7c0.2-0.2,0.4-0.5,0.6-0.8l10.6,5.7
	C199.6,231.4,199.4,231.7,199.2,232z"/>
<path class="st0" d="M187.5,242.6l1.7-17.2l0.6-0.9l13.5,5.5C203.2,230.3,187.7,242.3,187.5,242.6L187.5,242.6z"/>
<path class="st0" d="M200.3,230.3l-10.5-5.7c0.2-0.4,0.4-0.8,0.5-1.2l10.6,5.7C200.7,229.4,200.6,229.8,200.3,230.3"/>
<path class="st0" d="M202.9,231.4l-13.5-5.2c2-4.3,1.5-7.5,1.5-8.5h12.5c0,1,0.3,11.4,0,12.4 M186.6,239.8l-12.1-9.6l9.6-1.3
	l10.6,5.7L186.6,239.8L186.6,239.8z"/>
<path class="st0" d="M181.3,235.3l-10.5-5.7h0.2l10.5,5.7H181.3z"/>
<path class="st0" d="M181.5,235.4l-10.5-5.7c0.3,0.2,0.7,0.3,1.1,0.4l10.5,5.7C182.2,235.7,181.8,235.6,181.5,235.4z"/>
<path class="st0" d="M182.6,235.8l-10.6-5.7c0.8,0.1,1.5,0.1,2.3,0L185,236c-0.8,0.1-1.5,0.1-2.3,0"/>
<path class="st0" d="M176.9,243.4l-10.6-5.7c-2.2-1.3-4-3.2-5.2-5.4s-1.8-4.8-1.7-7.3l12-0.6c-0.1,2.6-1,11.4,0.2,13.7
	C172.9,240.2,174.7,242.1,176.9,243.4z M203.4,228.1l-12.5-7.6l0.1-66l12.4-3V228.1L203.4,228.1z"/>
<path class="st0" d="M201.5,160.3l-10.5-5.7c0-1.2-0.2-2.3-0.8-3.4s-1.4-1.9-2.4-2.5l10.6,5.7c1,0.6,1.8,1.4,2.4,2.5
	C201.3,158,201.6,159.1,201.5,160.3 M194.7,145l-10.6-5.7c1.7-0.3,3.5-0.2,5.2,0.3l10.6,5.7C198.2,144.8,196.4,144.7,194.7,145z"/>
<path class="st0" d="M190.6,146l-1.2-6.5c0.8,0.2,1.6,0.5,2.3,0.9l10.6,5.7c-0.7-0.4-2.1,0.8-2.9,0.6"/>
<path class="st0" d="M202.3,146.1l-10.6-5.7l0.5,0.3l10.6,5.7L202.3,146.1z M169.8,230.6l-10.5-5v-56.1l10.6,5.7L169.8,230.6z
	 M184.5,146.4l-10.5-5.8l10.2-1.4l13.8,5.7L184.5,146.4z"/>
<path class="st0" d="M169.8,177.4l-10.5-7.9c0-0.6,0.3-1.7,0.7-2.4l13,3.9c-0.2,0.6-2.6,5.8-2.6,6.4"/>
<path class="st0" d="M170.1,176l-10.4-8.2c0.1-0.2,0.2-0.5,0.3-0.7l11.8,4.3c-0.1,0.2-1.5,1.9-1.6,2.2"/>
<path class="st0" d="M170.6,172.8l-10.6-5.7c0.1-0.2,0.5-0.7,0.8-0.8l10.1,6.1c-0.1,0.2-0.3,0.4-0.3,0.6"/>
<path class="st0" d="M170.7,173.5l-10.3-6.8c0.1-0.2,1.4-1.6,2.8-2l11.2,6.1c-0.1,0.1-3.4,1.5-3.5,1.7"/>
<path class="st0" d="M171.3,171.8l-10.4-5.3l0.4-0.4l10.4,5.3C171.6,171.4,171.4,171.6,171.3,171.8 M171.7,171.3l-9.9-5.3
	c0.2-0.1,0.3-0.3,0.5-0.4l9.9,5.4C172,171.1,171.9,171.2,171.7,171.3"/>
<path class="st0" d="M172.2,171l-10.4-5.4l0.7-0.4l10.4,5.4L172.2,171z"/>
<path class="st0" d="M172.9,170.6l-10.6-5.5c0.4-0.2,0.9-0.5,1.4-0.6s0.9-0.1,1.4,0l11.2,6.2c-0.5-0.1-1.6-0.5-2.1-0.5
	C173.7,170.3,173.3,170.4,172.9,170.6L172.9,170.6z"/>
<path class="st0" d="M175.5,170.3l-10.5-5.7c0.2,0.1,0.4,0.1,0.6,0.2l10.6,5.7C176,170.4,175.7,170.4,175.5,170.3z M171.9,167.5
	l-10.6-5.7c-0.6-0.4-1.1-0.9-1.4-1.5c-0.3-0.6-0.5-1.3-0.5-2c0-2.1,0.4-4.2,1.1-6.1l10.6,5.7c-0.7,2-1.1,4-1.1,6.1
	c0,0.7,0.1,1.4,0.5,2C170.8,166.7,171.3,167.2,171.9,167.5z"/>
<path class="st0" d="M170.3,161.2l-9.8-9c0.3-0.8,0.7-1.7,1.1-2.4l16.1,0.3C177.4,150.8,170.6,160.4,170.3,161.2L170.3,161.2z"/>
<path class="st0" d="M172.2,155.5l-10.5-5.7c0.4-0.7,0.7-1.3,1.2-1.9l10.6,5.7C172.9,154.2,172.6,154.8,172.2,155.5z"/>
<path class="st0" d="M173.4,153.6l-10.6-5.7c0.4-0.6,0.8-1.1,1.3-1.7l10.6,5.7C174.2,152.4,173.8,153,173.4,153.6z"/>
<path class="st0" d="M161.7,149.8l2.5-3.6l1.5-1.5l15.5,0.8c-0.5,0.5-6,6-6.4,6.5"/>
<path class="st0" d="M176.2,150.5l-10.5-5.8c0.6-0.5,1.1-1,1.8-1.4l10.6,5.7C177.3,149.4,176.7,149.9,176.2,150.5"/>
<path class="st0" d="M164.5,154.4l2.9-11.1c0.7-0.5,1.5-1,2.3-1.4l20.9,2.8c-0.8,0.4-11.8,3.8-12.6,4.3"/>
<path class="st0" d="M176.3,154.4l-6.5-12.4c1.3-0.6,2.8-1.1,4.2-1.3l16.8,5.3c-1.5,0.2-7.5,3.1-8.9,3.7"/>
<path class="st1" d="M194.7,145.1c8.3-1.2,15,5.1,15,14l-0.1,65.9c0,8.9-6.8,17.1-15.1,18.4l-9.6,1.3c-8.3,1.2-15-5.2-15-14.1
	l0.1-55.4c0-1.2,0.4-2.3,1.1-3.2c0.7-0.9,1.8-1.5,2.9-1.7c0.5-0.1,1,0,1.5,0.1c0.5,0.2,1,0.4,1.3,0.8c0.4,0.4,0.7,0.8,0.9,1.3
	s0.3,1,0.2,1.5v55.4c-0.1,0.9,0.1,1.8,0.4,2.7s0.9,1.6,1.5,2.3c0.7,0.6,1.5,1.1,2.4,1.4c0.9,0.3,1.8,0.3,2.7,0.2l9.6-1.3
	c2-0.4,3.7-1.4,5-3c1.3-1.5,2-3.5,2-5.5l0.1-65.9c0.1-0.9-0.1-1.8-0.4-2.7s-0.9-1.6-1.5-2.3c-0.7-0.6-1.5-1.1-2.4-1.4
	c-0.9-0.3-1.8-0.3-2.7-0.2l-10.4,1.4c-1.8,0.4-3.4,1.3-4.6,2.7c-1.2,1.4-1.8,3.2-1.8,5c0,1.2-0.4,2.3-1.1,3.2s-1.8,1.5-2.9,1.7
	c-0.5,0.1-1.1,0-1.6-0.1c-0.5-0.2-1-0.4-1.3-0.8c-0.4-0.4-0.7-0.8-0.9-1.3s-0.3-1-0.2-1.5c0-4.1,1.4-8.2,4.1-11.4
	c2.6-3.2,6.3-5.4,10.3-6.2L194.7,145.1L194.7,145.1z"/>
<path class="st4" d="M286.4,27.6c0,0.1,0,0.1-0.1,0.2C286.4,27.8,286.4,27.7,286.4,27.6z M286.4,27.6c-0.1,0-0.1,0.1-0.1,0.1
	S286.4,27.7,286.4,27.6z M294.3,27.8c-22.6,66.8-74.4,91.8-113.3,103.8c-6.2,1.9-6.9,1.4-10,1.2c-4.5-0.3-4.9-6.1-0.5-7.2l2.9-0.6
	l4.7-1.1c89.8-25.8,108.4-96.2,108.4-96.2c-3.2,2.1-4.7,0.3-4.7,0.3c-4.7-4.4,1.4-8.2,1.4-8.2l10.4-8.9c1.1-0.1,2.1,0.4,2.5,1.4
	c1.4,2.8,4.5,9.1,5.2,11.3c1.5,4.7,0.3,5.1-0.2,5.7C298.3,32.7,294.3,27.8,294.3,27.8z"/>
</svg>
