<?xml version="1.0" encoding="utf-8"?>
<!-- Generator: Adobe Illustrator 23.0.3, SVG Export Plug-In . SVG Version: 6.00 Build 0)  -->
<svg version="1.1" id="Слой_1" xmlns="http://www.w3.org/2000/svg" xmlns:xlink="http://www.w3.org/1999/xlink" x="0px" y="0px"
	 viewBox="0 0 250 250" style="enable-background:new 0 0 250 250;" xml:space="preserve">
<style type="text/css">
	.st0{fill:#40689D;}
	.st1{fill:#9A384B;}
	.st2{fill:#793E4B;}
	.st3{fill:#882F40;}
	.st4{fill:#E87891;stroke:#000000;stroke-width:0.2;}
	.st5{fill:#B4D1FA;stroke:#000000;stroke-width:0.2;}
	.st6{fill:#D6516B;stroke:#000000;stroke-width:0.1;}
</style>
<path class="st0" d="M98.3,37.2l-9-12.4c7.9-1.1,15.9-0.7,23.6,1.2l14.1,7.7c-7.7-2-16.5,1.1-23.6-1.2"/>
<path class="st0" d="M66.9,173.5l-14.1-7.7c-19-10.4-31.6-31.6-31.6-57.9c0-9.9,1.8-19.7,5.2-29l21-1.6c-3.4,9.3-7.8,28.1-7.8,38
	c0,26.2,8.2,47.6,27.2,58"/>
<path class="st0" d="M37.9,116L26.4,79c1.5-3.9,3.3-7.8,5.3-11.5L50,71.2c-2,3.7-4.3,15-5.7,18.9"/>
<path class="st0" d="M45.7,75.2l-14-7.7c1.7-3.1,3.5-6.1,5.5-9l33.9-10c-2,2.9-23.7,23.6-25.4,26.7"/>
<path class="st0" d="M51.2,66.2l-14.1-7.7c1.9-2.7,4-5.3,6.2-7.8l23.5,2.2C64.6,55.4,53.2,63.5,51.2,66.2"/>
<path class="st0" d="M57.4,58.4l-14.1-7.7c2.2-2.5,4.6-4.8,7.1-7l14.1,7.7c-2.4,2.2-4.8,4.6-6.9,7"/>
<path class="st0" d="M64.3,51.4l-14-7.7c2.6-2.3,5.4-4.5,8.2-6.5l14.1,7.7c-2.9,2-5.6,4.2-8.2,6.5"/>
<path class="st0" d="M52.8,65l5.6-27.9c3.5-2.4,7.2-4.6,11.1-6.4l14.1,7.7c-3.8,1.8-7.5,4-11.1,6.4"/>
<path class="st0" d="M79.5,46.6L69.5,30.8c6.3-3,13-5,19.9-6l14.1,7.7c-6.9,1-13.6,3-19.9,6"/>
<path class="st0" d="M118.4,39.5L113,26c3.7,1,7.3,2.3,10.7,4l14.1,7.7c-3.4-1.7-7-3-10.7-4"/>
<path class="st0" d="M137.8,37.7L123.7,30c0.7,0.3,1.4,0.7,2,1.1l14.1,7.7C139.1,38.4,138.5,38,137.8,37.7z"/>
<path class="st1" d="M234.3,222.5l-14.1-7.7c0.1-0.1,0.3-0.3,0.4-0.5l14.3,7.7l-0.4,0.5"/>
<path class="st1" d="M234.9,222l-14.9-6.7c0.6-1,0.9-1.5,1.5-2.5l13.9,8.4L234.9,222z"/>
<path class="st1" d="M235.2,221.2l-14.1-7.8c0.2-0.3,0.3-0.7,0.5-1l14.1,7.7C235.5,220.5,235.4,220.8,235.2,221.2"/>
<path class="st1" d="M235.7,220.2l-14.1-7.7c0.2-0.5,0.3-1.1,0.4-1.6l14.1,7.7C236,219.1,235.8,219.7,235.7,220.2z"/>
<path class="st1" d="M236.9,221.3L222,210.9l0.2-1.8l14.1,7.7L236.9,221.3z"/>
<path class="st1" d="M229.1,235.9l-16.9-11.3l8.4-10.3l21.6-4.2L229.1,235.9z"/>
<path class="st1" d="M220,236.2l-11.2-9.2l0.8-0.3l17.8,6.5L220,236.2z"/>
<path class="st1" d="M223.7,234.4l-14.1-7.7c0.3-0.2,0.7-0.4,1-0.6l18.8,3.2C229.1,229.6,224.1,234.2,223.7,234.4z"/>
<path class="st1" d="M224.7,233.8l-14.1-7.7l0.7-0.6l14.2,7.7L224.7,233.8"/>
<path class="st1" d="M225.6,233.2l-14.5-7.4c0.2-0.2,1.3-1.3,1.5-1.5l13.7,8.3C226,232.8,225.8,233,225.6,233.2z"/>
<path class="st1" d="M226.1,232.6l-14.1-7.7l0.2-0.2l14.1,7.7L226.1,232.6z"/>
<path class="st1" d="M226.4,222.9l-4.2-13.8c0.2-0.9,0.1-1.9-0.2-2.8c-0.3-0.9-0.8-1.8-1.4-2.4l14.5,4.7c0.7,0.7,0.8,4.5,1.1,5.4
	c0.3,0.9,0.3,1.9,0.2,2.8"/>
<path class="st1" d="M221.3,235.2l-14.1-7.7l1.6-0.5l14.1,7.7L221.3,235.2z"/>
<path class="st1" d="M217.2,234.9l-14.1-7.7L217.2,234.9h-0.2"/>
<path class="st1" d="M217.4,235l-14.1-7.7l0.9,0.3l14.1,7.6l-0.9-0.3"/>
<path class="st1" d="M217.5,235.7l-13.3-8.1c0.7,0.1,1.4,0.1,2,0c0.3,0,0.6-0.1,0.9-0.2l14.1,7.8c-0.3,0.1-0.6,0.2-0.9,0.2
	c-0.7,0.1-1.4,0.1-2,0"/>
<path class="st1" d="M212.8,242.8l-14.1-7.6c-0.8-0.5-1.6-1-2.3-1.7l13.9,3.8c0.7,0.7,3.5,4.4,4.4,4.8"/>
<path class="st1" d="M234.7,211.5l-14.1-7.7l-46-43.5l14.1,7.7L234.7,211.5z"/>
<path class="st2" d="M188.7,168l-14.1-7.7c-0.3-0.3-0.6-0.5-1-0.7l14.1,7.7C188.1,167.5,188.4,167.8,188.7,168"/>
<path class="st1" d="M213.8,243.3l-17.4-9.9l-46-43.5l20.9,5.7L213.8,243.3z"/>
<path class="st1" d="M179.7,162.4l-11.1-11.5c0.7-0.2,1.4-0.4,2.1-0.5c1.6-0.2,3.2-0.2,4.8,0.2c4.8,1.5,16.6,8.6,16.6,8.6
	c-1.5-0.4-6-0.2-7.5,0c-0.7,0.1-1.6,0.4-2.3,0.7"/>
<path class="st1" d="M189.5,158.4l-14.1-7.7c0.7,0.2,1.5,0.5,2.2,0.8l14,7.7c-0.7-0.3-1.4-0.6-2.2-0.8"/>
<path class="st1" d="M191.5,159.2l-14-7.8l0.4,0.2l14.1,7.7L191.5,159.2z"/>
<path class="st1" d="M179.7,159.5l-14.1-7.7l3-0.9l14.1,7.7L179.7,159.5z"/>
<path class="st1" d="M164.6,197.6l-14.1-7.7c-1.6-1.6-2.7-3.5-3.4-5.7c-0.7-2.1-0.8-4.4-0.4-6.6l14.1,7.7c-0.4,2.2-0.3,4.5,0.4,6.7
	c0.7,2.2,8.7,4.4,10.2,6"/>
<path class="st1" d="M162.5,195.1l-15.9-17.4l0.5-3.3l16.2,7.3L162.5,195.1z"/>
<path class="st1" d="M165.9,176.1l-14.6-10l7.7-9.6l17.2,10.6L165.9,176.1z"/>
<path class="st3" d="M174.6,166.3l-15.8-9.2l-5.2-4.2l14.1,7.7L174.6,166.3z"/>
<path class="st3" d="M165.4,184.3l-18.3-9.9l-8.8-8.3l17.2,3.6L165.4,184.3z"/>
<path class="st1" d="M62.6,182.4l-14.1-7.7l2.2,1.1l14.1,7.7L62.6,182.4z"/>
<path class="st1" d="M62.3,185.6l-11.6-9.8c3.8,1.9,7.7,3.3,11.8,4.4l21.8,10.3C80.2,189.4,66.1,187.5,62.3,185.6z"/>
<path class="st1" d="M76.7,187.9l-14.1-7.7c8.6,2.2,17.5,2.6,26.3,1.4l0,0c7.5-1.1,15.6-3.4,22.5-6.7l14.7,7.6
	c-6.4,4.1-14.9,5.8-22.4,7h-0.5c-8.8,1.3-17.8,1.2-26.3-1"/>
<path class="st1" d="M126,183l-14.9-7.9c4.4-2.1,8.9-4.9,12.9-7.7l22.4,4.7C142.4,174.9,130.4,181,126,183z"/>
<path class="st1" d="M138.9,175.6l-15-8.1c3.3-2.3,6.5-4.8,9.4-7.5l15,7.6C145.4,170.3,142.3,173.3,138.9,175.6z"/>
<path class="st1" d="M148.8,168.1l-15.4-8.1c2.8-2.5,5.5-5.2,8-8.1l15.4,8.1C154.3,162.9,151.7,165.6,148.8,168.1z"/>
<path class="st1" d="M152.7,165.5l-11.3-13.6c2.5-2.9,4.9-5.9,7.1-9l18.5,4.7C164.8,150.8,155.3,162.6,152.7,165.5z"/>
<path class="st1" d="M164.3,151.2l-15.8-8.3c2.3-3.4,4.5-6.8,6.4-10.4l15.8,8.3C168.8,144.4,166.6,147.8,164.3,151.2z"/>
<path class="st1" d="M170.8,141.1l-15.8-8.6c2.3-4.3,4.3-8.7,5.9-13.3l15.8,8.6C175.1,132.4,173.1,136.8,170.8,141.1z"/>
<path class="st1" d="M176.2,128.8l-15.3-9.6c3.9-10.4,5.9-21.4,6-32.5c0.2-29.5-13.7-53.2-34.9-64.8l14.9,6.5
	c21.2,11.6,36,35.6,35.8,65.1C182.6,104.6,180.1,118.4,176.2,128.8z"/>
<path class="st1" d="M58.4,190.3l-14.1-7.7l-1.8-1c-0.8-0.5-1.3-1.3-1.6-2.2c-0.3-0.9-0.4-2.3,0.6-3.8l15.8,8.1
	c-0.4,0.9-0.5,1.8-0.2,2.8c0.3,0.9-1.2,2.3-0.4,2.9L58.4,190.3"/>
<path class="st1" d="M55.3,184.3L41,177.1c0-1,0.5-1.5,0.5-1.5l14.1,8.1C55.4,183.8,55.3,184.1,55.3,184.3z"/>
<path class="st1" d="M55.4,183.6l-14.1-7.7c0.7-1.4,1.1-1.2,1.2-1.4l13.4,8L55.4,183.6v0.2V183.6z"/>
<path class="st1" d="M55.7,183.1l-14.1-7.7c0.1-0.2,0.2-0.3,0.3-0.5l14.1,7.7C56.1,182.7,55.9,182.9,55.7,183.1z"/>
<path class="st1" d="M56.1,182.6c0,0-16.3-4.3-14.1-7.7c0.5-0.8,2.1-1.3,2.1-1.3l12.4,8.6L56.1,182.6"/>
<path class="st1" d="M56.5,182.2l-14.1-7.7l0.5-0.4l14.1,7.7L56.5,182.2"/>
<path class="st1" d="M57,181.8l-14.1-7.7c0.2-0.2,0.4-0.3,0.7-0.4l14.1,7.7L57,181.8z"/>
<path class="st1" d="M54.9,184.9l-11.3-11.1c0.4-0.2,0.8-0.3,1.2-0.4c0.4-0.1,0.9-0.1,1.4,0l15.1,8.1c-0.4-0.1-1.9-0.5-2.4-0.4
	C58.4,181.1,55.3,184.7,54.9,184.9z"/>
<path class="st1" d="M60.2,181.1L46,173.4l0.6,0.2l14.1,7.7l-0.6-0.2"/>
<path class="st1" d="M60.8,181.4l-14.1-7.7L60.8,181.4z"/>
<path class="st1" d="M82,25.9l9-19.4h0.8c9.6-1.4,19.7-0.9,29.2,1.6l14.9,8c-9.4-2.4-19.7-2.4-29.3-1h-0.9"/>
<path class="st1" d="M135,16.5l-15.9-8.9c4.5,1.2,10.6,3,14.8,5.1l14.1,7.7C143.8,18.3,139.5,17.6,135,16.5z"/>
<path class="st1" d="M147.9,20.3l-14.1-7.7l2.5,1.3l14.1,7.7L147.9,20.3z"/>
<path class="st1" d="M33.6,166.6l-14.2-7.7c-0.5-0.3-0.9-0.7-1.2-1.2c-8.5-14.1-12.8-30.3-12.4-46.7c0.1-12.2,2.4-24.4,6.6-35.8
	l14.1,7.7c-4.3,11.5-5.1,23.8-5.2,36c-0.4,16.4,4.3,30.5,12.7,44.5c0.3,0.5-1.1,2.8-0.6,3.1"/>
<path class="st1" d="M25,87.6L12.3,75.2c1.8-5,4-9.9,6.6-14.6L33,68.3c-2.5,4.7-4.7,9.6-6.6,14.6"/>
<path class="st1" d="M33,72.7L18.9,60.6c2.1-4,4.5-7.9,7.1-11.6l14.1,7.7c-2.6,3.7-4.9,7.5-7.1,11.5"/>
<path class="st1" d="M39.3,63.8L26,49c2.4-3.5,5-6.8,7.8-10l14.1,7.7c-2.8,3.2-5.4,6.5-7.8,10"/>
<path class="st1" d="M47.9,46.8l-14.1-7.7c2.8-3.1,5.7-6.1,8.8-8.9l19.8,8.3C59.3,41.3,50.7,43.7,47.9,46.8"/>
<path class="st1" d="M54.8,42.6L42.6,30.2c3.3-3,6.8-5.7,10.5-8.3l14.1,7.7c-3.7,2.5-4.9,9.5-8.3,12.5"/>
<path class="st1" d="M59.6,37.9l-6.5-16c4.4-3.1,9.1-5.8,13.9-8.1l36.1,1.7c-4.9,2.3-34,16.4-38.4,19.5"/>
<path class="st1" d="M81.1,21.5L67,13.8c7.6-3.6,15.7-6.1,24-7.4l14.1,7.7C96.8,15.4,88.7,17.9,81.1,21.5"/>
<path class="st4" d="M236.4,216.7c0-0.9,0.1-1.9-0.2-2.8c-0.3-0.9-0.8-1.8-1.5-2.5l0,0l-46-43.5l0,0c-0.6-0.5-1.3-0.9-2-1.1
	c-0.7-0.2-1.5-0.2-2.2-0.1c-0.3,0-0.6,0.1-0.9,0.2l0,0l-3.6,1.1l0,0l0,0l-10.9,13.3l0,0l0,0l-0.6,4v0c-0.2,1-0.1,1.9,0.2,2.9
	c0.3,0.9,0.8,1.8,1.5,2.5l0,0l46,43.3c0.6,0.5,1.2,0.9,2,1.2c0.7,0.2,1.5,0.3,2.3,0.2C227.7,234.4,236.6,221.8,236.4,216.7z
	 M103.6,189.5c42.4-6.4,77.1-49,77.6-95c0.5-46-33.4-77.9-75.4-71.9h-0.7h0l0,0c-42.4,6.5-77,49-77.4,95
	c-0.3,14.9,3.6,29.6,11.3,42.4c0.5,1,0.7,2.2,0.5,3.3c-0.2,1.1-0.8,2.1-1.7,2.8l0,0c-0.6,0.5-1.3,0.8-2.1,0.9l0,0l0,0
	c-0.6,0.1-1.3,0.1-1.8-0.2c-0.6-0.3-1.1-0.7-1.4-1.3l0,0c-8.4-14-12.7-30.1-12.4-46.5v0c0.4-50.9,38.5-97.7,85.2-104.7h0.9h0l0,0
	c46.2-6.7,83.2,28.6,82.8,78.9c-0.3,20.7-6.5,40.8-17.7,58.2l0,0.1l0.1,0.1l8.5,8l0,0l0.1,0l3.1-0.9l0,0l0,0
	c0.7-0.2,1.4-0.4,2.1-0.5h0c1.7-0.2,3.5-0.1,5.2,0.4c1.7,0.5,3.2,1.4,4.5,2.6l0,0l45.8,43.4c0,0,0,0,0,0c1.6,1.6,2.8,3.5,3.4,5.7
	c0.7,2.1,0.8,4.4,0.4,6.6l0,0l0,0l-0.2,1.8l0,0c-0.5,3.4-1.8,6.6-4,9.3c0,0,0,0,0,0l-7.8,9.1l-0.3,0.4c-2,2.6-4.8,4.4-7.9,5.4v0
	l-1.6,0.5c0,0,0,0,0,0c-0.7,0.2-1.4,0.3-2.1,0.4h0c-1.7,0.3-3.5,0.2-5.1-0.4c-1.7-0.5-3.2-1.4-4.5-2.6c0,0,0,0,0,0l-45.9-43.4
	c0,0,0,0,0,0c-1.6-1.6-2.7-3.6-3.4-5.7c-0.7-2.1-0.8-4.4-0.4-6.6l0,0l0.5-3.3l0-0.1l0,0l-8.8-8.3l-0.1-0.1l-0.1,0.1
	c-13.5,12.7-31.2,21.2-49.4,24.3l0,0l0,0l0,0c-16,2.5-32.3-0.5-46.4-8.6c-0.9-0.6-1.5-1.6-1.6-2.7c-0.2-1.1,0.1-2.2,0.7-3.1h0l0,0
	c0.3-0.6,0.8-1.1,1.4-1.5c0.6-0.4,1.2-0.7,1.9-0.8c0.7-0.1,1.5,0,2.1,0.4h0C73.6,188.9,89.1,191.7,103.6,189.5 M160.5,169.2
	L160.5,169.2l0,0.1l4.9,4.6l0.1,0.1l0.1-0.1l7.1-8.7l0.1-0.1l-0.1-0.1l-4.8-4.4l-0.1-0.1l-0.1,0.1L160.5,169.2z"/>
<path class="st0" d="M71.3,165.3l-14.1-7.7l1.8,0.9l14.1,7.7C72.5,165.9,71.9,165.6,71.3,165.3"/>
<path class="st0" d="M65.7,167.6l-6.8-9.1c3,1.5,8.7,3.3,11.9,4.1l14.1,7.7C81.8,169.5,68.5,170,65.7,167.6z"/>
<path class="st0" d="M74.6,172.4L68.4,162c6.8,1.7,13.8,2.1,20.7,1.1c6.1-0.9,12-2.6,17.6-5.3l29.2,3.1c-5.6,2.6-25.1,16-31.2,16.9
	c-6.9,1-15.6-2.1-22.4-3.8"/>
<path class="st0" d="M120.8,165.5l-14.1-7.7c3.4-1.6,6.6-3.5,9.6-5.6l14.1,7.7C127.4,162,124.1,163.9,120.8,165.5"/>
<path class="st0" d="M125.1,169.7l-8.8-17.5c2.5-1.8,4.9-3.7,7.2-5.7l34.7-8.3c-2.3,2.1-25.3,20-27.8,21.8"/>
<path class="st0" d="M137.7,154.2l-14.1-7.7c2.2-1.9,4.2-4,6.2-6.2l20.8,0.1C148.6,142.5,139.8,152.2,137.7,154.2"/>
<path class="st0" d="M143.8,148l-14.1-7.7l1.8-2.1c1.2-1.5,2.4-3.1,3.6-4.7l14.1,7.7c-1.1,1.6-2.3,3.1-3.6,4.7L143.8,148z"/>
<path class="st0" d="M144.1,149.4l-9.1-16c1.8-2.5,3.4-5.2,4.9-7.9l20.6,0.7c-1.5,2.7-9.6,12.4-11.4,14.9"/>
<path class="st0" d="M154,133.2l-14.1-7.7c1.7-3.3,3.3-6.6,4.5-10.1l14.3,7.7c-1.3,3.5-2.8,6.8-4.5,10.1"/>
<path class="st0" d="M158.7,123.1l-7.8-2.3l-6.5-5.5c3-8.1,4.8-16.7,4.8-25.4c0.2-13-3.7-25.7-11.3-36.3c-0.4-0.6-0.7-1.3-0.8-2.1
	c-0.1-0.7-0.2-2.3,0.8-3.3l13.6,8.8c-0.3,0.7-0.4,1.4-0.4,2.1c0,0.7,0.3,1.4,0.7,2.1c7.6,10.6,11.5,23.3,11.3,36.3
	C163.2,106.3,161.7,115,158.7,123.1z"/>
<path class="st0" d="M151.4,57.1l-14.1-7.7c0.1-0.2,0.2-0.5,0.3-0.7l14.1,7.7C151.6,56.6,151.5,56.9,151.4,57.1z"/>
<path class="st0" d="M151.8,56.4l-14.1-7.7c0.1-0.2,0.2-0.4,0.3-0.6l14.1,7.7C152,56.1,151.9,56.2,151.8,56.4"/>
<path class="st0" d="M152.1,55.9L138,48.2c0.1-0.2,0.2-0.3,0.4-0.5l14.2,7.7L152.1,55.9"/>
<path class="st0" d="M152.5,55.4l-14.1-7.7l0.4-0.4l14.1,7.8l-0.4,0.4"/>
<path class="st0" d="M152.9,55.1l-14.1-7.7l0.5-0.4l14.1,7.7L152.9,55.1z"/>
<path class="st0" d="M150.9,61.2l-11.6-14.3c0.2-0.1,0.4-0.3,0.7-0.4l16.9,8.7L150.9,61.2z"/>
<path class="st0" d="M153.4,56.7l-13.4-10.2c0.4-0.2,0.8-0.3,1.2-0.4c0.5-0.1,1-0.1,1.4,0l14.8,8.1c-0.5-0.1-1,0.4-1.5,0.5
	C155.4,54.8,153.7,56.6,153.4,56.7z"/>
<path class="st0" d="M156.7,53.9l-14.1-7.7c0.2,0,0.4,0.1,0.6,0.2l14.1,7.7C157.1,54,156.9,54,156.7,53.9z"/>
<path class="st0" d="M157.3,54.1l-14.1-7.7l14.2,7.8"/>
<path class="st5" d="M103.2,170.8 M60.9,157.8 M103.5,32.5 M103.5,32.6 M103.5,32.6L103.5,32.6c-37.6,5.3-68,42.6-68.1,83.1
	c-0.1,40.6,30.5,69.1,68,63.8c37.5-5.3,68-42.5,68-83.1v0c0.3-14.8-4.2-29.2-12.8-41.2c-0.4-0.5-0.9-0.8-1.5-1
	c-0.6-0.2-1.2-0.2-1.8-0.1l0,0v0c-0.9,0.1-1.7,0.6-2.4,1.2v0c-0.8,0.7-1.4,1.8-1.6,2.9c-0.2,1.1,0,2.2,0.6,3.2
	c7.6,10.6,11.5,23.4,11.3,36.4c0,0,0,0,0,0c0,0,0,24.1-17.6,48.3c0,0-17.2,21.8-42.3,25.9s-48-13.9-53.1-28.2
	c-5.1-14.4-9.6-17-4.4-47.7s33.6-45.6,33.6-45.6s16.3-10.9,35.2-9.5c14.6,1.1,21.2,5.4,23.4,7.4c1,0.8,2.2,1.4,3.5,1.5
	c2.4,0.2,5.9-1.9,4.3-5.6C145.9,44.1,137.1,28.8,103.5,32.6z M152.8,55.1"/>
<path class="st3" d="M116.2,132.7l-4-2.1c0.3,0,0.5-0.1,0.8-0.2l4,2.1C116.7,132.5,116.5,132.6,116.2,132.7"/>
<path class="st3" d="M117,132.4l-4-2.1c0.1-0.1,0.3-0.2,0.4-0.2l4,2.1C117.2,132.3,117.1,132.4,117,132.4"/>
<path class="st3" d="M117.4,132.2l-4.7-1.7c0.7-0.4,0.9-0.6,1-0.7l4,2.1C117.6,132.1,117.5,132.1,117.4,132.2z"/>
<path class="st3" d="M114.4,134.6l-0.7-4.7c0.1-0.1,1.3-1.4,1.4-1.5l4,3.6c-0.1,0.1-3.1,2.1-3.2,2.2"/>
<path class="st3" d="M118,131.7l-4-2.1c0.1-0.1,0.2-0.2,0.2-0.3l4,2.1C118.1,131.5,118.1,131.6,118,131.7"/>
<path class="st3" d="M118.2,131.4l-4-2.1c0.1-0.1,0.1-0.2,0.2-0.3l4,2.1C118.3,131.2,118.3,131.3,118.2,131.4z"/>
<path class="st3" d="M118.4,131.1l-4-2.1c0.1-0.1,0.1-0.3,0.2-0.4l4,2.1C118.6,130.8,118.5,131,118.4,131.1"/>
<path class="st3" d="M118.8,131.9l-4.6-2.5c0.7-0.8,0.7-6.7,0.7-7.1l4.5,6.9C119.5,129.6,119,131.5,118.8,131.9z"/>
<path class="st3" d="M111,134.3l-2.3-3.3l3.6-0.5l6,2.2L111,134.3z"/>
<path class="st3" d="M111.3,132.9l-4-2.1h0.1L111.3,132.9L111.3,132.9z"/>
<path class="st3" d="M111.3,133l-4-2.1c0.1,0.1,0.3,0.1,0.4,0.1l4,2.1C111.6,133.1,111.5,133.1,111.3,133"/>
<path class="st3" d="M111.7,133.1l-4-2.1c0.3,0.1,0.6,0.1,0.9,0.1l4,2.1C112.3,133.2,112,133.2,111.7,133.1"/>
<path class="st3" d="M119.7,130.3l-4.8-2.9l0-19.8l4.5,2.3L119.7,130.3z"/>
<path class="st3" d="M109.6,136l-3.9-2.1c-0.8-0.5-1.5-1.2-2-2c-0.5-0.8-0.7-1.8-0.6-2.8l4,2.1c0,1,0.5,1.7,0.9,2.5
	C108.4,134.6,108.8,135.5,109.6,136"/>
<path class="st3" d="M118.8,109.8l-4-2.1c0-0.2,0-0.4,0.1-0.7l4.5,1.7C119.5,108.9,118.8,109.5,118.8,109.8"/>
<path class="st3" d="M119,109.1l-4-2.1c0-0.1,0.1-0.2,0.1-0.3l5,1.2C120.1,107.9,119,109,119,109.1"/>
<path class="st3" d="M119.2,108.6l-3.9-2.1c0-0.1,0.1-0.1,0.1-0.2l4,2.1C119.3,108.5,119.2,108.6,119.2,108.6"/>
<path class="st3" d="M119.3,108.5l-4-2.1c0-0.1,0.1-0.1,0.2-0.2l4,2.1C119.4,108.3,119.4,108.4,119.3,108.5z"/>
<path class="st3" d="M114.9,107.2c0.1-0.5,0.6-1,0.6-1c0.1-0.1,0.3-0.2,0.6-0.4l5,2.3l-1.1,1"/>
<path class="st3" d="M119.7,108.2l-3.9-2.2l0.3-0.1l3.9,2.1L119.7,108.2"/>
<path class="st3" d="M118.8,111.4l-2.8-5.5c0.1-0.1,0.3-0.1,0.5-0.1c0.2,0,0.4,0,0.5,0l4.2,2.2c-0.1,0,0.2,0.3,0.1,0.3
	c-0.1,0-0.8,0-0.9,0C120.3,108.3,119,111.3,118.8,111.4z"/>
<path class="st3" d="M120.9,107.9l-3.9-2.1c0.1,0,0.2,0.1,0.2,0.1l4,2.1C121.1,107.9,121,107.9,120.9,107.9z"/>
<path class="st3" d="M121.2,108l-4-2.1L121.2,108z"/>
<path class="st3" d="M119.4,105.3l-3.8-2.2c-0.2-0.1-0.4-0.3-0.5-0.6c-0.1-0.2-0.2-0.5-0.2-0.8l4.5,2.2c0,0.3,0.2,0.3,0.4,0.5
	c0.1,0.2-0.1,0.6,0.2,0.7"/>
<path class="st3" d="M94.5,137.1l-2-3.8c2-0.3,3.6-0.8,4.5-2.2l1.7,3.9C98.4,135.1,94.8,137.1,94.5,137.1z"/>
<path class="st3" d="M98.7,135l-3.9-2.1c0.1-0.1,0.3-0.2,0.4-0.2l3.9,2.1C99,134.9,98.8,135,98.7,135"/>
<path class="st3" d="M99.1,134.8l-4-2.1c0.1-0.1,0.2-0.1,0.3-0.2l4,2.1C99.3,134.7,99.2,134.7,99.1,134.8"/>
<path class="st3" d="M99,135l-3.6-2.6l0.3-0.3l5.8,0.4c-0.1,0.1-2,1.9-2.1,2"/>
<path class="st3" d="M99.7,134.3l-4.3-1.7c0.4-0.4,0.5-0.6,0.6-0.8l4,2.1C99.8,134.1,99.8,134.2,99.7,134.3z"/>
<path class="st3" d="M99.9,134l-4-2.1c0.1-0.1,0.1-0.2,0.2-0.3l4,2.1C100.1,133.7,100,133.9,99.9,134"/>
<path class="st3" d="M100.1,133.6l-4-2.1c0.1-0.1,0.1-0.3,0.2-0.4l4,2.1C100.3,133.3,100.2,133.5,100.1,133.6"/>
<path class="st3" d="M95.6,136.2l0.7-5.2c0.1-0.3,0.2-0.7,0.2-1.1l4.8,0.7c0,0.4-0.6,5.1-0.7,5.5"/>
<path class="st3" d="M93.5,135.9l-4-2.1l4.4-0.6l6.2,2.3L93.5,135.9z"/>
<path class="st3" d="M92.6,135.7l-4-2.1h0.1L92.6,135.7L92.6,135.7z"/>
<path class="st3" d="M92.6,135.7l-4-2.1c0.1,0,0.2,0.1,0.3,0.1l4,2.1C92.8,135.8,92.7,135.8,92.6,135.7"/>
<path class="st3" d="M92.4,136.1l-3.4-2.4c0.2,0,0.4,0,0.6,0l10,1.5c-0.2,0-6.1,1.3-6.3,1.2"/>
<path class="st3" d="M118.9,104l-4-2.2l0-23.5l4,2.1l0.6,23.5L118.9,104z"/>
<path class="st3" d="M90.9,138.7l-4-2.1c-0.7-0.4-1.3-1-1.7-1.7c-0.4-0.7-0.6-1.5-0.6-2.4c0-0.2,0-0.4,0.1-0.7l4.2,2.1
	c-0.1,0.2,0,0.5,0,0.7c0,0.8,0,1.6,0.4,2.3C89.8,137.7,90.2,138.3,90.9,138.7"/>
<path class="st3" d="M88.7,135.4l-4-2.8c0-0.9,0.4-1.2,0.5-1.2l5.4,1.8C90.6,133.2,88.7,135.3,88.7,135.4z"/>
<path class="st3" d="M88.9,133.7l-4-2.2l0.1-0.2l4,2.1C89,133.6,89,133.6,88.9,133.7"/>
<path class="st3" d="M89,133.5l-4-2.1c0-0.1,0.1-0.1,0.1-0.2l4,2.1C89.1,133.4,89.1,133.5,89,133.5"/>
<path class="st3" d="M89.2,133.4l-4-2.1l0.2-0.2l4,2.1C89.3,133.2,89.2,133.3,89.2,133.4"/>
<path class="st3" d="M89.3,133.2l-4.5-1.5c0.4-0.7,0.9-1.1,1.4-1.1l3.3,2.4L89.3,133.2"/>
<path class="st3" d="M89.6,133l-3.9-2.1c0.1-0.1,0.2-0.1,0.2-0.1l4,2.1C89.7,132.9,89.6,133,89.6,133"/>
<path class="st3" d="M89.9,133.1l-4.1-2.3c0.1-0.1,0.3-0.1,0.5-0.1c0.2,0,0.4,0,0.5,0l4.2,2.3c-0.2,0-0.5,0-0.7,0
	C90.1,132.9,90.1,133,89.9,133.1z"/>
<path class="st3" d="M119.3,80.9l-4.3-2.6c0-0.4-0.1-0.9-0.3-1.3c-0.2-0.4-0.5-0.7-0.9-0.9l4.4,1.8c0.4,0.2,0.7,0.5,0.9,0.9
	C119.2,79.2,119.3,80.5,119.3,80.9z"/>
<path class="st3" d="M89.4,132.4l-4-2.1c-0.2-0.1-0.4-0.3-0.5-0.6c-0.1-0.2-0.2-0.5-0.2-0.8l4,2.1c0,0.3,0,0.5,0.2,0.8
	C89,132.1,89.2,132.3,89.4,132.4z"/>
<path class="st3" d="M116.3,74.7l-4-2.1c0.7-0.1,1.3-0.1,2,0.1l4,2.1C117.6,74.7,117,74.6,116.3,74.7"/>
<path class="st3" d="M118.3,74.8l-4-2.1c0.3,0.1,0.6,0.2,0.9,0.3l4,2.1C118.9,75,118.6,74.9,118.3,74.8"/>
<path class="st3" d="M116.4,76l-1.1-3l0.2,0.1l3.8,1.9c-0.1,0,0.1,0.1,0.1,0"/>
<path class="st3" d="M100.5,132.1l-4-2.1l0.1-31.7l4.5,1.6L100.5,132.1z"/>
<path class="st3" d="M111.9,77l-3.1-3.9l3.6-0.5l6.2,2.6L111.9,77z"/>
<path class="st3" d="M100.6,100.4l-4-2.1c0-0.4-0.1-0.9-0.3-1.3c-0.2-0.4-0.5-0.7-0.9-0.9l3.9,2.1c0.4,0.2,1.6,0.2,1.8,0.6
	C101.3,99.3,100.6,100,100.6,100.4z"/>
<path class="st3" d="M109.4,135.5l-6.4-6.5l0.1-49.1l5.6,0.3L109.4,135.5z"/>
<path class="st3" d="M107.1,82.2l-3.9-2.1c0-0.8,0.2-1.6,0.4-2.4l5.5,0.7C108.7,79.1,107.1,81.4,107.1,82.2z"/>
<path class="st3" d="M107.5,79.7l-4-2.1c0.1-0.3,0.3-0.6,0.4-1l4,2.1C107.8,79.1,107.6,79.4,107.5,79.7"/>
<path class="st3" d="M107.9,78.8l-4-2.1c0.1-0.3,0.3-0.5,0.5-0.7l4,2.1C108.2,78.3,108.1,78.5,107.9,78.8"/>
<path class="st3" d="M108.4,78.1l-4-2.1c0.2-0.2,0.3-0.4,0.5-0.6l4,2.1C108.7,77.6,108.5,77.8,108.4,78.1"/>
<path class="st3" d="M108.9,77.4l-4-2.2c0.2-0.2,0.4-0.4,0.6-0.6l4,2.2C109.3,77,109.1,77.2,108.9,77.4"/>
<path class="st3" d="M109.5,76.8l-4-2.1c0.2-0.2,0.4-0.4,0.7-0.5l4,2.1C110,76.4,109.7,76.6,109.5,76.8"/>
<path class="st3" d="M110.2,76.3l-4-2.1c0.3-0.2,0.6-0.4,0.9-0.5l3.9,2.1C110.8,75.9,110.5,76.1,110.2,76.3"/>
<path class="st3" d="M106.9,78.7l0.3-5.1c0.5-0.2,1.1-0.4,1.7-0.5l3.9,2.1c-0.6,0.1-2.1,2.3-2.7,2.5"/>
<path class="st6" d="M116.4,74.8l-3.6,0.5c-2,0.4-3.1,1-4.1,2.1c-1,1.2-1.5,2.8-1.5,4.4v0.4l-0.1,49.1l0,0c0,3.3,2.5,5.7,5.6,5.3
	l0,0l3.6-0.5l0,0c3-0.5,5.6-3.5,5.6-6.9v-19.8v0l0,0c0-0.2,0-0.4-0.1-0.6s-0.2-0.3-0.3-0.5c-0.1-0.1-0.3-0.2-0.5-0.3
	c-0.2-0.1-0.4-0.1-0.6-0.1c-0.4,0.1-0.8,0.3-1.1,0.6c-0.3,0.3-0.4,0.8-0.4,1.2l0,0l-0.1,19.8l0,0l0,0l0,0c0,0.7-0.3,1.5-0.7,2
	c-0.4,0.5-1.1,1.4-5.3,1.5c-1.4,0-2.6-1.1-2.6-2.5l0.4-48c0-1.6,1.1-2.9,2.7-3.2l3.9-0.7c0.8-0.1,1.5,0.4,1.5,1.2l0.1,24.9
	c0,0,0.5,1,1.7,0.6c1.2-0.4,1.3-0.9,1.5-1.3s0-9.4,0-9.4l0-14.9C122.1,79.8,122.4,74.3,116.4,74.8"/>
<path class="st3" d="M98,94.7l-4.7-2c1.6-0.4,2.2-0.2,2.8,0l3.9,2.1C99.3,94.6,98.7,94.6,98,94.7"/>
<path class="st3" d="M96.2,95.6l-0.2-3c0.3,0.1,0.6,0.2,0.9,0.3l4,2.1c-0.3-0.1-2.7,0.1-3,0"/>
<path class="st3" d="M100.8,95.1l-4-2.1l0.2,0.1l4,2.1L100.8,95.1"/>
<path class="st3" d="M116.5,60.8l-4-2.1c-0.2-0.1-0.4-0.3-0.5-0.6l4,2.1C116,60.5,116.2,60.7,116.5,60.8"/>
<path class="st3" d="M94.4,95.2l-4-2.1l3.6-0.5l3.9,2.1L94.4,95.2z"/>
<path class="st0" d="M116.1,54l-4-2.1c0.1,0,0.2,0.1,0.3,0.1l4,2.1C116.3,54.1,116.2,54.1,116.1,54"/>
<path class="st3" d="M88.7,131.1l-4-2l0.1-29.1l4.8-1.2L88.7,131.1z"/>
<path class="st0" d="M114.7,54.4l-4-2.1l0.1-0.1L114.7,54.4L114.7,54.4"/>
<path class="st0" d="M114.8,54.3l-4-2.1c0.1,0,0.2-0.1,0.2-0.1l4,2.1C115,54.2,114.9,54.2,114.8,54.3"/>
<path class="st0" d="M115.1,54.2l-4-2.1l0.2-0.1l4,2.1L115.1,54.2"/>
<path class="st3" d="M88.7,102.1l-4-2.2c0-0.8,0.2-1.6,0.4-2.4l4,2.1C88.9,100.5,88.7,101.3,88.7,102.1"/>
<path class="st3" d="M87.8,103.1l-2.6-5.6c0.1-0.3,0.3-0.6,0.4-1l4,2.1c-0.2,0.3-0.3,0.6-0.4,1"/>
<path class="st3" d="M89.6,98.7l-4-2.1c0.1-0.3,0.3-0.5,0.5-0.8l4,2.1C89.9,98.2,89.8,98.5,89.6,98.7"/>
<path class="st3" d="M90.1,98l-4-2.1c0.2-0.2,0.3-0.4,0.5-0.6l4,2.1C90.4,97.5,90.2,97.8,90.1,98"/>
<path class="st3" d="M90.6,97.3l-4-2.2c0.2-0.2,0.4-0.4,0.6-0.6l4,2.1C91,96.9,90.8,97.1,90.6,97.3"/>
<path class="st3" d="M89.2,100.9l-3.3-4.7c0.9-1.6,1.7-1.9,2-2.1l8.9,1C96.5,95.3,89.5,100.7,89.2,100.9z"/>
<path class="st3" d="M91.8,96.2l-4-2.1c0.3-0.2,0.6-0.4,0.9-0.5l5.8,1.7C94.3,95.4,92.1,96,91.8,96.2"/>
<path class="st3" d="M92.8,95.7l-4-2.1c0.5-0.2,1.1-0.4,1.6-0.5l5.7,1.9C95.6,95.1,93.3,95.4,92.8,95.7"/>
<path class="st6" d="M98,94.7c3.1-0.4,5.6,1.9,5.6,5.3v0l-0.1,31.7l0,0c0,3.3-2.5,6.4-5.6,6.9l-4.4,0.6h0c-2.6,0.4-4.8-1.6-4.8-4.5
	l0,0c0-0.4,0.1-0.9,0.4-1.2c0.3-0.3,0.7-0.6,1.1-0.6c0.2,0,0.4,0,0.6,0.1c0.2,0.1,0.4,0.2,0.5,0.3c0.1,0.1,0.3,0.3,0.3,0.5
	c0.1,0.2,0.1,0.4,0.1,0.6l0,0c0,0.2,0,0.5,0.1,0.7s0.2,0.4,0.4,0.6c0.2,0.2,0.4,0.3,0.6,0.4c0.2,0.1,0.5,0.1,0.7,0.1h0l4.4-0.6l0,0
	l0,0c0.7-0.1,1.4-0.5,1.9-1.1c0.5-0.6,0.7-1.3,0.7-2.1l0,0l0.1-31.7c0-0.3,0-0.7-0.2-1c-0.1-0.3-0.3-0.6-0.6-0.9
	c-0.3-0.2-0.6-0.4-0.9-0.5c-0.3-0.1-0.7-0.1-1-0.1c0,0,0,0,0,0l-3.6,0.5v0l0,0c-0.7,0.1-1.4,0.5-1.9,1.1c-0.5,0.6-0.7,1.3-0.8,2.1v0
	l0,29c0,0.4-0.2,0.9-0.4,1.2c-0.3,0.3-0.7,0.6-1.1,0.6c-0.2,0-0.4,0-0.6-0.1c-0.2-0.1-0.4-0.2-0.5-0.3c-0.1-0.1-0.3-0.3-0.3-0.5
	s-0.1-0.4-0.1-0.6h0v0l0.1-29l0,0c0-1.6,0.6-3.2,1.6-4.5c1-1.3,2.5-2.1,4.1-2.4L98,94.7L98,94.7 M91.8,101.7"/>
<path class="st3" d="M115.7,54.8l-4.7-2.8c0.4-0.2,0.8-0.3,1.4-0.1l3.7,2.1L115.7,54.8z"/>
<path class="st3" d="M115.4,54l-4-2.1c0.2,0,0.3,0,0.5,0l4,2.1C115.7,54,115.5,54,115.4,54"/>
<path class="st3" d="M115.2,54.1l-4-2.1l0.2-0.1l4,2.1L115.2,54.1z"/>
<path class="st3" d="M114.6,54.5l-4-2.2c0.3-0.3,0.4-0.4,0.7-0.3l4.2,2.3L114.6,54.5z"/>
<path class="st3" d="M111.4,58.8l-4.3-3.1l3.6-3.4l4.7,2.3L111.4,58.8z"/>
<path class="st3" d="M69.9,100l-4-2.1c-0.2-0.1-0.4-0.3-0.5-0.5c-0.1-0.2-0.2-0.4-0.2-0.7c0-0.3,0-0.5,0.1-0.8l6.2-0.2
	c-0.1,0.2-0.9,2.9-0.8,3.2c0,0.2,0,0.2,0.1,0.4C71,99.6,69.7,99.9,69.9,100"/>
<path class="st3" d="M69.3,98.1l-4-2.1c0-0.1,0.1-0.2,0.1-0.3l4,2.1C69.4,97.9,69.4,98,69.3,98.1"/>
<path class="st3" d="M69.4,97.8l-4-2.1c0-0.1,0.1-0.1,0.1-0.2l4,2.1C69.5,97.7,69.5,97.8,69.4,97.8"/>
<path class="st3" d="M69.6,97.6l-4-2.1c0-0.1,0.1-0.1,0.1-0.2l3.9,2.1L69.6,97.6"/>
<path class="st3" d="M69.7,97.5l-3.9-2.1c0-0.1,0.1-0.1,0.2-0.1l4,2.1C69.8,97.4,69.8,97.4,69.7,97.5"/>
<path class="st3" d="M69.3,98.8l-4-2c0.1-0.1,0.1-1.2,0.9-1.7l3.9,2.1C70,97.2,69.3,98.7,69.3,98.8z"/>
<path class="st3" d="M69.2,98.3L66.1,95c0.1-0.1,0.2-0.2,0.6-0.3l3.6,2.3c-0.1,0-0.2,0.1-0.3,0.1"/>
<path class="st3" d="M70.3,97l-4-2.1c0.1-0.1,0.2-0.1,0.3-0.1c4.1-0.9,8.1-2.3,11.9-4.2l4,2.1c-3.8,1.8-7.7,3.7-11.7,4.6
	C70.7,97.4,70.4,97,70.3,97"/>
<path class="st3" d="M76.3,96.2l2.3-5.6c3.3-1.6,6.5-3.4,9.5-5.4l10.1,0.1c-3,2.1-12.3,6-15.6,7.5"/>
<path class="st3" d="M92,87.3L88,85.2c2.2-1.5,4.2-3.1,6.2-4.9l6,2.7C98.3,84.8,94.9,87.9,92,87.3"/>
<path class="st3" d="M98.4,83.2l-4.2-2.9c1.6-1.4,3.1-2.9,4.5-4.5l9.1-1.5C106.4,75.8,100,81.8,98.4,83.2z"/>
<path class="st3" d="M102.6,78.7l-3.8-2.9c1.3-1.4,2.5-2.9,3.6-4.5l5.1,1.8C106.3,74.6,103.8,77.2,102.6,78.7z"/>
<path class="st3" d="M106.9,73.8l-4.6-2.6c1.1-1.6,2.1-3.2,3.1-4.9l4.7,2.3C109.1,70.3,108,72.2,106.9,73.8z"/>
<path class="st3" d="M109.5,72l-4.1-5.7c1.1-2,2-4.1,2.8-6.2l4.9,2.7c-0.8,2.1-2.8,6.9-3.9,8.9"/>
<path class="st3" d="M111.1,66.8l-2.9-6.7c0.2-0.6,0.4-1.3,0.7-1.9l4,2.1C112.5,61,111.3,66.2,111.1,66.8z"/>
<path class="st3" d="M111.1,60.6l-3.9-2.1c-0.2-0.1-0.3-0.2-0.4-0.4c-0.2-0.2-0.3-0.5-0.3-0.8c0-0.3,0-0.6,0.1-0.8l6.8,0.2
	c-0.1,0.3-3,2.5-2.9,2.8c0,0.3,0.1,0.5,0.3,0.8C110.8,60.4,110.9,60.5,111.1,60.6"/>
<path class="st3" d="M110.5,58.6l-4-2.1c0-0.1,0.1-0.2,0.1-0.3l6.8,1.1C113.5,57.4,110.5,58.5,110.5,58.6z"/>
<path class="st3" d="M110.6,58.4l-4.1-0.7c-0.2-0.7-0.2-1.2,0.2-1.6l4,2.1C110.7,58.2,110.7,58.3,110.6,58.4"/>
<path class="st3" d="M110.8,58.2l-4.2-1.8c0.1-0.2-0.1-0.3,2.2-2.3l2.1,3.9L110.8,58.2"/>
<path class="st6" d="M111.3,60.6c-0.2-0.1-0.4-0.2-0.5-0.4c-0.2-0.4-0.3-0.8-0.3-1.2c0.1-0.4,0.3-0.8,0.6-1.1l0,0l3.6-3.4l0,0
	l0.2-0.1c0,0,0,0,0,0c0.1-0.1,0.3-0.2,0.5-0.3c0,0,0,0,0,0l0.2-0.1c0.2,0,0.3,0,0.5,0v0h0h0.2c0.1,0,0.2,0.1,0.3,0.1l0.1,0.1
	c0.1,0.1,0.2,0.2,0.3,0.4l0.1,0.2l0,0l1.7,3.6c0.2,0.4,0.2,0.8,0.1,1.3c-0.1,0.4-0.4,0.8-0.8,1v0c-0.2,0.1-0.4,0.2-0.7,0.3l0,0
	c-0.3,0-0.5,0-0.8-0.1c-0.2-0.1-0.4-0.3-0.5-0.6l-0.1-0.1l0,0.1c-7.6,25.4-32.3,37.2-45,39.9c-0.2,0-0.4,0-0.6,0
	c-0.2,0-0.4-0.1-0.5-0.3c-0.2-0.1-0.3-0.3-0.4-0.4c-0.1-0.2-0.1-0.4-0.1-0.6l0,0c0-0.4,0.1-0.9,0.4-1.2c0.3-0.4,0.6-0.6,1-0.7
	c11.8-2.6,34.7-13.4,42.1-36.6l0.1-0.2l-0.1,0.1c-0.2,0.2-0.5,0.3-0.8,0.3l0,0C111.7,60.7,111.5,60.7,111.3,60.6z"/>
<path class="st3" d="M78.6,138l-4-2.1c0.3,0,0.5-0.1,0.7-0.2l4,2.1C79.1,137.8,78.8,137.9,78.6,138"/>
<path class="st3" d="M73.6,136.6l1.8-1c0.1-0.1,0.3-0.1,0.4-0.2l4,2.1c-0.1,0.1-0.3,0.2-0.4,0.2"/>
<path class="st3" d="M79.7,137.5l-4-2.1c0.1-0.1,0.2-0.2,0.3-0.2l4,2.1C80,137.3,79.9,137.4,79.7,137.5"/>
<path class="st3" d="M80.1,137.3l-4-2.1l0.3-0.3l3.9,2.1C80.2,137.1,80.1,137.2,80.1,137.3"/>
<path class="st3" d="M80.3,137l-3.9-2.1c0.1-0.1,0.2-0.2,0.2-0.3l4,2.1C80.5,136.8,80.4,136.9,80.3,137"/>
<path class="st3" d="M75.9,141l0.7-6.4c0.1-0.1,0.2-0.2,0.2-0.3l5.1,2C81.8,136.4,76,140.9,75.9,141z"/>
<path class="st3" d="M80.8,136.4l-3.9-2.1c0.1-0.1,0.1-0.3,0.2-0.4l4,2.1C80.9,136,80.8,136.2,80.8,136.4"/>
<path class="st3" d="M81.7,136.8l-5.1-2c0.1-0.3,0.6-1.8,0.6-2.1l4,2.1c0,0.4,0.9,1.1,0.7,1.4"/>
<path class="st3" d="M75.6,139.9l-4.5-3.6l3.6-0.5l4,2.1L75.6,139.9z"/>
<path class="st3" d="M73.6,138.2l-3.9-2.1h0.1L73.6,138.2L73.6,138.2"/>
<path class="st3" d="M73.7,138.3l-3.9-2.1c0.1,0.1,0.3,0.1,0.4,0.1l3.9,2.1C73.9,138.4,73.8,138.3,73.7,138.3"/>
<path class="st3" d="M74.1,138.4l-3.9-2.1c0.3,0.1,0.6,0.1,0.9,0l4,2.2C74.7,138.5,74.4,138.5,74.1,138.4"/>
<path class="st3" d="M72,141.3l-4-2.1c-0.8-0.5-1.5-1.2-2-2c-0.5-0.8-0.7-1.8-0.6-2.8l4,2.1c0,1,0.2,1.9,0.6,2.8
	C70.4,140.1,71.1,140.8,72,141.3"/>
<path class="st3" d="M81.9,138.7l-4.7-6l0-24.7l4.6-1.1L81.9,138.7z"/>
<path class="st3" d="M81.2,110.1l-4-2.1c0-0.4-0.1-0.9-0.3-1.3c-0.2-0.4-0.5-0.7-0.9-0.9l4,2.1c0.4,0.2,0.7,0.5,0.9,0.9
	C81.1,109.2,81.2,109.7,81.2,110.1"/>
<path class="st3" d="M76.7,105.4l-2-3.2c0.7-0.1,1.3-0.1,2,0.1l4,2.1c-0.6-0.2-1.3-0.2-2-0.1"/>
<path class="st3" d="M78.1,105.7l-1.5-3.4c0.3,0.1,0.6,0.2,0.9,0.3l4,2.1c-0.3-0.1-2,0.9-2.3,0.9"/>
<path class="st3" d="M81.5,104.8l-4-2.1l0.2,0.1l4,2.1L81.5,104.8z"/>
<path class="st3" d="M70.8,139.5l-5.4-5.2l0-20.8l5.5,1.9L70.8,139.5z"/>
<path class="st3" d="M74.8,104.9l-4-2.1l3.8-0.5l4,2.1L74.8,104.9z"/>
<path class="st3" d="M69.4,115.7l-4-2.1c0-0.2,0-0.4,0.1-0.7l4.9,1C70.3,114.1,69.4,115.5,69.4,115.7"/>
<path class="st3" d="M69.5,115.1l-3.9-2.2c0-0.1,0.1-0.2,0.1-0.3l4,2.1C69.5,114.9,69.5,115,69.5,115.1"/>
<path class="st3" d="M69.6,114.8l-4-2.1c0-0.1,0.1-0.1,0.1-0.2l4,2.1C69.7,114.7,69.6,114.8,69.6,114.8"/>
<path class="st3" d="M65.4,113.6l0.4-1.1c0-0.1,0.5-0.6,1.1-0.8L71,114c-0.1,0.1-2.1,3.7-2.2,3.8"/>
<path class="st3" d="M69.9,114.4l-3.9-2l0.2-0.2l3.9,2C70,114.3,69.9,114.3,69.9,114.4"/>
<path class="st3" d="M70,114.2l-3.7-2c0.1-0.1,0.1-0.1,0.2-0.1l3.7,2C70.1,114.2,70.1,114.2,70,114.2"/>
<path class="st3" d="M70.2,114.1l-3.9-2l0.3-0.1l3.9,2L70.2,114.1z"/>
<path class="st3" d="M70.5,114l-4-2.1c0.2-0.1,0.3-0.2,0.5-0.2c0.2,0,0.4,0,0.5,0l4.2,2.3c-0.2,0-0.6-0.2-0.8-0.2
	C70.8,113.9,70.6,113.9,70.5,114z"/>
<path class="st3" d="M71.4,113.9l-4-2.1c0.1,0,0.2,0,0.2,0.1l4,2.1C71.6,113.9,71.5,113.9,71.4,113.9"/>
<path class="st3" d="M70.1,112.8l-4-2.1c-0.2-0.1-0.4-0.3-0.5-0.6c-0.1-0.2-0.2-0.5-0.2-0.8c0-0.8,0.1-1.6,0.4-2.3l4,2.1
	c-0.3,0.7-0.4,1.5-0.4,2.3c0,0.3,0,0.5,0.2,0.8C69.7,112.5,69.9,112.7,70.1,112.8"/>
<path class="st3" d="M69.7,110.4l-3.8-3.3c0.1-0.3,0.3-0.6,0.4-0.9l7.1-1.2c-0.2,0.3-3.5,3.9-3.6,4.3"/>
<path class="st3" d="M70.2,108.3l-3.9-2.1c0.1-0.2,0.3-0.5,0.4-0.7l6.6-0.4C73.1,105.3,70.3,108.1,70.2,108.3"/>
<path class="st3" d="M70.6,107.6l-4-2.1c0.1-0.2,0.3-0.4,0.5-0.6l4,2.1C71,107.2,70.8,107.4,70.6,107.6"/>
<path class="st3" d="M69,109.1l-1.8-4.3c0.2-0.2,0.4-0.4,0.6-0.6l7.4,0.5c-0.2,0.2-3.8,2-4,2.2"/>
<path class="st3" d="M71.7,106.4l-3.9-2.2c0.2-0.2,0.4-0.4,0.7-0.5l7.6,0.8C75.8,104.7,71.9,106.2,71.7,106.4"/>
<path class="st3" d="M72.4,105.9l-4-2.1c0.3-0.2,0.6-0.4,0.9-0.5l4,2.1C72.9,105.5,72.6,105.7,72.4,105.9"/>
<path class="st3" d="M71.7,107.9l-2.5-4.7c0.5-0.2,1-0.4,1.6-0.5l6.3,2c-0.6,0.1-2.8,1.2-3.3,1.4"/>
<path class="st6" d="M78.6,104.4L78.6,104.4c3.1-0.4,5.6,1.9,5.6,5.3l0,0l0,24.7l0,0c0,3.3-2.5,6.4-5.6,6.9l-3.6,0.5l0,0
	c-3.1,0.4-5.6-1.9-5.6-5.3l0-20.8v0c0-0.4,0.1-0.9,0.4-1.2c0.3-0.3,0.7-0.6,1.1-0.6c0.2,0,0.4,0,0.6,0.1c0.2,0.1,0.4,0.2,0.5,0.3
	c0.1,0.1,0.3,0.3,0.3,0.5c0.1,0.2,0.1,0.4,0.1,0.6h0v0v20.8c0,0.3,0,0.7,0.2,1c0.1,0.3,0.3,0.6,0.6,0.9c0.3,0.2,0.6,0.4,0.9,0.5
	c0.3,0.1,0.7,0.1,1,0.1c0,0,0,0,0,0l3.6-0.5v0l0,0c0.7-0.1,1.4-0.5,1.9-1.1c0.5-0.6,0.7-1.3,0.8-2.1v0l0-24.7c0-0.3,0-0.7-0.2-1
	c-0.1-0.3-0.3-0.6-0.6-0.9c-0.3-0.2-0.6-0.4-0.9-0.5c-0.3-0.1-0.7-0.1-1-0.1c0,0,0,0,0,0l-3.9,0.5l0,0l0,0c-0.7,0.1-1.3,0.5-1.7,1
	c-0.4,0.5-0.7,1.2-0.7,1.9v0c0,0.4-0.1,0.9-0.4,1.2c-0.3,0.3-0.7,0.6-1.1,0.6c-0.2,0-0.4,0-0.6,0c-0.2-0.1-0.4-0.2-0.5-0.3
	c-0.1-0.1-0.3-0.3-0.3-0.5c-0.1-0.2-0.1-0.4-0.1-0.6h0v0c0-1.5,0.5-3.1,1.5-4.3c1-1.2,2.4-2,3.9-2.3L78.6,104.4z"/>
</svg>
