<?xml version="1.0" encoding="utf-8"?>
<!-- Generator: Adobe Illustrator 24.0.0, SVG Export Plug-In . SVG Version: 6.00 Build 0)  -->
<svg version="1.1" id="Слой_1" xmlns="http://www.w3.org/2000/svg" xmlns:xlink="http://www.w3.org/1999/xlink" x="0px" y="0px"
	 viewBox="0 0 470 250" style="enable-background:new 0 0 470 250;" xml:space="preserve">
<style type="text/css">
	.st0{fill:#335786;}
	.st1{fill:#B4D1FA;stroke:#000000;stroke-width:0.2;}
	.st2{fill:#40689D;}
	.st3{fill:#9A384B;}
	.st4{fill:#E87891;stroke:#000000;stroke-width:0.2;}
</style>
<path class="st0" d="M220.8,115.3l-0.8,4.2L120,94.2l5.5-15.4l7.7-2.3c6.4-0.5,8.2,7.7,3.6,10.5l-7.3,3.2L220.8,115.3L220.8,115.3z
	 M118.9,101.9l8-0.9l5.1,5.9l-7.8,2.2L118.9,101.9z"/>
<path class="st0" d="M124.1,109.1l6.7-3.2l1.6,1.6l-7.8,2.2C124.5,109.5,124.3,109.3,124.1,109.1"/>
<path class="st0" d="M124.6,109.7l6.4-4.2c0.1,0.2,1.6,2,1.9,2.7l-7.8,2.2C124.9,110.2,124.7,109.9,124.6,109.7"/>
<path class="st0" d="M125,106.9l7.9,1.4c0.1,0.3,0.5,0.9,0.6,1.2l-7.3,5.2c-0.1-0.3-0.9-4-1.1-4.3"/>
<path class="st0" d="M125.4,111.4l7.8-2.2c0,0.2,0.1,0.3,0.1,0.5l-11,8.1C120,116.9,125.5,111.5,125.4,111.4z"/>
<path class="st0" d="M125.5,111.9l7.8-2.2v0.4l-7.8,2.2V111.9z"/>
<path class="st0" d="M125.5,112.3l7.8-2.2v0.4l-7.8,2.2C125.6,112.6,125.6,112.5,125.5,112.3 M125.6,112.7l7.8-2.2v0.4l-7.8,2.2
	V112.7"/>
<path class="st0" d="M125.6,113.1c0,0,6.7-5.8,7.7-3.9c1.1,2.1-1,5.1-1,5.1l-6.7-0.8V113.1"/>
<path class="st0" d="M125.6,113.5l7.8-2.2v0.3l-7.8,2.2V113.5"/>
<path class="st0" d="M125.5,113.8l7.8-2.1l-0.3,0.5l-7.6,2v-0.4"/>
<path class="st0" d="M125.5,114.1l7.8-2.2l-0.3,0.5l-7.6,2v-0.3H125.5z"/>
<path class="st0" d="M125.4,114.4l7.3-3l0.1,1.3l-7.4,2L125.4,114.4"/>
<path class="st0" d="M125.3,114.7l7.8-2.2c0,0.1-0.1,0.2-0.1,0.3l-7.8,2.2C125.2,114.9,125.2,114.8,125.3,114.7"/>
<path class="st0" d="M125.2,115l7-2.3c0,0.1,0.3-1,0.2-0.9l-7.4,3.6C125.2,115.2,125.2,115.1,125.2,115"/>
<path class="st0" d="M125.1,115.3l7.4-3.3c0,0.1-0.1,1.5-0.2,1.6l-7.4,2C125,115.6,125.1,115.4,125.1,115.3"/>
<path class="st0" d="M125,115.6l7.6-3.1l-0.3,1.1l-7.5,2.3L125,115.6"/>
<path class="st0" d="M125,114.6l8.2-5c0,0.1-0.9,4.5-1,4.6l-7.6,2.1L125,114.6z"/>
<path class="st0" d="M124.5,116.3l7.9-2.3c-0.2,0.3-0.3,0.4-0.4,0.6l-7.8,2.2C124.3,116.6,124.4,116.4,124.5,116.3z"/>
<path class="st0" d="M128.7,112.9l3.3,1.6c-0.6,0.6-1.2,1.2-2,1.4c-3.6,1.1-5.6,1.7-8.6,1.8c1.4-0.9,0.9-1.4,2.7-1"/>
<path class="st1" d="M127.6,78.9c0.8,0.2,1.6,0.7,2.2,1.2c0.6,0.6,1.1,1.3,1.4,2.1c0.3,0.6,0.5,1.3,0.5,2s-0.1,1.4-0.3,2
	c-0.2,0.7-0.6,1.2-1.1,1.8c-0.5,0.5-1,0.9-1.7,1.2l-6.9,2.9l-0.3,0.1l0.3,0.1l96.9,26l-6.2,8.7L120,102.7l-0.3-0.1l0.2,0.2l5.1,5.9
	c0.9,1,1.4,2.4,1.4,3.8s-0.5,2.7-1.4,3.8c-0.5,0.6-1.2,1-2,1.2s-1.6,0.2-2.3,0c-1-0.3-1.9-0.8-2.6-1.6l-16.6-19.1
	c-0.6-0.7-1-1.4-1.2-2.3c-0.2-0.8-0.3-1.7-0.1-2.6c0.1-0.8,0.4-1.6,0.9-2.2s1.2-1.2,1.9-1.5l21.6-9.2
	C125.5,78.6,126.6,78.6,127.6,78.9z"/>
<path class="st2" d="M193,218.9l-8.6-4.7l2.8,1.5l8.6,4.7C194.9,219.9,194,219.4,193,218.9z"/>
<path class="st2" d="M195.8,220.4l-8.6-4.7c4.7,2.3,9.6,4.1,14.7,5.4l8.6,4.7C205.5,224.5,200.5,222.7,195.8,220.4"/>
<path class="st2" d="M210.5,225.8l-8.6-4.7c10.5,2.7,21.4,3.2,32.1,1.7c9.4-1.3,18.6-4.1,27.2-8.2l8.6,4.7
	c-8.6,4.1-17.7,6.8-27.2,8.2C231.9,229,221,228.4,210.5,225.8"/>
<path class="st2" d="M259.2,228.9l2-14.3c5.3-2.5,10.4-5.4,15.2-8.7l37.1-12.2c-4.8,3.3-39.1,26-44.4,28.4"/>
<path class="st2" d="M284.9,210.6l-14.8-0.6c4.7-2.8,13.8-9.8,17.4-12.9l10.1,4.4C294.1,204.6,288.8,207.9,284.9,210.6"/>
<path class="st2" d="M296.2,201.7l-19.3,3.7c6-4,17.2-14.6,20.2-17.9l10.8,2.9C304.8,193.8,299.5,198.7,296.2,201.7"/>
<path class="st2" d="M305.6,192.1l-9.7-3.4c3-3.4,12.7-15.8,15-20.5l4,13C312.4,184.8,309,189.2,305.6,192.1z"/>
<path class="st2" d="M314,181.5l-8.6-4.7c2.8-3.9,5.3-8,7.6-12.3l9.6,4.8c-2.3,4.2-5.7,8.7-8.4,12.7"/>
<path class="st2" d="M322.1,169.7l-9.2-5.3c2.7-5,5.1-10.3,7.1-15.6l9.3,4.4C327.3,158.6,324.8,164.7,322.1,169.7L322.1,169.7z"/>
<path class="st2" d="M328.6,153.5l-8.6-4.7c4.7-12.6,7.1-26,7.1-39.5c0-35.7-17.1-64.6-43.1-78.7l9.4,4c26,14.1,42.7,44.1,42.7,79.8
	c0,13.5-2.5,26.6-7.2,39.3"/>
<path class="st2" d="M285.2,31.7l-8.6-4.7c-0.9-0.5-1.5-1.4-1.8-2.3c-0.3-1-0.3-3.3,1.8-4.9l8,7.2c-0.4,0.9-0.3,1.1,0,2.1
	s0.2,2.1,1.1,2.6"/>
<path class="st2" d="M283.3,27.4l-8.6-4.4c0.1-0.1,0.4-1.5,0.5-1.6l0.5-0.7l9.3,5.5l-0.4,0.4C284.6,26.6,283.3,27.4,283.3,27.4z"/>
<path class="st2" d="M285,26.6l-9.7-5.1c0.2-0.5,0.3-0.8,0.8-1.3l9.3,5.5L285,26.6L285,26.6z"/>
<path class="st2" d="M284.2,25.2l-8.5-4.5l0.8-0.8l11.4,4.2C287.8,24.2,284.4,25,284.2,25.2"/>
<path class="st2" d="M284.5,24.9l-8.4-4.7l0.4-0.4l8.9,4.6c-0.1,0.1-0.3,0.7-0.4,0.8"/>
<path class="st2" d="M285.4,24.5l-8.9-4.6l0.5-0.4l8.8,4.6L285.4,24.5L285.4,24.5z"/>
<path class="st2" d="M285.8,24.5l-9.3-4.6c0.4-0.4,0.9-0.7,1.1-0.8l9.5,4.6C286.8,23.7,286,24.3,285.8,24.5z"/>
<path class="st2" d="M286.2,23.5l-9.7-3.7c1.3-1.3,2.7-1.4,3.7-1.4l9.4,5.2c-0.5-0.1-1.2,0.3-1.7,0.4c-0.4,0.1-0.5-0.2-0.8,0"/>
<path class="st2" d="M288.8,23.2l-9.8-4.7c0.7-0.1,1.3-0.2,1.7,0c1.6,0.7,3.1,1.5,4.7,2.3l11.3,6.2c-1.6-0.8-6.8-1-8.4-1.7
	L288.8,23.2 M294.1,25.5l-8.6-4.7c1,0.5,2,1,3,1.6l8.3,4.6C295.8,26.5,295.1,26,294.1,25.5 M243,17.8l-8.6-4.7c0.5-0.1,1-0.1,1.4,0
	l8.6,4.7C244,17.7,243.5,17.7,243,17.8"/>
<path class="st2" d="M244.5,17.9l-8.6-4.7c0.2,0.1,0.5,0.1,0.7,0.2l8.6,4.7C244.9,18,244.7,17.9,244.5,17.9z"/>
<path class="st2" d="M236.5,21l-1.4-8c0.6-0.1,0.9,0,1.5,0.4l8.6,4.8l0.4,0.4 M188.6,227.1l-8.6-4.7c-28.3-15.4-47-46.9-47-85.8
	c0.1-14.7,2.7-29.2,7.8-43l8.6,4.8c-5.1,13.8-7.7,28.3-7.8,42.9C141.6,180.2,160.3,211.7,188.6,227.1L188.6,227.1z M149.4,98.4
	l-8.6-4.8c2.2-5.9,4.7-11.6,7.7-17.1l8.6,4.8C154.1,86.8,151.5,92.5,149.4,98.4"/>
<path class="st2" d="M156,91.8l-7.6-15.2c2.5-4.6,5.2-9.1,8.2-13.4l17.9-4.3c-3,4.3-15,17.8-17.5,22.5"/>
<path class="st2" d="M165.3,67.9l-8.6-4.7c2.8-4,5.9-7.9,9.1-11.6l18.9-2.7C181.4,52.6,168.1,63.9,165.3,67.9"/>
<path class="st2" d="M174.4,56.3l-8.6-4.7c3.2-3.7,6.7-7.1,10.3-10.4l18.9-0.7C191.4,43.7,177.7,52.6,174.4,56.3"/>
<path class="st2" d="M184.8,45.9l-8.6-4.7c3.9-3.5,7.9-6.7,12.2-9.7l10.1,4.4C194.1,38.8,188.6,42.4,184.8,45.9z"/>
<path class="st2" d="M197,36.2l-8.6-4.7c5.2-3.6,10.7-6.8,16.5-9.5l8.6,4.7C207.7,29.4,202.2,32.6,197,36.2"/>
<path class="st2" d="M212.8,27l-8-5c9.4-4.4,20.2-7.7,30.5-9.1l9.1,4.9c-10.3,1.5-21.9,5.2-31.3,9.6"/>
<path class="st1" d="M141.7,141.3C141.8,81,187.2,25.8,243.1,17.9c0.5-0.1,1.1,0,1.6,0.1c0.5,0.2,1,0.4,1.4,0.8s0.7,0.8,0.9,1.3
	s0.3,1,0.2,1.6c0,1.2-0.4,2.3-1.2,3.2c-0.7,0.9-1.8,1.5-2.9,1.8c-51.4,7.1-93.1,58-93.1,113.4s41.5,94.6,92.9,87.3
	s93.1-58,93.2-113.5c0-38.8-20.4-69.7-50.4-82.1c-0.5-0.2-0.9-0.6-1.3-1c-0.3-0.4-0.6-0.9-0.8-1.4s-0.2-1.1-0.2-1.6s0.2-1.1,0.5-1.5
	c0.3-0.8,0.8-1.4,1.5-1.9c0.6-0.5,1.4-0.8,2.2-1c0.6-0.1,1.3,0,1.8,0.2c32.6,13.5,54.8,47.1,54.7,89.4
	c-0.1,60.3-45.5,115.6-101.4,123.4C186.8,244.2,141.6,201.6,141.7,141.3L141.7,141.3z"/>
<path class="st3" d="M204.8,197.2l-8.6-4.7c0.7,0.4,1.4,0.8,2.2,1.1l8.6,4.7L204.8,197.2"/>
<path class="st3" d="M206.9,198.3l-8.6-4.7c3.6,1.8,7.3,3.1,11.2,4.1l15.1,7.5C220.7,204.2,210.5,200.1,206.9,198.3L206.9,198.3z"/>
<path class="st3" d="M217.4,203.1l-7.9-5.4c8,2,16.4,2.5,24.5,1.3c0.5-0.1,1-0.1,1.4,0l8.6,4.7c-0.5-0.1-0.5,0.6-1,0.7
	c-8.2,1.2-16.9,1.3-24.9-0.7"/>
<path class="st3" d="M244.1,203.8l-8.6-4.7c0.2,0.1,0.4,0.1,0.6,0.2l8.7,4.7C244.6,203.9,244.4,203.8,244.1,203.8"/>
<path class="st3" d="M244,204.4l-12.2-5.1c1.9-0.2,3.4-0.7,4.5,0l8.6,4.7C245.8,204.7,245.4,204.7,244,204.4L244,204.4z
	 M274.8,198.5l-8.6-4.7c-0.6-0.3-1.2-0.9-1.5-1.5s-0.4-1.2-0.5-1.9c0-0.8,0.2-1.9,0.5-2.1l13.2,0.5c-0.2,0.6-5,5.6-5,6.2
	c0,0.7,0.2,1.3,0.5,1.9C273.7,197.6,274.2,198.2,274.8,198.5"/>
<path class="st3" d="M273.1,193.3l-8.6-4.7c0-0.2,0.5-1,0.5-1l8.5,5C273.3,192.8,273.1,193.1,273.1,193.3z"/>
<path class="st3" d="M273.5,192.5l-8.6-4.7c-0.1-0.1,0.9-1.3,1.6-1.8l7.5,5.6C273.9,191.9,273.6,192.3,273.5,192.5z"/>
<path class="st3" d="M273.9,192l-8.6-4.7c0.6-0.9,1.1-1.1,2-1.8l7,6L273.9,192z"/>
<path class="st3" d="M274.2,191.5l-8.6-4.7l0.4-0.4l8.6,4.7C274.6,191.2,274.4,191.4,274.2,191.5"/>
<path class="st3" d="M272.9,195.1l-6.9-8.7c0.2-0.1,0.3-0.3,0.5-0.4c2.9-2,5.8-4.3,8.4-6.7l14.1,2.5c-2.7,2.4-11,6.8-13.9,8.9
	c-0.2,0.1-0.3,0.3-0.5,0.4"/>
<path class="st3" d="M274.6,193.5l0.3-14.1c2.5-2.3,5.9-5.7,8.1-8.3l15.3-0.4c-2.3,2.6-12.2,11.1-14.8,13.4"/>
<path class="st3" d="M290.8,176.7l-8.6-4.7c2.3-2.6,4.4-5.3,6.4-8.1l8.6,4.6C295.2,171.4,293.1,174.1,290.8,176.7"/>
<path class="st3" d="M295.4,177l-6.8-13.2c2.1-3,4-6.2,5.7-9.5l10.2,4.8C302.7,162.5,297.5,174,295.4,177L295.4,177z"/>
<path class="st3" d="M303,159.2l-8.6-4.7c2.1-3.8,3.9-7.8,5.4-11.9l8.6,4.7C306.8,151.4,305,155.4,303,159.2z"/>
<path class="st3" d="M308.3,147.3l-8.6-4.7c3.6-9.7,5.4-19.9,5.5-30.2c0-27.2-13.1-49.3-32.9-60.1l8.6,4.7
	c22.3,9.9,40.8,31.7,34.1,61.2C314.9,128.5,311.9,137.6,308.3,147.3L308.3,147.3z M243.2,42.6l-8.8-5.8c9.2-1.4,18.5-0.9,27.5,1.4
	l12.1,6.1C265,42.1,252.3,41.3,243.2,42.6z"/>
<path class="st3" d="M270.4,42.9l-8.6-4.7c4.3,1.1,8.5,2.7,12.5,4.6l8.9,4.9c-4-2-8.8-1.4-13.1-2.5"/>
<path class="st3" d="M282.4,48.5l-8.1-5.7l2.4,1.3l8.6,4.7L282.4,48.5z M200.3,205.4l-8.6-4.6c-22.2-12.1-36.9-36.8-36.8-67.2
	c0-11.5,2.1-22.9,6.1-33.7l14.8-3.8c-4,10.8-7.9,30.5-7.9,42C173.3,162.8,178.1,193.3,200.3,205.4"/>
<path class="st3" d="M169.6,104.6l-8.6-4.7c1.6-4.6,3.8-10.1,6.6-14.1l10.1,5.1C175.4,95,171.3,100,169.6,104.6z"/>
<path class="st3" d="M175.6,91.2l-8.6-4.7c1.9-3.6,4.1-7.1,6.5-10.5l19.5-1C190.7,78.4,177.7,87.6,175.6,91.2"/>
<path class="st3" d="M182.1,80.7l-8.6-4.6c2.2-3.2,4.6-6.3,7.1-9.1l22.4-5.9C200.4,64,184.3,77.6,182.1,80.7z"/>
<path class="st3" d="M189.2,71.7l-8.6-4.7c2.5-2.9,5.2-5.6,8.1-8.2l24-2.2C209.8,59.2,191.8,68.8,189.2,71.7"/>
<path class="st3" d="M197.4,63.5l-8.7-4.7c3-2.7,6.2-5.3,9.6-7.6l21.3,0.9C216.2,54.4,200.4,60.7,197.4,63.5"/>
<path class="st3" d="M206.9,55.9l-8.6-4.7c4.1-2.8,8.4-5.3,12.9-7.4l10.1,4.8C216.7,50.7,211,53.1,206.9,55.9z"/>
<path class="st3" d="M219.8,48.5l-8.6-4.7c7.3-3.5,15.2-5.8,23.2-7l8.6,4.7C235,42.7,227.1,45,219.8,48.5"/>
<path class="st4" d="M243,41.6c43.7-6.1,79.1,27.1,79,74.4c-0.2,16.1-4.2,32-11.7,46.2c-7.5,14.3-18.3,26.6-31.5,35.9
	c-0.6,0.4-1.2,0.6-1.9,0.7c-0.7,0.1-1.5,0-2.1-0.3s-1.2-0.9-1.5-1.5c-0.5-1.1-0.5-2.3-0.2-3.4s1.1-2.1,2.1-2.8
	c11.8-8.3,21.5-19.4,28.2-32.2s10.3-27,10.5-41.5c0-42.3-31.7-72.2-70.9-66.7c-39.2,5.4-71.1,44.3-71.2,86.7
	c-0.1,42.3,31.7,72.3,71,66.7c0.5-0.1,1.1,0,1.6,0.1c0.5,0.2,1,0.4,1.4,0.8c0.4,0.4,0.7,0.8,0.9,1.3c0.2,0.5,0.3,1,0.2,1.6
	c0,1.2-0.4,2.3-1.1,3.2s-1.8,1.5-2.9,1.8c-43.7,6.2-79.1-27.1-79-74.4C163.7,90.9,199.3,47.7,243,41.6L243,41.6z"/>
<path class="st2" d="M217.5,174.8l-8.6-4.7l1.4,0.7l8.6,4.7L217.5,174.8z"/>
<path class="st2" d="M218.7,176.1l-8.2-5.5c2.4,1.2,5.1,2.4,7.7,3.1l9,5C224.5,177.9,221.1,177.3,218.7,176.1z"/>
<path class="st2" d="M219.8,182.5l-1.9-8.9c1.4,0.4,2.8,0.6,4.3,0.9c4.1,0.6,8.3,0.6,12.4,0c4.9-0.7,9.6-2.1,14-4.2l8.6,4.7
	c-4.4,2.1-9.2,3.8-14.1,4.4c-4.1,0.6-8.1,0.6-12.2,0c-1.4-0.2-3.3-0.1-4.6-0.4"/>
<path class="st2" d="M248.3,184.5l0.3-14.2c2.7-1.3,5.3-2.8,7.8-4.5l9.6,4.8c-2.5,1.7-2.6,8.7-5.3,10"/>
<path class="st2" d="M265.5,171.4l-9.3-5.5c2-1.4,4.1-3.1,5.9-4.8l10.1,4.8C270.4,167.6,267.6,170,265.5,171.4z"/>
<path class="st2" d="M270.8,165.9l-8.8-4.7c1.7-1.5,3.8-3.6,5.4-5.3l8.4,5.1C274.1,162.7,272.5,164.3,270.8,165.9"/>
<path class="st2" d="M271.4,171l-4.4-14.7c1.5-1.7,3.3-3.9,4.6-5.8h14c-1.3,1.9-8.5,8.8-10,10.5"/>
<path class="st2" d="M280,155.5l-8.6-4.7c1.4-2,2.6-4.1,3.8-6.3l10.7,4.5C284.7,151.2,281.4,153.5,280,155.5"/>
<path class="st2" d="M285,149.9l-9.8-5.3c1.4-2.6,2.6-5.2,3.6-8l9.2,4.9c-1,2.7-1.6,5.4-3,8"/>
<path class="st2" d="M287.4,141.2l-8.6-4.7c0.8-2.2,1.5-4.5,2.1-6.8c5.7-23.2-3.3-44.8-20.5-54.1l9,4.2
	c17.2,9.3,25.8,31.5,20.2,54.6C288.9,136.7,288.3,139,287.4,141.2z M230.5,74.2l4-11.9c4.8-0.7,9.9-0.8,14.8-0.1
	c1.7,0.2,3.4,0.6,5,1l8.6,4.7c-1.6-0.4-3.3-0.8-5-1c-4.8-0.7-10.8-0.1-15.6,0.6"/>
<path class="st2" d="M252,71.1l2.3-7.9c3,0.8,6,1.9,8.8,3.3l8.6,4.7c-2.8-1.4-5.8-2.5-8.9-3.3 M213.1,183l-8.6-4.7
	c-12.7-6.9-21.6-19.6-24.8-34.9c-0.2-0.9-0.1-1.8,0.2-2.7l9.2,4.6c-0.3,0.9-0.9,1.9-0.8,2.8C191.5,163.3,200.3,176.1,213.1,183z"/>
<path class="st2" d="M189.1,146.1l-9.2-5.4c0.1-0.2,0.2-0.5,0.3-0.7l9.7,4.9C189.8,145.1,189.2,145.9,189.1,146.1z"/>
<path class="st2" d="M189.5,145.3l-9.3-5.3l0.3-0.6l11.7,2.5L189.5,145.3L189.5,145.3z"/>
<path class="st2" d="M189.2,144.1l-8.6-4.7c0.1-0.2,0.2-0.3,0.4-0.5l8.6,4.7C189.5,143.8,189.3,144,189.2,144.1z"/>
<path class="st2" d="M189.5,144.4l-8.6-5.5l0.4-0.4l8.6,4.7C189.9,143.4,189.7,144.3,189.5,144.4z M190,143.2l-8.6-4.7
	c0.2-0.1,0.3-0.2,0.5-0.3l8.6,4.7C190.3,143,190.2,143.2,190,143.2"/>
<path class="st2" d="M179.9,140.7c0,0,0.4-1.6,1.7-2.5c0.2-0.1,1.2-0.6,1.6-0.7l9.2,5.2c-0.2,0.1-1.5,1.1-1.7,1.3"/>
<path class="st2" d="M187.3,147.6l-4.7-9.9l0.3-0.1c0.3-0.1,0.6-0.2,0.9-0.2c0.5-0.1,1-0.1,1.4,0l9.4,5.3c-0.5-0.1-1.2,0.3-1.7,0.4
	c-0.3,0-1-0.1-1.3,0L187.3,147.6z"/>
<path class="st2" d="M193.8,142.2l-8.6-4.7c0.2,0.1,0.5,0.1,0.7,0.2l8.6,4.7C194.3,142.3,194.1,142.2,193.8,142.2"/>
<path class="st2" d="M193.3,142.7l-8.1-5.3l0.8,0.3l9,5c0.4,0.4-0.1,0.5-1.3,0.4 M190.8,124.1c-2.3-0.7-8.6-4.7-8.6-4.7
	c-0.8-0.5-1.4-1.2-1.7-2s-0.4-1.8-0.2-2.7c0.7-2.7,1.5-5.4,2.4-8l10.5,3.9c-1,2.6-3.1,6.2-3.8,8.9c-0.3,0.9-0.3,1.3,0,2.1
	s3.1,2.4,3.8,2.8C193.2,124.4,193.5,124.9,190.8,124.1z"/>
<path class="st2" d="M191.5,111.3l-8.8-4.4c1.2-3.2,2.8-6.7,4.4-9.7l14.2,2C199.6,102.2,192.7,108.1,191.5,111.3"/>
<path class="st2" d="M194.8,105.6l-7.7-8.3c1.4-2.6,2.9-5,4.5-7.4l15.8-3.8c-1.7,2.4-10.4,13.3-11.7,15.8"/>
<path class="st2" d="M200.3,94.7l-15.7,7.7c3.3-8,12.5-23.6,29.5-33.1l-8.7,19C203.5,90.4,201.8,92.5,200.3,94.7"/>
<path class="st2" d="M205.2,89.1l-8.5-5.5c3.3-5.2,14.4-11.8,16.4-13.6L212,82.3c-2,1.8-4.1,5.2-5.9,7.2"/>
<path class="st2" d="M210.6,83.6l-8.3-5.8c2.2-1.9,4.4-3.8,6.8-5.4l15.2,3.9c-2.4,1.6-11.2,4.9-13.4,6.8"/>
<path class="st2" d="M217.8,77.1l-8.6-4.7c2.9-2,6-3.8,9.2-5.3l15.2,2.6C230.4,71.3,220.8,75.1,217.8,77.1"/>
<path class="st2" d="M227,71.8l-8.6-4.7c5.2-2.4,10.7-4.1,16.3-4.9l8.6,4.7C237.7,67.6,232.2,69.3,227,71.8"/>
<path class="st1" d="M257.9,67c0-0.1-20.7-3.1-37.9,7.4c-16.2,9.9-22.1,17.2-28.3,31.9c-6.5,15.3-1.6,17.3,1.3,18.2
	c1-0.2,1.9-0.6,2.6-1.3c0.7-0.7,1.2-1.5,1.4-2.5c5.8-24,25.2-41.8,46.3-44.8c4.1-0.6,8.3-0.6,12.4,0c25.5,3.8,40.6,30.1,33.8,58.6
	c-5.8,23.9-25.2,41.8-46.3,44.8c-4.1,0.6-8.3,0.6-12.4,0c-17.9-2.6-30.7-16.3-34.3-34.1c-0.1-0.9-0.8-1.7-1.4-2.3
	c-1.2-1.1-7.7-2-6.7,5.3c3,21.1,19.3,37,40.3,40.1c4.8,0.7,9.7,0.7,14.6,0c24.8-3.5,47.5-24.5,54.3-52.6
	C305.6,102.2,287.9,71.4,257.9,67"/>
<path class="st3" d="M269.9,118.1l-8.7-4.5c-0.4-0.2-0.8-0.6-1.1-1c-0.3-0.4-0.5-0.9-0.6-1.4c-0.7-3.2-2.1-6.1-4.1-8.7
	s-4.4-4.7-7.3-6.3l9.1,4.3c2.8,1.6,6.5,3.3,8.4,5.9c2,2.6,4.1,5.2,4.9,8.4c0.1,0.5,1.5,0.4,1.8,0.8c0.2,0.4-2.1,2.1-1.7,2.3
	 M228.5,152.7l-8.6-4.7c0.2,0.2,0.5,0.3,0.8,0.4l8.6,4.7L228.5,152.7z"/>
<path class="st3" d="M228.9,153.5l-8.2-5.1c1.3,0.7,2.8,1.2,4.2,1.6l8.6,4.7c-1.5-0.4-2.9-0.9-4.2-1.6"/>
<path class="st3" d="M233.4,154.7l-8.6-4.7c3,0.8,6,0.9,9,0.5c2.4-0.3,4.6-1,6.8-1.9l0.9-0.4l8.6,4.7l-0.9,0.4
	c-2.2,0.9-4.5,1.6-6.8,1.9C239.5,155.6,236.4,155.4,233.4,154.7"/>
<path class="st3" d="M249.9,153.7l-8.4-5.5c1.5-0.7,3.1-1.6,4.4-2.6l8.6,4.7C253.2,151.3,251.4,153,249.9,153.7L249.9,153.7z"/>
<path class="st3" d="M247.5,158.4l-1.6-12.8c1.1-0.8,2.2-1.6,3.2-2.5l17.7,0.4c-1,0.9-11.1,6.1-12.2,6.8"/>
<path class="st3" d="M257.7,147.8l-8.6-4.7c0.9-0.8,1.8-1.7,2.7-2.7l8.6,4.7C259.5,146.1,258.7,147,257.7,147.8"/>
<path class="st3" d="M260,147.4l-8.3-6.9c0.8-0.9,1.6-1.9,2.4-3l10.2,5.7C263.5,144.2,260.9,146.4,260,147.4L260,147.4z"/>
<path class="st3" d="M264.3,143.6l-10.2-6.1c0.8-1.1,1.5-2.3,2.1-3.5l10.2,5.4c-0.6,1.2-1.7,2.3-2.5,3.4"/>
<path class="st3" d="M265.5,139.3l-9.4-5.4c0.8-1.4,1.4-2.9,2-4.5l10.3,5.2c-0.6,1.5-1.8,3.2-2.5,4.6"/>
<path class="st3" d="M268.1,135.6l-9.8-6c0.6-1.7,1.1-3.4,1.4-5.1l0.4-1.2l8.8,5.1c-0.1,0.3,0.9,1,0.8,1.3
	C269.4,131.4,268.7,134,268.1,135.6L268.1,135.6z"/>
<path class="st3" d="M268.5,128.3l-8.6-4.7c0.1-0.2,0.2-0.6,0.3-0.8l8.6,4.8C268.8,127.9,268.7,128.1,268.5,128.3"/>
<path class="st3" d="M268.8,127.7l-8.6-4.6l0.3-0.6c3.6,1.6,5.3,2.8,8.6,4.8C269,127.4,268.9,127.6,268.8,127.7"/>
<path class="st3" d="M269.2,127.1l-9.9-1.7c0.9-2.3,0.6-4.1,4-4.8l6.1,6C269.3,126.8,269.2,127,269.2,127.1"/>
<path class="st3" d="M269.5,126.6l-8.6-4.7c0.1-0.2,0.9-1.2,3-1.6l6,5.9C269.9,126.2,269.5,126.6,269.5,126.6z"/>
<path class="st3" d="M268.5,129.2l-7.2-7.7c0.2-0.1,0.4-0.3,0.5-0.4l11.3,4.3c-0.2,0.1-3,0.7-3.1,0.8"/>
<path class="st3" d="M270.5,125.8l-8.6-4.7c0.1-0.3,1.6-0.9,2-0.8l7.4,5.1C271,125.6,270.7,125.7,270.5,125.8"/>
<path class="st3" d="M271.1,125.4l-8.6-4.7c0.4-0.2,0.8-0.3,1.2-0.4h1.5l8.6,4.7l-0.6-0.1h-0.9C271.9,125,271.5,125.1,271.1,125.4"
	/>
<path class="st3" d="M273.8,125.1l-8.6-4.7c0.2,0.1,0.4,0.1,0.6,0.2l8.6,4.7C274.2,125.3,274,125.2,273.8,125.1z"/>
<path class="st3" d="M270.2,127.5l-5.1-7.2c0.4,0.1,0.6,0.1,0.8,0.3l8.6,4.7c0.7,0.4,1,0.7,1.1,1.3 M230.6,94.9l3.5-10.2
	c4-0.6,8-0.4,11.9,0.6l8.6,4.7c-3.9-1-7.9-1.2-11.9-0.6"/>
<path class="st3" d="M251.5,90.8l-5.5-5.4c1.9,0.5,3.7,1.2,5.5,2l8.6,4.7c-1.8-0.9-4.9-0.4-6.8-0.9"/>
<path class="st3" d="M260.1,92.1l-8.6-4.7l1,0.5l8.6,4.8L260.1,92.1 M224.2,160.9l-8.8-4.6c-3.7-2.1-6.9-4.9-9.5-8.3
	c-2.6-3.4-4.4-7.3-5.3-11.4c-2-8-1.3-16.9,1.6-24.6l8.9,5.1c-2.9,7.7-2.8,16.1-0.8,24.1c1,4.2,2.1,7.6,4.6,11
	C217.4,155.4,220.4,158.8,224.2,160.9z"/>
<path class="st3" d="M210.7,117l-8.6-4.7c0.7-2,1.6-4,2.6-5.9l10.6,5.1C214.3,113.4,211.4,115,210.7,117z"/>
<path class="st3" d="M213.3,111.1l-8.6-4.7c0.9-1.6,1.8-3.1,2.8-4.6l8.6,4.7C215.1,108,214.2,109.5,213.3,111.1"/>
<path class="st3" d="M210.3,112.6l-2.7-10.8c1-1.4,2-2.7,3.1-3.9l8.6,4.7c-1.1,1.2-5.1,11.2-6.1,12.6"/>
<path class="st3" d="M218.3,108.6l-7.6-10.8c1.1-1.2,2.3-2.4,3.5-3.5l16.7-0.8c-1.2,1.1-6.9,11.7-8,13"/>
<path class="st3" d="M222.8,99.1l-8.6-4.7c1.3-1.2,2.7-2.3,4.2-3.3l11.8,4.3C228.6,96.4,224.1,97.9,222.8,99.1"/>
<path class="st3" d="M226.9,95.8l-8.7-4.7c1.8-1.3,3.7-2.3,5.7-3.3l21.5,2C243.4,90.7,228.7,94.5,226.9,95.8"/>
<path class="st3" d="M226.8,97l-2.8-9.2c0.4-0.2,0.8-0.4,1.1-0.5c2.9-1.2,5.9-2.1,9-2.5l12.4,4.4c-3.1,0.4-9.9,1.6-12.8,2.8
	C233.7,92,226.8,97,226.8,97z"/>
<path class="st4" d="M235.8,100.2c-14.1,6-22.4,22.8-18.7,37.5c1.2,5.6,4.5,10.6,9.2,13.8c4.7,3.3,10.5,4.6,16.2,3.7
	c2.4-0.3,4.7-1,6.9-1.9c4.9-2.2,9.1-5.6,12.4-9.8s5.6-9.1,6.6-14.4c0.2-1,0.6-1.9,1.4-2.6c0.7-0.7,1.6-1.2,2.6-1.4h0.9
	c0.5,0.1,1,0.2,1.5,0.5s0.8,0.7,1.1,1.1c0.3,0.5,0.5,1,0.6,1.5c0.1,0.5,0,1.1-0.1,1.6c-1.3,6.9-4.3,13.3-8.6,18.8
	s-9.9,9.9-16.3,12.7c-2.9,1.2-5.9,2.1-8.9,2.5c-15.1,2.2-29.1-6.8-33.2-22.9h-0.1h0.1c-4.9-19.2,6.1-41.1,24.5-49
	c2.9-1.2,5.9-2.1,8.9-2.5c15.1-2.1,29.1,6.9,33.2,22.9c0.3,1.1,0.1,2.3-0.4,3.4c-0.5,1-1.4,1.9-2.5,2.4c-0.3,0.1-0.7,0.2-1,0.3
	c-0.9,0.1-1.8-0.1-2.5-0.6s-1.2-1.3-1.4-2.1c-1.2-5.6-4.5-10.5-9.2-13.8s-10.5-4.6-16.2-3.7C240.3,98.6,238,99.3,235.8,100.2
	L235.8,100.2z"/>
<path class="st0" d="M279.1,134.4l7.8-2.2l-66.6-17.4c-0.8,1.5-1.2,2.3-1.7,3.8L279.1,134.4z M293.6,149.4l7.8-2.2l4.7,13.6l-10.6,3
	L293.6,149.4L293.6,149.4z"/>
<path class="st0" d="M298.3,155.3l7.8-2.2c0.1,0.1,0.2,0.3,0.3,0.5l-7.8,2.2C298.5,155.6,298.4,155.4,298.3,155.3z"/>
<path class="st0" d="M298.6,155.7l7.8-2.1c0.1,0.2,0.3,0.5,0.4,0.7l-7.8,2.2C298.9,156.3,298.7,156,298.6,155.7"/>
<path class="st0" d="M299,156.4l7.8-2.2c0.1,0.3,0.3,0.6,0.3,0.9l-7.8,2.2C299.2,157.1,299.1,156.7,299,156.4 M299.3,157.4l7.8-2.2
	c0,0.2,0,0.4,0.1,0.6l-7.8,2.2C299.5,157.7,299.5,157.5,299.3,157.4z"/>
<path class="st0" d="M299.5,157.9l7.8-2.2v0.4l-7.8,2.2V157.9z M299.5,158.4l7.8-2.2v0.4l-7.8,2.2V158.4z M299.6,158.8l7.8-2.2v0.4
	l-7.8,2.2V158.8"/>
<path class="st0" d="M299.6,159.1l7.8-2.2v0.3l-7.8,2.2V159.1z M299.6,159.5l7.8-2.2v0.3l-7.8,2.2V159.5"/>
<path class="st0" d="M299.5,159.8l7.8-2.2v0.3l-7.8,2.2V159.8z"/>
<path class="st0" d="M299.5,160.1l7.8-2.2v0.3l-7.8,2.2V160.1z"/>
<path class="st0" d="M299.4,160.4l7.8-2.2v0.3l-7.8,2.2V160.4"/>
<path class="st0" d="M299.3,160.7l7.8-2.2v0.3l-7.9,2.1C299.2,160.8,299.2,160.7,299.3,160.7"/>
<path class="st0" d="M299.2,160.9l7.8-2.2c0,0.1-0.1,0.2-0.1,0.3l-7.8,2.2C299.2,161.1,299.2,161,299.2,160.9 M299.1,161.3l7.8-2.2
	l-0.1,0.3l-7.8,2.2C299,161.5,299.1,161.4,299.1,161.3"/>
<path class="st0" d="M299,161.6l7.8-2.2c-0.1,0.1-0.1,0.2-0.2,0.3l-7.8,2.2C298.8,161.9,298.9,161.7,299,161.6 M298.8,162l7.8-2.2
	l-0.2,0.4l-7.8,2.2C298.6,162.2,298.7,162.1,298.8,162"/>
<path class="st0" d="M298.5,162.3l7.8-2.2c-0.1,0.1-0.2,0.3-0.3,0.4l-7.8,2.2C298.3,162.7,298.4,162.5,298.5,162.3 M298.2,162.8
	l7.8-2.2l-0.2,0.3c-0.5,0.5-1.1,0.9-1.8,1.1c0,0-8,2.3-8.6,2.3c-0.6-0.1,1.6-0.5,2.1-1C297.5,163.1,298.1,162.9,298.2,162.8
	L298.2,162.8z M285.2,137.5l18.1-0.9l3,0.8l-7.8,2.8L285.2,137.5L285.2,137.5z"/>
<path class="st0" d="M302.7,135.2l6.7-1.5l-6.2,2.9l-7.8,2.2L302.7,135.2L302.7,135.2z M298,125.5l7.8-2.2c0.7-0.2,1.2-0.2,2.4,0
	c1.7,0.4,2.5,1.7,2.5,1.7l-6.8,3.8l-5.6-3.4L298,125.5"/>
<path class="st0" d="M298.4,125.4l7.8-2.2h0.4l-7.8,2.2H298.4z"/>
<path class="st0" d="M298.8,125.4l7.8-2.2h0.3l-7.8,2.2H298.8"/>
<path class="st0" d="M299.1,125.3l7.8-2.2h0.3l-7.8,2.2H299.1 M299.5,125.4l7.8-2.2h0.3l-7.8,2.2H299.5z M299.8,125.4l7.8-2.2h0.3
	l-7.8,2.2H299.8 M300.1,125.5l7.8-2.2h0.3l-7.8,2.2H300.1 M300.4,125.5l7.8-2.2h0.3l-7.8,2.2H300.4 M300.6,125.6l7.8-2.2l0.3,0.1
	l-7.8,2.2L300.6,125.6z M300.9,125.7l7.8-2.2l0.3,0.1l-7.8,2.2L300.9,125.7z M301.2,125.8l7.8-2.2l0.3,0.1l-7.8,2.2L301.2,125.8
	 M301.5,126l7.8-2.2l0.3,0.2l-7.8,2.2L301.5,126z M301.8,126.2l7.8-2.2c0.1,0.1,0.2,0.1,0.3,0.2l-7.8,2.2L301.8,126.2 M302.1,126.4
	l7.8-2.2l0.3,0.3l-7.8,2.2L302.1,126.4"/>
<path class="st0" d="M302.4,126.6l7.8-2.2l0.4,0.4l-7.8,2.2L302.4,126.6z"/>
<path class="st0" d="M302.8,127l7.8-2.2c0.2,0.2,0.4,0.5,0.6,0.8l-7.8,2.3C303.2,127.6,303,127.4,302.8,127"/>
<path class="st0" d="M303.4,127.9l7.3-2.9c0.3,0.2,0.4,0.4,1,1.4c0.9,1.5,0.7,4.9-0.5,5.8l-7.2-3.6
	C303.8,128.3,303.7,128,303.4,127.9"/>
<path class="st0" d="M303.9,128.5l7.6-2.3c0.1,0.3,0.4,0.8,0.4,1.7l-7.8,1.5C304,129.1,303.9,128.9,303.9,128.5
	C303.9,128.6,303.9,128.6,303.9,128.5L303.9,128.5z"/>
<path class="st0" d="M303.9,128.8l7.7-1.7c0,0.2,0.3,1.5,0.4,1.7l-7.7,1.2C304.3,129.8,303.9,128.9,303.9,128.8z"/>
<path class="st0" d="M304.3,130l7.7-2.1v0.4l-7.7,2.1V130"/>
<path class="st0" d="M304.3,129.4l7.7-1.1v0.4l-7.6,2.5C304.4,131.2,304.3,129.6,304.3,129.4L304.3,129.4z"/>
<path class="st0" d="M304.4,130.9l7.6-2.1v0.4l-7.6,2V130.9L304.4,130.9z"/>
<path class="st0" d="M304.4,131.2l7.6-2.4v0.8l-7.6,1.9V131.2"/>
<path class="st0" d="M304.4,131.6l7.6-2.3v0.8l-7.6,1.8V131.6z"/>
<path class="st0" d="M304.4,131.9l7.6-2.7v0.8l-7.6,2.2V131.9"/>
<path class="st0" d="M304.3,132.2l7.8-2.2v0.3l-7.8,2.2V132.2z"/>
<path class="st0" d="M304.4,131.3l7.7-1v0.3l-7.8,2.2L304,133"/>
<path class="st0" d="M304.2,132.8l7.8-2.2v0.3l-8,2.5L304.2,132.8z"/>
<path class="st0" d="M304.1,133.1l7.8-2.2c-0.1,0.1-0.1,0.2-0.1,0.3l-7.8,2.1C304,133.3,304,133.2,304.1,133.1"/>
<path class="st0" d="M303.9,133.4l7.8-2.2c-0.1,0.1-0.1,0.2-0.1,0.3c-3.1,1.9-5,1.9-8.1,2.3L303.9,133.4L303.9,133.4z"/>
<path class="st0" d="M303.8,133.7l7.8-2.2l-0.2,0.3l-7.8,2.2L303.8,133.7z M303.6,134.1l7.8-2.2l-0.7,0.7l-7.4,1.8L303.6,134.1
	L303.6,134.1z"/>
<path class="st0" d="M303.4,134.4l8.2-2.7c0,0-1.5,1.6-1.7,1.7l-6.8,1.4C303.2,134.7,303.4,134.6,303.4,134.4"/>
<path class="st0" d="M304.3,132.5l7.3-0.8c-0.4,0.8-1.6,1.7-2.1,1.9l-7.8,2.2C302.2,135.6,303.9,133,304.3,132.5L304.3,132.5z
	 M310.7,143.9l9.5-2l4.2,1.2l-7.8,2.8L310.7,143.9z"/>
<path class="st0" d="M320.8,139.1l6.9,0.2l-6.2,2.9l-7.8,2.2L320.8,139.1L320.8,139.1z M316.1,131.1l7.8-2.2c0.7-0.2,1.2-0.2,2.4,0
	c1.7,0.4,2.5,1.7,2.5,1.7l-6.8,3.8l-5.6-3.4L316.1,131.1"/>
<path class="st0" d="M316.6,131l7.8-2.2h0.4L317,131H316.6z"/>
<path class="st0" d="M316.9,131l7.8-2.2h0.3l-7.8,2.2H316.9 M317.3,131l7.8-2.2h0.3l-7.8,2.2H317.3"/>
<path class="st0" d="M317.6,131l7.8-2.2h0.3l-7.8,2.2H317.6z"/>
<path class="st0" d="M317.9,131l7.8-2.2h0.3l-7.8,2.2H317.9 M318.2,131.1l7.8-2.2h0.3l-7.8,2.2H318.2"/>
<path class="st0" d="M318.5,131.1l7.8-2.2h0.3l-7.8,2.2H318.5 M318.8,131.2l7.8-2.2l0.3,0.1l-7.8,2.2L318.8,131.2z M319.1,131.3
	l7.8-2.2l0.3,0.1l-7.8,2.2L319.1,131.3z M319.4,131.5l7.8-2.2l0.3,0.1l-7.8,2.2L319.4,131.5 M319.7,131.7l7.8-2.2l0.3,0.2l-7.8,2.2
	L319.7,131.7z"/>
<path class="st0" d="M320,131.8l7.8-2.2c0.1,0.1,0.2,0.1,0.3,0.2l-7.8,2.2L320,131.8"/>
<path class="st0" d="M320.3,132l7.8-2.2l0.3,0.3l-7.8,2.2L320.3,132"/>
<path class="st0" d="M320.6,132.3l7.8-2.2l0.4,0.4l-7.8,2.2L320.6,132.3z"/>
<path class="st0" d="M321,132.7l7.8-2.2c0.2,0.2,0.4,0.5,0.6,0.8l-7.8,2.3C321.4,133.2,321.2,133,321,132.7"/>
<path class="st0" d="M321.6,133.5l7.3-2.9c0.3,0.2,0.4,0.4,1,1.4c0.9,1.5,0.7,4.9-0.5,5.8l-7.2-3.6
	C322,133.9,321.8,133.7,321.6,133.5"/>
<path class="st0" d="M322.1,134.2l7.6-2.3c0.1,0.3,0.4,0.8,0.4,1.7l-7.3,3.7C322.7,137,322.1,134.6,322.1,134.2
	C322.1,134.3,322.1,134.2,322.1,134.2L322.1,134.2z"/>
<path class="st0" d="M322.4,135.1l7.4-2.4c0,0.2,0.3,1.5,0.4,1.7l-7.7,1.2C322.4,135.5,322.4,135.3,322.4,135.1L322.4,135.1z"/>
<path class="st0" d="M322.5,135.6l7.7-2.1v0.4l-7.7,2.1V135.6 M322.5,136.1l7.6-2.1v0.4l-7.6,2.5V136.1L322.5,136.1z"/>
<path class="st0" d="M322.6,136.5l7.6-2.1v0.4l-7.6,2V136.5L322.6,136.5z"/>
<path class="st0" d="M322.6,136.8l7.6-2.4v0.8l-7.6,1.9V136.8"/>
<path class="st0" d="M322.6,137.2l7.6-2.3v0.8l-7.6,1.8V137.2z"/>
<path class="st0" d="M322.5,137.5l7.6-2.7v0.8l-7.6,2.2V137.5 M322.5,137.8l7.8-2.2v0.3l-7.8,2.2V137.8z"/>
<path class="st0" d="M322.6,136.9l7.7-1v0.3l-7.8,2.2l-0.3,0.2"/>
<path class="st0" d="M322.3,138.4l7.8-2.2v0.3l-8,2.5L322.3,138.4z"/>
<path class="st0" d="M322.2,138.7l7.8-2.2c-0.1,0.1-0.1,0.2-0.1,0.3l-7.8,2.1C322.1,138.9,322.2,138.8,322.2,138.7"/>
<path class="st0" d="M322.5,137.8l7.4-1c-0.1,0.1-0.1,0.2-0.1,0.3c-3.1,1.9-5,1.9-8.1,2.3L322.5,137.8L322.5,137.8z"/>
<path class="st0" d="M322,139.4l7.8-2.2l-0.2,0.3l-7.8,2.2L322,139.4z"/>
<path class="st0" d="M321.8,139.7l7.8-2.2l-0.7,0.7l-7.4,1.8L321.8,139.7L321.8,139.7z"/>
<path class="st0" d="M321.5,140l8.2-2.7c0,0-1.5,1.7-1.7,1.7l-6.8,1.4C321.4,140.3,321.5,140.2,321.5,140"/>
<path class="st0" d="M321.7,139.5l8-2.1c-0.4,0.8-1.6,1.7-2.1,1.9l-7.8,2.2C320.3,141.2,321.3,139.9,321.7,139.5L321.7,139.5z
	 M336,136.2l7.4-2.2c0.7-0.2,1.2-0.2,2.4,0c1.7,0.4,2.5,1.7,2.5,1.7l-6.8,3.8l-7.2-1.9L336,136.2"/>
<path class="st0" d="M336.1,136.1l7.8-2.2h0.4l-7.8,2.2H336.1z"/>
<path class="st0" d="M336.5,136.1l7.8-2.2h0.3l-7.8,2.2H336.5"/>
<path class="st0" d="M336.8,136l7.8-2.2h0.3l-7.8,2.2H336.8 M337.2,136.1l7.8-2.2h0.3l-7.8,2.2H337.2z"/>
<path class="st0" d="M337.5,136.1l7.8-2.2h0.3l-7.8,2.2H337.5"/>
<path class="st0" d="M337.8,136.1l7.8-2.2h0.3l-7.8,2.2H337.8 M338.1,136.2l7.8-2.2h0.3l-7.8,2.2H338.1 M338.3,136.3l7.8-2.2
	l0.3,0.1l-7.8,2.2L338.3,136.3z M338.6,136.4l7.8-2.2l0.3,0.1l-7.8,2.2L338.6,136.4z M338.9,136.5l7.8-2.2l0.3,0.1l-7.8,2.2
	L338.9,136.5 M339.2,136.7l7.8-2.2l0.3,0.2l-7.8,2.2L339.2,136.7z M339.5,136.9l7.8-2.2c0.1,0.1,0.2,0.1,0.3,0.2l-7.8,2.2
	L339.5,136.9 M339.8,137.1l7.8-2.2l0.3,0.3l-7.8,2.2L339.8,137.1"/>
<path class="st0" d="M340.1,137.3l7.8-2.2l0.4,0.4l-7.8,2.2L340.1,137.3z"/>
<path class="st0" d="M340.5,137.7l7.8-2.2c0.2,0.2,0.4,0.5,0.6,0.8l-7.8,2.3C340.9,138.3,340.7,138.1,340.5,137.7"/>
<path class="st0" d="M341.1,138.6l7.3-2.9c0.3,0.2,0.4,0.4,1,1.4c0.9,1.5,0.7,4.9-0.5,5.8l-7.2-3.6
	C341.5,139,341.3,138.7,341.1,138.6"/>
<path class="st0" d="M339.5,136.5l9.8,0.4c0.1,0.3,0.4,0.8,0.4,1.7l-6.5,3.7c-0.8,0.2-1.4,0.7-1.7,1.4c-0.3,0.8-0.8-0.6-0.9-0.8
	C340.6,142.9,339.5,136.6,339.5,136.5L339.5,136.5z"/>
<path class="st0" d="M341.9,140.2l7.4-2.4c0,0.2,0.3,1.5,0.4,1.7l-7.7,1.2C342,140.5,341.9,140.3,341.9,140.2L341.9,140.2z"/>
<path class="st0" d="M342,140.7l7.7-2.1v0.4l-7.7,2.1V140.7 M342.1,141.1l7.6-2.1v0.4l-7.6,2.5V141.1L342.1,141.1z"/>
<path class="st0" d="M342.1,141.6l7.6-2.1v0.4l-7.6,2V141.6L342.1,141.6z"/>
<path class="st0" d="M342.1,141.9l7.6-2.4v0.8l-7.6,1.9V141.9"/>
<path class="st0" d="M342.1,142.2l7.6-2.3v0.8l-7.6,1.8V142.2z"/>
<path class="st0" d="M342.1,142.6l7.6-2.7v0.8l-7.6,2.2V142.6"/>
<path class="st0" d="M342,142.9l7.8-2.2v0.3l-7.8,2.2V142.9z"/>
<path class="st0" d="M342.1,142l7.7-1v0.3l-7.8,2.2l-0.3,0.2"/>
<path class="st0" d="M341.9,143.5l7.8-2.2v0.3l-8,2.5L341.9,143.5z"/>
<path class="st0" d="M341.8,143.8l7.8-2.2c-0.1,0.1-0.1,0.2-0.1,0.3l-7.8,2.2C341.7,144,341.7,143.9,341.8,143.8"/>
<path class="st0" d="M341.6,144.1l7.8-2.2c-0.1,0.1-0.1,0.2-0.1,0.3c-3.1,1.9-5,1.9-8.1,2.3L341.6,144.1L341.6,144.1z"/>
<path class="st0" d="M341.5,144.4l7.8-2.2l-0.2,0.3l-7.8,2.2L341.5,144.4z M341.3,144.8l7.8-2.2l-0.7,0.7l-7.4,1.8L341.3,144.8
	L341.3,144.8z"/>
<path class="st0" d="M341,145.1l8.2-2.7c0,0-1.5,1.6-1.7,1.7l-6.8,1.4C340.9,145.4,341,145.3,341,145.1"/>
<path class="st0" d="M342.5,140.9l6.8,1.6c-0.4,0.8-1.6,1.7-2.1,1.9l-7.8,2.2C339.8,146.3,342.1,141.3,342.5,140.9z M312,154.1
	l8.8-1.7l4.6,5.8l-10,3L312,154.1L312,154.1z"/>
<path class="st0" d="M317.6,160.5l7.8-2.2c0.1,0.1,0.2,0.3,0.3,0.5l-7.8,2.2C317.8,160.8,317.7,160.6,317.6,160.5"/>
<path class="st0" d="M317.9,160.9l7.8-2.2c0.2,0.2,0.3,0.5,0.4,0.7l-7.8,2.2C318.2,161.4,318,161.2,317.9,160.9z"/>
<path class="st0" d="M318.3,161.6l7.8-2.2l0.3,0.9l-7.8,2.2L318.3,161.6"/>
<path class="st0" d="M318.6,162.5l7.8-2.2c0.1,0.2,0.1,0.4,0.1,0.5l-7.8,2.2C318.7,162.9,318.7,162.7,318.6,162.5z M318.8,163.1
	l7.8-2.1v0.5l-7.8,2.2V163.1"/>
<path class="st0" d="M318.8,163.5l7.8-2.2v0.4l-7.8,2.2V163.5z M318.9,163.9l7.8-2.2v0.4l-7.8,2.2V163.9z"/>
<path class="st0" d="M318.9,164.3l7.8-2.2v0.3l-7.8,2.2V164.3"/>
<path class="st0" d="M318.8,164.6l7.8-2.2v0.3l-7.8,2.2V164.6z M318.8,165l7.8-2.2v0.3l-7.8,2.2V165z"/>
<path class="st0" d="M318.8,165.3l7.8-2.2v0.3l-8,2.2v-0.3"/>
<path class="st0" d="M318.6,165.6l7.8-2.2v0.3l-7.8,2.2V165.6z"/>
<path class="st0" d="M318.6,165.9l7.8-2.2l-0.1,0.3l-7.8,2.2L318.6,165.9"/>
<path class="st0" d="M318.5,166.2l7.8-2.2l-0.1,0.3l-7.8,2.1L318.5,166.2 M318.4,166.5l7.8-2.2c0,0.1,0,0.2-0.1,0.3l-7.8,2.2
	L318.4,166.5"/>
<path class="st0" d="M318.3,166.8l7.8-2.2l-0.2,0.3l-7.8,2.2L318.3,166.8 M318.1,167.2l7.9-2.2c0,0.1-0.2,0.2-0.2,0.4l-7.8,2.2
	L318.1,167.2"/>
<path class="st0" d="M317.8,167.5l7.8-2.2c-0.1,0.1-0.2,0.3-0.3,0.4l-7.8,2.2L317.8,167.5z"/>
<path class="st0" d="M317.5,167.9l1.7-10.9l5.5,8.4c-0.5,0.5-0.7,1.3-1.4,1.5l-7.8,2.2c0.7-0.2,1.3-0.6,1.8-1.1L317.5,167.9
	L317.5,167.9z M326.6,152.7l7.8-2.2l10.3,12.9l-7.8,2.2L326.6,152.7z"/>
<path class="st0" d="M331.8,158.2l12.9,5.2c0.1,0.1,0.2,0.3,0.3,0.4l-6.5,6.3l-1.6-4.5"/>
<path class="st0" d="M337.2,166.1l7.8-2.2c0.1,0.2,0.3,0.5,0.4,0.7l-7.8,2.2C337.5,166.6,337.4,166.3,337.2,166.1 M337.6,166.8
	l7.8-2.2l0.3,0.9l-7.8,2.2C337.9,167.4,337.8,167.1,337.6,166.8 M338,167.7l7.8-2.2c0,0.2,0.1,0.4,0.1,0.6l-7.8,2.2
	C338.1,168.1,338,167.9,338,167.7"/>
<path class="st0" d="M338.1,168.3l6.7-4.7c1,1.1,1.1,1.6,1.1,3l-7.8,2.2L338.1,168.3L338.1,168.3z"/>
<path class="st0" d="M338.1,168.7l7.6-3.2c0.1,0,0.2,1.2,0.2,1.4l-7.8,2.2L338.1,168.7L338.1,168.7z"/>
<path class="st0" d="M338.2,169.1l7.6-3.7c0.1,0.1,0.2,1.4,0.2,1.9l-7.8,2.2L338.2,169.1L338.2,169.1z M338.2,169.5l7.8-2.2v0.3
	l-7.8,2.2V169.5z"/>
<path class="st0" d="M338.2,168.5l7.8-0.8v0.3l-7.9,2.2v-0.3"/>
<path class="st0" d="M338.2,170.1l7.8-3.4c0.2,2.3-0.2,3.4-1.9,4.7l-8.4,2.5L338.2,170.1L338.2,170.1z"/>
<path class="st0" d="M338.1,170.5l7.8-2.2v0.3l-7.8,2.2V170.5"/>
<path class="st0" d="M338,170.8l7.8-2.2v0.3l-7.8,2.2V170.8"/>
<path class="st0" d="M337.9,171.1l7.8-2.2c0,0.1-0.1,0.2-0.1,0.3l-7.8,2.2C337.9,171.3,337.9,171.2,337.9,171.1"/>
<path class="st0" d="M337.8,171.4l7.8-2.2c0,0.1-0.1,0.2-0.1,0.3l-7.8,2.2C337.8,171.6,337.8,171.5,337.8,171.4"/>
<path class="st0" d="M337.7,171.7l7.8-2.2c0,0.1-0.1,0.2-0.1,0.3l-7.8,2.1L337.7,171.7 M337.6,172l7.8-2.2c-0.1,0.1-0.1,0.2-0.2,0.3
	l-7.8,2.2C337.5,172.2,337.5,172.1,337.6,172"/>
<path class="st0" d="M337.4,172.3l7.8-2.2c-0.1,0.1-0.2,0.2-0.2,0.3l-7.8,2.2L337.4,172.3 M337.1,172.7l7.8-2.2
	c-0.1,0.1-0.2,0.3-0.3,0.4l-7.8,2.2C336.9,173,337,172.8,337.1,172.7z"/>
<path class="st0" d="M336.8,173.1l8.8-3.3c-0.1,0.1-1.1,1.3-1.2,1.4c-0.5,0.5-1.1,0.9-1.8,1.1l-7.8,2.2c0.5-0.4,0.9-0.4,1.3-0.9
	L336.8,173.1z M342.4,144.8l4.6-0.4l-14.1,6.9l-6.3,1.4L342.4,144.8z"/>
<path class="st1" d="M279.1,134.5l18.2-8.6c1-0.5,2-0.5,3.1-0.3c0.8,0.2,1.5,0.6,2.1,1.2c0.6,0.5,1.1,1.2,1.4,2
	c0.6,1.2,0.7,2.7,0.3,4s-1.3,2.4-2.5,3.1l-6.2,3l-0.2,0.1l0.3,0.1l3,0.8l18.1-8.7c0.9-0.5,2-0.5,3-0.3c1,0.3,2,0.9,2.6,1.8
	c0.7,0.8,1.1,1.8,1.3,2.9c0.1,1.1,0,2.2-0.5,3.1c-0.5,1-1.2,1.8-2.1,2.4l-6.2,2.9l-0.2,0.1l0.3,0.1l3,0.8l18.1-8.6
	c0.9-0.5,2-0.6,3.1-0.3c0.8,0.2,1.5,0.6,2.1,1.1s1.1,1.2,1.4,1.9c0.6,1.2,0.7,2.7,0.3,4s-1.3,2.4-2.5,3.1l-13.6,6.5l-0.1,0.1
	l0.1,0.1l10.3,12.9c0.9,1.1,1.3,2.5,1.3,3.9c-0.1,1.4-0.6,2.7-1.6,3.7c-0.5,0.5-1.2,0.9-2,1.1c-0.7,0.2-1.5,0.2-2.2,0
	c-1.1-0.3-2-0.9-2.7-1.8l-0.1,0.1l0.1-0.1L316,155.4l-3-0.8l-0.3-0.1l0.2,0.2l4.6,5.9c0.9,1.1,1.3,2.4,1.3,3.8
	c-0.1,1.4-0.6,2.7-1.6,3.7c-0.5,0.5-1.2,0.9-2,1.1c-0.7,0.2-1.5,0.2-2.2,0c-1.1-0.3-2-0.9-2.7-1.8l-13.6-17.2l-3-0.8l-0.3-0.1
	l0.2,0.2l4.6,5.8c0.9,1.1,1.3,2.4,1.3,3.8c-0.1,1.4-0.6,2.7-1.6,3.7c-0.5,0.5-1.2,0.9-2,1.1c-0.7,0.2-1.5,0.2-2.2,0
	c-1.1-0.3-2-0.9-2.7-1.8L277.4,145l-61-17.5c0.3-2.5,1.1-6.3,2.2-9.1L279.1,134.5L279.1,134.5z"/>
</svg>
