<?xml version="1.0" encoding="utf-8"?>
<!-- Generator: Adobe Illustrator 24.0.0, SVG Export Plug-In . SVG Version: 6.00 Build 0)  -->
<svg version="1.1" id="Слой_1" xmlns="http://www.w3.org/2000/svg" xmlns:xlink="http://www.w3.org/1999/xlink" x="0px" y="0px"
	 viewBox="0 0 470 250" style="enable-background:new 0 0 470 250;" xml:space="preserve">
<style type="text/css">
	.st0{fill:#904A5A;}
	.st1{fill:#743C49;}
	.st2{fill:#882F40;}
	.st3{fill:#824351;}
	.st4{fill:#874654;}
	.st5{fill:#8B4857;}
	.st6{fill:#944D5D;}
	.st7{fill:#994F60;}
	.st8{fill:#CB697F;}
	.st9{fill:#7D414E;}
	.st10{fill:#40689D;}
	.st11{fill:#2F527F;}
	.st12{fill:#687991;}
	.st13{fill:#65758C;}
	.st14{fill:#617187;}
	.st15{fill:#5E6D82;}
	.st16{fill:#B4D1FA;stroke:#000000;stroke-width:0.2;}
	.st17{fill:#B4D1FA;}
	.st18{fill:#9A384B;}
	.st19{fill:#9C5061;}
	.st20{fill-rule:evenodd;clip-rule:evenodd;fill:#E87891;}
	.st21{fill:#793E4B;}
</style>
<path class="st0" d="M359.1,48.8l-11-6L359.1,48.8z"/>
<path class="st1" d="M260.7,239.2l-11-6l-1.9-8.6l11,6L260.7,239.2z"/>
<path class="st2" d="M258.9,230.6l-11-6h0.2l11,6H258.9 M259,230.5l-11-6c0.3-0.1,0.6-0.3,0.8-0.5l11.1,6
	C259.7,230.2,259.4,230.4,259,230.5 M259.9,230l-11-6c0.2-0.1,0.4-0.3,0.6-0.5l11,6C260.4,229.7,260.1,229.9,259.9,230z"/>
<path class="st2" d="M260.5,229.5l-11-6l0.6-0.6l11,6.1l-0.6,0.6"/>
<path class="st2" d="M253.4,237.2l-10.9-10.9c4.7-1.7,7.4-2.8,9.2-6.3l14.3,5.1C266,225.4,253.6,237,253.4,237.2L253.4,237.2z"/>
<path class="st2" d="M261.7,228.2l-11-6c0.2-0.3,0.3-0.5,0.5-0.8l11,6C262,227.7,261.8,228,261.7,228.2z"/>
<path class="st2" d="M262.1,227.4l-11-6c0.2-0.3,0.3-0.7,0.5-1l11,6C262.5,226.7,262.3,227.1,262.1,227.4z M262.6,226.3l-11-6
	c0.3-0.9,0.5-4.5,0.5-5.4l11,8.6C263.1,224.4,262.9,225.5,262.6,226.3z"/>
<path class="st3" d="M353.1,50.8l-11.1-6l0.2-0.4l11.1,5.9C353.2,50.4,353.2,50.6,353.1,50.8"/>
<path class="st4" d="M353.3,50.3l-11-5.9c0.1-0.1,0.2-0.3,0.3-0.4l11,6L353.3,50.3"/>
<path class="st5" d="M353.7,50l-11-6c0.1-0.1,0.2-0.3,0.4-0.4l11.1,6L353.7,50"/>
<path class="st0" d="M354.1,49.5l-11.1-6l0.5-0.4l11,6L354.1,49.5"/>
<path class="st6" d="M354.5,49.1l-11-6c0.2-0.2,0.4-0.3,0.7-0.4l11,6C355,48.9,354.7,49,354.5,49.1z"/>
<path class="st7" d="M355.3,48.7l-11-6c0.4-0.2,0.8-0.3,1.4-0.4c0.5-0.1,1-0.1,1.6,0l11,6c-0.5-0.1-1-0.1-1.6,0
	S355.7,48.6,355.3,48.7z"/>
<path class="st6" d="M358.2,48.4l-11-6c0.2,0.1,0.5,0.1,0.7,0.2l11.1,6C358.7,48.6,358.5,48.5,358.2,48.4"/>
<path class="st0" d="M358.9,48.7l-11-6.1L358.9,48.7"/>
<path class="st1" d="M360.4,55.1l-11-6l-7.3-4.3l11,6L360.4,55.1z"/>
<path class="st8" d="M359.1,48.8c0.5,0.3,0.9,0.7,1.3,1.3c0.3,0.5,0.5,1,0.7,1.7c0.1,0.6,0.1,1.2,0,1.8s-0.3,1.2-0.7,1.7l-7.2-4.3
	c0.3-0.6,0.8-1.2,1.5-1.6c0.6-0.4,1.4-0.7,2.1-0.8C357.4,48.3,358.3,48.4,359.1,48.8L359.1,48.8z"/>
<path class="st2" d="M263.8,225.7l-11.7-8.3V204l12.2,4.5L263.8,225.7z M263.9,207.6l-11-6l89.9-156.9c4.9,0.7,7.1,2.2,10.6,6.5
	L263.9,207.6z"/>
<path class="st2" d="M263.1,210l-11-6c0-0.6,0.1-1.4,0.3-2l11,6C263.3,208.8,263.1,209.4,263.1,210L263.1,210z"/>
<path class="st9" d="M263.5,208.1l-11-6l0.3-0.6l11,6L263.5,208.1z"/>
<path class="st3" d="M263.8,207.5l-11.1-6l11.2,5.8"/>
<path class="st10" d="M271.8,200l-1.8,5.1l-0.1,0.3l1.8-5.1L271.8,200"/>
<path class="st10" d="M271.7,200.3l-1.8,5.1c-0.2,0.5-0.5,0.9-0.8,1.4l1.8-5.1C271.2,201.2,271.5,200.7,271.7,200.3z M270.9,201.5
	l-1.8,5.1l-0.3,0.3c-0.7,0.6-1.6,1.3-2.4,1.7l1.8-5.1c0.8-0.5,1.7-1,2.4-1.7L270.9,201.5"/>
<path class="st10" d="M268.2,203.6l-1.8,5.1c-0.8,0.5-1.8,0.9-2.7,1.4c-5.5,2.1-11.3,3.7-17,4.5h-0.2c-0.5,0.1-1,0.1-1.7,0l1.8-6.3
	c0.5,0.1,1.8,0.5,2.3,0.4l-0.5,0.7c5.9-0.8,11.6-2.3,17-4.5C266.4,204.6,267.3,204.2,268.2,203.6L268.2,203.6z"/>
<path class="st10" d="M246.5,209.5l-1.8,5.1l-1.2-0.3l1.9-5.1C245.8,209.3,246.2,209.4,246.5,209.5"/>
<path class="st10" d="M245.5,209.2l3.5,4.9c-5.1,1.2-6.9,0-8.6-2.3l4.2-3C244.7,209,245.1,209.1,245.5,209.2L245.5,209.2z"/>
<path class="st10" d="M246.6,210.7l-4,3.1c-1.3-0.3-1.3-0.8-2.4-2l3.2-3.6c0.3,0.2,1.7,1,2,1.3"/>
<path class="st10" d="M244.9,208.4l-3.1,5c-0.5-0.4-0.9-0.8-1.4-1.4c-0.2-0.3-0.4-0.7-0.4-1c-0.1-0.4,0-0.8,0.1-1.2l1.8-5.1
	c-0.1,0.4,0.2,0.5,0.2,0.8c0.1,0.4,0.3,0.8,0.5,1.2C243,207.2,244.3,208,244.9,208.4L244.9,208.4z"/>
<path class="st11" d="M261.4,197.9l-1.8,5.1l-1.2-0.2l1.8-5.1L261.4,197.9z"/>
<path class="st11" d="M261.7,197.4l-3.2,5.3c-0.9-0.1-2.1-0.3-3.3-0.3c-6.9-0.4-13.8-0.1-20.6,0.7c-4.5,0.5-8.9,1.4-13.3,2.4
	c-2.9,0.6-5.8,1.7-8.5,2.9v-5.3c2.7-1.4,7.3-2.6,10.2-3.2c4.4-1,8.7-2.3,13.2-2.8c6.8-0.9,13.7-1.3,20.6-0.8c1.3,0,2.4,0.2,3.3,0.3"
	/>
<path class="st12" d="M214,203.6l-1.8,5.1L214,203.6"/>
<path class="st10" d="M230.2,208.7l-1.5,6c-0.5,1.2-0.9,0.9-1.2,1.2v-6.7C227.8,209,230.1,208.9,230.2,208.7z"/>
<path class="st10" d="M229.7,207.6l-1.2,7.6c-1.5,1.7-5.2,0.4-5.4,0.5l4.1-5.8c0.2,0,2.4,0.2,2.6-0.1L229.7,207.6z"/>
<path class="st10" d="M229.5,210.7l-1.8,5.1c-0.5,0.3-1,0.4-1.6,0.5h-0.6c-3,0-6.1-0.1-9.1-0.3l-2.6-0.4l1.8-5.1l2.6,0.3
	c3,0.3,6.1,0.4,9.1,0.4h0.6C228.4,211.2,229,211,229.5,210.7z"/>
<path class="st10" d="M215.6,210.5l-1.8,5c-1.7-0.2-3.2-0.6-4.8-1.2l1.8-5.1c1.7,0.5,3.2,0.8,5,1.2"/>
<path class="st12" d="M210.6,209.5l-1.8,5.1L210.6,209.5z"/>
<path class="st13" d="M210.6,209.5l-1.8,5.1c-0.9-0.3-1.8-0.6-2.6-1l1.8-5.1C208.8,208.8,209.7,209.1,210.6,209.5"/>
<path class="st14" d="M207.9,208.3l-1.8,5.1c-0.6-0.3-1.3-0.6-1.8-1l1.8-5.1C206.7,207.6,207.3,208,207.9,208.3z"/>
<path class="st15" d="M206.2,207.3l-1.8,5.1h-0.1c-0.8-0.6-1.6-1.5-2.1-2.4c-0.3-0.5-0.4-1-0.4-1.6c0-0.5,0-1.2,0.2-1.7l1.8-5.1
	c-0.2,0.5-0.2,1.2-0.2,1.7c0.1,0.5,0.2,1.2,0.5,1.6C204.6,205.8,205.3,206.7,206.2,207.3z"/>
<path class="st16" d="M232.6,191.4c4.6-0.6,9.3-0.9,13.9-1c4-0.1,7.9,0,11.8,0.5c2.2,0.2,4.3,0.6,6.4,1.3c1.2,0.3,2.3,0.8,3.3,1.5
	c1.4,0.7,2.5,1.8,3.2,3.1c0.3,0.4,0.4,0.9,0.5,1.5s0.1,1-0.1,1.6c-0.3,0.8-0.7,1.6-1.4,2.1c-1.5,1.3-3.1,2.3-5,3
	c-5.5,2.1-11.2,3.7-17,4.5H248c-1.2,0.1-2.3-0.1-3.3-0.5s-2-1.3-2.6-2.1c-0.5-0.9-0.6-1.8-0.2-2.5s1.2-1.3,2.3-1.5
	c3.5-0.5,6.8-1.3,10.1-2.2c2.3-0.6,4.5-1.4,6.6-2.4l0.3-0.2l0.2-0.1h-0.3c-1.5-0.3-2.9-0.4-4.5-0.5c-6.9-0.4-13.8-0.1-20.7,0.7
	c-4.5,0.5-8.9,1.4-13.3,2.4c-2.9,0.6-5.9,1.7-8.6,3l-0.5,0.3l-0.3,0.1h0.3c3.6,0.6,7.2,0.8,10.9,0.7c1.2,0,2.3,0.2,3.2,0.8
	s1.8,1.5,2.3,2.5c0.3,0.8,0.1,1.6-0.3,2.2c-0.4,0.6-1.3,0.9-2.3,1.2h-0.6c-3,0-6.1-0.1-9.1-0.4c-2.5-0.2-5.1-0.7-7.5-1.5
	c-1.7-0.5-3.1-1.3-4.5-2.3c-0.8-0.6-1.6-1.5-2.1-2.4c-0.3-0.5-0.5-1-0.5-1.7s0-1.2,0.2-1.8c0.4-0.8,1-1.7,1.8-2.3
	c1.9-1.4,4-2.5,6.2-3.2C218.4,193.6,225.4,192.1,232.6,191.4L232.6,191.4z"/>
<path class="st11" d="M276.9,164.1l-3,8.5l-0.8-0.3l3-8.5L276.9,164.1"/>
<path class="st11" d="M276.1,163.8l-3,8.5l-0.6-0.2l3-8.5L276.1,163.8z"/>
<path class="st10" d="M286.5,166.9l-3,8.5l-0.1,0.4l3-8.5L286.5,166.9z M286.3,167.4l-3,8.6c-0.3,0.6-0.7,1.2-1.2,1.7l3-8.5
	C285.6,168.6,285.9,168,286.3,167.4 M285.1,169l-3,8.5c-1,1.2-2.3,2.1-3.8,2.8l3-8.5C282.8,171.1,284.1,170.2,285.1,169z"/>
<path class="st10" d="M281.4,171.9l-3,8.5c-0.7,0.4-1.5,0.8-2.3,1.2c-6.8,2.9-14.4,4.9-21.9,6.2l3.5-8.5c7.3-1.3,14.5-3.3,21.3-6.2
	C280,172.6,280.7,172.3,281.4,171.9z"/>
<path class="st10" d="M257.8,179.2l1.9,7.5l-11.5,2.1l3-8.5L257.8,179.2z"/>
<path class="st11" d="M275.4,163.6l-3,8.5c-1.5-0.4-2.9-0.7-4.4-0.9l3-8.5C272.5,162.9,274,163.2,275.4,163.6z"/>
<path class="st11" d="M271.7,161.8l-3.8,9.3c-1.6-0.2-3.3-0.4-5.2-0.6c-10.6-0.6-21.1-0.2-31.6,1.2h-0.7c-6.3,0.7-12.7,1.9-18.8,3.2
	c-4.5,1-8.9,2.4-13.2,4.3l-1.8,0.9l2.6-9.5c0.5-0.3,2.5-1.2,3.1-1.4c4.2-1.8,7.7-1.7,12.1-2.6c6.2-1.5,12.5-3.7,18.9-4.5h0.7
	c10.5-1.4,21-1.4,31.5-0.7c2,0,4,0,5.5,0.2"/>
<path class="st11" d="M199.9,171.8l-3,8.5c-0.8,0.4-1.7,0.9-2.3,1.7l2.8-8.5c0.6-0.6,1.5-1.3,2.3-1.7"/>
<path class="st12" d="M197.4,173.4l-2.9,8.5L197.4,173.4z"/>
<path class="st13" d="M197.4,173.4l-3,8.5l-0.2,0.2l3-8.5L197.4,173.4z"/>
<path class="st15" d="M188.1,174.8l-3,8.5c-0.3-0.6-0.5-1.3-0.6-1.9c-0.1-0.6,0-1.4,0.2-2l3-8.5c-0.2,0.6-0.3,1.4-0.2,2
	C187.5,173.5,187.8,174.3,188.1,174.8"/>
<path class="st10" d="M261.7,175.9l-13.5,12.9c-2.3,0.3-4.7,0.7-7.2,1c-6.9,0.8-13.8,1.4-20.8,1.5c-5.9,0.1-11.7-0.1-17.5-0.7
	l-2.2-0.2c0.2-3.6-4.5-7.7-1.2-10.6l7.3-1.2c5.9,0.6,13.4,0.7,19.2,0.5c6.9-0.1,12-0.1,18.9-0.9c2.5-0.3,5.8,0.3,8.1,0"/>
<path class="st10" d="M205.7,180.5l-5.2,9.8c-2.3-0.3-4.6-0.8-6.9-1.5l-0.6-0.2l2.9-8.5l1.5-0.9c2.3,0.6,3.8,2.3,6.1,2.6
	 M195.9,180.1l-2.9,8.5c-1-0.3-2.1-0.7-3-1.3l3-8.5C193.9,179.4,194.9,179.8,195.9,180.1z"/>
<path class="st10" d="M193,179l-2.9,8.5l-0.8-0.4c-0.4-0.2-0.8-0.5-1.3-0.8l3-8.5c0.4,0.3,0.8,0.5,1.3,0.8L193,179 M190.8,177.7
	l-3,8.5c-1.2-0.7-2.1-1.8-2.7-2.8l3-8.5C188.7,175.9,189.6,176.9,190.8,177.7"/>
<path class="st17" d="M282.1,159.3c1.7,0.8,3,2.1,4.1,3.7c0.6,1,0.8,2.3,0.5,3.5c-0.2,0.9-0.7,1.9-1.5,2.6c-1.8,1.7-3.8,3-6,4
	c-6.9,2.9-14,4.9-21.3,6.2l-6.6,1.2c-2.3,0.3-4.7,0.6-7.2,0.9c-6.9,0.8-13.8,1.4-20.7,1.5c-5.9,0.2-11.7-0.1-17.5-0.7
	c-3.1-0.3-6.2-0.9-9.1-1.8c-1.6-0.4-3-1-4.5-1.9c-1.7-0.8-3-2.1-4-3.7c-0.4-0.6-0.6-1.4-0.6-2c-0.1-0.7,0-1.5,0.3-2.1
	c0.5-1.2,1.3-2.2,2.2-2.9c2.7-2,5.8-3.6,9-4.6c10.1-3.3,20.6-5.5,31.2-6.6c6.9-0.8,13.8-1.4,20.8-1.5c5.9-0.2,11.7,0.1,17.5,0.7
	c3.1,0.3,6.2,0.9,9.1,1.8C279.1,158.1,280.6,158.6,282.1,159.3L282.1,159.3z M275.8,165.2c0.4-0.3,0.8-0.7,1.2-1.2
	c-0.3-0.1-0.8-0.3-1.5-0.5c-3.1-0.8-6.4-1.3-9.7-1.5c-10.6-0.6-20.8-0.3-31.3,1l-0.6,0.1l-3.6,0.4c-6.4,0.7-9.4,1.5-15.7,2.9
	c-4.5,1-8.9,2.4-13.2,4.3c-1.5,0.6-2.9,1.6-4.1,2.6l-0.2,0.3c0.5,0.2,0.9,0.4,1.5,0.5c3.1,0.8,6.5,1.4,9.7,1.5
	c10.6,0.6,21.2,0.2,31.8-1.2c2.3-0.3,4.5-0.6,6.7-0.9l6.5-1.2c4.8-0.8,9.5-1.8,14.1-3.3C270.4,168.5,273.2,166.9,275.8,165.2"/>
<path d="M282.1,159.3l0.1-0.2L282.1,159.3z M286.1,163l0.2-0.1L286.1,163z M286.7,166.4h0.2H286.7z M285.2,169l0.1,0.1L285.2,169z
	 M279.2,173l0.1,0.2L279.2,173z M257.8,179.2V179V179.2z M251.2,180.3v0.2V180.3z M244,181.4v0.2V181.4z M223.3,182.8v-0.2V182.8z
	 M205.7,182.1v-0.2V182.1z M196.7,180.3l-0.1,0.2L196.7,180.3z M192.2,178.4l0.1-0.2L192.2,178.4z M188.2,174.8l-0.2,0.1
	L188.2,174.8z M187.9,170.7l-0.2-0.1L187.9,170.7z M190,167.8l-0.1-0.2L190,167.8z M199,163.2l0.1,0.2L199,163.2z M230.1,156.6v0.2
	V156.6z M250.9,155.1v0.2V155.1z M268.5,155.8v0.2V155.8z M277.6,157.5l-0.1,0.2L277.6,157.5z M276.9,164.1l0.2,0.1l0.2-0.2
	l-0.2-0.1L276.9,164.1z M275.4,163.6l0.1-0.2L275.4,163.6z M265.8,162.1v0.2V162.1z M234.5,163.2v0.2V163.2z M233.9,163.3v-0.2
	V163.3z M230.3,163.7v0.2V163.7z M214.6,166.6v0.2V166.6z M201.5,170.8l0.1,0.2L201.5,170.8z M197.4,173.5l-0.1-0.1L197.4,173.5z
	 M197.2,173.7l-0.1-0.1l-0.2,0.2l0.3,0.1V173.7z M198.6,174.3v-0.2V174.3z M208.4,175.7v-0.2V175.7z M240.1,174.6v-0.2V174.6z
	 M246.9,173.7v0.2V173.7z M253.3,172.6v0.2V172.6z M267.4,169l-0.1-0.2L267.4,169z M282,159.5c1.7,0.8,3,2.1,4,3.7l0.3-0.2
	c-1-1.6-2.4-2.9-4.2-3.8L282,159.5L282,159.5z M285.9,163.1c0.6,0.9,0.7,2.2,0.5,3.2l0.4,0.1c0.3-1.3,0.1-2.5-0.5-3.6L285.9,163.1z
	 M286.5,166.4c-0.2,0.9-0.7,1.8-1.4,2.5l0.3,0.3c0.7-0.7,1.3-1.7,1.5-2.7L286.5,166.4z M285,168.9c-1.7,1.7-3.8,3-6,3.9l0.2,0.4
	c2.3-0.9,4.3-2.3,6.1-4L285,168.9L285,168.9z M279.1,172.8c-6.8,2.8-14,4.9-21.3,6.2l0.1,0.4c7.3-1.3,14.5-3.3,21.4-6.3L279.1,172.8
	L279.1,172.8z M257.8,179.1l-6.6,1.2l-0.2,0.2l6.9-1L257.8,179.1z M258.6,178.9c-2.3,0.3-12.1,2-14.6,2.3l-3.8,0.9
	c2.5-0.3,10.8-1.5,13.1-1.8L258.6,178.9z M244,181.2c-6.9,0.8-13.8,1.4-20.7,1.5v0.4c6.9-0.1,13.9-0.6,20.8-1.5L244,181.2z
	 M223.3,182.6c-5.9,0.2-11.7-0.1-17.5-0.7v0.4c5.9,0.6,11.7,0.8,17.6,0.7L223.3,182.6z M205.9,181.9c-3-0.3-6.2-0.9-9.1-1.8
	l-0.1,0.4c3,0.8,6.1,1.5,9.2,1.8L205.9,181.9L205.9,181.9z M196.7,180.1c-1.6-0.4-3-1-4.4-1.9l-0.2,0.4c1.5,0.8,2.9,1.5,4.5,1.9
	C196.5,180.5,196.7,180.1,196.7,180.1L196.7,180.1z M192.3,178.3c-1.6-0.8-2.9-2.1-3.9-3.6l-0.3,0.2c0.9,1.6,2.4,2.9,4.1,3.8
	L192.3,178.3L192.3,178.3z M188.4,174.7c-0.3-0.6-0.5-1.3-0.6-2h-0.4c0.1,0.7,0.3,1.5,0.6,2.1L188.4,174.7z M187.8,172.8
	c-0.1-0.7,0-1.4,0.3-2l-0.4-0.1c-0.3,0.7-0.4,1.5-0.3,2.2L187.8,172.8L187.8,172.8z M188.1,170.7c0.4-1.2,1.2-2.1,2.1-2.8l-0.3-0.3
	c-0.9,0.8-1.8,1.9-2.2,3L188.1,170.7z M190.2,167.9c2.7-2,5.8-3.6,8.9-4.5L199,163c-3.2,1-6.3,2.6-9,4.6L190.2,167.9L190.2,167.9z
	 M199.1,163.4c10.1-3.3,20.5-5.5,31.2-6.6v-0.4c-10.7,1-21.1,3.2-31.3,6.6L199.1,163.4z M230.2,156.8c6.9-0.8,13.8-1.4,20.8-1.5
	v-0.4c-7,0.1-13.9,0.6-20.8,1.5V156.8z M250.9,155.3c5.9-0.2,11.7,0.1,17.5,0.7v-0.4c-5.9-0.6-11.7-0.8-17.6-0.7L250.9,155.3
	L250.9,155.3z M268.4,156c3,0.3,6.2,0.9,9.1,1.8l0.1-0.4c-3-0.8-6.1-1.5-9.2-1.8V156z M277.5,157.7c1.6,0.4,3,1,4.4,1.7l0.2-0.4
	c-1.5-0.7-2.9-1.4-4.5-1.8L277.5,157.7z M275.9,165.4c0.4-0.3,0.8-0.7,1.3-1.2l-0.3-0.2c-0.3,0.4-0.7,0.7-1.2,1L275.9,165.4z
	 M277.1,163.9c-0.3-0.1-0.8-0.3-1.6-0.5l-0.1,0.4c0.6,0.2,1.2,0.3,1.5,0.5L277.1,163.9z M275.5,163.4c-3.2-0.8-6.5-1.3-9.7-1.5v0.4
	c3.2,0.2,6.5,0.6,9.6,1.5L275.5,163.4z M265.8,161.9c-10.6-0.6-20.8-0.3-31.3,1l0.1,0.4c10.5-1.4,20.7-1.7,31.2-1V161.9z M234.5,163
	l-0.6,0.1v0.4l0.6-0.1V163z M233.9,163.1l-3.6,0.4l0.1,0.4l3.6-0.4L233.9,163.1z M230.3,163.5c-6.4,0.7-9.5,1.5-15.7,2.9l0.1,0.4
	c6.2-1.5,9.3-2.1,15.7-2.9L230.3,163.5z M214.6,166.4c-4.5,1-9,2.4-13.2,4.3l0.1,0.3c4.3-1.8,8.7-3.2,13.2-4.3L214.6,166.4z
	 M201.4,170.6c-1.6,0.6-2.9,1.6-4.1,2.7l0.3,0.3c1.2-1,2.5-2,4-2.6L201.4,170.6z M197.3,173.3l-0.2,0.3l0.3,0.3l0.2-0.3L197.3,173.3
	z M197.1,173.9c0.5,0.2,1.2,0.6,1.8,0.7v-0.4c-0.5-0.1-1.2-0.5-1.7-0.7L197.1,173.9L197.1,173.9z M198.6,174.5
	c3.2,0.8,6.5,1.4,9.7,1.5v-0.4c-3.2-0.2-6.5-0.6-9.7-1.5V174.5z M207.5,176c10.7,0.6,23.1,0.1,33.7-1.3l0.7-0.5
	c-10.6,1.4-23.5,1.9-34.2,1.4L207.5,176z M240.1,174.8c2.3-0.3,4.5-0.6,6.7-0.9l-0.1-0.4c-2.2,0.3-4.4,0.6-6.7,0.9L240.1,174.8z
	 M246.3,174l7.7-1.3l-0.7-0.4l-6.5,1.2L246.3,174z M253.4,172.8c4.8-0.8,9.5-2.1,14.1-3.6l-0.1-0.4c-4.6,1.5-9.3,2.6-14.1,3.6
	L253.4,172.8L253.4,172.8z M267.5,169.2c2.9-0.8,5.8-2.2,8.4-3.8l-0.2-0.3c-2.5,1.6-7.6,3.5-10.6,4.4L267.5,169.2z"/>
<path class="st15" d="M300.2,124.9l-2.9,8.5v-0.3l2.9-8.5C300.3,124.6,300.3,124.8,300.2,124.9z"/>
<path class="st10" d="M309.4,127.9l-2.9,8.5c0,0.2-0.1,0.3-0.2,0.5l2.9-8.5C309.3,128.4,309.3,128.2,309.4,127.9z M309.1,128.6
	l-2.9,8.5c-0.2,0.4-0.4,0.8-0.7,1.3c-0.3,0.3-0.5,0.7-0.8,1l2.9-8.5c0.3-0.3,0.5-0.6,0.8-1S308.9,129,309.1,128.6z M307.6,130.8
	l-2.9,8.5c-1.5,1.6-5.7,4-7.6,5.1l2.3-1.1l0.4-7.3l2.7-1.2C304.3,133.8,306.1,132.4,307.6,130.8 M302.2,134.8l-2.9,8.5
	c-7.1,3.8-14.7,6.6-22.6,8.4h-0.6c-0.5,0.1-1,0.1-1.7,0l2.9-8.5c0.5,0.1,1,0.1,1.7,0c0.2,0,0.4-0.1,0.6-0.1
	C287.6,141.3,295.1,138.5,302.2,134.8L302.2,134.8z"/>
<path class="st10" d="M277.5,143.2l-2.9,8.5l-1.2-0.3l2.9-8.5C276.7,143.1,277.2,143.2,277.5,143.2z"/>
<path class="st10" d="M276.3,142.9l-2.9,8.5c-0.3-0.1-0.6-0.2-0.9-0.4l2.9-8.5C275.7,142.7,276,142.8,276.3,142.9z"/>
<path class="st10" d="M275.4,142.6l-2.9,8.5c-0.3-0.2-0.6-0.3-0.9-0.6l2.8-8.4C274.6,142.3,275,142.5,275.4,142.6"/>
<path class="st10" d="M276.8,142.1l-2.1,9.6c-2.8-0.5-4.1-1.8-4.4-2.2c-0.3-0.3-0.5-0.7-0.6-1.3c-0.1-0.4-0.1-0.9,0.1-1.4l2.9-8.5
	c-0.1,0.4-0.1,0.9,0,1.4c0.1,0.4,1.2,0.6,1.5,1s0.7,0.8,1.2,1.2"/>
<path class="st11" d="M300.3,124.5l-2.9,8.5v-0.3c0,0,0-0.1-0.3-0.3l2.9-8.5l0.3,0.3V124.5z M300.2,124.6l-3.3,7.9l-0.5-0.3
	l-0.3-0.3l2.9-8.5l0.4,0.2l0.9,0.6"/>
<path class="st11" d="M299,123.3l-2.8,8.5c-0.7-0.3-1.6-0.6-2.4-0.9l2.9-8.5C297.4,122.6,298.3,122.9,299,123.3"/>
<path class="st11" d="M302.2,123.3l-8.6,7.6l-1-0.3c-2.3-0.6-4.7-1.2-7-1.5l-2.4-9.7c2.4,0.3,10,2,12.3,2.7l0.9,0.3 M179.9,134.8
	l-2.9,8.5c-1.2,0.6-2.2,1.4-3.1,2.2l-0.6,0.6l0.6-7.4l2.9-1.9C177.7,136,178.8,135.5,179.9,134.8z"/>
<path class="st11" d="M176.2,137.6l-2.9,8.5c-0.3,0.3-0.6,0.7-0.8,1.2l2.9-8.5C175.6,138.3,175.8,137.9,176.2,137.6 M175.3,138.7
	l-2.9,8.5L175.3,138.7z"/>
<path class="st10" d="M260.3,145.4l-2.8,9.2c-0.2,0.2-1.2,1.2-1.7,1.2l-1.7-8.1C254.3,147.5,260.3,145.4,260.3,145.4L260.3,145.4z"
	/>
<path class="st10" d="M259.2,147.1l-2.9,8.5c-0.4,0.2-0.9,0.4-1.5,0.5c-3.3,0.5-6.9,1-10.6,1.5c-10.2,1.3-20.5,2-30.8,2.2
	c-8.6,0.2-17.1-0.1-25.7-1l-3.2-0.4l2.9-8.5l3.2,0.4c8.6,0.9,17.1,1.3,25.7,1c10.4-0.2,20.6-0.9,30.8-2.2c3.8-0.4,7.2-0.9,10.6-1.5
	C258.2,147.5,258.8,147.4,259.2,147.1z"/>
<path class="st10" d="M190.9,150.3l-6.5,8.1c-3.3-0.5-6.6-1.2-9.8-2.2L174,156l2.9-8.5l0.6,0.2C180.8,148.6,187.6,149.8,190.9,150.3
	L190.9,150.3z"/>
<path class="st10" d="M179.9,148.1l-6,7.9c-1.5-0.5-2.9-1-4.3-1.8l2.9-8.5C174.1,146.5,178.5,147.6,179.9,148.1L179.9,148.1z"/>
<path class="st10" d="M172.7,145.7l-2.9,8.5l-1-0.6c-0.5-0.3-1.2-0.6-1.7-1l2.9-8.6c0.5,0.4,1,0.7,1.7,1L172.7,145.7L172.7,145.7z"
	/>
<path class="st10" d="M170,144.2l-2.9,8.5c-1.4-0.9-2.4-2.1-3.2-3.6c-0.4-0.7-0.7-1.6-0.7-2.4c-0.1-0.8,0-1.7,0.3-2.5l2.9-8.5
	c-0.3,0.8-0.3,1.7-0.3,2.5c0.1,0.8,0.3,1.7,0.7,2.4C167.5,142.1,168.6,143.2,170,144.2z"/>
<path class="st11" d="M288.6,120.6l-2.9,8.5c-2.4-0.3-5.2-0.6-8.3-0.9c-16.1-0.9-32.3-0.4-48.3,1.7c-9.5,1.2-18.9,2.7-28.2,4.9
	c-6.8,1.6-13.5,3.7-20,6.4c-1.4,0.6-2.7,1.3-4,2l2.9-8.5c1.3-0.7,2.6-1.3,4-1.9c6.1-3.6,12.9-5.6,20-6.5c9.3-2.1,18.7-3.8,28.2-4.8
	c16-2.1,32.3-3.2,48.4-2.3C284.2,118,286.6,119.4,288.6,120.6"/>
<path class="st16" d="M228.5,114.8c-15.7,1.7-31.2,5.1-46.1,10.1c-4.6,1.6-9,3.8-12.9,6.7c-1.4,1-2.4,2.4-3.1,4
	c-0.3,0.8-0.4,1.7-0.4,2.6c0.1,0.8,0.3,1.7,0.7,2.5c1.2,1.9,2.8,3.5,4.8,4.6c1.9,1,3.9,1.8,6,2.4c4.3,1.3,8.6,2.1,13,2.6
	c8.6,0.9,17.1,1.3,25.7,1c10.4-0.2,20.6-0.9,30.8-2.2c3.8-0.4,7.2-0.9,10.6-1.5c1.2-0.2,1.9-0.7,2.3-1.4s0.4-1.6-0.1-2.5
	c-0.7-0.9-1.6-1.7-2.7-2.2c-1-0.4-2.3-0.6-3.5-0.5c-3.3,0.5-6.8,1-10.6,1.5c-15.9,2.1-32,2.6-48,1.7c-5.2-0.3-10.4-1.2-15.4-2.4
	c-1.3-0.3-2.6-0.8-3.8-1.5h-0.1c-0.3-0.2-0.4-0.4-0.6-0.7v-0.1c0-0.1-0.1-0.3,0-0.7c0.3-0.7,0.8-1.4,1.5-1.8
	c2.2-1.8,4.6-3.2,7.2-4.2 M228.5,114.8c10.2-1.3,20.5-2,30.8-2.2c8.6-0.2,17.1,0.1,25.7,1c4.4,0.5,8.8,1.4,13.1,2.6
	c2.1,0.6,4.1,1.4,5.9,2.4c2,1,3.7,2.6,4.8,4.6l0.7,3.5v0.1c-0.1,1-0.5,2.1-1.2,2.9c-1.6,2.1-3.7,3.9-6,5c-7.2,3.8-14.6,6.5-22.5,8.3
	l-0.2,0.1c-0.2,0.1-0.4,0.1-0.6,0.1c-1,0.1-2.2-0.1-3.1-0.4c-1-0.4-1.9-0.9-2.6-1.8c-0.3-0.3-0.6-0.7-0.7-1.3
	c-0.1-0.4-0.1-0.9,0.1-1.4c0.2-0.4,0.4-0.8,0.8-1.2c0.4-0.3,0.7-0.4,1.3-0.5c5.2-1.3,10.4-2.8,15.3-4.8c3.1-1.2,6.1-2.7,8.7-4.8
	c0.7-0.5,1.3-1.4,1.5-2.2v-0.3c0,0,0-0.2-0.8-0.6c-1.2-0.6-2.4-1.2-3.8-1.5c-5-1.3-10.1-2.1-15.3-2.4c-16.1-0.9-32.3-0.4-48.3,1.7
	c-9.5,1-18.9,2.7-28.1,4.8c-6.8,1.6-13.5,3.7-20,6.4"/>
<path class="st2" d="M241.6,235.2l-12.2-6.1c5.9-0.9,12.8-2.5,18.2-4.7l11,6C253.1,232.7,247.5,234.3,241.6,235.2z M222.8,234.7
	l-11-6h0.2l11,6H222.8z"/>
<path class="st2" d="M222.9,234.8l-11-6l0.9,0.3l11,6L222.9,234.8z"/>
<path class="st2" d="M223.8,235.1l-11-6.1h0.6c5.6,0.7,11.5,0.7,17.1,0l13.1,7c-5.8,0.7-14.4,1.9-20.1,1.2L223.8,235.1"/>
<path class="st10" d="M325.9,91.9l-6.7,13.6c-3.9,2.2-7.9,4-12,5.5c-14.8,5.5-36.2,10.4-61.4,13.5c-13.7,1.8-27.5,2.7-41.3,3
	c-11.4,0.3-22.8-0.1-34.2-1.4c-1.5-0.2-2.9-0.3-4.3-0.6l-3.7-10.5c1.4,0.2,9.3,1.6,10.9,1.7c11.4,1.3,23,1.9,34.4,1.5
	c14.7-2.6,28-3.9,40.8-3.7c25.2-5.6,46.9-9.2,61.7-12.7c4.2-1.5,14.6-7.7,18.5-9.9"/>
<path class="st18" d="M218.4,243.2l-11-6c-2.1-1.3-3.9-3.1-5.1-5.3s-1.8-4.7-1.7-7.1l11.1,6c-0.1,2.5,0.5,4.9,1.7,7.1
	C214.5,240.1,216.3,241.9,218.4,243.2"/>
<path class="st10" d="M330.8,86.7L328,96.9l-0.1,0.3l-0.1,0.3l2.9-8.6l0.1-0.3l0.1-0.3 M330.8,87.1l-3,10.3c-0.5,1-1.2,2-1.9,2.8
	l2-8.5C328.6,90.9,330.3,88.2,330.8,87.1z"/>
<path class="st10" d="M328.8,91.2l-2.9,9.2c-0.6,0.6-1.3,1.3-2,1.9c-1.6,1.3-3.1,2.3-4.8,3.2l2.8-9.2c1.7-0.9,3.3-1.9,4.8-3
	C327.4,92.7,328.2,91.9,328.8,91.2z M179.9,117l-14,8.6c-4.3-0.6-8.6-1.5-12.8-2.8l-0.9-0.3l2.9-8.5l0.9,0.3
	c4.5,0.2,10-2.8,13.8-0.3"/>
<path class="st10" d="M161.1,115.5l-8.8,6.9c-1.8-0.5-3.6-1.3-5.2-2.1l2.5-8.8C154,113.4,156.5,114.4,161.1,115.5z"/>
<path class="st10" d="M150,111.6l-2.9,8.6c-0.5-0.2-0.9-0.5-1.4-0.7c-0.7-0.4-1.4-0.8-2-1.3l2.9-8.5c0.6,0.4,1.4,0.9,2,1.3
	C149.1,111.2,149.5,111.4,150,111.6"/>
<path class="st11" d="M322.3,86.9l-3.5,6.9c0.1-0.2,0.2-0.5,0.2-0.8s-0.1-0.5-0.2-0.8c-0.2-0.4-2.4-0.9-2.8-1.3
	c1-1.5,1.3-3.9-0.5-12.7c0.4,0.2,8.4,4.8,8.6,5.1c0.1,0.3-0.5,2.6-0.5,2.8s-0.4,1.5-0.5,1.7"/>
<path class="st11" d="M320.8,82.7l-2.9,8.5c-0.3-0.2-0.5-0.4-0.8-0.5l2.9-8.5C320.2,82.3,320.5,82.5,320.8,82.7z M319.9,82l-2.9,8.5
	l-3.3-2l5.5-6.9C319.5,81.7,319.7,81.9,319.9,82"/>
<path class="st11" d="M319.3,81.7l-2.9,8.5c-1-0.5-6.7-2.4-7.8-2.7l7.4-7c1.2,0.4,2.3,0.8,3.5,1.4"/>
<path class="st11" d="M315.8,80.4L313,89l-1.5-0.4c-3.2-0.9-11.7-2.3-15.1-2.8l8.1-7.7c3.3,0.5,6.7,1.2,9.9,2.1L315.8,80.4"/>
<path class="st11" d="M304.4,77.9l-2.9,8.5c-3.3-0.5-7-0.9-11.1-1.3c-21.7-1.3-43.5-0.4-65,2.4c-4.8,0.6-9.4,1.3-13.9,2l2.9-8.5
	c4.5-0.6,9.1-1.4,13.9-2c21.6-4.2,43.4-3.7,65.2-2.4c4.1,0.3,7.7,0.7,11.1,1.3"/>
<path class="st11" d="M214.4,80.9l-2.8,8.5c-0.6,0.1-1.2,0.1-1.8,0l2.9-8.5C213.4,81,213.9,81,214.4,80.9 M212.6,80.9l-2.9,8.5
	l-1.3-0.3l2.9-8.5C211.9,80.7,212.2,80.8,212.6,80.9z"/>
<path class="st11" d="M211.5,80.6l-2.9,8.5c-0.3-0.1-0.6-0.2-0.9-0.4l2.9-8.5L211.5,80.6z"/>
<path class="st11" d="M210.6,80.2l-2.9,8.5c-0.3-0.1-0.6-0.3-0.9-0.5l2.9-8.5L210.6,80.2z"/>
<path class="st11" d="M254.1,75.4l-47.3,12.8c-0.5-0.4-1-0.9-1.4-1.5c-0.2-0.3-0.3-0.7-0.4-1s0-0.7,0.1-1.2L208,76
	c-0.1,0.4-0.1,0.7-0.1,1.2c0.1,0.4,0.2,0.7,0.4,1c0.3,0.5,1.6,1,2.2,1.5 M202.9,82.7l-2.9,8.5c-0.4,0.2-0.8,0.3-1.3,0.4
	c-9.8,1.9-19.4,4.3-29,7.4c-5.1,1.7-10,3.8-14.6,6.3l2.9-8.5c4.7-2.6,9.6-4.7,14.6-6.3c9.5-3.1,19.1-5.5,29-7.4
	C202.1,83,202.5,82.9,202.9,82.7z"/>
<path class="st11" d="M158,96.9l-0.3,7.2c-1,0.6-4.6,2.5-5.5,3.2c-0.8,0.6-1.7,1.4-2.4,2.1l2.9-8.4c0.4-1.2,1.2-2,2.4-2.2
	C156,98.1,156.9,97.5,158,96.9 M152.6,101l-2.9,8.5c-0.4,0.5-0.8,1-1.2,1.7l2.9-8.5C151.7,102.1,152.1,101.5,152.6,101z"/>
<path class="st11" d="M151.5,102.6l-2.9,8.5l-0.1,0.3l2.8-8.5L151.5,102.6"/>
<path class="st19" d="M215.8,219l-11-6l3.8-3l11,6L215.8,219z"/>
<path class="st16" d="M249.4,116.2c20.5-2.4,40.7-7.1,60.2-13.8c6-2.1,11.7-5,16.8-8.8c1.8-1.4,3.1-3.1,4.1-5.2
	c0.4-1.1,0.5-2.2,0.5-3.4c-0.1-1.1-0.4-2.2-1-3.2c-1.5-2.4-3.7-4.4-6.4-5.9c-2.5-1.3-5.1-2.2-7.8-3c-5.6-1.6-11.2-2.6-17-3.2
	c-11.2-1.1-22.5-1.4-33.7-1c-13.5,0.4-26.9,1.5-40.3,3.3c-4.9,0.6-9.4,1.3-13.8,2c-1.5,0.3-2.5,1-3,1.8c-0.5,1-0.5,2,0.2,3.2
	c1,1.2,2.1,2.1,3.6,2.8c1.4,0.5,3,0.8,4.5,0.6c4.4-0.7,8.9-1.4,13.8-2c20.8-2.9,41.8-3.8,62.8-2.8c6.8,0.3,13.6,1.3,20.1,2.9
	c1.6,0.4,3.4,1,4.9,1.8h0.1c0.4,0.3,0.6,0.5,0.8,0.9v0.1c0,0.1,0.1,0.4,0,0.9c-0.4,1-1.1,1.8-1.9,2.3c-2.9,2.3-6,4.3-9.4,5.5
	 M249.4,116.2c-13.4,1.8-26.8,2.9-40.3,3.3c-11.2,0.4-22.4,0.1-33.7-1c-5.8-0.6-11.5-1.6-17.1-3.2c-2.7-0.8-5.4-1.7-7.7-3
	c-2.6-1.3-4.8-3.3-6.4-5.9l-1-4.4v-0.1c0.1-1.4,0.7-2.7,1.5-3.8c2-2.7,4.7-5.1,7.7-6.6c9.4-5,19.1-8.6,29.3-11l0.3-0.1
	c0.3-0.1,0.5-0.1,0.8-0.1c1.4-0.1,2.9,0.1,4.1,0.5c1.4,0.5,2.5,1.2,3.4,2.3c0.4,0.4,0.8,0.9,1,1.6c0.1,0.5,0.1,1.2-0.1,1.8
	c-0.2,0.6-0.5,1.1-1.1,1.5c-0.5,0.4-1,0.6-1.6,0.7c-6.8,1.7-13.5,3.8-19.9,6.4c-4.1,1.5-7.9,3.6-11.3,6.3c-1,0.7-1.6,1.8-1.9,2.9
	v0.4c0,0,0,0.3,1.1,0.8c1.5,0.8,3.2,1.5,4.9,1.8c6.6,1.6,13.3,2.6,20,2.9c21.1,1,42.3,0.1,63.2-2.8c12.4-1.5,24.7-3.8,36.8-6.6
	c8.9-2.1,17.9-5.3,26.4-8.9"/>
<path class="st18" d="M214.5,237.4l-13.9-12.7v-9.6l13.9,4.5V237.4z"/>
<path class="st18" d="M213.2,222l-12.7-6.9L112.4,84.9l11,6L213.2,222z"/>
<path class="st5" d="M124.4,84.3l-11-6l0.1-0.1l11,5.9C124.5,84.1,124.4,84.1,124.4,84.3"/>
<path class="st0" d="M124.5,84.1l-11-6l0.5-0.4l11,6C124.8,83.9,124.7,84,124.5,84.1"/>
<path class="st6" d="M125,83.8l-11-6c0.2-0.1,0.4-0.3,0.6-0.3l11,6C125.5,83.5,125.2,83.7,125,83.8z"/>
<path class="st7" d="M125.7,83.4l-11-6c0.4-0.2,0.7-0.3,1.2-0.3c0.5-0.1,1-0.1,1.5,0l11.1,6.1c-0.5-0.1-1-0.1-1.5,0
	C126.4,83.2,126.1,83.4,125.7,83.4"/>
<path class="st6" d="M128.4,83.2l-11-6c0.2,0.1,0.5,0.1,0.7,0.2l11,6C128.8,83.3,128.6,83.2,128.4,83.2z"/>
<path class="st0" d="M129,83.4l-11-6L129,83.4h-0.1H129z"/>
<path class="st20" d="M353.2,50.9l-89.3,156.4c-0.5,0.8-0.7,1.8-0.6,2.7v13.5c0,1.5-0.3,2.9-1.2,4.2c-0.6,1-1.6,2-2.7,2.6
	c-5.3,2.1-12.4,4-17.8,4.9c-5.6,0.7-11.5,0.7-17.1,0c-1.4-0.2-2.5-0.9-3.2-2c-0.8-1-1.2-2.4-1-3.7v-11.2c0-0.8-0.4-1.7-0.8-2.4
	l-89-131.3c-0.4-0.5-0.9-1-1.6-1.3c-0.6-0.3-1.4-0.4-2-0.3c-0.9,0.1-1.8,0.6-2.4,1.3c-0.9,0.7-1.6,1.9-1.8,3
	c-0.2,1.3,0.1,2.5,0.8,3.5L211.7,221v9.6c0,7.1,4.3,12.8,10.7,13.9c6.3,0.8,12.8,0.8,19,0c6.7-1,18.4-3.5,23.6-8.1
	c1.5-1.3,2.7-2.6,3.8-4.3c2-3,3-6.5,3-10v-12.3L360.3,55L353.2,50.9L353.2,50.9z"/>
<path d="M263.9,207.3l-0.2-0.1L263.9,207.3z M353.2,50.9l0.1-0.2l-0.2-0.1l-0.1,0.2L353.2,50.9z M263.1,210h0.2H263.1z M263.1,223.5
	h-0.2H263.1z M262,227.7l-0.2-0.1L262,227.7z M259.4,230.4l0.1,0.2L259.4,230.4z M241.6,235.2v0.2V235.2z M224.5,235.2v0.2V235.2z
	 M221.2,233.2l0.2-0.1L221.2,233.2z M220.2,229.5h0.2H220.2z M220.2,218.4H220H220.2z M219.3,216l0.2-0.1L219.3,216z M130.4,84.7
	l0.2-0.1L130.4,84.7z M128.8,83.4l-0.1,0.2L128.8,83.4z M126.8,83.1v-0.2V83.1z M124.4,84.3l0.1,0.2L124.4,84.3z M122.6,87.4h-0.2
	H122.6z M123.4,90.9l0.2-0.1L123.4,90.9z M211.6,221.1h0.2v-0.2L211.6,221.1z M222.3,244.6v0.2V244.6z M241.3,244.6v0.2V244.6z
	 M264.9,236.7l0.1,0.2l0.1-0.1l-0.1-0.1L264.9,236.7L264.9,236.7z M264.9,236.6l-0.1-0.2l-0.1,0.1l0.1,0.1L264.9,236.6L264.9,236.6z
	 M268.8,232.4l-0.2-0.1L268.8,232.4z M271.8,222.2h0.2H271.8z M271.8,210l-0.2-0.1v0.1H271.8z M360.3,55l0.2,0.1V55H360.3L360.3,55z
	 M264,207.4L353.3,51l-0.3-0.2l-89.3,156.4L264,207.4z M263.4,210c0-0.9,0.2-1.9,0.6-2.6l-0.3-0.2c-0.5,0.8-0.7,1.9-0.7,2.8H263.4z
	 M263.4,223.5V210H263v13.5H263.4z M262.2,227.8c0.7-1.3,1.2-2.8,1.2-4.3H263c0,1.5-0.3,2.8-1,4.1L262.2,227.8L262.2,227.8z
	 M259.5,230.5c1.2-0.6,2.1-1.6,2.7-2.7l-0.3-0.2c-0.6,1-1.6,2-2.6,2.6L259.5,230.5L259.5,230.5z M259.3,230.2
	c-5.3,2.1-12.4,4-17.7,4.8l0.1,0.4c5.3-0.8,12.4-2.8,17.8-4.9L259.3,230.2z M241.6,235c-5.6,0.7-11.4,0.7-17,0l-0.1,0.4
	c5.8,0.7,11.5,0.7,17.1,0V235z M224.5,235c-1.3-0.2-2.4-0.8-3.1-1.9l-0.3,0.2c0.8,1.2,2.1,1.9,3.5,2.1L224.5,235L224.5,235
	L224.5,235z M221.3,233.1c-0.7-1-1.2-2.3-0.9-3.6H220c-0.2,1.4,0.2,2.7,1,3.9L221.3,233.1L221.3,233.1z M220.4,229.5v-11.2H220v11.2
	H220.4z M220.4,218.4c0-0.9-0.4-1.8-0.8-2.5l-0.3,0.2c0.4,0.7,0.8,1.5,0.8,2.3H220.4z M219.5,215.9l-89-131.3l-0.3,0.2l89,131.3
	L219.5,215.9z M130.6,84.6c-0.4-0.6-0.9-1-1.7-1.4l-0.2,0.4c0.6,0.3,1.2,0.7,1.5,1.3L130.6,84.6z M128.9,83.2
	c-0.6-0.3-1.5-0.4-2.1-0.3l0.1,0.4c0.6-0.1,1.4,0,1.9,0.2C128.8,83.5,128.9,83.2,128.9,83.2z M126.8,82.9c-0.9,0.1-1.9,0.6-2.5,1.4
	l0.3,0.3c0.6-0.6,1.5-1,2.3-1.2C126.9,83.4,126.8,82.9,126.8,82.9z M124.3,84.1c-1,0.8-1.7,2-1.9,3.2l0.4,0.1
	c0.2-1.2,0.8-2.2,1.7-2.9C124.5,84.6,124.3,84.1,124.3,84.1z M122.4,87.4c-0.2,1.3,0.1,2.6,0.8,3.7l0.3-0.2
	c-0.6-0.9-0.9-2.2-0.7-3.3C122.8,87.5,122.4,87.4,122.4,87.4z M123.3,91l88.2,130.2l0.3-0.2L123.6,90.7L123.3,91z M211.4,221.1v9.6
	h0.4v-9.6H211.4z M211.4,230.7c0,7.1,4.3,13,10.8,14.1l0.1-0.4c-6.3-1-10.5-6.7-10.5-13.7L211.4,230.7L211.4,230.7z M222.3,244.8
	c6.4,0.8,12.8,0.8,19.1,0l-0.1-0.4c-6.3,0.8-12.7,0.8-19,0V244.8z M241.4,244.8c3.3-0.5,7.9-1.4,12.3-2.7s8.7-3,11.3-5.4l-0.3-0.3
	c-2.5,2.3-6.8,4-11.2,5.3s-9,2.2-12.3,2.6L241.4,244.8L241.4,244.8z M265.1,236.6l-0.4,0.2L265.1,236.6z M269.1,231.3
	c-1,1.6-3.5,4.4-5,5.6l0.2,0.4c2.1-1.4,4-4.2,5.1-5.8L269.1,231.3z M271.6,222.2c0,3.6-1,7-3,9.9l0.3,0.2c2-3,3-6.6,3-10.1
	L271.6,222.2L271.6,222.2z M271.6,210v12.2h0.4v-12.3h-0.4V210z M360.1,54.9l-88.4,155l0.3,0.2l88.4-154.9
	C360.4,55.2,360.1,54.9,360.1,54.9z M353.1,51.1l7.1,4.1l0.2-0.3l-7.1-4.1L353.1,51.1z"/>
<path class="st21" d="M123.4,90.9l-11-6.1c-0.5-0.6-0.7-1.3-0.8-2.1c-0.1-0.7,0-1.6,0.3-2.2l11,5.9c-0.3,0.7-0.4,1.5-0.3,2.2
	C122.6,89.5,122.9,90.2,123.4,90.9"/>
<path class="st9" d="M122.8,86.5l-11-6c0.1-0.2,0.2-0.5,0.3-0.7l11,6.1L122.8,86.5"/>
<path class="st3" d="M123.2,85.9l-11-6.1c0-0.2,0.2-0.4,0.3-0.6l11,6.1C123.5,85.5,123.3,85.7,123.2,85.9z"/>
<path class="st4" d="M123.5,85.3l-11-6.1l0.4-0.5l11,6.1L123.5,85.3z"/>
<path class="st5" d="M123.9,84.9l-11-6.1l0.4-0.4l11,6C124.2,84.6,124,84.7,123.9,84.9z"/>
<path class="st0" d="M124.3,84.5l-11-6.1L124.3,84.5"/>
<path class="st10" d="M355.8,45l-3.6,8.7c0.2-0.5,0.3-1,0.3-1.6s-0.2-1-0.4-1.5l2.6-9.8c0.2,0.4,1.3,2.1,1.4,2.6
	C356.1,44,356,44.5,355.8,45z"/>
<path class="st10" d="M355,42.2l-2.9,8.5c-0.5-0.8-1.2-1.5-1.9-2l0.2-12.3C351.2,36.9,354.5,41.4,355,42.2L355,42.2z"/>
<path class="st10" d="M353.2,40.2l-2.9,8.5c-0.4-0.3-0.8-0.6-1.4-0.9l-1-0.5l2.9-8.5c0.4,0.2,0.7,0.3,1,0.5
	C352.2,39.6,352.7,39.9,353.2,40.2z"/>
<path class="st10" d="M360.3,41.1l-12.4,6.2c-1.6-0.8-12-4.9-13.7-5.5l11.7-5C347.5,37.3,358.6,40.3,360.3,41.1z"/>
<path class="st10" d="M350.2,35.4l-7.4,9.8c-0.6-0.2-1.4-0.4-2.2-0.6c-4.6-1.3-13.8-2.8-18.4-3.6l7.4-7.8c4.7,0.6,8.5-1.3,13.1,0
	C343.4,33.3,349.5,35.1,350.2,35.4z"/>
<path class="st10" d="M329.6,33.1l-2.9,8.5c-4.6-0.7-9.8-1.3-15.4-1.7c-29.9-1.8-60-0.6-89.7,3.2c-6.6,0.8-13,1.8-19,2.7l2.9-8.5
	c6.2-0.9,12.4-1.9,19-2.7c29.7-3.9,60-6.1,89.9-4.3C320,30.8,325,32.5,329.6,33.1L329.6,33.1z M205.5,37.4l-2.9,8.5
	c-0.6,0.1-1.2,0.1-1.8,0l2.9-8.5C204.3,37.5,204.9,37.5,205.5,37.4z"/>
<path class="st10" d="M203.8,37.4l-2.9,8.5l-1.3-0.3l2.9-8.5L203.8,37.4z"/>
<path class="st10" d="M213.3,39.8c-5.5,4-8.8,7.4-13.7,5.8c-0.3-0.1-2-0.8-2.2-1.3l4.2-7.6c0.3,0.2,0.6,0.3,0.9,0.4"/>
<path class="st10" d="M201.6,36.7l-2.9,8.5c-0.3-0.1-0.6-0.3-0.9-0.5l2.9-8.5C200.9,36.4,201.3,36.5,201.6,36.7z"/>
<path class="st10" d="M211,35.6l-13.3,9c-0.5-0.4-1-0.8-1.4-1.5c-0.2-0.3-0.3-0.7-0.4-1c-0.1-0.4,0-0.7,0.1-1.2l2.9-8.5
	c0,0,1-1.2,1-0.7c0.1,0.4-0.2,2,0.1,2.4c0.3,0.5,1,0.6,1.6,1 M190.2,38.3l-2.9,9.1c-0.1,0.2-0.2,0.4-0.4,0.6l3.3-9.1
	c0.2-0.2,0,0.2,0,0"/>
<path class="st10" d="M189.9,39.4l-2.9,8.5c-0.2,0.2-0.4,0.4-0.6,0.5l2.9-8.5C189.4,39.8,189.6,39.6,189.9,39.4z"/>
<path class="st10" d="M190.1,37.7c0,0-0.6-1.4-0.5-1.3c0.5,0.6-0.2,6.3-2.7,11.8c-0.4,0.2-0.5,0.5-2,0.7c-13.6,2.5-27,6-40,10.2
	c-7.1,2.3-13.9,5.2-20.4,8.8l2.9-8.5c6.5-3.6,13.2-8.1,20.3-10.2c13.1-4.3,25.6-7.4,39.2-9.9C187.3,39.2,189.6,37.9,190.1,37.7z"/>
<path class="st10" d="M133,55.7L124.5,68c-1.5,0.8-2.8,1.7-4.1,2.6s-2.4,2-3.5,3.1l2.2-9.9c1-1.2,2.2-2.2,3.5-3.1
	c1.4-0.9,3.5-0.4,4.8-1.3"/>
<path class="st10" d="M119.9,65.2l-2.9,8.6c-0.7,0.7-1.4,1.7-1.8,2.6l2.9-8.5C118.6,66.9,119.2,66.1,119.9,65.2z"/>
<path class="st10" d="M118.1,67.8l-2.9,8.5l-0.1,0.5l2.9-8.5C117.9,68.2,117.9,68,118.1,67.8 M364.3,48.3l-3,8.5
	c0,0.2-0.1,0.3-0.2,0.5c-0.1,0.1-0.1,0.3-0.2,0.4l2.9-8.5c0.1-0.1,0.1-0.3,0.2-0.4c0.1-0.1,0.5-2.5,0.6-2.6"/>
<path class="st10" d="M364.2,48.4l-3.1,9.3c-0.6,1.4-1.5,2.6-2.4,3.7l-20.8,4.3c1-1,25.8-17.6,26.5-18.9"/>
<path class="st10" d="M361.5,52.8l-2.9,8.5c-0.8,0.8-1.7,1.7-2.6,2.4c-2,1.7-4.1,3.1-6.4,4.4l2.9-8.5c2.2-1.3,4.4-2.6,6.4-4.3
	C359.9,54.6,360.7,53.8,361.5,52.8"/>
<path class="st10" d="M352.5,59.7l-2.9,8.5c-5.3,2.9-10.8,5.4-16.5,7.5c-20.2,7.5-49.6,14.1-83.8,18.4c-18.7,2.3-37.4,3.7-56.2,4.1
	c-15.6,0.4-31.2-0.2-46.6-2c-1.9-0.2-3.8-0.5-5.6-0.7l2.9-8.5c1.8,0.3,3.8,0.5,5.6,0.7c15.5,1.7,31.1,2.3,46.6,1.9
	c18.8-0.4,37.5-1.8,56.2-4.1c34.3-4.2,63.7-10.8,83.8-18.3C341.8,65.1,347.3,62.6,352.5,59.7z"/>
<path class="st10" d="M155.5,85.3l-14.7,10.1c-5.9-0.8-11.6-2.1-17.3-3.8l-1.3-0.3l2.9-8.5l1.3,0.4c6.8-0.6,12.4,0.9,17.3,3.8"/>
<path class="st10" d="M133,82.6l-10.8,8.8c-2.3-0.7-4.6-1.7-6.8-2.7l2.9-8.5c2.2,1,4.4,2,6.8,2.7"/>
<path class="st10" d="M118.6,80.1l-2.9,8.5l-1.8-0.9c-4.5-2.5-3.2-2.9-3.6-3.8l-1.4-15.8"/>
<path class="st16" d="M220.9,28c-6.9,0.8-13.2,1.8-19.3,2.7c-1.2,0.2-1.9,0.7-2.3,1.4s-0.4,1.6,0.1,2.5c0.6,0.9,1.6,1.7,2.7,2.2
	c1,0.5,2.3,0.6,3.5,0.5c6.2-0.9,12.4-1.9,19-2.7c29.8-3.9,59.8-4.9,89.7-3.2c9.9,0.6,19.8,2.1,29.4,4.6c2.8,0.7,5.5,1.6,8.2,2.9
	L352,39c1.4,0.6,2.1,1.6,2.9,2.8l0.2,0.3l0.2,0.3c0.2,0.5,0.1,0.7,0.1,1.3s-0.2,1.2-0.4,1.7v0.1l-0.1,0.2c-0.7,1.6-1.7,2.8-2.9,3.9
	c-4.2,3.3-8.7,6.1-13.7,8.2l-0.1,0.1c-12.1,5-24.6,9.1-37.4,11.9c-17.3,4-34.8,7.1-52.4,9.2c-29.8,3.9-59.8,4.9-89.7,3.1v0.1
	c-9.9-0.5-19.7-2.1-29.2-4.6c-2.8-0.7-5.4-1.7-8.1-3l-0.2-0.1c-1.4-0.6-2.5-1.7-3.2-3c-0.4-0.7-0.5-1.7-0.3-2.5c1-2.8,3-5.1,5.6-6.7
	c7.6-5,15.9-8.9,24.6-11.6c13.1-4.3,26.5-7.7,40-10.2h0.1c0.1,0,0.2,0,0.3-0.1c0.3-0.1,0.6-0.2,0.8-0.3c0.4-0.2,0.7-0.6,0.8-1
	c0.2-0.4,0.3-0.8,0.2-1.4c-0.1-0.4-0.2-0.8-0.5-1.3c-0.7-0.9-1.7-1.6-2.8-2c-1-0.4-2.3-0.5-3.5-0.3c-24,4.8-43.8,10.6-57.1,16.9
	c-5.2,2.2-10.2,5.5-14.4,9.7c-1.5,1.6-2.5,3.5-3,5.5c-0.4,2.1-0.1,4.3,0.9,6.2c1.8,2.8,4.3,5.2,7.2,6.8c3,1.7,6.3,3,9.6,4.4
	c1.6,0.5,17.1,4.2,22.9,4.6c6.4,0.5,31.1,2,46.6,1.6c18.8-0.4,37.5-1.8,56.2-4.1c84.4-9.8,106.6-30.3,106.6-30.3c2.2-1.8,4-4,5-6.6
	c0.5-1.3,0.7-2.5,0.6-3.8s-0.5-2.6-1.2-3.7c-1.8-2.8-4.3-5.2-7.2-6.8c-3-1.7-6.3-3-9.6-4.1c-7.5-2.2-15.2-3.7-22.9-4.5
	c-15.5-1.7-30.9-2.4-46.5-2C258.2,24.4,239.6,25.7,220.9,28"/>
</svg>
