<?xml version="1.0" encoding="utf-8"?>
<!-- Generator: Adobe Illustrator 24.0.0, SVG Export Plug-In . SVG Version: 6.00 Build 0)  -->
<svg version="1.1" id="Слой_1" xmlns="http://www.w3.org/2000/svg" xmlns:xlink="http://www.w3.org/1999/xlink" x="0px" y="0px"
	 viewBox="0 0 470 250" style="enable-background:new 0 0 470 250;" xml:space="preserve">
<style type="text/css">
	.st0{fill:#40689D;}
	.st1{fill:#9A384B;}
	.st2{fill:#904A5A;}
	.st3{fill:#E87891;stroke:#000000;stroke-width:0.2;}
	.st4{fill:#4875B0;}
	.st5{fill:#B4D1FA;stroke:#000000;stroke-width:0.25;}
	.st6{fill:#2F527F;}
	.st7{fill:#70829B;}
	.st8{fill:#5A697D;}
</style>
<path class="st0" d="M153.4,214l-14.6-8c-3-1.8-5.5-4.3-7.2-7.4c-1.7-3.1-2.5-6.6-2.4-10.1l14.9,4.8c-0.1,3.5,0.4,10.1,2.1,13.2
	C147.9,209.7,150.4,212.3,153.4,214z M164.5,153.2l-14.6-8l37.3-5.3l14.6,8L164.5,153.2z"/>
<path class="st0" d="M143.8,196.6l-14.6-8v-18.2l17.4,4.3L143.8,196.6z"/>
<path class="st0" d="M143.9,178.3l-14.6-8c0-3,0.6-5.9,1.6-8.7l25.2-1.5C155,163,143.9,175.3,143.9,178.3"/>
<path class="st0" d="M145.5,169.6l-14.6-7.9c0.4-1.2,7.5-13.4,8-14.6l20.1,8C158.4,156.1,145.9,168.4,145.5,169.6z"/>
<path class="st0" d="M147,166.1l-14.6-8c0.5-0.9,1.1-1.9,1.7-2.7l14.6,8C148.1,164.3,147.5,165.2,147,166.1z M148.7,163.4l-14.6-8
	c0.6-0.8,1.2-1.6,1.9-2.3l14.6,8C149.9,161.8,149.3,162.6,148.7,163.4z"/>
<path class="st0" d="M150.6,161.1l-14.6-8c0.6-0.8,1.3-1.5,2.1-2.1l14.7,8C152,159.6,151.3,160.3,150.6,161.1"/>
<path class="st0" d="M152.7,158.9L138,151c0.8-0.7,1.6-1.4,2.5-2l14.6,8C154.3,157.6,153.5,158.2,152.7,158.9 M155.2,157l-14.6-8
	c1-0.7,2.1-1.4,3.2-1.9l14.6,8C157.3,155.6,156.2,156.2,155.2,157z"/>
<path class="st0" d="M156.5,157l-12.7-9.9c1.9-0.9,8.7-2.3,10.8-2.6l13.2,9.1c-2.1,0.3-7.5,0.6-9.4,1.5"/>
<path class="st1" d="M338.2,155.9l-14.6-7.9c-0.5-0.3-1-0.8-1.3-1.3c-3.8-7.3-9.7-13.3-16.9-17.2l15.4,7c7.2,4,12.7,10.9,16.5,18.2
	C337.6,155.3,337.7,155.6,338.2,155.9"/>
<path class="st2" d="M266.8,233.9l-14.7-8c0.5,0.3,1,0.5,1.5,0.8l14.6,7.9c-0.5-0.2-1-0.5-1.5-0.8"/>
<path class="st1" d="M268.2,234.7l-14.6-8l0.7,0.4c2.3,1.1,4.7,1.9,7.1,2.6l14.6,8c-2.4-0.6-4.8-1.5-7.1-2.6L268.2,234.7z"/>
<path class="st1" d="M274.8,238.9l-13.3-9.2c5.6,1.4,11.4,1.7,17,0.9c5-0.7,9.9-2.2,14.5-4.4l21.5,2.6c0,8.2-16.4,9.1-21.4,9.8
	C287.5,239.4,280.4,240.3,274.8,238.9L274.8,238.9z"/>
<path class="st1" d="M307.7,234.1l-14.6-8c2.8-1.3,5.5-2.9,8.1-4.7l14.6,8C313.2,231.2,310.5,232.8,307.7,234.1z"/>
<path class="st1" d="M301.4,241.3l-0.2-19.8c2.1-1.5,4.1-3,6-4.7l32-3.6C337.3,214.8,303.5,239.8,301.4,241.3z"/>
<path class="st1" d="M323.7,226.4l-16.6-9.6c1.8-1.6,3.4-3.2,5-5l17.2,8.5C327.7,222,325.5,224.8,323.7,226.4L323.7,226.4z"/>
<path class="st1" d="M310.3,238l1.8-26.2c1.6-1.8,3-3.6,4.4-5.6l27.3-6.8C345.7,204.9,315,239.6,310.3,238z"/>
<path class="st1" d="M332.3,215.6l-15.8-9.4c1.5-2.1,2.8-4.2,4-6.4l16.3,7.9C335.6,209.8,333.7,213.5,332.3,215.6z"/>
<path class="st1" d="M335.7,210.5l-15.4-8.5c0.4-0.6,0.9-3.6,1.2-4.2c1-2.1,2.8-6.5,4.4-11.3l15.5,12.7c-0.8,2.2-2.9,4.7-4,6.8
	c-0.3,0.7-1,3.3-1.4,4"/>
<path class="st1" d="M333.6,220.1l-9.3-28.8c2.4-6.4,3.6-13.1,3.8-20c0-0.5,0.1-1,0.3-1.5l16.4,6.5c-0.2,0.5-2.1,2.5-2.1,3
	C342.5,186.2,345.8,194,333.6,220.1L333.6,220.1z"/>
<path class="st1" d="M342.9,177.9l-14.6-8l0.3-0.6l14.6,8L342.9,177.9z"/>
<path class="st1" d="M343.2,177.3l-14.6-8c0.4-0.6,0.6-0.8,0.9-0.9l14.1,8.5l-0.3,0.5"/>
<path class="st1" d="M343.5,176.9l-14.6-8c0.1-0.1,0.2-0.3,0.3-0.4l14.6,8C343.7,176.6,343.6,176.8,343.5,176.9z"/>
<path class="st1" d="M343.7,176.7l-14.9-7.8c0.4-0.6,0.5-0.9,1.1-1.1l14.8,8l-1.1,1.1"/>
<path class="st1" d="M344.2,176l-14.6-8l0.4-0.4l14.6,8L344.2,176z"/>
<path class="st1" d="M344.8,176.3l-14.8-8.6l0.6-0.4l14.6,8c-0.2,0.1,0.4,0.9,0.2,1"/>
<path class="st1" d="M346.4,176.2l-18.1-2.2c-0.8-3.3,0.1-6.8,3.4-6.9c0.4-0.1,0.8-0.1,1.3,0l15.8,8.8c-0.4-0.1-0.8-0.1-1.3,0
	C347.1,175.8,346.8,175.9,346.4,176.2 M348.5,175.7l-15-8.4l15.3,8.5 M292.3,125.9l-13-8.9c6.5-0.9,13.2-0.6,19.5,1l14.6,8
	C307,124.4,298.8,124.9,292.3,125.9z"/>
<path class="st1" d="M311,126.4l-12.4-8.5c2.8,0.7,5.7,1.9,8.3,3.2l0.9,0.4l14.6,8l-0.9-0.4C318.9,127.8,313.8,127.1,311,126.4
	L311,126.4z"/>
<path class="st1" d="M321.6,129.9l-13.5-8.1l1.4,0.5l14.6,8L321.6,129.9z M262.9,241.1l-14.6-7.9c-23.1-12.5-32.1-42.6-21.6-70.9
	l14.6,8C230.9,198.5,239.9,228.6,262.9,241.1"/>
<path class="st1" d="M242.6,174.4l-15.9-12.2c0.9-2.5,2-5,3.2-7.4l1.2-2.2l17.3,4.9l-3.8,5.3c-1.2,2.4-2.3,4.8-3.3,7.4"/>
<path class="st1" d="M245.8,160.5l-14.7-8c1.4-2.6,2.9-5.1,4.6-7.5l16.9,6.2C250.9,153.6,247.1,157.9,245.8,160.5z"/>
<path class="st1" d="M250.3,153l-14.6-8c1.6-2.2,3.2-4.4,5-6.4l14.7,8C253.6,148.7,251.9,150.8,250.3,153"/>
<path class="st1" d="M255.4,146.6l-18.1-3.8c4-5.7,7.2-8.1,9.2-9.9l23.2,1.5C267.7,136.2,257.2,144.6,255.4,146.6L255.4,146.6z"/>
<path class="st1" d="M261,140.9l-14.6-8c2.2-2,4.5-3.8,6.9-5.5l14.6,8C265.5,137.1,263.2,138.9,261,140.9z"/>
<path class="st1" d="M105,3"/>
<path class="st1" d="M277.1,130.1l-14.6-8c5.3-2.5,10.9-4.2,16.7-5l14.7,8C288.1,125.9,282.4,127.6,277.1,130.1"/>
<path class="st2" d="M228.1,125.7l-14.6-8l1.5,0.8l14.6,8L228.1,125.7z"/>
<path class="st1" d="M229.6,126.5l-14.6-8c2.5,1.2,5.1,2.2,7.7,2.9l14.6,8C234.7,128.7,232.1,127.7,229.6,126.5z"/>
<path class="st1" d="M226.7,132.9l-4-11.5c5.5,1.4,11.3,1.7,16.9,0.9c5-0.7,11.7-3.2,16.2-5.3l12.7,9c-4.5,2.1-7.4,7.1-12.3,7.8
	c-5.6,0.8-13.6,1.7-19.1,0.3"/>
<path class="st1" d="M268.6,125.9l-14.6-8c2.8-1.3,5.4-2.9,8-4.6l25.1,0.8C284.5,115.9,271.4,124.6,268.6,125.9z"/>
<path class="st1" d="M258,133l4-19.7c2.1-1.5,4.1-3,5.9-4.7l14.6,8C280.6,118.3,260,131.6,258,133z"/>
<path class="st1" d="M283.4,117.2l-22.1-3.3c1.7-1.6,10-8.4,11.6-10.2l25.7,0.7C297,106.1,285.1,115.6,283.4,117.2z"/>
<path class="st1" d="M278.4,127.9l-5.5-24.2c1.5-1.8,5-6.2,6.4-8.1l25.1-3.2C303,94.2,280,126.1,278.4,127.9z"/>
<path class="st1" d="M292.5,107l-15.2-9c1.5-2.1,2.8-4.2,4-6.4l15.7,8C295.8,101.8,293.9,104.9,292.5,107z"/>
<path class="st1" d="M292.7,113.1l-11.6-20.9c1.1-3.4,2.9-6.2,3.9-9l20.5-3.3C304.5,82.7,294.1,110.4,292.7,113.1"/>
<path class="st1" d="M299.6,91.2l-14.6-8c2.4-6.6,3.7-13.7,3.8-20.7c0-18.8-9-34.1-22.7-41.6l15.6,5.8c13.7,7.4,23.3,24.8,23.3,43.8
	c0,7.1-2.9,14.3-5.4,21 M254.4,16.5l-14.6-8c6.5-0.9,13.1-0.6,19.4,1l14.6,8.1C267.6,16,261,15.6,254.4,16.5z"/>
<path class="st1" d="M272.5,17.6l-13.3-8.1c3.1,0.8,6.2,1.8,9,3.2l14.6,8.1C280,19.5,275.6,18.4,272.5,17.6z"/>
<path class="st1" d="M282.8,20.8l-14.6-8l1.7,0.9l14.6,8L282.8,20.8z M227.1,34.6l-14.6-8c-0.5-0.3-1-0.7-1.3-1.3
	c-0.2-0.5-0.4-1-0.4-1.6s0.1-1.7,0.3-2.2l15.9,6.8c-0.2,0.5-1.3,2.6-1.3,3.1c0,0.6-0.2,1.1,0,1.6c0.3,0.5,0.7,1,1.3,1.3"/>
<path class="st1" d="M225.6,30l-14.5-8.5c0.1-0.2,1.2-1.6,2.4-2.2l12.6,10l-0.3,0.6"/>
<path class="st1" d="M226,29.4l-14.6-8c0.1-0.2,0.2-0.2,0.3-0.3l14.6,7.7L226,29.4"/>
<path class="st1" d="M226.3,28.9l-14.6-7.8l0.6-0.6l14.3,7.9L226.3,28.9"/>
<path class="st1" d="M226.6,28.5l-14.6-8c0.1-0.1,0.2-0.3,0.4-0.4l14.6,8L226.6,28.5z"/>
<path class="st1" d="M212.4,20.2l14.2,11.4l1.6-2.7c0.5-0.4,7.1-3.8,7.6-4.2l-19-7.6C214.9,18.1,213.9,18.8,212.4,20.2z"/>
<path class="st1" d="M228.8,26.7l-14.6-8c2.9-2,6-3.7,9.2-5.2l31.8,3C252.1,18.1,231.7,24.7,228.8,26.7z"/>
<path class="st1" d="M238,21.5l-14.6-8c5.2-2.5,10.8-4.2,16.6-5l33.8,9.1C267.9,18.4,243.2,19,238,21.5z M224.2,132.9l-14.7-8
	c-15.7-8.6-26.1-26.1-26.1-47.7c0-8.2,1.5-16.3,4.3-23.9L204,62c-2.8,7.7-4,14.3-4,22.5C203.9,105.3,208.4,124.3,224.2,132.9"/>
<path class="st1" d="M202.6,62.6l-15.4-8c1.2-3.2,3.2-7.8,4.8-10.8l14.6,8C205,54.8,203.8,59.4,202.6,62.6z"/>
<path class="st1" d="M206.2,52.5l-14.4-8.3l0.6-1l0.4-0.6l14.4,8.4l-0.3,0.5L206.2,52.5z"/>
<path class="st1" d="M207.1,51l-14.6-8l0.3-0.4l14.6,7.9C207.4,50.7,207.2,50.9,207.1,51z"/>
<path class="st1" d="M207.4,50.6l-14.6-7.9c0.1-0.1,0.2-0.3,0.4-0.4l14.6,8C207.8,50.3,207.4,50.6,207.4,50.6z M207.8,50.2l-14.6-8
	l0.4-0.4l14.6,8L207.8,50.2z"/>
<path class="st1" d="M207.2,51.2l-14.8-8c0.4-1,1.3-1.6,2.3-1.7l14.2,8.2l-0.6,0.3"/>
<path class="st1" d="M208.9,49.7l-16.5-6.4c0,0,0.6-2.3,4.2-1.8l14.6,8C210.4,49.2,209.6,49.3,208.9,49.7z"/>
<path class="st1" d="M211.8,49.5l-15.4-7.9l14.2,8.5"/>
<path class="st3" d="M206.9,51.5c0.3-0.6,0.8-1.1,1.3-1.5s1.2-0.6,1.8-0.7c0.7-0.1,1.3,0,1.9,0.3c0.8,0.5,1.4,1.4,1.6,2.3
	c0.2,1,0,1.9-0.5,2.8c-5,9-7.6,19.1-7.6,29.4c0,29.3,21.9,50,49,46.2s49.2-30.7,49.2-59.9c0-29.3-22-50-49.2-46.1
	c-8.6,1.3-16.8,4.7-23.7,9.9c-0.5,0.4-1.1,0.6-1.7,0.7c-0.6,0.1-1.2,0-1.8-0.3s-1-0.7-1.3-1.2c-0.4-0.9-0.5-2-0.3-3
	c0.3-1,0.9-1.9,1.7-2.5c8-6,17.3-9.9,27.2-11.3c31-4.4,56.1,19.2,56.1,52.8c-0.1,33.6-25.2,64.2-56.3,68.6
	c-31,4.4-56.1-19.2-56-52.8C198.3,73.4,201.3,61.8,206.9,51.5z"/>
<path class="st1" d="M155.7,229.5l-14.6-8l1.5,0.8l14.6,8L155.7,229.5z"/>
<path class="st1" d="M157.2,230.3l-14.6-8c2.4,1.2,5,2.1,7.6,2.8l16.4,8.3C164,233.2,159.6,231.5,157.2,230.3z"/>
<path class="st1" d="M164.8,233.1l-14.6-8c4.4,1.1,8.9,1.5,13.4,1.3c1.2-0.1,2.4-0.2,3.7-0.4c5-0.7,9.8-2.1,14.3-4.3l14.6,8
	c-4.5,2.2-9.3,3.6-14.3,4.3c-1.2,0.2-2.3,0.3-3.5,0.4c-4.5,0.3-9.1-0.1-13.4-1.3"/>
<path class="st1" d="M184.6,237.7l-3-16c2.8-1.3,5.4-2.8,7.9-4.6l22.9,3c-2.5,1.8-13.5,8.3-16.2,9.6"/>
<path class="st1" d="M204,225.2l-14.6-8c2.1-1.5,4.3-3.2,6.2-4.9l14.4,8.2C208,222.2,206.1,223.8,204,225.2z"/>
<path class="st1" d="M201.5,232.1l-18.2,2.3l12.2-21.9c1.8-1.6,3.4-3.3,5-5.1l14.6,8C213.5,217.1,203.2,230.5,201.5,232.1z"/>
<path class="st1" d="M212.2,221.4l-11.7-14.1c1.6-1.8,3.1-3.7,4.4-5.7l17.6,8.2c-1.4,2-5.2,5.6-6.8,7.4"/>
<path class="st1" d="M219.5,209.7l-14.6-8.1c1.5-2.1,2.8-4.2,4-6.4l17.6,9C225.3,206.4,221,207.6,219.5,209.7"/>
<path class="st1" d="M223.5,203.2l-14.6-8c1.4-2.7,2.7-5.4,3.7-8.2l14.6,8C226.2,197.8,224.9,200.5,223.5,203.2"/>
<path class="st1" d="M227.2,195l-14.6-8c2-5.4,3.2-11.1,3.7-16.9c1.4-20.4-7.8-37.4-22.5-45.4l14.6,8c14.8,8,24,25.1,22.5,45.4
	C230.5,183.9,229.2,189.5,227.2,195 M151.8,236.7l-14.6-8c-1.2-0.6-2.3-1.3-3.4-2.1c-0.7-0.5-1.1-1.2-1.4-2
	c-0.2-0.8-0.2-1.7,0.2-2.4l18.2,5.5c-0.3,0.8-3.5,3.9-3.2,4.7c0.2,0.8,0.8,1.5,1.4,2C150,235.2,150.6,236.1,151.8,236.7z"/>
<path class="st1" d="M147.2,230.2l-14.6-8c0.1-0.2,0.1-0.4,0.3-0.6l14.6,8C147.3,229.8,147.2,230,147.2,230.2z"/>
<path class="st1" d="M147.4,229.6l-14.6-8l0.4-0.3l0.6-0.6l14.8,8l-0.7,0.9C147.8,229.7,147.4,229.5,147.4,229.6"/>
<path class="st1" d="M147.8,229.1l-15.1-6.6c0-1.1,0.7-1.6,0.8-1.7l14.6,8C148,228.8,147.9,228.9,147.8,229.1z"/>
<path class="st1" d="M148.1,228.6l-14.8-7.5l0.7-0.7l14.4,7.8L148.1,228.6"/>
<path class="st1" d="M148.4,228.3l-14.2-7.6l0.4-0.4l14.2,7.6C148.8,227.9,148.4,228.3,148.4,228.3z"/>
<path class="st1" d="M148.5,228.4l-14.2-8.4l0.6-0.3l15.5,7.8c-0.2,0.1-1.2,0.3-1.4,0.4"/>
<path class="st1" d="M149.5,227.6l-16.9-5.4c0.4-1.4,1.9-2.6,3.3-2.9c0.4-0.1,0.8-0.1,1.3,0l14.6,8c-0.4-0.1-0.9-0.1-1.3,0
	C150.2,227.4,149.8,227.5,149.5,227.6"/>
<path class="st1" d="M151.8,227.3l-14.6-7.9c0.2,0,0.4,0.1,0.6,0.2l14.6,8L151.8,227.3 M152.4,227.6l-14.6-8L152.4,227.6
	 M179.9,121.2l-14.8-8.5c1.4-0.2,5.1-0.6,6.6-0.7c5.2-0.3,10.3,0.2,15.4,1.4l14.6,8.1c-5-1.3-10.2-1.7-15.4-1.4
	c-1.4,0-2.8,0.2-4.1,0.4"/>
<path class="st1" d="M197.7,123l-10.7-9.6c3.1,0.8,6,1.8,8.9,3.2l14.6,8C207.6,123.3,200.8,123.8,197.7,123z"/>
<path class="st1" d="M210.5,124.7l-14.6-8c0.6,0.3,1.2,0.6,1.7,0.9l14.6,8C211.6,125.2,211,124.9,210.5,124.7z M132.1,215.1l-14.6-8
	c-0.6-0.3-1.1-0.8-1.3-1.5c-4-9.2-5.7-19.2-4.9-29.1c0.5-6.6,2.6-15.1,4.9-21.3l16,7.4c-2.3,6.2-4.1,15.6-4.6,22.2
	c-0.8,10-0.8,19.7,3.2,28.8C131,214.3,131.5,214.8,132.1,215.1L132.1,215.1z"/>
<path class="st1" d="M130,165.1l-14.6-8c1.2-3.2,2.6-6.4,4.2-9.4l17.3,4.3c-1.6,3.1-5.8,9.9-7,13.2"/>
<path class="st1" d="M134.3,155.6l-14.6-7.9c1.4-2.6,2.9-5.1,4.6-7.5l28-3.9C150.6,138.7,135.6,153.1,134.3,155.6L134.3,155.6z"/>
<path class="st1" d="M138.8,148.2l-14.6-8c1.6-2.2,3.3-4.4,5.1-6.4l25.8-0.4C153.3,135.4,140.4,146,138.8,148.2L138.8,148.2z"/>
<path class="st1" d="M143.9,141.8l-14.6-8c1.8-2.1,3.7-4.1,5.8-6l14.6,8c-2,1.8-4,3.8-5.8,5.8"/>
<path class="st1" d="M142.3,148.7l-7.3-20.8c2.2-2,4.5-3.8,6.9-5.4l16.7,7.2c-2.4,1.7-6.8,4.2-9,6.2"/>
<path class="st1" d="M156.5,130.5l-14.6-8c2.9-2,5.9-3.8,9.1-5.3l30.6,3.2C178.5,122,159.3,128.5,156.5,130.5"/>
<path class="st1" d="M165.6,125.3l-14.6-8c5.2-2.5,10.7-4.2,16.4-5l14.6,8C176.3,121.1,170.8,122.8,165.6,125.3z"/>
<path class="st3" d="M181.8,241.7c29.1-4.1,53.9-31.9,56.1-64.1c2.3-33.8-20.8-59.5-51.8-57.6c-1.4,0.1-2.8,0.2-4.1,0.4
	c-29.3,4.1-53.9,31.9-56.1,64.1c-0.8,10,0.9,20,4.9,29.1c0.3,0.6,0.7,1.1,1.3,1.4c0.6,0.3,1.2,0.5,1.8,0.4c0.5-0.1,1-0.3,1.5-0.6
	c0.9-0.5,1.5-1.4,1.8-2.4s0.3-2-0.1-3c-3.5-8-5-16.7-4.3-25.4c2-28.1,23.6-52.5,49.1-56c0.2,0,0.5-0.1,0.7-0.1
	c0.9-0.1,1.9-0.3,2.9-0.3c27.1-1.7,47.4,20.8,45.3,50.3h-0.1c-2,28.1-23.6,52.5-48.8,56l-0.1,0.1c-1.2,0.2-2.4,0.3-3.6,0.4
	c-9.1,0.6-18.1-1.7-25.7-6.7c-0.6-0.4-1.4-0.5-2.1-0.4c-0.5,0-1.1,0.3-1.6,0.6s-0.9,0.8-1.2,1.3c-0.6,0.8-0.8,1.8-0.7,2.8
	s0.6,1.9,1.4,2.5c8.7,5.7,19,8.4,29.3,7.6C179,242,180.4,241.9,181.8,241.7"/>
<path class="st4" d="M257.1,67.8l-14.6-8l10.8-1.5L268,66L257.1,67.8z"/>
<path class="st0" d="M246.2,117.2l-14.6-8l0.1-36.4l14.6,8L246.2,117.2z M257.1,43.8l-14.6-8c5-1.2,7.7-1.6,12.6-1.8l14.6,8.3
	L257.1,43.8z"/>
<path class="st4" d="M235.8,71.5l-11.4-9.2l7.7-1.1l15.1,8.2L235.8,71.5z"/>
<path class="st0" d="M239,81.8l-14.6-8V62.3l14.6,8V81.8z M246.3,69.3l-14.6-8V48.9l14.6,8V69.3z"/>
<path class="st0" d="M247,60.8l-15.3-11.9c0-1.5,0.3-3,0.8-4.5l19.1,3.5C251.1,49.3,247,59.3,247,60.8z"/>
<path class="st0" d="M247.1,52.4l-14.6-8c1.7-4.4,5.2-6.5,5.2-6.5L248,50.6L247.1,52.4"/>
<path class="st0" d="M248,50.6l-14.7-8c0.3-0.5,0.5-1,0.9-1.4l14.6,8C248.5,49.7,248.2,50.1,248,50.6"/>
<path class="st0" d="M248.8,49.2l-14.6-8c0.3-0.4,0.7-0.8,1-1.2l14.6,8C249.5,48.4,249.1,48.8,248.8,49.2"/>
<path class="st0" d="M247,54.6L235.2,40c0.4-0.4,4.4-4.8,11.2-4.8l4.5,11.6l-1.1,1.1"/>
<path class="st0" d="M250.8,46.9l-14.1-7.6l1.1-1.1l14.3,7.7C252.1,45.9,250.8,46.9,250.8,46.9z"/>
<path class="st0" d="M252.1,46.9l-13.6-8.2c0.6-0.4,7.8-2.5,8.4-2.8l20.1,7c-0.7,0.3-14.3,2.6-14.8,2.9"/>
<path class="st0" d="M253.9,44.8l-14.4-7.2c1-0.5,1.8-1.5,2.9-1.7l15.8,7.9C257.2,44,254.9,44.4,253.9,44.8"/>
<path class="st5" d="M257.1,67.8l10.8-1.7l-1.9,12l-8.9,1.3H257v36.4l-10.7,1.2V80.6h-0.1l-7.1,1.1V70.4l7.1-1h0.1V56.9
	c0-3.1,1.1-6,3.1-8.4s4.7-4,7.7-4.5l12.6-1.7v12.2L258.9,56l0,0c-0.5,0.1-1,0.4-1.4,0.8c-0.3,0.4-0.5,0.9-0.6,1.5l0,0v9.5H257.1
	L257.1,67.8z"/>
<path class="st6" d="M201.7,203.2l-14.6-8c1.4-0.2,2.8-0.6,4.1-1.2l14.6,8C204.6,202.6,203.2,203,201.7,203.2"/>
<path class="st6" d="M205.8,202l-18-6.4c0.8-0.4,5-2.4,5.7-2.9l14.6,8C207.4,201.2,206.6,201.7,205.8,202"/>
<path class="st6" d="M208,200.8l-14.6-8c0.6-0.4,1.1-0.8,1.7-1.3l14.6,8C209.1,199.9,208.5,200.3,208,200.8z"/>
<path class="st6" d="M197.2,207.8l-3-15.3c0.5-0.5,1.8-1.9,2.2-2.4l19.8,4.5C215.8,195.1,197.7,207.4,197.2,207.8z"/>
<path class="st6" d="M211,198l-15.2-7.1c0.4-0.5,3.4-4.5,3.8-5l12.6,10.4C211.9,197,211.5,197.5,211,198L211,198z"/>
<path class="st6" d="M212.3,196.4l-14.6-7.9c0.4-0.6,1.5-2.6,1.8-3.2l13.9,9.4C213.1,195.3,212.7,195.9,212.3,196.4z"/>
<path class="st6" d="M208.3,203.9l-9.5-17.3c0.4-0.7,0.8-1.5,1.1-2.3l18.4,4C218,189.2,208.7,203.2,208.3,203.9z"/>
<path class="st6" d="M213.6,202l-13.9-17.3c0.7-1.9,1.3-5.5,1.2-7.8l14.5,9.6c0,2,3.7,5.5,3,7.3"/>
<path class="st6" d="M216.3,190.6l-15.4-12v-18.2l16.4,4.6L216.3,190.6L216.3,190.6z"/>
<path class="st6" d="M215.5,168.3l-14.6-7.9c0-2.3-0.6-4.8-1.7-6.8s-2.8-3.7-4.8-4.9l15.2,7.4c2,1.2,3.7,2.9,4.8,4.9
	S215.7,166,215.5,168.3"/>
<path class="st0" d="M197.6,151.2L187.2,140c2.4-0.4,4.9-0.2,7.2,0.4l14.6,8c-2.3-0.6-4.7-0.7-7.1-0.4"/>
<path class="st0" d="M202.6,149.5l-8.2-9.2c1.1,0.3,2.2,0.7,3.2,1.2l14.6,8c-1-0.5-2.1-0.9-3.2-1.2"/>
<path class="st0" d="M212.2,149.6l-14.5-8l0.6,0.3l14.6,8L212.2,149.6"/>
<path class="st6" d="M164.4,208.5l-14.6-8l42-6l13.6,8.5L164.4,208.5z M157.1,207.2l-14.6-8l0.4,0.2l14.6,8L157.1,207.2z"/>
<path class="st6" d="M157.5,207.4l-13.1-6.7c0.7,0.3-0.1-0.7,0.6-0.5l14.6,8C158.9,208.1,158.2,207.8,157.5,207.4z M159.7,208.2
	l-14.6-8c1.5,0.4,3.1,0.5,4.7,0.3l25.6,9.2C173.8,209.9,161.2,208.6,159.7,208.2z"/>
<path class="st5" d="M201.8,148c11.3-1.6,20.5,7.1,20.5,19.3v18.4c0,12.3-9.3,23.5-20.6,25.1l-37.4,5.2
	c-11.3,1.6-20.5-7.1-20.5-19.3v-18.3c0-12.3,9.3-23.5,20.6-25.1L201.8,148L201.8,148z M215.5,186.5v-18.2c0.1-1.8-0.2-3.6-0.8-5.3
	c-0.7-1.7-1.7-3.2-3-4.4s-2.9-2.1-4.6-2.7c-1.7-0.5-3.5-0.7-5.3-0.5l-37.3,5.2c-3.9,0.8-7.4,2.8-9.9,5.9c-2.5,3.1-3.9,6.9-3.9,10.8
	v18.2c-0.1,1.8,0.2,3.6,0.8,5.3c0.7,1.7,1.7,3.2,3,4.4s2.9,2.1,4.6,2.7c1.7,0.5,3.5,0.7,5.3,0.5l37.4-5.3c3.9-0.8,7.4-2.8,9.9-5.9
	C214.2,194.2,215.5,190.4,215.5,186.5"/>
<path class="st6" d="M192.8,183.2l-14.6-8l1.2-3.3l14.6,8L192.8,183.2z"/>
<path class="st6" d="M181.6,194.5l-15.3-9.4l11.9-9.9l16.4,7.4L181.6,194.5z"/>
<path class="st6" d="M180.4,193.4l-14.7-8.2l0.6-0.1l15.3,8.3H180.4z"/>
<path class="st7" d="M180.3,193.2l-14.6-8L180.3,193.2z"/>
<path class="st0" d="M177.9,197.6l-14.6-8c-0.8-0.4-1.4-1.1-1.8-1.9c-0.4-0.8-0.7-1.5-0.7-2.4l19.1,1.7c0,0.9-4.2,7.9-3.8,8.6
	C176.5,196.6,177.1,197.2,177.9,197.6L177.9,197.6z"/>
<path class="st8" d="M192.8,182.1l-14.6-8l-11.9-6.5l14.6,8L192.8,182.1z"/>
<path class="st0" d="M175.4,193.3l-14.6-8v-16.4l16.9,4.6L175.4,193.3L175.4,193.3z"/>
<path class="st0" d="M175.5,176.9l-14.7-7.8c0-0.7,0.3-1.7,0.5-2.4l14.6,8C175.6,175.4,175.5,176.2,175.5,176.9z M175.9,174.7
	l-14.6-8c0.1-0.3,0.2-0.6,0.4-0.9l14.6,8C176.1,174.1,176,174.4,175.9,174.7z"/>
<path class="st0" d="M161.7,180.7v-14.8c0-0.3,0.4-0.7,0.6-0.9l15.9,6.3C178.1,171.2,161.8,180.4,161.7,180.7z"/>
<path class="st0" d="M176.7,173.2l-14.6-8l0.5-0.6l14.6,8L176.7,173.2z"/>
<path class="st0" d="M177.2,172.6l-14.6-8l0.5-0.5l14.6,8L177.2,172.6z"/>
<path class="st0" d="M175.6,174.5l-14.8-5.6c-0.5-1.5,2.6-6.5,4.3-5.9l17.3,7.8C181.5,171.1,176.9,173,175.6,174.5z"/>
<path class="st0" d="M179.1,171.1l-14.6-7.9c0.5-0.2,1-0.4,1.5-0.4c0.6-0.1,1.2-0.1,1.8,0l14.6,8c-0.6-0.1-1.2-0.1-1.8,0
	C180.1,170.7,179.6,170.9,179.1,171.1"/>
<path class="st0" d="M182,171.1l-14.4-8.3l1.2,0.3l14.6,8l-0.2-0.1"/>
<path class="st0" d="M182.4,170.7l-14.8-7.9c0.3,0.1,0.7,0.1,1,0.2l14.6,8C183,170.9,182.7,170.8,182.4,170.7z"/>
<path class="st5" d="M195.3,177.6c0.8,0.4,1.4,1.1,1.8,1.9c0.4,0.8,0.6,1.6,0.6,2.5c0,1-0.2,1.9-0.6,2.8c-0.4,0.9-1,1.6-1.8,2.2
	l-11.9,9.9c-0.8,0.7-1.7,1.1-2.8,1.2c-0.8,0.1-1.7,0-2.5-0.3c-0.8-0.4-1.5-1.1-2-1.8c-0.5-0.8-0.7-1.7-0.7-2.6V177
	c0-1,0.3-2,0.7-2.9c0.5-0.9,1.1-1.7,2-2.3c0.7-0.5,1.6-0.9,2.4-1c1-0.1,1.9,0,2.8,0.5L195.3,177.6z M192.8,183.2v-0.9l-11.9-6.4
	h-0.6c-0.1,0.1-0.2,0.2-0.2,0.3s-0.1,0.2-0.1,0.3v16.4c0,0.1,0,0.2,0.1,0.3s0.1,0.2,0.2,0.2h0.6l11.9-9.9"/>
<path class="st6" d="M302.6,208.1l-14.6-8c1.4-0.2,2.7-0.6,4-1.2l14.7,8C305.4,207.5,304.1,207.9,302.6,208.1"/>
<path class="st6" d="M289.1,216.1L292,199c0.8-0.4,1.5-0.8,2.2-1.3l18.7,4.8c-0.7,0.5-6.2,5.3-6.9,5.7"/>
<path class="st6" d="M308.8,205.8l-14.6-8c0.6-0.4,1.1-0.9,1.6-1.3l14.6,8C310,205,309.4,205.4,308.8,205.8z"/>
<path class="st6" d="M310.7,206.7l-14.9-10.3c0.5-0.4,1-0.9,1.4-1.4l21.4-2.3C318.3,193.2,311.2,206.3,310.7,206.7z"/>
<path class="st6" d="M311.9,202.9l-14.6-8c0.5-0.5,0.9-1,1.3-1.6l14.6,8C312.7,201.9,312.3,202.4,311.9,202.9"/>
<path class="st6" d="M308.5,210.4l-10.1-17c0.4-0.6,0.8-1.2,1.1-1.8l22.1-0.9C321.4,191.3,308.9,209.8,308.5,210.4z"/>
<path class="st6" d="M314.3,199.5l-14.6-8c0.4-0.7,0.7-1.5,1-2.3l14.6,8C315,198,314.7,198.8,314.3,199.5z"/>
<path class="st6" d="M313.9,202.5l-13.2-13.3c0.7-1.9,1.1-3.9,1.1-5.9l16.8,4.4c-0.1,2-2.7,7.7-3.3,9.5"/>
<path class="st6" d="M316.4,191.4l-14.6-8v-18.2l14.6,8V191.4z M283.9,211.6l-12.8-9.1l16.9-2.4l14.6,8L283.9,211.6z"/>
<path class="st6" d="M319.8,183.8l-18.1-18.6c0.1-2.3-0.5-4.7-1.6-6.7s-2.8-3.7-4.8-4.9l15.2,6.5c2,1.2,4.4,3,5.5,5.1
	C317.1,167.3,319.9,181.4,319.8,183.8L319.8,183.8z M278.4,209.3l-14.6-8l0.4,0.2l14.6,8L278.4,209.3z M278.9,209.5l-14.6-8
	c0.7,0.3,1.4,0.6,2.1,0.8l14.7,8C280.3,210.1,279.6,209.8,278.9,209.5"/>
<path class="st6" d="M281,210.3l-14.6-8c1.5,0.4,3.1,0.5,4.7,0.3l14.6,8C284.2,210.8,282.6,210.7,281,210.3z"/>
<path class="st0" d="M302.7,152.9l-16.4-7.7c2.4-0.3,7.2-0.5,9.5,0.1l14.6,7.9C308.1,152.7,305.2,152.5,302.7,152.9"/>
<path class="st0" d="M309.9,153.2l-14.6-8c1.1,0.3,2.2,0.7,3.2,1.2l14.6,8C312.1,153.9,311,153.5,309.9,153.2z"/>
<path class="st0" d="M313.1,154.5l-14.6-8l0.6,0.3l14.6,8L313.1,154.5z M275.4,216.2l-15.4-8.1c-3-1.8-5.5-4.3-7.2-7.4
	c-1.7-3.1-2.4-7.3-2.2-10.7l15.1,8.5c-0.1,3.5,0.6,6.6,2.3,9.7C269.7,211.3,272.4,214.4,275.4,216.2L275.4,216.2z M270,165.5
	l1.2-18.2l17-2.3l22.2,8.2L270,165.5L270,165.5z"/>
<path class="st0" d="M265.2,198.6l-14.6-8v-18.2l14.6,8V198.6z"/>
<path class="st0" d="M265.2,180.4l-14.6-4.6c-0.2-6.8,0.9-11.9,2.6-14.8l13.6,10.6C265.8,174.4,265.2,177.4,265.2,180.4z"/>
<path class="st0" d="M266.8,171.6l-14.7-8c0.4-1.2,0.9-2.3,1.5-3.5l14.6,8C267.7,169.3,267.2,170.4,266.8,171.6"/>
<path class="st0" d="M268,169.5l-14.8-8.5c0.5-0.9,1.6-2.6,2.2-3.5l14.6,8C269.5,166.3,268.5,168.6,268,169.5z"/>
<path class="st0" d="M269.2,167.3l-17.6-5.3c0.6-0.8,5-6.2,5.7-6.9l14.6,8c-0.7,0.7-1.3,1.5-1.8,2.3"/>
<path class="st0" d="M271.9,163.1l-16.4-6.1c0.6-0.8,3.1-3.3,3.9-4l14.6,7.9C273.3,161.5,272.6,162.2,271.9,163.1"/>
<path class="st0" d="M274,160.9l-7.8-3.4l-7.8-3.4c0.6-1.1,2.7-2.6,3.5-3.2l18.1,7.2C279.1,158.8,274.8,160.2,274,160.9L274,160.9z"
	/>
<path class="st0" d="M276.5,159l-14.7-8c1-0.7,2.1-1.4,3.2-1.9l14.6,8C278.5,157.6,277.4,158.3,276.5,159"/>
<path class="st0" d="M278.2,158.7l-14.8-8.5c1.8-2.1,7.9-3,10.6-3.3l13.8,9C285.8,156.2,280.1,157.8,278.2,158.7z"/>
<path class="st3" d="M293.9,125.1c9.4-1.4,19,0,27.6,4c9.4,4.4,17,11.8,21.8,21c0.4,0.9,0.5,2,0.3,2.9c-0.3,1-0.8,1.9-1.7,2.4
	c-0.5,0.4-1.1,0.6-1.7,0.7c-0.6,0.1-1.3,0-1.8-0.3c-0.6-0.3-1-0.7-1.3-1.3c-4.2-8-10.9-14.5-19.1-18.4c-7.6-3.5-16-4.7-24.2-3.4
	c-9.3,1.6-18.1,5.5-25.6,11.2s-13.5,13.2-17.5,21.7c-13.5,27.3-5.3,58.4,18.3,69.5c7.6,3.5,16,4.7,24.2,3.5
	c9.3-1.6,18-5.4,25.5-11.1c7.5-5.7,13.5-13.1,17.5-21.6c4.1-8.2,6.3-17.2,6.4-26.4c0-1,0.4-2,1-2.8c0.7-0.8,1.6-1.3,2.5-1.5
	c0.5-0.1,0.9-0.1,1.4,0.1c0.1,0,0.3,0.1,0.5,0.2l0.6,0.3c0.3,0.3,0.6,0.9,0.8,1.3c0.2,0.4,0.2,0.9,0.2,1.4
	c-0.2,10.5-2.7,20.8-7.4,30.2c-10.5,21.1-29.6,34.9-49.3,37.6c-9.4,1.4-19,0-27.6-4c-27-12.8-36.4-48.2-20.9-79.5
	C255.1,141.7,274.2,127.9,293.9,125.1z"/>
<path class="st6" d="M290.2,196.3l-10.6-9.7c0.9-0.1,1.7-0.3,2.5-0.7l16.1,8.2c-0.8,0.4-6,2.2-6.8,2.3"/>
<path class="st6" d="M296.7,193.8l-14.6-8c0.5-0.2,1-0.5,1.4-0.8l15.8,7.2C298.9,192.6,297.2,193.6,296.7,193.8"/>
<path class="st6" d="M295.3,196l-11.8-11l1-0.8l16.2,6.1C300.4,190.6,295.6,195.7,295.3,196z"/>
<path class="st6" d="M299.1,192.2l-14.6-8l0.9-0.9l15.6,7.8C300.7,191.4,299.4,191.9,299.1,192.2L299.1,192.2z"/>
<path class="st6" d="M300,191.3l-14.6-8c0.3-0.3,0.5-0.6,0.7-1l14.6,8C300.5,190.7,300.3,191,300,191.3"/>
<path class="st6" d="M295.5,199.1l-9.4-16.7c0.3-0.4,0.5-0.7,0.7-1.1l22,3.6C308.6,185.2,295.8,198.7,295.5,199.1z"/>
<path class="st6" d="M301.4,191.6l-14.6-10.3c0.2-0.5,3.1-3.9,3.2-4.4l13.3,10C303.2,187.3,301.6,191.1,301.4,191.6z"/>
<path class="st6" d="M302.1,187.8l-14.6-8c0.4-1.2,0.6-2.4,0.6-3.6c0.1-1.4,0-2.6-0.6-3.9c-0.7-1.3,2.8,0.7,1.6,0l9.7,4.6
	c1.3,0.7,3.5,1.3,4.2,2.5c0.7,1.3,1.3,3.3,1.3,4.7C304.2,185.4,302.5,186.6,302.1,187.8"/>
<path class="st0" d="M291.7,165.5l7.8,3.6c-17.8,4.1-17.8,16.6-12.4,31.9l-10.5-4.8c-3-1.7-4.3-3.7-4.5-4.7
	c-2-9.8,1.1-21.1,3.3-23.2c2.4-2.3,7.2-3.9,11.8-3.9C288.7,164.3,290.2,164.8,291.7,165.5L291.7,165.5z"/>
<path class="st5" d="M294.3,168.8c2-0.3,4-0.1,6,0.5c1.9,0.6,3.7,1.7,5.2,3.1c1.5,1.4,2.6,3.1,3.3,5c0.7,1.9,1,3.9,0.9,5.9
	c0,4.4-1.5,8.7-4.3,12.1c-2.8,3.4-6.7,5.7-11.1,6.6c-2,0.3-4,0.1-5.9-0.5s-3.7-1.7-5.1-3c-1.5-1.4-2.6-3.1-3.3-4.9
	c-0.7-1.9-1-3.9-0.9-5.9c0-4.4,1.5-8.7,4.3-12.1C286,172.1,289.9,169.7,294.3,168.8L294.3,168.8z M294.3,194.5
	c2.4-0.5,4.6-1.7,6.1-3.6c1.6-1.9,2.4-4.3,2.4-6.7c0.1-1.1-0.1-2.2-0.5-3.3c-0.4-1-1-2-1.8-2.7c-0.8-0.8-1.8-1.3-2.8-1.7
	c-1.1-0.3-2.2-0.4-3.3-0.3c-2.4,0.5-4.6,1.8-6.1,3.6c-1.6,1.9-2.4,4.3-2.4,6.7c-0.1,1.1,0.1,2.2,0.5,3.3c0.4,1,1,2,1.9,2.7
	c0.8,0.8,1.8,1.3,2.8,1.7C292,194.6,293.1,194.7,294.3,194.5"/>
<path class="st0" d="M311.5,165.4l-14.6-8h0.9l14.6,8C312.4,165.5,311.8,165.3,311.5,165.4z"/>
<path class="st0" d="M312.4,165.4l-14.6-8h0.4L313,166L312.4,165.4z M312.8,165.6l-14.6-7.9L312.8,165.6 M310.1,170.7l-14.6-8
	c-0.4-0.2-0.7-0.5-0.9-0.9s-0.3-0.8-0.3-1.3c0-0.4,0.1-0.7,0.2-1.1l15.6,6.6c-0.1,0.4-1.2,1.9-1.2,2.3c0,0.4,0.1,0.9,0.3,1.3
	c0.2,0.4,0.5,0.7,0.9,0.9"/>
<path class="st0" d="M309.1,167.3l-14.6-8l0.2-0.4l14.6,8L309.1,167.3z"/>
<path class="st0" d="M309.3,167l-14.6-8l0.2-0.4l14.6,8L309.3,167z"/>
<path class="st0" d="M309.5,167.8l-14.6-9.1l4.4-0.5l12.5,7.4l-2.1,1.1"/>
<path class="st0" d="M309.9,166.4l-14.6-8l0.3-0.3l14.3,7.9l-0.3,0.3"/>
<path class="st0" d="M309.9,166.1l-14.6-7.9l0.3-0.3l14.6,8L309.9,166.1z M310.3,165.9l-14.6-8l0.4-0.2l14.6,8L310.3,165.9
	 M310.7,165.6l-14.6-7.9c0.2-0.1,0.5-0.2,0.7-0.2l14.6,8C311.2,165.4,311,165.5,310.7,165.6"/>
<path class="st5" d="M302.7,152.9c11.4-1.6,20.6,7.1,20.6,19.3v18.2c0,5.9-2.1,11.6-5.9,16.2c-3.8,4.6-9,7.7-14.8,8.8l-16.9,2.4
	c-11.4,1.6-20.6-7.1-20.5-19.3v-18.2c0-12.3,9.3-23.5,20.6-25.1L302.7,152.9L302.7,152.9z M316.4,191.4v-18.2
	c0.1-1.8-0.2-3.6-0.8-5.3c-0.7-1.7-1.7-3.2-3-4.4s-2.9-2.2-4.6-2.7s-3.5-0.7-5.3-0.5l-16.9,2.4c-3.9,0.8-7.4,2.9-9.9,5.9
	c-2.5,3.1-3.9,6.9-3.9,10.8v18.2c-0.1,1.8,0.1,3.6,0.8,5.3c0.7,1.7,1.7,3.2,3,4.4s2.9,2.2,4.6,2.7s3.5,0.7,5.3,0.5l16.9-2.4
	c3.9-0.8,7.3-2.9,9.8-5.9C315,199.2,316.4,195.3,316.4,191.4"/>
<path class="st5" d="M313.9,167.8L313.9,167.8c0,0.7-0.2,1.4-0.7,2s-1.1,1-1.8,1.1c-0.3,0-0.6,0-0.9-0.1s-0.6-0.3-0.8-0.5
	c-0.2-0.2-0.4-0.5-0.5-0.8s-0.2-0.6-0.1-0.9l0,0c0-0.7,0.2-1.4,0.7-2s1.1-1,1.8-1.1c0.3,0,0.6,0,1,0.1c0.3,0.1,0.6,0.3,0.8,0.5
	s0.4,0.5,0.5,0.8C313.9,167.2,314,167.5,313.9,167.8z"/>
</svg>
