<?xml version="1.0" encoding="utf-8"?>
<!-- Generator: Adobe Illustrator 24.0.0, SVG Export Plug-In . SVG Version: 6.00 Build 0)  -->
<svg version="1.1" id="Слой_1" xmlns="http://www.w3.org/2000/svg" xmlns:xlink="http://www.w3.org/1999/xlink" x="0px" y="0px"
	 viewBox="0 0 600 250" style="enable-background:new 0 0 600 250;" xml:space="preserve">
<style type="text/css">
	.st0{fill:#904A5A;}
	.st1{fill:#743C49;}
	.st2{fill:#882F40;}
	.st3{fill:#824351;}
	.st4{fill:#874654;}
	.st5{fill:#8B4857;}
	.st6{fill:#944D5D;}
	.st7{fill:#994F60;}
	.st8{fill:#CB697F;}
	.st9{fill:#7D414E;}
	.st10{fill:#40689D;}
	.st11{fill:#2F527F;}
	.st12{fill:#687991;}
	.st13{fill:#65758C;}
	.st14{fill:#617187;}
	.st15{fill:#5E6D82;}
	.st16{fill:#B4D1FA;stroke:#000000;stroke-width:0.2;}
	.st17{fill:#B4D1FA;}
	.st18{fill:#9A384B;}
	.st19{fill:#9C5061;}
	.st20{fill-rule:evenodd;clip-rule:evenodd;fill:#E87891;}
	.st21{fill:#793E4B;}
</style>
<path class="st0" d="M424.1,48.8l-11-6L424.1,48.8z"/>
<path class="st1" d="M325.7,239.2l-11-6l-1.9-8.6l11,6L325.7,239.2z"/>
<path class="st2" d="M323.9,230.6l-11-6h0.2l11,6H323.9 M324,230.5l-11-6c0.3-0.1,0.6-0.3,0.8-0.5l11.1,6
	C324.7,230.2,324.4,230.4,324,230.5 M324.9,230l-11-6c0.2-0.1,0.4-0.3,0.6-0.5l11,6C325.4,229.7,325.1,229.9,324.9,230z"/>
<path class="st2" d="M325.5,229.5l-11-6l0.6-0.6l11,6.1l-0.6,0.6"/>
<path class="st2" d="M318.4,237.2l-10.9-10.9c4.7-1.7,7.4-2.8,9.2-6.3l14.3,5.1C331,225.4,318.6,237,318.4,237.2z"/>
<path class="st2" d="M326.7,228.2l-11-6c0.2-0.3,0.3-0.5,0.5-0.8l11,6C327,227.7,326.8,228,326.7,228.2z"/>
<path class="st2" d="M327.1,227.4l-11-6c0.2-0.3,0.3-0.7,0.5-1l11,6C327.5,226.7,327.3,227.1,327.1,227.4z"/>
<path class="st2" d="M327.6,226.3l-11-6c0.3-0.9,0.5-1.9,0.5-2.8l11,6C328.1,224.4,327.9,225.5,327.6,226.3z"/>
<path class="st3" d="M418.1,50.8l-11.1-6l0.2-0.4l11.1,5.9C418.2,50.4,418.2,50.6,418.1,50.8"/>
<path class="st4" d="M418.3,50.3l-11-5.9c0.1-0.1,0.2-0.3,0.3-0.4l11,6L418.3,50.3"/>
<path class="st5" d="M418.7,50l-11-6c0.1-0.1,0.2-0.3,0.4-0.4l11.1,6L418.7,50"/>
<path class="st0" d="M419.1,49.5l-11.1-6l0.5-0.4l11,6L419.1,49.5"/>
<path class="st6" d="M419.5,49.1l-11-6c0.2-0.2,0.4-0.3,0.7-0.4l11,6C420,48.9,419.7,49,419.5,49.1z"/>
<path class="st7" d="M420.3,48.7l-11-6c0.4-0.2,0.8-0.3,1.4-0.4c0.5-0.1,1-0.1,1.6,0l11,6c-0.5-0.1-1-0.1-1.6,0
	C421.1,48.4,420.7,48.6,420.3,48.7z"/>
<path class="st6" d="M423.2,48.4l-11-6c0.2,0.1,0.5,0.1,0.7,0.2l11.1,6C423.7,48.6,423.5,48.5,423.2,48.4"/>
<path class="st0" d="M423.9,48.7l-11-6.1L423.9,48.7"/>
<path class="st1" d="M425.4,55.1l-11-6l-7.3-4.3l11,6L425.4,55.1z"/>
<path class="st8" d="M424.1,48.8c0.5,0.3,0.9,0.7,1.3,1.3c0.3,0.5,0.5,1,0.7,1.7c0.1,0.6,0.1,1.2,0,1.8s-0.3,1.2-0.7,1.7l-7.2-4.3
	c0.3-0.6,0.8-1.2,1.5-1.6c0.6-0.4,1.4-0.7,2.1-0.8C422.4,48.3,423.3,48.4,424.1,48.8z"/>
<path class="st2" d="M328.8,225.7l-11.7-8.3V204l12.2,4.5L328.8,225.7L328.8,225.7z M328.9,207.6l-11-6l89.9-156.9
	c4.9,0.7,7.1,2.2,10.6,6.5L328.9,207.6z"/>
<path class="st2" d="M328.1,210l-11-6c0-0.6,0.1-1.4,0.3-2l11,6C328.3,208.8,328.1,209.4,328.1,210z"/>
<path class="st9" d="M328.5,208.1l-11-6l0.3-0.6l11,6L328.5,208.1z"/>
<path class="st3" d="M328.8,207.5l-11.1-6l11.2,5.8"/>
<path class="st10" d="M336.8,200l-1.8,5.1l-0.1,0.3l1.8-5.1L336.8,200"/>
<path class="st10" d="M336.7,200.3l-1.8,5.1c-0.2,0.5-0.5,0.9-0.8,1.4l1.8-5.1C336.2,201.2,336.5,200.7,336.7,200.3z M335.9,201.5
	l-1.8,5.1l-0.3,0.3c-0.7,0.6-1.6,1.3-2.4,1.7l1.8-5.1c0.8-0.5,1.7-1,2.4-1.7L335.9,201.5"/>
<path class="st10" d="M333.2,203.6l-1.8,5.1c-0.8,0.5-1.8,0.9-2.7,1.4c-5.5,2.1-11.3,3.7-17,4.5h-0.2c-0.5,0.1-1,0.1-1.7,0l1.8-6.3
	c0.5,0.1,1.8,0.5,2.3,0.4l-0.5,0.7c5.9-0.8,11.6-2.3,17-4.5C331.4,204.6,332.3,204.2,333.2,203.6L333.2,203.6z"/>
<path class="st10" d="M311.5,209.5l-1.8,5.1c-0.4-0.1-0.8-0.2-1.2-0.3l1.9-5.1C310.8,209.3,311.2,209.4,311.5,209.5"/>
<path class="st10" d="M310.5,209.2l3.5,4.9c-5.1,1.2-6.9,0-8.6-2.3l4.2-3C309.7,209,310.1,209.1,310.5,209.2z"/>
<path class="st10" d="M311.6,210.7l-4,3.1c-1.3-0.3-1.3-0.8-2.4-2l3.2-3.6c0.3,0.2,1.7,1,2,1.3"/>
<path class="st10" d="M309.9,208.4l-3.1,5c-0.5-0.4-0.9-0.8-1.4-1.4c-0.2-0.3-0.4-0.7-0.4-1c-0.1-0.4,0-0.8,0.1-1.2l1.8-5.1
	c-0.1,0.4,0.2,0.5,0.2,0.8c0.1,0.4,0.3,0.8,0.5,1.2C308,207.2,309.3,208,309.9,208.4L309.9,208.4z"/>
<path class="st11" d="M326.4,197.9l-1.8,5.1l-1.2-0.2l1.8-5.1L326.4,197.9z"/>
<path class="st11" d="M326.7,197.4l-3.2,5.3c-0.9-0.1-2.1-0.3-3.3-0.3c-6.9-0.4-13.8-0.1-20.6,0.7c-4.5,0.5-8.9,1.4-13.3,2.4
	c-2.9,0.6-5.8,1.7-8.5,2.9v-5.3c2.7-1.4,7.3-2.6,10.2-3.2c4.4-1,8.7-2.3,13.2-2.8c6.8-0.9,13.7-1.3,20.6-0.8c1.3,0,2.4,0.2,3.3,0.3"
	/>
<path class="st12" d="M279,203.6l-1.8,5.1L279,203.6"/>
<path class="st10" d="M295.5,209.6l-1.8,5.1c-0.5,1.2-0.9,0.9-1.2,1.2v-6.7C292.8,209,295.4,209.8,295.5,209.6z"/>
<path class="st10" d="M295.5,207.9l-2,7.3c-1.5,1.7-5.2,0.4-5.4,0.5l4.1-5.8C292.4,209.9,295.3,208.2,295.5,207.9z"/>
<path class="st10" d="M294.5,210.7l-1.8,5.1c-0.5,0.3-1,0.4-1.6,0.5h-0.6c-3,0-6.1-0.1-9.1-0.3l-2.6-0.4l1.8-5.1l2.6,0.3
	c3,0.3,6.1,0.4,9.1,0.4h0.6C293.4,211.2,294,211,294.5,210.7z"/>
<path class="st10" d="M280.6,210.5l-1.8,5c-1.7-0.2-3.2-0.6-4.8-1.2l1.8-5.1c1.7,0.5,3.2,0.8,5,1.2"/>
<path class="st12" d="M275.6,209.5l-1.8,5.1L275.6,209.5z"/>
<path class="st13" d="M275.6,209.5l-1.8,5.1c-0.9-0.3-1.8-0.6-2.6-1l1.8-5.1C273.8,208.8,274.7,209.1,275.6,209.5"/>
<path class="st14" d="M272.9,208.3l-1.8,5.1c-0.6-0.3-1.3-0.6-1.8-1l1.8-5.1C271.7,207.6,272.3,208,272.9,208.3z"/>
<path class="st15" d="M271.2,207.3l-1.8,5.1h-0.1c-0.8-0.6-1.6-1.5-2.1-2.4c-0.3-0.5-0.4-1-0.4-1.6c0-0.5,0-1.2,0.2-1.7l1.8-5.1
	c-0.2,0.5-0.2,1.2-0.2,1.7c0.1,0.5,0.2,1.2,0.5,1.6C269.6,205.8,270.3,206.7,271.2,207.3z"/>
<path class="st16" d="M297.6,191.4c4.6-0.6,9.3-0.9,13.9-1c4-0.1,7.9,0,11.8,0.5c2.2,0.2,4.3,0.6,6.4,1.3c1.2,0.3,2.3,0.8,3.3,1.5
	c1.4,0.7,2.5,1.8,3.2,3.1c0.3,0.4,0.4,0.9,0.5,1.5c0.1,0.6,0.1,1-0.1,1.6c-0.3,0.8-0.7,1.6-1.4,2.1c-1.5,1.3-3.1,2.3-5,3
	c-5.5,2.1-11.2,3.7-17,4.5H313c-1.2,0.1-2.3-0.1-3.3-0.5s-2-1.3-2.6-2.1c-0.5-0.9-0.6-1.8-0.2-2.5s1.2-1.3,2.3-1.5
	c3.5-0.5,6.8-1.3,10.1-2.2c2.3-0.6,4.5-1.4,6.6-2.4l0.3-0.2l0.2-0.1h-0.3c-1.5-0.3-2.9-0.4-4.5-0.5c-6.9-0.4-13.8-0.1-20.7,0.7
	c-4.5,0.5-8.9,1.4-13.3,2.4c-2.9,0.6-5.9,1.7-8.6,3l-0.5,0.3l-0.3,0.1h0.3c3.6,0.6,7.2,0.8,10.9,0.7c1.2,0,2.3,0.2,3.2,0.8
	s1.8,1.5,2.3,2.5c0.3,0.8,0.1,1.6-0.3,2.2c-0.4,0.6-1.3,0.9-2.3,1.2h-0.6c-3,0-6.1-0.1-9.1-0.4c-2.5-0.2-5.1-0.7-7.5-1.5
	c-1.7-0.5-3.1-1.3-4.5-2.3c-0.8-0.6-1.6-1.5-2.1-2.4c-0.3-0.5-0.5-1-0.5-1.7s0-1.2,0.2-1.8c0.4-0.8,1-1.7,1.8-2.3
	c1.9-1.4,4-2.5,6.2-3.2C283.4,193.6,290.4,192.1,297.6,191.4z"/>
<path class="st11" d="M341.9,164.1l-3,8.5l-0.8-0.3l3-8.5L341.9,164.1"/>
<path class="st11" d="M341.1,163.8l-3,8.5l-0.6-0.2l3-8.5L341.1,163.8z"/>
<path class="st10" d="M351.5,166.9l-3,8.5l-0.1,0.4l3-8.5L351.5,166.9z M351.3,167.4l-3,8.6c-0.3,0.6-0.7,1.2-1.2,1.7l3-8.5
	C350.6,168.6,350.9,168,351.3,167.4 M350.1,169l-3,8.5c-1,1.2-2.3,2.1-3.8,2.8l3-8.5C347.8,171.1,349.1,170.2,350.1,169z"/>
<path class="st10" d="M346.4,171.9l-3,8.5c-0.7,0.4-1.5,0.8-2.3,1.2c-6.8,2.9-14.4,4.9-21.9,6.2l3.5-8.5c7.3-1.3,14.5-3.3,21.3-6.2
	C345,172.6,345.7,172.3,346.4,171.9L346.4,171.9z"/>
<path class="st10" d="M322.8,179.2l1.9,7.5l-11.5,2.1l3-8.5L322.8,179.2L322.8,179.2z"/>
<path class="st11" d="M340.4,163.6l-3,8.5c-1.5-0.4-2.9-0.7-4.4-0.9l3-8.5C337.5,162.9,339,163.2,340.4,163.6z"/>
<path class="st11" d="M336.7,161.8l-3.8,9.3c-1.6-0.2-3.3-0.4-5.2-0.6c-10.6-0.6-21.1-0.2-31.6,1.2h-0.7c-6.3,0.7-12.7,1.9-18.8,3.2
	c-4.5,1-8.9,2.4-13.2,4.3c-0.6,0.3-1.2,0.6-1.8,0.9l2.6-9.5c0.5-0.3,2.5-1.2,3.1-1.4c4.2-1.8,7.7-1.7,12.1-2.6
	c6.2-1.5,12.5-3.7,18.9-4.5h0.7c10.5-1.4,21-1.4,31.5-0.7c2,0,4,0,5.5,0.2"/>
<path class="st11" d="M264.9,171.8l-3,8.5c-0.8,0.4-1.7,0.9-2.3,1.7l2.8-8.5c0.6-0.6,1.5-1.3,2.3-1.7"/>
<path class="st12" d="M262.4,173.4l-2.9,8.5L262.4,173.4z"/>
<path class="st13" d="M262.4,173.4l-3,8.5l-0.2,0.2l3-8.5L262.4,173.4z"/>
<path class="st15" d="M253.1,174.8l-3,8.5c-0.3-0.6-0.5-1.3-0.6-1.9c-0.1-0.6,0-1.4,0.2-2l3-8.5c-0.2,0.6-0.3,1.4-0.2,2
	C252.5,173.5,252.8,174.3,253.1,174.8"/>
<path class="st10" d="M326.7,175.9l-13.5,12.9c-2.3,0.3-4.7,0.7-7.2,1c-6.9,0.8-13.8,1.4-20.8,1.5c-5.9,0.1-11.7-0.1-17.5-0.7
	l-2.2-0.2c0.2-3.6-4.5-7.7-1.2-10.6l7.3-1.2c5.9,0.6,13.4,0.7,19.2,0.5c6.9-0.1,12-0.1,18.9-0.9c2.5-0.3,5.8,0.3,8.1,0"/>
<path class="st10" d="M270.7,180.5l-5.2,9.8c-2.3-0.3-4.6-0.8-6.9-1.5l-0.6-0.2l2.9-8.5l1.5-0.9c2.3,0.6,3.8,2.3,6.1,2.6
	 M260.9,180.1l-2.9,8.5c-1-0.3-2.1-0.7-3-1.3l3-8.5C258.9,179.4,259.9,179.8,260.9,180.1z"/>
<path class="st10" d="M258,179l-2.9,8.5l-0.8-0.4c-0.4-0.2-0.8-0.5-1.3-0.8l3-8.5c0.4,0.3,0.8,0.5,1.3,0.8L258,179 M255.8,177.7
	l-3,8.5c-1.2-0.7-2.1-1.8-2.7-2.8l3-8.5C253.7,175.9,254.6,176.9,255.8,177.7"/>
<path class="st17" d="M347.1,159.3c1.7,0.8,3,2.1,4.1,3.7c0.6,1,0.8,2.3,0.5,3.5c-0.2,0.9-0.7,1.9-1.5,2.6c-1.8,1.7-3.8,3-6,4
	c-6.9,2.9-14,4.9-21.3,6.2l-6.6,1.2c-2.3,0.3-4.7,0.6-7.2,0.9c-6.9,0.8-13.8,1.4-20.7,1.5c-5.9,0.2-11.7-0.1-17.5-0.7
	c-3.1-0.3-6.2-0.9-9.1-1.8c-1.6-0.4-3-1-4.5-1.9c-1.7-0.8-3-2.1-4-3.7c-0.4-0.6-0.6-1.4-0.6-2c-0.1-0.7,0-1.5,0.3-2.1
	c0.5-1.2,1.3-2.2,2.2-2.9c2.7-2,5.8-3.6,9-4.6c10.1-3.3,20.6-5.5,31.2-6.6c6.9-0.8,13.8-1.4,20.8-1.5c5.9-0.2,11.7,0.1,17.5,0.7
	c3.1,0.3,6.2,0.9,9.1,1.8C344.1,158.1,345.6,158.6,347.1,159.3z M340.8,165.2c0.4-0.3,0.8-0.7,1.2-1.2c-0.3-0.1-0.8-0.3-1.5-0.5
	c-3.1-0.8-6.4-1.3-9.7-1.5c-10.6-0.6-20.8-0.3-31.3,1l-0.6,0.1l-3.6,0.4c-6.4,0.7-9.4,1.5-15.7,2.9c-4.5,1-8.9,2.4-13.2,4.3
	c-1.5,0.6-2.9,1.6-4.1,2.6l-0.2,0.3c0.5,0.2,0.9,0.4,1.5,0.5c3.1,0.8,6.5,1.4,9.7,1.5c10.6,0.6,21.2,0.2,31.8-1.2
	c2.3-0.3,4.5-0.6,6.7-0.9l6.5-1.2c4.8-0.8,9.5-2.1,14.1-3.6C335.4,168.2,338.2,166.9,340.8,165.2"/>
<path d="M347.1,159.3l0.1-0.2L347.1,159.3z M351.1,163l0.2-0.1L351.1,163z M351.7,166.4h0.2H351.7z M350.2,169l0.1,0.1L350.2,169z
	 M344.2,173l0.1,0.2L344.2,173z M322.8,179.2V179V179.2z M316.2,180.3v0.2V180.3z M309,181.4v0.2V181.4z M288.3,182.8v-0.2V182.8z
	 M270.7,182.1v-0.2V182.1z M261.7,180.3l-0.1,0.2L261.7,180.3z M257.2,178.4l0.1-0.2L257.2,178.4z M253.2,174.8l-0.2,0.1
	L253.2,174.8z M252.9,170.7l-0.2-0.1L252.9,170.7z M255,167.8l-0.1-0.2L255,167.8z M264,163.2l0.1,0.2L264,163.2z M295.1,156.6v0.2
	V156.6z M315.9,155.1v0.2V155.1z M333.5,155.8v0.2V155.8z M342.6,157.5l-0.1,0.2L342.6,157.5z M341.9,164.1l0.2,0.1l0.2-0.2
	l-0.2-0.1L341.9,164.1z M340.4,163.6l0.1-0.2L340.4,163.6z M330.8,162.1v0.2V162.1z M299.5,163.2v0.2V163.2z M298.9,163.3v-0.2
	V163.3z M295.3,163.7v0.2V163.7z M279.6,166.6v0.2V166.6z M266.5,170.8l0.1,0.2L266.5,170.8z M262.4,173.5l-0.1-0.1L262.4,173.5z
	 M262.2,173.7l-0.1-0.1l-0.2,0.2l0.3,0.1C262.2,173.9,262.2,173.7,262.2,173.7z M263.6,174.3v-0.2V174.3z M273.4,175.7v-0.2V175.7z
	 M305.1,174.6v-0.2V174.6z M311.9,173.7v0.2V173.7z M318.3,172.6v0.2V172.6z M332.4,169l-0.1-0.2L332.4,169z M347,159.5
	c1.7,0.8,3,2.1,4,3.7l0.3-0.2c-1-1.6-2.4-2.9-4.2-3.8L347,159.5z M350.9,163.1c0.6,0.9,0.7,2.2,0.5,3.2l0.4,0.1
	c0.3-1.3,0.1-2.5-0.5-3.6L350.9,163.1L350.9,163.1z M351.5,166.4c-0.2,0.9-0.7,1.8-1.4,2.5l0.3,0.3c0.7-0.7,1.3-1.7,1.5-2.7
	L351.5,166.4L351.5,166.4z M350,168.9c-1.7,1.7-3.8,3-6,3.9l0.2,0.4c2.3-0.9,4.3-2.3,6.1-4L350,168.9L350,168.9z M344.1,172.8
	c-6.8,2.8-14,4.9-21.3,6.2l0.1,0.4c7.3-1.3,14.5-3.3,21.4-6.3L344.1,172.8L344.1,172.8z M322.8,179.1l-6.6,1.2l0.1,0.4l6.6-1.2
	L322.8,179.1z M316.2,180.1c-2.3,0.3-4.7,0.6-7.2,0.9l0.1,0.4c2.5-0.3,4.9-0.6,7.2-0.9L316.2,180.1z M309,181.2
	c-6.9,0.8-13.8,1.4-20.7,1.5v0.4c6.9-0.1,13.9-0.6,20.8-1.5L309,181.2L309,181.2z M288.3,182.6c-5.9,0.2-11.7-0.1-17.5-0.7v0.4
	c5.9,0.6,11.7,0.8,17.6,0.7L288.3,182.6z M270.9,181.9c-3-0.3-6.2-0.9-9.1-1.8l-0.1,0.4c3,0.8,6.1,1.5,9.2,1.8
	C270.9,182.3,270.9,181.9,270.9,181.9z M261.7,180.1c-1.6-0.4-3-1-4.4-1.9l-0.2,0.4c1.5,0.8,2.9,1.5,4.5,1.9
	C261.5,180.5,261.7,180.1,261.7,180.1z M257.3,178.3c-1.6-0.8-2.9-2.1-3.9-3.6l-0.3,0.2c0.9,1.6,2.4,2.9,4.1,3.8L257.3,178.3
	L257.3,178.3z M253.4,174.7c-0.3-0.6-0.5-1.3-0.6-2h-0.4c0.1,0.7,0.3,1.5,0.6,2.1L253.4,174.7z M252.8,172.8c-0.1-0.7,0-1.4,0.3-2
	l-0.4-0.1c-0.3,0.7-0.4,1.5-0.3,2.2L252.8,172.8z M253.1,170.7c0.4-1.2,1.2-2.1,2.1-2.8l-0.3-0.3c-0.9,0.8-1.8,1.9-2.2,3
	L253.1,170.7z M255.2,167.9c2.7-2,5.8-3.6,8.9-4.5L264,163c-3.2,1-6.3,2.6-9,4.6L255.2,167.9z M264.1,163.4
	c10.1-3.3,20.5-5.5,31.2-6.6v-0.4c-10.7,1-21.1,3.2-31.3,6.6L264.1,163.4z M295.2,156.8c6.9-0.8,13.8-1.4,20.8-1.5v-0.4
	c-7,0.1-13.9,0.6-20.8,1.5C295.2,156.4,295.2,156.8,295.2,156.8z M315.9,155.3c5.9-0.2,11.7,0.1,17.5,0.7v-0.4
	c-5.9-0.6-11.7-0.8-17.6-0.7L315.9,155.3z M333.4,156c3,0.3,6.2,0.9,9.1,1.8l0.1-0.4c-3-0.8-6.1-1.5-9.2-1.8L333.4,156L333.4,156z
	 M342.5,157.7c1.6,0.4,3,1,4.4,1.7l0.2-0.4c-1.5-0.7-2.9-1.4-4.5-1.8L342.5,157.7L342.5,157.7z M340.9,165.4
	c0.4-0.3,0.8-0.7,1.3-1.2l-0.3-0.2c-0.3,0.4-0.7,0.7-1.2,1L340.9,165.4L340.9,165.4z M342.1,163.9c-0.3-0.1-0.8-0.3-1.6-0.5
	l-0.1,0.4c0.6,0.2,1.2,0.3,1.5,0.5L342.1,163.9L342.1,163.9z M340.5,163.4c-3.2-0.8-6.5-1.3-9.7-1.5v0.4c3.2,0.2,6.5,0.6,9.6,1.5
	L340.5,163.4z M330.8,161.9c-10.6-0.6-20.8-0.3-31.3,1l0.1,0.4c10.5-1.4,20.7-1.7,31.2-1V161.9z M299.5,163l-0.6,0.1v0.4l0.6-0.1
	V163z M298.9,163.1l-3.6,0.4l0.1,0.4l3.6-0.4L298.9,163.1z M295.3,163.5c-6.4,0.7-9.5,1.5-15.7,2.9l0.1,0.4
	c6.2-1.5,9.3-2.1,15.7-2.9L295.3,163.5z M279.6,166.4c-4.5,1-9,2.4-13.2,4.3l0.1,0.3c4.3-1.8,8.7-3.2,13.2-4.3L279.6,166.4z
	 M266.4,170.6c-1.6,0.6-2.9,1.6-4.1,2.7l0.3,0.3c1.2-1,2.5-2,4-2.6L266.4,170.6L266.4,170.6z M262.3,173.3l-0.2,0.3l0.3,0.3l0.2-0.3
	L262.3,173.3z M262.1,173.9c0.5,0.2,1,0.4,1.6,0.5l0.1-0.4c-0.5-0.1-1-0.3-1.5-0.5L262.1,173.9z M263.6,174.5
	c3.2,0.8,6.5,1.4,9.7,1.5v-0.4c-3.2-0.2-6.5-0.6-9.7-1.5V174.5z M273.4,175.9c10.7,0.6,21.2,0.2,31.8-1.2l-0.1-0.4
	c-10.6,1.4-21.1,1.7-31.8,1.2L273.4,175.9L273.4,175.9z M305.1,174.8c2.3-0.3,4.5-0.6,6.7-0.9l-0.1-0.4c-2.2,0.3-4.4,0.6-6.7,0.9
	L305.1,174.8z M311.9,173.9l6.5-1.2l-0.1-0.4l-6.5,1.2L311.9,173.9z M318.4,172.8c4.8-0.8,9.5-2.1,14.1-3.6l-0.1-0.4
	c-4.6,1.5-9.3,2.6-14.1,3.6L318.4,172.8z M332.5,169.2c2.9-0.8,5.8-2.2,8.4-3.8l-0.2-0.3c-2.5,1.6-5.3,2.9-8.3,3.8L332.5,169.2
	L332.5,169.2z"/>
<path class="st15" d="M365.2,124.9l-2.9,8.5v-0.3l2.9-8.5C365.3,124.6,365.3,124.8,365.2,124.9z"/>
<path class="st10" d="M374.4,127.9l-2.9,8.5c0,0.2-0.1,0.3-0.2,0.5l2.9-8.5C374.3,128.4,374.3,128.2,374.4,127.9z"/>
<path class="st10" d="M374.1,128.6l-2.9,8.5c-0.2,0.4-0.4,0.8-0.7,1.3c-0.3,0.3-0.5,0.7-0.8,1l2.9-8.5c0.3-0.3,0.5-0.6,0.8-1
	C373.7,129.5,373.9,129,374.1,128.6z M372.6,130.8l-2.9,8.5c-1.5,1.6-3.2,2.9-5.1,4h-0.2l2.9-8.5h0.2
	C369.3,133.8,371.1,132.4,372.6,130.8"/>
<path class="st10" d="M367.2,134.8l-2.9,8.5c-7.1,3.8-14.7,6.6-22.6,8.4h-0.6c-0.5,0.1-1,0.1-1.7,0l2.9-8.5c0.5,0.1,1,0.1,1.7,0
	c0.2,0,0.4-0.1,0.6-0.1C352.6,141.3,360.1,138.5,367.2,134.8L367.2,134.8z"/>
<path class="st10" d="M342.5,143.2l-2.9,8.5l-1.2-0.3l2.9-8.5C341.7,143.1,342.2,143.2,342.5,143.2z"/>
<path class="st10" d="M341.3,142.9l-2.9,8.5c-0.3-0.1-0.6-0.2-0.9-0.4l2.9-8.5C340.7,142.7,341,142.8,341.3,142.9z"/>
<path class="st10" d="M340.4,142.6l-2.9,8.5c-0.3-0.2-0.6-0.3-0.9-0.6l2.8-8.4C339.6,142.3,340,142.5,340.4,142.6"/>
<path class="st10" d="M341.8,142.1l-2.1,9.6c-2.8-0.5-4.1-1.8-4.4-2.2c-0.3-0.3-0.5-0.7-0.6-1.3c-0.1-0.4-0.1-0.9,0.1-1.4l2.9-8.5
	c-0.1,0.4-0.1,0.9,0,1.4c0.1,0.4,1.2,0.6,1.5,1c0.3,0.4,0.7,0.8,1.2,1.2"/>
<path class="st11" d="M365.3,124.5l-2.9,8.5v-0.3c0,0,0-0.1-0.3-0.3l2.9-8.5l0.3,0.3V124.5z M364.8,123.9l-2.9,8.6l-0.5-0.3
	l-0.3-0.3l2.9-8.5l0.4,0.2L364.8,123.9"/>
<path class="st11" d="M364,123.3l-2.8,8.5c-0.7-0.3-1.6-0.6-2.4-0.9l2.9-8.5C362.4,122.6,363.3,122.9,364,123.3"/>
<path class="st11" d="M367.2,123.3l-8.6,7.6l-1-0.3c-2.3-0.6-4.7-1.2-7-1.5l-2.4-9.7c2.4,0.3,10,2,12.3,2.7l0.9,0.3 M244.9,134.8
	l-2.9,8.5c-1.2,0.6-2.2,1.4-3.1,2.2l-0.6,0.6l2.8-8.6l0.7-0.7C242.7,136,243.8,135.5,244.9,134.8L244.9,134.8z"/>
<path class="st11" d="M241.2,137.6l-2.9,8.5c-0.3,0.3-0.6,0.7-0.8,1.2l2.9-8.5C240.6,138.3,240.8,137.9,241.2,137.6 M240.3,138.7
	l-2.9,8.5L240.3,138.7z"/>
<path class="st10" d="M325.3,145.4l-2.8,9.2c-0.2,0.2-1.2,1.2-1.7,1.2l-1.7-8.1C319.3,147.5,325.3,145.4,325.3,145.4L325.3,145.4z"
	/>
<path class="st10" d="M324.2,147.1l-2.9,8.5c-0.4,0.2-0.9,0.4-1.5,0.5c-3.3,0.5-6.9,1-10.6,1.5c-10.2,1.3-20.5,2-30.8,2.2
	c-8.6,0.2-17.1-0.1-25.7-1l-3.2-0.4l2.9-8.5l3.2,0.4c8.6,0.9,17.1,1.3,25.7,1c10.4-0.2,20.6-0.9,30.8-2.2c3.8-0.4,7.2-0.9,10.6-1.5
	C323.2,147.5,323.8,147.4,324.2,147.1z"/>
<path class="st10" d="M255.9,150.3l-6.5,8.1c-3.3-0.5-6.6-1.2-9.8-2.2L239,156l2.9-8.5l0.6,0.2C245.8,148.6,252.6,149.8,255.9,150.3
	L255.9,150.3z"/>
<path class="st10" d="M244.9,148.1l-6,7.9c-1.5-0.5-2.9-1-4.3-1.8l2.9-8.5C239.1,146.5,243.5,147.6,244.9,148.1z"/>
<path class="st10" d="M237.7,145.7l-2.9,8.5l-1-0.6c-0.5-0.3-1.2-0.6-1.7-1l2.9-8.6c0.5,0.4,1,0.7,1.7,1L237.7,145.7z"/>
<path class="st10" d="M235,144.2l-2.9,8.5c-1.4-0.9-2.4-2.1-3.2-3.6c-0.4-0.7-0.7-1.6-0.7-2.4c-0.1-0.8,0-1.7,0.3-2.5l2.9-8.5
	c-0.3,0.8-0.3,1.7-0.3,2.5c0.1,0.8,0.3,1.7,0.7,2.4C232.5,142.1,233.6,143.2,235,144.2L235,144.2z"/>
<path class="st11" d="M353.6,120.6l-2.9,8.5c-2.4-0.3-5.2-0.6-8.3-0.9c-16.1-0.9-32.3-0.4-48.3,1.7c-9.5,1.2-18.9,2.7-28.2,4.9
	c-6.8,1.6-13.5,3.7-20,6.4c-1.4,0.6-2.7,1.3-4,2l2.9-8.5c1.3-0.7,2.6-1.3,4-1.9c6.1-3.6,12.9-5.6,20-6.5c9.3-2.1,18.7-3.8,28.2-4.8
	c16-2.1,32.3-3.2,48.4-2.3C349.2,118,351.6,119.4,353.6,120.6"/>
<path class="st16" d="M293.5,114.8c-15.7,1.7-31.2,5.1-46.1,10.1c-4.6,1.6-9,3.8-12.9,6.7c-1.4,1-2.4,2.4-3.1,4
	c-0.3,0.8-0.4,1.7-0.4,2.6c0.1,0.8,0.3,1.7,0.7,2.5c1.2,1.9,2.8,3.5,4.8,4.6c1.9,1,3.9,1.8,6,2.4c4.3,1.3,8.6,2.1,13,2.6
	c8.6,0.9,17.1,1.3,25.7,1c10.4-0.2,20.6-0.9,30.8-2.2c3.8-0.4,7.2-0.9,10.6-1.5c1.2-0.2,1.9-0.7,2.3-1.4c0.4-0.7,0.4-1.6-0.1-2.5
	c-0.7-0.9-1.6-1.7-2.7-2.2c-1-0.4-2.3-0.6-3.5-0.5c-3.3,0.5-6.8,1-10.6,1.5c-15.9,2.1-32,2.6-48,1.7c-5.2-0.3-10.4-1.2-15.4-2.4
	c-1.3-0.3-2.6-0.8-3.8-1.5h-0.1c-0.3-0.2-0.4-0.4-0.6-0.7v-0.1c0-0.1-0.1-0.3,0-0.7c0.3-0.7,0.8-1.4,1.5-1.8
	c2.2-1.8,4.6-3.2,7.2-4.2 M293.5,114.8c10.2-1.3,20.5-2,30.8-2.2c8.6-0.2,17.1,0.1,25.7,1c4.4,0.5,8.8,1.4,13.1,2.6
	c2.1,0.6,4.1,1.4,5.9,2.4c2,1,3.7,2.6,4.8,4.6l0.7,3.5v0.1c-0.1,1-0.5,2.1-1.2,2.9c-1.6,2.1-3.7,3.9-6,5c-7.2,3.8-14.6,6.5-22.5,8.3
	l-0.2,0.1c-0.2,0.1-0.4,0.1-0.6,0.1c-1,0.1-2.2-0.1-3.1-0.4c-1-0.4-1.9-0.9-2.6-1.8c-0.3-0.3-0.6-0.7-0.7-1.3
	c-0.1-0.4-0.1-0.9,0.1-1.4c0.2-0.4,0.4-0.8,0.8-1.2c0.4-0.3,0.7-0.4,1.3-0.5c5.2-1.3,10.4-2.8,15.3-4.8c3.1-1.2,6.1-2.7,8.7-4.8
	c0.7-0.5,1.3-1.4,1.5-2.2v-0.3c0,0,0-0.2-0.8-0.6c-1.2-0.6-2.4-1.2-3.8-1.5c-5-1.3-10.1-2.1-15.3-2.4c-16.1-0.9-32.3-0.4-48.3,1.7
	c-9.5,1-18.9,2.7-28.1,4.8c-6.8,1.6-13.5,3.7-20,6.4"/>
<path class="st2" d="M306.6,235.2l-12.2-6.1c5.9-0.9,12.8-2.5,18.2-4.7l11,6C318.1,232.7,312.5,234.3,306.6,235.2z M287.8,234.7
	l-11-6h0.2l11,6H287.8z"/>
<path class="st2" d="M287.9,234.8l-11-6l0.9,0.3l11,6L287.9,234.8z"/>
<path class="st2" d="M288.8,235.1l-11-6.1h0.6c5.6,0.7,11.5,0.7,17.1,0l13.1,7c-5.8,0.7-14.4,1.9-20.1,1.2L288.8,235.1"/>
<path class="st10" d="M390.9,91.9l-6.7,13.6c-3.9,2.2-7.9,4-12,5.5c-14.8,5.5-36.2,10.4-61.4,13.5c-13.7,1.8-27.5,2.7-41.3,3
	c-11.4,0.3-22.8-0.1-34.2-1.4c-1.5-0.2-2.9-0.3-4.3-0.6l-3.7-10.5c1.4,0.2,9.3,1.6,10.9,1.7c11.4,1.3,23,1.9,34.4,1.5
	c14.7-2.6,28-3.9,40.8-3.7c25.2-5.6,46.9-8.4,61.7-11.9c4.2-1.5,14.6-7,18.5-9.2"/>
<path class="st18" d="M283.4,243.2l-11-6c-2.1-1.3-3.9-3.1-5.1-5.3c-1.2-2.2-1.8-4.7-1.7-7.1l11.1,6c-0.1,2.5,0.5,4.9,1.7,7.1
	C279.5,240.1,281.3,241.9,283.4,243.2"/>
<path class="st10" d="M396,88.3l-2.9,8.5l-0.1,0.4l-0.1,0.3l2.9-8.6l0.1-0.3L396,88.3 M395.7,88.9l-2.9,8.5c-0.5,1-1.2,2-1.9,2.8
	l2.9-8.5C394.5,90.9,395.2,90,395.7,88.9z"/>
<path class="st10" d="M393.8,91.9l-2.9,8.5c-0.6,0.6-1.3,1.3-2,1.9c-1.6,1.3-3.1,2.3-4.8,3.2L387,97c1.7-0.9,3.3-2.1,4.8-3.2
	C392.5,93.2,393.2,92.6,393.8,91.9z M244.9,117l-14,8.6c-4.3-0.6-8.6-1.5-12.8-2.8l-0.9-0.3l2.9-8.5l0.9,0.3
	c4.5,0.2,10-2.8,13.8-0.3"/>
<path class="st10" d="M226.1,115.5l-8.8,6.9c-1.8-0.5-3.6-1.3-5.2-2.1l2.5-8.8C219,113.4,221.5,114.4,226.1,115.5z"/>
<path class="st10" d="M215,111.6l-2.9,8.6c-0.5-0.2-0.9-0.5-1.4-0.7c-0.7-0.4-1.4-0.8-2-1.3l2.9-8.5c0.6,0.4,1.4,0.9,2,1.3
	C214.1,111.2,214.5,111.4,215,111.6"/>
<path class="st11" d="M387.3,86.9l-3.5,6.9c0.1-0.2,0.2-0.5,0.2-0.8s-0.1-0.5-0.2-0.8c-0.2-0.4-2.4-0.9-2.8-1.3
	c1-1.5,1.3-3.9-0.5-12.7c0.4,0.2,8.4,4.8,8.6,5.1c0.1,0.3-0.5,2.6-0.5,2.8s-0.4,1.5-0.5,1.7"/>
<path class="st11" d="M385.8,82.7l-2.9,8.5c-0.3-0.2-0.5-0.4-0.8-0.5l2.9-8.5C385.2,82.3,385.5,82.5,385.8,82.7z M384.9,82l-2.9,8.5
	l-3.3-2l5.5-6.9C384.5,81.7,384.7,81.9,384.9,82"/>
<path class="st11" d="M384.3,81.7l-2.9,8.5c-1-0.5-6.7-2.4-7.8-2.7l7.4-7c1.2,0.4,2.3,0.8,3.5,1.4"/>
<path class="st11" d="M380.8,80.4L378,89l-1.5-0.4c-3.2-0.9-11.7-2.3-15.1-2.8l8.1-7.7c3.3,0.5,6.7,1.2,9.9,2.1L380.8,80.4"/>
<path class="st11" d="M369.4,77.9l-2.9,8.5c-3.3-0.5-7-0.9-11.1-1.3c-21.7-1.3-43.5-0.4-65,2.4c-4.8,0.6-9.4,1.3-13.9,2l2.9-8.5
	c4.5-0.6,9.1-1.4,13.9-2c21.6-4.2,43.4-3.7,65.2-2.4c4.1,0.3,7.7,0.7,11.1,1.3"/>
<path class="st11" d="M279.4,80.9l-2.8,8.5c-0.6,0.1-1.2,0.1-1.8,0l2.9-8.5C278.4,81,278.9,81,279.4,80.9 M277.6,80.9l-2.9,8.5
	l-1.3-0.3l2.9-8.5C276.9,80.7,277.2,80.8,277.6,80.9z"/>
<path class="st11" d="M276.5,80.6l-2.9,8.5c-0.3-0.1-0.6-0.2-0.9-0.4l2.9-8.5L276.5,80.6z"/>
<path class="st11" d="M275.6,80.2l-2.9,8.5c-0.3-0.1-0.6-0.3-0.9-0.5l2.9-8.5L275.6,80.2z"/>
<path class="st11" d="M319.1,75.4l-47.3,12.8c-0.5-0.4-1-0.9-1.4-1.5c-0.2-0.3-0.3-0.7-0.4-1s0-0.7,0.1-1.2L273,76
	c-0.1,0.4-0.1,0.7-0.1,1.2c0.1,0.4,0.2,0.7,0.4,1c0.3,0.5,1.6,1,2.2,1.5 M267.9,82.7l-2.9,8.5c-0.4,0.2-0.8,0.3-1.3,0.4
	c-9.8,1.9-19.4,4.3-29,7.4c-5.1,1.7-10,3.8-14.6,6.3l2.9-8.5c4.7-2.6,9.6-4.7,14.6-6.3c9.5-3.1,19.1-5.5,29-7.4
	C267.1,83,267.5,82.9,267.9,82.7z"/>
<path class="st11" d="M223,96.9l-0.3,7.2c-1,0.6-4.6,2.5-5.5,3.2c-0.8,0.6-1.7,1.4-2.4,2.1l2.9-8.4c0.4-1.2,1.2-2,2.4-2.2
	C221,98.1,221.9,97.5,223,96.9 M217.6,101l-2.9,8.5c-0.4,0.5-0.8,1-1.2,1.7l2.9-8.5C216.7,102.1,217.1,101.5,217.6,101z"/>
<path class="st11" d="M216.5,102.6l-2.9,8.5l-0.1,0.3l2.8-8.5L216.5,102.6"/>
<path class="st19" d="M280.8,219l-11-6l3.8-3l11,6L280.8,219z"/>
<path class="st16" d="M314.4,116.2c20.5-2.4,40.7-7.1,60.2-13.8c6-2.1,11.7-5,16.8-8.8c1.8-1.4,3.1-3.1,4.1-5.2
	c0.4-1.1,0.5-2.2,0.5-3.4c-0.1-1.1-0.4-2.2-1-3.2c-1.5-2.4-3.7-4.4-6.4-5.9c-2.5-1.3-5.1-2.2-7.8-3c-5.6-1.6-11.2-2.6-17-3.2
	c-11.2-1.1-22.5-1.4-33.7-1c-13.5,0.4-26.9,1.5-40.3,3.3c-4.9,0.6-9.4,1.3-13.8,2c-1.5,0.3-2.5,1-3,1.8c-0.5,1-0.5,2,0.2,3.2
	c1,1.2,2.1,2.1,3.6,2.8c1.4,0.5,3,0.8,4.5,0.6c4.4-0.7,8.9-1.4,13.8-2c20.8-2.9,41.8-3.8,62.8-2.8c6.8,0.3,13.6,1.3,20.1,2.9
	c1.6,0.4,3.4,1,4.9,1.8h0.1c0.4,0.3,0.6,0.5,0.8,0.9v0.1c0,0.1,0.1,0.4,0,0.9c-0.4,1-1.1,1.8-1.9,2.3c-2.9,2.3-6,4.3-9.4,5.5
	 M314.4,116.2c-13.4,1.8-26.8,2.9-40.3,3.3c-11.2,0.4-22.4,0.1-33.7-1c-5.8-0.6-11.5-1.6-17.1-3.2c-2.7-0.8-5.4-1.7-7.7-3
	c-2.6-1.3-4.8-3.3-6.4-5.9l-1-4.4v-0.1c0.1-1.4,0.7-2.7,1.5-3.8c2-2.7,4.7-5.1,7.7-6.6c9.4-5,19.1-8.6,29.3-11l0.3-0.1
	c0.3-0.1,0.5-0.1,0.8-0.1c1.4-0.1,2.9,0.1,4.1,0.5c1.4,0.5,2.5,1.2,3.4,2.3c0.4,0.4,0.8,0.9,1,1.6c0.1,0.5,0.1,1.2-0.1,1.8
	c-0.2,0.6-0.5,1.1-1.1,1.5c-0.5,0.4-1,0.6-1.6,0.7c-6.8,1.7-13.5,3.8-19.9,6.4c-4.1,1.5-7.9,3.6-11.3,6.3c-1,0.7-1.6,1.8-1.9,2.9
	v0.4c0,0,0,0.3,1.1,0.8c1.5,0.8,3.2,1.5,4.9,1.8c6.6,1.6,13.3,2.6,20,2.9c21.1,1,42.3,0.1,63.2-2.8c12.4-1.5,24.7-3.8,36.8-6.6
	c8.9-2.1,17.6-4.9,26.1-8.5"/>
<path class="st18" d="M279.5,237.4l-13.9-12.7v-9.6l13.9,4.5V237.4z"/>
<path class="st18" d="M169.3,3.7"/>
<path class="st18" d="M278.2,222l-12.7-6.9L177.4,84.9l11,6L278.2,222L278.2,222z"/>
<path class="st5" d="M189.4,84.3l-11-6l0.1-0.1l11,5.9C189.5,84.1,189.4,84.1,189.4,84.3"/>
<path class="st0" d="M189.5,84.1l-11-6l0.5-0.4l11,6C189.8,83.9,189.7,84,189.5,84.1"/>
<path class="st6" d="M190,83.8l-11-6c0.2-0.1,0.4-0.3,0.6-0.3l11,6C190.5,83.5,190.2,83.7,190,83.8z"/>
<path class="st7" d="M190.7,83.4l-11-6c0.4-0.2,0.7-0.3,1.2-0.3c0.5-0.1,1-0.1,1.5,0l11.1,6.1c-0.5-0.1-1-0.1-1.5,0
	C191.4,83.2,191.1,83.4,190.7,83.4"/>
<path class="st6" d="M193.4,83.2l-11-6c0.2,0.1,0.5,0.1,0.7,0.2l11,6C193.8,83.3,193.6,83.2,193.4,83.2z"/>
<path class="st0" d="M194,83.4l-11-6L194,83.4h-0.1H194z"/>
<path class="st20" d="M418.2,50.9l-89.3,156.4c-0.5,0.8-0.7,1.8-0.6,2.7v13.5c0,1.5-0.3,2.9-1.2,4.2c-0.6,1-1.6,2-2.7,2.6
	c-5.3,2.1-12.4,4-17.8,4.9c-5.6,0.7-11.5,0.7-17.1,0c-1.4-0.2-2.5-0.9-3.2-2c-0.8-1-1.2-2.4-1-3.7v-11.2c0-0.8-0.4-1.7-0.8-2.4
	l-89-131.3c-0.4-0.5-0.9-1-1.6-1.3c-0.6-0.3-1.4-0.4-2-0.3c-0.9,0.1-1.8,0.6-2.4,1.3c-0.9,0.7-1.6,1.9-1.8,3
	c-0.2,1.3,0.1,2.5,0.8,3.5L276.7,221v9.6c0,7.1,4.3,12.8,10.7,13.9c6.3,0.8,12.8,0.8,19,0c6.7-1,18.4-3.5,23.6-8.1
	c1.5-1.3,2.7-2.6,3.8-4.3c2-3,3-6.5,3-10v-12.3L425.3,55L418.2,50.9z"/>
<path d="M328.9,207.3l-0.2-0.1L328.9,207.3z M418.2,50.9l0.1-0.2l-0.2-0.1l-0.1,0.2L418.2,50.9z M328.1,210h0.2H328.1z M328.1,223.5
	h-0.2H328.1z M327,227.7l-0.2-0.1L327,227.7z M324.4,230.4l0.1,0.2L324.4,230.4z M306.6,235.2v0.2V235.2z M289.5,235.2v0.2V235.2z
	 M286.2,233.2l0.2-0.1L286.2,233.2z M285.2,229.5h0.2H285.2z M285.2,218.4H285H285.2z M284.3,216l0.2-0.1L284.3,216z M195.4,84.7
	l0.2-0.1L195.4,84.7z M193.8,83.4l-0.1,0.2L193.8,83.4z M191.8,83.1v-0.2V83.1z M189.4,84.3l0.1,0.2L189.4,84.3z M187.6,87.4h-0.2
	H187.6z M188.4,90.9l0.2-0.1L188.4,90.9z M276.6,221.1h0.2v-0.2L276.6,221.1z M287.3,244.6v0.2V244.6z M306.3,244.6v0.2V244.6z
	 M329.9,236.7l0.1,0.2l0.1-0.1l-0.1-0.1L329.9,236.7L329.9,236.7z M329.9,236.6l-0.1-0.2l-0.1,0.1l0.1,0.1L329.9,236.6L329.9,236.6z
	 M333.8,232.4l-0.2-0.1L333.8,232.4z M336.8,222.2h0.2H336.8z M336.8,210l-0.2-0.1v0.1H336.8z M425.3,55l0.2,0.1V55H425.3L425.3,55z
	 M329,207.4L418.3,51l-0.3-0.2l-89.3,156.4L329,207.4L329,207.4z M328.4,210c0-0.9,0.2-1.9,0.6-2.6l-0.3-0.2
	c-0.5,0.8-0.7,1.9-0.7,2.8H328.4z M328.4,223.5V210H328v13.5H328.4z M327.2,227.8c0.7-1.3,1.2-2.8,1.2-4.3H328c0,1.5-0.3,2.8-1,4.1
	L327.2,227.8L327.2,227.8z M324.5,230.5c1.2-0.6,2.1-1.6,2.7-2.7l-0.3-0.2c-0.6,1-1.6,2-2.6,2.6L324.5,230.5z M324.3,230.2
	c-5.3,2.1-12.4,4-17.7,4.8l0.1,0.4c5.3-0.8,12.4-2.8,17.8-4.9L324.3,230.2L324.3,230.2z M306.6,235c-5.6,0.7-11.4,0.7-17,0l-0.1,0.4
	c5.8,0.7,11.5,0.7,17.1,0V235z M289.5,235c-1.3-0.2-2.4-0.8-3.1-1.9l-0.3,0.2c0.8,1.2,2.1,1.9,3.5,2.1V235H289.5z M286.3,233.1
	c-0.7-1-1.2-2.3-0.9-3.6H285c-0.2,1.4,0.2,2.7,1,3.9L286.3,233.1z M285.4,229.5v-11.2H285v11.2H285.4z M285.4,218.4
	c0-0.9-0.4-1.8-0.8-2.5l-0.3,0.2c0.4,0.7,0.8,1.5,0.8,2.3H285.4z M284.5,215.9l-89-131.3l-0.3,0.2l89,131.3
	C284.2,216.1,284.5,215.9,284.5,215.9z M195.6,84.6c-0.4-0.6-0.9-1-1.7-1.4l-0.2,0.4c0.6,0.3,1.2,0.7,1.5,1.3
	C195.2,84.9,195.6,84.6,195.6,84.6z M193.9,83.2c-0.6-0.3-1.5-0.4-2.1-0.3l0.1,0.4c0.6-0.1,1.4,0,1.9,0.2
	C193.8,83.5,193.9,83.2,193.9,83.2z M191.8,82.9c-0.9,0.1-1.9,0.6-2.5,1.4l0.3,0.3c0.6-0.6,1.5-1,2.3-1.2
	C191.9,83.4,191.8,82.9,191.8,82.9z M189.3,84.1c-1,0.8-1.7,2-1.9,3.2l0.4,0.1c0.2-1.2,0.8-2.2,1.7-2.9
	C189.5,84.6,189.3,84.1,189.3,84.1z M187.4,87.4c-0.2,1.3,0.1,2.6,0.8,3.7l0.3-0.2c-0.6-0.9-0.9-2.2-0.7-3.3
	C187.8,87.5,187.4,87.4,187.4,87.4z M188.3,91l88.2,130.2l0.3-0.2L188.6,90.7L188.3,91z M276.4,221.1v9.6h0.4v-9.6H276.4z
	 M276.4,230.7c0,7.1,4.3,13,10.8,14.1l0.1-0.4c-6.3-1-10.5-6.7-10.5-13.7L276.4,230.7L276.4,230.7z M287.3,244.8
	c6.4,0.8,12.8,0.8,19.1,0l-0.1-0.4c-6.3,0.8-12.7,0.8-19,0V244.8z M306.4,244.8c3.3-0.5,7.9-1.4,12.3-2.7c4.4-1.3,8.7-3,11.3-5.4
	l-0.3-0.3c-2.5,2.3-6.8,4-11.2,5.3s-9,2.2-12.3,2.6L306.4,244.8z M330.1,236.6l-0.4,0.2L330.1,236.6z M333.6,232.3
	c-1,1.6-2.3,3-3.8,4.2l0.3,0.3c1.5-1.3,2.8-2.7,3.9-4.3L333.6,232.3z M336.6,222.2c0,3.6-1,7-3,9.9l0.3,0.2c2-3,3-6.6,3-10.1
	L336.6,222.2L336.6,222.2z M336.6,210v12.2h0.4v-12.3h-0.4V210z M425.1,54.9l-88.4,155l0.3,0.2l88.4-154.9L425.1,54.9L425.1,54.9z
	 M418.1,51.1l7.1,4.1l0.2-0.3l-7.1-4.1L418.1,51.1z"/>
<path class="st21" d="M188.4,90.9l-11-6.1c-0.5-0.6-0.7-1.3-0.8-2.1c-0.1-0.7,0-1.6,0.3-2.2l11,5.9c-0.3,0.7-0.4,1.5-0.3,2.2
	C187.6,89.5,187.9,90.2,188.4,90.9"/>
<path class="st9" d="M187.8,86.5l-11-6c0.1-0.2,0.2-0.5,0.3-0.7l11,6.1L187.8,86.5"/>
<path class="st3" d="M188.2,85.9l-11-6.1c0-0.2,0.2-0.4,0.3-0.6l11,6.1C188.5,85.5,188.3,85.7,188.2,85.9z"/>
<path class="st4" d="M188.5,85.3l-11-6.1l0.4-0.5l11,6.1L188.5,85.3z"/>
<path class="st5" d="M188.9,84.9l-11-6.1l0.4-0.4l11,6C189.2,84.6,189,84.7,188.9,84.9z"/>
<path class="st0" d="M189.3,84.5l-11-6.1L189.3,84.5"/>
<path class="st10" d="M420.8,45l-3.6,8.7c0.2-0.5,0.3-1,0.3-1.6s-0.2-1-0.4-1.5l2.6-9.8c0.2,0.4,1.3,2.1,1.4,2.6
	C421.1,44,421,44.5,420.8,45L420.8,45z"/>
<path class="st10" d="M420,42.2l-2.9,8.5c-0.5-0.8-1.2-1.5-1.9-2l0.2-12.3C416.2,36.9,419.5,41.4,420,42.2L420,42.2z"/>
<path class="st10" d="M418.2,40.2l-2.9,8.5c-0.4-0.3-0.8-0.6-1.4-0.9l-1-0.5l2.9-8.5c0.4,0.2,0.7,0.3,1,0.5
	C417.2,39.6,417.7,39.9,418.2,40.2z"/>
<path class="st10" d="M425.3,41.1l-12.4,6.2c-1.6-0.8-12-4.9-13.7-5.5l11.7-5C412.5,37.3,423.6,40.3,425.3,41.1z"/>
<path class="st10" d="M415.2,35.4l-7.4,9.8c-0.6-0.2-1.4-0.4-2.2-0.6c-4.6-1.3-13.8-2.8-18.4-3.6l7.4-7.8c4.7,0.6,8.5-1.3,13.1,0
	C408.4,33.3,414.5,35.1,415.2,35.4L415.2,35.4z"/>
<path class="st10" d="M394.6,33.1l-2.9,8.5c-4.6-0.7-9.8-1.3-15.4-1.7c-29.9-1.8-60-0.6-89.7,3.2c-6.6,0.8-13,1.8-19,2.7l2.9-8.5
	c6.2-0.9,12.4-1.9,19-2.7c29.7-3.9,60-6.1,89.9-4.3C385,30.8,390,32.5,394.6,33.1z M270.5,37.4l-2.9,8.5c-0.6,0.1-1.2,0.1-1.8,0
	l2.9-8.5C269.3,37.5,269.9,37.5,270.5,37.4z"/>
<path class="st10" d="M268.8,37.4l-2.9,8.5l-1.3-0.3l2.9-8.5C267.5,37.1,268.8,37.4,268.8,37.4z"/>
<path class="st10" d="M278.3,39.8c-5.5,4-8.8,7.4-13.7,5.8c-0.3-0.1-2-0.8-2.2-1.3l4.2-7.6c0.3,0.2,0.6,0.3,0.9,0.4"/>
<path class="st10" d="M266.6,36.7l-2.9,8.5c-0.3-0.1-0.6-0.3-0.9-0.5l2.9-8.5C265.9,36.4,266.3,36.5,266.6,36.7z"/>
<path class="st10" d="M276,35.6l-13.3,9c-0.5-0.4-1-0.8-1.4-1.5c-0.2-0.3-0.3-0.7-0.4-1c-0.1-0.4,0-0.7,0.1-1.2l2.9-8.5
	c-0.1,0.4-0.1,0.7-0.1,1.2c0.1,0.4,0.9,0.1,1.2,0.5c0.3,0.5,1,0.6,1.6,1 M255.2,38.9l-2.9,8.5c-0.1,0.2-0.2,0.4-0.4,0.6l3-8.5
	C255.1,39.3,255.2,39.1,255.2,38.9"/>
<path class="st10" d="M254.9,39.4l-2.9,8.5c-0.2,0.2-0.4,0.4-0.6,0.5l2.9-8.5C254.4,39.8,254.6,39.6,254.9,39.4z"/>
<path class="st10" d="M255.1,37.7c0.1,0,0.2-0.3,0.3-0.2c0.5,0.6-1,5.2-3.5,10.7c-0.4,0.2-0.5,0.5-2,0.7c-13.6,2.5-27,6-40,10.2
	c-7.1,2.3-13.9,5.2-20.4,8.8l2.9-8.5c6.5-3.6,13.2-8.1,20.3-10.2c13.1-4.3,25.6-7.4,39.2-9.9C252.3,39.2,254.6,37.9,255.1,37.7z"/>
<path class="st10" d="M198,55.7L189.5,68c-1.5,0.8-2.8,1.7-4.1,2.6c-1.3,0.9-2.4,2-3.5,3.1l2.2-9.9c1-1.2,2.2-2.2,3.5-3.1
	c1.4-0.9,3.5-0.4,4.8-1.3"/>
<path class="st10" d="M184.9,65.2l-2.9,8.6c-0.7,0.7-1.4,1.7-1.8,2.6l2.9-8.5C183.6,66.9,184.2,66.1,184.9,65.2z"/>
<path class="st10" d="M183.1,67.8l-2.9,8.5l-0.1,0.5l2.9-8.5C182.9,68.2,182.9,68,183.1,67.8 M429.3,48.3l-3,8.5
	c0,0.2-0.1,0.3-0.2,0.5c-0.1,0.1-0.1,0.3-0.2,0.4l2.9-8.5c0.1-0.1,0.1-0.3,0.2-0.4c0.1-0.1,0.5-2.5,0.6-2.6"/>
<path class="st10" d="M429.2,48.4l-3.1,9.3c-0.6,1.4-1.5,2.6-2.4,3.7l-20.8,4.3c1-1,25.8-17.6,26.5-18.9"/>
<path class="st10" d="M426.5,52.8l-2.9,8.5c-0.8,0.8-1.7,1.7-2.6,2.4c-2,1.7-4.1,3.1-6.4,4.4l2.9-8.5c2.2-1.3,4.4-2.6,6.4-4.3
	C424.9,54.6,425.7,53.8,426.5,52.8"/>
<path class="st10" d="M417.5,59.7l-2.9,8.5c-5.3,2.9-10.8,5.4-16.5,7.5c-20.2,7.5-49.6,14.1-83.8,18.4c-18.7,2.3-37.4,3.7-56.2,4.1
	c-15.6,0.4-31.2-0.2-46.6-2c-1.9-0.2-3.8-0.5-5.6-0.7l2.9-8.5c1.8,0.3,3.8,0.5,5.6,0.7c15.5,1.7,31.1,2.3,46.6,1.9
	c18.8-0.4,37.5-1.8,56.2-4.1c34.3-4.2,63.7-10.8,83.8-18.3C406.8,65.1,412.3,62.6,417.5,59.7z"/>
<path class="st10" d="M220.5,85.3l-14.7,10.1c-5.9-0.8-11.6-2.1-17.3-3.8l-1.3-0.3l2.9-8.5l1.3,0.4c6.8-0.6,12.4,0.9,17.3,3.8"/>
<path class="st10" d="M198,82.6l-10.8,8.8c-2.3-0.7-4.6-1.7-6.8-2.7l2.9-8.5c2.2,1,4.4,2,6.8,2.7"/>
<path class="st10" d="M183.6,80.1l-2.9,8.5c0,0-1-0.5-1.8-0.9c-4.5-2.5-4.6-3.3-5-4.2V68.1"/>
<path class="st16" d="M285.9,28c-6.9,0.8-13.2,1.8-19.3,2.7c-1.2,0.2-1.9,0.7-2.3,1.4c-0.4,0.7-0.4,1.6,0.1,2.5
	c0.6,0.9,1.6,1.7,2.7,2.2c1,0.5,2.3,0.6,3.5,0.5c6.2-0.9,12.4-1.9,19-2.7c29.8-3.9,59.8-4.9,89.7-3.2c9.9,0.6,19.8,2.1,29.4,4.6
	c2.8,0.7,5.5,1.6,8.2,2.9L417,39c1.4,0.6,2.1,1.6,2.9,2.8l0.2,0.3l0.2,0.3c0.2,0.5,0.1,0.7,0.1,1.3s-0.2,1.2-0.4,1.7v0.1l-0.1,0.2
	c-0.7,1.6-1.7,2.8-2.9,3.9c-4.2,3.3-8.7,6.1-13.7,8.2l-0.1,0.1c-12.1,5-24.6,9.1-37.4,11.9c-17.3,4-34.8,7.1-52.4,9.2
	c-29.8,3.9-59.8,4.9-89.7,3.1v0.1c-9.9-0.5-19.7-2.1-29.2-4.6c-2.8-0.7-5.4-1.7-8.1-3l-0.2-0.1c-1.4-0.6-2.5-1.7-3.2-3
	c-0.4-0.7-0.5-1.7-0.3-2.5c1-2.8,3-5.1,5.6-6.7c7.6-5,15.9-8.9,24.6-11.6c13.1-4.3,26.5-7.7,40-10.2h0.1c0.1,0,0.2,0,0.3-0.1
	c0.3-0.1,0.6-0.2,0.8-0.3c0.4-0.2,0.7-0.6,0.8-1c0.2-0.4,0.3-0.8,0.2-1.4c-0.1-0.4-0.2-0.8-0.5-1.3c-0.7-0.9-1.7-1.6-2.8-2
	c-1-0.4-2.3-0.5-3.5-0.3c-24,4.8-43.8,10.6-57.1,16.9c-5.2,2.2-10.2,5.5-14.4,9.7c-1.5,1.6-2.5,3.5-3,5.5c-0.4,2.1-0.1,4.3,0.9,6.2
	c1.8,2.8,4.3,5.2,7.2,6.8c3,1.7,6.3,3,9.6,4.4c1.6,0.5,17.1,4.2,22.9,4.6c6.4,0.5,31.1,2,46.6,1.6c18.8-0.4,37.5-1.8,56.2-4.1
	c84.4-9.8,106.6-30.3,106.6-30.3c2.2-1.8,4-4,5-6.6c0.5-1.3,0.7-2.5,0.6-3.8s-0.5-2.6-1.2-3.7c-1.8-2.8-4.3-5.2-7.2-6.8
	c-3-1.7-6.3-3-9.6-4.1c-7.5-2.2-15.2-3.7-22.9-4.5c-15.5-1.7-30.9-2.4-46.5-2C323.2,24.4,304.6,25.7,285.9,28"/>
</svg>
