<svg version="1.1" id="Слой_1" xmlns="http://www.w3.org/2000/svg" x="0" y="0" viewBox="0 0 470 250" xml:space="preserve"><style>.st0{fill:#9a384b}.st1{fill:#40689d}.st2{fill:#882f40}.st6{fill:#2f527f}.st8{fill:#793e4b}.st12{fill:#e87891;stroke:#000;stroke-width:.2}</style><path class="st0" d="M247.4 240.1l-11.1-6.1c-12-6.6-21.7-16.8-27.7-29.2-5.2-10.6-7-23-7-36-.1-11.7 1.8-23.3 5.8-34.3l11.1 6.1c-3.9 11-5.9 22.6-5.8 34.3 0 13 2.3 24.9 7.6 35.5 5.9 12.6 15 23.2 27.1 29.7z"/><path class="st0" d="M217.7 142.4l-10.4-8.1c1.1-2.8 2.3-5.7 3.7-8.4.4-.9 2.5-4.2 2.9-5l11.7 6.4c-.5.9-2.1 4.6-2.5 5.6-1.4 2.7-3.6 6.1-4.6 9"/><path class="st1" d="M187.5 44l-11.7-6.2c.7-.1 2.6-.6 3.4-.5l12.5 6.7c-.7-.2-2.3-.1-3 0"/><path class="st1" d="M190.3 43.6l-11.1-6.1c.3.1.7.2 1.1.4l11.1 6.1c-.4-.2-.7-.4-1.1-.4zm1.1.3l-11.1-6.1h.2l11.1 6.1h-.2zm-44.2 77.4l-11.7-6.6c-4.1-13.6-4.1-28.1 0-41.6l.6-1.9 13.1 6.5-.6 1.9c-4.1 13.6-5.6 27.7-1.5 41.2"/><path class="st1" d="M146.8 87.8l-10.6-16.7c.8-2.3 3.4-8 4.5-10.2l16 6.8c-1.1 2.3-9.1 17.7-9.9 20.1z"/><path class="st1" d="M148.3 79.8l-5.8-20.5c1.1-1.5 2.2-2.9 3.4-4.3l19.7-1c-1.3 1.4-16.3 24.3-17.3 25.8z"/><path class="st1" d="M157 60.9l-11.1-6.1c1.1-1.2 2.1-2.2 3.3-3.3l.8-.7 13 4.7-2.7 2.1c-1.2 1.1-2.3 2.2-3.3 3.3z"/><path class="st1" d="M161.1 56.8l-11.3-6c1.7-1.5 3.4-2.8 5.2-4.1l11.1 6c-1.8 1.3-2.1 3.2-3.8 4.6"/><path class="st1" d="M166.1 54.3l-11-7.7c2.6-1.8 5.3-3.4 8.1-4.7l11.1 6.1c-2.7 1.4-5.6 4.5-8.2 6.3z"/><path class="st1" d="M157.3 61l6-19c4.2-1.9 8.5-3.5 13-4.5h.7l11.1 6-.6.1c-4.5 1-26.1 15.4-30.2 17.4z"/><path class="st0" d="M194.1 219l-11.4-6.5 10.2-1.5 15.2 6.7c.1 0-14 1.3-14 1.3z"/><path class="st2" d="M189.8 227.3l-12.4-6.3c-.9-.5-1.6-1.3-2.1-2.2s-.7-1.9-.7-2.9l11.1 6.1c0 1.1.9 1.9 1.5 2.7.5.8 1.1 1.2 1.9 1.8"/><path class="st2" d="M186.9 224.3l-12.4-8.5.1-63.5 11.6 5.3.7 66.7zm21.7-4.7l-15.8-8.5.3-181.3 12.4 5.2 3.1 184.6z"/><path class="st0" d="M173.9 155.2l-8.8-10.3 17.8-2.5 11.1 6.1-20.1 6.7z"/><path class="st2" d="M143.5 225.6l-11.1-6.1 32.7-74.7 11.1 6.1-32.7 74.7z"/><path class="st0" d="M128.5 227.7l-11.1-6.1 15.2-2.6 11.4 6.5-15.5 2.2z"/><path class="st2" d="M121.9 236.5l-11.1-6.2c-1.3-.7-2.2-2-2.6-3.5-.4-1.5-.5-3.8 1.7-7.4l10.3 9.1c-.6 1.4-.4 2.2 0 3.7s.6 3.3 1.9 4.1"/><path class="st2" d="M119.4 228.7l-11.1-6.1.3-.7 11.1 6.1c.1.2-.2.4-.3.7z"/><path class="st0" d="M156.3 151.3l-6.7-7.4 4.5 1.1 11.1 6.1c.1 0-8.9.2-8.9.2z"/><path class="st2" d="M120.5 231.9l-11.9-10.1 34-70.8 11.1 6.1-33.2 74.8z"/><path class="st0" d="M155.7 148l-11.1-6.1.9.5 11.1 6.1-.9-.5m1 .5l-11.1-6.1c1.3.6 2.5 1.2 3.9 1.5l11.1 6.1c-1.4-.4-2.8-.8-3.9-1.5z"/><path class="st0" d="M160.4 150l-11.1-6.1h.3l11.1 6.1h-.3zm34-122.1l-11.1-6.1c4.2-.5 8.5-.9 12.8-.9.4 0 1.5.1 1.9.3l11.4 6.2c-.4-.1-1.8-.4-2.2-.4-4.3 0-8.6.3-12.8.9z"/><path class="st0" d="M208.6 27.1L197.5 21l.9.3 11.1 6.1c.1 0-.9-.3-.9-.3z"/><path class="st0" d="M209.6 27.5l-11.1-6.1h.2l11.1 6.1h-.2z"/><path class="st2" d="M151.3 156l-11.1-6.1c-10.3-5.6-22.3-19.1-24.5-44.8L131 110c2.4 25.7 10 40.4 20.3 46z"/><path class="st0" d="M126.7 111.2l-11.1-6.1 8.1-2 11.1 6.1-8.1 2zm.3-22.9l-11.1-6.2c.5-5.4 1.8-10.7 3.7-15.9l13.8 4.4c-2.1 5.3-5.9 12.2-6.4 17.7"/><path class="st0" d="M130.6 72.5l-11.1-6.1c.9-2.6 2.1-5.3 3.5-7.7l11.1 6c-1.3 2.5-2.5 5.2-3.5 7.8z"/><path class="st0" d="M129.5 73.6l-6.6-14.8c1.1-2.1 2.3-4 3.7-6l15.4.7c-1.3 1.9-11.3 18.1-12.5 20.1z"/><path class="st0" d="M137.7 58.8l-11.1-6.1c1.3-1.8 2.7-3.6 4.2-5.3l16.2.9c-1.5 1.8-7.9 8.6-9.3 10.5z"/><path class="st0" d="M141.9 53.5l-12.2-4.8c1.8-2.3 5.6-6.1 7.4-7.7l12.5 6.3c-1.8 1.6-6.2 6.4-7.9 8.2"/><path class="st0" d="M147 48.3l-10.6-6.7c2.2-2 6.1-4.7 9.5-6.6l8.2 8c-2.5 1.6-4.9 3.4-7.1 5.3z"/><path class="st0" d="M154 43l-11.1-6.1c2-1.4 4-2.6 6.1-3.8 1.7-.9 3.5-1.9 5.2-2.7L168 36c-1.8.8-6.1 2.2-7.9 3.3-2.1.9-4.1 2.3-6.1 3.7"/><path class="st0" d="M165.4 38.1l-11.3-7.8c9.3-4.2 19.8-7.3 29.8-8.6l19.1 5.4c-10 1.3-28.4 6.8-37.6 11z"/><path d="M194.4 28c4.2-.6 8.5-.9 12.8-.9.7 0 1.5.2 2.1.4.6.3 1.3.7 1.7 1.3.5.5.8 1.2 1.1 1.8.3.6.3 1.4.3 2.1l-.3 185.5c0 1.7-.6 3.4-1.7 4.7-1.1 1.4-2.6 2.2-4.3 2.5l-14.2 2c-.7.1-1.6 0-2.3-.2s-1.5-.6-2-1.2-1.1-1.2-1.3-1.9c-.3-.7-.4-1.5-.3-2.3v-63.6h-.1l-4.4.6h-.1v.1l-31.1 70.8c-.5 1.1-1.3 2.1-2.2 2.8s-2 1.3-3.3 1.5l-19.8 2.9c-2.2.3-4-.7-5-2.4-.9-1.7-1.2-4.1-.1-6.4l34-70.8v-.1h-.1c-10.7-4.7-24.4-18.3-26.9-45.8l7.9-2.1c2.6 28.2 18.1 38.9 26.1 40.8l4.4 1.1-36.7 76.4-.1.2h.2l14.9-2.1h.1v-.1l32.6-74.6 17.6-2.4v70.1h.1l10.2-1.5h.1v-.1l.3-181.4v-.1h-.1c-3.4.1-6.6.4-10 .8-10.9 1.5-21.7 4.8-31.3 10.1-14.4 8.2-26.1 21-28.2 41.5l-7.9.1c2.6-24.4 16.8-40 33-49 10.7-5.7 22.3-9.5 34.3-11.1z" fill="#e87891" stroke="#000" stroke-width=".25"/><path class="st1" d="M166.7 130.9l-11.1-6.1.7.3 11.3 6c-.4 0-.6-.1-.9-.2"/><path class="st1" d="M167.3 131.5l-11-6.4c.9.4 2 .8 3 1.2l.8.2 12.1 6.2h-1.8c-1-.4-2.1-.8-3.1-1.2"/><path class="st1" d="M171.3 132.7l-11.1-6.1c3.4.8 6.8.9 10.3.4 1.4-.2 4.2-.7 5.5-1.1l10.3 6.3c-1.4.3-3.3.6-4.6.8-3.6.7-7.1.5-10.4-.3"/><path class="st1" d="M187.2 132.9l-12.6-5V47.4l12.6 5v80.5zm-25.3 6.6l-11.1-6.1c-6-3.3-11.4-9.1-15.2-18.7l12.7-7.5c4.7 9.5 7.6 29 13.6 32.3z"/><path d="M188.1 43.4c.8-.1 1.6-.1 2.4.1.7.2 1.5.6 2.1 1.2.6.5 1.1 1.2 1.4 2 .3.7.4 1.6.4 2.3l-.1 84.5c0 1.7-.5 3.3-1.5 4.5-.9 1.4-2.3 2.3-3.9 2.8-2.4.7-4.8 1.3-7.4 1.7-4.8.7-9.8.4-14.5-.9-8-2.4-15.4-8.7-20.3-20.9-4.1-13.6-4.1-28.1 0-41.6 2.6-8 7.3-15.5 13.5-21.3 7.7-6.9 17-11.9 27.2-14.1.1-.1.7-.3.7-.3zm-2.4 88.8l.1-78.8c-7.6 2-14.5 5.8-20.3 10.9-4.8 4.7-8.5 10.5-10.5 16.8-3.4 11.5-3.4 23.6 0 35 3.5 8.7 8.7 14.2 15.5 16.2 3.6 1.1 7.5 1.3 11.1.6 1.4 0 2.7-.2 4.1-.7z" fill="#b4d1fa" stroke="#000" stroke-width=".25"/><path d="M334.4 216l-11.1-6.1-.3-.2 11.1 6.1c.1.1.2.2.3.2z" fill="#5e6d82"/><path class="st1" d="M311.6 193.4l-11.1-6.1c6.1-6.3 7.2-9.7 7.9-10.6l5.8 14c-1.1 1.1-1.9 1.9-2.6 2.7z"/><path class="st1" d="M314.1 190.7l-11.1-6.1.2-.2c.8-1.1 1.7-2.1 2.4-3.2l11.1 6.1c-.7 1.1-1.6 2.2-2.4 3.2l-.2.2z"/><path class="st1" d="M314.3 190.8l-8.8-9.6c1.3-1.8 2.5-3.8 3.6-5.8l19.6-1.6c-1.1 2-10.6 12.6-11.9 14.5"/><path class="st1" d="M320.3 181.6l-11.1-6.1.8-1.7c1.1-2.2 2.1-4.5 2.9-6.7l11.1 6.1c-.8 2.2-1.8 4.5-2.9 6.7l-.8 1.7zm3.8-8.5l-11.3-6.1c.6-1.8 1.3-3.7 1.7-5.5 0-.2 0-.3.2-.5l11.4 6.1c0 .2 0 .4-.2.5-.5 1.9-1.1 3.7-1.7 5.5"/><path class="st1" d="M326.1 167.1L315 161c.1-.2.2-.5.3-.7l11 6.2c-.1.2-.2.4-.3.7"/><path class="st1" d="M326.3 166.5l-11.1-6.1c.1-.2.2-.4.3-.5l11.1 6.1c0 .1-.2.3-.3.5zm.3-.7l-11.1-6.1.4-.5 11.1 6.1-.4.5z"/><path class="st1" d="M327.6 165.3l-15.1-6.7c.4-.2 5-1.2 5.5-1.3h1.2c.6.1.9.2 1.3.4l.5.2 11.9 6.7h-1.5c-.5.1-3.3.4-3.8.7zM267.2 202l-11.3-6 1.2.6 11.1 6.1c-.4-.3-.7-.4-1-.7"/><path class="st1" d="M266.4 206.2l-3.3-7.5c4.4 1.2 8.9 1.4 13.5.7 4-.6 7.8-1.8 11.4-3.5l13.6 6.4c-3.6 1.7-10 4.3-14 4.8-4.5.6-9.6-.1-14-1.3"/><path class="st1" d="M299.1 202.1l-16.3-4.1c3.2-1.1 9.4-4.2 11.4-5.6l11.3 6c-2 1.3-4.1 2.5-6.4 3.7"/><path class="st1" d="M301.6 205.4l-7.4-13c1.7-1.2 3.2-2.3 4.6-3.7l19.1 1.5c-1.5 1.4-5 6.7-6.7 7.9"/><path class="st1" d="M310.1 194.8l-11.1-6.1 5.5-5 7.2 9.9-1.6 1.2"/><path class="st6" d="M314.9 129.3l-12-6.2c-.2-.1-.4-.2-.5-.3-1.5-1.3-3.2-2.4-4.9-3.4l11.3 5.7c1.8.9 4.1 2.5 5.7 3.8.1.2.2.3.4.4zm-52.1 81.1l-11.6-6c-7.5-4.1-13.5-10.4-17.1-18.1 0-.1-.1-.2-.2-.3l13.6 2.4 1.7 2.7c3.6 7.7 6.2 15.2 13.6 19.3z"/><path class="st1" d="M225.5 200.2l-11.1-6.1 16.4-16.8 14 5.5-19.3 17.4z"/><path class="st6" d="M243.1 184l-12.3-6.7c-1.1-4.2-1.6-8.5-1.6-12.9 0-6.1 1.1-12.2 2.9-17.9l12.2 4.4c-1.9 5.8-2.5 13.8-2.5 19.8 0 4.2.2 9 1.3 13.3z"/><path class="st1" d="M247.1 143.4l-11.1-6.1.9-1.8 11.7 5.9-1.5 2z"/><path class="st1" d="M247.7 142.2l-11.1-6.1c1.2-2.2 2.4-4.3 3.9-6.3l11.1 6.1c-1.5 2.1-2.8 4.2-3.9 6.3z"/><path class="st1" d="M251.5 138.9l-11.1-8.9c2.3-3.3 4.6-6.3 7.8-9l9.7 9c-1.6 1.6-5 7-6.4 8.9z"/><path class="st1" d="M255.8 130.6l-11.1-6.1c1.6-1.7 3.2-3.4 4.9-4.9l11.1 6.1c-1.7 1.5-3.4 3.2-4.9 4.9z"/><path class="st1" d="M258.6 129.8l-9-10.2c1.8-1.7 3.8-3.2 5.8-4.6l14.1 4.6c-2.1 1.5-6.9 4.4-8.7 6.1"/><path class="st1" d="M266.3 121.2l-11.1-6.1c2.4-1.7 5-3.2 7.7-4.4l18.8 3.7c-2.6 1.1-12.9 5-15.4 6.8"/><path class="st1" d="M268.2 122.6l-5.4-11.9c4.4-2.1 9-3.5 13.9-4.2l11.1 6.1c-4.7.7-9.5 2.1-13.9 4.2"/><path d="M243.3 152.5l-11.1-6.1-10.7-7.4 5.8 2.5 16 11z" fill="#285ea4"/><path class="st0" d="M358.7 171.4l-12.7-6.1c1.2-.3 1.8-.6 3.7 0l10.9 6.1h-1.9z"/><path class="st0" d="M360.6 171.5l-11.1-6.1 11.4 6.1"/><path class="st2" d="M358.6 161.6l-11.1-6.1c-.6-.4-1.2-.9-1.6-1.6-.3-.6-.5-1.4-.4-2.1v-3c0-4-.3-8.1-.9-12l11.8 5.5c.6 4 .8 8.7.7 12.7 0 1.1.4 2 .4 3-.1.7-.3 1.2 0 1.8s1.2.8 1.8 1.3"/><path class="st0" d="M359.3 132.9l-11.3-6.1c.5-.1 1.1-.1 1.5 0l11.1 6.1c-.3-.1-.8-.1-1.3 0"/><path class="st0" d="M359.9 132.9l-11-6.2 1.7.4 11.1 6.1-1.8-.3zm1.6.3l-11.1-6.1 11.1 6.1zm-70.3 42.5l-9.4-12.2 33.2-5.6 11.6 6.7-35.4 11.1zm-5 3.5l-11.1-6.1c-.3-.1-.5-.3-.7-.5-.4-.4-.7-.9-.9-1.5-.2-.5-.3-1.2-.3-1.7l11.1 6.1c0 .6.1 1.2.3 1.8.2.5.5 1.1.9 1.5.2.2.4.3.7.4m28.3-58l-11.7-7 15.7-20 11.7 6-15.7 21z"/><path class="st8" d="M314.8 127.3l-11.1-6.1c-.2-.1-.4-.3-.6-.4-.6-.6-1.2-1.5-1.3-2.4-.2-.9-.1-1.9.2-2.7l11.1 6.1c-.3.8-.4 1.8-.2 2.7.2.9.6 1.7 1.3 2.4.1.1.4.3.6.4z"/><path d="M313.1 121.7l-11.1-6.1c0-.2.2-.5.3-.7l11.1 6.1c-.1.3-.2.5-.3.7z" fill="#7d414e"/><path d="M313.4 121l-11.1-6c0-.2.2-.4.3-.6l11.1 6c0 .3-.1.5-.3.6" fill="#824351"/><path d="M313.8 120.5l-11.1-6.1.2-.2 11.1 6.1-.2.2z" fill="#874654"/><path class="st0" d="M252 231.5l-11.1-6.1 2.1 1.1 11.1 6.1-2.1-1.1"/><path class="st0" d="M254.1 232.7l-11.1-6.1c3.5 1.7 7 3 10.7 4l11 6c-3.6-1-7.2-2.3-10.6-3.9z"/><path class="st0" d="M264.9 237.4l-12.6-7.3c7.7 2 17.2 2.7 25 1.6 6.9-.9 13.7-3 20-6l11.1 6.1c-6.3 3-12.7 5.5-19.7 6.4-7.7 1.2-16.2 1.2-23.8-.8z"/><path class="st0" d="M304.7 236.5l-7.5-10.8c3.8-1.8 7.5-3.9 10.9-6.3l12.5 6.3c-3.5 2.4-8.6 4.6-12.5 6.4"/><path class="st0" d="M319.8 226l-13.4-5.5c2.8-2 8.9-6.7 11.6-9.1l21-.5c-2.6 2.4-16.3 13.1-19.2 15.1z"/><path class="st0" d="M328.3 219.4l-11.9-6.5c2.4-2.2 4.7-4.5 6.9-7l11.1 6.1c-2 2.4-3.7 5.2-6.1 7.4zm6.3-7.5l-11.1-6.1.4-.5c2-2.3 3.9-4.8 5.7-7.4l11.3 6.1c-1.8 2.5-3.7 5-5.7 7.4l-.6.5"/><path class="st0" d="M338.5 211.8l-9.6-13c2-2.8 4.9-7.4 6.6-10.5l18.8-1.5c-1.7 3.2-13.8 22.1-15.8 25z"/><path class="st0" d="M346.3 195.1l-11.1-6.1c2-3.7 3.7-7.5 5.2-11.5l12.4 5.9c-1.5 3.9-3.5 8.5-5.5 12.2"/><path class="st0" d="M350.1 187.1l-10.3-8.5c1.1-2.8 2.3-6.7 3-9.7 0-.2.6-3 3-3.7l13.5 6.2c0 .2-5.3 3.4-5.4 3.6-.7 2.9-1.1 6.8-2.1 9.7"/><path class="st0" d="M354.2 174.4l-11-6.1c.1-.2.2-.5.3-.7l11.1 6.1c0 .3-.1.5-.4.7m.4-.7l-11.1-6.1c0-.2.2-.4.3-.6l11.1 6.1-.3.6zm.4-.6l-11.1-6.1.4-.5 11.4 6.1-.4.5"/><path class="st0" d="M355 173.1l-10.9-6.6.4-.4 11.1 6.1 1.1-.8"/><path class="st0" d="M356.2 172.6l-11.7-6.5c.2-.1.3-.3.5-.4l11.1 6.1c0 .1.4.6.1.8zm.1-.8l-11.1-6.1.7-.4 11.1 6.1-.7.4"/><path class="st0" d="M356.2 172l-11.6-6.1c.6-.6 2-.8 2.4-.9.4-.1.7-.1 1.2 0l11.1 6.1c-.4-.1-.7-.1-1.2 0-.3 0-1.4.7-1.9.9z"/><path class="st8" d="M329.6 100.4l-11.1-6.2c-1.9-1.2-3.8-2.2-5.7-3.3L324 97c1.7 1.1 3.6 2.1 5.6 3.4"/><path class="st0" d="M286.9 144.6l-9.1-7.9 70.2-10 13.6 6.4-74.7 11.5z"/><path class="st0" d="M284.4 177.2l-11.5-7.9.1-27.4 13.9.3-2.5 35z"/><path class="st0" d="M284.5 148.8L273 142c0-.6.2-1.9.5-2.5l10.9 6.7c-.2.6.6 2 .6 2.6"/><path class="st0" d="M284.5 146.2l-11.1-6.1c.2-1.2 1.6-1.9 1.7-2.1l9.8 7.5c-.2.2-.3.4-.4.7z"/><path class="st0" d="M285 145.5l-11.1-6.1c.1-.2.2-.4.3-.5l11.1 6.1c-.2.1-.3.3-.3.5z"/><path class="st0" d="M284.1 151l-10-12.1.3-.3c1.1-1.2 2.9-1.8 3.6-1.8l24.4 3.8-16.6 4.1-1.7 7.7"/><path class="st12" d="M363.5 135.9c1.2 5.8 1.8 11.7 1.8 17.7v3.4c0 1.2-.5 2.3-1.3 3.3-.7.9-1.8 1.6-3 1.8-.5.1-1.2 0-1.7-.2s-1.1-.5-1.5-.8c-.4-.4-.7-.8-.9-1.5-.2-.5-.2-1.2-.2-1.7v-3c0-4-.3-8.1-.9-12.1v-.1h-.1l-62.8 8.8h-.1v18.3h.1l37.8-5.6c.4 0 .8.1 1.3.3.1 0 .2.1.2.1l-1.7 9.1-42 5.9c-.5.1-1.1.1-1.6-.1-.5-.1-.9-.4-1.4-.7-.4-.4-.7-.8-.9-1.4-.2-.5-.3-1.1-.3-1.7v-27.4c0-1.4.4-2.6 1.4-3.7.7-.9 1.8-1.6 3-1.8l70.8-10c.9-.1 1.9.1 2.7.7.7.6 1.2 1.5 1.3 2.4z"/><path class="st0" d="M223.5 129.6l-11.1-6.1c1.9-3.5 4-6.9 6.2-10.1l17.7.9c-2.3 3.2-11 11.8-12.8 15.3z"/><path class="st0" d="M229.7 119.5l-11.1-6.1c2.1-3 4.4-6 6.9-8.7l14.8 1.5c-2.5 2.7-8.5 10.3-10.6 13.3"/><path class="st0" d="M236.7 110.7l-11.5-5.6c2.4-2.7 5.4-6 8.1-8.4l18.3 2c-2.7 2.5-12.5 9.2-14.9 12z"/><path class="st0" d="M244.5 102.8l-11.1-6.1c2.9-2.6 6.1-5 9.4-7.4l11.1 6.1c-3.4 2.3-6.5 4.8-9.4 7.4z"/><path class="st0" d="M252.4 97.8l-9.9-8.4c3.9-2.7 8.2-5.2 12.5-7.2l13.9 5.3c-4.5 2-12.7 7.6-16.5 10.3z"/><path class="st0" d="M267 89.2l-12.1-6.9c7.2-3.4 14.7-5.7 22.5-6.8 8.4-1.4 17.1-1.1 25.4.9l11.1 6.1c-8.3-2-16.9-2.3-25.4-.9-7.8 1.2-14.2 4.2-21.3 7.6"/><path class="st0" d="M311.9 82.6l-14-7.3c1.3.3 4.2.6 9.1 1.8 2.6.9 15.1 4.8 23.7 11.6l9.1 6.7c-2.5-1.3-19.6-10.9-22.2-11.8-1.2-.3-2.4-.7-3.6-1.1"/><path class="st12" d="M362.4 176.3c-3.9 15.1-11.3 29.2-21.6 41-13.4 16-32 26.5-52.5 29.8-13.8 2.2-28-.2-40.3-6.7a64.44 64.44 0 01-28.3-29.4c-5.3-10.6-7-22.9-7-36-.2-14.8 2.9-29.4 9.4-42.7 13.1-26.5 38.2-46.7 66.6-50.7 9.7-1.7 19.6-.9 28.9 2 7.4 2.8 14.5 6.4 21 10.8.5.3.9.7 1.3 1.3.4.6.5 1.2.5 1.8.1 1.4-.3 2.7-1.2 3.8l-19.1 24.5c-1.2 1.2-1.9 1.7-3.2 1.9-.5.1-1.1 0-1.6-.1s-.9-.4-1.4-.7c-.8-.8-1.3-2-1.4-3.2 0-1.2.4-2.3 1.2-3.3l15.7-19.9.1-.1-.1-.1c-4.8-3.2-10.1-5.7-15.5-7.7-8.2-2.6-17-3.2-25.6-1.7-25.2 3.4-47.3 21.2-59.1 44.9-5.7 11.9-8.4 24.8-8.2 38 0 12.1 1.7 22.9 6.1 31.9 5.4 11.3 14.1 20.4 25.1 26.2s23.6 7.9 35.9 5.9v-.1.1c18.2-2.9 34.8-12.3 46.7-26.4 9.1-10.5 15.7-23 19.1-36.5.2-.9.7-1.9 1.5-2.6.7-.7 1.7-1.2 2.6-1.4.3-.1.7-.1 1.2 0s1.1.3 1.6.7c.4.3.8.7 1.2 1.3.3.5.4 1.1.5 1.6.2.7.1 1.3-.1 1.8z"/><path class="st1" d="M284.2 116.1l-7.5-9.7c5.5-.8 11-.5 16.4.8l11.3 6.1c-5.4-1.3-14.7 2.1-20.2 2.8z"/><path class="st1" d="M299.5 112.5l-6.2-5.2c2.5.6 5 1.6 7.4 2.7l11.1 6.1c-2.3-1.1-9.8-3-12.3-3.6z"/><path d="M304.4 113.4c-38.2-8.8-57.3 29.8-57.3 29.8l-.1.1-.1-.1-16.2-9.8c-1.7 3.3-2.3 4.6-3.6 8l16.2 11.1h.1v.1c-1.9 5.8-2.8 11.8-2.8 17.8h0c0 4.3.5 8.7 1.6 12.9v.1h0l-17 16.1c.6 2.4 2.3 6.7 4.1 9.7l16.1-17 .1-.1.1.1.2.3h0c3.7 7.8 9.8 14.2 17.5 18.2 7.6 4 16.3 5.5 24.8 4.2h0c9.8-1.5 18.9-5.7 26.4-12.2l.1-.1h.1l17.8 11.8h0s.1.1.2 0c.1 0 .2-.1.4-.3.3-.3.8-.7 1.4-1.5.5-.5 1.1-1.3 1.7-2 .1-.1.2-.2.3-.4.7-.9 1.6-2.2 2.5-3.3l-17.5-11.5-.1-.1.1-.1c2.9-3.7 5.5-7.7 7.6-12h0c2.3-4.6 4.1-9.5 5.5-14.4h0c.2-.5.2-1.1.2-1.7-.1-.5-.2-1.1-.5-1.6s-1.2-1.6-2.9-1.6l-4.2.6c-.2.8-.3 1.4-.4 1.7-.1.5-.1.6-.3 1.3h0c-1.2 4.2-2.6 8.3-4.6 12.3-1.9 3.8-4.2 7.5-6.8 10.7h0c-.8 1.1-1.8 2-2.7 2.9-6.4 6.4-14.8 10.6-23.9 12-6.9 1.2-14.2-.1-20.4-3.4-6.3-3.3-11.3-8.5-14.3-14.9-.8-1.7-1.5-3.4-2.1-5.2h0c-1.3-4.2-2-8.5-1.9-12.9h0c0-6 1.3-12 3.6-17.7l1.7-4c6.6-13.4 19.2-23.6 33.6-25.7 4.5-.7 9.1-.4 13.6.7 4.4 1.2 8.5 3.3 12.1 6.2.4.3.8.5 1.4.6.2.1.3.1.4.1h.5c.3 0 .6-.2 1.1-.4s.7-.5 1.1-.8h0l1.3-1.3c.6-.6 1.8-1.8 2.9-3.6-1.5-1.2-2-1.6-2.2-1.7h0l-.2-.2-.3-.3-.1-.1c-5.4-3.2-10.5-5.9-15.9-7.4M245 192.3h0" fill="#b4d1fa" stroke="#000" stroke-width=".2"/><path class="st1" d="M311.9 116.1l-11.1-6c.5.2.9.4 1.5.7l11.1 6.1c-.6-.2-1.1-.4-1.5-.8"/></svg>