<svg version="1.1" id="Слой_1" xmlns="http://www.w3.org/2000/svg" x="0" y="0" viewBox="0 0 470 270" xml:space="preserve"><style>.st0{fill:#40689d}.st1{fill:#9a384b}.st3{fill:#882f40}.st6{fill:#d6516b;stroke:#000;stroke-width:.1}</style><path class="st0" d="M208.3 48.2l-9-12.4c7.9-1.1 15.9-.7 23.6 1.2l14.1 7.7c-7.7-2-16.5 1.1-23.6-1.2M178.1 185l-15.3-8.2c-19-10.4-31.6-31.6-31.6-57.9 0-9.9 1.8-19.7 5.2-29l21-1.6c-3.4 9.3-7.8 28.1-7.8 38 0 26.2 9.5 47.3 28.5 57.7"/><path class="st0" d="M147.9 127l-11.5-37c1.5-3.9 3.3-7.8 5.3-11.5l18.3 3.7c-2 3.7-4.3 15-5.7 18.9"/><path class="st0" d="M155.7 86.2l-14-7.7c1.7-3.1 3.5-6.1 5.5-9l33.9-10c-2 2.9-23.7 23.6-25.4 26.7"/><path class="st0" d="M161.2 77.2l-14.1-7.7c1.9-2.7 4-5.3 6.2-7.8l23.5 2.2c-2.2 2.5-13.6 10.6-15.6 13.3"/><path class="st0" d="M167.4 69.4l-14.1-7.7c2.2-2.5 4.6-4.8 7.1-7l14.1 7.7c-2.4 2.2-4.8 4.6-6.9 7"/><path class="st0" d="M174.3 62.4l-14-7.7c2.6-2.3 5.4-4.5 8.2-6.5l14.1 7.7c-2.9 2-5.6 4.2-8.3 6.5"/><path class="st0" d="M162.8 76l5.6-27.9c3.5-2.4 7.2-4.6 11.1-6.4l14.1 7.7c-3.8 1.8-7.6 5.7-11.2 8.1"/><path class="st0" d="M189.5 57.6l-10-15.8c6.3-3 13-5 19.9-6l14.1 7.7c-6.9 1-13.6 3-19.9 6m34.8 1L223 37c3.7 1 7.3 2.3 10.7 4l14.1 7.7c-3.4-1.7-7-3-10.7-4"/><path class="st0" d="M247.8 48.7L233.7 41c.7.3 1.4.7 2 1.1l14.1 7.7c-.7-.4-1.3-.8-2-1.1z"/><path class="st1" d="M344.3 233.5l-14.1-7.7c.1-.1.3-.3.4-.5l14.3 7.7-.4.5"/><path class="st1" d="M344.9 233l-14.9-6.7 1.5-2.5 13.9 8.4-.5.8z"/><path class="st1" d="M345.2 232.2l-14.1-7.8c.2-.3.3-.7.5-1l14.1 7.7c-.2.4-.3.7-.5 1.1"/><path class="st1" d="M345.7 231.2l-14.1-7.7c.2-.5.3-1.1.4-1.6l14.1 7.7c-.1.5-.3 1.1-.4 1.6z"/><path class="st1" d="M346.9 232.3L332 221.9l.2-1.8 14.1 7.7.6 4.5z"/><path class="st1" d="M339.1 246.9l-16.9-11.3 8.4-10.3 21.6-4.2-13.1 25.8z"/><path class="st1" d="M330 247.2l-11.2-9.2.8-.3 17.8 6.5-7.4 3z"/><path class="st1" d="M333.7 245.4l-14.1-7.7c.3-.2.7-.4 1-.6l18.8 3.2c-.3.3-5.3 4.9-5.7 5.1z"/><path class="st1" d="M334.7 244.8l-14.1-7.7.7-.6 14.2 7.7-.8.6"/><path class="st1" d="M335.6 244.2l-14.5-7.4 1.5-1.5 13.7 8.3c-.3.2-.5.4-.7.6z"/><path class="st1" d="M336.1 243.6l-14.1-7.7.2-.2 14.1 7.7-.2.2zm-8.8-14.4c6.1-5.7 4.9-9.1 4.9-9.1.2-.9.1-1.9-.2-2.8-.3-.9-1.7-2.8-2.3-3.4l15.4 5.7c.7.7.8 4.5 1.1 5.4.3.9.3 1.9.2 2.8m-15.1 18.4l-14.1-7.7 1.6-.5 14.1 7.7-1.6.5zm-4.1-.3l-14.1-7.7 14.1 7.7h-.2m.4.1l-14.1-7.7.9.3 14.1 7.6-.9-.2"/><path class="st1" d="M327.5 246.7l-13.3-8.1c.7.1 1.4.1 2 0 .3 0 .6-.1.9-.2l14.1 7.8c-.3.1-.6.2-.9.2-.7.1-1.4.1-2 0m-4.3 7.5l-15.3-7.7c-.8-.5-2-1.5-2.7-2.2l14.3 4.3c.7.7 3.5 4.4 4.4 4.8m20-30.6l-14.1-7.7-46-43.5 14.1 7.7 46 43.5z"/><path d="M298.7 179l-14.1-7.7c-.3-.3-.6-.5-1-.7l14.1 7.7c.4.2.7.5 1 .7" fill="#793e4b"/><path class="st1" d="M324.6 254.3l-18.2-9.9-46-43.5 20.9 5.7 43.3 47.7zm-34.9-80.9l-11.1-11.5c.7-.2 1.4-.4 2.1-.5 1.6-.2 3.2-.2 4.8.2 4.8 1.5 16.6 8.6 16.6 8.6-1.5-.4-6-.2-7.5 0-.7.1-1.6.4-2.3.7"/><path class="st1" d="M299.5 169.4l-14.1-7.7c.7.2 1.5.5 2.2.8l14 7.7c-.7-.3-1.4-.6-2.2-.8"/><path class="st1" d="M301.5 170.2l-14-7.8.4.2 14.1 7.7-.5-.1zm-11.8.3l-14.1-7.7 3-.9 14.1 7.7-3 .9zm-15.1 38.1l-14.1-7.7c-1.6-1.6-2.7-3.5-3.4-5.7-.7-2.1-.8-4.4-.4-6.6l14.1 7.7c-.4 2.2-.3 4.5.4 6.7s8.7 4.4 10.2 6"/><path class="st1" d="M272.5 206.1l-15.9-17.4.5-3.3 16.2 7.3-.8 13.4zm3.4-19l-14.6-10 7.7-9.6 17.2 10.6-10.3 9z"/><path class="st3" d="M284.6 177.3l-15.8-9.2-5.2-4.2 14.1 7.7 6.9 5.7zm-9.2 18l-18.3-9.9-8.8-8.3 17.2 3.6 9.9 14.6z"/><path class="st1" d="M172.6 193.4l-14.1-7.7 2.2 1.1 14.1 7.7-2.2-1.1z"/><path class="st1" d="M172.3 196.6l-11.6-9.8c3.8 1.9 7.7 3.3 11.8 4.4l21.8 10.3c-4.1-1.1-18.2-3-22-4.9z"/><path class="st1" d="M186.7 198.9l-14.1-7.7c8.6 2.2 17.5 2.6 26.3 1.4 7.5-1.1 15.6-3.4 22.5-6.7l14.7 7.6c-6.4 4.1-14.9 5.8-22.4 7h-.5c-8.8 1.3-17.8 1.2-26.3-1"/><path class="st1" d="M236 194l-14.9-7.9c4.4-2.1 8.9-4.9 12.9-7.7l22.4 4.7c-4 2.8-16 8.9-20.4 10.9z"/><path class="st1" d="M248.9 186.6l-15-8.1c3.3-2.3 6.5-4.8 9.4-7.5l15 7.6c-2.9 2.7-6 5.7-9.4 8z"/><path class="st1" d="M255.3 185.9L243.4 171c2.8-2.5 5.5-5.2 8-8.1l29.5 1.5c-2.5 2.9-22.7 19-25.6 21.5z"/><path class="st1" d="M262.7 176.5l-11.3-13.6c2.5-2.9 4.9-5.9 7.1-9l27-5.7c-2.2 3.2-20.2 25.4-22.8 28.3z"/><path class="st1" d="M274.3 162.2l-15.8-8.3c2.3-3.4 4.5-6.8 6.4-10.4l15.8 8.3c-1.9 3.6-4.1 7-6.4 10.4z"/><path class="st1" d="M277.1 163.1L265 143.5c2.3-4.3 4.3-8.7 5.9-13.3l21.7 1.1c-1.6 4.6-13.2 27.5-15.5 31.8z"/><path class="st1" d="M286.2 139.8l-15.3-9.6c3.9-10.4 5.9-21.4 6-32.5.2-29.5-13.7-53.2-34.9-64.8l14.9 6.5c21.2 11.6 36 35.6 35.8 65.1-.1 11.1-2.6 24.9-6.5 35.3zm-117.3 61.5l-14.6-7.7-1.8-1c-.8-.5-1.3-1.3-1.6-2.2s-.4-2.3.6-3.8l15.8 8.1c-.4.9-.5 1.8-.2 2.8.3.9-.3 1.9.5 2.5l1.9.2"/><path class="st1" d="M165.3 195.3l-14.3-7.2c0-1 .5-1.5.5-1.5l14.1 8.1c-.2.1-.3.4-.3.6z"/><path class="st1" d="M165.4 194.6l-14.1-7.7c.7-1.4 1.1-1.2 1.2-1.4l13.4 8-.5 1.1v.2-.2z"/><path class="st1" d="M165.7 194.1l-14.1-7.7c.1-.2.2-.3.3-.5l14.1 7.7c.1.1-.1.3-.3.5z"/><path class="st1" d="M166.1 193.6s-16.3-4.3-14.1-7.7c.5-.8 2.1-1.3 2.1-1.3l12.4 8.6-.4.4"/><path class="st1" d="M166.5 193.2l-14.1-7.7.5-.4 14.1 7.7-.5.4"/><path class="st1" d="M167 192.8l-14.1-7.7c.2-.2.4-.3.7-.4l14.1 7.7-.7.4z"/><path class="st1" d="M164.9 195.9l-11.3-11.1c.4-.2.8-.3 1.2-.4.4-.1.9-.1 1.4 0l15.1 8.1c-.4-.1-1.9-.5-2.4-.4-.5 0-3.6 3.6-4 3.8z"/><path class="st1" d="M170.2 192.1l-14.2-7.7.6.2 14.1 7.7-.5-.2m.6.3l-14.1-7.7 14.1 7.7zm21.3-155.7l9-19.4h.8c9.6-1.4 19.7-.9 29.2 1.6l14.9 8c-9.4-2.4-19.7-2.4-29.3-1h-.9"/><path class="st1" d="M245 27.5l-15.1-9c4.5 1.2 9.8 3.1 14 5.2l14.1 7.7c-4.2-2.1-8.5-2.8-13-3.9zm12.9 3.8l-14.1-7.7 2.5 1.3 14.1 7.7-2.5-1.3zM143.6 177.6l-14.2-7.7c-.5-.3-.9-.7-1.2-1.2-8.5-14.1-12.8-30.3-12.4-46.7.1-12.2 2.4-24.4 6.6-35.8l14.1 7.7c-4.3 11.5-5.1 23.8-5.2 36-.4 16.4 4.3 30.5 12.7 44.5.3.5-1.1 2.8-.6 3.1"/><path class="st1" d="M135 98.6l-12.7-12.4c1.8-5 4-9.9 6.6-14.6l16 7.9c-2.5 4.7-5.5 12.1-7.4 17.1"/><path class="st1" d="M143 83.7l-14.1-12.1c2.1-4 4.5-7.9 7.1-11.6l16.3 8.1c-2.6 3.7-6 7.8-8.2 11.8"/><path class="st1" d="M149.3 74.8L136 60c2.4-3.5 5-6.8 7.8-10l21.2 5.5c-2.8 3.2-10.9 9.8-13.3 13.3"/><path class="st1" d="M157.9 57.8l-14.1-7.7c2.8-3.1 5.7-6.1 8.8-8.9l19.8 8.3c-3.1 2.8-11.7 5.2-14.5 8.3"/><path class="st1" d="M164.8 53.6l-12.2-12.4c3.3-3 6.8-5.7 10.5-8.3l14.1 7.7c-3.7 2.5-4.9 9.5-8.3 12.5"/><path class="st1" d="M169.6 48.9l-6.5-16c4.4-3.1 9.1-5.8 13.9-8.1l36.1 1.7c-4.9 2.3-34 16.4-38.4 19.5"/><path class="st1" d="M191.1 32.5L177 24.8c7.6-3.6 15.7-6.1 24-7.4l14.1 7.7c-8.3 1.3-16.4 3.8-24 7.4"/><path d="M346.4 227.7c0-.9.1-1.9-.2-2.8-.3-.9-.8-1.8-1.5-2.5h0l-46-43.5h0c-.6-.5-1.3-.9-2-1.1-.7-.2-1.5-.2-2.2-.1-.3 0-.6.1-.9.2h0L290 179h0l-10.9 13.3h0l-.6 4h0c-.2 1-.1 1.9.2 2.9.3.9.8 1.8 1.5 2.5h0l46 43.3c.6.5 1.2.9 2 1.2.7.2 1.5.3 2.3.2 7.2-1 16.1-13.6 15.9-18.7zm-132.8-27.2c42.4-6.4 77.1-49 77.6-95s-33.4-77.9-75.4-71.9h-.7 0c-42.4 6.5-77 49-77.4 95-.3 14.9 3.6 29.6 11.3 42.4.5 1 .7 2.2.5 3.3s-.8 2.1-1.7 2.8h0c-.6.5-1.3.8-2.1.9h0c-.6.1-1.3.1-1.8-.2-.6-.3-1.1-.7-1.4-1.3h0c-8.4-14-12.7-30.1-12.4-46.5h0c.4-50.9 38.5-97.7 85.2-104.7h.9c46.2-6.7 83.2 28.6 82.8 78.9-.3 20.7-6.5 40.8-17.7 58.2v.1l.1.1 8.5 8h.1l3.1-.9h0c.7-.2 1.4-.4 2.1-.5h0c1.7-.2 3.5-.1 5.2.4s3.2 1.4 4.5 2.6h0l45.8 43.4h0c1.6 1.6 2.8 3.5 3.4 5.7.7 2.1.8 4.4.4 6.6h0l-.2 1.8h0c-.5 3.4-1.8 6.6-4 9.3h0l-7.8 9.1-.3.4c-2 2.6-4.8 4.4-7.9 5.4h0l-1.6.5h0c-.7.2-1.4.3-2.1.4h0c-1.7.3-3.5.2-5.1-.4-1.7-.5-3.2-1.4-4.5-2.6h0l-45.9-43.4h0c-1.6-1.6-2.7-3.6-3.4-5.7-.7-2.1-.8-4.4-.4-6.6h0l.5-3.3v-.1h0l-8.8-8.3-.1-.1-.1.1c-13.5 12.7-31.2 21.2-49.4 24.3h0c-16 2.5-32.3-.5-46.4-8.6-.9-.6-1.5-1.6-1.6-2.7-.2-1.1.1-2.2.7-3.1h0c.3-.6.8-1.1 1.4-1.5s1.2-.7 1.9-.8 1.5 0 2.1.4h0c12.1 7.5 27.6 10.3 42.1 8.1m56.9-20.3h0v.1l4.9 4.6.1.1.1-.1 7.1-8.7.1-.1-.1-.1-4.8-4.4-.1-.1-.1.1-7.2 8.6h0z" fill="#e87891" stroke="#000" stroke-width=".2"/><path class="st0" d="M181.3 176.3l-14.1-7.7 1.8.9 14.1 7.7-1.8-.9"/><path class="st0" d="M175.7 178.6l-6.8-9.1c3 1.5 8.7 3.3 11.9 4.1l14.1 7.7c-3.1-.8-16.4-.3-19.2-2.7z"/><path class="st0" d="M184.6 183.4l-6.2-10.4c6.8 1.7 13.8 2.1 20.7 1.1 6.1-.9 12-2.6 17.6-5.3l29.2 3.1c-5.6 2.6-25.1 16-31.2 16.9-6.9 1-15.6-2.1-22.4-3.8"/><path class="st0" d="M230.8 176.5l-14.1-7.7c3.4-1.6 6.6-3.5 9.6-5.6l14.1 7.7c-3 2.1-6.3 4-9.6 5.6"/><path class="st0" d="M235.1 180.7l-8.8-17.5c2.5-1.8 4.9-3.7 7.2-5.7l34.7-8.3c-2.3 2.1-25.3 20-27.8 21.8"/><path class="st0" d="M247.7 165.2l-14.1-7.7c2.2-1.9 4.2-4 6.2-6.2l20.8.1c-2 2.1-10.8 11.8-12.9 13.8"/><path class="st0" d="M253.8 159l-14.1-7.7 1.8-2.1c1.2-1.5 2.4-3.1 3.6-4.7l14.1 7.7c-1.1 1.6-2.3 3.1-3.6 4.7l-1.8 2.1z"/><path class="st0" d="M254.1 160.4l-9.1-16c1.8-2.5 3.4-5.2 4.9-7.9l20.6.7c-1.5 2.7-9.6 12.4-11.4 14.9"/><path class="st0" d="M264 144.2l-14.1-7.7c1.7-3.3 3.6-7.4 4.8-10.9l14 8.5c-1.3 3.5-2.8 6.8-4.5 10.1"/><path class="st0" d="M268.7 134.1l-7.8-2.3-6.5-5.5c3-8.1 4.8-16.7 4.8-25.4.2-13-3.7-25.7-11.3-36.3-.4-.6-.7-1.3-.8-2.1-.1-.7-.2-2.3.8-3.3l13.6 8.8c-.3.7-.4 1.4-.4 2.1s.3 1.4.7 2.1c7.6 10.6 11.5 23.3 11.3 36.3.1 8.8-1.4 17.5-4.4 25.6z"/><path class="st0" d="M261.4 68.1l-14.1-7.7c.1-.2.2-.5.3-.7l14.1 7.7c-.1.2-.2.5-.3.7zm.4-.7l-14.1-7.7.3-.6 14.1 7.7c-.1.3-.2.4-.3.6"/><path class="st0" d="M262.1 66.9L248 59.2c.1-.2.2-.3.4-.5l14.2 7.7-.5.5"/><path class="st0" d="M262.5 66.4l-14.1-7.7.4-.4 14.1 7.8-.4.3"/><path class="st0" d="M262.9 66.1l-14.1-7.7.5-.4 14.1 7.7-.5.4z"/><path class="st0" d="M260.9 72.2l-11.6-14.3c.2-.1.4-.3.7-.4l16.9 8.7-6 6z"/><path class="st0" d="M263.4 67.7L250 57.5c.4-.2.8-.3 1.2-.4.5-.1 1-.1 1.4 0l14.8 8.1c-.5-.1-1 .4-1.5.5s-2.2 1.9-2.5 2z"/><path class="st0" d="M266.7 64.9l-14.1-7.7c.2 0 .4.1.6.2l14.1 7.7c-.2-.1-.4-.1-.6-.2zm.6.2l-14.1-7.7 14.1 7.7"/><path d="M213.5 43.6h0c-37.6 5.3-68 42.6-68.1 83.1-.1 40.6 30.5 69.1 68 63.8 37.5-5.3 68-42.5 68-83.1h0c.3-14.8-4.2-29.2-12.8-41.2-.4-.5-.9-.8-1.5-1s-1.2-.2-1.8-.1h0c-.9.1-1.7.6-2.4 1.2h0c-.8.7-1.4 1.8-1.6 2.9s0 2.2.6 3.2c7.6 10.6 11.5 23.4 11.3 36.4h0s0 24.1-17.6 48.3c0 0-17.2 21.8-42.3 25.9s-48-13.9-53.1-28.2c-5.1-14.4-9.6-17-4.4-47.7s33.6-45.6 33.6-45.6 16.3-10.9 35.2-9.5c14.6 1.1 21.2 5.4 23.4 7.4 1 .8 2.2 1.4 3.5 1.5 2.4.2 5.9-1.9 4.3-5.6.1-.2-8.7-15.5-42.3-11.7h0z" fill="#b4d1fa" stroke="#000" stroke-width=".2"/><path class="st3" d="M226.2 143.7l-4-2.1c.3 0 .5-.1.8-.2l4 2.1c-.3 0-.5.1-.8.2"/><path class="st3" d="M227 143.4l-4.1-1.5c.1-.1.8-.8.9-.8l3.6 2.1c-.2.1-.3.2-.4.2"/><path class="st3" d="M227.4 143.2l-4.7-1.7c1-.4 1.4-.5 1.5-.6l3.5 2c-.1.2-.2.2-.3.3z"/><path class="st3" d="M224.4 145.6l-2.1-4.1c2-.3 2.2-2.1 2.3-2.2l4.5 3.7c-.1.1-3.1 2.1-3.2 2.2"/><path class="st3" d="M228 142.7l-4-2.1c.1-.1.2-.2.2-.3l4 2.1c-.1.1-.1.2-.2.3"/><path class="st3" d="M228.2 142.4l-4-2.1c.1-.1.1-.2.2-.3l4 2.1c-.1.1-.1.2-.2.3zm.2-.3l-4-2.1c.1-.1.1-.3.2-.4l4 2.1c0 .1-.1.3-.2.4"/><path class="st3" d="M228.8 142.9l-4.6-2.5c.7-.8.7-6.7.7-7.1l4.5 6.9c.1.4-.4 2.3-.6 2.7zm-7.8 2.4l-2.3-3.3 3.6-.5 6 2.2-7.3 1.6z"/><path class="st3" d="M221.3 143.9l-4-2.1h.1l3.9 2.1z"/><path class="st3" d="M221.3 144l-4-2.1c.1.1.3.1.4.1l4 2.1c-.1 0-.2 0-.4-.1"/><path class="st3" d="M221.7 144.1l-4-2.1c.3.1.6.1.9.1l4 2.1c-.3 0-.6 0-.9-.1m8-2.8l-4.8-2.9-.1-19.9 4.6 2.4.3 20.4zm-10.1 5.7l-3.9-2.1c-.8-.5-1.5-1.2-2-2s-.7-1.8-.6-2.8l4 2.1c0 1 .5 1.7.9 2.5.4.9.8 1.8 1.6 2.3"/><path class="st3" d="M228.8 120.8l-4-2.1c0-.2 0-.4.1-.7l4.5 1.7c.1.2-.6.8-.6 1.1"/><path class="st3" d="M229 120.1l-4-2.1c0-.1.1-.2.1-.3l5 1.2s-1.1 1.1-1.1 1.2"/><path class="st3" d="M229.2 119.6l-3.9-2.1c0-.1.1-.1.1-.2l4 2.1-.2.2"/><path class="st3" d="M229.3 119.5l-4-2.1c0-.1.1-.1.2-.2l4 2.1c-.1 0-.1.1-.2.2z"/><path class="st3" d="M224.9 118.1c.1-.5.6-.9.6-.9.1-.1.3-.4.8-.4l4.9 2.2-1.1 1"/><path class="st3" d="M229.7 119.2l-3.9-2.2.3-.1 3.9 2.1-.3.2"/><path class="st3" d="M228.8 122.4l-2.8-5.5c.1-.1.3-.1.5-.1h.5l4.3 2.3c-.1 0 .1.2 0 .2h-.9c-.1 0-1.4 3-1.6 3.1z"/><path class="st3" d="M230.3 119.2l-3.3-2.4c.1 0 .2.1.2.1l4.2 2.3c-.1-.1-1 0-1.1 0zm1.2 0l-4.3-2.3 4.3 2.3zm-2.1-2.9l-3.8-2.2c-.2-.1-.4-.3-.5-.6-.1-.2-.2-.5-.2-.8l4.5 2.2c0 .3.2.3.4.5.1.2-.1.6.2.7m-25.5 32l-2-3.7c2-.3 3.6-.9 4.5-2.3l1.7 3.9c-.3.1-3.9 2.1-4.2 2.1z"/><path class="st3" d="M208.7 146l-3.9-2.1c.1-.1.3-.2.4-.2l3.9 2.1c-.1.1-.3.2-.4.2"/><path class="st3" d="M209.1 145.8l-4-2.1c.1-.1.2-.1.3-.2l4 2.1c-.1.1-.2.1-.3.2"/><path class="st3" d="M209 146l-3.5-2.4.6-.4 5.3.4c-.1.1-2 1.9-2.1 2"/><path class="st3" d="M209.7 145.3l-4.3-1.7c.4-.4.5-.6.6-.8l4 2.1c-.2.2-.2.3-.3.4z"/><path class="st3" d="M209.9 145l-4-1.7c.1-.1.5-.6.6-.7l3.7 2.2c-.1-.1-.2.1-.3.2"/><path class="st3" d="M210.1 144.6l-4.2-1.6c.1-.1.3-1 .4-1.1l3.9 2.3c.1.1 0 .3-.1.4"/><path class="st3" d="M205.6 147.2l.7-5.2c.1-.3.2-.7.2-1.1l4.8.7c0 .4-.6 5.1-.7 5.5"/><path class="st3" d="M203.5 146.9l-4-2.1 4.4-.6 6.2 2.3-6.6.4zm-.9-.2l-4-2.1h.1l3.9 2.1z"/><path class="st3" d="M202.6 146.7l-4-2.1c.1 0 .2.1.3.1l4 2.1c-.1 0-.2 0-.3-.1"/><path class="st3" d="M202.4 147.1l-3.4-2.4h.6l10 1.5c-.2 0-6.1 1.3-6.3 1.2m25.6-32.4l-4-2.2V89.3l4 2.1.6 23.5-.6.1zm-28 34.7l-4-2.1c-.7-.4-1.3-1-1.7-1.7-.4-.7-.6-1.5-.6-2.4 0-.2 0-.4.1-.7l4.2 2.1c-.1.2 0 .5 0 .7 0 .8 0 1.6.4 2.3.5.8.9 1.4 1.6 1.8"/><path class="st3" d="M198.7 146.4l-4-2.8c0-.9.4-1.2.5-1.2l5.4 1.8s-1.9 2.1-1.9 2.2z"/><path class="st3" d="M198.9 144.7l-4-2.2.1-.2 4 2.1c0 .2 0 .2-.1.3"/><path class="st3" d="M199 144.5l-4-2.1c0-.1.1-.1.1-.2l4 2.1c0 .1 0 .2-.1.2"/><path class="st3" d="M199.2 144.4l-4-2.1.2-.2 4 2.1c-.1 0-.2.1-.2.2"/><path class="st3" d="M199.3 144.2l-4.7-1.1c.1-.8 1.1-1.5 1.6-1.5l3.3 2.4-.2.2"/><path class="st3" d="M199.6 144l-3.9-2.1c.1-.1.2-.1.2-.1l4 2.1c-.2 0-.3.1-.3.1"/><path class="st3" d="M199.9 144.1l-4.1-2.3c.1-.1.3-.1.5-.1h.5l4.2 2.3h-.7c-.2-.1-.2 0-.4.1zm29.4-52.2l-4.3-2.6c0-.4-.1-.9-.3-1.3-.2-.4-.5-.7-.9-.9l4.4 1.8c.4.2.7.5.9.9.1.4.2 1.7.2 2.1z"/><path class="st3" d="M199.4 143.4l-4-2.1c-.2-.1-.4-.3-.5-.6-.1-.2-.2-.5-.2-.8l4 2.1c0 .3 0 .5.2.8.1.3.3.5.5.6zm26.9-57.7l-4-2.1c.7-.1 2 .1 2.7.3l3.3 1.9c-.7-.1-1.3-.2-2-.1"/><path class="st3" d="M228.3 85.8l-4.1-2.1c.3.1.7.2 1 .3l4 2.1-.9-.3"/><path class="st3" d="M226.4 87l-1.7-3.2.8.3 3.8 2.4c-.1 0 .6.5.6.4m-19.4 56.2l-4-2.1.1-31.7 4.5 1.6-.6 32.2z"/><path class="st3" d="M221.9 88l-3.1-3.9 3.6-.5 6.2 2.6-6.7 1.8zm-11.3 23.4l-4-2.1c0-.4-.1-.9-.3-1.3-.2-.4-.5-.7-.9-.9l3.9 2.1c.4.2 1.6.2 1.8.6.2.5-.5 1.2-.5 1.6zm8.8 35.1L213 140l.1-49.1 5.6.3.7 55.3z"/><path class="st3" d="M217.1 93.2l-3.9-2.1c0-.8.2-1.6.4-2.4l5.5.7c-.4.7-2 3-2 3.8z"/><path class="st3" d="M217.5 90.7l-4-2.1c.1-.3.3-.6.4-1l4 2.1c-.1.4-.3.7-.4 1"/><path class="st3" d="M217.9 89.8l-4-2.1c.1-.3.3-.5.5-.7l4 2.1c-.2.2-.3.4-.5.7"/><path class="st3" d="M218.4 89.1l-4-2.1c.2-.2.3-.4.5-.6l4 2.1c-.2.1-.4.3-.5.6m.5-.7l-4-2.2.6-.6 4 2.2-.6.6"/><path class="st3" d="M219.5 87.8l-4-2.1c.2-.2.4-.4.7-.5l4 2.1c-.2.1-.5.3-.7.5"/><path class="st3" d="M220.2 87.3l-4-2.1c.3-.2.6-.4.9-.5l3.9 2.1c-.2.1-.5.3-.8.5"/><path class="st3" d="M216.9 89.7l.3-5.1c.5-.2 1.1-.4 1.7-.5l3.9 2.1c-.6.1-2.1 2.3-2.7 2.5"/><path class="st6" d="M226.4 85.8l-3.6.5c-2 .4-3.1 1-4.1 2.1-1 1.2-1.5 2.8-1.5 4.4v.4l-.1 49.1c0 3.3 2.5 5.7 5.6 5.3l3.6-.5c3-.5 5.6-3.5 5.6-6.9v-19.8c0-.2 0-.4-.1-.6s-.2-.3-.3-.5c-.1-.1-.3-.2-.5-.3-.2-.1-.4-.1-.6-.1-.4.1-.8.3-1.1.6-.3.3-.4.8-.4 1.2l-.1 19.8c0 .7-.3 1.5-.7 2-.4.5-1.1 1.4-5.3 1.5-1.4 0-2.6-1.1-2.6-2.5l.4-48c0-1.6 1.1-2.9 2.7-3.2l3.9-.7c.8-.1 1.5.4 1.5 1.2l.1 24.9s.5 1 1.7.6 1.3-.9 1.5-1.3 0-9.4 0-9.4V90.7c.1.1.4-5.4-5.6-4.9"/><path class="st3" d="M208 105.7l-4.7-2c1.6-.4 2.2-.2 2.8 0l3.9 2.1c-.7-.2-1.3-.2-2-.1"/><path class="st3" d="M206.2 106.6l-.8-3.1c.3.1 1.2.3 1.5.4l4.6 2.6c-.3-.1-3.3-.4-3.6-.5"/><path class="st3" d="M210.8 106.1l-4-2.1.2.1 4 2.1-.2-.1m15.7-34.3l-4-2.1c-.2-.1-.4-.3-.5-.6l4.2 1.8c0 .3 0 .8.3.9m-22.1 34.4l-4-2.1 3.6-.5 3.9 2.1-3.5.5z"/><path class="st0" d="M226.1 65l-4-2.1c.1 0 .2.1.3.1l4 2.1c-.1 0-.2 0-.3-.1"/><path class="st3" d="M198.7 142.1l-4-2 .1-29.1 4.8-1.2-.9 32.3z"/><path class="st0" d="M224.7 65.4l-4-2.1.1-.1 3.9 2.2m.1-.1l-4-2.1c.1 0 .2-.1.2-.1l4 2.1s-.1 0-.2.1m.3-.1l-4-2.1.2-.1 4 2.1-.2.1"/><path class="st3" d="M198.7 113.1l-3.9-1.8c0-.8.2-2.1.6-3l3.7 2.3c-.2.9-.4 1.7-.4 2.5"/><path class="st3" d="M197.9 114l-2.6-5.6c.1-.5.2-.7.4-1l4 2.1c-.2.3-.3.6-.4 1"/><path class="st3" d="M199.6 109.7l-3.9-2c.1-.3.4-.7.6-1l3.9 2.2c-.3.3-.4.6-.6.8"/><path class="st3" d="M200.1 109l-4-2.1c.2-.2.3-.4.5-.6l4 2.1c-.2.1-.4.4-.5.6m.5-.7l-4-2.2.7-.7 3.9 2.1c-.2.4-.4.6-.6.8"/><path class="st3" d="M199.2 111.9l-3.3-4.7c.9-1.6 1.8-2 2.1-2.2l8.8 1.1c-.3.2-7.3 5.6-7.6 5.8z"/><path class="st3" d="M201.8 107.2l-4-2.1c.3-.2 1.4-.6 1.7-.7l5 1.9c-.2.1-2.4.7-2.7.9"/><path class="st3" d="M202.9 106.7l-4-2.1c.5-.2 1.1-.4 1.6-.5l5.7 1.9c-.5.1-2.8.4-3.3.7"/><path class="st6" d="M208 105.7c3.1-.4 5.6 1.9 5.6 5.3l-.1 31.7c0 3.3-2.5 6.4-5.6 6.9l-4.4.6c-2.6.4-4.8-1.6-4.8-4.5 0-.4.1-.9.4-1.2s.7-.6 1.1-.6c.2 0 .4 0 .6.1s.4.2.5.3.3.3.3.5c.1.2.1.4.1.6 0 .2 0 .5.1.7s.2.4.4.6c.2.2.4.3.6.4.2.1.5.1.7.1l4.4-.6c.7-.1 1.4-.5 1.9-1.1s.7-1.3.7-2.1l.1-31.7c0-.3 0-.7-.2-1-.1-.3-.3-.6-.6-.9-.3-.2-.6-.4-.9-.5s-.7-.1-1-.1l-3.6.5c-.7.1-1.4.5-1.9 1.1s-.7 1.3-.8 2.1v29c0 .4-.2.9-.4 1.2-.3.3-.7.6-1.1.6-.2 0-.4 0-.6-.1s-.4-.2-.5-.3-.3-.3-.3-.5-.1-.4-.1-.6l.1-29c0-1.6.6-3.2 1.6-4.5s2.5-2.1 4.1-2.4l3.6-.6"/><path class="st3" d="M225.7 65.8L221 63c.4-.2.8-.3 1.4-.1l3.7 2.1-.4.8z"/><path class="st3" d="M225.4 65l-4-2.1h.5l4 2.1h-.5m-.2.1l-4-2.1.2-.1 4 2.1-.2.1z"/><path class="st3" d="M224.6 65.5l-4-2.2c.3-.3.4-.4.7-.3l4.2 2.3-.9.2z"/><path class="st3" d="M221.4 69.8l-4.3-3.1 3.7-3.6 4.6 2.5-4 4.2zM179.9 111l-4-2.1c-.2-.1-.4-.3-.5-.5s-.2-.4-.2-.7c0-.3 0-.5.1-.8l6.2-.2c-.1.2-.9 2.9-.8 3.2 0 .2 0 .2.1.4.2.3-1.1.6-.9.7"/><path class="st3" d="M179.3 109.1l-4-2.1c0-.1.1-.2.1-.3l4 2.1c0 .1 0 .2-.1.3m.1-.3l-4-2.1c0-.1.1-.1.1-.2l4 2.1c0 .1 0 .2-.1.2m.2-.2l-4-2.1c0-.1.1-.1.1-.2l3.9 2.1v.2"/><path class="st3" d="M179.7 108.5l-3.9-2.1c0-.1.1-.1.2-.1l4 2.1c-.2 0-.2 0-.3.1"/><path class="st3" d="M179.3 109.8l-4-2c.1-.1.1-1.2.9-1.7l3.9 2.1c-.1 0-.8 1.5-.8 1.6z"/><path class="st3" d="M179.2 109.3l-3.9-2.3c.2-.7 1-1.2 1.4-1.3l4.7 1.7c-.1 0-1.3.7-1.4.7"/><path class="st3" d="M180.7 107.9l-4-2.1c.1-.1.2-.1.3-.1 4.1-.9 8.1-2.3 11.9-4.2l4 2.1c-3.8 1.8-7.7 3.7-11.7 4.6-.1.1-.4-.3-.5-.3"/><path class="st3" d="M186.3 107.2l2.3-5.6c3.3-1.6 6.6-3.5 9.6-5.5l10 .2c-3 2.1-12.3 6-15.6 7.5"/><path class="st3" d="M202 98.3l-4.2-2c2.2-1.5 4.4-3.2 6.4-5l6 2.7c-1.9 1.8-5.3 4.9-8.2 4.3"/><path class="st3" d="M208.4 94.2l-4.2-2.9c1.6-1.4 3.4-3.1 4.8-4.7l8.8-1.3c-1.4 1.5-7.8 7.5-9.4 8.9z"/><path class="st3" d="M212.6 89.7l-3.8-2.9c1.3-1.4 2.5-2.9 3.6-4.5l5.1 1.8c-1.2 1.5-3.7 4.1-4.9 5.6z"/><path class="st3" d="M216.9 84.8l-4.6-2.3c1.1-1.6 2.1-3.5 3.1-5.2l4.7 2.3c-1 1.7-2.1 3.6-3.2 5.2z"/><path class="st3" d="M219.5 83l-4.1-5.7c1.1-2 2-4.1 2.8-6.2l4.9 2.7c-.8 2.1-2.8 6.9-3.9 8.9"/><path class="st3" d="M221.1 77.8l-2.9-6.7c.2-.6.4-1.3.7-1.9l4.4 1.8c-.4.7-2 6.2-2.2 6.8z"/><path class="st3" d="M221 71.6l-3.9-2.1c-.2-.1-.3-.2-.4-.4-.2-.2-.3-.5-.3-.8s.1-.6.2-.8l6.7.2c-.1.3-3 2.5-2.9 2.8 0 .3.1.5.3.8 0 .1.1.2.3.3"/><path class="st3" d="M220.5 69.6l-3.9-1.9c0-.1.2-.6.2-.7l6.6 1.3c.1.1-2.9 1.2-2.9 1.3z"/><path class="st3" d="M220.6 69.4l-4.1-.7c-.2-.7.1-1.4.5-1.8l3.7 2.3s0 .1-.1.2"/><path class="st3" d="M220.8 69.2l-4.2-1.8c.1-.2-.1-.3 2.2-2.3l2.1 3.9-.1.2"/><path class="st6" d="M221.3 71.6c-.2-.1-.4-.2-.5-.4-.2-.4-.3-.8-.3-1.2.1-.4.3-.8.6-1.1l3.6-3.4.2-.1c.1-.1.3-.2.5-.3l.2-.1h.7c.1 0 .2.1.3.1l.1.1c.1.1.2.2.3.4l.1.2 1.7 3.6c.2.4.2.8.1 1.3-.1.4-.4.8-.8 1-.2.1-.4.2-.7.3-.3 0-.5 0-.8-.1-.2-.1-.4-.3-.5-.6l-.1-.1v.1c-7.6 25.4-32.3 37.2-45 39.9h-.6c-.2 0-.4-.1-.5-.3-.2-.1-.3-.3-.4-.4-.1-.2-.1-.4-.1-.6 0-.4.1-.9.4-1.2.3-.4.6-.6 1-.7 11.8-2.6 34.7-13.4 42.1-36.6l.1-.2-.1.1c-.2.2-.5.3-.8.3-.4.1-.6.1-.8 0z"/><path class="st3" d="M188.6 149l-4-2.1c.3 0 .5-.1.7-.2l4 2.1c-.2 0-.5.1-.7.2"/><path class="st3" d="M184.6 146.8l.8-.2c.1-.1.3-.1.4-.2l4 2.1c-.1.1-.3.2-.4.2"/><path class="st3" d="M189.7 148.5l-4-2c.1-.1.6-.5.7-.5l3.6 2.3s-.1.1-.3.2"/><path class="st3" d="M190.1 148.3l-4-2.1.3-.3 3.9 2.1c-.1.1-.2.2-.2.3"/><path class="st3" d="M190.3 148l-3.9-2.1c.1-.1.2-.2.2-.3l4 2.1-.3.3"/><path class="st3" d="M185.9 152l.7-6.4c.1-.1.2-.2.2-.3l5.1 2c-.1.1-5.9 4.6-6 4.7z"/><path class="st3" d="M190.8 147.4l-3.9-2.1c.1-.1.1-.3.2-.4l4 2.1c-.2 0-.3.2-.3.4"/><path class="st3" d="M191.7 147.8l-5.1-2.2c.4-.4.6-1.6.6-1.9l4 2.1c0 .4.9 1.1.7 1.4m-6.3 3.7l-4.5-3.6 3.6-.5 4 2.1-3.1 2z"/><path class="st3" d="M183.6 149.2l-3.9-2.1h.1l3.8 2.1"/><path class="st3" d="M183.2 149.4l-3.4-2.2c.1.1.3.1.4.1l3.9 2.1c-.2 0-.3-.1-.4-.1"/><path class="st3" d="M184.1 149.4l-3.9-2.1c.3.1.6.1.9 0l4 2.2c-.4 0-.7 0-1-.1m-2.1 2.9l-4-2.1c-.8-.5-1.5-1.2-2-2s-.7-2.2-.6-3.2l4 2.5c0 1 .2 1.9.6 2.8.4.8 1.1 1.5 2 2m9.9-2.6l-4.7-6V119l4.6-1.1.1 31.8z"/><path class="st3" d="M191.2 121.1l-4-2.1c0-.4-.1-.9-.3-1.3s-.5-.7-.9-.9l4 2.1c.4.2.7.5.9.9s.3.9.3 1.3m-4.5-4.7l-2-3.2c.7-.1 1.3-.1 2 .1l4 2.1c-.6-.2-1.3-.2-2-.1"/><path class="st3" d="M188.1 116.7l-1.5-3.4.9.3 4.7 2.6c-.3-.1-2.7.4-3 .4"/><path class="st3" d="M191.5 115.8l-4-2.1.2.1 4 2.1-.2-.1zm-10.7 34.7l-5.4-5.2v-20.8l5.5 1.9-.1 24.1zm3.8-34.7l-4-2.1 4.3-.6 3.5 2.2-3.8.5z"/><path class="st3" d="M179.4 126.7l-4-2.1c0-.2 0-.4.1-.7l4.9 1c-.1.2-1 1.6-1 1.8"/><path class="st3" d="M179.5 126.1l-3.9-2.2c0-.1.1-.2.1-.3l4 2.1c-.2.2-.2.3-.2.4"/><path class="st3" d="M179.6 125.8l-4-2.1c0-.1.1-.1.1-.2l4 2.1c0 .1-.1.2-.1.2"/><path class="st3" d="M175.4 124.6c-.1-.7.4-1.3.4-1.3.3-.3.6-.5 1.1-.6l4.1 2.3c-.1.1-2.1 3.7-2.2 3.8"/><path class="st3" d="M179.9 125.4l-3.9-2 .2-.2 3.9 2c-.1.1-.2.1-.2.2"/><path class="st3" d="M180 125.2l-3.7-2c.1-.1.1-.1.2-.1l3.7 2c-.1.1-.1.1-.2.1"/><path class="st3" d="M180.2 125.1l-3.9-2 .3-.1 3.9 2-.3.1zm.3-.1l-4-2.1c.2-.1.3-.2.5-.2h.5l4.2 2.3c-.2 0-.6-.2-.8-.2-.1.1-.3.1-.4.2z"/><path class="st3" d="M180.7 125.4l-3.3-2.6c.1 0 .2 0 .2.1l4 2.1c0-.1-.1-.1-.2-.1m-1.3-1.1l-4-2.1c-.2-.1-.4-.3-.5-.6-.1-.2-.2-.5-.2-.8 0-.8.1-1.6.4-2.3l4 2.1c-.3.7-.4 1.5-.4 2.3 0 .3 0 .5.2.8.1.3.3.5.5.6"/><path class="st3" d="M179.7 121.4l-3.8-3.3c.1-.3.3-.6.4-.9l7.1-1.2c-.2.3-3.5 3.9-3.6 4.3"/><path class="st3" d="M180.2 119.3l-4.5-1.1c.1-.2.8-1.4 1-1.7l6.6-.4c-.2.2-3 3-3.1 3.2"/><path class="st3" d="M180.6 118.6l-4-2c.1-.2.5-.8.7-1l3.7 2.4c0 .2-.2.4-.4.6"/><path class="st3" d="M179 120.1l-1.8-4.3.6-.6 7.4.5c-.2.2-3.8 2-4 2.2"/><path class="st3" d="M181.7 117.4l-3.9-2.2c.2-.2.4-.4.7-.5l7.6.8c-.3.2-4.2 1.7-4.4 1.9"/><path class="st3" d="M182.4 116.9l-4.1-2.1c.3-.2.8-.5 1.1-.6l3.9 2.3c-.4 0-.7.2-.9.4"/><path class="st3" d="M181.7 118.9l-2.5-4.7c.5-.2 1-.4 1.6-.5l6.3 2c-.6.1-2.8 1.2-3.3 1.4"/><path class="st6" d="M188.6 115.4c3.1-.4 5.6 1.9 5.6 5.3v24.7c0 3.3-2.5 6.4-5.6 6.9l-3.6.5c-3.1.4-5.6-1.9-5.6-5.3v-20.8c0-.4.1-.9.4-1.2.3-.3.7-.6 1.1-.6.2 0 .4 0 .6.1s.4.2.5.3c.1.1.3.3.3.5.1.2.1.4.1.6v20.8c0 .3 0 .7.2 1 .1.3.3.6.6.9.3.2.6.4.9.5.3.1.7.1 1 .1l3.6-.5c.7-.1 1.4-.5 1.9-1.1s.7-1.3.8-2.1v-24.7c0-.3 0-.7-.2-1-.1-.3-.3-.6-.6-.9-.3-.2-.6-.4-.9-.5-.3-.1-.7-.1-1-.1l-3.9.5c-.7.1-1.3.5-1.7 1s-.7 1.2-.7 1.9c0 .4-.1.9-.4 1.2-.3.3-.7.6-1.1.6h-.6c-.2-.1-.4-.2-.5-.3-.1-.1-.3-.3-.3-.5-.1-.2-.1-.4-.1-.6 0-1.5.5-3.1 1.5-4.3 1-1.2 2.4-2 3.9-2.3l3.8-.6z"/></svg>