<?xml version="1.0" encoding="utf-8"?>
<!-- Generator: Adobe Illustrator 24.0.0, SVG Export Plug-In . SVG Version: 6.00 Build 0)  -->
<svg version="1.1" id="Слой_1" xmlns="http://www.w3.org/2000/svg" xmlns:xlink="http://www.w3.org/1999/xlink" x="0px" y="0px"
	 viewBox="0 0 600 250" style="enable-background:new 0 0 600 250;" xml:space="preserve">
<style type="text/css">
	.st0{fill:#9A384B;}
	.st1{fill:#40689D;}
	.st2{fill:#882F40;}
	.st3{fill:#E87891;stroke:#000000;stroke-width:0.25;}
	.st4{fill:#B4D1FA;stroke:#000000;stroke-width:0.25;}
	.st5{fill:#5E6D82;}
	.st6{fill:#2F527F;}
	.st7{fill:#285EA4;}
	.st8{fill:#793E4B;}
	.st9{fill:#7D414E;}
	.st10{fill:#824351;}
	.st11{fill:#874654;}
	.st12{fill:#E87891;stroke:#000000;stroke-width:0.2;}
	.st13{fill:#B4D1FA;stroke:#000000;stroke-width:0.2;}
</style>
<path class="st0" d="M312.4,240.1l-11.1-6.1c-12-6.6-21.7-16.8-27.7-29.2c-5.2-10.6-7-23-7-36c-0.1-11.7,1.8-23.3,5.8-34.3l11.1,6.1
	c-3.9,11-5.9,22.6-5.8,34.3c0,13,2.3,24.9,7.6,35.5C291.2,223,300.3,233.6,312.4,240.1z"/>
<path class="st0" d="M282.7,142.4l-10.4-8.1c1.1-2.8,2.3-5.7,3.7-8.4c0.4-0.9,2.5-4.2,2.9-5l11.7,6.4c-0.5,0.9-2.1,4.6-2.5,5.6
	c-1.4,2.7-3.6,6.1-4.6,9"/>
<path class="st1" d="M252.5,44l-11.7-6.2c0.7-0.1,2.6-0.6,3.4-0.5l12.5,6.7c-0.7-0.2-2.3-0.1-3,0"/>
<path class="st1" d="M255.3,43.6l-11.1-6.1c0.3,0.1,0.7,0.2,1.1,0.4l11.1,6.1C256,43.8,255.7,43.6,255.3,43.6z M256.4,43.9
	l-11.1-6.1h0.2l11.1,6.1H256.4z M212.2,121.3l-11.7-6.6c-4.1-13.6-4.1-28.1,0-41.6l0.6-1.9l13.1,6.5l-0.6,1.9
	c-4.1,13.6-5.6,27.7-1.5,41.2"/>
<path class="st1" d="M211.8,87.8l-10.6-16.7c0.8-2.3,3.4-8,4.5-10.2l16,6.8C220.6,70,212.6,85.4,211.8,87.8z"/>
<path class="st1" d="M169.6,3"/>
<path class="st1" d="M213.3,79.8l-5.8-20.5c1.1-1.5,2.2-2.9,3.4-4.3l19.7-1C229.3,55.4,214.3,78.3,213.3,79.8z"/>
<path class="st1" d="M222,60.9l-11.1-6.1c1.1-1.2,2.1-2.2,3.3-3.3l0.8-0.7l13,4.7l-2.7,2.1C224.1,58.7,223,59.8,222,60.9z"/>
<path class="st1" d="M226.1,56.8l-11.3-6c1.7-1.5,3.4-2.8,5.2-4.1l11.1,6c-1.8,1.3-2.1,3.2-3.8,4.6"/>
<path class="st1" d="M231.1,54.3l-11-7.7c2.6-1.8,5.3-3.4,8.1-4.7l11.1,6.1C236.6,49.4,233.7,52.5,231.1,54.3z"/>
<path class="st1" d="M222.3,61l6-19c4.2-1.9,8.5-3.5,13-4.5h0.7l11.1,6l-0.6,0.1C248,44.6,226.4,59,222.3,61z"/>
<path class="st0" d="M259.1,219l-11.4-6.5l10.2-1.5l15.2,6.7C273.2,217.7,259.1,219,259.1,219z"/>
<path class="st2" d="M254.8,227.3l-12.4-6.3c-0.9-0.5-1.6-1.3-2.1-2.2s-0.7-1.9-0.7-2.9l11.1,6.1c0,1.1,0.9,1.9,1.5,2.7
	c0.5,0.8,1.1,1.2,1.9,1.8"/>
<path class="st2" d="M251.9,224.3l-12.4-8.5l0.1-63.5l11.6,5.3L251.9,224.3z M273.6,219.6l-15.8-8.5l0.3-181.3l12.4,5.2L273.6,219.6
	z"/>
<path class="st0" d="M238.9,155.2l-8.8-10.3l17.8-2.5l11.1,6.1L238.9,155.2z"/>
<path class="st2" d="M208.5,225.6l-11.1-6.1l32.7-74.7l11.1,6.1L208.5,225.6z"/>
<path class="st0" d="M193.5,227.7l-11.1-6.1l15.2-2.6l11.4,6.5L193.5,227.7z"/>
<path class="st2" d="M186.9,236.5l-11.1-6.2c-1.3-0.7-2.2-2-2.6-3.5c-0.4-1.5-0.5-3.8,1.7-7.4l10.3,9.1c-0.6,1.4-0.4,2.2,0,3.7
	c0.4,1.5,0.6,3.3,1.9,4.1"/>
<path class="st2" d="M184.4,228.7l-11.1-6.1l0.3-0.7l11.1,6.1C184.8,228.2,184.5,228.4,184.4,228.7z"/>
<path class="st0" d="M221.3,151.3l-6.7-7.4l4.5,1.1l11.1,6.1C230.3,151.1,221.3,151.3,221.3,151.3z"/>
<path class="st2" d="M185.5,231.9l-11.9-10.1l34-70.8l11.1,6.1L185.5,231.9L185.5,231.9z"/>
<path class="st0" d="M220.7,148l-11.1-6.1l0.9,0.5l11.1,6.1L220.7,148"/>
<path class="st0" d="M221.7,148.5l-11.1-6.1c1.3,0.6,2.5,1.2,3.9,1.5l11.1,6.1C224.2,149.6,222.8,149.2,221.7,148.5z"/>
<path class="st0" d="M225.4,150l-11.1-6.1h0.3l11.1,6.1C225.8,150,225.4,150,225.4,150z M259.4,27.9l-11.1-6.1
	c4.2-0.5,8.5-0.9,12.8-0.9c0.4,0,1.5,0.1,1.9,0.3l11.4,6.2c-0.4-0.1-1.8-0.4-2.2-0.4C267.9,27,263.6,27.3,259.4,27.9z"/>
<path class="st0" d="M273.6,27.1L262.5,21l0.9,0.3l11.1,6.1C274.6,27.4,273.6,27.1,273.6,27.1z"/>
<path class="st0" d="M274.6,27.5l-11.1-6.1h0.2l11.1,6.1H274.6z"/>
<path class="st2" d="M216.3,156l-11.1-6.1c-10.3-5.6-22.3-19.1-24.5-44.8L196,110C198.4,135.7,206,150.4,216.3,156z"/>
<path class="st0" d="M191.7,111.2l-11.1-6.1l8.1-2l11.1,6.1L191.7,111.2z M192,88.3l-11.1-6.2c0.5-5.4,1.8-10.7,3.7-15.9l13.8,4.4
	C196.3,75.9,192.5,82.8,192,88.3"/>
<path class="st0" d="M195.6,72.5l-11.1-6.1c0.9-2.6,2.1-5.3,3.5-7.7l11.1,6C197.8,67.2,196.6,69.9,195.6,72.5z"/>
<path class="st0" d="M194.5,73.6l-6.6-14.8c1.1-2.1,2.3-4,3.7-6l15.4,0.7C205.7,55.4,195.7,71.6,194.5,73.6z"/>
<path class="st0" d="M202.7,58.8l-11.1-6.1c1.3-1.8,2.7-3.6,4.2-5.3l16.2,0.9C210.5,50.1,204.1,56.9,202.7,58.8z"/>
<path class="st0" d="M206.9,53.5l-12.2-4.8c1.8-2.3,5.6-6.1,7.4-7.7l12.5,6.3c-1.8,1.6-6.2,6.4-7.9,8.2"/>
<path class="st0" d="M212,48.3l-10.6-6.7c2.2-2,6.1-4.7,9.5-6.6l8.2,8C216.6,44.6,214.2,46.4,212,48.3z"/>
<path class="st0" d="M219,43l-11.1-6.1c2-1.4,4-2.6,6.1-3.8c1.7-0.9,3.5-1.9,5.2-2.7L233,36c-1.8,0.8-6.1,2.2-7.9,3.3
	C223,40.2,221,41.6,219,43"/>
<path class="st0" d="M230.4,38.1l-11.3-7.8c9.3-4.2,19.8-7.3,29.8-8.6l19.1,5.4C258,28.4,239.6,33.9,230.4,38.1z"/>
<path class="st3" d="M259.4,28c4.2-0.6,8.5-0.9,12.8-0.9c0.7,0,1.5,0.2,2.1,0.4c0.6,0.3,1.3,0.7,1.7,1.3c0.5,0.5,0.8,1.2,1.1,1.8
	c0.3,0.6,0.3,1.4,0.3,2.1l-0.3,185.5c0,1.7-0.6,3.4-1.7,4.7c-1.1,1.4-2.6,2.2-4.3,2.5l-14.2,2c-0.7,0.1-1.6,0-2.3-0.2
	c-0.7-0.2-1.5-0.6-2-1.2s-1.1-1.2-1.3-1.9c-0.3-0.7-0.4-1.5-0.3-2.3v-63.6h-0.1l-4.4,0.6h-0.1v0.1l-31.1,70.8
	c-0.5,1.1-1.3,2.1-2.2,2.8c-0.9,0.7-2,1.3-3.3,1.5l-19.8,2.9c-2.2,0.3-4-0.7-5-2.4c-0.9-1.7-1.2-4.1-0.1-6.4l34-70.8v-0.1h-0.1
	c-10.7-4.7-24.4-18.3-26.9-45.8l7.9-2.1c2.6,28.2,18.1,38.9,26.1,40.8l4.4,1.1l-36.7,76.4l-0.1,0.2h0.2l14.9-2.1h0.1v-0.1l32.6-74.6
	l17.6-2.4v70.1h0.1l10.2-1.5h0.1v-0.1l0.3-181.4v-0.1h-0.1c-3.4,0.1-6.6,0.4-10,0.8c-10.9,1.5-21.7,4.8-31.3,10.1
	c-14.4,8.2-26.1,21-28.2,41.5l-7.9,0.1c2.6-24.4,16.8-40,33-49C235.8,33.4,247.4,29.6,259.4,28z"/>
<path class="st1" d="M231.7,130.9l-11.1-6.1l0.7,0.3l11.3,6C232.2,131.1,232,131,231.7,130.9"/>
<path class="st1" d="M232.3,131.5l-11-6.4c0.9,0.4,2,0.8,3,1.2l0.8,0.2l12.1,6.2h-1.8C234.4,132.3,233.3,131.9,232.3,131.5"/>
<path class="st1" d="M236.3,132.7l-11.1-6.1c3.4,0.8,6.8,0.9,10.3,0.4c1.4-0.2,4.2-0.7,5.5-1.1l10.3,6.3c-1.4,0.3-3.3,0.6-4.6,0.8
	C243.1,133.7,239.6,133.5,236.3,132.7"/>
<path class="st1" d="M252.2,132.9l-12.6-5V47.4l12.6,5V132.9z M226.9,139.5l-11.1-6.1c-6-3.3-11.4-9.1-15.2-18.7l12.7-7.5
	C218,116.7,220.9,136.2,226.9,139.5z"/>
<path class="st4" d="M253.1,43.4c0.8-0.1,1.6-0.1,2.4,0.1c0.7,0.2,1.5,0.6,2.1,1.2c0.6,0.5,1.1,1.2,1.4,2c0.3,0.7,0.4,1.6,0.4,2.3
	l-0.1,84.5c0,1.7-0.5,3.3-1.5,4.5c-0.9,1.4-2.3,2.3-3.9,2.8c-2.4,0.7-4.8,1.3-7.4,1.7c-4.8,0.7-9.8,0.4-14.5-0.9
	c-8-2.4-15.4-8.7-20.3-20.9c-4.1-13.6-4.1-28.1,0-41.6c2.6-8,7.3-15.5,13.5-21.3c7.7-6.9,17-11.9,27.2-14.1
	C252.5,43.6,253.1,43.4,253.1,43.4z M250.7,132.2l0.1-78.8c-7.6,2-14.5,5.8-20.3,10.9C225.7,69,222,74.8,220,81.1
	c-3.4,11.5-3.4,23.6,0,35c3.5,8.7,8.7,14.2,15.5,16.2c3.6,1.1,7.5,1.3,11.1,0.6C248,132.9,249.3,132.7,250.7,132.2z"/>
<path class="st5" d="M399.4,216l-11.1-6.1l-0.3-0.2l11.1,6.1C399.2,215.9,399.3,216,399.4,216z"/>
<path class="st1" d="M376.6,193.4l-11.1-6.1c6.1-6.3,7.2-9.7,7.9-10.6l5.8,14C378.1,191.8,377.3,192.6,376.6,193.4z"/>
<path class="st1" d="M379.1,190.7l-11.1-6.1l0.2-0.2c0.8-1.1,1.7-2.1,2.4-3.2l11.1,6.1c-0.7,1.1-1.6,2.2-2.4,3.2L379.1,190.7z"/>
<path class="st1" d="M379.3,190.8l-8.8-9.6c1.3-1.8,2.5-3.8,3.6-5.8l19.6-1.6c-1.1,2-10.6,12.6-11.9,14.5"/>
<path class="st1" d="M385.3,181.6l-11.1-6.1l0.8-1.7c1.1-2.2,2.1-4.5,2.9-6.7l11.1,6.1c-0.8,2.2-1.8,4.5-2.9,6.7L385.3,181.6z"/>
<path class="st1" d="M389.1,173.1l-11.3-6.1c0.6-1.8,1.3-3.7,1.7-5.5c0-0.2,0-0.3,0.2-0.5l11.4,6.1c0,0.2,0,0.4-0.2,0.5
	c-0.5,1.9-1.1,3.7-1.7,5.5"/>
<path class="st1" d="M391.1,167.1L380,161c0.1-0.2,0.2-0.5,0.3-0.7l11,6.2c-0.1,0.2-0.2,0.4-0.3,0.7"/>
<path class="st1" d="M391.3,166.5l-11.1-6.1c0.1-0.2,0.2-0.4,0.3-0.5l11.1,6.1C391.6,166.1,391.4,166.3,391.3,166.5z M391.6,165.8
	l-11.1-6.1l0.4-0.5l11.1,6.1L391.6,165.8z"/>
<path class="st1" d="M392.6,165.3l-15.1-6.7c0.4-0.2,5-1.2,5.5-1.3h1.2c0.6,0.1,0.9,0.2,1.3,0.4l0.5,0.2l11.9,6.7h-1.5
	C395.9,164.7,393.1,165,392.6,165.3L392.6,165.3z M332.2,202l-11.3-6l1.2,0.6l11.1,6.1C332.8,202.4,332.5,202.3,332.2,202"/>
<path class="st1" d="M331.4,206.2l-3.3-7.5c4.4,1.2,8.9,1.4,13.5,0.7c4-0.6,7.8-1.8,11.4-3.5l13.6,6.4c-3.6,1.7-10,4.3-14,4.8
	c-4.5,0.6-9.6-0.1-14-1.3"/>
<path class="st1" d="M364.1,202.1l-16.3-4.1c3.2-1.1,9.4-4.2,11.4-5.6l11.3,6C368.5,199.7,366.4,200.9,364.1,202.1"/>
<path class="st1" d="M366.6,205.4l-7.4-13c1.7-1.2,3.2-2.3,4.6-3.7l19.1,1.5c-1.5,1.4-5,6.7-6.7,7.9"/>
<path class="st1" d="M375.1,194.8l-11.1-6.1l5.5-5l7.2,9.9L375.1,194.8"/>
<path class="st6" d="M379.9,129.3l-12-6.2c-0.2-0.1-0.4-0.2-0.5-0.3c-1.5-1.3-3.2-2.4-4.9-3.4l11.3,5.7c1.8,0.9,4.1,2.5,5.7,3.8
	C379.6,129.1,379.7,129.2,379.9,129.3z M327.8,210.4l-11.6-6c-7.5-4.1-13.5-10.4-17.1-18.1c0-0.1-0.1-0.2-0.2-0.3l13.6,2.4l1.7,2.7
	C317.8,198.8,320.4,206.3,327.8,210.4L327.8,210.4z"/>
<path class="st1" d="M290.5,200.2l-11.1-6.1l16.4-16.8l14,5.5L290.5,200.2z"/>
<path class="st6" d="M308.1,184l-12.3-6.7c-1.1-4.2-1.6-8.5-1.6-12.9c0-6.1,1.1-12.2,2.9-17.9l12.2,4.4c-1.9,5.8-2.5,13.8-2.5,19.8
	C306.8,174.9,307,179.7,308.1,184L308.1,184z"/>
<path class="st1" d="M312.1,143.4l-11.1-6.1l0.9-1.8l11.7,5.9L312.1,143.4L312.1,143.4z"/>
<path class="st1" d="M312.7,142.2l-11.1-6.1c1.2-2.2,2.4-4.3,3.9-6.3l11.1,6.1C315.1,138,313.8,140.1,312.7,142.2L312.7,142.2z"/>
<path class="st1" d="M316.5,138.9l-11.1-8.9c2.3-3.3,4.6-6.3,7.8-9l9.7,9C321.3,131.6,317.9,137,316.5,138.9L316.5,138.9z"/>
<path class="st1" d="M320.8,130.6l-11.1-6.1c1.6-1.7,3.2-3.4,4.9-4.9l11.1,6.1C324,127.2,322.3,128.9,320.8,130.6z"/>
<path class="st1" d="M323.6,129.8l-9-10.2c1.8-1.7,3.8-3.2,5.8-4.6l14.1,4.6c-2.1,1.5-6.9,4.4-8.7,6.1"/>
<path class="st1" d="M331.3,121.2l-11.1-6.1c2.4-1.7,5-3.2,7.7-4.4l18.8,3.7C344.1,115.5,333.8,119.4,331.3,121.2"/>
<path class="st1" d="M333.2,122.6l-5.4-11.9c4.4-2.1,9-3.5,13.9-4.2l11.1,6.1c-4.7,0.7-9.5,2.1-13.9,4.2"/>
<path class="st7" d="M308.3,152.5l-11.1-6.1l-10.7-7.4l5.8,2.5L308.3,152.5L308.3,152.5z"/>
<path class="st0" d="M423.7,171.4l-12.7-6.1c1.2-0.3,1.8-0.6,3.7,0l10.9,6.1H423.7L423.7,171.4z"/>
<path class="st0" d="M425.6,171.5l-11.1-6.1l11.4,6.1"/>
<path class="st2" d="M423.6,161.6l-11.1-6.1c-0.6-0.4-1.2-0.9-1.6-1.6c-0.3-0.6-0.5-1.4-0.4-2.1v-3c0-4-0.3-8.1-0.9-12l11.8,5.5
	c0.6,4,0.8,8.7,0.7,12.7c0,1.1,0.4,2,0.4,3c-0.1,0.7-0.3,1.2,0,1.8s1.2,0.8,1.8,1.3"/>
<path class="st0" d="M424.3,132.9l-11.3-6.1c0.5-0.1,1.1-0.1,1.5,0l11.1,6.1C425.3,132.8,424.8,132.8,424.3,132.9"/>
<path class="st0" d="M424.9,132.9l-11-6.2l1.7,0.4l11.1,6.1L424.9,132.9L424.9,132.9z M426.5,133.2l-11.1-6.1L426.5,133.2z
	 M356.2,175.7l-9.4-12.2l33.2-5.6l11.6,6.7L356.2,175.7L356.2,175.7z M351.2,179.2l-11.1-6.1c-0.3-0.1-0.5-0.3-0.7-0.5
	c-0.4-0.4-0.7-0.9-0.9-1.5c-0.2-0.5-0.3-1.2-0.3-1.7l11.1,6.1c0,0.6,0.1,1.2,0.3,1.8c0.2,0.5,0.5,1.1,0.9,1.5
	C350.7,179,350.9,179.1,351.2,179.2 M379.5,121.2l-11.7-7l15.7-20l11.7,6L379.5,121.2z"/>
<path class="st8" d="M379.8,127.3l-11.1-6.1c-0.2-0.1-0.4-0.3-0.6-0.4c-0.6-0.6-1.2-1.5-1.3-2.4c-0.2-0.9-0.1-1.9,0.2-2.7l11.1,6.1
	c-0.3,0.8-0.4,1.8-0.2,2.7c0.2,0.9,0.6,1.7,1.3,2.4C379.3,127,379.6,127.2,379.8,127.3z"/>
<path class="st9" d="M378.1,121.7l-11.1-6.1c0-0.2,0.2-0.5,0.3-0.7l11.1,6.1C378.3,121.3,378.2,121.5,378.1,121.7z"/>
<path class="st10" d="M378.4,121l-11.1-6c0-0.2,0.2-0.4,0.3-0.6l11.1,6C378.7,120.7,378.6,120.9,378.4,121"/>
<path class="st11" d="M378.8,120.5l-11.1-6.1l0.2-0.2l11.1,6.1L378.8,120.5z"/>
<path class="st0" d="M317,231.5l-11.1-6.1l2.1,1.1l11.1,6.1L317,231.5"/>
<path class="st0" d="M319.1,232.7l-11.1-6.1c3.5,1.7,7,3,10.7,4l11,6C326.1,235.6,322.5,234.3,319.1,232.7L319.1,232.7z"/>
<path class="st0" d="M329.9,237.4l-12.6-7.3c7.7,2,17.2,2.7,25,1.6c6.9-0.9,13.7-3,20-6l11.1,6.1c-6.3,3-12.7,5.5-19.7,6.4
	C346,239.4,337.5,239.4,329.9,237.4L329.9,237.4z"/>
<path class="st0" d="M369.7,236.5l-7.5-10.8c3.8-1.8,7.5-3.9,10.9-6.3l12.5,6.3c-3.5,2.4-8.6,4.6-12.5,6.4"/>
<path class="st0" d="M384.8,226l-13.4-5.5c2.8-2,8.9-6.7,11.6-9.1l21-0.5C401.4,213.3,387.7,224,384.8,226z"/>
<path class="st0" d="M393.3,219.4l-11.9-6.5c2.4-2.2,4.7-4.5,6.9-7l11.1,6.1C397.4,214.4,395.7,217.2,393.3,219.4L393.3,219.4z
	 M399.6,211.9l-11.1-6.1l0.4-0.5c2-2.3,3.9-4.8,5.7-7.4l11.3,6.1c-1.8,2.5-3.7,5-5.7,7.4L399.6,211.9"/>
<path class="st0" d="M403.5,211.8l-9.6-13c2-2.8,4.9-7.4,6.6-10.5l18.8-1.5C417.6,190,405.5,208.9,403.5,211.8L403.5,211.8z"/>
<path class="st0" d="M411.3,195.1l-11.1-6.1c2-3.7,3.7-7.5,5.2-11.5l12.4,5.9c-1.5,3.9-3.5,8.5-5.5,12.2"/>
<path class="st0" d="M415.1,187.1l-10.3-8.5c1.1-2.8,2.3-6.7,3-9.7c0-0.2,0.6-3,3-3.7l13.5,6.2c0,0.2-5.3,3.4-5.4,3.6
	c-0.7,2.9-1.1,6.8-2.1,9.7"/>
<path class="st0" d="M419.2,174.4l-11-6.1c0.1-0.2,0.2-0.5,0.3-0.7l11.1,6.1C419.6,174,419.5,174.2,419.2,174.4"/>
<path class="st0" d="M419.6,173.7l-11.1-6.1c0-0.2,0.2-0.4,0.3-0.6l11.1,6.1C419.8,173.3,419.7,173.5,419.6,173.7z"/>
<path class="st0" d="M420,173.1l-11.1-6.1l0.4-0.5l11.4,6.1l-0.4,0.5"/>
<path class="st0" d="M420,173.1l-10.9-6.6l0.4-0.4l11.1,6.1l1.1-0.8"/>
<path class="st0" d="M421.2,172.6l-11.7-6.5c0.2-0.1,0.3-0.3,0.5-0.4l11.1,6.1C421.1,171.9,421.5,172.4,421.2,172.6L421.2,172.6z
	 M421.3,171.8l-11.1-6.1l0.7-0.4l11.1,6.1L421.3,171.8"/>
<path class="st0" d="M421.2,172l-11.6-6.1c0.6-0.6,2-0.8,2.4-0.9c0.4-0.1,0.7-0.1,1.2,0l11.1,6.1c-0.4-0.1-0.7-0.1-1.2,0
	C422.8,171.1,421.7,171.8,421.2,172L421.2,172z"/>
<path class="st8" d="M394.6,100.4l-11.1-6.2c-1.9-1.2-3.8-2.2-5.7-3.3L389,97C390.7,98.1,392.6,99.1,394.6,100.4"/>
<path class="st0" d="M351.9,144.6l-9.1-7.9l70.2-10l13.6,6.4L351.9,144.6z"/>
<path class="st0" d="M349.4,177.2l-11.5-7.9l0.1-27.4l13.9,0.3L349.4,177.2L349.4,177.2z"/>
<path class="st0" d="M349.5,148.8L338,142c0-0.6,0.2-1.9,0.5-2.5l10.9,6.7c-0.2,0.6,0.6,2,0.6,2.6"/>
<path class="st0" d="M349.5,146.2l-11.1-6.1c0.2-1.2,1.6-1.9,1.7-2.1l9.8,7.5C349.7,145.7,349.6,145.9,349.5,146.2z"/>
<path class="st0" d="M350,145.5l-11.1-6.1c0.1-0.2,0.2-0.4,0.3-0.5l11.1,6.1C350.1,145.1,350,145.3,350,145.5z"/>
<path class="st0" d="M349.1,151l-10-12.1l0.3-0.3c1.1-1.2,2.9-1.8,3.6-1.8l24.4,3.8l-16.6,4.1l-1.7,7.7"/>
<path class="st12" d="M428.5,135.9c1.2,5.8,1.8,11.7,1.8,17.7v3.4c0,1.2-0.5,2.3-1.3,3.3c-0.7,0.9-1.8,1.6-3,1.8
	c-0.5,0.1-1.2,0-1.7-0.2s-1.1-0.5-1.5-0.8c-0.4-0.4-0.7-0.8-0.9-1.5c-0.2-0.5-0.2-1.2-0.2-1.7v-3c0-4-0.3-8.1-0.9-12.1v-0.1h-0.1
	l-62.8,8.8h-0.1v18.3h0.1l37.8-5.6c0.4,0,0.8,0.1,1.3,0.3c0.1,0,0.2,0.1,0.2,0.1l-1.7,9.1l-42,5.9c-0.5,0.1-1.1,0.1-1.6-0.1
	c-0.5-0.1-0.9-0.4-1.4-0.7c-0.4-0.4-0.7-0.8-0.9-1.4c-0.2-0.5-0.3-1.1-0.3-1.7v-27.4c0-1.4,0.4-2.6,1.4-3.7c0.7-0.9,1.8-1.6,3-1.8
	l70.8-10c0.9-0.1,1.9,0.1,2.7,0.7C427.9,134.1,428.4,135,428.5,135.9L428.5,135.9z"/>
<path class="st0" d="M288.5,129.6l-11.1-6.1c1.9-3.5,4-6.9,6.2-10.1l17.7,0.9C299,117.5,290.3,126.1,288.5,129.6z"/>
<path class="st0" d="M294.7,119.5l-11.1-6.1c2.1-3,4.4-6,6.9-8.7l14.8,1.5C302.8,108.9,296.8,116.5,294.7,119.5"/>
<path class="st0" d="M301.7,110.7l-11.5-5.6c2.4-2.7,5.4-6,8.1-8.4l18.3,2C313.9,101.2,304.1,107.9,301.7,110.7z"/>
<path class="st0" d="M309.5,102.8l-11.1-6.1c2.9-2.6,6.1-5,9.4-7.4l11.1,6.1C315.5,97.7,312.4,100.2,309.5,102.8L309.5,102.8z"/>
<path class="st0" d="M317.4,97.8l-9.9-8.4c3.9-2.7,8.2-5.2,12.5-7.2l13.9,5.3C329.4,89.5,321.2,95.1,317.4,97.8z"/>
<path class="st0" d="M332,89.2l-12.1-6.9c7.2-3.4,14.7-5.7,22.5-6.8c8.4-1.4,17.1-1.1,25.4,0.9l11.1,6.1c-8.3-2-16.9-2.3-25.4-0.9
	c-7.8,1.2-14.2,4.2-21.3,7.6"/>
<path class="st0" d="M376.9,82.6l-14-7.3c1.3,0.3,4.2,0.6,9.1,1.8c2.6,0.9,15.1,4.8,23.7,11.6l9.1,6.7c-2.5-1.3-19.6-10.9-22.2-11.8
	c-1.2-0.3-2.4-0.7-3.6-1.1"/>
<path class="st12" d="M427.4,176.3c-3.9,15.1-11.3,29.2-21.6,41c-13.4,16-32,26.5-52.5,29.8c-13.8,2.2-28-0.2-40.3-6.7
	c-12.4-6.5-22.3-16.8-28.3-29.4c-5.3-10.6-7-22.9-7-36c-0.2-14.8,2.9-29.4,9.4-42.7c13.1-26.5,38.2-46.7,66.6-50.7
	c9.7-1.7,19.6-0.9,28.9,2c7.4,2.8,14.5,6.4,21,10.8c0.5,0.3,0.9,0.7,1.3,1.3c0.4,0.6,0.5,1.2,0.5,1.8c0.1,1.4-0.3,2.7-1.2,3.8
	l-19.1,24.5c-1.2,1.2-1.9,1.7-3.2,1.9c-0.5,0.1-1.1,0-1.6-0.1s-0.9-0.4-1.4-0.7c-0.8-0.8-1.3-2-1.4-3.2c0-1.2,0.4-2.3,1.2-3.3
	l15.7-19.9l0.1-0.1l-0.1-0.1c-4.8-3.2-10.1-5.7-15.5-7.7c-8.2-2.6-17-3.2-25.6-1.7c-25.2,3.4-47.3,21.2-59.1,44.9
	c-5.7,11.9-8.4,24.8-8.2,38c0,12.1,1.7,22.9,6.1,31.9c5.4,11.3,14.1,20.4,25.1,26.2s23.6,7.9,35.9,5.9v-0.1v0.1
	c18.2-2.9,34.8-12.3,46.7-26.4c9.1-10.5,15.7-23,19.1-36.5c0.2-0.9,0.7-1.9,1.5-2.6c0.7-0.7,1.7-1.2,2.6-1.4c0.3-0.1,0.7-0.1,1.2,0
	s1.1,0.3,1.6,0.7c0.4,0.3,0.8,0.7,1.2,1.3c0.3,0.5,0.4,1.1,0.5,1.6C427.7,175.2,427.6,175.8,427.4,176.3L427.4,176.3z"/>
<path class="st1" d="M349.2,116.1l-7.5-9.7c5.5-0.8,11-0.5,16.4,0.8l11.3,6.1C364,112,354.7,115.4,349.2,116.1z"/>
<path class="st1" d="M364.5,112.5l-6.2-5.2c2.5,0.6,5,1.6,7.4,2.7l11.1,6.1C374.5,115,367,113.1,364.5,112.5L364.5,112.5z"/>
<path class="st13" d="M369.4,113.4c-38.2-8.8-57.3,29.8-57.3,29.8l-0.1,0.1l-0.1-0.1l-16.2-9.8c-1.7,3.3-2.3,4.6-3.6,8l16.2,11.1
	h0.1v0.1c-1.9,5.8-2.8,11.8-2.8,17.8l0,0c0,4.3,0.5,8.7,1.6,12.9v0.1l0,0l-17,16.1c0.6,2.4,2.3,6.7,4.1,9.7l16.1-17l0.1-0.1l0.1,0.1
	l0.2,0.3l0,0c3.7,7.8,9.8,14.2,17.5,18.2c7.6,4,16.3,5.5,24.8,4.2l0,0c9.8-1.5,18.9-5.7,26.4-12.2l0.1-0.1h0.1l17.8,11.8l0,0
	c0,0,0.1,0.1,0.2,0c0.1,0,0.2-0.1,0.4-0.3c0.3-0.3,0.8-0.7,1.4-1.5c0.5-0.5,1.1-1.3,1.7-2c0.1-0.1,0.2-0.2,0.3-0.4
	c0.7-0.9,1.6-2.2,2.5-3.3l-17.5-11.5l-0.1-0.1l0.1-0.1c2.9-3.7,5.5-7.7,7.6-12l0,0c2.3-4.6,4.1-9.5,5.5-14.4l0,0
	c0.2-0.5,0.2-1.1,0.2-1.7c-0.1-0.5-0.2-1.1-0.5-1.6s-1.2-1.6-2.9-1.6l-4.2,0.6c-0.2,0.8-0.3,1.4-0.4,1.7c-0.1,0.5-0.1,0.6-0.3,1.3
	l0,0c-1.2,4.2-2.6,8.3-4.6,12.3c-1.9,3.8-4.2,7.5-6.8,10.7l0,0c-0.8,1.1-1.8,2-2.7,2.9c-6.4,6.4-14.8,10.6-23.9,12
	c-6.9,1.2-14.2-0.1-20.4-3.4c-6.3-3.3-11.3-8.5-14.3-14.9c-0.8-1.7-1.5-3.4-2.1-5.2l0,0c-1.3-4.2-2-8.5-1.9-12.9l0,0
	c0-6,1.3-12,3.6-17.7l1.7-4c6.6-13.4,19.2-23.6,33.6-25.7c4.5-0.7,9.1-0.4,13.6,0.7c4.4,1.2,8.5,3.3,12.1,6.2
	c0.4,0.3,0.8,0.5,1.4,0.6c0.2,0.1,0.3,0.1,0.4,0.1h0.5c0.3,0,0.6-0.2,1.1-0.4s0.7-0.5,1.1-0.8l0,0l1.3-1.3c0.6-0.6,1.8-1.8,2.9-3.6
	c-1.5-1.2-2-1.6-2.2-1.7l0,0l-0.2-0.2l-0.3-0.3l-0.1-0.1C379.9,117.6,374.8,114.9,369.4,113.4 M310,192.3L310,192.3"/>
<path class="st1" d="M376.9,116.1l-11.1-6c0.5,0.2,0.9,0.4,1.5,0.7l11.1,6.1C377.8,116.7,377.3,116.5,376.9,116.1"/>
</svg>
