<?xml version="1.0" encoding="utf-8"?>
<!-- Generator: Adobe Illustrator 23.0.3, SVG Export Plug-In . SVG Version: 6.00 Build 0)  -->
<svg version="1.1" id="Слой_1" xmlns="http://www.w3.org/2000/svg" xmlns:xlink="http://www.w3.org/1999/xlink" x="0px" y="0px"
	 viewBox="0 0 250 250" style="enable-background:new 0 0 250 250;" xml:space="preserve">
<style type="text/css">
	.st0{fill:#40689D;}
	.st1{fill:#9A384B;}
	.st2{fill:#904A5A;}
	.st3{fill:#E87891;stroke:#000000;stroke-width:0.2;}
	.st4{fill:#4875B0;}
	.st5{fill:#B4D1FA;stroke:#000000;stroke-width:0.4;}
	.st6{fill:#2F527F;}
	.st7{fill:#B4D1FA;}
	.st8{fill:#70829B;}
	.st9{fill:#5A697D;}
	.st10{fill:#B4D1FA;stroke:#000000;stroke-width:0.2;}
</style>
<path class="st0" d="M48.4,211l-14.6-8c-3-1.8-5.5-4.3-7.2-7.4c-1.7-3.1-2.5-6.6-2.4-10.1l14.9,4.8c-0.1,3.5,0.4,10.1,2.1,13.2
	C42.9,206.7,45.4,209.3,48.4,211z"/>
<path class="st0" d="M59.5,150.2l-14.6-8l37.3-5.3l14.6,8L59.5,150.2z"/>
<path class="st0" d="M38.8,193.6l-14.6-8v-18.2l17.4,4.3L38.8,193.6z"/>
<path class="st0" d="M38.9,175.3l-14.6-8c0-3,0.6-5.9,1.6-8.7l25.2-1.5C50,160,38.9,172.3,38.9,175.3"/>
<path class="st0" d="M40.5,166.6l-14.6-7.9c0.4-1.2,7.5-13.4,8-14.6l20.1,8C53.4,153.1,40.9,165.4,40.5,166.6z"/>
<path class="st0" d="M42,163.1l-14.6-8c0.5-0.9,1.1-1.9,1.7-2.7l14.6,8C43.1,161.3,42.5,162.2,42,163.1z"/>
<path class="st0" d="M43.7,160.4l-14.6-8c0.6-0.8,1.2-1.6,1.9-2.3l14.6,8C44.9,158.8,44.3,159.6,43.7,160.4z"/>
<path class="st0" d="M45.6,158.1l-14.6-8c0.6-0.8,1.3-1.5,2.1-2.1l14.7,8C47,156.6,46.3,157.3,45.6,158.1"/>
<path class="st0" d="M47.7,155.9L33,148c0.8-0.7,1.6-1.4,2.5-2l14.6,8C49.3,154.6,48.5,155.2,47.7,155.9"/>
<path class="st0" d="M50.2,154l-14.6-8c1-0.7,2.1-1.4,3.2-1.9l14.6,8C52.3,152.6,51.2,153.2,50.2,154z"/>
<path class="st0" d="M51.5,154l-12.7-9.9c1.9-0.9,8.7-2.3,10.8-2.6l13.2,9.1c-2.1,0.3-7.5,0.6-9.4,1.5"/>
<path class="st1" d="M233.2,152.9l-14.6-7.9c-0.5-0.3-1-0.8-1.3-1.3c-3.8-7.3-9.7-13.3-16.9-17.2l15.4,7c7.2,4,12.7,10.9,16.5,18.2
	C232.6,152.3,232.7,152.6,233.2,152.9"/>
<path class="st2" d="M161.8,230.9l-14.7-8c0.5,0.3,1,0.5,1.5,0.8l14.6,7.9c-0.5-0.2-1-0.5-1.5-0.8"/>
<path class="st1" d="M163.2,231.7l-14.6-8l0.7,0.4c2.3,1.1,4.7,1.9,7.1,2.6l14.6,8c-2.4-0.6-4.8-1.5-7.1-2.6L163.2,231.7z"/>
<path class="st1" d="M169.8,235.9l-13.3-9.2c5.6,1.4,11.4,1.7,17,0.9c5-0.7,9.9-2.2,14.5-4.4l21.5,2.6c0,8.2-16.4,9.1-21.4,9.8
	C182.5,236.4,175.4,237.3,169.8,235.9z"/>
<path class="st1" d="M202.7,231.1l-14.6-8c2.8-1.3,5.5-2.9,8.1-4.7l14.6,8C208.2,228.2,205.5,229.8,202.7,231.1z"/>
<path class="st1" d="M196.4,238.3l-0.2-19.8c2.1-1.5,4.1-3,6-4.7l32-3.6C232.3,211.8,198.5,236.8,196.4,238.3z"/>
<path class="st1" d="M218.7,223.4l-16.6-9.6c1.8-1.6,3.4-3.2,5-5l17.2,8.5C222.7,219,220.5,221.8,218.7,223.4z"/>
<path class="st1" d="M205.3,235l1.8-26.2c1.6-1.8,3-3.6,4.4-5.6l27.3-6.8C240.7,201.9,210,236.6,205.3,235z"/>
<path class="st1" d="M227.3,212.6l-15.8-9.4c1.5-2.1,2.8-4.2,4-6.4l16.3,7.9C230.6,206.8,228.7,210.5,227.3,212.6z"/>
<path class="st1" d="M230.7,207.5l-15.4-8.5c0.4-0.6,0.9-3.6,1.2-4.2c1-2.1,2.8-6.5,4.4-11.3l15.5,12.7c-0.8,2.2-2.9,4.7-4,6.8
	c-0.3,0.7-1,3.3-1.4,4"/>
<path class="st1" d="M228.6,217.1l-9.3-28.8c2.4-6.4,3.6-13.1,3.8-20c0-0.5,0.1-1,0.3-1.5l16.4,6.5c-0.2,0.5-2.1,2.5-2.1,3
	C237.5,183.2,240.8,191,228.6,217.1z"/>
<path class="st1" d="M237.9,174.9l-14.6-8l0.3-0.6l14.6,8L237.9,174.9z"/>
<path class="st1" d="M238.2,174.3l-14.6-8c0.4-0.6,0.6-0.8,0.9-0.9l14.1,8.5l-0.3,0.5"/>
<path class="st1" d="M238.5,173.9l-14.6-8c0.1-0.1,0.2-0.3,0.3-0.4l14.6,8C238.7,173.6,238.6,173.8,238.5,173.9z"/>
<path class="st1" d="M238.7,173.7l-14.9-7.8c0.4-0.6,0.5-0.9,1.1-1.1l14.8,8l-1.1,1.1"/>
<path class="st1" d="M239.2,173l-14.6-8l0.4-0.4l14.6,8L239.2,173z"/>
<path class="st1" d="M239.8,173.3l-14.8-8.6l0.6-0.4l14.6,8c-0.2,0.1,0.4,0.9,0.2,1"/>
<path class="st1" d="M241.4,173.2l-18.1-2.2c-0.8-3.3,0.1-6.8,3.4-6.9c0.4-0.1,0.8-0.1,1.3,0l15.8,8.8c-0.4-0.1-0.8-0.1-1.3,0
	C242.1,172.8,241.8,172.9,241.4,173.2"/>
<path class="st1" d="M243.5,172.7l-15-8.4l15.3,8.5"/>
<path class="st1" d="M187.3,122.9l-13-8.9c6.5-0.9,13.2-0.6,19.5,1l14.6,8C202,121.4,193.8,121.9,187.3,122.9z"/>
<path class="st1" d="M206,123.4l-12.4-8.5c2.8,0.7,5.7,1.9,8.3,3.2l0.9,0.4l14.6,8l-0.9-0.4C213.9,124.8,208.8,124.1,206,123.4z"/>
<path class="st1" d="M216.6,126.9l-13.5-8.1l1.4,0.5l14.6,8L216.6,126.9z"/>
<path class="st1" d="M157.9,238.1l-14.6-7.9c-23.1-12.5-32.1-42.6-21.6-70.9l14.6,8C125.9,195.5,134.9,225.6,157.9,238.1"/>
<path class="st1" d="M137.6,171.4l-15.9-12.2c0.9-2.5,2-5,3.2-7.4l1.2-2.2l17.3,4.9l-3.8,5.3c-1.2,2.4-2.3,4.8-3.3,7.4"/>
<path class="st1" d="M140.8,157.5l-14.7-8c1.4-2.6,2.9-5.1,4.6-7.5l16.9,6.2C145.9,150.6,142.1,154.9,140.8,157.5z"/>
<path class="st1" d="M145.3,150l-14.6-8c1.6-2.2,3.2-4.4,5-6.4l14.7,8C148.6,145.7,146.9,147.8,145.3,150"/>
<path class="st1" d="M150.4,143.6l-18.1-3.8c4-5.7,7.2-8.1,9.2-9.9l23.2,1.5C162.7,133.2,152.2,141.6,150.4,143.6z"/>
<path class="st1" d="M156,137.9l-14.6-8c2.2-2,4.5-3.8,6.9-5.5l14.6,8C160.5,134.1,158.2,135.9,156,137.9z"/>
<path class="st1" d="M162.9,132.4l-14.6-8c2.9-2,6-3.8,9.3-5.4l14.6,8C168.9,128.6,165.8,130.4,162.9,132.4z"/>
<path class="st1" d="M172.1,127.1l-14.6-8c5.3-2.5,10.9-4.2,16.7-5l14.7,8C183.1,122.9,177.4,124.6,172.1,127.1"/>
<path class="st2" d="M123.1,122.7l-14.6-8l1.5,0.8l14.6,8L123.1,122.7z"/>
<path class="st1" d="M124.6,123.5l-14.6-8c2.5,1.2,5.1,2.2,7.7,2.9l14.6,8C129.7,125.7,127.1,124.7,124.6,123.5z"/>
<path class="st1" d="M121.7,129.9l-4-11.5c5.5,1.4,11.3,1.7,16.9,0.9c5-0.7,11.7-3.2,16.2-5.3l12.7,9c-4.5,2.1-7.4,7.1-12.3,7.8
	c-5.6,0.8-13.6,1.7-19.1,0.3"/>
<path class="st1" d="M163.6,122.9l-14.6-8c2.8-1.3,5.4-2.9,8-4.6l25.1,0.8C179.5,112.9,166.4,121.6,163.6,122.9z"/>
<path class="st1" d="M153,130l4-19.7c2.1-1.5,4.1-3,5.9-4.7l14.6,8C175.6,115.3,155,128.6,153,130z"/>
<path class="st1" d="M178.4,114.2l-22.1-3.3c1.7-1.6,10-8.4,11.6-10.2l25.7,0.7C192,103.1,180.1,112.6,178.4,114.2z"/>
<path class="st1" d="M173.4,124.9l-5.5-24.2c1.5-1.8,5-6.2,6.4-8.1l25.1-3.2C198,91.2,175,123.1,173.4,124.9z"/>
<path class="st1" d="M187.5,104l-15.2-9c1.5-2.1,2.8-4.2,4-6.4l15.7,8C190.8,98.8,188.9,101.9,187.5,104z"/>
<path class="st1" d="M187.7,110.1l-11.6-20.9c1.1-3.4,2.9-6.2,3.9-9l20.5-3.3C199.5,79.7,189.1,107.4,187.7,110.1"/>
<path class="st1" d="M194.6,88.2l-14.6-8c2.4-6.6,3.7-13.7,3.8-20.7c0-18.8-9-34.1-22.7-41.6l15.6,5.8c13.7,7.4,23.3,24.8,23.3,43.8
	c0,7.1-2.9,14.3-5.4,21"/>
<path class="st1" d="M149.4,13.5l-14.6-8c6.5-0.9,13.1-0.6,19.4,1l14.6,8.1C162.6,13,156,12.6,149.4,13.5z"/>
<path class="st1" d="M167.5,14.6l-13.3-8.1c3.1,0.8,6.2,1.8,9,3.2l14.6,8.1C175,16.5,170.6,15.4,167.5,14.6z"/>
<path class="st1" d="M177.8,17.8l-14.6-8l1.7,0.9l14.6,8L177.8,17.8z"/>
<path class="st1" d="M122.1,31.6l-14.6-8c-0.5-0.3-1-0.7-1.3-1.3c-0.2-0.5-0.4-1-0.4-1.6s0.1-1.7,0.3-2.2l15.9,6.8
	c-0.2,0.5-1.3,2.6-1.3,3.1c0,0.6-0.2,1.1,0,1.6c0.3,0.5,0.7,1,1.3,1.3"/>
<path class="st1" d="M120.6,27l-14.5-8.5c0.1-0.2,1.2-1.6,2.4-2.2l12.6,10c-0.1,0.2-0.2,0.4-0.3,0.6"/>
<path class="st1" d="M121,26.4l-14.6-8c0.1-0.2,0.2-0.2,0.3-0.3l14.6,7.7L121,26.4"/>
<path class="st1" d="M121.3,25.9l-14.6-7.8l0.6-0.6l14.3,7.9L121.3,25.9"/>
<path class="st1" d="M121.6,25.5l-14.6-8c0.1-0.1,0.2-0.3,0.4-0.4l14.6,8L121.6,25.5z"/>
<path class="st1" d="M107.4,17.2l14.2,11.4l1.6-2.7c0.5-0.4,7.1-3.8,7.6-4.2l-19-7.6C109.9,15.1,108.9,15.8,107.4,17.2z"/>
<path class="st1" d="M123.8,23.7l-14.6-8c2.9-2,6-3.7,9.2-5.2l31.8,3C147.1,15.1,126.7,21.7,123.8,23.7z"/>
<path class="st1" d="M133,18.5l-14.6-8c5.2-2.5,10.8-4.2,16.6-5l33.8,9.1C162.9,15.4,138.2,16,133,18.5z"/>
<path class="st1" d="M119.2,129.9l-14.7-8c-15.7-8.6-26.1-26.1-26.1-47.7c0-8.2,1.5-16.3,4.3-23.9L99,59c-2.8,7.7-4,14.3-4,22.5
	C98.9,102.3,103.4,121.3,119.2,129.9"/>
<path class="st1" d="M97.6,59.6l-15.4-8c1.2-3.2,3.2-7.8,4.8-10.8l14.6,8C100,51.8,98.8,56.4,97.6,59.6z"/>
<path class="st1" d="M101.2,49.5l-14.4-8.3l0.6-1l0.4-0.6l14.4,8.4l-0.3,0.5L101.2,49.5z"/>
<path class="st1" d="M102.1,48l-14.6-8l0.3-0.4l14.6,7.9C102.4,47.7,102.2,47.9,102.1,48z"/>
<path class="st1" d="M102.4,47.6l-14.6-7.9c0.1-0.1,0.2-0.3,0.4-0.4l14.6,8L102.4,47.6z"/>
<path class="st1" d="M102.8,47.2l-14.6-8l0.4-0.4l14.6,8L102.8,47.2z"/>
<path class="st1" d="M102.2,48.2l-14.8-8c0.4-1,1.3-1.6,2.3-1.7l14.2,8.2l-0.6,0.3"/>
<path class="st1" d="M103.9,46.7l-16.5-6.4c0,0,0.6-2.3,4.2-1.8l14.6,8C105.4,46.2,104.6,46.3,103.9,46.7z"/>
<path class="st1" d="M106.8,46.5l-15.4-7.9l14.2,8.5"/>
<path class="st3" d="M101.9,48.5L101.9,48.5c0.3-0.6,0.8-1.1,1.3-1.5s1.2-0.6,1.8-0.7c0.7-0.1,1.3,0,1.9,0.3
	c0.8,0.5,1.4,1.4,1.6,2.3c0.2,1,0,1.9-0.5,2.8l0,0l0,0c-5,9-7.6,19.1-7.6,29.4l0,0c0,29.3,21.9,50,49,46.2s49.2-30.7,49.2-59.9
	c0-29.3-22-50-49.2-46.1l0,0c-8.6,1.3-16.8,4.7-23.7,9.9l0,0c-0.5,0.4-1.1,0.6-1.7,0.7s-1.2,0-1.8-0.3c-0.6-0.3-1-0.7-1.3-1.2
	c-0.4-0.9-0.5-2-0.3-3c0.3-1,0.9-1.9,1.7-2.5l0,0l0,0c8-6,17.3-9.9,27.2-11.3c31-4.4,56.1,19.2,56.1,52.8
	c-0.1,33.6-25.2,64.2-56.3,68.6c-31,4.4-56.1-19.2-56-52.8C93.3,70.4,96.3,58.8,101.9,48.5z"/>
<path class="st1" d="M50.7,226.5l-14.6-8l1.5,0.8l14.6,8L50.7,226.5z"/>
<path class="st1" d="M52.2,227.3l-14.6-8c2.4,1.2,5,2.1,7.6,2.8l16.4,8.3C59,230.2,54.6,228.5,52.2,227.3z"/>
<path class="st1" d="M59.8,230.1l-14.6-8c4.4,1.1,8.9,1.5,13.4,1.3c1.2-0.1,2.4-0.2,3.7-0.4c5-0.7,9.8-2.1,14.3-4.3l14.6,8
	c-4.5,2.2-9.3,3.6-14.3,4.3c-1.2,0.2-2.3,0.3-3.5,0.4c-4.5,0.3-9.1-0.1-13.4-1.3"/>
<path class="st1" d="M79.6,234.7l-3-16c2.8-1.3,5.4-2.8,7.9-4.6l22.9,3c-2.5,1.8-13.5,8.3-16.2,9.6"/>
<path class="st1" d="M99,222.2l-14.6-8c2.1-1.5,4.3-3.2,6.2-4.9l14.4,8.2C103,219.2,101.1,220.8,99,222.2z"/>
<path class="st1" d="M96.5,229.1l-18.2,2.3l12.2-21.9c1.8-1.6,3.4-3.3,5-5.1l14.6,8C108.5,214.1,98.2,227.5,96.5,229.1z"/>
<path class="st1" d="M107.2,218.4l-11.7-14.1c1.6-1.8,3.1-3.7,4.4-5.7l17.6,8.2c-1.4,2-5.2,5.6-6.8,7.4"/>
<path class="st1" d="M114.5,206.7l-14.6-8.1c1.5-2.1,2.8-4.2,4-6.4l17.6,9C120.3,203.4,116,204.6,114.5,206.7"/>
<path class="st1" d="M118.5,200.2l-14.6-8c1.4-2.7,2.7-5.4,3.7-8.2l14.6,8C121.2,194.8,119.9,197.5,118.5,200.2"/>
<path class="st1" d="M122.2,192l-14.6-8c2-5.4,3.2-11.1,3.7-16.9c1.4-20.4-7.8-37.4-22.5-45.4l14.6,8c14.8,8,24,25.1,22.5,45.4
	C125.5,180.9,124.2,186.5,122.2,192"/>
<path class="st1" d="M46.8,233.7l-14.6-8c-1.2-0.6-2.3-1.3-3.4-2.1c-0.7-0.5-1.1-1.2-1.4-2c-0.2-0.8-0.2-1.7,0.2-2.4l18.2,5.5
	c-0.3,0.8-3.5,3.9-3.2,4.7c0.2,0.8,0.8,1.5,1.4,2C45,232.2,45.6,233.1,46.8,233.7z"/>
<path class="st1" d="M42.2,227.2l-14.6-8c0.1-0.2,0.1-0.4,0.3-0.6l14.6,8C42.3,226.8,42.2,227,42.2,227.2z"/>
<path class="st1" d="M42.4,226.6l-14.6-8l0.4-0.3l0.6-0.6l14.8,8l-0.7,0.9C42.8,226.7,42.4,226.5,42.4,226.6"/>
<path class="st1" d="M42.8,226.1l-15.1-6.6c0-1.1,0.7-1.6,0.8-1.7l14.6,8C43,225.8,42.9,225.9,42.8,226.1z"/>
<path class="st1" d="M43.1,225.6l-14.8-7.5c0.1-0.1,0.6-0.6,0.7-0.7l14.4,7.8L43.1,225.6"/>
<path class="st1" d="M43.4,225.3l-14.2-7.6l0.4-0.4l14.2,7.6L43.4,225.3z"/>
<path class="st1" d="M43.5,225.4L29.3,217l0.6-0.3l15.5,7.8c-0.2,0.1-1.2,0.3-1.4,0.4"/>
<path class="st1" d="M44.5,224.6l-16.9-5.4c0.4-1.4,1.9-2.6,3.3-2.9c0.4-0.1,0.8-0.1,1.3,0l14.6,8c-0.4-0.1-0.9-0.1-1.3,0
	C45.2,224.4,44.8,224.5,44.5,224.6"/>
<path class="st1" d="M46.8,224.3l-14.6-7.9c0.2,0,0.4,0.1,0.6,0.2l14.6,8C47.2,224.5,47,224.4,46.8,224.3"/>
<path class="st1" d="M47.4,224.6l-14.6-8L47.4,224.6"/>
<path class="st1" d="M74.9,118.2l-14.8-8.5c1.4-0.2,5.1-0.6,6.6-0.7c5.2-0.3,10.3,0.2,15.4,1.4l14.6,8.1c-5-1.3-10.2-1.7-15.4-1.4
	c-1.4,0-2.8,0.2-4.1,0.4"/>
<path class="st1" d="M92.7,120L82,110.4c3.1,0.8,6,1.8,8.9,3.2l14.6,8C102.6,120.3,95.8,120.8,92.7,120z"/>
<path class="st1" d="M105.5,121.7l-14.6-8c0.6,0.3,1.2,0.6,1.7,0.9l14.6,8C106.6,122.2,106,121.9,105.5,121.7z"/>
<path class="st1" d="M27.1,212.1l-14.6-8c-0.6-0.3-1.1-0.8-1.3-1.5c-4-9.2-5.7-19.2-4.9-29.1c0.5-6.6,2.6-15.1,4.9-21.3l16,7.4
	c-2.3,6.2-4.1,15.6-4.6,22.2c-0.8,10-0.8,19.7,3.2,28.8C26,211.3,26.5,211.8,27.1,212.1z"/>
<path class="st1" d="M25,162.1l-14.6-8c1.2-3.2,2.6-6.4,4.2-9.4l17.3,4.3c-1.6,3.1-5.8,9.9-7,13.2"/>
<path class="st1" d="M29.3,152.6l-14.6-7.9c1.4-2.6,2.9-5.1,4.6-7.5l28-3.9C45.6,135.7,30.6,150.1,29.3,152.6z"/>
<path class="st1" d="M33.8,145.2l-14.6-8c1.6-2.2,3.3-4.4,5.1-6.4l25.8-0.4C48.3,132.4,35.4,143,33.8,145.2z"/>
<path class="st1" d="M38.9,138.8l-14.6-8c1.8-2.1,3.7-4.1,5.8-6l14.6,8c-2,1.8-4,3.8-5.8,5.8"/>
<path class="st1" d="M37.3,145.7L30,124.9c2.2-2,4.5-3.8,6.9-5.4l16.7,7.2c-2.4,1.7-6.8,4.2-9,6.2"/>
<path class="st1" d="M51.5,127.5l-14.6-8c2.9-2,5.9-3.8,9.1-5.3l30.6,3.2C73.5,119,54.3,125.5,51.5,127.5"/>
<path class="st1" d="M60.6,122.3l-14.6-8c5.2-2.5,10.7-4.2,16.4-5l14.6,8C71.3,118.1,65.8,119.8,60.6,122.3z"/>
<path class="st3" d="M76.8,238.7c29.1-4.1,53.9-31.9,56.1-64.1c2.3-33.8-20.8-59.5-51.8-57.6c-1.4,0.1-2.8,0.2-4.1,0.4
	c-29.3,4.1-53.9,31.9-56.1,64.1l0,0c-0.8,10,0.9,20,4.9,29.1c0.3,0.6,0.7,1.1,1.3,1.4c0.6,0.3,1.2,0.5,1.8,0.4
	c0.5-0.1,1-0.3,1.5-0.6l0,0c0.9-0.5,1.5-1.4,1.8-2.4c0.3-1,0.3-2-0.1-3c-3.5-8-5-16.7-4.3-25.4c2-28.1,23.6-52.5,49.1-56l0,0
	c0.2,0,0.5-0.1,0.7-0.1c0.9-0.1,1.9-0.3,2.9-0.3c27.1-1.7,47.4,20.8,45.3,50.3l0,0h-0.1c-2,28.1-23.6,52.5-48.8,56l-0.1,0.1
	c-1.2,0.2-2.4,0.3-3.6,0.4c-9.1,0.6-18.1-1.7-25.7-6.7c-0.6-0.4-1.4-0.5-2.1-0.4c-0.5,0-1.1,0.3-1.6,0.6s-0.9,0.8-1.2,1.3l0,0l0,0
	c-0.6,0.8-0.8,1.8-0.7,2.8s0.6,1.9,1.4,2.5c8.7,5.7,19,8.4,29.3,7.6l0,0C74,239,75.4,238.9,76.8,238.7"/>
<path class="st4" d="M152.1,64.8l-14.6-8l10.8-1.5L163,63L152.1,64.8z"/>
<path class="st0" d="M141.2,114.2l-14.6-8l0.1-36.4l14.6,8L141.2,114.2z"/>
<path class="st0" d="M152.1,40.8l-14.6-8c5-1.2,7.7-1.6,12.6-1.8l14.6,8.3L152.1,40.8z"/>
<path class="st4" d="M130.8,68.5l-11.4-9.2l7.7-1.1l15.1,8.2L130.8,68.5z"/>
<path class="st0" d="M134,78.8l-14.6-8V59.3l14.6,8V78.8z"/>
<path class="st0" d="M141.3,66.3l-14.6-8V45.9l14.6,8V66.3z"/>
<path class="st0" d="M142,57.8l-15.3-11.9c0-1.5,0.3-3,0.8-4.5l19.1,3.5C146.1,46.3,142,56.3,142,57.8z"/>
<path class="st0" d="M142.1,49.4l-14.6-8c1.7-4.4,5.2-6.5,5.2-6.5L143,47.6C142.7,48.2,142.4,48.8,142.1,49.4"/>
<path class="st0" d="M143,47.6l-14.7-8c0.3-0.5,0.5-1,0.9-1.4l14.6,8C143.5,46.7,143.2,47.1,143,47.6"/>
<path class="st0" d="M143.8,46.2l-14.6-8c0.3-0.4,0.7-0.8,1-1.2l14.6,8C144.5,45.4,144.1,45.8,143.8,46.2"/>
<path class="st0" d="M142,51.6L130.2,37c0.4-0.4,4.4-4.8,11.2-4.8l4.5,11.6c-0.4,0.4-0.7,0.7-1.1,1.1"/>
<path class="st0" d="M145.8,43.9l-14.1-7.6l1.1-1.1l14.3,7.7L145.8,43.9z"/>
<path class="st0" d="M147.1,43.9l-13.6-8.2c0.6-0.4,7.8-2.5,8.4-2.8l20.1,7c-0.7,0.3-14.3,2.6-14.8,2.9"/>
<path class="st0" d="M148.9,41.8l-14.4-7.2c1-0.5,1.8-1.5,2.9-1.7l15.8,7.9C152.2,41,149.9,41.4,148.9,41.8"/>
<path class="st5" d="M152.1,64.8l10.8-1.7l-1.9,12l-8.9,1.3H152v0.1v36.3l-10.7,1.2V77.7v-0.1h-0.1l-7.1,1.1V67.4l7.1-1h0.1v-0.1
	V53.9c0-3.1,1.1-6,3.1-8.4s4.7-4,7.7-4.5l12.6-1.7v12.2L153.9,53l0,0l0,0c-0.5,0.1-1,0.4-1.4,0.8c-0.3,0.4-0.5,0.9-0.6,1.5l0,0l0,0
	v9.4v0.1L152.1,64.8z"/>
<path class="st6" d="M96.7,200.2l-14.6-8c1.4-0.2,2.8-0.6,4.1-1.2l14.6,8C99.6,199.6,98.2,200,96.7,200.2"/>
<path class="st6" d="M100.8,199l-18-6.4c0.8-0.4,5-2.4,5.7-2.9l14.6,8C102.4,198.2,101.6,198.7,100.8,199"/>
<path class="st6" d="M103,197.8l-14.6-8c0.6-0.4,1.1-0.8,1.7-1.3l14.6,8C104.1,196.9,103.5,197.3,103,197.8z"/>
<path class="st6" d="M92.2,204.8l-3-15.3c0.5-0.5,1.8-1.9,2.2-2.4l19.8,4.5C110.8,192.1,92.7,204.4,92.2,204.8z"/>
<path class="st6" d="M106,195l-15.2-7.1c0.4-0.5,3.4-4.5,3.8-5l12.6,10.4C106.9,194,106.5,194.5,106,195z"/>
<path class="st6" d="M107.3,193.4l-14.6-7.9c0.4-0.6,1.5-2.6,1.8-3.2l13.9,9.4C108.1,192.3,107.7,192.9,107.3,193.4z"/>
<path class="st6" d="M103.3,200.9l-9.5-17.3c0.4-0.7,0.8-1.5,1.1-2.3l18.4,4C113,186.2,103.7,200.2,103.3,200.9z"/>
<path class="st6" d="M108.6,199l-13.9-17.3c0.7-1.9,1.3-5.5,1.2-7.8l14.5,9.6c0,2,3.7,5.5,3,7.3"/>
<path class="st6" d="M111.3,187.6l-15.4-12v-18.2l16.4,4.6L111.3,187.6z"/>
<path class="st6" d="M110.5,165.3l-14.6-7.9c0-2.3-0.6-4.8-1.7-6.8s-2.8-3.7-4.8-4.9l15.2,7.4c2,1.2,3.7,2.9,4.8,4.9
	S110.7,163,110.5,165.3"/>
<path class="st0" d="M92.6,148.2L82.2,137c2.4-0.4,4.9-0.2,7.2,0.4l14.6,8c-2.3-0.6-4.7-0.7-7.1-0.4"/>
<path class="st0" d="M97.6,146.5l-8.2-9.2c1.1,0.3,2.2,0.7,3.2,1.2l14.6,8c-1-0.5-2.1-0.9-3.2-1.2"/>
<path class="st0" d="M107.2,146.6l-14.5-8l0.6,0.3l14.6,8L107.2,146.6"/>
<path class="st6" d="M59.4,205.5l-14.6-8l42-6l13.6,8.5L59.4,205.5z"/>
<path class="st6" d="M52.1,204.2l-14.6-8l0.4,0.2l14.6,8L52.1,204.2z"/>
<path class="st6" d="M52.5,204.4l-13.1-6.7c0.7,0.3-0.1-0.7,0.6-0.5l14.6,8C53.9,205.1,53.2,204.8,52.5,204.4z"/>
<path class="st6" d="M54.7,205.2l-14.6-8c1.5,0.4,3.1,0.5,4.7,0.3l25.6,9.2C68.8,206.9,56.2,205.6,54.7,205.2z"/>
<path class="st7" d="M96.8,145c11.3-1.6,20.5,7.1,20.5,19.3v18.4c0,12.3-9.3,23.5-20.6,25.1L59.3,213c-11.3,1.6-20.5-7.1-20.5-19.3
	v-18.3c0-12.3,9.3-23.5,20.6-25.1L96.8,145z M110.5,183.5v-18.2c0.1-1.8-0.2-3.6-0.8-5.3c-0.7-1.7-1.7-3.2-3-4.4s-2.9-2.1-4.6-2.7
	c-1.7-0.5-3.5-0.7-5.3-0.5l-37.3,5.2c-3.9,0.8-7.4,2.8-9.9,5.9c-2.5,3.1-3.9,6.9-3.9,10.8v18.2c-0.1,1.8,0.2,3.6,0.8,5.3
	c0.7,1.7,1.7,3.2,3,4.4s2.9,2.1,4.6,2.7c1.7,0.5,3.5,0.7,5.3,0.5l37.4-5.3c3.9-0.8,7.4-2.8,9.9-5.9
	C109.2,191.2,110.5,187.4,110.5,183.5"/>
<path d="M96.8,145v0.2l0,0V145z M96.7,207.7v-0.2l0,0V207.7z M59.4,212.9v0.2l0,0V212.9z M59.4,150.2v0.2l0,0V150.2z M110.5,165.3
	h-0.2l0,0H110.5z M96.8,152.4v-0.2l0,0V152.4z M59.5,157.7v-0.2l0,0V157.7z M45.7,174.4h-0.2l0,0H45.7z M45.7,192.6h0.2l0,0H45.7z
	 M59.4,205.4v0.2l0,0V205.4z M96.8,200.2v0.2l0,0V200.2z M96.9,145.2c11.2-1.6,20.3,7,20.3,19.1h0.4c0-12.3-9.3-21.1-20.8-19.4
	L96.9,145.2z M117.2,164.2v18.4h0.4v-18.4H117.2z M117.2,182.6c0,12.2-9.2,23.3-20.5,24.9l0.1,0.4c11.5-1.6,20.8-12.9,20.8-25.3
	L117.2,182.6L117.2,182.6z M96.7,207.5l-37.4,5.2l0.1,0.4l37.4-5.2L96.7,207.5z M59.3,212.7c-11.2,1.6-20.3-7-20.3-19.1h-0.4
	c0,12.3,9.3,21,20.8,19.4L59.3,212.7z M39,193.7v-18.4h-0.4v18.4H39z M39,175.3c0-12.2,9.4-23.3,20.6-24.9l-0.2-0.4
	c-11.3,1.6-20.8,13-20.8,25.3L39,175.3L39,175.3z M59.5,150.4l37.4-5.3l-0.1-0.4L59.4,150L59.5,150.4z M110.7,183.5v-18.2h-0.4v18.2
	H110.7z M110.7,165.3c0.1-1.8-0.2-3.7-0.8-5.4l-0.4,0.1c0.6,1.6,0.9,3.5,0.8,5.3L110.7,165.3L110.7,165.3z M109.9,159.9
	c-0.7-1.7-1.8-3.2-3.1-4.5l-0.3,0.4c1.3,1.2,2.4,2.6,3,4.2L109.9,159.9z M106.8,155.4c-1.3-1.2-2.9-2.2-4.7-2.7l-0.1,0.4
	c1.7,0.5,3.2,1.4,4.5,2.7L106.8,155.4z M102.2,152.7c-1.7-0.6-3.6-0.7-5.4-0.5l0.1,0.4c1.8-0.2,3.5-0.1,5.2,0.5L102.2,152.7z
	 M96.8,152.2l-37.3,5.2l0.1,0.4l37.3-5.2L96.8,152.2z M59.5,157.4c-3.9,0.8-7.6,3-10.1,6.1l0.3,0.3c2.5-3,6-5.3,9.9-6L59.5,157.4z
	 M49.4,163.4c-2.5,3.1-3.9,7-3.9,11h0.4c0-3.9,1.4-7.7,3.8-10.7L49.4,163.4z M45.5,174.4v18.2h0.4v-18.2H45.5z M45.5,192.6
	c-0.1,1.8,0.2,3.6,0.8,5.3l0.4-0.1c-0.6-1.6-0.9-3.4-0.8-5.2H45.5z M46.3,197.9c0.7,1.7,1.7,3.2,3,4.5l0.3-0.3
	c-1.3-1.2-2.3-2.7-2.9-4.3L46.3,197.9z M49.4,202.4c1.3,1.2,2.9,2.2,4.7,2.7l0.1-0.4c-1.7-0.5-3.2-1.4-4.5-2.7L49.4,202.4z
	 M54,205.1c1.7,0.6,3.6,0.7,5.4,0.5l-0.1-0.4c-1.8,0.2-3.5,0.1-5.2-0.5L54,205.1z M59.4,205.6l37.4-5.3l-0.1-0.4l-37.4,5.3
	L59.4,205.6z M96.8,200.4c3.9-0.8,7.4-2.9,10-6l-0.3-0.3c-2.5,3-5.9,5.1-9.8,5.8L96.8,200.4z M106.8,194.4c2.5-3.1,3.9-7,3.9-10.9
	h-0.4c0,3.9-1.4,7.7-3.8,10.7L106.8,194.4z"/>
<path class="st6" d="M87.8,180.2l-14.6-8l1.2-3.3l14.6,8L87.8,180.2z"/>
<path class="st6" d="M76.6,191.5l-15.3-9.4l11.9-9.9l16.4,7.4L76.6,191.5z"/>
<path class="st6" d="M75.4,190.4l-14.7-8.2l0.6-0.1l15.3,8.3H75.4z"/>
<path class="st8" d="M75.3,190.2l-14.6-8L75.3,190.2L75.3,190.2z"/>
<path class="st0" d="M72.9,194.6l-14.6-8c-0.8-0.4-1.4-1.1-1.8-1.9c-0.4-0.8-0.7-1.5-0.7-2.4l19.1,1.7c0,0.9-4.2,7.9-3.8,8.6
	C71.5,193.6,72.1,194.2,72.9,194.6z"/>
<path class="st9" d="M87.8,179.1l-14.6-8l-11.9-6.5l14.6,8L87.8,179.1z"/>
<path class="st0" d="M70.4,190.3l-14.6-8v-16.4l16.9,4.6L70.4,190.3z"/>
<path class="st0" d="M70.5,173.9l-14.7-7.8c0-0.7,0.3-1.7,0.5-2.4l14.6,8C70.6,172.4,70.5,173.2,70.5,173.9z"/>
<path class="st0" d="M70.9,171.7l-14.6-8c0.1-0.3,0.2-0.6,0.4-0.9l14.6,8C71.1,171.1,71,171.4,70.9,171.7z"/>
<path class="st0" d="M56.7,177.7v-14.8c0-0.3,0.4-0.7,0.6-0.9l15.9,6.3C73.1,168.2,56.8,177.4,56.7,177.7z"/>
<path class="st0" d="M71.7,170.2l-14.6-8l0.5-0.6l14.6,8L71.7,170.2z"/>
<path class="st0" d="M72.2,169.6l-14.6-8l0.5-0.5l14.6,8L72.2,169.6z"/>
<path class="st0" d="M70.6,171.5l-14.8-5.6c-0.5-1.5,2.6-6.5,4.3-5.9l17.3,7.8C76.5,168.1,71.9,170,70.6,171.5z"/>
<path class="st0" d="M74.1,168.1l-14.6-7.9c0.5-0.2,1-0.4,1.5-0.4c0.6-0.1,1.2-0.1,1.8,0l14.6,8c-0.6-0.1-1.2-0.1-1.8,0
	C75.1,167.7,74.6,167.9,74.1,168.1"/>
<path class="st0" d="M77,168.1l-14.4-8.3l1.2,0.3l14.6,8l-0.2-0.1"/>
<path class="st0" d="M77.4,167.7l-14.8-7.9c0.3,0.1,0.7,0.1,1,0.2l14.6,8C78,167.9,77.7,167.8,77.4,167.7z"/>
<path class="st7" d="M90.3,174.6c0.8,0.4,1.4,1.1,1.8,1.9c0.4,0.8,0.6,1.6,0.6,2.5c0,1-0.2,1.9-0.6,2.8c-0.4,0.9-1,1.6-1.8,2.2
	l-11.9,9.9c-0.8,0.7-1.7,1.1-2.8,1.2c-0.8,0.1-1.7,0-2.5-0.3c-0.8-0.4-1.5-1.1-2-1.8c-0.5-0.8-0.7-1.7-0.7-2.6V174
	c0-1,0.3-2,0.7-2.9c0.5-0.9,1.1-1.7,2-2.3c0.7-0.5,1.6-0.9,2.4-1c1-0.1,1.9,0,2.8,0.5L90.3,174.6z M87.8,180.2v-0.9l-11.9-6.4h-0.3
	h-0.3c-0.1,0.1-0.2,0.2-0.2,0.3s-0.1,0.2-0.1,0.3v16.4c0,0.1,0,0.2,0.1,0.3s0.1,0.2,0.2,0.2h0.6l11.9-9.9"/>
<path d="M90.3,174.6l0.1-0.2l0,0L90.3,174.6z M92.6,179h-0.2l0,0H92.6z M90.2,184l-0.1-0.2l0,0L90.2,184z M78.3,193.9l0.1,0.2l0,0
	L78.3,193.9z M75.6,195.1v-0.2l0,0V195.1z M73.1,194.8L73,195l0,0L73.1,194.8z M70.4,190.3h0.2l0,0H70.4z M70.4,173.9h-0.2l0,0H70.4
	z M73.1,168.7l-0.1-0.2l0,0L73.1,168.7z M75.6,167.6v-0.2l0,0V167.6z M78.4,168.1l0.1-0.2l0,0L78.4,168.1z M87.8,179.2H88v-0.1
	l-0.1-0.1L87.8,179.2z M75.9,172.8l0.1-0.2l0,0h-0.1V172.8z M75.4,172.8v-0.2h-0.1h-0.1L75.4,172.8z M75.1,173.4h-0.2l0,0H75.1z
	 M75.1,189.8h0.2l0,0H75.1z M75.4,190.3l-0.1,0.2l0,0l0,0L75.4,190.3L75.4,190.3z M75.9,190.3v0.2H76h0.1L75.9,190.3z M90.2,174.8
	c0.7,0.4,1.3,1,1.7,1.8l0.4-0.2c-0.4-0.8-1.1-1.5-1.9-1.9L90.2,174.8z M91.9,176.6c0.4,0.7,0.6,1.6,0.6,2.4h0.4
	c0-0.9-0.2-1.8-0.6-2.6L91.9,176.6z M92.4,179c0,0.9-0.2,1.9-0.6,2.7l0.4,0.2c0.4-0.9,0.7-1.9,0.7-2.9H92.4z M91.8,181.7
	c-0.4,0.8-1,1.6-1.7,2.2l0.3,0.3c0.8-0.6,1.4-1.4,1.8-2.3L91.8,181.7z M90.1,183.8l-11.9,9.9l0.3,0.3l11.9-9.9L90.1,183.8z
	 M78.2,193.7c-0.8,0.6-1.7,1-2.7,1.2l0.1,0.4c1-0.2,2-0.6,2.9-1.3L78.2,193.7z M75.5,194.9c-0.8,0.1-1.6,0-2.4-0.3L73,195
	c0.8,0.4,1.7,0.5,2.6,0.3L75.5,194.9z M73.2,194.6c-0.8-0.4-1.5-1-1.9-1.8L71,193c0.5,0.8,1.2,1.5,2.1,1.9L73.2,194.6z M71.3,192.8
	c-0.5-0.8-0.7-1.6-0.6-2.5h-0.4c0,1,0.2,1.9,0.7,2.8L71.3,192.8z M70.6,190.3v-16.4h-0.4v16.4H70.6z M70.6,173.9
	c0-1,0.4-1.9,0.8-2.8l-0.3-0.2c-0.5,0.9-0.8,2-0.9,3H70.6z M71.4,171.1c0.5-0.9,1.1-1.7,1.9-2.3l-0.2-0.3c-0.8,0.6-1.5,1.5-2,2.4
	L71.4,171.1z M73.3,168.8c0.7-0.5,1.5-0.9,2.4-1l-0.1-0.4c-0.9,0.1-1.8,0.5-2.5,1.1L73.3,168.8z M75.6,167.8c0.9-0.1,1.8,0,2.7,0.5
	l0.2-0.4c-0.9-0.5-1.9-0.6-2.9-0.5L75.6,167.8z M78.3,168.3l11.9,6.5l0.2-0.4l-11.9-6.5L78.3,168.3z M88,180.6v-1.3h-0.4v0.9
	L88,180.6z M87.9,179.1L76,172.7l-0.2,0.4l11.9,6.4L87.9,179.1z M75.9,172.6h-0.3v0.4h0.3V172.6z M75.6,172.6h-0.3v0.4h0.3V172.6z
	 M75.2,172.7c-0.1,0.1-0.2,0.2-0.3,0.3l0.4,0.2c0-0.1,0.1-0.1,0.2-0.2L75.2,172.7z M75,173c-0.1,0.1-0.1,0.3-0.1,0.4h0.4
	c0-0.1,0-0.2,0.1-0.3L75,173z M74.9,173.4v16.4h0.4v-16.4H74.9z M74.9,189.8c0,0.1,0,0.3,0.1,0.4l0.3-0.2c0-0.1,0-0.1,0-0.2H74.9z
	 M75,190.2c0.1,0.1,0.2,0.2,0.3,0.3l0.2-0.4c-0.1,0-0.1-0.1-0.1-0.1L75,190.2z M75.4,190.5H76v-0.4h-0.6V190.5z M76.1,190.5l12-9.9
	l-0.3-0.3l-11.9,9.9L76.1,190.5z"/>
<path class="st6" d="M197.6,205.1l-14.6-8c1.4-0.2,2.7-0.6,4-1.2l14.7,8C200.4,204.5,199.1,204.9,197.6,205.1"/>
<path class="st6" d="M184.1,213.1L187,196c0.8-0.4,1.5-0.8,2.2-1.3l18.7,4.8c-0.7,0.5-6.2,5.3-6.9,5.7"/>
<path class="st6" d="M203.8,202.8l-14.6-8c0.6-0.4,1.1-0.9,1.6-1.3l14.6,8C205,202,204.4,202.4,203.8,202.8z"/>
<path class="st6" d="M205.7,203.7l-14.9-10.3c0.5-0.4,1-0.9,1.4-1.4l21.4-2.3C213.3,190.2,206.2,203.3,205.7,203.7z"/>
<path class="st6" d="M206.9,199.9l-14.6-8c0.5-0.5,0.9-1,1.3-1.6l14.6,8C207.7,198.9,207.3,199.4,206.9,199.9"/>
<path class="st6" d="M203.5,207.4l-10.1-17c0.4-0.6,0.8-1.2,1.1-1.8l22.1-0.9C216.4,188.3,203.9,206.8,203.5,207.4z"/>
<path class="st6" d="M209.3,196.5l-14.6-8c0.4-0.7,0.7-1.5,1-2.3l14.6,8C210,195,209.7,195.8,209.3,196.5z"/>
<path class="st6" d="M208.9,199.5l-13.2-13.3c0.7-1.9,1.1-3.9,1.1-5.9l16.8,4.4c-0.1,2-2.7,7.7-3.3,9.5"/>
<path class="st6" d="M211.4,188.4l-14.6-8v-18.2l14.6,8V188.4z"/>
<path class="st6" d="M178.9,208.6l-12.8-9.1l16.9-2.4l14.6,8L178.9,208.6z"/>
<path class="st6" d="M214.8,180.8l-18.1-18.6c0.1-2.3-0.5-4.7-1.6-6.7s-2.8-3.7-4.8-4.9l15.2,6.5c2,1.2,4.4,3,5.5,5.1
	C212.1,164.3,214.9,178.4,214.8,180.8z"/>
<path class="st6" d="M173.4,206.3l-14.6-8l0.4,0.2l14.6,8L173.4,206.3z"/>
<path class="st6" d="M173.9,206.5l-14.6-8c0.7,0.3,1.4,0.6,2.1,0.8l14.7,8C175.3,207.1,174.6,206.8,173.9,206.5"/>
<path class="st6" d="M176,207.3l-14.6-8c1.5,0.4,3.1,0.5,4.7,0.3l14.6,8C179.2,207.8,177.6,207.7,176,207.3z"/>
<path class="st0" d="M197.7,149.9l-16.4-7.7c2.4-0.3,7.2-0.5,9.5,0.1l14.6,7.9C203.1,149.7,200.2,149.5,197.7,149.9"/>
<path class="st0" d="M204.9,150.2l-14.6-8c1.1,0.3,2.2,0.7,3.2,1.2l14.6,8C207.1,150.9,206,150.5,204.9,150.2z"/>
<path class="st0" d="M208.1,151.5l-14.6-8l0.6,0.3l14.6,8L208.1,151.5z"/>
<path class="st0" d="M170.4,213.2l-15.4-8.1c-3-1.8-5.5-4.3-7.2-7.4c-1.7-3.1-2.4-7.3-2.2-10.7l15.1,8.5c-0.1,3.5,0.6,6.6,2.3,9.7
	C164.7,208.3,167.4,211.4,170.4,213.2z"/>
<path class="st0" d="M165,162.5l1.2-18.2l17-2.3l22.2,8.2L165,162.5z"/>
<path class="st0" d="M160.2,195.6l-14.6-8v-18.2l14.6,8V195.6z"/>
<path class="st0" d="M160.2,177.4l-14.6-4.6c-0.2-6.8,0.9-11.9,2.6-14.8l13.6,10.6C160.8,171.4,160.2,174.4,160.2,177.4z"/>
<path class="st0" d="M161.8,168.6l-14.7-8c0.4-1.2,0.9-2.3,1.5-3.5l14.6,8C162.7,166.3,162.2,167.4,161.8,168.6"/>
<path class="st0" d="M163,166.5l-14.8-8.5c0.5-0.9,1.6-2.6,2.2-3.5l14.6,8C164.5,163.3,163.5,165.6,163,166.5z"/>
<path class="st0" d="M164.2,164.3l-17.6-5.3c0.6-0.8,5-6.2,5.7-6.9l14.6,8c-0.7,0.7-1.3,1.5-1.8,2.3"/>
<path class="st0" d="M166.9,160.1l-16.4-6.1c0.6-0.8,3.1-3.3,3.9-4l14.6,7.9C168.3,158.5,167.6,159.2,166.9,160.1"/>
<path class="st0" d="M169,157.9l-7.8-3.4l-7.8-3.4c0.6-1.1,2.7-2.6,3.5-3.2l18.1,7.2C174.1,155.8,169.8,157.2,169,157.9z"/>
<path class="st0" d="M171.5,156l-14.7-8c1-0.7,2.1-1.4,3.2-1.9l14.6,8C173.5,154.6,172.4,155.3,171.5,156"/>
<path class="st0" d="M173.2,155.7l-14.8-8.5c1.8-2.1,7.9-3,10.6-3.3l13.8,9C180.8,153.2,175.1,154.8,173.2,155.7z"/>
<path class="st3" d="M188.9,122.1L188.9,122.1c9.4-1.4,19,0,27.6,4c9.4,4.4,17,11.8,21.8,21c0.4,0.9,0.5,2,0.3,2.9
	c-0.3,1-0.8,1.9-1.7,2.4c-0.5,0.4-1.1,0.6-1.7,0.7l0,0c-0.6,0.1-1.3,0-1.8-0.3c-0.6-0.3-1-0.7-1.3-1.3l0,0
	c-4.2-8-10.9-14.5-19.1-18.4l0,0c-7.6-3.5-16-4.7-24.2-3.4l0,0c-9.3,1.6-18.1,5.5-25.6,11.2s-13.5,13.2-17.5,21.7
	c-13.5,27.3-5.3,58.4,18.3,69.5l0,0c7.6,3.5,16,4.7,24.2,3.5l0,0c9.3-1.6,18-5.4,25.5-11.1c7.5-5.7,13.5-13.1,17.5-21.6
	c4.1-8.2,6.3-17.2,6.4-26.4l0,0c0-1,0.4-2,1-2.8c0.7-0.8,1.6-1.3,2.5-1.5c0.5-0.1,0.9-0.1,1.4,0.1c0.1,0,0.3,0.1,0.5,0.2
	c0.2,0.1,0.4,0.2,0.6,0.3c0.3,0.3,0.6,0.9,0.8,1.3c0.2,0.4,0.2,0.9,0.2,1.4l0,0l0,0c-0.2,10.5-2.7,20.8-7.4,30.2l0,0
	c-10.5,21.1-29.6,34.9-49.3,37.6l0,0c-9.4,1.4-19,0-27.6-4c-27-12.8-36.4-48.2-20.9-79.5C150.1,138.7,169.2,124.9,188.9,122.1z"/>
<path class="st6" d="M185.2,193.3l-10.6-9.7c0.9-0.1,1.7-0.3,2.5-0.7l16.1,8.2c-0.8,0.4-6,2.2-6.8,2.3"/>
<path class="st6" d="M191.7,190.8l-14.6-8c0.5-0.2,1-0.5,1.4-0.8l15.8,7.2C193.9,189.6,192.2,190.6,191.7,190.8"/>
<path class="st6" d="M190.3,193l-11.8-11l1-0.8l16.2,6.1C195.4,187.6,190.6,192.7,190.3,193z"/>
<path class="st6" d="M194.1,189.2l-14.6-8l0.9-0.9l15.6,7.8C195.7,188.4,194.4,188.9,194.1,189.2z"/>
<path class="st6" d="M195,188.3l-14.6-8c0.3-0.3,0.5-0.6,0.7-1l14.6,8C195.5,187.7,195.3,188,195,188.3"/>
<path class="st6" d="M190.5,196.1l-9.4-16.7c0.3-0.4,0.5-0.7,0.7-1.1l22,3.6C203.6,182.2,190.8,195.7,190.5,196.1z"/>
<path class="st6" d="M196.4,188.6l-14.6-10.3c0.2-0.5,3.1-3.9,3.2-4.4l13.3,10C198.2,184.3,196.6,188.1,196.4,188.6z"/>
<path class="st6" d="M197.1,184.8l-14.6-8c0.4-1.2,0.6-2.4,0.6-3.6c0.1-1.4,0-2.6-0.6-3.9c-0.7-1.3,2.8,0.7,1.6,0l9.7,4.6
	c1.3,0.7,3.5,1.3,4.2,2.5c0.7,1.3,1.3,3.3,1.3,4.7C199.2,182.4,197.5,183.6,197.1,184.8"/>
<path class="st0" d="M186.7,162.5l7.8,3.6c-17.8,4.1-17.8,16.6-12.4,31.9l-10.5-4.8c-3-1.7-4.3-3.7-4.5-4.7
	c-2-9.8,1.1-21.1,3.3-23.2c2.4-2.3,7.2-3.9,11.8-3.9C183.7,161.3,185.2,161.8,186.7,162.5z"/>
<path class="st7" d="M189.3,165.8c2-0.3,4-0.1,6,0.5c1.9,0.6,3.7,1.7,5.2,3.1c1.5,1.4,2.6,3.1,3.3,5s1,3.9,0.9,5.9
	c0,4.4-1.5,8.7-4.3,12.1c-2.8,3.4-6.7,5.7-11.1,6.6c-2,0.3-4,0.1-5.9-0.5s-3.7-1.7-5.1-3c-1.5-1.4-2.6-3.1-3.3-4.9
	c-0.7-1.9-1-3.9-0.9-5.9c0-4.4,1.5-8.7,4.3-12.1C181,169.1,184.9,166.7,189.3,165.8z M189.3,191.5c2.4-0.5,4.6-1.7,6.1-3.6
	c1.6-1.9,2.4-4.3,2.4-6.7c0.1-1.1-0.1-2.2-0.5-3.3c-0.4-1-1-2-1.8-2.7c-0.8-0.8-1.8-1.3-2.8-1.7c-1.1-0.3-2.2-0.4-3.3-0.3
	c-2.4,0.5-4.6,1.8-6.1,3.6c-1.6,1.9-2.4,4.3-2.4,6.7c-0.1,1.1,0.1,2.2,0.5,3.3c0.4,1,1,2,1.9,2.7c0.8,0.8,1.8,1.3,2.8,1.7
	C187,191.6,188.1,191.7,189.3,191.5"/>
<path d="M189.3,165.8v-0.2l0,0V165.8z M204.6,180.3h-0.2l0,0l0,0H204.6z M189.2,199v0.2l0,0V199z M173.9,184.6h0.2l0,0H173.9z
	 M197.7,181.2h-0.2l0,0l0,0H197.7z M189.3,173.2V173l0,0V173.2z M180.7,183.5h0.2l0,0H180.7z M189.3,166c2-0.3,4-0.1,5.9,0.5
	l0.1-0.4c-2-0.6-4-0.8-6.1-0.5L189.3,166z M195.2,166.5c1.9,0.6,3.5,1.7,5,3.1l0.4-0.2c-1.5-1.4-3.4-2.7-5.3-3.3L195.2,166.5z
	 M200.2,169.6c1.4,1.4,2.6,3,3.3,4.9l0.4-0.1c-0.7-1.9-1.9-3.6-3.4-5.1L200.2,169.6z M203.5,174.5c0.7,1.9,1,3.9,0.9,5.8h0.4
	c0.2-2-0.1-4.1-0.9-6L203.5,174.5z M204.4,180.3c0,4.4-1.5,8.6-4.3,12l0.3,0.3c2.8-3.4,4.4-7.9,4.4-12.3H204.4L204.4,180.3z
	 M200.1,192.3c-2.8,3.4-6.6,5.7-10.9,6.5l0.1,0.4c4.4-0.9,8.3-3.2,11.2-6.7L200.1,192.3z M189.2,198.8c-2,0.3-4,0.1-5.9-0.5
	l-0.1,0.4c1.9,0.6,4,0.8,6,0.5V198.8z M183.3,198.3c-1.9-0.6-3.6-1.6-5.1-3l-0.3,0.3c1.5,1.4,3.3,2.5,5.2,3.1L183.3,198.3z
	 M178.2,195.3c-1.4-1.4-2.6-3-3.3-4.9l-0.4,0.1c0.7,1.9,1.9,3.6,3.4,5L178.2,195.3z M175,190.5c-0.7-1.8-1-3.8-0.9-5.8h-0.4
	c-0.1,2,0.2,4.1,0.9,6L175,190.5z M174.1,184.6c0-4.4,1.5-8.6,4.3-12l-0.3-0.3c-2.8,3.5-4.4,7.8-4.4,12.3H174.1z M178.4,172.6
	c2.8-3.4,6.6-5.7,10.9-6.6l-0.1-0.4c-4.4,0.9-8.3,3.3-11.1,6.7L178.4,172.6z M189.3,191.7c2.4-0.5,4.6-1.8,6.2-3.7l-0.3-0.3
	c-1.5,1.9-3.6,3.1-6,3.6L189.3,191.7z M195.5,188c1.6-1.9,2.4-4.3,2.4-6.8h-0.4c0,2.4-0.8,4.7-2.3,6.6L195.5,188z M197.9,181.2
	c0.1-1.1,0-2.3-0.4-3.4l-0.4,0.2c0.4,1,0.5,2.1,0.4,3.2H197.9z M197.5,177.8c-0.4-1.1-1.1-2-1.9-2.8l-0.2,0.3
	c0.8,0.7,1.3,1.7,1.7,2.7L197.5,177.8z M195.6,175c-0.8-0.8-1.8-1.4-2.9-1.7l-0.1,0.4c1,0.3,2,0.9,2.8,1.6L195.6,175z M192.6,173.3
	c-1.1-0.4-2.2-0.4-3.4-0.3l0.1,0.4c1.1-0.1,2.2-0.1,3.2,0.3L192.6,173.3z M189.2,173c-2.5,0.5-4.7,1.8-6.3,3.7l0.3,0.3
	c1.5-1.9,3.7-3.1,6-3.6V173z M183,176.7c-1.6,1.9-2.5,4.3-2.5,6.9h0.4c0-2.4,0.8-4.7,2.4-6.6L183,176.7z M180.5,183.5
	c-0.1,1.1,0.1,2.3,0.5,3.4l0.4-0.1c-0.4-1-0.6-2.1-0.5-3.2L180.5,183.5z M181,186.9c0.4,1.1,1.1,2,1.9,2.8l0.3-0.3
	c-0.8-0.7-1.4-1.6-1.8-2.7L181,186.9z M182.9,189.7c0.8,0.8,1.8,1.4,2.9,1.7l0.1-0.4c-1-0.3-2-0.9-2.8-1.6L182.9,189.7z
	 M185.9,191.4c1.1,0.3,2.3,0.4,3.4,0.3l-0.1-0.4c-1.1,0.1-2.2,0.1-3.2-0.3L185.9,191.4z"/>
<path class="st0" d="M206.5,162.4l-14.6-8c0.3,0,0.6,0,0.9,0l14.6,8C207.4,162.5,206.8,162.3,206.5,162.4z"/>
<path class="st0" d="M207.4,162.4l-14.6-8h0.4L208,163L207.4,162.4z"/>
<path class="st0" d="M207.8,162.6l-14.6-7.9L207.8,162.6"/>
<path class="st0" d="M205.1,167.7l-14.6-8c-0.4-0.2-0.7-0.5-0.9-0.9s-0.3-0.8-0.3-1.3c0-0.4,0.1-0.7,0.2-1.1l15.6,6.6
	c-0.1,0.4-1.2,1.9-1.2,2.3c0,0.4,0.1,0.9,0.3,1.3c0.2,0.4,0.5,0.7,0.9,0.9"/>
<path class="st0" d="M204.1,164.3l-14.6-8l0.2-0.4l14.6,8L204.1,164.3z"/>
<path class="st0" d="M204.3,164l-14.6-8l0.2-0.4l14.6,8L204.3,164z"/>
<path class="st0" d="M204.5,164.8l-14.6-9.1l4.4-0.5l12.5,7.4l-2.1,1.1"/>
<path class="st0" d="M204.9,163.4l-14.6-8l0.3-0.3l14.3,7.9l-0.3,0.3"/>
<path class="st0" d="M204.9,163.1l-14.6-7.9l0.3-0.3l14.6,8L204.9,163.1z"/>
<path class="st0" d="M205.3,162.9l-14.6-8l0.4-0.2l14.6,8L205.3,162.9"/>
<path class="st0" d="M205.7,162.6l-14.6-7.9c0.2-0.1,0.5-0.2,0.7-0.2l14.6,8C206.2,162.4,206,162.5,205.7,162.6"/>
<path class="st7" d="M197.7,149.9c11.4-1.6,20.6,7.1,20.6,19.3v18.2c0,5.9-2.1,11.6-5.9,16.2c-3.8,4.6-9,7.7-14.8,8.8l-16.9,2.4
	c-11.4,1.6-20.6-7.1-20.5-19.3v-18.2c0-12.3,9.3-23.5,20.6-25.1L197.7,149.9z M211.4,188.4v-18.2c0.1-1.8-0.2-3.6-0.8-5.3
	c-0.7-1.7-1.7-3.2-3-4.4s-2.9-2.2-4.6-2.7c-1.7-0.5-3.5-0.7-5.3-0.5l-16.9,2.4c-3.9,0.8-7.4,2.9-9.9,5.9c-2.5,3.1-3.9,6.9-3.9,10.8
	v18.2c-0.1,1.8,0.1,3.6,0.8,5.3s1.7,3.2,3,4.4s2.9,2.2,4.6,2.7c1.7,0.5,3.5,0.7,5.3,0.5l16.9-2.4c3.9-0.8,7.3-2.9,9.8-5.9
	C210,196.2,211.4,192.3,211.4,188.4"/>
<path d="M197.7,149.9v0.2l0,0V149.9z M218.3,169.1h-0.2l0,0H218.3z M218.3,187.4h0.2l0,0H218.3z M197.6,212.4v0.2l0,0V212.4z
	 M180.7,214.8v-0.2l0,0V214.8z M160.2,195.5h0.2l0,0H160.2z M180.8,152.3v-0.2l0,0V152.3z M211.4,170.2h-0.2l0,0H211.4z
	 M197.7,157.3v-0.2l0,0V157.3z M180.8,159.7v-0.2l0,0V159.7z M167.1,176.5h0.2l0,0H167.1z M167.1,194.7h0.2l0,0H167.1z M180.7,207.5
	v0.2l0,0V207.5z M197.6,205.1v0.2l0,0V205.1z M197.7,150.1c11.2-1.6,20.4,7,20.3,19.1h0.4c0-12.3-9.3-21.2-20.8-19.5L197.7,150.1z
	 M218.1,169.1v18.2h0.4v-18.2H218.1z M218.1,187.4c0,5.9-2.1,11.6-5.8,16.1l0.3,0.3c3.8-4.6,5.9-10.4,5.9-16.3L218.1,187.4z
	 M212.3,203.5c-3.7,4.5-8.9,7.6-14.7,8.8l0.1,0.4c5.8-1.2,11.1-4.3,14.9-8.9L212.3,203.5z M197.6,212.2l-16.9,2.4l0.1,0.4l16.9-2.4
	L197.6,212.2z M180.7,214.6c-11.2,1.6-20.3-7-20.3-19.1H160c0,12.3,9.3,21.1,20.8,19.4L180.7,214.6z M160.4,195.5v-18.2H160v18.2
	H160.4z M160.4,177.4c0-12.2,9.2-23.3,20.4-24.9l-0.1-0.4c-11.4,1.6-20.8,13-20.8,25.3L160.4,177.4L160.4,177.4z M180.8,152.5
	l16.9-2.4l-0.1-0.4l-16.9,2.4L180.8,152.5z M211.6,188.4v-18.2h-0.4v18.2H211.6z M211.6,170.2c0.1-1.8-0.2-3.7-0.8-5.4l-0.4,0.1
	c0.6,1.6,0.9,3.5,0.8,5.3L211.6,170.2L211.6,170.2z M210.8,164.8c-0.7-1.7-1.7-3.2-3-4.5l-0.3,0.3c1.3,1.2,2.3,2.7,2.9,4.3
	L210.8,164.8z M207.8,160.3c-1.3-1.2-3-2.2-4.8-2.7l-0.1,0.4c1.7,0.5,3.3,1.3,4.6,2.6L207.8,160.3z M203,157.6
	c-1.7-0.6-3.6-0.7-5.4-0.5l0.1,0.4c1.8-0.2,3.5-0.1,5.2,0.5L203,157.6z M197.7,157.1l-17.1,2.4l0.2,0.5l17-2.5L197.7,157.1z
	 M180.7,159.5c-3.9,0.8-7.4,2.9-10,6l0.3,0.3c2.5-3,5.9-5.1,9.8-5.8L180.7,159.5z M170.8,165.5c-2.5,3.1-3.9,7-3.9,11h0.4
	c0-3.9,1.3-7.7,3.8-10.7L170.8,165.5z M166.9,176.5v18.2h0.4v-18.2H166.9z M166.9,194.7c-0.1,1.8,0.2,3.6,0.8,5.3l0.4-0.1
	c-0.6-1.6-0.9-3.4-0.8-5.2H166.9z M167.7,200c0.7,1.7,1.7,3.2,3,4.5l0.3-0.3c-1.3-1.2-2.3-2.7-2.9-4.3L167.7,200z M170.7,204.5
	c1.3,1.2,2.9,2.2,4.7,2.7l0.1-0.4c-1.7-0.5-3.2-1.4-4.5-2.7L170.7,204.5z M175.4,207.2c1.7,0.6,3.6,0.7,5.4,0.5l-0.1-0.4
	c-1.7,0.2-3.5,0.1-5.2-0.5L175.4,207.2z M180.7,207.7l16.9-2.4l-0.1-0.4l-16.9,2.4L180.7,207.7z M197.7,205.3c3.9-0.8,7.4-2.9,10-6
	l-0.3-0.3c-2.5,3-5.9,5.1-9.7,5.9V205.3z M207.6,199.3c2.5-3.1,4-7,4-11h-0.2c0,3.9-1.6,7.7-4.1,10.7L207.6,199.3z"/>
<path class="st10" d="M208.9,164.8L208.9,164.8L208.9,164.8c0,0.7-0.2,1.4-0.7,2s-1.1,1-1.8,1.1c-0.3,0-0.6,0-0.9-0.1
	c-0.3-0.1-0.6-0.3-0.8-0.5s-0.4-0.5-0.5-0.8s-0.2-0.6-0.1-0.9l0,0l0,0c0-0.7,0.2-1.4,0.7-2s1.1-1,1.8-1.1c0.3,0,0.6,0,1,0.1
	c0.3,0.1,0.6,0.3,0.8,0.5s0.4,0.5,0.5,0.8C208.9,164.2,209,164.5,208.9,164.8z"/>
</svg>
