<?xml version="1.0" encoding="utf-8"?>
<!-- Generator: Adobe Illustrator 24.0.0, SVG Export Plug-In . SVG Version: 6.00 Build 0)  -->
<svg version="1.1" id="Слой_1" xmlns="http://www.w3.org/2000/svg" xmlns:xlink="http://www.w3.org/1999/xlink" x="0px" y="0px"
	 viewBox="0 0 600 250" style="enable-background:new 0 0 600 250;" xml:space="preserve">
<style type="text/css">
	.st0{fill:#882F40;}
	.st1{fill:#9A384B;}
	.st2{fill:#944D5D;}
	.st3{fill:#904A5A;}
	.st4{fill:#793E4B;}
	.st5{fill:#40689D;}
	.st6{fill:#773D4A;}
	.st7{fill:#9F5263;}
	.st8{fill:#7D414E;}
	.st9{fill:#824351;}
	.st10{fill:#874654;}
	.st11{fill:#8B4857;}
	.st12{fill:#994F60;}
	.st13{fill:#9C4354;}
	.st14{fill-rule:evenodd;clip-rule:evenodd;fill:#E87891;stroke:#000000;stroke-width:0.25;}
	.st15{fill:#B4D1FA;stroke:#000000;stroke-width:0.2;}
	.st16{fill:#B4D1FA;}
	.st17{fill:#B4D1FA;stroke:#000000;stroke-width:0.25;}
	.st18{fill:#E87891;stroke:#000000;stroke-width:0.25;}
	.st19{fill:#E87891;}
</style>
<path class="st0" d="M407.7,182.2l-11.7-6.3h0.1L407.7,182.2L407.7,182.2z M407.9,182.2l-11.7-6.3h0.5c0.1,0,0.2-0.1,0.5-0.1
	l11.7,6.3c-0.1,0.1-0.2,0.1-0.5,0.1H407.9z"/>
<path class="st0" d="M408.9,182.1l-11.7-6.3l0.4-0.1l11.7,6.3L408.9,182.1z M409.2,182l-11.7-6.3L409.2,182"/>
<path class="st0" d="M407.7,183.3l-14.2-8.4c2.1,0.9,4,1.7,4.8-0.6l14.4,6.2L407.7,183.3L407.7,183.3z"/>
<path class="st0" d="M409.5,181.6l-11.7-6.5h0.1l11.8,6.3v0.1"/>
<path class="st0" d="M409.8,181.5l-11.8-6.3V175l11.8,6.3V181.5z M409.8,181.4l-11.7-6.3c0-0.1,0.1,0,0.1-0.1l11.7,6.2
	C409.8,181.1,409.8,181.3,409.8,181.4 M409.9,181l-11.7-6.3c0.1-0.2,0.1-0.5,0.1-0.7l11.7,6.3v0.7"/>
<path class="st0" d="M412.2,182.7l-13.9-8.8l0.1-54.9l11.7,6.3L412.2,182.7L412.2,182.7z"/>
<path class="st1" d="M363.2,208.7l-10.1-7.4c0.5,0,3.9-1.3,4.4-1.6l18.7,2.8c-0.5,0.2-9,8.4-9.6,8.4"/>
<path class="st1" d="M366.3,207.3l-11.7-6.3c0.2-0.1,0.6-0.2,0.9-0.5l11.7,6.3C366.9,207,366.7,207.3,366.3,207.3"/>
<path class="st1" d="M367.2,206.8l-11.7-6.3l0.6-0.5l11.7,6.3L367.2,206.8z"/>
<path class="st1" d="M367.8,206.3l-11.7-6.3l0.5-0.5l11.7,6.3L367.8,206.3z"/>
<path class="st1" d="M368.3,205.8l-11.7-6.3l0.5-0.6l11.7,6.3L368.3,205.8z"/>
<path class="st1" d="M368.8,205.2l-11.7-6.3l0.4-0.6l11.7,6.3L368.8,205.2z M369.3,204.6l-11.7-6.3c0.1-0.2,0.2-0.6,0.4-0.9
	l11.7,6.3C369.5,204,369.4,204.2,369.3,204.6z"/>
<path class="st1" d="M366,212.4l-9.5-12.9c0.2-0.7,2.1-1.1,1.8-6.7l11.6,8.7C370,202.2,366.3,211.8,366,212.4z"/>
<path class="st0" d="M410.1,125.5l-11.7-6.3c0-0.2,0-0.5-0.2-0.7c-0.1-0.2-0.4-0.5-0.6-0.6l11.7,6.3c0.2,0.1,0.4,0.4,0.6,0.6
	C410,124.9,410.1,125.2,410.1,125.5z"/>
<path class="st2" d="M377.4,181.6l-11.7-6.3l2,0.7l11.7,6.3L377.4,181.6z"/>
<path class="st0" d="M381.7,172l-11.7-6.3l26.1,10.2l11.7,6.3L381.7,172z"/>
<path class="st3" d="M381.5,171.9l-11.7-6.3L381.5,171.9z"/>
<path class="st2" d="M381.6,171.9l-11.7-6.3L381.6,171.9z"/>
<path class="st3" d="M376.5,181.1l-11.7-6.3l0.4,0.1l11.7,6.3L376.5,181.1z"/>
<path class="st2" d="M376.8,181.4l-11.7-6.3l0.7,0.4l11.7,6.3L376.8,181.4z"/>
<path class="st1" d="M401,121.2l-9-12c0.5-0.4,2.2-1.6,3.4-1.6l12.9,7.3C407.7,115.4,401.5,120.9,401,121.2L401,121.2z"/>
<path class="st1" d="M405.4,114.8l-11.7-6.5c1-0.5,2.1-0.7,3.3-0.9c1.2-0.2,2.6-0.1,3.8,0.2l11.7,6.3c-1.2-0.4-2,1.1-3.2,1.2
	C408.1,115.4,406.4,114.3,405.4,114.8"/>
<path class="st1" d="M412.3,114.1l-11.7-6.3c0.6,0.1,1.2,0.4,1.7,0.6l11.7,6.3C413.6,114.4,412.9,114.2,412.3,114.1z"/>
<path class="st4" d="M376.5,181.1l-11.7-6.3c-1.6-1-2.9-2.3-3.9-3.9c-0.9-1.6-1.3-3.5-1.2-5.4l11.8,6.3c-0.1,1.8,0.4,3.8,1.2,5.4
	S374.9,180.3,376.5,181.1"/>
<path class="st5" d="M351.6,195.1l-11.7-6.3c0.5-0.1,1.1-0.1,1.6,0l12.3,6.8C353.2,195.4,351.9,195.1,351.6,195.1"/>
<path class="st5" d="M353,195.4l-11.7-6.6c0.2,0.1,0.5,0.1,0.7,0.2l12.1,6.7C354,195.9,353.3,195.4,353,195.4z"/>
<path class="st1" d="M379.5,132l-11.7-6.3l24.2-16.3l14.6,7.4L379.5,132z"/>
<path class="st6" d="M371.3,171.9l-11.7-6.3v-27.1l11.7,6.3V171.9z"/>
<path class="st7" d="M377.6,133.3l-11.7-6.3l2-1.3l11.7,6.3L377.6,133.3z"/>
<path class="st4" d="M371.5,144.8l-11.7-6.3c0-1.6,0.2-3.2,0.9-4.6l11.7,6.3C371.7,141.6,371.5,143.2,371.5,144.8z"/>
<path class="st8" d="M372.3,140.2l-11.7-6.3c0.2-0.6,0.5-1.2,0.9-1.8l11.7,6.3C372.8,138.9,372.6,139.5,372.3,140.2z"/>
<path class="st9" d="M373,138.3l-11.7-6.3c0.2-0.5,0.6-1,0.9-1.5l11.7,6.3C373.7,137.4,373.4,137.8,373,138.3z"/>
<path class="st10" d="M374,136.9l-11.7-6.3c0.4-0.4,0.6-0.9,1-1.2l11.7,6.3C374.6,136,374.3,136.5,374,136.9z"/>
<path class="st11" d="M375,135.6l-11.7-6.3l1.1-1.1l11.7,6.3C375.7,134.9,375.2,135.3,375,135.6z"/>
<path class="st3" d="M376.1,134.5l-11.7-6.3c0.4-0.4,0.9-0.7,1.3-1.1l11.7,6.3C377,133.8,376.5,134.2,376.1,134.5z"/>
<path class="st2" d="M377.4,133.4l-11.7-6.3h0.1l11.7,6.3H377.4z"/>
<path class="st1" d="M372.8,203.6l-14.5-8.5l0.1-85.5l11.7,6.3L372.8,203.6L372.8,203.6z"/>
<path class="st1" d="M370.1,116l-11.7-6.3c0-0.9-0.1-1.7-0.6-2.4c-0.4-0.7-1-1.3-1.8-1.8l12.2,5.1c0.7,0.5,1.5,1.7,1.8,2.4
	C370.4,113.7,370.2,115.1,370.1,116z"/>
<path class="st3" d="M296.1,111.5l-11.7-6.3l1.3,0.7l11.7,6.3C296.9,112,296.4,111.7,296.1,111.5z"/>
<path class="st2" d="M297.4,112.2l-11.7-6.3c2.3,1.2,4.9,2.1,7.3,2.7l11.7,6.3C302.3,114.3,299.9,113.4,297.4,112.2z"/>
<path class="st12" d="M304.9,114.9l-11.7-6.3c5.2,1.3,10.9,1.6,16.2,0.9c4.8-0.7,9.4-2.1,13.8-4.1l11.7,6.3c-4.4,2.1-9,3.4-13.8,4.1
	C315.6,116.6,310.1,116.4,304.9,114.9z"/>
<path class="st1" d="M206.7,229.9l-11.7-6.3l158.2-22.2l11.7,6.5L206.7,229.9z M204,229.5l-11.7-6.3h0.1l11.7,6.5L204,229.5"/>
<path class="st1" d="M204.1,229.5l-11.7-6.3c0.2,0.1,0.5,0.2,0.9,0.4l11.7,6.3C204.7,229.7,204.5,229.7,204.1,229.5z"/>
<path class="st1" d="M204.9,229.8l-11.6-6.3c0.6,0.1,1.2,0.1,1.7,0l13.5,7.2c-0.6,0.1-4.3,0.1-4.8,0 M192.3,212.7l-11.8-6.2
	c0-0.7,0.1-1.7,0.4-2.4l14.3,4.6C194.8,209.4,192.1,211.9,192.3,212.7"/>
<path class="st1" d="M192.6,210.4l-11.7-6.3c0.1-0.4,0.2-0.6,0.4-0.9l11.7,6.3C192.9,209.8,192.7,210.1,192.6,210.4z"/>
<path class="st1" d="M193,209.6l-12.2-5.4l0.9-1.7l11.7,6.3L193,209.6L193,209.6z"/>
<path class="st1" d="M193.1,209.4l-11.5-7c0.1-0.1,0.6-1,1.5-1.6l11.5,6.7C194.5,207.7,193.2,209.3,193.1,209.4z"/>
<path class="st1" d="M193.8,208.3l-11.7-6.5l0.5-0.5l11.7,6.3C194.3,207.7,193.8,208.3,193.8,208.3z"/>
<path class="st1" d="M194.3,207.9l-11.7-6.3l0.5-0.5l11.7,6.5L194.3,207.9L194.3,207.9z"/>
<path class="st1" d="M193.8,209.2l-10.7-8.3l0.7-0.4l11.7,6.5L193.8,209.2z"/>
<path class="st1" d="M195.4,207.3l-11.8-6.6c0.2-0.1,1.2-0.4,1.5-0.4l11.3,6.3C196.3,206.8,195.7,207.1,195.4,207.3z M194.6,240.9
	l-11.7-6.3c-0.7-0.5-1.3-1.1-1.8-1.8c-0.4-0.7-0.6-2.3-0.6-3.2l11.7,7.1c0,0.9,0.1,1.7,0.6,2.4C193.2,239.8,193.8,240.4,194.6,240.9
	z"/>
<path class="st1" d="M196.4,206.8l-11.6-6.5c0.7-0.1,1.3-0.1,2.1,0l11.6,6.5c-0.7-0.1-1.3-0.1-2-0.1"/>
<path class="st1" d="M198.5,206.8l-11.6-6.5c0.2,0.1,0.7,0.2,1,0.4l11.6,6.3C199.1,206.9,198.7,206.8,198.5,206.8z"/>
<path class="st1" d="M199.3,207l-11.7-6.3h0.1l11.7,6.5L199.3,207 M192.1,237l-11.7-6.8v-23.9l11.7,6.3V237L192.1,237z M194.5,198.5
	l-11.7-6.3c-0.7-0.4-1.2-1-1.7-1.6c-0.4-0.7-0.5-2.1-0.5-2.8l14.5-1.5c0,0.7-0.4,9.5,0,10.1C195.6,197,193.7,198.1,194.5,198.5"/>
<path class="st1" d="M192.3,194.6l-11.7-6.3l0.1-63.8l12.6,6.1L192.3,194.6z"/>
<path class="st3" d="M228.7,124.1l-11.7-6.4c0.4,0.1,0.6,0.4,1,0.5l11.7,6.3C229.3,124.3,229,124.2,228.7,124.1z"/>
<path class="st2" d="M229.7,124.5l-11.7-6.3c1.7,0.9,3.5,1.6,5.4,2l11.7,6.3C233.2,126,231.4,125.4,229.7,124.5z"/>
<path class="st12" d="M235.1,126.5l-11.7-6.3c3.9,1,7.9,1.2,11.8,0.6c3.4-0.5,6.8-1.6,10-3l11.7,6.3c-3.2,1.5-6.6,2.6-10,3
	C243,127.7,239,127.5,235.1,126.5z"/>
<path class="st2" d="M257,124.2l-11.8-6.5c2-0.9,3.8-2,5.5-3.2l11.7,6.3C260.8,122.1,258.9,123.2,257,124.2z"/>
<path class="st3" d="M262.5,121l-11.7-6.3c1.5-1,2.8-2.1,4.1-3.3l11.7,6.3C265.3,118.8,264,119.9,262.5,121z"/>
<path class="st11" d="M266.7,117.7l-11.7-6.3c1.1-1,2.2-2.1,3.3-3.3l11.7,6.3L266.7,117.7z"/>
<path class="st1" d="M197.5,124.5l-11.7-6.3l26.6-3.8l11.7,6.3L197.5,124.5z M192.4,130.8l-11.7-6.3c0-0.7,0.1-1.5,0.4-2.2l11.7,6.3
	C192.5,129.3,192.4,130,192.4,130.8z"/>
<path class="st1" d="M192.7,128.6l-11.7-6.4c0.1-0.2,0.2-0.6,0.4-0.9l11.7,6.3C193,128.1,192.9,128.3,192.7,128.6z"/>
<path class="st1" d="M189.9,144.2l-8.5-22.8c0.2-0.9,2.1-2.3,2.2-2.4l9.9,8.2C193.5,127.3,190.1,143.9,189.9,144.2z"/>
<path class="st1" d="M193.6,127.1l-11.7-6.3c0.1-0.2,0.2-0.4,0.5-0.6l11.7,6.3C193.8,126.6,193.7,126.9,193.6,127.1z"/>
<path class="st1" d="M194.1,126.5l-11.8-6.3l0.5-0.5l11.7,6.3L194.1,126.5z M194.6,126l-11.7-6.3c0.2-0.2,0.4-0.4,0.6-0.5l11.7,6.3
	C194.9,125.6,194.7,125.8,194.6,126z"/>
<path class="st1" d="M192.6,129.9l-9.1-10.9c0.2-0.2,0.5-0.4,0.9-0.5l14.4,5.9c-0.2,0.1-1,1.6-1.2,1.8"/>
<path class="st1" d="M195.9,125l-11.6-6.5c0.5-0.2,2-0.5,3.2-0.6l10.1,6.5C197,124.7,196.5,124.8,195.9,125"/>
<path class="st13" d="M228.7,124.1l-11.7-6.4c-1.7-1-3.2-2-4.6-3.2c-3.7-3.2-6.6-7.2-8.5-11.6c-2-4.5-2.9-9.3-2.7-14.2
	c0-5,0.9-9.9,2.6-14.5l17.4,4.3c-1.7,4.6-8.3,11.7-8.3,16.6c-0.1,4.9,0.7,9.6,2.7,14.2c2,4.4,4.9,8.4,8.5,11.6
	C225.4,122,227,123.1,228.7,124.1"/>
<path class="st14" d="M376.5,99.9c-0.6-0.2-1.3-0.2-2-0.1l-27.3,3.8c-7.3,6.6-16.5,10.9-26.1,12.3c-9,1.3-18.3-0.4-26.1-5l-25,3.4
	c-5.9,6.8-14,11.5-22.9,12.8c-4,0.6-8.2,0.4-12.2-0.7c-3.9-1.1-7.7-3-10.7-5.6l-26.6,3.8c-1.5,0.2-2.8,1.1-3.7,2.2
	c-1,1.1-1.5,2.6-1.5,4v63.8c0,0.6,0.1,1.3,0.4,2c0.2,0.6,0.6,1.1,1.1,1.6c0.5,0.4,1.1,0.7,1.7,0.9c0.6,0.2,1.3,0.1,2,0
	c1.2-0.4,2.3-1.2,3.2-2.3c0.7-1.1,1.2-2.4,1.1-3.8v-53.2c0-1.5,0.5-2.9,1.5-4s2.2-2,3.7-2.2L365,111.2c0.6-0.1,1.3,0,2,0.1
	c0.6,0.2,1.2,0.5,1.7,1s0.9,1,1.1,1.7c0.2,0.6,0.4,1.3,0.2,2l-0.1,85.5c0,1.5-0.5,2.9-1.5,4s-2.2,2-3.7,2.2l-158,22.2
	c-0.6,0.1-1.3,0-2-0.1c-0.6-0.2-1.2-0.5-1.7-1s-0.9-1-1.1-1.7c-0.2-0.6-0.4-1.3-0.2-2V211c0-0.6-0.1-1.3-0.4-2
	c-0.2-0.6-0.6-1.1-1.1-1.6s-1.1-0.7-1.7-0.9c-0.6-0.1-1.3-0.1-2,0c-1.2,0.4-2.3,1.2-3.2,2.3c-0.7,1.1-1.2,2.4-1.1,3.8v23.9
	c0,0.7,0,1.3,0.2,2c0.2,0.7,0.6,1.2,1.1,1.7s1.1,0.9,1.7,1c0.6,0.2,1.3,0.2,2,0.1l177.3-24.9c1.5-0.2,2.8-1.1,3.7-2.2
	c1-1.1,1.5-2.6,1.5-4v-27.9l-2-0.7c-0.1-0.1-0.4-0.1-0.5-0.2c0.1,0.1,0.2,0.1,0.4,0.2l2,0.7l24.2,9.5c1.6,0.6,3.3,0.7,4.9,0.5
	c2.1-0.4,4.1-1.2,5.9-2.6c1.6-1.3,2.9-2.9,3.8-4.9c0.9-1.8,1.3-3.9,1.3-6v-54.9c0.1-1.8-0.4-3.8-1.2-5.4c-0.9-1.7-2.2-3-3.9-3.9
	c-1.7-1-3.8-1.2-5.7-1c-1.7,0.2-3.4,1-4.9,2L379.6,132v-27.4c0-0.7,0-1.3-0.2-2c-0.2-0.6-0.6-1.2-1.1-1.7
	C377.7,100.4,377.2,100,376.5,99.9L376.5,99.9z M410,125.4v55c0,0.2,0,0.4-0.1,0.7c-0.1,0.2-0.4,0.5-0.6,0.7s-0.5,0.4-0.9,0.4
	c-0.2,0.1-0.5,0.1-0.7,0L381.6,172c-0.2-0.1-0.5-0.4-0.6-0.6c-0.1-0.2-0.2-0.5-0.2-0.9v-27.1c0-0.4,0.1-0.6,0.2-1
	c0.1-0.2,0.4-0.5,0.6-0.7l26-17.6c0.2-0.1,0.5-0.2,0.7-0.2c0.2-0.1,0.6-0.1,0.9,0c0.2,0.1,0.4,0.4,0.6,0.6
	C410,124.9,410,125.2,410,125.4L410,125.4z"/>
<path class="st5" d="M336.5,198l-13.4-6.8c1.6-0.9,14.6-2.2,17.6-2.6c0.4,0,0.7,0,1,0.2l11.6,6.6L336.5,198L336.5,198z M333.5,207
	l-11.7-6.3c-0.7-0.4-1.2-1-1.7-1.7c-0.4-0.7-0.6-1.5-0.5-2.3c0-0.6,0.1-1.1,0.2-1.6c0-0.1,1-0.2,1.1-0.4l10.9,6.3
	c-0.2,0.6-0.4,1.3-0.4,2c0,0.9,0.1,1.6,0.5,2.3C332.3,205.9,332.8,206.5,333.5,207"/>
<path class="st5" d="M332.7,203.6l-12.9-7.9c0,0,0.1-0.6,0.1-0.7c0.1-0.4,0.6-1.5,0.7-1.7l11.5,6.7
	C332.2,200.3,332.8,203.3,332.7,203.6z"/>
<path class="st5" d="M332.1,200.2l-11.7-6.3c0.1-0.2,0.5-1.5,1.7-2l11,7.8C332.8,199.8,332.2,199.9,332.1,200.2"/>
<path class="st5" d="M332.4,199.6l-11.7-6.3c0.1-0.1,1.2-2.6,5.2-2.6l13.5,6.2L332.4,199.6"/>
<path class="st5" d="M332.9,199l-11.7-6.3l0.5-0.5l11.7,6.3L332.9,199z"/>
<path class="st5" d="M333.4,198.6l-11.7-6.3c0.1-0.1,0.4-0.4,0.6-0.5l11.7,6.3C333.8,198.2,333.5,198.3,333.4,198.6z"/>
<path class="st5" d="M333.9,198.1l-11.8-6.3l1-0.6l11.5,6.5L333.9,198.1"/>
<path class="st5" d="M334.6,197.6l-11.7-6.3c0.5-0.2,0.9-0.4,1.3-0.4l11.7,6.3C335.6,197.4,335.1,197.5,334.6,197.6z"/>
<path class="st15" d="M356.1,199.4c0,1.3-0.5,2.7-1.3,3.7c-0.8,1-2.1,1.7-3.3,2l-15.5,2.2c-0.6,0.1-1.2,0-1.8-0.1
	c-0.6-0.2-1.1-0.5-1.6-0.9s-0.7-1-1-1.5c-0.2-0.6-0.2-1.2-0.2-1.7c0-1.3,0.5-2.6,1.3-3.7c0.9-1,2.1-1.7,3.3-2l15.5-2.2
	c0.6-0.1,1.2,0,1.7,0.1c0.6,0.2,1.1,0.5,1.6,0.9s0.7,0.9,1,1.5C356.1,198.2,356.1,198.8,356.1,199.4z"/>
<path class="st5" d="M322.2,199.2l-11.8-6.3c0.5-0.1,1.1-0.1,1.6,0l11.7,6.3C323.2,199.1,322.5,199.1,322.2,199.2"/>
<path class="st5" d="M323.6,199.3l-11.8-6.3c0.2,0,0.5,0.1,0.7,0.2l11.7,6.3C324.1,199.4,323.9,199.3,323.6,199.3"/>
<path class="st1" d="M374.3,99.9l-12.1-6.3c0.6-0.1,1.8-0.4,2.4-0.2l11.7,6.5c-0.6-0.1-1.2-0.1-1.8-0.1"/>
<path class="st1" d="M376.2,99.8l-11.7-6.3c0.2,0.1,0.5,0.1,0.9,0.2l11.7,6.3C376.8,100,376.6,99.9,376.2,99.8z"/>
<path class="st1" d="M377.1,100.1l-11.7-6.3h0.1l11.7,6.3H377.1z"/>
<path class="st5" d="M306.6,201.9l-12.8-5l1.6-2l15-2.1l6.1,2.9l5.7,3.5L306.6,201.9L306.6,201.9z"/>
<path class="st5" d="M304.4,211.3l-12.1-6.3c-0.7-0.4-1.2-1-1.7-1.7c-0.4-0.7-0.6-1.5-0.5-2.3c0-0.7,0.1-1.3,0.4-2l19.4,2.1
	c-0.2,0.6-7.7,5.6-7.7,6.3c0,0.9,1.8,1.6,2.3,2.3C304.9,210.3,303.8,210.8,304.4,211.3z"/>
<path class="st5" d="M302.3,205.1l-11.8-6.1c0.1-0.2,0.2-0.9,0.4-1.1c0.1-0.5,1.2-2.9,7-3.3l4.9,9.8
	C302.4,204.6,302.3,204.8,302.3,205.1L302.3,205.1z"/>
<path class="st5" d="M302.7,204.3L291,198c0.1-0.2,0.2-0.4,0.4-0.6l11.7,6.3C302.8,203.8,302.7,204.1,302.7,204.3z"/>
<path class="st5" d="M303,203.7l-11.7-6.3l0.4-0.5l11.7,6.3L303,203.7z M303.4,203.1l-11.7-6.3l0.5-0.5l11.7,6.3L303.4,203.1z"/>
<path class="st5" d="M303.9,202.6l-11.7-6.3c0.1-0.1,2.6-0.4,2.8-0.5l9.5,6.5C304.2,202.4,304.1,202.5,303.9,202.6L303.9,202.6z"/>
<path class="st5" d="M304.5,202.2l-9-5.4c0.2-0.1,0.2-0.5,0.5-0.6l9.1,5.5C305,201.9,304.7,202,304.5,202.2"/>
<path class="st5" d="M305.2,201.8l-11.5-5.5c0.5-0.2,3.4-0.5,3.9-0.6l8.9,5.6C306.2,201.4,305.7,201.6,305.2,201.8"/>
<path class="st15" d="M326.7,203.5c0,1.3-0.4,2.7-1.2,3.7c-0.9,1.1-2,1.8-3.3,2.1l-15.5,2.2c-0.6,0.1-1.2,0-1.8-0.1
	s-1.1-0.5-1.6-0.9s-0.7-1-1-1.5c-0.2-0.6-0.2-1.2-0.2-1.7c0-1.3,0.5-2.6,1.3-3.7c0.9-1,2-1.7,3.3-2l15.5-2.2c0.6-0.1,1.2,0,1.7,0.2
	c0.6,0.2,1.1,0.5,1.5,0.9s0.7,0.9,1,1.5C326.6,202.4,326.7,203,326.7,203.5L326.7,203.5z"/>
<path class="st1" d="M347.2,103.6l-11.7-6.3l27.3-3.8l11.7,6.3L347.2,103.6z"/>
<path class="st5" d="M286.4,206.5l-5.5-9.5c0.5-0.1,1.1-0.1,1.7,0l11.6,6.6c-0.5-0.1-1.1-0.1-1.6,0"/>
<path class="st5" d="M294.2,203.5l-11.7-6.5c0.2,0.1,0.5,0.1,0.7,0.2l11.7,6.3C294.7,203.6,294.5,203.5,294.2,203.5"/>
<path class="st5" d="M295,203.7l-11.7-6.3l10.2,7.7L295,203.7"/>
<path class="st5" d="M270.5,207l-5-7.8L281,197l11.7,6.3L270.5,207z M274.6,215.3l-11.7-6.3c-0.7-0.4-1.2-1-1.7-1.7
	c-0.4-0.7-0.6-1.5-0.5-2.3c0-0.7,0.1-1.3,0.4-2l11.7,6.3c-0.2,0.6-0.4,1.3-0.4,2c0,0.9,0.1,1.6,0.5,2.3
	C273.4,214.2,274,214.8,274.6,215.3"/>
<path class="st5" d="M272.8,209.2l-11.7-6.3c0.1-0.2,0.2-0.5,0.4-0.9l11.8,6.3C273,208.7,272.9,209,272.8,209.2"/>
<path class="st5" d="M273.1,208.5l-11.7-6.3c0.1-0.2,0.2-0.4,0.4-0.6l11.7,6.3C273.4,208,273.3,208.2,273.1,208.5z"/>
<path class="st5" d="M273.5,207.9l-11.7-6.3l0.4-0.5l11.7,6.3L273.5,207.9z M273.9,207.3l-11.7-6.3l0.5-0.5l11.7,6.3L273.9,207.3"/>
<path class="st5" d="M274.4,206.8l-11.7-6.3c0.1-0.1,0.4-0.4,0.6-0.5l11.7,6.3C274.7,206.5,274.6,206.6,274.4,206.8z"/>
<path class="st5" d="M275,206.4l-11.7-6.3c0.2-0.2,0.5-0.4,0.7-0.5l11.8,6.3C275.5,206,275.2,206.2,275,206.4"/>
<path class="st5" d="M273.5,212.6l-12.7-7.1c-0.4,0.4-1.5-5.2,4.6-6.3l11.7,6.3c-0.5,0-1,0.2-1.3,0.4 M338.6,26.9l2.6,1.3
	c2.8,1.5,5.6,3.7,7.8,6c0.2,0.2,0.5,0.4,0.9,0.5"/>
<path class="st16" d="M321.2,14.9l16.3,11.5l7.1,4.1l4.8,4l2.8,0.7l3.4-8.9L333.5,16L321.2,14.9z"/>
<path class="st15" d="M297.2,207.7c0,1.3-0.5,2.7-1.3,3.7c-0.9,1-2.1,1.7-3.3,2l-15.5,2.2c-0.6,0.1-1.2,0-1.8-0.1
	c-0.6-0.2-1.1-0.5-1.6-0.9s-0.7-1-1-1.5c-0.2-0.6-0.2-1.2-0.2-1.7c0-1.3,0.5-2.6,1.3-3.7c0.9-1,2.1-1.7,3.3-2l15.5-2.2
	c0.6-0.1,1.2,0,1.8,0.1c0.6,0.2,1.1,0.5,1.6,0.9s0.7,1,1,1.5C297.2,206.5,297.2,207.1,297.2,207.7z"/>
<path class="st12" d="M304.9,114.9l-11.7-6.3c5.2,1.3,10.9,1.6,16.2,0.9c4.8-0.7,9.4-2.1,13.8-4.1l11.7,6.3c-4.4,2.1-9,3.4-13.8,4.1
	C315.6,116.6,310.1,116.4,304.9,114.9z"/>
<path class="st2" d="M334.7,111.7l-11.7-6.3c2.7-1.2,5.1-2.7,7.6-4.4l11.7,6.3C340,108.9,337.4,110.4,334.7,111.7z"/>
<path class="st3" d="M342.3,107.3l-11.7-6.3c1.7-1.2,3.3-2.4,4.9-3.8l11.7,6.3C345.6,104.9,344,106.1,342.3,107.3L342.3,107.3z"/>
<path class="st5" d="M258.1,210.9l-6.7-9.8c0.5-0.1,1.1-0.1,1.6,0l11.7,6.3C264.2,207.4,258.6,210.8,258.1,210.9z"/>
<path class="st5" d="M264.7,207.6l-11.7-6.3c0.2,0.1,0.5,0.1,0.7,0.2l11.7,6.3C265.2,207.7,265,207.6,264.7,207.6"/>
<path class="st5" d="M265.5,207.9l-11.7-6.3h0.1L265.5,207.9 M248,210.4l-12-7.3l15.4-2l12.4,6.6L248,210.4L248,210.4z M245.1,219.3
	l-11.7-6.3c-0.7-0.4-1.2-1-1.7-1.7c-0.4-0.7-0.6-1.5-0.5-2.3c0-0.7,0.1-1.3,0.4-2l11.7,6.3c-0.2,0.6-0.4,1.3-0.4,2
	c0,0.9,0.1,1.6,0.5,2.3C243.9,218.4,244.5,219,245.1,219.3z"/>
<path class="st5" d="M243.6,215.3l-12.1-8.3c0.1-0.2,0.2-0.6,0.5-1l11.6,6.5C243.5,212.9,243.7,214.9,243.6,215.3z"/>
<path class="st5" d="M243.6,212.6l-11.8-6.1c1.5-3,2.7-2.7,2.8-2.8l9.5,8.3C244,212.1,243.9,212.4,243.6,212.6"/>
<path class="st5" d="M244,212l-11.7-6.3l0.4-0.5l11.7,6.3C244.3,211.5,244,212,244,212z M244.5,211.4l-11.8-6.3l0.6-0.7l11.8,6.5
	L244.5,211.4"/>
<path class="st5" d="M244.1,212.6l-11.2-7.9c1.1-1,2.2-1.5,4.4-1.7l11.2,6.7L244.1,212.6z"/>
<path class="st5" d="M245.4,210.5l-11.7-6.3c0.2-0.1,0.5-0.4,0.7-0.5l11.7,6.3C246.1,210.2,245.7,210.3,245.4,210.5z M246.3,210.1
	l-11.7-6.3c0.5-0.2,0.9-0.4,1.3-0.4l11.7,6.3C247.2,209.7,246.8,209.8,246.3,210.1"/>
<path class="st15" d="M267.6,211.9c0,1.3-0.5,2.7-1.3,3.7c-0.8,1-2.1,1.7-3.3,2l-15.5,2.2c-0.6,0.1-1.2,0-1.8-0.1s-1.1-0.5-1.6-0.9
	s-0.7-1-1-1.5c-0.2-0.6-0.4-1.2-0.2-1.7c0-1.3,0.5-2.6,1.3-3.7c0.9-1,2.1-1.7,3.3-2l15.5-2.2c0.6-0.1,1.2,0,1.7,0.1
	c0.6,0.1,1.1,0.5,1.6,0.9s0.7,0.9,1,1.5C267.6,210.7,267.8,211.3,267.6,211.9z"/>
<path class="st5" d="M301.1,102.2l-11.7-6.3l1.2,0.6l11.7,6.3L301.1,102.2z"/>
<path class="st5" d="M302.2,102.8l-11.7-6.3c2,1,3.9,1.7,6,2.2l11.7,6.3C306.1,104.4,304.1,103.7,302.2,102.8z"/>
<path class="st5" d="M304,108.1l-7.6-9.4c4.1,1.1,8.5,1.3,12.9,0.6c3.8-0.5,7.4-1.6,11-3.3l11.7,6.3c-3.4,1.7-7.1,2.8-10.9,3.3
	c-4.4,0.7-8.5,5-12.8,3.9"/>
<path class="st5" d="M316.3,108.9l3.9-12.9c2.1-1,4.1-2.2,6.1-3.5l16,6.2C340.4,100,318.5,107.8,316.3,108.9z"/>
<path class="st5" d="M338,98.9l-11.7-6.3c1.6-1.1,3-2.3,4.5-3.7l11.7,6.3C341.2,96.6,339.6,97.8,338,98.9z"/>
<path class="st5" d="M340.6,101l-9.8-12.1c1.3-1.2,2.7-2.4,3.8-3.8l16.1,5.1c-1.2,1.3-6.3,8.1-7.7,9.3"/>
<path class="st5" d="M346.5,91.4l-11.7-6.2c1.2-1.3,2.3-2.8,3.4-4.3l11.7,6.3C348.8,88.7,347.7,90.1,346.5,91.4"/>
<path class="st5" d="M350.2,88.6L336.1,84c1.1-2.2,4.1-6.6,5-8.3l11.7,6.3C351.9,83.9,351.3,87,350.2,88.6z"/>
<path class="st5" d="M352.9,84.2l-11.7-8.3c1.1-2.1,2.1-4.1,2.8-6.3l15.2-0.7c-0.9,2.2-4.5,12.7-5.6,14.6"/>
<path class="st5" d="M355.6,75.9l-11.7-6.3c1.8-5.1,2.8-10.5,2.9-15.9c0-0.7,0.1-1.3,0.4-2l11.7,6.3c-0.2,0.6,2.6,7.3,2.6,7.9
	C361.5,71.5,357.6,70.9,355.6,75.9z M359,58.1l-11.7-6.3c0.1-0.2,0.2-0.5,0.4-0.9l11.7,6.3C359.1,57.6,359,57.8,359,58.1"/>
<path class="st5" d="M359.3,57.2l-11.7-6.3c0.1-0.2,0.2-0.5,0.4-0.6l11.7,6.3C359.5,56.8,359.4,57.1,359.3,57.2z"/>
<path class="st5" d="M359.6,56.6l-11.7-6.3c0.1-0.2,0.2-0.4,0.4-0.5l11.7,6.3C359.9,56.2,359.8,56.5,359.6,56.6 M360.1,56.1
	l-11.7-6.3l0.5-0.5l11.7,6.3C360.5,55.7,360.2,55.9,360.1,56.1z"/>
<path class="st5" d="M359.3,59.8l-12.4-6.7c0.1-0.1,0-4.5,4.5-5.1l13.5,6.2l0.6,0.6c-0.2,0.1-4.4,2.1-4.5,2.2"/>
<path class="st5" d="M361.2,55.1l-11.7-6.3l0.7-0.5l11.7,6.3C361.7,54.8,361.5,55,361.2,55.1z M361.9,54.6l-11.7-6.3
	c0.5-0.2,0.9-0.4,1.3-0.4c0.5-0.1,1.1-0.1,1.6,0l11.7,6.3c-0.5-0.1-1.1-0.1-1.6,0C362.9,54.3,362.4,54.4,361.9,54.6"/>
<path class="st5" d="M364.9,54.8L353.2,48c0.2,0.1,0.6,0.1,0.9,0.2l12.1,6.6C365.7,54.6,365.1,54.8,364.9,54.8L364.9,54.8z"/>
<path class="st1" d="M270,114.4l-11.7-6.3l25-3.5l11.7,6.3L270,114.4z"/>
<path class="st5" d="M321.2,14.7l-11.7-6.3c5.4-0.7,11-0.5,16.2,0.9l11.8,6.5c-5.4-1.3-10.9-1.7-16.2-0.9"/>
<path class="st5" d="M335.8,17.1l-11.6-8.2c2.6,0.6,6.7,1.8,9,3l11.7,6.3C342.6,17.2,338.3,17.8,335.8,17.1z"/>
<path class="st5" d="M345,18.4l-11.7-6.3l1.5,0.7l11.1,9.3L345,18.4L345,18.4z M296.1,111.5l-11.7-6.3c-0.4-0.2-0.7-0.4-1.1-0.6
	c-6.2-3.7-11.5-9-14.9-15.5c-3.9-7.2-5.9-15.4-5.7-23.5c0-2.4,0.1-4.9,0.4-7.2c0.6-4.3,1.6-8.5,3.2-12.7L278,52
	c-1.5,4-2.6,8.3-3.2,12.7c-0.4,2.4-0.5,4.8-0.5,7.2c-0.1,8.2,2,16.3,5.9,23.5c3.4,6.3,8.7,11.7,14.9,15.5
	C295.3,111.1,295.7,111.4,296.1,111.5z"/>
<path class="st5" d="M276.3,66.6l-12.9-11.3c0.6-7.3,5-15,6.3-17.6l15.6,2.9C284,43.2,277.3,63.9,276.3,66.6z"/>
<path class="st5" d="M281.4,44.1l-11.7-6.3c1.2-2.2,2.4-4.3,3.8-6.2l21.2,2.4C293.3,36,282.5,42,281.4,44.1z"/>
<path class="st5" d="M285.2,37.9l-11.7-6.3c1.3-1.8,2.7-3.7,4.3-5.4l11.7,6.3C288,34.3,286.6,36.1,285.2,37.9z"/>
<path class="st5" d="M286.9,40.4l-9.1-14.2c1.5-1.7,3-3.3,4.8-4.9l17.1,3.7C297.9,26.6,288.4,38.7,286.9,40.4z"/>
<path class="st5" d="M294.2,27.7l-11.7-6.3c1.8-1.6,3.7-3.2,5.7-4.5l11.7,6.3C298,24.6,296.1,26.1,294.2,27.7z"/>
<path class="st5" d="M290.1,35.1l-1.8-18.3c2.4-1.6,4.9-3,7.6-4.4l17.3,5C310.5,18.8,292.4,33.5,290.1,35.1z"/>
<path class="st5" d="M307.5,18.9l-11.7-6.3c4.4-2.1,9-3.4,13.8-4.1l17.2,5.7C321.9,14.7,311.8,16.8,307.5,18.9z"/>
<path class="st17" d="M321.2,14.9c-23.5,3.3-43.2,24.9-46.4,49.9c-0.4,2.3-0.5,4.8-0.5,7.2c-0.1,8.2,1.8,16.2,5.7,23.4
	c3.4,6.3,8.5,11.7,14.9,15.4c7.9,4.6,17.1,6.3,26.1,4.9c9.8-1.5,18.8-5.7,26.1-12.2c6.5-5.6,11.6-12.4,15.1-20.1s5.5-16.1,5.6-24.6
	c0-0.6,0-1.2-0.2-1.7c-0.2-0.6-0.6-1.1-1-1.5c-0.5-0.4-1-0.7-1.6-0.9c-0.6-0.1-1.2-0.2-1.7-0.1c-1.3,0.2-2.6,1-3.4,2
	c-0.9,1.1-1.3,2.3-1.3,3.7c0,22.3-16.8,42.9-37.6,45.7s-37.6-13.1-37.6-35.4s17-42.8,37.7-45.7c5-0.7,10.1-0.4,14.9,1.2
	s9.1,4.4,12.7,8.1 M321.2,14.9c6.2-1,12.6-0.4,18.5,1.6c5.9,2,11.3,5.4,15.7,9.9 M348.8,34c0.5,0.5,1,0.7,1.6,1
	c0.6,0.2,1.2,0.2,1.8,0.1 M352.2,35.1c1-0.1,1.8-0.6,2.6-1.2c0.7-0.6,1.3-1.3,1.6-2.3c0.4-0.9,0.5-1.8,0.4-2.8
	c-0.1-1-0.6-1.7-1.2-2.4"/>
<path class="st5" d="M348.9,34.3L337.5,28c-0.4-0.2-0.6-0.5-1-0.7c-0.6-0.6-1.2-1.2-1.8-1.7l1.7,0.6l2,0.7c0,0,0.5,0.2,0.6,0.2
	l3.9,2.1l0.5,0.4l3.2,2.3l0.4,0.2C346.9,32.2,348.9,34.3,348.9,34.3z"/>
<path class="st1" d="M233.7,114.7l-11.7-6.5l0.7,0.4l11.8,6.5L233.7,114.7"/>
<path class="st1" d="M234.6,115.1l-11.7-6.3c1.2,0.6,2.6,1.1,3.9,1.5l11.7,6.3C237.2,116.2,235.8,115.8,234.6,115.1z"/>
<path class="st1" d="M237.3,117.3l-10.5-7.2c2.8,0.7,5.7,0.9,8.5,0.5l24.8,3.5c-2.8,0.4-17.8,5.5-20.6,4.8"/>
<path class="st1" d="M247,117l-11.7-6.3c2.4-0.4,4.9-1.1,7.2-2.2l11.7,6.3C251.9,115.9,249.5,116.6,247,117z"/>
<path class="st1" d="M240.2,123.4l2.3-15c1.5-0.6,2.8-1.5,4-2.3l17.2,2.8C262.4,109.9,241.5,122.8,240.2,123.4z"/>
<path class="st1" d="M258.3,112.5l-11.7-6.3c1.1-0.7,2.1-1.5,3-2.3l11.7,6.3C260.3,111,259.2,111.7,258.3,112.5z"/>
<path class="st1" d="M261.2,110.1l-12.8-5.4c1.1-0.7,2.9-2.7,3.7-3.5l11.7,6.3C263,108.4,262.2,109.3,261.2,110.1z"/>
<path class="st1" d="M263.3,108.9l-11.8-7c0.9-0.9,2.9-3.8,3.5-4.8l11.7,6.3C266.1,104.5,264.1,108,263.3,108.9z"/>
<path class="st1" d="M266.2,104.4l-11.7-6.3c0.7-1.1,1.5-2.2,2.1-3.3l11.7,6.3C267.5,102.2,266.9,103.3,266.2,104.4z"/>
<path class="st1" d="M268,101.5l-11.7-6.3c0.7-1.3,1.5-3.2,2-4.5l11.8,6.1C269.6,98.1,268.7,100.1,268,101.5z"/>
<path class="st1" d="M270,97.2l-11.8-6.1c1.2-3.3,1.8-7.2,2-10.7c0.1-4.3-0.9-8.4-2.8-12.1c-2.1-3.7-5-6.8-8.7-8.9l12.8,4.6
	c3.7,2.1,5.4,7,7.4,10.6s3,7.9,2.8,12.1C271.8,90.4,271.2,93.9,270,97.2z"/>
<path class="st13" d="M215.4,80.6l-11.8-6c0.7-2,2.1-5,3-6.8l16.6,5C222.3,74.6,216.2,78.6,215.4,80.6"/>
<path class="st13" d="M218,74.9l-11.8-6.3c0.9-1.6,2.7-4.3,3.8-5.7l18.4,4.9C227.4,69.2,218.9,73.3,218,74.9z"/>
<path class="st13" d="M220.8,70.3L209.1,64c1-1.3,2-2.7,3-3.9l20.7,3.2C231.8,64.4,221.8,68.9,220.8,70.3z"/>
<path class="st13" d="M223.9,66.4L212.1,60c1.1-1.2,2.3-2.4,3.5-3.5l20,6.2C234.5,63.8,225,65.1,223.9,66.4z"/>
<path class="st13" d="M227.4,62.8l-11.7-6.3c1.3-1.2,2.7-2.3,4.1-3.3l24.4,4.9C242.8,59.2,228.7,61.7,227.4,62.8z"/>
<path class="st13" d="M231.5,59.5l-11.7-6.3c1.7-1.2,3.7-2.3,5.6-3.2l19.4,5.4C242.8,56.2,233.4,58.3,231.5,59.5z"/>
<path class="st13" d="M237.2,56.3L225.4,50c3.2-1.5,6.5-2.4,10-2.9c3.9-0.6,7.9-0.4,11.8,0.6L259,54c-3.9-1-6.8,2.4-10.9,3
	C244.7,57.4,240.3,54.9,237.2,56.3z"/>
<path class="st13" d="M257.6,55.3L247,47.7c1.8,0.5,3.8,1,5.5,1.8l11.7,6.3C262.6,55.1,259.6,55.7,257.6,55.3z"/>
<path class="st13" d="M264.4,56l-11.7-6.3l1,0.5l11.8,6.3L264.4,56"/>
<path class="st18" d="M274.2,71.8c-0.1,8.2,1.8,16.3,5.7,23.5c-1.8,7.1-5.2,13.5-10.1,19c-5.9,6.8-14,11.5-22.9,12.8
	c-4,0.6-8.2,0.4-12.2-0.7c-3.9-1.1-7.7-3-10.7-5.6c-3.7-3.2-6.6-7.2-8.5-11.6c-2-4.4-2.9-9.3-2.7-14.2c0-20.4,15.5-39,34.3-41.7
	c5.2-0.9,10.5-0.2,15.4,1.7c4.9,2,9.1,5.2,12.3,9.4C274.5,67.1,274.2,69.4,274.2,71.8z M247,117c13.7-2,24.8-15.5,24.9-30.3
	c0-14.8-11.1-25.1-24.8-23.2c-13.7,1.9-24.8,15.5-24.8,30.2S233.2,118.9,247,117"/>
<path class="st19" d="M376.8,179.9h2.6v3.7h-2.6V179.9z"/>
</svg>
