<?xml version="1.0" encoding="utf-8"?>
<!-- Generator: Adobe Illustrator 23.0.3, SVG Export Plug-In . SVG Version: 6.00 Build 0)  -->
<svg version="1.1" id="Слой_1" xmlns="http://www.w3.org/2000/svg" xmlns:xlink="http://www.w3.org/1999/xlink" x="0px" y="0px"
	 viewBox="0 0 260.1 241.1" style="enable-background:new 0 0 260.1 241.1;" xml:space="preserve">
<style type="text/css">
	.st0{clip-path:url(#SVGID_2_);}
	.st1{clip-path:url(#SVGID_4_);}
	.st2{fill:#40689D;}
	.st3{fill:#B4D1FA;stroke:#000000;stroke-width:0.2;}
	.st4{fill:#2F527F;fill-opacity:0.3;}
	.st5{fill:#7F94B1;}
	.st6{fill:#862F40;}
	.st7{fill:#9A384B;}
	.st8{fill:#E87891;}
</style>
<g>
	<g>
		<g>
			<defs>
				<polygon id="SVGID_1_" points="1.8,-28 258.6,11 258.6,249 1.8,250 				"/>
			</defs>
			<clipPath id="SVGID_2_">
				<use xlink:href="#SVGID_1_"  style="overflow:visible;"/>
			</clipPath>
			<g class="st0">
				<g>
					<g>
						<g>
							<defs>
								<polygon id="SVGID_3_" points="99.8,175 194.8,173 194.8,241 99.8,243 								"/>
							</defs>
							<clipPath id="SVGID_4_">
								<use xlink:href="#SVGID_3_"  style="overflow:visible;"/>
							</clipPath>
							<g class="st1">
								<path class="st2" d="M185.3,235.8v1.5l-54.5,2.2v-2L185.3,235.8z"/>
								<path class="st2" d="M130.8,238v1.5c-43.5-6-32-7.6-19.5-62l4-0.9C102.7,230.4,88.6,224.3,130.8,238z"/>
								<path class="st3" d="M106.5,205c2.3-7.5,5.2-16,8.1-28.1l39.5-3c-1.6,10.4-3.1,17.6-4.6,23.7c-1,4.4-1.1,7.9-1.3,8.6
									c-0.3,3.9,0.3,6.6,0.7,8.3c0.5,1.6,2.5,5.9,9,9.4c5.5,2.9,14.6,8.3,27.4,11.9l-54,2.2c-10.9-1.5-18.1-2.8-22.7-4.7
									c-2.3-1-3.9-2.1-5-3.4c-1.1-1.4-1.6-3-1.7-5s0.3-4.4,0.9-7.3c0.7-2.9,1.7-6.2,2.9-10.2C106,206.6,106.2,205.8,106.5,205z"/>
								<g>
									<path class="st4" d="M102.5,224.1c-2.5,0,4.9-32.6,8.9-47.6l42.5-0.9c-5.2,26.4-10.1,36.7-0.2,45.7
										C140.1,220.9,110.1,224.1,102.5,224.1z"/>
								</g>
							</g>
						</g>
					</g>
				</g>
				<path class="st2" d="M246.5,184.3l-9.7-7.8c2.2-0.4,6.9-1.7,7.2-1.9l7.2,7.7C250.8,182.4,246.9,184.2,246.5,184.3z"/>
				<path class="st2" d="M251.2,182.3l-11.6-6.3c0.2-0.1,0.4-0.2,0.6-0.4l11.6,6.3L251.2,182.3z"/>
				<path class="st2" d="M251.8,181.9l-11.6-6.3c0.2-0.1,0.3-0.2,0.5-0.4l11.6,6.3C252.1,181.7,251.9,181.8,251.8,181.9z"/>
				<path class="st2" d="M252.3,181.5l-11.6-6.3l0.4-0.4l11.6,6.3L252.3,181.5z"/>
				<path class="st2" d="M252.7,181.1l-11.6-6.3c0-0.1,0-0.1,0-0.2c0.1-0.1,0.1-0.2,0.2-0.3l11.6,6.3l-0.2,0.3
					C252.7,181,252.7,181,252.7,181.1z"/>
				<path class="st2" d="M252.6,181.6l-11.2-7.3c0.1-0.2,0.2-0.4,0.3-0.5l12.1,5.7c-0.1,0.2-0.7,2-0.8,2.1"/>
				<path class="st2" d="M253.3,180.1l-11.5-6.3c0-0.2,0.2-0.5,0.3-0.7l11.6,6.3c-0.1,0.2-0.2,0.5-0.3,0.7"/>
				<path class="st2" d="M253.6,179.4l-11.6-6.3c0.2-0.6,0.3-1.2,0.3-1.8l11.6,6.3C254,178.2,253.9,178.9,253.6,179.4z"/>
				<path class="st2" d="M254.9,183.8l-14.5-7.1l1.9-9.8l11.6,6.3L254.9,183.8z"/>
				<path class="st2" d="M60.5,192.6c0,0-11.4-10.4-8-10.4c12.6,0.2,186.6-6.2,186.6-6.2l15.2,7.6L60.5,192.6z"/>
				<path class="st2" d="M58.4,193.6l-7.7-6.5c-0.3-0.2-0.6-0.5-0.8-0.8s-0.2-0.7-0.3-1.1c-0.1-1-1.3-3.5,8.2-2.9l-0.3,8.7
					c-0.1,0.3-0.2,0.6-0.2,1s0.2,0.7,0.4,1.1c0.2,0.3,1.1,0.6,1.4,0.7"/>
				<path class="st2" d="M57.3,192.3l-6.5-6.4c0-0.1,0.2-1.1,2-1.4l7.5,4.6c-0.1,0.1-2.6,1.9-2.7,2"/>
				<path class="st2" d="M58,190.8l-7.2-5.9l0.2-0.3l7.2,5.9L58,190.8z"/>
				<path class="st2" d="M58.2,190.4l-7.3-5.8v0.1l7.5,5.3L58.2,190.4z"/>
				<path class="st2" d="M58.4,190.2l-7.3-5.4l0.2-0.2l7.3,5.4L58.4,190.2z"/>
				<path class="st2" d="M58.6,190l-7.7-3.9l1-1.3l7,4.9L58.6,190"/>
				<path class="st2" d="M58.9,189.8l-6.9-5l0.4-0.2l6.9,5L58.9,189.8z"/>
				<path class="st2" d="M59.6,194.2c-4.7-1.6-6.8-9.4-6.8-9.4c0.2-0.1,0.4-0.2,0.7-0.2l6.4,4.7C61.1,192.5,61.5,194.9,59.6,194.2z"
					/>
				<path class="st2" d="M43.8,191l-7.3-8c0.3-0.1,0.5-0.1,0.8,0l7.8,7.7C44.8,190.6,44.1,190.9,43.8,191z"/>
				<path class="st2" d="M44.9,190.6l-8.2-7.9c0.1,0,0.2,0.1,0.4,0.2l8.2,7.9C45.1,190.7,45,190.6,44.9,190.6z"/>
				<path class="st2" d="M45.2,190.8l-8.1-7.9L45.2,190.8"/>
				<path class="st2" d="M22.7,191.6L10.5,183l26.3-0.1l7.6,8.2L22.7,191.6z"/>
				<path class="st2" d="M20,190.3L8.3,183h0.1L20,190.3"/>
				<path class="st2" d="M20.1,190.4L8.4,183c0.2,0.1,0.4,0.2,0.6,0.2l11.6,7.3C20.5,190.6,20.3,190.5,20.1,190.4z"/>
				<path class="st2" d="M20.7,190.6l-11.6-7.3c0.4,0.1,0.9,1.1,1.3,1l11.6,6.4C21.5,190.8,21.1,190.8,20.7,190.6"/>
				<path class="st2" d="M17.5,194.9l-11.7-7.4c-0.5-0.3-1-0.8-1.5-1.2c-0.8-0.8-1.5-1.8-1.9-2.8c-0.4-1.2-0.6-2.3-0.6-3.5l11.6,7.3
					c0,1.2,0.2,2.3,0.6,3.4c0.4,1.1,1.1,2,1.9,2.9c0.5,0.4,1,0.8,1.5,1.1"/>
				<path class="st2" d="M13.5,187.5l-11.6-7.3l0.1-9.3l12.6,3.2L13.5,187.5z"/>
				<path class="st5" d="M13.6,177.2L3.8,171l244.9-9.5l9.8,6.3L13.6,177.2z"/>
				<path class="st3" d="M255.9,183.9L255.9,183.9c-1.4,1.8-3.4,3-5.6,3.5l0,0l-190.4,6.8l0,0c-0.3,0-0.6,0-0.8-0.1
					c-0.3-0.1-0.5-0.2-0.7-0.4s-0.4-0.4-0.5-0.7s-0.1-0.6-0.1-0.8l0,0l0,0c0-0.6,0.2-1.2,0.6-1.7c0.4-0.5,1-0.8,1.6-0.9l0,0
					l190.1-6.8l0,0c1.1-0.2,2.1-0.8,2.8-1.7c0.8-1,1.2-2.1,1.2-3.4l0,0v-4.4v-0.1H254l-235.9,8.2H18v0.1v5.4c0,0.6,0.1,1.1,0.3,1.6
					c0.2,0.5,0.5,1,0.9,1.4l0,0c0.4,0.4,0.8,0.6,1.3,0.8s1,0.2,1.5,0.1l0,0l22.1-0.1l0,0c0.3,0,0.6,0,0.8,0.1
					c0.3,0.1,0.5,0.2,0.7,0.4s0.4,0.4,0.5,0.7s0.1,0.5,0.1,0.8l0,0l0,0c0,0.6-0.2,1.2-0.6,1.7c-0.4,0.5-1,0.8-1.6,1l-22.1,0.1l0,0
					c-1.1,0.2-2.2,0.1-3.2-0.2s-2-0.9-2.7-1.6c-0.8-0.8-1.5-1.8-1.9-2.8c-0.4-1.1-0.7-2.2-0.6-3.3l0,0l0,0v-10.2l244.9-9.4v9.2l0,0
					C258.4,179.6,257.5,182,255.9,183.9z"/>
				<path class="st6" d="M253.8,166.4l-11.6-6.1l0.3-140.1l11.6,5.3L253.8,166.4z"/>
				<path class="st6" d="M254,26.6l-11.6-6.3c0-0.8-0.2-1.5-0.5-2.2c-0.4-0.7-0.9-1.2-1.6-1.6l11.7,6.3c0.7,0.4,1.2,0.9,1.6,1.6
					S254.2,25.8,254,26.6"/>
				<path class="st7" d="M249.5,17.4l-11.7-6.3c1.2-0.1,2.6,0.2,3.2,0.2l11.6,6.3C251.6,17.3,250.5,17.3,249.5,17.4z"/>
				<path class="st7" d="M246.5,19.5l-7-8.4c0.5,0.1,2.1,0,3.3,0.8l11.6,6.3C254,18,247,19.7,246.5,19.5z"/>
				<path class="st7" d="M254.1,18.1l-11.6-6.3l0.3,0.2l11.6,6.3L254.1,18.1z"/>
				<path class="st7" d="M136.2,169.1l-9.1-6.1l115.1-4.5l11.6,6.3L136.2,169.1z"/>
				<path class="st7" d="M18,173l-11.8-5.8L127,163l10.3,5.7L18,173z"/>
				<path class="st7" d="M16.3,14.5L11.2,3l226.7,8.1l11.6,6.3L16.3,14.5z"/>
				<path class="st7" d="M13.6,177.2l-11.7-6.4L2.1,14.1c5.1,1.4,7.5,2.9,11.6,6.3L13.6,177.2z"/>
				<path class="st7" d="M13.7,20.5L2.1,14.1c0-1.3,1.8-10.1,13-11l5.1,7C19.7,11.4,13.7,19.2,13.7,20.5z"/>
				<path class="st8" d="M249.5,17.4c1.2-0.2,2.4-0.1,3.5,0.3s2.2,1,3,1.8c0.9,0.8,1.5,1.8,2,2.9c0.4,1.1,0.6,2.3,0.5,3.5v141.9
					l-122.7,4.5l-122.5,5l0.3-156.9c0-2.6,0.9-5.1,2.6-7.1s4-3.4,6.5-3.9L249.5,17.4z M253.7,164.8L254,26.6c0-0.6-0.1-1.2-0.3-1.8
					s-0.6-1.1-1-1.5s-1-0.7-1.5-0.9c-0.6-0.2-1.2-0.2-1.8-0.2L22.8,14.3c-1.3,0.3-2.4,0.9-3.3,2c-0.8,1-1.3,2.3-1.3,3.6L18,173
					l117.8-3.7L253.7,164.8"/>
				<path d="M249.5,17.4v-0.2l0,0V17.4z M258.5,26h-0.2l0,0l0,0H258.5z M258.5,167.9v0.2h0.2v-0.2H258.5z M135.9,172.4v0.2l0,0
					V172.4z M13.4,177.3h-0.2v0.2h0.2V177.3z M13.7,20.4h-0.2l0,0H13.7z M22.8,9.4V9.2l0,0V9.4z M254,26.6h-0.2l0,0H254z
					 M249.5,22.3v-0.2l0,0V22.3z M22.8,14.3v-0.2l0,0V14.3z M18.2,19.8H18l0,0H18.2z M18,173h-0.2v0.2H18V173z M135.9,167.4v-0.2
					V167.4z M249.5,17.6c1,0,2.7,0.2,3.4,0.3l0.1-0.4c-1-0.3-2.5-0.3-3.6-0.3L249.5,17.6z M252.9,17.9c1.1,0.4,2.1,1,3,1.8l0.3-0.2
					c-0.8-1-2.1-1.7-3.2-2L252.9,17.9z M255.9,19.7c0.8,0.8,1.5,1.8,1.9,2.9l0.4-0.1c-0.4-1.1-1.1-2.2-2-3L255.9,19.7z M257.8,22.6
					c0.4,1.1,0.6,2.3,0.5,3.4l0.3,0c0.1-1.1-0.1-2.5-0.5-3.7L257.8,22.6z M258.3,26v141.9h0.4V26H258.3z M258.5,167.7l-122.7,4.5
					l0.1,0.4l122.7-4.5L258.5,167.7z M135.9,172.2l-122.5,5l0.1,0.4l122.5-5L135.9,172.2z M13.6,177.3l0.3-156.9h-0.4l-0.3,156.9
					H13.6z M13.9,20.4c0-2.6,0.9-5,2.6-7l-0.3-0.3c-1.7,2-2.6,4.6-2.7,7.3H13.9z M16.5,13.4c1.6-2,3.9-3.3,6.4-3.8l-0.1-0.4
					c-2.6,0.5-5,1.9-6.6,4L16.5,13.4z M22.9,9.6l226.6,8l-0.1-0.4l-226.6-8L22.9,9.6z M253.9,164.8l0.3-138.2h-0.4l-0.3,138.2H253.9
					z M254.2,26.6c0-0.6-0.1-1.3-0.3-1.8l-0.4,0.1c0.2,0.5,0.3,1.1,0.3,1.7C253.8,26.6,254.2,26.6,254.2,26.6z M253.9,24.8
					c-0.2-0.6-0.6-1.2-1-1.6l-0.2,0.4c0.4,0.4,0.6,0.9,0.8,1.4L253.9,24.8z M252.9,23.2c-0.5-0.4-1-0.8-1.6-0.9l-0.1,0.3
					c0.5,0.2,1,0.6,1.5,1L252.9,23.2z M251.3,22.3c-0.6-0.2-1.2-0.2-1.9-0.2l0.1,0.4c0.6-0.1,1.1,0,1.7,0.1L251.3,22.3z M249.4,22.1
					l-226.6-8l0.1,0.4l226.7,8L249.4,22.1z M22.8,14.1c-1.3,0.3-2.5,1-3.4,2l0.3,0.3c0.8-1,1.9-1.6,3.2-1.9L22.8,14.1z M19.4,16.1
					c-0.9,1-1.3,2.4-1.3,3.7h0.4c0-1.3,0.4-2.5,1.3-3.5L19.4,16.1z M18,19.8L17.8,173h0.4l0.3-153.2L18,19.8z M18,173.2l118.7-4
					l-0.5-0.5L18,172.8V173.2z M135.8,169.3l118-4.3l-0.1-0.4l-118,4.3L135.8,169.3z"/>
				<path class="st7" d="M14.2,16.6L2.1,14.1c0.2-0.5,1-4.2,1.3-4.7L15,15.1C14.7,15.6,14.4,16.1,14.2,16.6z"/>
				<path class="st7" d="M14.7,15.6L2.1,13.8c-0.2-0.3,1.3-5.9,2.2-6.5l11.5,6.4C15.6,14.2,14.9,15.2,14.7,15.6z"/>
				<path class="st7" d="M15.7,13.9L4.1,7.5c0.2-0.4,1-1.1,1.3-1.4l11.1,6.7C16.2,13.4,15.9,13.4,15.7,13.9z"/>
				<path class="st7" d="M16.6,12.8L5,6.5c0.3-0.3,0.6-0.7,0.9-0.9l11.6,6.3C17.1,12.1,16.8,12.5,16.6,12.8"/>
				<path class="st7" d="M17.5,11.9L5.9,5.6C6.2,5.3,6.6,5,7,4.7L18.7,11C18.3,11.3,17.8,11.5,17.5,11.9"/>
				<path class="st7" d="M18.7,11L7,4.7c0.5-0.3,1-0.6,1.5-0.9l11.6,6.3C19.6,10.4,19.1,10.7,18.7,11z"/>
				<path class="st7" d="M19.8,10L8.5,3.8c0.9-0.4,1.8-0.7,2.7-0.8l11.2,6.2c-0.9,0.1-1.5,0.3-2.5,1"/>
			</g>
		</g>
	</g>
</g>
</svg>
