<?xml version="1.0" encoding="utf-8"?>
<!-- Generator: Adobe Illustrator 24.0.0, SVG Export Plug-In . SVG Version: 6.00 Build 0)  -->
<svg version="1.1" id="Слой_1" xmlns="http://www.w3.org/2000/svg" xmlns:xlink="http://www.w3.org/1999/xlink" x="0px" y="0px"
	 viewBox="0 0 600 250" style="enable-background:new 0 0 600 250;" xml:space="preserve">
<style type="text/css">
	.st0{fill:#335786;}
	.st1{fill:#B4D1FA;stroke:#000000;stroke-width:0.2;}
	.st2{fill:#40689D;}
	.st3{fill:#9A384B;}
	.st4{fill:#E87891;stroke:#000000;stroke-width:0.2;}
</style>
<path class="st0" d="M285.8,115.3l-0.8,4.2L185,94.2l5.5-15.4l7.7-2.3c6.4-0.5,8.2,7.7,3.6,10.5l-7.3,3.2L285.8,115.3L285.8,115.3z
	 M183.9,101.9l8-0.9l5.1,5.9l-7.8,2.2L183.9,101.9z"/>
<path class="st0" d="M189.1,109.1l6.7-3.2l1.6,1.6l-7.8,2.2C189.5,109.5,189.3,109.3,189.1,109.1"/>
<path class="st0" d="M189.6,109.7l6.4-4.2c0.1,0.2,1.6,2,1.9,2.7l-7.8,2.2C189.9,110.2,189.7,109.9,189.6,109.7"/>
<path class="st0" d="M190,106.9l7.9,1.4c0.1,0.3,0.5,0.9,0.6,1.2l-7.3,5.2c-0.1-0.3-0.9-4-1.1-4.3"/>
<path class="st0" d="M190.4,111.4l7.8-2.2c0,0.2,0.1,0.3,0.1,0.5l-11,8.1C185,116.9,190.5,111.5,190.4,111.4z"/>
<path class="st0" d="M190.5,111.9l7.8-2.2v0.4l-7.8,2.2V111.9z"/>
<path class="st0" d="M190.5,112.3l7.8-2.2v0.4l-7.8,2.2C190.6,112.6,190.6,112.5,190.5,112.3 M190.6,112.7l7.8-2.2v0.4l-7.8,2.2
	V112.7"/>
<path class="st0" d="M190.6,113.1c0,0,6.7-5.8,7.7-3.9c1.1,2.1-1,5.1-1,5.1l-6.7-0.8V113.1"/>
<path class="st0" d="M190.6,113.5l7.8-2.2v0.3l-7.8,2.2V113.5"/>
<path class="st0" d="M190.5,113.8l7.8-2.1l-0.3,0.5l-7.6,2v-0.4"/>
<path class="st0" d="M190.5,114.1l7.8-2.2l-0.3,0.5l-7.6,2v-0.3H190.5z"/>
<path class="st0" d="M190.4,114.4l7.3-3l0.1,1.3l-7.4,2V114.4"/>
<path class="st0" d="M190.3,114.7l7.8-2.2c0,0.1-0.1,0.2-0.1,0.3l-7.8,2.2C190.2,114.9,190.2,114.8,190.3,114.7"/>
<path class="st0" d="M190.2,115l7-2.3c0,0.1,0.3-1,0.2-0.9l-7.4,3.6C190.2,115.2,190.2,115.1,190.2,115"/>
<path class="st0" d="M190.1,115.3l7.4-3.3c0,0.1-0.1,1.5-0.2,1.6l-7.4,2C190,115.6,190.1,115.4,190.1,115.3"/>
<path class="st0" d="M190,115.6l7.6-3.1l-0.3,1.1l-7.5,2.3L190,115.6"/>
<path class="st0" d="M190,114.6l8.2-5c0,0.1-0.9,4.5-1,4.6l-7.6,2.1L190,114.6z"/>
<path class="st0" d="M189.5,116.3l7.9-2.3c-0.2,0.3-0.3,0.4-0.4,0.6l-7.8,2.2C189.3,116.6,189.4,116.4,189.5,116.3z"/>
<path class="st0" d="M193.7,112.9l3.3,1.6c-0.6,0.6-1.2,1.2-2,1.4c-3.6,1.1-5.6,1.7-8.6,1.8c1.4-0.9,0.9-1.4,2.7-1"/>
<path class="st1" d="M192.6,78.9c0.8,0.2,1.6,0.7,2.2,1.2c0.6,0.6,1.1,1.3,1.4,2.1c0.3,0.6,0.5,1.3,0.5,2s-0.1,1.4-0.3,2
	c-0.2,0.7-0.6,1.2-1.1,1.8c-0.5,0.5-1,0.9-1.7,1.2l-6.9,2.9l-0.3,0.1l0.3,0.1l96.9,26l-6.2,8.7L185,102.7l-0.3-0.1l0.2,0.2l5.1,5.9
	c0.9,1,1.4,2.4,1.4,3.8s-0.5,2.7-1.4,3.8c-0.5,0.6-1.2,1-2,1.2s-1.6,0.2-2.3,0c-1-0.3-1.9-0.8-2.6-1.6l-16.6-19.1
	c-0.6-0.7-1-1.4-1.2-2.3c-0.2-0.8-0.3-1.7-0.1-2.6c0.1-0.8,0.4-1.6,0.9-2.2s1.2-1.2,1.9-1.5l21.6-9.2
	C190.5,78.6,191.6,78.6,192.6,78.9z"/>
<path class="st2" d="M258,218.9l-8.6-4.7l2.8,1.5l8.6,4.7C259.9,219.9,259,219.4,258,218.9z"/>
<path class="st2" d="M260.8,220.4l-8.6-4.7c4.7,2.3,9.6,4.1,14.7,5.4l8.6,4.7C270.5,224.5,265.5,222.7,260.8,220.4"/>
<path class="st2" d="M275.5,225.8l-8.6-4.7c10.5,2.7,21.4,3.2,32.1,1.7c9.4-1.3,18.6-4.1,27.2-8.2l8.6,4.7
	c-8.6,4.1-17.7,6.8-27.2,8.2C296.9,229,286,228.4,275.5,225.8"/>
<path class="st2" d="M324.2,228.9l2-14.3c5.3-2.5,10.4-5.4,15.2-8.7l37.1-12.2c-4.8,3.3-39.1,26-44.4,28.4"/>
<path class="st2" d="M349.9,210.6l-14.8-0.6c4.7-2.8,13.8-9.8,17.4-12.9l10.1,4.4C359.1,204.6,353.8,207.9,349.9,210.6"/>
<path class="st2" d="M361.2,201.7l-19.3,3.7c6-4,17.2-14.6,20.2-17.9l10.8,2.9C369.8,193.8,364.5,198.7,361.2,201.7"/>
<path class="st2" d="M370.6,192.1l-9.7-3.4c3-3.4,12.7-15.8,15-20.5l4,13C377.4,184.8,374,189.2,370.6,192.1z"/>
<path class="st2" d="M379,181.5l-8.6-4.7c2.8-3.9,5.3-8,7.6-12.3l9.6,4.8c-2.3,4.2-5.7,8.7-8.4,12.7"/>
<path class="st2" d="M387.1,169.7l-9.2-5.3c2.7-5,5.1-10.3,7.1-15.6l9.3,4.4C392.3,158.6,389.8,164.7,387.1,169.7L387.1,169.7z"/>
<path class="st2" d="M393.6,153.5l-8.6-4.7c4.7-12.6,7.1-26,7.1-39.5c0-35.7-17.1-64.6-43.1-78.7l9.4,4c26,14.1,42.7,44.1,42.7,79.8
	c0,13.5-2.5,26.6-7.2,39.3"/>
<path class="st2" d="M350.2,31.7l-8.6-4.7c-0.9-0.5-1.5-1.4-1.8-2.3c-0.3-1-0.3-3.3,1.8-4.9l8,7.2c-0.4,0.9-0.3,1.1,0,2.1
	c0.3,1,0.2,2.1,1.1,2.6"/>
<path class="st2" d="M348.3,27.4l-8.6-4.4c0.1-0.1,0.4-1.5,0.5-1.6l0.5-0.7l9.3,5.5l-0.4,0.4C349.6,26.6,348.3,27.4,348.3,27.4z"/>
<path class="st2" d="M350,26.6l-9.7-5.1c0.2-0.5,0.3-0.8,0.8-1.3l9.3,5.5L350,26.6L350,26.6z"/>
<path class="st2" d="M349.2,25.2l-8.5-4.5l0.8-0.8l11.4,4.2C352.8,24.2,349.4,25,349.2,25.2"/>
<path class="st2" d="M349.5,24.9l-8.4-4.7l0.4-0.4l8.9,4.6c-0.1,0.1-0.3,0.7-0.4,0.8"/>
<path class="st2" d="M350.4,24.5l-8.9-4.6l0.5-0.4l8.8,4.6L350.4,24.5L350.4,24.5z"/>
<path class="st2" d="M350.8,24.5l-9.3-4.6c0.4-0.4,0.9-0.7,1.1-0.8l9.5,4.6C351.8,23.7,351,24.3,350.8,24.5z"/>
<path class="st2" d="M351.2,23.5l-9.7-3.7c1.3-1.3,2.7-1.4,3.7-1.4l9.4,5.2c-0.5-0.1-1.2,0.3-1.7,0.4c-0.4,0.1-0.5-0.2-0.8,0"/>
<path class="st2" d="M353.8,23.2l-9.8-4.7c0.7-0.1,1.3-0.2,1.7,0c1.6,0.7,3.1,1.5,4.7,2.3l11.3,6.2c-1.6-0.8-6.8-1-8.4-1.7
	L353.8,23.2 M359.1,25.5l-8.6-4.7c1,0.5,2,1,3,1.6l8.3,4.6C360.8,26.5,360.1,26,359.1,25.5 M308,17.8l-8.6-4.7c0.5-0.1,1-0.1,1.4,0
	l8.6,4.7C309,17.7,308.5,17.7,308,17.8"/>
<path class="st2" d="M309.5,17.9l-8.6-4.7c0.2,0.1,0.5,0.1,0.7,0.2l8.6,4.7C309.9,18,309.7,17.9,309.5,17.9z"/>
<path class="st2" d="M301.5,21l-1.4-8c0.6-0.1,0.9,0,1.5,0.4l8.6,4.8l0.4,0.4 M253.6,227.1l-8.6-4.7c-28.3-15.4-47-46.9-47-85.8
	c0.1-14.7,2.7-29.2,7.8-43l8.6,4.8c-5.1,13.8-7.7,28.3-7.8,42.9C206.6,180.2,225.3,211.7,253.6,227.1L253.6,227.1z M214.4,98.4
	l-8.6-4.8c2.2-5.9,4.7-11.6,7.7-17.1l8.6,4.8C219.1,86.8,216.5,92.5,214.4,98.4"/>
<path class="st2" d="M221,91.8l-7.6-15.2c2.5-4.6,5.2-9.1,8.2-13.4l17.9-4.3c-3,4.3-15,17.8-17.5,22.5"/>
<path class="st2" d="M230.3,67.9l-8.6-4.7c2.8-4,5.9-7.9,9.1-11.6l18.9-2.7C246.4,52.6,233.1,63.9,230.3,67.9"/>
<path class="st2" d="M239.4,56.3l-8.6-4.7c3.2-3.7,6.7-7.1,10.3-10.4l18.9-0.7C256.4,43.7,242.7,52.6,239.4,56.3"/>
<path class="st2" d="M249.8,45.9l-8.6-4.7c3.9-3.5,7.9-6.7,12.2-9.7l10.1,4.4C259.1,38.8,253.6,42.4,249.8,45.9z"/>
<path class="st2" d="M262,36.2l-8.6-4.7c5.2-3.6,10.7-6.8,16.5-9.5l8.6,4.7C272.7,29.4,267.2,32.6,262,36.2"/>
<path class="st2" d="M277.8,27l-8-5c9.4-4.4,20.2-7.7,30.5-9.1l9.1,4.9c-10.3,1.5-21.9,5.2-31.3,9.6"/>
<path class="st1" d="M206.7,141.3C206.8,81,252.2,25.8,308.1,17.9c0.5-0.1,1.1,0,1.6,0.1c0.5,0.2,1,0.4,1.4,0.8s0.7,0.8,0.9,1.3
	s0.3,1,0.2,1.6c0,1.2-0.4,2.3-1.2,3.2c-0.7,0.9-1.8,1.5-2.9,1.8c-51.4,7.1-93.1,58-93.1,113.4s41.5,94.6,92.9,87.3
	s93.1-58,93.2-113.5c0-38.8-20.4-69.7-50.4-82.1c-0.5-0.2-0.9-0.6-1.3-1c-0.3-0.4-0.6-0.9-0.8-1.4s-0.2-1.1-0.2-1.6s0.2-1.1,0.5-1.5
	c0.3-0.8,0.8-1.4,1.5-1.9c0.6-0.5,1.4-0.8,2.2-1c0.6-0.1,1.3,0,1.8,0.2c32.6,13.5,54.8,47.1,54.7,89.4
	c-0.1,60.3-45.5,115.6-101.4,123.4C251.8,244.2,206.6,201.6,206.7,141.3L206.7,141.3z"/>
<path class="st3" d="M269.8,197.2l-8.6-4.7c0.7,0.4,1.4,0.8,2.2,1.1l8.6,4.7L269.8,197.2"/>
<path class="st3" d="M271.9,198.3l-8.6-4.7c3.6,1.8,7.3,3.1,11.2,4.1l15.1,7.5C285.7,204.2,275.5,200.1,271.9,198.3L271.9,198.3z"/>
<path class="st3" d="M282.4,203.1l-7.9-5.4c8,2,16.4,2.5,24.5,1.3c0.5-0.1,1-0.1,1.4,0l8.6,4.7c-0.5-0.1-0.5,0.6-1,0.7
	c-8.2,1.2-16.9,1.3-24.9-0.7"/>
<path class="st3" d="M309.1,203.8l-8.6-4.7c0.2,0.1,0.4,0.1,0.6,0.2l8.7,4.7C309.6,203.9,309.4,203.8,309.1,203.8"/>
<path class="st3" d="M309,204.4l-12.2-5.1c1.9-0.2,3.4-0.7,4.5,0l8.6,4.7C310.8,204.7,310.4,204.7,309,204.4L309,204.4z
	 M339.8,198.5l-8.6-4.7c-0.6-0.3-1.2-0.9-1.5-1.5c-0.3-0.6-0.4-1.2-0.5-1.9c0-0.8,0.2-1.9,0.5-2.1l13.2,0.5c-0.2,0.6-5,5.6-5,6.2
	c0,0.7,0.2,1.3,0.5,1.9C338.7,197.6,339.2,198.2,339.8,198.5"/>
<path class="st3" d="M338.1,193.3l-8.6-4.7c0-0.2,0.5-1,0.5-1l8.5,5C338.3,192.8,338.1,193.1,338.1,193.3z"/>
<path class="st3" d="M338.5,192.5l-8.6-4.7c-0.1-0.1,0.9-1.3,1.6-1.8l7.5,5.6C338.9,191.9,338.6,192.3,338.5,192.5z"/>
<path class="st3" d="M338.9,192l-8.6-4.7c0.6-0.9,1.1-1.1,2-1.8l7,6L338.9,192z"/>
<path class="st3" d="M339.2,191.5l-8.6-4.7l0.4-0.4l8.6,4.7C339.6,191.2,339.4,191.4,339.2,191.5"/>
<path class="st3" d="M337.9,195.1l-6.9-8.7c0.2-0.1,0.3-0.3,0.5-0.4c2.9-2,5.8-4.3,8.4-6.7l14.1,2.5c-2.7,2.4-11,6.8-13.9,8.9
	c-0.2,0.1-0.3,0.3-0.5,0.4"/>
<path class="st3" d="M339.6,193.5l0.3-14.1c2.5-2.3,5.9-5.7,8.1-8.3l15.3-0.4c-2.3,2.6-12.2,11.1-14.8,13.4"/>
<path class="st3" d="M355.8,176.7l-8.6-4.7c2.3-2.6,4.4-5.3,6.4-8.1l8.6,4.6C360.2,171.4,358.1,174.1,355.8,176.7"/>
<path class="st3" d="M360.4,177l-6.8-13.2c2.1-3,4-6.2,5.7-9.5l10.2,4.8C367.7,162.5,362.5,174,360.4,177L360.4,177z"/>
<path class="st3" d="M368,159.2l-8.6-4.7c2.1-3.8,3.9-7.8,5.4-11.9l8.6,4.7C371.8,151.4,370,155.4,368,159.2z"/>
<path class="st3" d="M373.3,147.3l-8.6-4.7c3.6-9.7,5.4-19.9,5.5-30.2c0-27.2-13.1-49.3-32.9-60.1l8.6,4.7
	c22.3,9.9,40.8,31.7,34.1,61.2C379.9,128.5,376.9,137.6,373.3,147.3L373.3,147.3z M308.2,42.6l-8.8-5.8c9.2-1.4,18.5-0.9,27.5,1.4
	l12.1,6.1C330,42.1,317.3,41.3,308.2,42.6z"/>
<path class="st3" d="M335.4,42.9l-8.6-4.7c4.3,1.1,8.5,2.7,12.5,4.6l8.9,4.9c-4-2-8.8-1.4-13.1-2.5"/>
<path class="st3" d="M347.4,48.5l-8.1-5.7l2.4,1.3l8.6,4.7L347.4,48.5z M265.3,205.4l-8.6-4.6c-22.2-12.1-36.9-36.8-36.8-67.2
	c0-11.5,2.1-22.9,6.1-33.7l14.8-3.8c-4,10.8-7.9,30.5-7.9,42C238.3,162.8,243.1,193.3,265.3,205.4"/>
<path class="st3" d="M234.6,104.6l-8.6-4.7c1.6-4.6,3.8-10.1,6.6-14.1l10.1,5.1C240.4,95,236.3,100,234.6,104.6z"/>
<path class="st3" d="M240.6,91.2l-8.6-4.7c1.9-3.6,4.1-7.1,6.5-10.5l19.5-1C255.7,78.4,242.7,87.6,240.6,91.2"/>
<path class="st3" d="M247.1,80.7l-8.6-4.6c2.2-3.2,4.6-6.3,7.1-9.1l22.4-5.9C265.4,64,249.3,77.6,247.1,80.7z"/>
<path class="st3" d="M254.2,71.7l-8.6-4.7c2.5-2.9,5.2-5.6,8.1-8.2l24-2.2C274.8,59.2,256.8,68.8,254.2,71.7"/>
<path class="st3" d="M262.4,63.5l-8.7-4.7c3-2.7,6.2-5.3,9.6-7.6l21.3,0.9C281.2,54.4,265.4,60.7,262.4,63.5"/>
<path class="st3" d="M271.9,55.9l-8.6-4.7c4.1-2.8,8.4-5.3,12.9-7.4l10.1,4.8C281.7,50.7,276,53.1,271.9,55.9z"/>
<path class="st3" d="M284.8,48.5l-8.6-4.7c7.3-3.5,15.2-5.8,23.2-7l8.6,4.7C300,42.7,292.1,45,284.8,48.5"/>
<path class="st4" d="M308,41.6c43.7-6.1,79.1,27.1,79,74.4c-0.2,16.1-4.2,32-11.7,46.2c-7.5,14.3-18.3,26.6-31.5,35.9
	c-0.6,0.4-1.2,0.6-1.9,0.7c-0.7,0.1-1.5,0-2.1-0.3c-0.6-0.3-1.2-0.9-1.5-1.5c-0.5-1.1-0.5-2.3-0.2-3.4s1.1-2.1,2.1-2.8
	c11.8-8.3,21.5-19.4,28.2-32.2c6.7-12.8,10.3-27,10.5-41.5c0-42.3-31.7-72.2-70.9-66.7c-39.2,5.4-71.1,44.3-71.2,86.7
	c-0.1,42.3,31.7,72.3,71,66.7c0.5-0.1,1.1,0,1.6,0.1c0.5,0.2,1,0.4,1.4,0.8c0.4,0.4,0.7,0.8,0.9,1.3c0.2,0.5,0.3,1,0.2,1.6
	c0,1.2-0.4,2.3-1.1,3.2s-1.8,1.5-2.9,1.8c-43.7,6.2-79.1-27.1-79-74.4C228.7,90.9,264.3,47.7,308,41.6L308,41.6z"/>
<path class="st2" d="M282.5,174.8l-8.6-4.7l1.4,0.7l8.6,4.7L282.5,174.8z"/>
<path class="st2" d="M283.7,176.1l-8.2-5.5c2.4,1.2,5.1,2.4,7.7,3.1l9,5C289.5,177.9,286.1,177.3,283.7,176.1z"/>
<path class="st2" d="M284.8,182.5l-1.9-8.9c1.4,0.4,2.8,0.6,4.3,0.9c4.1,0.6,8.3,0.6,12.4,0c4.9-0.7,9.6-2.1,14-4.2l8.6,4.7
	c-4.4,2.1-9.2,3.8-14.1,4.4c-4.1,0.6-8.1,0.6-12.2,0c-1.4-0.2-3.3-0.1-4.6-0.4"/>
<path class="st2" d="M313.3,184.5l0.3-14.2c2.7-1.3,5.3-2.8,7.8-4.5l9.6,4.8c-2.5,1.7-2.6,8.7-5.3,10"/>
<path class="st2" d="M330.5,171.4l-9.3-5.5c2-1.4,4.1-3.1,5.9-4.8l10.1,4.8C335.4,167.6,332.6,170,330.5,171.4z"/>
<path class="st2" d="M335.8,165.9l-8.8-4.7c1.7-1.5,3.8-3.6,5.4-5.3l8.4,5.1C339.1,162.7,337.5,164.3,335.8,165.9"/>
<path class="st2" d="M336.4,171l-4.4-14.7c1.5-1.7,3.3-3.9,4.6-5.8h14c-1.3,1.9-8.5,8.8-10,10.5"/>
<path class="st2" d="M345,155.5l-8.6-4.7c1.4-2,2.6-4.1,3.8-6.3l10.7,4.5C349.7,151.2,346.4,153.5,345,155.5"/>
<path class="st2" d="M350,149.9l-9.8-5.3c1.4-2.6,2.6-5.2,3.6-8l9.2,4.9c-1,2.7-1.6,5.4-3,8"/>
<path class="st2" d="M352.4,141.2l-8.6-4.7c0.8-2.2,1.5-4.5,2.1-6.8c5.7-23.2-3.3-44.8-20.5-54.1l9,4.2
	c17.2,9.3,25.8,31.5,20.2,54.6C353.9,136.7,353.3,139,352.4,141.2z M295.5,74.2l4-11.9c4.8-0.7,9.9-0.8,14.8-0.1
	c1.7,0.2,3.4,0.6,5,1l8.6,4.7c-1.6-0.4-3.3-0.8-5-1c-4.8-0.7-10.8-0.1-15.6,0.6"/>
<path class="st2" d="M317,71.1l2.3-7.9c3,0.8,6,1.9,8.8,3.3l8.6,4.7c-2.8-1.4-5.8-2.5-8.9-3.3 M278.1,183l-8.6-4.7
	c-12.7-6.9-21.6-19.6-24.8-34.9c-0.2-0.9-0.1-1.8,0.2-2.7l9.2,4.6c-0.3,0.9-0.9,1.9-0.8,2.8C256.5,163.3,265.3,176.1,278.1,183z"/>
<path class="st2" d="M254.1,146.1l-9.2-5.4c0.1-0.2,0.2-0.5,0.3-0.7l9.7,4.9C254.8,145.1,254.2,145.9,254.1,146.1z"/>
<path class="st2" d="M254.5,145.3l-9.3-5.3l0.3-0.6l11.7,2.5L254.5,145.3L254.5,145.3z"/>
<path class="st2" d="M254.2,144.1l-8.6-4.7c0.1-0.2,0.2-0.3,0.4-0.5l8.6,4.7C254.5,143.8,254.3,144,254.2,144.1z"/>
<path class="st2" d="M254.5,144.4l-8.6-5.5l0.4-0.4l8.6,4.7C254.9,143.4,254.7,144.3,254.5,144.4z M255,143.2l-8.6-4.7
	c0.2-0.1,0.3-0.2,0.5-0.3l8.6,4.7C255.3,143,255.2,143.2,255,143.2"/>
<path class="st2" d="M244.9,140.7c0,0,0.4-1.6,1.7-2.5c0.2-0.1,1.2-0.6,1.6-0.7l9.2,5.2c-0.2,0.1-1.5,1.1-1.7,1.3"/>
<path class="st2" d="M252.3,147.6l-4.7-9.9l0.3-0.1c0.3-0.1,0.6-0.2,0.9-0.2c0.5-0.1,1-0.1,1.4,0l9.4,5.3c-0.5-0.1-1.2,0.3-1.7,0.4
	c-0.3,0-1-0.1-1.3,0C256.6,143.1,252.3,147.6,252.3,147.6z"/>
<path class="st2" d="M258.8,142.2l-8.6-4.7c0.2,0.1,0.5,0.1,0.7,0.2l8.6,4.7C259.3,142.3,259.1,142.2,258.8,142.2"/>
<path class="st2" d="M258.3,142.7l-8.1-5.3l0.8,0.3l9,5c0.4,0.4-0.1,0.5-1.3,0.4 M255.8,124.1c-2.3-0.7-8.6-4.7-8.6-4.7
	c-0.8-0.5-1.4-1.2-1.7-2c-0.3-0.8-0.4-1.8-0.2-2.7c0.7-2.7,1.5-5.4,2.4-8l10.5,3.9c-1,2.6-3.1,6.2-3.8,8.9c-0.3,0.9-0.3,1.3,0,2.1
	s3.1,2.4,3.8,2.8C258.2,124.4,258.5,124.9,255.8,124.1z"/>
<path class="st2" d="M256.5,111.3l-8.8-4.4c1.2-3.2,2.8-6.7,4.4-9.7l14.2,2C264.6,102.2,257.7,108.1,256.5,111.3"/>
<path class="st2" d="M259.8,105.6l-7.7-8.3c1.4-2.6,2.9-5,4.5-7.4l15.8-3.8c-1.7,2.4-10.4,13.3-11.7,15.8"/>
<path class="st2" d="M265.3,94.7l-15.7,7.7c3.3-8,12.5-23.6,29.5-33.1l-8.7,19C268.5,90.4,266.8,92.5,265.3,94.7"/>
<path class="st2" d="M270.2,89.1l-8.5-5.5c3.3-5.2,14.4-11.8,16.4-13.6L277,82.3c-2,1.8-4.1,5.2-5.9,7.2"/>
<path class="st2" d="M275.6,83.6l-8.3-5.8c2.2-1.9,4.4-3.8,6.8-5.4l15.2,3.9c-2.4,1.6-11.2,4.9-13.4,6.8"/>
<path class="st2" d="M282.8,77.1l-8.6-4.7c2.9-2,6-3.8,9.2-5.3l15.2,2.6C295.4,71.3,285.8,75.1,282.8,77.1"/>
<path class="st2" d="M292,71.8l-8.6-4.7c5.2-2.4,10.7-4.1,16.3-4.9l8.6,4.7C302.7,67.6,297.2,69.3,292,71.8"/>
<path class="st1" d="M322.9,67c0-0.1-20.7-3.1-37.9,7.4c-16.2,9.9-22.1,17.2-28.3,31.9c-6.5,15.3-1.6,17.3,1.3,18.2
	c1-0.2,1.9-0.6,2.6-1.3c0.7-0.7,1.2-1.5,1.4-2.5c5.8-24,25.2-41.8,46.3-44.8c4.1-0.6,8.3-0.6,12.4,0c25.5,3.8,40.6,30.1,33.8,58.6
	c-5.8,23.9-25.2,41.8-46.3,44.8c-4.1,0.6-8.3,0.6-12.4,0c-17.9-2.6-30.7-16.3-34.3-34.1c-0.1-0.9-0.8-1.7-1.4-2.3
	c-1.2-1.1-7.7-2-6.7,5.3c3,21.1,19.3,37,40.3,40.1c4.8,0.7,9.7,0.7,14.6,0c24.8-3.5,47.5-24.5,54.3-52.6
	C370.6,102.2,352.9,71.4,322.9,67"/>
<path class="st3" d="M334.9,118.1l-8.7-4.5c-0.4-0.2-0.8-0.6-1.1-1c-0.3-0.4-0.5-0.9-0.6-1.4c-0.7-3.2-2.1-6.1-4.1-8.7
	s-4.4-4.7-7.3-6.3l9.1,4.3c2.8,1.6,6.5,3.3,8.4,5.9c2,2.6,4.1,5.2,4.9,8.4c0.1,0.5,1.5,0.4,1.8,0.8c0.2,0.4-2.1,2.1-1.7,2.3
	 M293.5,152.7l-8.6-4.7c0.2,0.2,0.5,0.3,0.8,0.4l8.6,4.7L293.5,152.7z"/>
<path class="st3" d="M293.9,153.5l-8.2-5.1c1.3,0.7,2.8,1.2,4.2,1.6l8.6,4.7c-1.5-0.4-2.9-0.9-4.2-1.6"/>
<path class="st3" d="M298.4,154.7l-8.6-4.7c3,0.8,6,0.9,9,0.5c2.4-0.3,4.6-1,6.8-1.9l0.9-0.4l8.6,4.7l-0.9,0.4
	c-2.2,0.9-4.5,1.6-6.8,1.9C304.5,155.6,301.4,155.4,298.4,154.7"/>
<path class="st3" d="M314.9,153.7l-8.4-5.5c1.5-0.7,3.1-1.6,4.4-2.6l8.6,4.7C318.2,151.3,316.4,153,314.9,153.7L314.9,153.7z"/>
<path class="st3" d="M312.5,158.4l-1.6-12.8c1.1-0.8,2.2-1.6,3.2-2.5l17.7,0.4c-1,0.9-11.1,6.1-12.2,6.8"/>
<path class="st3" d="M322.7,147.8l-8.6-4.7c0.9-0.8,1.8-1.7,2.7-2.7l8.6,4.7C324.5,146.1,323.7,147,322.7,147.8"/>
<path class="st3" d="M325,147.4l-8.3-6.9c0.8-0.9,1.6-1.9,2.4-3l10.2,5.7C328.5,144.2,325.9,146.4,325,147.4L325,147.4z"/>
<path class="st3" d="M329.3,143.6l-10.2-6.1c0.8-1.1,1.5-2.3,2.1-3.5l10.2,5.4c-0.6,1.2-1.7,2.3-2.5,3.4"/>
<path class="st3" d="M330.5,139.3l-9.4-5.4c0.8-1.4,1.4-2.9,2-4.5l10.3,5.2c-0.6,1.5-1.8,3.2-2.5,4.6"/>
<path class="st3" d="M333.1,135.6l-9.8-6c0.6-1.7,1.1-3.4,1.4-5.1l0.4-1.2l8.8,5.1c-0.1,0.3,0.9,1,0.8,1.3
	C334.4,131.4,333.7,134,333.1,135.6L333.1,135.6z"/>
<path class="st3" d="M333.5,128.3l-8.6-4.7c0.1-0.2,0.2-0.6,0.3-0.8l8.6,4.8C333.8,127.9,333.7,128.1,333.5,128.3"/>
<path class="st3" d="M333.8,127.7l-8.6-4.6l0.3-0.6c3.6,1.6,5.3,2.8,8.6,4.8C334,127.4,333.9,127.6,333.8,127.7"/>
<path class="st3" d="M334.2,127.1l-9.9-1.7c0.9-2.3,0.6-4.1,4-4.8l6.1,6C334.3,126.8,334.2,127,334.2,127.1"/>
<path class="st3" d="M334.5,126.6l-8.6-4.7c0.1-0.2,0.9-1.2,3-1.6l6,5.9C334.9,126.2,334.5,126.6,334.5,126.6z"/>
<path class="st3" d="M333.5,129.2l-7.2-7.7c0.2-0.1,0.4-0.3,0.5-0.4l11.3,4.3c-0.2,0.1-3,0.7-3.1,0.8"/>
<path class="st3" d="M335.5,125.8l-8.6-4.7c0.1-0.3,1.6-0.9,2-0.8l7.4,5.1C336,125.6,335.7,125.7,335.5,125.8"/>
<path class="st3" d="M336.1,125.4l-8.6-4.7c0.4-0.2,0.8-0.3,1.2-0.4h1.5l8.6,4.7l-0.6-0.1h-0.9C336.9,125,336.5,125.1,336.1,125.4"
	/>
<path class="st3" d="M338.8,125.1l-8.6-4.7c0.2,0.1,0.4,0.1,0.6,0.2l8.6,4.7C339.2,125.3,339,125.2,338.8,125.1z"/>
<path class="st3" d="M335.2,127.5l-5.1-7.2c0.4,0.1,0.6,0.1,0.8,0.3l8.6,4.7c0.7,0.4,1,0.7,1.1,1.3 M295.6,94.9l3.5-10.2
	c4-0.6,8-0.4,11.9,0.6l8.6,4.7c-3.9-1-7.9-1.2-11.9-0.6"/>
<path class="st3" d="M316.5,90.8l-5.5-5.4c1.9,0.5,3.7,1.2,5.5,2l8.6,4.7c-1.8-0.9-4.9-0.4-6.8-0.9"/>
<path class="st3" d="M325.1,92.1l-8.6-4.7l1,0.5l8.6,4.8L325.1,92.1 M289.2,160.9l-8.8-4.6c-3.7-2.1-6.9-4.9-9.5-8.3
	c-2.6-3.4-4.4-7.3-5.3-11.4c-2-8-1.3-16.9,1.6-24.6l8.9,5.1c-2.9,7.7-2.8,16.1-0.8,24.1c1,4.2,2.1,7.6,4.6,11
	C282.4,155.4,285.4,158.8,289.2,160.9z"/>
<path class="st3" d="M275.7,117l-8.6-4.7c0.7-2,1.6-4,2.6-5.9l10.6,5.1C279.3,113.4,276.4,115,275.7,117z"/>
<path class="st3" d="M278.3,111.1l-8.6-4.7c0.9-1.6,1.8-3.1,2.8-4.6l8.6,4.7C280.1,108,279.2,109.5,278.3,111.1"/>
<path class="st3" d="M275.3,112.6l-2.7-10.8c1-1.4,2-2.7,3.1-3.9l8.6,4.7c-1.1,1.2-5.1,11.2-6.1,12.6"/>
<path class="st3" d="M283.3,108.6l-7.6-10.8c1.1-1.2,2.3-2.4,3.5-3.5l16.7-0.8c-1.2,1.1-6.9,11.7-8,13"/>
<path class="st3" d="M287.8,99.1l-8.6-4.7c1.3-1.2,2.7-2.3,4.2-3.3l11.8,4.3C293.6,96.4,289.1,97.9,287.8,99.1"/>
<path class="st3" d="M291.9,95.8l-8.7-4.7c1.8-1.3,3.7-2.3,5.7-3.3l21.5,2C308.4,90.7,293.7,94.5,291.9,95.8"/>
<path class="st3" d="M291.8,97l-2.8-9.2c0.4-0.2,0.8-0.4,1.1-0.5c2.9-1.2,5.9-2.1,9-2.5l12.4,4.4c-3.1,0.4-9.9,1.6-12.8,2.8
	C298.7,92,291.8,97,291.8,97z"/>
<path class="st4" d="M300.8,100.2c-14.1,6-22.4,22.8-18.7,37.5c1.2,5.6,4.5,10.6,9.2,13.8c4.7,3.3,10.5,4.6,16.2,3.7
	c2.4-0.3,4.7-1,6.9-1.9c4.9-2.2,9.1-5.6,12.4-9.8s5.6-9.1,6.6-14.4c0.2-1,0.6-1.9,1.4-2.6c0.7-0.7,1.6-1.2,2.6-1.4h0.9
	c0.5,0.1,1,0.2,1.5,0.5s0.8,0.7,1.1,1.1c0.3,0.5,0.5,1,0.6,1.5c0.1,0.5,0,1.1-0.1,1.6c-1.3,6.9-4.3,13.3-8.6,18.8
	s-9.9,9.9-16.3,12.7c-2.9,1.2-5.9,2.1-8.9,2.5c-15.1,2.2-29.1-6.8-33.2-22.9h-0.1h0.1c-4.9-19.2,6.1-41.1,24.5-49
	c2.9-1.2,5.9-2.1,8.9-2.5c15.1-2.1,29.1,6.9,33.2,22.9c0.3,1.1,0.1,2.3-0.4,3.4c-0.5,1-1.4,1.9-2.5,2.4c-0.3,0.1-0.7,0.2-1,0.3
	c-0.9,0.1-1.8-0.1-2.5-0.6c-0.7-0.5-1.2-1.3-1.4-2.1c-1.2-5.6-4.5-10.5-9.2-13.8s-10.5-4.6-16.2-3.7
	C305.3,98.6,303,99.3,300.8,100.2L300.8,100.2z"/>
<path class="st0" d="M344.1,134.4l7.8-2.2l-66.6-17.4c-0.8,1.5-1.2,2.3-1.7,3.8L344.1,134.4z M358.6,149.4l7.8-2.2l4.7,13.6l-10.6,3
	L358.6,149.4L358.6,149.4z"/>
<path class="st0" d="M363.3,155.3l7.8-2.2c0.1,0.1,0.2,0.3,0.3,0.5l-7.8,2.2C363.5,155.6,363.4,155.4,363.3,155.3z"/>
<path class="st0" d="M363.6,155.7l7.8-2.1c0.1,0.2,0.3,0.5,0.4,0.7l-7.8,2.2C363.9,156.3,363.7,156,363.6,155.7"/>
<path class="st0" d="M364,156.4l7.8-2.2c0.1,0.3,0.3,0.6,0.3,0.9l-7.8,2.2C364.2,157.1,364.1,156.7,364,156.4 M364.3,157.4l7.8-2.2
	c0,0.2,0,0.4,0.1,0.6l-7.8,2.2C364.5,157.7,364.5,157.5,364.3,157.4z"/>
<path class="st0" d="M364.5,157.9l7.8-2.2v0.4l-7.8,2.2V157.9z M364.5,158.4l7.8-2.2v0.4l-7.8,2.2V158.4z M364.6,158.8l7.8-2.2v0.4
	l-7.8,2.2V158.8"/>
<path class="st0" d="M364.6,159.1l7.8-2.2v0.3l-7.8,2.2V159.1z M364.6,159.5l7.8-2.2v0.3l-7.8,2.2V159.5"/>
<path class="st0" d="M364.5,159.8l7.8-2.2v0.3l-7.8,2.2V159.8z"/>
<path class="st0" d="M364.5,160.1l7.8-2.2v0.3l-7.8,2.2V160.1z"/>
<path class="st0" d="M364.4,160.4l7.8-2.2v0.3l-7.8,2.2V160.4"/>
<path class="st0" d="M364.3,160.7l7.8-2.2v0.3l-7.9,2.1C364.2,160.8,364.2,160.7,364.3,160.7"/>
<path class="st0" d="M364.2,160.9l7.8-2.2c0,0.1-0.1,0.2-0.1,0.3l-7.8,2.2C364.2,161.1,364.2,161,364.2,160.9 M364.1,161.3l7.8-2.2
	l-0.1,0.3l-7.8,2.2C364,161.5,364.1,161.4,364.1,161.3"/>
<path class="st0" d="M364,161.6l7.8-2.2c-0.1,0.1-0.1,0.2-0.2,0.3l-7.8,2.2C363.8,161.9,363.9,161.7,364,161.6 M363.8,162l7.8-2.2
	l-0.2,0.4l-7.8,2.2C363.6,162.2,363.7,162.1,363.8,162"/>
<path class="st0" d="M363.5,162.3l7.8-2.2c-0.1,0.1-0.2,0.3-0.3,0.4l-7.8,2.2C363.3,162.7,363.4,162.5,363.5,162.3 M363.2,162.8
	l7.8-2.2l-0.2,0.3c-0.5,0.5-1.1,0.9-1.8,1.1c0,0-8,2.3-8.6,2.3c-0.6-0.1,1.6-0.5,2.1-1C362.5,163.1,363.1,162.9,363.2,162.8
	L363.2,162.8z M350.2,137.5l18.1-0.9l3,0.8l-7.8,2.8L350.2,137.5L350.2,137.5z"/>
<path class="st0" d="M367.7,135.2l6.7-1.5l-6.2,2.9l-7.8,2.2L367.7,135.2L367.7,135.2z M363,125.5l7.8-2.2c0.7-0.2,1.2-0.2,2.4,0
	c1.7,0.4,2.5,1.7,2.5,1.7l-6.8,3.8l-5.6-3.4L363,125.5"/>
<path class="st0" d="M363.4,125.4l7.8-2.2h0.4l-7.8,2.2H363.4z"/>
<path class="st0" d="M363.8,125.4l7.8-2.2h0.3l-7.8,2.2H363.8"/>
<path class="st0" d="M364.1,125.3l7.8-2.2h0.3l-7.8,2.2H364.1 M364.5,125.4l7.8-2.2h0.3l-7.8,2.2H364.5z M364.8,125.4l7.8-2.2h0.3
	l-7.8,2.2H364.8 M365.1,125.5l7.8-2.2h0.3l-7.8,2.2H365.1 M365.4,125.5l7.8-2.2h0.3l-7.8,2.2H365.4 M365.6,125.6l7.8-2.2l0.3,0.1
	l-7.8,2.2L365.6,125.6z M365.9,125.7l7.8-2.2l0.3,0.1l-7.8,2.2L365.9,125.7z M366.2,125.8l7.8-2.2l0.3,0.1l-7.8,2.2L366.2,125.8
	 M366.5,126l7.8-2.2l0.3,0.2l-7.8,2.2L366.5,126z M366.8,126.2l7.8-2.2c0.1,0.1,0.2,0.1,0.3,0.2l-7.8,2.2L366.8,126.2 M367.1,126.4
	l7.8-2.2l0.3,0.3l-7.8,2.2L367.1,126.4"/>
<path class="st0" d="M367.4,126.6l7.8-2.2l0.4,0.4l-7.8,2.2L367.4,126.6z"/>
<path class="st0" d="M367.8,127l7.8-2.2c0.2,0.2,0.4,0.5,0.6,0.8l-7.8,2.3C368.2,127.6,368,127.4,367.8,127"/>
<path class="st0" d="M368.4,127.9l7.3-2.9c0.3,0.2,0.4,0.4,1,1.4c0.9,1.5,0.7,4.9-0.5,5.8l-7.2-3.6
	C368.8,128.3,368.7,128,368.4,127.9"/>
<path class="st0" d="M368.9,128.5l7.6-2.3c0.1,0.3,0.4,0.8,0.4,1.7l-7.8,1.5c-0.1-0.3-0.2-0.5-0.3-0.8
	C368.9,128.6,368.9,128.6,368.9,128.5L368.9,128.5z"/>
<path class="st0" d="M368.9,128.8l7.7-1.7c0,0.2,0.3,1.5,0.4,1.7l-7.7,1.2C369.3,129.8,368.9,128.9,368.9,128.8z"/>
<path class="st0" d="M369.3,130l7.7-2.1v0.4l-7.7,2.1V130"/>
<path class="st0" d="M369.3,129.4l7.7-1.1v0.4l-7.6,2.5C369.4,131.2,369.3,129.6,369.3,129.4L369.3,129.4z"/>
<path class="st0" d="M369.4,130.9l7.6-2.1v0.4l-7.6,2V130.9L369.4,130.9z"/>
<path class="st0" d="M369.4,131.2l7.6-2.4v0.8l-7.6,1.9V131.2"/>
<path class="st0" d="M369.4,131.6l7.6-2.3v0.8l-7.6,1.8V131.6z"/>
<path class="st0" d="M369.4,131.9l7.6-2.7v0.8l-7.6,2.2V131.9"/>
<path class="st0" d="M369.3,132.2l7.8-2.2v0.3l-7.8,2.2V132.2z"/>
<path class="st0" d="M369.4,131.3l7.7-1v0.3l-7.8,2.2L369,133"/>
<path class="st0" d="M369.2,132.8l7.8-2.2v0.3l-8,2.5L369.2,132.8z"/>
<path class="st0" d="M369.1,133.1l7.8-2.2c-0.1,0.1-0.1,0.2-0.1,0.3l-7.8,2.1C369,133.3,369,133.2,369.1,133.1"/>
<path class="st0" d="M368.9,133.4l7.8-2.2c-0.1,0.1-0.1,0.2-0.1,0.3c-3.1,1.9-5,1.9-8.1,2.3L368.9,133.4L368.9,133.4z"/>
<path class="st0" d="M368.8,133.7l7.8-2.2l-0.2,0.3l-7.8,2.2L368.8,133.7z M368.6,134.1l7.8-2.2l-0.7,0.7l-7.4,1.8L368.6,134.1
	L368.6,134.1z"/>
<path class="st0" d="M368.4,134.4l8.2-2.7c0,0-1.5,1.6-1.7,1.7l-6.8,1.4C368.2,134.7,368.4,134.6,368.4,134.4"/>
<path class="st0" d="M369.3,132.5l7.3-0.8c-0.4,0.8-1.6,1.7-2.1,1.9l-7.8,2.2C367.2,135.6,368.9,133,369.3,132.5L369.3,132.5z
	 M375.7,143.9l9.5-2l4.2,1.2l-7.8,2.8L375.7,143.9z"/>
<path class="st0" d="M385.8,139.1l6.9,0.2l-6.2,2.9l-7.8,2.2L385.8,139.1L385.8,139.1z M381.1,131.1l7.8-2.2c0.7-0.2,1.2-0.2,2.4,0
	c1.7,0.4,2.5,1.7,2.5,1.7l-6.8,3.8l-5.6-3.4L381.1,131.1"/>
<path class="st0" d="M381.6,131l7.8-2.2h0.4L382,131H381.6z"/>
<path class="st0" d="M381.9,131l7.8-2.2h0.3l-7.8,2.2H381.9 M382.3,131l7.8-2.2h0.3l-7.8,2.2H382.3"/>
<path class="st0" d="M382.6,131l7.8-2.2h0.3l-7.8,2.2H382.6z"/>
<path class="st0" d="M382.9,131l7.8-2.2h0.3l-7.8,2.2H382.9 M383.2,131.1l7.8-2.2h0.3l-7.8,2.2H383.2"/>
<path class="st0" d="M383.5,131.1l7.8-2.2h0.3l-7.8,2.2H383.5 M383.8,131.2l7.8-2.2l0.3,0.1l-7.8,2.2L383.8,131.2z M384.1,131.3
	l7.8-2.2l0.3,0.1l-7.8,2.2L384.1,131.3z M384.4,131.5l7.8-2.2l0.3,0.1l-7.8,2.2L384.4,131.5 M384.7,131.7l7.8-2.2l0.3,0.2l-7.8,2.2
	L384.7,131.7z"/>
<path class="st0" d="M385,131.8l7.8-2.2c0.1,0.1,0.2,0.1,0.3,0.2l-7.8,2.2L385,131.8"/>
<path class="st0" d="M385.3,132l7.8-2.2l0.3,0.3l-7.8,2.2L385.3,132"/>
<path class="st0" d="M385.6,132.3l7.8-2.2l0.4,0.4l-7.8,2.2L385.6,132.3z"/>
<path class="st0" d="M386,132.7l7.8-2.2c0.2,0.2,0.4,0.5,0.6,0.8l-7.8,2.3C386.4,133.2,386.2,133,386,132.7"/>
<path class="st0" d="M386.6,133.5l7.3-2.9c0.3,0.2,0.4,0.4,1,1.4c0.9,1.5,0.7,4.9-0.5,5.8l-7.2-3.6
	C387,133.9,386.8,133.7,386.6,133.5"/>
<path class="st0" d="M387.1,134.2l7.6-2.3c0.1,0.3,0.4,0.8,0.4,1.7l-7.3,3.7c-0.1-0.3-0.7-2.7-0.8-3
	C387.1,134.3,387.1,134.2,387.1,134.2L387.1,134.2z"/>
<path class="st0" d="M387.4,135.1l7.4-2.4c0,0.2,0.3,1.5,0.4,1.7l-7.7,1.2C387.4,135.5,387.4,135.3,387.4,135.1L387.4,135.1z"/>
<path class="st0" d="M387.5,135.6l7.7-2.1v0.4l-7.7,2.1V135.6 M387.5,136.1l7.6-2.1v0.4l-7.6,2.5V136.1L387.5,136.1z"/>
<path class="st0" d="M387.6,136.5l7.6-2.1v0.4l-7.6,2V136.5L387.6,136.5z"/>
<path class="st0" d="M387.6,136.8l7.6-2.4v0.8l-7.6,1.9V136.8"/>
<path class="st0" d="M387.6,137.2l7.6-2.3v0.8l-7.6,1.8V137.2z"/>
<path class="st0" d="M387.5,137.5l7.6-2.7v0.8l-7.6,2.2V137.5 M387.5,137.8l7.8-2.2v0.3l-7.8,2.2V137.8z"/>
<path class="st0" d="M387.6,136.9l7.7-1v0.3l-7.8,2.2l-0.3,0.2"/>
<path class="st0" d="M387.3,138.4l7.8-2.2v0.3l-8,2.5L387.3,138.4z"/>
<path class="st0" d="M387.2,138.7l7.8-2.2c-0.1,0.1-0.1,0.2-0.1,0.3l-7.8,2.1C387.1,138.9,387.2,138.8,387.2,138.7"/>
<path class="st0" d="M387.5,137.8l7.4-1c-0.1,0.1-0.1,0.2-0.1,0.3c-3.1,1.9-5,1.9-8.1,2.3L387.5,137.8L387.5,137.8z"/>
<path class="st0" d="M387,139.4l7.8-2.2l-0.2,0.3l-7.8,2.2L387,139.4z"/>
<path class="st0" d="M386.8,139.7l7.8-2.2l-0.7,0.7l-7.4,1.8L386.8,139.7L386.8,139.7z"/>
<path class="st0" d="M386.5,140l8.2-2.7c0,0-1.5,1.7-1.7,1.7l-6.8,1.4C386.4,140.3,386.5,140.2,386.5,140"/>
<path class="st0" d="M386.7,139.5l8-2.1c-0.4,0.8-1.6,1.7-2.1,1.9l-7.8,2.2C385.3,141.2,386.3,139.9,386.7,139.5L386.7,139.5z
	 M401,136.2l7.4-2.2c0.7-0.2,1.2-0.2,2.4,0c1.7,0.4,2.5,1.7,2.5,1.7l-6.8,3.8l-7.2-1.9L401,136.2"/>
<path class="st0" d="M401.1,136.1l7.8-2.2h0.4l-7.8,2.2H401.1z"/>
<path class="st0" d="M401.5,136.1l7.8-2.2h0.3l-7.8,2.2H401.5"/>
<path class="st0" d="M401.8,136l7.8-2.2h0.3l-7.8,2.2H401.8 M402.2,136.1l7.8-2.2h0.3l-7.8,2.2H402.2z"/>
<path class="st0" d="M402.5,136.1l7.8-2.2h0.3l-7.8,2.2H402.5"/>
<path class="st0" d="M402.8,136.1l7.8-2.2h0.3l-7.8,2.2H402.8 M403.1,136.2l7.8-2.2h0.3l-7.8,2.2H403.1 M403.3,136.3l7.8-2.2
	l0.3,0.1l-7.8,2.2L403.3,136.3z M403.6,136.4l7.8-2.2l0.3,0.1l-7.8,2.2L403.6,136.4z M403.9,136.5l7.8-2.2l0.3,0.1l-7.8,2.2
	L403.9,136.5 M404.2,136.7l7.8-2.2l0.3,0.2l-7.8,2.2L404.2,136.7z M404.5,136.9l7.8-2.2c0.1,0.1,0.2,0.1,0.3,0.2l-7.8,2.2
	L404.5,136.9 M404.8,137.1l7.8-2.2l0.3,0.3l-7.8,2.2L404.8,137.1"/>
<path class="st0" d="M405.1,137.3l7.8-2.2l0.4,0.4l-7.8,2.2L405.1,137.3z"/>
<path class="st0" d="M405.5,137.7l7.8-2.2c0.2,0.2,0.4,0.5,0.6,0.8l-7.8,2.3C405.9,138.3,405.7,138.1,405.5,137.7"/>
<path class="st0" d="M406.1,138.6l7.3-2.9c0.3,0.2,0.4,0.4,1,1.4c0.9,1.5,0.7,4.9-0.5,5.8l-7.2-3.6
	C406.5,139,406.3,138.7,406.1,138.6"/>
<path class="st0" d="M404.5,136.5l9.8,0.4c0.1,0.3,0.4,0.8,0.4,1.7l-6.5,3.7c-0.8,0.2-1.4,0.7-1.7,1.4c-0.3,0.8-0.8-0.6-0.9-0.8
	C405.6,142.9,404.5,136.6,404.5,136.5L404.5,136.5z"/>
<path class="st0" d="M406.9,140.2l7.4-2.4c0,0.2,0.3,1.5,0.4,1.7l-7.7,1.2C407,140.5,406.9,140.3,406.9,140.2L406.9,140.2z"/>
<path class="st0" d="M407,140.7l7.7-2.1v0.4l-7.7,2.1V140.7 M407.1,141.1l7.6-2.1v0.4l-7.6,2.5V141.1L407.1,141.1z"/>
<path class="st0" d="M407.1,141.6l7.6-2.1v0.4l-7.6,2V141.6L407.1,141.6z"/>
<path class="st0" d="M407.1,141.9l7.6-2.4v0.8l-7.6,1.9V141.9"/>
<path class="st0" d="M407.1,142.2l7.6-2.3v0.8l-7.6,1.8V142.2z"/>
<path class="st0" d="M407.1,142.6l7.6-2.7v0.8l-7.6,2.2V142.6"/>
<path class="st0" d="M407,142.9l7.8-2.2v0.3l-7.8,2.2V142.9z"/>
<path class="st0" d="M407.1,142l7.7-1v0.3l-7.8,2.2l-0.3,0.2"/>
<path class="st0" d="M406.9,143.5l7.8-2.2v0.3l-8,2.5L406.9,143.5z"/>
<path class="st0" d="M406.8,143.8l7.8-2.2c-0.1,0.1-0.1,0.2-0.1,0.3l-7.8,2.2C406.7,144,406.7,143.9,406.8,143.8"/>
<path class="st0" d="M406.6,144.1l7.8-2.2c-0.1,0.1-0.1,0.2-0.1,0.3c-3.1,1.9-5,1.9-8.1,2.3L406.6,144.1L406.6,144.1z"/>
<path class="st0" d="M406.5,144.4l7.8-2.2l-0.2,0.3l-7.8,2.2L406.5,144.4z M406.3,144.8l7.8-2.2l-0.7,0.7l-7.4,1.8L406.3,144.8
	L406.3,144.8z"/>
<path class="st0" d="M406,145.1l8.2-2.7c0,0-1.5,1.6-1.7,1.7l-6.8,1.4C405.9,145.4,406,145.3,406,145.1"/>
<path class="st0" d="M407.5,140.9l6.8,1.6c-0.4,0.8-1.6,1.7-2.1,1.9l-7.8,2.2C404.8,146.3,407.1,141.3,407.5,140.9z M377,154.1
	l8.8-1.7l4.6,5.8l-10,3L377,154.1L377,154.1z"/>
<path class="st0" d="M382.6,160.5l7.8-2.2c0.1,0.1,0.2,0.3,0.3,0.5l-7.8,2.2C382.8,160.8,382.7,160.6,382.6,160.5"/>
<path class="st0" d="M382.9,160.9l7.8-2.2c0.2,0.2,0.3,0.5,0.4,0.7l-7.8,2.2C383.2,161.4,383,161.2,382.9,160.9z"/>
<path class="st0" d="M383.3,161.6l7.8-2.2l0.3,0.9l-7.8,2.2L383.3,161.6"/>
<path class="st0" d="M383.6,162.5l7.8-2.2c0.1,0.2,0.1,0.4,0.1,0.5l-7.8,2.2C383.7,162.9,383.7,162.7,383.6,162.5z M383.8,163.1
	l7.8-2.1v0.5l-7.8,2.2V163.1"/>
<path class="st0" d="M383.8,163.5l7.8-2.2v0.4l-7.8,2.2V163.5z M383.9,163.9l7.8-2.2v0.4l-7.8,2.2V163.9z"/>
<path class="st0" d="M383.9,164.3l7.8-2.2v0.3l-7.8,2.2V164.3"/>
<path class="st0" d="M383.8,164.6l7.8-2.2v0.3l-7.8,2.2V164.6z M383.8,165l7.8-2.2v0.3l-7.8,2.2V165z"/>
<path class="st0" d="M383.8,165.3l7.8-2.2v0.3l-8,2.2v-0.3"/>
<path class="st0" d="M383.6,165.6l7.8-2.2v0.3l-7.8,2.2V165.6z"/>
<path class="st0" d="M383.6,165.9l7.8-2.2l-0.1,0.3l-7.8,2.2L383.6,165.9"/>
<path class="st0" d="M383.5,166.2l7.8-2.2l-0.1,0.3l-7.8,2.1L383.5,166.2 M383.4,166.5l7.8-2.2c0,0.1,0,0.2-0.1,0.3l-7.8,2.2
	L383.4,166.5"/>
<path class="st0" d="M383.3,166.8l7.8-2.2l-0.2,0.3l-7.8,2.2L383.3,166.8 M383.1,167.2l7.9-2.2c0,0.1-0.2,0.2-0.2,0.4l-7.8,2.2
	L383.1,167.2"/>
<path class="st0" d="M382.8,167.5l7.8-2.2c-0.1,0.1-0.2,0.3-0.3,0.4l-7.8,2.2L382.8,167.5z"/>
<path class="st0" d="M382.5,167.9l1.7-10.9l5.5,8.4c-0.5,0.5-0.7,1.3-1.4,1.5l-7.8,2.2c0.7-0.2,1.3-0.6,1.8-1.1L382.5,167.9
	L382.5,167.9z M391.6,152.7l7.8-2.2l10.3,12.9l-7.8,2.2L391.6,152.7z"/>
<path class="st0" d="M396.8,158.2l12.9,5.2c0.1,0.1,0.2,0.3,0.3,0.4l-6.5,6.3l-1.6-4.5"/>
<path class="st0" d="M402.2,166.1l7.8-2.2c0.1,0.2,0.3,0.5,0.4,0.7l-7.8,2.2C402.5,166.6,402.4,166.3,402.2,166.1 M402.6,166.8
	l7.8-2.2l0.3,0.9l-7.8,2.2C402.9,167.4,402.8,167.1,402.6,166.8 M403,167.7l7.8-2.2c0,0.2,0.1,0.4,0.1,0.6l-7.8,2.2
	C403.1,168.1,403,167.9,403,167.7"/>
<path class="st0" d="M403.1,168.3l6.7-4.7c1,1.1,1.1,1.6,1.1,3l-7.8,2.2V168.3z"/>
<path class="st0" d="M403.1,168.7l7.6-3.2c0.1,0,0.2,1.2,0.2,1.4l-7.8,2.2V168.7z"/>
<path class="st0" d="M403.2,169.1l7.6-3.7c0.1,0.1,0.2,1.4,0.2,1.9l-7.8,2.2V169.1z M403.2,169.5l7.8-2.2v0.3l-7.8,2.2V169.5z"/>
<path class="st0" d="M403.2,168.5l7.8-0.8v0.3l-7.9,2.2v-0.3"/>
<path class="st0" d="M403.2,170.1l7.8-3.4c0.2,2.3-0.2,3.4-1.9,4.7l-8.4,2.5L403.2,170.1L403.2,170.1z"/>
<path class="st0" d="M403.1,170.5l7.8-2.2v0.3l-7.8,2.2V170.5"/>
<path class="st0" d="M403,170.8l7.8-2.2v0.3l-7.8,2.2V170.8"/>
<path class="st0" d="M402.9,171.1l7.8-2.2c0,0.1-0.1,0.2-0.1,0.3l-7.8,2.2C402.9,171.3,402.9,171.2,402.9,171.1"/>
<path class="st0" d="M402.8,171.4l7.8-2.2c0,0.1-0.1,0.2-0.1,0.3l-7.8,2.2C402.8,171.6,402.8,171.5,402.8,171.4"/>
<path class="st0" d="M402.7,171.7l7.8-2.2c0,0.1-0.1,0.2-0.1,0.3l-7.8,2.1L402.7,171.7 M402.6,172l7.8-2.2c-0.1,0.1-0.1,0.2-0.2,0.3
	l-7.8,2.2C402.5,172.2,402.5,172.1,402.6,172"/>
<path class="st0" d="M402.4,172.3l7.8-2.2c-0.1,0.1-0.2,0.2-0.2,0.3l-7.8,2.2L402.4,172.3 M402.1,172.7l7.8-2.2
	c-0.1,0.1-0.2,0.3-0.3,0.4l-7.8,2.2C401.9,173,402,172.8,402.1,172.7z"/>
<path class="st0" d="M401.8,173.1l8.8-3.3c-0.1,0.1-1.1,1.3-1.2,1.4c-0.5,0.5-1.1,0.9-1.8,1.1l-7.8,2.2c0.5-0.4,0.9-0.4,1.3-0.9
	L401.8,173.1z M407.4,144.8l4.6-0.4l-14.1,6.9l-6.3,1.4L407.4,144.8z"/>
<path class="st1" d="M344.1,134.5l18.2-8.6c1-0.5,2-0.5,3.1-0.3c0.8,0.2,1.5,0.6,2.1,1.2c0.6,0.5,1.1,1.2,1.4,2
	c0.6,1.2,0.7,2.7,0.3,4s-1.3,2.4-2.5,3.1l-6.2,3l-0.2,0.1l0.3,0.1l3,0.8l18.1-8.7c0.9-0.5,2-0.5,3-0.3c1,0.3,2,0.9,2.6,1.8
	c0.7,0.8,1.1,1.8,1.3,2.9c0.1,1.1,0,2.2-0.5,3.1c-0.5,1-1.2,1.8-2.1,2.4l-6.2,2.9l-0.2,0.1l0.3,0.1l3,0.8l18.1-8.6
	c0.9-0.5,2-0.6,3.1-0.3c0.8,0.2,1.5,0.6,2.1,1.1c0.6,0.5,1.1,1.2,1.4,1.9c0.6,1.2,0.7,2.7,0.3,4s-1.3,2.4-2.5,3.1l-13.6,6.5
	l-0.1,0.1l0.1,0.1l10.3,12.9c0.9,1.1,1.3,2.5,1.3,3.9c-0.1,1.4-0.6,2.7-1.6,3.7c-0.5,0.5-1.2,0.9-2,1.1c-0.7,0.2-1.5,0.2-2.2,0
	c-1.1-0.3-2-0.9-2.7-1.8l-0.1,0.1l0.1-0.1L381,155.4l-3-0.8l-0.3-0.1l0.2,0.2l4.6,5.9c0.9,1.1,1.3,2.4,1.3,3.8
	c-0.1,1.4-0.6,2.7-1.6,3.7c-0.5,0.5-1.2,0.9-2,1.1c-0.7,0.2-1.5,0.2-2.2,0c-1.1-0.3-2-0.9-2.7-1.8l-13.6-17.2l-3-0.8l-0.3-0.1
	l0.2,0.2l4.6,5.8c0.9,1.1,1.3,2.4,1.3,3.8c-0.1,1.4-0.6,2.7-1.6,3.7c-0.5,0.5-1.2,0.9-2,1.1c-0.7,0.2-1.5,0.2-2.2,0
	c-1.1-0.3-2-0.9-2.7-1.8L342.4,145l-61-17.5c0.3-2.5,1.1-6.3,2.2-9.1L344.1,134.5L344.1,134.5z"/>
</svg>
