<svg width="48" height="48" viewBox="0 0 48 48" fill="none" xmlns="http://www.w3.org/2000/svg">
<g filter="url(#filter0_i)">
<path d="M-0.000976562 8C-0.000976562 3.58172 3.58075 0 7.99902 0H39.999C44.4173 0 47.999 3.58172 47.999 8V40C47.999 44.4183 44.4173 48 39.999 48H7.99902C3.58075 48 -0.000976562 44.4183 -0.000976562 40V8Z" fill="#F7931E"/>
</g>
<path d="M31.413 24C30.3997 24 28.373 26.0267 24.3197 26.0267C20.2664 26.0267 18.2397 24 17.2264 24C16.1117 24 15.1997 24.912 15.1997 26.0267C15.1997 27.04 15.8077 27.5467 16.213 27.7493C17.429 28.4587 21.2797 30.08 21.2797 30.08L16.9224 35.552C16.9224 35.552 16.1117 36.464 16.1117 37.1733C16.1117 38.288 17.0237 39.2 18.1384 39.2C19.1517 39.2 19.6584 38.4907 19.6584 38.4907L24.3197 33.12L28.8797 38.4907C28.8797 38.4907 29.3864 39.2 30.3997 39.2C31.5144 39.2 32.4264 38.288 32.4264 37.1733C32.4264 36.5653 31.6157 35.552 31.6157 35.552L27.3597 30.08C27.3597 30.08 31.2104 28.4587 32.4264 27.7493C32.8317 27.4453 33.4397 27.04 33.4397 26.0267C33.4397 24.912 32.5277 24 31.413 24Z" fill="white"/>
<path d="M24.3189 8.7998C20.3669 8.7998 17.2256 11.9411 17.2256 15.8931C17.2256 19.8451 20.3669 22.9865 24.3189 22.9865C28.2709 22.9865 31.4123 19.8451 31.4123 15.8931C31.4123 11.9411 28.2709 8.7998 24.3189 8.7998ZM24.3189 19.4398C22.3936 19.4398 20.7723 17.8185 20.7723 15.8931C20.7723 13.9678 22.3936 12.3465 24.3189 12.3465C26.2443 12.3465 27.8656 13.9678 27.8656 15.8931C27.8656 17.8185 26.2443 19.4398 24.3189 19.4398Z" fill="white"/>
<defs>
<filter id="filter0_i" x="-4.00098" y="-4" width="52" height="52" filterUnits="userSpaceOnUse" color-interpolation-filters="sRGB">
<feFlood flood-opacity="0" result="BackgroundImageFix"/>
<feBlend mode="normal" in="SourceGraphic" in2="BackgroundImageFix" result="shape"/>
<feColorMatrix in="SourceAlpha" type="matrix" values="0 0 0 0 0 0 0 0 0 0 0 0 0 0 0 0 0 0 127 0" result="hardAlpha"/>
<feOffset dx="-4" dy="-4"/>
<feGaussianBlur stdDeviation="4"/>
<feComposite in2="hardAlpha" operator="arithmetic" k2="-1" k3="1"/>
<feColorMatrix type="matrix" values="0 0 0 0 0 0 0 0 0 0 0 0 0 0 0 0 0 0 0.15 0"/>
<feBlend mode="normal" in2="shape" result="effect1_innerShadow"/>
</filter>
</defs>
</svg>
