<?xml version="1.0" encoding="utf-8"?>
<!-- Generator: Adobe Illustrator 24.0.0, SVG Export Plug-In . SVG Version: 6.00 Build 0)  -->
<svg version="1.1" id="Слой_1" xmlns="http://www.w3.org/2000/svg" xmlns:xlink="http://www.w3.org/1999/xlink" x="0px" y="0px"
	 viewBox="0 0 600 250" style="enable-background:new 0 0 600 250;" xml:space="preserve">
<style type="text/css">
	.st0{fill:#40689D;}
	.st1{fill:#9A384B;}
	.st2{fill:#793E4B;}
	.st3{fill:#882F40;}
	.st4{fill:#E87891;stroke:#000000;stroke-width:0.2;}
	.st5{fill:#5E6D82;}
	.st6{fill:#B4D1FA;stroke:#000000;stroke-width:0.2;}
</style>
<path class="st0" d="M278.8,33.6L264.9,26c7.8-1.1,15.7-0.7,23.4,1.2l13.9,7.6C294.5,32.8,286.5,32.4,278.8,33.6z M243.6,173.2
	l-15.1-7.9c-18.8-10.2-31.2-31.2-31.2-57.2c0-9.8,1.8-19.6,5.2-28.7l15.7,7.4c-3.4,9.2-4.3,19-4.4,28.8
	C213.9,141.4,224.8,163,243.6,173.2"/>
<path class="st0" d="M216.5,87.2l-13.9-7.6c1.5-3.9,3.3-7.6,5.3-11.3l13.9,7.6c-1.9,3.7-3.6,7.4-5.1,11.3"/>
<path class="st0" d="M219.1,87.2l-11.3-19c1.7-3,3.5-6.1,5.5-8.9l27.2-2.9c-2,2.8-15.6,22.1-17.3,25.2"/>
<path class="st0" d="M227.1,66.9l-13.9-7.6c1.9-2.7,3.9-5.3,6.2-7.8l13.9,7.6C231,61.6,229,64.2,227.1,66.9"/>
<path class="st0" d="M225.2,70l-6.1-18.4c2.2-2.5,4.5-4.7,7-7H255c-2.4,2.2-24,19.2-26.1,21.5"/>
<path class="st0" d="M240,52.2l-13.8-7.6c2.6-2.2,5.3-4.5,8.1-6.4l13.9,7.6c-2.8,2-5.5,4.2-8.1,6.4"/>
<path class="st0" d="M235.3,62l-1.1-23.8c3.5-2.4,7.1-4.5,10.9-6.3l13.9,7.6C255.3,41.3,238.8,59.5,235.3,62z"/>
<path class="st0" d="M251.8,44.6l-6.6-12.8c6.2-2.9,12.8-4.9,19.7-6L292,33C284.9,34.1,258,41.6,251.8,44.6z"/>
<path class="st0" d="M291.5,33.7l-3.4-6.5c3.6,0.9,7.2,2.2,10.6,3.9l13.9,7.6C309.2,37,295.1,34.6,291.5,33.7z"/>
<path class="st0" d="M312.6,38.7l-13.9-7.6l2,1l13.9,7.6L312.6,38.7z"/>
<path class="st1" d="M408.1,221.4l-13.9-7.6c0.1-0.1,0.2-0.3,0.3-0.4l14.2,7.6l-0.3,0.4"/>
<path class="st1" d="M408.7,221l-14.7-6.6c0.6-0.9,0.9-1.5,1.5-2.5l13.7,8.3L408.7,221z"/>
<path class="st1" d="M409,220.2l-13.9-7.6c0.2-0.3,0.3-0.7,0.4-1l13.9,7.6C409.3,219.4,409.1,219.7,409,220.2"/>
<path class="st1" d="M409.4,219.2l-13.9-7.6c0.2-0.6,0.3-1,0.4-1.6l13.9,7.6C409.8,218.1,409.6,218.6,409.4,219.2z"/>
<path class="st1" d="M405.7,223.6l-9.9-13.6l0.2-1.8l13.9,7.6L405.7,223.6L405.7,223.6z"/>
<path class="st1" d="M400.8,232l-14.6-8.5l11.7-14.2l17.8,2.1L400.8,232L400.8,232z"/>
<path class="st1" d="M393.9,235l-11-9.1l0.8-0.3l17.6,6.5L393.9,235L393.9,235z"/>
<path class="st1" d="M397.6,233.2l-13.9-7.6c0.3-0.1,0.7-0.3,1-0.6l20.9,4C405.3,229.3,398,233,397.6,233.2z"/>
<path class="st1" d="M398.7,232.6l-13.9-7.6l0.8-0.6l14,7.6L398.7,232.6"/>
<path class="st1" d="M399.4,232l-14.4-7.3l1.5-1.5l13.5,8.2C399.9,231.7,399.7,231.9,399.4,232z"/>
<path class="st1" d="M400,231.4l-13.9-7.6l0.2-0.2l13.9,7.6L400,231.4z M410.1,215.8l-15.5-2.5c1.9-1.5,1.7-7.1,1.5-8
	s-0.8-1.7-1.5-2.5l15.3,3.4c0.7,0.7-0.2,5.7,0.1,6.6C410.2,213.9,410.2,214.8,410.1,215.8L410.1,215.8z M395.2,234l-13.9-7.6
	l1.6-0.4l13.9,7.6L395.2,234z M391.1,233.7l-13.9-7.6L391.1,233.7H391 M391.4,233.8l-13.9-7.6l0.9,0.3l13.9,7.5l-0.9-0.3"/>
<path class="st1" d="M391.5,234.5l-13.1-8c0.7,0.1,1.3,0.1,2,0c0.3,0,0.6-0.1,0.9-0.2l13.9,7.8c-0.3,0.1-0.6,0.2-0.9,0.2
	c-0.7,0.1-0.9,0.9-1.6,0.8"/>
<path class="st2" d="M372.9,234c-0.8-0.4-2.1-1.7-2.8-2.4l13.9,7.5c0.7,0.7,2.1,1.9,2.9,2.5"/>
<path class="st1" d="M408.4,210.5l-13.9-7.6l-45.5-43l13.9,7.6L408.4,210.5z"/>
<path class="st2" d="M363,167.6l-13.9-7.6c-0.3-0.2-0.7-0.6-1-0.7l13.9,7.6C362.4,167,362.7,167.3,363,167.6z"/>
<path class="st1" d="M384.5,239.9l-13.9-7.6l-45.4-43l15.1,3.7L384.5,239.9L384.5,239.9z M354.8,160.3l-11.8-9.7
	c0.7-0.2,1.3-0.4,2-0.4c1.6-0.2,3.1-0.1,4.7,0.2l13.9,7.6c-1.6-0.3-3.1-0.4-4.7-0.2C358.3,157.8,355.5,160.1,354.8,160.3z"/>
<path class="st1" d="M360.2,160l-10.5-9.6c0.8,0.2,1.5,0.4,2.1,0.8l13.8,7.6c-0.7-0.3-1.5-0.6-2.1-0.8"/>
<path class="st1" d="M365.7,158.8l-13.8-7.6l0.4,0.2l13.9,7.6L365.7,158.8L365.7,158.8z M354,159.2l-13.9-7.6l2.9-0.9l13.9,7.6
	L354,159.2z"/>
<path class="st3" d="M342.4,189l-21.8-13l-7.4-10.3l17.8,3.1L342.4,189z"/>
<path class="st1" d="M238.3,181.8l-13.9-7.6l2.2,1.1l13.9,7.6L238.3,181.8z"/>
<path class="st1" d="M240.6,183.3l-13.9-8.1c3.7,1.8,7.6,3.3,11.7,4.4l17.3,8.5C251.5,187.2,244.3,185.2,240.6,183.3z"/>
<path class="st1" d="M252.2,187.3l-14-7.6c8.5,2.1,17.3,2.6,26,1.3h0.8c7.4-1.1,14.6-3.4,21.5-6.6l14.6,7.5c-6.3,4-12,9.3-19.4,10.5
	l-9.2,1.5c-8.7,1.2-11.5-3.9-20-6.1"/>
<path class="st1" d="M283.8,190.6l2.5-16c4.4-2,8.8-4.8,12.7-7.6l23.3,3.6C322.1,177.3,292.7,193.1,283.8,190.6z"/>
<path class="st1" d="M313.8,175l-14.8-8c3.3-2.2,6.4-4.7,9.3-7.4l31.5-2.6C336.9,159.7,317.1,172.8,313.8,175L313.8,175z"/>
<path class="st1" d="M323.6,167.6l-15.3-8c2.8-2.5,5.5-5.2,8-8l15.3,8C329,162.4,326.4,165.1,323.6,167.6z"/>
<path class="st1" d="M324.8,171.4l-8.7-19.8c2.5-2.8,4.8-5.8,7-8.9l19.1,5.1C340.2,150.9,327.4,168.6,324.8,171.4L324.8,171.4z"/>
<path class="st1" d="M331.1,167.9l-7.9-25.2c2.4-3.3,4.4-6.7,6.3-10.3l29.7-15.8C357.3,120.1,333.4,164.6,331.1,167.9z"/>
<path class="st1" d="M345.3,141l-15.6-8.5c2.2-4.3,4.3-8.7,5.8-13.1l15.6,8.5C349.4,132.3,347.5,136.7,345.3,141z"/>
<path class="st1" d="M344.6,151.9l-9.1-32.6c3.8-10.3,5.8-21.1,6-32.1C341.7,58,328,34.6,307,23l14.7,6.5
	c20.9,11.5,35.6,35.3,35.4,64.4C357,104.9,348.4,141.5,344.6,151.9z M234,189.6l-13.9-7.6l-1.8-1c-0.8-0.6-1.3-1.3-1.6-2.2
	s-0.3-2.2,0.7-3.8l13.6,8.7c-0.3,0.9-0.4,1.8-0.2,2.7s0.8,1.7,1.6,2.2L234,189.6"/>
<path class="st1" d="M231,183.7l-14-7.2c0-1,0.4-1.5,0.4-1.5l13.9,8L231,183.7L231,183.7z"/>
<path class="st1" d="M231.2,183l-13.9-7.6c0.7-1.3,1.1-1.2,1.2-1.3l13.3,7.9L231.2,183v0.1V183z"/>
<path class="st1" d="M231.6,182.4l-13.9-7.6c0.1-0.1,1.2-1.6,2.7-1.9l16.1,7.9C236.4,180.9,231.7,182.2,231.6,182.4z"/>
<path class="st1" d="M232.7,187.2L218,174.3l0.4-0.4l18.3,7.9L232.7,187.2z"/>
<path class="st1" d="M232.2,181.5l-13.9-7.6l0.4-0.3l13.9,7.6C232.7,181.2,232.2,181.5,232.2,181.5z M232.8,181.2l-13.9-7.6l0.7-0.3
	l13.9,7.6L232.8,181.2z"/>
<path class="st1" d="M233.4,180.9l-13.9-7.6c0.3-0.2,0.8-0.3,1.1-0.3c0.4-0.1,0.9-0.1,1.3,0l14.9,8c-0.4-0.1-1.9-0.4-2.4-0.3
	C234.2,180.5,233.8,180.6,233.4,180.9z"/>
<path class="st1" d="M236,180.5l-14-7.6l0.6,0.2l13.9,7.6L236,180.5 M236.5,180.8l-13.9-7.6L236.5,180.8z M280.3,15.5l-13.9-7.6h0.8
	c9.6-1.3,19.4-0.9,28.9,1.6l14.7,7.9c-9.3-2.4-19.4-2.4-29-1h-0.9"/>
<path class="st1" d="M309.9,17.7l-15.7-8.9c4.5,1.1,10.5,3,14.6,5.1l13.9,7.6C318.5,19.5,314.3,18.8,309.9,17.7z"/>
<path class="st1" d="M322.7,21.5l-13.9-7.6l2.5,1.2l13.9,7.6L322.7,21.5z M339.1,196.8l-13.9-7.6c-1.6-1.6-2.7-3.5-3.4-5.6
	s-0.8-4.4-0.4-6.5l15.5,5.8c-0.3,2.2-1.8,6.3-1.1,8.4S337.5,195.4,339.1,196.8"/>
<path class="st1" d="M335.3,184.7l-13.9-7.6l0.4-3.3l13.9,7.6L335.3,184.7z M202.6,83.4l-13.9-7.6c1.8-4.9,3.9-9.8,6.5-14.5
	l23.9-1.9C216.6,64,204.4,78.4,202.6,83.4z"/>
<path class="st1" d="M209.1,68.9l-13.9-7.6c2.1-3.9,4.4-7.8,7-11.5l13.9,7.6C213.5,61.1,211.1,64.9,209.1,68.9"/>
<path class="st1" d="M210,75.9l-8-26.1c2.4-3.4,4.9-6.7,7.8-9.9l24.4,1.2c-2.9,3.4-21.2,30-23.5,33.5"/>
<path class="st1" d="M220.4,57.9l-10.6-17.8c2.7-3.1,5.6-6.1,8.8-8.9l30.9,0.6C246.4,34.7,223.3,54.9,220.4,57.9z"/>
<path class="st1" d="M225.2,50.4l-6.6-19.2c3.3-2.9,6.7-5.7,10.3-8.2l31.1,0.7C256.4,26.2,228.4,47.5,225.2,50.4z"/>
<path class="st1" d="M242.8,30.6L228.9,23c4.4-3,9-5.7,13.8-8l13.9,7.6C251.8,25,247.2,27.6,242.8,30.6z"/>
<path class="st1" d="M247.6,31.9l-4.9-16.7c7.5-3.6,15.5-6.1,23.7-7.3l33.9,9.4C292.1,18.5,255.2,28.3,247.6,31.9z M209.5,166.1
	l-14-7.5c-0.4-0.2-0.9-0.7-1.2-1.1c-8.3-13.9-12.6-30-12.2-46.3c0.1-12,2.4-24,6.6-35.4l25.8-10.7c-4.2,11.3-18.3,41.7-18.4,53.8
	c-0.3,16.2,3.9,32.1,12.2,46.1C208.6,165.5,209,165.9,209.5,166.1"/>
<path class="st4" d="M396.1,242.2L396.1,242.2 M397.8,241.8c4.6-1.6,7.8-5.4,7.8-5.4l0,0l8.1-9.4l0.1,0.1l-0.1-0.1l0,0
	c2.1-2.6,3.5-5.8,3.9-9.1l0,0l0.2-1.8l0,0c0.4-2.1,0.2-4.4-0.3-6.5c-0.7-2.1-1.8-4-3.4-5.6l0,0l-45.3-43l0,0
	c-1.2-1.2-2.8-2.1-4.4-2.6c-1.7-0.6-3.4-0.7-5.1-0.4l0,0c-0.7,0.1-1.3,0.2-2,0.4l0,0l-3,0.9h-0.1l0,0l-8.3-8l-0.1-0.1v-0.1
	c11.1-17.2,17.2-37.1,17.5-57.5c0.4-49.8-36.2-84.6-81.9-78l0,0h-0.9c-46.2,7-83.8,53.3-84.3,103.5l0,0c-0.3,16.2,3.9,32.1,12.2,46
	l0,0c0.3,0.6,0.8,1,1.3,1.2c0.6,0.2,1.2,0.3,1.8,0.2l0,0c0.8-0.1,1.5-0.4,2.1-0.9l0,0c0.9-0.7,1.5-1.7,1.7-2.8
	c0.2-1.1,0.1-2.2-0.4-3.3c-7.6-12.6-11.5-27.2-11.1-41.9c0.3-45.4,34.6-87.4,76.5-93.9h0.7c41.6-5.8,75.1,25.7,74.6,71.1
	c-0.4,45.5-34.7,87.5-76.6,93.8l0,0h-0.8c-14.4,2.2-29-0.4-41.7-7.8l0,0c-0.7-0.3-1.3-0.4-2-0.3c-0.7,0.1-1.3,0.3-1.9,0.8
	c-0.6,0.5-1,0.9-1.3,1.6l0,0c-0.6,0.9-0.8,1.9-0.7,3c0.2,1,0.8,2,1.6,2.6c13.8,8,30,11,45.8,8.5h0.8c18-3,34.7-11.5,48.1-24l0.1-0.1
	l0.1,0.1l8.7,8.2l0,0v0.1l-0.4,3.3l0,0c-0.3,2.1-0.2,4.4,0.4,6.5c0.7,2.1,1.8,4,3.4,5.6l0,0l45.4,42.9l0.1,0.1
	c1.2,1.1,2.6,1.9,4.3,2.4c1.7,0.4,3.4,0.7,5.1,0.3l0,0c0.7-0.1,1.3-0.2,2-0.4h0.1l1.2-0.3L397.8,241.8L397.8,241.8z M410.2,215.7
	L410.2,215.7v0.1l-0.1,1.8l0,0c-0.2,1.5-0.8,2.8-1.7,3.9l0,0l-8,9.7l-0.1,0.1l-0.2,0.2c-0.9,0.8-1.8,1.6-3.1,2l-1.6,0.7
	c-1.5,0.8-3.1-0.1-3.1-0.1c-0.8-0.2-1.3-0.7-1.9-1.1l0,0l-45.6-42.8l0,0c-0.7-0.7-1.2-1.6-1.5-2.5s-0.3-1.9-0.2-2.8l0,0l0.6-3.9l0,0
	l10.8-13.1l0,0l3.6-1.1l0,0c0.3-0.1,0.6-0.2,0.9-0.2c0.8-0.1,1.5-0.1,2.2,0.1c0.7,0.2,1.3,0.6,2,1l0,0l45.4,42.9l0,0
	c0.7,0.7,1.2,1.6,1.5,2.5C410.2,213.8,410.3,214.8,410.2,215.7 M342.1,160.3l-7.1,8.4l-0.1,0.1l0.1,0.1l3.8,3.5l1.1,1.1l0.8-1
	l6.3-7.8l0.1-0.1l-0.1-0.1L342.1,160.3L342.1,160.3L342.1,160.3z"/>
<path class="st1" d="M340,173.3l-4.9-4.5l6.9-8.2l5.1,4.2L340,173.3L340,173.3z"/>
<path class="st3" d="M347.1,164.7l-5.7-3.4l0.8-1.1L347.1,164.7L347.1,164.7z"/>
<path class="st0" d="M246.9,164.8l-13.9-7.6l1.8,0.9l13.9,7.6C248.1,165.5,247.5,165.1,246.9,164.8"/>
<path class="st0" d="M248.6,165.8l-13.9-7.6c2.9,1.5,8.5,3.3,11.7,4l13.9,7.6C257.2,169,251.3,168.2,248.6,165.8z"/>
<path class="st0" d="M258,169.3l-14-7.6c6.7,1.7,13.7,2,20.5,1c6.1-0.9,11.9-2.6,17.4-5.2l13.9,7.6c-5.5,2.6-11.3,4.4-17.4,5.2
	C271.7,171.3,264.7,171,258,169.3z"/>
<path class="st0" d="M288.1,169.5l-6.2-12.1c3.4-1.6,6.5-3.5,9.6-5.5l21.7,4.2C310.1,158.2,291.5,167.9,288.1,169.5z"/>
<path class="st0" d="M305.4,159.5l-13.9-7.6c2.5-1.8,4.9-3.6,7.2-5.7l22.8,5.4C319.1,153.7,307.9,157.8,305.4,159.5z"/>
<path class="st0" d="M312.5,153.9l-13.9-7.6c2.1-1.9,4.2-3.9,6.2-6.2l13.9,7.6C316.7,149.9,314.7,152,312.5,153.9z"/>
<path class="st0" d="M314,158.2l-9.4-18.1l1.8-2c1.2-1.5,2.5-3,3.5-4.7l23.4-0.2c-1.1,1.6-11.8,10.9-13,12.5
	C320.2,145.6,314,158.2,314,158.2z"/>
<path class="st0" d="M321.9,145.7l-12-12.2c1.8-2.5,3.4-5.2,4.8-7.9l17,5.5C330.2,133.8,323.7,143.1,321.9,145.7L321.9,145.7z"/>
<path class="st0" d="M328.7,133.1l-13.9-7.6c1.7-3.3,3.3-6.5,4.5-10l14.2,7.6c-1.2,3.5-2.7,6.7-4.5,10"/>
<path class="st0" d="M333.3,123.2l-7.8-2.2l-6.4-5.4c3-8.1,4.7-16.5,4.7-25.2c0.2-12.8-3.7-25.4-11.1-35.8c-0.4-0.6-0.7-1.3-0.8-2
	c-0.1-0.8-0.2-2.4,0.8-3.3l13.5,8.8c-0.3,0.7-0.4,1.3-0.3,2.1c0,0.7,0.2,1.5,0.7,2c13.9,6.9,11.3,23,11.1,35.8
	C337.8,106.6,336.3,115.1,333.3,123.2L333.3,123.2z"/>
<path class="st0" d="M326.2,57.9l-13.9-7.6l0.3-0.7l13.9,7.6C326.3,57.5,326.2,57.7,326.2,57.9z"/>
<path class="st0" d="M326.4,57.3l-13.9-7.6c0.1-0.2,0.2-0.3,0.3-0.6l13.9,7.6C326.6,56.8,326.5,57,326.4,57.3z M326.7,56.7
	l-13.9-7.6c0.1-0.1,0.2-0.3,0.3-0.4l14,7.6L326.7,56.7"/>
<path class="st0" d="M327.2,56.3l-13.9-7.6l0.3-0.4l13.9,7.8l-0.4,0.4"/>
<path class="st0" d="M327.5,55.9l-13.9-7.6l0.4-0.4l13.9,7.6L327.5,55.9z"/>
<path class="st0" d="M327.6,66.9l-13.5-19.1l0.7-0.3l16.7,8.7C331.6,56.1,327.6,66.9,327.6,66.9z"/>
<path class="st0" d="M328.1,57.5l-13.3-10.1c0.3-0.2,0.8-0.3,1.2-0.3c0.4-0.1,0.9-0.1,1.5,0l14.6,8.1c-0.4-0.1-1,0.4-1.5,0.4
	C330.1,55.6,328.4,57.4,328.1,57.5z"/>
<path class="st0" d="M331.4,54.7l-14-7.7c0.2,0,0.4,0.1,0.7,0.2l13.9,7.6C331.8,54.9,331.6,54.8,331.4,54.7L331.4,54.7z"/>
<path class="st0" d="M331.9,54.9L318,47.4l14,7.6"/>
<path class="st5" d="M314.6,50.4l-13.9-7.6l-0.2-0.1c-1.2-0.9-2.6-1.7-4-2.5l13.9,7.6c1.3,0.8,2.7,1.6,4,2.5L314.6,50.4z"/>
<path class="st6" d="M278.8,33.7L278.8,33.7c-37.2,5.2-67.2,42-67.3,82.1s30.1,68.3,67.2,63.2c37.1-5.2,67.3-42,67.3-82.1l0,0
	c0.2-14.6-4.2-28.9-12.7-40.8c-0.3-0.4-0.9-0.8-1.5-1c-0.6-0.2-1.2-0.2-1.8-0.1l0,0c-0.9,0.1-1.7,0.6-2.4,1.1l0,0
	c-0.8,0.8-1.3,1.7-1.6,2.8c-0.2,1.1,0,2.2,0.6,3.1c7.5,10.5,11.5,23.1,11.1,36l0,0v0.4c-0.2,17.4-6.4,33.8-17.5,47.2v0.1
	c-10.5,13.1-25.3,21.9-41.8,24.6l0,0c-7.5,1.2-15.2,0.7-22.4-1.6c-7.3-2.2-13.9-6.1-19.4-11.2l0,0c-5.6-5.6-10.1-12.2-13-19.7
	c-2.9-7.4-4.4-15.3-4.2-23.3c0.2-17.4,6.3-34.3,17.4-47.8c10.3-13.1,25.3-21.9,41.8-24.6l0,0c12.5-1.9,25.2,1,35.7,8
	c0.7,0.4,1.6,0.7,2.4,0.6c0.7-0.1,1.2-0.3,1.8-0.7c0.6-0.3,1-0.9,1.3-1.5l0,0c0.7-0.9,1-2,0.8-3.1c-0.1-1.1-0.7-2.1-1.6-2.8
	C307.3,34.7,292.9,31.4,278.8,33.7"/>
</svg>
