<svg width="48" height="48" viewBox="0 0 48 48" fill="none" xmlns="http://www.w3.org/2000/svg">
<g filter="url(#filter0_i)">
<path d="M3.13103 3.33249C-0.630137 7.23847 0.139645 11.3877 0.139645 23.9929C0.139645 34.4607 -1.68709 44.9544 7.87336 47.4248C10.8588 48.1924 37.3105 48.1924 40.292 47.4208C44.2725 46.3939 47.5112 43.1659 47.9539 37.5372C48.0157 36.7516 48.0157 11.2481 47.9519 10.4466C47.4812 4.45105 43.7899 0.995688 38.9259 0.295842C37.8111 0.134339 37.5877 0.0864867 31.8682 0.0765174C11.5807 0.0864867 7.13349 -0.816733 3.13103 3.33249Z" fill="url(#paint0_linear)"/>
<path d="M3.13103 3.33249C-0.630137 7.23847 0.139645 11.3877 0.139645 23.9929C0.139645 34.4607 -1.68709 44.9544 7.87336 47.4248C10.8588 48.1924 37.3105 48.1924 40.292 47.4208C44.2725 46.3939 47.5112 43.1659 47.9539 37.5372C48.0157 36.7516 48.0157 11.2481 47.9519 10.4466C47.4812 4.45105 43.7899 0.995688 38.9259 0.295842C37.8111 0.134339 37.5877 0.0864867 31.8682 0.0765174C11.5807 0.0864867 7.13349 -0.816733 3.13103 3.33249Z" fill="url(#paint1_linear)"/>
</g>
<path d="M24.0672 6.33492C16.8261 6.33492 9.94992 5.69091 7.32349 12.4302C6.23862 15.2136 6.39616 18.8285 6.39616 24.0045C6.39616 28.5466 6.25058 32.8154 7.32349 35.5769C9.94394 42.3202 16.876 41.6741 24.0633 41.6741C30.9973 41.6741 38.1467 42.3959 40.805 35.5769C41.8919 32.7656 41.7324 29.2045 41.7324 24.0045C41.7324 17.1018 42.1133 12.6455 38.7649 9.2998C35.3747 5.91023 30.7899 6.33492 24.0593 6.33492H24.0672ZM22.4838 9.51912C37.5883 9.4952 39.5107 7.81637 38.4498 31.1386C38.0729 39.3872 31.791 38.482 24.0692 38.482C9.98981 38.482 9.58498 38.0792 9.58498 23.9966C9.58498 9.75041 10.7018 9.5271 22.4838 9.51513V9.51912ZM33.5001 12.4521C32.3294 12.4521 31.3802 13.4012 31.3802 14.5716C31.3802 15.742 32.3294 16.691 33.5001 16.691C34.6707 16.691 35.62 15.742 35.62 14.5716C35.62 13.4012 34.6707 12.4521 33.5001 12.4521ZM24.0672 14.9305C19.0557 14.9305 14.9934 18.994 14.9934 24.0045C14.9934 29.0151 19.0557 33.0766 24.0672 33.0766C29.0788 33.0766 33.1391 29.0151 33.1391 24.0045C33.1391 18.994 29.0788 14.9305 24.0672 14.9305ZM24.0672 18.1147C31.8548 18.1147 31.8648 29.8944 24.0672 29.8944C16.2817 29.8944 16.2697 18.1147 24.0672 18.1147Z" fill="white"/>
<defs>
<filter id="filter0_i" x="-4" y="-4" width="52" height="52" filterUnits="userSpaceOnUse" color-interpolation-filters="sRGB">
<feFlood flood-opacity="0" result="BackgroundImageFix"/>
<feBlend mode="normal" in="SourceGraphic" in2="BackgroundImageFix" result="shape"/>
<feColorMatrix in="SourceAlpha" type="matrix" values="0 0 0 0 0 0 0 0 0 0 0 0 0 0 0 0 0 0 127 0" result="hardAlpha"/>
<feOffset dx="-4" dy="-4"/>
<feGaussianBlur stdDeviation="4"/>
<feComposite in2="hardAlpha" operator="arithmetic" k2="-1" k3="1"/>
<feColorMatrix type="matrix" values="0 0 0 0 0 0 0 0 0 0 0 0 0 0 0 0 0 0 0.15 0"/>
<feBlend mode="normal" in2="shape" result="effect1_innerShadow"/>
</filter>
<linearGradient id="paint0_linear" x1="3.2228" y1="44.8728" x2="47.6981" y2="6.37242" gradientUnits="userSpaceOnUse">
<stop stop-color="#FFDD55"/>
<stop offset="0.5" stop-color="#FF543E"/>
<stop offset="1" stop-color="#C837AB"/>
</linearGradient>
<linearGradient id="paint1_linear" x1="13.1397" y1="-1.87282" x2="25.6916" y2="27.8832" gradientUnits="userSpaceOnUse">
<stop stop-color="#4069C8"/>
<stop offset="0.548915" stop-color="#C03A97"/>
<stop offset="1" stop-color="#C03A97" stop-opacity="0"/>
</linearGradient>
</defs>
</svg>
