<?xml version="1.0" encoding="utf-8"?>
<!-- Generator: Adobe Illustrator 24.0.0, SVG Export Plug-In . SVG Version: 6.00 Build 0)  -->
<svg version="1.1" id="Слой_1" xmlns="http://www.w3.org/2000/svg" xmlns:xlink="http://www.w3.org/1999/xlink" x="0px" y="0px"
	 viewBox="0 0 600 250" style="enable-background:new 0 0 600 250;" xml:space="preserve">
<style type="text/css">
	.st0{fill:#882F40;}
	.st1{fill:#E87891;stroke:#000000;stroke-width:0.2;}
	.st2{fill:#2F527F;}
	.st3{fill:#40689D;}
	.st4{fill:#B4D1FA;stroke:#000000;stroke-width:0.2;}
</style>
<path class="st0" d="M359.9,220.5l-10.6-5.7c0.7-0.1,1.4-0.3,2-0.6l10.6,5.6C361.3,220.1,360.6,220.3,359.9,220.5"/>
<path class="st0" d="M361.9,219.8l-10.6-5.6c0.4-0.2,0.8-0.4,1.1-0.6l10.6,5.7C362.6,219.5,362.3,219.7,361.9,219.8"/>
<path class="st0" d="M361.6,221.7l-11-7.1c1.9-0.9,2.5-1.5,2.8-1.7l16,1.9C369.1,215,361.9,221.5,361.6,221.7L361.6,221.7z"/>
<path class="st0" d="M363.9,218.6l-10.6-5.7c0.3-0.2,3.5-3.6,3.8-3.9l7.5,8.9C364.4,218.2,364.1,218.4,363.9,218.6"/>
<path class="st0" d="M364.6,217.9l-10.6-5.7c0.2-0.2,0.4-0.5,0.6-0.8l10.6,5.7C365,217.4,364.8,217.6,364.6,217.9z"/>
<path class="st0" d="M365.2,217.1l-10.6-5.7l0.6-0.9l10.6,5.7L365.2,217.1z"/>
<path class="st0" d="M365.8,216.2l-10.6-5.6c0.2-0.4,0.4-0.7,0.5-1.1l10.6,5.7C366.1,215.6,366,216,365.8,216.2"/>
<path class="st0" d="M366.9,218.3l-12.1-6.5c0.3-0.9,1.5-4.4,1.5-5.4l10.6,5.7C366.8,213.1,367.2,217.4,366.9,218.3z M345.9,224.9
	l-6.1-8.8l9.6-1.4l16.1,5.9L345.9,224.9z"/>
<path class="st0" d="M346.7,221.2l-10.6-5.7h0.2l10.6,5.7H346.7z"/>
<path class="st0" d="M346.9,221.3l-10.6-5.7c0.3,0.2,0.7,0.3,1.1,0.4l10.6,5.7C347.6,221.6,347.2,221.5,346.9,221.3z M348,221.7
	l-10.6-5.7c0.8,0.2,1.5,0.2,2.3,0.1l10.6,5.7C349.5,221.9,348.7,221.9,348,221.7z M366.8,217.9l-10.5-11.5l0.1-52.8l10.5,5.7
	L366.8,217.9z M342.3,229.3l-10.5-5.7c-2.2-1.3-4-3.2-5.2-5.4s-1.8-4.8-1.7-7.3l10.6,5.7c-0.1,2.6,0.5,5.1,1.7,7.3
	C338.3,226.2,340.1,228,342.3,229.3"/>
<path class="st0" d="M366.9,163.7l-10.5-10.1c0-0.6,0.1-1.2,0.3-1.8l15.4,2.4C371.9,154.8,366.9,163.1,366.9,163.7L366.9,163.7z"/>
<path class="st0" d="M367.2,157.6l-10.6-5.7c0.4-1.9,3-3.5,4.5-3.4l6.3,8.4C367.5,157.1,367.3,157.4,367.2,157.6"/>
<path class="st0" d="M367.5,156.9l-10.5-5.7l0.3-0.6l10.5,5.7C367.9,156.5,367.6,156.7,367.5,156.9"/>
<path class="st0" d="M367.9,156.4l-10.5-5.7c0.1-0.2,0.2-0.3,0.4-0.5l10.6,5.7C368.1,156,368,156.2,367.9,156.4z"/>
<path class="st0" d="M368.3,155.9l-10.6-5.7c0.1-0.2,0.3-0.3,0.4-0.4l10.6,5.7C368.5,155.6,368.4,155.7,368.3,155.9z"/>
<path class="st0" d="M368.7,155.5l-10.6-5.7c0.2-0.1,0.3-0.3,0.5-0.4l10.5,5.8L368.7,155.5 M369.2,155.1l-10.5-5.8l0.7-0.4l10.5,5.7
	L369.2,155.1"/>
<path class="st0" d="M366.9,163.7l-7.6-14.8c0.4-0.2,0.8-0.3,1.2-0.3c0.5-0.1,0.9-0.1,1.4,0l10.5,5.7c-0.1,0,1.1,1,1,1
	c-0.3,0-2-0.1-2.3,0C370.7,155.3,367.3,163.5,366.9,163.7L366.9,163.7z"/>
<path class="st0" d="M372.4,154.4l-10.5-5.7c0.2,0.1,0.4,0.1,0.6,0.2l10.6,5.7C372.9,154.5,372.7,154.4,372.4,154.4L372.4,154.4z
	 M373.1,154.6l-10.6-5.7L373.1,154.6z M368.8,147.4l-10.6-5.7c-0.6-0.4-1.5-1.1-1.7-1.8c-0.4-1.6-0.2-8.8-0.2-9.5l11.9,13.7
	c0,0.7,0.6,0.8,0.9,1.4c0.3,0.6-0.1,1.5,0.5,1.9 M311.2,227.3l-10.6-5.7c0.7-0.1,4.7-1.4,7.9-5.1l4.6,10.3
	C312.5,227,311.8,227.2,311.2,227.3L311.2,227.3z"/>
<path class="st0" d="M313.1,226.7l-10.4-5.7c0.4-0.2,0.8-0.4,1.1-0.6l10.4,5.7C313.9,226.3,313.5,226.5,313.1,226.7L313.1,226.7z"/>
<path class="st0" d="M314.3,226.1l-10.6-5.7c0.3-0.2,0.6-0.4,0.8-0.6l10.6,5.7C314.8,225.7,314.6,226,314.3,226.1"/>
<path class="st0" d="M314.1,226.7l-9.6-6.9l0.7-0.7l15.4,1.1c-0.2,0.2-5.3,5.1-5.5,5.3"/>
<path class="st0" d="M315.8,224.7l-11.5-4.5c0.9-0.9,1.4-1.7,1.6-2l10.6,5.7C316.2,224.2,316,224.5,315.8,224.7L315.8,224.7z"/>
<path class="st0" d="M316.4,223.9l-10.6-5.7c0.2-0.3,1.4-2.1,1.5-3.5l9.6,8.4C316.8,223.3,316.6,223.6,316.4,223.9z"/>
<path class="st0" d="M317,223l-10.6-5.7c0.2-0.4,0.4-0.8,0.5-1.2l10.6,5.7C317.4,222.3,317.2,222.6,317,223z"/>
<path class="st0" d="M315.1,231l-8.1-14.9c0.3-0.9,0.5-1.9,0.5-2.9l11.6,1.3C320.2,216.7,315.4,230.1,315.1,231L315.1,231z"/>
<path class="st0" d="M300,231l-11.1-7.7l11.7-1.6l18.2,4.7L300,231z"/>
<path class="st0" d="M296.9,228.5l-10.6-5.7h0.1L296.9,228.5z"/>
<path class="st0" d="M297.1,228.6l-10.6-5.7c0.2,0.1,0.5,0.2,0.7,0.3l10.6,5.7C297.5,228.8,297.3,228.7,297.1,228.6z"/>
<path class="st0" d="M296.4,229.5l-9.1-6.4c0.5,0.1,1.1,0.1,1.6,0l26.7,4c-0.5,0.1-16.3,3.4-16.8,3.3 M366.9,143.9l-10.6-5.8
	l0.1-62.6l15-0.6l-2.7,69.1L366.9,143.9L366.9,143.9z M292.5,236.7l-10.6-5.7c-1.9-1.1-3.5-2.7-4.5-4.6c-1.1-1.9-1.6-4.1-1.5-6.3
	c0-0.6,0.1-1.2,0.3-1.8l11.3,5.7c-0.2,0.6,0,1.3,0,1.9c-0.1,2.2-0.1,4.1,0.9,6.1C289.5,233.8,290.5,235.6,292.5,236.7"/>
<path class="st0" d="M286.6,227.7l-10.7-7.5c0-2.3,0.9-3.3,1.4-3.3l14.5,4.7C291.6,221.8,286.7,227.4,286.6,227.7z"/>
<path class="st0" d="M287.1,223.3l-10.6-5.8l0.3-0.5l10.6,5.7C287.3,222.9,287.2,223,287.1,223.3 M287.5,222.7l-10.6-5.7
	c0.1-0.2,0.2-0.3,0.4-0.5l10.6,5.7C287.7,222.4,287.6,222.6,287.5,222.7z"/>
<path class="st0" d="M287.8,222.3l-10.6-5.7l0.4-0.4l10.6,5.7C288.1,222,287.9,222.1,287.8,222.3"/>
<path class="st0" d="M288.2,221.8l-11.9-4c0.9-1.9,2.3-2.8,3.7-2.8l8.8,6.4L288.2,221.8"/>
<path class="st0" d="M288.8,221.4l-10.5-5.7c0.2-0.1,0.4-0.3,0.6-0.4l10.6,5.7C289.3,221.2,289,221.3,288.8,221.4z"/>
<path class="st0" d="M289.8,221.6l-11-6.3c0.4-0.2,0.8-0.3,1.2-0.4c0.5-0.1,1-0.1,1.4,0l11.2,6.2c-0.5-0.1-1.4-0.1-1.9,0
	C290.4,221.2,290.2,221.4,289.8,221.6z M368,82.5l-11.5-6.9c0-1.2-0.2-2.3-0.8-3.4c-0.6-1-1.4-1.9-2.4-2.5l11.7,4.8
	c1,0.6,1.8,1.4,2.4,2.5C368,78,368,81.3,368,82.5z"/>
<path class="st0" d="M288.4,219.8l-10.6-5.7c-0.6-0.4-1.1-0.9-1.4-1.5c-0.3-0.6-0.5-1.3-0.5-2l10.6,5.7c-0.1,0.7,0.1,1.4,0.4,2.1
	C287.3,218.9,287.8,219.4,288.4,219.8z M360.2,66l-10.6-5.7c1.7-0.3,3.5-0.2,5.2,0.3l13.4,6.8C366.6,66.9,362,65.7,360.2,66
	L360.2,66z"/>
<path class="st0" d="M365.4,66.2l-10.6-5.7c0.8,0.2,1.6,0.5,2.3,0.9l10.6,5.7C367,66.8,366.2,66.5,365.4,66.2z M367.8,67.1
	l-10.6-5.7l0.5,0.2l10.6,5.7C368.1,67.2,368,67.1,367.8,67.1 M318.1,218.9l-10.6-5.7l0.1-84.5l10.6,5.7L318.1,218.9z M346.2,71.1
	l-6.1-9.5l9.6-1.3l14.2,6.2L346.2,71.1z"/>
<path class="st0" d="M319.4,139.1l-11.8-10.3c0.1-1.2-0.2-2.3-0.8-3.3s-1.4-1.9-2.4-2.5l10.5,5.7c1,0.6,1.8,1.4,2.4,2.5
	C318,132.2,319.5,137.9,319.4,139.1L319.4,139.1z M341.7,228.1l-17-17.3L324.9,80l15.2-1.4L341.7,228.1z"/>
<path class="st0" d="M330.5,102.4L325,80.1c0-2.2,0.4-4.3,1.2-6.4l14.6,1.8C340,77.5,330.5,100.2,330.5,102.4z"/>
<path class="st0" d="M336.7,79.3l-10.6-5.7c0.3-0.9,0.7-1.7,1.1-2.5l10.6,5.7C337.4,77.6,337,78.5,336.7,79.3z M337.8,76.8
	l-10.6-5.7c0.4-0.7,0.8-1.4,1.2-2l10.6,5.7C338.6,75.4,338.2,76.1,337.8,76.8z M339,74.8l-10.6-5.7c0.4-0.6,0.9-1.2,1.4-1.7
	l10.6,5.7C339.9,73.6,339.4,74.2,339,74.8z M340.4,73.1l-10.6-5.8c0.5-0.6,1-1.1,1.6-1.6l10.7,5.8C341.6,72,341,72.5,340.4,73.1"/>
<path class="st0" d="M342.1,71.5l-10.6-5.7c0.6-0.5,1.2-1,1.8-1.4l10.6,5.7C343.3,70.5,342.6,71,342.1,71.5z"/>
<path class="st0" d="M343.8,70.1l-10.6-5.7c0.8-0.5,1.6-1,2.5-1.4l10.5,5.7C345.4,69,344.6,69.5,343.8,70.1z"/>
<path class="st0" d="M335,76.5l0.7-13.6c1.4-0.7,2.9-1.1,4.4-1.3l10.5,5.7c-1.5,0.2-5.7,6.1-7.1,6.7"/>
<path class="st1" d="M360.2,66.1c8.2-1.2,15,5.1,15,14.1v62.6c0,1.2-0.4,2.3-1.1,3.2c-0.7,0.9-1.8,1.5-2.9,1.7
	c-0.5,0.1-1.1,0-1.6-0.1c-0.5-0.2-1-0.4-1.3-0.8c-0.4-0.4-0.7-0.8-0.9-1.3s-0.3-1-0.2-1.5V81.3c0.1-0.9-0.1-1.8-0.4-2.7
	c-0.3-0.9-0.9-1.6-1.5-2.3c-0.7-0.6-1.5-1.1-2.4-1.4c-0.9-0.3-1.8-0.3-2.7-0.2l-9.6,1.3c-2,0.4-3.8,1.4-5,3c-1.3,1.5-2,3.5-2,5.5
	l-0.3,130.8c-0.1,0.9,0.1,1.8,0.4,2.7s0.9,1.6,1.5,2.3c0.7,0.6,1.5,1.1,2.4,1.4c0.9,0.3,1.8,0.3,2.7,0.2l9.6-1.4
	c2-0.4,3.8-1.4,5-2.9c1.3-1.5,2-3.5,2-5.5l0.1-52.8c0-1.2,0.4-2.3,1.1-3.2c0.7-0.9,1.8-1.5,2.9-1.7c0.5-0.1,1.1,0,1.6,0.1
	c0.5,0.2,1,0.4,1.3,0.8c0.4,0.4,0.7,0.8,0.9,1.3c0.2,0.5,0.3,1,0.2,1.5V211c0,8.9-6.9,17.1-15.1,18.4l-9.6,1.3
	c-8.3,1.2-15-5.1-15-14l0.1-130.9c0-4.3,1.5-8.5,4.2-11.9c2.8-3.4,6.6-5.6,10.8-6.5L360.2,66.1z"/>
<path class="st0" d="M311.3,119.2l-12.6-5.4c4.2-0.9,5.8-0.4,7.5,0l10.4,5.7C314.9,119,313.1,118.9,311.3,119.2"/>
<path class="st0" d="M306.7,121.7l-0.6-8c0.8,0.2,1.6,0.5,2.3,0.9l10.6,5.7c-0.7-0.4-7.3,0.2-8.1,0"/>
<path class="st0" d="M318.9,120.3l-10.6-5.7l0.5,0.2l10.6,5.6L318.9,120.3"/>
<path class="st2" d="M364.7,28.8L350,23.1c-0.6-0.4-1.1-0.9-1.5-1.5l10.2,5.8C363,30.7,364,28.5,364.7,28.8z"/>
<path class="st0" d="M298,123.9l-6.8-9.2l9.6-1.3l14.9,7.1L298,123.9z"/>
<path class="st3" d="M359.6,10.8L349,5.1c0.3,0.1,0.5,0.2,0.7,0.3l10.6,5.7C360.1,11,359.8,10.9,359.6,10.8z"/>
<path class="st3" d="M358.5,12.9l-12.1-7.5c1-0.3,1.5-0.5,2.7-0.4l10.5,5.7L358.5,12.9L358.5,12.9z"/>
<path class="st3" d="M357.7,10.8l-10.6-5.7c0.5-0.1,0.9-0.1,1.4,0l10.6,5.7C358.6,10.7,358.1,10.7,357.7,10.8z"/>
<path class="st3" d="M357.2,10.9l-10.6-5.7l0.5-0.1l10.6,5.7L357.2,10.9z"/>
<path class="st0" d="M288,218.2l-12-7.4l0.1-77.7l19.1-11.9L288,218.2L288,218.2z"/>
<path class="st3" d="M355.9,11.7L345.3,6l0.3-0.2l10.6,5.7L355.9,11.7 M356.2,11.4l-10.6-5.7l0.6-0.3l10.6,5.7L356.2,11.4z
	 M356.8,11.1l-10.6-5.7l0.4-0.2l10.6,5.7L356.8,11.1"/>
<path class="st0" d="M286.6,138.9l-10.6-5.8c0-2.2,0.4-4.3,1.2-6.4l10.6,5.7C287,134.6,286.7,136.7,286.6,138.9"/>
<path class="st0" d="M284.3,142.8l-7-16c0.3-0.9,0.7-1.7,1.2-2.5l24-4.8C302,120.2,284.6,141.9,284.3,142.8z"/>
<path class="st0" d="M289,130l-10.6-5.7c0.4-0.7,0.8-1.4,1.2-2l10.6,5.7C289.7,128.6,289.3,129.3,289,130z"/>
<path class="st0" d="M290.2,128l-10.6-5.7c0.4-0.6,0.9-1.2,1.4-1.7l10.6,5.7C291,126.8,290.5,127.4,290.2,128"/>
<path class="st0" d="M291.5,126.3l-10.6-5.8c0.5-0.6,1-1.1,1.6-1.6l10.6,5.7C292.6,125.1,292,125.6,291.5,126.3"/>
<path class="st0" d="M288,135.7l-8.9-12.6c2.3-4.2,4.6-5.1,5.3-5.6l23.7,2.8C307.4,120.7,288.6,135.2,288,135.7z"/>
<path class="st0" d="M286.6,132.7l-2.2-15.2c0.8-0.5,1.6-1,2.5-1.4l10.6,5.7C296.5,122.2,287.4,132.2,286.6,132.7z"/>
<path class="st0" d="M289.2,131.5l-2.3-15.4c1.4-0.7,2.9-1.1,4.4-1.3l19.1,6.5c-1.5,0.2-13,2.5-14.4,3.1"/>
<path class="st3" d="M355.5,12L345,6.3c0.7-0.7,1.1-1,1.8-0.8l11.2,6.1L355.5,12z"/>
<path class="st1" d="M311.4,119.3c8.3-1.2,15,5.2,15,14.1l-0.2,84.5c0,8.9-6.8,17.2-15.1,18.4l-11.7,1.7c-7.1,1-12.8-4.4-12.8-12.1
	c0-1.2,0.4-2.3,1.1-3.2c0.7-0.9,1.8-1.5,2.9-1.7c0.5-0.1,1.1,0,1.6,0.1c0.5,0.2,1,0.4,1.3,0.8c0.4,0.4,0.7,0.8,0.9,1.3
	c0.2,0.5,0.3,1,0.2,1.5c0,0.6,0.1,1.2,0.3,1.8c0.2,0.6,0.6,1.1,1,1.5c0.5,0.4,1,0.8,1.6,1c0.6,0.2,1.2,0.3,1.8,0.2l11.7-1.6
	c2-0.4,3.8-1.4,5-3c1.3-1.5,2-3.5,2-5.5l0.1-84.5c0.1-0.9-0.1-1.8-0.4-2.7c-0.3-0.9-0.9-1.6-1.5-2.3c-0.7-0.6-1.5-1.1-2.4-1.4
	c-0.9-0.3-1.8-0.3-2.7-0.2l-9.6,1.3c-2,0.4-3.7,1.4-5,3c-1.3,1.5-2,3.5-2,5.5v77.4c0,1.2-0.4,2.3-1.1,3.2s-1.8,1.5-2.9,1.7
	c-0.5,0.1-1.1,0-1.6-0.1c-0.5-0.2-1-0.4-1.4-0.8c-0.4-0.4-0.7-0.8-0.9-1.3c-0.2-0.5-0.2-1-0.2-1.6l0.1-77.3c0-4.3,1.5-8.5,4.2-11.9
	c2.7-3.4,6.6-5.6,10.8-6.5L311.4,119.3L311.4,119.3z"/>
<path class="st3" d="M347,23.5l-11.5-8.3l9.5-9l14.6,5.8L347,23.5z M235.2,132.7l-8.5-3.8c-0.5-0.3-1.8-2-2.1-2.5
	c-0.3-0.5-0.5-1.2-0.5-1.8c0-0.7,0.1-1.4,0.3-2.1l20,1.2c-0.3,0.7-9.8,5.2-9.8,5.9c0,0.6,0.1,1.2,0.4,1.8
	C235.3,131.9,234.6,132.4,235.2,132.7z"/>
<path class="st3" d="M234.9,128.3l-10.6-5.6c0.1-0.3,0.2-0.6,0.3-0.8l10.6,5.7C235.1,127.8,235,128,234.9,128.3z M235.2,127.6
	l-10.6-5.7l0.3-0.6l10.6,5.7C235.5,127.2,235.4,127.4,235.2,127.6 M235.5,127l-10.6-5.7c0.1-0.2,0.2-0.3,0.4-0.5l10.5,5.7L235.5,127
	"/>
<path class="st3" d="M235.8,126.5l-10.8-5.4c0.4-0.6,0.6-0.7,0.7-0.8l10.6,5.7C236.1,126.2,235.9,126.3,235.8,126.5"/>
<path class="st3" d="M234.7,130.1l-9-9.6c0.2-0.2,0.4-0.3,0.6-0.4l10.5,5.7C236.6,125.9,234.9,129.9,234.7,130.1z"/>
<path class="st3" d="M236.8,125.8l-10.7-5.6c0.6-0.6,1.6-0.8,1.9-0.9l9.6,5.9C237.3,125.5,237.1,125.6,236.8,125.8"/>
<path class="st3" d="M224.4,122.5l1.1-1.9c0.4-0.5,2-1.2,2.3-1.2c10.9-2.5,21.5-6.2,31.6-11.1h29.5c-10.1,4.9-39.6,14.3-50.6,16.8
	l-0.9,0.3"/>
<path class="st3" d="M270.7,116.1l-11.2-7.8c8.8-4.1,17.3-9,25.3-14.5l35.9-9.2C312.6,90.1,279.5,111.9,270.7,116.1L270.7,116.1z"/>
<path class="st3" d="M283.6,111.9l1.2-18.1c5.8-4,11.3-8.3,16.5-13l10.6,5.7C306.6,91.2,289.4,107.9,283.6,111.9z"/>
<path class="st3" d="M312.5,88.5l-11.3-7.7c4.2-3.8,8.2-7.8,12-12.1L328,74C324.2,78.3,316.7,84.7,312.5,88.5z"/>
<path class="st3" d="M323.5,76.5l-10.2-7.8c3.4-3.8,6.6-7.9,9.5-12.1l25.3-9.6C345.1,51.2,326.9,72.7,323.5,76.5z"/>
<path class="st3" d="M321.6,83l1.2-26.4c3-4.2,5.7-8.6,8.1-13.2l21.3-5.3C349.7,42.7,324.6,78.8,321.6,83z"/>
<path class="st3" d="M341.5,49.2l-10.6-5.7c2.9-5.3,5.3-10.8,7.4-16.5h17c-2.1,5.7-9.6,18.4-12.5,23.7"/>
<path class="st3" d="M349,32.7L338.4,27c0.6-1.7,1.2-3.3,1.7-5.1l10.6,5.7C350.1,29.5,349.5,31.1,349,32.7z"/>
<path class="st3" d="M346.3,28.2l-10.5-5.7c-0.4-0.2-0.8-0.6-1.1-0.9c-0.4-0.6-0.7-1.3-0.8-2.1c-0.1-0.7,0-1.5,0.3-2.2l10.6,5.7
	c-0.3,0.7-0.4,1.5-0.3,2.2c0.1,0.7,0.4,1.5,0.8,2.1C345.5,27.7,345.9,28,346.3,28.2z"/>
<path class="st3" d="M346.7,28l-12.6-10.7c0-0.2,0.2-0.5,0.3-0.7l14.1,5C348.4,21.8,346.8,27.7,346.7,28z"/>
<path class="st3" d="M345,22.3l-10.8-2c-0.5-1.9-0.5-3.3,0.6-4.4l10.6,5.7C345.2,21.9,345.1,22,345,22.3"/>
<path class="st3" d="M345.3,21.8l-11.1-4.7c0.3-0.6,0.4-1,0.9-1.5l10.6,5.7L345.3,21.8"/>
<path class="st3" d="M344.9,22.7l-9.8-7.1l1.4-1.3l9.3,6.5c0.4-0.2,0.6,0.4,0.5,0.5"/>
<path class="st0" d="M253.9,238l-4.9-9.1c0.7-0.1,3.9-0.6,6.1-4.8l9.8,8.4C264.2,232.7,254.6,237.9,253.9,238L253.9,238z"/>
<path class="st0" d="M261.5,234l-10.5-5.8c0.4-0.2,0.8-0.4,1.1-0.6l10.6,5.7C262.3,233.6,261.9,233.8,261.5,234L261.5,234z"/>
<path class="st0" d="M262.6,233.3l-10.6-5.7c0.3-0.2,0.6-0.4,0.8-0.6l10.6,5.7C263.2,232.9,262.9,233.1,262.6,233.3z M263.5,232.7
	l-10.6-5.7l0.7-0.7l10.5,5.7C264,232.2,263.7,232.4,263.5,232.7z M264.2,232l-10.5-5.7c0.2-0.2,0.4-0.5,0.6-0.8l10.6,5.7
	C264.6,231.4,264.4,231.7,264.2,232z"/>
<path class="st0" d="M252.5,242.6l1.7-17.2l0.6-0.9l13.5,5.5C268.2,230.3,252.7,242.3,252.5,242.6L252.5,242.6z"/>
<path class="st0" d="M265.3,230.3l-10.5-5.7c0.2-0.4,0.4-0.8,0.5-1.2l10.6,5.7C265.7,229.4,265.6,229.8,265.3,230.3"/>
<path class="st0" d="M267.9,231.4l-13.5-5.2c2-4.3,1.5-7.5,1.5-8.5h12.5c0,1,0.3,11.4,0,12.4 M251.6,239.8l-12.1-9.6l9.6-1.3
	l10.6,5.7L251.6,239.8L251.6,239.8z"/>
<path class="st0" d="M246.3,235.3l-10.5-5.7h0.2l10.5,5.7H246.3z"/>
<path class="st0" d="M246.5,235.4l-10.5-5.7c0.3,0.2,0.7,0.3,1.1,0.4l10.5,5.7C247.2,235.7,246.8,235.6,246.5,235.4z"/>
<path class="st0" d="M247.6,235.8l-10.6-5.7c0.8,0.1,1.5,0.1,2.3,0L250,236c-0.8,0.1-1.5,0.1-2.3,0"/>
<path class="st0" d="M241.9,243.4l-10.6-5.7c-2.2-1.3-4-3.2-5.2-5.4c-1.2-2.2-1.8-4.8-1.7-7.3l12-0.6c-0.1,2.6-1,11.4,0.2,13.7
	C237.9,240.2,239.7,242.1,241.9,243.4z M268.4,228.1l-12.5-7.6l0.1-66l12.4-3V228.1L268.4,228.1z"/>
<path class="st0" d="M266.5,160.3l-10.5-5.7c0-1.2-0.2-2.3-0.8-3.4s-1.4-1.9-2.4-2.5l10.6,5.7c1,0.6,1.8,1.4,2.4,2.5
	C266.3,158,266.6,159.1,266.5,160.3 M259.7,145l-10.6-5.7c1.7-0.3,3.5-0.2,5.2,0.3l10.6,5.7C263.2,144.8,261.4,144.7,259.7,145z"/>
<path class="st0" d="M255.6,146l-1.2-6.5c0.8,0.2,1.6,0.5,2.3,0.9l10.6,5.7c-0.7-0.4-2.1,0.8-2.9,0.6"/>
<path class="st0" d="M267.3,146.1l-10.6-5.7l0.5,0.3l10.6,5.7L267.3,146.1z M234.8,230.6l-10.5-5v-56.1l10.6,5.7L234.8,230.6z
	 M249.5,146.4l-10.5-5.8l10.2-1.4l13.8,5.7L249.5,146.4z"/>
<path class="st0" d="M234.8,177.4l-10.5-7.9c0-0.6,0.3-1.7,0.7-2.4l13,3.9c-0.2,0.6-2.6,5.8-2.6,6.4"/>
<path class="st0" d="M235.1,176l-10.4-8.2c0.1-0.2,0.2-0.5,0.3-0.7l11.8,4.3c-0.1,0.2-1.5,1.9-1.6,2.2"/>
<path class="st0" d="M235.6,172.8l-10.6-5.7c0.1-0.2,0.5-0.7,0.8-0.8l10.1,6.1c-0.1,0.2-0.3,0.4-0.3,0.6"/>
<path class="st0" d="M235.7,173.5l-10.3-6.8c0.1-0.2,1.4-1.6,2.8-2l11.2,6.1c-0.1,0.1-3.4,1.5-3.5,1.7"/>
<path class="st0" d="M236.3,171.8l-10.4-5.3l0.4-0.4l10.4,5.3C236.6,171.4,236.4,171.6,236.3,171.8 M236.7,171.3l-9.9-5.3
	c0.2-0.1,0.3-0.3,0.5-0.4l9.9,5.4C237,171.1,236.9,171.2,236.7,171.3"/>
<path class="st0" d="M237.2,171l-10.4-5.4l0.7-0.4l10.4,5.4L237.2,171z"/>
<path class="st0" d="M237.9,170.6l-10.6-5.5c0.4-0.2,0.9-0.5,1.4-0.6s0.9-0.1,1.4,0l11.2,6.2c-0.5-0.1-1.6-0.5-2.1-0.5
	C238.7,170.3,238.3,170.4,237.9,170.6L237.9,170.6z"/>
<path class="st0" d="M240.5,170.3l-10.5-5.7c0.2,0.1,0.4,0.1,0.6,0.2l10.6,5.7C241,170.4,240.7,170.4,240.5,170.3z M236.9,167.5
	l-10.6-5.7c-0.6-0.4-1.1-0.9-1.4-1.5c-0.3-0.6-0.5-1.3-0.5-2c0-2.1,0.4-4.2,1.1-6.1l10.6,5.7c-0.7,2-1.1,4-1.1,6.1
	c0,0.7,0.1,1.4,0.5,2C235.8,166.7,236.3,167.2,236.9,167.5z"/>
<path class="st0" d="M235.3,161.2l-9.8-9c0.3-0.8,0.7-1.7,1.1-2.4l16.1,0.3C242.4,150.8,235.6,160.4,235.3,161.2L235.3,161.2z"/>
<path class="st0" d="M237.2,155.5l-10.5-5.7c0.4-0.7,0.7-1.3,1.2-1.9l10.6,5.7C237.9,154.2,237.6,154.8,237.2,155.5z"/>
<path class="st0" d="M238.4,153.6l-10.6-5.7c0.4-0.6,0.8-1.1,1.3-1.7l10.6,5.7C239.2,152.4,238.8,153,238.4,153.6z"/>
<path class="st0" d="M226.7,149.8l2.5-3.6l1.5-1.5l15.5,0.8c-0.5,0.5-6,6-6.4,6.5"/>
<path class="st0" d="M241.2,150.5l-10.5-5.8c0.6-0.5,1.1-1,1.8-1.4l10.6,5.7C242.3,149.4,241.7,149.9,241.2,150.5"/>
<path class="st0" d="M229.5,154.4l2.9-11.1c0.7-0.5,1.5-1,2.3-1.4l20.9,2.8c-0.8,0.4-11.8,3.8-12.6,4.3"/>
<path class="st0" d="M241.3,154.4l-6.5-12.4c1.3-0.6,2.8-1.1,4.2-1.3l16.8,5.3c-1.5,0.2-7.5,3.1-8.9,3.7"/>
<path class="st1" d="M259.7,145.1c8.3-1.2,15,5.1,15,14l-0.1,65.9c0,8.9-6.8,17.1-15.1,18.4l-9.6,1.3c-8.3,1.2-15-5.2-15-14.1
	l0.1-55.4c0-1.2,0.4-2.3,1.1-3.2c0.7-0.9,1.8-1.5,2.9-1.7c0.5-0.1,1,0,1.5,0.1c0.5,0.2,1,0.4,1.3,0.8c0.4,0.4,0.7,0.8,0.9,1.3
	c0.2,0.5,0.3,1,0.2,1.5v55.4c-0.1,0.9,0.1,1.8,0.4,2.7s0.9,1.6,1.5,2.3c0.7,0.6,1.5,1.1,2.4,1.4c0.9,0.3,1.8,0.3,2.7,0.2l9.6-1.3
	c2-0.4,3.7-1.4,5-3c1.3-1.5,2-3.5,2-5.5l0.1-65.9c0.1-0.9-0.1-1.8-0.4-2.7c-0.3-0.9-0.9-1.6-1.5-2.3c-0.7-0.6-1.5-1.1-2.4-1.4
	c-0.9-0.3-1.8-0.3-2.7-0.2l-10.4,1.4c-1.8,0.4-3.4,1.3-4.6,2.7c-1.2,1.4-1.8,3.2-1.8,5c0,1.2-0.4,2.3-1.1,3.2s-1.8,1.5-2.9,1.7
	c-0.5,0.1-1.1,0-1.6-0.1c-0.5-0.2-1-0.4-1.3-0.8c-0.4-0.4-0.7-0.8-0.9-1.3c-0.2-0.5-0.3-1-0.2-1.5c0-4.1,1.4-8.2,4.1-11.4
	c2.6-3.2,6.3-5.4,10.3-6.2L259.7,145.1L259.7,145.1z"/>
<path class="st4" d="M351.4,27.6c0,0.1,0,0.1-0.1,0.2C351.4,27.8,351.4,27.7,351.4,27.6z M351.4,27.6c-0.1,0-0.1,0.1-0.1,0.1
	S351.4,27.7,351.4,27.6z M359.3,27.8c-22.6,66.8-74.4,91.8-113.3,103.8c-6.2,1.9-6.9,1.4-10,1.2c-4.5-0.3-4.9-6.1-0.5-7.2l2.9-0.6
	l4.7-1.1c89.8-25.8,108.4-96.2,108.4-96.2c-3.2,2.1-4.7,0.3-4.7,0.3c-4.7-4.4,1.4-8.2,1.4-8.2l10.4-8.9c1.1-0.1,2.1,0.4,2.5,1.4
	c1.4,2.8,4.5,9.1,5.2,11.3c1.5,4.7,0.3,5.1-0.2,5.7C363.3,32.7,359.3,27.8,359.3,27.8z"/>
</svg>
