<?xml version="1.0" encoding="utf-8"?>
<!-- Generator: Adobe Illustrator 24.0.0, SVG Export Plug-In . SVG Version: 6.00 Build 0)  -->
<svg version="1.1" id="Слой_1" xmlns="http://www.w3.org/2000/svg" xmlns:xlink="http://www.w3.org/1999/xlink" x="0px" y="0px"
	 viewBox="0 0 600 250" style="enable-background:new 0 0 600 250;" xml:space="preserve">
<style type="text/css">
	.st0{clip-path:url(#SVGID_2_);}
	.st1{clip-path:url(#SVGID_4_);}
	.st2{fill:#40689D;}
	.st3{fill:#B4D1FA;stroke:#000000;stroke-width:0.25;}
	.st4{fill:#2F527F;fill-opacity:0.3;}
	.st5{fill:#7F94B1;}
	.st6{fill:#862F40;}
	.st7{fill:#9A384B;}
	.st8{fill:#E87891;stroke:#000000;stroke-width:0.25;}
</style>
<g>
	<g>
		<defs>
			<polygon id="SVGID_1_" points="172.7,-25.6 429.5,13.4 429.5,251.4 172.7,252.4 			"/>
		</defs>
		<clipPath id="SVGID_2_">
			<use xlink:href="#SVGID_1_"  style="overflow:visible;"/>
		</clipPath>
		<g class="st0">
			<g>
				<g>
					<defs>
						<polygon id="SVGID_3_" points="270.8,177.4 365.8,175.4 365.8,243.4 270.8,245.4 						"/>
					</defs>
					<clipPath id="SVGID_4_">
						<use xlink:href="#SVGID_3_"  style="overflow:visible;"/>
					</clipPath>
					<g class="st1">
						<path class="st2" d="M356.3,238.3v1.5l-54.5,2.2v-2L356.3,238.3z M301.8,240.4v1.5c-43.5-6-32-7.6-19.5-62l4-0.9
							C273.7,232.9,259.6,226.8,301.8,240.4z"/>
						<path class="st3" d="M277.4,207.4c2.3-7.5,5.2-16,8.1-28.1l39.5-3c-1.6,10.4-3.1,17.6-4.6,23.7c-1,4.4-1.1,7.9-1.3,8.6
							c-0.3,3.9,0.3,6.6,0.7,8.3c0.5,1.6,2.5,5.9,9,9.4c5.5,2.9,14.6,8.3,27.4,11.9l-54,2.2c-10.9-1.5-18.1-2.8-22.7-4.7
							c-2.3-1-3.9-2.1-5-3.4c-1.1-1.4-1.6-3-1.7-5s0.3-4.4,0.9-7.3c0.7-2.9,1.7-6.2,2.9-10.2C276.9,209,277.1,208.2,277.4,207.4z"/>
						<path class="st4" d="M273.4,226.6c-2.5,0,4.9-32.6,8.9-47.6l42.5-0.9c-5.2,26.4-10.1,36.7-0.2,45.7
							C311,223.4,281,226.6,273.4,226.6z"/>
					</g>
				</g>
			</g>
			<path class="st2" d="M417.4,186.8l-9.7-7.8c2.2-0.4,6.9-1.7,7.2-1.9l7.2,7.7C421.8,184.9,417.8,186.6,417.4,186.8z"/>
			<path class="st2" d="M422.1,184.8l-11.6-6.3c0.2-0.1,0.4-0.2,0.6-0.4l11.6,6.3L422.1,184.8z M422.8,184.4l-11.6-6.3
				c0.2-0.1,0.3-0.2,0.5-0.4l11.6,6.3C423,184.2,422.9,184.3,422.8,184.4z M423.3,184l-11.6-6.3l0.4-0.4l11.6,6.3L423.3,184z"/>
			<path class="st2" d="M423.6,183.6l-11.6-6.3v-0.2c0.1-0.1,0.1-0.2,0.2-0.3l11.6,6.3l-0.2,0.3L423.6,183.6L423.6,183.6z"/>
			<path class="st2" d="M423.5,184.1l-11.2-7.3c0.1-0.2,0.2-0.4,0.3-0.5l12.1,5.7c-0.1,0.2-0.7,2-0.8,2.1"/>
			<path class="st2" d="M424.3,182.6l-11.5-6.3c0-0.2,0.2-0.5,0.3-0.7l11.6,6.3c-0.1,0.2-0.2,0.5-0.3,0.7"/>
			<path class="st2" d="M424.5,181.8l-11.6-6.3c0.2-0.6,0.3-1.2,0.3-1.8l11.6,6.3C425,180.6,424.9,181.3,424.5,181.8z"/>
			<path class="st2" d="M425.8,186.3l-14.5-7.1l1.9-9.8l11.6,6.3L425.8,186.3z"/>
			<path class="st2" d="M231.4,195.1c0,0-11.4-10.4-8-10.4c12.6,0.2,186.6-6.2,186.6-6.2l15.2,7.6L231.4,195.1L231.4,195.1z"/>
			<path class="st2" d="M229.3,196.1l-7.7-6.5c-0.3-0.2-0.6-0.5-0.8-0.8s-0.2-0.7-0.3-1.1c-0.1-1-1.3-3.5,8.2-2.9l-0.3,8.7
				c-0.1,0.3-0.2,0.6-0.2,1s0.2,0.7,0.4,1.1c0.2,0.3,1.1,0.6,1.4,0.7"/>
			<path class="st2" d="M228.2,194.8l-6.5-6.4c0-0.1,0.2-1.1,2-1.4l7.5,4.6c-0.1,0.1-2.6,1.9-2.7,2"/>
			<path class="st2" d="M228.9,193.3l-7.2-5.9l0.2-0.3l7.2,5.9L228.9,193.3z"/>
			<path class="st2" d="M229.1,192.8l-7.3-5.8v0.1l7.5,5.3L229.1,192.8z"/>
			<path class="st2" d="M229.3,192.6l-7.3-5.4l0.2-0.2l7.3,5.4L229.3,192.6z"/>
			<path class="st2" d="M229.5,192.4l-7.7-3.9l1-1.3l7,4.9L229.5,192.4"/>
			<path class="st2" d="M229.8,192.3l-6.9-5l0.4-0.2l6.9,5L229.8,192.3z"/>
			<path class="st2" d="M230.5,196.6c-4.7-1.6-6.8-9.4-6.8-9.4c0.2-0.1,0.4-0.2,0.7-0.2l6.4,4.7
				C232.1,194.9,232.4,197.4,230.5,196.6z M214.7,193.4l-7.3-8c0.3-0.1,0.5-0.1,0.8,0l7.8,7.7C215.7,193,215,193.3,214.7,193.4z"/>
			<path class="st2" d="M215.8,193.1l-8.2-7.9c0.1,0,0.2,0.1,0.4,0.2l8.2,7.9C216,193.1,216,193.1,215.8,193.1z M216.1,193.3
				l-8.1-7.9L216.1,193.3 M193.6,194.1l-12.2-8.6l26.3-0.1l7.6,8.2L193.6,194.1L193.6,194.1z M190.9,192.8l-11.7-7.3h0.1
				L190.9,192.8"/>
			<path class="st2" d="M191,192.8l-11.7-7.4c0.2,0.1,0.4,0.2,0.6,0.2l11.6,7.3C191.4,193.1,191.2,192.9,191,192.8z"/>
			<path class="st2" d="M191.6,193.1l-11.6-7.3c0.4,0.1,0.9,1.1,1.3,1l11.6,6.4C192.4,193.3,192,193.3,191.6,193.1 M188.4,197.3
				l-11.7-7.4c-0.5-0.3-1-0.8-1.5-1.2c-0.8-0.8-1.5-1.8-1.9-2.8c-0.4-1.2-0.6-2.3-0.6-3.5l11.6,7.3c0,1.2,0.2,2.3,0.6,3.4
				c0.4,1.1,1.1,2,1.9,2.9c0.5,0.4,1,0.8,1.5,1.1"/>
			<path class="st2" d="M184.4,189.9l-11.6-7.3l0.1-9.3l12.6,3.2L184.4,189.9L184.4,189.9z"/>
			<path class="st5" d="M184.5,179.6l-9.8-6.2l244.9-9.5l9.8,6.3C429.5,170.3,184.6,179.6,184.5,179.6z"/>
			<path class="st3" d="M426.8,186.3c-1.4,1.8-3.4,3-5.6,3.5l-190.4,6.8c-0.3,0-0.6,0-0.8-0.1c-0.3-0.1-0.5-0.2-0.7-0.4
				s-0.4-0.4-0.5-0.7s-0.1-0.6-0.1-0.8c0-0.6,0.2-1.2,0.6-1.7s1-0.8,1.6-0.9l190.1-6.8c1.1-0.2,2.1-0.8,2.8-1.7
				c0.8-1,1.2-2.1,1.2-3.4v-4.5l0,0l-235.9,8.2H189v5.5c0,0.6,0.1,1.1,0.3,1.6s0.5,1,0.9,1.4c0.4,0.4,0.8,0.6,1.3,0.8s1,0.2,1.5,0.1
				l22.1-0.1c0.3,0,0.6,0,0.8,0.1c0.3,0.1,0.5,0.2,0.7,0.4s0.4,0.4,0.5,0.7s0.1,0.5,0.1,0.8c0,0.6-0.2,1.2-0.6,1.7s-1,0.8-1.6,1
				l-22.2,0.2c-1.1,0.2-2.2,0.1-3.2-0.2s-2-0.9-2.7-1.6c-0.8-0.8-1.5-1.8-1.9-2.8c-0.4-1.1-0.7-2.2-0.6-3.3v-10.2l244.9-9.4v9.2
				C429.3,182.1,428.5,184.5,426.8,186.3L426.8,186.3z"/>
			<path class="st6" d="M424.8,168.8l-11.6-6.1l0.3-140.1l11.6,5.3L424.8,168.8L424.8,168.8z"/>
			<path class="st6" d="M425,29l-11.6-6.3c0-0.8-0.2-1.5-0.5-2.2c-0.4-0.7-0.9-1.2-1.6-1.6l11.7,6.3c0.7,0.4,1.2,0.9,1.6,1.6
				S425.1,28.2,425,29"/>
			<path class="st7" d="M420.4,19.8l-11.7-6.3c1.2-0.1,2.6,0.2,3.2,0.2l11.6,6.3C422.5,19.7,421.5,19.7,420.4,19.8z"/>
			<path class="st7" d="M417.4,21.9l-7-8.4c0.5,0.1,2.1,0,3.3,0.8l11.6,6.3C425,20.4,418,22.1,417.4,21.9L417.4,21.9z"/>
			<path class="st7" d="M425,20.5l-11.6-6.3l0.3,0.2l11.6,6.3C425.4,20.7,425,20.5,425,20.5z M307.2,171.6l-9.1-6.1l115.1-4.5
				l11.6,6.3L307.2,171.6z"/>
			<path class="st7" d="M188.9,175.4l-11.8-5.8l120.8-4.2l15,8.3L188.9,175.4z M187.2,16.9l-5.1-11.5l226.7,8.1l11.6,6.3
				C420.4,19.8,187.3,16.9,187.2,16.9z"/>
			<path class="st7" d="M184.5,179.6l-11.7-6.4L173,16.6c5.1,1.4,7.5,2.9,11.6,6.3L184.5,179.6L184.5,179.6z"/>
			<path class="st7" d="M184.6,22.9L173,16.5c0-1.3,1.8-10.1,13-11l5.1,7C190.6,13.8,184.6,21.6,184.6,22.9z"/>
			<path class="st8" d="M420.4,19.8c1.2-0.2,2.4-0.1,3.5,0.3s2.2,1,3,1.8c0.9,0.8,1.5,1.8,2,2.9c0.4,1.1,0.6,2.3,0.5,3.5v141.9
				l-122.7,4.5l-122.5,5l0.3-156.9c0-2.6,0.9-5.1,2.6-7.1c1.7-2,4-3.4,6.5-3.9C193.6,11.8,420.4,19.8,420.4,19.8z M424.6,167.2
				L425,29c0-0.6-0.1-1.2-0.3-1.8s-0.6-1.1-1-1.5s-1-0.7-1.5-0.9c-0.6-0.2-1.2-0.2-1.8-0.2l-226.7-7.9c-1.3,0.3-2.4,0.9-3.3,2
				c-0.8,1-1.3,2.3-1.3,3.6l-0.2,153.1l117.8-3.7L424.6,167.2"/>
			<path class="st7" d="M185.1,19L173,16.5c0.2-0.5,1-4.2,1.3-4.7l11.6,5.7C185.6,18,185.3,18.5,185.1,19z"/>
			<path class="st7" d="M185.6,18L173,16.2c-0.2-0.3,1.3-5.9,2.2-6.5l11.5,6.4C186.5,16.6,185.8,17.6,185.6,18z"/>
			<path class="st7" d="M186.6,16.3L175,9.9c0.2-0.4,1-1.1,1.3-1.4l11.1,6.7C187.1,15.8,186.8,15.8,186.6,16.3z"/>
			<path class="st7" d="M187.5,15.2l-11.6-6.3c0.3-0.3,0.6-0.7,0.9-0.9l11.6,6.3C188,14.5,187.7,14.9,187.5,15.2"/>
			<path class="st7" d="M188.4,14.3L176.8,8c0.3-0.3,0.7-0.6,1.1-0.9l11.7,6.3C189.2,13.7,188.7,13.9,188.4,14.3"/>
			<path class="st7" d="M189.6,13.4l-11.7-6.3l1.5-0.9l11.6,6.3C190.5,12.8,190,13.1,189.6,13.4z"/>
			<path class="st7" d="M190.7,12.4l-11.3-6.2c0.9-0.4,1.8-0.7,2.7-0.8l11.2,6.2c-0.9,0.1-1.5,0.3-2.5,1"/>
		</g>
	</g>
</g>
</svg>
