<?xml version="1.0" encoding="utf-8"?>
<!-- Generator: Adobe Illustrator 24.0.0, SVG Export Plug-In . SVG Version: 6.00 Build 0)  -->
<svg version="1.1" id="Слой_1" xmlns="http://www.w3.org/2000/svg" xmlns:xlink="http://www.w3.org/1999/xlink" x="0px" y="0px"
	 viewBox="0 0 600 270" style="enable-background:new 0 0 600 270;" xml:space="preserve">
<style type="text/css">
	.st0{fill:#40689D;}
	.st1{fill:#9A384B;}
	.st2{fill:#793E4B;}
	.st3{fill:#882F40;}
	.st4{fill:#E87891;stroke:#000000;stroke-width:0.2;}
	.st5{fill:#B4D1FA;stroke:#000000;stroke-width:0.2;}
	.st6{fill:#D6516B;stroke:#000000;stroke-width:0.1;}
</style>
<path class="st0" d="M273.3,48.2l-9-12.4c7.9-1.1,15.9-0.7,23.6,1.2l14.1,7.7c-7.7-2-16.5,1.1-23.6-1.2 M243.1,185l-15.3-8.2
	c-19-10.4-31.6-31.6-31.6-57.9c0-9.9,1.8-19.7,5.2-29l21-1.6c-3.4,9.3-7.8,28.1-7.8,38c0,26.2,9.5,47.3,28.5,57.7"/>
<path class="st0" d="M212.9,127l-11.5-37c1.5-3.9,3.3-7.8,5.3-11.5l18.3,3.7c-2,3.7-4.3,15-5.7,18.9"/>
<path class="st0" d="M220.7,86.2l-14-7.7c1.7-3.1,3.5-6.1,5.5-9l33.9-10C244.1,62.4,222.4,83.1,220.7,86.2"/>
<path class="st0" d="M226.2,77.2l-14.1-7.7c1.9-2.7,4-5.3,6.2-7.8l23.5,2.2C239.6,66.4,228.2,74.5,226.2,77.2"/>
<path class="st0" d="M232.4,69.4l-14.1-7.7c2.2-2.5,4.6-4.8,7.1-7l14.1,7.7c-2.4,2.2-4.8,4.6-6.9,7"/>
<path class="st0" d="M239.3,62.4l-14-7.7c2.6-2.3,5.4-4.5,8.2-6.5l14.1,7.7C244.7,57.9,242,60.1,239.3,62.4"/>
<path class="st0" d="M227.8,76l5.6-27.9c3.5-2.4,7.2-4.6,11.1-6.4l14.1,7.7c-3.8,1.8-7.6,5.7-11.2,8.1"/>
<path class="st0" d="M254.5,57.6l-10-15.8c6.3-3,13-5,19.9-6l14.1,7.7c-6.9,1-13.6,3-19.9,6 M293.4,50.5L288,37
	c3.7,1,7.3,2.3,10.7,4l14.1,7.7c-3.4-1.7-7-3-10.7-4"/>
<path class="st0" d="M312.8,48.7L298.7,41c0.7,0.3,1.4,0.7,2,1.1l14.1,7.7C314.1,49.4,313.5,49,312.8,48.7z"/>
<path class="st1" d="M409.3,233.5l-14.1-7.7c0.1-0.1,0.3-0.3,0.4-0.5l14.3,7.7l-0.4,0.5"/>
<path class="st1" d="M409.9,233l-14.9-6.7l1.5-2.5l13.9,8.4L409.9,233z"/>
<path class="st1" d="M410.2,232.2l-14.1-7.8c0.2-0.3,0.3-0.7,0.5-1l14.1,7.7C410.5,231.5,410.4,231.8,410.2,232.2"/>
<path class="st1" d="M410.7,231.2l-14.1-7.7c0.2-0.5,0.3-1.1,0.4-1.6l14.1,7.7C411,230.1,410.8,230.7,410.7,231.2z"/>
<path class="st1" d="M411.9,232.3L397,221.9l0.2-1.8l14.1,7.7L411.9,232.3L411.9,232.3z"/>
<path class="st1" d="M404.1,246.9l-16.9-11.3l8.4-10.3l21.6-4.2L404.1,246.9z"/>
<path class="st1" d="M395,247.2l-11.2-9.2l0.8-0.3l17.8,6.5L395,247.2L395,247.2z"/>
<path class="st1" d="M398.7,245.4l-14.1-7.7c0.3-0.2,0.7-0.4,1-0.6l18.8,3.2C404.1,240.6,399.1,245.2,398.7,245.4z"/>
<path class="st1" d="M399.7,244.8l-14.1-7.7l0.7-0.6l14.2,7.7L399.7,244.8"/>
<path class="st1" d="M400.6,244.2l-14.5-7.4l1.5-1.5l13.7,8.3C401,243.8,400.8,244,400.6,244.2L400.6,244.2z"/>
<path class="st1" d="M401.1,243.6l-14.1-7.7l0.2-0.2l14.1,7.7L401.1,243.6z M392.3,229.2c6.1-5.7,4.9-9.1,4.9-9.1
	c0.2-0.9,0.1-1.9-0.2-2.8c-0.3-0.9-1.7-2.8-2.3-3.4l15.4,5.7c0.7,0.7,0.8,4.5,1.1,5.4c0.3,0.9,0.3,1.9,0.2,2.8 M396.3,246.2
	l-14.1-7.7l1.6-0.5l14.1,7.7L396.3,246.2z M392.2,245.9l-14.1-7.7L392.2,245.9H392 M392.4,246l-14.1-7.7l0.9,0.3l14.1,7.6L392.4,246
	"/>
<path class="st1" d="M392.5,246.7l-13.3-8.1c0.7,0.1,1.4,0.1,2,0c0.3,0,0.6-0.1,0.9-0.2l14.1,7.8c-0.3,0.1-0.6,0.2-0.9,0.2
	c-0.7,0.1-1.4,0.1-2,0 M389,253.9l-15.3-7.7c-0.8-0.5-2-1.5-2.7-2.2l14.3,4.3c0.7,0.7,3.5,4.4,4.4,4.8 M409.7,222.5l-14.1-7.7
	l-46-43.5l14.1,7.7L409.7,222.5z"/>
<path class="st2" d="M363.7,179l-14.1-7.7c-0.3-0.3-0.6-0.5-1-0.7l14.1,7.7C363.1,178.5,363.4,178.8,363.7,179"/>
<path class="st1" d="M389.6,254.3l-18.2-9.9l-46-43.5l20.9,5.7L389.6,254.3z M354.7,173.4l-11.1-11.5c0.7-0.2,1.4-0.4,2.1-0.5
	c1.6-0.2,3.2-0.2,4.8,0.2c4.8,1.5,16.6,8.6,16.6,8.6c-1.5-0.4-6-0.2-7.5,0c-0.7,0.1-1.6,0.4-2.3,0.7"/>
<path class="st1" d="M364.5,169.4l-14.1-7.7c0.7,0.2,1.5,0.5,2.2,0.8l14,7.7c-0.7-0.3-1.4-0.6-2.2-0.8"/>
<path class="st1" d="M366.5,170.2l-14-7.8l0.4,0.2l14.1,7.7L366.5,170.2L366.5,170.2z M354.7,170.5l-14.1-7.7l3-0.9l14.1,7.7
	L354.7,170.5z M339.6,208.6l-14.1-7.7c-1.6-1.6-2.7-3.5-3.4-5.7c-0.7-2.1-0.8-4.4-0.4-6.6l14.1,7.7c-0.4,2.2-0.3,4.5,0.4,6.7
	s8.7,4.4,10.2,6"/>
<path class="st1" d="M337.5,206.1l-15.9-17.4l0.5-3.3l16.2,7.3L337.5,206.1z M340.9,187.1l-14.6-10l7.7-9.6l17.2,10.6L340.9,187.1
	L340.9,187.1z"/>
<path class="st3" d="M349.6,177.3l-15.8-9.2l-5.2-4.2l14.1,7.7L349.6,177.3z M340.4,195.3l-18.3-9.9l-8.8-8.3l17.2,3.6L340.4,195.3
	L340.4,195.3z"/>
<path class="st1" d="M237.6,193.4l-14.1-7.7l2.2,1.1l14.1,7.7L237.6,193.4z"/>
<path class="st1" d="M237.3,196.6l-11.6-9.8c3.8,1.9,7.7,3.3,11.8,4.4l21.8,10.3C255.2,200.4,241.1,198.5,237.3,196.6z"/>
<path class="st1" d="M251.7,198.9l-14.1-7.7c8.6,2.2,17.5,2.6,26.3,1.4c7.5-1.1,15.6-3.4,22.5-6.7l14.7,7.6
	c-6.4,4.1-14.9,5.8-22.4,7h-0.5c-8.8,1.3-17.8,1.2-26.3-1"/>
<path class="st1" d="M301,194l-14.9-7.9c4.4-2.1,8.9-4.9,12.9-7.7l22.4,4.7C317.4,185.9,305.4,192,301,194z"/>
<path class="st1" d="M313.9,186.6l-15-8.1c3.3-2.3,6.5-4.8,9.4-7.5l15,7.6C320.4,181.3,317.3,184.3,313.9,186.6z"/>
<path class="st1" d="M320.3,185.9L308.4,171c2.8-2.5,5.5-5.2,8-8.1l29.5,1.5C343.4,167.3,323.2,183.4,320.3,185.9L320.3,185.9z"/>
<path class="st1" d="M327.7,176.5l-11.3-13.6c2.5-2.9,4.9-5.9,7.1-9l27-5.7C348.3,151.4,330.3,173.6,327.7,176.5z"/>
<path class="st1" d="M339.3,162.2l-15.8-8.3c2.3-3.4,4.5-6.8,6.4-10.4l15.8,8.3C343.8,155.4,341.6,158.8,339.3,162.2z"/>
<path class="st1" d="M342.1,163.1L330,143.5c2.3-4.3,4.3-8.7,5.9-13.3l21.7,1.1C356,135.9,344.4,158.8,342.1,163.1L342.1,163.1z"/>
<path class="st1" d="M351.2,139.8l-15.3-9.6c3.9-10.4,5.9-21.4,6-32.5c0.2-29.5-13.7-53.2-34.9-64.8l14.9,6.5
	c21.2,11.6,36,35.6,35.8,65.1C357.6,115.6,355.1,129.4,351.2,139.8z M233.9,201.3l-14.6-7.7l-1.8-1c-0.8-0.5-1.3-1.3-1.6-2.2
	s-0.4-2.3,0.6-3.8l15.8,8.1c-0.4,0.9-0.5,1.8-0.2,2.8c0.3,0.9-0.3,1.9,0.5,2.5l1.9,0.2"/>
<path class="st1" d="M230.3,195.3l-14.3-7.2c0-1,0.5-1.5,0.5-1.5l14.1,8.1C230.4,194.8,230.3,195.1,230.3,195.3L230.3,195.3z"/>
<path class="st1" d="M230.4,194.6l-14.1-7.7c0.7-1.4,1.1-1.2,1.2-1.4l13.4,8L230.4,194.6v0.2V194.6L230.4,194.6z"/>
<path class="st1" d="M230.7,194.1l-14.1-7.7c0.1-0.2,0.2-0.3,0.3-0.5l14.1,7.7C231.1,193.7,230.9,193.9,230.7,194.1z"/>
<path class="st1" d="M231.1,193.6c0,0-16.3-4.3-14.1-7.7c0.5-0.8,2.1-1.3,2.1-1.3l12.4,8.6L231.1,193.6"/>
<path class="st1" d="M231.5,193.2l-14.1-7.7l0.5-0.4l14.1,7.7L231.5,193.2"/>
<path class="st1" d="M232,192.8l-14.1-7.7c0.2-0.2,0.4-0.3,0.7-0.4l14.1,7.7C232.7,192.4,232,192.8,232,192.8z"/>
<path class="st1" d="M229.9,195.9l-11.3-11.1c0.4-0.2,0.8-0.3,1.2-0.4c0.4-0.1,0.9-0.1,1.4,0l15.1,8.1c-0.4-0.1-1.9-0.5-2.4-0.4
	C233.4,192.1,230.3,195.7,229.9,195.9L229.9,195.9z"/>
<path class="st1" d="M235.2,192.1l-14.2-7.7l0.6,0.2l14.1,7.7L235.2,192.1 M235.8,192.4l-14.1-7.7
	C221.7,184.7,235.8,192.4,235.8,192.4z M257.1,36.7l9-19.4h0.8c9.6-1.4,19.7-0.9,29.2,1.6l14.9,8c-9.4-2.4-19.7-2.4-29.3-1h-0.9"/>
<path class="st1" d="M310,27.5l-15.1-9c4.5,1.2,9.8,3.1,14,5.2l14.1,7.7C318.8,29.3,314.5,28.6,310,27.5z M322.9,31.3l-14.1-7.7
	l2.5,1.3l14.1,7.7L322.9,31.3z M208.6,177.6l-14.2-7.7c-0.5-0.3-0.9-0.7-1.2-1.2c-8.5-14.1-12.8-30.3-12.4-46.7
	c0.1-12.2,2.4-24.4,6.6-35.8l14.1,7.7c-4.3,11.5-5.1,23.8-5.2,36c-0.4,16.4,4.3,30.5,12.7,44.5c0.3,0.5-1.1,2.8-0.6,3.1"/>
<path class="st1" d="M200,98.6l-12.7-12.4c1.8-5,4-9.9,6.6-14.6l16,7.9c-2.5,4.7-5.5,12.1-7.4,17.1"/>
<path class="st1" d="M208,83.7l-14.1-12.1c2.1-4,4.5-7.9,7.1-11.6l16.3,8.1c-2.6,3.7-6,7.8-8.2,11.8"/>
<path class="st1" d="M214.3,74.8L201,60c2.4-3.5,5-6.8,7.8-10l21.2,5.5c-2.8,3.2-10.9,9.8-13.3,13.3"/>
<path class="st1" d="M222.9,57.8l-14.1-7.7c2.8-3.1,5.7-6.1,8.8-8.9l19.8,8.3C234.3,52.3,225.7,54.7,222.9,57.8"/>
<path class="st1" d="M229.8,53.6l-12.2-12.4c3.3-3,6.8-5.7,10.5-8.3l14.1,7.7c-3.7,2.5-4.9,9.5-8.3,12.5"/>
<path class="st1" d="M234.6,48.9l-6.5-16c4.4-3.1,9.1-5.8,13.9-8.1l36.1,1.7c-4.9,2.3-34,16.4-38.4,19.5"/>
<path class="st1" d="M256.1,32.5L242,24.8c7.6-3.6,15.7-6.1,24-7.4l14.1,7.7C271.8,26.4,263.7,28.9,256.1,32.5"/>
<path class="st4" d="M411.4,227.7c0-0.9,0.1-1.9-0.2-2.8c-0.3-0.9-0.8-1.8-1.5-2.5l0,0l-46-43.5l0,0c-0.6-0.5-1.3-0.9-2-1.1
	c-0.7-0.2-1.5-0.2-2.2-0.1c-0.3,0-0.6,0.1-0.9,0.2l0,0L355,179l0,0l-10.9,13.3l0,0l-0.6,4l0,0c-0.2,1-0.1,1.9,0.2,2.9
	c0.3,0.9,0.8,1.8,1.5,2.5l0,0l46,43.3c0.6,0.5,1.2,0.9,2,1.2c0.7,0.2,1.5,0.3,2.3,0.2C402.7,245.4,411.6,232.8,411.4,227.7z
	 M278.6,200.5c42.4-6.4,77.1-49,77.6-95s-33.4-77.9-75.4-71.9h-0.7l0,0c-42.4,6.5-77,49-77.4,95c-0.3,14.9,3.6,29.6,11.3,42.4
	c0.5,1,0.7,2.2,0.5,3.3c-0.2,1.1-0.8,2.1-1.7,2.8l0,0c-0.6,0.5-1.3,0.8-2.1,0.9l0,0c-0.6,0.1-1.3,0.1-1.8-0.2
	c-0.6-0.3-1.1-0.7-1.4-1.3l0,0c-8.4-14-12.7-30.1-12.4-46.5l0,0c0.4-50.9,38.5-97.7,85.2-104.7h0.9c46.2-6.7,83.2,28.6,82.8,78.9
	c-0.3,20.7-6.5,40.8-17.7,58.2v0.1l0.1,0.1l8.5,8h0.1l3.1-0.9l0,0c0.7-0.2,1.4-0.4,2.1-0.5l0,0c1.7-0.2,3.5-0.1,5.2,0.4
	s3.2,1.4,4.5,2.6l0,0l45.8,43.4l0,0c1.6,1.6,2.8,3.5,3.4,5.7c0.7,2.1,0.8,4.4,0.4,6.6l0,0l-0.2,1.8l0,0c-0.5,3.4-1.8,6.6-4,9.3l0,0
	l-7.8,9.1l-0.3,0.4c-2,2.6-4.8,4.4-7.9,5.4l0,0l-1.6,0.5l0,0c-0.7,0.2-1.4,0.3-2.1,0.4l0,0c-1.7,0.3-3.5,0.2-5.1-0.4
	c-1.7-0.5-3.2-1.4-4.5-2.6l0,0l-45.9-43.4l0,0c-1.6-1.6-2.7-3.6-3.4-5.7c-0.7-2.1-0.8-4.4-0.4-6.6l0,0l0.5-3.3v-0.1l0,0l-8.8-8.3
	l-0.1-0.1l-0.1,0.1c-13.5,12.7-31.2,21.2-49.4,24.3l0,0c-16,2.5-32.3-0.5-46.4-8.6c-0.9-0.6-1.5-1.6-1.6-2.7
	c-0.2-1.1,0.1-2.2,0.7-3.1l0,0c0.3-0.6,0.8-1.1,1.4-1.5s1.2-0.7,1.9-0.8c0.7-0.1,1.5,0,2.1,0.4l0,0
	C248.6,199.9,264.1,202.7,278.6,200.5 M335.5,180.2L335.5,180.2v0.1l4.9,4.6l0.1,0.1l0.1-0.1l7.1-8.7l0.1-0.1l-0.1-0.1l-4.8-4.4
	l-0.1-0.1l-0.1,0.1L335.5,180.2L335.5,180.2z"/>
<path class="st0" d="M246.3,176.3l-14.1-7.7l1.8,0.9l14.1,7.7L246.3,176.3"/>
<path class="st0" d="M240.7,178.6l-6.8-9.1c3,1.5,8.7,3.3,11.9,4.1l14.1,7.7C256.8,180.5,243.5,181,240.7,178.6z"/>
<path class="st0" d="M249.6,183.4l-6.2-10.4c6.8,1.7,13.8,2.1,20.7,1.1c6.1-0.9,12-2.6,17.6-5.3l29.2,3.1
	c-5.6,2.6-25.1,16-31.2,16.9c-6.9,1-15.6-2.1-22.4-3.8"/>
<path class="st0" d="M295.8,176.5l-14.1-7.7c3.4-1.6,6.6-3.5,9.6-5.6l14.1,7.7C302.4,173,299.1,174.9,295.8,176.5"/>
<path class="st0" d="M300.1,180.7l-8.8-17.5c2.5-1.8,4.9-3.7,7.2-5.7l34.7-8.3c-2.3,2.1-25.3,20-27.8,21.8"/>
<path class="st0" d="M312.7,165.2l-14.1-7.7c2.2-1.9,4.2-4,6.2-6.2l20.8,0.1C323.6,153.5,314.8,163.2,312.7,165.2"/>
<path class="st0" d="M318.8,159l-14.1-7.7l1.8-2.1c1.2-1.5,2.4-3.1,3.6-4.7l14.1,7.7c-1.1,1.6-2.3,3.1-3.6,4.7L318.8,159z"/>
<path class="st0" d="M319.1,160.4l-9.1-16c1.8-2.5,3.4-5.2,4.9-7.9l20.6,0.7c-1.5,2.7-9.6,12.4-11.4,14.9"/>
<path class="st0" d="M329,144.2l-14.1-7.7c1.7-3.3,3.6-7.4,4.8-10.9l14,8.5c-1.3,3.5-2.8,6.8-4.5,10.1"/>
<path class="st0" d="M333.7,134.1l-7.8-2.3l-6.5-5.5c3-8.1,4.8-16.7,4.8-25.4c0.2-13-3.7-25.7-11.3-36.3c-0.4-0.6-0.7-1.3-0.8-2.1
	c-0.1-0.7-0.2-2.3,0.8-3.3l13.6,8.8c-0.3,0.7-0.4,1.4-0.4,2.1s0.3,1.4,0.7,2.1c7.6,10.6,11.5,23.3,11.3,36.3
	C338.2,117.3,336.7,126,333.7,134.1L333.7,134.1z"/>
<path class="st0" d="M326.4,68.1l-14.1-7.7c0.1-0.2,0.2-0.5,0.3-0.7l14.1,7.7C326.6,67.6,326.5,67.9,326.4,68.1z M326.8,67.4
	l-14.1-7.7l0.3-0.6l14.1,7.7C327,67.1,326.9,67.2,326.8,67.4"/>
<path class="st0" d="M327.1,66.9L313,59.2c0.1-0.2,0.2-0.3,0.4-0.5l14.2,7.7L327.1,66.9"/>
<path class="st0" d="M327.5,66.4l-14.1-7.7l0.4-0.4l14.1,7.8L327.5,66.4"/>
<path class="st0" d="M327.9,66.1l-14.1-7.7l0.5-0.4l14.1,7.7L327.9,66.1z"/>
<path class="st0" d="M325.9,72.2l-11.6-14.3c0.2-0.1,0.4-0.3,0.7-0.4l16.9,8.7L325.9,72.2L325.9,72.2z"/>
<path class="st0" d="M328.4,67.7L315,57.5c0.4-0.2,0.8-0.3,1.2-0.4c0.5-0.1,1-0.1,1.4,0l14.8,8.1c-0.5-0.1-1,0.4-1.5,0.5
	S328.7,67.6,328.4,67.7z"/>
<path class="st0" d="M331.7,64.9l-14.1-7.7c0.2,0,0.4,0.1,0.6,0.2l14.1,7.7C332.1,65,331.9,65,331.7,64.9z M332.3,65.1l-14.1-7.7
	L332.3,65.1"/>
<path class="st5" d="M278.5,43.6L278.5,43.6c-37.6,5.3-68,42.6-68.1,83.1c-0.1,40.6,30.5,69.1,68,63.8c37.5-5.3,68-42.5,68-83.1l0,0
	c0.3-14.8-4.2-29.2-12.8-41.2c-0.4-0.5-0.9-0.8-1.5-1c-0.6-0.2-1.2-0.2-1.8-0.1l0,0c-0.9,0.1-1.7,0.6-2.4,1.2l0,0
	c-0.8,0.7-1.4,1.8-1.6,2.9s0,2.2,0.6,3.2c7.6,10.6,11.5,23.4,11.3,36.4l0,0c0,0,0,24.1-17.6,48.3c0,0-17.2,21.8-42.3,25.9
	s-48-13.9-53.1-28.2c-5.1-14.4-9.6-17-4.4-47.7s33.6-45.6,33.6-45.6s16.3-10.9,35.2-9.5c14.6,1.1,21.2,5.4,23.4,7.4
	c1,0.8,2.2,1.4,3.5,1.5c2.4,0.2,5.9-1.9,4.3-5.6C320.9,55.1,312.1,39.8,278.5,43.6L278.5,43.6z"/>
<path class="st3" d="M291.2,143.7l-4-2.1c0.3,0,0.5-0.1,0.8-0.2l4,2.1C291.7,143.5,291.5,143.6,291.2,143.7"/>
<path class="st3" d="M292,143.4l-4.1-1.5c0.1-0.1,0.8-0.8,0.9-0.8l3.6,2.1C292.2,143.3,292.1,143.4,292,143.4"/>
<path class="st3" d="M292.4,143.2l-4.7-1.7c1-0.4,1.4-0.5,1.5-0.6l3.5,2C292.6,143.1,292.5,143.1,292.4,143.2z"/>
<path class="st3" d="M289.4,145.6l-2.1-4.1c2-0.3,2.2-2.1,2.3-2.2l4.5,3.7c-0.1,0.1-3.1,2.1-3.2,2.2"/>
<path class="st3" d="M293,142.7l-4-2.1c0.1-0.1,0.2-0.2,0.2-0.3l4,2.1C293.1,142.5,293.1,142.6,293,142.7"/>
<path class="st3" d="M293.2,142.4l-4-2.1c0.1-0.1,0.1-0.2,0.2-0.3l4,2.1C293.3,142.2,293.3,142.3,293.2,142.4z"/>
<path class="st3" d="M293.4,142.1l-4-2.1c0.1-0.1,0.1-0.3,0.2-0.4l4,2.1C293.6,141.8,293.5,142,293.4,142.1"/>
<path class="st3" d="M293.8,142.9l-4.6-2.5c0.7-0.8,0.7-6.7,0.7-7.1l4.5,6.9C294.5,140.6,294,142.5,293.8,142.9z M286,145.3
	l-2.3-3.3l3.6-0.5l6,2.2C293.3,143.7,286,145.3,286,145.3z"/>
<path class="st3" d="M286.3,143.9l-4-2.1h0.1L286.3,143.9z"/>
<path class="st3" d="M286.3,144l-4-2.1c0.1,0.1,0.3,0.1,0.4,0.1l4,2.1C286.6,144.1,286.5,144.1,286.3,144"/>
<path class="st3" d="M286.7,144.1l-4-2.1c0.3,0.1,0.6,0.1,0.9,0.1l4,2.1C287.3,144.2,287,144.2,286.7,144.1 M294.7,141.3l-4.8-2.9
	l-0.1-19.9l4.6,2.4L294.7,141.3z M284.6,147l-3.9-2.1c-0.8-0.5-1.5-1.2-2-2s-0.7-1.8-0.6-2.8l4,2.1c0,1,0.5,1.7,0.9,2.5
	C283.4,145.6,283.8,146.5,284.6,147"/>
<path class="st3" d="M293.8,120.8l-4-2.1c0-0.2,0-0.4,0.1-0.7l4.5,1.7C294.5,119.9,293.8,120.5,293.8,120.8"/>
<path class="st3" d="M294,120.1l-4-2.1c0-0.1,0.1-0.2,0.1-0.3l5,1.2C295.1,118.9,294,120,294,120.1"/>
<path class="st3" d="M294.2,119.6l-3.9-2.1c0-0.1,0.1-0.1,0.1-0.2l4,2.1L294.2,119.6"/>
<path class="st3" d="M294.3,119.5l-4-2.1c0-0.1,0.1-0.1,0.2-0.2l4,2.1C294.4,119.3,294.4,119.4,294.3,119.5z"/>
<path class="st3" d="M289.9,118.1c0.1-0.5,0.6-0.9,0.6-0.9c0.1-0.1,0.3-0.4,0.8-0.4l4.9,2.2l-1.1,1"/>
<path class="st3" d="M294.7,119.2l-3.9-2.2l0.3-0.1l3.9,2.1L294.7,119.2"/>
<path class="st3" d="M293.8,122.4l-2.8-5.5c0.1-0.1,0.3-0.1,0.5-0.1h0.5l4.3,2.3c-0.1,0,0.1,0.2,0,0.2h-0.9
	C295.3,119.3,294,122.3,293.8,122.4z"/>
<path class="st3" d="M295.3,119.2l-3.3-2.4c0.1,0,0.2,0.1,0.2,0.1l4.2,2.3C296.3,119.1,295.4,119.2,295.3,119.2z M296.5,119.2
	l-4.3-2.3L296.5,119.2z M294.4,116.3l-3.8-2.2c-0.2-0.1-0.4-0.3-0.5-0.6c-0.1-0.2-0.2-0.5-0.2-0.8l4.5,2.2c0,0.3,0.2,0.3,0.4,0.5
	c0.1,0.2-0.1,0.6,0.2,0.7 M269.5,148.1l-2-3.7c2-0.3,3.6-0.9,4.5-2.3l1.7,3.9C273.4,146.1,269.8,148.1,269.5,148.1z"/>
<path class="st3" d="M273.7,146l-3.9-2.1c0.1-0.1,0.3-0.2,0.4-0.2l3.9,2.1C274,145.9,273.8,146,273.7,146"/>
<path class="st3" d="M274.1,145.8l-4-2.1c0.1-0.1,0.2-0.1,0.3-0.2l4,2.1C274.3,145.7,274.2,145.7,274.1,145.8"/>
<path class="st3" d="M274,146l-3.5-2.4l0.6-0.4l5.3,0.4c-0.1,0.1-2,1.9-2.1,2"/>
<path class="st3" d="M274.7,145.3l-4.3-1.7c0.4-0.4,0.5-0.6,0.6-0.8l4,2.1C274.8,145.1,274.8,145.2,274.7,145.3z"/>
<path class="st3" d="M274.9,145l-4-1.7c0.1-0.1,0.5-0.6,0.6-0.7l3.7,2.2C275.1,144.7,275,144.9,274.9,145"/>
<path class="st3" d="M275.1,144.6l-4.2-1.6c0.1-0.1,0.3-1,0.4-1.1l3.9,2.3C275.3,144.3,275.2,144.5,275.1,144.6"/>
<path class="st3" d="M270.6,147.2l0.7-5.2c0.1-0.3,0.2-0.7,0.2-1.1l4.8,0.7c0,0.4-0.6,5.1-0.7,5.5"/>
<path class="st3" d="M268.5,146.9l-4-2.1l4.4-0.6l6.2,2.3L268.5,146.9L268.5,146.9z M267.6,146.7l-4-2.1h0.1L267.6,146.7z"/>
<path class="st3" d="M267.6,146.7l-4-2.1c0.1,0,0.2,0.1,0.3,0.1l4,2.1C267.8,146.8,267.7,146.8,267.6,146.7"/>
<path class="st3" d="M267.4,147.1l-3.4-2.4h0.6l10,1.5c-0.2,0-6.1,1.3-6.3,1.2 M293.9,115l-4-2.2V89.3l4,2.1l0.6,23.5L293.9,115z
	 M265.9,149.7l-4-2.1c-0.7-0.4-1.3-1-1.7-1.7c-0.4-0.7-0.6-1.5-0.6-2.4c0-0.2,0-0.4,0.1-0.7l4.2,2.1c-0.1,0.2,0,0.5,0,0.7
	c0,0.8,0,1.6,0.4,2.3C264.8,148.7,265.2,149.3,265.9,149.7"/>
<path class="st3" d="M263.7,146.4l-4-2.8c0-0.9,0.4-1.2,0.5-1.2l5.4,1.8C265.6,144.2,263.7,146.3,263.7,146.4z"/>
<path class="st3" d="M263.9,144.7l-4-2.2l0.1-0.2l4,2.1C264,144.6,264,144.6,263.9,144.7"/>
<path class="st3" d="M264,144.5l-4-2.1c0-0.1,0.1-0.1,0.1-0.2l4,2.1C264.1,144.4,264.1,144.5,264,144.5"/>
<path class="st3" d="M264.2,144.4l-4-2.1l0.2-0.2l4,2.1C264.3,144.2,264.2,144.3,264.2,144.4"/>
<path class="st3" d="M264.3,144.2l-4.7-1.1c0.1-0.8,1.1-1.5,1.6-1.5l3.3,2.4L264.3,144.2"/>
<path class="st3" d="M264.6,144l-3.9-2.1c0.1-0.1,0.2-0.1,0.2-0.1l4,2.1C264.7,143.9,264.6,144,264.6,144"/>
<path class="st3" d="M264.9,144.1l-4.1-2.3c0.1-0.1,0.3-0.1,0.5-0.1h0.5l4.2,2.3h-0.7C265.1,143.9,265.1,144,264.9,144.1z
	 M294.3,91.9l-4.3-2.6c0-0.4-0.1-0.9-0.3-1.3c-0.2-0.4-0.5-0.7-0.9-0.9l4.4,1.8c0.4,0.2,0.7,0.5,0.9,0.9
	C294.2,90.2,294.3,91.5,294.3,91.9z"/>
<path class="st3" d="M264.4,143.4l-4-2.1c-0.2-0.1-0.4-0.3-0.5-0.6c-0.1-0.2-0.2-0.5-0.2-0.8l4,2.1c0,0.3,0,0.5,0.2,0.8
	C264,143.1,264.2,143.3,264.4,143.4z M291.3,85.7l-4-2.1c0.7-0.1,2,0.1,2.7,0.3l3.3,1.9C292.6,85.7,292,85.6,291.3,85.7"/>
<path class="st3" d="M293.3,85.8l-4.1-2.1c0.3,0.1,0.7,0.2,1,0.3l4,2.1L293.3,85.8"/>
<path class="st3" d="M291.4,87l-1.7-3.2l0.8,0.3l3.8,2.4c-0.1,0,0.6,0.5,0.6,0.4 M275.5,143.1l-4-2.1l0.1-31.7l4.5,1.6L275.5,143.1z
	"/>
<path class="st3" d="M286.9,88l-3.1-3.9l3.6-0.5l6.2,2.6L286.9,88z M275.6,111.4l-4-2.1c0-0.4-0.1-0.9-0.3-1.3
	c-0.2-0.4-0.5-0.7-0.9-0.9l3.9,2.1c0.4,0.2,1.6,0.2,1.8,0.6C276.3,110.3,275.6,111,275.6,111.4z M284.4,146.5L278,140l0.1-49.1
	l5.6,0.3C283.7,91.2,284.4,146.5,284.4,146.5z"/>
<path class="st3" d="M282.1,93.2l-3.9-2.1c0-0.8,0.2-1.6,0.4-2.4l5.5,0.7C283.7,90.1,282.1,92.4,282.1,93.2z"/>
<path class="st3" d="M282.5,90.7l-4-2.1c0.1-0.3,0.3-0.6,0.4-1l4,2.1C282.8,90.1,282.6,90.4,282.5,90.7"/>
<path class="st3" d="M282.9,89.8l-4-2.1c0.1-0.3,0.3-0.5,0.5-0.7l4,2.1C283.2,89.3,283.1,89.5,282.9,89.8"/>
<path class="st3" d="M283.4,89.1l-4-2.1c0.2-0.2,0.3-0.4,0.5-0.6l4,2.1C283.7,88.6,283.5,88.8,283.4,89.1 M283.9,88.4l-4-2.2
	l0.6-0.6l4,2.2L283.9,88.4"/>
<path class="st3" d="M284.5,87.8l-4-2.1c0.2-0.2,0.4-0.4,0.7-0.5l4,2.1C285,87.4,284.7,87.6,284.5,87.8"/>
<path class="st3" d="M285.2,87.3l-4-2.1c0.3-0.2,0.6-0.4,0.9-0.5l3.9,2.1C285.8,86.9,285.5,87.1,285.2,87.3"/>
<path class="st3" d="M281.9,89.7l0.3-5.1c0.5-0.2,1.1-0.4,1.7-0.5l3.9,2.1c-0.6,0.1-2.1,2.3-2.7,2.5"/>
<path class="st6" d="M291.4,85.8l-3.6,0.5c-2,0.4-3.1,1-4.1,2.1c-1,1.2-1.5,2.8-1.5,4.4v0.4l-0.1,49.1c0,3.3,2.5,5.7,5.6,5.3
	l3.6-0.5c3-0.5,5.6-3.5,5.6-6.9v-19.8c0-0.2,0-0.4-0.1-0.6c-0.1-0.2-0.2-0.3-0.3-0.5c-0.1-0.1-0.3-0.2-0.5-0.3
	c-0.2-0.1-0.4-0.1-0.6-0.1c-0.4,0.1-0.8,0.3-1.1,0.6c-0.3,0.3-0.4,0.8-0.4,1.2l-0.1,19.8c0,0.7-0.3,1.5-0.7,2
	c-0.4,0.5-1.1,1.4-5.3,1.5c-1.4,0-2.6-1.1-2.6-2.5l0.4-48c0-1.6,1.1-2.9,2.7-3.2l3.9-0.7c0.8-0.1,1.5,0.4,1.5,1.2l0.1,24.9
	c0,0,0.5,1,1.7,0.6c1.2-0.4,1.3-0.9,1.5-1.3c0.2-0.4,0-9.4,0-9.4V90.7C297.1,90.8,297.4,85.3,291.4,85.8"/>
<path class="st3" d="M273,105.7l-4.7-2c1.6-0.4,2.2-0.2,2.8,0l3.9,2.1C274.3,105.6,273.7,105.6,273,105.7"/>
<path class="st3" d="M271.2,106.6l-0.8-3.1c0.3,0.1,1.2,0.3,1.5,0.4l4.6,2.6c-0.3-0.1-3.3-0.4-3.6-0.5"/>
<path class="st3" d="M275.8,106.1l-4-2.1l0.2,0.1l4,2.1L275.8,106.1 M291.5,71.8l-4-2.1c-0.2-0.1-0.4-0.3-0.5-0.6l4.2,1.8
	C291.2,71.2,291.2,71.7,291.5,71.8 M269.4,106.2l-4-2.1l3.6-0.5l3.9,2.1L269.4,106.2z"/>
<path class="st0" d="M291.1,65l-4-2.1c0.1,0,0.2,0.1,0.3,0.1l4,2.1C291.3,65.1,291.2,65.1,291.1,65"/>
<path class="st3" d="M263.7,142.1l-4-2l0.1-29.1l4.8-1.2L263.7,142.1z"/>
<path class="st0" d="M289.7,65.4l-4-2.1l0.1-0.1L289.7,65.4 M289.8,65.3l-4-2.1c0.1,0,0.2-0.1,0.2-0.1l4,2.1
	C290,65.2,289.9,65.2,289.8,65.3 M290.1,65.2l-4-2.1l0.2-0.1l4,2.1L290.1,65.2"/>
<path class="st3" d="M263.7,113.1l-3.9-1.8c0-0.8,0.2-2.1,0.6-3l3.7,2.3C263.9,111.5,263.7,112.3,263.7,113.1"/>
<path class="st3" d="M262.9,114l-2.6-5.6c0.1-0.5,0.2-0.7,0.4-1l4,2.1c-0.2,0.3-0.3,0.6-0.4,1"/>
<path class="st3" d="M264.6,109.7l-3.9-2c0.1-0.3,0.4-0.7,0.6-1l3.9,2.2C264.9,109.2,264.8,109.5,264.6,109.7"/>
<path class="st3" d="M265.1,109l-4-2.1c0.2-0.2,0.3-0.4,0.5-0.6l4,2.1C265.4,108.5,265.2,108.8,265.1,109 M265.6,108.3l-4-2.2
	l0.7-0.7l3.9,2.1C266,107.9,265.8,108.1,265.6,108.3"/>
<path class="st3" d="M264.2,111.9l-3.3-4.7c0.9-1.6,1.8-2,2.1-2.2l8.8,1.1C271.5,106.3,264.5,111.7,264.2,111.9z"/>
<path class="st3" d="M266.8,107.2l-4-2.1c0.3-0.2,1.4-0.6,1.7-0.7l5,1.9C269.3,106.4,267.1,107,266.8,107.2"/>
<path class="st3" d="M267.9,106.7l-4-2.1c0.5-0.2,1.1-0.4,1.6-0.5l5.7,1.9C270.7,106.1,268.4,106.4,267.9,106.7"/>
<path class="st6" d="M273,105.7c3.1-0.4,5.6,1.9,5.6,5.3l-0.1,31.7c0,3.3-2.5,6.4-5.6,6.9l-4.4,0.6c-2.6,0.4-4.8-1.6-4.8-4.5
	c0-0.4,0.1-0.9,0.4-1.2c0.3-0.3,0.7-0.6,1.1-0.6c0.2,0,0.4,0,0.6,0.1c0.2,0.1,0.4,0.2,0.5,0.3c0.1,0.1,0.3,0.3,0.3,0.5
	c0.1,0.2,0.1,0.4,0.1,0.6c0,0.2,0,0.5,0.1,0.7c0.1,0.2,0.2,0.4,0.4,0.6c0.2,0.2,0.4,0.3,0.6,0.4c0.2,0.1,0.5,0.1,0.7,0.1l4.4-0.6
	c0.7-0.1,1.4-0.5,1.9-1.1s0.7-1.3,0.7-2.1l0.1-31.7c0-0.3,0-0.7-0.2-1c-0.1-0.3-0.3-0.6-0.6-0.9c-0.3-0.2-0.6-0.4-0.9-0.5
	s-0.7-0.1-1-0.1l-3.6,0.5c-0.7,0.1-1.4,0.5-1.9,1.1s-0.7,1.3-0.8,2.1v29c0,0.4-0.2,0.9-0.4,1.2c-0.3,0.3-0.7,0.6-1.1,0.6
	c-0.2,0-0.4,0-0.6-0.1c-0.2-0.1-0.4-0.2-0.5-0.3c-0.1-0.1-0.3-0.3-0.3-0.5s-0.1-0.4-0.1-0.6l0.1-29c0-1.6,0.6-3.2,1.6-4.5
	s2.5-2.1,4.1-2.4L273,105.7"/>
<path class="st3" d="M290.7,65.8L286,63c0.4-0.2,0.8-0.3,1.4-0.1l3.7,2.1L290.7,65.8z"/>
<path class="st3" d="M290.4,65l-4-2.1h0.5l4,2.1H290.4"/>
<path class="st3" d="M290.2,65.1l-4-2.1l0.2-0.1l4,2.1L290.2,65.1z"/>
<path class="st3" d="M289.6,65.5l-4-2.2c0.3-0.3,0.4-0.4,0.7-0.3l4.2,2.3C290.5,65.3,289.6,65.5,289.6,65.5z"/>
<path class="st3" d="M286.4,69.8l-4.3-3.1l3.7-3.6l4.6,2.5C290.4,65.6,286.4,69.8,286.4,69.8z M244.9,111l-4-2.1
	c-0.2-0.1-0.4-0.3-0.5-0.5c-0.1-0.2-0.2-0.4-0.2-0.7c0-0.3,0-0.5,0.1-0.8l6.2-0.2c-0.1,0.2-0.9,2.9-0.8,3.2c0,0.2,0,0.2,0.1,0.4
	C246,110.6,244.7,110.9,244.9,111"/>
<path class="st3" d="M244.3,109.1l-4-2.1c0-0.1,0.1-0.2,0.1-0.3l4,2.1C244.4,108.9,244.4,109,244.3,109.1 M244.4,108.8l-4-2.1
	c0-0.1,0.1-0.1,0.1-0.2l4,2.1C244.5,108.7,244.5,108.8,244.4,108.8 M244.6,108.6l-4-2.1c0-0.1,0.1-0.1,0.1-0.2l3.9,2.1V108.6"/>
<path class="st3" d="M244.7,108.5l-3.9-2.1c0-0.1,0.1-0.1,0.2-0.1l4,2.1C244.8,108.4,244.8,108.4,244.7,108.5"/>
<path class="st3" d="M244.3,109.8l-4-2c0.1-0.1,0.1-1.2,0.9-1.7l3.9,2.1C245,108.2,244.3,109.7,244.3,109.8z"/>
<path class="st3" d="M244.2,109.3l-3.9-2.3c0.2-0.7,1-1.2,1.4-1.3l4.7,1.7c-0.1,0-1.3,0.7-1.4,0.7"/>
<path class="st3" d="M245.7,107.9l-4-2.1c0.1-0.1,0.2-0.1,0.3-0.1c4.1-0.9,8.1-2.3,11.9-4.2l4,2.1c-3.8,1.8-7.7,3.7-11.7,4.6
	C246.1,108.3,245.8,107.9,245.7,107.9"/>
<path class="st3" d="M251.3,107.2l2.3-5.6c3.3-1.6,6.6-3.5,9.6-5.5l10,0.2c-3,2.1-12.3,6-15.6,7.5"/>
<path class="st3" d="M267,98.3l-4.2-2c2.2-1.5,4.4-3.2,6.4-5l6,2.7C273.3,95.8,269.9,98.9,267,98.3"/>
<path class="st3" d="M273.4,94.2l-4.2-2.9c1.6-1.4,3.4-3.1,4.8-4.7l8.8-1.3C281.4,86.8,275,92.8,273.4,94.2z"/>
<path class="st3" d="M277.6,89.7l-3.8-2.9c1.3-1.4,2.5-2.9,3.6-4.5l5.1,1.8C281.3,85.6,278.8,88.2,277.6,89.7z"/>
<path class="st3" d="M281.9,84.8l-4.6-2.3c1.1-1.6,2.1-3.5,3.1-5.2l4.7,2.3C284.1,81.3,283,83.2,281.9,84.8z"/>
<path class="st3" d="M284.5,83l-4.1-5.7c1.1-2,2-4.1,2.8-6.2l4.9,2.7c-0.8,2.1-2.8,6.9-3.9,8.9"/>
<path class="st3" d="M286.1,77.8l-2.9-6.7c0.2-0.6,0.4-1.3,0.7-1.9l4.4,1.8C287.9,71.7,286.3,77.2,286.1,77.8z"/>
<path class="st3" d="M286,71.6l-3.9-2.1c-0.2-0.1-0.3-0.2-0.4-0.4c-0.2-0.2-0.3-0.5-0.3-0.8s0.1-0.6,0.2-0.8l6.7,0.2
	c-0.1,0.3-3,2.5-2.9,2.8c0,0.3,0.1,0.5,0.3,0.8C285.7,71.4,285.8,71.5,286,71.6"/>
<path class="st3" d="M285.5,69.6l-3.9-1.9c0-0.1,0.2-0.6,0.2-0.7l6.6,1.3C288.5,68.4,285.5,69.5,285.5,69.6z"/>
<path class="st3" d="M285.6,69.4l-4.1-0.7c-0.2-0.7,0.1-1.4,0.5-1.8l3.7,2.3C285.7,69.2,285.7,69.3,285.6,69.4"/>
<path class="st3" d="M285.8,69.2l-4.2-1.8c0.1-0.2-0.1-0.3,2.2-2.3l2.1,3.9L285.8,69.2"/>
<path class="st6" d="M286.3,71.6c-0.2-0.1-0.4-0.2-0.5-0.4c-0.2-0.4-0.3-0.8-0.3-1.2c0.1-0.4,0.3-0.8,0.6-1.1l3.6-3.4l0.2-0.1
	c0.1-0.1,0.3-0.2,0.5-0.3l0.2-0.1h0.7c0.1,0,0.2,0.1,0.3,0.1l0.1,0.1c0.1,0.1,0.2,0.2,0.3,0.4l0.1,0.2l1.7,3.6
	c0.2,0.4,0.2,0.8,0.1,1.3c-0.1,0.4-0.4,0.8-0.8,1c-0.2,0.1-0.4,0.2-0.7,0.3c-0.3,0-0.5,0-0.8-0.1c-0.2-0.1-0.4-0.3-0.5-0.6l-0.1-0.1
	v0.1c-7.6,25.4-32.3,37.2-45,39.9h-0.6c-0.2,0-0.4-0.1-0.5-0.3c-0.2-0.1-0.3-0.3-0.4-0.4c-0.1-0.2-0.1-0.4-0.1-0.6
	c0-0.4,0.1-0.9,0.4-1.2c0.3-0.4,0.6-0.6,1-0.7c11.8-2.6,34.7-13.4,42.1-36.6l0.1-0.2l-0.1,0.1c-0.2,0.2-0.5,0.3-0.8,0.3
	C286.7,71.7,286.5,71.7,286.3,71.6L286.3,71.6z"/>
<path class="st3" d="M253.6,149l-4-2.1c0.3,0,0.5-0.1,0.7-0.2l4,2.1C254.1,148.8,253.8,148.9,253.6,149"/>
<path class="st3" d="M249.6,146.8l0.8-0.2c0.1-0.1,0.3-0.1,0.4-0.2l4,2.1c-0.1,0.1-0.3,0.2-0.4,0.2"/>
<path class="st3" d="M254.7,148.5l-4-2c0.1-0.1,0.6-0.5,0.7-0.5l3.6,2.3C255,148.3,254.9,148.4,254.7,148.5"/>
<path class="st3" d="M255.1,148.3l-4-2.1l0.3-0.3l3.9,2.1C255.2,148.1,255.1,148.2,255.1,148.3"/>
<path class="st3" d="M255.3,148l-3.9-2.1c0.1-0.1,0.2-0.2,0.2-0.3l4,2.1L255.3,148"/>
<path class="st3" d="M250.9,152l0.7-6.4c0.1-0.1,0.2-0.2,0.2-0.3l5.1,2C256.8,147.4,251,151.9,250.9,152z"/>
<path class="st3" d="M255.8,147.4l-3.9-2.1c0.1-0.1,0.1-0.3,0.2-0.4l4,2.1C255.9,147,255.8,147.2,255.8,147.4"/>
<path class="st3" d="M256.7,147.8l-5.1-2.2c0.4-0.4,0.6-1.6,0.6-1.9l4,2.1c0,0.4,0.9,1.1,0.7,1.4 M250.6,150.9l-4.5-3.6l3.6-0.5
	l4,2.1L250.6,150.9z"/>
<path class="st3" d="M248.6,149.2l-3.9-2.1h0.1L248.6,149.2"/>
<path class="st3" d="M248.2,149.4l-3.4-2.2c0.1,0.1,0.3,0.1,0.4,0.1l3.9,2.1c-0.2,0-0.3-0.1-0.4-0.1"/>
<path class="st3" d="M249.1,149.4l-3.9-2.1c0.3,0.1,0.6,0.1,0.9,0l4,2.2C249.7,149.5,249.4,149.5,249.1,149.4 M247,152.3l-4-2.1
	c-0.8-0.5-1.5-1.2-2-2s-0.7-2.2-0.6-3.2l4,2.5c0,1,0.2,1.9,0.6,2.8C245.4,151.1,246.1,151.8,247,152.3 M256.9,149.7l-4.7-6V119
	l4.6-1.1L256.9,149.7L256.9,149.7z"/>
<path class="st3" d="M256.2,121.1l-4-2.1c0-0.4-0.1-0.9-0.3-1.3c-0.2-0.4-0.5-0.7-0.9-0.9l4,2.1c0.4,0.2,0.7,0.5,0.9,0.9
	S256.2,120.7,256.2,121.1 M251.7,116.4l-2-3.2c0.7-0.1,1.3-0.1,2,0.1l4,2.1c-0.6-0.2-1.3-0.2-2-0.1"/>
<path class="st3" d="M253.1,116.7l-1.5-3.4l0.9,0.3l4.7,2.6c-0.3-0.1-2.7,0.4-3,0.4"/>
<path class="st3" d="M256.5,115.8l-4-2.1l0.2,0.1l4,2.1L256.5,115.8z M245.8,150.5l-5.4-5.2v-20.8l5.5,1.9L245.8,150.5z
	 M249.6,115.8l-4-2.1l4.3-0.6l3.5,2.2L249.6,115.8z"/>
<path class="st3" d="M244.4,126.7l-4-2.1c0-0.2,0-0.4,0.1-0.7l4.9,1C245.3,125.1,244.4,126.5,244.4,126.7"/>
<path class="st3" d="M244.5,126.1l-3.9-2.2c0-0.1,0.1-0.2,0.1-0.3l4,2.1C244.5,125.9,244.5,126,244.5,126.1"/>
<path class="st3" d="M244.6,125.8l-4-2.1c0-0.1,0.1-0.1,0.1-0.2l4,2.1C244.7,125.7,244.6,125.8,244.6,125.8"/>
<path class="st3" d="M240.4,124.6c-0.1-0.7,0.4-1.3,0.4-1.3c0.3-0.3,0.6-0.5,1.1-0.6l4.1,2.3c-0.1,0.1-2.1,3.7-2.2,3.8"/>
<path class="st3" d="M244.9,125.4l-3.9-2l0.2-0.2l3.9,2C245,125.3,244.9,125.3,244.9,125.4"/>
<path class="st3" d="M245,125.2l-3.7-2c0.1-0.1,0.1-0.1,0.2-0.1l3.7,2C245.1,125.2,245.1,125.2,245,125.2"/>
<path class="st3" d="M245.2,125.1l-3.9-2l0.3-0.1l3.9,2L245.2,125.1z M245.5,125l-4-2.1c0.2-0.1,0.3-0.2,0.5-0.2h0.5l4.2,2.3
	c-0.2,0-0.6-0.2-0.8-0.2C245.8,124.9,245.6,124.9,245.5,125z"/>
<path class="st3" d="M245.7,125.4l-3.3-2.6c0.1,0,0.2,0,0.2,0.1l4,2.1c0-0.1-0.1-0.1-0.2-0.1 M245.1,123.8l-4-2.1
	c-0.2-0.1-0.4-0.3-0.5-0.6c-0.1-0.2-0.2-0.5-0.2-0.8c0-0.8,0.1-1.6,0.4-2.3l4,2.1c-0.3,0.7-0.4,1.5-0.4,2.3c0,0.3,0,0.5,0.2,0.8
	C244.7,123.5,244.9,123.7,245.1,123.8"/>
<path class="st3" d="M244.7,121.4l-3.8-3.3c0.1-0.3,0.3-0.6,0.4-0.9l7.1-1.2c-0.2,0.3-3.5,3.9-3.6,4.3"/>
<path class="st3" d="M245.2,119.3l-4.5-1.1c0.1-0.2,0.8-1.4,1-1.7l6.6-0.4C248.1,116.3,245.3,119.1,245.2,119.3"/>
<path class="st3" d="M245.6,118.6l-4-2c0.1-0.2,0.5-0.8,0.7-1l3.7,2.4C246,118.2,245.8,118.4,245.6,118.6"/>
<path class="st3" d="M244,120.1l-1.8-4.3l0.6-0.6l7.4,0.5c-0.2,0.2-3.8,2-4,2.2"/>
<path class="st3" d="M246.7,117.4l-3.9-2.2c0.2-0.2,0.4-0.4,0.7-0.5l7.6,0.8C250.8,115.7,246.9,117.2,246.7,117.4"/>
<path class="st3" d="M247.4,116.9l-4.1-2.1c0.3-0.2,0.8-0.5,1.1-0.6l3.9,2.3C247.9,116.5,247.6,116.7,247.4,116.9"/>
<path class="st3" d="M246.7,118.9l-2.5-4.7c0.5-0.2,1-0.4,1.6-0.5l6.3,2c-0.6,0.1-2.8,1.2-3.3,1.4"/>
<path class="st6" d="M253.6,115.4c3.1-0.4,5.6,1.9,5.6,5.3v24.7c0,3.3-2.5,6.4-5.6,6.9l-3.6,0.5c-3.1,0.4-5.6-1.9-5.6-5.3v-20.8
	c0-0.4,0.1-0.9,0.4-1.2c0.3-0.3,0.7-0.6,1.1-0.6c0.2,0,0.4,0,0.6,0.1s0.4,0.2,0.5,0.3c0.1,0.1,0.3,0.3,0.3,0.5
	c0.1,0.2,0.1,0.4,0.1,0.6v20.8c0,0.3,0,0.7,0.2,1c0.1,0.3,0.3,0.6,0.6,0.9c0.3,0.2,0.6,0.4,0.9,0.5c0.3,0.1,0.7,0.1,1,0.1l3.6-0.5
	c0.7-0.1,1.4-0.5,1.9-1.1s0.7-1.3,0.8-2.1v-24.7c0-0.3,0-0.7-0.2-1c-0.1-0.3-0.3-0.6-0.6-0.9c-0.3-0.2-0.6-0.4-0.9-0.5
	c-0.3-0.1-0.7-0.1-1-0.1l-3.9,0.5c-0.7,0.1-1.3,0.5-1.7,1s-0.7,1.2-0.7,1.9c0,0.4-0.1,0.9-0.4,1.2c-0.3,0.3-0.7,0.6-1.1,0.6h-0.6
	c-0.2-0.1-0.4-0.2-0.5-0.3c-0.1-0.1-0.3-0.3-0.3-0.5c-0.1-0.2-0.1-0.4-0.1-0.6c0-1.5,0.5-3.1,1.5-4.3c1-1.2,2.4-2,3.9-2.3
	L253.6,115.4L253.6,115.4z"/>
</svg>
