<?xml version="1.0" encoding="utf-8"?>
<!-- Generator: Adobe Illustrator 24.0.0, SVG Export Plug-In . SVG Version: 6.00 Build 0)  -->
<svg version="1.1" id="Слой_1" xmlns="http://www.w3.org/2000/svg" xmlns:xlink="http://www.w3.org/1999/xlink" x="0px" y="0px"
	 viewBox="0 0 250 250" style="enable-background:new 0 0 250 250;" xml:space="preserve">
<style type="text/css">
	.st0{clip-path:url(#SVGID_2_);}
	.st1{fill:#9A384B;}
	.st2{fill:#40689D;}
	.st3{fill:#E87891;stroke:#000000;stroke-width:0.2;}
	.st4{fill:#B4D1FA;stroke:#000000;stroke-width:0.2;}
</style>
<g>
	<g>
		<defs>
			<rect id="SVGID_1_" x="-0.2" width="250" height="250"/>
		</defs>
		<clipPath id="SVGID_2_">
			<use xlink:href="#SVGID_1_"  style="overflow:visible;"/>
		</clipPath>
		<g class="st0">
			<path class="st1" d="M201.6,159l-11.5-6.2l0.3,0.2l11.5,6.2L201.6,159 M202,159.2l-11.5-6.2c0.5,0.3,1.1,0.5,1.7,0.6l11.5,6.2
				C203,159.6,202.5,159.4,202,159.2"/>
			<path class="st1" d="M203.6,159.8l-11.5-6.2c1.1,0.3,2.3,0.3,3.5,0.2c1-0.1,2.1-0.4,3-0.9l11.5,6.2c-1,0.4-2,0.7-3,0.9
				C206,160.1,204.8,160.1,203.6,159.8z"/>
			<path class="st1" d="M203.1,160.4l-4.5-7.6c0.6-0.3,2.2-1.4,2.7-1.7l10.5,7c-0.5,0.4-1.1,0.7-1.7,1"/>
			<path class="st1" d="M208.9,161.1l-8.5-9.3c0.5-0.3,0.9-0.6,1.3-1l11.5,6.2c-0.4,0.4,0.5,2.5,0,2.8"/>
			<path class="st1" d="M213.4,158.6l-12-7.5l1.5-1.5l14.5,5.5C217,155.5,213.8,158.2,213.4,158.6z"/>
			<path class="st1" d="M214.2,155.9l-11.5-6.2l11.7,6.1 M214.4,155.8l-11.5-6.2l0.3-0.4l11.5,6.2L214.4,155.8"/>
			<path class="st1" d="M200.6,152.7l2.6-3.5c0.1-0.1,0.3-0.2,0.4-0.3l11.5,6.2c-0.2,0.1-0.3,0.2-0.4,0.3"/>
			<path class="st1" d="M215.1,155.1l-11.5-6.2l0.6-0.3l11.5,6.2L215.1,155.1z"/>
			<path class="st1" d="M200.7,151.8l3.4-3.2c0.3-0.1,0.6-0.2,1-0.3s0.8-0.1,1.2,0l11.5,6.3c-0.4-0.1-0.6,0.4-1,0.5
				C216.5,155.2,201.1,151.6,200.7,151.8L200.7,151.8z"/>
			<path class="st1" d="M217.8,154.6l-11.5-6.2c0.2,0,0.4,0.1,0.5,0.2l11.5,6.2C218.2,154.7,218,154.6,217.8,154.6 M218.4,154.8
				l-11.6-6.2L218.4,154.8 M219.7,149.4l-11.5-6.2c-0.6-0.3-1-0.8-1.3-1.4c-0.3-0.6-0.5-1.2-0.4-1.9c0.1-2-0.3-3.9-1.3-5.7
				c-0.9-1.7-2.3-3.2-4-4.2l11.5,6.2c1.7,1,3.1,2.5,4,4.2s1.4,3.7,1.3,5.7c0,0.7,0.1,1.3,0.4,1.9S219.2,149,219.7,149.4
				 M206.4,128.1l-11.5-7c2-0.5,4.8-0.5,6.7,0l11.5,6.3c-1.9-0.5-3.9-0.6-5.9-0.3"/>
			<path class="st1" d="M213.1,127.5l-11.5-6.2c0.9,0.2,1.8,0.6,2.7,1l11.5,6.2C215,128,214,127.7,213.1,127.5 M215.9,128.4
				l-11.6-6.2l0.5,0.3l11.5,6.2L215.9,128.4"/>
			<path class="st2" d="M181.1,202.1l-11.5-6.2c-0.7-0.4-1.3-1.1-1.5-1.9c-0.4-1.6-0.3-1.7,1.5-5.5l11.3,9.2
				c-0.3,0.8-0.8,1.7-0.5,2.5C180.6,200.9,180.4,201.7,181.1,202.1z"/>
			<path class="st2" d="M179.9,198.1l-11.7-6.7l0.3-0.6c0.3-0.6,0.5-1.1,0.8-1.7c5.8,1.2,8.8,3,12.2,6.4c-0.2,0.6-0.6,1.5-0.8,2.1
				l-0.2,0.4"/>
			<path class="st2" d="M180.7,195.4l-11.5-6.2c0.5-1.4,0.8-2.9,0.8-4.3c0.1-1.8-0.4-3.6-1.3-5.2s-2.2-2.9-3.8-3.8l13.7,4
				c1.6,0.9,3.6,2.8,4.5,4.4c0.9,1.6,1,5.9,1,7.8c0,1.5-2.2,2.2-2.7,3.6 M163.6,203.3l-11.5-6.2l0.4,0.2l11.5,6.2L163.6,203.3
				 M163.9,203.4l-11.5-6.2c0.6,0.3,1.2,0.5,1.9,0.7l11.5,6.2C165.2,204,164.6,203.7,163.9,203.4"/>
			<path class="st2" d="M159.8,205.8l-5.4-7.9c1.4,0.3,2.8,0.4,4.2,0.2c0.5-0.1,0.9-0.1,1.4,0l11.6,6.3c-0.5-0.1-0.9-0.1-1.4,0
				c-1.4,0.2-2.8,0.1-4.2-0.2"/>
			<path class="st2" d="M169.5,205.8l-9.6-7.6c0.2,0,0.4,0.1,0.6,0.2l9.8,5.1C170.1,203.4,169.7,205.8,169.5,205.8"/>
			<path class="st2" d="M171.7,205.2l-11.2-6.8h0.1L171.7,205.2L171.7,205.2z"/>
			<path class="st1" d="M197.9,166.6l-11.5-6.2c-2.8-1.7-5.1-4.1-6.6-7s-2.3-6.1-2.1-9.4c0-2.9,0.5-5.8,1.5-8.5l14.2,2
				c-1,2.7-3.6,8.3-3.6,11.2c-0.2,3.3,0,7.6,1.5,10.5s4.2,5.3,7,7"/>
			<path class="st1" d="M190.7,141.6l-11.5-6.2c0.4-1.1,0.9-2.2,1.5-3.2l11.5,6.2C191.6,139.4,191.1,140.5,190.7,141.6"/>
			<path class="st1" d="M179.2,135.8l1.5-3.6c0.5-0.9,1-1.7,1.6-2.5l15.4,2.6c-0.6,0.8-4.9,5.3-5.4,6.1"/>
			<path class="st1" d="M193.8,135.9l-11.5-6.2c0.5-0.7,1.1-1.4,1.7-2.1l11.5,6.2C194.8,134.4,194.3,135.1,193.8,135.9"/>
			<path class="st1" d="M195.4,134.1l-11.5-6.6c0.6-0.7,1.2-1.4,1.9-2l11.5,6.2c-0.7,0.6-0.8,1.6-1.4,2.3"/>
			<path class="st1" d="M197.3,131.9l-15.4-1.8c4.3-5.6,5.3-5.6,6-6.2l17.3,4.1C204.5,128.6,198,131.3,197.3,131.9L197.3,131.9z"/>
			<path class="st1" d="M199.4,130.2l-15.8-2.2c3.6-4.5,6.1-5.2,7.1-5.6l11.5,6.2C201.2,129.1,200.3,129.6,199.4,130.2"/>
			<path class="st1" d="M201.4,130.1l-10.6-7.7c1.6-0.7,3.3-1.2,5-1.5l11.5,6.2c-1.7,0.2-3.4,0.7-5,1.5"/>
			<path class="st3" d="M207.2,127.2c9.8-1.4,17.8,6.6,17.8,17.9c0,1-0.3,2.1-1,2.9c-0.6,0.8-1.6,1.4-2.6,1.6c-0.5,0-0.9,0-1.4-0.2
				c-0.4-0.2-0.8-0.4-1.2-0.8c-0.3-0.3-0.6-0.7-0.7-1.2c-0.2-0.4-0.2-0.9-0.2-1.4c0-6.9-4.9-11.8-10.9-10.9
				c-6,0.8-10.9,7.1-10.9,13.9c0,6.8,4.9,11.8,10.9,10.9c2.9-0.4,5.5-1.9,7.3-4.1c0.6-0.7,1.4-1.2,2.3-1.3c0.5-0.1,1,0,1.4,0.2
				c0.5,0.2,0.9,0.5,1.2,0.8c0.6,0.8,0.9,1.9,0.9,2.9c-0.1,1-0.5,2-1.2,2.8c-3,3.6-7.2,6-11.8,6.8c-10,1.4-18-6.6-18-18
				C189.3,138.7,197.3,128.6,207.2,127.2L207.2,127.2z"/>
			<path class="st2" d="M170.1,173.4l-11.5-6.2c2.3-0.3,4.7-0.2,7,0.4l11.5,6.2C174.8,173.1,172.4,173,170.1,173.4"/>
			<path class="st2" d="M166.6,177.6l-1-10.1c1.1,0.3,2.1,0.7,3.1,1.1l11.5,6.2c-1-0.5-2-0.9-3.1-1.1"/>
			<path class="st2" d="M177.8,171.6l-9.2-2.9l0.6,0.3l11.5,6.4l-0.6-0.3"/>
			<path class="st1" d="M136.8,229.6l-11.5-6.2l0.4,0.2l11.5,6.2L136.8,229.6L136.8,229.6z M137.2,229.7l-11.5-6.2
				c0.6,0.3,1.2,0.6,1.9,0.8c0.7,0.3,1.4,0.5,2.2,0.7l11.5,6.2c-0.7-0.2-1.5-0.4-2.2-0.7C138.4,230.3,137.8,230,137.2,229.7"/>
			<path class="st1" d="M137.3,232.9l-7.6-8c1.2,0.3,2.5,0.6,3.9,0.8c4.5,0.8,9,0.9,13.6,0.4c7.8-1.1,15.4-3.4,22.5-6.8l15.2,5.8
				c-7.1,3.4-16.7,9-24.5,10.1c-4.5,0.5-8.4,1.4-12.9,0.6c-1.4-0.3-5-1.6-6.3-1.9"/>
			<path class="st1" d="M181.3,225.6l-11.5-6.3c4.6-2.1,9-4.7,13.1-7.6l16,3.7C194.7,218.4,185.8,223.5,181.3,225.6"/>
			<path class="st1" d="M194.4,218.1l-11.5-6.3c3.5-2.5,6.9-5.2,10.1-8l14.9,5.3c-3.2,2.9-9,8-12.5,10.5"/>
			<path class="st1" d="M204.5,210l-11.5-6.2c3.1-2.8,6-5.8,8.7-8.9l27.4-8.1C226.4,189.9,207.6,207.2,204.5,210"/>
			<path class="st1" d="M214.9,202.6l-13.1-7.7c2.9-3.2,6.1-7.3,8.6-10.8l12.5,6.5c-2.5,3.5-4.1,8.3-7,11.5"/>
			<path class="st1" d="M214.9,202.6l-4.5-18.5c2.7-3.8,4.7-7.2,6.9-11.3l13.1,5.3c-2.3,4.1-6.3,9.1-9,12.9"/>
			<path class="st1" d="M220.4,193.3l-3.1-20.5c2.6-4.9,4.9-10,6.9-15.3l13.2,5.1c-2,5.3-5.9,11.5-8.6,16.4"/>
			<path class="st1" d="M224.9,182.8l-0.7-25.3c4.5-12,6.8-24.7,6.9-37.5c0-0.5,0.1-1.1,0.3-1.6c0.4-1.2,0.8-1.7,2-2.2l13,7
				c-0.2,0.5-3,3-3,3.5c-0.1,12.7-3.2,24.9-7.7,37"/>
			<path class="st1" d="M242.9,124.6l-11.5-6.2l0.3-0.6l11.5,6.2C243,124.2,243,124.4,242.9,124.6"/>
			<path class="st1" d="M243.2,124l-11.5-6.2l0.4-0.4l11.5,6.2L243.2,124"/>
			<path class="st1" d="M243.5,123.5l-11.4-6.1c0-0.2,0.2-0.3,0.3-0.4l11.5,6.2c-0.1,0.1-0.2,0.3-0.3,0.4 M243.8,123.1l-11.5-6.2
				l0.4-0.4l11.5,6.2L243.8,123.1"/>
			<path class="st1" d="M244.2,122.7l-11.5-6.2l0.4-0.4l11.6,6.3l-0.4,0.4"/>
			<path class="st1" d="M244.7,122.4l-11.6-6.3l0.6-0.4l11.5,6.2C245.2,121.9,244.7,122.4,244.7,122.4z"/>
			<path class="st1" d="M245.4,122.6l-11.7-6.8c0.3-0.2,0.7-0.3,1.1-0.3c0.4-0.1,0.8-0.1,1.2,0l12.1,6.2c0.9,0.4-0.2,0.4-1.7,0.4
				C246,122.2,245.7,122.5,245.4,122.6L245.4,122.6z"/>
			<path class="st1" d="M247.5,121.8l-11.5-6.2c0.2,0.1,0.4,0.1,0.6,0.2l11.5,6.2C247.9,121.9,247.7,121.8,247.5,121.8"/>
			<path class="st1" d="M248.1,122l-11.5-6.2l11.3,6.3"/>
			<path class="st2" d="M159.4,210.3l-11.5-6.2c-2.6-1.5-4.8-3.6-6.3-6.3c-1.5-2.6-2.2-5.6-2.1-8.6c0-2.5,0.4-4.9,1.3-7.2l14.8,4.6
				c-0.9,2.3-3.2,7.4-3.2,9.9c-0.1,3-0.8,4.9,0.7,7.6C154.6,206.7,156.7,208.8,159.4,210.3"/>
			<path class="st2" d="M144.8,190l-4-8.1c0.4-1,0.8-2,1.3-3l11.5,6.2c-0.5,1-1,1.9-1.3,3"/>
			<path class="st2" d="M152.7,190.9l-10.6-12c0.4-0.8,3.4-5.1,4.9-6.3l13.5,6.4c-0.5,0.8-5.6,8.4-6,9.2"/>
			<path class="st2" d="M155.1,183l-11.5-6.2c0.5-0.7,1.1-1.4,1.6-2.1l11.5,6.2C156.1,181.5,155.6,182.2,155.1,183"/>
			<path class="st2" d="M143.1,177.6l2.3-3.3c0.6-0.7,1.3-1.3,1.9-1.9l11.5,6.2c-0.7,0.6-1.3,1.3-1.9,1.9"/>
			<path class="st2" d="M158.6,178.8l-11.5-6.2c0.7-0.7,1.5-1.3,2.3-1.8L161,177C160.2,177.5,159.4,178.2,158.6,178.8"/>
			<path class="st2" d="M144.8,177.5l4.7-6.8c1-0.7,2.1-1.3,3.2-1.8l11.5,6.2c-1.1,0.5-2.2,1.1-3.2,1.8"/>
			<path class="st2" d="M158.4,181.1l-5.7-12.2c1.9-0.9,3.9-1.5,5.9-1.8l15.4,6.2c-2,0.3-8,2-9.8,2.9"/>
			<path class="st2" d="M-0.2,250"/>
			<path class="st2" d="M190.2,107.8l-11.5-6.2l0.3,0.2l11.5,6.2L190.2,107.8z M190.6,108l-11.5-6.2c0.5,0.3,1.1,0.5,1.7,0.6
				l11.5,6.2C191.7,108.5,191.1,108.2,190.6,108 M192.3,108.6l-11.5-6.3c1.2,0.3,2.5,0.4,3.8,0.2c1.1-0.2,2.2-0.5,3.2-1l11.6,6.3
				c-1,0.5-2,0.8-3.1,1c-1.3,0.2-2.5,0.1-3.8-0.2"/>
			<path class="st2" d="M190.6,114.7l-3.2-13.1c0.6-0.3,3-1.6,4-2.5L209,105C208.4,105.4,191.2,114.5,190.6,114.7z"/>
			<path class="st2" d="M200.9,106.8l-11.5-6.2c0.5-0.3,0.9-0.6,1.3-1l15.1,4.4C205.4,104.3,201.4,106.5,200.9,106.8"/>
			<path class="st2" d="M195.3,112.4l-4.6-12.8l1.1-1.1l19.4-1.5c-0.3,0.4-8.6,8.6-9,8.8"/>
			<path class="st2" d="M203.3,104.8l-11.5-6.2c0.3-0.4,0.7-0.8,1-1.2l11.5,6.2C204,103.9,203.7,104.3,203.3,104.8"/>
			<path class="st2" d="M204.4,104.6l-13-5.5c0.3-0.5,2-2.8,2.3-3.3l12.7,6.3c-0.3,0.5-1.2,1.6-1.5,2"/>
			<path class="st2" d="M205.2,102.1l-13.5-3.4c1.4-1.2,2.6-4,2.8-4.6l11.9,6.1C206.1,100.7,205.5,101.5,205.2,102.1z"/>
			<path class="st2" d="M206,100.3l-13-3.5c1.1-1.8,2.3-5.8,2.3-7.4c0.1-1.5-0.2-3.1-0.9-4.5c-0.6-1.4-1.6-2.7-2.7-3.7
				c-0.6-0.5-0.9-1.2-1.1-1.9c-0.2-0.7-0.1-1.5,0.2-2.2l14.6,4.5c-0.3,0.7-2.7,2.7-2.5,3.5s0.4,2,1,2.5c1.2,1,1.9,2.1,2.5,3.5
				s1,3,1,4.5c0,1.6,0.1,3.5-0.5,5"/>
			<path class="st2" d="M202.3,83.2l-11.5-6.1l0.3-0.6l11.5,6.2C202.5,82.9,202.4,83.1,202.3,83.2 M202.5,82.6L191,76.4
				c0.1-0.2,0.2-0.3,0.3-0.5l11.5,6.2L202.5,82.6 M202.8,82.1l-11.5-6.2l0.3-0.3l11.5,6.2L202.8,82.1"/>
			<path class="st2" d="M203.1,81.8l-11.4-6.2l0.4-0.4l11.5,6.2L203.1,81.8"/>
			<path class="st2" d="M203.5,81.4L192,75.1l0.4-0.3l11.5,6.2C203.8,81.2,203.6,81.3,203.5,81.4"/>
			<path class="st2" d="M203.9,81.1l-11.5-6.2l0.6-0.3l11.5,6.2C204.3,80.8,204.1,80.9,203.9,81.1"/>
			<path class="st2" d="M203.4,82.1l-10.5-7.5c0.4-0.3,1.1-0.5,1.5-0.5c0.5,0,0.6,0.1,1,0.2l12,6.3c1,1-1.1,0.4-1.5,0.5
				s-0.7-0.2-1,0"/>
			<path class="st2" d="M206.8,80.5l-12.5-6.4c0.5,0,1.4,0.2,1.5,0.3l11.5,6.2C207.2,80.6,207,80.5,206.8,80.5z M207.4,80.7
				l-11.5-6.2L207.4,80.7z M196.1,77.9l-11.5-6.2c0.4-0.1,0.8-0.1,1.2,0l11.5,6.2C196.9,77.8,196.5,77.8,196.1,77.9 M197.3,77.9
				l-11.5-6.2l0.6,0.2l11.5,6.2L197.3,77.9z M197.9,78.1l-11.5-6.2L197.9,78.1"/>
			<path class="st1" d="M231.6,81.9l-11.5-6.2c-0.5-0.2-0.9-0.6-1.2-1c-6.5-10.8-15.7-19.7-26.8-25.8l14.5,4.2
				c11.7,5.4,20.7,14,26.3,25.7C233.2,79.2,234.4,82.2,231.6,81.9z"/>
			<path class="st2" d="M186.4,114.9l-11.5-6.2c-2.6-1.5-4.8-3.7-6.3-6.4s-2.2-5.7-2.1-8.7c0-2.6,0.5-5.1,1.4-7.6l16.3,0.2
				c-0.9,2.4-5.3,10.8-5.4,13.4c-0.1,3-0.2,6.2,1.3,8.9C181.6,111.1,183.8,113.3,186.4,114.9z"/>
			<path class="st2" d="M178.6,94.9L167.9,86c0.4-1,0.8-2,1.4-3l11.5,6.2c-0.5,1-1,2-1.4,3"/>
			<path class="st2" d="M179,101.8l-11.1-15.7c0.5-2,2.3-4.9,2.9-5.6l19.8-1.2c-0.5,0.8-8.8,9.5-9.2,10.3"/>
			<path class="st2" d="M182.4,88.6l-11.6-8.1c0.5-0.7,1.1-1.4,1.6-2.1l15.5,4.2C187.3,83.3,182.9,87.9,182.4,88.6z"/>
			<path class="st2" d="M183.9,84.7l-11.5-6.2c0.6-0.6,1.2-1.3,1.8-1.8l11.5,6.2C185.1,83.4,184.5,84,183.9,84.7"/>
			<path class="st2" d="M185.7,82.8L171,80.1c0.9-1.8,4.6-4.7,5.3-5.2l11.5,6.2C187.1,81.6,186.4,82.2,185.7,82.8"/>
			<path class="st2" d="M183.4,87.1l-7-12.2c0.9-0.6,1.9-1.2,2.9-1.7l11.5,6.2C189.8,79.9,184.3,86.5,183.4,87.1z"/>
			<path class="st2" d="M188.2,81.9l-8.9-8.7c1.7-0.8,3.4-1.3,5.3-1.6l12.1,6.3C194.9,78.1,189.9,81.1,188.2,81.9L188.2,81.9z"/>
			<path class="st4" d="M199.6,81.2c0,1-0.3,2-1,2.8c-0.6,0.8-1.5,1.3-2.5,1.5c-3.1,0.6-5.8,2.3-7.8,4.7c-2,2.4-3.1,5.4-3.1,8.5
				c-0.1,1.4,0.1,2.8,0.6,4.2c0.5,1.3,1.3,2.5,2.4,3.5c1,1,2.3,1.7,3.7,2.1s2.8,0.6,4.2,0.4c3.1-0.6,5.8-2.2,7.8-4.6
				s3.1-5.4,3.1-8.5c0.1-1.6-0.2-3.1-0.9-4.5c-0.6-1.4-1.6-2.7-2.8-3.7c-0.7-0.7-1.1-1.6-1.1-2.6c-0.1-1,0.2-1.9,0.8-2.7
				c0.3-0.4,0.7-0.8,1.2-1.1c0.5-0.3,1-0.5,1.5-0.5c0.4-0.1,0.8,0,1.2,0.1s0.8,0.3,1.1,0.5c2,1.7,3.5,3.8,4.6,6.1
				c1,2.3,1.6,4.9,1.5,7.5c0,10.7-8.1,20.4-17.9,21.8c-9.9,1.4-17.9-6.1-17.8-16.7c0-10.6,8.1-20.4,17.9-21.8c0.5-0.1,0.9,0,1.3,0.1
				s0.8,0.4,1.2,0.7s0.6,0.7,0.8,1.1C199.5,80.3,199.6,80.7,199.6,81.2z"/>
			<path class="st1" d="M133,236.8l-11.5-6.2c-0.8-0.4-1.6-1-2.3-1.6c-1.5-1.7-2.2-3.9-2.1-6.2c0-1.9,0-4.2,0.3-6.5
				c0.6-5.7,0.5-11.4-0.3-17.1c-1-6.2-4-11.9-8.7-16.2c-1.9-1.7-4.1-3.2-6.4-4.4l11.7,5.4c2.3,1.2,4.1,3.6,6.1,5.3
				c4.7,4.3,7.8,10,8.8,16.3c4.2,6.9,3.4,11.3,2.8,17c-0.2,2.1-2.8,4.4-2.8,6.5c0.3,1.6,0.3,3.9,1.8,5.6
				C131.1,235.2,132.1,236.3,133,236.8 M142.4,109l-11.5-6.2c-0.5-0.3-1-0.8-1.2-1.3s-0.4-1.1-0.4-1.7c0-0.5,0.1-1,0.3-1.5l11.5,6.2
				c-0.2,0.5-0.3,1-0.3,1.5c0,0.6,0.1,1.2,0.4,1.7C141.5,108.2,141.9,108.6,142.4,109z"/>
			<path class="st1" d="M141,104.4l-11.5-6.2l0.3-0.6l11.4,6.2l-0.3,0.6"/>
			<path class="st1" d="M141.2,103.8l-11.5-6.2l0.3-0.5l11.5,6.2C141.4,103.5,141.3,103.6,141.2,103.8z M141.6,103.3l-11.5-6.2
				c0.1-0.1,0.2-0.3,0.3-0.4l11.5,6.2L141.6,103.3"/>
			<path class="st1" d="M141.9,102.9l-11.5-6.2l0.4-0.4l11.5,6.2L141.9,102.9"/>
			<path class="st1" d="M142.3,102.6l-11.5-6.2l0.4-0.4l11.5,6.3L142.3,102.6"/>
			<path class="st1" d="M142.7,102.3L131.1,96l0.6-0.3l11.5,6.2l-0.6,0.3"/>
			<path class="st1" d="M136.3,105.1l-4.5-9.5c0.3-0.2,0.7-0.3,1.1-0.3c1.1-0.1,2.2-0.5,3.2-1l17.2,5.4c-1,0.5-5.7,4.2-6.8,4.4
				c-0.4,0.1-4.5,3.5-4.8,3.6"/>
			<path class="st1" d="M147.5,100.6L136,94.3c0.6-0.3,1.2-0.6,1.8-1l11.5,6.2C148.7,100,148.1,100.3,147.5,100.6"/>
			<path class="st1" d="M149.3,99.6l-11.5-6.2c0.5-0.3,0.9-0.7,1.3-1l11.5,6.2C150.2,98.9,149.7,99.3,149.3,99.6"/>
			<path class="st1" d="M143.3,105l-5.9-11.4c2.5-1.5,4.5-4.5,4.9-5.5l15.9,0.9c-0.3,0.4-7.2,9.1-7.6,9.4"/>
			<path class="st1" d="M151.7,97.4l-11.5-6.2c0.4-0.4,0.7-0.8,1-1.2l11.5,6.2C152.4,96.6,152,97.1,151.7,97.4"/>
			<path class="st1" d="M148.9,101.6L141.2,90c0.3-0.5,0.6-0.9,0.9-1.4l11.4,6.2c-0.3,0.5-0.5,1-0.9,1.4"/>
			<path class="st1" d="M151.9,100.6L142,88.5c0.3-0.6,0.6-1.2,0.8-1.8l13.5,5.9C156.1,93.2,152.2,100,151.9,100.6L151.9,100.6z"/>
			<path class="st1" d="M154.4,93l-11.5-6.2c0.6-1.5,0.9-3,0.9-4.6c0.1-1.8-0.4-3.6-1.3-5.2s-2.2-2.9-3.8-3.8l12.8,3.1
				c1.6,0.9,2.5,4.8,3.3,6.4c0.9,1.6,0.4,4,0.4,5.8C155.2,89.9,155,91.5,154.4,93 M84.7,173.2l-1.8-8.7c3.4,0.5,6.8,1.1,10.1,1.9
				l11.5,6.3c-3.3-0.8-9.6,2.9-13,2.4"/>
			<path class="st1" d="M104.4,172.8l-15.1-7.2c4.5,0.5,11.2,3.3,14.8,5l11.5,6.2C112.1,175.1,108.3,173.7,104.4,172.8z"/>
			<path class="st1" d="M114.9,176.6l-13-7c0.6,0.3,3.5,1.5,4,1.8l11.5,6.2C116.8,177.3,115.5,176.9,114.9,176.6z M144.9,71.1
				l-14-6.4c3-1.1,6.2-0.5,8.3,0l12.2,6.4C149.3,70.6,146.9,70.8,144.9,71.1z"/>
			<path class="st1" d="M150.7,70.9l-11.5-6.2c1,0.2,1.9,0.6,2.8,1.1l11.5,6.3c-0.9-0.5-1.8-0.8-2.8-1.1 M153.5,72.1L142,65.7
				l0.6,0.3l11.5,6.2l-0.6-0.3 M153.4,42.1l-5.8-8.8c10.5-1.5,21.2-1,31.5,1.6l14.5,6.7c-10.3-2.6-24.2-0.5-34.7,1"/>
			<path class="st1" d="M190.5,41.1l-11.4-6.2c4.9,1.3,9.7,3.1,14.3,5.3l11.5,6.2c-4.6-2.2-9.4-4-14.3-5.3"/>
			<path class="st1" d="M204.8,46.4l-11.5-6.2c0.9,0.5,1.8,0.9,2.7,1.4l11.5,6.2L204.8,46.4z M87.3,168l-11.5-6.2l1.1,0.6l11.5,6.2
				L87.3,168"/>
			<path class="st1" d="M88.4,168.6l-11.5-6.2c1.7,0.8,3.5,1.5,5.4,2l11.5,6.2C91.9,170.1,90.1,169.4,88.4,168.6"/>
			<path class="st1" d="M93.8,170.6l-11.5-6.2l0.6,0.2l11.5,6.2L93.8,170.6"/>
			<path class="st2" d="M101.1,141.5l-11.5-6.2l0.4,0.2l11.5,6.2L101.1,141.5z"/>
			<path class="st2" d="M101.5,141.7L90,135.4c0.6,0.3,1.2,0.5,1.8,0.7l12.6,6.5c-0.6-0.2-2.4,0.8-3,0.5"/>
			<path class="st2" d="M102.4,144.1l-10.5-8c1.3,0.3,2.6,0.4,4,0.2c0.4-0.1,0.9-0.1,1.3,0l11.3,6.3c-0.4-0.1-0.6,0.9-1,1
				C106.1,143.8,103.6,144.4,102.4,144.1z"/>
			<path class="st2" d="M107.9,142.8L97,136.3l0.6,0.2l11.5,6.2C109.7,143.2,109.1,143.1,107.9,142.8z"/>
			<path class="st2" d="M109.2,142.8l-11.5-6.2L109.2,142.8H109H109.2z M118,141.1l-11.5-6.1c-0.8-0.5-1.5-1.3-1.7-2.2
				c-0.3-0.9-0.2-1.9,0.2-2.8l13.9,2.7c-0.4,0.8-2.9,5.3-2.6,6.2S117.2,140.5,118,141.1"/>
			<path class="st2" d="M116.5,136.3L105,130c0-0.1,0.3-0.9,0.8-1.4l11,7L116.5,136.3"/>
			<path class="st2" d="M116.8,135.6l-11.5-6.2c0.2-0.4,0.3-0.6,0.6-0.8l12.5,6L116.8,135.6z"/>
			<path class="st2" d="M117,135.4l-11.5-6.2c0.4-0.6,0.7-1.3,0.9-2l13.9,2C120,129.8,117.3,134.7,117,135.4"/>
			<path class="st2" d="M117.9,133.4l-11.5-6.2c0.6-1.5,0.9-3.2,0.9-4.8c0.1-1.9-0.4-3.9-1.3-5.6s-2.3-3.1-4-4.1l13,5.4
				c1.7,1,2.6,2.8,3.5,4.5c0.9,1.7,1.1,4.6,1,6.5c0,1.6-0.4,3-1,4.5"/>
			<path class="st1" d="M131.7,105.2L120.2,99c-0.3-0.1-0.6-0.4-0.8-0.6c-3-3.3-4.6-7.7-4.5-12.2c0-2.6,0.5-5.1,1.4-7.6l11.5,6.2
				c-0.9,2.4-1.4,5-1.4,7.6c-0.1,4.5,1.5,8.8,4.5,12.2C131.1,104.9,131.4,105.1,131.7,105.2"/>
			<path class="st1" d="M128.6,98l-12.3-19.3c0.4-1,0.9-2.1,1.4-3.1l19.9,1.2c-0.6,1-9.4,7.8-9.7,8.8"/>
			<path class="st1" d="M128.2,86.9l-10.5-11.3c0.4-0.8,0.9-1.6,1.5-2.4l16.9,1.7C135.5,75.7,128.6,86.1,128.2,86.9z"/>
			<path class="st1" d="M130.9,79.6l-11.7-6.4c0.5-0.7,1-1.4,1.6-2.1l11.6,6.4C131.8,78.3,131.4,78.9,130.9,79.6z"/>
			<path class="st1" d="M119.8,77.4l0.9-6.3c0.6-0.6,1.2-1.3,1.8-1.8l18.2,4.9C134.8,84.3,120.4,76.8,119.8,77.4z"/>
			<path class="st1" d="M134.1,75.6l-11.5-6.2c0.7-0.6,1.4-1.2,2.2-1.7l12.1,6.5c-0.8,0.5-1.3,1.4-2,2"/>
			<path class="st1" d="M136.2,73.9l-11.4-6.2c0.9-0.6,1.8-1.2,2.8-1.7l12.3,6.2c-1,0.5-2.6,1.4-3.5,2"/>
			<path class="st1" d="M127.9,89l-7.5-17.2c3.4-5.6,10.7-7.4,12.5-7.6l11.9,6.3C143.1,70.9,129.6,88.3,127.9,89L127.9,89z"/>
			<path class="st3" d="M140.9,105.9c0-1,0.4-2,1-2.8s1.5-1.3,2.5-1.5c3.1-0.6,5.8-2.3,7.8-4.7c2-2.4,3.1-5.4,3.1-8.6
				c0.1-1.4-0.1-2.8-0.6-4.2c-0.5-1.3-1.3-2.5-2.4-3.5c-1-1-2.3-1.7-3.6-2.1c-1.4-0.4-2.8-0.6-4.2-0.4c-3.1,0.6-5.8,2.3-7.8,4.7
				c-2,2.4-3.1,5.4-3.1,8.5c-0.1,2.7,0.9,5.4,2.7,7.4c0.6,0.8,0.9,1.7,0.9,2.7c-0.1,1-0.5,1.9-1.2,2.6c-0.6,0.7-1.5,1.2-2.5,1.3
				c-0.5,0.1-1,0-1.4-0.1c-0.4-0.2-0.9-0.4-1.2-0.8c-3-3.3-4.6-7.7-4.5-12.1c0.1-10.6,8.1-20.3,18-21.7c9.9-1.4,17.9,6.1,17.8,16.7
				c0,10.6-8,20.4-17.9,21.8c-0.5,0.1-0.9,0-1.4-0.1c-0.4-0.1-0.8-0.4-1.2-0.7c-0.3-0.3-0.6-0.7-0.8-1.1
				C140.9,106.8,140.8,106.4,140.9,105.9L140.9,105.9z"/>
			<path class="st2" d="M107.3,109.6l-11.5-6.2c2.2-0.3,4.4-0.2,6.6,0.4l13,6.9C113.2,110.1,109.5,109.3,107.3,109.6"/>
			<path class="st2" d="M113.9,110l-11.5-6.2c1,0.3,2,0.6,3,1.1l11.5,6.2C116,110.6,114.9,110.2,113.9,110"/>
			<path class="st2" d="M116.9,111.1l-11.5-6.3l0.6,0.3l11.5,6.2L116.9,111.1 M97,149l-11.5-6.2c-2.8-1.6-5.1-4-6.7-6.8
				s-2.3-6-2.2-9.3c0-2.8,0.5-5.5,1.5-8.1l11.5,6.2c-0.9,2.6-1.4,5.3-1.4,8.1c-0.1,3.2,0.6,6.4,2.2,9.3C92,145,94.3,147.4,97,149"/>
			<path class="st2" d="M89.4,129.1l-11.3-10.6c0.4-1.1,0.9-2.2,1.4-3.2l15.8,2.3c-0.6,1-3.6,6.9-4,8"/>
			<path class="st2" d="M91.1,121.6l-11.5-6.2c0.5-0.9,1-1.7,1.6-2.5l11.5,6.2C92.1,119.9,91.5,120.7,91.1,121.6z"/>
			<path class="st2" d="M91.1,123.1l-10-10.2c0.5-0.8,1.1-1.5,1.7-2.2l17.4,2.8c-0.6,0.7-7,4.9-7.6,5.6"/>
			<path class="st2" d="M84.4,125.6l-1.5-14.9c0.6-0.7,1.3-1.3,1.9-2l15.6,4.4c-0.7,0.6-3.4,4.8-4,5.5"/>
			<path class="st2" d="M96.3,114.9l-11.5-6.2c0.7-0.6,1.5-1.3,2.3-1.8l12.2-3.3C98.5,104.1,97,114.2,96.3,114.9"/>
			<path class="st2" d="M98.6,113.1l-11.5-6.2c1-0.7,2-1.3,3.1-1.8l11.5,6.2C100.6,111.8,99.6,112.4,98.6,113.1"/>
			<path class="st2" d="M98.8,118.1l-8.6-13c1.8-0.8,3.6-1.4,5.6-1.7l19.6,7.3c-1.9,0.3-11.1,5.6-12.9,6.4"/>
			<path class="st4" d="M123.2,139.1c-0.3,0.6-0.8,1.1-1.3,1.5s-1.2,0.6-1.8,0.8c-0.7,0.1-1.4,0-2-0.3c-0.9-0.6-1.5-1.5-1.7-2.5
				s0-2.1,0.6-2.9c1.2-2.1,1.9-4.5,1.9-7c0.1-1.5-0.1-3-0.7-4.4c-0.5-1.4-1.4-2.7-2.5-3.7s-2.4-1.8-3.9-2.3c-1.4-0.5-3-0.6-4.5-0.4
				c-3.3,0.6-6.2,2.4-8.3,4.9c-2.1,2.6-3.3,5.8-3.3,9.1c-0.1,1.5,0.1,3,0.7,4.5c0.6,1.4,1.4,2.7,2.5,3.7s2.4,1.8,3.9,2.3
				s3,0.6,4.5,0.4c0.5-0.1,1,0,1.4,0.1c0.5,0.1,0.9,0.4,1.2,0.7c0.4,0.3,0.6,0.7,0.8,1.2c0.2,0.5,0.2,0.9,0.2,1.4
				c0,1.1-0.4,2.1-1.1,2.9c-0.7,0.8-1.6,1.4-2.7,1.6c-10.5,1.4-19-6.5-19-17.8s8.5-21.7,19.1-23.2c10.5-1.5,18.9,6.5,18.9,17.8
				C126.2,131.6,125.2,135.6,123.2,139.1z"/>
			<path class="st1" d="M84.6,175.5l-12.8-6.6c-2.2-1.2-4.2-2.6-6.1-4.2c-2.9-2.5-5.3-5.6-6.9-9c-1.6-3.5-2.4-7.3-2.4-11.1
				c0.1-13.3,2.5-26.4,7.1-38.9l11.7,5.9c-4.6,12.4-6.8,21.8-6.9,35c0,3.8,1.4,13,3,16.5c1,2.5,3.6,5.2,6.5,7.7
				C78.5,171.3,82.1,174,84.6,175.5L84.6,175.5z"/>
			<path class="st1" d="M71.4,125.1l-7.9-19.5c2-5.3,4.4-10.4,7.1-15.4l14.7,1.4c-2.7,4.9-8.2,14.9-10.1,20.2"/>
			<path class="st1" d="M81.9,96.6l-11.3-6.4c2.2-4.2,4.7-8.2,7.3-12.1L94.6,80C91.8,83.8,84.2,92.4,81.9,96.6z"/>
			<path class="st1" d="M89.4,84.5l-11.5-6.3c2.5-3.6,5.3-7.1,8.2-10.4l18.3-0.9C101.4,70.1,91.9,80.8,89.4,84.5z"/>
			<path class="st1" d="M97.6,74.1l-11.5-6.3c2.9-3.3,6-6.4,9.3-9.4l11,6.7C105.4,66.1,100.5,70.8,97.6,74.1z"/>
			<path class="st1" d="M106.4,65.1l-14-4c3.5-3.5,11.6-9.9,15.5-12.4l10.5,7C114.5,58.3,109.9,62.1,106.4,65.1z"/>
			<path class="st1" d="M118.4,55.6l-12-5.9c4.6-3.2,9.6-6.1,14.7-8.5l11.3,6.4C127.2,50,122.9,52.6,118.4,55.6z"/>
			<path class="st1" d="M131.4,48.1L121,41.2c8.4-4,17.3-6.6,26.5-7.9l11.5,6.2c-9.2,1.3-18.3,4.1-26.6,8.1 M61.6,223.1L50,216.9
				l1.5-1.8l10.6,7.4L61.6,223.1L61.6,223.1z"/>
			<path class="st1" d="M62.4,223.1l-11.7-7c1.4-1.5,2.6-3.1,3.8-4.8l19.2-4.4C72.5,208.7,63.7,221.6,62.4,223.1z"/>
			<path class="st1" d="M65.9,217.6l-11.5-6.2c0.7-1,1.4-2,1.9-3.1l11.6,6.2C67.3,215.6,66.6,216.6,65.9,217.6 M67.9,214.5
				l-11.5-6.2L67.9,214.5z M62.5,228.7L51,222.4l-0.2-0.2c-0.7-0.4-1.3-1.1-1.5-2s-0.2-1.7,0.2-2.4L61,224c-0.4,0.8,0.1,1.7,0.3,2.5
				c0.2,0.8,1.5,2,1.9,2.1C63.2,228.8,63.3,228.9,62.5,228.7L62.5,228.7z"/>
			<path class="st1" d="M61.4,227.6l-11.9-9.8c0.3-0.8,0.3-0.6,0.4-0.8l16.1,0.5C65.9,217.8,61.6,227.3,61.4,227.6z"/>
			<path class="st1" d="M61.4,223.3l-11.5-6.2c0,0,0.1-0.2,0.2-0.3l11.5,6.3c0,0.1-0.1,0.2-0.2,0.3 M68.4,216.1l-12-7.8l0.4-0.7
				l14.6,6.5c-0.2,0.4-2.5,1.9-2.5,2"/>
			<path class="st1" d="M68.3,213.8l-11.5-6.2c0.4-0.9,0.8-1.8,1.1-2.8l12.9,6.3c-0.3,1-1,3.1-1.5,4"/>
			<path class="st1" d="M56.3,216.6l1.6-11.7c0.4-1,0.8-2.3,1.2-3.9c0.8-3.5,0.2-9.3-0.8-12.8l14.6,2.7c1,3.5,0.2,13.3-0.6,16.8
				c-0.3,1.3,0,3.2-0.5,4.5"/>
			<path class="st1" d="M70.5,196.4L59,190.2c-0.5-2.3-1.7-4.3-3.4-5.8c-0.7-0.6-1.4-1.1-2.2-1.5l12.3,4.1c0.8,0.4,2.3,2.7,3,3.3
				C70.5,191.8,70.1,194.2,70.5,196.4 M30.4,238.6l-11-7.1c5.7-0.9,11.3-2.6,16.6-5l11.5,6.2c-5.3,2.4-10.9,4.9-16.6,5.8"/>
			<path class="st1" d="M47.5,234L36,226.5l3-1.5c0.1,0,0.4-0.3,0.9-0.3l12.5,6l-0.5,1c-1,0.5-2.5,1.5-3.5,2"/>
			<path class="st1" d="M50.7,231.1l-11.5-6.2c0.3-0.2,0.7-0.3,1.1-0.4c0.5-0.1,0.9-0.1,1.4,0l12.2,6.6c-0.4-0.1-1.6-0.1-2,0
				s-0.7-0.2-1,0"/>
			<path class="st1" d="M53.2,230.8l-11.5-6.2l0.6,0.2l11.5,6.2C53.6,230.9,53.4,230.8,53.2,230.8z"/>
			<path class="st1" d="M54.4,231.6l-12.1-6.8l11.5,6.2 M57.5,179.4L46,173.1c2,0,4,0.3,6,0.9l11.5,6.3
				C61.5,179.8,59.5,179.5,57.5,179.4"/>
			<path class="st1" d="M63.5,180.3L52,174.1c1.4,0.4,2.8,0.9,4.2,1.5L57,176l11.5,6.2l-0.8-0.4C66.3,181.2,64.9,180.7,63.5,180.3
				 M68.4,182.1l-11.5-6.2l0.8,0.4l11.5,6.2L68.4,182.1z M51.9,179.8l-11.5-6.2l5.6-0.5l11.5,6.3L51.9,179.8z"/>
			<path class="st2" d="M61.3,178.2l-12.4-6.7v-18l12.5,5.4L61.3,178.2z"/>
			<path class="st1" d="M13.1,245.9l-11.5-6.2c-0.6-0.4-1.1-0.9-1.4-1.5c-0.3-0.6-0.4-1.3-0.3-2c0-0.4,0.3-1.5,1.3-2.7l11.2,7.6
				c-0.1,0.3,0,1.1,0,1.5c-0.1,0.7-0.8,0.9-0.5,1.5s1.4,1.6,2,2"/>
			<path class="st1" d="M11.7,241.4l-11.5-6.2l0.3-0.6l11.5,6.2C11.8,240.9,11.7,241.1,11.7,241.4 M11.9,240.7l-11.5-6.2
				c0.1-0.2,0.2-0.3,0.3-0.5l11.5,6.2C12.1,240.4,12,240.6,11.9,240.7"/>
			<path class="st1" d="M12.9,241.1L0.7,234l0.4-0.4l12.8,6l-1.7,0.7"/>
			<path class="st1" d="M12.5,239.9l-11.4-6.2c0.1-0.2,0.2-0.3,0.4-0.4l11.5,6.3L12.5,239.9L12.5,239.9z M12.9,239.5l-11.5-6.3
				c0.1-0.1,0.3-0.3,0.5-0.4l12,6.3c-0.2,0.1-0.4,0.4-0.5,0.5"/>
			<path class="st1" d="M13.4,239.1l-11.5-6.3c0.2-0.1,0.3-0.2,0.5-0.3l11.6,6.2C13.8,238.9,13.6,239,13.4,239.1L13.4,239.1z"/>
			<path class="st1" d="M0.4,235l2-2.5c0.4-0.2,0.7-0.3,1.1-0.4c1.9-0.2,3.7-0.7,5.5-1.5l18.2,4.4c-1.7,0.8-10.5,3.4-12.4,3.6
				c-0.4,0.1-3.9,4-4.3,4.2"/>
			<path class="st1" d="M4.1,232.7l4.9-2.1c0.7-0.3,1.4-0.8,2.1-1.2l16.1,2.5c-0.7,0.5-7.6,8.9-8.3,9.3"/>
			<path class="st1" d="M22.6,235.7l-11.5-6.3c0.5-0.3,0.9-0.7,1.4-1.1l12.4,6.3C24.4,235,23.1,235.3,22.6,235.7"/>
			<path class="st1" d="M17.4,243.8l-4.9-15.4c0.4-0.4,4.6-4.7,5.5-9.4c0.7-4,15.9,3.4,15.9,3.4c-0.3,0.3-9.5,11.8-9.8,12.2"/>
			<path class="st1" d="M25.1,233.4l-11.4-6.2c0.4-0.4,0.7-0.9,1-1.3l11.5,6.2C25.9,232.6,25.6,233,25.1,233.4"/>
			<path class="st1" d="M26.2,232.1l-11.5-6.2l0.6-0.8l0.5-0.8l11.5,6.2l-0.5,0.8C26.6,231.5,26.4,231.8,26.2,232.1"/>
			<path class="st1" d="M24.6,238.3l-8.8-14.1c0.4-0.8,0.8-1.7,1.1-2.5l11.5,6.2c-0.3,0.9-0.7,1.7-1.1,2.5"/>
			<path class="st1" d="M22.9,240.3l-6.1-18.5c0.9-2.7,1.4-5.4,1.4-8.3c-0.1-6,0.2-12,0.9-17.9c0.3-3,1-6,2-8.9l11.5,6.2
				c-1,2.9-1.7,5.9-2,8.9c-0.6,5.9-0.9,11.9-0.9,17.9c0.1,2.8-0.4,5.6-1.4,8.3"/>
			<path class="st1" d="M29.8,196.8l-8.7-10.1c0.4-1,0.9-2,1.4-2.9l14.7,0.2C36.8,184.8,34.9,199.7,29.8,196.8z"/>
			<path class="st1" d="M21.2,187l1.4-3.4c0.4-0.6,0.7-1.2,1.1-1.7l5.6-1.9c-0.4,0.6,5.2,9.3,4.8,9.9v0.2"/>
			<path class="st1" d="M35.2,188.1l-11.6-6.2l1.2-1.5l11.5,6.2C35.9,187.1,35.5,187.6,35.2,188.1"/>
			<path class="st1" d="M36.3,186.6l-12.5-5c0.5-1,1.5-2,3-3l10.9,6.8c-0.5,0.4-0.9,0.9-1.3,1.3"/>
			<path class="st1" d="M37.4,185.6l-11.5-6.2c0.2-0.2,0.5-0.4,0.8-0.7l1.2-1.1l11.1,6.7l-0.9,0.6C37.9,185.2,37.6,185.4,37.4,185.6
				z"/>
			<path class="st1" d="M39.3,184l-11.5-6.2c0.8-0.6,1.6-1.1,2.5-1.5l11.5,6.2C40.9,183,40.1,183.5,39.3,184 M41.9,182.5l-11.5-6.2
				c3.2-1.3,6.6-2.2,10.1-2.5L52,180C48.5,180.3,45.1,181.1,41.9,182.5"/>
			<path class="st2" d="M45.7,177.6l-11.5-6.2l16.1-2.5l12.1,6.6L45.7,177.6L45.7,177.6z"/>
			<path class="st3" d="M38.5,218.6c0,0-0.2-15.2,2.6-22.3c4-10.1,28.9-15.2,30,3.1c0.3,5.3,0.2,5.2-0.5,7.5c-3.3,11-9,14.4-10,17.4
				c-1.9,5.2,3.8,4.6,3.8,4.6c1.6-0.5,3-1.5,3.9-2.9c3.3-3.9,6-8.2,8-12.9c2.8-6.6,3.2-14,1-20.8c-0.8-2.3-2-4.5-3.7-6.3
				s-3.7-3.2-6-4.1c-3.2-1.4-6.6-2.2-10.1-2.3l-5.5,0.5V180v0.1c-4.9,0.3-9.5,2-13.6,4.7c-1.8,1.4-3.3,3.2-4.4,5.2
				c-1.9,3.8-3,7.8-3.4,12c-0.6,5.9-0.9,11.9-0.9,17.9c0,4.1-1,8.1-3,11.6c-1.3,2-3,3.7-5,5c-2,1.2-4.3,2-6.7,2.2
				c-0.9,0.2-1.8,0.7-2.4,1.4s-1,1.6-1.1,2.5c-0.1,0.4-0.1,0.9,0,1.3s0.3,0.8,0.6,1.2c0.3,0.3,0.6,0.6,1,0.9
				c0.4,0.2,0.8,0.4,1.2,0.4c5,0.4,10.1,0.3,15.1-0.5c8.3-1.1,16.3-3.6,23.7-7.5c0.9-0.5,1.6-1.3,2-2.3s0.4-2,0.1-3
				c-0.2-0.7-0.7-1.2-1.3-1.6c-0.6-0.4-1.3-0.5-2.1-0.4c-0.4,0.1-0.9,0.2-1.3,0.4c0,0-19.5,8.4-20.7,7
				C28.9,237.3,36.9,235.5,38.5,218.6L38.5,218.6z"/>
			<path class="st2" d="M45.8,154.9l-11.5-6.2l14.6-2l12.5,6.1L45.8,154.9L45.8,154.9z"/>
			<path class="st2" d="M64.5,156.9L48.9,148L49,52.9l11.7,6.6L64.5,156.9z M38.6,184.6l-11.7-6.2l0.2-100.9l11.5,6.2V184.6z"/>
			<path class="st2" d="M38,84.7l-10.9-7.2c0-0.5,0.1-1.1,0.3-1.6l11.5,6.3c-0.2,0.5,0.4,1.5,0.4,2 M38.9,82.1l-11.5-6.2l0.3-0.6
				l11.5,6.2C39.2,81.7,39,81.9,38.9,82.1z"/>
			<path class="st2" d="M36.8,86.1l-9.5-9.8c0.3-1.1,0.9-1.9,1.4-2.4L39.4,81l-0.9,6.1"/>
			<path class="st2" d="M39.5,81L28,74.8l0.3-0.4l11.5,6.2L39.5,81z"/>
			<path class="st2" d="M39.8,80.6l-11.5-6.2c0,0,0.8-1.1,2.1-1.2c3-0.4,9.8,7.1,9.8,7.1L39.8,80.6"/>
			<path class="st2" d="M40.3,80.2L28.8,74l0.5-0.4l11.5,6.2C40.6,80,40.4,80.1,40.3,80.2z"/>
			<path class="st2" d="M38.9,83.8l-9.7-10.2l0.6-0.3l14.1,7c-0.2,0.1-3.6,2.7-3.7,2.9"/>
			<path class="st2" d="M41.2,79.6l-11.5-6.2c0.3-0.2,0.7-0.3,1.1-0.3c0.4-0.1,0.8-0.1,1.2,0l12.5,7.3c-0.4-0.1-1.4,1.4-1.8,1.5
				C42.3,81.9,41.5,79.5,41.2,79.6z"/>
			<path class="st2" d="M38.4,80.7L32,73c0.2,0.1,0.4,0.1,0.6,0.2l11.5,6.4c-0.2-0.1-2.4,1.1-2.6,1.1"/>
			<path class="st2" d="M45.1,81.2l-12.4-7.9l11.4,6.4c0,0,0.9,1.1,1,1.2V81.2z M64.6,67L48.9,54.6c0.4-11.4-0.7-22.9-3.1-34.1
				c-0.6-2.6-1.6-5.1-3.1-7.3c-0.3-0.4-0.6-0.8-1.1-1.1l11.5,6.2c0.4,0.3,0.8,0.6,1.1,1.1c1.4,2.3,2.4,4.7,3.1,7.3
				c2.4,11.2,8.2,18.5,7.8,30"/>
			<path class="st2" d="M40.7,66.9l-11.9-6.2c-0.5-0.3-1-0.8-1.3-1.3s-0.4-1.2-0.4-1.8c-0.2-12.5,1-25,3.6-37.2
				c0.5-2,1.1-3.9,1.7-5.6l16.9,0.8c-0.6,1.7-3,11.8-3.5,13.9c-2.7,12.2-7.4,21.9-7.1,34.4c0,0.6,0.3,1,0.6,1.6
				c0.3,0.5,0.7,0.2,1.2,0.5"/>
			<path class="st2" d="M43.1,26.7L32.5,14.9c0.5-1.4,1.1-2.8,1.9-4.2l11.5,6.2c-0.7,1.3-1.3,2.7-1.8,4.2"/>
			<path class="st2" d="M45.8,16.9l-11.5-6.2c0.2-0.3,0.3-0.6,0.5-0.9C35,9.5,35.3,9,35.6,8.6l11.5,6.2c-0.3,0.4-0.6,0.8-0.8,1.2
				S46,16.6,45.8,16.9 M47.1,14.8L35.6,8.6c0.3-0.5,0.7-0.9,1.1-1.4l11.5,6.2C47.8,13.9,47.5,14.4,47.1,14.8"/>
			<path class="st2" d="M48.2,13.5L36.7,7.2c0.3-0.4,0.7-0.7,1-1l11.5,6.2C48.9,12.8,48.6,13.1,48.2,13.5"/>
			<path class="st2" d="M49.2,12.5L37.7,6.2c0.3-0.3,0.6-0.6,1-0.8l11.5,6.2C49.8,11.9,49.5,12.2,49.2,12.5"/>
			<path class="st2" d="M50.2,11.7L38.7,5.4C39,5.2,39.4,5,39.9,4.8L51.4,11C51,11.2,50.6,11.4,50.2,11.7"/>
			<path class="st2" d="M34.4,10.7c0.9-3.1,5.5-5.9,5.5-5.9c0.6-0.3,1.3-0.5,2-0.7C42.6,4,43.5,4,44.2,4.2l11.5,6.2
				c-0.8-0.1-1.6-0.1-2.4,0c-0.7,0.1-6.3,6.6-7,6.9"/>
			<path class="st2" d="M55.7,10.5L44.2,4.3c0.4,0.1,0.8,0.2,1.2,0.4L56.9,11C56.6,10.8,56.1,10.6,55.7,10.5"/>
			<path class="st2" d="M56.9,11L45.4,4.7h0.3L57.2,11H56.9z"/>
			<path class="st3" d="M69.8,160.9C56.6,96.6,122.7,18.1,198.5,42.8c14.5,4.7,30.3,20,38.1,33c0.5,0.9,0.6,1.9,0.4,2.9
				c-0.2,1-0.8,1.9-1.6,2.5c-0.5,0.4-1.2,0.7-1.8,0.8c-0.6,0.1-1.2,0-1.7-0.2s-1-0.6-1.3-1.2C223.4,68.5,212.7,58.9,200,53
				c-12.7-6-27-8-40.9-5.8c-46.3,6.5-83.9,52.4-84,102.4c0,2.9,0.6,5.7,1.8,8.2c1.2,2.6,3,4.9,5.2,6.7c3.5,3,7.7,5.1,12.2,6.3
				c14.3,2,24.1,6.3,30.5,12.1c5.8,5.3,9.6,12.4,10.8,20.1c0.9,6.2,1.1,12.5,0.4,18.7c0,0.4-0.1,0.8-0.1,1.2
				c-0.1,2.1-0.2,3.6-0.2,4.9c0,0.4,0.1,0.9,0.2,1.3c0.9,0.7,2,1.2,3.1,1.5c0,0,14.4,6.6,36.1-2.4s35-22.8,43.9-33.7
				c8.8-10.9,20.7-35.8,22-50.7s2-14.4,1.7-17.5c-0.5-6,6.7-5.8,6.9-2.4s-0.9,27.4-6.5,39.4s-13.2,34.3-32.9,51.1
				s-36.6,23.9-50.2,25.5c-13.6,1.5-29.7,0-31.2-8.4s5.3-18.4-4.8-37.3c0,0-9-12.6-24.7-14.4S73.1,169,69.8,160.9"/>
			<path class="st4" d="M53.2,10c5.6-1.7,10.6,9.3,12.1,17.7c1.5,8.6,2.7,7.9,2.4,54.4c-0.3,46.5,0,99.6,0,99.6
				c-3.2-1.4-6.7-1.9-10.2-2.1l-2.8,0.2l-2.8,0.2c-4.8,0.4-9.4,2-13.4,4.7L38.7,84c0-1,0.3-2,1-2.8s1.6-1.3,2.6-1.5
				c0.5-0.1,0.9,0,1.4,0.1c0.4,0.1,0.8,0.4,1.2,0.7c0.3,0.3,0.6,0.7,0.8,1.1s0.2,0.9,0.2,1.4v71.3H46l14.5-2h0.1V61.2
				c0.4-11.5-0.7-22.9-3.1-34.1c-0.6-2.6-1.6-5.1-3-7.3c-0.3-0.4-0.7-0.8-1.1-1.1h-0.1l-0.1,0.1c-2.8-0.3-5,14.3-5.3,14.9
				c0,0-2.3,21.1-2.2,29.3c0.1,4.5-7.7,6-7.1-0.4c0,0,0.1-24.5,4.7-41.2C45.3,13.3,50.4,10.9,53.2,10z M60.5,175.7l0.1-15.9v-0.1
				h-0.1l-14.6,2.1h-0.1v16h0.1L60.5,175.7z"/>
		</g>
	</g>
</g>
<path class="st4" d="M184.2,199.5c-0.3,0.6-0.8,1.1-1.3,1.5s-1.2,0.6-1.8,0.8c-0.7,0.1-1.4,0-2-0.3c-0.9-0.6-1.5-1.5-1.7-2.5
	s0-2.1,0.6-2.9c1.2-2.1,1.9-4.5,1.9-7c0.1-1.5-0.1-3-0.7-4.4c-0.5-1.4-1.4-2.7-2.5-3.7s-2.4-1.8-3.9-2.3c-1.4-0.5-3-0.6-4.5-0.4
	c-3.3,0.6-6.2,2.4-8.3,4.9c-2.1,2.6-3.3,5.8-3.3,9.1c-0.1,1.5,0.1,3,0.7,4.5c0.6,1.4,1.4,2.7,2.5,3.7s2.4,1.8,3.9,2.3s3,0.6,4.5,0.4
	c0.5-0.1,1,0,1.4,0.1c0.5,0.1,0.9,0.4,1.2,0.7c0.4,0.3,0.6,0.7,0.8,1.2s0.2,0.9,0.2,1.4c0,1.1-0.4,2.1-1.1,2.9
	c-0.7,0.8-1.6,1.4-2.7,1.6c-10.5,1.4-19-6.5-19-17.8s8.5-21.7,19.1-23.2c10.5-1.5,18.9,6.5,18.9,17.8
	C187.2,192,186.2,196,184.2,199.5z"/>
</svg>
