<?xml version="1.0" encoding="utf-8"?>
<!-- Generator: Adobe Illustrator 24.0.0, SVG Export Plug-In . SVG Version: 6.00 Build 0)  -->
<svg version="1.1" id="Слой_1" xmlns="http://www.w3.org/2000/svg" xmlns:xlink="http://www.w3.org/1999/xlink" x="0px" y="0px"
	 viewBox="0 0 250 250" style="enable-background:new 0 0 250 250;" xml:space="preserve">
<style type="text/css">
	.st0{fill:#40689D;}
	.st1{fill:#9A384B;}
	.st2{fill:#793E4B;}
	.st3{fill:#882F40;}
	.st4{fill:#E87891;stroke:#000000;stroke-width:0.2;}
	.st5{fill:#5E6D82;}
	.st6{fill:#B4D1FA;stroke:#000000;stroke-width:0.2;}
</style>
<path class="st0" d="M103.8,33.6L89.9,26c7.8-1.1,15.7-0.7,23.4,1.2l13.9,7.6C119.5,32.8,111.5,32.4,103.8,33.6z M68.6,173.2
	l-15.1-7.9c-18.8-10.2-31.2-31.2-31.2-57.2c0-9.8,1.8-19.6,5.2-28.7l15.7,7.4c-3.4,9.2-4.3,19-4.4,28.8
	C38.9,141.4,49.8,163,68.6,173.2"/>
<path class="st0" d="M41.5,87.2l-13.9-7.6c1.5-3.9,3.3-7.6,5.3-11.3l13.9,7.6c-1.9,3.7-3.6,7.4-5.1,11.3"/>
<path class="st0" d="M44.1,87.2l-11.3-19c1.7-3,3.5-6.1,5.5-8.9l27.2-2.9c-2,2.8-15.6,22.1-17.3,25.2"/>
<path class="st0" d="M52.1,66.9l-13.9-7.6c1.9-2.7,3.9-5.3,6.2-7.8l13.9,7.6C56,61.6,54,64.2,52.1,66.9"/>
<path class="st0" d="M50.2,70l-6.1-18.4c2.2-2.5,4.5-4.7,7-7H80c-2.4,2.2-24,19.2-26.1,21.5"/>
<path class="st0" d="M65,52.2l-13.8-7.6c2.6-2.2,5.3-4.5,8.1-6.4l13.9,7.6c-2.8,2-5.5,4.2-8.1,6.4"/>
<path class="st0" d="M60.3,62l-1.1-23.8c3.5-2.4,7.1-4.5,10.9-6.3L84,39.5C80.3,41.3,63.8,59.5,60.3,62z"/>
<path class="st0" d="M76.8,44.6l-6.6-12.8c6.2-2.9,12.8-4.9,19.7-6L117,33C109.9,34.1,83,41.6,76.8,44.6z"/>
<path class="st0" d="M116.5,33.7l-3.4-6.5c3.6,0.9,7.2,2.2,10.6,3.9l13.9,7.6C134.2,37,120.1,34.6,116.5,33.7z"/>
<path class="st0" d="M137.6,38.7l-13.9-7.6l2,1l13.9,7.6L137.6,38.7z"/>
<path class="st1" d="M233.1,221.4l-13.9-7.6c0.1-0.1,0.2-0.3,0.3-0.4l14.2,7.6l-0.3,0.4"/>
<path class="st1" d="M233.7,221l-14.7-6.6c0.6-0.9,0.9-1.5,1.5-2.5l13.7,8.3L233.7,221z"/>
<path class="st1" d="M234,220.2l-13.9-7.6c0.2-0.3,0.3-0.7,0.4-1l13.9,7.6C234.3,219.4,234.1,219.7,234,220.2"/>
<path class="st1" d="M234.4,219.2l-13.9-7.6c0.2-0.6,0.3-1,0.4-1.6l13.9,7.6C234.8,218.1,234.6,218.6,234.4,219.2z"/>
<path class="st1" d="M230.7,223.6l-9.9-13.6l0.2-1.8l13.9,7.6L230.7,223.6L230.7,223.6z"/>
<path class="st1" d="M225.8,232l-14.6-8.5l11.7-14.2l17.8,2.1L225.8,232L225.8,232z"/>
<path class="st1" d="M218.9,235l-11-9.1l0.8-0.3l17.6,6.5L218.9,235L218.9,235z"/>
<path class="st1" d="M222.6,233.2l-13.9-7.6c0.3-0.1,0.7-0.3,1-0.6l20.9,4C230.3,229.3,223,233,222.6,233.2z"/>
<path class="st1" d="M223.7,232.6l-13.9-7.6l0.8-0.6l14,7.6L223.7,232.6"/>
<path class="st1" d="M224.4,232l-14.4-7.3l1.5-1.5l13.5,8.2C224.9,231.7,224.7,231.9,224.4,232z"/>
<path class="st1" d="M225,231.4l-13.9-7.6l0.2-0.2l13.9,7.6L225,231.4z M235.1,215.8l-15.5-2.5c1.9-1.5,1.7-7.1,1.5-8
	s-0.8-1.7-1.5-2.5l15.3,3.4c0.7,0.7-0.2,5.7,0.1,6.6C235.2,213.9,235.2,214.8,235.1,215.8L235.1,215.8z M220.2,234l-13.9-7.6
	l1.6-0.4l13.9,7.6L220.2,234z M216.1,233.7l-13.9-7.6L216.1,233.7H216 M216.4,233.8l-13.9-7.6l0.9,0.3l13.9,7.5l-0.9-0.3"/>
<path class="st1" d="M216.5,234.5l-13.1-8c0.7,0.1,1.3,0.1,2,0c0.3,0,0.6-0.1,0.9-0.2l13.9,7.8c-0.3,0.1-0.6,0.2-0.9,0.2
	c-0.7,0.1-0.9,0.9-1.6,0.8"/>
<path class="st2" d="M197.9,234c-0.8-0.4-2.1-1.7-2.8-2.4l13.9,7.5c0.7,0.7,2.1,1.9,2.9,2.5"/>
<path class="st1" d="M233.4,210.5l-13.9-7.6l-45.5-43l13.9,7.6L233.4,210.5z"/>
<path class="st2" d="M188,167.6l-13.9-7.6c-0.3-0.2-0.7-0.6-1-0.7l13.9,7.6C187.4,167,187.7,167.3,188,167.6z"/>
<path class="st1" d="M209.5,239.9l-13.9-7.6l-45.4-43l15.1,3.7L209.5,239.9L209.5,239.9z M179.8,160.3l-11.8-9.7
	c0.7-0.2,1.3-0.4,2-0.4c1.6-0.2,3.1-0.1,4.7,0.2l13.9,7.6c-1.6-0.3-3.1-0.4-4.7-0.2C183.3,157.8,180.5,160.1,179.8,160.3z"/>
<path class="st1" d="M185.2,160l-10.5-9.6c0.8,0.2,1.5,0.4,2.1,0.8l13.8,7.6c-0.7-0.3-1.5-0.6-2.1-0.8"/>
<path class="st1" d="M190.7,158.8l-13.8-7.6l0.4,0.2l13.9,7.6L190.7,158.8L190.7,158.8z M179,159.2l-13.9-7.6l2.9-0.9l13.9,7.6
	L179,159.2z"/>
<path class="st3" d="M167.4,189l-21.8-13l-7.4-10.3l17.8,3.1L167.4,189z"/>
<path class="st1" d="M63.3,181.8l-13.9-7.6l2.2,1.1l13.9,7.6L63.3,181.8z"/>
<path class="st1" d="M65.6,183.3l-13.9-8.1c3.7,1.8,7.6,3.3,11.7,4.4l17.3,8.5C76.5,187.2,69.3,185.2,65.6,183.3z"/>
<path class="st1" d="M77.2,187.3l-14-7.6c8.5,2.1,17.3,2.6,26,1.3H90c7.4-1.1,14.6-3.4,21.5-6.6l14.6,7.5c-6.3,4-12,9.3-19.4,10.5
	l-9.2,1.5c-8.7,1.2-11.5-3.9-20-6.1"/>
<path class="st1" d="M108.8,190.6l2.5-16c4.4-2,8.8-4.8,12.7-7.6l23.3,3.6C147.1,177.3,117.7,193.1,108.8,190.6z"/>
<path class="st1" d="M138.8,175l-14.8-8c3.3-2.2,6.4-4.7,9.3-7.4l31.5-2.6C161.9,159.7,142.1,172.8,138.8,175L138.8,175z"/>
<path class="st1" d="M148.6,167.6l-15.3-8c2.8-2.5,5.5-5.2,8-8l15.3,8C154,162.4,151.4,165.1,148.6,167.6z"/>
<path class="st1" d="M149.8,171.4l-8.7-19.8c2.5-2.8,4.8-5.8,7-8.9l19.1,5.1C165.2,150.9,152.4,168.6,149.8,171.4L149.8,171.4z"/>
<path class="st1" d="M156.1,167.9l-7.9-25.2c2.4-3.3,4.4-6.7,6.3-10.3l29.7-15.8C182.3,120.1,158.4,164.6,156.1,167.9z"/>
<path class="st1" d="M170.3,141l-15.6-8.5c2.2-4.3,4.3-8.7,5.8-13.1l15.6,8.5C174.4,132.3,172.5,136.7,170.3,141z"/>
<path class="st1" d="M169.6,151.9l-9.1-32.6c3.8-10.3,5.8-21.1,6-32.1C166.7,58,153,34.6,132,23l14.7,6.5
	c20.9,11.5,35.6,35.3,35.4,64.4C182,104.9,173.4,141.5,169.6,151.9z M59,189.6L45.1,182l-1.8-1c-0.8-0.6-1.3-1.3-1.6-2.2
	s-0.3-2.2,0.7-3.8l13.6,8.7c-0.3,0.9-0.4,1.8-0.2,2.7c0.2,0.9,0.8,1.7,1.6,2.2L59,189.6"/>
<path class="st1" d="M56,183.7l-14-7.2c0-1,0.4-1.5,0.4-1.5l13.9,8L56,183.7L56,183.7z"/>
<path class="st1" d="M56.2,183l-13.9-7.6c0.7-1.3,1.1-1.2,1.2-1.3l13.3,7.9L56.2,183v0.1V183z"/>
<path class="st1" d="M56.6,182.4l-13.9-7.6c0.1-0.1,1.2-1.6,2.7-1.9l16.1,7.9C61.4,180.9,56.7,182.2,56.6,182.4z"/>
<path class="st1" d="M57.7,187.2L43,174.3l0.4-0.4l18.3,7.9L57.7,187.2z"/>
<path class="st1" d="M57.2,181.5l-13.9-7.6l0.4-0.3l13.9,7.6C57.7,181.2,57.2,181.5,57.2,181.5z M57.8,181.2l-13.9-7.6l0.7-0.3
	l13.9,7.6L57.8,181.2z"/>
<path class="st1" d="M58.4,180.9l-13.9-7.6c0.3-0.2,0.8-0.3,1.1-0.3c0.4-0.1,0.9-0.1,1.3,0l14.9,8c-0.4-0.1-1.9-0.4-2.4-0.3
	C59.2,180.5,58.8,180.6,58.4,180.9z"/>
<path class="st1" d="M61,180.5l-14-7.6l0.6,0.2l13.9,7.6L61,180.5 M61.5,180.8l-13.9-7.6L61.5,180.8z M105.3,15.5L91.4,7.9h0.8
	c9.6-1.3,19.4-0.9,28.9,1.6l14.7,7.9c-9.3-2.4-19.4-2.4-29-1h-0.9"/>
<path class="st1" d="M134.9,17.7l-15.7-8.9c4.5,1.1,10.5,3,14.6,5.1l13.9,7.6C143.5,19.5,139.3,18.8,134.9,17.7z"/>
<path class="st1" d="M147.7,21.5l-13.9-7.6l2.5,1.2l13.9,7.6L147.7,21.5z M164.1,196.8l-13.9-7.6c-1.6-1.6-2.7-3.5-3.4-5.6
	s-0.8-4.4-0.4-6.5l15.5,5.8c-0.3,2.2-1.8,6.3-1.1,8.4S162.5,195.4,164.1,196.8"/>
<path class="st1" d="M160.3,184.7l-13.9-7.6l0.4-3.3l13.9,7.6L160.3,184.7z M27.6,83.4l-13.9-7.6c1.8-4.9,3.9-9.8,6.5-14.5l23.9-1.9
	C41.6,64,29.4,78.4,27.6,83.4z"/>
<path class="st1" d="M34.1,68.9l-13.9-7.6c2.1-3.9,4.4-7.8,7-11.5l13.9,7.6C38.5,61.1,36.1,64.9,34.1,68.9"/>
<path class="st1" d="M35,75.9l-8-26.1c2.4-3.4,4.9-6.7,7.8-9.9l24.4,1.2c-2.9,3.4-21.2,30-23.5,33.5"/>
<path class="st1" d="M45.4,57.9L34.8,40.1c2.7-3.1,5.6-6.1,8.8-8.9l30.9,0.6C71.4,34.7,48.3,54.9,45.4,57.9z"/>
<path class="st1" d="M50.2,50.4l-6.6-19.2c3.3-2.9,6.7-5.7,10.3-8.2L85,23.7C81.4,26.2,53.4,47.5,50.2,50.4z"/>
<path class="st1" d="M67.8,30.6L53.9,23c4.4-3,9-5.7,13.8-8l13.9,7.6C76.8,25,72.2,27.6,67.8,30.6z"/>
<path class="st1" d="M72.6,31.9l-4.9-16.7c7.5-3.6,15.5-6.1,23.7-7.3l33.9,9.4C117.1,18.5,80.2,28.3,72.6,31.9z M34.5,166.1l-14-7.5
	c-0.4-0.2-0.9-0.7-1.2-1.1c-8.3-13.9-12.6-30-12.2-46.3c0.1-12,2.4-24,6.6-35.4l25.8-10.7c-4.2,11.3-18.3,41.7-18.4,53.8
	C20.8,135.1,25,151,33.3,165C33.6,165.5,34,165.9,34.5,166.1"/>
<path class="st4" d="M221.1,242.2L221.1,242.2 M222.8,241.8c4.6-1.6,7.8-5.4,7.8-5.4l0,0l8.1-9.4l0.1,0.1l-0.1-0.1l0,0
	c2.1-2.6,3.5-5.8,3.9-9.1l0,0l0.2-1.8l0,0c0.4-2.1,0.2-4.4-0.3-6.5c-0.7-2.1-1.8-4-3.4-5.6l0,0l-45.3-43l0,0
	c-1.2-1.2-2.8-2.1-4.4-2.6c-1.7-0.6-3.4-0.7-5.1-0.4l0,0c-0.7,0.1-1.3,0.2-2,0.4l0,0l-3,0.9h-0.1l0,0l-8.3-8l-0.1-0.1v-0.1
	c11.1-17.2,17.2-37.1,17.5-57.5c0.4-49.8-36.2-84.6-81.9-78l0,0h-0.9c-46.2,7-83.8,53.3-84.3,103.5l0,0c-0.3,16.2,3.9,32.1,12.2,46
	l0,0c0.3,0.6,0.8,1,1.3,1.2c0.6,0.2,1.2,0.3,1.8,0.2l0,0c0.8-0.1,1.5-0.4,2.1-0.9l0,0c0.9-0.7,1.5-1.7,1.7-2.8s0.1-2.2-0.4-3.3
	c-7.6-12.6-11.5-27.2-11.1-41.9c0.3-45.4,34.6-87.4,76.5-93.9h0.7c41.6-5.8,75.1,25.7,74.6,71.1c-0.4,45.5-34.7,87.5-76.6,93.8l0,0
	h-0.8c-14.4,2.2-29-0.4-41.7-7.8l0,0c-0.7-0.3-1.3-0.4-2-0.3c-0.7,0.1-1.3,0.3-1.9,0.8s-1,0.9-1.3,1.6l0,0c-0.6,0.9-0.8,1.9-0.7,3
	c0.2,1,0.8,2,1.6,2.6c13.8,8,30,11,45.8,8.5h0.8c18-3,34.7-11.5,48.1-24l0.1-0.1l0.1,0.1l8.7,8.2l0,0v0.1l-0.4,3.3l0,0
	c-0.3,2.1-0.2,4.4,0.4,6.5c0.7,2.1,1.8,4,3.4,5.6l0,0l45.4,42.9l0.1,0.1c1.2,1.1,2.6,1.9,4.3,2.4c1.7,0.4,3.4,0.7,5.1,0.3l0,0
	c0.7-0.1,1.3-0.2,2-0.4h0.1l1.2-0.3L222.8,241.8L222.8,241.8z M235.2,215.7L235.2,215.7v0.1l-0.1,1.8l0,0c-0.2,1.5-0.8,2.8-1.7,3.9
	l0,0l-8,9.7l-0.1,0.1l-0.2,0.2c-0.9,0.8-1.8,1.6-3.1,2l-1.6,0.7c-1.5,0.8-3.1-0.1-3.1-0.1c-0.8-0.2-1.3-0.7-1.9-1.1l0,0l-45.6-42.8
	l0,0c-0.7-0.7-1.2-1.6-1.5-2.5s-0.3-1.9-0.2-2.8l0,0l0.6-3.9l0,0l10.8-13.1l0,0l3.6-1.1l0,0c0.3-0.1,0.6-0.2,0.9-0.2
	c0.8-0.1,1.5-0.1,2.2,0.1c0.7,0.2,1.3,0.6,2,1l0,0l45.4,42.9l0,0c0.7,0.7,1.2,1.6,1.5,2.5C235.2,213.8,235.3,214.8,235.2,215.7
	 M167.1,160.3l-7.1,8.4l-0.1,0.1l0.1,0.1l3.8,3.5l1.1,1.1l0.8-1l6.3-7.8l0.1-0.1l-0.1-0.1L167.1,160.3L167.1,160.3L167.1,160.3z"/>
<path class="st1" d="M165,173.3l-4.9-4.5l6.9-8.2l5.1,4.2L165,173.3L165,173.3z"/>
<path class="st3" d="M172.1,164.7l-5.7-3.4l0.8-1.1L172.1,164.7L172.1,164.7z"/>
<path class="st0" d="M71.9,164.8L58,157.2l1.8,0.9l13.9,7.6C73.1,165.5,72.5,165.1,71.9,164.8"/>
<path class="st0" d="M73.6,165.8l-13.9-7.6c2.9,1.5,8.5,3.3,11.7,4l13.9,7.6C82.2,169,76.3,168.2,73.6,165.8z"/>
<path class="st0" d="M83,169.3l-14-7.6c6.7,1.7,13.7,2,20.5,1c6.1-0.9,11.9-2.6,17.4-5.2l13.9,7.6c-5.5,2.6-11.3,4.4-17.4,5.2
	C96.7,171.3,89.7,171,83,169.3z"/>
<path class="st0" d="M113.1,169.5l-6.2-12.1c3.4-1.6,6.5-3.5,9.6-5.5l21.7,4.2C135.1,158.2,116.5,167.9,113.1,169.5z"/>
<path class="st0" d="M130.4,159.5l-13.9-7.6c2.5-1.8,4.9-3.6,7.2-5.7l22.8,5.4C144.1,153.7,132.9,157.8,130.4,159.5z"/>
<path class="st0" d="M137.5,153.9l-13.9-7.6c2.1-1.9,4.2-3.9,6.2-6.2l13.9,7.6C141.7,149.9,139.7,152,137.5,153.9z"/>
<path class="st0" d="M139,158.2l-9.4-18.1l1.8-2c1.2-1.5,2.5-3,3.5-4.7l23.4-0.2c-1.1,1.6-11.8,10.9-13,12.5
	C145.2,145.6,139,158.2,139,158.2z"/>
<path class="st0" d="M146.9,145.7l-12-12.2c1.8-2.5,3.4-5.2,4.8-7.9l17,5.5C155.2,133.8,148.7,143.1,146.9,145.7L146.9,145.7z"/>
<path class="st0" d="M153.7,133.1l-13.9-7.6c1.7-3.3,3.3-6.5,4.5-10l14.2,7.6c-1.2,3.5-2.7,6.7-4.5,10"/>
<path class="st0" d="M158.3,123.2l-7.8-2.2l-6.4-5.4c3-8.1,4.7-16.5,4.7-25.2c0.2-12.8-3.7-25.4-11.1-35.8c-0.4-0.6-0.7-1.3-0.8-2
	c-0.1-0.8-0.2-2.4,0.8-3.3l13.5,8.8c-0.3,0.7-0.4,1.3-0.3,2.1c0,0.7,0.2,1.5,0.7,2c13.9,6.9,11.3,23,11.1,35.8
	C162.8,106.6,161.3,115.1,158.3,123.2L158.3,123.2z"/>
<path class="st0" d="M151.2,57.9l-13.9-7.6l0.3-0.7l13.9,7.6C151.3,57.5,151.2,57.7,151.2,57.9z"/>
<path class="st0" d="M151.4,57.3l-13.9-7.6c0.1-0.2,0.2-0.3,0.3-0.6l13.9,7.6C151.6,56.8,151.5,57,151.4,57.3z M151.7,56.7
	l-13.9-7.6c0.1-0.1,0.2-0.3,0.3-0.4l14,7.6L151.7,56.7"/>
<path class="st0" d="M152.2,56.3l-13.9-7.6l0.3-0.4l13.9,7.8l-0.4,0.4"/>
<path class="st0" d="M152.5,55.9l-13.9-7.6l0.4-0.4l13.9,7.6L152.5,55.9z"/>
<path class="st0" d="M152.6,66.9l-13.5-19.1l0.7-0.3l16.7,8.7C156.6,56.1,152.6,66.9,152.6,66.9z"/>
<path class="st0" d="M153.1,57.5l-13.3-10.1c0.3-0.2,0.8-0.3,1.2-0.3c0.4-0.1,0.9-0.1,1.5,0l14.6,8.1c-0.4-0.1-1,0.4-1.5,0.4
	C155.1,55.6,153.4,57.4,153.1,57.5z"/>
<path class="st0" d="M156.4,54.7l-14-7.7c0.2,0,0.4,0.1,0.7,0.2l13.9,7.6C156.8,54.9,156.6,54.8,156.4,54.7L156.4,54.7z"/>
<path class="st0" d="M156.9,54.9L143,47.4l14,7.6"/>
<path class="st5" d="M139.6,50.4l-13.9-7.6l-0.2-0.1c-1.2-0.9-2.6-1.7-4-2.5l13.9,7.6c1.3,0.8,2.7,1.6,4,2.5L139.6,50.4z"/>
<path class="st6" d="M103.8,33.7L103.8,33.7c-37.2,5.2-67.2,42-67.3,82.1s30.1,68.3,67.2,63.2c37.1-5.2,67.3-42,67.3-82.1l0,0
	c0.2-14.6-4.2-28.9-12.7-40.8c-0.3-0.4-0.9-0.8-1.5-1s-1.2-0.2-1.8-0.1l0,0c-0.9,0.1-1.7,0.6-2.4,1.1l0,0c-0.8,0.8-1.3,1.7-1.6,2.8
	c-0.2,1.1,0,2.2,0.6,3.1c7.5,10.5,11.5,23.1,11.1,36l0,0v0.4c-0.2,17.4-6.4,33.8-17.5,47.2v0.1c-10.5,13.1-25.3,21.9-41.8,24.6l0,0
	c-7.5,1.2-15.2,0.7-22.4-1.6c-7.3-2.2-13.9-6.1-19.4-11.2l0,0c-5.6-5.6-10.1-12.2-13-19.7c-2.9-7.4-4.4-15.3-4.2-23.3
	c0.2-17.4,6.3-34.3,17.4-47.8c10.3-13.1,25.3-21.9,41.8-24.6l0,0c12.5-1.9,25.2,1,35.7,8c0.7,0.4,1.6,0.7,2.4,0.6
	c0.7-0.1,1.2-0.3,1.8-0.7c0.6-0.3,1-0.9,1.3-1.5l0,0c0.7-0.9,1-2,0.8-3.1c-0.1-1.1-0.7-2.1-1.6-2.8
	C132.3,34.7,117.9,31.4,103.8,33.7"/>
</svg>
