<?xml version="1.0" encoding="utf-8"?>
<!-- Generator: Adobe Illustrator 24.0.0, SVG Export Plug-In . SVG Version: 6.00 Build 0)  -->
<svg version="1.1" id="Слой_1" xmlns="http://www.w3.org/2000/svg" xmlns:xlink="http://www.w3.org/1999/xlink" x="0px" y="0px"
	 viewBox="0 0 250 250" style="enable-background:new 0 0 250 250;" xml:space="preserve">
<style type="text/css">
	.st0{fill:#9A384B;}
	.st1{fill:#40689D;}
	.st2{fill:#882F40;}
	.st3{fill:#E87891;stroke:#000000;stroke-width:0.25;}
	.st4{fill:#B4D1FA;stroke:#000000;stroke-width:0.25;}
	.st5{fill:#5E6D82;}
	.st6{fill:#2F527F;}
	.st7{fill:#285EA4;}
	.st8{fill:#793E4B;}
	.st9{fill:#7D414E;}
	.st10{fill:#824351;}
	.st11{fill:#874654;}
	.st12{fill:#E87891;stroke:#000000;stroke-width:0.2;}
	.st13{fill:#B4D1FA;stroke:#000000;stroke-width:0.2;}
</style>
<path class="st0" d="M137.4,240.1l-11.1-6.1c-12-6.6-21.7-16.8-27.7-29.2c-5.2-10.6-7-23-7-36c-0.1-11.7,1.8-23.3,5.8-34.3l11.1,6.1
	c-3.9,11-5.9,22.6-5.8,34.3c0,13,2.3,24.9,7.6,35.5C116.2,223,125.3,233.6,137.4,240.1z"/>
<path class="st0" d="M107.7,142.4l-10.4-8.1c1.1-2.8,2.3-5.7,3.7-8.4c0.4-0.9,2.5-4.2,2.9-5l11.7,6.4c-0.5,0.9-2.1,4.6-2.5,5.6
	c-1.4,2.7-3.6,6.1-4.6,9"/>
<path class="st1" d="M77.5,44l-11.7-6.2c0.7-0.1,2.6-0.6,3.4-0.5L81.7,44c-0.7-0.2-2.3-0.1-3,0"/>
<path class="st1" d="M80.3,43.6l-11.1-6.1c0.3,0.1,0.7,0.2,1.1,0.4L81.4,44C81,43.8,80.7,43.6,80.3,43.6z M81.4,43.9l-11.1-6.1h0.2
	l11.1,6.1H81.4z M37.2,121.3l-11.7-6.6c-4.1-13.6-4.1-28.1,0-41.6l0.6-1.9l13.1,6.5l-0.6,1.9c-4.1,13.6-5.6,27.7-1.5,41.2"/>
<path class="st1" d="M36.8,87.8L26.2,71.1c0.8-2.3,3.4-8,4.5-10.2l16,6.8C45.6,70,37.6,85.4,36.8,87.8z"/>
<path class="st1" d="M-5.4,3"/>
<path class="st1" d="M38.3,79.8l-5.8-20.5c1.1-1.5,2.2-2.9,3.4-4.3l19.7-1C54.3,55.4,39.3,78.3,38.3,79.8z"/>
<path class="st1" d="M47,60.9l-11.1-6.1c1.1-1.2,2.1-2.2,3.3-3.3l0.8-0.7l13,4.7l-2.7,2.1C49.1,58.7,48,59.8,47,60.9z"/>
<path class="st1" d="M51.1,56.8l-11.3-6c1.7-1.5,3.4-2.8,5.2-4.1l11.1,6c-1.8,1.3-2.1,3.2-3.8,4.6"/>
<path class="st1" d="M56.1,54.3l-11-7.7c2.6-1.8,5.3-3.4,8.1-4.7L64.3,48C61.6,49.4,58.7,52.5,56.1,54.3z"/>
<path class="st1" d="M47.3,61l6-19c4.2-1.9,8.5-3.5,13-4.5H67l11.1,6l-0.6,0.1C73,44.6,51.4,59,47.3,61z"/>
<path class="st0" d="M84.1,219l-11.4-6.5l10.2-1.5l15.2,6.7C98.2,217.7,84.1,219,84.1,219z"/>
<path class="st2" d="M79.8,227.3L67.4,221c-0.9-0.5-1.6-1.3-2.1-2.2s-0.7-1.9-0.7-2.9l11.1,6.1c0,1.1,0.9,1.9,1.5,2.7
	c0.5,0.8,1.1,1.2,1.9,1.8"/>
<path class="st2" d="M76.9,224.3l-12.4-8.5l0.1-63.5l11.6,5.3L76.9,224.3z M98.6,219.6l-15.8-8.5l0.3-181.3L95.5,35L98.6,219.6z"/>
<path class="st0" d="M63.9,155.2l-8.8-10.3l17.8-2.5l11.1,6.1L63.9,155.2z"/>
<path class="st2" d="M33.5,225.6l-11.1-6.1l32.7-74.7l11.1,6.1L33.5,225.6z"/>
<path class="st0" d="M18.5,227.7l-11.1-6.1l15.2-2.6l11.4,6.5L18.5,227.7z"/>
<path class="st2" d="M11.9,236.5l-11.1-6.2c-1.3-0.7-2.2-2-2.6-3.5c-0.4-1.5-0.5-3.8,1.7-7.4l10.3,9.1c-0.6,1.4-0.4,2.2,0,3.7
	s0.6,3.3,1.9,4.1"/>
<path class="st2" d="M9.4,228.7l-11.1-6.1l0.3-0.7L9.7,228C9.8,228.2,9.5,228.4,9.4,228.7z"/>
<path class="st0" d="M46.3,151.3l-6.7-7.4l4.5,1.1l11.1,6.1C55.3,151.1,46.3,151.3,46.3,151.3z"/>
<path class="st2" d="M10.5,231.9l-11.9-10.1l34-70.8l11.1,6.1L10.5,231.9L10.5,231.9z"/>
<path class="st0" d="M45.7,148l-11.1-6.1l0.9,0.5l11.1,6.1L45.7,148"/>
<path class="st0" d="M46.7,148.5l-11.1-6.1c1.3,0.6,2.5,1.2,3.9,1.5l11.1,6.1C49.2,149.6,47.8,149.2,46.7,148.5z"/>
<path class="st0" d="M50.4,150l-11.1-6.1h0.3l11.1,6.1C50.8,150,50.4,150,50.4,150z M84.4,27.9l-11.1-6.1c4.2-0.5,8.5-0.9,12.8-0.9
	c0.4,0,1.5,0.1,1.9,0.3l11.4,6.2C99,27.3,97.6,27,97.2,27C92.9,27,88.6,27.3,84.4,27.9z"/>
<path class="st0" d="M98.6,27.1L87.5,21l0.9,0.3l11.1,6.1C99.6,27.4,98.6,27.1,98.6,27.1z"/>
<path class="st0" d="M99.6,27.5l-11.1-6.1h0.2l11.1,6.1H99.6z"/>
<path class="st2" d="M41.3,156l-11.1-6.1c-10.3-5.6-22.3-19.1-24.5-44.8L21,110C23.4,135.7,31,150.4,41.3,156z"/>
<path class="st0" d="M16.7,111.2l-11.1-6.1l8.1-2l11.1,6.1L16.7,111.2z M17,88.3L5.9,82.1c0.5-5.4,1.8-10.7,3.7-15.9l13.8,4.4
	C21.3,75.9,17.5,82.8,17,88.3"/>
<path class="st0" d="M20.6,72.5L9.5,66.4c0.9-2.6,2.1-5.3,3.5-7.7l11.1,6C22.8,67.2,21.6,69.9,20.6,72.5z"/>
<path class="st0" d="M19.5,73.6l-6.6-14.8c1.1-2.1,2.3-4,3.7-6L32,53.5C30.7,55.4,20.7,71.6,19.5,73.6z"/>
<path class="st0" d="M27.7,58.8l-11.1-6.1c1.3-1.8,2.7-3.6,4.2-5.3L37,48.3C35.5,50.1,29.1,56.9,27.7,58.8z"/>
<path class="st0" d="M31.9,53.5l-12.2-4.8c1.8-2.3,5.6-6.1,7.4-7.7l12.5,6.3c-1.8,1.6-6.2,6.4-7.9,8.2"/>
<path class="st0" d="M37,48.3l-10.6-6.7c2.2-2,6.1-4.7,9.5-6.6l8.2,8C41.6,44.6,39.2,46.4,37,48.3z"/>
<path class="st0" d="M44,43l-11.1-6.1c2-1.4,4-2.6,6.1-3.8c1.7-0.9,3.5-1.9,5.2-2.7L58,36c-1.8,0.8-6.1,2.2-7.9,3.3
	C48,40.2,46,41.6,44,43"/>
<path class="st0" d="M55.4,38.1l-11.3-7.8c9.3-4.2,19.8-7.3,29.8-8.6L93,27.1C83,28.4,64.6,33.9,55.4,38.1z"/>
<path class="st3" d="M84.4,28c4.2-0.6,8.5-0.9,12.8-0.9c0.7,0,1.5,0.2,2.1,0.4c0.6,0.3,1.3,0.7,1.7,1.3c0.5,0.5,0.8,1.2,1.1,1.8
	s0.3,1.4,0.3,2.1l-0.3,185.5c0,1.7-0.6,3.4-1.7,4.7c-1.1,1.4-2.6,2.2-4.3,2.5l-14.2,2c-0.7,0.1-1.6,0-2.3-0.2
	c-0.7-0.2-1.5-0.6-2-1.2s-1.1-1.2-1.3-1.9c-0.3-0.7-0.4-1.5-0.3-2.3v-63.6h-0.1l-4.4,0.6h-0.1v0.1l-31.1,70.8
	c-0.5,1.1-1.3,2.1-2.2,2.8s-2,1.3-3.3,1.5L15,236.9c-2.2,0.3-4-0.7-5-2.4c-0.9-1.7-1.2-4.1-0.1-6.4l34-70.8v-0.1h-0.1
	c-10.7-4.7-24.4-18.3-26.9-45.8l7.9-2.1c2.6,28.2,18.1,38.9,26.1,40.8l4.4,1.1l-36.7,76.4l-0.1,0.2h0.2l14.9-2.1h0.1v-0.1L66.3,151
	l17.6-2.4v70.1H84l10.2-1.5h0.1v-0.1l0.3-181.4v-0.1h-0.1c-3.4,0.1-6.6,0.4-10,0.8c-10.9,1.5-21.7,4.8-31.3,10.1
	C38.8,54.7,27.1,67.5,25,88l-7.9,0.1c2.6-24.4,16.8-40,33-49C60.8,33.4,72.4,29.6,84.4,28z"/>
<path class="st1" d="M56.7,130.9l-11.1-6.1l0.7,0.3l11.3,6C57.2,131.1,57,131,56.7,130.9"/>
<path class="st1" d="M57.3,131.5l-11-6.4c0.9,0.4,2,0.8,3,1.2l0.8,0.2l12.1,6.2h-1.8C59.4,132.3,58.3,131.9,57.3,131.5"/>
<path class="st1" d="M61.3,132.7l-11.1-6.1c3.4,0.8,6.8,0.9,10.3,0.4c1.4-0.2,4.2-0.7,5.5-1.1l10.3,6.3c-1.4,0.3-3.3,0.6-4.6,0.8
	C68.1,133.7,64.6,133.5,61.3,132.7"/>
<path class="st1" d="M77.2,132.9l-12.6-5V47.4l12.6,5V132.9z M51.9,139.5l-11.1-6.1c-6-3.3-11.4-9.1-15.2-18.7l12.7-7.5
	C43,116.7,45.9,136.2,51.9,139.5z"/>
<path class="st4" d="M78.1,43.4c0.8-0.1,1.6-0.1,2.4,0.1c0.7,0.2,1.5,0.6,2.1,1.2c0.6,0.5,1.1,1.2,1.4,2c0.3,0.7,0.4,1.6,0.4,2.3
	l-0.1,84.5c0,1.7-0.5,3.3-1.5,4.5c-0.9,1.4-2.3,2.3-3.9,2.8c-2.4,0.7-4.8,1.3-7.4,1.7c-4.8,0.7-9.8,0.4-14.5-0.9
	c-8-2.4-15.4-8.7-20.3-20.9c-4.1-13.6-4.1-28.1,0-41.6c2.6-8,7.3-15.5,13.5-21.3c7.7-6.9,17-11.9,27.2-14.1
	C77.5,43.6,78.1,43.4,78.1,43.4z M75.7,132.2l0.1-78.8c-7.6,2-14.5,5.8-20.3,10.9C50.7,69,47,74.8,45,81.1c-3.4,11.5-3.4,23.6,0,35
	c3.5,8.7,8.7,14.2,15.5,16.2c3.6,1.1,7.5,1.3,11.1,0.6C73,132.9,74.3,132.7,75.7,132.2z"/>
<path class="st5" d="M224.4,216l-11.1-6.1l-0.3-0.2l11.1,6.1C224.2,215.9,224.3,216,224.4,216z"/>
<path class="st1" d="M201.6,193.4l-11.1-6.1c6.1-6.3,7.2-9.7,7.9-10.6l5.8,14C203.1,191.8,202.3,192.6,201.6,193.4z"/>
<path class="st1" d="M204.1,190.7l-11.1-6.1l0.2-0.2c0.8-1.1,1.7-2.1,2.4-3.2l11.1,6.1c-0.7,1.1-1.6,2.2-2.4,3.2L204.1,190.7z"/>
<path class="st1" d="M204.3,190.8l-8.8-9.6c1.3-1.8,2.5-3.8,3.6-5.8l19.6-1.6c-1.1,2-10.6,12.6-11.9,14.5"/>
<path class="st1" d="M210.3,181.6l-11.1-6.1l0.8-1.7c1.1-2.2,2.1-4.5,2.9-6.7l11.1,6.1c-0.8,2.2-1.8,4.5-2.9,6.7L210.3,181.6z"/>
<path class="st1" d="M214.1,173.1l-11.3-6.1c0.6-1.8,1.3-3.7,1.7-5.5c0-0.2,0-0.3,0.2-0.5l11.4,6.1c0,0.2,0,0.4-0.2,0.5
	C215.4,169.5,214.8,171.3,214.1,173.1"/>
<path class="st1" d="M216.1,167.1L205,161c0.1-0.2,0.2-0.5,0.3-0.7l11,6.2c-0.1,0.2-0.2,0.4-0.3,0.7"/>
<path class="st1" d="M216.3,166.5l-11.1-6.1c0.1-0.2,0.2-0.4,0.3-0.5l11.1,6.1C216.6,166.1,216.4,166.3,216.3,166.5z M216.6,165.8
	l-11.1-6.1l0.4-0.5l11.1,6.1L216.6,165.8z"/>
<path class="st1" d="M217.6,165.3l-15.1-6.7c0.4-0.2,5-1.2,5.5-1.3h1.2c0.6,0.1,0.9,0.2,1.3,0.4l0.5,0.2l11.9,6.7h-1.5
	C220.9,164.7,218.1,165,217.6,165.3L217.6,165.3z M157.2,202l-11.3-6l1.2,0.6l11.1,6.1C157.8,202.4,157.5,202.3,157.2,202"/>
<path class="st1" d="M156.4,206.2l-3.3-7.5c4.4,1.2,8.9,1.4,13.5,0.7c4-0.6,7.8-1.8,11.4-3.5l13.6,6.4c-3.6,1.7-10,4.3-14,4.8
	c-4.5,0.6-9.6-0.1-14-1.3"/>
<path class="st1" d="M189.1,202.1l-16.3-4.1c3.2-1.1,9.4-4.2,11.4-5.6l11.3,6C193.5,199.7,191.4,200.9,189.1,202.1"/>
<path class="st1" d="M191.6,205.4l-7.4-13c1.7-1.2,3.2-2.3,4.6-3.7l19.1,1.5c-1.5,1.4-5,6.7-6.7,7.9"/>
<path class="st1" d="M200.1,194.8l-11.1-6.1l5.5-5l7.2,9.9L200.1,194.8"/>
<path class="st6" d="M204.9,129.3l-12-6.2c-0.2-0.1-0.4-0.2-0.5-0.3c-1.5-1.3-3.2-2.4-4.9-3.4l11.3,5.7c1.8,0.9,4.1,2.5,5.7,3.8
	C204.6,129.1,204.7,129.2,204.9,129.3z M152.8,210.4l-11.6-6c-7.5-4.1-13.5-10.4-17.1-18.1c0-0.1-0.1-0.2-0.2-0.3l13.6,2.4l1.7,2.7
	C142.8,198.8,145.4,206.3,152.8,210.4L152.8,210.4z"/>
<path class="st1" d="M115.5,200.2l-11.1-6.1l16.4-16.8l14,5.5L115.5,200.2z"/>
<path class="st6" d="M133.1,184l-12.3-6.7c-1.1-4.2-1.6-8.5-1.6-12.9c0-6.1,1.1-12.2,2.9-17.9l12.2,4.4c-1.9,5.8-2.5,13.8-2.5,19.8
	C131.8,174.9,132,179.7,133.1,184L133.1,184z"/>
<path class="st1" d="M137.1,143.4l-11.1-6.1l0.9-1.8l11.7,5.9L137.1,143.4L137.1,143.4z"/>
<path class="st1" d="M137.7,142.2l-11.1-6.1c1.2-2.2,2.4-4.3,3.9-6.3l11.1,6.1C140.1,138,138.8,140.1,137.7,142.2L137.7,142.2z"/>
<path class="st1" d="M141.5,138.9l-11.1-8.9c2.3-3.3,4.6-6.3,7.8-9l9.7,9C146.3,131.6,142.9,137,141.5,138.9L141.5,138.9z"/>
<path class="st1" d="M145.8,130.6l-11.1-6.1c1.6-1.7,3.2-3.4,4.9-4.9l11.1,6.1C149,127.2,147.3,128.9,145.8,130.6z"/>
<path class="st1" d="M148.6,129.8l-9-10.2c1.8-1.7,3.8-3.2,5.8-4.6l14.1,4.6c-2.1,1.5-6.9,4.4-8.7,6.1"/>
<path class="st1" d="M156.3,121.2l-11.1-6.1c2.4-1.7,5-3.2,7.7-4.4l18.8,3.7C169.1,115.5,158.8,119.4,156.3,121.2"/>
<path class="st1" d="M158.2,122.6l-5.4-11.9c4.4-2.1,9-3.5,13.9-4.2l11.1,6.1c-4.7,0.7-9.5,2.1-13.9,4.2"/>
<path class="st7" d="M133.3,152.5l-11.1-6.1l-10.7-7.4l5.8,2.5L133.3,152.5L133.3,152.5z"/>
<path class="st0" d="M248.7,171.4l-12.7-6.1c1.2-0.3,1.8-0.6,3.7,0l10.9,6.1H248.7L248.7,171.4z"/>
<path class="st0" d="M250.6,171.5l-11.1-6.1l11.4,6.1"/>
<path class="st2" d="M248.6,161.6l-11.1-6.1c-0.6-0.4-1.2-0.9-1.6-1.6c-0.3-0.6-0.5-1.4-0.4-2.1v-3c0-4-0.3-8.1-0.9-12l11.8,5.5
	c0.6,4,0.8,8.7,0.7,12.7c0,1.1,0.4,2,0.4,3c-0.1,0.7-0.3,1.2,0,1.8s1.2,0.8,1.8,1.3"/>
<path class="st0" d="M249.3,132.9l-11.3-6.1c0.5-0.1,1.1-0.1,1.5,0l11.1,6.1C250.3,132.8,249.8,132.8,249.3,132.9"/>
<path class="st0" d="M249.9,132.9l-11-6.2l1.7,0.4l11.1,6.1L249.9,132.9L249.9,132.9z M251.5,133.2l-11.1-6.1L251.5,133.2z
	 M181.2,175.7l-9.4-12.2l33.2-5.6l11.6,6.7L181.2,175.7L181.2,175.7z M176.2,179.2l-11.1-6.1c-0.3-0.1-0.5-0.3-0.7-0.5
	c-0.4-0.4-0.7-0.9-0.9-1.5c-0.2-0.5-0.3-1.2-0.3-1.7l11.1,6.1c0,0.6,0.1,1.2,0.3,1.8c0.2,0.5,0.5,1.1,0.9,1.5
	C175.7,179,175.9,179.1,176.2,179.2 M204.5,121.2l-11.7-7l15.7-20l11.7,6L204.5,121.2z"/>
<path class="st8" d="M204.8,127.3l-11.1-6.1c-0.2-0.1-0.4-0.3-0.6-0.4c-0.6-0.6-1.2-1.5-1.3-2.4c-0.2-0.9-0.1-1.9,0.2-2.7l11.1,6.1
	c-0.3,0.8-0.4,1.8-0.2,2.7c0.2,0.9,0.6,1.7,1.3,2.4C204.3,127,204.6,127.2,204.8,127.3z"/>
<path class="st9" d="M203.1,121.7l-11.1-6.1c0-0.2,0.2-0.5,0.3-0.7l11.1,6.1C203.3,121.3,203.2,121.5,203.1,121.7z"/>
<path class="st10" d="M203.4,121l-11.1-6c0-0.2,0.2-0.4,0.3-0.6l11.1,6C203.7,120.7,203.6,120.9,203.4,121"/>
<path class="st11" d="M203.8,120.5l-11.1-6.1l0.2-0.2l11.1,6.1L203.8,120.5z"/>
<path class="st0" d="M142,231.5l-11.1-6.1l2.1,1.1l11.1,6.1L142,231.5"/>
<path class="st0" d="M144.1,232.7l-11.1-6.1c3.5,1.7,7,3,10.7,4l11,6C151.1,235.6,147.5,234.3,144.1,232.7L144.1,232.7z"/>
<path class="st0" d="M154.9,237.4l-12.6-7.3c7.7,2,17.2,2.7,25,1.6c6.9-0.9,13.7-3,20-6l11.1,6.1c-6.3,3-12.7,5.5-19.7,6.4
	C171,239.4,162.5,239.4,154.9,237.4L154.9,237.4z"/>
<path class="st0" d="M194.7,236.5l-7.5-10.8c3.8-1.8,7.5-3.9,10.9-6.3l12.5,6.3c-3.5,2.4-8.6,4.6-12.5,6.4"/>
<path class="st0" d="M209.8,226l-13.4-5.5c2.8-2,8.9-6.7,11.6-9.1l21-0.5C226.4,213.3,212.7,224,209.8,226z"/>
<path class="st0" d="M218.3,219.4l-11.9-6.5c2.4-2.2,4.7-4.5,6.9-7l11.1,6.1C222.4,214.4,220.7,217.2,218.3,219.4L218.3,219.4z
	 M224.6,211.9l-11.1-6.1l0.4-0.5c2-2.3,3.9-4.8,5.7-7.4l11.3,6.1c-1.8,2.5-3.7,5-5.7,7.4L224.6,211.9"/>
<path class="st0" d="M228.5,211.8l-9.6-13c2-2.8,4.9-7.4,6.6-10.5l18.8-1.5C242.6,190,230.5,208.9,228.5,211.8L228.5,211.8z"/>
<path class="st0" d="M236.3,195.1l-11.1-6.1c2-3.7,3.7-7.5,5.2-11.5l12.4,5.9c-1.5,3.9-3.5,8.5-5.5,12.2"/>
<path class="st0" d="M240.1,187.1l-10.3-8.5c1.1-2.8,2.3-6.7,3-9.7c0-0.2,0.6-3,3-3.7l13.5,6.2c0,0.2-5.3,3.4-5.4,3.6
	c-0.7,2.9-1.1,6.8-2.1,9.7"/>
<path class="st0" d="M244.2,174.4l-11-6.1c0.1-0.2,0.2-0.5,0.3-0.7l11.1,6.1C244.6,174,244.5,174.2,244.2,174.4"/>
<path class="st0" d="M244.6,173.7l-11.1-6.1c0-0.2,0.2-0.4,0.3-0.6l11.1,6.1C244.8,173.3,244.7,173.5,244.6,173.7z"/>
<path class="st0" d="M245,173.1l-11.1-6.1l0.4-0.5l11.4,6.1l-0.4,0.5"/>
<path class="st0" d="M245,173.1l-10.9-6.6l0.4-0.4l11.1,6.1l1.1-0.8"/>
<path class="st0" d="M246.2,172.6l-11.7-6.5c0.2-0.1,0.3-0.3,0.5-0.4l11.1,6.1C246.1,171.9,246.5,172.4,246.2,172.6L246.2,172.6z
	 M246.3,171.8l-11.1-6.1l0.7-0.4l11.1,6.1L246.3,171.8"/>
<path class="st0" d="M246.2,172l-11.6-6.1c0.6-0.6,2-0.8,2.4-0.9c0.4-0.1,0.7-0.1,1.2,0l11.1,6.1c-0.4-0.1-0.7-0.1-1.2,0
	C247.8,171.1,246.7,171.8,246.2,172L246.2,172z"/>
<path class="st8" d="M219.6,100.4l-11.1-6.2c-1.9-1.2-3.8-2.2-5.7-3.3L214,97C215.7,98.1,217.6,99.1,219.6,100.4"/>
<path class="st0" d="M176.9,144.6l-9.1-7.9l70.2-10l13.6,6.4L176.9,144.6z"/>
<path class="st0" d="M174.4,177.2l-11.5-7.9l0.1-27.4l13.9,0.3L174.4,177.2L174.4,177.2z"/>
<path class="st0" d="M174.5,148.8L163,142c0-0.6,0.2-1.9,0.5-2.5l10.9,6.7c-0.2,0.6,0.6,2,0.6,2.6"/>
<path class="st0" d="M174.5,146.2l-11.1-6.1c0.2-1.2,1.6-1.9,1.7-2.1l9.8,7.5C174.7,145.7,174.6,145.9,174.5,146.2z"/>
<path class="st0" d="M175,145.5l-11.1-6.1c0.1-0.2,0.2-0.4,0.3-0.5l11.1,6.1C175.1,145.1,175,145.3,175,145.5z"/>
<path class="st0" d="M174.1,151l-10-12.1l0.3-0.3c1.1-1.2,2.9-1.8,3.6-1.8l24.4,3.8l-16.6,4.1l-1.7,7.7"/>
<path class="st12" d="M253.5,135.9c1.2,5.8,1.8,11.7,1.8,17.7v3.4c0,1.2-0.5,2.3-1.3,3.3c-0.7,0.9-1.8,1.6-3,1.8
	c-0.5,0.1-1.2,0-1.7-0.2s-1.1-0.5-1.5-0.8c-0.4-0.4-0.7-0.8-0.9-1.5c-0.2-0.5-0.2-1.2-0.2-1.7v-3c0-4-0.3-8.1-0.9-12.1v-0.1h-0.1
	l-62.8,8.8h-0.1v18.3h0.1l37.8-5.6c0.4,0,0.8,0.1,1.3,0.3c0.1,0,0.2,0.1,0.2,0.1l-1.7,9.1l-42,5.9c-0.5,0.1-1.1,0.1-1.6-0.1
	c-0.5-0.1-0.9-0.4-1.4-0.7c-0.4-0.4-0.7-0.8-0.9-1.4c-0.2-0.5-0.3-1.1-0.3-1.7v-27.4c0-1.4,0.4-2.6,1.4-3.7c0.7-0.9,1.8-1.6,3-1.8
	l70.8-10c0.9-0.1,1.9,0.1,2.7,0.7C252.9,134.1,253.4,135,253.5,135.9L253.5,135.9z"/>
<path class="st0" d="M113.5,129.6l-11.1-6.1c1.9-3.5,4-6.9,6.2-10.1l17.7,0.9C124,117.5,115.3,126.1,113.5,129.6z"/>
<path class="st0" d="M119.7,119.5l-11.1-6.1c2.1-3,4.4-6,6.9-8.7l14.8,1.5C127.8,108.9,121.8,116.5,119.7,119.5"/>
<path class="st0" d="M126.7,110.7l-11.5-5.6c2.4-2.7,5.4-6,8.1-8.4l18.3,2C138.9,101.2,129.1,107.9,126.7,110.7z"/>
<path class="st0" d="M134.5,102.8l-11.1-6.1c2.9-2.6,6.1-5,9.4-7.4l11.1,6.1C140.5,97.7,137.4,100.2,134.5,102.8L134.5,102.8z"/>
<path class="st0" d="M142.4,97.8l-9.9-8.4c3.9-2.7,8.2-5.2,12.5-7.2l13.9,5.3C154.4,89.5,146.2,95.1,142.4,97.8z"/>
<path class="st0" d="M157,89.2l-12.1-6.9c7.2-3.4,14.7-5.7,22.5-6.8c8.4-1.4,17.1-1.1,25.4,0.9l11.1,6.1c-8.3-2-16.9-2.3-25.4-0.9
	c-7.8,1.2-14.2,4.2-21.3,7.6"/>
<path class="st0" d="M201.9,82.6l-14-7.3c1.3,0.3,4.2,0.6,9.1,1.8c2.6,0.9,15.1,4.8,23.7,11.6l9.1,6.7c-2.5-1.3-19.6-10.9-22.2-11.8
	c-1.2-0.3-2.4-0.7-3.6-1.1"/>
<path class="st12" d="M252.4,176.3c-3.9,15.1-11.3,29.2-21.6,41c-13.4,16-32,26.5-52.5,29.8c-13.8,2.2-28-0.2-40.3-6.7
	c-12.4-6.5-22.3-16.8-28.3-29.4c-5.3-10.6-7-22.9-7-36c-0.2-14.8,2.9-29.4,9.4-42.7c13.1-26.5,38.2-46.7,66.6-50.7
	c9.7-1.7,19.6-0.9,28.9,2c7.4,2.8,14.5,6.4,21,10.8c0.5,0.3,0.9,0.7,1.3,1.3s0.5,1.2,0.5,1.8c0.1,1.4-0.3,2.7-1.2,3.8l-19.1,24.5
	c-1.2,1.2-1.9,1.7-3.2,1.9c-0.5,0.1-1.1,0-1.6-0.1s-0.9-0.4-1.4-0.7c-0.8-0.8-1.3-2-1.4-3.2c0-1.2,0.4-2.3,1.2-3.3l15.7-19.9
	l0.1-0.1l-0.1-0.1c-4.8-3.2-10.1-5.7-15.5-7.7c-8.2-2.6-17-3.2-25.6-1.7c-25.2,3.4-47.3,21.2-59.1,44.9c-5.7,11.9-8.4,24.8-8.2,38
	c0,12.1,1.7,22.9,6.1,31.9c5.4,11.3,14.1,20.4,25.1,26.2s23.6,7.9,35.9,5.9v-0.1v0.1c18.2-2.9,34.8-12.3,46.7-26.4
	c9.1-10.5,15.7-23,19.1-36.5c0.2-0.9,0.7-1.9,1.5-2.6c0.7-0.7,1.7-1.2,2.6-1.4c0.3-0.1,0.7-0.1,1.2,0s1.1,0.3,1.6,0.7
	c0.4,0.3,0.8,0.7,1.2,1.3c0.3,0.5,0.4,1.1,0.5,1.6C252.7,175.2,252.6,175.8,252.4,176.3L252.4,176.3z"/>
<path class="st1" d="M174.2,116.1l-7.5-9.7c5.5-0.8,11-0.5,16.4,0.8l11.3,6.1C189,112,179.7,115.4,174.2,116.1z"/>
<path class="st1" d="M189.5,112.5l-6.2-5.2c2.5,0.6,5,1.6,7.4,2.7l11.1,6.1C199.5,115,192,113.1,189.5,112.5L189.5,112.5z"/>
<path class="st13" d="M194.4,113.4c-38.2-8.8-57.3,29.8-57.3,29.8l-0.1,0.1l-0.1-0.1l-16.2-9.8c-1.7,3.3-2.3,4.6-3.6,8l16.2,11.1
	h0.1v0.1c-1.9,5.8-2.8,11.8-2.8,17.8l0,0c0,4.3,0.5,8.7,1.6,12.9v0.1l0,0l-17,16.1c0.6,2.4,2.3,6.7,4.1,9.7l16.1-17l0.1-0.1l0.1,0.1
	l0.2,0.3l0,0c3.7,7.8,9.8,14.2,17.5,18.2c7.6,4,16.3,5.5,24.8,4.2l0,0c9.8-1.5,18.9-5.7,26.4-12.2l0.1-0.1h0.1l17.8,11.8l0,0
	c0,0,0.1,0.1,0.2,0c0.1,0,0.2-0.1,0.4-0.3c0.3-0.3,0.8-0.7,1.4-1.5c0.5-0.5,1.1-1.3,1.7-2c0.1-0.1,0.2-0.2,0.3-0.4
	c0.7-0.9,1.6-2.2,2.5-3.3l-17.5-11.5l-0.1-0.1l0.1-0.1c2.9-3.7,5.5-7.7,7.6-12l0,0c2.3-4.6,4.1-9.5,5.5-14.4l0,0
	c0.2-0.5,0.2-1.1,0.2-1.7c-0.1-0.5-0.2-1.1-0.5-1.6s-1.2-1.6-2.9-1.6l-4.2,0.6c-0.2,0.8-0.3,1.4-0.4,1.7c-0.1,0.5-0.1,0.6-0.3,1.3
	l0,0c-1.2,4.2-2.6,8.3-4.6,12.3c-1.9,3.8-4.2,7.5-6.8,10.7l0,0c-0.8,1.1-1.8,2-2.7,2.9c-6.4,6.4-14.8,10.6-23.9,12
	c-6.9,1.2-14.2-0.1-20.4-3.4c-6.3-3.3-11.3-8.5-14.3-14.9c-0.8-1.7-1.5-3.4-2.1-5.2l0,0c-1.3-4.2-2-8.5-1.9-12.9l0,0
	c0-6,1.3-12,3.6-17.7l1.7-4c6.6-13.4,19.2-23.6,33.6-25.7c4.5-0.7,9.1-0.4,13.6,0.7c4.4,1.2,8.5,3.3,12.1,6.2
	c0.4,0.3,0.8,0.5,1.4,0.6c0.2,0.1,0.3,0.1,0.4,0.1h0.5c0.3,0,0.6-0.2,1.1-0.4s0.7-0.5,1.1-0.8l0,0l1.3-1.3c0.6-0.6,1.8-1.8,2.9-3.6
	c-1.5-1.2-2-1.6-2.2-1.7l0,0l-0.2-0.2l-0.3-0.3l-0.1-0.1C204.9,117.6,199.8,114.9,194.4,113.4 M135,192.3L135,192.3"/>
<path class="st1" d="M201.9,116.1l-11.1-6c0.5,0.2,0.9,0.4,1.5,0.7l11.1,6.1C202.8,116.7,202.3,116.5,201.9,116.1"/>
</svg>
