<?xml version="1.0" encoding="utf-8"?>
<!-- Generator: Adobe Illustrator 24.0.0, SVG Export Plug-In . SVG Version: 6.00 Build 0)  -->
<svg version="1.1" id="Слой_1" xmlns="http://www.w3.org/2000/svg" xmlns:xlink="http://www.w3.org/1999/xlink" x="0px" y="0px"
	 viewBox="0 0 250 250" style="enable-background:new 0 0 250 250;" xml:space="preserve">
<style type="text/css">
	.st0{fill:#40689D;}
	.st1{fill:#9A384B;}
	.st2{fill:#793E4B;}
	.st3{fill:#882F40;}
	.st4{fill:#E87891;stroke:#000000;stroke-width:0.2;}
	.st5{fill:#B4D1FA;stroke:#000000;stroke-width:0.2;}
	.st6{fill:#D6516B;stroke:#000000;stroke-width:0.1;}
</style>
<path class="st0" d="M98.3,38.2l-9-12.4c7.9-1.1,15.9-0.7,23.6,1.2l14.1,7.7c-7.7-2-16.5,1.1-23.6-1.2 M68.1,175l-15.3-8.2
	c-19-10.4-31.6-31.6-31.6-57.9c0-9.9,1.8-19.7,5.2-29l21-1.6c-3.4,9.3-7.8,28.1-7.8,38c0,26.2,9.5,47.3,28.5,57.7"/>
<path class="st0" d="M37.9,117L26.4,80c1.5-3.9,3.3-7.8,5.3-11.5L50,72.2c-2,3.7-4.3,15-5.7,18.9"/>
<path class="st0" d="M45.7,76.2l-14-7.7c1.7-3.1,3.5-6.1,5.5-9l33.9-10C69.1,52.4,47.4,73.1,45.7,76.2"/>
<path class="st0" d="M51.2,67.2l-14.1-7.7c1.9-2.7,4-5.3,6.2-7.8l23.5,2.2C64.6,56.4,53.2,64.5,51.2,67.2"/>
<path class="st0" d="M57.4,59.4l-14.1-7.7c2.2-2.5,4.6-4.8,7.1-7l14.1,7.7c-2.4,2.2-4.8,4.6-6.9,7"/>
<path class="st0" d="M64.3,52.4l-14-7.7c2.6-2.3,5.4-4.5,8.2-6.5l14.1,7.7C69.7,47.9,67,50.1,64.3,52.4"/>
<path class="st0" d="M52.8,66l5.6-27.9c3.5-2.4,7.2-4.6,11.1-6.4l14.1,7.7c-3.8,1.8-7.6,5.7-11.2,8.1"/>
<path class="st0" d="M79.5,47.6l-10-15.8c6.3-3,13-5,19.9-6l14.1,7.7c-6.9,1-13.6,3-19.9,6 M118.4,40.5L113,27c3.7,1,7.3,2.3,10.7,4
	l14.1,7.7c-3.4-1.7-7-3-10.7-4"/>
<path class="st0" d="M137.8,38.7L123.7,31c0.7,0.3,1.4,0.7,2,1.1l14.1,7.7C139.1,39.4,138.5,39,137.8,38.7z"/>
<path class="st1" d="M234.3,223.5l-14.1-7.7c0.1-0.1,0.3-0.3,0.4-0.5l14.3,7.7l-0.4,0.5"/>
<path class="st1" d="M234.9,223l-14.9-6.7l1.5-2.5l13.9,8.4L234.9,223z"/>
<path class="st1" d="M235.2,222.2l-14.1-7.8c0.2-0.3,0.3-0.7,0.5-1l14.1,7.7C235.5,221.5,235.4,221.8,235.2,222.2"/>
<path class="st1" d="M235.7,221.2l-14.1-7.7c0.2-0.5,0.3-1.1,0.4-1.6l14.1,7.7C236,220.1,235.8,220.7,235.7,221.2z"/>
<path class="st1" d="M236.9,222.3L222,211.9l0.2-1.8l14.1,7.7L236.9,222.3L236.9,222.3z"/>
<path class="st1" d="M229.1,236.9l-16.9-11.3l8.4-10.3l21.6-4.2L229.1,236.9z"/>
<path class="st1" d="M220,237.2l-11.2-9.2l0.8-0.3l17.8,6.5L220,237.2L220,237.2z"/>
<path class="st1" d="M223.7,235.4l-14.1-7.7c0.3-0.2,0.7-0.4,1-0.6l18.8,3.2C229.1,230.6,224.1,235.2,223.7,235.4z"/>
<path class="st1" d="M224.7,234.8l-14.1-7.7l0.7-0.6l14.2,7.7L224.7,234.8"/>
<path class="st1" d="M225.6,234.2l-14.5-7.4l1.5-1.5l13.7,8.3C226,233.8,225.8,234,225.6,234.2L225.6,234.2z"/>
<path class="st1" d="M226.1,233.6l-14.1-7.7l0.2-0.2l14.1,7.7L226.1,233.6z M217.3,219.2c6.1-5.7,4.9-9.1,4.9-9.1
	c0.2-0.9,0.1-1.9-0.2-2.8c-0.3-0.9-1.7-2.8-2.3-3.4l15.4,5.7c0.7,0.7,0.8,4.5,1.1,5.4s0.3,1.9,0.2,2.8 M221.3,236.2l-14.1-7.7
	l1.6-0.5l14.1,7.7L221.3,236.2z M217.2,235.9l-14.1-7.7L217.2,235.9H217 M217.4,236l-14.1-7.7l0.9,0.3l14.1,7.6L217.4,236"/>
<path class="st1" d="M217.5,236.7l-13.3-8.1c0.7,0.1,1.4,0.1,2,0c0.3,0,0.6-0.1,0.9-0.2l14.1,7.8c-0.3,0.1-0.6,0.2-0.9,0.2
	c-0.7,0.1-1.4,0.1-2,0 M214,243.9l-15.3-7.7c-0.8-0.5-2-1.5-2.7-2.2l14.3,4.3c0.7,0.7,3.5,4.4,4.4,4.8 M234.7,212.5l-14.1-7.7
	l-46-43.5l14.1,7.7L234.7,212.5z"/>
<path class="st2" d="M188.7,169l-14.1-7.7c-0.3-0.3-0.6-0.5-1-0.7l14.1,7.7C188.1,168.5,188.4,168.8,188.7,169"/>
<path class="st1" d="M214.6,244.3l-18.2-9.9l-46-43.5l20.9,5.7L214.6,244.3z M179.7,163.4l-11.1-11.5c0.7-0.2,1.4-0.4,2.1-0.5
	c1.6-0.2,3.2-0.2,4.8,0.2c4.8,1.5,16.6,8.6,16.6,8.6c-1.5-0.4-6-0.2-7.5,0c-0.7,0.1-1.6,0.4-2.3,0.7"/>
<path class="st1" d="M189.5,159.4l-14.1-7.7c0.7,0.2,1.5,0.5,2.2,0.8l14,7.7c-0.7-0.3-1.4-0.6-2.2-0.8"/>
<path class="st1" d="M191.5,160.2l-14-7.8l0.4,0.2l14.1,7.7L191.5,160.2L191.5,160.2z M179.7,160.5l-14.1-7.7l3-0.9l14.1,7.7
	L179.7,160.5z M164.6,198.6l-14.1-7.7c-1.6-1.6-2.7-3.5-3.4-5.7c-0.7-2.1-0.8-4.4-0.4-6.6l14.1,7.7c-0.4,2.2-0.3,4.5,0.4,6.7
	s8.7,4.4,10.2,6"/>
<path class="st1" d="M162.5,196.1l-15.9-17.4l0.5-3.3l16.2,7.3L162.5,196.1z M165.9,177.1l-14.6-10l7.7-9.6l17.2,10.6L165.9,177.1
	L165.9,177.1z"/>
<path class="st3" d="M174.6,167.3l-15.8-9.2l-5.2-4.2l14.1,7.7L174.6,167.3z M165.4,185.3l-18.3-9.9l-8.8-8.3l17.2,3.6L165.4,185.3
	L165.4,185.3z"/>
<path class="st1" d="M62.6,183.4l-14.1-7.7l2.2,1.1l14.1,7.7L62.6,183.4z"/>
<path class="st1" d="M62.3,186.6l-11.6-9.8c3.8,1.9,7.7,3.3,11.8,4.4l21.8,10.3C80.2,190.4,66.1,188.5,62.3,186.6z"/>
<path class="st1" d="M76.7,188.9l-14.1-7.7c8.6,2.2,17.5,2.6,26.3,1.4c7.5-1.1,15.6-3.4,22.5-6.7l14.7,7.6c-6.4,4.1-14.9,5.8-22.4,7
	h-0.5c-8.8,1.3-17.8,1.2-26.3-1"/>
<path class="st1" d="M126,184l-14.9-7.9c4.4-2.1,8.9-4.9,12.9-7.7l22.4,4.7C142.4,175.9,130.4,182,126,184z"/>
<path class="st1" d="M138.9,176.6l-15-8.1c3.3-2.3,6.5-4.8,9.4-7.5l15,7.6C145.4,171.3,142.3,174.3,138.9,176.6z"/>
<path class="st1" d="M145.3,175.9L133.4,161c2.8-2.5,5.5-5.2,8-8.1l29.5,1.5C168.4,157.3,148.2,173.4,145.3,175.9L145.3,175.9z"/>
<path class="st1" d="M152.7,166.5l-11.3-13.6c2.5-2.9,4.9-5.9,7.1-9l27-5.7C173.3,141.4,155.3,163.6,152.7,166.5z"/>
<path class="st1" d="M164.3,152.2l-15.8-8.3c2.3-3.4,4.5-6.8,6.4-10.4l15.8,8.3C168.8,145.4,166.6,148.8,164.3,152.2z"/>
<path class="st1" d="M167.1,153.1L155,133.5c2.3-4.3,4.3-8.7,5.9-13.3l21.7,1.1C181,125.9,169.4,148.8,167.1,153.1L167.1,153.1z"/>
<path class="st1" d="M176.2,129.8l-15.3-9.6c3.9-10.4,5.9-21.4,6-32.5c0.2-29.5-13.7-53.2-34.9-64.8l14.9,6.5
	c21.2,11.6,36,35.6,35.8,65.1C182.6,105.6,180.1,119.4,176.2,129.8z M58.9,191.3l-14.6-7.7l-1.8-1c-0.8-0.5-1.3-1.3-1.6-2.2
	s-0.4-2.3,0.6-3.8l15.8,8.1c-0.4,0.9-0.5,1.8-0.2,2.8c0.3,0.9-0.3,1.9,0.5,2.5l1.9,0.2"/>
<path class="st1" d="M55.3,185.3L41,178.1c0-1,0.5-1.5,0.5-1.5l14.1,8.1C55.4,184.8,55.3,185.1,55.3,185.3L55.3,185.3z"/>
<path class="st1" d="M55.4,184.6l-14.1-7.7c0.7-1.4,1.1-1.2,1.2-1.4l13.4,8L55.4,184.6v0.2V184.6L55.4,184.6z"/>
<path class="st1" d="M55.7,184.1l-14.1-7.7c0.1-0.2,0.2-0.3,0.3-0.5l14.1,7.7C56.1,183.7,55.9,183.9,55.7,184.1z"/>
<path class="st1" d="M56.1,183.6c0,0-16.3-4.3-14.1-7.7c0.5-0.8,2.1-1.3,2.1-1.3l12.4,8.6L56.1,183.6"/>
<path class="st1" d="M56.5,183.2l-14.1-7.7l0.5-0.4l14.1,7.7L56.5,183.2"/>
<path class="st1" d="M57,182.8l-14.1-7.7c0.2-0.2,0.4-0.3,0.7-0.4l14.1,7.7C57.7,182.4,57,182.8,57,182.8z"/>
<path class="st1" d="M54.9,185.9l-11.3-11.1c0.4-0.2,0.8-0.3,1.2-0.4c0.4-0.1,0.9-0.1,1.4,0l15.1,8.1c-0.4-0.1-1.9-0.5-2.4-0.4
	C58.4,182.1,55.3,185.7,54.9,185.9L54.9,185.9z"/>
<path class="st1" d="M60.2,182.1L46,174.4l0.6,0.2l14.1,7.7L60.2,182.1 M60.8,182.4l-14.1-7.7C46.7,174.7,60.8,182.4,60.8,182.4z
	 M82.1,26.7l9-19.4h0.8c9.6-1.4,19.7-0.9,29.2,1.6l14.9,8c-9.4-2.4-19.7-2.4-29.3-1h-0.9"/>
<path class="st1" d="M135,17.5l-15.1-9c4.5,1.2,9.8,3.1,14,5.2l14.1,7.7C143.8,19.3,139.5,18.6,135,17.5z M147.9,21.3l-14.1-7.7
	l2.5,1.3l14.1,7.7L147.9,21.3z M33.6,167.6l-14.2-7.7c-0.5-0.3-0.9-0.7-1.2-1.2C9.7,144.6,5.4,128.4,5.8,112
	c0.1-12.2,2.4-24.4,6.6-35.8l14.1,7.7c-4.3,11.5-5.1,23.8-5.2,36c-0.4,16.4,4.3,30.5,12.7,44.5c0.3,0.5-1.1,2.8-0.6,3.1"/>
<path class="st1" d="M25,88.6L12.3,76.2c1.8-5,4-9.9,6.6-14.6l16,7.9c-2.5,4.7-5.5,12.1-7.4,17.1"/>
<path class="st1" d="M33,73.7L18.9,61.6c2.1-4,4.5-7.9,7.1-11.6l16.3,8.1c-2.6,3.7-6,7.8-8.2,11.8"/>
<path class="st1" d="M39.3,64.8L26,50c2.4-3.5,5-6.8,7.8-10L55,45.5c-2.8,3.2-10.9,9.8-13.3,13.3"/>
<path class="st1" d="M47.9,47.8l-14.1-7.7c2.8-3.1,5.7-6.1,8.8-8.9l19.8,8.3C59.3,42.3,50.7,44.7,47.9,47.8"/>
<path class="st1" d="M54.8,43.6L42.6,31.2c3.3-3,6.8-5.7,10.5-8.3l14.1,7.7c-3.7,2.5-4.9,9.5-8.3,12.5"/>
<path class="st1" d="M59.6,38.9l-6.5-16c4.4-3.1,9.1-5.8,13.9-8.1l36.1,1.7c-4.9,2.3-34,16.4-38.4,19.5"/>
<path class="st1" d="M81.1,22.5L67,14.8c7.6-3.6,15.7-6.1,24-7.4l14.1,7.7C96.8,16.4,88.7,18.9,81.1,22.5"/>
<path class="st4" d="M236.4,217.7c0-0.9,0.1-1.9-0.2-2.8c-0.3-0.9-0.8-1.8-1.5-2.5l0,0l-46-43.5l0,0c-0.6-0.5-1.3-0.9-2-1.1
	c-0.7-0.2-1.5-0.2-2.2-0.1c-0.3,0-0.6,0.1-0.9,0.2l0,0L180,169l0,0l-10.9,13.3l0,0l-0.6,4l0,0c-0.2,1-0.1,1.9,0.2,2.9
	c0.3,0.9,0.8,1.8,1.5,2.5l0,0l46,43.3c0.6,0.5,1.2,0.9,2,1.2c0.7,0.2,1.5,0.3,2.3,0.2C227.7,235.4,236.6,222.8,236.4,217.7z
	 M103.6,190.5c42.4-6.4,77.1-49,77.6-95s-33.4-77.9-75.4-71.9h-0.7l0,0c-42.4,6.5-77,49-77.4,95c-0.3,14.9,3.6,29.6,11.3,42.4
	c0.5,1,0.7,2.2,0.5,3.3s-0.8,2.1-1.7,2.8l0,0c-0.6,0.5-1.3,0.8-2.1,0.9l0,0c-0.6,0.1-1.3,0.1-1.8-0.2c-0.6-0.3-1.1-0.7-1.4-1.3l0,0
	c-8.4-14-12.7-30.1-12.4-46.5l0,0c0.4-50.9,38.5-97.7,85.2-104.7h0.9c46.2-6.7,83.2,28.6,82.8,78.9c-0.3,20.7-6.5,40.8-17.7,58.2
	v0.1l0.1,0.1l8.5,8h0.1l3.1-0.9l0,0c0.7-0.2,1.4-0.4,2.1-0.5l0,0c1.7-0.2,3.5-0.1,5.2,0.4s3.2,1.4,4.5,2.6l0,0l45.8,43.4l0,0
	c1.6,1.6,2.8,3.5,3.4,5.7c0.7,2.1,0.8,4.4,0.4,6.6l0,0l-0.2,1.8l0,0c-0.5,3.4-1.8,6.6-4,9.3l0,0l-7.8,9.1l-0.3,0.4
	c-2,2.6-4.8,4.4-7.9,5.4l0,0l-1.6,0.5l0,0c-0.7,0.2-1.4,0.3-2.1,0.4l0,0c-1.7,0.3-3.5,0.2-5.1-0.4c-1.7-0.5-3.2-1.4-4.5-2.6l0,0
	l-45.9-43.4l0,0c-1.6-1.6-2.7-3.6-3.4-5.7c-0.7-2.1-0.8-4.4-0.4-6.6l0,0l0.5-3.3v-0.1l0,0l-8.8-8.3l-0.1-0.1l-0.1,0.1
	c-13.5,12.7-31.2,21.2-49.4,24.3l0,0c-16,2.5-32.3-0.5-46.4-8.6c-0.9-0.6-1.5-1.6-1.6-2.7c-0.2-1.1,0.1-2.2,0.7-3.1l0,0
	c0.3-0.6,0.8-1.1,1.4-1.5s1.2-0.7,1.9-0.8c0.7-0.1,1.5,0,2.1,0.4l0,0C73.6,189.9,89.1,192.7,103.6,190.5 M160.5,170.2L160.5,170.2
	v0.1l4.9,4.6l0.1,0.1l0.1-0.1l7.1-8.7l0.1-0.1l-0.1-0.1l-4.8-4.4l-0.1-0.1l-0.1,0.1L160.5,170.2L160.5,170.2z"/>
<path class="st0" d="M71.3,166.3l-14.1-7.7l1.8,0.9l14.1,7.7L71.3,166.3"/>
<path class="st0" d="M65.7,168.6l-6.8-9.1c3,1.5,8.7,3.3,11.9,4.1l14.1,7.7C81.8,170.5,68.5,171,65.7,168.6z"/>
<path class="st0" d="M74.6,173.4L68.4,163c6.8,1.7,13.8,2.1,20.7,1.1c6.1-0.9,12-2.6,17.6-5.3l29.2,3.1c-5.6,2.6-25.1,16-31.2,16.9
	c-6.9,1-15.6-2.1-22.4-3.8"/>
<path class="st0" d="M120.8,166.5l-14.1-7.7c3.4-1.6,6.6-3.5,9.6-5.6l14.1,7.7C127.4,163,124.1,164.9,120.8,166.5"/>
<path class="st0" d="M125.1,170.7l-8.8-17.5c2.5-1.8,4.9-3.7,7.2-5.7l34.7-8.3c-2.3,2.1-25.3,20-27.8,21.8"/>
<path class="st0" d="M137.7,155.2l-14.1-7.7c2.2-1.9,4.2-4,6.2-6.2l20.8,0.1C148.6,143.5,139.8,153.2,137.7,155.2"/>
<path class="st0" d="M143.8,149l-14.1-7.7l1.8-2.1c1.2-1.5,2.4-3.1,3.6-4.7l14.1,7.7c-1.1,1.6-2.3,3.1-3.6,4.7L143.8,149z"/>
<path class="st0" d="M144.1,150.4l-9.1-16c1.8-2.5,3.4-5.2,4.9-7.9l20.6,0.7c-1.5,2.7-9.6,12.4-11.4,14.9"/>
<path class="st0" d="M154,134.2l-14.1-7.7c1.7-3.3,3.6-7.4,4.8-10.9l14,8.5c-1.3,3.5-2.8,6.8-4.5,10.1"/>
<path class="st0" d="M158.7,124.1l-7.8-2.3l-6.5-5.5c3-8.1,4.8-16.7,4.8-25.4c0.2-13-3.7-25.7-11.3-36.3c-0.4-0.6-0.7-1.3-0.8-2.1
	c-0.1-0.7-0.2-2.3,0.8-3.3l13.6,8.8c-0.3,0.7-0.4,1.4-0.4,2.1s0.3,1.4,0.7,2.1c7.6,10.6,11.5,23.3,11.3,36.3
	C163.2,107.3,161.7,116,158.7,124.1L158.7,124.1z"/>
<path class="st0" d="M151.4,58.1l-14.1-7.7c0.1-0.2,0.2-0.5,0.3-0.7l14.1,7.7C151.6,57.6,151.5,57.9,151.4,58.1z M151.8,57.4
	l-14.1-7.7l0.3-0.6l14.1,7.7C152,57.1,151.9,57.2,151.8,57.4"/>
<path class="st0" d="M152.1,56.9L138,49.2c0.1-0.2,0.2-0.3,0.4-0.5l14.2,7.7L152.1,56.9"/>
<path class="st0" d="M152.5,56.4l-14.1-7.7l0.4-0.4l14.1,7.8L152.5,56.4"/>
<path class="st0" d="M152.9,56.1l-14.1-7.7l0.5-0.4l14.1,7.7L152.9,56.1z"/>
<path class="st0" d="M150.9,62.2l-11.6-14.3c0.2-0.1,0.4-0.3,0.7-0.4l16.9,8.7L150.9,62.2L150.9,62.2z"/>
<path class="st0" d="M153.4,57.7L140,47.5c0.4-0.2,0.8-0.3,1.2-0.4c0.5-0.1,1-0.1,1.4,0l14.8,8.1c-0.5-0.1-1,0.4-1.5,0.5
	S153.7,57.6,153.4,57.7z"/>
<path class="st0" d="M156.7,54.9l-14.1-7.7c0.2,0,0.4,0.1,0.6,0.2l14.1,7.7C157.1,55,156.9,55,156.7,54.9z M157.3,55.1l-14.1-7.7
	L157.3,55.1"/>
<path class="st5" d="M103.5,33.6L103.5,33.6c-37.6,5.3-68,42.6-68.1,83.1c-0.1,40.6,30.5,69.1,68,63.8c37.5-5.3,68-42.5,68-83.1l0,0
	c0.3-14.8-4.2-29.2-12.8-41.2c-0.4-0.5-0.9-0.8-1.5-1s-1.2-0.2-1.8-0.1l0,0c-0.9,0.1-1.7,0.6-2.4,1.2l0,0c-0.8,0.7-1.4,1.8-1.6,2.9
	c-0.2,1.1,0,2.2,0.6,3.2c7.6,10.6,11.5,23.4,11.3,36.4l0,0c0,0,0,24.1-17.6,48.3c0,0-17.2,21.8-42.3,25.9s-48-13.9-53.1-28.2
	c-5.1-14.4-9.6-17-4.4-47.7s33.6-45.6,33.6-45.6s16.3-10.9,35.2-9.5c14.6,1.1,21.2,5.4,23.4,7.4c1,0.8,2.2,1.4,3.5,1.5
	c2.4,0.2,5.9-1.9,4.3-5.6C145.9,45.1,137.1,29.8,103.5,33.6L103.5,33.6z"/>
<path class="st3" d="M116.2,133.7l-4-2.1c0.3,0,0.5-0.1,0.8-0.2l4,2.1C116.7,133.5,116.5,133.6,116.2,133.7"/>
<path class="st3" d="M117,133.4l-4.1-1.5c0.1-0.1,0.8-0.8,0.9-0.8l3.6,2.1C117.2,133.3,117.1,133.4,117,133.4"/>
<path class="st3" d="M117.4,133.2l-4.7-1.7c1-0.4,1.4-0.5,1.5-0.6l3.5,2C117.6,133.1,117.5,133.1,117.4,133.2z"/>
<path class="st3" d="M114.4,135.6l-2.1-4.1c2-0.3,2.2-2.1,2.3-2.2l4.5,3.7c-0.1,0.1-3.1,2.1-3.2,2.2"/>
<path class="st3" d="M118,132.7l-4-2.1c0.1-0.1,0.2-0.2,0.2-0.3l4,2.1C118.1,132.5,118.1,132.6,118,132.7"/>
<path class="st3" d="M118.2,132.4l-4-2.1c0.1-0.1,0.1-0.2,0.2-0.3l4,2.1C118.3,132.2,118.3,132.3,118.2,132.4z"/>
<path class="st3" d="M118.4,132.1l-4-2.1c0.1-0.1,0.1-0.3,0.2-0.4l4,2.1C118.6,131.8,118.5,132,118.4,132.1"/>
<path class="st3" d="M118.8,132.9l-4.6-2.5c0.7-0.8,0.7-6.7,0.7-7.1l4.5,6.9C119.5,130.6,119,132.5,118.8,132.9z M111,135.3
	l-2.3-3.3l3.6-0.5l6,2.2C118.3,133.7,111,135.3,111,135.3z"/>
<path class="st3" d="M111.3,133.9l-4-2.1h0.1L111.3,133.9z"/>
<path class="st3" d="M111.3,134l-4-2.1c0.1,0.1,0.3,0.1,0.4,0.1l4,2.1C111.6,134.1,111.5,134.1,111.3,134"/>
<path class="st3" d="M111.7,134.1l-4-2.1c0.3,0.1,0.6,0.1,0.9,0.1l4,2.1C112.3,134.2,112,134.2,111.7,134.1 M119.7,131.3l-4.8-2.9
	l-0.1-19.9l4.6,2.4L119.7,131.3z M109.6,137l-3.9-2.1c-0.8-0.5-1.5-1.2-2-2s-0.7-1.8-0.6-2.8l4,2.1c0,1,0.5,1.7,0.9,2.5
	C108.4,135.6,108.8,136.5,109.6,137"/>
<path class="st3" d="M118.8,110.8l-4-2.1c0-0.2,0-0.4,0.1-0.7l4.5,1.7C119.5,109.9,118.8,110.5,118.8,110.8"/>
<path class="st3" d="M119,110.1l-4-2.1c0-0.1,0.1-0.2,0.1-0.3l5,1.2C120.1,108.9,119,110,119,110.1"/>
<path class="st3" d="M119.2,109.6l-3.9-2.1c0-0.1,0.1-0.1,0.1-0.2l4,2.1L119.2,109.6"/>
<path class="st3" d="M119.3,109.5l-4-2.1c0-0.1,0.1-0.1,0.2-0.2l4,2.1C119.4,109.3,119.4,109.4,119.3,109.5z"/>
<path class="st3" d="M114.9,108.1c0.1-0.5,0.6-0.9,0.6-0.9c0.1-0.1,0.3-0.4,0.8-0.4l4.9,2.2l-1.1,1"/>
<path class="st3" d="M119.7,109.2l-3.9-2.2l0.3-0.1l3.9,2.1L119.7,109.2"/>
<path class="st3" d="M118.8,112.4l-2.8-5.5c0.1-0.1,0.3-0.1,0.5-0.1h0.5l4.3,2.3c-0.1,0,0.1,0.2,0,0.2h-0.9
	C120.3,109.3,119,112.3,118.8,112.4z"/>
<path class="st3" d="M120.3,109.2l-3.3-2.4c0.1,0,0.2,0.1,0.2,0.1l4.2,2.3C121.3,109.1,120.4,109.2,120.3,109.2z M121.5,109.2
	l-4.3-2.3L121.5,109.2z M119.4,106.3l-3.8-2.2c-0.2-0.1-0.4-0.3-0.5-0.6c-0.1-0.2-0.2-0.5-0.2-0.8l4.5,2.2c0,0.3,0.2,0.3,0.4,0.5
	c0.1,0.2-0.1,0.6,0.2,0.7 M94.5,138.1l-2-3.7c2-0.3,3.6-0.9,4.5-2.3l1.7,3.9C98.4,136.1,94.8,138.1,94.5,138.1z"/>
<path class="st3" d="M98.7,136l-3.9-2.1c0.1-0.1,0.3-0.2,0.4-0.2l3.9,2.1C99,135.9,98.8,136,98.7,136"/>
<path class="st3" d="M99.1,135.8l-4-2.1c0.1-0.1,0.2-0.1,0.3-0.2l4,2.1C99.3,135.7,99.2,135.7,99.1,135.8"/>
<path class="st3" d="M99,136l-3.5-2.4l0.6-0.4l5.3,0.4c-0.1,0.1-2,1.9-2.1,2"/>
<path class="st3" d="M99.7,135.3l-4.3-1.7c0.4-0.4,0.5-0.6,0.6-0.8l4,2.1C99.8,135.1,99.8,135.2,99.7,135.3z"/>
<path class="st3" d="M99.9,135l-4-1.7c0.1-0.1,0.5-0.6,0.6-0.7l3.7,2.2C100.1,134.7,100,134.9,99.9,135"/>
<path class="st3" d="M100.1,134.6l-4.2-1.6c0.1-0.1,0.3-1,0.4-1.1l3.9,2.3C100.3,134.3,100.2,134.5,100.1,134.6"/>
<path class="st3" d="M95.6,137.2l0.7-5.2c0.1-0.3,0.2-0.7,0.2-1.1l4.8,0.7c0,0.4-0.6,5.1-0.7,5.5"/>
<path class="st3" d="M93.5,136.9l-4-2.1l4.4-0.6l6.2,2.3L93.5,136.9L93.5,136.9z M92.6,136.7l-4-2.1h0.1L92.6,136.7z"/>
<path class="st3" d="M92.6,136.7l-4-2.1c0.1,0,0.2,0.1,0.3,0.1l4,2.1C92.8,136.8,92.7,136.8,92.6,136.7"/>
<path class="st3" d="M92.4,137.1l-3.4-2.4h0.6l10,1.5c-0.2,0-6.1,1.3-6.3,1.2 M118.9,105l-4-2.2V79.3l4,2.1l0.6,23.5L118.9,105z
	 M90.9,139.7l-4-2.1c-0.7-0.4-1.3-1-1.7-1.7c-0.4-0.7-0.6-1.5-0.6-2.4c0-0.2,0-0.4,0.1-0.7l4.2,2.1c-0.1,0.2,0,0.5,0,0.7
	c0,0.8,0,1.6,0.4,2.3C89.8,138.7,90.2,139.3,90.9,139.7"/>
<path class="st3" d="M88.7,136.4l-4-2.8c0-0.9,0.4-1.2,0.5-1.2l5.4,1.8C90.6,134.2,88.7,136.3,88.7,136.4z"/>
<path class="st3" d="M88.9,134.7l-4-2.2l0.1-0.2l4,2.1C89,134.6,89,134.6,88.9,134.7"/>
<path class="st3" d="M89,134.5l-4-2.1c0-0.1,0.1-0.1,0.1-0.2l4,2.1C89.1,134.4,89.1,134.5,89,134.5"/>
<path class="st3" d="M89.2,134.4l-4-2.1l0.2-0.2l4,2.1C89.3,134.2,89.2,134.3,89.2,134.4"/>
<path class="st3" d="M89.3,134.2l-4.7-1.1c0.1-0.8,1.1-1.5,1.6-1.5l3.3,2.4L89.3,134.2"/>
<path class="st3" d="M89.6,134l-3.9-2.1c0.1-0.1,0.2-0.1,0.2-0.1l4,2.1C89.7,133.9,89.6,134,89.6,134"/>
<path class="st3" d="M89.9,134.1l-4.1-2.3c0.1-0.1,0.3-0.1,0.5-0.1h0.5L91,134h-0.7C90.1,133.9,90.1,134,89.9,134.1z M119.3,81.9
	l-4.3-2.6c0-0.4-0.1-0.9-0.3-1.3c-0.2-0.4-0.5-0.7-0.9-0.9l4.4,1.8c0.4,0.2,0.7,0.5,0.9,0.9C119.2,80.2,119.3,81.5,119.3,81.9z"/>
<path class="st3" d="M89.4,133.4l-4-2.1c-0.2-0.1-0.4-0.3-0.5-0.6c-0.1-0.2-0.2-0.5-0.2-0.8l4,2.1c0,0.3,0,0.5,0.2,0.8
	C89,133.1,89.2,133.3,89.4,133.4z M116.3,75.7l-4-2.1c0.7-0.1,2,0.1,2.7,0.3l3.3,1.9C117.6,75.7,117,75.6,116.3,75.7"/>
<path class="st3" d="M118.3,75.8l-4.1-2.1c0.3,0.1,0.7,0.2,1,0.3l4,2.1L118.3,75.8"/>
<path class="st3" d="M116.4,77l-1.7-3.2l0.8,0.3l3.8,2.4c-0.1,0,0.6,0.5,0.6,0.4 M100.5,133.1l-4-2.1l0.1-31.7l4.5,1.6L100.5,133.1z
	"/>
<path class="st3" d="M111.9,78l-3.1-3.9l3.6-0.5l6.2,2.6L111.9,78z M100.6,101.4l-4-2.1c0-0.4-0.1-0.9-0.3-1.3
	c-0.2-0.4-0.5-0.7-0.9-0.9l3.9,2.1c0.4,0.2,1.6,0.2,1.8,0.6C101.3,100.3,100.6,101,100.6,101.4z M109.4,136.5L103,130l0.1-49.1
	l5.6,0.3C108.7,81.2,109.4,136.5,109.4,136.5z"/>
<path class="st3" d="M107.1,83.2l-3.9-2.1c0-0.8,0.2-1.6,0.4-2.4l5.5,0.7C108.7,80.1,107.1,82.4,107.1,83.2z"/>
<path class="st3" d="M107.5,80.7l-4-2.1c0.1-0.3,0.3-0.6,0.4-1l4,2.1C107.8,80.1,107.6,80.4,107.5,80.7"/>
<path class="st3" d="M107.9,79.8l-4-2.1c0.1-0.3,0.3-0.5,0.5-0.7l4,2.1C108.2,79.3,108.1,79.5,107.9,79.8"/>
<path class="st3" d="M108.4,79.1l-4-2.1c0.2-0.2,0.3-0.4,0.5-0.6l4,2.1C108.7,78.6,108.5,78.8,108.4,79.1 M108.9,78.4l-4-2.2
	l0.6-0.6l4,2.2L108.9,78.4"/>
<path class="st3" d="M109.5,77.8l-4-2.1c0.2-0.2,0.4-0.4,0.7-0.5l4,2.1C110,77.4,109.7,77.6,109.5,77.8"/>
<path class="st3" d="M110.2,77.3l-4-2.1c0.3-0.2,0.6-0.4,0.9-0.5l3.9,2.1C110.8,76.9,110.5,77.1,110.2,77.3"/>
<path class="st3" d="M106.9,79.7l0.3-5.1c0.5-0.2,1.1-0.4,1.7-0.5l3.9,2.1c-0.6,0.1-2.1,2.3-2.7,2.5"/>
<path class="st6" d="M116.4,75.8l-3.6,0.5c-2,0.4-3.1,1-4.1,2.1c-1,1.2-1.5,2.8-1.5,4.4v0.4l-0.1,49.1c0,3.3,2.5,5.7,5.6,5.3
	l3.6-0.5c3-0.5,5.6-3.5,5.6-6.9v-19.8c0-0.2,0-0.4-0.1-0.6s-0.2-0.3-0.3-0.5c-0.1-0.1-0.3-0.2-0.5-0.3c-0.2-0.1-0.4-0.1-0.6-0.1
	c-0.4,0.1-0.8,0.3-1.1,0.6c-0.3,0.3-0.4,0.8-0.4,1.2l-0.1,19.8c0,0.7-0.3,1.5-0.7,2c-0.4,0.5-1.1,1.4-5.3,1.5
	c-1.4,0-2.6-1.1-2.6-2.5l0.4-48c0-1.6,1.1-2.9,2.7-3.2l3.9-0.7c0.8-0.1,1.5,0.4,1.5,1.2l0.1,24.9c0,0,0.5,1,1.7,0.6s1.3-0.9,1.5-1.3
	s0-9.4,0-9.4V80.7C122.1,80.8,122.4,75.3,116.4,75.8"/>
<path class="st3" d="M98,95.7l-4.7-2c1.6-0.4,2.2-0.2,2.8,0l3.9,2.1C99.3,95.6,98.7,95.6,98,95.7"/>
<path class="st3" d="M96.2,96.6l-0.8-3.1c0.3,0.1,1.2,0.3,1.5,0.4l4.6,2.6c-0.3-0.1-3.3-0.4-3.6-0.5"/>
<path class="st3" d="M100.8,96.1l-4-2.1l0.2,0.1l4,2.1L100.8,96.1 M116.5,61.8l-4-2.1c-0.2-0.1-0.4-0.3-0.5-0.6l4.2,1.8
	C116.2,61.2,116.2,61.7,116.5,61.8 M94.4,96.2l-4-2.1l3.6-0.5l3.9,2.1L94.4,96.2z"/>
<path class="st0" d="M116.1,55l-4-2.1c0.1,0,0.2,0.1,0.3,0.1l4,2.1C116.3,55.1,116.2,55.1,116.1,55"/>
<path class="st3" d="M88.7,132.1l-4-2l0.1-29.1l4.8-1.2L88.7,132.1z"/>
<path class="st0" d="M114.7,55.4l-4-2.1l0.1-0.1L114.7,55.4 M114.8,55.3l-4-2.1c0.1,0,0.2-0.1,0.2-0.1l4,2.1
	C115,55.2,114.9,55.2,114.8,55.3 M115.1,55.2l-4-2.1l0.2-0.1l4,2.1L115.1,55.2"/>
<path class="st3" d="M88.7,103.1l-3.9-1.8c0-0.8,0.2-2.1,0.6-3l3.7,2.3C88.9,101.5,88.7,102.3,88.7,103.1"/>
<path class="st3" d="M87.9,104l-2.6-5.6c0.1-0.5,0.2-0.7,0.4-1l4,2.1c-0.2,0.3-0.3,0.6-0.4,1"/>
<path class="st3" d="M89.6,99.7l-3.9-2c0.1-0.3,0.4-0.7,0.6-1l3.9,2.2C89.9,99.2,89.8,99.5,89.6,99.7"/>
<path class="st3" d="M90.1,99l-4-2.1c0.2-0.2,0.3-0.4,0.5-0.6l4,2.1C90.4,98.5,90.2,98.8,90.1,99 M90.6,98.3l-4-2.2l0.7-0.7l3.9,2.1
	C91,97.9,90.8,98.1,90.6,98.3"/>
<path class="st3" d="M89.2,101.9l-3.3-4.7c0.9-1.6,1.8-2,2.1-2.2l8.8,1.1C96.5,96.3,89.5,101.7,89.2,101.9z"/>
<path class="st3" d="M91.8,97.2l-4-2.1c0.3-0.2,1.4-0.6,1.7-0.7l5,1.9C94.3,96.4,92.1,97,91.8,97.2"/>
<path class="st3" d="M92.9,96.7l-4-2.1c0.5-0.2,1.1-0.4,1.6-0.5l5.7,1.9C95.7,96.1,93.4,96.4,92.9,96.7"/>
<path class="st6" d="M98,95.7c3.1-0.4,5.6,1.9,5.6,5.3l-0.1,31.7c0,3.3-2.5,6.4-5.6,6.9l-4.4,0.6c-2.6,0.4-4.8-1.6-4.8-4.5
	c0-0.4,0.1-0.9,0.4-1.2s0.7-0.6,1.1-0.6c0.2,0,0.4,0,0.6,0.1s0.4,0.2,0.5,0.3s0.3,0.3,0.3,0.5c0.1,0.2,0.1,0.4,0.1,0.6
	c0,0.2,0,0.5,0.1,0.7s0.2,0.4,0.4,0.6c0.2,0.2,0.4,0.3,0.6,0.4c0.2,0.1,0.5,0.1,0.7,0.1l4.4-0.6c0.7-0.1,1.4-0.5,1.9-1.1
	s0.7-1.3,0.7-2.1l0.1-31.7c0-0.3,0-0.7-0.2-1c-0.1-0.3-0.3-0.6-0.6-0.9c-0.3-0.2-0.6-0.4-0.9-0.5s-0.7-0.1-1-0.1l-3.6,0.5
	c-0.7,0.1-1.4,0.5-1.9,1.1s-0.7,1.3-0.8,2.1v29c0,0.4-0.2,0.9-0.4,1.2c-0.3,0.3-0.7,0.6-1.1,0.6c-0.2,0-0.4,0-0.6-0.1
	s-0.4-0.2-0.5-0.3s-0.3-0.3-0.3-0.5s-0.1-0.4-0.1-0.6l0.1-29c0-1.6,0.6-3.2,1.6-4.5s2.5-2.1,4.1-2.4L98,95.7"/>
<path class="st3" d="M115.7,55.8L111,53c0.4-0.2,0.8-0.3,1.4-0.1l3.7,2.1L115.7,55.8z"/>
<path class="st3" d="M115.4,55l-4-2.1h0.5l4,2.1H115.4"/>
<path class="st3" d="M115.2,55.1l-4-2.1l0.2-0.1l4,2.1L115.2,55.1z"/>
<path class="st3" d="M114.6,55.5l-4-2.2c0.3-0.3,0.4-0.4,0.7-0.3l4.2,2.3C115.5,55.3,114.6,55.5,114.6,55.5z"/>
<path class="st3" d="M111.4,59.8l-4.3-3.1l3.7-3.6l4.6,2.5C115.4,55.6,111.4,59.8,111.4,59.8z M69.9,101l-4-2.1
	c-0.2-0.1-0.4-0.3-0.5-0.5s-0.2-0.4-0.2-0.7c0-0.3,0-0.5,0.1-0.8l6.2-0.2c-0.1,0.2-0.9,2.9-0.8,3.2c0,0.2,0,0.2,0.1,0.4
	C71,100.6,69.7,100.9,69.9,101"/>
<path class="st3" d="M69.3,99.1l-4-2.1c0-0.1,0.1-0.2,0.1-0.3l4,2.1C69.4,98.9,69.4,99,69.3,99.1 M69.4,98.8l-4-2.1
	c0-0.1,0.1-0.1,0.1-0.2l4,2.1C69.5,98.7,69.5,98.8,69.4,98.8 M69.6,98.6l-4-2.1c0-0.1,0.1-0.1,0.1-0.2l3.9,2.1V98.6"/>
<path class="st3" d="M69.7,98.5l-3.9-2.1c0-0.1,0.1-0.1,0.2-0.1l4,2.1C69.8,98.4,69.8,98.4,69.7,98.5"/>
<path class="st3" d="M69.3,99.8l-4-2c0.1-0.1,0.1-1.2,0.9-1.7l3.9,2.1C70,98.2,69.3,99.7,69.3,99.8z"/>
<path class="st3" d="M69.2,99.3L65.3,97c0.2-0.7,1-1.2,1.4-1.3l4.7,1.7c-0.1,0-1.3,0.7-1.4,0.7"/>
<path class="st3" d="M70.7,97.9l-4-2.1c0.1-0.1,0.2-0.1,0.3-0.1c4.1-0.9,8.1-2.3,11.9-4.2l4,2.1c-3.8,1.8-7.7,3.7-11.7,4.6
	C71.1,98.3,70.8,97.9,70.7,97.9"/>
<path class="st3" d="M76.3,97.2l2.3-5.6c3.3-1.6,6.6-3.5,9.6-5.5l10,0.2c-3,2.1-12.3,6-15.6,7.5"/>
<path class="st3" d="M92,88.3l-4.2-2c2.2-1.5,4.4-3.2,6.4-5l6,2.7C98.3,85.8,94.9,88.9,92,88.3"/>
<path class="st3" d="M98.4,84.2l-4.2-2.9c1.6-1.4,3.4-3.1,4.8-4.7l8.8-1.3C106.4,76.8,100,82.8,98.4,84.2z"/>
<path class="st3" d="M102.6,79.7l-3.8-2.9c1.3-1.4,2.5-2.9,3.6-4.5l5.1,1.8C106.3,75.6,103.8,78.2,102.6,79.7z"/>
<path class="st3" d="M106.9,74.8l-4.6-2.3c1.1-1.6,2.1-3.5,3.1-5.2l4.7,2.3C109.1,71.3,108,73.2,106.9,74.8z"/>
<path class="st3" d="M109.5,73l-4.1-5.7c1.1-2,2-4.1,2.8-6.2l4.9,2.7c-0.8,2.1-2.8,6.9-3.9,8.9"/>
<path class="st3" d="M111.1,67.8l-2.9-6.7c0.2-0.6,0.4-1.3,0.7-1.9l4.4,1.8C112.9,61.7,111.3,67.2,111.1,67.8z"/>
<path class="st3" d="M111,61.6l-3.9-2.1c-0.2-0.1-0.3-0.2-0.4-0.4c-0.2-0.2-0.3-0.5-0.3-0.8s0.1-0.6,0.2-0.8l6.7,0.2
	c-0.1,0.3-3,2.5-2.9,2.8c0,0.3,0.1,0.5,0.3,0.8C110.7,61.4,110.8,61.5,111,61.6"/>
<path class="st3" d="M110.5,59.6l-3.9-1.9c0-0.1,0.2-0.6,0.2-0.7l6.6,1.3C113.5,58.4,110.5,59.5,110.5,59.6z"/>
<path class="st3" d="M110.6,59.4l-4.1-0.7c-0.2-0.7,0.1-1.4,0.5-1.8l3.7,2.3C110.7,59.2,110.7,59.3,110.6,59.4"/>
<path class="st3" d="M110.8,59.2l-4.2-1.8c0.1-0.2-0.1-0.3,2.2-2.3l2.1,3.9L110.8,59.2"/>
<path class="st6" d="M111.3,61.6c-0.2-0.1-0.4-0.2-0.5-0.4c-0.2-0.4-0.3-0.8-0.3-1.2c0.1-0.4,0.3-0.8,0.6-1.1l3.6-3.4l0.2-0.1
	c0.1-0.1,0.3-0.2,0.5-0.3l0.2-0.1h0.7c0.1,0,0.2,0.1,0.3,0.1l0.1,0.1c0.1,0.1,0.2,0.2,0.3,0.4l0.1,0.2l1.7,3.6
	c0.2,0.4,0.2,0.8,0.1,1.3c-0.1,0.4-0.4,0.8-0.8,1c-0.2,0.1-0.4,0.2-0.7,0.3c-0.3,0-0.5,0-0.8-0.1c-0.2-0.1-0.4-0.3-0.5-0.6l-0.1-0.1
	v0.1c-7.6,25.4-32.3,37.2-45,39.9h-0.6c-0.2,0-0.4-0.1-0.5-0.3c-0.2-0.1-0.3-0.3-0.4-0.4c-0.1-0.2-0.1-0.4-0.1-0.6
	c0-0.4,0.1-0.9,0.4-1.2c0.3-0.4,0.6-0.6,1-0.7c11.8-2.6,34.7-13.4,42.1-36.6l0.1-0.2l-0.1,0.1c-0.2,0.2-0.5,0.3-0.8,0.3
	C111.7,61.7,111.5,61.7,111.3,61.6L111.3,61.6z"/>
<path class="st3" d="M78.6,139l-4-2.1c0.3,0,0.5-0.1,0.7-0.2l4,2.1C79.1,138.8,78.8,138.9,78.6,139"/>
<path class="st3" d="M74.6,136.8l0.8-0.2c0.1-0.1,0.3-0.1,0.4-0.2l4,2.1c-0.1,0.1-0.3,0.2-0.4,0.2"/>
<path class="st3" d="M79.7,138.5l-4-2c0.1-0.1,0.6-0.5,0.7-0.5l3.6,2.3C80,138.3,79.9,138.4,79.7,138.5"/>
<path class="st3" d="M80.1,138.3l-4-2.1l0.3-0.3l3.9,2.1C80.2,138.1,80.1,138.2,80.1,138.3"/>
<path class="st3" d="M80.3,138l-3.9-2.1c0.1-0.1,0.2-0.2,0.2-0.3l4,2.1L80.3,138"/>
<path class="st3" d="M75.9,142l0.7-6.4c0.1-0.1,0.2-0.2,0.2-0.3l5.1,2C81.8,137.4,76,141.9,75.9,142z"/>
<path class="st3" d="M80.8,137.4l-3.9-2.1c0.1-0.1,0.1-0.3,0.2-0.4l4,2.1C80.9,137,80.8,137.2,80.8,137.4"/>
<path class="st3" d="M81.7,137.8l-5.1-2.2c0.4-0.4,0.6-1.6,0.6-1.9l4,2.1c0,0.4,0.9,1.1,0.7,1.4 M75.6,140.9l-4.5-3.6l3.6-0.5l4,2.1
	L75.6,140.9z"/>
<path class="st3" d="M73.6,139.2l-3.9-2.1h0.1L73.6,139.2"/>
<path class="st3" d="M73.2,139.4l-3.4-2.2c0.1,0.1,0.3,0.1,0.4,0.1l3.9,2.1c-0.2,0-0.3-0.1-0.4-0.1"/>
<path class="st3" d="M74.1,139.4l-3.9-2.1c0.3,0.1,0.6,0.1,0.9,0l4,2.2C74.7,139.5,74.4,139.5,74.1,139.4 M72,142.3l-4-2.1
	c-0.8-0.5-1.5-1.2-2-2s-0.7-2.2-0.6-3.2l4,2.5c0,1,0.2,1.9,0.6,2.8C70.4,141.1,71.1,141.8,72,142.3 M81.9,139.7l-4.7-6V109l4.6-1.1
	L81.9,139.7L81.9,139.7z"/>
<path class="st3" d="M81.2,111.1l-4-2.1c0-0.4-0.1-0.9-0.3-1.3c-0.2-0.4-0.5-0.7-0.9-0.9l4,2.1c0.4,0.2,0.7,0.5,0.9,0.9
	S81.2,110.7,81.2,111.1 M76.7,106.4l-2-3.2c0.7-0.1,1.3-0.1,2,0.1l4,2.1c-0.6-0.2-1.3-0.2-2-0.1"/>
<path class="st3" d="M78.1,106.7l-1.5-3.4l0.9,0.3l4.7,2.6c-0.3-0.1-2.7,0.4-3,0.4"/>
<path class="st3" d="M81.5,105.8l-4-2.1l0.2,0.1l4,2.1L81.5,105.8z M70.8,140.5l-5.4-5.2v-20.8l5.5,1.9L70.8,140.5z M74.6,105.8
	l-4-2.1l4.3-0.6l3.5,2.2L74.6,105.8z"/>
<path class="st3" d="M69.4,116.7l-4-2.1c0-0.2,0-0.4,0.1-0.7l4.9,1C70.3,115.1,69.4,116.5,69.4,116.7"/>
<path class="st3" d="M69.5,116.1l-3.9-2.2c0-0.1,0.1-0.2,0.1-0.3l4,2.1C69.5,115.9,69.5,116,69.5,116.1"/>
<path class="st3" d="M69.6,115.8l-4-2.1c0-0.1,0.1-0.1,0.1-0.2l4,2.1C69.7,115.7,69.6,115.8,69.6,115.8"/>
<path class="st3" d="M65.4,114.6c-0.1-0.7,0.4-1.3,0.4-1.3c0.3-0.3,0.6-0.5,1.1-0.6L71,115c-0.1,0.1-2.1,3.7-2.2,3.8"/>
<path class="st3" d="M69.9,115.4l-3.9-2l0.2-0.2l3.9,2C70,115.3,69.9,115.3,69.9,115.4"/>
<path class="st3" d="M70,115.2l-3.7-2c0.1-0.1,0.1-0.1,0.2-0.1l3.7,2C70.1,115.2,70.1,115.2,70,115.2"/>
<path class="st3" d="M70.2,115.1l-3.9-2l0.3-0.1l3.9,2L70.2,115.1z M70.5,115l-4-2.1c0.2-0.1,0.3-0.2,0.5-0.2h0.5l4.2,2.3
	c-0.2,0-0.6-0.2-0.8-0.2C70.8,114.9,70.6,114.9,70.5,115z"/>
<path class="st3" d="M70.7,115.4l-3.3-2.6c0.1,0,0.2,0,0.2,0.1l4,2.1c0-0.1-0.1-0.1-0.2-0.1 M70.1,113.8l-4-2.1
	c-0.2-0.1-0.4-0.3-0.5-0.6c-0.1-0.2-0.2-0.5-0.2-0.8c0-0.8,0.1-1.6,0.4-2.3l4,2.1c-0.3,0.7-0.4,1.5-0.4,2.3c0,0.3,0,0.5,0.2,0.8
	C69.7,113.5,69.9,113.7,70.1,113.8"/>
<path class="st3" d="M69.7,111.4l-3.8-3.3c0.1-0.3,0.3-0.6,0.4-0.9l7.1-1.2c-0.2,0.3-3.5,3.9-3.6,4.3"/>
<path class="st3" d="M70.2,109.3l-4.5-1.1c0.1-0.2,0.8-1.4,1-1.7l6.6-0.4C73.1,106.3,70.3,109.1,70.2,109.3"/>
<path class="st3" d="M70.6,108.6l-4-2c0.1-0.2,0.5-0.8,0.7-1L71,108C71,108.2,70.8,108.4,70.6,108.6"/>
<path class="st3" d="M69,110.1l-1.8-4.3l0.6-0.6l7.4,0.5c-0.2,0.2-3.8,2-4,2.2"/>
<path class="st3" d="M71.7,107.4l-3.9-2.2c0.2-0.2,0.4-0.4,0.7-0.5l7.6,0.8C75.8,105.7,71.9,107.2,71.7,107.4"/>
<path class="st3" d="M72.4,106.9l-4.1-2.1c0.3-0.2,0.8-0.5,1.1-0.6l3.9,2.3C72.9,106.5,72.6,106.7,72.4,106.9"/>
<path class="st3" d="M71.7,108.9l-2.5-4.7c0.5-0.2,1-0.4,1.6-0.5l6.3,2c-0.6,0.1-2.8,1.2-3.3,1.4"/>
<path class="st6" d="M78.6,105.4c3.1-0.4,5.6,1.9,5.6,5.3v24.7c0,3.3-2.5,6.4-5.6,6.9l-3.6,0.5c-3.1,0.4-5.6-1.9-5.6-5.3v-20.8
	c0-0.4,0.1-0.9,0.4-1.2c0.3-0.3,0.7-0.6,1.1-0.6c0.2,0,0.4,0,0.6,0.1s0.4,0.2,0.5,0.3c0.1,0.1,0.3,0.3,0.3,0.5
	c0.1,0.2,0.1,0.4,0.1,0.6v20.8c0,0.3,0,0.7,0.2,1c0.1,0.3,0.3,0.6,0.6,0.9c0.3,0.2,0.6,0.4,0.9,0.5s0.7,0.1,1,0.1l3.6-0.5
	c0.7-0.1,1.4-0.5,1.9-1.1s0.7-1.3,0.8-2.1v-24.7c0-0.3,0-0.7-0.2-1c-0.1-0.3-0.3-0.6-0.6-0.9c-0.3-0.2-0.6-0.4-0.9-0.5
	s-0.7-0.1-1-0.1l-3.9,0.5c-0.7,0.1-1.3,0.5-1.7,1c-0.4,0.5-0.7,1.2-0.7,1.9c0,0.4-0.1,0.9-0.4,1.2c-0.3,0.3-0.7,0.6-1.1,0.6h-0.6
	c-0.2-0.1-0.4-0.2-0.5-0.3c-0.1-0.1-0.3-0.3-0.3-0.5c-0.1-0.2-0.1-0.4-0.1-0.6c0-1.5,0.5-3.1,1.5-4.3c1-1.2,2.4-2,3.9-2.3
	L78.6,105.4L78.6,105.4z"/>
</svg>
