<?xml version="1.0" encoding="utf-8"?>
<!-- Generator: Adobe Illustrator 24.0.0, SVG Export Plug-In . SVG Version: 6.00 Build 0)  -->
<svg version="1.1" id="Слой_1" xmlns="http://www.w3.org/2000/svg" xmlns:xlink="http://www.w3.org/1999/xlink" x="0px" y="0px"
	 viewBox="0 0 250 250" style="enable-background:new 0 0 250 250;" xml:space="preserve">
<style type="text/css">
	.st0{fill:#904A5A;}
	.st1{fill:#743C49;}
	.st2{fill:#882F40;}
	.st3{fill:#824351;}
	.st4{fill:#874654;}
	.st5{fill:#8B4857;}
	.st6{fill:#944D5D;}
	.st7{fill:#994F60;}
	.st8{fill:#CB697F;}
	.st9{fill:#7D414E;}
	.st10{fill:#40689D;}
	.st11{fill:#2F527F;}
	.st12{fill:#687991;}
	.st13{fill:#65758C;}
	.st14{fill:#617187;}
	.st15{fill:#5E6D82;}
	.st16{fill:#B4D1FA;stroke:#000000;stroke-width:0.2;}
	.st17{fill:#B4D1FA;}
	.st18{fill:#9A384B;}
	.st19{fill:#9C5061;}
	.st20{fill-rule:evenodd;clip-rule:evenodd;fill:#E87891;}
	.st21{fill:#793E4B;}
</style>
<path class="st0" d="M249.1,48.8l-11-6L249.1,48.8z"/>
<path class="st1" d="M150.7,239.2l-11-6l-1.9-8.6l11,6L150.7,239.2z"/>
<path class="st2" d="M148.9,230.6l-11-6h0.2l11,6H148.9 M149,230.5l-11-6c0.3-0.1,0.6-0.3,0.8-0.5l11.1,6
	C149.7,230.2,149.4,230.4,149,230.5 M149.9,230l-11-6c0.2-0.1,0.4-0.3,0.6-0.5l11,6C150.4,229.7,150.1,229.9,149.9,230z"/>
<path class="st2" d="M150.5,229.5l-11-6l0.6-0.6l11,6.1l-0.6,0.6"/>
<path class="st2" d="M143.4,237.2l-10.9-10.9c4.7-1.7,7.4-2.8,9.2-6.3l14.3,5.1C156,225.4,143.6,237,143.4,237.2z"/>
<path class="st2" d="M151.7,228.2l-11-6c0.2-0.3,0.3-0.5,0.5-0.8l11,6C152,227.7,151.8,228,151.7,228.2z"/>
<path class="st2" d="M152.1,227.4l-11-6c0.2-0.3,0.3-0.7,0.5-1l11,6C152.5,226.7,152.3,227.1,152.1,227.4z"/>
<path class="st2" d="M152.6,226.3l-11-6c0.3-0.9,0.5-1.9,0.5-2.8l11,6C153.1,224.4,152.9,225.5,152.6,226.3z"/>
<path class="st3" d="M243.1,50.8l-11.1-6l0.2-0.4l11.1,5.9C243.2,50.4,243.2,50.6,243.1,50.8"/>
<path class="st4" d="M243.3,50.3l-11-5.9c0.1-0.1,0.2-0.3,0.3-0.4l11,6L243.3,50.3"/>
<path class="st5" d="M243.7,50l-11-6c0.1-0.1,0.2-0.3,0.4-0.4l11.1,6L243.7,50"/>
<path class="st0" d="M244.1,49.5l-11.1-6l0.5-0.4l11,6L244.1,49.5"/>
<path class="st6" d="M244.5,49.1l-11-6c0.2-0.2,0.4-0.3,0.7-0.4l11,6C245,48.9,244.7,49,244.5,49.1z"/>
<path class="st7" d="M245.3,48.7l-11-6c0.4-0.2,0.8-0.3,1.4-0.4c0.5-0.1,1-0.1,1.6,0l11,6c-0.5-0.1-1-0.1-1.6,0
	C246.1,48.4,245.7,48.6,245.3,48.7z"/>
<path class="st6" d="M248.2,48.4l-11-6c0.2,0.1,0.5,0.1,0.7,0.2l11.1,6C248.7,48.6,248.5,48.5,248.2,48.4"/>
<path class="st0" d="M248.9,48.7l-11-6.1L248.9,48.7"/>
<path class="st1" d="M250.4,55.1l-11-6l-7.3-4.3l11,6L250.4,55.1z"/>
<path class="st8" d="M249.1,48.8c0.5,0.3,0.9,0.7,1.3,1.3c0.3,0.5,0.5,1,0.7,1.7c0.1,0.6,0.1,1.2,0,1.8s-0.3,1.2-0.7,1.7l-7.2-4.3
	c0.3-0.6,0.8-1.2,1.5-1.6c0.6-0.4,1.4-0.7,2.1-0.8C247.4,48.3,248.3,48.4,249.1,48.8z"/>
<path class="st2" d="M153.8,225.7l-11.7-8.3V204l12.2,4.5L153.8,225.7L153.8,225.7z M153.9,207.6l-11-6l89.9-156.9
	c4.9,0.7,7.1,2.2,10.6,6.5L153.9,207.6z"/>
<path class="st2" d="M153.1,210l-11-6c0-0.6,0.1-1.4,0.3-2l11,6C153.3,208.8,153.1,209.4,153.1,210z"/>
<path class="st9" d="M153.5,208.1l-11-6l0.3-0.6l11,6L153.5,208.1z"/>
<path class="st3" d="M153.8,207.5l-11.1-6l11.2,5.8"/>
<path class="st10" d="M161.8,200l-1.8,5.1l-0.1,0.3l1.8-5.1V200"/>
<path class="st10" d="M161.7,200.3l-1.8,5.1c-0.2,0.5-0.5,0.9-0.8,1.4l1.8-5.1C161.2,201.2,161.5,200.7,161.7,200.3z M160.9,201.5
	l-1.8,5.1l-0.3,0.3c-0.7,0.6-1.6,1.3-2.4,1.7l1.8-5.1c0.8-0.5,1.7-1,2.4-1.7L160.9,201.5"/>
<path class="st10" d="M158.2,203.6l-1.8,5.1c-0.8,0.5-1.8,0.9-2.7,1.4c-5.5,2.1-11.3,3.7-17,4.5h-0.2c-0.5,0.1-1,0.1-1.7,0l1.8-6.3
	c0.5,0.1,1.8,0.5,2.3,0.4l-0.5,0.7c5.9-0.8,11.6-2.3,17-4.5C156.4,204.6,157.3,204.2,158.2,203.6L158.2,203.6z"/>
<path class="st10" d="M136.5,209.5l-1.8,5.1c-0.4-0.1-0.8-0.2-1.2-0.3l1.9-5.1C135.8,209.3,136.2,209.4,136.5,209.5"/>
<path class="st10" d="M135.5,209.2l3.5,4.9c-5.1,1.2-6.9,0-8.6-2.3l4.2-3C134.7,209,135.1,209.1,135.5,209.2z"/>
<path class="st10" d="M136.6,210.7l-4,3.1c-1.3-0.3-1.3-0.8-2.4-2l3.2-3.6c0.3,0.2,1.7,1,2,1.3"/>
<path class="st10" d="M134.9,208.4l-3.1,5c-0.5-0.4-0.9-0.8-1.4-1.4c-0.2-0.3-0.4-0.7-0.4-1c-0.1-0.4,0-0.8,0.1-1.2l1.8-5.1
	c-0.1,0.4,0.2,0.5,0.2,0.8c0.1,0.4,0.3,0.8,0.5,1.2C133,207.2,134.3,208,134.9,208.4L134.9,208.4z"/>
<path class="st11" d="M151.4,197.9l-1.8,5.1l-1.2-0.2l1.8-5.1L151.4,197.9z"/>
<path class="st11" d="M151.7,197.4l-3.2,5.3c-0.9-0.1-2.1-0.3-3.3-0.3c-6.9-0.4-13.8-0.1-20.6,0.7c-4.5,0.5-8.9,1.4-13.3,2.4
	c-2.9,0.6-5.8,1.7-8.5,2.9v-5.3c2.7-1.4,7.3-2.6,10.2-3.2c4.4-1,8.7-2.3,13.2-2.8c6.8-0.9,13.7-1.3,20.6-0.8c1.3,0,2.4,0.2,3.3,0.3"
	/>
<path class="st12" d="M104,203.6l-1.8,5.1L104,203.6"/>
<path class="st10" d="M120.5,209.6l-1.8,5.1c-0.5,1.2-0.9,0.9-1.2,1.2v-6.7C117.8,209,120.4,209.8,120.5,209.6z"/>
<path class="st10" d="M120.5,207.9l-2,7.3c-1.5,1.7-5.2,0.4-5.4,0.5l4.1-5.8C117.4,209.9,120.3,208.2,120.5,207.9z"/>
<path class="st10" d="M119.5,210.7l-1.8,5.1c-0.5,0.3-1,0.4-1.6,0.5h-0.6c-3,0-6.1-0.1-9.1-0.3l-2.6-0.4l1.8-5.1l2.6,0.3
	c3,0.3,6.1,0.4,9.1,0.4h0.6C118.4,211.2,119,211,119.5,210.7z"/>
<path class="st10" d="M105.6,210.5l-1.8,5c-1.7-0.2-3.2-0.6-4.8-1.2l1.8-5.1c1.7,0.5,3.2,0.8,5,1.2"/>
<path class="st12" d="M100.6,209.5l-1.8,5.1L100.6,209.5z"/>
<path class="st13" d="M100.6,209.5l-1.8,5.1c-0.9-0.3-1.8-0.6-2.6-1l1.8-5.1C98.8,208.8,99.7,209.1,100.6,209.5"/>
<path class="st14" d="M97.9,208.3l-1.8,5.1c-0.6-0.3-1.3-0.6-1.8-1l1.8-5.1C96.7,207.6,97.3,208,97.9,208.3z"/>
<path class="st15" d="M96.2,207.3l-1.8,5.1h-0.1c-0.8-0.6-1.6-1.5-2.1-2.4c-0.3-0.5-0.4-1-0.4-1.6c0-0.5,0-1.2,0.2-1.7l1.8-5.1
	c-0.2,0.5-0.2,1.2-0.2,1.7c0.1,0.5,0.2,1.2,0.5,1.6C94.6,205.8,95.3,206.7,96.2,207.3z"/>
<path class="st16" d="M122.6,191.4c4.6-0.6,9.3-0.9,13.9-1c4-0.1,7.9,0,11.8,0.5c2.2,0.2,4.3,0.6,6.4,1.3c1.2,0.3,2.3,0.8,3.3,1.5
	c1.4,0.7,2.5,1.8,3.2,3.1c0.3,0.4,0.4,0.9,0.5,1.5s0.1,1-0.1,1.6c-0.3,0.8-0.7,1.6-1.4,2.1c-1.5,1.3-3.1,2.3-5,3
	c-5.5,2.1-11.2,3.7-17,4.5H138c-1.2,0.1-2.3-0.1-3.3-0.5s-2-1.3-2.6-2.1c-0.5-0.9-0.6-1.8-0.2-2.5c0.4-0.7,1.2-1.3,2.3-1.5
	c3.5-0.5,6.8-1.3,10.1-2.2c2.3-0.6,4.5-1.4,6.6-2.4l0.3-0.2l0.2-0.1h-0.3c-1.5-0.3-2.9-0.4-4.5-0.5c-6.9-0.4-13.8-0.1-20.7,0.7
	c-4.5,0.5-8.9,1.4-13.3,2.4c-2.9,0.6-5.9,1.7-8.6,3l-0.5,0.3l-0.3,0.1h0.3c3.6,0.6,7.2,0.8,10.9,0.7c1.2,0,2.3,0.2,3.2,0.8
	s1.8,1.5,2.3,2.5c0.3,0.8,0.1,1.6-0.3,2.2c-0.4,0.6-1.3,0.9-2.3,1.2h-0.6c-3,0-6.1-0.1-9.1-0.4c-2.5-0.2-5.1-0.7-7.5-1.5
	c-1.7-0.5-3.1-1.3-4.5-2.3c-0.8-0.6-1.6-1.5-2.1-2.4c-0.3-0.5-0.5-1-0.5-1.7s0-1.2,0.2-1.8c0.4-0.8,1-1.7,1.8-2.3
	c1.9-1.4,4-2.5,6.2-3.2C108.4,193.6,115.4,192.1,122.6,191.4z"/>
<path class="st11" d="M166.9,164.1l-3,8.5l-0.8-0.3l3-8.5L166.9,164.1"/>
<path class="st11" d="M166.1,163.8l-3,8.5l-0.6-0.2l3-8.5L166.1,163.8z"/>
<path class="st10" d="M176.5,166.9l-3,8.5l-0.1,0.4l3-8.5L176.5,166.9z M176.3,167.4l-3,8.6c-0.3,0.6-0.7,1.2-1.2,1.7l3-8.5
	C175.6,168.6,175.9,168,176.3,167.4 M175.1,169l-3,8.5c-1,1.2-2.3,2.1-3.8,2.8l3-8.5C172.8,171.1,174.1,170.2,175.1,169z"/>
<path class="st10" d="M171.4,171.9l-3,8.5c-0.7,0.4-1.5,0.8-2.3,1.2c-6.8,2.9-14.4,4.9-21.9,6.2l3.5-8.5c7.3-1.3,14.5-3.3,21.3-6.2
	C170,172.6,170.7,172.3,171.4,171.9L171.4,171.9z"/>
<path class="st10" d="M147.8,179.2l1.9,7.5l-11.5,2.1l3-8.5L147.8,179.2L147.8,179.2z"/>
<path class="st11" d="M165.4,163.6l-3,8.5c-1.5-0.4-2.9-0.7-4.4-0.9l3-8.5C162.5,162.9,164,163.2,165.4,163.6z"/>
<path class="st11" d="M161.7,161.8l-3.8,9.3c-1.6-0.2-3.3-0.4-5.2-0.6c-10.6-0.6-21.1-0.2-31.6,1.2h-0.7c-6.3,0.7-12.7,1.9-18.8,3.2
	c-4.5,1-8.9,2.4-13.2,4.3c-0.6,0.3-1.2,0.6-1.8,0.9l2.6-9.5c0.5-0.3,2.5-1.2,3.1-1.4c4.2-1.8,7.7-1.7,12.1-2.6
	c6.2-1.5,12.5-3.7,18.9-4.5h0.7c10.5-1.4,21-1.4,31.5-0.7c2,0,4,0,5.5,0.2"/>
<path class="st11" d="M89.9,171.8l-3,8.5c-0.8,0.4-1.7,0.9-2.3,1.7l2.8-8.5c0.6-0.6,1.5-1.3,2.3-1.7"/>
<path class="st12" d="M87.4,173.4l-2.9,8.5L87.4,173.4z"/>
<path class="st13" d="M87.4,173.4l-3,8.5l-0.2,0.2l3-8.5L87.4,173.4z"/>
<path class="st15" d="M78.1,174.8l-3,8.5c-0.3-0.6-0.5-1.3-0.6-1.9c-0.1-0.6,0-1.4,0.2-2l3-8.5c-0.2,0.6-0.3,1.4-0.2,2
	C77.5,173.5,77.8,174.3,78.1,174.8"/>
<path class="st10" d="M151.7,175.9l-13.5,12.9c-2.3,0.3-4.7,0.7-7.2,1c-6.9,0.8-13.8,1.4-20.8,1.5c-5.9,0.1-11.7-0.1-17.5-0.7
	l-2.2-0.2c0.2-3.6-4.5-7.7-1.2-10.6l7.3-1.2c5.9,0.6,13.4,0.7,19.2,0.5c6.9-0.1,12-0.1,18.9-0.9c2.5-0.3,5.8,0.3,8.1,0"/>
<path class="st10" d="M95.7,180.5l-5.2,9.8c-2.3-0.3-4.6-0.8-6.9-1.5l-0.6-0.2l2.9-8.5l1.5-0.9c2.3,0.6,3.8,2.3,6.1,2.6 M85.9,180.1
	l-2.9,8.5c-1-0.3-2.1-0.7-3-1.3l3-8.5C83.9,179.4,84.9,179.8,85.9,180.1z"/>
<path class="st10" d="M83,179l-2.9,8.5l-0.8-0.4c-0.4-0.2-0.8-0.5-1.3-0.8l3-8.5c0.4,0.3,0.8,0.5,1.3,0.8L83,179 M80.8,177.7l-3,8.5
	c-1.2-0.7-2.1-1.8-2.7-2.8l3-8.5C78.7,175.9,79.6,176.9,80.8,177.7"/>
<path class="st17" d="M172.1,159.3c1.7,0.8,3,2.1,4.1,3.7c0.6,1,0.8,2.3,0.5,3.5c-0.2,0.9-0.7,1.9-1.5,2.6c-1.8,1.7-3.8,3-6,4
	c-6.9,2.9-14,4.9-21.3,6.2l-6.6,1.2c-2.3,0.3-4.7,0.6-7.2,0.9c-6.9,0.8-13.8,1.4-20.7,1.5c-5.9,0.2-11.7-0.1-17.5-0.7
	c-3.1-0.3-6.2-0.9-9.1-1.8c-1.6-0.4-3-1-4.5-1.9c-1.7-0.8-3-2.1-4-3.7c-0.4-0.6-0.6-1.4-0.6-2c-0.1-0.7,0-1.5,0.3-2.1
	c0.5-1.2,1.3-2.2,2.2-2.9c2.7-2,5.8-3.6,9-4.6c10.1-3.3,20.6-5.5,31.2-6.6c6.9-0.8,13.8-1.4,20.8-1.5c5.9-0.2,11.7,0.1,17.5,0.7
	c3.1,0.3,6.2,0.9,9.1,1.8C169.1,158.1,170.6,158.6,172.1,159.3z M165.8,165.2c0.4-0.3,0.8-0.7,1.2-1.2c-0.3-0.1-0.8-0.3-1.5-0.5
	c-3.1-0.8-6.4-1.3-9.7-1.5c-10.6-0.6-20.8-0.3-31.3,1l-0.6,0.1l-3.6,0.4c-6.4,0.7-9.4,1.5-15.7,2.9c-4.5,1-8.9,2.4-13.2,4.3
	c-1.5,0.6-2.9,1.6-4.1,2.6l-0.2,0.3c0.5,0.2,0.9,0.4,1.5,0.5c3.1,0.8,6.5,1.4,9.7,1.5c10.6,0.6,21.2,0.2,31.8-1.2
	c2.3-0.3,4.5-0.6,6.7-0.9l6.5-1.2c4.8-0.8,9.5-2.1,14.1-3.6C160.4,168.2,163.2,166.9,165.8,165.2"/>
<path d="M172.1,159.3l0.1-0.2L172.1,159.3z M176.1,163l0.2-0.1L176.1,163z M176.7,166.4h0.2H176.7z M175.2,169l0.1,0.1L175.2,169z
	 M169.2,173l0.1,0.2L169.2,173z M147.8,179.2V179V179.2z M141.2,180.3v0.2V180.3z M134,181.4v0.2V181.4z M113.3,182.8v-0.2V182.8z
	 M95.7,182.1v-0.2V182.1z M86.7,180.3l-0.1,0.2L86.7,180.3z M82.2,178.4l0.1-0.2L82.2,178.4z M78.2,174.8l-0.2,0.1L78.2,174.8z
	 M77.9,170.7l-0.2-0.1L77.9,170.7z M80,167.8l-0.1-0.2L80,167.8z M89,163.2l0.1,0.2L89,163.2z M120.1,156.6v0.2V156.6z M140.9,155.1
	v0.2V155.1z M158.5,155.8v0.2V155.8z M167.6,157.5l-0.1,0.2L167.6,157.5z M166.9,164.1l0.2,0.1l0.2-0.2l-0.2-0.1L166.9,164.1z
	 M165.4,163.6l0.1-0.2L165.4,163.6z M155.8,162.1v0.2V162.1z M124.5,163.2v0.2V163.2z M123.9,163.3v-0.2V163.3z M120.3,163.7v0.2
	V163.7z M104.6,166.6v0.2V166.6z M91.5,170.8l0.1,0.2L91.5,170.8z M87.4,173.5l-0.1-0.1L87.4,173.5z M87.2,173.7l-0.1-0.1l-0.2,0.2
	l0.3,0.1C87.2,173.9,87.2,173.7,87.2,173.7z M88.6,174.3v-0.2V174.3z M98.4,175.7v-0.2V175.7z M130.1,174.6v-0.2V174.6z
	 M136.9,173.7v0.2V173.7z M143.3,172.6v0.2V172.6z M157.4,169l-0.1-0.2L157.4,169z M172,159.5c1.7,0.8,3,2.1,4,3.7l0.3-0.2
	c-1-1.6-2.4-2.9-4.2-3.8L172,159.5z M175.9,163.1c0.6,0.9,0.7,2.2,0.5,3.2l0.4,0.1c0.3-1.3,0.1-2.5-0.5-3.6L175.9,163.1L175.9,163.1
	z M176.5,166.4c-0.2,0.9-0.7,1.8-1.4,2.5l0.3,0.3c0.7-0.7,1.3-1.7,1.5-2.7L176.5,166.4L176.5,166.4z M175,168.9
	c-1.7,1.7-3.8,3-6,3.9l0.2,0.4c2.3-0.9,4.3-2.3,6.1-4L175,168.9L175,168.9z M169.1,172.8c-6.8,2.8-14,4.9-21.3,6.2l0.1,0.4
	c7.3-1.3,14.5-3.3,21.4-6.3L169.1,172.8L169.1,172.8z M147.8,179.1l-6.6,1.2l0.1,0.4l6.6-1.2L147.8,179.1z M141.2,180.1
	c-2.3,0.3-4.7,0.6-7.2,0.9l0.1,0.4c2.5-0.3,4.9-0.6,7.2-0.9L141.2,180.1z M134,181.2c-6.9,0.8-13.8,1.4-20.7,1.5v0.4
	c6.9-0.1,13.9-0.6,20.8-1.5L134,181.2L134,181.2z M113.3,182.6c-5.9,0.2-11.7-0.1-17.5-0.7v0.4c5.9,0.6,11.7,0.8,17.6,0.7
	L113.3,182.6z M95.9,181.9c-3-0.3-6.2-0.9-9.1-1.8l-0.1,0.4c3,0.8,6.1,1.5,9.2,1.8C95.9,182.3,95.9,181.9,95.9,181.9z M86.7,180.1
	c-1.6-0.4-3-1-4.4-1.9l-0.2,0.4c1.5,0.8,2.9,1.5,4.5,1.9C86.5,180.5,86.7,180.1,86.7,180.1z M82.3,178.3c-1.6-0.8-2.9-2.1-3.9-3.6
	l-0.3,0.2c0.9,1.6,2.4,2.9,4.1,3.8L82.3,178.3L82.3,178.3z M78.4,174.7c-0.3-0.6-0.5-1.3-0.6-2h-0.4c0.1,0.7,0.3,1.5,0.6,2.1
	L78.4,174.7z M77.8,172.8c-0.1-0.7,0-1.4,0.3-2l-0.4-0.1c-0.3,0.7-0.4,1.5-0.3,2.2L77.8,172.8z M78.1,170.7c0.4-1.2,1.2-2.1,2.1-2.8
	l-0.3-0.3c-0.9,0.8-1.8,1.9-2.2,3L78.1,170.7z M80.2,167.9c2.7-2,5.8-3.6,8.9-4.5L89,163c-3.2,1-6.3,2.6-9,4.6L80.2,167.9z
	 M89.1,163.4c10.1-3.3,20.5-5.5,31.2-6.6v-0.4c-10.7,1-21.1,3.2-31.3,6.6L89.1,163.4z M120.2,156.8c6.9-0.8,13.8-1.4,20.8-1.5v-0.4
	c-7,0.1-13.9,0.6-20.8,1.5C120.2,156.4,120.2,156.8,120.2,156.8z M140.9,155.3c5.9-0.2,11.7,0.1,17.5,0.7v-0.4
	c-5.9-0.6-11.7-0.8-17.6-0.7L140.9,155.3z M158.4,156c3,0.3,6.2,0.9,9.1,1.8l0.1-0.4c-3-0.8-6.1-1.5-9.2-1.8L158.4,156L158.4,156z
	 M167.5,157.7c1.6,0.4,3,1,4.4,1.7l0.2-0.4c-1.5-0.7-2.9-1.4-4.5-1.8L167.5,157.7L167.5,157.7z M165.9,165.4
	c0.4-0.3,0.8-0.7,1.3-1.2l-0.3-0.2c-0.3,0.4-0.7,0.7-1.2,1L165.9,165.4L165.9,165.4z M167.1,163.9c-0.3-0.1-0.8-0.3-1.6-0.5
	l-0.1,0.4c0.6,0.2,1.2,0.3,1.5,0.5L167.1,163.9L167.1,163.9z M165.5,163.4c-3.2-0.8-6.5-1.3-9.7-1.5v0.4c3.2,0.2,6.5,0.6,9.6,1.5
	L165.5,163.4z M155.8,161.9c-10.6-0.6-20.8-0.3-31.3,1l0.1,0.4c10.5-1.4,20.7-1.7,31.2-1V161.9z M124.5,163l-0.6,0.1v0.4l0.6-0.1
	V163z M123.9,163.1l-3.6,0.4l0.1,0.4l3.6-0.4L123.9,163.1z M120.3,163.5c-6.4,0.7-9.5,1.5-15.7,2.9l0.1,0.4
	c6.2-1.5,9.3-2.1,15.7-2.9L120.3,163.5z M104.6,166.4c-4.5,1-9,2.4-13.2,4.3l0.1,0.3c4.3-1.8,8.7-3.2,13.2-4.3L104.6,166.4z
	 M91.4,170.6c-1.6,0.6-2.9,1.6-4.1,2.7l0.3,0.3c1.2-1,2.5-2,4-2.6L91.4,170.6L91.4,170.6z M87.3,173.3l-0.2,0.3l0.3,0.3l0.2-0.3
	L87.3,173.3z M87.1,173.9c0.5,0.2,1,0.4,1.6,0.5l0.1-0.4c-0.5-0.1-1-0.3-1.5-0.5L87.1,173.9z M88.6,174.5c3.2,0.8,6.5,1.4,9.7,1.5
	v-0.4c-3.2-0.2-6.5-0.6-9.7-1.5V174.5z M98.4,175.9c10.7,0.6,21.2,0.2,31.8-1.2l-0.1-0.4c-10.6,1.4-21.1,1.7-31.8,1.2L98.4,175.9
	L98.4,175.9z M130.1,174.8c2.3-0.3,4.5-0.6,6.7-0.9l-0.1-0.4c-2.2,0.3-4.4,0.6-6.7,0.9L130.1,174.8z M136.9,173.9l6.5-1.2l-0.1-0.4
	l-6.5,1.2L136.9,173.9z M143.4,172.8c4.8-0.8,9.5-2.1,14.1-3.6l-0.1-0.4c-4.6,1.5-9.3,2.6-14.1,3.6L143.4,172.8z M157.5,169.2
	c2.9-0.8,5.8-2.2,8.4-3.8l-0.2-0.3c-2.5,1.6-5.3,2.9-8.3,3.8L157.5,169.2L157.5,169.2z"/>
<path class="st15" d="M190.2,124.9l-2.9,8.5v-0.3l2.9-8.5C190.3,124.6,190.3,124.8,190.2,124.9z"/>
<path class="st10" d="M199.4,127.9l-2.9,8.5c0,0.2-0.1,0.3-0.2,0.5l2.9-8.5C199.3,128.4,199.3,128.2,199.4,127.9z"/>
<path class="st10" d="M199.1,128.6l-2.9,8.5c-0.2,0.4-0.4,0.8-0.7,1.3c-0.3,0.3-0.5,0.7-0.8,1l2.9-8.5c0.3-0.3,0.5-0.6,0.8-1
	S198.9,129,199.1,128.6z M197.6,130.8l-2.9,8.5c-1.5,1.6-3.2,2.9-5.1,4h-0.2l2.9-8.5h0.2C194.3,133.8,196.1,132.4,197.6,130.8"/>
<path class="st10" d="M192.2,134.8l-2.9,8.5c-7.1,3.8-14.7,6.6-22.6,8.4h-0.6c-0.5,0.1-1,0.1-1.7,0l2.9-8.5c0.5,0.1,1,0.1,1.7,0
	c0.2,0,0.4-0.1,0.6-0.1C177.6,141.3,185.1,138.5,192.2,134.8L192.2,134.8z"/>
<path class="st10" d="M167.5,143.2l-2.9,8.5l-1.2-0.3l2.9-8.5C166.7,143.1,167.2,143.2,167.5,143.2z"/>
<path class="st10" d="M166.3,142.9l-2.9,8.5c-0.3-0.1-0.6-0.2-0.9-0.4l2.9-8.5C165.7,142.7,166,142.8,166.3,142.9z"/>
<path class="st10" d="M165.4,142.6l-2.9,8.5c-0.3-0.2-0.6-0.3-0.9-0.6l2.8-8.4C164.6,142.3,165,142.5,165.4,142.6"/>
<path class="st10" d="M166.8,142.1l-2.1,9.6c-2.8-0.5-4.1-1.8-4.4-2.2c-0.3-0.3-0.5-0.7-0.6-1.3c-0.1-0.4-0.1-0.9,0.1-1.4l2.9-8.5
	c-0.1,0.4-0.1,0.9,0,1.4c0.1,0.4,1.2,0.6,1.5,1s0.7,0.8,1.2,1.2"/>
<path class="st11" d="M190.3,124.5l-2.9,8.5v-0.3c0,0,0-0.1-0.3-0.3l2.9-8.5l0.3,0.3V124.5z M189.8,123.9l-2.9,8.6l-0.5-0.3
	l-0.3-0.3l2.9-8.5l0.4,0.2L189.8,123.9"/>
<path class="st11" d="M189,123.3l-2.8,8.5c-0.7-0.3-1.6-0.6-2.4-0.9l2.9-8.5C187.4,122.6,188.3,122.9,189,123.3"/>
<path class="st11" d="M192.2,123.3l-8.6,7.6l-1-0.3c-2.3-0.6-4.7-1.2-7-1.5l-2.4-9.7c2.4,0.3,10,2,12.3,2.7l0.9,0.3 M69.9,134.8
	l-2.9,8.5c-1.2,0.6-2.2,1.4-3.1,2.2l-0.6,0.6l2.8-8.6l0.7-0.7C67.7,136,68.8,135.5,69.9,134.8L69.9,134.8z"/>
<path class="st11" d="M66.2,137.6l-2.9,8.5c-0.3,0.3-0.6,0.7-0.8,1.2l2.9-8.5C65.6,138.3,65.8,137.9,66.2,137.6 M65.3,138.7
	l-2.9,8.5L65.3,138.7z"/>
<path class="st10" d="M150.3,145.4l-2.8,9.2c-0.2,0.2-1.2,1.2-1.7,1.2l-1.7-8.1C144.3,147.5,150.3,145.4,150.3,145.4L150.3,145.4z"
	/>
<path class="st10" d="M149.2,147.1l-2.9,8.5c-0.4,0.2-0.9,0.4-1.5,0.5c-3.3,0.5-6.9,1-10.6,1.5c-10.2,1.3-20.5,2-30.8,2.2
	c-8.6,0.2-17.1-0.1-25.7-1l-3.2-0.4l2.9-8.5l3.2,0.4c8.6,0.9,17.1,1.3,25.7,1c10.4-0.2,20.6-0.9,30.8-2.2c3.8-0.4,7.2-0.9,10.6-1.5
	C148.2,147.5,148.8,147.4,149.2,147.1z"/>
<path class="st10" d="M80.9,150.3l-6.5,8.1c-3.3-0.5-6.6-1.2-9.8-2.2L64,156l2.9-8.5l0.6,0.2C70.8,148.6,77.6,149.8,80.9,150.3
	L80.9,150.3z"/>
<path class="st10" d="M69.9,148.1l-6,7.9c-1.5-0.5-2.9-1-4.3-1.8l2.9-8.5C64.1,146.5,68.5,147.6,69.9,148.1z"/>
<path class="st10" d="M62.7,145.7l-2.9,8.5l-1-0.6c-0.5-0.3-1.2-0.6-1.7-1L60,144c0.5,0.4,1,0.7,1.7,1L62.7,145.7z"/>
<path class="st10" d="M60,144.2l-2.9,8.5c-1.4-0.9-2.4-2.1-3.2-3.6c-0.4-0.7-0.7-1.6-0.7-2.4c-0.1-0.8,0-1.7,0.3-2.5l2.9-8.5
	c-0.3,0.8-0.3,1.7-0.3,2.5c0.1,0.8,0.3,1.7,0.7,2.4C57.5,142.1,58.6,143.2,60,144.2L60,144.2z"/>
<path class="st11" d="M178.6,120.6l-2.9,8.5c-2.4-0.3-5.2-0.6-8.3-0.9c-16.1-0.9-32.3-0.4-48.3,1.7c-9.5,1.2-18.9,2.7-28.2,4.9
	c-6.8,1.6-13.5,3.7-20,6.4c-1.4,0.6-2.7,1.3-4,2l2.9-8.5c1.3-0.7,2.6-1.3,4-1.9c6.1-3.6,12.9-5.6,20-6.5c9.3-2.1,18.7-3.8,28.2-4.8
	c16-2.1,32.3-3.2,48.4-2.3C174.2,118,176.6,119.4,178.6,120.6"/>
<path class="st16" d="M118.5,114.8c-15.7,1.7-31.2,5.1-46.1,10.1c-4.6,1.6-9,3.8-12.9,6.7c-1.4,1-2.4,2.4-3.1,4
	c-0.3,0.8-0.4,1.7-0.4,2.6c0.1,0.8,0.3,1.7,0.7,2.5c1.2,1.9,2.8,3.5,4.8,4.6c1.9,1,3.9,1.8,6,2.4c4.3,1.3,8.6,2.1,13,2.6
	c8.6,0.9,17.1,1.3,25.7,1c10.4-0.2,20.6-0.9,30.8-2.2c3.8-0.4,7.2-0.9,10.6-1.5c1.2-0.2,1.9-0.7,2.3-1.4c0.4-0.7,0.4-1.6-0.1-2.5
	c-0.7-0.9-1.6-1.7-2.7-2.2c-1-0.4-2.3-0.6-3.5-0.5c-3.3,0.5-6.8,1-10.6,1.5c-15.9,2.1-32,2.6-48,1.7c-5.2-0.3-10.4-1.2-15.4-2.4
	c-1.3-0.3-2.6-0.8-3.8-1.5h-0.1c-0.3-0.2-0.4-0.4-0.6-0.7v-0.1c0-0.1-0.1-0.3,0-0.7c0.3-0.7,0.8-1.4,1.5-1.8
	c2.2-1.8,4.6-3.2,7.2-4.2 M118.5,114.8c10.2-1.3,20.5-2,30.8-2.2c8.6-0.2,17.1,0.1,25.7,1c4.4,0.5,8.8,1.4,13.1,2.6
	c2.1,0.6,4.1,1.4,5.9,2.4c2,1,3.7,2.6,4.8,4.6l0.7,3.5v0.1c-0.1,1-0.5,2.1-1.2,2.9c-1.6,2.1-3.7,3.9-6,5c-7.2,3.8-14.6,6.5-22.5,8.3
	l-0.2,0.1c-0.2,0.1-0.4,0.1-0.6,0.1c-1,0.1-2.2-0.1-3.1-0.4c-1-0.4-1.9-0.9-2.6-1.8c-0.3-0.3-0.6-0.7-0.7-1.3
	c-0.1-0.4-0.1-0.9,0.1-1.4c0.2-0.4,0.4-0.8,0.8-1.2c0.4-0.3,0.7-0.4,1.3-0.5c5.2-1.3,10.4-2.8,15.3-4.8c3.1-1.2,6.1-2.7,8.7-4.8
	c0.7-0.5,1.3-1.4,1.5-2.2v-0.3c0,0,0-0.2-0.8-0.6c-1.2-0.6-2.4-1.2-3.8-1.5c-5-1.3-10.1-2.1-15.3-2.4c-16.1-0.9-32.3-0.4-48.3,1.7
	c-9.5,1-18.9,2.7-28.1,4.8c-6.8,1.6-13.5,3.7-20,6.4"/>
<path class="st2" d="M131.6,235.2l-12.2-6.1c5.9-0.9,12.8-2.5,18.2-4.7l11,6C143.1,232.7,137.5,234.3,131.6,235.2z M112.8,234.7
	l-11-6h0.2l11,6H112.8z"/>
<path class="st2" d="M112.9,234.8l-11-6l0.9,0.3l11,6L112.9,234.8z"/>
<path class="st2" d="M113.8,235.1l-11-6.1h0.6c5.6,0.7,11.5,0.7,17.1,0l13.1,7c-5.8,0.7-14.4,1.9-20.1,1.2L113.8,235.1"/>
<path class="st10" d="M215.9,91.9l-6.7,13.6c-3.9,2.2-7.9,4-12,5.5c-14.8,5.5-36.2,10.4-61.4,13.5c-13.7,1.8-27.5,2.7-41.3,3
	c-11.4,0.3-22.8-0.1-34.2-1.4c-1.5-0.2-2.9-0.3-4.3-0.6L52.3,115c1.4,0.2,9.3,1.6,10.9,1.7c11.4,1.3,23,1.9,34.4,1.5
	c14.7-2.6,28-3.9,40.8-3.7c25.2-5.6,46.9-8.4,61.7-11.9c4.2-1.5,14.6-7,18.5-9.2"/>
<path class="st18" d="M108.4,243.2l-11-6c-2.1-1.3-3.9-3.1-5.1-5.3s-1.8-4.7-1.7-7.1l11.1,6c-0.1,2.5,0.5,4.9,1.7,7.1
	C104.5,240.1,106.3,241.9,108.4,243.2"/>
<path class="st10" d="M221,88.3l-2.9,8.5l-0.1,0.4l-0.1,0.3l2.9-8.6l0.1-0.3L221,88.3 M220.7,88.9l-2.9,8.5c-0.5,1-1.2,2-1.9,2.8
	l2.9-8.5C219.5,90.9,220.2,90,220.7,88.9z"/>
<path class="st10" d="M218.8,91.9l-2.9,8.5c-0.6,0.6-1.3,1.3-2,1.9c-1.6,1.3-3.1,2.3-4.8,3.2L212,97c1.7-0.9,3.3-2.1,4.8-3.2
	C217.5,93.2,218.2,92.6,218.8,91.9z M69.9,117l-14,8.6c-4.3-0.6-8.6-1.5-12.8-2.8l-0.9-0.3l2.9-8.5l0.9,0.3c4.5,0.2,10-2.8,13.8-0.3
	"/>
<path class="st10" d="M51.1,115.5l-8.8,6.9c-1.8-0.5-3.6-1.3-5.2-2.1l2.5-8.8C44,113.4,46.5,114.4,51.1,115.5z"/>
<path class="st10" d="M40,111.6l-2.9,8.6c-0.5-0.2-0.9-0.5-1.4-0.7c-0.7-0.4-1.4-0.8-2-1.3l2.9-8.5c0.6,0.4,1.4,0.9,2,1.3
	C39.1,111.2,39.5,111.4,40,111.6"/>
<path class="st11" d="M212.3,86.9l-3.5,6.9c0.1-0.2,0.2-0.5,0.2-0.8s-0.1-0.5-0.2-0.8c-0.2-0.4-2.4-0.9-2.8-1.3
	c1-1.5,1.3-3.9-0.5-12.7c0.4,0.2,8.4,4.8,8.6,5.1c0.1,0.3-0.5,2.6-0.5,2.8s-0.4,1.5-0.5,1.7"/>
<path class="st11" d="M210.8,82.7l-2.9,8.5c-0.3-0.2-0.5-0.4-0.8-0.5l2.9-8.5C210.2,82.3,210.5,82.5,210.8,82.7z M209.9,82l-2.9,8.5
	l-3.3-2l5.5-6.9C209.5,81.7,209.7,81.9,209.9,82"/>
<path class="st11" d="M209.3,81.7l-2.9,8.5c-1-0.5-6.7-2.4-7.8-2.7l7.4-7c1.2,0.4,2.3,0.8,3.5,1.4"/>
<path class="st11" d="M205.8,80.4L203,89l-1.5-0.4c-3.2-0.9-11.7-2.3-15.1-2.8l8.1-7.7c3.3,0.5,6.7,1.2,9.9,2.1L205.8,80.4"/>
<path class="st11" d="M194.4,77.9l-2.9,8.5c-3.3-0.5-7-0.9-11.1-1.3c-21.7-1.3-43.5-0.4-65,2.4c-4.8,0.6-9.4,1.3-13.9,2l2.9-8.5
	c4.5-0.6,9.1-1.4,13.9-2c21.6-4.2,43.4-3.7,65.2-2.4c4.1,0.3,7.7,0.7,11.1,1.3"/>
<path class="st11" d="M104.4,80.9l-2.8,8.5c-0.6,0.1-1.2,0.1-1.8,0l2.9-8.5C103.4,81,103.9,81,104.4,80.9 M102.6,80.9l-2.9,8.5
	l-1.3-0.3l2.9-8.5C101.9,80.7,102.2,80.8,102.6,80.9z"/>
<path class="st11" d="M101.5,80.6l-2.9,8.5c-0.3-0.1-0.6-0.2-0.9-0.4l2.9-8.5L101.5,80.6z"/>
<path class="st11" d="M100.6,80.2l-2.9,8.5c-0.3-0.1-0.6-0.3-0.9-0.5l2.9-8.5L100.6,80.2z"/>
<path class="st11" d="M144.1,75.4L96.8,88.2c-0.5-0.4-1-0.9-1.4-1.5c-0.2-0.3-0.3-0.7-0.4-1s0-0.7,0.1-1.2L98,76
	c-0.1,0.4-0.1,0.7-0.1,1.2c0.1,0.4,0.2,0.7,0.4,1c0.3,0.5,1.6,1,2.2,1.5 M92.9,82.7L90,91.2c-0.4,0.2-0.8,0.3-1.3,0.4
	c-9.8,1.9-19.4,4.3-29,7.4c-5.1,1.7-10,3.8-14.6,6.3l2.9-8.5c4.7-2.6,9.6-4.7,14.6-6.3c9.5-3.1,19.1-5.5,29-7.4
	C92.1,83,92.5,82.9,92.9,82.7z"/>
<path class="st11" d="M48,96.9l-0.3,7.2c-1,0.6-4.6,2.5-5.5,3.2c-0.8,0.6-1.7,1.4-2.4,2.1l2.9-8.4c0.4-1.2,1.2-2,2.4-2.2
	C46,98.1,46.9,97.5,48,96.9 M42.6,101l-2.9,8.5c-0.4,0.5-0.8,1-1.2,1.7l2.9-8.5C41.7,102.1,42.1,101.5,42.6,101z"/>
<path class="st11" d="M41.5,102.6l-2.9,8.5l-0.1,0.3l2.8-8.5L41.5,102.6"/>
<path class="st19" d="M105.8,219l-11-6l3.8-3l11,6L105.8,219z"/>
<path class="st16" d="M139.4,116.2c20.5-2.4,40.7-7.1,60.2-13.8c6-2.1,11.7-5,16.8-8.8c1.8-1.4,3.1-3.1,4.1-5.2
	c0.4-1.1,0.5-2.2,0.5-3.4c-0.1-1.1-0.4-2.2-1-3.2c-1.5-2.4-3.7-4.4-6.4-5.9c-2.5-1.3-5.1-2.2-7.8-3c-5.6-1.6-11.2-2.6-17-3.2
	c-11.2-1.1-22.5-1.4-33.7-1c-13.5,0.4-26.9,1.5-40.3,3.3c-4.9,0.6-9.4,1.3-13.8,2c-1.5,0.3-2.5,1-3,1.8c-0.5,1-0.5,2,0.2,3.2
	c1,1.2,2.1,2.1,3.6,2.8c1.4,0.5,3,0.8,4.5,0.6c4.4-0.7,8.9-1.4,13.8-2c20.8-2.9,41.8-3.8,62.8-2.8c6.8,0.3,13.6,1.3,20.1,2.9
	c1.6,0.4,3.4,1,4.9,1.8h0.1c0.4,0.3,0.6,0.5,0.8,0.9v0.1c0,0.1,0.1,0.4,0,0.9c-0.4,1-1.1,1.8-1.9,2.3c-2.9,2.3-6,4.3-9.4,5.5
	 M139.4,116.2c-13.4,1.8-26.8,2.9-40.3,3.3c-11.2,0.4-22.4,0.1-33.7-1c-5.8-0.6-11.5-1.6-17.1-3.2c-2.7-0.8-5.4-1.7-7.7-3
	c-2.6-1.3-4.8-3.3-6.4-5.9l-1-4.4v-0.1c0.1-1.4,0.7-2.7,1.5-3.8c2-2.7,4.7-5.1,7.7-6.6c9.4-5,19.1-8.6,29.3-11l0.3-0.1
	c0.3-0.1,0.5-0.1,0.8-0.1c1.4-0.1,2.9,0.1,4.1,0.5c1.4,0.5,2.5,1.2,3.4,2.3c0.4,0.4,0.8,0.9,1,1.6c0.1,0.5,0.1,1.2-0.1,1.8
	s-0.5,1.1-1.1,1.5c-0.5,0.4-1,0.6-1.6,0.7c-6.8,1.7-13.5,3.8-19.9,6.4c-4.1,1.5-7.9,3.6-11.3,6.3c-1,0.7-1.6,1.8-1.9,2.9v0.4
	c0,0,0,0.3,1.1,0.8c1.5,0.8,3.2,1.5,4.9,1.8c6.6,1.6,13.3,2.6,20,2.9c21.1,1,42.3,0.1,63.2-2.8c12.4-1.5,24.7-3.8,36.8-6.6
	c8.9-2.1,17.6-4.9,26.1-8.5"/>
<path class="st18" d="M104.5,237.4l-13.9-12.7v-9.6l13.9,4.5V237.4z"/>
<path class="st18" d="M-5.7,3.7"/>
<path class="st18" d="M103.2,222l-12.7-6.9L2.4,84.9l11,6L103.2,222L103.2,222z"/>
<path class="st5" d="M14.4,84.3l-11-6l0.1-0.1l11,5.9C14.5,84.1,14.4,84.1,14.4,84.3"/>
<path class="st0" d="M14.5,84.1l-11-6L4,77.7l11,6C14.8,83.9,14.7,84,14.5,84.1"/>
<path class="st6" d="M15,83.8l-11-6c0.2-0.1,0.4-0.3,0.6-0.3l11,6C15.5,83.5,15.2,83.7,15,83.8z"/>
<path class="st7" d="M15.7,83.4l-11-6c0.4-0.2,0.7-0.3,1.2-0.3c0.5-0.1,1-0.1,1.5,0l11.1,6.1c-0.5-0.1-1-0.1-1.5,0
	C16.4,83.2,16.1,83.4,15.7,83.4"/>
<path class="st6" d="M18.4,83.2l-11-6c0.2,0.1,0.5,0.1,0.7,0.2l11,6C18.8,83.3,18.6,83.2,18.4,83.2z"/>
<path class="st0" d="M19,83.4l-11-6L19,83.4h-0.1H19z"/>
<path class="st20" d="M243.2,50.9l-89.3,156.4c-0.5,0.8-0.7,1.8-0.6,2.7v13.5c0,1.5-0.3,2.9-1.2,4.2c-0.6,1-1.6,2-2.7,2.6
	c-5.3,2.1-12.4,4-17.8,4.9c-5.6,0.7-11.5,0.7-17.1,0c-1.4-0.2-2.5-0.9-3.2-2c-0.8-1-1.2-2.4-1-3.7v-11.2c0-0.8-0.4-1.7-0.8-2.4
	l-89-131.3c-0.4-0.5-0.9-1-1.6-1.3c-0.6-0.3-1.4-0.4-2-0.3c-0.9,0.1-1.8,0.6-2.4,1.3c-0.9,0.7-1.6,1.9-1.8,3
	c-0.2,1.3,0.1,2.5,0.8,3.5L101.7,221v9.6c0,7.1,4.3,12.8,10.7,13.9c6.3,0.8,12.8,0.8,19,0c6.7-1,18.4-3.5,23.6-8.1
	c1.5-1.3,2.7-2.6,3.8-4.3c2-3,3-6.5,3-10v-12.3L250.3,55L243.2,50.9z"/>
<path d="M153.9,207.3l-0.2-0.1L153.9,207.3z M243.2,50.9l0.1-0.2l-0.2-0.1l-0.1,0.2L243.2,50.9z M153.1,210h0.2H153.1z M153.1,223.5
	h-0.2H153.1z M152,227.7l-0.2-0.1L152,227.7z M149.4,230.4l0.1,0.2L149.4,230.4z M131.6,235.2v0.2V235.2z M114.5,235.2v0.2V235.2z
	 M111.2,233.2l0.2-0.1L111.2,233.2z M110.2,229.5h0.2H110.2z M110.2,218.4H110H110.2z M109.3,216l0.2-0.1L109.3,216z M20.4,84.7
	l0.2-0.1L20.4,84.7z M18.8,83.4l-0.1,0.2L18.8,83.4z M16.8,83.1v-0.2V83.1z M14.4,84.3l0.1,0.2L14.4,84.3z M12.6,87.4h-0.2H12.6z
	 M13.4,90.9l0.2-0.1L13.4,90.9z M101.6,221.1h0.2v-0.2L101.6,221.1z M112.3,244.6v0.2V244.6z M131.3,244.6v0.2V244.6z M154.9,236.7
	l0.1,0.2l0.1-0.1l-0.1-0.1L154.9,236.7L154.9,236.7z M154.9,236.6l-0.1-0.2l-0.1,0.1l0.1,0.1L154.9,236.6L154.9,236.6z M158.8,232.4
	l-0.2-0.1L158.8,232.4z M161.8,222.2h0.2H161.8z M161.8,210l-0.2-0.1v0.1H161.8z M250.3,55l0.2,0.1V55H250.3L250.3,55z M154,207.4
	L243.3,51l-0.3-0.2l-89.3,156.4L154,207.4L154,207.4z M153.4,210c0-0.9,0.2-1.9,0.6-2.6l-0.3-0.2c-0.5,0.8-0.7,1.9-0.7,2.8H153.4z
	 M153.4,223.5V210H153v13.5H153.4z M152.2,227.8c0.7-1.3,1.2-2.8,1.2-4.3H153c0,1.5-0.3,2.8-1,4.1L152.2,227.8L152.2,227.8z
	 M149.5,230.5c1.2-0.6,2.1-1.6,2.7-2.7l-0.3-0.2c-0.6,1-1.6,2-2.6,2.6L149.5,230.5z M149.3,230.2c-5.3,2.1-12.4,4-17.7,4.8l0.1,0.4
	c5.3-0.8,12.4-2.8,17.8-4.9L149.3,230.2L149.3,230.2z M131.6,235c-5.6,0.7-11.4,0.7-17,0l-0.1,0.4c5.8,0.7,11.5,0.7,17.1,0V235z
	 M114.5,235c-1.3-0.2-2.4-0.8-3.1-1.9l-0.3,0.2c0.8,1.2,2.1,1.9,3.5,2.1L114.5,235L114.5,235z M111.3,233.1c-0.7-1-1.2-2.3-0.9-3.6
	H110c-0.2,1.4,0.2,2.7,1,3.9L111.3,233.1z M110.4,229.5v-11.2H110v11.2H110.4z M110.4,218.4c0-0.9-0.4-1.8-0.8-2.5l-0.3,0.2
	c0.4,0.7,0.8,1.5,0.8,2.3H110.4z M109.5,215.9l-89-131.3l-0.3,0.2l89,131.3C109.2,216.1,109.5,215.9,109.5,215.9z M20.6,84.6
	c-0.4-0.6-0.9-1-1.7-1.4l-0.2,0.4c0.6,0.3,1.2,0.7,1.5,1.3C20.2,84.9,20.6,84.6,20.6,84.6z M18.9,83.2c-0.6-0.3-1.5-0.4-2.1-0.3
	l0.1,0.4c0.6-0.1,1.4,0,1.9,0.2C18.8,83.5,18.9,83.2,18.9,83.2z M16.8,82.9c-0.9,0.1-1.9,0.6-2.5,1.4l0.3,0.3c0.6-0.6,1.5-1,2.3-1.2
	C16.9,83.4,16.8,82.9,16.8,82.9z M14.3,84.1c-1,0.8-1.7,2-1.9,3.2l0.4,0.1c0.2-1.2,0.8-2.2,1.7-2.9C14.5,84.6,14.3,84.1,14.3,84.1z
	 M12.4,87.4c-0.2,1.3,0.1,2.6,0.8,3.7l0.3-0.2c-0.6-0.9-0.9-2.2-0.7-3.3C12.8,87.5,12.4,87.4,12.4,87.4z M13.3,91l88.2,130.2
	l0.3-0.2L13.6,90.7L13.3,91z M101.4,221.1v9.6h0.4v-9.6H101.4z M101.4,230.7c0,7.1,4.3,13,10.8,14.1l0.1-0.4
	c-6.3-1-10.5-6.7-10.5-13.7L101.4,230.7L101.4,230.7z M112.3,244.8c6.4,0.8,12.8,0.8,19.1,0l-0.1-0.4c-6.3,0.8-12.7,0.8-19,0V244.8z
	 M131.4,244.8c3.3-0.5,7.9-1.4,12.3-2.7c4.4-1.3,8.7-3,11.3-5.4l-0.3-0.3c-2.5,2.3-6.8,4-11.2,5.3s-9,2.2-12.3,2.6L131.4,244.8z
	 M155.1,236.6l-0.4,0.2L155.1,236.6z M158.6,232.3c-1,1.6-2.3,3-3.8,4.2l0.3,0.3c1.5-1.3,2.8-2.7,3.9-4.3L158.6,232.3z M161.6,222.2
	c0,3.6-1,7-3,9.9l0.3,0.2c2-3,3-6.6,3-10.1L161.6,222.2L161.6,222.2z M161.6,210v12.2h0.4v-12.3h-0.4V210z M250.1,54.9l-88.4,155
	l0.3,0.2l88.4-154.9L250.1,54.9L250.1,54.9z M243.1,51.1l7.1,4.1l0.2-0.3l-7.1-4.1L243.1,51.1z"/>
<path class="st21" d="M13.4,90.9l-11-6.1c-0.5-0.6-0.7-1.3-0.8-2.1c-0.1-0.7,0-1.6,0.3-2.2l11,5.9c-0.3,0.7-0.4,1.5-0.3,2.2
	C12.6,89.5,12.9,90.2,13.4,90.9"/>
<path class="st9" d="M12.8,86.5l-11-6C1.9,80.3,2,80,2.1,79.8l11,6.1L12.8,86.5"/>
<path class="st3" d="M13.2,85.9l-11-6.1c0-0.2,0.2-0.4,0.3-0.6l11,6.1C13.5,85.5,13.3,85.7,13.2,85.9z"/>
<path class="st4" d="M13.5,85.3l-11-6.1l0.4-0.5l11,6.1L13.5,85.3z"/>
<path class="st5" d="M13.9,84.9l-11-6.1l0.4-0.4l11,6C14.2,84.6,14,84.7,13.9,84.9z"/>
<path class="st0" d="M14.3,84.5l-11-6.1L14.3,84.5"/>
<path class="st10" d="M245.8,45l-3.6,8.7c0.2-0.5,0.3-1,0.3-1.6s-0.2-1-0.4-1.5l2.6-9.8c0.2,0.4,1.3,2.1,1.4,2.6
	C246.1,44,246,44.5,245.8,45L245.8,45z"/>
<path class="st10" d="M245,42.2l-2.9,8.5c-0.5-0.8-1.2-1.5-1.9-2l0.2-12.3C241.2,36.9,244.5,41.4,245,42.2L245,42.2z"/>
<path class="st10" d="M243.2,40.2l-2.9,8.5c-0.4-0.3-0.8-0.6-1.4-0.9l-1-0.5l2.9-8.5c0.4,0.2,0.7,0.3,1,0.5
	C242.2,39.6,242.7,39.9,243.2,40.2z"/>
<path class="st10" d="M250.3,41.1l-12.4,6.2c-1.6-0.8-12-4.9-13.7-5.5l11.7-5C237.5,37.3,248.6,40.3,250.3,41.1z"/>
<path class="st10" d="M240.2,35.4l-7.4,9.8c-0.6-0.2-1.4-0.4-2.2-0.6c-4.6-1.3-13.8-2.8-18.4-3.6l7.4-7.8c4.7,0.6,8.5-1.3,13.1,0
	C233.4,33.3,239.5,35.1,240.2,35.4L240.2,35.4z"/>
<path class="st10" d="M219.6,33.1l-2.9,8.5c-4.6-0.7-9.8-1.3-15.4-1.7c-29.9-1.8-60-0.6-89.7,3.2c-6.6,0.8-13,1.8-19,2.7l2.9-8.5
	c6.2-0.9,12.4-1.9,19-2.7c29.7-3.9,60-6.1,89.9-4.3C210,30.8,215,32.5,219.6,33.1z M95.5,37.4l-2.9,8.5c-0.6,0.1-1.2,0.1-1.8,0
	l2.9-8.5C94.3,37.5,94.9,37.5,95.5,37.4z"/>
<path class="st10" d="M93.8,37.4l-2.9,8.5l-1.3-0.3l2.9-8.5C92.5,37.1,93.8,37.4,93.8,37.4z"/>
<path class="st10" d="M103.3,39.8c-5.5,4-8.8,7.4-13.7,5.8c-0.3-0.1-2-0.8-2.2-1.3l4.2-7.6c0.3,0.2,0.6,0.3,0.9,0.4"/>
<path class="st10" d="M91.6,36.7l-2.9,8.5c-0.3-0.1-0.6-0.3-0.9-0.5l2.9-8.5C90.9,36.4,91.3,36.5,91.6,36.7z"/>
<path class="st10" d="M101,35.6l-13.3,9c-0.5-0.4-1-0.8-1.4-1.5c-0.2-0.3-0.3-0.7-0.4-1c-0.1-0.4,0-0.7,0.1-1.2l2.9-8.5
	c-0.1,0.4-0.1,0.7-0.1,1.2c0.1,0.4,0.9,0.1,1.2,0.5c0.3,0.5,1,0.6,1.6,1 M80.2,38.9l-2.9,8.5c-0.1,0.2-0.2,0.4-0.4,0.6l3-8.5
	C80.1,39.3,80.2,39.1,80.2,38.9"/>
<path class="st10" d="M79.9,39.4L77,47.9c-0.2,0.2-0.4,0.4-0.6,0.5l2.9-8.5C79.4,39.8,79.6,39.6,79.9,39.4z"/>
<path class="st10" d="M80.1,37.7c0.1,0,0.2-0.3,0.3-0.2c0.5,0.6-1,5.2-3.5,10.7c-0.4,0.2-0.5,0.5-2,0.7c-13.6,2.5-27,6-40,10.2
	c-7.1,2.3-13.9,5.2-20.4,8.8l2.9-8.5c6.5-3.6,13.2-8.1,20.3-10.2c13.1-4.3,25.6-7.4,39.2-9.9C77.3,39.2,79.6,37.9,80.1,37.7z"/>
<path class="st10" d="M23,55.7L14.5,68c-1.5,0.8-2.8,1.7-4.1,2.6s-2.4,2-3.5,3.1l2.2-9.9c1-1.2,2.2-2.2,3.5-3.1
	c1.4-0.9,3.5-0.4,4.8-1.3"/>
<path class="st10" d="M9.9,65.2L7,73.8c-0.7,0.7-1.4,1.7-1.8,2.6l2.9-8.5C8.6,66.9,9.2,66.1,9.9,65.2z"/>
<path class="st10" d="M8.1,67.8l-2.9,8.5l-0.1,0.5L8,68.3C7.9,68.2,7.9,68,8.1,67.8 M254.3,48.3l-3,8.5c0,0.2-0.1,0.3-0.2,0.5
	c-0.1,0.1-0.1,0.3-0.2,0.4l2.9-8.5c0.1-0.1,0.1-0.3,0.2-0.4c0.1-0.1,0.5-2.5,0.6-2.6"/>
<path class="st10" d="M254.2,48.4l-3.1,9.3c-0.6,1.4-1.5,2.6-2.4,3.7l-20.8,4.3c1-1,25.8-17.6,26.5-18.9"/>
<path class="st10" d="M251.5,52.8l-2.9,8.5c-0.8,0.8-1.7,1.7-2.6,2.4c-2,1.7-4.1,3.1-6.4,4.4l2.9-8.5c2.2-1.3,4.4-2.6,6.4-4.3
	C249.9,54.6,250.7,53.8,251.5,52.8"/>
<path class="st10" d="M242.5,59.7l-2.9,8.5c-5.3,2.9-10.8,5.4-16.5,7.5c-20.2,7.5-49.6,14.1-83.8,18.4c-18.7,2.3-37.4,3.7-56.2,4.1
	c-15.6,0.4-31.2-0.2-46.6-2c-1.9-0.2-3.8-0.5-5.6-0.7l2.9-8.5c1.8,0.3,3.8,0.5,5.6,0.7C54.9,89.4,70.5,90,86,89.6
	c18.8-0.4,37.5-1.8,56.2-4.1c34.3-4.2,63.7-10.8,83.8-18.3C231.8,65.1,237.3,62.6,242.5,59.7z"/>
<path class="st10" d="M45.5,85.3L30.8,95.4c-5.9-0.8-11.6-2.1-17.3-3.8l-1.3-0.3l2.9-8.5l1.3,0.4c6.8-0.6,12.4,0.9,17.3,3.8"/>
<path class="st10" d="M23,82.6l-10.8,8.8c-2.3-0.7-4.6-1.7-6.8-2.7l2.9-8.5c2.2,1,4.4,2,6.8,2.7"/>
<path class="st10" d="M8.6,80.1l-2.9,8.5c0,0-1-0.5-1.8-0.9c-4.5-2.5-4.6-3.3-5-4.2V68.1"/>
<path class="st16" d="M110.9,28c-6.9,0.8-13.2,1.8-19.3,2.7c-1.2,0.2-1.9,0.7-2.3,1.4s-0.4,1.6,0.1,2.5c0.6,0.9,1.6,1.7,2.7,2.2
	c1,0.5,2.3,0.6,3.5,0.5c6.2-0.9,12.4-1.9,19-2.7c29.8-3.9,59.8-4.9,89.7-3.2c9.9,0.6,19.8,2.1,29.4,4.6c2.8,0.7,5.5,1.6,8.2,2.9
	L242,39c1.4,0.6,2.1,1.6,2.9,2.8l0.2,0.3l0.2,0.3c0.2,0.5,0.1,0.7,0.1,1.3s-0.2,1.2-0.4,1.7v0.1l-0.1,0.2c-0.7,1.6-1.7,2.8-2.9,3.9
	c-4.2,3.3-8.7,6.1-13.7,8.2l-0.1,0.1c-12.1,5-24.6,9.1-37.4,11.9c-17.3,4-34.8,7.1-52.4,9.2c-29.8,3.9-59.8,4.9-89.7,3.1v0.1
	c-9.9-0.5-19.7-2.1-29.2-4.6c-2.8-0.7-5.4-1.7-8.1-3l-0.2-0.1c-1.4-0.6-2.5-1.7-3.2-3c-0.4-0.7-0.5-1.7-0.3-2.5c1-2.8,3-5.1,5.6-6.7
	c7.6-5,15.9-8.9,24.6-11.6c13.1-4.3,26.5-7.7,40-10.2H78c0.1,0,0.2,0,0.3-0.1c0.3-0.1,0.6-0.2,0.8-0.3c0.4-0.2,0.7-0.6,0.8-1
	c0.2-0.4,0.3-0.8,0.2-1.4c-0.1-0.4-0.2-0.8-0.5-1.3c-0.7-0.9-1.7-1.6-2.8-2c-1-0.4-2.3-0.5-3.5-0.3c-24,4.8-43.8,10.6-57.1,16.9
	C11,53.2,6,56.5,1.8,60.7c-1.5,1.6-2.5,3.5-3,5.5c-0.4,2.1-0.1,4.3,0.9,6.2c1.8,2.8,4.3,5.2,7.2,6.8c3,1.7,6.3,3,9.6,4.4
	c1.6,0.5,17.1,4.2,22.9,4.6c6.4,0.5,31.1,2,46.6,1.6c18.8-0.4,37.5-1.8,56.2-4.1c84.4-9.8,106.6-30.3,106.6-30.3c2.2-1.8,4-4,5-6.6
	c0.5-1.3,0.7-2.5,0.6-3.8s-0.5-2.6-1.2-3.7c-1.8-2.8-4.3-5.2-7.2-6.8c-3-1.7-6.3-3-9.6-4.1c-7.5-2.2-15.2-3.7-22.9-4.5
	c-15.5-1.7-30.9-2.4-46.5-2C148.2,24.4,129.6,25.7,110.9,28"/>
</svg>
