<?xml version="1.0" encoding="utf-8"?>
<!-- Generator: Adobe Illustrator 24.0.0, SVG Export Plug-In . SVG Version: 6.00 Build 0)  -->
<svg version="1.1" id="Слой_1" xmlns="http://www.w3.org/2000/svg" xmlns:xlink="http://www.w3.org/1999/xlink" x="0px" y="0px"
	 viewBox="0 0 250 250" style="enable-background:new 0 0 250 250;" xml:space="preserve">
<style type="text/css">
	.st0{fill:#882F40;}
	.st1{fill:#9A384B;}
	.st2{fill:#944D5D;}
	.st3{fill:#904A5A;}
	.st4{fill:#793E4B;}
	.st5{fill:#40689D;}
	.st6{fill:#773D4A;}
	.st7{fill:#9F5263;}
	.st8{fill:#7D414E;}
	.st9{fill:#824351;}
	.st10{fill:#874654;}
	.st11{fill:#8B4857;}
	.st12{fill:#994F60;}
	.st13{fill:#9C4354;}
	.st14{fill-rule:evenodd;clip-rule:evenodd;fill:#E87891;stroke:#000000;stroke-width:0.25;}
	.st15{fill:#B4D1FA;stroke:#000000;stroke-width:0.2;}
	.st16{fill:#B4D1FA;}
	.st17{fill:#B4D1FA;stroke:#000000;stroke-width:0.25;}
	.st18{fill:#E87891;stroke:#000000;stroke-width:0.25;}
	.st19{fill:#E87891;}
</style>
<path class="st0" d="M232.7,182.2l-11.7-6.3h0.1l11.7,6.3H232.7z M232.9,182.2l-11.7-6.3h0.5c0.1,0,0.2-0.1,0.5-0.1l11.7,6.3
	c-0.1,0.1-0.2,0.1-0.5,0.1H232.9z"/>
<path class="st0" d="M233.9,182.1l-11.7-6.3l0.4-0.1l11.7,6.3L233.9,182.1z M234.2,182l-11.7-6.3L234.2,182"/>
<path class="st0" d="M232.7,183.3l-14.2-8.4c2.1,0.9,4,1.7,4.8-0.6l14.4,6.2L232.7,183.3L232.7,183.3z"/>
<path class="st0" d="M234.5,181.6l-11.7-6.5h0.1l11.8,6.3v0.1"/>
<path class="st0" d="M234.8,181.5l-11.8-6.3V175l11.8,6.3V181.5z M234.8,181.4l-11.7-6.3c0-0.1,0.1,0,0.1-0.1l11.7,6.2
	C234.8,181.1,234.8,181.3,234.8,181.4 M234.9,181l-11.7-6.3c0.1-0.2,0.1-0.5,0.1-0.7l11.7,6.3v0.7"/>
<path class="st0" d="M237.2,182.7l-13.9-8.8l0.1-54.9l11.7,6.3L237.2,182.7L237.2,182.7z"/>
<path class="st1" d="M188.2,208.7l-10.1-7.4c0.5,0,3.9-1.3,4.4-1.6l18.7,2.8c-0.5,0.2-9,8.4-9.6,8.4"/>
<path class="st1" d="M191.3,207.3l-11.7-6.3c0.2-0.1,0.6-0.2,0.9-0.5l11.7,6.3C191.9,207,191.7,207.3,191.3,207.3"/>
<path class="st1" d="M192.2,206.8l-11.7-6.3l0.6-0.5l11.7,6.3L192.2,206.8z"/>
<path class="st1" d="M192.8,206.3l-11.7-6.3l0.5-0.5l11.7,6.3L192.8,206.3z"/>
<path class="st1" d="M193.3,205.8l-11.7-6.3l0.5-0.6l11.7,6.3L193.3,205.8z"/>
<path class="st1" d="M193.8,205.2l-11.7-6.3l0.4-0.6l11.7,6.3L193.8,205.2z M194.3,204.6l-11.7-6.3c0.1-0.2,0.2-0.6,0.4-0.9
	l11.7,6.3C194.5,204,194.4,204.2,194.3,204.6z"/>
<path class="st1" d="M191,212.4l-9.5-12.9c0.2-0.7,2.1-1.1,1.8-6.7l11.6,8.7C195,202.2,191.3,211.8,191,212.4z"/>
<path class="st0" d="M235.1,125.5l-11.7-6.3c0-0.2,0-0.5-0.2-0.7c-0.1-0.2-0.4-0.5-0.6-0.6l11.7,6.3c0.2,0.1,0.4,0.4,0.6,0.6
	C235,124.9,235.1,125.2,235.1,125.5z"/>
<path class="st2" d="M202.4,181.6l-11.7-6.3l2,0.7l11.7,6.3L202.4,181.6z"/>
<path class="st0" d="M206.7,172l-11.7-6.3l26.1,10.2l11.7,6.3L206.7,172z"/>
<path class="st3" d="M206.5,171.9l-11.7-6.3L206.5,171.9z"/>
<path class="st2" d="M206.6,171.9l-11.7-6.3L206.6,171.9z"/>
<path class="st3" d="M201.5,181.1l-11.7-6.3l0.4,0.1l11.7,6.3L201.5,181.1z"/>
<path class="st2" d="M201.8,181.4l-11.7-6.3l0.7,0.4l11.7,6.3L201.8,181.4z"/>
<path class="st1" d="M226,121.2l-9-12c0.5-0.4,2.2-1.6,3.4-1.6l12.9,7.3C232.7,115.4,226.5,120.9,226,121.2L226,121.2z"/>
<path class="st1" d="M230.4,114.8l-11.7-6.5c1-0.5,2.1-0.7,3.3-0.9c1.2-0.2,2.6-0.1,3.8,0.2l11.7,6.3c-1.2-0.4-2,1.1-3.2,1.2
	C233.1,115.4,231.4,114.3,230.4,114.8"/>
<path class="st1" d="M237.3,114.1l-11.7-6.3c0.6,0.1,1.2,0.4,1.7,0.6l11.7,6.3C238.6,114.4,237.9,114.2,237.3,114.1z"/>
<path class="st4" d="M201.5,181.1l-11.7-6.3c-1.6-1-2.9-2.3-3.9-3.9c-0.9-1.6-1.3-3.5-1.2-5.4l11.8,6.3c-0.1,1.8,0.4,3.8,1.2,5.4
	C198.5,178.8,199.9,180.3,201.5,181.1"/>
<path class="st5" d="M176.6,195.1l-11.7-6.3c0.5-0.1,1.1-0.1,1.6,0l12.3,6.8C178.2,195.4,176.9,195.1,176.6,195.1"/>
<path class="st5" d="M178,195.4l-11.7-6.6c0.2,0.1,0.5,0.1,0.7,0.2l12.1,6.7C179,195.9,178.3,195.4,178,195.4z"/>
<path class="st1" d="M204.5,132l-11.7-6.3l24.2-16.3l14.6,7.4L204.5,132z"/>
<path class="st6" d="M196.3,171.9l-11.7-6.3v-27.1l11.7,6.3V171.9z"/>
<path class="st7" d="M202.6,133.3l-11.7-6.3l2-1.3l11.7,6.3L202.6,133.3z"/>
<path class="st4" d="M196.5,144.8l-11.7-6.3c0-1.6,0.2-3.2,0.9-4.6l11.7,6.3C196.7,141.6,196.5,143.2,196.5,144.8z"/>
<path class="st8" d="M197.3,140.2l-11.7-6.3c0.2-0.6,0.5-1.2,0.9-1.8l11.7,6.3C197.8,138.9,197.6,139.5,197.3,140.2z"/>
<path class="st9" d="M198,138.3l-11.7-6.3c0.2-0.5,0.6-1,0.9-1.5l11.7,6.3C198.7,137.4,198.4,137.8,198,138.3z"/>
<path class="st10" d="M199,136.9l-11.7-6.3c0.4-0.4,0.6-0.9,1-1.2l11.7,6.3C199.6,136,199.3,136.5,199,136.9z"/>
<path class="st11" d="M200,135.6l-11.7-6.3l1.1-1.1l11.7,6.3C200.7,134.9,200.2,135.3,200,135.6z"/>
<path class="st3" d="M201.1,134.5l-11.7-6.3c0.4-0.4,0.9-0.7,1.3-1.1l11.7,6.3C202,133.8,201.5,134.2,201.1,134.5z"/>
<path class="st2" d="M202.4,133.4l-11.7-6.3h0.1l11.7,6.3H202.4z"/>
<path class="st1" d="M197.8,203.6l-14.5-8.5l0.1-85.5l11.7,6.3L197.8,203.6L197.8,203.6z"/>
<path class="st1" d="M195.1,116l-11.7-6.3c0-0.9-0.1-1.7-0.6-2.4c-0.4-0.7-1-1.3-1.8-1.8l12.2,5.1c0.7,0.5,1.5,1.7,1.8,2.4
	C195.4,113.7,195.2,115.1,195.1,116z"/>
<path class="st3" d="M121.1,111.5l-11.7-6.3l1.3,0.7l11.7,6.3C121.9,112,121.4,111.7,121.1,111.5z"/>
<path class="st2" d="M122.4,112.2l-11.7-6.3c2.3,1.2,4.9,2.1,7.3,2.7l11.7,6.3C127.3,114.3,124.9,113.4,122.4,112.2z"/>
<path class="st12" d="M129.9,114.9l-11.7-6.3c5.2,1.3,10.9,1.6,16.2,0.9c4.8-0.7,9.4-2.1,13.8-4.1l11.7,6.3c-4.4,2.1-9,3.4-13.8,4.1
	C140.6,116.6,135.1,116.4,129.9,114.9z"/>
<path class="st1" d="M31.7,229.9L20,223.6l158.2-22.2l11.7,6.5L31.7,229.9z M29,229.5l-11.7-6.3h0.1l11.7,6.5L29,229.5"/>
<path class="st1" d="M29.1,229.5l-11.7-6.3c0.2,0.1,0.5,0.2,0.9,0.4l11.7,6.3C29.7,229.7,29.5,229.7,29.1,229.5z"/>
<path class="st1" d="M29.9,229.8l-11.6-6.3c0.6,0.1,1.2,0.1,1.7,0l13.5,7.2c-0.6,0.1-4.3,0.1-4.8,0 M17.3,212.7l-11.8-6.2
	c0-0.7,0.1-1.7,0.4-2.4l14.3,4.6C19.8,209.4,17.1,211.9,17.3,212.7"/>
<path class="st1" d="M17.6,210.4l-11.7-6.3c0.1-0.4,0.2-0.6,0.4-0.9l11.7,6.3C17.9,209.8,17.7,210.1,17.6,210.4z"/>
<path class="st1" d="M18,209.6l-12.2-5.4l0.9-1.7l11.7,6.3L18,209.6L18,209.6z"/>
<path class="st1" d="M18.1,209.4l-11.5-7c0.1-0.1,0.6-1,1.5-1.6l11.5,6.7C19.5,207.7,18.2,209.3,18.1,209.4z"/>
<path class="st1" d="M18.8,208.3l-11.7-6.5l0.5-0.5l11.7,6.3C19.3,207.7,18.8,208.3,18.8,208.3z"/>
<path class="st1" d="M19.3,207.9l-11.7-6.3l0.5-0.5l11.7,6.5L19.3,207.9L19.3,207.9z"/>
<path class="st1" d="M18.8,209.2l-10.7-8.3l0.7-0.4l11.7,6.5L18.8,209.2z"/>
<path class="st1" d="M20.4,207.3l-11.8-6.6c0.2-0.1,1.2-0.4,1.5-0.4l11.3,6.3C21.3,206.8,20.7,207.1,20.4,207.3z M19.6,240.9
	l-11.7-6.3c-0.7-0.5-1.3-1.1-1.8-1.8c-0.4-0.7-0.6-2.3-0.6-3.2l11.7,7.1c0,0.9,0.1,1.7,0.6,2.4C18.2,239.8,18.8,240.4,19.6,240.9z"
	/>
<path class="st1" d="M21.4,206.8l-11.6-6.5c0.7-0.1,1.3-0.1,2.1,0l11.6,6.5c-0.7-0.1-1.3-0.1-2-0.1"/>
<path class="st1" d="M23.5,206.8l-11.6-6.5c0.2,0.1,0.7,0.2,1,0.4l11.6,6.3C24.1,206.9,23.7,206.8,23.5,206.8z"/>
<path class="st1" d="M24.3,207l-11.7-6.3h0.1l11.7,6.5L24.3,207 M17.1,237l-11.7-6.8v-23.9l11.7,6.3V237L17.1,237z M19.5,198.5
	l-11.7-6.3c-0.7-0.4-1.2-1-1.7-1.6c-0.4-0.7-0.5-2.1-0.5-2.8l14.5-1.5c0,0.7-0.4,9.5,0,10.1C20.6,197,18.7,198.1,19.5,198.5"/>
<path class="st1" d="M17.3,194.6l-11.7-6.3l0.1-63.8l12.6,6.1L17.3,194.6z"/>
<path class="st3" d="M53.7,124.1L42,117.7c0.4,0.1,0.6,0.4,1,0.5l11.7,6.3C54.3,124.3,54,124.2,53.7,124.1z"/>
<path class="st2" d="M54.7,124.5L43,118.2c1.7,0.9,3.5,1.6,5.4,2l11.7,6.3C58.2,126,56.4,125.4,54.7,124.5z"/>
<path class="st12" d="M60.1,126.5l-11.7-6.3c3.9,1,7.9,1.2,11.8,0.6c3.4-0.5,6.8-1.6,10-3l11.7,6.3c-3.2,1.5-6.6,2.6-10,3
	C68,127.7,64,127.5,60.1,126.5z"/>
<path class="st2" d="M82,124.2l-11.8-6.5c2-0.9,3.8-2,5.5-3.2l11.7,6.3C85.8,122.1,83.9,123.2,82,124.2z"/>
<path class="st3" d="M87.5,121l-11.7-6.3c1.5-1,2.8-2.1,4.1-3.3l11.7,6.3C90.3,118.8,89,119.9,87.5,121z"/>
<path class="st11" d="M91.7,117.7L80,111.4c1.1-1,2.2-2.1,3.3-3.3l11.7,6.3L91.7,117.7z"/>
<path class="st1" d="M22.5,124.5l-11.7-6.3l26.6-3.8l11.7,6.3L22.5,124.5z M17.4,130.8l-11.7-6.3c0-0.7,0.1-1.5,0.4-2.2l11.7,6.3
	C17.5,129.3,17.4,130,17.4,130.8z"/>
<path class="st1" d="M17.7,128.6L6,122.2c0.1-0.2,0.2-0.6,0.4-0.9l11.7,6.3C18,128.1,17.9,128.3,17.7,128.6z"/>
<path class="st1" d="M14.9,144.2l-8.5-22.8c0.2-0.9,2.1-2.3,2.2-2.4l9.9,8.2C18.5,127.3,15.1,143.9,14.9,144.2z"/>
<path class="st1" d="M18.6,127.1l-11.7-6.3c0.1-0.2,0.2-0.4,0.5-0.6l11.7,6.3C18.8,126.6,18.7,126.9,18.6,127.1z"/>
<path class="st1" d="M19.1,126.5l-11.8-6.3l0.5-0.5l11.7,6.3L19.1,126.5z M19.6,126l-11.7-6.3c0.2-0.2,0.4-0.4,0.6-0.5l11.7,6.3
	C19.9,125.6,19.7,125.8,19.6,126z"/>
<path class="st1" d="M17.6,129.9L8.5,119c0.2-0.2,0.5-0.4,0.9-0.5l14.4,5.9c-0.2,0.1-1,1.6-1.2,1.8"/>
<path class="st1" d="M20.9,125l-11.6-6.5c0.5-0.2,2-0.5,3.2-0.6l10.1,6.5C22,124.7,21.5,124.8,20.9,125"/>
<path class="st13" d="M53.7,124.1L42,117.7c-1.7-1-3.2-2-4.6-3.2c-3.7-3.2-6.6-7.2-8.5-11.6c-2-4.5-2.9-9.3-2.7-14.2
	c0-5,0.9-9.9,2.6-14.5l17.4,4.3c-1.7,4.6-8.3,11.7-8.3,16.6c-0.1,4.9,0.7,9.6,2.7,14.2c2,4.4,4.9,8.4,8.5,11.6
	C50.4,122,52,123.1,53.7,124.1"/>
<path class="st14" d="M201.5,99.9c-0.6-0.2-1.3-0.2-2-0.1l-27.3,3.8c-7.3,6.6-16.5,10.9-26.1,12.3c-9,1.3-18.3-0.4-26.1-5l-25,3.4
	c-5.9,6.8-14,11.5-22.9,12.8c-4,0.6-8.2,0.4-12.2-0.7c-3.9-1.1-7.7-3-10.7-5.6l-26.6,3.8c-1.5,0.2-2.8,1.1-3.7,2.2
	c-1,1.1-1.5,2.6-1.5,4v63.8c0,0.6,0.1,1.3,0.4,2c0.2,0.6,0.6,1.1,1.1,1.6c0.5,0.4,1.1,0.7,1.7,0.9s1.3,0.1,2,0
	c1.2-0.4,2.3-1.2,3.2-2.3c0.7-1.1,1.2-2.4,1.1-3.8v-53.2c0-1.5,0.5-2.9,1.5-4s2.2-2,3.7-2.2L190,111.2c0.6-0.1,1.3,0,2,0.1
	c0.6,0.2,1.2,0.5,1.7,1s0.9,1,1.1,1.7c0.2,0.6,0.4,1.3,0.2,2l-0.1,85.5c0,1.5-0.5,2.9-1.5,4s-2.2,2-3.7,2.2l-158,22.2
	c-0.6,0.1-1.3,0-2-0.1c-0.6-0.2-1.2-0.5-1.7-1s-0.9-1-1.1-1.7c-0.2-0.6-0.4-1.3-0.2-2V211c0-0.6-0.1-1.3-0.4-2
	c-0.2-0.6-0.6-1.1-1.1-1.6s-1.1-0.7-1.7-0.9c-0.6-0.1-1.3-0.1-2,0c-1.2,0.4-2.3,1.2-3.2,2.3c-0.7,1.1-1.2,2.4-1.1,3.8v23.9
	c0,0.7,0,1.3,0.2,2s0.6,1.2,1.1,1.7s1.1,0.9,1.7,1c0.6,0.2,1.3,0.2,2,0.1l177.3-24.9c1.5-0.2,2.8-1.1,3.7-2.2c1-1.1,1.5-2.6,1.5-4
	v-27.9l-2-0.7c-0.1-0.1-0.4-0.1-0.5-0.2c0.1,0.1,0.2,0.1,0.4,0.2l2,0.7l24.2,9.5c1.6,0.6,3.3,0.7,4.9,0.5c2.1-0.4,4.1-1.2,5.9-2.6
	c1.6-1.3,2.9-2.9,3.8-4.9c0.9-1.8,1.3-3.9,1.3-6v-54.9c0.1-1.8-0.4-3.8-1.2-5.4c-0.9-1.7-2.2-3-3.9-3.9c-1.7-1-3.8-1.2-5.7-1
	c-1.7,0.2-3.4,1-4.9,2L204.6,132v-27.4c0-0.7,0-1.3-0.2-2c-0.2-0.6-0.6-1.2-1.1-1.7C202.7,100.4,202.2,100,201.5,99.9L201.5,99.9z
	 M235,125.4v55c0,0.2,0,0.4-0.1,0.7c-0.1,0.2-0.4,0.5-0.6,0.7c-0.2,0.2-0.5,0.4-0.9,0.4c-0.2,0.1-0.5,0.1-0.7,0L206.6,172
	c-0.2-0.1-0.5-0.4-0.6-0.6c-0.1-0.2-0.2-0.5-0.2-0.9v-27.1c0-0.4,0.1-0.6,0.2-1c0.1-0.2,0.4-0.5,0.6-0.7l26-17.6
	c0.2-0.1,0.5-0.2,0.7-0.2c0.2-0.1,0.6-0.1,0.9,0c0.2,0.1,0.4,0.4,0.6,0.6C235,124.9,235,125.2,235,125.4L235,125.4z"/>
<path class="st5" d="M161.5,198l-13.4-6.8c1.6-0.9,14.6-2.2,17.6-2.6c0.4,0,0.7,0,1,0.2l11.6,6.6L161.5,198L161.5,198z M158.5,207
	l-11.7-6.3c-0.7-0.4-1.2-1-1.7-1.7c-0.4-0.7-0.6-1.5-0.5-2.3c0-0.6,0.1-1.1,0.2-1.6c0-0.1,1-0.2,1.1-0.4l10.9,6.3
	c-0.2,0.6-0.4,1.3-0.4,2c0,0.9,0.1,1.6,0.5,2.3C157.3,205.9,157.8,206.5,158.5,207"/>
<path class="st5" d="M157.7,203.6l-12.9-7.9c0,0,0.1-0.6,0.1-0.7c0.1-0.4,0.6-1.5,0.7-1.7l11.5,6.7
	C157.2,200.3,157.8,203.3,157.7,203.6z"/>
<path class="st5" d="M157.1,200.2l-11.7-6.3c0.1-0.2,0.5-1.5,1.7-2l11,7.8C157.8,199.8,157.2,199.9,157.1,200.2"/>
<path class="st5" d="M157.4,199.6l-11.7-6.3c0.1-0.1,1.2-2.6,5.2-2.6l13.5,6.2L157.4,199.6"/>
<path class="st5" d="M157.9,199l-11.7-6.3l0.5-0.5l11.7,6.3L157.9,199z"/>
<path class="st5" d="M158.4,198.6l-11.7-6.3c0.1-0.1,0.4-0.4,0.6-0.5l11.7,6.3C158.8,198.2,158.5,198.3,158.4,198.6z"/>
<path class="st5" d="M158.9,198.1l-11.8-6.3l1-0.6l11.5,6.5L158.9,198.1"/>
<path class="st5" d="M159.6,197.6l-11.7-6.3c0.5-0.2,0.9-0.4,1.3-0.4l11.7,6.3C160.6,197.4,160.1,197.5,159.6,197.6z"/>
<path class="st15" d="M181.1,199.4c0,1.3-0.5,2.7-1.3,3.7s-2.1,1.7-3.3,2l-15.5,2.2c-0.6,0.1-1.2,0-1.8-0.1
	c-0.6-0.2-1.1-0.5-1.6-0.9s-0.7-1-1-1.5c-0.2-0.6-0.2-1.2-0.2-1.7c0-1.3,0.5-2.6,1.3-3.7c0.9-1,2.1-1.7,3.3-2l15.5-2.2
	c0.6-0.1,1.2,0,1.7,0.1c0.6,0.2,1.1,0.5,1.6,0.9s0.7,0.9,1,1.5C181.1,198.2,181.1,198.8,181.1,199.4z"/>
<path class="st5" d="M147.2,199.2l-11.8-6.3c0.5-0.1,1.1-0.1,1.6,0l11.7,6.3C148.2,199.1,147.5,199.1,147.2,199.2"/>
<path class="st5" d="M148.6,199.3l-11.8-6.3c0.2,0,0.5,0.1,0.7,0.2l11.7,6.3C149.1,199.4,148.9,199.3,148.6,199.3"/>
<path class="st1" d="M199.3,99.9l-12.1-6.3c0.6-0.1,1.8-0.4,2.4-0.2l11.7,6.5c-0.6-0.1-1.2-0.1-1.8-0.1"/>
<path class="st1" d="M201.2,99.8l-11.7-6.3c0.2,0.1,0.5,0.1,0.9,0.2l11.7,6.3C201.8,100,201.6,99.9,201.2,99.8z"/>
<path class="st1" d="M202.1,100.1l-11.7-6.3h0.1l11.7,6.3H202.1z"/>
<path class="st5" d="M131.6,201.9l-12.8-5l1.6-2l15-2.1l6.1,2.9l5.7,3.5L131.6,201.9L131.6,201.9z"/>
<path class="st5" d="M129.4,211.3l-12.1-6.3c-0.7-0.4-1.2-1-1.7-1.7c-0.4-0.7-0.6-1.5-0.5-2.3c0-0.7,0.1-1.3,0.4-2l19.4,2.1
	c-0.2,0.6-7.7,5.6-7.7,6.3c0,0.9,1.8,1.6,2.3,2.3C129.9,210.3,128.8,210.8,129.4,211.3z"/>
<path class="st5" d="M127.3,205.1l-11.8-6.1c0.1-0.2,0.2-0.9,0.4-1.1c0.1-0.5,1.2-2.9,7-3.3l4.9,9.8
	C127.4,204.6,127.3,204.8,127.3,205.1L127.3,205.1z"/>
<path class="st5" d="M127.7,204.3L116,198c0.1-0.2,0.2-0.4,0.4-0.6l11.7,6.3C127.8,203.8,127.7,204.1,127.7,204.3z"/>
<path class="st5" d="M128,203.7l-11.7-6.3l0.4-0.5l11.7,6.3L128,203.7z M128.4,203.1l-11.7-6.3l0.5-0.5l11.7,6.3L128.4,203.1z"/>
<path class="st5" d="M128.9,202.6l-11.7-6.3c0.1-0.1,2.6-0.4,2.8-0.5l9.5,6.5C129.2,202.4,129.1,202.5,128.9,202.6L128.9,202.6z"/>
<path class="st5" d="M129.5,202.2l-9-5.4c0.2-0.1,0.2-0.5,0.5-0.6l9.1,5.5C130,201.9,129.7,202,129.5,202.2"/>
<path class="st5" d="M130.2,201.8l-11.5-5.5c0.5-0.2,3.4-0.5,3.9-0.6l8.9,5.6C131.2,201.4,130.7,201.6,130.2,201.8"/>
<path class="st15" d="M151.7,203.5c0,1.3-0.4,2.7-1.2,3.7c-0.9,1.1-2,1.8-3.3,2.1l-15.5,2.2c-0.6,0.1-1.2,0-1.8-0.1
	s-1.1-0.5-1.6-0.9s-0.7-1-1-1.5c-0.2-0.6-0.2-1.2-0.2-1.7c0-1.3,0.5-2.6,1.3-3.7c0.9-1,2-1.7,3.3-2l15.5-2.2c0.6-0.1,1.2,0,1.7,0.2
	c0.6,0.2,1.1,0.5,1.5,0.9s0.7,0.9,1,1.5C151.6,202.4,151.7,203,151.7,203.5L151.7,203.5z"/>
<path class="st1" d="M172.2,103.6l-11.7-6.3l27.3-3.8l11.7,6.3L172.2,103.6z"/>
<path class="st5" d="M111.4,206.5l-5.5-9.5c0.5-0.1,1.1-0.1,1.7,0l11.6,6.6c-0.5-0.1-1.1-0.1-1.6,0"/>
<path class="st5" d="M119.2,203.5l-11.7-6.5c0.2,0.1,0.5,0.1,0.7,0.2l11.7,6.3C119.7,203.6,119.5,203.5,119.2,203.5"/>
<path class="st5" d="M120,203.7l-11.7-6.3l10.2,7.7L120,203.7"/>
<path class="st5" d="M95.5,207l-5-7.8L106,197l11.7,6.3L95.5,207z M99.6,215.3L87.9,209c-0.7-0.4-1.2-1-1.7-1.7
	c-0.4-0.7-0.6-1.5-0.5-2.3c0-0.7,0.1-1.3,0.4-2l11.7,6.3c-0.2,0.6-0.4,1.3-0.4,2c0,0.9,0.1,1.6,0.5,2.3
	C98.4,214.2,99,214.8,99.6,215.3"/>
<path class="st5" d="M97.8,209.2l-11.7-6.3c0.1-0.2,0.2-0.5,0.4-0.9l11.8,6.3C98,208.7,97.9,209,97.8,209.2"/>
<path class="st5" d="M98.1,208.5l-11.7-6.3c0.1-0.2,0.2-0.4,0.4-0.6l11.7,6.3C98.4,208,98.3,208.2,98.1,208.5z"/>
<path class="st5" d="M98.5,207.9l-11.7-6.3l0.4-0.5l11.7,6.3L98.5,207.9z M98.9,207.3L87.2,201l0.5-0.5l11.7,6.3L98.9,207.3"/>
<path class="st5" d="M99.4,206.8l-11.7-6.3c0.1-0.1,0.4-0.4,0.6-0.5l11.7,6.3C99.7,206.5,99.6,206.6,99.4,206.8z"/>
<path class="st5" d="M100,206.4l-11.7-6.3c0.2-0.2,0.5-0.4,0.7-0.5l11.8,6.3C100.5,206,100.2,206.2,100,206.4"/>
<path class="st5" d="M98.5,212.6l-12.7-7.1c-0.4,0.4-1.5-5.2,4.6-6.3l11.7,6.3c-0.5,0-1,0.2-1.3,0.4 M163.6,26.9l2.6,1.3
	c2.8,1.5,5.6,3.7,7.8,6c0.2,0.2,0.5,0.4,0.9,0.5"/>
<path class="st16" d="M146.2,14.9l16.3,11.5l7.1,4.1l4.8,4l2.8,0.7l3.4-8.9L158.5,16L146.2,14.9z"/>
<path class="st15" d="M122.2,207.7c0,1.3-0.5,2.7-1.3,3.7c-0.9,1-2.1,1.7-3.3,2l-15.5,2.2c-0.6,0.1-1.2,0-1.8-0.1
	c-0.6-0.2-1.1-0.5-1.6-0.9s-0.7-1-1-1.5c-0.2-0.6-0.2-1.2-0.2-1.7c0-1.3,0.5-2.6,1.3-3.7c0.9-1,2.1-1.7,3.3-2l15.5-2.2
	c0.6-0.1,1.2,0,1.8,0.1c0.6,0.2,1.1,0.5,1.6,0.9s0.7,1,1,1.5C122.2,206.5,122.2,207.1,122.2,207.7z"/>
<path class="st12" d="M129.9,114.9l-11.7-6.3c5.2,1.3,10.9,1.6,16.2,0.9c4.8-0.7,9.4-2.1,13.8-4.1l11.7,6.3c-4.4,2.1-9,3.4-13.8,4.1
	C140.6,116.6,135.1,116.4,129.9,114.9z"/>
<path class="st2" d="M159.7,111.7l-11.7-6.3c2.7-1.2,5.1-2.7,7.6-4.4l11.7,6.3C165,108.9,162.4,110.4,159.7,111.7z"/>
<path class="st3" d="M167.3,107.3l-11.7-6.3c1.7-1.2,3.3-2.4,4.9-3.8l11.7,6.3C170.6,104.9,169,106.1,167.3,107.3L167.3,107.3z"/>
<path class="st5" d="M83.1,210.9l-6.7-9.8c0.5-0.1,1.1-0.1,1.6,0l11.7,6.3C89.2,207.4,83.6,210.8,83.1,210.9z"/>
<path class="st5" d="M89.7,207.6L78,201.3c0.2,0.1,0.5,0.1,0.7,0.2l11.7,6.3C90.2,207.7,90,207.6,89.7,207.6"/>
<path class="st5" d="M90.5,207.9l-11.7-6.3h0.1L90.5,207.9 M73,210.4l-12-7.3l15.4-2l12.4,6.6L73,210.4L73,210.4z M70.1,219.3
	L58.4,213c-0.7-0.4-1.2-1-1.7-1.7c-0.4-0.7-0.6-1.5-0.5-2.3c0-0.7,0.1-1.3,0.4-2l11.7,6.3c-0.2,0.6-0.4,1.3-0.4,2
	c0,0.9,0.1,1.6,0.5,2.3C68.9,218.4,69.5,219,70.1,219.3z"/>
<path class="st5" d="M68.6,215.3L56.5,207c0.1-0.2,0.2-0.6,0.5-1l11.6,6.5C68.5,212.9,68.7,214.9,68.6,215.3z"/>
<path class="st5" d="M68.6,212.6l-11.8-6.1c1.5-3,2.7-2.7,2.8-2.8l9.5,8.3C69,212.1,68.9,212.4,68.6,212.6"/>
<path class="st5" d="M69,212l-11.7-6.3l0.4-0.5l11.7,6.3C69.3,211.5,69,212,69,212z M69.5,211.4l-11.8-6.3l0.6-0.7l11.8,6.5
	L69.5,211.4"/>
<path class="st5" d="M69.1,212.6l-11.2-7.9c1.1-1,2.2-1.5,4.4-1.7l11.2,6.7L69.1,212.6z"/>
<path class="st5" d="M70.4,210.5l-11.7-6.3c0.2-0.1,0.5-0.4,0.7-0.5l11.7,6.3C71.1,210.2,70.7,210.3,70.4,210.5z M71.3,210.1
	l-11.7-6.3c0.5-0.2,0.9-0.4,1.3-0.4l11.7,6.3C72.2,209.7,71.8,209.8,71.3,210.1"/>
<path class="st15" d="M92.6,211.9c0,1.3-0.5,2.7-1.3,3.7s-2.1,1.7-3.3,2l-15.5,2.2c-0.6,0.1-1.2,0-1.8-0.1s-1.1-0.5-1.6-0.9
	s-0.7-1-1-1.5c-0.2-0.6-0.4-1.2-0.2-1.7c0-1.3,0.5-2.6,1.3-3.7c0.9-1,2.1-1.7,3.3-2l15.5-2.2c0.6-0.1,1.2,0,1.7,0.1
	c0.6,0.1,1.1,0.5,1.6,0.9s0.7,0.9,1,1.5C92.6,210.7,92.8,211.3,92.6,211.9z"/>
<path class="st5" d="M126.1,102.2l-11.7-6.3l1.2,0.6l11.7,6.3L126.1,102.2z"/>
<path class="st5" d="M127.2,102.8l-11.7-6.3c2,1,3.9,1.7,6,2.2l11.7,6.3C131.1,104.4,129.1,103.7,127.2,102.8z"/>
<path class="st5" d="M129,108.1l-7.6-9.4c4.1,1.1,8.5,1.3,12.9,0.6c3.8-0.5,7.4-1.6,11-3.3l11.7,6.3c-3.4,1.7-7.1,2.8-10.9,3.3
	c-4.4,0.7-8.5,5-12.8,3.9"/>
<path class="st5" d="M141.3,108.9l3.9-12.9c2.1-1,4.1-2.2,6.1-3.5l16,6.2C165.4,100,143.5,107.8,141.3,108.9z"/>
<path class="st5" d="M163,98.9l-11.7-6.3c1.6-1.1,3-2.3,4.5-3.7l11.7,6.3C166.2,96.6,164.6,97.8,163,98.9z"/>
<path class="st5" d="M165.6,101l-9.8-12.1c1.3-1.2,2.7-2.4,3.8-3.8l16.1,5.1c-1.2,1.3-6.3,8.1-7.7,9.3"/>
<path class="st5" d="M171.5,91.4l-11.7-6.2c1.2-1.3,2.3-2.8,3.4-4.3l11.7,6.3C173.8,88.7,172.7,90.1,171.5,91.4"/>
<path class="st5" d="M175.2,88.6L161.1,84c1.1-2.2,4.1-6.6,5-8.3l11.7,6.3C176.9,83.9,176.3,87,175.2,88.6z"/>
<path class="st5" d="M177.9,84.2l-11.7-8.3c1.1-2.1,2.1-4.1,2.8-6.3l15.2-0.7c-0.9,2.2-4.5,12.7-5.6,14.6"/>
<path class="st5" d="M180.6,75.9l-11.7-6.3c1.8-5.1,2.8-10.5,2.9-15.9c0-0.7,0.1-1.3,0.4-2l11.7,6.3c-0.2,0.6,2.6,7.3,2.6,7.9
	C186.5,71.5,182.6,70.9,180.6,75.9z M184,58.1l-11.7-6.3c0.1-0.2,0.2-0.5,0.4-0.9l11.7,6.3C184.1,57.6,184,57.8,184,58.1"/>
<path class="st5" d="M184.3,57.2l-11.7-6.3c0.1-0.2,0.2-0.5,0.4-0.6l11.7,6.3C184.5,56.8,184.4,57.1,184.3,57.2z"/>
<path class="st5" d="M184.6,56.6l-11.7-6.3c0.1-0.2,0.2-0.4,0.4-0.5l11.7,6.3C184.9,56.2,184.8,56.5,184.6,56.6 M185.1,56.1
	l-11.7-6.3l0.5-0.5l11.7,6.3C185.5,55.7,185.2,55.9,185.1,56.1z"/>
<path class="st5" d="M184.3,59.8l-12.4-6.7c0.1-0.1,0-4.5,4.5-5.1l13.5,6.2l0.6,0.6c-0.2,0.1-4.4,2.1-4.5,2.2"/>
<path class="st5" d="M186.2,55.1l-11.7-6.3l0.7-0.5l11.7,6.3C186.7,54.8,186.5,55,186.2,55.1z M186.9,54.6l-11.7-6.3
	c0.5-0.2,0.9-0.4,1.3-0.4c0.5-0.1,1.1-0.1,1.6,0l11.7,6.3c-0.5-0.1-1.1-0.1-1.6,0C187.9,54.3,187.4,54.4,186.9,54.6"/>
<path class="st5" d="M189.9,54.8L178.2,48c0.2,0.1,0.6,0.1,0.9,0.2l12.1,6.6C190.7,54.6,190.1,54.8,189.9,54.8L189.9,54.8z"/>
<path class="st1" d="M95,114.4l-11.7-6.3l25-3.5l11.7,6.3L95,114.4z"/>
<path class="st5" d="M146.2,14.7l-11.7-6.3c5.4-0.7,11-0.5,16.2,0.9l11.8,6.5c-5.4-1.3-10.9-1.7-16.2-0.9"/>
<path class="st5" d="M160.8,17.1l-11.6-8.2c2.6,0.6,6.7,1.8,9,3l11.7,6.3C167.6,17.2,163.3,17.8,160.8,17.1z"/>
<path class="st5" d="M170,18.4l-11.7-6.3l1.5,0.7l11.1,9.3L170,18.4L170,18.4z M121.1,111.5l-11.7-6.3c-0.4-0.2-0.7-0.4-1.1-0.6
	c-6.2-3.7-11.5-9-14.9-15.5c-3.9-7.2-5.9-15.4-5.7-23.5c0-2.4,0.1-4.9,0.4-7.2c0.6-4.3,1.6-8.5,3.2-12.7L103,52
	c-1.5,4-2.6,8.3-3.2,12.7c-0.4,2.4-0.5,4.8-0.5,7.2c-0.1,8.2,2,16.3,5.9,23.5c3.4,6.3,8.7,11.7,14.9,15.5
	C120.3,111.1,120.7,111.4,121.1,111.5z"/>
<path class="st5" d="M101.3,66.6L88.4,55.3c0.6-7.3,5-15,6.3-17.6l15.6,2.9C109,43.2,102.3,63.9,101.3,66.6z"/>
<path class="st5" d="M106.4,44.1l-11.7-6.3c1.2-2.2,2.4-4.3,3.8-6.2l21.2,2.4C118.3,36,107.5,42,106.4,44.1z"/>
<path class="st5" d="M110.2,37.9l-11.7-6.3c1.3-1.8,2.7-3.7,4.3-5.4l11.7,6.3C113,34.3,111.6,36.1,110.2,37.9z"/>
<path class="st5" d="M111.9,40.4l-9.1-14.2c1.5-1.7,3-3.3,4.8-4.9l17.1,3.7C122.9,26.6,113.4,38.7,111.9,40.4z"/>
<path class="st5" d="M119.2,27.7l-11.7-6.3c1.8-1.6,3.7-3.2,5.7-4.5l11.7,6.3C123,24.6,121.1,26.1,119.2,27.7z"/>
<path class="st5" d="M115.1,35.1l-1.8-18.3c2.4-1.6,4.9-3,7.6-4.4l17.3,5C135.5,18.8,117.4,33.5,115.1,35.1z"/>
<path class="st5" d="M132.5,18.9l-11.7-6.3c4.4-2.1,9-3.4,13.8-4.1l17.2,5.7C146.9,14.7,136.8,16.8,132.5,18.9z"/>
<path class="st17" d="M146.2,14.9c-23.5,3.3-43.2,24.9-46.4,49.9c-0.4,2.3-0.5,4.8-0.5,7.2c-0.1,8.2,1.8,16.2,5.7,23.4
	c3.4,6.3,8.5,11.7,14.9,15.4c7.9,4.6,17.1,6.3,26.1,4.9c9.8-1.5,18.8-5.7,26.1-12.2c6.5-5.6,11.6-12.4,15.1-20.1s5.5-16.1,5.6-24.6
	c0-0.6,0-1.2-0.2-1.7c-0.2-0.6-0.6-1.1-1-1.5c-0.5-0.4-1-0.7-1.6-0.9c-0.6-0.1-1.2-0.2-1.7-0.1c-1.3,0.2-2.6,1-3.4,2
	c-0.9,1.1-1.3,2.3-1.3,3.7c0,22.3-16.8,42.9-37.6,45.7s-37.6-13.1-37.6-35.4s17-42.8,37.7-45.7c5-0.7,10.1-0.4,14.9,1.2
	s9.1,4.4,12.7,8.1 M146.2,14.9c6.2-1,12.6-0.4,18.5,1.6s11.3,5.4,15.7,9.9 M173.8,34c0.5,0.5,1,0.7,1.6,1c0.6,0.2,1.2,0.2,1.8,0.1
	 M177.2,35.1c1-0.1,1.8-0.6,2.6-1.2c0.7-0.6,1.3-1.3,1.6-2.3c0.4-0.9,0.5-1.8,0.4-2.8s-0.6-1.7-1.2-2.4"/>
<path class="st5" d="M173.9,34.3L162.5,28c-0.4-0.2-0.6-0.5-1-0.7c-0.6-0.6-1.2-1.2-1.8-1.7l1.7,0.6l2,0.7c0,0,0.5,0.2,0.6,0.2
	l3.9,2.1l0.5,0.4l3.2,2.3l0.4,0.2C171.9,32.2,173.9,34.3,173.9,34.3z"/>
<path class="st1" d="M58.7,114.7L47,108.2l0.7,0.4l11.8,6.5L58.7,114.7"/>
<path class="st1" d="M59.6,115.1l-11.7-6.3c1.2,0.6,2.6,1.1,3.9,1.5l11.7,6.3C62.2,116.2,60.8,115.8,59.6,115.1z"/>
<path class="st1" d="M62.3,117.3l-10.5-7.2c2.8,0.7,5.7,0.9,8.5,0.5l24.8,3.5c-2.8,0.4-17.8,5.5-20.6,4.8"/>
<path class="st1" d="M72,117l-11.7-6.3c2.4-0.4,4.9-1.1,7.2-2.2l11.7,6.3C76.9,115.9,74.5,116.6,72,117z"/>
<path class="st1" d="M65.2,123.4l2.3-15c1.5-0.6,2.8-1.5,4-2.3l17.2,2.8C87.4,109.9,66.5,122.8,65.2,123.4z"/>
<path class="st1" d="M83.3,112.5l-11.7-6.3c1.1-0.7,2.1-1.5,3-2.3l11.7,6.3C85.3,111,84.2,111.7,83.3,112.5z"/>
<path class="st1" d="M86.2,110.1l-12.8-5.4c1.1-0.7,2.9-2.7,3.7-3.5l11.7,6.3C88,108.4,87.2,109.3,86.2,110.1z"/>
<path class="st1" d="M88.3,108.9l-11.8-7c0.9-0.9,2.9-3.8,3.5-4.8l11.7,6.3C91.1,104.5,89.1,108,88.3,108.9z"/>
<path class="st1" d="M91.2,104.4l-11.7-6.3c0.7-1.1,1.5-2.2,2.1-3.3l11.7,6.3C92.5,102.2,91.9,103.3,91.2,104.4z"/>
<path class="st1" d="M93,101.5l-11.7-6.3c0.7-1.3,1.5-3.2,2-4.5l11.8,6.1C94.6,98.1,93.7,100.1,93,101.5z"/>
<path class="st1" d="M95,97.2l-11.8-6.1c1.2-3.3,1.8-7.2,2-10.7c0.1-4.3-0.9-8.4-2.8-12.1c-2.1-3.7-5-6.8-8.7-8.9L86.5,64
	c3.7,2.1,5.4,7,7.4,10.6s3,7.9,2.8,12.1C96.8,90.4,96.2,93.9,95,97.2z"/>
<path class="st13" d="M40.4,80.6l-11.8-6c0.7-2,2.1-5,3-6.8l16.6,5C47.3,74.6,41.2,78.6,40.4,80.6"/>
<path class="st13" d="M43,74.9l-11.8-6.3c0.9-1.6,2.7-4.3,3.8-5.7l18.4,4.9C52.4,69.2,43.9,73.3,43,74.9z"/>
<path class="st13" d="M45.8,70.3L34.1,64c1-1.3,2-2.7,3-3.9l20.7,3.2C56.8,64.4,46.8,68.9,45.8,70.3z"/>
<path class="st13" d="M48.9,66.4L37.1,60c1.1-1.2,2.3-2.4,3.5-3.5l20,6.2C59.5,63.8,50,65.1,48.9,66.4z"/>
<path class="st13" d="M52.4,62.8l-11.7-6.3c1.3-1.2,2.7-2.3,4.1-3.3l24.4,4.9C67.8,59.2,53.7,61.7,52.4,62.8z"/>
<path class="st13" d="M56.5,59.5l-11.7-6.3c1.7-1.2,3.7-2.3,5.6-3.2l19.4,5.4C67.8,56.2,58.4,58.3,56.5,59.5z"/>
<path class="st13" d="M62.2,56.3L50.4,50c3.2-1.5,6.5-2.4,10-2.9c3.9-0.6,7.9-0.4,11.8,0.6L84,54c-3.9-1-6.8,2.4-10.9,3
	C69.7,57.4,65.3,54.9,62.2,56.3z"/>
<path class="st13" d="M82.6,55.3L72,47.7c1.8,0.5,3.8,1,5.5,1.8l11.7,6.3C87.6,55.1,84.6,55.7,82.6,55.3z"/>
<path class="st13" d="M89.4,56l-11.7-6.3l1,0.5l11.8,6.3L89.4,56"/>
<path class="st18" d="M99.2,71.8c-0.1,8.2,1.8,16.3,5.7,23.5c-1.8,7.1-5.2,13.5-10.1,19c-5.9,6.8-14,11.5-22.9,12.8
	c-4,0.6-8.2,0.4-12.2-0.7c-3.9-1.1-7.7-3-10.7-5.6c-3.7-3.2-6.6-7.2-8.5-11.6c-2-4.4-2.9-9.3-2.7-14.2c0-20.4,15.5-39,34.3-41.7
	c5.2-0.9,10.5-0.2,15.4,1.7c4.9,2,9.1,5.2,12.3,9.4C99.5,67.1,99.2,69.4,99.2,71.8z M72,117c13.7-2,24.8-15.5,24.9-30.3
	c0-14.8-11.1-25.1-24.8-23.2S47.3,79,47.3,93.7S58.2,118.9,72,117"/>
<path class="st19" d="M201.8,179.9h2.6v3.7h-2.6V179.9z"/>
</svg>
