<?xml version="1.0" encoding="utf-8"?>
<!-- Generator: Adobe Illustrator 24.0.0, SVG Export Plug-In . SVG Version: 6.00 Build 0)  -->
<svg version="1.1" id="Слой_1" xmlns="http://www.w3.org/2000/svg" xmlns:xlink="http://www.w3.org/1999/xlink" x="0px" y="0px"
	 viewBox="0 0 250 250" style="enable-background:new 0 0 250 250;" xml:space="preserve">
<style type="text/css">
	.st0{fill:#335786;}
	.st1{fill:#B4D1FA;stroke:#000000;stroke-width:0.2;}
	.st2{fill:#40689D;}
	.st3{fill:#9A384B;}
	.st4{fill:#E87891;stroke:#000000;stroke-width:0.2;}
</style>
<path class="st0" d="M110.8,115.3l-0.8,4.2L10,94.2l5.5-15.4l7.7-2.3c6.4-0.5,8.2,7.7,3.6,10.5l-7.3,3.2L110.8,115.3L110.8,115.3z
	 M8.9,101.9l8-0.9l5.1,5.9l-7.8,2.2L8.9,101.9z"/>
<path class="st0" d="M14.1,109.1l6.7-3.2l1.6,1.6l-7.8,2.2C14.5,109.5,14.3,109.3,14.1,109.1"/>
<path class="st0" d="M14.6,109.7l6.4-4.2c0.1,0.2,1.6,2,1.9,2.7l-7.8,2.2C14.9,110.2,14.7,109.9,14.6,109.7"/>
<path class="st0" d="M15,106.9l7.9,1.4c0.1,0.3,0.5,0.9,0.6,1.2l-7.3,5.2c-0.1-0.3-0.9-4-1.1-4.3"/>
<path class="st0" d="M15.4,111.4l7.8-2.2c0,0.2,0.1,0.3,0.1,0.5l-11,8.1C10,116.9,15.5,111.5,15.4,111.4z"/>
<path class="st0" d="M15.5,111.9l7.8-2.2v0.4l-7.8,2.2V111.9z"/>
<path class="st0" d="M15.5,112.3l7.8-2.2v0.4l-7.8,2.2C15.6,112.6,15.6,112.5,15.5,112.3 M15.6,112.7l7.8-2.2v0.4l-7.8,2.2
	L15.6,112.7"/>
<path class="st0" d="M15.6,113.1c0,0,6.7-5.8,7.7-3.9c1.1,2.1-1,5.1-1,5.1l-6.7-0.8L15.6,113.1"/>
<path class="st0" d="M15.6,113.5l7.8-2.2v0.3l-7.8,2.2L15.6,113.5"/>
<path class="st0" d="M15.5,113.8l7.8-2.1l-0.3,0.5l-7.6,2v-0.4"/>
<path class="st0" d="M15.5,114.1l7.8-2.2l-0.3,0.5l-7.6,2v-0.3H15.5z"/>
<path class="st0" d="M15.4,114.4l7.3-3l0.1,1.3l-7.4,2V114.4"/>
<path class="st0" d="M15.3,114.7l7.8-2.2c0,0.1-0.1,0.2-0.1,0.3l-7.8,2.2C15.2,114.9,15.2,114.8,15.3,114.7"/>
<path class="st0" d="M15.2,115l7-2.3c0,0.1,0.3-1,0.2-0.9l-7.4,3.6C15.2,115.2,15.2,115.1,15.2,115"/>
<path class="st0" d="M15.1,115.3l7.4-3.3c0,0.1-0.1,1.5-0.2,1.6l-7.4,2C15,115.6,15.1,115.4,15.1,115.3"/>
<path class="st0" d="M15,115.6l7.6-3.1l-0.3,1.1l-7.5,2.3L15,115.6"/>
<path class="st0" d="M15,114.6l8.2-5c0,0.1-0.9,4.5-1,4.6l-7.6,2.1L15,114.6z"/>
<path class="st0" d="M14.5,116.3l7.9-2.3c-0.2,0.3-0.3,0.4-0.4,0.6l-7.8,2.2C14.3,116.6,14.4,116.4,14.5,116.3z"/>
<path class="st0" d="M18.7,112.9l3.3,1.6c-0.6,0.6-1.2,1.2-2,1.4c-3.6,1.1-5.6,1.7-8.6,1.8c1.4-0.9,0.9-1.4,2.7-1"/>
<path class="st1" d="M17.6,78.9c0.8,0.2,1.6,0.7,2.2,1.2c0.6,0.6,1.1,1.3,1.4,2.1c0.3,0.6,0.5,1.3,0.5,2s-0.1,1.4-0.3,2
	c-0.2,0.7-0.6,1.2-1.1,1.8c-0.5,0.5-1,0.9-1.7,1.2l-6.9,2.9l-0.3,0.1l0.3,0.1l96.9,26l-6.2,8.7L10,102.7l-0.3-0.1l0.2,0.2l5.1,5.9
	c0.9,1,1.4,2.4,1.4,3.8s-0.5,2.7-1.4,3.8c-0.5,0.6-1.2,1-2,1.2s-1.6,0.2-2.3,0c-1-0.3-1.9-0.8-2.6-1.6L-8.5,96.8
	c-0.6-0.7-1-1.4-1.2-2.3c-0.2-0.8-0.3-1.7-0.1-2.6c0.1-0.8,0.4-1.6,0.9-2.2s1.2-1.2,1.9-1.5L14.6,79C15.5,78.6,16.6,78.6,17.6,78.9z
	"/>
<path class="st2" d="M83,218.9l-8.6-4.7l2.8,1.5l8.6,4.7C84.9,219.9,84,219.4,83,218.9z"/>
<path class="st2" d="M85.8,220.4l-8.6-4.7c4.7,2.3,9.6,4.1,14.7,5.4l8.6,4.7C95.5,224.5,90.5,222.7,85.8,220.4"/>
<path class="st2" d="M100.5,225.8l-8.6-4.7c10.5,2.7,21.4,3.2,32.1,1.7c9.4-1.3,18.6-4.1,27.2-8.2l8.6,4.7
	c-8.6,4.1-17.7,6.8-27.2,8.2C121.9,229,111,228.4,100.5,225.8"/>
<path class="st2" d="M149.2,228.9l2-14.3c5.3-2.5,10.4-5.4,15.2-8.7l37.1-12.2c-4.8,3.3-39.1,26-44.4,28.4"/>
<path class="st2" d="M174.9,210.6l-14.8-0.6c4.7-2.8,13.8-9.8,17.4-12.9l10.1,4.4C184.1,204.6,178.8,207.9,174.9,210.6"/>
<path class="st2" d="M186.2,201.7l-19.3,3.7c6-4,17.2-14.6,20.2-17.9l10.8,2.9C194.8,193.8,189.5,198.7,186.2,201.7"/>
<path class="st2" d="M195.6,192.1l-9.7-3.4c3-3.4,12.7-15.8,15-20.5l4,13C202.4,184.8,199,189.2,195.6,192.1z"/>
<path class="st2" d="M204,181.5l-8.6-4.7c2.8-3.9,5.3-8,7.6-12.3l9.6,4.8c-2.3,4.2-5.7,8.7-8.4,12.7"/>
<path class="st2" d="M212.1,169.7l-9.2-5.3c2.7-5,5.1-10.3,7.1-15.6l9.3,4.4C217.3,158.6,214.8,164.7,212.1,169.7L212.1,169.7z"/>
<path class="st2" d="M218.6,153.5l-8.6-4.7c4.7-12.6,7.1-26,7.1-39.5c0-35.7-17.1-64.6-43.1-78.7l9.4,4c26,14.1,42.7,44.1,42.7,79.8
	c0,13.5-2.5,26.6-7.2,39.3"/>
<path class="st2" d="M175.2,31.7l-8.6-4.7c-0.9-0.5-1.5-1.4-1.8-2.3c-0.3-1-0.3-3.3,1.8-4.9l8,7.2c-0.4,0.9-0.3,1.1,0,2.1
	s0.2,2.1,1.1,2.6"/>
<path class="st2" d="M173.3,27.4l-8.6-4.4c0.1-0.1,0.4-1.5,0.5-1.6l0.5-0.7l9.3,5.5l-0.4,0.4C174.6,26.6,173.3,27.4,173.3,27.4z"/>
<path class="st2" d="M175,26.6l-9.7-5.1c0.2-0.5,0.3-0.8,0.8-1.3l9.3,5.5L175,26.6L175,26.6z"/>
<path class="st2" d="M174.2,25.2l-8.5-4.5l0.8-0.8l11.4,4.2C177.8,24.2,174.4,25,174.2,25.2"/>
<path class="st2" d="M174.5,24.9l-8.4-4.7l0.4-0.4l8.9,4.6c-0.1,0.1-0.3,0.7-0.4,0.8"/>
<path class="st2" d="M175.4,24.5l-8.9-4.6l0.5-0.4l8.8,4.6L175.4,24.5L175.4,24.5z"/>
<path class="st2" d="M175.8,24.5l-9.3-4.6c0.4-0.4,0.9-0.7,1.1-0.8l9.5,4.6C176.8,23.7,176,24.3,175.8,24.5z"/>
<path class="st2" d="M176.2,23.5l-9.7-3.7c1.3-1.3,2.7-1.4,3.7-1.4l9.4,5.2c-0.5-0.1-1.2,0.3-1.7,0.4c-0.4,0.1-0.5-0.2-0.8,0"/>
<path class="st2" d="M178.8,23.2l-9.8-4.7c0.7-0.1,1.3-0.2,1.7,0c1.6,0.7,3.1,1.5,4.7,2.3l11.3,6.2c-1.6-0.8-6.8-1-8.4-1.7
	L178.8,23.2 M184.1,25.5l-8.6-4.7c1,0.5,2,1,3,1.6l8.3,4.6C185.8,26.5,185.1,26,184.1,25.5 M133,17.8l-8.6-4.7c0.5-0.1,1-0.1,1.4,0
	l8.6,4.7C134,17.7,133.5,17.7,133,17.8"/>
<path class="st2" d="M134.5,17.9l-8.6-4.7c0.2,0.1,0.5,0.1,0.7,0.2l8.6,4.7C134.9,18,134.7,17.9,134.5,17.9z"/>
<path class="st2" d="M126.5,21l-1.4-8c0.6-0.1,0.9,0,1.5,0.4l8.6,4.8l0.4,0.4 M78.6,227.1l-8.6-4.7c-28.3-15.4-47-46.9-47-85.8
	c0.1-14.7,2.7-29.2,7.8-43l8.6,4.8c-5.1,13.8-7.7,28.3-7.8,42.9C31.6,180.2,50.3,211.7,78.6,227.1L78.6,227.1z M39.4,98.4l-8.6-4.8
	c2.2-5.9,4.7-11.6,7.7-17.1l8.6,4.8C44.1,86.8,41.5,92.5,39.4,98.4"/>
<path class="st2" d="M46,91.8l-7.6-15.2c2.5-4.6,5.2-9.1,8.2-13.4l17.9-4.3c-3,4.3-15,17.8-17.5,22.5"/>
<path class="st2" d="M55.3,67.9l-8.6-4.7c2.8-4,5.9-7.9,9.1-11.6l18.9-2.7C71.4,52.6,58.1,63.9,55.3,67.9"/>
<path class="st2" d="M64.4,56.3l-8.6-4.7c3.2-3.7,6.7-7.1,10.3-10.4L85,40.5C81.4,43.7,67.7,52.6,64.4,56.3"/>
<path class="st2" d="M74.8,45.9l-8.6-4.7c3.9-3.5,7.9-6.7,12.2-9.7l10.1,4.4C84.1,38.8,78.6,42.4,74.8,45.9z"/>
<path class="st2" d="M87,36.2l-8.6-4.7c5.2-3.6,10.7-6.8,16.5-9.5l8.6,4.7C97.7,29.4,92.2,32.6,87,36.2"/>
<path class="st2" d="M102.8,27l-8-5c9.4-4.4,20.2-7.7,30.5-9.1l9.1,4.9c-10.3,1.5-21.9,5.2-31.3,9.6"/>
<path class="st1" d="M31.7,141.3C31.8,81,77.2,25.8,133.1,17.9c0.5-0.1,1.1,0,1.6,0.1c0.5,0.2,1,0.4,1.4,0.8s0.7,0.8,0.9,1.3
	s0.3,1,0.2,1.6c0,1.2-0.4,2.3-1.2,3.2c-0.7,0.9-1.8,1.5-2.9,1.8C81.7,33.8,40,84.7,40,140.1s41.5,94.6,92.9,87.3s93.1-58,93.2-113.5
	c0-38.8-20.4-69.7-50.4-82.1c-0.5-0.2-0.9-0.6-1.3-1c-0.3-0.4-0.6-0.9-0.8-1.4s-0.2-1.1-0.2-1.6s0.2-1.1,0.5-1.5
	c0.3-0.8,0.8-1.4,1.5-1.9c0.6-0.5,1.4-0.8,2.2-1c0.6-0.1,1.3,0,1.8,0.2c32.6,13.5,54.8,47.1,54.7,89.4
	c-0.1,60.3-45.5,115.6-101.4,123.4C76.8,244.2,31.6,201.6,31.7,141.3L31.7,141.3z"/>
<path class="st3" d="M94.8,197.2l-8.6-4.7c0.7,0.4,1.4,0.8,2.2,1.1l8.6,4.7L94.8,197.2"/>
<path class="st3" d="M96.9,198.3l-8.6-4.7c3.6,1.8,7.3,3.1,11.2,4.1l15.1,7.5C110.7,204.2,100.5,200.1,96.9,198.3L96.9,198.3z"/>
<path class="st3" d="M107.4,203.1l-7.9-5.4c8,2,16.4,2.5,24.5,1.3c0.5-0.1,1-0.1,1.4,0l8.6,4.7c-0.5-0.1-0.5,0.6-1,0.7
	c-8.2,1.2-16.9,1.3-24.9-0.7"/>
<path class="st3" d="M134.1,203.8l-8.6-4.7c0.2,0.1,0.4,0.1,0.6,0.2l8.7,4.7C134.6,203.9,134.4,203.8,134.1,203.8"/>
<path class="st3" d="M134,204.4l-12.2-5.1c1.9-0.2,3.4-0.7,4.5,0l8.6,4.7C135.8,204.7,135.4,204.7,134,204.4L134,204.4z
	 M164.8,198.5l-8.6-4.7c-0.6-0.3-1.2-0.9-1.5-1.5s-0.4-1.2-0.5-1.9c0-0.8,0.2-1.9,0.5-2.1l13.2,0.5c-0.2,0.6-5,5.6-5,6.2
	c0,0.7,0.2,1.3,0.5,1.9C163.7,197.6,164.2,198.2,164.8,198.5"/>
<path class="st3" d="M163.1,193.3l-8.6-4.7c0-0.2,0.5-1,0.5-1l8.5,5C163.3,192.8,163.1,193.1,163.1,193.3z"/>
<path class="st3" d="M163.5,192.5l-8.6-4.7c-0.1-0.1,0.9-1.3,1.6-1.8l7.5,5.6C163.9,191.9,163.6,192.3,163.5,192.5z"/>
<path class="st3" d="M163.9,192l-8.6-4.7c0.6-0.9,1.1-1.1,2-1.8l7,6L163.9,192z"/>
<path class="st3" d="M164.2,191.5l-8.6-4.7l0.4-0.4l8.6,4.7C164.6,191.2,164.4,191.4,164.2,191.5"/>
<path class="st3" d="M162.9,195.1l-6.9-8.7c0.2-0.1,0.3-0.3,0.5-0.4c2.9-2,5.8-4.3,8.4-6.7l14.1,2.5c-2.7,2.4-11,6.8-13.9,8.9
	c-0.2,0.1-0.3,0.3-0.5,0.4"/>
<path class="st3" d="M164.6,193.5l0.3-14.1c2.5-2.3,5.9-5.7,8.1-8.3l15.3-0.4c-2.3,2.6-12.2,11.1-14.8,13.4"/>
<path class="st3" d="M180.8,176.7l-8.6-4.7c2.3-2.6,4.4-5.3,6.4-8.1l8.6,4.6C185.2,171.4,183.1,174.1,180.8,176.7"/>
<path class="st3" d="M185.4,177l-6.8-13.2c2.1-3,4-6.2,5.7-9.5l10.2,4.8C192.7,162.5,187.5,174,185.4,177L185.4,177z"/>
<path class="st3" d="M193,159.2l-8.6-4.7c2.1-3.8,3.9-7.8,5.4-11.9l8.6,4.7C196.8,151.4,195,155.4,193,159.2z"/>
<path class="st3" d="M198.3,147.3l-8.6-4.7c3.6-9.7,5.4-19.9,5.5-30.2c0-27.2-13.1-49.3-32.9-60.1l8.6,4.7
	c22.3,9.9,40.8,31.7,34.1,61.2C204.9,128.5,201.9,137.6,198.3,147.3L198.3,147.3z M133.2,42.6l-8.8-5.8c9.2-1.4,18.5-0.9,27.5,1.4
	l12.1,6.1C155,42.1,142.3,41.3,133.2,42.6z"/>
<path class="st3" d="M160.4,42.9l-8.6-4.7c4.3,1.1,8.5,2.7,12.5,4.6l8.9,4.9c-4-2-8.8-1.4-13.1-2.5"/>
<path class="st3" d="M172.4,48.5l-8.1-5.7l2.4,1.3l8.6,4.7L172.4,48.5z M90.3,205.4l-8.6-4.6c-22.2-12.1-36.9-36.8-36.8-67.2
	c0-11.5,2.1-22.9,6.1-33.7l14.8-3.8c-4,10.8-7.9,30.5-7.9,42C63.3,162.8,68.1,193.3,90.3,205.4"/>
<path class="st3" d="M59.6,104.6L51,99.9c1.6-4.6,3.8-10.1,6.6-14.1l10.1,5.1C65.4,95,61.3,100,59.6,104.6z"/>
<path class="st3" d="M65.6,91.2L57,86.5c1.9-3.6,4.1-7.1,6.5-10.5L83,75C80.7,78.4,67.7,87.6,65.6,91.2"/>
<path class="st3" d="M72.1,80.7l-8.6-4.6c2.2-3.2,4.6-6.3,7.1-9.1L93,61.1C90.4,64,74.3,77.6,72.1,80.7z"/>
<path class="st3" d="M79.2,71.7L70.6,67c2.5-2.9,5.2-5.6,8.1-8.2l24-2.2C99.8,59.2,81.8,68.8,79.2,71.7"/>
<path class="st3" d="M87.4,63.5l-8.7-4.7c3-2.7,6.2-5.3,9.6-7.6l21.3,0.9C106.2,54.4,90.4,60.7,87.4,63.5"/>
<path class="st3" d="M96.9,55.9l-8.6-4.7c4.1-2.8,8.4-5.3,12.9-7.4l10.1,4.8C106.7,50.7,101,53.1,96.9,55.9z"/>
<path class="st3" d="M109.8,48.5l-8.6-4.7c7.3-3.5,15.2-5.8,23.2-7l8.6,4.7C125,42.7,117.1,45,109.8,48.5"/>
<path class="st4" d="M133,41.6c43.7-6.1,79.1,27.1,79,74.4c-0.2,16.1-4.2,32-11.7,46.2c-7.5,14.3-18.3,26.6-31.5,35.9
	c-0.6,0.4-1.2,0.6-1.9,0.7c-0.7,0.1-1.5,0-2.1-0.3s-1.2-0.9-1.5-1.5c-0.5-1.1-0.5-2.3-0.2-3.4s1.1-2.1,2.1-2.8
	c11.8-8.3,21.5-19.4,28.2-32.2s10.3-27,10.5-41.5c0-42.3-31.7-72.2-70.9-66.7c-39.2,5.4-71.1,44.3-71.2,86.7
	c-0.1,42.3,31.7,72.3,71,66.7c0.5-0.1,1.1,0,1.6,0.1c0.5,0.2,1,0.4,1.4,0.8c0.4,0.4,0.7,0.8,0.9,1.3s0.3,1,0.2,1.6
	c0,1.2-0.4,2.3-1.1,3.2c-0.7,0.9-1.8,1.5-2.9,1.8c-43.7,6.2-79.1-27.1-79-74.4C53.7,90.9,89.3,47.7,133,41.6L133,41.6z"/>
<path class="st2" d="M107.5,174.8l-8.6-4.7l1.4,0.7l8.6,4.7L107.5,174.8z"/>
<path class="st2" d="M108.7,176.1l-8.2-5.5c2.4,1.2,5.1,2.4,7.7,3.1l9,5C114.5,177.9,111.1,177.3,108.7,176.1z"/>
<path class="st2" d="M109.8,182.5l-1.9-8.9c1.4,0.4,2.8,0.6,4.3,0.9c4.1,0.6,8.3,0.6,12.4,0c4.9-0.7,9.6-2.1,14-4.2l8.6,4.7
	c-4.4,2.1-9.2,3.8-14.1,4.4c-4.1,0.6-8.1,0.6-12.2,0c-1.4-0.2-3.3-0.1-4.6-0.4"/>
<path class="st2" d="M138.3,184.5l0.3-14.2c2.7-1.3,5.3-2.8,7.8-4.5l9.6,4.8c-2.5,1.7-2.6,8.7-5.3,10"/>
<path class="st2" d="M155.5,171.4l-9.3-5.5c2-1.4,4.1-3.1,5.9-4.8l10.1,4.8C160.4,167.6,157.6,170,155.5,171.4z"/>
<path class="st2" d="M160.8,165.9l-8.8-4.7c1.7-1.5,3.8-3.6,5.4-5.3l8.4,5.1C164.1,162.7,162.5,164.3,160.8,165.9"/>
<path class="st2" d="M161.4,171l-4.4-14.7c1.5-1.7,3.3-3.9,4.6-5.8h14c-1.3,1.9-8.5,8.8-10,10.5"/>
<path class="st2" d="M170,155.5l-8.6-4.7c1.4-2,2.6-4.1,3.8-6.3l10.7,4.5C174.7,151.2,171.4,153.5,170,155.5"/>
<path class="st2" d="M175,149.9l-9.8-5.3c1.4-2.6,2.6-5.2,3.6-8l9.2,4.9c-1,2.7-1.6,5.4-3,8"/>
<path class="st2" d="M177.4,141.2l-8.6-4.7c0.8-2.2,1.5-4.5,2.1-6.8c5.7-23.2-3.3-44.8-20.5-54.1l9,4.2
	c17.2,9.3,25.8,31.5,20.2,54.6C178.9,136.7,178.3,139,177.4,141.2z M120.5,74.2l4-11.9c4.8-0.7,9.9-0.8,14.8-0.1
	c1.7,0.2,3.4,0.6,5,1l8.6,4.7c-1.6-0.4-3.3-0.8-5-1c-4.8-0.7-10.8-0.1-15.6,0.6"/>
<path class="st2" d="M142,71.1l2.3-7.9c3,0.8,6,1.9,8.8,3.3l8.6,4.7c-2.8-1.4-5.8-2.5-8.9-3.3 M103.1,183l-8.6-4.7
	c-12.7-6.9-21.6-19.6-24.8-34.9c-0.2-0.9-0.1-1.8,0.2-2.7l9.2,4.6c-0.3,0.9-0.9,1.9-0.8,2.8C81.5,163.3,90.3,176.1,103.1,183z"/>
<path class="st2" d="M79.1,146.1l-9.2-5.4c0.1-0.2,0.2-0.5,0.3-0.7l9.7,4.9C79.8,145.1,79.2,145.9,79.1,146.1z"/>
<path class="st2" d="M79.5,145.3l-9.3-5.3l0.3-0.6l11.7,2.5L79.5,145.3L79.5,145.3z"/>
<path class="st2" d="M79.2,144.1l-8.6-4.7c0.1-0.2,0.2-0.3,0.4-0.5l8.6,4.7C79.5,143.8,79.3,144,79.2,144.1z"/>
<path class="st2" d="M79.5,144.4l-8.6-5.5l0.4-0.4l8.6,4.7C79.9,143.4,79.7,144.3,79.5,144.4z M80,143.2l-8.6-4.7
	c0.2-0.1,0.3-0.2,0.5-0.3l8.6,4.7C80.3,143,80.2,143.2,80,143.2"/>
<path class="st2" d="M69.9,140.7c0,0,0.4-1.6,1.7-2.5c0.2-0.1,1.2-0.6,1.6-0.7l9.2,5.2c-0.2,0.1-1.5,1.1-1.7,1.3"/>
<path class="st2" d="M77.3,147.6l-4.7-9.9l0.3-0.1c0.3-0.1,0.6-0.2,0.9-0.2c0.5-0.1,1-0.1,1.4,0l9.4,5.3c-0.5-0.1-1.2,0.3-1.7,0.4
	c-0.3,0-1-0.1-1.3,0C81.6,143.1,77.3,147.6,77.3,147.6z"/>
<path class="st2" d="M83.8,142.2l-8.6-4.7c0.2,0.1,0.5,0.1,0.7,0.2l8.6,4.7C84.3,142.3,84.1,142.2,83.8,142.2"/>
<path class="st2" d="M83.3,142.7l-8.1-5.3l0.8,0.3l9,5c0.4,0.4-0.1,0.5-1.3,0.4 M80.8,124.1c-2.3-0.7-8.6-4.7-8.6-4.7
	c-0.8-0.5-1.4-1.2-1.7-2c-0.3-0.8-0.4-1.8-0.2-2.7c0.7-2.7,1.5-5.4,2.4-8l10.5,3.9c-1,2.6-3.1,6.2-3.8,8.9c-0.3,0.9-0.3,1.3,0,2.1
	s3.1,2.4,3.8,2.8C83.2,124.4,83.5,124.9,80.8,124.1z"/>
<path class="st2" d="M81.5,111.3l-8.8-4.4c1.2-3.2,2.8-6.7,4.4-9.7l14.2,2C89.6,102.2,82.7,108.1,81.5,111.3"/>
<path class="st2" d="M84.8,105.6l-7.7-8.3c1.4-2.6,2.9-5,4.5-7.4l15.8-3.8c-1.7,2.4-10.4,13.3-11.7,15.8"/>
<path class="st2" d="M90.3,94.7l-15.7,7.7c3.3-8,12.5-23.6,29.5-33.1l-8.7,19C93.5,90.4,91.8,92.5,90.3,94.7"/>
<path class="st2" d="M95.2,89.1l-8.5-5.5c3.3-5.2,14.4-11.8,16.4-13.6L102,82.3c-2,1.8-4.1,5.2-5.9,7.2"/>
<path class="st2" d="M100.6,83.6l-8.3-5.8c2.2-1.9,4.4-3.8,6.8-5.4l15.2,3.9c-2.4,1.6-11.2,4.9-13.4,6.8"/>
<path class="st2" d="M107.8,77.1l-8.6-4.7c2.9-2,6-3.8,9.2-5.3l15.2,2.6C120.4,71.3,110.8,75.1,107.8,77.1"/>
<path class="st2" d="M117,71.8l-8.6-4.7c5.2-2.4,10.7-4.1,16.3-4.9l8.6,4.7C127.7,67.6,122.2,69.3,117,71.8"/>
<path class="st1" d="M147.9,67c0-0.1-20.7-3.1-37.9,7.4c-16.2,9.9-22.1,17.2-28.3,31.9c-6.5,15.3-1.6,17.3,1.3,18.2
	c1-0.2,1.9-0.6,2.6-1.3c0.7-0.7,1.2-1.5,1.4-2.5c5.8-24,25.2-41.8,46.3-44.8c4.1-0.6,8.3-0.6,12.4,0c25.5,3.8,40.6,30.1,33.8,58.6
	c-5.8,23.9-25.2,41.8-46.3,44.8c-4.1,0.6-8.3,0.6-12.4,0c-17.9-2.6-30.7-16.3-34.3-34.1c-0.1-0.9-0.8-1.7-1.4-2.3
	c-1.2-1.1-7.7-2-6.7,5.3c3,21.1,19.3,37,40.3,40.1c4.8,0.7,9.7,0.7,14.6,0c24.8-3.5,47.5-24.5,54.3-52.6
	C195.6,102.2,177.9,71.4,147.9,67"/>
<path class="st3" d="M159.9,118.1l-8.7-4.5c-0.4-0.2-0.8-0.6-1.1-1s-0.5-0.9-0.6-1.4c-0.7-3.2-2.1-6.1-4.1-8.7s-4.4-4.7-7.3-6.3
	l9.1,4.3c2.8,1.6,6.5,3.3,8.4,5.9c2,2.6,4.1,5.2,4.9,8.4c0.1,0.5,1.5,0.4,1.8,0.8c0.2,0.4-2.1,2.1-1.7,2.3 M118.5,152.7l-8.6-4.7
	c0.2,0.2,0.5,0.3,0.8,0.4l8.6,4.7L118.5,152.7z"/>
<path class="st3" d="M118.9,153.5l-8.2-5.1c1.3,0.7,2.8,1.2,4.2,1.6l8.6,4.7c-1.5-0.4-2.9-0.9-4.2-1.6"/>
<path class="st3" d="M123.4,154.7l-8.6-4.7c3,0.8,6,0.9,9,0.5c2.4-0.3,4.6-1,6.8-1.9l0.9-0.4l8.6,4.7l-0.9,0.4
	c-2.2,0.9-4.5,1.6-6.8,1.9C129.5,155.6,126.4,155.4,123.4,154.7"/>
<path class="st3" d="M139.9,153.7l-8.4-5.5c1.5-0.7,3.1-1.6,4.4-2.6l8.6,4.7C143.2,151.3,141.4,153,139.9,153.7L139.9,153.7z"/>
<path class="st3" d="M137.5,158.4l-1.6-12.8c1.1-0.8,2.2-1.6,3.2-2.5l17.7,0.4c-1,0.9-11.1,6.1-12.2,6.8"/>
<path class="st3" d="M147.7,147.8l-8.6-4.7c0.9-0.8,1.8-1.7,2.7-2.7l8.6,4.7C149.5,146.1,148.7,147,147.7,147.8"/>
<path class="st3" d="M150,147.4l-8.3-6.9c0.8-0.9,1.6-1.9,2.4-3l10.2,5.7C153.5,144.2,150.9,146.4,150,147.4L150,147.4z"/>
<path class="st3" d="M154.3,143.6l-10.2-6.1c0.8-1.1,1.5-2.3,2.1-3.5l10.2,5.4c-0.6,1.2-1.7,2.3-2.5,3.4"/>
<path class="st3" d="M155.5,139.3l-9.4-5.4c0.8-1.4,1.4-2.9,2-4.5l10.3,5.2c-0.6,1.5-1.8,3.2-2.5,4.6"/>
<path class="st3" d="M158.1,135.6l-9.8-6c0.6-1.7,1.1-3.4,1.4-5.1l0.4-1.2l8.8,5.1c-0.1,0.3,0.9,1,0.8,1.3
	C159.4,131.4,158.7,134,158.1,135.6L158.1,135.6z"/>
<path class="st3" d="M158.5,128.3l-8.6-4.7c0.1-0.2,0.2-0.6,0.3-0.8l8.6,4.8C158.8,127.9,158.7,128.1,158.5,128.3"/>
<path class="st3" d="M158.8,127.7l-8.6-4.6l0.3-0.6c3.6,1.6,5.3,2.8,8.6,4.8C159,127.4,158.9,127.6,158.8,127.7"/>
<path class="st3" d="M159.2,127.1l-9.9-1.7c0.9-2.3,0.6-4.1,4-4.8l6.1,6C159.3,126.8,159.2,127,159.2,127.1"/>
<path class="st3" d="M159.5,126.6l-8.6-4.7c0.1-0.2,0.9-1.2,3-1.6l6,5.9C159.9,126.2,159.5,126.6,159.5,126.6z"/>
<path class="st3" d="M158.5,129.2l-7.2-7.7c0.2-0.1,0.4-0.3,0.5-0.4l11.3,4.3c-0.2,0.1-3,0.7-3.1,0.8"/>
<path class="st3" d="M160.5,125.8l-8.6-4.7c0.1-0.3,1.6-0.9,2-0.8l7.4,5.1C161,125.6,160.7,125.7,160.5,125.8"/>
<path class="st3" d="M161.1,125.4l-8.6-4.7c0.4-0.2,0.8-0.3,1.2-0.4h1.5l8.6,4.7l-0.6-0.1h-0.9C161.9,125,161.5,125.1,161.1,125.4"
	/>
<path class="st3" d="M163.8,125.1l-8.6-4.7c0.2,0.1,0.4,0.1,0.6,0.2l8.6,4.7C164.2,125.3,164,125.2,163.8,125.1z"/>
<path class="st3" d="M160.2,127.5l-5.1-7.2c0.4,0.1,0.6,0.1,0.8,0.3l8.6,4.7c0.7,0.4,1,0.7,1.1,1.3 M120.6,94.9l3.5-10.2
	c4-0.6,8-0.4,11.9,0.6l8.6,4.7c-3.9-1-7.9-1.2-11.9-0.6"/>
<path class="st3" d="M141.5,90.8l-5.5-5.4c1.9,0.5,3.7,1.2,5.5,2l8.6,4.7c-1.8-0.9-4.9-0.4-6.8-0.9"/>
<path class="st3" d="M150.1,92.1l-8.6-4.7l1,0.5l8.6,4.8L150.1,92.1 M114.2,160.9l-8.8-4.6c-3.7-2.1-6.9-4.9-9.5-8.3
	c-2.6-3.4-4.4-7.3-5.3-11.4c-2-8-1.3-16.9,1.6-24.6l8.9,5.1c-2.9,7.7-2.8,16.1-0.8,24.1c1,4.2,2.1,7.6,4.6,11
	C107.4,155.4,110.4,158.8,114.2,160.9z"/>
<path class="st3" d="M100.7,117l-8.6-4.7c0.7-2,1.6-4,2.6-5.9l10.6,5.1C104.3,113.4,101.4,115,100.7,117z"/>
<path class="st3" d="M103.3,111.1l-8.6-4.7c0.9-1.6,1.8-3.1,2.8-4.6l8.6,4.7C105.1,108,104.2,109.5,103.3,111.1"/>
<path class="st3" d="M100.3,112.6l-2.7-10.8c1-1.4,2-2.7,3.1-3.9l8.6,4.7c-1.1,1.2-5.1,11.2-6.1,12.6"/>
<path class="st3" d="M108.3,108.6l-7.6-10.8c1.1-1.2,2.3-2.4,3.5-3.5l16.7-0.8c-1.2,1.1-6.9,11.7-8,13"/>
<path class="st3" d="M112.8,99.1l-8.6-4.7c1.3-1.2,2.7-2.3,4.2-3.3l11.8,4.3C118.6,96.4,114.1,97.9,112.8,99.1"/>
<path class="st3" d="M116.9,95.8l-8.7-4.7c1.8-1.3,3.7-2.3,5.7-3.3l21.5,2C133.4,90.7,118.7,94.5,116.9,95.8"/>
<path class="st3" d="M116.8,97l-2.8-9.2c0.4-0.2,0.8-0.4,1.1-0.5c2.9-1.2,5.9-2.1,9-2.5l12.4,4.4c-3.1,0.4-9.9,1.6-12.8,2.8
	C123.7,92,116.8,97,116.8,97z"/>
<path class="st4" d="M125.8,100.2c-14.1,6-22.4,22.8-18.7,37.5c1.2,5.6,4.5,10.6,9.2,13.8c4.7,3.3,10.5,4.6,16.2,3.7
	c2.4-0.3,4.7-1,6.9-1.9c4.9-2.2,9.1-5.6,12.4-9.8c3.3-4.2,5.6-9.1,6.6-14.4c0.2-1,0.6-1.9,1.4-2.6c0.7-0.7,1.6-1.2,2.6-1.4h0.9
	c0.5,0.1,1,0.2,1.5,0.5s0.8,0.7,1.1,1.1c0.3,0.5,0.5,1,0.6,1.5c0.1,0.5,0,1.1-0.1,1.6c-1.3,6.9-4.3,13.3-8.6,18.8
	s-9.9,9.9-16.3,12.7c-2.9,1.2-5.9,2.1-8.9,2.5c-15.1,2.2-29.1-6.8-33.2-22.9h-0.1h0.1c-4.9-19.2,6.1-41.1,24.5-49
	c2.9-1.2,5.9-2.1,8.9-2.5c15.1-2.1,29.1,6.9,33.2,22.9c0.3,1.1,0.1,2.3-0.4,3.4c-0.5,1-1.4,1.9-2.5,2.4c-0.3,0.1-0.7,0.2-1,0.3
	c-0.9,0.1-1.8-0.1-2.5-0.6s-1.2-1.3-1.4-2.1c-1.2-5.6-4.5-10.5-9.2-13.8s-10.5-4.6-16.2-3.7C130.3,98.6,128,99.3,125.8,100.2
	L125.8,100.2z"/>
<path class="st0" d="M169.1,134.4l7.8-2.2l-66.6-17.4c-0.8,1.5-1.2,2.3-1.7,3.8L169.1,134.4z M183.6,149.4l7.8-2.2l4.7,13.6l-10.6,3
	L183.6,149.4L183.6,149.4z"/>
<path class="st0" d="M188.3,155.3l7.8-2.2c0.1,0.1,0.2,0.3,0.3,0.5l-7.8,2.2C188.5,155.6,188.4,155.4,188.3,155.3z"/>
<path class="st0" d="M188.6,155.7l7.8-2.1c0.1,0.2,0.3,0.5,0.4,0.7l-7.8,2.2C188.9,156.3,188.7,156,188.6,155.7"/>
<path class="st0" d="M189,156.4l7.8-2.2c0.1,0.3,0.3,0.6,0.3,0.9l-7.8,2.2C189.2,157.1,189.1,156.7,189,156.4 M189.3,157.4l7.8-2.2
	c0,0.2,0,0.4,0.1,0.6l-7.8,2.2C189.5,157.7,189.5,157.5,189.3,157.4z"/>
<path class="st0" d="M189.5,157.9l7.8-2.2v0.4l-7.8,2.2V157.9z M189.5,158.4l7.8-2.2v0.4l-7.8,2.2V158.4z M189.6,158.8l7.8-2.2v0.4
	l-7.8,2.2V158.8"/>
<path class="st0" d="M189.6,159.1l7.8-2.2v0.3l-7.8,2.2V159.1z M189.6,159.5l7.8-2.2v0.3l-7.8,2.2V159.5"/>
<path class="st0" d="M189.5,159.8l7.8-2.2v0.3l-7.8,2.2V159.8z"/>
<path class="st0" d="M189.5,160.1l7.8-2.2v0.3l-7.8,2.2V160.1z"/>
<path class="st0" d="M189.4,160.4l7.8-2.2v0.3l-7.8,2.2V160.4"/>
<path class="st0" d="M189.3,160.7l7.8-2.2v0.3l-7.9,2.1C189.2,160.8,189.2,160.7,189.3,160.7"/>
<path class="st0" d="M189.2,160.9l7.8-2.2c0,0.1-0.1,0.2-0.1,0.3l-7.8,2.2C189.2,161.1,189.2,161,189.2,160.9 M189.1,161.3l7.8-2.2
	l-0.1,0.3l-7.8,2.2C189,161.5,189.1,161.4,189.1,161.3"/>
<path class="st0" d="M189,161.6l7.8-2.2c-0.1,0.1-0.1,0.2-0.2,0.3l-7.8,2.2C188.8,161.9,188.9,161.7,189,161.6 M188.8,162l7.8-2.2
	l-0.2,0.4l-7.8,2.2C188.6,162.2,188.7,162.1,188.8,162"/>
<path class="st0" d="M188.5,162.3l7.8-2.2c-0.1,0.1-0.2,0.3-0.3,0.4l-7.8,2.2C188.3,162.7,188.4,162.5,188.5,162.3 M188.2,162.8
	l7.8-2.2l-0.2,0.3c-0.5,0.5-1.1,0.9-1.8,1.1c0,0-8,2.3-8.6,2.3c-0.6-0.1,1.6-0.5,2.1-1C187.5,163.1,188.1,162.9,188.2,162.8
	L188.2,162.8z M175.2,137.5l18.1-0.9l3,0.8l-7.8,2.8L175.2,137.5L175.2,137.5z"/>
<path class="st0" d="M192.7,135.2l6.7-1.5l-6.2,2.9l-7.8,2.2L192.7,135.2L192.7,135.2z M188,125.5l7.8-2.2c0.7-0.2,1.2-0.2,2.4,0
	c1.7,0.4,2.5,1.7,2.5,1.7l-6.8,3.8l-5.6-3.4L188,125.5"/>
<path class="st0" d="M188.4,125.4l7.8-2.2h0.4l-7.8,2.2H188.4z"/>
<path class="st0" d="M188.8,125.4l7.8-2.2h0.3l-7.8,2.2H188.8"/>
<path class="st0" d="M189.1,125.3l7.8-2.2h0.3l-7.8,2.2H189.1 M189.5,125.4l7.8-2.2h0.3l-7.8,2.2H189.5z M189.8,125.4l7.8-2.2h0.3
	l-7.8,2.2H189.8 M190.1,125.5l7.8-2.2h0.3l-7.8,2.2H190.1 M190.4,125.5l7.8-2.2h0.3l-7.8,2.2H190.4 M190.6,125.6l7.8-2.2l0.3,0.1
	l-7.8,2.2L190.6,125.6z M190.9,125.7l7.8-2.2l0.3,0.1l-7.8,2.2L190.9,125.7z M191.2,125.8l7.8-2.2l0.3,0.1l-7.8,2.2L191.2,125.8
	 M191.5,126l7.8-2.2l0.3,0.2l-7.8,2.2L191.5,126z M191.8,126.2l7.8-2.2c0.1,0.1,0.2,0.1,0.3,0.2l-7.8,2.2L191.8,126.2 M192.1,126.4
	l7.8-2.2l0.3,0.3l-7.8,2.2L192.1,126.4"/>
<path class="st0" d="M192.4,126.6l7.8-2.2l0.4,0.4l-7.8,2.2L192.4,126.6z"/>
<path class="st0" d="M192.8,127l7.8-2.2c0.2,0.2,0.4,0.5,0.6,0.8l-7.8,2.3C193.2,127.6,193,127.4,192.8,127"/>
<path class="st0" d="M193.4,127.9l7.3-2.9c0.3,0.2,0.4,0.4,1,1.4c0.9,1.5,0.7,4.9-0.5,5.8l-7.2-3.6
	C193.8,128.3,193.7,128,193.4,127.9"/>
<path class="st0" d="M193.9,128.5l7.6-2.3c0.1,0.3,0.4,0.8,0.4,1.7l-7.8,1.5c-0.1-0.3-0.2-0.5-0.3-0.8
	C193.9,128.6,193.9,128.6,193.9,128.5L193.9,128.5z"/>
<path class="st0" d="M193.9,128.8l7.7-1.7c0,0.2,0.3,1.5,0.4,1.7l-7.7,1.2C194.3,129.8,193.9,128.9,193.9,128.8z"/>
<path class="st0" d="M194.3,130l7.7-2.1v0.4l-7.7,2.1V130"/>
<path class="st0" d="M194.3,129.4l7.7-1.1v0.4l-7.6,2.5C194.4,131.2,194.3,129.6,194.3,129.4L194.3,129.4z"/>
<path class="st0" d="M194.4,130.9l7.6-2.1v0.4l-7.6,2V130.9L194.4,130.9z"/>
<path class="st0" d="M194.4,131.2l7.6-2.4v0.8l-7.6,1.9V131.2"/>
<path class="st0" d="M194.4,131.6l7.6-2.3v0.8l-7.6,1.8V131.6z"/>
<path class="st0" d="M194.4,131.9l7.6-2.7v0.8l-7.6,2.2V131.9"/>
<path class="st0" d="M194.3,132.2l7.8-2.2v0.3l-7.8,2.2V132.2z"/>
<path class="st0" d="M194.4,131.3l7.7-1v0.3l-7.8,2.2L194,133"/>
<path class="st0" d="M194.2,132.8l7.8-2.2v0.3l-8,2.5L194.2,132.8z"/>
<path class="st0" d="M194.1,133.1l7.8-2.2c-0.1,0.1-0.1,0.2-0.1,0.3l-7.8,2.1C194,133.3,194,133.2,194.1,133.1"/>
<path class="st0" d="M193.9,133.4l7.8-2.2c-0.1,0.1-0.1,0.2-0.1,0.3c-3.1,1.9-5,1.9-8.1,2.3L193.9,133.4L193.9,133.4z"/>
<path class="st0" d="M193.8,133.7l7.8-2.2l-0.2,0.3l-7.8,2.2L193.8,133.7z M193.6,134.1l7.8-2.2l-0.7,0.7l-7.4,1.8L193.6,134.1
	L193.6,134.1z"/>
<path class="st0" d="M193.4,134.4l8.2-2.7c0,0-1.5,1.6-1.7,1.7l-6.8,1.4C193.2,134.7,193.4,134.6,193.4,134.4"/>
<path class="st0" d="M194.3,132.5l7.3-0.8c-0.4,0.8-1.6,1.7-2.1,1.9l-7.8,2.2C192.2,135.6,193.9,133,194.3,132.5L194.3,132.5z
	 M200.7,143.9l9.5-2l4.2,1.2l-7.8,2.8L200.7,143.9z"/>
<path class="st0" d="M210.8,139.1l6.9,0.2l-6.2,2.9l-7.8,2.2L210.8,139.1L210.8,139.1z M206.1,131.1l7.8-2.2c0.7-0.2,1.2-0.2,2.4,0
	c1.7,0.4,2.5,1.7,2.5,1.7l-6.8,3.8l-5.6-3.4L206.1,131.1"/>
<path class="st0" d="M206.6,131l7.8-2.2h0.4L207,131H206.6z"/>
<path class="st0" d="M206.9,131l7.8-2.2h0.3l-7.8,2.2H206.9 M207.3,131l7.8-2.2h0.3l-7.8,2.2H207.3"/>
<path class="st0" d="M207.6,131l7.8-2.2h0.3l-7.8,2.2H207.6z"/>
<path class="st0" d="M207.9,131l7.8-2.2h0.3l-7.8,2.2H207.9 M208.2,131.1l7.8-2.2h0.3l-7.8,2.2H208.2"/>
<path class="st0" d="M208.5,131.1l7.8-2.2h0.3l-7.8,2.2H208.5 M208.8,131.2l7.8-2.2l0.3,0.1l-7.8,2.2L208.8,131.2z M209.1,131.3
	l7.8-2.2l0.3,0.1l-7.8,2.2L209.1,131.3z M209.4,131.5l7.8-2.2l0.3,0.1l-7.8,2.2L209.4,131.5 M209.7,131.7l7.8-2.2l0.3,0.2l-7.8,2.2
	L209.7,131.7z"/>
<path class="st0" d="M210,131.8l7.8-2.2c0.1,0.1,0.2,0.1,0.3,0.2l-7.8,2.2L210,131.8"/>
<path class="st0" d="M210.3,132l7.8-2.2l0.3,0.3l-7.8,2.2L210.3,132"/>
<path class="st0" d="M210.6,132.3l7.8-2.2l0.4,0.4l-7.8,2.2L210.6,132.3z"/>
<path class="st0" d="M211,132.7l7.8-2.2c0.2,0.2,0.4,0.5,0.6,0.8l-7.8,2.3C211.4,133.2,211.2,133,211,132.7"/>
<path class="st0" d="M211.6,133.5l7.3-2.9c0.3,0.2,0.4,0.4,1,1.4c0.9,1.5,0.7,4.9-0.5,5.8l-7.2-3.6
	C212,133.9,211.8,133.7,211.6,133.5"/>
<path class="st0" d="M212.1,134.2l7.6-2.3c0.1,0.3,0.4,0.8,0.4,1.7l-7.3,3.7c-0.1-0.3-0.7-2.7-0.8-3
	C212.1,134.3,212.1,134.2,212.1,134.2L212.1,134.2z"/>
<path class="st0" d="M212.4,135.1l7.4-2.4c0,0.2,0.3,1.5,0.4,1.7l-7.7,1.2C212.4,135.5,212.4,135.3,212.4,135.1L212.4,135.1z"/>
<path class="st0" d="M212.5,135.6l7.7-2.1v0.4l-7.7,2.1V135.6 M212.5,136.1l7.6-2.1v0.4l-7.6,2.5V136.1L212.5,136.1z"/>
<path class="st0" d="M212.6,136.5l7.6-2.1v0.4l-7.6,2V136.5L212.6,136.5z"/>
<path class="st0" d="M212.6,136.8l7.6-2.4v0.8l-7.6,1.9V136.8"/>
<path class="st0" d="M212.6,137.2l7.6-2.3v0.8l-7.6,1.8V137.2z"/>
<path class="st0" d="M212.5,137.5l7.6-2.7v0.8l-7.6,2.2V137.5 M212.5,137.8l7.8-2.2v0.3l-7.8,2.2V137.8z"/>
<path class="st0" d="M212.6,136.9l7.7-1v0.3l-7.8,2.2l-0.3,0.2"/>
<path class="st0" d="M212.3,138.4l7.8-2.2v0.3l-8,2.5L212.3,138.4z"/>
<path class="st0" d="M212.2,138.7l7.8-2.2c-0.1,0.1-0.1,0.2-0.1,0.3l-7.8,2.1C212.1,138.9,212.2,138.8,212.2,138.7"/>
<path class="st0" d="M212.5,137.8l7.4-1c-0.1,0.1-0.1,0.2-0.1,0.3c-3.1,1.9-5,1.9-8.1,2.3L212.5,137.8L212.5,137.8z"/>
<path class="st0" d="M212,139.4l7.8-2.2l-0.2,0.3l-7.8,2.2L212,139.4z"/>
<path class="st0" d="M211.8,139.7l7.8-2.2l-0.7,0.7l-7.4,1.8L211.8,139.7L211.8,139.7z"/>
<path class="st0" d="M211.5,140l8.2-2.7c0,0-1.5,1.7-1.7,1.7l-6.8,1.4C211.4,140.3,211.5,140.2,211.5,140"/>
<path class="st0" d="M211.7,139.5l8-2.1c-0.4,0.8-1.6,1.7-2.1,1.9l-7.8,2.2C210.3,141.2,211.3,139.9,211.7,139.5L211.7,139.5z
	 M226,136.2l7.4-2.2c0.7-0.2,1.2-0.2,2.4,0c1.7,0.4,2.5,1.7,2.5,1.7l-6.8,3.8l-7.2-1.9L226,136.2"/>
<path class="st0" d="M226.1,136.1l7.8-2.2h0.4l-7.8,2.2H226.1z"/>
<path class="st0" d="M226.5,136.1l7.8-2.2h0.3l-7.8,2.2H226.5"/>
<path class="st0" d="M226.8,136l7.8-2.2h0.3l-7.8,2.2H226.8 M227.2,136.1l7.8-2.2h0.3l-7.8,2.2H227.2z"/>
<path class="st0" d="M227.5,136.1l7.8-2.2h0.3l-7.8,2.2H227.5"/>
<path class="st0" d="M227.8,136.1l7.8-2.2h0.3l-7.8,2.2H227.8 M228.1,136.2l7.8-2.2h0.3l-7.8,2.2H228.1 M228.3,136.3l7.8-2.2
	l0.3,0.1l-7.8,2.2L228.3,136.3z M228.6,136.4l7.8-2.2l0.3,0.1l-7.8,2.2L228.6,136.4z M228.9,136.5l7.8-2.2l0.3,0.1l-7.8,2.2
	L228.9,136.5 M229.2,136.7l7.8-2.2l0.3,0.2l-7.8,2.2L229.2,136.7z M229.5,136.9l7.8-2.2c0.1,0.1,0.2,0.1,0.3,0.2l-7.8,2.2
	L229.5,136.9 M229.8,137.1l7.8-2.2l0.3,0.3l-7.8,2.2L229.8,137.1"/>
<path class="st0" d="M230.1,137.3l7.8-2.2l0.4,0.4l-7.8,2.2L230.1,137.3z"/>
<path class="st0" d="M230.5,137.7l7.8-2.2c0.2,0.2,0.4,0.5,0.6,0.8l-7.8,2.3C230.9,138.3,230.7,138.1,230.5,137.7"/>
<path class="st0" d="M231.1,138.6l7.3-2.9c0.3,0.2,0.4,0.4,1,1.4c0.9,1.5,0.7,4.9-0.5,5.8l-7.2-3.6
	C231.5,139,231.3,138.7,231.1,138.6"/>
<path class="st0" d="M229.5,136.5l9.8,0.4c0.1,0.3,0.4,0.8,0.4,1.7l-6.5,3.7c-0.8,0.2-1.4,0.7-1.7,1.4c-0.3,0.8-0.8-0.6-0.9-0.8
	C230.6,142.9,229.5,136.6,229.5,136.5L229.5,136.5z"/>
<path class="st0" d="M231.9,140.2l7.4-2.4c0,0.2,0.3,1.5,0.4,1.7l-7.7,1.2C232,140.5,231.9,140.3,231.9,140.2L231.9,140.2z"/>
<path class="st0" d="M232,140.7l7.7-2.1v0.4l-7.7,2.1V140.7 M232.1,141.1l7.6-2.1v0.4l-7.6,2.5V141.1L232.1,141.1z"/>
<path class="st0" d="M232.1,141.6l7.6-2.1v0.4l-7.6,2V141.6L232.1,141.6z"/>
<path class="st0" d="M232.1,141.9l7.6-2.4v0.8l-7.6,1.9V141.9"/>
<path class="st0" d="M232.1,142.2l7.6-2.3v0.8l-7.6,1.8V142.2z"/>
<path class="st0" d="M232.1,142.6l7.6-2.7v0.8l-7.6,2.2V142.6"/>
<path class="st0" d="M232,142.9l7.8-2.2v0.3l-7.8,2.2V142.9z"/>
<path class="st0" d="M232.1,142l7.7-1v0.3l-7.8,2.2l-0.3,0.2"/>
<path class="st0" d="M231.9,143.5l7.8-2.2v0.3l-8,2.5L231.9,143.5z"/>
<path class="st0" d="M231.8,143.8l7.8-2.2c-0.1,0.1-0.1,0.2-0.1,0.3l-7.8,2.2C231.7,144,231.7,143.9,231.8,143.8"/>
<path class="st0" d="M231.6,144.1l7.8-2.2c-0.1,0.1-0.1,0.2-0.1,0.3c-3.1,1.9-5,1.9-8.1,2.3L231.6,144.1L231.6,144.1z"/>
<path class="st0" d="M231.5,144.4l7.8-2.2l-0.2,0.3l-7.8,2.2L231.5,144.4z M231.3,144.8l7.8-2.2l-0.7,0.7l-7.4,1.8L231.3,144.8
	L231.3,144.8z"/>
<path class="st0" d="M231,145.1l8.2-2.7c0,0-1.5,1.6-1.7,1.7l-6.8,1.4C230.9,145.4,231,145.3,231,145.1"/>
<path class="st0" d="M232.5,140.9l6.8,1.6c-0.4,0.8-1.6,1.7-2.1,1.9l-7.8,2.2C229.8,146.3,232.1,141.3,232.5,140.9z M202,154.1
	l8.8-1.7l4.6,5.8l-10,3L202,154.1L202,154.1z"/>
<path class="st0" d="M207.6,160.5l7.8-2.2c0.1,0.1,0.2,0.3,0.3,0.5l-7.8,2.2C207.8,160.8,207.7,160.6,207.6,160.5"/>
<path class="st0" d="M207.9,160.9l7.8-2.2c0.2,0.2,0.3,0.5,0.4,0.7l-7.8,2.2C208.2,161.4,208,161.2,207.9,160.9z"/>
<path class="st0" d="M208.3,161.6l7.8-2.2l0.3,0.9l-7.8,2.2L208.3,161.6"/>
<path class="st0" d="M208.6,162.5l7.8-2.2c0.1,0.2,0.1,0.4,0.1,0.5l-7.8,2.2C208.7,162.9,208.7,162.7,208.6,162.5z M208.8,163.1
	l7.8-2.1v0.5l-7.8,2.2V163.1"/>
<path class="st0" d="M208.8,163.5l7.8-2.2v0.4l-7.8,2.2V163.5z M208.9,163.9l7.8-2.2v0.4l-7.8,2.2V163.9z"/>
<path class="st0" d="M208.9,164.3l7.8-2.2v0.3l-7.8,2.2V164.3"/>
<path class="st0" d="M208.8,164.6l7.8-2.2v0.3l-7.8,2.2V164.6z M208.8,165l7.8-2.2v0.3l-7.8,2.2V165z"/>
<path class="st0" d="M208.8,165.3l7.8-2.2v0.3l-8,2.2v-0.3"/>
<path class="st0" d="M208.6,165.6l7.8-2.2v0.3l-7.8,2.2V165.6z"/>
<path class="st0" d="M208.6,165.9l7.8-2.2l-0.1,0.3l-7.8,2.2L208.6,165.9"/>
<path class="st0" d="M208.5,166.2l7.8-2.2l-0.1,0.3l-7.8,2.1L208.5,166.2 M208.4,166.5l7.8-2.2c0,0.1,0,0.2-0.1,0.3l-7.8,2.2
	L208.4,166.5"/>
<path class="st0" d="M208.3,166.8l7.8-2.2l-0.2,0.3l-7.8,2.2L208.3,166.8 M208.1,167.2l7.9-2.2c0,0.1-0.2,0.2-0.2,0.4l-7.8,2.2
	L208.1,167.2"/>
<path class="st0" d="M207.8,167.5l7.8-2.2c-0.1,0.1-0.2,0.3-0.3,0.4l-7.8,2.2L207.8,167.5z"/>
<path class="st0" d="M207.5,167.9l1.7-10.9l5.5,8.4c-0.5,0.5-0.7,1.3-1.4,1.5l-7.8,2.2c0.7-0.2,1.3-0.6,1.8-1.1L207.5,167.9
	L207.5,167.9z M216.6,152.7l7.8-2.2l10.3,12.9l-7.8,2.2L216.6,152.7z"/>
<path class="st0" d="M221.8,158.2l12.9,5.2c0.1,0.1,0.2,0.3,0.3,0.4l-6.5,6.3l-1.6-4.5"/>
<path class="st0" d="M227.2,166.1l7.8-2.2c0.1,0.2,0.3,0.5,0.4,0.7l-7.8,2.2C227.5,166.6,227.4,166.3,227.2,166.1 M227.6,166.8
	l7.8-2.2l0.3,0.9l-7.8,2.2C227.9,167.4,227.8,167.1,227.6,166.8 M228,167.7l7.8-2.2c0,0.2,0.1,0.4,0.1,0.6l-7.8,2.2
	C228.1,168.1,228,167.9,228,167.7"/>
<path class="st0" d="M228.1,168.3l6.7-4.7c1,1.1,1.1,1.6,1.1,3l-7.8,2.2V168.3z"/>
<path class="st0" d="M228.1,168.7l7.6-3.2c0.1,0,0.2,1.2,0.2,1.4l-7.8,2.2V168.7z"/>
<path class="st0" d="M228.2,169.1l7.6-3.7c0.1,0.1,0.2,1.4,0.2,1.9l-7.8,2.2V169.1z M228.2,169.5l7.8-2.2v0.3l-7.8,2.2V169.5z"/>
<path class="st0" d="M228.2,168.5l7.8-0.8v0.3l-7.9,2.2v-0.3"/>
<path class="st0" d="M228.2,170.1l7.8-3.4c0.2,2.3-0.2,3.4-1.9,4.7l-8.4,2.5L228.2,170.1L228.2,170.1z"/>
<path class="st0" d="M228.1,170.5l7.8-2.2v0.3l-7.8,2.2V170.5"/>
<path class="st0" d="M228,170.8l7.8-2.2v0.3l-7.8,2.2V170.8"/>
<path class="st0" d="M227.9,171.1l7.8-2.2c0,0.1-0.1,0.2-0.1,0.3l-7.8,2.2C227.9,171.3,227.9,171.2,227.9,171.1"/>
<path class="st0" d="M227.8,171.4l7.8-2.2c0,0.1-0.1,0.2-0.1,0.3l-7.8,2.2C227.8,171.6,227.8,171.5,227.8,171.4"/>
<path class="st0" d="M227.7,171.7l7.8-2.2c0,0.1-0.1,0.2-0.1,0.3l-7.8,2.1L227.7,171.7 M227.6,172l7.8-2.2c-0.1,0.1-0.1,0.2-0.2,0.3
	l-7.8,2.2C227.5,172.2,227.5,172.1,227.6,172"/>
<path class="st0" d="M227.4,172.3l7.8-2.2c-0.1,0.1-0.2,0.2-0.2,0.3l-7.8,2.2L227.4,172.3 M227.1,172.7l7.8-2.2
	c-0.1,0.1-0.2,0.3-0.3,0.4l-7.8,2.2C226.9,173,227,172.8,227.1,172.7z"/>
<path class="st0" d="M226.8,173.1l8.8-3.3c-0.1,0.1-1.1,1.3-1.2,1.4c-0.5,0.5-1.1,0.9-1.8,1.1l-7.8,2.2c0.5-0.4,0.9-0.4,1.3-0.9
	L226.8,173.1z M232.4,144.8l4.6-0.4l-14.1,6.9l-6.3,1.4L232.4,144.8z"/>
<path class="st1" d="M169.1,134.5l18.2-8.6c1-0.5,2-0.5,3.1-0.3c0.8,0.2,1.5,0.6,2.1,1.2c0.6,0.5,1.1,1.2,1.4,2
	c0.6,1.2,0.7,2.7,0.3,4s-1.3,2.4-2.5,3.1l-6.2,3l-0.2,0.1l0.3,0.1l3,0.8l18.1-8.7c0.9-0.5,2-0.5,3-0.3c1,0.3,2,0.9,2.6,1.8
	c0.7,0.8,1.1,1.8,1.3,2.9c0.1,1.1,0,2.2-0.5,3.1c-0.5,1-1.2,1.8-2.1,2.4l-6.2,2.9l-0.2,0.1l0.3,0.1l3,0.8l18.1-8.6
	c0.9-0.5,2-0.6,3.1-0.3c0.8,0.2,1.5,0.6,2.1,1.1s1.1,1.2,1.4,1.9c0.6,1.2,0.7,2.7,0.3,4s-1.3,2.4-2.5,3.1l-13.6,6.5l-0.1,0.1
	l0.1,0.1l10.3,12.9c0.9,1.1,1.3,2.5,1.3,3.9c-0.1,1.4-0.6,2.7-1.6,3.7c-0.5,0.5-1.2,0.9-2,1.1c-0.7,0.2-1.5,0.2-2.2,0
	c-1.1-0.3-2-0.9-2.7-1.8l-0.1,0.1l0.1-0.1L206,155.4l-3-0.8l-0.3-0.1l0.2,0.2l4.6,5.9c0.9,1.1,1.3,2.4,1.3,3.8
	c-0.1,1.4-0.6,2.7-1.6,3.7c-0.5,0.5-1.2,0.9-2,1.1c-0.7,0.2-1.5,0.2-2.2,0c-1.1-0.3-2-0.9-2.7-1.8l-13.6-17.2l-3-0.8l-0.3-0.1
	l0.2,0.2l4.6,5.8c0.9,1.1,1.3,2.4,1.3,3.8c-0.1,1.4-0.6,2.7-1.6,3.7c-0.5,0.5-1.2,0.9-2,1.1c-0.7,0.2-1.5,0.2-2.2,0
	c-1.1-0.3-2-0.9-2.7-1.8L167.4,145l-61-17.5c0.3-2.5,1.1-6.3,2.2-9.1L169.1,134.5L169.1,134.5z"/>
</svg>
