<svg width="60" height="59" fill="none" xmlns="http://www.w3.org/2000/svg"><g filter="url(#filter0_di)"><path d="M52.896 32.437l-4.51-2.738a1.176 1.176 0 01-.553-1.096c.048-.562.07-1.13.07-1.705a19.92 19.92 0 00-.235-3.12 1.168 1.168 0 01.545-1.188l4.713-2.865a1.148 1.148 0 00.43-1.488l-2.218-4.555a1.121 1.121 0 00-.584-.545 1.11 1.11 0 00-.795-.017l-4.763 1.743a1.116 1.116 0 01-1.293-.382 20.411 20.411 0 00-4.677-4.423 1.166 1.166 0 01-.43-1.355l1.056-2.922a1.187 1.187 0 00-.574-1.447L34.59 2.122a1.116 1.116 0 00-1.477.434L31.08 5.949l-.494.828a20.3 20.3 0 00-6.62.151A1.112 1.112 0 0122.79 6.4l-2.287-3.827a1.158 1.158 0 00-1.512-.446l-3.452 1.705-.989.487a1.189 1.189 0 00-.591 1.471L15.4 9.802a1.14 1.14 0 01-.345 1.286 20.24 20.24 0 00-3.04 3.092c-.086.093-.155.185-.23.283a1.15 1.15 0 01-1.321.382l-4.706-1.72a1.162 1.162 0 00-1.43.58l-2.196 4.506a1.181 1.181 0 00.443 1.517l4.706 2.855a1.128 1.128 0 01.534 1.164 20.446 20.446 0 00-.173 4.823 1.199 1.199 0 01-.568 1.117l-4.528 2.756a1.148 1.148 0 00-.43 1.477l2.2 4.498c.128.265.348.472.619.582.27.11.572.115.846.014l3.77-1.377a1.15 1.15 0 011.36.445 20.42 20.42 0 004.212 4.661 1.162 1.162 0 01.363 1.314l-1.54 4.273a1.205 1.205 0 00.591 1.483l4.453 2.206a1.131 1.131 0 001.482-.44l.12-.197 2.362-3.943a1.17 1.17 0 011.209-.55 20.062 20.062 0 005.487.226 1.136 1.136 0 011.097.55l2.322 3.884a1.174 1.174 0 001.534.458l4.447-2.205a1.28 1.28 0 00.327-.244 1.19 1.19 0 00.253-1.204l-1.16-3.202a1.191 1.191 0 01.202-1.146 1.17 1.17 0 01.241-.22 20.296 20.296 0 005.643-5.71 1.142 1.142 0 011.15-.498c.063.013.126.03.188.053l3.81 1.395c.267.098.56.092.825-.014a1.16 1.16 0 00.605-.564l.052-.105 2.144-4.384a1.196 1.196 0 00-.434-1.523zm-35.61-8.658a13.8 13.8 0 01.908-2.369c.747-1.51 2.591-3.38 4.097-4.127.16-.082.321-.157.483-.233 9.849-4.457 19.347 5.287 14.572 15.216-.626 1.297-2.011 2.82-3.361 3.764-.293.205-.6.387-.92.545a12.45 12.45 0 01-4.074 1.218c-7.596.855-13.844-6.186-11.705-14.014z" fill="url(#paint0_linear)"/></g><defs><linearGradient id="paint0_linear" x1="51.889" y1="27.069" x2="3.524" y2="26.003" gradientUnits="userSpaceOnUse"><stop stop-color="#A62E41"/><stop offset="1" stop-color="#E13152"/></linearGradient><filter id="filter0_di" x="0" y="0" width="59.476" height="58.138" filterUnits="userSpaceOnUse" color-interpolation-filters="sRGB"><feFlood flood-opacity="0" result="BackgroundImageFix"/><feColorMatrix in="SourceAlpha" values="0 0 0 0 0 0 0 0 0 0 0 0 0 0 0 0 0 0 127 0"/><feOffset dx="2" dy="2"/><feGaussianBlur stdDeviation="2"/><feColorMatrix values="0 0 0 0 0 0 0 0 0 0 0 0 0 0 0 0 0 0 0.15 0"/><feBlend in2="BackgroundImageFix" result="effect1_dropShadow"/><feBlend in="SourceGraphic" in2="effect1_dropShadow" result="shape"/><feColorMatrix in="SourceAlpha" values="0 0 0 0 0 0 0 0 0 0 0 0 0 0 0 0 0 0 127 0" result="hardAlpha"/><feOffset dx="-2" dy="-2"/><feGaussianBlur stdDeviation="2"/><feComposite in2="hardAlpha" operator="arithmetic" k2="-1" k3="1"/><feColorMatrix values="0 0 0 0 0 0 0 0 0 0 0 0 0 0 0 0 0 0 0.2 0"/><feBlend in2="shape" result="effect2_innerShadow"/></filter></defs></svg>