<svg width="90" height="88" fill="none" xmlns="http://www.w3.org/2000/svg"><g filter="url(#filter0_di)"><path d="M82.329 46.083l-7.36-3.42a1.795 1.795 0 01-1.026-1.57 31.38 31.38 0 00-.175-2.595 30.089 30.089 0 00-.875-4.702 1.773 1.773 0 01.644-1.886l6.745-5.133a1.743 1.743 0 00.415-2.334L76.55 17.9a1.723 1.723 0 00-2.205-.623l-7.013 3.432a1.73 1.73 0 01-2.048-.372 31.384 31.384 0 00-7.895-5.942 1.785 1.785 0 01-.882-1.986l1.138-4.608a1.798 1.798 0 00-1.118-2.102l-7.24-2.605a1.733 1.733 0 00-2.19.904l-2.557 5.49-.62 1.34a30.98 30.98 0 00-4.382.164c-1.942.207-3.86.595-5.73 1.159a1.728 1.728 0 01-1.89-.605l-4.135-5.433a1.792 1.792 0 00-2.389-.426L20.387 8.85l-1.434.912a1.812 1.812 0 00-.663 2.331l2.87 5.855a1.721 1.721 0 01-.325 2.017 31.174 31.174 0 00-4.138 5.21 5.31 5.31 0 00-.305.468.914.914 0 01-.108.155 1.767 1.767 0 01-1.862.646l-7.494-1.831a1.8 1.8 0 00-2.095 1.116l-2.62 7.206a1.786 1.786 0 00.93 2.233l7.68 3.555a1.725 1.725 0 011.01 1.675 31.625 31.625 0 00.54 7.352 1.821 1.821 0 01-.687 1.792L5.204 54.48a1.74 1.74 0 00-.418 2.313L8.9 63.262a1.821 1.821 0 002.343.662l5.548-2.718a1.785 1.785 0 012.163.435 31.256 31.256 0 007.22 6.38 1.775 1.775 0 01.78 1.937l-1.65 6.754a1.831 1.831 0 001.152 2.152l7.184 2.605a1.76 1.76 0 002.2-.914l.15-.32 2.969-6.38a1.793 1.793 0 011.767-1.036 31.095 31.095 0 008.444-.567 1.766 1.766 0 011.772.653l4.196 5.516a1.821 1.821 0 002.42.44l6.452-4.094a1.98 1.98 0 00.462-.424 1.815 1.815 0 00.186-1.872l-2.294-4.66a1.807 1.807 0 01.119-1.775 1.9 1.9 0 01.333-.372 31.136 31.136 0 007.7-9.604 1.751 1.751 0 011.976-.9l6.066 1.488a1.786 1.786 0 002.097-1.117l.061-.165 2.56-7.022a1.813 1.813 0 00-.947-2.26zm-55.972-7.239c.216-1.277.55-2.532 1-3.747.896-2.419 3.412-5.565 5.587-6.95.232-.15.467-.291.7-.43 14.352-8.407 30.507 4.818 24.83 20.69-.746 2.075-2.608 4.618-4.53 6.274-.414.36-.855.687-1.318.98a19.308 19.308 0 01-6.04 2.523c-11.486 2.553-22.212-7.094-20.23-19.34z" fill="url(#paint0_linear)"/></g><defs><linearGradient id="paint0_linear" x1="80.878" y1="42.279" x2="4.513" y2="40.583" gradientUnits="userSpaceOnUse"><stop stop-color="#A62E41"/><stop offset="1" stop-color="#E13152"/></linearGradient><filter id="filter0_di" x=".105" y=".982" width="89.278" height="86.594" filterUnits="userSpaceOnUse" color-interpolation-filters="sRGB"><feFlood flood-opacity="0" result="BackgroundImageFix"/><feColorMatrix in="SourceAlpha" values="0 0 0 0 0 0 0 0 0 0 0 0 0 0 0 0 0 0 127 0"/><feOffset dx="2" dy="2"/><feGaussianBlur stdDeviation="2"/><feColorMatrix values="0 0 0 0 0 0 0 0 0 0 0 0 0 0 0 0 0 0 0.15 0"/><feBlend in2="BackgroundImageFix" result="effect1_dropShadow"/><feBlend in="SourceGraphic" in2="effect1_dropShadow" result="shape"/><feColorMatrix in="SourceAlpha" values="0 0 0 0 0 0 0 0 0 0 0 0 0 0 0 0 0 0 127 0" result="hardAlpha"/><feOffset dx="-2" dy="-2"/><feGaussianBlur stdDeviation="2"/><feComposite in2="hardAlpha" operator="arithmetic" k2="-1" k3="1"/><feColorMatrix values="0 0 0 0 0 0 0 0 0 0 0 0 0 0 0 0 0 0 0.2 0"/><feBlend in2="shape" result="effect2_innerShadow"/></filter></defs></svg>