<svg width="59" height="58" fill="none" xmlns="http://www.w3.org/2000/svg"><g filter="url(#filter0_di)"><path d="M51.801 29.224l-4.568-2.16a1.12 1.12 0 01-.456-.404 1.146 1.146 0 01-.181-.587c-.014-.543-.05-1.09-.109-1.64a19.302 19.302 0 00-.543-2.97 1.14 1.14 0 01.02-.658 1.12 1.12 0 01.38-.533l4.187-3.242a1.116 1.116 0 00.258-1.474l-2.575-4.133a1.07 1.07 0 00-.61-.462 1.054 1.054 0 00-.759.068l-4.353 2.168a1.057 1.057 0 01-1.272-.235 19.517 19.517 0 00-4.9-3.753 1.12 1.12 0 01-.484-.533 1.137 1.137 0 01-.064-.721l.706-2.911c.063-.27.028-.553-.1-.797a1.124 1.124 0 00-.594-.53L31.29 2.07a1.06 1.06 0 00-.919.076 1.086 1.086 0 00-.441.495L28.343 6.11l-.385.846a19.226 19.226 0 00-6.277.836 1.059 1.059 0 01-1.174-.383L17.94 3.98a1.097 1.097 0 00-1.483-.27L13.35 5.707l-.89.576c-.236.15-.408.384-.484.656-.076.272-.05.562.072.816l1.781 3.698a1.104 1.104 0 01-.2 1.274c-.97 1-1.831 2.104-2.57 3.29a3.365 3.365 0 00-.19.297.582.582 0 01-.066.098 1.08 1.08 0 01-1.156.408l-4.652-1.157a1.103 1.103 0 00-.85.143c-.207.132-.365.33-.45.562L2.066 20.92c-.095.265-.089.558.018.819.107.261.307.472.56.59l4.767 2.247a1.1 1.1 0 01.627 1.057 20.329 20.329 0 00.335 4.644 1.17 1.17 0 01-.427 1.132l-4.024 3.119a1.114 1.114 0 00-.259 1.46l2.554 4.087c.149.24.38.415.648.492.269.078.556.051.806-.074l3.444-1.717a1.092 1.092 0 011.344.275 19.515 19.515 0 004.482 4.03 1.127 1.127 0 01.484 1.223l-1.024 4.266c-.066.276-.03.568.102.819.132.25.35.443.612.54l4.46 1.646c.258.096.54.09.794-.018a1.1 1.1 0 00.572-.559l.093-.202 1.843-4.03a1.12 1.12 0 01.448-.502c.196-.117.422-.17.65-.152a18.978 18.978 0 005.24-.359 1.08 1.08 0 011.101.413l2.605 3.484a1.116 1.116 0 001.503.277l4.004-2.585a1.24 1.24 0 00.287-.268 1.157 1.157 0 00.116-1.182l-1.425-2.944a1.158 1.158 0 01.074-1.12 1.2 1.2 0 01.207-.236 19.61 19.61 0 004.78-6.066c.098-.192.248-.351.433-.458a1.074 1.074 0 01.794-.111l3.766.94c.264.066.543.03.783-.1s.424-.345.518-.605l.038-.105 1.59-4.435c.095-.27.088-.566-.021-.83a1.137 1.137 0 00-.568-.598zm-34.746-4.572c.134-.807.342-1.6.62-2.367.557-1.528 2.119-3.515 3.469-4.39.144-.094.29-.184.435-.272 8.91-5.31 18.938 3.044 15.413 13.07-.462 1.31-1.618 2.916-2.811 3.962a6.852 6.852 0 01-.819.62 11.876 11.876 0 01-3.749 1.593c-7.13 1.612-13.79-4.481-12.558-12.216z" fill="url(#paint0_linear)"/></g><defs><linearGradient id="paint0_linear" x1="27.228" y1="2" x2="27.228" y2="51.642" gradientUnits="userSpaceOnUse"><stop stop-color="#0A3D76"/><stop offset="1" stop-color="#0C53A3"/></linearGradient><filter id="filter0_di" x="0" y="0" width="58.456" height="57.642" filterUnits="userSpaceOnUse" color-interpolation-filters="sRGB"><feFlood flood-opacity="0" result="BackgroundImageFix"/><feColorMatrix in="SourceAlpha" values="0 0 0 0 0 0 0 0 0 0 0 0 0 0 0 0 0 0 127 0"/><feOffset dx="2" dy="2"/><feGaussianBlur stdDeviation="2"/><feColorMatrix values="0 0 0 0 0 0 0 0 0 0 0 0 0 0 0 0 0 0 0.15 0"/><feBlend in2="BackgroundImageFix" result="effect1_dropShadow"/><feBlend in="SourceGraphic" in2="effect1_dropShadow" result="shape"/><feColorMatrix in="SourceAlpha" values="0 0 0 0 0 0 0 0 0 0 0 0 0 0 0 0 0 0 127 0" result="hardAlpha"/><feOffset dx="-2" dy="-2"/><feGaussianBlur stdDeviation="2"/><feComposite in2="hardAlpha" operator="arithmetic" k2="-1" k3="1"/><feColorMatrix values="0 0 0 0 0 0 0 0 0 0 0 0 0 0 0 0 0 0 0.2 0"/><feBlend in2="shape" result="effect2_innerShadow"/></filter></defs></svg>