<svg width="75" height="75" fill="none" xmlns="http://www.w3.org/2000/svg"><path d="M0 36.186l73.674 28.055-53.506 7.318L0 36.186z" fill="url(#paint0_linear)"/><path d="M19.346 65.075a.96.96 0 01.695-.941c6.248-1.752 32.328-7.364 54.287-.026a.99.99 0 01.673.94v6.029c0 .419-.25.792-.648.924-11.54 3.844-40.624 3.837-54.306-.021a.97.97 0 01-.701-.947v-5.958z" fill="#DD6404"/><g filter="url(#filter0_i)"><path d="M46.224 2.768c.309-.902 1.585-.902 1.893 0l3.29 9.628L56.07 26.03l4.237 12.396 6.356 18.594 3.007 8.193c-16.62 3.939-30.152 3.354-44.997 0l3.007-8.193 6.356-18.594 4.237-12.396 4.661-13.635 3.291-9.628z" fill="#FF7405"/></g><path d="M60.308 38.426h-26.27L27.681 57.02h38.982l-6.356-18.594zm-8.898-26.03h-8.474l-4.66 13.635h17.796L51.41 12.396z" fill="#F1EAE4"/><path d="M19.346 65.624c0-.613.552-1.08 1.158-.99 20.142 3.035 32.186 3.221 53.335.003a1.008 1.008 0 011.162.989v5.572c0 .42-.25.792-.648.924-11.54 3.844-40.624 3.837-54.306-.021a.97.97 0 01-.701-.947v-5.53z" fill="#EF6A00"/><defs><linearGradient id="paint0_linear" x1="40.816" y1="63.876" x2="16.224" y2="47.11" gradientUnits="userSpaceOnUse"><stop stop-opacity=".4"/><stop offset="1" stop-color="#B4D1FA" stop-opacity="0"/></linearGradient><filter id="filter0_i" x="20.672" y="2.092" width="48.998" height="65.862" filterUnits="userSpaceOnUse" color-interpolation-filters="sRGB"><feFlood flood-opacity="0" result="BackgroundImageFix"/><feBlend in="SourceGraphic" in2="BackgroundImageFix" result="shape"/><feColorMatrix in="SourceAlpha" values="0 0 0 0 0 0 0 0 0 0 0 0 0 0 0 0 0 0 127 0" result="hardAlpha"/><feOffset dx="-4"/><feGaussianBlur stdDeviation="4"/><feComposite in2="hardAlpha" operator="arithmetic" k2="-1" k3="1"/><feColorMatrix values="0 0 0 0 0 0 0 0 0 0 0 0 0 0 0 0 0 0 0.3 0"/><feBlend in2="shape" result="effect1_innerShadow"/></filter></defs></svg>