<svg width="708" height="426" fill="none" xmlns="http://www.w3.org/2000/svg"><g filter="url(#filter0_d)"><path d="M356.536 420L702 293.197 346.068 156 2 286.268 356.536 420z" fill="#B4D1FA"/></g><path d="M507 274.461c0 28.443-65.814 51.5-147 51.5s-147-23.057-147-51.5c0-28.442 65.814-51.5 147-51.5s147 23.058 147 51.5z" fill="#022C4B"/><path d="M360 222.961c-81.186 0-147 23.26-147 51.953 0 3.765 2.227 11.294 4.455 12.047 11.878-41.412 83.978-52.706 142.545-52.706 67.48 0 138.091 20.33 144.03 51.2 2.97-4.517 2.97-7.529 2.97-10.541 0-28.693-65.814-51.953-147-51.953z" fill="#184D76"/><mask id="a" maskUnits="userSpaceOnUse" x="213" y="0" width="303" height="326"><path d="M360.076 325.761c81.027 0 146.712-22.885 146.712-51.115L516 0H213.365v274.646c0 28.23 65.685 51.115 146.711 51.115z" fill="#C4C4C4"/></mask><g mask="url(#a)"><path d="M360.323 356.275l-103.614-39.104-.035-125.297 103.649 39.104v125.297z" fill="#053866"/><path d="M465.019 316.552L360.326 277.42l-.474-125.314 1.787-1.482 103.373 40.345.007 125.583z" fill="#083556"/><path d="M360.326 356.275l104.65-39.755.036-125.681-104.65 39.432-.036 126.004z" fill="#054270"/><path d="M256.709 316.984l105.285-42.428-1.613-122.894-1.247-1.038-102.46 40.384.035 125.976z" fill="#063D66"/><g filter="url(#filter1_f)"><ellipse cx="360" cy="243.007" rx="71.654" ry="49.953" fill="url(#paint0_radial)"/></g><path d="M360.329 356.277l-103.614-39.106-.035-125.297 103.649 39.104v125.299z" fill="#053866"/><path d="M282.594 233.233l-25.877-9.85-.035-31.509 25.912 10.063v31.296z" fill="#053866"/><path d="M263.566 221.853a17.05 17.05 0 01-6.82-1.237l-.07-3.324c5.265 2.016 10.318 1.627 14.204-1.06 4.629-3.182 7.562-8.45 7.562-16.087l3.11 1.238c0 8.697-2.58 13.576-8.057 17.359a18.312 18.312 0 01-9.929 3.111z" fill="#FF8098"/><path d="M308.5 242.538l-25.912-9.9v-31.459l25.912 9.9v31.459z" fill="#0E2951"/><path d="M334.412 252.878l-25.912-9.901v-31.458l25.912 9.864v31.495z" fill="#FF8098"/><path d="M360.326 262.18l-25.912-9.779v-31.576l26.088 9.703-.176 31.652zm-77.738 2.072l-25.912-9.865v-31.494l25.912 9.9v31.459z" fill="#911A31"/><path d="M308.502 273.557l-25.912-9.652v-30.672l25.912 9.652v30.672z" fill="#C43B55"/><path d="M334.412 283.897l-25.912-9.901v-31.458l25.912 9.9v31.459z" fill="#053866"/><path d="M360.326 293.202l-25.912-9.546.034-31.248 25.878 9.746v31.048z" fill="#132F7C"/><path d="M308.502 305.61l-25.912-9.864V263.91l25.912 9.639v32.061z" fill="#FF8098"/><path d="M334.418 314.916l-25.912-9.901v-31.458l25.912 9.9v31.459z" fill="#0E2951"/><path d="M360.328 325.256l-25.912-9.791v-31.568l25.912 9.791v31.568z" fill="#053866"/><path d="M282.588 326.902l-25.912-9.75v-31.609l25.912 9.728v31.631z" fill="#C43B55"/><path d="M308.5 336.629l-25.912-9.873v-31.485l25.912 9.872v31.486z" fill="#053866"/><path d="M334.412 346.385l-25.912-9.9v-31.459l25.912 9.901v31.458z" fill="#FF8098"/><path d="M360.326 356.275l-25.912-9.736v-31.623l25.912 10.163v31.196z" fill="#911A31"/><path d="M262.034 215.654a13.165 13.165 0 01-5.358-1.054v-3.813c3.765 1.453 8.435.945 10.752-.581 3.873-2.578 5.755-6.572 5.755-12.128l3.186 1.271c0 6.827-2.425 11.003-6.769 14.017a13.556 13.556 0 01-7.566 2.288z" fill="#D6516B"/><path d="M260.181 208.416a8.405 8.405 0 01-3.505-.689v-4.021c2.264.919 5.769.69 7.705-1.34 2.008-2.106 2.556-3.829 2.556-7.39l3.213 1.34c0 4.901-1.606 8.233-4.637 10.415a9.22 9.22 0 01-5.332 1.685z" fill="#C43B55"/><path d="M258.326 201.167a2.906 2.906 0 01-1.65-.339v-3.96c.55.226 2.338.377 3.025 0 1.204-.679 1.204-1.999.619-3.96l3.61 1.32c0 2.753-.894 4.676-2.579 5.958a5.287 5.287 0 01-3.025.981z" fill="#A62E41"/><path d="M359.926 320.086l-22.403-8.265v-53.773l22.803 8.122v4.363l-18.941-7.094v46.519l18.22 7.494.321 2.634z" fill="#C43B55"/><path d="M360.326 321.12l-22.803-9.03v-27.306l3.862 1.392v23.349l18.941 7.273v4.322z" fill="#F985A0"/><path d="M359.902 311.757l-16.16-5.096v-39.308l16.584 5.876v4.434l-12.723-4.794v31.976l12.723 4.434-.424 2.478z" fill="#C43B55"/><path d="M359.903 303.064L351 300.666v-21.939l9.328 3.235v4.326l-5.604-2.18v14.56l5.604 2.426-.425 1.97z" fill="#C43B55"/><path d="M360.328 304.576L351 300.948v-11.196l3.724 1.35v7.284l5.604 1.815v4.375z" fill="#F985A0"/><path d="M360.326 312.848l-16.584-6.076v-19.679l3.861 1.433v15.682l12.723 4.32v4.32z" fill="#F985A0"/><path d="M276.369 324.581l-19.693-7.429v-23.95l19.693 7.428v23.951z" fill="#053866"/><path d="M269.114 321.836l-12.438-4.684v-15.678l12.438 4.946v15.416z" fill="#FF8098"/><path d="M334.412 232.404l-9.478 16.337-16.434-17.783 9.478-16.338 16.434 17.784z" fill="#C43B55"/><path d="M328.195 232.029l-4.956 8.441-8.518-9.172 4.92-8.405 8.554 9.136z" fill="#911A31"/><path d="M334.412 346.312l-25.912-9.931v-25.224l25.912 9.895v25.26z" fill="#C43B55"/><path d="M334.412 346.103L308.5 335.911v-18.759l25.912 10.155v18.796z" fill="#911A31"/><path d="M334.412 346.059l-25.912-10.14v-11.573l25.912 10.103v11.61z" fill="#053866"/><path d="M282.588 240.47l25.912 9.661-25.912 7.561 25.912 9.661-25.912-26.883z" fill="#911A31"/><path d="M259.785 255.98l-3.109-1.27v-31.817l3.109 1.269v31.818zm5.181 1.034l-3.109-1.229v-30.824l3.109 1.264v30.789zm16.584 6.203l-4.146-1.23v-30.823l4.146 1.23v30.823zm-6.218-2.068l-3.109-1.23v-30.823l3.109 1.23v30.823zm-5.18-2.068l-3.109-1.23v-30.823l3.109 1.23v30.823z" fill="#FF8098"/><path d="M282.588 295.271l-25.912-9.901v-31.458l25.912 9.864v31.495z" fill="#0E2951"/><path d="M282.588 295.27l-13.475-4.945v-15.734l13.475 4.946v15.733zm-13.474-20.679l-12.438-4.954v-15.725l12.438 4.692v15.987z" fill="#911A31"/><path fill-rule="evenodd" clip-rule="evenodd" d="M285.699 300.441l18.786 7.386-.996 2.727-14.979-5.889v18.073l14.071 5.532v-13.565l-10.892-4.289v9.661l7.714 3.043v-5.825l-4.57-1.802v1.992l3.33 1.311-.997 2.726-5.145-2.025v-8.232l10.193 4.019v12.066l-13.337-5.263V306.19l16.516 6.503v19.801l-19.694-7.743v-24.31z" fill="#F985A0"/><path fill-rule="evenodd" clip-rule="evenodd" d="M341.217 320.086l17.036 29.898-3.694 2.155-17.036-29.899 3.694-2.154z" fill="#0E2951"/><path d="M317.831 289.067l-4.145-1.731v-5.507l4.145 1.731v5.507zm5.18 9.305l-4.146-1.721v-5.516l4.146 1.721v5.516zm6.222 8.273l-4.145-1.484v-4.72l4.145 1.483v4.721z" fill="#911A31"/><path d="M360.503 230.527l104.509-39.687v125.824l-104.686 39.611.177-125.748z" fill="#053866"/><path d="M439.1 263.804l25.912-9.892v31.467l-25.912 9.892v-31.467z" fill="#911A31"/><path d="M412.15 273.904l26.949-9.652v30.707l-26.949 9.617v-30.672z" fill="#C43B55"/><path d="M386.238 283.457l25.913-9.9v31.458l-25.913 9.901v-31.459z" fill="#053866"/><path d="M360.326 293.182l25.912-9.313v31.378l-25.912 10.009v-32.074z" fill="#132F7C"/><path d="M412.15 242.099l26.949-9.9v32.199l-26.949 9.591v-31.89z" fill="#FF8098"/><path d="M386.238 252.439l25.913-9.901v31.459l-25.913 9.9v-31.458z" fill="#0E2951"/><path d="M360.326 261.853l25.912-10.009v31.349l-25.912 10.009v-31.349z" fill="#053866"/><path d="M412.154 304.563l26.99-9.608-.18 31.489-26.81 10.217v-32.098z" fill="#0E2951"/><path d="M386.238 315.054l25.913-10.477v32.088l-25.913 9.774v-31.385z" fill="#FF8098"/><path d="M360.326 325.08l25.912-10.026v31.404l-25.912 9.815V325.08z" fill="#911A31"/><path d="M439.1 200.768l25.912-9.928v31.467l-25.912 9.892v-31.431z" fill="#C43B55"/><path d="M412.148 211.08l26.949-9.9v31.459l-26.949 9.9V211.08z" fill="#053866"/><path d="M386.234 221.172l25.913-9.653v30.672l-25.913 9.653v-30.672z" fill="#FF8098"/><path d="M360.468 230.512l25.77-9.687v31.35l-25.912 10.009.142-31.672z" fill="#911A31"/><path d="M360.322 321.092v-4.256l18.983-7.65v-45.72l-18.671 6.835-1.347-3.47 23.839-8.783v53.688l-22.804 9.356z" fill="#C43B55"/><path d="M383.129 285.108l-3.82 1.268v-22.88l-18.983 7.043v-4.343l22.803-8.148v27.06z" fill="#F985A0"/><path d="M360.326 312.849v-4.348l12.871-5.23v-30.748l-12.871 4.983v-4.347l16.584-4.771v37.463l-16.584 6.998z" fill="#C43B55"/><path d="M360.322 304.607v-4.409l5.577-1.91v-14.307l-5.289 1.935-1.323-3.387 10.365-3.801v22.082l-9.33 3.797z" fill="#C43B55"/><path d="M369.655 289.919l-3.762 1.216v-7.124l-5.567 2.268v-4.323l9.329-3.228v11.191z" fill="#F985A0"/><path d="M376.91 287.285l-3.713 1.241v-15.849l-12.871 4.975v-4.424l16.584-5.874v19.931z" fill="#F985A0"/><path d="M451.535 195.813l13.475-4.973v15.742l-13.475 4.937v-15.706z" fill="#FF8098"/><path d="M386.234 334.647l9.485-22.832 16.428 5.085-9.485 22.832-16.428-5.085z" fill="#C43B55"/><path d="M392.453 329.856l4.916-11.837 8.559 2.638-4.953 11.837-8.522-2.638z" fill="#911A31"/><path d="M386.234 221.158l25.913-9.639v24.517l-25.913 9.604v-24.482z" fill="#C43B55"/><path d="M386.234 221.347l25.913-9.828v18.125l-25.913 9.792v-18.089z" fill="#911A31"/><path d="M386.234 221.177l25.913-9.658v11.057l-25.913 9.623v-11.022z" fill="#053866"/><path d="M386.234 221.383l25.913-9.864v5.647l-25.913 9.863v-5.646z" fill="#0E2951"/><path d="M439.097 287.678l-26.949 9.662 26.949-26.884-26.949 9.662" fill="#911A31"/><path d="M465.009 285.754L460.863 287v-31.807l4.146-1.281v31.842zm-5.184 1.38l-4.091 1.543-.054-31.467 4.145-1.23v31.154zm-15.545 5.873l-4.116 1.664-.029-31.257 4.068-1.23.077 30.823zm5.182-2.068l-4.146 1.934v-31.527l4.146-1.23v30.823zm5.181-2.068l-4.145 2.66v-32.253l4.145-1.23v30.823z" fill="#FF8098"/><path d="M439.1 232.794l25.912-9.901v31.459l-25.912 9.9v-31.458z" fill="#0E2951"/><path d="M439.1 294.832l25.912-9.9v31.458l-25.912 9.901v-31.459z" fill="#053866"/><path d="M439.1 232.762l12.438-4.699v14.947l-12.438 4.699v-14.947z" fill="#911A31"/><path d="M442.259 325.245l-3.294 1.199c0-21.193 12.027-34.218 26.047-39.445v3.129c-12.65 4.73-22.753 20.787-22.753 35.117z" fill="#FF8098"/><path d="M449.446 322.547l-3.893 1.499c0-15.132 8.85-26.889 19.457-30.843v3.774c-9.267 3.487-15.564 14.463-15.564 25.57z" fill="#D6516B"/><path d="M455.735 320.149l-2.995 1.199c0-9.187 5.197-18.327 12.269-20.982v3.568c-5.509 2.096-9.274 9.613-9.274 16.215z" fill="#C43B55"/><path d="M461.959 317.809l-2.931 1.141c-.63-4.976 2.171-9.932 5.99-11.39l-.011 4.029c-2.382.889-3.048 3.199-3.048 6.22z" fill="#A62E41"/><path fill-rule="evenodd" clip-rule="evenodd" d="M435.986 205.315v24.863l-18.737 7.19-1.043-2.789 16.836-6.46v-18.485L418.2 215.33v13.878l11.514-4.395v-9.882l-8.186 3.124v5.922l4.822-1.849v-2l-2.444.939-1.044-2.788 6.432-2.473v8.383l-10.71 4.105v-12.303l14.074-5.371v16.257l-17.402 6.642V213.27l20.73-7.955z" fill="#F985A0"/><path fill-rule="evenodd" clip-rule="evenodd" d="M362.395 255.814l17.911-30.853 3.855 2.234-17.912 30.853-3.854-2.234z" fill="#0E2951"/><path fill-rule="evenodd" clip-rule="evenodd" d="M380.068 251.844l-17.673-17.452 3.056-3.227 17.673 17.452-3.056 3.227z" fill="#0E2951"/><path d="M402.818 265.983l4.146-1.731v5.507l-4.146 1.731v-5.507zm-5.179-4.392l4.145-1.475v4.728l-4.145 1.476v-4.729zm-6.223-5.161l4.145-1.484v4.721l-4.145 1.483v-4.72z" fill="#911A31"/><path d="M445.316 198.552l19.694-7.712v24.414l-19.694 7.639v-24.341z" fill="#053866"/><path d="M451.535 243.357l13.475-4.955v16.105l-13.468 4.959-.007-16.109z" fill="#911A31"/><path opacity=".3" d="M257.1 191.232l103.29 39.109V356.41l-103.751-39.109.461-126.069z" fill="#000"/><path d="M503.364 152.547l-38.942 38.294-104.033-39.177 38.844-38.371 104.131 39.254z" fill="#084C80"/><path d="M360.503 230.527l-38.987 38.895-104.225-39.096 40.01-39.003 103.202 39.204z" fill="#094573"/><path d="M360.388 151.663l-38.27-38.649-104.095 39.399 38.87 39.183 103.495-39.933zm142.974 77.853l-38.873-38.677-104.163 39.725 39.088 38.857 103.948-39.905z" fill="#084C80"/></g><defs><filter id="filter0_d" x="0" y="154" width="708" height="272" filterUnits="userSpaceOnUse" color-interpolation-filters="sRGB"><feFlood flood-opacity="0" result="BackgroundImageFix"/><feColorMatrix in="SourceAlpha" values="0 0 0 0 0 0 0 0 0 0 0 0 0 0 0 0 0 0 127 0"/><feOffset dx="2" dy="2"/><feGaussianBlur stdDeviation="2"/><feColorMatrix values="0 0 0 0 0 0 0 0 0 0 0 0 0 0 0 0 0 0 0.1 0"/><feBlend in2="BackgroundImageFix" result="effect1_dropShadow"/><feBlend in="SourceGraphic" in2="effect1_dropShadow" result="shape"/></filter><filter id="filter1_f" x="208.346" y="113.054" width="303.309" height="259.905" filterUnits="userSpaceOnUse" color-interpolation-filters="sRGB"><feFlood flood-opacity="0" result="BackgroundImageFix"/><feBlend in="SourceGraphic" in2="BackgroundImageFix" result="shape"/><feGaussianBlur stdDeviation="40" result="effect1_foregroundBlur"/></filter><radialGradient id="paint0_radial" cx="0" cy="0" r="1" gradientUnits="userSpaceOnUse" gradientTransform="matrix(0 39.6176 -56.8294 0 359.162 225.82)"><stop stop-color="#0095FF"/><stop offset="1" stop-color="#BCE3FF"/></radialGradient></defs></svg>