<svg width="90" height="87" fill="none" xmlns="http://www.w3.org/2000/svg"><g filter="url(#filter0_di)"><path d="M82.223 45.102l-7.36-3.42a1.794 1.794 0 01-1.025-1.57c-.023-.86-.08-1.727-.175-2.596a30.088 30.088 0 00-.876-4.701 1.773 1.773 0 01.645-1.887l6.745-5.133a1.743 1.743 0 00.415-2.333l-4.147-6.544a1.722 1.722 0 00-2.205-.623l-7.013 3.433a1.73 1.73 0 01-2.049-.372 31.384 31.384 0 00-7.894-5.943 1.785 1.785 0 01-.883-1.985l1.138-4.609a1.798 1.798 0 00-1.117-2.102l-7.24-2.605a1.733 1.733 0 00-2.19.904l-2.558 5.49-.62 1.34a30.982 30.982 0 00-4.382.164c-1.942.208-3.86.596-5.73 1.16a1.728 1.728 0 01-1.89-.605l-4.134-5.433a1.792 1.792 0 00-2.39-.426l-5.007 3.163-1.434.911a1.812 1.812 0 00-.663 2.332l2.87 5.855a1.722 1.722 0 01-.324 2.017 31.174 31.174 0 00-4.138 5.209 5.31 5.31 0 00-.305.469.919.919 0 01-.108.154 1.767 1.767 0 01-1.863.646l-7.493-1.83a1.8 1.8 0 00-2.095 1.116l-2.62 7.205a1.786 1.786 0 00.93 2.233l7.68 3.555a1.726 1.726 0 011.01 1.675 31.64 31.64 0 00.54 7.353 1.822 1.822 0 01-.687 1.791l-6.483 4.938a1.74 1.74 0 00-.417 2.313l4.114 6.469a1.821 1.821 0 002.342.662l5.548-2.718a1.786 1.786 0 012.164.436 31.257 31.257 0 007.22 6.38 1.776 1.776 0 01.78 1.936L25.2 75.73a1.83 1.83 0 001.151 2.152l7.185 2.605a1.76 1.76 0 002.199-.913l.15-.32 2.97-6.38a1.791 1.791 0 011.767-1.036 31.096 31.096 0 008.443-.568 1.766 1.766 0 011.773.653l4.195 5.517a1.821 1.821 0 002.422.439l6.45-4.093a1.98 1.98 0 00.462-.425 1.814 1.814 0 00.186-1.871l-2.294-4.66a1.807 1.807 0 01.12-1.776 1.9 1.9 0 01.333-.372 31.135 31.135 0 007.7-9.604 1.752 1.752 0 011.976-.9l6.065 1.488a1.786 1.786 0 002.097-1.116l.062-.166 2.56-7.022a1.812 1.812 0 00-.948-2.26zm-55.972-7.24a20.838 20.838 0 011-3.747c.896-2.419 3.412-5.565 5.587-6.949.233-.15.468-.292.7-.431 14.353-8.406 30.508 4.818 24.83 20.69-.745 2.075-2.607 4.618-4.53 6.274-.413.36-.854.687-1.318.98a19.307 19.307 0 01-6.039 2.524c-11.486 2.552-22.213-7.095-20.23-19.34z" fill="url(#paint0_linear)"/></g><defs><linearGradient id="paint0_linear" x1="42.639" y1="2" x2="42.639" y2="80.594" gradientUnits="userSpaceOnUse"><stop stop-color="#0A3D76"/><stop offset="1" stop-color="#0C53A3"/></linearGradient><filter id="filter0_di" x="0" y="0" width="89.278" height="86.594" filterUnits="userSpaceOnUse" color-interpolation-filters="sRGB"><feFlood flood-opacity="0" result="BackgroundImageFix"/><feColorMatrix in="SourceAlpha" values="0 0 0 0 0 0 0 0 0 0 0 0 0 0 0 0 0 0 127 0"/><feOffset dx="2" dy="2"/><feGaussianBlur stdDeviation="2"/><feColorMatrix values="0 0 0 0 0 0 0 0 0 0 0 0 0 0 0 0 0 0 0.15 0"/><feBlend in2="BackgroundImageFix" result="effect1_dropShadow"/><feBlend in="SourceGraphic" in2="effect1_dropShadow" result="shape"/><feColorMatrix in="SourceAlpha" values="0 0 0 0 0 0 0 0 0 0 0 0 0 0 0 0 0 0 127 0" result="hardAlpha"/><feOffset dx="-2" dy="-2"/><feGaussianBlur stdDeviation="2"/><feComposite in2="hardAlpha" operator="arithmetic" k2="-1" k3="1"/><feColorMatrix values="0 0 0 0 0 0 0 0 0 0 0 0 0 0 0 0 0 0 0.2 0"/><feBlend in2="shape" result="effect2_innerShadow"/></filter></defs></svg>