<svg width="24" height="24" fill="none" xmlns="http://www.w3.org/2000/svg"><g filter="url(#filter0_i)"><path d="M0 4a4 4 0 014-4h16a4 4 0 014 4v16a4 4 0 01-4 4H4a4 4 0 01-4-4V4z" fill="#A62E41"/></g><path fill-rule="evenodd" clip-rule="evenodd" d="M19.448 8.742s-.149-1.064-.604-1.532c-.578-.615-1.226-.618-1.523-.654-2.127-.156-5.318-.156-5.318-.156h-.006s-3.191 0-5.318.156c-.297.036-.945.039-1.523.654-.456.468-.604 1.532-.604 1.532S4.4 9.992 4.4 11.24v1.171c0 1.25.152 2.499.152 2.499s.148 1.064.604 1.532c.578.615 1.338.596 1.676.66 1.216.119 5.168.155 5.168.155s3.194-.005 5.32-.16c.298-.037.946-.04 1.524-.655.455-.468.604-1.532.604-1.532s.152-1.249.152-2.498V11.24c0-1.249-.152-2.498-.152-2.498zM10.43 13.83V9.494l4.107 2.176-4.107 2.16z" fill="#fff"/><defs><filter id="filter0_i" x="-4" y="-4" width="28" height="28" filterUnits="userSpaceOnUse" color-interpolation-filters="sRGB"><feFlood flood-opacity="0" result="BackgroundImageFix"/><feBlend in="SourceGraphic" in2="BackgroundImageFix" result="shape"/><feColorMatrix in="SourceAlpha" values="0 0 0 0 0 0 0 0 0 0 0 0 0 0 0 0 0 0 127 0" result="hardAlpha"/><feOffset dx="-4" dy="-4"/><feGaussianBlur stdDeviation="4"/><feComposite in2="hardAlpha" operator="arithmetic" k2="-1" k3="1"/><feColorMatrix values="0 0 0 0 0 0 0 0 0 0 0 0 0 0 0 0 0 0 0.15 0"/><feBlend in2="shape" result="effect1_innerShadow"/></filter></defs></svg>