<svg width="24" height="24" fill="none" xmlns="http://www.w3.org/2000/svg"><g filter="url(#filter0_i)"><rect width="24" height="24" rx="5" fill="#A62E41"/><path fill-rule="evenodd" clip-rule="evenodd" d="M14.414 5.203H9.48c-.409 0-.74.315-.74.703v12.188c0 .388.331.703.74.703h4.934c.41 0 .74-.315.74-.703V5.906c0-.388-.33-.703-.74-.703zM9.48 4.5C8.663 4.5 8 5.13 8 5.906v12.188c0 .776.663 1.406 1.48 1.406h4.934c.818 0 1.48-.63 1.48-1.406V5.906c0-.776-.662-1.406-1.48-1.406H9.48z" fill="#fff"/><path d="M9.973 5.177c0-.28.221-.677.494-.677h2.96c.273 0 .494.396.494.677a.5.5 0 01-.494.507h-2.96a.5.5 0 01-.494-.507zm1.48 12.201c0-.245.22-.444.493-.444s.494.199.494.444-.221.444-.494.444c-.272 0-.493-.199-.493-.444z" fill="#fff"/></g><defs><filter id="filter0_i" x="-4" y="-4" width="28" height="28" filterUnits="userSpaceOnUse" color-interpolation-filters="sRGB"><feFlood flood-opacity="0" result="BackgroundImageFix"/><feBlend in="SourceGraphic" in2="BackgroundImageFix" result="shape"/><feColorMatrix in="SourceAlpha" values="0 0 0 0 0 0 0 0 0 0 0 0 0 0 0 0 0 0 127 0" result="hardAlpha"/><feOffset dx="-4" dy="-4"/><feGaussianBlur stdDeviation="4"/><feComposite in2="hardAlpha" operator="arithmetic" k2="-1" k3="1"/><feColorMatrix values="0 0 0 0 0 0 0 0 0 0 0 0 0 0 0 0 0 0 0.15 0"/><feBlend in2="shape" result="effect1_innerShadow"/></filter></defs></svg>