<svg width="24" height="24" fill="none" xmlns="http://www.w3.org/2000/svg"><g clip-path="url(#clip0)"><path d="M20.21 9.126v-.923c0-2.208-.781-4.26-2.198-5.783C16.56.857 14.563 0 12.385 0h-.761C9.446 0 7.449.857 5.997 2.42 4.58 3.943 3.799 5.995 3.799 8.203v.923a3.311 3.311 0 00-3.086 3.298v1.442a3.307 3.307 0 003.302 3.302h1.86a.607.607 0 00.606-.605V9.721a.607.607 0 00-.605-.605h-.867v-.913c0-3.988 2.843-6.993 6.61-6.993h.761c3.771 0 6.61 3.005 6.61 6.993v.913h-.867a.607.607 0 00-.605.605v6.837c0 .333.272.605.605.605h.847c-.247 3.156-2.42 3.887-3.428 4.054a2.128 2.128 0 00-2.022-1.467h-1.513c-1.17 0-2.123.953-2.123 2.122A2.13 2.13 0 0012.007 24h1.518c.978 0 1.8-.666 2.047-1.563a5.723 5.723 0 002.052-.7c1.094-.641 2.39-1.947 2.561-4.579a3.306 3.306 0 003.101-3.298v-1.44a3.294 3.294 0 00-3.076-3.293zM5.281 15.953H4.026a2.094 2.094 0 01-2.093-2.092v-1.443c0-1.154.938-2.092 2.093-2.092H5.28v5.627zm8.244 6.837h-1.518a.912.912 0 110-1.825h1.518a.912.912 0 110 1.825zm8.556-8.93a2.094 2.094 0 01-2.093 2.093h-1.255v-5.627h1.255c1.155 0 2.093.938 2.093 2.092v1.443z" fill="#0A3D76"/></g><defs><clipPath id="clip0"><path fill="#fff" d="M0 0h24v24H0z"/></clipPath></defs></svg>