<svg width="16" height="11" fill="none" xmlns="http://www.w3.org/2000/svg"><path fill-rule="evenodd" clip-rule="evenodd" d="M14.143.786H1.57a.786.786 0 00-.785.785V9.43c0 .434.351.785.785.785h12.572a.786.786 0 00.786-.785V1.57a.786.786 0 00-.786-.785zM1.57 0C.704 0 0 .704 0 1.571V9.43C0 10.296.704 11 1.571 11h12.572c.868 0 1.571-.704 1.571-1.571V1.57c0-.866-.703-1.57-1.571-1.57H1.57z" fill="#A62E41"/><path fill-rule="evenodd" clip-rule="evenodd" d="M6.63 5.868L.737 1.153l.49-.614 5.894 4.715a1.18 1.18 0 001.473 0L14.487.539l.49.614-5.892 4.715a1.964 1.964 0 01-2.455 0z" fill="#A62E41"/></svg>