<svg width="24" height="24" fill="none" xmlns="http://www.w3.org/2000/svg"><rect width="24" height="24" rx="6" fill="#57BB63"/><path fill-rule="evenodd" clip-rule="evenodd" d="M12.164 20.536a8.851 8.851 0 01-4.272-1.09L3 21l1.595-4.704a8.679 8.679 0 01-1.268-4.528C3.327 6.926 7.283 3 12.164 3 17.044 3 21 6.926 21 11.768c0 4.843-3.956 8.768-8.836 8.768zm0-16.14c-4.097 0-7.43 3.307-7.43 7.372 0 1.613.526 3.107 1.415 4.322l-.928 2.738 2.855-.907a7.425 7.425 0 004.088 1.219c4.096 0 7.429-3.307 7.429-7.372 0-4.064-3.333-7.372-7.43-7.372zm4.462 9.392c-.055-.09-.2-.144-.415-.251-.217-.108-1.282-.628-1.48-.7-.2-.07-.344-.107-.488.108-.144.215-.56.7-.686.843-.127.143-.253.161-.47.054-.216-.108-.914-.335-1.741-1.067-.644-.57-1.079-1.273-1.205-1.488-.127-.215-.014-.331.095-.438.097-.097.216-.251.325-.377.108-.125.144-.215.216-.358.073-.144.036-.27-.018-.377-.054-.107-.487-1.165-.668-1.595-.18-.43-.36-.359-.487-.359-.126 0-.27-.018-.415-.018a.8.8 0 00-.578.269c-.198.215-.758.735-.758 1.793 0 1.057.776 2.079.885 2.222.108.143 1.498 2.384 3.7 3.245 2.202.86 2.202.573 2.6.537.396-.035 1.28-.52 1.461-1.021.18-.502.18-.933.127-1.022z" fill="#fff"/></svg>