<svg width="24" height="24" viewBox="0 0 28 28" fill="none" xmlns="http://www.w3.org/2000/svg"><g filter="url(#filter0_i)"><path d="M0 4.667A4.667 4.667 0 014.667 0h18.666A4.667 4.667 0 0128 4.667v18.666A4.667 4.667 0 0123.333 28H4.667A4.667 4.667 0 010 23.333V4.667z" fill="#A62E41"/></g><path d="M18.325 14c-.592 0-1.774 1.182-4.138 1.182-2.365 0-3.547-1.182-4.138-1.182-.65 0-1.182.532-1.182 1.182 0 .591.354.887.59 1.005.71.414 2.956 1.36 2.956 1.36l-2.541 3.192s-.473.532-.473.945c0 .65.532 1.183 1.182 1.183.591 0 .887-.414.887-.414l2.719-3.133 2.66 3.133s.295.414.886.414c.65 0 1.183-.532 1.183-1.183 0-.354-.473-.945-.473-.945l-2.483-3.192s2.246-.946 2.956-1.36c.236-.177.59-.414.59-1.005 0-.65-.531-1.182-1.181-1.182zm-4.138-8.867a4.112 4.112 0 00-4.138 4.138 4.112 4.112 0 004.138 4.138 4.112 4.112 0 004.137-4.138 4.112 4.112 0 00-4.137-4.138zm0 6.207c-1.123 0-2.07-.946-2.07-2.069s.946-2.069 2.07-2.069c1.123 0 2.069.946 2.069 2.07 0 1.122-.946 2.068-2.07 2.068z" fill="#fff"/><defs><filter id="filter0_i" x="-4" y="-4" width="32" height="32" filterUnits="userSpaceOnUse" color-interpolation-filters="sRGB"><feFlood flood-opacity="0" result="BackgroundImageFix"/><feBlend in="SourceGraphic" in2="BackgroundImageFix" result="shape"/><feColorMatrix in="SourceAlpha" values="0 0 0 0 0 0 0 0 0 0 0 0 0 0 0 0 0 0 127 0" result="hardAlpha"/><feOffset dx="-4" dy="-4"/><feGaussianBlur stdDeviation="4"/><feComposite in2="hardAlpha" operator="arithmetic" k2="-1" k3="1"/><feColorMatrix values="0 0 0 0 0 0 0 0 0 0 0 0 0 0 0 0 0 0 0.15 0"/><feBlend in2="shape" result="effect1_innerShadow"/></filter></defs></svg>