<svg width="24" height="24" fill="none" xmlns="http://www.w3.org/2000/svg"><g filter="url(#filter0_i)"><path d="M0 4a4 4 0 014-4h16a4 4 0 014 4v16a4 4 0 01-4 4H4a4 4 0 01-4-4V4z" fill="#A62E41"/></g><path fill-rule="evenodd" clip-rule="evenodd" d="M11.837 16.235h.908s.275-.03.415-.181c.129-.139.125-.4.125-.4s-.018-1.218.548-1.398c.557-.177 1.274 1.178 2.033 1.7.574.394 1.01.307 1.01.307l2.03-.028s1.062-.065.558-.9c-.04-.069-.293-.618-1.509-1.747-1.273-1.181-1.102-.99.431-3.033.934-1.245 1.307-2.005 1.19-2.33-.11-.31-.797-.228-.797-.228l-2.286.014s-.17-.023-.295.052c-.123.074-.202.245-.202.245s-.362.964-.844 1.783c-1.018 1.728-1.425 1.819-1.591 1.712-.387-.25-.29-1.005-.29-1.541 0-1.675.254-2.373-.495-2.554-.248-.06-.431-.1-1.067-.106-.815-.009-1.505.002-1.896.194-.26.127-.46.411-.339.427.151.02.494.093.675.34.234.318.226 1.034.226 1.034s.134 1.971-.314 2.216c-.308.168-.731-.175-1.638-1.743-.465-.803-.816-1.69-.816-1.69s-.068-.166-.189-.255c-.146-.108-.35-.142-.35-.142l-2.173.014s-.326.01-.445.151c-.107.126-.009.387-.009.387s1.7 3.978 3.626 5.983c1.765 1.838 3.77 1.717 3.77 1.717z" fill="#fff"/><defs><filter id="filter0_i" x="-4" y="-4" width="28" height="28" filterUnits="userSpaceOnUse" color-interpolation-filters="sRGB"><feFlood flood-opacity="0" result="BackgroundImageFix"/><feBlend in="SourceGraphic" in2="BackgroundImageFix" result="shape"/><feColorMatrix in="SourceAlpha" values="0 0 0 0 0 0 0 0 0 0 0 0 0 0 0 0 0 0 127 0" result="hardAlpha"/><feOffset dx="-4" dy="-4"/><feGaussianBlur stdDeviation="4"/><feComposite in2="hardAlpha" operator="arithmetic" k2="-1" k3="1"/><feColorMatrix values="0 0 0 0 0 0 0 0 0 0 0 0 0 0 0 0 0 0 0.15 0"/><feBlend in2="shape" result="effect1_innerShadow"/></filter></defs></svg>