<svg width="24" height="24" fill="none" xmlns="http://www.w3.org/2000/svg"><g filter="url(#filter0_i)"><path d="M0 4a4 4 0 014-4h16a4 4 0 014 4v16a4 4 0 01-4 4H4a4 4 0 01-4-4V4z" fill="#A62E41"/></g><path d="M4.646 9.447h3.152V19.6H4.646V9.447zM6.228 4.4a1.832 1.832 0 010 3.662A1.828 1.828 0 014.4 6.232c0-1.01.814-1.832 1.828-1.832zM9.78 9.447h3.017v1.391h.04c.423-.798 1.448-1.637 2.983-1.637 3.188 0 3.78 2.1 3.78 4.835V19.6h-3.147v-4.936c0-1.18-.017-2.693-1.635-2.693-1.64 0-1.886 1.285-1.886 2.605V19.6H9.784L9.779 9.447z" fill="#fff"/><defs><filter id="filter0_i" x="-4" y="-4" width="28" height="28" filterUnits="userSpaceOnUse" color-interpolation-filters="sRGB"><feFlood flood-opacity="0" result="BackgroundImageFix"/><feBlend in="SourceGraphic" in2="BackgroundImageFix" result="shape"/><feColorMatrix in="SourceAlpha" values="0 0 0 0 0 0 0 0 0 0 0 0 0 0 0 0 0 0 127 0" result="hardAlpha"/><feOffset dx="-4" dy="-4"/><feGaussianBlur stdDeviation="4"/><feComposite in2="hardAlpha" operator="arithmetic" k2="-1" k3="1"/><feColorMatrix values="0 0 0 0 0 0 0 0 0 0 0 0 0 0 0 0 0 0 0.15 0"/><feBlend in2="shape" result="effect1_innerShadow"/></filter></defs></svg>