<svg width="24" height="24" fill="none" xmlns="http://www.w3.org/2000/svg"><g filter="url(#filter0_i)"><path d="M0 4a4 4 0 014-4h16a4 4 0 014 4v16a4 4 0 01-4 4H4a4 4 0 01-4-4V4z" fill="#A62E41"/></g><path d="M12 8.047a3.93 3.93 0 00-3.923 3.922 3.91 3.91 0 003.922 3.923 3.93 3.93 0 003.923-3.922c0-2.146-1.777-3.923-3.923-3.923zm0 6.435a2.524 2.524 0 01-2.513-2.512 2.524 2.524 0 012.512-2.513 2.524 2.524 0 012.513 2.512A2.524 2.524 0 0112 14.482zm4.076-5.639a.889.889 0 100-1.777.889.889 0 000 1.777z" fill="#fff"/><path d="M18.374 5.656c-.797-.827-1.93-1.256-3.218-1.256H8.843C6.177 4.4 4.4 6.177 4.4 8.844v6.282c0 1.318.429 2.451 1.287 3.279.827.797 1.93 1.195 3.187 1.195h6.252c1.318 0 2.42-.429 3.217-1.195.828-.797 1.257-1.93 1.257-3.249V8.845c0-1.288-.43-2.39-1.226-3.188zm-.122 9.5c0 .95-.338 1.717-.89 2.238-.55.52-1.317.796-2.236.796H8.874c-.92 0-1.685-.276-2.237-.796-.552-.552-.827-1.318-.827-2.268V8.844c0-.92.275-1.686.827-2.238.521-.52 1.318-.796 2.237-.796h6.313c.92 0 1.685.276 2.237.827.521.552.828 1.318.828 2.207v6.313z" fill="#fff"/><defs><filter id="filter0_i" x="-4" y="-4" width="28" height="28" filterUnits="userSpaceOnUse" color-interpolation-filters="sRGB"><feFlood flood-opacity="0" result="BackgroundImageFix"/><feBlend in="SourceGraphic" in2="BackgroundImageFix" result="shape"/><feColorMatrix in="SourceAlpha" values="0 0 0 0 0 0 0 0 0 0 0 0 0 0 0 0 0 0 127 0" result="hardAlpha"/><feOffset dx="-4" dy="-4"/><feGaussianBlur stdDeviation="4"/><feComposite in2="hardAlpha" operator="arithmetic" k2="-1" k3="1"/><feColorMatrix values="0 0 0 0 0 0 0 0 0 0 0 0 0 0 0 0 0 0 0.15 0"/><feBlend in2="shape" result="effect1_innerShadow"/></filter></defs></svg>