<svg width="120" height="43" fill="none" xmlns="http://www.w3.org/2000/svg"><path d="M52.336 26.288c3.528 0 5.544-1.944 6.696-3.936l-2.928-1.416c-.672 1.32-2.112 2.328-3.768 2.328-2.904 0-5.016-2.232-5.016-5.256s2.112-5.256 5.016-5.256c1.656 0 3.096 1.032 3.768 2.328l2.928-1.44c-1.128-1.992-3.168-3.912-6.696-3.912-4.8 0-8.52 3.36-8.52 8.28s3.72 8.28 8.52 8.28zM78.412 26V9.992h-4.8l-3.888 9.672-3.888-9.672H61.06V26h3.408V14.792L68.98 26h1.488l4.512-11.208V26h3.432z" fill="url(#paint0_linear)"/><path d="M84.568 22.28v-4.104c.504-.768 1.632-1.344 2.616-1.344 1.776 0 2.952 1.368 2.952 3.384s-1.176 3.36-2.952 3.36c-.984 0-2.112-.552-2.616-1.296zm0 3.72v-1.488c.912 1.152 2.184 1.776 3.576 1.776 2.928 0 5.136-2.208 5.136-6.072 0-3.792-2.184-6.096-5.136-6.096-1.368 0-2.664.6-3.576 1.776V9.992H81.52V26h3.048zm16.39.288c3.84 0 6.144-2.784 6.144-6.096 0-3.288-2.304-6.072-6.144-6.072-3.816 0-6.12 2.784-6.12 6.072 0 3.312 2.304 6.096 6.12 6.096zm0-2.712c-1.896 0-2.952-1.56-2.952-3.384 0-1.8 1.056-3.36 2.952-3.36s2.976 1.56 2.976 3.36c0 1.824-1.08 3.384-2.976 3.384zM119.127 26l-4.152-5.952 3.888-5.64h-3.408l-2.376 3.576-2.4-3.576h-3.408l3.864 5.64L107.031 26h3.384l2.664-3.912 2.64 3.912h3.408z" fill="#0A3D76"/><path fill-rule="evenodd" clip-rule="evenodd" d="M18.765 6.125c.301-.166.668-.167.97 0L29 11.5a.985.985 0 01.39 1.346 1.005 1.005 0 01-1.359.386l-8.779-5.11-8.766 4.83a1.005 1.005 0 01-1.36-.384.985.985 0 01.388-1.346l9.25-5.097zm.488 22.295a.995.995 0 01.997.994l-.014 3.91 7.778-4.284a1.005 1.005 0 011.36.384.985.985 0 01-.388 1.346l-8.75 4.881c-.737.35-1.237.35-1.986 0l-8.75-5.15a.985.985 0 01-.369-1.352 1.006 1.006 0 011.365-.366l7.74 4.52.014-3.896a.995.995 0 011.003-.987z" fill="url(#paint1_linear)"/><path fill-rule="evenodd" clip-rule="evenodd" d="M31.5 13.5c.301.186.486.523.486.888v13.42c0 .57-.444 1.032-.991 1.032-.547 0-.99-.462-.99-1.032V16.13l-9.657 5.738v3.623c0 .57-.444 1.032-.991 1.032-.547 0-.991-.462-.991-1.032v-3.619l-10.384-5.85v11.945c0 .57-.444 1.032-.991 1.032C6.443 29 6 28.538 6 27.968V14.29c0-.363.184-.7.483-.886a.956.956 0 01.98-.021l11.89 6.7 11.166-6.6a.957.957 0 01.98.017z" fill="url(#paint2_linear)"/><path fill-rule="evenodd" clip-rule="evenodd" d="M17.1.904c1.302-.793 2.254-1.301 3.551-.5L35 8.806c.942.582 1.343 1.554.754 2.485-.588.932-1.823.582-2.766 0L19.5 3.306l-16 8.919v18.081l16 9.114 13.504-7.857c.965-.544 2.53-.953 3.08 0 .552.954-.013 1.927-.978 2.472L22 41.806c-1.2.678-3 1-4.649.005L2.013 33.112C.702 32.422 0 31.997 0 30.53V12.981c-.026-1.432.425-2.755 1.661-3.416L17.1.905z" fill="url(#paint3_linear)"/><path d="M46.532 34.748c1.048 0 1.647-.55 1.99-1.115l-.87-.402c-.2.374-.628.66-1.12.66-.863 0-1.49-.633-1.49-1.49s.627-1.49 1.49-1.49c.492 0 .92.293 1.12.66l.87-.408c-.336-.564-.942-1.109-1.99-1.109-1.427 0-2.532.953-2.532 2.347 0 1.395 1.105 2.347 2.532 2.347zm3.477-.082v-2.17c.15-.21.549-.374.848-.374.1 0 .186.007.25.02V31.3c-.428 0-.856.238-1.098.53v-.448h-.906v3.285h.906zm3.283.082c.535 0 1.076-.156 1.419-.456l-.4-.558c-.22.205-.627.327-.92.327-.584 0-.934-.347-.99-.762h2.56v-.19c0-1.075-.7-1.81-1.726-1.81-1.049 0-1.783.769-1.783 1.721 0 1.055.791 1.728 1.84 1.728zm.791-2.034h-1.697c.043-.326.285-.728.849-.728.599 0 .827.415.848.728zm4.506 1.952v-2.122c0-.945-.72-1.245-1.505-1.245-.542 0-1.084.163-1.505.517l.342.578a1.487 1.487 0 011.006-.387c.456 0 .756.217.756.55V33c-.228-.259-.635-.401-1.091-.401-.55 0-1.198.292-1.198 1.06 0 .735.649 1.09 1.198 1.09.449 0 .855-.157 1.09-.423v.34h.907zm-1.634-.503c-.356 0-.649-.177-.649-.483 0-.32.293-.496.65-.496.292 0 .577.095.727.285v.408c-.15.19-.435.286-.728.286zm3.687.585c.378 0 .62-.095.756-.21l-.192-.654a.51.51 0 01-.314.095c-.2 0-.314-.156-.314-.36v-1.483h.699v-.755h-.699v-.898h-.913v.898h-.57v.755h.57v1.714c0 .585.343.898.977.898zm1.704-3.721a.53.53 0 00.542-.517c0-.286-.242-.51-.542-.51-.292 0-.542.224-.542.51 0 .286.25.517.542.517zm.456 3.64V31.38h-.905v3.285h.905zm2.767-.001l1.383-3.285h-.977l-.898 2.285-.899-2.285h-.97l1.384 3.285h.977zm3.407.082c.535 0 1.077-.156 1.419-.456l-.4-.558c-.22.205-.627.327-.92.327-.584 0-.934-.347-.99-.762h2.56v-.19c0-1.075-.7-1.81-1.726-1.81-1.049 0-1.783.769-1.783 1.721 0 1.055.791 1.728 1.84 1.728zm.791-2.034H68.07c.043-.326.285-.728.849-.728.599 0 .827.415.848.728zm8.534 1.952V30.13h-1.426l-1.156 2.742-1.155-2.742h-1.42v4.537h1.013V31.49l1.341 3.177h.442l1.341-3.177v3.177h1.02zm3.897 0v-2.122c0-.945-.72-1.245-1.505-1.245-.542 0-1.084.163-1.504.517l.342.578a1.487 1.487 0 011.005-.387c.457 0 .757.217.757.55V33c-.229-.259-.635-.401-1.092-.401-.549 0-1.198.292-1.198 1.06 0 .735.65 1.09 1.198 1.09.45 0 .856-.157 1.092-.423v.34h.905zm-1.633-.503c-.356 0-.649-.177-.649-.483 0-.32.293-.496.649-.496.292 0 .578.095.728.285v.408c-.15.19-.436.286-.728.286zm3.437.503v-2.17c.15-.21.55-.374.849-.374.1 0 .185.007.25.02V31.3c-.428 0-.856.238-1.099.53v-.448h-.905v3.285h.905zm5.031 0l-1.405-1.795 1.362-1.49h-1.113l-1.305 1.462V30.13h-.906v4.537h.906v-.843l.414-.422.913 1.265h1.134zm2.027.082c.535 0 1.077-.156 1.42-.456l-.4-.558c-.221.205-.628.327-.92.327-.585 0-.934-.347-.991-.762h2.56v-.19c0-1.075-.699-1.81-1.726-1.81-1.048 0-1.783.769-1.783 1.721 0 1.055.792 1.728 1.84 1.728zm.792-2.034h-1.698c.043-.326.286-.728.849-.728.6 0 .827.415.849.728zm2.686 2.034c.378 0 .62-.095.756-.21l-.192-.654a.51.51 0 01-.314.095c-.2 0-.314-.156-.314-.36v-1.483h.7v-.755h-.7v-.898h-.913v.898h-.57v.755h.57v1.714c0 .585.343.898.977.898zm1.704-3.721a.53.53 0 00.542-.517c0-.286-.242-.51-.542-.51-.292 0-.542.224-.542.51 0 .286.25.517.542.517zm.456 3.64V31.38h-.905v3.285h.905zm4.129-.001v-2.32c0-.639-.363-1.047-1.12-1.047-.563 0-.984.259-1.205.51v-.428h-.905v3.285h.905v-2.21a.995.995 0 01.785-.388c.385 0 .634.156.634.612v1.986h.906zM103.139 36c.848 0 1.861-.306 1.861-1.558v-3.061h-.913v.422a1.35 1.35 0 00-1.062-.504c-.871 0-1.52.599-1.52 1.674 0 1.095.657 1.673 1.52 1.673.42 0 .791-.19 1.062-.517v.333c0 .647-.513.83-.948.83-.435 0-.799-.115-1.077-.408l-.407.626c.435.36.892.49 1.484.49zm.171-2.123c-.514 0-.87-.34-.87-.904 0-.565.356-.905.87-.905.299 0 .627.156.777.374v1.061c-.15.211-.478.374-.777.374z" fill="#B01E34"/><path d="M107.973 33.77v-1.26c.16-.235.52-.411.834-.411.567 0 .942.42.942 1.038 0 .618-.375 1.03-.942 1.03-.314 0-.674-.169-.834-.397zm0 1.141v-.456c.291.353.696.545 1.141.545.934 0 1.638-.678 1.638-1.863 0-1.164-.696-1.87-1.638-1.87-.437 0-.85.184-1.141.544V30H107v4.911h.973zm5.23.089c1.225 0 1.96-.854 1.96-1.87 0-1.01-.735-1.864-1.96-1.864-1.218 0-1.953.855-1.953 1.863 0 1.017.735 1.87 1.953 1.87zm0-.832c-.605 0-.942-.479-.942-1.039 0-.552.337-1.03.942-1.03s.949.478.949 1.03c0 .56-.344 1.039-.949 1.039zm5.797.743l-1.325-1.826 1.241-1.73h-1.088l-.758 1.097-.766-1.097h-1.087l1.233 1.73-1.31 1.826h1.08l.85-1.2.843 1.2H119z" fill="#0A3D76"/><defs><linearGradient id="paint0_linear" x1="43" y1="17.633" x2="119.953" y2="19.589" gradientUnits="userSpaceOnUse"><stop stop-color="#B6142C"/><stop offset="1" stop-color="#A62E41"/></linearGradient><linearGradient id="paint1_linear" x1="9" y1="20.445" x2="30" y2="20.605" gradientUnits="userSpaceOnUse"><stop stop-color="#1758A0"/><stop offset="1" stop-color="#0A3D76"/></linearGradient><linearGradient id="paint2_linear" x1="6" y1="20.233" x2="31.982" y2="20.572" gradientUnits="userSpaceOnUse"><stop stop-color="#CD1732"/><stop offset=".5" stop-color="#B6142C"/><stop offset="1" stop-color="#8B1022"/></linearGradient><linearGradient id="paint3_linear" x1="0" y1="18.803" x2="36.301" y2="19.049" gradientUnits="userSpaceOnUse"><stop stop-color="#B6142C"/><stop offset="1" stop-color="#A62E41"/></linearGradient></defs></svg>