<svg width="608" height="525" fill="none" xmlns="http://www.w3.org/2000/svg"><path d="M288.218 64.605c-.098-.98.588-1.86 1.568-1.958.98-.098 1.862.587 1.96 1.566.098.98-.588 1.86-1.568 1.959h-.196c-.882 0-1.666-.686-1.764-1.567zm-11.17 0c-.882-.392-1.372-1.37-.98-2.252.294-.881 1.372-1.37 2.254-1.077.882.391 1.372 1.37 1.078 2.252-.294.685-.98 1.175-1.666 1.175-.294 0-.49-.098-.686-.098zm23.124-3.623c-.587-.783-.391-1.86.49-2.448.784-.587 1.862-.391 2.45.49.588.783.392 1.86-.49 2.448a1.892 1.892 0 01-.98.293c-.588 0-1.176-.293-1.47-.783zm-34-3.916c-.686-.686-.588-1.86.098-2.546.686-.686 1.862-.588 2.547.196.686.685.588 1.86-.196 2.545-.294.294-.783.49-1.175.49-.49-.098-.98-.294-1.274-.685zm42.819-4.798c-.882-.49-1.176-1.567-.784-2.35.49-.881 1.568-1.175 2.352-.783.882.49 1.176 1.566.784 2.35-.294.587-.98.979-1.568.979-.196 0-.49-.098-.784-.196zm-48.992-6.952c-.196-.98.392-1.86 1.274-2.154.979-.196 1.861.294 2.155 1.273.196.979-.392 1.86-1.274 2.154-.098 0-.294.098-.391.098a1.795 1.795 0 01-1.764-1.371zm51.05-6.658c0-.098 0-.098 0 0 0-1.077.784-1.86 1.763-1.86.98 0 1.764.783 1.764 1.762v.196c0 .979-.784 1.762-1.764 1.762-.979-.098-1.763-.88-1.763-1.86zm-49.776-4.406c-.98-.196-1.568-1.175-1.274-2.154.196-.98 1.176-1.567 2.155-1.273.98.196 1.568 1.175 1.274 2.154a1.794 1.794 0 01-1.763 1.37c-.196-.097-.294-.097-.392-.097zm46.934-6.952a1.678 1.678 0 01.784-2.35c.882-.49 1.96-.098 2.352.686.49.88.098 1.958-.686 2.35-.294.097-.588.195-.784.195-.686.098-1.372-.196-1.666-.881zm-41.937-4.504c-.686-.685-.784-1.762-.196-2.448a1.728 1.728 0 012.449-.196 1.94 1.94 0 01.196 2.546 1.934 1.934 0 01-1.371.588c-.392 0-.784-.196-1.078-.49zm34.294-4.112c-.783-.588-.979-1.665-.49-2.448.588-.784 1.666-.98 2.45-.49.784.588.98 1.665.49 2.448-.294.49-.882.783-1.47.783-.392 0-.686-.098-.98-.293zM275.97 15.06c-.392-.881.098-1.958.98-2.252.882-.392 1.96.098 2.254.979.392.881-.098 1.958-.98 2.252-.196.098-.392.098-.686.098-.686.098-1.372-.392-1.568-1.077zm13.718-.392c-.98-.098-1.666-.979-1.568-1.958.098-.98.98-1.665 1.96-1.567.98.098 1.666.98 1.568 1.959-.098.88-.882 1.566-1.764 1.566h-.196zm-1.666 45.237c-.098-.783.49-1.469 1.274-1.566.784-.099 1.47.489 1.568 1.272.098.784-.49 1.469-1.274 1.567h-.196c-.686 0-1.274-.587-1.372-1.273zm-9.21-.098c-.784-.294-1.078-1.077-.882-1.86.294-.784 1.078-1.077 1.862-.881.784.293 1.078 1.077.882 1.86-.196.587-.784.98-1.372.98-.098 0-.294 0-.49-.099zm18.911-2.84c-.49-.685-.294-1.566.392-2.056.686-.49 1.568-.293 2.057.392.49.686.294 1.567-.391 2.056-.294.196-.588.294-.784.294-.49-.098-.98-.294-1.274-.685zm-27.828-3.23a1.513 1.513 0 01.098-2.057c.588-.49 1.47-.49 2.058.098.49.588.49 1.469-.098 2.056-.294.196-.588.392-.98.392s-.784-.196-1.078-.49zm35.079-3.917c-.686-.392-.98-1.273-.588-1.958.392-.686 1.274-.98 1.96-.588.685.392.979 1.273.587 1.959-.294.49-.783.783-1.273.783-.196-.098-.49-.098-.686-.196zM264.8 44.141c-.196-.783.294-1.566 1.078-1.762a1.46 1.46 0 011.764 1.077c.196.783-.294 1.566-1.078 1.762h-.392c-.588 0-1.176-.49-1.372-1.077zm41.839-5.483c0-.098 0-.098 0 0 0-.881.686-1.567 1.47-1.567.784 0 1.47.686 1.47 1.469s-.686 1.469-1.47 1.469c-.784.098-1.47-.588-1.47-1.371zm-40.761-3.623c-.784-.196-1.274-.979-1.078-1.762a1.46 1.46 0 011.764-1.077c.784.196 1.274.979 1.078 1.762-.196.686-.784 1.077-1.372 1.077h-.392zm38.508-5.679c-.392-.685-.098-1.566.588-1.958.686-.392 1.567-.098 1.959.587.392.686.098 1.567-.587 1.959-.196.098-.49.196-.686.196-.588 0-1.078-.294-1.274-.784zm-34.393-3.623c-.588-.49-.686-1.468-.098-2.056.49-.587 1.47-.685 2.058-.098.588.49.686 1.469.098 2.056-.294.294-.686.49-1.078.49-.392-.098-.686-.196-.98-.392zm28.024-3.427c-.686-.49-.784-1.37-.392-2.056.49-.685 1.372-.783 2.058-.391.685.49.783 1.37.391 2.056a1.529 1.529 0 01-1.175.587c-.294.098-.588 0-.882-.195zM277.93 19.37a1.447 1.447 0 01.784-1.86c.784-.294 1.568.098 1.862.88a1.447 1.447 0 01-.784 1.861c-.196.098-.392.098-.49.098-.588-.098-1.176-.392-1.372-.979zm11.268-.392c-.784-.098-1.372-.783-1.274-1.566.098-.784.784-1.371 1.568-1.273.784.098 1.372.783 1.274 1.566-.098.784-.686 1.273-1.47 1.273h-.098zm-1.372 36.912c-.098-.685.392-1.272.98-1.272.686-.098 1.274.392 1.274.979.098.587-.392 1.273-.98 1.273h-.098c-.686 0-1.176-.392-1.176-.98zm-7.446-.097c-.588-.196-.882-.882-.686-1.469.196-.587.882-.881 1.469-.685.588.195.882.88.686 1.468-.196.49-.588.784-1.078.784-.097 0-.293 0-.391-.098zm15.285-2.35c-.392-.49-.196-1.273.294-1.665.49-.391 1.274-.195 1.666.294.392.49.196 1.273-.294 1.665-.196.097-.392.195-.686.195-.392 0-.784-.195-.98-.49zm-22.536-2.644a1.217 1.217 0 01.098-1.664c.49-.392 1.273-.392 1.665.098.392.49.392 1.272-.098 1.664-.196.196-.489.294-.783.294-.294 0-.686-.098-.882-.392zm28.415-3.133c-.588-.294-.784-.98-.49-1.567.294-.587.98-.783 1.568-.49.588.294.784.98.49 1.567-.196.392-.588.588-1.078.588-.098 0-.294 0-.49-.098zm-32.531-4.602c-.196-.587.196-1.273.882-1.469.588-.195 1.274.196 1.47.882.196.587-.196 1.272-.882 1.468h-.294c-.588 0-1.078-.294-1.176-.88zm33.903-4.406c0-.098 0-.098 0 0 0-.685.49-1.273 1.176-1.273.686 0 1.176.49 1.176 1.175s-.49 1.175-1.176 1.175c-.686.098-1.176-.49-1.176-1.077zm-33.021-2.937c-.588-.196-.98-.784-.882-1.371.196-.588.784-.98 1.372-.881.588.195.98.783.882 1.468-.098.49-.588.882-1.176.882 0-.098-.098-.098-.196-.098zm31.159-4.602c-.294-.588-.098-1.273.49-1.567.588-.294 1.274-.098 1.568.49.294.587.098 1.272-.49 1.566-.196.098-.392.098-.588.098-.392.098-.784-.196-.98-.587zm-27.827-2.938c-.49-.391-.49-1.175-.098-1.664.392-.49 1.176-.49 1.665-.098.49.392.49 1.175.098 1.664-.196.294-.587.392-.881.392-.294 0-.588-.098-.784-.294zm22.732-2.741c-.49-.392-.686-1.077-.294-1.665.392-.49 1.078-.685 1.666-.294.49.392.686 1.077.294 1.665-.196.294-.588.49-.98.49-.294 0-.49-.098-.686-.196zm-16.363-2.448c-.196-.588.098-1.273.686-1.469.587-.196 1.273.098 1.469.686.196.587-.098 1.272-.686 1.468-.098.098-.294.098-.391.098-.392 0-.882-.294-1.078-.783zm9.112-.294c-.686-.098-1.078-.685-1.078-1.273.098-.685.686-1.077 1.274-.979.686.098 1.078.685.98 1.273-.098.587-.588 1.077-1.176 1.077.098 0 .098 0 0-.098z" fill="#EBF2F9"/><g filter="url(#filter0_f)"><path d="M426.167 411.128H197.536l-159.393 30.27c200.156 22.388 318.25 26.383 539.844 18.018l-151.82-48.288z" fill="url(#paint0_linear)"/></g><g filter="url(#filter1_f)"><path d="M174.456 417.975l-24.882 3.243 17.67 98.016 19.473-18.738-12.261-82.521z" fill="url(#paint1_linear)"/></g><g filter="url(#filter2_f)"><path d="M216.649 411.488l-26.325 5.045 34.619 85.765 7.573-5.406-15.867-85.404z" fill="url(#paint2_linear)"/></g><g filter="url(#filter3_d)"><g filter="url(#filter4_di)"><path d="M466.731 320.473l-356.717.642a5.097 5.097 0 01-5.013-5.172l.755-233.216a5.099 5.099 0 011.55-3.6 5.086 5.086 0 013.651-1.434l358.967-.049a5.1 5.1 0 014.657 3.218 5.07 5.07 0 01.357 1.955l-3.364 231.948c-.041 2.818-2.04 5.749-4.843 5.708z" fill="#0A3D76"/><path d="M465.332 89.76H114.555v219.232h350.777V89.759z" fill="#fff"/><path d="M289.94 86.901a3.825 3.825 0 100-7.649 3.826 3.826 0 00-3.827 3.825 3.826 3.826 0 003.827 3.824z" fill="#B4D1FA"/><path d="M289.94 85.626a2.55 2.55 0 10.002-5.1 2.55 2.55 0 00-.002 5.1z" fill="#2A689B"/></g><path d="M70.711 413.201h435.91c9.905 0 15.967-10.97 10.75-19.488l-39.946-64.958a12.636 12.636 0 00-10.742-6.024H111.591a12.618 12.618 0 00-10.677 5.919l-40.88 64.982c-5.338 8.485.715 19.569 10.677 19.569z" fill="#526984"/><g filter="url(#filter5_di)"><path d="M69.257 410.651h438.786a12.765 12.765 0 0011.143-6.565 12.744 12.744 0 00-.328-12.923l-40.222-65.006a12.718 12.718 0 00-10.815-6.025H110.389a12.719 12.719 0 00-10.742 5.919l-41.132 65.031a12.746 12.746 0 0010.742 19.569z" fill="#B4D1FA"/></g><path opacity=".5" d="M377.586 401.915a1.28 1.28 0 01-.6 1.584 1.273 1.273 0 01-.595.145H200.917a1.275 1.275 0 01-1.17-1.737l11.563-30.579a1.279 1.279 0 011.195-.812h152.323a1.281 1.281 0 011.195.812l11.563 30.587z" stroke="#000" stroke-width=".3" stroke-miterlimit="10"/><path d="M316.09 412.568h-54.807c-2.056-.691-2.121-.885-2.552-2.94a2.686 2.686 0 012.552-2.801h54.848a2.69 2.69 0 012.551 2.801c-.292 2.16-1.145 2.29-2.592 2.94z" fill="#C3DCFC"/><g filter="url(#filter6_di)"><path d="M453.99 367.836l-330.642.162a1.276 1.276 0 01-1.072-1.892l20.184-38.285a1.237 1.237 0 011.064-.617h290.249a1.23 1.23 0 011.048.585l20.217 38.122a1.27 1.27 0 01.023 1.26 1.274 1.274 0 01-1.071.665z" fill="#98B9E2"/><path d="M142.835 366.017h-17.95c-1.235 0-.699-2.209 0-2.899l1.577-2.915a1.85 1.85 0 011.292-.463h17.949c1.235 0 1.975.926 1.284 1.624l-2.852 4.19a1.822 1.822 0 01-1.3.463zm23.481 0h-17.982c-1.235 0-1.967-.934-1.284-1.624l2.852-4.19a1.82 1.82 0 011.284-.463h17.949c1.235 0 1.975.926 1.292 1.624l-2.852 4.19a1.845 1.845 0 01-1.259.463zm23.461 0h-17.876c-1.235 0-1.975-.934-1.284-1.624l2.844-4.19c.355-.314.818-.48 1.292-.463h17.949c1.235 0 1.975.926 1.284 1.624l-2.852 4.19a1.83 1.83 0 01-1.357.463zm26.612 0h-21.038c-1.243 0-1.974-.934-1.292-1.624l2.853-4.19a1.823 1.823 0 011.291-.462h21.038c1.235 0 1.974.925 1.292 1.623l-2.852 4.19a1.842 1.842 0 01-1.292.463zm125.096-1.186c-.057.666-.87 1.186-1.829 1.186H223.37c-2.682 0-3.397-.934-2.73-1.624l2.746-4.19a1.724 1.724 0 011.243-.463h112.646c1.301 0 1.829.56 2.528 2.087l1.673 2.679c.02.108.022.217.009.325zm24.847 1.186h-20.071a1.476 1.476 0 01-1.527-.877l-2.308-4.182c-.163-.641.569-1.218 1.528-1.218h19.802a1.495 1.495 0 011.528.869l2.575 4.19c.163.641-.568 1.218-1.527 1.218zm23.002 0h-17.616c-.87 0-1.625-.365-1.747-.877l-2.942-4.181c-.179-.642.65-1.218 1.739-1.218h17.649c.861 0 1.625.365 1.747.868l2.942 4.19c.186.642-.683 1.218-1.772 1.218zm22.16 0h-16.95a1.484 1.484 0 01-1.528-.877l-2.584-4.181c-.154-.642.569-1.218 1.528-1.218h16.714c.756 0 1.308 0 2.852 2.086l1.52 2.972c.13.642-.626 1.218-1.552 1.218zm-230.15-8.55h-51.289c-1.122 0-1.398-1.048-.813-1.624l2.072-3.248c.33-.268.746-.407 1.17-.39h51.289c1.122 0 1.788.812 1.17 1.356l-2.437 3.491a1.75 1.75 0 01-1.162.415zm21.011 0h-16.341c-1.129 0-1.804-.812-1.178-1.356l2.365-3.492a1.77 1.77 0 011.178-.389h16.34c1.122 0 1.796.811 1.171 1.356l-2.365 3.491a1.75 1.75 0 01-1.17.39zm21.225-.001h-14.952c-1.032 0-1.625-.812-1.072-1.356l2.161-3.491a1.523 1.523 0 011.073-.39h14.959c1.024 0 1.625.812 1.073 1.356l-2.17 3.492a1.517 1.517 0 01-1.072.389zm223.463.001h-43.562c-.715 0-1.332-.308-1.446-.731l-2.681-3.483c-.147-.536.544-1.023 1.454-1.023h43.586c.715 0 1.243 0 2.714 1.746l1.373 2.476c.163.536-.528 1.015-1.438 1.015zm4.167 8.55h-13.309a1.82 1.82 0 01-1.284-.463l-2.852-4.19c-.683-.698.048-1.624 1.284-1.624h13.309a1.82 1.82 0 011.284.463l2.852 4.19c.691.69-.048 1.624-1.284 1.624zm-18.841 0h-14.853a1.846 1.846 0 01-1.292-.463l-2.852-4.19c-.683-.698.057-1.624 1.292-1.624h14.821a1.82 1.82 0 011.284.463l2.852 4.19c.739.69-.016 1.624-1.252 1.624zm-186.427-8.55h-16.064c-1.114 0-1.772-.812-1.154-1.356l2.324-3.492a1.704 1.704 0 011.154-.389h16.08c1.105 0 1.764.811 1.154 1.356l-2.324 3.491a1.72 1.72 0 01-1.17.39zm23.254-.001h-16.251c-1.024 0-1.626-.812-1.073-1.356l2.17-3.491a1.52 1.52 0 011.072-.39h16.251c1.032 0 1.626.812 1.073 1.356l-2.161 3.492a1.52 1.52 0 01-1.081.389zm23.511 0h-16.252c-1.235 0-1.999-.885-1.365-1.583l1.56-3.142a1.863 1.863 0 011.365-.512h13.741a1.575 1.575 0 011.56.812l.959 3.143c.187.682-.561 1.282-1.568 1.282zm43.952.001h-15.016a1.52 1.52 0 01-1.52-.812l-.926-3.135c-.195-.649.536-1.258 1.519-1.258h14.082a1.688 1.688 0 011.438.658l1.861 3.142c.382.658-.341 1.405-1.438 1.405zm21.669-.001h-15.024a1.504 1.504 0 01-1.512-.812l-2.503-3.166c-.195-.65.537-1.259 1.52-1.259h15.366a1.678 1.678 0 011.43.658l2.129 3.142c.43.69-.317 1.437-1.406 1.437zm21.639.001h-15.252a1.546 1.546 0 01-1.544-.812l-2.511-3.134c-.195-.65.545-1.259 1.536-1.259h15.764a1.716 1.716 0 011.462.658l2.007 3.142c.415.658-.349 1.405-1.462 1.405zm18.04 0h-13.383a1.34 1.34 0 01-1.357-.812l-2.202-3.134c-.17-.65.48-1.259 1.349-1.259h13.692a1.462 1.462 0 011.284.658l1.893 3.142c.366.658-.3 1.405-1.276 1.405zm-223.192-7.325h-40.677c-.812 0-1.276-.771-.812-1.347l2.161-3.8h1.276l40.717-.049c.813 0 1.276.763.813 1.34l-2.665 3.45a1.035 1.035 0 01-.813.406zm19.603.001h-14.797c-1.015 0-1.625-.772-1.056-1.348l2.129-3.451a1.484 1.484 0 011.056-.382h14.797c1.024 0 1.625.763 1.065 1.34l-2.146 3.451c-.285.26-.661.4-1.048.39zm20.677 0h-14.756c-1.024 0-1.625-.772-1.065-1.348l2.129-3.451a1.485 1.485 0 011.057-.382h14.796c1.024 0 1.626.763 1.065 1.34l-2.129 3.451a1.486 1.486 0 01-1.097.39zm228.294 0h-33.462c-1.796.17-1.893-.414-2.738-1.307l-2.552-2.55c-.114-.528.585-1.275 1.276-1.275l34.225-.048c.545 0 1.918-.358 2.763 1.323l1.585 2.85c.113.528-.374 1.007-1.097 1.007zm-207.37 0h-14.796c-1.024 0-1.626-.772-1.065-1.348l2.129-3.451a1.493 1.493 0 011.064-.382h14.797c1.016 0 1.625.764 1.057 1.34l-2.121 3.451a1.514 1.514 0 01-1.065.39zm19.145 0h-14.797c-1.024 0-1.625-.772-1.064-1.348l2.129-3.451a1.481 1.481 0 011.056-.382h14.797c1.024 0 1.625.763 1.064 1.34l-2.129 3.451a1.49 1.49 0 01-1.056.39zm22.712 0h-16.861c-1.194 0-1.926-.886-1.316-1.576l1.479-3.101a1.771 1.771 0 011.316-.504h14.464a1.507 1.507 0 011.503.812l.918 3.11c.187.658-.536 1.259-1.503 1.259zm22.972 0h-16.86a2.753 2.753 0 01-1.804-1.308l-1.097-3.369c-.179-.455.812-.504 1.316-.504h17.527a1.51 1.51 0 011.503.812l.919 3.11c.186.658-.537 1.259-1.504 1.259zm21.044 0H307.03a1.487 1.487 0 01-1.495-.812l-.926-3.11c-.187-.642.536-1.234 1.503-1.234h13.944a1.632 1.632 0 011.422.649l1.836 3.11c.398.65-.341 1.397-1.422 1.397zm22.71-.001h-14.854c-1.625 0-2.779-.812-2.925-1.307l-1.032-2.639c-.187-.641.537-1.234 1.503-1.234h15.244a1.623 1.623 0 011.422.65l2.097 3.11c.373.673-.374 1.42-1.455 1.42zm19.581 0h-13.391a1.344 1.344 0 01-1.357-.812l-2.21-3.109c-.171-.642.479-1.235 1.357-1.235h12.562a1.438 1.438 0 011.284.65l3.039 3.11c.357.649-.309 1.396-1.284 1.396zm38.768 0h-13.285a3.168 3.168 0 01-1.626-.876l-3.095-3.143c-1.552-1.047-.236-1.161.731-1.161h13.944a1.621 1.621 0 011.422.65l3.364 3.11c.373.673-.366 1.42-1.455 1.42zm-19.882.001h-11.603c-.618 0-1.276 0-2.552-1.275l-2.551-2.549c-.155-.642.463-1.275 1.275-1.275l12.579-.049a1.313 1.313 0 011.203.65l2.852 3.11c.341.641-.293 1.388-1.203 1.388zm-211.485-7.332h-33.178a.807.807 0 01-.857-.362.806.806 0 01.045-.929l1.885-3.313a.946.946 0 01.813-.373h34.452a.81.81 0 01.858.361.811.811 0 01-.045.93l-3.161 3.313a.95.95 0 01-.812.373zm20.435 0h-14.211c-.984 0-1.569-.739-1.024-1.291l3.25-3.313a1.442 1.442 0 011.024-.374h14.212c.975 0 1.56.739 1.015 1.291l-3.25 3.313a1.431 1.431 0 01-1.016.374zm21.078 0h-14.212c-.983 0-1.56-.739-1.024-1.291l3.251-3.313a1.429 1.429 0 011.015-.374h14.212c.983 0 1.568.739 1.024 1.291l-3.25 3.313a1.453 1.453 0 01-1.016.374zm20.101 0h-14.171c-.983 0-1.568-.739-1.024-1.291l3.251-3.313a1.44 1.44 0 011.023-.374h14.212c.975 0 1.56.739 1.024 1.291l-3.25 3.313a1.431 1.431 0 01-1.065.374zm20.886 0h-14.212c-.975 0-1.56-.739-1.024-1.291l3.251-3.313a1.429 1.429 0 011.015-.374h14.212c.983 0 1.568.739 1.024 1.291l-3.25 3.313a1.442 1.442 0 01-1.016.374zm23.042 0h-16.194c-1.146 0-1.853-.812-1.268-1.51l2.649-2.98a1.718 1.718 0 011.259-.487h12.677a1.436 1.436 0 011.438.812l.885 2.98c.179.609-.52 1.185-1.446 1.185zm22.064 0h-16.194c-1.13 0-1.13-.999-1.26-1.51l-.3-2.98a1.718 1.718 0 011.267-.487h15.61a1.436 1.436 0 011.438.812l.886 2.98c.178.609-.512 1.185-1.447 1.185zm20.216 0h-14.244a1.44 1.44 0 01-1.439-.812l-.885-2.98c-.179-.617.52-1.194 1.446-1.194h13.391a1.627 1.627 0 011.3.674l1.763 2.988c.415.609-.292 1.324-1.332 1.324zm20.592-.001h-14.269a1.438 1.438 0 01-1.446-.812l-2.357-2.98c-.178-.617.521-1.193 1.447-1.193h13.391a1.624 1.624 0 011.365.625l3.25 2.988c.35.658-.341 1.372-1.381 1.372zm19.166.001h-14.188a1.42 1.42 0 01-1.43-.812l-2.34-2.98c-.179-.617.512-1.194 1.438-1.194h13.278a1.567 1.567 0 011.357.625l3.209 2.988c.415.658-.292 1.373-1.324 1.373zm39.442 0h-13.505a3.255 3.255 0 01-1.625-.812l-3.145-3.021c-1.568-1.006-.236-1.12.748-1.12h14.114a1.747 1.747 0 011.446.625l3.413 2.988c.414.625-.341 1.34-1.446 1.34zm-19.777 0h-13.538a1.354 1.354 0 01-1.373-.812l-2.243-2.98c-.17-.617.488-1.194 1.374-1.194h12.733a1.49 1.49 0 011.3.625l3.079 2.989c.334.657-.341 1.372-1.332 1.372zm38.874 0h-13.879a3.43 3.43 0 01-1.706-.812l-3.251-3.021c-1.625-1.007-.243-1.12.764-1.12h14.537a1.776 1.776 0 011.503.641l3.519 2.988c.414.609-.358 1.324-1.487 1.324zm20.241 0h-14.147a3.469 3.469 0 01-1.73-.812l-3.291-3.021c-1.625-1.006-.244-1.12.812-1.12h17.503a1.838 1.838 0 011.511.625l1.772 2.728c.406.626 1.251 1.251-2.43 1.6zm-25.394-7.633h23.207a.814.814 0 00.601-1.25l-2.438-3.248a.712.712 0 00-.601-.366h-25.758a.807.807 0 00-.658.459.808.808 0 00.056.8l3.69 3.248c.146.227 1.657.357 1.901.357zm-21.501 0h13.814c.951 0 1.511-.714.983-1.25l-3.169-3.248a1.4 1.4 0 00-.991-.366h-13.814c-.951 0-1.519.723-.991 1.259l3.177 3.248c.271.244.627.372.991.357zm-20.476 0h13.813c.951 0 1.52-.714.992-1.25l-3.177-3.248a1.401 1.401 0 00-.992-.366h-13.813c-.951 0-1.52.723-.992 1.259l3.169 3.248c.274.245.633.373 1 .357zm-19.519 0h13.814c.951 0 1.511-.714.983-1.25l-3.169-3.248a1.4 1.4 0 00-.991-.366h-13.814c-.951 0-1.519.723-.991 1.259l3.177 3.248c.271.244.627.372.991.357zm-20.324 0h13.814c.95 0 1.519-.714.991-1.25l-3.177-3.248a1.4 1.4 0 00-.991-.366h-13.814c-.951 0-1.511.723-.983 1.259l3.169 3.248c.271.244.627.372.991.357zm-23.651 0h15.731c1.105 0 1.796-.812 1.227-1.462l-2.576-2.898a1.63 1.63 0 00-1.227-.471h-12.302a1.385 1.385 0 00-1.398.812l-.861 2.898c-.171.569.504 1.121 1.406 1.121zm-21.419 0h15.731c1.097 0 1.097-.966 1.227-1.461l.284-2.899a1.614 1.614 0 00-1.227-.471h-15.203a1.394 1.394 0 00-1.397.812l-.862 2.899c-.138.568.537 1.12 1.447 1.12zm-20.916 0h13.863a1.396 1.396 0 001.397-.812l.862-2.899c.17-.601-.504-1.161-1.406-1.161h-13.001a1.531 1.531 0 00-1.325.609l-1.714 2.899c-.374.674.3 1.364 1.324 1.364zm-21.273 0h13.863a1.394 1.394 0 001.397-.812l2.284-2.899c.179-.601-.496-1.161-1.398-1.161h-12.96a1.531 1.531 0 00-1.325.609l-3.144 2.899c-.407.674.276 1.364 1.283 1.364zm-18.268 0h12.514a1.257 1.257 0 001.259-.812l2.064-2.899c.154-.601-.455-1.161-1.268-1.161h-11.733a1.344 1.344 0 00-1.195.609l-2.835 2.899c-.342.674.284 1.364 1.194 1.364zm-38.943 0h12.456a2.97 2.97 0 001.528-.812l2.885-2.931c1.446-.975.219-1.088-.683-1.088h-13.001a1.54 1.54 0 00-1.325.609l-3.217 2.898c-.342.634.349 1.324 1.357 1.324zm19.5 0h13.18a1.329 1.329 0 001.332-.812l2.17-2.899c.17-.6-.471-1.161-1.333-1.161h-12.367a1.455 1.455 0 00-1.26.609l-2.99 2.899c-.357.674.301 1.364 1.268 1.364zm-37.535 0h12.416a2.98 2.98 0 001.519-.812l2.893-2.931c1.438-.975.211-1.088-.691-1.088h-13.001a1.54 1.54 0 00-1.324.609l-3.145 2.898c-.374.634.317 1.324 1.333 1.324zm-24.764 0h20.062a3.81 3.81 0 001.836-.812l2.202-2.931c0-1.088-1.015-1.088-2.096-1.088h-19.762a2.018 2.018 0 00-1.625.609l-2.243 3.856s.366.366 1.626.366zm171.979 22.289h-16.332a1.844 1.844 0 01-1.78-.812l-1.105-3.167c-.227-.649.634-1.258 1.78-1.258h16.519a2.117 2.117 0 011.682.658l.902 3.142c.788 1.721-.382 1.437-1.666 1.437z" fill="#1A3E66"/><path d="M413.591 362.874h19.347" stroke="#98B9E2" stroke-miterlimit="10"/></g><path d="M141.218 318.882h-27.709a.812.812 0 00-.812.812v.925c0 .449.364.812.812.812h27.709a.811.811 0 00.812-.812v-.925a.811.811 0 00-.812-.812zm321.444 0h-27.709a.811.811 0 00-.812.812v.925c0 .449.363.812.812.812h27.709a.812.812 0 00.812-.812v-.925a.812.812 0 00-.812-.812zm-321.898 8.915l-20.412 36.97H79.537l21.679-36.97h39.548zm297.12 0l20.403 36.97h39.629l-21.768-36.97h-38.264z" fill="#8CB8ED"/><path d="M440.743 327.797l21.127 36.969m-19.848-36.969l21.127 36.969m-19.852-36.969l21.127 36.969m-19.853-36.969l21.127 36.969m-19.851-36.969l21.126 36.969m-19.847-36.969l21.127 36.969m-19.854-36.969l21.127 36.969m-19.853-36.969l21.127 36.969m-19.846-36.969l21.127 36.969m-32.611-36.969l21.126 36.969m-22.402-36.968l21.127 36.969m-4.544-36.97l21.127 36.969m-19.85-36.969l21.126 36.969m-19.851-36.969l21.127 36.969m-19.85-36.969l21.127 36.969m-19.85-36.969l21.127 36.969m-19.855-36.969l21.127 36.969m-19.849-36.969l21.126 36.969m-19.851-36.969l21.127 36.969m-19.852-36.969l21.127 36.969m-32.61-36.969l21.127 36.969m-22.402-36.969l21.126 36.969m-4.542-36.969l21.126 36.969m-19.847-36.969l21.127 36.969m-19.849-36.969l21.127 36.969m-19.856-36.969l21.126 36.969m-19.85-36.969l21.127 36.969m-19.86-36.969l21.135 36.969m-28.781-36.969l21.127 36.969m-22.402-36.969l21.127 36.969m-350.773-36.969l-21.127 36.969m19.853-36.969l-21.127 36.969m19.848-36.969l-21.126 36.969m19.849-36.969l-21.126 36.969m19.855-36.969l-21.127 36.969m19.849-36.969l-21.127 36.969m19.848-36.969l-21.126 36.969m19.853-36.969l-21.126 36.969m19.849-36.969l-21.127 36.969m32.608-36.969l-21.127 36.969m22.404-36.969l-21.126 36.969m22.403-36.969l-21.127 36.969m3.266-36.969l-21.126 36.969m19.85-36.969l-21.127 36.969m19.851-36.969L98.9 364.766m19.852-36.969l-21.127 36.969m19.852-36.969l-21.126 36.969m19.85-36.969l-21.126 36.969m19.849-36.969l-21.127 36.969m19.851-36.969l-21.127 36.969m19.854-36.969l-21.127 36.969m32.608-36.969l-21.127 36.969m22.403-36.969l-21.127 36.969m4.541-36.969l-21.127 36.969m19.852-36.969l-21.127 36.969m19.85-36.969l-21.127 36.969m19.852-36.969l-21.127 36.969m19.848-36.969l-21.126 36.969m19.852-36.968l-21.127 36.969m28.781-36.97l-21.127 36.969m22.404-36.969l-21.126 36.969" stroke="#000" stroke-width=".05" stroke-miterlimit="10"/><path d="M465.252 309.268H114.223V89.223h351.029v220.045z" fill="#0C2540"/></g><path fill="url(#paint3_linear)" d="M145.463 98.934h34.583v5.76h-34.583z"/><path fill="url(#paint4_linear)" d="M145.463 113.744h18.938v5.76h-18.938z"/><path fill="url(#paint5_linear)" d="M145.463 128.555h18.938v5.76h-18.938z"/><path fill="url(#paint6_linear)" d="M145.463 187.796h18.938v5.76h-18.938z"/><path fill="url(#paint7_linear)" d="M145.463 202.606h18.938v5.76h-18.938z"/><path fill="url(#paint8_linear)" d="M161.107 217.417h26.349v5.76h-26.349z"/><path fill="url(#paint9_linear)" d="M171.812 232.227h25.525v5.76h-25.525z"/><path fill="url(#paint10_linear)" d="M161.107 143.365h18.938v5.76h-18.938z"/><path fill="url(#paint11_linear)" d="M161.107 158.175h18.938v5.76h-18.938z"/><path fill="url(#paint12_linear)" d="M161.107 172.986h18.938v5.76h-18.938z"/><path fill="#767676" d="M184.985 143.365h35.406v5.76h-35.406zm0 14.81h51.874v5.76h-51.874zm0 14.811h35.406v5.76h-35.406z"/><path fill="url(#paint13_linear)" d="M225.332 143.365h24.702v5.76h-24.702z"/><path fill="#71A0DD" d="M241.8 158.175h24.702v5.76H241.8zm-16.468 14.811h41.17v5.76h-41.17z"/><path fill="#767676" d="M271.442 172.986h68.342v5.76h-68.342z"/><path fill="url(#paint14_linear)" d="M161.107 247.038h18.938v5.76h-18.938z"/><path fill="url(#paint15_linear)" d="M161.107 261.848h18.938v5.76h-18.938z"/><path fill="url(#paint16_linear)" d="M145.463 277.481h18.938v5.76h-18.938z"/><path fill="url(#paint17_linear)" d="M145.463 291.469h18.938v5.76h-18.938z"/><path fill="#767676" d="M184.985 247.038h35.406v5.76h-35.406zm40.347 0h41.17v5.76h-41.17zm-40.347 14.81h35.406v5.76h-35.406z"/><path fill="#71A0DD" d="M225.332 261.848h24.702v5.76h-24.702z"/><path fill="url(#paint18_linear)" d="M271.442 247.038h23.879v5.76h-23.879z"/><path fill="#71A0DD" d="M344.726 172.986h27.172v5.76h-27.172z"/><path d="M130.319 105.508c.137 0 .251.051.342.151.1.091.151.205.151.342a.43.43 0 01-.151.328.464.464 0 01-.342.136h-3.459a.493.493 0 01-.341-.136.445.445 0 01-.137-.328.49.49 0 01.137-.342.443.443 0 01.341-.151h1.327v-5.673l-1.135.56a1.85 1.85 0 01-.123.055 1.031 1.031 0 01-.205.013.411.411 0 01-.274-.123c-.091-.091-.137-.227-.137-.41 0-.182.096-.319.288-.41l1.531-.793a.647.647 0 01.314-.082h.233a.48.48 0 01.369.164c.109.1.164.224.164.37v6.329h1.107zm.205 14.811c.137 0 .251.05.342.15a.464.464 0 01.137.342.447.447 0 01-.137.328.464.464 0 01-.342.137h-4.32a.559.559 0 01-.588-.574c0-.392.11-.748.328-1.067.219-.319.493-.61.821-.875a8.807 8.807 0 011.08-.765c.392-.237.752-.474 1.08-.711.337-.237.615-.483.834-.739.219-.255.328-.51.328-.765s-.032-.465-.096-.629a1.054 1.054 0 00-.301-.438c-.3-.273-.761-.41-1.38-.41-.666 0-1.304.137-1.914.41a.57.57 0 01-.26.055.367.367 0 01-.26-.123c-.073-.082-.109-.201-.109-.356 0-.154.077-.278.232-.369a5.474 5.474 0 012.502-.574c.729 0 1.335.21 1.818.629.502.419.752.966.752 1.641 0 .674-.342 1.33-1.025 1.968a8.322 8.322 0 01-.984.766c-.347.228-.684.456-1.012.684a13.27 13.27 0 00-.889.642c-.264.21-.442.424-.533.643h3.896zm.274 9.847c0 .903-.451 1.527-1.354 1.873.711.173 1.199.547 1.463 1.121.11.237.164.534.164.889 0 .356-.077.665-.232.93a1.972 1.972 0 01-.615.67c-.529.364-1.213.547-2.051.547-.82 0-1.6-.151-2.338-.452-.201-.091-.301-.232-.301-.423 0-.119.041-.224.123-.315.082-.1.173-.15.274-.15.109 0 .237.032.382.095.456.192 1.012.283 1.668.274.93 0 1.564-.214 1.901-.643a.938.938 0 00.164-.601c0-.939-.82-1.413-2.461-1.422h-.191a.451.451 0 01-.329-.137.446.446 0 01-.136-.328c0-.128.045-.237.136-.328a.451.451 0 01.329-.137h.082c1.54 0 2.306-.451 2.296-1.353a.976.976 0 00-.437-.834c-.283-.219-.725-.328-1.326-.328-.611 0-1.19.123-1.737.369a.533.533 0 01-.232.041.402.402 0 01-.273-.11.496.496 0 01-.11-.341.36.36 0 01.219-.342 4.691 4.691 0 012.283-.575c.82 0 1.463.178 1.928.534.474.346.711.838.711 1.476zm.287 17.859c.128 0 .237.046.328.137a.405.405 0 01.137.315.443.443 0 01-.465.451h-.848v1.517c0 .137-.05.256-.15.356-.1.1-.223.15-.369.15a.489.489 0 01-.492-.506v-1.517h-3.418a.655.655 0 01-.465-.178.656.656 0 01-.178-.465v-.095c0-.165.041-.301.123-.411l3.514-4.484c.127-.182.319-.273.574-.273h.219c.2 0 .355.063.465.191a.661.661 0 01.177.465v4.347h.848zm-1.859 0v-3.841l-2.981 3.841h2.981zm-2.461 13.184c.565-.31 1.198-.46 1.9-.451.829 0 1.477.237 1.941.711.438.455.661 1.061.67 1.818 0 1.185-.565 1.964-1.695 2.338-.383.127-.838.191-1.367.191-.912 0-1.709-.214-2.393-.642-.146-.091-.218-.21-.218-.356 0-.155.036-.282.109-.383.082-.1.178-.15.287-.15.109 0 .242.041.397.123.519.274 1.08.406 1.681.397 1.067 0 1.741-.274 2.024-.821.1-.2.155-.451.164-.752 0-.455-.155-.82-.465-1.093-.31-.274-.697-.411-1.162-.411-.693 0-1.308.164-1.846.493a.985.985 0 01-.479.136.817.817 0 01-.437-.177c-.137-.119-.205-.283-.205-.493 0-.1.004-.186.014-.259l.505-2.981a.623.623 0 01.192-.41c.109-.1.241-.15.396-.15h3.596c.128 0 .242.05.342.15.1.091.15.201.15.328 0 .128-.05.242-.15.342a.464.464 0 01-.342.137h-3.24l-.369 2.365zm1.23 14.332c.237-.055.529-.082.875-.082s.675.063.984.191c.31.119.575.292.793.52.484.492.725 1.13.725 1.914 0 .72-.246 1.321-.738 1.804-.511.493-1.185.739-2.024.739-.856 0-1.531-.228-2.023-.684-.593-.565-.934-1.399-1.025-2.502-.019-.301-.028-.62-.028-.957 0-.346.055-.756.164-1.23.11-.483.287-.916.533-1.299.256-.392.588-.716.998-.971.42-.264.903-.396 1.45-.396.547 0 .975.05 1.285.15.31.1.579.21.807.328.164.091.241.214.232.369a.512.512 0 01-.123.356.376.376 0 01-.287.136.72.72 0 01-.328-.082 3.276 3.276 0 00-1.368-.273c-.51 0-.916.105-1.216.314a2.35 2.35 0 00-.698.739c-.273.492-.428 1.098-.464 1.818.328-.437.82-.738 1.476-.902zm-.273 3.965c.246.109.524.164.834.164.31 0 .569-.041.779-.123.219-.082.401-.201.547-.356.31-.31.465-.697.465-1.162.009-.474-.128-.866-.41-1.176-.274-.31-.693-.465-1.258-.465-.584 0-1.067.146-1.45.438-.273.2-.492.465-.656.793.128.966.511 1.595 1.149 1.887zm2.871 8.001c.182 0 .332.06.451.178a.53.53 0 01.191.424c0 .164-.041.328-.123.492l-3.172 6.508c-.1.191-.246.282-.437.273-.182 0-.324-.045-.424-.136a.435.435 0 01-.137-.315c0-.118.028-.228.082-.328l3.077-6.125h-4.075a.494.494 0 01-.341-.137.46.46 0 01-.137-.341.49.49 0 01.137-.342.468.468 0 01.341-.151h4.567zm.424 16.752a1.64 1.64 0 01-.397 1.094 2.128 2.128 0 01-.902.601c.501.174.902.429 1.203.766.31.328.465.779.465 1.354 0 .592-.219 1.08-.657 1.462-.537.484-1.312.721-2.324.711-1.011 0-1.791-.237-2.338-.711a1.887 1.887 0 01-.67-1.449c0-.583.155-1.039.465-1.367.31-.337.716-.592 1.217-.766-.601-.209-.998-.569-1.189-1.08a1.708 1.708 0 01-.11-.615c0-.219.041-.446.123-.683.091-.247.242-.474.451-.684.474-.456 1.158-.684 2.051-.684.894 0 1.568.228 2.024.684.392.383.588.838.588 1.367zm-2.612 5.086c.675 0 1.185-.169 1.532-.506.282-.264.423-.538.423-.82.009-.292-.041-.533-.15-.725a1.304 1.304 0 00-.451-.465c-.356-.255-.807-.382-1.354-.382s-1.002.127-1.367.382c-.401.274-.606.648-.615 1.122 0 .328.141.624.424.888.364.337.884.506 1.558.506zm0-3.828c.556 0 .971-.137 1.244-.41.237-.228.351-.497.342-.807 0-.319-.132-.597-.396-.834-.255-.237-.652-.355-1.19-.355-.547 0-.952.118-1.217.355-.264.237-.396.515-.396.834 0 .319.128.602.383.848.264.246.674.369 1.23.369zm.383 16.588a4.008 4.008 0 01-.875.082c-.337 0-.665-.06-.984-.178a2.29 2.29 0 01-.793-.533c-.483-.492-.725-1.13-.725-1.914 0-.729.251-1.331.752-1.805.529-.492 1.203-.738 2.024-.738.856 0 1.531.228 2.023.683.592.565.93 1.399 1.012 2.502.018.301.027.625.027.971s-.055.756-.164 1.23a4.01 4.01 0 01-.547 1.299 2.994 2.994 0 01-.998.971c-.41.255-.889.383-1.436.383-.537 0-.966-.05-1.285-.151-.31-.1-.578-.209-.806-.328-.164-.091-.246-.209-.246-.355a.583.583 0 01.136-.369.364.364 0 01.274-.137c.109 0 .232.032.369.096.419.182.87.273 1.353.273.493-.009.889-.114 1.19-.314.31-.21.551-.461.724-.752.274-.493.429-1.099.465-1.819-.337.438-.834.739-1.49.903zm.274-3.965a2.029 2.029 0 00-.834-.164c-.31 0-.57.045-.78.136a1.706 1.706 0 00-.547.342c-.31.31-.464.702-.464 1.176 0 .465.136.852.41 1.162.273.31.692.465 1.257.465.584 0 1.067-.146 1.45-.437a2.17 2.17 0 00.656-.793c-.128-.967-.51-1.596-1.148-1.887zm1.257 20.662c.137 0 .251.05.342.15.1.091.151.205.151.342a.429.429 0 01-.151.328.464.464 0 01-.342.137h-3.459a.494.494 0 01-.341-.137.443.443 0 01-.137-.328.49.49 0 01.137-.342c.091-.1.205-.15.341-.15h1.327v-5.674l-1.135.56a1.447 1.447 0 01-.123.055 1.008 1.008 0 01-.205.014.411.411 0 01-.274-.123c-.091-.091-.137-.228-.137-.41 0-.183.096-.319.288-.411l1.531-.792a.644.644 0 01.314-.083h.233a.48.48 0 01.369.165c.109.1.164.223.164.369v6.33h1.107zm-1.914 7.027c.502 0 .939.096 1.313.287.383.192.697.47.943.834.511.702.766 1.668.766 2.899 0 1.239-.255 2.21-.766 2.912-.538.738-1.294 1.107-2.269 1.107-.976 0-1.732-.369-2.27-1.107-.51-.702-.766-1.673-.766-2.912 0-1.231.256-2.197.766-2.899.538-.747 1.299-1.121 2.283-1.121zm0 7.096c.657 0 1.153-.278 1.491-.834.346-.547.519-1.294.519-2.242s-.173-1.696-.519-2.243c-.347-.556-.853-.829-1.518-.82-.656 0-1.153.278-1.49.834-.338.547-.506 1.29-.506 2.229 0 .957.168 1.704.506 2.242.355.556.861.834 1.517.834z" fill="#919191"/><path d="M130.319 253.612a.44.44 0 01.342.151c.1.091.151.205.151.341a.429.429 0 01-.151.328.46.46 0 01-.342.137h-3.459a.49.49 0 01-.341-.137.443.443 0 01-.137-.328.49.49 0 01.137-.341.44.44 0 01.341-.151h1.327v-5.674l-1.135.561a2.568 2.568 0 01-.123.055 1.031 1.031 0 01-.205.013.411.411 0 01-.274-.123c-.091-.091-.137-.228-.137-.41 0-.182.096-.319.288-.41l1.531-.793a.643.643 0 01.314-.082h.233c.146 0 .269.055.369.164.109.1.164.223.164.369v6.33h1.107zm0 14a.44.44 0 01.342.151c.1.091.151.205.151.341a.429.429 0 01-.151.328.46.46 0 01-.342.137h-3.459a.49.49 0 01-.341-.137.443.443 0 01-.137-.328.49.49 0 01.137-.341.44.44 0 01.341-.151h1.327v-5.674l-1.135.561a2.568 2.568 0 01-.123.055 1.031 1.031 0 01-.205.013.411.411 0 01-.274-.123c-.091-.091-.137-.228-.137-.41 0-.182.096-.319.288-.41l1.531-.793a.643.643 0 01.314-.082h.233c.146 0 .269.055.369.164.109.1.164.223.164.369v6.33h1.107z" fill="#919191"/><path d="M130.319 268.422c.137 0 .251.051.342.151.1.091.151.205.151.342a.43.43 0 01-.151.328.464.464 0 01-.342.137h-3.459a.494.494 0 01-.341-.137.445.445 0 01-.137-.328.49.49 0 01.137-.342.443.443 0 01.341-.151h1.327v-5.673l-1.135.56a1.85 1.85 0 01-.123.055 1.008 1.008 0 01-.205.014.411.411 0 01-.274-.123c-.091-.092-.137-.228-.137-.411 0-.182.096-.319.288-.41l1.531-.793a.654.654 0 01.314-.082h.233c.146 0 .269.055.369.164a.485.485 0 01.164.369v6.33h1.107zm.205 14c.137 0 .251.051.342.151a.464.464 0 01.137.342.449.449 0 01-.137.328.464.464 0 01-.342.137h-4.32a.573.573 0 01-.424-.165.557.557 0 01-.164-.41c0-.392.11-.747.328-1.066.219-.319.493-.611.821-.875a8.706 8.706 0 011.08-.766c.392-.237.752-.474 1.08-.711.337-.237.615-.483.834-.738.219-.255.328-.51.328-.766 0-.255-.032-.464-.096-.628a1.048 1.048 0 00-.301-.438c-.3-.273-.761-.41-1.38-.41-.666 0-1.304.137-1.914.41a.583.583 0 01-.26.055.367.367 0 01-.26-.123c-.073-.082-.109-.201-.109-.356 0-.155.077-.278.232-.369.757-.383 1.591-.574 2.502-.574.729 0 1.335.209 1.818.629.502.419.752.966.752 1.64 0 .675-.342 1.331-1.025 1.969a8.322 8.322 0 01-.984.766c-.347.228-.684.455-1.012.683-.328.219-.625.433-.889.643-.264.21-.442.424-.533.642h3.896z" fill="#919191"/><path d="M130.319 283.233c.137 0 .251.05.342.15.1.091.151.205.151.342a.429.429 0 01-.151.328.464.464 0 01-.342.137h-3.459a.494.494 0 01-.341-.137.443.443 0 01-.137-.328c0-.128.045-.241.137-.342.091-.1.205-.15.341-.15h1.327v-5.674l-1.135.561a1.868 1.868 0 01-.123.054 1.008 1.008 0 01-.205.014.411.411 0 01-.274-.123c-.091-.091-.137-.228-.137-.41 0-.183.096-.319.288-.41l1.531-.793a.643.643 0 01.314-.082h.233c.146 0 .269.054.369.164.109.1.164.223.164.369v6.33h1.107zm.479 9.037c0 .902-.451 1.527-1.354 1.873.711.173 1.199.547 1.463 1.121.11.237.164.533.164.889 0 .355-.077.665-.232.929a1.954 1.954 0 01-.615.67c-.529.365-1.213.547-2.051.547-.82 0-1.6-.15-2.338-.451-.201-.091-.301-.232-.301-.424 0-.118.041-.223.123-.314.082-.1.173-.151.274-.151.109 0 .237.032.382.096.456.192 1.012.283 1.668.274.93 0 1.564-.215 1.901-.643a.94.94 0 00.164-.602c0-.938-.82-1.412-2.461-1.421h-.191a.451.451 0 01-.329-.137.448.448 0 01-.136-.328c0-.128.045-.237.136-.328a.447.447 0 01.329-.137h.082c1.54 0 2.306-.451 2.296-1.354a.979.979 0 00-.437-.834c-.283-.218-.725-.328-1.326-.328-.611 0-1.19.123-1.737.369a.518.518 0 01-.232.041.4.4 0 01-.273-.109.497.497 0 01-.11-.342.36.36 0 01.219-.342 4.701 4.701 0 012.283-.574c.82 0 1.463.178 1.928.533.474.347.711.839.711 1.477z" fill="#919191"/><path d="M130.319 298.043a.44.44 0 01.342.151c.1.091.151.205.151.341a.432.432 0 01-.151.329.464.464 0 01-.342.136h-3.459a.493.493 0 01-.341-.136.447.447 0 01-.137-.329.49.49 0 01.137-.341.44.44 0 01.341-.151h1.327v-5.674l-1.135.561a2.568 2.568 0 01-.123.055 1.031 1.031 0 01-.205.013.411.411 0 01-.274-.123c-.091-.091-.137-.228-.137-.41 0-.182.096-.319.288-.41l1.531-.793a.643.643 0 01.314-.082h.233c.146 0 .269.055.369.164.109.1.164.223.164.369v6.33h1.107zm.766 12.086c.128 0 .237.046.328.137a.405.405 0 01.137.314.447.447 0 01-.465.452h-.848v1.517c0 .137-.05.255-.15.356-.1.1-.223.15-.369.15a.489.489 0 01-.492-.506v-1.517h-3.418a.659.659 0 01-.465-.178.658.658 0 01-.178-.465v-.096c0-.164.041-.301.123-.41l3.514-4.484c.127-.183.319-.274.574-.274h.219c.2 0 .355.064.465.192a.658.658 0 01.177.465v4.347h.848zm-1.859 0v-3.842l-2.981 3.842h2.981z" fill="#919191"/><g filter="url(#filter7_f)"><path d="M350.798 413.651h-37.864l50.847 99.098 14.064-4.685-10.819-12.973 2.524-27.387-18.752-54.053z" fill="url(#paint19_linear)"/></g><g filter="url(#filter8_f)"><ellipse cx="205.831" cy="393.11" rx="47.602" ry="12.973" fill="#000" fill-opacity=".3"/></g><g clip-path="url(#clip0)"><path d="M200.255 239.814l-8.422 10.289-4.227 8.753-3.852 11.019s-6.831 6.332-6.473 6.472c.359.14-.39 7.76.375 8.862.764 1.102 8.453 10.289 8.453 10.289s7.439 4.827 10.402 5.463c2.964.636 17.905 7.108 17.905 7.108l9.202-8.769-3.509-4.609s9.576-5.727 10.714-6.487c1.139-.761 5.818-5.339 5.818-5.339a40.313 40.313 0 00-.858-6.518c-.686-2.576-5.272-15.147-5.272-15.147s-6.129-8.769-6.893-10.29c-.764-1.521-4.211-6.487-4.211-6.487l-19.152-4.609z" fill="#37354C"/><path d="M218.549 295.746l2.34-2.327h-26.514l3.119 6.207 18.716.776 1.559-2.328.78-2.328z" fill="#37354C"/><path d="M184.551 295.489l9.044-.519 3.48 2.676 19.914 1.204 1.913-3.712h11.594a6.391 6.391 0 014.525 1.825 6.329 6.329 0 011.903 4.474l.458 59.407-58.702.448-.459-59.407a6.33 6.33 0 011.834-4.502 6.392 6.392 0 014.496-1.894z" fill="#61A6FF"/><path d="M199.459 277.123a1.752 1.752 0 01-1.077 1.631 1.77 1.77 0 01-1.926-.37 1.75 1.75 0 01.26-2.703 1.772 1.772 0 012.221.212c.33.325.518.768.522 1.23zm16.672 0a1.757 1.757 0 01-2.102 1.736 1.754 1.754 0 01.355-3.474c.463 0 .908.183 1.235.509.328.326.512.768.512 1.229z" fill="#37354C"/><path d="M208.222 387.203l-23.099 23.388-.358 77.381h-10.309l-15.144-79.6a9.389 9.389 0 01.485-5.777 9.448 9.448 0 013.788-4.404l21.539-26.554 23.098 15.566z" fill="#BCBACE"/><path d="M146.166 349.134a5.418 5.418 0 01-.749-4.346c3.307-13.145 26.919-44.075 27.902-45.363 1.56-1.956 9.638-3.71 9.638-3.71l.921 21.231-21.258 24.971a5.348 5.348 0 00-.733 5.82l16.844 34.143-8.89 2.483-23.675-35.229z" fill="#61A6FF"/><path d="M223.226 371.637l25.736 24.987a9.464 9.464 0 013.793 4.402 9.41 9.41 0 01.496 5.779L233.8 487.972h-10.293l3.916-78.948-27.373-21.821 23.176-15.566z" fill="#BCBACE"/><path d="M265.619 348.435a5.595 5.595 0 00.686-3.926c-2.526-12.85-23.722-43.781-24.767-45.084-1.559-1.956-9.638-3.71-9.638-3.71l-.874 21.231 18.279 24.382a5.815 5.815 0 01.764 5.68l-13.896 34.872 8.89 2.483 20.556-35.928z" fill="#61A6FF"/><path d="M182.77 382.222a7.377 7.377 0 01-1.253 4.112 7.432 7.432 0 01-3.339 2.727 7.472 7.472 0 01-8.107-1.605 7.385 7.385 0 01-2.036-3.79 7.36 7.36 0 01.423-4.277 7.41 7.41 0 012.74-3.323 7.468 7.468 0 019.393.921 7.38 7.38 0 012.179 5.235z" fill="#EEBCC5"/><path d="M193.235 274.487s-2.626-6.903-5.282-4.62c-3.157 2.707-1.86 5.423.672 9.647 0 0 2.181 3.517 3.754 2.407.004.02.782-5.09.856-7.434z" fill="#FFCFAE"/><path d="M192.313 275.695c-.703-2.631-3.182-3.222-4.364-2.243-1.182.98 1.171 5.51 3.049 5.589 1.503.07 1.732-1.75 1.315-3.346z" fill="#EAAB85"/><path d="M192.02 278.114c-.309-1.947-2.241-2.559-3.285-1.942-1.044.616.423 4.029 1.966 4.241 1.234.162 1.526-1.101 1.319-2.299zm8.806 28.998l6.007.635c4.833 0 8.441-1.976 8.441-5.844l.584-14.909h-18.075l.647 14.909c0 3.847 1.402 4.707 2.396 5.209z" fill="#FFCFAE"/><path d="M215.861 291.145s-.698 6.918-9.039 6.918c-7.646 0-9.039-6.226-9.039-6.226 3.005 2.252 7.441.504 7.441.504 7.017-.027 10.637-1.196 10.637-1.196z" fill="#EAAB85"/><path d="M220.126 274.143s2.986-6.757 5.518-4.339c3.01 2.868 1.571 5.513-1.18 9.599 0 0-2.362 3.398-3.875 2.208-.005.02-.513-5.124-.463-7.468z" fill="#FFCFAE"/><path d="M220.981 275.397c.841-2.591 3.347-3.052 4.476-2.012 1.129 1.039-1.46 5.441-3.339 5.421-1.505-.007-1.637-1.837-1.137-3.409z" fill="#EAAB85"/><path d="M221.146 277.828c.411-1.929 2.372-2.439 3.383-1.769 1.01.671-.635 4.002-2.187 4.133-1.241.098-1.465-1.178-1.196-2.364z" fill="#FFCFAE"/><path d="M189.697 246.86c1.806-2.228.44-.355 3.119-3.104 1.725-1.78 3.599-3.298 6.895-4.837 13.974-6.475 21.333 7.285 21.333 7.285 3.767-.408-.382.285 1.411 3.89 1.678 3.378-.934-1.589-1.411.626-1.257 4.16 3.268 7.365 3.14 6.258l-.675 6.364c-2.646-8.783-6.662-12.362-6.662-12.362l-12.758-1.03-13.53 25.487-3.095-14.563c-.336-1.906-2.297-5.612-2.189-7.552.06-1.124 6.264-4.95 4.422-6.462z" fill="#202020"/><path d="M189.638 264.259c0 5.124.503 15.847 3.666 22.209 5.174 8.827 10.735 8.827 13.516 8.827 2.781 0 7.647-.526 13.208-8.827 4.088-6.101 3.811-22.209 3.811-22.209s2.522-18.229-15.608-18.229c-19.184.02-18.593 18.229-18.593 18.229z" fill="#FFCFAE"/><path d="M223.321 274.188c1.729-6.023 5.188-24.094-2.887-25.803l-13.43-4.061s-15.235 4.235-15.712 4.041c-.477-.194-3.116 6.602-3.116 6.602s-1.176 18.361 3.149 3.732c.896-2.408 3.459-5.163 7.689-3.745 5.536 2.22 11.278 3.108 14.795.303 6.053-2.156 7.913 2.52 9.512 6.024.725 8.154-.188 12.927 0 12.907z" fill="#202020"/><path d="M202.201 281.46c-.72.579.357.869.357.869h1.437s1.437 1.157 2.866 0h1.437s1.077-.29.36-.869" stroke="#EAAB85" stroke-width=".4" stroke-miterlimit="10"/><path d="M203.939 270.392s1.138 3.548-.391 8.294l.391-8.294z" fill="#EAAB85"/><path d="M209.465 266.958a.5.5 0 01-.51-.485l-.034-1.148a.499.499 0 01.506-.515l5.247.064a4.053 4.053 0 011.987.517l1.344.787c.464.271.231.984-.304.928l-2.566-.266-5.67.118zm-8.643-.034a.5.5 0 00.518-.5v-1.066a.5.5 0 00-.5-.5h-4.987a3.758 3.758 0 00-1.878.479l-1.189.697c-.462.271-.232.981.301.929l2.379-.23 5.356.191z" fill="#202020"/><path d="M214.499 269.028c-.87-.322-1.155-.219-2.447-.219a6.863 6.863 0 00-1.723.429s-1.292 1.289-1.447 1.457c-.272.305-.173.649.237.705.409.055.861-.069 1.206 0 2.653.429 3.222.593 4.738 0a8.279 8.279 0 001.723-.86 6.4 6.4 0 00-2.287-1.512z" fill="#fff"/><path d="M212.916 269.478a1.506 1.506 0 00-1.379 2.113c1.111.189 1.67.184 2.73.058a1.506 1.506 0 00-1.351-2.171z" fill="#28160D" stroke="#1C1105" stroke-width=".2" stroke-miterlimit="10"/><path d="M212.939 271.798a.8.8 0 00.802-.798.8.8 0 00-.802-.797.8.8 0 00-.801.797.8.8 0 00.801.798z" fill="#000"/><path opacity=".77" d="M212.055 270.981a.43.43 0 10.002-.858.43.43 0 00-.002.858z" fill="#fff"/><path d="M208.767 271.095l1.538-1.676c.139-.15.318-.259.517-.313l.633-.164c.323-.082.658-.111.99-.086l1.624.129c.332.027.653.128.939.297l1.676 1.009.543.03-1.564-1.405a2.59 2.59 0 00-1.128-.36l-1.62-.129a3.352 3.352 0 00-1.137.103l-.629.163a3.212 3.212 0 00-1.159.43l-1.813 2.041.59-.069z" fill="#D3A688"/><path opacity=".5" d="M208.604 271.164l1.538-1.676c.166-.18.38-.31.616-.374l.629-.163a3.28 3.28 0 011.094-.095l1.624.129c.366.027.72.141 1.034.331l1.65 1.005" stroke="#0A0001" stroke-width=".3" stroke-miterlimit="10"/><path d="M208.821 271.387h.677c.354-.001.708.035 1.055.107.84.126 2.57.548 4.083.117.095-.031.771-.383.862-.43l.861-.43" stroke="#472A22" stroke-width=".2" stroke-miterlimit="10"/><path d="M196.342 269.028c.87-.322 1.155-.219 2.447-.219.59.068 1.17.212 1.723.429 0 0 1.292 1.289 1.447 1.457.271.305.172.649-.237.705-.409.055-.861-.069-1.206 0-2.653.429-3.222.593-4.738 0a8.279 8.279 0 01-1.723-.86 6.4 6.4 0 012.287-1.512z" fill="#fff"/><path d="M197.921 269.478a1.506 1.506 0 011.379 2.113c-1.112.189-1.67.184-2.73.058a1.506 1.506 0 011.351-2.171z" fill="#28160D" stroke="#1C1105" stroke-width=".2" stroke-miterlimit="10"/><path d="M197.898 271.798a.8.8 0 01-.802-.798.8.8 0 01.802-.797.8.8 0 01.801.797.8.8 0 01-.801.798z" fill="#000"/><path opacity=".77" d="M197.139 271.021a.43.43 0 110-.858.43.43 0 010 .858z" fill="#fff"/><path d="M202.074 271.095l-1.538-1.676a1.107 1.107 0 00-.517-.313l-.633-.164a3.09 3.09 0 00-.991-.086l-1.624.129a2.203 2.203 0 00-.939.297l-1.675 1.009-.543.03 1.564-1.405a2.59 2.59 0 011.128-.36l1.62-.129c.382-.031.767.004 1.137.103l.629.163c.411.067.804.213 1.159.43l1.813 2.041-.59-.069z" fill="#D3A688"/><path opacity=".5" d="M202.236 271.164l-1.537-1.676c-.166-.18-.38-.31-.616-.374l-.629-.163a3.28 3.28 0 00-1.094-.095l-1.624.129a2.324 2.324 0 00-1.034.331l-1.65 1.005" stroke="#0A0001" stroke-width=".3" stroke-miterlimit="10"/><path d="M202.017 271.387h-.677a5.125 5.125 0 00-1.055.107c-.84.126-2.57.548-4.083.117-.095-.031-.772-.383-.862-.43l-.861-.43" stroke="#472A22" stroke-width=".2" stroke-miterlimit="10"/><path d="M227.11 246.673c-3.042-7.946-20.104-10.677-20.322-10.677-.203 0-17.265 2.731-20.275 10.677-3.01 7.947-12.228 30.481-11.853 36.58.374 6.099 11.494 12.199 11.494 12.199l7.441-.482s-10.137-8.613-11.697-13.191c-1.559-4.578 1.87-10.724 3.367-11.904a91.635 91.635 0 0116.782-21.324 7.024 7.024 0 019.482 0 92.077 92.077 0 0116.735 21.324c1.559 1.18 3.511 7.403 1.983 11.904-1.407 4.141-9.986 12.172-11.346 13.428-.067.062-.018.168.073.169l8.479.076s11.12-6.1 11.494-12.199c.375-6.099-8.78-28.633-11.837-36.58z" fill="#61A6FF"/><path d="M247.652 383.556a7.375 7.375 0 00-1.002-4.191 7.42 7.42 0 00-3.178-2.926 7.467 7.467 0 00-8.204 1.142 7.4 7.4 0 00-2.248 3.682 7.373 7.373 0 00.192 4.304 7.408 7.408 0 002.568 3.468 7.469 7.469 0 009.405-.416 7.39 7.39 0 002.467-5.063z" fill="#EEBCC5"/><path d="M236.702 350.081v31.799s-18.06 6.72-20.633 6.363c-2.574-.357-2.574-28.276-2.574-28.276l3.307-8.49 19.9-1.396zm-57.972 0v31.799s18.061 6.72 20.634 6.363c2.574-.357 2.589-28.276 2.589-28.276l-3.322-8.49-19.901-1.396z" fill="#61A6FF"/><path d="M184.767 487.972l1.42 13.083S174.722 519.472 169.481 520c-5.24.527-2.994-8.722 0-12.959 2.995-4.237 6.958-9.571 6.958-9.571l2.246-9.498h6.082zm40.597 0l-1.42 13.083s9.789 17.349 15.029 17.877c5.241.528 2.995-8.722 0-12.959-2.994-4.237-5.328-8.503-5.328-8.503l-2.246-9.498h-6.035z" fill="#2D2C56"/><path d="M198.273 366.361l17.156-.776-.504-61.105c.42-2.748 1.571-4.507 2.844-7.182 0 0-1.08-.417-2.34-.776-.031 2.041 0 2.328-.156 3.88-3.743 6.984-13.1 5.432-16.22.776a8.44 8.44 0 01-.682-1.237c-.098-1.091-.098-2.242-.098-3.419l-1.559.776c1.453 3.622 1.717 4.64 1.805 9.618l-.246 59.445z" fill="#A62E41"/><path d="M174.459 390.928h67.485a5.538 5.538 0 003.423-1.19 5.494 5.494 0 001.942-3.047l5.708-24.288a7.596 7.596 0 00-1.685-6.271 7.66 7.66 0 00-2.658-2.015 7.706 7.706 0 00-3.268-.7l-77.31.528a7.72 7.72 0 00-5.902 2.828 7.644 7.644 0 00-1.495 2.99 7.598 7.598 0 00-.074 3.338l8.64 24.18a5.502 5.502 0 002.017 2.642 5.534 5.534 0 003.177 1.005z" fill="#fff"/><path d="M215.773 353.634l-47.677.311a7.703 7.703 0 00-5.902 2.828 7.64 7.64 0 00-1.495 2.989 7.602 7.602 0 00-.074 3.339l8.64 24.18a5.502 5.502 0 002.017 2.642 5.549 5.549 0 003.177 1.005h12.118l29.196-37.294z" fill="url(#paint20_linear)"/><path d="M206.041 381.585c3.756 0 6.8-2.8 6.8-6.254 0-3.454-3.044-6.254-6.8-6.254-3.755 0-6.8 2.8-6.8 6.254 0 3.454 3.045 6.254 6.8 6.254z" fill="#61A6FF"/><path d="M201.394 287.211c3.243 1.134 5.092 1.209 8.577 0" stroke="#EA908A" stroke-width=".5"/></g><g filter="url(#filter9_f)"><ellipse cx="398.4" cy="396.714" rx="47.602" ry="12.973" fill="#000" fill-opacity=".3"/></g><g clip-path="url(#clip1)"><path d="M372.071 484.039s1.49 3.027-.298 4.251c-1.879 1.204-1.554 1.267-1.8 2.827-.155 1.58 1.095 7.169 2.084 13.08.899 5.892-4.643 10.38-8.389 7.949-3.746-2.43-.006-17.373-.047-20.23-.041-2.857-.396-3.409.34-5.906.736-2.498 1.42-5.197 3.495-5.124 1.965.143 3.925 1.958 4.615 3.153z" fill="#B4D1FA" stroke="#263238" stroke-width=".5" stroke-miterlimit="10" stroke-linecap="round" stroke-linejoin="round"/><mask id="a" maskUnits="userSpaceOnUse" x="361" y="480" width="12" height="33"><path d="M371.876 484.177s1.464 2.974-.292 4.176c-1.846 1.184-1.527 1.245-1.768 2.778-.153 1.552 1.075 7.043 2.047 12.851.883 5.788-4.562 10.197-8.242 7.81-3.68-2.388-.006-17.069-.046-19.876-.041-2.807-.389-3.349.334-5.803.723-2.454 1.395-5.105 3.434-5.034 1.93.141 3.856 1.924 4.533 3.098z" fill="#B4D1FA" stroke="#263238" stroke-width=".5" stroke-miterlimit="10" stroke-linecap="round" stroke-linejoin="round"/></mask><g mask="url(#a)"><path d="M362.113 504.403c2.344.681 7.498.935 8.847 2.24m-9.333-5.673c2.597.542 8.402 2.235 9.575 3.795m-9.089-7.21c2.564.363 8.811 2.05 9.476 3.259m-8.015-7.406c2.026.461 6.926 2.061 7.767 3.016m-6.208-6.627c1.684 1.778 6.032 2.994 6.277 2.457m-8.016-7.406c2.31 5.682 9.718 5.353 10.453 2.526" stroke="#0A3D76" stroke-width="2" stroke-linecap="round"/></g><path d="M356.733 482.333s-2.135 3.061-.65 4.637c1.579 1.577 4.867 1.589 4.774 3.166 1.183 6.142 1.677 8.504 3.311 11.102 3.342 5.312 8.829 11.026 13.008 9.449 4.178-1.577-7.568-16.063-9.697-19.37-.473-1.181-1.46-3.543-1.46-5.552-.186-2.597-.279-5.38-2.321-5.751-1.95-.278-6.036 1.299-6.965 2.319z" fill="#B4D1FA" stroke="#263238" stroke-width=".5" stroke-miterlimit="10" stroke-linecap="round" stroke-linejoin="round"/><path d="M376.875 505.536c-2.69-.978-6.119.881-8.45 1.148 2.969 3.849 6.037 4.915 8.906 3.849 1.166-.445.229-3.17-.456-4.997z" fill="#C43B55" stroke="#263238" stroke-width=".5" stroke-miterlimit="10" stroke-linecap="round" stroke-linejoin="round"/><mask id="b" maskUnits="userSpaceOnUse" x="355" y="480" width="24" height="31"><path d="M356.678 482.573s-1.991 2.875-.48 4.429c1.607 1.555 4.771 1.711 4.677 3.266 1.203 6.056 1.705 8.385 3.369 10.947 3.4 5.239 8.983 10.872 13.235 9.318 4.252-1.555-7.701-15.84-9.866-19.101-.482-1.164-1.671-3.869-1.671-5.85-.189-2.561-.099-4.929-2.177-5.295-1.984-.274-6.142 1.28-7.087 2.286z" fill="#B4D1FA"/></mask><g mask="url(#b)"><path d="M367.009 504.758c2.133-.71 7.182-2.059 8.888-1.775m-11.377-1.421c2.252-.947 7.537-2.699 9.244-2.131m-10.666-.71c2.133-1.065 7.751-3.054 8.888-2.486m-9.955-1.42c1.778-.71 6.329-2.06 7.466-1.776m-8.177-1.775c1.778-.474 5.76-1.705 6.044-1.421m-9.955-1.42c4.104.693 9.6-3.196 9.244-3.551" stroke="#0A3D76" stroke-width="2" stroke-linecap="round"/></g><path d="M362.056 507.285c2.9-.234 6.865 1.09 9.059 2.004-1.755 3.165-5.299 4.662-7.787 2.796-1.007-.77-1.334-2.599-1.272-4.8z" fill="#C43B55" stroke="#263238" stroke-width=".5" stroke-miterlimit="10" stroke-linecap="round" stroke-linejoin="round"/><path d="M374.397 475.375s-1.071 7.358-1.81 9.536c-.633 2.249-4.614 2.529-5.685-.076-1.072-2.605-.902-10.559-.902-10.559l6.448.042 1.949 1.057zm-22.399.188s4.78 7.508 6.08 9.456c1.195 1.789 5.063 1.488 5.527-1.294.464-2.783-3.65-10.836-3.65-10.836l-7.307 2.674h-.65z" fill="#FABDAC"/><path d="M360.286 317.61s-4.537 21.377-4.537 30.541c1.227 3.873 17.164 8.454 17.164 8.454l-.472-6.887-7.178-3.698c.34-7.063 3.709-19.532 3.709-23.083v-8.878l-8.686 3.551z" fill="#FFCFAE"/><path d="M368.996 323.887c-1.159 6.508-2.226 12.19-3.713 20.527.002-.396-.051-.924-.073-1.516-.298-8.178 1.773-19.057 2.009-20.786 1.402-.234.999 1.905 1.777 1.775z" fill="#EAAB85"/><path d="M367.294 371l.79 11.688-37.214 13.754a12.968 12.968 0 00-5.866 6.492 12.932 12.932 0 00-.4 8.732l27.467 68.447 10.25-3.288-14.252-54.333c-.311-2.102-1.261-6.455 0-8.167 1.262-1.713 4.978-3.907 4.978-3.907l11.031-6.642 18.531-10.978-20.288 11.11a12.966 12.966 0 00-4.173 11.381l7.405 62.472 9.385 2.352 5.485-58.331c.146-2.19.064-5.468 1.423-7.194 1.358-1.726 6.435-3.51 8.532-4.17l19.911-4.976c1.448-.889 5.511-1.775 7.11-4.612.962-1.706 1.793-4.804 2.134-8.032.947-8.966-4.978-16.471-7.617-21.798h-44.622z" fill="#37354C"/><path d="M421.119 298.698c-18.339 2.712-38.909 2.413-49.044-7.928 0 0-10.768-30.991 0-45.765 7.128-9.781 15.867-10.811 23.08-7.928 0 0 2.471-2.705 6.79.824 17.37 20.077 12.322 35.211 19.174 60.797z" fill="#412716"/><path d="M406.695 251.852c-5.755-4.295-14.263-7.223-20.555-5.766-8.94 2.172-11.956 14.579-18.752 11.892-.878 28.018 11.203 55.33 21.276 74.953 18.75 8.137 27.82 4.646 35.945-11.277 0 0-.356-38.289-11.062-62.235-.853-2.043-2.862-4.59-6.852-7.567z" fill="#3C2415"/><path d="M380.002 258.397c-10.663 2.59-8.617 41.096.455 73.727 14.362 1.827 25.434 1.838 37.004-11.116-6.359-31.355-26.316-65.318-37.459-62.611z" fill="#3B2415"/><path d="M375.376 271.505c-1.638-2.773-3.893-4.285-4.99-3.387-1.096.898-.738 3.893.922 6.664 1.661 2.77 3.894 4.284 4.99 3.386 1.097-.898.703-3.91-.922-6.663z" fill="#ECBC9A"/><path d="M376.233 274.092c-.51-.993-1.46-1.406-2.105-.841a2.304 2.304 0 00-.234 2.726c.531 1.058 1.462 1.416 2.115.908a2.242 2.242 0 00.224-2.793zm9.544 38.547s-2.857-6.968-1.48-13.002c-.537-3.552-1.069-8.169-1.781-11.011l17.237-7.454c.07-.293.003 14.561 3.915 22.731 2.627-.638-5.151 3.906-5.151 3.906l-12.74 4.83z" fill="#FFCFAE"/><path d="M399.461 281.652c-7.919 4.674-12.765 7.585-17.734 7.219l.031.128c8.918 10.106 18.161-.04 17.718-6.194l-.015-1.153z" fill="#EAAB85"/><path d="M372.982 277.185c1.978 6.798 11.457 17.383 18.153 13.11 6.696-4.274 7.973-6.665 9.389-9.385 1.837-3.533 1.531-5.393 1.309-10.682-.28-6.655-.608-11.691-1.382-13.305-6.713-11.742-11.266-10.313-15.791-9.514-9.048 3.934-14.337 10.375-13.444 20.918.103 1.214.107-1.021 1.766 8.858z" fill="#FFCFAE"/><path d="M375.556 259.226c-2.366 7.321-6.155 10.933-7.497 11l1.689-16.578 18.921-16.526 20.884 14.608 1.502 16.502c-23.422-17.717-13.774-26.116-20.002-24.006-6.228 2.11-12.538 5.848-15.497 15z" fill="#412616"/><path d="M387.908 281.921a.984.984 0 00-.541.101c-.33.166-.544.3-.632.58.683-.085 1.368-.278 2.112-.592l-.939-.089zm-1.918.156a1.014 1.014 0 00-.683.006l-.654.241c.649.091 1.47.355 2.082.278-.003-.253-.303-.372-.745-.525z" fill="#EA908A"/><path d="M384.653 282.324s-1.101.208-2.051-.112c3.169 2.976 7.193 1.057 8.335-.674-.674.394-2.09.472-2.09.472-.744.314-1.429.507-2.112.592-.612.077-1.433-.187-2.082-.278z" fill="#EA908A"/><path d="M382.602 282.212l.079-.237a.25.25 0 00-.251.419l.172-.182zm8.335-.674l.209.138a.25.25 0 00-.335-.354l.126.216zm-4.202 1.064l.031.248-.031-.248zm-.745-.525l-.082.236.082-.236zm-3.468.372c.515.173 1.061.201 1.469.189.206-.007.382-.023.506-.039.062-.007.112-.015.146-.02l.04-.007.012-.002h.004v-.001l-.046-.245-.046-.246h-.002l-.008.002-.032.005-.13.018a5.06 5.06 0 01-.459.035c-.38.012-.859-.016-1.295-.163l-.159.474zm2.217.109l.654-.24-.173-.469-.653.24.172.469zm-.121.013c.319.045.66.129 1.044.201.365.068.756.122 1.104.078l-.062-.496c-.265.033-.59-.006-.95-.074-.343-.064-.736-.158-1.066-.204l-.07.495zm1.29-.258c.227.079.385.138.488.202.097.06.089.087.089.09l.5-.006c-.003-.249-.162-.408-.327-.51a3.11 3.11 0 00-.586-.248l-.164.472zm1.066.364c.053-.17.173-.264.506-.432l-.226-.447c-.326.165-.635.339-.757.73l.477.149zm-.208.173c.71-.088 1.417-.289 2.178-.61l-.194-.461c-.727.307-1.39.494-2.046.575l.062.496zm2.081-.84l.014.249h.005l.013-.001.049-.003.174-.015c.147-.014.351-.036.576-.072.44-.068 1.004-.191 1.385-.414l-.252-.432c-.293.171-.774.284-1.21.353-.213.033-.406.054-.546.068-.069.006-.125.011-.164.013a.458.458 0 01-.044.003l-.011.001h-.003l.014.25zm-.962.16l.939.089.047-.498-.939-.089-.047.498zm2.843-.769c-.529.802-1.76 1.682-3.25 1.995-1.475.309-3.187.059-4.705-1.366l-.343.364c1.652 1.551 3.536 1.829 5.151 1.491 1.6-.336 2.952-1.281 3.565-2.209l-.418-.275zm-3.248.844a.74.74 0 01.405-.075l.047-.498a1.247 1.247 0 00-.678.126l.226.447zm-2.087.073a.765.765 0 01.515-.005l.164-.472a1.265 1.265 0 00-.852.008l.173.469z" fill="#EA908A"/><path d="M393.662 262.952c-.898-.188-1.161-.046-2.424.142a6.789 6.789 0 00-1.622.671s-1.074 1.45-1.201 1.636c-.221.338-.074.66.334.655.409-.005.833-.192 1.18-.175 2.657.034 3.236.111 4.632-.69a8.15 8.15 0 001.559-1.092 6.352 6.352 0 00-2.458-1.147z" fill="#fff"/><path d="M391.7 263.726a1.486 1.486 0 00-1.172 1.747c.042.21.137.291.253.456 1.114-.029 1.643-.03 2.647-.355a1.49 1.49 0 00-1.728-1.848z" fill="#28160D" stroke="#1C1105" stroke-width=".2" stroke-miterlimit="10"/><path d="M392.168 265.971a.79.79 0 10-.307-1.548.79.79 0 10.307 1.548z" fill="#000"/><path opacity=".77" d="M392.758 265.249a.425.425 0 10-.164-.834.425.425 0 00.164.834z" fill="#fff"/><path d="M388.36 265.811l1.258-1.864c.114-.168.273-.3.459-.382l.595-.252c.304-.128.627-.205.956-.229l1.607-.11c.328-.023.657.03.961.153l1.786.744.535-.05-1.734-1.147a2.57 2.57 0 00-1.156-.189l-1.602.11a3.323 3.323 0 00-1.097.267l-.591.251a3.145 3.145 0 00-1.07.59l-1.474 2.261.567-.153z" fill="#D3A688"/><path opacity=".5" d="M388.213 265.9l1.258-1.863c.135-.201.325-.359.547-.456l.591-.251a3.23 3.23 0 011.056-.252l1.606-.11c.362-.027.725.032 1.06.173l1.76.743" stroke="#0A0001" stroke-width=".3" stroke-miterlimit="10"/><path d="M388.453 266.087l.662-.099a5.092 5.092 0 011.047-.048c.84.001 2.593.161 4.01-.481.088-.044.698-.487.779-.546l.779-.546" stroke="#472A22" stroke-width=".2" stroke-miterlimit="10"/><path d="M375.472 265.774c.784-.476 1.079-.428 2.333-.67a6.82 6.82 0 011.753.096s1.496 1.011 1.678 1.145c.321.246.289.598-.098.729-.386.13-.849.094-1.17.225-2.495.912-3.016 1.177-4.599.884a8.17 8.17 0 01-1.834-.513 6.336 6.336 0 011.937-1.896z" fill="#fff"/><path d="M381.421 266.713l-1.807-1.341a1.105 1.105 0 00-.561-.209l-.645-.04a3.047 3.047 0 00-.978.101l-1.552.429a2.166 2.166 0 00-.856.463l-1.437 1.294-.521.13 1.254-1.657a2.563 2.563 0 011.028-.561l1.548-.427a3.324 3.324 0 011.123-.112l.641.041a3.16 3.16 0 011.206.201l2.142 1.644-.585.044z" fill="#D3A688"/><path opacity=".5" d="M381.592 266.749l-1.807-1.341a1.264 1.264 0 00-.668-.248l-.641-.042a3.253 3.253 0 00-1.08.113l-1.552.428c-.35.095-.673.271-.941.514l-1.413 1.285" stroke="#0A0001" stroke-width=".3" stroke-miterlimit="10"/><path d="M381.419 267.006l-.656.126a5.034 5.034 0 00-1.005.301c-.792.28-2.392 1.012-3.942.875-.097-.011-.82-.227-.917-.256l-.916-.257" stroke="#472A22" stroke-width=".2" stroke-miterlimit="10"/><path d="M376.81 265.931a1.487 1.487 0 00-.93 2.313c1.114-.029 1.654-.14 2.658-.465a1.49 1.49 0 00-1.728-1.848z" fill="#28160D" stroke="#1C1105" stroke-width=".2" stroke-miterlimit="10"/><path d="M377.281 268.176a.788.788 0 10-.307-1.547.789.789 0 10.307 1.547z" fill="#000"/><path opacity=".77" d="M377.87 267.454a.426.426 0 10-.167-.83.426.426 0 00.167.83z" fill="#fff"/><path d="M401.13 265.864c1.015-3.14 2.911-4.414 4.246-2.819 1.335 1.595 1.078 5.287.055 8.44-1.023 3.153-2.926 4.313-3.72 2.946-1.341-1.581-1.589-5.429-.581-8.567z" fill="#FFCFAE"/><path d="M402.375 267.995c.774-1.883 1.915-2.704 2.54-1.833.626.871.48 3.116-.303 4.987-.783 1.872-1.923 2.717-2.575 1.834-.653-.883-.454-3.116.338-4.988z" fill="#EAAB85"/><path d="M401.891 271.336c.255-1.161.884-1.81 1.41-1.426.526.383.73 1.635.483 2.794-.248 1.16-.887 1.801-1.41 1.426-.524-.374-.731-1.605-.483-2.794z" fill="#FFCFAE"/><path d="M371.226 265.35c.741-1.388 3.698-5.527 9.079-3.654.339.118.503.163.738.727-4.77-.704-7.094-.067-9.817 2.927zm26.969-4.877c-1.287-1.029-5.919-3.792-10.957.192-.317.25-.475.361-.521.996 4.81-2.615 7.507-2.949 11.478-1.188z" fill="#412716"/><path d="M384.198 268.037c.499 3.166-.453 4.927-1.295 7.941.027.169.09.33.186.474.358.558 1.618.448 3.008-.174.526-.168.816-.125 1.321.02" stroke="#D3A688" stroke-width=".5" stroke-miterlimit="10"/><path d="M416.704 303.051c-2.604-3.122-12.187-6.267-15.288-6.03 0 1.768-1.066 7.805-8.888 8.515-7.822.711-8.533-8.515-8.533-8.515-3.101-.356-7.15 1.415-11.731 2.834-5.886 1.823-11.196 8.878-13.684 21.262 3.911 2.795 10.797 4.661 10.797 4.661l1.693-7.457c-1.695 9.581-3.902 12.474 1.194 20.736 2.818 4.57.718 13.185.718 13.185s.306 5.681-3.687 22.548c-.353 1.494 1.031 2.834 2.537 2.534 8.632-1.717 11.523 1.081 18.83 4.242 9.927 2.105 18.107 4.851 27.322 1.466 1.064-.391 1.514-1.633 1.17-2.714-2.648-8.335-4.166-29.857-4.166-34.414 0-4.23 1.686-35.072 1.716-42.853z" fill="#A62E41"/><path d="M395.225 367.807l-1.674-.912c-1.15.567-2.936.554-3.309.623l-4.035.844a3.336 3.336 0 00-2.25 1.559l-4.414 7.333c.34.716 1.387 1.152 3.109-1.793l-1.946 2.915c.157.607.815.879 2.286-1.222-.404.755-.669 1.317-.605 1.384l.004.005c.207.218 1.04 1.441 5.265-5.327.36-.295.601-.241-.656 4.434.109.927.983 1.834 2.949-4.05 1.277-.261 3.712-1.55 4.557-3.021l2.343-1.486c-1.493-.267-1.515-.358-1.624-1.286z" fill="#FFCFAE"/><path d="M382.652 375.461c-1.722 2.945-2.769 2.509-3.109 1.793l4.414-7.333a3.336 3.336 0 012.25-1.559l4.035-.844c.373-.069 2.159-.056 3.309-.623l1.674.912c.109.928.131 1.019 1.624 1.286l-2.343 1.486c-.845 1.471-3.28 2.76-4.557 3.021-1.966 5.884-2.84 4.977-2.949 4.05 1.257-4.675 1.016-4.729.656-4.434-4.225 6.768-5.058 5.545-5.265 5.327l-.004-.005c-.064-.067.201-.629.605-1.384m-.34-1.693c.291-.498.602-1.093.931-1.8l-.931 1.8zm0 0l-1.946 2.915c.157.607.815.879 2.286-1.222m0 0c.582-.83 1.456-1.508 2.311-3.205-.593.985-1.696 2.057-2.311 3.205z" stroke="#EAAB85" stroke-width=".2"/><path d="M413.15 343.137c0-.383-.576-10.733 0-14.89-1.337 3.913-1.881 8.53-5.373 10.274-15.146 6.302-31.66.91-36.226 0 1.006 2.597 2.877 8.348 2.489 11.008 8.547-11.894 37.093.816 37.688 0 .595-.815 1.676 3.342 1.676 3.342-.447-3.138-.254-6.893-.254-9.734z" fill="#8B2535"/><path d="M421.327 323.292c.519.009.502 23.972-1.839 33.703-.372 1.873-24.937 13.253-24.937 13.253l-2.194-2.434c8.045-6.009 12.993-10.81 19.015-15.757l.912-23.401.51-5.364h8.533z" fill="#FFCFAE"/><path d="M412.439 323.292c-.001 15.537-1.423 23.251-.712 28.765 0 0 1.442-5.607 1.422-6.392-.189-7.589 1.067-19.177 1.067-22.373h-1.777z" fill="#EAAB85"/><path d="M404.461 386.076H349.21v-4.044h55.251a2.022 2.022 0 110 4.044z" fill="#fff"/><path d="M389.355 386.076h-53.383a5.19 5.19 0 01-3.14-1.085 5.162 5.162 0 01-1.834-2.765l-9.403-35.375a5.184 5.184 0 01.903-4.491 5.188 5.188 0 014.12-2.022h46.516a5.195 5.195 0 013.173 1.075 5.172 5.172 0 011.85 2.787l11.198 41.876z" fill="#fff"/><path d="M326.617 340.351a5.2 5.2 0 00-4.114 2.018 5.185 5.185 0 00-.909 4.483l9.403 35.375a5.21 5.21 0 001.747 2.687l32.345-44.563h-38.472z" fill="url(#paint21_linear)"/><path d="M357.919 366.343a3.18 3.18 0 01-1.727 3.907 3.193 3.193 0 01-1.524.269 5.818 5.818 0 01-3.351-1.227 5.794 5.794 0 01-1.999-2.949 3.186 3.186 0 01.517-2.948 3.192 3.192 0 012.734-1.229 5.83 5.83 0 013.348 1.229 5.81 5.81 0 012.002 2.948z" fill="#1885FF"/><path d="M422.393 326.133c1.778-20.241-6.044-23.082-6.755-23.793-4.978 1.776-7.467 17.52-6.4 23.793h13.155z" fill="#A22D40"/></g><path fill-rule="evenodd" clip-rule="evenodd" d="M549.412 279.489l-9.067-9.061 1.773-1.772 9.067 9.06a4.592 4.592 0 010 6.498l-9.067 9.061-1.773-1.772 9.067-9.061a2.087 2.087 0 000-2.953zm-43.31 0l9.067-9.061-1.773-1.772-9.068 9.06a4.594 4.594 0 000 6.498l9.068 9.061 1.773-1.772-9.067-9.061a2.085 2.085 0 010-2.953zm14.358 18.164l13.065-34.27 2.344.892-13.065 34.271-2.344-.893z" fill="#EBF2F9"/><path d="M590.495 203.553l-3.527-1.631a.859.859 0 01-.491-.749c-.011-.41-.039-.823-.084-1.237-.08-.758-.22-1.507-.42-2.242a.842.842 0 01.309-.9l3.232-2.448a.83.83 0 00.199-1.112l-1.987-3.12a.828.828 0 00-1.057-.298l-3.36 1.637a.83.83 0 01-.982-.177 15.037 15.037 0 00-3.782-2.834.841.841 0 01-.423-.946l.545-2.198a.857.857 0 00-.536-1.002l-3.469-1.243a.83.83 0 00-1.049.432l-1.226 2.618-.297.639a15.192 15.192 0 00-4.845.63.825.825 0 01-.906-.288l-1.981-2.591a.86.86 0 00-1.145-.203l-2.399 1.508-.688.435a.862.862 0 00-.317 1.112l1.375 2.792a.82.82 0 01-.155.961 14.87 14.87 0 00-1.983 2.485 2.384 2.384 0 00-.147.223.85.85 0 01-.944.382l-3.59-.873a.87.87 0 00-.657.108.86.86 0 00-.347.424l-1.256 3.436a.848.848 0 00.446 1.065l3.68 1.695a.821.821 0 01.484.798 15.125 15.125 0 00.259 3.507.868.868 0 01-.329.854l-3.107 2.355a.825.825 0 00-.2 1.102l1.972 3.085a.868.868 0 00.5.372.88.88 0 00.622-.056l2.658-1.296a.86.86 0 011.037.207 14.953 14.953 0 003.46 3.042.851.851 0 01.374.924l-.791 3.22a.876.876 0 00.552 1.027l3.442 1.242a.84.84 0 001.054-.436l.073-.152 1.422-3.042a.857.857 0 01.847-.495 14.924 14.924 0 004.046-.27.846.846 0 01.849.311l2.011 2.631a.873.873 0 001.16.209l3.091-1.952a.857.857 0 00.31-1.094l-1.099-2.223a.852.852 0 01.217-1.024 14.86 14.86 0 003.69-4.579.847.847 0 01.333-.346.846.846 0 01.614-.084l2.906.71a.85.85 0 00.604-.076.85.85 0 00.401-.456l.029-.079 1.227-3.348a.86.86 0 00-.454-1.078zm-26.821-3.452a9.865 9.865 0 01.48-1.787c.429-1.153 1.634-2.654 2.677-3.314.111-.072.224-.139.335-.206 6.878-4.008 14.619 2.298 11.898 9.867-.357.989-1.249 2.202-2.17 2.991a5.24 5.24 0 01-.632.468 9.268 9.268 0 01-2.894 1.203 8.034 8.034 0 01-9.694-9.222zm4.563-95.39l-2.613-1.191a.632.632 0 01-.364-.547c-.008-.3-.028-.602-.062-.905a10.264 10.264 0 00-.311-1.638.608.608 0 01.229-.657l2.394-1.79a.602.602 0 00.148-.812l-1.472-2.28a.621.621 0 00-.783-.217l-2.489 1.196a.625.625 0 01-.727-.13 11.142 11.142 0 00-2.802-2.07.62.62 0 01-.314-.692l.404-1.606a.618.618 0 00-.057-.44.637.637 0 00-.339-.293l-2.57-.908a.625.625 0 00-.526.042.608.608 0 00-.252.273l-.907 1.914-.22.466a11.364 11.364 0 00-3.59.46.622.622 0 01-.671-.21l-1.467-1.892a.646.646 0 00-.848-.148l-1.778 1.101-.508.318a.622.622 0 00-.236.812l1.019 2.04a.599.599 0 01-.115.703 10.902 10.902 0 00-1.469 1.816 1.816 1.816 0 00-.108.163.63.63 0 01-.7.279l-2.66-.638a.65.65 0 00-.486.08.628.628 0 00-.257.309l-.93 2.511a.61.61 0 00.011.452.63.63 0 00.319.326l2.726 1.239a.595.595 0 01.359.583 10.771 10.771 0 00.191 2.562.624.624 0 01-.244.625l-2.301 1.72a.603.603 0 00-.148.806l1.46 2.254a.656.656 0 00.832.231l1.969-.947a.64.64 0 01.768.152 11.06 11.06 0 002.563 2.223.62.62 0 01.277.675l-.586 2.353a.625.625 0 00.059.452c.075.138.2.244.35.298l2.55.908a.632.632 0 00.78-.318l.054-.112 1.054-2.223a.64.64 0 01.627-.361 11.21 11.21 0 002.997-.198.625.625 0 01.629.228l1.489 1.922a.65.65 0 00.4.24.651.651 0 00.46-.087l2.289-1.426a.62.62 0 00.23-.8l-.814-1.624a.625.625 0 01.042-.619.7.7 0 01.119-.13 10.883 10.883 0 002.733-3.346.614.614 0 01.595-.33.631.631 0 01.106.016l2.153.519a.644.644 0 00.448-.056.619.619 0 00.296-.333l.022-.058.909-2.447a.62.62 0 00-.012-.458.64.64 0 00-.324-.33zm-19.867-2.522a7.07 7.07 0 01.355-1.306c.318-.843 1.211-1.939 1.983-2.421.082-.053.166-.102.248-.15 5.094-2.93 10.829 1.678 8.813 7.209-.264.723-.925 1.609-1.607 2.186-.147.126-.304.24-.468.342a6.923 6.923 0 01-2.144.879c-4.077.89-7.884-2.472-7.18-6.739zM81.862 88.787l-4.44-2.101a1.09 1.09 0 01-.444-.394 1.11 1.11 0 01-.175-.571 19.661 19.661 0 00-.106-1.595c-.1-.975-.277-1.941-.528-2.888a1.108 1.108 0 01.389-1.16l4.07-3.153a1.087 1.087 0 00.25-1.433l-2.502-4.021a1.041 1.041 0 00-.594-.45 1.023 1.023 0 00-.737.067l-4.232 2.11a1.028 1.028 0 01-1.236-.23 18.969 18.969 0 00-4.763-3.65 1.09 1.09 0 01-.47-.519 1.113 1.113 0 01-.063-.701l.687-2.832a1.123 1.123 0 00-.097-.775 1.093 1.093 0 00-.577-.517l-4.37-1.6a1.03 1.03 0 00-.893.074c-.188.111-.338.28-.428.482l-1.543 3.373-.374.823a18.671 18.671 0 00-6.102.813 1.024 1.024 0 01-.628-.002 1.042 1.042 0 01-.512-.37l-2.495-3.337a1.066 1.066 0 00-1.442-.262l-3.021 1.943-.865.56a1.112 1.112 0 00-.47.638c-.074.265-.05.547.07.794l1.731 3.598a1.075 1.075 0 01-.195 1.239 19.105 19.105 0 00-2.497 3.2 3.257 3.257 0 00-.184.289.561.561 0 01-.066.094 1.067 1.067 0 01-.502.373c-.2.07-.416.079-.621.024l-4.522-1.125a1.071 1.071 0 00-.826.14 1.1 1.1 0 00-.438.546l-1.581 4.427c-.092.26-.086.543.018.797.104.255.298.46.544.575l4.634 2.185a1.067 1.067 0 01.609 1.028 19.793 19.793 0 00.326 4.518 1.138 1.138 0 01-.415 1.1l-3.911 3.034a1.084 1.084 0 00-.252 1.42l2.482 3.976c.145.233.37.404.63.479.261.075.54.05.784-.072l3.347-1.67a1.06 1.06 0 011.306.267 18.98 18.98 0 004.356 3.92c.192.122.341.303.426.517.085.214.1.449.045.673l-.995 4.149c-.064.269-.029.552.099.796s.34.432.595.527l4.335 1.6c.25.093.526.087.772-.017.245-.104.444-.298.555-.544l.091-.197 1.792-3.919c.092-.205.244-.375.435-.489.19-.114.41-.165.631-.148a18.467 18.467 0 005.095-.349 1.05 1.05 0 011.07.402l2.531 3.389a1.083 1.083 0 001.46.27l3.894-2.515c.106-.071.2-.159.278-.261a1.125 1.125 0 00.113-1.15l-1.385-2.863a1.13 1.13 0 01.072-1.091 1.16 1.16 0 01.201-.228 19.08 19.08 0 004.647-5.901c.094-.187.24-.341.42-.445a1.043 1.043 0 01.772-.108l3.66.914c.257.064.528.03.761-.097a1.09 1.09 0 00.504-.589l.037-.101 1.546-4.314c.092-.263.085-.55-.021-.808a1.106 1.106 0 00-.552-.581zM48.09 84.339c.13-.785.332-1.556.603-2.302.54-1.486 2.059-3.42 3.371-4.27.14-.092.282-.18.423-.265 8.66-5.164 18.408 2.96 14.982 12.712-.45 1.275-1.573 2.838-2.733 3.855a6.61 6.61 0 01-.795.602 11.54 11.54 0 01-3.645 1.55c-6.93 1.569-13.403-4.358-12.206-11.882z" fill="#EBF2F9"/><path d="M20.257 299.418l2.957 3.027m-13.198-13.261l5.48 5.478m3.824-4.829l20.627 20.684M8.788 279.383l4.183 4.18m21.134 12.54l18.175 18.09M6.697 268.716L26.1 288.031m-4.184-12.828l32.022 32.071m-45.293-45.26l6.779 6.774m32.961 24.288l7.717 7.712M1 245.726l39.307 39.206m-7.789-16.36l38.37 38.342m-55.319-55.279l8.87 8.937m15.507 6.847l24.81 24.792m-50.125-50.089l18.32 18.306m27.479 18.81l12.91 12.901m-47.53-47.495l25.172 25.153M47.88 258.05l17.454 17.513m-37.432-37.405l13.126 13.045m22.358 13.765l6.851 6.847M38.36 239.96l17.237 17.225m4.255-4.324l4.183 4.18m-11.539-11.532l2.885 2.883" stroke="#EBF2F9" stroke-width="1.153" stroke-miterlimit="10" stroke-linecap="round" stroke-linejoin="round"/><path fill-rule="evenodd" clip-rule="evenodd" d="M180.536 17.877L170.472 7.82l1.968-1.967 10.065 10.057a5.097 5.097 0 010 7.212L172.44 33.18l-1.968-1.967 10.064-10.057a2.317 2.317 0 000-3.278zm-48.073 0L142.528 7.82l-1.969-1.967-10.064 10.057a5.097 5.097 0 000 7.212l10.064 10.057 1.969-1.967-10.065-10.057a2.317 2.317 0 010-3.278zM148.4 38.04L162.902 0l2.601.99-14.502 38.04-2.601-.99z" fill="#EBF2F9"/><defs><linearGradient id="paint0_linear" x1="289.854" y1="316.715" x2="295.79" y2="551.521" gradientUnits="userSpaceOnUse"><stop stop-color="#B4D1FA" stop-opacity="0"/><stop offset="1" stop-opacity=".2"/></linearGradient><linearGradient id="paint1_linear" x1="149.574" y1="385.903" x2="170.311" y2="539.807" gradientUnits="userSpaceOnUse"><stop stop-color="#B4D1FA" stop-opacity="0"/><stop offset="1" stop-opacity=".2"/></linearGradient><linearGradient id="paint2_linear" x1="195.012" y1="385.903" x2="215.75" y2="539.807" gradientUnits="userSpaceOnUse"><stop stop-color="#B4D1FA" stop-opacity="0"/><stop offset="1" stop-opacity=".2"/></linearGradient><linearGradient id="paint3_linear" x1="178.98" y1="101.814" x2="147.003" y2="97.691" gradientUnits="userSpaceOnUse"><stop stop-color="#A62E41"/><stop offset="1" stop-color="#E13152"/></linearGradient><linearGradient id="paint4_linear" x1="163.817" y1="116.624" x2="146.103" y2="115.373" gradientUnits="userSpaceOnUse"><stop stop-color="#A62E41"/><stop offset="1" stop-color="#E13152"/></linearGradient><linearGradient id="paint5_linear" x1="163.817" y1="131.434" x2="146.103" y2="130.184" gradientUnits="userSpaceOnUse"><stop stop-color="#A62E41"/><stop offset="1" stop-color="#E13152"/></linearGradient><linearGradient id="paint6_linear" x1="163.817" y1="190.676" x2="146.103" y2="189.425" gradientUnits="userSpaceOnUse"><stop stop-color="#A62E41"/><stop offset="1" stop-color="#E13152"/></linearGradient><linearGradient id="paint7_linear" x1="163.817" y1="205.486" x2="146.103" y2="204.236" gradientUnits="userSpaceOnUse"><stop stop-color="#A62E41"/><stop offset="1" stop-color="#E13152"/></linearGradient><linearGradient id="paint8_linear" x1="186.644" y1="220.297" x2="162.112" y2="217.887" gradientUnits="userSpaceOnUse"><stop stop-color="#A62E41"/><stop offset="1" stop-color="#E13152"/></linearGradient><linearGradient id="paint9_linear" x1="196.55" y1="235.107" x2="172.771" y2="232.844" gradientUnits="userSpaceOnUse"><stop stop-color="#A62E41"/><stop offset="1" stop-color="#E13152"/></linearGradient><linearGradient id="paint10_linear" x1="179.462" y1="146.245" x2="161.748" y2="144.994" gradientUnits="userSpaceOnUse"><stop stop-color="#A62E41"/><stop offset="1" stop-color="#E13152"/></linearGradient><linearGradient id="paint11_linear" x1="179.462" y1="161.055" x2="161.748" y2="159.805" gradientUnits="userSpaceOnUse"><stop stop-color="#A62E41"/><stop offset="1" stop-color="#E13152"/></linearGradient><linearGradient id="paint12_linear" x1="179.462" y1="175.865" x2="161.748" y2="174.615" gradientUnits="userSpaceOnUse"><stop stop-color="#A62E41"/><stop offset="1" stop-color="#E13152"/></linearGradient><linearGradient id="paint13_linear" x1="249.273" y1="146.245" x2="226.248" y2="144.124" gradientUnits="userSpaceOnUse"><stop stop-color="#A62E41"/><stop offset="1" stop-color="#E13152"/></linearGradient><linearGradient id="paint14_linear" x1="179.462" y1="249.917" x2="161.748" y2="248.667" gradientUnits="userSpaceOnUse"><stop stop-color="#A62E41"/><stop offset="1" stop-color="#E13152"/></linearGradient><linearGradient id="paint15_linear" x1="179.462" y1="264.728" x2="161.748" y2="263.477" gradientUnits="userSpaceOnUse"><stop stop-color="#A62E41"/><stop offset="1" stop-color="#E13152"/></linearGradient><linearGradient id="paint16_linear" x1="163.817" y1="280.361" x2="146.103" y2="279.11" gradientUnits="userSpaceOnUse"><stop stop-color="#A62E41"/><stop offset="1" stop-color="#E13152"/></linearGradient><linearGradient id="paint17_linear" x1="163.817" y1="294.348" x2="146.103" y2="293.098" gradientUnits="userSpaceOnUse"><stop stop-color="#A62E41"/><stop offset="1" stop-color="#E13152"/></linearGradient><linearGradient id="paint18_linear" x1="294.585" y1="249.917" x2="272.315" y2="247.935" gradientUnits="userSpaceOnUse"><stop stop-color="#A62E41"/><stop offset="1" stop-color="#E13152"/></linearGradient><linearGradient id="paint19_linear" x1="313.294" y1="388.786" x2="364.812" y2="518.237" gradientUnits="userSpaceOnUse"><stop stop-color="#B4D1FA" stop-opacity="0"/><stop offset="1" stop-opacity=".2"/></linearGradient><linearGradient id="paint20_linear" x1="199.464" y1="369.046" x2="122.519" y2="371.446" gradientUnits="userSpaceOnUse"><stop stop-color="#71A0DD" stop-opacity="0"/><stop offset="1" stop-color="#71A0DD" stop-opacity=".5"/></linearGradient><linearGradient id="paint21_linear" x1="352.21" y1="358.767" x2="291.418" y2="360.02" gradientUnits="userSpaceOnUse"><stop stop-color="#71A0DD" stop-opacity="0"/><stop offset="1" stop-color="#71A0DD" stop-opacity=".5"/></linearGradient><filter id="filter0_f" x="8.143" y="381.128" width="599.844" height="112.325" filterUnits="userSpaceOnUse" color-interpolation-filters="sRGB"><feFlood flood-opacity="0" result="BackgroundImageFix"/><feBlend in="SourceGraphic" in2="BackgroundImageFix" result="shape"/><feGaussianBlur stdDeviation="15" result="effect1_foregroundBlur"/></filter><filter id="filter1_f" x="147.574" y="415.975" width="41.144" height="105.26" filterUnits="userSpaceOnUse" color-interpolation-filters="sRGB"><feFlood flood-opacity="0" result="BackgroundImageFix"/><feBlend in="SourceGraphic" in2="BackgroundImageFix" result="shape"/><feGaussianBlur stdDeviation="1" result="effect1_foregroundBlur"/></filter><filter id="filter2_f" x="188.324" y="409.488" width="46.192" height="94.809" filterUnits="userSpaceOnUse" color-interpolation-filters="sRGB"><feFlood flood-opacity="0" result="BackgroundImageFix"/><feBlend in="SourceGraphic" in2="BackgroundImageFix" result="shape"/><feGaussianBlur stdDeviation="1" result="effect1_foregroundBlur"/></filter><filter id="filter3_d" x="52.535" y="73.644" width="476.252" height="347.556" filterUnits="userSpaceOnUse" color-interpolation-filters="sRGB"><feFlood flood-opacity="0" result="BackgroundImageFix"/><feColorMatrix in="SourceAlpha" values="0 0 0 0 0 0 0 0 0 0 0 0 0 0 0 0 0 0 127 0"/><feOffset dx="2" dy="2"/><feGaussianBlur stdDeviation="3"/><feColorMatrix values="0 0 0 0 0.0392157 0 0 0 0 0.239216 0 0 0 0 0.462745 0 0 0 1 0"/><feBlend in2="BackgroundImageFix" result="effect1_dropShadow"/><feBlend in="SourceGraphic" in2="effect1_dropShadow" result="shape"/></filter><filter id="filter4_di" x="103" y="75.644" width="377.939" height="251.47" filterUnits="userSpaceOnUse" color-interpolation-filters="sRGB"><feFlood flood-opacity="0" result="BackgroundImageFix"/><feColorMatrix in="SourceAlpha" values="0 0 0 0 0 0 0 0 0 0 0 0 0 0 0 0 0 0 127 0"/><feOffset dx="2" dy="2"/><feGaussianBlur stdDeviation="2"/><feColorMatrix values="0 0 0 0 0 0 0 0 0 0 0 0 0 0 0 0 0 0 0.15 0"/><feBlend in2="BackgroundImageFix" result="effect1_dropShadow"/><feBlend in="SourceGraphic" in2="effect1_dropShadow" result="shape"/><feColorMatrix in="SourceAlpha" values="0 0 0 0 0 0 0 0 0 0 0 0 0 0 0 0 0 0 127 0" result="hardAlpha"/><feOffset dx="-2" dy="-2"/><feGaussianBlur stdDeviation="2"/><feComposite in2="hardAlpha" operator="arithmetic" k2="-1" k3="1"/><feColorMatrix values="0 0 0 0 0 0 0 0 0 0 0 0 0 0 0 0 0 0 0.2 0"/><feBlend in2="shape" result="effect2_innerShadow"/></filter><filter id="filter5_di" x="54.535" y="318.132" width="472.252" height="98.519" filterUnits="userSpaceOnUse" color-interpolation-filters="sRGB"><feFlood flood-opacity="0" result="BackgroundImageFix"/><feColorMatrix in="SourceAlpha" values="0 0 0 0 0 0 0 0 0 0 0 0 0 0 0 0 0 0 127 0"/><feOffset dx="2" dy="2"/><feGaussianBlur stdDeviation="2"/><feColorMatrix values="0 0 0 0 0 0 0 0 0 0 0 0 0 0 0 0 0 0 0.15 0"/><feBlend in2="BackgroundImageFix" result="effect1_dropShadow"/><feBlend in="SourceGraphic" in2="effect1_dropShadow" result="shape"/><feColorMatrix in="SourceAlpha" values="0 0 0 0 0 0 0 0 0 0 0 0 0 0 0 0 0 0 127 0" result="hardAlpha"/><feOffset dx="-2" dy="-2"/><feGaussianBlur stdDeviation="2"/><feComposite in2="hardAlpha" operator="arithmetic" k2="-1" k3="1"/><feColorMatrix values="0 0 0 0 0 0 0 0 0 0 0 0 0 0 0 0 0 0 0.2 0"/><feBlend in2="shape" result="effect2_innerShadow"/></filter><filter id="filter6_di" x="120.116" y="325.204" width="341.101" height="48.794" filterUnits="userSpaceOnUse" color-interpolation-filters="sRGB"><feFlood flood-opacity="0" result="BackgroundImageFix"/><feColorMatrix in="SourceAlpha" values="0 0 0 0 0 0 0 0 0 0 0 0 0 0 0 0 0 0 127 0"/><feOffset dx="2" dy="2"/><feGaussianBlur stdDeviation="2"/><feColorMatrix values="0 0 0 0 0 0 0 0 0 0 0 0 0 0 0 0 0 0 0.15 0"/><feBlend in2="BackgroundImageFix" result="effect1_dropShadow"/><feBlend in="SourceGraphic" in2="effect1_dropShadow" result="shape"/><feColorMatrix in="SourceAlpha" values="0 0 0 0 0 0 0 0 0 0 0 0 0 0 0 0 0 0 127 0" result="hardAlpha"/><feOffset dx="-2" dy="-2"/><feGaussianBlur stdDeviation="2"/><feComposite in2="hardAlpha" operator="arithmetic" k2="-1" k3="1"/><feColorMatrix values="0 0 0 0 0 0 0 0 0 0 0 0 0 0 0 0 0 0 0.2 0"/><feBlend in2="shape" result="effect2_innerShadow"/></filter><filter id="filter7_f" x="310.934" y="411.651" width="68.911" height="103.098" filterUnits="userSpaceOnUse" color-interpolation-filters="sRGB"><feFlood flood-opacity="0" result="BackgroundImageFix"/><feBlend in="SourceGraphic" in2="BackgroundImageFix" result="shape"/><feGaussianBlur stdDeviation="1" result="effect1_foregroundBlur"/></filter><filter id="filter8_f" x="128.229" y="350.138" width="155.203" height="85.945" filterUnits="userSpaceOnUse" color-interpolation-filters="sRGB"><feFlood flood-opacity="0" result="BackgroundImageFix"/><feBlend in="SourceGraphic" in2="BackgroundImageFix" result="shape"/><feGaussianBlur stdDeviation="15" result="effect1_foregroundBlur"/></filter><filter id="filter9_f" x="320.799" y="353.741" width="155.203" height="85.945" filterUnits="userSpaceOnUse" color-interpolation-filters="sRGB"><feFlood flood-opacity="0" result="BackgroundImageFix"/><feBlend in="SourceGraphic" in2="BackgroundImageFix" result="shape"/><feGaussianBlur stdDeviation="15" result="effect1_foregroundBlur"/></filter><clipPath id="clip0"><path fill="#fff" transform="translate(145.247 235.996)" d="M0 0h121.167v287.563H0z"/></clipPath><clipPath id="clip1"><path fill="#fff" transform="translate(284.445 231.672)" d="M0 0h151.459v293.328H0z"/></clipPath></defs></svg>