<svg width="85" height="62" fill="none" xmlns="http://www.w3.org/2000/svg"><g filter="url(#filter0_di)"><path d="M76.947 2H3.485c-.8 0-1.447.643-1.447 1.435v51.13c0 .792.648 1.435 1.447 1.435h73.462c.799 0 1.447-.643 1.447-1.435V3.435c0-.792-.648-1.435-1.447-1.435z" fill="url(#paint0_linear)"/><path d="M79 10.003c0 .192-17.243.332-38.494.332-21.25 0-38.506-.14-38.506-.332s17.243-.332 38.506-.332C61.77 9.67 79 9.837 79 10.003zM14.732 6.96c.57 0 1.031-.4 1.031-.894 0-.495-.461-.895-1.03-.895-.57 0-1.032.4-1.032.895 0 .494.462.894 1.031.894zm-8.265 0c.569 0 1.03-.4 1.03-.894 0-.495-.461-.895-1.03-.895-.57 0-1.031.4-1.031.895 0 .494.461.894 1.03.894zm4.381 0c.57 0 1.031-.4 1.031-.894 0-.495-.461-.895-1.03-.895-.57 0-1.032.4-1.032.895 0 .494.462.894 1.031.894zm19.425 24.61c0 3.234-2.358 5.203-6.263 5.203h-2.677a1.44 1.44 0 00-1.447 1.435v2.54c0 .46-.375.831-.837.831a.834.834 0 01-.838-.83V27.762c0-.792.648-1.435 1.447-1.435h4.352c3.905 0 6.263 1.956 6.263 5.242zm-1.61 0c0-2.442-1.624-3.836-4.704-3.836h-2.626c-.799 0-1.447.643-1.447 1.436v4.8c0 .792.648 1.435 1.447 1.435h2.626c3.08-.077 4.703-1.47 4.703-3.835zm17.121-5.242c.43 0 .78.346.78.773v13.68a.776.776 0 01-.78.773.777.777 0 01-.78-.774v-4.822c0-.793-.648-1.436-1.447-1.436H36.85c-.8 0-1.447.643-1.447 1.436v4.79a.809.809 0 01-.812.806.809.809 0 01-.812-.806V27.133c0-.445.364-.805.812-.805.449 0 .812.36.812.805v4.535a1.44 1.44 0 001.447 1.435h6.707c.8 0 1.447-.642 1.447-1.435V27.1c0-.427.349-.773.78-.773zm17.828 5.242c0 3.234-2.358 5.202-6.263 5.202h-2.677c-.799 0-1.447.643-1.447 1.436v2.566a.809.809 0 01-.812.805.809.809 0 01-.811-.805v-13.01a1.44 1.44 0 011.447-1.436h4.3c3.905 0 6.263 1.956 6.263 5.241zm-1.585 0c0-2.442-1.624-3.836-4.69-3.836h-2.665c-.799 0-1.447.643-1.447 1.435v4.8a1.44 1.44 0 001.447 1.435h2.626c3.067-.076 4.73-1.47 4.73-3.835z" fill="#fff"/></g><defs><linearGradient id="paint0_linear" x1="76.04" y1="29" x2="4.33" y2="26.823" gradientUnits="userSpaceOnUse"><stop stop-color="#A62E41"/><stop offset="1" stop-color="#E13152"/></linearGradient><filter id="filter0_di" x="0" y="0" width="85" height="62" filterUnits="userSpaceOnUse" color-interpolation-filters="sRGB"><feFlood flood-opacity="0" result="BackgroundImageFix"/><feColorMatrix in="SourceAlpha" values="0 0 0 0 0 0 0 0 0 0 0 0 0 0 0 0 0 0 127 0"/><feOffset dx="2" dy="2"/><feGaussianBlur stdDeviation="2"/><feColorMatrix values="0 0 0 0 0 0 0 0 0 0 0 0 0 0 0 0 0 0 0.15 0"/><feBlend in2="BackgroundImageFix" result="effect1_dropShadow"/><feBlend in="SourceGraphic" in2="effect1_dropShadow" result="shape"/><feColorMatrix in="SourceAlpha" values="0 0 0 0 0 0 0 0 0 0 0 0 0 0 0 0 0 0 127 0" result="hardAlpha"/><feOffset dx="-2" dy="-2"/><feGaussianBlur stdDeviation="2"/><feComposite in2="hardAlpha" operator="arithmetic" k2="-1" k3="1"/><feColorMatrix values="0 0 0 0 0 0 0 0 0 0 0 0 0 0 0 0 0 0 0.2 0"/><feBlend in2="shape" result="effect2_innerShadow"/></filter></defs></svg>