<svg width="104" height="76" fill="none" xmlns="http://www.w3.org/2000/svg"><g filter="url(#filter0_di)"><path d="M94.823 2H4.468a2.433 2.433 0 00-2.43 2.435v63.13A2.433 2.433 0 004.466 70h90.356c1.343 0 2.43-1.09 2.43-2.435V4.435A2.433 2.433 0 0094.824 2z" fill="#fff"/><path fill-rule="evenodd" clip-rule="evenodd" d="M94.823 3.843H4.468a.591.591 0 00-.59.592v63.13a.59.59 0 00.59.592h90.356a.59.59 0 00.59-.592V4.435a.59.59 0 00-.59-.592zM4.468 2h90.356c1.343 0 2.43 1.09 2.43 2.435v63.13A2.433 2.433 0 0194.824 70H4.468a2.433 2.433 0 01-2.43-2.435V4.435A2.433 2.433 0 014.466 2z" fill="url(#paint0_linear)"/><path d="M98 12.098c0 .16-21.493.303-48 .303s-48-.143-48-.303 21.493-.303 48-.303 48 .196 48 .303z" fill="url(#paint1_linear)"/><path d="M12.29 7.902a1.475 1.475 0 01-1.637 1.646 1.47 1.47 0 01-1.252-1.114 1.476 1.476 0 011.436-1.823 1.379 1.379 0 011.453 1.291z" fill="url(#paint2_linear)"/><path d="M17.612 7.902a1.475 1.475 0 01-1.637 1.645 1.47 1.47 0 01-1.252-1.113 1.476 1.476 0 011.436-1.824 1.379 1.379 0 011.453 1.292z" fill="url(#paint3_linear)"/><path d="M22.937 7.902a1.476 1.476 0 01-.775 1.487 1.469 1.469 0 01-2.114-.955 1.476 1.476 0 011.436-1.824 1.379 1.379 0 011.453 1.292z" fill="url(#paint4_linear)"/><g filter="url(#filter1_di)"><path d="M33.435 41.17c-.27 2.322-1.128 4.115-2.573 5.381-1.434 1.256-3.344 1.884-5.731 1.884-2.587 0-4.663-.93-6.228-2.788-1.554-1.859-2.332-4.346-2.332-7.46v-2.11c0-2.04.361-3.833 1.083-5.38.733-1.548 1.765-2.733 3.1-3.557 1.333-.834 2.878-1.251 4.633-1.251 2.326 0 4.192.653 5.596 1.96 1.404 1.295 2.221 3.094 2.452 5.394H30.53c-.25-1.748-.797-3.014-1.64-3.797-.832-.784-2-1.176-3.504-1.176-1.846 0-3.295.683-4.348 2.05-1.043 1.366-1.564 3.31-1.564 5.832v2.125c0 2.381.496 4.275 1.489 5.682.993 1.406 2.382 2.11 4.167 2.11 1.605 0 2.833-.362 3.686-1.085.862-.734 1.434-2.005 1.715-3.813h2.903z" fill="url(#paint5_linear)"/><path d="M41.122 26.19l7.16 17.905 7.161-17.905h3.746v21.944h-2.888v-8.546l.27-9.223-7.19 17.769h-2.212L39.994 30.41l.286 9.178v8.546h-2.89V26.19h3.731z" fill="url(#paint6_linear)"/><path d="M70.742 38.352c-2.477-.713-4.282-1.587-5.415-2.622-1.123-1.045-1.685-2.33-1.685-3.858 0-1.728.687-3.155 2.06-4.28 1.385-1.135 3.18-1.703 5.386-1.703 1.505 0 2.844.291 4.017.874 1.183.583 2.096 1.386 2.738 2.411a6.14 6.14 0 01.978 3.361h-2.904c0-1.326-.421-2.366-1.263-3.12-.843-.763-2.031-1.145-3.566-1.145-1.424 0-2.537.317-3.34.95-.792.623-1.188 1.492-1.188 2.607 0 .894.376 1.653 1.129 2.275.762.613 2.05 1.176 3.866 1.689 1.825.512 3.249 1.08 4.272 1.703 1.033.612 1.795 1.33 2.287 2.155.501.823.752 1.793.752 2.908 0 1.779-.692 3.205-2.076 4.28-1.384 1.066-3.235 1.598-5.551 1.598-1.505 0-2.909-.286-4.212-.86-1.304-.582-2.312-1.376-3.024-2.38-.702-1.005-1.053-2.145-1.053-3.421h2.903c0 1.326.487 2.376 1.46 3.15.982.763 2.291 1.145 3.926 1.145 1.524 0 2.692-.312 3.505-.935.812-.623 1.218-1.471 1.218-2.547 0-1.075-.376-1.904-1.128-2.486-.752-.593-2.116-1.176-4.092-1.748z" fill="url(#paint7_linear)"/></g></g><defs><linearGradient id="paint0_linear" x1="94.319" y1="36" x2="4.893" y2="33.311" gradientUnits="userSpaceOnUse"><stop stop-color="#A62E41"/><stop offset="1" stop-color="#E13152"/></linearGradient><linearGradient id="paint1_linear" x1="95.041" y1="12.098" x2="87.871" y2="-12.307" gradientUnits="userSpaceOnUse"><stop stop-color="#A62E41"/><stop offset="1" stop-color="#E13152"/></linearGradient><linearGradient id="paint2_linear" x1="12.211" y1="8.083" x2="9.446" y2="8.024" gradientUnits="userSpaceOnUse"><stop stop-color="#A62E41"/><stop offset="1" stop-color="#E13152"/></linearGradient><linearGradient id="paint3_linear" x1="17.532" y1="8.083" x2="14.768" y2="8.024" gradientUnits="userSpaceOnUse"><stop stop-color="#A62E41"/><stop offset="1" stop-color="#E13152"/></linearGradient><linearGradient id="paint4_linear" x1="22.858" y1="8.083" x2="20.093" y2="8.024" gradientUnits="userSpaceOnUse"><stop stop-color="#A62E41"/><stop offset="1" stop-color="#E13152"/></linearGradient><linearGradient id="paint5_linear" x1="76.945" y1="37.162" x2="18.593" y2="33.7" gradientUnits="userSpaceOnUse"><stop stop-color="#A62E41"/><stop offset="1" stop-color="#E13152"/></linearGradient><linearGradient id="paint6_linear" x1="76.945" y1="37.162" x2="18.593" y2="33.7" gradientUnits="userSpaceOnUse"><stop stop-color="#A62E41"/><stop offset="1" stop-color="#E13152"/></linearGradient><linearGradient id="paint7_linear" x1="76.945" y1="37.162" x2="18.593" y2="33.7" gradientUnits="userSpaceOnUse"><stop stop-color="#A62E41"/><stop offset="1" stop-color="#E13152"/></linearGradient><filter id="filter0_di" x="0" y="0" width="104" height="76" filterUnits="userSpaceOnUse" color-interpolation-filters="sRGB"><feFlood flood-opacity="0" result="BackgroundImageFix"/><feColorMatrix in="SourceAlpha" values="0 0 0 0 0 0 0 0 0 0 0 0 0 0 0 0 0 0 127 0"/><feOffset dx="2" dy="2"/><feGaussianBlur stdDeviation="2"/><feColorMatrix values="0 0 0 0 0 0 0 0 0 0 0 0 0 0 0 0 0 0 0.15 0"/><feBlend in2="BackgroundImageFix" result="effect1_dropShadow"/><feBlend in="SourceGraphic" in2="effect1_dropShadow" result="shape"/><feColorMatrix in="SourceAlpha" values="0 0 0 0 0 0 0 0 0 0 0 0 0 0 0 0 0 0 127 0" result="hardAlpha"/><feOffset dx="-2" dy="-2"/><feGaussianBlur stdDeviation="2"/><feComposite in2="hardAlpha" operator="arithmetic" k2="-1" k3="1"/><feColorMatrix values="0 0 0 0 0 0 0 0 0 0 0 0 0 0 0 0 0 0 0.2 0"/><feBlend in2="shape" result="effect2_innerShadow"/></filter><filter id="filter1_di" x="14.571" y="23.889" width="70.294" height="30.546" filterUnits="userSpaceOnUse" color-interpolation-filters="sRGB"><feFlood flood-opacity="0" result="BackgroundImageFix"/><feColorMatrix in="SourceAlpha" values="0 0 0 0 0 0 0 0 0 0 0 0 0 0 0 0 0 0 127 0"/><feOffset dx="2" dy="2"/><feGaussianBlur stdDeviation="2"/><feColorMatrix values="0 0 0 0 0 0 0 0 0 0 0 0 0 0 0 0 0 0 0.15 0"/><feBlend in2="BackgroundImageFix" result="effect1_dropShadow"/><feBlend in="SourceGraphic" in2="effect1_dropShadow" result="shape"/><feColorMatrix in="SourceAlpha" values="0 0 0 0 0 0 0 0 0 0 0 0 0 0 0 0 0 0 127 0" result="hardAlpha"/><feOffset dx="-2" dy="-2"/><feGaussianBlur stdDeviation="2"/><feComposite in2="hardAlpha" operator="arithmetic" k2="-1" k3="1"/><feColorMatrix values="0 0 0 0 0 0 0 0 0 0 0 0 0 0 0 0 0 0 0.2 0"/><feBlend in2="shape" result="effect2_innerShadow"/></filter></defs></svg>