<svg width="97" height="71" fill="none" xmlns="http://www.w3.org/2000/svg"><g filter="url(#filter0_di)"><path d="M88.054 2H4.285a2.254 2.254 0 00-2.253 2.256v58.488A2.254 2.254 0 004.285 65h83.769a2.254 2.254 0 002.253-2.256V4.256A2.254 2.254 0 0088.054 2z" fill="url(#paint0_linear)"/><path d="M28.636 28.387c.267 0 .498.098.693.294a.98.98 0 01.293.72v13.476a.95.95 0 01-.293.694.947.947 0 01-.693.294.947.947 0 01-.693-.294.95.95 0 01-.293-.694v-5.79h-8.29v5.79a.949.949 0 01-.292.694.978.978 0 01-.72.294.947.947 0 01-.693-.294.949.949 0 01-.293-.694V29.401a.95.95 0 01.293-.693.91.91 0 01.693-.32c.267 0 .498.097.693.293a.94.94 0 01.32.72v5.818h8.289V29.4a.95.95 0 01.293-.693.91.91 0 01.693-.32zm15.192.107c.267 0 .489.098.667.294a.874.874 0 01.266.64c0 .25-.089.472-.266.667a.904.904 0 01-.667.267h-4.45v12.515a.949.949 0 01-.294.694.892.892 0 01-.693.294.947.947 0 01-.693-.294.949.949 0 01-.293-.694V30.362h-4.451a.963.963 0 01-.666-.267.905.905 0 01-.267-.667c0-.249.089-.462.267-.64a.863.863 0 01.666-.294h10.874zm18.764-.107c.409 0 .747.143 1.013.427.284.285.426.623.426 1.014v13.05a.949.949 0 01-.293.693.947.947 0 01-.693.294.947.947 0 01-.693-.294.949.949 0 01-.293-.694V30.47l-5.064 12.488a1.49 1.49 0 01-.533.667c-.249.16-.533.24-.853.24-.32 0-.604-.08-.853-.24a1.474 1.474 0 01-.56-.667L49.16 30.47v12.408a.949.949 0 01-.293.694.978.978 0 01-.72.294.947.947 0 01-.693-.294.95.95 0 01-.293-.694v-13.05c0-.39.133-.729.4-1.014.284-.284.63-.427 1.04-.427h.719c.284 0 .542.09.773.267.249.178.435.392.56.64l4.957 12.382 4.958-12.381c.106-.25.275-.463.506-.64.249-.178.524-.268.826-.268h.693zm14.793 13.396c.284 0 .515.098.693.294a.895.895 0 01.293.693.949.949 0 01-.293.694.893.893 0 01-.693.294h-7.756a1.34 1.34 0 01-.987-.4 1.343 1.343 0 01-.4-.988V29.402c0-.267.098-.499.294-.694a.91.91 0 01.693-.32c.266 0 .497.097.693.293a.94.94 0 01.32.72v12.382h7.143zM91 11.356c0 .148-19.926.28-44.5.28S2 11.504 2 11.356c0-.149 19.926-.28 44.5-.28s44.5.18 44.5.28zM23.3 8.088c.886 0 1.605-.63 1.605-1.407 0-.776-.72-1.406-1.606-1.406-.886 0-1.605.63-1.605 1.406 0 .777.719 1.407 1.605 1.407zm-12.871 0c.886 0 1.605-.63 1.605-1.407 0-.776-.719-1.406-1.605-1.406-.887 0-1.606.63-1.606 1.406 0 .777.719 1.407 1.606 1.407zm6.822 0c.887 0 1.606-.63 1.606-1.407 0-.776-.719-1.406-1.606-1.406-.886 0-1.605.63-1.605 1.406 0 .777.719 1.407 1.605 1.407z" fill="#fff"/></g><defs><linearGradient id="paint0_linear" x1="87.586" y1="33.5" x2="4.681" y2="31.006" gradientUnits="userSpaceOnUse"><stop stop-color="#A62E41"/><stop offset="1" stop-color="#E13152"/></linearGradient><filter id="filter0_di" x="0" y="0" width="97" height="71" filterUnits="userSpaceOnUse" color-interpolation-filters="sRGB"><feFlood flood-opacity="0" result="BackgroundImageFix"/><feColorMatrix in="SourceAlpha" values="0 0 0 0 0 0 0 0 0 0 0 0 0 0 0 0 0 0 127 0"/><feOffset dx="2" dy="2"/><feGaussianBlur stdDeviation="2"/><feColorMatrix values="0 0 0 0 0 0 0 0 0 0 0 0 0 0 0 0 0 0 0.15 0"/><feBlend in2="BackgroundImageFix" result="effect1_dropShadow"/><feBlend in="SourceGraphic" in2="effect1_dropShadow" result="shape"/><feColorMatrix in="SourceAlpha" values="0 0 0 0 0 0 0 0 0 0 0 0 0 0 0 0 0 0 127 0" result="hardAlpha"/><feOffset dx="-2" dy="-2"/><feGaussianBlur stdDeviation="2"/><feComposite in2="hardAlpha" operator="arithmetic" k2="-1" k3="1"/><feColorMatrix values="0 0 0 0 0 0 0 0 0 0 0 0 0 0 0 0 0 0 0.2 0"/><feBlend in2="shape" result="effect2_innerShadow"/></filter></defs></svg>