<svg width="338" height="231" fill="none" xmlns="http://www.w3.org/2000/svg"><g filter="url(#filter0_d)"><path d="M165.746 225L2 173.7l153.737-48.307L321.978 173.7 165.746 225z" fill="#F1F5FB"/></g><g filter="url(#filter1_di)"><path d="M42.481 114.244H11.386a.837.837 0 00-.836.838v21.738c0 .463.374.839.836.839h31.095a.838.838 0 00.837-.839v-21.738a.837.837 0 00-.837-.838z" fill="url(#paint0_linear)"/><path d="M20.425 124.051a.35.35 0 01.257.109.365.365 0 01.109.268v5.008a.354.354 0 01-.11.258.35.35 0 01-.256.109.35.35 0 01-.258-.109.354.354 0 01-.109-.258v-2.152h-3.076v2.152a.354.354 0 01-.11.258.362.362 0 01-.266.109.35.35 0 01-.258-.109.354.354 0 01-.108-.258v-5.008c0-.1.036-.185.108-.258a.35.35 0 01.515-.01.35.35 0 01.118.268v2.162h3.077v-2.162c0-.1.037-.185.11-.258a.336.336 0 01.257-.119zm5.639.039a.32.32 0 01.247.11.324.324 0 01.1.238.36.36 0 01-.1.248.335.335 0 01-.247.099h-1.652v4.651a.354.354 0 01-.11.258.33.33 0 01-.256.109.35.35 0 01-.258-.109.354.354 0 01-.108-.258v-4.651h-1.653a.358.358 0 01-.247-.099.338.338 0 01-.099-.248c0-.093.033-.172.099-.238a.32.32 0 01.247-.11h4.037zm6.966-.039c.15 0 .276.053.375.158a.517.517 0 01.158.377v4.85a.354.354 0 01-.108.258.35.35 0 01-.258.109.35.35 0 01-.257-.109.354.354 0 01-.109-.258v-4.612l-1.88 4.642a.554.554 0 01-.197.248.575.575 0 01-.317.089.55.55 0 01-.524-.337l-1.87-4.642v4.612a.354.354 0 01-.11.258.362.362 0 01-.266.109.35.35 0 01-.258-.109.354.354 0 01-.108-.258v-4.85c0-.145.05-.271.148-.377a.527.527 0 01.386-.158h.267c.106 0 .201.033.287.099a.643.643 0 01.208.238l1.84 4.602 1.84-4.602a.588.588 0 01.188-.238.515.515 0 01.307-.099h.257zm5.49 4.978c.106 0 .191.037.258.11a.332.332 0 01.108.257c0 .1-.036.186-.108.258a.33.33 0 01-.258.109h-2.879a.497.497 0 01-.366-.148.501.501 0 01-.148-.367v-4.82c0-.1.036-.185.108-.258a.336.336 0 01.258-.119.35.35 0 01.257.109.35.35 0 01.119.268v4.601h2.651zm5.055-11.308c0 .055-7.397.104-16.519.104-9.122 0-16.518-.049-16.518-.104 0-.055 7.396-.104 16.518-.104s16.519.067 16.519.104zm-25.131-1.215c.329 0 .596-.234.596-.522 0-.289-.267-.523-.596-.523-.33 0-.596.234-.596.523 0 .288.267.522.596.522zm-4.778 0c.33 0 .596-.234.596-.522 0-.289-.267-.523-.596-.523-.329 0-.596.234-.596.523 0 .288.267.522.596.522zm2.534 0c.328 0 .595-.234.595-.522 0-.289-.267-.523-.596-.523-.329 0-.596.234-.596.523 0 .288.267.522.596.522z" fill="#fff"/></g><g filter="url(#filter2_di)"><path d="M70.435 53.662H32.003a1.03 1.03 0 00-1.034 1.024v26.57a1.03 1.03 0 001.034 1.024h38.432a1.03 1.03 0 001.034-1.025V54.686a1.03 1.03 0 00-1.034-1.024z" fill="url(#paint1_linear)"/><path d="M47.945 65.201c.138 0 .257.05.358.15.11.1.165.223.165.369v4.759c0 .973-.248 1.69-.743 2.155-.385.354-.912.531-1.582.531-.55 0-1.05-.127-1.5-.381-.165-.091-.247-.21-.247-.355a.57.57 0 01.11-.368.366.366 0 01.275-.137c.101 0 .206.023.317.069.284.136.559.209.825.218.266 0 .481-.018.647-.055.165-.045.311-.127.44-.245.284-.273.426-.723.426-1.35V65.72a.48.48 0 01.152-.355.47.47 0 01.357-.163zm5.022 7.009c1.31 0 1.971-.431 1.98-1.295 0-.354-.252-.636-.756-.845a5.487 5.487 0 00-.77-.246c-.285-.072-.574-.15-.867-.231a16.295 16.295 0 01-.88-.273 3.08 3.08 0 01-.771-.41c-.495-.372-.747-.863-.757-1.472 0-.655.252-1.191.757-1.61.541-.454 1.266-.681 2.174-.681.825 0 1.568.123 2.228.368a.456.456 0 01.33.45c0 .11-.041.214-.123.314-.074.1-.161.15-.262.15-.092 0-.22-.027-.385-.082a5.078 5.078 0 00-1.678-.26c-.578 0-1.055.11-1.431.328-.385.227-.578.541-.578.941 0 .418.248.741.743.968.23.1.486.187.77.26.285.063.578.131.88.204.303.073.592.164.867.273.285.1.541.227.77.382.496.354.748.872.757 1.554 0 .637-.26 1.155-.784 1.555-.532.409-1.233.613-2.104.613a6.788 6.788 0 01-2.683-.531.577.577 0 01-.22-.178.509.509 0 01-.096-.3c0-.109.04-.209.123-.3.083-.1.175-.15.276-.15a.98.98 0 01.398.11c.166.072.431.159.798.258.367.091.798.137 1.294.137zm18.819-14.299c0 .068-9.142.128-20.416.128-11.274 0-20.416-.06-20.416-.128 0-.067 9.142-.127 20.416-.127 11.274 0 20.416.083 20.416.127zM39.16 56.427c.407 0 .736-.286.736-.639 0-.352-.33-.638-.736-.638-.407 0-.737.286-.737.639 0 .352.33.638.737.638zm-5.904 0c.407 0 .737-.286.737-.639 0-.352-.33-.638-.737-.638s-.736.286-.736.639c0 .352.33.638.736.638zm3.13 0c.407 0 .737-.286.737-.639 0-.352-.33-.638-.737-.638s-.736.286-.736.639c0 .352.33.638.736.638z" fill="#fff"/></g><g filter="url(#filter3_di)"><path d="M330.82 42.883h-33.54a.904.904 0 00-.903.905v23.464c0 .5.404.905.903.905h33.54a.904.904 0 00.903-.905V43.789c0-.5-.404-.906-.903-.906z" fill="#fff"/><path fill-rule="evenodd" clip-rule="evenodd" d="M330.82 43.569h-33.54a.22.22 0 00-.22.22v23.463c0 .121.099.22.22.22h33.54a.22.22 0 00.22-.22V43.789a.22.22 0 00-.22-.22zm-33.54-.686h33.54c.499 0 .903.406.903.905v23.464c0 .5-.404.905-.903.905h-33.54a.904.904 0 01-.903-.905V43.789c0-.5.404-.906.903-.906z" fill="url(#paint2_linear)"/><path d="M332 46.637c0 .06-7.978.112-17.818.112-9.839 0-17.817-.053-17.817-.112 0-.06 7.978-.113 17.817-.113 9.84 0 17.818.073 17.818.113z" fill="url(#paint3_linear)"/><path d="M300.184 45.077a.545.545 0 01-1.072.198.55.55 0 01.533-.678.51.51 0 01.539.48z" fill="url(#paint4_linear)"/><path d="M302.159 45.077a.545.545 0 01-1.072.198.548.548 0 01.533-.678.51.51 0 01.539.48z" fill="url(#paint5_linear)"/><path d="M304.137 45.077a.553.553 0 01-.608.611.547.547 0 01.068-1.09.51.51 0 01.54.48z" fill="url(#paint6_linear)"/><g filter="url(#filter4_di)"><path d="M308.033 57.442c-.101.863-.419 1.53-.955 2-.532.466-1.241.7-2.127.7-.961 0-1.732-.346-2.312-1.036-.577-.691-.866-1.616-.866-2.773v-.784c0-.758.134-1.425.402-2 .272-.575.655-1.016 1.151-1.322.495-.31 1.068-.465 1.719-.465.864 0 1.557.243 2.078.728.521.482.824 1.15.91 2.006h-1.078c-.093-.65-.296-1.12-.608-1.412-.309-.291-.743-.437-1.302-.437-.684 0-1.222.254-1.613.762-.387.508-.581 1.23-.581 2.168v.79c0 .885.184 1.588.553 2.111.368.523.884.784 1.547.784.595 0 1.051-.134 1.368-.403.32-.273.532-.745.636-1.417h1.078z" fill="url(#paint7_linear)"/><path d="M310.887 51.874l2.658 6.655 2.658-6.655h1.39v8.156h-1.072v-3.176l.1-3.428-2.669 6.604h-.821l-2.663-6.587.106 3.41v3.177h-1.072v-8.156h1.385z" fill="url(#paint8_linear)"/><path d="M321.882 56.395c-.92-.266-1.59-.59-2.011-.975a1.882 1.882 0 01-.625-1.434c0-.642.255-1.173.765-1.59.514-.423 1.18-.634 1.999-.634.559 0 1.056.108 1.491.325.439.217.778.515 1.016.896.242.381.363.798.363 1.25h-1.077c0-.493-.157-.88-.469-1.16-.313-.284-.754-.426-1.324-.426-.529 0-.942.118-1.24.353-.294.232-.441.555-.441.97 0 .331.14.613.419.845.283.228.761.437 1.435.627.678.19 1.206.402 1.586.633.384.228.666.495.849.801.186.306.279.667.279 1.081 0 .661-.257 1.191-.771 1.591-.513.396-1.2.594-2.06.594-.558 0-1.08-.107-1.564-.32-.484-.216-.858-.511-1.122-.885a2.165 2.165 0 01-.391-1.271h1.078c0 .493.18.883.541 1.17.365.285.851.426 1.458.426.566 0 1-.115 1.301-.347.302-.231.452-.547.452-.947 0-.4-.139-.707-.418-.924-.28-.22-.786-.437-1.519-.65z" fill="url(#paint9_linear)"/></g></g><g filter="url(#filter5_di)"><path d="M319.36 100.12h-27.269a.535.535 0 00-.537.534v19.003c0 .295.24.533.537.533h27.269a.534.534 0 00.537-.533v-19.003a.535.535 0 00-.537-.534z" fill="url(#paint10_linear)"/><path d="M320.122 103.095c0 .071-6.401.123-14.289.123-7.889 0-14.294-.052-14.294-.123 0-.072 6.4-.124 14.294-.124 7.893 0 14.289.062 14.289.124zm-23.857-1.132c.211 0 .382-.149.382-.332 0-.184-.171-.332-.382-.332-.212 0-.383.148-.383.332 0 .183.171.332.383.332zm-3.069 0c.212 0 .383-.149.383-.332 0-.184-.171-.332-.383-.332-.211 0-.382.148-.382.332 0 .183.171.332.382.332zm1.626 0c.212 0 .383-.149.383-.332 0-.184-.171-.332-.383-.332-.211 0-.382.148-.382.332 0 .183.171.332.382.332zm7.212 9.148c0 1.202-.875 1.934-2.325 1.934h-.993a.534.534 0 00-.537.533v.944a.31.31 0 01-.311.309.31.31 0 01-.311-.309v-4.826c0-.295.24-.533.537-.533h1.615c1.45 0 2.325.727 2.325 1.948zm-.598 0c0-.908-.603-1.426-1.746-1.426h-.974a.535.535 0 00-.537.534v1.784c0 .294.24.533.537.533h.974c1.143-.028 1.746-.546 1.746-1.425zm6.355-1.949c.16 0 .29.129.29.288v5.084c0 .159-.13.287-.29.287a.288.288 0 01-.289-.287v-1.792a.535.535 0 00-.537-.534h-2.49a.536.536 0 00-.537.534v1.78a.3.3 0 01-.301.299.3.3 0 01-.302-.299v-5.06a.3.3 0 01.302-.3.3.3 0 01.301.3v1.685c0 .295.241.534.537.534h2.49a.535.535 0 00.537-.534v-1.697c0-.159.13-.288.289-.288zm6.618 1.948c0 1.203-.875 1.934-2.325 1.934h-.993a.536.536 0 00-.538.534v.953a.3.3 0 01-.602 0v-4.835c0-.295.24-.534.537-.534h1.596c1.45 0 2.325.727 2.325 1.948zm-.588 0c0-.907-.603-1.425-1.742-1.425h-.988a.536.536 0 00-.538.534v1.783c0 .295.241.534.538.534h.974c1.139-.029 1.756-.547 1.756-1.426z" fill="#fff"/></g><g filter="url(#filter6_di)"><path fill-rule="evenodd" clip-rule="evenodd" d="M203.564 2.978c0-.54.436-.978.975-.978h33.685c.539 0 .975.438.975.978v21.459c0 .54-.436.978-.975.978h-33.685a.976.976 0 01-.975-.978V2.978zm.975-.444a.443.443 0 00-.443.444v21.459c0 .245.198.444.443.444h33.685a.443.443 0 00.443-.444V2.978a.444.444 0 00-.443-.444h-33.685z" fill="#A62E41"/><path d="M238.838 5.84c0 .08-7.822.144-17.488.144-9.667 0-17.489-.064-17.489-.144 0-.08 7.822-.138 17.489-.138 9.666 0 17.488.064 17.488.138z" fill="url(#paint11_linear)"/><path d="M206.5 4.192a.433.433 0 01-.226.435.428.428 0 01-.601-.536.43.43 0 01.403-.276.403.403 0 01.424.378z" fill="url(#paint12_linear)"/><path d="M208.052 4.192a.442.442 0 01-.046.253.424.424 0 01-.432.228.426.426 0 01-.365-.326.429.429 0 01.419-.533.4.4 0 01.289.102c.079.07.128.17.135.276z" fill="url(#paint13_linear)"/><path d="M209.605 4.192a.433.433 0 01-.226.434.427.427 0 01-.485-.059.435.435 0 01-.116-.476.43.43 0 01.403-.277.404.404 0 01.424.378z" fill="url(#paint14_linear)"/><path d="M215.222 18.962c1.345 0 2.258-.64 2.896-1.51l-.809-.446a2.535 2.535 0 01-2.087 1.11c-1.664 0-2.93-1.293-2.93-3.1 0-1.82 1.266-3.101 2.93-3.101.867 0 1.653.469 2.087 1.11l.798-.447c-.605-.857-1.54-1.51-2.885-1.51-2.189 0-3.91 1.602-3.91 3.947 0 2.346 1.721 3.947 3.91 3.947z" fill="url(#paint15_linear)"/><path d="M221.787 18.962c2.052 0 2.804-1.132 2.804-2.242 0-2.849-4.503-1.865-4.503-3.58 0-.722.65-1.214 1.562-1.214.832 0 1.63.286 2.2.916l.57-.698c-.638-.675-1.539-1.064-2.702-1.064-1.493 0-2.611.858-2.611 2.116 0 2.723 4.504 1.636 4.504 3.604 0 .584-.433 1.316-1.79 1.316a3.208 3.208 0 01-2.394-1.087l-.559.72c.627.71 1.596 1.213 2.919 1.213z" fill="url(#paint16_linear)"/><path d="M228.467 18.962c2.052 0 2.805-1.132 2.805-2.242 0-2.849-4.504-1.865-4.504-3.58 0-.722.65-1.214 1.562-1.214.833 0 1.631.286 2.201.916l.57-.698c-.639-.675-1.539-1.064-2.702-1.064-1.494 0-2.611.858-2.611 2.116 0 2.723 4.503 1.636 4.503 3.604 0 .584-.433 1.316-1.79 1.316a3.211 3.211 0 01-2.394-1.087l-.559.72c.627.71 1.597 1.213 2.919 1.213z" fill="url(#paint17_linear)"/></g><path d="M168.381 31.587a.656.656 0 01.582-.728.656.656 0 01.727.582.657.657 0 01-.582.728h-.073a.666.666 0 01-.654-.582zm-4.147 0c-.327-.146-.509-.51-.364-.837.11-.328.51-.51.837-.4.327.145.509.509.4.836-.109.255-.364.437-.618.437-.109 0-.182-.036-.255-.036zm8.584-1.347c-.218-.291-.145-.691.182-.91.291-.218.691-.145.909.182.218.291.146.692-.182.91a.699.699 0 01-.363.11.64.64 0 01-.546-.292zm-12.621-1.455c-.255-.255-.218-.692.036-.947.255-.254.691-.218.946.073.254.255.218.691-.073.946a.67.67 0 01-.436.182c-.182-.036-.364-.109-.473-.255zM176.092 27a.674.674 0 01-.291-.873.673.673 0 01.872-.291.674.674 0 01.291.873.69.69 0 01-.582.364c-.072 0-.181-.036-.29-.073zm-18.187-2.583a.698.698 0 01.473-.801c.364-.073.691.11.8.473a.696.696 0 01-.472.8c-.037 0-.11.037-.146.037a.667.667 0 01-.655-.51zm18.95-2.475c0-.036 0-.036 0 0 0-.4.291-.692.655-.692.364 0 .655.292.655.656v.072a.652.652 0 01-.655.655c-.364-.036-.655-.327-.655-.691zm-18.477-1.638a.624.624 0 01-.473-.8.624.624 0 01.801-.473.623.623 0 01.472.8.665.665 0 01-.654.51c-.073-.037-.109-.037-.146-.037zm17.423-2.583a.623.623 0 01.291-.874.639.639 0 01.872.255.64.64 0 01-.254.873 1.12 1.12 0 01-.291.073c-.255.037-.509-.073-.618-.327zm-15.568-1.674c-.254-.255-.291-.655-.073-.91a.642.642 0 01.91-.073.723.723 0 01.073.946.72.72 0 01-.51.219.584.584 0 01-.4-.182zm12.73-1.529a.69.69 0 01-.181-.91.689.689 0 01.909-.181.69.69 0 01.182.91.642.642 0 01-.546.29.618.618 0 01-.364-.109zm-9.129-1.346a.63.63 0 01.364-.837.63.63 0 01.836.364.63.63 0 01-.363.837c-.073.036-.146.036-.255.036-.255.036-.509-.146-.582-.4zm5.092-.146a.657.657 0 01-.582-.728.657.657 0 01.728-.582.658.658 0 01.582.728.667.667 0 01-.655.582h-.073zm-.618 16.814a.53.53 0 111.054-.11.529.529 0 01-.472.583h-.073c-.255 0-.473-.219-.509-.473zm-3.419-.037c-.291-.109-.4-.4-.328-.691.109-.291.4-.4.691-.328.291.11.4.4.328.692a.547.547 0 01-.509.364c-.037 0-.11 0-.182-.037zm7.019-1.055c-.181-.255-.109-.582.146-.764.255-.182.582-.11.764.145.182.255.109.582-.146.764a.58.58 0 01-.291.11c-.182-.037-.363-.11-.473-.255zm-10.329-1.201a.563.563 0 01.036-.764.562.562 0 01.764.036.563.563 0 01-.036.764c-.11.073-.219.146-.364.146a.582.582 0 01-.4-.182zm13.021-1.456c-.255-.145-.364-.473-.218-.728.145-.254.473-.363.727-.218.255.146.364.473.218.728a.566.566 0 01-.472.291c-.073-.036-.182-.036-.255-.073zm-14.913-2.11a.544.544 0 011.055-.255.542.542 0 01-.4.655h-.145c-.219 0-.437-.182-.51-.4zm15.531-2.038c0-.037 0-.037 0 0 0-.328.255-.583.546-.583a.56.56 0 01.546.546.56.56 0 01-.546.546c-.291.037-.546-.218-.546-.51zm-15.13-1.347a.544.544 0 01.254-1.055.542.542 0 01.4.655.536.536 0 01-.509.4h-.145zm14.294-2.11c-.146-.255-.037-.583.218-.728.255-.146.582-.037.727.218.146.255.037.582-.218.728a.673.673 0 01-.254.073c-.219 0-.4-.11-.473-.291zm-12.767-1.347a.528.528 0 01-.036-.764.527.527 0 01.764-.037.528.528 0 01.036.765.584.584 0 01-.4.182 1.085 1.085 0 01-.364-.146zm10.403-1.273c-.255-.182-.291-.51-.146-.765.182-.255.509-.29.764-.145.255.182.291.51.145.764a.568.568 0 01-.436.218c-.109.037-.218 0-.327-.072zm-7.457-1.092a.539.539 0 01.291-.692c.291-.109.582.037.691.328a.538.538 0 01-.291.691c-.072.037-.145.037-.181.037-.219-.037-.437-.146-.51-.364zm4.183-.146a.53.53 0 11.036 0h-.036zm-.509 13.72c-.036-.255.146-.473.364-.473.255-.036.473.145.473.364.036.218-.146.473-.364.473h-.036c-.255 0-.437-.146-.437-.364zm-2.764-.036c-.218-.073-.327-.328-.255-.546.073-.219.328-.328.546-.255.218.073.327.328.255.546-.073.182-.219.291-.4.291-.037 0-.11 0-.146-.036zm5.674-.874c-.145-.182-.073-.473.109-.618.182-.146.473-.073.619.109.145.182.072.473-.11.618a.52.52 0 01-.254.073.448.448 0 01-.364-.182zm-8.365-.982a.452.452 0 01.036-.619c.182-.145.473-.145.618.037.146.181.146.473-.036.618a.414.414 0 01-.291.11c-.109 0-.255-.037-.327-.146zm10.547-1.165a.423.423 0 01-.181-.582c.109-.218.363-.291.582-.182.218.11.291.364.181.582-.072.146-.218.219-.4.219-.036 0-.109 0-.182-.037zm-12.075-1.71c-.073-.218.073-.473.327-.546.218-.073.473.073.546.328.073.218-.073.473-.328.545h-.109c-.218 0-.4-.109-.436-.327zm12.585-1.638c0-.036 0-.036 0 0 0-.255.182-.473.436-.473a.42.42 0 01.437.437.42.42 0 01-.437.436c-.254.037-.436-.181-.436-.4zm-12.258-1.091a.473.473 0 01-.327-.51c.073-.218.291-.364.509-.327a.49.49 0 01.327.545c-.036.182-.218.328-.436.328 0-.037-.036-.037-.073-.037zm11.567-1.71a.423.423 0 01.181-.583.422.422 0 01.582.182.423.423 0 01-.181.582c-.073.037-.146.037-.219.037-.145.036-.291-.073-.363-.219zm-10.33-1.093c-.182-.145-.182-.436-.036-.618.145-.182.436-.182.618-.037.182.146.182.437.036.619-.073.11-.218.145-.327.145a.413.413 0 01-.291-.109zm8.438-1.019c-.182-.145-.254-.4-.109-.618.146-.182.4-.255.618-.11.182.146.255.4.11.62a.45.45 0 01-.364.181.522.522 0 01-.255-.073zm-6.074-.91c-.073-.218.036-.472.255-.545.218-.073.473.036.545.255.073.218-.036.473-.254.545-.037.037-.109.037-.146.037a.464.464 0 01-.4-.291zm3.383-.108a.468.468 0 01-.4-.474.41.41 0 01.472-.364.41.41 0 01.364.474c-.036.218-.218.4-.436.4.036 0 .036 0 0-.036z" fill="#EBF2F9"/><g filter="url(#filter7_f)"><path d="M219.588 160.378h-84.869l-59.167 11.25c74.298 8.322 118.135 9.806 200.392 6.697l-56.356-17.947z" fill="url(#paint18_linear)"/></g><g filter="url(#filter8_f)"><path d="M126.151 162.923l-9.236 1.205 6.559 36.429 7.229-6.964-4.552-30.67z" fill="url(#paint19_linear)"/></g><g filter="url(#filter9_f)"><path d="M141.813 160.512l-9.771 1.875 12.85 31.876 2.811-2.009-5.89-31.742z" fill="url(#paint20_linear)"/></g><g filter="url(#filter10_d)"><g filter="url(#filter11_di)"><path d="M234.644 126.685l-132.414.239a1.888 1.888 0 01-1.729-1.196 1.9 1.9 0 01-.132-.727l.28-86.678a1.893 1.893 0 011.931-1.871l133.25-.018a1.89 1.89 0 011.861 1.922l-1.249 86.208c-.015 1.047-.757 2.136-1.798 2.121z" fill="#0A3D76"/><path d="M234.124 40.937H103.915v81.481h130.209V40.937z" fill="#fff"/><path d="M169.019 39.874a1.42 1.42 0 10-.002-2.842 1.42 1.42 0 00.002 2.842z" fill="#B4D1FA"/><path d="M169.018 39.4a.947.947 0 100-1.895.947.947 0 000 1.895z" fill="#2A689B"/></g><path d="M87.64 161.149h161.812c3.677 0 5.927-4.077 3.99-7.243l-14.828-24.143a4.684 4.684 0 00-3.987-2.239H102.815a4.677 4.677 0 00-3.963 2.2l-15.175 24.152c-1.982 3.153.265 7.273 3.963 7.273z" fill="#526984"/><g filter="url(#filter12_di)"><path d="M87.1 160.201h162.88a4.724 4.724 0 004.136-2.44 4.736 4.736 0 00-.122-4.802l-14.93-24.161a4.716 4.716 0 00-4.015-2.239h-132.68a4.717 4.717 0 00-3.987 2.2l-15.269 24.169a4.742 4.742 0 001.583 6.609 4.725 4.725 0 002.405.664z" fill="#B4D1FA"/></g><path opacity=".5" d="M201.554 156.954a.467.467 0 01-.053.438.475.475 0 01-.39.205h-65.137a.482.482 0 01-.386-.209.482.482 0 01-.048-.437l4.292-11.365a.474.474 0 01.443-.302h56.543a.476.476 0 01.444.302l4.292 11.368z" stroke="#000" stroke-width=".3" stroke-miterlimit="10"/><path d="M178.726 160.913h-20.344c-.763-.256-.788-.329-.947-1.092a.994.994 0 01.947-1.041h20.36a.998.998 0 01.947 1.041c-.109.803-.426.851-.963 1.092z" fill="#C3DCFC"/><g filter="url(#filter13_di)"><path d="M229.915 144.289l-122.736.06a.474.474 0 01-.398-.703l7.492-14.229a.464.464 0 01.396-.23H222.41a.458.458 0 01.389.218l7.505 14.168a.479.479 0 01.008.469.475.475 0 01-.397.247z" fill="#98B9E2"/><path d="M114.412 143.612h-6.663c-.458 0-.259-.821 0-1.077l.585-1.083a.683.683 0 01.48-.172h6.663c.458 0 .733.344.477.603l-1.059 1.557a.671.671 0 01-.483.172zm8.717 0h-6.675c-.459 0-.73-.347-.477-.603l1.059-1.557a.674.674 0 01.477-.172h6.663c.458 0 .732.344.479.603l-1.059 1.557a.68.68 0 01-.467.172zm8.709 0h-6.636c-.459 0-.733-.347-.477-.603l1.056-1.557a.683.683 0 01.48-.172h6.663c.458 0 .733.344.476.603l-1.059 1.557a.66.66 0 01-.503.172zm9.878 0h-7.809c-.461 0-.733-.347-.48-.603l1.059-1.557a.674.674 0 01.48-.172h7.809c.458 0 .733.344.479.603l-1.058 1.557a.683.683 0 01-.48.172zm46.437-.44c-.022.247-.323.44-.679.44h-43.166c-.995 0-1.261-.347-1.014-.603l1.02-1.557a.642.642 0 01.461-.173h41.815c.483 0 .679.209.938.776l.621.996c.008.04.009.081.004.121zm9.222.44h-7.45a.543.543 0 01-.567-.326l-.856-1.554c-.061-.238.211-.452.567-.452h7.35a.554.554 0 01.567.322l.957 1.558c.06.238-.212.452-.568.452zm8.539 0h-6.539c-.323 0-.603-.135-.649-.326l-1.091-1.554c-.067-.238.241-.452.645-.452h6.551c.32 0 .604.135.649.322l1.092 1.558c.069.238-.254.452-.658.452zm8.226 0h-6.292a.544.544 0 01-.337-.07.545.545 0 01-.23-.256l-.96-1.554c-.057-.238.212-.452.568-.452h6.204c.281 0 .486 0 1.059.775l.564 1.105c.048.238-.233.452-.576.452zm-85.433-3.177h-19.038c-.417 0-.519-.39-.302-.604l.769-1.207a.646.646 0 01.434-.145h19.039c.416 0 .664.302.435.504l-.905 1.298a.656.656 0 01-.432.154zm7.8 0h-6.066c-.419 0-.67-.302-.437-.504l.877-1.298a.662.662 0 01.438-.145h6.065c.417 0 .667.302.435.504l-.878 1.298a.651.651 0 01-.434.145zm7.878 0h-5.55c-.383 0-.603-.302-.398-.504l.803-1.298a.564.564 0 01.398-.145h5.553c.38 0 .603.302.398.504l-.806 1.298a.564.564 0 01-.398.145zm82.951 0h-16.17c-.266 0-.495-.115-.537-.272l-.996-1.295c-.054-.199.203-.38.54-.38h16.18c.265 0 .461 0 1.007.649l.51.92c.06.199-.196.378-.534.378zm1.547 3.177h-4.941a.672.672 0 01-.476-.172l-1.059-1.557c-.253-.259.018-.603.477-.603h4.94a.676.676 0 01.477.172l1.058 1.557c.257.256-.018.603-.476.603zm-6.994 0h-5.514a.68.68 0 01-.479-.172l-1.059-1.557c-.254-.259.021-.603.479-.603h5.502a.676.676 0 01.477.172l1.058 1.557c.275.256-.006.603-.464.603zm-69.202-3.177h-5.964c-.413 0-.657-.302-.428-.504l.863-1.298a.634.634 0 01.428-.145h5.969c.411 0 .655.302.429.504l-.863 1.298a.641.641 0 01-.434.145zm8.631 0h-6.032c-.38 0-.604-.302-.399-.504l.806-1.298a.565.565 0 01.398-.145h6.033c.383 0 .603.302.398.504l-.803 1.298a.562.562 0 01-.401.145zm8.727-.001h-6.032c-.459 0-.742-.329-.507-.588l.579-1.168a.686.686 0 01.507-.19h5.101a.59.59 0 01.579.302l.356 1.167c.069.254-.208.477-.583.477zm16.316 0h-5.574a.56.56 0 01-.564-.301l-.344-1.165c-.073-.242.199-.468.564-.468h5.227a.62.62 0 01.534.245l.691 1.167c.141.245-.127.522-.534.522zm8.044 0h-5.578a.554.554 0 01-.561-.302l-.929-1.177c-.072-.241.199-.468.564-.468h5.704a.627.627 0 01.531.245l.79 1.168c.16.256-.117.534-.521.534zm8.032.001h-5.662a.578.578 0 01-.573-.302l-.932-1.165c-.072-.241.202-.468.57-.468h5.852a.648.648 0 01.543.245l.745 1.168c.154.244-.13.522-.543.522zm6.697-.001h-4.968a.495.495 0 01-.504-.301l-.817-1.165c-.064-.242.178-.468.5-.468h5.083a.537.537 0 01.476.244l.703 1.168c.136.245-.111.522-.473.522zm-82.85-2.722h-15.1c-.301 0-.473-.287-.301-.501l.802-1.412h.474l15.114-.018c.302 0 .474.283.302.498l-.99 1.282a.375.375 0 01-.301.151zm7.277 0h-5.493c-.377 0-.603-.287-.392-.501l.79-1.283a.554.554 0 01.392-.142h5.493c.38 0 .603.284.395.498l-.796 1.283a.554.554 0 01-.389.145zm7.675 0h-5.478c-.38 0-.603-.287-.395-.501l.79-1.283a.557.557 0 01.393-.142h5.492c.38 0 .603.284.395.498l-.79 1.283a.562.562 0 01-.407.145zm84.743 0h-12.421c-.666.064-.702-.154-1.016-.486l-.947-.947c-.042-.196.217-.474.473-.474l12.705-.018c.202 0 .712-.133 1.026.492l.588 1.059c.042.196-.139.374-.408.374zm-76.976 0h-5.492c-.38 0-.604-.287-.395-.501l.79-1.283a.557.557 0 01.395-.142h5.493c.377 0 .603.284.392.498l-.788 1.283a.557.557 0 01-.395.145zm7.107 0h-5.493c-.38 0-.603-.287-.395-.501l.79-1.283a.554.554 0 01.392-.142h5.493c.38 0 .603.284.395.498l-.79 1.283a.553.553 0 01-.392.145zm8.431 0h-6.259c-.444 0-.715-.329-.489-.585l.549-1.153a.652.652 0 01.489-.187h5.369a.556.556 0 01.558.302l.341 1.155c.069.245-.2.468-.558.468zm8.527 0h-6.259a1.003 1.003 0 01-.386-.172 1.005 1.005 0 01-.284-.314l-.407-1.252c-.066-.169.302-.187.489-.187h6.506a.56.56 0 01.558.302l.341 1.155c.069.245-.199.468-.558.468zm7.811 0h-5.517a.552.552 0 01-.555-.302l-.343-1.155c-.07-.239.199-.459.558-.459h5.176a.595.595 0 01.527.241l.682 1.156c.148.241-.127.519-.528.519zm8.43 0h-5.514c-.603 0-1.031-.302-1.086-.486l-.383-.981c-.069-.238.199-.458.558-.458h5.659a.599.599 0 01.528.241l.778 1.156c.139.251-.139.528-.54.528zm7.269 0h-4.971a.5.5 0 01-.503-.302l-.821-1.156c-.063-.238.178-.458.504-.458h4.663a.53.53 0 01.477.241l1.128 1.156c.132.241-.115.519-.477.519zm14.391 0h-4.932a1.166 1.166 0 01-.603-.326l-1.15-1.168c-.576-.389-.087-.431.272-.431h5.176a.601.601 0 01.528.241l1.248 1.156c.139.251-.135.528-.539.528zm-7.381.001h-4.307c-.229 0-.473 0-.947-.474l-.947-.948c-.057-.238.172-.474.474-.474l4.669-.018a.491.491 0 01.446.242l1.059 1.155c.127.239-.109.517-.447.517zm-78.504-2.726h-12.316a.3.3 0 01-.301-.479l.699-1.232a.35.35 0 01.302-.138h12.789a.305.305 0 01.319.134.308.308 0 01-.017.345l-1.174 1.232a.347.347 0 01-.301.138zm7.586 0h-5.275c-.365 0-.582-.274-.38-.48l1.206-1.231a.538.538 0 01.38-.139h5.276c.362 0 .579.275.377.48l-1.207 1.231a.529.529 0 01-.377.139zm7.824 0h-5.275c-.365 0-.58-.274-.38-.48l1.206-1.231a.53.53 0 01.377-.139h5.276c.365 0 .582.275.38.48l-1.207 1.231a.53.53 0 01-.377.139zm7.462 0h-5.261c-.364 0-.582-.274-.38-.48l1.207-1.231a.538.538 0 01.38-.139h5.275c.362 0 .58.275.381.48l-1.207 1.231a.53.53 0 01-.395.139zm7.752 0h-5.275c-.362 0-.579-.274-.38-.48l1.206-1.231a.53.53 0 01.377-.139h5.276c.365 0 .582.275.38.48l-1.207 1.231a.529.529 0 01-.377.139zm8.554 0h-6.012c-.425 0-.687-.301-.47-.561l.983-1.107a.631.631 0 01.468-.181h4.705a.533.533 0 01.534.301l.329 1.108c.066.226-.193.44-.537.44zm8.19 0h-6.012c-.419 0-.419-.371-.467-.561l-.112-1.107a.63.63 0 01.471-.181h5.794a.533.533 0 01.534.301l.329 1.108c.066.226-.19.44-.537.44zm7.504.001h-5.287a.534.534 0 01-.534-.302l-.329-1.107c-.066-.23.193-.444.537-.444h4.971a.598.598 0 01.483.25l.654 1.111c.154.226-.108.492-.495.492zm7.644-.001h-5.296a.53.53 0 01-.537-.302l-.875-1.107c-.066-.229.193-.444.537-.444h4.971a.602.602 0 01.506.233l1.207 1.11c.13.245-.127.51-.513.51zm7.114 0h-5.266a.53.53 0 01-.531-.302l-.869-1.107c-.066-.229.19-.444.534-.444h4.929a.58.58 0 01.504.233l1.191 1.11c.154.245-.109.51-.492.51zm14.641.001h-5.013a1.205 1.205 0 01-.603-.302l-1.167-1.123c-.582-.374-.088-.416.277-.416h5.24a.64.64 0 01.537.232l1.266 1.111c.154.232-.126.498-.537.498zm-7.341-.001h-5.025a.499.499 0 01-.51-.301l-.832-1.108c-.063-.229.181-.444.51-.444h4.726a.553.553 0 01.483.233l1.143 1.11c.124.245-.127.51-.495.51zm14.43 0h-5.152a1.271 1.271 0 01-.633-.302l-1.206-1.122c-.604-.374-.091-.417.283-.417h5.396a.664.664 0 01.558.239l1.306 1.11c.154.227-.132.492-.552.492zm7.514 0h-5.251a1.283 1.283 0 01-.643-.302l-1.222-1.122c-.603-.375-.09-.417.302-.417h6.497a.677.677 0 01.561.232l.658 1.014c.151.233.464.465-.902.595zm-9.426-2.837h8.614a.3.3 0 00.223-.464l-.904-1.207a.276.276 0 00-.094-.098.27.27 0 00-.13-.038h-9.561a.304.304 0 00-.245.17.306.306 0 00.022.298l1.369 1.207c.054.084.615.132.706.132zm-7.981.001h5.127c.353 0 .561-.266.365-.465l-1.176-1.207a.515.515 0 00-.368-.136h-5.128c-.353 0-.564.269-.368.468l1.18 1.207c.1.091.232.138.368.133zm-7.601 0h5.127c.353 0 .564-.266.368-.465l-1.179-1.207a.515.515 0 00-.368-.136h-5.128c-.353 0-.564.269-.368.468l1.177 1.207a.521.521 0 00.371.133zm-7.246 0h5.128c.353 0 .561-.266.365-.465l-1.176-1.207a.517.517 0 00-.368-.136h-5.128c-.353 0-.564.269-.368.468l1.179 1.207a.52.52 0 00.368.133zm-7.544 0h5.128c.352 0 .564-.266.368-.465l-1.18-1.207a.515.515 0 00-.368-.136h-5.127c-.353 0-.561.269-.365.468l1.176 1.207a.52.52 0 00.368.133zm-8.78-.001h5.84c.41 0 .666-.301.455-.543l-.956-1.077a.604.604 0 00-.455-.175h-4.567a.518.518 0 00-.519.302l-.32 1.077c-.063.211.187.416.522.416zm-7.951 0h5.84c.407 0 .407-.359.455-.543l.106-1.077a.6.6 0 00-.456-.175h-5.643a.514.514 0 00-.519.301l-.32 1.078c-.051.211.199.416.537.416zm-7.763.001h5.145a.527.527 0 00.519-.302l.32-1.078c.063-.223-.187-.431-.522-.431h-4.826a.563.563 0 00-.492.226l-.636 1.078c-.139.25.112.507.492.507zm-7.896 0h5.145a.527.527 0 00.519-.302l.848-1.078c.066-.223-.184-.431-.519-.431h-4.811a.567.567 0 00-.492.226l-1.167 1.078c-.151.25.103.507.477.507zm-6.782-.001h4.645a.461.461 0 00.467-.302l.766-1.077c.058-.223-.168-.431-.47-.431h-4.356a.5.5 0 00-.443.226l-1.053 1.077c-.126.251.106.507.444.507zm-14.456.001h4.624a1.1 1.1 0 00.567-.302l1.071-1.09c.537-.362.081-.404-.254-.404h-4.826a.575.575 0 00-.491.226l-1.195 1.078c-.127.235.13.492.504.492zm7.239-.001h4.892a.495.495 0 00.495-.301l.805-1.078c.063-.223-.175-.431-.495-.431h-4.59a.53.53 0 00-.263.053.529.529 0 00-.205.173l-1.11 1.077c-.133.251.112.507.471.507zm-13.934.001h4.609c.214-.043.41-.148.564-.302l1.074-1.09c.534-.362.078-.404-.256-.404h-4.826a.577.577 0 00-.492.226l-1.167 1.078c-.139.235.117.492.494.492zm-9.192-.001h7.447c.25-.037.486-.141.682-.301l.817-1.09c0-.404-.377-.404-.778-.404h-7.336a.743.743 0 00-.603.226l-.832 1.434s.135.135.603.135zm63.839 8.284h-6.062a.686.686 0 01-.661-.302l-.41-1.177c-.085-.241.235-.467.66-.467h6.132a.788.788 0 01.625.244l.335 1.168c.292.64-.142.534-.619.534z" fill="#1A3E66"/><path d="M214.918 142.445h7.182" stroke="#98B9E2" stroke-miterlimit="10"/></g><path d="M113.813 126.094h-10.285a.302.302 0 00-.302.302v.344c0 .166.135.301.302.301h10.285a.302.302 0 00.302-.301v-.344a.302.302 0 00-.302-.302zm119.321 0h-10.285a.302.302 0 00-.302.302v.344c0 .166.135.301.302.301h10.285a.302.302 0 00.302-.301v-.344a.302.302 0 00-.302-.302zm-119.489 3.313l-7.577 13.74H90.917l8.047-13.74h14.681zm110.292 0l7.573 13.74h14.711l-8.081-13.74h-14.203z" fill="#8CB8ED"/><path d="M224.998 129.407l7.842 13.74m-7.367-13.74l7.842 13.74m-7.369-13.74l7.842 13.74m-7.369-13.74l7.843 13.74m-7.37-13.74l7.843 13.74m-7.368-13.74l7.843 13.74m-7.37-13.74l7.842 13.74m-7.37-13.74l7.843 13.74m-7.367-13.74l7.843 13.74m-12.106-13.74l7.842 13.74m-8.315-13.739l7.842 13.74m-1.686-13.741l7.842 13.74m-7.369-13.74l7.842 13.74m-7.368-13.74l7.842 13.74m-7.368-13.74l7.842 13.74m-7.368-13.74l7.842 13.74m-7.37-13.74l7.842 13.74m-7.368-13.74l7.842 13.74m-7.368-13.74l7.842 13.74m-7.369-13.74l7.842 13.74m-12.105-13.74l7.843 13.74m-8.316-13.74l7.842 13.74m-1.686-13.74l7.843 13.74m-7.368-13.74l7.842 13.74m-7.368-13.74l7.843 13.74m-7.371-13.74l7.842 13.74m-7.368-13.74l7.843 13.74m-7.373-13.74l7.845 13.74m-10.683-13.74l7.842 13.74m-8.316-13.74l7.843 13.74m-130.209-13.74l-7.842 13.74m7.369-13.74l-7.842 13.74m7.368-13.74l-7.842 13.74m7.368-13.74l-7.842 13.74m7.37-13.74l-7.842 13.74m7.368-13.74l-7.842 13.74m7.367-13.74l-7.843 13.74m7.371-13.74l-7.843 13.74m7.368-13.74l-7.842 13.74m12.104-13.74l-7.842 13.74m8.317-13.74l-7.843 13.74m8.316-13.74l-7.843 13.74m1.213-13.74l-7.842 13.74m7.368-13.74l-7.842 13.74m7.369-13.74l-7.842 13.74m7.368-13.74l-7.842 13.74m7.37-13.74l-7.843 13.74m7.369-13.74l-7.843 13.74m7.369-13.74l-7.843 13.74m7.369-13.74l-7.842 13.74m7.369-13.74l-7.842 13.74m12.104-13.74l-7.842 13.74m8.315-13.74l-7.842 13.74m1.686-13.74l-7.842 13.74m7.369-13.74l-7.842 13.74m7.368-13.74l-7.843 13.74m7.369-13.74l-7.842 13.74m7.368-13.74l-7.843 13.74m7.37-13.739l-7.843 13.74m10.684-13.741l-7.842 13.74m8.316-13.74l-7.842 13.74" stroke="#000" stroke-width=".05" stroke-miterlimit="10"/><path d="M234.096 122.52H103.792V40.736h130.304v81.784z" fill="#0C2540"/></g><path fill="url(#paint21_linear)" d="M115.389 44.346h12.837v2.141h-12.837z"/><path fill="url(#paint22_linear)" d="M115.389 49.85h7.03v2.141h-7.03z"/><path fill="url(#paint23_linear)" d="M115.389 55.355h7.03v2.141h-7.03z"/><path fill="url(#paint24_linear)" d="M115.389 77.373h7.03v2.141h-7.03z"/><path fill="url(#paint25_linear)" d="M115.389 82.878h7.03v2.141h-7.03z"/><path fill="url(#paint26_linear)" d="M121.197 88.382h9.781v2.141h-9.781z"/><path fill="url(#paint27_linear)" d="M125.169 93.886h9.475v2.141h-9.475z"/><path fill="url(#paint28_linear)" d="M121.197 60.86h7.03v2.141h-7.03z"/><path fill="url(#paint29_linear)" d="M121.197 66.364h7.03v2.141h-7.03z"/><path fill="url(#paint30_linear)" d="M121.197 71.869h7.03v2.141h-7.03z"/><path fill="#767676" d="M130.06 60.86h13.143v2.141H130.06zm0 5.504h19.256v2.141H130.06zm0 5.505h13.143v2.141H130.06z"/><path fill="url(#paint31_linear)" d="M145.037 60.86h9.169v2.141h-9.169z"/><path fill="#71A0DD" d="M151.149 66.364h9.169v2.141h-9.169zm-6.112 5.505h15.282v2.141h-15.282z"/><path fill="#767676" d="M162.153 71.869h25.369v2.141h-25.369z"/><path fill="url(#paint32_linear)" d="M121.197 99.391h7.03v2.141h-7.03z"/><path fill="url(#paint33_linear)" d="M121.197 104.896h7.03v2.141h-7.03z"/><path fill="url(#paint34_linear)" d="M115.389 110.706h7.03v2.141h-7.03z"/><path fill="url(#paint35_linear)" d="M115.389 115.905h7.03v2.141h-7.03z"/><path fill="#767676" d="M130.06 99.391h13.143v2.141H130.06zm14.977 0h15.282v2.141h-15.282zm-14.977 5.505h13.143v2.141H130.06z"/><path fill="#71A0DD" d="M145.037 104.896h9.169v2.141h-9.169z"/><path fill="url(#paint36_linear)" d="M162.153 99.391h8.864v2.141h-8.864z"/><path fill="#71A0DD" d="M189.356 71.869h10.086v2.141h-10.086z"/><path d="M110.08 47.018a.19.19 0 01.146.065.19.19 0 010 .287.199.199 0 01-.146.059h-1.483a.212.212 0 01-.146-.06.193.193 0 01-.059-.14c0-.054.02-.103.059-.146a.19.19 0 01.146-.065h.569v-2.431l-.487.24a.66.66 0 01-.052.023.433.433 0 01-.088.006.176.176 0 01-.117-.053c-.039-.039-.059-.097-.059-.175 0-.078.041-.137.123-.176l.656-.34a.278.278 0 01.135-.035h.1c.062 0 .115.023.158.07.047.043.07.096.07.158v2.713h.475zm.087 5.505a.19.19 0 01.147.064.2.2 0 01.059.147.19.19 0 01-.059.14.199.199 0 01-.147.06h-1.851a.247.247 0 01-.182-.071.238.238 0 01-.07-.176c0-.168.047-.32.141-.457.093-.137.211-.262.351-.375.141-.117.295-.227.463-.328.168-.102.322-.203.463-.305.144-.101.264-.207.357-.316a.506.506 0 00.141-.328.76.76 0 00-.041-.27.443.443 0 00-.129-.187c-.129-.118-.326-.176-.592-.176-.285 0-.558.058-.82.176a.244.244 0 01-.111.023.158.158 0 01-.112-.053.223.223 0 01-.047-.152c0-.066.034-.12.1-.158a2.34 2.34 0 011.072-.246c.313 0 .573.09.78.27a.872.872 0 01.322.702c0 .29-.147.57-.44.844a3.596 3.596 0 01-.421.328c-.149.098-.293.195-.434.293a5.523 5.523 0 00-.381.276.721.721 0 00-.228.275h1.669zm.118 3.377c0 .388-.194.655-.58.804.304.074.513.234.627.48.046.102.07.229.07.38a.768.768 0 01-.1.4.835.835 0 01-.263.287c-.227.156-.52.234-.879.234-.352 0-.686-.065-1.002-.194-.086-.039-.129-.1-.129-.181 0-.05.017-.096.053-.135.035-.043.074-.064.117-.064a.42.42 0 01.164.04c.195.083.433.122.715.118.398 0 .67-.092.814-.276a.4.4 0 00.07-.257c0-.403-.351-.606-1.054-.61h-.082a.192.192 0 01-.141-.058.193.193 0 01-.059-.14c0-.056.02-.102.059-.142a.192.192 0 01.141-.058h.035c.66 0 .988-.194.984-.58a.42.42 0 00-.187-.358c-.121-.093-.311-.14-.569-.14-.261 0-.509.052-.744.158a.223.223 0 01-.099.018.175.175 0 01-.118-.047.214.214 0 01-.046-.147c0-.066.031-.115.093-.146.301-.164.627-.246.979-.246.351 0 .627.076.826.228.203.148.305.36.305.633zm.123 6.811c.054 0 .101.02.14.059.039.035.059.08.059.135 0 .054-.02.101-.059.14a.19.19 0 01-.14.053h-.364v.65c0 .06-.021.11-.064.153a.216.216 0 01-.158.064.21.21 0 01-.211-.217v-.65h-1.465a.28.28 0 01-.199-.076.281.281 0 01-.076-.2v-.04c0-.07.017-.13.052-.176l1.506-1.922c.055-.078.137-.117.246-.117h.094c.086 0 .152.027.199.082a.281.281 0 01.076.2v1.862h.364zm-.797 0v-1.646l-1.278 1.646h1.278zm-1.055 4.808c.242-.133.514-.197.815-.193.355 0 .632.101.832.304.187.196.283.455.287.78 0 .508-.242.841-.727 1.002a1.858 1.858 0 01-.586.082 1.89 1.89 0 01-1.025-.276c-.063-.039-.094-.09-.094-.152 0-.067.016-.121.047-.164a.155.155 0 01.123-.065.38.38 0 01.17.053c.223.117.463.174.721.17.457 0 .746-.117.867-.352a.772.772 0 00.07-.322.593.593 0 00-.199-.468.726.726 0 00-.498-.176c-.297 0-.561.07-.791.21a.421.421 0 01-.205.06.351.351 0 01-.188-.077.266.266 0 01-.088-.21c0-.044.002-.081.006-.112l.217-1.278a.267.267 0 01.082-.175.244.244 0 01.17-.065h1.541c.055 0 .104.022.147.065a.186.186 0 01.064.14.205.205 0 01-.064.147.201.201 0 01-.147.058h-1.389l-.158 1.014zm.527 5.3c.102-.024.227-.035.375-.035.149 0 .29.027.422.082a.92.92 0 01.34.222c.207.211.311.485.311.82 0 .31-.106.567-.317.774-.218.211-.507.317-.867.317-.367 0-.656-.098-.867-.293-.254-.243-.4-.6-.439-1.073a6.635 6.635 0 01-.012-.41c0-.148.023-.324.07-.527.047-.207.123-.393.229-.557.109-.168.252-.306.427-.416.18-.113.387-.17.621-.17.235 0 .418.022.551.065.133.043.248.09.346.14.07.04.103.092.1.159a.22.22 0 01-.053.152.16.16 0 01-.123.058.314.314 0 01-.141-.035 1.402 1.402 0 00-.586-.117c-.219 0-.392.045-.521.135a1 1 0 00-.299.316 1.771 1.771 0 00-.199.78c.14-.188.351-.317.632-.387zm-.117 1.7a.89.89 0 00.358.07.92.92 0 00.334-.053.675.675 0 00.433-.65.698.698 0 00-.175-.505c-.118-.132-.297-.199-.54-.199a.995.995 0 00-.621.188.925.925 0 00-.281.34c.055.414.219.683.492.808zm1.231 2.585a.26.26 0 01.193.076.227.227 0 01.082.182c0 .07-.017.14-.053.21l-1.359 2.79c-.043.082-.105.12-.187.117a.26.26 0 01-.182-.059.186.186 0 01-.059-.134c0-.051.012-.098.035-.141l1.319-2.625h-1.746a.212.212 0 01-.147-.059.198.198 0 01-.058-.146c0-.055.019-.104.058-.147a.202.202 0 01.147-.064h1.957zm.181 6.336a.71.71 0 01-.046.264.662.662 0 01-.124.205.906.906 0 01-.386.258c.215.074.386.184.515.328.133.14.2.334.2.58a.795.795 0 01-.282.627c-.23.207-.562.309-.996.305-.433 0-.767-.102-1.002-.305a.81.81 0 01-.287-.62c0-.25.067-.446.199-.587.133-.144.307-.254.522-.328-.258-.09-.428-.244-.51-.463a.74.74 0 01-.047-.264.823.823 0 01.246-.586c.203-.195.496-.293.879-.293s.672.098.867.293c.168.165.252.36.252.586zm-1.119 2.18c.289 0 .508-.072.657-.217.121-.113.181-.23.181-.351a.58.58 0 00-.064-.31.559.559 0 00-.194-.2.968.968 0 00-.58-.164 1 1 0 00-.586.164.565.565 0 00-.263.48c0 .141.06.268.181.381.157.145.379.217.668.217zm0-1.64c.239 0 .416-.06.533-.176a.443.443 0 00.147-.346.467.467 0 00-.17-.357c-.109-.102-.279-.153-.51-.153-.234 0-.408.051-.521.153a.467.467 0 00-.17.357.49.49 0 00.164.363c.113.106.289.159.527.159zm.164 6.266a1.687 1.687 0 01-.375.035c-.144 0-.285-.025-.422-.076a.98.98 0 01-.339-.229c-.207-.21-.311-.484-.311-.82 0-.313.107-.57.322-.773.227-.211.516-.317.868-.317.367 0 .656.098.867.293.254.242.398.6.433 1.072.008.13.012.268.012.416 0 .149-.023.325-.07.528a1.71 1.71 0 01-.235.556 1.283 1.283 0 01-.427.416c-.176.11-.381.165-.616.165-.23 0-.414-.022-.55-.065a2.265 2.265 0 01-.346-.14c-.07-.04-.106-.09-.106-.153a.253.253 0 01.059-.158.155.155 0 01.117-.059c.047 0 .1.014.158.041.18.078.373.118.58.118a.938.938 0 00.51-.135c.133-.09.237-.198.311-.323.117-.21.183-.47.199-.779-.145.188-.357.317-.639.387zm.118-1.7a.876.876 0 00-.358-.07.838.838 0 00-.334.059.715.715 0 00-.234.146.682.682 0 00-.199.504c0 .2.058.365.175.498.117.133.297.2.539.2.25 0 .457-.063.621-.188a.928.928 0 00.282-.34c-.055-.414-.219-.683-.492-.808zm.539 8.014a.19.19 0 01.146.064.19.19 0 010 .287.198.198 0 01-.146.059h-1.483a.21.21 0 01-.146-.059.192.192 0 01-.059-.14c0-.055.02-.104.059-.147a.19.19 0 01.146-.064h.569v-2.432l-.487.24a.552.552 0 01-.053.024.414.414 0 01-.087.005.178.178 0 01-.118-.052c-.039-.04-.058-.098-.058-.176 0-.078.041-.137.123-.176l.656-.34a.279.279 0 01.135-.035h.099a.21.21 0 01.159.07c.047.043.07.096.07.159v2.713h.475zm2.191-2.989c.215 0 .402.041.562.123.165.082.299.201.405.358.219.3.328.715.328 1.242 0 .531-.109.947-.328 1.248-.231.316-.555.475-.973.475-.418 0-.742-.159-.973-.475-.218-.3-.328-.717-.328-1.248 0-.527.11-.941.328-1.242.231-.32.557-.48.979-.48zm0 3.041a.703.703 0 00.639-.357c.148-.234.222-.555.222-.961 0-.406-.074-.727-.222-.961a.71.71 0 00-.651-.352.7.7 0 00-.638.358c-.145.234-.217.553-.217.955 0 .41.072.73.217.96a.728.728 0 00.65.358zm-2.191 5.452c.058 0 .107.021.146.064a.19.19 0 01.065.147.186.186 0 01-.065.141.198.198 0 01-.146.058h-1.483a.21.21 0 01-.146-.058.194.194 0 01-.059-.141c0-.055.02-.104.059-.147a.189.189 0 01.146-.064h.569v-2.432l-.487.24a.552.552 0 01-.053.024.414.414 0 01-.087.006.178.178 0 01-.118-.053c-.039-.039-.058-.098-.058-.176 0-.078.041-.136.123-.175l.656-.34a.279.279 0 01.135-.035h.099c.063 0 .116.023.159.07.047.043.07.096.07.158v2.713h.475zm3.011 0a.19.19 0 01.147.064.19.19 0 01.064.147.185.185 0 01-.064.141.199.199 0 01-.147.058h-1.482a.212.212 0 01-.147-.058.193.193 0 01-.058-.141c0-.055.019-.104.058-.147a.19.19 0 01.147-.064h.568v-2.432l-.486.24a.691.691 0 01-.053.024.426.426 0 01-.088.006.176.176 0 01-.117-.053c-.039-.039-.058-.098-.058-.176 0-.078.041-.136.123-.175l.656-.34a.279.279 0 01.135-.035h.099c.063 0 .115.023.158.07a.206.206 0 01.071.158v2.713h.474zm-3.011 5.504c.058 0 .107.021.146.064a.19.19 0 010 .287.2.2 0 01-.146.059h-1.483a.21.21 0 01-.146-.059.192.192 0 01-.059-.14c0-.055.02-.104.059-.147a.189.189 0 01.146-.064h.569v-2.432l-.487.24a.546.546 0 01-.053.024.405.405 0 01-.087.006.18.18 0 01-.118-.053c-.039-.039-.058-.098-.058-.176 0-.078.041-.136.123-.176l.656-.339a.273.273 0 01.135-.036h.099c.063 0 .116.024.159.071.047.043.07.095.07.158v2.713h.475zm3.099 0a.19.19 0 01.147.064.199.199 0 01.058.147.2.2 0 01-.205.199h-1.851a.239.239 0 01-.252-.246c0-.168.047-.32.14-.457.094-.137.211-.262.352-.375.14-.117.295-.227.463-.328.168-.102.322-.203.463-.305.144-.101.263-.207.357-.316a.507.507 0 00.141-.328.76.76 0 00-.041-.27.456.456 0 00-.129-.187c-.129-.118-.326-.176-.592-.176a1.97 1.97 0 00-.82.176.26.26 0 01-.112.023.157.157 0 01-.111-.053.223.223 0 01-.047-.152c0-.067.033-.119.1-.158a2.338 2.338 0 011.072-.246c.313 0 .572.089.779.269.215.18.323.414.323.703s-.147.571-.44.844a3.485 3.485 0 01-.422.328c-.148.098-.293.195-.433.293a5.96 5.96 0 00-.381.275.726.726 0 00-.229.276h1.67zm-3.099 5.505c.058 0 .107.021.146.064a.19.19 0 010 .287.2.2 0 01-.146.059h-1.483a.21.21 0 01-.146-.059.192.192 0 01-.059-.14c0-.055.02-.104.059-.147a.189.189 0 01.146-.064h.569v-2.432l-.487.24a.546.546 0 01-.053.024.405.405 0 01-.087.006.18.18 0 01-.118-.053c-.039-.039-.058-.098-.058-.176 0-.078.041-.137.123-.176l.656-.339a.273.273 0 01.135-.036h.099c.063 0 .116.024.159.071.047.043.07.095.07.158v2.713h.475zm3.216-2.127c0 .387-.193.654-.58.803.305.074.514.234.627.48a.91.91 0 01.071.381.776.776 0 01-.1.398.83.83 0 01-.264.287c-.226.157-.519.235-.879.235-.351 0-.685-.065-1.002-.194-.086-.039-.128-.099-.128-.181 0-.051.017-.096.052-.135.035-.043.074-.064.117-.064.047 0 .102.013.165.041.195.082.433.121.714.117.399 0 .67-.092.815-.276a.397.397 0 00.07-.257c0-.403-.351-.606-1.055-.61h-.082a.191.191 0 01-.14-.058.193.193 0 01-.059-.141c0-.055.02-.102.059-.141a.191.191 0 01.14-.058h.036c.66 0 .988-.194.984-.58a.42.42 0 00-.188-.358c-.121-.093-.31-.14-.568-.14-.262 0-.51.052-.744.158a.228.228 0 01-.1.017.172.172 0 01-.117-.046.216.216 0 01-.047-.147c0-.066.032-.115.094-.146.301-.164.627-.247.979-.247.351 0 .626.077.826.229.203.148.304.359.304.633zm-3.216 7.632c.058 0 .107.021.146.064a.19.19 0 010 .287.2.2 0 01-.146.059h-1.483a.21.21 0 01-.146-.059.192.192 0 01-.059-.14c0-.055.02-.104.059-.147a.189.189 0 01.146-.064h.569v-2.432l-.487.24a.546.546 0 01-.053.024.405.405 0 01-.087.006.18.18 0 01-.118-.053c-.039-.039-.058-.098-.058-.176 0-.078.041-.137.123-.176l.656-.34a.283.283 0 01.135-.035h.099c.063 0 .116.024.159.071.047.043.07.095.07.158v2.713h.475zm3.339-.821c.055 0 .102.02.141.059.039.035.059.08.059.135a.192.192 0 01-.2.193h-.363v.65c0 .059-.021.11-.064.153a.216.216 0 01-.159.064.208.208 0 01-.21-.217v-.65h-1.465a.284.284 0 01-.2-.076.286.286 0 01-.076-.199v-.041c0-.071.018-.129.053-.176l1.506-1.922c.055-.078.137-.117.246-.117h.094c.086 0 .152.027.199.082a.281.281 0 01.076.199v1.863h.363zm-.796 0v-1.646l-1.278 1.646h1.278z" fill="#919191"/><g filter="url(#filter14_f)"><path d="M191.61 161.316h-14.056l18.875 36.831 5.22-1.741-4.015-4.822.937-10.178-6.961-20.09z" fill="url(#paint37_linear)"/></g><g filter="url(#filter15_f)"><ellipse cx="137.798" cy="153.682" rx="17.67" ry="4.822" fill="#000" fill-opacity=".3"/></g><g clip-path="url(#clip0)"><path d="M135.727 96.706l-3.126 3.825-1.569 3.253-1.43 4.095s-2.536 2.354-2.402 2.405c.133.052-.145 2.885.139 3.294.283.41 3.137 3.824 3.137 3.824s2.762 1.794 3.862 2.031c1.1.236 6.646 2.642 6.646 2.642l3.416-3.259-1.303-1.714s3.555-2.128 3.978-2.411c.422-.282 2.159-1.984 2.159-1.984a14.982 14.982 0 00-.318-2.423c-.255-.957-1.957-5.629-1.957-5.629s-2.275-3.259-2.559-3.824c-.284-.566-1.563-2.412-1.563-2.412l-7.11-1.713z" fill="#37354C"/><path d="M142.518 117.495l.869-.866h-9.842l1.158 2.308 6.947.288.579-.865.289-.865z" fill="#37354C"/><path d="M129.898 117.399l3.357-.193 1.292.995 7.392.447.71-1.38h4.304a2.379 2.379 0 011.68.679c.447.439.701 1.037.706 1.662l.17 22.08-21.79.167-.17-22.08a2.353 2.353 0 01.68-1.673 2.373 2.373 0 011.669-.704z" fill="#61A6FF"/><path d="M135.432 110.573a.648.648 0 01-.4.606.661.661 0 01-.378.04.662.662 0 01-.337-.178.652.652 0 11.921-.925.646.646 0 01.194.457zm6.189 0a.655.655 0 11-1.258-.247.649.649 0 01.609-.399.646.646 0 01.649.646z" fill="#37354C"/><path d="M138.684 151.486l-8.574 8.693-.133 28.76h-3.827l-5.621-29.585a3.489 3.489 0 01.18-2.147 3.515 3.515 0 011.406-1.637l7.995-9.869 8.574 5.785z" fill="#BCBACE"/><path d="M115.649 137.337a2.019 2.019 0 01-.278-1.615c1.228-4.886 9.993-16.382 10.358-16.86.579-.727 3.577-1.379 3.577-1.379l.342 7.891-7.891 9.281a1.993 1.993 0 00-.272 2.163l6.253 12.69-3.3.923-8.789-13.094z" fill="#61A6FF"/><path d="M144.255 145.701l9.553 9.287c.63.385 1.122.957 1.408 1.636.286.679.35 1.43.184 2.147l-7.22 30.168h-3.821l1.454-29.343-10.161-8.11 8.603-5.785z" fill="#BCBACE"/><path d="M159.991 137.077c.261-.439.351-.958.255-1.459-.938-4.776-8.806-16.272-9.194-16.756-.579-.727-3.578-1.379-3.578-1.379l-.324 7.891 6.785 9.062a2.161 2.161 0 01.284 2.111l-5.159 12.961 3.3.923 7.631-13.354z" fill="#61A6FF"/><path d="M129.237 149.635a2.745 2.745 0 01-1.705 2.542 2.772 2.772 0 01-3.009-.597 2.745 2.745 0 01.418-4.233 2.766 2.766 0 013.487.342c.518.516.809 1.216.809 1.946z" fill="#EEBCC5"/><path d="M133.122 109.593s-.975-2.565-1.961-1.717c-1.172 1.006-.69 2.016.25 3.586 0 0 .809 1.307 1.393.894.002.008.29-1.892.318-2.763z" fill="#FFCFAE"/><path d="M132.78 110.042c-.261-.978-1.181-1.198-1.62-.834-.439.364.434 2.048 1.131 2.077.559.027.643-.65.489-1.243z" fill="#EAAB85"/><path d="M132.671 110.941c-.115-.724-.832-.951-1.219-.722-.388.23.157 1.498.729 1.577.458.06.567-.409.49-.855zm3.269 10.778l2.23.236c1.794 0 3.133-.735 3.133-2.172l.217-5.541h-6.71l.24 5.541c0 1.429.521 1.749.89 1.936z" fill="#FFCFAE"/><path d="M141.521 115.784s-.259 2.571-3.355 2.571c-2.838 0-3.355-2.314-3.355-2.314 1.115.838 2.762.188 2.762.188 2.604-.01 3.948-.445 3.948-.445z" fill="#EAAB85"/><path d="M143.104 109.465s1.108-2.511 2.048-1.612c1.117 1.066.583 2.049-.438 3.567 0 0-.877 1.263-1.438.821-.002.007-.191-1.905-.172-2.776z" fill="#FFCFAE"/><path d="M143.421 109.932c.312-.963 1.242-1.135 1.661-.748.419.386-.541 2.022-1.239 2.015-.559-.003-.608-.683-.422-1.267z" fill="#EAAB85"/><path d="M143.482 110.836c.153-.717.881-.907 1.256-.658s-.236 1.488-.812 1.536c-.46.036-.544-.438-.444-.878z" fill="#FFCFAE"/><path d="M131.808 99.325c.671-.828.164-.132 1.158-1.154.641-.661 1.336-1.226 2.56-1.797 5.187-2.407 7.919 2.707 7.919 2.707 1.398-.152-.142.106.523 1.446.623 1.255-.346-.59-.523.232-.467 1.546 1.213 2.738 1.165 2.326l-.251 2.366c-.982-3.265-2.472-4.595-2.472-4.595l-4.736-.383-5.023 9.473-1.149-5.413c-.124-.708-.852-2.086-.812-2.807.022-.417 2.325-1.84 1.641-2.401z" fill="#202020"/><path d="M131.786 105.792c0 1.904.187 5.89 1.361 8.254 1.921 3.281 3.985 3.281 5.017 3.281 1.033 0 2.839-.196 4.904-3.281 1.517-2.267 1.414-8.254 1.414-8.254s.936-6.775-5.794-6.775c-7.121.007-6.902 6.775-6.902 6.775z" fill="#FFCFAE"/><path d="M144.29 109.482c.642-2.239 1.926-8.955-1.071-9.59l-4.986-1.51s-5.655 1.575-5.832 1.502c-.177-.072-1.157 2.454-1.157 2.454s-.436 6.824 1.169 1.387c.333-.895 1.284-1.918 2.854-1.392 2.055.825 4.187 1.155 5.492.113 2.247-.801 2.938.937 3.531 2.239.269 3.031-.07 4.805 0 4.797z" fill="#202020"/><path d="M136.45 112.185c-.267.215.132.323.132.323h.534s.533.429 1.064 0h.533s.4-.108.134-.323" stroke="#EAAB85" stroke-width=".4" stroke-miterlimit="10"/><path d="M137.095 108.071s.423 1.319-.145 3.083l.145-3.083z" fill="#EAAB85"/><path d="M139.354 106.791a.395.395 0 11-.003-.792l1.729.021c.258 0 .512.066.737.192.289.17.144.613-.189.578l-.377-.039-1.897.04zm-3.618-.016a.38.38 0 10.014-.761h-1.656a1.404 1.404 0 00-.698.178c-.276.162-.138.586.18.555l.374-.036 1.786.064z" fill="#202020"/><path d="M141.015 107.564c-.323-.12-.428-.082-.908-.082a2.56 2.56 0 00-.639.16s-.48.479-.538.541c-.1.114-.064.242.088.262.152.021.32-.025.448 0 .985.16 1.196.221 1.759 0 .225-.081.439-.188.639-.319a2.378 2.378 0 00-.849-.562z" fill="#fff"/><path d="M140.428 107.731a.56.56 0 00-.512.785c.413.07.62.069 1.013.022a.559.559 0 00-.501-.807z" fill="#28160D" stroke="#1C1105" stroke-width=".2" stroke-miterlimit="10"/><path d="M140.436 108.592a.296.296 0 100-.592.296.296 0 100 .592z" fill="#000"/><path opacity=".77" d="M140.108 108.289a.16.16 0 100-.319.16.16 0 100 .319z" fill="#fff"/><path d="M138.888 108.332l.57-.622a.412.412 0 01.192-.117l.235-.061c.12-.03.245-.041.368-.032l.603.048c.123.01.242.048.348.11l.622.376.202.011-.581-.522a.94.94 0 00-.418-.134l-.602-.048a1.226 1.226 0 00-.422.038l-.233.061a1.176 1.176 0 00-.43.159l-.674.759.22-.026z" fill="#D3A688"/><path opacity=".5" d="M138.827 108.357l.571-.622a.478.478 0 01.229-.139l.233-.061c.133-.034.27-.046.406-.035l.603.048c.136.01.268.052.384.123l.612.373" stroke="#0A0001" stroke-width=".3" stroke-miterlimit="10"/><path d="M138.908 108.441h.251c.131-.001.263.013.391.04.312.046.954.203 1.516.043.035-.012.287-.142.32-.16l.32-.159" stroke="#472A22" stroke-width=".2" stroke-miterlimit="10"/><path d="M134.275 107.564c.323-.12.429-.082.909-.082.219.026.434.079.639.16 0 0 .48.479.537.541.101.114.064.242-.087.262-.152.021-.32-.025-.448 0-.985.16-1.196.221-1.759 0a3.06 3.06 0 01-.64-.319c.239-.246.529-.438.849-.562z" fill="#fff"/><path d="M134.862 107.731a.559.559 0 01.512.785c-.413.07-.62.069-1.014.022a.559.559 0 01.502-.807z" fill="#28160D" stroke="#1C1105" stroke-width=".2" stroke-miterlimit="10"/><path d="M134.853 108.592a.296.296 0 110-.592c.164 0 .298.132.298.296a.298.298 0 01-.298.296z" fill="#000"/><path opacity=".77" d="M134.571 108.303a.16.16 0 11.001-.319.16.16 0 01-.001.319z" fill="#fff"/><path d="M136.403 108.332l-.571-.622a.407.407 0 00-.192-.117l-.235-.061a1.164 1.164 0 00-.367-.032l-.603.048a.826.826 0 00-.349.11l-.622.376-.201.011.58-.522a.944.944 0 01.419-.134l.601-.048c.142-.012.285.001.422.038l.234.061c.152.024.298.079.43.159l.673.759-.219-.026z" fill="#D3A688"/><path opacity=".5" d="M136.463 108.357l-.571-.622a.47.47 0 00-.228-.139l-.234-.061a1.234 1.234 0 00-.406-.035l-.603.048a.852.852 0 00-.383.123l-.613.373" stroke="#0A0001" stroke-width=".3" stroke-miterlimit="10"/><path d="M136.382 108.441h-.251a1.843 1.843 0 00-.392.04c-.312.046-.954.203-1.516.043a7.34 7.34 0 01-.32-.16l-.32-.159" stroke="#472A22" stroke-width=".2" stroke-miterlimit="10"/><path d="M145.696 99.256c-1.129-2.954-7.462-3.969-7.543-3.969-.076 0-6.409 1.015-7.527 3.969-1.117 2.953-4.538 11.328-4.399 13.595.138 2.267 4.266 4.534 4.266 4.534l2.763-.179s-3.763-3.201-4.342-4.903c-.579-1.701.694-3.985 1.249-4.424a34.032 34.032 0 016.23-7.925 2.605 2.605 0 013.52 0 34.243 34.243 0 016.212 7.925c.579.439 1.303 2.752.736 4.424-.491 1.448-3.336 4.174-4.094 4.882-.067.062-.021.173.07.173l2.987.027s4.127-2.267 4.266-4.534c.139-2.267-3.259-10.642-4.394-13.595z" fill="#61A6FF"/><path d="M153.321 150.131a2.743 2.743 0 00-.372-1.558 2.76 2.76 0 00-2.767-1.337c-.542.076-1.05.31-1.458.674a2.75 2.75 0 00-.763 2.968c.182.514.514.963.953 1.289a2.768 2.768 0 003.491-.155 2.745 2.745 0 00.916-1.881z" fill="#EEBCC5"/><path d="M149.257 137.689v11.819s-6.704 2.497-7.659 2.365c-.956-.133-.956-10.51-.956-10.51l1.228-3.155 7.387-.519zm-21.52 0v11.819s6.704 2.497 7.66 2.365c.955-.133.961-10.51.961-10.51l-1.233-3.155-7.388-.519z" fill="#61A6FF"/><path d="M129.978 188.938l.527 4.863s-4.256 6.845-6.201 7.041c-1.945.196-1.111-3.242 0-4.816 1.112-1.575 2.583-3.557 2.583-3.557l.833-3.531h2.258zm15.07 0l-.527 4.863s3.633 6.448 5.579 6.644c1.945.196 1.111-3.241 0-4.816-1.112-1.575-1.978-3.16-1.978-3.16l-.834-3.531h-2.24z" fill="#2D2C56"/><path d="M134.992 143.74l6.368-.289-.187-22.71c.156-1.022.583-1.676 1.056-2.67 0 0-.401-.155-.869-.288-.011.758 0 .865-.058 1.442-1.389 2.596-4.863 2.019-6.021.288a3.164 3.164 0 01-.253-.46c-.036-.405-.036-.833-.036-1.27l-.579.288c.539 1.346.637 1.725.67 3.575l-.091 22.094z" fill="#A62E41"/><path d="M126.152 152.871h25.051a2.053 2.053 0 001.991-1.575l2.119-9.027a2.83 2.83 0 00-.625-2.331 2.846 2.846 0 00-2.2-1.009l-28.698.196a2.861 2.861 0 00-2.746 2.162c-.101.407-.11.831-.027 1.241l3.207 8.987a2.056 2.056 0 001.928 1.356z" fill="#fff"/><path d="M141.488 139.01l-17.698.115a2.858 2.858 0 00-2.191 1.051 2.845 2.845 0 00-.582 2.352l3.207 8.987a2.042 2.042 0 001.928 1.355h4.498l10.838-13.86z" fill="url(#paint38_linear)"/><path d="M137.875 149.398c1.394 0 2.524-1.041 2.524-2.324 0-1.284-1.13-2.325-2.524-2.325-1.394 0-2.524 1.041-2.524 2.325 0 1.283 1.13 2.324 2.524 2.324z" fill="#61A6FF"/><path d="M136.15 114.322c1.204.421 1.89.449 3.184 0" stroke="#EA908A" stroke-width=".5"/></g><g filter="url(#filter16_f)"><ellipse cx="209.28" cy="155.021" rx="17.67" ry="4.822" fill="#000" fill-opacity=".3"/></g><g clip-path="url(#clip1)"><path d="M199.506 187.477s.553 1.125-.111 1.58c-.697.448-.577.471-.668 1.051-.058.587.406 2.664.774 4.861.333 2.19-1.724 3.858-3.115 2.955-1.39-.904-.002-6.457-.017-7.519-.015-1.062-.147-1.267.126-2.195.273-.929.528-1.932 1.298-1.905.729.053 1.457.728 1.713 1.172z" fill="#B4D1FA" stroke="#263238" stroke-width=".5" stroke-miterlimit="10" stroke-linecap="round" stroke-linejoin="round"/><mask id="a" maskUnits="userSpaceOnUse" x="195" y="186" width="5" height="13"><path d="M199.434 187.528s.544 1.106-.108 1.553c-.686.439-.567.462-.657 1.032-.056.577.4 2.618.76 4.776.328 2.152-1.693 3.79-3.059 2.903-1.366-.888-.002-6.344-.017-7.387-.015-1.044-.145-1.245.124-2.157.268-.912.518-1.898 1.274-1.871.717.052 1.432.715 1.683 1.151z" fill="#B4D1FA" stroke="#263238" stroke-width=".5" stroke-miterlimit="10" stroke-linecap="round" stroke-linejoin="round"/></mask><g mask="url(#a)"><path d="M195.81 195.046c.87.253 2.783.347 3.284.832m-3.464-2.108c.964.201 3.118.83 3.554 1.41m-3.374-2.68c.951.135 3.27.762 3.517 1.212m-2.975-2.753c.752.172 2.571.766 2.883 1.121m-2.304-2.463c.625.661 2.239 1.113 2.33.913m-2.975-2.752c.857 2.111 3.607 1.989 3.879.939" stroke="#0A3D76" stroke-width="2" stroke-linecap="round"/></g><path d="M193.813 186.843s-.793 1.137-.242 1.723c.586.586 1.807.591 1.772 1.177.439 2.283.623 3.161 1.23 4.126 1.24 1.975 3.277 4.098 4.828 3.512 1.551-.586-2.809-5.97-3.599-7.199-.176-.439-.542-1.317-.542-2.064-.069-.965-.104-1.999-.862-2.137-.724-.103-2.241.483-2.585.862z" fill="#B4D1FA" stroke="#263238" stroke-width=".5" stroke-miterlimit="10" stroke-linecap="round" stroke-linejoin="round"/><path d="M201.289 195.467c-.998-.364-2.271.327-3.136.426 1.102 1.431 2.241 1.827 3.306 1.431.433-.165.085-1.178-.17-1.857z" fill="#C43B55" stroke="#263238" stroke-width=".5" stroke-miterlimit="10" stroke-linecap="round" stroke-linejoin="round"/><mask id="b" maskUnits="userSpaceOnUse" x="193" y="186" width="9" height="12"><path d="M193.792 186.932s-.739 1.069-.178 1.647c.596.577 1.771.635 1.736 1.213.447 2.251.633 3.117 1.251 4.069 1.262 1.947 3.334 4.041 4.913 3.463 1.578-.578-2.859-5.887-3.663-7.099-.179-.433-.62-1.438-.62-2.174-.07-.952-.037-1.832-.808-1.968-.737-.102-2.28.476-2.631.849z" fill="#B4D1FA"/></mask><g mask="url(#b)"><path d="M197.627 195.178c.792-.264 2.666-.766 3.3-.66m-4.224-.528c.836-.352 2.798-1.003 3.432-.792m-3.96-.264c.792-.396 2.877-1.135 3.3-.924m-3.696-.528c.66-.264 2.35-.765 2.772-.66m-3.036-.66c.66-.176 2.139-.633 2.244-.528m-3.695-.528c1.523.258 3.563-1.187 3.431-1.319" stroke="#0A3D76" stroke-width="2" stroke-linecap="round"/></g><path d="M195.789 196.117c1.076-.087 2.548.405 3.362.745-.651 1.176-1.967 1.732-2.89 1.039-.374-.286-.495-.966-.472-1.784z" fill="#C43B55" stroke="#263238" stroke-width=".5" stroke-miterlimit="10" stroke-linecap="round" stroke-linejoin="round"/><path d="M200.37 184.257s-.398 2.735-.672 3.544c-.235.836-1.713.94-2.111-.028-.398-.968-.334-3.925-.334-3.925l2.393.016.724.393zm-8.315.07s1.775 2.79 2.257 3.514c.444.665 1.879.553 2.052-.481.172-1.034-1.355-4.027-1.355-4.027l-2.713.994h-.241z" fill="#FABDAC"/><path d="M195.132 125.621s-1.685 7.945-1.685 11.351c.456 1.44 6.372 3.142 6.372 3.142l-.175-2.56-2.665-1.374c.126-2.625 1.377-7.259 1.377-8.579v-3.3l-3.224 1.32z" fill="#FFCFAE"/><path d="M198.365 127.954c-.43 2.418-.826 4.53-1.379 7.629.002-.147-.018-.343-.026-.563-.111-3.04.658-7.083.745-7.726.521-.087.371.708.66.66z" fill="#EAAB85"/><path d="M197.733 145.464l.294 4.344-13.814 5.112a4.816 4.816 0 00-2.327 5.658l10.197 25.44 3.804-1.222-5.29-20.194c-.116-.781-.468-2.399 0-3.036.468-.636 1.848-1.451 1.848-1.451l4.094-2.469 6.879-4.08-7.531 4.129a4.826 4.826 0 00-1.549 4.23l2.749 23.219 3.484.874 2.036-21.68c.054-.814.024-2.032.528-2.674.504-.641 2.389-1.304 3.167-1.549l7.391-1.85c.538-.33 2.046-.66 2.64-1.714.357-.634.665-1.786.791-2.985.352-3.333-1.847-6.122-2.827-8.102h-16.564z" fill="#37354C"/><path d="M217.713 118.592c-6.807 1.008-14.443.897-18.205-2.947 0 0-3.997-11.518 0-17.009 2.646-3.635 5.89-4.018 8.567-2.947 0 0 .917-1.005 2.521.307 6.448 7.462 4.574 13.087 7.117 22.596z" fill="#412716"/><path d="M212.358 101.181c-2.136-1.597-5.294-2.685-7.63-2.143-3.318.807-4.438 5.418-6.96 4.419-.326 10.414 4.158 20.565 7.897 27.858 6.96 3.024 10.327 1.727 13.343-4.191 0 0-.132-14.231-4.106-23.131-.317-.759-1.063-1.706-2.544-2.812z" fill="#3C2415"/><path d="M202.45 103.613c-3.958.963-3.198 15.274.169 27.402 5.331.679 9.442.683 13.737-4.131-2.361-11.654-9.769-24.277-13.906-23.271z" fill="#3B2415"/><path d="M200.733 108.485c-.608-1.031-1.445-1.592-1.852-1.258-.408.333-.275 1.446.341 2.476.617 1.029 1.446 1.592 1.853 1.258.407-.334.261-1.453-.342-2.476z" fill="#ECBC9A"/><path d="M201.051 109.447c-.189-.37-.542-.523-.782-.313a.856.856 0 00-.086 1.013c.197.393.542.526.785.337a.832.832 0 00.083-1.037zm3.541 14.326s-1.06-2.589-.549-4.832c-.198-1.319-.395-3.035-.66-4.091l6.401-2.772c.026-.109-.001 5.411 1.451 8.447.976-.237-1.913 1.452-1.913 1.452l-4.73 1.796z" fill="#FFCFAE"/><path d="M209.674 112.256c-2.94 1.738-4.739 2.82-6.584 2.684l.012.048c3.309 3.754 6.741-.017 6.578-2.303l-.006-.429z" fill="#EAAB85"/><path d="M199.842 110.597c.734 2.526 4.252 6.459 6.739 4.87 2.487-1.589 2.961-2.477 3.487-3.488.682-1.313.569-2.005.487-3.97-.103-2.473-.225-4.345-.512-4.944-2.491-4.363-4.182-3.832-5.862-3.534-3.36 1.462-5.325 3.857-4.994 7.774.038.452.04-.379.655 3.292z" fill="#FFCFAE"/><path d="M205.564 112.373c-.187-.017-.392-.007-.534.115a.253.253 0 00-.081.122c.253-.032.508-.104.784-.221l-.169-.016zm-.683.131c-.194-.13-.456-.089-.676-.008l-.029.01c.241.034.546.132.773.104-.001-.044-.025-.077-.068-.106z" fill="#EA908A"/><path d="M204.176 112.506s-.409.078-.761-.041c1.176 1.105 2.669.392 3.094-.251-.25.146-.776.175-.776.175a2.936 2.936 0 01-.784.221c-.227.028-.532-.07-.773-.104z" fill="#EA908A"/><path d="M203.415 112.465l.08-.237a.25.25 0 00-.251.419l.171-.182zm3.094-.251l.208.138a.25.25 0 00-.334-.354l.126.216zm-1.56.396l.031.248-.031-.248zm.081-.122l-.163-.19.163.19zm.534-.115l.023-.248-.023.248zm-2.229.329c.216.073.44.083.6.078a2.096 2.096 0 00.262-.024l.018-.002.005-.001.002-.001h.001l-.047-.246-.046-.245h-.001a1.252 1.252 0 01-.634-.033l-.16.474zm.928.039l.028-.011-.172-.469-.029.011.173.469zm-.121.013c.115.016.224.044.38.073.137.026.303.05.458.031l-.062-.496a1.097 1.097 0 01-.304-.026c-.115-.022-.277-.06-.403-.077l-.069.495zm.6-.042c.004.003-.007-.004-.019-.022a.14.14 0 01-.024-.077l.5-.006a.372.372 0 00-.179-.31l-.278.415zm.446-.028v-.002l.005-.005-.326-.379a.513.513 0 00-.157.237l.478.149zm-.208.174c.28-.035.557-.114.85-.238l-.194-.461a2.723 2.723 0 01-.718.203l.062.496zm.753-.469l.014.25h.008l.019-.002.068-.006c.057-.005.136-.014.224-.027.164-.026.399-.075.569-.174l-.252-.432c-.081.048-.234.086-.395.112a4.352 4.352 0 01-.193.024l-.057.005-.015.001h-.004l.014.249zm-.193.233l.169.016.047-.497-.169-.016-.047.497zm.76-.546c-.171.259-.589.565-1.108.674-.503.106-1.085.022-1.606-.467l-.342.364c.654.615 1.408.728 2.051.593.628-.132 1.169-.504 1.422-.888l-.417-.276zm-1.107.601c.058-.05.169-.071.347-.055l.047-.497c-.194-.019-.494-.021-.72.173l.326.379zm-.902.053c.207-.076.363-.077.451-.018l.278-.415c-.301-.202-.668-.122-.901-.036l.172.469z" fill="#EA908A"/><path d="M207.521 105.307c-.333-.07-.431-.017-.9.053-.211.056-.413.14-.602.249 0 0-.399.538-.446.608-.082.125-.027.245.124.243.152-.002.309-.072.438-.066.986.013 1.201.041 1.719-.256a3.06 3.06 0 00.579-.406 2.348 2.348 0 00-.912-.425z" fill="#fff"/><path d="M206.792 105.594a.552.552 0 00-.435.649c.015.078.051.108.094.169.413-.011.61-.011.982-.132a.553.553 0 00-.641-.686z" fill="#28160D" stroke="#1C1105" stroke-width=".2" stroke-miterlimit="10"/><path d="M206.966 106.428a.293.293 0 10-.114-.575.294.294 0 00-.232.344.295.295 0 00.346.231z" fill="#000"/><path opacity=".77" d="M207.184 106.16a.159.159 0 00.125-.186.158.158 0 00-.31.062c.017.085.1.14.185.124z" fill="#fff"/><path d="M205.552 106.369l.468-.692a.398.398 0 01.17-.142l.221-.094c.113-.047.233-.076.355-.085l.596-.041a.806.806 0 01.357.057l.663.276.198-.019-.643-.425a.942.942 0 00-.429-.07l-.595.041a1.22 1.22 0 00-.407.099l-.219.093a1.184 1.184 0 00-.398.219l-.547.84.21-.057z" fill="#D3A688"/><path opacity=".5" d="M205.497 106.402l.467-.692a.473.473 0 01.204-.169l.219-.094c.124-.053.257-.084.392-.093l.596-.041a.851.851 0 01.393.064l.654.276" stroke="#0A0001" stroke-width=".3" stroke-miterlimit="10"/><path d="M205.587 106.471l.246-.037c.129-.019.259-.025.389-.018.312.001.962.06 1.488-.179.033-.016.259-.181.289-.203l.29-.202" stroke="#472A22" stroke-width=".2" stroke-miterlimit="10"/><path d="M200.769 106.355c.291-.176.401-.159.866-.249.218-.016.436-.004.651.036 0 0 .555.375.622.425.119.091.108.222-.036.27-.144.049-.315.035-.435.084-.926.339-1.119.437-1.707.329a3.044 3.044 0 01-.68-.191c.186-.283.431-.524.719-.704z" fill="#fff"/><path d="M202.977 106.703l-.671-.498a.406.406 0 00-.208-.077l-.239-.015a1.14 1.14 0 00-.363.038l-.576.159a.808.808 0 00-.318.172l-.533.481-.194.048.466-.615a.96.96 0 01.382-.209l.574-.158c.136-.038.277-.052.417-.042l.238.015c.152-.004.304.021.447.075l.795.61-.217.016z" fill="#D3A688"/><path opacity=".5" d="M203.04 106.716l-.67-.497a.465.465 0 00-.248-.092l-.238-.016a1.235 1.235 0 00-.401.042l-.576.159a.866.866 0 00-.349.191l-.525.478" stroke="#0A0001" stroke-width=".3" stroke-miterlimit="10"/><path d="M202.976 106.812l-.244.047a1.81 1.81 0 00-.372.112c-.294.103-.888.375-1.464.325a6.163 6.163 0 01-.34-.095l-.34-.095" stroke="#472A22" stroke-width=".2" stroke-miterlimit="10"/><path d="M201.266 106.413a.553.553 0 00-.346.859 2.92 2.92 0 00.987-.173.552.552 0 00-.641-.686z" fill="#28160D" stroke="#1C1105" stroke-width=".2" stroke-miterlimit="10"/><path d="M201.44 107.247a.293.293 0 10-.113-.575.294.294 0 10.113.575z" fill="#000"/><path opacity=".77" d="M201.658 106.979a.158.158 0 10-.06-.31.158.158 0 00.06.31z" fill="#fff"/><path d="M210.292 106.389c.378-1.167 1.082-1.641 1.578-1.048.495.593.399 1.964.019 3.136-.38 1.172-1.087 1.604-1.381 1.096-.498-.588-.59-2.018-.216-3.184z" fill="#FFCFAE"/><path d="M210.755 107.181c.288-.7.711-1.005.943-.682.233.324.178 1.158-.113 1.854-.291.695-.714 1.01-.956.681-.242-.328-.168-1.157.126-1.853z" fill="#EAAB85"/><path d="M210.575 108.423c.095-.432.328-.673.524-.531.195.143.271.608.179 1.039-.092.431-.33.669-.524.53s-.271-.597-.179-1.038z" fill="#FFCFAE"/><path d="M199.192 106.199c.276-.517 1.374-2.056 3.371-1.36.125.044.186.06.273.27-1.77-.261-2.632-.024-3.644 1.09zm10.012-1.814c-.478-.383-2.197-1.409-4.068.072-.118.093-.176.134-.193.37 1.785-.972 2.787-1.097 4.261-.442z" fill="#412716"/><path d="M204.008 107.196c.185 1.177-.168 1.831-.481 2.952a.46.46 0 00.069.176c.133.207.601.166 1.117-.065.195-.063.303-.047.49.007" stroke="#D3A688" stroke-width=".5" stroke-miterlimit="10"/><path d="M216.075 120.209c-.967-1.16-4.524-2.329-5.675-2.241 0 .658-.396 2.901-3.3 3.165-2.903.264-3.167-3.165-3.167-3.165-1.151-.132-2.654.526-4.355 1.054-2.185.677-4.156 3.299-5.079 7.902 1.451 1.039 4.007 1.733 4.007 1.733l.629-2.772c-.629 3.561-1.448 4.636.443 7.707 1.046 1.698.267 4.9.267 4.9s.087 1.628-.894 6.268c-.318 1.502 1.084 2.782 2.616 2.871 1.731.1 2.839.893 4.841 1.76 3.23.686 5.962 1.555 8.891.911 1.107-.243 1.598-1.531 1.359-2.639-.78-3.611-1.22-10.03-1.22-11.526 0-1.572.625-13.035.637-15.928z" fill="#A62E41"/><path d="M208.102 144.277l-.622-.339c-.427.211-1.09.206-1.228.232l-1.498.314a1.232 1.232 0 00-.835.579l-1.639 2.726c.126.266.515.427 1.154-.667l-.722 1.083c.058.226.302.327.849-.454-.151.281-.249.49-.225.515l.001.002c.077.08.386.535 1.955-1.98.133-.11.223-.09-.244 1.648.041.344.365.681 1.095-1.506.474-.097 1.378-.576 1.691-1.123l.87-.552c-.554-.099-.562-.133-.602-.478z" fill="#FFCFAE"/><path d="M203.434 147.122c-.639 1.094-1.028.933-1.154.667l1.639-2.726c.182-.304.486-.515.835-.579l1.498-.314c.138-.026.801-.021 1.228-.232l.622.339c.04.345.048.379.602.478l-.87.552c-.313.547-1.217 1.026-1.691 1.123-.73 2.187-1.054 1.85-1.095 1.506.467-1.738.377-1.758.244-1.648-1.569 2.515-1.878 2.06-1.955 1.98l-.001-.002c-.024-.025.074-.234.225-.515m-.127-.629a8.04 8.04 0 00.346-.669l-.346.669zm0 0l-.722 1.083c.058.226.302.327.849-.454m0 0c.215-.308.54-.56.857-1.191-.22.366-.629.765-.857 1.191z" stroke="#EAAB85" stroke-width=".2"/><path d="M214.755 135.108c0-.142-.214-3.989 0-5.534-.496 1.454-.699 3.171-1.995 3.819-5.622 2.342-11.752.338-13.447 0 .373.965 1.068 3.102.924 4.091 3.172-4.421 13.769.303 13.99 0 .221-.303.622 1.242.622 1.242-.166-1.166-.094-2.562-.094-3.618z" fill="#8B2535"/><path d="M217.79 127.733c.193.003.186 8.909-.683 12.526-.137.696-9.256 4.925-9.256 4.925l-.814-.904c2.986-2.233 4.822-4.018 7.058-5.856l.339-8.698.189-1.993h3.167z" fill="#FFCFAE"/><path d="M214.491 127.733c0 5.774-.528 8.641-.264 10.69 0 0 .535-2.084.528-2.375-.071-2.821.395-7.127.395-8.315h-.659z" fill="#EAAB85"/><path d="M211.529 151.067H191.02v-1.503h20.509a.751.751 0 110 1.503z" fill="#fff"/><path d="M205.922 151.067h-19.816a1.92 1.92 0 01-1.846-1.431l-3.49-13.147a1.927 1.927 0 01.335-1.67 1.922 1.922 0 011.529-.751h17.267a1.924 1.924 0 011.864 1.435l4.157 15.564z" fill="#fff"/><path d="M182.634 134.073a1.932 1.932 0 00-1.89 1.544c-.058.289-.05.587.025.872l3.491 13.148c.106.393.333.742.648.999l12.007-16.563h-14.281z" fill="url(#paint39_linear)"/><path d="M194.253 143.733a1.181 1.181 0 01-1.207 1.552 2.159 2.159 0 01-1.986-1.552 1.181 1.181 0 01.192-1.096 1.189 1.189 0 011.015-.457 2.165 2.165 0 011.986 1.553z" fill="#1885FF"/><path d="M218.186 128.789c.66-7.524-2.243-8.579-2.507-8.843-1.848.659-2.772 6.511-2.376 8.843h4.883z" fill="#A22D40"/></g><path fill-rule="evenodd" clip-rule="evenodd" d="M265.337 111.452l-3.366-3.367.658-.659 3.366 3.368a1.71 1.71 0 010 2.415l-3.366 3.367-.658-.658 3.366-3.368a.779.779 0 000-1.098zm-16.078 0l3.366-3.367-.658-.659-3.366 3.368a1.71 1.71 0 000 2.415l3.366 3.367.658-.658-3.366-3.368a.777.777 0 010-1.098zm5.33 6.751l4.85-12.737.87.332-4.85 12.737-.87-.332z" fill="#EBF2F9"/><path d="M280.587 83.23l-1.309-.607a.314.314 0 01-.183-.278 5.51 5.51 0 00-.187-1.293.323.323 0 01.006-.185.309.309 0 01.109-.15l1.2-.91a.311.311 0 00.118-.192.303.303 0 00-.045-.22l-.737-1.16a.31.31 0 00-.392-.111l-1.248.608a.308.308 0 01-.364-.066 5.576 5.576 0 00-1.404-1.053.313.313 0 01-.157-.352l.202-.816a.316.316 0 00-.199-.373l-1.288-.462a.31.31 0 00-.389.16l-.455.974-.11.237a5.62 5.62 0 00-1.799.234.308.308 0 01-.336-.107l-.735-.962a.32.32 0 00-.425-.076l-.891.56-.255.162a.32.32 0 00-.118.413l.51 1.038a.306.306 0 01-.057.357c-.278.281-.525.59-.736.924a.931.931 0 00-.055.083.311.311 0 01-.35.142l-1.333-.325a.322.322 0 00-.373.198l-.466 1.277a.315.315 0 00.166.396l1.366.63a.303.303 0 01.179.297 5.634 5.634 0 00.096 1.303.32.32 0 01-.122.317l-1.153.875a.308.308 0 00-.074.41l.732 1.147a.323.323 0 00.416.117l.987-.482a.32.32 0 01.385.078c.367.44.8.822 1.284 1.13a.314.314 0 01.139.343l-.293 1.197a.322.322 0 00.204.382l1.278.462a.316.316 0 00.228-.005.309.309 0 00.163-.157l.027-.057.528-1.13a.32.32 0 01.315-.184 5.543 5.543 0 001.502-.1.313.313 0 01.315.115l.746.977a.326.326 0 00.431.078l1.147-.725a.309.309 0 00.145-.236.314.314 0 00-.03-.171l-.408-.826a.318.318 0 01.081-.38 5.531 5.531 0 001.37-1.703.305.305 0 01.123-.128.315.315 0 01.228-.031l1.079.264a.318.318 0 00.373-.198l.011-.03.455-1.244a.322.322 0 00-.168-.4zm-9.956-1.284c.038-.226.098-.448.178-.664.159-.428.607-.986.993-1.231l.125-.077c2.553-1.49 5.426.854 4.416 3.667-.132.368-.463.819-.805 1.112a1.932 1.932 0 01-.235.174c-.33.209-.693.36-1.074.447a2.983 2.983 0 01-3.598-3.428zm1.693-35.453l-.97-.443a.24.24 0 01-.097-.083.235.235 0 01-.038-.12 3.939 3.939 0 00-.138-.945.226.226 0 01.085-.244l.888-.665a.226.226 0 00.088-.14.225.225 0 00-.033-.163l-.546-.847a.23.23 0 00-.291-.08l-.924.444a.23.23 0 01-.27-.048 4.127 4.127 0 00-1.04-.77.228.228 0 01-.116-.257l.15-.597a.235.235 0 00-.148-.272l-.954-.338a.234.234 0 00-.195.016.222.222 0 00-.093.101l-.337.712-.082.173a4.197 4.197 0 00-1.332.171.231.231 0 01-.249-.078l-.545-.704a.237.237 0 00-.315-.055l-.659.41-.189.118a.231.231 0 00-.088.302l.378.758a.22.22 0 01.023.138.227.227 0 01-.065.123 4.058 4.058 0 00-.586.736.233.233 0 01-.259.104l-.988-.238a.24.24 0 00-.276.145l-.345.933a.227.227 0 00.004.168.233.233 0 00.119.121l1.012.46a.225.225 0 01.133.217 3.921 3.921 0 00.071.953.235.235 0 01-.091.232l-.854.64a.227.227 0 00-.087.139.226.226 0 00.032.16l.542.838a.241.241 0 00.309.086l.731-.352a.237.237 0 01.285.056c.272.322.592.6.951.826a.229.229 0 01.103.251l-.217.875a.233.233 0 00.021.167.24.24 0 00.13.111l.947.338a.235.235 0 00.29-.118l.019-.042.392-.826a.236.236 0 01.232-.134 4.172 4.172 0 001.113-.074.235.235 0 01.234.085l.552.714a.244.244 0 00.319.057l.85-.53a.26.26 0 00.061-.055.241.241 0 00.047-.118.243.243 0 00-.022-.124l-.303-.604a.23.23 0 01.06-.278 4.055 4.055 0 001.015-1.244.225.225 0 01.091-.094.236.236 0 01.169-.023l.799.193a.238.238 0 00.166-.02.232.232 0 00.11-.124l.008-.022.338-.91a.233.233 0 00-.125-.292zm-7.375-.938a2.72 2.72 0 01.132-.485c.118-.313.449-.72.736-.9l.092-.056c1.891-1.088 4.02.624 3.272 2.68-.098.269-.344.598-.597.813a1.477 1.477 0 01-.174.127 2.566 2.566 0 01-.795.326c-1.514.33-2.927-.919-2.666-2.505zM91.78 40.574l-1.648-.78a.405.405 0 01-.23-.36 7.294 7.294 0 00-.235-1.666.413.413 0 01.144-.43l1.51-1.172a.404.404 0 00.093-.533l-.928-1.495a.379.379 0 00-.494-.142l-1.57.784a.38.38 0 01-.46-.085 7.043 7.043 0 00-1.768-1.357.415.415 0 01-.198-.453l.255-1.053a.418.418 0 00-.036-.288.406.406 0 00-.214-.192l-1.622-.595a.383.383 0 00-.49.206l-.573 1.255-.139.306a6.922 6.922 0 00-2.265.302.379.379 0 01-.423-.138l-.926-1.24a.4.4 0 00-.535-.098l-1.122.722-.321.208a.42.42 0 00-.148.532l.642 1.338a.4.4 0 01-.072.46c-.35.362-.66.76-.927 1.19a1.22 1.22 0 00-.069.107.397.397 0 01-.441.183l-1.678-.419a.397.397 0 00-.307.052.409.409 0 00-.163.203l-.587 1.646a.416.416 0 00.007.296.41.41 0 00.202.214l1.72.812a.4.4 0 01.226.382 7.352 7.352 0 00.121 1.679.424.424 0 01-.154.409l-1.452 1.128a.398.398 0 00-.093.528l.921 1.477a.401.401 0 00.525.151l1.243-.62a.392.392 0 01.484.099 7.047 7.047 0 001.617 1.457.404.404 0 01.175.442l-.37 1.542a.423.423 0 00.258.492l1.61.594a.387.387 0 00.286-.006.398.398 0 00.206-.202l.034-.073.665-1.457a.406.406 0 01.396-.237 6.841 6.841 0 001.891-.13.389.389 0 01.397.15l.94 1.26a.406.406 0 00.542.1l1.445-.935a.419.419 0 00.145-.524l-.514-1.064a.42.42 0 01.102-.49 7.085 7.085 0 001.725-2.194.397.397 0 01.375-.216.414.414 0 01.067.01l1.359.34a.39.39 0 00.282-.036.405.405 0 00.187-.218l.014-.038.574-1.604a.422.422 0 00-.008-.3.41.41 0 00-.205-.216zm-12.537-1.653c.049-.292.124-.578.224-.856.2-.552.764-1.27 1.252-1.586a3.74 3.74 0 01.157-.099c3.214-1.92 6.833 1.1 5.561 4.725-.167.474-.584 1.054-1.014 1.432a2.454 2.454 0 01-.296.224 4.28 4.28 0 01-1.352.576c-2.573.583-4.976-1.62-4.532-4.416z" fill="#EBF2F9"/><path d="M68.912 118.859l1.098 1.125m-4.9-4.929l2.035 2.036m1.419-1.794l7.657 7.687m-11.566-11.571l1.553 1.553m7.844 4.661l6.747 6.723m-16.921-16.902l7.202 7.179m-1.552-4.768l11.887 11.92m-16.813-16.822l2.516 2.518m12.235 9.027l2.864 2.866M61.764 98.904l14.59 14.571m-2.891-6.08l14.243 14.25m-20.535-20.546l3.293 3.322m5.756 2.545l9.21 9.214M66.823 97.564l6.8 6.803m10.201 6.992l4.793 4.795M70.973 98.501l9.344 9.349m-1.151-4.366l6.479 6.509M71.75 96.09l4.873 4.849m8.299 5.116l2.543 2.545M75.632 96.76l6.398 6.401m1.58-1.606l1.553 1.554m-4.283-4.286l1.07 1.072" stroke="#EBF2F9" stroke-width="1.153" stroke-miterlimit="10" stroke-linecap="round" stroke-linejoin="round"/><defs><linearGradient id="paint0_linear" x1="42.308" y1="125.951" x2="11.533" y2="125.026" gradientUnits="userSpaceOnUse"><stop stop-color="#A62E41"/><stop offset="1" stop-color="#E13152"/></linearGradient><linearGradient id="paint1_linear" x1="70.221" y1="67.971" x2="32.185" y2="66.815" gradientUnits="userSpaceOnUse"><stop stop-color="#A62E41"/><stop offset="1" stop-color="#E13152"/></linearGradient><linearGradient id="paint2_linear" x1="330.633" y1="55.52" x2="297.438" y2="54.523" gradientUnits="userSpaceOnUse"><stop stop-color="#A62E41"/><stop offset="1" stop-color="#E13152"/></linearGradient><linearGradient id="paint3_linear" x1="330.902" y1="46.637" x2="328.24" y2="37.577" gradientUnits="userSpaceOnUse"><stop stop-color="#A62E41"/><stop offset="1" stop-color="#E13152"/></linearGradient><linearGradient id="paint4_linear" x1="300.155" y1="45.145" x2="299.129" y2="45.123" gradientUnits="userSpaceOnUse"><stop stop-color="#A62E41"/><stop offset="1" stop-color="#E13152"/></linearGradient><linearGradient id="paint5_linear" x1="302.13" y1="45.145" x2="301.104" y2="45.123" gradientUnits="userSpaceOnUse"><stop stop-color="#A62E41"/><stop offset="1" stop-color="#E13152"/></linearGradient><linearGradient id="paint6_linear" x1="304.107" y1="45.145" x2="303.081" y2="45.123" gradientUnits="userSpaceOnUse"><stop stop-color="#A62E41"/><stop offset="1" stop-color="#E13152"/></linearGradient><linearGradient id="paint7_linear" x1="324.184" y1="55.952" x2="302.523" y2="54.669" gradientUnits="userSpaceOnUse"><stop stop-color="#A62E41"/><stop offset="1" stop-color="#E13152"/></linearGradient><linearGradient id="paint8_linear" x1="324.184" y1="55.952" x2="302.523" y2="54.669" gradientUnits="userSpaceOnUse"><stop stop-color="#A62E41"/><stop offset="1" stop-color="#E13152"/></linearGradient><linearGradient id="paint9_linear" x1="324.184" y1="55.952" x2="302.523" y2="54.669" gradientUnits="userSpaceOnUse"><stop stop-color="#A62E41"/><stop offset="1" stop-color="#E13152"/></linearGradient><linearGradient id="paint10_linear" x1="319.023" y1="110.155" x2="292.405" y2="109.348" gradientUnits="userSpaceOnUse"><stop stop-color="#A62E41"/><stop offset="1" stop-color="#E13152"/></linearGradient><linearGradient id="paint11_linear" x1="237.76" y1="5.843" x2="233.71" y2="-4.963" gradientUnits="userSpaceOnUse"><stop stop-color="#A62E41"/><stop offset="1" stop-color="#E13152"/></linearGradient><linearGradient id="paint12_linear" x1="206.477" y1="4.245" x2="205.67" y2="4.228" gradientUnits="userSpaceOnUse"><stop stop-color="#A62E41"/><stop offset="1" stop-color="#E13152"/></linearGradient><linearGradient id="paint13_linear" x1="208.028" y1="4.245" x2="207.222" y2="4.228" gradientUnits="userSpaceOnUse"><stop stop-color="#A62E41"/><stop offset="1" stop-color="#E13152"/></linearGradient><linearGradient id="paint14_linear" x1="209.582" y1="4.245" x2="208.775" y2="4.228" gradientUnits="userSpaceOnUse"><stop stop-color="#A62E41"/><stop offset="1" stop-color="#E13152"/></linearGradient><linearGradient id="paint15_linear" x1="230.657" y1="15.015" x2="211.949" y2="14" gradientUnits="userSpaceOnUse"><stop stop-color="#A62E41"/><stop offset="1" stop-color="#E13152"/></linearGradient><linearGradient id="paint16_linear" x1="230.657" y1="15.015" x2="211.949" y2="14" gradientUnits="userSpaceOnUse"><stop stop-color="#A62E41"/><stop offset="1" stop-color="#E13152"/></linearGradient><linearGradient id="paint17_linear" x1="230.657" y1="15.015" x2="211.949" y2="14" gradientUnits="userSpaceOnUse"><stop stop-color="#A62E41"/><stop offset="1" stop-color="#E13152"/></linearGradient><linearGradient id="paint18_linear" x1="168.988" y1="125.288" x2="171.197" y2="212.557" gradientUnits="userSpaceOnUse"><stop stop-color="#B4D1FA" stop-opacity="0"/><stop offset="1" stop-opacity=".2"/></linearGradient><linearGradient id="paint19_linear" x1="116.915" y1="151.003" x2="124.632" y2="208.201" gradientUnits="userSpaceOnUse"><stop stop-color="#B4D1FA" stop-opacity="0"/><stop offset="1" stop-opacity=".2"/></linearGradient><linearGradient id="paint20_linear" x1="133.782" y1="151.003" x2="141.498" y2="208.201" gradientUnits="userSpaceOnUse"><stop stop-color="#B4D1FA" stop-opacity="0"/><stop offset="1" stop-opacity=".2"/></linearGradient><linearGradient id="paint21_linear" x1="127.831" y1="45.416" x2="115.96" y2="43.888" gradientUnits="userSpaceOnUse"><stop stop-color="#A62E41"/><stop offset="1" stop-color="#E13152"/></linearGradient><linearGradient id="paint22_linear" x1="122.202" y1="50.92" x2="115.627" y2="50.457" gradientUnits="userSpaceOnUse"><stop stop-color="#A62E41"/><stop offset="1" stop-color="#E13152"/></linearGradient><linearGradient id="paint23_linear" x1="122.202" y1="56.425" x2="115.627" y2="55.962" gradientUnits="userSpaceOnUse"><stop stop-color="#A62E41"/><stop offset="1" stop-color="#E13152"/></linearGradient><linearGradient id="paint24_linear" x1="122.202" y1="78.443" x2="115.627" y2="77.98" gradientUnits="userSpaceOnUse"><stop stop-color="#A62E41"/><stop offset="1" stop-color="#E13152"/></linearGradient><linearGradient id="paint25_linear" x1="122.202" y1="83.948" x2="115.627" y2="83.485" gradientUnits="userSpaceOnUse"><stop stop-color="#A62E41"/><stop offset="1" stop-color="#E13152"/></linearGradient><linearGradient id="paint26_linear" x1="130.676" y1="89.453" x2="121.569" y2="88.559" gradientUnits="userSpaceOnUse"><stop stop-color="#A62E41"/><stop offset="1" stop-color="#E13152"/></linearGradient><linearGradient id="paint27_linear" x1="134.352" y1="94.957" x2="125.525" y2="94.118" gradientUnits="userSpaceOnUse"><stop stop-color="#A62E41"/><stop offset="1" stop-color="#E13152"/></linearGradient><linearGradient id="paint28_linear" x1="128.01" y1="61.93" x2="121.434" y2="61.467" gradientUnits="userSpaceOnUse"><stop stop-color="#A62E41"/><stop offset="1" stop-color="#E13152"/></linearGradient><linearGradient id="paint29_linear" x1="128.01" y1="67.435" x2="121.434" y2="66.971" gradientUnits="userSpaceOnUse"><stop stop-color="#A62E41"/><stop offset="1" stop-color="#E13152"/></linearGradient><linearGradient id="paint30_linear" x1="128.01" y1="72.939" x2="121.434" y2="72.475" gradientUnits="userSpaceOnUse"><stop stop-color="#A62E41"/><stop offset="1" stop-color="#E13152"/></linearGradient><linearGradient id="paint31_linear" x1="153.924" y1="61.93" x2="145.377" y2="61.144" gradientUnits="userSpaceOnUse"><stop stop-color="#A62E41"/><stop offset="1" stop-color="#E13152"/></linearGradient><linearGradient id="paint32_linear" x1="128.01" y1="100.461" x2="121.434" y2="99.998" gradientUnits="userSpaceOnUse"><stop stop-color="#A62E41"/><stop offset="1" stop-color="#E13152"/></linearGradient><linearGradient id="paint33_linear" x1="128.01" y1="105.966" x2="121.434" y2="105.503" gradientUnits="userSpaceOnUse"><stop stop-color="#A62E41"/><stop offset="1" stop-color="#E13152"/></linearGradient><linearGradient id="paint34_linear" x1="122.202" y1="111.777" x2="115.627" y2="111.313" gradientUnits="userSpaceOnUse"><stop stop-color="#A62E41"/><stop offset="1" stop-color="#E13152"/></linearGradient><linearGradient id="paint35_linear" x1="122.202" y1="116.975" x2="115.627" y2="116.512" gradientUnits="userSpaceOnUse"><stop stop-color="#A62E41"/><stop offset="1" stop-color="#E13152"/></linearGradient><linearGradient id="paint36_linear" x1="170.744" y1="100.461" x2="162.477" y2="99.727" gradientUnits="userSpaceOnUse"><stop stop-color="#A62E41"/><stop offset="1" stop-color="#E13152"/></linearGradient><linearGradient id="paint37_linear" x1="177.688" y1="152.075" x2="196.853" y2="200.171" gradientUnits="userSpaceOnUse"><stop stop-color="#B4D1FA" stop-opacity="0"/><stop offset="1" stop-opacity=".2"/></linearGradient><linearGradient id="paint38_linear" x1="135.434" y1="144.738" x2="106.871" y2="145.627" gradientUnits="userSpaceOnUse"><stop stop-color="#71A0DD" stop-opacity="0"/><stop offset="1" stop-color="#71A0DD" stop-opacity=".5"/></linearGradient><linearGradient id="paint39_linear" x1="192.134" y1="140.918" x2="169.568" y2="141.383" gradientUnits="userSpaceOnUse"><stop stop-color="#71A0DD" stop-opacity="0"/><stop offset="1" stop-color="#71A0DD" stop-opacity=".5"/></linearGradient><filter id="filter0_d" x="0" y="123.393" width="327.978" height="107.607" filterUnits="userSpaceOnUse" color-interpolation-filters="sRGB"><feFlood flood-opacity="0" result="BackgroundImageFix"/><feColorMatrix in="SourceAlpha" values="0 0 0 0 0 0 0 0 0 0 0 0 0 0 0 0 0 0 127 0"/><feOffset dx="2" dy="2"/><feGaussianBlur stdDeviation="2"/><feColorMatrix values="0 0 0 0 0 0 0 0 0 0 0 0 0 0 0 0 0 0 0.2 0"/><feBlend in2="BackgroundImageFix" result="effect1_dropShadow"/><feBlend in="SourceGraphic" in2="effect1_dropShadow" result="shape"/></filter><filter id="filter1_di" x="8.538" y="112.244" width="41.037" height="31.415" filterUnits="userSpaceOnUse" color-interpolation-filters="sRGB"><feFlood flood-opacity="0" result="BackgroundImageFix"/><feColorMatrix in="SourceAlpha" values="0 0 0 0 0 0 0 0 0 0 0 0 0 0 0 0 0 0 127 0"/><feOffset dx="2" dy="2"/><feGaussianBlur stdDeviation="2"/><feColorMatrix values="0 0 0 0 0 0 0 0 0 0 0 0 0 0 0 0 0 0 0.15 0"/><feBlend in2="BackgroundImageFix" result="effect1_dropShadow"/><feBlend in="SourceGraphic" in2="effect1_dropShadow" result="shape"/><feColorMatrix in="SourceAlpha" values="0 0 0 0 0 0 0 0 0 0 0 0 0 0 0 0 0 0 127 0" result="hardAlpha"/><feOffset dx="-2" dy="-2"/><feGaussianBlur stdDeviation="2"/><feComposite in2="hardAlpha" operator="arithmetic" k2="-1" k3="1"/><feColorMatrix values="0 0 0 0 0 0 0 0 0 0 0 0 0 0 0 0 0 0 0.2 0"/><feBlend in2="shape" result="effect2_innerShadow"/></filter><filter id="filter2_di" x="28.954" y="51.662" width="48.832" height="36.618" filterUnits="userSpaceOnUse" color-interpolation-filters="sRGB"><feFlood flood-opacity="0" result="BackgroundImageFix"/><feColorMatrix in="SourceAlpha" values="0 0 0 0 0 0 0 0 0 0 0 0 0 0 0 0 0 0 127 0"/><feOffset dx="2" dy="2"/><feGaussianBlur stdDeviation="2"/><feColorMatrix values="0 0 0 0 0 0 0 0 0 0 0 0 0 0 0 0 0 0 0.15 0"/><feBlend in2="BackgroundImageFix" result="effect1_dropShadow"/><feBlend in="SourceGraphic" in2="effect1_dropShadow" result="shape"/><feColorMatrix in="SourceAlpha" values="0 0 0 0 0 0 0 0 0 0 0 0 0 0 0 0 0 0 127 0" result="hardAlpha"/><feOffset dx="-2" dy="-2"/><feGaussianBlur stdDeviation="2"/><feComposite in2="hardAlpha" operator="arithmetic" k2="-1" k3="1"/><feColorMatrix values="0 0 0 0 0 0 0 0 0 0 0 0 0 0 0 0 0 0 0.2 0"/><feBlend in2="shape" result="effect2_innerShadow"/></filter><filter id="filter3_di" x="294.365" y="40.883" width="43.636" height="33.273" filterUnits="userSpaceOnUse" color-interpolation-filters="sRGB"><feFlood flood-opacity="0" result="BackgroundImageFix"/><feColorMatrix in="SourceAlpha" values="0 0 0 0 0 0 0 0 0 0 0 0 0 0 0 0 0 0 127 0"/><feOffset dx="2" dy="2"/><feGaussianBlur stdDeviation="2"/><feColorMatrix values="0 0 0 0 0 0 0 0 0 0 0 0 0 0 0 0 0 0 0.15 0"/><feBlend in2="BackgroundImageFix" result="effect1_dropShadow"/><feBlend in="SourceGraphic" in2="effect1_dropShadow" result="shape"/><feColorMatrix in="SourceAlpha" values="0 0 0 0 0 0 0 0 0 0 0 0 0 0 0 0 0 0 127 0" result="hardAlpha"/><feOffset dx="-2" dy="-2"/><feGaussianBlur stdDeviation="2"/><feComposite in2="hardAlpha" operator="arithmetic" k2="-1" k3="1"/><feColorMatrix values="0 0 0 0 0 0 0 0 0 0 0 0 0 0 0 0 0 0 0.2 0"/><feBlend in2="shape" result="effect2_innerShadow"/></filter><filter id="filter4_di" x="299.773" y="49.762" width="31.124" height="16.38" filterUnits="userSpaceOnUse" color-interpolation-filters="sRGB"><feFlood flood-opacity="0" result="BackgroundImageFix"/><feColorMatrix in="SourceAlpha" values="0 0 0 0 0 0 0 0 0 0 0 0 0 0 0 0 0 0 127 0"/><feOffset dx="2" dy="2"/><feGaussianBlur stdDeviation="2"/><feColorMatrix values="0 0 0 0 0 0 0 0 0 0 0 0 0 0 0 0 0 0 0.15 0"/><feBlend in2="BackgroundImageFix" result="effect1_dropShadow"/><feBlend in="SourceGraphic" in2="effect1_dropShadow" result="shape"/><feColorMatrix in="SourceAlpha" values="0 0 0 0 0 0 0 0 0 0 0 0 0 0 0 0 0 0 127 0" result="hardAlpha"/><feOffset dx="-2" dy="-2"/><feGaussianBlur stdDeviation="2"/><feComposite in2="hardAlpha" operator="arithmetic" k2="-1" k3="1"/><feColorMatrix values="0 0 0 0 0 0 0 0 0 0 0 0 0 0 0 0 0 0 0.2 0"/><feBlend in2="shape" result="effect2_innerShadow"/></filter><filter id="filter5_di" x="289.539" y="98.12" width="36.583" height="28.07" filterUnits="userSpaceOnUse" color-interpolation-filters="sRGB"><feFlood flood-opacity="0" result="BackgroundImageFix"/><feColorMatrix in="SourceAlpha" values="0 0 0 0 0 0 0 0 0 0 0 0 0 0 0 0 0 0 127 0"/><feOffset dx="2" dy="2"/><feGaussianBlur stdDeviation="2"/><feColorMatrix values="0 0 0 0 0 0 0 0 0 0 0 0 0 0 0 0 0 0 0.15 0"/><feBlend in2="BackgroundImageFix" result="effect1_dropShadow"/><feBlend in="SourceGraphic" in2="effect1_dropShadow" result="shape"/><feColorMatrix in="SourceAlpha" values="0 0 0 0 0 0 0 0 0 0 0 0 0 0 0 0 0 0 127 0" result="hardAlpha"/><feOffset dx="-2" dy="-2"/><feGaussianBlur stdDeviation="2"/><feComposite in2="hardAlpha" operator="arithmetic" k2="-1" k3="1"/><feColorMatrix values="0 0 0 0 0 0 0 0 0 0 0 0 0 0 0 0 0 0 0.2 0"/><feBlend in2="shape" result="effect2_innerShadow"/></filter><filter id="filter6_di" x="201.564" y="0" width="43.636" height="31.415" filterUnits="userSpaceOnUse" color-interpolation-filters="sRGB"><feFlood flood-opacity="0" result="BackgroundImageFix"/><feColorMatrix in="SourceAlpha" values="0 0 0 0 0 0 0 0 0 0 0 0 0 0 0 0 0 0 127 0"/><feOffset dx="2" dy="2"/><feGaussianBlur stdDeviation="2"/><feColorMatrix values="0 0 0 0 0 0 0 0 0 0 0 0 0 0 0 0 0 0 0.15 0"/><feBlend in2="BackgroundImageFix" result="effect1_dropShadow"/><feBlend in="SourceGraphic" in2="effect1_dropShadow" result="shape"/><feColorMatrix in="SourceAlpha" values="0 0 0 0 0 0 0 0 0 0 0 0 0 0 0 0 0 0 127 0" result="hardAlpha"/><feOffset dx="-2" dy="-2"/><feGaussianBlur stdDeviation="2"/><feComposite in2="hardAlpha" operator="arithmetic" k2="-1" k3="1"/><feColorMatrix values="0 0 0 0 0 0 0 0 0 0 0 0 0 0 0 0 0 0 0.2 0"/><feBlend in2="shape" result="effect2_innerShadow"/></filter><filter id="filter7_f" x="45.551" y="130.378" width="260.392" height="79.448" filterUnits="userSpaceOnUse" color-interpolation-filters="sRGB"><feFlood flood-opacity="0" result="BackgroundImageFix"/><feBlend in="SourceGraphic" in2="BackgroundImageFix" result="shape"/><feGaussianBlur stdDeviation="15" result="effect1_foregroundBlur"/></filter><filter id="filter8_f" x="114.915" y="160.923" width="17.788" height="41.635" filterUnits="userSpaceOnUse" color-interpolation-filters="sRGB"><feFlood flood-opacity="0" result="BackgroundImageFix"/><feBlend in="SourceGraphic" in2="BackgroundImageFix" result="shape"/><feGaussianBlur stdDeviation="1" result="effect1_foregroundBlur"/></filter><filter id="filter9_f" x="130.042" y="158.512" width="19.662" height="37.751" filterUnits="userSpaceOnUse" color-interpolation-filters="sRGB"><feFlood flood-opacity="0" result="BackgroundImageFix"/><feBlend in="SourceGraphic" in2="BackgroundImageFix" result="shape"/><feGaussianBlur stdDeviation="1" result="effect1_foregroundBlur"/></filter><filter id="filter10_d" x="78.378" y="32.434" width="184.332" height="136.715" filterUnits="userSpaceOnUse" color-interpolation-filters="sRGB"><feFlood flood-opacity="0" result="BackgroundImageFix"/><feColorMatrix in="SourceAlpha" values="0 0 0 0 0 0 0 0 0 0 0 0 0 0 0 0 0 0 127 0"/><feOffset dx="2" dy="2"/><feGaussianBlur stdDeviation="3"/><feColorMatrix values="0 0 0 0 0.0392157 0 0 0 0 0.239216 0 0 0 0 0.462745 0 0 0 1 0"/><feBlend in2="BackgroundImageFix" result="effect1_dropShadow"/><feBlend in="SourceGraphic" in2="effect1_dropShadow" result="shape"/></filter><filter id="filter11_di" x="98.368" y="34.434" width="145.323" height="98.49" filterUnits="userSpaceOnUse" color-interpolation-filters="sRGB"><feFlood flood-opacity="0" result="BackgroundImageFix"/><feColorMatrix in="SourceAlpha" values="0 0 0 0 0 0 0 0 0 0 0 0 0 0 0 0 0 0 127 0"/><feOffset dx="2" dy="2"/><feGaussianBlur stdDeviation="2"/><feColorMatrix values="0 0 0 0 0 0 0 0 0 0 0 0 0 0 0 0 0 0 0.15 0"/><feBlend in2="BackgroundImageFix" result="effect1_dropShadow"/><feBlend in="SourceGraphic" in2="effect1_dropShadow" result="shape"/><feColorMatrix in="SourceAlpha" values="0 0 0 0 0 0 0 0 0 0 0 0 0 0 0 0 0 0 127 0" result="hardAlpha"/><feOffset dx="-2" dy="-2"/><feGaussianBlur stdDeviation="2"/><feComposite in2="hardAlpha" operator="arithmetic" k2="-1" k3="1"/><feColorMatrix values="0 0 0 0 0 0 0 0 0 0 0 0 0 0 0 0 0 0 0.2 0"/><feBlend in2="shape" result="effect2_innerShadow"/></filter><filter id="filter12_di" x="80.378" y="124.559" width="180.332" height="41.643" filterUnits="userSpaceOnUse" color-interpolation-filters="sRGB"><feFlood flood-opacity="0" result="BackgroundImageFix"/><feColorMatrix in="SourceAlpha" values="0 0 0 0 0 0 0 0 0 0 0 0 0 0 0 0 0 0 127 0"/><feOffset dx="2" dy="2"/><feGaussianBlur stdDeviation="2"/><feColorMatrix values="0 0 0 0 0 0 0 0 0 0 0 0 0 0 0 0 0 0 0.15 0"/><feBlend in2="BackgroundImageFix" result="effect1_dropShadow"/><feBlend in="SourceGraphic" in2="effect1_dropShadow" result="shape"/><feColorMatrix in="SourceAlpha" values="0 0 0 0 0 0 0 0 0 0 0 0 0 0 0 0 0 0 127 0" result="hardAlpha"/><feOffset dx="-2" dy="-2"/><feGaussianBlur stdDeviation="2"/><feComposite in2="hardAlpha" operator="arithmetic" k2="-1" k3="1"/><feColorMatrix values="0 0 0 0 0 0 0 0 0 0 0 0 0 0 0 0 0 0 0.2 0"/><feBlend in2="shape" result="effect2_innerShadow"/></filter><filter id="filter13_di" x="104.722" y="127.187" width="131.648" height="23.162" filterUnits="userSpaceOnUse" color-interpolation-filters="sRGB"><feFlood flood-opacity="0" result="BackgroundImageFix"/><feColorMatrix in="SourceAlpha" values="0 0 0 0 0 0 0 0 0 0 0 0 0 0 0 0 0 0 127 0"/><feOffset dx="2" dy="2"/><feGaussianBlur stdDeviation="2"/><feColorMatrix values="0 0 0 0 0 0 0 0 0 0 0 0 0 0 0 0 0 0 0.15 0"/><feBlend in2="BackgroundImageFix" result="effect1_dropShadow"/><feBlend in="SourceGraphic" in2="effect1_dropShadow" result="shape"/><feColorMatrix in="SourceAlpha" values="0 0 0 0 0 0 0 0 0 0 0 0 0 0 0 0 0 0 127 0" result="hardAlpha"/><feOffset dx="-2" dy="-2"/><feGaussianBlur stdDeviation="2"/><feComposite in2="hardAlpha" operator="arithmetic" k2="-1" k3="1"/><feColorMatrix values="0 0 0 0 0 0 0 0 0 0 0 0 0 0 0 0 0 0 0.2 0"/><feBlend in2="shape" result="effect2_innerShadow"/></filter><filter id="filter14_f" x="175.554" y="159.316" width="28.095" height="40.831" filterUnits="userSpaceOnUse" color-interpolation-filters="sRGB"><feFlood flood-opacity="0" result="BackgroundImageFix"/><feBlend in="SourceGraphic" in2="BackgroundImageFix" result="shape"/><feGaussianBlur stdDeviation="1" result="effect1_foregroundBlur"/></filter><filter id="filter15_f" x="90.128" y="118.86" width="95.34" height="69.643" filterUnits="userSpaceOnUse" color-interpolation-filters="sRGB"><feFlood flood-opacity="0" result="BackgroundImageFix"/><feBlend in="SourceGraphic" in2="BackgroundImageFix" result="shape"/><feGaussianBlur stdDeviation="15" result="effect1_foregroundBlur"/></filter><filter id="filter16_f" x="161.61" y="120.199" width="95.34" height="69.643" filterUnits="userSpaceOnUse" color-interpolation-filters="sRGB"><feFlood flood-opacity="0" result="BackgroundImageFix"/><feBlend in="SourceGraphic" in2="BackgroundImageFix" result="shape"/><feGaussianBlur stdDeviation="15" result="effect1_foregroundBlur"/></filter><clipPath id="clip0"><path fill="#fff" transform="translate(115.308 95.287)" d="M0 0h44.978v106.878H0z"/></clipPath><clipPath id="clip1"><path fill="#fff" transform="translate(166.979 93.68)" d="M0 0h56.222v109.02H0z"/></clipPath></defs></svg>