<svg width="124" height="120" viewBox="0 0 124 120" fill="none" xmlns="http://www.w3.org/2000/svg">
<g clip-path="url(#clip0)">
<path d="M23.5108 2.95786L123.971 3.30585L122.955 91.7544L23.3076 91.9284L23.5108 2.95786Z" fill="#102E5B"/>
<path d="M23.6854 2.8999L0.0580524 31.1454L0 119.275L23.6854 91.6964V2.8999Z" fill="#0A2D49"/>
<path d="M100.286 119.855L0 119.971L0.0580524 31.1455L99.7631 30.9715L100.286 119.855Z" fill="#102E5B"/>
<path d="M100.285 119.855L123.971 91.5514V3.30588L100.372 31.1744L100.285 119.855Z" fill="#0A2D49"/>
<path d="M100.372 31.1744L123.971 3.30588V92.2184L100.285 119.855L100.372 31.1744Z" fill="#053866"/>
<path d="M100.372 31.1744L123.971 3.30588V92.1894L100.285 119.855L100.372 31.1744Z" fill="#053866"/>
<path d="M118.078 10.2658L123.97 3.30588V25.7805L118.078 32.7404V10.2658Z" fill="#053866"/>
<path d="M120.111 22.6777C118.862 19.9807 118.253 16.4718 118.253 10.2659L118.979 9.36688C118.979 14.8478 119.646 18.5887 120.72 20.8797C121.62 22.7647 122.781 23.0547 123.971 21.6047L123.942 23.9826C123.333 24.7076 122.926 24.8816 122.375 24.8816C121.62 24.8816 120.749 24.0406 120.111 22.6777Z" fill="#B9D5FD"/>
<path d="M112.187 17.2255L118.079 10.2657V32.7403L112.187 39.7002V17.2255Z" fill="#0E2951"/>
<path d="M106.294 24.1855L112.187 17.2256V39.7003L106.294 46.6312V24.1855Z" fill="#709FDC"/>
<path d="M100.372 31.1743L106.293 24.1855V46.6311L100.401 53.504L100.372 31.1743Z" fill="#55A2E0"/>
<path d="M118.078 32.7402L123.97 25.7804V47.907L118.078 54.8669V32.7402Z" fill="#B9D5FD"/>
<path d="M112.187 39.7002L118.079 32.7404V54.867L112.187 61.8269V39.7002Z" fill="#274684"/>
<path d="M106.294 46.6311L112.187 39.7002V61.8268L106.294 68.7867V46.6311Z" fill="#3D95D1"/>
<path d="M100.401 53.5042L106.294 46.6313V68.7869L100.401 75.6308V53.5042Z" fill="#B9D5FD"/>
<path d="M112.187 61.827L118.079 54.8671V77.0228L112.187 83.9827V61.827Z" fill="#B9D5FD"/>
<path d="M106.294 68.7868L112.187 61.8269V83.9825L106.294 90.9424V68.7868Z" fill="#0E2951"/>
<path d="M100.401 75.6306L106.294 68.7867V90.9424L100.517 97.7862L100.401 75.6306Z" fill="#709FDC"/>
<path d="M118.078 77.0227L123.97 70.0338V92.1895L118.078 99.1493V77.0227Z" fill="#6780B3"/>
<path d="M112.187 83.9827L118.079 77.0229V99.1495L112.187 106.109V83.9827Z" fill="#053866"/>
<path d="M106.294 90.9426L112.187 83.9827V106.109L106.294 113.069V90.9426Z" fill="#B9D5FD"/>
<path d="M100.518 97.7865L106.294 90.9426V113.069L100.285 119.855L100.518 97.7865Z" fill="#3D95D1"/>
<path d="M121.068 18.7047C120.082 16.6167 119.559 13.7168 119.559 8.96084L120.285 8.06186C120.285 11.9188 120.72 14.7028 121.591 16.5007C122.113 17.5737 123.158 17.9217 124 16.9067V19.5747C123.536 20.1257 123.245 20.2997 122.81 20.2997C122.142 20.2997 121.562 19.7487 121.068 18.7047Z" fill="#3D95D1"/>
<path d="M122.026 14.0648C121.358 12.6439 120.981 10.4399 120.981 7.22095L121.707 6.32196C121.707 8.67092 121.823 9.7729 122.287 11.1939C122.723 12.5279 123.477 12.6729 124 12.0929V14.7608C123.68 15.1378 123.506 15.2248 123.216 15.2248C122.752 15.1958 122.345 14.7898 122.026 14.0648Z" fill="#3376B3"/>
<path d="M122.868 9.39594C122.462 8.52595 122.259 7.24997 122.259 5.423L123.101 4.52402C122.955 5.858 122.955 6.72798 123.246 7.19197C123.345 7.28266 123.474 7.33296 123.609 7.33296C123.743 7.33296 123.872 7.28266 123.971 7.19197V9.85993C123.797 10.0919 123.768 10.0919 123.594 10.0919C123.333 10.0629 123.072 9.83093 122.868 9.39594Z" fill="#709FDC"/>
<path d="M100.518 91.9286L104.668 86.9696V54.3742L100.518 59.2751V56.2011L105.539 50.5462V88.8256L100.547 94.6835L100.518 91.9286Z" fill="#274684"/>
<path d="M100.518 91.9284L104.668 86.9695V70.1788L105.539 69.3088V88.8254L100.518 95.0313V91.9284Z" fill="#0E2951"/>
<path d="M100.46 86.6505L103.275 83.3445V60.9279L100.518 64.0018V61.1309L104.117 57.0999V84.7075L100.547 88.9414L100.46 86.6505Z" fill="#274684"/>
<path d="M100.518 80.9375L101.795 79.1975V68.7577L100.518 70.3237V67.2207L102.666 64.9297V81.0535L100.634 83.4604L100.518 80.9375Z" fill="#274684"/>
<path d="M100.46 80.6765L101.737 79.3715V73.6586L102.579 72.7596V81.2275L100.518 83.6055L100.46 80.6765Z" fill="#0E2951"/>
<path d="M100.518 86.4475L103.275 83.3445V71.8607L104.117 70.9617V85.1425L100.518 89.5504V86.4475Z" fill="#0E2951"/>
<path d="M119.501 80.6476L123.971 75.3697V92.1894L119.501 97.4963V80.6476Z" fill="#053866"/>
<path d="M121.01 84.6205L123.971 81.1116V92.1894L121.01 95.6694V84.6205Z" fill="#709FDC"/>
<path d="M110.009 20.1837L112.157 31.5806L108.442 43.9923L106.323 32.5955L110.009 20.1837Z" fill="#0E2951"/>
<path d="M109.632 26.0125L110.735 31.8414L108.82 38.1633L107.746 32.3634L109.632 26.0125Z" fill="#6780B3"/>
<path d="M106.294 95.3505L112.187 88.3907V106.109L106.294 113.069V95.3505Z" fill="#3D95D1"/>
<path d="M106.294 100.222L112.187 93.2626V106.109L106.294 113.069V100.222Z" fill="#6780B3"/>
<path d="M106.294 105.123L112.187 98.1342V106.109L106.294 113.069V105.123Z" fill="#053866"/>
<path d="M106.294 109.096L112.187 102.136V106.109L106.294 113.069V109.096Z" fill="#0E2951"/>
<path d="M112.709 57.1L117.556 50.3721L112.709 45.0652L117.556 38.3373L112.709 57.1Z" fill="#0E2951"/>
<path d="M123.245 26.6504L123.971 25.7804V47.907L123.245 48.806V26.6504Z" fill="#55A2E0"/>
<path d="M122.114 27.9846L122.839 27.1146V49.2412L122.114 50.1402V27.9846Z" fill="#55A2E0"/>
<path d="M118.397 32.4215L119.123 31.5225V53.6781L118.397 54.5481V32.4215Z" fill="#55A2E0"/>
<path d="M119.646 30.8264L120.488 29.9274V52.054L119.646 52.924V30.8264Z" fill="#55A2E0"/>
<path d="M120.981 29.3185L121.678 28.4195V50.5752L120.981 51.4451V29.3185Z" fill="#55A2E0"/>
<path d="M118.078 54.867L123.97 47.9071V70.0337L118.078 77.0226V54.867Z" fill="#0E2951"/>
<path d="M118.078 65.9448L121.01 62.4648V73.5426L118.078 77.0226V65.9448Z" fill="#55A2E0"/>
<path d="M121.01 51.387L123.971 47.9071V58.9849L121.01 62.4649V51.387Z" fill="#55A2E0"/>
<path d="M113.608 87.6654L116.627 84.0694V95.4662L113.608 99.0622V90.0723L116.076 87.1724V94.0453L114.189 96.2782V91.4643L115.495 89.8983V92.6533L114.74 93.5523" stroke="#3D95D1" stroke-miterlimit="10"/>
<path d="M104.523 113.069L101.127 97.8153L102.375 96.4234L105.946 111.764L104.523 113.069Z" fill="#003A79"/>
<path d="M102.579 114.838L100.78 117.071L103.74 95.0315L105.54 93.2626L102.579 114.838Z" fill="#003A79"/>
<path d="M110.068 68.7579L110.996 67.6559V71.1939L110.068 72.2959V68.7579Z" fill="#B9D5FD"/>
<path d="M108.761 75.1378L109.69 74.0358V77.5738L108.761 78.7047V75.1378Z" fill="#B9D5FD"/>
<path d="M107.455 81.5755L108.413 80.4445V84.0115L107.455 85.1134V81.5755Z" fill="#B9D5FD"/>
<path d="M100.373 31.1743L0.0583496 31.1453L0.116402 119.855H100.286L100.373 31.1743Z" fill="#054270"/>
<path d="M100.286 119.855L0.0873758 119.942L0.0583496 31.1453L100.373 31.1743L100.286 119.855Z" fill="#053866"/>
<path d="M25.2231 97.7285L0.0864258 97.7575V75.6018L25.2231 75.5728V97.7285Z" fill="#F4F9FF"/>
<path d="M50.3315 97.7284H25.2239V75.5728L50.3315 75.5438V97.7284Z" fill="#274684"/>
<path d="M75.4099 97.6991L50.3313 97.7281V75.5435L75.4099 75.5145V97.6991Z" fill="#3D95D1"/>
<path d="M100.517 97.7862L75.4097 97.6992V75.5145L100.517 75.6015V97.7862Z" fill="#B9D5FD"/>
<path d="M50.3315 75.5437L25.2239 75.5727V53.3881L50.3315 53.3591V75.5437Z" fill="#B9D5FD"/>
<path d="M75.4099 75.5147L50.3313 75.5437V53.3591H75.4099V75.5147Z" fill="#0E2951"/>
<path d="M100.517 75.6017L75.4097 75.5147V53.3591L100.517 53.4171V75.6017Z" fill="#709FDC"/>
<path d="M50.3315 119.913H25.2239V97.7285H50.3315V119.913Z" fill="#0E2951"/>
<path d="M75.5418 119.884L50.3313 119.913V97.7281L75.5418 97.6991V119.884Z" fill="#709FDC"/>
<path d="M100.286 119.855L75.5842 119.884V97.6991L100.518 97.7861L100.286 119.855Z" fill="#6780B3"/>
<path d="M25.2241 53.3879L0.0873758 53.4169L0.0583496 31.1453L25.2241 31.2323V53.3879Z" fill="#6780B3"/>
<path d="M50.3315 53.3593L25.2239 53.3883V31.2326L50.3315 31.2036V53.3593Z" fill="#053866"/>
<path d="M75.4099 53.3592H50.3313V31.2035L75.4099 31.1745V53.3592Z" fill="#B9D5FD"/>
<path d="M100.517 53.4172L75.4097 53.3592V31.1745H100.372L100.517 53.4172Z" fill="#3D95D1"/>
<path d="M78.6321 94.6835V56.3751L100.286 56.3461L99.8793 59.1881H82.2604V91.8415L100.518 91.9285V95.0315L78.6321 94.6835Z" fill="#274684"/>
<path d="M78.3997 56.375L100.518 56.172V59.2749L82.2601 59.1879V75.5436H78.6319L78.3997 56.375Z" fill="#0E2951"/>
<path d="M84.6697 89.5506V62.1171L100.518 61.1311V63.8571L88.2689 64.0601V86.3897L100.518 86.4477V89.5506H84.6697Z" fill="#274684"/>
<path d="M91.2007 83.5765V67.4528L100.46 67.3948L99.8795 70.2947L94.7999 70.2657V80.7346L100.518 80.6766V83.6055L91.2007 83.5765Z" fill="#274684"/>
<path d="M91.2007 67.4529L100.518 67.2209V70.3238L94.7999 70.2658V75.6307L91.2007 75.5727V67.4529Z" fill="#0E2951"/>
<path d="M84.6697 61.2471L100.518 61.1311V64.0021L88.2689 64.0601V75.5149H84.6697V61.2471Z" fill="#0E2951"/>
<path d="M12.6267 42.3101L0.0873758 42.3391L0.0583496 31.1453L12.6267 31.2323V42.3101Z" fill="#FF8098"/>
<path d="M59.5332 119.797L50.4189 105.877L66.1802 97.8155L75.3235 111.735L59.5332 119.797Z" fill="#0E2951"/>
<path d="M61.1588 114.432L56.5146 107.298L64.5839 103.18L69.1991 110.314L61.1588 114.432Z" fill="#6780B3"/>
<path d="M75.4099 48.9222L50.3313 48.9512V31.2035L75.4099 31.1745V48.9222Z" fill="#3D95D1"/>
<path d="M75.4099 44.0503L50.3313 44.0793V31.2035L75.4099 31.1745V44.0503Z" fill="#6780B3"/>
<path d="M75.4099 39.1784H50.3313V31.2035L75.4099 31.1745V39.1784Z" fill="#053866"/>
<path d="M75.4099 35.1765H50.3313V31.2035L75.4099 31.1745V35.1765Z" fill="#0E2951"/>
<path d="M48.8221 79.1686L26.7332 79.1976L48.8221 93.2334L26.7332 93.2624" fill="#0E2951"/>
<path d="M0.0583496 75.3698L3.6576 75.2538V97.8734L0.0583496 97.9894V75.3698Z" fill="#709FDC"/>
<path d="M4.78906 75.6598L8.41734 75.5438V97.6994L4.78906 97.8444V75.6598Z" fill="#709FDC"/>
<path d="M19.9699 75.6016L23.5691 75.4566L23.5111 97.6993L19.8538 97.8153L19.9699 75.6016Z" fill="#709FDC"/>
<path d="M14.8323 75.6305L18.4896 75.5145V97.6992L14.8323 97.8151V75.6305Z" fill="#709FDC"/>
<path d="M9.81055 75.6595L13.4679 75.5145V97.6991L9.81055 97.8441V75.6595Z" fill="#709FDC"/>
<path d="M25.2231 75.5729L0.0864258 75.6019V53.4173L25.2231 53.3883V75.5729Z" fill="#0E2951"/>
<path d="M25.2231 119.913L0.0864258 119.942V97.7575L25.2231 97.7285V119.913Z" fill="#053866"/>
<path d="M25.2236 64.4661L12.6262 64.4951V53.4173L25.2236 53.3883V64.4661Z" fill="#3D95D1"/>
<path d="M0.0583496 101.092V98.8884C13.4394 98.8884 24.7887 104.833 24.7887 119.942L21.77 119.884C21.77 109.705 12.1333 101.092 0.0583496 101.092Z" fill="#B9D5FD"/>
<path d="M0 105.877V103.209C10.0721 103.209 18.7219 109.183 18.7219 119.826L15.0936 119.942C15.0936 112.17 8.82397 105.877 0 105.877Z" fill="#3D95D1"/>
<path d="M0.0583496 110.865L0.116402 108.313C6.96659 108.313 12.1042 113.301 12.1042 119.942L8.73719 120C8.70816 115.186 5.39917 110.865 0.0583496 110.865Z" fill="#3376B3"/>
<path d="M0.0583496 116.201L0.116402 113.388C3.86078 113.388 6.67633 116.114 6.06678 119.826L3.04805 119.768C3.04805 117.651 2.40947 116.172 0.0583496 116.201Z" fill="#709FDC"/>
<path d="M47.6321 51.039H27.8652V33.5523H47.6321V47.3271H31.5806V36.7713L43.9167 36.8003V44.1371H35.2959V39.9322H40.2014" stroke="#3D95D1" stroke-width="2" stroke-miterlimit="10"/>
<path d="M97.0056 50.6913L79.9382 33.8135" stroke="#0E2951" stroke-width="4" stroke-miterlimit="10"/>
<path d="M79.9382 50.6913L97.0056 33.8135" stroke="#0E2951" stroke-width="4" stroke-miterlimit="10"/>
<path d="M59.3589 71.1067H55.3533V67.5688L59.3589 67.5398V71.1067Z" fill="#B9D5FD"/>
<path d="M64.8738 66.235L60.8682 66.206V62.668L64.8738 62.697V66.235Z" fill="#B9D5FD"/>
<path d="M70.3887 61.3341L66.3831 61.3631V57.7961H70.3887V61.3341Z" fill="#B9D5FD"/>
<path d="M19.1576 48.081H0.0873758L0.0583496 31.1453L19.1576 31.2323V48.081Z" fill="#053866"/>
<path d="M14.049 43.5281H0.0873758L0.0583496 31.1453L14.049 31.2033V43.5281Z" fill="#709FDC"/>
<path d="M12.6258 75.6016H0.0864258V64.5238L12.6258 64.4948V75.6016Z" fill="#3D95D1"/>
<path d="M66.9057 3.16111L23.3084 2.78412L0.0583496 31.1456L43.975 31.2036L66.9057 3.16111Z" fill="#165B93"/>
<path d="M123.245 1.53697L123.623 0.60899L123.855 0" fill="#34DD17"/>
<path d="M123.971 3.30583L76.4263 3.16083L55.3533 31.2904L100.373 31.1744L123.971 3.30583Z" fill="#165B93"/>
<path d="M112.216 9.48284L100.373 31.1745L0.0583496 31.1455L11.843 9.27985L112.216 9.48284Z" fill="#9CCEF7"/>
<path d="M114.073 7.48204L123.971 3.30611L23.3077 2.78412L13.4678 7.13405L114.073 7.48204Z" fill="#9CCEF7"/>
<path d="M100.568 53.1429H0V97.7143H100.568V53.1429Z" fill="#A8D2FC"/>
<path d="M10.9394 79.5715L7.59836 70.9005H5.28436L1.93036 79.5715H4.03636L4.58236 78.1025H8.30036L8.83336 79.5715H10.9394ZM7.79336 76.4775H5.08936L6.44136 72.7465L7.79336 76.4775ZM15.7961 79.5715C17.0571 79.5715 17.7331 78.8175 17.7331 77.8685C17.7331 77.1145 17.2261 76.4905 16.5371 76.3345C17.1221 76.1655 17.6031 75.6585 17.6031 74.9045C17.6031 74.0595 16.9531 73.2925 15.6791 73.2925H11.7011V79.5715H15.7961ZM15.3931 78.2195H13.3521V77.0495H15.3931C15.8091 77.0495 16.0431 77.3225 16.0431 77.6345C16.0431 77.9985 15.7961 78.2195 15.3931 78.2195ZM15.3411 75.6975H13.3521V74.6445H15.3411C15.7051 74.6445 15.9261 74.8655 15.9261 75.1775C15.9261 75.4635 15.7051 75.6975 15.3411 75.6975ZM22.1393 79.5715V74.7355H23.8943V73.2925H18.7203V74.7355H20.4753V79.5715H22.1393ZM27.8416 79.7275C29.9216 79.7275 31.1696 78.2195 31.1696 76.4255C31.1696 74.6445 29.9216 73.1365 27.8416 73.1365C25.7746 73.1365 24.5266 74.6445 24.5266 76.4255C24.5266 78.2195 25.7746 79.7275 27.8416 79.7275ZM27.8416 78.2585C26.8146 78.2585 26.2426 77.4135 26.2426 76.4255C26.2426 75.4505 26.8146 74.6055 27.8416 74.6055C28.8686 74.6055 29.4536 75.4505 29.4536 76.4255C29.4536 77.4135 28.8686 78.2585 27.8416 78.2585ZM39.8174 79.5715V73.2925H37.6334L36.1124 77.0365L34.5654 73.2925H32.3944V79.5715H34.0454V75.4895L35.7354 79.5715H36.4894L38.1664 75.4895V79.5715H39.8174ZM46.8799 79.5715V75.5155C46.8799 73.7085 45.5669 73.1365 44.1369 73.1365C43.1489 73.1365 42.1609 73.4485 41.3939 74.1245L42.0179 75.2295C42.5509 74.7355 43.1749 74.4885 43.8509 74.4885C44.6829 74.4885 45.2289 74.9045 45.2289 75.5415V76.3865C44.8129 75.8925 44.0719 75.6195 43.2399 75.6195C42.2389 75.6195 41.0559 76.1785 41.0559 77.6475C41.0559 79.0515 42.2389 79.7275 43.2399 79.7275C44.0589 79.7275 44.7999 79.4285 45.2289 78.9215V79.5715H46.8799ZM43.9029 78.6095C43.2529 78.6095 42.7199 78.2715 42.7199 77.6865C42.7199 77.0755 43.2529 76.7375 43.9029 76.7375C44.4359 76.7375 44.9559 76.9195 45.2289 77.2835V78.0635C44.9559 78.4275 44.4359 78.6095 43.9029 78.6095ZM51.3385 79.5715V74.7355H53.0935V73.2925H47.9195V74.7355H49.6745V79.5715H51.3385ZM55.7148 79.5715L58.3798 75.6325V79.5715H60.0308V73.2925H58.3668L55.7798 77.0885V73.2925H54.1288V79.5715H55.7148ZM63.9578 79.7275C65.8298 79.7275 66.9868 78.9475 66.9868 77.8425C66.9868 76.8935 65.9858 76.3995 65.2188 76.3475C66.0508 76.2175 66.8568 75.6715 66.8568 74.8655C66.8568 73.7995 65.7518 73.1365 63.7888 73.1495C62.6448 73.1495 61.7348 73.5785 61.1238 74.1895L61.9298 75.1645C62.4238 74.6835 63.0608 74.4495 63.8798 74.4495C64.6208 74.4495 65.1408 74.7095 65.1408 75.0865C65.1408 75.5285 64.7118 75.7625 63.8538 75.7625H62.5668V77.0365H63.8538C64.7118 77.0365 65.2578 77.2575 65.2578 77.7385C65.2578 78.1415 64.8028 78.4145 63.9578 78.4145C63.2038 78.4145 62.3718 78.1935 61.7868 77.6995L61.0328 78.7265C61.6438 79.3245 62.6578 79.7275 63.9578 79.7275ZM73.6416 79.5715V75.5155C73.6416 73.7085 72.3286 73.1365 70.8986 73.1365C69.9106 73.1365 68.9226 73.4485 68.1556 74.1245L68.7796 75.2295C69.3126 74.7355 69.9366 74.4885 70.6126 74.4885C71.4446 74.4885 71.9906 74.9045 71.9906 75.5415V76.3865C71.5746 75.8925 70.8336 75.6195 70.0016 75.6195C69.0006 75.6195 67.8176 76.1785 67.8176 77.6475C67.8176 79.0515 69.0006 79.7275 70.0016 79.7275C70.8206 79.7275 71.5616 79.4285 71.9906 78.9215V79.5715H73.6416ZM70.6646 78.6095C70.0146 78.6095 69.4816 78.2715 69.4816 77.6865C69.4816 77.0755 70.0146 76.7375 70.6646 76.7375C71.1976 76.7375 71.7176 76.9195 71.9906 77.2835V78.0635C71.7176 78.4275 71.1976 78.6095 70.6646 78.6095ZM80.2192 81.1705H81.8702V78.1285H81.1812V73.2925H79.5302V78.1285H76.9302V73.2925H75.2792V79.5715H80.2192V81.1705ZM84.4951 79.5715L87.1601 75.6325V79.5715H88.8111V73.2925H87.1471L84.5601 77.0885V73.2925H82.9091V79.5715H84.4951ZM92.1141 79.5715L93.3491 77.4135H94.6361V79.5715H96.2871V73.2925H92.4781C91.0871 73.2925 90.3071 74.2415 90.3071 75.3465C90.3071 76.4645 90.9831 77.1145 91.6981 77.2965L90.2421 79.5715H92.1141ZM92.7381 76.0355C92.2701 76.0355 91.9841 75.7495 91.9841 75.3465C91.9841 74.9565 92.2831 74.6835 92.7381 74.6835H94.6361V76.0355H92.7381Z" fill="black"/>
</g>
<defs>
<clipPath id="clip0">
<rect width="124" height="120" fill="white"/>
</clipPath>
</defs>
</svg>
