<svg width="789" height="552" viewBox="0 0 789 552" fill="none" xmlns="http://www.w3.org/2000/svg">
<g filter="url(#filter0_f)">
<path d="M323.759 499.11L398.664 479.129L292.965 390.879L133.169 436.669L323.759 499.11Z" fill="url(#paint0_linear)"/>
</g>
<g filter="url(#filter1_f)">
<path d="M504.778 522.005L553.882 495.78L460.251 465.808L395.334 485.789L504.778 522.005Z" fill="url(#paint1_linear)"/>
</g>
<path d="M574.635 64.8967C581.691 64.8967 585.723 61.0087 588.027 57.0247L582.171 54.1927C580.827 56.8327 577.947 58.8487 574.635 58.8487C568.827 58.8487 564.603 54.3847 564.603 48.3367C564.603 42.2887 568.827 37.8247 574.635 37.8247C577.947 37.8247 580.827 39.8887 582.171 42.4807L588.027 39.6007C585.771 35.6167 581.691 31.7767 574.635 31.7767C565.035 31.7767 557.595 38.4967 557.595 48.3367C557.595 58.1767 565.035 64.8967 574.635 64.8967ZM618.004 64.3207L610.804 52.1287C614.26 51.3127 617.812 48.2887 617.812 42.6247C617.812 36.6727 613.732 32.3047 607.06 32.3047H592.084V64.3207H598.9V52.9447H603.892L610.18 64.3207H618.004ZM606.052 46.9447H598.9V38.3047H606.052C608.788 38.3047 610.852 39.9367 610.852 42.6247C610.852 45.3127 608.788 46.9447 606.052 46.9447ZM593.835 136.321V104.305H584.235L576.459 123.649L568.683 104.305H559.131V136.321H565.947V113.905L574.971 136.321H577.947L586.971 113.905V136.321H593.835Z" fill="#EBF2F9"/>
<g filter="url(#filter2_di)">
<path d="M679.021 344.022L637.724 319.131C636.048 318.1 634.689 316.625 633.798 314.87C632.907 313.115 632.519 311.148 632.675 309.185C633.097 304.08 633.307 298.922 633.304 293.711C633.337 284.213 632.615 274.727 631.147 265.343C630.798 263.25 631.089 261.101 631.981 259.176C632.873 257.251 634.325 255.64 636.147 254.553L679.284 228.5C681.524 227.157 683.175 225.018 683.906 222.51C684.638 220.002 684.396 217.31 683.229 214.973L662.925 173.608C661.812 171.355 659.911 169.59 657.583 168.649C655.254 167.707 652.661 167.655 650.297 168.502L606.686 184.346C602.478 185.979 597.688 184.558 594.842 180.873C582.785 165.286 568.334 151.711 552.027 140.652C550.105 139.322 548.675 137.393 547.961 135.166C547.247 132.939 547.288 130.538 548.078 128.337L557.76 101.809C558.63 99.3509 558.576 96.6596 557.609 94.2379C556.641 91.8163 554.825 89.8298 552.501 88.6493L511.418 68.5463C510.603 68.122 509.73 67.82 508.827 67.6503C506.726 67.2144 504.541 67.4471 502.578 68.3156C500.616 69.1841 498.974 70.645 497.883 72.4936L479.266 103.331L474.739 110.859C466.132 109.629 457.448 109.011 448.754 109.008C437.14 109.001 425.551 110.076 414.137 112.218C412.065 112.625 409.918 112.384 407.989 111.528C406.059 110.671 404.44 109.24 403.351 107.43L382.414 72.6232C381.032 70.3457 378.847 68.6688 376.29 67.9231C373.733 67.1774 370.99 67.4169 368.601 68.5945L336.982 84.1207L327.933 88.5937C325.54 89.7616 323.664 91.7728 322.664 94.2409C321.663 96.709 321.61 99.4599 322.514 101.965L335.72 138.438C336.498 140.469 336.612 142.695 336.045 144.794C335.477 146.894 334.258 148.759 332.563 150.121C322.308 158.467 312.978 167.891 304.734 178.229C303.987 179.056 303.284 179.921 302.628 180.821C302.409 181.125 302.162 181.407 301.888 181.662C300.465 183.174 298.627 184.231 296.605 184.7C294.583 185.168 292.467 185.027 290.525 184.295L247.425 168.65C246.947 168.459 246.451 168.318 245.945 168.228C243.652 167.774 241.275 168.084 239.175 169.111C237.076 170.137 235.37 171.824 234.319 173.912L214.222 214.858C213.052 217.248 212.819 219.989 213.568 222.542C214.318 225.095 215.995 227.274 218.271 228.651L261.356 254.597C263.146 255.659 264.571 257.238 265.445 259.127C266.318 261.016 266.599 263.125 266.249 265.177C264.809 274.612 264.088 284.144 264.092 293.689C264.092 298.846 264.303 303.951 264.724 309.004C264.886 311.014 264.485 313.03 263.565 314.825C262.645 316.62 261.243 318.123 259.517 319.165L218.064 344.218C215.851 345.559 214.219 347.679 213.489 350.162C212.759 352.645 212.983 355.312 214.118 357.637L234.268 398.532C235.439 400.935 237.458 402.818 239.936 403.819C242.413 404.82 245.174 404.868 247.684 403.953L282.194 391.426C284.428 390.611 286.871 390.569 289.132 391.307C291.393 392.046 293.34 393.522 294.663 395.499C305.251 411.531 318.26 425.824 333.226 437.868C334.976 439.249 336.244 441.149 336.849 443.295C337.453 445.442 337.363 447.725 336.59 449.817L322.492 488.66C321.588 491.18 321.64 493.944 322.639 496.427C323.638 498.911 325.514 500.941 327.911 502.131L368.683 522.186C371.033 523.346 373.735 523.579 376.249 522.838C378.764 522.097 380.908 520.437 382.255 518.187L383.365 516.395L404.984 480.555C406.104 478.688 407.768 477.208 409.752 476.314C411.737 475.42 413.947 475.154 416.087 475.552H416.139C426.905 477.482 437.82 478.451 448.757 478.448C454.701 478.448 460.538 478.133 466.378 477.607C468.355 477.399 470.35 477.759 472.13 478.644C473.909 479.529 475.4 480.904 476.427 482.606L497.679 517.924C499.076 520.255 501.296 521.976 503.901 522.745C506.507 523.515 509.306 523.277 511.744 522.079L552.456 502.028C553.569 501.452 554.583 500.702 555.458 499.806C556.807 498.367 557.736 496.585 558.144 494.654C558.552 492.724 558.423 490.719 557.771 488.856L547.145 459.752C546.532 458.002 546.38 456.124 546.704 454.299C547.028 452.473 547.817 450.763 548.996 449.332C549.646 448.572 550.393 447.9 551.216 447.332C571.717 433.645 589.28 416.002 602.877 395.436C603.997 393.736 605.591 392.4 607.461 391.596C609.331 390.791 611.395 390.552 613.4 390.908C613.99 391.017 614.571 391.176 615.136 391.382L650.015 404.068C652.464 404.953 655.152 404.906 657.568 403.935C659.984 402.964 661.958 401.137 663.114 398.802L663.587 397.854L683.204 357.96C684.37 355.533 684.588 352.758 683.814 350.179C683.04 347.6 681.331 345.404 679.021 344.022ZM353.008 265.336C355.103 257.916 357.886 250.709 361.321 243.807C368.161 230.07 385.045 213.073 398.832 206.282C400.313 205.542 401.793 204.86 403.251 204.175C493.419 163.647 580.382 252.228 536.664 342.493C530.93 354.283 518.25 368.128 505.888 376.704C503.209 378.559 500.395 380.214 497.472 381.654C484.888 387.757 472.378 391.337 460.172 392.707C390.623 400.443 333.385 336.494 353.008 265.336Z" fill="url(#paint2_linear)"/>
</g>
<path d="M788.287 274.675L782.745 271.311C782.52 271.171 782.338 270.971 782.218 270.733C782.098 270.496 782.046 270.23 782.067 269.964C782.124 269.274 782.151 268.577 782.151 267.869C782.156 266.585 782.06 265.303 781.863 264.035C781.816 263.752 781.855 263.462 781.975 263.201C782.094 262.941 782.289 262.723 782.533 262.576L788.324 259.055C788.625 258.873 788.847 258.584 788.945 258.245C789.043 257.906 789.01 257.542 788.853 257.226L786.127 251.629C785.977 251.325 785.722 251.087 785.41 250.959C785.097 250.832 784.749 250.825 784.432 250.94L778.58 253.081C778.3 253.186 777.994 253.197 777.708 253.113C777.421 253.028 777.17 252.852 776.991 252.611C775.372 250.505 773.432 248.67 771.244 247.176C770.986 246.996 770.794 246.735 770.699 246.434C770.603 246.134 770.609 245.809 770.715 245.512L772.013 241.92C772.13 241.588 772.123 241.225 771.993 240.897C771.863 240.57 771.62 240.302 771.307 240.143L765.793 237.425C765.685 237.368 765.568 237.327 765.447 237.304C765.166 237.245 764.872 237.276 764.609 237.394C764.346 237.511 764.125 237.708 763.979 237.958L761.479 242.127L760.872 243.144C759.717 242.979 758.552 242.896 757.385 242.896C755.826 242.895 754.271 243.04 752.739 243.33C752.461 243.385 752.172 243.352 751.914 243.237C751.655 243.121 751.438 242.927 751.292 242.682L748.482 237.979C748.297 237.67 748.003 237.442 747.659 237.341C747.315 237.24 746.946 237.272 746.625 237.431L742.382 239.526L741.167 240.125C740.846 240.282 740.594 240.554 740.46 240.888C740.326 241.222 740.319 241.594 740.441 241.932L742.213 246.862C742.317 247.136 742.332 247.437 742.256 247.721C742.18 248.005 742.017 248.257 741.789 248.442C740.412 249.57 739.16 250.844 738.053 252.241C737.948 252.355 737.863 252.469 737.771 252.589C737.742 252.63 737.709 252.669 737.673 252.704C737.482 252.908 737.235 253.05 736.963 253.113C736.692 253.176 736.408 253.157 736.148 253.059L730.365 250.946C730.301 250.92 730.235 250.901 730.167 250.889C729.86 250.828 729.54 250.87 729.259 251.009C728.977 251.148 728.748 251.376 728.607 251.658L725.91 257.195C725.753 257.518 725.722 257.888 725.823 258.233C725.923 258.578 726.148 258.873 726.453 259.059L732.236 262.567C732.476 262.711 732.668 262.924 732.785 263.18C732.902 263.435 732.94 263.72 732.892 263.998C732.697 265.273 732.597 266.562 732.595 267.852C732.595 268.551 732.624 269.241 732.68 269.924C732.702 270.195 732.648 270.467 732.525 270.71C732.402 270.952 732.214 271.155 731.982 271.296L726.418 274.682C726.12 274.864 725.901 275.15 725.803 275.486C725.705 275.822 725.736 276.183 725.889 276.498L728.593 282.025C728.75 282.35 729.021 282.605 729.354 282.74C729.686 282.875 730.056 282.881 730.393 282.757L735.025 281.065C735.324 280.954 735.652 280.948 735.955 281.047C736.258 281.147 736.519 281.346 736.697 281.612C738.119 283.779 739.864 285.711 741.873 287.339C742.106 287.527 742.275 287.784 742.355 288.074C742.435 288.364 742.422 288.672 742.318 288.954L740.426 294.205C740.304 294.546 740.311 294.919 740.445 295.255C740.579 295.591 740.83 295.866 741.152 296.026L746.625 298.738C746.94 298.894 747.303 298.926 747.64 298.825C747.977 298.725 748.265 298.5 748.445 298.196L748.594 297.955L751.496 293.11C751.646 292.858 751.868 292.659 752.133 292.538C752.399 292.417 752.694 292.381 752.981 292.433C754.426 292.694 755.891 292.825 757.358 292.825C758.156 292.825 758.94 292.782 759.723 292.712C759.988 292.684 760.255 292.732 760.494 292.852C760.733 292.971 760.933 293.157 761.071 293.387L763.924 298.16C764.111 298.475 764.408 298.707 764.757 298.812C765.106 298.916 765.481 298.884 765.808 298.723L771.273 296.013C771.422 295.935 771.558 295.834 771.676 295.714C771.857 295.519 771.982 295.278 772.037 295.017C772.091 294.756 772.074 294.485 771.986 294.234L770.56 290.299C770.478 290.063 770.457 289.809 770.501 289.562C770.544 289.316 770.65 289.085 770.808 288.891C770.895 288.788 770.995 288.696 771.105 288.62C773.857 286.77 776.214 284.385 778.039 281.605C778.19 281.375 778.404 281.195 778.655 281.086C778.905 280.978 779.182 280.945 779.451 280.993C779.53 281.008 779.608 281.03 779.683 281.057L784.365 282.772C784.694 282.892 785.054 282.886 785.378 282.754C785.702 282.623 785.967 282.377 786.122 282.061L786.186 281.933L788.82 276.545C788.975 276.222 789.007 275.853 788.908 275.508C788.81 275.163 788.589 274.866 788.287 274.675ZM744.531 264.037C744.812 263.034 745.186 262.059 745.646 261.126C746.564 259.27 748.83 256.972 750.68 256.054C750.878 255.954 751.075 255.861 751.274 255.769C763.376 250.292 775.047 262.265 769.179 274.465C768.41 276.059 766.708 277.931 765.049 279.091C764.69 279.342 764.312 279.565 763.919 279.76C762.347 280.542 760.654 281.048 758.913 281.256C749.58 282.307 741.902 273.656 744.531 264.037Z" fill="#EBF2F9"/>
<path d="M319.135 52.9627L310.091 48.7607C309.724 48.5866 309.411 48.3142 309.188 47.9737C308.966 47.6331 308.842 47.2377 308.831 46.8311C308.803 45.7749 308.732 44.7095 308.615 43.6419C308.411 41.6907 308.051 39.7589 307.54 37.8647C307.424 37.4435 307.438 36.9973 307.579 36.584C307.721 36.1707 307.983 35.8092 308.332 35.5464L316.62 29.2388C317.051 28.9131 317.343 28.4369 317.438 27.9053C317.532 27.3737 317.422 26.8261 317.13 26.3719L312.034 18.3314C311.755 17.894 311.325 17.5743 310.825 17.433C310.326 17.2918 309.792 17.339 309.325 17.5655L300.707 21.7835C300.295 21.991 299.826 22.0586 299.372 21.9761C298.918 21.8936 298.503 21.6655 298.19 21.3263C295.363 18.3957 292.089 15.9311 288.49 14.0241C288.065 13.7935 287.729 13.4294 287.533 12.9884C287.337 12.5473 287.292 12.054 287.405 11.5848L288.803 5.92185C288.929 5.39805 288.858 4.84653 288.606 4.37086C288.353 3.89519 287.935 3.52807 287.43 3.33844L278.533 0.137758C278.358 0.0685282 278.173 0.025395 277.984 0.00973039C277.542 -0.0326357 277.098 0.0640358 276.714 0.286218C276.33 0.5084 276.025 0.844976 275.842 1.24885L272.7 7.99543L271.938 9.6415C270.141 9.5813 268.342 9.64853 266.554 9.84268C264.168 10.0977 261.811 10.5746 259.513 11.267C259.096 11.3969 258.65 11.3953 258.234 11.2623C257.818 11.1293 257.454 10.8715 257.19 10.524L252.11 3.84826C251.776 3.40885 251.288 3.1111 250.745 3.01411C250.201 2.91713 249.64 3.028 249.174 3.32472L243.021 7.21126L241.259 8.3315C240.793 8.62427 240.452 9.07886 240.302 9.60774C240.152 10.1366 240.202 10.7024 240.444 11.1961L243.971 18.3908C244.178 18.7923 244.251 19.2494 244.179 19.6952C244.107 20.1411 243.895 20.5524 243.573 20.869C241.654 22.8156 239.949 24.9616 238.488 27.2704C238.353 27.4557 238.228 27.648 238.113 27.8465C238.075 27.9142 238.031 27.9778 237.98 28.0363C237.721 28.3806 237.364 28.64 236.957 28.7813C236.549 28.9226 236.109 28.9394 235.692 28.8296L226.483 26.58C226.382 26.5516 226.278 26.5339 226.172 26.5274C225.691 26.4851 225.209 26.6015 224.801 26.8588C224.392 27.116 224.079 27.4998 223.909 27.9517L220.689 36.8061C220.502 37.3235 220.515 37.8925 220.727 38.4005C220.939 38.9085 221.334 39.3186 221.834 39.5496L231.271 43.9185C231.661 44.0958 231.989 44.3875 232.211 44.7548C232.432 45.1222 232.537 45.548 232.511 45.9761C232.425 47.9465 232.489 49.9207 232.703 51.8814C232.818 52.9391 232.975 53.9824 233.174 55.0112C233.252 55.4203 233.215 55.843 233.066 56.2319C232.916 56.6208 232.662 56.9605 232.33 57.2128L224.365 63.2804C223.939 63.6042 223.65 64.0757 223.555 64.6017C223.46 65.1277 223.566 65.6702 223.852 66.1221L228.907 74.0712C229.202 74.5379 229.659 74.8791 230.19 75.0294C230.721 75.1796 231.29 75.1282 231.785 74.8851L238.602 71.545C239.041 71.3231 239.542 71.2552 240.025 71.3523C240.507 71.4493 240.943 71.7056 241.261 72.0799C243.795 75.1355 246.788 77.7801 250.133 79.9193C250.524 80.1639 250.828 80.526 251 80.9536C251.172 81.3811 251.204 81.8522 251.092 82.2993L249.065 90.5982C248.934 91.1356 249.006 91.7023 249.267 92.1901C249.528 92.678 249.959 93.0528 250.479 93.2433L259.307 96.444C259.816 96.6299 260.377 96.6176 260.878 96.4097C261.378 96.2017 261.782 95.8133 262.009 95.3215L262.195 94.9282L265.842 87.0889C266.031 86.6804 266.34 86.3394 266.728 86.1117C267.116 85.8841 267.565 85.7807 268.014 85.8154C270.271 85.9717 272.536 85.9273 274.785 85.6828C276.007 85.5502 277.202 85.3559 278.389 85.1182C278.791 85.032 279.209 85.0616 279.595 85.2037C279.981 85.3458 280.318 85.5944 280.568 85.9206L285.723 92.6992C286.062 93.1445 286.555 93.4469 287.106 93.5467C287.656 93.6466 288.224 93.5367 288.698 93.2387L296.625 88.2091C296.84 88.0666 297.032 87.8906 297.192 87.6878C297.437 87.3619 297.588 86.9752 297.628 86.5698C297.668 86.1644 297.597 85.7556 297.421 85.3879L294.602 79.661C294.436 79.3157 294.362 78.9334 294.388 78.5512C294.414 78.1691 294.538 77.8001 294.748 77.48C294.864 77.3103 295.002 77.1565 295.158 77.0227C299.067 73.7571 302.283 69.745 304.62 65.2213C304.812 64.8477 305.11 64.5384 305.476 64.3316C305.841 64.1248 306.26 64.0296 306.68 64.0577C306.804 64.0668 306.927 64.0859 307.048 64.1148L314.501 65.9438C315.024 66.0712 315.576 66.0018 316.051 65.7488C316.526 65.4958 316.892 65.077 317.078 64.5721L317.153 64.3686L320.3 55.7405C320.488 55.2158 320.473 54.6396 320.258 54.1254C320.042 53.6112 319.641 53.1963 319.135 52.9627ZM250.357 44.0671C250.623 42.4974 251.034 40.9559 251.586 39.4627C252.687 36.4907 255.778 32.6247 258.451 30.9237C258.737 30.7386 259.026 30.5648 259.312 30.3934C276.948 20.0643 296.799 36.3146 289.822 55.8182C288.906 58.3673 286.618 61.4925 284.256 63.5273C283.747 63.9689 283.206 64.3716 282.636 64.7321C280.357 66.1801 277.848 67.2285 275.215 67.8322C261.101 70.9689 247.92 59.1149 250.357 44.0671Z" fill="#EBF2F9"/>
<path fill-rule="evenodd" clip-rule="evenodd" d="M381.475 322.027L381.475 325.976C381.475 325.976 374.364 325.321 371.742 325.321C369.121 325.321 370.334 325.163 367.713 325.976C365.747 326.632 365.355 327.287 364.044 327.489C363.149 327.626 362.012 328.066 361.423 327.847C360.833 327.629 360.803 327.861 359.849 327.288C358.896 326.714 358.181 326.168 358.244 325.364C358.307 324.561 358.539 324.01 358.539 324.01C358.539 324.01 358.539 324.01 357.98 323.751C357.639 323.499 357.394 323.392 357.289 322.976C357.183 322.56 357.223 322.119 357.401 321.728C357.58 321.375 357.698 321.259 357.98 321.259C357.98 321.259 356.651 320.589 356.573 320.077C356.494 319.564 356.442 319.378 356.805 319.024C357.168 318.67 357.477 318.725 357.477 318.725C357.477 318.725 355.987 318.441 356.395 317.101C356.804 315.76 357.369 315.748 357.499 315.682C358.249 315.406 359.056 315.33 359.843 315.462C360.939 315.67 360.872 315.796 361.821 315.726C362.771 315.656 364.104 315.503 364.104 315.503C364.104 315.503 362.218 313.758 361.437 312.114C360.657 310.47 360.62 308.42 361.159 307.622C361.698 306.824 362.395 307.623 362.686 307.975C362.978 308.327 363.306 309.709 364.436 310.899C365.567 312.09 367.715 314.623 368.466 315.462C369.217 316.301 369.9 318.075 372.398 319.421C374.742 320.684 381.475 322.027 381.475 322.027Z" fill="#FFCFAE"/>
<path fill-rule="evenodd" clip-rule="evenodd" d="M369.606 322.515C368.578 322.551 367.043 321.705 366.065 320.254C365.088 318.802 364.986 317.449 364.958 316.77C364.958 316.77 365.071 315.554 363.837 314.179C362.603 312.805 362.064 312.102 361.631 311.158C361.27 310.369 361.349 308.079 361.386 307.332C361.302 307.422 361.226 307.519 361.159 307.622C360.619 308.42 360.655 310.467 361.437 312.114C362.219 313.76 364.108 315.495 364.108 315.495C364.108 315.495 364.547 316.704 364.638 317.324C364.729 317.943 364.631 320.059 365.598 321.407C366.565 322.754 368.49 323.997 368.636 324.085C368.782 324.172 368.03 323.511 367.809 323.354C367.589 323.198 370.676 322.579 370.676 322.579C370.676 322.579 370.633 322.489 369.606 322.515Z" fill="#EBBE9F"/>
<path fill-rule="evenodd" clip-rule="evenodd" d="M372.283 319.928C373.272 321.165 371.996 322.171 371.635 322.478C371.274 322.784 373.931 321.263 373.931 321.263L381.341 322.102L381.277 322.026C381.277 322.026 376.273 321.328 373.931 320.067C370.972 319.314 369.218 316.328 368.465 315.487C367.879 314.832 365.382 311.895 364.004 310.361C363.982 310.336 363.148 308.955 363.123 308.932C363.164 309.093 363.62 310.679 363.693 310.829C364 311.451 364.217 311.509 364.098 311.683C363.978 311.857 364.598 311.819 364.598 311.819C364.572 311.963 364.523 312.102 364.454 312.231C364.369 312.341 364.621 312.383 365.003 312.288C365.385 312.193 366.114 314.101 366.848 314.654C367.581 315.208 367.749 315.351 368.465 316.642C369.182 317.932 371.296 318.693 372.283 319.928Z" fill="#F5C5A5"/>
<path d="M364.436 323.255C364.471 323.165 364.909 322.793 364.927 322.699C365.092 322.699 365.092 322.044 365.058 321.583C364.844 321.386 364.436 320.733 364.009 320.803C364.436 320.733 364.385 320.3 364.408 319.91C364.354 319.482 363.966 318.912 363.781 318.766C364.292 318.607 364.537 317.945 364.541 317.643C364.546 317.342 363.597 316.748 362.999 316.522C362.402 316.296 360.21 316.138 360.125 316.06C360.52 316.099 363.62 316.365 364.022 316.65C364.127 316.763 364.672 316.763 364.696 316.905C364.793 317.912 364.976 320.803 365.841 321.798C366.818 322.921 368.759 323.969 368.898 324.042C368.247 324.259 367.616 324.515 367.01 324.808C365.927 325.32 365.447 326.456 364.541 326.812C362.575 327.468 361.27 326.904 361.16 326.633C361.664 326.382 363.386 325.919 364.009 325.222C365.092 324.01 364.585 323.394 364.436 323.255Z" fill="#F5C5A5"/>
<path d="M357.228 318.765C359.446 318.946 363.402 319.098 363.909 318.695C364.542 318.19 365.119 316.755 362.452 316.446L359.785 316.136" stroke="#EBBE9F" stroke-width="0.1"/>
<path d="M361.157 326.632C362.686 325.977 365.481 324.928 364.433 323.355C364.215 323.136 362.992 322.962 359.847 324.01" stroke="#EBBE9F" stroke-width="0.1"/>
<path d="M364.237 323.258C365.45 322.769 365.45 321.458 364.14 320.803" stroke="#EBBE9F" stroke-width="0.1"/>
<path d="M357.883 321.214C359.672 321.251 362.637 321.326 363.78 320.935C364.959 320.531 364.37 319.196 363.78 318.732" stroke="#EBBE9F" stroke-width="0.1"/>
<g filter="url(#filter3_f)">
<path d="M409.9 383.802L386.18 378.391C394.417 420.827 398.714 444.693 392.838 490.368L419.055 474.55C398.648 460.286 405.869 428.81 409.9 383.802Z" fill="url(#paint3_linear)"/>
</g>
<g filter="url(#filter4_f)">
<path d="M400.328 384.219L380.77 368.817L336.243 442.497L333.33 464.56C333.33 464.56 368.944 416.72 400.328 384.219Z" fill="url(#paint4_linear)"/>
</g>
<g filter="url(#filter5_f)">
<ellipse cx="645.017" cy="521.172" rx="57.4272" ry="5.8278" fill="#0A3D76" fill-opacity="0.15"/>
</g>
<g filter="url(#filter6_f)">
<path d="M91.1397 480.794L54.9355 459.148L82.8169 451.322L112.779 442.913L176.864 465.392L168.125 471.636L82.8169 451.322L120.269 480.794H91.1397Z" fill="url(#paint5_linear)"/>
</g>
<path d="M430.938 277.726C451.885 282.074 458.28 284.108 470.644 272.855C470.644 272.855 471.501 243.756 462.788 228.167C454.076 212.578 445.665 209.955 433.907 214.172C433.907 214.172 431.148 211.847 425.937 215.63C404.619 231.099 418.92 260.115 430.938 277.726Z" fill="#412716"/>
<path d="M457.533 219.892C451.245 224.371 445.644 222.014 438.298 223.276C427.855 225.186 427.866 237.094 420.215 233.544C417.34 265.797 417.104 279.985 427.404 303.286C448.463 313.915 455.049 323.711 465.468 305.888C465.468 305.888 477.167 265.154 466.425 236.826C465.579 234.414 458.42 221.902 457.533 219.892Z" fill="#3C2415"/>
<path d="M432.979 310.812C432.979 310.812 433.855 287.251 436.064 280.388C435.768 276.301 435.58 270.993 435.008 267.712L451.117 259.151C451.228 258.817 449.726 275.83 453.579 285.329C456.753 284.694 443.106 308.04 443.106 308.04L432.979 310.812Z" fill="#FFCFAE"/>
<path d="M449.771 262.648C440.142 267.611 445.829 264.53 439.885 267.508L435.186 270.364C435.162 271.332 435.298 271.921 435.403 272.585C435.547 273.498 436.141 274.343 437.058 274.357C441.001 274.417 444.534 270.942 448.758 264.128L449.771 262.648Z" fill="#F5B994"/>
<path d="M420.199 255.539C423.138 263.296 425.333 273.079 433.95 270.407C442.567 267.734 448.723 264.326 450.658 261.282C453.17 257.33 452.986 255.202 453.229 249.178C453.534 241.599 453.628 235.857 452.866 233.994C446.046 220.397 440.521 221.859 435.09 222.606C424.008 226.756 418.529 230.68 418.577 242.705C418.583 244.09 418.418 250.839 420.199 255.539Z" fill="#FFCFAE"/>
<path d="M440.98 240.99C439.958 240.764 439.639 240.911 438.157 241.082C437.484 241.233 436.83 241.462 436.211 241.765C436.211 241.765 434.822 243.301 434.656 243.498C434.367 243.857 434.506 244.208 434.979 244.213C435.453 244.218 435.963 244.026 436.363 244.053C439.439 244.156 440.104 244.253 441.8 243.425C442.48 243.114 443.123 242.732 443.715 242.287C442.928 241.671 441.995 241.228 440.98 240.99Z" fill="white"/>
<path d="M437.786 241.597C436.815 241.772 436.105 242.632 436.2 243.519C436.225 243.75 436.366 244.229 436.79 244.138C436.956 244.103 438.541 244.16 439.299 244.098C439.411 243.979 439.516 243.825 439.61 243.63C439.704 243.394 439.743 243.141 439.716 242.885C439.621 241.998 438.757 241.422 437.786 241.597Z" fill="#28160D" stroke="#1C1105" stroke-width="0.2" stroke-miterlimit="10"/>
<path d="M438.089 244.091C438.608 243.998 438.988 243.537 438.937 243.063C438.887 242.589 438.425 242.281 437.906 242.375C437.387 242.469 437.007 242.929 437.057 243.403C437.108 243.877 437.57 244.185 438.089 244.091Z" fill="black"/>
<path opacity="0.77" d="M438.832 243.318C439.111 243.267 439.315 243.02 439.287 242.764C439.26 242.509 439.012 242.343 438.733 242.394C438.455 242.444 438.251 242.692 438.278 242.947C438.305 243.202 438.553 243.368 438.832 243.318Z" fill="white"/>
<path d="M434.545 243.874L436.185 241.92C436.334 241.744 436.531 241.607 436.754 241.524L437.468 241.27C437.832 241.142 438.214 241.068 438.597 241.051L440.466 240.973C440.848 240.957 441.223 241.021 441.563 241.16L443.556 241.996L444.18 241.956L442.287 240.692C441.879 240.522 441.427 240.443 440.968 240.463L439.103 240.54C438.663 240.558 438.225 240.645 437.808 240.797L437.099 241.05C436.634 241.173 436.194 241.378 435.803 241.651L433.874 244.023L434.545 243.874Z" fill="#D3A688"/>
<path opacity="0.5" d="M434.375 243.978L436.013 242.033C436.19 241.824 436.425 241.661 436.691 241.563L437.399 241.311C437.801 241.168 438.222 241.087 438.645 241.07L440.514 240.993C440.935 240.974 441.349 241.045 441.721 241.203L443.683 242.034" stroke="#0A0001" stroke-width="0.3" stroke-miterlimit="10"/>
<path d="M434.693 244.271L435.464 244.187C435.868 244.142 436.274 244.134 436.675 244.163C437.643 244.183 439.646 244.386 441.341 243.772C441.447 243.73 442.193 243.298 442.292 243.24L443.244 242.709" stroke="#472A22" stroke-width="0.2" stroke-miterlimit="10"/>
<path d="M422.066 242.925C422.863 242.511 423.143 242.559 424.374 242.364C424.943 242.335 425.509 242.375 426.057 242.482C426.057 242.482 427.413 243.416 427.577 243.54C427.866 243.766 427.805 244.082 427.421 244.192C427.037 244.303 426.594 244.262 426.272 244.374C423.788 245.149 423.262 245.378 421.761 245.087C421.162 244.987 420.583 244.821 420.036 244.593C420.584 243.916 421.277 243.346 422.066 242.925Z" fill="white"/>
<path d="M427.704 243.834L426.078 242.611C425.931 242.502 425.75 242.434 425.556 242.417L424.939 242.369C424.623 242.346 424.302 242.371 423.989 242.442L422.458 242.796C422.145 242.868 421.85 243.004 421.594 243.193L420.1 244.317L419.587 244.424L420.936 242.974C421.242 242.744 421.597 242.58 421.974 242.493L423.5 242.14C423.861 242.057 424.23 242.03 424.591 242.06L425.205 242.108C425.602 242.104 425.99 242.172 426.348 242.308L428.271 243.806L427.704 243.834Z" fill="#D3A688"/>
<path opacity="0.5" d="M427.868 243.885L426.244 242.667C426.069 242.536 425.853 242.455 425.622 242.435L425.009 242.388C424.661 242.361 424.307 242.388 423.961 242.468L422.431 242.82C422.086 242.898 421.76 243.048 421.481 243.259L420.012 244.371" stroke="#0A0001" stroke-width="0.3" stroke-miterlimit="10"/>
<path d="M422.651 242.925C421.853 243.05 421.282 243.77 421.374 244.532C421.398 244.73 421.437 244.739 421.537 244.897C422.435 245.38 423.222 245.228 424.224 244.952C424.297 244.753 424.287 244.296 424.261 244.077C424.169 243.315 423.448 242.799 422.651 242.925Z" fill="#28160D" stroke="#1C1105" stroke-width="0.2" stroke-miterlimit="10"/>
<path d="M422.688 245.086C423.119 245.01 423.435 244.626 423.392 244.23C423.349 243.833 422.964 243.573 422.533 243.649C422.101 243.725 421.786 244.109 421.829 244.506C421.871 244.903 422.256 245.162 422.688 245.086Z" fill="black"/>
<path opacity="0.77" d="M423.307 244.439C423.539 244.398 423.708 244.192 423.685 243.978C423.662 243.765 423.455 243.625 423.223 243.666C422.992 243.707 422.822 243.913 422.845 244.127C422.869 244.34 423.075 244.48 423.307 244.439Z" fill="white"/>
<path d="M427.7 244.233L427.06 244.329C426.724 244.379 426.393 244.459 426.072 244.568C425.29 244.791 423.695 245.384 422.221 245.243C422.129 245.232 421.455 245.037 421.365 245.01L420.508 244.778" stroke="#472A22" stroke-width="0.2" stroke-miterlimit="10"/>
<path d="M452.527 243.819C454.044 240.269 456.432 238.882 457.872 240.752C459.312 242.622 458.649 246.83 457.123 250.396C455.597 253.961 453.211 255.219 452.395 253.628C450.945 251.773 451.021 247.368 452.527 243.819Z" fill="#FFCFAE"/>
<path d="M453.925 246.267C454.947 244.093 456.28 243.176 456.893 244.218C457.506 245.259 457.145 247.877 456.113 250.036C455.082 252.195 453.747 253.142 453.106 252.085C452.464 251.029 452.883 248.426 453.925 246.267Z" fill="#F5B994"/>
<path d="M453.049 250.114C453.461 248.793 454.264 248.073 454.848 248.531C455.432 248.99 455.554 250.43 455.152 251.749C454.749 253.067 453.934 253.779 453.352 253.331C452.77 252.883 452.644 251.466 453.049 250.114Z" fill="#FFCFAE"/>
<path d="M418.224 242.532C419.21 240.89 420.747 236.818 426.696 239.331C427.071 239.49 427.254 239.552 427.465 240.244C422.095 239.17 421.632 239.043 418.224 242.532Z" fill="#553723"/>
<path d="M446.285 238.863C445.037 237.57 441.984 235.526 435.572 238.146C435.148 238.372 434.94 238.468 434.74 239.148C440.771 237.505 441.557 237.29 446.285 238.863Z" fill="#553723"/>
<path d="M429.499 246.066C429.863 249.75 428.649 251.718 427.478 255.138C427.498 255.334 427.56 255.525 427.661 255.697C428.036 256.364 429.496 256.321 431.139 255.697C431.756 255.537 432.087 255.606 432.659 255.807" stroke="#D3A688" stroke-width="0.5" stroke-miterlimit="10"/>
<path d="M425.084 234.8C423.114 240.895 418.216 244.603 417.099 244.658L418.144 231.372L433.894 217.612L454.355 225.848L452.93 242.913C433.437 228.167 439.87 220.365 434.686 222.122C429.502 223.879 427.548 227.182 425.084 234.8Z" fill="#412616"/>
<g clip-path="url(#clip0)">
<g style="mix-blend-mode:multiply" opacity="0.8">
<path d="M427.072 261.207C427.068 261.206 427.064 261.206 427.06 261.205C427.064 261.205 427.068 261.206 427.072 261.207C427.433 261.264 427.803 261.209 428.138 261.048C429.611 260.395 431.198 260.107 432.781 260.205C434.258 260.189 435.73 259.979 437.164 259.581C437.175 259.444 437.214 259.31 437.277 259.19C437.34 259.07 437.427 258.966 437.531 258.886C437.62 259.422 437.831 259.924 438.145 260.348C437.887 260.548 437.412 260.184 437.412 260.184C437.05 261.095 436.446 261.871 435.678 262.412C434.909 262.953 434.011 263.235 433.098 263.222C431.275 263.493 429.684 263.276 428.219 262.086C428.032 262.153 427.288 261.257 427.072 261.207Z" fill="#FFC6C6"/>
</g>
<path d="M428.047 261.524C429.194 260.958 430.443 260.682 431.699 260.718C433.524 260.797 435.35 260.532 437.096 259.934C436.553 260.865 435.797 261.628 434.903 262.15C434.009 262.672 433.006 262.935 431.994 262.912C431.28 263.007 430.557 262.931 429.876 262.692C429.194 262.452 428.57 262.053 428.047 261.524Z" fill="#FDFCFC"/>
<path d="M428.048 261.525L428.572 261.267C428.754 261.182 428.939 261.109 429.128 261.046L429.681 260.879C429.868 260.825 430.057 260.781 430.248 260.749L430.83 260.655C431.01 260.664 431.208 260.675 431.405 260.685L432.561 260.64C432.939 260.66 433.317 260.68 433.702 260.557L434.331 260.502L434.849 260.368L435.398 260.272L435.998 260.144C436.185 260.111 436.37 260.061 436.55 259.994C436.718 259.942 436.882 259.873 437.039 259.788L437.392 259.646L437.241 260.013C437.136 260.231 437.014 260.44 436.878 260.637L436.666 260.911L436.438 261.167L436.195 261.404L435.92 261.622C435.747 261.771 435.564 261.905 435.371 262.021C434.601 262.491 433.757 262.798 432.884 262.925C432.67 262.967 432.454 262.991 432.238 262.998L431.909 262.98L431.58 262.963C431.367 262.951 431.153 262.94 430.939 262.929L430.299 262.895C430.083 262.849 429.872 262.784 429.666 262.7C429.461 262.625 429.262 262.53 429.072 262.419C428.972 262.367 428.876 262.308 428.784 262.243L428.518 261.978L428.267 261.751C428.19 261.68 428.117 261.604 428.048 261.525ZM428.048 261.525C428.122 261.605 428.2 261.681 428.283 261.751L428.551 261.98L428.823 262.137L429.111 262.296C429.303 262.396 429.503 262.478 429.708 262.542C429.921 262.553 430.113 262.67 430.325 262.7L430.95 262.733C431.163 262.744 431.377 262.756 431.591 262.767L431.919 262.784L432.215 262.8C432.429 262.811 432.647 262.734 432.846 262.709C433.681 262.566 434.485 262.257 435.218 261.799L435.749 261.416C435.823 261.338 435.888 261.252 435.944 261.159L436.187 260.94L436.397 260.701C436.488 260.62 436.57 260.529 436.642 260.428C436.766 260.254 436.875 260.069 436.968 259.874L437.171 260.081C436.985 260.167 436.794 260.24 436.599 260.301L435.982 260.446L435.449 260.561L434.883 260.656L434.319 260.733L433.739 260.791C433.361 260.771 432.967 260.75 432.583 260.837C432.2 260.924 431.811 260.796 431.433 260.776L430.858 260.745L430.294 260.805L429.729 260.9L429.162 261.03L428.608 261.215L428.048 261.525Z" fill="#CB7A63"/>
<g style="mix-blend-mode:multiply" opacity="0.4">
<path d="M437.096 259.934C435.35 260.532 433.524 260.797 431.699 260.718C430.443 260.682 429.194 260.958 428.047 261.524C428.43 261.95 428.907 262.264 429.433 262.437C428.916 261.927 428.801 261.296 430.159 261.172C431.517 261.048 433.687 261.145 434.867 260.958C436.046 260.771 435.215 262.459 431.584 262.873L431.946 262.892C432.964 262.926 433.975 262.671 434.879 262.152C435.782 261.633 436.547 260.869 437.096 259.934Z" fill="#CEC0B6"/>
</g>
</g>
<path d="M421.076 472.999C421.333 473.521 421.434 474.106 421.368 474.684C421.301 475.262 421.07 475.808 420.701 476.258C419.357 478.115 416.218 479.718 412.68 481.208C412.239 481.401 411.806 481.57 411.464 481.742L411.191 481.875C411.115 481.911 411.047 481.949 410.977 481.979C407.58 483.702 408.432 484.543 402.174 488.18C395.041 492.326 391.23 491.345 390.301 490.513C389.517 489.81 392.237 487.304 395.263 484.481L395.704 484.072C396.107 483.699 396.51 483.314 396.911 482.935C400.492 479.521 400.418 477.415 401.605 471.15C402.57 466.034 401.832 441.208 401.832 441.208L412.882 442.415C412.882 442.415 410.86 461.45 413.554 465.242C414.996 467.265 417.083 467.883 418.563 469.501L418.851 469.842C419.731 470.79 420.479 471.851 421.076 472.999Z" fill="#FFCFAE"/>
<path d="M421.077 472.999C421.334 473.521 421.435 474.106 421.369 474.684C421.302 475.262 421.071 475.808 420.702 476.258C419.19 478.067 416.115 479.677 412.676 481.184C412.234 481.384 411.828 481.565 411.465 481.742L411.192 481.875C411.116 481.911 411.048 481.949 410.977 481.979C407.581 483.702 408.433 484.543 402.174 488.18C395.042 492.326 391.23 491.345 390.302 490.513C389.518 489.81 392.238 487.304 395.264 484.482C399.538 484.083 403.631 482.562 407.127 480.071C411.647 476.794 415.408 471.998 418.569 469.484L418.857 469.824C419.736 470.778 420.483 471.846 421.077 472.999Z" fill="#A62E41"/>
<path d="M342.49 465.263C341.812 468.643 336.993 468.08 331.608 466.744C326.223 465.407 327.504 466.995 319.838 466.144C312.173 465.292 309.845 462.441 309.619 461.297C309.412 460.286 313.199 459.93 317.259 459.445C317.769 459.39 318.284 459.327 318.798 459.264C323.384 458.686 326.741 455.728 330.909 453.295C334.854 450.992 340.743 441.608 340.743 441.608L351.25 442.442C351.25 442.442 345.736 450.821 343.604 454.465C342.349 456.609 342.416 459.442 342.571 461.634C342.708 462.841 342.681 464.062 342.49 465.263Z" fill="#FFCFAE"/>
<path d="M331.608 466.744C326.223 465.429 327.504 466.995 319.838 466.144C312.173 465.292 309.845 462.441 309.619 461.297C309.412 460.286 313.199 459.93 317.259 459.445L317.299 459.523C320.582 461.632 324.374 462.812 328.273 462.937C333.455 463.063 338.981 461.574 342.571 461.634C342.705 462.83 342.678 464.04 342.49 465.229C341.827 468.628 336.993 468.066 331.608 466.744Z" fill="#A62E41"/>
<path d="M394.766 387.511L400.313 454.615C402.562 455.083 404.874 455.175 407.153 454.887C410.311 454.406 414.104 452.563 414.104 452.563C414.104 452.563 418.869 392.454 410.246 379.051C401.622 365.648 394.766 387.511 394.766 387.511Z" fill="url(#paint6_linear)"/>
<path d="M467.187 372.484C467.187 372.484 415.262 353.539 400.746 358.223C386.23 362.907 334.651 447.44 334.651 447.44C334.651 447.44 335.636 448.751 338.319 449.758C340.818 450.695 346.862 450.636 346.862 450.636C346.862 450.636 383.164 415.933 387.846 406.094C392.528 396.256 399.809 383.694 404.491 384.635C414.062 387.965 453.596 402.764 471.074 387.778C483.717 374.655 479.327 367.619 479.327 367.619L467.187 372.484Z" fill="url(#paint7_linear)"/>
<path d="M471.86 334.983C473.822 326.744 474.793 310.383 467.82 297.146C461.491 285.152 451.691 276.282 451.099 276.634C452.347 285.802 442.423 303.031 440.027 302.869C435.795 302.582 436.134 277.439 436.134 277.439C436.134 277.439 425.16 278.407 420.885 285.802C414.963 296.021 410.178 329.546 403.823 329.094C400.907 328.883 373.445 319.52 373.445 319.52C373.445 319.52 371.858 318.536 372.795 324.157C372.795 324.157 379.501 328.792 391.755 334.983C398.236 338.26 406.063 342.215 408.817 341.582C414.398 340.267 417.847 332.812 422.558 325.191L427.127 314.941C433.138 349.007 426.57 358.378 430.708 361.97C435.079 365.761 434.195 361.017 447.934 366.974C456.943 370.885 464.902 375.984 473.319 376.965C477.734 377.483 478.904 377.036 479.977 374.051C483.104 365.383 468.118 350.691 471.86 334.983Z" fill="#699DEE"/>
<path d="M445.021 359.877C460.178 356.333 468.702 354.259 487.052 343.484L475.316 334.742C474.058 335.99 447.156 348.869 445.491 351.575C443.825 354.282 445.021 359.877 445.021 359.877Z" fill="#4A75CB"/>
<path d="M480.168 373.178C479.608 376.52 477.892 377.378 475.592 376.797C472.556 373.958 469.99 364.714 466.495 355.972C463.998 349.728 462.107 352.659 460.481 339.137C459.174 328.28 471.28 308.091 473.222 303.701C476.855 318.521 474.244 315.707 473.222 324.931C471.276 342.516 481.795 363.474 480.168 373.178Z" fill="#4A75CB"/>
<path d="M444.816 353.091L444.377 351.835C442.656 352.435 440.136 352.106 439.598 352.138L433.754 352.628C432.399 352.711 431.144 353.37 430.307 354.439L422.797 364.032C423.152 365.103 424.554 365.901 427.498 362.04L424.243 365.82C424.359 366.705 425.24 367.205 427.683 364.492C426.981 365.489 426.509 366.237 426.587 366.343L426.593 366.35C426.847 366.694 427.809 368.568 434.953 359.74C435.514 359.385 435.844 359.504 433.255 365.891C433.246 367.221 434.323 368.655 438.124 360.682C439.972 360.536 443.634 359.139 445.083 357.207L446.308 356.107C445.095 353.372 445.215 354.043 444.816 353.091Z" fill="#FFCFAE"/>
<path d="M427.498 362.04C424.554 365.901 423.152 365.103 422.797 364.032L430.307 354.439C431.144 353.37 432.399 352.711 433.754 352.628L439.598 352.138C440.136 352.106 442.656 352.435 444.377 351.835L444.816 353.091C445.215 354.043 445.095 353.372 446.308 356.107L445.083 357.207C443.634 359.139 439.972 360.536 438.124 360.682C434.323 368.655 433.246 367.221 433.255 365.891C435.844 359.504 435.514 359.385 434.953 359.74C427.809 368.568 426.847 366.694 426.593 366.35L426.587 366.343C426.509 366.237 426.981 365.489 427.683 364.492M427.498 362.04C427.996 361.387 429.785 360.507 430.373 359.566L427.498 362.04ZM427.498 362.04L424.243 365.82C424.359 366.705 425.24 367.205 427.683 364.492M427.683 364.492C428.649 363.42 431.249 362.522 432.751 360.272C431.742 361.561 428.751 362.977 427.683 364.492Z" stroke="#F5C5A5" stroke-width="0.2"/>
<path d="M426.897 315.352C423.546 323.661 417.149 337.903 411.872 340.146C409.268 341.252 403.109 339.987 396.166 337.857C401.035 338.258 405.556 337.446 409.882 336.246C414.57 334.965 414.95 328.877 420.975 318.806C424.886 312.29 426.333 313.518 426.897 315.352Z" fill="#4A75CB"/>
<path d="M438.337 359.064C438.765 357.922 443.151 357.32 445.291 357.161C444.435 359.064 439.942 360.174 437.802 360.491L438.337 359.064Z" fill="#F5C5A5"/>
<path d="M443.608 353.415C440.279 353.692 433.621 354.247 433.205 355.079C433.206 354.247 434.952 353.415 443.608 353.415Z" fill="#EEBE9E"/>
<path d="M451.099 276.218C451.099 276.218 469.545 279.618 475.153 287.457C482.554 297.782 490.53 329.338 488.456 341.796C488.211 343.27 487.067 344.368 485.658 344.867L444.857 359.302C444.857 359.302 444.857 356.805 443.192 351.809C444.858 349.103 473.894 335.415 475.153 334.167C476.411 332.919 467.492 309.946 467.492 306.199C467.492 302.452 451.099 276.218 451.099 276.218Z" fill="#699DEE"/>
<path d="M140.891 301.698C143.808 298.65 143.572 296.385 143.572 296.385C143.572 296.385 103.852 273.716 100.447 271.462C98.1241 269.928 89.8957 247.888 78.2635 234.428C72.4989 227.761 70.1797 224.521 62.009 226.868L50.4591 234.624C42.3349 236.948 41.9045 244.432 48.5719 249.953C67.336 265.532 81.9231 283.026 87.7674 286.705C102.274 295.833 136.627 301.698 136.627 301.698C136.627 301.698 138.388 304.311 140.891 301.698Z" fill="#5584C0"/>
<path d="M168.083 450.406C168.083 450.406 172.63 456.983 185.185 453.736C185.185 453.736 194.13 451.86 197.125 455.732C197.479 456.19 197.211 456.816 196.668 457.015C193.339 458.233 182.663 462.189 179.365 464.002C176.401 465.629 173.312 468.195 171.128 470.178C170.718 470.549 170.236 470.833 169.713 471.013C169.189 471.192 168.635 471.262 168.083 471.22C167.531 471.177 166.994 471.022 166.504 470.765C166.014 470.508 165.582 470.153 165.234 469.723C164.55 468.883 163.77 467.883 162.911 466.734C160.515 463.491 157.304 455.098 157.304 455.098L168.083 450.406Z" fill="#233862"/>
<path d="M169.766 450.299C169.766 450.299 170.884 453.851 157.576 457.899C157.576 457.899 141.655 441.293 129.359 419.89C123.792 412.141 123.878 412.216 121.435 406.83C111.46 384.881 84.5355 351.773 67.4189 335.178L96.6098 321.362C96.6098 321.362 111.106 347.959 129.359 380.174C142.511 403.386 155.344 428.436 169.766 450.299Z" fill="#2B478B"/>
<g filter="url(#filter7_di)">
<path d="M196.894 258.802C197.441 256.035 197.776 253.229 197.897 250.411C197.92 249.784 198.13 249.178 198.5 248.671C198.869 248.165 199.382 247.78 199.971 247.566L214.023 242.461C214.749 242.199 215.352 241.674 215.712 240.991C216.072 240.307 216.163 239.513 215.968 238.765L212.427 225.537C212.235 224.82 211.785 224.199 211.163 223.793C210.541 223.387 209.791 223.226 209.058 223.34L195.452 225.444C194.802 225.543 194.137 225.432 193.554 225.128C192.971 224.825 192.499 224.343 192.208 223.754C189.597 218.516 186.17 213.728 182.054 209.568C181.567 209.073 181.259 208.429 181.179 207.739C181.098 207.048 181.251 206.351 181.611 205.757L185.949 198.58C186.348 197.919 186.489 197.134 186.345 196.375C186.201 195.617 185.783 194.938 185.169 194.469L174.383 186.231C173.765 185.759 172.992 185.536 172.218 185.607C171.444 185.677 170.724 186.036 170.202 186.612L161.254 196.442C155.554 194.457 149.569 193.418 143.533 193.364C142.908 193.36 142.299 193.166 141.788 192.806C141.277 192.446 140.888 191.938 140.674 191.351L136.572 180.014C136.304 179.265 135.766 178.644 135.063 178.274C134.36 177.904 133.543 177.812 132.775 178.015L119.788 181.497C119.024 181.701 118.363 182.181 117.931 182.844C117.499 183.507 117.327 184.306 117.449 185.088L119.207 196.464C119.306 197.102 119.204 197.756 118.914 198.334C118.625 198.912 118.163 199.386 117.592 199.689C113.828 201.677 110.307 204.096 107.101 206.898C106.598 207.333 105.969 207.597 105.306 207.654C104.643 207.71 103.979 207.555 103.409 207.212L91.778 200.176C91.1149 199.774 90.3268 199.632 89.5652 199.777C88.8036 199.921 88.1222 200.342 87.6519 200.959L79.4505 211.704C78.9702 212.331 78.7431 213.117 78.8144 213.904C78.8857 214.691 79.2501 215.423 79.8354 215.953L90.8804 226.001C91.335 226.415 91.6561 226.955 91.8026 227.553C91.9492 228.15 91.9146 228.778 91.7032 229.356C90.733 232.02 89.9704 234.756 89.4224 237.539C89.1249 239.037 88.8921 240.532 88.724 242.024C88.6582 242.622 88.4264 243.189 88.0548 243.662C87.6831 244.135 87.1865 244.494 86.6212 244.7L73.1039 249.601C72.3795 249.863 71.7798 250.387 71.4234 251.07C71.0669 251.753 70.9798 252.545 71.1792 253.289L74.6776 266.36C74.8832 267.125 75.3639 267.787 76.0276 268.22C76.6912 268.652 77.4911 268.824 78.2739 268.704L89.0534 267.036C89.7484 266.926 90.4602 267.053 91.0738 267.398C91.6875 267.742 92.1671 268.284 92.4354 268.935C94.5991 274.209 97.5677 279.115 101.235 283.478C101.664 283.985 101.924 284.614 101.977 285.277C102.03 285.939 101.875 286.601 101.532 287.171L95.1883 297.665C94.7777 298.345 94.6325 299.153 94.7807 299.933C94.9289 300.714 95.36 301.412 95.9914 301.894L106.709 310.08C107.328 310.554 108.102 310.778 108.877 310.707C109.653 310.637 110.374 310.277 110.897 309.699L119.665 300.054C120.103 299.573 120.677 299.237 121.311 299.091C121.944 298.945 122.607 298.996 123.211 299.237C126.229 300.411 129.345 301.317 132.522 301.944C134.261 302.289 135.995 302.544 137.721 302.731C138.307 302.79 138.865 303.014 139.331 303.377C139.796 303.739 140.149 304.226 140.35 304.781L144.515 316.287C144.787 317.037 145.331 317.659 146.038 318.029C146.746 318.399 147.566 318.491 148.337 318.287L161.352 314.789C162.104 314.589 162.756 314.118 163.182 313.467C163.608 312.816 163.778 312.03 163.66 311.261L162.254 302.186C162.15 301.493 162.28 300.786 162.623 300.176C162.966 299.565 163.502 299.086 164.148 298.815C170.894 296.005 177.015 291.88 182.151 286.68C182.644 286.184 183.288 285.868 183.981 285.783C184.675 285.698 185.376 285.849 185.974 286.211L195.389 291.88C196.051 292.28 196.837 292.422 197.596 292.278C198.356 292.134 199.036 291.714 199.505 291.099L207.699 280.36C208.182 279.729 208.41 278.939 208.339 278.147C208.267 277.355 207.901 276.619 207.313 276.084L196.712 266.449C196.281 266.054 195.969 265.548 195.81 264.986C195.652 264.424 195.653 263.829 195.814 263.267C196.23 261.813 196.59 260.324 196.894 258.802ZM152.291 276.595C123.044 284.261 102.052 252.704 120.577 228.619C123.359 225.003 129.258 221.046 133.67 219.855C162.984 211.874 184.163 243.301 165.946 267.446C163.057 271.267 156.918 275.379 152.291 276.595Z" fill="url(#paint8_linear)"/>
</g>
<path d="M119.852 363.405L121.101 405.865C117.184 397.363 111.913 391.279 109.449 385.884C94.982 365.689 75.5274 358.319 58.2637 341.696L94.8839 318.032C94.8839 318.032 101.442 331.126 119.852 363.405Z" fill="#233862"/>
<path d="M147.809 304.415C142.145 304.943 139.339 306.755 139.339 306.755L136.448 306.778C136.448 306.778 132.919 312.632 133.583 313.036C134.248 313.441 139.12 314.911 139.12 314.911C139.26 315.296 149.083 320.416 150.597 320.353C152.111 320.29 153.212 319.758 153.356 319.577C154.167 319.636 154.978 319.402 155.634 318.918C156.908 318.289 158.218 317.737 159.558 317.264L163.304 315.709C165.875 314.353 164.296 314.13 164.296 314.13C163.478 314.11 162.661 314.201 161.868 314.399C164.209 313.711 166.144 312.818 165.477 312.328C164.374 311.516 160.19 312.454 160.19 312.454C160.19 312.454 157.535 313.216 156.461 313.105C154.625 311.762 153.521 311.527 152.265 310.107C150.144 307.708 149.386 307.437 149.386 307.437C149.386 307.437 156.145 307.619 158.271 305.435C159.623 303.555 156.603 304.09 153.245 304.485C150.832 304.414 147.809 304.415 147.809 304.415Z" fill="#FFCFAE"/>
<g filter="url(#filter8_f)">
<path d="M149.296 314.716C150.695 315.715 154.689 317.88 155.183 318.102C155.678 318.324 157.234 318.058 158.602 317.558C160.859 316.666 164.939 315.106 164.757 314.604C164.595 314.159 165.05 313.993 163.064 314.215" stroke="#D3A688" stroke-width="0.2" stroke-linecap="round"/>
</g>
<g filter="url(#filter9_f)">
<path d="M151.168 313.239C152.566 314.239 155.356 315.622 155.85 315.845C156.345 316.067 157.901 315.8 159.268 315.3C161.526 314.408 165.18 313.424 165.582 312.56" stroke="#D3A688" stroke-width="0.2" stroke-linecap="round"/>
</g>
<g filter="url(#filter10_f)">
<path d="M157.234 318.057C155.866 318.557 154.758 319.768 153.066 319.379C152.535 319.257 148.74 317.436 147.341 316.437" stroke="#D3A688" stroke-width="0.2" stroke-linecap="round"/>
</g>
<path d="M102.79 464.143C102.79 464.143 102.492 472.357 113.61 473.582C113.61 473.582 121.08 475.149 121.1 480.99H91.0636C91.0636 480.99 90.1244 478.632 89.8954 473.582C89.7195 469.704 93.6522 459.564 93.6522 459.564L102.79 464.143Z" fill="#233862"/>
<path d="M84.0868 325.673C84.0868 325.673 95.7848 338.74 108.002 374.883C114.649 394.549 107.363 446.874 103.693 464.053C103.693 464.053 98.2095 467.025 90.9604 466.015C90.9604 466.015 87.2833 428.606 92.3343 401.262C95.1612 385.959 70.0162 370.457 57.709 342.805C49.3375 323.99 46.9901 324.31 59.5066 323.859L84.0868 325.673Z" fill="#2B478B"/>
<path d="M100.902 326.677C100.902 328.669 98.5989 329.635 98.1111 329.732C93.5213 330.572 80.7109 335.555 69.1684 336.704C59.4511 337.72 62.8409 338.845 55.7665 338.013C54.4556 337.75 52.6564 333.443 52.4374 332.185C52.1653 330.81 24.4299 263.93 45.7801 221.873C46.4737 221.109 50.3433 222.106 55.6699 223.371C60.1607 224.438 63.5744 223.649 67.8347 221.873L69.9154 224.37C73.6607 231.031 77.2968 241.476 78.6542 251.012C79.3445 255.859 80.0273 259.286 80.8304 263.549C81.1291 265.126 81.4311 266.67 81.7431 268.171C82.3471 271.115 82.9699 273.919 83.6115 276.584C85.3472 283.796 87.1792 290.005 88.9779 295.367C90.8928 301.061 92.7712 305.796 94.4472 309.76C96.6243 314.897 98.4595 318.725 99.6078 321.677C100.438 323.735 100.902 325.376 100.902 326.677Z" fill="#71A0DD"/>
<path d="M95.3004 311.788C41.7193 286.53 44.1317 247.078 44.1317 247.078C44.1317 247.078 71.0213 263.145 81.7608 267.332C82.3648 270.276 82.9876 273.08 83.6292 275.745C85.3649 282.957 83.9302 279.368 85.729 284.73C87.6439 290.424 88.6315 295.335 90.3075 299.299C92.5012 304.432 94.1521 308.856 95.3004 311.788Z" fill="#5584C0"/>
<path d="M134.785 312.749C136.498 308.28 137.281 306.255 137.281 306.255C137.281 306.255 102.298 277.727 98.7271 275.277C96.2978 273.617 85.4524 258.046 73.661 243.935C70.7883 240.508 67.6619 237.221 64.0882 233.112C60.89 229.435 59.5106 226.036 56.1815 224.37C51.4779 223.673 48.836 224.102 44.1136 225.203C40.7856 232.696 36.8175 244.695 43.6972 250.596C63.072 267.197 79.1093 286.488 85.2025 290.498C100.326 300.459 133.785 314.404 133.785 314.404C133.785 314.404 134.001 314.701 134.785 312.749Z" fill="#6B9CDB"/>
<path d="M48.9423 212.964L49.3261 222.109C49.3261 222.109 57.8486 225.203 63.4673 224.095C68.1733 221.798 68.2826 222.364 68.2826 222.364L68.4495 210.813L58.4569 208.912L48.9423 212.964Z" fill="#F9C8A3"/>
<path d="M49.49 209.942C52.3597 217.117 61.2629 220.215 68.4394 217.891L68.4394 210.534C66.0457 209.583 56.5158 212.632 54.2955 211.309L49.49 209.942Z" fill="#EAAB85"/>
<path d="M48.1421 210.871L19.5846 177.252L60.4075 167.289C60.4075 167.289 83.345 205.458 76.1942 209.198C69.0432 212.937 61.0842 213.309 61.0842 213.309C55.8446 213.488 52.9315 213.458 48.1421 210.871Z" fill="#F9C8A3"/>
<path d="M75.807 189.312L70.8273 192.336L71.6437 189.653L75.807 189.312Z" fill="#C69B7D"/>
<path d="M67.3138 179.733C70.4826 182.476 71.9219 184.256 75.9592 186.477C76.2208 186.568 76.4468 186.733 76.6095 186.952C76.7729 187.171 76.8686 187.433 76.8858 187.708C76.899 187.982 76.841 188.257 76.7171 188.508C76.5828 188.754 76.3818 188.96 76.1373 189.103C73.8454 190.318 72.8694 190.093 71.6251 191.629C70.0142 193.581 69.1593 191.753 68.8056 190.537L67.3138 179.733Z" fill="#F9C8A3"/>
<path d="M61.637 177.249C61.8743 177.107 61.9523 176.801 61.8112 176.563L61.0682 175.313C60.9229 175.069 60.6032 174.994 60.3651 175.15L55.8029 178.131C55.1683 178.543 54.6638 179.11 54.3755 179.735L53.5322 181.502C53.3024 181.983 53.8855 182.442 54.2991 182.105L56.5012 180.311C56.5202 180.295 56.5403 180.281 56.5613 180.269L61.637 177.249Z" fill="#202020"/>
<path d="M75.7411 198.145C75.7411 198.145 74.0775 199.393 71.0831 198.645" stroke="#B96665" stroke-width="0.64" stroke-linecap="round" stroke-linejoin="round"/>
<path d="M49.9812 197.207C47.6479 195.689 45.7993 196.936 45.8236 198.452C45.848 199.968 50.5071 201.783 51.6492 200.585C52.5675 199.632 51.382 198.119 49.9812 197.207Z" fill="#EAAB85"/>
<path d="M51.2075 198.505C49.6041 197.009 48.3366 197.647 48.3521 198.811C48.3677 199.974 51.5699 202.045 52.3707 201.3C53.0235 200.696 52.1509 199.424 51.2075 198.505Z" fill="#F9C8A3"/>
<path d="M68.2848 219.656C63.8579 219.882 54.024 219.949 50.2384 216.476C49.8779 216.135 49.4041 215.936 48.9065 215.919C48.4136 215.903 47.9777 216.545 47.5094 217.421C45.581 221.028 45.6303 222.645 44.1801 225.224C51.8262 222.908 62.452 225.083 62.452 225.083C64.5075 225.619 68.3536 225.889 71.5816 228.117C70.4429 224.232 70.2841 225.661 70.1793 221.615C70.1843 221.358 70.1419 221.101 70.0543 220.859C69.9579 220.619 69.8163 220.4 69.6371 220.213C69.457 220.024 69.2365 219.878 68.9921 219.786C68.7671 219.698 68.5269 219.653 68.2848 219.656Z" fill="#D2DFF9"/>
<path d="M48.3396 221.089C44.7463 223.753 44.5615 218.596 44.5615 218.596C44.5615 218.596 32.1725 214.901 27.5057 211.689C22.8389 208.477 13.0555 196.344 13.4924 193.034C13.7318 190.912 0.224845 178.305 25.1496 157.615C25.1496 157.615 36.0559 156.955 41.0595 153.783C46.0631 150.61 56.5057 144.553 56.5057 144.553C56.5057 144.553 70.2641 146.942 60.8655 167.994C60.8655 167.994 39.1049 172.346 48.605 187.764C49.3922 189.006 52.6743 193.116 51.9379 194.104C51.5763 194.584 50.008 193.243 47.2039 192.519C40.7805 190.952 37.3172 198.787 49.2508 203.897C51.3955 204.83 52.6398 203.927 53.9486 204.275C53.9486 204.275 60.8208 211.832 48.3396 221.089Z" fill="#202020"/>
<path d="M58.02 182.9C58.6653 182.165 58.9758 182.106 60.163 181.43C60.7382 181.18 61.3394 181.003 61.9515 180.903C61.9515 180.903 63.7553 181.348 63.9779 181.413C64.3731 181.537 64.4465 181.887 64.0972 182.15C63.748 182.413 63.2729 182.541 62.9892 182.781C60.7569 184.542 60.3126 184.982 58.636 185.259C57.9748 185.386 57.3056 185.437 56.642 185.412C56.9165 184.499 57.3866 183.642 58.02 182.9Z" fill="white"/>
<path d="M60.529 181.805C61.3053 181.36 62.2572 181.59 62.6552 182.32C62.772 182.534 62.8281 182.768 62.8294 183.002C62.0423 183.696 61.593 184.061 60.6821 184.608C60.3322 184.502 60.0286 184.271 59.8441 183.933C59.4461 183.203 59.7527 182.251 60.529 181.805Z" fill="#28160D" stroke="#1C1105" stroke-width="0.2" stroke-miterlimit="10"/>
<path d="M61.6699 183.893C61.2247 184.149 60.6788 184.016 60.4505 183.598C60.2223 183.179 60.3982 182.633 60.8433 182.377C61.2885 182.122 61.8344 182.254 62.0627 182.673C62.2909 183.091 62.115 183.638 61.6699 183.893Z" fill="black"/>
<path opacity="0.77" d="M60.5727 183.372C60.35 183.5 60.0769 183.434 59.9627 183.224C59.8485 183.015 59.9365 182.741 60.1592 182.614C60.382 182.486 60.6551 182.552 60.7692 182.761C60.8834 182.971 60.7955 183.244 60.5727 183.372Z" fill="white"/>
<path d="M64.2513 181.684L62.0415 181.032C61.8415 180.975 61.6256 180.974 61.4178 181.03L60.7593 181.218C60.4235 181.315 60.1028 181.464 59.8099 181.66L58.3825 182.618C58.0911 182.813 57.845 183.069 57.663 183.364L56.6086 185.113L56.1253 185.422L56.8883 183.389C57.1046 183.031 57.3999 182.723 57.7508 182.488L59.1743 181.532C59.5102 181.306 59.8795 181.136 60.2662 181.029L60.9207 180.843C61.329 180.686 61.7596 180.608 62.1883 180.611L64.8252 181.436L64.2513 181.684Z" fill="#D3A688"/>
<path opacity="0.5" d="M64.435 181.671L62.2266 181.02C61.9888 180.95 61.7312 180.949 61.4838 181.017L60.8297 181.203C60.4585 181.309 60.1043 181.474 59.7821 181.691L58.3555 182.648C58.0332 182.862 57.7626 183.144 57.5661 183.472L56.534 185.202" stroke="#0A0001" stroke-width="0.3" stroke-miterlimit="10"/>
<path d="M64.3673 182.056L63.7506 182.404C63.4268 182.586 63.1214 182.799 62.8392 183.04C62.1882 183.606 60.8268 184.864 59.1702 185.244C59.0695 185.267 58.2855 185.313 58.1805 185.319L57.1909 185.395" stroke="#472A22" stroke-width="0.2" stroke-miterlimit="10"/>
<path d="M449.198 367.598H396.192V363.715H449.198C449.714 363.715 450.208 363.919 450.573 364.283C450.937 364.648 451.142 365.141 451.142 365.656C451.142 366.171 450.937 366.665 450.573 367.029C450.208 367.393 449.714 367.598 449.198 367.598Z" fill="white"/>
<path d="M434.707 367.598H383.493C382.402 367.591 381.343 367.225 380.481 366.557C379.618 365.888 379 364.955 378.721 363.901L369.701 329.928C369.504 329.191 369.48 328.418 369.631 327.67C369.781 326.922 370.101 326.219 370.567 325.614C371.033 325.01 371.631 324.52 372.317 324.183C373.002 323.847 373.756 323.672 374.519 323.673H419.145C420.246 323.67 421.317 324.033 422.189 324.705C423.061 325.376 423.685 326.318 423.964 327.382L434.707 367.598Z" fill="white"/>
<path d="M374.519 323.685C373.757 323.685 373.004 323.86 372.32 324.196C371.636 324.532 371.038 325.02 370.572 325.623C370.107 326.226 369.786 326.928 369.635 327.675C369.484 328.421 369.506 329.192 369.7 329.929L378.721 363.902C378.995 364.916 379.581 365.819 380.397 366.483L411.428 323.685H374.519Z" fill="url(#paint9_linear)"/>
<path d="M404.549 348.647C404.707 349.123 404.745 349.631 404.66 350.126C404.575 350.621 404.369 351.087 404.06 351.483C403.752 351.88 403.351 352.194 402.892 352.399C402.433 352.604 401.931 352.693 401.43 352.658C400.261 352.612 399.137 352.199 398.215 351.479C397.294 350.76 396.623 349.769 396.297 348.647C396.142 348.17 396.106 347.663 396.192 347.17C396.279 346.676 396.485 346.211 396.793 345.816C397.1 345.42 397.5 345.106 397.958 344.9C398.415 344.694 398.916 344.603 399.416 344.635C400.584 344.684 401.708 345.096 402.629 345.816C403.55 346.536 404.221 347.526 404.549 348.647Z" fill="#0A3D76"/>
<g filter="url(#filter11_f)">
<path d="M507.927 465.397L600.31 506.607L635.265 510.77L646.501 506.607L540.802 443.334L507.927 465.397Z" fill="url(#paint10_linear)"/>
</g>
<g filter="url(#filter12_di)">
<path d="M678.757 476.746L669.116 470.74C668.728 470.488 668.415 470.13 668.21 469.706C668.005 469.283 667.917 468.809 667.954 468.337C668.055 467.104 668.105 465.858 668.105 464.601C668.11 462.313 667.939 460.029 667.594 457.769C667.513 457.265 667.58 456.747 667.787 456.283C667.994 455.818 668.332 455.429 668.756 455.166L678.823 448.879C679.346 448.556 679.732 448.04 679.903 447.434C680.074 446.829 680.017 446.179 679.744 445.615L675.005 435.628C674.744 435.085 674.3 434.659 673.756 434.432C673.213 434.205 672.607 434.191 672.055 434.395L661.871 438.219C661.386 438.408 660.854 438.429 660.356 438.278C659.858 438.127 659.421 437.812 659.111 437.382C656.293 433.621 652.918 430.345 649.109 427.675C648.661 427.354 648.328 426.888 648.162 426.351C647.996 425.813 648.007 425.234 648.192 424.704L650.449 418.297C650.653 417.704 650.641 417.054 650.415 416.469C650.189 415.885 649.765 415.405 649.222 415.121L639.627 410.268C639.438 410.167 639.236 410.094 639.027 410.051C638.536 409.947 638.026 410.003 637.568 410.213C637.11 410.422 636.726 410.775 636.471 411.221L632.123 418.665L631.066 420.483C629.056 420.187 627.029 420.038 624.999 420.039C622.288 420.036 619.582 420.295 616.918 420.811C616.435 420.911 615.933 420.853 615.483 420.647C615.033 420.44 614.655 420.095 614.401 419.658L609.511 411.249C609.19 410.696 608.679 410.289 608.081 410.107C607.483 409.925 606.841 409.983 606.282 410.268L598.898 414.016L596.787 415.097C596.228 415.378 595.789 415.864 595.556 416.46C595.322 417.056 595.31 417.72 595.521 418.325L598.619 427.135C598.797 427.622 598.822 428.156 598.69 428.659C598.558 429.163 598.275 429.61 597.883 429.938C595.49 431.953 593.312 434.227 591.386 436.721C591.211 436.92 591.047 437.129 590.894 437.346C590.843 437.419 590.785 437.486 590.72 437.546C590.389 437.912 589.96 438.168 589.488 438.281C589.015 438.395 588.521 438.36 588.068 438.183L578.001 434.411C577.889 434.365 577.774 434.33 577.656 434.307C577.121 434.198 576.567 434.274 576.078 434.522C575.588 434.77 575.191 435.177 574.946 435.68L570.253 445.563C569.98 446.14 569.926 446.802 570.101 447.418C570.277 448.034 570.67 448.56 571.202 448.891L581.269 455.154C581.69 455.408 582.027 455.788 582.234 456.245C582.441 456.701 582.51 457.212 582.43 457.709C582.093 459.987 581.925 462.288 581.927 464.593C581.927 465.838 581.973 467.072 582.074 468.289C582.112 468.774 582.018 469.261 581.803 469.695C581.588 470.128 581.261 470.492 580.858 470.744L571.178 476.786C570.66 477.11 570.278 477.623 570.108 478.223C569.937 478.823 569.99 479.468 570.257 480.03L574.961 489.897C575.235 490.477 575.706 490.932 576.284 491.174C576.863 491.416 577.507 491.427 578.094 491.207L586.151 488.183C586.672 487.987 587.242 487.976 587.77 488.153C588.297 488.33 588.753 488.685 589.063 489.16C591.533 493.032 594.57 496.482 598.065 499.388C598.472 499.723 598.766 500.182 598.905 500.699C599.044 501.217 599.021 501.768 598.84 502.271L595.548 511.646C595.337 512.254 595.349 512.921 595.583 513.521C595.816 514.12 596.255 514.61 596.815 514.897L606.332 519.739C606.88 520.02 607.511 520.076 608.098 519.897C608.685 519.719 609.186 519.317 609.499 518.774L609.759 518.341L614.792 509.692C615.054 509.243 615.443 508.887 615.906 508.672C616.369 508.458 616.884 508.394 617.383 508.49C619.896 508.958 622.445 509.192 624.999 509.191C626.389 509.191 627.752 509.115 629.115 508.987C629.576 508.936 630.041 509.022 630.456 509.235C630.872 509.448 631.22 509.778 631.461 510.188L636.421 518.71C636.747 519.272 637.266 519.687 637.874 519.873C638.481 520.059 639.135 520.003 639.704 519.715L649.21 514.873C649.47 514.736 649.707 514.556 649.911 514.341C650.227 513.994 650.444 513.564 650.539 513.097C650.634 512.631 650.603 512.147 650.449 511.698L647.967 504.674C647.824 504.252 647.789 503.799 647.864 503.358C647.939 502.918 648.123 502.505 648.397 502.159C648.549 501.975 648.724 501.812 648.916 501.674C653.702 498.371 657.803 494.112 660.977 489.148C661.239 488.738 661.61 488.417 662.047 488.222C662.483 488.028 662.964 487.97 663.432 488.055C663.57 488.083 663.706 488.121 663.838 488.171L671.97 491.235C672.542 491.448 673.17 491.437 673.734 491.202C674.298 490.967 674.759 490.525 675.028 489.961L675.141 489.733L679.721 480.122C679.998 479.537 680.053 478.865 679.875 478.24C679.696 477.615 679.297 477.082 678.757 476.746ZM602.642 457.769C603.128 455.975 603.776 454.232 604.578 452.563C606.173 449.247 610.119 445.143 613.336 443.505C613.681 443.329 614.022 443.161 614.366 442.996C635.422 433.217 655.723 454.609 645.516 476.382C644.177 479.229 641.218 482.569 638.33 484.639C637.705 485.09 637.049 485.491 636.367 485.841C633.633 487.238 630.688 488.14 627.659 488.508C611.424 490.366 598.061 474.928 602.642 457.769Z" fill="#F985A0"/>
</g>
<defs>
<filter id="filter0_f" x="131.169" y="388.879" width="269.495" height="112.231" filterUnits="userSpaceOnUse" color-interpolation-filters="sRGB">
<feFlood flood-opacity="0" result="BackgroundImageFix"/>
<feBlend mode="normal" in="SourceGraphic" in2="BackgroundImageFix" result="shape"/>
<feGaussianBlur stdDeviation="1" result="effect1_foregroundBlur"/>
</filter>
<filter id="filter1_f" x="393.334" y="463.808" width="162.548" height="60.1967" filterUnits="userSpaceOnUse" color-interpolation-filters="sRGB">
<feFlood flood-opacity="0" result="BackgroundImageFix"/>
<feBlend mode="normal" in="SourceGraphic" in2="BackgroundImageFix" result="shape"/>
<feGaussianBlur stdDeviation="1" result="effect1_foregroundBlur"/>
</filter>
<filter id="filter2_di" x="211.067" y="65.436" width="479.254" height="463.828" filterUnits="userSpaceOnUse" color-interpolation-filters="sRGB">
<feFlood flood-opacity="0" result="BackgroundImageFix"/>
<feColorMatrix in="SourceAlpha" type="matrix" values="0 0 0 0 0 0 0 0 0 0 0 0 0 0 0 0 0 0 127 0"/>
<feOffset dx="2" dy="2"/>
<feGaussianBlur stdDeviation="2"/>
<feColorMatrix type="matrix" values="0 0 0 0 0 0 0 0 0 0 0 0 0 0 0 0 0 0 0.15 0"/>
<feBlend mode="normal" in2="BackgroundImageFix" result="effect1_dropShadow"/>
<feBlend mode="normal" in="SourceGraphic" in2="effect1_dropShadow" result="shape"/>
<feColorMatrix in="SourceAlpha" type="matrix" values="0 0 0 0 0 0 0 0 0 0 0 0 0 0 0 0 0 0 127 0" result="hardAlpha"/>
<feOffset dx="-2" dy="-2"/>
<feGaussianBlur stdDeviation="2"/>
<feComposite in2="hardAlpha" operator="arithmetic" k2="-1" k3="1"/>
<feColorMatrix type="matrix" values="0 0 0 0 0 0 0 0 0 0 0 0 0 0 0 0 0 0 0.2 0"/>
<feBlend mode="normal" in2="shape" result="effect2_innerShadow"/>
</filter>
<filter id="filter3_f" x="384.18" y="376.391" width="36.875" height="115.977" filterUnits="userSpaceOnUse" color-interpolation-filters="sRGB">
<feFlood flood-opacity="0" result="BackgroundImageFix"/>
<feBlend mode="normal" in="SourceGraphic" in2="BackgroundImageFix" result="shape"/>
<feGaussianBlur stdDeviation="1" result="effect1_foregroundBlur"/>
</filter>
<filter id="filter4_f" x="331.33" y="366.817" width="70.9981" height="99.7428" filterUnits="userSpaceOnUse" color-interpolation-filters="sRGB">
<feFlood flood-opacity="0" result="BackgroundImageFix"/>
<feBlend mode="normal" in="SourceGraphic" in2="BackgroundImageFix" result="shape"/>
<feGaussianBlur stdDeviation="1" result="effect1_foregroundBlur"/>
</filter>
<filter id="filter5_f" x="562.59" y="490.344" width="164.854" height="61.6556" filterUnits="userSpaceOnUse" color-interpolation-filters="sRGB">
<feFlood flood-opacity="0" result="BackgroundImageFix"/>
<feBlend mode="normal" in="SourceGraphic" in2="BackgroundImageFix" result="shape"/>
<feGaussianBlur stdDeviation="12.5" result="effect1_foregroundBlur"/>
</filter>
<filter id="filter6_f" x="52.9355" y="440.913" width="125.929" height="41.8807" filterUnits="userSpaceOnUse" color-interpolation-filters="sRGB">
<feFlood flood-opacity="0" result="BackgroundImageFix"/>
<feBlend mode="normal" in="SourceGraphic" in2="BackgroundImageFix" result="shape"/>
<feGaussianBlur stdDeviation="1" result="effect1_foregroundBlur"/>
</filter>
<filter id="filter7_di" x="63.9258" y="171.04" width="162.876" height="158.713" filterUnits="userSpaceOnUse" color-interpolation-filters="sRGB">
<feFlood flood-opacity="0" result="BackgroundImageFix"/>
<feColorMatrix in="SourceAlpha" type="matrix" values="0 0 0 0 0 0 0 0 0 0 0 0 0 0 0 0 0 0 127 0"/>
<feOffset dx="2" dy="2"/>
<feGaussianBlur stdDeviation="2"/>
<feColorMatrix type="matrix" values="0 0 0 0 0 0 0 0 0 0 0 0 0 0 0 0 0 0 0.15 0"/>
<feBlend mode="normal" in2="BackgroundImageFix" result="effect1_dropShadow"/>
<feBlend mode="normal" in="SourceGraphic" in2="effect1_dropShadow" result="shape"/>
<feColorMatrix in="SourceAlpha" type="matrix" values="0 0 0 0 0 0 0 0 0 0 0 0 0 0 0 0 0 0 127 0" result="hardAlpha"/>
<feOffset dx="-2" dy="-2"/>
<feGaussianBlur stdDeviation="2"/>
<feComposite in2="hardAlpha" operator="arithmetic" k2="-1" k3="1"/>
<feColorMatrix type="matrix" values="0 0 0 0 0 0 0 0 0 0 0 0 0 0 0 0 0 0 0.2 0"/>
<feBlend mode="normal" in2="shape" result="effect2_innerShadow"/>
</filter>
<filter id="filter8_f" x="148.996" y="313.817" width="16.0666" height="4.66406" filterUnits="userSpaceOnUse" color-interpolation-filters="sRGB">
<feFlood flood-opacity="0" result="BackgroundImageFix"/>
<feBlend mode="normal" in="SourceGraphic" in2="BackgroundImageFix" result="shape"/>
<feGaussianBlur stdDeviation="0.1" result="effect1_foregroundBlur"/>
</filter>
<filter id="filter9_f" x="150.867" y="312.26" width="15.0143" height="3.96366" filterUnits="userSpaceOnUse" color-interpolation-filters="sRGB">
<feFlood flood-opacity="0" result="BackgroundImageFix"/>
<feBlend mode="normal" in="SourceGraphic" in2="BackgroundImageFix" result="shape"/>
<feGaussianBlur stdDeviation="0.1" result="effect1_foregroundBlur"/>
</filter>
<filter id="filter10_f" x="147.041" y="316.137" width="10.4928" height="3.618" filterUnits="userSpaceOnUse" color-interpolation-filters="sRGB">
<feFlood flood-opacity="0" result="BackgroundImageFix"/>
<feBlend mode="normal" in="SourceGraphic" in2="BackgroundImageFix" result="shape"/>
<feGaussianBlur stdDeviation="0.1" result="effect1_foregroundBlur"/>
</filter>
<filter id="filter11_f" x="505.927" y="441.334" width="142.574" height="71.436" filterUnits="userSpaceOnUse" color-interpolation-filters="sRGB">
<feFlood flood-opacity="0" result="BackgroundImageFix"/>
<feBlend mode="normal" in="SourceGraphic" in2="BackgroundImageFix" result="shape"/>
<feGaussianBlur stdDeviation="1" result="effect1_foregroundBlur"/>
</filter>
<filter id="filter12_di" x="568" y="408" width="118" height="118" filterUnits="userSpaceOnUse" color-interpolation-filters="sRGB">
<feFlood flood-opacity="0" result="BackgroundImageFix"/>
<feColorMatrix in="SourceAlpha" type="matrix" values="0 0 0 0 0 0 0 0 0 0 0 0 0 0 0 0 0 0 127 0"/>
<feOffset dx="2" dy="2"/>
<feGaussianBlur stdDeviation="2"/>
<feColorMatrix type="matrix" values="0 0 0 0 0 0 0 0 0 0 0 0 0 0 0 0 0 0 0.15 0"/>
<feBlend mode="normal" in2="BackgroundImageFix" result="effect1_dropShadow"/>
<feBlend mode="normal" in="SourceGraphic" in2="effect1_dropShadow" result="shape"/>
<feColorMatrix in="SourceAlpha" type="matrix" values="0 0 0 0 0 0 0 0 0 0 0 0 0 0 0 0 0 0 127 0" result="hardAlpha"/>
<feOffset dx="-2" dy="-2"/>
<feGaussianBlur stdDeviation="2"/>
<feComposite in2="hardAlpha" operator="arithmetic" k2="-1" k3="1"/>
<feColorMatrix type="matrix" values="0 0 0 0 0 0 0 0 0 0 0 0 0 0 0 0 0 0 0.2 0"/>
<feBlend mode="normal" in2="shape" result="effect2_innerShadow"/>
</filter>
<linearGradient id="paint0_linear" x1="209.738" y1="383.386" x2="351.021" y2="493.757" gradientUnits="userSpaceOnUse">
<stop stop-color="#B4D1FA" stop-opacity="0"/>
<stop offset="1" stop-opacity="0.2"/>
</linearGradient>
<linearGradient id="paint1_linear" x1="389.508" y1="407.114" x2="530.791" y2="517.485" gradientUnits="userSpaceOnUse">
<stop stop-color="#B4D1FA" stop-opacity="0"/>
<stop offset="1" stop-opacity="0.2"/>
</linearGradient>
<linearGradient id="paint2_linear" x1="448.694" y1="67.436" x2="448.694" y2="523.264" gradientUnits="userSpaceOnUse">
<stop stop-color="#AFCDFB"/>
<stop offset="1" stop-color="#5E89CA"/>
</linearGradient>
<linearGradient id="paint3_linear" x1="241.363" y1="389.214" x2="419.485" y2="505.07" gradientUnits="userSpaceOnUse">
<stop stop-color="#B4D1FA" stop-opacity="0"/>
<stop offset="1" stop-opacity="0.2"/>
</linearGradient>
<linearGradient id="paint4_linear" x1="335.411" y1="324.276" x2="378.561" y2="420.732" gradientUnits="userSpaceOnUse">
<stop stop-color="#B4D1FA" stop-opacity="0"/>
<stop offset="1" stop-opacity="0.2"/>
</linearGradient>
<linearGradient id="paint5_linear" x1="73.2457" y1="412.109" x2="127.773" y2="493.152" gradientUnits="userSpaceOnUse">
<stop stop-color="#B4D1FA" stop-opacity="0"/>
<stop offset="1" stop-opacity="0.2"/>
</linearGradient>
<linearGradient id="paint6_linear" x1="405.323" y1="376.786" x2="427.757" y2="518.85" gradientUnits="userSpaceOnUse">
<stop stop-color="#A62E41"/>
<stop offset="1" stop-color="#E13152"/>
</linearGradient>
<linearGradient id="paint7_linear" x1="475.582" y1="404.058" x2="339.045" y2="399.482" gradientUnits="userSpaceOnUse">
<stop stop-color="#A62E41"/>
<stop offset="1" stop-color="#E13152"/>
</linearGradient>
<linearGradient id="paint8_linear" x1="210.36" y1="254.252" x2="76.4553" y2="239.552" gradientUnits="userSpaceOnUse">
<stop stop-color="#A62E41"/>
<stop offset="1" stop-color="#E13152"/>
</linearGradient>
<linearGradient id="paint9_linear" x1="399.073" y1="341.372" x2="340.751" y2="342.573" gradientUnits="userSpaceOnUse">
<stop stop-color="#71A0DD" stop-opacity="0"/>
<stop offset="1" stop-color="#71A0DD" stop-opacity="0.5"/>
</linearGradient>
<linearGradient id="paint10_linear" x1="468.81" y1="421.272" x2="646.931" y2="537.128" gradientUnits="userSpaceOnUse">
<stop stop-color="#B4D1FA" stop-opacity="0"/>
<stop offset="1" stop-opacity="0.2"/>
</linearGradient>
<clipPath id="clip0">
<rect width="12.0292" height="6.56314" fill="white" transform="matrix(0.998565 0.0531146 -0.0530827 0.998614 426.209 258.284)"/>
</clipPath>
</defs>
</svg>
