<svg width="789" height="552" fill="none" xmlns="http://www.w3.org/2000/svg"><g filter="url(#filter0_f)"><path d="M323.759 499.11l74.905-19.981-105.699-88.25-159.796 45.79 190.59 62.441z" fill="url(#paint0_linear)"/></g><g filter="url(#filter1_f)"><path d="M504.778 522.005l49.104-26.225-93.631-29.972-64.917 19.981 109.444 36.216z" fill="url(#paint1_linear)"/></g><path d="M574.672 64.576c7.056 0 11.088-3.888 13.392-7.872l-5.856-2.832c-1.344 2.64-4.224 4.656-7.536 4.656-5.808 0-10.032-4.464-10.032-10.512s4.224-10.512 10.032-10.512c3.312 0 6.192 2.064 7.536 4.656l5.856-2.88c-2.256-3.984-6.336-7.824-13.392-7.824-9.6 0-17.04 6.72-17.04 16.56s7.44 16.56 17.04 16.56zM618.041 64l-7.2-12.192c3.456-.816 7.008-3.84 7.008-9.504 0-5.952-4.08-10.32-10.752-10.32h-14.976V64h6.816V52.624h4.992L610.217 64h7.824zm-11.952-17.376h-7.152v-8.64h7.152c2.736 0 4.8 1.632 4.8 4.32 0 2.688-2.064 4.32-4.8 4.32zM657.669 64V31.984h-9.6l-7.776 19.344-7.776-19.344h-9.552V64h6.816V41.584L638.805 64h2.976l9.024-22.416V64h6.864z" fill="#EBF2F9"/><g filter="url(#filter2_di)"><path d="M679.021 344.022l-41.297-24.891a10.679 10.679 0 01-5.049-9.946c.422-5.105.632-10.263.629-15.474a179.512 179.512 0 00-2.157-28.368 10.543 10.543 0 015-10.79l43.137-26.053a10.369 10.369 0 003.945-13.527l-20.304-41.365a10.239 10.239 0 00-12.628-5.106l-43.611 15.844c-4.208 1.633-8.998.212-11.844-3.473a186.393 186.393 0 00-42.815-40.221 10.612 10.612 0 01-3.949-12.315l9.682-26.528a10.74 10.74 0 00-5.259-13.16l-41.083-20.103a9.351 9.351 0 00-2.591-.896 10.282 10.282 0 00-10.944 4.844l-18.617 30.837-4.527 7.528a184.134 184.134 0 00-25.985-1.851 187.071 187.071 0 00-34.617 3.21 10.276 10.276 0 01-10.786-4.788l-20.937-34.807a10.652 10.652 0 00-13.813-4.029l-31.619 15.527-9.049 4.473a10.799 10.799 0 00-5.419 13.371l13.206 36.473a10.274 10.274 0 01-3.157 11.683 184.77 184.77 0 00-27.829 28.108 31.892 31.892 0 00-2.106 2.592 5.693 5.693 0 01-.74.841 10.518 10.518 0 01-5.283 3.038 10.517 10.517 0 01-6.08-.405l-43.1-15.645a7.553 7.553 0 00-1.48-.422 10.697 10.697 0 00-11.626 5.684l-20.097 40.946a10.645 10.645 0 004.049 13.793l43.085 25.946a10.29 10.29 0 014.893 10.58 188.458 188.458 0 00-1.525 43.827 10.851 10.851 0 01-5.207 10.161l-41.453 25.053a10.37 10.37 0 00-3.946 13.419l20.15 40.895a10.807 10.807 0 0013.416 5.421l34.51-12.527a10.625 10.625 0 0112.469 4.073 185.856 185.856 0 0038.563 42.369 10.565 10.565 0 013.364 11.949l-14.098 38.843a10.926 10.926 0 005.419 13.471l40.772 20.055a10.432 10.432 0 0013.572-3.999l1.11-1.792 21.619-35.84a10.675 10.675 0 0111.103-5.003h.052a184.56 184.56 0 0032.618 2.896c5.944 0 11.781-.315 17.621-.841a10.461 10.461 0 0110.049 4.999l21.252 35.318a10.829 10.829 0 0014.065 4.155l40.712-20.051a11.734 11.734 0 003.002-2.222 10.796 10.796 0 002.313-10.95l-10.626-29.104a10.79 10.79 0 011.851-10.42c.65-.76 1.397-1.432 2.22-2a185.22 185.22 0 0051.661-51.896 10.42 10.42 0 0110.523-4.528c.59.109 1.171.268 1.736.474l34.879 12.686a10.595 10.595 0 0013.099-5.266l.473-.948 19.617-39.894a10.8 10.8 0 00.61-7.781 10.786 10.786 0 00-4.793-6.157zm-326.013-78.686a123.846 123.846 0 018.313-21.529c6.84-13.737 23.724-30.734 37.511-37.525 1.481-.74 2.961-1.422 4.419-2.107 90.168-40.528 177.131 48.053 133.413 138.318-5.734 11.79-18.414 25.635-30.776 34.211a66.098 66.098 0 01-8.416 4.95c-12.584 6.103-25.094 9.683-37.3 11.053-69.549 7.736-126.787-56.213-107.164-127.371z" fill="url(#paint2_linear)"/></g><path d="M788.287 274.675l-5.542-3.364a1.45 1.45 0 01-.678-1.347c.057-.69.084-1.387.084-2.095a24.356 24.356 0 00-.288-3.834 1.433 1.433 0 01.67-1.459l5.791-3.521a1.401 1.401 0 00.529-1.829l-2.726-5.597a1.387 1.387 0 00-.717-.67 1.363 1.363 0 00-.978-.019l-5.852 2.141a1.378 1.378 0 01-1.589-.47 25.115 25.115 0 00-5.747-5.435 1.44 1.44 0 01-.529-1.664l1.298-3.592c.117-.332.11-.695-.02-1.023a1.44 1.44 0 00-.686-.754l-5.514-2.718a1.364 1.364 0 00-1.184-.031 1.379 1.379 0 00-.63.564l-2.5 4.169-.607 1.018a24.89 24.89 0 00-8.133.185 1.374 1.374 0 01-1.447-.648l-2.81-4.703a1.43 1.43 0 00-1.857-.548l-4.243 2.095-1.215.599a1.45 1.45 0 00-.707.763 1.467 1.467 0 00-.019 1.044l1.772 4.93a1.402 1.402 0 01-.424 1.58 24.902 24.902 0 00-3.736 3.799c-.105.114-.19.228-.282.348a1.407 1.407 0 01-1.623.47l-5.783-2.113a1.424 1.424 0 00-1.106.063 1.442 1.442 0 00-.652.649l-2.697 5.537a1.445 1.445 0 00.543 1.864l5.783 3.508a1.388 1.388 0 01.656 1.431 25.768 25.768 0 00-.297 3.855c0 .698.029 1.388.085 2.071a1.46 1.46 0 01-.698 1.372l-5.564 3.386a1.4 1.4 0 00-.615.804c-.098.336-.067.697.086 1.012l2.704 5.527c.157.325.428.58.761.715.332.135.702.141 1.039.017l4.632-1.692c.299-.111.627-.117.93-.017.303.099.564.298.742.564a25.075 25.075 0 005.176 5.727 1.435 1.435 0 01.445 1.615l-1.892 5.251a1.484 1.484 0 00.726 1.821l5.473 2.712c.315.157.678.188 1.015.087a1.4 1.4 0 00.805-.629l.149-.241 2.902-4.845a1.434 1.434 0 011.485-.677 24.626 24.626 0 006.742.279 1.403 1.403 0 011.348.675l2.853 4.773a1.444 1.444 0 001.884.563l5.465-2.71c.149-.078.285-.179.403-.299a1.47 1.47 0 00.31-1.48l-1.426-3.935a1.464 1.464 0 01.248-1.408c.087-.103.187-.194.297-.271a24.944 24.944 0 006.934-7.015 1.392 1.392 0 011.644-.548l4.682 1.715a1.422 1.422 0 001.757-.711l.064-.128 2.634-5.388a1.464 1.464 0 00-.533-1.87zm-43.756-10.638a16.889 16.889 0 011.115-2.911c.918-1.856 3.184-4.154 5.034-5.072.198-.1.395-.193.594-.285 12.102-5.477 23.773 6.496 17.905 18.696-.769 1.594-2.471 3.466-4.13 4.626a8.787 8.787 0 01-1.13.669 15.32 15.32 0 01-5.006 1.496c-9.333 1.051-17.011-7.6-14.382-17.219zM319.135 52.963l-9.044-4.202a2.202 2.202 0 01-1.26-1.93 38.708 38.708 0 00-.216-3.19 36.922 36.922 0 00-1.075-5.776 2.177 2.177 0 01.792-2.319l8.288-6.307a2.144 2.144 0 00.51-2.867l-5.096-8.04a2.116 2.116 0 00-2.709-.767l-8.618 4.218a2.125 2.125 0 01-2.517-.457 38.567 38.567 0 00-9.7-7.302 2.19 2.19 0 01-1.085-2.44l1.398-5.662a2.21 2.21 0 00-1.373-2.584l-8.897-3.2a2.13 2.13 0 00-2.691 1.111L272.7 7.995l-.762 1.647a38.066 38.066 0 00-5.384.2 38.64 38.64 0 00-7.041 1.425 2.123 2.123 0 01-2.323-.743l-5.08-6.676a2.202 2.202 0 00-2.936-.523l-6.153 3.886-1.762 1.12a2.224 2.224 0 00-.815 2.865l3.527 7.195a2.112 2.112 0 01-.398 2.478 38.263 38.263 0 00-5.085 6.401 6.76 6.76 0 00-.375.576 1.127 1.127 0 01-.133.19 2.172 2.172 0 01-2.288.794l-9.209-2.25a1.483 1.483 0 00-.311-.053 2.208 2.208 0 00-2.263 1.425l-3.22 8.854a2.2 2.2 0 001.145 2.744l9.437 4.369a2.12 2.12 0 011.24 2.058 38.824 38.824 0 00.663 9.034 2.24 2.24 0 01-.844 2.202l-7.965 6.067a2.137 2.137 0 00-.513 2.842l5.055 7.95a2.24 2.24 0 002.878.813l6.817-3.34a2.195 2.195 0 012.659.535 38.41 38.41 0 008.872 7.84 2.18 2.18 0 01.959 2.38l-2.027 8.298a2.246 2.246 0 001.414 2.645l8.828 3.201a2.164 2.164 0 002.702-1.123l.186-.393 3.647-7.84a2.208 2.208 0 012.172-1.273 38.211 38.211 0 0010.375-.697 2.172 2.172 0 012.179.803l5.155 6.778a2.24 2.24 0 002.975.54l7.927-5.03c.215-.142.407-.318.567-.521a2.224 2.224 0 00.229-2.3l-2.819-5.727a2.215 2.215 0 01.146-2.181 2.35 2.35 0 01.41-.457 38.256 38.256 0 009.462-11.802 2.153 2.153 0 012.428-1.106l7.453 1.829a2.194 2.194 0 002.577-1.372l.075-.203 3.147-8.629c.188-.524.173-1.1-.042-1.615a2.234 2.234 0 00-1.123-1.162zm-68.778-8.896a25.61 25.61 0 011.229-4.604c1.101-2.972 4.192-6.838 6.865-8.54.286-.184.575-.358.861-.53 17.636-10.329 37.487 5.922 30.51 25.425-.916 2.55-3.204 5.675-5.566 7.71-.509.44-1.05.844-1.62 1.204a23.722 23.722 0 01-7.421 3.1c-14.114 3.137-27.295-8.717-24.858-23.765z" fill="#EBF2F9"/><path fill-rule="evenodd" clip-rule="evenodd" d="M381.475 322.027v3.949s-7.111-.655-9.733-.655c-2.621 0-1.408-.158-4.029.655-1.966.656-2.358 1.311-3.669 1.513-.895.137-2.032.577-2.621.358-.59-.218-.62.014-1.574-.559-.953-.574-1.668-1.12-1.605-1.924a4.79 4.79 0 01.295-1.354l-.559-.259c-.341-.252-.586-.359-.691-.775a1.889 1.889 0 01.112-1.248c.179-.353.297-.469.579-.469 0 0-1.329-.67-1.407-1.182-.079-.513-.131-.699.232-1.053s.672-.299.672-.299-1.49-.284-1.082-1.624c.409-1.341.974-1.353 1.104-1.419a4.587 4.587 0 012.344-.22c1.096.208 1.029.334 1.978.264.95-.071 2.283-.223 2.283-.223s-1.886-1.745-2.667-3.389c-.78-1.644-.817-3.694-.278-4.492.539-.798 1.236.001 1.527.353.292.352.62 1.734 1.75 2.924 1.131 1.191 3.279 3.724 4.03 4.563.751.839 1.434 2.613 3.932 3.959 2.344 1.263 9.077 2.606 9.077 2.606z" fill="#FFCFAE"/><path fill-rule="evenodd" clip-rule="evenodd" d="M369.606 322.515c-1.028.036-2.563-.81-3.541-2.261-.977-1.452-1.079-2.806-1.107-3.484 0 0 .113-1.216-1.121-2.591-1.234-1.374-1.773-2.077-2.206-3.021-.361-.789-.282-3.079-.245-3.826-.084.09-.16.187-.227.29-.54.798-.504 2.845.278 4.492.782 1.646 2.671 3.381 2.671 3.381s.439 1.209.53 1.829c.091.619-.007 2.735.96 4.083.967 1.347 2.892 2.59 3.038 2.678.146.087-.606-.574-.827-.731-.22-.156 2.867-.775 2.867-.775s-.043-.09-1.07-.064z" fill="#EBBE9F"/><path fill-rule="evenodd" clip-rule="evenodd" d="M372.283 319.927c.989 1.238-.287 2.244-.648 2.551-.361.306 2.296-1.215 2.296-1.215l7.41.839-.064-.076s-5.004-.698-7.346-1.959c-2.959-.753-4.713-3.739-5.466-4.58-.586-.655-3.083-3.592-4.461-5.126-.022-.025-.856-1.406-.881-1.429.041.161.497 1.747.57 1.896.307.623.524.681.405.855-.12.174.5.136.5.136a1.403 1.403 0 01-.144.412c-.085.11.167.152.549.057s1.111 1.813 1.845 2.366c.733.553.901.697 1.617 1.987.717 1.291 2.831 2.052 3.818 3.286z" fill="#F5C5A5"/><path d="M364.436 323.255c.035-.09.473-.462.491-.556.165 0 .165-.655.131-1.116-.214-.197-.622-.85-1.049-.78.427-.07.376-.503.399-.893-.054-.428-.442-.998-.627-1.144.511-.159.756-.821.76-1.123.005-.301-.944-.895-1.542-1.121-.597-.226-2.789-.384-2.874-.462.395.039 3.495.305 3.897.59.105.113.65.113.674.255.097 1.007.28 3.898 1.145 4.893.977 1.123 2.918 2.171 3.057 2.244-.651.217-1.282.473-1.888.766-1.083.512-1.563 1.648-2.469 2.004-1.966.656-3.271.092-3.381-.179.504-.251 2.226-.714 2.849-1.411 1.083-1.212.576-1.828.427-1.967z" fill="#F5C5A5"/><path d="M357.228 318.765c2.218.181 6.174.333 6.681-.07.633-.505 1.21-1.94-1.457-2.249l-2.667-.31m1.372 10.496c1.529-.655 4.324-1.704 3.276-3.277-.218-.219-1.441-.393-4.586.655m4.39-.752c1.213-.489 1.213-1.8-.097-2.455" stroke="#EBBE9F" stroke-width=".1"/><path d="M357.883 321.214c1.789.037 4.754.112 5.897-.279 1.179-.404.59-1.739 0-2.203" stroke="#EBBE9F" stroke-width=".1"/><g filter="url(#filter3_f)"><path d="M409.9 383.803l-23.72-5.412c8.237 42.436 12.534 66.302 6.658 111.977l26.217-15.818c-20.407-14.264-13.186-45.74-9.155-90.747z" fill="url(#paint3_linear)"/></g><g filter="url(#filter4_f)"><path d="M400.328 384.219l-19.558-15.402-44.527 73.68-2.913 22.063s35.614-47.84 66.998-80.341z" fill="url(#paint4_linear)"/></g><g filter="url(#filter5_f)"><ellipse cx="645.017" cy="521.172" rx="57.427" ry="5.828" fill="#0A3D76" fill-opacity=".15"/></g><g filter="url(#filter6_f)"><path d="M91.14 480.794l-36.205-21.646 27.882-7.826 29.962-8.409 64.085 22.479-8.739 6.244-85.308-20.314 37.452 29.472h-29.13z" fill="url(#paint5_linear)"/></g><path d="M430.938 277.726c20.947 4.348 27.342 6.382 39.706-4.871 0 0 .857-29.099-7.856-44.688-8.712-15.589-17.123-18.212-28.881-13.995 0 0-2.759-2.325-7.97 1.458-21.318 15.469-7.017 44.485 5.001 62.096z" fill="#412716"/><path d="M457.533 219.892c-6.288 4.479-11.889 2.122-19.235 3.384-10.443 1.91-10.432 13.818-18.083 10.268-2.875 32.253-3.111 46.441 7.189 69.742 21.059 10.629 27.645 20.425 38.064 2.602 0 0 11.699-40.734.957-69.062-.846-2.412-8.005-14.924-8.892-16.934z" fill="#3C2415"/><path d="M432.979 310.812s.876-23.561 3.085-30.424c-.296-4.087-.484-9.395-1.056-12.676l16.109-8.561c.111-.334-1.391 16.679 2.462 26.178 3.174-.635-10.473 22.711-10.473 22.711l-10.127 2.772z" fill="#FFCFAE"/><path d="M449.771 262.648c-9.629 4.963-3.942 1.882-9.886 4.86l-4.699 2.856c-.024.968.112 1.557.217 2.221.144.913.738 1.758 1.655 1.772 3.943.06 7.476-3.415 11.7-10.229l1.013-1.48z" fill="#F5B994"/><path d="M420.199 255.54c2.939 7.756 5.134 17.539 13.751 14.867 8.617-2.673 14.773-6.081 16.708-9.125 2.512-3.952 2.328-6.08 2.571-12.104.305-7.579.399-13.321-.363-15.184-6.82-13.597-12.345-12.135-17.776-11.388-11.082 4.15-16.561 8.074-16.513 20.099.006 1.385-.159 8.134 1.622 12.835z" fill="#FFCFAE"/><path d="M440.98 240.99c-1.022-.226-1.341-.079-2.823.092a8.82 8.82 0 00-1.946.683s-1.389 1.536-1.555 1.733c-.289.359-.15.71.323.715.474.005.984-.187 1.384-.16 3.076.103 3.741.2 5.437-.628.68-.311 1.323-.693 1.915-1.138a7.035 7.035 0 00-2.735-1.297z" fill="#fff"/><path d="M437.786 241.597c-.971.175-1.681 1.035-1.586 1.922.025.231.166.71.59.619.166-.035 1.751.023 2.509-.04.112-.119.217-.273.311-.468.094-.236.133-.489.106-.745-.095-.887-.959-1.463-1.93-1.288z" fill="#28160D" stroke="#1C1105" stroke-width=".2" stroke-miterlimit="10"/><path d="M438.089 244.091c.519-.093.899-.554.848-1.028-.05-.474-.512-.782-1.031-.688-.519.094-.899.554-.849 1.028.051.474.513.782 1.032.688z" fill="#000"/><path opacity=".77" d="M438.832 243.318c.279-.051.483-.298.455-.554-.027-.255-.275-.421-.554-.37-.278.05-.482.298-.455.553.027.255.275.421.554.371z" fill="#fff"/><path d="M434.545 243.874l1.64-1.954c.149-.176.346-.313.569-.396l.714-.254a3.937 3.937 0 011.129-.219l1.869-.078c.382-.016.757.048 1.097.187l1.993.836.624-.039-1.893-1.265a3.086 3.086 0 00-1.319-.229l-1.865.077a4.3 4.3 0 00-1.295.257l-.709.253a4.1 4.1 0 00-1.296.601l-1.929 2.372.671-.149z" fill="#D3A688"/><path opacity=".5" d="M434.375 243.978l1.638-1.945c.177-.209.412-.372.678-.47l.708-.251a4.198 4.198 0 011.246-.242l1.869-.077c.421-.019.835.052 1.207.21l1.962.831" stroke="#0A0001" stroke-width=".3" stroke-miterlimit="10"/><path d="M434.693 244.271l.771-.084c.404-.045.81-.053 1.211-.024.968.02 2.971.223 4.666-.391.106-.042.852-.474.951-.532l.952-.531" stroke="#472A22" stroke-width=".2" stroke-miterlimit="10"/><path d="M422.066 242.925c.797-.414 1.077-.366 2.308-.56.569-.03 1.135.01 1.683.117 0 0 1.356.934 1.52 1.058.289.226.228.542-.156.652-.384.111-.827.07-1.149.182-2.484.776-3.01 1.004-4.511.713a7.838 7.838 0 01-1.725-.494 6.625 6.625 0 012.03-1.668z" fill="#fff"/><path d="M427.704 243.834l-1.626-1.223a1.026 1.026 0 00-.522-.194l-.617-.048a3.238 3.238 0 00-.95.073l-1.531.354a2.34 2.34 0 00-.864.397l-1.494 1.124-.513.107 1.349-1.45c.306-.23.661-.394 1.038-.481l1.526-.353a3.56 3.56 0 011.091-.08l.614.048a3.13 3.13 0 011.143.2l1.923 1.498-.567.028z" fill="#D3A688"/><path opacity=".5" d="M427.868 243.885l-1.624-1.218a1.212 1.212 0 00-.622-.232l-.613-.047c-.348-.027-.702 0-1.048.08l-1.53.352a2.488 2.488 0 00-.95.439l-1.469 1.112" stroke="#0A0001" stroke-width=".3" stroke-miterlimit="10"/><path d="M422.651 242.925c-.798.125-1.369.845-1.277 1.607.024.198.063.207.163.365.898.483 1.685.331 2.687.055.073-.199.063-.656.037-.875-.092-.762-.813-1.278-1.61-1.152z" fill="#28160D" stroke="#1C1105" stroke-width=".2" stroke-miterlimit="10"/><path d="M422.688 245.086c.431-.076.747-.46.704-.856-.043-.397-.428-.657-.859-.581-.432.076-.747.46-.704.857.042.397.427.656.859.58z" fill="#000"/><path opacity=".77" d="M423.307 244.439c.232-.041.401-.247.378-.461-.023-.213-.23-.353-.462-.312-.231.041-.401.247-.378.461.024.213.23.353.462.312z" fill="#fff"/><path d="M427.7 244.233l-.64.096a5.67 5.67 0 00-.988.239c-.782.223-2.377.816-3.851.675a16.437 16.437 0 01-.856-.233l-.857-.232" stroke="#472A22" stroke-width=".2" stroke-miterlimit="10"/><path d="M452.527 243.819c1.517-3.55 3.905-4.937 5.345-3.067s.777 6.078-.749 9.644c-1.526 3.565-3.912 4.823-4.728 3.232-1.45-1.855-1.374-6.26.132-9.809z" fill="#FFCFAE"/><path d="M453.925 246.267c1.022-2.174 2.355-3.091 2.968-2.049.613 1.041.252 3.659-.78 5.818-1.031 2.159-2.366 3.106-3.007 2.049-.642-1.056-.223-3.659.819-5.818z" fill="#F5B994"/><path d="M453.049 250.114c.412-1.321 1.215-2.041 1.799-1.583.584.459.706 1.899.304 3.218-.403 1.318-1.218 2.03-1.8 1.582-.582-.448-.708-1.865-.303-3.217z" fill="#FFCFAE"/><path d="M418.224 242.532c.986-1.642 2.523-5.714 8.472-3.201.375.159.558.221.769.913-5.37-1.074-5.833-1.201-9.241 2.288zm28.061-3.669c-1.248-1.293-4.301-3.337-10.713-.717-.424.226-.632.322-.832 1.002 6.031-1.643 6.817-1.858 11.545-.285z" fill="#553723"/><path d="M429.499 246.066c.364 3.684-.85 5.652-2.021 9.072.02.197.082.387.183.559.375.667 1.835.624 3.478 0 .617-.16.948-.091 1.52.11" stroke="#D3A688" stroke-width=".5" stroke-miterlimit="10"/><path d="M425.084 234.8c-1.97 6.095-6.868 9.803-7.985 9.858l1.045-13.286 15.75-13.76 20.461 8.236-1.425 17.065c-19.493-14.746-13.06-22.548-18.244-20.791-5.184 1.757-7.138 5.06-9.602 12.678z" fill="#412616"/><g clip-path="url(#clip0)"><path d="M427.072 261.207l-.012-.002.012.002c.361.057.731.002 1.066-.159a9.927 9.927 0 014.643-.843 17.075 17.075 0 004.383-.624 1.02 1.02 0 01.113-.391.927.927 0 01.254-.304c.089.536.3 1.038.614 1.462-.258.2-.733-.164-.733-.164a4.954 4.954 0 01-1.734 2.228 4.37 4.37 0 01-2.58.81c-1.823.271-3.414.054-4.879-1.136-.187.067-.931-.829-1.147-.879z" fill="#FFC6C6" opacity=".8"/><path d="M428.047 261.524a7.74 7.74 0 013.652-.806 14.679 14.679 0 005.397-.784 6.132 6.132 0 01-2.193 2.216 5.515 5.515 0 01-2.909.762 4.566 4.566 0 01-2.118-.22 4.83 4.83 0 01-1.829-1.168z" fill="#FDFCFC"/><path d="M428.048 261.525l.524-.258c.182-.085.367-.158.556-.221l.553-.167c.187-.054.376-.097.567-.13l.582-.094.575.03 1.156-.045c.378.02.756.04 1.141-.083l.629-.055.518-.134.549-.095.6-.129c.187-.033.372-.083.552-.15.168-.052.332-.121.489-.206l.353-.142-.151.367a4.657 4.657 0 01-.363.624l-.212.274-.228.256-.243.237-.275.218a4 4 0 01-.549.399c-.77.47-1.614.777-2.487.904-.214.042-.43.066-.646.073l-.329-.018-.329-.017-.641-.034-.64-.034a3.732 3.732 0 01-.633-.195 3.702 3.702 0 01-.594-.281 2.49 2.49 0 01-.288-.176l-.266-.265-.251-.227a2.92 2.92 0 01-.219-.226zm0 0c.074.08.152.156.235.227l.268.228.272.157.288.159c.192.1.392.182.597.246.213.011.405.128.617.158l.625.033.641.034.328.017.296.016c.214.011.432-.066.631-.091a6.569 6.569 0 002.372-.91l.531-.383c.074-.078.139-.164.195-.257l.243-.219.21-.239c.091-.081.173-.172.245-.273.124-.174.233-.359.326-.554l.203.207a4.718 4.718 0 01-.572.22l-.617.145-.533.115-.566.095-.564.077-.58.059c-.378-.021-.772-.042-1.156.045-.383.087-.772-.041-1.15-.061l-.575-.031-.564.06-.565.095-.567.13-.554.185-.56.31z" fill="#CB7A63"/><path d="M437.096 259.934a14.679 14.679 0 01-5.397.784 7.74 7.74 0 00-3.652.806c.383.426.86.74 1.386.913-.517-.51-.632-1.141.726-1.265 1.358-.124 3.528-.027 4.708-.214 1.179-.187.348 1.501-3.283 1.915l.362.019a5.513 5.513 0 002.933-.74 6.122 6.122 0 002.217-2.218z" fill="#CEC0B6" opacity=".4"/></g><path d="M421.076 472.999a3.035 3.035 0 01-.375 3.259c-1.344 1.857-4.483 3.46-8.021 4.95-.441.193-.874.362-1.216.534l-.273.133c-.076.036-.144.074-.214.104-3.397 1.723-2.545 2.564-8.803 6.201-7.133 4.146-10.944 3.165-11.873 2.333-.784-.703 1.936-3.209 4.962-6.032l.441-.409c.403-.373.806-.758 1.207-1.137 3.581-3.414 3.507-5.519 4.694-11.785.965-5.116.227-29.942.227-29.942l11.05 1.207s-2.022 19.035.672 22.827c1.442 2.023 3.529 2.641 5.009 4.259l.288.341c.88.948 1.628 2.009 2.225 3.157z" fill="#FFCFAE"/><path d="M421.077 472.999a3.035 3.035 0 01-.375 3.259c-1.512 1.809-4.587 3.419-8.026 4.926-.442.2-.848.381-1.211.558l-.273.133c-.076.036-.144.074-.215.104-3.396 1.723-2.544 2.564-8.803 6.201-7.132 4.146-10.944 3.165-11.872 2.333-.784-.703 1.936-3.209 4.962-6.031a24.342 24.342 0 0011.863-4.411c4.52-3.277 8.281-8.073 11.442-10.587l.288.34a14.458 14.458 0 012.22 3.175z" fill="#A62E41"/><path d="M342.49 465.263c-.678 3.38-5.497 2.817-10.882 1.481-5.385-1.337-4.104.252-11.77-.6-7.665-.852-9.993-3.703-10.219-4.847-.207-1.011 3.58-1.367 7.64-1.852.51-.055 1.025-.118 1.539-.181 4.586-.578 7.943-3.536 12.111-5.969 3.945-2.303 9.834-11.687 9.834-11.687l10.507.834s-5.514 8.379-7.646 12.023c-1.255 2.144-1.188 4.977-1.033 7.169a13.45 13.45 0 01-.081 3.629z" fill="#FFCFAE"/><path d="M331.608 466.744c-5.385-1.315-4.104.252-11.77-.6-7.665-.852-9.993-3.703-10.219-4.847-.207-1.011 3.58-1.367 7.64-1.852l.04.078a21.583 21.583 0 0010.974 3.414c5.182.126 10.708-1.363 14.298-1.303a13.443 13.443 0 01-.081 3.595c-.663 3.399-5.497 2.837-10.882 1.515z" fill="#A62E41"/><path d="M394.766 387.511l5.547 67.104c2.249.468 4.561.56 6.84.272 3.158-.481 6.951-2.324 6.951-2.324s4.765-60.109-3.858-73.512c-8.624-13.403-15.48 8.46-15.48 8.46z" fill="url(#paint6_linear)"/><path d="M467.187 372.484s-51.925-18.945-66.441-14.261c-14.516 4.684-66.095 89.218-66.095 89.218s.985 1.31 3.668 2.318c2.499.936 8.543.877 8.543.877s36.302-34.703 40.984-44.542c4.682-9.838 11.963-22.4 16.645-21.459 9.571 3.33 49.105 18.129 66.583 3.144 12.643-13.123 8.253-20.16 8.253-20.16l-12.14 4.865z" fill="url(#paint7_linear)"/><path d="M471.86 334.983c1.962-8.239 2.933-24.6-4.04-37.837-6.329-11.994-16.129-20.864-16.721-20.512 1.248 9.168-8.676 26.397-11.072 26.235-4.232-.287-3.893-25.43-3.893-25.43s-10.974.968-15.249 8.363c-5.922 10.219-10.707 43.744-17.062 43.292-2.916-.211-30.378-9.574-30.378-9.574s-1.587-.984-.65 4.637c0 0 6.706 4.635 18.96 10.826 6.481 3.277 14.308 7.232 17.062 6.599 5.581-1.315 9.03-8.77 13.741-16.391l4.569-10.25c6.011 34.066-.557 43.437 3.581 47.029 4.371 3.791 3.487-.953 17.226 5.005 9.009 3.91 16.968 9.009 25.385 9.99 4.415.518 5.585.071 6.658-2.914 3.127-8.668-11.859-23.36-8.117-39.068z" fill="#699DEE"/><path d="M445.021 359.877c15.157-3.543 23.681-5.618 42.031-16.393l-11.736-8.742c-1.258 1.248-28.16 14.127-29.825 16.833-1.666 2.707-.47 8.302-.47 8.302z" fill="#4A75CB"/><path d="M480.168 373.178c-.56 3.342-2.276 4.2-4.576 3.619-3.036-2.839-5.602-12.083-9.097-20.825-2.497-6.244-4.388-3.313-6.014-16.835-1.307-10.857 10.799-31.046 12.741-35.436 3.633 14.82 1.022 12.006 0 21.23-1.946 17.585 8.573 38.543 6.946 48.247z" fill="#4A75CB"/><path d="M444.816 353.091l-.439-1.256c-1.721.6-4.241.271-4.779.303l-5.844.49a4.746 4.746 0 00-3.447 1.811l-7.51 9.593c.355 1.071 1.757 1.869 4.701-1.992l-3.255 3.78c.116.885.997 1.385 3.44-1.328-.702.997-1.174 1.745-1.096 1.851l.006.007c.254.344 1.216 2.218 8.36-6.61.561-.355.891-.236-1.698 6.151-.009 1.33 1.068 2.764 4.869-5.209 1.848-.146 5.51-1.543 6.959-3.475l1.225-1.1c-1.213-2.735-1.093-2.064-1.492-3.016z" fill="#FFCFAE"/><path d="M427.498 362.04c-2.944 3.861-4.346 3.063-4.701 1.992l7.51-9.593a4.746 4.746 0 013.447-1.811l5.844-.49c.538-.032 3.058.297 4.779-.303l.439 1.256c.399.952.279.281 1.492 3.016l-1.225 1.1c-1.449 1.932-5.111 3.329-6.959 3.475-3.801 7.973-4.878 6.539-4.869 5.209 2.589-6.387 2.259-6.506 1.698-6.151-7.144 8.828-8.106 6.954-8.36 6.61l-.006-.007c-.078-.106.394-.854 1.096-1.851m-.185-2.452c.498-.653 2.287-1.533 2.875-2.474l-2.875 2.474zm0 0l-3.255 3.78c.116.885.997 1.385 3.44-1.328m0 0c.966-1.072 3.566-1.97 5.068-4.22-1.009 1.289-4 2.705-5.068 4.22z" stroke="#F5C5A5" stroke-width=".2"/><path d="M426.897 315.352c-3.351 8.31-9.748 22.551-15.025 24.794-2.604 1.106-8.763-.159-15.706-2.289 4.869.401 9.39-.411 13.716-1.611 4.688-1.281 5.068-7.369 11.093-17.44 3.911-6.516 5.358-5.288 5.922-3.454z" fill="#4A75CB"/><path d="M438.337 359.064c.428-1.142 4.814-1.744 6.954-1.903-.856 1.903-5.349 3.013-7.489 3.33l.535-1.427z" fill="#F5C5A5"/><path d="M443.608 353.415c-3.329.277-9.987.832-10.403 1.664.001-.832 1.747-1.664 10.403-1.664z" fill="#EEBE9E"/><path d="M451.099 276.218s18.446 3.4 24.054 11.239c7.401 10.325 15.377 41.881 13.303 54.339-.245 1.474-1.389 2.572-2.798 3.071l-40.801 14.435s0-2.497-1.665-7.493c1.666-2.706 30.702-16.394 31.961-17.642 1.258-1.248-7.661-24.221-7.661-27.968s-16.393-29.981-16.393-29.981z" fill="#699DEE"/><path d="M140.891 301.698c2.917-3.048 2.681-5.313 2.681-5.313s-39.72-22.669-43.125-24.923c-2.323-1.534-10.551-23.574-22.184-37.034-5.764-6.667-8.083-9.907-16.254-7.56l-11.55 7.756c-8.124 2.324-8.555 9.808-1.887 15.329 18.764 15.579 33.351 33.073 39.195 36.752 14.507 9.128 48.86 14.993 48.86 14.993s1.761 2.613 4.264 0z" fill="#5584C0"/><path d="M168.083 450.406s4.547 6.577 17.102 3.33c0 0 8.945-1.876 11.94 1.996.354.458.086 1.084-.457 1.283-3.329 1.218-14.005 5.174-17.303 6.987-2.964 1.627-6.053 4.193-8.237 6.176a4.081 4.081 0 01-4.624.587 4.061 4.061 0 01-1.27-1.042 92.42 92.42 0 01-2.323-2.989c-2.396-3.243-5.607-11.636-5.607-11.636l10.779-4.692z" fill="#233862"/><path d="M169.766 450.299s1.118 3.552-12.19 7.6c0 0-15.921-16.606-28.217-38.009-5.567-7.749-5.481-7.674-7.924-13.06-9.975-21.949-36.9-55.057-54.016-71.651l29.19-13.817s14.497 26.597 32.75 58.812c13.152 23.212 25.985 48.262 40.407 70.125z" fill="#2B478B"/><g filter="url(#filter7_di)"><path d="M196.602 256.765c.39-3.24.462-5.038.583-7.857a3.147 3.147 0 012.074-2.845l10.706-2.816a3.099 3.099 0 001.946-3.696l-3.542-13.228a3.013 3.013 0 00-3.369-2.198l-10.602 1.69a3.097 3.097 0 01-3.244-1.69c-1.518-3.068-6.154-10.625-9.779-13.795-.523-.458-.795-1.14-.875-1.83-.08-.69.751-2.149 1.111-2.743l4.339-7.177a3.135 3.135 0 00-.78-4.111l-10.787-8.238a3.1 3.1 0 00-4.181.381l-8.948 9.83a55.38 55.38 0 00-17.72-3.078 3.063 3.063 0 01-2.859-2.013l-4.103-11.337a3.17 3.17 0 00-3.797-1.999l-12.986 3.481a3.211 3.211 0 00-2.34 3.592l1.615 10.187a3.107 3.107 0 01-.293 1.87 3.107 3.107 0 01-1.322 1.355c-3.764 1.988-9.243 5.699-12.449 8.5a3.154 3.154 0 01-3.692.314L92 202.5a3.139 3.139 0 00-4.126.783L80.636 214.8a3.153 3.153 0 00.385 4.25l8.557 6.898a3.095 3.095 0 01.823 3.355c-.97 2.664-1.853 3.915-2.401 6.697-.297 1.498-1.255 4.97-1.423 6.461a3.224 3.224 0 01-2.102 2.676L74.5 248.5c-.724.262-1.143.817-1.5 1.5a3.076 3.076 0 00-.243 2.219L75 265.5a3.216 3.216 0 003.597 2.344H86.5c.695-.11 1.971.083 2.585.427a3.133 3.133 0 011.362 1.537c2.163 5.274 5.12 10.307 8.788 14.67a3.178 3.178 0 01.297 3.693l-4.624 9.06a3.226 3.226 0 00-.408 2.269c.148.781.86 1.912 1.492 2.394l10.718 8.186c.79.42 1.29.465 1.79.42a3.104 3.104 0 002.02-1.008L118.5 301a3.188 3.188 0 011.646-.962 3.192 3.192 0 011.9.145c3.019 1.175 8.079 2.403 11.256 3.029 1.739.346 3.472.6 5.198.788a3.131 3.131 0 012.629 2.049l3.874 11.477a3.196 3.196 0 003.823 2.001l13.015-3.499a3.155 3.155 0 002.307-3.528l-1.894-10.314a3.154 3.154 0 011.894-3.371c7.048-2.969 13.155-7.222 18.004-12.135a3.11 3.11 0 013.822-.469l8.619 5.03a3.13 3.13 0 004.116-.78L206 279a3.178 3.178 0 00-.386-4.277l-9.114-7.277a3.14 3.14 0 01-.898-3.181c.416-1.455.665-4.718 1-7.5zM150.5 278.5c-31 7.711-52.025-25.416-33.5-49.5 4-5 10.294-9.135 15.5-10.5 30.5-8 51.5 25.5 34 49-2.889 3.82-9 9-16 11z" fill="url(#paint8_linear)"/></g><path d="M119.852 363.405l1.249 42.46c-3.917-8.502-9.188-14.586-11.652-19.981-14.467-20.195-33.922-27.565-51.185-44.188l36.62-23.664s6.558 13.094 24.968 45.373z" fill="#233862"/><path d="M147.809 304.415c-5.664.528-8.47 2.34-8.47 2.34l-2.891.023s-3.529 5.854-2.865 6.258c.665.405 5.537 1.875 5.537 1.875.14.385 9.963 5.506 11.477 5.442 1.514-.063 2.615-.595 2.759-.776a3.425 3.425 0 002.278-.659 35.716 35.716 0 013.924-1.654l3.746-1.555c2.571-1.356.992-1.579.992-1.579a9.106 9.106 0 00-2.428.269c2.341-.688 4.276-1.581 3.609-2.071-1.103-.812-5.287.126-5.287.126s-2.655.762-3.729.651c-1.836-1.342-2.94-1.578-4.196-2.998-2.121-2.399-2.879-2.67-2.879-2.67s6.759.182 8.885-2.002c1.352-1.88-1.668-1.345-5.026-.95-2.413-.071-5.436-.07-5.436-.07z" fill="#FFCFAE"/><g filter="url(#filter8_f)"><path d="M149.296 314.716c1.399.999 5.393 3.164 5.887 3.386.495.222 2.051-.044 3.419-.544 2.257-.892 6.337-2.451 6.155-2.954-.162-.445.293-.611-1.693-.389" stroke="#D3A688" stroke-width=".2" stroke-linecap="round"/></g><g filter="url(#filter9_f)"><path d="M151.168 313.239c1.398 1 4.188 2.384 4.682 2.606.495.222 2.051-.045 3.418-.545 2.258-.892 5.912-1.876 6.314-2.74" stroke="#D3A688" stroke-width=".2" stroke-linecap="round"/></g><g filter="url(#filter10_f)"><path d="M157.234 318.058c-1.368.499-2.476 1.71-4.168 1.321-.531-.122-4.326-1.943-5.725-2.942" stroke="#D3A688" stroke-width=".2" stroke-linecap="round"/></g><path d="M102.79 464.143s-.298 8.214 10.82 9.439c0 0 7.47 1.567 7.49 7.408H91.064s-.94-2.358-1.169-7.408c-.175-3.878 3.757-14.018 3.757-14.018l9.138 4.579z" fill="#233862"/><path d="M84.087 325.673s11.698 13.067 23.915 49.21c6.647 19.666-.639 71.991-4.309 89.17 0 0-5.483 2.972-12.733 1.962 0 0-3.677-37.409 1.374-64.753 2.827-15.303-22.318-30.805-34.625-58.457-8.372-18.815-10.719-18.495 1.798-18.946l24.58 1.814z" fill="#2B478B"/><path d="M100.902 326.677c0 1.992-2.303 2.958-2.79 3.055-4.59.84-17.401 5.823-28.944 6.972-9.717 1.016-6.327 2.141-13.402 1.309-1.31-.263-3.11-4.57-3.329-5.828-.272-1.375-28.007-68.255-6.657-110.312.694-.764 4.563.233 9.89 1.498 4.49 1.067 7.904.278 12.165-1.498l2.08 2.497c3.746 6.661 7.382 17.106 8.74 26.642.69 4.847 1.372 8.274 2.175 12.537.3 1.577.601 3.121.913 4.622a254.597 254.597 0 001.869 8.413c1.735 7.212 3.567 13.421 5.366 18.783a200.688 200.688 0 005.47 14.393c2.176 5.137 4.012 8.965 5.16 11.917.83 2.058 1.294 3.699 1.294 5z" fill="#71A0DD"/><path d="M95.3 311.788c-53.58-25.258-51.168-64.71-51.168-64.71s26.89 16.067 37.629 20.254a254.597 254.597 0 001.868 8.413c1.736 7.212.301 3.623 2.1 8.985 1.915 5.694 2.903 10.605 4.579 14.569 2.193 5.134 3.844 9.557 4.992 12.489z" fill="#5584C0"/><path d="M134.785 312.749c1.713-4.469 2.496-6.494 2.496-6.494s-34.983-28.528-38.554-30.978c-2.43-1.66-13.275-17.231-25.066-31.342-2.873-3.427-6-6.714-9.573-10.823-3.198-3.677-4.577-7.076-7.906-8.742-4.704-.697-7.346-.268-12.068.833-3.328 7.493-7.296 19.493-.417 25.393 19.375 16.601 35.412 35.892 41.505 39.902 15.124 9.961 48.583 23.906 48.583 23.906s.216.297 1-1.655z" fill="#6B9CDB"/><path d="M48.942 212.964l.384 9.145s8.523 3.094 14.141 1.986c4.706-2.297 4.816-1.731 4.816-1.731l.166-11.551-9.992-1.901-9.515 4.052z" fill="#F9C8A3"/><path d="M49.49 209.942c2.87 7.175 11.773 10.273 18.95 7.949v-7.357c-2.394-.951-11.924 2.098-14.145.775l-4.805-1.367z" fill="#EAAB85"/><path d="M48.142 210.871l-28.557-33.619 40.823-9.963s22.937 38.169 15.786 41.909c-7.15 3.739-15.11 4.111-15.11 4.111-5.24.179-8.153.149-12.942-2.438z" fill="#F9C8A3"/><path d="M75.807 189.312l-4.98 3.024.817-2.683 4.163-.341z" fill="#C69B7D"/><path d="M67.314 179.733c3.169 2.743 4.608 4.523 8.645 6.744.262.091.488.256.65.475.164.219.26.481.277.756a1.63 1.63 0 01-.169.8 1.554 1.554 0 01-.58.595c-2.292 1.215-3.268.99-4.512 2.526-1.61 1.952-2.466.124-2.82-1.092l-1.491-10.804z" fill="#F9C8A3"/><path d="M61.637 177.249a.5.5 0 00.174-.686l-.743-1.25a.5.5 0 00-.703-.163l-4.562 2.981c-.635.412-1.14.979-1.427 1.604l-.844 1.767c-.23.481.354.94.767.603l2.202-1.794a.406.406 0 01.06-.042l5.076-3.02z" fill="#202020"/><path d="M75.741 198.145s-1.663 1.248-4.658.5" stroke="#B96665" stroke-width=".64" stroke-linecap="round" stroke-linejoin="round"/><path d="M49.981 197.207c-2.333-1.518-4.182-.271-4.157 1.245.024 1.516 4.683 3.331 5.825 2.133.919-.953-.267-2.466-1.668-3.378z" fill="#EAAB85"/><path d="M51.208 198.505c-1.604-1.496-2.871-.858-2.856.306.016 1.163 3.218 3.234 4.019 2.489.652-.604-.22-1.876-1.163-2.795z" fill="#F9C8A3"/><path d="M68.285 219.656c-4.427.226-14.261.293-18.047-3.18a2.04 2.04 0 00-1.331-.557c-.493-.016-.93.626-1.398 1.502-1.928 3.607-1.879 5.224-3.329 7.803 7.646-2.316 18.272-.141 18.272-.141 2.055.536 5.902.806 9.13 3.034-1.14-3.885-1.298-2.456-1.403-6.502a2.104 2.104 0 00-.125-.756 2.024 2.024 0 00-.417-.646 1.88 1.88 0 00-1.352-.557z" fill="#D2DFF9"/><path d="M48.34 221.089c-3.594 2.664-3.779-2.493-3.779-2.493s-12.389-3.695-17.055-6.907c-4.667-3.212-14.45-15.345-14.014-18.655.24-2.122-13.267-14.729 11.658-35.419 0 0 10.906-.66 15.91-3.832 5.003-3.173 15.446-9.23 15.446-9.23s13.758 2.389 4.36 23.441c0 0-21.761 4.352-12.261 19.77.787 1.242 4.07 5.352 3.333 6.34-.362.48-1.93-.861-4.734-1.585-6.423-1.567-9.887 6.268 2.047 11.378 2.145.933 3.389.03 4.698.378 0 0 6.872 7.557-5.61 16.814z" fill="#202020"/><path d="M58.02 182.9c.645-.735.956-.794 2.143-1.47a7.538 7.538 0 011.789-.527s1.803.445 2.026.51c.395.124.468.474.12.737-.35.263-.825.391-1.109.631-2.232 1.761-2.676 2.201-4.353 2.478a8.814 8.814 0 01-1.994.153 6.968 6.968 0 011.378-2.512z" fill="#fff"/><path d="M60.529 181.805c.776-.445 1.728-.215 2.126.515.117.214.173.448.174.682-.787.694-1.236 1.059-2.147 1.606a1.41 1.41 0 01-.838-.675c-.398-.73-.091-1.682.685-2.128z" fill="#28160D" stroke="#1C1105" stroke-width=".2" stroke-miterlimit="10"/><path d="M61.67 183.893c-.445.256-.991.123-1.22-.295-.228-.419-.052-.965.393-1.221.445-.255.991-.123 1.22.296.228.418.052.965-.393 1.22z" fill="#000"/><path opacity=".77" d="M60.573 183.372c-.223.128-.496.062-.61-.148-.114-.209-.026-.483.196-.61.223-.128.496-.062.61.147.114.21.026.483-.196.611z" fill="#fff"/><path d="M64.251 181.684l-2.21-.652a1.168 1.168 0 00-.623-.002l-.659.188a3.41 3.41 0 00-.95.442l-1.426.958a2.444 2.444 0 00-.72.746l-1.054 1.749-.484.309.763-2.033c.217-.358.512-.666.863-.901l1.423-.956a3.749 3.749 0 011.092-.503l.655-.186a3.467 3.467 0 011.267-.232l2.637.825-.574.248z" fill="#D3A688"/><path opacity=".5" d="M64.435 181.671l-2.208-.651a1.358 1.358 0 00-.743-.003l-.654.186a3.693 3.693 0 00-1.048.488l-1.426.957a2.59 2.59 0 00-.79.824l-1.032 1.73" stroke="#0A0001" stroke-width=".3" stroke-miterlimit="10"/><path d="M64.367 182.056l-.616.348c-.324.182-.63.395-.912.636-.65.566-2.012 1.824-3.669 2.204-.1.023-.885.069-.99.075l-.99.076" stroke="#472A22" stroke-width=".2" stroke-miterlimit="10"/><path d="M449.198 367.598h-53.006v-3.883h53.006a1.944 1.944 0 011.375 3.314 1.947 1.947 0 01-1.375.569z" fill="#fff"/><path d="M434.707 367.598h-51.214a4.97 4.97 0 01-4.772-3.697l-9.02-33.973a4.97 4.97 0 012.616-5.745 4.988 4.988 0 012.202-.51h44.626a4.965 4.965 0 014.819 3.709l10.743 40.216z" fill="#fff"/><path d="M374.519 323.685a4.99 4.99 0 00-3.947 1.938 4.975 4.975 0 00-.872 4.306l9.021 33.973a5.014 5.014 0 001.676 2.581l31.031-42.798h-36.909z" fill="url(#paint9_linear)"/><path d="M404.549 348.647a3.054 3.054 0 01-1.657 3.752 3.062 3.062 0 01-1.462.259 5.58 5.58 0 01-5.133-4.011 3.071 3.071 0 01.496-2.831 3.072 3.072 0 012.623-1.181 5.583 5.583 0 015.133 4.012z" fill="#0A3D76"/><g filter="url(#filter11_f)"><path d="M507.927 465.397l92.383 41.21 34.955 4.163 11.236-4.163-105.699-63.273-32.875 22.063z" fill="url(#paint10_linear)"/></g><g filter="url(#filter12_di)"><path d="M668.55 469.704c.306-2.546.363-3.959.458-6.175a2.479 2.479 0 011.631-2.236l8.414-2.214a2.433 2.433 0 001.529-2.905l-2.783-10.396a2.368 2.368 0 00-2.648-1.728l-8.333 1.329a2.44 2.44 0 01-2.55-1.329c-1.193-2.411-4.837-8.351-7.686-10.843-.411-.359-.624-.895-.688-1.438-.063-.542.591-1.689.874-2.156l3.41-5.641a2.467 2.467 0 00-.613-3.231l-8.478-6.475a2.436 2.436 0 00-3.287.3l-7.032 7.726a43.556 43.556 0 00-13.928-2.42 2.401 2.401 0 01-2.247-1.582l-3.225-8.91a2.49 2.49 0 00-2.984-1.571l-10.207 2.736a2.519 2.519 0 00-1.839 2.823l1.269 8.007a2.44 2.44 0 01-1.269 2.535c-2.958 1.562-7.265 4.479-9.785 6.68a2.48 2.48 0 01-2.901.247l-7.316-3.784a2.47 2.47 0 00-3.243.616l-5.689 9.052a2.474 2.474 0 00.302 3.34l6.726 5.422a2.437 2.437 0 01.647 2.637c-.763 2.094-1.456 3.077-1.887 5.264-.234 1.177-.986 3.906-1.118 5.078a2.537 2.537 0 01-1.653 2.103l-7.84 2.643c-.569.206-.898.642-1.178 1.179a2.417 2.417 0 00-.192 1.744l1.763 10.439a2.529 2.529 0 002.827 1.842h6.212c.546-.086 1.549.065 2.032.336.482.271.859.696 1.07 1.208 1.7 4.145 4.025 8.101 6.907 11.53a2.497 2.497 0 01.234 2.902l-3.635 7.122a2.535 2.535 0 00-.32 1.783c.116.613.676 1.503 1.172 1.882l8.424 6.434c.622.33 1.015.365 1.408.33a2.443 2.443 0 001.587-.793l6.272-6.674a2.515 2.515 0 012.787-.642c2.373.923 6.35 1.888 8.847 2.381 1.367.271 2.729.471 4.086.619a2.455 2.455 0 012.066 1.611l2.861 8.059a2.512 2.512 0 003.004 1.572l10.414-1.789a2.477 2.477 0 001.813-2.772l-1.488-8.107a2.478 2.478 0 011.488-2.649c5.54-2.334 10.34-5.677 14.151-9.538a2.445 2.445 0 013.004-.369l6.774 3.954a2.464 2.464 0 003.235-.613l5.731-9.009a2.495 2.495 0 00-.303-3.361l-7.164-5.72a2.459 2.459 0 01-.706-2.5c.327-1.143.523-3.708.786-5.895zm-36.235 17.083c-24.365 6.061-40.89-19.975-26.33-38.905 3.144-3.93 8.091-7.18 12.183-8.253 23.972-6.288 40.477 20.042 26.723 38.513-2.271 3.002-7.074 7.074-12.576 8.645z" fill="#F985A0"/></g><defs><filter id="filter0_f" x="131.169" y="388.879" width="269.495" height="112.231" filterUnits="userSpaceOnUse" color-interpolation-filters="sRGB"><feFlood flood-opacity="0" result="BackgroundImageFix"/><feBlend in="SourceGraphic" in2="BackgroundImageFix" result="shape"/><feGaussianBlur stdDeviation="1" result="effect1_foregroundBlur"/></filter><filter id="filter1_f" x="393.334" y="463.808" width="162.548" height="60.197" filterUnits="userSpaceOnUse" color-interpolation-filters="sRGB"><feFlood flood-opacity="0" result="BackgroundImageFix"/><feBlend in="SourceGraphic" in2="BackgroundImageFix" result="shape"/><feGaussianBlur stdDeviation="1" result="effect1_foregroundBlur"/></filter><filter id="filter2_di" x="211.067" y="65.436" width="479.254" height="463.828" filterUnits="userSpaceOnUse" color-interpolation-filters="sRGB"><feFlood flood-opacity="0" result="BackgroundImageFix"/><feColorMatrix in="SourceAlpha" values="0 0 0 0 0 0 0 0 0 0 0 0 0 0 0 0 0 0 127 0"/><feOffset dx="2" dy="2"/><feGaussianBlur stdDeviation="2"/><feColorMatrix values="0 0 0 0 0 0 0 0 0 0 0 0 0 0 0 0 0 0 0.15 0"/><feBlend in2="BackgroundImageFix" result="effect1_dropShadow"/><feBlend in="SourceGraphic" in2="effect1_dropShadow" result="shape"/><feColorMatrix in="SourceAlpha" values="0 0 0 0 0 0 0 0 0 0 0 0 0 0 0 0 0 0 127 0" result="hardAlpha"/><feOffset dx="-2" dy="-2"/><feGaussianBlur stdDeviation="2"/><feComposite in2="hardAlpha" operator="arithmetic" k2="-1" k3="1"/><feColorMatrix values="0 0 0 0 0 0 0 0 0 0 0 0 0 0 0 0 0 0 0.2 0"/><feBlend in2="shape" result="effect2_innerShadow"/></filter><filter id="filter3_f" x="384.18" y="376.391" width="36.875" height="115.977" filterUnits="userSpaceOnUse" color-interpolation-filters="sRGB"><feFlood flood-opacity="0" result="BackgroundImageFix"/><feBlend in="SourceGraphic" in2="BackgroundImageFix" result="shape"/><feGaussianBlur stdDeviation="1" result="effect1_foregroundBlur"/></filter><filter id="filter4_f" x="331.33" y="366.817" width="70.998" height="99.743" filterUnits="userSpaceOnUse" color-interpolation-filters="sRGB"><feFlood flood-opacity="0" result="BackgroundImageFix"/><feBlend in="SourceGraphic" in2="BackgroundImageFix" result="shape"/><feGaussianBlur stdDeviation="1" result="effect1_foregroundBlur"/></filter><filter id="filter5_f" x="562.59" y="490.344" width="164.854" height="61.656" filterUnits="userSpaceOnUse" color-interpolation-filters="sRGB"><feFlood flood-opacity="0" result="BackgroundImageFix"/><feBlend in="SourceGraphic" in2="BackgroundImageFix" result="shape"/><feGaussianBlur stdDeviation="12.5" result="effect1_foregroundBlur"/></filter><filter id="filter6_f" x="52.935" y="440.913" width="125.929" height="41.881" filterUnits="userSpaceOnUse" color-interpolation-filters="sRGB"><feFlood flood-opacity="0" result="BackgroundImageFix"/><feBlend in="SourceGraphic" in2="BackgroundImageFix" result="shape"/><feGaussianBlur stdDeviation="1" result="effect1_foregroundBlur"/></filter><filter id="filter7_di" x="65.295" y="171.169" width="157.548" height="159.426" filterUnits="userSpaceOnUse" color-interpolation-filters="sRGB"><feFlood flood-opacity="0" result="BackgroundImageFix"/><feColorMatrix in="SourceAlpha" values="0 0 0 0 0 0 0 0 0 0 0 0 0 0 0 0 0 0 127 0"/><feOffset dx="2" dy="2"/><feGaussianBlur stdDeviation="2"/><feColorMatrix values="0 0 0 0 0 0 0 0 0 0 0 0 0 0 0 0 0 0 0.15 0"/><feBlend in2="BackgroundImageFix" result="effect1_dropShadow"/><feBlend in="SourceGraphic" in2="effect1_dropShadow" result="shape"/><feColorMatrix in="SourceAlpha" values="0 0 0 0 0 0 0 0 0 0 0 0 0 0 0 0 0 0 127 0" result="hardAlpha"/><feOffset dx="-2" dy="-2"/><feGaussianBlur stdDeviation="2"/><feComposite in2="hardAlpha" operator="arithmetic" k2="-1" k3="1"/><feColorMatrix values="0 0 0 0 0 0 0 0 0 0 0 0 0 0 0 0 0 0 0.2 0"/><feBlend in2="shape" result="effect2_innerShadow"/></filter><filter id="filter8_f" x="148.996" y="313.817" width="16.067" height="4.664" filterUnits="userSpaceOnUse" color-interpolation-filters="sRGB"><feFlood flood-opacity="0" result="BackgroundImageFix"/><feBlend in="SourceGraphic" in2="BackgroundImageFix" result="shape"/><feGaussianBlur stdDeviation=".1" result="effect1_foregroundBlur"/></filter><filter id="filter9_f" x="150.867" y="312.26" width="15.014" height="3.964" filterUnits="userSpaceOnUse" color-interpolation-filters="sRGB"><feFlood flood-opacity="0" result="BackgroundImageFix"/><feBlend in="SourceGraphic" in2="BackgroundImageFix" result="shape"/><feGaussianBlur stdDeviation=".1" result="effect1_foregroundBlur"/></filter><filter id="filter10_f" x="147.041" y="316.137" width="10.493" height="3.618" filterUnits="userSpaceOnUse" color-interpolation-filters="sRGB"><feFlood flood-opacity="0" result="BackgroundImageFix"/><feBlend in="SourceGraphic" in2="BackgroundImageFix" result="shape"/><feGaussianBlur stdDeviation=".1" result="effect1_foregroundBlur"/></filter><filter id="filter11_f" x="505.927" y="441.334" width="142.574" height="71.436" filterUnits="userSpaceOnUse" color-interpolation-filters="sRGB"><feFlood flood-opacity="0" result="BackgroundImageFix"/><feBlend in="SourceGraphic" in2="BackgroundImageFix" result="shape"/><feGaussianBlur stdDeviation="1" result="effect1_foregroundBlur"/></filter><filter id="filter12_di" x="569.129" y="405.726" width="117.533" height="118.43" filterUnits="userSpaceOnUse" color-interpolation-filters="sRGB"><feFlood flood-opacity="0" result="BackgroundImageFix"/><feColorMatrix in="SourceAlpha" values="0 0 0 0 0 0 0 0 0 0 0 0 0 0 0 0 0 0 127 0"/><feOffset dx="2" dy="2"/><feGaussianBlur stdDeviation="2"/><feColorMatrix values="0 0 0 0 0 0 0 0 0 0 0 0 0 0 0 0 0 0 0.15 0"/><feBlend in2="BackgroundImageFix" result="effect1_dropShadow"/><feBlend in="SourceGraphic" in2="effect1_dropShadow" result="shape"/><feColorMatrix in="SourceAlpha" values="0 0 0 0 0 0 0 0 0 0 0 0 0 0 0 0 0 0 127 0" result="hardAlpha"/><feOffset dx="-2" dy="-2"/><feGaussianBlur stdDeviation="2"/><feComposite in2="hardAlpha" operator="arithmetic" k2="-1" k3="1"/><feColorMatrix values="0 0 0 0 0 0 0 0 0 0 0 0 0 0 0 0 0 0 0.2 0"/><feBlend in2="shape" result="effect2_innerShadow"/></filter><linearGradient id="paint0_linear" x1="209.738" y1="383.386" x2="351.021" y2="493.757" gradientUnits="userSpaceOnUse"><stop stop-color="#B4D1FA" stop-opacity="0"/><stop offset="1" stop-opacity=".2"/></linearGradient><linearGradient id="paint1_linear" x1="389.508" y1="407.114" x2="530.791" y2="517.485" gradientUnits="userSpaceOnUse"><stop stop-color="#B4D1FA" stop-opacity="0"/><stop offset="1" stop-opacity=".2"/></linearGradient><linearGradient id="paint2_linear" x1="448.694" y1="67.436" x2="448.694" y2="523.264" gradientUnits="userSpaceOnUse"><stop stop-color="#AFCDFB"/><stop offset="1" stop-color="#5E89CA"/></linearGradient><linearGradient id="paint3_linear" x1="241.363" y1="389.214" x2="419.485" y2="505.07" gradientUnits="userSpaceOnUse"><stop stop-color="#B4D1FA" stop-opacity="0"/><stop offset="1" stop-opacity=".2"/></linearGradient><linearGradient id="paint4_linear" x1="335.411" y1="324.276" x2="378.561" y2="420.732" gradientUnits="userSpaceOnUse"><stop stop-color="#B4D1FA" stop-opacity="0"/><stop offset="1" stop-opacity=".2"/></linearGradient><linearGradient id="paint5_linear" x1="73.246" y1="412.109" x2="127.773" y2="493.152" gradientUnits="userSpaceOnUse"><stop stop-color="#B4D1FA" stop-opacity="0"/><stop offset="1" stop-opacity=".2"/></linearGradient><linearGradient id="paint6_linear" x1="405.323" y1="376.786" x2="427.757" y2="518.851" gradientUnits="userSpaceOnUse"><stop stop-color="#A62E41"/><stop offset="1" stop-color="#E13152"/></linearGradient><linearGradient id="paint7_linear" x1="475.582" y1="404.058" x2="339.045" y2="399.482" gradientUnits="userSpaceOnUse"><stop stop-color="#A62E41"/><stop offset="1" stop-color="#E13152"/></linearGradient><linearGradient id="paint8_linear" x1="206.517" y1="254.514" x2="77.688" y2="240.505" gradientUnits="userSpaceOnUse"><stop stop-color="#A62E41"/><stop offset="1" stop-color="#E13152"/></linearGradient><linearGradient id="paint9_linear" x1="399.073" y1="341.372" x2="340.751" y2="342.573" gradientUnits="userSpaceOnUse"><stop stop-color="#71A0DD" stop-opacity="0"/><stop offset="1" stop-color="#71A0DD" stop-opacity=".5"/></linearGradient><linearGradient id="paint10_linear" x1="468.81" y1="421.272" x2="646.931" y2="537.128" gradientUnits="userSpaceOnUse"><stop stop-color="#B4D1FA" stop-opacity="0"/><stop offset="1" stop-opacity=".2"/></linearGradient><clipPath id="clip0"><path fill="#fff" transform="matrix(.99857 .05311 -.05308 .99861 426.209 258.284)" d="M0 0h12.029v6.563H0z"/></clipPath></defs></svg>