<svg width="89" height="89" viewBox="0 0 89 89" fill="none" xmlns="http://www.w3.org/2000/svg">
<g filter="url(#filter0_di)">
<path d="M80.31 57.0139C77.5558 64.1888 72.817 70.4319 66.6471 75.0141L42.5 42.5L80.31 57.0139Z" fill="#71A0DD"/>
<path d="M12.8802 14.8791C19.3077 7.98641 27.9378 3.55115 37.2838 2.33732C46.6298 1.12348 56.1065 3.20708 64.0815 8.22918C72.0564 13.2513 78.0303 20.8974 80.9739 29.8504C83.9175 38.8035 83.6465 48.5028 80.2078 57.2775L42.5 42.5L12.8802 14.8791Z" fill="#0A3D76"/>
<path d="M66.8735 74.8447C62.6259 78.0455 57.7895 80.3783 52.6404 81.71C47.4913 83.0416 42.1303 83.3461 36.8635 82.6059L42.5 42.5L66.8735 74.8447Z" fill="#71A0DD"/>
<path d="M37.1354 82.6431C29.6922 81.6484 22.6722 78.604 16.8595 73.8499C11.0467 69.0957 6.67023 62.8191 4.21882 55.7212C1.7674 48.6233 1.33764 40.9837 2.97752 33.6556C4.6174 26.3275 8.26236 19.5997 13.5052 14.2236L42.5 42.5L37.1354 82.6431Z" fill="#B4D1FA"/>
</g>
<defs>
<filter id="filter0_di" x="0" y="-7.62939e-05" width="88.9997" height="89.0001" filterUnits="userSpaceOnUse" color-interpolation-filters="sRGB">
<feFlood flood-opacity="0" result="BackgroundImageFix"/>
<feColorMatrix in="SourceAlpha" type="matrix" values="0 0 0 0 0 0 0 0 0 0 0 0 0 0 0 0 0 0 127 0"/>
<feOffset dx="2" dy="2"/>
<feGaussianBlur stdDeviation="2"/>
<feColorMatrix type="matrix" values="0 0 0 0 0 0 0 0 0 0 0 0 0 0 0 0 0 0 0.15 0"/>
<feBlend mode="normal" in2="BackgroundImageFix" result="effect1_dropShadow"/>
<feBlend mode="normal" in="SourceGraphic" in2="effect1_dropShadow" result="shape"/>
<feColorMatrix in="SourceAlpha" type="matrix" values="0 0 0 0 0 0 0 0 0 0 0 0 0 0 0 0 0 0 127 0" result="hardAlpha"/>
<feOffset dx="-2" dy="-2"/>
<feGaussianBlur stdDeviation="2"/>
<feComposite in2="hardAlpha" operator="arithmetic" k2="-1" k3="1"/>
<feColorMatrix type="matrix" values="0 0 0 0 0 0 0 0 0 0 0 0 0 0 0 0 0 0 0.2 0"/>
<feBlend mode="normal" in2="shape" result="effect2_innerShadow"/>
</filter>
</defs>
</svg>
