<?xml version="1.0" encoding="utf-8"?>
<!-- Generator: Adobe Illustrator 23.0.3, SVG Export Plug-In . SVG Version: 6.00 Build 0)  -->
<svg version="1.1" id="Слой_1" xmlns="http://www.w3.org/2000/svg" xmlns:xlink="http://www.w3.org/1999/xlink" x="0px" y="0px"
	 viewBox="0 0 250 250" style="enable-background:new 0 0 250 250;" xml:space="preserve">
<style type="text/css">
	.st0{fill:#9A384B;}
	.st1{fill:#40689D;}
	.st2{fill:#882F40;}
	.st3{fill:#E87891;stroke:#000000;stroke-width:0.2;}
	.st4{fill:#B4D1FA;}
	.st5{fill:#5E6D82;}
	.st6{fill:#2F527F;}
	.st7{fill:#285EA4;}
	.st8{fill:#793E4B;}
	.st9{fill:#7D414E;}
	.st10{fill:#824351;}
	.st11{fill:#874654;}
	.st12{fill:#B4D1FA;stroke:#000000;stroke-width:0.2;}
</style>
<path class="st0" d="M135.8,225.5l-10.6-5.8c-11.4-6.3-20.6-16-26.3-27.8c-4.9-10.1-6.7-21.9-6.7-34.2c-0.1-11.1,1.7-22.2,5.5-32.6
	l10.6,5.8c-3.7,10.5-5.6,21.5-5.5,32.6c0,12.4,1.7,24.1,6.7,34.2C115.1,209.6,124.3,219.3,135.8,225.5z"/>
<path class="st0" d="M107.5,132.6l-9.9-7.7c1-2.7,2.2-5.4,3.5-8c0.4-0.9,2.4-4,2.8-4.8l11.1,6.1c-0.5,0.9-2,4.4-2.4,5.3
	c-1.3,2.6-3.4,5.8-4.4,8.6"/>
<path class="st1" d="M78.8,39l-11.1-5.9c0.7-0.1,2.5-0.6,3.2-0.5L82.8,39c-0.7-0.2-2.2-0.1-2.9,0"/>
<path class="st1" d="M81.5,38.6l-10.6-5.8c0.3,0.1,0.7,0.2,1,0.4L82.5,39C82.2,38.8,81.9,38.6,81.5,38.6z"/>
<path class="st1" d="M82.5,38.9l-10.6-5.8h0.2l10.6,5.8H82.5z"/>
<path class="st1" d="M40.5,112.5l-11.1-6.3c-3.9-12.9-3.9-26.7,0-39.6l0.6-1.8L42.5,71l-0.6,1.8C38,85.7,36.6,99.1,40.5,112"/>
<path class="st1" d="M40.7,70.6L30,64.8c0.8-2.2,3.2-7.6,4.3-9.7l9.2,9C42.5,66.2,41.5,68.4,40.7,70.6z"/>
<path class="st1" d="M43.6,64.1L33,58.3c0.9-1.7,1.9-3.3,3-4.8l10.6,5.8C45.5,60.8,44.5,62.4,43.6,64.1z"/>
<path class="st1" d="M41.5,73L36,53.5c1-1.4,2.1-2.8,3.2-4.1L58,48.5C56.8,49.8,42.5,71.6,41.5,73z"/>
<path class="st1" d="M49.8,55.1l-10.6-5.8c1-1.1,2-2.1,3.1-3.1l0.8-0.7L55.5,50l-2.6,2C51.8,53,50.8,54,49.8,55.1z"/>
<path class="st1" d="M53.7,51.2L43,45.5c1.6-1.4,3.2-2.7,4.9-3.9l10.6,5.7c-1.7,1.2-2,3-3.6,4.4"/>
<path class="st1" d="M58.5,48.8L48,41.5c2.5-1.7,5-3.2,7.7-4.5l10.6,5.8C63.7,44.1,60.9,47.1,58.5,48.8z"/>
<path class="st1" d="M50.1,55.2l5.7-18.1c4-1.8,8.1-3.3,12.4-4.3h0.6l10.6,5.7l-0.6,0.1C74.5,39.6,54,53.3,50.1,55.2z"/>
<path class="st0" d="M85.1,205.4l-10.8-6.2l9.7-1.4l14.5,6.4L85.1,205.4z"/>
<path class="st2" d="M79.8,213.1l-10.6-5.8c-0.9-0.5-1.5-1.2-2-2.1s-0.7-1.8-0.7-2.8l10.6,5.8c0,1,0.2,2,0.7,2.8
	S79,212.5,79.8,213.1"/>
<path class="st2" d="M78.3,210.5l-11.8-8.1l0.1-60.4l11,5L78.3,210.5z"/>
<path class="st2" d="M98.9,206l-15-8.1l0.3-172.4L96,30.4L98.9,206z"/>
<path class="st0" d="M65.9,144.7l-8.4-9.8l16.9-2.4l10.6,5.8L65.9,144.7z"/>
<path class="st2" d="M37,211.7l-10.6-5.8l31.1-71l10.6,5.8L37,211.7z"/>
<path class="st0" d="M22.7,213.7l-10.6-5.8l14.5-2.5l10.8,6.2L22.7,213.7z"/>
<path class="st2" d="M16.4,222.1l-10.6-5.9c-1.2-0.7-2.1-1.9-2.5-3.3c-0.4-1.4-0.2-4.1,1.6-7l9.8,8.7c-0.6,1.3-0.4,2.1,0,3.5
	s0.6,3.1,1.8,3.9"/>
<path class="st2" d="M14.1,214.6l-10.6-5.8l0.3-0.7l10.6,5.8C14.4,214.2,14.2,214.4,14.1,214.6z"/>
<path class="st0" d="M53.4,139.8L42.8,134l4.3,1l10.6,5.8L53.4,139.8z"/>
<path class="st2" d="M14.4,213.9l-10.6-5.8l32.3-67.3l10.6,5.8L14.4,213.9z"/>
<path class="st0" d="M48.6,137.9L38,132.1l0.9,0.5l10.6,5.8L48.6,137.9"/>
<path class="st0" d="M49.5,138.4l-10.6-5.8c1.2,0.6,2.4,1.1,3.7,1.4l10.6,5.8C51.9,139.4,50.6,139,49.5,138.4z"/>
<path class="st0" d="M53.1,139.8L42.5,134h0.3l10.6,5.8H53.1z"/>
<path class="st0" d="M85.4,23.7l-10.6-5.8c4-0.5,8.1-0.9,12.2-0.9c0.4,0,1.4,0.1,1.8,0.3l10.8,5.9c-0.4-0.1-1.7-0.4-2.1-0.4
	C93.5,22.8,89.4,23.1,85.4,23.7z"/>
<path class="st0" d="M98.9,22.9l-10.6-5.8c0.3,0.1,0.6,0.2,0.9,0.3l10.6,5.8C99.5,23.1,99.2,23,98.9,22.9z"/>
<path class="st0" d="M99.8,23.3l-10.6-5.8h0.2l10.6,5.8H99.8z"/>
<path class="st2" d="M44.4,145.5l-10.6-5.8c-9.8-5.3-21.2-18.2-23.3-42.6l12.3,6.6C25.1,128.1,34.6,140.2,44.4,145.5z"/>
<path class="st0" d="M21,102.9l-10.6-5.8l7.7-1.9l10.6,5.8L21,102.9z"/>
<path class="st0" d="M21.3,81.1l-10.6-5.9c0.5-5.1,1.7-10.2,3.5-15.1l13.1,4.2C25.4,69.3,21.8,75.9,21.3,81.1"/>
<path class="st0" d="M24.7,66.1l-10.6-5.8c0.9-2.5,2-5,3.3-7.3L28,58.7C26.8,61.1,25.7,63.6,24.7,66.1z"/>
<path class="st0" d="M23.7,67.1L17.4,53c1-2,2.2-3.8,3.5-5.7L35.5,48C34.3,49.8,24.8,65.2,23.7,67.1z"/>
<path class="st0" d="M31.5,53.1l-10.6-5.8c1.2-1.7,2.6-3.4,4-5l15.4,0.8C38.9,44.8,32.8,51.3,31.5,53.1z"/>
<path class="st0" d="M35.5,48l-11.6-4.6c1.7-2.2,5.3-5.8,7-7.3l11.9,6c-1.7,1.5-5.9,6.1-7.5,7.8"/>
<path class="st0" d="M40.3,43.1l-10.6-5.8c2.1-1.9,6.3-5.1,9.5-6.9L47,38C44.7,39.6,42.4,41.3,40.3,43.1z"/>
<path class="st0" d="M47,38l-10.6-5.8c1.9-1.3,3.8-2.5,5.8-3.6c1.6-0.9,3.3-1.8,4.9-2.6l13.1,5.3c-1.7,0.8-5.8,2.1-7.5,3.1
	C50.8,35.4,48.9,36.7,47,38"/>
<path class="st0" d="M57.8,33.4L47.1,26c8.8-4,18.8-6.9,28.3-8.2l18.2,5.1C84.1,24.2,66.6,29.4,57.8,33.4z"/>
<path class="st3" d="M85.4,23.8L85.4,23.8c4-0.6,8.1-0.9,12.2-0.9c0.7,0,1.4,0.2,2,0.4c0.6,0.3,1.2,0.7,1.6,1.2
	c0.5,0.5,0.8,1.1,1,1.7s0.3,1.3,0.3,2l0,0l0,0l-0.3,176.4c0,1.6-0.6,3.2-1.6,4.5s-2.5,2.1-4.1,2.4l0,0L83,213.4l0,0
	c-0.7,0.1-1.5,0-2.2-0.2s-1.4-0.6-1.9-1.1s-1-1.1-1.2-1.8c-0.3-0.7-0.4-1.4-0.3-2.2l0,0l0,0v-60.4v-0.1h-0.1l-4.2,0.6H73v0.1
	l-29.6,67.3l0,0c-0.5,1-1.2,2-2.1,2.7c-0.9,0.7-1.9,1.2-3.1,1.4l0,0l-18.8,2.7c-2.1,0.3-3.8-0.7-4.8-2.3c-0.9-1.6-1.1-3.9-0.1-6.1
	l0,0l32.3-67.3v-0.1h-0.1c-10.2-4.5-23.2-17.4-25.6-43.6l7.5-2c2.5,26.8,17.2,37,24.8,38.8l0,0l4.2,1l-34.9,72.7l-0.1,0.2h0.2
	l14.2-2h0.1v-0.1l31.1-70.9l16.7-2.3V205v0.1H85l9.7-1.4h0.1v-0.1l0.3-172.5V31H95c-3.2,0.1-6.3,0.4-9.5,0.8
	c-10.4,1.4-20.6,4.6-29.8,9.6l0,0c-13.7,7.8-24.8,20-26.8,39.5L21.4,81c2.5-23.2,16-38,31.4-46.6C62.9,28.9,74,25.3,85.4,23.8z"/>
<path class="st1" d="M59,121.6l-10.6-5.8l0.7,0.3l10.7,5.7C59.5,121.8,59.3,121.7,59,121.6"/>
<path class="st1" d="M59.6,122.2l-10.5-6.1c0.9,0.4,1.9,0.8,2.9,1.1l0.8,0.2l11.5,5.9h-1.7C61.6,123,60.6,122.6,59.6,122.2"/>
<path class="st1" d="M63.4,123.3l-10.6-5.8c3.2,0.8,6.5,0.9,9.8,0.4c1.3-0.2,4-0.7,5.2-1l9.8,6c-1.3,0.3-3.1,0.6-4.4,0.8
	C69.9,124.3,66.6,124.1,63.4,123.3"/>
<path class="st1" d="M78.5,123.5l-12-4.8V42.2l12,4.8V123.5z"/>
<path class="st1" d="M54.5,129.8L43.9,124c-5.7-3.1-10.8-8.7-14.5-17.8l11.1,5.8C45,121,48.8,126.7,54.5,129.8z"/>
<path class="st4" d="M79.4,38.4c0.8-0.1,1.5-0.1,2.3,0.1c0.7,0.2,1.4,0.6,2,1.1s1,1.1,1.3,1.9c0.3,0.7,0.4,1.5,0.4,2.2l-0.1,80.4
	c0,1.6-0.5,3.1-1.4,4.3c-0.9,1.3-2.2,2.2-3.7,2.7c-2.3,0.7-4.6,1.2-7,1.6c-4.6,0.7-9.3,0.4-13.8-0.9c-7.6-2.3-14.6-8.3-19.3-19.9
	c-3.9-12.9-3.9-26.7,0-39.6C42.6,64.7,47,57.6,52.9,52c7.3-6.6,16.2-11.3,25.9-13.4L79.4,38.4z M77.1,122.9L77.2,48
	c-7.2,1.9-13.8,5.5-19.3,10.4c-4.6,4.4-8.1,9.9-10,15.9c-3.2,10.9-3.2,22.4,0,33.3c3.3,8.3,8.3,13.5,14.7,15.4
	c3.4,1,7.1,1.2,10.6,0.6C74.5,123.5,75.8,123.3,77.1,122.9z"/>
<path d="M79.4,38.4v-0.2l0,0V38.4z M85.4,43.8h-0.2l0,0H85.4z M85.3,124.2h-0.2l0,0H85.3z M80.2,131.2l0.1,0.2l0,0L80.2,131.2z
	 M73.2,132.8v-0.2l0,0V132.8z M59.4,131.9l-0.1,0.2l0,0L59.4,131.9z M40.2,112.1l-0.2,0.1l0,0l0,0L40.2,112.1z M40.2,72.5L40,72.4
	l0,0L40.2,72.5z M52.9,52L52.9,52L52.9,52L52.9,52z M78.8,38.6v-0.2l0,0V38.6z M77.2,48h0.2v-0.3l-0.3,0.1L77.2,48z M58,58.5
	L58,58.5L58,58.5L58,58.5z M48,74.4l-0.2-0.1l0,0L48,74.4z M48,107.7l-0.2,0.1l0,0l0,0L48,107.7z M62.6,123.1l-0.1,0.2l0,0
	L62.6,123.1z M73.2,123.7v-0.2l0,0V123.7z M79.4,38.6c0.7-0.1,1.5-0.1,2.2,0.1l0.1-0.4c-0.8-0.2-1.6-0.3-2.4-0.1L79.4,38.6z
	 M81.6,38.7c0.7,0.2,1.4,0.7,1.9,1.2l0.3-0.3c-0.6-0.5-1.3-1-2.1-1.3L81.6,38.7z M83.5,39.9c0.6,0.5,1,1,1.3,1.7l0.4-0.1
	c-0.3-0.7-0.8-1.4-1.4-1.9L83.5,39.9z M84.8,41.6c0.3,0.7,0.4,1.4,0.4,2.2h0.4c0-0.8-0.1-1.6-0.4-2.3L84.8,41.6z M85.2,43.8
	l-0.1,80.4h0.4l0.1-80.4L85.2,43.8z M85.1,124.2c0,1.5-0.5,3-1.4,4.2l0.3,0.2c0.9-1.3,1.4-2.8,1.4-4.4L85.1,124.2z M83.7,128.4
	c-0.9,1.2-2.1,2.1-3.6,2.6l0.1,0.4c1.5-0.5,2.8-1.6,3.8-2.8L83.7,128.4z M80.1,131c-2.3,0.7-4.6,1.2-7,1.6l0.1,0.4
	c2.4-0.4,4.7-0.9,7-1.6L80.1,131z M73.2,132.6c-4.6,0.7-9.2,0.4-13.7-0.9l-0.1,0.4c4.5,1.3,9.2,1.6,13.8,0.9V132.6z M59.5,131.8
	c-7.6-2.3-14.5-8.2-19.2-19.7l-0.4,0.1c4.7,11.7,11.7,17.6,19.4,20L59.5,131.8z M40.4,112c-3.9-12.9-3.9-26.6,0-39.5L40,72.4
	c-3.9,13-3.9,26.8,0,39.7L40.4,112z M40.4,72.5c2.4-7.8,6.8-14.8,12.7-20.4l-0.3-0.3c-6,5.7-10.4,12.8-12.8,20.6L40.4,72.5z
	 M53.1,52.1c7.3-6.6,16.1-11.2,25.7-13.4l-0.1-0.4c-9.7,2.2-18.5,6.9-25.9,13.5L53.1,52.1z M78.8,38.7l0.6-0.1l-0.1-0.4l-0.6,0.1
	L78.8,38.7z M77.3,122.9L77.4,48H77l-0.1,74.9H77.3z M77.2,47.8c-7.2,1.9-13.9,5.5-19.4,10.5l0.3,0.2c5.5-4.9,12.2-8.4,19.3-10.3
	L77.2,47.8z M57.8,58.3c-4.7,4.4-8.1,9.9-10.1,16l0.4,0.1c1.9-6,5.3-11.5,10-15.9L57.8,58.3z M47.7,74.3
	c-3.2,10.9-3.1,22.5,0.1,33.4l0.4-0.1c-3.2-10.8-3.3-22.4-0.1-33.2L47.7,74.3z M47.8,107.7c3.3,8.3,8.4,13.6,14.8,15.5l0.1-0.4
	c-6.3-1.9-11.2-7.1-14.6-15.3L47.8,107.7z M62.6,123.3c3.5,1,7.1,1.2,10.7,0.6l-0.1-0.4c-3.5,0.6-7.1,0.4-10.5-0.6L62.6,123.3z
	 M73.3,123.9c1.3-0.2,2.7-0.6,4-1l-0.2-0.2c-1.3,0.3-2.8,0.7-4.1,0.9L73.3,123.9z"/>
<path class="st5" d="M218.5,202.6l-10.6-5.8l-0.3-0.2l10.6,5.8C218.3,202.5,218.4,202.6,218.5,202.6z"/>
<path class="st1" d="M196.8,181.1l-10.6-5.8c5.8-6,6.8-9.2,7.5-10.1l5.5,13.3C198.3,179.5,197.5,180.3,196.8,181.1z"/>
<path class="st1" d="M199.2,178.5l-10.6-5.8l0.2-0.2c0.8-1,1.6-2,2.3-3l10.6,5.8c-0.7,1-1.5,2.1-2.3,3L199.2,178.5z"/>
<path class="st1" d="M199.4,178.6l-8.4-9.1c1.2-1.7,2.4-3.6,3.4-5.5l18.6-1.5c-1,1.9-10.1,12-11.3,13.8"/>
<path class="st1" d="M205.1,169.8l-10.6-5.8l0.8-1.6c1-2.1,2-4.3,2.8-6.4l10.6,5.8c-0.8,2.1-1.7,4.3-2.8,6.4L205.1,169.8z"/>
<path class="st1" d="M208.7,161.8L198,156c0.6-1.7,1.2-3.5,1.6-5.2c0-0.2,0-0.3,0.2-0.5l10.8,5.8c0,0.2,0,0.4-0.2,0.5
	c-0.5,1.8-1,3.5-1.6,5.2"/>
<path class="st1" d="M210.6,156.1l-10.6-5.8c0.1-0.2,0.2-0.5,0.3-0.7l10.5,5.9c-0.1,0.2-0.2,0.4-0.3,0.7"/>
<path class="st1" d="M210.8,155.5l-10.6-5.8c0.1-0.2,0.2-0.4,0.3-0.5l10.6,5.8C211.1,155.1,210.9,155.3,210.8,155.5z"/>
<path class="st1" d="M211.1,154.8l-10.6-5.8l0.4-0.5l10.6,5.8L211.1,154.8z"/>
<path class="st1" d="M212.1,154.3l-14.4-6.4c0.4-0.2,4.8-1.1,5.2-1.2c0.4,0,0.8,0,1.1,0c0.6,0.1,0.9,0.2,1.2,0.4l0.5,0.2l11.3,6.4
	h-0.3c-0.4,0-0.8,0-1.1,0C215.2,153.8,212.5,154.1,212.1,154.3z"/>
<path class="st1" d="M154.6,189.2l-10.7-5.7l1.1,0.6l10.6,5.8C155.2,189.6,154.9,189.5,154.6,189.2"/>
<path class="st1" d="M155.6,189.8L145,184c1.9,0.9,3.8,1.6,5.8,2.1l10.6,5.8C159.4,191.4,157.5,190.7,155.6,189.8z"/>
<path class="st1" d="M161.4,191.9l-10.6-5.8c4.2,1.1,8.5,1.3,12.8,0.7c3.8-0.6,7.4-1.7,10.8-3.3l12.9,6.1c-3.4,1.6-9.5,4.1-13.3,4.6
	c-4.3,0.6-9.1-0.1-13.3-1.2"/>
<path class="st1" d="M185,189.3l-15.5-3.9c3-1,8.9-4,10.8-5.3l10.7,5.7C189.1,187.1,187.1,188.2,185,189.3"/>
<path class="st1" d="M187.3,192.5l-7-12.4c1.6-1.1,3-2.2,4.4-3.5l18.2,1.4c-1.4,1.3-4.8,6.4-6.4,7.5"/>
<path class="st1" d="M195.4,182.4l-10.6-5.8l5.2-4.8l6.8,9.4L195.4,182.4"/>
<path class="st6" d="M200,120.1l-11.4-5.9c-0.2-0.1-0.4-0.2-0.5-0.3c-1.4-1.2-3-2.3-4.7-3.2l10.7,5.4c1.7,0.9,3.9,2.4,5.4,3.6
	C199.7,119.9,199.8,120,200,120.1z"/>
<path class="st6" d="M150,197.4l-10.6-5.9c-7.1-3.9-12.8-9.9-16.3-17.2c0-0.1-0.1-0.2-0.2-0.3l12.9,2.3l1.6,2.6
	C140.9,186.2,143,193.5,150,197.4z"/>
<path class="st1" d="M115,187.5l-10.6-5.8l15.6-16l13.3,5.2L115,187.5z"/>
<path class="st6" d="M131.7,172.1l-11.7-6.4c-1-4-1.5-8.1-1.5-12.3c0-5.8,1-11.6,2.8-17l11.6,4.2c-1.8,5.5-3.8,12.9-3.8,18.6
	C129.1,163.3,130.7,168,131.7,172.1z"/>
<path class="st1" d="M135.5,133.5l-10.6-5.8l0.9-1.7l11.1,5.6L135.5,133.5z"/>
<path class="st1" d="M136.1,132.4l-10.6-5.8c1.1-2.1,2.3-4.1,3.7-6l10.6,5.8C138.4,128.4,137.1,130.4,136.1,132.4z"/>
<path class="st1" d="M139.7,129.2l-10.6-8.5c2.2-3.1,4.4-6,7.4-8.6l9.2,8.6C144.3,122.3,141,127.4,139.7,129.2z"/>
<path class="st1" d="M143.8,121.3l-10.6-5.8c1.5-1.6,3-3.2,4.7-4.7l10.6,5.8C146.8,118.1,145.2,119.7,143.8,121.3z"/>
<path class="st1" d="M148.4,116.7l-10.6-5.8c1.7-1.6,3.6-3,5.5-4.4l10.6,5.8C151.9,113.7,150.1,115.1,148.4,116.7"/>
<path class="st1" d="M153.8,112.4l-10.6-5.8c2.3-1.6,4.8-3,7.3-4.2l10.6,5.8C158.6,109.3,156.1,110.7,153.8,112.4"/>
<path class="st1" d="M155.6,113.7l-5.1-11.3c4.2-2,8.6-3.3,13.2-4l10.6,5.8c-4.5,0.7-9,2-13.2,4"/>
<path class="st7" d="M131.9,142.2l-10.6-5.8l-10.2-7l5.5,2.4L131.9,142.2z"/>
<path class="st0" d="M241.6,160.1l-12.1-5.8c1.1-0.3,1.7-0.6,3.5,0l10.4,5.8H241.6z"/>
<path class="st0" d="M243.4,160.2l-10.6-5.8l10.8,5.8"/>
<path class="st2" d="M241.5,150.8l-10.6-5.8c-0.6-0.4-1.1-0.9-1.5-1.5c-0.3-0.6-0.5-1.3-0.4-2c0-1,0-1.9,0-2.9
	c0-3.8-0.3-7.7-0.9-11.4l11.2,5.2c0.6,3.8,0.8,8.3,0.7,12.1c0,1,0.4,1.9,0.4,2.9c-0.1,0.7-0.3,1.1,0,1.7c0.3,0.6,1.1,0.8,1.7,1.2"/>
<path class="st0" d="M242.2,123.5l-10.7-5.8c0.5-0.1,1-0.1,1.4,0l10.6,5.8C243.2,123.4,242.7,123.4,242.2,123.5"/>
<path class="st0" d="M242.8,123.5l-10.5-5.9l1.6,0.4l10.6,5.8L242.8,123.5z"/>
<path class="st0" d="M244.3,123.8l-10.6-5.8L244.3,123.8z"/>
<path class="st0" d="M179.1,158.4l-10.6-5.8l31.6-5.3l11,6.4L179.1,158.4z"/>
<path class="st0" d="M172.7,167.6l-10.6-5.8c-0.3-0.1-0.5-0.3-0.7-0.5c-0.4-0.4-0.7-0.9-0.9-1.4s-0.3-1.1-0.3-1.6l10.6,5.8
	c0,0.6,0.1,1.1,0.3,1.7c0.2,0.5,0.5,1,0.9,1.4C172.2,167.4,172.4,167.5,172.7,167.6"/>
<path class="st0" d="M199.6,112.4l-11.1-6.7l14.9-19l11.1,5.7L199.6,112.4z"/>
<path class="st8" d="M199.9,118.2l-10.6-5.8c-0.2-0.1-0.4-0.3-0.6-0.4c-0.6-0.6-1.1-1.4-1.2-2.3c-0.2-0.9-0.1-1.8,0.2-2.6l10.6,5.8
	c-0.3,0.8-0.4,1.7-0.2,2.6s0.6,1.6,1.2,2.3C199.4,117.9,199.7,118.1,199.9,118.2z"/>
<path class="st9" d="M198.3,112.9l-10.6-5.8c0-0.2,0.2-0.5,0.3-0.7l10.6,5.8C198.5,112.5,198.4,112.7,198.3,112.9z"/>
<path class="st10" d="M198.6,112.2l-10.6-5.7c0-0.2,0.2-0.4,0.3-0.6l10.6,5.7C198.8,111.9,198.7,112.1,198.6,112.2"/>
<path class="st11" d="M198.9,111.7l-10.6-5.8l0.2-0.2l10.6,5.8L198.9,111.7z"/>
<path class="st0" d="M140.2,217.3l-10.6-5.8l2,1l10.6,5.8L140.2,217.3"/>
<path class="st0" d="M142.2,218.4l-10.6-5.8c3.3,1.6,6.7,2.9,10.2,3.8l10.5,5.7C148.8,221.2,145.4,220,142.2,218.4z"/>
<path class="st0" d="M152.4,222.9l-12-6.9c7.3,1.9,16.4,2.6,23.8,1.5c6.6-0.9,13-2.9,19-5.7l10.6,5.8c-6,2.9-12.1,5.2-18.7,6.1
	C167.7,224.8,159.7,224.8,152.4,222.9z"/>
<path class="st0" d="M190.3,222.1l-7.1-10.3c3.6-1.7,7.1-3.7,10.4-6l11.9,6c-3.3,2.3-8.2,4.4-11.9,6.1"/>
<path class="st0" d="M204.6,212.1l-12.7-5.2c2.7-1.9,8.5-6.4,11-8.7l10.4,7.5C210.8,208,207.4,210.2,204.6,212.1z"/>
<path class="st0" d="M212.7,205.8l-11.3-6.2c2.3-2.1,4.5-4.3,6.6-6.7l10.6,5.8C216.6,201,215,203.7,212.7,205.8z"/>
<path class="st0" d="M218.7,198.7l-10.6-5.8l0.4-0.5c1.9-2.2,3.7-4.6,5.4-7l10.7,5.8c-1.7,2.4-3.5,4.8-5.4,7L218.7,198.7"/>
<path class="st0" d="M224.6,191.3l-11.3-5.1c1.9-2.7,4.7-7,6.3-10l10.3,6.5C228.2,185.7,226.5,188.5,224.6,191.3z"/>
<path class="st0" d="M229.8,182.7l-10.6-5.8c1.9-3.5,3.5-7.1,4.9-10.9l11.8,5.6c-1.4,3.7-3.3,8.1-5.2,11.6"/>
<path class="st0" d="M233.5,175.1l-9.8-8.1c1-2.7,2.2-6.4,2.9-9.2c0-0.2,0.6-2.9,2.9-3.5l12.8,5.9c0,0.2-5,3.2-5.1,3.4
	c-0.7,2.8-1,6.5-2,9.2"/>
<path class="st0" d="M237.4,163l-10.5-5.8c0.1-0.2,0.2-0.5,0.3-0.7l10.6,5.8C237.7,162.6,237.6,162.8,237.4,163"/>
<path class="st0" d="M237.7,162.3l-10.6-5.8c0-0.2,0.2-0.4,0.3-0.6l10.6,5.8C237.9,162,237.8,162.1,237.7,162.3z"/>
<path class="st0" d="M238.1,161.8l-10.6-5.8l0.4-0.5l10.8,5.8l-0.4,0.5"/>
<path class="st0" d="M238.1,161.8l-10.4-6.3l0.4-0.4l10.6,5.8l1-0.8"/>
<path class="st0" d="M239.3,161.3l-11.1-6.2c0.2-0.1,0.3-0.3,0.5-0.4l10.6,5.8C239.2,160.6,239.5,161.1,239.3,161.3z"/>
<path class="st0" d="M239.4,160.5l-10.6-5.8l0.7-0.4l10.6,5.8L239.4,160.5"/>
<path class="st0" d="M239.3,160.7l-11-5.8c0.6-0.6,1.9-0.8,2.3-0.9c0.4-0.1,0.7-0.1,1.1,0l10.6,5.8c-0.4-0.1-0.7-0.1-1.1,0
	C240.8,159.9,239.7,160.5,239.3,160.7z"/>
<path class="st8" d="M214,92.6l-10.6-5.9c-1.8-1.1-3.6-2.1-5.4-3.1l10.6,5.8C210.3,90.4,212.1,91.4,214,92.6"/>
<path class="st0" d="M173.4,134.7l-8.7-7.5l66.8-9.5l12.9,6.1L173.4,134.7z"/>
<path class="st0" d="M171,165.7l-10.9-7.5l0.1-26.1l10.5,5.8L171,165.7z"/>
<path class="st0" d="M171.1,138.7l-10.9-6.5c0-0.6,0.2-1.8,0.5-2.4l10.4,6.4c-0.2,0.6,0.6,1.9,0.6,2.5"/>
<path class="st0" d="M171.1,136.2l-10.6-5.8c0.2-1.1,1.5-1.8,1.6-2l9.3,7.1C171.3,135.7,171.2,135.9,171.1,136.2z"/>
<path class="st0" d="M171.5,135.5l-10.6-5.8c0.1-0.2,0.2-0.4,0.3-0.5l10.6,5.8C171.6,135.1,171.5,135.3,171.5,135.5z"/>
<path class="st0" d="M170.7,140.7l-9.5-11.5c0.1-0.1,0.2-0.2,0.3-0.3c1-1.1,2.8-1.7,3.4-1.7l8.1,6.9l-0.7,0.6l-1.6,7.3"/>
<path class="st3" d="M246.2,126.4L246.2,126.4L246.2,126.4c1.1,5.5,1.7,11.1,1.7,16.8v3.2c0,1.1-0.5,2.2-1.2,3.1
	c-0.7,0.9-1.7,1.5-2.9,1.7c-0.5,0.1-1.1,0-1.6-0.2s-1-0.5-1.4-0.8c-0.4-0.4-0.7-0.8-0.9-1.4c-0.2-0.5-0.2-1.1-0.2-1.6l0,0l0,0v-2.9
	c0-3.8-0.3-7.7-0.9-11.5v-0.1h-0.1l-59.7,8.4h-0.1v0.1v17.2v0.1h0.1l35.9-5.3c0.4,0,0.8,0.1,1.2,0.3c0.1,0,0.2,0.1,0.2,0.1l-1.6,8.7
	l-39.9,5.6l0,0l0,0c-0.5,0.1-1,0.1-1.5-0.1c-0.5-0.1-0.9-0.4-1.3-0.7c-0.4-0.4-0.7-0.8-0.9-1.3s-0.3-1-0.3-1.6l0,0l0,0v-26.1l0,0
	c0-1.3,0.4-2.5,1.3-3.5l0,0l0,0c0.7-0.9,1.7-1.5,2.9-1.7l0,0l67.3-9.5l0,0c0.9-0.1,1.8,0.1,2.6,0.7
	C245.6,124.7,246.1,125.5,246.2,126.4z"/>
<path class="st0" d="M113.1,120.4l-10.6-5.8c1.8-3.3,3.8-6.6,5.9-9.6l16.8,0.9C123,108.9,114.8,117.1,113.1,120.4z"/>
<path class="st0" d="M119,110.8l-10.6-5.8c2-2.9,4.2-5.7,6.6-8.3l14.1,1.4C126.7,100.7,121,107.9,119,110.8"/>
<path class="st0" d="M125.6,102.4L115,96.6c2.3-2.6,4.8-5.2,7.4-7.5l17.4,1.9C137.2,93.4,127.9,99.8,125.6,102.4z"/>
<path class="st0" d="M133,94.9l-10.6-5.8c2.8-2.5,5.8-4.8,8.9-7l10.6,5.8C138.7,90.1,135.8,92.4,133,94.9z"/>
<path class="st0" d="M140.5,90.2l-9.2-8c3.7-2.6,7.6-4.9,11.7-6.8l13.2,5C152,82.3,144.2,87.6,140.5,90.2z"/>
<path class="st0" d="M154.4,82l-11.5-6.6c6.8-3.2,14-5.4,21.4-6.5c8-1.3,16.3-1,24.2,0.9l10.6,5.8c-7.9-1.9-16.1-2.2-24.2-0.9
	c-7.4,1.1-13.5,4-20.3,7.2"/>
<path class="st0" d="M197.1,75.7l-13.3-6.9c1.2,0.3,4,0.6,8.7,1.7c2.5,0.9,14.4,4.6,22.5,11l8.7,6.4c-2.4-1.2-18.6-10.4-21.1-11.2
	c-1.1-0.3-2.3-0.7-3.4-1"/>
<path class="st3" d="M245.2,164.8L245.2,164.8L245.2,164.8c-3.7,14.4-10.7,27.8-20.5,39l0,0C212,219,194.3,229,174.8,232.1
	c-13.1,2.1-26.6-0.2-38.3-6.4c-11.8-6.2-21.2-16-26.9-28l0,0c-5-10.1-6.7-21.8-6.7-34.2l0,0c-0.2-14.1,2.8-28,8.9-40.6
	c12.5-25.2,36.3-44.4,63.3-48.2l0,0c9.2-1.6,18.6-0.9,27.5,1.9c7,2.7,13.8,6.1,20,10.3l0,0c0.5,0.3,0.9,0.7,1.2,1.2s0.5,1.1,0.5,1.7
	l0,0l0,0c0.1,1.3-0.3,2.6-1.1,3.6l0,0L205,116.7c-1.1,1.1-1.8,1.6-3,1.8l0,0c-0.5,0.1-1,0-1.5-0.1s-0.9-0.4-1.3-0.7
	c-0.8-0.8-1.2-1.9-1.3-3c0-1.1,0.4-2.2,1.1-3.1l0,0l0,0l14.9-18.9l0.1-0.1l-0.1-0.1c-4.6-3-9.6-5.4-14.7-7.3l0,0l0,0
	c-7.8-2.5-16.2-3-24.3-1.6c-24,3.2-45,20.2-56.2,42.7l0,0c-5.4,11.3-8,23.6-7.8,36.1c0,11.5,1.6,21.8,5.8,30.3
	c5.1,10.7,13.4,19.4,23.9,24.9s22.4,7.5,34.1,5.6v-0.1v0.1c17.3-2.8,33.1-11.7,44.4-25.1c8.7-10,14.9-21.9,18.2-34.7l0,0
	c0.2-0.9,0.7-1.8,1.4-2.5s1.6-1.1,2.5-1.3l0,0c0.3-0.1,0.7-0.1,1.1,0c0.5,0.1,1,0.3,1.5,0.7c0.4,0.3,0.8,0.7,1.1,1.2s0.4,1,0.5,1.5
	C245.4,163.8,245.3,164.3,245.2,164.8z"/>
<path class="st1" d="M170.8,107.6l-7.1-9.2c5.2-0.8,10.5-0.5,15.6,0.8L190,105C184.9,103.7,176,106.9,170.8,107.6z"/>
<path class="st1" d="M185.3,104.1l-5.9-4.9c2.4,0.6,4.8,1.5,7,2.6l10.6,5.8C194.8,106.5,187.7,104.7,185.3,104.1z"/>
<path class="st12" d="M190,105c-36.3-8.4-54.5,28.3-54.5,28.3l-0.1,0.1l-0.1-0.1l-15.1-9.5c-1.6,3.1-2.5,4.8-3.7,8l15.3,10.3h0.1
	v0.1c-1.8,5.5-2.7,11.2-2.7,16.9l0,0c0,4.1,0.5,8.3,1.5,12.3v0.1l0,0l-16.2,15.3c0.6,2.3,2.2,6.4,3.9,9.2l15.3-16.2l0.1-0.1l0.1,0.1
	l0.2,0.3l0,0l0,0c3.5,7.4,9.3,13.5,16.6,17.3c7.2,3.8,15.5,5.2,23.6,4l0,0c9.3-1.4,18-5.4,25.1-11.6l0.1-0.1h0.1l16.9,11.2l0,0l0,0
	c0,0,0.1,0.1,0.2,0c0.1,0,0.2-0.1,0.4-0.3c0.3-0.3,0.8-0.7,1.3-1.4c0.5-0.5,1-1.2,1.6-1.9c0.1-0.1,0.2-0.2,0.3-0.4
	c0.7-0.9,1.5-1.9,2.4-2.9l-16.6-11.1l-0.1-0.1l0.1-0.1c2.8-3.5,5.2-7.3,7.2-11.4l0,0c2.2-4.4,3.9-9,5.2-13.7l0,0l0,0
	c0.2-0.5,0.2-1,0.2-1.6c-0.1-0.5-0.2-1-0.5-1.5s-1.1-1.5-2.8-1.5l-4,0.6c-0.2,0.8-0.3,1.3-0.4,1.6c-0.1,0.5-0.1,0.6-0.3,1.2l0,0
	c-1.1,4-2.5,7.9-4.4,11.7c-1.8,3.6-4,7.1-6.5,10.2l0,0c-0.8,1-1.7,1.9-2.6,2.8c-6.1,6.1-14.1,10.1-22.7,11.4
	c-6.6,1.1-13.5-0.1-19.4-3.2c-6-3.1-10.7-8.1-13.6-14.2c-0.8-1.6-1.4-3.2-2-4.9l0,0c-1.2-4-1.9-8.1-1.8-12.3l0,0l0,0
	c0-5.7,1.2-11.4,3.4-16.8l1.6-3.8c6.3-12.7,18.3-22.4,32-24.4c4.3-0.7,8.7-0.4,12.9,0.7s8.1,3.1,11.5,5.9c0.4,0.3,0.8,0.5,1.3,0.6
	c0.2,0.1,0.3,0.1,0.4,0.1c0,0,0.1,0,0.2,0l0,0c0.1,0,0.1,0,0.3,0c0.3,0,0.6-0.2,1-0.4c0.4-0.2,0.7-0.5,1-0.8l0,0l0,0l1.2-1.2
	c0.6-0.6,1.7-1.7,2.8-3.4c-1.4-1.1-1.9-1.5-2.1-1.6l0,0c-0.1-0.1-0.1-0.1-0.2-0.2c-0.1-0.1-0.1-0.1-0.3-0.3l-0.1-0.1
	C200,109,195.1,106.4,190,105 M133.5,180L133.5,180"/>
<path class="st1" d="M197.1,107.6l-10.6-5.7c0.5,0.2,0.9,0.4,1.4,0.7l10.6,5.8C198,108.1,197.5,107.9,197.1,107.6"/>
</svg>
