<svg width="260" height="191" fill="none" xmlns="http://www.w3.org/2000/svg"><path d="M97.016 191L.582 155.114.55 40.061 97.049 75.98 97.016 191z" fill="#053866"/><path d="M193.709 154.827l-96.531-36.046.097-114.765 96.628 35.918-.194 114.893z" fill="#102E5B"/><path d="M97.017 191l96.886-36.3V39.934L97.049 75.979 97.017 191z" fill="#054270"/><path d="M.582 155.114l96.628-36.588.065-114.51L.55 40.06l.032 115.053z" fill="#0A2D49"/><path d="M97.016 191L.582 155.082.55 40.062l96.499 35.917L97.016 191z" fill="#053866"/><path d="M24.666 77.987L.582 68.967.55 40.062l24.116 9.21v28.716z" fill="#053866"/><path d="M6.983 67.82a16.14 16.14 0 01-6.4-1.147L.517 63.58c4.946 1.849 9.698 1.498 13.319-.956 4.364-2.964 7.112-7.808 7.112-14.915l2.91 1.147c0 8.032-2.425 12.59-7.565 16.095a17.306 17.306 0 01-9.31 2.868z" fill="#B9D5FD"/><path d="M48.75 87.007l-24.084-9.02V49.272l24.084 9.02v28.715z" fill="#0E2951"/><path d="M72.834 96.026l-24.084-9.02V58.291l24.084 9.02v28.715z" fill="#709FDC"/><path d="M96.918 104.918l-24.084-8.892V67.31l24.214 8.67-.13 28.938z" fill="#6780B3"/><path d="M24.666 106.702L.582 97.683V68.968l24.084 9.02v28.714z" fill="#B9D5FD"/><path d="M48.75 115.722l-24.084-9.02V77.987l24.084 9.02v28.715z" fill="#274684"/><path d="M72.834 124.741l-24.084-9.019V87.007l24.084 9.019v28.715z" fill="#3D95D1"/><path d="M96.918 133.633l-24.084-8.892V96.026l24.084 8.892v28.715zM48.75 144.437l-24.084-9.019v-28.715l24.084 9.019v28.715z" fill="#B9D5FD"/><path d="M72.834 153.457l-24.084-9.02v-28.715l24.084 9.019v28.716z" fill="#0E2951"/><path d="M96.918 162.348l-24.084-8.892v-28.715l24.084 8.892v28.715z" fill="#709FDC"/><path d="M24.666 164.133L.582 155.082v-28.715l24.084 9.051v28.715z" fill="#6780B3"/><path d="M48.75 173.152l-24.084-9.019v-28.715l24.084 9.019v28.715z" fill="#053866"/><path d="M72.834 182.172l-24.084-9.02v-28.715l24.084 9.019v28.716z" fill="#B9D5FD"/><path d="M97.015 191l-24.181-8.828v-28.715l24.084 8.891.097 28.652zM5.496 61.86a12.526 12.526 0 01-4.914-.923v-3.442c3.46 1.306 7.726.86 9.86-.542 3.556-2.327 5.302-5.928 5.302-10.932l2.91 1.148c0 6.15-2.231 9.911-6.208 12.62a12.41 12.41 0 01-6.95 2.072z" fill="#3D95D1"/><path d="M3.783 55.231a7.802 7.802 0 01-3.201-.605v-3.442c2.069.765 5.237.574 6.983-1.147 1.843-1.817 2.327-3.283 2.327-6.31l2.91 1.147c0 4.206-1.455 7.043-4.235 8.891a8.389 8.389 0 01-4.784 1.466z" fill="#3376B3"/><path d="M2.166 48.602a3.172 3.172 0 01-1.584-.286v-3.442c.517.19 2.23.318 2.91 0 1.163-.574 1.163-1.721.581-3.442l3.492 1.147c0 2.39-.873 4.047-2.49 5.163a5.367 5.367 0 01-2.909.86z" fill="#709FDC"/><path d="M96.305 158.333l-20.399-7.617v-49.623l20.787 7.49v4.015l-17.295-6.533v42.26l16.713 6.215.194 3.793z" fill="#274684"/><path d="M96.693 159.129l-20.787-8.413V125.41l3.492 1.148v21.767l17.295 6.789v4.015z" fill="#0E2951"/><path d="M96.306 150.875l-14.613-5.482v-35.822l15 5.354v4.016l-11.508-4.398v29.066l11.508 4.047-.387 3.219z" fill="#274684"/><path d="M96.305 143.991l-8.341-3.124V119.96l8.728 2.996v4.016l-5.237-2.04v13.545l5.237 2.263-.387 3.251z" fill="#274684"/><path d="M96.692 144.182l-8.728-3.314v-10.964l3.491 1.148v7.426l5.237 1.689v4.015z" fill="#0E2951"/><path d="M96.694 151.672l-15-5.705v-18.389l3.49 1.147v14.884l11.51 4.047v4.016z" fill="#0E2951"/><path d="M18.88 161.966L.582 155.082v-21.8l18.298 6.853v21.831z" fill="#053866"/><path d="M12.64 159.608L.582 155.082V140.74l12.058 4.526v14.342z" fill="#709FDC"/><path d="M72.738 77.828L64.01 92.584 48.848 76.489l8.76-14.756 15.13 16.095z" fill="#0E2951"/><path d="M66.887 77.51l-4.461 7.52-7.727-8.19 4.462-7.553 7.726 8.222z" fill="#6780B3"/><path d="M72.834 182.172l-24.084-9.02v-22.978l24.084 9.019v22.979z" fill="#3D95D1"/><path d="M72.834 182.172l-24.084-9.019v-16.669l24.084 9.02v16.668z" fill="#6780B3"/><path d="M72.834 182.172l-24.084-9.019v-10.358l24.084 9.051v10.326z" fill="#053866"/><path d="M72.834 182.172l-24.084-9.019v-5.163l24.084 9.019v5.163zM24.666 84.84l24.084 9.019-24.084 7.107 24.084 9.019-24.084-25.146z" fill="#0E2951"/><path d="M3.492 98.83l-2.91-1.147V68.968l2.91 1.147v28.716zm4.655 1.722l-2.91-1.148V70.69l2.91 1.147v28.716zm15.162 5.736l-2.91-1.147V76.426l2.91 1.147v28.715zm-5.076-2.103l-3.492-1.148V74.354l3.492 1.147v28.684zm-5.431-1.913l-2.91-1.147V72.41l2.91 1.147v28.715z" fill="#709FDC"/><path d="M24.666 135.418L.582 126.367V97.683l24.084 9.019v28.716z" fill="#0E2951"/><path d="M24.667 135.418l-12.026-4.526V116.55l12.026 4.494v14.374zM12.64 116.551L.582 112.025V97.683l12.058 4.494v14.374z" fill="#3D95D1"/><path d="M39.181 158.365l-4.946-1.849v-5.673l8.664 3.251v9.943l-12.382-4.653V145.17l16.067 6.024v18.58l-19.752-7.426v-23.552l19.752 7.394" stroke="#3D95D1" stroke-width="3" stroke-miterlimit="10"/><path d="M77.167 180.355l16.39-15.68m0 21.799l-16.39-27.95" stroke="#0E2951" stroke-width="6" stroke-miterlimit="10"/><path d="M57.414 129.299l-3.847-1.434v-4.59l3.847 1.435v4.589zm5.302 8.318l-3.847-1.466v-4.589l3.847 1.434v4.621zm5.302 8.286l-3.847-1.434v-4.59l3.847 1.435v4.589z" fill="#B9D5FD"/><path d="M97.049 75.98l96.854-36.046.033 114.893L97.016 191l.033-115.02z" fill="#053866"/><path d="M169.657 106.448l24.279-9.052v28.716l-24.279 9.019v-28.683z" fill="#B9D5FD"/><path d="M145.411 115.467l24.246-9.019v28.683l-24.246 9.051v-28.715z" fill="#274684"/><path d="M121.165 124.486l24.246-9.019v28.715l-24.246 9.02v-28.716z" fill="#053866"/><path d="M96.919 133.633l24.246-9.146v28.715l-24.246 9.147v-28.716zm48.492-46.881l24.246-9.02v28.716l-24.246 9.019V86.752z" fill="#B9D5FD"/><path d="M121.165 95.77l24.246-9.019v28.716l-24.246 9.019V95.771z" fill="#0E2951"/><path d="M96.919 104.918l24.246-9.147v28.715l-24.246 9.147v-28.715z" fill="#709FDC"/><path d="M145.411 144.182l24.246-9.051v28.715l-24.246 9.051v-28.715z" fill="#0E2951"/><path d="M121.165 153.202l24.246-9.02v28.715l-24.246 9.02v-28.715z" fill="#709FDC"/><path d="M96.919 162.348l24.246-9.147v28.716L97.015 191l-.096-28.652zm72.738-113.331l24.246-9.083.033 28.747-24.279 9.051V49.017z" fill="#6780B3"/><path d="M145.411 58.036l24.246-9.02v28.716l-24.246 9.02V58.036z" fill="#053866"/><path d="M121.165 67.055l24.246-9.019v28.715l-24.246 9.02V67.055z" fill="#B9D5FD"/><path d="M97.048 75.98l24.117-8.924V95.77l-24.246 9.147.13-28.939z" fill="#3D95D1"/><path d="M96.693 159.13v-4.016l17.877-7.044v-42.26l-17.037 6.342-1.228-3.219 21.756-8.095v49.623l-21.368 8.669z" fill="#274684"/><path d="M118.062 126.303l-3.491 1.147v-21.64l-17.878 6.789v-4.016l21.369-7.745v25.465z" fill="#0E2951"/><path d="M96.693 151.672v-4.016l12.059-4.876v-28.492l-12.059 4.653v-4.016l15.55-4.462v34.707l-15.55 6.502z" fill="#274684"/><path d="M96.693 144.182v-4.015l5.754-1.944v-13.545l-4.914 1.848-1.228-3.219 9.633-3.601v20.907l-9.245 3.569z" fill="#274684"/><path d="M105.939 130.223l-3.491 1.147v-6.692l-5.755 2.294v-4.015l9.246-3.251v10.517z" fill="#0E2951"/><path d="M112.243 128.47l-3.491 1.147v-15.329l-12.059 4.653v-4.016l15.55-5.609v19.154z" fill="#0E2951"/><path d="M181.812 44.491l12.091-4.557.032 14.405-12.123 4.494V44.491z" fill="#FF8098"/><path d="M121.262 171.336l8.825-21.322 15.227 4.749-8.793 21.322-15.259-4.749z" fill="#0E2951"/><path d="M127.179 167.288l4.461-10.899 7.791 2.422-4.494 10.899-7.758-2.422z" fill="#6780B3"/><path d="M121.165 67.055l24.246-9.019v22.979l-24.246 9.02v-22.98z" fill="#3D95D1"/><path d="M121.165 67.055l24.246-9.019v16.668l-24.246 9.02V67.055z" fill="#6780B3"/><path d="M121.165 67.055l24.246-9.019v10.326l-24.246 9.051V67.055z" fill="#053866"/><path d="M121.165 67.055l24.246-9.019V63.2l-24.246 9.051v-5.195zm48.492 61.224l-24.246 9.019 24.246-25.114-24.246 9.02" fill="#0E2951"/><path d="M193.968 126.398l-3.491 1.148v-29.29l3.491-1.147v29.289zm-4.591 1.498l-3.491 1.148v-28.716l3.491-1.147v28.715zm-14.547 5.418l-3.524 1.148-.065-28.748 3.492-1.147.097 28.747zm4.848-1.816l-3.524 1.147V103.93l3.524-1.148v28.716zm4.85-1.785l-3.524 1.147v-28.715l3.524-1.147v28.715z" fill="#709FDC"/><path d="M169.657 77.732l24.279-9.051v28.715l-24.279 9.052V77.732z" fill="#0E2951"/><path d="M169.657 135.131l24.279-9.019v28.715l-24.279 9.019v-28.715z" fill="#053866"/><path d="M169.657 77.732l12.156-4.525v14.341l-12.156 4.526V77.732z" fill="#3D95D1"/><path d="M172.987 162.571l-2.91 1.148c0-19.537 10.959-31.361 23.89-36.173v2.868c-11.67 4.334-20.98 18.963-20.98 32.157z" fill="#B9D5FD"/><path d="M179.421 160.277l-3.491 1.147c0-13.768 8.34-24.636 18.071-28.269v3.442c-8.502 3.155-14.58 13.577-14.58 23.68z" fill="#3D95D1"/><path d="M185.594 157.982l-3.265 1.148c0-8.605 4.946-16.892 11.574-19.378l.064 3.283c-5.172 1.944-8.373 8.732-8.373 14.947z" fill="#3376B3"/><path d="M191.059 155.687l-2.91 1.148c-.582-4.59 2.134-9.147 5.754-10.486l.065 3.602c-2.295.828-2.909 2.964-2.909 5.736z" fill="#709FDC"/><path d="M155.174 65.717l4.752-1.785v5.45l-8.341 3.124v-9.53l11.929-4.462v13.641l-15.517 5.8V60.108l19.106-7.107v22.628l-19.106 7.139" stroke="#3D95D1" stroke-width="5" stroke-miterlimit="10"/><path d="M116.801 72.123l-16.488 27.982m0-21.831l16.488 15.68" stroke="#0E2951" stroke-width="6" stroke-miterlimit="10"/><path d="M136.683 108.36l3.879-1.434v4.589l-3.879 1.466v-4.621zm-5.335-4.303l3.879-1.466v4.59l-3.879 1.466v-4.59zm-5.334-4.334l3.879-1.466v4.621l-3.879 1.434v-4.59z" fill="#B9D5FD"/><path d="M175.508 46.85l18.394-6.916.033 21.863-18.427 6.852v-21.8z" fill="#053866"/><path d="M180.455 44.97l13.448-5.036.033 15.967-13.481 5.036V44.969z" fill="#709FDC"/><path d="M181.812 87.548l12.123-4.493v14.341l-12.123 4.526V87.548z" fill="#3D95D1"/><path d="M154.366 54.052l39.537-14.118L97.275 4.016 58.837 18.42l95.529 35.631z" fill="#0D3760"/><path d="M146.607 57.59L96.628 76.107 0 40.252l50.044-18.58 96.563 35.918z" fill="#0D3659"/><path d="M149.711 0l-52.5 4.08L.581 39.965l52.371-3.952L149.711 0z" fill="#043D60"/><path d="M193.968 39.966L157.793 4.908 60.938 40.922l36.337 35.217 96.693-36.173z" fill="#03446B"/><path d="M97 119.5V76.109L194 40h66l-10 22.25 10 22.25h-66l-97 35z" fill="#B4D1FA"/><path d="M120.398 97.286c1.617-.609 2.713-2.03 3.481-3.687l-.973-.336c-.521 1.223-1.466 2.299-2.508 2.691-2 .754-3.521-.707-3.521-3.55 0-2.863 1.521-5.452 3.521-6.206 1.042-.392 1.987-.01 2.508.801l.959-1.063c-.726-1.076-1.85-1.679-3.467-1.07-2.63.992-4.699 4.291-4.699 7.981 0 3.69 2.069 5.43 4.699 4.44zm9.78-3.685c2.699-1.018 4.535-4.373 4.535-7.92 0-3.546-1.836-5.518-4.535-4.5-2.713 1.022-4.535 4.373-4.535 7.919 0 3.546 1.822 5.523 4.535 4.5zm0-1.332c-2.055.774-3.357-.823-3.357-3.613 0-2.808 1.302-5.369 3.357-6.143 2.042-.77 3.357.805 3.357 3.613 0 2.79-1.315 5.373-3.357 6.143zm14.313-2.064l1.138-.429V86.23l-.836.315V75.871l-1.137.429v10.674l-5.344 2.013V78.313l-1.137.429v12.006l7.316-2.757v2.214zm7.6-4.862c1.617-.61 2.713-2.03 3.48-3.688l-.973-.335c-.52 1.222-1.466 2.298-2.507 2.69-2.001.754-3.521-.706-3.521-3.55 0-2.862 1.52-5.451 3.521-6.205 1.041-.393 1.987-.011 2.507.8l.959-1.063c-.726-1.076-1.849-1.679-3.466-1.07-2.631.992-4.7 4.292-4.7 7.982 0 3.69 2.069 5.43 4.7 4.439zm11.602-4.589v-1.332l-4.85 1.828v-4.14l4.754-1.792v-1.332l-4.754 1.792v-3.87l4.85-1.828v-1.332l-5.988 2.257V83.01l5.988-2.257zm5.896-2.222V67.858l2.905-1.095v-1.332l-6.933 2.613v1.332l2.891-1.09v10.675l1.137-.429zm6.198-2.335l5.329-11.585v9.576l1.138-.429V61.753l-1.165.44-5.261 11.36v-9.378l-1.138.429V76.61l1.097-.413z" fill="#000"/><path d="M194 40h66l-10 22.5L260 85h-66V40z" fill="#000" fill-opacity=".05"/><path fill-rule="evenodd" clip-rule="evenodd" d="M222.5 45.272a8.538 8.538 0 00-4.143 1.064.636.636 0 01-.615-1.113A9.814 9.814 0 01222.5 44c5.442 0 9.854 4.412 9.854 9.854 0 5.443-4.412 9.854-9.854 9.854a9.853 9.853 0 01-9.854-9.854c0-1.936.558-3.743 1.524-5.267a.635.635 0 111.074.68 8.583 8.583 0 107.256-3.996z" fill="#000"/><path fill-rule="evenodd" clip-rule="evenodd" d="M238 75.22a8.51 8.51 0 001.13-4.118.638.638 0 011.274.013 9.761 9.761 0 01-1.297 4.73c-2.702 4.724-8.736 6.387-13.477 3.715a9.78 9.78 0 01-3.691-13.393c2.702-4.724 8.736-6.387 13.477-3.715a9.764 9.764 0 013.831 3.91.638.638 0 01-1.126.598 8.498 8.498 0 00-3.336-3.404c-4.13-2.328-9.385-.88-11.738 3.235a8.517 8.517 0 003.215 11.665c4.129 2.328 9.384.88 11.738-3.235z" fill="#000"/><path fill-rule="evenodd" clip-rule="evenodd" d="M202.997 69.203c-.111 1.5.17 2.935.755 4.21a.636.636 0 11-1.156.531 9.81 9.81 0 01-.867-4.834c.403-5.427 5.129-9.505 10.557-9.108a9.842 9.842 0 019.099 10.545c-.403 5.428-5.129 9.506-10.557 9.109a9.806 9.806 0 01-5.141-1.904.636.636 0 01.759-1.022 8.527 8.527 0 004.476 1.658 8.594 8.594 0 009.195-7.933 8.573 8.573 0 00-7.925-9.185 8.594 8.594 0 00-9.195 7.933z" fill="#000"/><path d="M225.188 50.498v-2.019h-2.214c-1.047 0-1.897.834-1.897 1.864v2.018h-1.265v1.863h1.265v5.901h1.897v-5.9h1.577l.32-1.864h-1.897v-1.553c0-.171.142-.31.316-.31h1.898z" fill="#000"/><path fill-rule="evenodd" clip-rule="evenodd" d="M214.019 65.5a4 4 0 014 4v.958a4 4 0 01-4 4h-4.54a4 4 0 01-4-4V69.5a4 4 0 014-4h4.54zm-3.274 3.4v2.656a.5.5 0 00.769.422l2.081-1.328a.5.5 0 000-.843l-2.081-1.328a.5.5 0 00-.769.422z" fill="#C43B55"/><rect x="205.481" y="65.5" width="12.54" height="8.958" rx="3" stroke="#000" stroke-width="1.2"/><path d="M210.747 71.556v-2.655a.5.5 0 01.769-.422l2.081 1.328a.5.5 0 010 .843l-2.081 1.328a.5.5 0 01-.769-.422z" stroke="#000" stroke-width=".8" stroke-linejoin="round"/><path fill-rule="evenodd" clip-rule="evenodd" d="M226.083 67.356v6.718l1.545 1.28h5.56l1.853-1.6v-6.078l-1.544-1.28h-6.178l-1.236.96zm2.78 4.479v-2.56l1.854-.96 1.853 1.28v2.24l-1.853.96-1.854-.96z" fill="#C43B55"/><rect x="226.083" y="66.396" width="8.958" height="8.958" rx="3" stroke="#000" stroke-width="1.2"/><circle cx="230.562" cy="70.875" r="2.087" stroke="#000" stroke-width="1.2"/><circle cx="233.249" cy="68.188" r=".448" fill="#000"/></svg>