<svg width="240" height="160" fill="none" xmlns="http://www.w3.org/2000/svg"><path d="M94.014 156.8l-76.75-28.859-.026-92.524L94.04 64.302l-.026 92.498z" fill="#053866"/><path d="M170.97 127.71L94.143 98.723l.077-92.294 76.904 28.885-.154 92.396z" fill="#102E5B"/><path d="M94.014 156.8l77.11-29.192V35.314L94.039 64.302l-.025 92.498z" fill="#054270"/><path d="M17.264 127.941l76.904-29.423.052-92.089-76.982 28.988.026 92.524z" fill="#0A2D49"/><path d="M94.014 156.8l-76.75-28.885-.026-92.498L94.04 64.302l-.026 92.498z" fill="#053866"/><path d="M36.432 65.916l-19.168-7.253-.026-23.246 19.194 7.407v23.092z" fill="#053866"/><path d="M22.359 57.74a12.73 12.73 0 01-5.095-.922l-.051-2.486c3.936 1.486 7.719 1.204 10.6-.77 3.474-2.383 5.66-6.279 5.66-11.994l2.316.922c0 6.46-1.93 10.124-6.02 12.944a13.674 13.674 0 01-7.41 2.306z" fill="#B9D5FD"/><path d="M55.6 73.17l-19.168-7.254V42.824L55.6 50.077V73.17z" fill="#0E2951"/><path d="M74.768 80.423L55.6 73.17V50.077l19.168 7.253v23.093z" fill="#709FDC"/><path d="M93.936 87.573l-19.168-7.15V57.33l19.27 6.972-.102 23.271z" fill="#6780B3"/><path d="M36.432 89.009l-19.168-7.253V58.663l19.168 7.253V89.01z" fill="#B9D5FD"/><path d="M55.6 96.262L36.432 89.01V65.916L55.6 73.17v23.092z" fill="#274684"/><path d="M74.768 103.515L55.6 96.262V73.17l19.168 7.253v23.092z" fill="#3D95D1"/><path d="M93.936 110.666l-19.168-7.151V80.423l19.168 7.15v23.093zM55.6 119.355l-19.168-7.253V89.009L55.6 96.262v23.093z" fill="#B9D5FD"/><path d="M74.768 126.608L55.6 119.355V96.262l19.168 7.254v23.092z" fill="#0E2951"/><path d="M93.936 133.759l-19.168-7.151v-23.093l19.168 7.151v23.093z" fill="#709FDC"/><path d="M36.432 135.194l-19.168-7.279v-23.092l19.168 7.279v23.092z" fill="#6780B3"/><path d="M55.6 142.447l-19.168-7.253v-23.093l19.168 7.254v23.092z" fill="#053866"/><path d="M74.768 149.7L55.6 142.447v-23.092l19.168 7.253V149.7z" fill="#B9D5FD"/><path d="M94.013 156.8l-19.245-7.099v-23.093l19.168 7.151.077 23.041zM21.174 52.948a9.879 9.879 0 01-3.91-.744v-2.768c2.753 1.051 6.149.692 7.847-.435 2.83-1.871 4.22-4.767 4.22-8.791l2.315.922c0 4.947-1.775 7.971-4.94 10.15a9.804 9.804 0 01-5.532 1.666z" fill="#3D95D1"/><path d="M19.81 47.617a6.155 6.155 0 01-2.546-.487v-2.77c1.646.616 4.168.462 5.557-.922 1.467-1.461 1.853-2.64 1.853-5.075l2.315.923c0 3.383-1.158 5.664-3.37 7.15a6.627 6.627 0 01-3.808 1.18z" fill="#3376B3"/><path d="M18.524 42.286a2.501 2.501 0 01-1.26-.231v-2.768c.411.154 1.775.256 2.315 0 .927-.461.927-1.384.463-2.768l2.78.922c0 1.923-.695 3.255-1.982 4.153a4.24 4.24 0 01-2.316.692z" fill="#709FDC"/><path d="M93.448 130.529l-16.235-6.125V84.498l16.544 6.023v3.23l-13.765-5.255v33.985l13.301 4.998.155 3.05z" fill="#274684"/><path d="M93.757 131.17l-16.544-6.766v-20.35l2.779.922v17.505l13.765 5.46v3.229z" fill="#0E2951"/><path d="M93.448 124.532l-11.63-4.408V91.316l11.939 4.305v3.23l-9.16-3.537v23.374l9.16 3.255-.31 2.589z" fill="#274684"/><path d="M93.447 118.996l-6.638-2.512V99.671l6.947 2.409v3.229l-4.169-1.64v10.893l4.168 1.819-.308 2.615z" fill="#274684"/><path d="M93.755 119.15l-6.946-2.666v-8.816l2.778.922v5.972l4.168 1.358v3.23z" fill="#0E2951"/><path d="M93.757 125.173l-11.939-4.588v-14.788l2.78.922v11.969l9.159 3.255v3.23z" fill="#0E2951"/><path d="M31.826 133.451l-14.562-5.536v-17.531l14.562 5.511v17.556z" fill="#053866"/><path d="M26.86 131.555l-9.596-3.64v-11.533l9.597 3.639v11.534z" fill="#709FDC"/><path d="M74.692 65.788l-6.947 11.867-12.067-12.943 6.972-11.867 12.042 12.943z" fill="#0E2951"/><path d="M70.034 65.532l-3.55 6.049-6.15-6.587 3.55-6.075 6.15 6.613z" fill="#6780B3"/><path d="M74.768 149.7L55.6 142.447v-18.479l19.168 7.253V149.7z" fill="#3D95D1"/><path d="M74.768 149.701L55.6 142.447v-13.404l19.168 7.253v13.405z" fill="#6780B3"/><path d="M74.768 149.701L55.6 142.447v-8.329l19.168 7.279v8.304z" fill="#053866"/><path d="M74.768 149.701L55.6 142.447v-4.152l19.168 7.254v4.152zM36.432 71.427L55.6 78.68l-19.168 5.715L55.6 91.65 36.432 71.427z" fill="#0E2951"/><path d="M19.58 82.678l-2.316-.922V58.663l2.315.923v23.092zm3.704 1.385l-2.315-.923V60.047l2.315.923v23.093zm12.066 4.613l-2.315-.923V64.661l2.316.922v23.093zm-4.038-1.692l-2.779-.922V62.994l2.779.922v23.067zm-4.322-1.538l-2.316-.922V61.43l2.315.923v23.092z" fill="#709FDC"/><path d="M36.432 112.101l-19.168-7.278V81.756l19.168 7.253V112.1z" fill="#0E2951"/><path d="M36.432 112.101l-9.57-3.639V96.928l9.57 3.614v11.559zM26.86 96.928l-9.596-3.639V81.756l9.597 3.613v11.56z" fill="#3D95D1"/><path d="M47.985 130.555l-3.937-1.487v-4.562l6.896 2.615v7.996l-9.855-3.742v-11.431l12.788 4.844v14.942l-15.72-5.971v-18.941l15.72 5.946" stroke="#3D95D1" stroke-width="5" stroke-miterlimit="10"/><path d="M78.217 148.24l13.044-12.61m0 17.531l-13.044-22.478" stroke="#0E2951" stroke-width="6" stroke-miterlimit="10"/><path d="M62.495 107.181l-3.061-1.154v-3.69l3.061 1.153v3.691zm4.221 6.689l-3.062-1.179V109l3.062 1.154v3.716zm4.219 6.664l-3.062-1.154v-3.691l3.062 1.154v3.691z" fill="#B9D5FD"/><path d="M94.04 64.302l77.084-28.988.025 92.396-77.135 29.09.025-92.498z" fill="#053866"/><path d="M151.826 88.804l19.323-7.28v23.093l-19.323 7.254V88.804z" fill="#B9D5FD"/><path d="M132.529 96.057l19.297-7.253v23.067l-19.297 7.279V96.057z" fill="#274684"/><path d="M113.232 103.311l19.297-7.254v23.093l-19.297 7.253v-23.092z" fill="#053866"/><path d="M93.936 110.666l19.296-7.355v23.092l-19.296 7.356v-23.093zm38.593-37.701l19.297-7.254v23.093l-19.297 7.253V72.965z" fill="#B9D5FD"/><path d="M113.232 80.218l19.297-7.254v23.093l-19.297 7.253V80.218z" fill="#0E2951"/><path d="M93.936 87.574l19.296-7.356v23.092l-19.296 7.356V87.574z" fill="#709FDC"/><path d="M132.529 119.15l19.297-7.279v23.092l-19.297 7.279V119.15z" fill="#0E2951"/><path d="M113.232 126.403l19.297-7.253v23.092l-19.297 7.253v-23.092z" fill="#709FDC"/><path d="M93.936 133.759l19.296-7.356v23.093l-19.22 7.304-.076-23.041zm57.89-91.14l19.297-7.305.026 23.119-19.323 7.279V42.618z" fill="#6780B3"/><path d="M132.529 49.872l19.297-7.253V65.71l-19.297 7.254V49.872z" fill="#053866"/><path d="M113.232 57.125l19.297-7.253v23.093l-19.297 7.253V57.125z" fill="#B9D5FD"/><path d="M94.038 64.302l19.194-7.177v23.093l-19.296 7.356.102-23.272z" fill="#3D95D1"/><path d="M93.756 131.17v-3.229l14.228-5.664V88.291l-13.559 5.1-.978-2.588 17.316-6.51V124.2l-17.007 6.971z" fill="#274684"/><path d="M110.763 104.771l-2.779.923V88.291l-14.228 5.46v-3.23l17.007-6.228v20.478z" fill="#0E2951"/><path d="M93.756 125.173v-3.23l9.597-3.921V95.109l-9.597 3.742v-3.23l12.376-3.588v27.911l-12.376 5.229z" fill="#274684"/><path d="M93.756 119.15v-3.23l4.58-1.563v-10.893l-3.911 1.487-.978-2.589 7.668-2.896v16.813l-7.359 2.871z" fill="#274684"/><path d="M101.114 107.924l-2.778.923v-5.383l-4.58 1.846v-3.23l7.358-2.614v8.458z" fill="#0E2951"/><path d="M106.132 106.514l-2.779.923V95.109l-9.597 3.742v-3.23l12.376-4.51v15.403z" fill="#0E2951"/><path d="M161.5 38.98l9.623-3.666.025 11.585-9.648 3.614V38.98z" fill="#FF8098"/><path d="M113.311 140.986l7.024-17.146 12.118 3.819-6.998 17.146-12.144-3.819z" fill="#0E2951"/><path d="M118.02 137.731l3.55-8.765 6.201 1.948-3.576 8.765-6.175-1.948z" fill="#6780B3"/><path d="M113.232 57.125l19.297-7.253v18.48l-19.297 7.252V57.125z" fill="#3D95D1"/><path d="M113.232 57.125l19.297-7.253v13.404l-19.297 7.254V57.125z" fill="#6780B3"/><path d="M113.232 57.125l19.297-7.253v8.304l-19.297 7.279v-8.33z" fill="#053866"/><path d="M113.232 57.125l19.297-7.253v4.152l-19.297 7.279v-4.178zm38.594 49.235l-19.297 7.254 19.297-20.197-19.297 7.254" fill="#0E2951"/><path d="M171.175 104.848l-2.779.923V82.217l2.779-.923v23.554zm-3.654 1.205l-2.779.922V83.883l2.779-.923v23.093zm-11.577 4.357l-2.805.923-.051-23.119 2.779-.922.077 23.118zm3.859-1.461l-2.805.923V86.779l2.805-.923v23.093zm3.859-1.435l-2.805.922V85.344l2.805-.923v23.093z" fill="#709FDC"/><path d="M151.826 65.711l19.323-7.279v23.093l-19.323 7.279V65.71z" fill="#0E2951"/><path d="M151.826 111.871l19.323-7.254v23.093l-19.323 7.253v-23.092z" fill="#053866"/><path d="M151.826 65.711l9.674-3.64v11.534l-9.674 3.64V65.71z" fill="#3D95D1"/><path d="M154.478 133.938l-2.316.923c0-15.711 8.722-25.22 19.014-29.09v2.306c-9.288 3.486-16.698 15.25-16.698 25.861z" fill="#B9D5FD"/><path d="M159.597 132.093l-2.779.923c0-11.073 6.638-19.812 14.383-22.734v2.768c-6.767 2.537-11.604 10.918-11.604 19.043z" fill="#3D95D1"/><path d="M164.511 130.247l-2.599.923c0-6.92 3.937-13.584 9.211-15.583l.052 2.64c-4.117 1.563-6.664 7.023-6.664 12.02z" fill="#3376B3"/><path d="M168.859 128.402l-2.316.923c-.463-3.691 1.698-7.356 4.58-8.433l.051 2.897c-1.826.666-2.315 2.383-2.315 4.613z" fill="#709FDC"/><path d="M140.3 56.049l3.782-1.435v4.383l-6.638 2.511v-7.663l9.494-3.588v10.97l-12.35 4.664V51.538l15.206-5.715V64.02l-15.206 5.741" stroke="#3D95D1" stroke-width="5" stroke-miterlimit="10"/><path d="M109.76 61.2L96.639 83.705m0-17.558l13.121 12.61" stroke="#0E2951" stroke-width="6" stroke-miterlimit="10"/><path d="M125.582 90.342l3.088-1.154v3.691l-3.088 1.179v-3.716zm-4.244-3.46l3.087-1.18v3.692l-3.087 1.178v-3.69zm-4.246-3.486l3.087-1.179v3.716l-3.087 1.154v-3.691z" fill="#B9D5FD"/><path d="M156.484 40.876l14.64-5.562.026 17.583-14.666 5.51v-17.53z" fill="#053866"/><path d="M160.42 39.364l10.703-4.05.026 12.841-10.729 4.05V39.364z" fill="#709FDC"/><path d="M161.5 73.605l9.648-3.614v11.534l-9.648 3.64v-11.56z" fill="#3D95D1"/><path d="M139.656 46.668l31.467-11.354L94.219 6.43 63.627 18.014l76.029 28.654z" fill="#0D3760"/><path d="M133.482 49.513L93.705 64.404 16.8 35.571l39.828-14.943 76.853 28.885z" fill="#0D3659"/><path d="M135.952 3.2L94.168 6.48 17.264 35.34l41.68-3.178L135.953 3.2z" fill="#043D60"/><path d="M171.176 35.34L142.385 7.147 65.301 36.109l28.92 28.32 76.955-29.09z" fill="#03446B"/><path d="M94 99.2V64.4l76.8-29.6 52.8-.4-8 18 8 18-52.4.193L94 99.2z" fill="#B4D1FA"/><path d="M110.313 83.24c1.258-.474 2.044-1.576 2.55-2.862l-.803-.258c-.337.947-1.025 1.783-1.834 2.088-1.556.587-2.873-.543-3.06-2.747-.189-2.218.861-4.226 2.417-4.813.81-.306 1.594-.011 2.065.617l.7-.825c-.654-.833-1.595-1.299-2.853-.825-2.046.772-3.489 3.332-3.245 6.192.243 2.86 2.018 4.206 4.063 3.434zm6.462-2.61l-.703-8.272 2.259-.852-.088-1.033-5.391 2.034.087 1.033 2.249-.849.703 8.273.884-.334zm4.319-1.63l-.314-3.696 1.971-.744c1.406-.53 2.118-2.123 1.988-3.644-.129-1.52-1.037-2.502-2.465-1.963l-2.855 1.077.79 9.304.885-.333zm1.463-5.432l-1.865.704-.301-3.543 1.864-.704c.842-.318 1.479.19 1.568 1.237.089 1.046-.425 1.989-1.266 2.306zm9.168 1.422l-3.657-8.223-1.097.414-2.065 10.382 1.012-.382.453-2.302 3.538-1.335.804 1.828 1.012-.382zm-2.17-2.377l-3.016 1.137 1.088-5.579 1.928 4.441zm5.024 1.3l-.703-8.272 2.259-.852-.088-1.032-5.392 2.034.088 1.032 2.248-.848.704 8.272.884-.334zm8.091-3.052l-.088-1.032-3.772 1.423-.273-3.209 3.698-1.395-.088-1.032-3.698 1.395-.254-3 3.771-1.422-.087-1.033-4.657 1.757.791 9.305 4.657-1.757zm2.294-.866l-.703-8.272 3.772-1.423-.088-1.032-4.656 1.756.791 9.305.884-.334zm5.826-2.198l3.514-8.985.631 7.421.885-.333-.791-9.305-.906.342-3.474 8.811-.618-7.268-.884.334.791 9.305.852-.322zm7.395-2.79l1.497-4.38 1.428-.538.314 3.696.885-.333-.791-9.305-2.856 1.077c-1.31.495-2.145 1.933-1.999 3.648.142 1.674 1.105 2.261 2.084 2.007l-1.595 4.518 1.033-.39zm.963-5.23c-.831.314-1.48-.204-1.569-1.25-.089-1.047.436-1.993 1.267-2.306l1.875-.708.303 3.557-1.876.708z" fill="#000"/><path d="M223.601 34.4l-52.8.4.397 35.6h52.403l-7.94-18 7.94-18z" fill="#000" fill-opacity=".05"/><path d="M197.131 53.264a4.359 4.359 0 11-8.718-.001 4.359 4.359 0 018.718.001z" fill="#C43B55"/><path d="M206.639 53.264c0 7.659-6.209 13.867-13.868 13.867-7.658 0-13.867-6.208-13.867-13.867 0-7.659 6.209-13.867 13.867-13.867 7.659 0 13.868 6.208 13.868 13.867zm-24.545 0c0 5.897 4.78 10.678 10.677 10.678 5.898 0 10.678-4.78 10.678-10.678 0-5.897-4.78-10.678-10.678-10.678-5.897 0-10.677 4.78-10.677 10.678z" fill="#C43B55"/><path fill-rule="evenodd" clip-rule="evenodd" d="M192.772 39.991c-7.33 0-13.273 5.943-13.273 13.273s5.943 13.273 13.273 13.273 13.273-5.943 13.273-13.273c0-5.143-2.925-9.604-7.206-11.808a.594.594 0 01.544-1.057c4.661 2.4 7.851 7.26 7.851 12.865 0 7.987-6.475 14.461-14.462 14.461s-14.461-6.474-14.461-14.461 6.474-14.462 14.461-14.462a.594.594 0 010 1.19z" fill="#000"/><path fill-rule="evenodd" clip-rule="evenodd" d="M192.772 63.367c-5.58 0-10.103-4.523-10.103-10.103s4.523-10.103 10.103-10.103 10.104 4.523 10.104 10.103c0 3.915-2.227 7.31-5.485 8.988a.595.595 0 10.544 1.057 11.292 11.292 0 006.129-10.045c0-6.236-5.055-11.292-11.292-11.292-6.236 0-11.292 5.056-11.292 11.292s5.056 11.292 11.292 11.292a.594.594 0 100-1.189z" fill="#000"/><path fill-rule="evenodd" clip-rule="evenodd" d="M186.132 51.485a6.874 6.874 0 1113.28 3.558 6.875 6.875 0 01-13.361-.327.595.595 0 00-1.162.252 8.063 8.063 0 10.094-3.791.596.596 0 001.149.308z" fill="#000"/><path fill-rule="evenodd" clip-rule="evenodd" d="M196.417 52.288a3.773 3.773 0 10.045 1.773.594.594 0 111.161.252 4.962 4.962 0 11-.058-2.333.594.594 0 11-1.148.308z" fill="#000"/><path fill-rule="evenodd" clip-rule="evenodd" d="M196.119 53.439a.594.594 0 00-.547-.638l-.859-.066 16.529-9.542 2.387.287a.595.595 0 00.142-1.18l-.813-.098.312-.18 2.387.287a.595.595 0 00.142-1.18l-.813-.098.312-.18 2.386.287a.595.595 0 00.143-1.18l-1.797-.216.711-1.664a.594.594 0 10-1.093-.467l-.944 2.21-.313.18.322-.752a.594.594 0 10-1.093-.467l-.944 2.21-.313.18.322-.752a.594.594 0 10-1.093-.468l-.944 2.211-16.541 9.55.388-.82a.594.594 0 10-1.074-.509l-1.206 2.543a.595.595 0 00.492.847l2.775.212a.594.594 0 00.637-.547z" fill="#000"/></svg>