<svg width="240" height="160" fill="none" xmlns="http://www.w3.org/2000/svg"><path d="M93.613 156.8l-77.148-29.01-.026-93.006 77.2 29.036-.026 92.98z" fill="#053866"/><path d="M170.967 127.559L93.742 98.42l.078-92.774 77.302 29.035-.155 92.878z" fill="#102E5B"/><path d="M93.613 156.8l77.51-29.344V34.682L93.639 63.82l-.026 92.98z" fill="#054270"/><path d="M16.465 127.79l77.303-29.576.052-92.568-77.38 29.139.025 93.005z" fill="#0A2D49"/><path d="M93.613 156.8l-77.148-29.035-.026-92.98 77.2 29.035-.026 92.98z" fill="#053866"/><path d="M35.733 65.443l-19.268-7.291-.026-23.367 19.294 7.445v23.213z" fill="#053866"/><path d="M21.587 57.224a12.793 12.793 0 01-5.121-.927l-.052-2.5c3.957 1.495 7.759 1.212 10.655-.772 3.492-2.396 5.69-6.312 5.69-12.057l2.328.927c0 6.492-1.94 10.177-6.052 13.01a13.743 13.743 0 01-7.448 2.32z" fill="#B9D5FD"/><path d="M55 72.734l-19.268-7.291V42.23L55 49.521v23.213z" fill="#0E2951"/><path d="M74.267 80.025L55 72.734V49.521l19.267 7.291v23.213z" fill="#709FDC"/><path d="M93.535 87.213l-19.267-7.188V56.812l19.37 7.008-.103 23.393z" fill="#6780B3"/><path d="M35.732 88.656l-19.267-7.291V58.152l19.267 7.291v23.213z" fill="#B9D5FD"/><path d="M55 95.947l-19.268-7.291V65.443L55 72.734v23.213z" fill="#274684"/><path d="M74.267 103.238L55 95.947V72.734l19.267 7.291v23.213z" fill="#3D95D1"/><path d="M93.535 110.426l-19.267-7.188V80.025l19.267 7.188v23.213zM55 119.16l-19.268-7.291V88.656L55 95.947v23.213z" fill="#B9D5FD"/><path d="M74.267 126.451L55 119.16V95.947l19.267 7.291v23.213z" fill="#0E2951"/><path d="M93.535 133.639l-19.267-7.188v-23.213l19.267 7.188v23.213z" fill="#709FDC"/><path d="M35.732 135.081l-19.267-7.316v-23.213l19.267 7.317v23.212z" fill="#6780B3"/><path d="M55 142.372l-19.268-7.291v-23.212L55 119.16v23.212z" fill="#053866"/><path d="M74.267 149.664L55 142.372V119.16l19.267 7.291v23.213z" fill="#B9D5FD"/><path d="M93.613 156.8l-19.345-7.136v-23.213l19.267 7.188.078 23.161zM20.396 52.407a9.932 9.932 0 01-3.931-.747v-2.783c2.767 1.056 6.18.696 7.888-.438 2.845-1.88 4.241-4.792 4.241-8.837l2.328.928c0 4.972-1.785 8.012-4.966 10.202a9.854 9.854 0 01-5.56 1.675z" fill="#3D95D1"/><path d="M19.025 47.048a6.187 6.187 0 01-2.56-.49v-2.782c1.655.618 4.19.464 5.586-.928 1.474-1.468 1.862-2.653 1.862-5.1l2.328.927c0 3.4-1.164 5.694-3.388 7.188a6.662 6.662 0 01-3.828 1.185z" fill="#3376B3"/><path d="M17.732 41.69a2.515 2.515 0 01-1.267-.233v-2.782c.414.154 1.784.258 2.328 0 .93-.464.93-1.391.465-2.783l2.793.928c0 1.932-.698 3.272-1.991 4.173a4.26 4.26 0 01-2.328.696z" fill="#709FDC"/><path d="M93.044 130.392l-16.32-6.157V84.121l16.63 6.055v3.246l-13.836-5.281v34.162l13.37 5.024.156 3.065z" fill="#274684"/><path d="M93.354 131.037l-16.63-6.802v-20.456l2.794.927v17.597l13.836 5.487v3.247z" fill="#0E2951"/><path d="M93.045 124.364l-11.69-4.431V90.975l12 4.328v3.246l-9.206-3.555v23.496l9.207 3.272-.31 2.602z" fill="#274684"/><path d="M93.044 118.799l-6.673-2.525v-16.9l6.983 2.421v3.246l-4.19-1.649v10.95l4.19 1.829-.31 2.628z" fill="#274684"/><path d="M93.354 118.954l-6.983-2.68v-8.862l2.793.927v6.003l4.19 1.366v3.246z" fill="#0E2951"/><path d="M93.356 125.008l-12-4.612v-14.865l2.793.927v12.032l9.207 3.272v3.246z" fill="#0E2951"/><path d="M31.103 133.33l-14.638-5.565v-17.623l14.638 5.54v17.648z" fill="#053866"/><path d="M26.111 131.423l-9.646-3.658v-11.594l9.646 3.659v11.593z" fill="#709FDC"/><path d="M74.19 65.314l-6.982 11.929-12.13-13.01 7.009-11.93L74.19 65.315z" fill="#0E2951"/><path d="M69.51 65.057l-3.57 6.08-6.18-6.621 3.569-6.106 6.18 6.647z" fill="#6780B3"/><path d="M74.267 149.663L55 142.372v-18.575l19.267 7.291v18.575z" fill="#3D95D1"/><path d="M74.267 149.664L55 142.373v-13.475l19.267 7.291v13.475z" fill="#6780B3"/><path d="M74.267 149.664L55 142.373V134l19.267 7.316v8.348z" fill="#053866"/><path d="M74.267 149.664L55 142.373v-4.174l19.267 7.291v4.174zM35.732 70.982L55 78.273l-19.268 5.745L55 91.31 35.732 70.982z" fill="#0E2951"/><path d="M18.793 82.292l-2.328-.927V58.152l2.328.928v23.212zm3.724 1.392l-2.328-.928V59.543l2.328.928v23.213zm12.129 4.637l-2.328-.927V64.18l2.328.927V88.32zm-4.06-1.701l-2.793-.927V62.506l2.793.928V86.62zm-4.344-1.545l-2.328-.928V60.934l2.328.928v23.213z" fill="#709FDC"/><path d="M35.732 111.869l-19.267-7.317V81.365l19.267 7.29v23.214z" fill="#0E2951"/><path d="M35.732 111.869l-9.62-3.659V96.617l9.62 3.632v11.62zm-9.621-15.252l-9.646-3.659V81.365l9.646 3.632v11.62z" fill="#3D95D1"/><path d="M47.346 130.418l-3.957-1.494v-4.586l6.931 2.628v8.038l-9.905-3.761v-11.491l12.854 4.87v15.02l-15.802-6.003V114.6l15.802 5.977" stroke="#3D95D1" stroke-width="3" stroke-miterlimit="10"/><path d="M77.734 148.195l13.113-12.676m0 17.623l-13.113-22.595" stroke="#0E2951" stroke-width="6" stroke-miterlimit="10"/><path d="M61.931 106.922l-3.078-1.159v-3.71l3.078 1.159v3.71zm4.242 6.724l-3.077-1.185v-3.71l3.077 1.16v3.735zm4.241 6.699l-3.078-1.16v-3.71l3.078 1.16v3.71z" fill="#B9D5FD"/><path d="M93.64 63.82l77.483-29.138.026 92.877L93.613 156.8l.026-92.98z" fill="#053866"/><path d="M151.727 88.45l19.422-7.317v23.213l-19.422 7.291V88.45z" fill="#B9D5FD"/><path d="M132.328 95.74l19.397-7.29v23.187l-19.397 7.317V95.741z" fill="#274684"/><path d="M112.932 103.032l19.396-7.291v23.213l-19.396 7.291v-23.213z" fill="#053866"/><path d="M93.535 110.426l19.397-7.394v23.213l-19.397 7.394v-23.213zm38.793-37.898l19.397-7.291V88.45l-19.397 7.29V72.529z" fill="#B9D5FD"/><path d="M112.932 79.819l19.396-7.291V95.74l-19.396 7.291V79.819z" fill="#0E2951"/><path d="M93.535 87.213l19.397-7.394v23.213l-19.397 7.394V87.213z" fill="#709FDC"/><path d="M132.328 118.954l19.397-7.317v23.213l-19.397 7.316v-23.212z" fill="#0E2951"/><path d="M112.932 126.245l19.396-7.292v23.213l-19.396 7.291v-23.212z" fill="#709FDC"/><path d="M93.535 133.639l19.397-7.394v23.212l-19.32 7.343-.077-23.161zm58.192-91.615l19.396-7.342.026 23.238-19.422 7.317V42.024z" fill="#6780B3"/><path d="M132.328 49.315l19.397-7.29v23.212l-19.397 7.291V49.315z" fill="#053866"/><path d="M112.932 56.606l19.396-7.29v23.212l-19.396 7.29V56.607z" fill="#B9D5FD"/><path d="M93.639 63.82l19.293-7.214V79.82l-19.397 7.394.104-23.393z" fill="#3D95D1"/><path d="M93.353 131.037v-3.246l14.302-5.694V87.935l-13.63 5.126-.982-2.602 17.405-6.544v40.114l-17.095 7.008z" fill="#274684"/><path d="M110.451 104.5l-2.794.928V87.935l-14.301 5.487v-3.246l17.095-6.26V104.5z" fill="#0E2951"/><path d="M93.356 125.008v-3.246l9.646-3.942V94.788l-9.646 3.761v-3.246l12.439-3.607v28.056l-12.44 5.256z" fill="#274684"/><path d="M93.353 118.954v-3.246l4.604-1.572v-10.949l-3.931 1.494-.983-2.602 7.707-2.911v16.9l-7.397 2.886z" fill="#274684"/><path d="M100.752 107.669l-2.793.928v-5.41l-4.603 1.855v-3.247l7.396-2.627v8.501z" fill="#0E2951"/><path d="M105.795 106.252l-2.793.928V94.788l-9.646 3.761v-3.246l12.439-4.534v15.483z" fill="#0E2951"/><path d="M161.449 38.366l9.673-3.684.026 11.645-9.699 3.632V38.366z" fill="#FF8098"/><path d="M113.01 140.904l7.06-17.236 12.181 3.839-7.034 17.236-12.207-3.839z" fill="#0E2951"/><path d="M117.742 137.632l3.569-8.811 6.233 1.958-3.595 8.811-6.207-1.958z" fill="#6780B3"/><path d="M112.932 56.606l19.396-7.29V67.89l-19.396 7.29V56.606z" fill="#3D95D1"/><path d="M112.932 56.606l19.396-7.29v13.473l-19.396 7.291V56.606z" fill="#6780B3"/><path d="M112.932 56.606l19.396-7.29v8.346l-19.396 7.317v-8.373z" fill="#053866"/><path d="M112.932 56.606l19.396-7.29v4.173l-19.396 7.317v-4.2zm38.793 49.492l-19.397 7.291 19.397-20.302-19.397 7.291" fill="#0E2951"/><path d="M171.174 104.578l-2.793.927V81.829l2.793-.928v23.677zm-3.672 1.21l-2.793.928V83.503l2.793-.927v23.212zm-11.639 4.38l-2.819.928-.052-23.239 2.793-.927.078 23.238zm3.88-1.468l-2.819.927V86.415l2.819-.928V108.7zm3.879-1.443l-2.819.928V84.972l2.819-.928v23.213z" fill="#709FDC"/><path d="M151.727 65.237l19.422-7.317v23.213l-19.422 7.317V65.237z" fill="#0E2951"/><path d="M151.727 111.637l19.422-7.291v23.213l-19.422 7.291v-23.213z" fill="#053866"/><path d="M151.727 65.237l9.724-3.658v11.593l-9.724 3.658V65.237z" fill="#3D95D1"/><path d="M154.39 133.819l-2.328.927c0-15.793 8.768-25.351 19.113-29.241v2.319c-9.337 3.504-16.785 15.329-16.785 25.995z" fill="#B9D5FD"/><path d="M159.537 131.964l-2.793.928c0-11.13 6.673-19.915 14.457-22.852v2.782c-6.802 2.551-11.664 10.975-11.664 19.142z" fill="#3D95D1"/><path d="M164.475 130.109l-2.612.928c0-6.957 3.957-13.655 9.259-15.665l.052 2.654c-4.138 1.572-6.699 7.059-6.699 12.083z" fill="#3376B3"/><path d="M168.848 128.254l-2.328.928c-.465-3.71 1.707-7.394 4.604-8.477l.051 2.912c-1.836.67-2.327 2.396-2.327 4.637z" fill="#709FDC"/><path d="M140.14 55.524l3.802-1.443v4.406l-6.673 2.525v-7.703l9.543-3.607v11.026l-12.414 4.69V50.99l15.285-5.745v18.292l-15.285 5.77" stroke="#3D95D1" stroke-width="5" stroke-miterlimit="10"/><path d="M109.44 60.703l-13.19 22.62m0-17.648l13.19 12.675" stroke="#0E2951" stroke-width="6" stroke-miterlimit="10"/><path d="M125.346 89.996l3.103-1.16v3.71l-3.103 1.185v-3.735zm-4.268-3.479l3.104-1.185v3.71l-3.104 1.185v-3.71zm-4.267-3.503l3.103-1.185v3.735l-3.103 1.16v-3.71z" fill="#B9D5FD"/><path d="M156.406 40.272l14.716-5.59.026 17.673-14.742 5.54V40.272z" fill="#053866"/><path d="M160.363 38.752l10.759-4.07.026 12.907-10.785 4.07V38.753z" fill="#709FDC"/><path d="M161.449 73.172l9.699-3.633v11.594l-9.699 3.658V73.172z" fill="#3D95D1"/><path d="M139.494 46.095l31.629-11.413L93.821 5.645 63.07 17.291l76.423 28.804z" fill="#0D3760"/><path d="M133.286 48.954L93.303 63.923 16 34.939l40.035-15.02 77.251 29.035z" fill="#0D3659"/><path d="M135.768 2.4l-42 3.298-77.303 29.01 41.897-3.195L135.768 2.4z" fill="#043D60"/><path d="M171.174 34.707l-28.94-28.34L64.75 35.48l29.07 28.47 77.354-29.242z" fill="#03446B"/><path d="M93.6 99.885V64l77.489-29.79H224l-8 18.182 8 18.181-52.911-.173-77.49 29.485z" fill="#B4D1FA"/><path d="M114.061 80.018l-3.539-3.725 2.704-5.502-1.114.4-2.862 5.96-.299-4.82-.889.32.577 9.32.889-.32-.193-3.13.652-1.32 2.97 3.215 1.104-.398zm3.705-1.163c2.111-.76 3.419-3.346 3.248-6.098-.17-2.753-1.734-4.304-3.845-3.544-2.121.764-3.418 3.346-3.248 6.099.171 2.752 1.724 4.307 3.845 3.543zm-.064-1.034c-1.607.579-2.725-.676-2.859-2.841-.135-2.18.783-4.154 2.39-4.733 1.597-.575 2.725.662 2.86 2.841.134 2.166-.794 4.158-2.391 4.733zm10.947-3.058l-.578-9.32-.889.32.249 4.011-4.179 1.505-.248-4.01-.89.32.577 9.32.89-.32-.265-4.276 4.179-1.505.264 4.276.89-.32zm4.327-1.558l-.513-8.287 2.272-.818-.064-1.034-5.422 1.953.064 1.034 2.261-.814.513 8.286.889-.32zm8.136-2.93l-.064-1.035-3.793 1.366-.199-3.213 3.718-1.34-.064-1.034-3.718 1.34-.186-3.005 3.793-1.366-.064-1.034-4.682 1.687.577 9.32 4.682-1.687zm6.839-2.464l-3.538-3.726 2.704-5.502-1.114.401-2.863 5.96-.298-4.821-.889.32.577 9.32.889-.32-.194-3.13.652-1.32 2.971 3.215 1.103-.397zm3.834-1.21c1.265-.455 2.073-1.547 2.608-2.825l-.795-.27c-.358.942-1.062 1.768-1.877 2.061-1.564.563-2.851-.587-2.988-2.795-.137-2.222.955-4.215 2.519-4.779.815-.293 1.589.014 2.045.65l.716-.816c-.632-.843-1.56-1.323-2.825-.868-2.057.741-3.554 3.28-3.376 6.145.177 2.865 1.916 4.238 3.973 3.497zm6.502-2.513l-.513-8.286 2.271-.819-.064-1.034-5.421 1.953.064 1.034 2.261-.814.513 8.286.889-.32z" fill="#000"/><path d="M171.199 34.4h52.8l-8 18 8 18h-52.8v-36z" fill="#000" fill-opacity=".05"/><path d="M176 64.22l5.412-10.051c1.766-.334 2.222-.086 2.835.515l-4.647 9.535H176zm17.266-11.34c3.918-4.742 8.677-3.35 10.567-2.062l2.577-3.093c-3.35-2.663-11.288-5.772-16.236 3.093l3.092 2.062z" fill="#C43B55"/><path fill-rule="evenodd" clip-rule="evenodd" d="M182.113 39.223c2.256-.877 4.84-.932 6.602-.718a.848.848 0 01.745.845v24.11a.855.855 0 01-.855.854h-1.998a.856.856 0 01-.856-.854v-8.262h-.646l-4.328 8.644a.855.855 0 01-.765.472h-2.764a.854.854 0 01-.749-1.268l4.745-8.58c-1.509-.81-3.437-2.831-3.803-6.475l1.135-.114c.375 3.726 2.538 5.393 3.656 5.787l.636.224-5.137 9.287h2.104l4.565-9.116h2.493v9.116h1.426V39.608c-1.629-.163-3.87-.07-5.791.677-1.996.776-3.609 2.234-3.913 4.866l-1.134-.131c.365-3.153 2.348-4.909 4.632-5.797zm3.84 1.192a.853.853 0 01.94.846v10.996a.846.846 0 01-.713.838c-.804.127-1.883.157-2.943-.3-1.079-.467-2.067-1.409-2.725-3.087l-.008-.02-.006-.022c-.419-1.379-.664-3.489 0-5.368.336-.95.907-1.848 1.808-2.547.9-.7 2.098-1.175 3.647-1.336zm-.202 1.172c-1.21.17-2.097.56-2.745 1.063-.703.546-1.157 1.25-1.432 2.027-.553 1.565-.362 3.4.009 4.637.561 1.418 1.346 2.105 2.108 2.435.692.299 1.423.327 2.06.255V41.588z" fill="#000"/><path fill-rule="evenodd" clip-rule="evenodd" d="M191.066 50.895a.279.279 0 01-.066-.377 9.98 9.98 0 018.301-4.426c2.036 0 4.124.743 5.785 1.852a.28.28 0 01.06.407l-1.604 1.998a.295.295 0 01-.396.055 6.824 6.824 0 00-3.845-1.179 6.845 6.845 0 00-5.759 3.136.296.296 0 01-.425.08l-2.051-1.546zm-.478 1.067a.277.277 0 00-.425.113c-.489 1.204-.705 2.55-.705 3.987 0 1.273.15 2.465.525 3.548.063.182.288.24.437.117l2.13-1.752a.292.292 0 00.096-.295 6.851 6.851 0 01.161-3.791.293.293 0 00-.099-.328l-2.12-1.599zm.236 8.91a.279.279 0 00-.064.36 9.984 9.984 0 008.541 4.8 9.949 9.949 0 006.175-2.134.277.277 0 00-.009-.44l-2.157-1.617a.293.293 0 00-.333-.01 6.828 6.828 0 01-3.676 1.068 6.85 6.85 0 01-6.131-3.788.107.107 0 00-.164-.035l-2.182 1.795zm15.563 1.85a.28.28 0 00.377-.036 9.936 9.936 0 002.072-3.656.292.292 0 01.356-.196l.549.154a.28.28 0 01.195.35 11.118 11.118 0 01-3.027 4.831 11.101 11.101 0 01-7.608 3.003 11.129 11.129 0 01-9.962-6.155c-.76-1.52-1.023-3.212-1.023-4.955 0-1.991.386-3.896 1.347-5.555a11.125 11.125 0 019.638-5.555c2.735 0 5.493 1.178 7.437 2.806a.28.28 0 01.027.4l-.008.008-2.855 3.556-.187.233a.286.286 0 01-.412.035l-.224-.198a5.689 5.689 0 00-3.778-1.427 5.704 5.704 0 00-5.209 3.367 5.675 5.675 0 00-.497 2.33 5.683 5.683 0 00.597 2.54 5.706 5.706 0 005.109 3.158 5.686 5.686 0 003.901-1.54c.474-.444.918-1.092 1.251-1.774a.273.273 0 00-.252-.39h-5.186a.285.285 0 01-.285-.285v-4.273c0-.157.128-.285.285-.285h10.824c.134 0 .249.093.278.224l.05.224c.17.773.26 1.577.26 2.401l-.001.165a.28.28 0 01-.293.274l-.57-.023a.293.293 0 01-.278-.296l.001-.12c0-.5-.037-.992-.108-1.472a.279.279 0 00-.278-.237h-8.744a.285.285 0 00-.285.285v1.994c0 .157.128.285.285.285h5.656c.189 0 .326.18.274.362l-.102.362c-.299 1.055-.924 2.247-1.695 3.098a.299.299 0 00.036.438l2.062 1.545z" fill="#000"/></svg>