<svg version="1.1" id="Слой_1" xmlns="http://www.w3.org/2000/svg" x="0" y="0" viewBox="0 0 200 200" xml:space="preserve"><style>.st0{fill:#882f40}.st1{fill:#9a384b}.st2{fill:#944d5d}.st3{fill:#904a5a}.st4{fill:#793e4b}.st5{fill:#40689d}.st11{fill:#8b4857}.st12{fill:#994f60}.st13{fill:#9c4354}.st15{fill:#b4d1fa;stroke:#000;stroke-width:.2}.st17{fill:#e87891}</style><path class="st0" d="M188.3 146.9l-9.6-5.2h.1l9.6 5.2h-.1zm.2 0l-9.6-5.2h.4c.1 0 .2-.1.4-.1l9.6 5.2c-.1.1-.2.1-.4.1h-.4z"/><path class="st0" d="M189.3 146.8l-9.6-5.2.3-.1 9.6 5.2-.3.1zm.2-.1l-9.6-5.2 9.6 5.2"/><path class="st0" d="M188.3 147.8l-11.6-6.9c1.7.7 3.3 1.4 3.9-.5l11.8 5.1-4.1 2.3z"/><path class="st0" d="M189.8 146.4l-9.6-5.3h.1l9.7 5.2v.1"/><path class="st0" d="M190 146.3l-9.7-5.2v-.1l9.7 5.2v.1zm0-.1l-9.6-5.2c0-.1.1 0 .1-.1l9.6 5.1c-.1 0-.1.1-.1.2m.1-.3l-9.6-5.2c.1-.2.1-.4.1-.6l9.6 5.2v.6"/><path class="st0" d="M192 147.3l-11.4-7.2.1-45 9.6 5.2 1.7 47z"/><path class="st1" d="M151.8 168.6l-8.3-6.1c.4 0 3.2-1.1 3.6-1.3l15.3 2.3c-.4.2-7.4 6.9-7.9 6.9"/><path class="st1" d="M154.4 167.4l-9.6-5.2c.2-.1.5-.2.7-.4l9.6 5.2c-.2.2-.4.4-.7.4"/><path class="st1" d="M155.1 167l-9.6-5.2.5-.4 9.6 5.2-.5.4z"/><path class="st1" d="M155.6 166.6l-9.6-5.2.4-.4 9.6 5.2-.4.4z"/><path class="st1" d="M156 166.2l-9.6-5.2.4-.5 9.6 5.2-.4.5z"/><path class="st1" d="M156.4 165.7l-9.6-5.2.3-.5 9.6 5.2-.3.5zm.4-.5l-9.6-5.2c.1-.2.2-.5.3-.7l9.6 5.2c-.1.2-.2.4-.3.7z"/><path class="st1" d="M154.1 171.6l-7.8-10.6c.2-.6 1.7-.9 1.5-5.5l9.5 7.1c.1.7-2.9 8.5-3.2 9z"/><path class="st0" d="M190.3 100.4l-9.6-5.2c0-.2 0-.4-.2-.6-.1-.2-.3-.4-.5-.5l9.6 5.2c.2.1.3.3.5.5.1.1.2.3.2.6z"/><path class="st2" d="M163.5 146.4l-9.6-5.2 1.6.6 9.6 5.2-1.6-.6z"/><path class="st0" d="M167 138.5l-9.6-5.2 21.4 8.4 9.6 5.2-21.4-8.4z"/><path class="st3" d="M166.8 138.4l-9.6-5.2 9.6 5.2z"/><path class="st2" d="M166.9 138.4l-9.6-5.2 9.6 5.2z"/><path class="st3" d="M162.7 146l-9.6-5.2.3.1 9.6 5.2-.3-.1z"/><path class="st2" d="M163 146.2l-9.6-5.2.6.3 9.6 5.2-.6-.3z"/><path class="st1" d="M182.8 96.9l-7.4-9.8c.4-.3 1.8-1.3 2.8-1.3l10.6 6c-.5.3-5.6 4.8-6 5.1z"/><path class="st1" d="M186.4 91.6l-9.6-5.3c.8-.4 1.7-.6 2.7-.7 1-.2 2.1-.1 3.1.2l9.6 5.2c-1-.3-1.6.9-2.6 1-1 .1-2.4-.8-3.2-.4"/><path class="st1" d="M192.1 91l-9.6-5.2c.5.1 1 .3 1.4.5l9.6 5.2c-.4-.2-.9-.4-1.4-.5z"/><path class="st4" d="M162.7 146l-9.6-5.2c-1.3-.8-2.4-1.9-3.2-3.2-.7-1.3-1.1-2.9-1-4.4l9.7 5.2c-.1 1.5.3 3.1 1 4.4.7 1.3 1.8 2.5 3.1 3.2"/><path class="st5" d="M142.3 157.4l-9.6-5.2c.4-.1.9-.1 1.3 0l10.1 5.6c-.5-.1-1.5-.4-1.8-.4"/><path class="st5" d="M143.5 157.7l-9.6-5.4c.2.1.4.1.6.2l9.9 5.5c-.1.1-.7-.3-.9-.3z"/><path class="st1" d="M165.2 105.7l-9.6-5.2 19.8-13.4 12 6.1-22.2 12.5z"/><path d="M158.5 138.4l-9.6-5.2V111l9.6 5.2v22.2z" fill="#773d4a"/><path d="M163.6 106.8l-9.6-5.2 1.6-1.1 9.6 5.2-1.6 1.1z" fill="#9f5263"/><path class="st4" d="M158.6 116.2L149 111c0-1.3.2-2.6.7-3.8l9.6 5.2c-.5 1.2-.7 2.5-.7 3.8z"/><path d="M159.3 112.4l-9.6-5.2c.2-.5.4-1 .7-1.5l9.6 5.2c-.3.5-.5 1-.7 1.5z" fill="#7d414e"/><path d="M159.9 110.9l-9.6-5.2c.2-.4.5-.8.7-1.2l9.6 5.2c-.2.4-.4.8-.7 1.2z" fill="#824351"/><path d="M160.7 109.7l-9.6-5.2c.3-.3.5-.7.8-1l9.6 5.2c-.3.3-.6.7-.8 1z" fill="#874654"/><path class="st11" d="M161.5 108.7l-9.6-5.2.9-.9 9.6 5.2c-.3.3-.7.6-.9.9z"/><path class="st3" d="M162.4 107.8l-9.6-5.2c.3-.3.7-.6 1.1-.9l9.6 5.2c-.4.3-.8.6-1.1.9z"/><path class="st2" d="M163.5 106.9l-9.6-5.2h.1l9.6 5.2h-.1z"/><path class="st1" d="M159.7 164.4l-11.9-7 .1-70.1 9.6 5.2 2.2 71.9z"/><path class="st1" d="M157.5 92.6l-9.6-5.2c0-.7-.1-1.4-.5-2-.3-.6-.8-1.1-1.5-1.5l10 4.2c.6.4 1.2 1.4 1.5 2s.2 1.8.1 2.5z"/><path class="st3" d="M96.8 88.9l-9.6-5.2 1.1.6 9.6 5.2c-.4-.2-.8-.4-1.1-.6z"/><path class="st2" d="M97.9 89.5l-9.6-5.2c1.9 1 4 1.7 6 2.2l9.6 5.2c-2-.5-4-1.2-6-2.2z"/><path class="st12" d="M104 91.7l-9.6-5.2c4.3 1.1 8.9 1.3 13.3.7 3.9-.6 7.7-1.7 11.3-3.4l9.6 5.2c-3.6 1.7-7.4 2.8-11.3 3.4-4.5.7-9 .5-13.3-.7z"/><path class="st1" d="M23.5 186l-9.6-5.2 129.7-18.2 9.6 5.3L23.5 186zm-2.2-.4l-9.6-5.2h.1l9.6 5.3-.1-.1"/><path class="st1" d="M21.4 185.6l-9.6-5.2c.2.1.4.2.7.3l9.6 5.2c-.2-.1-.4-.1-.7-.3z"/><path class="st1" d="M22.1 185.9l-9.5-5.2c.5.1 1 .1 1.4 0l11.1 5.9c-.5.1-3.5.1-3.9 0m-9.5-14.7L2 166.8c0-.6.1-1.4.3-2l11.7 3.8c-.2.6-2.4 2.6-2.3 3.3"/><path class="st1" d="M12 170l-9.6-5.2c.1-.3.2-.5.3-.7l9.6 5.2c-.1.2-.2.4-.3.7z"/><path class="st1" d="M12.3 169.3l-10-4.4.7-1.4 9.6 5.2-.3.6z"/><path class="st1" d="M12.4 169.2L3 163.5c.1-.1.5-.8 1.2-1.3l9.4 5.5c-.1.1-1.1 1.4-1.2 1.5z"/><path class="st1" d="M13 168.3L3.4 163l.4-.4 9.6 5.2-.4.5z"/><path class="st1" d="M13.4 167.9l-9.6-5.2.4-.4 9.6 5.3-.4.3z"/><path class="st1" d="M13 169l-8.8-6.8.6-.3 9.6 5.3L13 169z"/><path class="st1" d="M14.3 167.4L4.6 162c.2-.1 1-.3 1.2-.3l9.3 5.2c-.1.1-.6.4-.8.5zm-.7 27.6L4 189.8c-.6-.4-1.1-.9-1.5-1.5-.3-.6-.5-1.9-.5-2.6l9.6 5.8c0 .7.1 1.4.5 2s.9 1.1 1.5 1.5z"/><path class="st1" d="M15.1 167l-9.5-5.3c.6-.1 1.1-.1 1.7 0l9.5 5.3c-.6-.1-1.1-.1-1.6-.1"/><path class="st1" d="M16.8 167l-9.5-5.3c.2.1.6.2.8.3l9.5 5.2c-.3-.1-.6-.2-.8-.2z"/><path class="st1" d="M17.5 167.2L7.9 162H8l9.6 5.3-.1-.1m-5.9 24.6L2 186.2v-19.6l9.6 5.2v20zm1.9-31.6L3.9 155c-.6-.3-1-.8-1.4-1.3-.3-.6-.4-1.7-.4-2.3l11.9-1.2c0 .6-.3 7.8 0 8.3.4.5-1.1 1.4-.5 1.7"/><path class="st1" d="M11.7 157l-9.6-5.2.1-52.3 10.3 5-.8 52.5z"/><path class="st3" d="M41.6 99.2L32 94c.3.1.5.3.8.4l9.6 5.2c-.3-.2-.6-.3-.8-.4z"/><path class="st2" d="M42.4 99.6l-9.6-5.2c1.4.7 2.9 1.3 4.4 1.6l9.6 5.2c-1.5-.4-3-.9-4.4-1.6z"/><path class="st12" d="M46.8 101.2L37.2 96c3.2.8 6.5 1 9.7.5 2.8-.4 5.6-1.3 8.2-2.5l9.6 5.2c-2.6 1.2-5.4 2.1-8.2 2.5-3.2.5-6.5.3-9.7-.5z"/><path class="st2" d="M64.8 99.3L55.1 94c1.6-.7 3.1-1.6 4.5-2.6l9.6 5.2c-1.3 1-2.9 1.9-4.4 2.7z"/><path class="st3" d="M69.3 96.7l-9.6-5.2c1.2-.8 2.3-1.7 3.4-2.7l9.6 5.2c-1.1.9-2.2 1.8-3.4 2.7z"/><path class="st11" d="M72.7 94l-9.6-5.2c.9-.8 1.8-1.7 2.7-2.7l9.6 5.2-2.7 2.7z"/><path class="st1" d="M16 99.6l-9.6-5.2 21.8-3.1 9.6 5.2L16 99.6zm-4.2 5.1l-9.6-5.2c0-.6.1-1.2.3-1.8l9.6 5.2c-.2.6-.3 1.2-.3 1.8z"/><path class="st1" d="M12.1 102.9l-9.6-5.2c.1-.2.2-.5.3-.7l9.6 5.2c-.1.3-.2.5-.3.7z"/><path class="st1" d="M9.8 115.7L2.8 97c.2-.7 1.7-1.9 1.8-2l8.1 6.7c0 .2-2.8 13.8-2.9 14z"/><path class="st1" d="M12.8 101.7l-9.6-5.2c.1-.2.2-.3.4-.5l9.6 5.2c-.2.1-.3.3-.4.5z"/><path class="st1" d="M13.2 101.2L3.5 96l.4-.4 9.6 5.2-.3.4zm.4-.4L4 95.6c.2-.2.3-.3.5-.4l9.6 5.2c-.2.1-.4.2-.5.4z"/><path class="st1" d="M12 104l-7.5-8.9c.2-.2.4-.3.7-.4L17 99.5c-.2.1-.8 1.3-1 1.5"/><path class="st1" d="M14.7 100l-9.5-5.3c.4-.2 1.6-.4 2.6-.5l8.3 5.3c-.5.2-.9.3-1.4.5"/><path class="st13" d="M41.6 99.2L32 94c-1.4-.8-2.6-1.6-3.8-2.6-3-2.6-5.4-5.9-7-9.5-1.6-3.7-2.4-7.6-2.2-11.6 0-4.1.7-8.1 2.1-11.9l14.3 3.5c-1.4 3.8-6.8 9.6-6.8 13.6-.1 4 .6 7.9 2.2 11.6 1.6 3.6 4 6.9 7 9.5 1.1.9 2.4 1.8 3.8 2.6"/><path d="M162.7 79.4c-.5-.2-1.1-.2-1.6-.1l-22.4 3.1c-6 5.4-13.5 8.9-21.4 10.1-7.4 1.1-15-.3-21.4-4.1l-20.5 2.8c-4.8 5.6-11.5 9.4-18.8 10.5-3.3.5-6.7.3-10-.6-3.2-.9-6.3-2.5-8.8-4.6L16 99.6c-1.2.2-2.3.9-3 1.8-.8.9-1.2 2.1-1.2 3.3V157c0 .5.1 1.1.3 1.6s.5.9.9 1.3c.4.3.9.6 1.4.7s1.1.1 1.6 0c1-.3 1.9-1 2.6-1.9.6-.9 1-2 .9-3.1V112c0-1.2.4-2.4 1.2-3.3.8-.9 1.8-1.6 3-1.8l129.6-18.2c.5-.1 1.1 0 1.6.1.5.2 1 .4 1.4.8s.7.8.9 1.4c.2.5.3 1.1.2 1.6l-.1 70.1c0 1.2-.4 2.4-1.2 3.3-.8.9-1.8 1.6-3 1.8L23.5 186c-.5.1-1.1 0-1.6-.1-.5-.2-1-.4-1.4-.8-.4-.4-.7-.8-.9-1.4-.2-.5-.3-1.1-.2-1.6v-11.6c0-.5-.1-1.1-.3-1.6-.2-.5-.5-.9-.9-1.3s-.9-.6-1.4-.7c-.5-.1-1.1-.1-1.6 0-1 .3-1.9 1-2.6 1.9-.6.9-1 2-.9 3.1v19.6c0 .6 0 1.1.2 1.6s.5 1 .9 1.4.9.7 1.4.8c.5.2 1.1.2 1.6.1L161.1 175c1.2-.2 2.3-.9 3-1.8.8-.9 1.2-2.1 1.2-3.3V147l-1.6-.6c-.1-.1-.3-.1-.4-.2.1.1.2.1.3.2l1.6.6 19.8 7.8c1.3.5 2.7.6 4 .4 1.7-.3 3.4-1 4.8-2.1 1.3-1.1 2.4-2.4 3.1-4 .7-1.5 1.1-3.2 1.1-4.9v-45c.1-1.5-.3-3.1-1-4.4-.7-1.4-1.8-2.5-3.2-3.2-1.4-.8-3.1-1-4.7-.8-1.4.2-2.8.8-4 1.6l-19.8 13.3V83.2c0-.6 0-1.1-.2-1.6s-.5-1-.9-1.4c-.5-.4-.9-.7-1.5-.8zm27.5 20.9v45.1c0 .2 0 .3-.1.6-.1.2-.3.4-.5.6-.2.2-.4.3-.7.3-.2.1-.4.1-.6 0l-21.4-8.4c-.2-.1-.4-.3-.5-.5s-.2-.4-.2-.7v-22.2c0-.3.1-.5.2-.8.1-.2.3-.4.5-.6l21.3-14.4c.2-.1.4-.2.6-.2.2-.1.5-.1.7 0s.3.3.5.5c.2.3.2.5.2.7z" fill-rule="evenodd" clip-rule="evenodd" fill="#e87891"/><path d="M161.1 79.2v.2-.2zm-22.4 3.2v-.2h-.1l.1.2zm-21.4 10v-.2.2zm-21.4-4l.1-.2h-.2l.1.2zm-20.6 2.8V91h-.1l.1.2zm-18.8 10.5v.2-.2zm-10-.5l.1-.2-.1.2zm-8.8-4.6l.1-.2-.1-.1h-.1l.1.3zm-21.8 3v-.2.2zm-3 1.8l-.2-.1.2.1zm-1.2 3.3h.2-.2zm0 52.3h.2-.2zm4.2 3.6v.2-.2zm3.6-5h-.2.2zm0-43.6h.2-.2zm4.2-5.1v-.2.2zm129.6-18.2v.2-.2zm4.2 3.9h-.2.2zm-.1 70.1h-.2.2zm-4.2 5.1v.2-.2zM23.5 186v-.2.2zm-3.9-2.3l-.2.1.2-.1zm-.3-1.7h.2-.2zm0-11.5h-.2.2zm-4.2-3.6v-.2.2zm-2.6 1.9l.2.1-.2-.1zm-.9 3.1h.2-.2zm0 19.6h.2-.2zm1.1 2.9l.1-.1-.1.1zm3.1 1v-.2.2zM161.1 175v.2-.2zm4.2-5.1h.2-.2zm0-22.9h.2v-.1l-.1-.1-.1.2zm-1.6-.6l-.1.2.1-.2zm-.4-.2l.1-.2-.2.4.1-.2zm.3.2l-.1.2.1-.2zm1.7.6l.1-.2-.1.2zm19.7 7.8l-.1.2.1-.2zm4 .5v.2-.2zm4.8-2.1l.1.2-.1-.2zm4.2-8.9h.2-.2zm0-45h-.2.2zm-1-4.5l-.2.1.2-.1zm-3.2-3.2l.1-.2-.1.2zm-4.7-.8v-.2.2zm-4 1.6l.1.2-.1-.2zm-19.8 13.3h-.2v.4l.3-.2-.1-.2zm0-22.5h-.2.2zm24.9 17.1h-.2.2zm0 45.2h.2-.2zm-.1.5l.2.1-.2-.1zm-.5.6l-.1-.2.1.2zm-.6.3v-.2.2zm-.6 0l-.1.2.1-.2zm-21.4-8.4l-.1.2.1-.2zm-.5-.5l-.2.1.2-.1zm-.2-.7h.2-.2zm0-22.2h-.2.2zm.2-.7l-.2-.1.2.1zm.5-.6l.1.2-.1-.2zm21.4-14.4l-.1-.2.1.2zm.6-.2v.2-.2zm.6 0l.1-.2-.1.2zm.5.5l-.2.1.2-.1zm-29-20.2c.5-.1 1-.1 1.5 0l.1-.4c-.6-.2-1.1-.2-1.7-.1l.1.5zm-22.4 3.1l22.4-3.1-.1-.4-22.4 3.1.1.4zm-21.4 10c8-1.2 15.5-4.7 21.5-10.1l-.3-.3c-6 5.3-13.4 8.8-21.3 10l.1.4zm-21.5-4c6.5 3.8 14.1 5.1 21.6 4l-.1-.3c-7.3 1.1-14.9-.3-21.3-4l-.2.3zm-20.4 2.8l20.5-2.8-.1-.4L75.3 91l.1.4zm-18.9 10.5c7.4-1.2 14.1-5 18.9-10.6l-.3-.3c-4.8 5.6-11.4 9.3-18.7 10.5l.1.4zm-10-.5c3.3.9 6.7 1.1 10 .6l-.1-.4c-3.3.5-6.7.3-9.9-.6v.4zm-8.9-4.7c2.6 2.2 5.6 3.8 8.9 4.7l.1-.4c-3.2-.9-6.2-2.4-8.8-4.6l-.2.3zM16 99.8l21.8-3.1-.1-.4-21.8 3.1.1.4zm-2.9 1.7c.7-.9 1.8-1.5 2.9-1.7l-.1-.4c-1.2.2-2.3.9-3.1 1.8l.3.3zm-1.2 3.2c0-1.2.6-2.4 1.3-3.3l-.3-.3c-.8 1-1.4 2.4-1.4 3.6h.4zm0 52.3v-52.6l-.4.2V157h.4zm.3 1.5c-.2-.5-.3-1-.3-1.5h-.4c0 .6.1 1.1.3 1.7l.4-.2zm.9 1.2c-.4-.3-.7-.7-.9-1.2l-.4.2c.2.5.6 1 1 1.3l.3-.3zm1.3.7c-.5-.1-.9-.4-1.3-.7l-.3.3c.4.4.9.6 1.5.8l.1-.4zm1.5 0c-.5.1-1 .1-1.5 0l-.1.4c.6.1 1.1.1 1.7 0l-.1-.4zm2.5-1.8c-.6.9-1.5 1.5-2.5 1.8l.1.4c1.1-.4 2-1 2.7-2l-.3-.2zm.9-2.9c0 1.1-.3 2.1-.9 2.9l.3.2c.7-.9 1-2 1-3.2l-.4.1zm0-43.9v43.9h.4V112l-.4-.2zm1.2-3.3c-.8 1-1.2 2.2-1.2 3.4l.4.5c0-1.2.4-2.8 1.1-3.7l-.3-.2zm3.2-1.8c-1.2.2-2.3.8-3.2 1.8l.3.2c.7-.9 2.2-1.5 3.3-1.7l-.4-.3zm129.6-18.2L23.7 106.7l.1.4 129.6-18.2-.1-.4zm1.7.1c-.6-.2-1.2-.2-1.7-.1l.1.4c.5-.1 1 0 1.6.1v-.4zm1.5.9c-.4-.4-.9-.7-1.5-.9l-.1.4c.5.2 1 .4 1.3.8l.3-.3zm1 1.4c-.2-.5-.5-1-1-1.4l-.3.3c.4.4.7.8.9 1.3l.4-.2zm.2 1.7c0-.6.1-1.2-.2-1.7l-.4.2c.2.5.2 1 .2 1.5h.4zm-.1 70.1l.1-70.1h-.4l-.1 70.1h.4zm-1.2 3.4c.8-1 1.2-2.2 1.2-3.4h-.4c0 1.2-.4 2.3-1.1 3.2l.3.2zm-3.2 1.9c1.2-.2 2.6-1.2 3.4-2.1h-.5c-.7.9-2.1 1.5-3.1 1.7l.2.4zM23.6 186.1L153.2 168l-.1-.4-129.6 18.1.1.4zm-1.7-.1c.6.2 1.2.2 1.7.1l-.1-.4c-.5.1-1 0-1.6-.1v.4zm-1.5-.9c.4.4.9.7 1.5.9v-.4c-.5-.2-.9-.4-1.2-.8l-.3.3zm-1-1.4c.2.5.5 1 1 1.4l.3-.3c-.4-.4-.7-.8-.9-1.3l-.4.2zm-.3-1.7c0 .6 0 1.2.3 1.7l.4-.2c-.2-.5-.3-.9-.3-1.5h-.4zm0-11.5V182h.4v-11.6h-.4v.1zm-.2-1.5c.2.5.2 1 .2 1.5h.4c0-.6 0-1.1-.2-1.6l-.4.1zm-.9-1.2c.4.3.7.7.9 1.2l.4-.1c-.2-.5-.6-1.1-1-1.4l-.3.3zm-1.4-.7c.5.1 1 .3 1.4.7l.3-.3c-.4-.4-1-.6-1.6-.8l-.1.4zm-1.4 0c.5-.1.9-.1 1.4 0l.1-.4c-.5-.1-1-.1-1.6 0l.1.4zm-2.5 1.8c.6-.9 1.5-1.5 2.5-1.8l-.1-.4c-1.1.3-2 1-2.7 2l.3.2zm-.9 3.1c0-1.1.3-2.3.9-3.1l-.3-.2c-.7.9-1 2-1 3.2l.4.1zm0 19.5v-19.6h-.4v19.6h.4zm.2 1.5c-.2-.5-.2-1-.2-1.5h-.4c0 .6 0 1.2.2 1.6l.4-.1zm.9 1.3c-.4-.4-.7-.8-.9-1.3l-.4.1c.2.5.5 1 1 1.4l.3-.2zm1.4.8c-.5-.2-1.2-.5-1.5-.9l-.2.3c.4.4 1 .8 1.6 1l.1-.4zm1.5.1c-.5.1-1 0-1.5-.1l-.1.4c.6.2 1.1.2 1.7.1l-.1-.4zM161 174.8L15.8 195.2l.1.4 145.3-20.4-.2-.4zm2.9-1.7c-.7.9-1.8 1.5-2.9 1.7l.1.4c1.2-.2 2.3-.9 3.1-1.9l-.3-.2zm1.2-3.2c0 1.2-.4 2.3-1.2 3.2l.3.2c.8-1 1.3-2.3 1.3-3.5l-.4.1zm0-22.9v22.9h.4V147h-.4zm-1.5-.4l1.6.6.1-.4-1.6-.6-.1.4zm-.4-.2c.1.1.3.1.4.2l.2-.4c-.1-.1-.3-.1-.4-.2l-.2.4zm.5-.2c-.1 0-.2-.1-.3-.2l-.2.4c.1.1.2.1.4.2l.1-.4zm1.6.6l-1.6-.6-.1.4 1.6.6.1-.4zm19.8 7.8l-19.8-7.8-.1.4L185 155l.1-.4zm3.9.5c-1.3.2-2.7-.1-3.9-.5l-.1.4c1.3.5 2.7.7 4.1.5l-.1-.4zm4.6-2.1c-1.3 1.1-2.9 1.8-4.7 2.1l.1.4c1.8-.3 3.5-1 4.9-2.2l-.3-.3zm3.1-3.9c-.7 1.5-1.9 2.8-3.1 3.9l.3.3c1.3-1.1 2.4-2.5 3.2-4l-.4-.2zm1.1-4.8c0 1.7-.4 3.3-1.1 4.8l.4.2c.7-1.6 1.1-3.3 1.1-5h-.4zm0-45v45h.4v-45h-.4zm-1-4.4c.7 1.3 1.1 2.9 1 4.4h.4c.1-1.6-.3-3.2-1.1-4.6l-.3.2zm-3.1-3.1c1.3.8 2.4 1.7 3.1 3.1l.3-.2c-.8-1.4-1.8-2.4-3.2-3.2l-.2.3zm-4.6-.8c1.6-.2 3.3.1 4.6.8l.2-.3c-1.5-.8-3.2-1.2-4.9-.9l.1.4zm-3.9 1.6c1.2-.8 2.5-1.4 3.9-1.6l-.1-.4c-1.5.2-2.8.9-4 1.7l.2.3zm-19.8 13.3l19.8-13.3-.2-.3-19.8 13.3.2.3zm-.3-22.7v22.5h.4V83.2h-.4zm-.2-1.6c.2.5.3 1.2.2 1.7l.4-.1c0-.6 0-1.3-.3-1.8l-.3.2zm-.9-1.3c.4.4.7.8.9 1.3l.4-.1c-.2-.5-.5-1-1-1.4l-.3.2zm-1.4-.8c.5.2 1.1.5 1.4.9l.3-.3c-.4-.4-1-.8-1.6-1l-.1.4zm27.8 65.9v-45h-.4v45h.4zm0 .1v-.1h-.4v.1h.4zm-.1.6c.1-.1.1-.2.1-.3v-.3h-.4v.2c0 .1 0 .1-.1.2l.4.2zm-.5.6c.2-.2.4-.4.5-.6l-.4-.2c-.1.2-.2.4-.4.5l.3.3zm-.8.4c.3-.1.6-.2.8-.4l-.3-.3-.6.3.1.4zm-.7 0c.2.1.5.1.7 0l-.1-.4h-.5l-.1.4zm-21.3-8.5l21.3 8.5.1-.4-21.3-8.5-.1.4zm-.7-.5c.2.2.5.4.7.5l.1-.4c-.2-.1-.3-.2-.5-.4l-.3.3zm-.2-.8c0 .3.1.6.2.8l.3-.3c-.1-.2-.1-.3-.1-.5h-.4zm0-22.2v22.2h.4v-22.2h-.4zm.2-.8c-.1.3-.2.6-.2.8h.4c0-.2.1-.5.2-.7l-.4-.1zm.7-.7c-.3.2-.6.5-.7.7l.4.2c.1-.2.3-.4.5-.5l-.2-.4zm21.2-14.3l-21.3 14.4.2.3 21.3-14.4-.2-.3zm.7-.3c-.2 0-.5.1-.7.3l.2.3c.2-.1.3-.2.5-.2V99zm.8 0c-.3-.1-.5-.1-.8 0v.4c.2-.1.5-.1.7 0l.1-.4zm.6.6c-.1-.2-.4-.4-.6-.6l-.1.4c.2.1.3.1.4.3l.3-.1zm.1.8c0-.3.1-.6-.1-.8l-.3.1c.1.2 0 .6 0 .7h.4z"/><path class="st5" d="M129.9 159.8l-11-5.6c1.3-.7 12-1.8 14.4-2.1.3 0 .6 0 .8.2l9.5 5.4-13.7 2.1zm-2.4 7.4l-9.6-5.2c-.6-.3-1-.8-1.4-1.4-.3-.6-.5-1.2-.4-1.9 0-.5.1-.9.2-1.3 0-.1.8-.2.9-.3l8.9 5.2c-.2.5-.3 1.1-.3 1.6 0 .7.1 1.3.4 1.9.3.5.7 1 1.3 1.4"/><path class="st5" d="M126.8 164.4l-10.6-6.5s.1-.5.1-.6c.1-.3.5-1.2.6-1.4l9.4 5.5c.1.3.6 2.8.5 3z"/><path class="st5" d="M126.3 161.6l-9.6-5.2c.1-.2.4-1.2 1.4-1.6l9 6.4c-.2.1-.7.2-.8.4"/><path class="st5" d="M126.6 161.1l-9.6-5.2c.1-.1 1-2.1 4.3-2.1l11.1 5.1-5.8 2.2"/><path class="st5" d="M127 160.6l-9.6-5.2.4-.4 9.6 5.2-.4.4z"/><path class="st5" d="M127.4 160.3l-9.6-5.2c.1-.1.3-.3.5-.4l9.6 5.2c-.2.1-.4.2-.5.4z"/><path class="st5" d="M127.8 159.9l-9.7-5.2.8-.5 9.4 5.3-.5.4"/><path class="st5" d="M128.4 159.5l-9.6-5.2c.4-.2.7-.3 1.1-.3l9.6 5.2c-.3.1-.7.2-1.1.3z"/><path class="st15" d="M146 161c0 1.1-.4 2.2-1.1 3-.7.8-1.7 1.4-2.7 1.6l-12.7 1.8c-.5.1-1 0-1.5-.1-.5-.2-.9-.4-1.3-.7s-.6-.8-.8-1.2c-.2-.5-.2-1-.2-1.4 0-1.1.4-2.1 1.1-3 .7-.8 1.7-1.4 2.7-1.6l12.7-1.8c.5-.1 1 0 1.4.1.5.2.9.4 1.3.7.4.3.6.7.8 1.2.3.4.3.9.3 1.4z"/><path class="st5" d="M118.2 160.8l-9.7-5.2c.4-.1.9-.1 1.3 0l9.6 5.2c-.4-.1-.9-.1-1.2 0"/><path class="st5" d="M119.4 160.9l-9.7-5.2c.2 0 .4.1.6.2l9.6 5.2c-.1-.1-.3-.2-.5-.2"/><path class="st1" d="M160.9 79.4l-9.9-5.2c.5-.1 1.5-.3 2-.2l9.6 5.3c-.5-.1-1-.1-1.5-.1"/><path class="st1" d="M162.5 79.3l-9.6-5.2c.2.1.4.1.7.2l9.6 5.2c-.2 0-.4-.1-.7-.2z"/><path class="st1" d="M163.2 79.6l-9.6-5.2h.1l9.6 5.2h-.1z"/><path class="st5" d="M105.4 163l-10.5-4.1 1.3-1.6 12.3-1.7 5 2.4 4.7 2.9-12.8 2.1z"/><path class="st5" d="M103.6 170.7l-9.9-5.2c-.6-.3-1-.8-1.4-1.4-.3-.6-.5-1.2-.4-1.9 0-.6.1-1.1.3-1.6l15.9 1.7c-.2.5-6.3 4.6-6.3 5.2 0 .7 1.5 1.3 1.9 1.9.3.5-.6.9-.1 1.3z"/><path class="st5" d="M101.9 165.6l-9.7-5c.1-.2.2-.7.3-.9.1-.4 1-2.4 5.7-2.7l4 8c-.2.2-.3.4-.3.6z"/><path class="st5" d="M102.2 165l-9.6-5.2c.1-.2.2-.3.3-.5l9.6 5.2c-.2.1-.3.3-.3.5z"/><path class="st5" d="M102.5 164.5l-9.6-5.2.3-.4 9.6 5.2-.3.4zm.3-.5l-9.6-5.2.4-.4 9.6 5.2-.4.4z"/><path class="st5" d="M103.2 163.6l-9.6-5.2c.1-.1 2.1-.3 2.3-.4l7.8 5.3c-.2.1-.3.2-.5.3z"/><path class="st5" d="M103.7 163.3l-7.4-4.4c.2-.1.2-.4.4-.5l7.5 4.5c-.1.1-.3.2-.5.4"/><path class="st5" d="M104.3 162.9l-9.4-4.5c.4-.2 2.8-.4 3.2-.5l7.3 4.6c-.3.1-.7.3-1.1.4"/><path class="st15" d="M121.9 164.3c0 1.1-.3 2.2-1 3-.7.9-1.6 1.5-2.7 1.7l-12.7 1.8c-.5.1-1 0-1.5-.1s-.9-.4-1.3-.7-.6-.8-.8-1.2c-.2-.5-.2-1-.2-1.4 0-1.1.4-2.1 1.1-3 .7-.8 1.6-1.4 2.7-1.6l12.7-1.8c.5-.1 1 0 1.4.2.5.2.9.4 1.2.7.3.3.6.7.8 1.2.2.3.3.8.3 1.2z"/><path class="st1" d="M138.7 82.4l-9.6-5.2 22.4-3.1 9.6 5.2-22.4 3.1z"/><path class="st5" d="M88.9 166.8l-4.5-7.8c.4-.1.9-.1 1.4 0l9.5 5.4c-.4-.1-.9-.1-1.3 0"/><path class="st5" d="M95.3 164.3l-9.6-5.3c.2.1.4.1.6.2l9.6 5.2c-.2 0-.4-.1-.6-.1"/><path class="st5" d="M95.9 164.5l-9.6-5.2 8.4 6.3 1.2-1.1"/><path class="st5" d="M75.8 167.2l-4.1-6.4 12.7-1.8 9.6 5.2-18.2 3zm3.4 6.8l-9.6-5.2c-.6-.3-1-.8-1.4-1.4-.3-.6-.5-1.2-.4-1.9 0-.6.1-1.1.3-1.6l9.6 5.2c-.2.5-.3 1.1-.3 1.6 0 .7.1 1.3.4 1.9.4.5.9 1 1.4 1.4"/><path class="st5" d="M77.7 169l-9.6-5.2c.1-.2.2-.4.3-.7l9.7 5.2c-.2.3-.3.5-.4.7"/><path class="st5" d="M78 168.4l-9.6-5.2c.1-.2.2-.3.3-.5l9.6 5.2c-.1.1-.2.3-.3.5z"/><path class="st5" d="M78.3 167.9l-9.6-5.2.3-.4 9.6 5.2-.3.4zm.3-.5l-9.6-5.2.4-.4L79 167l-.4.4"/><path class="st5" d="M79 167l-9.6-5.2c.1-.1.3-.3.5-.4l9.6 5.2c-.2.2-.3.3-.5.4z"/><path class="st5" d="M79.5 166.7l-9.6-5.2c.2-.2.4-.3.6-.4l9.7 5.2c-.3.1-.5.2-.7.4"/><path class="st5" d="M78.3 171.8L67.9 166c-.3.3-1.2-4.3 3.8-5.2l9.6 5.2c-.4 0-.8.2-1.1.3m51.5-146.7l2.1 1.1c2.3 1.2 4.6 3 6.4 4.9.2.2.4.3.7.4"/><path fill="#b4d1fa" d="M117.4 9.7l13.4 9.4 5.8 3.4 3.9 3.3 2.3.6 2.8-7.3-18.1-8.5z"/><path class="st15" d="M97.7 167.8c0 1.1-.4 2.2-1.1 3s-1.7 1.4-2.7 1.6l-12.7 1.8c-.5.1-1 0-1.5-.1-.5-.2-.9-.4-1.3-.7s-.6-.8-.8-1.2c-.2-.5-.2-1-.2-1.4 0-1.1.4-2.1 1.1-3 .7-.8 1.7-1.4 2.7-1.6l12.7-1.8c.5-.1 1 0 1.5.1.5.2.9.4 1.3.7s.6.8.8 1.2c.2.4.2.9.2 1.4z"/><path class="st12" d="M104 91.7l-9.6-5.2c4.3 1.1 8.9 1.3 13.3.7 3.9-.6 7.7-1.7 11.3-3.4l9.6 5.2c-3.6 1.7-7.4 2.8-11.3 3.4-4.5.7-9 .5-13.3-.7z"/><path class="st2" d="M128.5 89.1l-9.6-5.2c2.2-1 4.2-2.2 6.2-3.6l9.6 5.2c-1.9 1.3-4 2.5-6.2 3.6z"/><path class="st3" d="M134.7 85.5l-9.6-5.2c1.4-1 2.7-2 4-3.1l9.6 5.2c-1.3 1.1-2.6 2.1-4 3.1z"/><path class="st5" d="M65.7 170.4l-5.5-8c.4-.1.9-.1 1.3 0l9.6 5.2c-.4-.1-5 2.7-5.4 2.8z"/><path class="st5" d="M71.1 167.7l-9.6-5.2c.2.1.4.1.6.2l9.6 5.2c-.2-.1-.4-.2-.6-.2"/><path class="st5" d="M71.7 167.9l-9.6-5.2h.1l9.5 5.2M57.4 170l-9.8-6 12.6-1.6 10.2 5.4-13 2.2zm-2.4 7.3l-9.6-5.2c-.6-.3-1-.8-1.4-1.4-.3-.6-.5-1.2-.4-1.9 0-.6.1-1.1.3-1.6l9.6 5.2c-.2.5-.3 1.1-.3 1.6 0 .7.1 1.3.4 1.9.4.6.9 1.1 1.4 1.4z"/><path class="st5" d="M53.8 174l-9.9-6.8c.1-.2.2-.5.4-.8l9.5 5.3c-.1.3.1 2 0 2.3z"/><path class="st5" d="M53.8 171.8l-9.7-5c1.2-2.5 2.2-2.2 2.3-2.3l7.8 6.8c-.1.1-.2.3-.4.5"/><path class="st5" d="M54.1 171.3l-9.6-5.2.3-.4 9.6 5.2-.3.4zm.4-.5l-9.7-5.2.5-.6 9.7 5.3-.5.5"/><path class="st5" d="M54.2 171.8l-9.2-6.5c.9-.8 1.8-1.2 3.6-1.4l9.2 5.5-3.6 2.4z"/><path class="st5" d="M55.3 170.1l-9.6-5.2c.2-.1.4-.3.6-.4l9.6 5.2c-.1.1-.4.2-.6.4zm.7-.4l-9.6-5.2c.4-.2.7-.3 1.1-.3l9.6 5.2c-.4 0-.7.1-1.1.3"/><path class="st15" d="M73.5 171.2c0 1.1-.4 2.2-1.1 3s-1.7 1.4-2.7 1.6L57 177.6c-.5.1-1 0-1.5-.1s-.9-.4-1.3-.7c-.4-.3-.6-.8-.8-1.2-.2-.5-.3-1-.2-1.4 0-1.1.4-2.1 1.1-3 .7-.8 1.7-1.4 2.7-1.6l12.7-1.8c.5-.1 1 0 1.4.1.5.1.9.4 1.3.7s.6.7.8 1.2c.3.4.4.9.3 1.4z"/><path class="st5" d="M100.9 81.3l-9.6-5.2 1 .5 9.6 5.2-1-.5z"/><path class="st5" d="M101.8 81.8l-9.6-5.2c1.6.8 3.2 1.4 4.9 1.8l9.6 5.2c-1.7-.5-3.3-1.1-4.9-1.8z"/><path class="st5" d="M103.3 86.1l-6.2-7.7c3.4.9 7 1.1 10.6.5 3.1-.4 6.1-1.3 9-2.7l9.6 5.2c-2.8 1.4-5.8 2.3-8.9 2.7-3.6.6-7 4.1-10.5 3.2"/><path class="st5" d="M113.4 86.8l3.2-10.6c1.7-.8 3.4-1.8 5-2.9l13.1 5.1c-1.6 1.1-19.5 7.5-21.3 8.4z"/><path class="st5" d="M131.2 78.6l-9.6-5.2c1.3-.9 2.5-1.9 3.7-3l9.6 5.2c-1.1 1.1-2.4 2.1-3.7 3z"/><path class="st5" d="M133.3 80.3l-8-9.9c1.1-1 2.2-2 3.1-3.1l13.2 4.2c-1 1.1-5.2 6.6-6.3 7.6"/><path class="st5" d="M138.1 72.4l-9.6-5.1c1-1.1 1.9-2.3 2.8-3.5l9.6 5.2c-.9 1.2-1.8 2.4-2.8 3.4"/><path class="st5" d="M141.2 70.1l-11.6-3.7c.9-1.8 3.4-5.4 4.1-6.8l9.6 5.2c-.7 1.5-1.2 4-2.1 5.3z"/><path class="st5" d="M143.4 66.5l-9.6-6.8c.9-1.7 1.7-3.4 2.3-5.2l12.5-.6c-.7 1.8-3.7 10.4-4.6 12"/><path class="st5" d="M145.6 59.7l-9.6-5.2c1.5-4.2 2.3-8.6 2.4-13 0-.6.1-1.1.3-1.6l9.6 5.2c-.2.5 2.1 6 2.1 6.5 0 4.5-3.2 4-4.8 8.1zm2.8-14.6l-9.6-5.2c.1-.2.2-.4.3-.7l9.6 5.2c-.2.3-.3.5-.3.7"/><path class="st5" d="M148.6 44.4l-9.6-5.2c.1-.2.2-.4.3-.5l9.6 5.2c-.1.2-.2.4-.3.5z"/><path class="st5" d="M148.9 43.9l-9.6-5.2c.1-.2.2-.3.3-.4l9.6 5.2c-.1.1-.2.3-.3.4m.4-.4l-9.6-5.2.4-.4 9.6 5.2c-.1.1-.3.2-.4.4z"/><path class="st5" d="M148.6 46.5L138.4 41c.1-.1 0-3.7 3.7-4.2l11.1 5.1.5.5c-.2.1-3.6 1.7-3.7 1.8"/><path class="st5" d="M150.2 42.7l-9.6-5.2.6-.4 9.6 5.2c-.2.1-.4.3-.6.4zm.6-.4l-9.6-5.2c.4-.2.7-.3 1.1-.3.4-.1.9-.1 1.3 0l9.6 5.2c-.4-.1-.9-.1-1.3 0-.3 0-.7.1-1.1.3"/><path class="st5" d="M153.2 42.4l-9.6-5.6c.2.1.5.1.7.2l9.9 5.4c-.3-.1-.8 0-1 0z"/><path class="st1" d="M75.4 91.3l-9.6-5.2 20.5-2.9 9.6 5.2-20.5 2.9z"/><path class="st5" d="M117.4 9.6l-9.6-5.2c4.4-.6 9-.4 13.3.7l9.7 5.3c-4.4-1.1-8.9-1.4-13.3-.7"/><path class="st5" d="M129.4 11.5l-9.5-6.7c2.1.5 5.5 1.5 7.4 2.5l9.6 5.2c-2-.9-5.5-.4-7.5-1z"/><path class="st5" d="M136.9 12.6l-9.6-5.2 1.2.6 9.1 7.6-.7-3zM96.8 88.9l-9.6-5.2c-.3-.2-.6-.3-.9-.5-5.1-3-9.4-7.4-12.2-12.7-3.2-5.9-4.8-12.6-4.7-19.3 0-2 .1-4 .3-5.9.5-3.5 1.3-7 2.6-10.4l9.6 5.2c-1.2 3.3-2.1 6.8-2.6 10.4-.3 2-.4 3.9-.4 5.9-.1 6.7 1.6 13.4 4.8 19.3 2.8 5.2 7.1 9.6 12.2 12.7.3.2.6.4.9.5z"/><path class="st5" d="M80.6 52.1L70 42.8c.5-6 4.1-12.3 5.2-14.4L88 30.8c-1.1 2.1-6.6 19.1-7.4 21.3z"/><path class="st5" d="M84.8 33.7l-9.6-5.2c1-1.8 2-3.5 3.1-5.1l17.4 2c-1.2 1.6-10 6.5-10.9 8.3z"/><path class="st5" d="M87.9 28.6l-9.6-5.2c1.1-1.5 2.2-3 3.5-4.4l9.6 5.2c-1.2 1.4-2.4 2.9-3.5 4.4z"/><path class="st5" d="M89.3 30.6L81.8 19c1.2-1.4 2.5-2.7 3.9-4l14 3c-1.4 1.3-9.2 11.2-10.4 12.6z"/><path class="st5" d="M95.3 20.2L85.7 15c1.5-1.3 3-2.6 4.7-3.7l9.6 5.2c-1.6 1.2-3.2 2.4-4.7 3.7z"/><path class="st5" d="M91.9 26.3l-1.5-15c2-1.3 4-2.5 6.2-3.6l14.2 4.1c-2.2 1.1-17 13.2-18.9 14.5z"/><path class="st5" d="M106.2 13l-9.6-5.2c3.6-1.7 7.4-2.8 11.3-3.4L122 9.1c-4 .5-12.3 2.2-15.8 3.9z"/><path class="st15" d="M117.4 9.7c-19.3 2.7-35.4 20.4-38 40.9-.3 1.9-.4 3.9-.4 5.9-.1 6.7 1.5 13.3 4.7 19.2 2.8 5.2 7 9.6 12.2 12.6 6.5 3.8 14 5.2 21.4 4 8-1.2 15.4-4.7 21.4-10 5.3-4.6 9.5-10.2 12.4-16.5s4.5-13.2 4.6-20.2c0-.5 0-1-.2-1.4-.2-.5-.5-.9-.8-1.2-.4-.3-.8-.6-1.3-.7-.5-.1-1-.2-1.4-.1-1.1.2-2.1.8-2.8 1.6-.7.9-1.1 1.9-1.1 3 0 18.3-13.8 35.2-30.8 37.5s-30.8-10.7-30.8-29 13.9-35.1 30.9-37.5c4.1-.6 8.3-.3 12.2 1 3.9 1.3 7.5 3.6 10.4 6.6M117.4 9.7c5.1-.8 10.3-.3 15.2 1.3 4.9 1.6 9.3 4.4 12.9 8.1m-5.5 6.3c.4.4.8.6 1.3.8.5.2 1 .2 1.5.1m0 0c.8-.1 1.5-.5 2.1-1s1.1-1.1 1.3-1.9c.3-.7.4-1.5.3-2.3-.1-.8-.5-1.4-1-2m-2.7 7.2"/><path class="st5" d="M140.1 25.6l-9.3-5.1c-.3-.2-.5-.4-.8-.6-.5-.5-1-1-1.5-1.4l1.4.5 1.6.6s.4.2.5.2l3.2 1.7.4.3 2.6 1.9.3.2 1.6 1.7z"/><path class="st1" d="M45.7 91.5l-9.6-5.3.6.3 9.7 5.3-.7-.3"/><path class="st1" d="M46.4 91.9l-9.6-5.2c1 .5 2.1.9 3.2 1.2l9.6 5.2c-1.1-.3-2.2-.7-3.2-1.2z"/><path class="st1" d="M48.6 93.7L40 87.8c2.3.6 4.7.7 7 .4l20.3 2.9c-2.3.3-14.6 4.5-16.9 3.9"/><path class="st1" d="M56.6 93.4L47 88.2c2-.3 4-.9 5.9-1.8l9.6 5.2c-1.9.9-3.9 1.5-5.9 1.8z"/><path class="st1" d="M51 98.7l1.9-12.3c1.2-.5 2.3-1.2 3.3-1.9l14.1 2.3c-1.1.8-18.2 11.4-19.3 11.9z"/><path class="st1" d="M65.8 89.7l-9.6-5.2c.9-.6 1.7-1.2 2.5-1.9l9.6 5.2c-.8.7-1.7 1.3-2.5 1.9z"/><path class="st1" d="M68.2 87.8l-10.5-4.4c.9-.6 2.4-2.2 3-2.9l9.6 5.2c-.6.7-1.3 1.4-2.1 2.1z"/><path class="st1" d="M69.9 86.8l-9.7-5.7c.7-.7 2.4-3.1 2.9-3.9l9.6 5.2c-.5.8-2.1 3.6-2.8 4.4z"/><path class="st1" d="M72.3 83.1l-9.6-5.2c.6-.9 1.2-1.8 1.7-2.7l9.6 5.2c-.6.9-1.1 1.8-1.7 2.7z"/><path class="st1" d="M73.8 80.7l-9.6-5.2c.6-1.1 1.2-2.6 1.6-3.7l9.7 5c-.4 1.1-1.1 2.8-1.7 3.9z"/><path class="st1" d="M75.4 77.2l-9.7-5c1-2.7 1.5-5.9 1.6-8.8.1-3.5-.7-6.9-2.3-9.9-1.7-3-4.1-5.6-7.1-7.3L68.5 50c3 1.7 4.4 5.7 6.1 8.7s2.5 6.5 2.3 9.9c0 3-.5 5.9-1.5 8.6z"/><path class="st13" d="M30.7 63.6L21 58.7c.6-1.6 1.7-4.1 2.5-5.6l13.6 4.1c-.8 1.5-5.8 4.7-6.4 6.4"/><path class="st13" d="M32.8 58.9l-9.7-5.2c.7-1.3 2.2-3.5 3.1-4.7l15.1 4c-.8 1.2-7.8 4.6-8.5 5.9z"/><path class="st13" d="M35.1 55.1l-9.6-5.2c.8-1.1 1.6-2.2 2.5-3.2l17 2.6c-.9 1-9.1 4.7-9.9 5.8z"/><path class="st13" d="M37.6 51.9L28 46.7c.9-1 1.9-2 2.9-2.9l16.4 5.1c-1 .9-8.8 2-9.7 3z"/><path class="st13" d="M40.5 49l-9.6-5.2c1.1-1 2.2-1.9 3.4-2.7l20 4c-1.2.9-12.7 3-13.8 3.9z"/><path class="st13" d="M43.9 46.3l-9.6-5.2c1.4-1 3-1.9 4.6-2.6l15.9 4.4c-1.7.7-9.4 2.4-10.9 3.4z"/><path class="st13" d="M48.5 43.7l-9.6-5.2c2.6-1.2 5.3-2 8.2-2.4 3.2-.5 6.5-.3 9.7.5l9.6 5.2c-3.2-.8-5.6 2-8.9 2.5-2.8.3-6.4-1.8-9-.6z"/><path class="st13" d="M65.3 42.8l-8.7-6.2c1.5.4 3.1.8 4.5 1.5l9.6 5.2c-1.3-.6-3.8-.1-5.4-.5z"/><path class="st13" d="M70.8 43.4l-9.6-5.2.8.4 9.7 5.2-.9-.4"/><path class="st17" d="M78.9 56.4c-.1 6.7 1.5 13.4 4.7 19.3-1.5 5.8-4.3 11.1-8.3 15.6-4.8 5.6-11.5 9.4-18.8 10.5-3.3.5-6.7.3-10-.6-3.2-.9-6.3-2.5-8.8-4.6-3-2.6-5.4-5.9-7-9.5-1.6-3.6-2.4-7.6-2.2-11.6 0-16.7 12.7-32 28.1-34.2 4.3-.7 8.6-.2 12.6 1.4 4 1.6 7.5 4.3 10.1 7.7-.2 2.1-.4 4-.4 6zm-22.3 37C67.8 91.8 76.9 80.7 77 68.6c0-12.1-9.1-20.6-20.3-19S36.3 62.3 36.3 74.3s9 20.7 20.3 19.1"/><path d="M78.9 56.4h.2-.2zm4.7 19.3h.2v-.2l-.2.2zm-8.2 15.6zm-18.9 10.6v.2-.2zm-18.8-5.2l-.1.2.1-.2zm-9.2-21.1h.2-.2zm28.1-34.2v.2-.2zm22.7 9.1h.2v-.2l-.2.2zm-.6 5.9c-.1 6.8 1.6 13.5 4.8 19.4h.4c-3.2-5.9-4.9-12.7-4.8-19.4h-.4zm4.8 19.3c-1.4 5.8-4.3 11.1-8.2 15.5l.3.3c4-4.5 6.9-9.9 8.3-15.7l-.4-.1zm-8.2 15.5c-4.8 5.6-11.5 9.3-18.8 10.5l.1.4c7.4-1.2 14.2-5 19-10.6l-.3-.3zm-18.8 10.5c-3.3.5-6.7.3-9.9-.6l-.1.4c3.3.9 6.7 1.1 10 .6v-.4zm-9.9-.6c-3.2-.9-6.2-2.4-8.8-4.6l-.3.3c2.6 2.2 6.2 3.9 9.5 4.8l-.4-.5zm-8.7-4.6c-3-2.6-5.3-5.8-6.9-9.4l-.4.2c1.6 3.7 4 6.9 7 9.6l.3-.4zM31 87.1c-1.6-3.6-2.4-7.5-2.3-11.5h-.5c-.1 4 .9 8.2 2.5 11.9l.3-.4zm-2.3-11.5c0-16.6 12.8-31.8 28.1-34l-.2-.4c-15.5 2.2-28.4 17.6-28.4 34.4h.5zm28-34c4.2-.7 8.5-.2 12.5 1.4l.2-.4c-4-1.6-8.5-2.1-12.8-1.4l.1.4zM69.2 43c4 1.6 7.4 4.2 10 7.6l.3-.2c-2.6-3.5-6.1-6.2-10.1-7.8l-.2.4zm9.9 7.5c-.3 2-.4 3.9-.4 5.9h.4c0-2 .2-3.9.4-5.9h-.4zM56.6 93.6c11.3-1.6 20.5-12.8 20.5-25h-.4c0 12-9.1 23-20.2 24.6l.1.4zm20.5-25c0-12.2-9.2-20.9-20.5-19.2l.1.4c11.1-1.6 20.1 6.8 20 18.8h.4zM56.7 49.4c-11.3 1.7-20.6 12.9-20.7 25h.4c0-12 9.2-23 20.3-24.6v-.4zm-20.6 25c0 12.2 9.2 20.9 20.5 19.2l-.1-.4c-11.1 1.6-20.1-6.8-20.1-18.8h-.3z"/><path class="st17" d="M163 145h2.1v3H163z"/></svg>