<svg width="250" height="250" fill="none" xmlns="http://www.w3.org/2000/svg"><path d="M243.659 43.088l-10.53-5.73 10.53 5.73z" fill="#904A5A"/><path d="M149.597 225.17l-10.53-5.73-1.825-8.179 10.531 5.73 1.824 8.179z" fill="#743C49"/><path d="M147.775 216.992l-10.507-5.73h.161l10.508 5.73h-.139m.118-.069l-10.508-5.73c.282-.139.553-.302.808-.485l10.6 5.73a5.989 5.989 0 01-.831.485" fill="#882F40"/><path d="M148.814 216.437l-10.531-5.73c.231-.149.447-.319.647-.508l10.53 5.73a4.405 4.405 0 01-.646.508z" fill="#882F40"/><path d="M149.392 215.929l-10.531-5.73a4.15 4.15 0 00.555-.554l10.53 5.845a6.448 6.448 0 01-.554.555" fill="#882F40"/><path d="M142.639 223.306l-10.43-10.429c4.478-1.629 7.136-2.745 8.783-6.039l13.725 4.941c-.157.233-11.896 11.314-12.078 11.527z" fill="#882F40"/><path d="M150.455 214.704l-10.508-5.707c.168-.253.322-.516.462-.785l10.531 5.73c-.14.267-.302.522-.485.762z" fill="#882F40"/><path d="M150.939 213.942l-10.531-5.73a5.68 5.68 0 00.462-1.017l10.531 5.73a8.234 8.234 0 01-.462 1.017zm.463-1.017l-10.531-5.73a7.594 7.594 0 00.485-2.726l10.531 5.73a8.196 8.196 0 01-.485 2.726z" fill="#882F40"/><path d="M237.907 45.005l-10.577-5.73.231-.392 10.577 5.637c-.09.123-.167.255-.231.393" fill="#824351"/><path d="M238.136 44.52l-10.531-5.637a3.29 3.29 0 01.347-.416l10.53 5.707-.346.439" fill="#874654"/><path d="M238.484 44.175l-10.531-5.707a2.99 2.99 0 01.37-.393l10.553 5.73-.369.37" fill="#8B4857"/><path d="M238.878 43.805l-10.554-5.73.485-.37 10.531 5.73c-.171.11-.334.234-.485.37" fill="#904A5A"/><path d="M239.339 43.435l-10.53-5.73a3.93 3.93 0 01.669-.392l10.531 5.73a3.91 3.91 0 00-.67.392z" fill="#944D5D"/><path d="M240.007 43.042l-10.53-5.73a4.75 4.75 0 011.27-.393 3.646 3.646 0 011.501 0l10.53 5.73a3.65 3.65 0 00-1.501 0 4.783 4.783 0 00-1.27.393z" fill="#994F60"/><path d="M242.781 42.742l-10.531-5.73c.231.053.455.13.67.231l10.576 5.73a3.265 3.265 0 00-.669-.231" fill="#944D5D"/><path d="M243.495 42.973l-10.53-5.73 10.53 5.8" fill="#904A5A"/><path d="M244.859 49.118l-10.531-5.707-6.951-4.135 10.531 5.73 6.951 4.112z" fill="#743C49"/><path d="M243.657 43.088a4.297 4.297 0 011.201 6.053l-6.928-4.135a4.623 4.623 0 013.371-2.31 3.695 3.695 0 012.356.392z" fill="#CB697F"/><path d="M152.519 212.327l-11.165-7.86.023-12.868 11.691 4.26-.549 16.468zm.037-17.539l-10.531-5.73L228 39.001c4.703.659 6.811 2.147 10.094 6.212l-85.538 149.575z" fill="#882F40"/><path d="M151.909 197.33l-10.53-5.73a5.79 5.79 0 01.323-1.871l10.531 5.73a5.813 5.813 0 00-.324 1.871z" fill="#882F40"/><path d="M152.234 195.459l-10.531-5.73a6.03 6.03 0 01.254-.555l10.531 5.73c-.094.18-.179.366-.254.555z" fill="#7D414E"/><path d="M152.487 194.904l-10.6-5.73 10.669 5.522" fill="#824351"/><path d="M160.221 187.654l-1.663 4.875-.138.324 1.686-4.875a1.35 1.35 0 000-.324" fill="#40689D"/><path d="M160.105 187.978l-1.686 4.875a4.836 4.836 0 01-.831 1.27l1.663-4.874c.357-.371.646-.801.854-1.271z" fill="#40689D"/><path d="M159.25 189.249l-1.662 4.875-.324.347a12.347 12.347 0 01-2.309 1.64l1.686-4.875a12.147 12.147 0 002.309-1.64l.324-.347" fill="#40689D"/><path d="M156.688 191.235l-1.685 4.875a22.3 22.3 0 01-2.564 1.271 75.354 75.354 0 01-16.35 4.274h-.185a5.98 5.98 0 01-1.57 0l1.663-4.875a5.98 5.98 0 001.57 0h.208a76.2 76.2 0 0016.327-4.274 30.03 30.03 0 002.586-1.271z" fill="#40689D"/><path d="M135.995 196.781l-1.662 4.875a9.16 9.16 0 01-1.132-.277l1.755-4.875c.372.114.75.206 1.132.277" fill="#40689D"/><path d="M134.959 196.503l3.289 4.748c-4.941 1.098-6.588 0-8.234-2.195l4.021-2.945c.299.15.608.281.924.392z" fill="#40689D"/><path d="M136.052 197.957l-3.772 3.029c-1.168-.284-1.168-.833-2.266-1.931l3.051-3.36c.279.199 1.584 1.009 1.889 1.164" fill="#40689D"/><path d="M134.404 195.761l-3.026 4.808a4.61 4.61 0 01-1.27-1.34 2.549 2.549 0 01-.346-2.172l1.686-4.874c-.114.359.155.461.211.834.056.372.335.788.549 1.098.344.529 1.685 1.275 2.196 1.646z" fill="#40689D"/><path d="M150.199 185.668l-1.663 4.875-1.108-.185 1.662-4.875 1.109.185z" fill="#2F527F"/><path d="M150.5 185.228l-3.071 5.129a46.689 46.689 0 00-3.187-.346c-6.589-.382-13.2-.142-19.745.716-4.262.508-8.488 1.28-12.655 2.31a37.357 37.357 0 00-8.106 2.819v-5.129c2.575-1.253 6.974-1.852 9.769-2.472a99.097 99.097 0 0112.678-2.31c6.545-.859 13.064-2.173 19.653-1.791 1.178 0 2.31.208 3.164.347" fill="#2F527F"/><path d="M104.934 191.211l-1.663 4.875 1.663-4.852" fill="#687991"/><path d="M120.731 196.919l-1.698 4.88c-.549 1.098-.941.938-1.097 1.098l2.426-5.424c.151-.164.276-.351.369-.554z" fill="#40689D"/><path d="M120.361 197.474l-1.57 4.875c-1.406 1.646-4.996.41-5.248.548l6.171-4.892c.249-.131.469-.312.647-.531z" fill="#40689D"/><path d="M119.716 198.006l-1.686 4.875a3.73 3.73 0 01-1.501.485h-.624a78.241 78.241 0 01-8.66-.347l-2.54-.392 1.686-4.875 2.471.3c2.892.295 5.799.419 8.706.37h.647a4.122 4.122 0 001.501-.416z" fill="#40689D"/><path d="M106.39 197.844l-1.685 4.782a32.3 32.3 0 01-4.619-1.062l1.663-4.875c1.557.472 3.147.827 4.757 1.063" fill="#40689D"/><path d="M101.633 196.781l-1.686 4.875 1.686-4.875z" fill="#687991"/><path d="M101.633 196.781l-1.686 4.875a19.16 19.16 0 01-2.517-1.017l1.662-4.944c.822.398 1.671.738 2.541 1.017" fill="#65758C"/><path d="M99.092 195.695l-1.662 4.875a12.127 12.127 0 01-1.71-1.04l1.663-4.875c.552.375 1.123.722 1.71 1.04z" fill="#617187"/><path d="M97.383 194.725l-1.685 4.875h-.139a7.157 7.157 0 01-1.963-2.311 3.809 3.809 0 01-.208-3.142l1.663-4.875a3.909 3.909 0 00.346 3.143 7.184 7.184 0 001.986 2.31z" fill="#5E6D82"/><path d="M122.657 179.483h.002c4.418-.559 8.862-.883 13.314-.97h.001a79.191 79.191 0 0111.325.462h0c2.082.224 4.139.633 6.148 1.221a16.89 16.89 0 013.213 1.378h.002a8.195 8.195 0 013.149 2.968h0a3.84 3.84 0 01.451 2.947 4.74 4.74 0 01-1.31 2.032 15.642 15.642 0 01-4.796 2.892h0a76.08 76.08 0 01-16.298 4.268h-.201v-.001l-.011.002a6.179 6.179 0 01-5.702-2.544c-.526-.864-.552-1.702-.195-2.366.36-.668 1.119-1.18 2.206-1.361a87.646 87.646 0 009.732-2.105 32.964 32.964 0 006.3-2.317h0l.007-.004.346-.208.228-.137-.261-.047a37.632 37.632 0 00-4.284-.533h0a105.04 105.04 0 00-19.763.717 99.269 99.269 0 00-12.689 2.312 36.685 36.685 0 00-8.197 2.896h0l-.004.002-.461.254-.254.139.286.047c3.425.559 6.894.807 10.364.741h.001a5.738 5.738 0 015.354 3.173c.276.799.141 1.518-.295 2.068-.437.554-1.188.948-2.159 1.074h-.642a73.369 73.369 0 01-8.694-.369h-.002a36.802 36.802 0 01-7.208-1.36 14.144 14.144 0 01-4.334-2.156 7.073 7.073 0 01-1.957-2.278h0l-.002-.002a3.807 3.807 0 01-.271-3.262c.38-.841.955-1.58 1.677-2.153a20.905 20.905 0 015.883-3.058h0a91.708 91.708 0 0120.001-4.362z" fill="#B4D1FA" stroke="#000" stroke-width=".2"/><path d="M165.086 153.386l-2.851 8.132-.801-.3 2.851-8.109.801.3" fill="#2F527F"/><path d="M164.284 153.109l-2.851 8.132-.636-.185 2.851-8.132.636.185z" fill="#2F527F"/><path d="M174.157 156.135l-2.852 8.132-.141.37 2.851-8.133.142-.369z" fill="#40689D"/><path d="M174.016 156.504l-2.852 8.156a6.396 6.396 0 01-1.107 1.617l2.851-8.132a6.417 6.417 0 001.108-1.617m-1.108 1.595l-2.852 8.132a14.475 14.475 0 01-3.558 2.657l2.851-8.132a14.55 14.55 0 003.559-2.657z" fill="#40689D"/><path d="M169.35 160.778l-2.851 8.133c-.66.393-1.39.762-2.168 1.132a92.7 92.7 0 01-20.431 5.938l2.852-8.133a93.065 93.065 0 0020.43-5.938 26.106 26.106 0 002.168-1.132z" fill="#40689D"/><path d="M146.753 167.849l-2.852 8.132-6.339 1.063 2.852-8.133 6.339-1.062z" fill="#40689D"/><path d="M163.65 152.9l-2.852 8.132a35.341 35.341 0 00-4.241-.855l2.851-8.132c1.43.2 2.847.485 4.242.855zm-4.245-.855l-2.851 8.133a64.654 64.654 0 00-5.019-.554 162.1 162.1 0 00-30.187 1.062h-.66a166.941 166.941 0 00-17.98 3.142 71.162 71.162 0 00-12.607 4.067c-.58.264-1.147.557-1.697.878l2.97-8.064c.55-.321 1.116-.614 1.696-.878a71.223 71.223 0 0112.442-4.066c5.929-1.375 12.039-3.546 18.087-4.264h.66c9.999-1.275 19.991-.501 30.056.082 1.862 0 3.558.301 5.043.532" fill="#2F527F"/><path d="M91.375 160.709l-2.851 8.132a8.255 8.255 0 00-2.192 1.595l2.686-8.087a8.917 8.917 0 012.216-1.594" fill="#2F527F"/><path d="M89.017 162.349l-2.828 8.133 2.828-8.133z" fill="#687991"/><path d="M89.016 162.349l-2.851 8.133-.165.185 2.851-8.133.165-.185z" fill="#65758C"/><path d="M80.134 163.62l-2.898 8.132a4.552 4.552 0 01-.4-3.742l2.85-8.133a4.535 4.535 0 00.401 3.743" fill="#5E6D82"/><path d="M140.412 168.934l-2.851 8.11c-2.192.346-4.454.67-6.857.97-6.594.8-13.224 1.271-19.866 1.409a128.75 128.75 0 01-16.73-.67l-2.145-.231c.2-3.387-.352-5.439 2.851-8.132l2.145.277c5.555.598 11.145.822 16.731.67a199.1 199.1 0 0019.841-1.409c2.357-.301 4.713-.624 6.881-.948" fill="#40689D"/><path d="M94.818 170.344l-2.852 8.179a46.38 46.38 0 01-6.598-1.433l-.565-.184 2.828-8.133.589.185a46.242 46.242 0 006.598 1.432m-7.188-1.664l-2.827 8.133a20.988 20.988 0 01-2.899-1.155l2.852-8.133a20.67 20.67 0 002.875 1.155z" fill="#40689D"/><path d="M84.755 167.572l-2.805 8.133-.8-.439a13.315 13.315 0 01-1.226-.763l2.851-8.132c.394.276.803.53 1.226.762l.8.439m-2.074-1.202l-2.851 8.133a8.768 8.768 0 01-2.64-2.75l2.852-8.132a8.759 8.759 0 002.592 2.749" fill="#40689D"/><mask id="a" fill="#fff"><path d="M169.964 148.811a9.968 9.968 0 013.888 3.535c.581.993.766 2.162.518 3.281a5.378 5.378 0 01-1.39 2.495 18.712 18.712 0 01-5.726 3.789 93.089 93.089 0 01-20.431 5.938l-6.339 1.086a298.55 298.55 0 01-6.881.947 199.12 199.12 0 01-19.842 1.409 124.64 124.64 0 01-16.73-.67 49.853 49.853 0 01-8.743-1.71 20.88 20.88 0 01-4.266-1.779 9.748 9.748 0 01-3.817-3.511 4.538 4.538 0 01-.33-3.951 7.565 7.565 0 012.074-2.819c2.6-1.9 5.497-3.374 8.577-4.366a139.899 139.899 0 0129.81-6.308 200.36 200.36 0 0119.889-1.409c5.586-.152 11.176.072 16.731.67 2.96.311 5.887.883 8.742 1.71 1.476.411 2.905.968 4.266 1.663zm-5.986 5.637c.42-.299.793-.657 1.108-1.062-.33-.139-.825-.301-1.438-.486a48.489 48.489 0 00-9.284-1.386c-10.066-.583-19.865-.288-29.864.986l-.559.054-3.441.446c-6.066.74-9.043 1.365-14.986 2.765a71.082 71.082 0 00-12.608 4.067 12.983 12.983 0 00-3.888 2.518l-.235.254c.464.201.945.364 1.437.485a48.051 48.051 0 009.308 1.433 166.86 166.86 0 0030.399-1.086c2.191-.254 4.336-.578 6.433-.878l6.174-1.063a108.463 108.463 0 0013.503-3.396 31.486 31.486 0 007.918-3.604"/></mask><path d="M169.964 148.811a9.968 9.968 0 013.888 3.535c.581.993.766 2.162.518 3.281a5.378 5.378 0 01-1.39 2.495 18.712 18.712 0 01-5.726 3.789 93.089 93.089 0 01-20.431 5.938l-6.339 1.086a298.55 298.55 0 01-6.881.947 199.12 199.12 0 01-19.842 1.409 124.64 124.64 0 01-16.73-.67 49.853 49.853 0 01-8.743-1.71 20.88 20.88 0 01-4.266-1.779 9.748 9.748 0 01-3.817-3.511 4.538 4.538 0 01-.33-3.951 7.565 7.565 0 012.074-2.819c2.6-1.9 5.497-3.374 8.577-4.366a139.899 139.899 0 0129.81-6.308 200.36 200.36 0 0119.889-1.409c5.586-.152 11.176.072 16.731.67 2.96.311 5.887.883 8.742 1.71 1.476.411 2.905.968 4.266 1.663zm-5.986 5.637c.42-.299.793-.657 1.108-1.062-.33-.139-.825-.301-1.438-.486a48.489 48.489 0 00-9.284-1.386c-10.066-.583-19.865-.288-29.864.986l-.559.054-3.441.446c-6.066.74-9.043 1.365-14.986 2.765a71.082 71.082 0 00-12.608 4.067 12.983 12.983 0 00-3.888 2.518l-.235.254c.464.201.945.364 1.437.485a48.051 48.051 0 009.308 1.433 166.86 166.86 0 0030.399-1.086c2.191-.254 4.336-.578 6.433-.878l6.174-1.063a108.463 108.463 0 0013.503-3.396 31.486 31.486 0 007.918-3.604" fill="#B4D1FA"/><path d="M169.964 148.811l.091-.178h-.001l-.09.178zm3.888 3.535l.172-.101-.003-.006-.169.107zm.518 3.281l.195.047v-.004l-.195-.043zm-1.39 2.495l.139.144.004-.004-.143-.14zm-5.726 3.789l.077.184h.001l-.078-.184zm-20.431 5.938l-.034-.198.034.198zm-6.339 1.086l.029.197h.005l-.034-.197zm-6.881.947l.024.198h.001l-.025-.198zm-19.842 1.409l-.004-.2h-.001l.005.2zm-16.73-.67l.02-.199-.02.199zm-8.743-1.71l-.056.192.056-.192zm-4.266-1.779l.097-.175-.005-.002-.092.177zm-3.817-3.511l-.172.101.002.004.17-.105zm-.33-3.951l-.184-.078-.002.006.186.072zm2.074-2.819l-.118-.161-.006.004-.006.005.13.152zm8.577-4.366l.062.19-.062-.19zm29.81-6.308l.02.199h.004l-.024-.199zm19.889-1.409l.004.2h.001l-.005-.2zm16.731.67l-.022.199h.001l.021-.199zm8.742 1.71l-.055.192h.002l.053-.192zm-.612 6.238l.158.122.159-.206-.24-.101-.077.185zm-1.438-.486l.058-.191-.009-.003-.049.194zm-9.284-1.386l-.012.2h.001l.011-.2zm-29.864.986l.019.199h.006l-.025-.199zm-.559.054l-.019-.199-.006.001.025.198zM120.5 153l.024.199h.002L120.5 153zm-14.986 2.765l.043.196.003-.001-.046-.195zm-12.608 4.067l.078.184.001-.001-.079-.183zm-3.888 2.518l-.137-.146-.01.01.147.136zm-.235.254l-.147-.136-.192.207.26.113.079-.184zm1.437.485l.05-.194h-.002l-.048.194zm9.308 1.433l.011-.2-.01.2zm30.399-1.086l-.023-.199h-.002l.025.199zm6.433-.878l.028.198.006-.001-.034-.197zm6.174-1.063l.034.197h.002l-.036-.197zm13.503-3.396l-.057-.192-.004.001.061.191zm13.836-9.11a9.764 9.764 0 013.81 3.464l.338-.214a10.166 10.166 0 00-3.966-3.606l-.182.356zm3.806 3.458a4.34 4.34 0 01.496 3.136l.39.087a4.74 4.74 0 00-.541-3.425l-.345.202zm.497 3.132a5.182 5.182 0 01-1.339 2.403l.286.28a5.582 5.582 0 001.442-2.588l-.389-.095zm-1.335 2.399a18.493 18.493 0 01-5.665 3.749l.156.368a18.875 18.875 0 005.787-3.83l-.278-.287zm-5.665 3.749a92.834 92.834 0 01-20.387 5.924l.067.395a93.294 93.294 0 0020.475-5.951l-.155-.368zm-20.387 5.924l-6.339 1.086.068.395 6.339-1.086-.068-.395zm-6.334 1.086a293.62 293.62 0 01-6.877.946l.05.397c2.429-.3 4.693-.624 6.885-.948l-.058-.395zm-6.876.946c-6.579.8-13.194 1.27-19.822 1.408l.009.4c6.64-.139 13.269-.61 19.861-1.411l-.048-.397zm-19.823 1.408a124.582 124.582 0 01-16.704-.669l-.043.398c5.564.599 11.163.823 16.758.671l-.011-.4zm-16.705-.669a49.646 49.646 0 01-8.707-1.703l-.112.384a50.064 50.064 0 008.778 1.717l.041-.398zm-8.707-1.703a20.68 20.68 0 01-4.225-1.762l-.193.35a21.14 21.14 0 004.306 1.796l.112-.384zm-4.23-1.764a9.56 9.56 0 01-3.74-3.44l-.339.211a9.947 9.947 0 003.896 3.584l.183-.355zm-3.737-3.436a4.362 4.362 0 01-.592-1.854l-.398.033c.06.714.28 1.405.646 2.024l.344-.203zm-.592-1.854c-.054-.653.04-1.31.277-1.923l-.373-.144a4.737 4.737 0 00-.302 2.1l.398-.033zm.274-1.917a7.355 7.355 0 012.02-2.744l-.26-.305a7.761 7.761 0 00-2.128 2.893l.368.156zm2.008-2.735a30.05 30.05 0 018.52-4.338l-.122-.381a30.46 30.46 0 00-8.634 4.396l.236.323zm8.522-4.338a139.74 139.74 0 0129.767-6.299l-.04-.398a140.09 140.09 0 00-29.852 6.317l.125.38zm29.771-6.299a199.959 199.959 0 0119.869-1.408l-.008-.4c-6.657.14-13.302.61-19.909 1.411l.048.397zm19.87-1.408a124.41 124.41 0 0116.704.669l.043-.398a124.882 124.882 0 00-16.758-.671l.011.4zm16.705.669c2.949.309 5.863.879 8.708 1.703l.111-.385a50.636 50.636 0 00-8.777-1.716l-.042.398zm8.71 1.703c1.462.408 2.879.961 4.228 1.649l.181-.356a23.09 23.09 0 00-4.302-1.678l-.107.385zm-1.551 7.271a5.47 5.47 0 001.15-1.103l-.316-.245c-.303.39-.662.734-1.066 1.023l.232.325zm1.069-1.41c-.341-.143-.845-.307-1.457-.492l-.116.383c.613.185 1.099.344 1.418.478l.155-.369zm-1.466-.495a48.738 48.738 0 00-9.323-1.392l-.021.4a48.35 48.35 0 019.247 1.38l.097-.388zm-9.322-1.391c-10.077-.584-19.889-.289-29.9.987l.05.397c9.986-1.273 19.773-1.567 29.827-.985l.023-.399zm-29.894.986l-.559.054.038.398.559-.054-.038-.398zm-.565.055l-3.442.446.052.397 3.441-.447-.051-.396zm-3.44.446c-6.075.74-9.061 1.368-15.008 2.769l.092.389c5.938-1.399 8.908-2.023 14.964-2.761l-.048-.397zm-15.006 2.768a71.298 71.298 0 00-12.642 4.078l.157.367a70.85 70.85 0 0112.572-4.054l-.087-.391zm-12.64 4.077a13.21 13.21 0 00-3.949 2.557l.274.292a12.819 12.819 0 013.829-2.48l-.155-.369zm-3.958 2.567l-.236.254.293.272.236-.254-.293-.272zm-.169.574a9.34 9.34 0 001.47.495l.095-.388a8.994 8.994 0 01-1.406-.474l-.159.367zm1.467.495a48.215 48.215 0 009.347 1.438l.022-.399a47.885 47.885 0 01-9.27-1.426l-.099.387zm9.347 1.438a166.89 166.89 0 0030.435-1.087l-.05-.397a166.555 166.555 0 01-30.363 1.085l-.022.399zm30.433-1.087c2.195-.254 4.343-.578 6.438-.878l-.056-.396c-2.1.3-4.24.623-6.428.877l.046.397zm6.444-.879l6.174-1.063-.068-.394-6.174 1.063.068.394zm6.176-1.063c4.58-.844 9.099-1.981 13.528-3.403l-.122-.381a108.108 108.108 0 01-13.478 3.39l.072.394zm13.524-3.401a31.677 31.677 0 007.968-3.628l-.215-.337a31.24 31.24 0 01-7.867 3.581l.114.384z" fill="#000" mask="url(#a)"/><path d="M187.331 115.864l-2.794 8.133a.882.882 0 000-.324l2.794-8.132c.02.107.02.216 0 .323z" fill="#5E6D82"/><path d="M196.086 118.845l-2.794 8.133a3.182 3.182 0 01-.185.508l2.795-8.132c.075-.164.137-.334.184-.509zm-.186.508l-2.795 8.133a7.54 7.54 0 01-.669 1.201c-.254.347-.508.67-.786.994l2.795-8.133c.277-.323.531-.647.762-.97.261-.39.493-.8.693-1.225z" fill="#40689D"/><path d="M194.447 121.548l-2.794 8.133a20.809 20.809 0 01-4.919 3.789h-.162l2.771-8.086h.185a20.787 20.787 0 004.919-3.79" fill="#40689D"/><path d="M189.343 125.384l-2.771 8.133a90.997 90.997 0 01-21.593 8.04h-.6a5.98 5.98 0 01-1.57 0l2.794-8.133a5.98 5.98 0 001.57 0 2.8 2.8 0 00.601-.115 90.376 90.376 0 0021.569-7.925z" fill="#40689D"/><path d="M165.627 133.424l-2.794 8.133-1.108-.277 2.794-8.133c.364.114.734.207 1.108.277zm-1.11-.277l-2.794 8.132a6.402 6.402 0 01-.924-.369l2.794-8.133c.298.147.607.271.924.37z" fill="#40689D"/><path d="M163.594 132.777l-2.795 8.133a5.763 5.763 0 01-.877-.555l2.748-8.04c.271.217.565.403.878.554" fill="#40689D"/><path d="M164.968 132.314l-2.016 9.202c-2.745-.549-3.852-1.711-4.162-2.109a2.665 2.665 0 01-.508-2.472l2.795-8.132a2.661 2.661 0 00-.037 1.306c.097.432 1.072.644 1.363.977.295.394.703.803 1.098 1.098" fill="#40689D"/><path d="M187.403 115.542l-2.795 8.133v-.324c0-.046 0-.138-.323-.346l2.794-8.133c.133.09.243.208.324.347v.323z" fill="#2F527F"/><path d="M187.035 114.871l-2.795 8.202-.462-.301-.323-.277 2.794-8.132.393.208.462.3" fill="#2F527F"/><path d="M186.181 114.363l-2.725 8.132a17.124 17.124 0 00-2.31-.878l2.772-8.132c.789.238 1.561.531 2.309.878" fill="#2F527F"/><path d="M183.939 113.485l-2.794 8.133-.97-.301a50.656 50.656 0 00-6.743-1.409l2.771-8.133c2.285.314 4.546.785 6.766 1.41.322.079.638.179.947.3" fill="#2F527F"/><path d="M176.226 111.775l-2.771 8.133a105.35 105.35 0 00-7.875-.855 244.964 244.964 0 00-46.186 1.641 248.635 248.635 0 00-26.95 4.69 113.398 113.398 0 00-19.121 6.076 40.685 40.685 0 00-3.788 1.918l2.794-7.994a38.301 38.301 0 013.788-1.918c5.847-3.395 12.26-5.376 19.121-6.169a248.82 248.82 0 0126.95-4.62c15.31-2.001 30.899-3.086 46.312-2.177 3.633-1.055 5.9.224 7.726 1.391" fill="#2F527F"/><path d="M72.328 125.384l-2.794 8.132a16.472 16.472 0 00-3.025 2.126 4.866 4.866 0 00-.6.577l2.793-8.132c.19-.204.39-.397.6-.578a16.42 16.42 0 013.026-2.125z" fill="#2F527F"/><path d="M68.703 127.994l-2.794 8.133a4.609 4.609 0 00-.763 1.132l2.841-8.133a4.63 4.63 0 01.762-1.132" fill="#2F527F"/><path d="M67.94 129.127l-2.793 8.133v.023l2.794-8.133v-.023z" fill="#2F527F"/><path d="M149.228 135.478l-2.745 8.783c-.191.214-1.098 1.097-1.647 1.097l-1.647-7.685c.249-.132 6.039-2.195 6.039-2.195z" fill="#40689D"/><path d="M148.074 137.121l-2.795 8.133c-.42.239-.883.396-1.362.462-3.21.508-6.582.993-10.138 1.432a283.773 283.773 0 01-29.49 2.149 179.44 179.44 0 01-24.618-.994l-3.071-.416 2.794-8.132 3.071.416a179.443 179.443 0 0024.618.993c9.861-.203 19.704-.92 29.49-2.149 3.556-.415 6.928-.924 10.138-1.432.48-.065.942-.222 1.363-.462zm-68.682 2.633l-2.794 8.133a66.894 66.894 0 01-9.376-2.056l-.578-.185 2.795-8.133.577.185a66.02 66.02 0 009.376 2.056z" fill="#40689D"/><path d="M69.439 137.513l-2.794 8.132a30.544 30.544 0 01-4.065-1.663l2.794-8.133a30.416 30.416 0 004.065 1.664z" fill="#40689D"/><path d="M65.376 135.849l-2.794 8.133-1.039-.554a16.587 16.587 0 01-1.57-1.017l2.794-8.133c.5.374 1.025.714 1.57 1.017l1.04.554z" fill="#40689D"/><path d="M62.767 134.278l-2.794 8.133a10.486 10.486 0 01-3.118-3.373 5.663 5.663 0 01-.485-4.621l2.794-8.132a5.66 5.66 0 00.485 4.62 10.251 10.251 0 003.118 3.373z" fill="#40689D"/><path d="M118.804 106.168h-.002a204.942 204.942 0 00-44.11 9.745v.001a43.774 43.774 0 00-12.304 6.384 9.748 9.748 0 00-2.993 3.817 5.521 5.521 0 00.363 4.832 12.059 12.059 0 004.58 4.353h0A27.934 27.934 0 0070 137.602h0a72.17 72.17 0 0012.43 2.469h0c8.169.894 16.39 1.226 24.604.993h.001a283.58 283.58 0 0029.48-2.148h0c3.555-.416 6.925-.924 10.134-1.432 1.052-.17 1.818-.671 2.198-1.332.378-.657.383-1.489-.118-2.35a6.188 6.188 0 00-5.814-2.52c-3.187.485-6.467.97-10.116 1.432a243.586 243.586 0 01-45.906 1.618 74.2 74.2 0 01-14.66-2.313h-.001a18.112 18.112 0 01-3.6-1.418m50.172-24.433l-50.125 24.345m50.125-24.345a290.355 290.355 0 0129.48-2.148h0c8.215-.214 16.435.125 24.604 1.016h0a70.615 70.615 0 0112.453 2.492h.001a26.943 26.943 0 015.637 2.302h.001a11.952 11.952 0 014.579 4.352m-76.755-8.014l54.095-1.231a70.626 70.626 0 0112.47 2.495 27.043 27.043 0 015.658 2.31 12.063 12.063 0 014.619 4.39M68.633 130.601s0 0 0 0l.046-.088m-.047.088v.001l.047-.089m-.047.088a2.965 2.965 0 01-.836-.645l-.026-.029v-.031m.909.617a2.862 2.862 0 01-.809-.624.165.165 0 00-.02-.06c-.042-.095-.125-.28.02-.679a5.31 5.31 0 011.363-1.733 26.555 26.555 0 016.928-4.043m-8.39 6.522c.002.008 0 .003 0-.007v.007zm0 0l-.001-.002-.01-.022a.742.742 0 01-.057-.168c-.027-.134-.024-.32.073-.589l.004-.01h0a5.414 5.414 0 011.389-1.765l.001-.001a26.667 26.667 0 016.953-4.058m0 0s0 0 0 0l.038.093m-.038-.093A113.58 113.58 0 0195.26 117.2a248.996 248.996 0 0126.96-4.623 245.165 245.165 0 0146.205-1.641 75.735 75.735 0 0114.637 2.314h.001c1.245.337 2.452.804 3.599 1.394h.001c.396.21.604.367.713.482a.512.512 0 01.106.154c.019.047.02.082.02.1v.334l-.003.011a3.7 3.7 0 01-1.422 2.183 29.588 29.588 0 01-8.316 4.635 107.55 107.55 0 01-14.63 4.625l-.013.003v-.001a2.32 2.32 0 00-1.946 1.526 2.324 2.324 0 00.529 2.417l.006.006h0a6.28 6.28 0 005.478 2.275l.002-.001a2.6 2.6 0 00.579-.111l.007-.002h0a89.221 89.221 0 0021.707-7.985 17.525 17.525 0 005.67-4.846 6.399 6.399 0 001.135-2.885m-120.162 5.717h.001l.037.093m0 0a113.403 113.403 0 0119.121-6.077 248.807 248.807 0 0126.95-4.62 244.975 244.975 0 0146.187-1.641 75.55 75.55 0 0114.618 2.311c1.238.335 2.438.799 3.579 1.386.786.416.786.6.786.647v.323a3.607 3.607 0 01-1.386 2.126 29.472 29.472 0 01-8.291 4.62 107.285 107.285 0 01-14.618 4.621 2.429 2.429 0 00-2.029 1.592 2.427 2.427 0 00.551 2.521 6.382 6.382 0 005.566 2.31c.204-.016.405-.055.6-.115a89.347 89.347 0 0021.731-7.994 17.621 17.621 0 005.704-4.875 6.498 6.498 0 001.155-2.934 6.038 6.038 0 00-.739-3.443m0 0l-.087.049v.001m.087-.05l.639 3.432m-.726-3.382a5.922 5.922 0 01.726 3.382m-.726-3.382l.726 3.382" fill="#B4D1FA" stroke="#000" stroke-width=".2"/><path d="M131.307 221.427l-11.725-5.807c5.555-.884 12.177-2.358 17.36-4.543l10.53 5.729a70.16 70.16 0 01-16.165 4.621zm-18.034-.555l-10.531-5.729h.162l10.53 5.729h-.161z" fill="#882F40"/><path d="M113.435 220.964l-10.531-5.73c.283.132.577.24.878.324l10.53 5.73a4.883 4.883 0 01-.877-.324z" fill="#882F40"/><path d="M114.31 221.289l-10.531-5.799h.578c5.45.705 10.969.705 16.419 0l12.53 6.718c-5.451.705-13.762 1.803-19.213 1.097l.217-2.086" fill="#882F40"/><path d="M208.233 89.225l-2.794 8.133a79.176 79.176 0 01-11.547 5.29c-14.156 5.268-34.64 9.912-58.68 12.869a386.802 386.802 0 01-39.512 2.935 236.688 236.688 0 01-32.7-1.341 102.704 102.704 0 01-4.111-.554L61.5 107.5c1.316.208 2.702.393 4.11.555 10.857 1.2 21.972 1.754 32.89 1.445 14.108-2.513 26.796-3.736 39-3.5 24.149-5.35 44.947-8.008 58.956-11.415a76.901 76.901 0 0011.546-5.29" fill="#40689D"/><path d="M109.068 229.029l-10.53-5.73a13.33 13.33 0 01-6.49-11.899l10.577 5.73a13.336 13.336 0 006.49 11.899" fill="#9A384B"/><path d="M216.753 80.885l-2.794 8.133-.139.392-.138.278 2.794-8.202.138-.278.139-.392" fill="#40689D"/><path d="M216.478 81.486l-2.794 8.132a10.629 10.629 0 01-1.801 2.75l2.794-8.133a10.627 10.627 0 001.801-2.75z" fill="#40689D"/><path d="M214.676 84.304l-2.795 8.133a17.57 17.57 0 01-1.893 1.802c-1.456 1.16-3 2.202-4.619 3.119l2.794-8.133a33.134 33.134 0 004.619-3.119 17.673 17.673 0 001.894-1.802zm-152.97 24.052l-2.795 8.133a77.867 77.867 0 01-12.17-2.657l-.854-.278 2.794-8.132.855.277c4.267.218 8.579.268 12.17 2.68" fill="#40689D"/><path d="M54.261 106.934l-8.374 6.596a32.58 32.58 0 01-4.989-2.01l2.385-8.429c4.245 1.824 6.643 2.703 10.978 3.843z" fill="#40689D"/><path d="M43.693 103.212l-2.794 8.155c-.462-.208-.877-.462-1.316-.693a17.97 17.97 0 01-1.917-1.224l2.794-8.133c.613.448 1.253.857 1.917 1.225.424.258.863.49 1.316.693" fill="#40689D"/><path d="M208.511 79.486l-3.328 6.62a1.847 1.847 0 000-1.594c-.23-.384-2.333-.944-2.71-1.183.967-1.385 1.228-3.704-.549-12.077.377.24 8.004 4.557 8.234 4.94.121.253-.549 2.465-.549 2.745 0 .28-.428 1.395-.549 1.647" fill="#2F527F"/><path d="M207.032 75.456l-2.794 8.132a6.985 6.985 0 00-.808-.531l2.794-8.133c.323.185.577.37.808.531zm-.809-.535l-2.794 8.133-3.152-1.922 5.323-6.58c.214.093.423.201.623.323" fill="#2F527F"/><path d="M205.601 74.552l-2.794 8.11c-1.037-.458-6.384-2.3-7.469-2.627l7.076-6.661c1.118.353 2.207.793 3.256 1.317" fill="#2F527F"/><path d="M202.346 73.281l-2.725 8.202-1.432-.439c-3.111-.856-11.184-2.206-14.378-2.657l7.704-7.44a75.392 75.392 0 019.468 1.965l1.432.462" fill="#2F527F"/><path d="M191.445 70.856l-2.794 8.132c-3.187-.485-6.744-.878-10.6-1.178a332.509 332.509 0 00-62.237 2.31c-4.619.555-8.96 1.225-13.255 1.872l2.771-8.133c4.295-.647 8.683-1.317 13.278-1.871 20.739-4.03 41.542-3.496 62.352-2.31 3.857.3 7.413.693 10.6 1.178" fill="#2F527F"/><path d="M105.331 73.79l-2.702 8.133c-.567.08-1.142.08-1.709 0l2.771-8.133a6.07 6.07 0 001.709 0m-1.779-.023L100.85 81.9a9.357 9.357 0 01-1.155-.277l2.795-8.133c.37.117.748.21 1.131.277zm-1.131-.277l-2.795 8.133a6.544 6.544 0 01-.923-.393l2.794-8.11.924.37z" fill="#2F527F"/><path d="M101.566 73.12l-2.794 8.11a6.653 6.653 0 01-.878-.508l2.795-8.133.877.532z" fill="#2F527F"/><path d="M143.188 68.508l-45.18 12.214a5.312 5.312 0 01-1.293-1.41 2.566 2.566 0 01-.323-2.125l2.794-8.132a2.634 2.634 0 00.323 2.148c.337.543 1.539 1.014 2.056 1.387m-6.189 1.64l-2.794 8.133v.162l2.794-8.133v-.162zm-.07.162l-2.794 8.133a2.31 2.31 0 01-.37.577l2.795-8.132c.151-.173.276-.368.37-.578z" fill="#2F527F"/><path d="M94.937 74.97l-2.794 8.133a2.494 2.494 0 01-.647.53l2.794-8.132a2.93 2.93 0 00.647-.531z" fill="#2F527F"/><path d="M94.291 75.501l-2.794 8.133a4.436 4.436 0 01-1.178.415 219.298 219.298 0 00-27.712 7.116 79.583 79.583 0 00-14.04 6.03l2.794-8.132a79.59 79.59 0 0114.04-6.03 219.298 219.298 0 0127.713-7.116c.41-.082.806-.222 1.177-.416z" fill="#2F527F"/><path d="M51.29 89.063l-.32 6.891c-.966.553-4.374 2.403-5.268 3.067a14.356 14.356 0 00-2.31 2.033l2.772-8.017c.391-1.109 1.09-1.872 2.31-2.056a28.043 28.043 0 012.793-1.826" fill="#2F527F"/><path d="M46.164 93.037l-2.794 8.109a6.93 6.93 0 00-1.108 1.64l2.794-8.132a6.746 6.746 0 011.108-1.617zm-1.108 1.523l-2.794 8.133-.115.278 2.748-8.133.115-.277" fill="#2F527F"/><path d="M154.335 62.662h0a392.972 392.972 0 00-39.248 2.865c-4.733.6-9.235 1.27-13.415 1.917-1.052.17-1.824.67-2.206 1.334-.38.66-.386 1.497.127 2.37a6.184 6.184 0 005.837 2.544l.98-.148c3.979-.6 8.031-1.211 12.3-1.724a332.616 332.616 0 0162.255-2.31h0a106.055 106.055 0 0120.087 3.144h.002a25.694 25.694 0 015.329 2.11c.72.33 1.333.854 1.771 1.513l.006.009h0a1.926 1.926 0 01.001 1.777 7.493 7.493 0 01-2.035 2.667h-.001a36.19 36.19 0 01-9.424 5.583 150.997 150.997 0 01-25.88 8.23 334.394 334.394 0 01-36.313 6.379 328.993 328.993 0 01-62.37 2.311s0 0 0 0l.005-.1a104.117 104.117 0 01-20.068-3.142l102.26-37.329zm0 0a240.373 240.373 0 0132.687 1.34h.001a90.252 90.252 0 0116.285 3.23l-48.973-4.57z" fill="#B4D1FA" stroke="#000" stroke-width=".2"/><path d="M106.601 205.924l-10.53-5.73 3.602-2.934 10.53 5.729-3.602 2.935z" fill="#9C5061"/><path d="M102.581 217.13l-10.53-5.73v-9.195l10.53 5.73v9.195zm-.001-9.197l-10.53-5.73L7.713 77.627l10.53 5.73 84.337 124.576z" fill="#9A384B"/><path d="M19.195 77.097l-10.53-5.73.138-.138 10.53 5.637a.394.394 0 00-.138.139" fill="#8B4857"/><path d="M19.335 76.866l-10.53-5.638.462-.37 10.53 5.73a3.745 3.745 0 00-.462.37" fill="#904A5A"/><path d="M19.794 76.589l-10.53-5.73c.186-.138.388-.254.6-.347l10.53 5.73a3.117 3.117 0 00-.6.347z" fill="#944D5D"/><path d="M20.394 76.243l-10.53-5.73a4.001 4.001 0 011.13-.347 3.716 3.716 0 011.433 0l10.53 5.823a3.717 3.717 0 00-1.432 0 3.994 3.994 0 00-1.131.346" fill="#994F60"/><path d="M22.96 75.989l-10.53-5.73c.23.052.455.13.67.23l10.53 5.73a3.833 3.833 0 00-.67-.23z" fill="#944D5D"/><path d="M23.628 76.22l-10.53-5.73 10.53 5.73h-.115.115z" fill="#904A5A"/><mask id="b" fill="#fff"><path fill-rule="evenodd" clip-rule="evenodd" d="M237.999 45.12l-85.445 149.575a5.023 5.023 0 00-.647 2.634v12.915a7.437 7.437 0 01-3.625 6.527c-5.095 1.972-11.931 3.85-16.974 4.655a63.952 63.952 0 01-16.396-.046 4.917 4.917 0 01-4.111-5.429V205.3c.017-.811-.399-1.588-.808-2.287L24.94 77.397a3.557 3.557 0 00-3.44-1.502c-.88.138-1.692.56-2.31 1.202a4.622 4.622 0 00-.947 6.26l84.383 124.531v9.241c0 6.77 4.088 12.222 10.184 13.285 6.045.83 12.176.83 18.221 0 6.351-.978 17.644-3.266 22.585-7.657l-.007-.011a17.864 17.864 0 006.543-13.703v-11.76l84.614-148.235-6.767-3.927z"/></mask><path fill-rule="evenodd" clip-rule="evenodd" d="M237.999 45.12l-85.445 149.575a5.023 5.023 0 00-.647 2.634v12.915a7.437 7.437 0 01-3.625 6.527c-5.095 1.972-11.931 3.85-16.974 4.655a63.952 63.952 0 01-16.396-.046 4.917 4.917 0 01-4.111-5.429V205.3c.017-.811-.399-1.588-.808-2.287L24.94 77.397a3.557 3.557 0 00-3.44-1.502c-.88.138-1.692.56-2.31 1.202a4.622 4.622 0 00-.947 6.26l84.383 124.531v9.241c0 6.77 4.088 12.222 10.184 13.285 6.045.83 12.176.83 18.221 0 6.351-.978 17.644-3.266 22.585-7.657l-.007-.011a17.864 17.864 0 006.543-13.703v-11.76l84.614-148.235-6.767-3.927z" fill="#E87891"/><path d="M152.554 194.695l-.174-.099v.001l.174.098zm85.445-149.574l.101-.173-.174-.102-.1.175.173.1zm-86.092 152.208h.201l-.001-.007-.2.007zm0 12.915h-.2l.001.004.199-.004zm-1.073 3.991l-.171-.104.171.104zm-2.552 2.536l.073.186.015-.006.015-.008-.103-.172zm-16.974 4.655l.025.199.007-.001-.032-.198zm-16.396-.046l-.032.198.006.001.026-.199zm-3.146-1.888l.159-.121-.159.121zm-.965-3.541l.199.023.001-.012v-.011h-.2zm0-10.651l-.2-.004v.004h.2zm-.808-2.287l.173-.102-.008-.01-.165.112zM24.94 77.397l.166-.112-.001-.002-.165.114zm-1.506-1.242l-.08.183.08-.183zm-1.935-.26l-.029-.198h-.002l.031.198zm-2.31 1.202l.124.157.011-.009.01-.01-.144-.138zm-1.713 2.942l-.198-.03.198.03zm.767 3.319l.166-.113-.002-.001-.164.114zm84.383 124.53h.2v-.062l-.034-.051-.166.113zm10.184 22.526l-.034.197.007.001.027-.198zm18.221 0l.027.198h.003l-.03-.198zm22.585-7.657l.132.149.123-.108-.083-.142-.172.101zm-.007-.011l-.127-.155-.132.108.086.147.173-.1zm3.649-4.071l-.167-.109.167.109zm2.894-9.632l.2.001v-.001h-.2zm0-11.76l-.174-.099-.026.046v.053h.2zm84.614-148.235l.174.1.098-.173-.172-.1-.1.173zm-92.038 145.746L238.173 45.22l-.347-.199-85.446 149.575.348.198zm-.621 2.528a4.815 4.815 0 01.621-2.528l-.348-.197a5.215 5.215 0 00-.672 2.739l.399-.014zm0 12.922v-12.915h-.4v12.915h.4zm-1.102 4.094a7.638 7.638 0 001.102-4.098l-.399.008a7.241 7.241 0 01-1.045 3.883l.342.207zm-2.62 2.605a7.648 7.648 0 002.62-2.605l-.342-.207a7.24 7.24 0 01-2.483 2.468l.205.344zm-.175-.359c-5.083 1.968-11.905 3.842-16.934 4.645l.064.395c5.058-.808 11.907-2.69 17.015-4.667l-.145-.373zm-16.927 4.644a63.782 63.782 0 01-16.345-.046l-.052.397c5.457.72 10.985.736 16.447.046l-.05-.397zm-16.34-.045a4.718 4.718 0 01-3.018-1.812l-.319.242a5.12 5.12 0 003.274 1.965l.063-.395zm-3.018-1.812a4.72 4.72 0 01-.925-3.397l-.398-.046a5.127 5.127 0 001.004 3.685l.319-.242zm-.924-3.42V205.3h-.4v10.651h.4zm0-10.647c.018-.875-.429-1.697-.836-2.392l-.345.202c.413.704.797 1.435.781 2.182l.4.008zm-.843-2.403L25.106 77.285l-.332.224 85.053 125.616.331-.224zM25.105 77.283a3.757 3.757 0 00-1.591-1.312l-.16.367c.574.25 1.066.657 1.421 1.172l.33-.227zm-1.591-1.312a3.755 3.755 0 00-2.044-.274l.058.396a3.355 3.355 0 011.826.245l.16-.367zm-2.046-.273a4.287 4.287 0 00-2.422 1.26l.288.277a3.886 3.886 0 012.196-1.142l-.062-.395zm-2.402 1.241a4.82 4.82 0 00-1.788 3.07l.396.06a4.421 4.421 0 011.64-2.815l-.248-.315zm-1.788 3.07a4.822 4.822 0 00.8 3.462l.33-.227a4.422 4.422 0 01-.734-3.175l-.396-.06zm.8 3.46L102.46 208l.331-.225-84.383-124.53-.332.225zm84.348 124.419v9.241h.4v-9.241h-.4zm0 9.241c0 6.85 4.141 12.4 10.35 13.482l.069-.394c-5.985-1.043-10.019-6.398-10.019-13.088h-.4zm10.357 13.483a67.134 67.134 0 0018.275 0l-.054-.396a66.744 66.744 0 01-18.167 0l-.054.396zm18.278 0c3.18-.49 7.601-1.308 11.848-2.555 4.239-1.244 8.334-2.924 10.839-5.151l-.265-.299c-2.435 2.165-6.457 3.825-10.687 5.067-4.223 1.239-8.624 2.054-11.796 2.542l.061.396zm22.727-7.956l-.006-.011-.346.201.007.012.345-.202zm3.303-4.09a17.636 17.636 0 01-3.609 4.025l.254.31a18.077 18.077 0 003.69-4.117l-.335-.218zm2.861-9.525a17.666 17.666 0 01-2.861 9.525l.335.218a18.068 18.068 0 002.926-9.74l-.4-.003zm0-11.758v11.76h.4v-11.76h-.4zm84.64-148.334l-84.614 148.235.348.198L244.94 49.147l-.348-.198zm-6.693-3.655l6.766 3.927.201-.346-6.766-3.927-.201.346z" fill="#000" mask="url(#b)"/><path d="M18.245 83.36l-10.53-5.73a4.044 4.044 0 01-.555-4.09l10.53 5.637a3.976 3.976 0 00.555 4.09" fill="#793E4B"/><path d="M17.69 79.177L7.16 73.54a4.62 4.62 0 01.323-.693l10.531 5.73a4.63 4.63 0 00-.323.693" fill="#7D414E"/><path d="M18.015 78.577l-10.53-5.73c0-.185.207-.37.323-.555l10.53 5.73c0 .185-.23.37-.323.555z" fill="#824351"/><path d="M18.335 78.023l-10.53-5.776.37-.463 10.53 5.776-.37.463z" fill="#874654"/><path d="M18.706 77.56l-10.53-5.73c.119-.142.25-.274.392-.393l10.53 5.73c-.141.119-.272.25-.392.393z" fill="#8B4857"/><path d="M19.099 77.167l-10.53-5.73 10.622 5.66" fill="#904A5A"/><path d="M240.5 39.5l-3.377 8.3a3.373 3.373 0 00-.139-2.91l2.516-9.39c.233.447 1.228 2.027 1.251 2.53a3.459 3.459 0 01-.251 1.47z" fill="#40689D"/><path d="M239.781 36.757l-2.794 8.133a5.796 5.796 0 00-1.801-1.872l.223-11.835c.734.48 3.921 4.822 4.372 5.574z" fill="#40689D"/><path d="M237.979 34.886l-2.794 8.132a13.93 13.93 0 00-1.294-.855l-.993-.531 2.795-8.11c.369.162.693.347.993.509.446.26.878.546 1.293.855z" fill="#40689D"/><path d="M235.694 33.523l-2.795 8.11a36.448 36.448 0 00-4.78-1.918l2.794-8.132a34.48 34.48 0 014.781 1.94zm-4.782-1.941l-2.794 8.132a31.942 31.942 0 00-2.078-.647 105.217 105.217 0 00-13.325-2.795l2.771-8.133c4.505.644 8.963 1.577 13.348 2.796.739.208 1.432.416 2.078.647z" fill="#40689D"/><path d="M215.486 28.14l-2.771 8.132c-4.434-.67-9.376-1.202-14.687-1.618a456.691 456.691 0 00-85.792 3.073c-6.305.786-12.355 1.687-18.244 2.588l2.794-8.133c5.866-.9 11.917-1.802 18.221-2.587C143.452 25.88 172.362 23.829 201 25.5c5.311.416 10.075 1.97 14.486 2.64zM96.784 32.183l-2.794 8.132a6.98 6.98 0 01-1.709 0l2.794-8.132c.568.07 1.142.07 1.71 0zm-1.71-.023l-2.794 8.132a9.336 9.336 0 01-1.155-.277l2.794-8.132a9.56 9.56 0 001.155.277z" fill="#40689D"/><path d="M104.214 34.476c-5.287 3.775-8.368 7.086-13.134 5.54a6.545 6.545 0 01-.924-.393l2.795-8.133c.297.155.606.286.923.393" fill="#40689D"/><path d="M92.998 31.49l-2.794 8.132a4.058 4.058 0 01-.854-.531l2.77-8.133c.274.208.568.386.878.532z" fill="#40689D"/><path d="M102 30.5l-12.652 8.59a4.62 4.62 0 01-1.316-1.386 2.566 2.566 0 01-.324-2.126l2.795-8.132a2.566 2.566 0 00-.072 1.098c.056.367.865.145 1.069.454.337.542.983.627 1.5 1m-10.88 3.594l-2.794 8.133a1.801 1.801 0 01-.369.554l2.887-8.133c.156-.16.282-.348.37-.554m-.37.553l-2.887 8.064c-.181.215-.4.395-.646.531l2.794-8.132a2.33 2.33 0 00.739-.462z" fill="#40689D"/><path d="M82 32.5c.146-.042.18-.315.25-.23.526.641-.954 5.017-3.25 10.23-.365.21-.5.5-1.87.749a300.65 300.65 0 00-38.311 9.82 110.815 110.815 0 00-19.49 8.386l2.793-8.133C28.336 49.91 34.75 45.665 41.5 43.5 54.041 39.39 66.028 36.428 79 34c.414-.08 2.635-1.29 3-1.5z" fill="#40689D"/><path d="M22.123 53.323l-2.794 8.132a40.655 40.655 0 00-3.949 2.542 20.793 20.793 0 00-3.325 2.957l2.12-9.497c1-1.102 2.114-2.094 3.325-2.958 1.266-.922 3.282-.406 4.646-1.176" fill="#40689D"/><path d="M14.872 58.822l-2.817 8.132a10.028 10.028 0 00-1.686 2.472l2.794-8.132a10.032 10.032 0 011.71-2.472z" fill="#40689D"/><path d="M13.164 61.292l-2.795 8.133-.115.508 2.794-8.11c0-.16 0-.3.162-.438M248.692 42.58l-2.886 8.132c0 .162-.116.323-.162.462a2.787 2.787 0 00-.162.393l2.772-8.133a2.92 2.92 0 00.161-.393c.076-.148.538-2.381.585-2.54" fill="#40689D"/><path d="M248.583 42.709l-3.007 8.858a13.833 13.833 0 01-2.309 3.512l-19.935 4.097c.954-1.038 24.675-16.827 25.251-18.114" fill="#40689D"/><path d="M246.016 46.945l-2.795 8.133a22.91 22.91 0 01-2.517 2.31 41.768 41.768 0 01-6.097 4.182l2.795-8.133a41.738 41.738 0 006.096-4.089 22.91 22.91 0 002.518-2.31" fill="#40689D"/><path d="M237.402 53.53l-2.795 8.133a104.983 104.983 0 01-15.772 7.162c-19.283 7.162-47.434 13.516-80.157 17.56a529.22 529.22 0 01-53.785 3.904 324.98 324.98 0 01-44.616-1.872 170.083 170.083 0 01-5.404-.739l2.794-8.11c1.732.255 3.557.486 5.404.717a328.361 328.361 0 0044.57 1.825 536.692 536.692 0 0053.785-3.928c32.792-3.974 60.92-10.304 80.203-17.49a104.994 104.994 0 0015.773-7.161z" fill="#40689D"/><path d="M37.714 79.639l-2.795 8.11a108.326 108.326 0 01-16.488-3.605l-1.247-.347 2.794-8.132 1.178.37c6.512-.577 11.891.928 16.488 3.627" fill="#40689D"/><path d="M20.047 75.64l-2.864 8.156a48.963 48.963 0 01-6.466-2.633l2.794-8.133a47.724 47.724 0 006.466 2.634" fill="#40689D"/><path d="M13.58 73.008l-2.795 8.132s-1.02-.539-1.663-.9c-4.263-2.4-4.44-3.249-4.811-4.047l2.744-10.43c.744.554 4.067 5.866 4.861 6.344.532.323 1.086.6 1.663.9z" fill="#40689D"/><path d="M27.366 77.291l-20.645 1.4a15.684 15.684 0 01-4.618-4.945 8.32 8.32 0 01-.901-5.96c0-.347.162-.647.254-.97L4.86 57.53c0 .323 2.265-1.421 2.195-1.098-.455 2.03.612 4.783 1.647 6.587C9.864 64.984 25.485 76 27.366 77.292z" fill="#40689D"/><path d="M111.505 23.226h0c-6.557.785-12.629 1.709-18.517 2.61-1.052.17-1.825.67-2.207 1.332-.38.656-.386 1.488.127 2.35a6.182 6.182 0 005.86 2.566c5.866-.9 11.917-1.802 18.222-2.588a457.143 457.143 0 0185.834-3.073c9.49.553 18.902 2.04 28.101 4.439h.001c2.73.74 5.37 1.78 7.871 3.104m-125.292-10.74l125.246 10.828M111.505 23.226a529.344 529.344 0 0153.775-4.02h0a327.91 327.91 0 0144.51 1.894h0c7.413.803 14.74 2.255 21.898 4.34a48.723 48.723 0 019.218 3.896l.001.001a17.843 17.843 0 016.889 6.479 8.082 8.082 0 01.479 7.186 16.073 16.073 0 01-4.841 6.268L111.505 23.226zm125.292 10.74h.001l-.047.088m.046-.089h-.002l-.044.09m.046-.09a8.02 8.02 0 013.132 2.76l.007.011h-.001a3.626 3.626 0 01.001 3.206m-3.185-5.888a7.924 7.924 0 013.095 2.727 3.542 3.542 0 010 3.119m.09.042l.001-.002-.091-.04m.09.042a11.216 11.216 0 01-2.888 3.938l-.003.002a52.533 52.533 0 01-13.188 7.847m16.079-11.787l-.001.002-.089-.044m0 0a11.112 11.112 0 01-2.864 3.904L21.249 75.915a45.91 45.91 0 01-9.217-3.896h-.002a17.8 17.8 0 01-6.888-6.456 8.22 8.22 0 01-.89-5.886 11.823 11.823 0 012.93-5.267 45.07 45.07 0 0113.963-9.428h0l.003-.002c12.667-6.024 31.57-11.544 54.591-16.164a6.387 6.387 0 015.955 2.275 2.349 2.349 0 01-.547 3.426c-.175.114-.48.212-.751.28a6.984 6.984 0 01-.45.1l-.029.005h-.007l-.002.001h0-.002a300.737 300.737 0 00-38.324 9.823A91.373 91.373 0 0018.12 55.78a12.898 12.898 0 00-5.351 6.402h0l-.004.012a3.336 3.336 0 00.31 2.382h0l.003.006a7.86 7.86 0 003.133 2.854h.001l.045-.089m26.858 13.008a328.361 328.361 0 0044.57 1.825 536.722 536.722 0 0053.784-3.928l-98.354 2.103zm0 0A123.34 123.34 0 0121.22 76.01a46.016 46.016 0 01-9.237-3.904m31.13 8.248l-31.13-8.248m4.272-4.76a37.538 37.538 0 007.852 3.096 145.127 145.127 0 0028.012 4.39m-35.864-7.486a7.761 7.761 0 01-3.095-2.819m3.095 2.82l-3.095-2.82m38.96 10.306l-.006.1s0 0 0 0a455.06 455.06 0 0085.833-3.074 459.218 459.218 0 0050.146-8.758 210.165 210.165 0 0035.764-11.372M52.12 74.833a454.972 454.972 0 0085.815-3.073L52.12 74.833zm171.737-23.104s0 0 0 0l-.038-.092.039.092h-.001zM11.984 72.107a17.9 17.9 0 01-6.928-6.493 8.32 8.32 0 01-.901-5.96 11.924 11.924 0 012.956-5.314 45.17 45.17 0 0113.994-9.45c12.679-6.03 31.592-11.552 54.616-16.172a6.486 6.486 0 016.05 2.31 2.45 2.45 0 01-.57 3.572c-.38.25-1.277.402-1.277.402m-67.94 37.105l67.94-37.105m0 0a300.666 300.666 0 00-38.312 9.819L79.924 35zM13.161 64.528a3.236 3.236 0 01-.3-2.31l.3 2.31z" fill="#B4D1FA" stroke="#000" stroke-width=".2"/></svg>