<svg version="1.1" id="Слой_1" xmlns="http://www.w3.org/2000/svg" xmlns:xlink="http://www.w3.org/1999/xlink" x="0" y="0" viewBox="0 0 250 250" xml:space="preserve"><style>.st1{fill:#9a384b}.st2{fill:#40689d}.st3,.st4{fill:#e87891;stroke:#000;stroke-width:.2}.st4{fill:#b4d1fa}</style><defs><path id="SVGID_1_" d="M-.2 0h250v250H-.2z"/></defs><clipPath id="SVGID_2_"><use xlink:href="#SVGID_1_" overflow="visible"/></clipPath><g clip-path="url(#SVGID_2_)"><path class="st1" d="M201.6 159l-11.5-6.2.3.2 11.5 6.2-.3-.2m.4.2l-11.5-6.2c.5.3 1.1.5 1.7.6l11.5 6.2c-.7-.2-1.2-.4-1.7-.6"/><path class="st1" d="M203.6 159.8l-11.5-6.2c1.1.3 2.3.3 3.5.2 1-.1 2.1-.4 3-.9l11.5 6.2c-1 .4-2 .7-3 .9-1.1.1-2.3.1-3.5-.2z"/><path class="st1" d="M203.1 160.4l-4.5-7.6c.6-.3 2.2-1.4 2.7-1.7l10.5 7c-.5.4-1.1.7-1.7 1"/><path class="st1" d="M208.9 161.1l-8.5-9.3c.5-.3.9-.6 1.3-1l11.5 6.2c-.4.4.5 2.5 0 2.8"/><path class="st1" d="M213.4 158.6l-12-7.5 1.5-1.5 14.5 5.5c-.4.4-3.6 3.1-4 3.5z"/><path class="st1" d="M214.2 155.9l-11.5-6.2 11.7 6.1"/><path class="st1" d="M214.4 155.8l-11.5-6.2.3-.4 11.5 6.2-.4.4"/><path class="st1" d="M200.6 152.7l2.6-3.5c.1-.1.3-.2.4-.3l11.5 6.2c-.2.1-.3.2-.4.3"/><path class="st1" d="M215.1 155.1l-11.5-6.2.6-.3 11.5 6.2-.6.3z"/><path class="st1" d="M200.7 151.8l3.4-3.2c.3-.1.6-.2 1-.3.4-.1.8-.1 1.2 0l11.5 6.3c-.4-.1-.6.4-1 .5-.3.1-15.7-3.5-16.1-3.3z"/><path class="st1" d="M217.8 154.6l-11.5-6.2c.2 0 .4.1.5.2l11.5 6.2c-.1-.1-.3-.2-.5-.2m.6.2l-11.6-6.2 11.6 6.2m1.3-5.4l-11.5-6.2c-.6-.3-1-.8-1.3-1.4-.3-.6-.5-1.2-.4-1.9.1-2-.3-3.9-1.3-5.7-.9-1.7-2.3-3.2-4-4.2l11.5 6.2c1.7 1 3.1 2.5 4 4.2.9 1.7 1.4 3.7 1.3 5.7 0 .7.1 1.3.4 1.9s.8 1 1.3 1.4m-13.3-21.3l-11.5-7c2-.5 4.8-.5 6.7 0l11.5 6.3c-1.9-.5-3.9-.6-5.9-.3"/><path class="st1" d="M213.1 127.5l-11.5-6.2c.9.2 1.8.6 2.7 1l11.5 6.2c-.8-.5-1.8-.8-2.7-1m2.8.9l-11.6-6.2.5.3 11.5 6.2-.4-.3"/><path class="st2" d="M181.1 202.1l-11.5-6.2c-.7-.4-1.3-1.1-1.5-1.9-.4-1.6-.3-1.7 1.5-5.5l11.3 9.2c-.3.8-.8 1.7-.5 2.5.2.7 0 1.5.7 1.9z"/><path class="st2" d="M179.9 198.1l-11.7-6.7.3-.6c.3-.6.5-1.1.8-1.7 5.8 1.2 8.8 3 12.2 6.4-.2.6-.6 1.5-.8 2.1l-.2.4"/><path class="st2" d="M180.7 195.4l-11.5-6.2c.5-1.4.8-2.9.8-4.3.1-1.8-.4-3.6-1.3-5.2s-2.2-2.9-3.8-3.8l13.7 4c1.6.9 3.6 2.8 4.5 4.4.9 1.6 1 5.9 1 7.8 0 1.5-2.2 2.2-2.7 3.6m-17.8 7.6l-11.5-6.2.4.2 11.5 6.2-.4-.2m.3.1l-11.5-6.2c.6.3 1.2.5 1.9.7l11.5 6.2c-.6-.1-1.2-.4-1.9-.7"/><path class="st2" d="M159.8 205.8l-5.4-7.9c1.4.3 2.8.4 4.2.2.5-.1.9-.1 1.4 0l11.6 6.3c-.5-.1-.9-.1-1.4 0-1.4.2-2.8.1-4.2-.2"/><path class="st2" d="M171.5 204.4l-11.6-6.2c.2 0 .4.1.6.2l11.5 6.2c-.2-.1-.4-.2-.6-.2"/><path class="st2" d="M172 204.6l-11.5-6.2h.1l11.5 6.2h-.1z"/><path class="st1" d="M197.9 166.6l-11.5-6.2c-2.8-1.7-5.1-4.1-6.6-7-1.5-2.9-2.3-6.1-2.1-9.4 0-2.9.5-5.8 1.5-8.5l14.2 2c-1 2.7-3.6 8.3-3.6 11.2-.2 3.3 0 7.6 1.5 10.5 1.5 2.9 4.2 5.3 7 7"/><path class="st1" d="M190.7 141.6l-11.5-6.2c.4-1.1.9-2.2 1.5-3.2l11.5 6.2c-.6 1-1.1 2.1-1.5 3.2"/><path class="st1" d="M179.2 135.8l1.5-3.6c.5-.9 1-1.7 1.6-2.5l15.4 2.6c-.6.8-4.9 5.3-5.4 6.1"/><path class="st1" d="M193.8 135.9l-11.5-6.2c.5-.7 1.1-1.4 1.7-2.1l11.5 6.2c-.7.6-1.2 1.3-1.7 2.1"/><path class="st1" d="M195.4 134.1l-11.5-6.6c.6-.7 1.2-1.4 1.9-2l11.5 6.2c-.7.6-.8 1.6-1.4 2.3"/><path class="st1" d="M197.3 131.9l-15.4-1.8c4.3-5.6 5.3-5.6 6-6.2l17.3 4.1c-.7.6-7.2 3.3-7.9 3.9z"/><path class="st1" d="M199.4 130.2l-15.8-2.2c3.6-4.5 6.1-5.2 7.1-5.6l11.5 6.2c-1 .5-1.9 1-2.8 1.6"/><path class="st1" d="M201.4 130.1l-10.6-7.7c1.6-.7 3.3-1.2 5-1.5l11.5 6.2c-1.7.2-3.4.7-5 1.5"/><path class="st3" d="M207.2 127.2c9.8-1.4 17.8 6.6 17.8 17.9 0 1-.3 2.1-1 2.9-.6.8-1.6 1.4-2.6 1.6-.5 0-.9 0-1.4-.2-.4-.2-.8-.4-1.2-.8-.3-.3-.6-.7-.7-1.2-.2-.4-.2-.9-.2-1.4 0-6.9-4.9-11.8-10.9-10.9-6 .8-10.9 7.1-10.9 13.9 0 6.8 4.9 11.8 10.9 10.9 2.9-.4 5.5-1.9 7.3-4.1.6-.7 1.4-1.2 2.3-1.3.5-.1 1 0 1.4.2.5.2.9.5 1.2.8.6.8.9 1.9.9 2.9-.1 1-.5 2-1.2 2.8-3 3.6-7.2 6-11.8 6.8-10 1.4-18-6.6-18-18 .2-11.3 8.2-21.4 18.1-22.8z"/><path class="st2" d="M170.1 173.4l-11.5-6.2c2.3-.3 4.7-.2 7 .4l11.5 6.2c-2.3-.7-4.7-.8-7-.4"/><path class="st2" d="M166.6 177.6l-1-10.1c1.1.3 2.1.7 3.1 1.1l11.5 6.2c-1-.5-2-.9-3.1-1.1"/><path class="st2" d="M180.1 174.9l-11.5-6.2.6.3 11.5 6.4-.6-.3"/><path class="st1" d="M136.8 229.6l-11.5-6.2.4.2 11.5 6.2-.4-.2zm.4.1l-11.5-6.2c.6.3 1.2.6 1.9.8.7.3 1.4.5 2.2.7l11.5 6.2c-.7-.2-1.5-.4-2.2-.7-.7-.2-1.3-.5-1.9-.8"/><path class="st1" d="M137.3 232.9l-7.6-8c1.2.3 2.5.6 3.9.8 4.5.8 9 .9 13.6.4 7.8-1.1 15.4-3.4 22.5-6.8l15.2 5.8c-7.1 3.4-16.7 9-24.5 10.1-4.5.5-8.4 1.4-12.9.6-1.4-.3-5-1.6-6.3-1.9"/><path class="st1" d="M181.3 225.6l-11.5-6.3c4.6-2.1 9-4.7 13.1-7.6l16 3.7c-4.2 3-13.1 8.1-17.6 10.2"/><path class="st1" d="M194.4 218.1l-11.5-6.3c3.5-2.5 6.9-5.2 10.1-8l14.9 5.3c-3.2 2.9-9 8-12.5 10.5"/><path class="st1" d="M204.5 210l-11.5-6.2c3.1-2.8 6-5.8 8.7-8.9l15.1 7.2c-2.7 3.1-9.2 5.1-12.3 7.9"/><path class="st1" d="M214.9 202.6l-13.1-7.7c2.9-3.2 6.1-7.3 8.6-10.8l12.5 6.5c-2.5 3.5-4.1 8.3-7 11.5"/><path class="st1" d="M221.4 191l-11-6.9c2.7-3.8 4.7-7.2 6.9-11.3l13.1 5.3c-2.3 4.1-6.3 9.1-9 12.9"/><path class="st1" d="M228.8 179l-11.5-6.2c2.6-4.9 4.9-10 6.9-15.3l13.2 5.1c-2 5.3-5.9 11.5-8.6 16.4"/><path class="st1" d="M235.7 163.7l-11.5-6.2c4.5-12 6.8-24.7 6.9-37.5 0-.5.1-1.1.3-1.6.4-1.2.8-1.7 2-2.2l13 7c-.2.5-3 3-3 3.5-.1 12.7-3.2 24.9-7.7 37"/><path class="st1" d="M242.9 124.6l-11.5-6.2.3-.6 11.5 6.2c-.2.2-.2.4-.3.6"/><path class="st1" d="M243.2 124l-11.5-6.2.4-.4 11.5 6.2-.3.5"/><path class="st1" d="M243.5 123.5l-11.4-6.1c0-.2.2-.3.3-.4l11.5 6.2c-.1.1-.2.3-.3.4m.2-.5l-11.5-6.2.4-.4 11.5 6.2-.4.4"/><path class="st1" d="M244.2 122.7l-11.5-6.2.4-.4 11.6 6.3-.4.4"/><path class="st1" d="M244.7 122.4l-11.6-6.3.6-.4 11.5 6.2-.5.5z"/><path class="st1" d="M245.4 122.6l-11.7-6.8c.3-.2.7-.3 1.1-.3.4-.1.8-.1 1.2 0l12.1 6.2c.9.4-.2.4-1.7.4-.4.1-.7.4-1 .5z"/><path class="st1" d="M247.5 121.8l-11.5-6.2c.2.1.4.1.6.2l11.5 6.2c-.2-.1-.4-.2-.6-.2"/><path class="st1" d="M248.1 122l-11.5-6.2 11.3 6.3"/><path class="st2" d="M159.4 210.3l-11.5-6.2c-2.6-1.5-4.8-3.6-6.3-6.3-1.5-2.6-2.2-5.6-2.1-8.6 0-2.5.4-4.9 1.3-7.2l14.8 4.6c-.9 2.3-3.2 7.4-3.2 9.9-.1 3-.8 4.9.7 7.6 1.5 2.6 3.6 4.7 6.3 6.2"/><path class="st2" d="M144.8 190l-4-8.1c.4-1 .8-2 1.3-3l11.5 6.2c-.5 1-1 1.9-1.3 3"/><path class="st2" d="M152.7 190.9l-10.6-12c.4-.8 3.4-5.1 4.9-6.3l13.5 6.4c-.5.8-5.6 8.4-6 9.2"/><path class="st2" d="M155.1 183l-11.5-6.2c.5-.7 1.1-1.4 1.6-2.1l11.5 6.2c-.6.6-1.1 1.3-1.6 2.1"/><path class="st2" d="M143.1 177.6l2.3-3.3c.6-.7 1.3-1.3 1.9-1.9l11.5 6.2c-.7.6-1.3 1.3-1.9 1.9"/><path class="st2" d="M158.6 178.8l-11.5-6.2c.7-.7 1.5-1.3 2.3-1.8L161 177c-.8.5-1.6 1.2-2.4 1.8"/><path class="st2" d="M144.8 177.5l4.7-6.8c1-.7 2.1-1.3 3.2-1.8l11.5 6.2c-1.1.5-2.2 1.1-3.2 1.8"/><path class="st2" d="M158.4 181.1l-5.7-12.2c1.9-.9 3.9-1.5 5.9-1.8l15.4 6.2c-2 .3-8 2-9.8 2.9"/><path class="st4" d="M170.1 173.5c2.4-.4 4.8-.3 7.2.4 2.3.6 4.5 1.8 6.3 3.4 1.8 1.6 3.3 3.6 4.2 5.8 1 2.2 1.4 4.6 1.3 7 0 3.5-.9 6.9-2.5 10-.3.6-.8 1.2-1.3 1.6-.6.4-1.2.7-1.9.8-.6.1-1.3 0-1.8-.2-.4-.2-.8-.5-1.1-.9-.3-.4-.5-.8-.6-1.3-.1-.5-.2-.9-.1-1.4.1-.5.2-.9.5-1.3 1-1.9 1.6-4.1 1.6-6.3.1-1.5-.2-2.9-.8-4.3-.6-1.4-1.4-2.6-2.6-3.5a9.5 9.5 0 00-3.8-2.1c-1.4-.4-2.9-.5-4.4-.2-3.2.5-6.1 2.1-8.2 4.6s-3.3 5.5-3.4 8.7c-.1 1.5.2 2.9.8 4.3.6 1.4 1.5 2.6 2.6 3.5 1.1 1 2.4 1.7 3.8 2.1 1.4.4 2.9.5 4.4.2.5-.1.9-.1 1.4.1.5.1.9.4 1.2.7.4.3.6.7.8 1.1.2.4.3.9.2 1.4 0 1-.4 2-1.1 2.8-.7.8-1.6 1.3-2.6 1.5-2.4.4-4.8.3-7.2-.3-2.3-.6-4.5-1.8-6.3-3.4-1.8-1.6-3.3-3.6-4.2-5.8-1-2.2-1.4-4.6-1.3-7 .1-5.3 2.1-10.4 5.5-14.4 3.4-4.1 8.1-6.8 13.4-7.6zM151 195.4z"/><path class="st2" d="M190.2 107.8l-11.5-6.2.3.2 11.5 6.2-.3-.2zm.4.2l-11.5-6.2c.5.3 1.1.5 1.7.6l11.5 6.2c-.6-.1-1.2-.4-1.7-.6m1.7.6l-11.5-6.3c1.2.3 2.5.4 3.8.2 1.1-.2 2.2-.5 3.2-1l11.6 6.3c-1 .5-2 .8-3.1 1-1.3.2-2.5.1-3.8-.2"/><path class="st2" d="M199.3 107.8l-11.9-6.2c.6-.3 3-1.6 4-2.5l9.7 7.7c-.6.4-1.2.8-1.8 1z"/><path class="st2" d="M200.9 106.8l-11.5-6.2c.5-.3.9-.6 1.3-1l15.1 4.4c-.4.3-4.4 2.5-4.9 2.8"/><path class="st2" d="M202.2 105.8l-11.5-6.2 1.1-1.1 11.5 6.3c-.3.4-.7.8-1.1 1"/><path class="st2" d="M203.3 104.8l-11.5-6.2c.3-.4.7-.8 1-1.2l11.5 6.2c-.3.3-.6.7-1 1.2"/><path class="st2" d="M204.4 104.6l-13-5.5c.3-.5 2-2.8 2.3-3.3l12.7 6.3c-.3.5-1.2 1.6-1.5 2"/><path class="st2" d="M205.2 102.1l-13.5-3.4c1.4-1.2 2.6-4 2.8-4.6l11.9 6.1c-.3.5-.9 1.3-1.2 1.9z"/><path class="st2" d="M206 100.3l-13-3.5c1.1-1.8 2.3-5.8 2.3-7.4.1-1.5-.2-3.1-.9-4.5-.6-1.4-1.6-2.7-2.7-3.7-.6-.5-.9-1.2-1.1-1.9-.2-.7-.1-1.5.2-2.2l14.6 4.5c-.3.7-2.7 2.7-2.5 3.5.2.8.4 2 1 2.5 1.2 1 1.9 2.1 2.5 3.5.6 1.4 1 3 1 4.5 0 1.6.1 3.5-.5 5"/><path class="st2" d="M202.3 83.2l-11.5-6.1.3-.6 11.5 6.2-.3.6m.2-.7L191 76.4c.1-.2.2-.3.3-.5l11.5 6.2-.3.5m.3-.5l-11.5-6.2.3-.3 11.5 6.2-.3.3"/><path class="st2" d="M203.1 81.8l-11.4-6.2.4-.4 11.5 6.2-.5.4"/><path class="st2" d="M203.5 81.4L192 75.1l.4-.3 11.5 6.2c-.1.2-.3.3-.4.4"/><path class="st2" d="M203.9 81.1l-11.5-6.2.6-.3 11.5 6.2c-.2 0-.4.1-.6.3"/><path class="st2" d="M203.4 82.1l-10.5-7.5c.4-.3 1.1-.5 1.5-.5.5 0 .6.1 1 .2l12 6.3c1 1-1.1.4-1.5.5-.4.1-.7-.2-1 0"/><path class="st2" d="M206.8 80.5l-12.5-6.4c.5 0 1.4.2 1.5.3l11.5 6.2c-.1 0-.3-.1-.5-.1zm.6.2l-11.5-6.2 11.5 6.2zm-11.3-2.8l-11.5-6.2c.4-.1.8-.1 1.2 0l11.5 6.2c-.4-.1-.8-.1-1.2 0m1.2 0l-11.5-6.2.6.2 11.5 6.2-.6-.2zm.6.2l-11.5-6.2 11.5 6.2"/><path class="st1" d="M231.6 81.9l-11.5-6.2c-.5-.2-.9-.6-1.2-1-6.5-10.8-15.7-19.7-26.8-25.8l14.5 4.2c11.7 5.4 20.7 14 26.3 25.7.3.4 1.5 3.4-1.3 3.1z"/><path class="st2" d="M186.4 114.9l-11.5-6.2c-2.6-1.5-4.8-3.7-6.3-6.4s-2.2-5.7-2.1-8.7c0-2.6.5-5.1 1.4-7.6l16.3.2c-.9 2.4-5.3 10.8-5.4 13.4-.1 3-.2 6.2 1.3 8.9 1.5 2.6 3.7 4.8 6.3 6.4z"/><path class="st2" d="M178.6 94.9L167.9 86c.4-1 .8-2 1.4-3l11.5 6.2c-.5 1-1 2-1.4 3"/><path class="st2" d="M180.9 89.6l-13-3.5c.5-2 2.3-4.9 2.9-5.6l11.5 6.2c-.5.8-.5 2.1-.9 2.9"/><path class="st2" d="M182.4 88.6l-11.6-8.1c.5-.7 1.1-1.4 1.6-2.1l15.5 4.2c-.6.7-5 5.3-5.5 6z"/><path class="st2" d="M183.9 84.7l-11.5-6.2c.6-.6 1.2-1.3 1.8-1.8l11.5 6.2c-.6.5-1.2 1.1-1.8 1.8"/><path class="st2" d="M185.7 82.8L171 80.1c.9-1.8 4.6-4.7 5.3-5.2l11.5 6.2c-.7.5-1.4 1.1-2.1 1.7"/><path class="st2" d="M183.4 87.1l-7-12.2c.9-.6 1.9-1.2 2.9-1.7l11.5 6.2c-1 .5-6.5 7.1-7.4 7.7z"/><path class="st2" d="M188.2 81.9l-8.9-8.7c1.7-.8 3.4-1.3 5.3-1.6l12.1 6.3c-1.8.2-6.8 3.2-8.5 4z"/><path class="st4" d="M199.6 81.2c0 1-.3 2-1 2.8-.6.8-1.5 1.3-2.5 1.5-3.1.6-5.8 2.3-7.8 4.7-2 2.4-3.1 5.4-3.1 8.5-.1 1.4.1 2.8.6 4.2.5 1.3 1.3 2.5 2.4 3.5 1 1 2.3 1.7 3.7 2.1 1.4.4 2.8.6 4.2.4 3.1-.6 5.8-2.2 7.8-4.6 2-2.4 3.1-5.4 3.1-8.5.1-1.6-.2-3.1-.9-4.5-.6-1.4-1.6-2.7-2.8-3.7-.7-.7-1.1-1.6-1.1-2.6-.1-1 .2-1.9.8-2.7.3-.4.7-.8 1.2-1.1.5-.3 1-.5 1.5-.5.4-.1.8 0 1.2.1.4.1.8.3 1.1.5 2 1.7 3.5 3.8 4.6 6.1 1 2.3 1.6 4.9 1.5 7.5 0 10.7-8.1 20.4-17.9 21.8-9.9 1.4-17.9-6.1-17.8-16.7 0-10.6 8.1-20.4 17.9-21.8.5-.1.9 0 1.3.1s.8.4 1.2.7.6.7.8 1.1c-.1.2 0 .6 0 1.1z"/><path class="st1" d="M133 236.8l-11.5-6.2c-.8-.4-1.6-1-2.3-1.6-1.5-1.7-2.2-3.9-2.1-6.2 0-1.9 0-4.2.3-6.5.6-5.7.5-11.4-.3-17.1-1-6.2-4-11.9-8.7-16.2-1.9-1.7-4.1-3.2-6.4-4.4l11.7 5.4c2.3 1.2 4.1 3.6 6.1 5.3 4.7 4.3 7.8 10 8.8 16.3 4.2 6.9 3.4 11.3 2.8 17-.2 2.1-2.8 4.4-2.8 6.5.3 1.6.3 3.9 1.8 5.6.7.5 1.7 1.6 2.6 2.1m9.4-127.8l-11.5-6.2c-.5-.3-1-.8-1.2-1.3s-.4-1.1-.4-1.7c0-.5.1-1 .3-1.5l11.5 6.2c-.2.5-.3 1-.3 1.5 0 .6.1 1.2.4 1.7.3.5.7.9 1.2 1.3z"/><path class="st1" d="M141 104.4l-11.5-6.2.3-.6 11.4 6.2-.3.6"/><path class="st1" d="M141.2 103.8l-11.5-6.2.3-.5 11.5 6.2c-.1.2-.2.3-.3.5zm.4-.5l-11.5-6.2c.1-.1.2-.3.3-.4l11.5 6.2-.3.4"/><path class="st1" d="M141.9 102.9l-11.5-6.2.4-.4 11.5 6.2-.4.4"/><path class="st1" d="M142.3 102.6l-11.5-6.2.4-.4 11.5 6.3-.4.3"/><path class="st1" d="M142.7 102.3L131.1 96l.6-.3 11.5 6.2-.6.3"/><path class="st1" d="M136.3 105.1l-4.5-9.5c.3-.2.7-.3 1.1-.3 1.1-.1 2.2-.5 3.2-1l17.2 5.4c-1 .5-5.7 4.2-6.8 4.4-.4.1-4.5 3.5-4.8 3.6"/><path class="st1" d="M147.5 100.6L136 94.3c.6-.3 1.2-.6 1.8-1l11.5 6.2c-.6.5-1.2.8-1.8 1.1"/><path class="st1" d="M149.3 99.6l-11.5-6.2c.5-.3.9-.7 1.3-1l11.5 6.2c-.4.3-.9.7-1.3 1"/><path class="st1" d="M148.9 101.1l-11.5-7.5c2.5-1.5 4.5-4.5 4.9-5.5l9.4 9.2c-.3.4-.7.8-1.1 1.1"/><path class="st1" d="M151.7 97.4l-11.5-6.2c.4-.4.7-.8 1-1.2l11.5 6.2c-.3.4-.7.9-1 1.2"/><path class="st1" d="M148.9 101.6L141.2 90c.3-.5.6-.9.9-1.4l11.4 6.2c-.3.5-.5 1-.9 1.4"/><path class="st1" d="M151.9 100.6L142 88.5c.3-.6.6-1.2.8-1.8l13.5 5.9c-.2.6-4.1 7.4-4.4 8z"/><path class="st1" d="M154.4 93l-11.5-6.2c.6-1.5.9-3 .9-4.6.1-1.8-.4-3.6-1.3-5.2s-2.2-2.9-3.8-3.8l12.8 3.1c1.6.9 2.5 4.8 3.3 6.4.9 1.6.4 4 .4 5.8 0 1.4-.2 3-.8 4.5m-69.7 80.2l-1.8-8.7c3.4.5 6.8 1.1 10.1 1.9l11.5 6.3c-3.3-.8-9.6 2.9-13 2.4"/><path class="st1" d="M104.4 172.8l-15.1-7.2c4.5.5 11.2 3.3 14.8 5l11.5 6.2c-3.5-1.7-7.3-3.1-11.2-4z"/><path class="st1" d="M114.9 176.6l-13-7c.6.3 3.5 1.5 4 1.8l11.5 6.2c-.6-.3-1.9-.7-2.5-1zm30-105.5l-14-6.4c3-1.1 6.2-.5 8.3 0l12.2 6.4c-2.1-.5-4.5-.3-6.5 0z"/><path class="st1" d="M150.7 70.9l-11.5-6.2c1 .2 1.9.6 2.8 1.1l11.5 6.3c-.9-.5-1.8-.8-2.8-1.1m2.8 1.1L142 65.7l.6.3 11.5 6.2-.6-.3m-.1-29.8l-5.8-8.8c10.5-1.5 21.2-1 31.5 1.6l14.5 6.7c-10.3-2.6-24.2-.5-34.7 1"/><path class="st1" d="M190.5 41.1l-11.4-6.2c4.9 1.3 9.7 3.1 14.3 5.3l11.5 6.2c-4.6-2.2-9.4-4-14.3-5.3"/><path class="st1" d="M204.8 46.4l-11.5-6.2c.9.5 1.8.9 2.7 1.4l11.5 6.2-2.7-1.4zM87.3 168l-11.5-6.2 1.1.6 11.5 6.2-1.1-.6"/><path class="st1" d="M88.4 168.6l-11.5-6.2c1.7.8 3.5 1.5 5.4 2l11.5 6.2c-1.9-.5-3.7-1.2-5.4-2"/><path class="st1" d="M93.8 170.6l-11.5-6.2.6.2 11.5 6.2-.6-.2"/><path class="st2" d="M101.1 141.5l-11.5-6.2.4.2 11.5 6.2-.4-.2z"/><path class="st2" d="M101.5 141.7L90 135.4c.6.3 1.2.5 1.8.7l12.6 6.5c-.6-.2-2.4.8-3 .5"/><path class="st2" d="M102.4 144.1l-10.5-8c1.3.3 2.6.4 4 .2.4-.1.9-.1 1.3 0l11.3 6.3c-.4-.1-.6.9-1 1-1.4.2-3.9.8-5.1.5z"/><path class="st2" d="M107.9 142.8L97 136.3l.6.2 11.5 6.2c.6.5 0 .4-1.2.1z"/><path class="st2" d="M109.2 142.8l-11.5-6.2 11.5 6.2h-.2.2zm8.8-1.7l-11.5-6.1c-.8-.5-1.5-1.3-1.7-2.2-.3-.9-.2-1.9.2-2.8l13.9 2.7c-.4.8-2.9 5.3-2.6 6.2.3.9.9 1.6 1.7 2.2"/><path class="st2" d="M116.5 136.3L105 130c0-.1.3-.9.8-1.4l11 7-.3.7"/><path class="st2" d="M116.8 135.6l-11.5-6.2c.2-.4.3-.6.6-.8l12.5 6-1.6 1z"/><path class="st2" d="M117 135.4l-11.5-6.2c.4-.6.7-1.3.9-2l13.9 2c-.3.6-3 5.5-3.3 6.2"/><path class="st2" d="M117.9 133.4l-11.5-6.2c.6-1.5.9-3.2.9-4.8.1-1.9-.4-3.9-1.3-5.6-.9-1.7-2.3-3.1-4-4.1l13 5.4c1.7 1 2.6 2.8 3.5 4.5.9 1.7 1.1 4.6 1 6.5 0 1.6-.4 3-1 4.5"/><path class="st1" d="M131.7 105.2L120.2 99c-.3-.1-.6-.4-.8-.6-3-3.3-4.6-7.7-4.5-12.2 0-2.6.5-5.1 1.4-7.6l11.5 6.2c-.9 2.4-1.4 5-1.4 7.6-.1 4.5 1.5 8.8 4.5 12.2.2.3.5.5.8.6"/><path class="st1" d="M127.9 85.6l-11.6-6.9c.4-1 .9-2.1 1.4-3.1l11.5 6.2c-.6 1-1 2.8-1.3 3.8"/><path class="st1" d="M128.2 86.9l-10.5-11.3c.4-.8.9-1.6 1.5-2.4l16.9 1.7c-.6.8-7.5 11.2-7.9 12z"/><path class="st1" d="M130.9 79.6l-11.7-6.4c.5-.7 1-1.4 1.6-2.1l11.6 6.4c-.6.8-1 1.4-1.5 2.1z"/><path class="st1" d="M119.8 77.4l.9-6.3c.6-.6 1.2-1.3 1.8-1.8l18.2 4.9c-5.9 10.1-20.3 2.6-20.9 3.2z"/><path class="st1" d="M134.1 75.6l-11.5-6.2c.7-.6 1.4-1.2 2.2-1.7l12.1 6.5c-.8.5-1.3 1.4-2 2"/><path class="st1" d="M136.2 73.9l-11.4-6.2c.9-.6 1.8-1.2 2.8-1.7l12.3 6.2c-1 .5-2.6 1.4-3.5 2"/><path class="st1" d="M131.6 79.1l-11.2-7.3c3.4-5.6 10.7-7.4 12.5-7.6l11.9 6.3c-1.7.4-11.5 7.9-13.2 8.6z"/><path class="st3" d="M140.9 105.9c0-1 .4-2 1-2.8.6-.8 1.5-1.3 2.5-1.5 3.1-.6 5.8-2.3 7.8-4.7 2-2.4 3.1-5.4 3.1-8.6.1-1.4-.1-2.8-.6-4.2-.5-1.3-1.3-2.5-2.4-3.5-1-1-2.3-1.7-3.6-2.1-1.4-.4-2.8-.6-4.2-.4-3.1.6-5.8 2.3-7.8 4.7-2 2.4-3.1 5.4-3.1 8.5-.1 2.7.9 5.4 2.7 7.4.6.8.9 1.7.9 2.7-.1 1-.5 1.9-1.2 2.6-.6.7-1.5 1.2-2.5 1.3-.5.1-1 0-1.4-.1-.4-.2-.9-.4-1.2-.8-3-3.3-4.6-7.7-4.5-12.1.1-10.6 8.1-20.3 18-21.7 9.9-1.4 17.9 6.1 17.8 16.7 0 10.6-8 20.4-17.9 21.8-.5.1-.9 0-1.4-.1-.4-.1-.8-.4-1.2-.7-.3-.3-.6-.7-.8-1.1 0-.4-.1-.8 0-1.3z"/><path class="st2" d="M107.3 109.6l-11.5-6.2c2.2-.3 4.4-.2 6.6.4l13 6.9c-2.2-.6-5.9-1.4-8.1-1.1"/><path class="st2" d="M113.9 110l-11.5-6.2c1 .3 2 .6 3 1.1l11.5 6.2c-.9-.5-2-.9-3-1.1"/><path class="st2" d="M116.9 111.1l-11.5-6.3.6.3 11.5 6.2-.6-.2M97 149l-11.5-6.2c-2.8-1.6-5.1-4-6.7-6.8-1.6-2.8-2.3-6-2.2-9.3 0-2.8.5-5.5 1.5-8.1l11.5 6.2c-.9 2.6-1.4 5.3-1.4 8.1-.1 3.2.6 6.4 2.2 9.3 1.6 2.8 3.9 5.2 6.6 6.8"/><path class="st2" d="M89.4 129.1l-11.3-10.6c.4-1.1.9-2.2 1.4-3.2l15.8 2.3c-.6 1-3.6 6.9-4 8"/><path class="st2" d="M91.1 121.6l-11.5-6.2c.5-.9 1-1.7 1.6-2.5l11.5 6.2c-.6.8-1.2 1.6-1.6 2.5z"/><path class="st2" d="M91.1 123.1l-10-10.2c.5-.8 1.1-1.5 1.7-2.2l17.4 2.8c-.6.7-7 4.9-7.6 5.6"/><path class="st2" d="M84.4 125.6l-1.5-14.9c.6-.7 1.3-1.3 1.9-2l15.6 4.4c-.7.6-3.4 4.8-4 5.5"/><path class="st2" d="M96.3 114.9l-11.5-6.2c.7-.6 1.5-1.3 2.3-1.8l12.2-3.3c-.8.5-2.3 10.6-3 11.3"/><path class="st2" d="M98.6 113.1l-11.5-6.2c1-.7 2-1.3 3.1-1.8l11.5 6.2c-1.1.5-2.1 1.1-3.1 1.8"/><path class="st2" d="M98.8 118.1l-8.6-13c1.8-.8 3.6-1.4 5.6-1.7l13.6 6.7c-1.9.3-5.9.4-7.7 1.2"/><path class="st4" d="M123.2 139.1c-.3.6-.8 1.1-1.3 1.5-.5.4-1.2.6-1.8.8-.7.1-1.4 0-2-.3-.9-.6-1.5-1.5-1.7-2.5-.2-1 0-2.1.6-2.9 1.2-2.1 1.9-4.5 1.9-7 .1-1.5-.1-3-.7-4.4-.5-1.4-1.4-2.7-2.5-3.7s-2.4-1.8-3.9-2.3c-1.4-.5-3-.6-4.5-.4-3.3.6-6.2 2.4-8.3 4.9-2.1 2.6-3.3 5.8-3.3 9.1-.1 1.5.1 3 .7 4.5.6 1.4 1.4 2.7 2.5 3.7s2.4 1.8 3.9 2.3c1.5.5 3 .6 4.5.4.5-.1 1 0 1.4.1.5.1.9.4 1.2.7.4.3.6.7.8 1.2.2.5.2.9.2 1.4 0 1.1-.4 2.1-1.1 2.9-.7.8-1.6 1.4-2.7 1.6-10.5 1.4-19-6.5-19-17.8s8.5-21.7 19.1-23.2c10.5-1.5 18.9 6.5 18.9 17.8.1 4.1-.9 8.1-2.9 11.6z"/><path class="st1" d="M84.6 175.5l-12.8-6.6c-2.2-1.2-4.2-2.6-6.1-4.2-2.9-2.5-5.3-5.6-6.9-9-1.6-3.5-2.4-7.3-2.4-11.1.1-13.3 2.5-26.4 7.1-38.9l11.7 5.9c-4.6 12.4-6.8 21.8-6.9 35 0 3.8 1.4 13 3 16.5 1 2.5 3.6 5.2 6.5 7.7.7.5 4.3 3.2 6.8 4.7z"/><path class="st1" d="M75 111.8l-11.5-6.2c2-5.3 4.4-10.4 7.1-15.4l14.7 1.4c-2.7 4.9-8.2 14.9-10.1 20.2"/><path class="st1" d="M81.9 96.6l-11.3-6.4c2.2-4.2 4.7-8.2 7.3-12.1L94.6 80c-2.8 3.8-10.4 12.4-12.7 16.6z"/><path class="st1" d="M89.4 84.5l-11.5-6.3c2.5-3.6 5.3-7.1 8.2-10.4l18.3-.9c-3 3.2-12.5 13.9-15 17.6z"/><path class="st1" d="M97.6 74.1l-11.5-6.3c2.9-3.3 6-6.4 9.3-9.4l11 6.7c-1 1-5.9 5.7-8.8 9z"/><path class="st1" d="M106.4 65.1l-14-4c3.5-3.5 11.6-9.9 15.5-12.4l10.5 7c-3.9 2.6-8.5 6.4-12 9.4z"/><path class="st1" d="M118.4 55.6l-12-5.9c4.6-3.2 9.6-6.1 14.7-8.5l11.3 6.4c-5.2 2.4-9.5 5-14 8z"/><path class="st1" d="M131.4 48.1L121 41.2c8.4-4 17.3-6.6 26.5-7.9l11.5 6.2c-9.2 1.3-18.3 4.1-26.6 8.1M61.6 223.1L50 216.9l1.5-1.8 10.6 7.4-.5.6z"/><path class="st1" d="M62.4 223.1l-11.7-7c1.4-1.5 2.6-3.1 3.8-4.8l12.9 6.7c-1.2 1.8-3.7 3.6-5 5.1z"/><path class="st1" d="M65.9 217.6l-11.5-6.2c.7-1 1.4-2 1.9-3.1l11.6 6.2c-.6 1.1-1.3 2.1-2 3.1m2-3.1l-11.5-6.2 11.5 6.2zm-5.4 14.2L51 222.4l-.2-.2c-.7-.4-1.3-1.1-1.5-2s-.2-1.7.2-2.4L61 224c-.4.8.1 1.7.3 2.5s1.5 2 1.9 2.1c0 .2.1.3-.7.1z"/><path class="st1" d="M61.4 227.6l-11.9-9.8c.3-.8.3-.6.4-.8l16.1.5c-.1.3-4.4 9.8-4.6 10.1z"/><path class="st1" d="M61.4 223.3l-11.5-6.2s.1-.2.2-.3l11.5 6.3c0 .1-.1.2-.2.3m7-7.3l-12-7.8.4-.7 14.6 6.5c-.2.4-2.5 1.9-2.5 2"/><path class="st1" d="M68.3 213.8l-11.5-6.2c.4-.9.8-1.8 1.1-2.8l12.9 6.3c-.3 1-1 3.1-1.5 4"/><path class="st1" d="M69.5 211.1l-11.6-6.2c.4-1 .8-2.3 1.2-3.9.8-3.5.2-9.3-.8-12.8l14.6 2.7c1 3.5.2 13.3-.6 16.8-.3 1.3 0 3.2-.5 4.5"/><path class="st1" d="M70.5 196.4L59 190.2c-.5-2.3-1.7-4.3-3.4-5.8-.7-.6-1.4-1.1-2.2-1.5l12.3 4.1c.8.4 2.3 2.7 3 3.3 1.8 1.5 1.4 3.9 1.8 6.1m-40.1 42.2l-11-7.1c5.7-.9 11.3-2.6 16.6-5l11.5 6.2c-5.3 2.4-10.9 4.9-16.6 5.8"/><path class="st1" d="M47.5 234L36 226.5l3-1.5c.1 0 .4-.3.9-.3l12.5 6-.5 1c-1 .5-2.5 1.5-3.5 2"/><path class="st1" d="M50.7 231.1l-11.5-6.2c.3-.2.7-.3 1.1-.4.5-.1.9-.1 1.4 0l12.2 6.6c-.4-.1-1.6-.1-2 0-.4.1-.7-.2-1 0"/><path class="st1" d="M53.2 230.8l-11.5-6.2.6.2 11.5 6.2c-.2-.1-.4-.2-.6-.2z"/><path class="st1" d="M54.4 231.6l-12.1-6.8 11.5 6.2m3.7-51.6L46 173.1c2 0 4 .3 6 .9l11.5 6.3c-2-.5-4-.8-6-.9"/><path class="st1" d="M63.5 180.3L52 174.1c1.4.4 2.8.9 4.2 1.5l.8.4 11.5 6.2-.8-.4c-1.4-.6-2.8-1.1-4.2-1.5m4.9 1.8l-11.5-6.2.8.4 11.5 6.2-.8-.4zm-16.5-2.3l-11.5-6.2 5.6-.5 11.5 6.3-5.6.4z"/><path class="st2" d="M61.3 178.2l-12.4-6.7v-18l12.5 5.4-.1 19.3z"/><path class="st1" d="M13.1 245.9l-11.5-6.2c-.6-.4-1.1-.9-1.4-1.5-.3-.6-.4-1.3-.3-2 0-.4.3-1.5 1.3-2.7l11.2 7.6c-.1.3 0 1.1 0 1.5-.1.7-.8.9-.5 1.5.3.6 1.4 1.6 2 2"/><path class="st1" d="M11.7 241.4L.2 235.2l.3-.6 11.5 6.2c-.2.1-.3.3-.3.6m.2-.7L.4 234.5c.1-.2.2-.3.3-.5l11.5 6.2c-.1.2-.2.4-.3.5"/><path class="st1" d="M12.9 241.1L.7 234l.4-.4 12.8 6-1.7.7"/><path class="st1" d="M12.5 239.9l-11.4-6.2c.1-.2.2-.3.4-.4l11.5 6.3-.5.3zm.4-.4l-11.5-6.3c.1-.1.3-.3.5-.4l12 6.3c-.2.1-.4.4-.5.5"/><path class="st1" d="M13.4 239.1l-11.5-6.3c.2-.1.3-.2.5-.3l11.6 6.2c-.2.2-.4.3-.6.4z"/><path class="st1" d="M.4 235l2-2.5c.4-.2.7-.3 1.1-.4 1.9-.2 3.7-.7 5.5-1.5l18.2 4.4c-1.7.8-10.5 3.4-12.4 3.6-.4.1-3.9 4-4.3 4.2"/><path class="st1" d="M4.1 232.7l4.9-2.1c.7-.3 1.4-.8 2.1-1.2l16.1 2.5c-.7.5-7.6 8.9-8.3 9.3"/><path class="st1" d="M22.6 235.7l-11.5-6.3c.5-.3.9-.7 1.4-1.1l12.4 6.3c-.5.4-1.8.7-2.3 1.1"/><path class="st1" d="M24.1 234.6l-11.6-6.2c.4-.4 4.6-4.7 5.5-9.4.7-4 7.1 14.5 7.1 14.5-.3.3-.7.7-1 1.1"/><path class="st1" d="M25.1 233.4l-11.4-6.2c.4-.4.7-.9 1-1.3l11.5 6.2c-.3.5-.6.9-1.1 1.3"/><path class="st1" d="M26.2 232.1l-11.5-6.2.6-.8.5-.8 11.5 6.2-.5.8c-.2.2-.4.5-.6.8"/><path class="st1" d="M24.6 238.3l-8.8-14.1c.4-.8.8-1.7 1.1-2.5l11.5 6.2c-.3.9-.7 1.7-1.1 2.5"/><path class="st1" d="M28.3 228l-11.5-6.2c.9-2.7 1.4-5.4 1.4-8.3-.1-6 .2-12 .9-17.9.3-3 1-6 2-8.9l11.5 6.2c-1 2.9-1.7 5.9-2 8.9-.6 5.9-.9 11.9-.9 17.9.1 2.8-.4 5.6-1.4 8.3"/><path class="st1" d="M29.8 196.8l-8.7-10.1c.4-1 .9-2 1.4-2.9l14.7.2c-.4.8-2.3 15.7-7.4 12.8z"/><path class="st1" d="M21.2 187l1.4-3.4c.4-.6.7-1.2 1.1-1.7l5.6-1.9c-.4.6 5.2 9.3 4.8 9.9v.2"/><path class="st1" d="M35.2 188.1l-11.6-6.2 1.2-1.5 11.5 6.2c-.4.5-.8 1-1.1 1.5"/><path class="st1" d="M36.3 186.6l-12.5-5c.5-1 1.5-2 3-3l10.9 6.8c-.5.4-.9.9-1.3 1.3"/><path class="st1" d="M37.4 185.6l-11.5-6.2c.2-.2.5-.4.8-.7l1.2-1.1 11.1 6.7-.9.6c-.2.3-.5.5-.7.7z"/><path class="st1" d="M39.3 184l-11.5-6.2c.8-.6 1.6-1.1 2.5-1.5l11.5 6.2c-.9.5-1.7 1-2.5 1.5m2.6-1.5l-11.5-6.2c3.2-1.3 6.6-2.2 10.1-2.5L52 180c-3.5.3-6.9 1.1-10.1 2.5"/><path class="st2" d="M45.7 177.6l-11.5-6.2 16.1-2.5 12.1 6.6-16.7 2.1z"/><path class="st3" d="M38.5 218.6s-.2-15.2 2.6-22.3c4-10.1 28.9-15.2 30 3.1.3 5.3.2 5.2-.5 7.5-3.3 11-9 14.4-10 17.4-1.9 5.2 3.8 4.6 3.8 4.6 1.6-.5 3-1.5 3.9-2.9 3.3-3.9 6-8.2 8-12.9 2.8-6.6 3.2-14 1-20.8-.8-2.3-2-4.5-3.7-6.3-1.7-1.8-3.7-3.2-6-4.1-3.2-1.4-6.6-2.2-10.1-2.3l-5.5.5v-.1.1c-4.9.3-9.5 2-13.6 4.7-1.8 1.4-3.3 3.2-4.4 5.2-1.9 3.8-3 7.8-3.4 12-.6 5.9-.9 11.9-.9 17.9 0 4.1-1 8.1-3 11.6-1.3 2-3 3.7-5 5-2 1.2-4.3 2-6.7 2.2-.9.2-1.8.7-2.4 1.4-.6.7-1 1.6-1.1 2.5-.1.4-.1.9 0 1.3s.3.8.6 1.2c.3.3.6.6 1 .9.4.2.8.4 1.2.4 5 .4 10.1.3 15.1-.5 8.3-1.1 16.3-3.6 23.7-7.5.9-.5 1.6-1.3 2-2.3.4-1 .4-2 .1-3-.2-.7-.7-1.2-1.3-1.6-.6-.4-1.3-.5-2.1-.4-.4.1-.9.2-1.3.4 0 0-19.5 8.4-20.7 7-.9-1.2 7.1-3 8.7-19.9zm-9 27.2"/><path class="st2" d="M45.8 154.9l-11.5-6.2 14.6-2 12.5 6.1-15.6 2.1z"/><path class="st2" d="M60.4 152.8L48.9 148l.1-95.1 11.7 6.6-.3 93.3zm-21.8 31.8l-11.7-6.2.2-100.9 11.5 6.2v100.9z"/><path class="st2" d="M38 84.7l-10.9-7.2c0-.5.1-1.1.3-1.6l11.5 6.3c-.2.5.4 1.5.4 2m-.4-2.1l-11.5-6.2.3-.6 11.5 6.2c0 .2-.2.4-.3.6z"/><path class="st2" d="M36.8 86.1l-9.5-9.8c.3-1.1.9-1.9 1.4-2.4L39.4 81l-.9 6.1"/><path class="st2" d="M39.5 81L28 74.8l.3-.4 11.5 6.2-.3.4z"/><path class="st2" d="M39.8 80.6l-11.5-6.2s.8-1.1 2.1-1.2c3-.4 9.8 7.1 9.8 7.1l-.4.3"/><path class="st2" d="M40.3 80.2L28.8 74l.5-.4 11.5 6.2c-.2.2-.4.3-.5.4z"/><path class="st2" d="M38.9 83.8l-9.7-10.2.6-.3 14.1 7c-.2.1-3.6 2.7-3.7 2.9"/><path class="st2" d="M41.2 79.6l-11.5-6.2c.3-.2.7-.3 1.1-.3.4-.1.8-.1 1.2 0l12.5 7.3c-.4-.1-1.4 1.4-1.8 1.5-.4 0-1.2-2.4-1.5-2.3z"/><path class="st2" d="M38.4 80.7L32 73c.2.1.4.1.6.2l11.5 6.4c-.2-.1-2.4 1.1-2.6 1.1"/><path class="st2" d="M45.1 81.2l-12.4-7.9 11.4 6.4s.9 1.1 1 1.2v.3zM64.6 67L48.9 54.6c.4-11.4-.7-22.9-3.1-34.1-.6-2.6-1.6-5.1-3.1-7.3-.3-.4-.6-.8-1.1-1.1l11.5 6.2c.4.3.8.6 1.1 1.1 1.4 2.3 2.4 4.7 3.1 7.3 2.4 11.2 8.2 18.5 7.8 30"/><path class="st2" d="M40.7 66.9l-11.9-6.2c-.5-.3-1-.8-1.3-1.3-.3-.5-.4-1.2-.4-1.8-.2-12.5 1-25 3.6-37.2.5-2 1.1-3.9 1.7-5.6L44 21.1c-.6 1.7-1.2 3.6-1.7 5.7C39.6 39 38.4 51.5 38.7 64c0 .6.3 1 .6 1.6.3.5.7.2 1.2.5"/><path class="st2" d="M43.1 26.7L32.5 14.9c.5-1.4 1.1-2.8 1.9-4.2l11.5 6.2c-.7 1.3-1.3 2.7-1.8 4.2"/><path class="st2" d="M45.8 16.9l-11.5-6.2c.2-.3.3-.6.5-.9.2-.3.5-.8.8-1.2l11.5 6.2c-.3.4-.6.8-.8 1.2-.2.4-.3.6-.5.9m1.3-2.1L35.6 8.6c.3-.5.7-.9 1.1-1.4l11.5 6.2c-.4.5-.7 1-1.1 1.4"/><path class="st2" d="M48.2 13.5L36.7 7.2c.3-.4.7-.7 1-1l11.5 6.2c-.3.4-.6.7-1 1.1"/><path class="st2" d="M49.2 12.5L37.7 6.2c.3-.3.6-.6 1-.8l11.5 6.2c-.4.3-.7.6-1 .9"/><path class="st2" d="M50.2 11.7L38.7 5.4c.3-.2.7-.4 1.2-.6L51.4 11c-.4.2-.8.4-1.2.7"/><path class="st2" d="M34.4 10.7c.9-3.1 5.5-5.9 5.5-5.9.6-.3 1.3-.5 2-.7.7-.1 1.6-.1 2.3.1l11.5 6.2c-.8-.1-1.6-.1-2.4 0-.7.1-6.3 6.6-7 6.9"/><path class="st2" d="M55.7 10.5L44.2 4.3c.4.1.8.2 1.2.4L56.9 11c-.3-.2-.8-.4-1.2-.5"/><path class="st2" d="M56.9 11L45.4 4.7h.3L57.2 11h-.3z"/><path class="st3" d="M69.8 160.9C56.6 96.6 122.7 18.1 198.5 42.8c14.5 4.7 30.3 20 38.1 33 .5.9.6 1.9.4 2.9-.2 1-.8 1.9-1.6 2.5-.5.4-1.2.7-1.8.8-.6.1-1.2 0-1.7-.2s-1-.6-1.3-1.2C223.4 68.5 212.7 58.9 200 53c-12.7-6-27-8-40.9-5.8-46.3 6.5-83.9 52.4-84 102.4 0 2.9.6 5.7 1.8 8.2 1.2 2.6 3 4.9 5.2 6.7 3.5 3 7.7 5.1 12.2 6.3 14.3 2 24.1 6.3 30.5 12.1 5.8 5.3 9.6 12.4 10.8 20.1.9 6.2 1.1 12.5.4 18.7 0 .4-.1.8-.1 1.2-.1 2.1-.2 3.6-.2 4.9 0 .4.1.9.2 1.3.9.7 2 1.2 3.1 1.5 0 0 14.4 6.6 36.1-2.4s35-22.8 43.9-33.7c8.8-10.9 20.7-35.8 22-50.7s2-14.4 1.7-17.5c-.5-6 6.7-5.8 6.9-2.4s-.9 27.4-6.5 39.4-13.2 34.3-32.9 51.1-36.6 23.9-50.2 25.5c-13.6 1.5-29.7 0-31.2-8.4s5.3-18.4-4.8-37.3c0 0-9-12.6-24.7-14.4S73.1 169 69.8 160.9"/><path class="st4" d="M53.2 10c5.6-1.7 10.6 9.3 12.1 17.7 1.5 8.6 2.7 7.9 2.4 54.4-.3 46.5 0 99.6 0 99.6-3.2-1.4-6.7-1.9-10.2-2.1l-2.8.2-2.8.2c-4.8.4-9.4 2-13.4 4.7L38.7 84c0-1 .3-2 1-2.8.7-.8 1.6-1.3 2.6-1.5.5-.1.9 0 1.4.1.4.1.8.4 1.2.7.3.3.6.7.8 1.1.2.4.2.9.2 1.4v71.3h.1l14.5-2h.1V61.2c.4-11.5-.7-22.9-3.1-34.1-.6-2.6-1.6-5.1-3-7.3-.3-.4-.7-.8-1.1-1.1h-.1l-.1.1c-2.8-.3-5 14.3-5.3 14.9 0 0-2.3 21.1-2.2 29.3.1 4.5-7.7 6-7.1-.4 0 0 .1-24.5 4.7-41.2 2-8.1 7.1-10.5 9.9-11.4zm7.3 165.7l.1-15.9v-.1h-.1l-14.6 2.1h-.1v16h.1l14.6-2.1z"/></g></svg>