<svg width="200" height="130" viewBox="0 0 200 130" fill="none" xmlns="http://www.w3.org/2000/svg">
<g clip-path="url(#clip0)">
<path d="M108.164 5.27186H108.396C108.473 5.19375 108.55 5.19375 108.55 5.11565C109.09 4.80325 110.016 4.80325 110.633 5.11565C110.71 5.19375 110.787 5.19375 110.864 5.27186H111.096V94.6981C111.096 94.9324 110.941 95.1667 110.633 95.3229C110.093 95.6353 109.167 95.6353 108.55 95.3229C108.242 95.1667 108.087 94.9324 108.164 94.6981V5.27186Z" fill="url(#paint0_linear)"/>
<path d="M107.47 1.21052H107.856C107.933 1.13242 108.01 1.05431 108.165 0.976213C109.013 0.507604 110.324 0.507604 111.173 0.976213C111.327 1.05431 111.404 1.13242 111.481 1.21052H111.79V5.03749C111.79 5.3499 111.636 5.74041 111.173 5.97471C110.324 6.44332 109.013 6.44332 108.165 5.97471C107.702 5.74041 107.547 5.3499 107.547 5.03749V1.21052H107.47Z" fill="url(#paint1_linear)"/>
<path d="M108.087 2.06969C108.936 2.5383 110.247 2.5383 111.096 2.06969C111.944 1.60108 111.944 0.820066 111.096 0.351457C110.247 -0.117152 108.936 -0.117152 108.087 0.351457C107.239 0.820066 107.239 1.60108 108.087 2.06969Z" fill="#948991"/>
<g filter="url(#filter0_di)">
<path d="M50.3107 37.5278L100.837 8.0054C103.691 6.36526 105.388 4.88133 108.319 6.52147C110.17 7.84919 111.328 10.036 111.328 12.301V76.3442C111.328 76.6077 111.327 76.867 111.326 77.1222C111.299 84.4565 117.66 91.7302 124.994 91.7302H175.507L132.695 130H74.2693C68.0758 130 61.5943 128.887 56.8861 124.863C53.3548 121.845 52.3935 118.543 52.3935 110.709V46.6657C52.3935 44.9474 51.7764 43.3073 50.6964 42.0577L45.451 47.0562V45.7284V41.5891C45.5281 40.1832 47.9965 38.8555 50.3107 37.5278Z" fill="url(#paint2_linear)"/>
</g>
<path d="M45.5286 41.9796V47.1343L51.6997 43.5416C51.6226 43.4635 51.6226 43.3073 51.5454 43.2292C51.2369 42.5263 50.6969 42.0577 50.6969 42.0577C50.6969 42.0577 50.4655 41.7453 50.0798 41.4329C49.617 41.0424 48.9998 40.4956 48.3056 40.1051C47.0714 39.4803 45.5286 40.4175 45.5286 41.9796Z" fill="#2B7200"/>
<path d="M47.3023 43.4635C47.3023 43.9321 47.688 44.5569 48.0737 44.8693C48.3051 45.0255 48.5365 45.0255 48.6908 44.8693L51.5449 43.2292C51.2364 42.5263 50.6964 42.0577 50.6964 42.0577C50.6964 42.0577 50.465 41.7453 50.0793 41.4329L47.5337 42.9168C47.4566 42.9949 47.3023 43.2292 47.3023 43.4635Z" fill="url(#paint3_linear)"/>
<path d="M47.1478 39.4805H47.3792C47.4564 39.4024 47.5335 39.4024 47.5335 39.3243C48.0735 39.0119 48.9992 39.0119 49.6163 39.3243C49.6934 39.4024 49.7705 39.4024 49.8477 39.4805H50.0791V128.907C50.0791 129.141 49.9248 129.375 49.6163 129.532C49.0763 129.844 48.1506 129.844 47.5335 129.532C47.225 129.375 47.0707 129.141 47.1478 128.907V39.4805Z" fill="url(#paint4_linear)"/>
<path d="M46.4537 35.419H46.8394C46.9165 35.3409 46.9936 35.2628 47.1479 35.1847C47.9964 34.7161 49.3078 34.7161 50.1563 35.1847C50.3106 35.2628 50.3877 35.3409 50.4649 35.419H50.7734V39.246C50.7734 39.5584 50.6192 39.9489 50.1563 40.1832C49.3078 40.6518 47.9964 40.6518 47.1479 40.1832C46.6851 39.9489 46.5308 39.5584 46.5308 39.246V35.419H46.4537Z" fill="url(#paint5_linear)"/>
<path d="M47.0705 36.3564C47.9191 36.825 49.2304 36.825 50.0789 36.3564C50.9275 35.8878 50.9275 35.1068 50.0789 34.6382C49.2304 34.1696 47.9191 34.1696 47.0705 34.6382C46.2991 35.0287 46.222 35.8097 47.0705 36.3564Z" fill="#948991"/>
<path d="M117.573 51.2683C115.042 48.9497 113.353 44.2102 113.353 43.5358C113.353 42.3757 112.931 39.2821 112.931 39.2821L118.42 41.6023C118.566 41.6023 118.87 44.1675 118.842 45.4694C120.459 47.5682 118.601 51.5752 117.573 51.2683Z" fill="#FCD1B3"/>
<path d="M105.696 108.262H110.468C110.573 107.98 110.73 107.754 110.94 107.472C110.101 107.134 109.262 106.739 108.528 106.287C108.528 106.287 108.528 106.287 108.475 106.287H105.696V108.262Z" fill="#F5F9FF"/>
<path d="M108.527 106.287C109.262 106.739 110.101 107.134 110.94 107.472C110.782 107.698 110.625 107.98 110.468 108.262H116.079L116.027 114.695H119.225L119.278 108.262H129.609V106.287H119.278L119.33 99.8552H116.131L116.079 106.287H108.527C108.475 106.231 108.527 106.231 108.527 106.287Z" fill="#F5F9FF"/>
<path d="M112.168 45.239L120.435 46.5047C121.13 47.1844 122.575 48.6141 122.797 48.8954C123.02 49.1766 123.214 62.3254 123.284 68.8646L117.587 70.6928L107.513 49.5985L112.168 45.239Z" fill="#B4D6FF"/>
<path d="M109.07 109.307L109.473 107.125L111.927 107.488L111.796 109.535C111.796 109.535 111.334 110.452 110.043 110.475C108.752 110.499 109.07 109.307 109.07 109.307Z" fill="#302624"/>
<path d="M120.792 106.231L120.713 108.006L121.183 109.162L123.212 108.509L123.653 107.192L123.802 105.147L120.792 106.231Z" fill="#302624"/>
<path d="M128.342 109.246C127.712 108.928 125.714 108.318 124.316 107.196C124.239 107.136 124.151 107.093 124.056 107.07C123.962 107.047 123.864 107.045 123.768 107.064L123.66 107.083C123.584 107.385 123.432 107.662 123.22 107.887C123.007 108.113 122.741 108.279 122.447 108.37C121.751 108.597 120.713 108.006 120.713 108.006L120.52 110.523H128.525C128.626 110.466 128.703 110.373 128.739 110.262C128.739 110.262 129.144 109.651 128.342 109.246Z" fill="#302624"/>
<path d="M111.263 109.662C110.3 108.738 109.436 109.518 109.436 109.518L109.07 109.307C108.537 110.116 107.514 111.083 107.384 111.557C107.14 112.456 107.577 113.507 109.007 113.507C110.404 113.507 111.75 112.641 111.897 111.947C111.987 111.528 111.841 110.387 111.795 109.545L111.263 109.662Z" fill="#302624"/>
<path d="M111.558 67.1772C111.558 67.1772 110.551 79.5459 110.211 81.7475C109.87 83.9491 109.219 98.8139 109.219 101.135C109.219 103.833 108.785 109.012 108.785 109.012C108.785 109.012 110.4 109.012 110.944 109.012H112.252C112.252 109.012 115.469 89.7285 115.934 87.709C116.4 85.6896 118.366 78.4979 118.366 78.4979C118.366 78.4979 119.744 97.7837 120.033 99.8031C120.323 101.823 120.75 107.004 120.75 107.004C120.952 107.078 121.85 107.018 122.065 107.004C122.503 106.948 123.675 106.825 124.077 106.64L124.894 86.18L124.984 67.2802L111.558 67.1772Z" fill="#525252"/>
<path d="M119.535 73.9641L115.587 89.045L112.252 109.041H111.557L114.683 89.4669L119.535 73.9641Z" fill="#12191D"/>
<path d="M118.369 78.0425L119.477 93.8967L120.797 107.021C120.949 107.099 120.987 107.021 121.422 107.021L119.894 92.842L118.369 78.0425Z" fill="#12191D"/>
<path d="M119.67 63.943L116.891 47.0675L118.35 47.1378L121.962 63.732L119.073 66.5429L119.67 63.943Z" fill="#C43B55"/>
<path d="M118.407 45.3269C118.407 46.452 118.553 46.3705 118.349 47.2785L116.959 47.3488C116.522 46.4511 116.347 46.3789 116.184 45.3973C116.184 45.3973 117.619 45.095 118.407 45.3269Z" fill="#C43B55"/>
<path d="M116.185 45.3973C116.254 46.2411 116.631 46.6757 116.931 47.3114L118.35 47.2082C118.35 47.2082 117.099 47.1729 116.879 46.9443C116.66 46.7156 116.185 45.3973 116.185 45.3973Z" fill="#A62E41"/>
<path d="M112.166 44.9582L116.404 47.5598L117.307 45.2394L113.117 43.6469L112.166 44.9582Z" fill="#94C5FF"/>
<path d="M120.275 46.3558L118.836 47.4191L117.725 45.2394L118.836 44.4037L120.275 46.3558Z" fill="#94C5FF"/>
<path d="M125.021 50.1774C125.021 50.1774 128.438 69.7382 125.682 74.3493C122.925 78.9604 122.644 72.326 122.644 72.326L122.167 64.709L125.021 50.1774Z" fill="#293346"/>
<path d="M120.087 62.6527L123.141 54.3015L121.616 52.4113L123.141 51.9573C123.141 51.9573 122.045 49.0918 121.265 47.0992L119.872 45.9624C120.61 48.6703 121.64 54.4268 120.087 62.6527Z" fill="#202937"/>
<path d="M114.878 52.1531L113.511 53.9626L120.106 62.5465C118.559 57.3748 115.406 49.091 112.527 44.536L111.915 52.085L114.878 52.1531Z" fill="#202937"/>
<path d="M123.186 69.3541L125.022 50.1944L121.278 47.1075C122.046 49.1002 122.966 51.8805 122.966 51.8805L121.573 52.4127L122.878 54.5798L120.106 62.5465L119.627 67.154C119.774 69.1169 120.97 72.0992 120.97 72.0992C120.97 72.0992 123.346 78.5156 124.878 77.2894C126.411 76.0632 125.022 71.818 125.022 71.818L123.186 69.3541Z" fill="#293346"/>
<path d="M120.987 68.6177C120.832 66.6028 120.63 64.7597 120.186 62.789L120.106 62.5465L113.511 53.9626L115.039 52.1062L112.051 52.0339L112.561 44.536C112.561 44.536 108.585 48.3339 105.981 49.5005C105.981 49.5005 102.389 53.3325 103.651 65.5181C103.672 65.7278 103.745 65.9287 103.864 66.1021C103.983 66.2755 104.143 66.4159 104.33 66.5101C105.82 67.268 109.818 69.0264 113.477 68.2899L113.617 67.417L112.667 64.9688C112.017 64.991 111.273 64.9771 110.545 64.8786C109.594 64.7499 108.672 64.4769 108.024 63.9512C108.024 63.9512 109.459 58.0496 109.113 55.6823L112.667 64.9688C113.32 64.948 113.971 64.8869 114.617 64.7857L115.394 67.6427C114.791 67.9429 111.716 68.0324 111.056 68.1616C111.195 70.9742 110.008 75.1228 110.008 75.1228C110.486 75.8973 111.204 76.4907 112.051 76.8103C112.897 77.13 115.868 76.5954 116.732 76.3272C119.948 75.4757 121.16 70.3664 121.16 70.3664C121.145 70.1449 121.137 70.5817 120.987 68.6177Z" fill="#293346"/>
<path d="M110.545 64.8786C111.273 64.9771 112.017 64.991 112.667 64.9688L109.113 55.6823L110.545 64.8786Z" fill="#293346"/>
<path d="M125.422 73.2758C125.114 72.4711 124.827 71.6578 124.532 70.8489L123.688 68.4049V68.3794V68.3496L124.11 60.5878L124.19 58.6462C124.224 58.0033 124.245 57.3689 124.266 56.709C124.287 56.049 124.3 55.4317 124.304 54.7674C124.304 54.4439 124.304 54.1203 124.304 53.7967C124.304 53.4731 124.266 53.1538 124.245 52.8259C124.291 53.1453 124.363 53.4688 124.384 53.7924C124.405 54.116 124.443 54.4396 124.456 54.7632C124.502 55.4104 124.506 56.0618 124.519 56.709C124.532 57.3561 124.519 57.9863 124.519 58.659L124.468 60.6005L124.392 62.5463C124.392 63.1935 124.325 63.8236 124.287 64.4878C124.198 65.7651 124.126 67.0765 124.004 68.3709V68.2942L124.755 70.7722C124.945 71.6025 125.194 72.4242 125.422 73.2758Z" fill="#202937"/>
<path d="M116.379 63.4216L116.379 63.4216C116.622 62.7331 116.523 62.1443 116.459 61.7635L116.458 61.7576C116.442 61.6634 116.43 61.5895 116.423 61.5266C116.421 61.5113 116.42 61.4979 116.419 61.4861C116.57 61.5815 116.698 61.7546 116.773 62.0274C116.863 62.3566 116.868 62.817 116.735 63.3992C116.714 63.4912 116.709 63.5898 116.736 63.6865C116.765 63.7879 116.825 63.8681 116.902 63.9255C117.04 64.0285 117.224 64.0489 117.372 64.0512C117.6 64.0549 117.896 64.0123 118.173 63.9723C118.266 63.959 118.357 63.9459 118.442 63.9349C118.622 63.9118 118.787 63.8963 118.926 63.8977C119.071 63.8992 119.159 63.9191 119.205 63.9431C119.23 63.9566 119.237 63.9641 119.24 63.9997C119.244 64.0606 119.223 64.1838 119.117 64.3986L119.018 64.5997L119.204 64.7213L119.205 64.7214L119.205 64.7214L119.205 64.7217L119.205 64.7219L119.206 64.7221L119.206 64.7227C119.209 64.7244 119.214 64.7277 119.22 64.7324C119.232 64.7418 119.25 64.7563 119.269 64.7749C119.31 64.8146 119.346 64.8603 119.363 64.9041C119.377 64.9395 119.38 64.9723 119.358 65.0164C119.332 65.0703 119.259 65.1638 119.06 65.2778L118.766 65.4476L119.016 65.6791C119.016 65.6793 119.016 65.6796 119.016 65.68C119.018 65.6817 119.022 65.6853 119.026 65.6905C119.036 65.7009 119.05 65.7175 119.066 65.7391C119.098 65.7837 119.129 65.8413 119.144 65.9044C119.158 65.9635 119.158 66.0298 119.125 66.1054C119.091 66.1839 119.012 66.2915 118.835 66.4136L118.687 66.5156L118.737 66.6876C118.737 66.6879 118.737 66.6884 118.737 66.6889C118.738 66.6919 118.739 66.6979 118.741 66.7063C118.743 66.7233 118.747 66.7491 118.747 66.78C118.748 66.8433 118.737 66.9158 118.698 66.9809C118.635 67.0879 118.415 67.3006 117.606 67.2154C117.118 67.1531 116.553 67.1969 116.01 67.2698C115.673 67.3151 115.327 67.3743 115.008 67.4289C114.917 67.4446 114.828 67.4599 114.742 67.4743L114.581 65.1252C114.598 65.1189 114.616 65.1121 114.635 65.1048C114.782 65.047 114.982 64.9563 115.198 64.8235C115.627 64.5593 116.133 64.1174 116.379 63.4216Z" fill="#FCBFAF" stroke="#E9B0A1" stroke-width="0.5"/>
<path d="M114.598 64.7865C113.973 64.8568 112.639 64.9271 112.584 64.9271L113.487 67.3156V68.3022C113.709 68.3585 114.876 67.9038 115.432 67.6694L114.598 64.7865Z" fill="#202937"/>
<ellipse rx="0.239601" ry="0.242501" transform="matrix(-1 0 0 1 120.186 65.1332)" fill="#3C4B64"/>
<ellipse rx="0.239601" ry="0.242501" transform="matrix(-1 0 0 1 120.345 68.0433)" fill="#3C4B64"/>
<path d="M118.386 43.2549C117.217 43.2549 113.986 39.7809 112.93 39.2822C112.93 42.3721 116.438 44.5791 118.386 43.2549Z" fill="#F1C09E"/>
<path d="M120.06 31.2232C120.06 31.2232 121.231 32.7298 121.348 34.4961C121.465 36.2625 121.172 36.5222 121.172 36.8339C121.114 37.0937 120.938 37.5613 121.172 38.2366C121.406 38.912 121.699 39.4835 121.406 39.6913C121.114 39.8991 120.714 39.7763 120.714 39.7763C120.714 39.7763 120.714 42.2517 120.714 42.6643C120.714 43.0769 119.591 43.5357 119.24 43.4837C118.83 43.4837 116.664 43.0681 115.61 42.3928C114.497 41.7174 113.56 40.9901 113.267 40.4706C112.975 39.951 112.155 38.1847 111.862 37.7171C111.569 37.1976 111.862 32.7298 112.565 32.5739C113.15 32.47 118.947 30.6517 120.06 31.2232Z" fill="#FCD1B3"/>
<path d="M116.937 33.4135C116.937 33.4135 118.463 33.782 119.124 33.6438C119.785 33.5517 120.904 33.4135 120.904 33.4135C120.904 33.4135 121.362 33.3674 121.515 33.091C121.667 32.8145 120.599 31.0178 119.48 30.2346C118.361 29.4514 115.564 29.1289 114.445 29.9121C113.326 30.6953 112.92 30.9256 112.92 30.9256C112.92 30.9256 110.987 31.5706 110.936 34.1045C110.885 36.5924 112.055 38.297 112.208 38.5273C112.36 38.7116 112.462 36.5002 112.97 36.5002C113.479 36.5002 114.039 36.8688 114.242 37.2834C114.445 37.6981 114.395 38.0666 114.395 38.0666L115.005 37.9745C115.005 37.9745 115.31 37.2834 115.615 36.9609C115.92 36.6384 116.378 35.7631 116.378 35.7631C116.378 35.7631 116.225 33.2752 116.937 33.4135Z" fill="#381C0C"/>
<path d="M179.923 39.9797C178.861 39.2327 178.333 40.6334 177.216 39.9798L177.262 40.0264L176.588 39.9798C175.621 40.9695 174.673 41.9842 173.743 43.0238C172.637 44.0781 171.825 45.4082 171.388 46.8803C171.34 47.0433 171.337 47.2164 171.38 47.381C171.422 47.5455 171.508 47.6953 171.628 47.8141C171.762 47.902 171.908 47.9682 172.062 48.0102C172.906 48.2432 173.577 47.6386 174.365 47.255C176.568 46.2549 178.249 43.3346 180.015 41.6699C180.169 41.5666 180.297 41.4283 180.388 41.2662C180.48 41.104 180.532 40.9225 180.542 40.7361C180.523 40.4466 180.209 40.1852 179.923 39.9797Z" fill="#FAC6B9"/>
<path d="M175.632 39.8635C174.837 40.8633 174.058 41.8883 173.294 42.9384C172.385 44.0034 171.718 45.3469 171.359 46.834C171.32 46.9986 171.317 47.1735 171.352 47.3397C171.387 47.506 171.457 47.6572 171.556 47.7772C171.666 47.866 171.787 47.9329 171.913 47.9753C172.606 48.2107 173.201 47.9698 173.848 47.5824L174.753 47.0584C176.036 44.9267 175.742 40.7079 175.787 38.0857L175.632 39.8635Z" fill="#EEB1A2"/>
<path d="M185.942 34.7324C186.469 36.8801 182.424 42.3799 181.629 42.4173C179.625 42.5013 176.365 40.0829 176.245 39.7654C176.153 39.5973 184.021 27.0381 185.942 34.7324Z" fill="#C54848"/>
<path d="M178.882 94.2416C179.59 94.9419 181.931 94.9326 183.109 93.3079C183.278 92.964 183.487 92.6497 183.73 92.3741C183.975 92.1687 184.273 92.0696 184.574 92.094C185.075 92.0286 186.166 91.6177 186.102 90.5906C186.09 89.941 185.954 89.3029 185.704 88.7231C185.466 88.2599 185.089 87.9185 184.647 87.7663C184.204 87.6141 183.729 87.6623 183.316 87.9013C181.74 90.1424 177.361 92.7383 178.882 94.2416Z" fill="#141414"/>
<path d="M193.005 93.3601C193.005 93.3601 193.005 93.3601 193.005 93.2974H189.497C189.497 94.0408 189.482 94.9722 189.497 96.2083C189.497 97.9996 189.086 100.069 190.197 100.91C190.388 101.043 190.602 101.124 190.823 101.149C191.043 101.173 191.266 101.141 191.475 101.054C192.195 100.648 192.782 99.9778 193.149 99.1438C193.516 98.3098 193.641 97.3578 193.507 96.4322C193.324 94.8558 192.928 94.1751 193.005 93.3601Z" fill="#141414"/>
<path d="M182.12 89.7608C182.876 90.2651 185.146 90.8729 185.997 90.2193C186.849 89.5656 186.648 80.0362 186.902 73.6492C186.998 71.2868 187.375 68.7216 187.375 68.7216C187.439 65.9203 187.495 63.231 187.527 59.6174C187.527 58.777 187.765 56.5639 187.765 56.2278L181.182 58.6276C180.816 66.4152 182.199 70.1025 182.12 74.4352C182.12 83.3424 181.594 89.4153 182.12 89.7608Z" fill="#024670"/>
<path d="M181.182 58.6274C181.134 59.6919 181.102 60.6817 181.079 61.6061C181.079 62.2224 185.234 62.4185 185.807 64.977C187.153 71.1119 186.388 79.6688 185.712 86.0932C185.576 87.4471 185.544 89.0614 185.472 90.4341C185.657 90.3992 185.834 90.3265 185.997 90.2193C186.708 89.4334 186.648 79.6433 186.902 73.2563C186.998 70.8939 187.419 68.4097 187.419 68.4097C187.483 65.6084 187.503 63.2589 187.535 59.6452C187.535 58.8048 187.774 56.5918 187.774 56.2556L181.182 58.6274Z" fill="#023150"/>
<path d="M184.834 58.6272C188.815 70.2806 187.241 63.1997 188.841 78.1026C189.478 83.9574 189.12 90.2657 189.359 94.8692C190.744 95.2792 191.356 95.5342 192.784 95.4586C193.013 95.455 193.242 95.4332 193.468 95.3933C193.468 95.2719 193.664 88.8801 193.712 88.3852C194.066 84.0753 194.545 79.6064 193.712 75.3883C194.031 70.7195 194.309 62.6517 194.508 58.6272H184.834Z" fill="#065584"/>
<path d="M194.096 77.7736C194.036 76.1594 194.007 74.5428 194.078 72.9291C194.282 68.2567 194.34 62.019 194.507 58.6272H185.122C185.623 60.0932 186.021 61.2604 186.34 62.2129C187.932 64.9115 191.227 62.7171 192.382 63.9497C193.281 64.8834 192.692 67.7594 192.74 69.4122C192.859 74.744 192.922 79.7694 193.041 85.1105C193.105 88.5094 192.912 92.0502 192.768 95.4585C192.99 95.4506 193.21 95.4288 193.429 95.3931C193.429 95.2717 193.663 89.1421 193.711 88.6472C194 85.1243 194.233 81.4093 194.096 77.7736Z" fill="#033E65"/>
<path d="M173.719 35.5316C173.322 37.7628 170.76 46.269 171.187 47.3283C171.281 47.5185 171.406 47.6828 171.555 47.8109C171.703 47.9391 171.871 48.0284 172.049 48.0732C172.226 48.1181 172.409 48.1176 172.587 48.0717C172.764 48.0257 172.932 47.9355 173.079 47.8064C174.903 46.1002 176.009 40.7727 175.864 35.3165L173.719 35.5316Z" fill="#FBBEAE"/>
<path d="M187.032 37.4308C195.305 32.2567 189.996 32.9117 189.811 32.2567C189.335 30.5665 189.94 27.2792 189.94 27.2792L186.773 27.5609C186.64 27.5609 186.167 30.4836 186.192 31.7983C180.892 30.9469 186.093 37.7407 187.032 37.4308Z" fill="#FBBEAE"/>
<path d="M180.189 59.306C180.754 60.0682 181.79 60.5709 182.702 60.8124C189.359 62.5761 190.024 62.2947 194.041 59.6335C194.345 59.4444 194.63 59.2255 194.891 58.9799C194.725 55.1888 193.903 48.531 193.82 46.4394C193.635 41.8732 195.886 37.3988 195.886 36.1866C195.607 35.9561 195.692 35.5971 194.852 34.8767C194.4 34.5492 194.114 34.3243 193.753 34.1562C192.775 33.652 192.471 33.3782 190.781 32.6499C189.811 35.0732 185.869 35.6626 185.739 31.7329C184.641 31.6019 182.589 31.8828 182.285 31.9586C181.988 32.0127 181.706 32.1328 181.46 32.3105C181.214 32.4881 181.01 32.7188 180.863 32.9858C179.524 35.5723 180.023 41.6138 180.078 44.966C180.327 47.4365 180.577 52.3797 180.189 57.4018C180.191 57.9299 180.264 58.7835 180.189 59.306Z" fill="#B54646"/>
<path d="M186.398 47.3162C184.33 48.7571 183.167 47.5127 182.585 46.6492L195.638 36.8051C195.13 39.7931 193.902 46.2361 194.041 49.6724C194.191 50.8749 194.787 54.4083 194.89 59.0454C194.629 59.291 194.344 59.5099 194.041 59.699C193.534 60.0582 192.996 60.3707 192.434 60.6328C192.571 55.362 192.518 53.256 191.834 48.0289C191.723 47.5714 191.457 43.8509 190.229 44.581C188.659 45.5148 189.579 45.1 186.398 47.3162Z" fill="#A23838"/>
<path d="M185.087 15.7819C185.087 15.7819 183.876 17.6 183.773 20.3142C183.671 23.0284 183.382 26.0224 184.043 27.4685C184.638 28.8307 186.001 30.1373 186.751 30.2311C187.501 30.3248 188.428 30.2134 189.365 30.0274C190.217 29.9067 191.273 29.357 191.964 28.6858C192.58 28.0053 193.042 26.0934 193.31 25.1422C193.578 24.191 194.183 22.9788 193.897 21.5795C193.61 20.1802 192.522 17.2414 191.854 16.4761C191.036 15.6921 187.96 14.7016 185.087 15.7819Z" fill="#FBBEAE"/>
<path d="M191.217 17.4099C191.217 17.4099 189.566 16.8947 188.291 17.1214C186.94 17.3385 185.902 16.9 185.331 17.7549C184.759 18.6098 184.117 18.7612 184.033 19.4455C183.95 20.1299 183.688 21.6411 183.688 21.6411C183.688 21.6411 183.194 20.5758 183.407 18.8269C183.621 17.0781 183.299 15.8799 185.748 14.3332C188.205 12.7105 191.358 14.3396 192.109 15.2055C193.261 15.3494 194.583 17.2902 194.714 18.7733C194.844 20.2564 194.671 22.319 194.169 23.8774C193.65 23.6582 193.427 22.9355 193.427 22.9355C193.427 22.9355 192.921 21.3284 192.516 20.8146C192.112 20.3008 191.83 19.4164 191.981 18.8177C191.901 18.1902 191.668 17.5435 191.217 17.4099Z" fill="#81411C"/>
<path d="M194.896 23.7191C194.8 25.0819 194.702 26.3108 194.277 26.6447C194.138 26.6533 193.889 26.6645 193.723 26.6447C193.174 26.3731 192.855 25.2342 192.971 23.58C193.088 21.9258 193.588 20.7865 194.144 20.6544C194.215 20.6595 194.558 20.6046 194.621 20.6544C195.033 20.9791 194.997 22.2849 194.896 23.7191Z" fill="#363641"/>
<ellipse rx="0.964806" ry="3.0026" transform="matrix(0.9974 0.0720675 -0.0701855 0.997534 194.413 23.6491)" fill="#17171E"/>
<path d="M195.28 23.6836C195.199 24.8423 195.08 25.8312 194.781 26.0394C194.737 26.07 194.586 26.0809 194.487 26.0445C194.143 25.8793 193.939 24.9222 194.033 23.5935C194.107 22.5357 194.305 21.8698 194.558 21.4964C194.673 21.3276 194.868 21.2139 195.07 21.2402C195.351 21.4556 195.364 22.4942 195.28 23.6836Z" fill="#FEC02F"/>
<ellipse rx="0.697705" ry="2.41186" transform="matrix(0.9974 0.0720675 -0.0701855 0.997534 194.865 23.6439)" fill="#FC9B0D"/>
<path d="M195.599 23.677C195.543 24.4679 195.447 25.1257 195.219 25.2293C195.195 25.2404 195.053 25.2311 195.029 25.2293C194.776 25.211 194.62 24.4863 194.682 23.6107C194.743 22.7351 194.999 22.0401 195.252 22.0584C195.272 22.0598 195.428 22.0489 195.447 22.0585C195.666 22.1733 195.656 22.8692 195.599 23.677Z" fill="#424242"/>
<ellipse rx="0.459777" ry="1.58938" transform="matrix(0.9974 0.0720675 -0.0701855 0.997534 195.278 23.644)" fill="black"/>
<path d="M193.808 16.4239C193.18 15.4132 192.306 14.5605 191.162 14.0253C193.475 14.9744 195.154 17.4302 195.154 20.3673V21.7667C195.154 21.7676 195.153 21.7685 195.152 21.7688C195.151 21.7692 195.151 21.7694 195.15 21.7695C195.149 21.7693 195.144 21.768 195.137 21.7628C195.122 21.7509 195.115 21.7345 195.115 21.7192C195.174 19.9712 194.792 18.0079 193.808 16.4239Z" fill="black" stroke="black"/>
<path d="M183.328 19.6753C183.436 17.5948 183.477 15.5853 185.548 14.3875C183.014 16.9528 183.716 19.0008 183.647 19.8388C183.515 19.9457 183.319 19.8447 183.328 19.6753Z" fill="black"/>
<rect width="0.510163" height="4.82511" rx="0.255081" transform="matrix(0.999448 -0.0332184 0.0324992 0.999472 183.172 19.5349)" fill="#363641"/>
<rect width="0.170132" height="3.96349" rx="0.085066" transform="matrix(0.999447 -0.033243 0.0324753 0.999473 183.014 19.8851)" fill="#FEC02F"/>
<path d="M195.103 21.4767C195.103 21.3889 195.148 21.313 195.212 21.2946C195.401 21.2398 195.614 21.2987 195.627 21.4954C195.64 21.7017 195.582 21.9261 195.585 21.9513L195.516 22.7627L195.405 22.8341H195.27C195.172 22.8341 195.103 22.7706 195.103 22.652V21.4767Z" fill="#B6A7A7"/>
<path d="M195.213 21.4804C195.213 21.3884 195.274 21.3074 195.362 21.2818C195.494 21.2435 195.626 21.3427 195.626 21.4804V22.6062C195.626 22.6983 195.566 22.7792 195.477 22.8048C195.345 22.8431 195.213 22.7439 195.213 22.6062V21.4804Z" fill="#E6D1D1"/>
<path d="M179.843 35.2583L179.275 34.7806L179.072 35.4875L179.843 35.2583Z" fill="#1B1B1B"/>
<path d="M182.729 34.5625C182.729 34.5625 182.901 35.6823 182.481 35.9732C182.061 36.2642 173.296 38.3702 173.296 38.3702C173.296 38.3702 173.612 37.7613 173.296 36.8075L182.729 34.5625Z" fill="#0A0A0A"/>
<path d="M173.296 38.3701L170.236 37.0065L173.296 36.8074C173.461 37.0938 173.551 37.4173 173.559 37.7481C173.555 38.2644 173.296 38.3701 173.296 38.3701Z" fill="#1B1B1B"/>
<path d="M179.843 35.2584L176.719 33.0467L175.362 28.0413C175.362 28.0413 177.876 27.9486 178.966 28.9357C180.055 29.9227 180.578 30.6103 180.411 32.8483C180.245 35.0864 179.843 35.2584 179.843 35.2584Z" fill="#0A0A0A"/>
<path d="M173.297 36.8074L171.898 37.471C171.898 37.471 172.897 34.6481 172.122 32.9842C171.632 31.9427 171.057 30.944 170.403 29.9984L171.131 30.0679C171.131 30.0679 173.089 30.6374 173.559 33.5105C173.939 35.8581 173.297 36.8074 173.297 36.8074Z" fill="#0A0A0A"/>
<path d="M179.711 29.8293C179.711 29.8293 180.247 32.1599 180.131 33.1393C180.016 34.1186 179.843 35.2584 179.843 35.2584L183.029 34.4906C183.029 34.4906 183.637 33.4179 183.518 31.5503C183.4 29.6827 183.019 28.9357 183.019 28.9357L179.711 29.8293Z" fill="#2B2B2B"/>
<path d="M175.362 28.0411C175.362 28.0411 178.887 28.6971 179.714 29.8292L183.022 28.9355C183.022 28.9355 182.716 28.3297 181.408 27.7833C179.535 27 179.202 27.0888 178.71 27.1876C178.218 27.2863 175.362 28.0411 175.362 28.0411Z" fill="#333333"/>
<path d="M173.297 36.8074C173.297 36.8074 173.822 35.3411 173.455 33.4573C173.087 31.5735 172.073 30.5047 171.127 30.0702L178.373 29.2622C178.373 29.2622 179.699 30.3017 179.817 32.0991C179.936 33.8964 179.195 35.4059 179.195 35.4059L173.297 36.8074Z" fill="#2B2B2B"/>
<path d="M175.985 29.6573C175.985 29.6573 179.227 28.6888 179.553 28.181C180.116 27.3066 179.252 26.4129 179.094 26.2516C178.937 26.0904 178.241 25.6157 177.664 25.6952C177.086 25.7747 175.865 26.2254 175.865 26.2254L174.35 25.2538L179.093 24.019L179.193 24.986L179.829 25.98H180.315V26.6946L181.132 27.667L181.79 27.968L175.985 29.6573Z" fill="#2B2B2B"/>
<path d="M177.664 25.6976C177.664 25.6976 178.353 26.288 178.412 26.7641C178.472 27.2403 178.399 27.9943 177.664 28.2952C176.929 28.5962 175.866 28.8354 175.866 28.8354L175.986 29.6566C175.986 29.6566 179.331 28.8748 179.829 28.1803C180.328 27.4857 179.66 26.4053 179.195 26.0966C178.386 25.5525 177.664 25.6976 177.664 25.6976Z" fill="#0A0A0A"/>
<path d="M173.136 24.8348L178.189 23.5792L179.095 24.016L174.35 25.2539L173.136 24.8348Z" fill="#333333"/>
<path d="M170.742 37.8067L169.778 38.0869C169.778 38.0869 170.898 35.4977 170.313 33.7938C169.729 32.0898 168.085 30.1473 168.085 30.1473L169.075 30.0802C169.075 30.0802 171.488 31.0943 171.696 33.793C171.905 36.4917 170.742 37.8067 170.742 37.8067Z" fill="#0A0A0A"/>
<path d="M174.947 25.9761L175.013 30.5841L175.986 30.3471L175.866 25.777L174.947 25.9761Z" fill="#0A0A0A"/>
<path d="M175.867 25.7771L171.495 24.2676L170.747 24.4266L174.948 25.9762L175.867 25.7771Z" fill="#333333"/>
<path d="M170.747 24.4264V28.9356L175.014 30.584L174.948 25.976L170.747 24.4264Z" fill="#2B2B2B"/>
<path d="M182.629 22.2417C182.629 22.2417 182.668 21.8844 183.285 21.3928C183.902 20.9012 184.148 20.7322 184.148 20.7322C184.148 20.7322 185.697 21.4074 186.182 22.9432C186.667 24.4789 186.288 25.8696 185.631 26.2006C184.975 26.5317 184.581 26.3727 184.407 26.2006C184.234 26.0285 183.629 25.459 183.629 25.459L182.629 22.2417Z" fill="#0A0A0A"/>
<path d="M181.116 22.7728C181.116 22.7728 181.193 22.5467 181.562 22.4402C181.932 22.3337 182.769 22.2418 182.769 22.2418C182.769 22.2418 184.056 22.427 184.266 23.6718C184.475 24.9166 183.794 25.4067 183.794 25.4067L182.952 25.6799C182.952 25.6799 182.519 25.7115 182.204 25.5255C181.889 25.3395 181.116 22.7728 181.116 22.7728Z" fill="#333333"/>
<path d="M181.024 22.8245C181.223 22.7046 181.45 22.6407 181.681 22.6393C182.063 22.6393 182.941 22.8909 183.111 24.016C183.282 25.1412 182.836 25.6583 182.206 25.5255L181.024 22.8245Z" fill="#2B2B2B"/>
<path d="M178.192 23.5792C178.648 23.3625 179.122 23.1896 179.61 23.0629C180.292 22.904 180.752 22.8245 181.028 22.8245C181.303 22.8245 182.104 23.3539 182.275 24.0955C182.373 24.5701 182.35 25.0621 182.209 25.5255L180.315 25.9801H179.829L179.195 24.983L179.094 24.016L178.192 23.5792Z" fill="#0A0A0A"/>
<path d="M166.812 30.3959L165.966 30.5548L164.911 30.7532L166.86 38.6734L168.543 38.4465C168.543 38.4465 169.791 36.6909 169.468 33.7814C169.174 31.1506 166.812 30.3959 166.812 30.3959Z" fill="#0A0A0A"/>
<path d="M171.895 37.471L170.6 37.8569C172.114 35.0694 171.547 32.0542 169.076 30.0763L170.4 29.9945C172.87 31.9771 173.41 34.6835 171.895 37.471Z" fill="#2B2B2B"/>
<path d="M169.568 30.3958C169.559 30.3958 169.551 30.3927 169.544 30.3871C169.537 30.3814 169.532 30.3736 169.53 30.3649C169.529 30.3549 169.531 30.3446 169.536 30.3361C169.542 30.3276 169.55 30.3216 169.56 30.3194L170.42 30.1473C170.425 30.1463 170.43 30.1462 170.435 30.1472C170.44 30.1482 170.445 30.1501 170.449 30.1529C170.453 30.1557 170.457 30.1593 170.46 30.1635C170.462 30.1677 170.464 30.1724 170.465 30.1774C170.467 30.1874 170.465 30.1977 170.459 30.2062C170.454 30.2147 170.445 30.2207 170.435 30.2229L169.576 30.3973L169.568 30.3958Z" fill="#0A0A0A"/>
<path d="M169.849 30.6157C169.84 30.6159 169.832 30.6128 169.825 30.6072C169.818 30.6015 169.813 30.5936 169.812 30.5848C169.811 30.5799 169.811 30.5748 169.812 30.5698C169.813 30.5648 169.815 30.5601 169.817 30.5558C169.82 30.5516 169.824 30.548 169.828 30.5451C169.832 30.5423 169.837 30.5403 169.842 30.5393L170.701 30.3649C170.711 30.3629 170.721 30.365 170.73 30.3707C170.739 30.3765 170.745 30.3855 170.747 30.3958C170.749 30.406 170.747 30.4166 170.741 30.4253C170.735 30.434 170.726 30.44 170.716 30.4421L169.854 30.6149L169.849 30.6157Z" fill="#0A0A0A"/>
<path d="M170.112 30.8511C170.104 30.8509 170.095 30.8477 170.088 30.8419C170.081 30.8362 170.077 30.8283 170.075 30.8195C170.074 30.8145 170.074 30.8094 170.075 30.8044C170.076 30.7994 170.078 30.7947 170.081 30.7905C170.083 30.7862 170.087 30.7826 170.091 30.7798C170.095 30.7769 170.1 30.7749 170.105 30.7739L170.965 30.5995C170.97 30.5985 170.975 30.5985 170.98 30.5995C170.984 30.6004 170.989 30.6024 170.993 30.6052C170.997 30.608 171.001 30.6116 171.004 30.6158C171.006 30.62 171.008 30.6247 171.009 30.6296C171.01 30.6346 171.01 30.6397 171.009 30.6447C171.008 30.6497 171.006 30.6544 171.004 30.6586C171.001 30.6629 170.997 30.6665 170.993 30.6693C170.989 30.6722 170.984 30.6741 170.979 30.6752L170.12 30.8503L170.112 30.8511Z" fill="#0A0A0A"/>
<path d="M170.357 31.0996C170.348 31.0996 170.34 31.0964 170.333 31.0907C170.326 31.0849 170.321 31.0769 170.32 31.068C170.319 31.0631 170.319 31.058 170.319 31.053C170.32 31.048 170.322 31.0433 170.325 31.0391C170.328 31.0349 170.332 31.0314 170.336 31.0286C170.34 31.0259 170.345 31.0241 170.35 31.0232L171.209 30.8481C171.214 30.8471 171.219 30.847 171.224 30.848C171.229 30.849 171.234 30.8509 171.238 30.8537C171.242 30.8565 171.246 30.8601 171.248 30.8643C171.251 30.8685 171.253 30.8732 171.254 30.8782C171.255 30.8831 171.255 30.8882 171.254 30.8932C171.253 30.8982 171.251 30.9029 171.248 30.9072C171.246 30.9114 171.242 30.915 171.238 30.9179C171.234 30.9207 171.229 30.9227 171.224 30.9237L170.365 31.0989L170.357 31.0996Z" fill="#0A0A0A"/>
<path d="M170.584 31.3605C170.574 31.3615 170.563 31.3585 170.556 31.3519C170.548 31.3454 170.543 31.336 170.542 31.3258C170.541 31.3156 170.544 31.3053 170.55 31.2974C170.557 31.2894 170.566 31.2844 170.576 31.2833L171.436 31.1082C171.446 31.1063 171.456 31.1086 171.465 31.1143C171.473 31.1201 171.479 31.129 171.481 31.139C171.483 31.1492 171.481 31.1596 171.475 31.1681C171.469 31.1766 171.461 31.1825 171.451 31.1846L170.591 31.359L170.584 31.3605Z" fill="#0A0A0A"/>
<path d="M170.79 31.6338C170.781 31.6338 170.772 31.6307 170.765 31.6251C170.759 31.6195 170.754 31.6116 170.752 31.6029C170.75 31.5928 170.752 31.5824 170.758 31.5739C170.764 31.5654 170.773 31.5595 170.783 31.5574L171.642 31.3822C171.652 31.3804 171.662 31.3826 171.671 31.3884C171.679 31.3942 171.685 31.4031 171.687 31.4132C171.689 31.4233 171.687 31.4338 171.681 31.4425C171.676 31.4511 171.667 31.4572 171.657 31.4594L170.797 31.6338H170.79Z" fill="#0A0A0A"/>
<path d="M170.978 31.9175C170.969 31.9176 170.961 31.9146 170.954 31.909C170.947 31.9033 170.942 31.8954 170.941 31.8866C170.94 31.8816 170.94 31.8765 170.941 31.8715C170.942 31.8666 170.944 31.8618 170.946 31.8576C170.949 31.8534 170.953 31.8497 170.957 31.8469C170.961 31.8441 170.966 31.8421 170.971 31.8411L171.83 31.6667C171.835 31.6657 171.84 31.6656 171.845 31.6666C171.85 31.6676 171.855 31.6695 171.859 31.6723C171.863 31.6751 171.867 31.6787 171.869 31.6829C171.872 31.6871 171.874 31.6918 171.875 31.6968C171.876 31.7017 171.876 31.7068 171.875 31.7118C171.874 31.7168 171.872 31.7215 171.869 31.7258C171.866 31.73 171.863 31.7336 171.859 31.7365C171.855 31.7393 171.85 31.7413 171.845 31.7423L170.986 31.9167L170.978 31.9175Z" fill="#0A0A0A"/>
<path d="M171.146 32.2118C171.137 32.212 171.129 32.2089 171.122 32.2033C171.115 32.1976 171.11 32.1897 171.109 32.1809C171.108 32.176 171.108 32.1709 171.109 32.1659C171.11 32.1609 171.111 32.1562 171.114 32.1519C171.117 32.1477 171.121 32.1441 171.125 32.1412C171.129 32.1384 171.134 32.1364 171.139 32.1354L171.996 31.9602C172.001 31.9592 172.006 31.9592 172.011 31.9602C172.016 31.9612 172.021 31.9632 172.025 31.9661C172.029 31.969 172.033 31.9727 172.036 31.977C172.038 31.9813 172.04 31.9861 172.041 31.9911C172.042 31.996 172.042 32.0011 172.042 32.0061C172.041 32.0111 172.039 32.0158 172.036 32.02C172.033 32.0242 172.03 32.0277 172.025 32.0305C172.021 32.0332 172.016 32.035 172.011 32.0359L171.155 32.211L171.146 32.2118Z" fill="#0A0A0A"/>
<path d="M171.295 32.5143C171.286 32.5143 171.278 32.5112 171.271 32.5056C171.264 32.5 171.259 32.4921 171.257 32.4834C171.256 32.4734 171.258 32.4631 171.263 32.4546C171.269 32.4461 171.277 32.4401 171.287 32.4379L172.15 32.2635C172.154 32.2625 172.159 32.2624 172.164 32.2634C172.169 32.2644 172.174 32.2663 172.178 32.2691C172.182 32.2719 172.186 32.2755 172.189 32.2797C172.192 32.2839 172.194 32.2886 172.195 32.2936C172.196 32.3036 172.194 32.3139 172.189 32.3224C172.183 32.3309 172.175 32.3369 172.165 32.3391L171.305 32.5135L171.295 32.5143Z" fill="#0A0A0A"/>
<path d="M171.424 32.825C171.419 32.8255 171.414 32.8249 171.409 32.8234C171.404 32.8219 171.4 32.8194 171.396 32.8162C171.392 32.8129 171.389 32.8089 171.386 32.8044C171.384 32.7999 171.382 32.795 171.382 32.7899C171.382 32.7848 171.382 32.7797 171.384 32.7749C171.385 32.77 171.388 32.7655 171.391 32.7616C171.394 32.7577 171.398 32.7545 171.402 32.7521C171.407 32.7498 171.412 32.7483 171.417 32.7478L172.276 32.5727C172.281 32.5716 172.286 32.5716 172.291 32.5726C172.296 32.5737 172.301 32.5756 172.305 32.5785C172.309 32.5814 172.313 32.5851 172.316 32.5894C172.319 32.5936 172.321 32.5985 172.322 32.6035C172.323 32.6086 172.323 32.6138 172.322 32.6189C172.321 32.624 172.319 32.6288 172.316 32.6331C172.313 32.6374 172.31 32.6411 172.305 32.6439C172.301 32.6468 172.296 32.6488 172.291 32.6498L171.431 32.825H171.424Z" fill="#0A0A0A"/>
<path d="M171.533 33.1424C171.524 33.1425 171.515 33.1395 171.508 33.1339C171.501 33.1282 171.497 33.1203 171.495 33.1115C171.494 33.1065 171.494 33.1014 171.495 33.0964C171.496 33.0914 171.498 33.0866 171.5 33.0823C171.503 33.0781 171.507 33.0744 171.511 33.0716C171.515 33.0688 171.52 33.0669 171.525 33.066L172.384 32.8908C172.389 32.8898 172.394 32.8898 172.399 32.8907C172.404 32.8917 172.409 32.8936 172.413 32.8964C172.417 32.8992 172.421 32.9028 172.423 32.907C172.426 32.9112 172.428 32.9159 172.429 32.9209C172.43 32.9259 172.43 32.931 172.429 32.936C172.429 32.941 172.427 32.9458 172.424 32.9501C172.421 32.9543 172.417 32.958 172.413 32.9608C172.409 32.9636 172.404 32.9655 172.399 32.9664L171.537 33.1416L171.533 33.1424Z" fill="#0A0A0A"/>
<path d="M171.62 33.4656C171.61 33.4666 171.6 33.4634 171.592 33.4568C171.585 33.4502 171.58 33.4408 171.579 33.4305C171.578 33.4203 171.581 33.4101 171.588 33.4022C171.594 33.3943 171.603 33.3894 171.614 33.3885L172.473 33.2133C172.483 33.2112 172.493 33.2133 172.502 33.2191C172.511 33.2249 172.517 33.2339 172.519 33.2442C172.521 33.2544 172.519 33.265 172.513 33.2737C172.507 33.2824 172.498 33.2884 172.488 33.2905L171.628 33.4656H171.62Z" fill="#0A0A0A"/>
<path d="M171.69 33.7936C171.685 33.794 171.68 33.7935 171.675 33.792C171.67 33.7904 171.666 33.788 171.662 33.7847C171.654 33.7781 171.649 33.7687 171.648 33.7585C171.647 33.7482 171.65 33.738 171.657 33.7302C171.663 33.7223 171.673 33.7173 171.683 33.7164L172.541 33.5428C172.546 33.5417 172.551 33.5417 172.556 33.5427C172.561 33.5437 172.566 33.5457 172.57 33.5486C172.574 33.5515 172.578 33.5552 172.581 33.5594C172.583 33.5637 172.585 33.5686 172.586 33.5736C172.587 33.5787 172.587 33.5839 172.586 33.589C172.585 33.594 172.583 33.5989 172.581 33.6032C172.578 33.6075 172.574 33.6112 172.57 33.614C172.566 33.6169 172.561 33.6189 172.556 33.6199L171.696 33.7951L171.69 33.7936Z" fill="#0A0A0A"/>
<path d="M171.736 34.1255C171.727 34.1255 171.719 34.1222 171.712 34.1165C171.705 34.1107 171.701 34.1027 171.699 34.0939C171.698 34.0889 171.698 34.0838 171.699 34.0789C171.7 34.0739 171.702 34.0692 171.704 34.065C171.707 34.0608 171.711 34.0572 171.715 34.0545C171.719 34.0518 171.724 34.0499 171.729 34.0491L172.588 33.8739C172.598 33.8719 172.609 33.874 172.617 33.8798C172.626 33.8856 172.632 33.8946 172.634 33.9048C172.636 33.915 172.634 33.9257 172.628 33.9343C172.622 33.943 172.614 33.9491 172.603 33.9511L171.744 34.1263L171.736 34.1255Z" fill="#0A0A0A"/>
<path d="M171.737 34.4599C171.728 34.46 171.719 34.457 171.712 34.4514C171.705 34.4457 171.701 34.4378 171.699 34.429C171.698 34.424 171.698 34.4189 171.699 34.414C171.7 34.409 171.702 34.4042 171.705 34.4C171.707 34.3958 171.711 34.3921 171.715 34.3893C171.719 34.3865 171.724 34.3845 171.729 34.3835L172.588 34.2083C172.593 34.2073 172.598 34.2073 172.603 34.2082C172.608 34.2092 172.613 34.2111 172.617 34.2139C172.621 34.2167 172.625 34.2203 172.627 34.2245C172.63 34.2287 172.632 34.2334 172.633 34.2384C172.634 34.2434 172.634 34.2485 172.633 34.2535C172.633 34.2585 172.631 34.2633 172.628 34.2676C172.625 34.2718 172.621 34.2755 172.617 34.2783C172.613 34.2811 172.608 34.283 172.603 34.2839L171.743 34.4591L171.737 34.4599Z" fill="#0A0A0A"/>
<path d="M171.716 34.7962C171.706 34.7972 171.696 34.7942 171.688 34.7876C171.68 34.7811 171.675 34.7717 171.674 34.7615C171.673 34.7513 171.676 34.741 171.683 34.7331C171.689 34.7251 171.698 34.7201 171.708 34.7191L172.568 34.5462C172.578 34.5443 172.589 34.5464 172.597 34.5521C172.605 34.5577 172.611 34.5664 172.613 34.5763C172.614 34.5812 172.615 34.5864 172.614 34.5913C172.613 34.5963 172.611 34.6011 172.608 34.6053C172.605 34.6095 172.602 34.6131 172.597 34.616C172.593 34.6188 172.589 34.6208 172.584 34.6218L171.724 34.797L171.716 34.7962Z" fill="#0A0A0A"/>
<path d="M171.738 35.1334C171.727 35.1344 171.717 35.1313 171.709 35.1248C171.702 35.1183 171.697 35.1089 171.696 35.0987C171.694 35.0884 171.698 35.0782 171.704 35.0702C171.71 35.0623 171.72 35.0572 171.73 35.0562L172.589 34.881C172.594 34.88 172.599 34.88 172.604 34.881C172.609 34.8819 172.614 34.8839 172.618 34.8866C172.622 34.8894 172.626 34.893 172.628 34.8972C172.631 34.9014 172.633 34.9062 172.634 34.9111C172.635 34.9161 172.635 34.9212 172.634 34.9263C172.634 34.9313 172.632 34.9361 172.629 34.9403C172.626 34.9446 172.622 34.9482 172.618 34.951C172.614 34.9538 172.609 34.9557 172.604 34.9567L171.744 35.1326L171.738 35.1334Z" fill="#0A0A0A"/>
<path d="M171.69 35.4724C171.682 35.4724 171.673 35.4694 171.666 35.4637C171.659 35.4581 171.655 35.4503 171.653 35.4416C171.651 35.4314 171.653 35.421 171.659 35.4125C171.665 35.404 171.674 35.3981 171.684 35.396L172.543 35.2208C172.553 35.219 172.563 35.2212 172.572 35.227C172.58 35.2328 172.586 35.2417 172.588 35.2519C172.59 35.262 172.588 35.2725 172.582 35.2811C172.577 35.2897 172.568 35.2958 172.558 35.298L171.697 35.4724H171.69Z" fill="#0A0A0A"/>
<path d="M171.621 35.8056C171.612 35.8056 171.603 35.8025 171.596 35.7969C171.59 35.7912 171.585 35.7834 171.583 35.7747C171.581 35.7646 171.584 35.7541 171.589 35.7456C171.595 35.7371 171.604 35.7312 171.614 35.7292L172.473 35.554C172.478 35.553 172.483 35.553 172.488 35.554C172.493 35.555 172.498 35.557 172.502 35.5599C172.506 35.5627 172.51 35.5664 172.512 35.5707C172.515 35.575 172.517 35.5798 172.518 35.5848C172.519 35.5898 172.519 35.5949 172.518 35.5998C172.517 35.6048 172.515 35.6095 172.513 35.6137C172.51 35.6179 172.506 35.6215 172.502 35.6242C172.498 35.6269 172.493 35.6288 172.488 35.6296L171.628 35.8048L171.621 35.8056Z" fill="#0A0A0A"/>
<path d="M171.532 36.1391C171.524 36.1393 171.515 36.1363 171.508 36.1306C171.501 36.125 171.497 36.1171 171.495 36.1083C171.494 36.1033 171.494 36.0982 171.495 36.0932C171.496 36.0882 171.498 36.0835 171.5 36.0793C171.503 36.0751 171.507 36.0714 171.511 36.0686C171.515 36.0657 171.52 36.0638 171.525 36.0627L172.384 35.8883C172.389 35.8873 172.394 35.8873 172.399 35.8883C172.404 35.8893 172.409 35.8913 172.413 35.8942C172.417 35.897 172.421 35.9007 172.424 35.905C172.427 35.9093 172.429 35.9141 172.43 35.9192C172.431 35.9243 172.431 35.9295 172.43 35.9346C172.429 35.9396 172.427 35.9445 172.424 35.9488C172.421 35.9531 172.417 35.9567 172.413 35.9596C172.409 35.9625 172.404 35.9645 172.399 35.9655L171.537 36.1384L171.532 36.1391Z" fill="#0A0A0A"/>
<path d="M171.465 36.4693C171.456 36.4695 171.448 36.4665 171.441 36.4608C171.434 36.4551 171.429 36.4472 171.428 36.4384C171.427 36.4335 171.426 36.4284 171.427 36.4234C171.428 36.4184 171.43 36.4137 171.433 36.4094C171.436 36.4052 171.439 36.4016 171.444 36.3987C171.448 36.3959 171.452 36.3939 171.457 36.3929L172.317 36.2177C172.327 36.2158 172.338 36.218 172.346 36.2238C172.355 36.2297 172.361 36.2388 172.363 36.249C172.365 36.2592 172.363 36.2698 172.357 36.2784C172.351 36.287 172.342 36.293 172.332 36.2949L171.473 36.4693H171.465Z" fill="#0A0A0A"/>
<path d="M171.32 36.7957C171.312 36.7956 171.303 36.7924 171.296 36.7868C171.29 36.7812 171.285 36.7735 171.283 36.7648C171.282 36.7599 171.282 36.7547 171.283 36.7498C171.284 36.7448 171.286 36.7401 171.289 36.7358C171.291 36.7316 171.295 36.728 171.299 36.7251C171.303 36.7223 171.308 36.7203 171.313 36.7193L172.173 36.5441C172.183 36.5423 172.193 36.5444 172.201 36.55C172.21 36.5556 172.216 36.5643 172.218 36.5742C172.219 36.5792 172.219 36.5843 172.218 36.5893C172.217 36.5942 172.215 36.599 172.212 36.6032C172.21 36.6074 172.206 36.6111 172.202 36.6139C172.198 36.6167 172.193 36.6187 172.188 36.6197L171.328 36.7949L171.32 36.7957Z" fill="#0A0A0A"/>
<path d="M171.166 37.116C171.157 37.1161 171.148 37.1131 171.141 37.1074C171.134 37.1018 171.13 37.0939 171.128 37.0851C171.127 37.0801 171.127 37.075 171.128 37.07C171.129 37.0651 171.131 37.0603 171.134 37.0561C171.137 37.0519 171.14 37.0482 171.144 37.0454C171.148 37.0426 171.153 37.0406 171.158 37.0396L172.018 36.8651C172.023 36.8641 172.028 36.8641 172.033 36.8651C172.038 36.8661 172.042 36.868 172.046 36.8708C172.051 36.8736 172.054 36.8772 172.057 36.8814C172.06 36.8856 172.061 36.8903 172.062 36.8952C172.063 36.9002 172.063 36.9053 172.062 36.9103C172.061 36.9153 172.06 36.92 172.057 36.9242C172.054 36.9285 172.05 36.9321 172.046 36.9349C172.042 36.9378 172.037 36.9398 172.032 36.9408L171.173 37.1152L171.166 37.116Z" fill="#0A0A0A"/>
<path d="M171.033 37.431C171.023 37.432 171.013 37.4289 171.005 37.4224C170.997 37.4159 170.992 37.4065 170.991 37.3963C170.99 37.386 170.993 37.3758 171 37.3678C171.006 37.3599 171.016 37.3548 171.026 37.3538L171.886 37.1786C171.896 37.1768 171.906 37.1789 171.914 37.1845C171.923 37.1901 171.929 37.1988 171.931 37.2087C171.932 37.2137 171.932 37.2188 171.931 37.2238C171.93 37.2288 171.928 37.2335 171.925 37.2377C171.923 37.242 171.919 37.2456 171.915 37.2484C171.911 37.2513 171.906 37.2532 171.901 37.2543L171.041 37.4294L171.033 37.431Z" fill="#0A0A0A"/>
<path d="M169.815 38.0762L168.349 38.5029C169.865 35.7147 170.069 32.7026 166.813 30.3998L168.086 30.1475C171.103 32.2651 171.33 35.2887 169.815 38.0762Z" fill="#2B2B2B"/>
<path d="M167.451 30.743C167.442 30.7431 167.433 30.74 167.427 30.7344C167.42 30.7287 167.415 30.7209 167.413 30.7122C167.411 30.7022 167.414 30.6918 167.419 30.6833C167.425 30.6749 167.433 30.6689 167.443 30.6666L168.303 30.4915C168.313 30.4896 168.323 30.4919 168.332 30.4976C168.34 30.5034 168.346 30.5123 168.348 30.5223C168.349 30.5273 168.349 30.5323 168.348 30.5373C168.347 30.5422 168.345 30.5469 168.342 30.551C168.34 30.5552 168.336 30.5588 168.332 30.5615C168.328 30.5643 168.323 30.5662 168.318 30.5671L167.458 30.7423L167.451 30.743Z" fill="#0A0A0A"/>
<path d="M167.733 30.9631C167.724 30.9632 167.716 30.9602 167.709 30.9545C167.702 30.9489 167.697 30.941 167.696 30.9322C167.695 30.9272 167.695 30.9221 167.696 30.9171C167.696 30.9122 167.698 30.9074 167.701 30.9032C167.704 30.899 167.708 30.8953 167.712 30.8925C167.716 30.8896 167.721 30.8877 167.725 30.8867L168.585 30.7115C168.589 30.7105 168.595 30.7104 168.599 30.7114C168.604 30.7124 168.609 30.7143 168.613 30.7171C168.618 30.7199 168.621 30.7235 168.624 30.7277C168.627 30.7319 168.629 30.7366 168.63 30.7416C168.631 30.7465 168.631 30.7517 168.63 30.7567C168.629 30.7617 168.627 30.7665 168.624 30.7708C168.622 30.775 168.618 30.7786 168.614 30.7815C168.61 30.7843 168.605 30.7862 168.6 30.7871L167.74 30.9623L167.733 30.9631Z" fill="#0A0A0A"/>
<path d="M167.996 31.1977C167.986 31.1987 167.976 31.1956 167.968 31.1891C167.96 31.1826 167.955 31.1732 167.954 31.163C167.953 31.1527 167.956 31.1425 167.963 31.1346C167.969 31.1266 167.979 31.1216 167.989 31.1205L168.849 30.9454C168.859 30.9435 168.869 30.9456 168.877 30.9512C168.886 30.9568 168.892 30.9655 168.894 30.9754C168.895 30.9805 168.895 30.9856 168.894 30.9907C168.893 30.9957 168.891 31.0004 168.888 31.0047C168.885 31.0089 168.881 31.0125 168.877 31.0153C168.873 31.0181 168.868 31.0201 168.863 31.021L168.004 31.1962L167.996 31.1977Z" fill="#0A0A0A"/>
<path d="M168.241 31.4462C168.232 31.4463 168.223 31.4433 168.217 31.4376C168.21 31.432 168.205 31.4241 168.203 31.4153C168.202 31.4103 168.202 31.4052 168.203 31.4002C168.204 31.3953 168.206 31.3905 168.209 31.3863C168.212 31.3821 168.215 31.3784 168.219 31.3756C168.224 31.3728 168.228 31.3708 168.233 31.3698L169.093 31.1946C169.103 31.1928 169.113 31.195 169.122 31.2008C169.13 31.2066 169.136 31.2154 169.138 31.2254C169.139 31.2304 169.139 31.2355 169.138 31.2404C169.137 31.2454 169.135 31.2501 169.132 31.2543C169.129 31.2585 169.126 31.2621 169.122 31.2648C169.117 31.2676 169.113 31.2694 169.108 31.2702L168.248 31.4454L168.241 31.4462Z" fill="#0A0A0A"/>
<path d="M168.467 31.7076C168.457 31.7087 168.447 31.7056 168.439 31.6991C168.431 31.6926 168.426 31.6832 168.425 31.6729C168.424 31.6627 168.427 31.6525 168.433 31.6445C168.44 31.6365 168.449 31.6315 168.459 31.6305L169.319 31.4591C169.329 31.4573 169.339 31.4594 169.348 31.465C169.356 31.4706 169.362 31.4793 169.364 31.4892C169.365 31.4943 169.365 31.4994 169.364 31.5045C169.363 31.5095 169.361 31.5142 169.359 31.5185C169.356 31.5227 169.352 31.5263 169.348 31.5291C169.344 31.5319 169.339 31.5339 169.334 31.5348L168.478 31.7069L168.467 31.7076Z" fill="#0A0A0A"/>
<path d="M168.673 31.9809C168.664 31.9809 168.656 31.9778 168.649 31.9722C168.642 31.9666 168.637 31.9587 168.635 31.95C168.634 31.9399 168.636 31.9295 168.641 31.921C168.647 31.9124 168.656 31.9065 168.666 31.9045L169.525 31.7293C169.53 31.7283 169.535 31.7283 169.54 31.7292C169.545 31.7302 169.55 31.7321 169.554 31.7349C169.558 31.7377 169.562 31.7413 169.564 31.7455C169.567 31.7497 169.569 31.7544 169.57 31.7594C169.571 31.7644 169.571 31.7695 169.571 31.7745C169.57 31.7795 169.568 31.7843 169.565 31.7886C169.562 31.7928 169.559 31.7965 169.554 31.7993C169.55 31.8021 169.545 31.804 169.54 31.8049L168.681 31.9801L168.673 31.9809Z" fill="#0A0A0A"/>
<path d="M168.86 32.2647C168.851 32.2649 168.843 32.2619 168.836 32.2562C168.829 32.2506 168.824 32.2426 168.823 32.2339C168.822 32.2289 168.822 32.2238 168.822 32.2188C168.823 32.2138 168.825 32.2091 168.828 32.2049C168.831 32.2006 168.834 32.197 168.839 32.1942C168.843 32.1913 168.847 32.1893 168.852 32.1883L169.712 32.0131C169.722 32.0112 169.733 32.0134 169.741 32.0193C169.75 32.0251 169.756 32.0342 169.758 32.0444C169.76 32.0546 169.758 32.0652 169.752 32.0738C169.746 32.0824 169.737 32.0884 169.727 32.0903L168.868 32.2655L168.86 32.2647Z" fill="#0A0A0A"/>
<path d="M169.03 32.559C169.021 32.559 169.013 32.5559 169.006 32.5503C168.999 32.5446 168.994 32.5368 168.993 32.5281C168.992 32.5231 168.991 32.518 168.992 32.5129C168.993 32.5079 168.995 32.5032 168.998 32.4989C169.001 32.4946 169.004 32.491 169.009 32.4882C169.013 32.4854 169.017 32.4835 169.022 32.4826L169.882 32.3081C169.887 32.3071 169.892 32.3071 169.897 32.3081C169.902 32.3091 169.907 32.311 169.911 32.3138C169.915 32.3166 169.918 32.3202 169.921 32.3244C169.924 32.3286 169.926 32.3333 169.927 32.3382C169.928 32.3432 169.928 32.3484 169.927 32.3534C169.926 32.3584 169.924 32.3632 169.921 32.3674C169.919 32.3717 169.915 32.3753 169.911 32.3781C169.907 32.3809 169.902 32.3829 169.897 32.3838L169.038 32.559H169.03Z" fill="#0A0A0A"/>
<path d="M169.178 32.8615C169.169 32.8615 169.161 32.8584 169.154 32.8528C169.147 32.8472 169.143 32.8393 169.141 32.8306C169.139 32.8206 169.141 32.8103 169.147 32.8018C169.152 32.7933 169.161 32.7873 169.171 32.7851L170.031 32.6099C170.04 32.6081 170.051 32.6102 170.059 32.6158C170.068 32.6214 170.073 32.6301 170.076 32.64C170.077 32.645 170.077 32.6501 170.076 32.6551C170.075 32.66 170.073 32.6648 170.07 32.669C170.067 32.6732 170.064 32.6769 170.06 32.6797C170.055 32.6825 170.051 32.6845 170.046 32.6855L169.186 32.8607L169.178 32.8615Z" fill="#0A0A0A"/>
<path d="M169.307 33.1717C169.298 33.1717 169.29 33.1687 169.283 33.163C169.276 33.1574 169.271 33.1496 169.27 33.1409C169.268 33.1308 169.27 33.1203 169.276 33.1118C169.281 33.1033 169.29 33.0974 169.3 33.0953L170.161 32.9209C170.166 32.9199 170.171 32.9199 170.176 32.9209C170.181 32.9219 170.186 32.9239 170.19 32.9268C170.194 32.9296 170.198 32.9333 170.201 32.9376C170.204 32.9419 170.206 32.9467 170.207 32.9518C170.208 32.9569 170.208 32.9621 170.207 32.9672C170.206 32.9722 170.204 32.977 170.201 32.9813C170.198 32.9856 170.195 32.9893 170.19 32.9922C170.186 32.9951 170.181 32.9971 170.176 32.9981L169.316 33.1733L169.307 33.1717Z" fill="#0A0A0A"/>
<path d="M169.416 33.4896C169.406 33.4906 169.396 33.4875 169.388 33.481C169.38 33.4745 169.375 33.4651 169.374 33.4548C169.373 33.4446 169.376 33.4344 169.382 33.4264C169.389 33.4185 169.398 33.4134 169.408 33.4124L170.267 33.2372C170.272 33.2362 170.277 33.2362 170.282 33.2372C170.288 33.2382 170.292 33.2402 170.297 33.2431C170.301 33.2459 170.304 33.2496 170.307 33.2539C170.31 33.2582 170.312 33.263 170.313 33.2681C170.314 33.2732 170.314 33.2784 170.313 33.2834C170.312 33.2885 170.31 33.2933 170.307 33.2976C170.305 33.3019 170.301 33.3056 170.297 33.3085C170.292 33.3114 170.288 33.3134 170.283 33.3144L169.423 33.4896H169.416Z" fill="#0A0A0A"/>
<path d="M169.504 33.8121C169.495 33.8121 169.487 33.809 169.48 33.8034C169.473 33.7978 169.468 33.79 169.466 33.7813C169.465 33.7711 169.467 33.7607 169.473 33.7522C169.478 33.7437 169.487 33.7378 169.497 33.7357L170.356 33.5613C170.361 33.5603 170.366 33.5603 170.371 33.5613C170.376 33.5623 170.381 33.5643 170.385 33.5672C170.39 33.57 170.393 33.5737 170.396 33.578C170.399 33.5823 170.401 33.5871 170.402 33.5922C170.403 33.5972 170.403 33.6025 170.402 33.6075C170.401 33.6126 170.399 33.6174 170.396 33.6217C170.393 33.626 170.39 33.6297 170.386 33.6326C170.381 33.6355 170.376 33.6375 170.371 33.6385L169.512 33.8129L169.504 33.8121Z" fill="#0A0A0A"/>
<path d="M169.572 34.1401C169.563 34.1401 169.555 34.1371 169.548 34.1315C169.541 34.1258 169.537 34.118 169.535 34.1093C169.533 34.0992 169.535 34.0887 169.541 34.0802C169.547 34.0717 169.555 34.0658 169.565 34.0637L170.425 33.8886C170.435 33.8867 170.445 33.889 170.453 33.8947C170.462 33.9005 170.468 33.9094 170.47 33.9194C170.471 33.9244 170.471 33.9295 170.47 33.9345C170.469 33.9395 170.467 33.9442 170.464 33.9484C170.461 33.9527 170.458 33.9563 170.454 33.9591C170.449 33.962 170.445 33.964 170.44 33.965L169.58 34.1394L169.572 34.1401Z" fill="#0A0A0A"/>
<path d="M169.62 34.469C169.611 34.4692 169.602 34.4661 169.595 34.4605C169.589 34.4548 169.584 34.4469 169.582 34.4381C169.581 34.4332 169.581 34.4281 169.582 34.4231C169.583 34.4181 169.585 34.4134 169.588 34.4091C169.591 34.4049 169.594 34.4013 169.598 34.3984C169.603 34.3956 169.607 34.3936 169.612 34.3926L170.471 34.2174C170.476 34.2164 170.481 34.2164 170.486 34.2174C170.491 34.2184 170.496 34.2204 170.5 34.2233C170.504 34.2262 170.508 34.2299 170.511 34.2342C170.514 34.2385 170.515 34.2433 170.516 34.2483C170.518 34.2532 170.518 34.2583 170.517 34.2633C170.516 34.2683 170.514 34.273 170.511 34.2772C170.508 34.2814 170.505 34.2849 170.5 34.2877C170.496 34.2904 170.492 34.2922 170.487 34.2931L169.624 34.469H169.62Z" fill="#0A0A0A"/>
<path d="M169.62 34.807C169.61 34.808 169.6 34.8049 169.592 34.7984C169.584 34.7919 169.579 34.7825 169.578 34.7722C169.577 34.762 169.58 34.7518 169.587 34.7438C169.593 34.7359 169.603 34.7308 169.613 34.7298L170.472 34.5546C170.477 34.5536 170.482 34.5536 170.487 34.5545C170.492 34.5555 170.496 34.5574 170.501 34.5602C170.505 34.563 170.508 34.5666 170.511 34.5708C170.514 34.575 170.516 34.5797 170.517 34.5847C170.518 34.5897 170.518 34.5948 170.517 34.5998C170.516 34.6049 170.514 34.6096 170.512 34.6139C170.509 34.6181 170.505 34.6218 170.501 34.6246C170.497 34.6274 170.492 34.6293 170.487 34.6302L169.625 34.8062L169.62 34.807Z" fill="#0A0A0A"/>
<path d="M169.599 35.1436C169.59 35.1434 169.581 35.1402 169.575 35.1344C169.568 35.1287 169.563 35.1207 169.561 35.1119C169.56 35.107 169.56 35.102 169.561 35.097C169.562 35.0921 169.564 35.0874 169.567 35.0833C169.57 35.0791 169.573 35.0755 169.577 35.0728C169.582 35.07 169.586 35.0681 169.591 35.0672L170.451 34.892C170.456 34.891 170.461 34.891 170.466 34.892C170.471 34.893 170.476 34.895 170.48 34.8978C170.485 34.9007 170.488 34.9044 170.491 34.9087C170.494 34.913 170.496 34.9178 170.497 34.9229C170.498 34.9279 170.498 34.9332 170.497 34.9382C170.496 34.9433 170.494 34.9481 170.491 34.9524C170.488 34.9567 170.485 34.9604 170.48 34.9633C170.476 34.9662 170.471 34.9682 170.466 34.9692L169.606 35.1444L169.599 35.1436Z" fill="#0A0A0A"/>
<path d="M169.62 35.4797C169.611 35.4799 169.602 35.4769 169.595 35.4712C169.589 35.4656 169.584 35.4576 169.582 35.4489C169.581 35.4439 169.581 35.4388 169.582 35.4338C169.583 35.4288 169.585 35.4241 169.588 35.4199C169.591 35.4156 169.594 35.412 169.598 35.4092C169.603 35.4063 169.607 35.4043 169.612 35.4033L170.471 35.2289C170.481 35.2269 170.492 35.229 170.501 35.2348C170.509 35.2405 170.515 35.2495 170.517 35.2598C170.519 35.27 170.517 35.2806 170.511 35.2893C170.506 35.298 170.497 35.304 170.487 35.3061L169.624 35.479L169.62 35.4797Z" fill="#0A0A0A"/>
<path d="M169.572 35.8173C169.563 35.8173 169.555 35.8142 169.548 35.8086C169.541 35.803 169.537 35.7952 169.535 35.7864C169.533 35.7763 169.535 35.7659 169.541 35.7574C169.547 35.7489 169.555 35.743 169.565 35.7409L170.425 35.5657C170.429 35.5647 170.435 35.5647 170.439 35.5656C170.444 35.5666 170.449 35.5685 170.453 35.5713C170.457 35.5741 170.461 35.5777 170.464 35.5819C170.467 35.5861 170.469 35.5909 170.47 35.5958C170.471 35.6008 170.471 35.6059 170.47 35.611C170.469 35.616 170.467 35.6208 170.464 35.625C170.462 35.6293 170.458 35.6329 170.454 35.6357C170.45 35.6385 170.445 35.6404 170.44 35.6414L169.58 35.8165L169.572 35.8173Z" fill="#0A0A0A"/>
<path d="M169.504 36.1529C169.495 36.1529 169.487 36.1498 169.48 36.1442C169.473 36.1385 169.468 36.1307 169.466 36.122C169.465 36.1119 169.467 36.1014 169.473 36.0929C169.478 36.0844 169.487 36.0785 169.497 36.0765L170.356 35.9013C170.361 35.9003 170.366 35.9003 170.371 35.9013C170.376 35.9023 170.381 35.9043 170.385 35.9071C170.39 35.91 170.393 35.9137 170.396 35.918C170.399 35.9223 170.401 35.9271 170.402 35.9321C170.403 35.9372 170.403 35.9424 170.402 35.9475C170.401 35.9526 170.399 35.9574 170.396 35.9617C170.393 35.966 170.39 35.9697 170.386 35.9726C170.381 35.9754 170.376 35.9774 170.371 35.9784L169.512 36.1536L169.504 36.1529Z" fill="#0A0A0A"/>
<path d="M169.415 36.4864C169.406 36.4865 169.398 36.4835 169.391 36.4779C169.384 36.4722 169.379 36.4643 169.378 36.4555C169.377 36.4505 169.377 36.4454 169.378 36.4404C169.379 36.4355 169.381 36.4307 169.383 36.4265C169.386 36.4223 169.39 36.4186 169.394 36.4158C169.398 36.413 169.403 36.411 169.408 36.41L170.267 36.2348C170.272 36.2338 170.277 36.2337 170.282 36.2347C170.287 36.2357 170.291 36.2376 170.295 36.2404C170.3 36.2432 170.303 36.2468 170.306 36.251C170.309 36.2552 170.311 36.2599 170.312 36.2649C170.313 36.2699 170.313 36.275 170.312 36.28C170.311 36.285 170.309 36.2898 170.307 36.2941C170.304 36.2983 170.3 36.302 170.296 36.3048C170.292 36.3076 170.287 36.3095 170.282 36.3104L169.422 36.4856L169.415 36.4864Z" fill="#0A0A0A"/>
<path d="M169.349 36.8165C169.339 36.8175 169.329 36.8145 169.321 36.8079C169.313 36.8014 169.308 36.792 169.307 36.7818C169.306 36.7716 169.309 36.7613 169.315 36.7534C169.322 36.7454 169.331 36.7404 169.341 36.7393L170.201 36.5642C170.211 36.5622 170.222 36.5644 170.23 36.5703C170.239 36.5761 170.245 36.5852 170.247 36.5954C170.249 36.6057 170.246 36.6162 170.241 36.6249C170.235 36.6335 170.226 36.6394 170.216 36.6413L169.357 36.8165H169.349Z" fill="#0A0A0A"/>
<path d="M169.203 37.1422C169.194 37.1422 169.186 37.1391 169.179 37.1335C169.172 37.1279 169.167 37.1201 169.166 37.1113C169.164 37.1013 169.166 37.091 169.172 37.0825C169.177 37.074 169.186 37.068 169.196 37.0658L170.055 36.8914C170.06 36.8904 170.065 36.8904 170.07 36.8913C170.075 36.8923 170.08 36.8942 170.084 36.897C170.088 36.8998 170.092 36.9034 170.095 36.9076C170.098 36.9118 170.1 36.9165 170.101 36.9215C170.102 36.9315 170.1 36.9418 170.095 36.9503C170.089 36.9588 170.081 36.9648 170.071 36.967L169.211 37.1414L169.203 37.1422Z" fill="#0A0A0A"/>
<path d="M169.049 37.4634C169.038 37.4644 169.028 37.4613 169.02 37.4548C169.013 37.4483 169.008 37.4389 169.007 37.4286C169.006 37.4184 169.009 37.4082 169.015 37.4002C169.021 37.3923 169.031 37.3872 169.041 37.3862L169.901 37.211C169.911 37.2091 169.921 37.2113 169.93 37.2171C169.939 37.223 169.944 37.232 169.946 37.2423C169.948 37.2525 169.946 37.2631 169.94 37.2717C169.934 37.2803 169.926 37.2862 169.915 37.2882L169.056 37.4634H169.049Z" fill="#0A0A0A"/>
<path d="M168.916 37.7781C168.907 37.778 168.898 37.7748 168.892 37.7692C168.885 37.7636 168.88 37.7559 168.878 37.7472C168.877 37.7423 168.877 37.7372 168.878 37.7322C168.879 37.7272 168.881 37.7225 168.884 37.7182C168.887 37.714 168.89 37.7104 168.894 37.7075C168.898 37.7047 168.903 37.7027 168.908 37.7017L169.768 37.5265C169.773 37.5255 169.778 37.5255 169.783 37.5265C169.788 37.5275 169.793 37.5295 169.797 37.5324C169.801 37.5352 169.805 37.5389 169.808 37.5432C169.811 37.5475 169.813 37.5523 169.814 37.5574C169.815 37.5625 169.815 37.5677 169.814 37.5727C169.813 37.5778 169.811 37.5826 169.808 37.5869C169.805 37.5912 169.802 37.5949 169.797 37.5978C169.793 37.6007 169.788 37.6027 169.783 37.6037L168.923 37.7789L168.916 37.7781Z" fill="#0A0A0A"/>
<path d="M168.735 38.1129C168.726 38.1127 168.718 38.1095 168.711 38.1037C168.704 38.098 168.699 38.0901 168.698 38.0813C168.697 38.0763 168.697 38.0712 168.698 38.0662C168.699 38.0612 168.701 38.0565 168.703 38.0523C168.706 38.0482 168.71 38.0446 168.714 38.0419C168.718 38.0392 168.723 38.0373 168.728 38.0365L169.587 37.8644C169.592 37.8634 169.597 37.8634 169.602 37.8644C169.607 37.8654 169.612 37.8674 169.617 37.8703C169.621 37.8731 169.624 37.8768 169.627 37.8811C169.63 37.8854 169.632 37.8902 169.633 37.8953C169.634 37.9003 169.634 37.9056 169.633 37.9106C169.632 37.9157 169.63 37.9205 169.627 37.9248C169.625 37.9291 169.621 37.9328 169.617 37.9357C169.612 37.9386 169.608 37.9406 169.603 37.9416L168.743 38.1168L168.735 38.1129Z" fill="#0A0A0A"/>
<path d="M164.774 41.1377L160.101 38.5956L159.523 37.1656L159.379 31.1801L159.93 30.3721L164.827 32.3847L165.364 33.6959L165.575 40.2239L165.076 41.1377H164.774Z" fill="#454545"/>
<path d="M165.076 40.8595L165.43 40.1048L165.168 33.5767L164.669 32.5303L160.285 30.6365L159.982 30.584L159.523 31.2191L159.694 37.0858L160.18 38.4757L164.905 41.0447L165.076 40.8595Z" fill="#0A0A0A"/>
<path d="M163.139 36.1784L163.033 32.6284L164.5 33.2774L164.011 36.5642L163.139 36.1784Z" fill="#1B1B1B"/>
<path d="M163.14 32.676V36.1781L160.226 37.2377L160.18 31.3386L163.14 32.676Z" fill="#0A0A0A"/>
<path d="M160.226 37.2379L165.43 40.1049L165.311 37.1384L163.14 36.1783L160.226 37.2379Z" fill="#2B2B2B"/>
<path d="M160.179 31.3389L165.167 33.5769L164.668 32.5304L160.284 30.6366L159.851 31.193L159.996 37.2379L160.468 38.2867L165.075 40.8597L165.43 40.1049L160.225 37.2379L160.179 31.3389Z" fill="#333333"/>
<path d="M165.076 41.1375L166.31 40.595L166.717 40.0254L166.611 33.7621L166.008 32.2125L161.466 30.2793L159.93 30.3719L164.826 32.3846L165.364 33.6957L165.575 40.2238L165.076 41.1375Z" fill="#0A0A0A"/>
<path d="M166.404 40.4639L167.964 39.9198L168.358 39.2971V34.0933L168.214 33.2459L167.596 32.0012L166.625 31.339L163.14 30.1475L161.466 30.2794L166.008 32.2126L166.612 33.7622L166.717 40.0256L166.404 40.4639Z" fill="#2B2B2B"/>
<path d="M163.505 32.829C163.505 32.829 163.267 33.4703 163.326 34.5036C163.378 35.1786 163.536 35.8411 163.794 36.4661L165.314 37.1391L165.301 36.8072C165.301 36.8072 164.358 35.3479 164.499 33.2774L163.505 32.829Z" fill="#0A0A0A"/>
<path d="M164.499 33.2775L165.166 33.5769L165.296 36.8073C165.296 36.8073 164.371 35.4406 164.499 33.2775Z" fill="#1B1B1B"/>
<path d="M163.734 23.1355C163.734 23.1355 163.137 23.1733 163.137 23.9072C163.137 24.6411 164.15 25.5711 164.717 25.5711C165.283 25.5711 165.03 25.0224 165.03 25.0224L163.734 23.1355Z" fill="#1B1B1B"/>
<path d="M155.888 27.478C157.597 27.409 159.3 27.2324 160.987 26.9493C163.626 26.4925 164.2 26.1776 164.2 26.1776C164.2 26.1776 164.689 25.108 164.317 24.2707C163.781 23.0761 162.799 23.242 162.799 23.242L155.421 24.591L155.888 27.478Z" fill="#2B2B2B"/>
<path d="M155.888 27.4782C156.351 27.402 156.622 26.694 156.493 25.8969C156.364 25.0998 155.884 24.5154 155.42 24.5916C154.957 24.6678 154.686 25.3758 154.815 26.1729C154.944 26.97 155.425 27.5544 155.888 27.4782Z" fill="#0A0A0A"/>
<path d="M166.361 25.7145L168.98 26.582L170.746 26.1452L168.223 25.3202L166.361 25.7145Z" fill="#333333"/>
<path d="M168.164 28.1406C168.164 28.1406 168.852 28.295 169.847 28.0418C170.841 27.7887 170.746 27.6714 170.746 27.6714V26.1442L168.98 26.5817L168.164 28.1406Z" fill="#2B2B2B"/>
<path d="M168.98 26.5819V27.8321C168.98 27.8321 168.751 28.1833 167.464 28.1833L166.361 25.7137L168.98 26.5819Z" fill="#0A0A0A"/>
<path d="M169.898 25.006C169.621 24.2212 168.827 23.7396 168.045 23.6115C167.864 23.5822 167.787 23.8608 167.968 23.8909C168.64 24.0013 169.379 24.3995 169.62 25.0832C169.681 25.2576 169.959 25.1828 169.897 25.006H169.898Z" fill="#0A0A0A"/>
<path d="M167.375 23.4202L168.165 23.5328C168.238 23.6831 168.251 23.8564 168.2 24.0159L167.455 24.4496L167.375 23.4202Z" fill="#2B2B2B"/>
<path d="M166.587 23.1541H167.123C167.123 23.1541 167.413 23.2683 167.528 23.864C167.642 24.4598 167.248 24.6682 167.248 24.6682L166.587 23.1541Z" fill="#0A0A0A"/>
<path d="M164.21 28.644C164.221 28.6332 167.465 28.181 167.465 28.181C167.553 27.7701 167.586 27.349 167.563 26.9292C167.52 25.9514 166.618 25.6945 166.618 25.6945L163.734 25.8866C163.734 25.8866 163.239 25.8388 162.792 26.2902L164.21 28.644Z" fill="#2B2B2B"/>
<path d="M163.734 23.1354L165.027 25.0223L167.245 24.6649C167.288 24.6092 167.316 24.5435 167.326 24.474C167.337 24.4045 167.329 24.3334 167.305 24.2675C167.219 24.0429 166.464 22.9834 166.464 22.9834C166.464 22.9834 166.365 22.7318 165.84 22.7981C165.315 22.8645 163.734 23.1354 163.734 23.1354Z" fill="#2B2B2B"/>
<path d="M164.107 28.6393L163.246 28.4934C162.792 28.4379 162.44 27.9532 162.464 27.4076L162.483 26.9901C162.508 26.4499 162.9 26.0509 163.355 26.1065L164.169 26.206C164.624 26.2616 164.976 26.7462 164.951 27.2919L164.932 27.7094C164.908 28.2511 164.561 28.6949 164.107 28.6393Z" fill="#0A0A0A"/>
<path d="M167.334 24.844L167.528 25.4675L164.61 26.1451L164.521 25.4946L167.334 24.844Z" fill="#0A0A0A"/>
<path d="M164.522 25.4947L163.586 25.355L163.547 25.9515L164.61 26.1452L164.522 25.4947Z" fill="#1B1B1B"/>
<path d="M163.586 25.355L166.638 24.5956L167.335 24.8441L164.522 25.4946L163.586 25.355Z" fill="#333333"/>
<path d="M162.892 28.1863C162.879 28.7744 163.051 29.5044 163.56 29.8525C164.54 30.52 165.355 29.6017 166.274 29.303C166.922 29.097 167.594 28.9796 168.273 28.9542C168.713 28.9357 169.149 28.9835 169.589 28.9858C170.374 28.9858 170.92 28.698 170.889 27.8283C170.883 27.6423 170.596 27.6415 170.602 27.8283C170.615 28.2296 170.519 28.5498 170.1 28.6525C169.775 28.7296 169.416 28.6903 169.086 28.6748C168.188 28.6233 167.288 28.7171 166.419 28.9527C166.047 29.052 165.689 29.1972 165.353 29.3848C164.88 29.658 164.458 29.969 163.899 29.709C163.341 29.4489 163.167 28.759 163.179 28.1833C163.179 27.9973 162.896 27.9973 162.892 28.1833V28.1863Z" fill="#0A0A0A"/>
<path d="M169.23 25.6496V25.1217H170.747V26.145L169.23 25.6496Z" fill="#1B1B1B"/>
<path d="M170.658 25.6975L170.944 25.7747C171.178 26.1501 171.279 26.5941 171.231 27.0349C171.14 27.7372 170.952 27.8298 170.952 27.8298H170.746C170.746 27.8298 170.326 27.6176 170.326 26.764C170.326 25.9105 170.658 25.6975 170.658 25.6975Z" fill="#0A0A0A"/>
<path d="M176.327 34.3547C176.289 34.6371 176.013 34.9173 175.741 34.9721L174.246 35.2923C173.974 35.351 173.805 35.1658 173.843 34.8833C173.933 34.2281 173.933 33.9017 173.843 33.2851C173.824 33.1545 173.855 33.0216 173.93 32.9134C174.005 32.8051 174.118 32.7297 174.246 32.7024L175.745 32.3852C176.017 32.3274 176.293 32.4894 176.331 32.7549C176.417 33.373 176.417 33.6972 176.327 34.3547Z" fill="#333333"/>
<path d="M179.296 34.186C179.267 34.5548 179.057 34.8851 178.85 34.9222L177.712 35.1236C177.504 35.1606 177.376 34.8921 177.406 34.5209C177.474 33.8162 177.474 33.1064 177.406 32.4017C177.377 32.0436 177.505 31.7272 177.712 31.691L178.85 31.4888C179.057 31.4525 179.267 31.7087 179.296 32.0668C179.364 32.7715 179.364 33.4812 179.296 34.186Z" fill="#333333"/>
<path d="M176.12 33.5321C176.107 33.5965 176.076 33.6559 176.031 33.7036C175.986 33.7512 175.928 33.7854 175.865 33.8022L175.214 33.9419C175.096 33.9674 175.022 33.8871 175.039 33.7637C175.078 33.5338 175.078 33.299 175.039 33.0691C175.031 33.0123 175.044 32.9544 175.077 32.9074C175.109 32.8603 175.159 32.8276 175.214 32.816L175.865 32.6763C175.893 32.6691 175.921 32.6677 175.949 32.672C175.977 32.6763 176.003 32.6863 176.027 32.7014C176.051 32.7165 176.072 32.7364 176.088 32.7598C176.104 32.7832 176.115 32.8097 176.12 32.8376C176.159 33.0674 176.159 33.3023 176.12 33.5321Z" fill="#2B2B2B"/>
<path d="M175.362 31.7755C175.371 31.8162 175.368 31.8584 175.353 31.8971C175.338 31.9359 175.312 31.9695 175.279 31.9939C175.246 32.0183 175.206 32.0326 175.165 32.0348C175.124 32.0371 175.083 32.0274 175.047 32.0068C175.012 31.9862 174.983 31.9556 174.964 31.9187C174.945 31.8818 174.937 31.8402 174.941 31.7989C174.945 31.7576 174.961 31.7183 174.986 31.6858C175.012 31.6533 175.046 31.629 175.085 31.6158C175.143 31.601 175.204 31.6094 175.256 31.6392C175.308 31.669 175.346 31.7179 175.362 31.7755Z" fill="#0A0A0A"/>
<path d="M176.089 31.5783C176.097 31.6189 176.094 31.6611 176.079 31.6999C176.065 31.7386 176.039 31.7722 176.006 31.7966C175.972 31.8211 175.933 31.8353 175.892 31.8376C175.851 31.8399 175.81 31.8301 175.774 31.8095C175.738 31.7889 175.709 31.7583 175.69 31.7214C175.671 31.6846 175.664 31.643 175.668 31.6016C175.672 31.5603 175.687 31.5211 175.713 31.4886C175.739 31.4561 175.773 31.4318 175.812 31.4185C175.87 31.4037 175.931 31.4121 175.983 31.4419C176.034 31.4717 176.072 31.5206 176.089 31.5783Z" fill="#0A0A0A"/>
<path d="M176.81 31.4175C176.819 31.4581 176.815 31.5003 176.8 31.539C176.785 31.5776 176.76 31.6112 176.726 31.6355C176.693 31.6598 176.654 31.6739 176.612 31.6761C176.571 31.6783 176.531 31.6684 176.495 31.6478C176.459 31.6271 176.43 31.5965 176.411 31.5596C176.393 31.5227 176.385 31.4811 176.389 31.4398C176.393 31.3986 176.409 31.3593 176.434 31.3269C176.46 31.2944 176.494 31.2702 176.533 31.257C176.591 31.2422 176.652 31.2507 176.704 31.2807C176.756 31.3106 176.794 31.3597 176.81 31.4175Z" fill="#0A0A0A"/>
<path d="M177.11 32.5891C177.11 32.6306 177.098 32.6711 177.075 32.7058C177.052 32.7404 177.02 32.7677 176.982 32.7844C176.945 32.801 176.903 32.8063 176.862 32.7996C176.822 32.7929 176.784 32.7745 176.753 32.7467C176.723 32.7188 176.701 32.6826 176.69 32.6425C176.68 32.6024 176.681 32.56 176.694 32.5206C176.706 32.4811 176.73 32.4462 176.762 32.42C176.794 32.3938 176.833 32.3775 176.874 32.373C176.933 32.3711 176.991 32.3926 177.035 32.4329C177.079 32.4732 177.106 32.5292 177.11 32.5891Z" fill="#0A0A0A"/>
<path d="M177.207 33.3754C177.206 33.4168 177.193 33.457 177.17 33.4912C177.147 33.5255 177.115 33.5524 177.078 33.5687C177.04 33.5851 176.998 33.5901 176.958 33.5833C176.918 33.5764 176.88 33.558 176.85 33.5302C176.819 33.5023 176.798 33.4663 176.787 33.4264C176.776 33.3864 176.777 33.3443 176.79 33.3049C176.803 33.2656 176.826 33.2307 176.858 33.2045C176.89 33.1783 176.928 33.1618 176.969 33.157C177.029 33.1547 177.088 33.1763 177.132 33.2171C177.177 33.258 177.203 33.3148 177.207 33.3754Z" fill="#0A0A0A"/>
<path d="M177.207 34.1641C177.206 34.2056 177.194 34.2461 177.171 34.2808C177.149 34.3154 177.117 34.3427 177.079 34.3593C177.041 34.376 177 34.3813 176.959 34.3746C176.918 34.3679 176.88 34.3495 176.85 34.3216C176.819 34.2938 176.798 34.2576 176.787 34.2175C176.776 34.1774 176.778 34.135 176.79 34.0955C176.803 34.0561 176.827 34.0211 176.859 33.995C176.891 33.9688 176.929 33.9525 176.97 33.948C177.03 33.9451 177.089 33.9662 177.133 34.0067C177.177 34.0472 177.204 34.1038 177.207 34.1641Z" fill="#0A0A0A"/>
<path d="M179.237 32.3963C179.237 32.6124 179.107 32.7883 178.946 32.7883C178.786 32.7883 178.655 32.6124 178.655 32.3963C178.655 32.1802 178.785 32.0043 178.946 32.0043C179.108 32.0043 179.237 32.1795 179.237 32.3963Z" fill="#2B2B2B"/>
<path d="M179.237 33.4488C179.237 33.6657 179.107 33.8408 178.946 33.8408C178.786 33.8408 178.655 33.6657 178.655 33.4488C178.655 33.2319 178.785 33.0568 178.946 33.0568C179.108 33.0568 179.237 33.2343 179.237 33.4488Z" fill="#2B2B2B"/>
<path d="M181.543 31.9594L181.331 31.6301C181.434 31.5819 181.541 31.4647 181.543 31.2895C181.544 31.1053 181.424 30.9974 181.225 31.0418L180.778 31.1415L180.77 32.1319L180.973 32.0866L180.976 31.7346L181.125 31.7014L181.309 32.0115L181.543 31.9594ZM181.191 31.5014L180.978 31.549L180.98 31.2817L181.193 31.2341C181.275 31.2159 181.336 31.2526 181.335 31.3358C181.334 31.419 181.272 31.4832 181.191 31.5014Z" fill="#EAEAEA"/>
<path d="M182.365 31.7758L182.366 31.5902L181.894 31.6956L181.896 31.4714L182.358 31.3682L182.36 31.1826L181.898 31.2858L181.899 31.0764L182.372 30.971L182.373 30.7853L181.698 30.9362L181.689 31.9266L182.365 31.7758Z" fill="#EAEAEA"/>
<path d="M182.9 31.6563C183.199 31.5895 183.408 31.3472 183.411 31.0487C183.413 30.7502 183.208 30.5991 182.909 30.6658L182.532 30.7499L182.524 31.7403L182.9 31.6563ZM182.902 31.4707L182.728 31.5093L182.734 30.8901L182.907 30.8515C183.103 30.8077 183.205 30.9198 183.203 31.095C183.202 31.2628 183.091 31.4285 182.902 31.4707Z" fill="#EAEAEA"/>
<path d="M192.787 42.2748C194.532 41.2269 193.496 41.59 193.976 40.3431C193.584 38.6322 191.944 37.4639 190.329 38.4463C189.036 39.2322 186.971 41.6199 184.873 45.125C182.641 44.1741 184.124 45.9272 183.739 48.1038C184.071 51.216 191.416 42.4784 192.787 42.2748Z" fill="#FBBEAE"/>
<path d="M178.556 37.0508C178.759 36.4391 178.793 35.7939 178.654 35.1907C178.551 34.5774 178.376 33.9846 178.133 33.4249C178.122 33.3963 178.104 33.3714 178.081 33.3523C178.058 33.3332 178.03 33.3205 178 33.3152C177.966 33.3114 177.93 33.318 177.898 33.334C177.865 33.3501 177.837 33.3751 177.817 33.406C177.768 33.475 177.733 33.5526 177.713 33.6339C177.694 33.7152 177.69 33.7984 177.703 33.8784C177.718 34.032 177.769 34.1856 177.795 34.3483C177.871 34.9436 177.833 35.5579 177.682 36.1567C177.598 36.5821 177.4 37.3993 177.729 37.7223C178.058 38.0452 178.433 37.3743 178.556 37.0508Z" fill="#F7C2B5"/>
<path d="M178.476 37.3409C178.446 37.6074 178.476 37.4515 178.476 38.041C178.622 39.0234 178.712 39.5688 178.476 39.8748C178.239 40.1808 177.119 39.3818 176.767 39.4496C176.589 39.4866 177.182 38.2816 176.998 38.3137C176.803 37.9946 176.7 37.3737 176.301 37.2549C175.062 36.8854 175.8 37.2326 174.996 35.6667C174.407 34.5196 174.751 35.2725 174.299 34.255C174.142 33.6614 174.434 33.4713 174.734 34.0785C174.734 34.0785 175.082 34.8726 175.431 35.3138C175.533 35.4441 175.529 35.0305 174.996 33.6373C174.775 33.0593 174.647 32.8432 174.647 32.8432C174.415 32.5078 174.908 32.2474 175.169 32.8432C175.595 33.8138 175.739 34.1321 176.127 35.0491C176.475 34.9608 175.563 32.9465 175.383 32.3675C174.656 31.1332 175.346 31.345 175.595 31.8379C175.924 32.4904 176.502 33.9903 176.765 34.6002C177.085 34.6002 176.333 32.8247 176.127 32.3674C175.921 31.9102 176.218 31.5658 176.475 32.1373C176.732 32.7089 177.587 34.7071 177.587 34.7071C178.127 35.6137 178.343 36.1779 178.476 37.3409Z" fill="#FBBEAE"/>
<path d="M179.001 43.6958C180.22 45.3722 182.108 48.039 182.745 48.5486C183.381 49.0582 183.445 49.262 183.964 49.078C185.291 48.5486 185.105 48.3348 185.291 46.7216C185.291 44.4899 179.436 40.2547 178.478 38.5783C177.434 37.3431 174.048 33.7255 176.128 38.843C176.737 40.3429 178.13 42.284 179.001 43.6958Z" fill="#FBBEAE"/>
<path d="M182.135 47.2252C183.223 48.5487 183.988 50.109 191.538 42.9018C190.246 44.6047 184.632 49.51 183.615 49.1664C182.57 48.8134 181.043 46.5194 180.742 46.0782C179.958 44.9312 177.085 41.1372 176.214 39.0195C176.998 40.6078 180.394 45.1077 182.135 47.2252Z" fill="#EEB1A2"/>
<path d="M195.827 39.9605C197.324 38.3638 196.834 36.1682 195.827 35.3651C194.465 34.2913 192.167 35.3185 190.911 36.6631C190.02 37.5969 189.13 38.5306 188.408 39.4644C189.878 39.9033 190.795 41.744 191.819 42.8459C192.058 43.0949 192.339 43.2945 192.648 43.4341C194.233 41.716 195.525 40.278 195.827 39.9605Z" fill="#C54848"/>
<path d="M186.226 30.0072C186.958 30.291 188.588 30.3562 189.633 29.915C189.402 30.7741 187.768 31.7254 186.226 30.0072Z" fill="#EEB1A2"/>
<path d="M29.3437 38.031C29.3437 38.031 30.4091 38.5512 30.054 39.7651C29.7876 40.8922 29.1661 42.0194 28.1894 41.9327C27.2127 41.846 28.2782 37.7709 29.3437 38.031Z" fill="#393939"/>
<path d="M14.9194 71.1075L15.3798 70.3749C10.7096 67.4445 9.52563 37.2089 9.45985 25.2212C10.5123 25.1546 13.8669 25.0214 18.8002 25.2212C28.9958 25.6874 36.8891 23.4897 43.2037 21.6249C47.8739 20.2929 51.8863 19.1608 55.7014 19.3606C74.1849 20.3595 80.1706 18.7612 83.3279 17.296C84.183 16.8964 85.0381 16.4968 85.8275 16.0972C88.6559 14.7653 91.0897 13.5665 93.3261 12.9005C95.7599 12.1679 96.5492 13.0337 97.2728 13.7663L97.4701 13.9661C97.5359 14.0327 97.5359 14.0327 97.5359 14.0327C97.5359 14.0993 97.207 14.4323 97.0096 14.5655C96.5492 15.0317 95.8914 15.6311 95.9572 16.4968C96.0888 17.8288 97.4043 18.2284 98.0621 18.2284V17.3626V17.7622V17.3626C97.9963 17.3626 96.8781 17.3626 96.7465 16.4302C96.7465 15.9641 97.1412 15.5645 97.6016 15.2315C97.9305 14.8319 98.3252 14.4989 98.3252 14.0993C98.3252 13.8329 98.2594 13.6331 98.0621 13.4333L97.9305 13.2335C97.207 12.4343 96.0888 11.2356 93.1288 12.1014C90.8266 12.8339 88.327 13.9661 85.4986 15.3647C84.7093 15.7643 83.8542 16.1638 82.999 16.5634C79.9075 18.0286 74.0533 19.4938 55.7672 18.5614C51.8205 18.3616 47.7423 19.4938 43.0064 20.8923C36.4286 22.7571 28.93 24.8882 18.866 24.422C12.8145 24.1556 9.13096 24.422 9.06518 24.422H8.67052V24.8216C8.67052 26.5532 8.86786 67.2448 14.9194 71.1075Z" fill="#7F7F7F"/>
<path d="M33.7321 115.395C33.7321 115.395 34.1925 116.794 34.653 117.527C35.1134 118.193 37.4156 121.656 37.6787 122.188C37.9419 122.721 37.8103 123.787 36.8236 124.653C35.7712 125.518 34.9161 125.985 34.061 125.185C33.2059 124.386 32.285 121.789 31.8245 120.59C31.3641 119.458 30.7721 117.593 30.7721 117.593C30.7721 117.593 29.3908 114.33 30.6406 114.197C32.0219 114.13 33.7321 115.395 33.7321 115.395Z" fill="#1C1C1C"/>
<path d="M25.1153 102.009C25.1153 102.009 25.51 103.474 25.5757 103.807C25.6415 104.207 25.5757 104.873 25.5757 104.873C25.5757 104.873 24.9837 105.872 23.9971 106.538C23.0104 107.137 22.3526 107.403 22.3526 107.403C22.3526 107.403 20.182 109.268 19.59 109.668C18.998 110.067 17.814 110.201 17.4193 110.001C17.0247 109.801 16.4985 108.669 16.6958 108.003C16.8931 107.337 17.222 106.671 17.6825 106.138C18.1429 105.672 20.182 104.673 20.774 104.34C21.366 103.94 21.8264 103.408 21.8922 103.274C21.958 103.208 24.4575 101.809 25.1153 102.009Z" fill="#1C1C1C"/>
<path d="M16.3667 73.8381C16.3667 73.8381 15.5116 75.5696 16.0379 81.2305C16.5641 86.8913 17.6823 89.6219 18.4059 91.5532C19.1294 93.4846 20.3134 96.9477 20.5765 98.2131C20.9054 99.4784 21.6289 102.542 21.6947 103.008C21.8263 103.474 22.3525 103.874 23.076 103.941C23.7996 104.007 24.9178 103.341 25.1809 103.008C25.3783 102.675 25.5098 102.342 25.5098 102.342C25.5098 102.342 25.444 99.3452 25.5756 97.9467C25.7071 96.6147 25.8387 95.8155 25.9045 94.4836C25.9703 93.2182 25.7071 88.0901 25.7071 88.0901C25.7071 88.0901 25.0494 80.9641 24.3258 79.9651C23.6023 78.8995 22.8129 74.1711 20.5107 73.7049C18.2085 73.3053 16.3667 73.8381 16.3667 73.8381Z" fill="#5C84B8"/>
<path d="M33.7319 73.2386C33.7319 73.2386 34.0608 77.7672 34.1924 79.8984C34.3239 82.0295 34.2582 88.8226 34.1924 88.9558C34.1266 89.089 34.7186 96.881 34.4555 98.0797C34.2582 99.2785 34.6528 101.077 34.6528 103.807C34.5871 106.538 33.8635 113.131 33.9951 114.463C34.1266 115.395 34.1266 115.861 34.1266 115.861C34.1266 115.861 33.5346 116.86 32.548 116.727C31.6271 116.661 30.5089 116.261 30.18 115.329C29.8511 114.396 29.7195 114.463 29.7195 113.997C29.7195 113.531 28.404 104.606 28.404 104.606C28.404 104.606 27.0226 99.0787 26.7595 96.9476C26.4964 94.8164 25.2467 88.4896 25.2467 88.4896C25.2467 88.4896 23.2076 84.5603 22.1551 83.6945C21.1027 82.7621 20.1818 79.0326 20.3791 76.9015C20.5107 74.7703 27.0226 71.3072 27.0226 71.3072C27.0226 71.3072 33.5346 70.2416 33.7319 73.2386Z" fill="#71A0DD"/>
<path d="M22.6151 41.7374C22.6151 41.7374 24.1279 42.6032 24.9173 43.469C25.7066 44.3348 30.7715 46.1995 30.7715 46.1995C30.7715 46.1995 32.1528 45.4003 32.7448 45.6667C33.3368 45.9331 36.6257 52.1268 36.2968 56.1227C35.9679 60.052 34.8497 64.3809 34.9154 67.0448C34.9812 69.7087 34.6523 73.1718 34.6523 73.5714C34.5866 73.971 30.9688 76.2354 25.1146 77.2343C19.3262 78.1667 16.3004 75.7026 15.9058 75.303C15.5111 74.9034 14.9849 74.3706 14.9849 74.3706C14.9849 74.3706 16.4977 64.1811 16.8266 61.2507C17.1555 58.3204 16.8924 52.6596 17.2871 50.1288C17.6817 47.5981 18.4711 45.134 19.8524 43.3358C21.2337 41.5376 22.6151 41.7374 22.6151 41.7374Z" fill="#1C1C1C"/>
<path d="M23.8658 42.8033C23.8658 42.8033 24.984 42.3371 25.0498 42.6035C25.1155 42.8699 21.9582 47.7981 21.5636 50.1291C21.1689 52.46 16.104 69.6424 16.104 69.6424L15.1831 70.042C15.1831 70.042 19.9849 51.9938 20.3796 50.0625C20.84 48.1977 23.7342 43.4026 23.8658 42.8033Z" fill="#190009"/>
<path d="M30.5741 43.5356C30.5741 43.5356 30.311 45.0673 30.5084 45.6667C30.7715 46.1995 30.7715 46.1995 30.7715 46.1995C30.7715 46.1995 29.1928 47.6647 28.1404 48.3972C27.0879 49.1298 25.8382 49.5294 24.8515 49.263C23.7991 48.9966 23.3386 47.9977 23.3386 47.7313C23.3386 47.4649 24.0622 45.9997 24.0622 45.2671C24.0622 44.4679 24.3911 41.7374 24.2595 40.9382C24.1937 40.0725 28.4693 41.9372 30.5741 43.5356Z" fill="#F8C5A1"/>
<path d="M17.0899 39.4732C17.0899 39.4732 19.0633 40.2724 19.3921 40.5388C19.721 40.8052 22.6152 41.7376 22.6152 41.7376L17.5504 48.9302C17.5504 48.9302 16.761 48.6638 16.4322 48.5972C16.1033 48.464 15.8402 48.3308 15.577 47.3984C15.3139 46.4661 14.9851 42.6034 15.1166 41.5378C15.1166 40.4722 15.9059 39.34 17.0899 39.4732Z" fill="#404040"/>
<path d="M11.3679 23.6894C11.3679 23.6894 12.0257 23.756 12.2888 23.8892C12.5519 23.9558 12.6177 23.9558 12.6177 23.9558L13.8017 23.4896C13.8017 23.4896 14.3279 22.8902 14.4595 22.5572C14.6568 22.2242 15.3804 22.424 15.183 22.8902C14.9857 23.3564 15.0515 23.8226 14.9857 23.9558C14.8541 24.089 13.6044 25.2211 13.2755 25.4209C13.0124 25.6207 12.4204 25.8205 12.223 25.8871C12.0257 25.9537 11.1048 26.1535 10.5786 25.8205C10.0524 25.4875 10.1182 25.0213 10.3813 24.4886C10.6444 23.9558 11.3679 23.6894 11.3679 23.6894Z" fill="#1C1C1C"/>
<path d="M32.1542 45.6669C32.1542 45.6669 33.3382 45.2007 33.404 45.1341C33.4698 45.0675 38.0742 46.3995 38.0742 48.3308C38.0742 50.3288 37.4164 53.0593 37.2849 53.3257C37.1533 53.5921 36.6271 55.59 35.9036 55.8564C35.1142 56.1894 33.0751 55.1904 32.3516 53.8585C31.628 52.4599 30.8387 50.129 30.7729 49.5296C30.8387 48.9302 31.1676 46.5993 32.1542 45.6669Z" fill="#404040"/>
<path d="M32.8951 29.7216C32.8951 29.7216 33.8426 31.763 33.624 34.5897C33.4053 37.4163 33.3324 40.557 32.5306 41.9703C31.8017 43.3051 30.344 44.4829 29.6151 44.4829C28.8862 44.4829 28.0115 44.2473 27.1368 43.9333C26.3351 43.6977 25.3875 42.991 24.8044 42.2059C24.2942 41.4207 24.0755 39.3792 23.9297 38.3585C23.784 37.3378 23.3466 36.003 23.7839 34.5897C24.2213 33.1763 25.6062 30.2712 26.3351 29.5645C27.2097 28.8579 30.2711 28.2297 32.8951 29.7216Z" fill="#FCD1B3"/>
<path d="M16.1036 45.8001C16.0378 45.8001 14.1961 44.1352 12.749 42.67C11.3019 41.2049 10.381 39.6065 10.1836 39.4067C9.98631 39.2069 9.7232 37.6085 9.52587 36.876C9.32853 36.21 8.93386 33.5461 9.1312 31.2151C9.32853 28.8176 9.65742 25.6874 9.65742 25.4211C9.65742 25.0881 9.72319 24.2223 9.92052 23.7561C10.1179 23.2899 10.7756 22.7571 10.9072 22.6905C11.0387 22.6239 11.6965 22.4241 11.6965 22.4241C11.6965 22.4241 11.8281 21.6916 11.6965 21.625C11.565 21.5584 11.1045 21.3586 11.1045 21.3586C11.1045 21.3586 10.7099 21.4252 10.6441 21.2254C10.5783 21.0256 10.6441 20.7592 10.8414 20.626C11.0387 20.4928 11.0387 20.3596 11.0387 20.3596C11.0387 20.3596 11.1045 20.0266 11.3019 19.96C11.4334 19.8934 11.4334 19.8934 11.4334 19.8934C11.4334 19.8934 11.4334 19.627 11.6965 19.5604C11.9596 19.4938 12.749 19.4938 12.749 19.4938C12.749 19.4938 12.8805 19.2274 13.2094 19.4272C13.5383 19.5604 14.2618 20.1598 14.3276 20.3596C14.3934 20.5594 14.7223 20.8258 14.7881 21.1588C14.8538 21.4918 15.1827 23.3565 15.1169 23.7561C15.0512 24.1557 13.8672 24.8883 13.4067 25.2879C12.9463 25.6875 12.5516 25.6209 12.3543 26.1536C12.157 26.6864 12.2227 27.8186 12.3543 28.418C12.4858 29.0174 12.8805 32.2807 13.7356 34.6782C14.5907 37.0758 14.7223 37.6085 14.8538 37.8749C14.9854 38.1413 17.0903 39.5399 17.4849 40.3391C17.8796 41.1383 17.5507 45.4671 16.1036 45.8001Z" fill="#FCD1B3"/>
<path d="M33.2057 45.667C33.2057 45.667 32.6795 47.9979 33.6004 50.5287C34.5212 53.126 35.2448 53.7254 35.3763 53.8586C35.5079 53.9918 36.2315 52.2602 37.0208 51.2612C37.8101 50.2623 38.0074 49.5297 38.731 46.666C39.5203 43.8688 40.5728 40.8053 40.6385 39.8729C40.7043 39.0072 40.507 35.9436 40.0465 32.0143C39.5861 28.1516 38.5994 23.6895 38.5994 23.6895C38.5994 23.6895 38.6652 22.4242 38.5994 21.7582C38.4679 21.0922 37.9417 19.2941 37.8759 19.0943C37.8101 18.8945 37.4154 14.4324 37.1523 14.0994C36.8892 13.833 36.7577 13.6332 36.5603 13.6332C36.363 13.6332 36.1657 13.5666 36.1657 14.2326C36.1657 14.832 36.0341 19.4938 36.0999 19.4938C36.1657 19.5604 35.4421 13.9662 35.3763 13.8996C35.3106 13.7664 34.4555 13.7664 34.4555 14.3658C34.4555 14.8986 35.0475 19.2941 35.0475 19.2941C35.0475 19.2941 33.3372 20.4928 33.2057 20.4928C33.0741 20.4928 33.2715 21.6916 33.2715 21.6916L32.3506 20.626C32.3506 20.626 32.219 19.4273 32.0875 19.0943C32.0217 18.7613 31.3639 18.6947 31.2981 18.7613C31.2324 18.8945 31.1666 19.5604 31.1666 19.5604C31.1666 19.5604 30.8377 20.4928 30.9693 21.0256C31.1008 21.4918 32.0217 22.957 32.1533 23.1568C32.2848 23.3566 33.0741 23.8893 33.4688 24.3555C33.9292 24.8217 34.3239 24.9549 34.3239 24.9549C34.3239 24.9549 35.0475 26.2203 35.179 26.9529C35.2448 27.6854 35.5737 33.0799 35.5079 35.0113C35.4421 36.9426 35.5079 39.4733 35.4421 40.0061C35.4421 40.1393 35.3106 40.8719 35.1132 41.4047C34.5212 42.5369 33.4688 45.001 33.2057 45.667Z" fill="#FCD1B3"/>
<path d="M26.757 30.6222C26.757 30.6222 28.4706 30.3172 29.7168 30.6984C31.0409 31.0797 32.1314 30.7747 32.5987 31.6897C33.066 32.6047 33.6891 32.8335 33.6891 33.5197C33.6891 34.206 33.767 35.731 33.767 35.731C33.767 35.731 34.3901 34.7397 34.3901 32.986C34.3901 31.2322 34.8575 30.0884 32.5987 28.2584C30.3399 26.3521 26.9907 27.5722 26.1339 28.3347C24.9656 28.3347 23.4078 30.0884 23.0962 31.5372C22.7847 32.986 22.7068 35.0447 23.0183 36.646C23.5636 36.4935 23.8751 35.8072 23.8751 35.8072C23.8751 35.8072 24.5761 34.2822 25.0434 33.8247C25.5108 33.3672 25.9002 32.5285 25.8223 31.9185C25.9781 31.3084 26.2897 30.6984 26.757 30.6222Z" fill="#81411C"/>
<path d="M24.4237 35.7743C24.4237 35.7743 24.621 35.1083 23.7659 34.7754C22.9766 34.4424 22.9766 35.3747 23.1081 35.9741C23.2397 36.5735 23.7001 37.7723 23.7001 37.9055C23.7001 38.0387 24.3579 38.3051 24.4237 38.0387C24.2921 36.9731 24.4237 36.6401 24.4237 36.6401V35.7743Z" fill="#FFDEC7"/>
<path d="M98.8512 12.5676L98.917 14.6322L4.98677 24.2223L4.00011 23.3566L4.85522 22.4242L98.8512 12.5676Z" fill="#88571C"/>
<path d="M22.6812 81.9628L13.9328 76.8347V68.7097L22.6812 73.7712V81.9628Z" fill="#47333A"/>
<path d="M25.9038 71.9064L17.2212 66.7783L13.9323 68.7097L22.6807 73.7711L25.9038 71.9064Z" fill="#7A6B70"/>
<path d="M22.6812 81.9626L25.9043 80.0312V71.9062L22.6812 73.771V81.9626Z" fill="#190009"/>
<path d="M19.9849 80.0316L14.3938 76.7683V72.173L19.9849 75.4363V80.0316Z" fill="#47333A"/>
<path d="M21.1675 74.7037L15.5764 71.4404L14.3924 72.173L19.9835 75.4363L21.1675 74.7037Z" fill="#7A6B70"/>
<path d="M19.9849 80.0317L21.1689 79.3657V74.7039L19.9849 75.4364V80.0317Z" fill="#190009"/>
<path d="M30.641 45.9331C30.641 45.9331 31.7592 45.4669 31.825 45.7333C31.8908 45.9997 29.9832 50.595 29.5886 52.8594C29.1939 55.1903 24.5895 75.1032 24.5895 75.1032L23.6686 75.5028C23.6686 75.5028 28.0099 54.7241 28.4046 52.7928C28.865 50.928 30.5094 46.4659 30.641 45.9331Z" fill="#190009"/>
<path d="M98.8511 34.6117C100.759 34.6117 102.271 33.08 102.271 31.1486V20.0267C102.271 18.0954 100.759 16.5636 98.8511 16.5636C96.9435 16.5636 95.4306 18.0954 95.4306 20.0267V31.1486C95.4306 33.08 96.9435 34.6117 98.8511 34.6117Z" fill="#1C1C1C"/>
<path d="M95.1024 20.2929V22.4907C95.0366 23.09 95.4313 23.6894 96.2206 24.089C97.6677 24.9548 100.036 24.9548 101.483 24.089C102.272 23.6228 102.601 23.0234 102.535 22.4241V20.2263H102.272C102.206 20.6925 101.877 21.1587 101.286 21.5583C99.97 22.3575 97.7993 22.3575 96.418 21.5583C95.826 21.2253 95.4971 20.7591 95.4313 20.2929H95.1024Z" fill="url(#paint6_linear)"/>
<path d="M95.1062 20.2931C95.1062 20.8259 95.5009 21.4252 96.2244 21.8248C97.6715 22.6906 100.04 22.6906 101.487 21.8248C102.21 21.4252 102.539 20.8925 102.539 20.2931V20.2265C102.539 19.9601 102.408 19.6937 102.276 19.4939V20.1599V20.2265C102.21 20.6927 101.881 21.1589 101.289 21.5584C99.9737 22.3576 97.8031 22.3576 96.4218 21.5584C95.8298 21.2255 95.5009 20.7593 95.4351 20.2931C95.4351 20.2265 95.4351 20.1599 95.4351 20.1599V19.4939C95.2378 19.7603 95.1062 20.0267 95.1062 20.2931Z" fill="#8A9196"/>
<path d="M95.1024 27.5522V29.75C95.0366 30.3494 95.4313 30.9488 96.2206 31.3484C97.6677 32.2141 100.036 32.2141 101.483 31.3484C102.272 30.8822 102.601 30.2828 102.535 29.6834V27.5522H102.272C102.206 28.0184 101.877 28.4846 101.286 28.8842C99.97 29.6834 97.7993 29.6834 96.418 28.8842C95.826 28.5512 95.4971 28.085 95.4313 27.6188L95.1024 27.5522Z" fill="url(#paint7_linear)"/>
<path d="M95.1062 27.552C95.1062 28.0848 95.5009 28.6842 96.2244 29.0838C97.6715 29.9496 100.04 29.9496 101.487 29.0838C102.21 28.6842 102.539 28.1514 102.539 27.6186C102.539 27.552 102.539 27.552 102.539 27.552C102.539 27.2856 102.408 27.0193 102.276 26.8195V27.4854V27.552C102.21 28.0182 101.881 28.4844 101.289 28.884C99.9737 29.6832 97.8031 29.6832 96.4218 28.884C95.8298 28.551 95.5009 28.0848 95.4351 27.6186C95.4351 27.552 95.4351 27.4854 95.4351 27.4854V26.8195C95.2378 27.0193 95.1062 27.2856 95.1062 27.552Z" fill="#8A9196"/>
<path d="M96.484 18.5613C96.6156 19.2273 97.4049 19.5603 98.3258 19.3605C99.1809 19.1607 99.7729 18.4947 99.6414 17.8953C99.5098 17.2294 98.7205 16.8964 97.7996 17.0962C97.0103 17.296 96.3525 17.9619 96.484 18.5613Z" fill="#383838"/>
<path d="M97.7999 12.1678H97.9315C97.9972 12.1678 98.063 12.1012 98.063 12.1012C98.4577 11.8348 99.1155 11.8348 99.5759 12.1012C99.6417 12.1012 99.7075 12.1678 99.7075 12.1678H99.9048V16.6298C99.9048 16.763 99.839 16.9628 99.5759 17.096C99.1812 17.3624 98.5235 17.3624 98.063 17.096C97.8657 16.9628 97.7341 16.763 97.7341 16.6298V12.1678H97.7999Z" fill="url(#paint8_linear)"/>
<path d="M98.0642 12.6339C98.4588 12.9003 99.1166 12.9003 99.577 12.6339C99.9717 12.3675 99.9717 12.0345 99.577 11.7682C99.1824 11.5018 98.5246 11.5018 98.0642 11.7682C97.6695 11.9679 97.6695 12.3675 98.0642 12.6339Z" fill="#7A6B70"/>
<path d="M24.589 70.0417H26.0361L25.9046 70.9741H24.4575L24.589 70.0417Z" fill="#686868"/>
<path d="M16.235 65.2467H17.6821L17.3532 66.0459H15.9061L16.235 65.2467Z" fill="#686868"/>
<path d="M22.6646 33.263C22.6646 33.263 24.139 33.1856 24.7461 34.5777C25.3532 35.9697 25.1797 37.8257 24.8328 38.4444C24.4859 39.063 23.7054 39.527 23.0115 39.527C22.3177 39.6044 21.6239 38.6764 21.4504 38.135C21.2769 37.671 20.8433 33.8043 22.6646 33.263Z" fill="#393939"/>
<path d="M32.8877 28.1271C32.8877 28.1271 31.1492 27.5121 28.5415 27.8196C25.9337 28.1271 24.6694 29.357 24.1953 30.8944C23.7211 32.4318 23.405 33.8155 23.405 33.8155L22.8519 34.0461C22.8519 34.0461 22.6148 30.6638 23.5631 29.972C24.5113 29.2802 24.9855 27.4353 28.2254 27.0509C31.4653 26.7434 32.4926 27.7428 32.8877 28.1271Z" fill="#393939"/>
<path d="M21.8372 34.0467C21.8372 34.0467 23.3433 33.9757 23.9635 35.2548C24.5837 36.5339 24.4065 38.2394 24.0521 38.8079C23.6977 39.3764 22.8118 39.5896 22.103 39.5185C20.5969 39.3053 20.8627 38.1683 20.6855 37.6709C20.5083 37.1735 20.0653 34.4731 21.8372 34.0467Z" fill="#262626"/>
<path d="M22.5641 34.147C22.5641 34.147 23.5798 34.457 23.5798 36.1618C23.6475 37.9441 23.5798 38.7966 22.7672 39.339C22.0224 39.8814 21.4807 39.1065 21.4807 39.1065L21.2776 34.612C21.3453 34.612 21.5484 33.7595 22.5641 34.147Z" fill="#393939"/>
<path d="M21.3412 34.0494C21.3412 34.0494 22.308 34.3839 22.6798 35.6387C23.0516 36.8934 22.6798 39.1519 21.9361 39.4865C21.1925 39.8211 20.6719 38.2318 20.5231 36.8934C20.3744 35.4714 21.1181 33.9657 21.3412 34.0494Z" fill="#262626"/>
<path d="M29.6402 44.283L29.792 44.8682L29.4126 45.537C29.4126 45.537 27.2119 45.8714 26.7566 45.7878C26.3013 45.7042 23.0383 42.1929 22.7348 41.5241C22.5072 40.8553 22.2036 39.434 22.2036 39.434L22.0519 38.9324C22.0519 38.9324 22.5072 38.6816 22.7348 38.7652C22.9625 38.8488 22.9625 38.8488 22.9625 38.8488C22.9625 38.8488 23.4178 41.1061 23.6454 41.2733C23.7972 41.5241 26.7566 44.8682 27.0602 44.8682C27.2878 44.701 29.6402 44.283 29.6402 44.283Z" fill="#393939"/>
<path d="M22.2064 33.2877C22.2064 33.2877 22.4386 27.6756 28.2437 26.993C31.8042 26.993 31.6494 27.3722 32.1138 27.6756C31.959 27.5998 26.8505 26.538 24.5284 29.4199C23.1352 32.3018 22.903 34.0461 22.903 34.0461L22.0516 33.5152L22.2064 33.2877Z" fill="#7B7B7B"/>
</g>
<defs>
<filter id="filter0_di" x="43.4512" y="3.80835" width="135.056" height="128.192" filterUnits="userSpaceOnUse" color-interpolation-filters="sRGB">
<feFlood flood-opacity="0" result="BackgroundImageFix"/>
<feColorMatrix in="SourceAlpha" type="matrix" values="0 0 0 0 0 0 0 0 0 0 0 0 0 0 0 0 0 0 127 0"/>
<feOffset dx="1"/>
<feGaussianBlur stdDeviation="1"/>
<feColorMatrix type="matrix" values="0 0 0 0 0 0 0 0 0 0 0 0 0 0 0 0 0 0 0.15 0"/>
<feBlend mode="normal" in2="BackgroundImageFix" result="effect1_dropShadow"/>
<feBlend mode="normal" in="SourceGraphic" in2="effect1_dropShadow" result="shape"/>
<feColorMatrix in="SourceAlpha" type="matrix" values="0 0 0 0 0 0 0 0 0 0 0 0 0 0 0 0 0 0 127 0" result="hardAlpha"/>
<feOffset dx="-2" dy="-2"/>
<feGaussianBlur stdDeviation="2"/>
<feComposite in2="hardAlpha" operator="arithmetic" k2="-1" k3="1"/>
<feColorMatrix type="matrix" values="0 0 0 0 0 0 0 0 0 0 0 0 0 0 0 0 0 0 0.15 0"/>
<feBlend mode="normal" in2="shape" result="effect2_innerShadow"/>
</filter>
<linearGradient id="paint0_linear" x1="111.063" y1="50.2487" x2="108.142" y2="50.2487" gradientUnits="userSpaceOnUse">
<stop stop-color="#231F22"/>
<stop offset="0.1341" stop-color="#282327"/>
<stop offset="0.2139" stop-color="#2E282D"/>
<stop offset="0.2166" stop-color="#453D44"/>
<stop offset="0.6218" stop-color="#4A4148"/>
<stop offset="0.6291" stop-color="#5D525B"/>
<stop offset="0.7465" stop-color="#6C5F69"/>
<stop offset="0.8431" stop-color="#72646F"/>
<stop offset="0.8899" stop-color="#71646E"/>
<stop offset="0.9159" stop-color="#5E535C"/>
</linearGradient>
<linearGradient id="paint1_linear" x1="111.728" y1="3.46039" x2="107.478" y2="3.46039" gradientUnits="userSpaceOnUse">
<stop stop-color="#231F22"/>
<stop offset="0.1341" stop-color="#282327"/>
<stop offset="0.2139" stop-color="#2E282D"/>
<stop offset="0.2166" stop-color="#453D44"/>
<stop offset="0.6218" stop-color="#4A4148"/>
<stop offset="0.6291" stop-color="#5D525B"/>
<stop offset="0.7465" stop-color="#6C5F69"/>
<stop offset="0.8431" stop-color="#72646F"/>
<stop offset="0.8899" stop-color="#71646E"/>
<stop offset="0.9159" stop-color="#5E535C"/>
</linearGradient>
<linearGradient id="paint2_linear" x1="63.3154" y1="32.5174" x2="134.162" y2="153.714" gradientUnits="userSpaceOnUse">
<stop offset="0.0127577" stop-color="#8FBDF9"/>
<stop offset="0.0608057" stop-color="#6897D5"/>
<stop offset="0.5218" stop-color="#4676B5"/>
<stop offset="0.659" stop-color="#4C7AB5"/>
</linearGradient>
<linearGradient id="paint3_linear" x1="48.7256" y1="42.2623" x2="49.867" y2="44.2148" gradientUnits="userSpaceOnUse">
<stop offset="0.0840532" stop-color="#5E535C"/>
<stop offset="0.1101" stop-color="#71646E"/>
<stop offset="0.1569" stop-color="#72646F"/>
<stop offset="0.2535" stop-color="#6C5F69"/>
<stop offset="0.3709" stop-color="#5D525B"/>
<stop offset="0.3782" stop-color="#4A4148"/>
<stop offset="0.7834" stop-color="#443D43"/>
<stop offset="0.7861" stop-color="#2E282D"/>
<stop offset="0.8659" stop-color="#282327"/>
<stop offset="1" stop-color="#231F22"/>
</linearGradient>
<linearGradient id="paint4_linear" x1="50.055" y1="84.4951" x2="47.1342" y2="84.4951" gradientUnits="userSpaceOnUse">
<stop stop-color="#231F22"/>
<stop offset="0.1341" stop-color="#282327"/>
<stop offset="0.2139" stop-color="#2E282D"/>
<stop offset="0.2166" stop-color="#453D44"/>
<stop offset="0.6218" stop-color="#4A4148"/>
<stop offset="0.6291" stop-color="#5D525B"/>
<stop offset="0.7465" stop-color="#6C5F69"/>
<stop offset="0.8431" stop-color="#72646F"/>
<stop offset="0.8899" stop-color="#71646E"/>
<stop offset="0.9159" stop-color="#5E535C"/>
</linearGradient>
<linearGradient id="paint5_linear" x1="50.7199" y1="37.7068" x2="46.4696" y2="37.7068" gradientUnits="userSpaceOnUse">
<stop stop-color="#231F22"/>
<stop offset="0.1341" stop-color="#282327"/>
<stop offset="0.2139" stop-color="#2E282D"/>
<stop offset="0.2166" stop-color="#453D44"/>
<stop offset="0.6218" stop-color="#4A4148"/>
<stop offset="0.6291" stop-color="#5D525B"/>
<stop offset="0.7465" stop-color="#6C5F69"/>
<stop offset="0.8431" stop-color="#72646F"/>
<stop offset="0.8899" stop-color="#71646E"/>
<stop offset="0.9159" stop-color="#5E535C"/>
</linearGradient>
<linearGradient id="paint6_linear" x1="102.535" y1="22.5096" x2="95.1188" y2="22.5096" gradientUnits="userSpaceOnUse">
<stop offset="0.0840532" stop-color="#777E82"/>
<stop offset="0.1101" stop-color="#899095"/>
<stop offset="0.1569" stop-color="#8A9196"/>
<stop offset="0.2535" stop-color="#848B90"/>
<stop offset="0.3709" stop-color="#767D81"/>
<stop offset="0.3782" stop-color="#656A6E"/>
<stop offset="0.7834" stop-color="#606568"/>
<stop offset="0.7861" stop-color="#4B4F52"/>
<stop offset="0.8659" stop-color="#45494C"/>
<stop offset="1" stop-color="#414547"/>
</linearGradient>
<linearGradient id="paint7_linear" x1="102.535" y1="29.797" x2="95.1188" y2="29.797" gradientUnits="userSpaceOnUse">
<stop offset="0.0840532" stop-color="#777E82"/>
<stop offset="0.1101" stop-color="#899095"/>
<stop offset="0.1569" stop-color="#8A9196"/>
<stop offset="0.2535" stop-color="#848B90"/>
<stop offset="0.3709" stop-color="#767D81"/>
<stop offset="0.3782" stop-color="#656A6E"/>
<stop offset="0.7834" stop-color="#606568"/>
<stop offset="0.7861" stop-color="#4B4F52"/>
<stop offset="0.8659" stop-color="#45494C"/>
<stop offset="1" stop-color="#414547"/>
</linearGradient>
<linearGradient id="paint8_linear" x1="99.8778" y1="14.6004" x2="97.7776" y2="14.6004" gradientUnits="userSpaceOnUse">
<stop stop-color="#231F22"/>
<stop offset="0.1341" stop-color="#282327"/>
<stop offset="0.2139" stop-color="#2E282D"/>
<stop offset="0.2166" stop-color="#453D44"/>
<stop offset="0.6218" stop-color="#4A4148"/>
<stop offset="0.6291" stop-color="#5D525B"/>
<stop offset="0.7465" stop-color="#6C5F69"/>
<stop offset="0.8431" stop-color="#72646F"/>
<stop offset="0.8899" stop-color="#71646E"/>
<stop offset="0.9159" stop-color="#5E535C"/>
</linearGradient>
<clipPath id="clip0">
<rect width="200" height="130" fill="white"/>
</clipPath>
</defs>
</svg>
