<svg width="200" height="130" viewBox="0 0 200 130" fill="none" xmlns="http://www.w3.org/2000/svg">
<g clip-path="url(#clip0)">
<g filter="url(#filter0_d)">
<path d="M87.3369 116.928C86.2602 113.757 87.3347 108.472 91.6386 105.301C94.4622 102.921 101.315 102.764 104.54 105.301C108.84 108.683 109.554 114.461 108.837 116.928L105.615 114.814C105.615 121.579 100.956 127.85 98.089 129.612C92.0684 126.23 90.5632 118.337 90.5632 114.814L87.3369 116.928Z" fill="url(#paint0_linear)"/>
<path d="M98.078 118.364C93.1087 115.382 92.6946 107.183 93.1087 103.456H103.047C103.047 113.395 99.7344 117.536 98.078 118.364Z" fill="#EBB837"/>
<path d="M98.0524 114.522C95.0709 112.51 94.8224 106.977 95.0709 104.462H101.034C101.034 111.169 99.0463 113.963 98.0524 114.522Z" fill="#FFD18B"/>
<path d="M88.9602 103.456L86.9482 100.438H109.08L107.068 103.456H88.9602Z" fill="#71A0DD"/>
<path d="M90.6081 105.468L88.9619 103.456H107.07L105.423 105.468H90.6081Z" fill="#0A3D76"/>
<g filter="url(#filter1_i)">
<path d="M98.4271 81.3245C83.6337 81.3245 73.1956 90.8526 72.8729 108.639C72.8691 108.85 73.1758 108.94 73.2923 108.764C76.0693 104.574 85.6392 97.4202 86.8831 97.4202H109.081C110.006 97.4202 120.036 104.915 122.659 108.62C122.786 108.799 123.159 108.69 123.154 108.471C122.799 90.7927 113.174 81.3245 98.4271 81.3245Z" fill="url(#paint1_linear)"/>
</g>
<g filter="url(#filter2_i)">
<path d="M87.9278 43.0961C78.2564 63.7747 82.5467 89.7067 84.9009 101.443H111.133C113.487 87.3594 117.778 63.7744 108.106 43.0961C104.964 36.3783 101.043 30.0183 98.0164 27.0004C94.9894 30.0183 91.0698 36.3783 87.9278 43.0961Z" fill="#F5F9FF"/>
</g>
<path d="M97.6501 113.007C93.9971 107.369 94.1176 90.2208 98.0145 85.3477C101.915 90.2208 102.037 107.369 98.3792 113.008C98.2048 113.276 97.8243 113.276 97.6501 113.007Z" fill="url(#paint2_linear)"/>
<g filter="url(#filter3_i)">
<path d="M98.0168 27C94.9987 30.018 91.0907 36.378 87.958 43.0958C91.9813 42.0898 101.638 40.6814 108.077 43.0958C104.944 36.3779 101.035 30.018 98.0168 27Z" fill="url(#paint3_linear)"/>
</g>
<g opacity="0.7" filter="url(#filter4_f)">
<path d="M90.9763 41.0844C89.3516 41.0844 93.993 33.0365 97.0109 29.0126C94.8651 32.0305 93.6672 39.7233 92.9866 41.0844C92.877 41.3037 91.9813 41.0844 90.9763 41.0844Z" fill="#F5F9FF"/>
</g>
<g filter="url(#filter5_ii)">
<circle cx="98.0171" cy="58.7614" r="6.35208" fill="#8BE3FF"/>
</g>
<circle cx="98.0171" cy="58.7614" r="6.35208" stroke="#00518B" stroke-width="0.5"/>
<g opacity="0.4" filter="url(#filter6_f)">
<ellipse cx="98.0157" cy="100.438" rx="1.00598" ry="9.05386" fill="white"/>
</g>
</g>
<g filter="url(#filter7_di)">
<path d="M99.2443 13.5211C102.693 13.5211 105.489 10.7182 105.489 7.26057C105.489 3.80296 102.693 1 99.2443 1C95.7957 1 93 3.80296 93 7.26057C93 10.7182 95.7957 13.5211 99.2443 13.5211Z" fill="#73B3FE"/>
<g style="mix-blend-mode:multiply" opacity="0.5">
<path d="M97.0224 6.44519H95.821C95.6291 6.44519 95.4736 6.60112 95.4736 6.79346V10.3458C95.4736 10.5381 95.6291 10.694 95.821 10.694H97.0224C97.2143 10.694 97.3698 10.5381 97.3698 10.3458V6.79346C97.3698 6.60112 97.2143 6.44519 97.0224 6.44519Z" fill="#73B3FE"/>
</g>
<g style="mix-blend-mode:multiply" opacity="0.5">
<path d="M103.071 8.04324C103.071 7.88242 103.008 7.72818 102.894 7.61446C102.781 7.50074 102.627 7.43685 102.466 7.43685H102.532C102.688 7.42413 102.834 7.35279 102.941 7.23701C103.047 7.12124 103.107 6.96952 103.107 6.81203C103.107 6.65454 103.047 6.50281 102.941 6.38704C102.834 6.27126 102.688 6.19992 102.532 6.1872H100.231C100.654 5.68384 100.898 5.05415 100.926 4.39671C100.926 3.2249 100.317 3.04053 100.002 3.04053C99.3402 3.04053 99.6876 3.72886 99.5078 4.2697C99.4138 4.54421 98.9969 4.93345 98.3962 5.63817C98.018 6.00719 97.7846 6.50007 97.7383 7.02713V10.4033C97.7383 10.4848 97.7706 10.5629 97.828 10.6205C97.8855 10.6782 97.9635 10.7105 98.0448 10.7105H102.209C102.269 10.7105 102.329 10.6985 102.385 10.6752C102.441 10.6519 102.492 10.6177 102.534 10.5747C102.577 10.5316 102.61 10.4806 102.633 10.4244C102.656 10.3683 102.667 10.3082 102.667 10.2476C102.667 10.1255 102.619 10.0083 102.533 9.92161C102.447 9.8349 102.331 9.78565 102.209 9.78457H102.352C102.429 9.7912 102.507 9.78167 102.58 9.75658C102.654 9.73149 102.721 9.69138 102.778 9.6388C102.836 9.58622 102.881 9.52232 102.912 9.45113C102.944 9.37995 102.96 9.30305 102.96 9.2253C102.96 9.14755 102.944 9.07064 102.912 8.99946C102.881 8.92828 102.836 8.86437 102.778 8.81179C102.721 8.75921 102.654 8.7191 102.58 8.69401C102.507 8.66891 102.429 8.65939 102.352 8.66602H102.45C102.532 8.66828 102.614 8.65372 102.69 8.62322C102.767 8.59272 102.836 8.54693 102.894 8.48865C102.952 8.43036 102.998 8.3608 103.029 8.28422C103.059 8.20764 103.073 8.12564 103.071 8.04324Z" fill="#73B3FE"/>
</g>
<path d="M97.2705 6.21985H96.069C95.8772 6.21985 95.7217 6.37577 95.7217 6.56812V10.1204C95.7217 10.3128 95.8772 10.4687 96.069 10.4687H97.2705C97.4624 10.4687 97.6179 10.3128 97.6179 10.1204V6.56812C97.6179 6.37577 97.4624 6.21985 97.2705 6.21985Z" fill="white"/>
<path d="M103.316 7.82196C103.316 7.66113 103.252 7.50689 103.139 7.39317C103.026 7.27945 102.872 7.21557 102.711 7.21557H102.76C102.902 7.18703 103.029 7.11022 103.121 6.99818C103.212 6.88615 103.262 6.7458 103.262 6.60098C103.262 6.45617 103.212 6.31582 103.121 6.20378C103.029 6.09175 102.902 6.01494 102.76 5.9864H100.46C100.882 5.48256 101.126 4.85315 101.154 4.1959C101.154 3.0241 100.545 2.83972 100.231 2.83972C99.5687 2.83972 99.9161 3.52806 99.7363 4.06889C99.6423 4.33931 99.2295 4.73264 98.6247 5.43736C98.2474 5.80534 98.014 6.29662 97.9668 6.82223V10.2024C97.9668 10.2839 97.9991 10.3621 98.0566 10.4197C98.1141 10.4774 98.192 10.5097 98.2733 10.5097H102.437C102.56 10.5097 102.677 10.461 102.764 10.3741C102.851 10.2873 102.899 10.1695 102.899 10.0467C102.898 9.92429 102.849 9.80715 102.763 9.72055C102.676 9.63396 102.56 9.58484 102.437 9.58377H102.597C102.674 9.5904 102.752 9.58087 102.825 9.55578C102.899 9.53068 102.966 9.49058 103.023 9.438C103.08 9.38542 103.126 9.32151 103.157 9.25033C103.188 9.17915 103.205 9.10224 103.205 9.02449C103.205 8.94674 103.188 8.86984 103.157 8.79866C103.126 8.72747 103.08 8.66357 103.023 8.61099C102.966 8.55841 102.899 8.5183 102.825 8.49321C102.752 8.46812 102.674 8.45859 102.597 8.46522H102.695C102.779 8.46766 102.862 8.45252 102.94 8.42078C103.018 8.38904 103.089 8.34139 103.147 8.28087C103.205 8.22036 103.251 8.14829 103.28 8.06928C103.309 7.99027 103.321 7.90603 103.316 7.82196Z" fill="white"/>
</g>
<g filter="url(#filter8_di)">
<path d="M128.544 25.5684C130.3 23.8069 130.3 20.9509 128.544 19.1894C126.787 17.4279 123.938 17.4279 122.181 19.1894C120.424 20.9509 120.424 23.8069 122.181 25.5684C123.938 27.3299 126.787 27.3299 128.544 25.5684Z" fill="#73B3FE"/>
<g style="mix-blend-mode:multiply" opacity="0.5">
<path d="M123.762 21.7924H122.9C122.761 21.7924 122.648 21.9052 122.648 22.0444V24.6004C122.648 24.7396 122.761 24.8524 122.9 24.8524H123.762C123.9 24.8524 124.013 24.7396 124.013 24.6004V22.0444C124.013 21.9052 123.9 21.7924 123.762 21.7924Z" fill="#73B3FE"/>
</g>
<g style="mix-blend-mode:multiply" opacity="0.5">
<path d="M128.124 22.942C128.124 22.8261 128.078 22.7152 127.996 22.6334C127.914 22.5517 127.803 22.5058 127.687 22.5058H127.734C127.852 22.5058 127.966 22.4585 128.05 22.3743C128.134 22.2901 128.181 22.1759 128.181 22.0568C128.181 21.9378 128.134 21.8236 128.05 21.7394C127.966 21.6552 127.852 21.6079 127.734 21.6079H126.078C126.382 21.2443 126.558 20.7902 126.578 20.3161C126.578 19.4691 126.137 19.3378 125.911 19.3378C125.434 19.3378 125.685 19.8354 125.556 20.2145C125.488 20.4093 125.188 20.691 124.756 21.1992C124.439 21.5698 124.28 21.8832 124.28 22.1987V24.634C124.28 24.6628 124.286 24.6912 124.297 24.7176C124.309 24.744 124.325 24.7678 124.346 24.7876C124.367 24.8075 124.391 24.8228 124.418 24.8328C124.445 24.8428 124.473 24.8472 124.502 24.8458H127.501C127.589 24.8452 127.674 24.8097 127.736 24.7471C127.798 24.6844 127.833 24.5996 127.833 24.5112C127.832 24.4232 127.797 24.339 127.735 24.2767C127.673 24.2145 127.589 24.1793 127.501 24.1787H127.615C127.671 24.1828 127.726 24.1753 127.778 24.1569C127.831 24.1384 127.879 24.1093 127.919 24.0715C127.96 24.0336 127.992 23.9878 128.014 23.9368C128.037 23.8859 128.048 23.8309 128.048 23.7753C128.048 23.7197 128.037 23.6648 128.014 23.6138C127.992 23.5628 127.96 23.517 127.919 23.4792C127.879 23.4413 127.831 23.4122 127.778 23.3938C127.726 23.3753 127.671 23.3679 127.615 23.3719H127.687C127.802 23.3719 127.912 23.3269 127.993 23.2465C128.075 23.1661 128.122 23.0568 128.124 22.942Z" fill="#73B3FE"/>
</g>
<path d="M123.936 21.6292H123.075C122.936 21.6292 122.823 21.742 122.823 21.8812V24.4372C122.823 24.5763 122.936 24.6892 123.075 24.6892H123.936C124.075 24.6892 124.188 24.5763 124.188 24.4372V21.8812C124.188 21.742 124.075 21.6292 123.936 21.6292Z" fill="white"/>
<path d="M128.304 22.7791C128.304 22.6634 128.258 22.5524 128.176 22.4706C128.095 22.3888 127.984 22.3428 127.869 22.3428H127.915C127.974 22.3428 128.032 22.3312 128.087 22.3086C128.141 22.2861 128.19 22.253 128.232 22.2113C128.273 22.1696 128.306 22.1201 128.329 22.0657C128.351 22.0112 128.363 21.9528 128.363 21.8939C128.363 21.8349 128.351 21.7765 128.329 21.7221C128.306 21.6676 128.273 21.6181 128.232 21.5764C128.19 21.5347 128.141 21.5017 128.087 21.4791C128.032 21.4565 127.974 21.4449 127.915 21.4449H126.259C126.563 21.0813 126.739 20.6273 126.76 20.1532C126.76 19.3061 126.318 19.1748 126.092 19.1748C125.615 19.1748 125.866 19.6725 125.738 20.0515C125.67 20.2463 125.37 20.528 124.937 21.0362C124.62 21.4068 124.462 21.7202 124.462 22.0358V24.4711C124.462 24.4998 124.468 24.5282 124.479 24.5546C124.49 24.581 124.507 24.6049 124.527 24.6247C124.548 24.6445 124.573 24.6599 124.6 24.6699C124.626 24.6799 124.655 24.6843 124.684 24.6828H127.67C127.758 24.6823 127.843 24.6468 127.905 24.5841C127.967 24.5214 128.002 24.4366 128.002 24.3482C127.999 24.2617 127.963 24.1796 127.901 24.1192C127.839 24.0588 127.757 24.0247 127.67 24.0242H127.784C127.84 24.0283 127.895 24.0208 127.947 24.0024C128 23.9839 128.048 23.9548 128.088 23.917C128.129 23.8791 128.161 23.8333 128.183 23.7823C128.205 23.7314 128.217 23.6764 128.217 23.6208C128.217 23.5652 128.205 23.5103 128.183 23.4593C128.161 23.4084 128.129 23.3625 128.088 23.3247C128.048 23.2868 128 23.2578 127.947 23.2393C127.895 23.2208 127.84 23.2134 127.784 23.2174H127.856C127.914 23.2188 127.972 23.2085 128.027 23.1871C128.081 23.1657 128.13 23.1337 128.172 23.0928C128.214 23.052 128.247 23.0032 128.27 22.9493C128.292 22.8954 128.304 22.8375 128.304 22.7791Z" fill="white"/>
</g>
<g filter="url(#filter9_di)">
<path d="M72.3701 37.5136C73.0362 34.6995 71.3008 31.8769 68.4941 31.2091C65.6874 30.5413 62.8721 32.2812 62.206 35.0952C61.54 37.9093 63.2753 40.7319 66.082 41.3997C68.8888 42.0675 71.704 40.3277 72.3701 37.5136Z" fill="#FE5F71"/>
<g style="mix-blend-mode:multiply" opacity="0.5">
<path d="M67.2095 35.1864C67.0608 34.853 66.803 34.5806 66.4786 34.4144C66.1543 34.2483 65.783 34.1983 65.4265 34.2728C65.0699 34.3474 64.7495 34.5419 64.5185 34.8242C64.2874 35.1065 64.1596 35.4596 64.1562 35.8247C64.1562 37.7486 66.398 39.4208 67.2095 39.4208C68.021 39.4208 70.2627 37.7307 70.2627 35.8247C70.2593 35.4596 70.1315 35.1065 69.9005 34.8242C69.6694 34.5419 69.349 34.3474 68.9924 34.2728C68.6359 34.1983 68.2646 34.2483 67.9403 34.4144C67.616 34.5806 67.3581 34.853 67.2095 35.1864Z" fill="#FE5F71"/>
</g>
<path d="M67.3686 34.9258C67.2198 34.5921 66.9616 34.3195 66.6368 34.1534C66.312 33.9872 65.9403 33.9376 65.5835 34.0127C65.2267 34.0879 64.9063 34.2832 64.6756 34.5663C64.4449 34.8493 64.3178 35.203 64.3154 35.5686C64.3154 37.488 66.5571 39.1647 67.3686 39.1647C68.1801 39.1647 70.4263 37.47 70.4263 35.5686C70.4263 35.2012 70.3002 34.8451 70.0692 34.5599C69.8382 34.2748 69.5164 34.078 69.1578 34.0026C68.7992 33.9272 68.4256 33.9778 68.0998 34.1459C67.774 34.314 67.5159 34.5894 67.3686 34.9258Z" fill="white"/>
</g>
<g filter="url(#filter10_di)">
<path d="M119.811 14.7146C120.468 10.6665 117.727 6.85099 113.689 6.19243C109.652 5.53388 105.846 8.28167 105.189 12.3298C104.532 16.3779 107.273 20.1934 111.311 20.852C115.348 21.5105 119.154 18.7627 119.811 14.7146Z" fill="#FE5F71"/>
<g style="mix-blend-mode:multiply" opacity="0.5">
<path d="M112.401 11.9469C112.194 11.4699 111.829 11.0788 111.369 10.8392C110.908 10.5997 110.38 10.5262 109.871 10.6313C109.363 10.7363 108.907 11.0135 108.578 11.4161C108.25 11.8188 108.069 12.3225 108.067 12.8427C108.067 15.5301 111.257 17.9667 112.401 17.9667C113.544 17.9667 116.734 15.566 116.734 12.8427C116.732 12.3225 116.552 11.8188 116.223 11.4161C115.895 11.0135 115.438 10.7363 114.93 10.6313C114.422 10.5262 113.893 10.5997 113.433 10.8392C112.972 11.0788 112.608 11.4699 112.401 11.9469Z" fill="#FE5F71"/>
</g>
<path d="M112.62 11.5885C112.413 11.1115 112.049 10.7204 111.589 10.4808C111.128 10.2413 110.599 10.1678 110.091 10.2729C109.583 10.3779 109.126 10.6551 108.798 11.0577C108.469 11.4604 108.289 11.9641 108.287 12.4843C108.287 15.1717 111.486 17.6172 112.62 17.6172C113.755 17.6172 116.954 15.2165 116.954 12.4843C116.952 11.9641 116.771 11.4604 116.443 11.0577C116.115 10.6551 115.658 10.3779 115.15 10.2729C114.642 10.1678 114.113 10.2413 113.652 10.4808C113.192 10.7204 112.827 11.1115 112.62 11.5885Z" fill="white"/>
</g>
<g filter="url(#filter11_di)">
<path d="M84.5 18.0339C88.0899 18.0339 91 15.1162 91 11.517C91 7.91774 88.0899 5 84.5 5C80.9101 5 78 7.91774 78 11.517C78 15.1162 80.9101 18.0339 84.5 18.0339Z" fill="#FE5F71"/>
<g style="mix-blend-mode:multiply" opacity="0.5">
<path d="M84.3989 10.1282C84.2141 9.71225 83.8927 9.37231 83.4883 9.16502C83.0838 8.95774 82.6208 8.89561 82.1763 8.989C81.7317 9.08239 81.3325 9.32565 81.0451 9.67827C80.7577 10.0309 80.5994 10.4716 80.5967 10.927C80.5967 13.3186 83.394 15.4244 84.3989 15.4244C85.4038 15.4244 88.2011 13.3186 88.2011 10.927C88.1984 10.4716 88.0401 10.0309 87.7527 9.67827C87.4653 9.32565 87.0661 9.08239 86.6216 8.989C86.177 8.89561 85.714 8.95774 85.3095 9.16502C84.9051 9.37231 84.5837 9.71225 84.3989 10.1282Z" fill="#FE5F71"/>
</g>
<path d="M84.5995 9.815C84.4164 9.39736 84.0957 9.05554 83.6911 8.84691C83.2865 8.63828 82.8226 8.57552 82.3773 8.66918C81.932 8.76283 81.5324 9.0072 81.2455 9.36127C80.9586 9.71534 80.802 10.1576 80.8018 10.6137C80.8018 13.0054 83.5991 15.1112 84.5995 15.1112C85.5998 15.1112 88.4017 13.0054 88.4017 10.6137C88.3989 10.1584 88.2407 9.71766 87.9533 9.36504C87.6659 9.01242 87.2666 8.76916 86.8221 8.67577C86.3776 8.58239 85.9145 8.64451 85.5101 8.8518C85.1057 9.05908 84.7843 9.39902 84.5995 9.815Z" fill="white"/>
</g>
<g filter="url(#filter12_di)">
<path d="M82.4779 37C87.1601 37 90.9558 33.1944 90.9558 28.5C90.9558 23.8056 87.1601 20 82.4779 20C77.7957 20 74 23.8056 74 28.5C74 33.1944 77.7957 37 82.4779 37Z" fill="#FE5F71"/>
<g style="mix-blend-mode:multiply" opacity="0.5">
<path d="M82.342 26.665C82.1092 26.1056 81.6886 25.6455 81.1531 25.3641C80.6176 25.0828 80.0008 24.998 79.4096 25.1244C78.8183 25.2508 78.2897 25.5805 77.9153 26.0564C77.5409 26.5324 77.3442 27.1245 77.3592 27.7305C77.3592 30.8499 81.0137 33.5964 82.3184 33.5964C83.6231 33.5964 87.2776 30.8499 87.2776 27.7305C87.2679 27.1438 87.0605 26.5776 86.689 26.1241C86.3175 25.6707 85.8039 25.3566 85.2317 25.2331C84.6595 25.1096 84.0625 25.1839 83.5378 25.4439C83.0131 25.7039 82.5917 26.1343 82.342 26.665Z" fill="#FE5F71"/>
</g>
<path d="M82.6077 26.2801C82.3666 25.7376 81.9474 25.2942 81.4199 25.0238C80.8924 24.7535 80.2885 24.6724 79.7087 24.7942C79.1288 24.916 78.6082 25.2333 78.2333 25.6932C77.8584 26.1532 77.652 26.728 77.6484 27.3219C77.6484 30.4413 81.3029 33.1879 82.6077 33.1879C83.9124 33.1879 87.5669 30.4413 87.5669 27.3219C87.5633 26.728 87.3569 26.1532 86.982 25.6932C86.6071 25.2333 86.0865 24.916 85.5066 24.7942C84.9268 24.6724 84.3229 24.7535 83.7954 25.0238C83.2679 25.2942 82.8487 25.7376 82.6077 26.2801Z" fill="white"/>
</g>
<g filter="url(#filter13_di)">
<path d="M128.5 39.0235C130.985 39.0235 133 37.0035 133 34.5117C133 32.02 130.985 30 128.5 30C126.015 30 124 32.02 124 34.5117C124 37.0035 126.015 39.0235 128.5 39.0235Z" fill="#FE5F71"/>
<g style="mix-blend-mode:multiply" opacity="0.5">
<path d="M128.43 33.5471C128.302 33.2592 128.08 33.0238 127.8 32.8803C127.52 32.7368 127.199 32.6938 126.891 32.7584C126.584 32.8231 126.307 32.9915 126.108 33.2356C125.909 33.4797 125.8 33.7848 125.798 34.1001C125.798 35.7559 127.734 37.2137 128.43 37.2137C129.126 37.2137 131.062 35.7559 131.062 34.1001C131.061 33.7848 130.951 33.4797 130.752 33.2356C130.553 32.9915 130.277 32.8231 129.969 32.7584C129.661 32.6938 129.341 32.7368 129.061 32.8803C128.781 33.0238 128.558 33.2592 128.43 33.5471Z" fill="#FE5F71"/>
</g>
<path d="M128.57 33.3334C128.442 33.0454 128.219 32.8101 127.939 32.6666C127.659 32.5231 127.339 32.48 127.031 32.5447C126.723 32.6094 126.447 32.7778 126.248 33.0219C126.049 33.266 125.939 33.5711 125.938 33.8864C125.938 35.5421 127.874 37 128.57 37C129.265 37 131.215 35.5421 131.215 33.9021C131.223 33.5802 131.12 33.2653 130.921 33.0121C130.723 32.7589 130.442 32.5833 130.128 32.5158C129.814 32.4482 129.486 32.493 129.202 32.6424C128.917 32.7917 128.693 33.0362 128.57 33.3334Z" fill="white"/>
</g>
<g filter="url(#filter14_di)">
<path d="M98.1776 24.3718C99.9326 24.3718 101.355 22.9454 101.355 21.1859C101.355 19.4264 99.9326 18 98.1776 18C96.4227 18 95 19.4264 95 21.1859C95 22.9454 96.4227 24.3718 98.1776 24.3718Z" fill="#73B3FE"/>
<g style="mix-blend-mode:multiply" opacity="0.5">
<path d="M97.0465 20.7712H96.4387C96.3404 20.7712 96.2607 20.8511 96.2607 20.9497V22.7546C96.2607 22.8531 96.3404 22.933 96.4387 22.933H97.0465C97.1448 22.933 97.2244 22.8531 97.2244 22.7546V20.9497C97.2244 20.8511 97.1448 20.7712 97.0465 20.7712Z" fill="#73B3FE"/>
</g>
<g style="mix-blend-mode:multiply" opacity="0.5">
<path d="M100.127 21.5775C100.127 21.4958 100.095 21.4174 100.037 21.3596C99.9794 21.3018 99.9012 21.2694 99.8197 21.2694H99.8521C99.936 21.2694 100.017 21.2359 100.076 21.1764C100.135 21.1169 100.169 21.0361 100.169 20.9519C100.169 20.8678 100.135 20.787 100.076 20.7275C100.017 20.6679 99.936 20.6345 99.8521 20.6345H98.6804C98.8949 20.3782 99.0191 20.0582 99.034 19.7239C99.034 19.1284 98.7243 19.0288 98.5718 19.0288C98.2367 19.0288 98.4146 19.3787 98.3222 19.6475C98.1593 19.8992 97.9694 20.1323 97.756 20.3426C97.5638 20.5305 97.4449 20.7812 97.4209 21.0493V22.7685C97.4209 22.7891 97.425 22.8094 97.4329 22.8284C97.4408 22.8474 97.4524 22.8646 97.4671 22.8791C97.4817 22.8935 97.499 22.9049 97.5181 22.9126C97.5371 22.9202 97.5575 22.924 97.578 22.9237H99.6949C99.7562 22.9237 99.815 22.8993 99.8583 22.8559C99.9017 22.8124 99.926 22.7535 99.926 22.692C99.926 22.6306 99.9017 22.5716 99.8583 22.5282C99.815 22.4847 99.7562 22.4603 99.6949 22.4603H99.7781C99.8535 22.4603 99.9258 22.4303 99.9791 22.3768C100.032 22.3234 100.062 22.2509 100.062 22.1753C100.062 22.0997 100.032 22.0273 99.9791 21.9738C99.9258 21.9204 99.8535 21.8903 99.7781 21.8903H99.829C99.9095 21.8873 99.9856 21.853 100.041 21.7946C100.097 21.7362 100.128 21.6583 100.127 21.5775Z" fill="#73B3FE"/>
</g>
<path d="M97.1715 20.6554H96.5637C96.4654 20.6554 96.3857 20.7353 96.3857 20.8338V22.6388C96.3857 22.7373 96.4654 22.8172 96.5637 22.8172H97.1715C97.2698 22.8172 97.3494 22.7373 97.3494 22.6388V20.8338C97.3494 20.7353 97.2698 20.6554 97.1715 20.6554Z" fill="white"/>
<path d="M100.251 21.4686C100.251 21.3869 100.219 21.3085 100.161 21.2507C100.103 21.193 100.025 21.1605 99.9437 21.1605H99.9761C100.06 21.1605 100.141 21.127 100.2 21.0675C100.259 21.008 100.293 20.9272 100.293 20.8431C100.293 20.7589 100.259 20.6781 100.2 20.6186C100.141 20.5591 100.06 20.5256 99.9761 20.5256H98.8044C99.0193 20.2687 99.1436 19.9478 99.158 19.6127C99.158 19.0172 98.8483 18.9176 98.6958 18.9176C98.3607 18.9176 98.5387 19.2698 98.4462 19.5362C98.2841 19.7885 98.0941 20.0217 97.88 20.2314C97.6898 20.416 97.571 20.6623 97.5449 20.9265V22.6457C97.5449 22.6664 97.549 22.6869 97.5569 22.706C97.5648 22.7251 97.5764 22.7425 97.5909 22.7571C97.6055 22.7717 97.6229 22.7833 97.6419 22.7913C97.661 22.7992 97.6814 22.8033 97.7021 22.8033H99.8189C99.8802 22.8033 99.939 22.7788 99.9824 22.7354C100.026 22.6919 100.05 22.633 100.05 22.5716C100.05 22.5101 100.026 22.4512 99.9824 22.4077C99.939 22.3643 99.8802 22.3399 99.8189 22.3399H99.9021C99.9734 22.3334 100.04 22.3005 100.088 22.2475C100.136 22.1946 100.163 22.1254 100.163 22.0537C100.163 21.982 100.136 21.9128 100.088 21.8599C100.04 21.8069 99.9734 21.774 99.9021 21.7675H99.953C100.031 21.7652 100.106 21.733 100.161 21.6774C100.217 21.6219 100.249 21.5472 100.251 21.4686Z" fill="white"/>
</g>
<g filter="url(#filter15_di)">
<path d="M124.745 45.421C125.491 42.2663 123.546 39.1025 120.399 38.3545C117.253 37.6064 114.097 39.5574 113.351 42.712C112.605 45.8667 114.551 49.0305 117.697 49.7786C120.844 50.5266 123.999 48.5757 124.745 45.421Z" fill="#73B3FE"/>
<g style="mix-blend-mode:multiply" opacity="0.5">
<path d="M116.959 43.3033H115.833C115.654 43.3033 115.509 43.4489 115.509 43.6285V46.9655C115.509 47.145 115.654 47.2906 115.833 47.2906H116.959C117.138 47.2906 117.283 47.145 117.283 46.9655V43.6285C117.283 43.4489 117.138 43.3033 116.959 43.3033Z" fill="#73B3FE"/>
</g>
<g style="mix-blend-mode:multiply" opacity="0.5">
<path d="M122.638 44.8001C122.638 44.7252 122.624 44.651 122.595 44.5818C122.566 44.5126 122.524 44.4497 122.472 44.3967C122.419 44.3437 122.356 44.3017 122.287 44.273C122.218 44.2444 122.144 44.2296 122.069 44.2296H122.13C122.285 44.2296 122.432 44.1682 122.541 44.0589C122.65 43.9496 122.712 43.8014 122.712 43.6469C122.712 43.4923 122.65 43.3441 122.541 43.2348C122.432 43.1255 122.285 43.0641 122.13 43.0641H119.971C120.368 42.5917 120.598 42.0007 120.625 41.3833C120.625 40.2853 120.05 40.1074 119.757 40.1074C119.145 40.1074 119.463 40.7576 119.292 41.2484C118.995 41.714 118.646 42.1441 118.251 42.5304C117.899 42.8769 117.682 43.3381 117.64 43.8309V47.0023C117.64 47.0787 117.67 47.1521 117.724 47.2061C117.778 47.2602 117.851 47.2906 117.927 47.2906H121.831C121.888 47.2906 121.944 47.2793 121.997 47.2574C122.05 47.2355 122.097 47.2035 122.138 47.163C122.178 47.1226 122.21 47.0746 122.232 47.0217C122.254 46.9689 122.265 46.9122 122.265 46.855C122.265 46.7979 122.254 46.7412 122.232 46.6884C122.21 46.6355 122.178 46.5875 122.138 46.5471C122.097 46.5066 122.05 46.4746 121.997 46.4527C121.944 46.4308 121.888 46.4195 121.831 46.4195H121.965C122.094 46.4055 122.214 46.3442 122.3 46.2474C122.387 46.1506 122.435 46.0251 122.435 45.895C122.435 45.765 122.387 45.6395 122.3 45.5427C122.214 45.4459 122.094 45.3846 121.965 45.3706H122.057C122.133 45.3722 122.208 45.3587 122.279 45.3307C122.349 45.3028 122.413 45.261 122.467 45.2079C122.521 45.1547 122.564 45.0913 122.594 45.0213C122.623 44.9512 122.638 44.876 122.638 44.8001Z" fill="#73B3FE"/>
</g>
<path d="M117.192 43.0887H116.066C115.887 43.0887 115.742 43.2343 115.742 43.4139V46.7447C115.742 46.9243 115.887 47.0698 116.066 47.0698H117.192C117.371 47.0698 117.516 46.9243 117.516 46.7447V43.4139C117.516 43.2343 117.371 43.0887 117.192 43.0887Z" fill="white"/>
<path d="M122.863 44.5855C122.863 44.4358 122.803 44.2922 122.698 44.1864C122.592 44.0806 122.449 44.0211 122.3 44.0211H122.361C122.486 43.9823 122.595 43.9045 122.672 43.7991C122.75 43.6937 122.791 43.5662 122.791 43.4353C122.791 43.3044 122.75 43.1769 122.672 43.0715C122.595 42.9661 122.486 42.8883 122.361 42.8495H120.201C120.599 42.3771 120.829 41.7861 120.856 41.1687C120.856 40.0707 120.281 39.8989 119.987 39.8989C119.375 39.8989 119.693 40.543 119.522 41.0338C119.226 41.5017 118.877 41.9339 118.482 42.3219C118.128 42.6674 117.911 43.1292 117.87 43.6224V46.7876C117.87 46.8641 117.9 46.9374 117.954 46.9915C118.008 47.0456 118.081 47.076 118.158 47.076H122.061C122.176 47.076 122.287 47.0301 122.368 46.9484C122.45 46.8667 122.496 46.7559 122.496 46.6404C122.496 46.5835 122.484 46.5272 122.462 46.4747C122.44 46.4222 122.408 46.3746 122.368 46.3346C122.328 46.2947 122.28 46.2632 122.227 46.2419C122.174 46.2207 122.118 46.2102 122.061 46.211H122.208C122.348 46.211 122.481 46.1555 122.58 46.0565C122.679 45.9576 122.734 45.8234 122.734 45.6835C122.734 45.5436 122.679 45.4094 122.58 45.3105C122.481 45.2115 122.348 45.1559 122.208 45.1559H122.306C122.38 45.1551 122.453 45.1398 122.521 45.1106C122.589 45.0815 122.65 45.0393 122.702 44.9863C122.754 44.9334 122.795 44.8707 122.822 44.8019C122.85 44.7331 122.863 44.6596 122.863 44.5855Z" fill="white"/>
</g>
<g filter="url(#filter16_di)">
<path d="M74.7166 19.9712C75.1206 17.4836 73.4369 15.1386 70.9557 14.7335C68.4746 14.3284 66.1357 16.0165 65.7316 18.5041C65.3276 20.9917 67.0113 23.3367 69.4925 23.7419C71.9736 24.147 74.3125 22.4588 74.7166 19.9712Z" fill="#73B3FE"/>
<g style="mix-blend-mode:multiply" opacity="0.5">
<path d="M68.6018 18.6351H67.7267C67.5875 18.6351 67.4746 18.7483 67.4746 18.8879V21.4772C67.4746 21.6168 67.5875 21.7299 67.7267 21.7299H68.6018C68.741 21.7299 68.8539 21.6168 68.8539 21.4772V18.8879C68.8539 18.7483 68.741 18.6351 68.6018 18.6351Z" fill="#73B3FE"/>
</g>
<g style="mix-blend-mode:multiply" opacity="0.5">
<path d="M73.0157 19.7987C73.0144 19.6819 72.9673 19.5703 72.8844 19.4882C72.8016 19.4061 72.6898 19.36 72.5733 19.36H72.6209C72.7178 19.3298 72.8026 19.2693 72.8628 19.1874C72.923 19.1055 72.9555 19.0064 72.9555 18.9046C72.9555 18.8028 72.923 18.7037 72.8628 18.6218C72.8026 18.5399 72.7178 18.4794 72.6209 18.4492H70.942C71.2509 18.082 71.4299 17.6225 71.4509 17.1426C71.4509 16.289 71.0038 16.1555 70.7755 16.1555C70.2999 16.1555 70.5472 16.6562 70.414 17.0377C70.1837 17.4015 69.9124 17.7375 69.6055 18.0391C69.3317 18.3064 69.1629 18.6635 69.1299 19.0453V21.5106C69.1299 21.5701 69.1534 21.6271 69.1954 21.6691C69.2373 21.7111 69.2941 21.7347 69.3534 21.7347H72.3879C72.4774 21.7347 72.5633 21.6991 72.6266 21.6356C72.69 21.5721 72.7255 21.486 72.7255 21.3962C72.7255 21.3519 72.7168 21.3081 72.6998 21.2673C72.6827 21.2265 72.6578 21.1895 72.6264 21.1584C72.5949 21.1274 72.5577 21.1029 72.5167 21.0864C72.4758 21.0699 72.432 21.0617 72.3879 21.0624H72.5068C72.6152 21.0624 72.7193 21.0192 72.796 20.9423C72.8727 20.8654 72.9158 20.761 72.9158 20.6523C72.9158 20.5435 72.8727 20.4392 72.796 20.3623C72.7193 20.2854 72.6152 20.2422 72.5068 20.2422H72.5971C72.7103 20.2361 72.8168 20.1867 72.8946 20.1042C72.9725 20.0216 73.0158 19.9123 73.0157 19.7987Z" fill="#73B3FE"/>
</g>
<path d="M68.7815 18.473H67.9064C67.7672 18.473 67.6543 18.5862 67.6543 18.7258V21.3199C67.6543 21.4594 67.7672 21.5726 67.9064 21.5726H68.7815C68.9207 21.5726 69.0336 21.4594 69.0336 21.3199V18.7258C69.0336 18.5862 68.9207 18.473 68.7815 18.473Z" fill="white"/>
<path d="M73.1921 19.6366C73.1921 19.5198 73.1461 19.4077 73.0642 19.3247C72.9823 19.2417 72.871 19.1944 72.7545 19.1931H72.8021C72.899 19.1629 72.9838 19.1025 73.044 19.0205C73.1042 18.9386 73.1366 18.8395 73.1366 18.7377C73.1366 18.636 73.1042 18.5369 73.044 18.4549C72.9838 18.373 72.899 18.3125 72.8021 18.2823H71.1232C71.4379 17.9174 71.622 17.4575 71.6463 16.9757C71.6463 16.1222 71.204 15.9886 70.9757 15.9886C70.5001 15.9886 70.7474 16.4941 70.6142 16.8756C70.3821 17.2366 70.1109 17.5708 69.8057 17.8722C69.532 18.1415 69.3633 18.5001 69.3301 18.8832V21.3437C69.3301 21.4032 69.3536 21.4602 69.3956 21.5022C69.4375 21.5443 69.4943 21.5679 69.5536 21.5679H72.5881C72.6764 21.5679 72.761 21.5327 72.8235 21.4701C72.8859 21.4075 72.921 21.3226 72.921 21.2341C72.9216 21.1898 72.9135 21.1459 72.897 21.1049C72.8806 21.0638 72.8561 21.0264 72.8252 20.9949C72.7942 20.9634 72.7573 20.9384 72.7166 20.9214C72.6759 20.9043 72.6322 20.8955 72.5881 20.8955H72.7022C72.8107 20.8955 72.9147 20.8523 72.9914 20.7754C73.0681 20.6985 73.1112 20.5942 73.1112 20.4854C73.1112 20.3766 73.0681 20.2723 72.9914 20.1954C72.9147 20.1185 72.8107 20.0753 72.7022 20.0753H72.7783C72.8902 20.0692 72.9955 20.0203 73.0724 19.9387C73.1494 19.8571 73.1922 19.7489 73.1921 19.6366Z" fill="white"/>
</g>
<g filter="url(#filter17_di)">
<path d="M116.069 33.1005C118.291 30.8729 118.291 27.2612 116.069 25.0335C113.847 22.8059 110.245 22.8059 108.023 25.0335C105.801 27.2612 105.801 30.8729 108.023 33.1005C110.245 35.3281 113.847 35.3281 116.069 33.1005Z" fill="#FE5F71"/>
<g style="mix-blend-mode:multiply" opacity="0.5">
<path d="M111.957 27.8522C111.796 27.488 111.514 27.1904 111.16 27.0088C110.806 26.8273 110.401 26.7728 110.012 26.8545C109.623 26.9362 109.273 27.1491 109.022 27.4577C108.77 27.7664 108.631 28.1521 108.629 28.5508C108.629 30.6465 111.08 32.4859 111.957 32.4859C112.835 32.4859 115.286 30.6465 115.286 28.5508C115.283 28.1521 115.145 27.7664 114.893 27.4577C114.641 27.1491 114.292 26.9362 113.903 26.8545C113.514 26.7728 113.108 26.8273 112.754 27.0088C112.4 27.1904 112.119 27.488 111.957 27.8522Z" fill="#FE5F71"/>
</g>
<path d="M112.135 27.5807C111.973 27.2165 111.692 26.9189 111.338 26.7373C110.984 26.5558 110.579 26.5013 110.19 26.583C109.8 26.6647 109.451 26.8776 109.199 27.1862C108.948 27.4949 108.809 27.8806 108.807 28.2793C108.807 30.37 111.258 32.2144 112.135 32.2144C113.012 32.2144 115.463 30.37 115.463 28.2793C115.461 27.8806 115.322 27.4949 115.071 27.1862C114.819 26.8776 114.47 26.6647 114.08 26.583C113.691 26.5013 113.286 26.5558 112.932 26.7373C112.578 26.9189 112.297 27.2165 112.135 27.5807Z" fill="white"/>
</g>
<g filter="url(#filter18_di)">
<path d="M82.7031 50.75C85.0442 48.4028 85.0442 44.5972 82.7031 42.25C80.362 39.9028 76.5664 39.9028 74.2253 42.25C71.8842 44.5972 71.8842 48.4028 74.2253 50.75C76.5664 53.0972 80.362 53.0972 82.7031 50.75Z" fill="#73B3FE"/>
<g style="mix-blend-mode:multiply" opacity="0.5">
<path d="M76.3346 45.7208H75.1811C74.997 45.7208 74.8477 45.8705 74.8477 46.0552V49.4655C74.8477 49.6502 74.997 49.7999 75.1811 49.7999H76.3346C76.5188 49.7999 76.6681 49.6502 76.6681 49.4655V46.0552C76.6681 45.8705 76.5188 45.7208 76.3346 45.7208Z" fill="#73B3FE"/>
</g>
<g style="mix-blend-mode:multiply" opacity="0.5">
<path d="M82.1443 47.2511C82.1443 47.0967 82.0831 46.9486 81.9742 46.8394C81.8653 46.7302 81.7176 46.6689 81.5636 46.6689H81.6264C81.7117 46.6829 81.7991 46.6782 81.8824 46.655C81.9657 46.6318 82.043 46.5907 82.1089 46.5346C82.1748 46.4784 82.2278 46.4086 82.2641 46.3299C82.3004 46.2512 82.3192 46.1656 82.3192 46.0789C82.3192 45.9922 82.3004 45.9065 82.2641 45.8279C82.2278 45.7492 82.1748 45.6793 82.1089 45.6232C82.043 45.5671 81.9657 45.526 81.8824 45.5028C81.7991 45.4796 81.7117 45.4748 81.6264 45.4889H79.4176C79.8232 45.0039 80.0577 44.3983 80.0846 43.766C80.0846 42.6449 79.4961 42.464 79.194 42.464C78.5623 42.464 78.8958 43.1288 78.7232 43.644C78.633 43.9037 78.2328 44.2813 77.6561 44.9578C77.2927 45.3103 77.0684 45.7824 77.0244 46.2874V49.5325C77.0244 49.6108 77.0554 49.6858 77.1106 49.7411C77.1658 49.7964 77.2406 49.8275 77.3187 49.8275H81.3126C81.3728 49.8276 81.4324 49.8154 81.4878 49.7916C81.5432 49.7678 81.5932 49.7329 81.6347 49.6891C81.6762 49.6453 81.7083 49.5935 81.7291 49.5368C81.75 49.4801 81.7591 49.4198 81.7559 49.3594C81.7559 49.2415 81.7092 49.1285 81.626 49.0451C81.5429 48.9618 81.4301 48.9149 81.3126 48.9149H81.4538C81.5963 48.9149 81.7331 48.8582 81.8339 48.7571C81.9347 48.656 81.9913 48.519 81.9913 48.3761C81.9913 48.2331 81.9347 48.0961 81.8339 47.995C81.7331 47.8939 81.5963 47.8372 81.4538 47.8372H81.548C81.6258 47.8393 81.7034 47.8257 81.7759 47.7971C81.8484 47.7685 81.9145 47.7256 81.9701 47.671C82.0258 47.6163 82.0699 47.5509 82.0998 47.4788C82.1297 47.4066 82.1448 47.3292 82.1443 47.2511Z" fill="#73B3FE"/>
</g>
<path d="M76.567 45.5048H75.4136C75.2294 45.5048 75.0801 45.6545 75.0801 45.8391V49.2495C75.0801 49.4341 75.2294 49.5838 75.4136 49.5838H76.567C76.7512 49.5838 76.9005 49.4341 76.9005 49.2495V45.8391C76.9005 45.6545 76.7512 45.5048 76.567 45.5048Z" fill="white"/>
<path d="M82.3738 47.0349C82.3738 46.8805 82.3126 46.7324 82.2037 46.6232C82.0948 46.5141 81.9471 46.4527 81.7931 46.4527H81.8402C81.9798 46.4298 82.1067 46.3579 82.1983 46.2498C82.2899 46.1417 82.3401 46.0045 82.3401 45.8627C82.3401 45.7209 82.2899 45.5837 82.1983 45.4756C82.1067 45.3675 81.9798 45.2956 81.8402 45.2727H79.6471C80.0527 44.7878 80.2872 44.1821 80.3141 43.5498C80.3141 42.4248 79.7295 42.2478 79.4274 42.2478C78.7918 42.2478 79.1253 42.9086 78.9527 43.4279C78.8624 43.6875 78.4623 44.0612 77.8856 44.7417C77.5222 45.0941 77.2979 45.5662 77.2539 46.0712V49.3163C77.2549 49.3942 77.2862 49.4687 77.3412 49.5238C77.3962 49.5789 77.4704 49.6103 77.5482 49.6113H81.546C81.6629 49.6103 81.7746 49.563 81.8569 49.4798C81.9392 49.3965 81.9854 49.2841 81.9854 49.1668C81.9859 49.1087 81.9749 49.051 81.9531 48.9971C81.9312 48.9431 81.8989 48.8941 81.8581 48.8528C81.8172 48.8115 81.7686 48.7787 81.715 48.7563C81.6615 48.7339 81.604 48.7224 81.546 48.7224H81.699C81.8415 48.7224 81.9782 48.6656 82.079 48.5645C82.1798 48.4635 82.2365 48.3264 82.2365 48.1835C82.2365 48.0405 82.1798 47.9035 82.079 47.8024C81.9782 47.7014 81.8415 47.6446 81.699 47.6446H81.7931C81.8718 47.6447 81.9496 47.6288 82.0219 47.5978C82.0942 47.5668 82.1594 47.5215 82.2137 47.4645C82.268 47.4074 82.3102 47.34 82.3377 47.2661C82.3652 47.1923 82.3775 47.1136 82.3738 47.0349Z" fill="white"/>
</g>
</g>
<defs>
<filter id="filter0_d" x="67.873" y="25" width="58.2814" height="110.612" filterUnits="userSpaceOnUse" color-interpolation-filters="sRGB">
<feFlood flood-opacity="0" result="BackgroundImageFix"/>
<feColorMatrix in="SourceAlpha" type="matrix" values="0 0 0 0 0 0 0 0 0 0 0 0 0 0 0 0 0 0 127 0"/>
<feOffset dx="-1" dy="2"/>
<feGaussianBlur stdDeviation="2"/>
<feColorMatrix type="matrix" values="0 0 0 0 0 0 0 0 0 0 0 0 0 0 0 0 0 0 0.15 0"/>
<feBlend mode="normal" in2="BackgroundImageFix" result="effect1_dropShadow"/>
<feBlend mode="normal" in="SourceGraphic" in2="effect1_dropShadow" result="shape"/>
</filter>
<filter id="filter1_i" x="72.873" y="80.9245" width="50.2814" height="27.933" filterUnits="userSpaceOnUse" color-interpolation-filters="sRGB">
<feFlood flood-opacity="0" result="BackgroundImageFix"/>
<feBlend mode="normal" in="SourceGraphic" in2="BackgroundImageFix" result="shape"/>
<feColorMatrix in="SourceAlpha" type="matrix" values="0 0 0 0 0 0 0 0 0 0 0 0 0 0 0 0 0 0 127 0" result="hardAlpha"/>
<feOffset dy="-0.4"/>
<feGaussianBlur stdDeviation="0.5"/>
<feComposite in2="hardAlpha" operator="arithmetic" k2="-1" k3="1"/>
<feColorMatrix type="matrix" values="0 0 0 0 0 0 0 0 0 0 0 0 0 0 0 0 0 0 0.5 0"/>
<feBlend mode="normal" in2="shape" result="effect1_innerShadow"/>
</filter>
<filter id="filter2_i" x="80.8926" y="27.0004" width="33.249" height="74.4429" filterUnits="userSpaceOnUse" color-interpolation-filters="sRGB">
<feFlood flood-opacity="0" result="BackgroundImageFix"/>
<feBlend mode="normal" in="SourceGraphic" in2="BackgroundImageFix" result="shape"/>
<feColorMatrix in="SourceAlpha" type="matrix" values="0 0 0 0 0 0 0 0 0 0 0 0 0 0 0 0 0 0 127 0" result="hardAlpha"/>
<feOffset dx="-1"/>
<feGaussianBlur stdDeviation="1"/>
<feComposite in2="hardAlpha" operator="arithmetic" k2="-1" k3="1"/>
<feColorMatrix type="matrix" values="0 0 0 0 0 0 0 0 0 0 0 0 0 0 0 0 0 0 0.3 0"/>
<feBlend mode="normal" in2="shape" result="effect1_innerShadow"/>
</filter>
<filter id="filter3_i" x="87.458" y="27" width="20.6187" height="16.0958" filterUnits="userSpaceOnUse" color-interpolation-filters="sRGB">
<feFlood flood-opacity="0" result="BackgroundImageFix"/>
<feBlend mode="normal" in="SourceGraphic" in2="BackgroundImageFix" result="shape"/>
<feColorMatrix in="SourceAlpha" type="matrix" values="0 0 0 0 0 0 0 0 0 0 0 0 0 0 0 0 0 0 127 0" result="hardAlpha"/>
<feOffset dx="-0.5"/>
<feGaussianBlur stdDeviation="0.5"/>
<feComposite in2="hardAlpha" operator="arithmetic" k2="-1" k3="1"/>
<feColorMatrix type="matrix" values="0 0 0 0 0 0 0 0 0 0 0 0 0 0 0 0 0 0 0.5 0"/>
<feBlend mode="normal" in2="shape" result="effect1_innerShadow"/>
</filter>
<filter id="filter4_f" x="89.6406" y="28.0126" width="8.37029" height="14.1693" filterUnits="userSpaceOnUse" color-interpolation-filters="sRGB">
<feFlood flood-opacity="0" result="BackgroundImageFix"/>
<feBlend mode="normal" in="SourceGraphic" in2="BackgroundImageFix" result="shape"/>
<feGaussianBlur stdDeviation="0.5" result="effect1_foregroundBlur"/>
</filter>
<filter id="filter5_ii" x="90.915" y="51.6593" width="14.2042" height="14.2042" filterUnits="userSpaceOnUse" color-interpolation-filters="sRGB">
<feFlood flood-opacity="0" result="BackgroundImageFix"/>
<feBlend mode="normal" in="SourceGraphic" in2="BackgroundImageFix" result="shape"/>
<feColorMatrix in="SourceAlpha" type="matrix" values="0 0 0 0 0 0 0 0 0 0 0 0 0 0 0 0 0 0 127 0" result="hardAlpha"/>
<feOffset dx="-0.5" dy="-0.5"/>
<feGaussianBlur stdDeviation="0.5"/>
<feComposite in2="hardAlpha" operator="arithmetic" k2="-1" k3="1"/>
<feColorMatrix type="matrix" values="0 0 0 0 0 0 0 0 0 0 0 0 0 0 0 0 0 0 0.5 0"/>
<feBlend mode="normal" in2="shape" result="effect1_innerShadow"/>
<feColorMatrix in="SourceAlpha" type="matrix" values="0 0 0 0 0 0 0 0 0 0 0 0 0 0 0 0 0 0 127 0" result="hardAlpha"/>
<feOffset dx="0.5" dy="0.5"/>
<feGaussianBlur stdDeviation="0.5"/>
<feComposite in2="hardAlpha" operator="arithmetic" k2="-1" k3="1"/>
<feColorMatrix type="matrix" values="0 0 0 0 0 0 0 0 0 0 0 0 0 0 0 0 0 0 0.5 0"/>
<feBlend mode="normal" in2="effect1_innerShadow" result="effect2_innerShadow"/>
</filter>
<filter id="filter6_f" x="96.0098" y="90.384" width="4.01197" height="20.1077" filterUnits="userSpaceOnUse" color-interpolation-filters="sRGB">
<feFlood flood-opacity="0" result="BackgroundImageFix"/>
<feBlend mode="normal" in="SourceGraphic" in2="BackgroundImageFix" result="shape"/>
<feGaussianBlur stdDeviation="0.5" result="effect1_foregroundBlur"/>
</filter>
<filter id="filter7_di" x="91" y="-1" width="20.4886" height="20.5211" filterUnits="userSpaceOnUse" color-interpolation-filters="sRGB">
<feFlood flood-opacity="0" result="BackgroundImageFix"/>
<feColorMatrix in="SourceAlpha" type="matrix" values="0 0 0 0 0 0 0 0 0 0 0 0 0 0 0 0 0 0 127 0"/>
<feOffset dx="2" dy="2"/>
<feGaussianBlur stdDeviation="2"/>
<feColorMatrix type="matrix" values="0 0 0 0 0 0 0 0 0 0 0 0 0 0 0 0 0 0 0.15 0"/>
<feBlend mode="normal" in2="BackgroundImageFix" result="effect1_dropShadow"/>
<feBlend mode="normal" in="SourceGraphic" in2="effect1_dropShadow" result="shape"/>
<feColorMatrix in="SourceAlpha" type="matrix" values="0 0 0 0 0 0 0 0 0 0 0 0 0 0 0 0 0 0 127 0" result="hardAlpha"/>
<feOffset dx="-1" dy="-1"/>
<feGaussianBlur stdDeviation="1"/>
<feComposite in2="hardAlpha" operator="arithmetic" k2="-1" k3="1"/>
<feColorMatrix type="matrix" values="0 0 0 0 0 0 0 0 0 0 0 0 0 0 0 0 0 0 0.15 0"/>
<feBlend mode="normal" in2="shape" result="effect2_innerShadow"/>
</filter>
<filter id="filter8_di" x="118.863" y="15.8683" width="16.9977" height="17.0212" filterUnits="userSpaceOnUse" color-interpolation-filters="sRGB">
<feFlood flood-opacity="0" result="BackgroundImageFix"/>
<feColorMatrix in="SourceAlpha" type="matrix" values="0 0 0 0 0 0 0 0 0 0 0 0 0 0 0 0 0 0 127 0"/>
<feOffset dx="2" dy="2"/>
<feGaussianBlur stdDeviation="2"/>
<feColorMatrix type="matrix" values="0 0 0 0 0 0 0 0 0 0 0 0 0 0 0 0 0 0 0.15 0"/>
<feBlend mode="normal" in2="BackgroundImageFix" result="effect1_dropShadow"/>
<feBlend mode="normal" in="SourceGraphic" in2="effect1_dropShadow" result="shape"/>
<feColorMatrix in="SourceAlpha" type="matrix" values="0 0 0 0 0 0 0 0 0 0 0 0 0 0 0 0 0 0 127 0" result="hardAlpha"/>
<feOffset dx="-1" dy="-1"/>
<feGaussianBlur stdDeviation="1"/>
<feComposite in2="hardAlpha" operator="arithmetic" k2="-1" k3="1"/>
<feColorMatrix type="matrix" values="0 0 0 0 0 0 0 0 0 0 0 0 0 0 0 0 0 0 0.15 0"/>
<feBlend mode="normal" in2="shape" result="effect2_innerShadow"/>
</filter>
<filter id="filter9_di" x="60.0635" y="29.0664" width="18.4487" height="18.476" filterUnits="userSpaceOnUse" color-interpolation-filters="sRGB">
<feFlood flood-opacity="0" result="BackgroundImageFix"/>
<feColorMatrix in="SourceAlpha" type="matrix" values="0 0 0 0 0 0 0 0 0 0 0 0 0 0 0 0 0 0 127 0"/>
<feOffset dx="2" dy="2"/>
<feGaussianBlur stdDeviation="2"/>
<feColorMatrix type="matrix" values="0 0 0 0 0 0 0 0 0 0 0 0 0 0 0 0 0 0 0.15 0"/>
<feBlend mode="normal" in2="BackgroundImageFix" result="effect1_dropShadow"/>
<feBlend mode="normal" in="SourceGraphic" in2="effect1_dropShadow" result="shape"/>
<feColorMatrix in="SourceAlpha" type="matrix" values="0 0 0 0 0 0 0 0 0 0 0 0 0 0 0 0 0 0 127 0" result="hardAlpha"/>
<feOffset dx="-1" dy="-1"/>
<feGaussianBlur stdDeviation="1"/>
<feComposite in2="hardAlpha" operator="arithmetic" k2="-1" k3="1"/>
<feColorMatrix type="matrix" values="0 0 0 0 0 0 0 0 0 0 0 0 0 0 0 0 0 0 0.15 0"/>
<feBlend mode="normal" in2="shape" result="effect2_innerShadow"/>
</filter>
<filter id="filter10_di" x="103.092" y="4.09497" width="22.8158" height="22.8545" filterUnits="userSpaceOnUse" color-interpolation-filters="sRGB">
<feFlood flood-opacity="0" result="BackgroundImageFix"/>
<feColorMatrix in="SourceAlpha" type="matrix" values="0 0 0 0 0 0 0 0 0 0 0 0 0 0 0 0 0 0 127 0"/>
<feOffset dx="2" dy="2"/>
<feGaussianBlur stdDeviation="2"/>
<feColorMatrix type="matrix" values="0 0 0 0 0 0 0 0 0 0 0 0 0 0 0 0 0 0 0.15 0"/>
<feBlend mode="normal" in2="BackgroundImageFix" result="effect1_dropShadow"/>
<feBlend mode="normal" in="SourceGraphic" in2="effect1_dropShadow" result="shape"/>
<feColorMatrix in="SourceAlpha" type="matrix" values="0 0 0 0 0 0 0 0 0 0 0 0 0 0 0 0 0 0 127 0" result="hardAlpha"/>
<feOffset dx="-1" dy="-1"/>
<feGaussianBlur stdDeviation="1"/>
<feComposite in2="hardAlpha" operator="arithmetic" k2="-1" k3="1"/>
<feColorMatrix type="matrix" values="0 0 0 0 0 0 0 0 0 0 0 0 0 0 0 0 0 0 0.15 0"/>
<feBlend mode="normal" in2="shape" result="effect2_innerShadow"/>
</filter>
<filter id="filter11_di" x="76" y="3" width="21" height="21.0339" filterUnits="userSpaceOnUse" color-interpolation-filters="sRGB">
<feFlood flood-opacity="0" result="BackgroundImageFix"/>
<feColorMatrix in="SourceAlpha" type="matrix" values="0 0 0 0 0 0 0 0 0 0 0 0 0 0 0 0 0 0 127 0"/>
<feOffset dx="2" dy="2"/>
<feGaussianBlur stdDeviation="2"/>
<feColorMatrix type="matrix" values="0 0 0 0 0 0 0 0 0 0 0 0 0 0 0 0 0 0 0.15 0"/>
<feBlend mode="normal" in2="BackgroundImageFix" result="effect1_dropShadow"/>
<feBlend mode="normal" in="SourceGraphic" in2="effect1_dropShadow" result="shape"/>
<feColorMatrix in="SourceAlpha" type="matrix" values="0 0 0 0 0 0 0 0 0 0 0 0 0 0 0 0 0 0 127 0" result="hardAlpha"/>
<feOffset dx="-1" dy="-1"/>
<feGaussianBlur stdDeviation="1"/>
<feComposite in2="hardAlpha" operator="arithmetic" k2="-1" k3="1"/>
<feColorMatrix type="matrix" values="0 0 0 0 0 0 0 0 0 0 0 0 0 0 0 0 0 0 0.15 0"/>
<feBlend mode="normal" in2="shape" result="effect2_innerShadow"/>
</filter>
<filter id="filter12_di" x="72" y="18" width="24.9558" height="25" filterUnits="userSpaceOnUse" color-interpolation-filters="sRGB">
<feFlood flood-opacity="0" result="BackgroundImageFix"/>
<feColorMatrix in="SourceAlpha" type="matrix" values="0 0 0 0 0 0 0 0 0 0 0 0 0 0 0 0 0 0 127 0"/>
<feOffset dx="2" dy="2"/>
<feGaussianBlur stdDeviation="2"/>
<feColorMatrix type="matrix" values="0 0 0 0 0 0 0 0 0 0 0 0 0 0 0 0 0 0 0.15 0"/>
<feBlend mode="normal" in2="BackgroundImageFix" result="effect1_dropShadow"/>
<feBlend mode="normal" in="SourceGraphic" in2="effect1_dropShadow" result="shape"/>
<feColorMatrix in="SourceAlpha" type="matrix" values="0 0 0 0 0 0 0 0 0 0 0 0 0 0 0 0 0 0 127 0" result="hardAlpha"/>
<feOffset dx="-1" dy="-1"/>
<feGaussianBlur stdDeviation="1"/>
<feComposite in2="hardAlpha" operator="arithmetic" k2="-1" k3="1"/>
<feColorMatrix type="matrix" values="0 0 0 0 0 0 0 0 0 0 0 0 0 0 0 0 0 0 0.15 0"/>
<feBlend mode="normal" in2="shape" result="effect2_innerShadow"/>
</filter>
<filter id="filter13_di" x="122" y="28" width="17" height="17.0235" filterUnits="userSpaceOnUse" color-interpolation-filters="sRGB">
<feFlood flood-opacity="0" result="BackgroundImageFix"/>
<feColorMatrix in="SourceAlpha" type="matrix" values="0 0 0 0 0 0 0 0 0 0 0 0 0 0 0 0 0 0 127 0"/>
<feOffset dx="2" dy="2"/>
<feGaussianBlur stdDeviation="2"/>
<feColorMatrix type="matrix" values="0 0 0 0 0 0 0 0 0 0 0 0 0 0 0 0 0 0 0.15 0"/>
<feBlend mode="normal" in2="BackgroundImageFix" result="effect1_dropShadow"/>
<feBlend mode="normal" in="SourceGraphic" in2="effect1_dropShadow" result="shape"/>
<feColorMatrix in="SourceAlpha" type="matrix" values="0 0 0 0 0 0 0 0 0 0 0 0 0 0 0 0 0 0 127 0" result="hardAlpha"/>
<feOffset dx="-1" dy="-1"/>
<feGaussianBlur stdDeviation="1"/>
<feComposite in2="hardAlpha" operator="arithmetic" k2="-1" k3="1"/>
<feColorMatrix type="matrix" values="0 0 0 0 0 0 0 0 0 0 0 0 0 0 0 0 0 0 0.15 0"/>
<feBlend mode="normal" in2="shape" result="effect2_innerShadow"/>
</filter>
<filter id="filter14_di" x="93" y="16" width="14.3552" height="14.3718" filterUnits="userSpaceOnUse" color-interpolation-filters="sRGB">
<feFlood flood-opacity="0" result="BackgroundImageFix"/>
<feColorMatrix in="SourceAlpha" type="matrix" values="0 0 0 0 0 0 0 0 0 0 0 0 0 0 0 0 0 0 127 0"/>
<feOffset dx="2" dy="2"/>
<feGaussianBlur stdDeviation="2"/>
<feColorMatrix type="matrix" values="0 0 0 0 0 0 0 0 0 0 0 0 0 0 0 0 0 0 0.15 0"/>
<feBlend mode="normal" in2="BackgroundImageFix" result="effect1_dropShadow"/>
<feBlend mode="normal" in="SourceGraphic" in2="effect1_dropShadow" result="shape"/>
<feColorMatrix in="SourceAlpha" type="matrix" values="0 0 0 0 0 0 0 0 0 0 0 0 0 0 0 0 0 0 127 0" result="hardAlpha"/>
<feOffset dx="-1" dy="-1"/>
<feGaussianBlur stdDeviation="1"/>
<feComposite in2="hardAlpha" operator="arithmetic" k2="-1" k3="1"/>
<feColorMatrix type="matrix" values="0 0 0 0 0 0 0 0 0 0 0 0 0 0 0 0 0 0 0.15 0"/>
<feBlend mode="normal" in2="shape" result="effect2_innerShadow"/>
</filter>
<filter id="filter15_di" x="111.191" y="36.1947" width="19.713" height="19.7435" filterUnits="userSpaceOnUse" color-interpolation-filters="sRGB">
<feFlood flood-opacity="0" result="BackgroundImageFix"/>
<feColorMatrix in="SourceAlpha" type="matrix" values="0 0 0 0 0 0 0 0 0 0 0 0 0 0 0 0 0 0 127 0"/>
<feOffset dx="2" dy="2"/>
<feGaussianBlur stdDeviation="2"/>
<feColorMatrix type="matrix" values="0 0 0 0 0 0 0 0 0 0 0 0 0 0 0 0 0 0 0.15 0"/>
<feBlend mode="normal" in2="BackgroundImageFix" result="effect1_dropShadow"/>
<feBlend mode="normal" in="SourceGraphic" in2="effect1_dropShadow" result="shape"/>
<feColorMatrix in="SourceAlpha" type="matrix" values="0 0 0 0 0 0 0 0 0 0 0 0 0 0 0 0 0 0 127 0" result="hardAlpha"/>
<feOffset dx="-1" dy="-1"/>
<feGaussianBlur stdDeviation="1"/>
<feComposite in2="hardAlpha" operator="arithmetic" k2="-1" k3="1"/>
<feColorMatrix type="matrix" values="0 0 0 0 0 0 0 0 0 0 0 0 0 0 0 0 0 0 0.15 0"/>
<feBlend mode="normal" in2="shape" result="effect2_innerShadow"/>
</filter>
<filter id="filter16_di" x="63.6719" y="12.6735" width="17.1047" height="17.1284" filterUnits="userSpaceOnUse" color-interpolation-filters="sRGB">
<feFlood flood-opacity="0" result="BackgroundImageFix"/>
<feColorMatrix in="SourceAlpha" type="matrix" values="0 0 0 0 0 0 0 0 0 0 0 0 0 0 0 0 0 0 127 0"/>
<feOffset dx="2" dy="2"/>
<feGaussianBlur stdDeviation="2"/>
<feColorMatrix type="matrix" values="0 0 0 0 0 0 0 0 0 0 0 0 0 0 0 0 0 0 0.15 0"/>
<feBlend mode="normal" in2="BackgroundImageFix" result="effect1_dropShadow"/>
<feBlend mode="normal" in="SourceGraphic" in2="effect1_dropShadow" result="shape"/>
<feColorMatrix in="SourceAlpha" type="matrix" values="0 0 0 0 0 0 0 0 0 0 0 0 0 0 0 0 0 0 127 0" result="hardAlpha"/>
<feOffset dx="-1" dy="-1"/>
<feGaussianBlur stdDeviation="1"/>
<feComposite in2="hardAlpha" operator="arithmetic" k2="-1" k3="1"/>
<feColorMatrix type="matrix" values="0 0 0 0 0 0 0 0 0 0 0 0 0 0 0 0 0 0 0.15 0"/>
<feBlend mode="normal" in2="shape" result="effect2_innerShadow"/>
</filter>
<filter id="filter17_di" x="104.356" y="21.3628" width="19.3787" height="19.4084" filterUnits="userSpaceOnUse" color-interpolation-filters="sRGB">
<feFlood flood-opacity="0" result="BackgroundImageFix"/>
<feColorMatrix in="SourceAlpha" type="matrix" values="0 0 0 0 0 0 0 0 0 0 0 0 0 0 0 0 0 0 127 0"/>
<feOffset dx="2" dy="2"/>
<feGaussianBlur stdDeviation="2"/>
<feColorMatrix type="matrix" values="0 0 0 0 0 0 0 0 0 0 0 0 0 0 0 0 0 0 0.15 0"/>
<feBlend mode="normal" in2="BackgroundImageFix" result="effect1_dropShadow"/>
<feBlend mode="normal" in="SourceGraphic" in2="effect1_dropShadow" result="shape"/>
<feColorMatrix in="SourceAlpha" type="matrix" values="0 0 0 0 0 0 0 0 0 0 0 0 0 0 0 0 0 0 127 0" result="hardAlpha"/>
<feOffset dx="-1" dy="-1"/>
<feGaussianBlur stdDeviation="1"/>
<feComposite in2="hardAlpha" operator="arithmetic" k2="-1" k3="1"/>
<feColorMatrix type="matrix" values="0 0 0 0 0 0 0 0 0 0 0 0 0 0 0 0 0 0 0.15 0"/>
<feBlend mode="normal" in2="shape" result="effect2_innerShadow"/>
</filter>
<filter id="filter18_di" x="70.4697" y="38.4896" width="19.9895" height="20.0208" filterUnits="userSpaceOnUse" color-interpolation-filters="sRGB">
<feFlood flood-opacity="0" result="BackgroundImageFix"/>
<feColorMatrix in="SourceAlpha" type="matrix" values="0 0 0 0 0 0 0 0 0 0 0 0 0 0 0 0 0 0 127 0"/>
<feOffset dx="2" dy="2"/>
<feGaussianBlur stdDeviation="2"/>
<feColorMatrix type="matrix" values="0 0 0 0 0 0 0 0 0 0 0 0 0 0 0 0 0 0 0.15 0"/>
<feBlend mode="normal" in2="BackgroundImageFix" result="effect1_dropShadow"/>
<feBlend mode="normal" in="SourceGraphic" in2="effect1_dropShadow" result="shape"/>
<feColorMatrix in="SourceAlpha" type="matrix" values="0 0 0 0 0 0 0 0 0 0 0 0 0 0 0 0 0 0 127 0" result="hardAlpha"/>
<feOffset dx="-1" dy="-1"/>
<feGaussianBlur stdDeviation="1"/>
<feComposite in2="hardAlpha" operator="arithmetic" k2="-1" k3="1"/>
<feColorMatrix type="matrix" values="0 0 0 0 0 0 0 0 0 0 0 0 0 0 0 0 0 0 0.15 0"/>
<feBlend mode="normal" in2="shape" result="effect2_innerShadow"/>
</filter>
<linearGradient id="paint0_linear" x1="98.0141" y1="103.457" x2="98.0141" y2="129.612" gradientUnits="userSpaceOnUse">
<stop stop-color="#FDAA40"/>
<stop offset="1" stop-color="#DA3F05"/>
</linearGradient>
<linearGradient id="paint1_linear" x1="121.614" y1="95.4082" x2="74.4012" y2="93.5981" gradientUnits="userSpaceOnUse">
<stop stop-color="#A62E41"/>
<stop offset="1" stop-color="#E13152"/>
</linearGradient>
<linearGradient id="paint2_linear" x1="100.848" y1="99.4314" x2="95.1742" y2="99.4053" gradientUnits="userSpaceOnUse">
<stop stop-color="#A62E41"/>
<stop offset="1" stop-color="#E13152"/>
</linearGradient>
<linearGradient id="paint3_linear" x1="107.457" y1="35.0479" x2="88.5582" y2="34.5407" gradientUnits="userSpaceOnUse">
<stop stop-color="#A62E41"/>
<stop offset="1" stop-color="#E13152"/>
</linearGradient>
<clipPath id="clip0">
<rect width="200" height="130" fill="white"/>
</clipPath>
</defs>
</svg>
