<svg width="200" height="130" viewBox="0 0 200 130" fill="none" xmlns="http://www.w3.org/2000/svg">
<g clip-path="url(#clip0)">
<path d="M68.2354 106.404C68.0516 107.446 68.0469 108.206 67.8637 109.341C68.2889 110.151 68.179 114.863 68.179 114.863C80.8336 119.9 132.231 115.515 132.36 113.232C132 99.0187 128.764 93.4774 122.84 83.7392L76.5184 83.3248L72.5813 86.8591C72.5813 86.8591 70.3489 94.4573 68.2354 106.404Z" fill="#B4D1FA"/>
<path d="M102.334 85.5158C102.287 85.5392 102.146 85.6786 101.934 85.957C101.652 86.3283 101.205 86.8854 100.688 87.6046C99.2063 89.6002 96.9965 92.6398 95.3509 94.9136C94.0815 96.6769 93.1411 97.9763 93.1411 97.9763C93.1411 97.9763 76.5604 85.3784 76.549 83.3203C76.5413 81.9327 79.3267 75.8842 79.3267 75.8842C79.3267 75.8842 95.5663 82.4939 100.743 84.7599C101.788 85.2177 102.382 85.5156 102.334 85.5158Z" fill="#D1E4FF"/>
<path d="M122.895 83.7473C122.714 85.3206 109.093 97.8931 109.093 97.8931C109.093 97.8931 108.21 96.7871 106.97 95.2434C105.109 92.9162 102.414 89.5984 100.697 87.5712C99.7911 86.4884 99.1476 85.7744 99.0527 85.7517C99.0052 85.7288 99.2885 85.5657 99.808 85.2627C100.068 85.1228 100.398 84.9363 100.776 84.7264C105.523 82.1611 118.397 75.6739 118.397 75.6739C118.397 75.6739 123.052 82.174 122.895 83.7473Z" fill="#D1E4FF"/>
<path d="M106.953 95.2658C106.088 97.2116 105.032 98.8809 104.021 100.064L106.552 118L103.052 124.5L97 118L98.5522 99.8812C98.5522 99.8812 96.0701 96.1936 95.3528 94.9023C96.9972 92.6293 99.2053 89.5908 100.685 87.596C102.401 89.6226 105.094 92.9393 106.953 95.2658Z" fill="url(#paint0_linear)"/>
<path d="M83.3905 23.7759C83.3905 23.7759 81.4807 32.086 79.8666 42.2447C79.503 44.5588 76.6815 43.5073 76.3896 45.9367C76.1868 47.51 78.2452 54.9473 78.0661 56.5205C76.8868 68.088 77.2962 76.573 81.6601 78.3809C91.5501 82.5004 104.869 86.4662 118.836 77.2482C121.545 75.4558 121.233 67.4097 119.73 58.0507C119.36 55.6705 120.069 48.1981 119.556 45.726C116.894 32.6721 111.851 24.5773 111.301 23.6315C110.272 21.8091 83.873 21.5538 83.3905 23.7759Z" fill="#FFCFA3"/>
<path d="M80.0921 77.2052C80.0921 77.2052 86.5499 84.9885 92.3086 87.1377C97.5415 89.0908 104.398 88.3133 106.576 88.0258C111.641 87.3783 118.056 79.2185 119.437 76.6872" fill="#FFCFA3"/>
<path d="M91.882 47.2649C91.8895 48.421 91.3042 49.3485 90.5475 49.3518C89.8144 49.355 89.1937 48.4328 89.1862 47.2766C89.1788 46.1205 89.764 45.193 90.5207 45.1897C91.2776 45.2095 91.8747 46.1319 91.882 47.2649Z" fill="#5E331F"/>
<path d="M108.12 47.877C108.128 49.0331 107.542 49.9606 106.786 49.9639C106.053 49.9671 105.432 49.0448 105.425 47.8887C105.417 46.7325 106.002 45.805 106.759 45.8018C107.516 45.7985 108.113 46.7439 108.12 47.877Z" fill="#5E331F"/>
<path d="M85.9143 42.0902C85.9143 42.0902 86.0318 41.9739 86.2435 41.7877C86.4788 41.6015 86.8084 41.3685 87.2565 41.135C87.4924 41.0182 87.7282 40.9014 88.0118 40.8307C88.2952 40.7368 88.5787 40.6661 88.9097 40.5952C89.2171 40.5475 89.572 40.5228 89.9035 40.5214C90.2349 40.5199 90.5904 40.5647 90.9461 40.6326C91.2781 40.7007 91.6104 40.815 91.9428 40.9293C92.1091 40.9981 92.2516 41.0669 92.3942 41.1357C92.537 41.2277 92.6796 41.2966 92.8224 41.3886C92.9651 41.4806 93.0842 41.5727 93.2033 41.6648C93.3224 41.7569 93.4415 41.849 93.5606 41.9411C93.7751 42.1254 93.9896 42.3097 94.1331 42.4944C94.2048 42.5867 94.3002 42.6789 94.372 42.7712C94.4437 42.8635 94.5155 42.9558 94.5634 43.0251C94.683 43.1866 94.7788 43.3252 94.8507 43.4406C94.9947 43.6947 95.0905 43.8332 95.0905 43.8332C95.0905 43.8332 94.9712 43.718 94.7567 43.5337C94.6613 43.4414 94.5183 43.3263 94.3754 43.2111C94.2323 43.0728 94.042 42.9579 93.8513 42.7966C93.7561 42.7276 93.6608 42.6585 93.5419 42.5896C93.423 42.5206 93.3276 42.4284 93.2087 42.3595C93.0898 42.2905 92.9708 42.2216 92.8519 42.1526C92.733 42.0837 92.5904 42.0148 92.4715 41.9459C92.3289 41.877 92.21 41.8081 92.0676 41.7624C91.9252 41.7167 91.7826 41.6478 91.6402 41.6021C91.3554 41.5108 91.0706 41.4194 90.7622 41.3513C90.4539 41.2831 90.146 41.2613 89.8617 41.2394C89.5537 41.2176 89.2696 41.2188 88.962 41.2433C88.6781 41.2677 88.3942 41.2921 88.1343 41.3627C87.8742 41.4101 87.6143 41.4807 87.3781 41.5512C86.9293 41.6921 86.5516 41.8327 86.2684 41.9497C86.0795 42.02 85.9143 42.0902 85.9143 42.0902Z" fill="#5E331F"/>
<path d="M102.141 44.2773C102.141 44.2773 102.21 44.1148 102.351 43.8826C102.515 43.6503 102.749 43.3019 103.101 42.9529C103.265 42.7669 103.477 42.5807 103.713 42.4175C103.948 42.2312 104.207 42.068 104.49 41.9046C104.773 41.7413 105.08 41.6241 105.41 41.5069C105.741 41.4128 106.072 41.3187 106.427 41.2708C106.782 41.223 107.113 41.2215 107.468 41.2432C107.634 41.2656 107.8 41.2649 107.966 41.2873C108.132 41.3097 108.298 41.3554 108.44 41.3779C108.606 41.4235 108.749 41.4692 108.891 41.4917C109.034 41.5374 109.176 41.6063 109.319 41.652C109.58 41.7667 109.841 41.8813 110.055 41.9962C110.174 42.0652 110.269 42.1111 110.365 42.1802C110.46 42.2492 110.555 42.2951 110.626 42.3643C110.793 42.4794 110.936 42.5714 111.055 42.6635C111.293 42.8478 111.412 42.9631 111.412 42.9631C111.412 42.9631 111.246 42.8943 110.985 42.8028C110.866 42.7338 110.7 42.6882 110.51 42.6196C110.32 42.5509 110.106 42.4824 109.893 42.3907C109.774 42.3449 109.655 42.3222 109.537 42.2764C109.418 42.2538 109.299 42.208 109.157 42.1623C109.015 42.1397 108.896 42.0939 108.754 42.0714C108.611 42.0488 108.469 42.0263 108.327 42.0037C108.185 41.9812 108.042 41.9587 107.877 41.9594C107.734 41.96 107.569 41.9376 107.426 41.9382C107.119 41.9395 106.811 41.9408 106.503 41.9885C106.196 42.013 105.889 42.0838 105.605 42.1777C105.322 42.2716 105.038 42.3655 104.779 42.4824C104.519 42.5993 104.26 42.7163 104.024 42.8563C103.788 42.9962 103.576 43.1361 103.388 43.2759C103.011 43.5555 102.682 43.8117 102.494 43.9978C102.258 44.161 102.141 44.2773 102.141 44.2773Z" fill="#5E331F"/>
<path d="M94.598 68.5286C94.598 68.5286 93.4186 75.3341 99.0025 75.8221C105.699 75.9921 106.512 70.7945 106.512 70.7945C106.512 70.7945 99.0025 75.8221 94.598 68.5286Z" fill="white"/>
<path d="M84.4074 47.5565L82.0648 47.5667C82.0648 47.5667 81.2643 44.5173 79.3485 44.6644C77.4327 44.8115 77.5013 48.1184 78.1317 54.1521C78.8124 60.648 77.6141 58.2942 77.6141 58.2942L77.2748 57.0468C77.2748 57.0468 67.9382 25.541 78.1055 20.64C88.273 15.7621 124.576 1.65836 114.121 27.9538C110.278 37.638 101.755 33.2576 96.2157 29.2111C90.676 25.1416 88.9595 23.16 86.4785 23.7259C86.5258 23.7257 79.1024 28.476 84.4074 47.5565Z" fill="#3C3C3B"/>
<path d="M111.311 24.994L111.271 18.8679C114.105 19.2486 116.609 19.8619 118.479 20.7554C128.677 25.5427 119.773 57.1374 119.773 57.1374L119.451 58.3872C119.451 58.3872 118.31 60.7502 118.882 54.2516C119.433 48.2154 119.459 44.9094 117.547 44.779C115.636 44.6486 114.877 47.7035 114.877 47.7035L112.541 47.7136C116.319 33.4797 113.189 27.2514 111.311 24.994Z" fill="#3C3C3B"/>
<path opacity="0.4" d="M86.5837 60.0255C86.5837 60.0255 88.7345 63.1625 85.5037 65.1198C83.3106 66.4479 77.4711 67.6994 77.4711 67.6994L77.1358 63.421L77.1181 60.6681L86.5837 60.0255Z" fill="#E8BB95"/>
<path opacity="0.4" d="M85.1042 41.5512C85.1042 41.5512 86.1122 39.9265 85.7271 38.9791C84.5957 36.1368 77.7922 35.171 73.4666 36.5092L73.4046 41.602L85.1042 41.5512Z" fill="#FFCFA3"/>
<path d="M84.2889 41.1792C84.2889 41.1792 87.7128 36.3536 75.4819 36.8693C65.8531 37.2581 62.0826 50.735 59.2172 54.101C56.3517 57.4439 69.4211 65.8752 74.2016 65.9238C84.4013 66.0183 88.0767 63.5045 85.5723 60.4393" fill="#FFCFA3"/>
<path d="M62.9882 49.4839L49.5881 63.234L58.2344 71.9852L71.0054 63.4185L62.9882 49.4839Z" fill="#FFCFA3"/>
<path opacity="0.4" d="M111.708 58.5305C111.708 58.5305 108.35 62.7089 112.576 64.7261C114.903 65.8495 120.807 67.2812 120.807 67.2812L120.567 63.2341L120.903 60.2024L111.708 58.5305Z" fill="#E8BB95"/>
<path opacity="0.4" d="M112.983 41.6355C112.983 41.6355 111.715 39.5582 112.087 38.5847C113.182 35.7335 119.047 34.4815 123.365 35.805L122.997 41.1292L112.983 41.6355Z" fill="#FFCFA3"/>
<path d="M113.735 41.3396C113.735 41.3396 109.275 35.7851 122.27 36.3994C131.904 36.8432 135.847 50.1479 138.755 53.4888C141.664 56.8066 128.703 65.3509 123.924 65.4411C113.726 65.6241 109.804 62.9352 112.57 58.8757" fill="#FFCFA3"/>
<path d="M135.543 49.8102L148.891 60.9005L139.965 71.3243L127.059 62.8688L135.543 49.8102Z" fill="#FFCFA3"/>
<path d="M71.7227 109.678C71.795 109.702 71.7228 109.702 71.7228 109.702L71.7227 109.678Z" fill="#B4D1FA"/>
<path opacity="0.4" d="M95.5511 64.3665C95.5031 64.251 100.54 70.918 108.943 65.0696C108.919 65.0697 100.292 73.3035 95.5511 64.3665Z" fill="#E8BB95"/>
<path d="M92.2626 57.0625C92.2626 57.0625 96.9792 52.6243 100.265 52.6099C104.117 52.593 108.333 56.7146 108.333 56.7146L107.76 43.7419C107.76 43.7419 103.864 41.238 100.177 41.2541C95.3314 41.2753 92.4256 44.5261 92.4256 44.5261L92.2626 57.0625Z" fill="#48443E"/>
<path d="M95.6723 50.3449C95.7044 53.697 93.6851 56.5732 90.7803 57.8814L84.5 61.0002C87.7756 59.1124 90.8183 54.9766 90.7803 51.0002C90.735 46.261 86.3426 41.9366 82 40.5002L89.3382 42.375C92.9466 43.3061 95.6359 46.5303 95.6723 50.3449Z" fill="#6B6966"/>
<path d="M91.0257 51.0634C91.0638 55.0404 88.8795 58.5422 85.5944 60.4304C85.1719 60.6635 84.7492 60.8736 84.3027 61.0607C84.3027 61.0607 84.3027 61.0607 84.2791 61.0608C82.9866 61.5986 81.5737 61.8826 80.0873 61.8895C74.0238 61.9175 69.0229 57.1079 68.9658 51.1424C68.9088 45.1999 73.7933 40.3214 79.8804 40.2933C80.4466 40.2906 80.9661 40.3345 81.5094 40.4013C81.6984 40.4236 81.8876 40.469 82.0766 40.4912C82.1002 40.4911 82.1237 40.491 82.1476 40.514C82.5731 40.6045 82.9989 40.7182 83.4011 40.8319C83.4247 40.8318 83.4247 40.8318 83.4249 40.8549C87.8039 42.3146 90.9803 46.3233 91.0257 51.0634Z" fill="#48443E"/>
<path d="M89.7523 51.0694C89.8028 56.3413 85.4791 60.6391 80.0998 60.664C74.7206 60.6889 70.3148 56.4315 70.2643 51.1596C70.2138 45.8877 74.5376 41.5899 79.9168 41.565C85.2961 41.5401 89.7018 45.7976 89.7523 51.0694Z" fill="#DAE9FF"/>
<path d="M104.837 50.0632C104.869 53.4154 106.943 56.2726 109.872 57.5536L115.048 60.0265C111.737 58.1692 109.91 54.4767 109.872 50.5004C109.827 45.7611 114.185 41.4769 118.5 40.0004L111.018 42.0352C107.428 42.9998 104.8 46.2487 104.837 50.0632Z" fill="#6B6966"/>
<path d="M109.516 50.7314C109.554 54.7084 111.805 58.1896 115.126 60.0472C115.553 60.2765 115.98 60.4826 116.43 60.6655C116.43 60.6655 116.43 60.6655 116.453 60.6654C117.756 61.1912 119.174 61.4622 120.661 61.4553C126.724 61.4272 131.632 56.5717 131.575 50.6062C131.518 44.6638 126.541 39.8309 120.454 39.8591C119.888 39.8617 119.369 39.9103 118.827 39.9822C118.638 40.0062 118.45 40.0533 118.262 40.0773C118.238 40.0774 118.214 40.0775 118.191 40.1008C117.767 40.1952 117.344 40.3128 116.944 40.4303C116.92 40.4304 116.92 40.4304 116.92 40.4535C112.546 41.9536 109.47 45.9913 109.516 50.7314Z" fill="#48443E"/>
<path d="M110.765 50.7255C110.816 55.9974 115.222 60.2548 120.601 60.2299C125.98 60.205 130.304 55.9072 130.253 50.6353C130.203 45.3635 125.797 41.106 120.418 41.1309C115.039 41.1558 110.715 45.4536 110.765 50.7255Z" fill="#DAE9FF"/>
<path d="M102.46 44.416C102.469 45.5493 101.554 46.4553 100.396 46.4604C99.2375 46.4654 98.3085 45.5443 98.2999 44.4342C98.2912 43.3009 99.2296 42.3948 100.364 42.3898C101.522 42.3847 102.451 43.2827 102.46 44.416Z" fill="#6B6966"/>
<path d="M81.0531 42.4833C81.0531 42.4833 87.0011 43.6139 88.1741 49.3682C88.3938 50.4081 87.2641 51.3845 86.5884 49.3751C85.8403 47.1347 83.7661 44.7845 81.0149 43.8944C78.8565 43.1867 79.0395 42.1913 81.0531 42.4833Z" fill="#B4D1FA"/>
<path d="M122.075 42.2774C122.075 42.2774 128.023 43.4081 129.196 49.1624C129.416 50.2023 128.286 51.1787 127.611 49.1693C126.863 46.9289 124.788 44.5787 122.037 43.6885C119.879 42.9809 120.038 41.9856 122.075 42.2774Z" fill="#B4D1FA"/>
<path d="M114.229 55.4243C114.229 55.4243 114.98 58.1505 117.823 58.5083C118.344 58.5754 119 57.6242 118.028 57.2583C116.817 56.801 116.177 56.5956 115.648 55.3488C115.24 54.3559 114.01 54.5001 114.229 55.4243Z" fill="#B4D1FA"/>
<path d="M72.8039 55.6321C72.8039 55.6321 73.5551 58.3583 76.3977 58.716C76.9189 58.7831 77.5755 57.8319 76.6027 57.4661C75.3927 57.0087 74.7523 56.8033 74.2235 55.5565C73.8148 54.5637 72.5849 54.7078 72.8039 55.6321Z" fill="#B4D1FA"/>
<path d="M74.2134 52.7753C73.9988 52.9489 73.9657 53.2637 74.1395 53.4784C74.3133 53.6931 74.6282 53.7264 74.8428 53.5528L74.2134 52.7753ZM78.1523 50.2321L78.5949 49.9999C78.5253 49.8673 78.3999 49.7728 78.2532 49.7425C78.1065 49.7122 77.9539 49.7492 77.8376 49.8433L78.1523 50.2321ZM80.2795 54.2817L79.8369 54.5139C79.9131 54.6591 80.0557 54.7577 80.2185 54.7779C80.3812 54.798 80.5434 54.7371 80.6526 54.6149L80.2795 54.2817ZM85.4826 48.4567L85.96 48.6057C86.0201 48.4127 85.958 48.2024 85.8027 48.0729C85.6473 47.9433 85.4293 47.92 85.2502 48.0139L85.4826 48.4567ZM84.4284 50.1592C84.3463 50.4228 84.4935 50.7032 84.7572 50.7855C85.0209 50.8678 85.3012 50.7208 85.3833 50.4572L84.4284 50.1592ZM83.6303 48.8627C83.3858 48.9908 83.2916 49.293 83.42 49.5375C83.5483 49.7821 83.8506 49.8765 84.0951 49.7484L83.6303 48.8627ZM74.8428 53.5528L78.467 50.6209L77.8376 49.8433L74.2134 52.7753L74.8428 53.5528ZM77.7096 50.4643L79.8369 54.5139L80.7222 54.0495L78.5949 49.9999L77.7096 50.4643ZM80.6526 54.6149L85.8557 48.7899L85.1095 48.1236L79.9064 53.9485L80.6526 54.6149ZM85.0051 48.3077L84.4284 50.1592L85.3833 50.4572L85.96 48.6057L85.0051 48.3077ZM85.2502 48.0139L83.6303 48.8627L84.0951 49.7484L85.715 48.8996L85.2502 48.0139Z" fill="#A62E41"/>
<path d="M113.875 51.5929C113.661 51.7665 113.628 52.0813 113.802 52.296C113.975 52.5107 114.29 52.544 114.505 52.3704L113.875 51.5929ZM117.814 49.0497L118.257 48.8175C118.187 48.6849 118.062 48.5905 117.915 48.5601C117.769 48.5298 117.616 48.5668 117.5 48.661L117.814 49.0497ZM119.942 53.0994L119.499 53.3316C119.575 53.4767 119.718 53.5754 119.881 53.5955C120.043 53.6157 120.206 53.5548 120.315 53.4325L119.942 53.0994ZM125.145 47.2744L125.622 47.4234C125.682 47.2304 125.62 47.0201 125.465 46.8905C125.309 46.761 125.091 46.7377 124.912 46.8315L125.145 47.2744ZM124.091 48.9769C124.008 49.2404 124.156 49.5208 124.419 49.6031C124.683 49.6854 124.963 49.5384 125.045 49.2749L124.091 48.9769ZM123.292 47.6803C123.048 47.8084 122.954 48.1106 123.082 48.3552C123.21 48.5998 123.513 48.6942 123.757 48.566L123.292 47.6803ZM114.505 52.3704L118.129 49.4385L117.5 48.661L113.875 51.5929L114.505 52.3704ZM117.372 49.2819L119.499 53.3316L120.384 52.8672L118.257 48.8175L117.372 49.2819ZM120.315 53.4325L125.518 47.6075L124.772 46.9412L119.569 52.7662L120.315 53.4325ZM124.667 47.1254L124.091 48.9769L125.045 49.2749L125.622 47.4234L124.667 47.1254ZM124.912 46.8315L123.292 47.6803L123.757 48.566L125.377 47.7172L124.912 46.8315Z" fill="#A62E41"/>
<path d="M70.4073 84.5148C69.8874 84.7718 71.6847 84.1385 70.4073 84.5148C66.6693 85.5968 46.6226 89.8785 36.7642 93.9983C39.3382 92.389 42.5226 89.7582 42.5226 89.7582L70.4073 84.5148Z" fill="#71A0DD"/>
<path d="M129.473 84.8267C129.995 85.0558 128.191 84.462 129.473 84.8267C133.222 85.8747 153.316 89.9742 163.219 94.0042C160.627 92.4184 157.414 89.8167 157.414 89.8167L129.473 84.8267Z" fill="#71A0DD"/>
<path d="M42.5087 89.7652C42.6735 89.6257 42.8617 89.4399 43.0735 89.2539C43.0735 89.2539 56.7702 80.5664 57.2889 76.5624C57.3345 76.2846 57.3327 76.0071 57.3072 75.7296C61.3773 71.849 64.671 68.712 64.671 68.712L54.0876 57.2385C54.0876 57.2385 50.46 59.9837 45.4908 63.9145C45.301 63.8459 45.0875 63.7775 44.9215 63.7319C40.6062 62.5941 21.6456 84.605 21.6456 84.605C20.7522 85.5573 19.9531 86.4397 19.2719 87.2523C16.665 90.4557 13.7455 96.5751 16.1695 101.746C18.5936 106.94 26.4083 111.162 45.2926 110.433C57.5745 109.963 64.1774 109.772 67.7274 109.687C68.0351 109.686 68.2954 109.685 68.5557 109.661C71.0172 109.627 71.6091 109.647 71.7276 109.67L76.5291 83.3257L70.3822 84.4859L42.5087 89.7652Z" fill="#B4D1FA"/>
<path d="M180.622 87.1027C179.954 86.296 179.144 85.4205 178.215 84.4762C178.215 84.4762 158.948 62.6312 154.672 63.8064C154.483 63.8534 154.294 63.9237 154.105 63.9939C149.085 60.1065 145.423 57.3928 145.423 57.3928L134.987 68.9576C134.987 68.9576 138.321 72.0659 142.441 75.911C142.419 76.1886 142.421 76.4662 142.47 76.7436C143.04 80.7428 156.848 89.3109 156.848 89.3109C157.062 89.5182 157.252 89.6793 157.419 89.8173L129.503 84.8034L122.939 83.7216L128.481 110.021C128.765 109.95 131.676 109.845 154.925 110.531C192.591 111.616 185.966 93.4869 180.622 87.1027Z" fill="#B4D1FA"/>
<path d="M68.3152 112.228C68.7302 110.141 69.2157 106.328 69.2157 106.328C68.8842 106.376 68.5762 106.401 68.2446 106.425C28.8564 109.964 18.7076 104.496 16.1094 101.727C18.5315 106.929 26.3275 111.157 45.2334 110.422C57.5295 109.949 64.1397 109.734 67.6938 109.671C67.8122 110.889 68.262 112.086 68.3152 112.228Z" fill="#71A0DD"/>
<path d="M132.369 113.205C131.93 111.122 130.794 106.756 130.794 106.756C131.126 106.777 131.434 106.799 131.766 106.844C171.215 110.024 181.303 104.465 183.87 101.673C181.506 106.896 173.733 111.171 154.821 110.631C142.52 110.27 135.908 110.115 132.353 110.084L132.369 113.205Z" fill="#71A0DD"/>
<path d="M103.338 100.32L104.5 118.5L105.5 116.5L103.338 100.32Z" fill="#B4D1FA"/>
<path d="M102.928 88.9452L109.202 96.7347L121.926 84.1405L109.195 95.4163L102.928 88.9452Z" fill="#B4D1FA"/>
<path d="M99.0598 88.9737L92.8486 96.8208L78.9736 85.5718L92.8413 95.5022L99.0598 88.9737Z" fill="#B4D1FA"/>
<path d="M68.162 115.035C93.7547 117.371 107.826 117.162 132.363 113.375L133.645 126.599L67.6336 129.765L68.162 115.035Z" fill="url(#paint1_linear)"/>
</g>
<defs>
<linearGradient id="paint0_linear" x1="106.655" y1="106.026" x2="95.753" y2="106.013" gradientUnits="userSpaceOnUse">
<stop stop-color="#A62E41"/>
<stop offset="1" stop-color="#E13152"/>
</linearGradient>
<linearGradient id="paint1_linear" x1="98.7148" y1="116.587" x2="98.8064" y2="126.292" gradientUnits="userSpaceOnUse">
<stop stop-color="#B4D1FA"/>
<stop offset="1" stop-color="#F5F9FF"/>
</linearGradient>
<clipPath id="clip0">
<rect width="200" height="130" fill="white"/>
</clipPath>
</defs>
</svg>
