<svg width="200" height="130" fill="none" xmlns="http://www.w3.org/2000/svg"><g clip-path="url(#clip0)"><g filter="url(#filter0_di)"><path d="M163.413 105.824a14.78 14.78 0 01-1.106 3.279l-.175.349c-3.57 6.908-11.797 8.809-15.231 9.702-4.676 1.183-61.702 11.641-82.017-4.288C44.57 98.936 75.75 46.567 94.98 31.646c0 0-13.582-19.131-8.984-28.115C90.787.543 99.849-.349 109.279.116c1.571 0 3.162.155 4.734.291l1.669.156c10.807 1.125 21.149 3.667 25.67 6.48 5.821 5.472-11.642 24.603-11.642 24.603s31.239 34.75 33.975 67.91a19.57 19.57 0 01-.272 6.268z" fill="#0A3D76"/></g><path d="M109.608 34.576a2.133 2.133 0 00-1.513-1.94 9.359 9.359 0 00-2.445-.253h-2.134c-1.436 0-2.872 0-4.288-.135a1.94 1.94 0 100 3.744c1.338.117 2.755.156 4.016.35 1.599.355 3.248.42 4.87.194a1.937 1.937 0 001.494-1.96zm18.044.912c-.116-2.387-3.609-1.32-5.084-1.242h-2.619a11.51 11.51 0 01-1.145-.136 2.77 2.77 0 00-.543-.135l-.213-.175a1.945 1.945 0 00-1.775-.793 1.942 1.942 0 00-1.363 3.077 1.939 1.939 0 001.779.782c.744.12 1.473.323 2.173.601.891.258 1.81.402 2.736.427a9.024 9.024 0 005.317-1.028 1.535 1.535 0 00.737-1.378z" fill="#A62E41"/><g filter="url(#filter1_ii)"><path d="M124.434 77.612c-2.289-2.522-2.697-3.202-7.606-4.967v-9.12a5.62 5.62 0 011.436 3.88l7.567-1.3a13.212 13.212 0 00-9.003-10.225v-4.85a28.559 28.559 0 00-3.647 0 38.436 38.436 0 000 4.016 18.983 18.983 0 00-3.59-.136v-3.88a28.575 28.575 0 00-3.648 0v4.56a15.116 15.116 0 00-8.847 6.752c-2.154 3.88-.815 8.712 3.88 11.894a21.94 21.94 0 005.2 2.697c0 4.094.175 8.188.252 11.874a16.396 16.396 0 01-4.695-6.868 51.538 51.538 0 00-6.578 3.434s2.406 10.187 11.273 12.321h.272c.097 3.201.097 5.142.097 5.142h2.775v-4.521a20.97 20.97 0 004.424.175v4.346h2.774v-4.832a13.93 13.93 0 004.987-2.522c4.986-3.88 7.916-12.224 2.677-17.87zm-12.243-16.396l.99.214c0 3.027.116 6.48.174 10.09-1.319-.408-2.619-.738-3.88-1.107v-9.39c.907-.067 1.82-.021 2.716.135v.058zm-8.44 4.366a5.41 5.41 0 012.154-3.28c0 2.116 0 4.444.116 6.85-1.708-.892-2.658-1.96-2.27-3.628v.058zm5.821 25.03v-12.71c1.35.266 2.68.629 3.977 1.088.097 4.249.194 8.401.272 12.03a9.312 9.312 0 01-4.288-.466l.039.058zm7.295-.621v-8.906c2.93 2.91 2.678 6.908-.039 8.848l.039.058z" fill="#F5F9FF"/></g><path d="M65.021 88.05c.931-7.489 5.258-15.328 9.061-21.75a111.217 111.217 0 016.966-10.284c2.639-3.453 6.228-6.713 8.246-10.536 2.018-3.822 8.052 1.068 3.88 3.997-5.995 4.192-10.38 13.796-13.581 20.14-3.202 6.346-5.394 13.816-8.984 20.063-1.397 2.465-5.957 1.514-5.588-1.63z" fill="#235C9B" fill-opacity=".6"/><path d="M135.242 11.37a2.332 2.332 0 00-2.853.97 58.01 58.01 0 00-4.249 7.49c-1.649 3.143 3.26 5.82 4.754 2.677a61.664 61.664 0 003.706-8.44 2.312 2.312 0 00-1.358-2.697z" fill="#0E4786" fill-opacity=".6"/><path d="M98.59 24.739c-2.93-5.705-2.736-11.157-3.648-17.23-.33-2.154-3.648-1.94-4.114 0-1.552 6.364 1.747 13.582 5.492 18.53a1.32 1.32 0 002.27-1.3z" fill="#114F92" fill-opacity=".6"/></g><defs><filter id="filter0_di" x="50.268" y="-8" width="119.553" height="137.615" filterUnits="userSpaceOnUse" color-interpolation-filters="sRGB"><feFlood flood-opacity="0" result="BackgroundImageFix"/><feColorMatrix in="SourceAlpha" values="0 0 0 0 0 0 0 0 0 0 0 0 0 0 0 0 0 0 127 0"/><feOffset dx="2" dy="2"/><feGaussianBlur stdDeviation="2"/><feColorMatrix values="0 0 0 0 0 0 0 0 0 0 0 0 0 0 0 0 0 0 0.2 0"/><feBlend in2="BackgroundImageFix" result="effect1_dropShadow"/><feBlend in="SourceGraphic" in2="effect1_dropShadow" result="shape"/><feColorMatrix in="SourceAlpha" values="0 0 0 0 0 0 0 0 0 0 0 0 0 0 0 0 0 0 127 0" result="hardAlpha"/><feOffset dx="-8" dy="-8"/><feGaussianBlur stdDeviation="6"/><feComposite in2="hardAlpha" operator="arithmetic" k2="-1" k3="1"/><feColorMatrix values="0 0 0 0 0 0 0 0 0 0 0 0 0 0 0 0 0 0 0.3 0"/><feBlend in2="shape" result="effect2_innerShadow"/></filter><filter id="filter1_ii" x="95.155" y="50.971" width="34.049" height="53.864" filterUnits="userSpaceOnUse" color-interpolation-filters="sRGB"><feFlood flood-opacity="0" result="BackgroundImageFix"/><feBlend in="SourceGraphic" in2="BackgroundImageFix" result="shape"/><feColorMatrix in="SourceAlpha" values="0 0 0 0 0 0 0 0 0 0 0 0 0 0 0 0 0 0 127 0" result="hardAlpha"/><feOffset dy="2"/><feGaussianBlur stdDeviation="2"/><feComposite in2="hardAlpha" operator="arithmetic" k2="-1" k3="1"/><feColorMatrix values="0 0 0 0 0 0 0 0 0 0 0 0 0 0 0 0 0 0 0.15 0"/><feBlend in2="shape" result="effect1_innerShadow"/><feColorMatrix in="SourceAlpha" values="0 0 0 0 0 0 0 0 0 0 0 0 0 0 0 0 0 0 127 0" result="hardAlpha"/><feOffset dx="2" dy="2"/><feGaussianBlur stdDeviation="2"/><feComposite in2="hardAlpha" operator="arithmetic" k2="-1" k3="1"/><feColorMatrix values="0 0 0 0 0 0 0 0 0 0 0 0 0 0 0 0 0 0 0.2 0"/><feBlend in2="effect1_innerShadow" result="effect2_innerShadow"/></filter><clipPath id="clip0"><path fill="#fff" d="M0 0h200v130H0z"/></clipPath></defs></svg>