<svg width="200" height="130" fill="none" xmlns="http://www.w3.org/2000/svg"><g clip-path="url(#clip0)"><g filter="url(#filter0_di)"><path d="M18 20a5 5 0 015-5h153.165a5 5 0 015 5v90.244a5 5 0 01-5 5H23a5 5 0 01-5-5V20z" fill="url(#paint0_linear)"/><path d="M18.5 20a4.5 4.5 0 014.5-4.5h153.165a4.5 4.5 0 014.5 4.5v90.244a4.5 4.5 0 01-4.5 4.5H23a4.5 4.5 0 01-4.5-4.5V20z" stroke="#fff"/></g><circle cx="166.747" cy="19.455" r="1.114" stroke="#fff" stroke-width=".5"/><circle cx="171.201" cy="19.455" r="1.114" stroke="#fff" stroke-width=".5"/><circle cx="175.655" cy="19.455" r="1.114" stroke="#fff" stroke-width=".5"/><g filter="url(#filter1_i)"><path d="M26.795 34.633a4 4 0 014-4h85.795a4 4 0 014 4V90.14a4 4 0 01-4 4H30.795a4 4 0 01-4-4V34.633z" fill="#F5F9FF"/></g><path d="M52.754 87.855l-5.416-7.941 3.163-3.558 5.777 9.386a1 1 0 01-.367 1.398l-1.846 1.026a1 1 0 01-1.311-.311z" fill="url(#paint1_linear)"/><ellipse cx="67.106" cy="60.152" rx="3.953" ry="3.952" fill="url(#paint2_linear)"/><path d="M39.608 71.832l-.141-.141-.17.107-2.568 1.634a2.25 2.25 0 00-.623 3.206l3.63 5.08a2.25 2.25 0 002.989.622l4.346-2.607.275-.165-.226-.226-7.512-7.51z" fill="url(#paint3_linear)" stroke="url(#paint4_linear)" stroke-width=".5"/><path d="M46.94 79.518l-4.346 2.608a2 2 0 01-2.656-.553l-2.88-4.03 5.139-2.767 4.744 4.742z" fill="url(#paint5_linear)"/><path d="M46.752 65.937l-.139-.197-.202.13-6.147 3.996a2.25 2.25 0 00-.6 3.201l2.332 3.238 2.506 3.48a2.25 2.25 0 002.941.639l6.74-3.85.248-.142-.174-.228a242.91 242.91 0 01-3.85-5.132 365.811 365.811 0 01-3.655-5.135z" fill="url(#paint6_linear)" stroke="url(#paint7_linear)" stroke-width=".5"/><path d="M54.058 76.357l-6.739 3.85a2 2 0 01-2.615-.568l-2.506-3.48 8.006-4.94c1.147 1.575 2.32 3.14 3.854 5.138z" fill="url(#paint8_linear)"/><path d="M75.166 72.694l-21.899 4.453c-1.414-1.663-2.534-3.436-3.483-4.743-1.468-2.02-2.527-4.025-3.633-6.481l12.977-18.386a1 1 0 011.66.04l7.502 11.785 7.52 11.815a1 1 0 01-.644 1.517z" fill="url(#paint9_linear)"/><path d="M53.268 77.147l21.899-4.453a1 1 0 00.644-1.517l-7.52-11.815-18.507 13.042c.95 1.307 2.07 3.08 3.484 4.743z" fill="url(#paint10_linear)"/><g filter="url(#filter2_f)"><path d="M59.198 51.457l-1.186 1.58m-1.186 1.582s-2.899 4.084-4.349 5.928" stroke="#F5F9FF" stroke-linecap="round"/></g><path d="M94.16 55.647L87.795 36h-4.408L77 55.647h4.011l1.04-3.329h7.082l1.015 3.329h4.011zm-5.993-7.01h-5.15l2.575-8.454 2.575 8.453z" fill="url(#paint11_linear)"/><path d="M107 55.647V36h-3.169v7.246c-.941-1.443-2.278-2.18-3.69-2.18-3.045 0-5.299 2.828-5.299 7.482 0 4.742 2.279 7.452 5.299 7.452 1.436 0 2.749-.766 3.69-2.18v1.827H107zm-5.893-2.975c-1.783 0-3.02-1.68-3.02-4.124 0-2.474 1.237-4.153 3.02-4.153 1.065 0 2.204.677 2.724 1.62v5.036c-.52.943-1.659 1.62-2.724 1.62z" fill="url(#paint12_linear)"/><rect x="127.929" y="31.133" width="44.921" height="14.633" rx="1.5" stroke="#fff"/><rect x="127.929" y="52.628" width="44.921" height="14.633" rx="1.5" stroke="#fff"/><rect x="127.929" y="74.122" width="44.921" height="14.633" rx="1.5" stroke="#fff"/><rect x="127.929" y="95.617" width="44.921" height="14.633" rx="1.5" stroke="#fff"/><rect x="26.911" y="98.048" width="75.74" height="2.931" rx="1.466" fill="#B4D1FA"/><rect x="26.795" y="104.887" width="41.035" height="2.931" rx="1.466" fill="#B4D1FA"/><path d="M140.737 70.135c10.016 10.016 10.016 26.255 0 36.27-10.015 10.016-26.254 10.016-36.27 0-10.016-10.015-10.016-26.254 0-36.27 10.016-10.016 26.255-10.016 36.27 0z" fill="#E9F7FF"/><path d="M160.043 126.666a1.5 1.5 0 102.058-2.183l-2.058 2.183zm-20.366-55.47c9.43 9.43 9.43 24.719 0 34.149l2.121 2.121c10.601-10.601 10.601-27.79 0-38.391l-2.121 2.12zm0 34.149c-9.43 9.43-24.719 9.43-34.149 0l-2.122 2.121c10.602 10.602 27.79 10.602 38.392 0l-2.121-2.121zm-34.149 0c-9.43-9.43-9.43-24.72 0-34.15l-2.122-2.12c-10.601 10.601-10.601 27.79 0 38.391l2.122-2.121zm0-34.15c9.43-9.43 24.719-9.43 34.149 0l2.121-2.12c-10.602-10.602-27.79-10.602-38.392 0l2.122 2.12zm34.18 36.302l20.335 19.169 2.058-2.183-20.335-19.169-2.058 2.183z" fill="#A62E41"/><mask id="a" maskUnits="userSpaceOnUse" x="98" y="64" width="50" height="49"><path d="M148 88.5c0 13.531-10.969 24.5-24.5 24.5s-25-10.969-25-24.5 10-24 25-24.5c13.531 0 24.5 10.969 24.5 24.5z" fill="#C4C4C4"/></mask><g filter="url(#filter3_i)" mask="url(#a)"><path d="M69 97h53a4 4 0 004-4V59l-15.032 5.164a4.006 4.006 0 00-1.179.643L69 97z" fill="#F5F9FF"/></g><path d="M141.254 87.104c0-.992-.083-1.966-.242-2.914m-17.244-14.572c7.17 0 13.333 4.316 16.031 10.492" stroke="#A62E41" stroke-width="2" stroke-linecap="round"/></g><defs><linearGradient id="paint0_linear" x1="99.582" y1="15" x2="99.582" y2="115.244" gradientUnits="userSpaceOnUse"><stop stop-color="#0A3D76"/><stop offset="1" stop-color="#0C53A3"/></linearGradient><linearGradient id="paint1_linear" x1="54.849" y1="86.237" x2="48.973" y2="81.669" gradientUnits="userSpaceOnUse"><stop offset=".382" stop-color="#0C4C94"/><stop offset=".706" stop-color="#0A3A6E"/></linearGradient><linearGradient id="paint2_linear" x1="67.106" y1="56.2" x2="67.106" y2="64.104" gradientUnits="userSpaceOnUse"><stop stop-color="#0A3D76"/><stop offset="1" stop-color="#0C53A3"/></linearGradient><linearGradient id="paint3_linear" x1="35.808" y1="72.879" x2="44.939" y2="82.425" gradientUnits="userSpaceOnUse"><stop stop-color="#0A3D76"/><stop offset="1" stop-color="#1072DF"/></linearGradient><linearGradient id="paint4_linear" x1="37.516" y1="73.756" x2="43.553" y2="82.161" gradientUnits="userSpaceOnUse"><stop stop-color="#337CCE"/><stop offset="1" stop-color="#1069CD"/></linearGradient><linearGradient id="paint5_linear" x1="43.679" y1="81.321" x2="40.281" y2="76.315" gradientUnits="userSpaceOnUse"><stop offset=".617" stop-color="#074181"/><stop offset="1" stop-color="#07458A" stop-opacity="0"/></linearGradient><linearGradient id="paint6_linear" x1="39.583" y1="67.262" x2="51.987" y2="79.683" gradientUnits="userSpaceOnUse"><stop stop-color="#0A3D76"/><stop offset="1" stop-color="#1072DF"/></linearGradient><linearGradient id="paint7_linear" x1="41.803" y1="68.452" x2="50.103" y2="79.52" gradientUnits="userSpaceOnUse"><stop stop-color="#337CCE"/><stop offset="1" stop-color="#1069CD"/></linearGradient><linearGradient id="paint8_linear" x1="49.709" y1="78.728" x2="46.548" y2="73.589" gradientUnits="userSpaceOnUse"><stop offset=".617" stop-color="#074181"/><stop offset="1" stop-color="#07458A" stop-opacity="0"/></linearGradient><linearGradient id="paint9_linear" x1="75.653" y1="61.733" x2="47.052" y2="61.127" gradientUnits="userSpaceOnUse"><stop stop-color="#A62E41"/><stop offset="1" stop-color="#E13152"/></linearGradient><linearGradient id="paint10_linear" x1="58.012" y1="66.081" x2="64.335" y2="75.172" gradientUnits="userSpaceOnUse"><stop stop-color="#A41D34" stop-opacity="0"/><stop offset=".428" stop-color="#830B20"/></linearGradient><linearGradient id="paint11_linear" x1="106.075" y1="46" x2="77.904" y2="45.093" gradientUnits="userSpaceOnUse"><stop stop-color="#A62E41"/><stop offset="1" stop-color="#E13152"/></linearGradient><linearGradient id="paint12_linear" x1="106.075" y1="46" x2="77.904" y2="45.093" gradientUnits="userSpaceOnUse"><stop stop-color="#A62E41"/><stop offset="1" stop-color="#E13152"/></linearGradient><filter id="filter0_di" x="14" y="11" width="172.165" height="109.244" filterUnits="userSpaceOnUse" color-interpolation-filters="sRGB"><feFlood flood-opacity="0" result="BackgroundImageFix"/><feColorMatrix in="SourceAlpha" values="0 0 0 0 0 0 0 0 0 0 0 0 0 0 0 0 0 0 127 0"/><feOffset dx="1" dy="1"/><feGaussianBlur stdDeviation="2"/><feColorMatrix values="0 0 0 0 0.0190972 0 0 0 0 0.207575 0 0 0 0 0.416667 0 0 0 0.3 0"/><feBlend in2="BackgroundImageFix" result="effect1_dropShadow"/><feBlend in="SourceGraphic" in2="effect1_dropShadow" result="shape"/><feColorMatrix in="SourceAlpha" values="0 0 0 0 0 0 0 0 0 0 0 0 0 0 0 0 0 0 127 0" result="hardAlpha"/><feOffset dx="-4" dy="-4"/><feGaussianBlur stdDeviation="4"/><feComposite in2="hardAlpha" operator="arithmetic" k2="-1" k3="1"/><feColorMatrix values="0 0 0 0 0 0 0 0 0 0 0 0 0 0 0 0 0 0 0.2 0"/><feBlend in2="shape" result="effect2_innerShadow"/></filter><filter id="filter1_i" x="24.795" y="28.633" width="95.795" height="65.507" filterUnits="userSpaceOnUse" color-interpolation-filters="sRGB"><feFlood flood-opacity="0" result="BackgroundImageFix"/><feBlend in="SourceGraphic" in2="BackgroundImageFix" result="shape"/><feColorMatrix in="SourceAlpha" values="0 0 0 0 0 0 0 0 0 0 0 0 0 0 0 0 0 0 127 0" result="hardAlpha"/><feOffset dx="-2" dy="-2"/><feGaussianBlur stdDeviation="2"/><feComposite in2="hardAlpha" operator="arithmetic" k2="-1" k3="1"/><feColorMatrix values="0 0 0 0 0 0 0 0 0 0 0 0 0 0 0 0 0 0 0.1 0"/><feBlend in2="shape" result="effect1_innerShadow"/></filter><filter id="filter2_f" x="51.778" y="50.757" width="8.121" height="10.49" filterUnits="userSpaceOnUse" color-interpolation-filters="sRGB"><feFlood flood-opacity="0" result="BackgroundImageFix"/><feBlend in="SourceGraphic" in2="BackgroundImageFix" result="shape"/><feGaussianBlur stdDeviation=".1" result="effect1_foregroundBlur"/></filter><filter id="filter3_i" x="67" y="57" width="59" height="40" filterUnits="userSpaceOnUse" color-interpolation-filters="sRGB"><feFlood flood-opacity="0" result="BackgroundImageFix"/><feBlend in="SourceGraphic" in2="BackgroundImageFix" result="shape"/><feColorMatrix in="SourceAlpha" values="0 0 0 0 0 0 0 0 0 0 0 0 0 0 0 0 0 0 127 0" result="hardAlpha"/><feOffset dx="-2" dy="-2"/><feGaussianBlur stdDeviation="2"/><feComposite in2="hardAlpha" operator="arithmetic" k2="-1" k3="1"/><feColorMatrix values="0 0 0 0 0 0 0 0 0 0 0 0 0 0 0 0 0 0 0.1 0"/><feBlend in2="shape" result="effect1_innerShadow"/></filter><clipPath id="clip0"><path fill="#fff" d="M0 0h200v130H0z"/></clipPath></defs></svg>