<svg width="200" height="130" viewBox="0 0 200 130" fill="none" xmlns="http://www.w3.org/2000/svg">
<g clip-path="url(#clip0)">
<g filter="url(#filter0_di)">
<path d="M184.171 8H15.8286C14.2664 8 13 9.26414 13 10.8235V125.176C13 126.736 14.2664 128 15.8286 128H184.171C185.734 128 187 126.736 187 125.176V10.8235C187 9.26414 185.734 8 184.171 8Z" fill="#0A3D76"/>
<g filter="url(#filter1_i)">
<path d="M180 13H20C18.8954 13 18 13.8954 18 15V121C18 122.105 18.8954 123 20 123H180C181.105 123 182 122.105 182 121V15C182 13.8954 181.105 13 180 13Z" fill="#FAFAF8"/>
</g>
</g>
<g filter="url(#filter2_i)">
<path d="M31.2438 16.6217C31.2446 17.1468 31.0896 17.6603 30.7984 18.0973C30.5072 18.5342 30.0929 18.875 29.6079 19.0763C29.123 19.2776 28.5891 19.3305 28.0741 19.2283C27.559 19.1261 27.0859 18.8733 26.7146 18.502C26.3433 18.1307 26.0905 17.6575 25.9883 17.1425C25.886 16.6274 25.9389 16.0936 26.1403 15.6087C26.3416 15.1237 26.6823 14.7094 27.1193 14.4181C27.5562 14.1269 28.0698 13.9719 28.5949 13.9728C28.9428 13.9728 29.2872 14.0413 29.6086 14.1744C29.93 14.3075 30.222 14.5027 30.468 14.7486C30.7139 14.9946 30.909 15.2866 31.0422 15.608C31.1753 15.9294 31.2438 16.2738 31.2438 16.6217Z" fill="#F5F9FF"/>
</g>
<g filter="url(#filter3_i)">
<path d="M54.6124 16.6217C54.6133 17.1468 54.4583 17.6603 54.1671 18.0973C53.8759 18.5342 53.4615 18.875 52.9766 19.0763C52.4916 19.2776 51.9578 19.3305 51.4427 19.2283C50.9277 19.1261 50.4545 18.8733 50.0832 18.502C49.7119 18.1307 49.4592 17.6575 49.3569 17.1425C49.2547 16.6274 49.3076 16.0936 49.5089 15.6087C49.7103 15.1237 50.051 14.7094 50.4879 14.4181C50.9249 14.1269 51.4384 13.9719 51.9635 13.9728C52.6657 13.9739 53.3388 14.2533 53.8354 14.7499C54.3319 15.2464 54.6113 15.9195 54.6124 16.6217Z" fill="#F5F9FF"/>
</g>
<g filter="url(#filter4_i)">
<path d="M77.9816 16.6217C77.9824 17.1466 77.8275 17.66 77.5365 18.0968C77.2455 18.5337 76.8314 18.8744 76.3467 19.0759C75.862 19.2774 75.3284 19.3305 74.8134 19.2286C74.2985 19.1267 73.8254 18.8744 73.4539 18.5035C73.0824 18.1326 72.8293 17.6599 72.7266 17.1451C72.6239 16.6303 72.6762 16.0966 72.8768 15.6116C73.0775 15.1265 73.4176 14.7119 73.854 14.4202C74.2904 14.1285 74.8035 13.9728 75.3284 13.9728C76.0314 13.9728 76.7056 14.2517 77.203 14.7484C77.7004 15.245 77.9805 15.9188 77.9816 16.6217Z" fill="#F5F9FF"/>
</g>
<g filter="url(#filter5_i)">
<path d="M101.346 16.6217C101.346 17.1456 101.191 17.6577 100.9 18.0933C100.609 18.5289 100.195 18.8685 99.7109 19.0689C99.2269 19.2694 98.6943 19.3219 98.1805 19.2197C97.6666 19.1175 97.1946 18.8652 96.8242 18.4947C96.4537 18.1243 96.2014 17.6523 96.0992 17.1385C95.997 16.6246 96.0495 16.092 96.25 15.608C96.4505 15.124 96.79 14.7103 97.2256 14.4192C97.6612 14.1281 98.1733 13.9728 98.6972 13.9728C99.0451 13.9728 99.3895 14.0413 99.7109 14.1744C100.032 14.3075 100.324 14.5027 100.57 14.7486C100.816 14.9946 101.011 15.2866 101.144 15.608C101.278 15.9294 101.346 16.2738 101.346 16.6217Z" fill="#F5F9FF"/>
</g>
<g filter="url(#filter6_i)">
<path d="M122.066 19.2706C123.529 19.2706 124.715 18.0846 124.715 16.6217C124.715 15.1587 123.529 13.9728 122.066 13.9728C120.603 13.9728 119.417 15.1587 119.417 16.6217C119.417 18.0846 120.603 19.2706 122.066 19.2706Z" fill="#F5F9FF"/>
</g>
<g filter="url(#filter7_i)">
<path d="M148.084 16.6217C148.085 17.1466 147.93 17.66 147.639 18.0968C147.348 18.5337 146.934 18.8744 146.449 19.0759C145.965 19.2774 145.431 19.3305 144.916 19.2286C144.401 19.1267 143.928 18.8744 143.556 18.5035C143.185 18.1326 142.932 17.6599 142.829 17.1451C142.726 16.6303 142.779 16.0966 142.979 15.6116C143.18 15.1265 143.52 14.7119 143.957 14.4202C144.393 14.1285 144.906 13.9728 145.431 13.9728C146.134 13.9728 146.808 14.2517 147.306 14.7484C147.803 15.245 148.083 15.9188 148.084 16.6217Z" fill="#F5F9FF"/>
</g>
<g filter="url(#filter8_i)">
<path d="M171.449 16.6217C171.449 17.1456 171.293 17.6577 171.002 18.0933C170.711 18.5289 170.297 18.8685 169.813 19.0689C169.329 19.2694 168.797 19.3219 168.283 19.2197C167.769 19.1175 167.297 18.8652 166.927 18.4947C166.556 18.1243 166.304 17.6523 166.202 17.1385C166.1 16.6246 166.152 16.092 166.353 15.608C166.553 15.124 166.893 14.7103 167.328 14.4192C167.764 14.1281 168.276 13.9728 168.8 13.9728C169.148 13.9728 169.492 14.0413 169.813 14.1744C170.135 14.3075 170.427 14.5027 170.673 14.7486C170.919 14.9946 171.114 15.2866 171.247 15.608C171.38 15.9294 171.449 16.2738 171.449 16.6217Z" fill="#F5F9FF"/>
</g>
<path d="M21.6755 31.7043L60.2756 31.4496L98.8757 31.2586C111.742 31.1907 124.609 31.0506 137.48 31.1313C150.351 31.2119 166.214 31.3393 179.08 31.7043C179.089 31.7042 179.097 31.706 179.105 31.7095C179.113 31.713 179.12 31.7182 179.126 31.7246C179.131 31.7311 179.135 31.7387 179.138 31.7469C179.14 31.7551 179.141 31.7638 179.14 31.7723C179.14 31.788 179.133 31.8031 179.122 31.8143C179.111 31.8254 179.096 31.8317 179.08 31.8317C166.214 32.1968 150.36 32.2902 137.48 32.4175C124.601 32.5449 111.742 32.3581 98.8757 32.2901L60.2756 32.0991L21.6755 31.8444C21.6671 31.8444 21.6589 31.8428 21.6511 31.8396C21.6434 31.8364 21.6364 31.8317 21.6305 31.8258C21.6246 31.8199 21.6199 31.8128 21.6167 31.8051C21.6135 31.7974 21.6118 31.7891 21.6118 31.7807C21.6118 31.7724 21.6135 31.7641 21.6167 31.7564C21.6199 31.7487 21.6246 31.7416 21.6305 31.7357C21.6364 31.7298 21.6434 31.7251 21.6511 31.7219C21.6589 31.7187 21.6671 31.7171 21.6755 31.7171V31.7043Z" fill="#3C3C3B"/>
<path d="M39.8104 23.6387L40.0651 47.3303L40.2562 71.0176C40.3241 78.9176 40.4684 86.8134 40.3835 94.7092C40.3368 98.6571 40.2901 102.605 40.1925 106.557L40.0397 112.5C39.9633 114.474 39.9081 116.448 39.8104 118.422C39.8104 118.439 39.8037 118.455 39.7918 118.467C39.7798 118.479 39.7636 118.486 39.7468 118.486C39.7299 118.486 39.7137 118.479 39.7017 118.467C39.6898 118.455 39.6831 118.439 39.6831 118.422C39.5854 116.448 39.5345 114.474 39.4581 112.5L39.3053 106.557C39.2034 102.605 39.1567 98.6571 39.11 94.7092C39.0251 86.8134 39.1694 78.9176 39.2373 71.0176L39.4284 47.3303L39.6831 23.6387C39.6831 23.6219 39.6898 23.6057 39.7017 23.5937C39.7137 23.5818 39.7299 23.5751 39.7468 23.5751C39.7551 23.5751 39.7634 23.5767 39.7711 23.5799C39.7788 23.5831 39.7859 23.5878 39.7918 23.5937C39.7977 23.5996 39.8024 23.6067 39.8056 23.6144C39.8088 23.6221 39.8104 23.6304 39.8104 23.6387Z" fill="#3C3C3B"/>
<path d="M110.245 23.6387L110.5 47.3303L110.691 71.0176C110.759 78.9176 110.903 86.8134 110.818 94.7092C110.771 98.657 110.725 102.605 110.627 106.557L110.47 112.5C110.394 114.474 110.343 116.448 110.245 118.422C110.244 118.43 110.242 118.438 110.239 118.446C110.235 118.454 110.23 118.46 110.223 118.466C110.217 118.471 110.21 118.476 110.202 118.478C110.194 118.481 110.185 118.482 110.177 118.481C110.161 118.481 110.146 118.475 110.135 118.464C110.124 118.453 110.118 118.438 110.118 118.422C110.02 116.448 109.969 114.474 109.893 112.5L109.736 106.557C109.638 102.605 109.591 98.657 109.545 94.7092C109.46 86.8134 109.604 78.9176 109.672 71.0176L109.863 47.3303L110.118 23.6387C110.118 23.6219 110.124 23.6057 110.136 23.5937C110.148 23.5818 110.164 23.5751 110.181 23.5751C110.19 23.5751 110.198 23.5767 110.206 23.5799C110.213 23.5831 110.22 23.5878 110.226 23.5937C110.232 23.5996 110.237 23.6067 110.24 23.6144C110.243 23.6221 110.245 23.6304 110.245 23.6387Z" fill="#3C3C3B"/>
<circle cx="30" cy="26" r="3" stroke="#0A3D76" stroke-width="0.2"/>
<g clip-path="url(#clip1)">
<path d="M29.9999 24.4996C29.357 24.4996 28.8315 25.0251 28.8315 25.668C28.8315 26.3109 29.357 26.8364 29.9999 26.8364C30.6428 26.8364 31.1683 26.3109 31.1683 25.668C31.1683 25.0251 30.6428 24.4996 29.9999 24.4996Z" fill="#0A3D76"/>
<path d="M32.1561 27.9685C32.1255 27.8919 31.9337 27.6222 31.8878 27.5558C31.6531 27.2089 31.2909 26.9793 30.8827 26.9232C30.8317 26.9181 30.7756 26.9283 30.7348 26.9589C30.5205 27.1171 30.2654 27.1987 30.0001 27.1987C29.7348 27.1987 29.4797 27.1171 29.2654 26.9589C29.2246 26.9283 29.1684 26.913 29.1174 26.9232C28.7093 26.9793 28.3419 27.2089 28.1123 27.5558C28.0664 27.6222 27.9627 27.8001 27.9321 27.8715C27.9168 27.9022 27.6303 28.0521 27.6457 28.0827C27.5997 28.0215 27.6865 28.1542 27.6457 28.0827C27.7171 28.1797 28.1888 28.3309 28.2755 28.4125C28.3469 28.484 28.5256 28.4742 28.6072 28.5405C29.0103 28.8416 29.495 28.9997 29.995 28.9997C30.495 28.9997 30.9797 28.8416 31.3827 28.5405C31.4644 28.4793 32.0365 28.3621 32.1079 28.2907C32.1895 28.2091 31.991 28.1592 32.0624 28.0622C32.0216 28.1337 32.1134 27.9959 32.0624 28.0622C32.0879 28.0316 32.1715 27.9991 32.1561 27.9685Z" fill="#0A3D76"/>
</g>
<path d="M25.9797 52.8362C27.2103 53.3009 28.3265 54.0247 29.2527 54.9587C30.1897 55.904 30.9286 57.0268 31.4261 58.2613C31.919 59.5065 32.1627 60.8363 32.1435 62.1753C32.1072 62.8363 32.0278 63.4943 31.9058 64.145C31.7402 64.7817 31.5322 65.4185 31.3073 66.0213C31.3026 66.0314 31.2945 66.0395 31.2844 66.0442C31.2742 66.0489 31.2628 66.0498 31.2521 66.0467C31.2438 66.043 31.2366 66.037 31.2314 66.0296C31.2262 66.0221 31.2231 66.0134 31.2224 66.0043C31.2224 65.3463 31.2606 64.7053 31.3115 64.0728C31.3115 63.7544 31.3115 63.4403 31.3115 63.1219C31.3327 62.8095 31.3327 62.4961 31.3115 62.1837C31.2563 61.5597 31.2733 60.9357 31.1629 60.3244C31.0972 59.7051 30.9764 59.0928 30.8021 58.4948C30.4085 57.3025 29.7823 56.2002 28.9597 55.2516C28.1439 54.2769 27.1313 53.4856 25.9882 52.9296C25.9816 52.9219 25.978 52.9121 25.978 52.902C25.978 52.8919 25.9816 52.8821 25.9882 52.8744C25.9838 52.8692 25.9808 52.863 25.9793 52.8563C25.9778 52.8497 25.978 52.8428 25.9797 52.8362Z" fill="#EE4136"/>
<path d="M29.4229 64.2129C29.801 64.6018 30.1381 65.0285 30.4289 65.4864C30.5733 65.7071 30.7133 65.9321 30.8534 66.1614C30.8835 66.2119 30.9255 66.2543 30.9759 66.2846C31.0263 66.315 31.0834 66.3324 31.1421 66.3354C31.1976 66.3404 31.2533 66.3301 31.3034 66.3057L31.4435 66.225L31.6133 66.1232C31.8425 65.9916 32.076 65.86 32.3137 65.7453C32.7937 65.4947 33.2988 65.2955 33.8207 65.151C33.4793 65.5716 33.0968 65.957 32.6788 66.3015C32.4793 66.4755 32.2543 66.6368 32.059 66.7939L31.8977 66.9127C31.8383 66.9509 31.8043 66.9807 31.7024 67.0443C31.5181 67.1452 31.3096 67.1937 31.0996 67.1844C30.8933 67.1728 30.694 67.1049 30.5234 66.9882C30.3528 66.8715 30.2174 66.7103 30.1318 66.5222C30.0299 66.2802 29.9323 66.034 29.8431 65.7836C29.6496 65.2758 29.5088 64.7494 29.4229 64.2129Z" fill="#EE4136"/>
<path d="M23.2929 90.2476C23.2445 90.2478 23.1976 90.2315 23.1598 90.2014C23.1219 90.1713 23.0955 90.1292 23.0849 90.0821C23.0787 90.055 23.0779 90.027 23.0827 89.9996C23.0875 89.9723 23.0977 89.9462 23.1127 89.9228C23.1278 89.8995 23.1473 89.8794 23.1702 89.8637C23.1932 89.848 23.219 89.8371 23.2462 89.8316C24.7531 89.43 26.3016 89.2049 27.8605 89.1609C28.6837 89.1876 29.5045 89.2642 30.3184 89.3901C31.4384 89.5921 32.5794 89.652 33.7145 89.5684C33.7707 89.5622 33.8272 89.5786 33.8714 89.6141C33.9156 89.6495 33.9439 89.701 33.9501 89.7573C33.9562 89.8136 33.9398 89.8701 33.9044 89.9142C33.869 89.9584 33.8174 89.9867 33.7611 89.9929C32.5935 90.077 31.42 90.0157 30.2675 89.8104C29.4719 89.6867 28.6695 89.6115 27.8648 89.5854C26.3391 89.632 24.8237 89.8528 23.3481 90.2434L23.2929 90.2476Z" fill="#D6516B"/>
<path d="M33.1963 93.1513C32.3701 93.1058 31.5468 93.0165 30.73 92.8839C30.246 92.8117 29.7494 92.7395 29.2612 92.6886C27.988 92.4876 26.6847 92.6088 25.4704 93.041C25.4199 93.0563 25.3655 93.0523 25.3178 93.0298C25.2701 93.0072 25.2325 92.9677 25.2124 92.9189C25.1922 92.8702 25.191 92.8156 25.2088 92.766C25.2267 92.7163 25.2625 92.6751 25.3091 92.6504C26.3746 92.2259 27.6438 92.0901 29.3036 92.2641C29.8046 92.3193 30.3055 92.3915 30.7894 92.4636C31.5922 92.5942 32.4013 92.682 33.2133 92.7268C33.2696 92.7268 33.3236 92.7492 33.3634 92.789C33.4032 92.8288 33.4256 92.8828 33.4256 92.9391C33.4256 92.9954 33.4032 93.0494 33.3634 93.0892C33.3236 93.129 33.2696 93.1513 33.2133 93.1513H33.1963Z" fill="#D6516B"/>
<path d="M26.8291 111.683C26.8333 111.861 26.7843 112.037 26.6885 112.188C26.5926 112.339 26.4542 112.458 26.2906 112.531C26.127 112.603 25.9457 112.625 25.7696 112.594C25.5934 112.564 25.4304 112.481 25.301 112.358C25.1716 112.234 25.0818 112.075 25.0428 111.901C25.0038 111.726 25.0174 111.544 25.0819 111.377C25.1464 111.211 25.2589 111.067 25.4052 110.964C25.5515 110.861 25.725 110.804 25.9037 110.8C26.0225 110.797 26.1406 110.817 26.2514 110.86C26.3622 110.903 26.4634 110.967 26.5494 111.049C26.6353 111.131 26.7042 111.23 26.7523 111.338C26.8003 111.447 26.8264 111.564 26.8291 111.683Z" fill="#0A3D76"/>
<path d="M26.8289 114.327C26.8289 114.506 26.7759 114.681 26.6765 114.83C26.5772 114.978 26.4359 115.094 26.2707 115.163C26.1055 115.231 25.9237 115.249 25.7483 115.214C25.5729 115.179 25.4118 115.093 25.2853 114.967C25.1589 114.84 25.0728 114.679 25.0379 114.504C25.003 114.328 25.0209 114.146 25.0893 113.981C25.1578 113.816 25.2737 113.675 25.4224 113.575C25.5711 113.476 25.7459 113.423 25.9247 113.423C26.1645 113.423 26.3945 113.518 26.5641 113.688C26.7336 113.858 26.8289 114.087 26.8289 114.327Z" fill="#0A3D76"/>
<path d="M26.8289 116.968C26.8289 117.147 26.7759 117.321 26.6765 117.47C26.5772 117.619 26.4359 117.735 26.2707 117.803C26.1055 117.871 25.9237 117.889 25.7483 117.854C25.5729 117.82 25.4118 117.733 25.2853 117.607C25.1589 117.481 25.0728 117.319 25.0379 117.144C25.003 116.969 25.0209 116.787 25.0893 116.622C25.1578 116.456 25.2737 116.315 25.4224 116.216C25.5711 116.117 25.7459 116.063 25.9247 116.063C26.1642 116.065 26.3935 116.16 26.5628 116.33C26.7322 116.499 26.8278 116.728 26.8289 116.968Z" fill="#0A3D76"/>
<path d="M28.909 112.073C28.8527 112.077 28.7973 112.058 28.7551 112.02C28.713 111.983 28.6874 111.93 28.684 111.874C28.6806 111.817 28.6997 111.762 28.7371 111.72C28.7746 111.678 28.8272 111.652 28.8835 111.649C30.7034 111.415 32.5419 111.361 34.3723 111.487C34.4279 111.492 34.4795 111.518 34.5161 111.56C34.5526 111.602 34.5711 111.657 34.5676 111.712C34.5665 111.741 34.5598 111.768 34.5478 111.794C34.5358 111.819 34.5188 111.842 34.4977 111.86C34.4767 111.879 34.4521 111.893 34.4255 111.902C34.3988 111.911 34.3706 111.914 34.3426 111.912C32.5446 111.791 30.739 111.845 28.9514 112.073H28.909Z" fill="#D6516B"/>
<path d="M29.1552 114.646C29.1275 114.646 29.1 114.641 29.0743 114.631C29.0485 114.621 29.0251 114.606 29.0053 114.586C28.9856 114.567 28.9699 114.544 28.9591 114.518C28.9484 114.493 28.9429 114.465 28.9429 114.438C28.9424 114.41 28.9473 114.382 28.9574 114.356C28.9676 114.33 28.9828 114.306 29.0021 114.286C29.0214 114.266 29.0445 114.25 29.07 114.239C29.0956 114.228 29.123 114.222 29.1509 114.221C30.8489 114.221 32.547 114.174 34.194 114.115C34.2497 114.115 34.3035 114.136 34.3444 114.174C34.3853 114.211 34.4105 114.263 34.4148 114.319C34.416 114.375 34.3954 114.429 34.3574 114.47C34.3194 114.511 34.2669 114.536 34.211 114.54C32.5385 114.599 30.815 114.633 29.1552 114.646Z" fill="#D6516B"/>
<path d="M34.8265 117.435L31.6512 117.324C30.8533 117.275 30.0527 117.289 29.257 117.367C29.2291 117.37 29.2008 117.368 29.1737 117.361C29.1466 117.353 29.1212 117.341 29.0991 117.323C29.077 117.306 29.0585 117.284 29.0448 117.26C29.0311 117.235 29.0225 117.208 29.0193 117.18C29.0133 117.124 29.0294 117.068 29.0643 117.023C29.0992 116.979 29.1501 116.95 29.2061 116.942C30.0243 116.862 30.8477 116.848 31.6682 116.9L34.8435 117.01C34.899 117.012 34.9515 117.036 34.9896 117.077C35.0277 117.117 35.0484 117.171 35.0473 117.227C35.045 117.283 35.0207 117.337 34.9794 117.376C34.9381 117.415 34.8832 117.436 34.8265 117.435Z" fill="#D6516B"/>
<path d="M97.0464 37.8512H87.147C86.7953 37.8512 86.5103 38.1363 86.5103 38.488C86.5103 38.8396 86.7953 39.1247 87.147 39.1247H97.0464C97.3981 39.1247 97.6832 38.8396 97.6832 38.488C97.6832 38.1363 97.3981 37.8512 97.0464 37.8512Z" fill="url(#paint0_linear)"/>
<path d="M58.9172 71.6841H52.8213C52.4697 71.6841 52.1846 71.9692 52.1846 72.3208C52.1846 72.6725 52.4697 72.9576 52.8213 72.9576H58.9172C59.2689 72.9576 59.554 72.6725 59.554 72.3208C59.554 71.9692 59.2689 71.6841 58.9172 71.6841Z" fill="url(#paint1_linear)"/>
<path d="M59.9364 75.2584H51.8072C51.4555 75.2584 51.1704 75.5435 51.1704 75.8952C51.1704 76.2469 51.4555 76.5319 51.8072 76.5319H59.9364C60.2881 76.5319 60.5732 76.2469 60.5732 75.8952C60.5732 75.5435 60.2881 75.2584 59.9364 75.2584Z" fill="url(#paint2_linear)"/>
<path d="M59.9364 79.4609H51.8072C51.4555 79.4609 51.1704 79.746 51.1704 80.0977C51.1704 80.4494 51.4555 80.7345 51.8072 80.7345H59.9364C60.2881 80.7345 60.5732 80.4494 60.5732 80.0977C60.5732 79.746 60.2881 79.4609 59.9364 79.4609Z" fill="url(#paint3_linear)"/>
<path d="M99.8568 41.5273H84.3369C83.9853 41.5273 83.7002 41.8124 83.7002 42.1641C83.7002 42.5158 83.9853 42.8008 84.3369 42.8008H99.8568C100.208 42.8008 100.494 42.5158 100.494 42.1641C100.494 41.8124 100.208 41.5273 99.8568 41.5273Z" fill="url(#paint4_linear)"/>
<path d="M97.4795 48.833H86.7183C86.3666 48.833 86.0815 49.1181 86.0815 49.4698C86.0815 49.8214 86.3666 50.1065 86.7183 50.1065H97.4795C97.8311 50.1065 98.1162 49.8214 98.1162 49.4698C98.1162 49.1181 97.8311 48.833 97.4795 48.833Z" fill="#71A0DD"/>
<path d="M98.4728 52.2377H85.7207C85.3691 52.2377 85.084 52.5228 85.084 52.8744C85.084 53.2261 85.3691 53.5112 85.7207 53.5112H98.4728C98.8245 53.5112 99.1096 53.2261 99.1096 52.8744C99.1096 52.5228 98.8245 52.2377 98.4728 52.2377Z" fill="#71A0DD"/>
<g style="mix-blend-mode:multiply">
<g style="mix-blend-mode:multiply">
<path d="M66.5266 97.9637L49.6025 99.3938L51.0326 116.318L67.9567 114.888L66.5266 97.9637Z" fill="#DDDDDD"/>
</g>
</g>
<path d="M66.6514 96.8531L49.7778 98.7905L51.7152 115.664L68.5888 113.727L66.6514 96.8531Z" fill="#71A0DD"/>
<path d="M57.6354 66.6962C55.3186 67.1094 53.1731 68.191 51.4631 69.8078C50.592 70.5741 49.8192 71.4453 49.1623 72.4015C48.5028 73.3299 48.0272 74.376 47.7614 75.4834C47.6653 76.0286 47.6495 76.5849 47.7147 77.1347C47.7926 77.6872 47.9351 78.2286 48.1392 78.7478C48.5788 79.7856 49.231 80.7198 50.0537 81.4901C50.858 82.2725 51.8247 82.8682 52.8852 83.2348C53.9502 83.5792 55.0796 83.6765 56.1878 83.5192C58.4443 83.2139 60.4949 82.0471 61.9101 80.2633C62.6164 79.3706 63.1687 78.3663 63.5445 77.2918C63.9314 76.2237 64.1059 75.0902 64.0581 73.9552C64.0046 72.8324 63.6157 71.7515 62.9417 70.8521C62.8614 70.7371 62.775 70.6265 62.6827 70.5209L62.3813 70.228C62.2842 70.1267 62.1807 70.0317 62.0714 69.9436L61.7361 69.6974C61.2524 69.3969 60.7334 69.1574 60.1909 68.9842C59.0809 68.6365 57.9186 68.4856 56.7566 68.5385C55.5834 68.5533 54.4302 68.8441 53.3903 69.3875C54.3985 68.7507 55.5498 68.3757 56.7397 68.2965C57.935 68.1788 59.1418 68.2708 60.3055 68.5682C60.8982 68.7288 61.4687 68.9627 62.0035 69.2644L62.3898 69.5276C62.5172 69.6125 62.6233 69.7271 62.7422 69.8248L63.086 70.1346C63.1964 70.2408 63.2855 70.3681 63.3874 70.487C64.1664 71.4576 64.6327 72.6418 64.7246 73.883C64.8197 75.1093 64.6607 76.342 64.2576 77.504C63.8767 78.6671 63.3026 79.7577 62.5596 80.7303C61.0254 82.6965 58.7856 83.9878 56.3152 84.33C55.0799 84.5 53.8222 84.3838 52.639 83.9904C52.0431 83.7914 51.4731 83.5221 50.9409 83.1881C50.4222 82.8742 49.9396 82.5041 49.5019 82.0844C48.6134 81.2225 47.915 80.1843 47.4515 79.0365C47.2382 78.4543 47.0957 77.8486 47.027 77.2324C46.9689 76.6094 47.0047 75.9811 47.1331 75.3688C47.2738 74.7684 47.4892 74.1879 47.7741 73.641C47.8999 73.3683 48.0416 73.1032 48.1987 72.8472C48.3532 72.5881 48.5233 72.3386 48.7081 72.1001C50.1441 70.1692 52.0415 68.6294 54.2266 67.6216C55.2954 67.1037 56.4514 66.7898 57.6354 66.6962Z" fill="#EE4136"/>
<g style="mix-blend-mode:multiply">
<g style="mix-blend-mode:multiply">
<path d="M68.6831 38.3807L51.7148 39.1216L52.4557 56.0898L69.4239 55.3489L68.6831 38.3807Z" fill="#DDDDDD"/>
</g>
</g>
<g style="mix-blend-mode:multiply">
<g style="mix-blend-mode:multiply">
<path d="M88.9487 97.2047L71.9785 96.5112L71.2851 113.481L88.2553 114.175L88.9487 97.2047Z" fill="#DDDDDD"/>
</g>
</g>
<path d="M89.616 96.8244L72.7124 95.1699L71.058 112.074L87.9616 113.728L89.616 96.8244Z" fill="#0A3D76"/>
<path d="M68.2988 37.6771H51.3145V54.6615H68.2988V37.6771Z" fill="url(#paint5_linear)"/>
<path d="M58.0688 46.4898C57.3255 46.4879 56.595 46.2965 55.9463 45.9337C55.8019 45.8531 55.6576 45.7639 55.5218 45.6705C55.3052 45.5216 55.0749 45.3937 54.8341 45.2885C54.7049 45.2278 54.5625 45.2006 54.42 45.2095C54.2776 45.2184 54.1396 45.2631 54.019 45.3394C53.9771 45.3768 53.9281 45.4055 53.875 45.4238C53.8219 45.4422 53.7657 45.4498 53.7096 45.4462C53.6536 45.4427 53.5988 45.428 53.5484 45.4031C53.498 45.3782 53.4531 45.3436 53.4162 45.3012C53.3425 45.2162 53.3056 45.1054 53.3136 44.9931C53.3215 44.8809 53.3737 44.7764 53.4587 44.7027C53.6944 44.5134 53.9784 44.394 54.2785 44.358C54.5787 44.322 54.8829 44.3708 55.1567 44.4989C55.4548 44.6218 55.7394 44.7755 56.0057 44.9574C56.133 45.038 56.2604 45.1187 56.392 45.1951C56.8574 45.4557 57.3761 45.6068 57.9086 45.6369C58.4411 45.6671 58.9735 45.5755 59.4654 45.3691C59.7573 45.2349 60.0408 45.0832 60.3144 44.9149C60.7372 44.6443 61.1921 44.4276 61.6686 44.2697C62.2581 44.107 62.8808 44.1084 63.4696 44.2737C64.0583 44.4391 64.5908 44.762 65.0094 45.2078C65.0871 45.2894 65.1292 45.3986 65.1264 45.5112C65.1236 45.6239 65.0762 45.7308 64.9946 45.8085C64.9541 45.8469 64.9065 45.8771 64.8545 45.8971C64.8024 45.9172 64.7469 45.9268 64.6911 45.9255C64.5785 45.9227 64.4716 45.8753 64.3939 45.7936C64.0836 45.4595 63.6876 45.2168 63.2491 45.0918C62.8105 44.9668 62.3461 44.9644 61.9063 45.0847C61.4957 45.2248 61.1037 45.4144 60.7389 45.6493C60.4335 45.8347 60.1174 46.002 59.7923 46.1502C59.2474 46.3813 58.6606 46.4969 58.0688 46.4898Z" fill="#F5F9FF"/>
<path d="M58.6883 51.0956C57.9451 51.0931 57.2147 50.9018 56.5657 50.5395C56.4214 50.4589 56.2813 50.3697 56.1412 50.2764C55.9227 50.1283 55.6911 50.0004 55.4493 49.8943C55.3201 49.8336 55.1777 49.8064 55.0352 49.8153C54.8928 49.8242 54.7549 49.8689 54.6343 49.9452C54.5923 49.9826 54.5434 50.0113 54.4903 50.0297C54.4372 50.048 54.3809 50.0556 54.3249 50.0521C54.2688 50.0485 54.214 50.0339 54.1636 50.009C54.1133 49.9841 54.0683 49.9494 54.0315 49.907C53.9578 49.822 53.9208 49.7112 53.9288 49.599C53.9368 49.4867 53.989 49.3823 54.0739 49.3085C54.3096 49.1192 54.5936 48.9998 54.8938 48.9638C55.1939 48.9278 55.4981 48.9766 55.7719 49.1047C56.0701 49.2276 56.3546 49.3813 56.6209 49.5632C56.7483 49.6438 56.8756 49.7245 57.0072 49.8009C57.4726 50.0615 57.9913 50.2126 58.5238 50.2428C59.0564 50.2729 59.5888 50.1813 60.0806 49.975C60.3725 49.8407 60.656 49.6891 60.9296 49.5207C61.3514 49.251 61.8048 49.0342 62.2796 48.8755C62.8697 48.7129 63.4931 48.7144 64.0825 48.8797C64.6719 49.045 65.2051 49.3679 65.6247 49.8136C65.6631 49.8541 65.6932 49.9017 65.7133 49.9537C65.7334 50.0058 65.743 50.0613 65.7416 50.1171C65.7402 50.1728 65.7279 50.2278 65.7053 50.2788C65.6827 50.3298 65.6502 50.3758 65.6098 50.4143C65.5694 50.4528 65.5218 50.4829 65.4697 50.503C65.4177 50.523 65.3622 50.5327 65.3064 50.5313C65.2506 50.5299 65.1956 50.5176 65.1446 50.4949C65.0936 50.4723 65.0476 50.4399 65.0091 50.3995C64.6984 50.0658 64.3027 49.823 63.8644 49.6974C63.4261 49.5717 62.9618 49.5679 62.5215 49.6863C62.0983 49.8231 61.6934 50.0113 61.3159 50.2466C61.0086 50.4312 60.6911 50.5985 60.3651 50.7475C59.8353 50.9753 59.2649 51.0937 58.6883 51.0956Z" fill="#F5F9FF"/>
<path d="M62.7975 40.3939H56.8247C56.4731 40.3939 56.188 40.679 56.188 41.0307C56.188 41.3823 56.4731 41.6674 56.8247 41.6674H62.7975C63.1492 41.6674 63.4343 41.3823 63.4343 41.0307C63.4343 40.679 63.1492 40.3939 62.7975 40.3939Z" fill="#F5F9FF"/>
<g style="mix-blend-mode:multiply">
<g style="mix-blend-mode:multiply">
<path d="M81.4126 40.8852L64.5024 42.4718L66.089 59.3819L82.9991 57.7954L81.4126 40.8852Z" fill="#DDDDDD"/>
</g>
</g>
<path d="M93.9518 82.9335C95.9901 83.7446 97.6778 85.2475 98.7189 87.1785C99.7866 89.1247 100.294 91.3289 100.183 93.5461C100.139 94.6772 99.8489 95.7851 99.3345 96.7935C99.1859 97.0355 99.05 97.2902 98.8845 97.5237C98.7197 97.7552 98.5425 97.9776 98.3539 98.1901C97.9689 98.6039 97.5422 98.9766 97.0803 99.3023C95.2103 100.522 92.9729 101.049 90.7552 100.792C90.7497 100.792 90.7442 100.79 90.7393 100.788C90.7343 100.785 90.7299 100.781 90.7264 100.777C90.7228 100.773 90.7202 100.768 90.7186 100.762C90.717 100.757 90.7164 100.751 90.717 100.746C90.717 100.724 90.717 100.712 90.7552 100.707C92.8778 100.465 94.9536 99.8584 96.5879 98.6146C96.9951 98.3139 97.3718 97.9741 97.7129 97.6001C97.8827 97.4133 98.0312 97.2095 98.1925 97.0185C98.3538 96.8275 98.4685 96.594 98.617 96.386C99.133 95.504 99.4448 94.5176 99.5297 93.4994C99.7086 91.3987 99.3047 89.2894 98.3623 87.4035C97.453 85.4656 95.8855 83.9133 93.939 83.0226C93.929 83.018 93.9212 83.0096 93.9172 82.9993C93.9133 82.989 93.9135 82.9776 93.9178 82.9674C93.9194 82.959 93.9234 82.9513 93.9295 82.9452C93.9356 82.9391 93.9433 82.935 93.9518 82.9335Z" fill="#0070C8"/>
<path d="M92.2324 98.6698C91.9771 99.1242 91.6755 99.551 91.3324 99.9433C91.1669 100.134 90.9928 100.317 90.8146 100.499C90.5683 100.737 90.6235 100.699 90.6193 100.754C90.615 100.809 90.6193 100.784 90.6447 100.805L90.9334 101.051C91.1202 101.217 91.307 101.391 91.4853 101.569C91.8547 101.931 92.1848 102.331 92.4701 102.762C91.983 102.588 91.515 102.365 91.0735 102.096C90.857 101.968 90.649 101.828 90.4367 101.671L90.1311 101.45C89.946 101.308 89.8203 101.103 89.7788 100.873C89.743 100.641 89.7977 100.404 89.9316 100.211C90.0326 100.087 90.1497 99.9769 90.2797 99.8839C90.4749 99.7268 90.6787 99.574 90.8867 99.4297C91.3081 99.131 91.759 98.8764 92.2324 98.6698Z" fill="#1C75BB"/>
<path d="M80.74 39.2317L63.9331 41.6805L66.382 58.4875L83.1889 56.0386L80.74 39.2317Z" fill="#71A0DD"/>
<path d="M67.5904 49.0496H67.5394C67.5125 49.0432 67.4872 49.0314 67.4649 49.0151C67.4426 48.9987 67.4238 48.9781 67.4095 48.9544C67.3953 48.9307 67.3859 48.9043 67.382 48.877C67.3781 48.8496 67.3796 48.8217 67.3866 48.7949C67.5558 48.1089 67.9791 47.5126 68.571 47.1266C68.8496 46.9378 69.1641 46.8083 69.4949 46.7463C69.8258 46.6842 70.1658 46.6908 70.494 46.7658C70.7278 46.83 70.9563 46.9123 71.1774 47.012C71.4591 47.1463 71.7598 47.2365 72.0689 47.2795C72.816 47.3431 73.4443 46.787 74.115 46.2055C74.8536 45.5687 75.6135 44.932 76.5771 45.0678C76.9428 45.1488 77.2918 45.2924 77.6086 45.4923C77.7926 45.5981 77.9825 45.693 78.1775 45.7767C78.4475 45.8903 78.7501 45.8994 79.0265 45.8022C79.0972 45.7733 79.1613 45.7301 79.2146 45.6753C79.2679 45.6205 79.3094 45.5553 79.3364 45.4838C79.3462 45.4575 79.3612 45.4334 79.3805 45.4129C79.3998 45.3925 79.4229 45.376 79.4486 45.3646C79.4743 45.3531 79.502 45.3469 79.5301 45.3462C79.5582 45.3455 79.5861 45.3505 79.6123 45.3607C79.6644 45.3807 79.7066 45.4204 79.7296 45.4713C79.7527 45.5221 79.7547 45.58 79.7354 45.6324C79.6883 45.7575 79.6162 45.8717 79.5235 45.968C79.4308 46.0643 79.3195 46.1408 79.1963 46.1927C78.8122 46.3471 78.3833 46.3471 77.9992 46.1927C77.7878 46.1022 77.5822 45.9988 77.3836 45.8828C77.1087 45.706 76.8059 45.5769 76.4879 45.5008C75.7238 45.3734 75.0701 45.9253 74.3654 46.5366C73.6608 47.1479 72.9306 47.7804 72.0137 47.7167C71.6588 47.6714 71.3134 47.5697 70.9906 47.4153C70.7863 47.3266 70.5765 47.2515 70.3624 47.1903C70.0917 47.1288 69.8111 47.1242 69.5386 47.1768C69.266 47.2294 69.0073 47.3381 68.779 47.4959C68.2781 47.8242 67.9189 48.3288 67.7729 48.9095C67.7592 48.948 67.7346 48.9816 67.7023 49.0065C67.6699 49.0313 67.631 49.0463 67.5904 49.0496Z" fill="#F5F9FF"/>
<path d="M67.8916 51.9065C67.8481 51.9073 67.8059 51.8922 67.7727 51.8641C67.7499 51.8484 67.7305 51.8283 67.7155 51.805C67.7006 51.7817 67.6904 51.7556 67.6857 51.7283C67.6809 51.7011 67.6817 51.6731 67.6879 51.6461C67.6941 51.6191 67.7056 51.5936 67.7218 51.5712C68.0487 51.0998 68.4986 50.7272 69.0225 50.4936C69.5464 50.2601 70.1243 50.1747 70.6933 50.2467C71.17 50.3321 71.6347 50.4746 72.0772 50.6712C72.381 50.8017 72.693 50.9123 73.0111 51.0023C73.5591 51.1452 74.1326 51.1605 74.6874 51.0472C75.2423 50.9339 75.7638 50.6949 76.2119 50.3486C76.335 50.2552 76.4538 50.1533 76.5685 50.0515C76.7925 49.8432 77.0372 49.6583 77.2986 49.4996C77.5167 49.3567 77.77 49.2768 78.0307 49.2685C78.2913 49.2603 78.5492 49.3241 78.7759 49.4529C78.82 49.4847 78.8502 49.5321 78.8603 49.5855C78.8705 49.6389 78.8597 49.6942 78.8304 49.7399C78.801 49.7856 78.7552 49.8183 78.7024 49.8313C78.6496 49.8442 78.5939 49.8364 78.5466 49.8095C78.3844 49.7235 78.2017 49.6836 78.0183 49.6941C77.835 49.7046 77.658 49.765 77.5066 49.8689C77.2704 50.014 77.0499 50.1833 76.8486 50.3741C76.7255 50.4802 76.6024 50.5863 76.4751 50.684C75.9747 51.0691 75.3931 51.3351 74.7744 51.4616C74.1558 51.5882 73.5164 51.5719 72.905 51.4141C72.5678 51.319 72.2373 51.2013 71.9159 51.0618C71.5098 50.8702 71.0822 50.7277 70.6424 50.6373C70.1538 50.5794 69.6587 50.6554 69.21 50.8573C68.7614 51.0592 68.3761 51.3794 68.0954 51.7834C68.0776 51.822 68.0487 51.8543 68.0124 51.8762C67.9761 51.8982 67.934 51.9087 67.8916 51.9065Z" fill="#F5F9FF"/>
<path d="M68.8423 56.0284C68.8165 56.0289 68.7908 56.0243 68.7667 56.0149C68.7427 56.0054 68.7208 55.9912 68.7022 55.9732C68.681 55.9553 68.6636 55.9333 68.651 55.9086C68.6384 55.8838 68.6309 55.8568 68.6289 55.8291C68.627 55.8014 68.6306 55.7736 68.6395 55.7473C68.6484 55.721 68.6625 55.6968 68.681 55.6761C69.1435 55.1371 69.7183 54.7058 70.3651 54.4125C71.0118 54.1192 71.715 53.9709 72.4251 53.978C72.9769 54.0068 73.5252 54.0835 74.0637 54.2073C74.4415 54.2837 74.8278 54.3601 75.2099 54.4026C76.3663 54.5215 77.5325 54.3033 78.5677 53.7743C78.6178 53.7491 78.6759 53.7448 78.7292 53.7623C78.7825 53.7798 78.8267 53.8177 78.8521 53.8677C78.8652 53.8924 78.8731 53.9195 78.8755 53.9473C78.8778 53.9751 78.8745 54.0032 78.8658 54.0297C78.8571 54.0563 78.8431 54.0808 78.8247 54.1018C78.8063 54.1228 78.7839 54.1399 78.7587 54.1521C77.651 54.7208 76.4014 54.9539 75.1632 54.8228C74.7641 54.7804 74.3651 54.6997 73.983 54.6233C73.4681 54.5055 72.9441 54.4317 72.4166 54.4026C71.7691 54.4 71.1287 54.5371 70.539 54.8045C69.9493 55.0719 69.4241 55.4633 68.9994 55.952C68.9801 55.9751 68.9561 55.9939 68.9291 56.0071C68.902 56.0203 68.8724 56.0275 68.8423 56.0284Z" fill="#F5F9FF"/>
<path d="M77.2657 42.0307L68.5534 43.3002C68.2054 43.3509 67.9644 43.6741 68.0151 44.0221C68.0659 44.3701 68.3891 44.6111 68.7371 44.5604L77.4493 43.2909C77.7973 43.2402 78.0383 42.917 77.9876 42.569C77.9369 42.221 77.6136 41.98 77.2657 42.0307Z" fill="#F5F9FF"/>
<g style="mix-blend-mode:multiply">
<g style="mix-blend-mode:multiply">
<path d="M83.1539 67.6972L66.4512 64.6166L63.3706 81.3193L80.0733 84.3998L83.1539 67.6972Z" fill="#DDDDDD"/>
</g>
</g>
<path d="M82.7628 67.0048L66.2822 62.8988L62.1762 79.3794L78.6568 83.4854L82.7628 67.0048Z" fill="url(#paint6_linear)"/>
<path d="M69.0079 66.762L68.7002 67.9978L79.2621 70.6273L79.5697 69.3915L69.0079 66.762Z" fill="#F5F9FF"/>
<path d="M76.4707 76.0013C75.7033 76.0177 74.9428 75.8534 74.2506 75.5216C73.4456 75.0682 72.7271 74.4761 72.1281 73.7727L72.0177 73.658C71.425 72.9518 70.6826 72.3863 69.8442 72.0025C69.1099 71.7265 68.0486 71.7435 67.4585 72.427C67.4219 72.4698 67.3699 72.4963 67.3137 72.5006C67.2576 72.505 67.202 72.4869 67.1593 72.4503C67.1165 72.4137 67.09 72.3617 67.0856 72.3055C67.0812 72.2494 67.0993 72.1938 67.1359 72.1511C67.8576 71.302 69.1226 71.2681 69.9971 71.5949C70.8931 72.0012 71.6877 72.6015 72.3233 73.3524L72.4337 73.467C72.9994 74.131 73.6741 74.6937 74.4289 75.1311C75.9189 75.8739 77.74 75.5216 79.1621 75.1311C79.2161 75.1167 79.2736 75.1243 79.3221 75.1521C79.3706 75.18 79.4061 75.2258 79.421 75.2796C79.4294 75.3067 79.4321 75.3351 79.4291 75.3633C79.4261 75.3914 79.4173 75.4186 79.4034 75.4432C79.3895 75.4679 79.3707 75.4894 79.3482 75.5065C79.3257 75.5237 79.2999 75.536 79.2725 75.5428C78.3625 75.8171 77.4206 75.9712 76.4707 76.0013Z" fill="#F5F9FF"/>
<path d="M77.8121 79.4653C76.9812 79.3693 76.1638 79.1799 75.3754 78.9007L69.1904 76.9565C68.2273 76.6171 67.2314 76.3795 66.2189 76.2476C66.1633 76.2401 66.1127 76.2119 66.0772 76.1685C66.0418 76.1252 66.0241 76.07 66.0278 76.0141C66.0343 75.9581 66.0622 75.9069 66.1058 75.8712C66.1494 75.8355 66.2052 75.8183 66.2613 75.823C67.2968 75.9593 68.3154 76.2026 69.3008 76.549L75.4858 78.4932C76.244 78.7633 77.0299 78.9484 77.829 79.045C77.8853 79.045 77.9393 79.0674 77.9791 79.1072C78.0189 79.147 78.0413 79.201 78.0413 79.2573C78.0413 79.3136 78.0189 79.3676 77.9791 79.4074C77.9393 79.4472 77.8853 79.4695 77.829 79.4695L77.8121 79.4653Z" fill="#F5F9FF"/>
<g style="mix-blend-mode:multiply">
<g style="mix-blend-mode:multiply">
<path d="M89.3457 70.0668H72.3613V87.0512H89.3457V70.0668Z" fill="#DDDDDD"/>
</g>
</g>
<path d="M88.7686 69.0352H71.7842V86.0196H88.7686V69.0352Z" fill="#F985A0"/>
<path d="M85.0839 71.6841H75.4732C75.1215 71.6841 74.8364 71.9692 74.8364 72.3208C74.8364 72.6725 75.1215 72.9576 75.4732 72.9576H85.0839C85.4356 72.9576 85.7207 72.6725 85.7207 72.3208C85.7207 71.9692 85.4356 71.6841 85.0839 71.6841Z" fill="#1C75BB"/>
<path d="M84.0096 78.5993C83.2505 78.6177 82.5059 78.3899 81.8871 77.9498C81.7168 77.8172 81.5538 77.6755 81.3989 77.5253C81.1235 77.193 80.7509 76.9555 80.3334 76.8461C79.79 76.7824 79.3019 77.1814 78.767 77.6739C78.2321 78.1663 77.5571 78.6757 76.7888 78.4507C76.4915 78.3443 76.2207 78.1749 75.995 77.954C75.8288 77.8008 75.6415 77.6721 75.4389 77.572C75.2994 77.5215 75.1502 77.5041 75.0029 77.521C74.8556 77.538 74.7142 77.5888 74.5899 77.6696C74.4582 77.7439 74.3455 77.8477 74.2608 77.973C74.1761 78.0982 74.1216 78.2414 74.1017 78.3913C74.0963 78.4469 74.0692 78.4981 74.0263 78.5339C73.9834 78.5696 73.9281 78.587 73.8725 78.5823C73.8169 78.5769 73.7656 78.5498 73.7299 78.5069C73.6941 78.464 73.6767 78.4087 73.6814 78.3531C73.7111 78.1388 73.7882 77.9337 73.907 77.753C74.0259 77.5722 74.1836 77.4201 74.3685 77.3079C74.5535 77.1957 74.7612 77.1261 74.9765 77.1043C75.1917 77.0824 75.4091 77.1087 75.6129 77.1814C75.8577 77.2948 76.0827 77.4467 76.2794 77.6314C76.4614 77.8157 76.6796 77.9603 76.9204 78.0559C77.4807 78.2172 78.0878 77.746 78.4911 77.3725C78.9665 76.948 79.616 76.3409 80.3971 76.4386C80.9065 76.5513 81.3645 76.8288 81.7003 77.2281C81.8456 77.3708 81.9987 77.5055 82.1588 77.6314C82.812 78.0786 83.606 78.2719 84.3916 78.1748C85.205 78.0728 86.0032 77.8733 86.7689 77.5805C86.8218 77.5629 86.8795 77.5668 86.9296 77.5914C86.9796 77.6161 87.018 77.6594 87.0363 77.7121C87.0541 77.7656 87.0502 77.8239 87.0257 77.8746C87.0011 77.9254 86.9577 77.9645 86.9047 77.9837C86.1063 78.2886 85.2739 78.4953 84.4256 78.5993C84.2685 78.5908 84.1369 78.5993 84.0096 78.5993Z" fill="#1C75BB"/>
<path d="M83.131 82.1991C81.9503 82.1998 80.7726 82.0803 79.6161 81.8425L79.2765 81.7704C78.7322 81.6256 78.1715 81.5514 77.6082 81.5496C76.8667 81.6083 76.1448 81.8162 75.4857 82.1609C75.435 82.1841 75.3771 82.1865 75.3247 82.1674C75.2723 82.1484 75.2295 82.1094 75.2055 82.059C75.1933 82.0337 75.1863 82.0062 75.1849 81.9781C75.1834 81.9501 75.1875 81.922 75.197 81.8955C75.2065 81.8691 75.2211 81.8447 75.2401 81.824C75.259 81.8032 75.2819 81.7864 75.3074 81.7746C76.0159 81.4072 76.7912 81.1864 77.587 81.1251C78.1843 81.128 78.7789 81.205 79.3572 81.3543L79.6968 81.4265C81.8585 81.8706 84.0859 81.8908 86.2553 81.4859C86.2827 81.4804 86.3109 81.4805 86.3382 81.4861C86.3656 81.4917 86.3915 81.5028 86.4145 81.5186C86.4374 81.5345 86.457 81.5548 86.4719 81.5783C86.4869 81.6019 86.497 81.6282 86.5016 81.6557C86.5115 81.7109 86.4992 81.7677 86.4674 81.8138C86.4356 81.86 86.3868 81.8916 86.3317 81.902C85.2764 82.1005 84.2048 82.2 83.131 82.1991Z" fill="#1C75BB"/>
<g style="mix-blend-mode:multiply">
<g style="mix-blend-mode:multiply">
<path d="M99.2457 64.0893L82.5796 67.3621L85.8524 84.0281L102.518 80.7554L99.2457 64.0893Z" fill="#DDDDDD"/>
</g>
</g>
<path d="M100.058 63.5684L83.25 66.0084L85.6901 82.8166L102.498 80.3766L100.058 63.5684Z" fill="#71A0DD"/>
<path d="M97.2088 67.1111L87.698 68.4935C87.35 68.5441 87.1089 68.8672 87.1595 69.2152C87.21 69.5632 87.5332 69.8043 87.8812 69.7538L97.392 68.3714C97.74 68.3208 97.9811 67.9977 97.9306 67.6496C97.88 67.3016 97.5568 67.0605 97.2088 67.1111Z" fill="#F5F9FF"/>
<path d="M97.8246 71.3742L88.3133 72.7532C87.9652 72.8037 87.724 73.1267 87.7745 73.4748C87.8249 73.8228 88.148 74.064 88.496 74.0136L98.0073 72.6345C98.3554 72.584 98.5966 72.261 98.5461 71.913C98.4957 71.5649 98.1726 71.3237 97.8246 71.3742Z" fill="#F5F9FF"/>
<path d="M96.69 75.8851L90.6824 76.7562C90.3344 76.8066 90.0932 77.1297 90.1436 77.4777C90.1941 77.8257 90.5171 78.067 90.8652 78.0165L96.8727 77.1454C97.2208 77.095 97.462 76.7719 97.4115 76.4239C97.3611 76.0759 97.038 75.8346 96.69 75.8851Z" fill="#F5F9FF"/>
<path d="M53.9167 104.345C53.9365 104.52 53.9042 104.696 53.8239 104.852C53.7437 105.008 53.619 105.136 53.4657 105.221C53.3124 105.306 53.1373 105.344 52.9626 105.33C52.7878 105.315 52.6212 105.25 52.4839 105.141C52.3465 105.032 52.2445 104.884 52.1907 104.718C52.1369 104.551 52.1338 104.372 52.1817 104.203C52.2297 104.034 52.3265 103.884 52.46 103.77C52.5935 103.656 52.7577 103.585 52.9319 103.564C53.1659 103.538 53.4009 103.605 53.5854 103.752C53.7699 103.898 53.889 104.112 53.9167 104.345Z" fill="#F5F9FF"/>
<path d="M75.711 101.786C75.6951 101.948 75.6315 102.102 75.5282 102.228C75.4249 102.353 75.2865 102.446 75.1306 102.493C74.9748 102.541 74.8084 102.541 74.6525 102.493C74.4966 102.446 74.3582 102.354 74.2548 102.228C74.1515 102.102 74.0878 101.948 74.0718 101.786C74.0559 101.624 74.0884 101.461 74.1652 101.317C74.242 101.173 74.3597 101.056 74.5034 100.979C74.647 100.902 74.8103 100.87 74.9724 100.886C75.187 100.913 75.383 101.022 75.5202 101.189C75.6575 101.356 75.7258 101.57 75.711 101.786Z" fill="#F5F9FF"/>
<path d="M75.3243 105.857C75.3084 106.019 75.2448 106.173 75.1415 106.299C75.0381 106.425 74.8998 106.517 74.7439 106.564C74.588 106.612 74.4216 106.612 74.2657 106.564C74.1098 106.517 73.9715 106.425 73.8681 106.299C73.7648 106.173 73.7011 106.019 73.6851 105.857C73.6692 105.695 73.7016 105.532 73.7784 105.388C73.8553 105.244 73.9729 105.127 74.1166 105.05C74.2603 104.973 74.4235 104.941 74.5857 104.957C74.6934 104.967 74.7982 104.998 74.8938 105.049C74.9894 105.1 75.074 105.169 75.1426 105.253C75.2113 105.336 75.2627 105.433 75.2939 105.537C75.3251 105.64 75.3354 105.749 75.3243 105.857Z" fill="#F5F9FF"/>
<path d="M54.3454 108.077C54.3652 108.251 54.3329 108.427 54.2526 108.583C54.1724 108.739 54.0477 108.868 53.8944 108.953C53.7411 109.038 53.566 109.076 53.3913 109.061C53.2165 109.047 53.0499 108.981 52.9126 108.872C52.7752 108.763 52.6732 108.616 52.6194 108.449C52.5656 108.282 52.5625 108.103 52.6105 107.934C52.6584 107.766 52.7552 107.615 52.8887 107.501C53.0222 107.388 53.1864 107.316 53.3606 107.296C53.5946 107.269 53.8296 107.337 54.0141 107.483C54.1986 107.63 54.3177 107.843 54.3454 108.077Z" fill="#F5F9FF"/>
<path d="M54.7741 111.8C54.7939 111.974 54.7616 112.15 54.6814 112.306C54.6011 112.462 54.4764 112.59 54.3231 112.675C54.1698 112.761 53.9947 112.798 53.82 112.784C53.6452 112.77 53.4787 112.704 53.3413 112.595C53.2039 112.486 53.1019 112.339 53.0481 112.172C52.9943 112.005 52.9912 111.826 53.0392 111.657C53.0871 111.489 53.1839 111.338 53.3174 111.224C53.451 111.111 53.6151 111.039 53.7893 111.019C54.0231 110.993 54.2575 111.061 54.4417 111.207C54.626 111.353 54.7454 111.566 54.7741 111.8Z" fill="#F5F9FF"/>
<path d="M63.0358 99.2909L53.8582 100.343C53.5088 100.383 53.2581 100.699 53.2981 101.048C53.3382 101.398 53.6539 101.648 54.0032 101.608L63.1808 100.556C63.5302 100.516 63.781 100.2 63.7409 99.851C63.7008 99.5016 63.3851 99.2508 63.0358 99.2909Z" fill="#F5F9FF"/>
<path d="M85.9904 98.5166L77.7465 97.6923C77.3949 97.6571 77.0813 97.9137 77.0461 98.2653C77.0109 98.617 77.2675 98.9306 77.6192 98.9658L85.863 99.7902C86.2147 99.8253 86.5283 99.5688 86.5635 99.2171C86.5986 98.8654 86.3421 98.5518 85.9904 98.5166Z" fill="#F5F9FF"/>
<path d="M64.3986 102.563L56.2342 103.504C56.0013 103.531 55.8342 103.741 55.8611 103.974C55.8879 104.207 56.0984 104.374 56.3314 104.347L64.4958 103.407C64.7287 103.38 64.8958 103.17 64.8689 102.937C64.8421 102.704 64.6315 102.537 64.3986 102.563Z" fill="#F5F9FF"/>
<path d="M85.4999 102.228L77.3206 101.428C77.0873 101.405 76.8796 101.575 76.8568 101.809C76.8339 102.042 77.0046 102.25 77.2379 102.273L85.4172 103.073C85.6506 103.096 85.8582 102.925 85.8811 102.692C85.9039 102.459 85.7333 102.251 85.4999 102.228Z" fill="#F5F9FF"/>
<path d="M85.783 106.347L77.5646 105.526C77.3301 105.502 77.1211 105.673 77.0976 105.908C77.0742 106.142 77.2452 106.351 77.4797 106.375L85.6981 107.196C85.9325 107.22 86.1416 107.049 86.165 106.814C86.1885 106.58 86.0174 106.371 85.783 106.347Z" fill="#F5F9FF"/>
<path d="M64.8309 106.45L56.6664 107.389C56.4334 107.416 56.2663 107.626 56.2931 107.859C56.3199 108.092 56.5304 108.259 56.7633 108.232L64.9279 107.293C65.1608 107.267 65.3279 107.056 65.3012 106.823C65.2744 106.59 65.0639 106.423 64.8309 106.45Z" fill="#F5F9FF"/>
<path d="M65.2797 110.326L57.1151 111.265C56.8822 111.292 56.7151 111.502 56.7419 111.735C56.7686 111.968 56.9792 112.135 57.2121 112.108L65.3767 111.169C65.6096 111.143 65.7767 110.932 65.7499 110.699C65.7231 110.466 65.5126 110.299 65.2797 110.326Z" fill="#F5F9FF"/>
<path d="M83.2415 110.488C81.4537 110.426 79.6776 110.173 77.9437 109.732H77.8801C76.6065 109.465 75.6047 109.558 74.8406 110.017C74.817 110.036 74.7896 110.049 74.7602 110.057C74.7309 110.064 74.7003 110.065 74.6706 110.06C74.6408 110.054 74.6126 110.043 74.5877 110.025C74.5628 110.008 74.5419 109.986 74.5263 109.96C74.5108 109.934 74.5009 109.905 74.4975 109.875C74.494 109.845 74.497 109.815 74.5063 109.786C74.5155 109.757 74.5308 109.731 74.5512 109.708C74.5715 109.686 74.5964 109.668 74.6241 109.656C75.4731 109.138 76.6065 109.028 77.9692 109.316H78.0329C80.5799 109.864 82.8085 110.339 85.4574 109.86C85.5126 109.85 85.5694 109.862 85.6155 109.894C85.6617 109.926 85.6933 109.974 85.7037 110.03C85.7092 110.057 85.7091 110.085 85.7035 110.112C85.6979 110.14 85.6868 110.166 85.671 110.189C85.6551 110.212 85.6348 110.231 85.6113 110.246C85.5877 110.261 85.5614 110.271 85.5339 110.276C84.7777 110.415 84.0105 110.486 83.2415 110.488Z" fill="#F5F9FF"/>
<path d="M149.34 44.8683H139.441C139.089 44.8683 138.804 45.1534 138.804 45.505C138.804 45.8567 139.089 46.1418 139.441 46.1418H149.34C149.692 46.1418 149.977 45.8567 149.977 45.505C149.977 45.1534 149.692 44.8683 149.34 44.8683Z" fill="#B4D1FA"/>
<path d="M148.491 72.0365H140.196C139.845 72.0365 139.56 72.3216 139.56 72.6733C139.56 73.0249 139.845 73.31 140.196 73.31H148.491C148.843 73.31 149.128 73.0249 149.128 72.6733C149.128 72.3216 148.843 72.0365 148.491 72.0365Z" fill="url(#paint7_linear)"/>
<path d="M131.367 73.399H123.072C122.72 73.399 122.435 73.6841 122.435 74.0358C122.435 74.3875 122.72 74.6726 123.072 74.6726H131.367C131.718 74.6726 132.003 74.3875 132.003 74.0358C132.003 73.6841 131.718 73.399 131.367 73.399Z" fill="url(#paint8_linear)"/>
<path d="M132.729 77.7418H121.713C121.362 77.7418 121.077 78.0269 121.077 78.3786C121.077 78.7302 121.362 79.0153 121.713 79.0153H132.729C133.081 79.0153 133.366 78.7302 133.366 78.3786C133.366 78.0269 133.081 77.7418 132.729 77.7418Z" fill="url(#paint9_linear)"/>
<path d="M149.323 76.3622H139.364C139.013 76.3622 138.728 76.6473 138.728 76.9989C138.728 77.3506 139.013 77.6357 139.364 77.6357H149.323C149.675 77.6357 149.96 77.3506 149.96 76.9989C149.96 76.6473 149.675 76.3622 149.323 76.3622Z" fill="#F985A0"/>
<path d="M149.323 80.6879H139.364C139.013 80.6879 138.728 80.973 138.728 81.3246C138.728 81.6763 139.013 81.9614 139.364 81.9614H149.323C149.675 81.9614 149.96 81.6763 149.96 81.3246C149.96 80.973 149.675 80.6879 149.323 80.6879Z" fill="#F985A0"/>
<path d="M150.172 49.5675H138.609C138.257 49.5675 137.972 49.8526 137.972 50.2043C137.972 50.5559 138.257 50.841 138.609 50.841H150.172C150.524 50.841 150.809 50.5559 150.809 50.2043C150.809 49.8526 150.524 49.5675 150.172 49.5675Z" fill="#B4D1FA"/>
<g style="mix-blend-mode:multiply">
<g style="mix-blend-mode:multiply">
<path d="M136.834 38.6001L119.849 38.0906L119.34 55.075L136.324 55.5845L136.834 38.6001Z" fill="#DDDDDD"/>
</g>
</g>
<g style="mix-blend-mode:multiply">
<g style="mix-blend-mode:multiply">
<path d="M170.192 69.3927L153.222 68.6992L152.528 85.6694L169.498 86.3629L170.192 69.3927Z" fill="#DDDDDD"/>
</g>
</g>
<path d="M171.049 69.2076L154.259 66.6444L151.696 83.4343L168.485 85.9975L171.049 69.2076Z" fill="#0A3D76"/>
<g style="mix-blend-mode:multiply">
<g style="mix-blend-mode:multiply">
<path d="M169.214 38.7995L152.313 40.4834L153.997 57.3841L170.898 55.7002L169.214 38.7995Z" fill="#DDDDDD"/>
</g>
</g>
<path d="M168.884 37.5312L152.077 39.9801L154.526 56.787L171.333 54.3382L168.884 37.5312Z" fill="url(#paint10_linear)"/>
<g style="mix-blend-mode:multiply">
<g style="mix-blend-mode:multiply">
<path d="M134.892 96.1842L117.917 96.7444L118.477 113.72L135.452 113.159L134.892 96.1842Z" fill="#DDDDDD"/>
</g>
</g>
<path d="M134.754 94.3547L117.844 95.9442L119.434 112.854L136.344 111.265L134.754 94.3547Z" fill="#F985A0"/>
<g style="mix-blend-mode:multiply">
<g style="mix-blend-mode:multiply">
<path d="M169.027 98.0211L152.117 99.6106L153.706 116.52L170.616 114.931L169.027 98.0211Z" fill="#DDDDDD"/>
</g>
</g>
<path d="M168.518 96.2228L151.782 99.1166L154.676 115.853L171.412 112.959L168.518 96.2228Z" fill="#B4D1FA"/>
<path d="M136.658 37.9882L119.746 36.4253L118.183 53.3376L135.095 54.9006L136.658 37.9882Z" fill="#0A3D76"/>
<path d="M132.708 40.8118L123.662 39.9758C123.312 39.9434 123.002 40.2011 122.97 40.5512C122.937 40.9014 123.195 41.2115 123.545 41.2439L132.591 42.0799C132.941 42.1122 133.251 41.8546 133.284 41.5044C133.316 41.1542 133.058 40.8441 132.708 40.8118Z" fill="#F5F9FF"/>
<path d="M131.842 46.3794C131.254 46.3834 130.681 46.1973 130.208 45.8488C130.018 45.6972 129.838 45.5342 129.669 45.3606C129.391 45.0167 129.015 44.7662 128.59 44.6432C128.081 44.5626 127.597 44.8937 127.083 45.2418C126.57 45.5899 125.916 46.0356 125.216 45.8785C124.72 45.7122 124.291 45.3906 123.993 44.9616C123.761 44.6322 123.448 44.3677 123.085 44.1932C122.469 43.9725 121.777 44.3843 121.412 44.9064C121.379 44.9519 121.329 44.9826 121.274 44.9921C121.218 45.0016 121.161 44.9891 121.115 44.9573C121.092 44.9413 121.072 44.9208 121.057 44.8971C121.042 44.8734 121.032 44.847 121.027 44.8194C121.023 44.7918 121.024 44.7635 121.03 44.7361C121.036 44.7088 121.048 44.683 121.064 44.6602C121.522 44.0065 122.414 43.4971 123.229 43.8112C123.662 44.0072 124.037 44.313 124.316 44.6984C124.557 45.058 124.906 45.3315 125.313 45.4795C125.831 45.5983 126.324 45.263 126.846 44.9064C127.368 44.5498 127.979 44.1381 128.658 44.2399C129.174 44.3761 129.632 44.6736 129.966 45.0889C130.122 45.2493 130.288 45.3996 130.462 45.5389C130.849 45.8133 131.309 45.9638 131.783 45.9706C132.257 45.9775 132.722 45.8402 133.116 45.5771C133.138 45.5612 133.164 45.5499 133.191 45.544C133.218 45.5381 133.246 45.5378 133.274 45.5429C133.301 45.548 133.327 45.5586 133.35 45.574C133.373 45.5893 133.393 45.6092 133.408 45.6323C133.44 45.6781 133.452 45.7344 133.443 45.7892C133.433 45.8439 133.403 45.8928 133.358 45.9252C132.908 46.2231 132.381 46.3812 131.842 46.3794Z" fill="#F5F9FF"/>
<path d="M125.509 50.5736C125.404 50.5747 125.3 50.5633 125.199 50.5396C124.701 50.3763 124.27 50.0542 123.972 49.6227C123.74 49.2934 123.427 49.0289 123.064 48.8544C122.448 48.6336 121.756 49.0454 121.391 49.5675C121.358 49.613 121.308 49.6437 121.253 49.6532C121.197 49.6627 121.14 49.6503 121.094 49.6185C121.071 49.6024 121.051 49.5819 121.036 49.5582C121.021 49.5346 121.011 49.5081 121.006 49.4805C121.002 49.4529 121.003 49.4246 121.009 49.3973C121.015 49.3699 121.027 49.3441 121.043 49.3213C121.501 48.6676 122.393 48.1582 123.208 48.4723C123.641 48.6685 124.016 48.9743 124.295 49.3595C124.536 49.7191 124.885 49.9926 125.292 50.1406C125.81 50.2595 126.303 49.9241 126.825 49.5675C127.347 49.2109 127.954 48.7992 128.637 48.9053C129.154 49.0392 129.612 49.3372 129.945 49.7543C130.1 49.9157 130.266 50.066 130.441 50.2043C130.464 50.221 130.483 50.242 130.497 50.2659C130.511 50.2899 130.52 50.3165 130.524 50.3441C130.528 50.3717 130.527 50.3998 130.52 50.4268C130.513 50.4538 130.501 50.4791 130.484 50.5014C130.467 50.5237 130.446 50.5425 130.422 50.5567C130.398 50.5709 130.372 50.5803 130.344 50.5842C130.317 50.5881 130.288 50.5866 130.261 50.5797C130.234 50.5728 130.209 50.5606 130.187 50.5439C129.996 50.3935 129.816 50.2304 129.648 50.0557C129.37 49.7117 128.994 49.4613 128.569 49.3383C128.06 49.2619 127.576 49.5888 127.062 49.9368C126.619 50.2981 126.078 50.5197 125.509 50.5736Z" fill="#F5F9FF"/>
<path d="M128.964 67.4518C126.621 67.7914 124.52 69.0224 122.792 70.5634C121.922 71.3296 121.151 72.2008 120.495 73.1571C119.831 74.0829 119.355 75.13 119.094 76.239C118.996 76.784 118.98 77.3407 119.048 77.8903C119.123 78.4432 119.266 78.9849 119.472 79.5034C119.912 80.5413 120.564 81.4754 121.387 82.2457C122.191 83.0281 123.158 83.6238 124.218 83.9904C125.285 84.3349 126.415 84.4321 127.525 84.2749C129.781 83.9674 131.831 82.801 133.247 81.0189C133.952 80.126 134.503 79.1217 134.877 78.0474C135.264 76.9793 135.439 75.8458 135.391 74.7108C135.339 73.5885 134.952 72.5075 134.279 71.6077C134.19 71.4973 134.113 71.3784 134.02 71.2766L133.714 70.9837C133.617 70.8823 133.514 70.7873 133.404 70.6992L133.069 70.4488C132.584 70.1513 132.066 69.9133 131.524 69.7399C130.414 69.3923 129.252 69.24 128.09 69.2899C126.917 69.3073 125.764 69.598 124.723 70.1389C125.734 69.5035 126.886 69.1286 128.077 69.0479C129.272 68.9305 130.479 69.0225 131.643 69.3196C132.236 69.4799 132.806 69.7138 133.341 70.0158L133.727 70.279C133.854 70.3639 133.961 70.4785 134.079 70.5761L134.423 70.886C134.534 70.9921 134.623 71.1195 134.725 71.2384C135.504 72.209 135.97 73.3932 136.062 74.6344C136.157 75.8607 135.998 77.0934 135.595 78.2554C135.214 79.4186 134.64 80.5092 133.897 81.4816C132.358 83.4421 130.12 84.7319 127.652 85.0814C126.417 85.2497 125.16 85.1335 123.976 84.7418C123.379 84.5439 122.809 84.273 122.278 83.9353C121.754 83.609 121.268 83.2245 120.831 82.7891C119.942 81.9281 119.245 80.8896 118.785 79.7412C118.567 79.1602 118.425 78.5539 118.36 77.937C118.3 77.3142 118.335 76.686 118.462 76.0734C118.603 75.473 118.818 74.8926 119.103 74.3457C119.233 74.0881 119.376 73.8374 119.532 73.5943C119.688 73.3362 119.858 73.0868 120.041 72.8472C121.478 70.9162 123.375 69.3752 125.56 68.3645C126.628 67.8514 127.782 67.5419 128.964 67.4518Z" fill="#EE4136"/>
<path d="M165.242 41.2788L156.647 42.5311C156.299 42.5818 156.058 42.905 156.109 43.253C156.16 43.601 156.483 43.842 156.831 43.7913L165.425 42.539C165.773 42.4883 166.014 42.1651 165.964 41.8171C165.913 41.4691 165.59 41.2281 165.242 41.2788Z" fill="#F5F9FF"/>
<path d="M155.19 48.3449C155.162 48.3428 155.135 48.3351 155.11 48.3224C155.086 48.3096 155.064 48.292 155.046 48.2707C155.028 48.2493 155.015 48.2246 155.007 48.1979C154.998 48.1713 154.996 48.1433 154.999 48.1157C155.055 47.7648 155.198 47.4337 155.415 47.1526C155.633 46.8715 155.917 46.6494 156.243 46.5068C156.619 46.2921 157.042 46.1704 157.476 46.152C157.909 46.1335 158.341 46.2188 158.734 46.4007C158.993 46.5493 159.227 46.7021 159.448 46.8507C160.347 47.4365 160.997 47.861 162.253 47.3473C162.739 47.0915 163.18 46.7573 163.557 46.3582C164.138 45.8149 164.741 45.2503 165.433 45.1739C165.797 45.1693 166.152 45.2891 166.439 45.5135C166.573 45.6059 166.715 45.6855 166.864 45.7512C167.122 45.8401 167.403 45.8343 167.658 45.7348C167.912 45.6352 168.122 45.4484 168.252 45.2078C168.277 45.1579 168.321 45.1198 168.374 45.1016C168.427 45.0834 168.485 45.0865 168.536 45.1102C168.561 45.1224 168.584 45.1395 168.602 45.1604C168.621 45.1813 168.635 45.2057 168.644 45.2321C168.653 45.2585 168.657 45.2865 168.655 45.3144C168.653 45.3423 168.646 45.3695 168.634 45.3946C168.457 45.7314 168.165 45.993 167.811 46.1311C167.457 46.2692 167.064 46.2745 166.707 46.146C166.531 46.0716 166.364 45.9806 166.206 45.8743C165.998 45.7036 165.74 45.6065 165.471 45.5984C164.919 45.6578 164.372 46.1714 163.837 46.6681C163.426 47.1057 162.942 47.4678 162.406 47.7379C160.942 48.3407 160.139 47.8143 159.206 47.203C158.989 47.0629 158.781 46.9143 158.514 46.7785C158.181 46.6349 157.82 46.5705 157.458 46.5904C157.096 46.6103 156.744 46.7139 156.429 46.8931C156.166 47.0028 155.935 47.177 155.757 47.3995C155.579 47.6221 155.46 47.8859 155.41 48.1666C155.402 48.2183 155.375 48.2652 155.334 48.2981C155.294 48.331 155.242 48.3477 155.19 48.3449Z" fill="#F5F9FF"/>
<path d="M156.098 51.9914H156.077C156.049 51.9887 156.022 51.9806 155.997 51.9674C155.972 51.9542 155.95 51.9362 155.933 51.9145C155.915 51.8928 155.902 51.8678 155.894 51.8409C155.886 51.814 155.883 51.7858 155.886 51.7579C155.942 51.4071 156.085 51.0759 156.303 50.7948C156.52 50.5137 156.804 50.2917 157.13 50.149C157.507 49.936 157.93 49.8156 158.363 49.7979C158.797 49.7802 159.228 49.8656 159.622 50.0472C159.88 50.1957 160.114 50.3486 160.335 50.4717C161.235 51.0575 161.884 51.4862 163.141 50.9683C163.628 50.7154 164.069 50.3809 164.444 49.9792C165.03 49.4359 165.628 48.8755 166.32 48.7949C166.377 48.7889 166.434 48.8057 166.478 48.8414C166.523 48.8772 166.552 48.9291 166.558 48.9859C166.564 49.0416 166.548 49.0974 166.513 49.1411C166.478 49.1849 166.427 49.213 166.371 49.2194C165.815 49.2788 165.267 49.7925 164.737 50.2891C164.324 50.7268 163.838 51.0901 163.302 51.3631C161.842 51.9617 161.035 51.4353 160.101 50.8283C159.889 50.6839 159.677 50.5353 159.409 50.4038C159.077 50.2602 158.715 50.1958 158.354 50.2156C157.992 50.2355 157.64 50.3392 157.325 50.5184C157.063 50.6286 156.832 50.8031 156.655 51.0256C156.478 51.2481 156.359 51.5116 156.31 51.7919C156.306 51.8456 156.282 51.8958 156.243 51.9327C156.204 51.9696 156.152 51.9905 156.098 51.9914Z" fill="#F5F9FF"/>
<path d="M167.136 71.9534L157.636 70.5029C157.288 70.4499 156.963 70.6887 156.91 71.0363C156.857 71.384 157.096 71.7088 157.443 71.7619L166.944 73.2123C167.292 73.2654 167.617 73.0266 167.67 72.6789C167.723 72.3313 167.484 72.0064 167.136 71.9534Z" fill="#F5F9FF"/>
<path d="M131.437 97.1216L121.868 98.0194C121.518 98.0522 121.261 98.3627 121.294 98.7128C121.327 99.063 121.637 99.3202 121.987 99.2873L131.556 98.3895C131.906 98.3567 132.163 98.0462 132.131 97.6961C132.098 97.346 131.787 97.0888 131.437 97.1216Z" fill="#1C75BB"/>
<path d="M166.642 75.2109L157.141 73.7605C156.793 73.7074 156.469 73.9462 156.415 74.2939C156.362 74.6415 156.601 74.9664 156.949 75.0194L166.449 76.4699C166.797 76.5229 167.122 76.2841 167.175 75.9365C167.228 75.5888 166.989 75.264 166.642 75.2109Z" fill="#F5F9FF"/>
<path d="M167.157 81.1378H167.127C166.469 81.0444 166.074 80.5265 165.697 80.0298C165.474 79.6996 165.193 79.412 164.869 79.1808C163.935 78.612 162.988 79.1341 161.986 79.686C160.985 80.2378 159.864 80.8534 158.713 80.2675C158.262 79.9966 157.873 79.6335 157.572 79.202C157.185 78.7181 156.816 78.2639 156.298 78.1917C155.598 78.0941 154.991 78.7351 154.761 79.011C154.744 79.0334 154.723 79.052 154.699 79.0657C154.674 79.0794 154.647 79.0879 154.619 79.0907C154.591 79.0935 154.563 79.0905 154.537 79.0819C154.51 79.0733 154.485 79.0593 154.464 79.0407C154.421 79.0051 154.394 78.9539 154.388 78.8983C154.383 78.8426 154.399 78.787 154.434 78.7436C154.774 78.3191 155.479 77.6441 156.353 77.7715C157.058 77.8691 157.495 78.4082 157.92 78.9346C158.185 79.3176 158.526 79.6426 158.922 79.8897C159.872 80.3737 160.806 79.8558 161.8 79.3124C162.861 78.7266 163.96 78.1196 165.107 78.8157C165.478 79.0754 165.798 79.4022 166.049 79.7794C166.393 80.2293 166.72 80.6581 167.204 80.726C167.259 80.7354 167.308 80.7659 167.342 80.811C167.375 80.8561 167.389 80.9124 167.382 80.968C167.372 81.0189 167.343 81.0643 167.302 81.0956C167.26 81.1269 167.209 81.1419 167.157 81.1378Z" fill="#F5F9FF"/>
<path d="M121.773 103.594C121.731 103.594 121.691 103.582 121.656 103.56C121.621 103.537 121.594 103.505 121.577 103.467C121.56 103.429 121.555 103.387 121.562 103.347C121.569 103.306 121.588 103.268 121.616 103.237C121.86 103.014 122.164 102.866 122.49 102.813C123.653 102.517 124.852 102.383 126.052 102.414C126.404 102.414 126.756 102.448 127.113 102.473C127.716 102.525 128.321 102.541 128.926 102.52C129.857 102.51 130.756 102.18 131.473 101.586C131.514 101.552 131.567 101.535 131.62 101.538C131.674 101.541 131.724 101.564 131.761 101.603C131.798 101.642 131.819 101.693 131.82 101.746C131.821 101.8 131.801 101.852 131.766 101.892C130.987 102.56 129.998 102.931 128.972 102.94C128.349 102.965 127.725 102.95 127.105 102.894C126.756 102.872 126.408 102.847 126.06 102.838C124.901 102.812 123.743 102.942 122.618 103.225C122.371 103.264 122.14 103.372 121.951 103.535C121.928 103.557 121.9 103.574 121.869 103.585C121.838 103.595 121.805 103.598 121.773 103.594Z" fill="#1C75BB"/>
<path d="M124.422 107.427C123.666 107.45 122.92 107.254 122.274 106.863C122.23 106.831 122.199 106.784 122.189 106.73C122.179 106.677 122.19 106.621 122.219 106.576C122.249 106.53 122.294 106.497 122.347 106.484C122.4 106.471 122.456 106.479 122.503 106.506C123.31 106.955 124.247 107.112 125.156 106.952C125.755 106.861 126.348 106.734 126.931 106.57C127.274 106.481 127.618 106.392 127.962 106.315C129.135 106.06 130.338 105.968 131.536 106.043C131.87 106.038 132.198 106.131 132.479 106.311C132.501 106.328 132.52 106.349 132.534 106.373C132.548 106.397 132.558 106.424 132.561 106.451C132.565 106.479 132.563 106.507 132.555 106.534C132.547 106.561 132.535 106.586 132.517 106.608C132.5 106.63 132.479 106.649 132.455 106.663C132.431 106.678 132.405 106.687 132.377 106.691C132.35 106.695 132.322 106.693 132.295 106.686C132.268 106.679 132.242 106.667 132.22 106.651C132.006 106.521 131.76 106.457 131.511 106.464C130.352 106.395 129.19 106.485 128.055 106.731C127.712 106.803 127.372 106.892 127.037 106.977C126.438 107.149 125.828 107.281 125.211 107.372C124.95 107.407 124.686 107.425 124.422 107.427Z" fill="#1C75BB"/>
<g style="mix-blend-mode:multiply">
<g style="mix-blend-mode:multiply">
<path d="M145.783 100.351H128.798V117.335H145.783V100.351Z" fill="#DDDDDD"/>
</g>
</g>
<path d="M146.287 100.077L129.39 98.3611L127.673 115.259L144.571 116.975L146.287 100.077Z" fill="#71A0DD"/>
<path d="M142.353 102.17L132.791 101.199C132.442 101.163 132.129 101.418 132.094 101.768C132.058 102.118 132.313 102.43 132.663 102.466L142.224 103.437C142.574 103.473 142.887 103.218 142.922 102.868C142.958 102.518 142.703 102.206 142.353 102.17Z" fill="#F5F9FF"/>
<path d="M141.237 104.307L133.461 103.517C133.112 103.482 132.799 103.737 132.764 104.087C132.728 104.436 132.983 104.749 133.333 104.784L141.108 105.574C141.458 105.61 141.77 105.355 141.806 105.005C141.841 104.655 141.586 104.343 141.237 104.307Z" fill="#F5F9FF"/>
<path d="M131.889 109.053C131.874 109.166 131.827 109.271 131.752 109.357C131.678 109.443 131.58 109.504 131.47 109.534C131.361 109.565 131.245 109.562 131.137 109.527C131.029 109.491 130.934 109.425 130.864 109.336C130.793 109.247 130.751 109.139 130.741 109.026C130.732 108.913 130.756 108.8 130.81 108.7C130.865 108.601 130.948 108.52 131.048 108.467C131.149 108.414 131.262 108.392 131.375 108.404C131.452 108.412 131.526 108.436 131.593 108.473C131.661 108.51 131.72 108.561 131.768 108.621C131.816 108.681 131.851 108.751 131.872 108.825C131.893 108.899 131.898 108.977 131.889 109.053Z" fill="#F5F9FF"/>
<path d="M131.604 111.846C131.58 111.991 131.501 112.12 131.385 112.209C131.269 112.297 131.123 112.338 130.978 112.324C130.832 112.309 130.698 112.24 130.601 112.13C130.505 112.02 130.454 111.878 130.458 111.732C130.483 111.588 130.561 111.458 130.677 111.37C130.794 111.281 130.939 111.24 131.085 111.254C131.23 111.269 131.365 111.338 131.461 111.448C131.558 111.558 131.609 111.7 131.604 111.846Z" fill="#F5F9FF"/>
<path d="M140.973 110.288C140.689 110.29 140.405 110.27 140.124 110.229C139.507 110.128 138.897 109.986 138.299 109.805C137.963 109.715 137.628 109.626 137.288 109.55C136.155 109.295 134.993 109.197 133.833 109.257C133.583 109.251 133.337 109.312 133.12 109.435C133.075 109.469 133.018 109.483 132.962 109.476C132.907 109.468 132.856 109.438 132.823 109.393C132.79 109.347 132.776 109.291 132.784 109.236C132.792 109.18 132.821 109.13 132.865 109.096C133.148 108.918 133.477 108.828 133.812 108.837C135.01 108.77 136.211 108.87 137.382 109.134C137.726 109.214 138.069 109.304 138.409 109.397C138.992 109.565 139.584 109.697 140.183 109.792C141.092 109.959 142.03 109.81 142.841 109.367C142.865 109.352 142.891 109.342 142.918 109.338C142.946 109.333 142.974 109.334 143.001 109.34C143.029 109.347 143.054 109.358 143.077 109.375C143.1 109.391 143.119 109.411 143.134 109.435C143.163 109.483 143.172 109.541 143.159 109.595C143.146 109.65 143.113 109.698 143.066 109.728C142.435 110.108 141.709 110.302 140.973 110.288Z" fill="#F5F9FF"/>
<path d="M142.786 112.674H142.76L135.293 111.863C134.444 111.77 133.634 111.723 133.027 112.152C133.004 112.171 132.978 112.185 132.95 112.194C132.922 112.202 132.892 112.205 132.863 112.201C132.834 112.198 132.806 112.188 132.78 112.173C132.755 112.158 132.733 112.138 132.716 112.114C132.699 112.09 132.687 112.063 132.681 112.034C132.675 112.006 132.675 111.976 132.681 111.947C132.687 111.918 132.699 111.891 132.716 111.867C132.733 111.843 132.755 111.823 132.78 111.808C133.511 111.29 134.406 111.341 135.327 111.443L142.794 112.254C142.85 112.26 142.901 112.288 142.936 112.332C142.971 112.376 142.987 112.432 142.981 112.487C142.977 112.537 142.955 112.583 142.919 112.618C142.883 112.652 142.836 112.672 142.786 112.674Z" fill="#F5F9FF"/>
<path d="M165.64 98.9162L155.827 100.615C155.481 100.675 155.248 101.004 155.308 101.351C155.368 101.697 155.698 101.929 156.044 101.87L165.857 100.171C166.204 100.111 166.436 99.7815 166.376 99.435C166.316 99.0885 165.987 98.8562 165.64 98.9162Z" fill="#1C75BB"/>
<path d="M166.159 101.9L156.346 103.598C155.999 103.658 155.767 103.988 155.827 104.334C155.887 104.681 156.216 104.913 156.563 104.853L166.376 103.155C166.722 103.095 166.955 102.765 166.895 102.419C166.835 102.072 166.505 101.84 166.159 101.9Z" fill="#1C75BB"/>
<path d="M156.268 109.41C156.231 109.408 156.195 109.398 156.162 109.38C156.113 109.352 156.077 109.306 156.062 109.252C156.047 109.198 156.054 109.14 156.081 109.091C156.363 108.678 156.78 108.378 157.261 108.242C158.398 107.819 159.602 107.608 160.815 107.623C161.4 107.623 161.99 107.691 162.564 107.746C163.596 107.909 164.647 107.909 165.679 107.746C166.953 107.478 168.082 106.714 169.097 106.048C169.119 106.032 169.145 106.02 169.172 106.015C169.199 106.009 169.227 106.008 169.255 106.013C169.282 106.019 169.308 106.029 169.331 106.045C169.354 106.06 169.374 106.08 169.39 106.103C169.42 106.15 169.432 106.208 169.42 106.264C169.409 106.319 169.377 106.368 169.33 106.4C168.286 107.096 167.106 107.886 165.769 108.17C164.693 108.338 163.597 108.338 162.521 108.17C161.956 108.111 161.375 108.056 160.823 108.047C159.664 108.032 158.513 108.232 157.427 108.637C157.043 108.744 156.705 108.975 156.468 109.295C156.449 109.331 156.42 109.361 156.384 109.381C156.349 109.401 156.309 109.411 156.268 109.41Z" fill="#1C75BB"/>
<path d="M159.036 111.643C158.995 111.643 158.954 111.631 158.919 111.609C158.884 111.586 158.857 111.554 158.84 111.516C158.824 111.478 158.818 111.436 158.825 111.395C158.832 111.354 158.851 111.316 158.879 111.286C159.405 110.705 160.25 110.615 160.929 110.607C161.405 110.607 161.893 110.607 162.36 110.632C162.958 110.654 163.582 110.671 164.185 110.632C165.235 110.63 166.264 110.336 167.157 109.783C167.203 109.753 167.26 109.742 167.314 109.753C167.369 109.763 167.417 109.794 167.45 109.839C167.466 109.862 167.477 109.888 167.483 109.915C167.489 109.943 167.489 109.971 167.484 109.999C167.479 110.026 167.468 110.053 167.453 110.076C167.438 110.1 167.418 110.12 167.394 110.136C166.434 110.74 165.324 111.062 164.189 111.065C163.565 111.099 162.937 111.065 162.33 111.065C161.867 111.065 161.388 111.031 160.917 111.04C160.326 111.04 159.592 111.116 159.176 111.579C159.139 111.617 159.089 111.64 159.036 111.643Z" fill="#1C75BB"/>
<path d="M122.469 58.0108C122.05 58.7434 121.72 59.5228 121.484 60.3328C120.952 61.886 120.952 63.5723 121.484 65.1255C121.725 65.9172 122.033 66.687 122.405 67.4263C122.41 67.4364 122.41 67.4479 122.406 67.4582C122.402 67.4685 122.394 67.4768 122.384 67.4815C122.377 67.4848 122.37 67.4865 122.363 67.4865C122.355 67.4865 122.348 67.4848 122.342 67.4815C122.163 67.3496 121.991 67.2079 121.828 67.0569L121.582 66.8277C121.504 66.7458 121.433 66.6578 121.369 66.5645C121.234 66.3905 121.106 66.1994 120.975 66.0127C120.843 65.8259 120.779 65.5882 120.682 65.4014C120.358 64.5494 120.26 63.6281 120.397 62.727C120.498 61.8503 120.724 60.9925 121.068 60.18C121.408 59.3829 121.85 58.6337 122.384 57.9513C122.392 57.9444 122.403 57.9407 122.414 57.9407C122.425 57.9407 122.435 57.9444 122.443 57.9513C122.449 57.9594 122.452 57.969 122.452 57.9789C122.452 57.9889 122.449 57.9985 122.443 58.0065L122.469 58.0108Z" fill="#0070C8"/>
<path d="M120.245 67.698C120.694 67.589 121.154 67.5307 121.616 67.524C121.845 67.524 122.07 67.524 122.291 67.524H122.431H122.465C122.484 67.5122 122.501 67.4979 122.516 67.4815C122.518 67.4717 122.518 67.4616 122.516 67.4518C122.519 67.425 122.519 67.3979 122.516 67.3712L122.579 67.0443C122.622 66.8235 122.673 66.6198 122.736 66.3863C122.857 65.9436 123.027 65.5162 123.246 65.1128C123.348 65.5641 123.4 66.0254 123.399 66.4882C123.399 66.7132 123.399 66.9382 123.377 67.1632L123.348 67.4985C123.34 67.5822 123.323 67.6648 123.297 67.7447C123.248 67.8884 123.164 68.0178 123.053 68.1215C122.942 68.2251 122.807 68.2998 122.66 68.339C122.563 68.3636 122.463 68.3736 122.363 68.3687H122.291H122.248H122.163C121.947 68.3263 121.739 68.2796 121.505 68.2244C121.066 68.098 120.643 67.9214 120.245 67.698Z" fill="#0070C8"/>
<path d="M64 25.0043H83" stroke="#F985A0" stroke-width="1.5" stroke-linecap="round"/>
<path d="M55 28.0043H92" stroke="#71A0DD" stroke-width="1.5" stroke-linecap="round"/>
<path d="M26 39H32" stroke="#B4D1FA" stroke-width="1.5" stroke-linecap="round"/>
<path d="M26 48H32" stroke="#B4D1FA" stroke-width="1.5" stroke-linecap="round"/>
<path d="M22 42H36" stroke="#71A0DD" stroke-width="1.5" stroke-linecap="round"/>
<path d="M22 45H36" stroke="#71A0DD" stroke-width="1.5" stroke-linecap="round"/>
<path d="M26 73H32" stroke="#B4D1FA" stroke-width="1.5" stroke-linecap="round"/>
<path d="M26 82H32" stroke="#B4D1FA" stroke-width="1.5" stroke-linecap="round"/>
<path d="M22 76H36" stroke="url(#paint11_linear)" stroke-width="1.5" stroke-linecap="round"/>
<path d="M22 79H36" stroke="url(#paint12_linear)" stroke-width="1.5" stroke-linecap="round"/>
<path d="M26 100H32" stroke="#C43B55" stroke-width="1.5" stroke-linecap="round"/>
<path d="M22 103H36" stroke="#71A0DD" stroke-width="1.5" stroke-linecap="round"/>
<path d="M138 25H157" stroke="#F985A0" stroke-width="1.5" stroke-linecap="round"/>
<path d="M129 28H166" stroke="#71A0DD" stroke-width="1.5" stroke-linecap="round"/>
<path d="M26.0288 16.0077C27.5275 16.833 29.2513 17.1561 30.9472 16.9295C32.643 16.7029 34.2216 15.9386 35.4511 14.7488C36.6805 13.559 37.4962 12.0064 37.7782 10.3189C38.0603 8.63136 37.794 6.89788 37.0183 5.37291C36.2426 3.84794 34.9984 2.61182 33.4684 1.84603C31.9385 1.08024 30.2033 0.825123 28.5177 1.11813C26.832 1.41114 25.2847 2.23684 24.1029 3.47401C22.9211 4.71117 22.1671 6.29463 21.9515 7.99191L23.5 8C23.6725 6.64154 24.3118 5.56732 25.2577 4.57712C26.2036 3.58692 27.442 2.92605 28.7912 2.69154C30.1403 2.45702 31.5291 2.66121 32.7536 3.27413C33.9782 3.88704 34.974 4.8764 35.5948 6.09695C36.2157 7.3175 36.4289 8.70494 36.2031 10.0556C35.9773 11.4062 35.3245 12.6489 34.3405 13.6012C33.3564 14.5535 32.093 15.1652 30.7357 15.3465C29.3784 15.5279 28.1995 15.1605 27 14.5C26.4161 14.9761 26.2012 15.3101 26.0288 16.0077Z" fill="url(#paint13_linear)"/>
<path d="M49.3745 16.0077C50.8732 16.833 52.5971 17.1561 54.2929 16.9295C55.9887 16.7029 57.5673 15.9386 58.7968 14.7488C60.0262 13.559 60.8419 12.0064 61.124 10.3189C61.406 8.63136 61.1397 6.89788 60.364 5.37291C59.5883 3.84794 58.3441 2.61182 56.8141 1.84603C55.2842 1.08024 53.549 0.825123 51.8634 1.11813C50.1777 1.41114 48.6304 2.23684 47.4486 3.47401C46.2668 4.71117 45.5128 6.29463 45.2972 7.99191L46.8457 8C47.0182 6.64154 47.6575 5.56732 48.6034 4.57712C49.5493 3.58692 50.7877 2.92605 52.1369 2.69154C53.486 2.45702 54.8748 2.66121 56.0993 3.27413C57.3239 3.88704 58.3197 4.8764 58.9405 6.09695C59.5614 7.3175 59.7746 8.70494 59.5488 10.0556C59.323 11.4062 58.6702 12.6489 57.6862 13.6012C56.7021 14.5535 55.4387 15.1652 54.0814 15.3465C52.7241 15.5279 51.5452 15.1605 50.3457 14.5C49.7618 14.9761 49.5469 15.3101 49.3745 16.0077Z" fill="url(#paint14_linear)"/>
<path d="M72.8042 16.0077C74.3029 16.833 76.0267 17.1561 77.7226 16.9295C79.4184 16.7029 80.997 15.9386 82.2264 14.7488C83.4559 13.559 84.2716 12.0064 84.5536 10.3189C84.8357 8.63136 84.5693 6.89788 83.7937 5.37291C83.018 3.84794 81.7738 2.61182 80.2438 1.84603C78.7139 1.08024 76.9787 0.825123 75.293 1.11813C73.6074 1.41114 72.0601 2.23684 70.8783 3.47401C69.6965 4.71117 68.9425 6.29463 68.7269 7.99191L70.2754 8C70.4479 6.64154 71.0872 5.56732 72.0331 4.57712C72.979 3.58692 74.2174 2.92605 75.5665 2.69154C76.9157 2.45702 78.3045 2.66121 79.529 3.27413C80.7536 3.88704 81.7494 4.8764 82.3702 6.09695C82.9911 7.3175 83.2043 8.70494 82.9785 10.0556C82.7527 11.4062 82.0999 12.6489 81.1159 13.6012C80.1318 14.5535 78.8684 15.1652 77.5111 15.3465C76.1538 15.5279 74.9749 15.1605 73.7754 14.5C73.1915 14.9761 72.9765 15.3101 72.8042 16.0077Z" fill="url(#paint15_linear)"/>
<path d="M96.1245 16.0077C97.6232 16.833 99.3471 17.1561 101.043 16.9295C102.739 16.7029 104.317 15.9386 105.547 14.7488C106.776 13.559 107.592 12.0064 107.874 10.3189C108.156 8.63136 107.89 6.89788 107.114 5.37291C106.338 3.84794 105.094 2.61182 103.564 1.84603C102.034 1.08024 100.299 0.825123 98.6134 1.11813C96.9277 1.41114 95.3804 2.23684 94.1986 3.47401C93.0168 4.71117 92.2628 6.29463 92.0472 7.99191L93.5957 8C93.7682 6.64154 94.4075 5.56732 95.3534 4.57712C96.2993 3.58692 97.5377 2.92605 98.8869 2.69154C100.236 2.45702 101.625 2.66121 102.849 3.27413C104.074 3.88704 105.07 4.8764 105.691 6.09695C106.311 7.3175 106.525 8.70494 106.299 10.0556C106.073 11.4062 105.42 12.6489 104.436 13.6012C103.452 14.5535 102.189 15.1652 100.831 15.3465C99.4741 15.5279 98.2952 15.1605 97.0957 14.5C96.5118 14.9761 96.2969 15.3101 96.1245 16.0077Z" fill="url(#paint16_linear)"/>
<path d="M119.475 16.0077C120.973 16.833 122.697 17.1561 124.393 16.9295C126.089 16.7029 127.667 15.9386 128.897 14.7488C130.126 13.559 130.942 12.0064 131.224 10.3189C131.506 8.63136 131.24 6.89788 130.464 5.37291C129.688 3.84794 128.444 2.61182 126.914 1.84603C125.384 1.08024 123.649 0.825123 121.963 1.11813C120.278 1.41114 118.731 2.23684 117.549 3.47401C116.367 4.71117 115.613 6.29463 115.397 7.99191L116.946 8C117.118 6.64154 117.758 5.56732 118.703 4.57712C119.649 3.58692 120.888 2.92605 122.237 2.69154C123.586 2.45702 124.975 2.66121 126.199 3.27413C127.424 3.88704 128.42 4.8764 129.041 6.09695C129.661 7.3175 129.875 8.70494 129.649 10.0556C129.423 11.4062 128.77 12.6489 127.786 13.6012C126.802 14.5535 125.539 15.1652 124.181 15.3465C122.824 15.5279 121.645 15.1605 120.446 14.5C119.862 14.9761 119.647 15.3101 119.475 16.0077Z" fill="url(#paint17_linear)"/>
<path d="M142.924 16.0077C144.423 16.833 146.147 17.1561 147.843 16.9295C149.539 16.7029 151.117 15.9386 152.347 14.7488C153.576 13.559 154.392 12.0064 154.674 10.3189C154.956 8.63136 154.689 6.89788 153.914 5.37291C153.138 3.84794 151.894 2.61182 150.364 1.84603C148.834 1.08024 147.099 0.825123 145.413 1.11813C143.728 1.41114 142.18 2.23684 140.998 3.47401C139.817 4.71117 139.063 6.29463 138.847 7.99191L140.396 8C140.568 6.64154 141.207 5.56732 142.153 4.57712C143.099 3.58692 144.338 2.92605 145.687 2.69154C147.036 2.45702 148.425 2.66121 149.649 3.27413C150.874 3.88704 151.869 4.8764 152.49 6.09695C153.111 7.3175 153.324 8.70494 153.099 10.0556C152.873 11.4062 152.22 12.6489 151.236 13.6012C150.252 14.5535 148.989 15.1652 147.631 15.3465C146.274 15.5279 145.095 15.1605 143.896 14.5C143.312 14.9761 143.097 15.3101 142.924 16.0077Z" fill="url(#paint18_linear)"/>
<path d="M166.324 16.0077C167.823 16.833 169.547 17.1561 171.243 16.9295C172.938 16.7029 174.517 15.9386 175.746 14.7488C176.976 13.559 177.792 12.0064 178.074 10.3189C178.356 8.63136 178.089 6.89788 177.314 5.37291C176.538 3.84794 175.294 2.61182 173.764 1.84603C172.234 1.08024 170.499 0.825123 168.813 1.11813C167.127 1.41114 165.58 2.23684 164.398 3.47401C163.217 4.71117 162.462 6.29463 162.247 7.99191L163.795 8C163.968 6.64154 164.607 5.56732 165.553 4.57712C166.499 3.58692 167.737 2.92605 169.087 2.69154C170.436 2.45702 171.824 2.66121 173.049 3.27413C174.274 3.88704 175.269 4.8764 175.89 6.09695C176.511 7.3175 176.724 8.70494 176.499 10.0556C176.273 11.4062 175.62 12.6489 174.636 13.6012C173.652 14.5535 172.388 15.1652 171.031 15.3465C169.674 15.5279 168.495 15.1605 167.295 14.5C166.712 14.9761 166.497 15.3101 166.324 16.0077Z" fill="url(#paint19_linear)"/>
</g>
<defs>
<filter id="filter0_di" x="9" y="4" width="181" height="127" filterUnits="userSpaceOnUse" color-interpolation-filters="sRGB">
<feFlood flood-opacity="0" result="BackgroundImageFix"/>
<feColorMatrix in="SourceAlpha" type="matrix" values="0 0 0 0 0 0 0 0 0 0 0 0 0 0 0 0 0 0 127 0"/>
<feOffset dx="1" dy="1"/>
<feGaussianBlur stdDeviation="1"/>
<feColorMatrix type="matrix" values="0 0 0 0 0.0200868 0 0 0 0 0.185717 0 0 0 0 0.370833 0 0 0 0.3 0"/>
<feBlend mode="normal" in2="BackgroundImageFix" result="effect1_dropShadow"/>
<feBlend mode="normal" in="SourceGraphic" in2="effect1_dropShadow" result="shape"/>
<feColorMatrix in="SourceAlpha" type="matrix" values="0 0 0 0 0 0 0 0 0 0 0 0 0 0 0 0 0 0 127 0" result="hardAlpha"/>
<feOffset dx="-4" dy="-4"/>
<feGaussianBlur stdDeviation="4"/>
<feComposite in2="hardAlpha" operator="arithmetic" k2="-1" k3="1"/>
<feColorMatrix type="matrix" values="0 0 0 0 0 0 0 0 0 0 0 0 0 0 0 0 0 0 0.2 0"/>
<feBlend mode="normal" in2="shape" result="effect2_innerShadow"/>
</filter>
<filter id="filter1_i" x="16" y="11" width="166" height="112" filterUnits="userSpaceOnUse" color-interpolation-filters="sRGB">
<feFlood flood-opacity="0" result="BackgroundImageFix"/>
<feBlend mode="normal" in="SourceGraphic" in2="BackgroundImageFix" result="shape"/>
<feColorMatrix in="SourceAlpha" type="matrix" values="0 0 0 0 0 0 0 0 0 0 0 0 0 0 0 0 0 0 127 0" result="hardAlpha"/>
<feOffset dx="-2" dy="-2"/>
<feGaussianBlur stdDeviation="2"/>
<feComposite in2="hardAlpha" operator="arithmetic" k2="-1" k3="1"/>
<feColorMatrix type="matrix" values="0 0 0 0 0 0 0 0 0 0 0 0 0 0 0 0 0 0 0.15 0"/>
<feBlend mode="normal" in2="shape" result="effect1_innerShadow"/>
</filter>
<filter id="filter2_i" x="25.9375" y="13.9728" width="6.3063" height="6.3063" filterUnits="userSpaceOnUse" color-interpolation-filters="sRGB">
<feFlood flood-opacity="0" result="BackgroundImageFix"/>
<feBlend mode="normal" in="SourceGraphic" in2="BackgroundImageFix" result="shape"/>
<feColorMatrix in="SourceAlpha" type="matrix" values="0 0 0 0 0 0 0 0 0 0 0 0 0 0 0 0 0 0 127 0" result="hardAlpha"/>
<feOffset dx="1" dy="1"/>
<feGaussianBlur stdDeviation="0.5"/>
<feComposite in2="hardAlpha" operator="arithmetic" k2="-1" k3="1"/>
<feColorMatrix type="matrix" values="0 0 0 0 0 0 0 0 0 0 0 0 0 0 0 0 0 0 0.15 0"/>
<feBlend mode="normal" in2="shape" result="effect1_innerShadow"/>
</filter>
<filter id="filter3_i" x="49.3062" y="13.9728" width="6.30629" height="6.3063" filterUnits="userSpaceOnUse" color-interpolation-filters="sRGB">
<feFlood flood-opacity="0" result="BackgroundImageFix"/>
<feBlend mode="normal" in="SourceGraphic" in2="BackgroundImageFix" result="shape"/>
<feColorMatrix in="SourceAlpha" type="matrix" values="0 0 0 0 0 0 0 0 0 0 0 0 0 0 0 0 0 0 127 0" result="hardAlpha"/>
<feOffset dx="1" dy="1"/>
<feGaussianBlur stdDeviation="0.5"/>
<feComposite in2="hardAlpha" operator="arithmetic" k2="-1" k3="1"/>
<feColorMatrix type="matrix" values="0 0 0 0 0 0 0 0 0 0 0 0 0 0 0 0 0 0 0.15 0"/>
<feBlend mode="normal" in2="shape" result="effect1_innerShadow"/>
</filter>
<filter id="filter4_i" x="72.6753" y="13.9728" width="6.3063" height="6.3063" filterUnits="userSpaceOnUse" color-interpolation-filters="sRGB">
<feFlood flood-opacity="0" result="BackgroundImageFix"/>
<feBlend mode="normal" in="SourceGraphic" in2="BackgroundImageFix" result="shape"/>
<feColorMatrix in="SourceAlpha" type="matrix" values="0 0 0 0 0 0 0 0 0 0 0 0 0 0 0 0 0 0 127 0" result="hardAlpha"/>
<feOffset dx="1" dy="1"/>
<feGaussianBlur stdDeviation="0.5"/>
<feComposite in2="hardAlpha" operator="arithmetic" k2="-1" k3="1"/>
<feColorMatrix type="matrix" values="0 0 0 0 0 0 0 0 0 0 0 0 0 0 0 0 0 0 0.15 0"/>
<feBlend mode="normal" in2="shape" result="effect1_innerShadow"/>
</filter>
<filter id="filter5_i" x="96.0483" y="13.9728" width="6.29779" height="6.29781" filterUnits="userSpaceOnUse" color-interpolation-filters="sRGB">
<feFlood flood-opacity="0" result="BackgroundImageFix"/>
<feBlend mode="normal" in="SourceGraphic" in2="BackgroundImageFix" result="shape"/>
<feColorMatrix in="SourceAlpha" type="matrix" values="0 0 0 0 0 0 0 0 0 0 0 0 0 0 0 0 0 0 127 0" result="hardAlpha"/>
<feOffset dx="1" dy="1"/>
<feGaussianBlur stdDeviation="0.5"/>
<feComposite in2="hardAlpha" operator="arithmetic" k2="-1" k3="1"/>
<feColorMatrix type="matrix" values="0 0 0 0 0 0 0 0 0 0 0 0 0 0 0 0 0 0 0.15 0"/>
<feBlend mode="normal" in2="shape" result="effect1_innerShadow"/>
</filter>
<filter id="filter6_i" x="119.417" y="13.9728" width="6.29782" height="6.2978" filterUnits="userSpaceOnUse" color-interpolation-filters="sRGB">
<feFlood flood-opacity="0" result="BackgroundImageFix"/>
<feBlend mode="normal" in="SourceGraphic" in2="BackgroundImageFix" result="shape"/>
<feColorMatrix in="SourceAlpha" type="matrix" values="0 0 0 0 0 0 0 0 0 0 0 0 0 0 0 0 0 0 127 0" result="hardAlpha"/>
<feOffset dx="1" dy="1"/>
<feGaussianBlur stdDeviation="0.5"/>
<feComposite in2="hardAlpha" operator="arithmetic" k2="-1" k3="1"/>
<feColorMatrix type="matrix" values="0 0 0 0 0 0 0 0 0 0 0 0 0 0 0 0 0 0 0.15 0"/>
<feBlend mode="normal" in2="shape" result="effect1_innerShadow"/>
</filter>
<filter id="filter7_i" x="142.778" y="13.9728" width="6.3063" height="6.3063" filterUnits="userSpaceOnUse" color-interpolation-filters="sRGB">
<feFlood flood-opacity="0" result="BackgroundImageFix"/>
<feBlend mode="normal" in="SourceGraphic" in2="BackgroundImageFix" result="shape"/>
<feColorMatrix in="SourceAlpha" type="matrix" values="0 0 0 0 0 0 0 0 0 0 0 0 0 0 0 0 0 0 127 0" result="hardAlpha"/>
<feOffset dx="1" dy="1"/>
<feGaussianBlur stdDeviation="0.5"/>
<feComposite in2="hardAlpha" operator="arithmetic" k2="-1" k3="1"/>
<feColorMatrix type="matrix" values="0 0 0 0 0 0 0 0 0 0 0 0 0 0 0 0 0 0 0.15 0"/>
<feBlend mode="normal" in2="shape" result="effect1_innerShadow"/>
</filter>
<filter id="filter8_i" x="166.151" y="13.9728" width="6.29781" height="6.29781" filterUnits="userSpaceOnUse" color-interpolation-filters="sRGB">
<feFlood flood-opacity="0" result="BackgroundImageFix"/>
<feBlend mode="normal" in="SourceGraphic" in2="BackgroundImageFix" result="shape"/>
<feColorMatrix in="SourceAlpha" type="matrix" values="0 0 0 0 0 0 0 0 0 0 0 0 0 0 0 0 0 0 127 0" result="hardAlpha"/>
<feOffset dx="1" dy="1"/>
<feGaussianBlur stdDeviation="0.5"/>
<feComposite in2="hardAlpha" operator="arithmetic" k2="-1" k3="1"/>
<feColorMatrix type="matrix" values="0 0 0 0 0 0 0 0 0 0 0 0 0 0 0 0 0 0 0.15 0"/>
<feBlend mode="normal" in2="shape" result="effect1_innerShadow"/>
</filter>
<linearGradient id="paint0_linear" x1="97.3388" y1="38.488" x2="87.1959" y2="36.5773" gradientUnits="userSpaceOnUse">
<stop stop-color="#A62E41"/>
<stop offset="1" stop-color="#E13152"/>
</linearGradient>
<linearGradient id="paint1_linear" x1="59.3268" y1="72.3208" x2="52.5047" y2="71.4732" gradientUnits="userSpaceOnUse">
<stop stop-color="#A62E41"/>
<stop offset="1" stop-color="#E13152"/>
</linearGradient>
<linearGradient id="paint2_linear" x1="60.2833" y1="75.8952" x2="51.6612" y2="74.5284" gradientUnits="userSpaceOnUse">
<stop stop-color="#A62E41"/>
<stop offset="1" stop-color="#E13152"/>
</linearGradient>
<linearGradient id="paint3_linear" x1="60.2833" y1="80.0977" x2="51.6612" y2="78.7309" gradientUnits="userSpaceOnUse">
<stop stop-color="#A62E41"/>
<stop offset="1" stop-color="#E13152"/>
</linearGradient>
<linearGradient id="paint4_linear" x1="99.9759" y1="42.1641" x2="85.3614" y2="38.0263" gradientUnits="userSpaceOnUse">
<stop stop-color="#A62E41"/>
<stop offset="1" stop-color="#E13152"/>
</linearGradient>
<linearGradient id="paint5_linear" x1="67.7753" y1="46.1693" x2="51.817" y2="45.8267" gradientUnits="userSpaceOnUse">
<stop stop-color="#A62E41"/>
<stop offset="1" stop-color="#E13152"/>
</linearGradient>
<linearGradient id="paint6_linear" x1="80.2018" y1="75.1186" x2="64.7997" y2="70.9281" gradientUnits="userSpaceOnUse">
<stop stop-color="#A62E41"/>
<stop offset="1" stop-color="#E13152"/>
</linearGradient>
<linearGradient id="paint7_linear" x1="148.833" y1="72.6733" x2="140.067" y2="71.2591" gradientUnits="userSpaceOnUse">
<stop stop-color="#A62E41"/>
<stop offset="1" stop-color="#E13152"/>
</linearGradient>
<linearGradient id="paint8_linear" x1="131.708" y1="74.0358" x2="122.942" y2="72.6216" gradientUnits="userSpaceOnUse">
<stop stop-color="#A62E41"/>
<stop offset="1" stop-color="#E13152"/>
</linearGradient>
<linearGradient id="paint9_linear" x1="132.987" y1="78.3786" x2="121.911" y2="76.0835" gradientUnits="userSpaceOnUse">
<stop stop-color="#A62E41"/>
<stop offset="1" stop-color="#E13152"/>
</linearGradient>
<linearGradient id="paint10_linear" x1="169.59" y1="46.0102" x2="153.749" y2="47.972" gradientUnits="userSpaceOnUse">
<stop stop-color="#A62E41"/>
<stop offset="1" stop-color="#E13152"/>
</linearGradient>
<linearGradient id="paint11_linear" x1="35.5684" y1="76.5" x2="23.4988" y2="72.8719" gradientUnits="userSpaceOnUse">
<stop stop-color="#A62E41"/>
<stop offset="1" stop-color="#E13152"/>
</linearGradient>
<linearGradient id="paint12_linear" x1="35.5684" y1="79.5" x2="23.4988" y2="75.8719" gradientUnits="userSpaceOnUse">
<stop stop-color="#A62E41"/>
<stop offset="1" stop-color="#E13152"/>
</linearGradient>
<linearGradient id="paint13_linear" x1="26.2667" y1="15.5757" x2="33.801" y2="2.56259" gradientUnits="userSpaceOnUse">
<stop stop-color="#A62E41"/>
<stop offset="1" stop-color="#E13152"/>
</linearGradient>
<linearGradient id="paint14_linear" x1="49.6124" y1="15.5757" x2="57.1467" y2="2.56259" gradientUnits="userSpaceOnUse">
<stop stop-color="#A62E41"/>
<stop offset="1" stop-color="#E13152"/>
</linearGradient>
<linearGradient id="paint15_linear" x1="73.0421" y1="15.5757" x2="80.5764" y2="2.56259" gradientUnits="userSpaceOnUse">
<stop stop-color="#A62E41"/>
<stop offset="1" stop-color="#E13152"/>
</linearGradient>
<linearGradient id="paint16_linear" x1="96.3624" y1="15.5757" x2="103.897" y2="2.56259" gradientUnits="userSpaceOnUse">
<stop stop-color="#A62E41"/>
<stop offset="1" stop-color="#E13152"/>
</linearGradient>
<linearGradient id="paint17_linear" x1="119.713" y1="15.5757" x2="127.247" y2="2.56259" gradientUnits="userSpaceOnUse">
<stop stop-color="#A62E41"/>
<stop offset="1" stop-color="#E13152"/>
</linearGradient>
<linearGradient id="paint18_linear" x1="143.162" y1="15.5757" x2="150.697" y2="2.56259" gradientUnits="userSpaceOnUse">
<stop stop-color="#A62E41"/>
<stop offset="1" stop-color="#E13152"/>
</linearGradient>
<linearGradient id="paint19_linear" x1="166.562" y1="15.5757" x2="174.096" y2="2.56259" gradientUnits="userSpaceOnUse">
<stop stop-color="#A62E41"/>
<stop offset="1" stop-color="#E13152"/>
</linearGradient>
<clipPath id="clip0">
<rect width="200" height="130" fill="white"/>
</clipPath>
<clipPath id="clip1">
<rect width="4.5" height="4.5" fill="white" transform="translate(27.75 24.4998)"/>
</clipPath>
</defs>
</svg>
