<svg width="200" height="130" fill="none" xmlns="http://www.w3.org/2000/svg"><g clip-path="url(#clip0)"><g filter="url(#filter0_di)"><path d="M48.44 5.9a5 5 0 014.924-4.478L192.951.05a5 5 0 015.049 5v98.084a5 5 0 01-5.349 4.988L44.507 97.744l-2.445-3.91-2.444-3.91L48.44 5.9z" fill="url(#paint0_linear)"/></g><path d="M22.973 129.246l-6.819-9.998 3.911-4.398 7.273 11.816a1 1 0 01-.366 1.398l-2.688 1.493a1 1 0 01-1.311-.311z" fill="url(#paint1_linear)"/><ellipse cx="40.595" cy="94.812" rx="4.888" ry="4.887" fill="url(#paint2_linear)"/><path d="M6.554 109.297l-.142-.142-.169.108-3.597 2.288a2.25 2.25 0 00-.623 3.206l5.033 7.044a2.25 2.25 0 002.988.622l5.75-3.449.274-.165-.226-.226-9.288-9.286z" fill="url(#paint3_linear)" stroke="url(#paint4_linear)" stroke-width=".5"/><path d="M15.664 118.759l-5.75 3.449a2 2 0 01-2.655-.552l-3.816-5.34 6.355-3.421 5.866 5.864z" fill="url(#paint5_linear)"/><path d="M15.38 101.999l-.139-.197-.202.131-8.018 5.21a2.25 2.25 0 00-.6 3.202l3.174 4.406 3.348 4.649a2.25 2.25 0 002.941.638l8.703-4.971.249-.142-.175-.228a298.344 298.344 0 01-4.762-6.348 451.281 451.281 0 01-4.52-6.35z" fill="url(#paint6_linear)" stroke="url(#paint7_linear)" stroke-width=".5"/><path d="M24.464 114.849l-8.703 4.972a2 2 0 01-2.615-.568L9.8 114.605l9.899-6.109a297.647 297.647 0 004.766 6.353z" fill="url(#paint8_linear)"/><path d="M50.902 110.252l-27.416 5.575c-1.748-2.056-3.134-4.249-4.307-5.865-1.815-2.498-3.124-4.977-4.491-8.015l16.249-23.022a1 1 0 011.66.04l9.465 14.87 9.485 14.9a1 1 0 01-.645 1.517z" fill="url(#paint9_linear)"/><path d="M23.486 115.827l27.416-5.575a1 1 0 00.645-1.517l-9.485-14.9-22.883 16.127c1.173 1.616 2.558 3.809 4.307 5.865z" fill="url(#paint10_linear)"/><g filter="url(#filter1_f)"><path d="M30.819 84.06l-1.466 1.955m-1.467 1.955s-3.585 5.05-5.377 7.33" stroke="#F5F9FF" stroke-linecap="round"/></g><path d="M52.541 14.662l-7.046 72.102a5 5 0 004.627 5.474l136.174 9.53a5 5 0 005.349-4.987V14.66m-139.104 0l.323-3.305a5 5 0 014.977-4.514h128.804a5 5 0 015 5v2.82m-139.104 0h139.104" stroke="#F5F9FF"/><circle cx="184.312" cy="10.752" r="1.477" stroke="#F5F9FF"/><circle cx="178.446" cy="10.752" r="1.477" stroke="#F5F9FF"/><circle cx="172.58" cy="10.752" r="1.477" stroke="#F5F9FF"/><g filter="url(#filter2_ii)"><path d="M56.954 22.26a3 3 0 012.986-2.711h73.779a3 3 0 012.995 3.172l-3.07 53.485a3 3 0 01-3.138 2.825l-75.522-3.617a3 3 0 01-2.843-3.285l4.813-49.868z" fill="url(#paint11_linear)"/></g><path d="M184.267 20.526h-39.571a2 2 0 00-1.999 1.934l-.357 10.707a2 2 0 001.954 2.066l39.929.887a2 2 0 002.044-2V22.526a2 2 0 00-2-2zm.045 20.973l-41.034-.892a2 2 0 00-2.043 1.939l-.367 12.129a2 2 0 001.956 2.06l41.401.89a2 2 0 002.043-2V43.499a2 2 0 00-1.956-2zm-.001 21.993l-41.581-.894a2 2 0 00-2.04 1.878l-.736 12.153a2 2 0 001.933 2.12l42.318 1.336a2 2 0 002.063-1.999V65.491a2 2 0 00-1.957-2z" stroke="#F5F9FF"/><path d="M50.969 79.334a2 2 0 012.05-1.54l62.205 3.224a2 2 0 011.884 2.218l-.045.41a2 2 0 01-2.098 1.777l-62.21-3.412a2 2 0 01-1.838-2.453l.052-.224zm-.617 6.561a2 2 0 012.104-1.657l39.073 2.598a1.977 1.977 0 01-.25 3.946L52.168 88.44a2 2 0 01-1.852-2.335l.036-.21z" fill="#71A0DD"/><path d="M35.219 76.24l1.955-17.105m.977-6.353l.489-6.842" stroke="url(#paint12_linear)" stroke-width="2" stroke-linecap="round"/><path d="M83.124 105.075l-17.598-.977m-4.888-.489l-6.844-.489" stroke="url(#paint13_linear)" stroke-width="2" stroke-linecap="round"/></g><defs><linearGradient id="paint0_linear" x1="193.118" y1="54.248" x2="44.382" y2="49.586" gradientUnits="userSpaceOnUse"><stop stop-color="#A62E41"/><stop offset="1" stop-color="#E13152"/></linearGradient><linearGradient id="paint1_linear" x1="25.442" y1="127.068" x2="18.176" y2="121.419" gradientUnits="userSpaceOnUse"><stop offset=".382" stop-color="#0C4C94"/><stop offset=".706" stop-color="#0A3A6E"/></linearGradient><linearGradient id="paint2_linear" x1="40.595" y1="89.925" x2="40.595" y2="99.699" gradientUnits="userSpaceOnUse"><stop stop-color="#0A3D76"/><stop offset="1" stop-color="#0C53A3"/></linearGradient><linearGradient id="paint3_linear" x1="1.896" y1="110.55" x2="13.187" y2="122.353" gradientUnits="userSpaceOnUse"><stop stop-color="#0A3D76"/><stop offset="1" stop-color="#1072DF"/></linearGradient><linearGradient id="paint4_linear" x1="4.008" y1="111.634" x2="11.473" y2="122.027" gradientUnits="userSpaceOnUse"><stop stop-color="#337CCE"/><stop offset="1" stop-color="#1069CD"/></linearGradient><linearGradient id="paint5_linear" x1="11.631" y1="120.988" x2="7.43" y2="114.798" gradientUnits="userSpaceOnUse"><stop offset=".617" stop-color="#074181"/><stop offset="1" stop-color="#07458A" stop-opacity="0"/></linearGradient><linearGradient id="paint6_linear" x1="6.563" y1="103.603" x2="21.902" y2="118.962" gradientUnits="userSpaceOnUse"><stop stop-color="#0A3D76"/><stop offset="1" stop-color="#1072DF"/></linearGradient><linearGradient id="paint7_linear" x1="9.309" y1="105.075" x2="19.572" y2="118.762" gradientUnits="userSpaceOnUse"><stop stop-color="#337CCE"/><stop offset="1" stop-color="#1069CD"/></linearGradient><linearGradient id="paint8_linear" x1="19.087" y1="117.782" x2="15.177" y2="111.428" gradientUnits="userSpaceOnUse"><stop offset=".617" stop-color="#074181"/><stop offset="1" stop-color="#07458A" stop-opacity="0"/></linearGradient><linearGradient id="paint9_linear" x1="51.167" y1="96.767" x2="15.801" y2="96.017" gradientUnits="userSpaceOnUse"><stop stop-color="#A62E41"/><stop offset="1" stop-color="#E13152"/></linearGradient><linearGradient id="paint10_linear" x1="29.353" y1="102.143" x2="37.172" y2="113.385" gradientUnits="userSpaceOnUse"><stop stop-color="#A41D34" stop-opacity="0"/><stop offset=".428" stop-color="#830B20"/></linearGradient><linearGradient id="paint11_linear" x1="94.367" y1="19.549" x2="94.367" y2="79.173" gradientUnits="userSpaceOnUse"><stop stop-color="#0A3D76"/><stop offset="1" stop-color="#0C53A3"/></linearGradient><linearGradient id="paint12_linear" x1="38.534" y1="61.09" x2="35.319" y2="61.083" gradientUnits="userSpaceOnUse"><stop stop-color="#A62E41"/><stop offset="1" stop-color="#E13152"/></linearGradient><linearGradient id="paint13_linear" x1="68.459" y1="103.181" x2="68.456" y2="105.018" gradientUnits="userSpaceOnUse"><stop stop-color="#A62E41"/><stop offset="1" stop-color="#E13152"/></linearGradient><filter id="filter0_di" x="35.618" y="-3.951" width="165.382" height="115.085" filterUnits="userSpaceOnUse" color-interpolation-filters="sRGB"><feFlood flood-opacity="0" result="BackgroundImageFix"/><feColorMatrix in="SourceAlpha" values="0 0 0 0 0 0 0 0 0 0 0 0 0 0 0 0 0 0 127 0"/><feOffset dx="1" dy="1"/><feGaussianBlur stdDeviation="1"/><feColorMatrix values="0 0 0 0 0.7125 0 0 0 0 0.115781 0 0 0 0 0.227892 0 0 0 0.2 0"/><feBlend in2="BackgroundImageFix" result="effect1_dropShadow"/><feBlend in="SourceGraphic" in2="effect1_dropShadow" result="shape"/><feColorMatrix in="SourceAlpha" values="0 0 0 0 0 0 0 0 0 0 0 0 0 0 0 0 0 0 127 0" result="hardAlpha"/><feOffset dx="-4" dy="-4"/><feGaussianBlur stdDeviation="4"/><feComposite in2="hardAlpha" operator="arithmetic" k2="-1" k3="1"/><feColorMatrix values="0 0 0 0 0 0 0 0 0 0 0 0 0 0 0 0 0 0 0.2 0"/><feBlend in2="shape" result="effect2_innerShadow"/></filter><filter id="filter1_f" x="21.809" y="83.36" width="9.71" height="12.641" filterUnits="userSpaceOnUse" color-interpolation-filters="sRGB"><feFlood flood-opacity="0" result="BackgroundImageFix"/><feBlend in="SourceGraphic" in2="BackgroundImageFix" result="shape"/><feGaussianBlur stdDeviation=".1" result="effect1_foregroundBlur"/></filter><filter id="filter2_ii" x="48.127" y="15.549" width="90.592" height="65.485" filterUnits="userSpaceOnUse" color-interpolation-filters="sRGB"><feFlood flood-opacity="0" result="BackgroundImageFix"/><feBlend in="SourceGraphic" in2="BackgroundImageFix" result="shape"/><feColorMatrix in="SourceAlpha" values="0 0 0 0 0 0 0 0 0 0 0 0 0 0 0 0 0 0 127 0" result="hardAlpha"/><feOffset dx="-4" dy="-4"/><feGaussianBlur stdDeviation="4"/><feComposite in2="hardAlpha" operator="arithmetic" k2="-1" k3="1"/><feColorMatrix values="0 0 0 0 0 0 0 0 0 0 0 0 0 0 0 0 0 0 0.3 0"/><feBlend in2="shape" result="effect1_innerShadow"/><feColorMatrix in="SourceAlpha" values="0 0 0 0 0 0 0 0 0 0 0 0 0 0 0 0 0 0 127 0" result="hardAlpha"/><feOffset dx="2" dy="2"/><feGaussianBlur stdDeviation="2"/><feComposite in2="hardAlpha" operator="arithmetic" k2="-1" k3="1"/><feColorMatrix values="0 0 0 0 1 0 0 0 0 1 0 0 0 0 1 0 0 0 0.1 0"/><feBlend in2="effect1_innerShadow" result="effect2_innerShadow"/></filter><clipPath id="clip0"><path fill="#fff" d="M0 0h200v130H0z"/></clipPath></defs></svg>