<svg width="777" height="501" fill="none" xmlns="http://www.w3.org/2000/svg"><path d="M775.729 210.957l-22.297 22.315a.873.873 0 01-1.264 0l-22.297-22.315a.874.874 0 010-1.265l22.297-22.314a.871.871 0 011.264 0l22.297 22.314c.361.271.361.904 0 1.265z" stroke="#E0E0E0" stroke-width="1.706" stroke-miterlimit="10"/><path d="M765.495 210.374l-12.675 12.684-.003.001-.017.001-.017-.001-.004-.001-12.702-12.712v-.004a.08.08 0 010-.034v-.004l12.703-12.803.003-.001.017-.001.017.001.003.001 12.675 12.684c.026.049.03.079.03.095a.207.207 0 01-.03.094z" fill="#EBF2F9" stroke="#EBF2F9"/><path d="M533.378 61.086c.373 0 .559.18.559.537 0 .445-.542.993-1.626 1.646-1.079.647-2.123.971-3.134.971-.892 0-1.714-.287-2.464-.863-.75-.575-1.126-1.413-1.126-2.515 0-1.122.393-2.366 1.177-3.734.785-1.368 1.756-2.482 2.914-3.342 1.162-.86 2.295-1.29 3.398-1.29.657 0 1.182.193 1.575.58.392.386.588.838.588 1.355 0 .56-.044.964-.132 1.21-.089.242-.277.45-.567.624-.289.174-.525.261-.706.261a.684.684 0 01-.486-.195c-.137-.13-.205-.307-.205-.53 0-.154.041-.379.125-.674.078-.295.117-.541.117-.74 0-.333-.115-.5-.345-.5-.707 0-1.499.373-2.377 1.117-.878.744-1.63 1.67-2.258 2.777-.623 1.102-.934 2.075-.934 2.921 0 .56.164 1.035.493 1.421.328.387.809.58 1.441.58.373 0 .842-.099 1.405-.297a6.358 6.358 0 001.575-.805c.485-.343.816-.515.993-.515zm5.531-6.22l-.096-.167c-.157-.241-.236-.42-.236-.536 0-.232.121-.433.361-.602.24-.174.458-.26.655-.26.088 0 .201.006.338.021.137.02.221.029.25.029 1.447-.222 2.462-.334 3.046-.334 1.093 0 1.957.257 2.589.769.638.507.957 1.136.957 1.885 0 .715-.314 1.394-.942 2.037-.623.643-1.459 1.17-2.509 1.58 1.746 1.393 3.07 2.35 3.973 2.871.319.189.478.43.478.725 0 .194-.113.387-.338.58-.221.194-.429.29-.626.29-.284 0-.608-.12-.971-.362a27.41 27.41 0 01-1.537-1.138c-.662-.522-1.045-.834-1.148-.936-.932-.768-1.604-1.278-2.015-1.53-.52 0-.78-.253-.78-.76 0-.237.115-.44.345-.61a1.28 1.28 0 01.788-.26c.083 0 .174.012.272.036a.783.783 0 00.198.043c.314 0 .895-.258 1.744-.775.848-.518 1.273-1.115 1.273-1.791 0-.338-.179-.628-.537-.87-.354-.242-.805-.363-1.354-.363-.652 0-1.18.04-1.582.116-.397.078-.615.133-.654.167a.718.718 0 00-.133.225c-.049.12-.157.619-.323 1.493-.162.87-.312 1.827-.449 2.871-.138 1.04-.206 1.805-.206 2.298 0 .315.024.597.073.849.044.251.067.468.067.652 0 .174-.106.36-.317.558-.206.203-.431.305-.677.305-.681 0-1.022-.464-1.022-1.392 0-.754.083-1.81.25-3.168a39.25 39.25 0 01.603-3.582c.035-.164.064-.311.089-.442l.103-.522zm19.831-.254l-2.266.116c-.789.044-1.469.114-2.037.21-.569.093-.878.165-.927.218-.045.049-.076.196-.096.442-.025.242-.113.667-.265 1.276a7.026 7.026 0 00-.221 1.139c.314 0 .766-.032 1.354-.095.589-.063 1.005-.123 1.251-.18.706-.17 1.253-.255 1.64-.255.775 0 1.162.228 1.162.682 0 .333-.107.565-.323.696-.216.125-.554.212-1.015.26-.285.03-.604.073-.957.131-.186.03-.419.058-.699.087-1.358.155-2.16.276-2.405.363h-.008a.307.307 0 00-.191.166c-.039.087-.113.448-.22 1.08-.108.629-.162 1.069-.162 1.32.024.179.137.268.338.268.235 0 .853-.062 1.854-.188 1.005-.13 1.628-.22 1.868-.268.672-.14 1.111-.21 1.317-.21.623.086.935.372.935.855 0 .222-.074.391-.221.507-.491.218-1.17.353-2.038.406-.672.039-1.486.121-2.442.247a11.79 11.79 0 01-2.413.268c-.397 0-.684-.085-.861-.254-.176-.164-.282-.423-.316-.775l-.022-.24c-.005-.038.036-.186.125-.442.196-.594.436-1.916.721-3.965.284-2.05.426-3.19.426-3.422a.227.227 0 00-.044-.058 1.26 1.26 0 01-.176-.276 1.083 1.083 0 01-.118-.486c0-.087.01-.157.029-.21.02-.101.125-.203.317-.304.191-.102.37-.152.537-.152.23 0 .463.014.699.043.407 0 1.731-.145 3.972-.435a43.055 43.055 0 011.17-.145l.103-.007c.883-.063 1.324.217 1.324.84 0 .117-.081.262-.243.436-.157.169-.309.273-.456.311zm5.354 6.648c-.083.203-.341.653-.772 1.349-.427.691-.724 1.075-.89 1.153a1.025 1.025 0 01-.442.123c-.176 0-.39-.094-.64-.283-.245-.193-.368-.391-.368-.594 0-.189.616-1.206 1.847-3.053a45.625 45.625 0 001.839-3c1.113-2.002 1.792-3.164 2.038-3.488.25-.329.505-.493.765-.493.417 0 .718.106.905.319.093.068.139.23.139.486 0 .188-.017.34-.051.456.897 2.697 1.599 4.606 2.104 5.728.51 1.116 1.02 1.926 1.53 2.428.255.252.409.42.463.508a.61.61 0 01.089.348.863.863 0 01-.295.667.987.987 0 01-.698.275c-.373 0-.753-.212-1.141-.638-.382-.425-.745-1.01-1.088-1.754-.339-.744-.508-1.162-.508-1.254 0-.02-.012-.03-.037-.03-.265 0-.856.093-1.773.276-.912.184-1.645.363-2.199.537a1.314 1.314 0 01-.375.065c-.192 0-.339-.044-.442-.13zm4.237-2.218c-.117-.285-.465-1.3-1.044-3.045a4.149 4.149 0 00-.111-.304l-2.089 3.915c.309-.054.626-.102.949-.145.216-.025.765-.126 1.648-.305a14.9 14.9 0 01.647-.116zm11.725-4.038c-.044.039-.083.147-.118.326-.034.179-.134 1.01-.301 2.494-.162 1.484-.243 2.67-.243 3.56 0 .367.044.778.133 1.232a.692.692 0 01.036.232c0 .261-.078.495-.235.703a.699.699 0 01-.589.312c-.161 0-.367-.08-.618-.24-.245-.154-.392-.42-.441-.797a11.85 11.85 0 01-.074-1.471c0-.827.099-2.057.295-3.69.196-1.634.314-2.468.353-2.502-.137 0-.687.037-1.648.11-.966.072-1.528.108-1.685.108-.505 0-.855-.063-1.052-.189-.196-.13-.294-.333-.294-.609a.63.63 0 01.309-.565c.211-.13.741-.196 1.589-.196a31.11 31.11 0 004.157-.275c1.53-.232 2.69-.348 3.479-.348.883 0 1.42.104 1.611.312.191.203.287.405.287.608 0 .47-.211.704-.633.704a7.92 7.92 0 01-.662-.044 14.041 14.041 0 00-1.081-.036c-1.241 0-2.099.087-2.575.26zm8.613 1.406a8.92 8.92 0 00-.206 1.052c0 .14-.049.5-.147 1.08-.162 1.034-.243 1.74-.243 2.117 0 .638.04 1.266.118 1.885.059.45-.034.778-.28.986-.245.203-.49.304-.735.304-.348 0-.596-.147-.743-.442-.147-.3-.221-.817-.221-1.552 0-.454.115-1.537.346-3.248l.404-2.834c.084-.416.145-.802.184-1.16.059-.527.13-.85.214-.971.088-.126.242-.257.463-.392.221-.14.388-.21.5-.21.285 0 .501.113.648.34.152.228.228.505.228.834l-.53 2.211zm14.535-2.762c.01.048-.172.334-.544.856a39.399 39.399 0 00-1.361 1.986c-.334.537-.959 1.561-1.876 3.074a69.966 69.966 0 01-1.089 1.754c-.461.672-.738 1.19-.831 1.552-.074.232-.245.42-.515.565-.265.145-.581.218-.949.218-.162 0-.316-.121-.464-.363-.142-.241-.336-.698-.581-1.37-.304-.807-.728-1.885-1.272-3.233-1.133-2.789-1.7-4.232-1.7-4.328 0-.174.084-.409.25-.703.172-.295.412-.443.721-.443a.93.93 0 01.655.268c.191.175.365.653.522 1.436.108.556.456 1.58 1.045 3.074.593 1.488 1.057 2.59 1.39 3.306.074-.107.241-.392.501-.856.058-.101.098-.166.117-.196a43.732 43.732 0 001.692-2.878c.824-1.556 1.516-2.716 2.075-3.48.564-.763 1.032-1.145 1.405-1.145.544 0 .816.266.816.797v.058c0 .02-.002.037-.007.051zm4.015 2.762a8.92 8.92 0 00-.206 1.052c0 .14-.049.5-.147 1.08-.162 1.034-.243 1.74-.243 2.117 0 .638.04 1.266.118 1.885.059.45-.034.778-.279.986-.246.203-.491.304-.736.304-.348 0-.596-.147-.743-.442-.147-.3-.221-.817-.221-1.552 0-.454.115-1.537.346-3.248l.405-2.834c.083-.416.144-.802.183-1.16.059-.527.13-.85.214-.971.088-.126.243-.257.463-.392.221-.14.388-.21.5-.21.285 0 .501.113.648.34.152.228.228.505.228.834l-.53 2.211zm9.246-1.406c-.044.039-.084.147-.118.326-.034.179-.135 1.01-.301 2.494-.162 1.484-.243 2.67-.243 3.56 0 .367.044.778.132 1.232a.667.667 0 01.037.232c0 .261-.078.495-.235.703a.7.7 0 01-.589.312c-.162 0-.368-.08-.618-.24-.245-.154-.392-.42-.441-.797a11.85 11.85 0 01-.074-1.471c0-.827.098-2.057.294-3.69.197-1.634.314-2.468.354-2.502-.138 0-.687.037-1.648.11-.966.072-1.528.108-1.685.108-.505 0-.856-.063-1.052-.189-.196-.13-.294-.333-.294-.609a.63.63 0 01.309-.565c.211-.13.74-.196 1.589-.196 1.412 0 2.798-.092 4.156-.275 1.53-.232 2.69-.348 3.48-.348.883 0 1.42.104 1.611.312.191.203.287.405.287.608 0 .47-.211.704-.633.704a7.92 7.92 0 01-.662-.044 14.041 14.041 0 00-1.081-.036c-1.241 0-2.099.087-2.575.26zm12.725 3.784v-.007c-.152.406-.326 1.742-.522 4.01-.035.502-.091.794-.169.876-.074.082-.216.16-.427.232-.206.078-.363.116-.471.116-.544 0-.816-.362-.816-1.087 0-.324.073-.935.22-1.834.147-.894.221-1.52.221-1.878 0-.208-.03-.401-.088-.58-.407-.43-.903-1.034-1.486-1.812-.677-.89-1.16-1.44-1.45-1.653-.578-.411-.946-.725-1.103-.943-.152-.222-.228-.423-.228-.602 0-.11.105-.253.316-.427.216-.174.412-.261.589-.261.74 0 1.895 1.034 3.465 3.103.519.696.878 1.13 1.074 1.305.186-.199.377-.416.573-.653.192-.237.388-.454.589-.652 1.187-1.204 1.986-2.086 2.398-2.646.393-.542.827-.813 1.302-.813.216 0 .393.087.53.261a.869.869 0 01.206.544c0 .285-.893 1.332-2.678 3.14-1.295 1.328-1.976 2.082-2.045 2.261zM379.274 164.283c-.727 0-1.609-.237-2.647-.709-1.03-.473-1.817-1.274-2.36-2.404a8.41 8.41 0 01-.815-3.673c0-.671.099-1.557.296-2.658l.339-1.958c.049-.332.102-.657.159-.974.084-.487.159-.957.222-1.408.099-.777.272-1.359.519-1.747.247-.396.628-.593 1.143-.593.254 0 .512.201.773.603.268.396.402.699.402.911 0 .148-.169.924-.508 2.329-.085.353-.233 1.217-.445 2.594-.204 1.369-.307 2.297-.307 2.784 0 1.8.392 3.014 1.175 3.642.791.628 1.457.942 2.001.942 1.792 0 3.031-.381 3.715-1.143.685-.769 1.122-2.022 1.313-3.758.035-.318.077-.618.127-.9.07-.72.13-1.408.18-2.065.169-2.491.413-4.051.73-4.679.325-.628.784-.943 1.376-.943.734 0 1.101.477 1.101 1.43 0 .564-.137 1.616-.413 3.155a25.02 25.02 0 00-.328 2.72c-.127 2.139-.42 3.706-.878 4.701-.459.995-1.292 1.878-2.498 2.647-1.2.769-2.657 1.154-4.372 1.154zm22.576-12.091c0-.698-.18-1.182-.54-1.45-.36-.275-.889-.413-1.588-.413-1.192 0-2.3.293-3.323.879-1.017.579-1.525 1.217-1.525 1.916 0 .445.191.826.572 1.144.388.31 1.383.698 2.985 1.164 1.68.487 2.925 1.024 3.737 1.609.818.579 1.227 1.278 1.227 2.097 0 1.362-1.037 2.611-3.112 3.747-2.074 1.13-4.23 1.694-6.467 1.694-.727 0-1.309-.151-1.747-.455-.437-.303-.656-.677-.656-1.122 0-.353.099-.681.296-.985.198-.303.434-.455.71-.455.169 0 .324.028.465.085.741.317 1.433.476 2.075.476 1.101 0 2.336-.307 3.705-.921 1.376-.621 2.064-1.228 2.064-1.821 0-.247-.173-.483-.519-.709-.338-.233-1.034-.523-2.085-.868-1.531-.501-2.685-.914-3.461-1.239-.77-.325-1.355-.748-1.758-1.271-.395-.529-.592-1.164-.592-1.905 0-1.32.769-2.548 2.307-3.684 1.539-1.137 3.345-1.705 5.42-1.705 1.193 0 2.131.236 2.816.709.691.473 1.037 1.013 1.037 1.62 0 1.242-.681 1.863-2.043 1.863zm18.3-1.746l-3.26.169c-1.137.064-2.114.166-2.933.307-.818.134-1.263.24-1.333.318-.064.07-.11.285-.138.645-.035.353-.162.974-.381 1.864-.176.677-.282 1.231-.318 1.662.452 0 1.101-.046 1.948-.138.847-.091 1.447-.18 1.8-.264 1.016-.247 1.803-.371 2.36-.371 1.115 0 1.673.332 1.673.995 0 .487-.156.826-.466 1.017-.311.183-.798.31-1.461.381-.409.042-.868.106-1.376.19-.268.043-.603.085-1.006.127-1.954.226-3.108.403-3.461.53h-.011a.445.445 0 00-.275.243c-.056.127-.162.653-.317 1.578-.156.917-.233 1.56-.233 1.927.035.261.197.391.487.391.338 0 1.228-.091 2.667-.275 1.447-.191 2.343-.321 2.689-.392.967-.204 1.598-.307 1.895-.307.896.127 1.344.544 1.344 1.25 0 .324-.106.571-.318.741-.705.317-1.683.515-2.932.593-.966.056-2.138.176-3.514.359a16.666 16.666 0 01-3.472.392c-.572 0-.984-.123-1.238-.37-.254-.24-.406-.618-.456-1.133l-.031-.35c-.007-.056.053-.271.18-.645.282-.868.628-2.799 1.037-5.791.409-2.993.614-4.659.614-4.998a.351.351 0 00-.064-.084c-.049-.043-.134-.177-.254-.403a1.605 1.605 0 01-.169-.709c0-.127.014-.229.042-.307.029-.148.18-.296.455-.445.276-.148.533-.222.773-.222.332 0 .667.021 1.006.064.586 0 2.491-.212 5.716-.636a60.594 60.594 0 011.683-.211l.148-.011c1.27-.092 1.905.318 1.905 1.228 0 .17-.116.381-.349.635-.226.247-.444.399-.656.456zm6.37.37l-.138-.243c-.225-.353-.338-.614-.338-.784 0-.339.173-.631.518-.879.346-.254.66-.381.942-.381.128 0 .29.011.487.032.198.028.318.042.36.042 2.082-.324 3.543-.487 4.383-.487 1.573 0 2.815.375 3.726 1.123.917.741 1.376 1.658 1.376 2.752 0 1.045-.452 2.037-1.355 2.975-.896.939-2.1 1.708-3.61 2.308 2.512 2.033 4.418 3.43 5.716 4.193.459.275.688.628.688 1.058 0 .283-.162.565-.487.847-.317.283-.617.424-.899.424-.41 0-.875-.177-1.398-.529-.522-.353-1.259-.907-2.212-1.663-.953-.762-1.503-1.217-1.651-1.365-1.341-1.123-2.308-1.867-2.901-2.234-.748 0-1.122-.371-1.122-1.112 0-.346.166-.642.498-.889a1.813 1.813 0 011.132-.381c.12 0 .251.017.392.053.134.042.229.063.286.063.452 0 1.288-.377 2.509-1.133 1.22-.755 1.831-1.627 1.831-2.615 0-.494-.258-.917-.773-1.27-.508-.353-1.157-.529-1.947-.529-.939 0-1.698.056-2.276.169-.572.113-.886.194-.942.243-.05.043-.113.152-.191.329-.071.176-.226.903-.466 2.181a80.499 80.499 0 00-.645 4.192c-.198 1.518-.297 2.636-.297 3.356 0 .459.035.872.106 1.239.064.367.095.684.095.953 0 .254-.151.525-.455.815-.296.296-.621.445-.974.445-.981 0-1.471-.678-1.471-2.033 0-1.101.12-2.643.36-4.627.247-1.983.536-3.726.868-5.23.049-.24.092-.455.127-.646l.148-.762zm-88.582 30.262a13.015 13.015 0 00-.296 1.535c0 .204-.071.73-.212 1.577-.233 1.511-.349 2.541-.349 3.092 0 .931.056 1.849.169 2.752.085.657-.049 1.137-.402 1.44-.353.296-.706.445-1.058.445-.502 0-.858-.216-1.07-.646-.211-.438-.317-1.193-.317-2.266 0-.663.166-2.244.497-4.743l.583-4.139c.119-.607.208-1.172.264-1.694.085-.77.187-1.242.307-1.419.127-.183.349-.374.667-.572.318-.204.557-.307.72-.307.409 0 .72.166.931.498.219.332.328.738.328 1.217l-.762 3.23zm5.63 7.019l.772-3.568c.593-2.823.904-4.792.932-5.908.021-.536.06-.9.116-1.09.064-.198.226-.385.487-.561.268-.184.572-.276.91-.276.219 0 .47.071.752.212.282.141.519.59.709 1.345.297 1.221 1.062 2.844 2.297 4.87 1.235 2.025 2.347 3.649 3.335 4.87.268-1.214.561-2.792.878-4.733.226-1.383.438-2.583.635-3.599.163-.847.261-1.599.297-2.255.035-.621.218-1.038.55-1.249.339-.212.678-.318 1.016-.318.29 0 .537.162.741.487.212.318.318.716.318 1.196 0 .381-.102.921-.307 1.62-.445 1.616-.879 3.702-1.302 6.257-.424 2.555-.635 4.013-.635 4.373v.359c0 .41-.036.713-.106.911-.071.198-.244.381-.519.55-.268.177-.621.265-1.058.265-.261 0-.452-.025-.572-.074-.113-.049-.268-.191-.466-.423a6.63 6.63 0 01-.624-.943c-.339-.585-.589-.984-.752-1.196-1.686-2.146-3.309-4.648-4.869-7.506-.212.875-.536 2.922-.974 6.14l-.127.953c-.056.332-.106.812-.148 1.44-.049.755-.233 1.299-.55 1.63-.311.332-.611.498-.9.498-.459 0-.787-.12-.985-.36-.19-.233-.285-.706-.285-1.419 0-.564.141-1.376.423-2.435l.011-.063zm27.329-9.073c-.064.056-.12.215-.17.476-.049.261-.194 1.475-.434 3.642-.233 2.167-.349 3.9-.349 5.198 0 .537.063 1.137.19 1.8a.989.989 0 01.053.339c0 .381-.113.723-.338 1.027-.219.303-.501.455-.847.455-.233 0-.529-.116-.889-.349-.353-.226-.565-.614-.635-1.165-.071-.55-.106-1.267-.106-2.149 0-1.207.141-3.003.423-5.389.282-2.386.452-3.603.508-3.652-.197 0-.988.052-2.371.158-1.39.106-2.198.159-2.424.159-.727 0-1.231-.092-1.514-.275-.282-.191-.423-.487-.423-.889 0-.36.148-.636.445-.826.303-.191 1.065-.286 2.286-.286 2.032 0 4.026-.134 5.981-.402 2.201-.339 3.87-.509 5.006-.509 1.271 0 2.043.152 2.319.456.275.296.412.593.412.889 0 .685-.303 1.027-.91 1.027-.197 0-.515-.021-.953-.064a20.125 20.125 0 00-1.556-.052c-1.785 0-3.02.127-3.704.381zm20.692-.572l-3.261.169c-1.136.064-2.113.166-2.932.307-.818.134-1.263.24-1.333.318-.064.071-.11.286-.138.646-.035.353-.162.974-.381 1.863-.177.678-.282 1.232-.318 1.662.452 0 1.101-.046 1.948-.137.847-.092 1.447-.18 1.8-.265 1.016-.247 1.803-.371 2.36-.371 1.115 0 1.672.332 1.672.996 0 .487-.155.825-.465 1.016-.311.183-.798.311-1.461.381-.409.042-.868.106-1.376.191-.268.042-.603.084-1.006.127-1.954.226-3.108.402-3.461.529h-.011a.444.444 0 00-.275.244c-.056.127-.162.652-.317 1.577-.156.918-.233 1.56-.233 1.927.035.261.197.392.487.392.338 0 1.227-.092 2.667-.276 1.447-.19 2.343-.321 2.689-.391.967-.205 1.598-.307 1.895-.307.896.127 1.344.543 1.344 1.249 0 .325-.106.572-.318.741-.705.318-1.683.515-2.932.593-.967.056-2.138.176-3.514.36-1.228.261-2.385.392-3.472.392-.572 0-.985-.124-1.239-.371-.254-.24-.405-.618-.455-1.133l-.032-.349c-.007-.057.053-.272.18-.646.283-.868.628-2.799 1.038-5.791.409-2.993.614-4.658.614-4.997a.345.345 0 00-.064-.085c-.049-.042-.134-.176-.254-.402a1.612 1.612 0 01-.169-.71c0-.127.014-.229.042-.307.028-.148.18-.296.455-.444.276-.148.533-.223.773-.223.332 0 .667.022 1.006.064.585 0 2.491-.212 5.716-.635a62.435 62.435 0 011.683-.212l.148-.011c1.27-.091 1.905.318 1.905 1.228 0 .17-.116.382-.349.636-.226.247-.445.398-.656.455zm6.37.37l-.138-.243c-.226-.353-.338-.614-.338-.783 0-.339.172-.632.518-.879.346-.254.66-.381.942-.381.127 0 .29.01.487.031.198.029.318.043.36.043 2.082-.325 3.543-.487 4.382-.487 1.574 0 2.816.374 3.726 1.122.918.741 1.377 1.659 1.377 2.753 0 1.044-.452 2.036-1.355 2.975-.897.938-2.1 1.708-3.61 2.308 2.512 2.032 4.418 3.43 5.716 4.192.459.275.688.628.688 1.059 0 .282-.162.564-.487.847-.317.282-.617.423-.9.423-.409 0-.875-.176-1.397-.529-.522-.353-1.259-.907-2.212-1.662-.953-.763-1.503-1.218-1.651-1.366-1.341-1.122-2.308-1.867-2.901-2.234-.748 0-1.122-.37-1.122-1.112 0-.345.166-.642.498-.889a1.811 1.811 0 011.132-.381c.12 0 .251.018.392.053.134.042.229.063.286.063.451 0 1.288-.377 2.508-1.132 1.221-.756 1.832-1.627 1.832-2.615 0-.494-.258-.918-.773-1.271-.508-.353-1.157-.529-1.948-.529-.938 0-1.697.056-2.276.169-.571.113-.885.194-.942.244-.049.042-.113.151-.19.328-.071.176-.226.903-.466 2.181a81.696 81.696 0 00-.646 4.192c-.197 1.518-.296 2.637-.296 3.356 0 .459.035.872.106 1.239.063.367.095.685.095.953 0 .254-.152.526-.455.815-.296.297-.621.445-.974.445-.981 0-1.471-.678-1.471-2.033 0-1.101.12-2.643.36-4.626.247-1.984.536-3.727.868-5.23.049-.24.091-.456.127-.646l.148-.763zm28.006-.455a1.08 1.08 0 01-.614.17c-.141 0-.264-.014-.37-.043-.184-.035-.487-.053-.91-.053-.875 0-1.877.064-3.007.191-1.122.127-1.891.275-2.307.445-.445 1.341-.72 2.939-.826 4.796.29-.043.582-.082.879-.117a38.234 38.234 0 003.059-.434c.79-.141 1.425-.212 1.905-.212 1.073 0 1.609.374 1.609 1.122 0 .135-.106.318-.317.551a1.865 1.865 0 01-.667.487c-.24.099-.685.194-1.334.286l-2.837.349c-1.087.134-1.891.268-2.413.403a.36.36 0 00-.18.201c-.035.091-.085.518-.148 1.281a27.969 27.969 0 00-.085 2.096l.042 1.345c0 .832-.388 1.249-1.164 1.249-.395 0-.773-.145-1.133-.434-.353-.29-.529-.681-.529-1.175 0-.918.106-2.234.318-3.949.014-.078.381-2.686 1.1-7.824 0-.24-.035-.445-.105-.614-.106-.304-.159-.547-.159-.731 0-.254.148-.519.444-.794.304-.282.583-.423.837-.423.169 0 .345.021.529.063.261.057.533.085.815.085.275 0 1.404-.113 3.387-.339 1.292-.141 2.255-.212 2.89-.212.67 0 1.189.106 1.556.318.374.205.561.392.561.561 0 .593-.275 1.048-.826 1.366v-.011zm5.82 9.793c-.12.297-.49.953-1.111 1.969-.614 1.01-1.041 1.571-1.281 1.684-.24.12-.452.18-.635.18-.254 0-.561-.138-.921-.413-.353-.282-.529-.572-.529-.868 0-.276.885-1.761 2.657-4.457a68.096 68.096 0 002.646-4.383c1.602-2.922 2.579-4.62 2.932-5.093.36-.48.727-.72 1.101-.72.6 0 1.034.156 1.302.466.134.099.201.335.201.709 0 .276-.025.498-.074.667 1.291 3.939 2.3 6.727 3.027 8.364.734 1.631 1.468 2.813 2.202 3.547.367.367.589.614.667.741.085.127.127.296.127.508 0 .388-.141.713-.424.974a1.41 1.41 0 01-1.005.402c-.536 0-1.083-.31-1.641-.931-.55-.621-1.073-1.475-1.566-2.562-.487-1.087-.731-1.698-.731-1.832 0-.028-.018-.042-.053-.042-.381 0-1.231.134-2.551.402-1.312.268-2.367.529-3.165.784a1.863 1.863 0 01-.54.095c-.275 0-.487-.064-.635-.191zm6.097-3.239c-.169-.417-.67-1.899-1.503-4.447a5.891 5.891 0 00-.159-.445l-3.006 5.717c.445-.077.9-.148 1.366-.211.31-.036 1.101-.184 2.371-.445.31-.063.621-.12.931-.169zm20.661 2.985c.536 0 .804.261.804.784 0 .649-.78 1.45-2.339 2.403-1.553.946-3.056 1.419-4.51 1.419-1.284 0-2.466-.42-3.546-1.26-1.079-.84-1.619-2.065-1.619-3.674 0-1.637.564-3.455 1.693-5.452 1.13-1.998 2.527-3.625 4.192-4.881 1.673-1.256 3.303-1.884 4.891-1.884.945 0 1.7.282 2.265.846.564.565.847 1.225.847 1.98 0 .819-.064 1.408-.191 1.768-.127.353-.399.657-.815.911-.416.254-.755.381-1.016.381a.973.973 0 01-.699-.286c-.197-.19-.296-.448-.296-.773 0-.226.06-.554.18-.984.113-.431.169-.791.169-1.08 0-.487-.166-.731-.497-.731-1.016 0-2.156.544-3.419 1.631-1.264 1.087-2.347 2.438-3.25 4.054-.896 1.61-1.344 3.032-1.344 4.267 0 .819.236 1.51.709 2.075.473.565 1.164.847 2.075.847.536 0 1.21-.145 2.021-.434a9.077 9.077 0 002.266-1.175c.698-.501 1.175-.752 1.429-.752zm18.553-9.454l-3.26.169c-1.136.064-2.113.166-2.932.307-.819.134-1.263.24-1.334.318-.063.071-.109.286-.137.646-.036.353-.163.974-.381 1.863-.177.678-.283 1.232-.318 1.662.452 0 1.101-.046 1.948-.137.847-.092 1.446-.18 1.799-.265 1.016-.247 1.803-.371 2.361-.371 1.115 0 1.672.332 1.672.996 0 .487-.155.825-.465 1.016-.311.183-.798.311-1.461.381-.41.042-.868.106-1.376.191-.268.042-.604.084-1.006.127-1.955.226-3.108.402-3.461.529h-.011a.442.442 0 00-.275.244c-.057.127-.162.652-.318 1.577-.155.918-.233 1.56-.233 1.927.036.261.198.392.487.392.339 0 1.228-.092 2.668-.276 1.447-.19 2.343-.321 2.689-.391.966-.205 1.598-.307 1.894-.307.897.127 1.345.543 1.345 1.249 0 .325-.106.572-.318.741-.706.318-1.683.515-2.932.593-.967.056-2.138.176-3.514.36-1.228.261-2.386.392-3.472.392-.572 0-.985-.124-1.239-.371-.254-.24-.406-.618-.455-1.133l-.032-.349c-.007-.057.053-.272.18-.646.283-.868.628-2.799 1.038-5.791.409-2.993.614-4.658.614-4.997a.38.38 0 00-.064-.085c-.049-.042-.134-.176-.254-.402a1.612 1.612 0 01-.169-.71c0-.127.014-.229.042-.307.028-.148.18-.296.455-.444.275-.148.533-.223.773-.223.332 0 .667.022 1.005.064.586 0 2.492-.212 5.716-.635a62.748 62.748 0 011.684-.212l.148-.011c1.27-.091 1.905.318 1.905 1.228 0 .17-.116.382-.349.636-.226.247-.445.398-.657.455zm176.171 102.181c-.485 0-1.073-.158-1.764-.473-.687-.315-1.212-.849-1.574-1.602a5.608 5.608 0 01-.543-2.449c0-.448.065-1.038.197-1.772l.226-1.306c.033-.221.068-.437.106-.649.056-.325.106-.638.148-.939.066-.517.181-.906.346-1.164.165-.264.419-.396.762-.396.169 0 .341.134.515.403.179.263.268.465.268.607 0 .098-.113.616-.338 1.552-.057.236-.156.812-.297 1.73-.136.912-.204 1.531-.204 1.856 0 1.2.261 2.009.783 2.428.527.419.971.628 1.334.628 1.195 0 2.02-.254 2.477-.762.456-.513.748-1.348.875-2.506.023-.212.051-.412.084-.6.047-.48.087-.939.12-1.376.113-1.661.275-2.701.487-3.12.217-.419.522-.628.918-.628.489 0 .733.318.733.953 0 .376-.091 1.077-.275 2.103a16.463 16.463 0 00-.218 1.814c-.085 1.426-.28 2.47-.586 3.134-.306.663-.861 1.251-1.666 1.764-.799.513-1.771.77-2.914.77zm15.051-8.061c0-.465-.12-.788-.36-.967-.24-.183-.593-.275-1.059-.275-.795 0-1.533.195-2.216.586-.677.386-1.016.812-1.016 1.278 0 .296.127.55.381.762.259.207.922.466 1.99.776 1.12.325 1.95.682 2.491 1.073.546.386.819.852.819 1.397 0 .909-.692 1.741-2.075 2.499-1.383.753-2.82 1.129-4.311 1.129-.485 0-.873-.101-1.165-.303-.291-.202-.437-.452-.437-.748 0-.236.066-.454.197-.657.132-.202.29-.303.473-.303.113 0 .216.019.311.056.494.212.955.318 1.383.318.734 0 1.557-.205 2.47-.614.917-.414 1.376-.819 1.376-1.214 0-.165-.116-.322-.346-.473-.226-.155-.689-.348-1.39-.579-1.021-.334-1.79-.609-2.308-.826-.513-.216-.903-.498-1.171-.847-.264-.352-.395-.776-.395-1.27 0-.88.512-1.699 1.538-2.456 1.026-.758 2.23-1.137 3.613-1.137.795 0 1.421.158 1.877.473.461.316.692.676.692 1.08 0 .828-.454 1.242-1.362 1.242zm12.2-1.164l-2.174.113c-.757.042-1.409.11-1.955.204-.545.09-.842.16-.889.212-.042.047-.073.191-.092.431-.023.235-.108.649-.254 1.242a6.812 6.812 0 00-.211 1.108c.301 0 .734-.031 1.298-.092.565-.061.965-.12 1.2-.176.677-.165 1.202-.247 1.574-.247.743 0 1.114.221 1.114.663 0 .325-.103.551-.31.678-.207.122-.532.207-.974.254-.273.028-.579.071-.917.127-.179.028-.402.056-.671.085-1.303.15-2.072.268-2.307.353h-.007a.295.295 0 00-.184.162c-.037.085-.108.435-.211 1.052-.104.611-.156 1.039-.156 1.284.024.174.132.261.325.261.226 0 .818-.061 1.778-.183.965-.127 1.562-.214 1.793-.261.644-.137 1.065-.205 1.263-.205.597.085.896.362.896.833 0 .216-.071.381-.212.494-.47.212-1.122.343-1.954.395a32.86 32.86 0 00-2.343.24c-.819.174-1.59.261-2.315.261-.381 0-.656-.082-.826-.247-.169-.16-.27-.412-.303-.755l-.021-.233c-.005-.038.035-.181.12-.43.188-.579.418-1.866.691-3.861.273-1.995.41-3.106.41-3.332a.255.255 0 00-.043-.056c-.033-.028-.089-.118-.169-.268a1.08 1.08 0 01-.113-.473.61.61 0 01.028-.205c.019-.099.12-.197.304-.296.183-.099.355-.149.515-.149.221 0 .444.015.67.043.391 0 1.661-.141 3.811-.424a41.002 41.002 0 011.122-.141l.099-.007c.847-.061 1.27.212 1.27.819 0 .113-.078.254-.233.423-.15.165-.296.266-.437.304zm4.246.247l-.091-.162c-.151-.236-.226-.41-.226-.523 0-.226.115-.421.346-.586.23-.169.44-.254.628-.254.084 0 .193.007.324.022.132.018.212.028.24.028 1.388-.217 2.362-.325 2.922-.325 1.049 0 1.877.249 2.484.748.611.494.917 1.106.917 1.835 0 .697-.301 1.358-.903 1.984-.598.625-1.4 1.138-2.406 1.538 1.674 1.355 2.945 2.287 3.81 2.795.306.184.459.419.459.706 0 .188-.108.377-.325.565-.211.188-.411.282-.6.282-.272 0-.583-.118-.931-.353-.348-.235-.84-.605-1.475-1.108-.635-.508-1.002-.812-1.101-.91-.894-.749-1.538-1.245-1.933-1.49-.499 0-.748-.247-.748-.741 0-.23.11-.428.331-.593.221-.169.473-.254.755-.254.08 0 .167.012.261.036.09.028.153.042.191.042.301 0 .859-.252 1.672-.755.814-.504 1.221-1.085 1.221-1.744 0-.329-.171-.611-.515-.847-.339-.235-.771-.353-1.298-.353-.626 0-1.132.038-1.518.113-.381.076-.59.13-.628.163a.7.7 0 00-.127.219c-.047.117-.15.602-.31 1.453a54.888 54.888 0 00-.431 2.795c-.131 1.012-.197 1.758-.197 2.238 0 .306.023.581.07.826.043.244.064.456.064.635 0 .169-.101.35-.304.543-.197.198-.414.297-.649.297-.654 0-.981-.452-.981-1.355 0-.734.08-1.763.24-3.085.165-1.322.358-2.484.579-3.486.033-.16.061-.304.085-.431l.098-.508zm-57.335 18.725l-2.174.113c-.757.042-1.409.11-1.954.204-.546.09-.842.16-.889.212-.043.047-.073.191-.092.431-.024.235-.108.649-.254 1.242a6.831 6.831 0 00-.212 1.108c.301 0 .734-.03 1.299-.092.564-.061.964-.12 1.199-.176.678-.165 1.202-.247 1.574-.247.743 0 1.115.221 1.115.663 0 .325-.104.551-.311.678-.207.122-.531.207-.974.254-.272.028-.578.071-.917.127-.179.028-.402.056-.67.085-1.303.15-2.073.268-2.308.353h-.007a.291.291 0 00-.183.162c-.038.085-.109.435-.212 1.052-.104.611-.155 1.039-.155 1.284.023.174.131.261.324.261.226 0 .819-.061 1.779-.183.964-.127 1.561-.214 1.792-.261.645-.137 1.066-.205 1.263-.205.598.085.896.362.896.833 0 .216-.07.381-.211.494-.471.212-1.122.343-1.955.395a32.86 32.86 0 00-2.343.24c-.819.174-1.59.261-2.315.261-.381 0-.656-.082-.825-.247-.17-.16-.271-.411-.304-.755l-.021-.233c-.005-.038.035-.181.12-.43.188-.579.419-1.866.692-3.861.273-1.995.409-3.106.409-3.332a.268.268 0 00-.042-.056c-.033-.028-.09-.118-.17-.268a1.08 1.08 0 01-.113-.473c0-.085.01-.153.029-.205.018-.099.12-.197.303-.296.184-.099.355-.148.515-.148.221 0 .445.014.671.042.39 0 1.66-.141 3.81-.424a41.002 41.002 0 011.122-.141l.099-.007c.847-.061 1.27.212 1.27.819 0 .113-.077.254-.233.423-.15.165-.296.266-.437.304zm7.578 2.336c.009 0 .065-.066.169-.198 1.839-2.023 2.926-3.178 3.26-3.465.339-.287.572-.431.699-.431.179 0 .381.095.607.283.226.188.338.376.338.564 0 .165-.249.462-.748.89a24.96 24.96 0 00-1.46 1.432l-.283.276c-1.143 1.077-1.714 1.698-1.714 1.863 0 .085.348.536 1.044 1.355.701.819 1.228 1.334 1.581 1.546.367.226.656.478.868.755.216.273.324.454.324.544 0 .178-.08.345-.24.501a.765.765 0 01-.55.226c-.423 0-.835-.163-1.235-.487-.4-.33-.939-.937-1.616-1.821a44.697 44.697 0 00-1.249-1.56c-.122.141-.416.456-.882.946-1.284 1.35-2 2.244-2.145 2.682-.174.465-.304.767-.389.903a.895.895 0 01-.395.339 1.471 1.471 0 01-.677.141c-.522 0-.784-.245-.784-.734 0-.358.28-.892.84-1.602.565-.715 1.423-1.654 2.576-2.816l.783-.819c.085-.085.146-.153.184-.205a3.666 3.666 0 00-.353-.48c-.301-.348-.795-.993-1.482-1.934-.687-.945-1.03-1.522-1.03-1.729 0-.24.084-.477.254-.713.174-.235.353-.353.536-.353.202 0 .384.057.543.17.16.113.334.36.523.741.517 1.04 1.218 2.103 2.103 3.19zm9.955 3.219c-.117 1.091-.176 1.966-.176 2.625 0 .259-.078.489-.233.692a.758.758 0 01-.635.303c-.579 0-.868-.336-.868-1.009 0-.372.136-1.628.409-3.769.221-1.732.332-2.764.332-3.098 0-.382-.016-.598-.049-.65-.306-.155-.459-.435-.459-.84 0-.395.637-.738 1.912-1.03 1.275-.297 2.367-.445 3.275-.445 1.063 0 1.91.219 2.54.657.631.437.946 1.028.946 1.771 0 1.073-.579 2.016-1.736 2.83-1.158.81-2.564 1.384-4.22 1.723-.607.127-.953.207-1.038.24zm.628-5.301l-.416 3.712c1.355-.225 2.545-.625 3.571-1.199 1.025-.579 1.538-1.198 1.538-1.857 0-.785-.621-1.178-1.863-1.178-.861 0-1.804.174-2.83.522zm11.269 1.496c-.104.428-.17.77-.198 1.024 0 .136-.047.487-.141 1.051-.155 1.007-.233 1.694-.233 2.061 0 .621.038 1.233.113 1.835.057.438-.033.758-.268.96-.235.198-.47.297-.706.297-.334 0-.571-.144-.712-.431-.142-.292-.212-.795-.212-1.51 0-.443.11-1.497.332-3.162l.388-2.76c.08-.405.138-.781.176-1.129.057-.513.125-.828.205-.946.084-.122.233-.249.444-.381.212-.137.372-.205.48-.205a.69.69 0 01.621.332c.146.221.219.492.219.812l-.508 2.152zm4.472-1.503l-.091-.162c-.151-.236-.226-.41-.226-.523 0-.226.115-.421.346-.586.23-.169.44-.254.628-.254.084 0 .193.007.324.022.132.018.212.028.24.028 1.388-.217 2.362-.325 2.922-.325 1.049 0 1.877.249 2.484.748.611.494.917 1.106.917 1.835 0 .697-.301 1.358-.903 1.984-.598.625-1.4 1.138-2.406 1.538 1.674 1.355 2.945 2.287 3.81 2.795.306.184.459.419.459.706 0 .188-.108.377-.325.565-.211.188-.411.282-.599.282-.273 0-.584-.118-.932-.353-.348-.235-.84-.604-1.475-1.108-.635-.508-1.002-.812-1.101-.91-.894-.749-1.538-1.245-1.933-1.49-.499 0-.748-.247-.748-.741 0-.23.11-.428.331-.593.221-.169.473-.254.755-.254.08 0 .167.012.262.036a.74.74 0 00.19.042c.301 0 .859-.252 1.673-.755.813-.504 1.22-1.085 1.22-1.744 0-.329-.171-.611-.515-.847-.339-.235-.771-.353-1.298-.353-.626 0-1.132.038-1.517.113-.382.076-.591.13-.629.163a.721.721 0 00-.127.219c-.047.117-.15.602-.31 1.453a54.888 54.888 0 00-.431 2.795c-.131 1.012-.197 1.758-.197 2.238 0 .306.023.581.07.826.043.244.064.456.064.635 0 .169-.101.35-.303.543-.198.198-.414.297-.65.297-.654 0-.981-.452-.981-1.355 0-.734.08-1.762.24-3.085.165-1.322.358-2.484.579-3.486.033-.16.061-.304.085-.431l.098-.508zm13.492 1.503c-.104.428-.17.77-.198 1.024 0 .136-.047.487-.141 1.051-.155 1.007-.233 1.694-.233 2.061 0 .621.038 1.233.113 1.835.057.438-.033.758-.268.96-.235.198-.471.297-.706.297-.334 0-.571-.144-.713-.431-.141-.292-.211-.795-.211-1.51 0-.443.11-1.497.331-3.162l.389-2.76c.08-.405.138-.781.176-1.129.056-.513.125-.828.205-.946.084-.122.233-.249.444-.381.212-.137.372-.205.48-.205a.69.69 0 01.621.332c.146.221.219.492.219.812l-.508 2.152zm11.536-1.75l-2.173.113c-.758.042-1.409.11-1.955.204-.546.09-.842.16-.889.212-.042.047-.073.191-.092.431-.023.235-.108.649-.254 1.242a6.831 6.831 0 00-.212 1.108c.301 0 .734-.03 1.299-.092.564-.061.964-.12 1.199-.176.678-.165 1.202-.247 1.574-.247.743 0 1.115.221 1.115.663 0 .325-.103.551-.31.678-.207.122-.532.207-.974.254-.273.028-.579.071-.918.127-.178.028-.402.056-.67.085-1.303.15-2.072.268-2.308.353h-.007a.291.291 0 00-.183.162c-.038.085-.108.435-.212 1.052-.103.611-.155 1.039-.155 1.284.023.174.132.261.325.261.225 0 .818-.061 1.778-.183.964-.127 1.562-.214 1.792-.261.645-.137 1.066-.205 1.263-.205.598.085.897.362.897.833 0 .216-.071.381-.212.494-.47.212-1.122.343-1.955.395-.644.038-1.425.118-2.343.24-.818.174-1.59.261-2.314.261-.381 0-.657-.082-.826-.247-.169-.16-.27-.411-.303-.755l-.022-.233c-.004-.038.036-.181.12-.43.189-.579.419-1.866.692-3.861.273-1.995.409-3.106.409-3.332a.268.268 0 00-.042-.056c-.033-.028-.089-.118-.169-.268a1.067 1.067 0 01-.113-.473.61.61 0 01.028-.205c.019-.099.12-.197.303-.296.184-.099.356-.148.516-.148.221 0 .444.014.67.042.39 0 1.661-.141 3.811-.424a41.002 41.002 0 011.122-.141l.098-.007c.847-.061 1.271.212 1.271.819 0 .113-.078.254-.233.423-.151.165-.297.266-.438.304zm3.527 6.43l.515-2.379c.396-1.882.603-3.195.621-3.938.015-.358.04-.6.078-.727.042-.132.151-.257.325-.374.178-.123.381-.184.607-.184.145 0 .312.047.501.141.188.095.345.393.472.897.198.814.708 1.896 1.532 3.246.823 1.351 1.564 2.433 2.223 3.247.178-.809.374-1.861.585-3.155a82.94 82.94 0 01.424-2.4c.108-.564.174-1.065.197-1.503.024-.414.146-.692.367-.833.226-.141.452-.211.678-.211.193 0 .357.108.494.324.141.212.211.478.211.798 0 .254-.068.614-.204 1.08-.297 1.077-.586 2.468-.868 4.171-.282 1.703-.424 2.675-.424 2.915v.24c0 .273-.023.475-.07.607-.047.132-.162.254-.346.367-.179.118-.414.176-.706.176-.174 0-.301-.016-.381-.049-.075-.033-.178-.127-.31-.282a4.384 4.384 0 01-.417-.629 8.211 8.211 0 00-.501-.797c-1.124-1.431-2.206-3.099-3.246-5.004-.141.583-.357 1.948-.649 4.093l-.085.636c-.037.221-.07.541-.098.96-.033.503-.156.865-.367 1.086-.207.222-.407.332-.6.332-.306 0-.525-.08-.657-.24-.127-.155-.19-.47-.19-.946 0-.376.094-.917.282-1.623l.007-.042zm20.04-.127c.358 0 .537.174.537.522 0 .433-.52.967-1.56 1.602-1.035.631-2.037.946-3.006.946-.856 0-1.644-.28-2.364-.84-.72-.56-1.08-1.376-1.08-2.449 0-1.092.376-2.303 1.129-3.635.753-1.332 1.684-2.416 2.795-3.254 1.115-.837 2.201-1.256 3.26-1.256.63 0 1.134.188 1.51.565.377.376.565.816.565 1.319 0 .546-.043.939-.127 1.179-.085.235-.266.438-.544.607-.277.169-.503.254-.677.254a.65.65 0 01-.466-.19c-.132-.127-.197-.299-.197-.516 0-.15.039-.369.119-.656.076-.287.113-.527.113-.72 0-.325-.11-.487-.331-.487-.678 0-1.438.362-2.28 1.087-.842.725-1.564 1.626-2.166 2.703-.598 1.073-.896 2.021-.896 2.845 0 .545.157 1.007.472 1.383.316.376.777.565 1.384.565.357 0 .806-.097 1.347-.29a6.069 6.069 0 001.511-.783c.465-.334.783-.501.952-.501zm12.37-6.303l-2.174.113c-.757.042-1.409.11-1.955.204-.545.09-.842.16-.889.212-.042.047-.073.191-.092.431-.023.235-.108.649-.254 1.242a6.812 6.812 0 00-.211 1.108c.301 0 .734-.03 1.298-.092.565-.061.965-.12 1.2-.176.677-.165 1.202-.247 1.573-.247.744 0 1.115.221 1.115.663 0 .325-.103.551-.31.678-.207.122-.532.207-.974.254-.273.028-.579.071-.917.127-.179.028-.403.056-.671.085-1.303.15-2.072.268-2.307.353h-.007a.295.295 0 00-.184.162c-.037.085-.108.435-.212 1.052-.103.611-.155 1.039-.155 1.284.024.174.132.261.325.261.226 0 .818-.061 1.778-.183.965-.127 1.562-.214 1.793-.261.644-.137 1.065-.205 1.263-.205.597.085.896.362.896.833 0 .216-.071.381-.212.494-.47.212-1.122.343-1.954.395a32.86 32.86 0 00-2.343.24c-.819.174-1.59.261-2.315.261-.381 0-.656-.082-.826-.247-.169-.16-.27-.411-.303-.755l-.021-.233c-.005-.038.035-.181.12-.43.188-.579.418-1.866.691-3.861.273-1.995.41-3.106.41-3.332a.3.3 0 00-.043-.056c-.033-.028-.089-.118-.169-.268a1.08 1.08 0 01-.113-.473.61.61 0 01.028-.205c.019-.099.12-.197.304-.296a1.09 1.09 0 01.515-.148c.221 0 .444.014.67.042.391 0 1.661-.141 3.811-.424a41.002 41.002 0 011.122-.141l.099-.007c.847-.061 1.27.212 1.27.819 0 .113-.078.254-.233.423-.15.165-.296.266-.437.304z" fill="#000"/><path d="M346.745 108.995l-17.413-17.467c-.287-.288-.287-.74 0-.987l17.413-17.426c.287-.287.739-.287.985 0l17.412 17.426c.288.288.288.74 0 .987l-17.412 17.426c-.246.288-.698.288-.985.041z" stroke="#E0E0E0" stroke-width="1.771" stroke-miterlimit="10"/><path d="M347.606 67.772a.41.41 0 100-.82.41.41 0 000 .82zm4.806 4.398a.397.397 0 01-.575 0 .398.398 0 010-.576.397.397 0 01.575 0 .396.396 0 010 .576zm4.519 4.52a.397.397 0 01-.575 0 .396.396 0 010-.575.397.397 0 01.575 0 .398.398 0 010 .576zm4.517 4.522a.397.397 0 01-.575 0 .396.396 0 010-.576.397.397 0 01.575 0 .398.398 0 010 .576zm4.229 4.644a.41.41 0 100-.822.41.41 0 000 .822zm-21.808-14.179a.397.397 0 01-.575 0 .398.398 0 010-.576.397.397 0 01.575 0 .491.491 0 010 .576zm4.23 4.643a.41.41 0 100-.821.41.41 0 000 .822zm4.518 4.522a.41.41 0 100-.822.41.41 0 000 .822zm4.516 4.52a.41.41 0 100-.821.41.41 0 000 .822zm4.519 4.521a.41.41 0 100-.821.41.41 0 000 .821zm-21.848-14.138a.397.397 0 01-.575 0 .396.396 0 010-.575.397.397 0 01.575 0c.164.123.164.411 0 .575zm4.228 4.645a.41.41 0 100-.822.41.41 0 000 .822zm4.518 4.52a.41.41 0 100-.821.41.41 0 000 .821zm4.518 4.521a.41.41 0 100-.821.41.41 0 000 .821zm4.803 4.399a.397.397 0 01-.575 0 .398.398 0 010-.576.397.397 0 01.575 0 .396.396 0 010 .575zm-22.092-14.057a.397.397 0 01-.575 0 .398.398 0 010-.575.397.397 0 01.575 0 .396.396 0 010 .575zm4.519 4.521a.398.398 0 01-.576 0 .398.398 0 010-.575.398.398 0 01.576 0 .398.398 0 010 .575zm4.23 4.644a.41.41 0 100-.822.41.41 0 000 .822zm4.803 4.398a.397.397 0 01-.575 0 .398.398 0 010-.575.397.397 0 01.575 0 .396.396 0 010 .575zm4.518 4.521a.397.397 0 01-.575 0 .398.398 0 010-.575.397.397 0 01.575 0 .396.396 0 010 .575zM331.755 83.8a.397.397 0 01-.575 0 .398.398 0 010-.574.397.397 0 01.575 0 .494.494 0 010 .575zm4.231 4.645a.41.41 0 100-.822.41.41 0 000 .822zm4.516 4.521a.41.41 0 100-.82.41.41 0 000 .82zm4.517 4.521a.41.41 0 100-.822.41.41 0 000 .822zm4.806 4.397a.396.396 0 01-.575 0 .396.396 0 010-.575.398.398 0 01.575 0c.164.165.164.452 0 .575zM327.689 87.87a.398.398 0 01-.576 0 .398.398 0 010-.576.398.398 0 01.576 0c.164.124.164.411 0 .576zm4.23 4.644a.41.41 0 100-.822.41.41 0 000 .822zm4.517 4.521a.41.41 0 100-.822.41.41 0 000 .822zm4.517 4.521a.411.411 0 100-.822.411.411 0 000 .822zm4.805 4.397a.396.396 0 01-.575 0 .398.398 0 010-.575.398.398 0 01.575 0 .396.396 0 010 .575z" fill="#B4D1FA"/><path d="M248.274 17.262l25.547 18.068 25.637-18.068 25.637 18.068M197 17.262l25.637 18.068" stroke="#E0E0E0" stroke-width="2" stroke-miterlimit="10" stroke-linecap="round" stroke-linejoin="round"/><path d="M197 1l25.637 18.069L248.274 1l25.547 18.069L299.458 1" stroke="#EBF2F9" stroke-width="2" stroke-miterlimit="10" stroke-linecap="round" stroke-linejoin="round"/><path d="M497.063 138.863c8.575 0 15.526-6.957 15.526-15.539s-6.951-15.539-15.526-15.539-15.527 6.957-15.527 15.539 6.952 15.539 15.527 15.539z" fill="#EBF2F9"/><path d="M491.466 133.262c8.575 0 15.526-6.957 15.526-15.539s-6.951-15.539-15.526-15.539c-8.576 0-15.527 6.957-15.527 15.539s6.951 15.539 15.527 15.539z" stroke="#E0E0E0" stroke-width="2" stroke-miterlimit="10" stroke-linecap="round" stroke-linejoin="round"/><g filter="url(#filter0_f)"><path d="M375.636 355.692l-89.26 36.081L481.237 495l77.764-25.908-183.365-113.4z" fill="url(#paint0_linear)"/></g><g filter="url(#filter1_d)"><path d="M244 374.471l76.637-24.781 237.236 32.103.564 87.862L480.673 495v-88.425l-160.036-21.708v52.122L244 462.333v-87.862z" fill="#F5F9FF"/></g><path d="M480.672 406.575l77.764-23.655v86.735L480.672 495v-88.425zm-160.035 30.414L244 462.333v-87.862l76.637 10.701v51.817z" fill="#E1E7F0"/><g filter="url(#filter2_f)"><path d="M466.021 378.967c0 3.738-28.509 6.769-63.676 6.769-35.166 0-63.676-3.031-63.676-6.769 0-3.737 28.51-6.749 63.676-6.749 35.167 0 63.676 3.012 63.676 6.749z" fill="#C4D1E6" fill-opacity=".3"/></g><g filter="url(#filter3_di)"><path d="M311.177 201H488.81a11.146 11.146 0 0111.142 11.147v107.486H299.224v-106.69a11.944 11.944 0 017.38-11.038 11.92 11.92 0 014.573-.905z" fill="#1B314C"/></g><g filter="url(#filter4_di)"><path d="M481.974 337.691H317.24a17.99 17.99 0 01-12.723-5.273 18.008 18.008 0 01-5.27-12.729h200.744a18.008 18.008 0 01-11.124 16.639 17.993 17.993 0 01-6.893 1.363z" fill="#71A0DD"/></g><g filter="url(#filter5_di)"><path d="M417.672 337.691h-36.424v30.327h36.424v-30.327z" fill="#0E518E"/></g><path d="M417.672 337.691h-36.424v9.61h36.424v-9.61z" fill="#0A3D76"/><g filter="url(#filter6_di)"><path d="M366.907 368.018h65.114a9.555 9.555 0 019.549 9.555v1.982h-84.213v-1.982a9.56 9.56 0 012.797-6.756 9.548 9.548 0 016.753-2.799z" fill="#71A0DD"/></g><path d="M307.022 249.488v55.607a3.183 3.183 0 003.143 3.145h88.956l-92.099-79.668v20.916z" fill="#223C49"/><path d="M487.489 209.655H310.206a3.185 3.185 0 00-3.184 3.184v92.216a3.185 3.185 0 003.184 3.185h177.283a3.184 3.184 0 003.183-3.185v-92.216a3.184 3.184 0 00-3.183-3.184z" fill="url(#paint1_linear)"/><path opacity=".3" d="M404.43 328.089a5.683 5.683 0 11-8.833-4.731 5.674 5.674 0 013.159-.954 5.666 5.666 0 014.015 1.666 5.678 5.678 0 011.659 4.019z" fill="#000"/><path d="M485.412 212.839H312.713c-.879 0-1.592.713-1.592 1.593v8.607c0 .879.713 1.592 1.592 1.592h172.699c.879 0 1.592-.713 1.592-1.592v-8.607c0-.88-.713-1.593-1.592-1.593zm-88.088 18.416h-85.137c-.883 0-1.599.766-1.599 1.711v53.905c0 .945.716 1.711 1.599 1.711h85.137c.883 0 1.599-.766 1.599-1.711v-53.905c0-.945-.716-1.711-1.599-1.711zm40.88 2.891h-32.978a.796.796 0 00-.796.796v1.592c0 .44.356.796.796.796h32.978c.44 0 .796-.356.796-.796v-1.592a.796.796 0 00-.796-.796zm21.033 7.946h-54.011a.796.796 0 00-.796.796v1.067c0 .44.356.796.796.796h54.011c.44 0 .796-.356.796-.796v-1.067a.796.796 0 00-.796-.796zm0 4.777h-54.011a.796.796 0 00-.796.796v1.067c0 .44.356.796.796.796h54.011c.44 0 .796-.356.796-.796v-1.067a.796.796 0 00-.796-.796zm0 4.777h-54.011a.796.796 0 00-.796.796v1.067c0 .44.356.796.796.796h54.011c.44 0 .796-.356.796-.796v-1.067a.796.796 0 00-.796-.796zm-65.168 45.678a1.591 1.591 0 100-3.183 1.591 1.591 0 000 3.183z" fill="#B4D1FA"/><path opacity=".5" d="M398.844 297.324a1.591 1.591 0 100-3.183 1.591 1.591 0 000 3.183zm4.774 0a1.592 1.592 0 100-3.183 1.592 1.592 0 000 3.183z" fill="#B4D1FA"/><path d="M413.13 317.1l-50.932-98.33h134.493v98.33H413.13z" fill="#D0E4FF" fill-opacity=".2"/><path d="M166.194 270.386l4.343 4.323m-19.36-19.196l8.023 7.986m5.595-7.034l30.254 30.04m-45.639-45.426l6.11 6.155" stroke="#71A0DD" stroke-width="1.655" stroke-miterlimit="10" stroke-linecap="round" stroke-linejoin="round"/><path d="M186.511 265.477L213.085 292" stroke="url(#paint2_linear)" stroke-width="1.655" stroke-miterlimit="10" stroke-linecap="round" stroke-linejoin="round"/><path d="M146.392 225.547l28.34 28.207" stroke="url(#paint3_linear)" stroke-width="1.655" stroke-miterlimit="10" stroke-linecap="round" stroke-linejoin="round"/><path d="M168.622 235.071l46.964 46.745m-66.398-66.014l9.938 9.891m48.291 35.388l11.262 11.283M138 191.99l57.491 57.295" stroke="#71A0DD" stroke-width="1.655" stroke-miterlimit="10" stroke-linecap="round" stroke-linejoin="round"/><path d="M184.154 225.4l56.166 55.976" stroke="url(#paint4_linear)" stroke-width="1.655" stroke-miterlimit="10" stroke-linecap="round" stroke-linejoin="round"/><path d="M159.274 200.709l13.103 12.968" stroke="url(#paint5_linear)" stroke-width="1.655" stroke-miterlimit="10" stroke-linecap="round" stroke-linejoin="round"/><path d="M195.049 223.642l36.291 36.194m-73.391-73.048l26.868 26.669" stroke="#71A0DD" stroke-width="1.655" stroke-miterlimit="10" stroke-linecap="round" stroke-linejoin="round"/><path d="M225.008 240.933L244 259.762" stroke="url(#paint6_linear)" stroke-width="1.655" stroke-miterlimit="10" stroke-linecap="round" stroke-linejoin="round"/><path d="M174.365 190.525l36.879 36.707" stroke="url(#paint7_linear)" stroke-width="1.655" stroke-miterlimit="10" stroke-linecap="round" stroke-linejoin="round"/><path d="M206.606 210.087l25.617 25.497M177.382 181l19.213 19.05" stroke="#71A0DD" stroke-width="1.655" stroke-miterlimit="10" stroke-linecap="round" stroke-linejoin="round"/><path d="M229.426 220.125l9.937 9.964" stroke="url(#paint8_linear)" stroke-width="1.655" stroke-miterlimit="10" stroke-linecap="round" stroke-linejoin="round"/><path d="M192.768 183.638l25.248 25.204" stroke="url(#paint9_linear)" stroke-width="1.655" stroke-miterlimit="10" stroke-linecap="round" stroke-linejoin="round"/><path d="M224.199 202.394l6.11 6.154m-16.857-16.851l4.269 4.25" stroke="#71A0DD" stroke-width="1.655" stroke-miterlimit="10" stroke-linecap="round" stroke-linejoin="round"/><path d="M5.204 151.041c-1.096 1.177-3.015 1.358-4.202.272-1.188-1.086-1.37-2.986-.274-4.162 1.096-1.177 3.014-1.358 4.202-.272 1.279 1.086 1.37 2.986.274 4.162z" fill="#F985A0"/><path d="M18.266 162.533c-1.096 1.176-3.015 1.357-4.202.271-1.188-1.085-1.37-2.986-.274-4.162 1.096-1.176 3.014-1.357 4.202-.271 1.279 1.086 1.37 2.986.274 4.162z" fill="#71A0DD"/><path d="M44.3 185.516c-1.096 1.176-3.014 1.357-4.202.271-1.187-1.085-1.37-2.985-.274-4.162 1.096-1.176 3.015-1.357 4.202-.271 1.279 1.086 1.37 2.895.274 4.162z" fill="#F985A0"/><path d="M57.363 197.008c-1.097 1.176-3.015 1.357-4.202.271-1.188-1.086-1.37-2.986-.274-4.162 1.096-1.177 3.014-1.358 4.202-.272 1.187 1.086 1.37 2.896.274 4.163z" fill="#71A0DD"/><path d="M28.77 150.86c-1.095 1.177-3.014 1.358-4.201.272-1.188-1.086-1.37-2.986-.274-4.162 1.096-1.177 3.014-1.358 4.202-.272 1.279 1.086 1.37 2.896.274 4.162zm13.064 11.492c-1.096 1.176-3.015 1.357-4.202.271-1.188-1.085-1.37-2.986-.274-4.162 1.096-1.176 3.014-1.357 4.202-.271 1.187.995 1.37 2.895.274 4.162z" fill="#F985A0"/><path d="M54.805 173.753c-1.096 1.176-3.014 1.357-4.202.271-1.187-1.085-1.37-2.985-.273-4.162 1.096-1.176 3.014-1.357 4.201-.271 1.188 1.086 1.37 2.986.274 4.162zm-15.53-34.655c-1.096 1.176-3.014 1.357-4.202.271-1.187-1.086-1.37-2.986-.274-4.162 1.096-1.177 3.015-1.358 4.202-.272 1.279 1.086 1.37 2.986.274 4.163z" fill="#71A0DD"/><path d="M52.338 150.589c-1.096 1.176-3.015 1.357-4.202.271-1.188-1.085-1.37-2.986-.274-4.162 1.096-1.176 3.014-1.357 4.202-.271 1.278 1.086 1.37 2.986.274 4.162zm12.971 11.492c-1.096 1.176-3.015 1.357-4.202.271-1.188-1.086-1.37-2.986-.274-4.162 1.096-1.177 3.014-1.358 4.202-.272 1.279 1.086 1.37 2.896.274 4.163zm13.061 11.491c-1.095 1.176-3.014 1.357-4.201.272-1.188-1.086-1.37-2.986-.274-4.163 1.096-1.176 3.014-1.357 4.202-.271 1.279 1.086 1.37 2.895.274 4.162z" fill="#F985A0"/><path d="M36.81 115.933c-1.096 1.177-3.015 1.358-4.202.272-1.188-1.086-1.37-2.986-.274-4.162 1.096-1.177 3.014-1.358 4.202-.272 1.187 1.086 1.37 2.986.274 4.162z" fill="#71A0DD"/><path d="M62.844 138.917c-1.096 1.176-3.014 1.357-4.202.271-1.187-1.086-1.37-2.986-.274-4.162 1.097-1.177 3.015-1.358 4.202-.272 1.188 1.086 1.37 2.896.274 4.163z" fill="#F985A0"/><path d="M75.815 150.318c-1.096 1.176-3.014 1.357-4.202.271-1.187-1.086-1.37-2.986-.274-4.162 1.096-1.177 3.015-1.358 4.202-.272 1.279 1.086 1.37 2.986.274 4.163z" fill="#71A0DD"/><path d="M714.9 147.103a1.08 1.08 0 011.563 0 1.08 1.08 0 010 1.563 1.079 1.079 0 01-1.563 0 1.079 1.079 0 010-1.563zm-12.168-12.113a1.079 1.079 0 011.563 0 1.08 1.08 0 010 1.563 1.079 1.079 0 01-1.563 0c-.391-.446-.391-1.172 0-1.563zM691.4 124.719a1.117 1.117 0 10-.001-2.233 1.117 1.117 0 00.001 2.233zm-12.169-12.114a1.116 1.116 0 100-2.232 1.116 1.116 0 000 2.232zm-12.115-12.169a1.117 1.117 0 100-2.233 1.117 1.117 0 000 2.233zm59.395 37.736a1.116 1.116 0 100-2.232 1.116 1.116 0 000 2.232zm-12.169-12.169a1.116 1.116 0 100-2.232 1.116 1.116 0 000 2.232zm-12.896-14.012a1.08 1.08 0 011.563 0 1.079 1.079 0 010 1.563 1.079 1.079 0 01-1.563 0 1.19 1.19 0 010-1.563zm-12.113-12.113a1.08 1.08 0 011.563 0 1.079 1.079 0 010 1.563 1.079 1.079 0 01-1.563 0c-.447-.447-.447-1.172 0-1.563zm-12.168-12.169a1.08 1.08 0 011.563 0 1.079 1.079 0 010 1.563 1.08 1.08 0 01-1.563 0 1.188 1.188 0 010-1.563zm60.177 39.578a1.117 1.117 0 10-.001-2.233 1.117 1.117 0 00.001 2.233zm-12.896-14.012a1.08 1.08 0 011.563 0 1.079 1.079 0 010 1.563 1.079 1.079 0 01-1.563 0 1.08 1.08 0 010-1.563zm-12.17-12.113a1.079 1.079 0 011.563 0 1.079 1.079 0 010 1.563 1.08 1.08 0 01-1.563 0c-.39-.447-.39-1.172 0-1.563zm-12.112-12.169a1.08 1.08 0 011.563 0 1.079 1.079 0 010 1.563 1.08 1.08 0 01-1.563 0 1.079 1.079 0 010-1.563zM688.05 76.88a1.08 1.08 0 011.563 0 1.08 1.08 0 010 1.562 1.08 1.08 0 01-1.563 0 1.079 1.079 0 010-1.563zm59.396 37.679a1.08 1.08 0 011.563 0 1.08 1.08 0 010 1.563 1.079 1.079 0 01-1.563 0 1.079 1.079 0 010-1.563zm-12.17-12.113a1.079 1.079 0 011.563 0 1.079 1.079 0 010 1.563 1.08 1.08 0 01-1.563 0 1.188 1.188 0 010-1.563zm-11.331-10.272a1.116 1.116 0 100-2.232 1.116 1.116 0 000 2.233zm-12.17-12.113a1.117 1.117 0 100-2.233 1.117 1.117 0 000 2.233zm-12.114-12.113a1.117 1.117 0 100-2.234 1.117 1.117 0 000 2.234zm59.395 37.68a1.117 1.117 0 100-2.234 1.117 1.117 0 000 2.234zm-12.17-12.17a1.116 1.116 0 100-2.231 1.116 1.116 0 000 2.231zm-12.894-14.011a1.08 1.08 0 011.563 0 1.079 1.079 0 010 1.563 1.08 1.08 0 01-1.563 0 1.08 1.08 0 010-1.563zm-12.113-12.113a1.08 1.08 0 011.563 0 1.08 1.08 0 010 1.563 1.08 1.08 0 01-1.563 0c-.447-.447-.447-1.173 0-1.563zm-12.169-12.17a1.08 1.08 0 011.563 0 1.08 1.08 0 010 1.563 1.08 1.08 0 01-1.563 0 1.188 1.188 0 010-1.563zm60.174 39.634a1.116 1.116 0 100-2.233 1.116 1.116 0 000 2.233zm-12.895-14.067a1.08 1.08 0 011.563 0 1.08 1.08 0 010 1.563 1.08 1.08 0 01-1.563 0 1.079 1.079 0 010-1.563zM744.82 68.618a1.08 1.08 0 011.563 0 1.079 1.079 0 010 1.563 1.08 1.08 0 01-1.563 0 1.188 1.188 0 010-1.563zm-11.332-10.272a1.116 1.116 0 100-2.231 1.116 1.116 0 000 2.231zm-12.895-14.011a1.08 1.08 0 011.563 0 1.08 1.08 0 010 1.563 1.08 1.08 0 01-1.563 0 1.079 1.079 0 010-1.563z" fill="#0A3D76"/><defs><linearGradient id="paint0_linear" x1="353.096" y1="356.143" x2="618.663" y2="544.662" gradientUnits="userSpaceOnUse"><stop offset=".173" stop-color="#B4D1FA" stop-opacity="0"/><stop offset="1" stop-opacity=".2"/></linearGradient><linearGradient id="paint1_linear" x1="456.962" y1="306.209" x2="255.576" y2="142.606" gradientUnits="userSpaceOnUse"><stop stop-color="#8FB1DB"/><stop offset="1" stop-color="#71A0DD"/></linearGradient><linearGradient id="paint2_linear" x1="212.266" y1="278.739" x2="187.298" y2="278.202" gradientUnits="userSpaceOnUse"><stop stop-color="#A62E41"/><stop offset="1" stop-color="#E13152"/></linearGradient><linearGradient id="paint3_linear" x1="173.858" y1="239.65" x2="147.23" y2="239.076" gradientUnits="userSpaceOnUse"><stop stop-color="#A62E41"/><stop offset="1" stop-color="#E13152"/></linearGradient><linearGradient id="paint4_linear" x1="238.588" y1="253.388" x2="185.816" y2="252.251" gradientUnits="userSpaceOnUse"><stop stop-color="#A62E41"/><stop offset="1" stop-color="#E13152"/></linearGradient><linearGradient id="paint5_linear" x1="171.973" y1="207.193" x2="159.662" y2="206.926" gradientUnits="userSpaceOnUse"><stop stop-color="#A62E41"/><stop offset="1" stop-color="#E13152"/></linearGradient><linearGradient id="paint6_linear" x1="243.415" y1="250.347" x2="225.57" y2="249.961" gradientUnits="userSpaceOnUse"><stop stop-color="#A62E41"/><stop offset="1" stop-color="#E13152"/></linearGradient><linearGradient id="paint7_linear" x1="210.107" y1="208.878" x2="175.456" y2="208.131" gradientUnits="userSpaceOnUse"><stop stop-color="#A62E41"/><stop offset="1" stop-color="#E13152"/></linearGradient><linearGradient id="paint8_linear" x1="239.057" y1="225.107" x2="229.72" y2="224.907" gradientUnits="userSpaceOnUse"><stop stop-color="#A62E41"/><stop offset="1" stop-color="#E13152"/></linearGradient><linearGradient id="paint9_linear" x1="217.238" y1="196.24" x2="193.515" y2="195.729" gradientUnits="userSpaceOnUse"><stop stop-color="#A62E41"/><stop offset="1" stop-color="#E13152"/></linearGradient><filter id="filter0_f" x="284.376" y="353.692" width="276.624" height="143.308" filterUnits="userSpaceOnUse" color-interpolation-filters="sRGB"><feFlood flood-opacity="0" result="BackgroundImageFix"/><feBlend in="SourceGraphic" in2="BackgroundImageFix" result="shape"/><feGaussianBlur stdDeviation="1" result="effect1_foregroundBlur"/></filter><filter id="filter1_d" x="240" y="347.69" width="322.436" height="153.31" filterUnits="userSpaceOnUse" color-interpolation-filters="sRGB"><feFlood flood-opacity="0" result="BackgroundImageFix"/><feColorMatrix in="SourceAlpha" values="0 0 0 0 0 0 0 0 0 0 0 0 0 0 0 0 0 0 127 0"/><feOffset dy="2"/><feGaussianBlur stdDeviation="2"/><feColorMatrix values="0 0 0 0 0 0 0 0 0 0 0 0 0 0 0 0 0 0 0.2 0"/><feBlend in2="BackgroundImageFix" result="effect1_dropShadow"/><feBlend in="SourceGraphic" in2="effect1_dropShadow" result="shape"/></filter><filter id="filter2_f" x="333.669" y="367.218" width="137.352" height="23.517" filterUnits="userSpaceOnUse" color-interpolation-filters="sRGB"><feFlood flood-opacity="0" result="BackgroundImageFix"/><feBlend in="SourceGraphic" in2="BackgroundImageFix" result="shape"/><feGaussianBlur stdDeviation="2.5" result="effect1_foregroundBlur"/></filter><filter id="filter3_di" x="297.224" y="199" width="208.728" height="126.633" filterUnits="userSpaceOnUse" color-interpolation-filters="sRGB"><feFlood flood-opacity="0" result="BackgroundImageFix"/><feColorMatrix in="SourceAlpha" values="0 0 0 0 0 0 0 0 0 0 0 0 0 0 0 0 0 0 127 0"/><feOffset dx="2" dy="2"/><feGaussianBlur stdDeviation="2"/><feColorMatrix values="0 0 0 0 0 0 0 0 0 0 0 0 0 0 0 0 0 0 0.15 0"/><feBlend in2="BackgroundImageFix" result="effect1_dropShadow"/><feBlend in="SourceGraphic" in2="effect1_dropShadow" result="shape"/><feColorMatrix in="SourceAlpha" values="0 0 0 0 0 0 0 0 0 0 0 0 0 0 0 0 0 0 127 0" result="hardAlpha"/><feOffset dx="-2" dy="-2"/><feGaussianBlur stdDeviation="2"/><feComposite in2="hardAlpha" operator="arithmetic" k2="-1" k3="1"/><feColorMatrix values="0 0 0 0 0 0 0 0 0 0 0 0 0 0 0 0 0 0 0.2 0"/><feBlend in2="shape" result="effect2_innerShadow"/></filter><filter id="filter4_di" x="297.247" y="317.689" width="208.744" height="26.002" filterUnits="userSpaceOnUse" color-interpolation-filters="sRGB"><feFlood flood-opacity="0" result="BackgroundImageFix"/><feColorMatrix in="SourceAlpha" values="0 0 0 0 0 0 0 0 0 0 0 0 0 0 0 0 0 0 127 0"/><feOffset dx="2" dy="2"/><feGaussianBlur stdDeviation="2"/><feColorMatrix values="0 0 0 0 0 0 0 0 0 0 0 0 0 0 0 0 0 0 0.15 0"/><feBlend in2="BackgroundImageFix" result="effect1_dropShadow"/><feBlend in="SourceGraphic" in2="effect1_dropShadow" result="shape"/><feColorMatrix in="SourceAlpha" values="0 0 0 0 0 0 0 0 0 0 0 0 0 0 0 0 0 0 127 0" result="hardAlpha"/><feOffset dx="-2" dy="-2"/><feGaussianBlur stdDeviation="2"/><feComposite in2="hardAlpha" operator="arithmetic" k2="-1" k3="1"/><feColorMatrix values="0 0 0 0 0 0 0 0 0 0 0 0 0 0 0 0 0 0 0.2 0"/><feBlend in2="shape" result="effect2_innerShadow"/></filter><filter id="filter5_di" x="379.248" y="335.691" width="44.424" height="38.327" filterUnits="userSpaceOnUse" color-interpolation-filters="sRGB"><feFlood flood-opacity="0" result="BackgroundImageFix"/><feColorMatrix in="SourceAlpha" values="0 0 0 0 0 0 0 0 0 0 0 0 0 0 0 0 0 0 127 0"/><feOffset dx="2" dy="2"/><feGaussianBlur stdDeviation="2"/><feColorMatrix values="0 0 0 0 0 0 0 0 0 0 0 0 0 0 0 0 0 0 0.15 0"/><feBlend in2="BackgroundImageFix" result="effect1_dropShadow"/><feBlend in="SourceGraphic" in2="effect1_dropShadow" result="shape"/><feColorMatrix in="SourceAlpha" values="0 0 0 0 0 0 0 0 0 0 0 0 0 0 0 0 0 0 127 0" result="hardAlpha"/><feOffset dx="-2" dy="-2"/><feGaussianBlur stdDeviation="2"/><feComposite in2="hardAlpha" operator="arithmetic" k2="-1" k3="1"/><feColorMatrix values="0 0 0 0 0 0 0 0 0 0 0 0 0 0 0 0 0 0 0.2 0"/><feBlend in2="shape" result="effect2_innerShadow"/></filter><filter id="filter6_di" x="355.357" y="366.018" width="92.213" height="19.537" filterUnits="userSpaceOnUse" color-interpolation-filters="sRGB"><feFlood flood-opacity="0" result="BackgroundImageFix"/><feColorMatrix in="SourceAlpha" values="0 0 0 0 0 0 0 0 0 0 0 0 0 0 0 0 0 0 127 0"/><feOffset dx="2" dy="2"/><feGaussianBlur stdDeviation="2"/><feColorMatrix values="0 0 0 0 0 0 0 0 0 0 0 0 0 0 0 0 0 0 0.15 0"/><feBlend in2="BackgroundImageFix" result="effect1_dropShadow"/><feBlend in="SourceGraphic" in2="effect1_dropShadow" result="shape"/><feColorMatrix in="SourceAlpha" values="0 0 0 0 0 0 0 0 0 0 0 0 0 0 0 0 0 0 127 0" result="hardAlpha"/><feOffset dx="-2" dy="-2"/><feGaussianBlur stdDeviation="2"/><feComposite in2="hardAlpha" operator="arithmetic" k2="-1" k3="1"/><feColorMatrix values="0 0 0 0 0 0 0 0 0 0 0 0 0 0 0 0 0 0 0.2 0"/><feBlend in2="shape" result="effect2_innerShadow"/></filter></defs></svg>