<svg width="257" height="240" fill="none" xmlns="http://www.w3.org/2000/svg"><g clip-path="url(#clip0)"><g clip-path="url(#clip1)"><path d="M187.5 221v1.5l-55.5 8v-2l55.5-7.5zm-55.5 8v1.5c-43.5-6-31.982-7.639-19.5-62l4-.86C103.946 221.416 89.815 215.3 132 229z" fill="#40689D"/><path d="M107.669 195.971c2.316-7.539 5.24-17.057 8.096-29.178l42.298-2.685c-1.647 10.36-3.663 18.213-5.232 24.324-.191.745-.376 1.465-.552 2.16-.815 3.206-1.457 5.894-1.78 8.193-.322 2.3-.325 4.221.144 5.892.942 3.351 3.772 5.659 9.598 8.024 5.759 2.338 14.476 4.746 27.269 8.268l-55.01 7.93c-10.871-1.483-18.133-2.755-22.721-4.666-2.293-.955-3.909-2.066-4.975-3.435-1.064-1.367-1.585-2.999-1.671-5.011-.087-2.015.262-4.406.937-7.285.674-2.878 1.672-6.238 2.88-10.187l.719-2.344z" fill="#B4D1FA" stroke="#000" stroke-width=".2"/><g filter="url(#filter0_f)"><path d="M103.5 215c-2.5 0 8.5-33 12.5-48l42.5-2c-6.001 25.5-10 35.5-6.5 43-10 3-40.852 7-48.5 7z" fill="#2F527F" fill-opacity=".3"/></g></g><path d="M248.237 173.592l-11.643-6.349a4.08 4.08 0 001.123-.332l11.644 6.348a4.054 4.054 0 01-1.124.333z" fill="#40689D"/><path d="M249.359 173.26l-11.643-6.349c.216-.098.421-.218.613-.358l11.643 6.349-.613.358zm.613-.359l-11.643-6.349c.178-.105.342-.234.485-.384l11.644 6.349a3.219 3.219 0 01-.486.384z" fill="#40689D"/><path d="M250.457 172.518l-11.644-6.349.409-.409 11.643 6.323-.408.435zm.409-.435l-11.643-6.323a.49.49 0 000-.179c.081-.074.15-.16.204-.256l11.643 6.349-.204.256c.01.05.01.103 0 .153z" fill="#40689D"/><path d="M250.776 172.65l-11.22-7.325c.119-.173.23-.353.332-.538l12.111 5.713c-.101.185-.68 1.977-.8 2.15" fill="#40689D"/><path d="M251.53 171.135l-11.515-6.348c0-.231.229-.461.332-.692l11.617 6.349c-.08.24-.183.471-.306.691" fill="#40689D"/><path d="M251.837 170.444l-11.617-6.349c.206-.583.31-1.198.306-1.817l11.643 6.349a4.848 4.848 0 01-.332 1.817zm.334-1.818l-11.644-6.349.026-4.429 11.643 6.349-.025 4.429zM58.09 200.344l-11.617-6.349 190.122-26.752 11.643 6.349L58.09 200.344zm-1.2 4.711l-11.642-6.349a2.174 2.174 0 01-1.047-1.945 2.564 2.564 0 01.178-.973l11.618 6.451c-.11.313-.17.641-.178.973a2.179 2.179 0 001.072 1.946" fill="#40689D"/><path d="M55.997 202.239l-11.618-6.349c.04-.132.089-.366.151-.489l11.645 6.351c-.07.123-.13.251-.178.384" fill="#40689D"/><path d="M56.176 201.752l-11.643-6.349.179-.307 11.643 6.349-.178.307z" fill="#40689D"/><path d="M56.355 201.445l-11.643-6.348.204-.256 11.643 6.348-.204.256z" fill="#40689D"/><path d="M56.56 201.19l-11.643-6.349.23-.231 11.643 6.349-.23.231z" fill="#40689D"/><path d="M56.79 200.958l-11.71-6.287.347-.27 11.644 6.301-.281.205" fill="#40689D"/><path d="M57.07 200.754l-11.643-6.349.357-.204 11.644 6.348-.358.205z" fill="#40689D"/><path d="M57.428 200.549L45.784 194.2a1.96 1.96 0 01.69-.204l11.643 6.348c-.24.026-.474.095-.69.205zM42 203.001l-11.36-6.777a1.9 1.9 0 01.767 0l11.853 6.467c-.253-.052-1.007.258-1.26.31z" fill="#40689D"/><path d="M43.051 202.599l-11.643-6.349c.125.035.246.087.358.153l11.643 6.349a1.5 1.5 0 00-.358-.153z" fill="#40689D"/><path d="M43.406 202.751l-11.643-6.348 11.643 6.374M20 206l-11.447-6.679 22.086-3.098L42.5 203 20 206zm-1.844-.663l-11.643-6.349h.127l11.644 6.349" fill="#40689D"/><path d="M18.284 205.387L6.64 199.038c.195.099.4.176.612.231l11.644 6.348a2.536 2.536 0 01-.613-.23z" fill="#40689D"/><path d="M18.895 205.619L7.252 199.27c.43.091.873.091 1.302 0l11.618 6.4a3.02 3.02 0 01-1.277 0m-3.217 4.249l-11.643-6.451a8.007 8.007 0 01-1.481-1.229A8.605 8.605 0 010 196.018l11.643 6.349a8.624 8.624 0 002.553 6.221 8.01 8.01 0 001.507 1.126" fill="#40689D"/><path d="M11.719 202.47L.075 196.121l.077-9.318 11.618 6.348-.051 9.319z" fill="#40689D"/><path d="M11.772 193.151L.154 186.802l244.943-34.534 11.643 6.374-244.968 34.509z" fill="#7F94B1"/><path d="M254.111 174.936l-.002.002a9.672 9.672 0 01-5.632 3.496l-.004.001L58.078 205.16s0 0 0 0a1.906 1.906 0 01-1.564-.508 1.925 1.925 0 01-.596-1.536h0v-.006a2.75 2.75 0 01.634-1.731 2.73 2.73 0 011.58-.936l.003-.001 190.117-26.751h.002a4.414 4.414 0 002.821-1.702 5.404 5.404 0 001.196-3.363v0-4.544l-.114.016-235.879 33.28-.086.012v4.462a4.127 4.127 0 001.152 3.016l.001.001a3.284 3.284 0 002.843.924h.001l22.11-3.097s0 0 0 0a1.89 1.89 0 012.134 2.018h0v.008a2.748 2.748 0 01-.617 1.739c-.4.49-.955.826-1.573.952l-22.083 3.072h-.002a6.922 6.922 0 01-5.915-1.867 8.502 8.502 0 01-2.523-6.148h0v-9.233l244.921-34.404v9.229a11.003 11.003 0 01-2.53 6.874z" fill="#B4D1FA" stroke="#000" stroke-width=".2"/><path d="M251.992 155.802l-11.643-6.349.255-140.186 11.643 6.35-.255 140.185zm.255-140.186l-11.643-6.349a4.245 4.245 0 00-2.12-3.84l11.746 6.349a4.25 4.25 0 012.119 3.84" fill="#862F40"/><path d="M247.674 6.425L236 .08c1.053-.124 2.177-.117 3.196.176l11.644 6.348a7.997 7.997 0 00-3.166-.179zm3.167.179L239.197.255c.499.128.986.3 1.456.512l11.643 6.349a8.908 8.908 0 00-1.455-.512z" fill="#9A384B"/><path d="M252.297 7.116L240.653.768l.281.153 11.618 6.349-.255-.154zm-118.221 165.3l-11.643-6.349 117.913-16.615 11.644 6.349-117.914 16.615z" fill="#9A384B"/><path d="M16.188 189.031l-11.643-6.349 117.888-16.615 11.643 6.349-117.888 16.615zM14.5 43.5L9.396 32.026 236.057.077l11.644 6.349L14.5 43.5z" fill="#9A384B"/><path d="M11.81 193.18L.15 186.8.255 43.135c5.058 1.371 7.51 2.94 11.643 6.349l-.09 143.696z" fill="#9A384B"/><mask id="a" fill="#fff"><path d="M247.676 6.425a7.997 7.997 0 016.562 2.112 8.046 8.046 0 012.503 6.438v143.89l-122.663 18.491L11.622 193.33 11.9 49.433c.022-2.614.944-5.14 2.61-7.15a11.306 11.306 0 016.531-3.884L247.676 6.425zM251.94 155.8l.307-140.186a4.052 4.052 0 00-2.804-4.122 4.024 4.024 0 00-1.767-.153l-226.66 31.95a5.665 5.665 0 00-3.275 1.959 5.692 5.692 0 00-1.296 3.596l-.255 140.185 117.888-16.614 117.888-16.614"/></mask><path d="M247.676 6.425a7.997 7.997 0 016.562 2.112 8.046 8.046 0 012.503 6.438v143.89l-122.663 18.491L11.622 193.33 11.9 49.433c.022-2.614.944-5.14 2.61-7.15a11.306 11.306 0 016.531-3.884L247.676 6.425zM251.94 155.8l.307-140.186a4.052 4.052 0 00-2.804-4.122 4.024 4.024 0 00-1.767-.153l-226.66 31.95a5.665 5.665 0 00-3.275 1.959 5.692 5.692 0 00-1.296 3.596l-.255 140.185 117.888-16.614 117.888-16.614" fill="#E87891"/><path d="M247.676 6.425l-.026-.199h-.002l.028.199zm9.065 8.55l-.2-.014v.014h.2zm0 143.89l.029.198.171-.025v-.173h-.2zm-122.663 18.491l.026.198.004-.001-.03-.197zM11.622 193.33h-.2v.228l.226-.03-.026-.198zM11.9 49.433l-.2-.002v.001h.2zm9.141-11.034l-.028-.198-.01.002.038.196zm231.206-22.784l-.2-.013v.012l.2.001zm-4.571-4.275l-.027-.198h-.001l.028.198zM21.016 43.289l-.028-.199-.011.002.038.197zm-4.571 5.555h-.2.2zm-.255 140.185h-.2v.231l.228-.033-.028-.198zm117.888-16.614l-.028-.198.028.198zM247.703 6.623a7.799 7.799 0 013.431.305l.122-.38a8.193 8.193 0 00-3.606-.322l.053.397zm3.431.305a7.813 7.813 0 012.967 1.754l.274-.29a8.21 8.21 0 00-3.119-1.845l-.122.381zm2.967 1.754a7.833 7.833 0 011.927 2.863l.373-.145a8.244 8.244 0 00-2.026-3.009l-.274.291zm1.927 2.863a7.851 7.851 0 01.513 3.415l.399.03a8.248 8.248 0 00-.539-3.59l-.373.145zm.513 3.43v143.89h.4V14.975h-.4zm.17 143.693l-122.663 18.49.06.395 122.662-18.49-.059-.395zm-122.659 18.489L11.596 193.132l.052.396 122.456-15.974-.052-.397zM11.822 193.33L12.1 49.433h-.4l-.278 143.897h.4zM12.1 49.434a11.158 11.158 0 012.564-7.023l-.308-.256a11.558 11.558 0 00-2.656 7.276l.4.003zm2.564-7.023a11.106 11.106 0 016.415-3.816l-.076-.392a11.506 11.506 0 00-6.647 3.952l.308.255zm6.405-3.814L247.704 6.623l-.056-.396L21.013 38.2l.056.396zM252.14 155.801l.307-140.186h-.4L251.74 155.8l.4.001zm.306-140.173a4.25 4.25 0 00-.288-1.843l-.372.147c.21.53.299 1.1.261 1.67l.399.026zm-.288-1.843a4.245 4.245 0 00-1.048-1.541l-.273.292c.416.389.74.866.949 1.396l.372-.147zm-1.048-1.541a4.229 4.229 0 00-1.607-.942l-.121.381a3.835 3.835 0 011.455.853l.273-.292zm-1.607-.942a4.222 4.222 0 00-1.854-.16l.054.396a3.825 3.825 0 011.679.145l.121-.381zm-1.855-.16L20.988 43.09l.055.397 226.661-31.95-.056-.395zM20.977 43.092a5.866 5.866 0 00-3.39 2.029l.308.254a5.465 5.465 0 013.16-1.89l-.078-.393zm-3.39 2.029a5.892 5.892 0 00-1.342 3.722l.4.001a5.492 5.492 0 011.25-3.47l-.309-.253zm-1.342 3.722L15.99 189.03l.4.001.255-140.186h-.4zm-.027 140.384l117.888-16.614-.056-.396-117.888 16.614.056.396zm117.888-16.614l117.888-16.614-.056-.396-117.888 16.614.056.396z" fill="#000" mask="url(#a)"/><path d="M11.898 49.484L.28 43.136c-.003-1.32.23-2.63.69-3.866l11.643 6.349a11.032 11.032 0 00-.715 3.865z" fill="#9A384B"/><path d="M12.612 45.62L.969 39.27a8.305 8.305 0 01.69-1.535L13.3 44.084a8.303 8.303 0 00-.689 1.535zm.688-1.538L1.657 37.733c.223-.415.47-.817.74-1.203l11.644 6.35c-.28.379-.527.781-.74 1.202zm.743-1.202L2.399 36.531c.244-.363.518-.705.817-1.024l11.644 6.35c-.3.317-.573.66-.817 1.023z" fill="#9A384B"/><path d="M14.861 41.856L3.218 35.507c.28-.34.587-.657.919-.947l11.643 6.4a8.06 8.06 0 00-.919.947" fill="#9A384B"/><path d="M15.779 40.96l-11.643-6.4c.348-.312.715-.602 1.098-.87l11.643 6.349c-.383.267-.75.558-1.098.87m1.097-.872L5.232 33.688a12.56 12.56 0 011.481-.87l11.644 6.349a12.45 12.45 0 00-1.481.87z" fill="#9A384B"/><path d="M18.357 39.167L6.714 32.82a9.556 9.556 0 012.68-.794L21.039 38.4a9.554 9.554 0 00-2.553.793" fill="#9A384B"/></g><defs><clipPath id="clip0"><path fill="#fff" d="M0 0h256.765v240H0z"/></clipPath><clipPath id="clip1"><path fill="#fff" transform="translate(101 164)" d="M0 0h95v68H0z"/></clipPath><filter id="filter0_f" x="99.135" y="161" width="63.365" height="58" filterUnits="userSpaceOnUse" color-interpolation-filters="sRGB"><feFlood flood-opacity="0" result="BackgroundImageFix"/><feBlend in="SourceGraphic" in2="BackgroundImageFix" result="shape"/><feGaussianBlur stdDeviation="2" result="effect1_foregroundBlur"/></filter></defs></svg>