<svg width="261" height="200" fill="none" xmlns="http://www.w3.org/2000/svg"><path d="M98.38 200L.59 162.422.558 41.949l97.855 37.61L98.38 200z" fill="#053866"/><path d="M196.433 162.123l-97.888-37.744.098-120.174 97.987 37.611-.197 120.307z" fill="#102E5B"/><path d="M98.379 200l98.249-38.011V41.816L98.412 79.56 98.379 200z" fill="#054270"/><path d="M.59 162.423l97.987-38.311.065-119.907L.558 41.95.59 162.423z" fill="#0A2D49"/><path d="M98.38 200L.59 162.389.558 41.949l97.855 37.61L98.38 200z" fill="#053866"/><path d="M25.013 81.662L.59 72.217.558 41.95l24.455 9.644v30.069z" fill="#053866"/><path d="M7.082 71.016A15.91 15.91 0 01.59 69.815l-.066-3.237c5.016 1.935 9.835 1.568 13.507-1.002 4.425-3.103 7.212-8.176 7.212-15.618l2.95 1.202c0 8.41-2.458 13.182-7.67 16.853a17.161 17.161 0 01-9.442 3.003z" fill="#B9D5FD"/><path d="M49.438 91.106L25.015 81.66V51.593l24.422 9.444v30.069z" fill="#0E2951"/><path d="M73.856 100.551l-24.422-9.445V61.038l24.422 9.445v30.068z" fill="#709FDC"/><path d="M98.28 109.861l-24.423-9.31V70.482l24.554 9.077-.13 30.302z" fill="#6780B3"/><path d="M25.013 111.731L.59 102.286V72.218l24.423 9.444v30.069z" fill="#B9D5FD"/><path d="M49.438 121.174l-24.423-9.445V81.661l24.422 9.445v30.068z" fill="#274684"/><path d="M73.856 130.619l-24.422-9.444V91.106l24.422 9.445v30.068z" fill="#3D95D1"/><path d="M98.28 139.93l-24.423-9.311V100.55l24.423 9.311v30.069zm-48.842 11.314L25.015 141.8v-30.069l24.422 9.445v30.068z" fill="#B9D5FD"/><path d="M73.856 160.688l-24.422-9.444v-30.069l24.422 9.445v30.068z" fill="#0E2951"/><path d="M98.28 169.999l-24.423-9.311v-30.069l24.423 9.311v30.069z" fill="#709FDC"/><path d="M25.013 171.867L.59 162.39v-30.069l24.423 9.478v30.068z" fill="#6780B3"/><path d="M49.438 181.312l-24.423-9.444v-30.069l24.422 9.445v30.068z" fill="#053866"/><path d="M73.856 190.756l-24.422-9.444v-30.069l24.422 9.445v30.068z" fill="#B9D5FD"/><path d="M98.379 200l-24.522-9.244v-30.069l24.423 9.311.1 30.002zM5.573 64.775a12.35 12.35 0 01-4.983-.967v-3.605c3.508 1.369 7.835.901 9.998-.567 3.607-2.436 5.377-6.207 5.377-11.447l2.95 1.202c0 6.44-2.262 10.379-6.294 13.215a12.3 12.3 0 01-7.048 2.17z" fill="#3D95D1"/><path d="M3.835 57.834A7.695 7.695 0 01.59 57.2v-3.604c2.098.8 5.31.6 7.08-1.201 1.87-1.903 2.361-3.438 2.361-6.608l2.95 1.201c0 4.405-1.475 7.376-4.294 9.311a8.318 8.318 0 01-4.852 1.535z" fill="#3376B3"/><path d="M2.196 50.893a3.128 3.128 0 01-1.606-.3v-3.605c.524.2 2.262.334 2.95 0 1.18-.6 1.18-1.802.59-3.604l3.54 1.202c0 2.503-.884 4.238-2.523 5.406-.877.586-1.902.9-2.95.901z" fill="#709FDC"/><path d="M97.658 165.793l-20.685-7.975v-51.961l21.079 7.842v4.205l-17.539-6.841v44.252l16.949 6.507.196 3.971z" fill="#274684"/><path d="M98.052 166.628l-21.08-8.81V131.32l3.541 1.202v22.793l17.539 7.108v4.205z" fill="#0E2951"/><path d="M97.658 157.984l-14.817-5.74v-37.511l15.21 5.607v4.205l-11.67-4.605v30.435l11.67 4.238-.393 3.371z" fill="#274684"/><path d="M97.659 150.776l-8.458-3.271v-21.892l8.851 3.137v4.205l-5.31-2.136v14.183l5.31 2.37-.393 3.404z" fill="#274684"/><path d="M98.052 150.977l-8.85-3.471v-11.48l3.54 1.202v7.775l5.31 1.769v4.205z" fill="#0E2951"/><path d="M98.052 158.819l-15.211-5.974V133.59l3.54 1.201v15.585l11.67 4.238v4.205z" fill="#0E2951"/><path d="M19.145 169.598L.59 162.389v-22.826l18.555 7.175v22.86z" fill="#053866"/><path d="M12.818 167.129L.59 162.39v-15.018l12.228 4.739v15.018z" fill="#709FDC"/><path d="M73.76 81.495l-8.852 15.451-15.375-16.853 8.884-15.451L73.76 81.495z" fill="#0E2951"/><path d="M67.829 81.161l-4.524 7.876-7.835-8.576 4.524-7.91 7.835 8.61z" fill="#6780B3"/><path d="M73.856 190.755l-24.422-9.444V157.25l24.422 9.444v24.061z" fill="#3D95D1"/><path d="M73.856 190.756l-24.422-9.444v-17.454l24.422 9.444v17.454z" fill="#6780B3"/><path d="M73.856 190.755l-24.422-9.444v-10.846l24.422 9.478v10.812z" fill="#053866"/><path d="M73.856 190.755l-24.422-9.444v-5.406l24.422 9.444v5.406zM25.015 88.837l24.422 9.444-24.422 7.442 24.422 9.444-24.422-26.33z" fill="#0E2951"/><path d="M3.54 103.488l-2.95-1.202V72.218l2.95 1.201v30.069zm4.723 1.802l-2.95-1.202V74.02l2.95 1.201v30.069zm15.375 6.006l-2.95-1.201V80.026l2.95 1.202v30.068zm-5.149-2.203l-3.54-1.201V77.857l3.54 1.201v30.035zm-5.507-2.001l-2.95-1.202V75.822l2.95 1.201v30.069z" fill="#709FDC"/><path d="M25.013 141.799L.59 132.321v-30.035l24.423 9.444v30.069z" fill="#0E2951"/><path d="M25.013 141.798l-12.195-4.739v-15.018l12.195 4.706v15.051zm-12.195-19.755L.59 117.304v-15.018l12.228 4.706v15.051z" fill="#3D95D1"/><path d="M39.733 165.827l-5.016-1.936v-5.94l8.786 3.404v10.412l-12.556-4.872v-14.884l16.293 6.307v19.456l-20.03-7.776v-24.662l20.03 7.742" stroke="#3D95D1" stroke-width="3" stroke-miterlimit="10"/><path d="M78.253 188.853l16.62-16.419m.001 22.827l-16.621-29.268" stroke="#0E2951" stroke-width="6" stroke-miterlimit="10"/><path d="M58.221 135.391l-3.9-1.502v-4.805l3.9 1.501v4.806zm5.377 8.711l-3.9-1.535v-4.806l3.9 1.502v4.839zm5.376 8.677l-3.9-1.502v-4.806l3.9 1.502v4.806z" fill="#B9D5FD"/><path d="M98.412 79.56l98.216-37.744.032 120.306L98.379 200l.033-120.44z" fill="#053866"/><path d="M172.042 111.463l24.62-9.478v30.068l-24.62 9.445v-30.035z" fill="#B9D5FD"/><path d="M147.453 120.907l24.587-9.444v30.035l-24.587 9.478v-30.069z" fill="#274684"/><path d="M122.869 130.352l24.587-9.444v30.068l-24.587 9.445v-30.069z" fill="#053866"/><path d="M98.282 139.93l24.587-9.578v30.068l-24.587 9.578V139.93zm49.171-49.09l24.587-9.445v30.068l-24.587 9.445V90.839z" fill="#B9D5FD"/><path d="M122.869 100.284l24.587-9.444v30.068l-24.587 9.445v-30.069z" fill="#0E2951"/><path d="M98.282 109.861l24.587-9.578v30.068l-24.587 9.578v-30.068z" fill="#709FDC"/><path d="M147.453 150.977l24.587-9.478v30.068l-24.587 9.478v-30.068z" fill="#0E2951"/><path d="M122.869 160.42l24.587-9.444v30.068l-24.587 9.445V160.42z" fill="#709FDC"/><path d="M98.282 169.998l24.587-9.578v30.069L98.381 200l-.099-30.002zm73.76-118.671l24.587-9.511.033 30.101-24.62 9.478V51.327z" fill="#6780B3"/><path d="M147.453 60.77l24.587-9.444v30.068l-24.587 9.444V60.77z" fill="#053866"/><path d="M122.869 70.215l24.587-9.444v30.068l-24.587 9.445V70.215z" fill="#B9D5FD"/><path d="M98.413 79.56l24.456-9.345v30.068l-24.587 9.578.131-30.302z" fill="#3D95D1"/><path d="M98.052 166.628v-4.204l18.128-7.376v-44.251l-17.276 6.641-1.246-3.371 22.063-8.476v51.96l-21.67 9.077z" fill="#274684"/><path d="M119.723 132.255l-3.541 1.201v-22.659l-18.128 7.108V113.7l21.669-8.109v26.664z" fill="#0E2951"/><path d="M98.054 158.819v-4.205l12.227-5.106v-29.835l-12.227 4.872v-4.204l15.768-4.673v36.343l-15.768 6.808z" fill="#274684"/><path d="M98.052 150.977v-4.205l5.835-2.036v-14.183l-4.983 1.935-1.246-3.37 9.769-3.771v21.892l-9.375 3.738z" fill="#274684"/><path d="M107.429 136.36l-3.54 1.201v-7.008l-5.835 2.403v-4.205l9.375-3.404v11.013z" fill="#0E2951"/><path d="M113.822 134.524l-3.541 1.201v-16.052l-12.227 4.873v-4.205l15.768-5.874v20.057z" fill="#0E2951"/><path d="M184.368 46.588l12.261-4.772.033 15.084-12.294 4.705V46.588z" fill="#FF8098"/><path d="M122.966 179.409l8.949-22.326 15.441 4.972-8.917 22.326-15.473-4.972z" fill="#0E2951"/><path d="M128.967 175.171l4.524-11.413 7.9 2.536-4.556 11.413-7.868-2.536z" fill="#6780B3"/><path d="M122.869 70.215l24.587-9.444v24.061l-24.587 9.445V70.215z" fill="#3D95D1"/><path d="M122.869 70.215l24.587-9.444v17.454l-24.587 9.444V70.215z" fill="#6780B3"/><path d="M122.869 70.215l24.587-9.444v10.812l-24.587 9.478V70.215z" fill="#053866"/><path d="M122.869 70.215l24.587-9.444v5.406l-24.587 9.478v-5.44zm49.171 64.108l-24.587 9.445 24.587-26.298-24.587 9.445" fill="#0E2951"/><path d="M196.694 132.355l-3.541 1.201v-30.669l3.541-1.202v30.67zm-4.654 1.568l-3.541 1.202v-30.069l3.541-1.201v30.068zm-14.752 5.673l-3.573 1.201-.066-30.102 3.541-1.201.098 30.102zm4.914-1.902l-3.573 1.202v-30.069l3.573-1.201v30.068zm4.919-1.869l-3.573 1.202v-30.069l3.573-1.201v30.068z" fill="#709FDC"/><path d="M172.042 81.395l24.62-9.477v30.068l-24.62 9.478V81.395z" fill="#0E2951"/><path d="M172.042 141.497l24.62-9.444v30.068l-24.62 9.445v-30.069z" fill="#053866"/><path d="M172.042 81.395l12.326-4.74v15.018l-12.326 4.74V81.394z" fill="#3D95D1"/><path d="M175.418 170.232l-2.95 1.201c0-20.457 11.113-32.838 24.226-37.878v3.004c-11.834 4.539-21.276 19.856-21.276 33.673z" fill="#B9D5FD"/><path d="M181.945 167.83l-3.541 1.201c0-14.417 8.458-25.797 18.326-29.601v3.604c-8.622 3.304-14.785 14.217-14.785 24.796z" fill="#3D95D1"/><path d="M188.204 165.427l-3.311 1.201c0-9.01 5.015-17.687 11.736-20.29l.065 3.437c-5.245 2.036-8.49 9.144-8.49 15.652z" fill="#3376B3"/><path d="M193.745 163.024l-2.95 1.201c-.59-4.806 2.163-9.578 5.835-10.98l.066 3.772c-2.328.867-2.951 3.103-2.951 6.007z" fill="#709FDC"/><path d="M157.354 68.814l4.819-1.87v5.707l-8.458 3.271v-9.978l12.097-4.672v14.283l-15.736 6.074V62.94l19.375-7.442v23.694l-19.375 7.476" stroke="#3D95D1" stroke-width="5" stroke-miterlimit="10"/><path d="M118.442 75.522l-16.719 29.301m0-22.861l16.719 16.42" stroke="#0E2951" stroke-width="6" stroke-miterlimit="10"/><path d="M138.604 113.465l3.934-1.502v4.806l-3.934 1.535v-4.839zm-5.409-4.504l3.934-1.535v4.805l-3.934 1.535v-4.805zm-5.409-4.539l3.934-1.535v4.839l-3.934 1.502v-4.806z" fill="#B9D5FD"/><path d="M177.975 49.057l18.653-7.241.033 22.893-18.686 7.175V49.057z" fill="#053866"/><path d="M182.992 47.088l13.638-5.272.032 16.72-13.67 5.272v-16.72z" fill="#709FDC"/><path d="M184.368 91.674l12.294-4.705v15.017l-12.294 4.739v-15.05z" fill="#3D95D1"/><path d="M156.535 56.6l40.093-14.784-97.987-37.61L59.663 19.29l96.872 37.31z" fill="#0D3760"/><path d="M148.668 60.303L97.987 79.692 0 42.148l50.747-19.456 97.921 37.61z" fill="#0D3659"/><path d="M151.814 0L98.575 4.272.59 41.849l53.107-4.138L151.814 0z" fill="#043D60"/><path d="M196.693 41.849L160.01 5.139 61.794 42.85 98.64 79.726l98.052-37.877z" fill="#03446B"/><path d="M97.87 125.196V80.115l98.857-38.222H261l-9.886 22.842L261 87.576h-64.273l-98.858 37.62z" fill="#B4D1FA"/><path d="M126.66 86.648c1.665-.647 2.634-2.338 2.634-4.264 0-1.44-.805-2.441-1.774-2.262.832-.558 1.596-1.863 1.596-3.375 0-1.8-.968-2.683-2.551-2.067l-4.053 1.577v12.006l4.148-1.615zm-.286-6.692l-2.729 1.062v-3.87l2.729-1.062c1.023-.398 1.569.253 1.569 1.333 0 1.098-.546 2.139-1.569 2.537zm.054 5.45l-2.783 1.084v-4.14l2.783-1.083c1.119-.436 1.692.313 1.692 1.411 0 1.278-.627 2.315-1.692 2.729zm6.44-1.173l5.308-11.642v9.576l1.132-.44V69.72l-1.16.45-5.24 11.418V72.21l-1.132.44v12.007l1.092-.425zm8.623-1.142l1.133-.44v-2.215l6.782-2.639v2.214l1.132-.44v-3.547l-.832.324V65.674l-5.567 2.167-.56 6.248c-.382 4.216-.996 5.067-2.088 5.582v3.42zm3.207-9.33l.45-4.981 3.425-1.333v9.342l-5.267 2.05c.669-.927 1.16-2.45 1.392-5.078zm13.927.448v-1.332l-4.83 1.88v-4.14l4.735-1.843v-1.332l-4.735 1.843v-3.87l4.83-1.88v-1.332l-5.963 2.32V76.53l5.963-2.32zm6.636-2.366c2.689-1.046 4.517-4.422 4.517-7.968 0-3.546-1.828-5.498-4.517-4.452-2.701 1.051-4.516 4.421-4.516 7.968 0 3.545 1.815 5.503 4.516 4.452zm0-1.332c-2.046.796-3.343-.787-3.343-3.577 0-2.808 1.297-5.383 3.343-6.18 2.034-.79 3.344.77 3.344 3.578 0 2.79-1.31 5.388-3.344 6.179zm9.588-6.377v-1.188l-3.275 1.274v1.188l3.275-1.274zm-58.575 48.556v-12.006l-1.624.632-2.838 10.141-2.825-7.937-1.623.632v12.006l1.132-.441v-9.882l3.084 8.682.464-.181 3.097-11.087v9.882l1.133-.441zm10.597-4.123L123.2 97.989l-1.405.547-3.657 13.429 1.296-.505.805-2.977 4.53-1.763.806 2.351 1.296-.504zm-2.443-3.046l-3.861 1.503 1.937-7.216 1.924 5.713zm5.448 1.876v-4.77l2.524-.982c1.801-.701 2.852-2.766 2.852-4.728 0-1.962-1.024-3.22-2.852-2.508l-3.657 1.423v12.006l1.133-.441zm2.387-7.031l-2.387.929v-4.572l2.387-.929c1.078-.42 1.815.23 1.815 1.58s-.737 2.573-1.815 2.992zm12.075 1.403l-4.12-4.696 3.793-7.182-1.419.552-4.026 7.776v-6.21l-1.132.44v12.007l1.132-.441v-4.032l.915-1.724 3.452 4.057 1.405-.547zm7.936-3.088v-1.332l-4.83 1.88v-4.14l4.735-1.843v-1.332l-4.735 1.843v-3.87l4.83-1.88v-1.332l-5.963 2.32v12.006l5.963-2.32zm5.872-2.285V85.722l2.893-1.126v-1.332l-6.904 2.687v1.332l2.879-1.12v10.673l1.132-.44zm6.172-2.402l5.308-11.642v9.576l1.133-.44V79.48l-1.16.452-5.24 11.417v-9.378l-1.132.44V94.42l1.091-.425zm16.839-6.553V75.435l-1.133.441v5.166l-5.321 2.07v-5.165l-1.133.44v12.007l1.133-.441v-5.508l5.321-2.071v5.508l1.133-.44zm3.942-1.534V75.233l4.83-1.88v-1.332l-5.963 2.32v12.007l1.133-.44z" fill="#000"/><path d="M261 41.8h-64.272v45.781H261l-9.739-22.89L261 41.8z" fill="#000" fill-opacity=".05"/><path d="M235.19 74.277v-5.564l5.056-2.384V76.66l-5.056-2.384z" fill="#A62E41"/><ellipse cx="226.247" cy="56.791" rx="6.611" ry="6.756" fill="#A62E41"/><path fill-rule="evenodd" clip-rule="evenodd" d="M220.613 56.711c0-3.288 2.604-5.925 5.783-5.925a5.7 5.7 0 014.252 1.91.751.751 0 001.116-1.003 7.205 7.205 0 00-5.368-2.407c-3.672 0-6.688 2.762-7.205 6.335a5.276 5.276 0 00-4.273-2.19c-2.954 0-5.321 2.443-5.321 5.422a5.46 5.46 0 001.742 4.012h-2.146a2.75 2.75 0 00-2.75 2.75v7.437a.75.75 0 001.5 0v-7.437c0-.69.56-1.25 1.25-1.25h23.539c.69 0 1.25.56 1.25 1.25v11.666c0 .69-.56 1.25-1.25 1.25h-23.539c-.69 0-1.25-.56-1.25-1.25v-1.628a.75.75 0 10-1.5 0v1.628a2.75 2.75 0 002.75 2.75h23.539a2.75 2.75 0 002.75-2.75v-2.144l3.657 1.854a1.75 1.75 0 002.541-1.561v-8.021a1.75 1.75 0 00-2.541-1.561l-3.657 1.853v-2.086a2.75 2.75 0 00-2.75-2.75h-2.259a7.464 7.464 0 003.205-6.154.75.75 0 00-1.5 0c0 3.288-2.604 5.926-5.782 5.926-3.179 0-5.783-2.638-5.783-5.926zm1.705 6.154a7.422 7.422 0 01-2.28-2.53 5.44 5.44 0 01-1.54 2.53h3.82zm-7.4-7.934c-2.095 0-3.821 1.74-3.821 3.922 0 2.181 1.726 3.922 3.821 3.922 2.096 0 3.822-1.74 3.822-3.922 0-2.182-1.726-3.922-3.822-3.922zm25.262 12.478a.25.25 0 00-.363-.223l-3.991 2.022a.25.25 0 00-.137.223v3.976c0 .095.053.18.137.223l3.991 2.023a.25.25 0 00.363-.223v-8.021zM210.786 76.4a.75.75 0 000 1.5h2.395a.75.75 0 000-1.5h-2.395zm5.987 0a.75.75 0 100 1.5h2.394a.75.75 0 100-1.5h-2.394zm5.986 0a.75.75 0 000 1.5h2.395a.75.75 0 000-1.5h-2.395zm5.987 0a.75.75 0 000 1.5h2.394a.75.75 0 100-1.5h-2.394z" fill="#000"/><ellipse cx="214.972" cy="58.779" rx="3.889" ry="3.974" fill="#A62E41"/></svg>