<svg width="259" height="192" fill="none" xmlns="http://www.w3.org/2000/svg"><path d="M96.517 192L.58 155.926.548 40.271l96.001 36.106L96.517 192z" fill="#053866"/><path d="M192.71 155.637l-96.033-36.234.096-115.366 96.13 36.106-.193 115.494z" fill="#102E5B"/><path d="M96.517 192l96.387-36.49V40.143L96.549 76.377 96.517 192z" fill="#054270"/><path d="M.58 155.926l96.13-36.779.065-115.11L.547 40.27.58 155.926z" fill="#0A2D49"/><path d="M96.517 192L.58 155.894.548 40.271l96.001 36.106L96.517 192z" fill="#053866"/><path d="M24.54 78.395L.58 69.33.548 40.27l23.992 9.26v28.865z" fill="#053866"/><path d="M6.947 68.175a15.91 15.91 0 01-6.368-1.153l-.064-3.108c4.92 1.858 9.648 1.506 13.25-.96 4.342-2.98 7.076-7.85 7.076-14.994l2.894 1.153c0 8.074-2.412 12.655-7.526 16.179a17.092 17.092 0 01-9.262 2.883z" fill="#B9D5FD"/><path d="M48.5 87.462l-23.96-9.067V49.53l23.96 9.066v28.866z" fill="#0E2951"/><path d="M72.46 96.529l-23.961-9.067V58.596l23.96 9.067v28.866z" fill="#709FDC"/><path d="M96.42 105.467l-23.961-8.939V67.663l24.089 8.714-.129 29.09z" fill="#6780B3"/><path d="M24.54 107.261L.58 98.195V69.329l23.96 9.066v28.866z" fill="#B9D5FD"/><path d="M48.5 116.328l-23.96-9.067V78.396l23.96 9.066v28.866z" fill="#274684"/><path d="M72.46 125.394l-23.961-9.066V87.462l23.96 9.067v28.865z" fill="#3D95D1"/><path d="M96.42 134.333l-23.961-8.939V96.529l23.96 8.938v28.866zM48.5 145.194l-23.96-9.067v-28.866l23.96 9.067v28.866z" fill="#B9D5FD"/><path d="M72.46 154.26l-23.961-9.066v-28.866l23.96 9.066v28.866z" fill="#0E2951"/><path d="M96.42 163.198l-23.961-8.938v-28.866l23.96 8.939v28.865z" fill="#709FDC"/><path d="M24.54 164.993L.58 155.894v-28.866l23.96 9.099v28.866z" fill="#6780B3"/><path d="M48.5 174.059l-23.96-9.067v-28.865l23.96 9.066v28.866z" fill="#053866"/><path d="M72.46 183.126l-23.961-9.067v-28.866l23.96 9.067v28.866z" fill="#B9D5FD"/><path d="M96.516 192l-24.057-8.874V154.26l23.96 8.938.097 28.802zM5.468 62.185a12.35 12.35 0 01-4.889-.93v-3.46c3.441 1.314 7.687.865 9.81-.544 3.537-2.339 5.274-5.96 5.274-10.989l2.894 1.153c0 6.184-2.219 9.964-6.175 12.687a12.254 12.254 0 01-6.914 2.083z" fill="#3D95D1"/><path d="M3.763 55.52a7.694 7.694 0 01-3.184-.608v-3.46c2.058.769 5.21.577 6.947-1.153 1.833-1.827 2.316-3.3 2.316-6.344l2.894 1.154c0 4.228-1.447 7.08-4.213 8.938a8.284 8.284 0 01-4.76 1.474z" fill="#3376B3"/><path d="M2.155 48.857a3.127 3.127 0 01-1.576-.288v-3.46c.515.192 2.22.32 2.895 0 1.157-.577 1.157-1.73.579-3.46l3.473 1.153c0 2.403-.868 4.069-2.476 5.19a5.3 5.3 0 01-2.895.865z" fill="#709FDC"/><path d="M95.808 159.162l-20.293-7.657v-49.883l20.68 7.529v4.037l-17.207-6.568v42.482l16.627 6.247.193 3.813z" fill="#274684"/><path d="M96.194 159.963l-20.68-8.458v-25.438l3.474 1.153v21.882l17.206 6.824v4.037z" fill="#0E2951"/><path d="M95.81 151.665l-14.538-5.51v-36.01l14.923 5.382v4.037l-11.45-4.422v29.218l11.45 4.069-.386 3.236z" fill="#274684"/><path d="M95.808 144.745l-8.297-3.14v-21.017l8.683 3.012v4.037l-5.21-2.051v13.616l5.21 2.275-.386 3.268z" fill="#274684"/><path d="M96.194 144.937l-8.683-3.332v-11.02l3.473 1.153v7.465l5.21 1.698v4.036z" fill="#0E2951"/><path d="M96.195 152.466l-14.922-5.735v-18.485l3.473 1.153v14.962l11.45 4.068v4.037z" fill="#0E2951"/><path d="M18.782 162.814L.58 155.894V133.98l18.203 6.888v21.946z" fill="#053866"/><path d="M12.575 160.443L.58 155.894v-14.417l11.996 4.55v14.416z" fill="#709FDC"/><path d="M72.364 78.235L63.68 93.07 48.597 76.89l8.715-14.833 15.052 16.18z" fill="#0E2951"/><path d="M66.542 77.915l-4.438 7.56-7.687-8.233 4.438-7.593 7.687 8.266z" fill="#6780B3"/><path d="M72.46 183.126l-23.961-9.067V150.96l23.96 9.067v23.099z" fill="#3D95D1"/><path d="M72.46 183.126l-23.961-9.067v-16.755l23.96 9.066v16.756z" fill="#6780B3"/><path d="M72.46 183.126l-23.961-9.067v-10.412l23.96 9.099v10.38z" fill="#053866"/><path d="M72.46 183.126l-23.961-9.067v-5.19l23.96 9.067v5.19zM24.54 85.284L48.5 94.35l-23.96 7.144 23.96 9.067-23.96-25.278z" fill="#0E2951"/><path d="M3.474 99.348L.579 98.195V69.329l2.895 1.153v28.866zm4.63 1.73L5.21 99.925V71.059l2.894 1.153v28.866zm15.085 5.767l-2.895-1.154V76.826l2.895 1.153v28.866zm-5.05-2.115l-3.474-1.153V74.743l3.474 1.154v28.833zm-5.403-1.922l-2.894-1.154V72.789l2.894 1.153v28.866z" fill="#709FDC"/><path d="M24.54 136.127L.58 127.028V98.194l23.96 9.067v28.866z" fill="#0E2951"/><path d="M24.54 136.127l-11.965-4.55v-14.416l11.964 4.517v14.449zm-11.965-18.966L.58 112.611V98.195l11.996 4.517v14.449z" fill="#3D95D1"/><path d="M38.98 159.194l-4.92-1.858v-5.703l8.618 3.268v9.995l-12.317-4.677V145.93l15.984 6.055v18.678l-19.65-7.465v-23.675l19.65 7.432" stroke="#3D95D1" stroke-width="3" stroke-miterlimit="10"/><path d="M76.77 181.299l16.305-15.762m0 21.914L76.77 159.354" stroke="#0E2951" stroke-width="6" stroke-miterlimit="10"/><path d="M57.12 129.976l-3.828-1.442v-4.613l3.827 1.441v4.614zm5.274 8.361l-3.828-1.473v-4.614l3.828 1.442v4.645zm5.274 8.33l-3.827-1.442v-4.613l3.827 1.441v4.614z" fill="#B9D5FD"/><path d="M96.549 76.377l96.355-36.234.032 115.495L96.516 192l.033-115.623z" fill="#053866"/><path d="M168.782 107.005l24.153-9.099v28.866l-24.153 9.066v-28.833z" fill="#B9D5FD"/><path d="M144.661 116.071l24.121-9.066v28.834l-24.121 9.098v-28.866z" fill="#274684"/><path d="M120.541 125.138l24.121-9.066v28.865l-24.121 9.067v-28.866z" fill="#053866"/><path d="M96.419 134.333l24.121-9.195v28.866l-24.121 9.195v-28.866zm48.242-47.127l24.121-9.067v28.866l-24.121 9.066V87.206z" fill="#B9D5FD"/><path d="M120.541 96.272l24.121-9.066v28.865l-24.121 9.067V96.272z" fill="#0E2951"/><path d="M96.419 105.467l24.121-9.195v28.866l-24.121 9.195v-28.866z" fill="#709FDC"/><path d="M144.661 144.937l24.121-9.099v28.866l-24.121 9.099v-28.866z" fill="#0E2951"/><path d="M120.541 154.004l24.121-9.067v28.866l-24.121 9.066v-28.865z" fill="#709FDC"/><path d="M96.419 163.198l24.121-9.194v28.865L96.515 192l-.096-28.802zm72.363-113.924l24.121-9.131.032 28.898-24.153 9.098V49.274z" fill="#6780B3"/><path d="M144.661 58.34l24.121-9.066v28.865l-24.121 9.067V58.34z" fill="#053866"/><path d="M120.541 67.406l24.121-9.066v28.866l-24.121 9.066V67.406z" fill="#B9D5FD"/><path d="M96.548 76.377l23.992-8.97v28.865l-24.121 9.195.129-29.09z" fill="#3D95D1"/><path d="M96.195 159.963v-4.037l17.785-7.08v-42.482l-16.95 6.376-1.221-3.236 21.644-8.138v49.883l-21.258 8.714z" fill="#274684"/><path d="M117.453 126.964l-3.473 1.154v-21.754l-17.786 6.824v-4.037l21.259-7.785v25.598z" fill="#0E2951"/><path d="M96.194 152.466v-4.037l11.996-4.902v-28.641l-11.996 4.677v-4.036l15.47-4.486v34.889l-15.47 6.536z" fill="#274684"/><path d="M96.195 144.937v-4.036l5.724-1.955V125.33l-4.888 1.859-1.222-3.236 9.584-3.62v21.016l-9.198 3.588z" fill="#274684"/><path d="M105.392 130.905l-3.473 1.153v-6.728l-5.725 2.307V123.6l9.198-3.267v10.572z" fill="#0E2951"/><path d="M111.664 129.143l-3.474 1.153v-15.41l-11.996 4.678v-4.037l15.47-5.639v19.255z" fill="#0E2951"/><path d="M180.875 44.724l12.028-4.581.033 14.48-12.061 4.518V44.724z" fill="#FF8098"/><path d="M120.637 172.233l8.78-21.433 15.148 4.773-8.748 21.433-15.18-4.773z" fill="#0E2951"/><path d="M126.522 168.164l4.439-10.957 7.751 2.435-4.471 10.957-7.719-2.435z" fill="#6780B3"/><path d="M120.541 67.406l24.121-9.066v23.099l-24.121 9.067v-23.1z" fill="#3D95D1"/><path d="M120.541 67.406l24.121-9.066v16.755l-24.121 9.067V67.406z" fill="#6780B3"/><path d="M120.541 67.406l24.121-9.066v10.38l-24.121 9.099V67.406z" fill="#053866"/><path d="M120.541 67.406l24.121-9.066v5.19l-24.121 9.099v-5.223zm48.241 61.544l-24.121 9.067 24.121-25.245-24.121 9.066" fill="#0E2951"/><path d="M192.969 127.06l-3.474 1.154V98.771l3.474-1.153v29.442zm-4.568 1.506l-3.473 1.153v-28.865l3.473-1.154v28.866zm-14.473 5.446l-3.505 1.154-.065-28.898 3.474-1.153.096 28.897zm4.825-1.826l-3.506 1.154v-28.866l3.506-1.153v28.865zm4.824-1.794l-3.506 1.154V102.68l3.506-1.154v28.866z" fill="#709FDC"/><path d="M168.782 78.14l24.153-9.1v28.866l-24.153 9.099V78.139z" fill="#0E2951"/><path d="M168.782 135.838l24.153-9.066v28.865l-24.153 9.067v-28.866z" fill="#053866"/><path d="M168.782 78.14l12.093-4.55v14.417l-12.093 4.549V78.139z" fill="#3D95D1"/><path d="M172.095 163.423l-2.895 1.153c0-19.639 10.903-31.525 23.767-36.363v2.884c-11.61 4.357-20.872 19.062-20.872 32.326z" fill="#B9D5FD"/><path d="M178.496 161.116l-3.474 1.153c0-13.84 8.298-24.764 17.979-28.417v3.46c-8.459 3.172-14.505 13.648-14.505 23.804z" fill="#3D95D1"/><path d="M184.638 158.809l-3.248 1.154c0-8.65 4.92-16.98 11.513-19.479l.065 3.3c-5.146 1.954-8.33 8.778-8.33 15.025z" fill="#3376B3"/><path d="M190.073 156.502l-2.894 1.154c-.579-4.614 2.123-9.195 5.725-10.54l.064 3.62c-2.283.833-2.895 2.979-2.895 5.766z" fill="#709FDC"/><path d="M154.374 66.061l4.728-1.794v5.479l-8.298 3.14v-9.58l11.868-4.485v13.712l-15.438 5.83v-17.94l19.008-7.145v22.747L147.234 83.2" stroke="#3D95D1" stroke-width="5" stroke-miterlimit="10"/><path d="M116.198 72.5l-16.402 28.13m0-21.946l16.402 15.762" stroke="#0E2951" stroke-width="6" stroke-miterlimit="10"/><path d="M135.978 108.927l3.859-1.442v4.614l-3.859 1.474v-4.646zm-5.307-4.325l3.859-1.474v4.614l-3.859 1.473v-4.613zm-5.307-4.357l3.86-1.474v4.646l-3.86 1.441v-4.613z" fill="#B9D5FD"/><path d="M174.604 47.095l18.299-6.952.032 21.978-18.331 6.888V47.095z" fill="#053866"/><path d="M179.525 45.205l13.379-5.062.033 16.05-13.412 5.063V45.205z" fill="#709FDC"/><path d="M180.875 88.007l12.061-4.518v14.417l-12.061 4.549V88.007z" fill="#3D95D1"/><path d="M153.57 54.335l39.333-14.192-96.13-36.106-38.24 14.48 95.037 35.818z" fill="#0D3760"/><path d="M145.852 57.892L96.13 76.505 0 40.463l49.786-18.678 96.066 36.106z" fill="#0D3659"/><path d="M148.939 0l-52.23 4.1L.58 40.176l52.101-3.973L148.94 0z" fill="#043D60"/><path d="M192.968 40.175L156.979 4.934 60.624 41.136l36.15 35.401 96.194-36.362z" fill="#03446B"/><path d="M96.5 120V76.5l96-37 66.5-.477-10 22.609L259 84l-66 .242L96.5 120z" fill="#B4D1FA"/><path d="M136.576 88.83c2.189-.834 2.992-2.723 2.992-4.275 0-3.984-4.804-.779-4.804-3.179 0-1.008.693-1.96 1.666-2.33.888-.339 1.739-.263 2.348.386l.608-1.208c-.681-.684-1.642-.863-2.883-.39-1.593.607-2.785 2.26-2.785 4.02 0 3.808 4.804.459 4.804 3.211 0 .816-.462 2.016-1.91 2.567-1.143.436-2.019.033-2.554-.547l-.596 1.235c.669.737 1.703 1.047 3.114.51zm10.423-4.161v-1.184l-4.306 1.64v-3.68l4.221-1.608v-1.184l-4.221 1.608v-3.44l4.306-1.64v-1.184l-5.315 2.024v10.672l5.315-2.024zm5.915-2.06c2.397-.913 4.026-3.902 4.026-7.054s-1.629-4.899-4.026-3.987c-2.408.918-4.026 3.901-4.026 7.053 0 3.153 1.618 4.904 4.026 3.987zm0-1.185c-1.824.695-2.98-.72-2.98-3.2 0-2.497 1.156-4.777 2.98-5.472 1.813-.69 2.98.706 2.98 3.202 0 2.48-1.167 4.78-2.98 5.47z" fill="#000"/><path d="M259 39l-66.5.5.5 44.5h66l-10-22.5L259 39z" fill="#000" fill-opacity=".05"/><path d="M225.917 69.044l-1.752-1.752 1.773-2.123 1.401 1.4 1.409-.007 8.756 9.11-3.541 3.542-8.756-9.11.71-1.06z" fill="#C43B55"/><path fill-rule="evenodd" clip-rule="evenodd" d="M215.851 47.226c-5.307.052-9.64 4.41-9.677 9.734-.037 5.324 4.235 9.599 9.543 9.547 5.308-.052 9.64-4.41 9.678-9.734a9.492 9.492 0 00-1.42-5.09.639.639 0 01.206-.872.624.624 0 01.867.192 10.742 10.742 0 011.607 5.758c-.042 6.022-4.943 10.952-10.947 11.01-6.004.059-10.837-4.776-10.795-10.799.042-6.022 4.943-10.952 10.947-11.01a10.652 10.652 0 016.062 1.801.628.628 0 01.164.876.634.634 0 01-.876.179 9.415 9.415 0 00-5.359-1.592z" fill="#000"/><path fill-rule="evenodd" clip-rule="evenodd" d="M215.698 69.037c6.7-.066 12.169-5.567 12.216-12.288.047-6.72-5.347-12.116-12.046-12.05-6.7.064-12.17 5.566-12.216 12.286a11.98 11.98 0 001.792 6.425.639.639 0 01-.206.873.623.623 0 01-.867-.193 13.231 13.231 0 01-1.98-7.092c.052-7.42 6.089-13.492 13.485-13.564 7.396-.072 13.35 5.884 13.298 13.303-.051 7.42-6.089 13.492-13.485 13.564a13.127 13.127 0 01-7.468-2.22.628.628 0 01-.163-.875.634.634 0 01.876-.18 11.883 11.883 0 006.764 2.01z" fill="#000"/><path fill-rule="evenodd" clip-rule="evenodd" d="M225.851 64.376l1.872 1.877.469-.07a2.172 2.172 0 011.867.61l7.291 7.314c.487.488.712 1.182.608 1.872l-.039.26a2.258 2.258 0 01-.635 1.258l-1.273 1.277a2.25 2.25 0 01-1.253.636l-.26.04a2.17 2.17 0 01-1.866-.61l-7.291-7.315a2.186 2.186 0 01-.609-1.872l.071-.47-1.872-1.877 2.92-2.93zm.214 4.87l-.086.575a.937.937 0 00.26.803l7.292 7.314c.208.21.505.306.799.261l.261-.04a.966.966 0 00.537-.272l1.273-1.277a.97.97 0 00.272-.538l.039-.262a.938.938 0 00-.261-.802l-7.291-7.314a.93.93 0 00-.8-.261l-.573.086-1.722 1.728zm.539-2.313l-.768-.77-1.122 1.128.767.769 1.123-1.127z" fill="#000"/></svg>