<svg width="260" height="193" fill="none" xmlns="http://www.w3.org/2000/svg"><path d="M97.016 193L.582 156.738.55 40.481l96.499 36.294L97.016 193z" fill="#053866"/><path d="M193.709 156.448l-96.531-36.423.097-115.967 96.628 36.294-.194 116.096z" fill="#102E5B"/><path d="M97.017 193l96.886-36.681V40.352L97.049 76.775 97.017 193z" fill="#054270"/><path d="M.582 156.738l96.628-36.971.065-115.71L.55 40.482l.032 116.257z" fill="#0A2D49"/><path d="M97.016 193L.582 156.706.55 40.481l96.499 36.294L97.016 193z" fill="#053866"/><path d="M24.666 78.804L.582 69.69.55 40.48l24.116 9.308v29.016z" fill="#053866"/><path d="M6.983 68.53a15.991 15.991 0 01-6.4-1.159l-.065-3.124c4.946 1.868 9.698 1.514 13.319-.966 4.364-2.995 7.112-7.89 7.112-15.072l2.91 1.16c0 8.115-2.425 12.72-7.565 16.263a17.18 17.18 0 01-9.31 2.898z" fill="#B9D5FD"/><path d="M48.75 87.918l-24.084-9.114V49.788l24.084 9.114v29.016z" fill="#0E2951"/><path d="M72.834 97.031L48.75 87.917V58.903l24.084 9.113v29.016z" fill="#709FDC"/><path d="M96.918 106.016l-24.084-8.985V68.015l24.214 8.76-.13 29.241z" fill="#6780B3"/><path d="M24.666 107.82L.582 98.706V69.69l24.084 9.114v29.016z" fill="#B9D5FD"/><path d="M48.75 116.934l-24.084-9.114V78.804l24.084 9.114v29.016z" fill="#274684"/><path d="M72.834 126.047l-24.084-9.113V87.918l24.084 9.113v29.016z" fill="#3D95D1"/><path d="M96.918 135.032l-24.084-8.985V97.031l24.084 8.985v29.016zM48.75 145.95l-24.084-9.114V107.82l24.084 9.114v29.016z" fill="#B9D5FD"/><path d="M72.834 155.064L48.75 145.95v-29.016l24.084 9.114v29.016z" fill="#0E2951"/><path d="M96.918 164.048l-24.084-8.985v-29.016l24.084 8.985v29.016z" fill="#709FDC"/><path d="M24.666 165.852L.582 156.706V127.69l24.084 9.146v29.016z" fill="#6780B3"/><path d="M48.75 174.965l-24.084-9.113v-29.016l24.084 9.113v29.016z" fill="#053866"/><path d="M72.834 184.079l-24.084-9.113V145.95l24.084 9.113v29.016z" fill="#B9D5FD"/><path d="M97.015 193l-24.181-8.921v-29.016l24.084 8.985.097 28.952zM5.496 62.508a12.412 12.412 0 01-4.914-.933v-3.479c3.46 1.32 7.726.87 9.86-.547 3.556-2.35 5.302-5.99 5.302-11.046l2.91 1.16c0 6.215-2.231 10.015-6.208 12.752a12.318 12.318 0 01-6.95 2.093z" fill="#3D95D1"/><path d="M3.783 55.81a7.731 7.731 0 01-3.201-.612V51.72c2.069.773 5.237.58 6.983-1.16 1.843-1.835 2.327-3.317 2.327-6.376l2.91 1.16c0 4.25-1.455 7.117-4.235 8.984a8.327 8.327 0 01-4.784 1.482z" fill="#3376B3"/><path d="M2.166 49.111a3.143 3.143 0 01-1.584-.29v-3.477c.517.193 2.23.322 2.91 0 1.163-.58 1.163-1.74.581-3.479l3.492 1.16c0 2.415-.873 4.09-2.49 5.217a5.326 5.326 0 01-2.909.87z" fill="#709FDC"/><path d="M96.305 159.991l-20.399-7.697v-50.142l20.787 7.568v4.057l-17.295-6.601v42.702l16.713 6.28.194 3.833z" fill="#274684"/><path d="M96.693 160.796l-20.787-8.502v-25.57l3.492 1.159v21.995l17.295 6.86v4.058z" fill="#0E2951"/><path d="M96.306 152.455l-14.613-5.539v-36.198l15 5.41v4.058l-11.508-4.444v29.37l11.508 4.09-.387 3.253z" fill="#274684"/><path d="M96.305 145.498l-8.341-3.156v-21.126l8.728 3.028v4.057l-5.237-2.061v13.687l5.237 2.287-.387 3.284z" fill="#274684"/><path d="M96.692 145.692l-8.728-3.349v-11.078l3.491 1.159v7.504l5.237 1.706v4.058z" fill="#0E2951"/><path d="M96.694 153.26l-15-5.764v-18.582l3.49 1.159v15.039l11.51 4.09v4.058z" fill="#0E2951"/><path d="M18.88 163.662L.582 156.706v-22.028l18.298 6.924v22.06z" fill="#053866"/><path d="M12.64 161.279L.582 156.706v-14.492l12.058 4.573v14.492z" fill="#709FDC"/><path d="M72.738 78.643l-8.728 14.91L48.848 77.29l8.76-14.91 15.13 16.263z" fill="#0E2951"/><path d="M66.887 78.32l-4.461 7.601-7.727-8.277 4.462-7.632 7.726 8.309z" fill="#6780B3"/><path d="M72.834 184.079l-24.084-9.113v-23.22l24.084 9.114v23.219z" fill="#3D95D1"/><path d="M72.834 184.079l-24.084-9.113v-16.843l24.084 9.114v16.842z" fill="#6780B3"/><path d="M72.834 184.079l-24.084-9.113v-10.467l24.084 9.146v10.434z" fill="#053866"/><path d="M72.834 184.08l-24.084-9.114v-5.217l24.084 9.114v5.217zM24.666 85.728L48.75 94.84l-24.084 7.182 24.084 9.114-24.084-25.41z" fill="#0E2951"/><path d="M3.492 99.865l-2.91-1.159V69.69l2.91 1.16v29.015zm4.655 1.74l-2.91-1.16V71.429l2.91 1.16v29.016zm15.162 5.796l-2.91-1.159V77.226l2.91 1.16V107.4zm-5.076-2.125l-3.492-1.16V75.133l3.492 1.159v28.984zm-5.431-1.933l-2.91-1.159V73.168l2.91 1.16v29.015z" fill="#709FDC"/><path d="M24.666 136.836L.582 127.69V98.706l24.084 9.114v29.016z" fill="#0E2951"/><path d="M24.667 136.836l-12.026-4.573v-14.492l12.026 4.541v14.524zM12.64 117.771L.582 113.198V98.706l12.058 4.541v14.524z" fill="#3D95D1"/><path d="M39.181 160.023l-4.946-1.868v-5.732l8.664 3.284v10.048l-12.382-4.702V146.69l16.067 6.087v18.775l-19.752-7.504v-23.799l19.752 7.472" stroke="#3D95D1" stroke-width="3" stroke-miterlimit="10"/><path d="M77.167 182.244l16.39-15.845m0 22.028l-16.39-28.243" stroke="#0E2951" stroke-width="6" stroke-miterlimit="10"/><path d="M57.414 130.653l-3.847-1.449v-4.638l3.847 1.449v4.638zm5.302 8.405l-3.847-1.481v-4.638l3.847 1.449v4.67zm5.302 8.373l-3.847-1.449v-4.638l3.847 1.449v4.638z" fill="#B9D5FD"/><path d="M97.049 76.775l96.854-36.423.033 116.096L97.016 193l.033-116.225z" fill="#053866"/><path d="M169.657 107.562l24.279-9.146v29.016l-24.279 9.114v-28.984z" fill="#B9D5FD"/><path d="M145.411 116.676l24.246-9.114v28.984l-24.246 9.146v-29.016z" fill="#274684"/><path d="M121.165 125.79l24.246-9.114v29.016l-24.246 9.114V125.79z" fill="#053866"/><path d="M96.919 135.033l24.246-9.243v29.016l-24.246 9.243v-29.016zm48.492-47.373l24.246-9.114v29.016l-24.246 9.114V87.66z" fill="#B9D5FD"/><path d="M121.165 96.774l24.246-9.114v29.016l-24.246 9.114V96.774z" fill="#0E2951"/><path d="M96.919 106.016l24.246-9.242v29.016l-24.246 9.242v-29.016z" fill="#709FDC"/><path d="M145.411 145.692l24.246-9.146v29.016l-24.246 9.146v-29.016z" fill="#0E2951"/><path d="M121.165 154.806l24.246-9.114v29.016l-24.246 9.114v-29.016z" fill="#709FDC"/><path d="M96.919 164.048l24.246-9.242v29.016L97.015 193l-.096-28.952zM169.657 49.53l24.246-9.178.033 29.048-24.279 9.146V49.53z" fill="#6780B3"/><path d="M145.411 58.644l24.246-9.114v29.016l-24.246 9.114V58.644z" fill="#053866"/><path d="M121.165 67.758l24.246-9.114V87.66l-24.246 9.114V67.758z" fill="#B9D5FD"/><path d="M97.048 76.775l24.117-9.017v29.016l-24.246 9.242.13-29.241z" fill="#3D95D1"/><path d="M96.693 160.796v-4.058l17.877-7.117v-42.703l-17.037 6.409-1.228-3.253 21.756-8.18v50.142l-21.368 8.76z" fill="#274684"/><path d="M118.062 127.625l-3.491 1.16v-21.867l-17.878 6.86v-4.058l21.369-7.826v25.731z" fill="#0E2951"/><path d="M96.693 153.26v-4.058l12.059-4.927v-28.791l-12.059 4.702v-4.058l15.55-4.508v35.07l-15.55 6.57z" fill="#274684"/><path d="M96.693 145.692v-4.058l5.754-1.964v-13.687l-4.914 1.868-1.228-3.253 9.633-3.639v21.126l-9.245 3.607z" fill="#274684"/><path d="M105.939 131.587l-3.491 1.159v-6.763l-5.755 2.319v-4.058l9.246-3.285v10.628z" fill="#0E2951"/><path d="M112.243 129.815l-3.491 1.16v-15.49l-12.059 4.701v-4.057l15.55-5.668v19.354z" fill="#0E2951"/><path d="M181.812 44.957l12.091-4.605.032 14.556-12.123 4.541V44.957z" fill="#FF8098"/><path d="M121.262 173.13l8.825-21.545 15.227 4.799-8.793 21.544-15.259-4.798z" fill="#0E2951"/><path d="M127.179 169.04l4.461-11.014 7.791 2.448-4.494 11.014-7.758-2.448z" fill="#6780B3"/><path d="M121.165 67.758l24.246-9.114v23.22l-24.246 9.113v-23.22z" fill="#3D95D1"/><path d="M121.165 67.758l24.246-9.114v16.843L121.165 84.6V67.758z" fill="#6780B3"/><path d="M121.165 67.758l24.246-9.114v10.434l-24.246 9.146V67.758z" fill="#053866"/><path d="M121.165 67.758l24.246-9.114v5.217l-24.246 9.146v-5.25zm48.492 61.864l-24.246 9.114 24.246-25.377-24.246 9.114" fill="#0E2951"/><path d="M193.968 127.722l-3.491 1.159V99.286l3.491-1.16v29.596zm-4.591 1.514l-3.491 1.159v-29.016l3.491-1.159v29.016zm-14.547 5.474l-3.524 1.16-.065-29.049 3.492-1.159.097 29.048zm4.848-1.835l-3.524 1.159v-29.016l3.524-1.159v29.016zm4.85-1.804l-3.524 1.16v-29.016l3.524-1.16v29.016z" fill="#709FDC"/><path d="M169.657 78.546l24.279-9.146v29.016l-24.279 9.146V78.546z" fill="#0E2951"/><path d="M169.657 136.546l24.279-9.114v29.016l-24.279 9.114v-29.016z" fill="#053866"/><path d="M169.657 78.546l12.156-4.573v14.492l-12.156 4.573V78.546z" fill="#3D95D1"/><path d="M172.987 164.274l-2.91 1.159c0-19.741 10.959-31.689 23.89-36.552v2.899c-11.67 4.379-20.98 19.161-20.98 32.494z" fill="#B9D5FD"/><path d="M179.421 161.955l-3.491 1.16c0-13.913 8.34-24.894 18.071-28.566v3.479c-8.502 3.188-14.58 13.719-14.58 23.927z" fill="#3D95D1"/><path d="M185.594 159.636l-3.265 1.16c0-8.695 4.946-17.068 11.574-19.58l.064 3.317c-5.172 1.964-8.373 8.824-8.373 15.103z" fill="#3376B3"/><path d="M191.059 157.318l-2.91 1.159c-.582-4.637 2.134-9.243 5.754-10.595l.065 3.639c-2.295.837-2.909 2.995-2.909 5.797z" fill="#709FDC"/><path d="M155.174 66.405l4.752-1.803v5.507l-8.341 3.156v-9.63l11.929-4.508v13.784l-15.517 5.86V60.738l19.106-7.181V76.42l-19.106 7.214" stroke="#3D95D1" stroke-width="5" stroke-miterlimit="10"/><path d="M116.801 72.878l-16.488 28.276m0-22.06l16.488 15.844" stroke="#0E2951" stroke-width="6" stroke-miterlimit="10"/><path d="M136.683 109.494l3.879-1.449v4.638l-3.879 1.481v-4.67zm-5.335-4.347l3.879-1.482v4.638l-3.879 1.481v-4.637zm-5.334-4.38l3.879-1.481v4.669l-3.879 1.45v-4.638z" fill="#B9D5FD"/><path d="M175.508 47.34l18.394-6.988.033 22.092-18.427 6.924V47.34z" fill="#053866"/><path d="M180.455 45.44l13.448-5.088.033 16.134-13.481 5.089V45.44z" fill="#709FDC"/><path d="M181.812 88.465l12.123-4.54v14.491l-12.123 4.573V88.465z" fill="#3D95D1"/><path d="M154.366 54.618l39.537-14.266L97.275 4.058 58.837 18.614l95.529 36.004z" fill="#0D3760"/><path d="M146.607 58.193l-49.979 18.71L0 40.674 50.044 21.9l96.563 36.294z" fill="#0D3659"/><path d="M149.711 0l-52.5 4.122L.581 40.384l52.371-3.993L149.711 0z" fill="#043D60"/><path d="M193.968 40.384L157.793 4.96 60.938 41.35l36.337 35.586 96.693-36.552z" fill="#03446B"/><path d="M97 121.856V77l96.862-37.238H260L250 62.49l10 22.728L193.862 85 97 121.856z" fill="#B4D1FA"/><path d="M118.991 97.326l-4.132-4.726 3.804-7.154-1.423.541-4.037 7.748v-6.21l-1.136.432v12.006l1.136-.432v-4.032l.917-1.717 3.462 4.081 1.409-.537zm5.403-1.841c2.696-1.027 4.53-4.389 4.53-7.935 0-3.546-1.834-5.512-4.53-4.485-2.709 1.032-4.529 4.389-4.529 7.935 0 3.546 1.82 5.517 4.529 4.485zm0-1.332c-2.052.782-3.352-.811-3.352-3.601 0-2.808 1.3-5.373 3.352-6.155 2.039-.776 3.353.793 3.353 3.601 0 2.79-1.314 5.378-3.353 6.155zm14.596-4.442V77.705l-1.136.432v5.166l-5.336 2.033V80.17l-1.136.432v12.006l1.136-.432v-5.508l5.336-2.033v5.508l1.136-.432zm6.211-2.365V76.672l2.901-1.105v-1.332l-6.924 2.637v1.332l2.887-1.1v10.674l1.136-.432zm11.074-4.218v-1.332l-4.844 1.845v-4.14l4.749-1.808V76.36l-4.749 1.808V74.3l4.844-1.845v-1.331l-5.979 2.277v12.006l5.979-2.278zm9.419-3.586l-4.132-4.727 3.804-7.154-1.423.542-4.037 7.747v-6.21l-1.136.432v12.006l1.136-.432v-4.032l.917-1.717 3.462 4.081 1.409-.536zm5.568-1.904c1.614-.615 2.709-2.04 3.475-3.7l-.971-.332c-.52 1.224-1.464 2.303-2.504 2.7-1.998.76-3.517-.695-3.517-3.54 0-2.861 1.519-5.456 3.517-6.216 1.04-.397 1.984-.018 2.504.792l.958-1.067c-.726-1.074-1.848-1.672-3.462-1.057-2.628 1-4.694 4.307-4.694 7.997 0 3.69 2.066 5.423 4.694 4.423zm9-3.644V63.32l2.901-1.105v-1.332l-6.924 2.637v1.332l2.888-1.1v10.675l1.135-.433z" fill="#000"/><path d="M194 40h66l-10 22.5L260 85h-66V40z" fill="#000" fill-opacity=".05"/><path d="M200 77.274l6.765-12.563c2.207-.417 2.777-.107 3.544.644l-5.809 11.92H200zM221.584 63.1c4.896-5.928 10.845-4.188 13.208-2.577l3.221-3.866c-4.188-3.329-14.11-7.216-20.295 3.866l3.866 2.577z" fill="#C43B55"/><path fill-rule="evenodd" clip-rule="evenodd" d="M207.641 46.029c2.819-1.097 6.049-1.165 8.252-.897.548.066.932.533.932 1.056v30.136a1.07 1.07 0 01-1.07 1.069h-2.497a1.07 1.07 0 01-1.07-1.069V65.998h-.807l-5.411 10.804c-.181.362-.551.59-.956.59h-3.455a1.068 1.068 0 01-.937-1.584l5.932-10.725c-1.886-1.013-4.296-3.54-4.754-8.094l1.42-.143c.467 4.657 3.172 6.741 4.57 7.234l.794.28-6.421 11.608h2.63l5.706-11.395h3.116v11.395h1.783V46.51c-2.036-.204-4.838-.088-7.24.846-2.494.97-4.51 2.793-4.89 6.082l-1.417-.163c.455-3.94 2.934-6.136 5.79-7.246zm4.8 1.49a1.065 1.065 0 011.174 1.057v13.745c0 .504-.359.964-.891 1.048-1.005.159-2.353.197-3.678-.376-1.35-.583-2.584-1.76-3.406-3.858l-.011-.026-.008-.026c-.523-1.724-.829-4.362.001-6.71.419-1.189 1.133-2.31 2.259-3.185 1.126-.873 2.623-1.469 4.56-1.669zm-.253 1.465c-1.513.213-2.621.7-3.431 1.329-.879.682-1.447 1.562-1.79 2.533-.691 1.957-.453 4.25.011 5.797.701 1.772 1.682 2.631 2.634 3.043.866.374 1.78.409 2.576.319v-13.02z" fill="#000"/><path fill-rule="evenodd" clip-rule="evenodd" d="M218.832 60.62a.349.349 0 01-.083-.473 12.475 12.475 0 0110.376-5.532c2.545 0 5.155.928 7.231 2.315a.348.348 0 01.075.509l-2.005 2.498a.368.368 0 01-.494.069 8.535 8.535 0 00-4.807-1.474 8.555 8.555 0 00-7.198 3.92.37.37 0 01-.532.1l-2.563-1.933zm-.599 1.333a.345.345 0 00-.53.14c-.611 1.506-.882 3.187-.882 4.985 0 1.59.188 3.08.657 4.435.079.227.36.299.546.146l2.662-2.19a.364.364 0 00.121-.37 8.537 8.537 0 01-.241-2.021c0-.95.155-1.863.441-2.717a.365.365 0 00-.123-.41l-2.651-1.998zm.296 11.136a.349.349 0 00-.08.45 12.48 12.48 0 0010.676 6.002c2.915 0 5.595-.997 7.719-2.67a.346.346 0 00-.011-.55l-2.697-2.02a.366.366 0 00-.416-.012 8.534 8.534 0 01-4.595 1.335 8.56 8.56 0 01-7.663-4.735.134.134 0 00-.205-.044l-2.728 2.244zm19.454 2.313a.35.35 0 00.471-.044 12.458 12.458 0 002.591-4.57.364.364 0 01.444-.246l.687.192a.35.35 0 01.243.438 13.895 13.895 0 01-3.784 6.04 13.876 13.876 0 01-9.51 3.753 13.91 13.91 0 01-12.452-7.694c-.95-1.9-1.278-4.015-1.278-6.193 0-2.49.481-4.87 1.682-6.945a13.908 13.908 0 0112.048-6.943c3.419 0 6.867 1.473 9.296 3.507a.348.348 0 01.034.5l-.01.011-3.569 4.445-.234.291a.356.356 0 01-.514.044l-.281-.248a7.106 7.106 0 00-4.722-1.784 7.132 7.132 0 00-6.511 4.208 7.091 7.091 0 00-.622 2.914 7.098 7.098 0 00.747 3.175 7.134 7.134 0 006.386 3.946 7.105 7.105 0 004.876-1.924c.593-.555 1.148-1.365 1.564-2.218a.34.34 0 00-.315-.487h-6.482a.357.357 0 01-.357-.356v-5.341c0-.197.16-.356.357-.356h13.529c.168 0 .313.116.349.28l.061.279c.214.967.326 1.972.326 3.002l-.001.206a.35.35 0 01-.366.342l-.713-.029a.364.364 0 01-.347-.37l.001-.15c0-.625-.046-1.24-.135-1.84a.35.35 0 00-.348-.296h-10.929a.357.357 0 00-.357.356v2.493c0 .196.16.356.357.356h7.069c.236 0 .407.226.343.453l-.128.453c-.374 1.318-1.156 2.808-2.118 3.871a.372.372 0 00.044.548l2.578 1.931z" fill="#000"/></svg>