<svg width="260" height="192" fill="none" xmlns="http://www.w3.org/2000/svg"><path d="M97.016 192L.582 155.926.55 40.271l96.499 36.106L97.016 192z" fill="#053866"/><path d="M193.709 155.638l-96.531-36.235.097-115.366 96.628 36.106-.194 115.495z" fill="#102E5B"/><path d="M97.017 192l96.886-36.49V40.143L97.049 76.377 97.017 192z" fill="#054270"/><path d="M.582 155.926l96.628-36.779.065-115.11L.55 40.27l.032 115.655z" fill="#0A2D49"/><path d="M97.016 192L.582 155.894.55 40.271l96.499 36.106L97.016 192z" fill="#053866"/><path d="M24.666 78.395L.582 69.33.55 40.27l24.116 9.259v28.865z" fill="#053866"/><path d="M6.983 68.175a16.066 16.066 0 01-6.4-1.153l-.065-3.108c4.946 1.859 9.698 1.506 13.319-.96 4.364-2.98 7.112-7.85 7.112-14.994l2.91 1.153c0 8.074-2.425 12.655-7.565 16.18a17.243 17.243 0 01-9.31 2.882z" fill="#B9D5FD"/><path d="M48.75 87.462l-24.084-9.067V49.53l24.084 9.066v28.866z" fill="#0E2951"/><path d="M72.834 96.528L48.75 87.462V58.596l24.084 9.067v28.865z" fill="#709FDC"/><path d="M96.918 105.467l-24.084-8.939V67.663l24.214 8.714-.13 29.09z" fill="#6780B3"/><path d="M24.666 107.261L.582 98.195V69.329l24.084 9.067v28.865z" fill="#B9D5FD"/><path d="M48.75 116.328l-24.084-9.067V78.395l24.084 9.067v28.866z" fill="#274684"/><path d="M72.834 125.394l-24.084-9.066V87.462l24.084 9.067v28.865z" fill="#3D95D1"/><path d="M96.918 134.333l-24.084-8.939V96.529l24.084 8.938v28.866zM48.75 145.194l-24.084-9.067v-28.866l24.084 9.067v28.866z" fill="#B9D5FD"/><path d="M72.834 154.26l-24.084-9.067v-28.865l24.084 9.066v28.866z" fill="#0E2951"/><path d="M96.918 163.198l-24.084-8.938v-28.866l24.084 8.939v28.865z" fill="#709FDC"/><path d="M24.666 164.993L.582 155.894v-28.866l24.084 9.099v28.866z" fill="#6780B3"/><path d="M48.75 174.059l-24.084-9.067v-28.865l24.084 9.066v28.866z" fill="#053866"/><path d="M72.834 183.125l-24.084-9.066v-28.866l24.084 9.067v28.865z" fill="#B9D5FD"/><path d="M97.015 192l-24.181-8.874V154.26l24.084 8.938.097 28.802zM5.496 62.185a12.468 12.468 0 01-4.914-.93v-3.46c3.46 1.314 7.726.865 9.86-.544 3.556-2.339 5.302-5.96 5.302-10.989l2.91 1.153c0 6.184-2.231 9.964-6.208 12.687a12.364 12.364 0 01-6.95 2.083z" fill="#3D95D1"/><path d="M3.783 55.52a7.769 7.769 0 01-3.201-.608v-3.46c2.069.769 5.237.577 6.983-1.154 1.843-1.826 2.327-3.3 2.327-6.343l2.91 1.153c0 4.23-1.455 7.08-4.235 8.939a8.358 8.358 0 01-4.784 1.474z" fill="#3376B3"/><path d="M2.166 48.857a3.158 3.158 0 01-1.584-.288v-3.46c.517.192 2.23.32 2.91 0 1.163-.577 1.163-1.73.581-3.46l3.492 1.153c0 2.403-.873 4.069-2.49 5.19a5.347 5.347 0 01-2.909.865z" fill="#709FDC"/><path d="M96.305 159.162l-20.399-7.657v-49.883l20.787 7.529v4.037l-17.295-6.568v42.482l16.713 6.247.194 3.813z" fill="#274684"/><path d="M96.693 159.963l-20.787-8.458v-25.438l3.492 1.153v21.882l17.295 6.824v4.037z" fill="#0E2951"/><path d="M96.306 151.665l-14.613-5.51v-36.01l15 5.382v4.037l-11.508-4.422v29.218l11.508 4.069-.387 3.236z" fill="#274684"/><path d="M96.305 144.745l-8.341-3.14v-21.017l8.728 3.012v4.037l-5.237-2.051v13.616l5.237 2.275-.387 3.268z" fill="#274684"/><path d="M96.692 144.937l-8.728-3.332v-11.021l3.491 1.154v7.465l5.237 1.698v4.036z" fill="#0E2951"/><path d="M96.694 152.466l-15-5.735v-18.485l3.49 1.153v14.961l11.51 4.069v4.037z" fill="#0E2951"/><path d="M18.88 162.814l-18.298-6.92V133.98l18.298 6.888v21.946z" fill="#053866"/><path d="M12.64 160.443L.582 155.894v-14.417l12.058 4.55v14.416z" fill="#709FDC"/><path d="M72.738 78.235L64.01 93.07 48.848 76.89l8.76-14.833 15.13 16.18z" fill="#0E2951"/><path d="M66.887 77.915l-4.461 7.56-7.727-8.233 4.462-7.593 7.726 8.266z" fill="#6780B3"/><path d="M72.834 183.126l-24.084-9.067V150.96l24.084 9.067v23.099z" fill="#3D95D1"/><path d="M72.834 183.126l-24.084-9.067v-16.755l24.084 9.066v16.756z" fill="#6780B3"/><path d="M72.834 183.126l-24.084-9.067v-10.412l24.084 9.099v10.38z" fill="#053866"/><path d="M72.834 183.126l-24.084-9.067v-5.19l24.084 9.067v5.19zM24.666 85.283L48.75 94.35l-24.084 7.144 24.084 9.067-24.084-25.278z" fill="#0E2951"/><path d="M3.492 99.348l-2.91-1.153V69.329l2.91 1.153v28.866zm4.655 1.73l-2.91-1.153V71.059l2.91 1.153v28.866zm15.162 5.767l-2.91-1.154V76.826l2.91 1.153v28.866zm-5.076-2.115l-3.492-1.153V74.743l3.492 1.154v28.833zm-5.431-1.922l-2.91-1.154V72.789l2.91 1.153v28.866z" fill="#709FDC"/><path d="M24.666 136.127L.582 127.028V98.195l24.084 9.066v28.866z" fill="#0E2951"/><path d="M24.667 136.127l-12.026-4.55v-14.416l12.026 4.517v14.449zM12.64 117.161l-12.058-4.55V98.195l12.058 4.517v14.449z" fill="#3D95D1"/><path d="M39.181 159.194l-4.946-1.859v-5.702l8.664 3.268v9.995l-12.382-4.677V145.93l16.067 6.055v18.678l-19.752-7.465v-23.675l19.752 7.432" stroke="#3D95D1" stroke-width="3" stroke-miterlimit="10"/><path d="M77.167 181.299l16.39-15.762m0 21.914l-16.39-28.097" stroke="#0E2951" stroke-width="6" stroke-miterlimit="10"/><path d="M57.414 129.976l-3.847-1.442v-4.613l3.847 1.441v4.614zm5.302 8.361l-3.847-1.473v-4.614l3.847 1.442v4.645zm5.302 8.33l-3.847-1.442v-4.613l3.847 1.442v4.613z" fill="#B9D5FD"/><path d="M97.049 76.377l96.854-36.234.033 115.495L97.016 192l.033-115.623z" fill="#053866"/><path d="M169.657 107.005l24.279-9.099v28.866l-24.279 9.066v-28.833z" fill="#B9D5FD"/><path d="M145.411 116.072l24.246-9.067v28.834l-24.246 9.098v-28.865z" fill="#274684"/><path d="M121.165 125.138l24.246-9.066v28.865l-24.246 9.067v-28.866z" fill="#053866"/><path d="M96.919 134.333l24.246-9.195v28.866l-24.246 9.195v-28.866zm48.492-47.127l24.246-9.067v28.866l-24.246 9.066V87.206z" fill="#B9D5FD"/><path d="M121.165 96.272l24.246-9.066v28.865l-24.246 9.067V96.272z" fill="#0E2951"/><path d="M96.919 105.467l24.246-9.195v28.866l-24.246 9.195v-28.866z" fill="#709FDC"/><path d="M145.411 144.937l24.246-9.099v28.866l-24.246 9.099v-28.866z" fill="#0E2951"/><path d="M121.165 154.004l24.246-9.067v28.866l-24.246 9.066v-28.865z" fill="#709FDC"/><path d="M96.919 163.198l24.246-9.195v28.866L97.015 192l-.096-28.802zm72.738-113.924l24.246-9.131.033 28.898-24.279 9.098V49.274z" fill="#6780B3"/><path d="M145.411 58.34l24.246-9.066v28.865l-24.246 9.067V58.34z" fill="#053866"/><path d="M121.165 67.406l24.246-9.066v28.865l-24.246 9.067V67.406z" fill="#B9D5FD"/><path d="M97.048 76.377l24.117-8.97v28.865l-24.246 9.195.13-29.09z" fill="#3D95D1"/><path d="M96.693 159.963v-4.037l17.877-7.08v-42.482l-17.037 6.376-1.228-3.236 21.756-8.138v49.883l-21.368 8.714z" fill="#274684"/><path d="M118.062 126.964l-3.491 1.154v-21.754l-17.878 6.824v-4.037l21.369-7.785v25.598z" fill="#0E2951"/><path d="M96.693 152.466v-4.037l12.059-4.902v-28.641l-12.059 4.677v-4.036l15.55-4.486v34.889l-15.55 6.536z" fill="#274684"/><path d="M96.693 144.937v-4.036l5.754-1.955V125.33l-4.914 1.859-1.228-3.236 9.633-3.62v21.016l-9.245 3.588z" fill="#274684"/><path d="M105.939 130.905l-3.491 1.153v-6.728l-5.755 2.307V123.6l9.246-3.267v10.572z" fill="#0E2951"/><path d="M112.243 129.143l-3.491 1.153v-15.41l-12.059 4.678v-4.037l15.55-5.639v19.255z" fill="#0E2951"/><path d="M181.812 44.724l12.091-4.581.032 14.48-12.123 4.518V44.724z" fill="#FF8098"/><path d="M121.262 172.233l8.825-21.433 15.227 4.773-8.793 21.433-15.259-4.773z" fill="#0E2951"/><path d="M127.179 168.164l4.461-10.957 7.791 2.435-4.494 10.957-7.758-2.435z" fill="#6780B3"/><path d="M121.165 67.406l24.246-9.066v23.099l-24.246 9.066V67.406z" fill="#3D95D1"/><path d="M121.165 67.406l24.246-9.066v16.755l-24.246 9.067V67.406z" fill="#6780B3"/><path d="M121.165 67.406l24.246-9.066v10.38l-24.246 9.099V67.406z" fill="#053866"/><path d="M121.165 67.406l24.246-9.066v5.19l-24.246 9.099v-5.223zm48.492 61.544l-24.246 9.067 24.246-25.245-24.246 9.066" fill="#0E2951"/><path d="M193.968 127.06l-3.491 1.154V98.771l3.491-1.153v29.442zm-4.591 1.506l-3.491 1.153v-28.865l3.491-1.154v28.866zm-14.547 5.446l-3.524 1.154-.065-28.898 3.492-1.153.097 28.897zm4.848-1.826l-3.524 1.154v-28.866l3.524-1.153v28.865zm4.85-1.794l-3.524 1.154V102.68l3.524-1.153v28.865z" fill="#709FDC"/><path d="M169.657 78.14l24.279-9.1v28.866l-24.279 9.099V78.139z" fill="#0E2951"/><path d="M169.657 135.838l24.279-9.066v28.865l-24.279 9.067v-28.866z" fill="#053866"/><path d="M169.657 78.14l12.156-4.55v14.417l-12.156 4.549V78.139z" fill="#3D95D1"/><path d="M172.987 163.423l-2.91 1.153c0-19.639 10.959-31.525 23.89-36.363v2.884c-11.67 4.357-20.98 19.062-20.98 32.326z" fill="#B9D5FD"/><path d="M179.421 161.116l-3.491 1.154c0-13.841 8.34-24.765 18.071-28.418v3.46c-8.502 3.172-14.58 13.648-14.58 23.804z" fill="#3D95D1"/><path d="M185.594 158.809l-3.265 1.154c0-8.65 4.946-16.98 11.574-19.479l.064 3.3c-5.172 1.954-8.373 8.778-8.373 15.025z" fill="#3376B3"/><path d="M191.059 156.502l-2.91 1.154c-.582-4.614 2.134-9.195 5.754-10.54l.065 3.62c-2.295.833-2.909 2.979-2.909 5.766z" fill="#709FDC"/><path d="M155.174 66.061l4.752-1.794v5.479l-8.341 3.14v-9.58l11.929-4.485v13.712l-15.517 5.83v-17.94l19.106-7.145v22.747L147.997 83.2" stroke="#3D95D1" stroke-width="5" stroke-miterlimit="10"/><path d="M116.801 72.5l-16.488 28.13m0-21.946l16.488 15.762" stroke="#0E2951" stroke-width="6" stroke-miterlimit="10"/><path d="M136.683 108.927l3.879-1.442v4.614l-3.879 1.473v-4.645zm-5.335-4.325l3.879-1.474v4.614l-3.879 1.473v-4.613zm-5.334-4.357l3.879-1.474v4.646l-3.879 1.441v-4.613z" fill="#B9D5FD"/><path d="M175.508 47.095l18.394-6.952.033 21.978-18.427 6.888V47.095z" fill="#053866"/><path d="M180.455 45.205l13.448-5.062.033 16.05-13.481 5.063V45.205z" fill="#709FDC"/><path d="M181.812 88.007l12.123-4.518v14.417l-12.123 4.549V88.007z" fill="#3D95D1"/><path d="M154.366 54.335l39.537-14.192L97.275 4.037l-38.438 14.48 95.529 35.818z" fill="#0D3760"/><path d="M146.607 57.892L96.628 76.505 0 40.463l50.044-18.678 96.563 36.106z" fill="#0D3659"/><path d="M149.711 0l-52.5 4.1L.581 40.176l52.371-3.973L149.711 0z" fill="#043D60"/><path d="M193.968 40.175L157.793 4.934 60.938 41.136l36.337 35.401 96.693-36.362z" fill="#03446B"/><path d="M96.445 121.237V76.614L194 40.28h66l-10 22.61 10 22.61h-66l-97.555 35.736z" fill="#B4D1FA"/><path d="M118.263 87.14c1.671-.633 2.643-2.316 2.643-4.242 0-1.44-.808-2.448-1.78-2.277.835-.55 1.602-1.85 1.602-3.361 0-1.8-.972-2.692-2.561-2.09l-4.066 1.54v12.006l4.162-1.576zm-.287-6.696l-2.739 1.038v-3.87l2.739-1.038c1.027-.389 1.574.268 1.574 1.348 0 1.098-.547 2.133-1.574 2.522zm.055 5.452l-2.794 1.058v-4.14l2.794-1.058c1.122-.426 1.697.329 1.697 1.427 0 1.277-.629 2.308-1.697 2.713zm9.528-2.062c2.698-1.022 4.532-4.381 4.532-7.927 0-3.546-1.834-5.515-4.532-4.493-2.711 1.027-4.532 4.38-4.532 7.927 0 3.546 1.821 5.52 4.532 4.493zm0-1.332c-2.054.778-3.354-.817-3.354-3.607 0-2.808 1.3-5.371 3.354-6.15 2.04-.772 3.355.8 3.355 3.608 0 2.79-1.315 5.376-3.355 6.149zm8.129-1.963v-4.77l2.533-.96c1.807-.685 2.862-2.74 2.862-4.702 0-1.962-1.027-3.23-2.862-2.534l-3.67 1.39V80.97l1.137-.43zm2.396-7.01l-2.396.907v-4.572l2.396-.907c1.082-.41 1.821.246 1.821 1.596s-.739 2.566-1.821 2.976zm9.351 2.775c2.697-1.022 4.532-4.38 4.532-7.927 0-3.546-1.835-5.514-4.532-4.493-2.711 1.027-4.533 4.381-4.533 7.927 0 3.546 1.822 5.52 4.533 4.493zm0-1.332c-2.054.779-3.355-.817-3.355-3.607 0-2.808 1.301-5.37 3.355-6.149 2.04-.772 3.354.8 3.354 3.608 0 2.79-1.314 5.376-3.354 6.148zm14.605-4.416V58.55l-1.137.43v5.166l-5.34 2.023v-5.166l-1.136.43V73.44l1.136-.431v-5.508l5.34-2.023v5.508l1.137-.43zm9.748-3.693l-4.135-4.734 3.806-7.148-1.424.54-4.039 7.74v-6.21l-1.137.43v12.006l1.137-.43v-4.032l.917-1.716 3.464 4.088 1.411-.534zm9.798-3.712l-3.684-10.61-1.41.533-3.669 13.397 1.3-.493.808-2.97 4.546-1.722.808 2.358 1.301-.493zm-2.451-3.068l-3.875 1.468 1.944-7.198 1.931 5.73zm-54.344 46.584V94.661l-7.613 2.884v12.006l1.136-.431V98.446l5.34-2.023v10.674l1.137-.43zm3.956-1.499v-4.77l2.533-.96c1.807-.684 2.861-2.74 2.861-4.702 0-1.962-1.027-3.229-2.861-2.534l-3.67 1.39V105.6l1.137-.431zm2.396-7.01l-2.396.908v-4.572l2.396-.908c1.081-.41 1.821.246 1.821 1.596s-.74 2.567-1.821 2.976zm9.351 2.776c2.697-1.022 4.532-4.381 4.532-7.927 0-3.546-1.835-5.515-4.532-4.493-2.712 1.027-4.533 4.38-4.533 7.927 0 3.546 1.821 5.52 4.533 4.493zm0-1.332c-2.054.778-3.355-.817-3.355-3.607 0-2.808 1.301-5.371 3.355-6.15 2.04-.772 3.354.8 3.354 3.608 0 2.79-1.314 5.376-3.354 6.149zm5.854 1.112l1.136-.43V98.07l6.805-2.578v2.214l1.137-.43v-3.547l-.836.317V83.37l-5.586 2.117-.561 6.243c-.384 4.213-1 5.058-2.095 5.563v3.42zm3.217-9.3l.452-4.978 3.437-1.302v9.342l-5.285 2.002c.671-.92 1.164-2.439 1.396-5.065zm15.81-.122l-3.683-10.61-1.41.534-3.67 13.396 1.301-.493.808-2.97 4.546-1.722.808 2.358 1.3-.493zm-2.451-3.068l-3.874 1.468 1.944-7.198 1.93 5.73zm4.905 2.138l3.464-6.712.548.62v4.572l1.137-.43V83.84l.547-1.036 3.464 4.088 1.424-.54-4.148-4.728 3.82-7.153-1.424.54-3.683 7.047v-5.652l-1.137.43v5.652l-3.67-4.261-1.424.54 3.807 4.263-4.135 7.867 1.41-.535z" fill="#000"/><path d="M194 40.299h66l-10 22.6L260 85.5h-66V40.299z" fill="#000" fill-opacity=".05"/><path d="M226.01 74.92c-3.968.85-7.085.355-8.148 0v3.189c3.968 2.267 7.085.944 8.148 0V74.92zm-11.69-4.605l-3.543-6.023c8.502 3.118 19.248 1.417 23.027 0l-4.251 6.023c-6.802 1.983-12.99.826-15.233 0zm-10.276-15.587l3.188 4.96c5.952 3.4 21.61 2.48 28.34 1.062l4.96-6.73c-13.603 5.668-29.993 2.834-36.488.708z" fill="#C43B55"/><path fill-rule="evenodd" clip-rule="evenodd" d="M221.799 47.394a74.64 74.64 0 00-3.111.064.698.698 0 11-.059-1.393 76.127 76.127 0 013.17-.065c5.535 0 10.57.589 14.242 1.554 1.831.48 3.363 1.066 4.454 1.743 1.054.655 1.892 1.524 1.892 2.626 0 1.103-.838 1.972-1.892 2.626-1.091.678-2.623 1.263-4.454 1.744-3.672.965-8.707 1.553-14.242 1.553-5.534 0-10.57-.588-14.242-1.553-1.831-.481-3.363-1.066-4.454-1.744-1.053-.654-1.892-1.523-1.892-2.626 0-.892.555-1.632 1.296-2.212.751-.588 1.803-1.104 3.061-1.55 2.523-.896 6.033-1.566 10.066-1.908a.698.698 0 11.117 1.39c-3.965.335-7.346.99-9.716 1.83-1.188.422-2.083.878-2.666 1.335-.594.465-.762.845-.762 1.115 0 .34.274.847 1.234 1.443.922.573 2.303 1.114 4.071 1.579 3.527.926 8.437 1.508 13.887 1.508 5.451 0 10.361-.582 13.887-1.508 1.769-.465 3.149-1.006 4.072-1.58.959-.595 1.234-1.101 1.234-1.442 0-.34-.275-.846-1.234-1.443-.923-.572-2.303-1.114-4.072-1.578-3.526-.927-8.436-1.508-13.887-1.508z" fill="#000"/><path fill-rule="evenodd" clip-rule="evenodd" d="M241.032 53.086c.32.214.406.647.191.967L226.86 75.479v1.808c0 1.063-.696 2.047-1.777 2.312-2.259.554-3.956.536-6.198-.004-1.088-.262-1.796-1.249-1.796-2.322v-1.446l-14.364-21.426a.697.697 0 111.16-.775l14.482 21.602c.077.115.118.25.118.388v1.657c0 .474.309.866.727.967 2.035.49 3.505.504 5.538.006.409-.1.714-.488.714-.959v-2.02c0-.138.041-.273.118-.387l14.481-21.603a.7.7 0 01.969-.191z" fill="#000"/><path fill-rule="evenodd" clip-rule="evenodd" d="M236.872 59.572c.202.327.1.757-.228.958-1.251.769-3.201 1.342-5.484 1.735-2.304.397-5.019.622-7.851.655-5.646.066-11.854-.633-16.247-2.333l.505-1.3c4.157 1.61 10.163 2.304 15.726 2.24 2.773-.033 5.413-.254 7.629-.636 2.237-.385 3.973-.922 4.99-1.548a.698.698 0 01.96.229zm-26.73 5.197a.698.698 0 01.883-.441c5.096 1.696 10.911 2.098 16.593 1.19a.697.697 0 11.221 1.376c-5.884.94-11.927.53-17.255-1.244a.697.697 0 01-.442-.881zm23.488.014a.697.697 0 01-.461.872c-.88.272-1.769.511-2.665.72a.698.698 0 11-.316-1.358 37.04 37.04 0 002.569-.694.698.698 0 01.873.46zm-11.239 7.11c-2.933.022-6.075-.47-8.872-1.55l.503-1.3c2.612 1.01 5.577 1.477 8.358 1.455 2.789-.02 5.336-.533 7.13-1.429l.624 1.247c-2.043 1.02-4.818 1.554-7.743 1.576zm-2.991 4.293a11.003 11.003 0 01-2.61-.81l.591-1.263c.654.305 1.431.545 2.275.703a.697.697 0 11-.256 1.37zm7.594-.818c-1.579.788-3.526 1.1-5.391 1.05a.698.698 0 11.038-1.394c1.707.046 3.41-.244 4.729-.902l.624 1.246z" fill="#000"/></svg>