<svg width="218" height="200" fill="none" xmlns="http://www.w3.org/2000/svg"><path d="M35.016 196l-96.434-36.074-.032-115.655 96.499 36.106L35.016 196z" fill="#053866"/><path d="M131.709 159.638l-96.531-36.235.097-115.366 96.628 36.106-.194 115.495z" fill="#102E5B"/><path d="M35.017 196l96.886-36.49V44.143L35.049 80.377 35.017 196z" fill="#054270"/><path d="M-61.418 159.926l96.628-36.779.065-115.11L-61.45 44.27l.032 115.655z" fill="#0A2D49"/><path d="M35.016 196l-96.434-36.106-.032-115.623 96.499 36.106L35.016 196z" fill="#053866"/><path d="M10.834 100.529l-24.084-9.067V62.596l24.084 9.067v28.866z" fill="#709FDC"/><path d="M34.918 109.467l-24.084-8.939V71.663l24.214 8.714-.13 29.09z" fill="#6780B3"/><path d="M10.834 129.394l-24.084-9.066V91.462l24.084 9.067v28.865z" fill="#3D95D1"/><path d="M34.918 138.333l-24.084-8.939v-28.865l24.084 8.938v28.866z" fill="#B9D5FD"/><path d="M10.834 158.26l-24.084-9.067v-28.865l24.084 9.066v28.866z" fill="#0E2951"/><path d="M34.918 167.198l-24.084-8.938v-28.866l24.084 8.939v28.865z" fill="#709FDC"/><path d="M10.834 187.125l-24.084-9.066v-28.866l24.084 9.067v28.865z" fill="#B9D5FD"/><path d="M35.015 196l-24.181-8.874V158.26l24.084 8.938.097 28.802z" fill="#3D95D1"/><path d="M34.305 163.162l-20.399-7.657v-49.883l20.787 7.529v4.037l-17.295-6.568v42.482l16.713 6.247.194 3.813z" fill="#274684"/><path d="M34.693 163.963l-20.787-8.458v-25.438l3.492 1.153v21.882l17.295 6.824v4.037z" fill="#0E2951"/><path d="M34.306 155.665l-14.613-5.51v-36.01l15 5.382v4.037l-11.508-4.422v29.218l11.509 4.069-.388 3.236z" fill="#274684"/><path d="M34.304 148.745l-8.34-3.14v-21.017l8.728 3.012v4.037l-5.237-2.051v13.616l5.237 2.275-.388 3.268z" fill="#274684"/><path d="M34.692 148.937l-8.728-3.332v-11.021l3.491 1.154v7.465l5.237 1.698v4.036z" fill="#0E2951"/><path d="M34.694 156.466l-15-5.735v-18.485l3.49 1.153v14.961l11.51 4.069v4.037zM10.738 82.235L2.009 97.07l-15.161-16.18 8.76-14.833 15.13 16.18z" fill="#0E2951"/><path d="M4.887 81.915l-4.461 7.56-7.727-8.233 4.461-7.593 7.727 8.266z" fill="#6780B3"/><path d="M10.834 187.126l-24.084-9.067V154.96l24.084 9.067v23.099z" fill="#3D95D1"/><path d="M10.834 187.126l-24.084-9.067v-16.755l24.084 9.066v16.756z" fill="#6780B3"/><path d="M10.834 187.126l-24.084-9.067v-10.412l24.084 9.099v10.38z" fill="#053866"/><path d="M10.834 187.126l-24.084-9.067v-5.19l24.084 9.067v5.19z" fill="#0E2951"/><path d="M15.167 185.299l16.39-15.762m0 21.914l-16.39-28.097" stroke="#0E2951" stroke-width="6" stroke-miterlimit="10"/><path d="M.716 142.337l-3.847-1.473v-4.614l3.847 1.442v4.645zm5.302 8.33l-3.847-1.442v-4.613l3.847 1.442v4.613z" fill="#B9D5FD"/><path d="M35.049 80.377l96.854-36.234.033 115.495L35.016 196l.033-115.623z" fill="#053866"/><path d="M107.657 111.005l24.279-9.099v28.866l-24.279 9.066v-28.833z" fill="#B9D5FD"/><path d="M83.411 120.072l24.246-9.067v28.834l-24.246 9.098v-28.865z" fill="#274684"/><path d="M59.165 129.138l24.246-9.067v28.866l-24.246 9.067v-28.866z" fill="#053866"/><path d="M34.919 138.333l24.246-9.195v28.866l-24.246 9.195v-28.866zm48.492-47.127l24.246-9.067v28.866l-24.246 9.066V91.206z" fill="#B9D5FD"/><path d="M59.165 100.272l24.246-9.066v28.865l-24.246 9.067v-28.866z" fill="#0E2951"/><path d="M34.919 109.467l24.246-9.195v28.866l-24.246 9.195v-28.866z" fill="#709FDC"/><path d="M83.411 148.937l24.246-9.099v28.866l-24.246 9.099v-28.866z" fill="#0E2951"/><path d="M59.165 158.004l24.246-9.067v28.866l-24.246 9.066v-28.865z" fill="#709FDC"/><path d="M34.919 167.198l24.246-9.195v28.866L35.015 196l-.096-28.802zm72.738-113.924l24.246-9.131.033 28.898-24.279 9.098V53.274z" fill="#6780B3"/><path d="M83.411 62.34l24.246-9.066v28.865l-24.246 9.067V62.34z" fill="#053866"/><path d="M59.165 71.406l24.246-9.066v28.865l-24.246 9.067V71.406z" fill="#B9D5FD"/><path d="M35.048 80.377l24.117-8.97v28.865l-24.246 9.195.13-29.09z" fill="#3D95D1"/><path d="M34.693 163.963v-4.037l17.877-7.08v-42.482l-17.037 6.376-1.228-3.236 21.756-8.138v49.883l-21.368 8.714z" fill="#274684"/><path d="M56.062 130.964l-3.491 1.154v-21.754l-17.878 6.824v-4.037l21.37-7.785v25.598z" fill="#0E2951"/><path d="M34.693 156.466v-4.037l12.059-4.902v-28.641l-12.059 4.677v-4.036l15.55-4.486v34.889l-15.55 6.536z" fill="#274684"/><path d="M34.693 148.937v-4.036l5.754-1.955V129.33l-4.914 1.859-1.228-3.236 9.633-3.62v21.016l-9.245 3.588z" fill="#274684"/><path d="M43.94 134.905l-3.492 1.153v-6.728l-5.755 2.307V127.6l9.246-3.267v10.572z" fill="#0E2951"/><path d="M50.243 133.143l-3.491 1.153v-15.41l-12.059 4.678v-4.037l15.55-5.639v19.255z" fill="#0E2951"/><path d="M119.812 48.724l12.091-4.581.032 14.48-12.123 4.518V48.724z" fill="#FF8098"/><path d="M59.262 176.233l8.825-21.433 15.227 4.773-8.793 21.433-15.26-4.773z" fill="#0E2951"/><path d="M65.179 172.164l4.461-10.957 7.791 2.435-4.494 10.957-7.758-2.435z" fill="#6780B3"/><path d="M59.165 71.406l24.246-9.066v23.099l-24.246 9.066V71.406z" fill="#3D95D1"/><path d="M59.165 71.406l24.246-9.066v16.755l-24.246 9.067V71.406z" fill="#6780B3"/><path d="M59.165 71.406l24.246-9.066v10.38l-24.246 9.099V71.406z" fill="#053866"/><path d="M59.165 71.406l24.246-9.066v5.19l-24.246 9.099v-5.223zm48.492 61.544l-24.246 9.067 24.246-25.245-24.246 9.066" fill="#0E2951"/><path d="M131.968 131.06l-3.491 1.154v-29.443l3.491-1.153v29.442zm-4.591 1.506l-3.491 1.153v-28.865l3.491-1.154v28.866zm-14.547 5.446l-3.524 1.154-.065-28.898 3.492-1.153.097 28.897zm4.848-1.826l-3.524 1.154v-28.866l3.524-1.153v28.865zm4.85-1.794l-3.524 1.154V106.68l3.524-1.153v28.865z" fill="#709FDC"/><path d="M107.657 82.14l24.279-9.1v28.866l-24.279 9.099V82.139z" fill="#0E2951"/><path d="M107.657 139.838l24.279-9.066v28.865l-24.279 9.067v-28.866z" fill="#053866"/><path d="M107.657 82.14l12.156-4.55v14.417l-12.156 4.549V82.139z" fill="#3D95D1"/><path d="M110.987 167.423l-2.91 1.153c0-19.639 10.959-31.525 23.89-36.363v2.884c-11.67 4.357-20.98 19.062-20.98 32.326z" fill="#B9D5FD"/><path d="M117.421 165.116l-3.491 1.154c0-13.841 8.34-24.765 18.071-28.418v3.46c-8.502 3.172-14.58 13.648-14.58 23.804z" fill="#3D95D1"/><path d="M123.594 162.809l-3.265 1.154c0-8.65 4.946-16.98 11.574-19.479l.064 3.3c-5.172 1.954-8.373 8.778-8.373 15.025z" fill="#3376B3"/><path d="M129.059 160.502l-2.91 1.154c-.582-4.614 2.134-9.195 5.754-10.54l.065 3.62c-2.295.833-2.909 2.979-2.909 5.766z" fill="#709FDC"/><path d="M93.174 70.061l4.752-1.794v5.479l-8.34 3.14v-9.58l11.928-4.485v13.712l-15.517 5.83v-17.94l19.106-7.145v22.747L85.997 87.2" stroke="#3D95D1" stroke-width="5" stroke-miterlimit="10"/><path d="M54.8 76.5l-16.486 28.13m-.001-21.946l16.488 15.762" stroke="#0E2951" stroke-width="6" stroke-miterlimit="10"/><path d="M74.683 112.927l3.879-1.442v4.614l-3.88 1.473v-4.645zm-5.335-4.325l3.879-1.474v4.614l-3.88 1.473v-4.613zm-5.334-4.357l3.879-1.474v4.646l-3.88 1.441v-4.613z" fill="#B9D5FD"/><path d="M113.508 51.095l18.394-6.952.033 21.978-18.427 6.888V51.095z" fill="#053866"/><path d="M118.455 49.205l13.448-5.062.033 16.05-13.481 5.063V49.205z" fill="#709FDC"/><path d="M119.812 92.007l12.123-4.518v14.417l-12.123 4.549V92.007z" fill="#3D95D1"/><path d="M92.366 58.335l39.537-14.192L35.275 8.037l-38.438 14.48 95.529 35.818z" fill="#0D3760"/><path d="M84.607 61.892L34.628 80.505-62 44.463l50.044-18.678 96.563 36.106z" fill="#0D3659"/><path d="M87.71 4l-52.5 4.1-96.628 36.075 52.371-3.973L87.711 4z" fill="#043D60"/><path d="M131.968 44.175L95.793 8.934-1.062 45.136l36.337 35.401 96.693-36.362z" fill="#03446B"/><path d="M34.445 125.237V80.614L132 44.28h66l-10 22.61 10 22.61h-66l-97.555 35.736z" fill="#B4D1FA"/><path d="M56.263 91.14c1.67-.633 2.643-2.316 2.643-4.242 0-1.44-.808-2.448-1.78-2.277.835-.55 1.602-1.85 1.602-3.361 0-1.8-.972-2.692-2.56-2.09L52.1 80.71v12.006l4.162-1.576zm-.287-6.696l-2.739 1.038v-3.87l2.739-1.038c1.027-.389 1.574.268 1.574 1.348 0 1.098-.547 2.133-1.574 2.522zm.055 5.452l-2.794 1.058v-4.14l2.794-1.058c1.122-.426 1.697.329 1.697 1.427 0 1.277-.63 2.308-1.697 2.713zm9.528-2.062c2.698-1.022 4.532-4.381 4.532-7.927 0-3.546-1.834-5.515-4.532-4.493-2.71 1.027-4.532 4.38-4.532 7.927 0 3.546 1.821 5.52 4.532 4.493zm0-1.332c-2.054.778-3.354-.817-3.354-3.607 0-2.808 1.3-5.371 3.354-6.15 2.04-.772 3.355.8 3.355 3.608 0 2.79-1.315 5.376-3.355 6.149zm8.129-1.963v-4.77l2.533-.96c1.807-.685 2.862-2.74 2.862-4.702 0-1.962-1.027-3.23-2.862-2.534l-3.67 1.39V84.97l1.137-.43zm2.396-7.01l-2.396.907v-4.572l2.396-.907c1.082-.41 1.821.246 1.821 1.596s-.74 2.566-1.821 2.976zm9.35 2.775c2.698-1.022 4.533-4.38 4.533-7.927 0-3.546-1.835-5.514-4.532-4.493-2.711 1.027-4.532 4.381-4.532 7.927 0 3.546 1.82 5.52 4.532 4.493zm0-1.332c-2.053.779-3.354-.817-3.354-3.607 0-2.808 1.3-5.37 3.355-6.149 2.04-.772 3.354.8 3.354 3.608 0 2.79-1.314 5.376-3.354 6.148zm14.606-4.416V62.55l-1.137.43v5.166l-5.34 2.023v-5.166l-1.136.43V77.44l1.136-.431v-5.508l5.34-2.023v5.508l1.137-.43zm9.748-3.693l-4.135-4.734 3.806-7.148-1.424.54-4.039 7.74v-6.21l-1.137.43v12.006l1.137-.43v-4.032l.917-1.716 3.464 4.088 1.411-.534zm9.798-3.712l-3.684-10.61-1.41.533-3.669 13.397 1.3-.493.808-2.97 4.546-1.722.808 2.358 1.301-.493zm-2.451-3.068l-3.875 1.468 1.944-7.198 1.931 5.73zm-54.344 46.584V98.661l-7.613 2.884v12.006l1.136-.431v-10.674l5.34-2.023v10.674l1.137-.43zm3.956-1.499v-4.77l2.533-.96c1.807-.684 2.861-2.74 2.861-4.702 0-1.962-1.026-3.229-2.861-2.534l-3.67 1.39V109.6l1.137-.431zm2.396-7.01l-2.396.908v-4.572l2.396-.908c1.081-.41 1.82.246 1.82 1.596s-.739 2.567-1.82 2.976zm9.35 2.776c2.698-1.022 4.533-4.381 4.533-7.927 0-3.546-1.835-5.515-4.532-4.493-2.712 1.027-4.533 4.38-4.533 7.927 0 3.546 1.821 5.52 4.532 4.493zm0-1.332c-2.053.778-3.354-.817-3.354-3.607 0-2.808 1.3-5.371 3.355-6.15 2.04-.772 3.354.8 3.354 3.608 0 2.79-1.314 5.376-3.355 6.149zm5.855 1.112l1.136-.43v-2.214l6.805-2.578v2.214l1.137-.431v-3.546l-.835.317V87.37l-5.587 2.117-.562 6.243c-.383 4.213-.999 5.058-2.094 5.563v3.42zm3.217-9.3l.452-4.978 3.437-1.302v9.342l-5.285 2.002c.67-.92 1.164-2.439 1.396-5.065zm15.81-.122l-3.683-10.61-1.41.534-3.67 13.396 1.301-.493.808-2.97 4.546-1.722.808 2.358 1.3-.493zm-2.451-3.068l-3.875 1.468 1.945-7.198 1.93 5.73zm4.905 2.138l3.464-6.712.548.62v4.572l1.137-.43V87.84l.547-1.036 3.464 4.088 1.424-.54-4.148-4.728 3.82-7.153-1.424.54-3.683 7.047v-5.652l-1.137.43v5.652l-3.67-4.261-1.424.54 3.807 4.263-4.135 7.867 1.41-.535z" fill="#000"/><path d="M132 44.299h66l-10 22.6L198 89.5h-66V44.299z" fill="#000" fill-opacity=".05"/><path d="M164.01 78.92c-3.968.85-7.085.355-8.148 0v3.189c3.968 2.267 7.085.944 8.148 0V78.92zm-11.69-4.605l-3.543-6.023c8.502 3.118 19.248 1.417 23.027 0l-4.251 6.023c-6.802 1.983-12.99.826-15.233 0zm-10.276-15.587l3.188 4.96c5.952 3.4 21.61 2.48 28.34 1.062l4.96-6.73c-13.603 5.668-29.993 2.834-36.488.708z" fill="#C43B55"/><path fill-rule="evenodd" clip-rule="evenodd" d="M159.799 51.394a74.64 74.64 0 00-3.111.064.698.698 0 11-.059-1.393 76.127 76.127 0 013.17-.065c5.535 0 10.57.589 14.242 1.554 1.831.48 3.363 1.066 4.454 1.743 1.054.655 1.892 1.524 1.892 2.626 0 1.103-.838 1.972-1.892 2.626-1.091.678-2.623 1.263-4.454 1.744-3.672.965-8.707 1.553-14.242 1.553-5.534 0-10.57-.588-14.242-1.553-1.831-.481-3.363-1.066-4.454-1.744-1.053-.654-1.892-1.523-1.892-2.626 0-.892.555-1.632 1.296-2.212.751-.588 1.803-1.104 3.061-1.55 2.523-.896 6.033-1.566 10.066-1.908a.698.698 0 11.117 1.39c-3.965.335-7.346.99-9.716 1.83-1.188.422-2.083.878-2.666 1.335-.594.465-.762.845-.762 1.115 0 .34.274.847 1.234 1.443.922.573 2.303 1.114 4.071 1.579 3.527.926 8.437 1.508 13.887 1.508 5.451 0 10.361-.582 13.887-1.508 1.769-.465 3.149-1.006 4.072-1.58.959-.595 1.234-1.101 1.234-1.442 0-.34-.275-.846-1.234-1.443-.923-.572-2.303-1.114-4.072-1.578-3.526-.927-8.436-1.508-13.887-1.508z" fill="#000"/><path fill-rule="evenodd" clip-rule="evenodd" d="M179.032 57.086c.32.214.406.647.191.967L164.86 79.479v1.808c0 1.063-.696 2.047-1.777 2.312-2.259.554-3.956.536-6.198-.004-1.088-.262-1.796-1.249-1.796-2.322v-1.446l-14.364-21.426a.697.697 0 111.16-.775l14.482 21.602c.077.115.118.25.118.388v1.657c0 .474.309.866.727.967 2.035.49 3.505.504 5.538.006.409-.1.714-.488.714-.959v-2.02c0-.138.041-.273.118-.387l14.481-21.603a.7.7 0 01.969-.191z" fill="#000"/><path fill-rule="evenodd" clip-rule="evenodd" d="M174.872 63.572c.202.327.1.757-.228.958-1.251.769-3.201 1.342-5.484 1.735-2.304.397-5.019.622-7.851.655-5.646.066-11.854-.633-16.247-2.333l.505-1.3c4.157 1.61 10.163 2.304 15.726 2.24 2.773-.033 5.413-.254 7.629-.636 2.237-.385 3.973-.922 4.99-1.548a.698.698 0 01.96.229zm-26.73 5.197a.698.698 0 01.883-.441c5.096 1.696 10.911 2.098 16.593 1.19a.697.697 0 11.221 1.376c-5.884.94-11.927.53-17.255-1.244a.697.697 0 01-.442-.881zm23.488.014a.697.697 0 01-.461.872c-.88.272-1.769.511-2.665.72a.698.698 0 11-.316-1.358 37.04 37.04 0 002.569-.694.698.698 0 01.873.46zm-11.239 7.11c-2.933.022-6.075-.47-8.872-1.55l.503-1.3c2.612 1.01 5.577 1.477 8.358 1.455 2.789-.02 5.336-.533 7.13-1.429l.624 1.247c-2.043 1.02-4.818 1.554-7.743 1.576zm-2.991 4.293a11.003 11.003 0 01-2.61-.81l.591-1.263c.654.305 1.431.545 2.275.703a.697.697 0 11-.256 1.37zm7.594-.818c-1.579.788-3.526 1.1-5.391 1.05a.698.698 0 11.038-1.394c1.707.046 3.41-.244 4.729-.902l.624 1.246z" fill="#000"/></svg>