<svg width="266" height="200" fill="none" xmlns="http://www.w3.org/2000/svg"><path d="M83.517 196l-95.937-36.074-.032-115.655 96.001 36.106L83.517 196z" fill="#053866"/><path d="M179.71 159.637l-96.033-36.234.096-115.366 96.13 36.106-.193 115.494z" fill="#102E5B"/><path d="M83.517 196l96.387-36.49V44.143L83.549 80.377 83.517 196z" fill="#054270"/><path d="M-12.42 159.926l96.13-36.779.065-115.11-96.227 36.234.032 115.655z" fill="#0A2D49"/><path d="M83.517 196l-95.937-36.106-.032-115.623 96.001 36.106L83.517 196z" fill="#053866"/><path d="M11.54 82.395l-23.96-9.066-.032-29.058L11.54 53.53v28.865z" fill="#053866"/><path d="M-6.053 72.175a15.91 15.91 0 01-6.368-1.153l-.064-3.108c4.92 1.858 9.648 1.506 13.25-.96 4.342-2.98 7.076-7.85 7.076-14.994l2.894 1.153c0 8.074-2.412 12.655-7.526 16.179a17.091 17.091 0 01-9.262 2.883z" fill="#B9D5FD"/><path d="M35.5 91.462l-23.96-9.067V53.53l23.96 9.066v28.866z" fill="#0E2951"/><path d="M59.46 100.529l-23.961-9.067V62.596l23.96 9.067v28.866z" fill="#709FDC"/><path d="M83.42 109.467l-23.961-8.939V71.663l24.089 8.714-.129 29.09z" fill="#6780B3"/><path d="M11.54 111.261l-23.96-9.066V73.329l23.96 9.066v28.866z" fill="#B9D5FD"/><path d="M35.5 120.328l-23.96-9.067V82.395l23.96 9.067v28.866z" fill="#274684"/><path d="M59.46 129.394l-23.961-9.066V91.462l23.96 9.067v28.865z" fill="#3D95D1"/><path d="M83.42 138.333l-23.961-8.939v-28.865l23.96 8.938v28.866zM35.5 149.194l-23.96-9.067v-28.866l23.96 9.067v28.866z" fill="#B9D5FD"/><path d="M59.46 158.26l-23.961-9.066v-28.866l23.96 9.066v28.866z" fill="#0E2951"/><path d="M83.42 167.198l-23.961-8.938v-28.866l23.96 8.939v28.865z" fill="#709FDC"/><path d="M11.54 168.993l-23.96-9.099v-28.866l23.96 9.099v28.866z" fill="#6780B3"/><path d="M35.5 178.059l-23.96-9.067v-28.865l23.96 9.066v28.866z" fill="#053866"/><path d="M59.46 187.126l-23.961-9.067v-28.866l23.96 9.067v28.866z" fill="#B9D5FD"/><path d="M83.516 196l-24.057-8.874V158.26l23.96 8.938.097 28.802zM-7.532 66.185a12.351 12.351 0 01-4.889-.93v-3.46c3.441 1.314 7.687.865 9.81-.544 3.537-2.339 5.274-5.959 5.274-10.989l2.894 1.153c0 6.184-2.219 9.964-6.175 12.687a12.255 12.255 0 01-6.914 2.083z" fill="#3D95D1"/><path d="M82.808 163.162l-20.293-7.657v-49.883l20.68 7.529v4.037l-17.207-6.568v42.482l16.627 6.247.193 3.813z" fill="#274684"/><path d="M83.194 163.963l-20.68-8.458v-25.438l3.474 1.153v21.882l17.206 6.824v4.037z" fill="#0E2951"/><path d="M82.81 155.665l-14.538-5.51v-36.01l14.923 5.382v4.037l-11.45-4.422v29.218l11.45 4.069-.386 3.236z" fill="#274684"/><path d="M82.808 148.745l-8.297-3.14v-21.017l8.683 3.012v4.037l-5.21-2.051v13.616l5.21 2.275-.386 3.268z" fill="#274684"/><path d="M83.194 148.937l-8.683-3.332v-11.02l3.473 1.153v7.465l5.21 1.698v4.036z" fill="#0E2951"/><path d="M83.195 156.466l-14.922-5.735v-18.485l3.473 1.153v14.962l11.45 4.068v4.037z" fill="#0E2951"/><path d="M5.782 166.814l-18.203-6.92V137.98l18.203 6.888v21.946z" fill="#053866"/><path d="M59.364 82.235L50.68 97.07 35.597 80.89l8.715-14.833 15.052 16.18z" fill="#0E2951"/><path d="M53.542 81.915l-4.438 7.56-7.687-8.233 4.438-7.593 7.687 8.266z" fill="#6780B3"/><path d="M59.46 187.126l-23.961-9.067V154.96l23.96 9.067v23.099z" fill="#3D95D1"/><path d="M59.46 187.126l-23.961-9.067v-16.755l23.96 9.066v16.756z" fill="#6780B3"/><path d="M59.46 187.126l-23.961-9.067v-10.412l23.96 9.099v10.38z" fill="#053866"/><path d="M59.46 187.126l-23.961-9.067v-5.19l23.96 9.067v5.19zM11.54 89.283L35.5 98.35l-23.96 7.144 23.96 9.067-23.96-25.278z" fill="#0E2951"/><path d="M10.188 110.845l-2.894-1.154V80.826l2.894 1.153v28.866zm-5.05-2.115l-3.473-1.153V78.743l3.473 1.154v28.833z" fill="#709FDC"/><path d="M11.54 140.127l-23.96-9.099v-28.833l23.96 9.066v28.866z" fill="#0E2951"/><path d="M11.54 140.127l-11.965-4.55v-14.416l11.964 4.517v14.449z" fill="#3D95D1"/><path d="M25.98 163.194l-4.92-1.858v-5.703l8.619 3.268v9.995l-12.318-4.677V149.93l15.984 6.055v18.678l-19.65-7.465v-23.675l19.65 7.432" stroke="#3D95D1" stroke-width="5" stroke-miterlimit="10"/><path d="M63.77 185.299l16.305-15.762m0 21.914L63.77 163.354" stroke="#0E2951" stroke-width="6" stroke-miterlimit="10"/><path d="M44.12 133.976l-3.828-1.442v-4.613l3.827 1.441v4.614zm5.274 8.361l-3.828-1.473v-4.614l3.828 1.442v4.645zm5.274 8.33l-3.827-1.442v-4.613l3.827 1.441v4.614z" fill="#B9D5FD"/><path d="M83.549 80.377l96.355-36.234.032 115.495L83.516 196l.033-115.623z" fill="#053866"/><path d="M155.782 111.005l24.153-9.099v28.866l-24.153 9.066v-28.833z" fill="#B9D5FD"/><path d="M131.661 120.071l24.121-9.066v28.834l-24.121 9.098v-28.866z" fill="#274684"/><path d="M107.541 129.138l24.121-9.066v28.865l-24.121 9.067v-28.866z" fill="#053866"/><path d="M83.419 138.333l24.121-9.195v28.866l-24.121 9.195v-28.866zm48.242-47.127l24.121-9.067v28.866l-24.121 9.066V91.206z" fill="#B9D5FD"/><path d="M107.541 100.272l24.121-9.066v28.865l-24.121 9.067v-28.866z" fill="#0E2951"/><path d="M83.419 109.467l24.121-9.195v28.866l-24.121 9.195v-28.866z" fill="#709FDC"/><path d="M131.661 148.937l24.121-9.099v28.866l-24.121 9.099v-28.866z" fill="#0E2951"/><path d="M107.541 158.004l24.121-9.067v28.866l-24.121 9.066v-28.865z" fill="#709FDC"/><path d="M83.419 167.198l24.121-9.194v28.865L83.515 196l-.096-28.802zm72.363-113.924l24.121-9.131.032 28.898-24.153 9.098V53.274z" fill="#6780B3"/><path d="M131.661 62.34l24.121-9.066v28.865l-24.121 9.067V62.34z" fill="#053866"/><path d="M107.541 71.406l24.121-9.066v28.866l-24.121 9.066V71.406z" fill="#B9D5FD"/><path d="M83.548 80.377l23.992-8.97v28.865l-24.121 9.195.129-29.09z" fill="#3D95D1"/><path d="M83.195 163.963v-4.037l17.785-7.08v-42.482l-16.95 6.376-1.221-3.236 21.644-8.138v49.883l-21.258 8.714z" fill="#274684"/><path d="M104.453 130.964l-3.473 1.154v-21.754l-17.786 6.824v-4.037l21.259-7.785v25.598z" fill="#0E2951"/><path d="M83.194 156.466v-4.037l11.996-4.902v-28.641l-11.996 4.677v-4.036l15.47-4.485v34.888l-15.47 6.536z" fill="#274684"/><path d="M83.195 148.937v-4.036l5.724-1.955V129.33l-4.888 1.859-1.222-3.236 9.584-3.62v21.016l-9.198 3.588z" fill="#274684"/><path d="M92.392 134.905l-3.473 1.153v-6.728l-5.725 2.307V127.6l9.198-3.267v10.572z" fill="#0E2951"/><path d="M98.664 133.143l-3.474 1.153v-15.41l-11.996 4.678v-4.037l15.47-5.639v19.255z" fill="#0E2951"/><path d="M167.875 48.724l12.028-4.581.033 14.48-12.061 4.518V48.724z" fill="#FF8098"/><path d="M107.637 176.233l8.78-21.433 15.148 4.773-8.748 21.433-15.18-4.773z" fill="#0E2951"/><path d="M113.522 172.164l4.439-10.957 7.751 2.435-4.471 10.957-7.719-2.435z" fill="#6780B3"/><path d="M107.541 71.406l24.121-9.066v23.099l-24.121 9.067v-23.1z" fill="#3D95D1"/><path d="M107.541 71.406l24.121-9.066v16.755l-24.121 9.067V71.406z" fill="#6780B3"/><path d="M107.541 71.406l24.121-9.066v10.38l-24.121 9.099V71.406z" fill="#053866"/><path d="M107.541 71.406l24.121-9.066v5.19l-24.121 9.099v-5.223zm48.241 61.544l-24.121 9.067 24.121-25.245-24.121 9.066" fill="#0E2951"/><path d="M179.969 131.06l-3.474 1.154v-29.443l3.474-1.153v29.442zm-4.568 1.506l-3.473 1.153v-28.865l3.473-1.154v28.866zm-14.473 5.446l-3.505 1.154-.065-28.898 3.474-1.153.096 28.897zm4.825-1.826l-3.506 1.154v-28.866l3.506-1.153v28.865zm4.824-1.794l-3.506 1.154V106.68l3.506-1.154v28.866z" fill="#709FDC"/><path d="M155.782 82.14l24.153-9.1v28.866l-24.153 9.099V82.139z" fill="#0E2951"/><path d="M155.782 139.838l24.153-9.066v28.865l-24.153 9.067v-28.866z" fill="#053866"/><path d="M155.782 82.14l12.093-4.55v14.417l-12.093 4.549V82.139z" fill="#3D95D1"/><path d="M159.095 167.423l-2.895 1.153c0-19.639 10.903-31.525 23.767-36.363v2.884c-11.61 4.357-20.872 19.062-20.872 32.326z" fill="#B9D5FD"/><path d="M165.496 165.116l-3.474 1.153c0-13.84 8.298-24.764 17.979-28.417v3.46c-8.459 3.172-14.505 13.648-14.505 23.804z" fill="#3D95D1"/><path d="M171.638 162.809l-3.248 1.154c0-8.65 4.92-16.98 11.513-19.479l.065 3.3c-5.146 1.954-8.33 8.778-8.33 15.025z" fill="#3376B3"/><path d="M177.073 160.502l-2.894 1.154c-.579-4.614 2.123-9.195 5.725-10.54l.064 3.62c-2.283.833-2.895 2.979-2.895 5.766z" fill="#709FDC"/><path d="M141.374 70.061l4.728-1.794v5.479l-8.298 3.14v-9.58l11.868-4.485v13.712l-15.438 5.83v-17.94l19.008-7.145v22.747L134.234 87.2" stroke="#3D95D1" stroke-width="5" stroke-miterlimit="10"/><path d="M103.198 76.5l-16.402 28.13m0-21.946l16.402 15.762" stroke="#0E2951" stroke-width="6" stroke-miterlimit="10"/><path d="M122.978 112.927l3.859-1.442v4.614l-3.859 1.474v-4.646zm-5.307-4.325l3.859-1.474v4.614l-3.859 1.473v-4.613zm-5.307-4.357l3.86-1.474v4.646l-3.86 1.441v-4.613z" fill="#B9D5FD"/><path d="M161.604 51.095l18.299-6.952.032 21.978-18.331 6.888V51.095z" fill="#053866"/><path d="M166.525 49.205l13.379-5.062.033 16.05-13.412 5.063V49.205z" fill="#709FDC"/><path d="M167.875 92.007l12.061-4.518v14.417l-12.061 4.549V92.007z" fill="#3D95D1"/><path d="M140.57 58.335l39.333-14.192-96.13-36.106-38.24 14.48 95.037 35.818z" fill="#0D3760"/><path d="M132.852 61.892L83.13 80.505-13 44.463l49.786-18.678 96.066 36.106z" fill="#0D3659"/><path d="M135.939 4l-52.23 4.1-96.13 36.075 52.101-3.973L135.94 4z" fill="#043D60"/><path d="M179.968 44.175L143.979 8.934 47.624 45.136l36.15 35.401 96.194-36.362z" fill="#03446B"/><path d="M83.5 124V80.5l96-37 66-.5-10 22.5 10 22.5-65.5.242L83.5 124z" fill="#FFB4C5"/><path d="M245.5 43l-66 .5.496 44.5H245.5l-9.925-22.5L245.5 43z" fill="#000" fill-opacity=".05"/><path d="M82 123.956V79.332L179.555 43h66l-10 22.61 10 22.609h-66L82 123.956z" fill="#B4D1FA"/><path d="M124.792 92.367c1.436-.547 2.409-1.813 3.09-3.288l-.864-.296c-.462 1.088-1.301 2.048-2.226 2.4-1.776.676-3.126-.618-3.126-3.146 0-2.544 1.35-4.85 3.126-5.526.925-.352 1.764-.016 2.226.704l.852-.948c-.645-.954-1.642-1.487-3.078-.94-2.335.89-4.172 3.829-4.172 7.109s1.837 4.82 4.172 3.93zm11.894-4.721l-3.272-9.426-1.253.477-3.259 11.913 1.155-.44.718-2.641 4.038-1.538.718 2.095 1.155-.44zm-2.177-2.723l-3.442 1.31 1.727-6.401 1.715 5.09zm4.819 1.717l4.731-10.314v8.512l1.01-.384V73.782l-1.034.393-4.671 10.115v-8.336l-1.009.384V87.01l.973-.37zm4.512-14.407l-.45-.34c-.377.863-.973 1.522-1.678 1.791-.718.273-1.302.047-1.691-.508l-.45.683c.499.674 1.277.922 2.141.593.876-.334 1.642-1.17 2.128-2.219zm6.751 10.118v-9.488l2.579-.982v-1.184l-6.155 2.343v1.184l2.567-.977v9.488l1.009-.384z" fill="#000"/><path d="M204 81l.381-4h7.238l.381 4h-8zm-17-8h41v4h-41v-4z" fill="#A62E41"/><path fill-rule="evenodd" clip-rule="evenodd" d="M187.684 49.164a.526.526 0 00-.525.527v23.096h40.682V49.691a.526.526 0 00-.525-.527h-39.632zm0-1.164h39.632c.93 0 1.684.757 1.684 1.691V76.31c0 .934-.754 1.691-1.684 1.691h-32.368a.581.581 0 010-1.165h32.368c.29 0 .525-.235.525-.526v-2.357h-40.682v2.357c0 .29.235.526.525.526h4.335a.58.58 0 01.579.583.58.58 0 01-.579.582h-4.335c-.93 0-1.684-.757-1.684-1.691V49.69a1.69 1.69 0 011.684-1.69z" fill="#000"/><path fill-rule="evenodd" clip-rule="evenodd" d="M203.433 77h9.134l.148 1.713c.025.289-.218.541-.543.564-.326.022-.61-.194-.635-.484l-.064-.743h-6.946l-.251 2.9h7.448l-.042-.489c-.025-.289.218-.541.543-.563.326-.022.61.194.635.483L213 82h-10l.433-5z" fill="#000"/><path fill-rule="evenodd" clip-rule="evenodd" d="M201 81.5c0-.276.262-.5.585-.5h11.83c.323 0 .585.224.585.5s-.262.5-.585.5h-11.83c-.323 0-.585-.224-.585-.5z" fill="#000"/></svg>