<svg width="43" height="34" fill="none" xmlns="http://www.w3.org/2000/svg"><path d="M18 33l.381-4h7.238L26 33h-8zM1 25h41v4H1v-4z" fill="#A62E41"/><path fill-rule="evenodd" clip-rule="evenodd" d="M1.684 1.164a.526.526 0 00-.525.527v23.097h40.682V1.69a.526.526 0 00-.525-.527H1.684zm0-1.164h39.633C42.246 0 43 .757 43 1.691V28.31c0 .934-.754 1.691-1.684 1.691H8.948a.58.58 0 01-.58-.582.58.58 0 01.58-.582h32.368c.29 0 .525-.236.525-.527v-2.357H1.159v2.357c0 .29.235.526.525.526h4.335c.32 0 .58.261.58.583a.58.58 0 01-.58.582H1.684A1.689 1.689 0 010 28.309V1.69A1.689 1.689 0 011.684 0z" fill="#000"/><path fill-rule="evenodd" clip-rule="evenodd" d="M17.433 29h9.134l.148 1.713c.025.289-.218.541-.543.564-.326.022-.61-.194-.635-.483l-.064-.744h-6.946l-.251 2.9h7.448l-.042-.489c-.025-.289.218-.541.543-.563.326-.023.61.194.635.483L27 34H17l.433-5z" fill="#000"/><path fill-rule="evenodd" clip-rule="evenodd" d="M15 33.5c0-.276.262-.5.585-.5h11.83c.323 0 .585.224.585.5s-.262.5-.585.5h-11.83c-.323 0-.585-.224-.585-.5z" fill="#000"/></svg>